<?xml version="1.0" encoding="UTF-8" standalone="no" ?>
<!DOCTYPE svg PUBLIC "-//W3C//DTD SVG 1.1//EN" "http://www.w3.org/Graphics/SVG/1.1/DTD/svg11.dtd">
<svg xmlns="http://www.w3.org/2000/svg" xmlns:xlink="http://www.w3.org/1999/xlink" version="1.1"   viewBox="0 0 855 590" xml:space="preserve" width="855" height="590">
<desc>Created with Fabric.js 4.5.0</desc>
<defs>
</defs>
<rect x="0" y="0" width="100%" height="100%" fill="#dfdddd"></rect>
<g transform="matrix(2.76 0 0 2.76 179.91 380.95)" id="Layer_10"  >
<path style="stroke: none; stroke-width: 1; stroke-dasharray: none; stroke-linecap: butt; stroke-dashoffset: 0; stroke-linejoin: miter; stroke-miterlimit: 4; fill: rgb(44,109,201); fill-rule: nonzero; opacity: 1;"  transform=" translate(-75.38, -115)" d="M 134.14 122.2 C 138.39999999999998 117.95 138.42 112.29 134.17999999999998 108.06 C 128.64999999999998 102.53 123.11999999999998 96.99000000000001 117.57999999999998 91.47 C 116.14999999999998 90.03999999999999 114.66999999999999 88.66 113.17999999999998 87.23 C 113.55999999999997 86.81 113.75999999999998 86.58 113.97999999999998 86.36 C 116.73999999999998 83.59 119.51999999999998 80.83 122.25999999999998 78.05 C 125.59999999999998 74.66 125.21999999999997 70.05 121.36999999999998 67.21 C 116.75999999999998 63.809999999999995 111.87999999999998 60.879999999999995 106.67999999999998 58.46999999999999 C 93.85999999999999 52.49999999999999 80.41999999999997 50.14999999999999 66.36999999999998 51.93999999999999 C 52.519999999999975 53.709999999999994 40.16999999999997 59.19999999999999 29.019999999999975 67.49999999999999 C 25.629999999999974 70.02999999999999 25.299999999999976 74.76999999999998 28.259999999999973 77.78999999999999 C 31.029999999999973 80.60999999999999 33.839999999999975 83.38 36.629999999999974 86.17999999999999 C 36.91999999999997 86.47 37.17999999999997 86.78999999999999 37.479999999999976 87.11 C 37.21999999999998 87.38 37.06999999999998 87.55 36.909999999999975 87.72 C 30.109999999999975 94.53 23.309999999999974 101.34 16.499999999999975 108.13 C 12.399999999999975 112.22 12.369999999999976 117.91999999999999 16.449999999999974 122 C 21.069999999999975 126.62 25.679999999999975 131.24 30.309999999999974 135.85 C 32.659999999999975 138.19 35.02999999999997 140.51 37.45999999999997 142.91 C 37.019999999999975 143.37 36.71999999999997 143.71 36.38999999999997 144.04 C 33.81999999999997 146.60999999999999 31.239999999999974 149.17 28.67999999999997 151.76 C 25.10999999999997 155.35999999999999 25.46999999999997 159.94 29.549999999999972 162.92 C 33.949999999999974 166.14 38.59999999999997 168.94 43.519999999999975 171.27999999999997 C 56.63999999999997 177.50999999999996 70.39999999999998 179.91999999999996 84.81999999999996 177.99999999999997 C 98.53999999999996 176.17999999999998 110.76999999999997 170.67999999999998 121.79999999999995 162.43999999999997 C 125.13999999999996 159.93999999999997 125.42999999999995 155.23999999999998 122.50999999999995 152.20999999999998 C 120.58999999999995 150.20999999999998 118.59999999999995 148.26 116.61999999999995 146.32 C 115.52999999999994 145.26 114.38999999999994 144.25 113.20999999999995 143.17 C 113.70999999999995 142.63 113.98999999999995 142.30999999999997 114.28999999999995 142.01999999999998 C 120.91 135.41 127.52 128.8 134.14 122.2 z M 111.45 143.94 C 107.28 147.94 102.19 150.72 96.91 153.07 C 89.61 156.32 82.69999999999999 157.79999999999998 75.32 157.79999999999998 C 63.459999999999994 157.73 52.92999999999999 153.70999999999998 43.24999999999999 147.08999999999997 C 40.279999999999994 145.05999999999997 37.81999999999999 142.50999999999996 35.29999999999999 139.99999999999997 C 29.14999999999999 133.86999999999998 23.01999999999999 127.71999999999997 16.87999999999999 121.57999999999997 C 13.069999999999988 117.75999999999998 12.939999999999989 112.60999999999997 16.759999999999987 108.73999999999997 C 24.559999999999988 100.82999999999997 32.30999999999999 92.85999999999997 40.36999999999999 85.22999999999996 C 44.66999999999999 81.15999999999997 50.00999999999999 78.43999999999996 55.51999999999999 76.22999999999996 C 72.33999999999999 69.45999999999997 88.38999999999999 71.42999999999996 103.83999999999999 80.52999999999996 C 108.38 83.20999999999997 112.10999999999999 86.76999999999995 115.77999999999999 90.46999999999996 C 121.79999999999998 96.55999999999996 127.87999999999998 102.58999999999996 133.92999999999998 108.64999999999995 C 137.73 112.44999999999995 137.76 117.69999999999995 133.98 121.48999999999995 C 126.49 129 119.1 136.6 111.45 143.94 z M 29.53 119.94 C 28.48 119.17999999999999 27.700000000000003 118.52 26.84 118.03 C 26.51 117.84 25.88 117.83 25.55 118.02 C 24.68 118.50999999999999 23.91 119.16 22.85 119.92 C 23.21 118.79 23.400000000000002 117.92 23.76 117.11 C 24.14 116.25 23.880000000000003 115.74 23.150000000000002 115.28 C 22.450000000000003 114.83 21.790000000000003 114.31 21.19 113.58 C 22.07 113.58 22.96 113.53 23.84 113.59 C 24.66 113.65 25.04 113.33 25.24 112.55 C 25.47 111.64999999999999 25.81 110.77 26.18 109.61999999999999 C 26.53 110.66 26.9 111.46 27.06 112.3 C 27.27 113.38 27.849999999999998 113.69 28.869999999999997 113.59 C 29.63 113.52000000000001 30.4 113.58 31.249999999999996 113.83 C 30.599999999999998 114.3 29.989999999999995 114.83 29.299999999999997 115.22 C 28.409999999999997 115.72 28.269999999999996 116.33 28.659999999999997 117.24 C 28.98 118.01 29.18 118.84 29.53 119.94 z M 126.98 117 C 126.67 116.24 126.84 115.78 127.53 115.36 C 128.29 114.88 128.99 114.3 129.94 113.59 C 129.07 113.59 128.52 113.60000000000001 127.98 113.59 C 125.47 113.54 126.06 113.89 125.27000000000001 111.65 C 125.07000000000001 111.09 124.89000000000001 110.53 124.58000000000001 109.64 C 124.18 110.87 123.88000000000001 111.71 123.64000000000001 112.57000000000001 C 123.44000000000001 113.33000000000001 123.05000000000001 113.67 122.23000000000002 113.60000000000001 C 121.34000000000002 113.53000000000002 120.44000000000001 113.58000000000001 119.21000000000002 113.58000000000001 C 120.28000000000002 114.37000000000002 121.01000000000002 114.95000000000002 121.79000000000002 115.46000000000001 C 122.34000000000002 115.82000000000001 122.48000000000002 116.21000000000001 122.25000000000001 116.82000000000001 C 121.91000000000001 117.73 121.65000000000002 118.67 121.25000000000001 119.92 C 122.30000000000001 119.16 123.09000000000002 118.65 123.80000000000001 118.06 C 124.35000000000001 117.60000000000001 124.77000000000001 117.57000000000001 125.33000000000001 118.03 C 126.08000000000001 118.64 126.89000000000001 119.17 127.93 119.91 C 127.55 118.74 127.32 117.85 126.98 117 z" stroke-linecap="round" />
</g>
<g transform="matrix(2.76 0 0 2.76 724.38 382.35)" id="Layer_10"  >
<path style="stroke: none; stroke-width: 1; stroke-dasharray: none; stroke-linecap: butt; stroke-dashoffset: 0; stroke-linejoin: miter; stroke-miterlimit: 4; fill: rgb(59,36,60); fill-rule: nonzero; opacity: 1;"  transform=" translate(-75.54, -112.61)" d="M 38.74 128.28 C 38.84 126.25 38.730000000000004 124.39 39.06 122.61 C 39.660000000000004 119.39 42.120000000000005 117.37 45.5 117.12 C 46.43 117.05000000000001 46.79 116.74000000000001 46.85 115.82000000000001 C 46.940000000000005 114.50000000000001 47.2 113.19000000000001 47.300000000000004 111.86000000000001 C 47.46 109.71000000000001 48.63 108.18 50.160000000000004 106.80000000000001 C 50.690000000000005 106.32000000000001 51.14 105.59000000000002 51.300000000000004 104.89000000000001 C 51.940000000000005 102.03000000000002 52.410000000000004 99.14000000000001 53.02 96.28000000000002 C 53.690000000000005 93.15000000000002 54.910000000000004 90.32000000000002 57.64 88.37000000000002 C 57.87 88.20000000000002 58 87.79000000000002 58.04 87.48000000000002 C 58.51 84.35000000000002 59.15 83.59000000000002 62.37 83.34000000000002 C 66.11 83.05000000000001 69.86 82.89000000000001 73.61 82.87000000000002 C 79.16 82.85000000000002 84.71 82.95000000000002 90.25999999999999 83.11000000000001 C 93.35 83.20000000000002 94.69 84.51000000000002 94.74 87.64000000000001 C 94.86 95.11000000000001 94.85 102.57000000000002 94.88 110.04000000000002 C 94.89 112.97000000000003 94.89 115.91000000000003 94.89999999999999 118.84000000000002 C 94.89999999999999 119.38000000000002 94.89999999999999 119.91000000000001 94.89999999999999 120.51000000000002 C 94.08999999999999 120.40000000000002 93.46 120.31000000000002 92.82 120.22000000000001 C 92.75999999999999 120.35000000000001 92.69 120.49000000000001 92.63 120.62000000000002 C 92.94999999999999 120.79000000000002 93.25999999999999 121.04000000000002 93.6 121.11000000000001 C 96.41999999999999 121.69000000000001 99.25 122.24000000000001 102.05 122.97000000000001 C 98.11999999999999 122.74000000000001 94.2 122.52000000000001 90.28999999999999 122.29 C 89.74 124.03 89.89999999999999 124.26 91.58 124.39 C 95.23 124.68 98.87 124.98 102.50999999999999 125.39 C 98.44999999999999 125.55 94.39999999999999 125.72 90.24999999999999 125.88 C 90.24999999999999 126.75999999999999 90.24999999999999 127.52 90.24999999999999 128.47 C 94.35999999999999 128.13 98.41999999999999 127.8 102.47999999999999 127.47 C 102.47999999999999 127.49 102.49 127.52 102.49 127.53999999999999 C 99.00999999999999 128.23 95.52 128.91 92.03999999999999 129.60999999999999 C 90.13 129.99999999999997 90.13 130.01 90.33 132.19 C 91.12 132.02 91.89999999999999 131.85999999999999 92.67 131.68 C 96.36 130.83 100.05 129.94 103.75 129.12 C 104.51 128.95000000000002 104.79 128.65 104.77 127.87 C 104.72 126.03 104.7 124.19 104.78 122.36 C 104.82000000000001 121.45 104.46000000000001 121.13 103.63 121.02 C 101.42999999999999 120.72 99.24 120.36999999999999 96.97999999999999 120.02 C 96.97999999999999 119.32 96.97999999999999 118.71 96.97999999999999 117.89999999999999 C 101.71 119.27999999999999 106.36999999999999 120.64999999999999 111.02999999999999 122.00999999999999 C 111.01999999999998 122.05999999999999 111.00999999999999 122.10999999999999 111.00999999999999 122.16 C 109.17999999999999 121.89 107.33999999999999 121.61999999999999 105.3 121.32 C 105.3 123.13 105.3 124.83 105.3 126.52999999999999 C 105.3 129.01999999999998 105.3 129.04 103.00999999999999 129.79 C 98.74 131.2 94.47 132.59 90.19999999999999 133.98 C 89.83999999999999 134.1 89.46 134.19 88.92999999999999 134.34 C 88.92999999999999 133.81 88.92999999999999 133.39000000000001 88.92999999999999 132.98 C 88.94 127.61999999999999 88.92999999999999 122.25999999999999 88.99 116.91 C 89 115.88 88.69 115.45 87.67999999999999 115.55 C 85.52999999999999 115.75999999999999 83.36999999999999 115.98 81.33 116.17999999999999 C 81.62 114.88999999999999 83.64999999999999 112.21 85.4 111 C 87.43 109.59 89.79 109.4 92.18 109.28 C 92.19000000000001 109.18 92.2 109.08 92.2 108.98 C 92 108.89 91.8 108.71000000000001 91.60000000000001 108.71000000000001 C 90.78000000000002 108.7 89.96000000000001 108.75000000000001 89.14000000000001 108.76 C 88.13000000000001 108.77000000000001 87.59000000000002 108.23 87.58000000000001 107.26 C 87.55000000000001 103.86 87.55000000000001 100.45 87.58000000000001 97.05000000000001 C 87.59000000000002 95.97000000000001 88.30000000000001 95.44000000000001 89.39000000000001 95.67000000000002 C 90.26000000000002 95.85000000000002 91.12000000000002 96.10000000000002 92.07000000000002 96.34000000000002 C 92.07000000000002 93.17000000000002 92.07000000000002 90.13000000000002 92.07000000000002 87.09000000000002 C 91.95000000000002 87.00000000000001 91.83000000000003 86.91000000000001 91.70000000000002 86.82000000000002 C 90.48000000000002 87.75000000000003 89.18000000000002 88.59000000000002 88.07000000000002 89.63000000000002 C 87.11000000000003 90.53000000000003 86.28000000000002 91.60000000000002 85.55000000000003 92.70000000000002 C 84.97000000000003 93.58000000000001 84.37000000000002 93.98000000000002 83.24000000000002 93.44000000000001 C 84.83000000000003 90.30000000000001 87.36000000000003 88.30000000000001 90.57000000000002 86.89000000000001 C 89.85000000000002 87.02000000000001 89.11000000000003 87.09000000000002 88.41000000000003 87.30000000000001 C 84.06000000000003 88.62 79.62000000000003 88.97000000000001 75.09000000000003 88.84000000000002 C 70.67000000000003 88.71000000000002 66.25000000000003 88.82000000000002 61.830000000000034 88.81000000000002 C 61.330000000000034 88.81000000000002 60.80000000000003 88.81000000000002 60.330000000000034 88.66000000000001 C 59.320000000000036 88.34000000000002 58.680000000000035 88.70000000000002 58.10000000000004 89.83000000000001 C 62.26000000000003 89.95000000000002 66.29000000000003 90.07000000000001 70.31000000000003 90.19000000000001 C 70.31000000000003 90.21000000000001 70.31000000000003 90.23000000000002 70.31000000000003 90.25000000000001 C 66.41000000000003 90.25000000000001 62.50000000000003 90.26000000000002 58.60000000000003 90.24000000000001 C 57.93000000000003 90.24000000000001 57.33000000000003 90.27000000000001 57.21000000000003 91.35000000000001 C 61.82000000000003 91.50000000000001 66.40000000000003 91.66000000000001 70.99000000000002 91.81 C 70.99000000000002 91.84 70.99000000000002 91.87 70.99000000000002 91.89 C 66.59000000000002 91.89 62.18000000000002 91.89 57.78000000000002 91.89 C 57.11000000000002 91.89 56.50000000000002 91.91 56.54000000000002 93.05 C 61.03000000000002 93.19 65.53000000000002 93.33 70.03000000000002 93.47 C 70.03000000000002 93.55 70.03000000000002 93.63 70.03000000000002 93.71 C 65.77000000000001 93.71 61.51000000000002 93.71 57.250000000000014 93.71 C 56.63000000000002 93.71 55.91000000000001 93.6 56.08000000000001 94.8 C 56.56000000000001 94.8 57.05000000000001 94.81 57.54000000000001 94.8 C 65.59000000000002 94.66 73.65 94.52 81.70000000000002 94.38 C 81.78000000000002 94.38 81.86000000000001 94.36999999999999 81.93000000000002 94.36999999999999 C 85.16000000000003 94.3 85.43000000000002 94.57 85.60000000000002 97.82 C 85.69000000000003 99.61999999999999 85.82000000000002 101.41 85.95000000000002 103.19999999999999 C 86.05000000000001 104.69999999999999 85.66000000000001 105.25999999999999 84.18000000000002 105.32 C 79.96000000000002 105.47999999999999 75.74000000000002 105.63999999999999 71.52000000000002 105.66 C 65.38000000000002 105.67999999999999 59.24000000000002 105.58 53.10000000000002 105.53 C 52.940000000000026 105.53 52.76000000000002 105.47 52.64000000000002 105.52 C 52.340000000000025 105.66 52.060000000000024 105.85 51.770000000000024 106.02 C 52.03000000000002 106.17999999999999 52.28000000000002 106.46 52.560000000000024 106.47999999999999 C 54.08000000000003 106.60999999999999 55.60000000000002 106.74999999999999 57.120000000000026 106.75999999999999 C 63.14000000000003 106.78999999999999 69.16000000000003 106.77 75.18000000000002 106.77 C 75.53000000000002 106.77 75.88000000000002 106.77 76.23000000000002 106.77 C 76.23000000000002 106.83 76.24000000000002 106.88 76.24000000000002 106.94 C 72.79000000000002 107.22 69.35000000000002 107.64999999999999 65.89000000000003 107.75 C 61.050000000000026 107.89 56.20000000000003 107.79 51.35000000000003 107.77 C 50.260000000000026 107.75999999999999 49.88000000000003 108.07 49.22000000000003 109.88 C 49.660000000000025 109.92 50.06000000000003 110 50.46000000000003 110 C 57.27000000000003 110.02 64.07000000000002 110.1 70.87000000000003 109.98 C 72.58000000000003 109.95 74.29000000000003 109.26 75.98000000000003 108.83 C 76.61000000000003 108.67 77.22000000000003 108.39999999999999 77.93000000000004 108.35 C 77.55000000000004 108.55 77.17000000000003 108.75 76.79000000000003 108.96 C 74.24000000000004 110.39 72.61000000000004 112.36999999999999 72.59000000000003 115.49 C 72.57000000000004 117.78999999999999 72.30000000000003 120.08999999999999 72.12000000000003 122.66 C 71.91000000000004 119.03999999999999 71.68000000000004 115.7 71.53000000000003 112.36 C 71.49000000000002 111.4 71.15000000000003 111.14 70.19000000000003 111.15 C 63.43000000000003 111.25 56.660000000000025 111.31 49.90000000000003 111.32000000000001 C 48.86000000000003 111.32000000000001 48.49000000000003 111.61000000000001 48.410000000000025 112.67 C 48.060000000000024 117.15 47.620000000000026 121.62 47.200000000000024 126.1 C 47.11000000000002 127 47.71000000000002 126.91 48.25000000000002 126.91 C 51.50000000000002 126.92 54.74000000000002 126.92 57.99000000000002 126.92 C 62.49000000000002 126.92 66.99000000000002 126.9 71.48000000000002 126.93 C 72.31000000000002 126.94000000000001 72.65000000000002 126.62 73.04000000000002 125.9 C 73.96000000000002 124.2 75.09000000000002 122.60000000000001 76.10000000000002 120.94000000000001 C 76.33000000000003 120.57000000000001 76.52000000000002 120.12000000000002 76.55000000000003 119.69000000000001 C 76.71000000000002 117.37000000000002 77.13000000000002 115.12 78.16000000000003 113.01000000000002 C 79.61000000000003 110.05000000000003 81.84000000000003 108.27000000000002 85.37000000000002 107.44000000000003 C 81.26000000000002 110.04000000000002 79.87000000000002 113.78000000000003 79.48000000000002 118.33000000000003 C 82.15000000000002 117.23000000000003 84.74000000000002 116.75000000000003 87.64000000000001 117.10000000000002 C 84.95000000000002 119.96000000000002 83.83000000000001 123.41000000000003 82.62000000000002 126.84000000000002 C 82.48000000000002 127.25000000000001 81.82000000000002 127.68000000000002 81.36000000000001 127.73000000000002 C 78.99000000000001 127.98000000000002 76.61000000000001 128.25000000000003 74.23000000000002 128.26000000000002 C 63.01000000000002 128.3 51.780000000000015 128.26000000000002 40.55000000000002 128.25000000000003 C 40.07 128.28 39.57 128.28 38.74 128.28 z M 51.81 104.67 C 53 104.76 53.89 104.87 54.77 104.88 C 60.940000000000005 104.91 67.11 104.94 73.28 104.92 C 76.4 104.91 79.53 104.78 82.65 104.69 C 84.01 104.64999999999999 84.58000000000001 104.23 84.53 103.14 C 84.45 101.11 84.25 99.09 84.1 97.07 C 84.03 96.1 83.44 95.69 82.55 95.66 C 81.11 95.61999999999999 79.67 95.61 78.22 95.63 C 70.67999999999999 95.72 63.14 95.83 55.61 95.91 C 54.69 95.92 53.93 96.14 53.68 97.07 C 53.05 99.51 52.47 101.97 51.81 104.67 z M 86.5 117.32 C 86.33 117.32 85.97 117.25999999999999 85.64 117.33 C 83.08 117.87 80.67 118.82 78.83 120.72 C 77.88 121.7 77.16 122.96 76.58 124.21 C 75.97 125.53999999999999 76.55 126.39 78 126.61 C 79.61 126.85 81.09 126.42 82.46 125.58 C 82.66999999999999 125.45 82.86 125.21 82.97 124.98 C 84.15 122.45 85.31 119.92 86.5 117.32 z M 46.64 117.53 C 43.7 117.98 41.66 120.2 41.5 123.1 C 41.44 124.25999999999999 41.57 125.44 41.73 126.58999999999999 C 41.779999999999994 126.94999999999999 42.199999999999996 127.52999999999999 42.47 127.53999999999999 C 43.53 127.58999999999999 44.589999999999996 127.46 45.65 127.38 C 45.69 127.38 45.73 127.17 45.74 127.06 C 46.04 123.92 46.33 120.78 46.64 117.53 z M 89.74 97.84 C 90.39999999999999 97.98 90.96 98.14 91.52 98.21000000000001 C 91.72999999999999 98.24000000000001 91.96 98.07000000000001 92.19 97.99000000000001 C 92.03999999999999 97.79 91.94 97.50000000000001 91.74 97.41000000000001 C 91.35 97.24000000000001 90.92 97.17000000000002 90.5 97.06000000000002 C 88.74 96.59000000000002 88.66 96.65000000000002 88.66 98.52000000000001 C 88.66 100.59 88.66 102.66000000000001 88.66 104.73 C 88.67 107.58 88.25999999999999 107.33 91.47999999999999 107.23 C 91.71999999999998 107.22 91.94999999999999 106.95 92.18999999999998 106.81 C 91.94999999999999 106.62 91.73999999999998 106.36 91.45999999999998 106.27 C 91.13999999999999 106.17 90.73999999999998 106.28999999999999 90.41999999999997 106.17 C 90.14999999999998 106.07000000000001 89.76999999999997 105.78 89.75999999999998 105.57000000000001 C 89.72 103.04 89.74 100.51 89.74 97.84 z M 87.78 127.65 C 87.78 129.96 87.81 132.18 87.75 134.39000000000001 C 87.74 134.65 87.3 135.06 86.99 135.14000000000001 C 85.07 135.62 83.14 136.39000000000001 81.21 136.39000000000001 C 67.72 136.35000000000002 54.239999999999995 136.14000000000001 40.74999999999999 135.98000000000002 C 38.85999999999999 135.96 37.949999999999996 135.01000000000002 37.949999999999996 133.14000000000001 C 37.949999999999996 132.05 38.019999999999996 130.95000000000002 38.04 129.86 C 38.05 129.02 38.47 128.69000000000003 39.29 128.70000000000002 C 51.21 128.84 63.14 129.09 75.06 129.05 C 78.94 129.04000000000002 82.81 128.28 86.69 127.86000000000001 C 87 127.81 87.3 127.74 87.78 127.65 z M 76.12 132.63 C 76.13000000000001 131.35 75.4 130.32999999999998 74.47 130.29999999999998 C 73.55 130.27999999999997 72.75 131.32 72.72 132.55999999999997 C 72.69 133.82999999999998 73.52 134.96999999999997 74.45 134.95999999999998 C 75.35 134.94 76.11 133.89 76.12 132.63 z M 43.23 132.5 C 43.25 131.44 42.61 130.52 41.839999999999996 130.48 C 41.089999999999996 130.45 40.339999999999996 131.41 40.33 132.41 C 40.32 133.43 41 134.4 41.75 134.42 C 42.52 134.45 43.21 133.55 43.23 132.5 z M 59.27 125.91 C 56.300000000000004 125.91 53.330000000000005 125.92 50.36 125.91 C 48.89 125.91 48.339999999999996 125.36 48.41 123.92999999999999 C 48.559999999999995 120.88 48.73 117.83999999999999 48.91 114.8 C 49.01 113.17999999999999 49.41 112.83 51.019999999999996 112.83 C 56.65 112.83 62.279999999999994 112.83 67.91 112.83 C 69.72 112.83 70.09 113.21 70.1 115.03 C 70.11999999999999 118 70.14 120.97 70.14999999999999 123.95 C 70.16 125.41 69.64999999999999 125.92 68.17999999999999 125.92 C 65.21 125.92 62.24 125.92 59.27 125.91 C 59.27 125.91 59.27 125.91 59.27 125.91 z M 51.49 113.21 C 49.71 112.99 49.29 113.33 49.2 114.83999999999999 C 49.040000000000006 117.75999999999999 48.870000000000005 120.67999999999999 48.720000000000006 123.60999999999999 C 48.63 125.43999999999998 49.2 125.87999999999998 51.13000000000001 125.37999999999998 C 51.26 121.37 51.37 117.32 51.49 113.21 z M 67.79 125.5 C 69.38000000000001 125.67 69.86 125.36 69.86 124.11 C 69.88 120.95 69.87 117.78999999999999 69.82 114.64 C 69.8 113.32000000000001 69.16 112.92 67.77999999999999 113.31 C 67.79 117.33 67.79 121.37 67.79 125.5 z M 65.18 113.18 C 63.56000000000001 113.01 63.57000000000001 113.01 63.53000000000001 114.52000000000001 C 63.50000000000001 115.73 63.42000000000001 116.94000000000001 63.41000000000001 118.15 C 63.39000000000001 120.59 63.40000000000001 123.04 63.40000000000001 125.54 C 63.930000000000014 125.54 64.46000000000001 125.54 65.17000000000002 125.54 C 65.18 121.41 65.18 117.34 65.18 113.18 z M 59.42 113.24 C 59.300000000000004 117.28999999999999 59.18 121.36 59.06 125.49 C 59.730000000000004 125.49 60.25 125.49 60.85 125.49 C 60.96 121.8 61.06 118.21 61.18 114.61 C 61.23 113 61.19 112.94 59.42 113.24 z M 67.36 113.23 C 65.67 112.97 65.67 112.97 65.63 114.52000000000001 C 65.58999999999999 116.62 65.53 118.73 65.5 120.83000000000001 C 65.48 122.38000000000001 65.5 123.92000000000002 65.5 125.50000000000001 C 66.2 125.50000000000001 66.75 125.50000000000001 67.36 125.50000000000001 C 67.36 121.37 67.36 117.33 67.36 113.23 z M 63.04 113.18 C 61.48 112.98 61.49 112.98 61.44 114.53 C 61.379999999999995 116.44 61.29 118.36 61.26 120.27 C 61.23 122.00999999999999 61.25 123.75 61.25 125.5 C 61.85 125.5 62.33 125.5 63.04 125.5 C 63.04 121.37 63.04 117.32 63.04 113.18 z M 57.49 125.54 C 58.15 125.68 58.82 125.74000000000001 58.84 124.52000000000001 C 58.900000000000006 121.02000000000001 59.02 117.51 59.13 114.01 C 59.150000000000006 113.5 59.13 113.09 58.43 113.08 C 57.8 113.07 57.49 113.27 57.49 113.92999999999999 C 57.5 117.74 57.49 121.55 57.49 125.54 z M 55.61 113.24 C 55.49 117.33999999999999 55.37 121.39999999999999 55.25 125.49 C 55.87 125.49 56.32 125.49 56.84 125.49 C 56.970000000000006 121.71 57.06 118.00999999999999 57.24 114.32 C 57.3 113.13 56.82 112.88 55.61 113.24 z M 55.32 113.24 C 54.08 112.88 53.660000000000004 113.17999999999999 53.65 114.35 C 53.62 117.78 53.47 121.21 53.37 124.63999999999999 C 53.36 124.92999999999999 53.41 125.22999999999999 53.44 125.53999999999999 C 53.96 125.53999999999999 54.379999999999995 125.53999999999999 54.949999999999996 125.53999999999999 C 55.07 121.41 55.19 117.34 55.32 113.24 z M 53.14 125.52 C 53.14 121.38 53.14 117.31 53.14 113.22 C 51.85 112.96 51.8 113 51.77 114.39 C 51.68 117.51 51.59 120.63 51.510000000000005 123.74 C 51.49 124.30999999999999 51.510000000000005 124.88 51.510000000000005 125.52 C 52.02 125.52 52.47 125.52 53.14 125.52 z M 88.76 135.71 C 88.54 136.49 88.48 137.37 88.06 138.03 C 87.64 138.69 86.94 139.42 86.23 139.6 C 85.31 139.82999999999998 84.75 138.93 84.36 138.13 C 84.24 137.89 84.14 137.64 84.11 137.57999999999998 C 81.25 137.57999999999998 78.51 137.57999999999998 75.76 137.57999999999998 C 76.05000000000001 140.52999999999997 77.22 142.26 79.27000000000001 142.32999999999998 C 81.48 142.41 83.71000000000001 142.20999999999998 85.91000000000001 141.99999999999997 C 87.56000000000002 141.83999999999997 88.48 140.70999999999998 88.76 139.14999999999998 C 88.96000000000001 138.01999999999998 88.94000000000001 136.83999999999997 89.02000000000001 135.68999999999997 C 88.94 135.69 88.85 135.7 88.76 135.71 z M 112.87 123.56 C 112.56 124.55 112.26 125.54 111.95 126.53 C 111.77 126.53 111.59 126.53 111.41 126.52 C 111.1 125.44 110.78999999999999 124.36 110.42999999999999 123.11999999999999 C 109.13999999999999 123.11999999999999 107.75999999999999 123.11999999999999 106.08999999999999 123.11999999999999 C 106.40999999999998 125.03999999999999 106.61999999999999 126.89999999999999 107.05999999999999 128.7 C 107.36999999999999 129.97 108.37999999999998 130.47 109.78999999999999 130.42 C 111.22 130.36999999999998 112.11999999999999 129.82 112.38999999999999 128.53 C 112.73999999999998 126.9 112.89999999999999 125.24 113.13999999999999 123.59 C 113.04 123.59 112.95 123.58 112.87 123.56 z M 47.45 141.91 C 47.720000000000006 141.91 48 141.9 48.27 141.89 C 50.89 141.76 52.160000000000004 140.11999999999998 51.71 137.33999999999997 C 48.7 137.33999999999997 45.67 137.33999999999997 42.64 137.33999999999997 C 43.42 141.94 43.78 141.87 47.45 141.91 z M 111.54 104.6 C 106.35000000000001 98.42999999999999 101.15 92.25 95.96000000000001 86.08 C 95.93 87.45 96.07000000000001 88.69 96.29 89.91 C 96.35000000000001 90.22 96.57000000000001 90.56 96.81 90.78 C 101.65 95.44 106.5 100.08 111.35 104.73 C 111.41 104.69 111.48 104.64 111.54 104.6 z M 47.15 103.27 C 47.15 104.25 47.14 105.22 47.15 106.2 C 47.16 107.01 47.69 107.67 48.36 107.35000000000001 C 49.18 106.96000000000001 50.22 106.19000000000001 50.37 105.42 C 50.68 103.8 50.51 102.08 50.47 100.4 C 50.44 99.21000000000001 49.519999999999996 99.29 48.68 99.28 C 47.85 99.27 47.18 99.43 47.16 100.45 C 47.14 101.4 47.15 102.33 47.15 103.27 C 47.15 103.27 47.15 103.27 47.15 103.27 z M 110.32 111.65 C 105.91 108.21000000000001 101.5 104.76 97.08999999999999 101.32000000000001 C 96.96 101.4 96.82 101.48 96.68999999999998 101.56 C 96.94999999999999 102.26 96.98999999999998 103.29 97.48999999999998 103.62 C 101.66999999999999 106.43 105.93999999999998 109.11 110.18999999999998 111.82000000000001 C 110.23 111.76 110.27 111.7 110.32 111.65 z M 98.18 109.58 C 102.11000000000001 111.39 105.95 113.37 109.83000000000001 115.28 C 110.02000000000001 115.38 110.24000000000001 115.43 110.44000000000001 115.5 C 110.46000000000001 115.46 110.48000000000002 115.41 110.50000000000001 115.37 C 106.04000000000002 112.55000000000001 101.58000000000001 109.72 97.04000000000002 106.85000000000001 C 96.74 108.18 96.87 108.98 98.18 109.58 z M 110.12 118.75 C 105.76 116.68 101.41 114.61 96.99000000000001 112.51 C 96.82000000000001 114.57000000000001 96.81 114.57000000000001 98.54 115.15 C 100.53 115.82000000000001 102.53 116.5 104.52000000000001 117.17 C 106.35000000000001 117.78 108.19000000000001 118.38 110.03000000000002 118.98 C 110.06 118.9 110.09 118.82 110.12 118.75 z M 98.01 99.05 C 101.65 101.67 105.21000000000001 104.41 108.81 107.09 C 109.05 107.27000000000001 109.32000000000001 107.42 109.58 107.58 C 109.61 107.52 109.64999999999999 107.47 109.67999999999999 107.41 C 105.52 103.71 101.35 100 97.05999999999999 96.19 C 96.69 97.54 96.99 98.32 98.01 99.05 z M 78.69 124.28 C 79.88 122.59 81.14999999999999 120.81 82.32 119.14 C 80.16 120.12 78.82 121.86 78.69 124.28 z M 42.75 125.79 C 43.34 124.03 44.02 122 44.66 120.11000000000001 C 42.98 121.02 42.24 123.25 42.75 125.79 z" stroke-linecap="round" />
</g>
<g transform="matrix(1 0 0 1 462.26 246.58)" style=""  >
		<text xml:space="preserve" font-family="msyi" font-size="40" font-style="normal" font-weight="normal" style="stroke: none; stroke-width: 1; stroke-dasharray: none; stroke-linecap: butt; stroke-dashoffset: 0; stroke-linejoin: miter; stroke-miterlimit: 4; fill: rgb(0,87,107); fill-rule: nonzero; opacity: 1; white-space: pre;" ><tspan x="-91.26" y="-13.65" >T</tspan><tspan x="-68.7" y="-13.65" >r</tspan><tspan x="-54.76" y="-13.65" >a</tspan><tspan x="-34.16" y="-13.65" >d</tspan><tspan x="-13.56" y="-13.65" >e</tspan><tspan x="7.04" y="-13.65" style="white-space: pre; "> </tspan><tspan x="28.62" y="-13.65" >&amp;</tspan><tspan x="-91.26" y="38.78" >L</tspan><tspan x="-70.36" y="38.78" >o</tspan><tspan x="-49.76" y="38.78" >g</tspan><tspan x="-29.16" y="38.78" >i</tspan><tspan x="-18.36" y="38.78" >s</tspan><tspan x="0.56" y="38.78" >t</tspan><tspan x="12.86" y="38.78" >i</tspan><tspan x="23.66" y="38.78" >c</tspan><tspan x="42.58" y="38.78" >s</tspan></text>
</g>
</svg>