<?xml version="1.0" encoding="UTF-8" standalone="no" ?>
<!DOCTYPE svg PUBLIC "-//W3C//DTD SVG 1.1//EN" "http://www.w3.org/Graphics/SVG/1.1/DTD/svg11.dtd">
<svg xmlns="http://www.w3.org/2000/svg" xmlns:xlink="http://www.w3.org/1999/xlink" version="1.1"   viewBox="0 0 855 590" xml:space="preserve" width="855" height="590">
<desc>Created with Fabric.js 4.5.0</desc>
<defs>
</defs>
<rect x="0" y="0" width="100%" height="100%" fill="#ffffff"></rect>
<g transform="matrix(2.74 0 0 2.74 396.44 218.52)" id="Layer_1"  >
<path style="stroke: none; stroke-width: 1; stroke-dasharray: none; stroke-linecap: butt; stroke-dashoffset: 0; stroke-linejoin: miter; stroke-miterlimit: 4; fill: rgb(234,53,96); fill-rule: nonzero; opacity: 1;"  transform=" translate(-163.66, -94.64)" d="M 163.63 158.78 L 162.51 158.5 C 125.6 149.17 107.96 116.53 108.57999999999998 58.709999999999994 L 108.61999999999999 55.35999999999999 L 111.8 54.309999999999995 C 121.25999999999999 51.199999999999996 128.42 43.599999999999994 130.96 33.98 L 131.88 30.499999999999996 L 195.43 30.499999999999996 L 196.35 33.98 C 198.89 43.589999999999996 206.04999999999998 51.19 215.51 54.309999999999995 L 218.69 55.35999999999999 L 218.73 58.709999999999994 C 219.04 87.72 215.04 109.77 206.5 126.11999999999999 C 197.66 143.04999999999998 183.61 153.95 164.75 158.51 L 163.63 158.78 z M 122.24 65.06 C 122.28 88 125.77 106.18 132.62 119.13 C 139.44 132.03 149.61 140.17 163.68 143.98 C 177.95000000000002 140.26999999999998 188.19 132.16 194.95000000000002 119.21999999999998 C 201.75000000000003 106.20999999999998 205.07000000000002 88.46999999999998 205.08 65.07 C 196.23000000000002 61.269999999999996 189.38000000000002 54.05 186.07000000000002 45.029999999999994 L 141.25000000000003 45.029999999999994 C 137.93 54.04 131.09 61.26 122.24 65.06 z" stroke-linecap="round" />
</g>
<g transform="matrix(2.74 0 0 2.74 396.43 218.29)" id="Layer_1"  >
<path style="stroke: none; stroke-width: 1; stroke-dasharray: none; stroke-linecap: butt; stroke-dashoffset: 0; stroke-linejoin: miter; stroke-miterlimit: 4; fill: rgb(255,255,255); fill-rule: nonzero; opacity: 1;"  transform=" translate(-163.65, -94.56)" d="M 206.26 62.28 C 198.23 58.84 191.89999999999998 52.17 188.89999999999998 43.980000000000004 L 188.17 42.00000000000001 L 139.13 42.00000000000001 L 138.4 43.980000000000004 C 135.39000000000001 52.17 129.07 58.84 121.04 62.28 L 119.2 63.07 L 119.2 65.07 C 119.24000000000001 88.5 122.85000000000001 107.16 129.93 120.54999999999998 C 137.17000000000002 134.23999999999998 147.95000000000002 142.85999999999999 162.88 146.89999999999998 L 163.66 147.10999999999999 L 164.44 146.91 C 179.59 142.98 190.45 134.38 197.63 120.62 C 204.66 107.15 208.09 88.98 208.1 65.07000000000001 L 208.1 63.07000000000001 L 206.26 62.28 z" stroke-linecap="round" />
</g>
<g transform="matrix(2.74 0 0 2.74 392.9 217.9)" id="Layer_1"  >
<path style="stroke: none; stroke-width: 1; stroke-dasharray: none; stroke-linecap: butt; stroke-dashoffset: 0; stroke-linejoin: miter; stroke-miterlimit: 4; fill: rgb(199,231,255); fill-rule: nonzero; opacity: 1;"  transform=" translate(-162.36, -94.41)" d="M 139.13 41.99 L 138.4 43.97 C 135.39000000000001 52.16 129.07 58.83 121.04 62.269999999999996 L 119.2 63.059999999999995 L 119.2 63.48 L 164.65 146.84 C 176.19 143.8 185.22 138.03 192.03 129.32 L 144.42000000000002 41.989999999999995 L 139.13 41.989999999999995 z M 175.79 41.99 L 163.23999999999998 41.99 L 201.39 111.97 C 203.08999999999997 107.28999999999999 204.47 102.16 205.51999999999998 96.53 L 175.79 41.99 z" stroke-linecap="round" />
</g>
<g transform="matrix(2.74 0 0 2.74 396.44 218.11)" id="Layer_1"  >
<path style="stroke: none; stroke-width: 1; stroke-dasharray: none; stroke-linecap: butt; stroke-dashoffset: 0; stroke-linejoin: miter; stroke-miterlimit: 4; fill: rgb(0,45,79); fill-rule: nonzero; opacity: 1;"  transform=" translate(-163.66, -94.49)" d="M 163.68 143.98 L 162.63 143.67 C 149.09 139.73999999999998 139.26999999999998 131.70999999999998 132.60999999999999 119.11999999999999 C 126.00999999999999 106.64999999999999 122.52999999999999 89.28999999999999 122.24999999999999 67.51999999999998 L 122.21999999999998 65.13999999999999 L 124.33999999999999 64.05999999999999 C 131.39999999999998 60.44999999999999 137.07 54.48999999999999 140.32 47.25999999999999 L 141.34 44.99999999999999 L 185.97 44.99999999999999 L 186.99 47.25999999999999 C 190.24 54.489999999999995 195.92000000000002 60.44999999999999 202.98000000000002 64.05999999999999 L 205.09000000000003 65.13999999999999 L 205.06000000000003 67.50999999999999 C 204.82000000000002 89.71 201.51000000000002 106.61999999999999 194.95000000000005 119.19999999999999 C 188.35000000000005 131.83999999999997 178.47000000000006 139.85 164.73000000000005 143.67999999999998 L 163.68 143.98 z M 122.82 65.51 L 122.85 67.52000000000001 C 123.13 89.19000000000001 126.58999999999999 106.46000000000001 133.14 118.85000000000001 C 139.72 131.29000000000002 149.42 139.23000000000002 162.79999999999998 143.11 L 163.68999999999997 143.37 L 164.57999999999996 143.12 C 178.14999999999995 139.33 187.90999999999997 131.42000000000002 194.42999999999995 118.94 C 200.94999999999996 106.45 204.23999999999995 89.63 204.47999999999996 67.52 L 204.49999999999997 65.50999999999999 L 202.70999999999998 64.6 C 195.52999999999997 60.92999999999999 189.76 54.85999999999999 186.45 47.519999999999996 L 185.58999999999997 45.61 L 141.72999999999996 45.61 L 140.86999999999995 47.519999999999996 C 137.56999999999994 54.86 131.78999999999994 60.92999999999999 124.61999999999995 64.6 L 122.82 65.51 z" stroke-linecap="round" />
</g>
<g transform="matrix(2.74 0 0 2.74 453.21 263.59)" id="Layer_1"  >
<path style="stroke: none; stroke-width: 1; stroke-dasharray: none; stroke-linecap: butt; stroke-dashoffset: 0; stroke-linejoin: miter; stroke-miterlimit: 4; fill: rgb(51,130,209); fill-rule: nonzero; opacity: 1;"  transform=" translate(-184.38, -111.1)" d="M 223.14 125.07 L 145.63 125.07 C 144.56 125.07 143.69 124.19999999999999 143.69 123.13 L 143.69 99.08 C 143.69 98.01 144.56 97.14 145.63 97.14 L 223.14 97.14 C 224.20999999999998 97.14 225.07999999999998 98.01 225.07999999999998 99.08 L 225.07999999999998 123.13 C 225.08 124.2 224.21 125.07 223.14 125.07 z M 223.14 155.89 L 145.63 155.89 C 144.56 155.89 143.69 155.01999999999998 143.69 153.95 L 143.69 129.9 C 143.69 128.83 144.56 127.96000000000001 145.63 127.96000000000001 L 223.14 127.96000000000001 C 224.20999999999998 127.96000000000001 225.07999999999998 128.83 225.07999999999998 129.9 L 225.07999999999998 153.95000000000002 C 225.08 155.02 224.21 155.89 223.14 155.89 z M 223.14 94.25 L 145.63 94.25 C 144.56 94.25 143.69 93.38 143.69 92.31 L 143.69 68.25 C 143.69 67.18 144.56 66.31 145.63 66.31 L 223.14 66.31 C 224.20999999999998 66.31 225.07999999999998 67.18 225.07999999999998 68.25 L 225.07999999999998 92.3 C 225.08 93.38 224.21 94.25 223.14 94.25 z" stroke-linecap="round" />
</g>
<g transform="matrix(2.74 0 0 2.74 503.19 263.6)" id="Layer_1"  >
<path style="stroke: none; stroke-width: 1; stroke-dasharray: none; stroke-linecap: butt; stroke-dashoffset: 0; stroke-linejoin: miter; stroke-miterlimit: 4; fill: rgb(255,255,255); fill-rule: nonzero; opacity: 1;"  transform=" translate(-202.64, -111.1)" d="M 200.23 111.1 C 200.23 112.16999999999999 199.35999999999999 113.03999999999999 198.29 113.03999999999999 C 197.22 113.03999999999999 196.35 112.16999999999999 196.35 111.1 C 196.35 110.03 197.22 109.16 198.29 109.16 C 199.35999999999999 109.16 200.23 110.03 200.23 111.1 z M 198.29 113.34 C 197.06 113.34 196.06 112.34 196.06 111.11 C 196.06 109.88 197.06 108.88 198.29 108.88 C 199.51999999999998 108.88 200.51999999999998 109.88 200.51999999999998 111.11 C 200.53 112.33 199.52 113.34 198.29 113.34 z M 198.29 109.46 C 197.38 109.46 196.65 110.19999999999999 196.65 111.1 C 196.65 112.00999999999999 197.39000000000001 112.74 198.29 112.74 C 199.2 112.74 199.92999999999998 112 199.92999999999998 111.1 C 199.94 110.2 199.2 109.46 198.29 109.46 z M 200.23 141.92 C 200.23 142.98999999999998 199.35999999999999 143.85999999999999 198.29 143.85999999999999 C 197.22 143.85999999999999 196.35 142.98999999999998 196.35 141.92 C 196.35 140.85 197.22 139.98 198.29 139.98 C 199.35999999999999 139.98 200.23 140.85 200.23 141.92 z M 198.29 144.16 C 197.06 144.16 196.06 143.16 196.06 141.93 C 196.06 140.70000000000002 197.06 139.70000000000002 198.29 139.70000000000002 C 199.51999999999998 139.70000000000002 200.51999999999998 140.70000000000002 200.51999999999998 141.93 C 200.53 143.16 199.52 144.16 198.29 144.16 z M 198.29 140.28 C 197.38 140.28 196.65 141.02 196.65 141.92 C 196.65 142.82999999999998 197.39000000000001 143.55999999999997 198.29 143.55999999999997 C 199.2 143.55999999999997 199.92999999999998 142.81999999999996 199.92999999999998 141.92 C 199.94 141.02 199.2 140.28 198.29 140.28 z M 208.92 141.92 C 208.92 142.98999999999998 208.04999999999998 143.85999999999999 206.98 143.85999999999999 C 205.91 143.85999999999999 205.04 142.98999999999998 205.04 141.92 C 205.04 140.85 205.91 139.98 206.98 139.98 C 208.06 139.99 208.92 140.85 208.92 141.92 z M 206.99 144.16 C 205.76000000000002 144.16 204.76000000000002 143.16 204.76000000000002 141.93 C 204.76000000000002 140.70000000000002 205.76000000000002 139.70000000000002 206.99 139.70000000000002 C 208.22 139.70000000000002 209.22 140.70000000000002 209.22 141.93 C 209.22 143.16 208.22 144.16 206.99 144.16 z M 206.99 140.28 C 206.08 140.28 205.35000000000002 141.02 205.35000000000002 141.92 C 205.35000000000002 142.82999999999998 206.09000000000003 143.55999999999997 206.99 143.55999999999997 C 207.89 143.55999999999997 208.63 142.81999999999996 208.63 141.92 C 208.63 141.02 207.89 140.28 206.99 140.28 z M 200.23 80.28 C 200.23 81.35 199.35999999999999 82.22 198.29 82.22 C 197.22 82.22 196.35 81.35 196.35 80.28 C 196.35 79.21000000000001 197.22 78.34 198.29 78.34 C 199.36 78.34 200.23 79.21 200.23 80.28 z M 198.29 82.51 C 197.06 82.51 196.06 81.51 196.06 80.28 C 196.06 79.05 197.06 78.05 198.29 78.05 C 199.51999999999998 78.05 200.51999999999998 79.05 200.51999999999998 80.28 C 200.53 81.51 199.52 82.51 198.29 82.51 z M 198.29 78.64 C 197.38 78.64 196.65 79.38 196.65 80.28 C 196.65 81.19 197.39000000000001 81.92 198.29 81.92 C 199.2 81.92 199.92999999999998 81.18 199.92999999999998 80.28 C 199.94 79.37 199.2 78.64 198.29 78.64 z M 208.92 80.28 C 208.92 81.35 208.04999999999998 82.22 206.98 82.22 C 205.91 82.22 205.04 81.35 205.04 80.28 C 205.04 79.21000000000001 205.91 78.34 206.98 78.34 C 208.06 78.34 208.92 79.21 208.92 80.28 z M 206.99 82.51 C 205.76000000000002 82.51 204.76000000000002 81.51 204.76000000000002 80.28 C 204.76000000000002 79.05 205.76000000000002 78.05 206.99 78.05 C 208.22 78.05 209.22 79.05 209.22 80.28 C 209.22 81.51 208.22 82.51 206.99 82.51 z M 206.99 78.64 C 206.08 78.64 205.35000000000002 79.38 205.35000000000002 80.28 C 205.35000000000002 81.19 206.09000000000003 81.92 206.99 81.92 C 207.89 81.92 208.63 81.18 208.63 80.28 C 208.63 79.38 207.89 78.64 206.99 78.64 z" stroke-linecap="round" />
</g>
<g transform="matrix(2.74 0 0 2.74 427.5 283.62)" id="Layer_1"  >
<path style="stroke: none; stroke-width: 1; stroke-dasharray: none; stroke-linecap: butt; stroke-dashoffset: 0; stroke-linejoin: miter; stroke-miterlimit: 4; fill: rgb(0,45,79); fill-rule: nonzero; opacity: 1;"  transform=" translate(-175, -118.41)" d="M 185.49 108.87 L 154.9 108.87 C 153.67000000000002 108.87 152.67000000000002 109.87 152.67000000000002 111.10000000000001 C 152.67000000000002 112.33000000000001 153.67000000000002 113.33000000000001 154.9 113.33000000000001 L 185.49 113.33000000000001 C 186.72 113.33000000000001 187.72 112.33000000000001 187.72 111.10000000000001 C 187.72 109.87 186.72 108.87 185.49 108.87 z M 185.49 112.75 L 154.9 112.75 C 153.99 112.75 153.26000000000002 112.01 153.26000000000002 111.11 C 153.26000000000002 110.2 154.00000000000003 109.47 154.9 109.47 L 185.49 109.47 C 186.39000000000001 109.47 187.13 110.21 187.13 111.11 C 187.13 112.01 186.4 112.75 185.49 112.75 z M 215.68 109.46 C 214.77 109.46 214.04000000000002 110.19999999999999 214.04000000000002 111.1 C 214.04000000000002 112 214.77 112.74 215.68 112.74 C 216.59 112.74 217.32 112 217.32 111.1 C 217.32 110.19 216.59 109.46 215.68 109.46 z M 215.68 109.46 C 214.77 109.46 214.04000000000002 110.19999999999999 214.04000000000002 111.1 C 214.04000000000002 112 214.77 112.74 215.68 112.74 C 216.59 112.74 217.32 112 217.32 111.1 C 217.32 110.19 216.59 109.46 215.68 109.46 z M 185.49 139.69 L 154.9 139.69 C 153.67000000000002 139.69 152.67000000000002 140.69 152.67000000000002 141.92 C 152.67000000000002 143.14999999999998 153.67000000000002 144.14999999999998 154.9 144.14999999999998 L 185.49 144.14999999999998 C 186.72 144.14999999999998 187.72 143.14999999999998 187.72 141.92 C 187.72 140.69 186.72 139.69 185.49 139.69 z M 185.49 143.57 L 154.9 143.57 C 153.99 143.57 153.26000000000002 142.84 153.26000000000002 141.93 C 153.26000000000002 141.02 154.00000000000003 140.29000000000002 154.9 140.29000000000002 L 185.49 140.29000000000002 C 186.39000000000001 140.29000000000002 187.13 141.03000000000003 187.13 141.93 C 187.13 142.82999999999998 186.4 143.57 185.49 143.57 z M 147.28 155.89 L 147.28 158.77999999999997 L 221.49 158.77999999999997 L 221.49 155.89 L 147.28 155.89 z M 147.28 94.25 L 147.28 97.14 L 221.49 97.14 L 221.49 94.25 L 147.28 94.25 z M 185.49 78.05 L 154.9 78.05 C 153.67000000000002 78.05 152.67000000000002 79.05 152.67000000000002 80.28 C 152.67000000000002 81.51 153.67000000000002 82.51 154.9 82.51 L 185.49 82.51 C 186.72 82.51 187.72 81.51 187.72 80.28 C 187.72 79.05 186.72 78.05 185.49 78.05 z M 185.49 81.93 L 154.9 81.93 C 153.99 81.93 153.26000000000002 81.19000000000001 153.26000000000002 80.29 C 153.26000000000002 79.39 154.00000000000003 78.65 154.9 78.65 L 185.49 78.65 C 186.39000000000001 78.65 187.13 79.39 187.13 80.29 C 187.13 81.19000000000001 186.4 81.93 185.49 81.93 z M 215.68 139.69 C 214.45000000000002 139.69 213.45000000000002 140.69 213.45000000000002 141.92 C 213.45000000000002 143.14999999999998 214.45000000000002 144.14999999999998 215.68 144.14999999999998 C 216.91 144.14999999999998 217.91 143.14999999999998 217.91 141.92 C 217.91 140.69 216.91 139.69 215.68 139.69 z M 215.68 143.57 C 214.77 143.57 214.04000000000002 142.84 214.04000000000002 141.93 C 214.04000000000002 141.02 214.77 140.29000000000002 215.68 140.29000000000002 C 216.59 140.29000000000002 217.32 141.03000000000003 217.32 141.93 C 217.32 142.82999999999998 216.59 143.57 215.68 143.57 z M 215.68 78.05 C 214.45000000000002 78.05 213.45000000000002 79.05 213.45000000000002 80.28 C 213.45000000000002 81.51 214.45000000000002 82.51 215.68 82.51 C 216.91 82.51 217.91 81.51 217.91 80.28 C 217.91 79.05 216.91 78.05 215.68 78.05 z M 215.68 81.93 C 214.77 81.93 214.04000000000002 81.19000000000001 214.04000000000002 80.29 C 214.04000000000002 79.39 214.77 78.65 215.68 78.65 C 216.59 78.65 217.32 79.39 217.32 80.29 C 217.32 81.19000000000001 216.59 81.93 215.68 81.93 z M 147.28 96.84 L 147.28 97.43 L 221.49 97.43 L 221.49 96.84 L 147.28 96.84 z M 147.28 93.95 L 147.28 94.54 L 221.49 94.54 L 221.49 93.95 L 147.28 93.95 z M 228.37 88.75 L 231.94 93.66 L 242.15 107.72 L 245.9 112.89 L 261.03000000000003 83.49000000000001 L 228.37 88.75 z M 147.28 127.96 L 147.28 126.83 C 136.26 128.5 125.07 129.10999999999999 114.12 127.52 C 108.56 126.57 99.95 124.17 98.94 117.82 C 98.3 112.36999999999999 102.57 106.35 106.94 102.10999999999999 C 107.72 101.35999999999999 108.47 100.66999999999999 109.16 100.04999999999998 C 109.97999999999999 99.35999999999999 110.81 98.66999999999999 111.67 97.98999999999998 C 111.14 95.14999999999998 110.68 92.38999999999999 110.31 89.70999999999998 C 108.18 91.12999999999998 105.94 92.73999999999998 103.75 94.49999999999999 C 95.79 100.86999999999999 88.38 109.29999999999998 89 118.85 C 91.31 140.51999999999998 128.56 140.60999999999999 144.8 139.38 C 162.21 138.04 181.69 134.18 200.17000000000002 127.94 L 147.28 127.94 z M 215.68 109.46 C 214.77 109.46 214.04000000000002 110.19999999999999 214.04000000000002 111.1 C 214.04000000000002 112 214.77 112.74 215.68 112.74 C 216.59 112.74 217.32 112 217.32 111.1 C 217.32 110.19 216.59 109.46 215.68 109.46 z M 215.68 109.46 C 214.77 109.46 214.04000000000002 110.19999999999999 214.04000000000002 111.1 C 214.04000000000002 112 214.77 112.74 215.68 112.74 C 216.59 112.74 217.32 112 217.32 111.1 C 217.32 110.19 216.59 109.46 215.68 109.46 z M 235.1 91.11 C 234.07 91.98 233.01 92.84 231.94 93.67 C 227.96 96.74 223.68 99.54 219.32 102.09 C 202 112.05000000000001 182.85 119.09 163.41 123.73 C 161.34 124.2 159.25 124.65 157.15 125.07000000000001 L 208.21 125.07000000000001 C 220.51000000000002 120.37 232.14000000000001 114.57000000000001 242.16000000000003 107.73 C 243.54000000000002 106.79 244.88000000000002 105.82000000000001 246.20000000000002 104.84 L 235.1 91.11 z M 215.68 113.34 C 214.45000000000002 113.34 213.45000000000002 112.34 213.45000000000002 111.11 C 213.45000000000002 109.88 214.45000000000002 108.88 215.68 108.88 C 216.91 108.88 217.91 109.88 217.91 111.11 C 217.91 112.33 216.91 113.34 215.68 113.34 z M 215.68 109.46 C 214.77 109.46 214.04000000000002 110.19999999999999 214.04000000000002 111.1 C 214.04000000000002 112 214.77 112.74 215.68 112.74 C 216.59 112.74 217.32 112 217.32 111.1 C 217.32 110.19 216.59 109.46 215.68 109.46 z M 221.49 125.07 L 221.49 127.96 L 147.28000000000003 127.96 L 147.28000000000003 125.07 L 221.49 125.07 z" stroke-linecap="round" />
</g>
<g transform="matrix(1 0 0 1 428.5 393.45)" style=""  >
		<text xml:space="preserve" font-family="reverie-regular-personal-use-only" font-size="48" font-style="normal" font-weight="normal" style="stroke: none; stroke-width: 1; stroke-dasharray: none; stroke-linecap: butt; stroke-dashoffset: 0; stroke-linejoin: miter; stroke-miterlimit: 4; fill: rgb(234,53,96); fill-rule: nonzero; opacity: 1; white-space: pre;" ><tspan x="-92.9" y="15.08" >S</tspan><tspan x="-63.24" y="15.08" >t</tspan><tspan x="-47.45" y="15.08" >o</tspan><tspan x="-13.61" y="15.08" >r</tspan><tspan x="9.91" y="15.08" >a</tspan><tspan x="39.77" y="15.08" >g</tspan><tspan x="68.57" y="15.08" >e</tspan></text>
</g>
</svg>