<?xml version="1.0" encoding="UTF-8" standalone="no" ?>
<!DOCTYPE svg PUBLIC "-//W3C//DTD SVG 1.1//EN" "http://www.w3.org/Graphics/SVG/1.1/DTD/svg11.dtd">
<svg xmlns="http://www.w3.org/2000/svg" xmlns:xlink="http://www.w3.org/1999/xlink" version="1.1"   viewBox="0 0 855 590" xml:space="preserve" width="855" height="590">
<desc>Created with Fabric.js 4.5.0</desc>
<defs>
</defs>
<rect x="0" y="0" width="100%" height="100%" fill="#ffffff"></rect>
<g transform="matrix(2.1 0 0 2.1 427.51 372.29)" id="Layer_15"  >
<path style="stroke: none; stroke-width: 1; stroke-dasharray: none; stroke-linecap: butt; stroke-dashoffset: 0; stroke-linejoin: miter; stroke-miterlimit: 4; fill: rgb(146,148,151); fill-rule: nonzero; opacity: 0;"  transform=" translate(-175.01, -169.84)" d="M 238.17 169.84 C 238.17 175.68 209.89 180.42000000000002 175.01 180.42000000000002 C 140.13 180.42000000000002 111.85 175.68 111.85 169.84 C 111.85 164 140.13 159.26 175.01 159.26 C 209.89 159.26 238.17 164 238.17 169.84 z" stroke-linecap="round" />
</g>
<g transform="matrix(2.1 0 0 2.1 427.51 372.29)" id="Layer_15"  >
<path style="stroke: none; stroke-width: 1; stroke-dasharray: none; stroke-linecap: butt; stroke-dashoffset: 0; stroke-linejoin: miter; stroke-miterlimit: 4; fill: rgb(144,146,149); fill-rule: nonzero; opacity: 0.0076;"  transform=" translate(-175.01, -169.84)" d="M 237.4 169.84 C 237.4 175.61 209.46 180.28 175.01 180.28 C 140.54999999999998 180.28 112.61999999999999 175.61 112.61999999999999 169.84 C 112.61999999999999 164.08 140.56 159.4 175.01 159.4 C 209.46 159.4 237.4 164.08 237.4 169.84 z" stroke-linecap="round" />
</g>
<g transform="matrix(2.1 0 0 2.1 427.51 372.29)" id="Layer_15"  >
<path style="stroke: none; stroke-width: 1; stroke-dasharray: none; stroke-linecap: butt; stroke-dashoffset: 0; stroke-linejoin: miter; stroke-miterlimit: 4; fill: rgb(143,144,147); fill-rule: nonzero; opacity: 0.01515;"  transform=" translate(-175.01, -169.84)" d="M 236.63 169.84 C 236.63 175.53 209.04 180.13 175.01 180.13 C 140.98 180.13 113.38999999999999 175.51999999999998 113.38999999999999 169.84 C 113.38999999999999 164.15 140.98 159.55 175.01 159.55 C 209.04 159.55 236.63 164.16 236.63 169.84 z" stroke-linecap="round" />
</g>
<g transform="matrix(2.1 0 0 2.1 427.51 372.29)" id="Layer_15"  >
<path style="stroke: none; stroke-width: 1; stroke-dasharray: none; stroke-linecap: butt; stroke-dashoffset: 0; stroke-linejoin: miter; stroke-miterlimit: 4; fill: rgb(141,143,146); fill-rule: nonzero; opacity: 0.02275;"  transform=" translate(-175.01, -169.84)" d="M 235.86 169.84 C 235.86 175.45000000000002 208.61 179.99 175.01000000000002 179.99 C 141.40000000000003 179.99 114.16000000000003 175.45000000000002 114.16000000000003 169.84 C 114.16000000000003 164.23 141.41000000000003 159.69 175.01000000000002 159.69 C 208.61 159.69 235.86 164.23 235.86 169.84 z" stroke-linecap="round" />
</g>
<g transform="matrix(2.1 0 0 2.1 427.51 372.29)" id="Layer_15"  >
<path style="stroke: none; stroke-width: 1; stroke-dasharray: none; stroke-linecap: butt; stroke-dashoffset: 0; stroke-linejoin: miter; stroke-miterlimit: 4; fill: rgb(139,141,144); fill-rule: nonzero; opacity: 0.0303;"  transform=" translate(-175.01, -169.84)" d="M 235.09 169.84 C 235.09 175.37 208.19 179.85 175.01 179.85 C 141.82999999999998 179.85 114.92999999999999 175.37 114.92999999999999 169.84 C 114.92999999999999 164.31 141.82999999999998 159.83 175.01 159.83 C 208.19 159.84 235.09 164.31 235.09 169.84 z" stroke-linecap="round" />
</g>
<g transform="matrix(2.1 0 0 2.1 427.51 372.29)" id="Layer_15"  >
<path style="stroke: none; stroke-width: 1; stroke-dasharray: none; stroke-linecap: butt; stroke-dashoffset: 0; stroke-linejoin: miter; stroke-miterlimit: 4; fill: rgb(138,139,142); fill-rule: nonzero; opacity: 0.0379;"  transform=" translate(-175.01, -169.84)" d="M 234.32 169.84 C 234.32 175.29 207.76 179.7 175.01 179.7 C 142.25 179.7 115.69999999999999 175.29 115.69999999999999 169.83999999999997 C 115.69999999999999 164.39 142.26 159.97999999999996 175.01 159.97999999999996 C 207.76 159.98 234.32 164.39 234.32 169.84 z" stroke-linecap="round" />
</g>
<g transform="matrix(2.1 0 0 2.1 427.51 372.29)" id="Layer_15"  >
<path style="stroke: none; stroke-width: 1; stroke-dasharray: none; stroke-linecap: butt; stroke-dashoffset: 0; stroke-linejoin: miter; stroke-miterlimit: 4; fill: rgb(136,137,140); fill-rule: nonzero; opacity: 0.04545;"  transform=" translate(-175.01, -169.84)" d="M 233.55 169.84 C 233.55 175.21 207.34 179.56 175.01000000000002 179.56 C 142.68 179.56 116.47000000000003 175.21 116.47000000000003 169.84 C 116.47000000000003 164.47 142.68000000000004 160.12 175.01000000000002 160.12 C 207.33 160.12 233.55 164.47 233.55 169.84 z" stroke-linecap="round" />
</g>
<g transform="matrix(2.1 0 0 2.1 427.51 372.29)" id="Layer_15"  >
<path style="stroke: none; stroke-width: 1; stroke-dasharray: none; stroke-linecap: butt; stroke-dashoffset: 0; stroke-linejoin: miter; stroke-miterlimit: 4; fill: rgb(134,136,138); fill-rule: nonzero; opacity: 0.05305;"  transform=" translate(-175.01, -169.84)" d="M 232.78 169.84 C 232.78 175.13 206.91 179.41 175.01 179.41 C 143.1 179.41 117.23999999999998 175.12 117.23999999999998 169.84 C 117.23999999999998 164.55 143.10999999999999 160.27 175.01 160.27 C 206.91 160.27 232.78 164.55 232.78 169.84 z" stroke-linecap="round" />
</g>
<g transform="matrix(2.1 0 0 2.1 427.51 372.29)" id="Layer_15"  >
<path style="stroke: none; stroke-width: 1; stroke-dasharray: none; stroke-linecap: butt; stroke-dashoffset: 0; stroke-linejoin: miter; stroke-miterlimit: 4; fill: rgb(133,134,137); fill-rule: nonzero; opacity: 0.0606;"  transform=" translate(-175.01, -169.84)" d="M 232.01 169.84 C 232.01 175.05 206.48999999999998 179.27 175.01 179.27 C 143.53 179.27 118.00999999999999 175.05 118.00999999999999 169.84 C 118.00999999999999 164.63 143.53 160.41 175.01 160.41 C 206.48 160.41 232.01 164.63 232.01 169.84 z" stroke-linecap="round" />
</g>
<g transform="matrix(2.1 0 0 2.1 427.51 372.3)" id="Layer_15"  >
<path style="stroke: none; stroke-width: 1; stroke-dasharray: none; stroke-linecap: butt; stroke-dashoffset: 0; stroke-linejoin: miter; stroke-miterlimit: 4; fill: rgb(131,132,135); fill-rule: nonzero; opacity: 0.0682;"  transform=" translate(-175.01, -169.84)" d="M 231.24 169.84 C 231.24 174.97 206.06 179.13 175.01000000000002 179.13 C 143.95000000000002 179.13 118.78000000000003 174.97 118.78000000000003 169.84 C 118.78000000000003 164.71 143.96000000000004 160.56 175.01000000000002 160.56 C 206.06 160.56 231.24 164.71 231.24 169.84 z" stroke-linecap="round" />
</g>
<g transform="matrix(2.1 0 0 2.1 427.51 372.29)" id="Layer_15"  >
<path style="stroke: none; stroke-width: 1; stroke-dasharray: none; stroke-linecap: butt; stroke-dashoffset: 0; stroke-linejoin: miter; stroke-miterlimit: 4; fill: rgb(129,130,133); fill-rule: nonzero; opacity: 0.07575;"  transform=" translate(-175.01, -169.84)" d="M 230.47 169.84 C 230.47 174.89000000000001 205.64 178.98000000000002 175.01 178.98000000000002 C 144.38 178.98000000000002 119.54999999999998 174.89000000000001 119.54999999999998 169.84000000000003 C 119.54999999999998 164.79000000000002 144.38 160.70000000000005 175.01 160.70000000000005 C 205.63 160.7 230.47 164.79 230.47 169.84 z" stroke-linecap="round" />
</g>
<g transform="matrix(2.1 0 0 2.1 427.51 372.29)" id="Layer_15"  >
<path style="stroke: none; stroke-width: 1; stroke-dasharray: none; stroke-linecap: butt; stroke-dashoffset: 0; stroke-linejoin: miter; stroke-miterlimit: 4; fill: rgb(127,128,131); fill-rule: nonzero; opacity: 0.08335;"  transform=" translate(-175.01, -169.84)" d="M 229.7 169.84 C 229.7 174.81 205.20999999999998 178.84 175.01 178.84 C 144.79999999999998 178.84 120.32 174.81 120.32 169.84 C 120.32 164.87 144.81 160.84 175.01 160.84 C 205.21 160.84 229.7 164.87 229.7 169.84 z" stroke-linecap="round" />
</g>
<g transform="matrix(2.1 0 0 2.1 427.5 372.29)" id="Layer_15"  >
<path style="stroke: none; stroke-width: 1; stroke-dasharray: none; stroke-linecap: butt; stroke-dashoffset: 0; stroke-linejoin: miter; stroke-miterlimit: 4; fill: rgb(126,127,129); fill-rule: nonzero; opacity: 0.0909;"  transform=" translate(-175, -169.84)" d="M 228.93 169.84 C 228.93 174.73 204.79000000000002 178.69 175.01 178.69 C 145.23 178.69 121.07999999999998 174.73 121.07999999999998 169.84 C 121.07999999999998 164.95000000000002 145.21999999999997 160.99 175.01 160.99 C 204.78 160.99 228.93 164.95 228.93 169.84 z" stroke-linecap="round" />
</g>
<g transform="matrix(2.1 0 0 2.1 427.5 372.29)" id="Layer_15"  >
<path style="stroke: none; stroke-width: 1; stroke-dasharray: none; stroke-linecap: butt; stroke-dashoffset: 0; stroke-linejoin: miter; stroke-miterlimit: 4; fill: rgb(124,125,128); fill-rule: nonzero; opacity: 0.0985;"  transform=" translate(-175, -169.84)" d="M 228.16 169.84 C 228.16 174.65 204.35999999999999 178.55 175.01 178.55 C 145.64999999999998 178.55 121.85 174.65 121.85 169.84 C 121.85 165.03 145.65 161.13 175.01 161.13 C 204.36 161.13 228.16 165.03 228.16 169.84 z" stroke-linecap="round" />
</g>
<g transform="matrix(2.1 0 0 2.1 427.5 372.3)" id="Layer_15"  >
<path style="stroke: none; stroke-width: 1; stroke-dasharray: none; stroke-linecap: butt; stroke-dashoffset: 0; stroke-linejoin: miter; stroke-miterlimit: 4; fill: rgb(122,123,126); fill-rule: nonzero; opacity: 0.10605;"  transform=" translate(-175, -169.84)" d="M 227.39 169.84 C 227.39 174.57 203.94 178.41 175.01 178.41 C 146.07999999999998 178.41 122.61999999999999 174.57999999999998 122.61999999999999 169.84 C 122.61999999999999 165.11 146.07 161.28 175.01 161.28 C 203.93 161.28 227.39 165.11 227.39 169.84 z" stroke-linecap="round" />
</g>
<g transform="matrix(2.1 0 0 2.1 427.5 372.29)" id="Layer_15"  >
<path style="stroke: none; stroke-width: 1; stroke-dasharray: none; stroke-linecap: butt; stroke-dashoffset: 0; stroke-linejoin: miter; stroke-miterlimit: 4; fill: rgb(121,121,124); fill-rule: nonzero; opacity: 0.11365;"  transform=" translate(-175, -169.84)" d="M 226.62 169.84 C 226.62 174.49 203.51 178.26 175.01 178.26 C 146.5 178.26 123.38999999999999 174.48999999999998 123.38999999999999 169.84 C 123.38999999999999 165.19 146.5 161.42000000000002 175.01 161.42000000000002 C 203.51 161.42 226.62 165.19 226.62 169.84 z" stroke-linecap="round" />
</g>
<g transform="matrix(2.1 0 0 2.1 427.5 372.29)" id="Layer_15"  >
<path style="stroke: none; stroke-width: 1; stroke-dasharray: none; stroke-linecap: butt; stroke-dashoffset: 0; stroke-linejoin: miter; stroke-miterlimit: 4; fill: rgb(119,120,122); fill-rule: nonzero; opacity: 0.1212;"  transform=" translate(-175, -169.84)" d="M 225.85 169.84 C 225.85 174.41 203.07999999999998 178.12 175.01 178.12 C 146.93 178.12 124.16 174.41 124.16 169.84 C 124.16 165.27 146.93 161.56 175.01 161.56 C 203.08 161.56 225.85 165.27 225.85 169.84 z" stroke-linecap="round" />
</g>
<g transform="matrix(2.1 0 0 2.1 427.5 372.29)" id="Layer_15"  >
<path style="stroke: none; stroke-width: 1; stroke-dasharray: none; stroke-linecap: butt; stroke-dashoffset: 0; stroke-linejoin: miter; stroke-miterlimit: 4; fill: rgb(117,118,120); fill-rule: nonzero; opacity: 0.1288;"  transform=" translate(-175.01, -169.84)" d="M 225.08 169.84 C 225.08 174.33 202.66000000000003 177.97 175.01000000000002 177.97 C 147.36 177.97 124.93000000000002 174.33 124.93000000000002 169.84 C 124.93000000000002 165.35 147.35000000000002 161.71 175.01000000000002 161.71 C 202.66 161.71 225.08 165.35 225.08 169.84 z" stroke-linecap="round" />
</g>
<g transform="matrix(2.1 0 0 2.1 427.49 372.29)" id="Layer_15"  >
<path style="stroke: none; stroke-width: 1; stroke-dasharray: none; stroke-linecap: butt; stroke-dashoffset: 0; stroke-linejoin: miter; stroke-miterlimit: 4; fill: rgb(116,116,119); fill-rule: nonzero; opacity: 0.13635;"  transform=" translate(-175, -169.84)" d="M 224.31 169.84 C 224.31 174.25 202.23000000000002 177.83 175 177.83 C 147.77 177.83 125.69 174.25 125.69 169.84 C 125.69 165.43 147.76999999999998 161.85 175 161.85 C 202.23 161.85 224.31 165.43 224.31 169.84 z" stroke-linecap="round" />
</g>
<g transform="matrix(2.1 0 0 2.1 427.49 372.29)" id="Layer_15"  >
<path style="stroke: none; stroke-width: 1; stroke-dasharray: none; stroke-linecap: butt; stroke-dashoffset: 0; stroke-linejoin: miter; stroke-miterlimit: 4; fill: rgb(114,114,117); fill-rule: nonzero; opacity: 0.14395;"  transform=" translate(-175, -169.84)" d="M 223.54 169.84 C 223.54 174.17000000000002 201.81 177.68 175 177.68 C 148.2 177.68 126.46000000000001 174.17000000000002 126.46000000000001 169.84 C 126.46000000000001 165.51 148.19 162 175 162 C 201.81 162 223.54 165.51 223.54 169.84 z" stroke-linecap="round" />
</g>
<g transform="matrix(2.1 0 0 2.1 427.49 372.29)" id="Layer_15"  >
<path style="stroke: none; stroke-width: 1; stroke-dasharray: none; stroke-linecap: butt; stroke-dashoffset: 0; stroke-linejoin: miter; stroke-miterlimit: 4; fill: rgb(112,113,115); fill-rule: nonzero; opacity: 0.1515;"  transform=" translate(-175, -169.84)" d="M 222.77 169.84 C 222.77 174.09 201.38 177.54 175 177.54 C 148.62 177.54 127.22999999999999 174.09 127.22999999999999 169.84 C 127.22999999999999 165.59 148.62 162.14000000000001 175 162.14000000000001 C 201.38 162.14 222.77 165.59 222.77 169.84 z" stroke-linecap="round" />
</g>
<g transform="matrix(2.1 0 0 2.1 427.49 372.29)" id="Layer_15"  >
<path style="stroke: none; stroke-width: 1; stroke-dasharray: none; stroke-linecap: butt; stroke-dashoffset: 0; stroke-linejoin: miter; stroke-miterlimit: 4; fill: rgb(111,111,113); fill-rule: nonzero; opacity: 0.1591;"  transform=" translate(-175, -169.84)" d="M 222 169.84 C 222 174.01 200.96 177.4 175 177.4 C 149.05 177.4 128 174.02 128 169.84 C 128 165.67000000000002 149.04 162.28 175 162.28 C 200.96 162.28 222 165.67 222 169.84 z" stroke-linecap="round" />
</g>
<g transform="matrix(2.1 0 0 2.1 427.49 372.29)" id="Layer_15"  >
<path style="stroke: none; stroke-width: 1; stroke-dasharray: none; stroke-linecap: butt; stroke-dashoffset: 0; stroke-linejoin: miter; stroke-miterlimit: 4; fill: rgb(109,109,111); fill-rule: nonzero; opacity: 0.16665;"  transform=" translate(-175, -169.84)" d="M 221.23 169.84 C 221.23 173.93 200.53 177.25 175 177.25 C 149.47 177.25 128.77 173.93 128.77 169.84 C 128.77 165.75 149.47 162.43 175 162.43 C 200.53 162.43 221.23 165.75 221.23 169.84 z" stroke-linecap="round" />
</g>
<g transform="matrix(2.1 0 0 2.1 427.49 372.29)" id="Layer_15"  >
<path style="stroke: none; stroke-width: 1; stroke-dasharray: none; stroke-linecap: butt; stroke-dashoffset: 0; stroke-linejoin: miter; stroke-miterlimit: 4; fill: rgb(107,107,110); fill-rule: nonzero; opacity: 0.17425;"  transform=" translate(-175, -169.84)" d="M 220.46 169.84 C 220.46 173.86 200.11 177.11 175 177.11 C 149.9 177.11 129.54 173.86 129.54 169.84 C 129.54 165.83 149.89 162.57 175 162.57 C 200.11 162.57 220.46 165.83 220.46 169.84 z" stroke-linecap="round" />
</g>
<g transform="matrix(2.1 0 0 2.1 427.49 372.29)" id="Layer_15"  >
<path style="stroke: none; stroke-width: 1; stroke-dasharray: none; stroke-linecap: butt; stroke-dashoffset: 0; stroke-linejoin: miter; stroke-miterlimit: 4; fill: rgb(106,105,108); fill-rule: nonzero; opacity: 0.1818;"  transform=" translate(-175, -169.84)" d="M 219.69 169.84 C 219.69 173.78 199.68 176.96 175 176.96 C 150.32 176.96 130.31 173.77 130.31 169.84 C 130.31 165.91 150.32 162.72 175 162.72 C 199.68 162.72 219.69 165.91 219.69 169.84 z" stroke-linecap="round" />
</g>
<g transform="matrix(2.1 0 0 2.1 427.49 372.29)" id="Layer_15"  >
<path style="stroke: none; stroke-width: 1; stroke-dasharray: none; stroke-linecap: butt; stroke-dashoffset: 0; stroke-linejoin: miter; stroke-miterlimit: 4; fill: rgb(104,104,106); fill-rule: nonzero; opacity: 0.1894;"  transform=" translate(-175, -169.84)" d="M 218.92 169.84 C 218.92 173.70000000000002 199.26 176.82 175 176.82 C 150.75 176.82 131.07999999999998 173.7 131.07999999999998 169.84 C 131.07999999999998 165.98 150.73999999999998 162.86 175 162.86 C 199.26 162.86 218.92 165.99 218.92 169.84 z" stroke-linecap="round" />
</g>
<g transform="matrix(2.1 0 0 2.1 427.49 372.29)" id="Layer_15"  >
<path style="stroke: none; stroke-width: 1; stroke-dasharray: none; stroke-linecap: butt; stroke-dashoffset: 0; stroke-linejoin: miter; stroke-miterlimit: 4; fill: rgb(102,102,104); fill-rule: nonzero; opacity: 0.19695;"  transform=" translate(-175, -169.84)" d="M 218.15 169.84 C 218.15 173.62 198.83 176.68 175 176.68 C 151.17000000000002 176.68 131.85 173.62 131.85 169.84 C 131.85 166.06 151.17 163 175 163 C 198.83 163 218.15 166.06 218.15 169.84 z" stroke-linecap="round" />
</g>
<g transform="matrix(2.1 0 0 2.1 427.49 372.29)" id="Layer_15"  >
<path style="stroke: none; stroke-width: 1; stroke-dasharray: none; stroke-linecap: butt; stroke-dashoffset: 0; stroke-linejoin: miter; stroke-miterlimit: 4; fill: rgb(101,100,102); fill-rule: nonzero; opacity: 0.20455;"  transform=" translate(-175, -169.84)" d="M 217.38 169.84 C 217.38 173.54 198.41 176.53 175 176.53 C 151.6 176.53 132.62 173.53 132.62 169.84 C 132.62 166.14000000000001 151.59 163.15 175 163.15 C 198.4 163.15 217.38 166.14 217.38 169.84 z" stroke-linecap="round" />
</g>
<g transform="matrix(2.1 0 0 2.1 427.49 372.29)" id="Layer_15"  >
<path style="stroke: none; stroke-width: 1; stroke-dasharray: none; stroke-linecap: butt; stroke-dashoffset: 0; stroke-linejoin: miter; stroke-miterlimit: 4; fill: rgb(99,98,101); fill-rule: nonzero; opacity: 0.2121;"  transform=" translate(-175, -169.84)" d="M 216.61 169.84 C 216.61 173.46 197.98000000000002 176.39000000000001 175 176.39000000000001 C 152.02 176.39000000000001 133.39 173.46 133.39 169.84 C 133.39 166.22 152.01999999999998 163.29 175 163.29 C 197.98 163.29 216.61 166.22 216.61 169.84 z" stroke-linecap="round" />
</g>
<g transform="matrix(2.1 0 0 2.1 427.49 372.29)" id="Layer_15"  >
<path style="stroke: none; stroke-width: 1; stroke-dasharray: none; stroke-linecap: butt; stroke-dashoffset: 0; stroke-linejoin: miter; stroke-miterlimit: 4; fill: rgb(97,97,99); fill-rule: nonzero; opacity: 0.2197;"  transform=" translate(-175, -169.84)" d="M 215.84 169.84 C 215.84 173.38 197.56 176.24 175 176.24 C 152.45 176.24 134.16 173.37 134.16 169.84 C 134.16 166.3 152.45 163.44 175 163.44 C 197.55 163.44 215.84 166.3 215.84 169.84 z" stroke-linecap="round" />
</g>
<g transform="matrix(2.1 0 0 2.1 427.49 372.29)" id="Layer_15"  >
<path style="stroke: none; stroke-width: 1; stroke-dasharray: none; stroke-linecap: butt; stroke-dashoffset: 0; stroke-linejoin: miter; stroke-miterlimit: 4; fill: rgb(96,95,97); fill-rule: nonzero; opacity: 0.22725;"  transform=" translate(-175, -169.84)" d="M 215.07 169.84 C 215.07 173.3 197.13 176.1 175 176.1 C 152.87 176.1 134.93 173.29999999999998 134.93 169.84 C 134.93 166.38 152.87 163.58 175 163.58 C 197.13 163.58 215.07 166.38 215.07 169.84 z" stroke-linecap="round" />
</g>
<g transform="matrix(2.1 0 0 2.1 427.49 372.29)" id="Layer_15"  >
<path style="stroke: none; stroke-width: 1; stroke-dasharray: none; stroke-linecap: butt; stroke-dashoffset: 0; stroke-linejoin: miter; stroke-miterlimit: 4; fill: rgb(94,93,95); fill-rule: nonzero; opacity: 0.23485;"  transform=" translate(-175, -169.84)" d="M 214.3 169.84 C 214.3 173.22 196.71 175.96 175 175.96 C 153.3 175.96 135.7 173.22 135.7 169.84 C 135.7 166.46 153.29999999999998 163.72 175 163.72 C 196.7 163.73 214.3 166.46 214.3 169.84 z" stroke-linecap="round" />
</g>
<g transform="matrix(2.1 0 0 2.1 427.49 372.29)" id="Layer_15"  >
<path style="stroke: none; stroke-width: 1; stroke-dasharray: none; stroke-linecap: butt; stroke-dashoffset: 0; stroke-linejoin: miter; stroke-miterlimit: 4; fill: rgb(92,91,93); fill-rule: nonzero; opacity: 0.2424;"  transform=" translate(-175, -169.84)" d="M 213.53 169.84 C 213.53 173.14000000000001 196.28 175.81 175 175.81 C 153.72 175.81 136.47 173.14000000000001 136.47 169.84 C 136.47 166.54 153.72 163.87 175 163.87 C 196.28 163.87 213.53 166.54 213.53 169.84 z" stroke-linecap="round" />
</g>
<g transform="matrix(2.1 0 0 2.1 427.49 372.29)" id="Layer_15"  >
<path style="stroke: none; stroke-width: 1; stroke-dasharray: none; stroke-linecap: butt; stroke-dashoffset: 0; stroke-linejoin: miter; stroke-miterlimit: 4; fill: rgb(90,90,92); fill-rule: nonzero; opacity: 0.25;"  transform=" translate(-175, -169.84)" d="M 212.76 169.84 C 212.76 173.06 195.85 175.67000000000002 175 175.67000000000002 C 154.15 175.67000000000002 137.24 173.06 137.24 169.84 C 137.24 166.62 154.15 164.01 175 164.01 C 195.85 164.01 212.76 166.62 212.76 169.84 z" stroke-linecap="round" />
</g>
<g transform="matrix(2.1 0 0 2.1 427.49 372.29)" id="Layer_15"  >
<path style="stroke: none; stroke-width: 1; stroke-dasharray: none; stroke-linecap: butt; stroke-dashoffset: 0; stroke-linejoin: miter; stroke-miterlimit: 4; fill: rgb(89,88,90); fill-rule: nonzero; opacity: 0.2576;"  transform=" translate(-175, -169.84)" d="M 211.99 169.84 C 211.99 172.98 195.43 175.52 175 175.52 C 154.57 175.52 138.01 172.98000000000002 138.01 169.84 C 138.01 166.70000000000002 154.57 164.16 175 164.16 C 195.43 164.16 211.99 166.7 211.99 169.84 z" stroke-linecap="round" />
</g>
<g transform="matrix(2.1 0 0 2.1 427.49 372.29)" id="Layer_15"  >
<path style="stroke: none; stroke-width: 1; stroke-dasharray: none; stroke-linecap: butt; stroke-dashoffset: 0; stroke-linejoin: miter; stroke-miterlimit: 4; fill: rgb(87,86,88); fill-rule: nonzero; opacity: 0.26515;"  transform=" translate(-175, -169.84)" d="M 211.22 169.84 C 211.22 172.9 195 175.38 175 175.38 C 155 175.38 138.78 172.9 138.78 169.84 C 138.78 166.78 155 164.3 175 164.3 C 195 164.3 211.22 166.78 211.22 169.84 z" stroke-linecap="round" />
</g>
<g transform="matrix(2.1 0 0 2.1 427.49 372.3)" id="Layer_15"  >
<path style="stroke: none; stroke-width: 1; stroke-dasharray: none; stroke-linecap: butt; stroke-dashoffset: 0; stroke-linejoin: miter; stroke-miterlimit: 4; fill: rgb(85,84,86); fill-rule: nonzero; opacity: 0.27275;"  transform=" translate(-175, -169.85)" d="M 210.45 169.84 C 210.45 172.82 194.57999999999998 175.24 175 175.24 C 155.42000000000002 175.24 139.55 172.82000000000002 139.55 169.84 C 139.55 166.86 155.42000000000002 164.45000000000002 175 164.45000000000002 C 194.58 164.45 210.45 166.86 210.45 169.84 z" stroke-linecap="round" />
</g>
<g transform="matrix(2.1 0 0 2.1 427.49 372.29)" id="Layer_15"  >
<path style="stroke: none; stroke-width: 1; stroke-dasharray: none; stroke-linecap: butt; stroke-dashoffset: 0; stroke-linejoin: miter; stroke-miterlimit: 4; fill: rgb(84,82,84); fill-rule: nonzero; opacity: 0.2803;"  transform=" translate(-175, -169.84)" d="M 209.68 169.84 C 209.68 172.74 194.15 175.09 175 175.09 C 155.85 175.09 140.32 172.74 140.32 169.84 C 140.32 166.94 155.85 164.59 175 164.59 C 194.15 164.59 209.68 166.94 209.68 169.84 z" stroke-linecap="round" />
</g>
<g transform="matrix(2.1 0 0 2.1 427.49 372.29)" id="Layer_15"  >
<path style="stroke: none; stroke-width: 1; stroke-dasharray: none; stroke-linecap: butt; stroke-dashoffset: 0; stroke-linejoin: miter; stroke-miterlimit: 4; fill: rgb(82,81,82); fill-rule: nonzero; opacity: 0.2879;"  transform=" translate(-175, -169.84)" d="M 208.91 169.84 C 208.91 172.66 193.73 174.95000000000002 175 174.95000000000002 C 156.28 174.95000000000002 141.09 172.66000000000003 141.09 169.84 C 141.09 167.02 156.27 164.73 175 164.73 C 193.73 164.73 208.91 167.02 208.91 169.84 z" stroke-linecap="round" />
</g>
<g transform="matrix(2.1 0 0 2.1 427.49 372.29)" id="Layer_15"  >
<path style="stroke: none; stroke-width: 1; stroke-dasharray: none; stroke-linecap: butt; stroke-dashoffset: 0; stroke-linejoin: miter; stroke-miterlimit: 4; fill: rgb(80,79,81); fill-rule: nonzero; opacity: 0.29545;"  transform=" translate(-175, -169.84)" d="M 208.14 169.84 C 208.14 172.58 193.29999999999998 174.8 175 174.8 C 156.7 174.8 141.86 172.58 141.86 169.84 C 141.86 167.1 156.70000000000002 164.88 175 164.88 C 193.3 164.88 208.14 167.1 208.14 169.84 z" stroke-linecap="round" />
</g>
<g transform="matrix(2.1 0 0 2.1 427.49 372.29)" id="Layer_15"  >
<path style="stroke: none; stroke-width: 1; stroke-dasharray: none; stroke-linecap: butt; stroke-dashoffset: 0; stroke-linejoin: miter; stroke-miterlimit: 4; fill: rgb(79,77,79); fill-rule: nonzero; opacity: 0.30305;"  transform=" translate(-175, -169.84)" d="M 207.37 169.84 C 207.37 172.5 192.88 174.66 175 174.66 C 157.13 174.66 142.63 172.5 142.63 169.84 C 142.63 167.18 157.12 165.02 175 165.02 C 192.88 165.02 207.37 167.18 207.37 169.84 z" stroke-linecap="round" />
</g>
<g transform="matrix(2.1 0 0 2.1 427.49 372.3)" id="Layer_15"  >
<path style="stroke: none; stroke-width: 1; stroke-dasharray: none; stroke-linecap: butt; stroke-dashoffset: 0; stroke-linejoin: miter; stroke-miterlimit: 4; fill: rgb(77,75,77); fill-rule: nonzero; opacity: 0.3106;"  transform=" translate(-175, -169.85)" d="M 206.6 169.84 C 206.6 172.42000000000002 192.45 174.52 175 174.52 C 157.55 174.52 143.4 172.43 143.4 169.84 C 143.4 167.26 157.55 165.17000000000002 175 165.17000000000002 C 192.45 165.17 206.6 167.26 206.6 169.84 z" stroke-linecap="round" />
</g>
<g transform="matrix(2.1 0 0 2.1 427.49 372.29)" id="Layer_15"  >
<path style="stroke: none; stroke-width: 1; stroke-dasharray: none; stroke-linecap: butt; stroke-dashoffset: 0; stroke-linejoin: miter; stroke-miterlimit: 4; fill: rgb(75,74,75); fill-rule: nonzero; opacity: 0.3182;"  transform=" translate(-175, -169.84)" d="M 205.83 169.84 C 205.83 172.34 192.03 174.37 175 174.37 C 157.98 174.37 144.17000000000002 172.34 144.17000000000002 169.84 C 144.17000000000002 167.34 157.97000000000003 165.31 175 165.31 C 192.03 165.31 205.83 167.34 205.83 169.84 z" stroke-linecap="round" />
</g>
<g transform="matrix(2.1 0 0 2.1 427.49 372.29)" id="Layer_15"  >
<path style="stroke: none; stroke-width: 1; stroke-dasharray: none; stroke-linecap: butt; stroke-dashoffset: 0; stroke-linejoin: miter; stroke-miterlimit: 4; fill: rgb(74,72,73); fill-rule: nonzero; opacity: 0.32575;"  transform=" translate(-175, -169.84)" d="M 205.06 169.84 C 205.06 172.26 191.6 174.23 175 174.23 C 158.4 174.23 144.94 172.26999999999998 144.94 169.84 C 144.94 167.42000000000002 158.4 165.45000000000002 175 165.45000000000002 C 191.6 165.45 205.06 167.42 205.06 169.84 z" stroke-linecap="round" />
</g>
<g transform="matrix(2.1 0 0 2.1 427.49 372.29)" id="Layer_15"  >
<path style="stroke: none; stroke-width: 1; stroke-dasharray: none; stroke-linecap: butt; stroke-dashoffset: 0; stroke-linejoin: miter; stroke-miterlimit: 4; fill: rgb(72,70,72); fill-rule: nonzero; opacity: 0.33335;"  transform=" translate(-175, -169.84)" d="M 204.29 169.84 C 204.29 172.19 191.18 174.08 175 174.08 C 158.82999999999998 174.08 145.71 172.18 145.71 169.84 C 145.71 167.5 158.83 165.6 175 165.6 C 191.18 165.6 204.29 167.5 204.29 169.84 z" stroke-linecap="round" />
</g>
<g transform="matrix(2.1 0 0 2.1 427.49 372.29)" id="Layer_15"  >
<path style="stroke: none; stroke-width: 1; stroke-dasharray: none; stroke-linecap: butt; stroke-dashoffset: 0; stroke-linejoin: miter; stroke-miterlimit: 4; fill: rgb(70,68,70); fill-rule: nonzero; opacity: 0.3409;"  transform=" translate(-175, -169.84)" d="M 203.52 169.84 C 203.52 172.11 190.75 173.94 175 173.94 C 159.25 173.94 146.48 172.10999999999999 146.48 169.84 C 146.48 167.58 159.25 165.74 175 165.74 C 190.75 165.74 203.52 167.58 203.52 169.84 z" stroke-linecap="round" />
</g>
<g transform="matrix(2.1 0 0 2.1 427.49 372.3)" id="Layer_15"  >
<path style="stroke: none; stroke-width: 1; stroke-dasharray: none; stroke-linecap: butt; stroke-dashoffset: 0; stroke-linejoin: miter; stroke-miterlimit: 4; fill: rgb(69,66,68); fill-rule: nonzero; opacity: 0.3485;"  transform=" translate(-175, -169.85)" d="M 202.75 169.84 C 202.75 172.03 190.33 173.8 175 173.8 C 159.68 173.8 147.25 172.03 147.25 169.84 C 147.25 167.66 159.68 165.89000000000001 175 165.89000000000001 C 190.33 165.89 202.75 167.66 202.75 169.84 z" stroke-linecap="round" />
</g>
<g transform="matrix(2.1 0 0 2.1 427.49 372.29)" id="Layer_15"  >
<path style="stroke: none; stroke-width: 1; stroke-dasharray: none; stroke-linecap: butt; stroke-dashoffset: 0; stroke-linejoin: miter; stroke-miterlimit: 4; fill: rgb(67,65,66); fill-rule: nonzero; opacity: 0.35605;"  transform=" translate(-175, -169.84)" d="M 201.98 169.84 C 201.98 171.95000000000002 189.89999999999998 173.65 175 173.65 C 160.1 173.65 148.02 171.94 148.02 169.84 C 148.02 167.74 160.10000000000002 166.03 175 166.03 C 189.9 166.03 201.98 167.74 201.98 169.84 z" stroke-linecap="round" />
</g>
<g transform="matrix(2.1 0 0 2.1 427.49 372.29)" id="Layer_15"  >
<path style="stroke: none; stroke-width: 1; stroke-dasharray: none; stroke-linecap: butt; stroke-dashoffset: 0; stroke-linejoin: miter; stroke-miterlimit: 4; fill: rgb(65,63,64); fill-rule: nonzero; opacity: 0.36365;"  transform=" translate(-175, -169.84)" d="M 201.21 169.84 C 201.21 171.87 189.47 173.51 175 173.51 C 160.53 173.51 148.79 171.87 148.79 169.84 C 148.79 167.81 160.53 166.17000000000002 175 166.17000000000002 C 189.47 166.17 201.21 167.82 201.21 169.84 z" stroke-linecap="round" />
</g>
<g transform="matrix(2.1 0 0 2.1 427.49 372.29)" id="Layer_15"  >
<path style="stroke: none; stroke-width: 1; stroke-dasharray: none; stroke-linecap: butt; stroke-dashoffset: 0; stroke-linejoin: miter; stroke-miterlimit: 4; fill: rgb(64,61,63); fill-rule: nonzero; opacity: 0.3712;"  transform=" translate(-175, -169.84)" d="M 200.44 169.84 C 200.44 171.79 189.05 173.36 175 173.36 C 160.95 173.36 149.56 171.78 149.56 169.84 C 149.56 167.89000000000001 160.95 166.32 175 166.32 C 189.05 166.32 200.44 167.89 200.44 169.84 z" stroke-linecap="round" />
</g>
<g transform="matrix(2.1 0 0 2.1 427.49 372.29)" id="Layer_15"  >
<path style="stroke: none; stroke-width: 1; stroke-dasharray: none; stroke-linecap: butt; stroke-dashoffset: 0; stroke-linejoin: miter; stroke-miterlimit: 4; fill: rgb(62,59,61); fill-rule: nonzero; opacity: 0.3788;"  transform=" translate(-175, -169.84)" d="M 199.67 169.84 C 199.67 171.71 188.61999999999998 173.22 175 173.22 C 161.38 173.22 150.32999999999998 171.71 150.32999999999998 169.84 C 150.32999999999998 167.97 161.38 166.46 175 166.46 C 188.62 166.46 199.67 167.97 199.67 169.84 z" stroke-linecap="round" />
</g>
<g transform="matrix(2.1 0 0 2.1 427.49 372.3)" id="Layer_15"  >
<path style="stroke: none; stroke-width: 1; stroke-dasharray: none; stroke-linecap: butt; stroke-dashoffset: 0; stroke-linejoin: miter; stroke-miterlimit: 4; fill: rgb(60,58,59); fill-rule: nonzero; opacity: 0.38635;"  transform=" translate(-175, -169.85)" d="M 198.9 169.84 C 198.9 171.63 188.20000000000002 173.08 175 173.08 C 161.8 173.08 151.1 171.63000000000002 151.1 169.84 C 151.1 168.05 161.79999999999998 166.61 175 166.61 C 188.2 166.61 198.9 168.05 198.9 169.84 z" stroke-linecap="round" />
</g>
<g transform="matrix(2.1 0 0 2.1 427.49 372.29)" id="Layer_15"  >
<path style="stroke: none; stroke-width: 1; stroke-dasharray: none; stroke-linecap: butt; stroke-dashoffset: 0; stroke-linejoin: miter; stroke-miterlimit: 4; fill: rgb(59,56,57); fill-rule: nonzero; opacity: 0.39395;"  transform=" translate(-175, -169.84)" d="M 198.13 169.84 C 198.13 171.55 187.76999999999998 172.93 175 172.93 C 162.23 172.93 151.87 171.55 151.87 169.84 C 151.87 168.13 162.23000000000002 166.75 175 166.75 C 187.77 166.75 198.13 168.13 198.13 169.84 z" stroke-linecap="round" />
</g>
<g transform="matrix(2.1 0 0 2.1 427.49 372.29)" id="Layer_15"  >
<path style="stroke: none; stroke-width: 1; stroke-dasharray: none; stroke-linecap: butt; stroke-dashoffset: 0; stroke-linejoin: miter; stroke-miterlimit: 4; fill: rgb(57,54,55); fill-rule: nonzero; opacity: 0.4015;"  transform=" translate(-175, -169.84)" d="M 197.36 169.84 C 197.36 171.47 187.35000000000002 172.79 175 172.79 C 162.65 172.79 152.64 171.47 152.64 169.84 C 152.64 168.21 162.64999999999998 166.89000000000001 175 166.89000000000001 C 187.35 166.89 197.36 168.21 197.36 169.84 z" stroke-linecap="round" />
</g>
<g transform="matrix(2.1 0 0 2.1 427.49 372.29)" id="Layer_15"  >
<path style="stroke: none; stroke-width: 1; stroke-dasharray: none; stroke-linecap: butt; stroke-dashoffset: 0; stroke-linejoin: miter; stroke-miterlimit: 4; fill: rgb(55,52,54); fill-rule: nonzero; opacity: 0.4091;"  transform=" translate(-175, -169.84)" d="M 196.59 169.84 C 196.59 171.39000000000001 186.92000000000002 172.64000000000001 175 172.64000000000001 C 163.08 172.64000000000001 153.41 171.39000000000001 153.41 169.84 C 153.41 168.29 163.07999999999998 167.04 175 167.04 C 186.92 167.04 196.59 168.29 196.59 169.84 z" stroke-linecap="round" />
</g>
<g transform="matrix(2.1 0 0 2.1 427.49 372.29)" id="Layer_15"  >
<path style="stroke: none; stroke-width: 1; stroke-dasharray: none; stroke-linecap: butt; stroke-dashoffset: 0; stroke-linejoin: miter; stroke-miterlimit: 4; fill: rgb(54,51,52); fill-rule: nonzero; opacity: 0.41665;"  transform=" translate(-175, -169.84)" d="M 195.82 169.84 C 195.82 171.31 186.5 172.5 175 172.5 C 163.5 172.5 154.18 171.31 154.18 169.84 C 154.18 168.37 163.5 167.18 175 167.18 C 186.5 167.18 195.82 168.37 195.82 169.84 z" stroke-linecap="round" />
</g>
<g transform="matrix(2.1 0 0 2.1 427.49 372.3)" id="Layer_15"  >
<path style="stroke: none; stroke-width: 1; stroke-dasharray: none; stroke-linecap: butt; stroke-dashoffset: 0; stroke-linejoin: miter; stroke-miterlimit: 4; fill: rgb(52,49,50); fill-rule: nonzero; opacity: 0.42425;"  transform=" translate(-175, -169.85)" d="M 195.05 169.84 C 195.05 171.23 186.07000000000002 172.36 175 172.36 C 163.93 172.36 154.95 171.23000000000002 154.95 169.84 C 154.95 168.45000000000002 163.92999999999998 167.33 175 167.33 C 186.07 167.33 195.05 168.45 195.05 169.84 z" stroke-linecap="round" />
</g>
<g transform="matrix(2.1 0 0 2.1 427.49 372.29)" id="Layer_15"  >
<path style="stroke: none; stroke-width: 1; stroke-dasharray: none; stroke-linecap: butt; stroke-dashoffset: 0; stroke-linejoin: miter; stroke-miterlimit: 4; fill: rgb(50,47,48); fill-rule: nonzero; opacity: 0.4318;"  transform=" translate(-175, -169.84)" d="M 194.28 169.84 C 194.28 171.15 185.65 172.21 175 172.21 C 164.35 172.21 155.72 171.15 155.72 169.84 C 155.72 168.53 164.35 167.47 175 167.47 C 185.65 167.47 194.28 168.53 194.28 169.84 z" stroke-linecap="round" />
</g>
<g transform="matrix(2.1 0 0 2.1 427.49 372.29)" id="Layer_15"  >
<path style="stroke: none; stroke-width: 1; stroke-dasharray: none; stroke-linecap: butt; stroke-dashoffset: 0; stroke-linejoin: miter; stroke-miterlimit: 4; fill: rgb(48,45,46); fill-rule: nonzero; opacity: 0.4394;"  transform=" translate(-175, -169.84)" d="M 193.51 169.84 C 193.51 171.07 185.22 172.07 175 172.07 C 164.78 172.07 156.49 171.07 156.49 169.84 C 156.49 168.61 164.78 167.61 175 167.61 C 185.22 167.61 193.51 168.61 193.51 169.84 z" stroke-linecap="round" />
</g>
<g transform="matrix(2.1 0 0 2.1 427.49 372.29)" id="Layer_15"  >
<path style="stroke: none; stroke-width: 1; stroke-dasharray: none; stroke-linecap: butt; stroke-dashoffset: 0; stroke-linejoin: miter; stroke-miterlimit: 4; fill: rgb(47,43,45); fill-rule: nonzero; opacity: 0.44695;"  transform=" translate(-175, -169.84)" d="M 192.74 169.84 C 192.74 170.99 184.8 171.92000000000002 175 171.92000000000002 C 165.21 171.92000000000002 157.26 170.99 157.26 169.84 C 157.26 168.69 165.20999999999998 167.76 175 167.76 C 184.8 167.76 192.74 168.69 192.74 169.84 z" stroke-linecap="round" />
</g>
<g transform="matrix(2.1 0 0 2.1 427.49 372.29)" id="Layer_15"  >
<path style="stroke: none; stroke-width: 1; stroke-dasharray: none; stroke-linecap: butt; stroke-dashoffset: 0; stroke-linejoin: miter; stroke-miterlimit: 4; fill: rgb(45,42,43); fill-rule: nonzero; opacity: 0.45455;"  transform=" translate(-175, -169.84)" d="M 191.97 169.84 C 191.97 170.91 184.37 171.78 175 171.78 C 165.63 171.78 158.03 170.91 158.03 169.84 C 158.03 168.77 165.63 167.9 175 167.9 C 184.37 167.9 191.97 168.77 191.97 169.84 z" stroke-linecap="round" />
</g>
<g transform="matrix(2.1 0 0 2.1 427.49 372.3)" id="Layer_15"  >
<path style="stroke: none; stroke-width: 1; stroke-dasharray: none; stroke-linecap: butt; stroke-dashoffset: 0; stroke-linejoin: miter; stroke-miterlimit: 4; fill: rgb(43,40,41); fill-rule: nonzero; opacity: 0.4621;"  transform=" translate(-175, -169.85)" d="M 191.2 169.84 C 191.2 170.83 183.95 171.64000000000001 175 171.64000000000001 C 166.06 171.64000000000001 158.8 170.84 158.8 169.84 C 158.8 168.85 166.06 168.05 175 168.05 C 183.95 168.05 191.2 168.85 191.2 169.84 z" stroke-linecap="round" />
</g>
<g transform="matrix(2.1 0 0 2.1 427.49 372.29)" id="Layer_15"  >
<path style="stroke: none; stroke-width: 1; stroke-dasharray: none; stroke-linecap: butt; stroke-dashoffset: 0; stroke-linejoin: miter; stroke-miterlimit: 4; fill: rgb(42,38,39); fill-rule: nonzero; opacity: 0.4697;"  transform=" translate(-175, -169.84)" d="M 190.43 169.84 C 190.43 170.75 183.52 171.49 175 171.49 C 166.48 171.49 159.57 170.75 159.57 169.84 C 159.57 168.93 166.48 168.19 175 168.19 C 183.52 168.19 190.43 168.93 190.43 169.84 z" stroke-linecap="round" />
</g>
<g transform="matrix(2.1 0 0 2.1 427.49 372.29)" id="Layer_15"  >
<path style="stroke: none; stroke-width: 1; stroke-dasharray: none; stroke-linecap: butt; stroke-dashoffset: 0; stroke-linejoin: miter; stroke-miterlimit: 4; fill: rgb(40,36,37); fill-rule: nonzero; opacity: 0.47725;"  transform=" translate(-175, -169.84)" d="M 189.66 169.84 C 189.66 170.67000000000002 183.1 171.35 175 171.35 C 166.91 171.35 160.34 170.68 160.34 169.84 C 160.34 169.01 166.91 168.33 175 168.33 C 183.1 168.34 189.66 169.01 189.66 169.84 z" stroke-linecap="round" />
</g>
<g transform="matrix(2.1 0 0 2.1 427.49 372.29)" id="Layer_15"  >
<path style="stroke: none; stroke-width: 1; stroke-dasharray: none; stroke-linecap: butt; stroke-dashoffset: 0; stroke-linejoin: miter; stroke-miterlimit: 4; fill: rgb(38,35,36); fill-rule: nonzero; opacity: 0.48485;"  transform=" translate(-175, -169.84)" d="M 188.89 169.84 C 188.89 170.59 182.67 171.20000000000002 175 171.20000000000002 C 167.33 171.20000000000002 161.11 170.59 161.11 169.84 C 161.11 169.09 167.33 168.48 175 168.48 C 182.67 168.48 188.89 169.09 188.89 169.84 z" stroke-linecap="round" />
</g>
<g transform="matrix(2.1 0 0 2.1 427.49 372.29)" id="Layer_15"  >
<path style="stroke: none; stroke-width: 1; stroke-dasharray: none; stroke-linecap: butt; stroke-dashoffset: 0; stroke-linejoin: miter; stroke-miterlimit: 4; fill: rgb(37,33,34); fill-rule: nonzero; opacity: 0.4924;"  transform=" translate(-175, -169.84)" d="M 188.12 169.84 C 188.12 170.51 182.24 171.06 175 171.06 C 167.76 171.06 161.88 170.52 161.88 169.84 C 161.88 169.17000000000002 167.76 168.62 175 168.62 C 182.25 168.62 188.12 169.17 188.12 169.84 z" stroke-linecap="round" />
</g>
<g transform="matrix(2.1 0 0 2.1 427.49 372.3)" id="Layer_15"  >
<path style="stroke: none; stroke-width: 1; stroke-dasharray: none; stroke-linecap: butt; stroke-dashoffset: 0; stroke-linejoin: miter; stroke-miterlimit: 4; fill: rgb(35,31,32); fill-rule: nonzero; opacity: 0.5;"  transform=" translate(-175, -169.85)" d="M 187.35 169.84 C 187.35 170.44 181.82 170.92000000000002 175 170.92000000000002 C 168.18 170.92000000000002 162.65 170.44000000000003 162.65 169.84 C 162.65 169.25 168.18 168.77 175 168.77 C 181.82 168.77 187.35 169.25 187.35 169.84 z" stroke-linecap="round" />
</g>
<g transform="matrix(2.1 0 0 2.1 427.5 202.21)" id="Layer_15"  >
<path style="stroke: none; stroke-width: 1; stroke-dasharray: none; stroke-linecap: butt; stroke-dashoffset: 0; stroke-linejoin: miter; stroke-miterlimit: 4; fill: rgb(0,72,131); fill-rule: nonzero; opacity: 1;"  transform=" translate(-175, -88.7)" d="M 178.67 105.48 C 171.7 111.56 158.86999999999998 121.10000000000001 145.26 131.27 C 137.79 122.56 131.67999999999998 112.01 127.00999999999999 99.65 C 125.61999999999999 95.95 124.38999999999999 92.07000000000001 123.27999999999999 88.10000000000001 C 124.64999999999999 89.37 126.77999999999999 90.33000000000001 129.79999999999998 90.92 C 155.35 95.94 175.67999999999998 96.37 182.19 99.72 C 182.59 101.16 181.52 102.99 178.67 105.48 z M 231.45 60.1 C 215.98 64.79 200.83999999999997 70.95 186.45999999999998 78.45 C 182.84999999999997 77.73 179.46999999999997 77.07000000000001 176.57 76.44 C 174.59 76.00999999999999 172.97 75.42999999999999 171.76999999999998 74.71 C 167.98999999999998 66.80999999999999 194.92 49.00999999999999 218.76999999999998 33.25999999999999 C 223.57 34.24999999999999 227.89999999999998 34.89999999999999 232.01 35.19999999999999 C 232.46 43.22 232.26 51.59 231.45 60.1 z M 186.59 25.15 C 156.66 42.08 127.04 63.58 120.61 76.94999999999999 C 117.87 63.28999999999999 116.79 48.77999999999999 117.57 34.79999999999999 C 127.41999999999999 34.12999999999999 136.45999999999998 31.70999999999999 145.23 29.36999999999999 C 155.19 26.71999999999999 164.6 24.20999999999999 175.01 24.08999999999999 C 175.01 24.08999999999999 175.03 24.079999999999988 175.04 24.079999999999988 C 178.99 24.13 182.82 24.54 186.59 25.15 z M 220.25 106.32 C 210.28 128.76999999999998 195.09 144.57 175 153.31 C 174.99 153.31 174.99 153.31 174.98 153.32 C 168.63 150.54999999999998 162.79 147.07 157.42999999999998 142.9 C 181.01 130.23 205.9 116.06 220.25 106.32 z M 226.38 89.48 C 216.87 84.13000000000001 190.92 79.97 176.49 76.86 C 174.32000000000002 76.39 172.67000000000002 75.77 171.45000000000002 75.02 C 167.29000000000002 66.97 192.21 50.3 218.70000000000002 32.809999999999995 C 223.13000000000002 33.74999999999999 227.68 34.48 232.42000000000002 34.809999999999995 C 233.47 53.14 231.31 72.42 226.38 89.48 z" stroke-linecap="round" />
</g>
<g transform="matrix(2.1 0 0 2.1 427.5 208.04)" id="Layer_15"  >
<path style="stroke: none; stroke-width: 1; stroke-dasharray: none; stroke-linecap: butt; stroke-dashoffset: 0; stroke-linejoin: miter; stroke-miterlimit: 4; fill: rgb(33,89,127); fill-rule: nonzero; opacity: 1;"  transform=" translate(-175, -91.48)" d="M 237.64 31.16 L 237.51 29.52 L 235.87 29.48 C 225.39000000000001 29.19 215.63 26.6 206.2 24.08 C 196.32 21.45 186.12 18.729999999999997 175.01 18.599999999999998 L 175.01 20.43 C 196.48 20.69 214.17 30.73 235.82 31.310000000000002 C 238.92 70.91 227.93 135.32999999999998 175.01 157.28 L 175.01 159.26 L 175.66 158.98999999999998 C 227.14 137.68 241.22 76.81 237.64 31.16 z M 222.39 101.23 C 209.1 110.91 181.21999999999997 126.88 155.02999999999997 140.95 C 155.81999999999996 141.61999999999998 156.62999999999997 142.26 157.44999999999996 142.91 C 181.01999999999995 130.23 205.90999999999997 116.06 220.25999999999996 106.33 C 220.99 104.66 221.7 102.97 222.39 101.23 z M 171.45 75.01 C 167.29 66.96000000000001 192.20999999999998 50.290000000000006 218.7 32.800000000000004 C 217.36999999999998 32.52 216.04 32.230000000000004 214.73 31.920000000000005 C 186.35 50.67 160.53 68.27 171.45 75.01 z M 127.69 88.82 C 125.81 88.44999999999999 124.28 87.94 123.05 87.28999999999999 C 123.13 87.57 123.22 87.83 123.28999999999999 88.1 C 124.66 89.36999999999999 126.78999999999999 90.33 129.81 90.91999999999999 C 155.36 95.93999999999998 175.69 96.36999999999999 182.2 99.71999999999998 C 180.69 94.28 157.81 94.73 127.69 88.82 z M 237.64 31.16 L 237.51 29.52 L 235.87 29.48 C 225.39000000000001 29.19 215.63 26.6 206.2 24.08 C 196.32 21.45 186.12 18.729999999999997 175.01 18.599999999999998 L 174.94 18.599999999999998 C 163.82999999999998 18.729999999999997 153.64 21.439999999999998 143.79 24.069999999999997 C 134.34 26.589999999999996 124.57 29.189999999999998 114.05 29.479999999999997 L 112.39999999999999 29.519999999999996 L 112.27999999999999 31.159999999999997 C 108.78999999999999 76.83 122.93999999999998 137.7 174.26 158.98 L 174.95999999999998 159.26999999999998 L 175.01 159.24999999999997 L 175.66 158.97999999999996 C 227.14 137.68 241.22 76.81 237.64 31.16 z M 174.96 20.43 L 175.01000000000002 20.43 C 196.48000000000002 20.69 214.17000000000002 30.73 235.82000000000002 31.310000000000002 C 238.92000000000002 70.91 227.93000000000004 135.32999999999998 175.01000000000002 157.28 C 174.99 157.29 174.98000000000002 157.3 174.96 157.3 C 122.08000000000001 135.38 111.09 70.93 114.10000000000001 31.310000000000016 C 135.84 30.73 153.47 20.68 174.96 20.43 z M 157.44 142.91 C 181.01 130.23 205.9 116.06 220.25 106.33 C 220.98 104.67 221.7 102.98 222.38 101.24 C 209.09 110.91999999999999 181.20999999999998 126.88999999999999 155.01999999999998 140.95999999999998 C 155.82 141.62 156.63 142.27 157.44 142.91 z M 171.45 75.01 C 167.29 66.96000000000001 192.20999999999998 50.290000000000006 218.7 32.800000000000004 C 217.36999999999998 32.52 216.04 32.230000000000004 214.73 31.920000000000005 C 186.35 50.67 160.53 68.27 171.45 75.01 z M 129.81 90.92 C 155.36 95.94 175.69 96.37 182.2 99.72 C 180.69 94.28 157.82 94.72 127.69999999999999 88.81 C 125.82 88.44 124.28999999999999 87.93 123.05999999999999 87.28 C 123.13999999999999 87.56 123.22999999999999 87.82000000000001 123.29999999999998 88.09 C 124.65 89.37 126.78 90.33 129.81 90.92 z M 243.46 24.74 C 216.53 24.41 201.42000000000002 12.879999999999999 175.01 12.54 L 174.95999999999998 12.54 C 148.60999999999999 12.87 133.49999999999997 24.409999999999997 106.54999999999998 24.74 C 104.18999999999998 53.81999999999999 107.71999999999998 139.36 174.95999999999998 170.42000000000002 C 174.98 170.41000000000003 174.98999999999998 170.4 175.01 170.39000000000001 C 242.28 139.32 245.81 53.81 243.46 24.74 z M 174.98 14.37 L 175.01 14.37 C 187.85999999999999 14.54 197.82 17.36 208.37 20.36 C 218.41 23.21 228.77 26.16 241.76 26.54 C 242.45 36.81 243.2 65.47 233.59 96.30000000000001 C 222.81 130.89000000000001 203.11 155.13 175.01 168.39000000000001 C 174.98999999999998 168.39000000000001 174.98 168.4 174.97 168.41000000000003 C 146.87 155.16000000000003 127.18 130.91000000000003 116.41 96.30000000000003 C 106.81 65.46000000000002 107.56 36.82000000000003 108.25 26.54000000000002 C 121.25 26.16000000000002 131.62 23.210000000000022 141.66 20.35000000000002 C 152.18 17.36 162.12 14.53 174.98 14.37 z M 157.44 142.91 C 181.01 130.23 205.9 116.06 220.25 106.33 C 220.98 104.67 221.7 102.98 222.38 101.24 C 209.09 110.91999999999999 181.20999999999998 126.88999999999999 155.01999999999998 140.95999999999998 C 155.82 141.62 156.63 142.27 157.44 142.91 z M 171.45 75.01 C 167.29 66.96000000000001 192.20999999999998 50.290000000000006 218.7 32.800000000000004 C 217.36999999999998 32.52 216.04 32.230000000000004 214.73 31.920000000000005 C 186.35 50.67 160.53 68.27 171.45 75.01 z M 174.26 158.99 L 174.95999999999998 159.28 L 175.01 159.26 L 175.66 158.98999999999998 C 227.15 137.67999999999998 241.23 76.80999999999997 237.65 31.169999999999987 L 237.52 29.529999999999987 L 235.88000000000002 29.489999999999988 C 225.40000000000003 29.19999999999999 215.64000000000001 26.60999999999999 206.21000000000004 24.08999999999999 C 196.33000000000004 21.45999999999999 186.13000000000005 18.739999999999988 175.02000000000004 18.60999999999999 L 174.95000000000005 18.60999999999999 C 163.84000000000003 18.739999999999988 153.65000000000003 21.44999999999999 143.80000000000004 24.079999999999988 C 134.35000000000005 26.599999999999987 124.58000000000004 29.19999999999999 114.06000000000004 29.489999999999988 L 112.41000000000004 29.529999999999987 L 112.29000000000003 31.169999999999987 C 108.79 76.83 122.94 137.71 174.26 158.99 z M 174.96 20.43 L 175.01000000000002 20.43 C 196.48000000000002 20.69 214.17000000000002 30.73 235.82000000000002 31.310000000000002 C 238.92000000000002 70.91 227.93000000000004 135.32999999999998 175.01000000000002 157.28 C 174.99 157.29 174.98000000000002 157.3 174.96 157.3 C 122.08000000000001 135.38 111.09 70.93 114.10000000000001 31.310000000000016 C 135.84 30.73 153.47 20.68 174.96 20.43 z M 129.81 90.92 C 155.36 95.94 175.69 96.37 182.2 99.72 C 180.69 94.28 157.82 94.72 127.69999999999999 88.81 C 125.82 88.44 124.28999999999999 87.93 123.05999999999999 87.28 C 123.13999999999999 87.56 123.22999999999999 87.82000000000001 123.29999999999998 88.09 C 124.65 89.37 126.78 90.33 129.81 90.92 z M 174.94 18.6 C 163.82999999999998 18.73 153.64 21.44 143.79 24.07 C 134.34 26.59 124.57 29.19 114.05 29.48 L 112.39999999999999 29.52 L 112.27999999999999 31.16 C 108.78999999999999 76.83 122.93999999999998 137.70000000000002 174.26 158.98 L 174.95999999999998 159.26999999999998 L 175.01 159.24999999999997 L 175.01 157.26999999999998 C 174.98999999999998 157.27999999999997 174.98 157.29 174.95999999999998 157.29 C 122.07999999999998 135.37 111.08999999999997 70.91999999999999 114.09999999999998 31.299999999999997 C 135.83999999999997 30.72 153.46999999999997 20.669999999999995 174.95999999999998 20.419999999999995 L 175.01 20.419999999999995 L 175.01 18.6 L 174.94 18.6 z M 155.02 140.95 C 155.81 141.61999999999998 156.62 142.26 157.44 142.91 C 181.01 130.23 205.9 116.06 220.25 106.33 C 220.98 104.67 221.7 102.98 222.38 101.24 C 209.1 110.92 181.22 126.89 155.02 140.95 z M 218.7 32.81 C 217.36999999999998 32.53 216.04 32.24 214.73 31.930000000000003 C 186.35 50.68000000000001 160.52999999999997 68.28 171.45 75.02000000000001 C 167.29 66.96 192.21 50.29 218.7 32.81 z M 127.69 88.82 C 125.81 88.44999999999999 124.28 87.94 123.05 87.28999999999999 C 123.13 87.57 123.22 87.83 123.28999999999999 88.1 C 124.66 89.36999999999999 126.78999999999999 90.33 129.81 90.91999999999999 C 155.36 95.93999999999998 175.69 96.36999999999999 182.2 99.71999999999998 C 180.69 94.28 157.81 94.73 127.69 88.82 z" stroke-linecap="round" />
</g>
<g transform="matrix(2.1 0 0 2.1 427.5 207.83)" id="Layer_15"  >
<path style="stroke: none; stroke-width: 1; stroke-dasharray: none; stroke-linecap: butt; stroke-dashoffset: 0; stroke-linejoin: miter; stroke-miterlimit: 4; fill: rgb(145,145,145); fill-rule: nonzero; opacity: 1;"  transform=" translate(-175, -91.38)" d="M 233.79 96.35 C 223 130.99 203.25 155.29 175.08999999999997 168.57 L 174.99999999999997 168.60999999999999 L 174.99999999999997 159.05999999999997 L 175.02999999999997 159.07999999999998 L 175.56999999999996 158.79 C 226.93999999999997 137.51999999999998 240.98999999999995 76.74999999999999 237.42999999999995 31.179999999999993 L 237.30999999999995 29.729999999999993 L 235.84999999999994 29.689999999999994 C 225.35999999999993 29.409999999999993 215.59999999999994 26.809999999999995 206.14999999999995 24.289999999999992 C 196.26999999999995 21.659999999999993 186.07999999999996 18.93999999999999 174.99999999999994 18.80999999999999 L 174.99999999999994 14.159999999999991 C 187.89999999999995 14.329999999999991 197.86999999999995 17.15999999999999 208.41999999999996 20.15999999999999 C 218.43999999999997 23.00999999999999 228.79999999999995 25.94999999999999 241.75999999999996 26.32999999999999 L 241.94999999999996 26.339999999999993 L 241.96999999999997 26.529999999999994 C 242.69 37.3 243.34 65.68 233.79 96.35 z M 174.34 158.79 C 123.12 137.56 109.01 76.77 112.49000000000001 31.179999999999993 L 112.60000000000001 29.71999999999999 L 114.06 29.679999999999993 C 124.61 29.39999999999999 134.39 26.789999999999992 143.84 24.269999999999992 C 153.68 21.639999999999993 163.86 18.929999999999993 174.94 18.799999999999994 L 174.94 18.589999999999993 L 175 18.799999999999994 L 175 18.799999999999994 L 175 14.149999999999993 C 174.99 14.149999999999993 174.99 14.149999999999993 174.98 14.149999999999993 C 162.08999999999997 14.309999999999993 152.14 17.14999999999999 141.6 20.139999999999993 C 131.57999999999998 22.989999999999995 121.22 25.939999999999994 108.24 26.319999999999993 L 108.05 26.329999999999995 L 108.03999999999999 26.519999999999996 C 107.32 37.3 106.66 65.67999999999999 116.19999999999999 96.35 C 126.97999999999999 131.01 146.73 155.32 174.87 168.58999999999997 L 175 168.60999999999999 L 175 159.05999999999997 L 174.34 158.79 z" stroke-linecap="round" />
</g>
<g transform="matrix(1 0 0 1 300.25 399.62)" style=""  >
		<text xml:space="preserve" font-family="raleway-extrabold" font-size="40" font-style="normal" font-weight="normal" style="stroke: none; stroke-width: 1; stroke-dasharray: none; stroke-linecap: butt; stroke-dashoffset: 0; stroke-linejoin: miter; stroke-miterlimit: 4; fill: rgb(16,83,139); fill-rule: nonzero; opacity: 1; white-space: pre;" ><tspan x="-94.7" y="12.57" >S</tspan><tspan x="-66.06" y="12.57" >e</tspan><tspan x="-37.9" y="12.57" >c</tspan><tspan x="-11.1" y="12.57" >u</tspan><tspan x="18.22" y="12.57" >r</tspan><tspan x="38.26" y="12.57" >i</tspan><tspan x="52.98" y="12.57" >t</tspan><tspan x="72.9" y="12.57" >y</tspan></text>
</g>
</svg>