<?xml version="1.0" encoding="UTF-8" standalone="no" ?>
<!DOCTYPE svg PUBLIC "-//W3C//DTD SVG 1.1//EN" "http://www.w3.org/Graphics/SVG/1.1/DTD/svg11.dtd">
<svg xmlns="http://www.w3.org/2000/svg" xmlns:xlink="http://www.w3.org/1999/xlink" version="1.1"   viewBox="0 0 855 590" xml:space="preserve" width="855" height="590">
<desc>Created with Fabric.js 4.5.0</desc>
<defs>
</defs>
<rect x="0" y="0" width="100%" height="100%" fill="#ffffff"></rect>
<g transform="matrix(2.21 0 0 2.21 427.26 127.62)"  >
<path style="stroke: none; stroke-width: 1; stroke-dasharray: none; stroke-linecap: butt; stroke-dashoffset: 0; stroke-linejoin: miter; stroke-miterlimit: 4; fill: rgb(96,150,168); fill-rule: nonzero; opacity: 1;"  transform=" translate(-175, -44.84)" d="M 241.74 77.61 L 237.39000000000001 81.96 C 235.60000000000002 83.75 232.70000000000002 83.75 230.91000000000003 81.96 L 177.53000000000003 28.57999999999999 C 175.74000000000004 26.789999999999992 172.84000000000003 26.789999999999992 171.05000000000004 28.57999999999999 L 118.32000000000005 81.30999999999999 C 116.55000000000005 83.07999999999998 113.67000000000004 83.1 111.88000000000005 81.35 L 108.29000000000005 77.83999999999999 C 106.47000000000006 76.05999999999999 106.45000000000005 73.13 108.25000000000004 71.32999999999998 L 171.85000000000005 7.729999999999983 C 173.64000000000004 5.939999999999983 176.54000000000005 5.939999999999983 178.33000000000004 7.729999999999983 L 195.21000000000004 24.60999999999998 C 198.10000000000002 27.499999999999982 203.03000000000003 25.44999999999998 203.03000000000003 21.369999999999983 L 203.03000000000003 21.369999999999983 C 203.03000000000003 18.839999999999982 205.08000000000004 16.789999999999985 207.61000000000004 16.789999999999985 L 210.08000000000004 16.789999999999985 C 212.61000000000004 16.789999999999985 214.66000000000005 18.839999999999986 214.66000000000005 21.369999999999983 L 214.66000000000005 42.15999999999998 C 214.66000000000005 43.36999999999998 215.14000000000004 44.539999999999985 216.00000000000006 45.399999999999984 L 241.74000000000007 71.13999999999999 C 243.53 72.93 243.53 75.83 241.74 77.61 z" stroke-linecap="round" />
</g>
<g transform="matrix(2.21 0 0 2.21 427.29 253.26)"  >
<path style="stroke: none; stroke-width: 1; stroke-dasharray: none; stroke-linecap: butt; stroke-dashoffset: 0; stroke-linejoin: miter; stroke-miterlimit: 4; fill: rgb(220,155,24); fill-rule: nonzero; opacity: 1;"  transform=" translate(-175.01, -101.65)" d="M 110.06 100.08 L 170.08 40.059999999999995 C 172.85000000000002 37.28999999999999 177.34 37.28999999999999 180.11 40.059999999999995 L 239.96 99.91 C 242.73000000000002 102.67999999999999 242.73000000000002 107.17 239.96 109.94 L 239.16 110.74 C 236.39 113.50999999999999 231.9 113.50999999999999 229.13 110.74 L 179.31 60.919999999999995 C 176.54 58.14999999999999 172.05 58.14999999999999 169.28 60.919999999999995 L 120.09 110.10999999999999 C 117.34 112.85999999999999 112.89 112.87999999999998 110.11 110.16999999999999 L 110.11 110.16999999999999 C 107.29 107.41 107.26 102.88 110.06 100.08 z M 130.9 113.74 L 130.9 113.74 C 128.02 116.61999999999999 128.02 121.3 130.9 124.17999999999999 L 169.88 163.16 C 172.76 166.04 177.44 166.04 180.32 163.16 L 219.47 124.00999999999999 C 222.35 121.13 222.35 116.44999999999999 219.47 113.57 L 219.26 113.36 C 216.38 110.48 211.7 110.48 208.82 113.36 L 179.57999999999998 142.6 C 176.66 145.51999999999998 171.89999999999998 145.48 169.04 142.5 L 141.45999999999998 113.84 C 138.57 110.86 133.82 110.81 130.9 113.74 z M 160.65 82.31 L 160.65 93.94 L 172.28 93.94 L 172.28 82.31 L 160.65 82.31 z M 177.75 93.02 L 189.38 93.02 L 189.38 82.31 L 177.75 82.31 L 177.75 93.02 z M 160.65 99.41 L 160.65 111.27 L 172.28 111.27 L 172.28 99.41 L 160.65 99.41 z M 177.75 111.27 L 189.38 111.27 L 189.38 98.5 L 177.75 98.5 L 177.75 111.27 z" stroke-linecap="round" />
</g>
<g transform="matrix(1 0 0 1 302.58 440.23)" style=""  >
		<text xml:space="preserve" font-family="sylfaen" font-size="40" font-style="normal" font-weight="normal" style="stroke: none; stroke-width: 1; stroke-dasharray: none; stroke-linecap: butt; stroke-dashoffset: 0; stroke-linejoin: miter; stroke-miterlimit: 4; fill: rgb(164,152,129); fill-rule: nonzero; opacity: 1; white-space: pre;" ><tspan x="-226.95" y="12.57" >R</tspan><tspan x="-196.27" y="12.57" >e</tspan><tspan x="-174.52" y="12.57" >a</tspan><tspan x="-152.76" y="12.57" >l</tspan><tspan x="-137.65" y="12.57" style="white-space: pre; "> </tspan><tspan x="-123.65" y="12.57" >E</tspan><tspan x="-95.22" y="12.57" >s</tspan><tspan x="-75.65" y="12.57" >t</tspan><tspan x="-60.54" y="12.57" >a</tspan><tspan x="-38.78" y="12.57" >t</tspan><tspan x="-23.67" y="12.57" >e</tspan><tspan x="-1.92" y="12.57" style="white-space: pre; "> </tspan><tspan x="12.08" y="12.57" >&amp;</tspan><tspan x="47.2" y="12.57" style="white-space: pre; "> </tspan><tspan x="61.2" y="12.57" >P</tspan><tspan x="87.44" y="12.57" >r</tspan><tspan x="104.76" y="12.57" >o</tspan><tspan x="128.76" y="12.57" >p</tspan><tspan x="152.76" y="12.57" >e</tspan><tspan x="174.52" y="12.57" >r</tspan><tspan x="191.84" y="12.57" >t</tspan><tspan x="206.95" y="12.57" >y</tspan></text>
</g>
</svg>