<?xml version="1.0" encoding="UTF-8" standalone="no" ?>
<!DOCTYPE svg PUBLIC "-//W3C//DTD SVG 1.1//EN" "http://www.w3.org/Graphics/SVG/1.1/DTD/svg11.dtd">
<svg xmlns="http://www.w3.org/2000/svg" xmlns:xlink="http://www.w3.org/1999/xlink" version="1.1"   viewBox="0 0 855 590" xml:space="preserve" width="855" height="590">
<desc>Created with Fabric.js 4.5.0</desc>
<defs>
</defs>
<g transform="matrix(2.2 0 0 2.2 73.18 71.04)" id="Layer_4"  >
<path style="stroke: none; stroke-width: 1; stroke-dasharray: none; stroke-linecap: butt; stroke-dashoffset: 0; stroke-linejoin: miter; stroke-miterlimit: 4; fill: rgb(17,99,128); fill-rule: nonzero; opacity: 1;"  transform=" translate(-174.97, -90.14)" d="M 204.18 38.22 C 206.78 37.25 209.79000000000002 36.269999999999996 212.55 37.25 C 215.31 38.230000000000004 215.88000000000002 40.09 216.61 42.13 C 214.25 41.07 211.9 39.85 209.3 39.61 C 211.74 40.67 214.26000000000002 41.4 216.61 42.78 C 214.74 44.08 212.47000000000003 45.14 210.19000000000003 44.410000000000004 C 207.91 43.66 206.05 40.33 204.18 38.22 z M 197.92 58.29 C 205.23 53.9 212.70999999999998 49.76 220.91 47.16 C 229.11 44.559999999999995 240 42.769999999999996 249.35 45.29 C 257.95 47.589999999999996 265.40999999999997 52.97 270.31 60.4 C 268.23 59.79 266.11 59.3 263.97 58.94 C 256.33000000000004 57.879999999999995 248.53000000000003 59.669999999999995 241.46000000000004 62.599999999999994 C 236.55000000000004 64.64999999999999 231.91000000000003 67.3 227.65000000000003 70.47999999999999 C 230.58000000000004 69.17999999999999 233.42000000000004 67.96 236.43000000000004 66.89999999999999 C 243.50000000000003 64.38 251.06000000000003 62.26999999999999 258.61 63.40999999999999 C 258.69 61.94999999999999 258.69 60.56999999999999 258.77000000000004 59.09999999999999 C 259.93000000000006 60.569999999999986 260.78000000000003 62.25999999999999 261.29 64.05999999999999 C 265.07 65.33999999999999 268.61 67.22999999999999 271.77000000000004 69.66999999999999 C 274.59000000000003 71.91999999999999 276.50000000000006 75.12999999999998 277.13000000000005 78.68999999999998 C 279.68000000000006 91.92999999999998 276.78000000000003 105.63999999999999 269.09000000000003 116.71999999999998 C 263.49 124.68999999999998 255.35000000000002 130.52999999999997 246.01000000000005 133.29999999999998 C 245.69000000000005 134.27999999999997 245.36000000000004 135.48999999999998 244.30000000000004 135.98 C 243.24000000000004 136.47 239.67000000000004 136.95999999999998 237.23000000000005 137.04 C 236.25000000000006 137.2 235.61000000000004 136.39 235.04000000000005 135.66 C 232.27000000000004 136.41 229.35000000000005 136.38 226.59000000000006 135.57999999999998 C 224.56000000000006 134.76999999999998 222.93000000000006 136.88 220.90000000000006 136.55999999999997 C 217.00000000000006 136.31999999999996 213.10000000000005 135.82999999999998 209.20000000000007 135.57999999999998 C 205.30000000000007 135.33999999999997 199.21000000000006 135.08999999999997 194.33000000000007 134.44 C 194.17000000000007 133.07999999999998 194.40000000000006 131.7 194.98000000000008 130.46 L 191.16000000000008 129.97 C 190.5900000000001 131.43 189.7800000000001 132.98 188.1500000000001 133.46 C 185.97000000000008 134.27 183.60000000000008 134.44 181.32000000000008 133.95000000000002 C 180.1800000000001 133.63000000000002 180.1800000000001 132.24 180.1800000000001 131.35000000000002 C 179.2400000000001 131.32000000000002 178.3100000000001 131.16000000000003 177.4200000000001 130.86 C 176.6900000000001 130.21 176.7700000000001 129.24 176.6900000000001 128.34 L 164.1000000000001 127.53 L 163.37000000000012 129.72 C 160.61000000000013 130.21 157.68000000000012 130.78 154.92000000000013 129.96 C 153.70000000000013 129.64000000000001 153.54000000000013 128.34 153.62000000000012 127.28 C 150.86000000000013 128.58 147.77000000000012 129.8 144.68000000000012 129.88 C 143.42000000000013 129.89 142.39000000000013 128.88 142.3800000000001 127.63 C 142.3800000000001 127.50999999999999 142.3900000000001 127.39999999999999 142.40000000000012 127.28 L 138.42000000000013 127.44 C 138.10000000000014 128.17 137.85000000000014 128.9 137.45000000000013 129.63 C 136.31000000000014 132.31 131.84000000000012 132.56 130.46000000000012 129.95 C 128.92000000000013 130.35999999999999 126.72000000000013 130.19 126.56000000000012 128.16 L 117.13000000000011 129.04999999999998 C 117.19000000000011 129.73 117.30000000000011 130.41 117.46000000000011 131.07999999999998 C 115.27000000000011 131.80999999999997 112.91000000000011 131.80999999999997 110.63000000000011 132.04999999999998 C 105.19000000000011 132.20999999999998 99.74000000000011 132.61999999999998 94.30000000000011 132.77999999999997 C 91.05000000000011 133.26999999999998 87.96000000000011 134.07999999999998 84.7900000000001 134.80999999999997 C 76.0100000000001 137.08999999999997 67.3200000000001 139.59999999999997 59.0300000000001 143.33999999999997 C 74.4700000000001 139.43999999999997 90.0700000000001 136.10999999999999 105.91000000000011 134.31999999999996 C 128.2700000000001 131.56999999999996 150.90000000000012 131.86999999999998 173.1900000000001 135.20999999999995 C 194.6400000000001 138.13999999999996 215.93000000000012 143.81999999999994 237.7000000000001 143.41999999999996 C 245.0900000000001 143.62999999999997 252.4600000000001 142.41999999999996 259.3900000000001 139.84999999999997 C 268.6400000000001 136.33999999999997 276.5600000000001 130.02999999999997 282.0600000000001 121.80999999999997 C 292.3800000000001 106.36999999999998 293.6800000000001 85.48999999999998 285.8800000000001 68.66999999999997 C 282.4400000000001 61.18999999999997 277.29000000000013 54.619999999999976 270.85000000000014 49.489999999999974 C 263.8600000000001 43.799999999999976 255.25000000000014 39.81999999999997 246.15000000000015 39.00999999999998 C 237.05000000000015 38.199999999999974 225.43000000000015 40.63999999999998 216.25000000000014 45.269999999999975 C 209.56 48.7 203.37 53.08 197.92 58.29 z M 196.46 53.33 C 198.49 54.3 200.69 53.33 202.39000000000001 52.03 C 200.35000000000002 51.07 198.27 50.230000000000004 196.13000000000002 49.51 C 198.32000000000002 49.669999999999995 200.44000000000003 50.65 202.47000000000003 51.54 C 201.74000000000004 49.83 200.68000000000004 47.96 198.81000000000003 47.4 C 196.94000000000003 46.83 193.93000000000004 47.48 191.66000000000003 48.29 C 193.13 50.08 194.35 52.28 196.46 53.33 z M 222.21 55.12 C 222.13 52.44 223.1 49.919999999999995 223.83 47.4 C 222.04000000000002 48.29 220.26000000000002 49.589999999999996 219.60000000000002 51.629999999999995 C 218.94000000000003 53.669999999999995 220.09000000000003 57.559999999999995 221.39000000000001 60.16 C 223.18 58.37 225.29000000000002 56.83 226.51000000000002 54.629999999999995 C 227.73000000000002 52.42999999999999 226.43 49.19 224.48000000000002 47.39999999999999 C 223.51 49.92 222.95 52.52 222.21 55.12 L 222.21 55.12 z M 206.78 60.89 C 207.07 58.67 207.62 56.49 208.4 54.39 C 206.86 55.12 205.23000000000002 56.18 204.74 57.97 C 204.25 59.76 205.06 63.01 206.04000000000002 65.36 C 207.75000000000003 63.57 210.10000000000002 62.19 210.83 59.67 C 211.56 57.150000000000006 210.18 55.77 208.88000000000002 54.31 C 208.16 56.5 207.51 58.69 206.78 60.89 L 206.78 60.89 z M 237 61.94 C 238.22 62.589999999999996 239.68 61.94 240.9 61.37 C 239.6 60.64 238.3 59.989999999999995 237.08 59.18 L 240.9 61.05 C 240.49 59.83 240.01000000000002 58.449999999999996 238.63 57.959999999999994 C 237.25 57.46999999999999 235.54 57.8 234.07999999999998 58.03999999999999 C 234.97 59.43 235.54 61.13 237 61.94 L 237 61.94 z M 188.82 66.9 C 191.1 66.33000000000001 193.7 66.41000000000001 195.65 64.87 C 197.60000000000002 63.33 197.27 61.050000000000004 197.03 59.10000000000001 C 195.24 60.400000000000006 193.7 61.94000000000001 191.91 63.24000000000001 C 193.21 61.53000000000001 194.92 60.31000000000001 196.54 58.85000000000001 C 194.75 58.69000000000001 192.72 58.77000000000001 191.34 60.07000000000001 C 189.96 61.38 189.15 64.54 188.82 66.9 z M 228.96 66.82 C 230.18 66.97999999999999 231.07000000000002 66.08999999999999 231.97 65.44 C 230.67 65.09 229.39 64.66 228.15 64.14 L 231.89000000000001 65.03 C 231.32000000000002 64.14 230.75000000000003 63.08 229.70000000000002 62.75 C 228.64000000000001 62.42 226.37 62.99 224.82000000000002 63.56 C 226.03 64.87 227.01 66.66 228.96 66.82 z M 168.59 66.9 C 165.91 67.63000000000001 162.98 66.9 160.3 67.87 C 159.89000000000001 68.44 160.22 69.17 160.38000000000002 69.82000000000001 C 161.19000000000003 71.77000000000001 161.03000000000003 74.05000000000001 162.49000000000004 75.67 C 163.95000000000005 77.28999999999999 168.83000000000004 77.7 171.75000000000003 78.92 C 172.81000000000003 80.06 172.89000000000001 81.76 173.21000000000004 83.14 C 173.54000000000005 84.52 171.67000000000004 88.42 173.94000000000003 90.29 C 174.44000000000003 91.15 174.87000000000003 92.05000000000001 175.24000000000004 92.97000000000001 C 175.24000000000004 94.19000000000001 174.59000000000003 95.25000000000001 174.27000000000004 96.38000000000001 L 175.49000000000004 95.49000000000001 C 175.22000000000003 96.78000000000002 175.28000000000003 98.12 175.65000000000003 99.39000000000001 L 176.38000000000002 98.01000000000002 C 177.68000000000004 100.04000000000002 179.22000000000003 101.91000000000003 180.52 103.94000000000003 C 181.54000000000002 105.43000000000002 182.91 106.66000000000003 184.5 107.51000000000002 C 185.21 110.08000000000001 185.59 112.73000000000002 185.64 115.39000000000001 C 185.55999999999997 117.99000000000001 184.75 120.67000000000002 184.98999999999998 123.35000000000001 C 185.18999999999997 125.11000000000001 185.10999999999999 126.9 184.74999999999997 128.63 C 184.00999999999996 128.81 183.27999999999997 129.03 182.55999999999997 129.28 C 181.33999999999997 129.93 181.42 131.56 181.17999999999998 132.77 C 183.04999999999998 133.23000000000002 185.01 133.20000000000002 186.86999999999998 132.69 C 188.18999999999997 132.52 189.29999999999998 131.65 189.79999999999998 130.41 C 191.01999999999998 126.92 190.60999999999999 123.17999999999999 191.42 119.6 C 192.23 116.02 194.42999999999998 111.31 194.42999999999998 106.91999999999999 C 195.73999999999998 106.74999999999999 197.04999999999998 106.50999999999999 198.32999999999998 106.18999999999998 C 198.83999999999997 105.53999999999998 199.26999999999998 104.82999999999998 199.63 104.07999999999998 C 198.82 103.01999999999998 197.92 101.79999999999998 198.01 100.33999999999999 C 198.09 98.88 199.14999999999998 96.92999999999999 200.28 95.54999999999998 C 201.17 95.95999999999998 202.23 96.43999999999998 203.21 96.03999999999998 C 204.9 95.56999999999998 206.71 95.68999999999998 208.33 96.35999999999997 C 209.45000000000002 95.38999999999997 210.5 94.35999999999997 211.5 93.26999999999997 C 212.8 96.36999999999996 213.22 99.76999999999997 212.72 103.09999999999997 C 215.89 102.93999999999997 219.14 102.44999999999996 222.39 102.93999999999997 C 223.17999999999998 102.98999999999997 223.89 103.44999999999997 224.26 104.15999999999997 C 225.64 106.59999999999997 226.7 109.11999999999996 228 111.54999999999997 C 228.58 112.63999999999997 229.45 113.53999999999996 230.52 114.14999999999996 C 233.20000000000002 115.85999999999996 235.96 117.39999999999996 238.32000000000002 119.50999999999996 C 239.78000000000003 122.91999999999996 240.36 126.62999999999997 240.03000000000003 130.31999999999996 C 239.87000000000003 132.18999999999997 236.94000000000003 131.53999999999996 236.54000000000002 133.32999999999996 C 236.13000000000002 135.11999999999995 235.73000000000002 136.00999999999996 237.27 135.84999999999997 C 239.5 136.04999999999995 241.75 135.73999999999995 243.85000000000002 134.95999999999998 C 245.23000000000002 134.23 244.66000000000003 132.43999999999997 244.74 131.21999999999997 C 244.33 126.01999999999997 245.39000000000001 120.89999999999998 245.39000000000001 115.77999999999997 C 245.47000000000003 114.31999999999998 243.85000000000002 113.74999999999997 243.44000000000003 112.44999999999997 C 242.82000000000002 110.79999999999997 242.42000000000002 109.07999999999997 242.22000000000003 107.32999999999997 C 241.90000000000003 103.42999999999996 244.25000000000003 100.01999999999997 244.41000000000003 96.11999999999998 C 244.57000000000002 92.21999999999997 244.25000000000003 88.72999999999998 241.32000000000002 86.52999999999997 C 243.27 86.20999999999998 245.95000000000002 86.68999999999997 247.09000000000003 84.73999999999997 C 248.99000000000004 84.24999999999997 250.82000000000002 83.50999999999996 252.53000000000003 82.54999999999997 L 252.53000000000003 81.73999999999997 C 257.24 80.59999999999997 260.17 76.20999999999997 261.14000000000004 71.74999999999997 C 260.69000000000005 72.33999999999997 260.28000000000003 72.96999999999997 259.92 73.61999999999998 C 260.65000000000003 70.12999999999998 260.90000000000003 66.46999999999997 259.84000000000003 63.059999999999974 C 259.22 66.12999999999997 258.00000000000006 69.05999999999997 256.26000000000005 71.66999999999997 C 255.11000000000004 73.17999999999998 253.68000000000004 74.44999999999997 252.03000000000006 75.40999999999997 C 249.17000000000004 77.47999999999996 246.12000000000006 79.26999999999997 242.93000000000006 80.76999999999997 C 240.00000000000006 81.98999999999997 236.75000000000006 83.04999999999997 233.67000000000007 82.06999999999996 C 230.77000000000007 81.05999999999996 227.72000000000008 80.55999999999996 224.65000000000006 80.60999999999997 C 217.91000000000005 80.84999999999997 211.24000000000007 82.79999999999997 204.50000000000006 81.82999999999997 C 202.96000000000006 81.50999999999998 201.49000000000007 80.85999999999997 199.87000000000006 80.76999999999997 C 198.66000000000005 80.73999999999997 197.46000000000006 80.54999999999997 196.30000000000007 80.19999999999997 C 194.59000000000006 79.46999999999997 193.46000000000006 78.00999999999998 192.32000000000008 76.61999999999998 C 189.5600000000001 73.44999999999997 186.55000000000007 70.60999999999997 184.11000000000007 67.18999999999997 C 182.89000000000007 65.64999999999996 181.83000000000007 63.77999999999997 179.88000000000008 63.20999999999997 C 177.4600000000001 62.559999999999974 174.91000000000008 62.559999999999974 172.4900000000001 63.20999999999997 C 170.54 63.65 169.89 65.68 168.59 66.9 L 168.59 66.9 z M 178.91 66.66 C 177.93 68.77 176.47 70.89 176.63 73.32 C 176.7 75.16999999999999 178 76.72999999999999 179.79999999999998 77.13999999999999 C 180.77999999999997 77.37999999999998 181.51 76.57 181.98999999999998 75.91999999999999 C 182.46999999999997 75.26999999999998 182.87999999999997 72.50999999999999 183.04999999999998 70.79999999999998 C 183.57 72.54999999999998 183.58999999999997 74.39999999999998 183.13 76.15999999999998 C 182.07 79.32999999999998 176.54999999999998 79.24999999999999 175.74 75.99999999999999 C 174.93 72.75 176.39 68.93 178.91 66.66 L 178.91 66.66 z M 173.87 88.84 L 245.13 72.51 C 246.67 71.29 248.79 70.23 249.19 68.12 C 249.6 66.01 248.62 65.44 247.73 64.46000000000001 C 247.23999999999998 65.92 246.75 67.39000000000001 246.19 68.85000000000001 C 246.46 67.32000000000001 246.9 65.82000000000001 247.49 64.38000000000001 C 246.43 65.03000000000002 245.13 65.52000000000001 244.65 66.74000000000001 C 244.16 67.96000000000001 244.57 70.72000000000001 245.14000000000001 72.51 L 173.87 88.84 z M 163.8 91.28 C 165.10000000000002 90.39 166.48000000000002 89.49 167.21 88.11 C 167.94 86.73 167.21 85.17999999999999 166.24 84.05 C 165.67000000000002 85.42999999999999 165.26000000000002 86.73 164.61 88.03 C 164.93 86.73 165.5 85.43 165.91000000000003 84.05 C 164.85000000000002 84.61999999999999 163.63000000000002 85.27 163.31000000000003 86.41 C 162.99000000000004 87.55 234.65000000000003 73.33 235.05 74.94999999999999 L 163.8 91.28 z M 149.82 92.98 C 151.53 92.66000000000001 153.48 92.74000000000001 155.01999999999998 91.68 C 156.55999999999997 90.62 156.39999999999998 88.84 156.15999999999997 87.37 C 154.93999999999997 88.26 153.71999999999997 89.32000000000001 152.41999999999996 90.21000000000001 C 153.49999999999997 89.12 154.63999999999996 88.09 155.82999999999996 87.12 C 154.44999999999996 87.04 152.89999999999995 86.96000000000001 151.76999999999995 88.01 C 150.62999999999997 89.07000000000001 221.39999999999995 74.85000000000001 221.07999999999996 76.63000000000001 L 149.82 92.98 z M 109.6 108.01 C 107.89 104.52000000000001 107.64999999999999 100.21000000000001 104.89 97.28 C 104.48 96.71000000000001 103.18 96.47 103.1 97.36 C 101.8 102.32 104.32 107.44 108.05999999999999 110.6 L 106.91999999999999 113.28 C 103.82999999999998 113.2 100.82999999999998 112.22 97.73999999999998 112.87 C 94.64999999999998 113.52000000000001 90.50999999999998 116.28 89.77999999999999 120.18 C 89.28999999999999 121.97000000000001 89.85999999999999 123.84 90.50999999999999 125.62 C 89.74999999999999 125.99000000000001 89.19 126.67 88.96999999999998 127.49000000000001 C 90.09999999999998 128.85000000000002 91.99999999999999 129.28 93.59999999999998 128.55 C 93.86999999999998 129.62 94.36999999999998 130.62 95.05999999999997 131.48000000000002 C 102.04999999999997 131.16000000000003 109.11999999999998 130.99 116.09999999999997 130.34000000000003 C 115.95999999999997 129.48000000000002 115.73999999999997 128.64000000000004 115.44999999999996 127.82000000000004 C 114.87999999999997 126.52000000000004 113.00999999999996 127.41000000000004 112.35999999999996 126.28000000000003 C 111.28999999999996 124.47000000000003 111.31999999999995 122.21000000000004 112.43999999999996 120.43000000000004 C 113.40999999999995 119.21000000000004 112.84999999999995 117.10000000000004 114.30999999999996 116.29000000000003 C 115.76999999999995 115.48000000000003 116.33999999999996 115.15000000000003 116.25999999999996 114.01000000000003 C 115.80999999999996 112.43000000000004 114.79999999999997 111.08000000000003 113.41999999999996 110.19000000000004 C 112.84999999999997 109.70000000000005 111.79999999999995 109.38000000000004 112.03999999999996 108.40000000000003 C 112.27999999999996 104.17000000000003 112.60999999999996 99.46000000000004 110.00999999999996 95.89000000000003 C 108.73999999999997 96.83000000000003 108.07999999999996 98.39000000000003 108.29999999999997 99.95000000000003 C 108.46 102.65 109.36 105.33 109.6 108.01 z M 222.21 111.34 C 224.24 115.08 228.39000000000001 116.7 230.9 119.95 C 231.85 123.25 231.99 126.74000000000001 231.31 130.11 C 230.82 131.65 228.3 130.84 227.82 132.47000000000003 C 227.33999999999997 134.10000000000005 226.76 134.66000000000003 227.9 134.91000000000003 C 230.26000000000002 135.07000000000002 232.94 135.56000000000003 235.05 134.26000000000002 C 235.86 132.23000000000002 235.70000000000002 130.03000000000003 236.03 128.00000000000003 C 236.35 125.97000000000003 236.92 122.72000000000003 237.25 120.12000000000003 C 234.73 117.60000000000004 231.4 116.38000000000004 228.64 114.19000000000003 C 225.88 112.00000000000003 225.23 107.20000000000003 222.79 104.11000000000003 C 221.60999999999999 103.92000000000003 220.41 103.81000000000003 219.22 103.79000000000003 C 220.26 106.31 221.08 108.91 222.21 111.34 z M 182.24 112.16 C 182.24 114.6 181.43 117.03999999999999 181.59 119.55 C 181.75 122.07 181.91 123.53 181.43 125.39999999999999 C 180.94 127.27 178.91 125.80999999999999 178.42000000000002 127.02 C 178.03000000000003 127.74 177.84 128.56 177.85000000000002 129.38 C 178.26000000000002 130.44 179.56000000000003 130.03 180.37000000000003 130.26999999999998 C 180.95000000000005 128.79 182.36000000000004 127.79999999999998 183.95000000000005 127.74999999999999 C 184.04000000000005 125.79999999999998 184.02000000000004 123.84999999999998 183.87000000000003 121.89999999999999 C 183.87000000000003 119.21999999999998 184.76000000000002 116.61999999999999 184.52000000000004 113.94 C 184.40000000000003 112.03999999999999 184.07000000000005 110.16 183.55000000000004 108.33 C 182.98000000000005 107.8 182.36000000000004 107.34 181.68000000000004 106.95 C 181.91 108.66 182.16 110.37 182.24 112.16 L 182.24 112.16 z" stroke-linecap="round" />
</g>
<g transform="matrix(2.2 0 0 2.2 418.38 274.39)" id="Layer_4"  >
<path style="stroke: none; stroke-width: 1; stroke-dasharray: none; stroke-linecap: butt; stroke-dashoffset: 0; stroke-linejoin: miter; stroke-miterlimit: 4; fill: rgb(147,149,152); fill-rule: nonzero; opacity: 1;"  transform=" translate(-170.83, -115.51)" d="M 208.48 97.86 L 211.07999999999998 95.75 C 211.89 99.57 211.89 103.71 210.10999999999999 107.21000000000001 C 209.45999999999998 108.35000000000001 209.38 109.97000000000001 210.42999999999998 110.87 C 211.48999999999998 111.76 213.02999999999997 112.01 214.08999999999997 112.9 C 215.14999999999998 113.79 217.49999999999997 116.80000000000001 218.47999999999996 119.16000000000001 C 220.26999999999995 123.71000000000001 219.53999999999996 128.91000000000003 217.25999999999996 133.22 C 219.53999999999996 133.3 222.21999999999997 132.81 223.43999999999997 130.62 C 224.37999999999997 128.34 224.19999999999996 125.76 222.94999999999996 123.63000000000001 C 222.29999999999995 122.41000000000001 220.83999999999995 122.17000000000002 219.77999999999997 121.44000000000001 C 218.71999999999997 120.71000000000001 220.18999999999997 120.14000000000001 220.91999999999996 119.9 C 222.42999999999995 119.98 223.82999999999996 120.72 224.73999999999995 121.93 C 227.57999999999996 125.51 227.33999999999995 131.19 223.92999999999995 134.20000000000002 C 222.83999999999995 135.08 221.40999999999994 135.44000000000003 220.02999999999994 135.18 L 202.23999999999995 133.64000000000001 C 202.27999999999994 132.9 202.35999999999996 132.17000000000002 202.47999999999996 131.45000000000002 C 203.45999999999995 131.21 204.42999999999995 131.69000000000003 205.31999999999996 131.86 C 203.36999999999998 129.83 203.36999999999998 126.66000000000001 204.42999999999998 124.14000000000001 C 205.48999999999998 121.62000000000002 206.86999999999998 121.21000000000001 208.40999999999997 120.08000000000001 C 205.80999999999997 120.65 204.01999999999998 122.68 202.79999999999995 124.96000000000001 L 201.82999999999996 123.17 C 201.89999999999995 126.7 201.67999999999995 130.24 201.17999999999995 133.73 L 195.48999999999995 133.23999999999998 C 195.63999999999996 132.52999999999997 195.82999999999996 131.82 196.05999999999995 131.12999999999997 L 198.49999999999994 130.63999999999996 C 199.10999999999996 128.08999999999995 199.26999999999995 125.44999999999996 198.98999999999995 122.83999999999996 C 198.74999999999994 121.04999999999995 197.60999999999996 119.50999999999996 197.19999999999996 117.79999999999995 C 196.57999999999996 114.71999999999996 197.00999999999996 111.50999999999995 198.41999999999996 108.69999999999996 C 199.22999999999996 107.23999999999997 200.44999999999996 105.93999999999996 200.85999999999996 104.22999999999996 C 201.26999999999995 102.51999999999997 199.14999999999995 101.94999999999996 199.31999999999996 100.40999999999997 C 199.50999999999996 99.35999999999997 199.86999999999998 98.33999999999997 200.37999999999997 97.39999999999996 C 203.12 97.86 205.88 96.39 208.48 97.86 z M 114.96 103.87 C 114.94999999999999 104.49000000000001 114.97 105.12 115.03999999999999 105.74000000000001 C 116.1 106.57000000000001 117.30999999999999 107.18 118.61999999999999 107.53000000000002 C 119.75999999999999 107.85000000000001 121.3 107.94000000000001 121.94999999999999 109.07000000000002 C 122.6 110.21000000000002 123.24999999999999 113.54000000000002 124.54999999999998 115.49000000000002 C 125.84999999999998 117.44000000000003 128.36999999999998 118.09000000000002 129.91 119.88000000000002 C 130.96 121.43000000000002 131.32 123.34000000000002 130.89 125.16000000000003 C 130.32 126.38000000000002 128.60999999999999 126.38000000000002 127.87999999999998 127.52000000000002 C 127.14999999999998 128.66000000000003 127.79999999999998 128.58 127.71999999999998 129.14000000000001 C 129.42999999999998 129.14000000000001 131.54 129.14000000000001 132.67999999999998 127.60000000000001 C 133.81999999999996 126.06 134.79 122.97000000000001 135.27999999999997 120.45 C 134.86999999999998 122.89 134.70999999999998 125.41 133.89999999999998 127.76 L 131.61999999999998 129.39000000000001 C 131.77999999999997 129.63000000000002 131.93999999999997 130.20000000000002 132.10999999999999 130.53 C 133.57 130.85 135.6 131.1 136.49999999999997 129.55 C 138.03999999999996 126.14000000000001 139.17999999999998 122.24000000000001 142.34999999999997 119.88000000000001 C 144.83999999999997 119.28000000000002 147.40999999999997 120.50000000000001 148.52999999999997 122.81000000000002 C 148.93999999999997 123.78000000000002 149.66999999999996 125.09000000000002 148.60999999999999 125.90000000000002 C 147.54999999999998 126.71000000000002 145.67999999999998 125.25000000000001 144.38 126.14000000000001 C 143.07999999999998 127.03000000000002 143.49 127.85000000000001 143.49 128.74 C 146.74 129.31 149.83 127.77000000000001 152.75 126.71000000000001 L 153.73 124.27000000000001 C 151.94 123.13000000000001 151.29 121.10000000000001 150.89 119.15 C 151.54 120.45 152.02999999999997 121.91000000000001 153.32999999999998 122.72 C 154.63 123.53 157.46999999999997 124.02 159.26 125.24 C 159.34 125.64999999999999 159.42 126.38 159.5 126.78 C 158.28 126.54 156.9 125.81 155.68 126.37 C 154.46 126.94 154.70000000000002 127.75 154.38 128.56 C 156.98 130.02 160.07 129.21 162.82999999999998 128.88 C 163.57 125.72999999999999 163.63 122.46 162.98999999999998 119.28999999999999 C 165.74999999999997 119.36999999999999 168.76 118.63999999999999 170.37999999999997 116.19999999999999 C 171.99999999999997 113.75999999999999 171.26999999999995 112.63 171.51999999999995 110.83999999999999 C 171.76999999999995 109.04999999999998 173.38999999999996 106.44999999999999 174.60999999999996 104.57999999999998 L 172.57999999999996 105.71999999999998 C 173.91999999999996 104.01999999999998 175.60999999999996 102.63999999999999 177.53999999999996 101.65999999999998 C 174.77999999999997 101.49999999999999 171.60999999999996 102.14999999999998 169.97999999999996 104.58999999999999 C 168.35999999999996 107.02999999999999 168.26999999999995 109.78999999999999 167.37999999999997 112.38999999999999 C 166.48999999999998 114.98999999999998 163.55999999999997 114.49999999999999 161.36999999999998 114.57999999999998 C 159.57999999999998 110.10999999999999 156.65999999999997 105.79999999999998 152.10999999999999 103.84999999999998 C 149.39999999999998 102.51999999999998 146.23 102.48999999999998 143.5 103.76999999999998 C 140.49 104.98999999999998 137.89 107.33999999999997 134.56 107.25999999999998 C 131.23 107.17999999999998 130.33 104.97999999999998 129.12 102.94999999999997 C 127.9 100.91999999999997 126.93 100.75999999999998 126.03 99.53999999999998 C 125.13 98.31999999999998 125.14 98.07999999999998 124.24 98.31999999999998 C 123.35 98.55999999999997 122.44999999999999 99.04999999999998 121.72 99.53999999999998 C 119.11 100.46 117.08 102.33 114.96 103.87 z" stroke-linecap="round" />
</g>
<g transform="matrix(1 0 0 1 428.5 388.93)" style=""  >
		<text xml:space="preserve" font-family="gabriola" font-size="40" font-style="normal" font-weight="normal" style="stroke: none; stroke-width: 1; stroke-dasharray: none; stroke-linecap: butt; stroke-dashoffset: 0; stroke-linejoin: miter; stroke-miterlimit: 4; fill: rgb(201,202,204); fill-rule: nonzero; opacity: 1; white-space: pre;" ><tspan x="-133.1" y="12.57" >A</tspan><tspan x="-100.22" y="12.57" >n</tspan><tspan x="-76.22" y="12.57" >i</tspan><tspan x="-61.1" y="12.57" >m</tspan><tspan x="-25.99" y="12.57" >a</tspan><tspan x="-4.24" y="12.57" >l</tspan><tspan x="10.88" y="12.57" style="white-space: pre; "> </tspan><tspan x="24.88" y="12.57" >&amp;</tspan><tspan x="59.99" y="12.57" style="white-space: pre; "> </tspan><tspan x="73.99" y="12.57" >P</tspan><tspan x="100.24" y="12.57" >e</tspan><tspan x="121.99" y="12.57" >t</tspan></text>
</g>
</svg>