<?xml version="1.0" encoding="utf-8"?>
<!-- Generator: Adobe Illustrator 27.8.1, SVG Export Plug-In . SVG Version: 6.00 Build 0)  -->
<svg version="1.1" id="Layer_1" xmlns="http://www.w3.org/2000/svg" xmlns:xlink="http://www.w3.org/1999/xlink" x="0px" y="0px"
	 viewBox="0 0 348 228" style="enable-background:new 0 0 348 228;" xml:space="preserve">
<style type="text/css">
	.st0{fill:#D6EADE;}
	.st1{fill:#03487C;}
	.st2{fill:#1B1B4C;}
	.st3{fill-rule:evenodd;clip-rule:evenodd;fill:#204F7A;}
	.st4{fill-rule:evenodd;clip-rule:evenodd;fill:#50A4FF;}
	.st5{fill:#002649;}
	.st6{fill:#E6E7E8;stroke:#CFCFCF;stroke-width:0.1061;}
	.st7{fill:#333333;}
	.st8{fill:#0F5998;}
	.st9{fill:#277FC1;}
	.st10{fill-rule:evenodd;clip-rule:evenodd;fill:#277FC1;}
	.st11{fill-rule:evenodd;clip-rule:evenodd;fill:#083D6D;}
	.st12{fill:#DDB462;}
	
		.st13{clip-path:url(#SVGID_00000103244387317777762720000012636296351970362765_);fill:url(#SVGID_00000012473046238705292640000009118148224958412985_);}
	.st14{fill:#FFFFFF;}
	.st15{fill:url(#SVGID_00000060015699552612664460000015917457143473795482_);}
	.st16{fill:#224685;}
	.st17{fill:none;}
	.st18{fill:#FFC73B;}
	.st19{fill:#11233F;}
	.st20{fill:#5267FF;}
	.st21{fill-rule:evenodd;clip-rule:evenodd;fill:#72342E;}
	.st22{fill:#72342E;}
	.st23{fill:#FFF2E2;}
	.st24{fill:#FFF2E2;stroke:#72342E;stroke-width:0.75;stroke-miterlimit:10;}
	.st25{fill:#FFCC99;}
	.st26{fill:#469CB2;}
	.st27{fill:url(#XMLID_00000048481081746256029940000003094916255473811378_);}
	.st28{fill:url(#XMLID_00000060024721986722234990000014880972245269468293_);}
	.st29{fill:url(#XMLID_00000146485372136708325440000003139770927479761061_);}
	.st30{fill:url(#XMLID_00000011025227785268599050000001810760625187464848_);}
	.st31{fill:url(#XMLID_00000079457723227902378840000006965428223228860068_);}
	.st32{fill:url(#XMLID_00000158001522062758095980000017489692087373879739_);}
	.st33{fill:url(#XMLID_00000182505193822784504830000002275240343817607301_);}
	.st34{fill:url(#XMLID_00000114756702317902383560000005179377416789424564_);}
	.st35{fill:url(#XMLID_00000137106221764493244300000006602708115947190458_);}
	.st36{fill:url(#XMLID_00000183244057015802465050000003623556191876089746_);}
	.st37{fill:url(#XMLID_00000102542748895748834990000018330347117268156335_);}
	.st38{fill:url(#XMLID_00000023974311965265558350000017678262905831528870_);}
	.st39{fill:url(#XMLID_00000143607649804552226020000008803367519032336538_);}
	.st40{fill:url(#XMLID_00000120555111143515594430000002775366228029906615_);}
	.st41{fill:url(#XMLID_00000000188718735935270350000006281746569698767785_);}
	.st42{fill:url(#SVGID_00000142162614720586453460000015647658650478877857_);}
	.st43{fill:url(#SVGID_00000013155137300174206140000016735182635812254398_);}
	.st44{fill:url(#SVGID_00000132087269276775473750000001101804690587806095_);}
	.st45{fill:url(#SVGID_00000049921625158593431040000015836486164087826106_);}
	.st46{fill:url(#SVGID_00000175298221455246137650000010554532030440678587_);}
	.st47{fill:url(#SVGID_00000115501213457613379860000014211918220616763011_);}
	.st48{fill:url(#SVGID_00000046339280172139112240000002110057376243231664_);}
	.st49{fill:url(#SVGID_00000170270737303390635830000006383736681864121729_);}
	.st50{fill:url(#SVGID_00000015315761566281242650000008099688307981783726_);}
	.st51{fill:url(#SVGID_00000123422501171493073880000001414041678671188609_);}
	.st52{fill:url(#SVGID_00000116918166353600778130000011787396108211940279_);}
	.st53{fill:url(#SVGID_00000078014229909376024230000012512353557788489088_);}
	.st54{fill:url(#SVGID_00000123430814714573328390000003169649165041149600_);}
	.st55{fill:url(#SVGID_00000021084170177020975810000004078122707738450612_);}
	.st56{fill:#30325E;}
	.st57{fill:#FF7859;}
	.st58{fill:#FFD550;}
	.st59{fill:#00C3AD;}
	.st60{fill:#FF4653;}
	.st61{fill:#D8CE19;}
	.st62{fill:#C1E5DE;}
	.st63{fill:#FFE4D2;}
	.st64{fill:#DFF4F0;}
	.st65{fill:#A2E0EB;}
	.st66{fill:#1B3493;}
	.st67{fill:none;stroke:#FFFFFF;stroke-width:2;stroke-linecap:round;stroke-linejoin:round;stroke-miterlimit:10;}
	.st68{fill:#F15A24;}
	.st69{fill:#F7931E;}
	.st70{fill:#58595B;}
	.st71{fill:#114E15;}
	.st72{fill:#013D01;}
	.st73{fill:#E9C608;}
	.st74{fill:#043B00;}
	.st75{fill:#D8A43E;}
	.st76{clip-path:url(#SVGID_00000099625406978848347370000010328462596582562967_);}
	.st77{fill:#F49630;}
	.st78{clip-path:url(#SVGID_00000075136190344552053020000001633863267204475283_);}
	.st79{clip-path:url(#SVGID_00000029016835902778520010000008193694720273522071_);}
	.st80{clip-path:url(#SVGID_00000074406871384022149910000000130423495520973998_);}
	.st81{clip-path:url(#SVGID_00000052101737442281404270000010371108197799440562_);}
	.st82{fill-rule:evenodd;clip-rule:evenodd;fill:#FF6600;}
	.st83{fill-rule:evenodd;clip-rule:evenodd;fill:#05174F;}
	.st84{fill:#05174F;}
	.st85{opacity:0.42;fill:url(#SVGID_00000137114511872988272530000004365007182865546935_);enable-background:new    ;}
	.st86{opacity:0.42;fill:url(#SVGID_00000106835913637484359670000000492464064227593646_);enable-background:new    ;}
	.st87{fill:url(#SVGID_00000083802104873528750190000000524281228704460690_);}
	.st88{fill:url(#SVGID_00000058570029647968961670000006899405444939486136_);}
	.st89{opacity:0.64;fill:url(#SVGID_00000049944122606198119820000003249439367114925985_);enable-background:new    ;}
	.st90{opacity:0.75;fill:url(#SVGID_00000052087898629099555670000005212450427336404900_);enable-background:new    ;}
	.st91{fill:url(#SVGID_00000133509958696071689630000010494491021642254768_);}
	.st92{fill:url(#SVGID_00000166671824938073660260000015321557761662842790_);}
	.st93{opacity:0.76;fill:url(#SVGID_00000023962846666230317460000002223635583297733005_);enable-background:new    ;}
	.st94{opacity:0.75;fill:url(#SVGID_00000046311385079872764620000003696552508375385217_);enable-background:new    ;}
	.st95{fill:url(#SVGID_00000060751848629381735040000012002108803740364942_);}
	.st96{opacity:0.42;fill:url(#SVGID_00000021112236719927911590000017866448065856569216_);enable-background:new    ;}
	.st97{opacity:0.42;fill:url(#SVGID_00000079461881889253651110000001093663413259285170_);enable-background:new    ;}
	.st98{clip-path:url(#SVGID_00000150073099902063165470000000567320200333059466_);}
	.st99{fill:#1ED7FE;}
	.st100{clip-path:url(#SVGID_00000158008705137825256610000007062591253454307989_);}
	.st101{clip-path:url(#SVGID_00000109011644544137901210000007021571345016420747_);}
	.st102{fill:#000056;}
	.st103{clip-path:url(#SVGID_00000151503639753930175670000017347998329536907928_);}
	.st104{enable-background:new    ;}
	.st105{fill:#053272;}
	.st106{fill:none;stroke:#053272;stroke-width:4;stroke-miterlimit:10;}
	.st107{fill:url(#SVGID_00000121275691053971336310000017517667476637899175_);}
	.st108{fill:url(#SVGID_00000167362488590003719620000007769246163480729012_);}
	.st109{fill:url(#SVGID_00000179610361577147627940000007819929358358389168_);}
	.st110{fill:url(#SVGID_00000143576843362031428150000000601489353277602464_);}
	.st111{fill:url(#SVGID_00000029752609745958096290000011444520339722054581_);}
	.st112{fill:url(#SVGID_00000102519358032311061370000010002797948671702951_);}
	.st113{fill:url(#SVGID_00000033360101853246799430000016122420210625589646_);}
	.st114{fill:url(#SVGID_00000116958250218508197390000015727324117470961066_);}
	.st115{fill:url(#SVGID_00000104694059832312603090000010422785406975214743_);}
	.st116{fill:url(#SVGID_00000036232702127990403450000013983097811583859857_);}
	.st117{fill:url(#SVGID_00000049202487885871815410000011026933593584890778_);}
	.st118{fill:url(#SVGID_00000107549263707560250620000009476367391801421195_);}
	.st119{fill:url(#SVGID_00000119078570435542180510000002140163738321341114_);}
	.st120{fill:url(#SVGID_00000122693529000530176110000012093373906538984322_);}
	.st121{fill:url(#SVGID_00000047766929942037322780000010998899231634414468_);}
	.st122{fill:url(#SVGID_00000123434824090319000670000018045944851884833670_);}
	.st123{fill:url(#SVGID_00000051381962323758808430000016878460860013161619_);}
	.st124{fill:url(#SVGID_00000056422578922708466220000007503043434179953342_);}
	.st125{fill:url(#SVGID_00000049201305086058354080000000739009831426891142_);}
	.st126{fill:url(#SVGID_00000018921936254717854970000015516631514188235686_);}
	.st127{fill:url(#SVGID_00000098198726438672898880000015419242270159958158_);}
	.st128{fill:url(#SVGID_00000174599663285184630000000008869232685022955196_);}
	.st129{fill:url(#SVGID_00000036245144529451442030000015173110251090290836_);}
	.st130{fill:url(#SVGID_00000012439600075499761390000004997545024437607095_);}
	.st131{fill:url(#SVGID_00000158014013689130558720000017872551050951210138_);}
	.st132{fill:url(#SVGID_00000080170112865518478400000008665069827904220850_);}
	.st133{fill:url(#SVGID_00000154393233349490631370000007742199971827652273_);}
	.st134{fill:url(#SVGID_00000132086842265573822980000013115077981109847196_);}
	.st135{fill:url(#SVGID_00000041978414011742584140000005240864868574313396_);}
	.st136{fill:none;stroke:#FEF73D;stroke-linecap:round;stroke-miterlimit:10;}
	.st137{fill:none;stroke:#FF189C;stroke-miterlimit:10;}
	.st138{fill:none;stroke:#00EFF1;stroke-linecap:round;stroke-miterlimit:10;}
	.st139{fill:#00EFF1;}
	.st140{fill:#FFA022;}
	.st141{fill:#0C103A;}
	.st142{fill-rule:evenodd;clip-rule:evenodd;fill:#5D9541;}
	.st143{fill-rule:evenodd;clip-rule:evenodd;fill:#F06021;}
	.st144{fill-rule:evenodd;clip-rule:evenodd;fill:#69BC60;}
	.st145{fill-rule:evenodd;clip-rule:evenodd;fill:#F6951C;}
	.st146{fill:#F6951C;}
	.st147{fill:url(#SVGID_00000090285476831055787860000012598043341130716806_);}
	.st148{fill:url(#SVGID_00000165928705782228742750000002458913718418558115_);}
	.st149{fill:url(#SVGID_00000044864851044271998470000008756928702665871011_);}
	.st150{opacity:0.93;fill:url(#SVGID_00000103230411306913932050000009551229756875076523_);}
	.st151{opacity:0.93;fill:url(#SVGID_00000033339567040492429570000016028031731327736458_);}
	.st152{opacity:0.93;fill:url(#SVGID_00000181055239437109920150000003108094334795117243_);}
	.st153{opacity:0.93;fill:url(#SVGID_00000177486312811395319310000005842617967516350344_);}
	.st154{fill:url(#SVGID_00000165914519338070426820000001402946756174550185_);}
	.st155{fill:url(#SVGID_00000170958709034772597570000017939318850431116990_);}
	.st156{fill:url(#SVGID_00000176722318177250012570000000382506371524164791_);}
	.st157{fill:url(#SVGID_00000010285952710813376610000016021965240442064034_);}
	.st158{fill:url(#SVGID_00000091725927488270191810000005095831981824520894_);}
	.st159{fill:url(#SVGID_00000026885997922596488010000007175380820908052382_);}
	.st160{fill:url(#SVGID_00000049930910890040487060000003455436970380462259_);}
	.st161{fill:url(#SVGID_00000162344154855630795680000003404468779640408711_);}
	.st162{fill:url(#SVGID_00000060715476800918412340000001895152072280803496_);}
	.st163{fill:url(#SVGID_00000051364689617495884160000012889526527014038144_);}
	.st164{fill:url(#SVGID_00000137133225425025293880000016838923209241583800_);}
	.st165{fill:url(#SVGID_00000135665355337605752980000009716137527082292669_);}
	.st166{fill:url(#SVGID_00000169535580338888862610000013901167769074519460_);}
	.st167{fill:url(#SVGID_00000018196378374341920080000000872559942781897625_);}
	.st168{fill:url(#SVGID_00000161626085434222976300000013632051183064261802_);}
	.st169{fill:url(#SVGID_00000158001346009142757760000013595435487616608673_);}
	.st170{fill:url(#SVGID_00000128477561729484522380000014127901684680807050_);}
	.st171{fill:url(#SVGID_00000165217087465643186550000015316345988127186332_);}
	.st172{fill:url(#SVGID_00000039128218034368189550000015566572204423330727_);}
	.st173{fill:url(#SVGID_00000011729710894084102270000010303026286741784493_);}
	.st174{fill:url(#SVGID_00000158001234431925355160000009861887636033452192_);}
	.st175{fill:url(#SVGID_00000062175909712369143500000017713887424654348469_);}
	.st176{fill:url(#SVGID_00000090263552042659508360000010738391435654757035_);}
	.st177{fill:url(#SVGID_00000150809577873090502720000012184387416834196149_);}
	.st178{fill:url(#SVGID_00000101092893529741082330000009866861123715401879_);}
	.st179{fill:url(#SVGID_00000128468103357953729540000016417026527727647917_);}
	.st180{fill:url(#SVGID_00000106116429982959364480000005115840299109034122_);}
	.st181{fill:url(#SVGID_00000104682826841188947070000007932751141453812626_);}
	.st182{fill:url(#SVGID_00000091721757893177334670000003096500542932133551_);}
	.st183{fill:url(#SVGID_00000180356619698815199950000012416974542564783504_);}
	.st184{fill:url(#SVGID_00000005972162787659669260000010492013783149260720_);}
	.st185{fill:url(#SVGID_00000176749756484963916870000013262409510252051356_);}
	.st186{fill:url(#SVGID_00000093866995216397213150000003447180707268020898_);}
	.st187{fill:url(#SVGID_00000156571130973468171870000016331502025224719283_);}
	.st188{fill:url(#SVGID_00000179615441359940390900000007660154191581785766_);}
	.st189{fill:url(#SVGID_00000104674897217126545680000014949425357918105490_);}
	.st190{fill:url(#SVGID_00000039811887630867993240000014923008815012540549_);}
	.st191{fill:url(#SVGID_00000109713237903124668730000008454928984262350743_);}
	.st192{fill:url(#SVGID_00000161612212514761738580000002465447240669581982_);}
	.st193{fill:url(#SVGID_00000005960620525190927270000015210779381404879508_);}
	.st194{fill:url(#SVGID_00000005264646579224741810000016601843239908067993_);}
	.st195{fill:url(#SVGID_00000129919443935211939340000016071033695590550950_);}
	.st196{fill:url(#SVGID_00000121961382747772151050000017176113853228162442_);}
	.st197{fill:url(#SVGID_00000090272201012605571050000001232836784639514277_);}
	.st198{fill:url(#SVGID_00000122684221782836010490000003796605927976399233_);}
	.st199{fill-rule:evenodd;clip-rule:evenodd;fill:#512100;}
	.st200{fill-rule:evenodd;clip-rule:evenodd;fill:#006D62;}
	.st201{fill-rule:evenodd;clip-rule:evenodd;}
	.st202{fill-rule:evenodd;clip-rule:evenodd;fill:#00A1F5;}
	.st203{fill-rule:evenodd;clip-rule:evenodd;fill:#FACFAB;}
	.st204{fill-rule:evenodd;clip-rule:evenodd;fill:#F29673;}
	.st205{fill-rule:evenodd;clip-rule:evenodd;fill:#FFFFFF;}
	.st206{fill-rule:evenodd;clip-rule:evenodd;fill:#333333;}
	.st207{fill-rule:evenodd;clip-rule:evenodd;fill:#BD4D00;}
	.st208{fill-rule:evenodd;clip-rule:evenodd;fill:#B2B2B2;}
	.st209{fill-rule:evenodd;clip-rule:evenodd;fill:#F2CC29;}
	.st210{fill-rule:evenodd;clip-rule:evenodd;fill:#005C9C;}
	.st211{fill-rule:evenodd;clip-rule:evenodd;fill:#8AC900;}
	.st212{fill-rule:evenodd;clip-rule:evenodd;fill:#808080;}
	.st213{fill-rule:evenodd;clip-rule:evenodd;fill:#CFA605;}
	.st214{fill-rule:evenodd;clip-rule:evenodd;fill:#666666;}
	.st215{fill-rule:evenodd;clip-rule:evenodd;fill:#CCCCCC;}
	.st216{fill:#960000;}
	.st217{fill:url(#SVGID_00000002377254628815612790000014751579318959256451_);}
	.st218{fill:url(#SVGID_00000096029935699440234920000015818710273437286330_);}
	.st219{opacity:0.51;fill:url(#SVGID_00000018932060288131155260000004857364385315389593_);}
	.st220{fill:url(#SVGID_00000168801998134523841330000003304452381905142673_);}
	.st221{fill:url(#SVGID_00000013182956823383872040000011189629223812299907_);}
	.st222{fill:url(#SVGID_00000025427485780758698290000015460946144125257643_);}
	.st223{opacity:0.35;fill:url(#SVGID_00000053526156424928397940000010733535448046746548_);}
	.st224{opacity:0.35;fill:url(#SVGID_00000061468522963002903840000014893993773117897112_);}
	.st225{fill:#F06021;}
	.st226{fill-rule:evenodd;clip-rule:evenodd;fill:url(#SVGID_00000152972539744004713880000011888173767128410009_);}
	.st227{fill-rule:evenodd;clip-rule:evenodd;fill:url(#SVGID_00000176736763492128284770000003243128236853352864_);}
	.st228{fill-rule:evenodd;clip-rule:evenodd;fill:url(#SVGID_00000065043751719180993080000009222227050857628351_);}
	.st229{fill-rule:evenodd;clip-rule:evenodd;fill:url(#SVGID_00000172408280870522790390000013063943867741224620_);}
	.st230{fill-rule:evenodd;clip-rule:evenodd;fill:url(#SVGID_00000147189320526301751030000001360736868205203129_);}
	.st231{fill-rule:evenodd;clip-rule:evenodd;fill:url(#SVGID_00000052812243161538461520000007789147958191303340_);}
	.st232{fill-rule:evenodd;clip-rule:evenodd;fill:url(#SVGID_00000153667944336081668310000016490717451177200047_);}
	.st233{fill-rule:evenodd;clip-rule:evenodd;fill:url(#SVGID_00000132085055826192921570000015704301018735017111_);}
	.st234{fill-rule:evenodd;clip-rule:evenodd;fill:url(#SVGID_00000026847572313111471330000006510486741811629243_);}
	.st235{fill-rule:evenodd;clip-rule:evenodd;fill:url(#SVGID_00000121243096914342026080000015600048565413292432_);}
	.st236{fill-rule:evenodd;clip-rule:evenodd;fill:url(#SVGID_00000025407588928472035770000008099726137373644697_);}
	.st237{fill-rule:evenodd;clip-rule:evenodd;fill:url(#SVGID_00000023274625298001865980000003142068851372472733_);}
	.st238{fill-rule:evenodd;clip-rule:evenodd;fill:url(#SVGID_00000043441357326427528260000001437361030772936610_);}
	.st239{opacity:0.5;fill-rule:evenodd;clip-rule:evenodd;fill:#5D0101;enable-background:new    ;}
	.st240{fill:#E11B22;}
	.st241{fill:#959595;}
	.st242{fill:#003359;}
	.st243{fill:#1779C1;}
	.st244{fill:#0EB17C;}
	.st245{fill:#2B2353;}
	.st246{fill:#BE264E;}
	.st247{fill:#EAA41C;}
	.st248{fill:#1F9EF3;}
	.st249{fill:#0267A3;}
	.st250{fill:#FFEC00;}
	.st251{fill:#00A0E0;}
	.st252{fill:#E3007E;}
	.st253{fill:none;stroke:#000000;stroke-width:2;stroke-miterlimit:10;}
	.st254{fill:#FF9E80;}
	.st255{fill:#414151;}
	.st256{fill:#2B295E;}
	.st257{fill:#CCCCCC;}
	.st258{fill:#FF8C5C;}
	.st259{fill:#DBA21C;}
	.st260{fill:#EDDBB2;}
	.st261{fill:#DEC58B;}
	.st262{fill:#997113;}
	.st263{fill:#B88817;}
	.st264{fill:#003400;stroke:#8EC13D;stroke-width:4;stroke-miterlimit:10;}
	.st265{fill:#8EC13D;}
	.st266{fill:url(#XMLID_00000017514960706223167020000000721204270435958968_);}
	.st267{fill:url(#SVGID_00000059284943503871640510000008281110344992783768_);}
	.st268{fill:url(#SVGID_00000129904381391127005940000009284631510319154312_);}
	.st269{fill:url(#SVGID_00000052076521501857841610000004825843390005986995_);}
	.st270{fill:url(#SVGID_00000041986138757251538140000001089148331349306027_);}
	.st271{fill:url(#SVGID_00000167371615939749727860000006442462442281204650_);}
	.st272{fill:url(#SVGID_00000035501085366716680280000013699870332898306954_);}
	.st273{fill:url(#SVGID_00000011746836021436771950000011790054119021284026_);}
	.st274{fill:url(#SVGID_00000175311185786723617800000007166206145324085680_);}
	.st275{fill:url(#SVGID_00000119834476505840768980000017807461792350956176_);}
	.st276{fill:url(#SVGID_00000062875918937406082280000015337636628401032365_);}
	.st277{fill:url(#SVGID_00000173868221343016588570000002058017894214826384_);}
	.st278{fill:#1C75BC;}
	.st279{fill:#46920C;}
	.st280{fill:#FF9400;}
	.st281{fill:url(#SVGID_00000101072764756730863060000016892801889541245320_);}
	.st282{fill:url(#SVGID_00000050664507975025978370000016511317619813148324_);}
	.st283{fill:url(#SVGID_00000056394732890616513540000001335471676229665464_);}
	.st284{fill:url(#SVGID_00000145024316646207236280000011414051312177728146_);}
	.st285{fill:url(#SVGID_00000041997352488036004680000012438450565775900056_);}
	.st286{fill:url(#SVGID_00000002384200348659981020000002791147630509641877_);}
	.st287{fill:url(#SVGID_00000037689783240844182470000000303278604982824633_);}
	.st288{fill:url(#SVGID_00000044875901184648853680000005745829350509873573_);}
	.st289{fill:url(#SVGID_00000162328631724325811580000012889699137257526184_);}
	.st290{fill:url(#SVGID_00000139269958745754314700000005807771003514155663_);}
	.st291{fill:url(#SVGID_00000013163060939397353550000012394206215520298149_);}
	.st292{fill:url(#SVGID_00000032636894405555690170000004768492554944263058_);}
	.st293{fill:url(#SVGID_00000183208073749181782840000003732275179739053974_);}
	.st294{fill:url(#SVGID_00000059996039371848595930000002456218192879692947_);}
	.st295{fill:url(#SVGID_00000041296490361262185870000003469298508869783175_);}
	.st296{fill:url(#SVGID_00000028326741022176902650000006271033240603480746_);}
	.st297{fill:url(#SVGID_00000019662903277195320380000016886443591570329762_);}
	.st298{fill:url(#SVGID_00000036933755692661675070000008229918106245681033_);}
	.st299{fill:url(#SVGID_00000075881794797202207800000006131746897868400769_);}
	.st300{fill:#2F3F67;}
	.st301{fill:#C97F32;}
	.st302{fill:none;stroke:#C97F32;stroke-width:1.2891;stroke-miterlimit:10;}
	.st303{fill:url(#XMLID_00000111893947944954641000000007554187376853544834_);}
	.st304{fill:#00548B;}
	.st305{fill:#004368;}
	.st306{fill:#94070A;}
	.st307{fill:url(#XMLID_00000118363495789418113990000015424619097133999238_);}
	.st308{fill:url(#XMLID_00000143612671679415172000000014303140802542716290_);}
	.st309{fill:#B34A06;}
	.st310{fill:#A2B5C4;}
	.st311{fill:#192940;}
</style>
<g>
	<g>
		<g>
			<g>
				<path class="st278" d="M73.56,160.56l-9.99,25.43h4.63c0.56,0,1.05-0.17,1.46-0.49c0.38-0.3,0.64-0.66,0.77-1.04l1.58-4.32h8.72
					l1.59,4.33c0.16,0.42,0.43,0.78,0.8,1.07c0.39,0.3,0.88,0.46,1.45,0.46h4.62l-9.99-25.43H73.56z M76.24,168.6
					c0.05-0.12,0.1-0.26,0.15-0.39c0.04,0.12,0.09,0.23,0.13,0.34l2.5,6.82h-5.26L76.24,168.6z"/>
				<path class="st278" d="M105.96,178.75c-0.27,0-0.52,0.06-0.76,0.18c-0.19,0.09-0.36,0.22-0.53,0.36
					c-0.32,0.29-0.65,0.54-0.97,0.74c-0.32,0.19-0.66,0.35-1.01,0.48c-0.36,0.12-0.76,0.22-1.19,0.28
					c-0.45,0.06-0.96,0.09-1.53,0.09c-0.89,0-1.74-0.17-2.51-0.5c-0.77-0.33-1.44-0.81-2.01-1.44c-0.57-0.63-1.04-1.43-1.38-2.36
					c-0.34-0.95-0.52-2.06-0.52-3.29c0-1.19,0.17-2.28,0.52-3.22c0.34-0.93,0.81-1.73,1.41-2.37c0.59-0.64,1.31-1.13,2.14-1.47
					c0.83-0.35,1.77-0.52,2.77-0.52c0.87,0,1.58,0.09,2.12,0.26c0.56,0.18,1.03,0.37,1.38,0.57c0.37,0.21,0.68,0.41,0.92,0.59
					c0.41,0.3,0.83,0.46,1.26,0.46c0.41,0,0.76-0.1,1.04-0.3c0.21-0.15,0.39-0.33,0.53-0.54l1.88-2.61l-0.49-0.49
					c-1.01-1-2.24-1.81-3.65-2.42c-1.42-0.61-3.08-0.91-4.95-0.91c-1.91,0-3.68,0.32-5.26,0.96c-1.59,0.64-2.98,1.54-4.13,2.69
					c-1.15,1.15-2.05,2.53-2.68,4.12c-0.63,1.58-0.95,3.33-0.95,5.21c0,1.85,0.28,3.59,0.85,5.16c0.57,1.59,1.4,2.98,2.47,4.13
					c1.07,1.15,2.38,2.07,3.89,2.71c1.5,0.64,3.22,0.97,5.09,0.97c2.08,0,3.9-0.35,5.41-1.03c1.52-0.69,2.82-1.69,3.86-2.98
					l0.44-0.55l-2.23-2.42C106.85,178.93,106.43,178.75,105.96,178.75z"/>
				<path class="st278" d="M117.56,167.69c0.59-0.64,1.31-1.13,2.14-1.47c0.83-0.35,1.77-0.52,2.77-0.52c0.87,0,1.58,0.09,2.12,0.26
					c0.56,0.18,1.03,0.37,1.38,0.57c0.37,0.21,0.68,0.41,0.92,0.59c0.41,0.3,0.83,0.46,1.26,0.46c0.41,0,0.76-0.1,1.04-0.3
					c0.21-0.15,0.39-0.33,0.53-0.54l1.88-2.61l-0.49-0.49c-1.01-1-2.24-1.81-3.65-2.42c-1.42-0.61-3.08-0.91-4.95-0.91
					c-1.91,0-3.68,0.32-5.26,0.96c-1.59,0.64-2.98,1.54-4.13,2.69c-1.15,1.15-2.05,2.53-2.68,4.12c-0.63,1.58-0.95,3.33-0.95,5.21
					c0,1.85,0.28,3.59,0.85,5.16c0.57,1.59,1.4,2.98,2.47,4.13c1.07,1.15,2.38,2.07,3.89,2.71c1.5,0.64,3.22,0.97,5.08,0.97
					c2.08,0,3.9-0.35,5.41-1.03c1.52-0.69,2.82-1.69,3.86-2.98l0.44-0.55l-2.23-2.42c-0.33-0.35-0.75-0.54-1.22-0.54
					c-0.27,0-0.52,0.06-0.76,0.18c-0.19,0.09-0.36,0.22-0.53,0.36c-0.32,0.29-0.65,0.54-0.97,0.74c-0.32,0.19-0.66,0.35-1.01,0.48
					c-0.36,0.12-0.76,0.22-1.19,0.28c-0.45,0.06-0.96,0.09-1.53,0.09c-0.89,0-1.74-0.17-2.51-0.5c-0.77-0.33-1.44-0.81-2.01-1.44
					c-0.57-0.63-1.04-1.43-1.38-2.36c-0.34-0.95-0.52-2.06-0.52-3.29c0-1.19,0.17-2.28,0.52-3.22
					C116.49,169.13,116.96,168.33,117.56,167.69z"/>
				<path class="st278" d="M153.83,164.01c-1.13-1.16-2.5-2.07-4.07-2.73c-1.57-0.65-3.33-0.98-5.23-0.98
					c-1.9,0-3.66,0.33-5.24,0.97c-1.58,0.65-2.96,1.57-4.09,2.73c-1.13,1.16-2.02,2.55-2.64,4.13c-0.62,1.57-0.93,3.31-0.93,5.14
					c0,1.84,0.31,3.57,0.93,5.14c0.62,1.58,1.51,2.97,2.64,4.13c1.13,1.16,2.51,2.08,4.09,2.73c1.58,0.65,3.34,0.97,5.24,0.97
					c1.9,0,3.66-0.33,5.23-0.97c1.58-0.65,2.95-1.57,4.08-2.73c1.12-1.16,2.01-2.55,2.63-4.13c0.62-1.57,0.93-3.31,0.93-5.14
					c0-1.84-0.31-3.57-0.93-5.14C155.84,166.55,154.96,165.16,153.83,164.01z M144.53,180.84c-1.05,0-2.01-0.17-2.83-0.51
					c-0.82-0.34-1.52-0.82-2.09-1.45c-0.57-0.63-1.02-1.42-1.34-2.35c-0.32-0.95-0.48-2.04-0.48-3.25s0.16-2.31,0.48-3.25
					c0.31-0.93,0.76-1.72,1.34-2.36c0.57-0.63,1.27-1.12,2.08-1.45c0.83-0.34,1.78-0.51,2.83-0.51c1.05,0,2,0.17,2.82,0.51
					c0.81,0.34,1.5,0.82,2.07,1.45c0.57,0.64,1.02,1.43,1.32,2.36c0.32,0.95,0.48,2.05,0.48,3.26c0,1.21-0.16,2.31-0.48,3.26
					c-0.31,0.93-0.75,1.72-1.32,2.35c-0.56,0.62-1.26,1.11-2.07,1.45C146.53,180.67,145.58,180.84,144.53,180.84z"/>
				<path class="st278" d="M174.28,175.63c0,0.82-0.11,1.56-0.33,2.21c-0.21,0.63-0.51,1.16-0.9,1.59c-0.39,0.43-0.86,0.76-1.42,1
					c-0.57,0.24-1.24,0.36-1.98,0.36c-0.74,0-1.41-0.12-1.98-0.36c-0.57-0.24-1.03-0.57-1.41-1c-0.39-0.44-0.69-0.98-0.9-1.6
					c-0.22-0.65-0.33-1.39-0.33-2.21v-15.05h-6.05v15.07c0,1.51,0.25,2.93,0.74,4.21c0.49,1.3,1.21,2.44,2.14,3.39
					c0.93,0.95,2.06,1.7,3.38,2.23c1.31,0.52,2.8,0.79,4.42,0.79c1.62,0,3.11-0.27,4.42-0.79c1.32-0.53,2.46-1.28,3.39-2.23
					c0.93-0.95,1.65-2.09,2.15-3.39c0.49-1.29,0.74-2.71,0.74-4.21v-15.07h-6.05L174.28,175.63L174.28,175.63z"/>
				<path class="st278" d="M199.4,175.5l-10.92-13.92c-0.15-0.19-0.28-0.34-0.41-0.46c-0.16-0.15-0.33-0.27-0.51-0.36
					c-0.18-0.09-0.38-0.14-0.6-0.17c-0.17-0.02-0.36-0.03-0.6-0.03h-3.13v25.43h5.53v-14.94l10.89,13.87
					c0.3,0.39,0.62,0.67,0.97,0.83c0.34,0.16,0.75,0.24,1.22,0.24h3.1v-25.43h-5.53L199.4,175.5L199.4,175.5z"/>
				<polygon class="st278" points="206.09,165.82 213.29,165.82 213.29,185.99 219.34,185.99 219.34,165.82 226.5,165.82 
					226.5,160.56 206.09,160.56 				"/>
				<rect x="228.23" y="160.56" class="st278" width="6.07" height="25.43"/>
				<path class="st278" d="M254.2,175.5l-10.92-13.92c-0.15-0.19-0.28-0.34-0.41-0.46c-0.16-0.15-0.33-0.27-0.51-0.36
					c-0.18-0.09-0.38-0.14-0.6-0.17c-0.17-0.02-0.36-0.03-0.6-0.03h-3.13v25.43h5.53v-14.94l10.89,13.87
					c0.3,0.39,0.62,0.67,0.97,0.83c0.34,0.16,0.75,0.24,1.22,0.24h3.1v-25.43h-5.53L254.2,175.5L254.2,175.5z"/>
				<path class="st278" d="M274.66,175.74c0,0.45,0.17,0.86,0.49,1.17c0.22,0.21,0.61,0.47,1.24,0.47h2.17v2.99
					c-0.48,0.2-0.98,0.36-1.49,0.49c-0.67,0.16-1.49,0.25-2.42,0.25c-1.02,0-1.97-0.18-2.82-0.52c-0.84-0.34-1.58-0.84-2.18-1.49
					c-0.61-0.65-1.1-1.47-1.44-2.43c-0.35-0.98-0.53-2.11-0.53-3.39c0-1.17,0.17-2.25,0.5-3.19c0.32-0.92,0.79-1.72,1.38-2.37
					c0.59-0.64,1.31-1.15,2.14-1.49c0.85-0.35,1.81-0.53,2.87-0.53c0.67,0,1.27,0.05,1.77,0.14c0.51,0.09,0.97,0.21,1.37,0.35
					c0.39,0.14,0.76,0.3,1.08,0.48c0.36,0.2,0.71,0.41,1.05,0.61c0.4,0.25,0.82,0.38,1.23,0.38c0.69,0,1.3-0.35,1.69-0.98l1.65-2.58
					l-0.49-0.46c-1.06-0.99-2.36-1.8-3.86-2.41c-1.51-0.61-3.31-0.92-5.35-0.92c-1.99,0-3.82,0.32-5.43,0.94
					c-1.62,0.63-3.03,1.54-4.17,2.69c-1.14,1.15-2.04,2.54-2.66,4.13c-0.62,1.58-0.93,3.34-0.93,5.22c0,1.86,0.32,3.61,0.96,5.19
					c0.64,1.59,1.53,2.97,2.67,4.12c1.14,1.15,2.5,2.06,4.05,2.7c1.55,0.64,3.27,0.97,5.1,0.97c1,0,1.96-0.05,2.83-0.16
					c0.88-0.11,1.72-0.28,2.5-0.49c0.79-0.22,1.54-0.51,2.23-0.85c0.69-0.34,1.36-0.75,2-1.21l0.33-0.24v-10.86h-9.54L274.66,175.74
					L274.66,175.74z"/>
			</g>
		</g>
		<g>
			<path class="st279" d="M102.32,192.58l0.63,1.15l-2.11,3.81h-1.26L102.32,192.58z M106.95,197.53h-1.27l-2.42-4.38l-0.63-1.14
				l0.63-1.14l0,0l0.63,1.14L106.95,197.53z"/>
			<path class="st279" d="M113.76,197.53h-1.12l-1.91-3.14l-0.05-0.09c0,0-0.01,0-0.01,0c-0.02,0-0.03,0.01-0.05,0.01
				c-0.01,0-0.01,0-0.02,0c-0.02,0.01-0.05,0.01-0.07,0.02c-0.06,0.01-0.11,0.02-0.17,0.04c-0.02,0-0.03,0-0.05,0.01
				c-0.01,0-0.02,0-0.03,0c-0.02,0-0.04,0.01-0.06,0.01c-0.01,0-0.02,0-0.03,0c-0.02,0-0.05,0-0.07,0.01c-0.03,0-0.06,0-0.08,0.01
				c0,0,0,0,0,0c-0.03,0-0.05,0-0.08,0c0,0-0.01,0-0.01,0c-0.02,0-0.04,0-0.06,0c-0.01,0-0.02,0-0.04,0c-0.02,0-0.05,0-0.07,0h-1.23
				v3.1h-0.96v-6.66h5.51c0.01,0.08,0.01,0.16,0.01,0.23c0,0.25-0.03,0.49-0.08,0.72c-0.14,0.63-0.46,1.2-0.91,1.64
				c-0.04,0.04-0.08,0.08-0.13,0.12c-0.01,0.01-0.03,0.03-0.04,0.04c0,0,0,0-0.01,0c-0.02,0.02-0.04,0.03-0.06,0.05
				c-0.01,0.01-0.03,0.02-0.04,0.03c-0.01,0.01-0.02,0.02-0.03,0.02c-0.04,0.03-0.07,0.06-0.11,0.08c-0.02,0.01-0.04,0.03-0.05,0.04
				c0,0,0,0,0,0c-0.02,0.01-0.03,0.02-0.05,0.03c0,0-0.01,0-0.01,0.01c-0.01,0-0.01,0.01-0.02,0.01l0.11,0.19L113.76,197.53z
				 M111.43,192.79c0.27-0.27,0.48-0.6,0.59-0.96h-3.49v1.64h1.23c0.33,0,0.65-0.07,0.94-0.19
				C110.98,193.16,111.22,193,111.43,192.79z"/>
			<path class="st279" d="M113.84,191.85v-0.96h5.92v0.96H113.84z M116.27,197.53v-5.2h0.96v5.2H116.27z"/>
			<path class="st279" d="M128.41,190.88c1.84,0,3.32,1.49,3.32,3.32c0,1.84-1.49,3.32-3.32,3.32c-1.83,0-3.32-1.49-3.32-3.32
				C125.09,192.37,126.58,190.88,128.41,190.88z M126.05,194.21c0,1.3,1.06,2.37,2.37,2.37c1.3,0,2.37-1.06,2.37-2.37
				c0-1.3-1.06-2.37-2.37-2.37C127.11,191.84,126.05,192.9,126.05,194.21z"/>
			<path class="st279" d="M132.69,191.85v-0.96h5.87v0.96H132.69z M133.65,193.49h4.27v0.96h-4.27v3.08h-0.96v-5.2h0.96V193.49z"/>
			<path class="st279" d="M143.89,191.85v-0.96h5.87v0.96H143.89z M144.85,193.49h4.27v0.96h-4.27v3.08h-0.96v-5.2h0.96V193.49z"/>
			<path class="st279" d="M150.72,197.53v-6.65h0.96v6.65H150.72z M150.72,190.88v6.65h0.96v-6.65H150.72z M151.65,190.91h-0.89
				v6.59h0.89V190.91z"/>
			<path class="st279" d="M157.9,190.89v6.61l-0.96-0.96l-3.35-3.36v0l-0.96-0.96v-1.35l4.31,4.31v-4.3H157.9z M152.63,192.91
				l0.96,0.96v3.67h-0.96V192.91z"/>
			<path class="st279" d="M161.38,192.58l0.63,1.15l-2.11,3.81h-1.26L161.38,192.58z M166.02,197.53h-1.27l-2.42-4.38l-0.63-1.14
				l0.63-1.14l0,0l0.63,1.14L166.02,197.53z"/>
			<path class="st279" d="M171.81,190.89v6.61l-0.96-0.96l-3.35-3.36v0l-0.96-0.96v-1.35l4.31,4.31v-4.3H171.81z M166.54,192.91
				l0.96,0.96v3.67h-0.96V192.91z"/>
			<path class="st279" d="M178.02,195.23h1.03c-0.43,1.34-1.69,2.3-3.17,2.3c-1.67,0-3.06-1.23-3.3-2.84
				c-0.02-0.16-0.04-0.32-0.04-0.49c0-0.16,0.01-0.32,0.03-0.47c0.23-1.62,1.62-2.86,3.3-2.86c1.52,0,2.8,1.02,3.2,2.4h-1.02
				c-0.36-0.85-1.21-1.45-2.19-1.45c-1.15,0-2.11,0.82-2.33,1.9c-0.03,0.15-0.05,0.31-0.05,0.47c0,0.17,0.02,0.33,0.05,0.49
				c0.23,1.08,1.18,1.88,2.32,1.88C176.82,196.57,177.64,196.02,178.02,195.23z"/>
			<path class="st279" d="M180.15,197.53v-6.65h0.96v6.65H180.15z M180.15,190.88v6.65h0.96v-6.65H180.15z M181.08,190.91h-0.89
				v6.59h0.89V190.91z"/>
			<path class="st279" d="M185.02,192.58l0.63,1.15l-2.11,3.81h-1.26L185.02,192.58z M189.66,197.53h-1.27l-2.42-4.38l-0.63-1.14
				l0.63-1.14l0,0l0.63,1.14L189.66,197.53z"/>
			<path class="st279" d="M195.79,196.57v0.96h-5.17v-6.69h0.96v5.73H195.79z"/>
			<path class="st279" d="M207.03,195.62c0,0.34-0.09,0.65-0.24,0.92c-0.33,0.58-0.95,0.98-1.67,0.98c-0.08,0-0.17-0.01-0.25-0.02
				c-0.08,0.01-0.16,0.02-0.25,0.02h-3.52v-5.19h0.96v1.36h2.72c0.45-0.08,0.79-0.46,0.79-0.93c0-0.45-0.32-0.83-0.74-0.92h-3.73
				v-0.98h3.52c0.71,0,1.32,0.39,1.65,0.96c0,0.01,0.01,0.02,0.01,0.02c0.15,0.27,0.24,0.59,0.24,0.92c0,0.34-0.09,0.66-0.24,0.93
				c0,0-0.01,0.01-0.01,0.01c-0.05,0.09-0.12,0.18-0.19,0.27c0.1,0.06,0.2,0.13,0.29,0.21c0.16,0.14,0.3,0.31,0.4,0.5
				C206.95,194.97,207.03,195.29,207.03,195.62z M206.07,195.62c0-0.46-0.33-0.85-0.77-0.93h-3.24v1.85h3.26
				C205.75,196.46,206.07,196.08,206.07,195.62z"/>
			<path class="st279" d="M209.75,192.58l0.63,1.15l-2.11,3.81h-1.26L209.75,192.58z M214.39,197.53h-1.27l-2.42-4.38l-0.63-1.14
				l0.63-1.14l0,0l0.63,1.14L214.39,197.53z"/>
			<path class="st279" d="M220.52,196.57v0.96h-5.17v-6.69h0.96v5.73H220.52z"/>
			<path class="st279" d="M223.77,192.58l0.63,1.15l-2.11,3.81h-1.26L223.77,192.58z M228.41,197.53h-1.27l-2.42-4.38l-0.63-1.14
				l0.63-1.14l0,0l0.63,1.14L228.41,197.53z"/>
			<path class="st279" d="M234.2,190.89v6.61l-0.96-0.96l-3.35-3.36v0l-0.96-0.96v-1.35l4.31,4.31v-4.3H234.2z M228.93,192.91
				l0.96,0.96v3.67h-0.96V192.91z"/>
			<path class="st279" d="M240.41,195.23h1.03c-0.43,1.34-1.69,2.3-3.17,2.3c-1.67,0-3.06-1.23-3.3-2.84
				c-0.02-0.16-0.04-0.32-0.04-0.49c0-0.16,0.01-0.32,0.03-0.47c0.23-1.62,1.62-2.86,3.3-2.86c1.52,0,2.8,1.02,3.2,2.4h-1.02
				c-0.36-0.85-1.21-1.45-2.19-1.45c-1.15,0-2.11,0.82-2.33,1.9c-0.03,0.15-0.05,0.31-0.05,0.47c0,0.17,0.02,0.33,0.05,0.49
				c0.23,1.08,1.18,1.88,2.32,1.88C239.21,196.57,240.03,196.02,240.41,195.23z"/>
			<path class="st279" d="M248.63,190.89v0.96h-5.87v-0.96H248.63z M243.72,196.57h4.91v0.96h-5.87v-5.2h0.96v1.16h4.27v0.96h-4.27
				V196.57z"/>
		</g>
	</g>
	<g>
		<g>
			<path class="st278" d="M135.85,104.96L140,88.79c2.99-11.79,6.28-25.63,9.17-38.1h0.73c2.83,12.41,6.4,26.16,9.38,37.92
				c4.69-3.66,9.89-7.63,15.42-11.73c1.61-1.2,3.21-2.37,4.79-3.52l-13.36-42.89h-32.05l-19.86,63.75
				C120.93,96.34,128.74,99.69,135.85,104.96z"/>
			<path class="st280" d="M121.4,118.55c-4.37-4.99-8.04-8.8-11.11-11.72l-13.01,41.76h27.36l5.15-20.04
				C127.32,125.48,124.45,122.02,121.4,118.55z"/>
			<path class="st280" d="M165.16,111.73l9.4,36.86h28.34l-17.5-56.19C178.21,98.91,171.29,105.46,165.16,111.73z"/>
		</g>
		<path class="st279" d="M97.29,94.11c0,0,23.64,1.89,40.19,16.55c0,0,66.91-57.35,113.24-76.26c0,0-94.33,70.59-109.93,102.74
			C140.78,137.14,110.52,96,97.29,94.11z"/>
	</g>
</g>
</svg>
