<?xml version="1.0" encoding="utf-8"?>
<!-- Generator: Adobe Illustrator 27.8.1, SVG Export Plug-In . SVG Version: 6.00 Build 0)  -->
<svg version="1.1" id="Layer_1" xmlns="http://www.w3.org/2000/svg" xmlns:xlink="http://www.w3.org/1999/xlink" x="0px" y="0px"
	 viewBox="0 0 348 228" style="enable-background:new 0 0 348 228;" xml:space="preserve">
<style type="text/css">
	.st0{fill:#D6EADE;}
	.st1{fill:#03487C;}
	.st2{fill:#1B1B4C;}
	.st3{fill-rule:evenodd;clip-rule:evenodd;fill:#204F7A;}
	.st4{fill-rule:evenodd;clip-rule:evenodd;fill:#50A4FF;}
	.st5{fill:#002649;}
	.st6{fill:#E6E7E8;stroke:#CFCFCF;stroke-width:0.1061;}
	.st7{fill:#333333;}
	.st8{fill:#0F5998;}
	.st9{fill:#277FC1;}
	.st10{fill-rule:evenodd;clip-rule:evenodd;fill:#277FC1;}
	.st11{fill-rule:evenodd;clip-rule:evenodd;fill:#083D6D;}
	.st12{fill:#DDB462;}
	
		.st13{clip-path:url(#SVGID_00000054229767215245137890000001236923025586519199_);fill:url(#SVGID_00000139985155638614318260000000621247064262597263_);}
	.st14{fill:#FFFFFF;}
	.st15{fill:url(#SVGID_00000062187321816064089550000010148413760177457817_);}
	.st16{fill:#224685;}
	.st17{fill:none;}
	.st18{fill:#FFC73B;}
	.st19{fill:#11233F;}
	.st20{fill:#5267FF;}
	.st21{fill-rule:evenodd;clip-rule:evenodd;fill:#72342E;}
	.st22{fill:#72342E;}
	.st23{fill:#FFF2E2;}
	.st24{fill:#FFF2E2;stroke:#72342E;stroke-width:0.75;stroke-miterlimit:10;}
	.st25{fill:#FFCC99;}
	.st26{fill:#469CB2;}
	.st27{fill:url(#XMLID_00000013904214136603682780000002827815665154155144_);}
	.st28{fill:url(#XMLID_00000025401656673708837520000007898002551369042864_);}
	.st29{fill:url(#XMLID_00000114068888184444748960000009172234838363861640_);}
	.st30{fill:url(#XMLID_00000027606908526848583630000000196365948793950873_);}
	.st31{fill:url(#XMLID_00000070094446337093357000000000230329421186821820_);}
	.st32{fill:url(#XMLID_00000039134366616744769440000016036690268415675782_);}
	.st33{fill:url(#XMLID_00000093146201905109696230000002113696541631026600_);}
	.st34{fill:url(#XMLID_00000145056756699818749080000008770248795178131858_);}
	.st35{fill:url(#XMLID_00000079458683979041614090000015002538486048059521_);}
	.st36{fill:url(#XMLID_00000048470274033095907840000016348084192271893389_);}
	.st37{fill:url(#XMLID_00000167388411541893357470000017521494519198409610_);}
	.st38{fill:url(#XMLID_00000107572171868901232450000008946836303882207901_);}
	.st39{fill:url(#XMLID_00000106861131982490942660000005044354837511310773_);}
	.st40{fill:url(#XMLID_00000122715165638683910530000008718535869011807407_);}
	.st41{fill:url(#XMLID_00000156588802996528569560000001846431270370101946_);}
	.st42{fill:url(#SVGID_00000132068594007399730510000010482083888285397174_);}
	.st43{fill:url(#SVGID_00000170974680799607020860000005853337923017406889_);}
	.st44{fill:url(#SVGID_00000165925410003811011080000003829546155930997425_);}
	.st45{fill:url(#SVGID_00000147909860806000606980000012482429022568196503_);}
	.st46{fill:url(#SVGID_00000078025029535726425960000006692147629845881221_);}
	.st47{fill:url(#SVGID_00000140694094062170955820000011016987186805604003_);}
	.st48{fill:url(#SVGID_00000042702902395772827060000004070027869715233718_);}
	.st49{fill:url(#SVGID_00000089553631366736677850000016501796989752568765_);}
	.st50{fill:url(#SVGID_00000082330503018971970530000011701639468392474246_);}
	.st51{fill:url(#SVGID_00000031166362032842474650000009233822608486846653_);}
	.st52{fill:url(#SVGID_00000127020442076724024530000011038045106999640511_);}
	.st53{fill:url(#SVGID_00000052100982690655466270000014009229230653692067_);}
	.st54{fill:url(#SVGID_00000072277098971032253430000015534143861831139200_);}
	.st55{fill:url(#SVGID_00000112594599688245670890000004074401555638844049_);}
	.st56{fill:#30325E;}
	.st57{fill:#FF7859;}
	.st58{fill:#FFD550;}
	.st59{fill:#00C3AD;}
	.st60{fill:#FF4653;}
	.st61{fill:#D8CE19;}
	.st62{fill:#C1E5DE;}
	.st63{fill:#FFE4D2;}
	.st64{fill:#DFF4F0;}
	.st65{fill:#A2E0EB;}
	.st66{fill:#1B3493;}
	.st67{fill:none;stroke:#FFFFFF;stroke-width:2;stroke-linecap:round;stroke-linejoin:round;stroke-miterlimit:10;}
	.st68{fill:#F15A24;}
	.st69{fill:#F7931E;}
	.st70{fill:#58595B;}
	.st71{fill:#114E15;}
	.st72{fill:#013D01;}
	.st73{fill:#E9C608;}
	.st74{fill:#043B00;}
	.st75{fill:#D8A43E;}
	.st76{clip-path:url(#SVGID_00000029021615154852086970000015425411435359131527_);}
	.st77{fill:#F49630;}
	.st78{clip-path:url(#SVGID_00000067941321918608949260000006632238624968175250_);}
	.st79{clip-path:url(#SVGID_00000178207375789938871270000003664167117134709913_);}
	.st80{clip-path:url(#SVGID_00000128470540348870325790000016149214147636555699_);}
	.st81{clip-path:url(#SVGID_00000000195613912040977000000002101660804983249546_);}
	.st82{fill-rule:evenodd;clip-rule:evenodd;fill:#FF6600;}
	.st83{fill-rule:evenodd;clip-rule:evenodd;fill:#05174F;}
	.st84{fill:#05174F;}
	.st85{opacity:0.42;fill:url(#SVGID_00000106826405531371633400000016022495571096734363_);enable-background:new    ;}
	.st86{opacity:0.42;fill:url(#SVGID_00000085217711431242488280000010909259264448156079_);enable-background:new    ;}
	.st87{fill:url(#SVGID_00000035522727189644513740000018114146659596424891_);}
	.st88{fill:url(#SVGID_00000154410679128018005870000007321180936029105293_);}
	.st89{opacity:0.64;fill:url(#SVGID_00000032616944835695137120000017576448170788657335_);enable-background:new    ;}
	.st90{opacity:0.75;fill:url(#SVGID_00000004534247106292984090000003471072623268415125_);enable-background:new    ;}
	.st91{fill:url(#SVGID_00000055702381110206587730000014982447761217899141_);}
	.st92{fill:url(#SVGID_00000094576161206624368290000000422974474693621674_);}
	.st93{opacity:0.76;fill:url(#SVGID_00000120549404648060261710000017526881341871379085_);enable-background:new    ;}
	.st94{opacity:0.75;fill:url(#SVGID_00000016779732630895009890000000000516015460962230_);enable-background:new    ;}
	.st95{fill:url(#SVGID_00000143603035272188537860000006416634238303523726_);}
	.st96{opacity:0.42;fill:url(#SVGID_00000052819745845671780840000017263785807895535038_);enable-background:new    ;}
	.st97{opacity:0.42;fill:url(#SVGID_00000013188048051261620270000009024338225886288549_);enable-background:new    ;}
	.st98{clip-path:url(#SVGID_00000052798640089795596180000004918950758868251826_);}
	.st99{fill:#1ED7FE;}
	.st100{clip-path:url(#SVGID_00000093141115763312234120000000920565803092043147_);}
	.st101{clip-path:url(#SVGID_00000006680356831492523540000015558277762455278732_);}
	.st102{fill:#000056;}
	.st103{clip-path:url(#SVGID_00000170983235923743437780000002054196463955196087_);}
	.st104{enable-background:new    ;}
	.st105{fill:#053272;}
	.st106{fill:none;stroke:#053272;stroke-width:4;stroke-miterlimit:10;}
	.st107{fill:url(#SVGID_00000026155940509092823580000015171281987152190389_);}
	.st108{fill:url(#SVGID_00000108988426771156365970000005232200714700116651_);}
	.st109{fill:url(#SVGID_00000017487278260467709160000003390950013862412431_);}
	.st110{fill:url(#SVGID_00000032651062802720587150000017188976862790212764_);}
	.st111{fill:url(#SVGID_00000131344828174744033260000012748972466725877124_);}
	.st112{fill:url(#SVGID_00000148620661054162607670000016773690974971031203_);}
	.st113{fill:url(#SVGID_00000104669091129049089000000001795752657023710135_);}
	.st114{fill:url(#SVGID_00000073717117726722576490000001338098624046775187_);}
	.st115{fill:url(#SVGID_00000099658701875130138960000016281160905873926037_);}
	.st116{fill:url(#SVGID_00000080889797611882039190000010448465412506085817_);}
	.st117{fill:url(#SVGID_00000111181555101507988530000015149416075919952822_);}
	.st118{fill:url(#SVGID_00000048500616837195393750000012915227834857063054_);}
	.st119{fill:url(#SVGID_00000111902944411183407240000002827080126470025374_);}
	.st120{fill:url(#SVGID_00000039813022202032183290000018045400351512400810_);}
	.st121{fill:url(#SVGID_00000166667754086455381890000018441341893493899673_);}
	.st122{fill:url(#SVGID_00000154414292238271178120000008531865891146176390_);}
	.st123{fill:url(#SVGID_00000179605894257724279170000010814824870156572804_);}
	.st124{fill:url(#SVGID_00000176749800408911628920000008860026797179921320_);}
	.st125{fill:url(#SVGID_00000067945086066617438590000009310862888265178262_);}
	.st126{fill:url(#SVGID_00000119811646773765161400000000462435305147574403_);}
	.st127{fill:url(#SVGID_00000029025964498078183400000017246864081232479648_);}
	.st128{fill:url(#SVGID_00000090278630321824898510000004865055321563225480_);}
	.st129{fill:url(#SVGID_00000059305757407890170540000014688870800224232874_);}
	.st130{fill:url(#SVGID_00000114753147157921999620000016297961506472940701_);}
	.st131{fill:url(#SVGID_00000180331746333521830840000000865091900792444861_);}
	.st132{fill:url(#SVGID_00000003062989085946744440000011807261689245843338_);}
	.st133{fill:url(#SVGID_00000087370630155518567350000002189606809013858482_);}
	.st134{fill:url(#SVGID_00000178173175055194619950000006614544432250155409_);}
	.st135{fill:url(#SVGID_00000031908608964147668300000004819614743988873633_);}
	.st136{fill:none;stroke:#FEF73D;stroke-linecap:round;stroke-miterlimit:10;}
	.st137{fill:none;stroke:#FF189C;stroke-miterlimit:10;}
	.st138{fill:none;stroke:#00EFF1;stroke-linecap:round;stroke-miterlimit:10;}
	.st139{fill:#00EFF1;}
	.st140{fill:#FFA022;}
	.st141{fill:#0C103A;}
	.st142{fill-rule:evenodd;clip-rule:evenodd;fill:#5D9541;}
	.st143{fill-rule:evenodd;clip-rule:evenodd;fill:#F06021;}
	.st144{fill-rule:evenodd;clip-rule:evenodd;fill:#69BC60;}
	.st145{fill-rule:evenodd;clip-rule:evenodd;fill:#F6951C;}
	.st146{fill:#F6951C;}
	.st147{fill:url(#SVGID_00000093168910912254671140000016564676265783219112_);}
	.st148{fill:url(#SVGID_00000006704100000045681580000007562725938585430421_);}
	.st149{fill:url(#SVGID_00000039849115963582930540000016043660129562864780_);}
	.st150{opacity:0.93;fill:url(#SVGID_00000005981953709231314960000007435144318092448937_);}
	.st151{opacity:0.93;fill:url(#SVGID_00000178907941220369455180000005359710219645436316_);}
	.st152{opacity:0.93;fill:url(#SVGID_00000057122700574661617060000010518621839249945005_);}
	.st153{opacity:0.93;fill:url(#SVGID_00000023264701883714380370000003776642204185964213_);}
	.st154{fill:url(#SVGID_00000069381267365122256880000002412456850871220406_);}
	.st155{fill:url(#SVGID_00000048488782729874919780000003582412624678304925_);}
	.st156{fill:url(#SVGID_00000154412647390950265480000010409955335444696738_);}
	.st157{fill:url(#SVGID_00000072959439096090694930000004952602153121325456_);}
	.st158{fill:url(#SVGID_00000176752809708028126080000013920005768502296467_);}
	.st159{fill:url(#SVGID_00000072267931447665133540000010974270701274300060_);}
	.st160{fill:url(#SVGID_00000061442475992017371970000012008639548771424162_);}
	.st161{fill:url(#SVGID_00000119079365347322634350000008142891824808315276_);}
	.st162{fill:url(#SVGID_00000015323222680405001490000002889025433768172473_);}
	.st163{fill:url(#SVGID_00000076599974903006452720000000281527385815518879_);}
	.st164{fill:url(#SVGID_00000030461811730738814990000009121403153745437094_);}
	.st165{fill:url(#SVGID_00000007420127899629273410000006725168371744700826_);}
	.st166{fill:url(#SVGID_00000111880217233470799700000015598180650089196948_);}
	.st167{fill:url(#SVGID_00000046307597256465791380000008110103594168831675_);}
	.st168{fill:url(#SVGID_00000062156486009654591630000004557240828977820848_);}
	.st169{fill:url(#SVGID_00000155139421833835464550000011213958810558759327_);}
	.st170{fill:url(#SVGID_00000170966975986839728780000014721122570081273480_);}
	.st171{fill:url(#SVGID_00000059283191725578489640000013267045175434202774_);}
	.st172{fill:url(#SVGID_00000033351683100617441000000016636000521818742668_);}
	.st173{fill:url(#SVGID_00000039847308047681525490000013913375032795094165_);}
	.st174{fill:url(#SVGID_00000064320870312915112140000007915624262012666273_);}
	.st175{fill:url(#SVGID_00000101788360684805879780000015011877095790591119_);}
	.st176{fill:url(#SVGID_00000106849943557025690950000006573078967889233794_);}
	.st177{fill:url(#SVGID_00000157297622517303990550000000310445102744625812_);}
	.st178{fill:url(#SVGID_00000133525999810571890940000007229583716545731506_);}
	.st179{fill:url(#SVGID_00000011741185968002172530000014377230648337665961_);}
	.st180{fill:url(#SVGID_00000062892338865019483620000004531332001012637084_);}
	.st181{fill:url(#SVGID_00000004533012189854959840000015768073817704820919_);}
	.st182{fill:url(#SVGID_00000122722663093675367850000016741059185212251809_);}
	.st183{fill:url(#SVGID_00000072977575035883577900000018225492703692614806_);}
	.st184{fill:url(#SVGID_00000075131120996466442020000016104981509745756325_);}
	.st185{fill:url(#SVGID_00000180333995232427238660000001140017952651062936_);}
	.st186{fill:url(#SVGID_00000127038840170594513750000000699277272104773542_);}
	.st187{fill:url(#SVGID_00000034055773729661644510000011278865981108353440_);}
	.st188{fill:url(#SVGID_00000065795430548185092860000014543044350950866364_);}
	.st189{fill:url(#SVGID_00000005957081074254522360000014511242119965214384_);}
	.st190{fill:url(#SVGID_00000070826032278377125780000012448248838695391927_);}
	.st191{fill:url(#SVGID_00000120556580935500133770000005582901680726695592_);}
	.st192{fill:url(#SVGID_00000155125215661669246590000005411007596736328069_);}
	.st193{fill:url(#SVGID_00000139981332474592213980000010362557179195277230_);}
	.st194{fill:url(#SVGID_00000160903657711491601070000013495929762865299107_);}
	.st195{fill:url(#SVGID_00000027583337928313057490000014540456874299899281_);}
	.st196{fill:url(#SVGID_00000124140445464646084170000012138940948472231552_);}
	.st197{fill:url(#SVGID_00000067926404635612874790000002960082956024904358_);}
	.st198{fill:url(#SVGID_00000039113460548377767540000016931548949680919701_);}
	.st199{fill-rule:evenodd;clip-rule:evenodd;fill:#512100;}
	.st200{fill-rule:evenodd;clip-rule:evenodd;fill:#006D62;}
	.st201{fill-rule:evenodd;clip-rule:evenodd;}
	.st202{fill-rule:evenodd;clip-rule:evenodd;fill:#00A1F5;}
	.st203{fill-rule:evenodd;clip-rule:evenodd;fill:#FACFAB;}
	.st204{fill-rule:evenodd;clip-rule:evenodd;fill:#F29673;}
	.st205{fill-rule:evenodd;clip-rule:evenodd;fill:#FFFFFF;}
	.st206{fill-rule:evenodd;clip-rule:evenodd;fill:#333333;}
	.st207{fill-rule:evenodd;clip-rule:evenodd;fill:#BD4D00;}
	.st208{fill-rule:evenodd;clip-rule:evenodd;fill:#B2B2B2;}
	.st209{fill-rule:evenodd;clip-rule:evenodd;fill:#F2CC29;}
	.st210{fill-rule:evenodd;clip-rule:evenodd;fill:#005C9C;}
	.st211{fill-rule:evenodd;clip-rule:evenodd;fill:#8AC900;}
	.st212{fill-rule:evenodd;clip-rule:evenodd;fill:#808080;}
	.st213{fill-rule:evenodd;clip-rule:evenodd;fill:#CFA605;}
	.st214{fill-rule:evenodd;clip-rule:evenodd;fill:#666666;}
	.st215{fill-rule:evenodd;clip-rule:evenodd;fill:#CCCCCC;}
	.st216{fill:#960000;}
	.st217{fill:url(#SVGID_00000000935949364637442180000012494818403517741212_);}
	.st218{fill:url(#SVGID_00000154383416034210596270000008139150215232946314_);}
	.st219{opacity:0.51;fill:url(#SVGID_00000178199248996182622510000016367700072046763680_);}
	.st220{fill:url(#SVGID_00000059300901187475406220000007495392417560122007_);}
	.st221{fill:url(#SVGID_00000167396964164301477850000015219284274768796828_);}
	.st222{fill:url(#SVGID_00000076563174436249990640000006820919404384783748_);}
	.st223{opacity:0.35;fill:url(#SVGID_00000142168296121484808290000010455939283226669980_);}
	.st224{opacity:0.35;fill:url(#SVGID_00000014633104584961661040000016159891694711055747_);}
	.st225{fill:#F06021;}
	.st226{fill-rule:evenodd;clip-rule:evenodd;fill:url(#SVGID_00000080921148468041502180000002895363114334441912_);}
	.st227{fill-rule:evenodd;clip-rule:evenodd;fill:url(#SVGID_00000002346425393148669780000010835199224268628872_);}
	.st228{fill-rule:evenodd;clip-rule:evenodd;fill:url(#SVGID_00000085948318240178269120000016448791139945111487_);}
	.st229{fill-rule:evenodd;clip-rule:evenodd;fill:url(#SVGID_00000122716087135095807720000013268298604914852998_);}
	.st230{fill-rule:evenodd;clip-rule:evenodd;fill:url(#SVGID_00000019646640917042999750000003587066563200781998_);}
	.st231{fill-rule:evenodd;clip-rule:evenodd;fill:url(#SVGID_00000121961566044471244580000012107503461495967160_);}
	.st232{fill-rule:evenodd;clip-rule:evenodd;fill:url(#SVGID_00000025418636959484094320000013339665364191346365_);}
	.st233{fill-rule:evenodd;clip-rule:evenodd;fill:url(#SVGID_00000083090680226809168500000007562117759700620183_);}
	.st234{fill-rule:evenodd;clip-rule:evenodd;fill:url(#SVGID_00000174559985827911039490000002832165977891465142_);}
	.st235{fill-rule:evenodd;clip-rule:evenodd;fill:url(#SVGID_00000181072411171824917030000005245491798133696670_);}
	.st236{fill-rule:evenodd;clip-rule:evenodd;fill:url(#SVGID_00000003792750794953331420000014740435007494058663_);}
	.st237{fill-rule:evenodd;clip-rule:evenodd;fill:url(#SVGID_00000083076519675524679550000017157434907857726895_);}
	.st238{fill-rule:evenodd;clip-rule:evenodd;fill:url(#SVGID_00000039107867386942751720000018356588834176151425_);}
	.st239{opacity:0.5;fill-rule:evenodd;clip-rule:evenodd;fill:#5D0101;enable-background:new    ;}
	.st240{fill:#E11B22;}
	.st241{fill:#959595;}
	.st242{fill:#003359;}
	.st243{fill:#1779C1;}
	.st244{fill:#0EB17C;}
	.st245{fill:#2B2353;}
	.st246{fill:#BE264E;}
	.st247{fill:#EAA41C;}
	.st248{fill:#1F9EF3;}
	.st249{fill:#0267A3;}
	.st250{fill:#FFEC00;}
	.st251{fill:#00A0E0;}
	.st252{fill:#E3007E;}
	.st253{fill:none;stroke:#000000;stroke-width:2;stroke-miterlimit:10;}
	.st254{fill:#FF9E80;}
	.st255{fill:#414151;}
	.st256{fill:#2B295E;}
	.st257{fill:#CCCCCC;}
	.st258{fill:#FF8C5C;}
	.st259{fill:#DBA21C;}
	.st260{fill:#EDDBB2;}
	.st261{fill:#DEC58B;}
	.st262{fill:#997113;}
	.st263{fill:#B88817;}
	.st264{fill:#003400;stroke:#8EC13D;stroke-width:4;stroke-miterlimit:10;}
	.st265{fill:#8EC13D;}
	.st266{fill:url(#XMLID_00000097496094972589066760000007117631883225987007_);}
	.st267{fill:url(#SVGID_00000155144928957201190270000002918295968800654767_);}
	.st268{fill:url(#SVGID_00000114065478278935940420000014777506922404318102_);}
	.st269{fill:url(#SVGID_00000165208680224375568830000005695741718437061010_);}
	.st270{fill:url(#SVGID_00000103947936525170810020000013978289050836358786_);}
	.st271{fill:url(#SVGID_00000137849076383670816380000005300938144097120438_);}
	.st272{fill:url(#SVGID_00000124127580414008119860000012939414367749946805_);}
	.st273{fill:url(#SVGID_00000042719726365204247160000012405998357688574626_);}
	.st274{fill:url(#SVGID_00000106106173043803024490000011871952681347216817_);}
	.st275{fill:url(#SVGID_00000062152323441931301120000012769775658090095783_);}
	.st276{fill:url(#SVGID_00000047029544585009122570000007439258199677654663_);}
	.st277{fill:url(#SVGID_00000089536642319400381740000005324648088235769760_);}
	.st278{fill:#1C75BC;}
	.st279{fill:#FF9400;}
	.st280{fill:#46920C;}
	.st281{fill:url(#SVGID_00000054980114598892453710000008109306391815174553_);}
	.st282{fill:url(#SVGID_00000089551912071041379440000014671822014388041611_);}
	.st283{fill:url(#SVGID_00000121265117917604951160000003254025859509249438_);}
	.st284{fill:url(#SVGID_00000022552934515191094820000018321632844523482273_);}
	.st285{fill:url(#SVGID_00000013909866852466137780000017743484253639789999_);}
	.st286{fill:url(#SVGID_00000125585549769092155860000003992243672284268695_);}
	.st287{fill:url(#SVGID_00000093866141134302502860000018139161135337926332_);}
	.st288{fill:url(#SVGID_00000132782126346877574900000010647407448114697871_);}
	.st289{fill:url(#SVGID_00000088811568930901494980000005385343566193368750_);}
	.st290{fill:url(#SVGID_00000015320959972053815440000002216117153770719118_);}
	.st291{fill:url(#SVGID_00000147935567054739559990000017550974298733541795_);}
	.st292{fill:url(#SVGID_00000129889768720925679650000005972756700659139996_);}
	.st293{fill:url(#SVGID_00000052798549090722114110000002878506897691919234_);}
	.st294{fill:url(#SVGID_00000114039295790528830000000003190820086111621552_);}
	.st295{fill:url(#SVGID_00000030480263958772900980000001699439045635469986_);}
	.st296{fill:url(#SVGID_00000063601318598673714050000014639882281459951785_);}
	.st297{fill:url(#SVGID_00000078005965732068181470000013259446350653710492_);}
	.st298{fill:url(#SVGID_00000002380213366719518350000014011232658091496343_);}
	.st299{fill:url(#SVGID_00000107584704250228811820000004119551605901594277_);}
	.st300{fill:#2F3F67;}
	.st301{fill:#C97F32;}
	.st302{fill:none;stroke:#C97F32;stroke-width:1.2891;stroke-miterlimit:10;}
	.st303{fill:url(#XMLID_00000107590084351151071480000000107588258926272426_);}
	.st304{fill:#00548B;}
	.st305{fill:#004368;}
	.st306{fill:#94070A;}
	.st307{fill:url(#XMLID_00000109017687379394162260000018161649799995780491_);}
	.st308{fill:url(#XMLID_00000021798484774325204890000000906620947441902243_);}
	.st309{fill:#B34A06;}
	.st310{fill:#A2B5C4;}
	.st311{fill:#192940;}
</style>
<g>
	
		<radialGradient id="XMLID_00000101795458732403823020000013151424529476210086_" cx="174.0847" cy="-2848.7795" r="52.542" gradientTransform="matrix(1 0 0 -1 0 -2761.9519)" gradientUnits="userSpaceOnUse">
		<stop  offset="0" style="stop-color:#15FAFF"/>
		<stop  offset="1" style="stop-color:#285FFF"/>
	</radialGradient>
	<path id="XMLID_4_" style="fill:url(#XMLID_00000101795458732403823020000013151424529476210086_);" d="M209.93,34.79L209.93,34.79
		c-0.12,0-0.23,0-0.35-0.01c-0.12,0-0.23,0.01-0.35,0.01c-6.84,0.11-12.75,4.07-15.64,9.81h-0.01l-27.75,55.5h0
		c-2.9,5.93-8.98,10.01-16.02,10.01c-0.11,0-0.22-0.01-0.32-0.01v0.01h-28.43l32.75-65.51h0.01c2.93-5.82,8.96-9.82,15.93-9.82
		h-11.02h-7.38h-12.45v0.01c-0.19-0.01-0.38-0.01-0.56-0.01c-8.8,0-15.87,6.37-17.28,14.75v76.33c0,7.19,5.82,13.01,13.01,13.01
		h80.05c7.19,0,13.01-5.82,13.01-13.01v-15.75h-30.06c-6.3-0.46-11.68-4.2-14.47-9.52l-1.87-3.74l22.76-45.57
		c-0.57,1.74-0.88,3.6-0.88,5.54c0,2.54,0.46,4.87,1.4,7.04l23.13,46.25V51.21C226.44,42.11,219.16,34.94,209.93,34.79z
		 M149.86,134.94v-0.02C149.86,134.92,149.87,134.93,149.86,134.94L149.86,134.94z"/>
	<g>
		
			<radialGradient id="SVGID_00000004511860687917916500000005081719983226180740_" cx="81.8884" cy="168.1659" r="14.1054" gradientUnits="userSpaceOnUse">
			<stop  offset="0" style="stop-color:#15FAFF"/>
			<stop  offset="1.066625e-03" style="stop-color:#15F9FF"/>
			<stop  offset="0.0533" style="stop-color:#1AD5FF"/>
			<stop  offset="0.1105" style="stop-color:#1DB6FF"/>
			<stop  offset="0.1754" style="stop-color:#219AFF"/>
			<stop  offset="0.2486" style="stop-color:#2384FF"/>
			<stop  offset="0.3341" style="stop-color:#2573FF"/>
			<stop  offset="0.4398" style="stop-color:#2768FF"/>
			<stop  offset="0.5882" style="stop-color:#2861FF"/>
			<stop  offset="1" style="stop-color:#285FFF"/>
		</radialGradient>
		<path style="fill:url(#SVGID_00000004511860687917916500000005081719983226180740_);" d="M80.54,155.18h2.97l11.11,25.19h2.41
			v0.77H83.8v-0.77h2.41l-3.37-7.61h-9.21l-3.37,7.61h3.11v0.77h-6.63v-0.77h2.67l8.4-19L80.54,155.18z M78.24,162.33l-4.27,9.66
			h8.55L78.24,162.33z"/>
		
			<radialGradient id="SVGID_00000145752942465525070260000016847525402629987973_" cx="107.8516" cy="167.2719" r="13.0123" gradientUnits="userSpaceOnUse">
			<stop  offset="0" style="stop-color:#15FAFF"/>
			<stop  offset="1.066625e-03" style="stop-color:#15F9FF"/>
			<stop  offset="0.0533" style="stop-color:#1AD5FF"/>
			<stop  offset="0.1105" style="stop-color:#1DB6FF"/>
			<stop  offset="0.1754" style="stop-color:#219AFF"/>
			<stop  offset="0.2486" style="stop-color:#2384FF"/>
			<stop  offset="0.3341" style="stop-color:#2573FF"/>
			<stop  offset="0.4398" style="stop-color:#2768FF"/>
			<stop  offset="0.5882" style="stop-color:#2861FF"/>
			<stop  offset="1" style="stop-color:#285FFF"/>
		</radialGradient>
		<path style="fill:url(#SVGID_00000145752942465525070260000016847525402629987973_);" d="M117.18,153.18v27.23h2.51v0.77h-9.47
			v-0.63c-1.33,0.54-3.03,0.81-5.12,0.81c-2.51,0-4.64-0.74-6.41-2.21c-1.77-1.47-2.65-3.37-2.65-5.69c0-2.32,0.88-4.22,2.65-5.69
			c1.77-1.47,3.91-2.21,6.41-2.21c2.09,0,3.8,0.27,5.12,0.81v-12.42h-3.59v-0.77H117.18z M107.46,180.58c0.52,0,1.04-0.08,1.58-0.24
			c0.53-0.16,0.92-0.3,1.17-0.42v-12.9c-0.25-0.12-0.64-0.26-1.17-0.42c-0.53-0.16-1.06-0.24-1.58-0.24c-1.08,0-1.92,0.29-2.51,0.88
			c-0.59,0.59-1.02,1.3-1.28,2.13c-0.26,0.83-0.42,1.63-0.47,2.41c-0.05,0.77-0.07,1.34-0.07,1.7c0,0.36,0.02,0.92,0.07,1.7
			c0.05,0.77,0.21,1.57,0.47,2.4c0.26,0.83,0.69,1.54,1.28,2.13C105.55,180.28,106.38,180.58,107.46,180.58z"/>
		
			<radialGradient id="SVGID_00000103241467837195917260000017407268528790806964_" cx="129.4746" cy="173.4447" r="9.3096" gradientUnits="userSpaceOnUse">
			<stop  offset="0" style="stop-color:#15FAFF"/>
			<stop  offset="1.066625e-03" style="stop-color:#15F9FF"/>
			<stop  offset="0.0533" style="stop-color:#1AD5FF"/>
			<stop  offset="0.1105" style="stop-color:#1DB6FF"/>
			<stop  offset="0.1754" style="stop-color:#219AFF"/>
			<stop  offset="0.2486" style="stop-color:#2384FF"/>
			<stop  offset="0.3341" style="stop-color:#2573FF"/>
			<stop  offset="0.4398" style="stop-color:#2768FF"/>
			<stop  offset="0.5882" style="stop-color:#2861FF"/>
			<stop  offset="1" style="stop-color:#285FFF"/>
		</radialGradient>
		<path style="fill:url(#SVGID_00000103241467837195917260000017407268528790806964_);" d="M129.87,181.15h-1.18l-8.33-14.63h-1.57
			v-0.77h10.26v0.77h-1.64l4.92,8.62l4.94-8.62h-1.77v-0.77h4.64v0.77h-2.04L129.87,181.15z"/>
		
			<radialGradient id="SVGID_00000107568805214267929480000016017343217826569391_" cx="148.887" cy="173.4816" r="8.8739" gradientUnits="userSpaceOnUse">
			<stop  offset="0" style="stop-color:#15FAFF"/>
			<stop  offset="1.066625e-03" style="stop-color:#15F9FF"/>
			<stop  offset="0.0533" style="stop-color:#1AD5FF"/>
			<stop  offset="0.1105" style="stop-color:#1DB6FF"/>
			<stop  offset="0.1754" style="stop-color:#219AFF"/>
			<stop  offset="0.2486" style="stop-color:#2384FF"/>
			<stop  offset="0.3341" style="stop-color:#2573FF"/>
			<stop  offset="0.4398" style="stop-color:#2768FF"/>
			<stop  offset="0.5882" style="stop-color:#2861FF"/>
			<stop  offset="1" style="stop-color:#285FFF"/>
		</radialGradient>
		<path style="fill:url(#SVGID_00000107568805214267929480000016017343217826569391_);" d="M149.02,181.39h-1.11
			c-2.42,0-4.49-0.77-6.21-2.32c-1.71-1.54-2.56-3.4-2.56-5.58c0-2.19,0.85-4.05,2.56-5.6c1.72-1.54,3.79-2.3,6.21-2.3h1.95
			c2.42,0,4.49,0.77,6.21,2.3c1.71,1.55,2.56,3.43,2.56,5.64H145.2v0.37c0,2.22,0.58,3.88,1.73,4.98c0.82,0.8,1.9,1.26,3.23,1.38
			c0.22,0.02,0.45,0.04,0.68,0.04c1.14,0,2.28-0.44,3.41-1.33c0.98-0.79,1.72-1.68,2.21-2.67l0.61,0.35
			c-0.69,1.41-1.75,2.56-3.19,3.43C152.42,180.94,150.8,181.39,149.02,181.39z M150.21,166.77c-0.43-0.28-0.87-0.42-1.33-0.42
			c-0.95,0-1.75,0.51-2.41,1.53c-0.75,1.15-1.17,2.77-1.25,4.85h7.33c-0.01-0.28-0.03-0.53-0.06-0.76c-0.09-0.95-0.25-1.79-0.5-2.54
			C151.6,168.17,151,167.29,150.21,166.77z"/>
		
			<radialGradient id="SVGID_00000085209572911755247440000005812253930493352629_" cx="168.234" cy="173.122" r="9.039" gradientUnits="userSpaceOnUse">
			<stop  offset="0" style="stop-color:#15FAFF"/>
			<stop  offset="1.066625e-03" style="stop-color:#15F9FF"/>
			<stop  offset="0.0533" style="stop-color:#1AD5FF"/>
			<stop  offset="0.1105" style="stop-color:#1DB6FF"/>
			<stop  offset="0.1754" style="stop-color:#219AFF"/>
			<stop  offset="0.2486" style="stop-color:#2384FF"/>
			<stop  offset="0.3341" style="stop-color:#2573FF"/>
			<stop  offset="0.4398" style="stop-color:#2768FF"/>
			<stop  offset="0.5882" style="stop-color:#2861FF"/>
			<stop  offset="1" style="stop-color:#285FFF"/>
		</radialGradient>
		<path style="fill:url(#SVGID_00000085209572911755247440000005812253930493352629_);" d="M173.89,165.1
			c0.79,0,1.56,0.18,2.32,0.53c1.31,0.6,1.97,1.53,1.97,2.78c0,0.81-0.29,1.51-0.87,2.08c-0.58,0.57-1.27,0.85-2.08,0.85
			c-0.81,0-1.5-0.28-2.08-0.85c-0.58-0.58-0.87-1.27-0.87-2.08c0-0.74,0.24-1.38,0.72-1.93c0.17-0.2,0.26-0.34,0.26-0.42
			c0-0.05-0.02-0.08-0.07-0.09s-0.1-0.02-0.17-0.02c-0.04,0.01-0.09,0.02-0.17,0.04c-1.33,0.25-2.46,0.78-3.41,1.59
			c-1.2,1.03-1.81,2.36-1.82,4v8.81h2.41v0.77h-11.76v-0.77h2.4V166.5h-2.4v-0.77h9.34v2.82c0.65-1.12,1.65-2,2.99-2.64
			c1.08-0.52,2.14-0.79,3.19-0.81H173.89z"/>
		
			<radialGradient id="SVGID_00000175307323823145709700000003210575766002432142_" cx="184.8546" cy="169.6673" r="9.477" gradientUnits="userSpaceOnUse">
			<stop  offset="0" style="stop-color:#15FAFF"/>
			<stop  offset="1.066625e-03" style="stop-color:#15F9FF"/>
			<stop  offset="0.0533" style="stop-color:#1AD5FF"/>
			<stop  offset="0.1105" style="stop-color:#1DB6FF"/>
			<stop  offset="0.1754" style="stop-color:#219AFF"/>
			<stop  offset="0.2486" style="stop-color:#2384FF"/>
			<stop  offset="0.3341" style="stop-color:#2573FF"/>
			<stop  offset="0.4398" style="stop-color:#2768FF"/>
			<stop  offset="0.5882" style="stop-color:#2861FF"/>
			<stop  offset="1" style="stop-color:#285FFF"/>
		</radialGradient>
		<path style="fill:url(#SVGID_00000175307323823145709700000003210575766002432142_);" d="M191.12,166.52h-2.86v13.12
			c0,0.22,0.07,0.39,0.2,0.5c0.11,0.09,0.25,0.13,0.41,0.13c0.28,0,0.49-0.14,0.63-0.41c0.1-0.2,0.15-0.44,0.15-0.72h0.77
			c0,0.66-0.23,1.2-0.7,1.6c-0.36,0.31-0.84,0.53-1.46,0.66c-0.39,0.07-0.83,0.11-1.31,0.11c-0.31,0-0.57-0.01-0.77-0.02
			c-0.32-0.01-0.61-0.04-0.88-0.09c-0.71-0.11-1.33-0.32-1.84-0.63c-1.39-0.84-2.08-2.41-2.08-4.72v-9.54h-2.78v-0.77
			c1.08-0.31,2.25-0.86,3.52-1.66c1.11-0.71,2.08-1.52,2.91-2.43c1.03-1.15,1.81-2.43,2.34-3.83h0.9v7.92h2.86V166.52z"/>
		
			<radialGradient id="SVGID_00000135658635141315509360000009643989537583905961_" cx="198.619" cy="169.2251" r="9.399" gradientUnits="userSpaceOnUse">
			<stop  offset="0" style="stop-color:#15FAFF"/>
			<stop  offset="1.066625e-03" style="stop-color:#15F9FF"/>
			<stop  offset="0.0533" style="stop-color:#1AD5FF"/>
			<stop  offset="0.1105" style="stop-color:#1DB6FF"/>
			<stop  offset="0.1754" style="stop-color:#219AFF"/>
			<stop  offset="0.2486" style="stop-color:#2384FF"/>
			<stop  offset="0.3341" style="stop-color:#2573FF"/>
			<stop  offset="0.4398" style="stop-color:#2768FF"/>
			<stop  offset="0.5882" style="stop-color:#2861FF"/>
			<stop  offset="1" style="stop-color:#285FFF"/>
		</radialGradient>
		<path style="fill:url(#SVGID_00000135658635141315509360000009643989537583905961_);" d="M192.74,165.72h9.34v14.65h2.41v0.77
			h-11.76v-0.77h2.4V166.5h-2.4V165.72z M198.64,163.96c-0.92,0-1.7-0.33-2.34-0.98c-0.65-0.65-0.98-1.44-0.98-2.36
			c0-0.91,0.33-1.69,0.98-2.34c0.64-0.65,1.42-0.98,2.34-0.98c0.92,0,1.7,0.33,2.34,0.98c0.65,0.65,0.98,1.43,0.98,2.34
			c0,0.92-0.32,1.71-0.98,2.36C200.34,163.63,199.56,163.96,198.64,163.96z"/>
		
			<radialGradient id="SVGID_00000065074958886922461340000007181820782858759093_" cx="214.7426" cy="173.4447" r="8.3096" gradientUnits="userSpaceOnUse">
			<stop  offset="0" style="stop-color:#15FAFF"/>
			<stop  offset="1.066625e-03" style="stop-color:#15F9FF"/>
			<stop  offset="0.0533" style="stop-color:#1AD5FF"/>
			<stop  offset="0.1105" style="stop-color:#1DB6FF"/>
			<stop  offset="0.1754" style="stop-color:#219AFF"/>
			<stop  offset="0.2486" style="stop-color:#2384FF"/>
			<stop  offset="0.3341" style="stop-color:#2573FF"/>
			<stop  offset="0.4398" style="stop-color:#2768FF"/>
			<stop  offset="0.5882" style="stop-color:#2861FF"/>
			<stop  offset="1" style="stop-color:#285FFF"/>
		</radialGradient>
		<path style="fill:url(#SVGID_00000065074958886922461340000007181820782858759093_);" d="M214.14,169.43
			c0.79,0.47,2.54,1.29,5.23,2.48c2.7,1.19,4.04,2.68,4.04,4.47c0,1.66-0.84,2.91-2.52,3.74c-1.67,0.84-3.69,1.25-6.06,1.25
			c-1.3,0-2.64-0.24-4.02-0.72c-1-0.34-1.96-0.79-2.89-1.34c-0.44-0.25-0.75-0.23-0.92,0.04c-0.09,0.14-0.13,0.29-0.13,0.48v1.31
			h-0.7v-5.75h0.7v0.13c0,0.07,0.01,0.16,0.02,0.26c0.01,0.12,0.03,0.25,0.06,0.39c0.09,0.35,0.21,0.68,0.39,1
			c0.48,0.92,1.29,1.65,2.43,2.17c1.63,0.75,3.11,1.12,4.44,1.12c0.47,0,0.86-0.14,1.17-0.41c0.31-0.28,0.48-0.66,0.49-1.15
			c0-1.04-0.59-1.82-1.77-2.34l-3.8-1.64c-2.83-1.25-4.24-2.71-4.24-4.38c0-1.6,0.81-2.83,2.43-3.7c1.6-0.86,3.55-1.29,5.86-1.29
			c2.01,0,4.15,0.55,6.41,1.64c0.12,0.05,0.23,0.06,0.33,0.04c0.23-0.06,0.35-0.33,0.35-0.79v-0.7h0.7v5.09h-0.7
			c-0.64-2.99-2.89-4.48-6.74-4.48c-1.17,0-1.75,0.48-1.75,1.46C212.96,168.41,213.35,168.96,214.14,169.43z"/>
		
			<radialGradient id="SVGID_00000045601974917219134310000003203625672318786688_" cx="230.128" cy="169.2251" r="9.399" gradientUnits="userSpaceOnUse">
			<stop  offset="0" style="stop-color:#15FAFF"/>
			<stop  offset="1.066625e-03" style="stop-color:#15F9FF"/>
			<stop  offset="0.0533" style="stop-color:#1AD5FF"/>
			<stop  offset="0.1105" style="stop-color:#1DB6FF"/>
			<stop  offset="0.1754" style="stop-color:#219AFF"/>
			<stop  offset="0.2486" style="stop-color:#2384FF"/>
			<stop  offset="0.3341" style="stop-color:#2573FF"/>
			<stop  offset="0.4398" style="stop-color:#2768FF"/>
			<stop  offset="0.5882" style="stop-color:#2861FF"/>
			<stop  offset="1" style="stop-color:#285FFF"/>
		</radialGradient>
		<path style="fill:url(#SVGID_00000045601974917219134310000003203625672318786688_);" d="M224.25,165.72h9.34v14.65h2.41v0.77
			h-11.76v-0.77h2.4V166.5h-2.4V165.72z M230.15,163.96c-0.92,0-1.7-0.33-2.34-0.98c-0.65-0.65-0.98-1.44-0.98-2.36
			c0-0.91,0.33-1.69,0.98-2.34c0.64-0.65,1.42-0.98,2.34-0.98c0.92,0,1.7,0.33,2.34,0.98c0.65,0.65,0.98,1.43,0.98,2.34
			c0,0.92-0.32,1.71-0.98,2.36C231.85,163.63,231.07,163.96,230.15,163.96z"/>
		
			<radialGradient id="SVGID_00000068650670637835787740000011599910601248421281_" cx="249.4114" cy="173.3252" r="10.2517" gradientUnits="userSpaceOnUse">
			<stop  offset="0" style="stop-color:#15FAFF"/>
			<stop  offset="1.066625e-03" style="stop-color:#15F9FF"/>
			<stop  offset="0.0533" style="stop-color:#1AD5FF"/>
			<stop  offset="0.1105" style="stop-color:#1DB6FF"/>
			<stop  offset="0.1754" style="stop-color:#219AFF"/>
			<stop  offset="0.2486" style="stop-color:#2384FF"/>
			<stop  offset="0.3341" style="stop-color:#2573FF"/>
			<stop  offset="0.4398" style="stop-color:#2768FF"/>
			<stop  offset="0.5882" style="stop-color:#2861FF"/>
			<stop  offset="1" style="stop-color:#285FFF"/>
		</radialGradient>
		<path style="fill:url(#SVGID_00000068650670637835787740000011599910601248421281_);" d="M248.61,180.37v0.77H237.2v-0.77h2.32
			V166.5h-2.32v-0.77h9.07v1.2c1.3-0.95,3.19-1.42,5.66-1.42c2.46,0,4.24,0.44,5.34,1.33c1.34,1.06,2.01,2.9,2.01,5.53v8h2.34v0.78
			h-11.41v-0.78h2.32v-7.92c0-2.1-0.14-3.46-0.41-4.07c-0.39-0.9-1.31-1.35-2.75-1.35c-1.42,0-2.46,0.38-3.11,1.14v12.22H248.61z"/>
		
			<radialGradient id="SVGID_00000085955307808859629600000006892815584923985588_" cx="271.6042" cy="177.6533" r="12.9508" gradientUnits="userSpaceOnUse">
			<stop  offset="0" style="stop-color:#15FAFF"/>
			<stop  offset="1.066625e-03" style="stop-color:#15F9FF"/>
			<stop  offset="0.0533" style="stop-color:#1AD5FF"/>
			<stop  offset="0.1105" style="stop-color:#1DB6FF"/>
			<stop  offset="0.1754" style="stop-color:#219AFF"/>
			<stop  offset="0.2486" style="stop-color:#2384FF"/>
			<stop  offset="0.3341" style="stop-color:#2573FF"/>
			<stop  offset="0.4398" style="stop-color:#2768FF"/>
			<stop  offset="0.5882" style="stop-color:#2861FF"/>
			<stop  offset="1" style="stop-color:#285FFF"/>
		</radialGradient>
		<path style="fill:url(#SVGID_00000085955307808859629600000006892815584923985588_);" d="M280.82,162.76
			c0.39,0.6,0.52,1.26,0.39,1.97c-0.14,0.58-0.37,1.07-0.69,1.47c-0.33,0.41-0.71,0.83-1.14,1.27c-0.44,0.44-0.45,0.89-0.05,1.35
			c0.65,0.7,1.05,1.54,1.21,2.51c0.15,0.98,0.06,1.93-0.27,2.87c-0.33,0.9-0.84,1.68-1.51,2.36s-1.43,1.2-2.27,1.58
			c-1.7,0.71-3.46,1.05-5.29,1c-1.12,0.02-2.21-0.09-3.29-0.34c-1.08-0.25-2.06-0.71-2.96-1.39c-0.02-0.02-0.05-0.04-0.07-0.05
			c-0.2-0.17-0.41-0.31-0.65-0.41c-0.25-0.05-0.48,0-0.72,0.14c-0.23,0.14-0.41,0.34-0.52,0.58c-0.18,0.53-0.15,1.05,0.11,1.57
			c0.32,0.61,0.79,1.06,1.41,1.34c0.62,0.28,1.27,0.47,1.94,0.58c1.08,0.15,2.17,0.27,3.28,0.37c1.22,0.1,2.42,0.25,3.61,0.44
			c1.19,0.2,2.35,0.54,3.46,1.03c1.19,0.49,2.17,1.26,2.95,2.3c0.37,0.55,0.61,1.16,0.73,1.82c0.12,0.66,0.07,1.31-0.14,1.95
			c-0.27,0.64-0.67,1.18-1.19,1.62c-0.52,0.44-1.08,0.8-1.69,1.07c-2.21,1-4.52,1.48-6.93,1.46c-1.03,0.01-2.06-0.08-3.08-0.29
			c-1.02-0.2-1.98-0.57-2.89-1.1c-0.54-0.33-1.01-0.76-1.41-1.29c-0.4-0.53-0.6-1.12-0.6-1.77c0.02-0.54,0.2-1.02,0.52-1.45
			c0.32-0.42,0.72-0.72,1.2-0.89c0.85-0.29,1.62-0.16,2.32,0.4c0.31,0.32,0.49,0.71,0.56,1.16c0.07,0.45-0.02,0.87-0.25,1.25
			c-0.14,0.18-0.28,0.35-0.44,0.5c-0.1,0.11-0.2,0.21-0.31,0.31c-0.11,0.15-0.2,0.31-0.27,0.49c-0.07,0.18-0.08,0.37-0.03,0.56
			c0.06,0.19,0.17,0.33,0.33,0.44c0.16,0.11,0.33,0.2,0.52,0.28c1.49,0.52,2.99,0.57,4.51,0.17c0.93-0.23,1.73-0.7,2.38-1.4
			c0.72-0.95,1.04-2.04,0.96-3.28c-0.06-1.03-0.38-1.95-0.96-2.75c-0.43-0.55-0.95-0.99-1.56-1.32c-0.61-0.32-1.24-0.56-1.91-0.71
			c-0.74-0.16-1.48-0.28-2.23-0.35c-0.59-0.06-1.17-0.15-1.75-0.26c-0.63-0.11-1.24-0.3-1.83-0.57c-0.6-0.27-1.1-0.66-1.52-1.16
			c-0.41-0.55-0.62-1.18-0.65-1.9s0.2-1.31,0.66-1.79l0.06-0.04c0.12-0.09,0.21-0.19,0.26-0.31c0.04-0.14,0.03-0.26-0.03-0.38
			c-0.06-0.12-0.13-0.24-0.21-0.36c-0.63-0.93-0.95-1.98-0.96-3.13c0.02-0.87,0.23-1.69,0.62-2.46c0.39-0.77,0.89-1.43,1.52-1.98
			c1.29-1.08,2.75-1.76,4.37-2.05c2.84-0.57,5.61-0.29,8.31,0.81c0.48,0.2,0.92,0.3,1.33,0.31c0.41,0.01,0.68-0.13,0.81-0.42
			c0.14-0.29,0.12-0.58-0.04-0.85c-0.1-0.12-0.22-0.24-0.37-0.35c-0.04-0.04-0.07-0.07-0.09-0.09c-0.47-0.43-0.66-0.98-0.57-1.64
			c0.17-0.76,0.59-1.24,1.25-1.43C279.75,161.97,280.33,162.17,280.82,162.76z M274.09,173.32v-1.7c0-1.73-0.29-3.08-0.87-4.05
			c-0.52-0.86-1.15-1.29-1.9-1.29c-0.75,0-1.38,0.43-1.9,1.29c-0.58,0.96-0.87,2.31-0.87,4.05v1.7c0,1.52,0.29,2.75,0.88,3.69
			c0.53,0.84,1.15,1.25,1.88,1.25c0.76,0,1.4-0.42,1.92-1.25C273.81,176.09,274.09,174.86,274.09,173.32z"/>
	</g>
</g>
</svg>
