<?xml version="1.0" encoding="utf-8"?>
<!-- Generator: Adobe Illustrator 27.8.1, SVG Export Plug-In . SVG Version: 6.00 Build 0)  -->
<svg version="1.1" id="Layer_1" xmlns="http://www.w3.org/2000/svg" xmlns:xlink="http://www.w3.org/1999/xlink" x="0px" y="0px"
	 viewBox="0 0 348 228" style="enable-background:new 0 0 348 228;" xml:space="preserve">
<style type="text/css">
	.st0{fill:#D6EADE;}
	.st1{fill:#03487C;}
	.st2{fill:#1B1B4C;}
	.st3{fill-rule:evenodd;clip-rule:evenodd;fill:#204F7A;}
	.st4{fill-rule:evenodd;clip-rule:evenodd;fill:#50A4FF;}
	.st5{fill:#002649;}
	.st6{fill:#E6E7E8;stroke:#CFCFCF;stroke-width:0.1061;}
	.st7{fill:#333333;}
	.st8{fill:#0F5998;}
	.st9{fill:#277FC1;}
	.st10{fill-rule:evenodd;clip-rule:evenodd;fill:#277FC1;}
	.st11{fill-rule:evenodd;clip-rule:evenodd;fill:#083D6D;}
	.st12{fill:#DDB462;}
	
		.st13{clip-path:url(#SVGID_00000178192386087006531190000017589548397073384101_);fill:url(#SVGID_00000090287430060402319700000017189475117117320366_);}
	.st14{fill:#FFFFFF;}
	.st15{fill:url(#SVGID_00000016765319306235369570000016352234773538489018_);}
	.st16{fill:#224685;}
	.st17{fill:none;}
	.st18{fill:#FFC73B;}
	.st19{fill:#11233F;}
	.st20{fill:#5267FF;}
	.st21{fill-rule:evenodd;clip-rule:evenodd;fill:#72342E;}
	.st22{fill:#72342E;}
	.st23{fill:#FFF2E2;}
	.st24{fill:#FFF2E2;stroke:#72342E;stroke-width:0.75;stroke-miterlimit:10;}
	.st25{fill:#FFCC99;}
	.st26{fill:#469CB2;}
	.st27{fill:url(#XMLID_00000152249752947212644880000002055625199338479014_);}
	.st28{fill:url(#XMLID_00000121245915359946465290000015827933505051395236_);}
	.st29{fill:url(#XMLID_00000009564795746458892840000016701717592053425570_);}
	.st30{fill:url(#XMLID_00000124852412375176028040000012157842423430880130_);}
	.st31{fill:url(#XMLID_00000049925561316294642740000000385143450195967363_);}
	.st32{fill:url(#XMLID_00000060026598548374839200000015477968903602434698_);}
	.st33{fill:url(#XMLID_00000005953625812837500120000015756693527127007416_);}
	.st34{fill:url(#XMLID_00000180343919409562973140000013486411337658032808_);}
	.st35{fill:url(#XMLID_00000153699077510696787270000005326978763270366874_);}
	.st36{fill:url(#XMLID_00000057113073998178540440000000484037121102015110_);}
	.st37{fill:url(#XMLID_00000137829390445560570620000004586958298140279473_);}
	.st38{fill:url(#XMLID_00000171683953996867596970000006509299763469410960_);}
	.st39{fill:url(#XMLID_00000036949329145014227440000015075197378894492040_);}
	.st40{fill:url(#XMLID_00000008133976761555840070000005699795217431748778_);}
	.st41{fill:url(#XMLID_00000072257929148669464560000014668488628486311846_);}
	.st42{fill:url(#SVGID_00000166655514000369253050000014329669204039941249_);}
	.st43{fill:url(#SVGID_00000039851363785182049740000018320410967506454931_);}
	.st44{fill:url(#SVGID_00000065763999679919421490000005558908404092401813_);}
	.st45{fill:url(#SVGID_00000145047475213437512190000013923819129876880269_);}
	.st46{fill:url(#SVGID_00000059997338740723251690000008127255265841068694_);}
	.st47{fill:url(#SVGID_00000122691442433776944210000005392808184437077675_);}
	.st48{fill:url(#SVGID_00000163060236761395551940000013762451896999858090_);}
	.st49{fill:url(#SVGID_00000151513345973776256450000017037708108412871809_);}
	.st50{fill:url(#SVGID_00000012467751996876739420000002070386368526614942_);}
	.st51{fill:url(#SVGID_00000006686462927563728820000006439137316137121162_);}
	.st52{fill:url(#SVGID_00000061460638040935986650000010959376252069585579_);}
	.st53{fill:url(#SVGID_00000041278038959235675340000006070812512208769152_);}
	.st54{fill:url(#SVGID_00000173150161917213949000000006587684069044925824_);}
	.st55{fill:url(#SVGID_00000019637404762105176190000017604253288119634308_);}
	.st56{fill:#30325E;}
	.st57{fill:#FF7859;}
	.st58{fill:#FFD550;}
	.st59{fill:#00C3AD;}
	.st60{fill:#FF4653;}
	.st61{fill:#D8CE19;}
	.st62{fill:#C1E5DE;}
	.st63{fill:#FFE4D2;}
	.st64{fill:#DFF4F0;}
	.st65{fill:#A2E0EB;}
	.st66{fill:#1B3493;}
	.st67{fill:none;stroke:#FFFFFF;stroke-width:2;stroke-linecap:round;stroke-linejoin:round;stroke-miterlimit:10;}
	.st68{fill:#F15A24;}
	.st69{fill:#F7931E;}
	.st70{fill:#58595B;}
	.st71{fill:#114E15;}
	.st72{fill:#013D01;}
	.st73{fill:#E9C608;}
	.st74{fill:#043B00;}
	.st75{fill:#D8A43E;}
	.st76{clip-path:url(#SVGID_00000003100884790682162860000011767576273098083004_);}
	.st77{fill:#F49630;}
	.st78{clip-path:url(#SVGID_00000001630675510879035690000005195374081208812429_);}
	.st79{clip-path:url(#SVGID_00000125586334143608473680000017396006154747529151_);}
	.st80{clip-path:url(#SVGID_00000163773495875227306760000017312375547783284876_);}
	.st81{clip-path:url(#SVGID_00000106865235694739373270000003876416441139813037_);}
	.st82{fill-rule:evenodd;clip-rule:evenodd;fill:#FF6600;}
	.st83{fill-rule:evenodd;clip-rule:evenodd;fill:#05174F;}
	.st84{fill:#05174F;}
	.st85{opacity:0.42;fill:url(#SVGID_00000178909778684381838640000014393072539916361090_);enable-background:new    ;}
	.st86{opacity:0.42;fill:url(#SVGID_00000058551278203647362750000010493437272172834734_);enable-background:new    ;}
	.st87{fill:url(#SVGID_00000121243605740416680080000008285635442583438778_);}
	.st88{fill:url(#SVGID_00000004504991795980655000000003526519323230256527_);}
	.st89{opacity:0.64;fill:url(#SVGID_00000092448998728713410680000008906238943714875826_);enable-background:new    ;}
	.st90{opacity:0.75;fill:url(#SVGID_00000078730477914742160670000008178504532973102998_);enable-background:new    ;}
	.st91{fill:url(#SVGID_00000181787747915622334650000007593038087127853211_);}
	.st92{fill:url(#SVGID_00000114776511189599200180000001120780491862977466_);}
	.st93{opacity:0.76;fill:url(#SVGID_00000032614294142465462080000003651312053582880423_);enable-background:new    ;}
	.st94{opacity:0.75;fill:url(#SVGID_00000150097582728560730090000000497517151347035019_);enable-background:new    ;}
	.st95{fill:url(#SVGID_00000016790791164703115650000006634675494820951689_);}
	.st96{opacity:0.42;fill:url(#SVGID_00000131339882577286573530000015043690115685777594_);enable-background:new    ;}
	.st97{opacity:0.42;fill:url(#SVGID_00000111906699667244771270000013609094245272213912_);enable-background:new    ;}
	.st98{clip-path:url(#SVGID_00000114060442543631345240000010339623208015369394_);}
	.st99{fill:#1ED7FE;}
	.st100{clip-path:url(#SVGID_00000101089581564377144050000001876993001149206420_);}
	.st101{clip-path:url(#SVGID_00000101824038331674977820000009650892340190657184_);}
	.st102{fill:#000056;}
	.st103{clip-path:url(#SVGID_00000111167483235985537490000009174728072530169021_);}
	.st104{enable-background:new    ;}
	.st105{fill:#053272;}
	.st106{fill:none;stroke:#053272;stroke-width:4;stroke-miterlimit:10;}
	.st107{fill:url(#SVGID_00000016068570111885988670000012608443058819724474_);}
	.st108{fill:url(#SVGID_00000101824889568819202310000005295799143944572040_);}
	.st109{fill:url(#SVGID_00000095301980390701096800000006626840212302774954_);}
	.st110{fill:url(#SVGID_00000180325321732375172890000006747556340091794853_);}
	.st111{fill:url(#SVGID_00000114057200368486782900000012205521600532591755_);}
	.st112{fill:url(#SVGID_00000114775819207903594470000016227542567620508076_);}
	.st113{fill:url(#SVGID_00000028296333827991135520000013070554753217542560_);}
	.st114{fill:url(#SVGID_00000152247404462711395690000004257772600763319460_);}
	.st115{fill:url(#SVGID_00000153707378795950827510000012933395794622987907_);}
	.st116{fill:url(#SVGID_00000163788506289301475920000000219073425110511786_);}
	.st117{fill:url(#SVGID_00000109730755731800066580000003435283224216045441_);}
	.st118{fill:url(#SVGID_00000170997988976830941650000006838595421558874005_);}
	.st119{fill:url(#SVGID_00000042717294853307624520000006208460671588565179_);}
	.st120{fill:url(#SVGID_00000074400766472123895130000007027572634176622977_);}
	.st121{fill:url(#SVGID_00000057850628932049547620000016445989892695304608_);}
	.st122{fill:url(#SVGID_00000067228520030827451490000016328478802777244825_);}
	.st123{fill:url(#SVGID_00000081629013613881747730000002937633586649941940_);}
	.st124{fill:url(#SVGID_00000111869629988372794520000004151605338768398467_);}
	.st125{fill:url(#SVGID_00000098184503717781930740000018431473783441750403_);}
	.st126{fill:url(#SVGID_00000162319685724334020580000013519854914275709082_);}
	.st127{fill:url(#SVGID_00000121961055260845232580000017581475437309452679_);}
	.st128{fill:url(#SVGID_00000025401098307638426820000017975091081878408867_);}
	.st129{fill:url(#SVGID_00000030457258826643336410000016680740929280407959_);}
	.st130{fill:url(#SVGID_00000004538690478570975790000006855383952297987488_);}
	.st131{fill:url(#SVGID_00000079469325433612554040000001040713814037239479_);}
	.st132{fill:url(#SVGID_00000015348764674338692350000008868066270433952186_);}
	.st133{fill:url(#SVGID_00000129178196809814947660000011876135737975269508_);}
	.st134{fill:url(#SVGID_00000018933311846076443970000011515679926727037612_);}
	.st135{fill:url(#SVGID_00000139270446400013341990000015665822872001076376_);}
	.st136{fill:none;stroke:#FEF73D;stroke-linecap:round;stroke-miterlimit:10;}
	.st137{fill:none;stroke:#FF189C;stroke-miterlimit:10;}
	.st138{fill:none;stroke:#00EFF1;stroke-linecap:round;stroke-miterlimit:10;}
	.st139{fill:#00EFF1;}
	.st140{fill:#FFA022;}
	.st141{fill:#0C103A;}
	.st142{fill-rule:evenodd;clip-rule:evenodd;fill:#5D9541;}
	.st143{fill-rule:evenodd;clip-rule:evenodd;fill:#F06021;}
	.st144{fill-rule:evenodd;clip-rule:evenodd;fill:#69BC60;}
	.st145{fill-rule:evenodd;clip-rule:evenodd;fill:#F6951C;}
	.st146{fill:#F6951C;}
	.st147{fill:url(#SVGID_00000182512630447063731470000011007192348716724659_);}
	.st148{fill:url(#SVGID_00000154405995460799792370000001088721569241053316_);}
	.st149{fill:url(#SVGID_00000047059646656543902690000000206549518300266422_);}
	.st150{opacity:0.93;fill:url(#SVGID_00000050628274413294194160000017464466109959949730_);}
	.st151{opacity:0.93;fill:url(#SVGID_00000136412165764111750590000009097152056741271208_);}
	.st152{opacity:0.93;fill:url(#SVGID_00000039819688475032319050000011558323530063583659_);}
	.st153{opacity:0.93;fill:url(#SVGID_00000110432674375451575850000001129992702094145192_);}
	.st154{fill:url(#SVGID_00000103252500169957227310000005200121138398698127_);}
	.st155{fill:url(#SVGID_00000064330971108956154350000008240553659665672127_);}
	.st156{fill:url(#SVGID_00000067196715787859434190000011683136139524203921_);}
	.st157{fill:url(#SVGID_00000053523375727182497050000003172509847001687696_);}
	.st158{fill:url(#SVGID_00000021805401897114576420000010956941093213590172_);}
	.st159{fill:url(#SVGID_00000163767930342953085150000003665774513411743142_);}
	.st160{fill:url(#SVGID_00000072980046637244114900000009716729125869197487_);}
	.st161{fill:url(#SVGID_00000081619054665576273740000002479248679062797466_);}
	.st162{fill:url(#SVGID_00000145045501142436089630000008839536834805930129_);}
	.st163{fill:url(#SVGID_00000131363720339493963200000003512955740837179045_);}
	.st164{fill:url(#SVGID_00000180354572850065630790000009659932031853502594_);}
	.st165{fill:url(#SVGID_00000068635856295287690210000003261413828770163358_);}
	.st166{fill:url(#SVGID_00000140718700052648305910000003583538988646398900_);}
	.st167{fill:url(#SVGID_00000098930239905552964930000007307145977313697434_);}
	.st168{fill:url(#SVGID_00000049904438938038384690000007681955678684678276_);}
	.st169{fill:url(#SVGID_00000181063664465261321660000016460547891157424271_);}
	.st170{fill:url(#SVGID_00000156563484357062295750000004798756608626361009_);}
	.st171{fill:url(#SVGID_00000176038639205177010480000017675603426515553938_);}
	.st172{fill:url(#SVGID_00000071561091704815038820000005887689830910887353_);}
	.st173{fill:url(#SVGID_00000088840512309431624450000012554204001254249137_);}
	.st174{fill:url(#SVGID_00000152262170571958063180000018401900299027530671_);}
	.st175{fill:url(#SVGID_00000029019868770617960490000015702096808978414475_);}
	.st176{fill:url(#SVGID_00000183933147340098981940000009806649077276927165_);}
	.st177{fill:url(#SVGID_00000034065608571294398960000010461143110618126998_);}
	.st178{fill:url(#SVGID_00000073698473795196881020000003860047024309421478_);}
	.st179{fill:url(#SVGID_00000148632954979923849480000003794547852676612529_);}
	.st180{fill:url(#SVGID_00000177466589950176030950000000933950501458720693_);}
	.st181{fill:url(#SVGID_00000178921782880651337690000004363326133788239795_);}
	.st182{fill:url(#SVGID_00000080181062400147231310000012831841641791273867_);}
	.st183{fill:url(#SVGID_00000065779919492681956720000014517895719753084331_);}
	.st184{fill:url(#SVGID_00000018195027095809693240000009176368130003181184_);}
	.st185{fill:url(#SVGID_00000028322520314519965900000010143736417518814135_);}
	.st186{fill:url(#SVGID_00000016797800916928314590000002650631083557456822_);}
	.st187{fill:url(#SVGID_00000008139034749670948410000017899152614691380893_);}
	.st188{fill:url(#SVGID_00000010286976297607233510000017719267068244004270_);}
	.st189{fill:url(#SVGID_00000010997544657262644950000004159134068025577877_);}
	.st190{fill:url(#SVGID_00000047745361448364279730000009838709283539160986_);}
	.st191{fill:url(#SVGID_00000105410502962368867390000002784994017067153074_);}
	.st192{fill:url(#SVGID_00000004509170652466351710000012479406937665707654_);}
	.st193{fill:url(#SVGID_00000134959078161800702060000016502185787624895879_);}
	.st194{fill:url(#SVGID_00000176746518232621484200000002476329452626126228_);}
	.st195{fill:url(#SVGID_00000017511242170775549770000011583423407414730390_);}
	.st196{fill:url(#SVGID_00000071520995839718688990000011266066212708315025_);}
	.st197{fill:url(#SVGID_00000069390418543679213220000016844725288547610776_);}
	.st198{fill:url(#SVGID_00000165925963852582849530000001650842757085985199_);}
	.st199{fill-rule:evenodd;clip-rule:evenodd;fill:#512100;}
	.st200{fill-rule:evenodd;clip-rule:evenodd;fill:#006D62;}
	.st201{fill-rule:evenodd;clip-rule:evenodd;}
	.st202{fill-rule:evenodd;clip-rule:evenodd;fill:#00A1F5;}
	.st203{fill-rule:evenodd;clip-rule:evenodd;fill:#FACFAB;}
	.st204{fill-rule:evenodd;clip-rule:evenodd;fill:#F29673;}
	.st205{fill-rule:evenodd;clip-rule:evenodd;fill:#FFFFFF;}
	.st206{fill-rule:evenodd;clip-rule:evenodd;fill:#333333;}
	.st207{fill-rule:evenodd;clip-rule:evenodd;fill:#BD4D00;}
	.st208{fill-rule:evenodd;clip-rule:evenodd;fill:#B2B2B2;}
	.st209{fill-rule:evenodd;clip-rule:evenodd;fill:#F2CC29;}
	.st210{fill-rule:evenodd;clip-rule:evenodd;fill:#005C9C;}
	.st211{fill-rule:evenodd;clip-rule:evenodd;fill:#8AC900;}
	.st212{fill-rule:evenodd;clip-rule:evenodd;fill:#808080;}
	.st213{fill-rule:evenodd;clip-rule:evenodd;fill:#CFA605;}
	.st214{fill-rule:evenodd;clip-rule:evenodd;fill:#666666;}
	.st215{fill-rule:evenodd;clip-rule:evenodd;fill:#CCCCCC;}
	.st216{fill:#960000;}
	.st217{fill:url(#SVGID_00000124875667777821683150000006062665072068223880_);}
	.st218{fill:url(#SVGID_00000085945972198581082380000004445962984331631782_);}
	.st219{opacity:0.51;fill:url(#SVGID_00000060004681987882105860000014888746643544693124_);}
	.st220{fill:url(#SVGID_00000158001310211763450880000006597197917178269110_);}
	.st221{fill:url(#SVGID_00000090285121002521247040000015797840267930307262_);}
	.st222{fill:url(#SVGID_00000025404939712648121310000017272822324988675456_);}
	.st223{opacity:0.35;fill:url(#SVGID_00000101082985552207010380000001551507047328069534_);}
	.st224{opacity:0.35;fill:url(#SVGID_00000164507261386033346760000018363281617405620395_);}
	.st225{fill:#F06021;}
	.st226{fill-rule:evenodd;clip-rule:evenodd;fill:url(#SVGID_00000137122065052170589740000009632484899627046073_);}
	.st227{fill-rule:evenodd;clip-rule:evenodd;fill:url(#SVGID_00000142871361740029576380000006405937756827494577_);}
	.st228{fill-rule:evenodd;clip-rule:evenodd;fill:url(#SVGID_00000159460837643510873900000011776632594479239824_);}
	.st229{fill-rule:evenodd;clip-rule:evenodd;fill:url(#SVGID_00000027601382475043100840000008979702756507468955_);}
	.st230{fill-rule:evenodd;clip-rule:evenodd;fill:url(#SVGID_00000046325368359472004680000001533460550347940000_);}
	.st231{fill-rule:evenodd;clip-rule:evenodd;fill:url(#SVGID_00000007394462173290261990000005177415894670429339_);}
	.st232{fill-rule:evenodd;clip-rule:evenodd;fill:url(#SVGID_00000156574710144027208100000010331057288215456403_);}
	.st233{fill-rule:evenodd;clip-rule:evenodd;fill:url(#SVGID_00000068677377498893683130000004821559659953406603_);}
	.st234{fill-rule:evenodd;clip-rule:evenodd;fill:url(#SVGID_00000127045163460802334330000005881601731945679805_);}
	.st235{fill-rule:evenodd;clip-rule:evenodd;fill:url(#SVGID_00000022549346852263010020000005910805758573234860_);}
	.st236{fill-rule:evenodd;clip-rule:evenodd;fill:url(#SVGID_00000120550034024950662150000017761475215018018983_);}
	.st237{fill-rule:evenodd;clip-rule:evenodd;fill:url(#SVGID_00000039107365027042144580000016069990774909834396_);}
	.st238{fill-rule:evenodd;clip-rule:evenodd;fill:url(#SVGID_00000078748407332370610300000007838778799861110462_);}
	.st239{opacity:0.5;fill-rule:evenodd;clip-rule:evenodd;fill:#5D0101;enable-background:new    ;}
	.st240{fill:#E11B22;}
	.st241{fill:#959595;}
	.st242{fill:#003359;}
	.st243{fill:#1779C1;}
	.st244{fill:#0EB17C;}
	.st245{fill:#2B2353;}
	.st246{fill:#BE264E;}
	.st247{fill:#EAA41C;}
	.st248{fill:#1F9EF3;}
	.st249{fill:#0267A3;}
	.st250{fill:#FFEC00;}
	.st251{fill:#00A0E0;}
	.st252{fill:#E3007E;}
	.st253{fill:none;stroke:#000000;stroke-width:2;stroke-miterlimit:10;}
	.st254{fill:#FF9E80;}
	.st255{fill:#414151;}
	.st256{fill:#2B295E;}
	.st257{fill:#CCCCCC;}
	.st258{fill:#FF8C5C;}
	.st259{fill:#DBA21C;}
	.st260{fill:#EDDBB2;}
	.st261{fill:#DEC58B;}
	.st262{fill:#997113;}
	.st263{fill:#B88817;}
	.st264{fill:#003400;stroke:#8EC13D;stroke-width:4;stroke-miterlimit:10;}
	.st265{fill:#8EC13D;}
	.st266{fill:url(#XMLID_00000122714445604993331010000004200617326061639592_);}
	.st267{fill:url(#SVGID_00000069381344341379286140000002328155531501495425_);}
	.st268{fill:url(#SVGID_00000171705400748326846590000016314015902977687737_);}
	.st269{fill:url(#SVGID_00000145028992528460478270000000081575228038057384_);}
	.st270{fill:url(#SVGID_00000067920948257067483450000001254056589975206823_);}
	.st271{fill:url(#SVGID_00000129188673186206899840000002183959678933119928_);}
	.st272{fill:url(#SVGID_00000147184039282764923050000000695141197170611362_);}
	.st273{fill:url(#SVGID_00000145025740107341621110000007009440896682910888_);}
	.st274{fill:url(#SVGID_00000116201032733936064010000004129978238988155308_);}
	.st275{fill:url(#SVGID_00000048500910333704801210000015863409113637590683_);}
	.st276{fill:url(#SVGID_00000044153554004032075310000016600228384666020786_);}
	.st277{fill:url(#SVGID_00000125564067773120837670000002682308594128336831_);}
	.st278{fill:#1C75BC;}
	.st279{fill:#FF9400;}
	.st280{fill:#46920C;}
	.st281{fill:url(#SVGID_00000160878573020179495480000013732692161786558595_);}
	.st282{fill:url(#SVGID_00000093855947921445101970000012543492416124830641_);}
	.st283{fill:url(#SVGID_00000116224081065275684840000012562696090406183338_);}
	.st284{fill:url(#SVGID_00000015337034896128886700000005651775794777378713_);}
	.st285{fill:url(#SVGID_00000043429704281585083250000006883249519049936553_);}
	.st286{fill:url(#SVGID_00000039849477767721804230000015095139298784605580_);}
	.st287{fill:url(#SVGID_00000119836193492099649280000016606063868699614632_);}
	.st288{fill:url(#SVGID_00000110443639894249825920000010068744606200879008_);}
	.st289{fill:url(#SVGID_00000163771943445255384090000006419500203895219128_);}
	.st290{fill:url(#SVGID_00000100381070377961668310000000567681635739653271_);}
	.st291{fill:url(#SVGID_00000090255856126980825830000006338978090919744651_);}
	.st292{fill:url(#SVGID_00000179628095197094196400000008938903251764517763_);}
	.st293{fill:url(#SVGID_00000049917433663431558980000006787259620353645970_);}
	.st294{fill:url(#SVGID_00000057859596569893931940000000843485880352227492_);}
	.st295{fill:url(#SVGID_00000131361071186032350670000011035788192505060541_);}
	.st296{fill:url(#SVGID_00000058560555547681019600000005620623973722834837_);}
	.st297{fill:url(#SVGID_00000101798341907966930780000006947873021761706388_);}
	.st298{fill:url(#SVGID_00000173118423096969713620000001351213401708378803_);}
	.st299{fill:url(#SVGID_00000017482569747212650280000016771450868593397385_);}
	.st300{fill:#2F3F67;}
	.st301{fill:#C97F32;}
	.st302{fill:none;stroke:#C97F32;stroke-width:1.2891;stroke-miterlimit:10;}
	.st303{fill:url(#XMLID_00000019654549857325742320000002104818975020613553_);}
	.st304{fill:#00548B;}
	.st305{fill:#004368;}
	.st306{fill:#94070A;}
	.st307{fill:url(#XMLID_00000181773587617164466140000010249851282033546162_);}
	.st308{fill:url(#XMLID_00000110468358034951322200000003736294002442877606_);}
	.st309{fill:#B34A06;}
	.st310{fill:#A2B5C4;}
	.st311{fill:#192940;}
</style>
<g>
	<g id="OBJECTS_00000013150893709743032080000009368423255348164027_">
		<g>
			<path class="st14" d="M252.55,90.83c3.06-9.42,1.23-19.73-4.89-27.61c-1.58-3.4-4.12-5.84-6.37-7.99
				c-1.56-1.49-3.17-3.04-4.49-4.85c-3.42-4.69-7.67-10.52-14.18-12.8c-2.32-0.81-4.8-1.22-7.36-1.22c-2.53,0-5.12,0.38-7.91,1.17
				l-18.5-10.61c-4.5-2.58-9.64-3.95-14.86-3.95c-5.22,0-10.36,1.36-14.86,3.95l-18.5,10.61c-2.78-0.79-5.38-1.17-7.91-1.17
				c-2.56,0-5.04,0.41-7.36,1.22c-6.51,2.27-10.77,8.11-14.18,12.8c-1.32,1.81-2.93,3.35-4.49,4.85c-2.25,2.15-4.79,4.59-6.37,7.99
				c-6.12,7.88-7.95,18.19-4.89,27.61l18.75,57.72c0.5,1.53,1.11,3.01,1.84,4.44h-10.63c-4.64,0-8.42,3.78-8.42,8.42v4.31
				c0,1.76,0.54,3.43,1.55,4.86v2.12c-1.02,1.43-1.55,3.1-1.55,4.86v4.31c0,4.64,3.78,8.42,8.42,8.42h12.15
				c1.55,0,3.07-0.15,4.52-0.45c0.32-0.07,0.64-0.14,0.96-0.23v7c0,4.65,3.78,8.43,8.43,8.43h85.07c4.65,0,8.43-3.78,8.43-8.43
				v-7.53c0.55,0.23,1.11,0.44,1.69,0.62c2.04,0.63,4.29,0.96,6.69,0.96c1.37,0,2.67-0.07,3.86-0.22c1.13-0.14,2.19-0.33,3.15-0.55
				c1.06-0.25,2.05-0.54,2.93-0.88c0.75-0.29,1.44-0.58,2.05-0.88c2.88-1.4,4.74-4.37,4.74-7.57v-0.77c0.85-1.35,1.3-2.89,1.3-4.49
				v-3.92c0-1.6-0.45-3.14-1.3-4.49v-4.14c0-3.2-1.86-6.17-4.74-7.57c-0.61-0.3-1.3-0.59-2.06-0.88c-0.85-0.33-1.8-0.62-2.82-0.87
				c-1-0.24-2.1-0.44-3.27-0.59c-1.19-0.15-2.5-0.22-3.89-0.22c-0.39,0-0.77,0.01-1.16,0.03c0.65-1.32,1.21-2.69,1.67-4.09
				L252.55,90.83z"/>
			<path class="st256" d="M224.05,191.01c0.95,0.53,1.84-2.66,2.92-2.33c1.94,0.6,4.09,0.91,6.38,0.91c1.33,0,2.59-0.07,3.73-0.21
				c1.09-0.14,2.12-0.31,3.05-0.53c1.02-0.24,1.96-0.52,2.79-0.84c0.72-0.27,1.38-0.56,1.97-0.85c2.52-1.22,4.14-3.82,4.14-6.62
				v-1.09c0.84-1.22,1.3-2.68,1.3-4.17v-3.92c0-1.49-0.46-2.95-1.3-4.17v-4.46c0-2.8-1.63-5.4-4.15-6.62
				c-0.58-0.28-1.25-0.57-1.97-0.85c-0.8-0.31-1.71-0.59-2.69-0.83c-0.95-0.23-2.02-0.42-3.15-0.56c-1.15-0.14-2.41-0.21-3.76-0.21
				c-1.03,0-2.03,0.06-3.01,0.19c1.03-1.77,1.88-3.66,2.52-5.63l18.75-57.72c4.19-12.9-1.31-27.15-13.07-33.9l-50.15-28.77
				c-8.84-5.07-19.83-5.07-28.68,0L109.51,56.6c-11.76,6.75-17.26,21-13.07,33.9l18.75,57.72c0.66,2.04,1.54,3.98,2.63,5.81
				c-0.09,0-0.18,0-0.27,0h-12.15c-4.06,0-7.36,3.3-7.36,7.36v4.31c0,1.64,0.55,3.22,1.55,4.51v2.81c-1.01,1.29-1.55,2.87-1.55,4.51
				v4.31c0,4.06,3.3,7.36,7.36,7.36h12.15c1.48,0,2.93-0.14,4.3-0.43c0.77-0.16,1.51,2.46,2.22,2.2L224.05,191.01z"/>
			<path class="st257" d="M247.44,167.72v-4.98c0-2.2-1.28-4.24-3.26-5.2c-0.54-0.27-1.17-0.53-1.85-0.79
				c-0.74-0.29-1.59-0.54-2.5-0.77c-0.89-0.22-1.89-0.4-2.97-0.53c-1.08-0.13-2.28-0.2-3.57-0.2c-2.11,0-4.09,0.28-5.88,0.84
				c-1.71,0.53-3.24,1.34-4.57,2.41c-0.73-0.6-1.53-1.1-2.39-1.53c-4.38,3.17-9.53,5.55-14.71,6.46
				c-7.79,1.36-15.63,0.64-23.47,0.15c-8.03-0.5-16.05,0.11-24.08-0.31c-2.65-0.14-5.29-0.38-7.91-0.71
				c-9.16,1.09-19.03,0.22-23.92-6.94h-0.45c-1.09,0-2.12,0.3-2.99,0.83c-1.59-0.55-3.38-0.83-5.35-0.83h-12.15
				c-3.19,0-5.79,2.6-5.79,5.79v4.31c0,1.51,0.59,2.9,1.55,3.93v3.97c-0.96,1.04-1.55,2.42-1.55,3.93v4.31
				c0,3.19,2.6,5.79,5.79,5.79h12.15c1.37,0,2.71-0.13,3.98-0.4c1.56-0.32,2.98-0.88,4.24-1.67c0.2-0.13,0.4-0.26,0.59-0.4
				c1.32,1.03,2.87,1.78,4.61,2.24c1.51,0.39,3.19,0.59,4.97,0.59c1.75,0,3.41-0.2,4.91-0.6c0.83-0.22,1.61-0.51,2.35-0.86
				c0.95,0.69,2.12,1.09,3.38,1.09h16.29c0.18,0,0.36-0.01,0.54-0.03c0.18,0.02,0.36,0.03,0.54,0.03h16.29
				c0.19,0,0.38-0.01,0.57-0.03c0.19,0.02,0.38,0.03,0.57,0.03h10.78c1.88,0,3.69-0.25,5.37-0.75c1.63-0.49,3.11-1.25,4.41-2.28
				c1.35,1.14,2.93,2,4.7,2.56c1.78,0.56,3.74,0.85,5.83,0.85c2.08,0,4.04-0.28,5.83-0.85c1.69-0.53,3.21-1.34,4.52-2.41
				c1.34,1.08,2.87,1.89,4.59,2.42c1.79,0.56,3.78,0.84,5.91,0.84c1.27,0,2.46-0.07,3.54-0.2c1.04-0.13,2.01-0.3,2.88-0.5
				c0.95-0.22,1.81-0.48,2.58-0.77c0.68-0.26,1.3-0.52,1.84-0.79c1.98-0.96,3.26-3,3.26-5.2v-1.61c0.81-1,1.3-2.28,1.3-3.65v-3.92
				C248.74,169.99,248.25,168.71,247.44,167.72z"/>
			<g>
				<path class="st257" d="M205.4,166.55H142.6c-11.84,0-22.25-7.56-25.9-18.82L97.95,90.02c-3.96-12.19,1.23-25.67,12.35-32.04
					l50.15-28.77c8.36-4.8,18.75-4.8,27.11,0l50.15,28.77c11.12,6.38,16.31,19.85,12.35,32.04l-18.75,57.72
					C227.64,158.99,217.23,166.55,205.4,166.55z M174,30.87c-3.78,0-7.56,0.97-10.94,2.9l-50.15,28.77
					c-8.97,5.15-13.16,16.02-9.97,25.86l18.75,57.72c2.95,9.08,11.35,15.19,20.9,15.19h62.79c9.55,0,17.95-6.1,20.9-15.19
					l18.75-57.72c3.2-9.84-1-20.71-9.97-25.86l-50.15-28.77C181.56,31.83,177.78,30.87,174,30.87z"/>
			</g>
			<g>
				<path class="st258" d="M180.69,116.62c-0.32-0.33-0.63-0.65-0.94-0.99c-1.72-0.39-3.49-0.61-5.26-0.64
					c-0.55,3.13-1.33,6.45-1.8,9.51c-0.16-3.15-0.32-6.3-0.47-9.45c-1.35,0.09-2.68,0.3-4,0.6c-0.3,0.33-0.61,0.65-0.92,0.97
					c-1.18,3.53-1.69,7.36-1.32,11.05c0.04-0.09,0.09-0.18,0.14-0.27c0.62-1.02,2.09-1.67,3.27-1.03c0.32,0.17,0.6,0.41,0.84,0.7
					c0.54-0.77,1.4-1.17,2.22-1.05c0.6,0.09,1.16,0.48,1.54,1.05c0.38-0.57,0.94-0.96,1.54-1.05c0.82-0.12,1.68,0.29,2.22,1.05
					c0.24-0.29,0.52-0.53,0.84-0.7c1.18-0.64,2.65,0.01,3.27,1.03c0.05,0.09,0.1,0.18,0.14,0.27
					C182.38,123.98,181.87,120.15,180.69,116.62z"/>
				<path class="st256" d="M203.18,140.22c-0.2-0.53-0.26-0.97-0.2-1.41c-2.38-1.77-3.9-4.45-5.72-6.81
					c-2.49-3.23-5.59-5.89-8.75-8.5c0.57,3.25,0.94,6.03,0.9,9.26c0,0.05-0.01,0.11-0.02,0.16c2.4,1.3,4.65,2.87,6.66,4.69
					c0.79,0.72,1.57,1.49,2.32,2.24c2.3,2.28,4.48,4.44,7.28,5.5c-0.13-0.81-0.62-1.62-1-2.35
					C204.16,142.06,203.56,141.19,203.18,140.22z"/>
				<path class="st258" d="M182.24,128.29c0.03,0.12,0.06,0.24,0.08,0.37c1.07-2.4,2.39-4.59,4.12-6.87
					c-0.9-0.74-1.79-1.49-2.66-2.25C184.23,122.51,183.7,125.65,182.24,128.29z"/>
				<path class="st14" d="M183.32,130.33c1.55,0.49,3.06,1.09,4.52,1.79c-0.01-2.86-0.36-5.42-0.88-8.39
					C185.42,125.89,184.27,127.99,183.32,130.33z"/>
				<path class="st14" d="M180.53,128.24c-0.26-0.43-0.84-0.66-1.18-0.47c-0.4,0.22-0.69,0.73-0.81,1.39
					c0.75,0.13,1.48,0.29,2.22,0.46C180.81,129.18,180.78,128.66,180.53,128.24z"/>
				<path class="st259" d="M141.83,141.39c0.13-0.47,0.32-0.93,0.55-1.36c-2.08,0.46-4.32-0.05-5.68-1.72
					c1.36,1.31,3.64,1.13,5.24,0.14c1.6-0.99,2.69-2.61,3.79-4.13c3.95-5.5,8.61-10.48,13.82-14.79c3.74-3.09,7.84-5.92,10.59-9.92
					c1.47-2.15,2.48-4.61,3-7.17c-0.5-2.77-0.83-5.64-0.71-8.41c-0.85-0.21-1.66-0.83-2.09-1.48c-0.47-0.72-0.53-1.48-0.15-2.1
					c0.32-0.52,0.65-1.05,0.73-1.59c0.06-0.43-0.09-0.85-0.35-0.99c-0.16-0.09-0.33-0.05-0.46-0.01c-0.29,0.1-0.56,0.35-0.68,0.63
					l-0.07,0.16c-0.29,0.68-0.74,1.71-0.59,2.28c0.07,0.28-0.01,0.57-0.22,0.77c-0.96,0.91-2.29,1.38-3.75,1.33
					c-1.15-0.05-2.24-0.42-3.12-1.06c-8.63,3.07-16.66,9-21.51,16.74c3.86-9.41,12.07-16.91,21.76-20c0.11-0.24,0.23-0.5,0.34-0.75
					c0.1-0.23,0.2-0.47,0.31-0.7c1.2-2.6,3.13-4.62,5.44-5.68c1.89-0.86,4.05-1.04,5.97-0.49c1.92-0.55,4.08-0.38,5.97,0.49
					c2.31,1.06,4.24,3.07,5.44,5.68c0,0,0,0,0,0c0.11,0.23,0.21,0.46,0.31,0.7c0.11,0.26,0.22,0.51,0.34,0.75
					c9.69,3.08,17.9,10.58,21.76,20c-4.86-7.74-12.88-13.67-21.51-16.74c-0.88,0.64-1.97,1.01-3.12,1.06
					c-1.46,0.06-2.78-0.41-3.75-1.33c-0.21-0.2-0.29-0.49-0.22-0.77c0.15-0.57-0.29-1.6-0.59-2.28l-0.07-0.16
					c-0.12-0.28-0.39-0.53-0.68-0.63c-0.12-0.04-0.3-0.08-0.46,0.01c-0.26,0.14-0.41,0.57-0.35,0.99c0.08,0.54,0.41,1.07,0.73,1.59
					c0.38,0.61,0.33,1.38-0.15,2.1c-0.43,0.66-1.24,1.27-2.09,1.48c0.13,2.77-0.21,5.64-0.71,8.41c0.52,2.56,1.53,5.02,3,7.17
					c2.74,4.01,6.84,6.83,10.59,9.92c5.22,4.31,9.88,9.3,13.82,14.79c1.1,1.53,2.19,3.14,3.79,4.13c1.6,0.99,3.88,1.17,5.24-0.14
					c-1.36,1.68-3.6,2.19-5.68,1.72c0.23,0.43,0.42,0.88,0.55,1.36c0.36,1.33,0.27,2.77-0.24,4.05c0.04,0.01,0.08,0.03,0.12,0.04
					c0.46-0.19,0.92-0.35,1.33-0.46c1.96-0.53,3.84-1.35,5.57-2.43c1.63-3.94,1.94-8.42,0.82-12.54c0.78,2.07,1.56,4.14,2.34,6.21
					c1.03-12.33-1.79-24.14-5.45-35.96c1.91,6.27,4.83,12.19,6.91,18.41c1.86,5.54,3.05,11.49,2.19,17.23
					c0.7-1.07,1.31-2.21,1.79-3.39c2.3-5.58,2.28-12.01,1.94-18.22c-0.99-4.2-2.53-8.28-4.58-12.08c1.93,2.8,3.74,5.69,5.42,8.65
					c-0.3-2.31-0.92-4.59-1.83-6.74c1.27,1.97,2.55,3.94,3.82,5.91c2.69-2.72,4.6-6.21,5.38-9.95c1.02-4.85,0.15-10.08-2.39-14.33
					c-0.59-0.99-1.27-1.87-1.93-2.72c-1.43-1.85-2.79-3.6-3.12-6.27c-0.02-0.14,0.01-0.27,0.06-0.4c-0.95-2.17-1.9-4.33-2.85-6.5
					c1.37,0.34,2.74,0.68,4.11,1.03c-3.28-2.03-5.6-5.55-6.17-9.37c1.17,0.24,2.33,0.48,3.5,0.73c-3.35-2.58-5.75-6.92-5.89-11.15
					c-0.06-1.96,2.34-3.25,4.24-2.76c1.9,0.49,3.26,2.12,4.32,3.77c2.22,3.43,3.74,7.28,6.08,10.63c1.89,2.7,4.52,5.13,7.61,6.08
					c0.86-0.13,1.72-0.15,2.58-0.02c2.14,0.33,3.39,0.1,3.93-0.72c0.44-0.65,0.37-1.68-0.21-3.12c-1.3-3.26-3.64-5.5-6.11-7.87
					c-1.64-1.57-3.34-3.2-4.79-5.2c-3.93-5.39-7.62-10.01-12.92-11.86c-4.93-1.72-10.34-1.38-16.88,1.06
					c1.59,2.47,3.19,5.1,4.77,7.53c-3.22-3.3-6.97-6.07-11.05-8.21c-7.75-2.74-16.59-2.77-24.34,0.03c-0.17,0.06-0.36,0.06-0.54,0
					c-7.75-2.81-16.58-2.77-24.34-0.03c-4.08,2.14-7.83,4.92-11.05,8.21c1.58-2.43,3.19-5.06,4.77-7.53
					c-6.54-2.45-11.94-2.79-16.88-1.06c-5.31,1.85-8.99,6.47-12.92,11.86c-1.46,2-3.15,3.62-4.79,5.2
					c-2.47,2.37-4.81,4.61-6.11,7.87c-0.58,1.45-0.64,2.47-0.21,3.12c0.55,0.82,1.8,1.05,3.93,0.72c0.86-0.13,1.72-0.11,2.58,0.02
					c3.09-0.95,5.72-3.38,7.61-6.08c2.34-3.35,3.86-7.2,6.08-10.63c1.06-1.64,2.42-3.28,4.32-3.77c1.9-0.49,4.3,0.81,4.24,2.76
					c-0.14,4.23-2.54,8.57-5.89,11.15c1.17-0.24,2.33-0.48,3.5-0.73c-0.57,3.82-2.89,7.34-6.17,9.37c1.37-0.34,2.74-0.68,4.11-1.03
					c-0.95,2.17-1.9,4.33-2.85,6.5c0.05,0.13,0.08,0.26,0.06,0.4c-0.33,2.67-1.69,4.42-3.12,6.27c-0.66,0.85-1.33,1.72-1.93,2.72
					c-2.54,4.26-3.41,9.48-2.39,14.33c0.79,3.74,2.7,7.23,5.38,9.95c1.27-1.97,2.55-3.94,3.82-5.91c-0.91,2.15-1.52,4.42-1.83,6.74
					c1.68-2.96,3.49-5.85,5.42-8.65c-2.05,3.8-3.59,7.87-4.58,12.07c-0.34,6.21-0.36,12.63,1.94,18.22
					c0.49,1.18,1.09,2.32,1.79,3.39c-0.86-5.74,0.33-11.69,2.19-17.23c2.09-6.22,5-12.14,6.91-18.41
					c-3.66,11.82-6.48,23.63-5.45,35.96c0.78-2.07,1.56-4.14,2.34-6.21c-1.12,4.12-0.81,8.6,0.82,12.54
					c1.73,1.07,3.61,1.9,5.57,2.43c0.42,0.11,0.87,0.27,1.34,0.46c0.04-0.01,0.08-0.03,0.12-0.04
					C141.57,144.16,141.47,142.72,141.83,141.39z M182.59,69.86c-0.7,2.68-0.69,5.68,0.5,8.18c-2.23-2.23-3.16-5.67-2.36-8.72
					c0.79-3.05,3.29-5.59,6.32-6.45C184.77,64.47,183.29,67.18,182.59,69.86z M219.43,42.42c2.64-0.01,5.12,1.43,6.98,3.3
					c1.86,1.88,3.21,4.19,4.63,6.42c1.42,2.23,2.95,4.46,5.07,6.04c-2.31-0.47-4.53-2.05-6.09-3.81c-1.57-1.76-2.84-3.76-4.38-5.54
					c-1.54-1.78-3.44-3.38-5.72-3.96c-2.28-0.58-5.05-0.05-6.36,1.91C214.07,44.2,216.79,42.43,219.43,42.42z M216.21,67.86
					c-7.23-3.03-15.28-6.12-22.27-9.67C202.19,58.64,210.24,62.14,216.21,67.86z M198.79,75.94c3.67-1.96,8.2-0.33,11.79,1.75
					c3.6,2.09,7.21,4.71,11.36,4.74c-2.51,1.67-6.45,2.09-9.35,1.26c-1.11-0.32-2.17-0.81-3.22-1.33c-0.32,0.64-0.68,1.26-1.1,1.83
					c-0.86,1.17-2.04,2.16-3.44,2.54c-0.78,0.21-1.58,0.22-2.38,0.09c0.41,0.34,0.84,0.67,1.3,0.96c3.49,2.19,8.18,2.33,11.79,0.33
					c-1.31,2.99-5.16,4.16-8.35,3.45s-5.85-2.82-8.38-4.88c-2.53-2.06-4.34-5.38-7.52-6.13C194.29,80.46,196.16,77.35,198.79,75.94z
					 M182.09,44.81c2.11-0.52,4.4-0.28,6.36,0.65c-3.73-0.15-8.44,1.06-11.71,2.87C178.05,46.59,179.98,45.33,182.09,44.81z
					 M182.99,50.8c2.61-0.64,5.43-0.35,7.86,0.8c-4.6-0.19-10.42,1.31-14.46,3.54C178.01,53,180.38,51.44,182.99,50.8z
					 M164.91,78.04c1.19-2.5,1.2-5.5,0.5-8.18c-0.7-2.68-2.19-5.39-4.45-6.99c3.03,0.86,5.52,3.41,6.32,6.45
					C168.07,72.38,167.14,75.81,164.91,78.04z M165.91,44.81c2.11,0.52,4.03,1.78,5.35,3.51c-3.27-1.81-7.98-3.02-11.71-2.87
					C161.51,44.53,163.8,44.29,165.91,44.81z M165.01,50.8c2.61,0.64,4.98,2.2,6.6,4.34c-4.03-2.23-9.85-3.73-14.46-3.54
					C159.58,50.45,162.41,50.16,165.01,50.8z M154.06,58.19c-6.99,3.55-15.04,6.64-22.27,9.67
					C137.76,62.14,145.81,58.64,154.06,58.19z M128.09,44.88c-2.28,0.58-4.18,2.18-5.72,3.96c-1.54,1.78-2.81,3.78-4.38,5.54
					c-1.57,1.76-3.79,3.33-6.09,3.81c2.12-1.59,3.65-3.81,5.07-6.04c1.42-2.23,2.77-4.54,4.63-6.42c1.86-1.88,4.34-3.31,6.98-3.3
					c2.64,0.01,5.36,1.78,5.88,4.37C133.14,44.83,130.37,44.3,128.09,44.88z M132.44,88.13c3.61,1.99,8.3,1.86,11.79-0.33
					c0.46-0.29,0.89-0.62,1.3-0.96c-0.79,0.13-1.6,0.12-2.38-0.09c-1.4-0.39-2.57-1.38-3.44-2.54c-0.42-0.57-0.78-1.19-1.1-1.83
					c-1.05,0.52-2.1,1.02-3.22,1.33c-2.9,0.82-6.84,0.4-9.35-1.26c4.16-0.03,7.77-2.66,11.36-4.74s8.13-3.71,11.79-1.75
					c2.63,1.41,4.5,4.52,7.48,4.61c-3.18,0.76-4.99,4.07-7.52,6.13s-5.19,4.17-8.38,4.88C137.6,92.28,133.75,91.12,132.44,88.13z"/>
				<path class="st260" d="M208.82,96.31c0.46,2.2,0.92,4.4,1.38,6.6c-6.67-5.22-13.2-10.69-19.88-15.91
					c-0.44-1.18-0.24-2.59,0.53-3.59c-1.09,0.37-2.19,0.75-3.28,1.12c1.14-5.16,3.13-10.12,5.87-14.64
					c-2.35,0.51-4.7,1.02-7.05,1.53c0.99-3.72,2.9-7.19,5.51-10.01c-0.96,0.05-1.91,0.09-2.87,0.14c0.61-0.63,1.27-1.2,1.98-1.7
					c-1.65,0.28-3.29,0.57-4.94,0.85c2.42-1.36,4.95-2.53,7.55-3.5c-4.84-0.19-9.72,1.09-13.88,3.57c4.2-5.23,10.87-8.44,17.59-8.35
					c-5.38-1.91-11.21-2.56-16.87-1.87c3.88-2.87,8.6-4.57,13.42-4.85c-4.72-2.01-10.06-2.57-15.1-1.57c2.6-2.16,5.4-4.08,8.35-5.73
					c-4.38-0.08-8.78,0.6-12.87,2.08c-0.17,0.06-0.36,0.06-0.54,0c-4.09-1.48-8.49-2.16-12.87-2.08c2.95,1.66,5.75,3.58,8.35,5.73
					c-5.04-1-10.37-0.44-15.1,1.57c4.82,0.28,9.54,1.98,13.42,4.85c-5.67-0.69-11.49-0.05-16.87,1.87
					c6.72-0.09,13.39,3.11,17.59,8.35c-4.16-2.48-9.04-3.76-13.88-3.57c2.6,0.97,5.13,2.15,7.55,3.5c-1.65-0.28-3.29-0.57-4.94-0.85
					c0.71,0.5,1.37,1.08,1.98,1.7c-0.96-0.05-1.91-0.09-2.87-0.14c2.62,2.82,4.53,6.29,5.51,10.01c-2.35-0.51-4.7-1.02-7.05-1.53
					c2.74,4.51,4.73,9.48,5.87,14.64c-1.09-0.37-2.19-0.75-3.28-1.12c0.76,1.01,0.97,2.41,0.53,3.59
					c-6.67,5.22-13.2,10.69-19.88,15.91c0.46-2.2,0.92-4.4,1.38-6.6c-6.79,7.67-11.83,16.86-14.75,26.67
					c0.21,3.32,0.77,6.57,2.01,9.57c0.49,1.18,1.09,2.32,1.79,3.39c-0.86-5.74,0.33-11.69,2.19-17.23c2.09-6.22,5-12.14,6.91-18.41
					c-3.66,11.82-6.48,23.63-5.45,35.96c0.78-2.07,1.56-4.14,2.34-6.21c-1.12,4.12-0.81,8.6,0.82,12.54
					c1.73,1.07,3.61,1.9,5.57,2.43c0.42,0.11,0.87,0.27,1.34,0.46c0.04-0.01,0.08-0.03,0.12-0.04c-0.51-1.28-0.6-2.72-0.24-4.05
					c0.13-0.47,0.32-0.93,0.55-1.36c-2.08,0.46-4.32-0.05-5.68-1.72c1.36,1.31,3.64,1.13,5.24,0.14c1.6-0.99,2.69-2.61,3.79-4.13
					c3.95-5.5,8.61-10.48,13.82-14.79c3.74-3.09,7.84-5.92,10.59-9.92c1.47-2.15,2.48-4.61,3-7.17c-0.5-2.77-0.83-5.64-0.71-8.41
					c-0.85-0.21-1.66-0.83-2.09-1.48c-0.47-0.72-0.53-1.48-0.15-2.1c0.32-0.52,0.65-1.05,0.73-1.59c0.06-0.43-0.09-0.85-0.35-0.99
					c-0.16-0.09-0.33-0.05-0.46-0.01c-0.29,0.1-0.56,0.35-0.68,0.63l-0.07,0.16c-0.29,0.68-0.74,1.71-0.59,2.28
					c0.07,0.28-0.01,0.57-0.22,0.77c-0.96,0.91-2.29,1.38-3.75,1.33c-1.15-0.05-2.24-0.42-3.12-1.06c-8.63,3.07-16.66,9-21.51,16.74
					c3.86-9.41,12.07-16.91,21.76-20c0.11-0.24,0.23-0.5,0.34-0.75c0.1-0.23,0.2-0.47,0.31-0.7c1.2-2.6,3.13-4.62,5.44-5.68
					c1.89-0.86,4.05-1.04,5.97-0.49c1.92-0.55,4.08-0.38,5.97,0.49c2.31,1.06,4.24,3.07,5.44,5.68c0,0,0,0,0,0
					c0.11,0.23,0.21,0.46,0.31,0.7c0.11,0.26,0.22,0.51,0.34,0.75c9.69,3.08,17.9,10.58,21.76,20
					c-4.86-7.74-12.88-13.67-21.51-16.74c-0.88,0.64-1.97,1.01-3.12,1.06c-1.46,0.06-2.78-0.41-3.75-1.33
					c-0.21-0.2-0.29-0.49-0.22-0.77c0.15-0.57-0.29-1.6-0.59-2.28l-0.07-0.16c-0.12-0.28-0.39-0.53-0.68-0.63
					c-0.12-0.04-0.3-0.08-0.46,0.01c-0.26,0.14-0.41,0.57-0.35,0.99c0.08,0.54,0.41,1.07,0.73,1.59c0.38,0.61,0.33,1.38-0.15,2.1
					c-0.43,0.66-1.24,1.27-2.09,1.48c0.13,2.77-0.21,5.64-0.71,8.41c0.52,2.56,1.53,5.02,3,7.17c2.74,4.01,6.84,6.83,10.59,9.92
					c5.22,4.31,9.88,9.3,13.82,14.79c1.1,1.53,2.19,3.14,3.79,4.13c1.6,0.99,3.88,1.17,5.24-0.14c-1.36,1.68-3.6,2.19-5.68,1.72
					c0.23,0.43,0.42,0.88,0.55,1.36c0.36,1.33,0.27,2.77-0.24,4.05c0.04,0.01,0.08,0.03,0.12,0.04c0.46-0.19,0.92-0.35,1.33-0.46
					c1.96-0.53,3.84-1.35,5.57-2.43c1.63-3.94,1.94-8.42,0.82-12.54c0.78,2.07,1.56,4.14,2.34,6.21
					c1.03-12.33-1.79-24.14-5.45-35.96c1.91,6.27,4.83,12.19,6.91,18.41c1.86,5.54,3.05,11.49,2.19,17.23
					c0.7-1.07,1.31-2.21,1.79-3.39c1.23-3,1.8-6.24,2.01-9.57C220.65,113.17,215.61,103.98,208.82,96.31z M159.55,45.46
					c1.96-0.93,4.25-1.16,6.36-0.65c2.11,0.52,4.03,1.78,5.35,3.51C167.99,46.52,163.28,45.3,159.55,45.46z M157.16,51.6
					c2.43-1.15,5.25-1.44,7.86-0.8c2.61,0.64,4.98,2.2,6.6,4.34C167.58,52.91,161.76,51.41,157.16,51.6z M164.91,78.04
					c1.19-2.5,1.2-5.5,0.5-8.18c-0.42-1.6-1.13-3.21-2.11-4.59c0.59,0.28,1.18,0.56,1.77,0.71c0.2,0.05,0.4,0.1,0.6,0.14
					c0.74,0.95,1.29,2.04,1.59,3.21C168.07,72.38,167.14,75.81,164.91,78.04z M182.09,44.81c2.11-0.52,4.4-0.28,6.36,0.65
					c-3.73-0.15-8.44,1.06-11.71,2.87C178.05,46.59,179.98,45.33,182.09,44.81z M182.99,50.8c2.61-0.64,5.43-0.35,7.86,0.8
					c-4.6-0.19-10.42,1.31-14.46,3.54C178.01,53,180.38,51.44,182.99,50.8z M183.09,78.04c-2.23-2.23-3.16-5.67-2.36-8.72
					c0.3-1.17,0.86-2.26,1.59-3.21c0.2-0.04,0.4-0.09,0.6-0.14c0.59-0.15,1.18-0.43,1.77-0.71c-0.98,1.38-1.69,2.99-2.11,4.59
					C181.88,72.54,181.89,75.54,183.09,78.04z"/>
				<path class="st258" d="M164.23,119.53c-0.87,0.76-1.77,1.51-2.66,2.26c1.74,2.29,3.05,4.48,4.12,6.87
					c0.02-0.12,0.05-0.24,0.08-0.37C164.3,125.65,163.77,122.51,164.23,119.53z"/>
				<path class="st256" d="M159.49,123.49c-3.16,2.61-6.26,5.27-8.75,8.5c-1.82,2.36-3.34,5.03-5.72,6.81
					c0.06,0.44,0.01,0.89-0.2,1.42c-0.38,0.98-0.98,1.84-1.46,2.77c-0.38,0.72-0.87,1.53-1,2.35c2.79-1.05,4.98-3.22,7.28-5.5
					c0.75-0.75,1.53-1.52,2.32-2.24c2-1.82,4.25-3.39,6.66-4.69c-0.01-0.05-0.02-0.1-0.02-0.16
					C158.54,129.53,158.92,126.74,159.49,123.49z"/>
				<path class="st14" d="M168.65,127.76c-0.34-0.19-0.91,0.04-1.18,0.47c-0.26,0.42-0.28,0.95-0.24,1.39
					c0.74-0.18,1.48-0.34,2.22-0.46C169.34,128.49,169.05,127.98,168.65,127.76z"/>
				<path class="st14" d="M160.17,132.12c1.46-0.7,2.97-1.3,4.52-1.79c-0.95-2.34-2.11-4.44-3.64-6.6
					C160.52,126.7,160.18,129.26,160.17,132.12z"/>
				<path class="st14" d="M172.22,127.59c-0.23-0.03-0.54,0.16-0.72,0.45c-0.16,0.25-0.25,0.55-0.33,0.88
					c0.6-0.07,1.21-0.12,1.81-0.16c-0.06-0.26-0.13-0.5-0.24-0.7C172.61,127.8,172.4,127.62,172.22,127.59z"/>
				<path class="st261" d="M201.69,148.43c0.06-0.06,0.11-0.13,0.17-0.19c0.04-0.05,0.09-0.09,0.14-0.14
					c0.06-0.06,0.12-0.12,0.18-0.18c0.04-0.03,0.07-0.07,0.11-0.1c0.49-0.45,1.06-0.88,1.69-1.27c0.04-0.03,0.08-0.05,0.13-0.08
					c0.02-0.01,0.04-0.02,0.05-0.03c-2.68-1.26-4.83-3.4-6.91-5.47c-0.74-0.73-1.5-1.49-2.27-2.19c-5.65-5.13-13.3-8.22-20.99-8.5
					c-7.69,0.27-15.34,3.37-20.99,8.5c-0.77,0.7-1.53,1.45-2.27,2.19c-2.09,2.07-4.24,4.2-6.91,5.47c0.02,0.01,0.04,0.02,0.05,0.03
					c0.04,0.02,0.08,0.05,0.12,0.08c0.53,0.33,1.01,0.68,1.44,1.05c0,0,0.01,0.01,0.01,0.01c0.08,0.07,0.15,0.14,0.23,0.2
					c0.04,0.04,0.09,0.08,0.13,0.12c0.06,0.05,0.11,0.11,0.17,0.17c0.05,0.05,0.11,0.11,0.16,0.16c0.05,0.06,0.1,0.11,0.15,0.17
					c0.05,0.05,0.1,0.11,0.14,0.16c0.09,0.11,0.18,0.22,0.26,0.33c0.38,0.52,0.74,1.07,1.08,1.59c0.75,1.15,1.47,2.23,2.41,3.11
					c1.52,1.41,3.69,2.31,6.85,2.85c5.55,0.95,11.33,0.55,16.73-1.16c0.08-0.02,0.16-0.04,0.24-0.04c0.08,0,0.16,0.01,0.24,0.04
					c5.4,1.71,11.19,2.11,16.73,1.16c3.16-0.54,5.33-1.45,6.85-2.85c0.94-0.87,1.65-1.96,2.4-3.1c0.35-0.53,0.7-1.07,1.08-1.59
					c0.08-0.11,0.17-0.22,0.26-0.33C201.61,148.52,201.65,148.48,201.69,148.43z M189.35,139.84c-4.89-1.05-10.12-1.8-15.35-1.99
					c-5.23,0.19-10.46,0.94-15.35,1.99c0.5-0.33,1-0.63,1.52-0.92c-0.87,0.19-1.74,0.39-2.59,0.63c4.87-3.07,10.67-4.53,16.43-4.38
					c5.75-0.15,11.55,1.31,16.43,4.38c-0.85-0.24-1.72-0.44-2.59-0.63C188.35,139.21,188.85,139.51,189.35,139.84z"/>
				<path class="st14" d="M175.78,127.59c-0.18,0.03-0.39,0.21-0.53,0.46c-0.11,0.2-0.18,0.45-0.24,0.7
					c0.61,0.04,1.21,0.09,1.81,0.16c-0.07-0.32-0.17-0.63-0.33-0.88C176.32,127.75,176.01,127.55,175.78,127.59z"/>
				<path class="st262" d="M173.13,92.52c0.04-0.01,0.08-0.01,0.12-0.01c0.31,0,0.59,0.18,0.72,0.47c0.01,0.03,0.03,0.06,0.04,0.09
					c0.01-0.03,0.03-0.06,0.04-0.09c0.14-0.32,0.49-0.51,0.83-0.46c0.38,0.05,1.11-0.31,1.46-0.85c0.11-0.17,0.16-0.33,0.12-0.4
					c-0.36-0.59-0.82-1.33-0.94-2.19c-0.13-0.91,0.17-2.08,1.16-2.61c0.52-0.28,1.13-0.32,1.73-0.11c0.71,0.25,1.32,0.81,1.61,1.5
					l0.07,0.16c0.34,0.79,0.78,1.82,0.74,2.78c0.62,0.45,1.44,0.69,2.3,0.65c0.83-0.03,1.63-0.31,2.26-0.76
					c-0.49-0.65-0.81-1.39-1.11-2.11c-0.1-0.22-0.19-0.44-0.29-0.66c-1.04-2.26-2.7-4-4.66-4.9c-1.61-0.74-3.46-0.86-5.07-0.35
					c-0.16,0.05-0.33,0.05-0.48,0c-1.61-0.52-3.45-0.39-5.07,0.35c-1.97,0.9-3.62,2.64-4.66,4.9c-0.1,0.22-0.19,0.44-0.29,0.66
					c-0.31,0.72-0.62,1.46-1.11,2.11c0.63,0.45,1.43,0.73,2.26,0.76c0.86,0.03,1.68-0.2,2.3-0.65c-0.04-0.96,0.4-2,0.74-2.78
					l0.07-0.16c0.3-0.69,0.9-1.25,1.61-1.5c0.6-0.21,1.21-0.17,1.73,0.11c0.98,0.53,1.29,1.69,1.16,2.61
					c-0.13,0.86-0.58,1.59-0.94,2.19c-0.04,0.07,0.01,0.23,0.12,0.4C172.02,92.21,172.76,92.58,173.13,92.52z"/>
				<path class="st14" d="M143.71,84.72c1,0.27,2.27,0.01,3.49-0.72c0.88-0.53,1.69-1.26,2.46-2.05c-1.54-1.21-3.55-1.83-5.51-1.63
					c-1.28,0.13-2.47,0.58-3.65,1.13c0.27,0.54,0.56,1.05,0.9,1.51C142.09,83.87,142.91,84.5,143.71,84.72z"/>
				<path class="st14" d="M204.29,84.72c0.81-0.22,1.63-0.85,2.3-1.77c0.34-0.46,0.62-0.97,0.9-1.51c-1.17-0.54-2.37-0.99-3.65-1.13
					c-1.95-0.2-3.97,0.42-5.51,1.63c0.78,0.78,1.59,1.52,2.46,2.05C202.01,84.73,203.29,84.99,204.29,84.72z"/>
				<g>
					<path class="st256" d="M247.05,64.42c-1.43-3.58-4-6.05-6.48-8.43c-1.59-1.53-3.24-3.1-4.61-4.99
						c-3.33-4.57-7.48-10.26-13.68-12.42c-7.5-2.62-14.8-0.29-19.74,1.78c-8.74-4.16-19.36-4.7-28.54-1.46
						c-9.18-3.24-19.8-2.7-28.54,1.46c-4.94-2.07-12.24-4.4-19.74-1.78c-6.2,2.16-10.35,7.85-13.68,12.42
						c-1.37,1.88-3.02,3.46-4.61,4.99c-2.48,2.38-5.05,4.84-6.48,8.43c-0.29,0.72-1.16,2.92-0.05,4.58c1.22,1.83,3.72,1.67,5.49,1.4
						c2.49-0.38,5.57,0.76,9.44,3.51c0.39,0.28,0.78,0.57,1.17,0.87c1.53,1.17,3.11,2.37,5.01,2.66c-0.43,1.81-1.47,3.15-2.65,4.68
						c-0.68,0.88-1.39,1.8-2.03,2.88c-2.74,4.59-3.68,10.23-2.58,15.47c1.07,5.09,4.06,9.75,8.24,12.86
						c-0.4,6.67-0.53,13.67,2,19.84c2.65,6.45,8.49,11.58,15.23,13.39c0.49,0.13,1.03,0.33,1.59,0.59c0,0,0,0,0,0
						c1.17,0.54,2.22,1.24,2.97,1.97l0,0c0.11,0.11,0.22,0.22,0.32,0.33c0.02,0.02,0.03,0.04,0.05,0.05
						c0.1,0.11,0.19,0.23,0.28,0.34c0.36,0.49,0.7,1.02,1.04,1.53c0.77,1.18,1.57,2.39,2.65,3.4c2.3,2.14,5.47,2.88,7.66,3.25
						c5.71,0.98,11.67,0.58,17.24-1.14c3.57,1.11,7.31,1.66,11.03,1.66c2.08,0,4.16-0.17,6.2-0.52c2.18-0.37,5.35-1.12,7.66-3.25
						c1.08-1,1.88-2.22,2.65-3.4c0.33-0.51,0.68-1.04,1.04-1.53c0.08-0.11,0.18-0.23,0.28-0.34c0.02-0.02,0.03-0.04,0.05-0.06
						c0.1-0.11,0.2-0.22,0.31-0.32c0,0,0,0,0.01-0.01c0.75-0.72,1.8-1.43,2.97-1.97c0,0,0,0,0,0c0.55-0.26,1.1-0.46,1.58-0.59
						c6.74-1.81,12.57-6.94,15.23-13.39c2.54-6.17,2.41-13.17,2-19.84c4.17-3.1,7.16-7.76,8.24-12.86
						c1.1-5.23,0.16-10.87-2.58-15.47c-0.64-1.08-1.35-1.99-2.03-2.87c-1.18-1.53-2.22-2.87-2.65-4.68c1.9-0.28,3.48-1.49,5.01-2.66
						c0.39-0.3,0.78-0.6,1.17-0.87c3.87-2.75,6.96-3.89,9.44-3.51c1.77,0.27,4.27,0.43,5.49-1.4
						C248.21,67.34,247.34,65.14,247.05,64.42z M143.35,142.99c0.48-0.93,1.09-1.8,1.46-2.77c0.2-0.53,0.26-0.97,0.2-1.41
						c2.38-1.77,3.9-4.45,5.72-6.81c2.49-3.23,5.59-5.89,8.75-8.5c-0.57,3.25-0.94,6.03-0.9,9.26c0,0.05,0.01,0.11,0.02,0.16
						c-2.4,1.3-4.65,2.87-6.66,4.69c-0.79,0.72-1.57,1.49-2.32,2.24c-2.3,2.28-4.48,4.45-7.28,5.5
						C142.48,144.52,142.98,143.71,143.35,142.99z M171.33,86.47c-0.52-0.28-1.13-0.32-1.73-0.11c-0.71,0.25-1.31,0.81-1.61,1.5
						l-0.07,0.16c-0.34,0.79-0.79,1.82-0.74,2.78c-0.62,0.45-1.44,0.68-2.3,0.65c-0.83-0.03-1.63-0.31-2.26-0.76
						c0.49-0.65,0.81-1.39,1.11-2.11c0.1-0.22,0.19-0.44,0.29-0.66c1.04-2.26,2.69-4,4.66-4.9c1.61-0.74,3.46-0.86,5.07-0.35
						c0.16,0.05,0.33,0.05,0.48,0c1.61-0.52,3.45-0.39,5.07,0.35c1.97,0.9,3.62,2.64,4.66,4.9c0.1,0.22,0.19,0.44,0.29,0.66
						c0.31,0.72,0.63,1.46,1.11,2.11c-0.63,0.45-1.43,0.73-2.26,0.76c-0.86,0.04-1.68-0.2-2.3-0.65c0.04-0.96-0.4-2-0.74-2.78
						l-0.07-0.16c-0.3-0.69-0.9-1.25-1.61-1.5c-0.6-0.21-1.21-0.17-1.73,0.11c-0.98,0.53-1.29,1.69-1.16,2.61
						c0.13,0.86,0.58,1.59,0.94,2.19c0.04,0.07-0.01,0.23-0.12,0.4c-0.36,0.54-1.08,0.91-1.46,0.85c-0.35-0.05-0.69,0.14-0.83,0.46
						c-0.01,0.03-0.03,0.06-0.04,0.09c-0.01-0.03-0.03-0.06-0.04-0.09c-0.13-0.29-0.41-0.47-0.72-0.47c-0.04,0-0.08,0-0.12,0.01
						c-0.37,0.06-1.1-0.31-1.46-0.85c-0.11-0.17-0.16-0.33-0.12-0.4c0.36-0.59,0.82-1.33,0.94-2.19
						C172.62,88.16,172.32,87,171.33,86.47z M167.31,116.62c0.31-0.32,0.62-0.64,0.92-0.97c1.32-0.3,2.65-0.51,4-0.6
						c0.16,3.15,0.32,6.3,0.47,9.45c0.47-3.06,1.25-6.38,1.8-9.51c1.77,0.03,3.53,0.25,5.26,0.64c0.31,0.33,0.62,0.66,0.94,0.99
						c1.18,3.53,1.69,7.36,1.32,11.05c-0.04-0.09-0.09-0.18-0.14-0.27c-0.62-1.02-2.09-1.67-3.27-1.03c-0.32,0.17-0.6,0.41-0.84,0.7
						c-0.54-0.77-1.4-1.18-2.22-1.05c-0.6,0.09-1.16,0.48-1.54,1.05c-0.38-0.57-0.94-0.96-1.54-1.05c-0.82-0.12-1.68,0.29-2.22,1.05
						c-0.24-0.29-0.52-0.53-0.84-0.7c-1.19-0.64-2.65,0.02-3.27,1.03c-0.05,0.09-0.1,0.18-0.14,0.27
						C165.62,123.98,166.13,120.15,167.31,116.62z M167.24,129.62c-0.05-0.44-0.02-0.96,0.24-1.39c0.26-0.43,0.83-0.65,1.18-0.47
						c0.4,0.22,0.69,0.73,0.81,1.39C168.71,129.29,167.97,129.45,167.24,129.62z M171.5,128.04c0.19-0.29,0.49-0.48,0.72-0.45
						c0.18,0.03,0.39,0.21,0.53,0.46c0.11,0.2,0.18,0.45,0.24,0.7c-0.6,0.04-1.21,0.09-1.81,0.16
						C171.24,128.59,171.34,128.29,171.5,128.04z M175.26,128.05c0.14-0.25,0.34-0.43,0.53-0.46c0.23-0.04,0.54,0.16,0.72,0.45
						c0.16,0.25,0.25,0.55,0.33,0.88c-0.6-0.07-1.21-0.12-1.81-0.16C175.08,128.49,175.15,128.25,175.26,128.05z M179.35,127.77
						c0.34-0.19,0.91,0.04,1.18,0.47c0.26,0.42,0.28,0.95,0.24,1.39c-0.74-0.18-1.48-0.34-2.22-0.46
						C178.66,128.49,178.95,127.98,179.35,127.77z M187.83,132.12c-1.46-0.7-2.97-1.3-4.52-1.79c0.95-2.34,2.11-4.44,3.64-6.6
						C187.48,126.7,187.82,129.26,187.83,132.12z M182.32,128.65c-0.02-0.12-0.05-0.24-0.08-0.37c1.47-2.64,2-5.78,1.53-8.76
						c0.87,0.76,1.77,1.51,2.66,2.25C184.7,124.07,183.39,126.26,182.32,128.65z M165.76,128.29c-0.03,0.12-0.06,0.24-0.08,0.37
						c-1.07-2.4-2.39-4.59-4.12-6.87c0.9-0.74,1.79-1.49,2.66-2.26C163.77,122.51,164.3,125.65,165.76,128.29z M164.69,130.33
						c-1.55,0.49-3.06,1.09-4.52,1.79c0.01-2.86,0.36-5.42,0.88-8.39C162.58,125.89,163.73,127.99,164.69,130.33z M204.12,146.46
						c-0.04,0.03-0.08,0.05-0.13,0.08c-0.63,0.39-1.2,0.82-1.69,1.27c-0.04,0.03-0.08,0.07-0.11,0.1c-0.06,0.06-0.12,0.12-0.18,0.18
						c-0.05,0.05-0.1,0.09-0.14,0.14c-0.06,0.06-0.12,0.13-0.17,0.19c-0.04,0.05-0.08,0.09-0.12,0.13
						c-0.09,0.11-0.18,0.22-0.26,0.33c-0.38,0.52-0.74,1.07-1.08,1.59c-0.75,1.15-1.46,2.23-2.4,3.1c-1.52,1.41-3.69,2.31-6.85,2.85
						c-5.55,0.95-11.33,0.55-16.73-1.16c-0.08-0.02-0.16-0.04-0.24-0.04c-0.08,0-0.16,0.01-0.24,0.04
						c-5.4,1.71-11.19,2.11-16.73,1.16c-3.16-0.54-5.33-1.45-6.85-2.85c-0.94-0.87-1.65-1.96-2.41-3.11
						c-0.35-0.53-0.7-1.07-1.08-1.59c-0.08-0.11-0.17-0.22-0.26-0.33c-0.04-0.05-0.09-0.11-0.14-0.16c-0.05-0.06-0.1-0.11-0.15-0.17
						c-0.05-0.05-0.11-0.11-0.16-0.16c-0.06-0.06-0.11-0.11-0.17-0.17c-0.04-0.04-0.09-0.08-0.13-0.12
						c-0.07-0.07-0.15-0.14-0.23-0.2c0,0-0.01-0.01-0.01-0.01c-0.43-0.37-0.92-0.72-1.44-1.05c-0.04-0.03-0.08-0.05-0.12-0.08
						c-0.02-0.01-0.04-0.02-0.05-0.03c2.68-1.26,4.83-3.4,6.91-5.47c0.74-0.73,1.5-1.49,2.27-2.19c5.65-5.13,13.3-8.22,20.99-8.5
						c7.69,0.27,15.34,3.37,20.99,8.5c0.77,0.7,1.53,1.46,2.27,2.19c2.09,2.07,4.24,4.2,6.91,5.47
						C204.15,146.44,204.14,146.45,204.12,146.46z M198.37,139.84c-0.75-0.75-1.53-1.52-2.32-2.24c-2-1.82-4.25-3.39-6.66-4.69
						c0.01-0.05,0.02-0.1,0.02-0.16c0.05-3.23-0.33-6.01-0.9-9.26c3.16,2.61,6.26,5.27,8.75,8.5c1.82,2.36,3.34,5.03,5.72,6.81
						c-0.06,0.44-0.01,0.89,0.2,1.42c0.38,0.98,0.98,1.84,1.46,2.77c0.38,0.72,0.87,1.53,1,2.35
						C202.85,144.28,200.67,142.12,198.37,139.84z M245.79,68.12c-0.55,0.82-1.8,1.05-3.93,0.72c-0.86-0.13-1.73-0.11-2.58,0.02
						c-3.09-0.95-5.72-3.38-7.61-6.08c-2.34-3.35-3.86-7.2-6.08-10.63c-1.06-1.64-2.42-3.28-4.32-3.77c-1.9-0.49-4.3,0.81-4.24,2.76
						c0.14,4.23,2.54,8.57,5.89,11.15c-1.17-0.24-2.33-0.48-3.5-0.73c0.57,3.82,2.89,7.34,6.17,9.37c-1.37-0.34-2.74-0.68-4.11-1.03
						c0.95,2.17,1.9,4.33,2.85,6.5c-0.05,0.13-0.08,0.26-0.06,0.4c0.33,2.67,1.69,4.42,3.12,6.27c0.66,0.85,1.33,1.72,1.93,2.72
						c2.54,4.26,3.41,9.48,2.39,14.33c-0.79,3.74-2.7,7.23-5.38,9.95c-1.27-1.97-2.55-3.94-3.82-5.91c0.91,2.15,1.52,4.42,1.83,6.74
						c-1.68-2.96-3.49-5.85-5.42-8.65c2.05,3.8,3.59,7.87,4.58,12.08c0.34,6.21,0.36,12.63-1.94,18.22
						c-0.49,1.18-1.09,2.32-1.79,3.39c0.86-5.74-0.33-11.69-2.19-17.23c-2.09-6.22-5-12.14-6.91-18.41
						c3.66,11.82,6.48,23.63,5.45,35.96c-0.78-2.07-1.56-4.14-2.34-6.21c1.12,4.12,0.81,8.6-0.82,12.54
						c-1.73,1.07-3.61,1.9-5.57,2.43c-0.42,0.11-0.87,0.27-1.33,0.46c-0.04-0.01-0.08-0.03-0.12-0.04c0.51-1.28,0.6-2.72,0.24-4.05
						c-0.13-0.47-0.32-0.93-0.55-1.36c2.08,0.46,4.32-0.05,5.68-1.72c-1.36,1.31-3.64,1.13-5.24,0.14c-1.6-0.99-2.69-2.61-3.79-4.13
						c-3.95-5.5-8.61-10.48-13.82-14.79c-3.74-3.09-7.84-5.92-10.59-9.92c-1.47-2.15-2.48-4.61-3-7.17c0.5-2.77,0.83-5.64,0.71-8.41
						c0.85-0.21,1.66-0.83,2.09-1.48c0.47-0.72,0.53-1.48,0.15-2.1c-0.32-0.52-0.65-1.05-0.73-1.59c-0.06-0.43,0.09-0.85,0.35-0.99
						c0.16-0.08,0.34-0.05,0.46-0.01c0.29,0.1,0.56,0.35,0.68,0.63l0.07,0.16c0.29,0.68,0.74,1.71,0.59,2.28
						c-0.07,0.28,0.01,0.57,0.22,0.77c0.96,0.91,2.28,1.38,3.75,1.33c1.15-0.05,2.24-0.42,3.12-1.06c8.63,3.07,16.66,9,21.51,16.74
						c-3.86-9.41-12.07-16.91-21.76-20c-0.11-0.24-0.23-0.5-0.34-0.75c-0.1-0.23-0.2-0.47-0.31-0.7c0,0,0,0,0,0
						c-1.2-2.61-3.13-4.62-5.44-5.68c-1.89-0.86-4.05-1.04-5.97-0.49c-1.92-0.55-4.08-0.38-5.97,0.49
						c-2.31,1.06-4.24,3.07-5.44,5.68c-0.11,0.23-0.21,0.46-0.31,0.7c-0.11,0.26-0.22,0.51-0.34,0.75
						c-9.69,3.08-17.9,10.58-21.76,20c4.86-7.74,12.88-13.67,21.51-16.74c0.88,0.64,1.97,1.01,3.12,1.06
						c1.45,0.05,2.78-0.41,3.75-1.33c0.21-0.2,0.29-0.49,0.22-0.77c-0.15-0.57,0.29-1.6,0.59-2.28l0.07-0.16
						c0.12-0.28,0.39-0.53,0.68-0.63c0.12-0.04,0.3-0.08,0.46,0.01c0.26,0.14,0.41,0.57,0.35,0.99c-0.08,0.54-0.41,1.07-0.73,1.59
						c-0.38,0.61-0.33,1.38,0.15,2.1c0.43,0.66,1.24,1.27,2.09,1.48c-0.13,2.77,0.21,5.64,0.71,8.41c-0.52,2.56-1.53,5.02-3,7.17
						c-2.74,4.01-6.84,6.83-10.59,9.92c-5.22,4.31-9.88,9.3-13.82,14.79c-1.1,1.53-2.19,3.14-3.79,4.13
						c-1.6,0.99-3.88,1.17-5.24-0.14c1.36,1.68,3.6,2.19,5.68,1.72c-0.23,0.43-0.42,0.88-0.55,1.36c-0.36,1.33-0.27,2.77,0.24,4.05
						c-0.04,0.01-0.08,0.03-0.12,0.04c-0.46-0.19-0.92-0.35-1.34-0.46c-1.96-0.53-3.84-1.35-5.57-2.43
						c-1.63-3.94-1.94-8.42-0.82-12.54c-0.78,2.07-1.56,4.14-2.34,6.21c-1.03-12.33,1.79-24.14,5.45-35.96
						c-1.91,6.27-4.83,12.19-6.91,18.41c-1.86,5.54-3.05,11.49-2.19,17.23c-0.7-1.07-1.31-2.21-1.79-3.39
						c-2.3-5.58-2.29-12.01-1.94-18.22c0.99-4.2,2.53-8.28,4.58-12.07c-1.93,2.8-3.74,5.69-5.42,8.65c0.3-2.31,0.92-4.59,1.83-6.74
						c-1.27,1.97-2.55,3.94-3.82,5.91c-2.69-2.72-4.6-6.21-5.38-9.95c-1.02-4.85-0.15-10.07,2.39-14.33
						c0.59-0.99,1.27-1.87,1.93-2.72c1.43-1.85,2.79-3.6,3.12-6.27c0.02-0.14-0.01-0.27-0.06-0.4c0.95-2.17,1.9-4.33,2.85-6.5
						c-1.37,0.34-2.74,0.68-4.11,1.03c3.28-2.03,5.6-5.55,6.17-9.37c-1.17,0.24-2.33,0.48-3.5,0.73c3.35-2.58,5.75-6.92,5.89-11.15
						c0.06-1.96-2.34-3.25-4.24-2.76c-1.9,0.49-3.26,2.12-4.32,3.77c-2.22,3.43-3.74,7.28-6.08,10.63c-1.89,2.7-4.52,5.13-7.61,6.08
						c-0.86-0.13-1.72-0.15-2.58-0.02c-2.14,0.33-3.39,0.1-3.93-0.72c-0.44-0.66-0.37-1.68,0.21-3.12c1.3-3.26,3.64-5.5,6.11-7.87
						c1.64-1.57,3.34-3.2,4.79-5.2c3.93-5.39,7.62-10.01,12.92-11.86c4.93-1.72,10.34-1.38,16.88,1.06
						c-1.59,2.47-3.19,5.1-4.77,7.53c3.22-3.3,6.97-6.07,11.05-8.21c7.75-2.74,16.59-2.77,24.34,0.03c0.17,0.06,0.36,0.06,0.54,0
						c7.75-2.81,16.59-2.77,24.34-0.03c4.08,2.14,7.83,4.92,11.05,8.21c-1.58-2.43-3.19-5.06-4.77-7.53
						c6.53-2.45,11.94-2.79,16.88-1.06c5.31,1.85,8.99,6.47,12.92,11.86c1.46,2,3.15,3.62,4.79,5.2c2.47,2.37,4.81,4.61,6.11,7.87
						C246.16,66.45,246.23,67.47,245.79,68.12z"/>
					<path class="st256" d="M137.41,77.7c-3.6,2.09-7.21,4.71-11.36,4.74c2.51,1.67,6.45,2.09,9.35,1.26
						c1.11-0.32,2.17-0.81,3.22-1.33c0.32,0.64,0.68,1.26,1.1,1.83c0.86,1.17,2.04,2.16,3.44,2.54c0.78,0.21,1.58,0.22,2.38,0.09
						c-0.41,0.34-0.84,0.67-1.3,0.96c-3.49,2.19-8.18,2.33-11.79,0.33c1.31,2.99,5.16,4.16,8.35,3.45s5.85-2.82,8.38-4.88
						c2.53-2.06,4.34-5.38,7.52-6.13c-2.98-0.1-4.85-3.21-7.48-4.61C145.54,73.99,141.01,75.61,137.41,77.7z M147.2,83.99
						c-1.22,0.74-2.49,1-3.49,0.72c-0.81-0.22-1.63-0.85-2.3-1.77c-0.34-0.46-0.62-0.97-0.9-1.51c1.17-0.54,2.36-0.99,3.65-1.13
						c1.95-0.2,3.97,0.42,5.51,1.63C148.89,82.73,148.08,83.46,147.2,83.99z"/>
					<path class="st256" d="M160.96,62.87c2.27,1.59,3.75,4.31,4.45,6.99c0.7,2.68,0.69,5.68-0.5,8.18
						c2.23-2.23,3.16-5.67,2.36-8.72C166.48,66.28,163.99,63.73,160.96,62.87z"/>
					<path class="st256" d="M154.06,58.19c-8.25,0.45-16.3,3.95-22.27,9.67C139.02,64.82,147.07,61.74,154.06,58.19z"/>
					<path class="st256" d="M165.01,50.8c-2.61-0.64-5.43-0.35-7.86,0.8c4.6-0.19,10.42,1.31,14.46,3.54
						C169.99,53,167.62,51.44,165.01,50.8z"/>
					<path class="st256" d="M171.26,48.32c-1.31-1.73-3.23-3-5.35-3.51c-2.11-0.52-4.4-0.28-6.36,0.65
						C163.28,45.3,167.99,46.52,171.26,48.32z"/>
					<path class="st256" d="M134.45,46.79c-0.51-2.59-3.23-4.36-5.88-4.37c-2.64-0.01-5.12,1.43-6.98,3.3
						c-1.86,1.88-3.21,4.19-4.63,6.42c-1.42,2.23-2.95,4.46-5.07,6.04c2.31-0.47,4.53-2.05,6.09-3.81c1.57-1.76,2.84-3.76,4.38-5.54
						c1.54-1.78,3.44-3.38,5.72-3.96C130.37,44.3,133.14,44.83,134.45,46.79z"/>
					<path class="st256" d="M198.79,75.94c-2.63,1.41-4.5,4.52-7.48,4.61c3.18,0.76,4.99,4.07,7.52,6.13
						c2.53,2.06,5.2,4.17,8.38,4.88c3.19,0.71,7.04-0.45,8.35-3.45c-3.61,1.99-8.3,1.86-11.79-0.33c-0.46-0.29-0.89-0.62-1.3-0.96
						c0.79,0.13,1.6,0.12,2.38-0.09c1.4-0.39,2.57-1.38,3.44-2.54c0.42-0.57,0.78-1.19,1.1-1.83c1.05,0.52,2.1,1.02,3.22,1.33
						c2.9,0.82,6.84,0.4,9.35-1.26c-4.16-0.03-7.77-2.66-11.36-4.74C206.99,75.61,202.46,73.99,198.79,75.94z M206.59,82.95
						c-0.68,0.92-1.5,1.54-2.3,1.77c-1,0.27-2.27,0.01-3.49-0.72c-0.88-0.53-1.69-1.26-2.46-2.05c1.54-1.21,3.55-1.83,5.51-1.63
						c1.28,0.13,2.47,0.58,3.65,1.13C207.22,81.99,206.93,82.5,206.59,82.95z"/>
					<path class="st256" d="M180.72,69.33c-0.79,3.05,0.14,6.49,2.36,8.72c-1.19-2.5-1.2-5.5-0.5-8.18c0.7-2.68,2.19-5.39,4.45-6.99
						C184.01,63.73,181.52,66.28,180.72,69.33z"/>
					<path class="st256" d="M193.94,58.19c6.99,3.55,15.04,6.64,22.27,9.67C210.24,62.14,202.19,58.64,193.94,58.19z"/>
					<path class="st256" d="M174,135.16c-5.75-0.15-11.55,1.31-16.43,4.38c0.85-0.24,1.72-0.44,2.59-0.63
						c-0.51,0.29-1.02,0.6-1.52,0.92c4.89-1.05,10.12-1.8,15.35-1.99c5.23,0.19,10.46,0.94,15.35,1.99c-0.5-0.33-1-0.63-1.52-0.92
						c0.87,0.19,1.74,0.39,2.59,0.63C185.55,136.47,179.75,135.02,174,135.16z"/>
					<path class="st256" d="M182.99,50.8c-2.61,0.64-4.98,2.2-6.6,4.34c4.03-2.23,9.85-3.73,14.46-3.54
						C188.42,50.45,185.59,50.16,182.99,50.8z"/>
					<path class="st256" d="M188.45,45.46c-1.96-0.93-4.25-1.16-6.36-0.65c-2.11,0.52-4.03,1.78-5.35,3.51
						C180.01,46.52,184.72,45.3,188.45,45.46z"/>
					<path class="st256" d="M231.04,52.15c-1.42-2.23-2.77-4.54-4.63-6.42s-4.34-3.31-6.98-3.3c-2.64,0.01-5.36,1.78-5.88,4.37
						c1.31-1.96,4.08-2.49,6.36-1.91c2.28,0.58,4.18,2.18,5.72,3.96c1.54,1.78,2.81,3.78,4.38,5.54c1.57,1.76,3.79,3.33,6.09,3.81
						C234,56.6,232.46,54.38,231.04,52.15z"/>
				</g>
				<g>
					<path class="st261" d="M198.56,121.16c2.33,0.57,4.66,1.15,6.98,1.72c-4.42-3.96-10-6.33-14.9-9.68
						c-4.9-3.34-9.99-8.51-10.24-14.44c3.7,0.96,7.4,1.93,11.1,2.89c-2.59-2.22-5.07-4.57-7.43-7.03
						c5.63,1.07,11.11,2.92,16.25,5.46c-4.12-3.54-8.96-6.33-14.01-8.12c-0.88,0.64-1.97,1.01-3.12,1.06
						c-1.46,0.06-2.78-0.41-3.75-1.33c-0.21-0.2-0.29-0.49-0.22-0.77c0.15-0.57-0.29-1.6-0.59-2.28l-0.07-0.16
						c-0.12-0.28-0.39-0.53-0.68-0.63c-0.12-0.04-0.3-0.08-0.46,0.01c-0.26,0.14-0.41,0.57-0.35,0.99c0.08,0.54,0.41,1.07,0.73,1.59
						c0.38,0.61,0.33,1.38-0.15,2.1c-0.43,0.66-1.24,1.27-2.09,1.48c0.13,2.77-0.21,5.64-0.71,8.41c0.52,2.56,1.53,5.02,3,7.17
						c2.74,4.01,6.84,6.83,10.59,9.92c5.22,4.31,9.88,9.3,13.82,14.79c1.1,1.53,2.19,3.14,3.79,4.13c1.6,0.99,3.88,1.17,5.24-0.14
						c-1.36,1.68-3.6,2.19-5.68,1.72c0.23,0.43,0.42,0.88,0.55,1.36c0.36,1.33,0.27,2.77-0.24,4.05c0.04,0.01,0.08,0.03,0.12,0.04
						c0.46-0.19,0.92-0.35,1.33-0.46c1.96-0.53,3.84-1.35,5.57-2.43c1.01-2.44,1.51-5.08,1.48-7.72
						C208.33,131.37,202.91,126.69,198.56,121.16z"/>
					<path class="st261" d="M170.14,109.6c1.47-2.15,2.48-4.61,3-7.17c-0.5-2.77-0.83-5.64-0.71-8.41
						c-0.85-0.21-1.66-0.83-2.09-1.48c-0.47-0.72-0.53-1.48-0.15-2.1c0.32-0.52,0.65-1.05,0.73-1.59c0.06-0.43-0.09-0.85-0.35-0.99
						c-0.16-0.09-0.33-0.05-0.46-0.01c-0.29,0.1-0.56,0.35-0.68,0.63l-0.07,0.16c-0.29,0.68-0.74,1.71-0.59,2.28
						c0.07,0.28-0.01,0.57-0.22,0.77c-0.96,0.91-2.29,1.38-3.75,1.33c-1.15-0.05-2.24-0.42-3.12-1.06
						c-5.05,1.8-9.89,4.58-14.01,8.12c5.14-2.54,10.62-4.38,16.25-5.46c-2.36,2.47-4.84,4.81-7.43,7.03c3.7-0.96,7.4-1.93,11.1-2.89
						c-0.25,5.93-5.34,11.1-10.24,14.44c-4.9,3.34-10.48,5.72-14.9,9.68c2.33-0.57,4.66-1.15,6.98-1.72
						c-4.35,5.53-9.77,10.21-15.87,13.72c-0.03,2.64,0.47,5.28,1.48,7.72c1.73,1.07,3.61,1.9,5.57,2.43
						c0.42,0.11,0.87,0.27,1.34,0.46c0.04-0.01,0.08-0.03,0.12-0.04c-0.51-1.28-0.6-2.72-0.24-4.05c0.13-0.47,0.32-0.93,0.55-1.36
						c-2.08,0.46-4.32-0.05-5.68-1.72c1.36,1.31,3.64,1.13,5.24,0.14c1.6-0.99,2.69-2.61,3.79-4.13c3.95-5.5,8.61-10.48,13.82-14.79
						C163.3,116.43,167.4,113.6,170.14,109.6z"/>
					<path class="st261" d="M148.8,96.41c3.76-3.47,8.27-6.15,13.15-7.7c0.11-0.24,0.23-0.5,0.34-0.75c0.1-0.23,0.2-0.47,0.31-0.7
						c0.02-0.04,0.04-0.07,0.06-0.11c-2.09,0.58-4.13,1.29-6.06,2.21C153.26,90.95,150.56,93.35,148.8,96.41z"/>
					<path class="st261" d="M185.71,87.95c0.11,0.26,0.22,0.51,0.34,0.75c4.88,1.55,9.38,4.23,13.15,7.7
						c-1.76-3.06-4.46-5.46-7.79-7.06c-1.93-0.92-3.97-1.63-6.06-2.21c0.02,0.04,0.04,0.07,0.06,0.11c0,0,0,0,0,0
						C185.51,87.48,185.61,87.72,185.71,87.95z"/>
				</g>
				<path class="st263" d="M221.44,86.69c-3,0.55-6.13,0.34-9.03-0.61c3.4,0.61,7.09-0.71,9.34-3.33c-0.25,0.12-0.52,0.2-0.8,0.26
					c-2.48,1.19-5.81,1.42-8.35,0.7c-1.11-0.32-2.17-0.81-3.22-1.33c-0.32,0.64-0.68,1.26-1.1,1.83c-0.86,1.17-2.04,2.16-3.44,2.54
					c-0.78,0.21-1.58,0.22-2.38,0.09c0.41,0.34,0.84,0.67,1.3,0.96c3.49,2.19,8.18,2.33,11.79,0.33c-1.31,2.99-5.16,4.16-8.35,3.45
					c-3.19-0.71-5.85-2.82-8.38-4.88c-1.76-1.43-3.17-3.47-4.94-4.84c1.47,2.39,2.67,4.94,4.12,7.34c1.65,2.74,3.72,5.34,6.53,6.87
					c-0.85-1.72-1.7-3.43-2.54-5.15c2.69,2.98,7.03,4.37,10.95,3.52C216.87,93.58,220.23,90.52,221.44,86.69z"/>
				<path class="st263" d="M146.49,90.92c-0.85,1.72-1.7,3.43-2.54,5.15c2.81-1.53,4.88-4.14,6.53-6.87
					c1.57-2.6,2.85-5.37,4.49-7.93c-2.19,1.3-3.76,3.76-5.8,5.42c-2.53,2.06-5.19,4.17-8.38,4.88c-3.19,0.71-7.04-0.45-8.35-3.45
					c3.61,1.99,8.3,1.86,11.79-0.33c0.46-0.29,0.89-0.62,1.3-0.96c-0.79,0.13-1.6,0.12-2.38-0.09c-1.4-0.39-2.57-1.38-3.44-2.54
					c-0.42-0.57-0.78-1.19-1.1-1.83c-1.05,0.52-2.1,1.02-3.22,1.33c-2.59,0.74-6.01,0.48-8.5-0.78c2.26,2.5,5.85,3.74,9.17,3.15
					c-2.9,0.95-6.03,1.16-9.03,0.61c1.21,3.83,4.57,6.9,8.5,7.75C139.46,95.29,143.8,93.9,146.49,90.92z"/>
				<path class="st260" d="M130.87,74.49c5.14-5.01,12.77-7.31,19.82-5.98C144.02,69.8,137.05,71.65,130.87,74.49z"/>
				<path class="st260" d="M217.13,74.49c-5.14-5.01-12.77-7.31-19.82-5.98C203.98,69.8,210.95,71.65,217.13,74.49z"/>
			</g>
		</g>
	</g>
	<g id="TEXTS_00000126299896594541328490000011020419041588435633_">
		<g>
			<g>
				<path class="st256" d="M118.3,162.55h2.41l9.04,20.81h1.96V184h-10.76v-0.64h1.96l-2.74-6.29h-7.49l-2.74,6.29h2.53V184h-5.4
					v-0.64h2.17l6.83-15.69L118.3,162.55z M116.43,168.46l-3.48,7.98h6.95L116.43,168.46z"/>
				<path class="st256" d="M151.68,184l-15.29-17.7v17.06h1.96V184h-4.77v-0.64h1.95v-20.17h-1.95v-0.64h7.67l0.55,0.64l9.79,11.34
					v-11.34h-1.95v-0.64h4.75v0.64h-1.95V184H151.68z"/>
				<path class="st256" d="M156.28,162.55h10v0.64h-1.95v20.17h1.95V184h-10v-0.64h1.95v-20.17h-1.95V162.55z"/>
				<path class="st256" d="M186.08,162.55h7.99v0.64h-1.95v20.17h1.95V184h-10v-0.64h1.95v-18.87l-4.42,11.77l-2.92,7.75h-0.69
					l-7.03-18.66v18.02h1.96V184h-4.77v-0.64h1.95v-20.17h-1.95v-0.64h8.29l4.83,12.8L186.08,162.55z"/>
				<path class="st256" d="M207.16,162.55h2.41l9.04,20.81h1.96V184h-10.76v-0.64h1.96l-2.74-6.29h-7.49l-2.74,6.29h2.53V184h-5.4
					v-0.64h2.17l6.83-15.69L207.16,162.55z M205.29,168.46l-3.48,7.98h6.95L205.29,168.46z"/>
				<path class="st256" d="M230.5,183.36h3.33c2.41,0,4.17-0.67,5.29-2.01c1.01-1.21,1.51-3.01,1.51-5.4h0.69V184h-18.87v-0.64h1.95
					v-20.17h-1.95v-0.64h10v0.64h-1.95V183.36z"/>
			</g>
		</g>
	</g>
</g>
</svg>
