<?xml version="1.0" encoding="utf-8"?>
<!-- Generator: Adobe Illustrator 27.8.1, SVG Export Plug-In . SVG Version: 6.00 Build 0)  -->
<svg version="1.1" id="Layer_1" xmlns="http://www.w3.org/2000/svg" xmlns:xlink="http://www.w3.org/1999/xlink" x="0px" y="0px"
	 viewBox="0 0 348 228" style="enable-background:new 0 0 348 228;" xml:space="preserve">
<style type="text/css">
	.st0{fill:#D6EADE;}
	.st1{fill:#03487C;}
	.st2{fill:#1B1B4C;}
	.st3{fill-rule:evenodd;clip-rule:evenodd;fill:#204F7A;}
	.st4{fill-rule:evenodd;clip-rule:evenodd;fill:#50A4FF;}
	.st5{fill:#002649;}
	.st6{fill:#E6E7E8;stroke:#CFCFCF;stroke-width:0.1061;}
	.st7{fill:#333333;}
	.st8{fill:#0F5998;}
	.st9{fill:#277FC1;}
	.st10{fill-rule:evenodd;clip-rule:evenodd;fill:#277FC1;}
	.st11{fill-rule:evenodd;clip-rule:evenodd;fill:#083D6D;}
	.st12{fill:#DDB462;}
	
		.st13{clip-path:url(#SVGID_00000057120856154635144890000007419350400296797067_);fill:url(#SVGID_00000065776734918877563220000013434245482403556772_);}
	.st14{fill:#FFFFFF;}
	.st15{fill:url(#SVGID_00000183223708158291861810000010600709040182967729_);}
	.st16{fill:#224685;}
	.st17{fill:none;}
	.st18{fill:#FFC73B;}
	.st19{fill:#11233F;}
	.st20{fill:#5267FF;}
	.st21{fill-rule:evenodd;clip-rule:evenodd;fill:#72342E;}
	.st22{fill:#72342E;}
	.st23{fill:#FFF2E2;}
	.st24{fill:#FFF2E2;stroke:#72342E;stroke-width:0.75;stroke-miterlimit:10;}
	.st25{fill:#FFCC99;}
	.st26{fill:#469CB2;}
	.st27{fill:url(#XMLID_00000154420600083689409630000004135351326648626591_);}
	.st28{fill:url(#XMLID_00000098937145049818334550000014309020269895628191_);}
	.st29{fill:url(#XMLID_00000041985877956922946100000013577334296111892907_);}
	.st30{fill:url(#XMLID_00000128443871066249798260000017818921965548023193_);}
	.st31{fill:url(#XMLID_00000176016005033363076720000003350286648839354017_);}
	.st32{fill:url(#XMLID_00000054258451171790870960000007156552556877560992_);}
	.st33{fill:url(#XMLID_00000103227122879317902030000002482697989476890768_);}
	.st34{fill:url(#XMLID_00000161623603942362297940000008771249504069128865_);}
	.st35{fill:url(#XMLID_00000114073312269173795250000008981499534622554796_);}
	.st36{fill:url(#XMLID_00000028320806487584239720000013974977830236962984_);}
	.st37{fill:url(#XMLID_00000114771728423025162890000011609363051860473263_);}
	.st38{fill:url(#XMLID_00000059990026453960168760000012745753285382345644_);}
	.st39{fill:url(#XMLID_00000181774895217375505620000014336674009064119430_);}
	.st40{fill:url(#XMLID_00000088853206393500652670000000203529914561154197_);}
	.st41{fill:url(#XMLID_00000134946871134737422060000013441069059438133920_);}
	.st42{fill:url(#SVGID_00000103229178090257509100000016266945498842252186_);}
	.st43{fill:url(#SVGID_00000113319793479144215450000003053989480607348398_);}
	.st44{fill:url(#SVGID_00000024682057950657134760000016271627191534516365_);}
	.st45{fill:url(#SVGID_00000028317702737688580350000014642246498520728251_);}
	.st46{fill:url(#SVGID_00000030465290094665424420000007214751200693264566_);}
	.st47{fill:url(#SVGID_00000029045564534126912720000006195910108662543540_);}
	.st48{fill:url(#SVGID_00000023271031903961593830000003966029365774311354_);}
	.st49{fill:url(#SVGID_00000060710296683490797590000003089821752042464409_);}
	.st50{fill:url(#SVGID_00000166661418607709192890000017842995166307534226_);}
	.st51{fill:url(#SVGID_00000098191650241837271520000009920677987095737228_);}
	.st52{fill:url(#SVGID_00000161615902237866704580000016616363167680583824_);}
	.st53{fill:url(#SVGID_00000161599901907587581810000007165956917610384047_);}
	.st54{fill:url(#SVGID_00000057867530914349415680000002903273269162785962_);}
	.st55{fill:url(#SVGID_00000145741887772930741960000000611191532785268391_);}
	.st56{fill:#30325E;}
	.st57{fill:#FF7859;}
	.st58{fill:#FFD550;}
	.st59{fill:#00C3AD;}
	.st60{fill:#FF4653;}
	.st61{fill:#D8CE19;}
	.st62{fill:#C1E5DE;}
	.st63{fill:#FFE4D2;}
	.st64{fill:#DFF4F0;}
	.st65{fill:#A2E0EB;}
	.st66{fill:#1B3493;}
	.st67{fill:none;stroke:#FFFFFF;stroke-width:2;stroke-linecap:round;stroke-linejoin:round;stroke-miterlimit:10;}
	.st68{fill:#F15A24;}
	.st69{fill:#F7931E;}
	.st70{fill:#58595B;}
	.st71{fill:#114E15;}
	.st72{fill:#013D01;}
	.st73{fill:#E9C608;}
	.st74{fill:#043B00;}
	.st75{fill:#D8A43E;}
	.st76{clip-path:url(#SVGID_00000062150519067497688460000012743788761544993214_);}
	.st77{fill:#F49630;}
	.st78{clip-path:url(#SVGID_00000142166178477630042060000008889268368822605236_);}
	.st79{clip-path:url(#SVGID_00000064330838996378891510000017917266439223073719_);}
	.st80{clip-path:url(#SVGID_00000095340786143964361610000009934042563614721422_);}
	.st81{clip-path:url(#SVGID_00000091730267911851220360000007604780490817538996_);}
	.st82{fill-rule:evenodd;clip-rule:evenodd;fill:#FF6600;}
	.st83{fill-rule:evenodd;clip-rule:evenodd;fill:#05174F;}
	.st84{fill:#05174F;}
	.st85{opacity:0.42;fill:url(#SVGID_00000111904405595780693780000008174557212428758148_);enable-background:new    ;}
	.st86{opacity:0.42;fill:url(#SVGID_00000111188054982281851770000014934845215175412911_);enable-background:new    ;}
	.st87{fill:url(#SVGID_00000106124777083630757690000004944921517140284815_);}
	.st88{fill:url(#SVGID_00000046310809148427283260000011931046036545017254_);}
	.st89{opacity:0.64;fill:url(#SVGID_00000132087538012681288930000005073805655099310526_);enable-background:new    ;}
	.st90{opacity:0.75;fill:url(#SVGID_00000081636393123126931190000009021666626086783873_);enable-background:new    ;}
	.st91{fill:url(#SVGID_00000011731175952086690010000013130428816593269638_);}
	.st92{fill:url(#SVGID_00000116229640094183659670000005369223572599656346_);}
	.st93{opacity:0.76;fill:url(#SVGID_00000088839767445218869750000008401914988599667615_);enable-background:new    ;}
	.st94{opacity:0.75;fill:url(#SVGID_00000070841328248270087300000009996029209912798106_);enable-background:new    ;}
	.st95{fill:url(#SVGID_00000013178943037050842820000002117847175765647493_);}
	.st96{opacity:0.42;fill:url(#SVGID_00000101089257267595352980000014077048779039613119_);enable-background:new    ;}
	.st97{opacity:0.42;fill:url(#SVGID_00000114795250044676040200000014778744511659241622_);enable-background:new    ;}
	.st98{clip-path:url(#SVGID_00000085966733760763506440000007074900149390927799_);}
	.st99{fill:#1ED7FE;}
	.st100{clip-path:url(#SVGID_00000080925814659743256060000017837306488517554835_);}
	.st101{clip-path:url(#SVGID_00000124856637708245152490000009096377797239119790_);}
	.st102{fill:#000056;}
	.st103{clip-path:url(#SVGID_00000127766477754370157860000015438201269745500585_);}
	.st104{enable-background:new    ;}
	.st105{fill:#053272;}
	.st106{fill:none;stroke:#053272;stroke-width:4;stroke-miterlimit:10;}
	.st107{fill:url(#SVGID_00000071533149700011405140000002805490408843542679_);}
	.st108{fill:url(#SVGID_00000111190483432236248420000004255710802434175106_);}
	.st109{fill:url(#SVGID_00000180349146256092947900000001499176464825022339_);}
	.st110{fill:url(#SVGID_00000078024926785480411380000000784089630992391863_);}
	.st111{fill:url(#SVGID_00000167395570002272325040000010770806971385115299_);}
	.st112{fill:url(#SVGID_00000061437752837925056410000013766693271332521117_);}
	.st113{fill:url(#SVGID_00000034059005350218219890000017148142918359339165_);}
	.st114{fill:url(#SVGID_00000070111612670749609110000003184471477772667821_);}
	.st115{fill:url(#SVGID_00000080902942740283382180000011928939857564998551_);}
	.st116{fill:url(#SVGID_00000143597437240926103550000001746735603454911654_);}
	.st117{fill:url(#SVGID_00000069376551546470880490000001092384523202992256_);}
	.st118{fill:url(#SVGID_00000034090761854502788290000000369532471558075266_);}
	.st119{fill:url(#SVGID_00000138536102274001273090000013698856001683996308_);}
	.st120{fill:url(#SVGID_00000097461043834241140870000001145919907114084763_);}
	.st121{fill:url(#SVGID_00000116954513789526592190000013095497622441395118_);}
	.st122{fill:url(#SVGID_00000116948293388354244620000008148511571758510010_);}
	.st123{fill:url(#SVGID_00000124860728891743261020000014451407224433549743_);}
	.st124{fill:url(#SVGID_00000133502035810949121820000009578658834659424140_);}
	.st125{fill:url(#SVGID_00000113328907330052223960000009153592638014255532_);}
	.st126{fill:url(#SVGID_00000150805972314025116380000001931079326920134022_);}
	.st127{fill:url(#SVGID_00000057113818337831549180000014034084566053174674_);}
	.st128{fill:url(#SVGID_00000107546295751105904480000015778675081981598651_);}
	.st129{fill:url(#SVGID_00000164488280372830701050000015898162593995440008_);}
	.st130{fill:url(#SVGID_00000132045598068193395270000003658334389732967811_);}
	.st131{fill:url(#SVGID_00000098918046560428451210000012289767337431177389_);}
	.st132{fill:url(#SVGID_00000106828039718252161410000008354062160211809436_);}
	.st133{fill:url(#SVGID_00000169558954972299762090000011139646795612123298_);}
	.st134{fill:url(#SVGID_00000135676048439580828530000014504091594036007061_);}
	.st135{fill:url(#SVGID_00000060028024220486345480000003368200381787858823_);}
	.st136{fill:none;stroke:#FEF73D;stroke-linecap:round;stroke-miterlimit:10;}
	.st137{fill:#FF189C;}
	.st138{fill:none;stroke:#FF189C;stroke-miterlimit:10;}
	.st139{fill:none;stroke:#00EFF1;stroke-linecap:round;stroke-miterlimit:10;}
	.st140{fill:#00EFF1;}
	.st141{fill:#FFA022;}
	.st142{fill:#0C103A;}
	.st143{fill-rule:evenodd;clip-rule:evenodd;fill:#5D9541;}
	.st144{fill-rule:evenodd;clip-rule:evenodd;fill:#F06021;}
	.st145{fill-rule:evenodd;clip-rule:evenodd;fill:#69BC60;}
	.st146{fill-rule:evenodd;clip-rule:evenodd;fill:#F6951C;}
	.st147{fill:#F6951C;}
	.st148{fill:url(#SVGID_00000086652599079633439040000016818337170627394702_);}
	.st149{fill:url(#SVGID_00000093176244113996244540000016385364001906501308_);}
	.st150{fill:url(#SVGID_00000126315360326782102070000013535103902583576759_);}
	.st151{fill:url(#SVGID_00000121990464260030148080000013535359148492868790_);}
	.st152{fill:url(#SVGID_00000155141846882975173080000004220157613290724740_);}
	.st153{fill:url(#SVGID_00000155852047525508601870000017721074385595191173_);}
	.st154{fill:url(#SVGID_00000106867033275474805950000000156318427215596932_);}
	.st155{fill:url(#SVGID_00000047771292493269751540000004544165754069520300_);}
	.st156{fill:url(#SVGID_00000171719431258710073070000009268344714098377859_);}
	.st157{fill:url(#SVGID_00000070113444161374224380000002438174932343665801_);}
	.st158{fill:url(#SVGID_00000021837065279532934930000013009133717931571331_);}
	.st159{fill:url(#SVGID_00000153666654798536972520000000525200082893372348_);}
	.st160{fill:url(#SVGID_00000144327365093755943010000011280930860327350151_);}
	.st161{fill:url(#SVGID_00000091711598870448849690000011293915207768793755_);}
	.st162{fill:url(#SVGID_00000162312684912662090580000012083918030433373343_);}
	.st163{fill:url(#SVGID_00000098901276732585330690000006820964371483800722_);}
	.st164{fill:url(#SVGID_00000066488353551970283700000001760529729479838367_);}
	.st165{fill:url(#SVGID_00000116916302624868189070000018233184634700577709_);}
	.st166{fill:url(#SVGID_00000135651809672991025280000014144024818160574093_);}
	.st167{fill:url(#SVGID_00000000224345653406045120000000768180908781865361_);}
	.st168{fill:url(#SVGID_00000101064277333845618290000015949920552468170152_);}
	.st169{fill:url(#SVGID_00000148619921709922907490000002337116179842533308_);}
	.st170{fill-rule:evenodd;clip-rule:evenodd;fill:#512100;}
	.st171{fill-rule:evenodd;clip-rule:evenodd;fill:#006D62;}
	.st172{fill-rule:evenodd;clip-rule:evenodd;}
	.st173{fill-rule:evenodd;clip-rule:evenodd;fill:#00A1F5;}
	.st174{fill-rule:evenodd;clip-rule:evenodd;fill:#FACFAB;}
	.st175{fill-rule:evenodd;clip-rule:evenodd;fill:#F29673;}
	.st176{fill-rule:evenodd;clip-rule:evenodd;fill:#FFFFFF;}
	.st177{fill-rule:evenodd;clip-rule:evenodd;fill:#333333;}
	.st178{fill-rule:evenodd;clip-rule:evenodd;fill:#BD4D00;}
	.st179{fill-rule:evenodd;clip-rule:evenodd;fill:#B2B2B2;}
	.st180{fill-rule:evenodd;clip-rule:evenodd;fill:#F2CC29;}
	.st181{fill-rule:evenodd;clip-rule:evenodd;fill:#005C9C;}
	.st182{fill-rule:evenodd;clip-rule:evenodd;fill:#8AC900;}
	.st183{fill-rule:evenodd;clip-rule:evenodd;fill:#808080;}
	.st184{fill-rule:evenodd;clip-rule:evenodd;fill:#CFA605;}
	.st185{fill-rule:evenodd;clip-rule:evenodd;fill:#666666;}
	.st186{fill-rule:evenodd;clip-rule:evenodd;fill:#CCCCCC;}
	.st187{fill:#960000;}
	.st188{fill:#00A1F5;}
	.st189{fill:url(#SVGID_00000168087471026254562230000007766388609049032631_);}
	.st190{fill:url(#SVGID_00000051372846469741333770000001212637912563255440_);}
	.st191{opacity:0.51;fill:url(#SVGID_00000112606982336154643370000014314737276919806613_);}
	.st192{fill:url(#SVGID_00000009571513290983119980000005011558215165899648_);}
	.st193{fill:url(#SVGID_00000052814917881123326490000000918665255047793814_);}
	.st194{fill:url(#SVGID_00000034791225223058649100000008181635524434718858_);}
	.st195{opacity:0.35;fill:url(#SVGID_00000130644690714530988700000010537412363238288042_);}
	.st196{opacity:0.35;fill:url(#SVGID_00000120530978200764377150000007219805842681002926_);}
	.st197{fill:#F06021;}
	.st198{fill-rule:evenodd;clip-rule:evenodd;fill:url(#SVGID_00000160889615564623075420000014287371124575290258_);}
	.st199{fill-rule:evenodd;clip-rule:evenodd;fill:url(#SVGID_00000165921056198623507400000006243511699025516958_);}
	.st200{fill-rule:evenodd;clip-rule:evenodd;fill:url(#SVGID_00000029026018920802133800000002602365440893102512_);}
	.st201{fill-rule:evenodd;clip-rule:evenodd;fill:url(#SVGID_00000023967651016848502520000010375634444142459038_);}
	.st202{fill-rule:evenodd;clip-rule:evenodd;fill:url(#SVGID_00000059272060190269273030000015478268337316150963_);}
	.st203{fill-rule:evenodd;clip-rule:evenodd;fill:url(#SVGID_00000127737701678823476720000004203421294880146097_);}
	.st204{fill-rule:evenodd;clip-rule:evenodd;fill:url(#SVGID_00000079455106476223371670000012199417169560262814_);}
	.st205{fill-rule:evenodd;clip-rule:evenodd;fill:url(#SVGID_00000098919942086508303240000014464269220097992886_);}
	.st206{fill-rule:evenodd;clip-rule:evenodd;fill:url(#SVGID_00000046304392743693255260000001554351494117155483_);}
	.st207{fill-rule:evenodd;clip-rule:evenodd;fill:url(#SVGID_00000101788592748077597120000018419116011596252580_);}
	.st208{fill-rule:evenodd;clip-rule:evenodd;fill:url(#SVGID_00000039129933948863519010000016238967487682410424_);}
	.st209{fill-rule:evenodd;clip-rule:evenodd;fill:url(#SVGID_00000039835181119381484980000016543500567959953545_);}
	.st210{fill-rule:evenodd;clip-rule:evenodd;fill:url(#SVGID_00000178165372593902480740000006884747270766743998_);}
	.st211{opacity:0.5;fill-rule:evenodd;clip-rule:evenodd;fill:#5D0101;enable-background:new    ;}
	.st212{fill:#E11B22;}
	.st213{fill:#003359;}
	.st214{fill:#0EB17C;}
	.st215{fill:#959595;}
	.st216{fill:#1779C1;}
	.st217{fill:#2B2353;}
	.st218{fill:#BE264E;}
	.st219{fill:#EAA41C;}
	.st220{fill:#1F9EF3;}
	.st221{fill:#0267A3;}
	.st222{fill:#FFEC00;}
	.st223{fill:#00A0E0;}
	.st224{fill:#E3007E;}
	.st225{fill:none;stroke:#000000;stroke-width:2;stroke-miterlimit:10;}
	.st226{fill:#FF9E80;}
	.st227{fill:#414151;}
	.st228{fill:#2B295E;}
	.st229{fill:#CCCCCC;}
	.st230{fill:#FF8C5C;}
	.st231{fill:#DBA21C;}
	.st232{fill:#EDDBB2;}
	.st233{fill:#DEC58B;}
	.st234{fill:#997113;}
	.st235{fill:#B88817;}
	.st236{fill:#003400;stroke:#8EC13D;stroke-width:4;stroke-miterlimit:10;}
	.st237{fill:#8EC13D;}
	.st238{fill:#F2F2F2;}
	.st239{fill:url(#XMLID_00000056426414129536262830000005044919773528817836_);}
	.st240{fill:url(#SVGID_00000070835262209926005650000012493927663590137770_);}
	.st241{fill:url(#SVGID_00000085946752906198326900000000593934722784861343_);}
	.st242{fill:url(#SVGID_00000175289696779743050060000009007603906533077120_);}
	.st243{fill:url(#SVGID_00000044157035831980314590000001734337201959043497_);}
	.st244{fill:url(#SVGID_00000108282257923973391490000007405048915956000158_);}
	.st245{fill:url(#SVGID_00000157288009765167636770000008945928891327274896_);}
	.st246{fill:url(#SVGID_00000139987905265539015660000017101048934514722194_);}
	.st247{fill:url(#SVGID_00000018196804168709540980000000368934233584506794_);}
	.st248{fill:url(#SVGID_00000094579996645786896160000003074481038773490057_);}
	.st249{fill:url(#SVGID_00000173123349343932358850000002179454873494877086_);}
	.st250{fill:url(#SVGID_00000165217243341107490180000001695455718345723298_);}
	.st251{fill:#1C75BC;}
	.st252{fill:#46920C;}
	.st253{fill:#FF9400;}
	.st254{fill:url(#SVGID_00000038390629002599508860000011076789033459941519_);}
	.st255{fill:url(#SVGID_00000024714550369391152280000006204658110447511963_);}
	.st256{fill:url(#SVGID_00000004514110388860179830000008356136934772435374_);}
	.st257{fill:url(#SVGID_00000075124782924550918740000002929576349207393726_);}
	.st258{fill:url(#SVGID_00000052063835634730713580000003702494278899968672_);}
	.st259{fill:url(#SVGID_00000175302014947494409800000017345456589910728631_);}
	.st260{fill:url(#SVGID_00000175303373991410833470000012674485443206911363_);}
	.st261{fill:url(#SVGID_00000042707686830228460560000012405712121758625932_);}
	.st262{fill:url(#SVGID_00000106133526236425286540000015110737101591667842_);}
	.st263{fill:url(#SVGID_00000085211450158205124660000002414711497388660664_);}
	.st264{fill:url(#SVGID_00000060743773397132280380000012665417328729616046_);}
	.st265{fill:url(#SVGID_00000155105496855964241170000005129805996565376167_);}
	.st266{fill:url(#SVGID_00000122679535862824118170000012083249327864296885_);}
	.st267{fill:url(#SVGID_00000181806996293611625640000010582231910805038725_);}
	.st268{fill:url(#SVGID_00000178889689739781099510000003963428329619639449_);}
	.st269{fill:url(#SVGID_00000049925072164661855660000018011031961748917693_);}
	.st270{fill:url(#SVGID_00000088849331301481874890000009242435501964715430_);}
	.st271{fill:url(#SVGID_00000168800035711829409300000013755573267414047360_);}
	.st272{fill:url(#SVGID_00000019661558694123275000000006153115093347869867_);}
	.st273{fill:#2F3F67;}
	.st274{fill:#C97F32;}
	.st275{fill:none;stroke:#C97F32;stroke-width:1.2891;stroke-miterlimit:10;}
	.st276{fill:url(#XMLID_00000030460029378457687890000012324556058017958549_);}
	.st277{fill:#00548B;}
	.st278{fill:#004368;}
	.st279{fill:#94070A;}
	.st280{fill:url(#XMLID_00000182521438143958277570000007574563410979525019_);}
	.st281{fill:url(#XMLID_00000038386890085083839740000017363837026778333859_);}
	.st282{fill:#B34A06;}
	.st283{fill:#A2B5C4;}
	.st284{fill:#192940;}
	.st285{fill:url(#SVGID_00000012453025113141469800000004741952471898827700_);}
	.st286{fill:url(#SVGID_00000170259294237745219470000008999226609681203889_);}
	.st287{fill:url(#SVGID_00000163064113264965192990000016247945118959731337_);}
	.st288{opacity:0.93;fill:url(#SVGID_00000098918305671851818680000001059373015352770232_);}
	.st289{opacity:0.93;fill:url(#SVGID_00000107550532543655764990000011505648315504771469_);}
	.st290{opacity:0.93;fill:url(#SVGID_00000080900387366226134060000006479412294965796778_);}
	.st291{opacity:0.93;fill:url(#SVGID_00000048487349230217312590000016902287752886428294_);}
	.st292{fill:url(#SVGID_00000054252482388804699600000002507015447731914154_);}
	.st293{stroke:#000000;stroke-width:0.75;stroke-miterlimit:10;}
</style>
<g>
	<circle class="st226" cx="231.65" cy="99.65" r="13.38"/>
	<g>
		<path class="st226" d="M267.08,54.77c-0.33-0.7-0.99-0.77-1.53-1c-3.78-1.59-7.69-2.77-11.69-3.68c-1.18-0.27-2.09-0.07-3.05,0.66
			c-2.87,2.18-6,3.93-9.29,5.39c-0.95,0.42-1.92,0.77-2.98,0.82c-0.72,0.03-1.39-0.12-1.76-0.85c-0.37-0.72-0.12-1.36,0.32-1.94
			c0.55-0.73,1.27-1.25,2.02-1.76c1.86-1.26,3.83-2.33,6.04-3.27c-0.67-0.6-1.25-0.48-1.76-0.5c-2.76-0.12-5.53-0.13-8.29-0.32
			c-1.63-0.11-2.76,0.51-3.72,1.75c-1.19,1.53-2.42,3.02-3.69,4.47c-0.77,0.88-1.63,1.69-2.71,2.21c-0.66,0.32-1.32,0.46-1.95-0.03
			c-0.73-0.58-0.61-1.35-0.38-2.1c0.3-0.95,0.9-1.71,1.58-2.41c0.72-0.73,1.48-1.43,2.13-2.41c-0.78,0.27-1.56,0.53-2.33,0.82
			c-2.85,1.07-5.77,1.91-8.83,2.13c-1.53,0.11-3.05,0.07-4.5-0.52c-0.85-0.35-1.66-0.81-1.7-1.89c-0.04-1.08,0.69-1.58,1.54-2
			c0.95-0.46,1.97-0.62,3-0.76c2.81-0.41,5.64-0.49,8.47-0.63c0.89-0.05,1.78-0.11,2.64-0.17c0.26-0.8-0.39-0.9-0.72-1.15
			c-1.23-0.91-2.45-1.83-3.46-3c-0.41-0.48-0.82-0.95-1.03-1.56c-0.27-0.81-0.47-1.65,0.18-2.36c0.65-0.72,1.49-0.61,2.32-0.37
			c1.36,0.39,2.52,1.16,3.61,2.03c2.16,1.75,4.31,3.51,6.42,5.33c0.55,0.48,1.05,0.83,1.81,0.81c3.46-0.08,6.91,0.08,10.37,0.29
			c0.2,0.01,0.41,0,0.54-0.32c-1.02-1.13-2.1-2.28-3.12-3.48c-1.16-1.35-1.88-2.92-2.21-4.67c-0.19-1.01-0.12-2.02,0.82-2.61
			c0.98-0.61,1.89-0.11,2.65,0.54c2.03,1.73,3.65,3.82,5.16,5.99c0.99,1.43,1.93,2.9,2.83,4.39c0.42,0.7,0.9,1.15,1.74,1.31
			c4.79,0.87,9.42,2.3,13.93,4.15c0.18,0.07,0.4,0.07,0.73,0.13c0.03-0.86-0.5-1.45-0.79-2.11c-0.95-2.13-1.42-4.36-1.42-6.68
			c0-0.35,0.04-0.7,0.1-1.04c0.21-1.13,0.53-2.25,1.84-2.48c1.29-0.23,2.04,0.67,2.66,1.63c0.84,1.31,1.24,2.8,1.48,4.32
			c0.4,2.61,0.76,5.23,1.08,7.85c0.1,0.81,0.34,1.41,1.1,1.85c4.85,2.79,9.13,6.32,13,10.36c0.19,0.2,0.42,0.35,0.73,0.6
			c0.36-0.96-0.17-1.71-0.36-2.45c-0.51-1.95-1.11-3.88-1.41-5.88c-0.34-2.29-0.36-4.58,0.45-6.79c0.35-0.95,0.85-1.83,2-1.81
			c1.16,0.02,1.65,0.94,1.98,1.88c0.53,1.52,0.73,3.11,0.9,4.7c0.43,4.1,0.38,8.2,0.06,12.28c-0.12,1.57,0.26,2.8,1.31,3.99
			c1.52,1.72,2.92,3.54,4.33,5.35c0.44,0.57,1.24,1.33,0.48,1.98c-0.95,0.8-1.4-0.3-1.9-0.91c-1.55-1.88-3.07-3.78-4.65-5.64
			c-1.1-1.29-1.27-1.31-2.81-0.57c-3.6,1.73-7.35,2.78-11.38,2.68c-0.9-0.02-1.81-0.05-2.64-0.46c-1.07-0.54-1.21-1.6-0.28-2.34
			c0.82-0.66,1.82-0.98,2.81-1.27c2.79-0.83,5.65-1.27,8.53-1.65c0.66-0.09,1.37,0,1.94-0.39c0.09-0.47-0.21-0.68-0.44-0.93
			c-3.48-3.83-7.35-7.19-11.7-10c-0.93-0.6-1.71-0.79-2.85-0.33c-4.25,1.69-8.75,1.82-13.26,1.72c-0.41-0.01-0.84-0.09-1.21-0.25
			c-1.03-0.43-1.19-1.36-0.37-2.14c0.56-0.53,1.3-0.76,2.03-0.98c2.13-0.63,4.32-0.92,6.51-1.2
			C265.73,55.05,266.42,55.11,267.08,54.77 M269.89,52.73c0.37-4.25-1-9.59-2.84-10.67C266.38,46.07,267.89,49.4,269.89,52.73
			 M288.66,64.18c0.72-3.58,0.06-10.27-1.21-12.3C286.13,56.15,287.38,59.99,288.66,64.18 M248.33,46.42
			c-1.98-3.13-3.81-6.43-7.11-8.91C241.76,40.95,244.2,44.01,248.33,46.42 M211.29,50.5c2.9,0.88,5.61,0.28,8.32-0.45
			c0.11-0.03,0.3-0.22,0.28-0.25c-0.09-0.17-0.22-0.34-0.36-0.48c-0.39-0.4-0.9-0.34-1.37-0.29c-1.85,0.19-3.7,0.4-5.55,0.63
			C212.17,49.73,211.66,49.77,211.29,50.5 M221.65,40.4c0.99,2.39,4.66,5.09,7.31,5.41C226.66,43.83,224.58,41.57,221.65,40.4
			 M239.67,54.72c3.3-1.04,6.89-3.07,8.62-4.88c-2.71,1.25-5.28,2.42-7.7,3.9C240.26,53.93,239.82,54.04,239.67,54.72 M284.3,71.76
			c-2.57,0.17-5.1,0.46-7.47,1.48C279.47,73.51,281.94,72.88,284.3,71.76 M267.42,56.98c-1.61-0.05-3.22,0.07-4.92,0.51
			c0.65,0.41,1.19,0.19,1.7,0.14C265.28,57.51,266.38,57.51,267.42,56.98"/>
		<rect x="80.12" y="121.37" class="st226" width="116.61" height="71.17"/>
		<rect x="80.12" y="58.59" class="st226" width="116.61" height="8.76"/>
		<path class="st227" d="M266.44,59.66c-0.39-0.66-1.06-0.68-1.61-0.85c-3.91-1.24-7.92-2.05-11.98-2.59
			c-1.2-0.16-2.09,0.12-2.98,0.94c-2.65,2.44-5.61,4.47-8.75,6.23c-0.91,0.51-1.84,0.95-2.89,1.1c-0.72,0.1-1.39,0.01-1.83-0.68
			c-0.44-0.68-0.24-1.34,0.14-1.96c0.48-0.77,1.15-1.36,1.85-1.94c1.74-1.42,3.6-2.68,5.71-3.81c-0.73-0.53-1.29-0.36-1.8-0.33
			c-2.76,0.13-5.52,0.38-8.28,0.45c-1.63,0.04-2.7,0.77-3.55,2.09c-1.04,1.63-2.13,3.23-3.27,4.79c-0.69,0.95-1.47,1.83-2.5,2.45
			c-0.63,0.38-1.28,0.58-1.95,0.15c-0.78-0.51-0.74-1.28-0.57-2.05c0.21-0.97,0.74-1.79,1.35-2.54c0.65-0.8,1.34-1.56,1.9-2.6
			c-0.75,0.34-1.5,0.67-2.24,1.03c-2.74,1.33-5.56,2.44-8.59,2.94c-1.51,0.25-3.03,0.35-4.53-0.11c-0.87-0.27-1.73-0.65-1.87-1.73
			c-0.14-1.07,0.54-1.64,1.35-2.13c0.9-0.55,1.91-0.8,2.91-1.04c2.76-0.66,5.57-1,8.38-1.41c0.88-0.13,1.76-0.28,2.61-0.41
			c0.18-0.82-0.47-0.87-0.83-1.08c-1.31-0.79-2.61-1.59-3.72-2.67c-0.45-0.44-0.91-0.87-1.17-1.46c-0.35-0.78-0.62-1.6-0.04-2.37
			c0.58-0.77,1.43-0.75,2.27-0.59c1.39,0.26,2.62,0.92,3.78,1.69c2.32,1.54,4.62,3.1,6.88,4.71c0.59,0.42,1.12,0.73,1.88,0.64
			c3.43-0.4,6.89-0.55,10.35-0.67c0.2-0.01,0.4-0.03,0.51-0.37c-1.12-1.03-2.3-2.08-3.43-3.18c-1.28-1.24-2.14-2.74-2.63-4.44
			c-0.28-0.99-0.3-2,0.58-2.67c0.92-0.69,1.87-0.28,2.69,0.3c2.18,1.53,3.99,3.46,5.69,5.49c1.12,1.33,2.19,2.71,3.22,4.11
			c0.49,0.66,1.01,1.07,1.86,1.14c4.85,0.42,9.59,1.42,14.25,2.85c0.19,0.06,0.4,0.03,0.74,0.06c-0.05-0.86-0.63-1.4-0.98-2.02
			c-1.14-2.04-1.82-4.21-2.03-6.52c-0.03-0.34-0.03-0.7,0-1.04c0.1-1.15,0.33-2.29,1.6-2.64c1.26-0.35,2.09,0.48,2.8,1.38
			c0.96,1.23,1.5,2.67,1.87,4.16c0.64,2.56,1.24,5.14,1.8,7.72c0.18,0.8,0.47,1.38,1.27,1.74c5.09,2.33,9.67,5.45,13.9,9.12
			c0.2,0.18,0.45,0.31,0.79,0.53c0.27-0.99-0.33-1.68-0.59-2.4c-0.69-1.9-1.46-3.77-1.94-5.73c-0.55-2.25-0.78-4.53-0.18-6.8
			c0.26-0.98,0.67-1.9,1.82-1.99c1.15-0.09,1.73,0.78,2.14,1.69c0.67,1.46,1.02,3.03,1.33,4.6c0.8,4.04,1.13,8.13,1.2,12.23
			c0.02,1.58,0.52,2.77,1.67,3.85c1.67,1.57,3.24,3.26,4.8,4.93c0.49,0.53,1.36,1.21,0.66,1.93c-0.87,0.89-1.43-0.17-1.98-0.73
			c-1.72-1.73-3.41-3.48-5.15-5.19c-1.21-1.19-1.39-1.18-2.85-0.3c-3.42,2.05-7.06,3.45-11.08,3.72c-0.9,0.06-1.81,0.12-2.67-0.22
			c-1.11-0.44-1.35-1.48-0.49-2.31c0.75-0.73,1.72-1.14,2.69-1.52c2.7-1.08,5.51-1.78,8.34-2.43c0.65-0.15,1.36-0.13,1.9-0.57
			c0.05-0.47-0.27-0.66-0.52-0.89c-3.82-3.49-7.98-6.48-12.57-8.88c-0.98-0.51-1.77-0.63-2.87-0.07c-4.07,2.08-8.54,2.62-13.05,2.94
			c-0.41,0.03-0.84-0.02-1.23-0.14c-1.07-0.33-1.32-1.24-0.56-2.1c0.51-0.58,1.22-0.88,1.93-1.16c2.06-0.82,4.21-1.31,6.37-1.79
			C265.12,60.07,265.82,60.06,266.44,59.66 M269.05,57.37c-0.02-4.27-1.88-9.46-3.81-10.36C264.95,51.07,266.75,54.24,269.05,57.37
			 M288.8,67.04c0.39-3.63-0.89-10.23-2.34-12.14C285.54,59.28,287.13,62.99,288.8,67.04 M247,53.09c-2.26-2.93-4.39-6.05-7.9-8.22
			C239.96,48.24,242.67,51.07,247,53.09 M210.49,60.56c2.97,0.61,5.62-0.24,8.25-1.21c0.11-0.04,0.28-0.25,0.26-0.27
			c-0.11-0.16-0.25-0.31-0.4-0.44c-0.42-0.36-0.92-0.26-1.39-0.16c-1.82,0.36-3.65,0.74-5.46,1.14
			C211.3,59.71,210.8,59.8,210.49,60.56 M219.88,49.55c1.2,2.29,5.11,4.63,7.77,4.71C225.19,52.5,222.9,50.44,219.88,49.55
			 M239.15,62.14c3.19-1.34,6.57-3.69,8.13-5.66c-2.58,1.49-5.04,2.9-7.31,4.59C239.66,61.31,239.23,61.45,239.15,62.14
			 M285.15,74.99c-2.54,0.4-5.04,0.92-7.3,2.16C280.51,77.18,282.91,76.33,285.15,74.99 M266.99,61.83c-1.6,0.1-3.19,0.37-4.85,0.96
			c0.69,0.35,1.2,0.08,1.7-0.02C264.9,62.56,266,62.45,266.99,61.83"/>
		<g>
			<g>
				<polygon class="st227" points="305.08,165.02 42.92,165.02 42.92,94.42 76.27,94.42 76.27,96.98 45.48,96.98 45.48,162.46 
					302.52,162.46 302.52,96.98 297.14,96.98 297.14,94.42 305.08,94.42 				"/>
			</g>
			<g>
				<g>
					<path class="st227" d="M91.58,83.98h5.09l11.89,31.94h-5.14l-3.87-10.41c-0.57,0.99-1.31,2.06-2.21,3.2
						c-0.9,1.14-1.89,2.23-2.97,3.27c-1.08,1.04-2.22,1.95-3.42,2.73c-1.2,0.78-2.37,1.29-3.51,1.53c-1.08,0.24-2.07,0.18-2.95-0.18
						c-0.89-0.36-1.57-0.94-2.05-1.73c-0.48-0.79-0.72-1.8-0.72-3.02c0-1.22,0.33-2.56,0.99-4.03l8.24-18.79
						c0.27-0.63,0.47-1.35,0.59-2.16c0.12-0.81,0.13-1.56,0.04-2.25V83.98z M92.8,87.27l-8.79,20.27c-0.42,0.96-0.68,1.9-0.77,2.82
						c-0.09,0.92-0.03,1.74,0.18,2.46c0.21,0.72,0.57,1.3,1.08,1.73s1.17,0.65,1.98,0.65c1.14,0,2.35-0.37,3.63-1.1
						c1.28-0.74,2.51-1.63,3.69-2.68c1.19-1.05,2.27-2.16,3.24-3.33c0.98-1.17,1.75-2.19,2.32-3.06L92.8,87.27z"/>
					<path class="st227" d="M117.39,97.54c0.69-1.17,1.63-2.09,2.82-2.75c1.19-0.66,2.59-0.99,4.21-0.99s3.06,0.3,4.3,0.9
						c1.25,0.6,2.3,1.42,3.15,2.46c0.86,1.04,1.51,2.25,1.96,3.65c0.45,1.4,0.68,2.91,0.68,4.53c0,1.56-0.21,3.03-0.63,4.42
						c-0.42,1.38-1.04,2.59-1.87,3.63c-0.83,1.04-1.86,1.85-3.11,2.43c-1.25,0.58-2.7,0.88-4.35,0.88c-0.9,0-1.74-0.14-2.52-0.43
						c-0.78-0.29-1.48-0.67-2.1-1.15c-0.62-0.48-1.14-1.03-1.58-1.64c-0.44-0.62-0.76-1.25-0.97-1.92v15.36l-4.19,1.17v-33.7h4.19
						V97.54z M130.19,105.34c0-1.17-0.15-2.37-0.45-3.58c-0.3-1.22-0.73-2.31-1.28-3.29c-0.56-0.98-1.23-1.78-2.03-2.41
						c-0.8-0.63-1.67-0.95-2.64-0.95c-0.93,0-1.79,0.09-2.59,0.27c-0.8,0.18-1.48,0.62-2.05,1.33c-0.57,0.71-1.01,1.74-1.33,3.09
						c-0.31,1.35-0.47,3.2-0.47,5.54c0,1.95,0.16,3.54,0.47,4.78c0.32,1.23,0.76,2.19,1.33,2.88c0.57,0.69,1.25,1.16,2.05,1.4
						c0.8,0.24,1.66,0.36,2.59,0.36c0.99,0,1.88-0.27,2.66-0.81c0.78-0.54,1.45-1.25,2-2.14c0.56-0.89,0.98-1.89,1.28-3.02
						C130.04,107.66,130.19,106.51,130.19,105.34z"/>
					<path class="st227" d="M144.11,97.54c0.69-1.17,1.63-2.09,2.82-2.75c1.19-0.66,2.59-0.99,4.21-0.99s3.06,0.3,4.3,0.9
						c1.25,0.6,2.3,1.42,3.15,2.46c0.86,1.04,1.51,2.25,1.96,3.65c0.45,1.4,0.68,2.91,0.68,4.53c0,1.56-0.21,3.03-0.63,4.42
						c-0.42,1.38-1.04,2.59-1.87,3.63c-0.83,1.04-1.86,1.85-3.11,2.43c-1.25,0.58-2.7,0.88-4.35,0.88c-0.9,0-1.74-0.14-2.52-0.43
						c-0.78-0.29-1.48-0.67-2.1-1.15c-0.62-0.48-1.14-1.03-1.58-1.64c-0.44-0.62-0.76-1.25-0.97-1.92v15.36l-4.19,1.17v-33.7h4.19
						V97.54z M156.91,105.34c0-1.17-0.15-2.37-0.45-3.58c-0.3-1.22-0.73-2.31-1.28-3.29c-0.56-0.98-1.23-1.78-2.03-2.41
						c-0.8-0.63-1.67-0.95-2.64-0.95c-0.93,0-1.79,0.09-2.59,0.27c-0.8,0.18-1.48,0.62-2.05,1.33c-0.57,0.71-1.01,1.74-1.33,3.09
						c-0.31,1.35-0.47,3.2-0.47,5.54c0,1.95,0.16,3.54,0.47,4.78c0.32,1.23,0.76,2.19,1.33,2.88c0.57,0.69,1.25,1.16,2.05,1.4
						c0.8,0.24,1.66,0.36,2.59,0.36c0.99,0,1.88-0.27,2.66-0.81c0.78-0.54,1.45-1.25,2-2.14c0.56-0.89,0.98-1.89,1.28-3.02
						C156.75,107.66,156.91,106.51,156.91,105.34z"/>
					<path class="st227" d="M181.41,111.78c-0.21,0.42-0.54,0.91-0.99,1.46c-0.45,0.56-1.04,1.08-1.76,1.58
						c-0.72,0.5-1.59,0.92-2.61,1.26c-1.02,0.35-2.21,0.52-3.56,0.52c-0.96,0-1.88-0.1-2.75-0.29s-1.63-0.5-2.27-0.9
						c-0.65-0.41-1.16-0.94-1.53-1.6c-0.38-0.66-0.56-1.46-0.56-2.39c0-1.41,0.26-2.59,0.79-3.54c0.52-0.95,1.22-1.72,2.09-2.32
						c0.87-0.6,1.87-1.07,3-1.4c1.13-0.33,2.28-0.58,3.47-0.74c1.19-0.17,2.36-0.27,3.51-0.32c1.16-0.04,2.21-0.1,3.18-0.16v-1.71
						c0-1.56-0.15-2.82-0.45-3.76c-0.3-0.95-0.71-1.67-1.22-2.16c-0.51-0.5-1.1-0.82-1.78-0.97c-0.68-0.15-1.37-0.21-2.1-0.18
						c-0.75,0.03-1.5,0.2-2.25,0.5c-0.75,0.3-1.46,0.71-2.12,1.22c-0.66,0.51-1.25,1.13-1.76,1.85c-0.51,0.72-0.9,1.53-1.17,2.43
						l-2.12-1.8c0.78-1.62,2.04-2.82,3.78-3.6c1.74-0.78,3.59-1.2,5.54-1.26c1.23-0.03,2.43,0.04,3.6,0.23
						c1.17,0.18,2.22,0.56,3.15,1.13c0.93,0.57,1.67,1.36,2.23,2.37c0.56,1.01,0.83,2.31,0.83,3.9v14.91h-4.19V111.78z
						 M181.41,103.45c-1.14,0.06-2.37,0.23-3.69,0.52c-1.32,0.29-2.56,0.73-3.72,1.33c-1.16,0.6-2.13,1.37-2.91,2.32
						c-0.78,0.95-1.2,2.12-1.26,3.54c-0.06,1.23,0.25,2.29,0.95,3.18c0.69,0.89,1.58,1.33,2.66,1.33c0.78,0,1.63-0.14,2.55-0.43
						c0.92-0.29,1.78-0.7,2.59-1.24c0.81-0.54,1.49-1.21,2.03-2c0.54-0.79,0.81-1.72,0.81-2.77V103.45z"/>
					<path class="st227" d="M204.66,97.18c-0.24-0.06-0.48-0.11-0.72-0.13c-0.24-0.03-0.48-0.05-0.72-0.05
						c-0.81,0-1.62,0.14-2.43,0.43s-1.54,0.68-2.19,1.19c-0.65,0.51-1.17,1.13-1.58,1.85c-0.41,0.72-0.61,1.52-0.61,2.39v13.02
						h-4.23V94.34h4.23v5.99c0.33-0.72,0.76-1.49,1.28-2.32c0.52-0.83,1.14-1.56,1.85-2.21c0.71-0.65,1.49-1.15,2.34-1.51
						s1.78-0.45,2.77-0.27V97.18z"/>
					<path class="st227" d="M229.17,111.83c-1.02,1.74-2.35,3-3.99,3.76c-1.64,0.77-3.36,1.13-5.16,1.1
						c-1.59-0.03-3.17-0.27-4.73-0.72c-1.56-0.45-2.96-1.14-4.19-2.07c-1.23-0.93-2.23-2.13-3-3.6c-0.77-1.47-1.15-3.23-1.15-5.27
						c0-1.71,0.34-3.27,1.01-4.66c0.68-1.4,1.56-2.6,2.66-3.6c1.1-1.01,2.33-1.79,3.72-2.34c1.38-0.56,2.78-0.83,4.19-0.83
						c1.5,0,2.91,0.19,4.24,0.56c1.32,0.38,2.45,0.89,3.38,1.55c0.93,0.66,1.61,1.44,2.05,2.34c0.44,0.9,0.52,1.86,0.25,2.88
						c-0.27,1.02-1.06,1.87-2.37,2.55c-1.31,0.68-2.81,1.2-4.51,1.58c-1.7,0.38-3.45,0.62-5.25,0.72s-3.33,0.1-4.6-0.02
						c0.18,1.56,0.52,2.9,1.01,4.01s1.1,2.04,1.82,2.79c0.72,0.75,1.52,1.35,2.41,1.8c0.89,0.45,1.81,0.8,2.77,1.04
						c0.69,0.18,1.38,0.27,2.07,0.27c1.26,0,2.48-0.32,3.67-0.97c1.19-0.65,2.26-1.69,3.22-3.13L229.17,111.83z M211.69,105.2
						c0.18-0.03,0.57-0.07,1.17-0.11c0.6-0.05,1.33-0.12,2.19-0.23c0.86-0.11,1.77-0.25,2.75-0.43c0.98-0.18,1.91-0.44,2.79-0.79
						c0.89-0.34,1.69-0.77,2.41-1.26c0.72-0.5,1.23-1.1,1.53-1.82c0.3-0.66,0.42-1.37,0.36-2.12c-0.06-0.75-0.32-1.44-0.79-2.07
						c-0.47-0.63-1.15-1.15-2.05-1.55c-0.9-0.41-2.06-0.61-3.47-0.61c-1.53,0-2.76,0.35-3.69,1.06c-0.93,0.71-1.64,1.6-2.14,2.68
						s-0.81,2.27-0.95,3.56C211.67,102.8,211.63,104.03,211.69,105.2z"/>
					<path class="st227" d="M233.32,115.93V87.14c0-0.6-0.09-1.08-0.27-1.44c-0.18-0.36-0.4-0.65-0.65-0.86
						c-0.26-0.21-0.53-0.37-0.81-0.47c-0.29-0.11-0.53-0.2-0.74-0.29v-0.09h6.67v31.94H233.32z"/>
				</g>
			</g>
			<g>
				<g>
					<path class="st227" d="M89.72,129.84c-1.08,0-1.86,0.19-2.35,0.58c-0.49,0.39-0.76,0.89-0.81,1.5s0.1,1.3,0.45,2.06
						c0.34,0.76,0.82,1.53,1.44,2.29l5.25,6.46c0.18-0.45,0.29-0.92,0.33-1.4c0.04-0.49,0.02-0.97-0.04-1.45s-0.19-0.94-0.36-1.38
						c-0.17-0.44-0.39-0.84-0.64-1.2h2.24c0.25,1.2,0.26,2.28,0.02,3.25c-0.24,0.97-0.64,1.83-1.21,2.58l2.22,2.74h-2.8l-0.99-1.21
						c-1.35,0.97-2.88,1.46-4.6,1.46c-1.27,0-2.31-0.26-3.12-0.77c-0.81-0.52-1.38-1.15-1.73-1.92c-0.22-0.54-0.33-1.11-0.31-1.71
						c0.01-0.6,0.16-1.18,0.43-1.75c0.27-0.57,0.67-1.11,1.2-1.61c0.53-0.51,1.2-0.93,2.01-1.28l-0.47-0.56
						c-0.66-0.82-1.03-1.65-1.12-2.48c-0.09-0.83,0.05-1.57,0.43-2.23c0.37-0.66,0.95-1.19,1.74-1.6c0.78-0.41,1.72-0.61,2.79-0.59
						c0.54,0.02,1.05,0.1,1.55,0.25c0.49,0.15,0.93,0.37,1.32,0.66c0.39,0.29,0.7,0.66,0.93,1.1c0.23,0.44,0.35,0.95,0.35,1.54
						h-1.32c-0.07-1.08-0.37-1.9-0.9-2.47C91.11,130.12,90.47,129.84,89.72,129.84z M86.54,137.35c-0.46,0.31-0.84,0.69-1.13,1.12
						c-0.29,0.43-0.5,0.89-0.63,1.38c-0.13,0.49-0.17,0.99-0.13,1.5c0.04,0.52,0.15,1,0.35,1.47c0.31,0.81,0.84,1.47,1.59,1.98
						c0.75,0.52,1.68,0.74,2.8,0.66c0.63-0.04,1.18-0.15,1.67-0.33c0.49-0.17,0.91-0.38,1.27-0.64L86.54,137.35z"/>
					<path class="st227" d="M104.46,145.87v-13.73c0-0.39-0.05-0.78-0.15-1.18c-0.1-0.4-0.24-0.73-0.42-1h9.78l0.52,2.98
						c-0.24-0.52-0.5-0.94-0.79-1.26c-0.28-0.31-0.58-0.55-0.9-0.72c-0.31-0.16-0.64-0.27-0.99-0.33c-0.34-0.05-0.69-0.08-1.03-0.08
						h-3.43c-0.1,0.25-0.19,0.5-0.26,0.75c-0.07,0.25-0.1,0.52-0.1,0.82v5.43h4.31c0.3,0,0.58-0.1,0.83-0.31
						c0.25-0.21,0.45-0.58,0.58-1.12v3.27c-0.27-0.97-0.74-1.46-1.41-1.46h-4.31v7.92H104.46z"/>
					<path class="st227" d="M122.33,143.81c-0.1,0.21-0.27,0.45-0.49,0.73c-0.22,0.28-0.52,0.54-0.87,0.78
						c-0.36,0.25-0.79,0.46-1.3,0.63c-0.51,0.17-1.1,0.26-1.77,0.26c-0.48,0-0.93-0.05-1.37-0.15c-0.43-0.1-0.81-0.25-1.13-0.45
						s-0.58-0.47-0.76-0.8c-0.19-0.33-0.28-0.73-0.28-1.19c0-0.7,0.13-1.29,0.39-1.76c0.26-0.47,0.61-0.86,1.04-1.16
						s0.93-0.53,1.49-0.7c0.56-0.16,1.14-0.29,1.73-0.37c0.59-0.08,1.17-0.13,1.75-0.16c0.58-0.02,1.1-0.05,1.58-0.08v-0.85
						c0-0.78-0.08-1.4-0.22-1.87c-0.15-0.47-0.35-0.83-0.61-1.08c-0.25-0.25-0.55-0.41-0.89-0.48c-0.34-0.08-0.68-0.1-1.04-0.09
						c-0.37,0.01-0.75,0.1-1.12,0.25c-0.37,0.15-0.73,0.35-1.05,0.61c-0.33,0.25-0.62,0.56-0.87,0.92
						c-0.25,0.36-0.45,0.76-0.58,1.21l-1.05-0.9c0.39-0.81,1.02-1.41,1.88-1.79c0.87-0.39,1.79-0.6,2.76-0.63
						c0.61-0.01,1.21,0.02,1.79,0.11s1.11,0.28,1.57,0.56c0.46,0.28,0.83,0.68,1.11,1.18c0.28,0.5,0.41,1.15,0.41,1.94v7.42h-2.09
						V143.81z M122.33,139.66c-0.57,0.03-1.18,0.12-1.84,0.26c-0.66,0.14-1.27,0.36-1.85,0.66c-0.58,0.3-1.06,0.68-1.45,1.16
						c-0.39,0.47-0.6,1.06-0.63,1.76c-0.03,0.61,0.13,1.14,0.47,1.58c0.34,0.44,0.79,0.66,1.32,0.66c0.39,0,0.81-0.07,1.27-0.21
						c0.46-0.14,0.89-0.35,1.29-0.62c0.4-0.27,0.74-0.6,1.01-1c0.27-0.4,0.4-0.86,0.4-1.38V139.66z"/>
					<path class="st227" d="M127.36,143.81c0.3,0.25,0.65,0.49,1.05,0.72s0.83,0.42,1.29,0.58c0.46,0.17,0.92,0.3,1.38,0.39
						c0.46,0.1,0.9,0.15,1.3,0.15c0.7,0,1.28-0.16,1.74-0.47c0.46-0.31,0.68-0.85,0.68-1.61c0-0.42-0.2-0.75-0.59-1
						c-0.4-0.25-0.89-0.47-1.48-0.66c-0.59-0.19-1.23-0.38-1.93-0.57c-0.7-0.19-1.34-0.42-1.94-0.71c-0.6-0.28-1.1-0.65-1.51-1.09
						c-0.41-0.44-0.63-1-0.66-1.69c-0.02-0.57,0.08-1.04,0.28-1.42c0.2-0.38,0.49-0.69,0.85-0.93c0.37-0.24,0.79-0.41,1.28-0.5
						c0.49-0.1,1-0.15,1.54-0.15c0.42,0,0.87,0.03,1.35,0.09s0.96,0.15,1.45,0.26c0.49,0.11,0.95,0.25,1.39,0.43
						c0.44,0.17,0.83,0.36,1.18,0.57l-0.81,1.21c-0.55-0.66-1.24-1.2-2.06-1.64c-0.82-0.43-1.67-0.65-2.53-0.65
						c-0.78,0-1.39,0.2-1.85,0.59c-0.46,0.4-0.58,1-0.37,1.81c0.13,0.49,0.43,0.88,0.88,1.17c0.45,0.28,0.96,0.52,1.55,0.72
						s1.2,0.37,1.84,0.53c0.64,0.16,1.23,0.35,1.77,0.58c0.54,0.23,0.98,0.53,1.33,0.9c0.35,0.37,0.53,0.86,0.53,1.49
						c0,0.61-0.16,1.12-0.49,1.54s-0.76,0.74-1.29,0.99c-0.53,0.25-1.13,0.42-1.79,0.52c-0.67,0.1-1.34,0.13-2.03,0.1
						c-0.81-0.03-1.57-0.12-2.3-0.28c-0.73-0.16-1.3-0.36-1.74-0.62L127.36,143.81z"/>
					<path class="st227" d="M147.02,139.44c0-0.19,0-0.52,0.01-0.99c0.01-0.46-0.03-0.93-0.12-1.41s-0.25-0.9-0.49-1.27
						c-0.24-0.37-0.61-0.55-1.12-0.55c-0.46,0-0.95,0.15-1.45,0.46c-0.5,0.31-0.95,0.7-1.36,1.17c-0.4,0.47-0.74,0.99-1,1.55
						c-0.26,0.56-0.39,1.1-0.39,1.6v5.88H139v-15.32l2.11-0.58v8.39c0.13-0.45,0.35-0.89,0.65-1.31c0.3-0.43,0.65-0.81,1.04-1.14
						c0.4-0.34,0.82-0.61,1.27-0.82c0.45-0.21,0.89-0.31,1.32-0.31c0.84,0,1.5,0.11,2,0.34c0.49,0.22,0.87,0.53,1.12,0.92
						c0.25,0.39,0.42,0.85,0.5,1.39s0.12,1.11,0.12,1.73v6.73h-2.11V139.44z"/>
					<path class="st227" d="M152.7,145.85v-9.64c0-0.21-0.04-0.37-0.13-0.49c-0.09-0.12-0.2-0.21-0.33-0.28s-0.26-0.12-0.4-0.16
						s-0.27-0.07-0.37-0.1v-0.04h3.32v10.72H152.7z M152.29,132.53c0-0.34,0.12-0.64,0.36-0.89c0.24-0.25,0.53-0.37,0.87-0.37
						c0.34,0,0.64,0.12,0.89,0.37c0.25,0.25,0.37,0.54,0.37,0.89s-0.12,0.64-0.37,0.87c-0.25,0.24-0.54,0.36-0.89,0.36
						c-0.34,0-0.64-0.12-0.87-0.36C152.41,133.17,152.29,132.87,152.29,132.53z"/>
					<path class="st227" d="M162.79,134.75c0.81,0,1.55,0.15,2.22,0.44c0.67,0.29,1.26,0.69,1.75,1.2c0.49,0.51,0.87,1.11,1.14,1.8
						s0.4,1.46,0.4,2.28c0,0.82-0.13,1.58-0.4,2.29s-0.65,1.31-1.14,1.82c-0.49,0.51-1.08,0.91-1.75,1.2
						c-0.67,0.29-1.41,0.44-2.22,0.44c-0.81,0-1.55-0.15-2.22-0.44c-0.67-0.29-1.26-0.69-1.75-1.2c-0.49-0.51-0.87-1.11-1.14-1.82
						s-0.4-1.46-0.4-2.29c0-0.82,0.13-1.58,0.4-2.28s0.65-1.3,1.14-1.8c0.49-0.51,1.08-0.91,1.75-1.2
						C161.24,134.9,161.98,134.75,162.79,134.75z M162.81,145.87c0.45,0,0.87-0.12,1.28-0.35c0.4-0.23,0.76-0.58,1.07-1.04
						c0.31-0.46,0.55-1.03,0.73-1.7c0.18-0.67,0.27-1.45,0.27-2.33c0-0.51-0.06-1.07-0.17-1.69c-0.11-0.62-0.3-1.2-0.55-1.75
						c-0.25-0.54-0.6-1-1.03-1.37c-0.43-0.37-0.98-0.55-1.64-0.55c-0.45,0-0.87,0.12-1.28,0.35s-0.76,0.58-1.07,1.03
						s-0.55,1.02-0.73,1.69c-0.18,0.67-0.27,1.44-0.27,2.31c0,0.51,0.06,1.08,0.17,1.71s0.29,1.21,0.55,1.76s0.6,1,1.04,1.38
						S162.17,145.87,162.81,145.87z"/>
					<path class="st227" d="M179.03,139.44c0-0.87-0.06-1.59-0.19-2.16s-0.3-1.02-0.5-1.35c-0.21-0.32-0.45-0.54-0.73-0.65
						c-0.28-0.11-0.57-0.14-0.89-0.08c-0.42,0.07-0.84,0.28-1.27,0.61c-0.43,0.33-0.81,0.71-1.16,1.14
						c-0.34,0.43-0.63,0.89-0.85,1.38c-0.22,0.49-0.34,0.92-0.34,1.31v6.23H171v-10.74h2.11v3.23c0.22-0.48,0.49-0.94,0.8-1.38
						c0.31-0.44,0.65-0.83,1.04-1.17c0.39-0.34,0.82-0.61,1.3-0.81c0.48-0.2,0.99-0.3,1.55-0.3c0.45,0,0.88,0.08,1.28,0.25
						c0.4,0.17,0.76,0.43,1.07,0.79c0.31,0.36,0.55,0.82,0.73,1.38c0.18,0.56,0.27,1.24,0.27,2.03v6.73h-2.11V139.44z"/>
				</g>
			</g>
			<g>
				<rect x="201.05" y="142.86" class="st227" width="87.95" height="0.96"/>
			</g>
		</g>
	</g>
</g>
</svg>
