<?xml version="1.0" encoding="utf-8"?>
<!-- Generator: Adobe Illustrator 27.8.1, SVG Export Plug-In . SVG Version: 6.00 Build 0)  -->
<svg version="1.1" id="Layer_1" xmlns="http://www.w3.org/2000/svg" xmlns:xlink="http://www.w3.org/1999/xlink" x="0px" y="0px"
	 viewBox="0 0 348 228" style="enable-background:new 0 0 348 228;" xml:space="preserve">
<style type="text/css">
	.st0{fill:#D6EADE;}
	.st1{fill:#03487C;}
	.st2{fill:#1B1B4C;}
	.st3{fill-rule:evenodd;clip-rule:evenodd;fill:#204F7A;}
	.st4{fill-rule:evenodd;clip-rule:evenodd;fill:#50A4FF;}
	.st5{fill:#002649;}
	.st6{fill:#E6E7E8;stroke:#CFCFCF;stroke-width:0.1061;}
	.st7{fill:#333333;}
	.st8{fill:#0F5998;}
	.st9{fill:#277FC1;}
	.st10{fill-rule:evenodd;clip-rule:evenodd;fill:#277FC1;}
	.st11{fill-rule:evenodd;clip-rule:evenodd;fill:#083D6D;}
	.st12{fill:#DDB462;}
	
		.st13{clip-path:url(#SVGID_00000085971999319794907170000006008201786213193612_);fill:url(#SVGID_00000017485679359337057360000013710285736828114340_);}
	.st14{fill:#FFFFFF;}
	.st15{fill:url(#SVGID_00000105405633416181882230000000415791063963407762_);}
	.st16{fill:#224685;}
	.st17{fill:none;}
	.st18{fill:#FFC73B;}
	.st19{fill:#11233F;}
	.st20{fill:#5267FF;}
	.st21{fill-rule:evenodd;clip-rule:evenodd;fill:#72342E;}
	.st22{fill:#72342E;}
	.st23{fill:#FFF2E2;}
	.st24{fill:#FFF2E2;stroke:#72342E;stroke-width:0.75;stroke-miterlimit:10;}
	.st25{fill:#FFCC99;}
	.st26{fill:#469CB2;}
	.st27{fill:url(#XMLID_00000124865532887405100620000017613030915924994483_);}
	.st28{fill:url(#XMLID_00000168804021244165467750000018160693891468277420_);}
	.st29{fill:url(#XMLID_00000170972678698461728190000007219807374692859555_);}
	.st30{fill:url(#XMLID_00000133495988374382197750000010140086168784641707_);}
	.st31{fill:url(#XMLID_00000179617195843947341780000014999370825152616084_);}
	.st32{fill:url(#XMLID_00000083072100113321462470000003107089406712958609_);}
	.st33{fill:url(#XMLID_00000095312895205955829970000000867963709674246835_);}
	.st34{fill:url(#XMLID_00000088814795390215282160000007126184404077021586_);}
	.st35{fill:url(#XMLID_00000036958455040490816460000010781208843718162050_);}
	.st36{fill:url(#XMLID_00000003073683147354225180000011207049517666318482_);}
	.st37{fill:url(#XMLID_00000104691638940246649680000000761495886525836727_);}
	.st38{fill:url(#XMLID_00000132047413795570083430000008444921300765877439_);}
	.st39{fill:url(#XMLID_00000001653657148333982790000014455189909516741046_);}
	.st40{fill:url(#XMLID_00000075866972076788949550000016631723495700513157_);}
	.st41{fill:url(#XMLID_00000052097980027572874010000008117905403497124782_);}
	.st42{fill:url(#SVGID_00000005240949929466872650000017574261914092199830_);}
	.st43{fill:url(#SVGID_00000106844660281332514330000010532646883722204072_);}
	.st44{fill:url(#SVGID_00000170278187539779993570000016601651681666215078_);}
	.st45{fill:url(#SVGID_00000113333436948971642380000000300951718372775334_);}
	.st46{fill:url(#SVGID_00000119811415612958813980000015988098401969390750_);}
	.st47{fill:url(#SVGID_00000134242123806293337820000014959160859802372247_);}
	.st48{fill:url(#SVGID_00000111900235356888696970000011311685923231140022_);}
	.st49{fill:url(#SVGID_00000035518788912445145330000005473825860244594355_);}
	.st50{fill:url(#SVGID_00000074432972273035519100000006110134013835128744_);}
	.st51{fill:url(#SVGID_00000020380413035297229930000014026698647619344279_);}
	.st52{fill:url(#SVGID_00000006678529208812307590000011804660346391249586_);}
	.st53{fill:url(#SVGID_00000109740113379010525700000010488933303177147297_);}
	.st54{fill:url(#SVGID_00000078022410905100507900000015275436626828372393_);}
	.st55{fill:url(#SVGID_00000088128752945109425800000012387856886004198531_);}
	.st56{fill:#30325E;}
	.st57{fill:#FF7859;}
	.st58{fill:#FFD550;}
	.st59{fill:#00C3AD;}
	.st60{fill:#FF4653;}
	.st61{fill:#D8CE19;}
	.st62{fill:#FFE4D2;}
	.st63{fill:#DFF4F0;}
	.st64{fill:#A2E0EB;}
	.st65{fill:#1B3493;}
	.st66{fill:none;stroke:#FFFFFF;stroke-width:2;stroke-linecap:round;stroke-linejoin:round;stroke-miterlimit:10;}
	.st67{fill:#F15A24;}
	.st68{fill:#F7931E;}
	.st69{fill:#58595B;}
	.st70{fill:#114E15;}
	.st71{fill:#013D01;}
	.st72{fill:#E9C608;}
	.st73{fill:#043B00;}
	.st74{fill:#D8A43E;}
	.st75{clip-path:url(#SVGID_00000129926918527356588100000017894605579414177710_);}
	.st76{fill:#F49630;}
	.st77{clip-path:url(#SVGID_00000037668137300677426870000007393709718613004929_);}
	.st78{clip-path:url(#SVGID_00000005959832245830955270000010301015691790379950_);}
	.st79{clip-path:url(#SVGID_00000114051504130154503530000012236170919610929568_);}
	.st80{clip-path:url(#SVGID_00000105420499498245173500000006812939626558353080_);}
	.st81{fill-rule:evenodd;clip-rule:evenodd;fill:#FF6600;}
	.st82{fill-rule:evenodd;clip-rule:evenodd;fill:#05174F;}
	.st83{fill:#05174F;}
	.st84{opacity:0.42;fill:url(#SVGID_00000121252083914792351540000006958016142177674647_);enable-background:new    ;}
	.st85{opacity:0.42;fill:url(#SVGID_00000006705953957552707230000012268190151707657139_);enable-background:new    ;}
	.st86{fill:url(#SVGID_00000151541346242559163420000000504441758128982446_);}
	.st87{fill:url(#SVGID_00000030457079714014543330000016215207176486353053_);}
	.st88{opacity:0.64;fill:url(#SVGID_00000108268098543720824180000009242128525637646753_);enable-background:new    ;}
	.st89{opacity:0.75;fill:url(#SVGID_00000095312283232921038330000018095127903836131739_);enable-background:new    ;}
	.st90{fill:url(#SVGID_00000001629978878269857240000005195514446328435619_);}
	.st91{fill:url(#SVGID_00000132087548987744239520000016485551639909169033_);}
	.st92{opacity:0.76;fill:url(#SVGID_00000160162190450202855810000009287159914439497093_);enable-background:new    ;}
	.st93{opacity:0.75;fill:url(#SVGID_00000176004771901895629820000000071707091200303283_);enable-background:new    ;}
	.st94{fill:url(#SVGID_00000133496130053586241720000014531940879017096110_);}
	.st95{opacity:0.42;fill:url(#SVGID_00000087376426267422045450000008120649335657611193_);enable-background:new    ;}
	.st96{opacity:0.42;fill:url(#SVGID_00000137833074546096754060000015387913574745924743_);enable-background:new    ;}
	.st97{clip-path:url(#SVGID_00000107554092301058249880000009300991214520964022_);}
	.st98{fill:#1ED7FE;}
	.st99{clip-path:url(#SVGID_00000122691146139463580730000018364065723608968099_);}
	.st100{clip-path:url(#SVGID_00000004538471655538952410000004756925546371626417_);}
	.st101{fill:#000056;}
	.st102{clip-path:url(#SVGID_00000064347009532505915880000017056734175399244972_);}
	.st103{fill:#053272;}
	.st104{fill:none;stroke:#053272;stroke-width:4;stroke-miterlimit:10;}
	.st105{fill:url(#SVGID_00000028307862704985884740000015907823199711906436_);}
	.st106{fill:url(#SVGID_00000172429285281891440610000006045136410142312843_);}
	.st107{fill:url(#SVGID_00000105408510391952770080000006169987943250491562_);}
	.st108{fill:url(#SVGID_00000124851670106255720910000012785979783257146015_);}
	.st109{fill:url(#SVGID_00000008114766406646250030000014087275581544934041_);}
	.st110{fill:url(#SVGID_00000168831904460181714750000008494094330067685562_);}
	.st111{fill:url(#SVGID_00000116221333914696373700000002149502320838498968_);}
	.st112{fill:url(#SVGID_00000101094796597285010220000001043474153275325118_);}
	.st113{fill:url(#SVGID_00000087414705220649432190000005015736944368159910_);}
	.st114{fill:url(#SVGID_00000144330091160973791100000008733775968925386638_);}
	.st115{fill:url(#SVGID_00000081638795025534857320000001999897044590695094_);}
	.st116{fill:url(#SVGID_00000116206879619499879720000014446761763505879719_);}
	.st117{fill:url(#SVGID_00000116931856759658661070000012374472232745618357_);}
	.st118{fill:url(#SVGID_00000176722508965433166740000011050222661816858797_);}
	.st119{fill:url(#SVGID_00000170276570434632584220000006660797492030748318_);}
	.st120{fill:url(#SVGID_00000088850568686029415520000000468900327764412580_);}
	.st121{fill:url(#SVGID_00000084516599772007234490000002321542783611104155_);}
	.st122{fill:url(#SVGID_00000021841841761329106250000013862927094195511743_);}
	.st123{fill:url(#SVGID_00000008117537353387828620000015127541094717645964_);}
	.st124{fill:url(#SVGID_00000075127811297199469750000005408945711114200972_);}
	.st125{fill:url(#SVGID_00000106860523581973266020000006562835104503002555_);}
	.st126{fill:url(#SVGID_00000081639940505855773530000007531501832947558333_);}
	.st127{fill:url(#SVGID_00000041270774013249885190000003408963341308127875_);}
	.st128{fill:url(#SVGID_00000150062100796209685600000013549894531603379897_);}
	.st129{fill:url(#SVGID_00000154410722265978518100000012338085838377861295_);}
	.st130{fill:url(#SVGID_00000045619801434160424780000008667653725940576641_);}
	.st131{fill:url(#SVGID_00000129201093755672050970000013734309204895152822_);}
	.st132{fill:url(#SVGID_00000109024822565697895850000017534719279375418766_);}
	.st133{fill:url(#SVGID_00000093144347182080388490000001019026915834684060_);}
	.st134{fill:none;stroke:#FEF73D;stroke-linecap:round;stroke-miterlimit:10;}
	.st135{fill:none;stroke:#FF189C;stroke-miterlimit:10;}
	.st136{fill:none;stroke:#00EFF1;stroke-linecap:round;stroke-miterlimit:10;}
	.st137{fill:#00EFF1;}
	.st138{fill:#FFA022;}
	.st139{fill:#0C103A;}
	.st140{fill-rule:evenodd;clip-rule:evenodd;fill:#5D9541;}
	.st141{fill-rule:evenodd;clip-rule:evenodd;fill:#F06021;}
	.st142{fill-rule:evenodd;clip-rule:evenodd;fill:#69BC60;}
	.st143{fill-rule:evenodd;clip-rule:evenodd;fill:#F6951C;}
	.st144{fill:#F6951C;}
	.st145{fill:url(#SVGID_00000078744001162702541570000013804596338104510370_);}
	.st146{fill:url(#SVGID_00000048500985067769964760000004575658730043917746_);}
	.st147{fill:url(#SVGID_00000029748938870591209740000013656167682946348197_);}
	.st148{opacity:0.93;fill:url(#SVGID_00000021080813915281964110000007579185272876378282_);}
	.st149{opacity:0.93;fill:url(#SVGID_00000057122428941380213610000016182475854206347673_);}
	.st150{opacity:0.93;fill:url(#SVGID_00000085216708386949767730000014645621972294271130_);}
	.st151{opacity:0.93;fill:url(#SVGID_00000088830648894996799030000013291519445310541207_);}
	.st152{fill:url(#SVGID_00000065767416623199909900000000651252375324790183_);}
	.st153{fill:url(#SVGID_00000071547832716300211180000004460220346651787690_);}
	.st154{fill:url(#SVGID_00000178175346358351331000000012063505146737120420_);}
	.st155{fill:url(#SVGID_00000141419457524006824200000005508517239413626792_);}
	.st156{fill:url(#SVGID_00000142866655910898146430000018238309868503553192_);}
	.st157{fill:url(#SVGID_00000178174842981996167620000001448628216527695239_);}
	.st158{fill:url(#SVGID_00000144316024367758871190000016966500964335760827_);}
	.st159{fill:url(#SVGID_00000104682199691907596600000009843696233853308053_);}
	.st160{fill:url(#SVGID_00000154391513966753577680000005811328080886818965_);}
	.st161{fill:url(#SVGID_00000109012255404358987370000016342696173623470769_);}
	.st162{fill:url(#SVGID_00000113316640175856893580000012947727957690614949_);}
	.st163{fill:url(#SVGID_00000103264615326210919640000000356180093945134270_);}
	.st164{fill:url(#SVGID_00000052106453589422871180000006965524453284608396_);}
	.st165{fill:url(#SVGID_00000012447649826801647320000005855583120729524919_);}
	.st166{fill:url(#SVGID_00000014624921442098002720000008860328192075681211_);}
	.st167{fill:url(#SVGID_00000109030593388213137260000003058425754357265564_);}
	.st168{fill:url(#SVGID_00000102522163542742254640000014998428923199192478_);}
	.st169{fill:url(#SVGID_00000125574009407026242960000013613487440312554680_);}
	.st170{fill:url(#SVGID_00000058579063821935861470000017604171908143219596_);}
	.st171{fill:url(#SVGID_00000036251852920289514620000010005795510003688370_);}
	.st172{fill:url(#SVGID_00000179648556745804515980000003899018196163646865_);}
	.st173{fill:url(#SVGID_00000138559124519390852580000006394465287098851002_);}
	.st174{fill:url(#SVGID_00000003795825726307083120000013424917177592290994_);}
	.st175{fill:url(#SVGID_00000002350495311066144970000017103000218427326377_);}
	.st176{fill:url(#SVGID_00000099663467792643115960000003558775579383145873_);}
	.st177{fill:url(#SVGID_00000116202736806531787930000012755043331485244605_);}
	.st178{fill:url(#SVGID_00000114777849301537621120000002583522272079483043_);}
	.st179{fill:url(#SVGID_00000088829994209655107120000005492004969666926776_);}
	.st180{fill:url(#SVGID_00000001644556365595430080000009414667057320604309_);}
	.st181{fill:url(#SVGID_00000097498847497930379590000012945673493448603063_);}
	.st182{fill:url(#SVGID_00000005952884383282405640000012597912996577044151_);}
	.st183{fill:url(#SVGID_00000099658888601297253930000010109723930721136520_);}
	.st184{fill:url(#SVGID_00000130633844982131480640000002642460200050823814_);}
	.st185{fill:url(#SVGID_00000161623768649490531710000014678693929829620381_);}
	.st186{fill:url(#SVGID_00000140708961063037337560000017668556941469556639_);}
	.st187{fill:url(#SVGID_00000088108134712714276860000014137431693396794519_);}
	.st188{fill:url(#SVGID_00000040536375742071938090000012973640078160183706_);}
	.st189{fill:url(#SVGID_00000015313099190014980530000011408260361321593478_);}
	.st190{fill:url(#SVGID_00000164482171951675440840000007279043528025272963_);}
	.st191{fill:url(#SVGID_00000165228830733981636500000012809392574096645267_);}
	.st192{fill:url(#SVGID_00000091720984642420677870000012831445090263377082_);}
	.st193{fill:url(#SVGID_00000072271651782968337390000012542019036858954163_);}
	.st194{fill:url(#SVGID_00000018944805957485945640000007778289699617342091_);}
	.st195{fill:url(#SVGID_00000041279381330671228790000015831459748557318553_);}
	.st196{fill:url(#SVGID_00000053529587322056720730000002924187433020034196_);}
	.st197{fill-rule:evenodd;clip-rule:evenodd;fill:#512100;}
	.st198{fill-rule:evenodd;clip-rule:evenodd;fill:#006D62;}
	.st199{fill-rule:evenodd;clip-rule:evenodd;}
	.st200{fill-rule:evenodd;clip-rule:evenodd;fill:#00A1F5;}
	.st201{fill-rule:evenodd;clip-rule:evenodd;fill:#FACFAB;}
	.st202{fill-rule:evenodd;clip-rule:evenodd;fill:#F29673;}
	.st203{fill-rule:evenodd;clip-rule:evenodd;fill:#FFFFFF;}
	.st204{fill-rule:evenodd;clip-rule:evenodd;fill:#333333;}
	.st205{fill-rule:evenodd;clip-rule:evenodd;fill:#BD4D00;}
	.st206{fill-rule:evenodd;clip-rule:evenodd;fill:#B2B2B2;}
	.st207{fill-rule:evenodd;clip-rule:evenodd;fill:#F2CC29;}
	.st208{fill-rule:evenodd;clip-rule:evenodd;fill:#005C9C;}
	.st209{fill-rule:evenodd;clip-rule:evenodd;fill:#8AC900;}
	.st210{fill-rule:evenodd;clip-rule:evenodd;fill:#808080;}
	.st211{fill-rule:evenodd;clip-rule:evenodd;fill:#CFA605;}
	.st212{fill-rule:evenodd;clip-rule:evenodd;fill:#666666;}
	.st213{fill-rule:evenodd;clip-rule:evenodd;fill:#CCCCCC;}
	.st214{fill:#960000;}
	.st215{fill:url(#SVGID_00000048463421760275115110000009247899129543670185_);}
	.st216{fill:url(#SVGID_00000116222439762743762370000001028192474053255090_);}
	.st217{opacity:0.51;fill:url(#SVGID_00000075862823428033646070000016546956299863520190_);}
	.st218{fill:url(#SVGID_00000149375716747696496390000001752439490915016121_);}
	.st219{fill:url(#SVGID_00000103260058921728254630000001859715706573618589_);}
	.st220{fill:url(#SVGID_00000070115521293530359780000000258668475227630983_);}
	.st221{opacity:0.35;fill:url(#SVGID_00000030488734409894598390000017658523598817004475_);}
	.st222{opacity:0.35;fill:url(#SVGID_00000036217499632752914360000010781177195493366952_);}
	.st223{fill:#F06021;}
	.st224{fill-rule:evenodd;clip-rule:evenodd;fill:url(#SVGID_00000080909494422351358060000001161890034470372516_);}
	.st225{fill-rule:evenodd;clip-rule:evenodd;fill:url(#SVGID_00000003066197781449289600000002516866837847025538_);}
	.st226{fill-rule:evenodd;clip-rule:evenodd;fill:url(#SVGID_00000111887743206470777560000001688221951962354837_);}
	.st227{fill-rule:evenodd;clip-rule:evenodd;fill:url(#SVGID_00000071518207713732892160000003920832878214570149_);}
	.st228{fill-rule:evenodd;clip-rule:evenodd;fill:url(#SVGID_00000164485282865905766300000016989554568231088781_);}
	.st229{fill-rule:evenodd;clip-rule:evenodd;fill:url(#SVGID_00000138533163949871886810000002324607656441389745_);}
	.st230{fill-rule:evenodd;clip-rule:evenodd;fill:url(#SVGID_00000104696123967550377500000001987785595071877298_);}
	.st231{fill-rule:evenodd;clip-rule:evenodd;fill:url(#SVGID_00000029731640068906131590000014573296051430293893_);}
	.st232{fill-rule:evenodd;clip-rule:evenodd;fill:url(#SVGID_00000173162039071206757660000008758255587586203015_);}
	.st233{fill-rule:evenodd;clip-rule:evenodd;fill:url(#SVGID_00000112631973827955303990000017146637123816164485_);}
	.st234{fill-rule:evenodd;clip-rule:evenodd;fill:url(#SVGID_00000181790804852999686800000008703143202570665375_);}
	.st235{fill-rule:evenodd;clip-rule:evenodd;fill:url(#SVGID_00000153671707299674570580000008818931117501256107_);}
	.st236{fill-rule:evenodd;clip-rule:evenodd;fill:url(#SVGID_00000182527604295205723720000008469946539616276362_);}
	.st237{opacity:0.5;fill-rule:evenodd;clip-rule:evenodd;fill:#5D0101;enable-background:new    ;}
	.st238{fill:#E11B22;}
	.st239{fill:#959595;}
	.st240{fill:#003359;}
	.st241{fill:#1779C1;}
	.st242{fill:#0EB17C;}
	.st243{fill:#2B2353;}
	.st244{fill:#BE264E;}
	.st245{fill:#EAA41C;}
	.st246{fill:#1F9EF3;}
	.st247{fill:#0267A3;}
	.st248{fill:#FFEC00;}
	.st249{fill:#00A0E0;}
	.st250{fill:#E3007E;}
	.st251{fill:none;stroke:#000000;stroke-width:2;stroke-miterlimit:10;}
	.st252{enable-background:new    ;}
	.st253{fill:#FF9E80;}
	.st254{fill:#414151;}
	.st255{fill:#2B295E;}
	.st256{fill:#CCCCCC;}
	.st257{fill:#FF8C5C;}
	.st258{fill:#DBA21C;}
	.st259{fill:#EDDBB2;}
	.st260{fill:#DEC58B;}
	.st261{fill:#997113;}
	.st262{fill:#B88817;}
	.st263{fill:#003400;stroke:#8EC13D;stroke-width:4;stroke-miterlimit:10;}
	.st264{fill:#8EC13D;}
	.st265{fill:url(#XMLID_00000051355298595426444760000011458438004072383118_);}
	.st266{fill:url(#SVGID_00000107556623288851073090000005676907879103894197_);}
	.st267{fill:url(#SVGID_00000053532348905386380110000013176476060420696503_);}
	.st268{fill:url(#SVGID_00000031199002640144671120000011961025099756115328_);}
	.st269{fill:url(#SVGID_00000036960639264690975480000012741307276474526607_);}
	.st270{fill:url(#SVGID_00000080208512335088446970000002303884989174044803_);}
	.st271{fill:url(#SVGID_00000022554153776814269910000002395578718108920450_);}
	.st272{fill:url(#SVGID_00000030450111951293883470000001837743742123393153_);}
	.st273{fill:url(#SVGID_00000128453602211494244610000005630532409762334374_);}
	.st274{fill:url(#SVGID_00000140701153422369694730000005215694854642368648_);}
	.st275{fill:url(#SVGID_00000145045086714730299510000001915479902884841876_);}
	.st276{fill:url(#SVGID_00000007416532291970552100000001146711250788468098_);}
	.st277{fill:#1C75BC;}
	.st278{fill:#FF9400;}
	.st279{fill:#46920C;}
	.st280{fill:url(#SVGID_00000117652163596623024080000003907897532198173856_);}
	.st281{fill:url(#SVGID_00000176738629378795940720000018360240074397036933_);}
	.st282{fill:url(#SVGID_00000029019684157052564500000001728104413569012155_);}
	.st283{fill:url(#SVGID_00000171702451651376283410000018159147016962290573_);}
	.st284{fill:url(#SVGID_00000085941831712180387900000008217394830706161287_);}
	.st285{fill:url(#SVGID_00000116228142146568150240000002504092146441022132_);}
	.st286{fill:url(#SVGID_00000008861335088544679450000010621704127167084948_);}
	.st287{fill:url(#SVGID_00000176752409560790809740000006666375368750076810_);}
	.st288{fill:url(#SVGID_00000147183668983929665650000000737686017943052218_);}
	.st289{fill:url(#SVGID_00000098192854304556268590000015509452643462776194_);}
	.st290{fill:url(#SVGID_00000099639746652562034190000007601125793244166575_);}
	.st291{fill:url(#SVGID_00000003820250655659631370000009817121246066431923_);}
	.st292{fill:url(#SVGID_00000095341181090068219750000000802729514269532289_);}
	.st293{fill:url(#SVGID_00000076596538305930177210000009584029880972642236_);}
	.st294{fill:url(#SVGID_00000085225057133854475260000010047811452805036218_);}
	.st295{fill:url(#SVGID_00000096741556187882882200000018203263426122495919_);}
	.st296{fill:url(#SVGID_00000019650751238352364350000007602226635912344476_);}
	.st297{fill:url(#SVGID_00000168798054168090704480000010426244052643212459_);}
	.st298{fill:url(#SVGID_00000005244556700237204200000009123677733349729720_);}
	.st299{fill:#2F3F67;}
	.st300{fill:#C97F32;}
	.st301{fill:none;stroke:#C97F32;stroke-width:1.2891;stroke-miterlimit:10;}
	.st302{fill:url(#XMLID_00000096774619756097072230000016794311734709643673_);}
	.st303{fill:#00548B;}
	.st304{fill:#004368;}
	.st305{fill:#94070A;}
	.st306{fill:url(#XMLID_00000008132102430049204330000008156652716582259377_);}
	.st307{fill:url(#XMLID_00000077294075068130677210000004713559366939179915_);}
	.st308{fill:url(#SVGID_00000147901934824295497340000009611815204233739706_);}
</style>
<g id="OBJECTS_00000009578660498573786940000008773529084186244287_">
	<g>
		<circle class="st248" cx="265.33" cy="74.67" r="42.97"/>
		<g>
			<g>
				<path class="st249" d="M50.04,151.33h57.57v8.51H50.04c-2.35,0-4.26-1.91-4.26-4.26v0C45.78,153.24,47.69,151.33,50.04,151.33z"
					/>
			</g>
			<g>
				<g>
					<g>
						<rect x="107.61" y="151.33" class="st250" width="61.83" height="8.52"/>
					</g>
				</g>
			</g>
			<g>
				<g>
					<g>
						<rect x="169.44" y="151.33" class="st248" width="61.83" height="8.52"/>
					</g>
				</g>
			</g>
			<g>
				<g>
					<g>
						<path d="M231.27,151.33h57.57c2.35,0,4.26,1.91,4.26,4.26v0c0,2.35-1.91,4.26-4.26,4.26h-57.57V151.33z"/>
					</g>
				</g>
			</g>
		</g>
		<path class="st251" d="M63.12,54.65h212.65c9.57,0,17.33,7.76,17.33,17.33V123c0,9.57-7.76,17.33-17.33,17.33H63.12
			c-9.57,0-17.33-7.76-17.33-17.33V71.98C45.78,62.41,53.54,54.65,63.12,54.65z"/>
		<g class="st252">
			<path d="M72.13,75.19h9.21l7.04,43.26h-6.8l-1.24-8.59v0.12h-7.73l-1.24,8.47h-6.3L72.13,75.19z M79.55,104.11l-3.03-21.38H76.4
				l-2.97,21.38H79.55z"/>
			<path d="M128.73,75.19h10.07c7.04,0,10.07,3.28,10.07,9.95v2.66c0,4.45-1.42,7.29-4.45,8.53v0.12c3.4,1.05,4.51,4.26,4.51,9.15
				v7.6c0,2.1,0.06,3.65,0.74,5.25h-6.92c-0.37-1.11-0.62-1.79-0.62-5.31v-7.91c0-4.02-1.17-5.31-4.26-5.31h-2.35v18.54h-6.8V75.19z
				 M138,93.73c2.53,0,4.08-1.11,4.08-4.57v-3.34c0-3.09-1.05-4.45-3.46-4.45h-3.09v12.36H138z"/>
			<path d="M195.9,81.37h-7.11v-6.18h21.01v6.18h-7.11v37.08h-6.8V81.37z"/>
			<path d="M248.97,108.19v-2.47h6.43v2.97c0,3.09,1.36,4.2,3.52,4.2s3.52-1.11,3.52-4.33c0-3.58-1.36-5.87-5.81-9.76
				c-5.69-5.01-7.54-8.53-7.54-13.47c0-6.8,3.52-10.75,10.13-10.75s9.89,3.96,9.89,10.88v1.79h-6.43v-2.22
				c0-3.09-1.24-4.26-3.4-4.26c-2.16,0-3.4,1.17-3.4,4.14c0,3.15,1.42,5.44,5.87,9.33c5.69,5.01,7.48,8.47,7.48,13.84
				c0,7.04-3.58,11-10.26,11C252.31,119.07,248.97,115.11,248.97,108.19z"/>
		</g>
		<g>
			<path class="st250" d="M51.9,166.29v13.38h-1.75v-13.38H51.9z"/>
			<path class="st250" d="M57.04,172.66c0-1.01-0.02-1.81-0.08-2.6h1.55l0.1,1.59h0.04c0.48-0.89,1.59-1.79,3.18-1.79
				c1.33,0,3.39,0.79,3.39,4.09v5.72h-1.75v-5.54c0-1.55-0.58-2.84-2.22-2.84c-1.13,0-2.02,0.81-2.34,1.79
				c-0.08,0.22-0.12,0.52-0.12,0.81v5.78h-1.75V172.66z"/>
			<path class="st250" d="M69.8,177.9c0.54,0.32,1.45,0.67,2.32,0.67c1.25,0,1.85-0.62,1.85-1.43c0-0.83-0.5-1.27-1.77-1.75
				c-1.75-0.63-2.56-1.57-2.56-2.72c0-1.55,1.27-2.82,3.31-2.82c0.97,0,1.83,0.26,2.34,0.6l-0.42,1.27
				c-0.38-0.24-1.07-0.58-1.97-0.58c-1.03,0-1.59,0.6-1.59,1.31c0,0.79,0.56,1.15,1.81,1.65c1.65,0.62,2.52,1.45,2.52,2.88
				c0,1.71-1.33,2.9-3.57,2.9c-1.05,0-2.02-0.28-2.7-0.68L69.8,177.9z"/>
			<path class="st250" d="M79.89,173.2c0-1.23-0.04-2.22-0.08-3.14h1.55l0.1,1.65h0.04c0.69-1.17,1.85-1.85,3.41-1.85
				c2.34,0,4.09,1.96,4.09,4.86c0,3.45-2.12,5.16-4.39,5.16c-1.27,0-2.38-0.56-2.96-1.51h-0.04v5.22h-1.73V173.2z M81.61,175.76
				c0,0.26,0.02,0.5,0.08,0.71c0.32,1.21,1.37,2.04,2.62,2.04c1.85,0,2.92-1.51,2.92-3.71c0-1.91-1.01-3.55-2.86-3.55
				c-1.19,0-2.32,0.83-2.64,2.14c-0.06,0.22-0.12,0.48-0.12,0.7V175.76z"/>
			<path class="st250" d="M95.11,167.36c0,0.59-0.42,1.07-1.11,1.07c-0.64,0-1.05-0.48-1.05-1.07c0-0.6,0.44-1.09,1.09-1.09
				C94.68,166.27,95.11,166.75,95.11,167.36z M93.17,179.67v-9.61h1.75v9.61H93.17z"/>
			<path class="st250" d="M99.8,173.06c0-1.13-0.02-2.1-0.08-3h1.53l0.08,1.91h0.06c0.44-1.29,1.51-2.1,2.68-2.1
				c0.18,0,0.32,0.02,0.48,0.04v1.65c-0.18-0.04-0.36-0.04-0.6-0.04c-1.23,0-2.1,0.91-2.34,2.22c-0.04,0.24-0.06,0.54-0.06,0.81
				v5.12H99.8V173.06z"/>
			<path class="st250" d="M109.05,175.18c0.04,2.36,1.53,3.33,3.3,3.33c1.25,0,2.02-0.22,2.66-0.5l0.32,1.25
				c-0.62,0.28-1.69,0.62-3.22,0.62c-2.96,0-4.72-1.97-4.72-4.86s1.71-5.16,4.51-5.16c3.16,0,3.97,2.74,3.97,4.51
				c0,0.36-0.02,0.62-0.06,0.81H109.05z M114.17,173.93c0.02-1.09-0.46-2.82-2.42-2.82c-1.79,0-2.54,1.61-2.68,2.82H114.17z"/>
			<path class="st250" d="M119.77,177.9c0.54,0.32,1.45,0.67,2.32,0.67c1.25,0,1.85-0.62,1.85-1.43c0-0.83-0.5-1.27-1.77-1.75
				c-1.75-0.63-2.56-1.57-2.56-2.72c0-1.55,1.27-2.82,3.31-2.82c0.97,0,1.83,0.26,2.34,0.6l-0.42,1.27
				c-0.38-0.24-1.07-0.58-1.97-0.58c-1.03,0-1.59,0.6-1.59,1.31c0,0.79,0.56,1.15,1.81,1.65c1.65,0.62,2.52,1.45,2.52,2.88
				c0,1.71-1.33,2.9-3.57,2.9c-1.05,0-2.02-0.28-2.7-0.68L119.77,177.9z"/>
			<path class="st250" d="M128.5,182.13c0.44-1.19,0.97-3.32,1.19-4.76l1.95-0.2c-0.48,1.69-1.35,3.89-1.91,4.82L128.5,182.13z"/>
			<path class="st250" d="M148.67,177.37c0,0.83,0.04,1.65,0.14,2.3h-1.57l-0.14-1.21h-0.06c-0.54,0.75-1.57,1.43-2.94,1.43
				c-1.95,0-2.94-1.37-2.94-2.76c0-2.32,2.06-3.59,5.78-3.57v-0.2c0-0.77-0.22-2.22-2.18-2.2c-0.91,0-1.85,0.26-2.52,0.71l-0.4-1.17
				c0.79-0.5,1.97-0.83,3.18-0.83c2.94,0,3.65,2,3.65,3.91V177.37z M146.99,174.77c-1.91-0.04-4.07,0.3-4.07,2.16
				c0,1.15,0.75,1.67,1.63,1.67c1.27,0,2.08-0.79,2.36-1.61c0.06-0.2,0.08-0.4,0.08-0.56V174.77z"/>
			<path class="st250" d="M153.48,172.66c0-1.01-0.02-1.81-0.08-2.6h1.55l0.1,1.59h0.04c0.48-0.89,1.59-1.79,3.18-1.79
				c1.33,0,3.39,0.79,3.39,4.09v5.72h-1.75v-5.54c0-1.55-0.58-2.84-2.22-2.84c-1.13,0-2.02,0.81-2.34,1.79
				c-0.08,0.22-0.12,0.52-0.12,0.81v5.78h-1.75V172.66z"/>
			<path class="st250" d="M174.76,165.58v11.61c0,0.85,0.04,1.83,0.08,2.48h-1.55l-0.08-1.67h-0.06c-0.52,1.07-1.67,1.89-3.24,1.89
				c-2.32,0-4.13-1.97-4.13-4.88c-0.02-3.2,1.99-5.14,4.31-5.14c1.49,0,2.46,0.69,2.9,1.45h0.04v-5.74H174.76z M173.03,173.97
				c0-0.22-0.02-0.52-0.08-0.73c-0.26-1.09-1.21-2-2.52-2c-1.81,0-2.88,1.59-2.88,3.69c0,1.95,0.97,3.55,2.84,3.55
				c1.17,0,2.24-0.79,2.56-2.08c0.06-0.24,0.08-0.48,0.08-0.75V173.97z"/>
			<path class="st250" d="M187.64,167.76h-4.07v-1.47h9.91v1.47h-4.09v11.91h-1.75V167.76z"/>
			<path class="st250" d="M196,173.06c0-1.13-0.02-2.1-0.08-3h1.53l0.08,1.91h0.06c0.44-1.29,1.51-2.1,2.68-2.1
				c0.18,0,0.32,0.02,0.48,0.04v1.65c-0.18-0.04-0.36-0.04-0.6-0.04c-1.23,0-2.1,0.91-2.34,2.22c-0.04,0.24-0.06,0.54-0.06,0.81
				v5.12H196V173.06z"/>
			<path class="st250" d="M211.13,177.37c0,0.83,0.04,1.65,0.14,2.3h-1.57l-0.14-1.21h-0.06c-0.54,0.75-1.57,1.43-2.94,1.43
				c-1.95,0-2.94-1.37-2.94-2.76c0-2.32,2.06-3.59,5.78-3.57v-0.2c0-0.77-0.22-2.22-2.18-2.2c-0.91,0-1.85,0.26-2.52,0.71l-0.4-1.17
				c0.79-0.5,1.97-0.83,3.18-0.83c2.94,0,3.65,2,3.65,3.91V177.37z M209.44,174.77c-1.91-0.04-4.07,0.3-4.07,2.16
				c0,1.15,0.75,1.67,1.63,1.67c1.27,0,2.08-0.79,2.36-1.61c0.06-0.2,0.08-0.4,0.08-0.56V174.77z"/>
			<path class="st250" d="M215.93,172.66c0-1.01-0.02-1.81-0.08-2.6h1.55l0.1,1.59h0.04c0.48-0.89,1.59-1.79,3.18-1.79
				c1.33,0,3.39,0.79,3.39,4.09v5.72h-1.75v-5.54c0-1.55-0.58-2.84-2.22-2.84c-1.13,0-2.02,0.81-2.34,1.79
				c-0.08,0.22-0.12,0.52-0.12,0.81v5.78h-1.75V172.66z"/>
			<path class="st250" d="M228.7,177.9c0.54,0.32,1.45,0.67,2.32,0.67c1.25,0,1.85-0.62,1.85-1.43c0-0.83-0.5-1.27-1.77-1.75
				c-1.75-0.63-2.56-1.57-2.56-2.72c0-1.55,1.27-2.82,3.31-2.82c0.97,0,1.83,0.26,2.34,0.6l-0.42,1.27
				c-0.38-0.24-1.07-0.58-1.97-0.58c-1.03,0-1.59,0.6-1.59,1.31c0,0.79,0.56,1.15,1.81,1.65c1.65,0.62,2.52,1.45,2.52,2.88
				c0,1.71-1.33,2.9-3.57,2.9c-1.05,0-2.02-0.28-2.7-0.68L228.7,177.9z"/>
			<path class="st250" d="M245.63,179.33c-0.46,0.22-1.47,0.56-2.76,0.56c-2.9,0-4.78-1.97-4.78-4.9c0-2.96,2.02-5.12,5.16-5.12
				c1.03,0,1.95,0.26,2.42,0.52l-0.4,1.33c-0.42-0.22-1.07-0.46-2.02-0.46c-2.2,0-3.4,1.65-3.4,3.63c0,2.22,1.43,3.59,3.34,3.59
				c0.99,0,1.65-0.24,2.14-0.46L245.63,179.33z"/>
			<path class="st250" d="M250.52,175.18c0.04,2.36,1.53,3.33,3.3,3.33c1.25,0,2.02-0.22,2.66-0.5l0.32,1.25
				c-0.62,0.28-1.69,0.62-3.22,0.62c-2.96,0-4.72-1.97-4.72-4.86s1.71-5.16,4.51-5.16c3.16,0,3.97,2.74,3.97,4.51
				c0,0.36-0.02,0.62-0.06,0.81H250.52z M255.64,173.93c0.02-1.09-0.46-2.82-2.42-2.82c-1.79,0-2.54,1.61-2.68,2.82H255.64z"/>
			<path class="st250" d="M261.47,172.66c0-1.01-0.02-1.81-0.08-2.6h1.55l0.1,1.59h0.04c0.48-0.89,1.59-1.79,3.18-1.79
				c1.33,0,3.39,0.79,3.39,4.09v5.72h-1.75v-5.54c0-1.55-0.58-2.84-2.22-2.84c-1.13,0-2.02,0.81-2.34,1.79
				c-0.08,0.22-0.12,0.52-0.12,0.81v5.78h-1.75V172.66z"/>
			<path class="st250" d="M282.75,165.58v11.61c0,0.85,0.04,1.83,0.08,2.48h-1.55l-0.08-1.67h-0.06c-0.52,1.07-1.67,1.89-3.24,1.89
				c-2.32,0-4.13-1.97-4.13-4.88c-0.02-3.2,1.99-5.14,4.31-5.14c1.49,0,2.46,0.69,2.9,1.45h0.04v-5.74H282.75z M281.03,173.97
				c0-0.22-0.02-0.52-0.08-0.73c-0.26-1.09-1.21-2-2.52-2c-1.81,0-2.88,1.59-2.88,3.69c0,1.95,0.97,3.55,2.84,3.55
				c1.17,0,2.24-0.79,2.56-2.08c0.06-0.24,0.08-0.48,0.08-0.75V173.97z"/>
			<path class="st250" d="M287.42,177.9c0.54,0.32,1.45,0.67,2.32,0.67c1.25,0,1.85-0.62,1.85-1.43c0-0.83-0.5-1.27-1.77-1.75
				c-1.75-0.63-2.56-1.57-2.56-2.72c0-1.55,1.27-2.82,3.31-2.82c0.97,0,1.83,0.26,2.34,0.6l-0.42,1.27
				c-0.38-0.24-1.07-0.58-1.97-0.58c-1.03,0-1.59,0.6-1.59,1.31c0,0.79,0.56,1.15,1.81,1.65c1.65,0.62,2.52,1.45,2.52,2.88
				c0,1.71-1.33,2.9-3.57,2.9c-1.05,0-2.02-0.28-2.7-0.68L287.42,177.9z"/>
		</g>
	</g>
</g>
</svg>
