<?xml version="1.0" encoding="utf-8"?>
<!-- Generator: Adobe Illustrator 27.8.1, SVG Export Plug-In . SVG Version: 6.00 Build 0)  -->
<svg version="1.1" id="Layer_1" xmlns="http://www.w3.org/2000/svg" xmlns:xlink="http://www.w3.org/1999/xlink" x="0px" y="0px"
	 viewBox="0 0 348 228" style="enable-background:new 0 0 348 228;" xml:space="preserve">
<style type="text/css">
	.st0{fill:#D6EADE;}
	.st1{fill:#03487C;}
	.st2{fill:#1B1B4C;}
	.st3{fill-rule:evenodd;clip-rule:evenodd;fill:#204F7A;}
	.st4{fill-rule:evenodd;clip-rule:evenodd;fill:#50A4FF;}
	.st5{fill:#002649;}
	.st6{fill:#E6E7E8;stroke:#CFCFCF;stroke-width:0.1061;}
	.st7{fill:#333333;}
	.st8{fill:#0F5998;}
	.st9{fill:#277FC1;}
	.st10{fill-rule:evenodd;clip-rule:evenodd;fill:#277FC1;}
	.st11{fill-rule:evenodd;clip-rule:evenodd;fill:#083D6D;}
	.st12{fill:#DDB462;}
	
		.st13{clip-path:url(#SVGID_00000158730325348424723560000015881614394794114189_);fill:url(#SVGID_00000139292402108402597180000008277815288340878494_);}
	.st14{fill:#FFFFFF;}
	.st15{fill:url(#SVGID_00000068650538496386779720000003906327587252422278_);}
	.st16{fill:#224685;}
	.st17{fill:none;}
	.st18{fill:#FFC73B;}
	.st19{fill:#11233F;}
	.st20{fill:#5267FF;}
	.st21{fill-rule:evenodd;clip-rule:evenodd;fill:#72342E;}
	.st22{fill:#72342E;}
	.st23{fill:#FFF2E2;}
	.st24{fill:#FFF2E2;stroke:#72342E;stroke-width:0.75;stroke-miterlimit:10;}
	.st25{fill:#FFCC99;}
	.st26{fill:#469CB2;}
	.st27{fill:url(#XMLID_00000038374313959333611410000008488473019475610008_);}
	.st28{fill:url(#XMLID_00000149366694172425266430000011221500594673675911_);}
	.st29{fill:url(#XMLID_00000078017747589451524640000012848904047431786680_);}
	.st30{fill:url(#XMLID_00000037680762440006823720000005685155024709227405_);}
	.st31{fill:url(#XMLID_00000048483261121190322360000015706870656636436148_);}
	.st32{fill:url(#XMLID_00000123399828339265617590000017998259999134688680_);}
	.st33{fill:url(#XMLID_00000120551674746867751450000009469786674361052832_);}
	.st34{fill:url(#XMLID_00000070087085159297928520000008033060818114798496_);}
	.st35{fill:url(#XMLID_00000181046202611546312760000007628228983027824279_);}
	.st36{fill:url(#XMLID_00000132082296567555755680000003576265232046665881_);}
	.st37{fill:url(#XMLID_00000155868174350133137480000002643326062624307595_);}
	.st38{fill:url(#XMLID_00000046322233686728060240000018108097017805080992_);}
	.st39{fill:url(#XMLID_00000088126159831211312230000002323073435947498889_);}
	.st40{fill:url(#XMLID_00000102516408778552594870000009001359378102778026_);}
	.st41{fill:url(#XMLID_00000146489940024971010090000005400866625151080886_);}
	.st42{fill:url(#SVGID_00000039133994279320676710000017206715055223968919_);}
	.st43{fill:url(#SVGID_00000085932210222343132220000012239480674095320725_);}
	.st44{fill:url(#SVGID_00000065787324362746638620000010776201205418250926_);}
	.st45{fill:url(#SVGID_00000129189091542441574920000008149182391814832302_);}
	.st46{fill:url(#SVGID_00000165938988063131186400000015658563516659624632_);}
	.st47{fill:url(#SVGID_00000096777542077502194920000007658161858206217150_);}
	.st48{fill:url(#SVGID_00000078006458303687962610000010466514298371645598_);}
	.st49{fill:url(#SVGID_00000080192153568099675670000009282211038854966400_);}
	.st50{fill:url(#SVGID_00000178912435369964888140000004140900819325833910_);}
	.st51{fill:url(#SVGID_00000089553405672776318100000004837696631411465399_);}
	.st52{fill:url(#SVGID_00000010307832255784761650000001592327102732236438_);}
	.st53{fill:url(#SVGID_00000058560776975300792620000000357104496728805504_);}
	.st54{fill:url(#SVGID_00000016051116884718375910000013585603787875515053_);}
	.st55{fill:url(#SVGID_00000098181808279895359690000011235277105107090573_);}
	.st56{fill:#30325E;}
	.st57{fill:#FF7859;}
	.st58{fill:#FFD550;}
	.st59{fill:#00C3AD;}
	.st60{fill:#FF4653;}
	.st61{fill:#D8CE19;}
	.st62{fill:#C1E5DE;}
	.st63{fill:#FFE4D2;}
	.st64{fill:#DFF4F0;}
	.st65{fill:#A2E0EB;}
	.st66{fill:#1B3493;}
	.st67{fill:none;stroke:#FFFFFF;stroke-width:2;stroke-linecap:round;stroke-linejoin:round;stroke-miterlimit:10;}
	.st68{fill:#F15A24;}
	.st69{fill:#F7931E;}
	.st70{fill:#58595B;}
	.st71{fill:#114E15;}
	.st72{fill:#013D01;}
	.st73{fill:#E9C608;}
	.st74{fill:#043B00;}
	.st75{fill:#D8A43E;}
	.st76{clip-path:url(#SVGID_00000090280460856999266450000011031992195011651971_);}
	.st77{fill:#F49630;}
	.st78{clip-path:url(#SVGID_00000062182688594000774880000004289799464863418245_);}
	.st79{clip-path:url(#SVGID_00000067202046078126831460000015545413802097963948_);}
	.st80{clip-path:url(#SVGID_00000101808828543908990110000010584933020868906151_);}
	.st81{clip-path:url(#SVGID_00000159471664853695953980000007847292603062219194_);}
	.st82{fill-rule:evenodd;clip-rule:evenodd;fill:#FF6600;}
	.st83{fill-rule:evenodd;clip-rule:evenodd;fill:#05174F;}
	.st84{fill:#05174F;}
	.st85{opacity:0.42;fill:url(#SVGID_00000146457136539677955890000009330169357592241331_);enable-background:new    ;}
	.st86{opacity:0.42;fill:url(#SVGID_00000017504398623918222950000014503477896126566284_);enable-background:new    ;}
	.st87{fill:url(#SVGID_00000057834089910603472230000000789416606557516218_);}
	.st88{fill:url(#SVGID_00000036216120205788108180000011618336231357984413_);}
	.st89{opacity:0.64;fill:url(#SVGID_00000085209825933668142160000009129938913281471120_);enable-background:new    ;}
	.st90{opacity:0.75;fill:url(#SVGID_00000067957833228879918500000009203022787353495455_);enable-background:new    ;}
	.st91{fill:url(#SVGID_00000023282657963754603580000013102879765662179239_);}
	.st92{fill:url(#SVGID_00000127001892487704761070000009064590027623941263_);}
	.st93{opacity:0.76;fill:url(#SVGID_00000148630013198634244110000000064658922983848065_);enable-background:new    ;}
	.st94{opacity:0.75;fill:url(#SVGID_00000094609807987642561250000004512222127932179635_);enable-background:new    ;}
	.st95{fill:url(#SVGID_00000015328194032456892110000016784261638934603162_);}
	.st96{opacity:0.42;fill:url(#SVGID_00000041273574882180915160000009332885756093757090_);enable-background:new    ;}
	.st97{opacity:0.42;fill:url(#SVGID_00000052086538660897226140000009595641404795028616_);enable-background:new    ;}
	.st98{clip-path:url(#SVGID_00000180353031894127450530000008530111896631821750_);}
	.st99{fill:#1ED7FE;}
	.st100{clip-path:url(#SVGID_00000134239566298898646990000011372667200903064728_);}
	.st101{clip-path:url(#SVGID_00000043424725600702567820000012432409843327566512_);}
	.st102{fill:#000056;}
	.st103{clip-path:url(#SVGID_00000019651093640167590820000015755688589133673136_);}
	.st104{enable-background:new    ;}
	.st105{fill:#053272;}
	.st106{fill:none;stroke:#053272;stroke-width:4;stroke-miterlimit:10;}
	.st107{fill:url(#SVGID_00000138556360643893354070000004133889566202455173_);}
	.st108{fill:url(#SVGID_00000110452320166695771390000015686065132489862073_);}
	.st109{fill:url(#SVGID_00000125570321541912721930000009058592376521508998_);}
	.st110{fill:url(#SVGID_00000149370345483903893550000004821796620384524709_);}
	.st111{fill:url(#SVGID_00000129172483113513648240000010515716548048823721_);}
	.st112{fill:url(#SVGID_00000101801157552921646050000017593068749027487915_);}
	.st113{fill:url(#SVGID_00000072986883691878801910000001650362292917989005_);}
	.st114{fill:url(#SVGID_00000101076841772273806000000017962354161466320048_);}
	.st115{fill:url(#SVGID_00000083063973776209551770000009011136390285523596_);}
	.st116{fill:url(#SVGID_00000098936645621085918580000012894761670925125781_);}
	.st117{fill:url(#SVGID_00000020375573304860848250000004421184426799357084_);}
	.st118{fill:url(#SVGID_00000003788157823924112840000012986684717164635793_);}
	.st119{fill:url(#SVGID_00000021104385433736585390000017519711832666764418_);}
	.st120{fill:url(#SVGID_00000058573307168675692180000016175067151333244566_);}
	.st121{fill:url(#SVGID_00000182486993770477602990000004968551585113517742_);}
	.st122{fill:url(#SVGID_00000048473839207639255730000009023310519943752382_);}
	.st123{fill:url(#SVGID_00000146485455893679916860000008389769531013347757_);}
	.st124{fill:url(#SVGID_00000137831616314161544370000008783222542445917101_);}
	.st125{fill:url(#SVGID_00000106848606543167320500000003271321968909946767_);}
	.st126{fill:url(#SVGID_00000181084310544050191530000005389327858210461323_);}
	.st127{fill:url(#SVGID_00000054264238994579655710000010094443632544343456_);}
	.st128{fill:url(#SVGID_00000057833428842485339870000009400064639957233072_);}
	.st129{fill:url(#SVGID_00000159446016553432994810000013964615004798490004_);}
	.st130{fill:url(#SVGID_00000083086015212692770760000012828905678934767538_);}
	.st131{fill:url(#SVGID_00000142856034905462419490000012131247152675340980_);}
	.st132{fill:url(#SVGID_00000150083902912979816510000000052862164912092310_);}
	.st133{fill:url(#SVGID_00000073716964964498696450000015451595616171823008_);}
	.st134{fill:url(#SVGID_00000111190577560919172670000011789409644033062560_);}
	.st135{fill:url(#SVGID_00000098183782062884817000000011613467769720724660_);}
	.st136{fill:none;stroke:#FEF73D;stroke-linecap:round;stroke-miterlimit:10;}
	.st137{fill:#FF189C;}
	.st138{fill:none;stroke:#FF189C;stroke-miterlimit:10;}
	.st139{fill:none;stroke:#00EFF1;stroke-linecap:round;stroke-miterlimit:10;}
	.st140{fill:#00EFF1;}
	.st141{fill:#FFA022;}
	.st142{fill:#0C103A;}
	.st143{fill-rule:evenodd;clip-rule:evenodd;fill:#5D9541;}
	.st144{fill-rule:evenodd;clip-rule:evenodd;fill:#F06021;}
	.st145{fill-rule:evenodd;clip-rule:evenodd;fill:#69BC60;}
	.st146{fill-rule:evenodd;clip-rule:evenodd;fill:#F6951C;}
	.st147{fill:#F6951C;}
	.st148{fill:url(#SVGID_00000122709857585479769940000007869006351261188780_);}
	.st149{fill:url(#SVGID_00000049918512023171869630000002650982551830374794_);}
	.st150{fill:url(#SVGID_00000176724309494274828780000009023352092581620158_);}
	.st151{fill:url(#SVGID_00000047761380042602573600000007483528803105398166_);}
	.st152{fill:url(#SVGID_00000003079519396738843700000004293773927200286116_);}
	.st153{fill:url(#SVGID_00000155830481333061720450000014785080398398771372_);}
	.st154{fill:url(#SVGID_00000129198151965465205030000010995104284064039565_);}
	.st155{fill:url(#SVGID_00000080167140416319026480000003725443827878504329_);}
	.st156{fill:url(#SVGID_00000129198744746876915440000005156866152968029861_);}
	.st157{fill:url(#SVGID_00000176034112991991965640000006490408542595189439_);}
	.st158{fill:url(#SVGID_00000099652086176452309220000005145792663794546089_);}
	.st159{fill:url(#SVGID_00000002374784001145265580000011602009537617713070_);}
	.st160{fill:url(#SVGID_00000180336606877126479040000000022916765840800426_);}
	.st161{fill:url(#SVGID_00000129205543791381104450000001473203648960049820_);}
	.st162{fill:url(#SVGID_00000005253891522344060750000015826478429706114488_);}
	.st163{fill:url(#SVGID_00000089532933225545809940000008389928501558773923_);}
	.st164{fill:url(#SVGID_00000174563025486325823240000011601455502781741957_);}
	.st165{fill:url(#SVGID_00000139278589238312754450000014970554802845678761_);}
	.st166{fill:url(#SVGID_00000027589403691515358010000002437338026555819915_);}
	.st167{fill:url(#SVGID_00000127731757572873001090000011232761108930667424_);}
	.st168{fill:url(#SVGID_00000174594756135621586970000016416233092569707162_);}
	.st169{fill:url(#SVGID_00000078037539510736801380000006560952619606153140_);}
	.st170{fill-rule:evenodd;clip-rule:evenodd;fill:#512100;}
	.st171{fill-rule:evenodd;clip-rule:evenodd;fill:#006D62;}
	.st172{fill-rule:evenodd;clip-rule:evenodd;}
	.st173{fill-rule:evenodd;clip-rule:evenodd;fill:#00A1F5;}
	.st174{fill-rule:evenodd;clip-rule:evenodd;fill:#FACFAB;}
	.st175{fill-rule:evenodd;clip-rule:evenodd;fill:#F29673;}
	.st176{fill-rule:evenodd;clip-rule:evenodd;fill:#FFFFFF;}
	.st177{fill-rule:evenodd;clip-rule:evenodd;fill:#333333;}
	.st178{fill-rule:evenodd;clip-rule:evenodd;fill:#BD4D00;}
	.st179{fill-rule:evenodd;clip-rule:evenodd;fill:#B2B2B2;}
	.st180{fill-rule:evenodd;clip-rule:evenodd;fill:#F2CC29;}
	.st181{fill-rule:evenodd;clip-rule:evenodd;fill:#005C9C;}
	.st182{fill-rule:evenodd;clip-rule:evenodd;fill:#8AC900;}
	.st183{fill-rule:evenodd;clip-rule:evenodd;fill:#808080;}
	.st184{fill-rule:evenodd;clip-rule:evenodd;fill:#CFA605;}
	.st185{fill-rule:evenodd;clip-rule:evenodd;fill:#666666;}
	.st186{fill-rule:evenodd;clip-rule:evenodd;fill:#CCCCCC;}
	.st187{fill:#960000;}
	.st188{fill:#00A1F5;}
	.st189{fill:url(#SVGID_00000106131183603128289760000011777538279710429367_);}
	.st190{fill:url(#SVGID_00000060746861108435630650000010670290482553766804_);}
	.st191{opacity:0.51;fill:url(#SVGID_00000015327108385719919190000004792399390279770276_);}
	.st192{fill:url(#SVGID_00000049910540157717412570000009893019197234563748_);}
	.st193{fill:url(#SVGID_00000051368615565084881450000005053700976970283173_);}
	.st194{fill:url(#SVGID_00000065033542996508316020000005410434088973680284_);}
	.st195{opacity:0.35;fill:url(#SVGID_00000064322905019818512130000012108018624418573471_);}
	.st196{opacity:0.35;fill:url(#SVGID_00000158027096630363402850000000161113754081634225_);}
	.st197{fill:#F06021;}
	.st198{fill-rule:evenodd;clip-rule:evenodd;fill:url(#SVGID_00000070086941325302160420000010860682838335743935_);}
	.st199{fill-rule:evenodd;clip-rule:evenodd;fill:url(#SVGID_00000108994497917279525470000014939781443394609582_);}
	.st200{fill-rule:evenodd;clip-rule:evenodd;fill:url(#SVGID_00000057136475869017715310000011204229338279157167_);}
	.st201{fill-rule:evenodd;clip-rule:evenodd;fill:url(#SVGID_00000077320779636536596320000018084441475463708589_);}
	.st202{fill-rule:evenodd;clip-rule:evenodd;fill:url(#SVGID_00000075862398413659198250000000168507714309630627_);}
	.st203{fill-rule:evenodd;clip-rule:evenodd;fill:url(#SVGID_00000182519848638161347670000016047084922724788874_);}
	.st204{fill-rule:evenodd;clip-rule:evenodd;fill:url(#SVGID_00000115480045684171360190000010223087280076444602_);}
	.st205{fill-rule:evenodd;clip-rule:evenodd;fill:url(#SVGID_00000109025413191148079250000008680883401302367641_);}
	.st206{fill-rule:evenodd;clip-rule:evenodd;fill:url(#SVGID_00000008859424359509369890000004213570171926897298_);}
	.st207{fill-rule:evenodd;clip-rule:evenodd;fill:url(#SVGID_00000183957464272770420230000011433675894356891550_);}
	.st208{fill-rule:evenodd;clip-rule:evenodd;fill:url(#SVGID_00000087390669123615999640000001446405213412748718_);}
	.st209{fill-rule:evenodd;clip-rule:evenodd;fill:url(#SVGID_00000110471718147377921120000014990083231140453266_);}
	.st210{fill-rule:evenodd;clip-rule:evenodd;fill:url(#SVGID_00000023255398218950568700000014844862290255728520_);}
	.st211{opacity:0.5;fill-rule:evenodd;clip-rule:evenodd;fill:#5D0101;enable-background:new    ;}
	.st212{fill:#E11B22;}
	.st213{fill:#959595;}
	.st214{fill:#003359;}
	.st215{fill:#1779C1;}
	.st216{fill:#0EB17C;}
	.st217{fill:#2B2353;}
	.st218{fill:#BE264E;}
	.st219{fill:#EAA41C;}
	.st220{fill:#1F9EF3;}
	.st221{fill:#0267A3;}
	.st222{fill:#FFEC00;}
	.st223{fill:#00A0E0;}
	.st224{fill:#E3007E;}
	.st225{fill:none;stroke:#000000;stroke-width:2;stroke-miterlimit:10;}
	.st226{fill:#FF9E80;}
	.st227{fill:#414151;}
	.st228{fill:#2B295E;}
	.st229{fill:#CCCCCC;}
	.st230{fill:#FF8C5C;}
	.st231{fill:#DBA21C;}
	.st232{fill:#EDDBB2;}
	.st233{fill:#DEC58B;}
	.st234{fill:#997113;}
	.st235{fill:#B88817;}
	.st236{fill:#003400;stroke:#8EC13D;stroke-width:4;stroke-miterlimit:10;}
	.st237{fill:#8EC13D;}
	.st238{fill:url(#XMLID_00000101080311539815506470000007669578818992274084_);}
	.st239{fill:url(#SVGID_00000060730481979303518290000012482810946064276395_);}
	.st240{fill:url(#SVGID_00000127010436891035501050000012315825365276606097_);}
	.st241{fill:url(#SVGID_00000016057584429795029860000004085809255213525919_);}
	.st242{fill:url(#SVGID_00000105397866967025540580000007579062830215297684_);}
	.st243{fill:url(#SVGID_00000151541401791079857740000000409976094769780121_);}
	.st244{fill:url(#SVGID_00000068639614508932620440000006037926646495021209_);}
	.st245{fill:url(#SVGID_00000168088005622559354580000010362036267796296871_);}
	.st246{fill:url(#SVGID_00000072251031956640069080000009921768866426257815_);}
	.st247{fill:url(#SVGID_00000115499781314153871310000001905576113233181879_);}
	.st248{fill:url(#SVGID_00000052797017583734978730000009916696703685072525_);}
	.st249{fill:url(#SVGID_00000067918769562322274950000016005254383546019977_);}
	.st250{fill:#1C75BC;}
	.st251{fill:#46920C;}
	.st252{fill:#FF9400;}
	.st253{fill:url(#SVGID_00000134220438310313155910000011280842857040039315_);}
	.st254{fill:url(#SVGID_00000056415092587319894140000013294436246638689441_);}
	.st255{fill:url(#SVGID_00000124136309563928513930000006575713210162707345_);}
	.st256{fill:url(#SVGID_00000025406556765280976570000003841464301997425302_);}
	.st257{fill:url(#SVGID_00000129181293026349405050000013212567106942550953_);}
	.st258{fill:url(#SVGID_00000098931391445108922760000010172400674427564215_);}
	.st259{fill:url(#SVGID_00000037662076221076739540000014199376838551060392_);}
	.st260{fill:url(#SVGID_00000134943221294984144340000002160782754478664875_);}
	.st261{fill:url(#SVGID_00000153700428305855988210000018203380011778245524_);}
	.st262{fill:url(#SVGID_00000075876933371218562950000012399587599873103250_);}
	.st263{fill:url(#SVGID_00000011719537799993067270000003333224469006329266_);}
	.st264{fill:url(#SVGID_00000040570654298814896090000011419872832615905935_);}
	.st265{fill:url(#SVGID_00000183947705402865683600000009131914895042614169_);}
	.st266{fill:url(#SVGID_00000102517561719598100320000008298599286182855051_);}
	.st267{fill:url(#SVGID_00000088825674537017522000000000872712198392307081_);}
	.st268{fill:url(#SVGID_00000026147508805133118720000015774790192124322704_);}
	.st269{fill:url(#SVGID_00000039834053334185352950000000347987975806706105_);}
	.st270{fill:url(#SVGID_00000067925385033438797510000012493001803028418436_);}
	.st271{fill:url(#SVGID_00000008126575524769972040000004486065915274412431_);}
	.st272{fill:#2F3F67;}
	.st273{fill:#C97F32;}
	.st274{fill:none;stroke:#C97F32;stroke-width:1.2891;stroke-miterlimit:10;}
	.st275{fill:url(#XMLID_00000010290883505771950350000015600699003932208308_);}
	.st276{fill:#00548B;}
	.st277{fill:#004368;}
	.st278{fill:#94070A;}
	.st279{fill:url(#XMLID_00000054227433754264434470000006840840175480902825_);}
	.st280{fill:url(#XMLID_00000106836404387474249560000005773896942378169768_);}
	.st281{fill:#B34A06;}
	.st282{fill:#A2B5C4;}
	.st283{fill:#192940;}
	.st284{fill:url(#SVGID_00000168799600842336621260000005228947003282028689_);}
	.st285{fill:url(#SVGID_00000140004281566880615010000007747434459972184198_);}
	.st286{fill:url(#SVGID_00000159431412491106228900000004774222932710181027_);}
	.st287{opacity:0.93;fill:url(#SVGID_00000171705363950176741190000007564917226974291134_);}
	.st288{opacity:0.93;fill:url(#SVGID_00000147915499162106527930000002594540299222927013_);}
	.st289{opacity:0.93;fill:url(#SVGID_00000036247634007656909350000012228603996737484694_);}
	.st290{opacity:0.93;fill:url(#SVGID_00000129187849488878050930000015975546057860624781_);}
	.st291{fill:url(#SVGID_00000086683136174255523420000013712207940581047940_);}
	.st292{stroke:#000000;stroke-width:0.75;stroke-miterlimit:10;}
</style>
<g>
	<rect x="158.21" y="57.13" class="st221" width="34.12" height="2.71"/>
	<rect x="155.19" y="47.39" class="st221" width="40.14" height="2.71"/>
	<path d="M147.83,52.43c-4.92,0-8.93,4-8.93,8.93s4,8.93,8.93,8.93c3.7,0,7.06-2.33,8.36-5.79l-2.54-0.95
		c-0.91,2.41-3.24,4.03-5.82,4.03c-3.43,0-6.21-2.79-6.21-6.21c0-3.43,2.79-6.21,6.21-6.21h54.88c3.43,0,6.21,2.79,6.21,6.21
		c0,3.43-2.79,6.21-6.21,6.21c-2.58,0-4.91-1.62-5.82-4.03l-2.54,0.95c1.3,3.46,4.66,5.79,8.36,5.79c4.92,0,8.93-4,8.93-8.93
		s-4-8.93-8.93-8.93H147.83z"/>
	<g>
		<g>
			<path d="M171.98,128.04c0.87-0.31,1.76,1.16,2.65,0.91c0.56-0.16,1.11-0.31,1.67-0.44c0.78-0.19,1.53-0.37,2.26-0.55V63.79
				l-6.57,0.25L171.98,128.04L171.98,128.04z"/>
			<path class="st221" d="M183.2,63.61c0,0.37,0,15.33,0,26.87c0,4.45,0,8.39,0,10.8v24.08l6.93-3.45V99.47c0-2.42,0-6.86,0-11.81
				c0-10.63,0-23.61,0-24.05L183.2,63.61L183.2,63.61z"/>
			<path class="st221" d="M160.4,96.19v14.26v11.42l6.93,3.45v-19.08c0-2.71,0-6.76,0-11.3c0-13.12,0-30.37,0-31.33h-6.93V96.19z"/>
		</g>
		<path class="st221" d="M175.3,130.27l-23.47-11.67c-6.1-3.03-11.21-7.69-14.8-13.48c-3.59-5.79-5.48-12.44-5.48-19.25V34.8h87.5
			v51.07c0,6.81-1.9,13.46-5.48,19.25s-8.7,10.45-14.8,13.48L175.3,130.27z M133.32,36.57v49.3c0,6.48,1.8,12.81,5.21,18.32
			c3.41,5.51,8.28,9.94,14.08,12.82l22.68,11.28l22.68-11.28c5.8-2.88,10.67-7.32,14.08-12.82c3.41-5.51,5.21-11.84,5.21-18.32
			v-49.3H133.32z"/>
		<g>
			<g>
				<g>
					<path class="st221" d="M150.96,128.29c-2.27-3.16-7.51-5.84-7.49-5.92c0.03-0.01-2.29,4.81-0.26,8.49
						c2.05,3.67,5.47,4.98,7.67,4.09C153.12,134.04,153.22,131.55,150.96,128.29z M105.24,76.99c1.55,1.85,3.94,1.24,6.27-1.78
						c2.25-3.01,2.99-8.81,3.07-8.84c0.02,0.03-5.26-0.79-8.03,2.22C103.82,71.61,103.71,75.18,105.24,76.99z M106.99,81.32
						c-2.03,3.53-1.41,7.07,0.45,8.52c1.88,1.49,4.08,0.4,5.74-3.07c1.58-3.43,1.06-9.27,1.14-9.3
						C114.33,77.5,109.05,77.8,106.99,81.32z M164.36,136.76c2.12-1.43,1.62-3.85-1.44-6.44c-3.08-2.5-8.96-3.88-8.95-3.97
						c0.04-0.02-1.22,5.2,1.65,8.3C158.51,137.73,162.3,138.17,164.36,136.76z M93.38,78.49c-0.12-0.02,1.06,8.46,4.58,11.65
						c3.39,3.19,5.85,2.62,6.64,0.41c0.81-2.27-0.16-5.38-3.1-8.65C98.56,78.61,93.39,78.46,93.38,78.49z M96.21,93.81
						c-0.11,0,2.73,8.11,6.76,10.54c3.91,2.44,6.18,1.37,6.52-0.99c0.35-2.41-1.2-5.29-4.72-7.89
						C101.28,92.84,96.23,93.78,96.21,93.81z M140.18,123.61c-1.47-3.61-5.97-7.36-5.95-7.43c0.04,0-3.21,4.2-2.04,8.23
						c1.2,4.03,4.17,6.06,6.45,5.68C140.99,129.71,141.62,127.29,140.18,123.61z M101.03,68c-2.18-3.82-7.23-5.07-7.26-5.04
						c-0.12-0.04-0.76,8.49,2.06,12.34c2.69,3.81,5.24,3.78,6.47,1.79C103.56,75.06,103.24,71.81,101.03,68z M148.88,146.9
						c-0.08,0.12,8.61,1.69,12.97-0.84c4.28-2.39,4.45-4.97,2.4-6.34c-2.1-1.41-5.56-1.38-9.65,0.44
						C150.49,141.93,148.86,146.86,148.88,146.9z M121.27,132.67c-0.1,0.07,6.74,5.19,11.38,4.78c4.55-0.31,5.76-2.58,4.66-4.72
						c-1.13-2.19-4.02-3.67-8.29-3.76C124.76,128.84,121.26,132.63,121.27,132.67z M134.18,141.33c-0.09,0.09,7.76,3.6,12.31,2.13
						c4.48-1.34,5.2-3.82,3.62-5.65c-1.61-1.88-4.83-2.65-9.07-1.8C136.79,136.84,134.16,141.3,134.18,141.33z M109.19,58.94
						c0.89-4.66-1.75-9.9-1.75-9.9s-4.9,3.7-6.01,8.5c-1.4,6.06,0.48,8.08,2.4,8.22C105.86,65.86,108.16,64.32,109.19,58.94z
						 M130.8,116.68c-0.67-3.84-4.33-8.43-4.3-8.5c0.04,0.01-4,3.4-3.67,7.58c0.35,4.17,2.82,6.79,5.12,6.91
						C130.3,122.8,131.43,120.57,130.8,116.68z M110.45,121.47c-0.1,0.04,5.57,6.48,10.15,7.08c4.48,0.67,6.12-1.27,5.51-3.6
						c-0.63-2.39-3.14-4.44-7.3-5.44C114.64,118.49,110.45,121.43,110.45,121.47z M102,108.33c-0.11,0.02,4.23,7.44,8.61,9
						c4.27,1.6,6.27,0.06,6.14-2.34c-0.13-2.45-2.2-4.97-6.11-6.81C106.73,106.32,102.01,108.29,102,108.33z M112.11,102.05
						c2.12,1.08,4.04-0.45,4.96-4.22c0.86-3.73-0.8-9.37-0.74-9.41c0.03,0.02-5.04,1.42-6.33,5.31
						C108.73,97.65,110.03,101.01,112.11,102.05z M123.02,107.94c0.11-3.87-2.6-9.1-2.55-9.16c0.03,0.02-4.61,2.46-5.11,6.58
						c-0.47,4.13,1.45,7.19,3.67,7.79C121.31,113.79,122.86,111.86,123.02,107.94z"/>
				</g>
			</g>
		</g>
		<g>
			<g>
				<g>
					<path class="st221" d="M199.29,134.95c2.2,0.89,5.62-0.42,7.67-4.09c2.02-3.69-0.3-8.5-0.26-8.49
						c0.02,0.08-5.22,2.76-7.49,5.92C196.94,131.55,197.04,134.04,199.29,134.95z M243.59,68.59c-2.77-3.01-8.04-2.19-8.03-2.22
						c0.08,0.02,0.82,5.83,3.07,8.84c2.34,3.02,4.72,3.63,6.27,1.78C246.45,75.18,246.33,71.61,243.59,68.59z M235.85,77.47
						c0.07,0.04-0.44,5.87,1.14,9.3c1.66,3.47,3.85,4.56,5.74,3.07c1.86-1.45,2.47-4.99,0.45-8.52
						C241.11,77.8,235.82,77.5,235.85,77.47z M194.54,134.65c2.87-3.1,1.61-8.32,1.65-8.3c0,0.09-5.87,1.47-8.95,3.97
						c-3.06,2.59-3.55,5.01-1.44,6.44C187.85,138.17,191.64,137.73,194.54,134.65z M248.66,81.91c-2.95,3.26-3.91,6.38-3.1,8.65
						c0.79,2.21,3.25,2.78,6.64-0.41c3.52-3.19,4.7-11.67,4.58-11.65C256.76,78.46,251.59,78.61,248.66,81.91z M245.37,95.47
						c-3.51,2.6-5.07,5.48-4.72,7.89c0.34,2.35,2.61,3.43,6.52,0.99c4.04-2.43,6.88-10.54,6.76-10.54
						C253.93,93.78,248.87,92.84,245.37,95.47z M211.51,130.09c2.28,0.39,5.25-1.65,6.45-5.68c1.17-4.03-2.08-8.23-2.04-8.23
						c0.02,0.07-4.48,3.82-5.95,7.43C208.54,127.29,209.17,129.71,211.51,130.09z M247.85,77.09c1.23,1.99,3.78,2.02,6.47-1.79
						c2.82-3.84,2.18-12.38,2.06-12.34c-0.03-0.03-5.08,1.22-7.26,5.04C246.91,71.81,246.59,75.06,247.85,77.09z M195.56,140.15
						c-4.09-1.82-7.55-1.85-9.65-0.44c-2.06,1.37-1.88,3.95,2.4,6.34c4.36,2.53,13.06,0.96,12.97,0.84
						C201.3,146.86,199.66,141.93,195.56,140.15z M221.13,128.97c-4.27,0.09-7.16,1.56-8.29,3.76c-1.1,2.15,0.12,4.41,4.66,4.72
						c4.64,0.41,11.47-4.71,11.38-4.78C228.89,132.63,225.4,128.84,221.13,128.97z M209.12,136.02c-4.24-0.85-7.45-0.08-9.07,1.8
						c-1.58,1.84-0.86,4.32,3.62,5.65c4.55,1.46,12.4-2.04,12.31-2.13C215.99,141.3,213.36,136.84,209.12,136.02z M246.32,65.76
						c1.92-0.14,3.8-2.16,2.4-8.22c-1.11-4.79-6.01-8.5-6.01-8.5s-2.64,5.24-1.75,9.9C242,64.32,244.29,65.86,246.32,65.76z
						 M222.19,122.67c2.3-0.12,4.77-2.74,5.12-6.91c0.33-4.18-3.7-7.56-3.67-7.58c0.03,0.07-3.63,4.66-4.3,8.5
						C218.73,120.57,219.85,122.8,222.19,122.67z M231.35,119.51c-4.17,1-6.67,3.05-7.3,5.44c-0.61,2.33,1.03,4.27,5.51,3.6
						c4.58-0.6,10.25-7.03,10.15-7.08C239.71,121.43,235.51,118.49,231.35,119.51z M239.52,108.18c-3.91,1.84-5.98,4.36-6.11,6.81
						c-0.14,2.4,1.86,3.94,6.14,2.34c4.38-1.56,8.72-8.98,8.61-9C248.14,108.29,243.42,106.32,239.52,108.18z M240.15,93.73
						c-1.29-3.89-6.36-5.3-6.33-5.31c0.06,0.04-1.6,5.68-0.74,9.41c0.93,3.77,2.84,5.31,4.97,4.22
						C240.12,101.01,241.42,97.65,240.15,93.73z M231.12,113.16c2.23-0.6,4.14-3.66,3.67-7.79c-0.5-4.12-5.14-6.56-5.11-6.58
						c0.05,0.06-2.66,5.29-2.55,9.16C227.29,111.86,228.85,113.79,231.12,113.16z"/>
				</g>
			</g>
		</g>
		<polygon class="st221" points="175.31,133.28 177.21,137.13 181.46,137.75 178.39,140.75 179.11,144.98 175.31,142.98 
			171.51,144.98 172.24,140.75 169.16,137.75 173.41,137.13 		"/>
		<g>
			<path d="M87.53,159.01v16.75h-3.75v-6.1H79.6c0.2,2.75,0.8,5.17,1.38,5.85v0.25h-4.85v-7.92c0-6.17,2.57-8.82,7.65-8.82H87.53z
				 M83.78,159.23h-0.25c-3.5,0-4.22,5.52-3.92,10.17h4.17V159.23z"/>
			<path d="M103.5,162.96l-0.15,0.03c-1.3-2.02-2.07-3.72-4.77-3.72v16.5h-3.75v-16.5c-2.7,0-3.97,1.95-5.27,3.72l-0.15-0.03
				l0.6-3.95h12.9L103.5,162.96z"/>
			<path d="M119.23,162.96l-0.15,0.03c-1.3-2.02-2.07-3.72-4.77-3.72v16.5h-3.75v-16.5c-2.7,0-3.97,1.95-5.27,3.72l-0.15-0.03
				l0.6-3.95h12.9L119.23,162.96z"/>
			<path d="M119.6,167.56c0-5.05,3.4-8.55,8.3-8.55c5,0,8.42,3.55,8.42,8.6c0,5-3.32,8.22-8.3,8.22
				C122.9,175.83,119.6,172.55,119.6,167.56z M131.85,165.53c-2-3.47-4.62-5.57-6.75-5.57c-0.52,0-1,0.12-1.45,0.38
				c-2.22,1.27-1.95,5.2,0.55,9.57c1.9,3.32,4.25,5.22,6.3,5.22c0.57,0,1.1-0.15,1.6-0.42
				C134.37,173.38,134.32,169.81,131.85,165.53z"/>
			<path d="M142.6,166.68c0-2,3.37-1.27,3.37-4.27c0-1.85-1.3-3.15-3.47-3.15h-0.8v16.5h-3.75v-16.75h5.75c3.38,0,6.2,0.78,6.2,2.57
				c0,2.85-7.05,3.4-7.05,5.07c0,1.52,6.02,2.27,7.67,9.1h-4.55C145.13,170.93,142.6,168.43,142.6,166.68z"/>
			<path d="M152.78,159.01c0.75,0,1.32-0.12,1.9-0.12c0.8,0,1.52,0.28,2.55,1.65l8,10.7c0-6.8-2.4-5.57-2.4-12.22h2.62v16.75h-1.62
				l-10.8-14.52v2.27c0,5.55,3.52,4.05,3.52,12.25h-3.77V159.01z"/>
			<path d="M180.22,173.48c-0.52,1.25-2.82,2.55-5.85,2.55c-3.72,0-6.67-2-6.67-4.7c0-4.4,7.9-3.82,7.9-4.7
				c0-0.82-7.17,0.62-7.17-3.45c0-2.55,2.8-4.32,6.2-4.32c2.15,0,3.65,0.7,4.32,1.25l0.05,3.05c-0.77-0.38-2.05-0.85-3.82-0.85
				c-2.25,0-3.87,0.75-3.87,1.95c0,1.97,4.52,1.05,4.52,2.35c0,1.45-5.82,0.57-5.82,3.5c0,1.05,0.75,2.32,4.05,2.32
				c2.67,0,5-0.85,6.17-2.22V173.48z"/>
			<path d="M184.5,175.75v-9.35l-4.15-7.4h4.35l3.85,6.8c1.85-2.97,2.55-5.92,1.12-6.75v-0.05h4.02l-5.3,7.32v9.42H184.5z"/>
			<path d="M212.65,175.75c0-0.4-0.05-0.8-0.17-1.17c-0.95,0.67-2.2,1.2-4.1,1.2c-3.12,0-5.92-1.38-5.92-4.22
				c0-2.95,2.95-4,4.27-4.32c-1.07-1.38-1.87-2.8-1.87-4.35c0-2.47,2.02-3.95,4.92-3.95c2.65,0,4.65,1.25,4.65,2.82
				c0,1.62-2.07,3.02-4.55,4.1c1.58,2,3.77,4.02,5.27,6.02c1.17-1.85-0.03-3.92-1.8-4.65l2.25-1c1.4,1.1,1.5,3.6-0.32,5.82
				c0.92,1.25,1.52,2.5,1.52,3.7H212.65z M206.83,167.38c-1.77,2.07-1.55,7.92,2.85,7.92c1.17,0,2.05-0.42,2.7-0.97
				C211.5,172.01,208.75,169.78,206.83,167.38z M211.73,161.68c0-1.4-0.8-2.5-1.92-2.5c-1.07,0-1.92,1.03-1.92,2.4
				c0,1.35,0.8,2.75,1.92,4.17C210.73,165.21,211.73,163.23,211.73,161.68z"/>
			<path d="M225.93,159.01h3.75v16.5h0.77c3.35,0,5.15-1.75,6.1-4.67l0.15,0.03l-0.9,4.9h-9.87V159.01z"/>
			<path d="M249.72,159.01v16.75h-3.75v-6.1h-4.17c0.2,2.75,0.8,5.17,1.38,5.85v0.25h-4.85v-7.92c0-6.17,2.57-8.82,7.65-8.82H249.72
				z M245.98,159.23h-0.25c-3.5,0-4.22,5.52-3.92,10.17h4.17V159.23z"/>
			<path d="M271.87,159.01l-6.97,16.75h-0.3l-3-7.17l-2.97,7.17h-0.3l-6.97-16.75h4.1l4.97,11.82c0.4-1.08,0.67-2.05,0.88-2.97
				l-3.67-8.85h4.1l4.97,11.82c1.88-4.65,2.85-10.65,1.15-11.75v-0.08H271.87z"/>
		</g>
		<g>
			<path class="st221" d="M140.45,189.78c0,0.11-0.05,0.17-0.16,0.17h-3.26h-0.3h-0.18h-0.01c-0.13,0-0.24-0.05-0.34-0.14
				c-0.1-0.09-0.14-0.21-0.14-0.34v-6.84c0-0.14,0.05-0.26,0.14-0.35c0.09-0.09,0.21-0.14,0.34-0.14c0.14,0,0.26,0.05,0.35,0.14
				c0.1,0.1,0.14,0.21,0.14,0.35v6.06v0.78v0.15h3.26C140.39,189.62,140.45,189.67,140.45,189.78z"/>
			<path class="st221" d="M143.62,189.98c-0.32,0-0.62-0.06-0.9-0.18c-0.28-0.12-0.53-0.28-0.74-0.49c-0.21-0.21-0.38-0.46-0.5-0.74
				s-0.18-0.58-0.18-0.9c0-0.32,0.06-0.62,0.18-0.9c0.12-0.28,0.29-0.53,0.5-0.74s0.46-0.38,0.74-0.5c0.28-0.12,0.58-0.18,0.9-0.18
				c0.32,0,0.62,0.06,0.9,0.18s0.53,0.29,0.74,0.5s0.38,0.46,0.5,0.74c0.12,0.28,0.18,0.58,0.18,0.9c0,0.06,0,0.12-0.01,0.17
				s-0.01,0.11-0.02,0.16h-0.24h-0.73h-2.28c-0.11,0-0.17-0.05-0.17-0.17c0-0.11,0.05-0.17,0.17-0.17h2.29
				c0-0.27-0.04-0.52-0.1-0.76c-0.07-0.24-0.17-0.45-0.29-0.63c-0.12-0.18-0.26-0.32-0.42-0.43c-0.16-0.1-0.33-0.16-0.51-0.16
				c-0.18,0-0.35,0.05-0.51,0.16c-0.16,0.11-0.3,0.25-0.42,0.43c-0.12,0.18-0.21,0.39-0.29,0.63c-0.07,0.24-0.1,0.5-0.1,0.76
				c0,0.27,0.04,0.53,0.1,0.77c0.07,0.24,0.17,0.45,0.29,0.63c0.12,0.18,0.26,0.32,0.42,0.43c0.16,0.1,0.33,0.16,0.51,0.16h0.03
				c0.26,0,0.51-0.05,0.74-0.16c0.24-0.11,0.44-0.24,0.62-0.41c0.04-0.04,0.08-0.06,0.12-0.06c0.11,0,0.17,0.05,0.17,0.17
				c0,0.06-0.02,0.1-0.06,0.13c-0.21,0.2-0.45,0.36-0.73,0.48C144.24,189.92,143.95,189.98,143.62,189.98z"/>
			<path class="st221" d="M151.76,190.44c0,0.31-0.06,0.6-0.18,0.88c-0.12,0.28-0.28,0.52-0.49,0.72c-0.21,0.2-0.45,0.37-0.73,0.49
				c-0.28,0.12-0.58,0.18-0.88,0.18c-0.11,0-0.17-0.05-0.17-0.15c0-0.11,0.05-0.17,0.17-0.17c0.18,0,0.35-0.05,0.51-0.16
				c0.16-0.1,0.3-0.25,0.41-0.42c0.11-0.17,0.21-0.38,0.28-0.61c0.07-0.24,0.1-0.49,0.1-0.76v-0.88c-0.39,0.28-0.83,0.42-1.33,0.42
				c-0.32,0-0.62-0.06-0.9-0.18c-0.28-0.12-0.53-0.28-0.74-0.49c-0.21-0.21-0.38-0.46-0.5-0.74s-0.18-0.58-0.18-0.9
				c0-0.32,0.06-0.62,0.18-0.9c0.12-0.28,0.29-0.53,0.5-0.74s0.46-0.38,0.74-0.5c0.28-0.12,0.58-0.18,0.9-0.18
				c0.25,0,0.49,0.04,0.71,0.11s0.43,0.18,0.62,0.32c0.03-0.1,0.08-0.18,0.14-0.25c0.1-0.1,0.22-0.15,0.35-0.15
				c0.13,0,0.25,0.05,0.34,0.15c0.1,0.09,0.15,0.21,0.15,0.34V190.44z M150.78,186.21c-0.17-0.16-0.37-0.28-0.59-0.38
				c-0.23-0.09-0.46-0.14-0.71-0.15h-0.03c-0.18,0-0.35,0.05-0.51,0.16c-0.16,0.11-0.3,0.25-0.42,0.43
				c-0.12,0.18-0.21,0.39-0.29,0.63c-0.07,0.24-0.1,0.5-0.1,0.76c0,0.27,0.04,0.53,0.1,0.77c0.07,0.24,0.17,0.45,0.29,0.63
				c0.12,0.18,0.26,0.32,0.42,0.43c0.16,0.1,0.33,0.16,0.51,0.16h0.06c0.25-0.01,0.48-0.06,0.7-0.15s0.41-0.21,0.58-0.36V186.21z"/>
			<path class="st221" d="M155.52,185.36c0.25,0,0.49,0.04,0.71,0.11s0.43,0.18,0.62,0.32c0.03-0.1,0.08-0.18,0.14-0.25
				c0.1-0.1,0.22-0.15,0.35-0.15c0.13,0,0.25,0.05,0.34,0.15c0.1,0.09,0.15,0.21,0.15,0.34v3.58c0,0.13-0.05,0.24-0.15,0.33
				c-0.09,0.1-0.2,0.15-0.34,0.15c-0.14,0-0.25-0.05-0.35-0.15c-0.06-0.05-0.11-0.13-0.14-0.24c-0.39,0.28-0.83,0.42-1.33,0.42
				c-0.32,0-0.62-0.06-0.9-0.18c-0.28-0.12-0.53-0.28-0.74-0.49c-0.21-0.21-0.38-0.46-0.5-0.74s-0.18-0.58-0.18-0.9
				c0-0.32,0.06-0.62,0.18-0.9c0.12-0.28,0.29-0.53,0.5-0.74s0.46-0.38,0.74-0.5C154.9,185.42,155.2,185.36,155.52,185.36z
				 M156.86,186.21c-0.17-0.16-0.37-0.28-0.59-0.38c-0.23-0.09-0.46-0.14-0.71-0.15h-0.03c-0.18,0-0.35,0.05-0.51,0.16
				c-0.16,0.11-0.3,0.25-0.42,0.43c-0.12,0.18-0.21,0.39-0.29,0.63c-0.07,0.24-0.1,0.5-0.1,0.76c0,0.27,0.04,0.53,0.1,0.77
				c0.07,0.24,0.17,0.45,0.29,0.63c0.12,0.18,0.26,0.32,0.42,0.43c0.16,0.1,0.33,0.16,0.51,0.16h0.06c0.25-0.01,0.48-0.06,0.7-0.15
				s0.41-0.21,0.58-0.36V186.21z"/>
			<path class="st221" d="M159.34,182.27c0.09-0.09,0.21-0.14,0.34-0.14c0.14,0,0.26,0.05,0.35,0.14c0.1,0.1,0.14,0.21,0.14,0.35
				v6.84c0,0.13-0.05,0.25-0.15,0.35c-0.09,0.09-0.2,0.13-0.34,0.13s-0.25-0.04-0.35-0.13c-0.09-0.1-0.13-0.21-0.13-0.35v-6.84
				C159.2,182.49,159.24,182.37,159.34,182.27z"/>
			<path class="st221" d="M164.87,182.27c0.09-0.09,0.21-0.14,0.34-0.14h0.01h3.9c0.11,0,0.17,0.06,0.17,0.17
				c0,0.11-0.05,0.17-0.17,0.17h-3.42v0.17v3.25h2.67c0.1,0,0.15,0.06,0.15,0.17c0,0.11-0.05,0.17-0.15,0.17h-2.67v3.25v0.15h3.42
				c0.11,0,0.17,0.05,0.17,0.17s-0.05,0.17-0.17,0.17h-3.91c-0.13,0-0.24-0.05-0.34-0.14c-0.1-0.09-0.14-0.21-0.14-0.34v-3.25v-0.33
				v-3.25C164.73,182.49,164.78,182.37,164.87,182.27z"/>
			<path class="st221" d="M172.83,187.28l1.35,1.92c0.08,0.11,0.11,0.23,0.08,0.36c-0.02,0.13-0.09,0.23-0.2,0.31
				s-0.23,0.11-0.37,0.08c-0.14-0.03-0.24-0.09-0.32-0.2l-1.14-1.63l-1.23,1.77l-0.05,0.04c-0.03,0.03-0.07,0.04-0.11,0.04
				s-0.08-0.02-0.11-0.04c-0.03-0.03-0.04-0.07-0.04-0.11c0-0.04,0.01-0.08,0.04-0.11l1.3-1.86l-1.18-1.7
				c-0.08-0.11-0.11-0.23-0.08-0.36c0.03-0.13,0.09-0.23,0.2-0.31c0.11-0.08,0.23-0.11,0.36-0.08c0.13,0.03,0.24,0.09,0.32,0.2
				l0.99,1.39l1.06-1.53c0.01-0.01,0.02-0.02,0.02-0.02c0,0,0-0.01,0.01-0.02c0.07-0.09,0.15-0.09,0.24,0
				c0.07,0.08,0.07,0.16,0,0.23L172.83,187.28z"/>
			<path class="st221" d="M177.57,185.36c0.32,0,0.62,0.06,0.89,0.18c0.28,0.12,0.52,0.28,0.73,0.48c0.04,0.04,0.06,0.08,0.06,0.13
				c0,0.11-0.06,0.17-0.17,0.17c-0.05,0-0.09-0.02-0.12-0.06c-0.38-0.36-0.83-0.55-1.37-0.57h-0.03c-0.18,0-0.35,0.05-0.51,0.16
				c-0.16,0.11-0.3,0.25-0.42,0.43c-0.12,0.18-0.21,0.39-0.29,0.63c-0.07,0.24-0.1,0.5-0.1,0.76c0,0.27,0.04,0.53,0.1,0.77
				c0.07,0.24,0.17,0.45,0.29,0.63c0.12,0.18,0.26,0.32,0.42,0.43c0.16,0.1,0.33,0.16,0.51,0.16h0.06c0.26-0.01,0.5-0.07,0.74-0.17
				c0.23-0.1,0.43-0.24,0.6-0.41c0.04-0.04,0.08-0.06,0.12-0.06c0.11,0,0.17,0.05,0.17,0.17c0,0.05-0.02,0.09-0.04,0.12
				c-0.21,0.21-0.46,0.38-0.74,0.49c-0.28,0.12-0.58,0.18-0.9,0.18c-0.32,0-0.62-0.06-0.9-0.18c-0.28-0.12-0.53-0.28-0.74-0.49
				c-0.21-0.21-0.38-0.46-0.5-0.74s-0.18-0.58-0.18-0.9c0-0.32,0.06-0.62,0.18-0.9c0.12-0.28,0.29-0.53,0.5-0.74s0.46-0.38,0.74-0.5
				C176.95,185.42,177.25,185.36,177.57,185.36z"/>
			<path class="st221" d="M182.58,189.98c-0.32,0-0.62-0.06-0.9-0.18c-0.28-0.12-0.53-0.28-0.74-0.49c-0.21-0.21-0.38-0.46-0.5-0.74
				s-0.18-0.58-0.18-0.9c0-0.32,0.06-0.62,0.18-0.9c0.12-0.28,0.29-0.53,0.5-0.74s0.46-0.38,0.74-0.5c0.28-0.12,0.58-0.18,0.9-0.18
				c0.32,0,0.62,0.06,0.9,0.18s0.53,0.29,0.74,0.5s0.38,0.46,0.5,0.74c0.12,0.28,0.18,0.58,0.18,0.9c0,0.06,0,0.12-0.01,0.17
				s-0.01,0.11-0.02,0.16h-0.24h-0.73h-2.28c-0.11,0-0.17-0.05-0.17-0.17c0-0.11,0.05-0.17,0.17-0.17h2.29
				c0-0.27-0.04-0.52-0.1-0.76c-0.07-0.24-0.17-0.45-0.29-0.63c-0.12-0.18-0.26-0.32-0.42-0.43c-0.16-0.1-0.33-0.16-0.51-0.16
				c-0.18,0-0.35,0.05-0.51,0.16c-0.16,0.11-0.3,0.25-0.42,0.43c-0.12,0.18-0.21,0.39-0.29,0.63c-0.07,0.24-0.1,0.5-0.1,0.76
				c0,0.27,0.04,0.53,0.1,0.77c0.07,0.24,0.17,0.45,0.29,0.63c0.12,0.18,0.26,0.32,0.42,0.43c0.16,0.1,0.33,0.16,0.51,0.16h0.03
				c0.26,0,0.51-0.05,0.74-0.16c0.24-0.11,0.44-0.24,0.62-0.41c0.04-0.04,0.08-0.06,0.12-0.06c0.11,0,0.17,0.05,0.17,0.17
				c0,0.06-0.02,0.1-0.06,0.13c-0.21,0.2-0.45,0.36-0.73,0.48C183.2,189.92,182.9,189.98,182.58,189.98z"/>
			<path class="st221" d="M186.41,182.27c0.09-0.09,0.21-0.14,0.34-0.14c0.14,0,0.26,0.05,0.35,0.14c0.1,0.1,0.14,0.21,0.14,0.35
				v6.84c0,0.13-0.05,0.25-0.15,0.35c-0.09,0.09-0.2,0.13-0.34,0.13s-0.25-0.04-0.35-0.13c-0.09-0.1-0.13-0.21-0.13-0.35v-6.84
				C186.27,182.49,186.32,182.37,186.41,182.27z"/>
			<path class="st221" d="M188.9,182.27c0.09-0.09,0.21-0.14,0.34-0.14c0.14,0,0.26,0.05,0.35,0.14c0.1,0.1,0.14,0.21,0.14,0.35
				v6.84c0,0.13-0.05,0.25-0.15,0.35c-0.09,0.09-0.2,0.13-0.34,0.13s-0.25-0.04-0.35-0.13c-0.09-0.1-0.13-0.21-0.13-0.35v-6.84
				C188.76,182.49,188.81,182.37,188.9,182.27z"/>
			<path class="st221" d="M193.41,189.98c-0.32,0-0.62-0.06-0.9-0.18c-0.28-0.12-0.53-0.28-0.74-0.49c-0.21-0.21-0.38-0.46-0.5-0.74
				s-0.18-0.58-0.18-0.9c0-0.32,0.06-0.62,0.18-0.9c0.12-0.28,0.29-0.53,0.5-0.74s0.46-0.38,0.74-0.5c0.28-0.12,0.58-0.18,0.9-0.18
				c0.32,0,0.62,0.06,0.9,0.18s0.53,0.29,0.74,0.5s0.38,0.46,0.5,0.74c0.12,0.28,0.18,0.58,0.18,0.9c0,0.06,0,0.12-0.01,0.17
				s-0.01,0.11-0.02,0.16h-0.24h-0.73h-2.28c-0.11,0-0.17-0.05-0.17-0.17c0-0.11,0.05-0.17,0.17-0.17h2.29
				c0-0.27-0.04-0.52-0.1-0.76c-0.07-0.24-0.17-0.45-0.29-0.63c-0.12-0.18-0.26-0.32-0.42-0.43c-0.16-0.1-0.33-0.16-0.51-0.16
				c-0.18,0-0.35,0.05-0.51,0.16c-0.16,0.11-0.3,0.25-0.42,0.43c-0.12,0.18-0.21,0.39-0.29,0.63c-0.07,0.24-0.1,0.5-0.1,0.76
				c0,0.27,0.04,0.53,0.1,0.77c0.07,0.24,0.17,0.45,0.29,0.63c0.12,0.18,0.26,0.32,0.42,0.43c0.16,0.1,0.33,0.16,0.51,0.16h0.03
				c0.26,0,0.51-0.05,0.74-0.16c0.24-0.11,0.44-0.24,0.62-0.41c0.04-0.04,0.08-0.06,0.12-0.06c0.11,0,0.17,0.05,0.17,0.17
				c0,0.06-0.02,0.1-0.06,0.13c-0.21,0.2-0.45,0.36-0.73,0.48C194.03,189.92,193.73,189.98,193.41,189.98z"/>
			<path class="st221" d="M199.02,185.39c0.27,0,0.52,0.05,0.76,0.16c0.23,0.1,0.44,0.25,0.62,0.42c0.18,0.17,0.32,0.38,0.42,0.62
				c0.1,0.23,0.15,0.49,0.15,0.76v2.12c0,0.14-0.04,0.25-0.13,0.34c-0.08,0.09-0.2,0.14-0.34,0.15c-0.14,0.01-0.26-0.04-0.36-0.13
				s-0.15-0.22-0.15-0.36v-2.12c0-0.22-0.02-0.43-0.07-0.62c-0.05-0.2-0.12-0.37-0.21-0.52c-0.09-0.15-0.2-0.27-0.32-0.35
				s-0.25-0.13-0.38-0.13c-0.37,0-0.7,0.11-0.97,0.33v3.35v0.07c-0.02,0.27-0.16,0.43-0.42,0.48h-0.02h-0.01h-0.01h-0.02h-0.01
				h-0.02h-0.01c-0.12-0.01-0.22-0.06-0.31-0.14s-0.13-0.19-0.14-0.31v-0.01v-0.02v-0.01v-3.57c0-0.13,0.04-0.23,0.11-0.31
				c0.08-0.08,0.17-0.13,0.27-0.15c0.1-0.02,0.21-0.01,0.32,0.03c0.1,0.04,0.18,0.12,0.23,0.22
				C198.32,185.48,198.66,185.39,199.02,185.39z"/>
			<path class="st221" d="M204.63,185.36c0.32,0,0.62,0.06,0.89,0.18c0.28,0.12,0.52,0.28,0.73,0.48c0.04,0.04,0.06,0.08,0.06,0.13
				c0,0.11-0.06,0.17-0.17,0.17c-0.05,0-0.09-0.02-0.12-0.06c-0.38-0.36-0.83-0.55-1.37-0.57h-0.03c-0.18,0-0.35,0.05-0.51,0.16
				c-0.16,0.11-0.3,0.25-0.42,0.43c-0.12,0.18-0.21,0.39-0.29,0.63c-0.07,0.24-0.1,0.5-0.1,0.76c0,0.27,0.04,0.53,0.1,0.77
				c0.07,0.24,0.17,0.45,0.29,0.63c0.12,0.18,0.26,0.32,0.42,0.43c0.16,0.1,0.33,0.16,0.51,0.16h0.06c0.26-0.01,0.5-0.07,0.74-0.17
				c0.23-0.1,0.43-0.24,0.6-0.41c0.04-0.04,0.08-0.06,0.12-0.06c0.11,0,0.17,0.05,0.17,0.17c0,0.05-0.02,0.09-0.04,0.12
				c-0.21,0.21-0.46,0.38-0.74,0.49c-0.28,0.12-0.58,0.18-0.9,0.18c-0.32,0-0.62-0.06-0.9-0.18c-0.28-0.12-0.53-0.28-0.74-0.49
				c-0.21-0.21-0.38-0.46-0.5-0.74s-0.18-0.58-0.18-0.9c0-0.32,0.06-0.62,0.18-0.9c0.12-0.28,0.29-0.53,0.5-0.74s0.46-0.38,0.74-0.5
				C204.01,185.42,204.31,185.36,204.63,185.36z"/>
			<path class="st221" d="M209.64,189.98c-0.32,0-0.62-0.06-0.9-0.18c-0.28-0.12-0.53-0.28-0.74-0.49c-0.21-0.21-0.38-0.46-0.5-0.74
				s-0.18-0.58-0.18-0.9c0-0.32,0.06-0.62,0.18-0.9c0.12-0.28,0.29-0.53,0.5-0.74s0.46-0.38,0.74-0.5c0.28-0.12,0.58-0.18,0.9-0.18
				c0.32,0,0.62,0.06,0.9,0.18s0.53,0.29,0.74,0.5s0.38,0.46,0.5,0.74c0.12,0.28,0.18,0.58,0.18,0.9c0,0.06,0,0.12-0.01,0.17
				s-0.01,0.11-0.02,0.16h-0.24h-0.73h-2.28c-0.11,0-0.17-0.05-0.17-0.17c0-0.11,0.05-0.17,0.17-0.17h2.29
				c0-0.27-0.04-0.52-0.1-0.76c-0.07-0.24-0.17-0.45-0.29-0.63c-0.12-0.18-0.26-0.32-0.42-0.43c-0.16-0.1-0.33-0.16-0.51-0.16
				c-0.18,0-0.35,0.05-0.51,0.16c-0.16,0.11-0.3,0.25-0.42,0.43c-0.12,0.18-0.21,0.39-0.29,0.63c-0.07,0.24-0.1,0.5-0.1,0.76
				c0,0.27,0.04,0.53,0.1,0.77c0.07,0.24,0.17,0.45,0.29,0.63c0.12,0.18,0.26,0.32,0.42,0.43c0.16,0.1,0.33,0.16,0.51,0.16h0.03
				c0.26,0,0.51-0.05,0.74-0.16c0.24-0.11,0.44-0.24,0.62-0.41c0.04-0.04,0.08-0.06,0.12-0.06c0.11,0,0.17,0.05,0.17,0.17
				c0,0.06-0.02,0.1-0.06,0.13c-0.21,0.2-0.45,0.36-0.73,0.48C210.26,189.92,209.96,189.98,209.64,189.98z"/>
		</g>
	</g>
</g>
</svg>
