<?xml version="1.0" encoding="utf-8"?>
<!-- Generator: Adobe Illustrator 27.8.1, SVG Export Plug-In . SVG Version: 6.00 Build 0)  -->
<svg version="1.1" id="Layer_1" xmlns="http://www.w3.org/2000/svg" xmlns:xlink="http://www.w3.org/1999/xlink" x="0px" y="0px"
	 viewBox="0 0 348 228" style="enable-background:new 0 0 348 228;" xml:space="preserve">
<style type="text/css">
	.st0{fill:#D6EADE;}
	.st1{fill:#03487C;}
	.st2{fill:#1B1B4C;}
	.st3{fill-rule:evenodd;clip-rule:evenodd;fill:#204F7A;}
	.st4{fill-rule:evenodd;clip-rule:evenodd;fill:#50A4FF;}
	.st5{fill:#002649;}
	.st6{fill:#E6E7E8;stroke:#CFCFCF;stroke-width:0.1061;}
	.st7{fill:#333333;}
	.st8{fill:#0F5998;}
	.st9{fill:#277FC1;}
	.st10{fill-rule:evenodd;clip-rule:evenodd;fill:#277FC1;}
	.st11{fill-rule:evenodd;clip-rule:evenodd;fill:#083D6D;}
	.st12{fill:#DDB462;}
	
		.st13{clip-path:url(#SVGID_00000022536809306907795010000008008910621973642421_);fill:url(#SVGID_00000023986632193290105880000010935602872600914346_);}
	.st14{fill:#FFFFFF;}
	.st15{fill:url(#SVGID_00000136406670101699148040000016474593841459768508_);}
	.st16{fill:#224685;}
	.st17{fill:none;}
	.st18{fill:#FFC73B;}
	.st19{fill:#11233F;}
	.st20{fill:#5267FF;}
	.st21{fill-rule:evenodd;clip-rule:evenodd;fill:#72342E;}
	.st22{fill:#72342E;}
	.st23{fill:#FFF2E2;}
	.st24{fill:#FFF2E2;stroke:#72342E;stroke-width:0.75;stroke-miterlimit:10;}
	.st25{fill:#FFCC99;}
	.st26{fill:#469CB2;}
	.st27{fill:url(#XMLID_00000070104811679832530260000002420411341108778936_);}
	.st28{fill:url(#XMLID_00000011000561628363833110000016770932904799799446_);}
	.st29{fill:url(#XMLID_00000057832952382244294860000009159378120493449898_);}
	.st30{fill:url(#XMLID_00000131341062911163957840000013859156156619153331_);}
	.st31{fill:url(#XMLID_00000128450518022200572810000016177072317365715075_);}
	.st32{fill:url(#XMLID_00000139288770074529772900000003678559774922259390_);}
	.st33{fill:url(#XMLID_00000006707390178097078500000001026148103927784877_);}
	.st34{fill:url(#XMLID_00000109714797241523414810000017529162844087946895_);}
	.st35{fill:url(#XMLID_00000059990112242621429020000017738146986241858741_);}
	.st36{fill:url(#XMLID_00000114793780956912390560000008058245282283070087_);}
	.st37{fill:url(#XMLID_00000165229994411926231490000004924012662857725089_);}
	.st38{fill:url(#XMLID_00000117641625578627877670000002086203308150805393_);}
	.st39{fill:url(#XMLID_00000054234705613458541540000016292358131902277009_);}
	.st40{fill:url(#XMLID_00000083811476735860401850000000489060856457968804_);}
	.st41{fill:url(#XMLID_00000044165083649184131580000014210726439678054300_);}
	.st42{fill:url(#SVGID_00000157305204728427527260000013790096996378506393_);}
	.st43{fill:url(#SVGID_00000113341402318177683260000000640847076868199561_);}
	.st44{fill:url(#SVGID_00000004512043047602998330000006547045441862332544_);}
	.st45{fill:url(#SVGID_00000031899447898281503720000015537643065289264300_);}
	.st46{fill:url(#SVGID_00000137095931297555773000000015857007002533804423_);}
	.st47{fill:url(#SVGID_00000106845444391302241140000005227860473544354229_);}
	.st48{fill:url(#SVGID_00000141413513854834799980000011867744284359271069_);}
	.st49{fill:url(#SVGID_00000110470411404376332180000007825197074515188108_);}
	.st50{fill:url(#SVGID_00000036950254864742531780000016730035955696688813_);}
	.st51{fill:url(#SVGID_00000032612084322117130080000001843118927727527065_);}
	.st52{fill:url(#SVGID_00000033369465596892624810000008966475641117523641_);}
	.st53{fill:url(#SVGID_00000132770769327446115990000017187032800558327975_);}
	.st54{fill:url(#SVGID_00000178903795971526608700000009942242742465968058_);}
	.st55{fill:url(#SVGID_00000026874107320782770610000005190566612828867761_);}
	.st56{fill:#30325E;}
	.st57{fill:#FF7859;}
	.st58{fill:#FFD550;}
	.st59{fill:#00C3AD;}
	.st60{fill:#FF4653;}
	.st61{fill:#D8CE19;}
	.st62{fill:#C1E5DE;}
	.st63{fill:#FFE4D2;}
	.st64{fill:#DFF4F0;}
	.st65{fill:#A2E0EB;}
	.st66{fill:#1B3493;}
	.st67{fill:none;stroke:#FFFFFF;stroke-width:2;stroke-linecap:round;stroke-linejoin:round;stroke-miterlimit:10;}
	.st68{fill:#F15A24;}
	.st69{fill:#F7931E;}
	.st70{fill:#58595B;}
	.st71{fill:#114E15;}
	.st72{fill:#013D01;}
	.st73{fill:#E9C608;}
	.st74{fill:#043B00;}
	.st75{fill:#D8A43E;}
	.st76{clip-path:url(#SVGID_00000022532535046774375310000007751379244285266345_);}
	.st77{fill:#F49630;}
	.st78{clip-path:url(#SVGID_00000147182033634443129010000015269937639093623994_);}
	.st79{clip-path:url(#SVGID_00000150081332973440619390000017363032447694328721_);}
	.st80{clip-path:url(#SVGID_00000116946834707883734940000011132977742624160933_);}
	.st81{clip-path:url(#SVGID_00000156571746273206525270000004735584300854654625_);}
	.st82{fill-rule:evenodd;clip-rule:evenodd;fill:#FF6600;}
	.st83{fill-rule:evenodd;clip-rule:evenodd;fill:#05174F;}
	.st84{fill:#05174F;}
	.st85{opacity:0.42;fill:url(#SVGID_00000096060691688552964510000008336062199817598611_);enable-background:new    ;}
	.st86{opacity:0.42;fill:url(#SVGID_00000163031866992128111140000015347736665755198871_);enable-background:new    ;}
	.st87{fill:url(#SVGID_00000173123692389497987960000014451675663933362074_);}
	.st88{fill:url(#SVGID_00000168104022170110035150000005499055545593978541_);}
	.st89{opacity:0.64;fill:url(#SVGID_00000092448422861914822020000014541417019637332875_);enable-background:new    ;}
	.st90{opacity:0.75;fill:url(#SVGID_00000181800123512296427010000008681860709827312314_);enable-background:new    ;}
	.st91{fill:url(#SVGID_00000031921984374995914170000006110441079230430394_);}
	.st92{fill:url(#SVGID_00000137851599213610420660000011189184046875377333_);}
	.st93{opacity:0.76;fill:url(#SVGID_00000089556560535144569550000000922645363082839711_);enable-background:new    ;}
	.st94{opacity:0.75;fill:url(#SVGID_00000171703901672435638820000013130647527262068132_);enable-background:new    ;}
	.st95{fill:url(#SVGID_00000116210289416956668330000013571712869707189147_);}
	.st96{opacity:0.42;fill:url(#SVGID_00000031186800626334882310000014284955210426537129_);enable-background:new    ;}
	.st97{opacity:0.42;fill:url(#SVGID_00000052076033812347901520000005633718263724159872_);enable-background:new    ;}
	.st98{clip-path:url(#SVGID_00000001644227390760008790000000558469654679965869_);}
	.st99{fill:#1ED7FE;}
	.st100{clip-path:url(#SVGID_00000008846669360827692340000009625498915413318801_);}
	.st101{clip-path:url(#SVGID_00000018216939379998448510000017354463574302618002_);}
	.st102{fill:#000056;}
	.st103{clip-path:url(#SVGID_00000096742634486914931100000004023109244216777863_);}
	.st104{enable-background:new    ;}
	.st105{fill:#053272;}
	.st106{fill:none;stroke:#053272;stroke-width:4;stroke-miterlimit:10;}
	.st107{fill:url(#SVGID_00000078007666435264227530000000516155856607735943_);}
	.st108{fill:url(#SVGID_00000112617185285829373150000000961317034283776664_);}
	.st109{fill:url(#SVGID_00000001657167812825069600000011266449069374012334_);}
	.st110{fill:url(#SVGID_00000181066206266707161860000008685701994105549724_);}
	.st111{fill:url(#SVGID_00000119811605244181483640000009978191046104639896_);}
	.st112{fill:url(#SVGID_00000086680140152308415710000003123945314463201715_);}
	.st113{fill:url(#SVGID_00000026881101464411686720000002363422412200795314_);}
	.st114{fill:url(#SVGID_00000058562991473581838130000012892053279926508964_);}
	.st115{fill:url(#SVGID_00000162320962810042025070000005940634015451510163_);}
	.st116{fill:url(#SVGID_00000072263686538788656720000016213083299148487608_);}
	.st117{fill:url(#SVGID_00000147213514839803382060000016185780008686468494_);}
	.st118{fill:url(#SVGID_00000088813288943404215730000006306132104921585561_);}
	.st119{fill:url(#SVGID_00000053512685388179801530000013438728105133808288_);}
	.st120{fill:url(#SVGID_00000137112193205329579900000013079441184573901245_);}
	.st121{fill:url(#SVGID_00000028315848447138773210000013609433843565695669_);}
	.st122{fill:url(#SVGID_00000006681416100733794820000005622212331360874916_);}
	.st123{fill:url(#SVGID_00000030469765956103248540000003786846543920371626_);}
	.st124{fill:url(#SVGID_00000039123904771573186230000001776387753794287513_);}
	.st125{fill:url(#SVGID_00000160906893418731058820000013159382947812282814_);}
	.st126{fill:url(#SVGID_00000173882561111142140820000008998646611120393616_);}
	.st127{fill:url(#SVGID_00000125563910011732986160000004913437626365549730_);}
	.st128{fill:url(#SVGID_00000153681757738590960700000003849885901526205113_);}
	.st129{fill:url(#SVGID_00000135677651333709957010000015837634998572673178_);}
	.st130{fill:url(#SVGID_00000152954415208114475470000011558745845361715627_);}
	.st131{fill:url(#SVGID_00000090263546912142393590000013243874280587378351_);}
	.st132{fill:url(#SVGID_00000044858725894896714810000009205438588274271385_);}
	.st133{fill:url(#SVGID_00000148622041499373054900000011765257517660550812_);}
	.st134{fill:url(#SVGID_00000086662333415826199020000016308628469644743574_);}
	.st135{fill:url(#SVGID_00000103986434662677574390000015272258896712849321_);}
	.st136{fill:none;stroke:#FEF73D;stroke-linecap:round;stroke-miterlimit:10;}
	.st137{fill:none;stroke:#FF189C;stroke-miterlimit:10;}
	.st138{fill:none;stroke:#00EFF1;stroke-linecap:round;stroke-miterlimit:10;}
	.st139{fill:#00EFF1;}
	.st140{fill:#FFA022;}
	.st141{fill:#0C103A;}
	.st142{fill-rule:evenodd;clip-rule:evenodd;fill:#5D9541;}
	.st143{fill-rule:evenodd;clip-rule:evenodd;fill:#F06021;}
	.st144{fill-rule:evenodd;clip-rule:evenodd;fill:#69BC60;}
	.st145{fill-rule:evenodd;clip-rule:evenodd;fill:#F6951C;}
	.st146{fill:#F6951C;}
	.st147{fill:url(#SVGID_00000090277798590682749170000014557182727310572433_);}
	.st148{fill:url(#SVGID_00000014600478280561802310000015596220901363690410_);}
	.st149{fill:url(#SVGID_00000100368526905911443720000012912771068487188106_);}
	.st150{opacity:0.93;fill:url(#SVGID_00000171701126958522910670000010821279911983825833_);}
	.st151{opacity:0.93;fill:url(#SVGID_00000124870054748324100520000017104615681221116094_);}
	.st152{opacity:0.93;fill:url(#SVGID_00000087397846022978435980000004556004222241450906_);}
	.st153{opacity:0.93;fill:url(#SVGID_00000057119835016888421500000016664576142420442523_);}
	.st154{fill:url(#SVGID_00000130607129378618312730000005604773746214408097_);}
	.st155{fill:url(#SVGID_00000043443521610494002070000018336877997421424259_);}
	.st156{fill:url(#SVGID_00000079453744491122664000000012531635001541865381_);}
	.st157{fill:url(#SVGID_00000044881172704957511200000002325597757204030370_);}
	.st158{fill:url(#SVGID_00000127766296542671856260000005270710391657804945_);}
	.st159{fill:url(#SVGID_00000051384883500035571680000012660916162389120437_);}
	.st160{fill:url(#SVGID_00000047764040730477225990000006401510523822618013_);}
	.st161{fill:url(#SVGID_00000111902671461933311720000006206126664277727149_);}
	.st162{fill:url(#SVGID_00000068663225600598881890000012856069980418057366_);}
	.st163{fill:url(#SVGID_00000124153221067997806340000013789345684863189693_);}
	.st164{fill:url(#SVGID_00000176745181965035866050000010011529707526246823_);}
	.st165{fill:url(#SVGID_00000111150929188267844770000006194870809153324452_);}
	.st166{fill:url(#SVGID_00000052805687732661505070000006859452960226185909_);}
	.st167{fill:url(#SVGID_00000029725404828258736040000006994801844098712231_);}
	.st168{fill:url(#SVGID_00000065036883054106104100000012104316816387008904_);}
	.st169{fill:url(#SVGID_00000012431990699201926450000005302152845165760678_);}
	.st170{fill:url(#SVGID_00000134231326037623037180000010505014379704671158_);}
	.st171{fill:url(#SVGID_00000016046591781452147160000011716265728964237988_);}
	.st172{fill:url(#SVGID_00000151541124082331469560000003992714678864896653_);}
	.st173{fill:url(#SVGID_00000167361625198880975940000014032647940188033183_);}
	.st174{fill:url(#SVGID_00000158017428475627090770000007889377505845339310_);}
	.st175{fill:url(#SVGID_00000049909831039375657160000006732859536847749041_);}
	.st176{fill:url(#SVGID_00000034782319571489296310000001404353811512853394_);}
	.st177{fill:url(#SVGID_00000181048651465020964480000007081682537459695748_);}
	.st178{fill:url(#SVGID_00000137133178100282924600000017620267338105160065_);}
	.st179{fill:url(#SVGID_00000180345363199101792380000001689752618587238045_);}
	.st180{fill:url(#SVGID_00000121245861212428874980000010157080701266771341_);}
	.st181{fill:url(#SVGID_00000106126135782079707780000016219458871991222717_);}
	.st182{fill:url(#SVGID_00000003079048740266780450000011420452299204161939_);}
	.st183{fill:url(#SVGID_00000039120509962126666470000006672048131631741838_);}
	.st184{fill:url(#SVGID_00000094607006983254939080000013982028637572326297_);}
	.st185{fill:url(#SVGID_00000024681207082780197990000011078845910208484523_);}
	.st186{fill:url(#SVGID_00000045595352398092081250000013182779081152710816_);}
	.st187{fill:url(#SVGID_00000158006373923918174080000013159146491197191820_);}
	.st188{fill:url(#SVGID_00000172413383605546355230000009289405769215989163_);}
	.st189{fill:url(#SVGID_00000039104565497842069380000016445981357503865756_);}
	.st190{fill:url(#SVGID_00000137836747438998486110000009308163256797834925_);}
	.st191{fill:url(#SVGID_00000136378146376201011040000012026515786529613957_);}
	.st192{fill:url(#SVGID_00000000215490306487861090000010295895683228429226_);}
	.st193{fill:url(#SVGID_00000098185312030631337570000000241513848838309566_);}
	.st194{fill:url(#SVGID_00000029760448057363598650000003942758774187447979_);}
	.st195{fill:url(#SVGID_00000039837194352849620280000017149043550335033997_);}
	.st196{fill:url(#SVGID_00000129885583966252856590000000384077415330952847_);}
	.st197{fill:url(#SVGID_00000027578942636153183090000012595109876025749395_);}
	.st198{fill:url(#SVGID_00000004519862218106023820000009727946388089829805_);}
	.st199{fill-rule:evenodd;clip-rule:evenodd;fill:#512100;}
	.st200{fill-rule:evenodd;clip-rule:evenodd;fill:#006D62;}
	.st201{fill-rule:evenodd;clip-rule:evenodd;}
	.st202{fill-rule:evenodd;clip-rule:evenodd;fill:#00A1F5;}
	.st203{fill-rule:evenodd;clip-rule:evenodd;fill:#FACFAB;}
	.st204{fill-rule:evenodd;clip-rule:evenodd;fill:#F29673;}
	.st205{fill-rule:evenodd;clip-rule:evenodd;fill:#FFFFFF;}
	.st206{fill-rule:evenodd;clip-rule:evenodd;fill:#333333;}
	.st207{fill-rule:evenodd;clip-rule:evenodd;fill:#BD4D00;}
	.st208{fill-rule:evenodd;clip-rule:evenodd;fill:#B2B2B2;}
	.st209{fill-rule:evenodd;clip-rule:evenodd;fill:#F2CC29;}
	.st210{fill-rule:evenodd;clip-rule:evenodd;fill:#005C9C;}
	.st211{fill-rule:evenodd;clip-rule:evenodd;fill:#8AC900;}
	.st212{fill-rule:evenodd;clip-rule:evenodd;fill:#808080;}
	.st213{fill-rule:evenodd;clip-rule:evenodd;fill:#CFA605;}
	.st214{fill-rule:evenodd;clip-rule:evenodd;fill:#666666;}
	.st215{fill-rule:evenodd;clip-rule:evenodd;fill:#CCCCCC;}
	.st216{fill:#960000;}
	.st217{fill:url(#SVGID_00000176758208678671386560000016542161524062300310_);}
	.st218{fill:url(#SVGID_00000082340368217045856900000014600299164347400068_);}
	.st219{opacity:0.51;fill:url(#SVGID_00000125578090380056375140000011901946325470230194_);}
	.st220{fill:url(#SVGID_00000048480950325921172680000003879603260185869956_);}
	.st221{fill:url(#SVGID_00000097462149264019693130000017527863799283997371_);}
	.st222{fill:url(#SVGID_00000036961081832537858630000011646995618513072771_);}
	.st223{opacity:0.35;fill:url(#SVGID_00000119798891878692224390000016516044037699143328_);}
	.st224{opacity:0.35;fill:url(#SVGID_00000052783758541611699140000009415623048575032495_);}
	.st225{fill:#F06021;}
	.st226{fill-rule:evenodd;clip-rule:evenodd;fill:url(#SVGID_00000018236012390046900750000000113068900977259684_);}
	.st227{fill-rule:evenodd;clip-rule:evenodd;fill:url(#SVGID_00000035509202121028505550000002078763594213599674_);}
	.st228{fill-rule:evenodd;clip-rule:evenodd;fill:url(#SVGID_00000046322927643622707450000014265530462593488778_);}
	.st229{fill-rule:evenodd;clip-rule:evenodd;fill:url(#SVGID_00000044897107859509357200000012783420010376206509_);}
	.st230{fill-rule:evenodd;clip-rule:evenodd;fill:url(#SVGID_00000112613515140296037770000013810140795011890601_);}
	.st231{fill-rule:evenodd;clip-rule:evenodd;fill:url(#SVGID_00000070119225734047240520000011821033367501535361_);}
	.st232{fill-rule:evenodd;clip-rule:evenodd;fill:url(#SVGID_00000023983215149100281390000005610138865064945334_);}
	.st233{fill-rule:evenodd;clip-rule:evenodd;fill:url(#SVGID_00000143598020934557481020000001583726296235167925_);}
	.st234{fill-rule:evenodd;clip-rule:evenodd;fill:url(#SVGID_00000117653415662280140590000012967497998952566920_);}
	.st235{fill-rule:evenodd;clip-rule:evenodd;fill:url(#SVGID_00000057835806865988997120000018339372438092852923_);}
	.st236{fill-rule:evenodd;clip-rule:evenodd;fill:url(#SVGID_00000137839797752319321890000003361301444419854469_);}
	.st237{fill-rule:evenodd;clip-rule:evenodd;fill:url(#SVGID_00000183954328752085485500000013310047062287852932_);}
	.st238{fill-rule:evenodd;clip-rule:evenodd;fill:url(#SVGID_00000008108167472300888440000001704815979099590060_);}
	.st239{opacity:0.5;fill-rule:evenodd;clip-rule:evenodd;fill:#5D0101;enable-background:new    ;}
	.st240{fill:#E11B22;}
	.st241{fill:#959595;}
	.st242{fill:#003359;}
	.st243{fill:#1779C1;}
	.st244{fill:#0EB17C;}
	.st245{fill:#2B2353;}
	.st246{fill:#BE264E;}
	.st247{fill:#EAA41C;}
	.st248{fill:#1F9EF3;}
	.st249{fill:#0267A3;}
	.st250{fill:#FFEC00;}
	.st251{fill:#00A0E0;}
	.st252{fill:#E3007E;}
	.st253{fill:none;stroke:#000000;stroke-width:2;stroke-miterlimit:10;}
	.st254{fill:#FF9E80;}
	.st255{fill:#414151;}
	.st256{fill:#2B295E;}
	.st257{fill:#CCCCCC;}
	.st258{fill:#FF8C5C;}
	.st259{fill:#DBA21C;}
	.st260{fill:#EDDBB2;}
	.st261{fill:#DEC58B;}
	.st262{fill:#997113;}
	.st263{fill:#B88817;}
	.st264{fill:#003400;stroke:#8EC13D;stroke-width:4;stroke-miterlimit:10;}
	.st265{fill:#8EC13D;}
	.st266{fill:url(#XMLID_00000047022120306644863660000007731035571936891035_);}
	.st267{fill:url(#SVGID_00000038380543138252575510000003060204974467861388_);}
	.st268{fill:url(#SVGID_00000008861775173906792650000004732351260305561481_);}
	.st269{fill:url(#SVGID_00000073684058273677268220000005443400839639811504_);}
	.st270{fill:url(#SVGID_00000067229334655409944330000001720750041732377754_);}
	.st271{fill:url(#SVGID_00000021081931683033847640000002161143960039125941_);}
	.st272{fill:url(#SVGID_00000085238175046959964170000010772860425525920148_);}
	.st273{fill:url(#SVGID_00000095298043613465705660000016838003613192342940_);}
	.st274{fill:url(#SVGID_00000163784189007174238000000016384075868205441436_);}
	.st275{fill:url(#SVGID_00000028309849966691529270000009765266377093006011_);}
	.st276{fill:url(#SVGID_00000157298049422309505810000012261056777340774074_);}
	.st277{fill:url(#SVGID_00000034047951816420517940000016083299280329218724_);}
	.st278{fill:#1C75BC;}
	.st279{fill:#FF9400;}
	.st280{fill:#46920C;}
	.st281{fill:url(#SVGID_00000007390187916068397390000017984370125715542155_);}
	.st282{fill:url(#SVGID_00000181046735922775676950000005442025614156590469_);}
	.st283{fill:url(#SVGID_00000080206112810149467150000015890494685067022261_);}
	.st284{fill:url(#SVGID_00000008859101930017714930000010334159597738797486_);}
	.st285{fill:url(#SVGID_00000021838021529839596720000018320344700054510243_);}
	.st286{fill:url(#SVGID_00000060750395434206429740000010560706088252042414_);}
	.st287{fill:url(#SVGID_00000140014455521704570550000011279488108629203382_);}
	.st288{fill:url(#SVGID_00000010996063978536437830000006922165738259659434_);}
	.st289{fill:url(#SVGID_00000040561583771832419650000010073136443357321123_);}
	.st290{fill:url(#SVGID_00000031920537615700061250000007638476156715217582_);}
	.st291{fill:url(#SVGID_00000115486218010420362030000012011636864607689119_);}
	.st292{fill:url(#SVGID_00000166659523083098506340000007700524288581570465_);}
	.st293{fill:url(#SVGID_00000177481502639247065210000002983024361524522682_);}
	.st294{fill:url(#SVGID_00000068663799592646478640000012243926016483239816_);}
	.st295{fill:url(#SVGID_00000098904160382984012570000011273922768227633587_);}
	.st296{fill:url(#SVGID_00000150103286054180040880000002722105672553970361_);}
	.st297{fill:url(#SVGID_00000052798294976055883220000011892423729481227442_);}
	.st298{fill:url(#SVGID_00000083768527303013192200000008118528561545014716_);}
	.st299{fill:url(#SVGID_00000059281358487029531940000015514200046511924911_);}
	.st300{fill:#2F3F67;}
	.st301{fill:#C97F32;}
	.st302{fill:none;stroke:#C97F32;stroke-width:1.2891;stroke-miterlimit:10;}
	.st303{fill:url(#XMLID_00000165198188491833828880000012919155511352483506_);}
	.st304{fill:#00548B;}
	.st305{fill:#004368;}
	.st306{fill:#94070A;}
	.st307{fill:url(#XMLID_00000162339278360313925220000010364691578708382374_);}
	.st308{fill:url(#XMLID_00000088820595596399781200000013504360935167235237_);}
	.st309{fill:#B34A06;}
	.st310{fill:#A2B5C4;}
	.st311{fill:#192940;}
</style>
<g id="BACKGROUND_00000049938239758844491070000012157589788921522872_">
	<rect class="st62" width="348.32" height="228"/>
</g>
<g>
	<g id="XMLID_8_">
		
			<linearGradient id="XMLID_00000170965878056972803180000002736742523302285702_" gradientUnits="userSpaceOnUse" x1="143.9226" y1="-3390.5828" x2="174.9699" y2="-3390.5828" gradientTransform="matrix(1 0 0 -1 0 -3291.5002)">
			<stop  offset="0" style="stop-color:#E11B22"/>
			<stop  offset="1" style="stop-color:#C4161C"/>
		</linearGradient>
		<polygon id="XMLID_5_" style="fill:url(#XMLID_00000170965878056972803180000002736742523302285702_);" points="174,41.84 
			174,41.82 122.26,156.35 174,126.7 174,126.71 		"/>
		<polygon id="XMLID_2_" class="st304" points="174,135.86 174.01,156.4 122.26,156.4 		"/>
		<polygon id="XMLID_6_" class="st305" points="225.74,156.4 174,135.86 174.01,156.4 		"/>
		<polygon id="XMLID_3_" class="st306" points="174,126.7 174.01,41.83 225.74,156.35 		"/>
		
			<linearGradient id="XMLID_00000075857866040893663400000008320695416828675743_" gradientUnits="userSpaceOnUse" x1="156.313" y1="-3414.3108" x2="156.313" y2="-3345.0801" gradientTransform="matrix(1 0 0 -1 0 -3291.5002)">
			<stop  offset="0" style="stop-color:#E11B22;stop-opacity:0"/>
			<stop  offset="1" style="stop-color:#F68D6F"/>
		</linearGradient>
		
			<polygon id="XMLID_00000103953939267090459020000017571025963109566631_" style="fill:url(#XMLID_00000075857866040893663400000008320695416828675743_);" points="
			140.93,122.81 171.7,53.58 171.7,122.81 		"/>
		
			<linearGradient id="XMLID_00000010280964138605604070000007631517412696984989_" gradientUnits="userSpaceOnUse" x1="137.0502" y1="-3438.4026" x2="170.9108" y2="-3438.4026" gradientTransform="matrix(1 0 0 -1 0 -3291.5002)">
			<stop  offset="0" style="stop-color:#00548B;stop-opacity:0"/>
			<stop  offset="1" style="stop-color:#007DAC"/>
		</linearGradient>
		<polygon id="XMLID_1_" style="fill:url(#XMLID_00000010280964138605604070000007631517412696984989_);" points="141.66,154.09 
			170.91,154.09 170.9,139.71 137.05,154.09 		"/>
	</g>
	<g>
		<g>
			<path class="st305" d="M47.75,170.09v9.7H44.5v-4.5h-9.1v4.5h-3.2v-9.7c0-5.25,3.12-8.05,7.77-8.05
				C44.62,162.04,47.75,164.84,47.75,170.09z M44.5,172.56v-2.77c0-3.32-1.78-4.9-4.55-4.9c-2.77,0-4.55,1.58-4.55,4.9v2.77H44.5z"
				/>
			<path class="st305" d="M64.92,166.44v13.35h-2.97v-1.7c-1,1.22-2.57,1.87-4.3,1.87c-3.42,0-5.75-1.87-5.75-5.9v-7.62h3.12v7.2
				c0,2.42,1.15,3.57,3.12,3.57c2.17,0,3.65-1.35,3.65-4.02v-6.75H64.92z"/>
			<path class="st305" d="M76.53,179.06c-0.75,0.6-1.87,0.9-3,0.9c-2.92,0-4.6-1.55-4.6-4.5v-11.97h3.12v3.05h3.57v2.5h-3.57v6.35
				c0,1.3,0.67,2,1.85,2c0.65,0,1.27-0.17,1.75-0.55L76.53,179.06z"/>
			<path class="st305" d="M77.55,173.11c0-4,3-6.82,7.1-6.82c4.15,0,7.12,2.82,7.12,6.82s-2.97,6.85-7.12,6.85
				C80.55,179.96,77.55,177.11,77.55,173.11z M88.62,173.11c0-2.55-1.7-4.17-3.97-4.17c-2.25,0-3.95,1.62-3.95,4.17
				c0,2.55,1.7,4.17,3.95,4.17C86.93,177.29,88.62,175.66,88.62,173.11z"/>
			<path class="st305" d="M115.1,180.06l-2.2-2.12c-1.57,1.35-3.57,2.1-5.87,2.1c-3.7,0-6.37-1.92-6.37-4.67
				c0-2.17,1.2-3.7,4.05-5.3c-1.42-1.42-1.95-2.57-1.95-3.85c0-2.45,2-4.12,5.07-4.12c2.82,0,4.67,1.47,4.67,3.85
				c0,1.8-1.05,3.1-3.57,4.52l3.77,3.6c0.42-0.83,0.75-1.82,0.97-2.95l2.52,0.83c-0.32,1.52-0.85,2.87-1.57,4l2.2,2.1L115.1,180.06z
				 M111.05,176.16l-4.62-4.42c-2.02,1.12-2.72,2.05-2.72,3.3c0,1.45,1.4,2.45,3.55,2.45C108.7,177.48,109.98,177.04,111.05,176.16z
				 M105.6,166.16c0,0.78,0.32,1.35,1.57,2.6c2.02-1.1,2.67-1.82,2.67-2.77c0-1-0.73-1.67-2.02-1.67
				C106.43,164.31,105.6,165.09,105.6,166.16z"/>
		</g>
		<g>
			<path class="st306" d="M138.67,168.19c-1.62-0.92-3.32-1.5-5.15-1.7v14.85h-3.25v-14.85c-1.82,0.2-3.55,0.78-5.17,1.7l-1.12-2.5
				c2.37-1.42,5.12-2.1,7.9-2.1s5.55,0.67,7.92,2.1L138.67,168.19z"/>
			<path class="st306" d="M149.12,167.84v2.97c-0.27-0.05-0.5-0.08-0.72-0.08c-2.37,0-3.87,1.4-3.87,4.12v6.47h-3.12v-13.35h2.97
				v1.95C145.28,168.54,146.9,167.84,149.12,167.84z"/>
			<path class="st306" d="M164.7,167.99v13.35h-2.97v-1.72c-1.05,1.27-2.6,1.9-4.42,1.9c-3.9,0-6.75-2.7-6.75-6.85
				c0-4.15,2.85-6.82,6.75-6.82c1.7,0,3.2,0.58,4.27,1.78v-1.62H164.7z M161.62,174.66c0-2.55-1.7-4.17-3.97-4.17
				c-2.25,0-3.95,1.62-3.95,4.17c0,2.55,1.7,4.17,3.95,4.17C159.92,178.83,161.62,177.21,161.62,174.66z"/>
			<path class="st306" d="M181.95,173.69v7.65h-3.12v-7.25c0-2.38-1.17-3.52-3.17-3.52c-2.22,0-3.72,1.35-3.72,4.02v6.75h-3.12
				v-13.35h2.97v1.72c1.02-1.22,2.65-1.88,4.6-1.88C179.57,167.84,181.95,169.66,181.95,173.69z"/>
			<path class="st306" d="M184.4,180.01l1.2-2.38c1.17,0.78,2.97,1.33,4.65,1.33c1.97,0,2.8-0.55,2.8-1.47
				c0-2.55-8.25-0.15-8.25-5.47c0-2.52,2.27-4.17,5.87-4.17c1.77,0,3.8,0.42,5,1.15l-1.2,2.37c-1.28-0.75-2.55-1-3.82-1
				c-1.9,0-2.8,0.62-2.8,1.5c0,2.7,8.25,0.3,8.25,5.52c0,2.5-2.3,4.12-6.05,4.12C187.83,181.51,185.6,180.86,184.4,180.01z"/>
			<path class="st306" d="M212.97,174.66c0,4.15-2.87,6.85-6.77,6.85c-1.7,0-3.2-0.58-4.27-1.8v6.47h-3.12v-18.2h2.97v1.75
				c1.05-1.27,2.6-1.9,4.42-1.9C210.1,167.84,212.97,170.54,212.97,174.66z M209.8,174.66c0-2.55-1.7-4.17-3.95-4.17
				c-2.25,0-3.97,1.62-3.97,4.17c0,2.55,1.72,4.17,3.97,4.17C208.1,178.83,209.8,177.21,209.8,174.66z"/>
			<path class="st306" d="M214.85,174.66c0-4,3-6.82,7.1-6.82c4.15,0,7.12,2.82,7.12,6.82s-2.97,6.85-7.12,6.85
				C217.85,181.51,214.85,178.66,214.85,174.66z M225.92,174.66c0-2.55-1.7-4.17-3.97-4.17c-2.25,0-3.95,1.62-3.95,4.17
				c0,2.55,1.7,4.17,3.95,4.17C224.22,178.83,225.92,177.21,225.92,174.66z"/>
			<path class="st306" d="M239.8,167.84v2.97c-0.28-0.05-0.5-0.08-0.72-0.08c-2.38,0-3.87,1.4-3.87,4.12v6.47h-3.12v-13.35h2.97
				v1.95C235.95,168.54,237.57,167.84,239.8,167.84z"/>
			<path class="st306" d="M249.95,180.61c-0.75,0.6-1.88,0.9-3,0.9c-2.92,0-4.6-1.55-4.6-4.5v-11.97h3.12v3.05h3.57v2.5h-3.57v6.35
				c0,1.3,0.67,2,1.85,2c0.65,0,1.28-0.17,1.75-0.55L249.95,180.61z"/>
			<path class="st306" d="M265.12,167.99v13.35h-2.97v-1.72c-1.05,1.27-2.6,1.9-4.42,1.9c-3.9,0-6.75-2.7-6.75-6.85
				c0-4.15,2.85-6.82,6.75-6.82c1.7,0,3.2,0.58,4.27,1.78v-1.62H265.12z M262.05,174.66c0-2.55-1.7-4.17-3.97-4.17
				c-2.25,0-3.95,1.62-3.95,4.17c0,2.55,1.7,4.17,3.95,4.17C260.35,178.83,262.05,177.21,262.05,174.66z"/>
			<path class="st306" d="M276.72,180.61c-0.75,0.6-1.87,0.9-3,0.9c-2.92,0-4.6-1.55-4.6-4.5v-11.97h3.12v3.05h3.57v2.5h-3.57v6.35
				c0,1.3,0.67,2,1.85,2c0.65,0,1.27-0.17,1.75-0.55L276.72,180.61z"/>
			<path class="st306" d="M278.88,163.91c0-1.05,0.85-1.87,2-1.87c1.15,0,2,0.77,2,1.8c0,1.1-0.83,1.95-2,1.95
				C279.73,165.79,278.88,164.96,278.88,163.91z M279.3,167.99h3.12v13.35h-3.12V167.99z"/>
			<path class="st306" d="M285.43,174.66c0-4,3-6.82,7.1-6.82c4.15,0,7.12,2.82,7.12,6.82s-2.97,6.85-7.12,6.85
				C288.42,181.51,285.43,178.66,285.43,174.66z M296.5,174.66c0-2.55-1.7-4.17-3.97-4.17c-2.25,0-3.95,1.62-3.95,4.17
				c0,2.55,1.7,4.17,3.95,4.17C294.8,178.83,296.5,177.21,296.5,174.66z"/>
			<path class="st306" d="M315.8,173.69v7.65h-3.12v-7.25c0-2.38-1.17-3.52-3.17-3.52c-2.22,0-3.72,1.35-3.72,4.02v6.75h-3.12
				v-13.35h2.97v1.72c1.02-1.22,2.65-1.88,4.6-1.88C313.42,167.84,315.8,169.66,315.8,173.69z"/>
		</g>
	</g>
</g>
</svg>
