<?xml version="1.0" encoding="utf-8"?>
<!-- Generator: Adobe Illustrator 27.8.1, SVG Export Plug-In . SVG Version: 6.00 Build 0)  -->
<svg version="1.1" id="Layer_1" xmlns="http://www.w3.org/2000/svg" xmlns:xlink="http://www.w3.org/1999/xlink" x="0px" y="0px"
	 viewBox="0 0 348 228" style="enable-background:new 0 0 348 228;" xml:space="preserve">
<style type="text/css">
	.st0{fill:#D6EADE;}
	.st1{fill:#03487C;}
	.st2{fill:#1B1B4C;}
	.st3{fill-rule:evenodd;clip-rule:evenodd;fill:#204F7A;}
	.st4{fill-rule:evenodd;clip-rule:evenodd;fill:#50A4FF;}
	.st5{fill:#002649;}
	.st6{fill:#E6E7E8;stroke:#CFCFCF;stroke-width:0.1061;}
	.st7{fill:#333333;}
	.st8{fill:#0F5998;}
	.st9{fill:#277FC1;}
	.st10{fill-rule:evenodd;clip-rule:evenodd;fill:#277FC1;}
	.st11{fill-rule:evenodd;clip-rule:evenodd;fill:#083D6D;}
	.st12{fill:#DDB462;}
	
		.st13{clip-path:url(#SVGID_00000177460249175109538120000000208097263180049341_);fill:url(#SVGID_00000157269107860554515100000013656669768181454774_);}
	.st14{fill:#FFFFFF;}
	.st15{fill:url(#SVGID_00000003790553537026055850000003438082292844015496_);}
	.st16{fill:#224685;}
	.st17{fill:none;}
	.st18{fill:#FFC73B;}
	.st19{fill:#11233F;}
	.st20{fill:#5267FF;}
	.st21{fill-rule:evenodd;clip-rule:evenodd;fill:#72342E;}
	.st22{fill:#72342E;}
	.st23{fill:#FFF2E2;}
	.st24{fill:#FFF2E2;stroke:#72342E;stroke-width:0.75;stroke-miterlimit:10;}
	.st25{fill:#FFCC99;}
	.st26{fill:#469CB2;}
	.st27{fill:url(#XMLID_00000109710902721362565000000013043033911819682196_);}
	.st28{fill:url(#XMLID_00000111192689588381461100000004280746182211082373_);}
	.st29{fill:url(#XMLID_00000041270342840497690570000014073860348762670763_);}
	.st30{fill:url(#XMLID_00000120538657910802489700000009194738066555390886_);}
	.st31{fill:url(#XMLID_00000088099346984111565890000010430012480391214475_);}
	.st32{fill:url(#XMLID_00000179620419824100681750000005907462982235012534_);}
	.st33{fill:url(#XMLID_00000140007686346104678080000014251382469079623332_);}
	.st34{fill:url(#XMLID_00000068675063192220607960000002783816906216686493_);}
	.st35{fill:url(#XMLID_00000050621114205351302070000010441165990395394730_);}
	.st36{fill:url(#XMLID_00000132083039369410721310000017641025244449635218_);}
	.st37{fill:url(#XMLID_00000181770653013284815260000005973512327961013943_);}
	.st38{fill:url(#XMLID_00000092435229131479510310000010863350792020781188_);}
	.st39{fill:url(#XMLID_00000133526313147727133890000000222322442932106139_);}
	.st40{fill:url(#XMLID_00000169520597783930809480000011659579308709905549_);}
	.st41{fill:url(#XMLID_00000137854864464510182260000004557404065011138977_);}
	.st42{fill:url(#SVGID_00000183249592417443394510000016868279092184625557_);}
	.st43{fill:url(#SVGID_00000002365208747941294980000001037515999741524663_);}
	.st44{fill:url(#SVGID_00000055670341936789852750000009613571360962560909_);}
	.st45{fill:url(#SVGID_00000179642151182644460590000001934219943504591236_);}
	.st46{fill:url(#SVGID_00000018225119347097742160000013800600283460828091_);}
	.st47{fill:url(#SVGID_00000154406741260701026660000008135684527977019573_);}
	.st48{fill:url(#SVGID_00000035490255350953445860000015404630254859204265_);}
	.st49{fill:url(#SVGID_00000116232683732904013090000007206999168657001346_);}
	.st50{fill:url(#SVGID_00000024694049042944341620000002729558990436341430_);}
	.st51{fill:url(#SVGID_00000126308477561354369050000006233191859825589383_);}
	.st52{fill:url(#SVGID_00000108990441536181974340000006731501466651174051_);}
	.st53{fill:url(#SVGID_00000146481665688169677810000014435270409438359477_);}
	.st54{fill:url(#SVGID_00000106111793438473098190000013331314878778127038_);}
	.st55{fill:url(#SVGID_00000005973898756860734230000011346689917955271598_);}
	.st56{fill:#30325E;}
	.st57{fill:#FF7859;}
	.st58{fill:#FFD550;}
	.st59{fill:#00C3AD;}
	.st60{fill:#FF4653;}
	.st61{fill:#D8CE19;}
	.st62{fill:#C1E5DE;}
	.st63{fill:#FFE4D2;}
	.st64{fill:#DFF4F0;}
	.st65{fill:#A2E0EB;}
	.st66{fill:#1B3493;}
	.st67{fill:none;stroke:#FFFFFF;stroke-width:2;stroke-linecap:round;stroke-linejoin:round;stroke-miterlimit:10;}
	.st68{fill:#F15A24;}
	.st69{fill:#F7931E;}
	.st70{fill:#58595B;}
	.st71{fill:#114E15;}
	.st72{fill:#013D01;}
	.st73{fill:#E9C608;}
	.st74{fill:#043B00;}
	.st75{fill:#D8A43E;}
	.st76{clip-path:url(#SVGID_00000074423985835315696420000009227691149544762550_);}
	.st77{fill:#F49630;}
	.st78{clip-path:url(#SVGID_00000134229059729754966860000012738183966608479420_);}
	.st79{clip-path:url(#SVGID_00000142869514568731388260000002885012579083773826_);}
	.st80{clip-path:url(#SVGID_00000139980673075197899200000018166242797326111916_);}
	.st81{clip-path:url(#SVGID_00000151525760916542955700000008673934254760109965_);}
	.st82{fill-rule:evenodd;clip-rule:evenodd;fill:#FF6600;}
	.st83{fill-rule:evenodd;clip-rule:evenodd;fill:#05174F;}
	.st84{fill:#05174F;}
	.st85{opacity:0.42;fill:url(#SVGID_00000110450487750846696680000017007226599011767939_);enable-background:new    ;}
	.st86{opacity:0.42;fill:url(#SVGID_00000168114552419884830330000002534686155171836821_);enable-background:new    ;}
	.st87{fill:url(#SVGID_00000128457677289898758500000000808997164068623261_);}
	.st88{fill:url(#SVGID_00000180330803506376678830000016948500772343153339_);}
	.st89{opacity:0.64;fill:url(#SVGID_00000005236119446438042500000016014854595013282453_);enable-background:new    ;}
	.st90{opacity:0.75;fill:url(#SVGID_00000174574333385238084280000016369288935820460990_);enable-background:new    ;}
	.st91{fill:url(#SVGID_00000079470370796505695310000004817307781354540216_);}
	.st92{fill:url(#SVGID_00000019642805128095963550000016864834277180538534_);}
	.st93{opacity:0.76;fill:url(#SVGID_00000134971521167411573300000001606037521275981978_);enable-background:new    ;}
	.st94{opacity:0.75;fill:url(#SVGID_00000053504823103174594170000013054292256338141630_);enable-background:new    ;}
	.st95{fill:url(#SVGID_00000091699697435675660690000012983348482189478304_);}
	.st96{opacity:0.42;fill:url(#SVGID_00000079472417167897837190000017419521317879067282_);enable-background:new    ;}
	.st97{opacity:0.42;fill:url(#SVGID_00000018927019042003308850000018426806841099574705_);enable-background:new    ;}
	.st98{clip-path:url(#SVGID_00000093155551363985761970000010508558520816302228_);}
	.st99{fill:#1ED7FE;}
	.st100{clip-path:url(#SVGID_00000124127285153766764020000002391863123446724030_);}
	.st101{clip-path:url(#SVGID_00000106139718215550627320000000001576578496443548_);}
	.st102{fill:#000056;}
	.st103{clip-path:url(#SVGID_00000036211827431441737870000014501603745880104324_);}
	.st104{enable-background:new    ;}
	.st105{fill:#053272;}
	.st106{fill:none;stroke:#053272;stroke-width:4;stroke-miterlimit:10;}
	.st107{fill:url(#SVGID_00000024712082264268761910000012733524795694417564_);}
	.st108{fill:url(#SVGID_00000090984065402355663200000001679644535606657455_);}
	.st109{fill:url(#SVGID_00000149359677593117765840000014945457619760050054_);}
	.st110{fill:url(#SVGID_00000012439204509321010620000007874515795984996519_);}
	.st111{fill:url(#SVGID_00000098905965765812834600000017142732420860162719_);}
	.st112{fill:url(#SVGID_00000101790579339923914560000001871750208147267513_);}
	.st113{fill:url(#SVGID_00000039837508842731301480000009115315435483801227_);}
	.st114{fill:url(#SVGID_00000085929247452005800560000010274654855604425107_);}
	.st115{fill:url(#SVGID_00000136375499625672969100000016314002732954515634_);}
	.st116{fill:url(#SVGID_00000090987669559387757350000007618012524511294883_);}
	.st117{fill:url(#SVGID_00000044162384777535112900000017388435901825787804_);}
	.st118{fill:url(#SVGID_00000047037237630002627430000018298108945249458830_);}
	.st119{fill:url(#SVGID_00000073002401444292637160000015123457781229833867_);}
	.st120{fill:url(#SVGID_00000057837609492990528420000003320044869020525214_);}
	.st121{fill:url(#SVGID_00000064344633367460326210000005629153592377582503_);}
	.st122{fill:url(#SVGID_00000064315397453331375860000000363308434903004807_);}
	.st123{fill:url(#SVGID_00000080203485012470589970000017038244800351165580_);}
	.st124{fill:url(#SVGID_00000143583921987106409660000006889226480044861584_);}
	.st125{fill:url(#SVGID_00000174580495288912662340000008656983639828537752_);}
	.st126{fill:url(#SVGID_00000131337637362163657700000004439591069677315004_);}
	.st127{fill:url(#SVGID_00000060744250965476628730000005207876967398031745_);}
	.st128{fill:url(#SVGID_00000180335151240079380520000004735834481528181943_);}
	.st129{fill:url(#SVGID_00000051361897479654172330000008233363505328079528_);}
	.st130{fill:url(#SVGID_00000163045066460399802680000013546377576623131538_);}
	.st131{fill:url(#SVGID_00000101811448693854997210000011762299619799577753_);}
	.st132{fill:url(#SVGID_00000091010849541519132520000007345352454558964405_);}
	.st133{fill:url(#SVGID_00000062158451338996389540000010009658574203871402_);}
	.st134{fill:url(#SVGID_00000019680307120339165970000011682889487247086736_);}
	.st135{fill:url(#SVGID_00000052094056123351537180000002352075130874323646_);}
	.st136{fill:none;stroke:#FEF73D;stroke-linecap:round;stroke-miterlimit:10;}
	.st137{fill:none;stroke:#FF189C;stroke-miterlimit:10;}
	.st138{fill:none;stroke:#00EFF1;stroke-linecap:round;stroke-miterlimit:10;}
	.st139{fill:#00EFF1;}
	.st140{fill:#FFA022;}
	.st141{fill:#0C103A;}
	.st142{fill-rule:evenodd;clip-rule:evenodd;fill:#5D9541;}
	.st143{fill-rule:evenodd;clip-rule:evenodd;fill:#F06021;}
	.st144{fill-rule:evenodd;clip-rule:evenodd;fill:#69BC60;}
	.st145{fill-rule:evenodd;clip-rule:evenodd;fill:#F6951C;}
	.st146{fill:#F6951C;}
	.st147{fill:url(#SVGID_00000177469627979868220480000005755910297888339854_);}
	.st148{fill:url(#SVGID_00000078741332523619942630000008079438628852060050_);}
	.st149{fill:url(#SVGID_00000092439937020827973940000014115759757474174622_);}
	.st150{opacity:0.93;fill:url(#SVGID_00000142856796063571236430000008548605969110232967_);}
	.st151{opacity:0.93;fill:url(#SVGID_00000004528567273367864100000006852613353565853576_);}
	.st152{opacity:0.93;fill:url(#SVGID_00000167371370565680696780000009188692862758345405_);}
	.st153{opacity:0.93;fill:url(#SVGID_00000090288136252120400140000010308909432955962263_);}
	.st154{fill:url(#SVGID_00000040542379830527610110000003751576777848913056_);}
	.st155{fill:url(#SVGID_00000015324453736422827180000012913045841531383694_);}
	.st156{fill:url(#SVGID_00000057850520822951737250000006646366828604713881_);}
	.st157{fill:url(#SVGID_00000131360048906794807370000014286848814989773715_);}
	.st158{fill:url(#SVGID_00000097463199508962308820000017454000483083160707_);}
	.st159{fill:url(#SVGID_00000135651791858422576310000017678088590759716224_);}
	.st160{fill:url(#SVGID_00000107572360484180845480000013328684420845340585_);}
	.st161{fill:url(#SVGID_00000068656439987673381280000010323231555483560344_);}
	.st162{fill:url(#SVGID_00000124842529381212266250000009225305043622488744_);}
	.st163{fill:url(#SVGID_00000032636998906745851360000007359410429107752891_);}
	.st164{fill:url(#SVGID_00000095339590153896865830000008523770634150965416_);}
	.st165{fill:url(#SVGID_00000049900790826739465370000010943780289565032088_);}
	.st166{fill:url(#SVGID_00000128460774821582353530000013415136137068594600_);}
	.st167{fill:url(#SVGID_00000175297763554158262020000000523259107937026979_);}
	.st168{fill:url(#SVGID_00000116201148492461332440000008119661789683512481_);}
	.st169{fill:url(#SVGID_00000084515657403070433800000001775638323206653604_);}
	.st170{fill:url(#SVGID_00000058551382880373951310000008957435468782855327_);}
	.st171{fill:url(#SVGID_00000162340735312125428070000008445618778536786828_);}
	.st172{fill:url(#SVGID_00000113353598721918131190000011228276067902799278_);}
	.st173{fill:url(#SVGID_00000106843634327453299810000013262232251484691610_);}
	.st174{fill:url(#SVGID_00000167371212926454968640000001735877213838517432_);}
	.st175{fill:url(#SVGID_00000099646575196637987810000014959394307471541142_);}
	.st176{fill:url(#SVGID_00000152950118996193695140000002276403933246850720_);}
	.st177{fill:url(#SVGID_00000059291359758119473730000016720986824208320935_);}
	.st178{fill:url(#SVGID_00000067947657288872354160000008711084620787807647_);}
	.st179{fill:url(#SVGID_00000155132295148508737560000002350744083206910614_);}
	.st180{fill:url(#SVGID_00000067196437706732693350000016900764098236833211_);}
	.st181{fill:url(#SVGID_00000103978601785562814920000016746396957808765320_);}
	.st182{fill:url(#SVGID_00000103945500180403426650000011244129783762782640_);}
	.st183{fill:url(#SVGID_00000143597711679373211330000013875639666008866471_);}
	.st184{fill:url(#SVGID_00000026155189444396070200000007351917290018237860_);}
	.st185{fill:url(#SVGID_00000019647849050258117190000002844660608631554236_);}
	.st186{fill:url(#SVGID_00000170249769257925472000000017759206509440447167_);}
	.st187{fill:url(#SVGID_00000047059819178589710740000004559632187210448295_);}
	.st188{fill:url(#SVGID_00000142171633872428720740000005021115198757180061_);}
	.st189{fill:url(#SVGID_00000013177833727448225740000017046040259449492391_);}
	.st190{fill:url(#SVGID_00000169544113846634763260000000953541004486863765_);}
	.st191{fill:url(#SVGID_00000067938717135120299620000009013213562193679029_);}
	.st192{fill:url(#SVGID_00000134941999346831177420000009735490005848133558_);}
	.st193{fill:url(#SVGID_00000013902055424580250560000002394067253520479660_);}
	.st194{fill:url(#SVGID_00000086664290254719524130000009595057636653169030_);}
	.st195{fill:url(#SVGID_00000030477942871712507170000016616623591549494183_);}
	.st196{fill:url(#SVGID_00000114796122938182217620000004878707311898506913_);}
	.st197{fill:url(#SVGID_00000002380749680803244980000016500865178160423839_);}
	.st198{fill:url(#SVGID_00000078762570732303801660000008032349584630557365_);}
	.st199{fill-rule:evenodd;clip-rule:evenodd;fill:#512100;}
	.st200{fill-rule:evenodd;clip-rule:evenodd;fill:#006D62;}
	.st201{fill-rule:evenodd;clip-rule:evenodd;}
	.st202{fill-rule:evenodd;clip-rule:evenodd;fill:#00A1F5;}
	.st203{fill-rule:evenodd;clip-rule:evenodd;fill:#FACFAB;}
	.st204{fill-rule:evenodd;clip-rule:evenodd;fill:#F29673;}
	.st205{fill-rule:evenodd;clip-rule:evenodd;fill:#FFFFFF;}
	.st206{fill-rule:evenodd;clip-rule:evenodd;fill:#333333;}
	.st207{fill-rule:evenodd;clip-rule:evenodd;fill:#BD4D00;}
	.st208{fill-rule:evenodd;clip-rule:evenodd;fill:#B2B2B2;}
	.st209{fill-rule:evenodd;clip-rule:evenodd;fill:#F2CC29;}
	.st210{fill-rule:evenodd;clip-rule:evenodd;fill:#005C9C;}
	.st211{fill-rule:evenodd;clip-rule:evenodd;fill:#8AC900;}
	.st212{fill-rule:evenodd;clip-rule:evenodd;fill:#808080;}
	.st213{fill-rule:evenodd;clip-rule:evenodd;fill:#CFA605;}
	.st214{fill-rule:evenodd;clip-rule:evenodd;fill:#666666;}
	.st215{fill-rule:evenodd;clip-rule:evenodd;fill:#CCCCCC;}
	.st216{fill:#960000;}
	.st217{fill:url(#SVGID_00000173883145748226359240000014728593954793904058_);}
	.st218{fill:url(#SVGID_00000021118169877296604060000006829909135223102873_);}
	.st219{opacity:0.51;fill:url(#SVGID_00000176753714327917812280000001702349353541777573_);}
	.st220{fill:url(#SVGID_00000019675845707674896700000001188344552559943051_);}
	.st221{fill:url(#SVGID_00000115481100605893742780000016407728538174157459_);}
	.st222{fill:url(#SVGID_00000040552431433720760700000001717563244742317495_);}
	.st223{opacity:0.35;fill:url(#SVGID_00000044138407254281698860000004225856103481074322_);}
	.st224{opacity:0.35;fill:url(#SVGID_00000008837694550276752570000017174860790108581534_);}
	.st225{fill:#F06021;}
	.st226{fill-rule:evenodd;clip-rule:evenodd;fill:url(#SVGID_00000071530369944166687540000014292290778643773319_);}
	.st227{fill-rule:evenodd;clip-rule:evenodd;fill:url(#SVGID_00000017501335761266639380000003268029555134809019_);}
	.st228{fill-rule:evenodd;clip-rule:evenodd;fill:url(#SVGID_00000178188696334697369180000010236224820937927095_);}
	.st229{fill-rule:evenodd;clip-rule:evenodd;fill:url(#SVGID_00000061466613741576748170000018412736894884975285_);}
	.st230{fill-rule:evenodd;clip-rule:evenodd;fill:url(#SVGID_00000154404328638246647700000006888762195935227817_);}
	.st231{fill-rule:evenodd;clip-rule:evenodd;fill:url(#SVGID_00000003798848586834940980000012432632181912507575_);}
	.st232{fill-rule:evenodd;clip-rule:evenodd;fill:url(#SVGID_00000170986575540946195970000008977807462066833326_);}
	.st233{fill-rule:evenodd;clip-rule:evenodd;fill:url(#SVGID_00000170262847342845194400000009703160499213851532_);}
	.st234{fill-rule:evenodd;clip-rule:evenodd;fill:url(#SVGID_00000055664556987812507500000010016760342175990675_);}
	.st235{fill-rule:evenodd;clip-rule:evenodd;fill:url(#SVGID_00000102513535145760364090000008775419052596874381_);}
	.st236{fill-rule:evenodd;clip-rule:evenodd;fill:url(#SVGID_00000150073712923814193310000009872313186383002036_);}
	.st237{fill-rule:evenodd;clip-rule:evenodd;fill:url(#SVGID_00000105398203039649800300000011701212259007676330_);}
	.st238{fill-rule:evenodd;clip-rule:evenodd;fill:url(#SVGID_00000107589421425636667800000013540912072036974778_);}
	.st239{opacity:0.5;fill-rule:evenodd;clip-rule:evenodd;fill:#5D0101;enable-background:new    ;}
	.st240{fill:#E11B22;}
	.st241{fill:#959595;}
	.st242{fill:#003359;}
	.st243{fill:#1779C1;}
	.st244{fill:#0EB17C;}
	.st245{fill:#2B2353;}
	.st246{fill:#BE264E;}
	.st247{fill:#EAA41C;}
	.st248{fill:#1F9EF3;}
	.st249{fill:#0267A3;}
	.st250{fill:#FFEC00;}
	.st251{fill:#00A0E0;}
	.st252{fill:#E3007E;}
	.st253{fill:none;stroke:#000000;stroke-width:2;stroke-miterlimit:10;}
	.st254{fill:#FF9E80;}
	.st255{fill:#414151;}
	.st256{fill:#2B295E;}
	.st257{fill:#CCCCCC;}
	.st258{fill:#FF8C5C;}
	.st259{fill:#DBA21C;}
	.st260{fill:#EDDBB2;}
	.st261{fill:#DEC58B;}
	.st262{fill:#997113;}
	.st263{fill:#B88817;}
	.st264{fill:#003400;stroke:#8EC13D;stroke-width:4;stroke-miterlimit:10;}
	.st265{fill:#8EC13D;}
	.st266{fill:url(#XMLID_00000121253710731357700100000017624309465722246079_);}
	.st267{fill:url(#SVGID_00000016063317305027982000000003676876689799487139_);}
	.st268{fill:url(#SVGID_00000050650154264875830410000003016484871349604747_);}
	.st269{fill:url(#SVGID_00000180355221471786157950000013545014557237770634_);}
	.st270{fill:url(#SVGID_00000016754483709907292950000000774129165103590847_);}
	.st271{fill:url(#SVGID_00000062897619782443272680000017721574916027130254_);}
	.st272{fill:url(#SVGID_00000020380170489656841650000000165250995518921602_);}
	.st273{fill:url(#SVGID_00000139981107244019224110000013860196889933888698_);}
	.st274{fill:url(#SVGID_00000077304514596138847680000009095057886973882774_);}
	.st275{fill:url(#SVGID_00000077291022824762721750000013069629883213289377_);}
	.st276{fill:url(#SVGID_00000079459278345405462460000006646331522714248080_);}
	.st277{fill:url(#SVGID_00000065765399667337355700000011485228030848245396_);}
	.st278{fill:#1C75BC;}
	.st279{fill:#FF9400;}
	.st280{fill:#46920C;}
	.st281{fill:url(#SVGID_00000009567943083867112230000012195590784247226757_);}
	.st282{fill:url(#SVGID_00000000918291802776926940000000534899000182593468_);}
	.st283{fill:url(#SVGID_00000066496631223974355550000015246871350138178725_);}
	.st284{fill:url(#SVGID_00000158713078676479135780000006207820785064805046_);}
	.st285{fill:url(#SVGID_00000151537584383933235590000011435586998479558560_);}
	.st286{fill:url(#SVGID_00000086682296065329948410000009236570325775588992_);}
	.st287{fill:url(#SVGID_00000109023007358078474860000007486385705781567892_);}
	.st288{fill:url(#SVGID_00000087398327756585583920000010590811224634570624_);}
	.st289{fill:url(#SVGID_00000183931370796809134560000013570818489647129508_);}
	.st290{fill:url(#SVGID_00000174588530819668857820000017573567833932837809_);}
	.st291{fill:url(#SVGID_00000023982995929339599840000015589120467684510606_);}
	.st292{fill:url(#SVGID_00000016770009802378928390000002367589276982493313_);}
	.st293{fill:url(#SVGID_00000138563443138245046040000007253089476103366790_);}
	.st294{fill:url(#SVGID_00000139974153046076809470000005349376097125165208_);}
	.st295{fill:url(#SVGID_00000016053516158702841980000017182288802985297820_);}
	.st296{fill:url(#SVGID_00000136389599711659749780000008633280332016716697_);}
	.st297{fill:url(#SVGID_00000093143284661134113180000002801011945662319548_);}
	.st298{fill:url(#SVGID_00000144317284325608074200000008322087746068962201_);}
	.st299{fill:url(#SVGID_00000110447473996712590600000005093668373765145228_);}
	.st300{fill:#2F3F67;}
	.st301{fill:#C97F32;}
	.st302{fill:none;stroke:#C97F32;stroke-width:1.2891;stroke-miterlimit:10;}
	.st303{fill:url(#XMLID_00000008137848231686342370000014258893202646586035_);}
	.st304{fill:#00548B;}
	.st305{fill:#004368;}
	.st306{fill:#94070A;}
	.st307{fill:url(#XMLID_00000003783459324157246350000010134869175527333550_);}
	.st308{fill:url(#XMLID_00000020360864846184487480000012229022799931346866_);}
	.st309{fill:#B34A06;}
	.st310{fill:#A2B5C4;}
	.st311{fill:#192940;}
</style>
<g id="BACKGROUND_00000036246850838542871170000000622265679322096280_">
	<rect x="-0.26" y="0.16" width="348" height="228"/>
</g>
<g>
	<g>
		<g>
			<g>
				
					<radialGradient id="SVGID_00000101077919461058886160000017065872533202894510_" cx="132.8036" cy="98.8079" r="44.2786" gradientUnits="userSpaceOnUse">
					<stop  offset="0.3966" style="stop-color:#FFBC95"/>
					<stop  offset="1" style="stop-color:#FFA1A9"/>
				</radialGradient>
				<path style="fill:url(#SVGID_00000101077919461058886160000017065872533202894510_);" d="M135.99,129.53
					c0,0,3.12-10.19,11.45-17.42c8.33-7.23,9.2-11.83,9.2-20.59c-3.94,11.17-9.86,14.9-15.99,15.12c7.67-3.07,8.76-14.24,8.76-17.31
					c0,0-2.41,4.33-8.49,6.63s-11.67,0.99-13.8-4.6c-2.14-5.59,2.96-9.53,2.96-9.53c-2.63,2.96-1.48,6.57,1.81,8.38
					c3.29,1.81,9.37-0.99,10.02-6.9c0.66-5.91-5.42-10.63-5.42-10.63c-5.91-7.23-4.16-17.96-4.16-17.96
					c-3.72,8.11-0.38,19.28-0.38,19.28c-5.26-5.91-6.79-11.83-6.79-11.83c-3.61-12.16,5.59-18.07,5.59-18.07
					c-9.2,2.96-17.85,15.99-19.25,22.26c-0.13,0.58-0.23,1.17-0.33,1.76c-0.92-0.14-2.17-0.55-3.81-1.51c0,0,1.15,2.36,3.62,2.68
					c-0.1,0.59-0.21,1.18-0.36,1.76c-0.37,1.45-0.88,3.28-1.89,4.38c-1.16,1.27-2.05,2.27-3.3,3.5c-0.88,0.87-1.87,1.67-2.5,2.74
					c-0.63,1.07-0.83,2.51-0.1,3.51c0.83,1.14,2.66,1.48,3,2.85c0.42,1.62-1.7,3.05-1.39,4.7c0.24,1.27,1.8,1.92,2.15,3.17
					c-0.65,0-1.3,0.37-1.61,0.95c-0.31,0.57-0.28,1.32,0.08,1.86c0.69,1.04,2.39,1.35,2.57,2.58c0.11,0.78-0.49,1.45-0.86,2.14
					c-1.1,2.02-0.25,4.7,1.51,6.18c1.76,1.48,4.19,1.91,6.48,1.78c3-0.17,5.7-0.19,8.71-0.32c1.58-0.07,3.24-0.11,4.62,0.65
					c0.74,0.41,1.35,1.03,1.86,1.71c0.28,0.37,0.6,0.71,0.96,1.01c0.88,0.73,2.59,2.94,1.25,8.62c-1.75,7.45-15.66,19.5-15.66,30.45
					c0,0,8.43-12.34,18.84-19.28c11.83-7.89,21.36-8.32,27.93-9.64C150.88,120.66,135.99,129.53,135.99,129.53z"/>
				
					<radialGradient id="SVGID_00000037665563918113191350000017203863027134731929_" cx="161.3092" cy="98.9727" r="11.8242" gradientUnits="userSpaceOnUse">
					<stop  offset="0.3966" style="stop-color:#FFBC95"/>
					<stop  offset="1" style="stop-color:#FFA1A9"/>
				</radialGradient>
				<path style="fill:url(#SVGID_00000037665563918113191350000017203863027134731929_);" d="M163.64,83.2
					c2.63,17.53-7.89,31.55-7.89,31.55s5.7-3.72,8.98-9.2C168.03,100.07,167.37,91.74,163.64,83.2z"/>
				
					<radialGradient id="SVGID_00000008850407949054002300000004731448762978727296_" cx="141.1963" cy="60.6343" r="9.4293" gradientUnits="userSpaceOnUse">
					<stop  offset="0.3966" style="stop-color:#FFBC95"/>
					<stop  offset="1" style="stop-color:#FFA1A9"/>
				</radialGradient>
				<path style="fill:url(#SVGID_00000008850407949054002300000004731448762978727296_);" d="M145.24,73.34
					c-0.44-1.31-7.45-10.3-4.16-25.41C141.08,47.93,129.91,61.7,145.24,73.34z"/>
			</g>
			
				<radialGradient id="SVGID_00000098903853935223240360000017339498565170169518_" cx="196.878" cy="69.0015" r="40.3349" gradientUnits="userSpaceOnUse">
				<stop  offset="0.3966" style="stop-color:#FFBC95"/>
				<stop  offset="1" style="stop-color:#FFA1A9"/>
			</radialGradient>
			<path style="fill:url(#SVGID_00000098903853935223240360000017339498565170169518_);" d="M148.1,41.58c0,0,19.73-6.6,32.66,21.98
				s29,38.49,50.78,33.96c17.99-5.46,13.67-18.2,13.67-18.2s-13.82,21.4-32.76,14.12c-18.94-7.28-24.72-25.98-32.28-36.95
				C171.33,43.7,160.32,35.25,148.1,41.58z"/>
			<g>
				
					<radialGradient id="SVGID_00000045597095203485040920000001426210284350737588_" cx="152.8938" cy="61.9899" r="4.2777" gradientUnits="userSpaceOnUse">
					<stop  offset="0.3966" style="stop-color:#FFBC95"/>
					<stop  offset="1" style="stop-color:#FFA1A9"/>
				</radialGradient>
				<path style="fill:url(#SVGID_00000045597095203485040920000001426210284350737588_);" d="M155.93,65.03
					c0.23,0.26,0.48,0.5,0.75,0.71c-0.44,0.34-0.95,0.6-1.5,0.77c-0.43,0.13-0.89,0.2-1.36,0.2c-2.6,0-4.71-2.11-4.71-4.71
					c0-2.61,2.11-4.71,4.71-4.71c0.48,0,0.93,0.07,1.36,0.2c0.55,0.16,1.07,0.43,1.5,0.77c-0.28,0.2-0.52,0.44-0.75,0.7
					c-0.7,0.82-1.1,1.88-1.1,3.04C154.83,63.15,155.24,64.21,155.93,65.03z"/>
				
					<radialGradient id="SVGID_00000151533485977519829910000008460110106797226138_" cx="166.4231" cy="61.9899" r="4.3095" gradientUnits="userSpaceOnUse">
					<stop  offset="0.3966" style="stop-color:#FFBC95"/>
					<stop  offset="1" style="stop-color:#FFA1A9"/>
				</radialGradient>
				<path style="fill:url(#SVGID_00000151533485977519829910000008460110106797226138_);" d="M170.29,61.99
					c0,2.6-2.1,4.71-4.71,4.71c-0.48,0-0.93-0.07-1.36-0.2c-0.61-0.19-1.17-0.5-1.65-0.89c0.28-0.23,0.52-0.5,0.74-0.78
					c0.6-0.79,0.96-1.77,0.96-2.85c0-1.08-0.36-2.07-0.96-2.85c-0.22-0.3-0.47-0.55-0.74-0.78c0.48-0.4,1.04-0.7,1.65-0.89
					c0.43-0.13,0.89-0.2,1.36-0.2C168.18,57.28,170.29,59.38,170.29,61.99z"/>
				
					<radialGradient id="SVGID_00000154391821924617974400000017271400700441920655_" cx="159.6942" cy="68.7093" r="4.3138" gradientUnits="userSpaceOnUse">
					<stop  offset="0.3966" style="stop-color:#FFBC95"/>
					<stop  offset="1" style="stop-color:#FFA1A9"/>
				</radialGradient>
				<path style="fill:url(#SVGID_00000154391821924617974400000017271400700441920655_);" d="M164.41,67.87
					c0,2.6-2.1,4.71-4.71,4.71c-2.6,0-4.71-2.11-4.71-4.71c0-0.48,0.07-0.93,0.2-1.36c0.16-0.54,0.42-1.04,0.75-1.48
					c0.23,0.26,0.48,0.5,0.75,0.71c0.79,0.61,1.79,0.97,2.86,0.97c1.14,0,2.2-0.41,3.02-1.09c0.28-0.23,0.52-0.5,0.74-0.78
					c0.41,0.48,0.72,1.05,0.9,1.67C164.34,66.93,164.41,67.39,164.41,67.87z"/>
				
					<radialGradient id="SVGID_00000057840953824155100370000018446437620856846236_" cx="159.6942" cy="55.2705" r="4.3137" gradientUnits="userSpaceOnUse">
					<stop  offset="0.3966" style="stop-color:#FFBC95"/>
					<stop  offset="1" style="stop-color:#FFA1A9"/>
				</radialGradient>
				<path style="fill:url(#SVGID_00000057840953824155100370000018446437620856846236_);" d="M164.41,56.11
					c0,0.48-0.07,0.93-0.2,1.36c-0.18,0.62-0.5,1.18-0.9,1.67c-0.22-0.3-0.47-0.55-0.74-0.78c-0.82-0.69-1.88-1.09-3.02-1.09
					c-1.07,0-2.07,0.36-2.86,0.97c-0.28,0.2-0.52,0.44-0.75,0.7c-0.33-0.44-0.59-0.93-0.75-1.48c-0.13-0.43-0.2-0.89-0.2-1.36
					c0-2.61,2.11-4.71,4.71-4.71C162.3,51.4,164.41,53.5,164.41,56.11z"/>
			</g>
		</g>
		<g>
			
				<radialGradient id="SVGID_00000078008040850164517100000016660779371403943307_" cx="110.4009" cy="126.165" r="2.5842" gradientUnits="userSpaceOnUse">
				<stop  offset="0" style="stop-color:#FFBC95"/>
				<stop  offset="1" style="stop-color:#FFA1A9"/>
			</radialGradient>
			<path style="fill:url(#SVGID_00000078008040850164517100000016660779371403943307_);" d="M112.24,128
				c0.13,0.16,0.29,0.3,0.45,0.42c-0.27,0.2-0.57,0.36-0.9,0.47c-0.26,0.08-0.54,0.12-0.83,0.12c-1.57,0-2.85-1.28-2.85-2.85
				c0-1.57,1.28-2.85,2.85-2.85c0.29,0,0.56,0.04,0.82,0.12c0.33,0.1,0.65,0.26,0.91,0.47c-0.17,0.12-0.32,0.27-0.46,0.43
				c-0.42,0.5-0.67,1.12-0.67,1.83C111.57,126.87,111.82,127.51,112.24,128z"/>
			
				<radialGradient id="SVGID_00000025415974725069464630000008602809146567324601_" cx="118.5728" cy="126.165" r="2.6055" gradientUnits="userSpaceOnUse">
				<stop  offset="0" style="stop-color:#FFBC95"/>
				<stop  offset="1" style="stop-color:#FFA1A9"/>
			</radialGradient>
			<path style="fill:url(#SVGID_00000025415974725069464630000008602809146567324601_);" d="M120.91,126.17
				c0,1.57-1.28,2.85-2.85,2.85c-0.29,0-0.57-0.05-0.83-0.12c-0.37-0.11-0.71-0.3-1-0.54c0.17-0.13,0.32-0.29,0.45-0.47
				c0.37-0.48,0.58-1.07,0.58-1.71s-0.21-1.24-0.57-1.71l-0.46-0.47c0.3-0.25,0.63-0.44,1.01-0.54c0.26-0.09,0.53-0.12,0.82-0.12
				C119.63,123.32,120.91,124.59,120.91,126.17z"/>
			
				<radialGradient id="SVGID_00000171706919188809452690000008679546802360709788_" cx="114.5106" cy="130.2224" r="2.6076" gradientUnits="userSpaceOnUse">
				<stop  offset="0" style="stop-color:#FFBC95"/>
				<stop  offset="1" style="stop-color:#FFA1A9"/>
			</radialGradient>
			<path style="fill:url(#SVGID_00000171706919188809452690000008679546802360709788_);" d="M117.36,129.72
				c0,1.57-1.28,2.85-2.85,2.85c-1.57,0-2.85-1.28-2.85-2.85c0-0.29,0.04-0.56,0.12-0.83c0.1-0.32,0.25-0.62,0.46-0.89
				c0.13,0.16,0.29,0.3,0.45,0.42c0.48,0.37,1.08,0.59,1.72,0.59c0.69,0,1.32-0.25,1.82-0.67c0.17-0.13,0.32-0.29,0.45-0.47
				c0.25,0.3,0.44,0.64,0.55,1.01C117.32,129.16,117.36,129.43,117.36,129.72z"/>
			
				<radialGradient id="SVGID_00000097475235566621551900000002570773181062692532_" cx="114.5106" cy="122.1123" r="2.6055" gradientUnits="userSpaceOnUse">
				<stop  offset="0" style="stop-color:#FFBC95"/>
				<stop  offset="1" style="stop-color:#FFA1A9"/>
			</radialGradient>
			<path style="fill:url(#SVGID_00000097475235566621551900000002570773181062692532_);" d="M117.36,122.62
				c0,0.29-0.04,0.56-0.11,0.82c-0.11,0.37-0.3,0.71-0.55,1.01l-0.46-0.47c-0.5-0.42-1.13-0.67-1.82-0.67
				c-0.65,0-1.25,0.22-1.72,0.59c-0.17,0.12-0.32,0.27-0.46,0.43c-0.2-0.27-0.35-0.56-0.46-0.9c-0.08-0.26-0.11-0.53-0.11-0.82
				c0-1.57,1.28-2.85,2.85-2.85C116.08,119.77,117.36,121.05,117.36,122.62z"/>
			
				<radialGradient id="SVGID_00000062182248241358459000000006740560334890816135_" cx="116.4631" cy="124.2173" r="0.231" gradientUnits="userSpaceOnUse">
				<stop  offset="0" style="stop-color:#FFBC95"/>
				<stop  offset="1" style="stop-color:#FFA1A9"/>
			</radialGradient>
			<path style="fill:url(#SVGID_00000062182248241358459000000006740560334890816135_);" d="M116.69,124.45
				c-0.13-0.18-0.29-0.33-0.46-0.47"/>
		</g>
	</g>
	<g>
		
			<radialGradient id="SVGID_00000114062880321993191460000017353765622379209878_" cx="92.8373" cy="173.242" r="14.4989" gradientUnits="userSpaceOnUse">
			<stop  offset="0.3966" style="stop-color:#FFBC95"/>
			<stop  offset="1" style="stop-color:#FFA1A9"/>
		</radialGradient>
		<path style="fill:url(#SVGID_00000114062880321993191460000017353765622379209878_);" d="M106.46,179.8c0,1.54-0.4,3-1.1,4.26
			c-1.49,2.69-4.37,4.51-7.66,4.51c-0.39,0-0.77-0.03-1.14-0.07c-0.37,0.05-0.76,0.07-1.14,0.07h-16.2v-23.87h4.4v6.28h12.51
			c2.06-0.34,3.63-2.14,3.63-4.29c0-2.07-1.46-3.81-3.4-4.25H79.21v-4.52h16.2c3.25,0,6.09,1.77,7.61,4.41
			c0.02,0.04,0.04,0.07,0.06,0.11c0.7,1.26,1.1,2.71,1.1,4.25c0,1.56-0.41,3.02-1.12,4.29c-0.01,0.02-0.03,0.05-0.04,0.07
			c-0.25,0.43-0.53,0.84-0.85,1.23c0.48,0.28,0.93,0.61,1.34,0.98c0.74,0.65,1.36,1.43,1.84,2.29
			C106.06,176.8,106.46,178.25,106.46,179.8z M102.04,179.8c0-2.12-1.52-3.89-3.53-4.27H83.62v8.53H98.6
			C100.57,183.64,102.04,181.89,102.04,179.8z"/>
		
			<radialGradient id="SVGID_00000111172800092979695500000001557623517722650250_" cx="124.9032" cy="173.2968" r="14.414" gradientUnits="userSpaceOnUse">
			<stop  offset="0.3966" style="stop-color:#FFBC95"/>
			<stop  offset="1" style="stop-color:#FFA1A9"/>
		</radialGradient>
		<path style="fill:url(#SVGID_00000111172800092979695500000001557623517722650250_);" d="M138.41,158.03v4.41H111.4v-4.41H138.41z
			 M115.8,184.16h22.6v4.41H111.4v-23.93h4.41v5.35h19.64v4.41H115.8V184.16z"/>
		
			<radialGradient id="SVGID_00000157302727456672621750000014045335761110482077_" cx="159.8146" cy="173.2415" r="16.1656" gradientUnits="userSpaceOnUse">
			<stop  offset="0.3966" style="stop-color:#FFBC95"/>
			<stop  offset="1" style="stop-color:#FFA1A9"/>
		</radialGradient>
		<path style="fill:url(#SVGID_00000157302727456672621750000014045335761110482077_);" d="M155.46,165.78l2.89,5.28l-9.69,17.5
			h-5.82L155.46,165.78z M176.78,188.57h-5.82l-11.14-20.14l-2.91-5.26l2.91-5.25l0,0l2.91,5.26L176.78,188.57z"/>
		
			<radialGradient id="SVGID_00000169523920497661335900000011951423279679897745_" cx="191.2562" cy="173.2905" r="14.4701" gradientUnits="userSpaceOnUse">
			<stop  offset="0.3966" style="stop-color:#FFBC95"/>
			<stop  offset="1" style="stop-color:#FFA1A9"/>
		</radialGradient>
		<path style="fill:url(#SVGID_00000169523920497661335900000011951423279679897745_);" d="M204.87,158.01v19.43
			c0,2.31-0.84,4.56-2.41,6.24c-0.61,0.65-1.28,1.26-1.99,1.8c-2.56,1.94-5.75,3.08-9.2,3.08c-3.46,0-6.66-1.15-9.22-3.09
			c-0.72-0.55-1.39-1.15-2-1.81c-1.57-1.69-2.4-3.93-2.4-6.23v-19.41h4.41v16.86c0,4.97,3.91,9.13,8.88,9.28
			c0.11,0,0.22,0.01,0.34,0.01c0.11,0,0.21,0,0.32,0c4.97-0.14,8.88-4.31,8.88-9.28v-16.87H204.87z"/>
		
			<radialGradient id="SVGID_00000101070331129883147890000007945206853010351518_" cx="222.8909" cy="173.299" r="14.4686" gradientUnits="userSpaceOnUse">
			<stop  offset="0.3966" style="stop-color:#FFBC95"/>
			<stop  offset="1" style="stop-color:#FFA1A9"/>
		</radialGradient>
		<path style="fill:url(#SVGID_00000101070331129883147890000007945206853010351518_);" d="M209.27,162.44v-4.41h27.24v4.41H209.27z
			 M220.45,188.57v-23.93h4.41v23.93H220.45z"/>
		
			<radialGradient id="SVGID_00000158725922384441052710000000870743165827963300_" cx="254.8412" cy="173.2519" r="14.6457" gradientUnits="userSpaceOnUse">
			<stop  offset="0.3966" style="stop-color:#FFBC95"/>
			<stop  offset="1" style="stop-color:#FFA1A9"/>
		</radialGradient>
		<path style="fill:url(#SVGID_00000158725922384441052710000000870743165827963300_);" d="M268.79,157.94l-10.87,14.86l-0.33,0.45
			l-0.02,0.02l-0.42,0.57l-0.1,0.14v14.58h-4.41v-14.57l-0.11-0.15l-0.42-0.57l-0.02-0.02l-0.33-0.45l-10.87-14.86h5.45l8.49,11.6
			l0,0l8.49-11.59H268.79z"/>
	</g>
</g>
</svg>
