<?xml version="1.0" encoding="utf-8"?>
<!-- Generator: Adobe Illustrator 27.8.1, SVG Export Plug-In . SVG Version: 6.00 Build 0)  -->
<svg version="1.1" id="Layer_1" xmlns="http://www.w3.org/2000/svg" xmlns:xlink="http://www.w3.org/1999/xlink" x="0px" y="0px"
	 viewBox="0 0 348 228" style="enable-background:new 0 0 348 228;" xml:space="preserve">
<style type="text/css">
	.st0{fill:#D6EADE;}
	.st1{fill:#03487C;}
	.st2{fill:#1B1B4C;}
	.st3{fill-rule:evenodd;clip-rule:evenodd;fill:#204F7A;}
	.st4{fill-rule:evenodd;clip-rule:evenodd;fill:#50A4FF;}
	.st5{fill:#002649;}
	.st6{fill:#E6E7E8;stroke:#CFCFCF;stroke-width:0.1061;}
	.st7{fill:#333333;}
	.st8{fill:#0F5998;}
	.st9{fill:#277FC1;}
	.st10{fill-rule:evenodd;clip-rule:evenodd;fill:#277FC1;}
	.st11{fill-rule:evenodd;clip-rule:evenodd;fill:#083D6D;}
	.st12{fill:#DDB462;}
	
		.st13{clip-path:url(#SVGID_00000056417703672995286310000000096375317494169531_);fill:url(#SVGID_00000000217810708415064270000017595418222842666660_);}
	.st14{fill:#FFFFFF;}
	.st15{fill:url(#SVGID_00000068663473388194280960000004715809503494351233_);}
	.st16{fill:#224685;}
	.st17{fill:none;}
	.st18{fill:#FFC73B;}
	.st19{fill:#11233F;}
	.st20{fill:#5267FF;}
	.st21{fill-rule:evenodd;clip-rule:evenodd;fill:#72342E;}
	.st22{fill:#72342E;}
	.st23{fill:#FFF2E2;}
	.st24{fill:#FFF2E2;stroke:#72342E;stroke-width:0.75;stroke-miterlimit:10;}
	.st25{fill:#FFCC99;}
	.st26{fill:#469CB2;}
	.st27{fill:url(#XMLID_00000036944017313875833350000017518286079510909058_);}
	.st28{fill:url(#XMLID_00000109736704642883595240000009390625186797621134_);}
	.st29{fill:url(#XMLID_00000072984260803613296270000011863709878125414277_);}
	.st30{fill:url(#XMLID_00000052811133217782252830000005869052488134341550_);}
	.st31{fill:url(#XMLID_00000116209660458031116160000013285917333451593113_);}
	.st32{fill:url(#XMLID_00000055678177327136444460000000850200776784265655_);}
	.st33{fill:url(#XMLID_00000047769219075718132810000000912138851521543074_);}
	.st34{fill:url(#XMLID_00000047781161006616077360000007238728463666306728_);}
	.st35{fill:url(#XMLID_00000120532470996636879190000005864913801395286926_);}
	.st36{fill:url(#XMLID_00000077285159008032232020000012949616954226676113_);}
	.st37{fill:url(#XMLID_00000004507363688366234110000004132256536156907161_);}
	.st38{fill:url(#XMLID_00000176019105347143445450000000930857734741838769_);}
	.st39{fill:url(#XMLID_00000132767983672746295760000017473538129583696276_);}
	.st40{fill:url(#XMLID_00000182519008377208241860000003513670755622285495_);}
	.st41{fill:url(#XMLID_00000039844837424847051570000003298006209193095332_);}
	.st42{fill:url(#SVGID_00000063625107274798400790000002016045114164910508_);}
	.st43{fill:url(#SVGID_00000041278214152230743620000016371537845462121376_);}
	.st44{fill:url(#SVGID_00000070816388593823349720000000528179320206835887_);}
	.st45{fill:url(#SVGID_00000103258193279295655510000009226367650525749171_);}
	.st46{fill:url(#SVGID_00000065796124983722988110000010120765459047280317_);}
	.st47{fill:url(#SVGID_00000093146063499551936180000012141310758448444860_);}
	.st48{fill:url(#SVGID_00000001663050323588572600000005410170822849273770_);}
	.st49{fill:url(#SVGID_00000043444633693565635090000002573340206165187983_);}
	.st50{fill:url(#SVGID_00000065755481895747248640000011718474365758058115_);}
	.st51{fill:url(#SVGID_00000137100100383012316950000000746602770990187392_);}
	.st52{fill:url(#SVGID_00000067228307610091102260000001344733282117464742_);}
	.st53{fill:url(#SVGID_00000007387736072426946650000010402937721324638607_);}
	.st54{fill:url(#SVGID_00000044898067825893180190000003142828918778281654_);}
	.st55{fill:url(#SVGID_00000052786649995703145470000011360290585675369347_);}
	.st56{fill:#30325E;}
	.st57{fill:#FF7859;}
	.st58{fill:#FFD550;}
	.st59{fill:#00C3AD;}
	.st60{fill:#FF4653;}
	.st61{fill:#D8CE19;}
	.st62{fill:#C1E5DE;}
	.st63{fill:#FFE4D2;}
	.st64{fill:#DFF4F0;}
	.st65{fill:#A2E0EB;}
	.st66{fill:#1B3493;}
	.st67{fill:none;stroke:#FFFFFF;stroke-width:2;stroke-linecap:round;stroke-linejoin:round;stroke-miterlimit:10;}
	.st68{fill:#F15A24;}
	.st69{fill:#F7931E;}
	.st70{fill:#58595B;}
	.st71{fill:#114E15;}
	.st72{fill:#013D01;}
	.st73{fill:#E9C608;}
	.st74{fill:#043B00;}
	.st75{fill:#D8A43E;}
	.st76{clip-path:url(#SVGID_00000147218739343055425520000018216612256316002461_);}
	.st77{fill:#F49630;}
	.st78{clip-path:url(#SVGID_00000041999413943712844320000011001090293733988246_);}
	.st79{clip-path:url(#SVGID_00000084515598860917030610000016749007096834061752_);}
	.st80{clip-path:url(#SVGID_00000039854487938463422270000009651770593317032877_);}
	.st81{clip-path:url(#SVGID_00000021819618605432938020000013601343872377200831_);}
	.st82{fill-rule:evenodd;clip-rule:evenodd;fill:#FF6600;}
	.st83{fill-rule:evenodd;clip-rule:evenodd;fill:#05174F;}
	.st84{fill:#05174F;}
	.st85{opacity:0.42;fill:url(#SVGID_00000165228703769244769000000014227224798391028148_);enable-background:new    ;}
	.st86{opacity:0.42;fill:url(#SVGID_00000136390628827072270790000000662754880545621684_);enable-background:new    ;}
	.st87{fill:url(#SVGID_00000065060383850840900360000007853232161265512625_);}
	.st88{fill:url(#SVGID_00000080919299551487531040000008327544658454702734_);}
	.st89{opacity:0.64;fill:url(#SVGID_00000132069220605909789300000004374307069222662332_);enable-background:new    ;}
	.st90{opacity:0.75;fill:url(#SVGID_00000168084697626302651280000008745783783245801129_);enable-background:new    ;}
	.st91{fill:url(#SVGID_00000062913857039231616140000004743022324149330816_);}
	.st92{fill:url(#SVGID_00000112620069629956293330000003514884750526639033_);}
	.st93{opacity:0.76;fill:url(#SVGID_00000026883645753377274490000000842209774739519903_);enable-background:new    ;}
	.st94{opacity:0.75;fill:url(#SVGID_00000170246347399331260960000005254871995060112274_);enable-background:new    ;}
	.st95{fill:url(#SVGID_00000032616244476495879790000016177879063452114579_);}
	.st96{opacity:0.42;fill:url(#SVGID_00000029030221587758532150000015324737046473490332_);enable-background:new    ;}
	.st97{opacity:0.42;fill:url(#SVGID_00000012455415928451286040000003162922496261937297_);enable-background:new    ;}
	.st98{clip-path:url(#SVGID_00000126310356664105097590000016229881219568403108_);}
	.st99{fill:#1ED7FE;}
	.st100{clip-path:url(#SVGID_00000100380500278661706420000007338756585373602731_);}
	.st101{clip-path:url(#SVGID_00000154392411083815310550000013100687950945702841_);}
	.st102{fill:#000056;}
	.st103{clip-path:url(#SVGID_00000025439682212673668060000013648549421634283915_);}
	.st104{enable-background:new    ;}
	.st105{fill:#053272;}
	.st106{fill:none;stroke:#053272;stroke-width:4;stroke-miterlimit:10;}
	.st107{fill:url(#SVGID_00000053534488315874050150000011376613738152546452_);}
	.st108{fill:url(#SVGID_00000070109998671271636160000009917590500044300991_);}
	.st109{fill:url(#SVGID_00000021079061143921491070000017895054671714948243_);}
	.st110{fill:url(#SVGID_00000170280881026451025940000004310742292380935844_);}
	.st111{fill:url(#SVGID_00000018234069888490549090000000086707962153350537_);}
	.st112{fill:url(#SVGID_00000166674846727028538520000007587837224421495425_);}
	.st113{fill:url(#SVGID_00000072986374201493211720000015850946774938682284_);}
	.st114{fill:url(#SVGID_00000178173884542473576600000009733739870827045284_);}
	.st115{fill:url(#SVGID_00000155834474634701668960000010325459986054418082_);}
	.st116{fill:url(#SVGID_00000181071419072520651200000013386865078581477534_);}
	.st117{fill:url(#SVGID_00000147222171073268520130000017821640799715735968_);}
	.st118{fill:url(#SVGID_00000023270163501069567900000018265849480264189064_);}
	.st119{fill:url(#SVGID_00000103961654782382802970000008936852961350341303_);}
	.st120{fill:url(#SVGID_00000175313328704555523170000001403325116014926517_);}
	.st121{fill:url(#SVGID_00000181798793487334586620000004236714630712258741_);}
	.st122{fill:url(#SVGID_00000026849812067552096160000012849049907608724891_);}
	.st123{fill:url(#SVGID_00000063617616804064504570000013413133717131448965_);}
	.st124{fill:url(#SVGID_00000093864479623103027470000001131344949928142771_);}
	.st125{fill:url(#SVGID_00000046312040697651273790000000316131164259915954_);}
	.st126{fill:url(#SVGID_00000132778452961623142550000015533232059087104663_);}
	.st127{fill:url(#SVGID_00000147202219524372376230000001860511854714762902_);}
	.st128{fill:url(#SVGID_00000026145406864133031750000000436551273158111147_);}
	.st129{fill:url(#SVGID_00000145023249031283750620000015772028486891906736_);}
	.st130{fill:url(#SVGID_00000065040761441211188900000003688216154126954923_);}
	.st131{fill:url(#SVGID_00000072964441869543995000000010190215982668562858_);}
	.st132{fill:url(#SVGID_00000110452330092079173500000007249927047709731516_);}
	.st133{fill:url(#SVGID_00000065066162505394592450000010837688094885727935_);}
	.st134{fill:url(#SVGID_00000033360379545035836070000018112182848511587458_);}
	.st135{fill:url(#SVGID_00000119827943374747714810000006263376197137145252_);}
	.st136{fill:none;stroke:#FEF73D;stroke-linecap:round;stroke-miterlimit:10;}
	.st137{fill:#FF189C;}
	.st138{fill:none;stroke:#FF189C;stroke-miterlimit:10;}
	.st139{fill:none;stroke:#00EFF1;stroke-linecap:round;stroke-miterlimit:10;}
	.st140{fill:#00EFF1;}
	.st141{fill:#FFA022;}
	.st142{fill:#0C103A;}
	.st143{fill-rule:evenodd;clip-rule:evenodd;fill:#5D9541;}
	.st144{fill-rule:evenodd;clip-rule:evenodd;fill:#F06021;}
	.st145{fill-rule:evenodd;clip-rule:evenodd;fill:#69BC60;}
	.st146{fill-rule:evenodd;clip-rule:evenodd;fill:#F6951C;}
	.st147{fill:#F6951C;}
	.st148{fill:url(#SVGID_00000145752356829795857220000007707829212225475221_);}
	.st149{fill:url(#SVGID_00000075872774547311128010000011949103682585597361_);}
	.st150{fill:url(#SVGID_00000013167762520529639090000017991768000736659863_);}
	.st151{fill:url(#SVGID_00000103970247490227063350000003591330587811455369_);}
	.st152{fill:url(#SVGID_00000096031400169973679900000006613920995251659401_);}
	.st153{fill:url(#SVGID_00000121983398328168284520000000184469435715300997_);}
	.st154{fill:url(#SVGID_00000114781275945494792050000009295026749875753896_);}
	.st155{fill:url(#SVGID_00000009551029156176393960000005244985725008737173_);}
	.st156{fill:url(#SVGID_00000031192873569604627230000006848873219291686333_);}
	.st157{fill:url(#SVGID_00000089550678046092191340000016946844680693091751_);}
	.st158{fill:url(#SVGID_00000032606804851504422200000008807515922476257719_);}
	.st159{fill:url(#SVGID_00000011745449194654747820000010348375385253082769_);}
	.st160{fill:url(#SVGID_00000150068235982644374010000017752953728942284199_);}
	.st161{fill:url(#SVGID_00000116914071699077600480000006814491037972401563_);}
	.st162{fill:url(#SVGID_00000115514393611786884420000018313655705304351124_);}
	.st163{fill:url(#SVGID_00000075878044346383683370000000312686166239863194_);}
	.st164{fill:url(#SVGID_00000155147756540076035490000013712235731856216213_);}
	.st165{fill:url(#SVGID_00000040575528295173180700000012027568690315683771_);}
	.st166{fill:url(#SVGID_00000063620211001301081450000005976208708203648951_);}
	.st167{fill:url(#SVGID_00000178896962749985683330000002370981904225141142_);}
	.st168{fill:url(#SVGID_00000078753953346111538100000016840744924695240873_);}
	.st169{fill:url(#SVGID_00000088126993974739149630000006455399064900452506_);}
	.st170{fill-rule:evenodd;clip-rule:evenodd;fill:#512100;}
	.st171{fill-rule:evenodd;clip-rule:evenodd;fill:#006D62;}
	.st172{fill-rule:evenodd;clip-rule:evenodd;}
	.st173{fill-rule:evenodd;clip-rule:evenodd;fill:#00A1F5;}
	.st174{fill-rule:evenodd;clip-rule:evenodd;fill:#FACFAB;}
	.st175{fill-rule:evenodd;clip-rule:evenodd;fill:#F29673;}
	.st176{fill-rule:evenodd;clip-rule:evenodd;fill:#FFFFFF;}
	.st177{fill-rule:evenodd;clip-rule:evenodd;fill:#333333;}
	.st178{fill-rule:evenodd;clip-rule:evenodd;fill:#BD4D00;}
	.st179{fill-rule:evenodd;clip-rule:evenodd;fill:#B2B2B2;}
	.st180{fill-rule:evenodd;clip-rule:evenodd;fill:#F2CC29;}
	.st181{fill-rule:evenodd;clip-rule:evenodd;fill:#005C9C;}
	.st182{fill-rule:evenodd;clip-rule:evenodd;fill:#8AC900;}
	.st183{fill-rule:evenodd;clip-rule:evenodd;fill:#808080;}
	.st184{fill-rule:evenodd;clip-rule:evenodd;fill:#CFA605;}
	.st185{fill-rule:evenodd;clip-rule:evenodd;fill:#666666;}
	.st186{fill-rule:evenodd;clip-rule:evenodd;fill:#CCCCCC;}
	.st187{fill:#960000;}
	.st188{fill:#00A1F5;}
	.st189{fill:url(#SVGID_00000050620468541443251250000006283961422817941681_);}
	.st190{fill:url(#SVGID_00000018921723123128540000000010705936215410378398_);}
	.st191{opacity:0.51;fill:url(#SVGID_00000101061780564122933200000012882543885255362184_);}
	.st192{fill:url(#SVGID_00000172427887452419324690000008513500775662639770_);}
	.st193{fill:url(#SVGID_00000138568417971815161610000016795057145079195283_);}
	.st194{fill:url(#SVGID_00000182504953114776264130000001805358933506384039_);}
	.st195{opacity:0.35;fill:url(#SVGID_00000115514253388498501200000017412535389746849925_);}
	.st196{opacity:0.35;fill:url(#SVGID_00000044871219881241446230000016611630544928272784_);}
	.st197{fill:#F06021;}
	.st198{fill-rule:evenodd;clip-rule:evenodd;fill:url(#SVGID_00000010274661161316536540000015826220870033833648_);}
	.st199{fill-rule:evenodd;clip-rule:evenodd;fill:url(#SVGID_00000031930202939094747240000013448856914625045646_);}
	.st200{fill-rule:evenodd;clip-rule:evenodd;fill:url(#SVGID_00000129904387221182527230000006995241345030223280_);}
	.st201{fill-rule:evenodd;clip-rule:evenodd;fill:url(#SVGID_00000176743382425905770130000016565836405450302391_);}
	.st202{fill-rule:evenodd;clip-rule:evenodd;fill:url(#SVGID_00000111880601629107545690000006309799518329249957_);}
	.st203{fill-rule:evenodd;clip-rule:evenodd;fill:url(#SVGID_00000097458232586098042700000010789055326425472132_);}
	.st204{fill-rule:evenodd;clip-rule:evenodd;fill:url(#SVGID_00000049943524839325756920000007877933376255957127_);}
	.st205{fill-rule:evenodd;clip-rule:evenodd;fill:url(#SVGID_00000017512797317586858190000006221807613572143794_);}
	.st206{fill-rule:evenodd;clip-rule:evenodd;fill:url(#SVGID_00000176735692142476456450000003249733962971670434_);}
	.st207{fill-rule:evenodd;clip-rule:evenodd;fill:url(#SVGID_00000018209974918875793140000004394145928123033247_);}
	.st208{fill-rule:evenodd;clip-rule:evenodd;fill:url(#SVGID_00000032608890048147670720000011205522227500450946_);}
	.st209{fill-rule:evenodd;clip-rule:evenodd;fill:url(#SVGID_00000039114523187210390170000011945408697779101327_);}
	.st210{fill-rule:evenodd;clip-rule:evenodd;fill:url(#SVGID_00000137106163980982103660000001811449416976888960_);}
	.st211{opacity:0.5;fill-rule:evenodd;clip-rule:evenodd;fill:#5D0101;enable-background:new    ;}
	.st212{fill:#E11B22;}
	.st213{fill:#959595;}
	.st214{fill:#003359;}
	.st215{fill:#1779C1;}
	.st216{fill:#0EB17C;}
	.st217{fill:#2B2353;}
	.st218{fill:#BE264E;}
	.st219{fill:#EAA41C;}
	.st220{fill:#1F9EF3;}
	.st221{fill:#0267A3;}
	.st222{fill:#FFEC00;}
	.st223{fill:#00A0E0;}
	.st224{fill:#E3007E;}
	.st225{fill:none;stroke:#000000;stroke-width:2;stroke-miterlimit:10;}
	.st226{fill:#FF9E80;}
	.st227{fill:#414151;}
	.st228{fill:#2B295E;}
	.st229{fill:#CCCCCC;}
	.st230{fill:#FF8C5C;}
	.st231{fill:#DBA21C;}
	.st232{fill:#EDDBB2;}
	.st233{fill:#DEC58B;}
	.st234{fill:#997113;}
	.st235{fill:#B88817;}
	.st236{fill:#003400;stroke:#8EC13D;stroke-width:4;stroke-miterlimit:10;}
	.st237{fill:#8EC13D;}
	.st238{fill:url(#XMLID_00000106837429658333576310000017071838198203560068_);}
	.st239{fill:url(#SVGID_00000148653034042665789390000014958200118610007692_);}
	.st240{fill:url(#SVGID_00000115487781856473105870000007310079346758046094_);}
	.st241{fill:url(#SVGID_00000086671525105126197460000015095208062213141428_);}
	.st242{fill:url(#SVGID_00000159430269010896195750000007521074169601734044_);}
	.st243{fill:url(#SVGID_00000146471486147608891560000011851290186525925051_);}
	.st244{fill:url(#SVGID_00000179613610331098341020000010341612138393945259_);}
	.st245{fill:url(#SVGID_00000018201204350470275150000001223732863833431198_);}
	.st246{fill:url(#SVGID_00000108989037440979919080000009843729207640837565_);}
	.st247{fill:url(#SVGID_00000133523137269661641850000008855835172287065746_);}
	.st248{fill:url(#SVGID_00000170961705623700897150000006956623432087626913_);}
	.st249{fill:url(#SVGID_00000044156588153388894380000013383071899666169766_);}
	.st250{fill:#1C75BC;}
	.st251{fill:#46920C;}
	.st252{fill:#FF9400;}
	.st253{fill:url(#SVGID_00000052792479915739628950000010119466585537906615_);}
	.st254{fill:url(#SVGID_00000026847474701317780880000013618784947151787958_);}
	.st255{fill:url(#SVGID_00000091704606947393901540000002186922368808415372_);}
	.st256{fill:url(#SVGID_00000106141845641735902370000007024246834236431748_);}
	.st257{fill:url(#SVGID_00000009558783347317250960000017777077586182774180_);}
	.st258{fill:url(#SVGID_00000026856772043470093780000009524475972199310240_);}
	.st259{fill:url(#SVGID_00000106838699903916809580000015129375674910688698_);}
	.st260{fill:url(#SVGID_00000161609995102112188750000017866641900367128758_);}
	.st261{fill:url(#SVGID_00000045577397379375441620000000715564389674448788_);}
	.st262{fill:url(#SVGID_00000107550612417331927410000017829539500384528789_);}
	.st263{fill:url(#SVGID_00000075849839617386179750000008162193549301060279_);}
	.st264{fill:url(#SVGID_00000038413994753104985880000012399852187526866820_);}
	.st265{fill:url(#SVGID_00000155855841861426483040000004608274313552573587_);}
	.st266{fill:url(#SVGID_00000103247297320076852460000001868468260262572947_);}
	.st267{fill:url(#SVGID_00000139253614671828574210000001152824730003717537_);}
	.st268{fill:url(#SVGID_00000042714729887401652240000009927525517311551886_);}
	.st269{fill:url(#SVGID_00000079448266583670115620000000011195485849812134_);}
	.st270{fill:url(#SVGID_00000042003688218925467340000001813468965994592138_);}
	.st271{fill:url(#SVGID_00000071549780749384185260000001603174449291789244_);}
	.st272{fill:#2F3F67;}
	.st273{fill:#C97F32;}
	.st274{fill:none;stroke:#C97F32;stroke-width:1.2891;stroke-miterlimit:10;}
	.st275{fill:url(#XMLID_00000067228372567436890210000014850918761105804699_);}
	.st276{fill:#00548B;}
	.st277{fill:#004368;}
	.st278{fill:#94070A;}
	.st279{fill:url(#XMLID_00000126306352888604596610000002221155370278156980_);}
	.st280{fill:url(#XMLID_00000013903413828481181430000013524617679380343993_);}
	.st281{fill:#B34A06;}
	.st282{fill:#A2B5C4;}
	.st283{fill:#192940;}
	.st284{fill:url(#SVGID_00000112612687082537617070000007564713435593456768_);}
	.st285{fill:url(#SVGID_00000052815379723772474930000017031908485236140954_);}
	.st286{fill:url(#SVGID_00000054952799569379950070000009530808110559143089_);}
	.st287{opacity:0.93;fill:url(#SVGID_00000176018156242931657750000002203590847780621220_);}
	.st288{opacity:0.93;fill:url(#SVGID_00000044147545541568765920000014768847530820894876_);}
	.st289{opacity:0.93;fill:url(#SVGID_00000150809332451348021690000010688886505023056555_);}
	.st290{opacity:0.93;fill:url(#SVGID_00000162346511769393552090000012515812519796858266_);}
	.st291{fill:url(#SVGID_00000057852429930412778360000009332217882029154453_);}
	.st292{stroke:#000000;stroke-width:0.75;stroke-miterlimit:10;}
</style>
<g id="BACKGROUND_00000055683240801871070140000009928751649401703595_">
	<rect x="-0.26" y="-0.86" class="st63" width="348" height="228"/>
</g>
<g>
	<g id="OBJECTS_00000136405270251567304640000001472540346375596951_">
		<g>
			<g>
				<g>
					<path class="st217" d="M74.48,191.36L74.48,191.36c3.78,3.78,9.91,3.78,13.69,0l0,0C84.39,187.58,78.26,187.58,74.48,191.36z"
						/>
					<g>
						<path class="st217" d="M83.17,179.73L83.17,179.73c0,5.34,4.33,9.68,9.68,9.68l0,0C92.85,184.06,88.52,179.73,83.17,179.73z"
							/>
						<path class="st217" d="M83.17,202.99L83.17,202.99c0-5.34,4.33-9.68,9.68-9.68l0,0C92.85,198.65,88.52,202.99,83.17,202.99z"
							/>
					</g>
				</g>
				<g>
					<path class="st217" d="M273.52,191.36L273.52,191.36c-3.78,3.78-9.91,3.78-13.69,0l0,0
						C263.61,187.58,269.74,187.58,273.52,191.36z"/>
					<g>
						<path class="st217" d="M264.83,179.73L264.83,179.73c0,5.34-4.33,9.68-9.68,9.68l0,0
							C255.15,184.06,259.48,179.73,264.83,179.73z"/>
						<path class="st217" d="M264.83,202.99L264.83,202.99c0-5.34-4.33-9.68-9.68-9.68l0,0
							C255.15,198.65,259.48,202.99,264.83,202.99z"/>
					</g>
				</g>
			</g>
		</g>
		<g>
			<g>
				<path class="st218" d="M168.01,102.77c1.32-0.32,2.22-1.53,2.22-2.89v-6.47c0-2.72-2.21-4.93-4.93-4.93h-6.9
					c-1.14,0-2.16-0.79-2.38-1.91c-0.66-3.32-3.02-6.13-6.33-7.14c-5.84-1.79-11.24,1.88-12.32,7.13c-0.23,1.13-1.23,1.93-2.38,1.93
					h-6.91c-2.72,0-4.93,2.21-4.93,4.93c0,0,0,4.22,0,6.91c0,1.16-0.82,2.15-1.95,2.38c-4.32,0.9-7.57,4.73-7.57,9.32
					c0,4.59,3.25,8.42,7.57,9.32c1.13,0.24,1.95,1.22,1.95,2.38c0,2.85,0,7.49,0,7.49c0,2.15,2.21,4.35,4.93,4.35h6.47
					c1.36,0,2.57-0.9,2.89-2.22c1-4.19,4.76-7.29,9.26-7.29c4.49,0,8.25,3.11,9.25,7.29c0.32,1.32,1.53,2.22,2.89,2.22h6.47
					c2.72,0,4.93-2.21,4.93-4.93v-6.47c0-1.35-0.9-2.57-2.22-2.89c-4.18-1-7.29-4.77-7.29-9.26S163.83,103.77,168.01,102.77z
					 M146.27,118.64c-5.19,0-9.39-4.21-9.39-9.39s4.21-9.39,9.39-9.39c5.19,0,9.39,4.21,9.39,9.39S151.46,118.64,146.27,118.64z"/>
				<g>
					<g>
						<g>
							<path class="st217" d="M149.64,105.86c-1.86-1.86-4.89-1.86-6.75,0c-1.86,1.86-1.86,4.89,0,6.75c1.86,1.86,4.89,1.86,6.75,0
								C151.51,110.75,151.51,107.73,149.64,105.86z"/>
						</g>
						<g>
							<path class="st217" d="M151.94,103.56c-0.47-0.47-3.39,1.69-6.53,4.83c-3.14,3.14-5.3,6.06-4.83,6.53
								c0.47,0.47,3.39-1.69,6.53-4.83C150.25,106.95,152.41,104.03,151.94,103.56z"/>
						</g>
					</g>
				</g>
			</g>
			<g>
				<path class="st219" d="M168.01,48.81c1.32-0.32,2.22-1.53,2.22-2.89v-6.47c0-2.72-2.21-4.93-4.93-4.93l-6.91,0
					c-1.14,0-2.15-0.79-2.38-1.91c-0.66-3.32-3.02-6.13-6.33-7.15c-5.84-1.79-11.24,1.88-12.32,7.13c-0.23,1.13-1.23,1.93-2.38,1.93
					h-6.91c-2.72,0-4.93,2.21-4.93,4.93c0,0,0,4.22,0,6.91c0,1.16-0.82,2.15-1.95,2.38c-4.32,0.9-7.57,4.73-7.57,9.32
					c0,4.59,3.25,8.42,7.57,9.32c1.13,0.24,1.95,1.22,1.95,2.38c0,2.69,0,6.91,0,6.91c0,2.72,2.21,4.93,4.93,4.93h6.47
					c1.36,0,2.57-0.9,2.89-2.22c1-4.19,4.76-7.29,9.26-7.29c4.49,0,8.25,3.11,9.25,7.29c0.32,1.32,1.53,2.22,2.89,2.22h6.47
					c2.72,0,4.93-2.21,4.93-4.93v-6.47c0-1.35-0.9-2.57-2.22-2.89c-4.18-1-7.29-4.77-7.29-9.26
					C160.72,53.58,163.83,49.81,168.01,48.81z M153.64,63.21l-4.65-1.11l5.05-5.47l1.47,4.54l0.88,2.69L153.64,63.21z"/>
				<g>
					<path class="st217" d="M136.29,46.78l1.47-1.59c1.04-1.13,2.81-1.2,3.94-0.16l11.26,10.4l-5.25,5.68l-11.26-10.4
						C135.31,49.67,135.24,47.91,136.29,46.78z"/>
					<path class="st217" d="M153.64,63.21c0.1-0.46,0.33-0.89,0.67-1.26c0.34-0.37,0.76-0.63,1.2-0.77l0.87,2.68L153.64,63.21z"/>
				</g>
			</g>
			<path class="st220" d="M221.95,102.77c1.32-0.32,2.22-1.53,2.22-2.89v-6.47c0-2.72-2.21-4.93-4.35-4.93l-7.48,0
				c-1.14,0-2.15-0.79-2.38-1.91c-0.66-3.32-3.02-6.13-6.33-7.15c-5.84-1.79-11.24,1.88-12.32,7.13c-0.23,1.13-1.23,1.93-2.38,1.93
				h-6.91c-2.72,0-4.93,2.21-4.93,4.93c0,0,0,4.34,0,7.03c0,1.09-0.77,2.04-1.84,2.25c-4.38,0.86-7.68,4.71-7.68,9.34
				c0,4.63,3.3,8.48,7.68,9.34c1.07,0.21,1.84,1.15,1.84,2.25c0,2.68,0,7.03,0,7.03c0,2.72,2.21,4.93,4.93,4.93h6.47
				c1.36,0,2.57-0.9,2.89-2.22c1-4.19,4.76-7.29,9.26-7.29c4.49,0,8.25,3.11,9.25,7.29c0.31,1.32,1.53,2.22,2.89,2.22h6.47
				c2.72,0,4.93-2.21,4.93-4.93v-6.47c0-1.35-0.9-2.57-2.22-2.89c-4.18-1-7.29-4.77-7.29-9.26
				C214.66,107.53,217.77,103.77,221.95,102.77z M211.17,113.14l-3.39,0l-9.36-0.02l-9.72-0.01c0.73-2.44,2.79-4.2,5.21-4.19
				c0.04,0,0.09,0,0.14,0c0.92-3.21,3.61-5.54,6.78-5.53c2.53,0,4.76,1.49,6.01,3.73c0.17,0.3,0.32,0.6,0.45,0.92
				c2.18,0.16,3.9,2.19,3.89,4.67C211.19,112.86,211.18,113,211.17,113.14z"/>
			<g>
				<path class="st217" d="M197.91,54.31c-0.12,0.12-0.24,0.23-0.37,0.33c0.04,0.68,0.21,1.53,0.75,2.18
					c0.36,0.42,0.85,0.7,1.45,0.85l0.1-2.18C199.08,55.28,198.41,54.87,197.91,54.31z"/>
				<path class="st217" d="M221.95,48.81c1.32-0.32,2.22-1.53,2.22-2.89v-6.47c0-2.72-2.21-4.93-4.93-4.93l-6.91,0
					c-1.14,0-2.15-0.79-2.38-1.91c-0.66-3.32-3.02-6.13-6.33-7.15c-5.84-1.79-11.24,1.88-12.32,7.13c-0.23,1.13-1.23,1.93-2.38,1.93
					h-6.91c-2.72,0-4.35,2.21-4.93,4.35l0,7.48c0,1.16-0.82,2.15-1.95,2.38c-4.32,0.9-7.57,4.73-7.57,9.32s3.25,8.42,7.57,9.32
					c1.13,0.24,1.95,1.23,1.95,2.38l0,6.91c0.57,2.72,2.21,4.93,4.93,4.93h6.47c1.36,0,2.57-0.9,2.89-2.22
					c1-4.19,4.76-7.29,9.26-7.29c4.49,0,8.25,3.11,9.25,7.29c0.31,1.32,1.53,2.22,2.89,2.22h6.47c2.72,0,4.93-2.21,4.93-4.93v-6.47
					c0-1.35-0.9-2.57-2.22-2.89c-4.18-1-7.29-4.77-7.29-9.26C214.66,53.58,217.77,49.82,221.95,48.81z M206.53,55.47
					c-1.09,0-2.08-0.44-2.79-1.16c-0.54,0.59-1.25,1.02-2.06,1.2l0.27,8.58h-2.5l0.26-5.83c-0.77-0.17-1.4-0.53-1.86-1.08
					c-0.55-0.66-0.78-1.47-0.86-2.18c-0.56,0.3-1.19,0.47-1.87,0.47c-2.17,0-3.93-1.76-3.93-3.93c0-2.14,1.7-3.87,3.83-3.93
					c-0.06-0.24-0.09-0.49-0.09-0.75c0-1.84,1.5-3.34,3.34-3.34c1.03,0,1.95,0.47,2.56,1.2c0.61-0.73,1.53-1.2,2.56-1.2
					c1.84,0,3.34,1.5,3.34,3.34c0,0.26-0.03,0.51-0.09,0.75c2.12,0.06,3.83,1.79,3.83,3.93C210.47,53.71,208.7,55.47,206.53,55.47z"
					/>
			</g>
		</g>
	</g>
	<g id="TEXTS_00000173879576032063494830000017334582335786097842_">
		<g>
			<g class="st104">
				<path class="st218" d="M105.04,165.71l2.52,0.64c-0.53,2.07-1.48,3.65-2.85,4.74c-1.37,1.09-3.05,1.63-5.04,1.63
					c-2.05,0-3.73-0.42-5.01-1.25c-1.29-0.84-2.27-2.05-2.94-3.63c-0.67-1.59-1.01-3.29-1.01-5.11c0-1.99,0.38-3.72,1.14-5.2
					c0.76-1.48,1.84-2.6,3.24-3.37c1.4-0.77,2.94-1.15,4.62-1.15c1.91,0,3.51,0.49,4.81,1.46c1.3,0.97,2.21,2.34,2.72,4.1
					l-2.48,0.58c-0.44-1.39-1.08-2.4-1.92-3.03c-0.84-0.63-1.9-0.95-3.17-0.95c-1.46,0-2.69,0.35-3.67,1.05
					c-0.98,0.7-1.68,1.64-2.07,2.83c-0.4,1.18-0.6,2.4-0.6,3.66c0,1.62,0.24,3.04,0.71,4.25c0.47,1.21,1.21,2.11,2.2,2.71
					c1,0.6,2.08,0.9,3.24,0.9c1.41,0,2.61-0.41,3.59-1.22C104.03,168.52,104.69,167.31,105.04,165.71z"/>
				<path class="st218" d="M112.45,172.39v-19.06h2.52v7.83h9.91v-7.83h2.52v19.06h-2.52v-8.99h-9.91v8.99H112.45z"/>
				<path class="st218" d="M133.74,172.39v-19.06h2.52v19.06H133.74z"/>
				<path class="st218" d="M142.31,172.39v-19.06h2.52v16.81h9.39v2.25H142.31z"/>
				<path class="st218" d="M158.93,172.39v-19.06h6.57c1.48,0,2.61,0.09,3.39,0.27c1.09,0.25,2.02,0.71,2.8,1.37
					c1.01,0.85,1.76,1.94,2.26,3.26c0.5,1.32,0.75,2.83,0.75,4.53c0,1.45-0.17,2.73-0.51,3.85c-0.34,1.12-0.77,2.04-1.3,2.78
					c-0.53,0.73-1.11,1.31-1.74,1.73c-0.63,0.42-1.39,0.74-2.28,0.96s-1.91,0.33-3.06,0.33H158.93z M161.45,170.14h4.07
					c1.26,0,2.24-0.12,2.96-0.35c0.72-0.23,1.29-0.56,1.71-0.99c0.6-0.6,1.06-1.4,1.4-2.41c0.33-1.01,0.5-2.23,0.5-3.67
					c0-1.99-0.33-3.53-0.98-4.6c-0.65-1.07-1.45-1.79-2.39-2.15c-0.68-0.26-1.76-0.39-3.26-0.39h-4.01V170.14z"/>
				<path class="st218" d="M193.47,165.71l2.52,0.64c-0.53,2.07-1.48,3.65-2.85,4.74c-1.37,1.09-3.05,1.63-5.04,1.63
					c-2.05,0-3.73-0.42-5.01-1.25c-1.29-0.84-2.27-2.05-2.94-3.63c-0.67-1.59-1.01-3.29-1.01-5.11c0-1.99,0.38-3.72,1.14-5.2
					c0.76-1.48,1.84-2.6,3.24-3.37c1.4-0.77,2.94-1.15,4.62-1.15c1.91,0,3.51,0.49,4.81,1.46c1.3,0.97,2.21,2.34,2.72,4.1
					l-2.48,0.58c-0.44-1.39-1.08-2.4-1.92-3.03c-0.84-0.63-1.9-0.95-3.17-0.95c-1.46,0-2.69,0.35-3.67,1.05
					c-0.98,0.7-1.68,1.64-2.07,2.83c-0.4,1.18-0.6,2.4-0.6,3.66c0,1.62,0.24,3.04,0.71,4.25c0.47,1.21,1.21,2.11,2.2,2.71
					c1,0.6,2.08,0.9,3.24,0.9c1.41,0,2.61-0.41,3.59-1.22C192.46,168.52,193.12,167.31,193.47,165.71z"/>
				<path class="st218" d="M198.71,172.39l7.32-19.06h2.72l7.8,19.06h-2.87l-2.22-5.77h-7.97l-2.09,5.77H198.71z M204.21,164.56
					h6.46l-1.99-5.28c-0.61-1.6-1.06-2.92-1.35-3.95c-0.24,1.22-0.59,2.44-1.03,3.64L204.21,164.56z"/>
				<path class="st218" d="M220.31,172.39v-19.06h8.45c1.7,0,2.99,0.17,3.88,0.51c0.88,0.34,1.59,0.95,2.12,1.81
					c0.53,0.87,0.79,1.83,0.79,2.87c0,1.35-0.44,2.49-1.31,3.42c-0.88,0.93-2.23,1.52-4.06,1.77c0.67,0.32,1.17,0.64,1.52,0.95
					c0.74,0.68,1.43,1.52,2.09,2.54l3.32,5.19h-3.17l-2.52-3.97c-0.74-1.14-1.34-2.02-1.82-2.63c-0.48-0.61-0.9-1.03-1.28-1.27
					c-0.38-0.24-0.76-0.41-1.15-0.51c-0.29-0.06-0.75-0.09-1.4-0.09h-2.93v8.47H220.31z M222.83,161.74h5.42
					c1.15,0,2.05-0.12,2.71-0.36c0.65-0.24,1.14-0.62,1.48-1.14c0.34-0.52,0.51-1.09,0.51-1.71c0-0.9-0.33-1.64-0.98-2.22
					c-0.66-0.58-1.69-0.87-3.1-0.87h-6.03V161.74z"/>
				<path class="st218" d="M241.26,172.39v-19.06h13.78v2.25h-11.26v5.84h10.55v2.24h-10.55v6.49h11.7v2.25H241.26z"/>
			</g>
		</g>
		<g class="st104">
			<path class="st220" d="M99.27,195.66v-9.02h6.09v1.06h-4.89v2.79h4.23v1.07h-4.23v4.1H99.27z"/>
			<path class="st220" d="M109.78,192.39c0-1.21,0.34-2.11,1.01-2.69c0.56-0.48,1.25-0.73,2.06-0.73c0.9,0,1.63,0.29,2.2,0.88
				s0.86,1.4,0.86,2.44c0,0.84-0.13,1.5-0.38,1.98c-0.25,0.48-0.62,0.86-1.1,1.12c-0.48,0.27-1.01,0.4-1.58,0.4
				c-0.92,0-1.65-0.29-2.22-0.88C110.06,194.34,109.78,193.49,109.78,192.39z M110.92,192.39c0,0.84,0.18,1.46,0.55,1.88
				c0.37,0.42,0.82,0.62,1.38,0.62c0.55,0,1.01-0.21,1.37-0.63c0.37-0.42,0.55-1.06,0.55-1.91c0-0.81-0.18-1.42-0.55-1.84
				c-0.37-0.42-0.82-0.62-1.37-0.62c-0.55,0-1.01,0.21-1.38,0.62C111.1,190.93,110.92,191.55,110.92,192.39z"/>
			<path class="st220" d="M120.19,193.71l1.1-0.17c0.06,0.44,0.23,0.78,0.51,1.01c0.28,0.23,0.67,0.35,1.18,0.35
				c0.51,0,0.89-0.1,1.13-0.31c0.25-0.21,0.37-0.45,0.37-0.73c0-0.25-0.11-0.45-0.33-0.59c-0.15-0.1-0.53-0.22-1.13-0.38
				c-0.81-0.21-1.38-0.38-1.69-0.53c-0.31-0.15-0.55-0.36-0.71-0.62s-0.24-0.56-0.24-0.88c0-0.29,0.07-0.56,0.2-0.81
				c0.13-0.25,0.31-0.45,0.54-0.62c0.17-0.13,0.41-0.24,0.71-0.32c0.3-0.09,0.62-0.13,0.96-0.13c0.51,0,0.96,0.07,1.35,0.22
				c0.39,0.15,0.67,0.35,0.86,0.6s0.31,0.59,0.38,1.01l-1.08,0.15c-0.05-0.34-0.19-0.6-0.43-0.79c-0.24-0.19-0.57-0.28-1-0.28
				c-0.51,0-0.87,0.08-1.09,0.25c-0.22,0.17-0.33,0.37-0.33,0.59c0,0.14,0.04,0.27,0.14,0.39c0.09,0.12,0.23,0.22,0.42,0.29
				c0.11,0.04,0.44,0.14,0.98,0.28c0.78,0.21,1.33,0.38,1.64,0.51c0.31,0.13,0.55,0.33,0.73,0.58c0.18,0.25,0.26,0.57,0.26,0.95
				c0,0.37-0.11,0.72-0.32,1.04s-0.53,0.58-0.93,0.76s-0.87,0.27-1.38,0.27c-0.85,0-1.5-0.18-1.94-0.53
				C120.6,194.92,120.31,194.4,120.19,193.71z"/>
			<path class="st220" d="M132.78,194.67l0.16,0.98c-0.31,0.07-0.59,0.1-0.84,0.1c-0.4,0-0.71-0.06-0.94-0.19s-0.38-0.29-0.47-0.5
				s-0.14-0.64-0.14-1.31v-3.76h-0.81v-0.86h0.81v-1.62l1.1-0.66v2.28h1.11v0.86h-1.11v3.82c0,0.32,0.02,0.52,0.06,0.61
				c0.04,0.09,0.1,0.16,0.19,0.21c0.09,0.05,0.21,0.08,0.38,0.08C132.42,194.71,132.58,194.7,132.78,194.67z"/>
			<path class="st220" d="M141.77,193.55l1.15,0.14c-0.18,0.67-0.52,1.19-1,1.56s-1.11,0.55-1.87,0.55c-0.96,0-1.71-0.29-2.27-0.88
				s-0.84-1.42-0.84-2.48c0-1.1,0.28-1.95,0.85-2.56c0.57-0.61,1.3-0.91,2.2-0.91c0.87,0,1.59,0.3,2.14,0.89
				c0.55,0.6,0.83,1.43,0.83,2.51c0,0.07,0,0.16-0.01,0.29h-4.87c0.04,0.72,0.24,1.27,0.61,1.65c0.37,0.38,0.82,0.57,1.37,0.57
				c0.41,0,0.75-0.11,1.04-0.32C141.37,194.36,141.6,194.02,141.77,193.55z M138.13,191.76h3.65c-0.05-0.55-0.19-0.96-0.42-1.24
				c-0.35-0.43-0.81-0.64-1.37-0.64c-0.51,0-0.94,0.17-1.28,0.51C138.36,190.74,138.17,191.19,138.13,191.76z"/>
			<path class="st220" d="M147.72,195.66v-6.54h1v0.99c0.25-0.46,0.49-0.77,0.71-0.92c0.22-0.15,0.45-0.22,0.71-0.22
				c0.37,0,0.75,0.12,1.14,0.36l-0.38,1.03c-0.27-0.16-0.54-0.24-0.81-0.24c-0.24,0-0.46,0.07-0.65,0.22
				c-0.19,0.15-0.33,0.35-0.41,0.61c-0.12,0.39-0.18,0.83-0.18,1.29v3.42H147.72z"/>
			<path class="st220" d="M155.36,187.91v-1.27h1.11v1.27H155.36z M155.36,195.66v-6.54h1.11v6.54H155.36z"/>
			<path class="st220" d="M161.59,195.66v-6.54h1v0.93c0.48-0.72,1.17-1.08,2.08-1.08c0.39,0,0.76,0.07,1.09,0.21
				c0.33,0.14,0.58,0.33,0.74,0.56c0.16,0.23,0.28,0.5,0.34,0.82c0.04,0.21,0.06,0.56,0.06,1.08v4.02h-1.11v-3.98
				c0-0.45-0.04-0.79-0.13-1.01c-0.09-0.22-0.24-0.4-0.46-0.54c-0.22-0.13-0.48-0.2-0.77-0.2c-0.47,0-0.88,0.15-1.22,0.45
				s-0.51,0.87-0.51,1.71v3.57H161.59z"/>
			<path class="st220" d="M171.82,196.2l1.08,0.16c0.04,0.33,0.17,0.58,0.38,0.73c0.27,0.21,0.65,0.31,1.13,0.31
				c0.51,0,0.91-0.1,1.19-0.31c0.28-0.21,0.47-0.49,0.57-0.86c0.06-0.23,0.08-0.7,0.08-1.42c-0.48,0.57-1.09,0.86-1.81,0.86
				c-0.9,0-1.59-0.32-2.09-0.97c-0.49-0.65-0.74-1.43-0.74-2.33c0-0.62,0.11-1.2,0.34-1.73s0.55-0.93,0.98-1.22
				c0.43-0.29,0.93-0.43,1.51-0.43c0.77,0,1.41,0.31,1.91,0.94v-0.79h1.02v5.65c0,1.02-0.1,1.74-0.31,2.16
				c-0.21,0.42-0.54,0.76-0.98,1.01s-1,0.37-1.66,0.37c-0.78,0-1.41-0.17-1.89-0.53C172.04,197.43,171.81,196.9,171.82,196.2z
				 M172.74,192.27c0,0.86,0.17,1.48,0.51,1.88c0.34,0.39,0.77,0.59,1.28,0.59c0.51,0,0.94-0.2,1.28-0.59s0.52-1.01,0.52-1.84
				c0-0.8-0.18-1.4-0.53-1.81s-0.78-0.61-1.28-0.61c-0.49,0-0.91,0.2-1.26,0.6S172.74,191.48,172.74,192.27z"/>
			<path class="st220" d="M193.76,192.12v-1.06l3.82-0.01v3.35c-0.59,0.47-1.19,0.82-1.82,1.06c-0.62,0.24-1.26,0.35-1.92,0.35
				c-0.89,0-1.69-0.19-2.42-0.57c-0.72-0.38-1.27-0.93-1.64-1.65c-0.37-0.72-0.55-1.52-0.55-2.41c0-0.88,0.18-1.7,0.55-2.46
				c0.37-0.76,0.9-1.33,1.58-1.7s1.48-0.55,2.38-0.55c0.65,0,1.24,0.11,1.77,0.32c0.53,0.21,0.94,0.51,1.24,0.88
				c0.3,0.38,0.53,0.87,0.68,1.48l-1.08,0.29c-0.13-0.46-0.3-0.82-0.5-1.08c-0.2-0.26-0.49-0.47-0.86-0.63
				c-0.37-0.16-0.79-0.24-1.24-0.24c-0.55,0-1.02,0.08-1.42,0.25c-0.4,0.17-0.72,0.38-0.96,0.66c-0.24,0.27-0.43,0.57-0.57,0.89
				c-0.23,0.56-0.34,1.16-0.34,1.82c0,0.8,0.14,1.48,0.42,2.02s0.68,0.94,1.21,1.21s1.09,0.39,1.69,0.39c0.52,0,1.02-0.1,1.51-0.3
				c0.49-0.2,0.87-0.41,1.12-0.64v-1.68H193.76z"/>
			<path class="st220" d="M202.62,195.66v-6.54h1v0.99c0.25-0.46,0.49-0.77,0.71-0.92c0.21-0.15,0.45-0.22,0.71-0.22
				c0.37,0,0.75,0.12,1.14,0.36l-0.38,1.03c-0.27-0.16-0.54-0.24-0.81-0.24c-0.24,0-0.46,0.07-0.65,0.22
				c-0.19,0.15-0.33,0.35-0.41,0.61c-0.12,0.39-0.18,0.83-0.18,1.29v3.42H202.62z"/>
			<path class="st220" d="M209.84,192.39c0-1.21,0.34-2.11,1.01-2.69c0.56-0.48,1.25-0.73,2.06-0.73c0.9,0,1.63,0.29,2.2,0.88
				s0.86,1.4,0.86,2.44c0,0.84-0.13,1.5-0.38,1.98c-0.25,0.48-0.62,0.86-1.1,1.12c-0.48,0.27-1.01,0.4-1.58,0.4
				c-0.92,0-1.65-0.29-2.22-0.88S209.84,193.49,209.84,192.39z M210.98,192.39c0,0.84,0.18,1.46,0.55,1.88
				c0.37,0.42,0.83,0.62,1.38,0.62c0.55,0,1.01-0.21,1.37-0.63c0.37-0.42,0.55-1.06,0.55-1.91c0-0.81-0.18-1.42-0.55-1.84
				c-0.37-0.42-0.82-0.62-1.37-0.62c-0.55,0-1.01,0.21-1.38,0.62C211.16,190.93,210.98,191.55,210.98,192.39z"/>
			<path class="st220" d="M221.9,195.66l-2-6.54h1.14l1.04,3.77l0.39,1.4c0.02-0.07,0.13-0.52,0.34-1.35l1.04-3.83h1.14l0.98,3.79
				l0.33,1.25l0.38-1.26l1.12-3.78h1.08l-2.04,6.54h-1.15l-1.04-3.91l-0.25-1.11l-1.32,5.03H221.9z"/>
			<path class="st220" d="M235.64,194.67l0.16,0.98c-0.31,0.07-0.59,0.1-0.84,0.1c-0.4,0-0.71-0.06-0.94-0.19
				c-0.22-0.13-0.38-0.29-0.47-0.5c-0.09-0.21-0.13-0.64-0.13-1.31v-3.76h-0.81v-0.86h0.81v-1.62l1.1-0.66v2.28h1.11v0.86h-1.11
				v3.82c0,0.32,0.02,0.52,0.06,0.61s0.1,0.16,0.19,0.21c0.09,0.05,0.21,0.08,0.38,0.08C235.28,194.71,235.44,194.7,235.64,194.67z"
				/>
			<path class="st220" d="M240.16,195.66v-9.02h1.11v3.24c0.52-0.6,1.17-0.9,1.96-0.9c0.48,0,0.91,0.09,1.26,0.29
				c0.36,0.19,0.61,0.45,0.77,0.79c0.15,0.34,0.23,0.83,0.23,1.46v4.14h-1.11v-4.14c0-0.55-0.12-0.96-0.36-1.21
				c-0.24-0.25-0.58-0.38-1.02-0.38c-0.33,0-0.64,0.09-0.93,0.26s-0.5,0.4-0.62,0.69s-0.18,0.69-0.18,1.21v3.58H240.16z"/>
		</g>
	</g>
</g>
</svg>
