<?xml version="1.0" encoding="utf-8"?>
<!-- Generator: Adobe Illustrator 27.8.1, SVG Export Plug-In . SVG Version: 6.00 Build 0)  -->
<svg version="1.1" id="Layer_1" xmlns="http://www.w3.org/2000/svg" xmlns:xlink="http://www.w3.org/1999/xlink" x="0px" y="0px"
	 viewBox="0 0 348 228" style="enable-background:new 0 0 348 228;" xml:space="preserve">
<style type="text/css">
	.st0{fill:#D6EADE;}
	.st1{fill:#03487C;}
	.st2{fill:#1B1B4C;}
	.st3{fill-rule:evenodd;clip-rule:evenodd;fill:#204F7A;}
	.st4{fill-rule:evenodd;clip-rule:evenodd;fill:#50A4FF;}
	.st5{fill:#002649;}
	.st6{fill:#E6E7E8;stroke:#CFCFCF;stroke-width:0.1061;}
	.st7{fill:#333333;}
	.st8{fill:#0F5998;}
	.st9{fill:#277FC1;}
	.st10{fill-rule:evenodd;clip-rule:evenodd;fill:#277FC1;}
	.st11{fill-rule:evenodd;clip-rule:evenodd;fill:#083D6D;}
	.st12{fill:#DDB462;}
	
		.st13{clip-path:url(#SVGID_00000052825344820857686630000003309293109719994299_);fill:url(#SVGID_00000181064214823918146940000007042482085268766387_);}
	.st14{fill:#FFFFFF;}
	.st15{fill:url(#SVGID_00000122681710073080452010000006017047914128838835_);}
	.st16{fill:#224685;}
	.st17{fill:none;}
	.st18{fill:#FFC73B;}
	.st19{fill:#11233F;}
	.st20{fill:#5267FF;}
	.st21{fill-rule:evenodd;clip-rule:evenodd;fill:#72342E;}
	.st22{fill:#72342E;}
	.st23{fill:#FFF2E2;}
	.st24{fill:#FFF2E2;stroke:#72342E;stroke-width:0.75;stroke-miterlimit:10;}
	.st25{fill:#FFCC99;}
	.st26{fill:#469CB2;}
	.st27{fill:url(#XMLID_00000000188259016906905220000003590706891127926682_);}
	.st28{fill:url(#XMLID_00000148641780845734097160000016978830074652450432_);}
	.st29{fill:url(#XMLID_00000096767772995558951470000008497097682385548946_);}
	.st30{fill:url(#XMLID_00000105407339551507435410000002659150480090948022_);}
	.st31{fill:url(#XMLID_00000146475673312442421580000010167034293788806843_);}
	.st32{fill:url(#XMLID_00000119080370469759297250000004093064468399361924_);}
	.st33{fill:url(#XMLID_00000111190185424369399120000008268116776658201229_);}
	.st34{fill:url(#XMLID_00000070113774485310132340000018158859418417774757_);}
	.st35{fill:url(#XMLID_00000165922527032841278700000009644348207848463271_);}
	.st36{fill:url(#XMLID_00000098188946613410941850000004723212640476245143_);}
	.st37{fill:url(#XMLID_00000108309798945309898080000010803500970661985921_);}
	.st38{fill:url(#XMLID_00000025414445476779889730000003567251073109245069_);}
	.st39{fill:url(#XMLID_00000137838228505223826090000018324973603517604228_);}
	.st40{fill:url(#XMLID_00000003079008576196348480000012313924664066299317_);}
	.st41{fill:url(#XMLID_00000179603672812547636450000002437667457998874278_);}
	.st42{fill:url(#SVGID_00000166651641145657943700000017405297141680208538_);}
	.st43{fill:url(#SVGID_00000137100734971235918660000009517376583401814457_);}
	.st44{fill:url(#SVGID_00000134939235718300676410000006516527321995911589_);}
	.st45{fill:url(#SVGID_00000001660656022213851840000009965684240367532933_);}
	.st46{fill:url(#SVGID_00000071535516054139180420000014709687454836066454_);}
	.st47{fill:url(#SVGID_00000167374955924564054220000018286072115097972901_);}
	.st48{fill:url(#SVGID_00000037690038396886356230000000748929175503319201_);}
	.st49{fill:url(#SVGID_00000052073575522665112420000014870642312587338122_);}
	.st50{fill:url(#SVGID_00000049210209068197510520000017278504538462199486_);}
	.st51{fill:url(#SVGID_00000021808306856175018200000008061544888107587235_);}
	.st52{fill:url(#SVGID_00000146477593647654859140000013054495845803669658_);}
	.st53{fill:url(#SVGID_00000154412585179344639600000016433852762245395085_);}
	.st54{fill:url(#SVGID_00000083069316868203508770000002348050092799588239_);}
	.st55{fill:url(#SVGID_00000144330539986027623080000009885306442345154238_);}
	.st56{fill:#30325E;}
	.st57{fill:#FF7859;}
	.st58{fill:#FFD550;}
	.st59{fill:#00C3AD;}
	.st60{fill:#FF4653;}
	.st61{fill:#D8CE19;}
	.st62{fill:#C1E5DE;}
	.st63{fill:#FFE4D2;}
	.st64{fill:#DFF4F0;}
	.st65{fill:#A2E0EB;}
	.st66{fill:#1B3493;}
	.st67{fill:none;stroke:#FFFFFF;stroke-width:2;stroke-linecap:round;stroke-linejoin:round;stroke-miterlimit:10;}
	.st68{fill:#F15A24;}
	.st69{fill:#F7931E;}
	.st70{fill:#58595B;}
	.st71{fill:#114E15;}
	.st72{fill:#013D01;}
	.st73{fill:#E9C608;}
	.st74{fill:#043B00;}
	.st75{fill:#D8A43E;}
	.st76{clip-path:url(#SVGID_00000111888794107684814160000007171579364907841178_);}
	.st77{fill:#F49630;}
	.st78{clip-path:url(#SVGID_00000060712612323394341720000013026555282905461134_);}
	.st79{clip-path:url(#SVGID_00000121262452689218873650000012560621844934090681_);}
	.st80{clip-path:url(#SVGID_00000023250121888695573890000006368978007031013776_);}
	.st81{clip-path:url(#SVGID_00000103974533740073850200000018135658728758704827_);}
	.st82{fill-rule:evenodd;clip-rule:evenodd;fill:#FF6600;}
	.st83{fill-rule:evenodd;clip-rule:evenodd;fill:#05174F;}
	.st84{fill:#05174F;}
	.st85{opacity:0.42;fill:url(#SVGID_00000121260451485779375220000008970126065098461363_);enable-background:new    ;}
	.st86{opacity:0.42;fill:url(#SVGID_00000031890954896414240020000005616537888866462646_);enable-background:new    ;}
	.st87{fill:url(#SVGID_00000116939912817858977610000012148291551532006288_);}
	.st88{fill:url(#SVGID_00000132790783887095551550000003092726224749147795_);}
	.st89{opacity:0.64;fill:url(#SVGID_00000072978760226985672850000003346001076950667958_);enable-background:new    ;}
	.st90{opacity:0.75;fill:url(#SVGID_00000098930293928372749930000015931307760108552598_);enable-background:new    ;}
	.st91{fill:url(#SVGID_00000121977096241942189120000015859711366624432008_);}
	.st92{fill:url(#SVGID_00000119815009437899049790000017855450310581044363_);}
	.st93{opacity:0.76;fill:url(#SVGID_00000072970260059486849110000007257108959263033239_);enable-background:new    ;}
	.st94{opacity:0.75;fill:url(#SVGID_00000132807319971061590120000008527241310854575005_);enable-background:new    ;}
	.st95{fill:url(#SVGID_00000038405196149259430200000007115689133838605727_);}
	.st96{opacity:0.42;fill:url(#SVGID_00000043426141300021785660000016009093914653546631_);enable-background:new    ;}
	.st97{opacity:0.42;fill:url(#SVGID_00000121244326807046328150000012077279975657415095_);enable-background:new    ;}
	.st98{clip-path:url(#SVGID_00000092443355719468925070000009940345330065867405_);}
	.st99{fill:#1ED7FE;}
	.st100{clip-path:url(#SVGID_00000062906563331678948810000003263138289660925883_);}
	.st101{clip-path:url(#SVGID_00000129202465859828405890000016947804221380811410_);}
	.st102{fill:#000056;}
	.st103{clip-path:url(#SVGID_00000165221940265654599240000015056786436167785890_);}
	.st104{enable-background:new    ;}
	.st105{fill:#053272;}
	.st106{fill:none;stroke:#053272;stroke-width:4;stroke-miterlimit:10;}
	.st107{fill:url(#SVGID_00000005256035330384536060000013855469865960340415_);}
	.st108{fill:url(#SVGID_00000056425345612719147750000016575490060197165440_);}
	.st109{fill:url(#SVGID_00000121251634433704520590000000469353691070973831_);}
	.st110{fill:url(#SVGID_00000000215335143130738010000007309650742915020696_);}
	.st111{fill:url(#SVGID_00000010304863086610765160000005221224682135973520_);}
	.st112{fill:url(#SVGID_00000121996027269767873870000002739867643249643960_);}
	.st113{fill:url(#SVGID_00000013191713963029626220000007804165326050436742_);}
	.st114{fill:url(#SVGID_00000138571809890374793010000010430444763432409762_);}
	.st115{fill:url(#SVGID_00000127036911713940551320000008945962676589642425_);}
	.st116{fill:url(#SVGID_00000075866618776075190590000000835053432552582553_);}
	.st117{fill:url(#SVGID_00000074405373293688645710000008536871309379142322_);}
	.st118{fill:url(#SVGID_00000006706136223873242930000015312789219441664419_);}
	.st119{fill:url(#SVGID_00000034059497705967243600000013001906402104551341_);}
	.st120{fill:url(#SVGID_00000174603315213842726240000001278851313690691485_);}
	.st121{fill:url(#SVGID_00000009562331543711999940000015601415681524930984_);}
	.st122{fill:url(#SVGID_00000135687713583685934100000010133831385762791602_);}
	.st123{fill:url(#SVGID_00000071553071716485207750000009357069748169718711_);}
	.st124{fill:url(#SVGID_00000078033847308204201300000016580773957873542044_);}
	.st125{fill:url(#SVGID_00000160164444572505487990000001640091715585260682_);}
	.st126{fill:url(#SVGID_00000026859401202098065020000015271551190387311252_);}
	.st127{fill:url(#SVGID_00000098909825139217777850000010479510298391658113_);}
	.st128{fill:url(#SVGID_00000149362648486269550500000004857986035664324274_);}
	.st129{fill:url(#SVGID_00000057109067959331550640000010355490975962706865_);}
	.st130{fill:url(#SVGID_00000183936592193965983810000004711920589967852722_);}
	.st131{fill:url(#SVGID_00000040543132041087150880000013512402918010584710_);}
	.st132{fill:url(#SVGID_00000031924172083425291170000014138636434662494650_);}
	.st133{fill:url(#SVGID_00000067236004749847333580000013833540167245348003_);}
	.st134{fill:url(#SVGID_00000052783464181298475650000016004475249855055253_);}
	.st135{fill:url(#SVGID_00000029044436245027897200000016958910739881849759_);}
	.st136{fill:none;stroke:#FEF73D;stroke-linecap:round;stroke-miterlimit:10;}
	.st137{fill:#FF189C;}
	.st138{fill:none;stroke:#FF189C;stroke-miterlimit:10;}
	.st139{fill:none;stroke:#00EFF1;stroke-linecap:round;stroke-miterlimit:10;}
	.st140{fill:#00EFF1;}
	.st141{fill:#FFA022;}
	.st142{fill:#0C103A;}
	.st143{fill-rule:evenodd;clip-rule:evenodd;fill:#5D9541;}
	.st144{fill-rule:evenodd;clip-rule:evenodd;fill:#F06021;}
	.st145{fill-rule:evenodd;clip-rule:evenodd;fill:#69BC60;}
	.st146{fill-rule:evenodd;clip-rule:evenodd;fill:#F6951C;}
	.st147{fill:#F6951C;}
	.st148{fill:url(#SVGID_00000126317831513965051220000013416270413138097832_);}
	.st149{fill:url(#SVGID_00000118366952394469680880000001447305195489853076_);}
	.st150{fill:url(#SVGID_00000147199273440814682860000004005784791481045386_);}
	.st151{fill:url(#SVGID_00000170978030612505901970000013142499222970449037_);}
	.st152{fill:url(#SVGID_00000127762641205056347120000011711160935484757906_);}
	.st153{fill:url(#SVGID_00000041255959524714177310000010498064303178977920_);}
	.st154{fill:url(#SVGID_00000157280565704511336970000001405111129377762960_);}
	.st155{fill:url(#SVGID_00000076579596272386289530000011898575449130966453_);}
	.st156{fill:url(#SVGID_00000041257455163047630880000014462809596827130519_);}
	.st157{fill:url(#SVGID_00000101790787416678184010000011467726738189792920_);}
	.st158{fill:url(#SVGID_00000000945678334069373680000002580582788421570690_);}
	.st159{fill:url(#SVGID_00000105427420956834221500000014659121761701759385_);}
	.st160{fill:url(#SVGID_00000163789969359535378790000010505113205358967724_);}
	.st161{fill:url(#SVGID_00000116222235611385738540000013904154083155051137_);}
	.st162{fill:url(#SVGID_00000072983889563105805820000007553807765172196485_);}
	.st163{fill:url(#SVGID_00000088091220908570231770000013861356672847764901_);}
	.st164{fill:url(#SVGID_00000117664675596277898250000014751190011299184055_);}
	.st165{fill:url(#SVGID_00000021811820173245400800000006196416153583196802_);}
	.st166{fill:url(#SVGID_00000134208424458512549880000013463441222668562616_);}
	.st167{fill:url(#SVGID_00000122710091195110425600000009873863380855030930_);}
	.st168{fill:url(#SVGID_00000138568442791385767440000016080344032201639835_);}
	.st169{fill:url(#SVGID_00000146497555781364750100000007084212405915741858_);}
	.st170{fill-rule:evenodd;clip-rule:evenodd;fill:#512100;}
	.st171{fill-rule:evenodd;clip-rule:evenodd;fill:#006D62;}
	.st172{fill-rule:evenodd;clip-rule:evenodd;}
	.st173{fill-rule:evenodd;clip-rule:evenodd;fill:#00A1F5;}
	.st174{fill-rule:evenodd;clip-rule:evenodd;fill:#FACFAB;}
	.st175{fill-rule:evenodd;clip-rule:evenodd;fill:#F29673;}
	.st176{fill-rule:evenodd;clip-rule:evenodd;fill:#FFFFFF;}
	.st177{fill-rule:evenodd;clip-rule:evenodd;fill:#333333;}
	.st178{fill-rule:evenodd;clip-rule:evenodd;fill:#BD4D00;}
	.st179{fill-rule:evenodd;clip-rule:evenodd;fill:#B2B2B2;}
	.st180{fill-rule:evenodd;clip-rule:evenodd;fill:#F2CC29;}
	.st181{fill-rule:evenodd;clip-rule:evenodd;fill:#005C9C;}
	.st182{fill-rule:evenodd;clip-rule:evenodd;fill:#8AC900;}
	.st183{fill-rule:evenodd;clip-rule:evenodd;fill:#808080;}
	.st184{fill-rule:evenodd;clip-rule:evenodd;fill:#CFA605;}
	.st185{fill-rule:evenodd;clip-rule:evenodd;fill:#666666;}
	.st186{fill-rule:evenodd;clip-rule:evenodd;fill:#CCCCCC;}
	.st187{fill:#960000;}
	.st188{fill:#00A1F5;}
	.st189{fill:url(#SVGID_00000132767745139973714670000010818599872476369326_);}
	.st190{fill:url(#SVGID_00000045594225562149885270000010041732935902212249_);}
	.st191{opacity:0.51;fill:url(#SVGID_00000132781414540950246530000000956664228045092765_);}
	.st192{fill:url(#SVGID_00000131359411130597733510000013021955459047086995_);}
	.st193{fill:url(#SVGID_00000181068068938680900630000010581843820496546725_);}
	.st194{fill:url(#SVGID_00000019671084317610238190000001405112272723840155_);}
	.st195{opacity:0.35;fill:url(#SVGID_00000054257576751734674500000016009343375115538098_);}
	.st196{opacity:0.35;fill:url(#SVGID_00000060008849196604331590000011091200032364527754_);}
	.st197{fill:#F06021;}
	.st198{fill-rule:evenodd;clip-rule:evenodd;fill:url(#SVGID_00000026150609934677380920000016449309477286119345_);}
	.st199{fill-rule:evenodd;clip-rule:evenodd;fill:url(#SVGID_00000085230122045908714010000014611953194337181108_);}
	.st200{fill-rule:evenodd;clip-rule:evenodd;fill:url(#SVGID_00000084501495495289139930000006868193892531384984_);}
	.st201{fill-rule:evenodd;clip-rule:evenodd;fill:url(#SVGID_00000068665468209721387180000015879510704664191917_);}
	.st202{fill-rule:evenodd;clip-rule:evenodd;fill:url(#SVGID_00000046331605731425465880000004029636998085104035_);}
	.st203{fill-rule:evenodd;clip-rule:evenodd;fill:url(#SVGID_00000034770838427549533870000003371222364839224980_);}
	.st204{fill-rule:evenodd;clip-rule:evenodd;fill:url(#SVGID_00000085225936944217057340000017024055891462440866_);}
	.st205{fill-rule:evenodd;clip-rule:evenodd;fill:url(#SVGID_00000044868640311341059970000009780938253469744550_);}
	.st206{fill-rule:evenodd;clip-rule:evenodd;fill:url(#SVGID_00000176754254967701085090000014099423099918786468_);}
	.st207{fill-rule:evenodd;clip-rule:evenodd;fill:url(#SVGID_00000177475188613844567760000000478456636706376600_);}
	.st208{fill-rule:evenodd;clip-rule:evenodd;fill:url(#SVGID_00000165207055175014038030000001384243187970401676_);}
	.st209{fill-rule:evenodd;clip-rule:evenodd;fill:url(#SVGID_00000129887818595732693230000003362768034251927726_);}
	.st210{fill-rule:evenodd;clip-rule:evenodd;fill:url(#SVGID_00000129894414544582242810000004282837565376269457_);}
	.st211{opacity:0.5;fill-rule:evenodd;clip-rule:evenodd;fill:#5D0101;enable-background:new    ;}
	.st212{fill:#E11B22;}
	.st213{fill:#003359;}
	.st214{fill:#0EB17C;}
	.st215{fill:#959595;}
	.st216{fill:#1779C1;}
	.st217{fill:#2B2353;}
	.st218{fill:#BE264E;}
	.st219{fill:#EAA41C;}
	.st220{fill:#1F9EF3;}
	.st221{fill:#0267A3;}
	.st222{fill:#FFEC00;}
	.st223{fill:#00A0E0;}
	.st224{fill:#E3007E;}
	.st225{fill:none;stroke:#000000;stroke-width:2;stroke-miterlimit:10;}
	.st226{fill:#FF9E80;}
	.st227{fill:#414151;}
	.st228{fill:#2B295E;}
	.st229{fill:#CCCCCC;}
	.st230{fill:#FF8C5C;}
	.st231{fill:#DBA21C;}
	.st232{fill:#EDDBB2;}
	.st233{fill:#DEC58B;}
	.st234{fill:#997113;}
	.st235{fill:#B88817;}
	.st236{fill:#003400;stroke:#8EC13D;stroke-width:4;stroke-miterlimit:10;}
	.st237{fill:#8EC13D;}
	.st238{fill:url(#XMLID_00000173121998278407031990000002566894671701281211_);}
	.st239{fill:url(#SVGID_00000093860130416933608210000004674136116418496172_);}
	.st240{fill:url(#SVGID_00000083786271811141453580000005946121449778476216_);}
	.st241{fill:url(#SVGID_00000154384512584545967390000007296072748178847640_);}
	.st242{fill:url(#SVGID_00000046305278412949987770000009743080893651066013_);}
	.st243{fill:url(#SVGID_00000016766769416608893670000008782660217018015413_);}
	.st244{fill:url(#SVGID_00000062882774693534516070000012028991309539948731_);}
	.st245{fill:url(#SVGID_00000119085465839159067140000001692362267792630928_);}
	.st246{fill:url(#SVGID_00000154414419723171552780000015408466730389938074_);}
	.st247{fill:url(#SVGID_00000136383526881775396890000007011385428897369766_);}
	.st248{fill:url(#SVGID_00000068676892756066858940000016219073968808321961_);}
	.st249{fill:url(#SVGID_00000134238602682947936100000016351560773515768714_);}
	.st250{fill:#1C75BC;}
	.st251{fill:#46920C;}
	.st252{fill:#FF9400;}
	.st253{fill:url(#SVGID_00000025439673211531928860000004979233682492148392_);}
	.st254{fill:url(#SVGID_00000114060839086173523680000012036583236044583099_);}
	.st255{fill:url(#SVGID_00000042708596694248558770000009345974786047000966_);}
	.st256{fill:url(#SVGID_00000127005661510347559690000015810868474782730943_);}
	.st257{fill:url(#SVGID_00000180331653348393807740000004718862030235321275_);}
	.st258{fill:url(#SVGID_00000121972736854153318470000005243453481041060259_);}
	.st259{fill:url(#SVGID_00000003795165183761150230000006027243110784666009_);}
	.st260{fill:url(#SVGID_00000146484608686548970040000015042341574313888422_);}
	.st261{fill:url(#SVGID_00000023990557495092836570000013596288055863356572_);}
	.st262{fill:url(#SVGID_00000183953535303345076900000017324674939626953101_);}
	.st263{fill:url(#SVGID_00000003077342175437289230000009323550547625179032_);}
	.st264{fill:url(#SVGID_00000183241435188832543350000014955246635901922740_);}
	.st265{fill:url(#SVGID_00000178911647699943154040000016574699978178462612_);}
	.st266{fill:url(#SVGID_00000013895721103174806980000007135670069279584647_);}
	.st267{fill:url(#SVGID_00000091729421336691583520000010469347590233140379_);}
	.st268{fill:url(#SVGID_00000113315791529015654380000008084980458634526874_);}
	.st269{fill:url(#SVGID_00000142140300553678943590000017853770690827799717_);}
	.st270{fill:url(#SVGID_00000047021578470207183450000010916823028545853102_);}
	.st271{fill:url(#SVGID_00000130604401871487574270000018190893284376360636_);}
	.st272{fill:#2F3F67;}
	.st273{fill:#C97F32;}
	.st274{fill:none;stroke:#C97F32;stroke-width:1.2891;stroke-miterlimit:10;}
	.st275{fill:url(#XMLID_00000175303743934110469300000006423315161828933820_);}
	.st276{fill:#00548B;}
	.st277{fill:#004368;}
	.st278{fill:#94070A;}
	.st279{fill:url(#XMLID_00000173874230907762418320000002181772950273465484_);}
	.st280{fill:url(#XMLID_00000080926720858492882670000003588255665444307639_);}
	.st281{fill:#B34A06;}
	.st282{fill:#A2B5C4;}
	.st283{fill:#192940;}
	.st284{fill:url(#SVGID_00000134212120295346090930000005824324812971855004_);}
	.st285{fill:url(#SVGID_00000129898094890943827180000002530033938173403324_);}
	.st286{fill:url(#SVGID_00000164492369727335889560000014894553032255417245_);}
	.st287{opacity:0.93;fill:url(#SVGID_00000030469289914651030030000013448489746496481932_);}
	.st288{opacity:0.93;fill:url(#SVGID_00000170260702189006403590000009524411765116592023_);}
	.st289{opacity:0.93;fill:url(#SVGID_00000165200478494064773370000013959266672169595797_);}
	.st290{opacity:0.93;fill:url(#SVGID_00000131336151851973967960000010386224063061102220_);}
	.st291{fill:url(#SVGID_00000031895581577293981750000005803318364182321330_);}
	.st292{stroke:#000000;stroke-width:0.75;stroke-miterlimit:10;}
</style>
<g>
	<g>
		<g>
			<path class="st213" d="M93.73,159.1l0.25,4.45c-1.16,1.91-3.36,3.46-7.26,3.46c-6.35-0.03-10.49-3.53-10.49-9.43
				c0-5.78,3.99-9.38,10.56-9.38c2.75,0,4.96,0.64,6.43,1.4l0.05,4.44h-0.21c-0.94-3.39-3.16-4.75-6-4.75
				c-4.1,0-6.61,3.16-6.61,8.24c0,5.12,2.42,8.3,6.27,8.4c3.98,0,5.99-1.74,6.8-6.82H93.73z"/>
			<path class="st213" d="M116.08,166.65H102.7l0-0.26h0.33c0.9,0,1.64-0.73,1.66-1.63v-14.33c-0.02-0.9-0.75-1.62-1.66-1.62h-0.33
				l0-0.26h7.85l0,0.26h-0.33c-0.9,0-1.64,0.72-1.66,1.62v15.11h3.39c2.58,0,4.26-1.6,5.06-4.17h0.26L116.08,166.65z"/>
			<path class="st213" d="M138.32,166.65h-13.38l0-0.26h0.33c0.9,0,1.64-0.73,1.66-1.63v-14.41c-0.06-0.86-0.77-1.54-1.65-1.54
				h-0.33l0-0.26h9.91c1.11-0.01,2.61-0.27,3.09-0.47v4.52l-0.26,0v-0.3c0-1.56-0.98-2.57-2.52-2.64h-4.35v7.52h3.43
				c1.27-0.02,2.2-0.96,2.19-2.21v-0.22l0.25,0v5.97l-0.25,0v-0.22c0-1.25-0.91-2.18-2.16-2.21h-3.46v7.27h3.39
				c2.58,0,4.26-1.6,5.06-4.17h0.26L138.32,166.65z"/>
			<path class="st213" d="M163.48,164.89c0.56,1.06,1.44,1.5,2.21,1.5h0.22v0.26h-8.24v-0.26h0.23c0.67,0,1.39-0.59,1-1.62
				l-1.27-3.19h-6.07l-1.32,3.19c-0.42,1.03,0.32,1.62,0.99,1.62h0.23v0.26h-5.54v-0.26h0.23c0.73,0,1.63-0.43,2.17-1.46l5.98-13.51
				c0.18-0.39,1.21-2.63,1.27-3.39h0.23L163.48,164.89z M157.19,160.48l-2.53-6.35l-2.65,6.35H157.19z"/>
			<path class="st213" d="M193.21,148.55l0,0.26h-0.48c-0.86,0-1.57,0.69-1.6,1.54v13.36c0,1.95,0.3,3.3,0.3,3.3h-0.23l-13.06-12.44
				v10.26c0.02,0.86,0.73,1.56,1.6,1.56h0.48l0,0.26h-7.84l0-0.26h0.48c0.87,0,1.58-0.7,1.6-1.57v-13.43c0-1.92-0.3-3.23-0.3-3.23
				h0.25l13.04,12.43v-10.22c-0.02-0.87-0.72-1.57-1.6-1.57h-0.48l0-0.26H193.21z"/>
			<path class="st213" d="M208.96,166.65h-7.85l0-0.26h0.33c0.9,0,1.64-0.72,1.66-1.62v-14.34c-0.02-0.9-0.75-1.62-1.66-1.62h-0.33
				l0-0.26h7.85l0,0.26h-0.33c-0.9,0-1.63,0.72-1.66,1.61v14.34c0.02,0.9,0.75,1.62,1.66,1.62h0.33L208.96,166.65z"/>
			<path class="st213" d="M238.07,148.55l0,0.26h-0.48c-0.86,0-1.57,0.69-1.6,1.54v13.36c0,1.95,0.3,3.3,0.3,3.3h-0.23L223,154.57
				v10.26c0.02,0.86,0.73,1.56,1.6,1.56h0.48l0,0.26h-7.84l0-0.26h0.48c0.87,0,1.58-0.7,1.6-1.57v-13.43c0-1.92-0.3-3.23-0.3-3.23
				h0.25l13.04,12.43v-10.22c-0.02-0.87-0.72-1.57-1.6-1.57h-0.48l0-0.26H238.07z"/>
			<path class="st213" d="M265.64,158.24c-0.84,0-1.31,0.42-1.29,1.17v4.27c-1.22,1.57-4.43,3.33-8.57,3.33
				c-5.87,0-9.78-3.62-9.78-9.44c0-5.76,3.83-9.38,9.93-9.38c2.84,0,5.61,0.63,7.13,1.4l0.05,4.44h-0.22
				c-0.97-3.51-3.43-4.75-6.18-4.75c-4.23,0-6.49,3.19-6.49,8.45c0,4.99,2.09,8.19,5.9,8.2c1.9,0,3.77-0.92,4.38-2.56v-3.95
				c0-0.75-0.5-1.18-1.33-1.18h-0.41v-0.26h7.26v0.26H265.64z"/>
		</g>
		<g>
			<g>
				<path class="st214" d="M106.18,180.66c0.53,0.4,0.88,0.95,1.07,1.64h-1.11c-0.15-0.39-0.4-0.7-0.73-0.93s-0.74-0.34-1.23-0.34
					c-0.39,0-0.73,0.09-1.03,0.29c-0.3,0.19-0.54,0.46-0.72,0.81c-0.17,0.35-0.26,0.76-0.26,1.24c0,0.47,0.09,0.87,0.26,1.23
					c0.17,0.35,0.41,0.62,0.72,0.81c0.3,0.19,0.65,0.29,1.03,0.29c0.48,0,0.89-0.11,1.23-0.34c0.33-0.23,0.58-0.54,0.73-0.92h1.11
					c-0.18,0.69-0.54,1.24-1.07,1.64s-1.19,0.6-1.98,0.6c-0.61,0-1.15-0.14-1.63-0.42c-0.47-0.28-0.84-0.67-1.09-1.17
					c-0.26-0.5-0.39-1.07-0.39-1.71c0-0.64,0.13-1.21,0.39-1.71s0.62-0.89,1.09-1.17c0.47-0.28,1.01-0.42,1.63-0.42
					C104.99,180.06,105.65,180.26,106.18,180.66z"/>
				<path class="st214" d="M113.54,186.61l-1.62-2.59h-0.74v2.59h-1.05v-6.49h2.29c0.74,0,1.3,0.18,1.69,0.54
					c0.38,0.36,0.57,0.84,0.57,1.43c0,0.51-0.14,0.93-0.43,1.25c-0.29,0.33-0.7,0.53-1.24,0.62l1.7,2.64H113.54z M111.18,183.27
					h1.16c0.85,0,1.27-0.37,1.27-1.12c0-0.36-0.1-0.63-0.31-0.83c-0.21-0.2-0.53-0.3-0.96-0.3h-1.16V183.27z"/>
				<path class="st214" d="M121.33,185.2h-2.74l-0.5,1.41h-1.12l2.39-6.39h1.2l2.38,6.39h-1.12L121.33,185.2z M121.03,184.39
					l-1.07-3.03l-1.08,3.03H121.03z"/>
				<path class="st214" d="M129.4,180.12v0.84h-2.78v2.01h2.3v0.81h-2.3v2.82h-1.05v-6.49H129.4z"/>
				<path class="st214" d="M136.34,180.12v0.84h-1.81v5.64h-1.06v-5.64h-1.8v-0.84H136.34z"/>
				<path class="st214" d="M140.01,180.12v6.49h-1.05v-6.49H140.01z"/>
				<path class="st214" d="M148.36,186.61h-1.05l-3.15-4.79v4.79h-1.05v-6.48h1.05l3.15,4.81v-4.81h1.05V186.61z"/>
				<path class="st214" d="M156.36,180.64c0.51,0.38,0.85,0.9,1.02,1.55h-1.1c-0.14-0.35-0.37-0.63-0.69-0.84
					c-0.32-0.21-0.7-0.31-1.14-0.31c-0.4,0-0.77,0.09-1.09,0.28c-0.32,0.19-0.57,0.46-0.75,0.81c-0.18,0.35-0.27,0.76-0.27,1.23
					c0,0.5,0.09,0.92,0.28,1.28c0.18,0.35,0.44,0.63,0.78,0.81c0.33,0.19,0.72,0.28,1.16,0.28c0.54,0,1-0.17,1.39-0.5
					c0.39-0.33,0.62-0.79,0.7-1.37h-2.38v-0.77h3.26v1c-0.07,0.48-0.24,0.91-0.51,1.3c-0.27,0.39-0.62,0.7-1.06,0.93
					c-0.44,0.23-0.94,0.35-1.5,0.35c-0.63,0-1.19-0.14-1.67-0.42c-0.48-0.28-0.86-0.67-1.12-1.17c-0.26-0.5-0.4-1.07-0.4-1.71
					c0-0.64,0.13-1.21,0.4-1.71c0.26-0.5,0.64-0.89,1.12-1.17c0.48-0.28,1.04-0.42,1.67-0.42
					C155.2,180.07,155.85,180.26,156.36,180.64z"/>
				<path class="st214" d="M169.27,180.66c0.53,0.4,0.88,0.95,1.07,1.64h-1.11c-0.15-0.39-0.4-0.7-0.73-0.93s-0.74-0.34-1.23-0.34
					c-0.39,0-0.73,0.09-1.03,0.29c-0.3,0.19-0.54,0.46-0.72,0.81c-0.17,0.35-0.26,0.76-0.26,1.24c0,0.47,0.09,0.87,0.26,1.23
					c0.17,0.35,0.41,0.62,0.72,0.81c0.3,0.19,0.65,0.29,1.03,0.29c0.48,0,0.89-0.11,1.23-0.34c0.33-0.23,0.58-0.54,0.73-0.92h1.11
					c-0.18,0.69-0.54,1.24-1.07,1.64s-1.19,0.6-1.98,0.6c-0.61,0-1.15-0.14-1.63-0.42c-0.47-0.28-0.84-0.67-1.09-1.17
					c-0.26-0.5-0.39-1.07-0.39-1.71c0-0.64,0.13-1.21,0.39-1.71s0.62-0.89,1.09-1.17c0.47-0.28,1.01-0.42,1.63-0.42
					C168.08,180.06,168.74,180.26,169.27,180.66z"/>
				<path class="st214" d="M174.27,185.79h2.24v0.82h-3.29v-6.49h1.05V185.79z"/>
				<path class="st214" d="M180.21,180.97v1.97h2.39v0.81h-2.39v2.01h2.66v0.85h-3.71v-6.49h3.71v0.84H180.21z"/>
				<path class="st214" d="M189.6,185.2h-2.74l-0.5,1.41h-1.12l2.39-6.39h1.2l2.38,6.39h-1.12L189.6,185.2z M189.31,184.39
					l-1.07-3.03l-1.08,3.03H189.31z"/>
				<path class="st214" d="M199.08,186.61h-1.05l-3.15-4.79v4.79h-1.05v-6.48h1.05l3.15,4.81v-4.81h1.05V186.61z"/>
				<path class="st214" d="M203.24,185.79h2.24v0.82h-3.29v-6.49h1.05V185.79z"/>
				<path class="st214" d="M209.18,180.12v6.49h-1.05v-6.49H209.18z"/>
				<path class="st214" d="M217.53,186.61h-1.05l-3.15-4.79v4.79h-1.05v-6.48h1.05l3.15,4.81v-4.81h1.05V186.61z"/>
				<path class="st214" d="M221.69,180.97v1.97h2.39v0.81h-2.39v2.01h2.66v0.85h-3.71v-6.49h3.71v0.84H221.69z"/>
				<path class="st214" d="M231.24,185.77c-0.15,0.27-0.39,0.49-0.7,0.66c-0.31,0.17-0.7,0.25-1.15,0.25
					c-0.44,0-0.84-0.08-1.19-0.23s-0.63-0.38-0.84-0.66c-0.21-0.28-0.33-0.61-0.36-0.97h1.12c0.03,0.28,0.15,0.52,0.36,0.73
					s0.49,0.3,0.85,0.3c0.32,0,0.56-0.09,0.74-0.26c0.17-0.17,0.26-0.39,0.26-0.66c0-0.23-0.06-0.42-0.19-0.57
					c-0.13-0.15-0.29-0.27-0.48-0.35s-0.45-0.18-0.78-0.29c-0.4-0.13-0.73-0.26-0.99-0.39c-0.25-0.13-0.47-0.32-0.65-0.56
					c-0.18-0.24-0.27-0.57-0.27-0.96c0-0.35,0.09-0.66,0.26-0.92s0.42-0.47,0.74-0.61c0.32-0.14,0.69-0.22,1.1-0.22
					c0.66,0,1.19,0.16,1.58,0.48c0.39,0.32,0.61,0.74,0.67,1.25h-1.13c-0.04-0.25-0.16-0.46-0.34-0.63
					c-0.19-0.17-0.44-0.26-0.77-0.26c-0.29,0-0.53,0.08-0.71,0.23c-0.18,0.15-0.27,0.37-0.27,0.65c0,0.22,0.06,0.4,0.18,0.55
					c0.12,0.14,0.28,0.26,0.46,0.34c0.19,0.08,0.44,0.18,0.77,0.29c0.41,0.13,0.75,0.26,1.01,0.39s0.48,0.32,0.66,0.57
					s0.27,0.58,0.27,0.99C231.47,185.2,231.39,185.49,231.24,185.77z"/>
				<path class="st214" d="M238.39,185.77c-0.15,0.27-0.39,0.49-0.7,0.66c-0.31,0.17-0.7,0.25-1.15,0.25
					c-0.44,0-0.84-0.08-1.19-0.23s-0.63-0.38-0.84-0.66c-0.21-0.28-0.33-0.61-0.36-0.97h1.12c0.03,0.28,0.15,0.52,0.36,0.73
					s0.49,0.3,0.85,0.3c0.32,0,0.56-0.09,0.74-0.26c0.17-0.17,0.26-0.39,0.26-0.66c0-0.23-0.06-0.42-0.19-0.57
					c-0.13-0.15-0.29-0.27-0.48-0.35s-0.45-0.18-0.78-0.29c-0.4-0.13-0.73-0.26-0.99-0.39c-0.25-0.13-0.47-0.32-0.65-0.56
					c-0.18-0.24-0.27-0.57-0.27-0.96c0-0.35,0.09-0.66,0.26-0.92s0.42-0.47,0.74-0.61c0.32-0.14,0.69-0.22,1.1-0.22
					c0.66,0,1.19,0.16,1.58,0.48c0.39,0.32,0.61,0.74,0.67,1.25h-1.13c-0.04-0.25-0.16-0.46-0.34-0.63
					c-0.19-0.17-0.44-0.26-0.77-0.26c-0.29,0-0.53,0.08-0.71,0.23c-0.18,0.15-0.27,0.37-0.27,0.65c0,0.22,0.06,0.4,0.18,0.55
					c0.12,0.14,0.28,0.26,0.46,0.34c0.19,0.08,0.44,0.18,0.77,0.29c0.41,0.13,0.75,0.26,1.01,0.39s0.48,0.32,0.66,0.57
					s0.27,0.58,0.27,0.99C238.62,185.2,238.54,185.49,238.39,185.77z"/>
			</g>
			<g>
				<rect x="244.92" y="182.95" class="st215" width="7.4" height="0.8"/>
				<rect x="89.21" y="182.95" class="st215" width="7.4" height="0.8"/>
			</g>
		</g>
	</g>
	<g>
		<g>
			<path class="st213" d="M205.79,137.28h-70.05c-3.08,0-5.58-2.5-5.58-5.58V64.3l40.61-23.58l40.61,23.58v67.4
				C211.38,134.78,208.88,137.28,205.79,137.28z"/>
			<path class="st216" d="M167.61,36.95l-46.82,27.81l3.64,5.26l45.14-26.82c0.81-0.48,1.81-0.48,2.62,0l45.14,26.82l3.4-5.44
				l-46.51-27.63C172.19,35.74,169.65,35.74,167.61,36.95z"/>
			<g>
				<path class="st14" d="M169.82,65.98V55.31c-2.85,0.22-5.42,1.44-7.37,3.3L169.82,65.98z"/>
				<path class="st14" d="M158.71,67.32h9.78l-7.3-7.3C159.64,62.04,158.71,64.57,158.71,67.32z"/>
				<path class="st14" d="M171.71,55.31v10.67l7.37-7.37C177.13,56.75,174.56,55.53,171.71,55.31z"/>
				<path class="st14" d="M180.35,60.01l-7.3,7.3h9.78C182.82,64.57,181.9,62.04,180.35,60.01z"/>
			</g>
		</g>
		<g>
			<polygon class="st214" points="147.93,91.03 147.93,117.4 170.77,130.58 193.6,117.4 193.6,91.03 170.77,77.85 			"/>
			<g>
				<path class="st14" d="M155.23,99.01c0,0-2.07,7.72,1.41,13.76c2.09,3.61,5.69,5.81,8.25,6.98l-5.54-13.6l9.01,11.6
					c0.26-2.8,0.17-7.02-1.92-10.63C162.95,101.08,155.23,99.01,155.23,99.01z"/>
				<path class="st14" d="M186.15,93.8c0,0-9.66,2.59-14.02,10.14c-2.61,4.52-2.73,9.8-2.4,13.31l11.27-14.52l-6.94,17.02
					c3.2-1.47,7.71-4.21,10.32-8.74C188.74,103.46,186.15,93.8,186.15,93.8z"/>
				<path class="st14" d="M166.53,99.46c1.48,0,2.69-1.2,2.69-2.69c0-1.48-2.69-5.22-2.69-5.22s-2.69,3.74-2.69,5.22
					C163.85,98.26,165.05,99.46,166.53,99.46z"/>
				<path class="st14" d="M173.04,93.12c1.04,0,1.88-0.84,1.88-1.88c0-1.04-1.88-3.66-1.88-3.66s-1.88,2.62-1.88,3.66
					C171.16,92.28,172,93.12,173.04,93.12z"/>
			</g>
		</g>
		<g>
			<polygon class="st216" points="97.96,91.03 97.96,117.4 120.79,130.58 143.63,117.4 143.63,91.03 120.79,77.85 			"/>
			<g>
				<rect x="105.18" y="93.22" class="st14" width="31.23" height="3.7"/>
				<path class="st14" d="M120.79,100.56H115l0,0h0l0.36,0.72l0,0l2.65,5.29c0.38,0.76,0.55,1.6,0.5,2.45l-0.7,9.95
					c-0.11,1.72,1.26,3.18,2.99,3.18l0,0c1.73,0,3.09-1.46,2.99-3.18l-0.7-9.95c-0.05-0.85,0.12-1.69,0.5-2.45l2.65-5.29l0,0
					l0.36-0.72l0,0v0H120.79z M120.79,120.42c-0.84,0-1.53-0.68-1.53-1.53s0.68-1.53,1.53-1.53s1.53,0.68,1.53,1.53
					S121.64,120.42,120.79,120.42z"/>
				<path class="st14" d="M108.35,100.53c0,0.41,0.33,0.74,0.74,0.74h5.24l-0.15-0.31l-0.67-1.33H115h5.79h5.79h1.49l-0.67,1.33
					l-0.15,0.31h5.24c0.41,0,0.74-0.33,0.74-0.74v-2.05h-24.89V100.53z"/>
				<path class="st14" d="M110.56,90.69c3.22-1.2,6.82-1.26,10.17-0.68c3.36,0.61,6.61,0.9,10.03,0.68
					c-3.26,1.06-6.85,0.94-10.19,0.36C117.22,90.44,113.95,90.33,110.56,90.69L110.56,90.69z"/>
				<path class="st14" d="M113.99,87.89c3.19-1.65,6.7-0.56,10.01-0.11c1.08,0.11,2.19,0.11,3.33,0.11
					c-1.06,0.43-2.2,0.67-3.36,0.71c-2.27,0.1-4.43-0.65-6.66-0.76C116.23,87.77,115.13,87.83,113.99,87.89L113.99,87.89z"/>
			</g>
		</g>
		<g>
			<polygon class="st216" points="197.9,91.03 197.9,117.4 220.74,130.58 243.58,117.4 243.58,91.03 220.74,77.85 			"/>
			<g>
				<path class="st14" d="M232.1,98.13h-22.33c-0.56,0-1.02,0.45-1.02,1.02c0,0.56,0.45,1.02,1.02,1.02h22.33
					c0.56,0,1.02-0.45,1.02-1.02C233.12,98.58,232.66,98.13,232.1,98.13z"/>
				<path class="st14" d="M214.3,92.45c0.97,0,1.76-0.79,1.76-1.76c0-0.97-0.79-1.76-1.76-1.76c-0.97,0-1.76,0.79-1.76,1.76
					C212.55,91.66,213.33,92.45,214.3,92.45z"/>
				<path class="st14" d="M226.76,91.47c0.74,0,1.35-0.6,1.35-1.35c0-0.74-0.6-1.35-1.35-1.35c-0.74,0-1.35,0.6-1.35,1.35
					C225.42,90.87,226.02,91.47,226.76,91.47z"/>
				<path class="st14" d="M224.41,88.31c0.41,0,0.75-0.33,0.75-0.75c0-0.41-0.33-0.75-0.75-0.75c-0.41,0-0.75,0.33-0.75,0.75
					C223.67,87.97,224,88.31,224.41,88.31z"/>
				<path class="st14" d="M218.01,86.16c0.41,0,0.75-0.33,0.75-0.75c0-0.41-0.33-0.75-0.75-0.75c-0.41,0-0.75,0.33-0.75,0.75
					C217.26,85.82,217.6,86.16,218.01,86.16z"/>
				<path class="st14" d="M219.5,88.5c0.26,0,0.47-0.21,0.47-0.47c0-0.26-0.21-0.47-0.47-0.47s-0.47,0.21-0.47,0.47
					C219.03,88.29,219.24,88.5,219.5,88.5z"/>
				<path class="st14" d="M227.21,92.63c-0.51,0-1,0.09-1.46,0.25c-1-1.61-2.78-2.68-4.81-2.68c-2.3,0-4.28,1.37-5.17,3.34
					c-0.37-0.11-0.76-0.17-1.17-0.17c-1.9,0-3.5,1.3-3.95,3.06h20.97C231.3,94.28,229.45,92.63,227.21,92.63z"/>
				<path class="st14" d="M220.94,114.08c4.18,0,7.83-2.34,9.69-5.78l0.92-7.14h-21.23l0.92,7.14
					C213.11,111.74,216.75,114.08,220.94,114.08z"/>
				<path class="st14" d="M220.94,114.72c-3.92,0-7.39-1.95-9.5-4.93l1.28,9.92c0.09,0.66,0.65,1.16,1.32,1.16h13.81
					c0.67,0,1.24-0.5,1.32-1.16l1.28-9.92C228.32,112.76,224.86,114.72,220.94,114.72z"/>
				<path class="st14" d="M232.59,101.16h-0.63v1.9c0,1.9-0.48,3.68-1.33,5.24l-0.19,1.49c1.35-1.9,2.15-4.22,2.15-6.73V101.16z"/>
				<path class="st14" d="M209.91,103.06v-1.9h-0.63v1.9c0,2.51,0.8,4.82,2.15,6.73l-0.19-1.49
					C210.39,106.74,209.91,104.95,209.91,103.06z"/>
				<path class="st216" d="M220.94,114.08c-4.18,0-7.83-2.34-9.69-5.78l0.19,1.49c2.11,2.98,5.58,4.93,9.5,4.93
					c3.92,0,7.39-1.95,9.5-4.93l0.19-1.49C228.76,111.74,225.12,114.08,220.94,114.08z"/>
				<path class="st14" d="M232.22,102.3h-22.56c-0.31,0-0.57-0.25-0.57-0.57l0,0c0-0.31,0.25-0.57,0.57-0.57h22.56
					c0.31,0,0.57,0.25,0.57,0.57l0,0C232.78,102.04,232.53,102.3,232.22,102.3z"/>
				<path class="st216" d="M222.81,115.21h-3.75c-0.58,0-1.05-0.47-1.05-1.05l0,0c0-0.58,0.47-1.05,1.05-1.05h3.75
					c0.58,0,1.05,0.47,1.05,1.05l0,0C223.86,114.74,223.39,115.21,222.81,115.21z"/>
			</g>
		</g>
		<path class="st213" d="M120.79,128.88l-21.36-12.33V91.88l21.36-12.33l21.36,12.33v24.66L120.79,128.88z M99.88,116.29
			l20.91,12.07l20.91-12.07V92.14l-20.91-12.07L99.88,92.14V116.29z"/>
		<path class="st213" d="M170.77,128.88l-21.36-12.33V91.88l21.36-12.33l21.36,12.33v24.66L170.77,128.88z M149.85,116.29
			l20.91,12.07l20.91-12.07V92.14l-20.91-12.07l-20.91,12.07V116.29z"/>
		<path class="st213" d="M220.94,128.88l-21.36-12.33V91.88l21.36-12.33l21.36,12.33v24.66L220.94,128.88z M200.02,116.29
			l20.91,12.07l20.91-12.07V92.14l-20.91-12.07l-20.91,12.07V116.29z"/>
	</g>
</g>
</svg>
