<?xml version="1.0" encoding="utf-8"?>
<!-- Generator: Adobe Illustrator 27.8.1, SVG Export Plug-In . SVG Version: 6.00 Build 0)  -->
<svg version="1.1" id="Layer_1" xmlns="http://www.w3.org/2000/svg" xmlns:xlink="http://www.w3.org/1999/xlink" x="0px" y="0px"
	 viewBox="0 0 348 228" style="enable-background:new 0 0 348 228;" xml:space="preserve">
<style type="text/css">
	.st0{fill:#D6EADE;}
	.st1{fill:#03487C;}
	.st2{fill:#1B1B4C;}
	.st3{fill-rule:evenodd;clip-rule:evenodd;fill:#204F7A;}
	.st4{fill-rule:evenodd;clip-rule:evenodd;fill:#50A4FF;}
	.st5{fill:#002649;}
	.st6{fill:#E6E7E8;stroke:#CFCFCF;stroke-width:0.1061;}
	.st7{fill:#333333;}
	.st8{fill:#0F5998;}
	.st9{fill:#277FC1;}
	.st10{fill-rule:evenodd;clip-rule:evenodd;fill:#277FC1;}
	.st11{fill-rule:evenodd;clip-rule:evenodd;fill:#083D6D;}
	.st12{fill:#DDB462;}
	
		.st13{clip-path:url(#SVGID_00000115501921083129300000000004376023272425262518_);fill:url(#SVGID_00000017487566066146580650000006461177942451040655_);}
	.st14{fill:#FFFFFF;}
	.st15{fill:url(#SVGID_00000070077954675691689770000010380756122644704432_);}
	.st16{fill:#224685;}
	.st17{fill:none;}
	.st18{fill:#FFC73B;}
	.st19{fill:#11233F;}
	.st20{fill:#5267FF;}
	.st21{fill-rule:evenodd;clip-rule:evenodd;fill:#72342E;}
	.st22{fill:#72342E;}
	.st23{fill:#FFF2E2;}
	.st24{fill:#FFF2E2;stroke:#72342E;stroke-width:0.75;stroke-miterlimit:10;}
	.st25{fill:#FFCC99;}
	.st26{fill:#469CB2;}
	.st27{fill:url(#XMLID_00000075852247068102981390000011162277696513766329_);}
	.st28{fill:url(#XMLID_00000133488428819698364410000007856736838954049955_);}
	.st29{fill:url(#XMLID_00000080917936228662043060000012246432720150996157_);}
	.st30{fill:url(#XMLID_00000122707264159346264930000008693966546621342357_);}
	.st31{fill:url(#XMLID_00000163033141723439482940000013391416926883526334_);}
	.st32{fill:url(#XMLID_00000155108816161786175200000012459582141278115494_);}
	.st33{fill:url(#XMLID_00000167355750276016860040000006774176254717239956_);}
	.st34{fill:url(#XMLID_00000113331734587419733160000001279041604467844787_);}
	.st35{fill:url(#XMLID_00000116220396621944208930000016273649357290898111_);}
	.st36{fill:url(#XMLID_00000152229300106790417450000008577857015950330284_);}
	.st37{fill:url(#XMLID_00000155832617841094988680000012733562984513678250_);}
	.st38{fill:url(#XMLID_00000112611555400873270200000011929958349138760582_);}
	.st39{fill:url(#XMLID_00000048480521059709886810000008359816153693487277_);}
	.st40{fill:url(#XMLID_00000139996815661062766990000003101681769124609934_);}
	.st41{fill:url(#XMLID_00000072977401681901768470000002058441733139169213_);}
	.st42{fill:url(#SVGID_00000155136679355552987400000010171593497689447859_);}
	.st43{fill:url(#SVGID_00000082339420477877409630000012138270354112462480_);}
	.st44{fill:url(#SVGID_00000154415663443427894660000017508750611043515777_);}
	.st45{fill:url(#SVGID_00000068649809961290315520000005328065472241535646_);}
	.st46{fill:url(#SVGID_00000003793450913240529390000006614153339008338870_);}
	.st47{fill:url(#SVGID_00000127019667001448304110000009425029055353454212_);}
	.st48{fill:url(#SVGID_00000129191180853836953640000006268365312428458899_);}
	.st49{fill:url(#SVGID_00000175283141606286069480000006018182156722090385_);}
	.st50{fill:url(#SVGID_00000000921395788046169870000001538806060595426216_);}
	.st51{fill:url(#SVGID_00000160889458765785257260000015484607028088372149_);}
	.st52{fill:url(#SVGID_00000090973460459182155220000000369939423453340314_);}
	.st53{fill:url(#SVGID_00000113330457379705732740000012939356343122134937_);}
	.st54{fill:url(#SVGID_00000046315959031329081280000008035062654983793855_);}
	.st55{fill:url(#SVGID_00000128459990124589477180000017243191674257895071_);}
	.st56{fill:#30325E;}
	.st57{fill:#FF7859;}
	.st58{fill:#FFD550;}
	.st59{fill:#00C3AD;}
	.st60{fill:#FF4653;}
	.st61{fill:#D8CE19;}
	.st62{fill:#C1E5DE;}
	.st63{fill:#FFE4D2;}
	.st64{fill:#DFF4F0;}
	.st65{fill:#A2E0EB;}
	.st66{fill:#1B3493;}
	.st67{fill:none;stroke:#FFFFFF;stroke-width:2;stroke-linecap:round;stroke-linejoin:round;stroke-miterlimit:10;}
	.st68{fill:#F15A24;}
	.st69{fill:#F7931E;}
	.st70{fill:#58595B;}
	.st71{fill:#114E15;}
	.st72{fill:#013D01;}
	.st73{fill:#E9C608;}
	.st74{fill:#043B00;}
	.st75{fill:#D8A43E;}
	.st76{clip-path:url(#SVGID_00000064314733301554682870000007007477312751235003_);}
	.st77{fill:#F49630;}
	.st78{clip-path:url(#SVGID_00000016777045096176645020000005379669810829850508_);}
	.st79{clip-path:url(#SVGID_00000111870653878278844180000015466215952730326174_);}
	.st80{clip-path:url(#SVGID_00000163755921544275503110000001554924339237824149_);}
	.st81{clip-path:url(#SVGID_00000176739787310480692150000007349639195549940895_);}
	.st82{fill-rule:evenodd;clip-rule:evenodd;fill:#FF6600;}
	.st83{fill-rule:evenodd;clip-rule:evenodd;fill:#05174F;}
	.st84{fill:#05174F;}
	.st85{opacity:0.42;fill:url(#SVGID_00000059273038842863665960000002912777997749803665_);enable-background:new    ;}
	.st86{opacity:0.42;fill:url(#SVGID_00000062877067876194188260000006141140806693717161_);enable-background:new    ;}
	.st87{fill:url(#SVGID_00000072282130523834837040000013005052881100026543_);}
	.st88{fill:url(#SVGID_00000059303525994222051830000015170445987567453370_);}
	.st89{opacity:0.64;fill:url(#SVGID_00000063610359887162641140000008911555765457066653_);enable-background:new    ;}
	.st90{opacity:0.75;fill:url(#SVGID_00000101784426627659862880000006864973814139347895_);enable-background:new    ;}
	.st91{fill:url(#SVGID_00000034049631315358905430000017675207188075893142_);}
	.st92{fill:url(#SVGID_00000148644322622896261820000018365197238299692418_);}
	.st93{opacity:0.76;fill:url(#SVGID_00000036942107757331343640000017266608987841514656_);enable-background:new    ;}
	.st94{opacity:0.75;fill:url(#SVGID_00000001631763491886512140000015872377333589265309_);enable-background:new    ;}
	.st95{fill:url(#SVGID_00000000941357859897697890000010410834728453377443_);}
	.st96{opacity:0.42;fill:url(#SVGID_00000086660365465198838760000000832320999310852752_);enable-background:new    ;}
	.st97{opacity:0.42;fill:url(#SVGID_00000002378392656975080460000012998085955279031437_);enable-background:new    ;}
	.st98{clip-path:url(#SVGID_00000086661753650026408620000013272496125880527525_);}
	.st99{fill:#1ED7FE;}
	.st100{clip-path:url(#SVGID_00000180334176376203301590000000289538432536494008_);}
	.st101{clip-path:url(#SVGID_00000150792345340710815230000015792632973593820326_);}
	.st102{fill:#000056;}
	.st103{clip-path:url(#SVGID_00000142870831554144284530000017120620871549018255_);}
	.st104{enable-background:new    ;}
	.st105{fill:#053272;}
	.st106{fill:none;stroke:#053272;stroke-width:4;stroke-miterlimit:10;}
	.st107{fill:url(#SVGID_00000077300420879000407150000012338209464111017627_);}
	.st108{fill:url(#SVGID_00000090976624533954023870000007908025101583524012_);}
	.st109{fill:url(#SVGID_00000049902162583216163840000000946403687068739468_);}
	.st110{fill:url(#SVGID_00000031193635408722684840000003544266422386644894_);}
	.st111{fill:url(#SVGID_00000147900962518408348460000001441529613047852974_);}
	.st112{fill:url(#SVGID_00000080173766881133483640000014792408695807982754_);}
	.st113{fill:url(#SVGID_00000047757724352660445230000002131892260335109032_);}
	.st114{fill:url(#SVGID_00000096737909919441547070000005361922048313283208_);}
	.st115{fill:url(#SVGID_00000083047663054587386770000016651161944923910077_);}
	.st116{fill:url(#SVGID_00000143618588196510511710000002218744756012991423_);}
	.st117{fill:url(#SVGID_00000065057125660169288260000010373761623471431821_);}
	.st118{fill:url(#SVGID_00000124155635964052976340000009541146820550578869_);}
	.st119{fill:url(#SVGID_00000064342514839701599150000015036068514520371344_);}
	.st120{fill:url(#SVGID_00000119104244533182674270000012984040564164955038_);}
	.st121{fill:url(#SVGID_00000011008925294880076320000010190959450114865553_);}
	.st122{fill:url(#SVGID_00000164506048510008338010000017683582300852221854_);}
	.st123{fill:url(#SVGID_00000129896350953319741280000008547937016585422976_);}
	.st124{fill:url(#SVGID_00000102520462355293113580000003497712306703611024_);}
	.st125{fill:url(#SVGID_00000124881746201347776350000007119367475961593783_);}
	.st126{fill:url(#SVGID_00000133519946635455386280000001586624692688357821_);}
	.st127{fill:url(#SVGID_00000173852368055994109310000017970999441509027252_);}
	.st128{fill:url(#SVGID_00000149379711816982275730000001659295780425365397_);}
	.st129{fill:url(#SVGID_00000178892085746699633430000015231844461898102965_);}
	.st130{fill:url(#SVGID_00000083081768396248506950000003357733832281295535_);}
	.st131{fill:url(#SVGID_00000078016864081188433280000003432390000483877820_);}
	.st132{fill:url(#SVGID_00000147926161306153735430000013131628028607448981_);}
	.st133{fill:url(#SVGID_00000007402854485335598120000016593267771564582029_);}
	.st134{fill:url(#SVGID_00000181083368327507427190000012118069800692442544_);}
	.st135{fill:url(#SVGID_00000054254020325347602600000003129923828556111749_);}
	.st136{fill:none;stroke:#FEF73D;stroke-linecap:round;stroke-miterlimit:10;}
	.st137{fill:#FF189C;}
	.st138{fill:none;stroke:#FF189C;stroke-miterlimit:10;}
	.st139{fill:none;stroke:#00EFF1;stroke-linecap:round;stroke-miterlimit:10;}
	.st140{fill:#00EFF1;}
	.st141{fill:#FFA022;}
	.st142{fill:#0C103A;}
	.st143{fill-rule:evenodd;clip-rule:evenodd;fill:#5D9541;}
	.st144{fill-rule:evenodd;clip-rule:evenodd;fill:#F06021;}
	.st145{fill-rule:evenodd;clip-rule:evenodd;fill:#69BC60;}
	.st146{fill-rule:evenodd;clip-rule:evenodd;fill:#F6951C;}
	.st147{fill:#F6951C;}
	.st148{fill:url(#SVGID_00000124845802417036414790000013755750527886875034_);}
	.st149{fill:url(#SVGID_00000000942470185436710490000017975621874159297938_);}
	.st150{fill:url(#SVGID_00000155129821782769203520000005599411222448656269_);}
	.st151{fill:url(#SVGID_00000010297157755493357600000015356536616145754759_);}
	.st152{fill:url(#SVGID_00000072961674809332724020000010449113624986062987_);}
	.st153{fill:url(#SVGID_00000038381794542049547570000004154019594128460946_);}
	.st154{fill:url(#SVGID_00000007413954331545744400000009783878662792940945_);}
	.st155{fill:url(#SVGID_00000014630051237659262030000003153491642716211893_);}
	.st156{fill:url(#SVGID_00000165949445448274078220000005500568175726449541_);}
	.st157{fill:url(#SVGID_00000021840665541598803360000013097702640994847909_);}
	.st158{fill:url(#SVGID_00000168839799277538767490000018178210095888949407_);}
	.st159{fill:url(#SVGID_00000013191439433232820910000009507575493017182867_);}
	.st160{fill:url(#SVGID_00000155862190190371789870000004643659403657015685_);}
	.st161{fill:url(#SVGID_00000183248073280264352270000005723158519949882545_);}
	.st162{fill:url(#SVGID_00000173868833355694395590000016225946774121502607_);}
	.st163{fill:url(#SVGID_00000094612011412494261940000005026031711318975918_);}
	.st164{fill:url(#SVGID_00000074400407102890524490000007984559825854978481_);}
	.st165{fill:url(#SVGID_00000131362501395487722860000000351033713791545534_);}
	.st166{fill:url(#SVGID_00000140694394686203800990000015606190509576521864_);}
	.st167{fill:url(#SVGID_00000068636672033563035620000009864665928313061767_);}
	.st168{fill:url(#SVGID_00000032644850976005825210000004326978382799233415_);}
	.st169{fill:url(#SVGID_00000044880326536023137640000000738385884093031826_);}
	.st170{fill-rule:evenodd;clip-rule:evenodd;fill:#512100;}
	.st171{fill-rule:evenodd;clip-rule:evenodd;fill:#006D62;}
	.st172{fill-rule:evenodd;clip-rule:evenodd;}
	.st173{fill-rule:evenodd;clip-rule:evenodd;fill:#00A1F5;}
	.st174{fill-rule:evenodd;clip-rule:evenodd;fill:#FACFAB;}
	.st175{fill-rule:evenodd;clip-rule:evenodd;fill:#F29673;}
	.st176{fill-rule:evenodd;clip-rule:evenodd;fill:#FFFFFF;}
	.st177{fill-rule:evenodd;clip-rule:evenodd;fill:#333333;}
	.st178{fill-rule:evenodd;clip-rule:evenodd;fill:#BD4D00;}
	.st179{fill-rule:evenodd;clip-rule:evenodd;fill:#B2B2B2;}
	.st180{fill-rule:evenodd;clip-rule:evenodd;fill:#F2CC29;}
	.st181{fill-rule:evenodd;clip-rule:evenodd;fill:#005C9C;}
	.st182{fill-rule:evenodd;clip-rule:evenodd;fill:#8AC900;}
	.st183{fill-rule:evenodd;clip-rule:evenodd;fill:#808080;}
	.st184{fill-rule:evenodd;clip-rule:evenodd;fill:#CFA605;}
	.st185{fill-rule:evenodd;clip-rule:evenodd;fill:#666666;}
	.st186{fill-rule:evenodd;clip-rule:evenodd;fill:#CCCCCC;}
	.st187{fill:#960000;}
	.st188{fill:#00A1F5;}
	.st189{fill:url(#SVGID_00000039095500005071019160000017134395782114864046_);}
	.st190{fill:url(#SVGID_00000114760048892664076310000016533414092862707593_);}
	.st191{opacity:0.51;fill:url(#SVGID_00000160167442275195164550000011584289788359906713_);}
	.st192{fill:url(#SVGID_00000087382222350128766080000001427999627294858894_);}
	.st193{fill:url(#SVGID_00000153676941441416242530000015972725040544395442_);}
	.st194{fill:url(#SVGID_00000090274021631200254180000007813032268840697226_);}
	.st195{opacity:0.35;fill:url(#SVGID_00000119821805564190193150000002566932146690195381_);}
	.st196{opacity:0.35;fill:url(#SVGID_00000155828740728681976680000016856958500107171483_);}
	.st197{fill:#F06021;}
	.st198{fill-rule:evenodd;clip-rule:evenodd;fill:url(#SVGID_00000131351542971983128730000010026961896078074799_);}
	.st199{fill-rule:evenodd;clip-rule:evenodd;fill:url(#SVGID_00000116225020551400456560000006689716920319258782_);}
	.st200{fill-rule:evenodd;clip-rule:evenodd;fill:url(#SVGID_00000178921719040896610010000003129765479586691466_);}
	.st201{fill-rule:evenodd;clip-rule:evenodd;fill:url(#SVGID_00000172442486468430583410000014191832255976375447_);}
	.st202{fill-rule:evenodd;clip-rule:evenodd;fill:url(#SVGID_00000067945697865747059030000014861472427762451880_);}
	.st203{fill-rule:evenodd;clip-rule:evenodd;fill:url(#SVGID_00000000194302896271127810000014535993529425162647_);}
	.st204{fill-rule:evenodd;clip-rule:evenodd;fill:url(#SVGID_00000032625012722256201000000008871459211076373165_);}
	.st205{fill-rule:evenodd;clip-rule:evenodd;fill:url(#SVGID_00000039813524337727576730000012739635914360052868_);}
	.st206{fill-rule:evenodd;clip-rule:evenodd;fill:url(#SVGID_00000013155699281251874900000011567902802123748284_);}
	.st207{fill-rule:evenodd;clip-rule:evenodd;fill:url(#SVGID_00000016773536615304336790000001913701867721457074_);}
	.st208{fill-rule:evenodd;clip-rule:evenodd;fill:url(#SVGID_00000105421150697276950770000002669983467960356771_);}
	.st209{fill-rule:evenodd;clip-rule:evenodd;fill:url(#SVGID_00000170239340231565166340000001300762365801613975_);}
	.st210{fill-rule:evenodd;clip-rule:evenodd;fill:url(#SVGID_00000080892618736871259990000007185833135743682462_);}
	.st211{opacity:0.5;fill-rule:evenodd;clip-rule:evenodd;fill:#5D0101;enable-background:new    ;}
	.st212{fill:#E11B22;}
	.st213{fill:#959595;}
	.st214{fill:#003359;}
	.st215{fill:#1779C1;}
	.st216{fill:#0EB17C;}
	.st217{fill:#2B2353;}
	.st218{fill:#BE264E;}
	.st219{fill:#EAA41C;}
	.st220{fill:#1F9EF3;}
	.st221{fill:#0267A3;}
	.st222{fill:#FFEC00;}
	.st223{fill:#00A0E0;}
	.st224{fill:#E3007E;}
	.st225{fill:none;stroke:#000000;stroke-width:2;stroke-miterlimit:10;}
	.st226{fill:#FF9E80;}
	.st227{fill:#414151;}
	.st228{fill:#2B295E;}
	.st229{fill:#CCCCCC;}
	.st230{fill:#FF8C5C;}
	.st231{fill:#DBA21C;}
	.st232{fill:#EDDBB2;}
	.st233{fill:#DEC58B;}
	.st234{fill:#997113;}
	.st235{fill:#B88817;}
	.st236{fill:#003400;stroke:#8EC13D;stroke-width:4;stroke-miterlimit:10;}
	.st237{fill:#8EC13D;}
	.st238{fill:url(#XMLID_00000072978505237957635260000017340417888782965437_);}
	.st239{fill:url(#SVGID_00000105412158043253915540000018137721133243216514_);}
	.st240{fill:url(#SVGID_00000049904859563629936270000006928167050861036718_);}
	.st241{fill:url(#SVGID_00000022538827249434963810000004183228131670340276_);}
	.st242{fill:url(#SVGID_00000109017194710040769260000018431715485791042981_);}
	.st243{fill:url(#SVGID_00000052789965422914874060000014382860920953786267_);}
	.st244{fill:url(#SVGID_00000166651189800648685640000006123599942906766758_);}
	.st245{fill:url(#SVGID_00000039115303053178944050000004091024535337697411_);}
	.st246{fill:url(#SVGID_00000144331598826962436170000013041325251721693572_);}
	.st247{fill:url(#SVGID_00000150083669157035377940000006858711055034827445_);}
	.st248{fill:url(#SVGID_00000152224426577264729330000010797058047676529551_);}
	.st249{fill:url(#SVGID_00000029724725442436717080000005656775188410602394_);}
	.st250{fill:#1C75BC;}
	.st251{fill:#46920C;}
	.st252{fill:#FF9400;}
	.st253{fill:url(#SVGID_00000067946025441643936060000005966695713356065669_);}
	.st254{fill:url(#SVGID_00000092428319063589953440000012286949417814794375_);}
	.st255{fill:url(#SVGID_00000167377483148551519190000014167459504157096121_);}
	.st256{fill:url(#SVGID_00000094615834547322531270000004962220279257177239_);}
	.st257{fill:url(#SVGID_00000016771818950273087480000003530545658312789170_);}
	.st258{fill:url(#SVGID_00000037677165293095089800000003352181086108093315_);}
	.st259{fill:url(#SVGID_00000145739640211035865820000016171633886147388072_);}
	.st260{fill:url(#SVGID_00000051384825116258914720000017555807495671425668_);}
	.st261{fill:url(#SVGID_00000094593928921556451740000005839826123890125954_);}
	.st262{fill:url(#SVGID_00000130636315954429477800000003745281780201869953_);}
	.st263{fill:url(#SVGID_00000014607345505400471920000008235175761393974434_);}
	.st264{fill:url(#SVGID_00000125573092902340559640000015103906204524057262_);}
	.st265{fill:url(#SVGID_00000119824493138826950000000007725236048918331030_);}
	.st266{fill:url(#SVGID_00000125594875243559878850000007832452031307953340_);}
	.st267{fill:url(#SVGID_00000060011462786956935440000017634996749600769725_);}
	.st268{fill:url(#SVGID_00000101089595376113312620000002738952306172934568_);}
	.st269{fill:url(#SVGID_00000070827142241893301350000013105896809249471923_);}
	.st270{fill:url(#SVGID_00000051345126810683239410000014736556376749451689_);}
	.st271{fill:url(#SVGID_00000103960024829656730520000003127771742860062602_);}
	.st272{fill:#2F3F67;}
	.st273{fill:#C97F32;}
	.st274{fill:none;stroke:#C97F32;stroke-width:1.2891;stroke-miterlimit:10;}
	.st275{fill:url(#XMLID_00000047054463033743395160000010518763185649616060_);}
	.st276{fill:#00548B;}
	.st277{fill:#004368;}
	.st278{fill:#94070A;}
	.st279{fill:url(#XMLID_00000163071116457836394450000003100155293791024291_);}
	.st280{fill:url(#XMLID_00000047036304640226443280000008075812706890365318_);}
	.st281{fill:#B34A06;}
	.st282{fill:#A2B5C4;}
	.st283{fill:#192940;}
	.st284{fill:url(#SVGID_00000072994130787686828100000012515755582095723908_);}
	.st285{fill:url(#SVGID_00000106114416762751533000000001856140409925040020_);}
	.st286{fill:url(#SVGID_00000158727160441185059410000009402486091685527991_);}
	.st287{opacity:0.93;fill:url(#SVGID_00000130616950912031995010000006471650164942361001_);}
	.st288{opacity:0.93;fill:url(#SVGID_00000168817457067725608730000005812598186922481796_);}
	.st289{opacity:0.93;fill:url(#SVGID_00000041284657863605512450000016742076724331393718_);}
	.st290{opacity:0.93;fill:url(#SVGID_00000082345663935331495780000011936976672443043491_);}
	.st291{fill:url(#SVGID_00000178901255637963134180000017155210772871623053_);}
	.st292{stroke:#000000;stroke-width:0.75;stroke-miterlimit:10;}
</style>
<g>
	<g>
		<g>
			
				<linearGradient id="SVGID_00000148632701508359517740000016675357344171149215_" gradientUnits="userSpaceOnUse" x1="278.274" y1="23.7689" x2="250.8237" y2="90.6789" gradientTransform="matrix(0.9986 0.0523 -0.0523 0.9986 -35.9295 7.446)">
				<stop  offset="0" style="stop-color:#00E3C3"/>
				<stop  offset="1" style="stop-color:#00A786"/>
			</linearGradient>
			<path style="fill:url(#SVGID_00000148632701508359517740000016675357344171149215_);" d="M226.91,70.13
				c-11.39-0.6-21.11,8.15-21.7,19.54c-0.1,1.83,0.05,3.62,0.41,5.33c0.08-1.15,0.23-2.29,0.47-3.41c0.8-3.8,2.47-7.35,4.8-10.3
				c-1.84,3.27-2.86,6.91-3.04,10.53c-0.09,1.65,0.02,3.29,0.28,4.89c3.55-12,14.95-20.47,28-19.79c2.01,0.11,3.96,0.43,5.83,0.94
				C238.41,73.43,233.04,70.45,226.91,70.13z"/>
			<g>
				
					<linearGradient id="SVGID_00000160184569828401413690000002958153355951813563_" gradientUnits="userSpaceOnUse" x1="159.4803" y1="50.9497" x2="208.9218" y2="133.0413" gradientTransform="matrix(0.9986 0.0523 -0.0523 0.9986 -35.9295 7.446)">
					<stop  offset="0" style="stop-color:#FFC500"/>
					<stop  offset="1" style="stop-color:#FF5F00"/>
				</linearGradient>
				<path style="fill:url(#SVGID_00000160184569828401413690000002958153355951813563_);" d="M130.2,128.86
					c25.65-11.09,55.44,0.72,66.53,26.37c0.06,0.14,0.12,0.28,0.18,0.43c0.95-7.03,0.07-14.39-2.95-21.37
					c-8.83-20.43-32.55-29.83-52.98-21c-10.06,4.35-17.44,12.31-21.29,21.7C122.86,132.58,126.37,130.51,130.2,128.86z"/>
				
					<linearGradient id="SVGID_00000052811324281520477530000017366907443905747854_" gradientUnits="userSpaceOnUse" x1="162.0216" y1="41.1103" x2="211.4628" y2="123.2014" gradientTransform="matrix(0.9986 0.0523 -0.0523 0.9986 -35.9295 7.446)">
					<stop  offset="0" style="stop-color:#FFC500"/>
					<stop  offset="1" style="stop-color:#FF5F00"/>
				</linearGradient>
				<path style="opacity:0.51;fill:url(#SVGID_00000052811324281520477530000017366907443905747854_);" d="M197.12,146.84
					c-0.36-4.22-1.39-8.46-3.17-12.56c-8.83-20.43-32.55-29.83-52.98-21c-4.63,2-8.69,4.78-12.1,8.1c0.58-0.28,1.16-0.57,1.76-0.82
					C156.25,109.48,186,121.25,197.12,146.84z"/>
			</g>
			
				<linearGradient id="SVGID_00000055665974513004363840000015995554654655348611_" gradientUnits="userSpaceOnUse" x1="152.1182" y1="58.8103" x2="209.6336" y2="110.405" gradientTransform="matrix(0.9986 0.0523 -0.0523 0.9986 -35.9295 7.446)">
				<stop  offset="0" style="stop-color:#00FBD8"/>
				<stop  offset="1" style="stop-color:#0079C0"/>
			</linearGradient>
			<path style="fill:url(#SVGID_00000055665974513004363840000015995554654655348611_);" d="M170.79,103.77
				c-3.38-2.05-7.31-3.35-11.4-3.69c4.09-0.31,8.33,0.35,12.27,1.95c0.05,0.02,0.09,0.04,0.14,0.06c-4.03-3.71-9.24-6.43-15.19-7.54
				c-15.71-2.94-30.62,6.28-33.3,20.61c0,0.01,0,0.03-0.01,0.04c8.59-9.6,22.61-14.57,37.14-11.84c6.88,1.29,13.03,4.15,18.08,8.09
				c-0.17-0.4-0.36-0.78-0.55-1.17C176.05,107.71,173.62,105.47,170.79,103.77z"/>
			
				<linearGradient id="SVGID_00000126287985010002253440000009150172304373140400_" gradientUnits="userSpaceOnUse" x1="229.247" y1="30.2728" x2="249.7642" y2="50.79" gradientTransform="matrix(0.9986 0.0523 -0.0523 0.9986 -35.9295 7.446)">
				<stop  offset="0" style="stop-color:#FFC500"/>
				<stop  offset="1" style="stop-color:#FF5F00"/>
			</linearGradient>
			<path style="fill:url(#SVGID_00000126287985010002253440000009150172304373140400_);" d="M201.65,43.61l0.33,7.04
				c0.02,0.49,0.7,0.61,0.89,0.16l2.7-6.52l-1.37,6.92c-0.1,0.49,0.53,0.76,0.83,0.36l4.18-5.68l-2.98,6.39
				c-0.21,0.45,0.34,0.87,0.72,0.55l5.42-4.51l-4.43,5.49c-0.31,0.39,0.12,0.92,0.56,0.71l6.34-3.09l-5.61,4.27
				c-0.39,0.3-0.11,0.93,0.38,0.82l6.9-1.48l-6.47,2.8c-0.45,0.2-0.32,0.87,0.17,0.89l7.05,0.21l-6.95,1.17
				c-0.49,0.08-0.52,0.77-0.05,0.9l6.79,1.89l-7.03-0.52c-0.49-0.04-0.69,0.62-0.26,0.87l6.14,3.46l-6.7-2.19
				c-0.47-0.15-0.82,0.44-0.46,0.78l5.13,4.83l-5.98-3.73c-0.42-0.26-0.9,0.23-0.63,0.64l3.83,5.92l-4.92-5.06
				c-0.35-0.36-0.93,0.01-0.77,0.47l2.3,6.67l-3.56-6.09c-0.25-0.43-0.91-0.22-0.86,0.28l0.64,7.02l-2-6.76
				c-0.14-0.47-0.83-0.43-0.9,0.06l-1.06,6.97l-0.33-7.04c-0.02-0.49-0.7-0.61-0.89-0.16l-2.7,6.52l1.37-6.92
				c0.1-0.49-0.53-0.76-0.83-0.36l-4.18,5.68l2.98-6.39c0.21-0.45-0.34-0.87-0.72-0.55l-5.42,4.51l4.43-5.49
				c0.31-0.39-0.12-0.92-0.56-0.71l-6.34,3.09l5.61-4.27c0.39-0.3,0.11-0.93-0.38-0.82l-6.9,1.48l6.47-2.8
				c0.45-0.2,0.32-0.87-0.17-0.89l-7.05-0.21l6.95-1.17c0.49-0.08,0.52-0.77,0.05-0.9l-6.79-1.89l7.03,0.52
				c0.49,0.04,0.69-0.62,0.26-0.87l-6.14-3.46l6.7,2.19c0.47,0.15,0.82-0.44,0.46-0.78l-5.13-4.83l5.98,3.73
				c0.42,0.26,0.9-0.23,0.63-0.64l-3.83-5.92l4.92,5.06c0.35,0.36,0.93-0.01,0.77-0.47l-2.3-6.67l3.56,6.09
				c0.25,0.43,0.91,0.22,0.86-0.28l-0.64-7.02l2,6.76c0.14,0.47,0.83,0.43,0.9-0.06L201.65,43.61z"/>
			<g>
				
					<linearGradient id="SVGID_00000125581304071334777820000001078014816795405746_" gradientUnits="userSpaceOnUse" x1="140.1542" y1="12.974" x2="224.4247" y2="97.2444" gradientTransform="matrix(0.9986 0.0523 -0.0523 0.9986 -35.9295 7.446)">
					<stop  offset="0" style="stop-color:#EF59FF"/>
					<stop  offset="1" style="stop-color:#A000C1"/>
				</linearGradient>
				<path style="fill:url(#SVGID_00000125581304071334777820000001078014816795405746_);" d="M203.01,126.85
					c-1.66-15.12-9.17-29.73-20.58-39.92c11.63,8.13,20.33,20.15,24.73,33.71c1.49,4.53,2.42,9.2,2.88,13.93
					c0.34-2.16,0.57-4.35,0.69-6.58c1.82-34.8-24.91-64.49-59.72-66.31c-17.14-0.9-33.03,5.13-44.97,15.64
					c6.13-1.17,12.5-1.63,19.01-1.29c41.83,2.19,74.37,36.43,75.09,77.68C202.8,145.04,203.97,135.9,203.01,126.85z"/>
				<g>
					
						<linearGradient id="SVGID_00000136395711420190563420000015363951911472184745_" gradientUnits="userSpaceOnUse" x1="146.5395" y1="3.4442" x2="230.0038" y2="86.9084" gradientTransform="matrix(0.9986 0.0523 -0.0523 0.9986 -35.9295 7.446)">
						<stop  offset="0" style="stop-color:#EF59FF"/>
						<stop  offset="1" style="stop-color:#A000C1"/>
					</linearGradient>
					<path style="opacity:0.35;fill:url(#SVGID_00000136395711420190563420000015363951911472184745_);" d="M207.16,120.64
						c1.49,4.53,2.42,9.19,2.87,13.9c0.34-2.15,0.57-4.33,0.69-6.55c1.82-34.8-24.91-64.49-59.72-66.31
						c-8.89-0.47-17.45,0.94-25.29,3.86c2.17-0.06,4.35-0.05,6.55,0.07c19.48,1.02,36.95,8.97,50.17,21.33
						C194.06,95.06,202.76,107.08,207.16,120.64z"/>
					
						<linearGradient id="SVGID_00000077305590624091403780000010514681106251789482_" gradientUnits="userSpaceOnUse" x1="219.9486" y1="65.3742" x2="228.0864" y2="73.512" gradientTransform="matrix(0.9986 0.0523 -0.0523 0.9986 -35.9295 7.446)">
						<stop  offset="0" style="stop-color:#EF59FF"/>
						<stop  offset="1" style="stop-color:#A000C1"/>
					</linearGradient>
					<path style="opacity:0.35;fill:url(#SVGID_00000077305590624091403780000010514681106251789482_);" d="M183.15,87.6
						c2.53,2.42,4.9,5.02,7.09,7.75C188.1,92.57,185.72,89.98,183.15,87.6z"/>
				</g>
			</g>
		</g>
	</g>
	<g>
		<path class="st197" d="M37.39,178.57c-0.09-0.23-0.23-0.35-0.41-0.35c-0.13,0-0.3,0.07-0.51,0.21c-0.49,0.34-0.94,0.63-1.36,0.85
			s-0.9,0.41-1.44,0.56c-0.54,0.14-1.15,0.21-1.82,0.21c-1.77,0-3.31-0.36-4.65-1.07c-1.33-0.72-2.36-1.75-3.09-3.12
			c-0.73-1.36-1.09-2.99-1.09-4.86c0-1.84,0.37-3.47,1.12-4.88s1.79-2.52,3.14-3.3c1.34-0.78,2.87-1.17,4.59-1.17
			c0.99,0,1.84,0.14,2.55,0.43c0.7,0.29,1.39,0.68,2.06,1.2c0.19,0.15,0.35,0.22,0.49,0.22c0.34,0,0.55-0.5,0.63-1.49h0.57
			c-0.06,1.13-0.1,3.15-0.1,6.05h-0.57c-0.11-0.84-0.22-1.52-0.35-2.04c-0.13-0.52-0.31-0.99-0.55-1.39
			c-0.24-0.4-0.57-0.76-0.98-1.1c-0.42-0.4-0.9-0.7-1.45-0.91c-0.55-0.21-1.13-0.31-1.72-0.31c-1.15,0-2.09,0.39-2.83,1.18
			s-1.28,1.83-1.62,3.12s-0.51,2.72-0.51,4.29s0.18,2.99,0.54,4.28c0.36,1.29,0.92,2.33,1.68,3.11c0.76,0.78,1.71,1.17,2.85,1.17
			c0.58,0,1.14-0.11,1.7-0.32c0.55-0.21,1.02-0.52,1.4-0.92c0.42-0.33,0.75-0.7,1-1.13c0.24-0.43,0.42-0.92,0.54-1.48
			c0.12-0.56,0.23-1.3,0.32-2.21h0.57c0,3.02,0.03,5.12,0.1,6.3h-0.57C37.55,179.17,37.48,178.8,37.39,178.57z"/>
		<path class="st197" d="M51.11,168.06c1.09,1.09,1.63,2.82,1.63,5.19c0,2.36-0.54,4.08-1.63,5.17c-1.09,1.09-2.58,1.63-4.49,1.63
			s-3.4-0.54-4.49-1.63c-1.09-1.09-1.64-2.81-1.64-5.17s0.54-4.09,1.64-5.18s2.59-1.64,4.49-1.64S50.02,166.97,51.11,168.06z
			 M44.9,168.48c-0.43,1.04-0.64,2.63-0.64,4.77c0,2.13,0.21,3.71,0.64,4.75c0.43,1.03,1,1.55,1.71,1.55c0.72,0,1.3-0.51,1.71-1.54
			s0.63-2.61,0.63-4.75c0-2.15-0.21-3.74-0.63-4.78c-0.42-1.04-0.99-1.56-1.71-1.56C45.9,166.91,45.33,167.43,44.9,168.48z"/>
		<path class="st197" d="M74.55,178.46c0.11,0.26,0.27,0.44,0.5,0.55s0.54,0.16,0.94,0.16v0.53c-1.66-0.07-2.76-0.1-3.31-0.1
			c-0.46,0-1.49,0.03-3.09,0.1v-0.53c0.3,0,0.54-0.05,0.71-0.16c0.17-0.11,0.29-0.29,0.37-0.54c0.08-0.26,0.12-0.62,0.12-1.09v-7.78
			c0-0.69-0.1-1.21-0.31-1.56c-0.21-0.35-0.6-0.52-1.19-0.52c-0.41,0-0.79,0.12-1.14,0.35c-0.35,0.24-0.64,0.56-0.87,0.96
			c-0.23,0.41-0.37,0.86-0.42,1.37v0.44v6.73c0,0.46,0.05,0.83,0.14,1.09c0.09,0.26,0.24,0.44,0.45,0.55
			c0.21,0.11,0.49,0.16,0.86,0.16v0.53c-1.59-0.07-2.64-0.1-3.15-0.1c-0.47,0-1.51,0.03-3.1,0.1v-0.53c0.3,0,0.54-0.05,0.71-0.16
			s0.29-0.29,0.37-0.55c0.08-0.26,0.12-0.62,0.12-1.09v-7.78c0-0.7-0.09-1.22-0.27-1.56s-0.54-0.51-1.07-0.51
			c-0.44,0-0.84,0.13-1.21,0.38s-0.67,0.6-0.88,1.04s-0.33,0.93-0.33,1.47v6.96c0,0.46,0.04,0.83,0.12,1.09
			c0.08,0.26,0.2,0.44,0.37,0.55c0.17,0.11,0.41,0.16,0.71,0.16v0.53c-1.46-0.07-2.45-0.1-2.94-0.1c-0.51,0-1.66,0.03-3.46,0.1
			v-0.53c0.4,0,0.71-0.05,0.95-0.16c0.23-0.11,0.4-0.29,0.5-0.55c0.1-0.26,0.15-0.62,0.15-1.09v-7.89c0-0.77-0.12-1.33-0.35-1.68
			c-0.24-0.35-0.65-0.52-1.25-0.52v-0.53c0.53,0.05,1.05,0.07,1.55,0.07c1.47,0,2.69-0.11,3.65-0.34v2.25
			c0.75-1.55,2.04-2.32,3.88-2.32c1.27,0,2.19,0.32,2.75,0.96c0.31,0.36,0.52,0.86,0.63,1.51c0.42-0.9,0.99-1.54,1.69-1.92
			c0.7-0.38,1.52-0.56,2.45-0.56c1.27,0,2.19,0.32,2.75,0.96c0.27,0.32,0.46,0.73,0.58,1.24c0.12,0.51,0.18,1.18,0.18,2.02v6.73
			C74.39,177.84,74.44,178.2,74.55,178.46z"/>
		<path class="st197" d="M97.17,178.46c0.11,0.26,0.27,0.44,0.5,0.55s0.54,0.16,0.94,0.16v0.53c-1.66-0.07-2.76-0.1-3.31-0.1
			c-0.46,0-1.49,0.03-3.09,0.1v-0.53c0.3,0,0.54-0.05,0.71-0.16c0.17-0.11,0.29-0.29,0.37-0.54c0.08-0.26,0.12-0.62,0.12-1.09v-7.78
			c0-0.69-0.1-1.21-0.31-1.56c-0.21-0.35-0.6-0.52-1.19-0.52c-0.41,0-0.79,0.12-1.14,0.35c-0.35,0.24-0.64,0.56-0.87,0.96
			c-0.23,0.41-0.37,0.86-0.42,1.37v0.44v6.73c0,0.46,0.05,0.83,0.14,1.09c0.09,0.26,0.24,0.44,0.45,0.55
			c0.21,0.11,0.49,0.16,0.86,0.16v0.53c-1.59-0.07-2.64-0.1-3.15-0.1c-0.47,0-1.51,0.03-3.1,0.1v-0.53c0.3,0,0.54-0.05,0.71-0.16
			s0.29-0.29,0.37-0.55c0.08-0.26,0.12-0.62,0.12-1.09v-7.78c0-0.7-0.09-1.22-0.27-1.56s-0.54-0.51-1.07-0.51
			c-0.44,0-0.84,0.13-1.21,0.38s-0.67,0.6-0.88,1.04s-0.33,0.93-0.33,1.47v6.96c0,0.46,0.04,0.83,0.12,1.09
			c0.08,0.26,0.2,0.44,0.37,0.55c0.17,0.11,0.41,0.16,0.71,0.16v0.53c-1.46-0.07-2.45-0.1-2.94-0.1c-0.51,0-1.66,0.03-3.46,0.1
			v-0.53c0.4,0,0.71-0.05,0.95-0.16c0.23-0.11,0.4-0.29,0.5-0.55c0.1-0.26,0.15-0.62,0.15-1.09v-7.89c0-0.77-0.12-1.33-0.35-1.68
			c-0.24-0.35-0.65-0.52-1.25-0.52v-0.53c0.53,0.05,1.05,0.07,1.55,0.07c1.47,0,2.69-0.11,3.65-0.34v2.25
			c0.75-1.55,2.04-2.32,3.88-2.32c1.27,0,2.19,0.32,2.75,0.96c0.31,0.36,0.52,0.86,0.63,1.51c0.42-0.9,0.99-1.54,1.69-1.92
			c0.7-0.38,1.52-0.56,2.45-0.56c1.27,0,2.19,0.32,2.75,0.96c0.27,0.32,0.46,0.73,0.58,1.24c0.12,0.51,0.18,1.18,0.18,2.02v6.73
			C97.01,177.84,97.06,178.2,97.17,178.46z"/>
		<path class="st197" d="M112.34,178.65c0.24,0.35,0.65,0.52,1.24,0.52v0.53c-0.52-0.05-1.04-0.07-1.55-0.07
			c-1.46,0-2.68,0.12-3.65,0.35v-2.26c-0.76,1.55-2.1,2.33-4.03,2.33c-1.25,0-2.15-0.33-2.72-0.98c-0.28-0.31-0.47-0.72-0.59-1.23
			s-0.18-1.18-0.18-2.01v-6.34c0-0.76-0.12-1.32-0.36-1.67c-0.24-0.35-0.65-0.53-1.24-0.53v-0.53c0.53,0.05,1.04,0.07,1.55,0.07
			c1.46,0,2.67-0.11,3.65-0.34v10.35c0,0.69,0.1,1.21,0.31,1.57c0.21,0.35,0.6,0.53,1.18,0.53c0.44,0,0.84-0.13,1.21-0.38
			c0.37-0.26,0.67-0.61,0.89-1.05c0.22-0.44,0.33-0.93,0.33-1.47v-6.55c0-0.76-0.12-1.32-0.36-1.67c-0.24-0.35-0.65-0.53-1.24-0.53
			v-0.53c0.53,0.05,1.04,0.07,1.55,0.07c1.46,0,2.67-0.11,3.65-0.34v10.47C111.98,177.75,112.1,178.31,112.34,178.65z"/>
		<path class="st197" d="M123.98,166.43c0.68,0,1.24,0.08,1.68,0.24c0.44,0.16,0.79,0.4,1.07,0.72s0.48,0.73,0.6,1.23
			c0.12,0.5,0.18,1.18,0.18,2.03v6.73c0,0.46,0.05,0.83,0.16,1.09c0.11,0.26,0.27,0.44,0.5,0.55s0.54,0.16,0.94,0.16v0.53
			c-1.66-0.07-2.76-0.1-3.3-0.1c-0.51,0-1.6,0.03-3.26,0.1v-0.53c0.34,0,0.61-0.05,0.81-0.16s0.34-0.29,0.42-0.55
			c0.09-0.26,0.13-0.62,0.13-1.09v-7.78c0-0.68-0.11-1.2-0.33-1.55c-0.22-0.35-0.63-0.52-1.21-0.52c-0.46,0-0.87,0.13-1.25,0.38
			c-0.38,0.25-0.68,0.6-0.9,1.04s-0.33,0.93-0.33,1.47v6.96c0,0.46,0.04,0.83,0.13,1.09c0.09,0.26,0.23,0.44,0.43,0.55
			s0.46,0.16,0.79,0.16v0.53c-1.53-0.07-2.56-0.1-3.1-0.1c-0.51,0-1.66,0.03-3.46,0.1v-0.53c0.4,0,0.71-0.05,0.95-0.16
			c0.23-0.11,0.4-0.29,0.5-0.55c0.1-0.26,0.15-0.62,0.15-1.09v-7.89c0-0.77-0.12-1.33-0.35-1.68c-0.24-0.35-0.65-0.52-1.25-0.52
			v-0.53c0.53,0.05,1.05,0.07,1.55,0.07c1.47,0,2.69-0.11,3.65-0.34v2.25C120.63,167.2,122,166.43,123.98,166.43z"/>
		<path class="st197" d="M135.38,178.46c0.11,0.26,0.27,0.44,0.5,0.55c0.23,0.11,0.54,0.16,0.94,0.16v0.53
			c-1.66-0.07-2.77-0.1-3.32-0.1c-0.53,0-1.69,0.03-3.48,0.1v-0.53c0.4,0,0.71-0.05,0.95-0.16c0.23-0.11,0.4-0.29,0.5-0.55
			c0.1-0.26,0.15-0.62,0.15-1.09v-7.89c0-0.77-0.12-1.33-0.35-1.68c-0.24-0.35-0.65-0.52-1.25-0.52v-0.53
			c0.53,0.05,1.05,0.07,1.55,0.07c1.47,0,2.69-0.11,3.65-0.34v10.88C135.22,177.84,135.27,178.2,135.38,178.46z M134.92,160.84
			c0.41,0.34,0.62,0.81,0.62,1.4c0,0.6-0.21,1.07-0.62,1.42s-0.96,0.51-1.65,0.51c-0.71,0-1.27-0.17-1.67-0.51s-0.61-0.81-0.61-1.42
			c0-0.59,0.2-1.06,0.61-1.4s0.96-0.51,1.67-0.51C133.96,160.32,134.51,160.49,134.92,160.84z"/>
		<path class="st197" d="M145.92,166.79v0.5h-2.96v10.08c0,0.5,0.09,0.85,0.27,1.06c0.18,0.21,0.46,0.31,0.83,0.31
			c0.71,0,1.27-0.5,1.7-1.5l0.43,0.23c-0.63,1.72-1.77,2.58-3.42,2.58c-1.1,0-1.93-0.28-2.5-0.85c-0.35-0.34-0.59-0.78-0.71-1.3
			c-0.13-0.52-0.19-1.25-0.19-2.18v-8.42h-2.1v-0.5h2.1v-3.32c1.38,0,2.58-0.27,3.6-0.81v4.13H145.92z"/>
		<path class="st197" d="M156.99,166.84c0.84,0,1.48-0.03,1.93-0.07v0.5c-0.35,0.09-0.67,0.3-0.95,0.62
			c-0.28,0.33-0.54,0.83-0.79,1.53l-4.47,12.57c-0.33,0.87-0.7,1.46-1.1,1.78c-0.49,0.42-1.22,0.62-2.18,0.62
			c-0.43,0-0.86-0.07-1.28-0.21c-0.42-0.14-0.77-0.36-1.04-0.67c-0.27-0.3-0.41-0.67-0.41-1.12c0-0.51,0.18-0.92,0.55-1.23
			s0.85-0.46,1.45-0.46c0.56,0,1.01,0.14,1.36,0.42s0.52,0.66,0.52,1.16c0,0.34-0.11,0.66-0.33,0.96c-0.22,0.3-0.53,0.52-0.92,0.67
			c0.12,0.02,0.31,0.02,0.57,0.02c1.04,0,1.8-0.66,2.28-1.98l0.4-1.2l-5.31-12.05c-0.26-0.58-0.52-0.96-0.78-1.14
			c-0.26-0.18-0.51-0.27-0.77-0.27v-0.53c1.1,0.1,2.24,0.15,3.43,0.15c0.98,0,2.14-0.05,3.48-0.15v0.53c-0.36,0-0.64,0.01-0.84,0.04
			c-0.2,0.02-0.38,0.08-0.52,0.18c-0.14,0.1-0.21,0.26-0.21,0.48c0,0.2,0.06,0.43,0.17,0.71l3.06,7.38l1.71-4.81
			c0.27-0.8,0.4-1.46,0.4-2c0-0.63-0.16-1.12-0.49-1.45c-0.33-0.33-0.78-0.51-1.37-0.56v-0.5
			C155.35,166.82,156.16,166.84,156.99,166.84z"/>
		<path class="st197" d="M184.96,168.06c-0.86,0.7-2.12,1.22-3.78,1.57l-0.46,0.16c0.75,0.33,1.33,0.86,1.73,1.59
			c0.4,0.74,0.6,1.58,0.6,2.55c0,1.16-0.36,2.21-1.08,3.14c-0.72,0.93-1.73,1.66-3.04,2.19c-1.31,0.53-2.81,0.79-4.5,0.79
			c-1.83,0-3.44-0.25-4.83-0.76c-1.39-0.5-2.47-1.23-3.23-2.17c-0.76-0.94-1.14-2.04-1.14-3.3c0-1.13,0.3-2.08,0.9-2.86
			c0.6-0.77,1.28-1.36,2.04-1.76c0.76-0.4,1.48-0.69,2.14-0.86c-1.89-0.75-2.83-1.8-2.83-3.15c0-0.68,0.23-1.27,0.7-1.76
			c0.47-0.49,1.08-0.86,1.84-1.11c0.76-0.25,1.57-0.37,2.44-0.37c0.62,0,1.13,0.04,1.53,0.13c0.4,0.09,0.76,0.22,1.07,0.4
			c1.02,0.5,1.53,1.18,1.53,2.03c0,0.33-0.09,0.61-0.26,0.86s-0.41,0.44-0.71,0.58c-0.3,0.14-0.62,0.21-0.96,0.21
			c-0.53,0-0.96-0.13-1.31-0.4s-0.51-0.65-0.51-1.15c0-0.42,0.15-0.8,0.45-1.14c0.3-0.34,0.68-0.55,1.15-0.63
			c-0.15-0.13-0.37-0.24-0.67-0.32c-0.3-0.09-0.63-0.13-0.99-0.13c-0.59,0-1.12,0.12-1.59,0.37s-0.85,0.61-1.12,1.1
			s-0.42,1.09-0.42,1.8c0,0.96,0.33,1.81,0.98,2.55c0.61-0.13,1.08-0.2,1.4-0.2c0.29,0,0.52,0.06,0.68,0.18
			c0.16,0.12,0.24,0.29,0.24,0.49c0,0.16-0.07,0.28-0.2,0.38c-0.13,0.1-0.3,0.15-0.51,0.15c-0.22,0-0.45-0.05-0.68-0.15
			c-0.24-0.1-0.44-0.2-0.6-0.31c-0.17-0.1-0.27-0.17-0.31-0.19c-0.85,0.43-1.5,0.97-1.96,1.6c-0.46,0.64-0.69,1.45-0.69,2.44
			c0,1.61,0.64,2.82,1.93,3.64c1.29,0.81,3.08,1.22,5.36,1.22c1.16,0,2.26-0.17,3.32-0.51c1.06-0.34,1.92-0.84,2.58-1.5
			s0.99-1.44,0.99-2.36c0-1.51-0.63-2.58-1.9-3.19c-0.48,0.15-1.04,0.31-1.67,0.48s-1.08,0.3-1.34,0.38
			c-0.93,0.2-1.68,0.41-2.26,0.63c-0.58,0.22-1.03,0.47-1.33,0.76c-0.3,0.29-0.46,0.64-0.46,1.04c0,0.4,0.13,0.75,0.4,1.06
			c0.26,0.31,0.61,0.54,1.03,0.71c0.42,0.17,0.85,0.25,1.29,0.25c0.17,0,0.36-0.02,0.57-0.07s0.35-0.11,0.42-0.17
			c-0.41-0.14-0.72-0.35-0.93-0.63c-0.21-0.28-0.32-0.62-0.32-1.01c0-0.51,0.19-0.92,0.56-1.21s0.85-0.44,1.44-0.44
			c0.59,0,1.06,0.15,1.41,0.46c0.35,0.31,0.52,0.72,0.52,1.23c0,0.75-0.33,1.31-1,1.7c-0.67,0.38-1.52,0.57-2.55,0.57
			c-0.69,0-1.32-0.12-1.88-0.35c-0.56-0.24-1.01-0.59-1.34-1.07c-0.33-0.48-0.5-1.07-0.5-1.77c0-1.25,0.48-2.23,1.43-2.97
			c0.95-0.73,2.34-1.28,4.16-1.64c0.31-0.08,0.87-0.22,1.67-0.41c0.81-0.2,1.49-0.39,2.06-0.59c1.29-0.32,2.24-0.66,2.85-1.04
			c0.61-0.37,0.92-0.85,0.92-1.43c0-0.43-0.14-0.82-0.41-1.17c-0.27-0.35-0.63-0.62-1.06-0.82s-0.89-0.29-1.36-0.29
			c-0.32,0-0.56,0.04-0.72,0.12c0.38,0.15,0.68,0.37,0.9,0.66c0.21,0.29,0.32,0.6,0.32,0.92c0,0.5-0.19,0.89-0.56,1.18
			s-0.85,0.43-1.44,0.43c-0.58,0-1.05-0.15-1.4-0.45c-0.36-0.3-0.54-0.7-0.54-1.21c0-0.65,0.28-1.16,0.85-1.54
			c0.57-0.38,1.33-0.56,2.28-0.56c0.78,0,1.47,0.14,2.07,0.42c0.6,0.28,1.06,0.69,1.4,1.22c0.33,0.53,0.5,1.16,0.5,1.89
			C186.24,166.4,185.81,167.36,184.96,168.06z"/>
		<path class="st197" d="M201.47,162.07c2.45,0,4.19-0.02,5.22-0.07c-0.11,1.42-0.17,2.69-0.17,3.8c0,0.79,0.02,1.42,0.07,1.9h-0.57
			c-0.22-1.28-0.52-2.29-0.89-3.04c-0.37-0.75-0.84-1.28-1.38-1.61c-0.55-0.32-1.22-0.48-2.02-0.48h-0.83
			c-0.52,0-0.9,0.04-1.13,0.13c-0.23,0.08-0.39,0.25-0.47,0.49c-0.08,0.24-0.12,0.63-0.12,1.17v6.3h0.88c0.89,0,1.56-0.33,2.01-0.98
			c0.46-0.65,0.77-1.43,0.95-2.33h0.57c-0.06,0.82-0.09,1.61-0.09,2.36l0.01,1.2c0,0.87,0.05,2.05,0.16,3.55h-0.59
			c-0.34-2.2-1.35-3.3-3.04-3.3h-0.88v5.75c0,0.67,0.07,1.15,0.21,1.46c0.14,0.31,0.39,0.51,0.75,0.62
			c0.36,0.11,0.93,0.16,1.71,0.17v0.55c-2.05-0.05-3.58-0.07-4.58-0.07c-0.48,0-1.79,0.02-3.94,0.07v-0.5
			c0.55-0.03,0.96-0.09,1.21-0.2c0.25-0.11,0.43-0.3,0.52-0.59c0.09-0.29,0.14-0.74,0.14-1.37v-12.4c0-0.63-0.05-1.08-0.14-1.37
			c-0.09-0.29-0.27-0.48-0.52-0.59c-0.25-0.11-0.65-0.17-1.21-0.2v-0.5C195.12,162.04,197.84,162.07,201.47,162.07z"/>
		<path class="st197" d="M218.18,168.06c1.09,1.09,1.63,2.82,1.63,5.19c0,2.36-0.54,4.08-1.63,5.17c-1.09,1.09-2.58,1.63-4.49,1.63
			s-3.4-0.54-4.49-1.63c-1.09-1.09-1.64-2.81-1.64-5.17s0.54-4.09,1.64-5.18s2.59-1.64,4.49-1.64S217.1,166.97,218.18,168.06z
			 M211.98,168.48c-0.43,1.04-0.64,2.63-0.64,4.77c0,2.13,0.21,3.71,0.64,4.75c0.43,1.03,1,1.55,1.71,1.55
			c0.72,0,1.3-0.51,1.71-1.54s0.63-2.61,0.63-4.75c0-2.15-0.21-3.74-0.63-4.78c-0.42-1.04-0.99-1.56-1.71-1.56
			C212.98,166.91,212.41,167.43,211.98,168.48z"/>
		<path class="st197" d="M234.17,178.65c0.24,0.35,0.65,0.52,1.24,0.52v0.53c-0.52-0.05-1.04-0.07-1.55-0.07
			c-1.46,0-2.68,0.12-3.65,0.35v-2.26c-0.76,1.55-2.1,2.33-4.03,2.33c-1.25,0-2.15-0.33-2.72-0.98c-0.28-0.31-0.47-0.72-0.59-1.23
			s-0.18-1.18-0.18-2.01v-6.34c0-0.76-0.12-1.32-0.36-1.67c-0.24-0.35-0.65-0.53-1.24-0.53v-0.53c0.53,0.05,1.04,0.07,1.55,0.07
			c1.46,0,2.67-0.11,3.65-0.34v10.35c0,0.69,0.1,1.21,0.31,1.57c0.21,0.35,0.6,0.53,1.18,0.53c0.44,0,0.84-0.13,1.21-0.38
			c0.37-0.26,0.67-0.61,0.89-1.05c0.22-0.44,0.33-0.93,0.33-1.47v-6.55c0-0.76-0.12-1.32-0.36-1.67c-0.24-0.35-0.65-0.53-1.24-0.53
			v-0.53c0.53,0.05,1.04,0.07,1.55,0.07c1.46,0,2.67-0.11,3.65-0.34v10.47C233.81,177.75,233.93,178.31,234.17,178.65z"/>
		<path class="st197" d="M245.81,166.43c0.68,0,1.24,0.08,1.68,0.24c0.44,0.16,0.79,0.4,1.07,0.72s0.48,0.73,0.6,1.23
			c0.12,0.5,0.18,1.18,0.18,2.03v6.73c0,0.46,0.05,0.83,0.16,1.09c0.11,0.26,0.27,0.44,0.5,0.55s0.54,0.16,0.94,0.16v0.53
			c-1.66-0.07-2.76-0.1-3.3-0.1c-0.51,0-1.6,0.03-3.26,0.1v-0.53c0.34,0,0.61-0.05,0.81-0.16s0.34-0.29,0.42-0.55
			c0.09-0.26,0.13-0.62,0.13-1.09v-7.78c0-0.68-0.11-1.2-0.33-1.55c-0.22-0.35-0.63-0.52-1.21-0.52c-0.46,0-0.87,0.13-1.25,0.38
			c-0.38,0.25-0.68,0.6-0.9,1.04s-0.33,0.93-0.33,1.47v6.96c0,0.46,0.04,0.83,0.13,1.09c0.09,0.26,0.23,0.44,0.43,0.55
			s0.46,0.16,0.79,0.16v0.53c-1.53-0.07-2.56-0.1-3.1-0.1c-0.51,0-1.66,0.03-3.46,0.1v-0.53c0.4,0,0.71-0.05,0.95-0.16
			c0.23-0.11,0.4-0.29,0.5-0.55c0.1-0.26,0.15-0.62,0.15-1.09v-7.89c0-0.77-0.12-1.33-0.35-1.68c-0.24-0.35-0.65-0.52-1.25-0.52
			v-0.53c0.53,0.05,1.05,0.07,1.55,0.07c1.47,0,2.69-0.11,3.65-0.34v2.25C242.47,167.2,243.84,166.43,245.81,166.43z"/>
		<path class="st197" d="M264.51,178.63c0.23,0.35,0.65,0.52,1.25,0.52v0.52c-0.53-0.05-1.05-0.07-1.55-0.07
			c-1.47,0-2.69,0.11-3.65,0.34v-2.15c-0.56,1.51-1.64,2.26-3.25,2.26c-1.02,0-1.91-0.25-2.68-0.74c-0.77-0.49-1.37-1.25-1.79-2.28
			c-0.43-1.03-0.64-2.32-0.63-3.86c-0.01-1.46,0.23-2.7,0.7-3.71c0.48-1.01,1.13-1.77,1.98-2.27c0.84-0.5,1.81-0.76,2.9-0.76
			c1.23,0,2.15,0.31,2.77,0.94v-4.25c0-0.77-0.12-1.33-0.36-1.68c-0.24-0.35-0.65-0.52-1.24-0.52v-0.52
			c0.53,0.05,1.04,0.07,1.55,0.07c1.46,0,2.68-0.12,3.65-0.35v16.83C264.16,177.72,264.28,178.28,264.51,178.63z M258.73,167.15
			c-0.88,0-1.56,0.51-2.04,1.53c-0.48,1.02-0.72,2.54-0.71,4.55c-0.03,3.83,0.76,5.75,2.36,5.75c0.36,0,0.7-0.09,1.01-0.27
			c0.32-0.18,0.58-0.44,0.8-0.78s0.35-0.73,0.41-1.18V168C260.14,167.43,259.53,167.15,258.73,167.15z"/>
		<path class="st197" d="M273.24,167.51c-0.33-0.4-0.84-0.6-1.54-0.6c-0.33,0-0.65,0.05-0.98,0.15c-0.33,0.1-0.59,0.25-0.8,0.46
			c0.46,0.15,0.83,0.4,1.09,0.73c0.26,0.33,0.39,0.74,0.39,1.24c0,0.34-0.08,0.65-0.25,0.92c-0.17,0.27-0.41,0.49-0.71,0.65
			c-0.31,0.16-0.66,0.24-1.06,0.24c-0.54,0-0.97-0.18-1.29-0.55c-0.32-0.37-0.48-0.83-0.48-1.38c0-0.86,0.46-1.56,1.39-2.1
			c1.02-0.56,2.29-0.84,3.81-0.84c1.71,0,2.92,0.38,3.65,1.12c0.35,0.35,0.59,0.79,0.71,1.31s0.18,1.25,0.18,2.19v6.8
			c0,0.41,0.04,0.69,0.12,0.86c0.08,0.17,0.21,0.25,0.41,0.25c0.27,0,0.58-0.14,0.93-0.43l0.26,0.43c-0.38,0.32-0.8,0.55-1.25,0.7
			c-0.45,0.15-0.98,0.22-1.61,0.22c-0.85,0-1.46-0.19-1.83-0.56c-0.38-0.37-0.56-0.86-0.56-1.46c-0.41,0.68-0.94,1.18-1.6,1.52
			c-0.66,0.34-1.36,0.51-2.11,0.51c-0.95,0-1.71-0.25-2.29-0.75c-0.57-0.5-0.86-1.2-0.86-2.09c0-0.87,0.28-1.59,0.85-2.16
			c0.57-0.57,1.45-1.07,2.65-1.51c0.13-0.05,0.55-0.21,1.27-0.48c0.72-0.27,1.23-0.55,1.55-0.84c0.32-0.29,0.48-0.6,0.48-0.94v-1.94
			C273.73,168.46,273.57,167.91,273.24,167.51z M273.21,172.67c-0.24,0.19-0.58,0.43-1.03,0.7c-0.53,0.37-0.94,0.78-1.24,1.24
			c-0.3,0.46-0.45,1.03-0.45,1.71c0,0.65,0.14,1.14,0.43,1.46c0.29,0.32,0.66,0.48,1.12,0.48c0.66,0,1.23-0.34,1.7-1.03v-5.13
			C273.63,172.29,273.45,172.48,273.21,172.67z"/>
		<path class="st197" d="M287.79,166.79v0.5h-2.96v10.08c0,0.5,0.09,0.85,0.27,1.06c0.18,0.21,0.46,0.31,0.83,0.31
			c0.71,0,1.27-0.5,1.7-1.5l0.43,0.23c-0.63,1.72-1.77,2.58-3.42,2.58c-1.1,0-1.93-0.28-2.5-0.85c-0.35-0.34-0.59-0.78-0.71-1.3
			c-0.13-0.52-0.19-1.25-0.19-2.18v-8.42h-2.1v-0.5h2.1v-3.32c1.38,0,2.58-0.27,3.6-0.81v4.13H287.79z"/>
		<path class="st197" d="M293.92,178.46c0.11,0.26,0.27,0.44,0.5,0.55c0.23,0.11,0.54,0.16,0.94,0.16v0.53
			c-1.66-0.07-2.77-0.1-3.32-0.1c-0.53,0-1.69,0.03-3.48,0.1v-0.53c0.4,0,0.71-0.05,0.95-0.16c0.23-0.11,0.4-0.29,0.5-0.55
			c0.1-0.26,0.15-0.62,0.15-1.09v-7.89c0-0.77-0.12-1.33-0.35-1.68c-0.24-0.35-0.65-0.52-1.25-0.52v-0.53
			c0.53,0.05,1.05,0.07,1.55,0.07c1.47,0,2.69-0.11,3.65-0.34v10.88C293.76,177.84,293.82,178.2,293.92,178.46z M293.46,160.84
			c0.41,0.34,0.62,0.81,0.62,1.4c0,0.6-0.21,1.07-0.62,1.42s-0.96,0.51-1.65,0.51c-0.71,0-1.27-0.17-1.67-0.51s-0.61-0.81-0.61-1.42
			c0-0.59,0.2-1.06,0.61-1.4s0.96-0.51,1.67-0.51C292.5,160.32,293.05,160.49,293.46,160.84z"/>
		<path class="st197" d="M307.38,168.06c1.09,1.09,1.63,2.82,1.63,5.19c0,2.36-0.54,4.08-1.63,5.17c-1.09,1.09-2.58,1.63-4.49,1.63
			s-3.4-0.54-4.49-1.63c-1.09-1.09-1.64-2.81-1.64-5.17s0.54-4.09,1.64-5.18s2.59-1.64,4.49-1.64S306.29,166.97,307.38,168.06z
			 M301.18,168.48c-0.43,1.04-0.64,2.63-0.64,4.77c0,2.13,0.21,3.71,0.64,4.75c0.43,1.03,1,1.55,1.71,1.55
			c0.72,0,1.3-0.51,1.71-1.54s0.63-2.61,0.63-4.75c0-2.15-0.21-3.74-0.63-4.78c-0.42-1.04-0.99-1.56-1.71-1.56
			C302.18,166.91,301.61,167.43,301.18,168.48z"/>
		<path class="st197" d="M319.86,166.43c0.68,0,1.24,0.08,1.68,0.24c0.44,0.16,0.79,0.4,1.07,0.72s0.48,0.73,0.6,1.23
			c0.12,0.5,0.18,1.18,0.18,2.03v6.73c0,0.46,0.05,0.83,0.16,1.09c0.11,0.26,0.27,0.44,0.5,0.55s0.54,0.16,0.94,0.16v0.53
			c-1.66-0.07-2.76-0.1-3.3-0.1c-0.51,0-1.6,0.03-3.26,0.1v-0.53c0.34,0,0.61-0.05,0.81-0.16s0.34-0.29,0.42-0.55
			c0.09-0.26,0.13-0.62,0.13-1.09v-7.78c0-0.68-0.11-1.2-0.33-1.55c-0.22-0.35-0.63-0.52-1.21-0.52c-0.46,0-0.87,0.13-1.25,0.38
			c-0.38,0.25-0.68,0.6-0.9,1.04s-0.33,0.93-0.33,1.47v6.96c0,0.46,0.04,0.83,0.13,1.09c0.09,0.26,0.23,0.44,0.43,0.55
			s0.46,0.16,0.79,0.16v0.53c-1.53-0.07-2.56-0.1-3.1-0.1c-0.51,0-1.66,0.03-3.46,0.1v-0.53c0.4,0,0.71-0.05,0.95-0.16
			c0.23-0.11,0.4-0.29,0.5-0.55c0.1-0.26,0.15-0.62,0.15-1.09v-7.89c0-0.77-0.12-1.33-0.35-1.68c-0.24-0.35-0.65-0.52-1.25-0.52
			v-0.53c0.53,0.05,1.05,0.07,1.55,0.07c1.47,0,2.69-0.11,3.65-0.34v2.25C316.52,167.2,317.88,166.43,319.86,166.43z"/>
	</g>
</g>
</svg>
