<?xml version="1.0" encoding="utf-8"?>
<!-- Generator: Adobe Illustrator 27.8.1, SVG Export Plug-In . SVG Version: 6.00 Build 0)  -->
<svg version="1.1" id="Layer_1" xmlns="http://www.w3.org/2000/svg" xmlns:xlink="http://www.w3.org/1999/xlink" x="0px" y="0px"
	 viewBox="0 0 348 228" style="enable-background:new 0 0 348 228;" xml:space="preserve">
<style type="text/css">
	.st0{fill:#D6EADE;}
	.st1{fill:#03487C;}
	.st2{fill:#1B1B4C;}
	.st3{fill:none;}
	.st4{fill-rule:evenodd;clip-rule:evenodd;fill:#204F7A;}
	.st5{fill-rule:evenodd;clip-rule:evenodd;fill:#50A4FF;}
	.st6{fill:#002649;}
	.st7{fill:#E6E7E8;stroke:#CFCFCF;stroke-width:0.1061;}
	.st8{fill:#333333;}
	.st9{fill-rule:evenodd;clip-rule:evenodd;fill:#277FC1;}
	.st10{fill-rule:evenodd;clip-rule:evenodd;fill:#083D6D;}
	.st11{fill:#DDB462;}
	
		.st12{clip-path:url(#SVGID_00000128443180030769890280000014104270981102901892_);fill:url(#SVGID_00000165914841070341592090000001117048648753663633_);}
	.st13{fill:#FFFFFF;}
	.st14{fill:url(#SVGID_00000128452075281224676630000007432235771511108011_);}
	.st15{fill:#224685;}
	.st16{fill:#FFC73B;}
	.st17{fill:#11233F;}
	.st18{fill:#5267FF;}
	.st19{fill-rule:evenodd;clip-rule:evenodd;fill:#72342E;}
	.st20{fill:#72342E;}
	.st21{fill:#FFF2E2;}
	.st22{fill:#FFF2E2;stroke:#72342E;stroke-width:0.75;stroke-miterlimit:10;}
	.st23{fill:#FFCC99;}
	.st24{fill:#469CB2;}
	.st25{fill:url(#XMLID_00000127013070298601906720000002221133032039357358_);}
	.st26{fill:url(#XMLID_00000057861797527818761750000002722448004611518096_);}
	.st27{fill:url(#XMLID_00000101782332496008693660000017807859183522662820_);}
	.st28{fill:url(#XMLID_00000026876843096045756900000014097229339232300674_);}
	.st29{fill:url(#XMLID_00000141456377900759234700000012048285148385053842_);}
	.st30{fill:url(#XMLID_00000072251170231662271020000002098970635260697735_);}
	.st31{fill:url(#XMLID_00000178900667474649663670000004595364807133738923_);}
	.st32{fill:url(#XMLID_00000153671761995577395850000014243360790008251791_);}
	.st33{fill:url(#XMLID_00000167358702878045157380000011061973713999331481_);}
	.st34{fill:url(#XMLID_00000165928714248609803210000012286221809162516394_);}
	.st35{fill:url(#XMLID_00000061435226920608201280000005653485383445752474_);}
	.st36{fill:url(#XMLID_00000031170510351174829270000013389227297095228605_);}
	.st37{fill:url(#XMLID_00000057144275240989342090000011391569154775557037_);}
	.st38{fill:url(#XMLID_00000129894506813058778400000002817356021109301164_);}
	.st39{fill:url(#XMLID_00000181787731337832790900000005876228549295556277_);}
	.st40{fill:url(#SVGID_00000085228968598033105110000008135377897479936136_);}
	.st41{fill:url(#SVGID_00000047047857270822032030000006263613964205567621_);}
	.st42{fill:url(#SVGID_00000176016316133172547440000002500871504138838207_);}
	.st43{fill:url(#SVGID_00000047037250265786269530000002886830231864394163_);}
	.st44{fill:url(#SVGID_00000006701708766684489690000005285443991115924926_);}
	.st45{fill:url(#SVGID_00000160898225951637832470000003845495267461559971_);}
	.st46{fill:url(#SVGID_00000047751881130348613370000010211086116670378162_);}
	.st47{fill:url(#SVGID_00000124862379210160735330000000271535284856343229_);}
	.st48{fill:url(#SVGID_00000062160817839556077490000005233918896304492950_);}
	.st49{fill:url(#SVGID_00000100342548744587551480000000917598910492449940_);}
	.st50{fill:url(#SVGID_00000070816852057164385630000004808888611309910698_);}
	.st51{fill:url(#SVGID_00000001638903786268311880000000020061660525615759_);}
	.st52{fill:url(#SVGID_00000070116948408778426730000013345206540112827781_);}
	.st53{fill:url(#SVGID_00000016758135828800172020000018213631210198430336_);}
	.st54{fill:#30325E;}
	.st55{fill:#FF7859;}
	.st56{fill:#FFD550;}
	.st57{fill:#00C3AD;}
	.st58{fill:#FF4653;}
	.st59{fill:#D8CE19;}
	.st60{fill:#FFE4D2;}
	.st61{fill:#A2E0EB;}
	.st62{fill:#1B3493;}
	.st63{fill:none;stroke:#FFFFFF;stroke-width:2;stroke-linecap:round;stroke-linejoin:round;stroke-miterlimit:10;}
	.st64{fill:#F15A24;}
	.st65{fill:#F7931E;}
	.st66{fill:#58595B;}
	.st67{fill:#114E15;}
	.st68{fill:#013D01;}
	.st69{fill:#E9C608;}
	.st70{fill:#043B00;}
	.st71{fill:#D8A43E;}
	.st72{clip-path:url(#SVGID_00000179634303935880698730000001217576904367660167_);}
	.st73{fill:#F49630;}
	.st74{clip-path:url(#SVGID_00000140004673564671219940000017946834292300046211_);}
	.st75{clip-path:url(#SVGID_00000163032774945440500890000008264409233279391105_);}
	.st76{clip-path:url(#SVGID_00000102504747881728782050000003098384340719998112_);}
	.st77{clip-path:url(#SVGID_00000141437674388499065110000008899249133581739904_);}
	.st78{fill-rule:evenodd;clip-rule:evenodd;fill:#FF6600;}
	.st79{fill-rule:evenodd;clip-rule:evenodd;fill:#05174F;}
	.st80{fill:#05174F;}
	.st81{opacity:0.42;fill:url(#SVGID_00000106110762379504779920000015503834983940152764_);enable-background:new    ;}
	.st82{opacity:0.42;fill:url(#SVGID_00000018960016033133405100000008184490769367369907_);enable-background:new    ;}
	.st83{fill:url(#SVGID_00000058571206482560190460000003751650140928640952_);}
	.st84{fill:url(#SVGID_00000037652271475699994710000009727682926536847745_);}
	.st85{opacity:0.64;fill:url(#SVGID_00000053534181109258096010000015331801229407927424_);enable-background:new    ;}
	.st86{opacity:0.75;fill:url(#SVGID_00000140730549185054300230000007665867653379894404_);enable-background:new    ;}
	.st87{fill:url(#SVGID_00000123414839916504516450000012454240832985923461_);}
	.st88{fill:url(#SVGID_00000057141152627414997310000002865176293643441302_);}
	.st89{opacity:0.76;fill:url(#SVGID_00000124119450008259031870000005972068366196379837_);enable-background:new    ;}
	.st90{opacity:0.75;fill:url(#SVGID_00000098194687161327015300000013998207912996614803_);enable-background:new    ;}
	.st91{fill:url(#SVGID_00000084491340204771818900000016676552543223574184_);}
	.st92{opacity:0.42;fill:url(#SVGID_00000114060346776605022140000008454049133422124458_);enable-background:new    ;}
	.st93{opacity:0.42;fill:url(#SVGID_00000102507683256818469550000018214476951603206033_);enable-background:new    ;}
	.st94{clip-path:url(#SVGID_00000021107666605803779680000001270231785648002741_);}
	.st95{fill:#1ED7FE;}
	.st96{clip-path:url(#SVGID_00000076584160791135809660000011733143406660571778_);}
	.st97{clip-path:url(#SVGID_00000142856862148638196000000003051128233259960763_);}
	.st98{fill:#000056;}
	.st99{clip-path:url(#SVGID_00000170268756816523048320000011649720848352418212_);}
	.st100{fill:#053272;}
	.st101{fill:none;stroke:#053272;stroke-width:4;stroke-miterlimit:10;}
	.st102{fill:url(#SVGID_00000019651933646041323480000011532180600974565802_);}
	.st103{fill:url(#SVGID_00000000939733596094528900000001025428949106015150_);}
	.st104{fill:url(#SVGID_00000160872888616090623040000009441195655735399045_);}
	.st105{fill:url(#SVGID_00000000184388453473108710000007971478896102444721_);}
	.st106{fill:url(#SVGID_00000052071073911565684400000000372368477001922745_);}
	.st107{fill:url(#SVGID_00000023960322701371307020000009240557521701190019_);}
	.st108{fill:url(#SVGID_00000065785317930268024790000011939562049976718993_);}
	.st109{fill:url(#SVGID_00000111161357686457742030000016641737731548703141_);}
	.st110{fill:url(#SVGID_00000018212101003033847890000009185285272794572710_);}
	.st111{fill:url(#SVGID_00000083068154840391122320000001212539756455868072_);}
	.st112{fill:url(#SVGID_00000155147180721118912300000015896715434772790692_);}
	.st113{fill:url(#SVGID_00000066503099668692477510000010898122039816849539_);}
	.st114{fill:url(#SVGID_00000170993448508252872640000013187635574762153359_);}
	.st115{fill:url(#SVGID_00000131365544571604104850000011237380747054435715_);}
	.st116{fill:url(#SVGID_00000034796303263381676660000015730751760169516692_);}
	.st117{fill:url(#SVGID_00000046310588580012575430000005239412163981651102_);}
	.st118{fill:url(#SVGID_00000076590177034589058260000004559838228554481598_);}
	.st119{fill:url(#SVGID_00000116217670768667835180000008069793117909629860_);}
	.st120{fill:url(#SVGID_00000080921872012960864940000017923745233391015825_);}
	.st121{fill:url(#SVGID_00000018931187715663670930000016947596355818496924_);}
	.st122{fill:url(#SVGID_00000145038951421567710440000006211857193553854081_);}
	.st123{fill:url(#SVGID_00000024682907299520801990000004418405190333344688_);}
	.st124{fill:url(#SVGID_00000004530781027320672730000015225424202054337709_);}
	.st125{fill:url(#SVGID_00000051346170502690751450000001246166571485397410_);}
	.st126{fill:url(#SVGID_00000058561517941651788210000003881788932453445284_);}
	.st127{fill:url(#SVGID_00000155833165868194177600000000929932913861533116_);}
	.st128{fill:url(#SVGID_00000047051008115487183370000006949330084134728604_);}
	.st129{fill:url(#SVGID_00000021798184051393844070000012019216155408508551_);}
	.st130{fill:url(#SVGID_00000090289807807596518580000008768265390376779692_);}
	.st131{fill:none;stroke:#FEF73D;stroke-linecap:round;stroke-miterlimit:10;}
	.st132{fill:none;stroke:#FF189C;stroke-miterlimit:10;}
	.st133{fill:none;stroke:#00EFF1;stroke-linecap:round;stroke-miterlimit:10;}
	.st134{fill:#00EFF1;}
	.st135{fill:#FFA022;}
	.st136{fill:#0C103A;}
	.st137{fill-rule:evenodd;clip-rule:evenodd;fill:#5D9541;}
	.st138{fill-rule:evenodd;clip-rule:evenodd;fill:#F06021;}
	.st139{fill-rule:evenodd;clip-rule:evenodd;fill:#69BC60;}
	.st140{fill-rule:evenodd;clip-rule:evenodd;fill:#F6951C;}
	.st141{fill:#F6951C;}
	.st142{fill:url(#SVGID_00000178925871375366062670000007337906972008367252_);}
	.st143{fill:url(#SVGID_00000034049628727623342680000016335207384640688296_);}
	.st144{fill:url(#SVGID_00000043434971256936257060000013101775163612457133_);}
	.st145{opacity:0.93;fill:url(#SVGID_00000068658698052908262070000010337076522682677139_);}
	.st146{opacity:0.93;fill:url(#SVGID_00000011018978282283807440000016865274765375949244_);}
	.st147{opacity:0.93;fill:url(#SVGID_00000118359363159466170900000009254311440357507256_);}
	.st148{opacity:0.93;fill:url(#SVGID_00000116917129990949560380000000628027163515242916_);}
	.st149{fill:url(#SVGID_00000082328834600701457510000012784667905820419985_);}
	.st150{fill:url(#SVGID_00000131359053842552480000000010527533666818336658_);}
	.st151{fill:url(#SVGID_00000085239289776819905230000011811666834188346296_);}
	.st152{fill:url(#SVGID_00000177484366477429129180000001640012720631926932_);}
	.st153{fill:url(#SVGID_00000103962552008850180800000000959221641659655833_);}
	.st154{fill:url(#SVGID_00000105384525208711720460000007173569287811334804_);}
	.st155{fill:url(#SVGID_00000057143945757988419560000005425415524892589235_);}
	.st156{fill:url(#SVGID_00000062190064974868696500000006047165138574511250_);}
	.st157{fill:url(#SVGID_00000099663536948272826530000016802013842448722576_);}
	.st158{fill:url(#SVGID_00000162325558595232170920000002091036372873063089_);}
	.st159{fill:url(#SVGID_00000116948506319523128760000004068434529098107289_);}
	.st160{fill:url(#SVGID_00000053503589630030295010000008585710739011433358_);}
	.st161{fill:url(#SVGID_00000101099174703994049900000011063290940574717312_);}
	.st162{fill:url(#SVGID_00000134955442407345812040000000261494301196452740_);}
	.st163{fill:url(#SVGID_00000042011818680198162620000017413619868255466646_);}
	.st164{fill:url(#SVGID_00000074434489598807202530000000317079981995561919_);}
	.st165{fill:url(#SVGID_00000134237232181439346040000001672726543638012348_);}
	.st166{fill:url(#SVGID_00000065773543407238802580000013413838582315938218_);}
	.st167{fill:url(#SVGID_00000071522298877922350120000003162964985610310068_);}
	.st168{fill:url(#SVGID_00000089550773840497652990000014186353784963460287_);}
	.st169{fill:url(#SVGID_00000144300452782767398180000017615722725018630547_);}
	.st170{fill:url(#SVGID_00000098904558767945927240000003896911309155334587_);}
	.st171{fill:url(#SVGID_00000070833037290126059340000000683446735340662922_);}
	.st172{fill:url(#SVGID_00000007388163196681794180000015502650529346733458_);}
	.st173{fill:url(#SVGID_00000066497681908051288520000008864421633400998304_);}
	.st174{fill:url(#SVGID_00000068647325027851185360000009352184597385365937_);}
	.st175{fill:url(#SVGID_00000157297144507877599550000012444134319240419999_);}
	.st176{fill:url(#SVGID_00000177456973256469181300000011520063918246272946_);}
	.st177{fill:url(#SVGID_00000039828995365501285500000017111768218421981356_);}
	.st178{fill:url(#SVGID_00000031185517497902416870000002271965923615403911_);}
	.st179{fill:url(#SVGID_00000166641864246727425910000010434165404782906268_);}
	.st180{fill:url(#SVGID_00000036227220359579632920000003747521849675539897_);}
	.st181{fill:url(#SVGID_00000028325124750174486560000001019188304409941942_);}
	.st182{fill:url(#SVGID_00000139293988587537559190000005688886815701564071_);}
	.st183{fill:url(#SVGID_00000142863557617803089800000013880108366300905864_);}
	.st184{fill:url(#SVGID_00000100346040562749158500000002582768050448773548_);}
	.st185{fill:url(#SVGID_00000181082234243671812840000004406488457224192699_);}
	.st186{fill:url(#SVGID_00000121974432492770273880000017079983915966336941_);}
	.st187{fill:url(#SVGID_00000039835713054331629250000000661187335761865887_);}
	.st188{fill:url(#SVGID_00000063620998143226877970000003256424616662341045_);}
	.st189{fill:url(#SVGID_00000148647714006672112530000009348253320548242856_);}
	.st190{fill:url(#SVGID_00000085216197300277534200000015137911622701270166_);}
	.st191{fill:url(#SVGID_00000005232701719624259570000016865911610108259239_);}
	.st192{fill:url(#SVGID_00000155125174869316323250000013846104113837858748_);}
	.st193{fill:url(#SVGID_00000041985620375590546230000001394125100117086900_);}
	.st194{fill-rule:evenodd;clip-rule:evenodd;fill:#512100;}
	.st195{fill-rule:evenodd;clip-rule:evenodd;fill:#006D62;}
	.st196{fill-rule:evenodd;clip-rule:evenodd;}
	.st197{fill-rule:evenodd;clip-rule:evenodd;fill:#00A1F5;}
	.st198{fill-rule:evenodd;clip-rule:evenodd;fill:#FACFAB;}
	.st199{fill-rule:evenodd;clip-rule:evenodd;fill:#F29673;}
	.st200{fill-rule:evenodd;clip-rule:evenodd;fill:#FFFFFF;}
	.st201{fill-rule:evenodd;clip-rule:evenodd;fill:#333333;}
	.st202{fill-rule:evenodd;clip-rule:evenodd;fill:#BD4D00;}
	.st203{fill-rule:evenodd;clip-rule:evenodd;fill:#B2B2B2;}
	.st204{fill-rule:evenodd;clip-rule:evenodd;fill:#F2CC29;}
	.st205{fill-rule:evenodd;clip-rule:evenodd;fill:#005C9C;}
	.st206{fill-rule:evenodd;clip-rule:evenodd;fill:#8AC900;}
	.st207{fill-rule:evenodd;clip-rule:evenodd;fill:#808080;}
	.st208{fill-rule:evenodd;clip-rule:evenodd;fill:#CFA605;}
	.st209{fill-rule:evenodd;clip-rule:evenodd;fill:#666666;}
	.st210{fill-rule:evenodd;clip-rule:evenodd;fill:#CCCCCC;}
	.st211{fill:#960000;}
	.st212{fill:url(#SVGID_00000093895949010006609780000009672856463138403766_);}
	.st213{fill:url(#SVGID_00000141449586953329877520000009565123654790767498_);}
	.st214{opacity:0.51;fill:url(#SVGID_00000158002834954290628080000004463247491524612012_);}
	.st215{fill:url(#SVGID_00000024682718363633156610000006711687063509176199_);}
	.st216{fill:url(#SVGID_00000132051714801861616860000001285632326676935095_);}
	.st217{fill:url(#SVGID_00000044156768458607025480000001151143460607042690_);}
	.st218{opacity:0.35;fill:url(#SVGID_00000150100399334196513890000006982726950310387089_);}
	.st219{opacity:0.35;fill:url(#SVGID_00000183238000436802737840000016183904974337028992_);}
	.st220{fill:#F06021;}
	.st221{fill-rule:evenodd;clip-rule:evenodd;fill:url(#SVGID_00000127756800060799034300000001514317857370975933_);}
	.st222{fill-rule:evenodd;clip-rule:evenodd;fill:url(#SVGID_00000066506231926180621850000011642746674932944057_);}
	.st223{fill-rule:evenodd;clip-rule:evenodd;fill:url(#SVGID_00000044871044023407089770000004836438542800487051_);}
	.st224{fill-rule:evenodd;clip-rule:evenodd;fill:url(#SVGID_00000147934085413785799200000004029495570702894218_);}
	.st225{fill-rule:evenodd;clip-rule:evenodd;fill:url(#SVGID_00000060003610554667153210000008426188317457598609_);}
	.st226{fill-rule:evenodd;clip-rule:evenodd;fill:url(#SVGID_00000118397056395200940380000005284214627820097695_);}
	.st227{fill-rule:evenodd;clip-rule:evenodd;fill:url(#SVGID_00000080920314866738633340000002234733014995720078_);}
	.st228{fill-rule:evenodd;clip-rule:evenodd;fill:url(#SVGID_00000116198794967405497540000003635617481950946967_);}
	.st229{fill-rule:evenodd;clip-rule:evenodd;fill:url(#SVGID_00000061445729919396921000000008520224688407056818_);}
	.st230{fill-rule:evenodd;clip-rule:evenodd;fill:url(#SVGID_00000137109529269865943310000007185578427107154322_);}
	.st231{fill-rule:evenodd;clip-rule:evenodd;fill:url(#SVGID_00000071538172888001136560000016092718144838049941_);}
	.st232{fill-rule:evenodd;clip-rule:evenodd;fill:url(#SVGID_00000010301530401272394860000010235054874476800415_);}
	.st233{fill-rule:evenodd;clip-rule:evenodd;fill:url(#SVGID_00000114781229056345702450000011296470011551512712_);}
	.st234{opacity:0.5;fill-rule:evenodd;clip-rule:evenodd;fill:#5D0101;enable-background:new    ;}
	.st235{fill:#E11B22;}
	.st236{fill:#959595;}
	.st237{fill:#003359;}
	.st238{fill:#1779C1;}
	.st239{fill:#0EB17C;}
	.st240{fill:#2B2353;}
	.st241{fill:#BE264E;}
	.st242{fill:#EAA41C;}
	.st243{fill:#1F9EF3;}
	.st244{fill:#0267A3;}
	.st245{fill:#FFEC00;}
	.st246{fill:#00A0E0;}
	.st247{fill:#E3007E;}
	.st248{fill:none;stroke:#000000;stroke-width:2;stroke-miterlimit:10;}
</style>
<g>
	<g>
		
			<linearGradient id="SVGID_00000142899061186653079030000014985232890214426240_" gradientUnits="userSpaceOnUse" x1="129.9329" y1="-1782.6757" x2="129.9329" y2="-1855.7909" gradientTransform="matrix(1 0 0 -1 0 -1741.6129)">
			<stop  offset="0" style="stop-color:#E61C23"/>
			<stop  offset="0.1473" style="stop-color:#E11B22"/>
			<stop  offset="0.3305" style="stop-color:#D1181E"/>
			<stop  offset="0.5327" style="stop-color:#B81217"/>
			<stop  offset="0.7486" style="stop-color:#950B0D"/>
			<stop  offset="0.9732" style="stop-color:#680102"/>
			<stop  offset="1" style="stop-color:#620000"/>
		</linearGradient>
		
			<polygon style="fill-rule:evenodd;clip-rule:evenodd;fill:url(#SVGID_00000142899061186653079030000014985232890214426240_);" points="
			137.27,70.52 137.27,114.33 122.59,114.33 122.59,55.92 137.27,41.33 137.27,55.92 122.59,70.52 		"/>
		
			<linearGradient id="SVGID_00000046327474985002812060000010929909433579487895_" gradientUnits="userSpaceOnUse" x1="218.0664" y1="-1870.5414" x2="218.0664" y2="-1796.5211" gradientTransform="matrix(1 0 0 -1 0 -1741.6129)">
			<stop  offset="0" style="stop-color:#E61C23"/>
			<stop  offset="0.1473" style="stop-color:#E11B22"/>
			<stop  offset="0.3305" style="stop-color:#D1181E"/>
			<stop  offset="0.5327" style="stop-color:#B81217"/>
			<stop  offset="0.7486" style="stop-color:#950B0D"/>
			<stop  offset="0.9732" style="stop-color:#680102"/>
			<stop  offset="1" style="stop-color:#620000"/>
		</linearGradient>
		<path style="fill-rule:evenodd;clip-rule:evenodd;fill:url(#SVGID_00000046327474985002812060000010929909433579487895_);" d="
			M210.72,128.93c0-24.33,0-48.67,0-73h14.69v58.41L210.72,128.93z"/>
		
			<linearGradient id="SVGID_00000014615497599810520950000002008903051246176697_" gradientUnits="userSpaceOnUse" x1="225.3141" y1="-1790.2394" x2="137.6205" y2="-1790.2394" gradientTransform="matrix(1 0 0 -1 0 -1741.6129)">
			<stop  offset="0" style="stop-color:#E61C23"/>
			<stop  offset="0.1473" style="stop-color:#E11B22"/>
			<stop  offset="0.3305" style="stop-color:#D1181E"/>
			<stop  offset="0.5327" style="stop-color:#B81217"/>
			<stop  offset="0.7486" style="stop-color:#950B0D"/>
			<stop  offset="0.9732" style="stop-color:#680102"/>
			<stop  offset="1" style="stop-color:#620000"/>
		</linearGradient>
		
			<polygon style="fill-rule:evenodd;clip-rule:evenodd;fill:url(#SVGID_00000014615497599810520950000002008903051246176697_);" points="
			225.41,55.92 137.27,55.92 137.27,41.33 210.72,41.33 		"/>
		
			<linearGradient id="SVGID_00000155828472178768807780000016264807648129658002_" gradientUnits="userSpaceOnUse" x1="122.8182" y1="-1863.2433" x2="211.4087" y2="-1863.2433" gradientTransform="matrix(1 0 0 -1 0 -1741.6129)">
			<stop  offset="0" style="stop-color:#E61C23"/>
			<stop  offset="0.1473" style="stop-color:#E11B22"/>
			<stop  offset="0.3305" style="stop-color:#D1181E"/>
			<stop  offset="0.5327" style="stop-color:#B81217"/>
			<stop  offset="0.7486" style="stop-color:#950B0D"/>
			<stop  offset="0.9732" style="stop-color:#680102"/>
			<stop  offset="1" style="stop-color:#620000"/>
		</linearGradient>
		
			<polygon style="fill-rule:evenodd;clip-rule:evenodd;fill:url(#SVGID_00000155828472178768807780000016264807648129658002_);" points="
			210.72,128.93 137.27,128.93 122.59,114.33 210.72,114.33 		"/>
		
			<linearGradient id="SVGID_00000016764391238455135730000016591523078341457304_" gradientUnits="userSpaceOnUse" x1="203.3687" y1="-1888.5354" x2="203.3687" y2="-1863.1666" gradientTransform="matrix(1 0 0 -1 0 -1741.6129)">
			<stop  offset="0" style="stop-color:#E61C23"/>
			<stop  offset="0.1473" style="stop-color:#E11B22"/>
			<stop  offset="0.3305" style="stop-color:#D1181E"/>
			<stop  offset="0.5327" style="stop-color:#B81217"/>
			<stop  offset="0.7486" style="stop-color:#950B0D"/>
			<stop  offset="0.9732" style="stop-color:#680102"/>
			<stop  offset="1" style="stop-color:#620000"/>
		</linearGradient>
		
			<polygon style="fill-rule:evenodd;clip-rule:evenodd;fill:url(#SVGID_00000016764391238455135730000016591523078341457304_);" points="
			196.01,143.5 196.01,128.93 210.72,128.93 		"/>
		
			<linearGradient id="SVGID_00000042694369607562233390000003047712624669054623_" gradientUnits="userSpaceOnUse" x1="159.3029" y1="-1812.0564" x2="159.3029" y2="-1856.2531" gradientTransform="matrix(1 0 0 -1 0 -1741.6129)">
			<stop  offset="0" style="stop-color:#E61C23"/>
			<stop  offset="0.1473" style="stop-color:#E11B22"/>
			<stop  offset="0.3305" style="stop-color:#D1181E"/>
			<stop  offset="0.5327" style="stop-color:#B81217"/>
			<stop  offset="0.7486" style="stop-color:#950B0D"/>
			<stop  offset="0.9732" style="stop-color:#680102"/>
			<stop  offset="1" style="stop-color:#620000"/>
		</linearGradient>
		
			<rect x="151.96" y="70.52" style="fill-rule:evenodd;clip-rule:evenodd;fill:url(#SVGID_00000042694369607562233390000003047712624669054623_);" width="14.68" height="43.81"/>
		
			<linearGradient id="SVGID_00000137832139901301290850000011400705689296375223_" gradientUnits="userSpaceOnUse" x1="188.6713" y1="-1811.6078" x2="188.6713" y2="-1856.0288" gradientTransform="matrix(1 0 0 -1 0 -1741.6129)">
			<stop  offset="0" style="stop-color:#E61C23"/>
			<stop  offset="0.1473" style="stop-color:#E11B22"/>
			<stop  offset="0.3305" style="stop-color:#D1181E"/>
			<stop  offset="0.5327" style="stop-color:#B81217"/>
			<stop  offset="0.7486" style="stop-color:#950B0D"/>
			<stop  offset="0.9732" style="stop-color:#680102"/>
			<stop  offset="1" style="stop-color:#620000"/>
		</linearGradient>
		
			<rect x="181.33" y="70.52" style="fill-rule:evenodd;clip-rule:evenodd;fill:url(#SVGID_00000137832139901301290850000011400705689296375223_);" width="14.68" height="43.81"/>
		<g>
			
				<linearGradient id="SVGID_00000104674746523370141460000010618782858707440030_" gradientUnits="userSpaceOnUse" x1="124.1843" y1="-1819.6554" x2="137.4165" y2="-1768.7448" gradientTransform="matrix(1 0 0 -1 0 -1741.6129)">
				<stop  offset="0" style="stop-color:#ED2524"/>
				<stop  offset="1" style="stop-color:#8A0F12"/>
			</linearGradient>
			
				<polygon style="fill-rule:evenodd;clip-rule:evenodd;fill:url(#SVGID_00000104674746523370141460000010618782858707440030_);" points="
				136.38,43.49 123.49,56.3 123.49,68.36 136.38,55.55 			"/>
			
				<linearGradient id="SVGID_00000078757032409924419240000015008679042370580406_" gradientUnits="userSpaceOnUse" x1="129.4792" y1="-1821.0317" x2="142.7117" y2="-1770.12" gradientTransform="matrix(1 0 0 -1 0 -1741.6129)">
				<stop  offset="0" style="stop-color:#ED2524"/>
				<stop  offset="1" style="stop-color:#8A0F12"/>
			</linearGradient>
			<path style="fill-rule:evenodd;clip-rule:evenodd;fill:url(#SVGID_00000078757032409924419240000015008679042370580406_);" d="
				M127.75,83.72c2.88,0,5.76,0.07,8.63,0.21V71.42h-12.89v12.36C124.91,83.74,126.33,83.72,127.75,83.72z"/>
			
				<linearGradient id="SVGID_00000033351858855800336320000010351777253292743042_" gradientUnits="userSpaceOnUse" x1="213.3285" y1="-1842.9386" x2="226.311" y2="-1792.9888" gradientTransform="matrix(1 0 0 -1 0 -1741.6129)">
				<stop  offset="0" style="stop-color:#ED2524"/>
				<stop  offset="1" style="stop-color:#8A0F12"/>
			</linearGradient>
			<path style="fill-rule:evenodd;clip-rule:evenodd;fill:url(#SVGID_00000033351858855800336320000010351777253292743042_);" d="
				M224.51,110.14V57.83l-12.89-1.78v47.17C216,105.37,220.3,107.67,224.51,110.14z"/>
			
				<linearGradient id="SVGID_00000134226179522622023660000016943971300504503709_" gradientUnits="userSpaceOnUse" x1="170.3437" y1="-1832.0236" x2="183.6606" y2="-1780.7875" gradientTransform="matrix(1 0 0 -1 0 -1741.6129)">
				<stop  offset="0" style="stop-color:#ED2524"/>
				<stop  offset="1" style="stop-color:#8A0F12"/>
			</linearGradient>
			
				<polygon style="fill-rule:evenodd;clip-rule:evenodd;fill:url(#SVGID_00000134226179522622023660000016943971300504503709_);" points="
				137.4,55.03 139.17,42.22 210.35,42.22 223.23,55.03 			"/>
			
				<linearGradient id="SVGID_00000079482304258737139840000003808751131439247010_" gradientUnits="userSpaceOnUse" x1="157.4358" y1="-1828.2976" x2="170.6683" y2="-1777.3865" gradientTransform="matrix(1 0 0 -1 0 -1741.6129)">
				<stop  offset="0" style="stop-color:#ED2524"/>
				<stop  offset="1" style="stop-color:#8A0F12"/>
			</linearGradient>
			<path style="fill-rule:evenodd;clip-rule:evenodd;fill:url(#SVGID_00000079482304258737139840000003808751131439247010_);" d="
				M165.75,87.59V71.42h-12.89v14C157.18,85.99,161.48,86.71,165.75,87.59z"/>
			
				<linearGradient id="SVGID_00000005227996234364423300000000451975802283940747_" gradientUnits="userSpaceOnUse" x1="185.9817" y1="-1835.7174" x2="199.2143" y2="-1784.8059" gradientTransform="matrix(1 0 0 -1 0 -1741.6129)">
				<stop  offset="0" style="stop-color:#ED2524"/>
				<stop  offset="1" style="stop-color:#8A0F12"/>
			</linearGradient>
			<path style="fill-rule:evenodd;clip-rule:evenodd;fill:url(#SVGID_00000005227996234364423300000000451975802283940747_);" d="
				M195.12,96.09V71.42h-12.89v20.31C186.58,93.03,190.87,94.49,195.12,96.09z"/>
		</g>
		<polygon class="st234" points="122.59,112.31 122.59,114.33 137.27,114.33 		"/>
		<rect x="151.96" y="112.84" class="st234" width="14.68" height="1.49"/>
		<rect x="181.33" y="112.84" class="st234" width="14.68" height="1.49"/>
		<polygon class="st234" points="210.7,128.93 210.7,114.33 208.67,128.93 		"/>
		<polygon class="st234" points="196.07,128.93 210.67,128.93 196.07,130.95 		"/>
		<polygon class="st234" points="225.38,55.92 210.7,55.92 225.38,57.95 		"/>
		<polygon class="st234" points="137.27,55.92 137.27,41.33 139.3,41.33 		"/>
	</g>
	<g>
		<g>
			<path class="st235" d="M79.43,161.95l-0.18,0.19l-0.42,0.37l-0.28,0.21l-0.44,0.32l-0.28,0.19l-0.46,0.25l-0.3,0.16l-0.53,0.25
				l-0.35,0.12l-0.39,0.12l-0.39,0.07l-0.58,0.12l-0.81,0.09l-0.42,0.02l-0.58,0.05h-1.2l-0.39-0.02l-0.39-0.05l-0.39-0.07
				l-0.39-0.09l-0.35-0.12l-1.04-0.28l-0.51-0.19l-0.3-0.14l-0.44-0.25l-0.28-0.21l-0.3-0.21l-0.32-0.21l-0.6-0.51l-0.28-0.28
				l-0.25-0.3l-0.25-0.35l-0.21-0.32l-0.18-0.32l-0.16-0.32l-0.23-0.48l-0.35-0.97l-0.16-0.46l-0.23-0.69l-0.05-0.35l-0.02-0.53
				l0.02-0.35l0.02-0.37v-0.39l0.05-0.79l0.02-0.37l0.07-0.35l0.09-0.51l0.09-0.35l0.12-0.35l0.12-0.32l0.16-0.46l0.16-0.32
				l0.16-0.35l0.18-0.35l0.21-0.35l0.21-0.32l0.23-0.3l0.25-0.32l0.28-0.3l0.28-0.25l0.3-0.25l0.28-0.23l0.74-0.51l0.3-0.19
				l0.32-0.18l0.69-0.32l0.39-0.14l0.37-0.12l0.79-0.19l0.39-0.07l0.39-0.05l0.72-0.05l0.51-0.05l0.35,0.02l0.51,0.02l0.86,0.12
				l0.32,0.07l0.53,0.09l0.81,0.23l0.32,0.14l0.51,0.3l0.32,0.19l0.6,0.42l0.72,0.51l0.25,0.18l0.14,0.12l0.16,0.16l0.05,0.18
				l-0.02,0.19l-0.14,0.19l-0.21,0.25l-0.25,0.25l-0.25,0.23l-0.25,0.21l-0.25,0.25l-0.39,0.46l-0.25,0.28l-0.12,0.12l-0.21,0.18
				l-0.16,0.07l-0.16,0.02l-0.16-0.05l-0.25-0.14l-0.44-0.32l-0.3-0.16l-0.51-0.23l-0.32-0.12l-0.51-0.14l-0.35-0.07L73,151.14
				h-0.37l-0.51,0.05l-0.37,0.09l-0.51,0.16l-0.35,0.14l-0.3,0.12l-0.46,0.23l-0.32,0.23l-0.16,0.14l-0.28,0.3l-0.21,0.32l-0.16,0.3
				l-0.16,0.32l-0.14,0.35l-0.12,0.37l-0.07,0.39l-0.05,0.35l-0.05,0.69v0.37l0.02,0.58l0.02,0.35l0.12,0.53l0.12,0.35l0.16,0.39
				l0.18,0.35l0.35,0.51l0.25,0.28l0.44,0.37l0.3,0.21l0.46,0.23l0.35,0.14l0.51,0.14l0.37,0.07l0.55,0.02h0.53l0.32-0.07l0.18-0.05
				l0.35-0.12l0.58-0.21l0.37-0.16l0.35-0.16l0.3-0.16l0.44-0.28l0.3-0.23l0.23-0.16l0.14-0.05l0.21,0.05l0.25,0.16l0.25,0.23
				l0.09,0.14l0.23,0.25l0.37,0.46l0.23,0.28l0.62,0.72l0.21,0.28l0.12,0.12l0.12,0.21V161.95z"/>
			<path class="st235" d="M98.15,155.53l-0.02,0.37l-0.05,0.53l-0.05,0.35l-0.14,0.69L97.85,158l-0.05,0.35l-0.07,0.37l-0.09,0.35
				l-0.23,0.48l-0.16,0.32l-0.62,1.04l-0.21,0.3l-0.23,0.3l-0.23,0.25l-0.37,0.39l-0.25,0.23l-0.3,0.23l-0.28,0.21l-0.42,0.28
				l-0.3,0.18l-0.35,0.19l-0.32,0.14l-0.46,0.18l-0.35,0.09l-0.74,0.23l-0.39,0.12l-0.37,0.09l-0.39,0.09l-0.39,0.07l-0.39,0.02
				h-1.25l-0.79-0.05l-0.76-0.09l-0.32-0.07l-0.35-0.09l-1.25-0.42l-0.37-0.12l-0.39-0.16l-0.74-0.32l-0.35-0.19l-0.35-0.21
				l-0.3-0.23l-0.3-0.25l-0.28-0.3l-0.25-0.3l-0.62-0.62l-0.23-0.28l-0.23-0.3l-0.18-0.3l-0.19-0.46l-0.35-1.04l-0.14-0.49
				l-0.07-0.35l-0.07-0.37l-0.07-0.35l-0.07-0.51l-0.02-0.35l-0.02-0.39v-0.39l0.02-0.39l0.02-0.42l0.05-0.39l0.07-0.39l0.09-0.39
				l0.12-0.39l0.12-0.35l0.14-0.37l0.16-0.53l0.16-0.37l0.09-0.21l0.19-0.35l0.32-0.51l0.23-0.32l0.12-0.19l0.28-0.28l0.39-0.32
				l0.3-0.23l0.3-0.21l0.69-0.46l0.3-0.19l0.32-0.18l0.32-0.16l0.49-0.21l0.32-0.12l0.35-0.12l0.35-0.09l0.88-0.16l0.35-0.07
				l1.16-0.14l0.74-0.05l0.69,0.05l0.55,0.02l0.39,0.05l0.39,0.07l0.39,0.09l0.39,0.07l0.37,0.09l0.35,0.09l0.35,0.12l0.49,0.19
				l0.32,0.14l0.76,0.44l0.3,0.21l0.3,0.23l0.39,0.37l0.25,0.23l0.25,0.25l0.21,0.28l0.32,0.44l0.19,0.3l0.16,0.3l0.18,0.3
				l0.25,0.46l0.18,0.3l0.16,0.35l0.12,0.32l0.12,0.53l0.14,0.69l0.05,0.39l0.07,0.39L98.15,155.53z M93.3,155.92v-0.39l-0.02-0.39
				l-0.02-0.37l-0.14-0.69l-0.09-0.32l-0.25-0.51l-0.19-0.3l-0.32-0.42l-0.23-0.25l-0.35-0.37l-0.25-0.21l-0.6-0.35l-0.32-0.14
				l-0.37-0.12l-0.37-0.07l-0.74-0.05L88.67,151l-0.51,0.02l-0.35,0.07l-0.6,0.16l-0.37,0.14l-0.53,0.28l-0.32,0.21l-0.37,0.32
				l-0.25,0.28l-0.25,0.35l-0.19,0.3l-0.07,0.14l-0.21,0.48l-0.12,0.35l-0.07,0.16l-0.07,0.32l-0.05,0.32l-0.02,0.32l-0.02,0.35
				v0.35l0.02,0.37l0.07,0.37l0.02,0.21l0.09,0.35l0.05,0.16l0.12,0.32l0.09,0.18l0.19,0.32l0.12,0.19l0.25,0.32l0.14,0.16
				l0.28,0.28l0.46,0.39l0.32,0.21l0.37,0.18l0.35,0.14l0.49,0.16l0.35,0.07l0.58,0.07l0.39,0.02l0.58-0.05l0.37-0.05l0.51-0.12
				l0.32-0.14l0.51-0.32l0.28-0.21l0.37-0.37l0.23-0.25l0.3-0.37l0.21-0.32l0.23-0.51l0.14-0.35l0.12-0.53l0.05-0.35L93.3,155.92z"
				/>
			<path class="st235" d="M119.05,161.95l0.02,0.37l0.09,0.72l0.02,0.35l-0.02,0.19l-0.02,0.25l-0.12,0.19l-0.14,0.12l-0.25,0.05
				l-0.35,0.02h-0.37l-0.92-0.07l-0.39-0.02h-0.58l-0.42-0.02l-0.86-0.12l-0.16-0.05l-0.09-0.12l-0.02-0.23l-0.02-0.32l-0.02-0.35
				l0.05-0.79v-2.17l-0.07-1.46v-0.37l0.09-1.43v-1.8l-0.05-0.28l-0.14-0.09h-0.14l-0.16,0.21l-0.23,0.32l-0.97,1.11l-1.41,1.69
				l-0.92,1.16l-0.21,0.19l-0.16,0.07h-0.19l-0.25-0.05l-0.28-0.07l-0.25-0.19l-1.16-1.39l-0.86-1.13l-0.23-0.28l-1.2-1.34l-0.3-0.3
				l-0.14,0.05l-0.05,0.25l-0.07,1.46v0.37l0.09,1.46v0.37l0.05,1.46v0.37l-0.02,1.43v0.35l0.02,0.69l-0.02,0.37l-0.02,0.39
				l-0.05,0.3l-0.09,0.14l-0.16,0.05l-0.6,0.07l-0.37,0.02l-0.9-0.07l-0.37,0.02l-1.11,0.09h-0.53l-0.28-0.05l-0.14-0.14l-0.05-0.16
				l-0.05-0.23v-0.53l0.05-0.72v-3.56l-0.05-1.22v-0.37l0.02-1.22l-0.02-0.37l-0.07-1.25v-0.37l0.07-1.23l0.02-0.37l-0.09-1.23
				l0.02-0.37l0.09-1.23v-0.37l-0.09-0.86v-0.37l0.05-0.3l0.09-0.16l0.14-0.12l0.19-0.05l0.3-0.02l0.39,0.05l0.51,0.12h0.37
				l0.72-0.07l0.39-0.05l0.35-0.02l0.88,0.02h0.3l0.25,0.12l0.23,0.25l0.81,0.9l0.23,0.3l0.67,0.95l0.23,0.3l0.76,0.9l0.23,0.32
				l0.72,0.9l0.23,0.25l0.21,0.12h0.23l0.21-0.12l0.21-0.23l0.69-0.92l0.23-0.32l0.74-0.9l0.23-0.3l0.81-0.9l0.23-0.3l0.6-0.74
				l0.18-0.25l0.19-0.19l0.23-0.12l0.3,0.02l1.22,0.07l1.09,0.02h0.37l0.69-0.05l0.39,0.02l0.28,0.05l0.16,0.05l0.14,0.12l0.05,0.19
				l-0.02,0.28l-0.09,1.04l-0.02,0.37l0.05,1.23v0.37l-0.02,1.23v0.37l0.02,1.23v0.37l0.09,1.25v0.37l-0.09,1.22v0.37l0.07,1.22
				v0.37l-0.09,1.22v0.37L119.05,161.95z"/>
			<path class="st235" d="M141.01,161.95l0.02,0.37l0.09,0.72l0.02,0.35l-0.02,0.19l-0.02,0.25l-0.12,0.19l-0.14,0.12l-0.25,0.05
				l-0.35,0.02h-0.37l-0.92-0.07l-0.39-0.02h-0.58l-0.42-0.02l-0.86-0.12l-0.16-0.05l-0.09-0.12l-0.02-0.23l-0.02-0.32l-0.02-0.35
				l0.05-0.79v-2.17l-0.07-1.46v-0.37l0.09-1.43v-1.8l-0.05-0.28l-0.14-0.09h-0.14l-0.16,0.21l-0.23,0.32l-0.97,1.11l-1.41,1.69
				l-0.92,1.16l-0.21,0.19l-0.16,0.07h-0.19l-0.25-0.05l-0.28-0.07l-0.25-0.19l-1.16-1.39l-0.86-1.13l-0.23-0.28l-1.2-1.34l-0.3-0.3
				l-0.14,0.05l-0.05,0.25l-0.07,1.46v0.37l0.09,1.46v0.37l0.05,1.46v0.37l-0.02,1.43v0.35l0.02,0.69l-0.02,0.37l-0.02,0.39
				l-0.05,0.3l-0.09,0.14l-0.16,0.05l-0.6,0.07l-0.37,0.02l-0.9-0.07l-0.37,0.02l-1.11,0.09h-0.53l-0.28-0.05l-0.14-0.14l-0.05-0.16
				l-0.05-0.23v-0.53l0.05-0.72v-3.56l-0.05-1.22v-0.37l0.02-1.22l-0.02-0.37l-0.07-1.25v-0.37l0.07-1.23l0.02-0.37l-0.09-1.23
				l0.02-0.37l0.09-1.23v-0.37l-0.09-0.86v-0.37l0.05-0.3l0.09-0.16l0.14-0.12l0.19-0.05l0.3-0.02l0.39,0.05l0.51,0.12h0.37
				l0.72-0.07l0.39-0.05l0.35-0.02l0.88,0.02h0.3l0.25,0.12l0.23,0.25l0.81,0.9l0.23,0.3l0.67,0.95l0.23,0.3l0.76,0.9l0.23,0.32
				l0.72,0.9l0.23,0.25l0.21,0.12h0.23l0.21-0.12l0.21-0.23l0.69-0.92l0.23-0.32l0.74-0.9l0.23-0.3l0.81-0.9l0.23-0.3l0.6-0.74
				l0.18-0.25l0.19-0.19l0.23-0.12l0.3,0.02l1.22,0.07l1.09,0.02h0.37l0.69-0.05l0.39,0.02l0.28,0.05l0.16,0.05l0.14,0.12l0.05,0.19
				l-0.02,0.28l-0.09,1.04l-0.02,0.37l0.05,1.23v0.37l-0.02,1.23v0.37l0.02,1.23v0.37l0.09,1.25v0.37l-0.09,1.22v0.37l0.07,1.22
				v0.37l-0.09,1.22v0.37L141.01,161.95z"/>
			<path class="st235" d="M159.92,155.92l0.05,0.74l-0.02,0.35l-0.02,0.53l-0.05,0.35l-0.09,0.56l-0.07,0.37l-0.09,0.53l-0.09,0.35
				l-0.18,0.48l-0.12,0.32l-0.21,0.48l-0.16,0.32l-0.3,0.46l-0.23,0.3l-0.28,0.3l-0.3,0.25l-0.46,0.37l-0.3,0.21l-0.46,0.28
				l-0.3,0.16l-0.49,0.23l-0.35,0.12l-0.51,0.19l-0.35,0.09l-0.53,0.09l-0.35,0.07l-0.72,0.05h-1.06l-0.53-0.05L151,164.4
				l-1.27-0.14l-0.37-0.07l-0.21-0.02l-0.37-0.12l-0.18-0.07l-0.37-0.16l-0.51-0.23l-0.35-0.21l-0.35-0.23l-0.6-0.51l-0.25-0.25
				l-0.3-0.39l-0.21-0.28l-0.37-0.6l-0.21-0.32l-0.18-0.35l-0.16-0.37l-0.14-0.35l-0.09-0.32l-0.09-0.35l-0.09-0.51l-0.07-0.39
				l-0.05-0.39l-0.05-0.79l-0.02-0.37l0.07-1.41v-0.37l-0.05-1.41v-0.37l0.07-1.41v-2.15l-0.05-0.74v-0.39l0.02-0.39l0.07-0.37
				l0.16-0.21l0.3-0.07l0.76-0.05l0.88,0.07h0.37l0.76-0.02l0.35,0.02l0.53,0.02l0.3,0.07l0.18,0.19l0.07,0.3l0.02,0.32v0.35
				l-0.05,0.9v0.37l0.07,1.41v0.37l-0.02,1.41v0.37l-0.07,1.41v0.37l-0.02,1.41l0.02,0.37l0.05,0.58l0.07,0.37l0.14,0.51l0.14,0.35
				l0.23,0.53l0.23,0.28l0.37,0.39l0.3,0.18l0.51,0.19l0.35,0.09l0.6,0.05h0.37l0.6-0.12l0.35-0.09l0.44-0.21l0.3-0.19l0.37-0.32
				l0.23-0.28l0.25-0.49l0.16-0.35l0.12-0.37l0.07-0.37l0.09-0.69l0.02-0.37l-0.09-1.41v-0.37l0.07-1.43v-0.37l0.05-1.41v-0.37
				l-0.05-1.43l-0.02-0.37l-0.07-0.97v-0.58l0.09-0.32l0.21-0.19l0.3-0.07h0.49l1.18,0.09h0.37l0.92-0.07h0.37l0.35,0.02l0.3,0.07
				l0.19,0.16l0.02,0.28l0.02,0.69v0.35l-0.02,0.53v0.37l0.07,1.43v0.37l-0.05,1.41v0.37l-0.09,1.43L159.92,155.92z"/>
			<path class="st235" d="M178.67,151l-0.02,0.37v3.42l0.07,1.34v0.37l0.05,3.05v0.39l-0.02,0.19l-0.02,0.39l-0.07,1.11l0.02,1.34
				l-0.02,0.32l-0.09,0.28l-0.18,0.25l-0.23,0.16l-0.21,0.07l-0.32,0.02l-1.18,0.05l-0.37,0.02l-0.58,0.02h-0.37l-0.3-0.07
				l-0.28-0.12l-0.28-0.21l-0.21-0.3l-0.35-0.67l-0.21-0.3l-0.9-1.13l-0.23-0.28l-0.9-1.11l-0.21-0.3l-0.81-1.2l-0.21-0.28
				l-0.9-1.11l-0.23-0.28l-0.86-1.13l-0.21-0.19l-0.16,0.07l-0.07,0.28l-0.05,1.16v0.37l0.02,1.16v0.37l0.02,1.29v0.37l-0.07,1.29
				l0.02,0.37l0.14,0.92l0.02,0.37l-0.07,0.3l-0.16,0.16l-0.16,0.05l-0.28,0.05l-0.18,0.02l-0.39,0.02l-1.06-0.02h-0.37l-0.95,0.05
				h-0.37l-0.35-0.02l-0.25-0.05l-0.18-0.12l-0.09-0.16l-0.05-0.23l-0.02-0.16v-0.35l0.05-0.76l0.02-0.37l-0.07-1.22v-0.37
				l0.05-2.82l0.02-0.37l0.07-1.22l0.02-0.37v-1.59l-0.09-1.23v-0.37l0.09-1.23l-0.02-0.37l-0.09-1.25l-0.02-0.37v-0.53l0.02-0.35
				l0.05-0.35l0.05-0.25l0.07-0.16l0.14-0.07l0.25-0.05l0.69-0.05l0.69,0.05h1.73l0.28,0.02l0.12,0.09l0.14,0.21l0.97,1.04
				l0.23,0.28l0.86,1.11l0.23,0.28l0.86,1.13l0.23,0.28l0.83,1.16l0.21,0.28l0.88,1.11l0.23,0.28l0.83,1.16l0.18,0.16l0.19,0.02
				l0.16-0.12v-0.25l-0.16-0.97l-0.02-0.37l0.07-0.99v-0.37l-0.09-1.41v-0.37l0.09-1.41l-0.02-0.37l-0.07-0.86v-0.58l0.07-0.3
				l0.09-0.19l0.16-0.09l0.28-0.05h0.21l0.39-0.02l1.04,0.07h0.37l0.79-0.05l0.35,0.02l0.53,0.02l0.25,0.05l0.16,0.07l0.14,0.16
				l0.05,0.32l0.02,0.21l0.02,0.39l-0.05,0.72l-0.05,0.37L178.67,151z"/>
			<path class="st235" d="M186.76,160.43v0.37l-0.09,1.25v0.37l-0.02,1.27v0.25l-0.07,0.14l-0.18,0.05l-0.32,0.02l-1.18-0.02h-1.43
				l-1.16-0.09l-0.14-0.05l-0.07-0.07v-0.23l-0.05-0.58v-0.37l-0.02-0.35v-0.35l-0.07-1.25l0.02-0.37l0.07-1.25l0.02-0.37
				l-0.07-1.27v-0.37l-0.02-1.25v-1.99l-0.02-1.27v-0.37l0.02-1.25v-1.99l-0.05-1.27l0.07-0.25l0.14-0.09l0.23-0.02h0.19l0.35-0.02
				l0.55,0.02h0.37l1.06-0.05h1.43l0.25,0.05l0.05,0.14l0.02,0.25l0.05,0.6l0.02,0.37v2.26l0.02,1.25v0.37l-0.02,1.27v0.37
				l0.02,1.25v0.37l-0.05,1.25v2.01L186.76,160.43z"/>
			<path class="st235" d="M204.91,161.95l-0.18,0.19l-0.42,0.37l-0.28,0.21l-0.44,0.32l-0.28,0.19l-0.46,0.25l-0.3,0.16l-0.53,0.25
				l-0.35,0.12l-0.39,0.12l-0.39,0.07l-0.58,0.12l-0.81,0.09l-0.42,0.02l-0.58,0.05h-1.2l-0.39-0.02l-0.39-0.05l-0.39-0.07
				l-0.39-0.09l-0.35-0.12l-1.04-0.28l-0.51-0.19l-0.3-0.14l-0.44-0.25l-0.28-0.21l-0.3-0.21l-0.32-0.21l-0.6-0.51l-0.28-0.28
				l-0.25-0.3l-0.25-0.35l-0.21-0.32l-0.18-0.32l-0.16-0.32l-0.23-0.48l-0.35-0.97l-0.16-0.46l-0.23-0.69l-0.05-0.35l-0.02-0.53
				l0.02-0.35l0.02-0.37v-0.39l0.05-0.79l0.02-0.37l0.07-0.35l0.09-0.51l0.09-0.35l0.12-0.35l0.12-0.32l0.16-0.46l0.16-0.32
				l0.16-0.35l0.18-0.35l0.21-0.35l0.21-0.32l0.23-0.3l0.25-0.32l0.28-0.3l0.28-0.25l0.3-0.25l0.28-0.23l0.74-0.51l0.3-0.19
				l0.32-0.18l0.69-0.32l0.39-0.14l0.37-0.12l0.79-0.19l0.39-0.07l0.39-0.05l0.72-0.05l0.51-0.05l0.35,0.02l0.51,0.02l0.86,0.12
				l0.32,0.07l0.53,0.09l0.81,0.23l0.32,0.14l0.51,0.3l0.32,0.19l0.6,0.42l0.72,0.51l0.25,0.18l0.14,0.12l0.16,0.16l0.05,0.18
				l-0.02,0.19l-0.14,0.19l-0.21,0.25l-0.25,0.25l-0.25,0.23l-0.25,0.21l-0.25,0.25l-0.39,0.46l-0.25,0.28l-0.12,0.12l-0.21,0.18
				l-0.16,0.07l-0.16,0.02l-0.16-0.05l-0.25-0.14l-0.44-0.32l-0.3-0.16l-0.51-0.23l-0.32-0.12l-0.51-0.14l-0.35-0.07l-0.58-0.05
				h-0.37l-0.51,0.05l-0.37,0.09l-0.51,0.16l-0.35,0.14l-0.3,0.12l-0.46,0.23l-0.32,0.23l-0.16,0.14l-0.28,0.3l-0.21,0.32l-0.16,0.3
				l-0.16,0.32l-0.14,0.35l-0.12,0.37l-0.07,0.39l-0.05,0.35l-0.05,0.69v0.37l0.02,0.58l0.02,0.35l0.12,0.53l0.12,0.35l0.16,0.39
				l0.19,0.35l0.35,0.51l0.25,0.28l0.44,0.37l0.3,0.21l0.46,0.23l0.35,0.14l0.51,0.14l0.37,0.07l0.55,0.02h0.53l0.32-0.07l0.19-0.05
				l0.35-0.12l0.58-0.21l0.37-0.16l0.35-0.16l0.3-0.16l0.44-0.28l0.3-0.23l0.23-0.16l0.14-0.05l0.21,0.05l0.25,0.16l0.25,0.23
				l0.09,0.14l0.23,0.25l0.37,0.46l0.23,0.28l0.62,0.72l0.21,0.28l0.12,0.12l0.12,0.21V161.95z"/>
			<path class="st235" d="M225.29,163.38l0.07,0.32l-0.16,0.25l-0.25,0.12l-0.3,0.05h-0.32l-0.53-0.05l-0.35-0.02h-1.04l-1.43,0.09
				l-0.3-0.12l-0.14-0.16l-0.12-0.25l-0.72-1.94l-0.16-0.23l-0.21-0.05l-0.28-0.02l-1.39-0.09h-0.37l-1.73-0.05l-1.39-0.02h-0.35
				l-0.35,0.02h-1.06l-0.3,0.05l-0.19,0.12l-0.14,0.28l-0.53,1.57l-0.14,0.37l-0.25,0.3l-0.35,0.12h-0.37l-1.34-0.07h-0.37
				l-1.43,0.09l-0.3,0.02l-0.28-0.14l-0.19-0.25l0.02-0.3l0.05-0.19l0.14-0.37l0.32-0.72l0.14-0.35l0.58-1.29l0.14-0.32l0.6-1.29
				l0.14-0.35l0.53-1.25l0.14-0.35l0.62-1.29l0.14-0.32l0.83-1.9l0.65-1.39l0.16-0.37l0.51-1.04l0.16-0.37l0.44-1.06l0.14-0.35
				l0.42-0.95l0.12-0.25l0.23-0.14l0.35-0.07l1.06-0.05h1.8l1.06,0.02l0.39,0.07l0.25,0.18l0.12,0.3l0.32,0.9l0.14,0.35l0.58,1.09
				l0.14,0.32l0.51,1.13l0.14,0.32l0.42,1.18l0.14,0.32l0.51,1.11l0.14,0.32l0.51,1.13l0.14,0.32l0.46,1.15l0.14,0.32l0.72,1.43
				l0.55,1.09l0.16,0.32l0.62,1.46L225.29,163.38z M217.58,156.87l-0.09-0.3l-0.51-1.57l-0.12-0.35l-0.46-1.36l-0.12-0.3l-0.23-0.16
				l-0.3-0.07l-0.25,0.07l-0.23,0.23l-0.62,1.57l-0.14,0.35l-0.6,1.55l-0.07,0.35l0.07,0.28l0.25,0.12l0.32,0.05h1.46l1.09,0.07
				l0.3-0.09l0.19-0.19L217.58,156.87z"/>
			<path class="st235" d="M237.94,149.19l-0.02,0.35l0.02,0.69l-0.02,0.37l-0.02,0.19l-0.05,0.28l-0.07,0.16l-0.14,0.12l-0.28,0.05
				h-0.37l-0.69-0.07l-0.37-0.02l-1.06,0.07h-0.37l-0.58-0.05h-0.35l-0.16,0.02l-0.23,0.07l-0.09,0.14l-0.02,0.3l-0.09,1.36v0.37
				l0.09,1.39l-0.02,0.37l-0.09,1.39l-0.02,0.37l0.05,1.36v2.13l-0.05,1.36l0.02,0.35l0.12,1.04l0.02,0.37l-0.07,0.28l-0.12,0.12
				l-0.3,0.05l-0.44-0.02l-0.58-0.07l-0.39-0.02l-1.04,0.07h-0.37l-1.04-0.07l-0.28-0.02l-0.14-0.07l-0.05-0.25v-0.39l0.07-0.97
				l0.02-0.37v-1.73l0.02-1.39v-0.37l0.02-1.36v-0.37l-0.09-1.39l-0.02-0.37v-1.76l-0.05-1.36v-0.32l-0.07-0.19l-0.23-0.05h-0.35
				l-0.74,0.05h-0.42l-0.62-0.05l-0.39-0.02l-0.39,0.02l-0.53,0.02h-0.35l-0.18-0.02l-0.25-0.05l-0.14-0.09l-0.09-0.14l-0.05-0.23
				v-0.16l-0.02-0.37l0.05-0.69v-0.35l-0.07-0.88l0.02-0.37l0.07-0.3l0.09-0.16l0.14-0.07l0.23-0.05h0.53l0.86,0.07h0.37l1.34-0.09
				h0.37l1.36,0.12h0.37l1.71-0.12l1.34,0.02h0.37l1.73-0.02h1.71l0.76-0.05l0.39,0.02l0.18,0.02l0.28,0.05l0.16,0.09l0.12,0.16
				l0.05,0.28v0.16l0.02,0.35L237.94,149.19z"/>
			<path class="st235" d="M245.06,160.43v0.37l-0.09,1.25v0.37l-0.02,1.27v0.25l-0.07,0.14l-0.18,0.05l-0.32,0.02l-1.18-0.02h-1.43
				l-1.16-0.09l-0.14-0.05l-0.07-0.07v-0.23l-0.05-0.58v-0.37l-0.02-0.35v-0.35l-0.07-1.25l0.02-0.37l0.07-1.25l0.02-0.37
				l-0.07-1.27v-0.37l-0.02-1.25v-1.99l-0.02-1.27v-0.37l0.02-1.25v-1.99l-0.05-1.27l0.07-0.25l0.14-0.09l0.23-0.02h0.19l0.35-0.02
				l0.55,0.02h0.37l1.06-0.05h1.43l0.25,0.05l0.05,0.14l0.02,0.25l0.05,0.6l0.02,0.37v2.26l0.02,1.25v0.37l-0.02,1.27v0.37
				l0.02,1.25v0.37l-0.05,1.25v2.01L245.06,160.43z"/>
			<path class="st235" d="M266.1,155.53l-0.02,0.37l-0.05,0.53l-0.05,0.35l-0.14,0.69L265.8,158l-0.05,0.35l-0.07,0.37l-0.09,0.35
				l-0.23,0.48l-0.16,0.32l-0.62,1.04l-0.21,0.3l-0.23,0.3l-0.23,0.25l-0.37,0.39l-0.25,0.23l-0.3,0.23l-0.28,0.21l-0.42,0.28
				l-0.3,0.18l-0.35,0.19l-0.32,0.14l-0.46,0.18l-0.35,0.09l-0.74,0.23l-0.39,0.12l-0.37,0.09l-0.39,0.09l-0.39,0.07l-0.39,0.02
				h-1.25l-0.79-0.05l-0.76-0.09l-0.32-0.07l-0.35-0.09l-1.25-0.42l-0.37-0.12l-0.39-0.16l-0.74-0.32l-0.35-0.19l-0.35-0.21
				l-0.3-0.23l-0.3-0.25l-0.28-0.3l-0.25-0.3l-0.62-0.62l-0.23-0.28l-0.23-0.3l-0.18-0.3l-0.19-0.46l-0.35-1.04l-0.14-0.49
				l-0.07-0.35l-0.07-0.37l-0.07-0.35l-0.07-0.51l-0.02-0.35l-0.02-0.39v-0.39l0.02-0.39l0.02-0.42l0.05-0.39l0.07-0.39l0.09-0.39
				l0.12-0.39l0.12-0.35l0.14-0.37l0.16-0.53l0.16-0.37l0.09-0.21l0.19-0.35l0.32-0.51l0.23-0.32l0.12-0.19l0.28-0.28l0.39-0.32
				l0.3-0.23l0.3-0.21l0.69-0.46l0.3-0.19l0.32-0.18l0.32-0.16l0.49-0.21l0.32-0.12l0.35-0.12l0.35-0.09l0.88-0.16l0.35-0.07
				l1.16-0.14l0.74-0.05l0.69,0.05l0.55,0.02l0.39,0.05l0.39,0.07l0.39,0.09l0.39,0.07l0.37,0.09l0.35,0.09l0.35,0.12l0.49,0.19
				l0.32,0.14l0.76,0.44l0.3,0.21l0.3,0.23l0.39,0.37l0.25,0.23l0.25,0.25l0.21,0.28l0.32,0.44l0.19,0.3l0.16,0.3l0.18,0.3
				l0.25,0.46l0.19,0.3l0.16,0.35l0.12,0.32l0.12,0.53l0.14,0.69l0.05,0.39l0.07,0.39L266.1,155.53z M261.24,155.92v-0.39
				l-0.02-0.39l-0.02-0.37l-0.14-0.69l-0.09-0.32l-0.25-0.51l-0.19-0.3l-0.32-0.42l-0.23-0.25l-0.35-0.37l-0.25-0.21l-0.6-0.35
				l-0.32-0.14l-0.37-0.12l-0.37-0.07l-0.74-0.05l-0.35,0.02l-0.51,0.02l-0.35,0.07l-0.6,0.16l-0.37,0.14l-0.53,0.28l-0.32,0.21
				l-0.37,0.32l-0.25,0.28l-0.25,0.35l-0.19,0.3l-0.07,0.14l-0.21,0.48l-0.12,0.35l-0.07,0.16l-0.07,0.32l-0.05,0.32l-0.02,0.32
				l-0.02,0.35v0.35l0.02,0.37l0.07,0.37l0.02,0.21l0.09,0.35l0.05,0.16l0.12,0.32l0.09,0.18l0.19,0.32l0.12,0.19l0.25,0.32
				l0.14,0.16l0.28,0.28l0.46,0.39l0.32,0.21l0.37,0.18l0.35,0.14l0.49,0.16l0.35,0.07l0.58,0.07l0.39,0.02l0.58-0.05l0.37-0.05
				l0.51-0.12l0.32-0.14l0.51-0.32l0.28-0.21l0.37-0.37l0.23-0.25l0.3-0.37l0.21-0.32l0.23-0.51l0.14-0.35l0.12-0.53l0.05-0.35
				L261.24,155.92z"/>
			<path class="st235" d="M284.11,151l-0.02,0.37v3.42l0.07,1.34v0.37l0.05,3.05v0.39l-0.02,0.19l-0.02,0.39l-0.07,1.11l0.02,1.34
				l-0.02,0.32l-0.09,0.28l-0.18,0.25l-0.23,0.16l-0.21,0.07l-0.32,0.02l-1.18,0.05l-0.37,0.02l-0.58,0.02h-0.37l-0.3-0.07
				l-0.28-0.12l-0.28-0.21l-0.21-0.3l-0.35-0.67l-0.21-0.3l-0.9-1.13l-0.23-0.28l-0.9-1.11l-0.21-0.3l-0.81-1.2l-0.21-0.28
				l-0.9-1.11l-0.23-0.28l-0.86-1.13l-0.21-0.19l-0.16,0.07l-0.07,0.28l-0.05,1.16v0.37l0.02,1.16v0.37l0.02,1.29v0.37l-0.07,1.29
				l0.02,0.37l0.14,0.92l0.02,0.37l-0.07,0.3l-0.16,0.16l-0.16,0.05l-0.28,0.05l-0.18,0.02l-0.39,0.02l-1.06-0.02h-0.37l-0.95,0.05
				h-0.37l-0.35-0.02l-0.25-0.05l-0.18-0.12l-0.09-0.16l-0.05-0.23l-0.02-0.16v-0.35l0.05-0.76l0.02-0.37l-0.07-1.22v-0.37
				l0.05-2.82l0.02-0.37l0.07-1.22l0.02-0.37v-1.59l-0.09-1.23v-0.37l0.09-1.23l-0.02-0.37l-0.09-1.25l-0.02-0.37v-0.53l0.02-0.35
				l0.05-0.35l0.05-0.25l0.07-0.16l0.14-0.07l0.25-0.05l0.69-0.05l0.69,0.05h1.73l0.28,0.02l0.12,0.09l0.14,0.21l0.97,1.04
				l0.23,0.28l0.86,1.11l0.23,0.28l0.86,1.13l0.23,0.28l0.83,1.16l0.21,0.28l0.88,1.11l0.23,0.28l0.83,1.16l0.18,0.16l0.19,0.02
				l0.16-0.12v-0.25l-0.16-0.97l-0.02-0.37l0.07-0.99v-0.37l-0.09-1.41v-0.37l0.09-1.41l-0.02-0.37l-0.07-0.86v-0.58l0.07-0.3
				l0.09-0.19l0.16-0.09l0.28-0.05h0.21l0.39-0.02l1.04,0.07h0.37l0.79-0.05l0.35,0.02l0.53,0.02l0.25,0.05l0.16,0.07l0.14,0.16
				l0.05,0.32l0.02,0.21l0.02,0.39l-0.05,0.72l-0.05,0.37L284.11,151z"/>
		</g>
		<g>
			<path class="st235" d="M105.57,170.93l3.74,10.22l3.7-10.22h3.47v15.49h-3.47v-14.95l-5.32,14.95h-0.3l-5.27-14.84v3.51
				c0,5.13,3.03,3.74,3.03,11.32h-3.26v-15.49H105.57z"/>
			<path class="st235" d="M151.18,184.31c-0.49,1.16-2.61,2.36-5.41,2.36c-3.44,0-6.17-1.85-6.17-4.35c0-4.07,7.3-3.54,7.3-4.35
				c0-0.76-6.63,0.58-6.63-3.19c0-2.36,2.59-4,5.73-4c1.99,0,3.37,0.65,4,1.15l0.05,2.82c-0.72-0.35-1.89-0.79-3.54-0.79
				c-2.08,0-3.58,0.69-3.58,1.8c0,1.83,4.18,0.97,4.18,2.17c0,1.34-5.38,0.53-5.38,3.24c0,0.97,0.69,2.15,3.74,2.15
				c2.47,0,4.62-0.79,5.71-2.06V184.31z"/>
			<path class="st235" d="M174.53,186.42v-15.49h4.16c4.72,0,7.4,2.82,7.4,7.83c0,4.97-2.63,7.65-7.58,7.65H174.53z M182.39,177.77
				c0-4.35-1.2-6.61-3.49-6.61H178v15.02h0.55C180.82,186.19,182.39,182.72,182.39,177.77z"/>
			<path class="st235" d="M208.86,170.93h3.47v15.49h-3.47V170.93z"/>
			<path class="st235" d="M246.1,170.93v15.49h-3.47v-5.64h-3.86c0.19,2.54,0.74,4.78,1.27,5.41v0.23h-4.48v-7.33
				c0-5.71,2.38-8.16,7.07-8.16H246.1z M242.63,171.14h-0.23c-3.24,0-3.91,5.11-3.63,9.41h3.86V171.14z"/>
		</g>
	</g>
</g>
</svg>
