<?xml version="1.0" encoding="utf-8"?>
<!-- Generator: Adobe Illustrator 27.8.1, SVG Export Plug-In . SVG Version: 6.00 Build 0)  -->
<svg version="1.1" id="Layer_1" xmlns="http://www.w3.org/2000/svg" xmlns:xlink="http://www.w3.org/1999/xlink" x="0px" y="0px"
	 viewBox="0 0 348 228" style="enable-background:new 0 0 348 228;" xml:space="preserve">
<style type="text/css">
	.st0{fill:#D6EADE;}
	.st1{fill:#03487C;}
	.st2{fill:#1B1B4C;}
	.st3{fill-rule:evenodd;clip-rule:evenodd;fill:#204F7A;}
	.st4{fill-rule:evenodd;clip-rule:evenodd;fill:#50A4FF;}
	.st5{fill:#002649;}
	.st6{fill:#E6E7E8;stroke:#CFCFCF;stroke-width:0.1061;}
	.st7{fill:#333333;}
	.st8{fill:#0F5998;}
	.st9{fill:#277FC1;}
	.st10{fill-rule:evenodd;clip-rule:evenodd;fill:#277FC1;}
	.st11{fill-rule:evenodd;clip-rule:evenodd;fill:#083D6D;}
	.st12{fill:#DDB462;}
	
		.st13{clip-path:url(#SVGID_00000070797277944041480410000000929723008089382553_);fill:url(#SVGID_00000141417949246116696850000001497068087220925831_);}
	.st14{fill:#FFFFFF;}
	.st15{fill:url(#SVGID_00000090283390304784381010000017093987788092295605_);}
	.st16{fill:#224685;}
	.st17{fill:none;}
	.st18{fill:#FFC73B;}
	.st19{fill:#11233F;}
	.st20{fill:#5267FF;}
	.st21{fill-rule:evenodd;clip-rule:evenodd;fill:#72342E;}
	.st22{fill:#72342E;}
	.st23{fill:#FFF2E2;}
	.st24{fill:#FFF2E2;stroke:#72342E;stroke-width:0.75;stroke-miterlimit:10;}
	.st25{fill:#FFCC99;}
	.st26{fill:#469CB2;}
	.st27{fill:url(#XMLID_00000077317142510781810040000000487281581998317222_);}
	.st28{fill:url(#XMLID_00000142873250067195933740000001357500416128736418_);}
	.st29{fill:url(#XMLID_00000171691073643964992850000011243293030364127659_);}
	.st30{fill:url(#XMLID_00000092422387045203757440000001329176523128286868_);}
	.st31{fill:url(#XMLID_00000101074760708760056620000001403552400736611977_);}
	.st32{fill:url(#XMLID_00000129183170926845372090000002256468961202486418_);}
	.st33{fill:url(#XMLID_00000132806879202742492960000013947610233701746576_);}
	.st34{fill:url(#XMLID_00000065756235818138775320000011082596075708559522_);}
	.st35{fill:url(#XMLID_00000080179834968288827980000003454782031364873089_);}
	.st36{fill:url(#XMLID_00000148648725153127266980000007750526479346496650_);}
	.st37{fill:url(#XMLID_00000106834262123833306310000013181782729933646757_);}
	.st38{fill:url(#XMLID_00000081618079905196206670000001044619390836174737_);}
	.st39{fill:url(#XMLID_00000133503532091834989250000007369882954945408910_);}
	.st40{fill:url(#XMLID_00000161632513739160699090000012279258349949065402_);}
	.st41{fill:url(#XMLID_00000082360553017983212450000005911962088358826413_);}
	.st42{fill:url(#SVGID_00000081639954619763394100000017981326517380579742_);}
	.st43{fill:url(#SVGID_00000116216174744739150770000012283405389094766741_);}
	.st44{fill:url(#SVGID_00000044861854119335493170000011480679281686793115_);}
	.st45{fill:url(#SVGID_00000080928184899899339050000009439990583146123651_);}
	.st46{fill:url(#SVGID_00000024682358172169226390000015797202423042475931_);}
	.st47{fill:url(#SVGID_00000095328434579119388930000013411549263728520890_);}
	.st48{fill:url(#SVGID_00000025442951533182493560000005809375992878907776_);}
	.st49{fill:url(#SVGID_00000003089029402689494580000004044887729268035205_);}
	.st50{fill:url(#SVGID_00000052097580870136268830000005412906908859661989_);}
	.st51{fill:url(#SVGID_00000111905813437269876630000010614390059294970511_);}
	.st52{fill:url(#SVGID_00000152966163291667197300000001590593967444170397_);}
	.st53{fill:url(#SVGID_00000058591253603670012590000003809557668909566121_);}
	.st54{fill:url(#SVGID_00000117641280390788429280000001577510116502062243_);}
	.st55{fill:url(#SVGID_00000133507720272901296790000017014563158778014908_);}
	.st56{fill:#30325E;}
	.st57{fill:#FF7859;}
	.st58{fill:#FFD550;}
	.st59{fill:#00C3AD;}
	.st60{fill:#FF4653;}
	.st61{fill:#D8CE19;}
	.st62{fill:#C1E5DE;}
	.st63{fill:#FFE4D2;}
	.st64{fill:#DFF4F0;}
	.st65{fill:#A2E0EB;}
	.st66{fill:#1B3493;}
	.st67{fill:none;stroke:#FFFFFF;stroke-width:2;stroke-linecap:round;stroke-linejoin:round;stroke-miterlimit:10;}
	.st68{fill:#F15A24;}
	.st69{fill:#F7931E;}
	.st70{fill:#58595B;}
	.st71{fill:#114E15;}
	.st72{fill:#013D01;}
	.st73{fill:#E9C608;}
	.st74{fill:#043B00;}
	.st75{fill:#D8A43E;}
	.st76{clip-path:url(#SVGID_00000050626100057668209320000011464133701942698415_);}
	.st77{fill:#F49630;}
	.st78{clip-path:url(#SVGID_00000041290439128892590360000008127140925953422247_);}
	.st79{clip-path:url(#SVGID_00000006675651880294351670000007647691550676116621_);}
	.st80{clip-path:url(#SVGID_00000098194808563623826180000001071712654434434724_);}
	.st81{clip-path:url(#SVGID_00000140715008093244162120000004090005326892143284_);}
	.st82{fill-rule:evenodd;clip-rule:evenodd;fill:#FF6600;}
	.st83{fill-rule:evenodd;clip-rule:evenodd;fill:#05174F;}
	.st84{fill:#05174F;}
	.st85{opacity:0.42;fill:url(#SVGID_00000163033966809567202670000016814477503208617860_);enable-background:new    ;}
	.st86{opacity:0.42;fill:url(#SVGID_00000147932845960353205250000013479964336782088378_);enable-background:new    ;}
	.st87{fill:url(#SVGID_00000160874540155809244140000003308866785463036305_);}
	.st88{fill:url(#SVGID_00000044170655012188542770000008466740712633289602_);}
	.st89{opacity:0.64;fill:url(#SVGID_00000077294116762503385410000007000123210654010240_);enable-background:new    ;}
	.st90{opacity:0.75;fill:url(#SVGID_00000011021173199382954130000008361443851454876051_);enable-background:new    ;}
	.st91{fill:url(#SVGID_00000004537221574634078990000014091870548711138987_);}
	.st92{fill:url(#SVGID_00000021840529360685115260000016921619532817873077_);}
	.st93{opacity:0.76;fill:url(#SVGID_00000065762834404241933130000013741712858019184278_);enable-background:new    ;}
	.st94{opacity:0.75;fill:url(#SVGID_00000138571173450769503480000004350352691972653708_);enable-background:new    ;}
	.st95{fill:url(#SVGID_00000152964353914019818810000011001400501328982939_);}
	.st96{opacity:0.42;fill:url(#SVGID_00000102503708366900003250000006615571602124294286_);enable-background:new    ;}
	.st97{opacity:0.42;fill:url(#SVGID_00000071533999736240598120000016104455718361840819_);enable-background:new    ;}
	.st98{clip-path:url(#SVGID_00000118361926891565614640000011837579327227038614_);}
	.st99{fill:#1ED7FE;}
	.st100{clip-path:url(#SVGID_00000170961728440613163130000002178540318424094391_);}
	.st101{clip-path:url(#SVGID_00000025429644083988087060000001593425128933320872_);}
	.st102{fill:#000056;}
	.st103{clip-path:url(#SVGID_00000060722715035426894550000004772839477117609615_);}
	.st104{enable-background:new    ;}
	.st105{fill:#053272;}
	.st106{fill:none;stroke:#053272;stroke-width:4;stroke-miterlimit:10;}
	.st107{fill:url(#SVGID_00000108302532088684812330000015813203200085296031_);}
	.st108{fill:url(#SVGID_00000103956832170915917910000005282743629565355698_);}
	.st109{fill:url(#SVGID_00000147178990073445440230000011066563902462621578_);}
	.st110{fill:url(#SVGID_00000024710260217453759760000000049332097220826015_);}
	.st111{fill:url(#SVGID_00000161600853601905548540000002927234430385598134_);}
	.st112{fill:url(#SVGID_00000132088044223827382630000015728797744456391091_);}
	.st113{fill:url(#SVGID_00000101066043835941790110000009604037069650905513_);}
	.st114{fill:url(#SVGID_00000177471659674009738430000002430943721609805498_);}
	.st115{fill:url(#SVGID_00000069399434912847658910000009241243003946860204_);}
	.st116{fill:url(#SVGID_00000075848638569879786780000015683930947579176590_);}
	.st117{fill:url(#SVGID_00000021114422206504740940000012707171198896953735_);}
	.st118{fill:url(#SVGID_00000115506426162076397510000010734042637699343781_);}
	.st119{fill:url(#SVGID_00000021117508692648158940000004306245202664346041_);}
	.st120{fill:url(#SVGID_00000180339019847526584410000002585313640992768661_);}
	.st121{fill:url(#SVGID_00000063598794178294626560000011725833427682124427_);}
	.st122{fill:url(#SVGID_00000149348067604546706240000004530300361461943710_);}
	.st123{fill:url(#SVGID_00000036964326300184146230000010786503387135900565_);}
	.st124{fill:url(#SVGID_00000085236098314947282040000016580052473638477467_);}
	.st125{fill:url(#SVGID_00000021091025904361168140000013216744260501981088_);}
	.st126{fill:url(#SVGID_00000109736644553077894070000015814048041592432271_);}
	.st127{fill:url(#SVGID_00000158027258073268683140000015757715402148135553_);}
	.st128{fill:url(#SVGID_00000112632446267700941500000001493163056586450579_);}
	.st129{fill:url(#SVGID_00000013172864799624129570000009093280810161554332_);}
	.st130{fill:url(#SVGID_00000114759400518640683650000007308681619134955693_);}
	.st131{fill:url(#SVGID_00000018231676169781759910000002762295440099226285_);}
	.st132{fill:url(#SVGID_00000065754069815112746980000012872616062163981229_);}
	.st133{fill:url(#SVGID_00000090266233341421314420000000999651969880199299_);}
	.st134{fill:url(#SVGID_00000013179296166381310170000010243458887157576613_);}
	.st135{fill:url(#SVGID_00000109709369762877554770000003209497518815169684_);}
	.st136{fill:none;stroke:#FEF73D;stroke-linecap:round;stroke-miterlimit:10;}
	.st137{fill:#FF189C;}
	.st138{fill:none;stroke:#FF189C;stroke-miterlimit:10;}
	.st139{fill:none;stroke:#00EFF1;stroke-linecap:round;stroke-miterlimit:10;}
	.st140{fill:#00EFF1;}
	.st141{fill:#FFA022;}
	.st142{fill:#0C103A;}
	.st143{fill-rule:evenodd;clip-rule:evenodd;fill:#5D9541;}
	.st144{fill-rule:evenodd;clip-rule:evenodd;fill:#F06021;}
	.st145{fill-rule:evenodd;clip-rule:evenodd;fill:#69BC60;}
	.st146{fill-rule:evenodd;clip-rule:evenodd;fill:#F6951C;}
	.st147{fill:#F6951C;}
	.st148{fill:url(#SVGID_00000010273427258753179580000001533268714416989867_);}
	.st149{fill:url(#SVGID_00000175318739681049168580000003859073736499049644_);}
	.st150{fill:url(#SVGID_00000039824610692895489530000018247693538338645652_);}
	.st151{fill:url(#SVGID_00000119104270727501720800000009080001744783766970_);}
	.st152{fill:url(#SVGID_00000087375271429490167810000012406585786873583266_);}
	.st153{fill:url(#SVGID_00000168099577474052652140000010574963921995095946_);}
	.st154{fill:url(#SVGID_00000088121265509708579220000015124487529829150131_);}
	.st155{fill:url(#SVGID_00000093150459581830133740000010172391704979131019_);}
	.st156{fill:url(#SVGID_00000083799900292335133780000015195667759099094447_);}
	.st157{fill:url(#SVGID_00000024685677653450464320000004014914999194857883_);}
	.st158{fill:url(#SVGID_00000036942116897499030490000008278380883065743244_);}
	.st159{fill:url(#SVGID_00000017479824296959714460000017701884578290080427_);}
	.st160{fill:url(#SVGID_00000039847964013912010400000005162334545854214545_);}
	.st161{fill:url(#SVGID_00000133510177526547204930000006825046679994003350_);}
	.st162{fill:url(#SVGID_00000140727229630684892390000013469147516893038777_);}
	.st163{fill:url(#SVGID_00000102538048168223915870000002037575204766439851_);}
	.st164{fill:url(#SVGID_00000125579726853713673200000013049056582652496811_);}
	.st165{fill:url(#SVGID_00000161591656956097180660000010555986377459680916_);}
	.st166{fill:url(#SVGID_00000183931399048330167780000005243176623614356868_);}
	.st167{fill:url(#SVGID_00000159455069985091303100000008468396853422322054_);}
	.st168{fill:url(#SVGID_00000081605604162633073750000003870036354048010930_);}
	.st169{fill:url(#SVGID_00000112611575879368829350000010194998664677450650_);}
	.st170{fill-rule:evenodd;clip-rule:evenodd;fill:#512100;}
	.st171{fill-rule:evenodd;clip-rule:evenodd;fill:#006D62;}
	.st172{fill-rule:evenodd;clip-rule:evenodd;}
	.st173{fill-rule:evenodd;clip-rule:evenodd;fill:#00A1F5;}
	.st174{fill-rule:evenodd;clip-rule:evenodd;fill:#FACFAB;}
	.st175{fill-rule:evenodd;clip-rule:evenodd;fill:#F29673;}
	.st176{fill-rule:evenodd;clip-rule:evenodd;fill:#FFFFFF;}
	.st177{fill-rule:evenodd;clip-rule:evenodd;fill:#333333;}
	.st178{fill-rule:evenodd;clip-rule:evenodd;fill:#BD4D00;}
	.st179{fill-rule:evenodd;clip-rule:evenodd;fill:#B2B2B2;}
	.st180{fill-rule:evenodd;clip-rule:evenodd;fill:#F2CC29;}
	.st181{fill-rule:evenodd;clip-rule:evenodd;fill:#005C9C;}
	.st182{fill-rule:evenodd;clip-rule:evenodd;fill:#8AC900;}
	.st183{fill-rule:evenodd;clip-rule:evenodd;fill:#808080;}
	.st184{fill-rule:evenodd;clip-rule:evenodd;fill:#CFA605;}
	.st185{fill-rule:evenodd;clip-rule:evenodd;fill:#666666;}
	.st186{fill-rule:evenodd;clip-rule:evenodd;fill:#CCCCCC;}
	.st187{fill:#960000;}
	.st188{fill:#00A1F5;}
	.st189{fill:url(#SVGID_00000060013746744386078980000003881515848738101423_);}
	.st190{fill:url(#SVGID_00000034077725537564017390000017160942075054873501_);}
	.st191{opacity:0.51;fill:url(#SVGID_00000021814047030791422500000014626609478032127906_);}
	.st192{fill:url(#SVGID_00000097460264952089652300000012395063389722785942_);}
	.st193{fill:url(#SVGID_00000178174666683923746470000006676083499363198639_);}
	.st194{fill:url(#SVGID_00000137851789355429686530000000779499521779887551_);}
	.st195{opacity:0.35;fill:url(#SVGID_00000173843608269193139800000010986173402411300284_);}
	.st196{opacity:0.35;fill:url(#SVGID_00000176012057587570601620000008749796934813267866_);}
	.st197{fill:#F06021;}
	.st198{fill-rule:evenodd;clip-rule:evenodd;fill:url(#SVGID_00000034793159494150936590000007667055311032175020_);}
	.st199{fill-rule:evenodd;clip-rule:evenodd;fill:url(#SVGID_00000146497494661584629660000002075092822549704351_);}
	.st200{fill-rule:evenodd;clip-rule:evenodd;fill:url(#SVGID_00000166668271296101880760000018382441222517127330_);}
	.st201{fill-rule:evenodd;clip-rule:evenodd;fill:url(#SVGID_00000160163171795140320320000017536288302325929390_);}
	.st202{fill-rule:evenodd;clip-rule:evenodd;fill:url(#SVGID_00000173160195001909123390000016992544411408688787_);}
	.st203{fill-rule:evenodd;clip-rule:evenodd;fill:url(#SVGID_00000118369409145211174830000011038662303842989703_);}
	.st204{fill-rule:evenodd;clip-rule:evenodd;fill:url(#SVGID_00000039118703135839970460000015588832388915316402_);}
	.st205{fill-rule:evenodd;clip-rule:evenodd;fill:url(#SVGID_00000075149010667888734210000004933372961050722216_);}
	.st206{fill-rule:evenodd;clip-rule:evenodd;fill:url(#SVGID_00000156581065077081801860000004875826815609333147_);}
	.st207{fill-rule:evenodd;clip-rule:evenodd;fill:url(#SVGID_00000109750687983055221660000011706150071345738893_);}
	.st208{fill-rule:evenodd;clip-rule:evenodd;fill:url(#SVGID_00000000184799304631890440000012929477102207570847_);}
	.st209{fill-rule:evenodd;clip-rule:evenodd;fill:url(#SVGID_00000090294129634641996820000010758017099583333309_);}
	.st210{fill-rule:evenodd;clip-rule:evenodd;fill:url(#SVGID_00000114053363979933752430000014679845933971461514_);}
	.st211{opacity:0.5;fill-rule:evenodd;clip-rule:evenodd;fill:#5D0101;enable-background:new    ;}
	.st212{fill:#E11B22;}
	.st213{fill:#959595;}
	.st214{fill:#003359;}
	.st215{fill:#1779C1;}
	.st216{fill:#0EB17C;}
	.st217{fill:#2B2353;}
	.st218{fill:#BE264E;}
	.st219{fill:#EAA41C;}
	.st220{fill:#1F9EF3;}
	.st221{fill:#0267A3;}
	.st222{fill:#FFEC00;}
	.st223{fill:#00A0E0;}
	.st224{fill:#E3007E;}
	.st225{fill:none;stroke:#000000;stroke-width:2;stroke-miterlimit:10;}
	.st226{fill:#FF9E80;}
	.st227{fill:#414151;}
	.st228{fill:#2B295E;}
	.st229{fill:#CCCCCC;}
	.st230{fill:#FF8C5C;}
	.st231{fill:#DBA21C;}
	.st232{fill:#EDDBB2;}
	.st233{fill:#DEC58B;}
	.st234{fill:#997113;}
	.st235{fill:#B88817;}
	.st236{fill:#003400;stroke:#8EC13D;stroke-width:4;stroke-miterlimit:10;}
	.st237{fill:#8EC13D;}
	.st238{fill:url(#XMLID_00000147179287679872441910000010541396630523579779_);}
	.st239{fill:url(#SVGID_00000158027832624673333950000010339113544731257729_);}
	.st240{fill:url(#SVGID_00000054249838404330075590000001630498641258087562_);}
	.st241{fill:url(#SVGID_00000170985029465271452680000007644243172251838090_);}
	.st242{fill:url(#SVGID_00000006676337946736597820000015774423362900606617_);}
	.st243{fill:url(#SVGID_00000083768797665551251360000018393367830615268518_);}
	.st244{fill:url(#SVGID_00000090292792553425128620000009615100634964214156_);}
	.st245{fill:url(#SVGID_00000115483489815976893350000017223892868508008383_);}
	.st246{fill:url(#SVGID_00000000192395800015667210000017664269584254951345_);}
	.st247{fill:url(#SVGID_00000077311430852583544630000004932826398946669988_);}
	.st248{fill:url(#SVGID_00000057849365544732505110000004602649137355841441_);}
	.st249{fill:url(#SVGID_00000155860738076846172370000007228413248445265831_);}
	.st250{fill:#1C75BC;}
	.st251{fill:#46920C;}
	.st252{fill:#FF9400;}
	.st253{fill:url(#SVGID_00000157306984058896264030000016999274139397045943_);}
	.st254{fill:url(#SVGID_00000024693708881736884540000005242971352261422993_);}
	.st255{fill:url(#SVGID_00000025444868064752256430000001855576366565365130_);}
	.st256{fill:url(#SVGID_00000133524294776591651280000014880649638044234889_);}
	.st257{fill:url(#SVGID_00000063616527099435293570000014558798069514621577_);}
	.st258{fill:url(#SVGID_00000075158146759901170740000006112822846548081302_);}
	.st259{fill:url(#SVGID_00000124133297477918595110000007322387225435555772_);}
	.st260{fill:url(#SVGID_00000100374390533931532280000002768284366621839235_);}
	.st261{fill:url(#SVGID_00000178919197508237362360000016901086368027578288_);}
	.st262{fill:url(#SVGID_00000116930363916785063450000001393625470033964438_);}
	.st263{fill:url(#SVGID_00000121237254186080918220000006107541716216288169_);}
	.st264{fill:url(#SVGID_00000168803674694207784000000005490999796095282053_);}
	.st265{fill:url(#SVGID_00000083797622489671203280000004599467583345423240_);}
	.st266{fill:url(#SVGID_00000132798795161516429740000000748371320528501656_);}
	.st267{fill:url(#SVGID_00000106133144971779682820000004504312152106208671_);}
	.st268{fill:url(#SVGID_00000021801104416452747930000011537744688453391279_);}
	.st269{fill:url(#SVGID_00000119823140971890672250000009676268923777831590_);}
	.st270{fill:url(#SVGID_00000134249363685061975960000003930519499597258148_);}
	.st271{fill:url(#SVGID_00000158729716466955170320000004014170087841747121_);}
	.st272{fill:#2F3F67;}
	.st273{fill:#C97F32;}
	.st274{fill:none;stroke:#C97F32;stroke-width:1.2891;stroke-miterlimit:10;}
	.st275{fill:url(#XMLID_00000070827096550009005930000012427628052694158490_);}
	.st276{fill:#00548B;}
	.st277{fill:#004368;}
	.st278{fill:#94070A;}
	.st279{fill:url(#XMLID_00000009561392288465140580000018378524089721852035_);}
	.st280{fill:url(#XMLID_00000065780189501819391270000018059509025183175321_);}
	.st281{fill:#B34A06;}
	.st282{fill:#A2B5C4;}
	.st283{fill:#192940;}
	.st284{fill:url(#SVGID_00000027568596648867528520000006475106045750975893_);}
	.st285{fill:url(#SVGID_00000138545138691856475120000007065223886337852861_);}
	.st286{fill:url(#SVGID_00000084508549574318863350000008571439784215112889_);}
	.st287{opacity:0.93;fill:url(#SVGID_00000084511636989195007270000004266977322945220014_);}
	.st288{opacity:0.93;fill:url(#SVGID_00000008847864973426220610000003108597656818108051_);}
	.st289{opacity:0.93;fill:url(#SVGID_00000009572748229882669190000005258695276597710236_);}
	.st290{opacity:0.93;fill:url(#SVGID_00000049198472553528690640000004755228630720819109_);}
	.st291{fill:url(#SVGID_00000182488713752990565820000007528807993420119481_);}
	.st292{stroke:#000000;stroke-width:0.75;stroke-miterlimit:10;}
</style>
<g>
	<path class="st170" d="M166.68,26.26c48.46,0,87.74,39.28,87.74,87.74s-39.28,87.74-87.74,87.74c-26.4,0-50.07-11.66-66.16-30.11
		c14.44,13.99,34.12,22.6,55.81,22.6c44.31,0,80.22-35.92,80.22-80.22s-35.92-80.22-80.22-80.22c-21.69,0-41.37,8.61-55.81,22.6
		C116.6,37.93,140.28,26.26,166.68,26.26L166.68,26.26z"/>
	<path class="st171" d="M154.44,38.89c41.48,0,75.11,33.63,75.11,75.11s-33.63,75.11-75.11,75.11c-41.48,0-75.11-33.63-75.11-75.11
		S112.95,38.89,154.44,38.89L154.44,38.89z"/>
	<path class="st172" d="M118.29,64.07c0,0-2.3-10.96,5.25-17.12c0,0,4.33-4.05,14.18-5.43c0,0,2.95-0.74,8.1,2.39
		c5.16,3.13,6.72,4.97,7.27,5.8c0.55,0.83,0.28,2.39,0.28,2.39s5.25,3.87,3.96,7.73c-1.29,3.87-3.41,3.77-3.41,3.77
		s-0.1,3.11-0.57,4.63c0,0,4.17,1.28,1.28,7.67c0,0-1.99,5.02-5.4,4.45c0,0-1.04,4.02-3.36,5.87c0,0,5.11,5.49,6.16,7.48
		c0,0,6.49,0.99,10.84,5.92c4.36,4.92,9.28,15.01,9.28,15.01l0.9,0.8c0,0-1.04-4.4,1.18-6.91c2.23-2.51,3.12-4.17,3.12-4.17
		s-1.04-7.58,1.52-10.23c2.56-2.65,4.73-2.84,6.44-2.08c1.7,0.76,3.6,3.22,3.03,6.87c-0.57,3.65-1.85,7.29-1.85,7.29
		s4.26,0.52,5.68,1.56c1.42,1.04,2.79,3.55,2.46,5.63c0,0,2.7,1.37,1.18,6.3c0,0,2.18,1.89-0.9,6.44l11.88,2.51
		c0,0,2.98,0.24,2.89,3.88c-0.09,3.65-0.28,7.86-0.28,7.86s-0.24,2.04-2.04,2.04l-0.14,20.36c0,0,0.52,2.32-1.56,3.12l-25.52,10.61
		c0,0-0.81,0.33-2.37-0.33l-15.85-5.39c0,0-8.79,6.54-28.86,6.05c0,0-18.6-1.22-24.1-5.2c0,0,0.43-7.83,2.26-10.09
		c0,0-2.26-0.67-1.47-4.77c0.8-4.1,0.73-3.79,1.9-4.22c0,0,0.2-1.54-0.34-1.9c-0.54-0.36-2.49-4.7-1.74-7.16
		c0,0-4.4-6.02-4.82-12.46c0,0-4.85,5.72-7.04,6.86c-2.19,1.14-4.85,2.82-4.85,2.82s-0.78,4.22-4.37,6.05
		c-3.59,1.83-8.75,2.2-12.5-1.43l-2.59-2.71c0,0-7.23-0.07-10.1-7.59c-2.86-7.52-0.43-11.81-0.43-11.81s-1.5-2-0.29-3.8
		c0,0-3.15-5.8-0.07-8.31c0,0-2.01-5.08,1.86-7.88c0,0-0.14-6.37,4.87-7.88c5.01-1.5,7.38-0.64,7.38-0.64l1.72-13.89
		c0,0-1.72-2.79-3.37-3.87c-1.65-1.07-4.65-5.3-4.65-5.3s0.36-6.8,0.36-9.52c0-2.72,0.5-3.65,0.5-3.65l12.1-9.74
		c0,0,3.08,1.43,3.37,2.43L84,66.65l10.17,2.43l3.94-14.82l3.94-1.58l6.01,13.03l-1,3.94c0,0-0.26,3.83-1.96,5.66
		c-1.7,1.84-7.17,4.48-8.2,5.91c-1.03,1.43-1.93,11.07-1.93,11.07s3.99-2.15,6-0.13c2.02,2.02,2.33,3.9,2.33,3.9
		s8.78-3.63,12.55-3.36c0,0,4.3-8.87,6.5-10.53c0,0-1.27-2.07-0.99-4.35c0,0-3.23-0.13-5.02-4.3c-1.79-4.17-0.53-6.92,0.62-8.8l0,0
		L118.29,64.07L118.29,64.07z M84.81,136.89l0.59,1.28l0.59,1.28l-0.81,1.15l-0.81,1.15l-1.4-0.13l-1.4-0.13l-0.59-1.28l-0.59-1.28
		l0.81-1.15l0.81-1.15l1.4,0.13L84.81,136.89L84.81,136.89z"/>
	<path class="st173" d="M119.6,60.91c0,0,1.83-2.14,4.37-4.5v0c0,0-0.55-4.21-0.14-7.77c-0.14,0.15-0.29,0.3-0.43,0.47
		C123.41,49.11,118.52,55.21,119.6,60.91L119.6,60.91z M124.5,55.93c2.39-2.17,5.29-4.41,7.87-5.29c5.59-1.92,11.67-2.14,14.2-1.31
		c2.53,0.83,5.24,2.32,5.24,2.32s-0.22-1.84-1.49-2.71c-1.27-0.87-7.34-5.16-9.35-5.59c0,0-2.49-0.74-7.95,1.09
		c-3.85,1.29-6.04,1.91-7.71,2.99c-0.44,1.32-0.82,2.62-0.9,3.43C124.28,52.2,124.39,54.42,124.5,55.93L124.5,55.93z"/>
	<path class="st173" d="M121.92,59.55c0,0,4.59-1.57,8.26-3.28c3.67-1.7,8.7-2.58,13.55-1.01c4.85,1.57,8.65,5.99,9.26,7.69
		c0,0,1.5-0.4,2.4-1.3c0.38-3.64-2.15-5.33-3.89-6.83c-7.38-6.32-18.08-1.89-25.21,2.32c13.91-12.25,31.15-2.97,29.32,4.27
		c0.13-0.16,0.23-0.33,0.31-0.51c0.61-1.44,0.09-4.63-1.35-6.07c-1.44-1.44-7.39-5.46-12.5-5.07
		C136.95,50.16,131.36,49.59,121.92,59.55L121.92,59.55z"/>
	<path class="st174" d="M126.99,58.33c0,0-1.57,4.11-3.1,5.03c0,0-0.57,10.71-0.83,12.98c-0.26,2.27-0.31,5.46,2.67,7.82
		c2.97,2.36,5.29,5.2,10.09,5.33s8.52-3.32,9.92-5.2c1.4-1.88,2.45-5.64,2.93-9.09c0.48-3.45,1.4-8.3,1.31-10.27
		c-0.09-1.97-0.74-5.33-0.74-5.33l-1.84,1.09c0,0-3.67-3.15-8.3-0.74c0,0,0.09-4.46-1.79-4.54C137.3,55.4,131.71,56.19,126.99,58.33
		L126.99,58.33z"/>
	<path class="st174" d="M150.19,73.97c0,0-0.35-2.62,1.18-3.67c0,0,1.79-1.14,2.14,0.7c0.35,1.84,0.22,5.59-3.67,6.95
		c0,0-0.52-1.62,0.26-2.71c0.79-1.09,2.53-3.67,2.53-3.67S151.46,71.96,150.19,73.97L150.19,73.97z"/>
	<path class="st174" d="M122.18,71.48c0,0-0.04-5.16-2.05-5.42c-2.01-0.26-2.88,1.14-3.02,3.19c-0.13,2.05,1.27,6.21,4.94,6.34
		l0.26-3.19l-1.7-1.31l-0.26,1.44c0,0,0.26-1.7-0.09-2.27c-0.35-0.57-1.35-2.45-1.35-2.45S121.22,68.82,122.18,71.48L122.18,71.48z"
		/>
	<path class="st175" d="M124.77,72.17l0.21-8.08c0,0,4.25-5.28,8.39-6.22c2.11-0.47,3.94-0.43,5.51-0.25
		c-0.22-1.1-0.67-2.18-1.58-2.22c0,0-5.59,0.79-10.31,2.93c0,0-1.57,4.11-3.1,5.03c0,0-0.57,10.71-0.83,12.98
		c-0.21,1.8-0.28,4.19,1.19,6.27L124.77,72.17L124.77,72.17z M144.58,59.3c1.72,1.68,3.41,4.88,3.41,6.76
		c0,2.59,0.68,9.14,0.68,9.14c0.48-3.45,1.4-8.3,1.31-10.27c-0.09-1.97-0.74-5.33-0.74-5.33l-1.84,1.09
		C147.4,60.69,146.31,59.76,144.58,59.3L144.58,59.3z"/>
	<path class="st172" d="M126.07,62.09c0,0,4.72-2.53,9.13,1.57l0.48-2.93c0,0-2.27-2.32-6.34-2.05
		C129.35,58.68,127.47,58.94,126.07,62.09L126.07,62.09z"/>
	<path class="st172" d="M141.15,64.49l0.57-2.62c0,0,2.08-0.99,5.03-0.31c0,0,2.1,0.7,2.1,3.63
		C148.84,65.19,145.82,62.22,141.15,64.49L141.15,64.49z"/>
	<path class="st175" d="M138.75,68.15c0,0-0.6,2.31-0.49,3.44c0.1,1.14-2.2,1.42-2.56,1.86c-0.36,0.44-0.39,0.96-0.39,0.96
		s0.93,0.34,1.4,0.36c0.47,0.03,1.56,0.37,1.56,0.37s1.29-0.37,1.63-0.84c0.34-0.46,0.19-2.4-0.19-2.82
		c-0.38-0.43-0.35-4.51-0.35-4.51L138.75,68.15L138.75,68.15z"/>
	<path class="st172" d="M139.36,66.98c0,0,0.17,3.45,0.92,5.64c0,0,0.83,1.75-2.01,2.53c0,0,1.22-0.7,1.62-1.62
		C140.27,72.62,138.35,70.39,139.36,66.98L139.36,66.98z"/>
	<path class="st176" d="M143.63,66.18c1.21,0,2.19,1.1,2.19,2.45c0,1.35-0.57,2.4-2.19,2.45c-1.67,0-2.26-0.86-2.26-2.21
		C141.37,67.51,142.42,66.18,143.63,66.18L143.63,66.18z"/>
	<path class="st172" d="M141.39,69.12c0,0-0.01-0.07-0.01-0.18c-0.15-2.71,2.38-5.16,4.47-2.69c0,0-0.89-1.02-2.06-0.6
		c0,0,1.61,0.21,1.89,1.36c0.28,1.15,0.34,2.14,0.01,2.68c0,0,0.6-1.68-0.94-2.96c0,0-0.15-0.11-0.38-0.22
		c0.37,0.38,0.6,0.97,0.6,1.64c0,1.15-0.7,2.08-1.56,2.08c-0.86,0-1.56-0.93-1.56-2.08c0-0.51,0.14-0.97,0.36-1.33
		C141.84,67.23,141.54,67.95,141.39,69.12L141.39,69.12z M143.1,66.65c0.28,0,0.5,0.33,0.5,0.74s-0.23,0.74-0.5,0.74
		c-0.28,0-0.51-0.33-0.51-0.74C142.59,66.98,142.82,66.65,143.1,66.65L143.1,66.65z"/>
	<path class="st176" d="M130.76,64.1c-1.6,0-2.9,1.24-2.9,2.77c0,1.53,0.75,2.72,2.9,2.77c2.2,0,2.99-0.97,2.99-2.5
		S132.36,64.1,130.76,64.1L130.76,64.1z"/>
	<path class="st172" d="M133.73,67.42c0,0,0.01-0.08,0.02-0.21c0.2-3.07-3.15-5.83-5.92-3.04c0,0,1.18-1.16,2.72-0.68
		c0,0-2.13,0.24-2.5,1.54c-0.36,1.31-0.45,2.42-0.02,3.03c0,0-0.8-1.9,1.25-3.35c0,0,0.19-0.12,0.5-0.25
		c-0.49,0.43-0.8,1.1-0.8,1.86c0,1.3,0.92,2.35,2.06,2.35c1.14,0,2.06-1.05,2.06-2.35c0-0.57-0.18-1.1-0.48-1.51
		C133.13,65.29,133.53,66.1,133.73,67.42L133.73,67.42z M131.47,64.63c-0.37,0-0.67,0.38-0.67,0.84c0,0.46,0.3,0.84,0.67,0.84
		c0.37,0,0.67-0.38,0.67-0.84C132.14,65.01,131.84,64.63,131.47,64.63L131.47,64.63z"/>
	<path class="st172" d="M135.3,74.42c0,0,0.34-0.78,1.86-0.47c0,0,0.19,0.28-0.12,0.4C136.73,74.48,135.91,74.11,135.3,74.42
		L135.3,74.42z"/>
	<path class="st175" d="M129.17,75.28c-0.48-0.02-0.35-0.95-0.35-0.95s-0.79,2.46,0.61,5.46c1.4,3,4.69,4.41,7,4.42
		c2.31,0.02,4.24-0.69,5.74-2.35c1.5-1.66,1.93-4.9,1.93-4.9S132.43,79.16,129.17,75.28L129.17,75.28z"/>
	<path class="st172" d="M128.81,74.32c0,0,1.39,1.51,7.77,2.44s7.51,0.19,7.51,0.19s-1.57,5.33-6.39,5.67
		C132.88,82.98,127.77,78.74,128.81,74.32L128.81,74.32z"/>
	<path class="st176" d="M130.19,76.07c0,0-0.23,0.77,0.21,1.18c0.45,0.41,3.06,1.55,3.06,1.55l-2.85-0.95c0,0,0.79,3.22,4.86,3.8
		c4.07,0.57,5.27-1.12,5.31-1.61c0,0-1.55-0.08-2.09-0.21c0,0,2.61-0.35,2.92-1.03c0.31-0.68-0.19-0.58-0.19-0.58
		S134.53,77.96,130.19,76.07L130.19,76.07z"/>
	<path class="st172" d="M133.64,83.48c0,0,4.12,0.75,5.58,0.42C139.21,83.91,136,86.46,133.64,83.48L133.64,83.48z"/>
	<path class="st177" d="M120.66,60.62l4.74-1.47c0,0-0.82,2.17-1.65,3.09c-0.82,0.92-0.82,5.24-0.82,5.24l-0.02,1.75
		c0,0-1.05-3.52-2.39-3.99c-1.35-0.47-1.92,0.02-1.92,0.02S119.16,61.47,120.66,60.62L120.66,60.62z"/>
	<path class="st177" d="M138.54,55.28c0,0,1.02,0.57,1.16,3.48c0,0,4.71-1.76,7.35,0.86l0.48,0.5l1.27-0.84
		C148.8,59.29,145.62,54.87,138.54,55.28L138.54,55.28z"/>
	<path class="st177" d="M150.84,61.54c0,0,1.24,1.5,1.55,2.49c0.3,0.99-0.18,5-0.18,5s-1.57,0.56-1.85,1.37c0,0,0.89-4.46,0.99-5.43
		C151.45,64,151.72,62.72,150.84,61.54L150.84,61.54z"/>
	<path class="st177" d="M123.56,74.52c0,0-0.15,4.01,0.22,5.66c0.22,0.98,2.33,3.85,4.37,6.17c2.02,1.67,4.17,3.11,7.56,3.2
		c2.75,0.08,5.15-1.03,6.95-2.33c0.86-1.29,1.82-2.7,2.34-3.36c1.07-1.36,2.43-4.01,2.57-5.44c0,0-1.07,1.47-1.95,2.06
		c0,0-0.85-3.31-0.99-3.97c0,0-0.66,5.04-1.29,6.25c-0.63,1.21-3.35,2.46-4.67,2.61c-1.32,0.15-4.71-0.11-5.96-0.51
		c-1.25-0.4-3.31-0.96-4.45-3.97c-1.14-3.02,0.18-6.88,0.18-6.88s-2.61,2.13-3.02,3.71C125.43,77.72,124.11,77.21,123.56,74.52
		L123.56,74.52z"/>
	<path class="st174" d="M124.26,84.75c0,0-0.33,0.48,0.4,1.84c0.74,1.36,6.66,7.91,7.43,9.2c0.77,1.29,3.16,3.09,3.35,4.34
		c0.18,1.25,0.18,1.95,0.18,1.95s2.94,2.57,5.59,1.62c2.65-0.96,3.75-2.83,3.75-4.52c0-1.69-0.96-4.52-0.96-4.52l-0.92,3.24
		l1.29-8.79l0.15-1.66c0,0-3.05,4.67-6.8,4.38C133.97,91.52,129.26,89.93,124.26,84.75L124.26,84.75z"/>
	<path class="st82" d="M122.25,84.65c0,0-4.03,5.87-4.08,7.03c-0.04,1.16,4.84,7.89,5.82,10.39s1.97,3.72,1.97,3.72
		s3.76-5.82,5.91-6.18c0,0,2.11,0.22,2.55,2.64c0,0,0.09-2.37-2.42-4.57C129.51,95.49,122.79,86.71,122.25,84.65L122.25,84.65z"/>
	<path class="st82" d="M145.46,88.5l-0.58,5.56c0,0,2.24,5.38,2.69,8.38c0,0,1.39-4.3,2.82-4.48c1.43-0.18,4.35,3.09,4.35,3.09
		S149.22,90.56,145.46,88.5L145.46,88.5z"/>
	<path class="st176" d="M136.1,103.64c0,0,2.69,1.84,5.38,1.08c2.69-0.76,3.6-2.66,4.35-4.39c0,0,2.02,4.88,1.97,8.38
		c-0.04,3.49,0,5.96,0,5.96l-8.65,1.52C139.14,116.19,134.84,109.51,136.1,103.64L136.1,103.64z"/>
	<path class="st82" d="M131.66,100.82c0,0-2.55,1.34-3.81,3.76l0.81,2.91c0,0,1.88,0.67,2.6,2.64c0.72,1.97,2.46,5.47,2.37,6.94
		l4.26-0.58c0,0-1.97-4.35-2.55-6.32c-0.58-1.97-0.67-6.72-0.67-6.72S133.59,100.51,131.66,100.82L131.66,100.82z"/>
	<path class="st173" d="M117.82,93.96l-5.06,1.03c0,0,8.33,9.9,9.14,14.34l6.05-1.34l-0.99-2.6l-1.21,1.61
		C125.75,107,119.92,96.07,117.82,93.96L117.82,93.96z"/>
	<path class="st82" d="M112.17,96.14c0,0-7.91,1.17-9.37,2.54c0,0-0.05,5.47-0.88,7.67c-0.83,2.2-2.93,4.79-6.74,4.93
		c0,0-0.29,5.22-0.83,6.54c0,0,4.75,5.8,3.08,13.48c0,0,2.3-2.59,2.49-3.96c0,0-0.78,6.54-3.17,8.59c0,0,3.91-2.59,5.96-4.83
		c2.05-2.25,2.05-2.25,2.05-2.25s7.57-7.32,7.47-12.3c0,0,0.15,7.08-5.03,11.52c0,0,3.81,0.24,5.76-0.54c0,0-3.56,1.81-5.47,2.29
		c0,0-0.88,2.49,0.59,6.15s2.83,5.81,3.86,6.54c0,0-1.17,4.15,1.17,6.98c0,0,6.54-4.39,7.81-8.15c0,0-1.17,6.93-6.98,9.72
		l-0.34,2.83l2.44,1.37c0,0,5.18-2.54,6.93-5.32c1.76-2.78,3.86-6.77,2.75-14.47c-1.11-7.7-3.47-15.61-3.47-15.61l2.29-0.21
		c0,0-1.18-0.9-2.15-3.26c-0.97-2.36-2.2-4.62-1.39-6.04C120.99,110.36,116.67,100.02,112.17,96.14L112.17,96.14z"/>
	<path class="st174" d="M95.46,94.97c0,0-2.29,3.17-2.45,7.71c-0.16,4.54,0.69,5.33,2.78,6.01c2.09,0.69,3.89-1.8,4.12-3.5
		c0.23-1.7,1.57-6.66,1.24-8.4C100.82,95.06,99.44,92.65,95.46,94.97L95.46,94.97z"/>
	<path class="st174" d="M67.41,104.41c0,0-0.5-5.64,2.79-6.87c3.3-1.23,21.95,3.13,21.95,3.13s-0.39,4.08,0.11,5.53
		c0,0-14.58-1.56-16.98-1.4c0,0,10.61,2.18,13.18,2.4c2.57,0.22,5.98,0.56,5.75,3.24c-0.22,2.68-2.01,3.07-4.19,2.79
		c-2.18-0.28-14.41-1.28-14.41-1.28s10.89,2.29,13.96,2.35c3.07,0.06,3.52,1.84,3.3,3.07c-0.22,1.23-2.29,2.96-5.19,2.57
		c-2.9-0.39-11.34-0.73-11.34-0.73s7.87,1.23,9.27,1.23s6.09-0.56,6.09,0.67s0.5,4.91-6.03,5.25c-6.53,0.34-15.53,1.23-17.87-1.28
		c-2.35-2.51-2.51-3.63-2.01-5.59c0,0-3.63-4.02-0.11-7.82C65.68,111.67,63.05,106.48,67.41,104.41L67.41,104.41z"/>
	<path class="st175" d="M76.57,129.27l-0.61,2.85l-2.85,3.69c0,0-3.8-1.01-5.25-7.65C67.86,128.15,70.76,129.6,76.57,129.27
		L76.57,129.27z"/>
	<path class="st82" d="M93.77,119.24c0,0-0.88,0.32-0.92,1.25c-0.05,0.92,0.97,3.05-1.48,5.08l-0.92,7.25c0,0,2.68,3.46,2.77,5.82
		C93.21,138.62,100.27,131.28,93.77,119.24L93.77,119.24z"/>
	<path class="st178" d="M64.66,125.49l2.24,2.19c0,0-0.69,5.99,5.64,9.15l1.04,0.52l0.46,3.63c0,0-4.03-0.58-6.45-3.51
		C65.18,134.52,63.57,130.49,64.66,125.49L64.66,125.49z"/>
	<path class="st179" d="M83.29,52.52l-2.75,14.11l2.27,3.85l10.39,2.06l4.33-3.3l2.89-12.73l4.47,9.84c0,0-1.31,6.47-2.2,7.78
		c-0.89,1.31-6.88,5.3-8.88,5.5c-2,0.21-8.67,1.03-13-2.27c-4.33-3.3-7.5-6.05-7.91-7.78c-0.41-1.72,1.17-9.77,1.17-9.77
		S79.99,53.35,83.29,52.52L83.29,52.52z"/>
	<path class="st179" d="M80.89,78.71c0,0,6.12,3.34,12.94,1.86L91.8,98.16l-7.83-1.54c0.27-2.62,1.02-9.8,1.27-11.45
		c0.31-2.03,0.45-2.45,2.14-2.5c1.7-0.06,2.56,1.67,2.56,1.67c0-0.75-0.42-2.37-2.62-2.7c-2.2-0.33-2.48,2-2.48,2l-1.81,12.8
		l-3.37-0.66l1.47-11.08C81.14,84.69,81.84,80.32,80.89,78.71L80.89,78.71z"/>
	<path class="st179" d="M78.29,128.96c0,0,8.79-0.39,11.63-2.06l-0.71,7.41l0.61,1.32l1.8,3.9l-2.47,3.51l-2.47,3.51l-4.28-0.39
		l-4.28-0.39l-1.8-3.9l-1.8-3.9l2.47-3.51l1.05-1.49L78.29,128.96L78.29,128.96z M86.21,134.9l1.1,2.38l1.1,2.38l-1.51,2.15
		l-1.51,2.15l-2.62-0.24l-2.62-0.24l-1.1-2.38l-1.1-2.38l1.51-2.15l1.51-2.15l2.62,0.24L86.21,134.9L86.21,134.9z"/>
	<path class="st174" d="M178.44,107.39c0,0,0.98-1.19,0.93-3.11c-0.05-1.92-0.16-6.94,1.24-8.86c1.4-1.92,3.83-2.02,4.82-0.36
		c0.98,1.66,0.93,3.94,0.47,5.96c-0.47,2.02-1.81,3.26-1.81,4.61s0.05,1.86,0.05,1.86S181.03,106.82,178.44,107.39L178.44,107.39z"
		/>
	<path class="st174" d="M175.49,114.69c0,0-1.35-3.11,0.73-4.92c2.07-1.81,3.94-2.23,7.82-1.66c3.88,0.57,6.68,0.93,7.51,1.71
		c0.83,0.78,1.14,2.64,0.83,4.3c0,0,1.55,0.67,1.71,2.75c0.16,2.07-0.93,3.21-0.93,3.21s1.3,0.62,1.24,2.28
		c-0.05,1.66-1.71,2.95-1.86,3.42c-0.16,0.47-0.36,2.75-4.25,3c-3.89,0.26-5.39,0.1-6.89-0.16c-1.5-0.26-2.8-1.71-2.75-3.16
		c0,0,0.21-0.93,2.64-0.93c2.43,0,8.39-0.41,8.39-0.41s-8.65-0.62-10.15-0.67c-1.5-0.05-2.43-0.98-2.43-2.49
		c0-1.5,1.71-1.81,3.73-2.02c2.02-0.21,8.7-0.16,8.7-0.16s-6.27-1.04-8.29-0.67c-2.02,0.36-2.9,0.52-3.99,0.47
		c-1.09-0.05-1.61-1.71-1.04-3.26c0.57-1.55,3.94-1.97,6.16-2.07c2.23-0.1,6.79,0.16,6.79,0.16s-6.11-1.5-8.29-1.09
		C178.7,112.72,177.25,112.78,175.49,114.69L175.49,114.69z"/>
	<path class="st82" d="M174.87,122.1c0,0-2.18,1.76-2.69,5.65l5.34-0.73L174.87,122.1L174.87,122.1z"/>
	<path class="st82" d="M173.67,118.42l0.62,2.38c0,0-2.75,3.06-3.32,7.04l-2.38,0.41C168.6,128.26,168.6,121.89,173.67,118.42
		L173.67,118.42z"/>
	<path class="st82" d="M173.21,117.33c0,0-5.34,2.69-5.18,10.98l-3.26,0.78c0,0,0.62-7.67,0.57-10.46c-0.05-2.8-0.47-6.53-0.47-6.53
		l-1.87-0.36l-1.97-6.37l-3.68-7.56c0,0,3.83,1.66,6.01,5.28c2.18,3.63,6.11,11.45,7.98,12.85c0,0-2.75,0.16-4.25,6.16
		c0,0,3.11-4.87,4.61-4.82C173.21,117.33,173.21,117.33,173.21,117.33L173.21,117.33z"/>
	<path class="st82" d="M147.83,103.19c0,0,1.4,7.41,0.73,11.19l6.37-0.83c0,0-1.4-4.14-1.5-5.96s0.93-2.49,0.93-2.49l-0.41-1.81
		c0,0-0.78,1.3-1.04,2.75c0,0-0.16-2.38,1.09-4.4c0,0-1.5-2.49-2.85-2.64C149.79,98.84,148.6,100.65,147.83,103.19L147.83,103.19z"
		/>
	<path class="st173" d="M152.54,95.42l3.63,1.71c0,0,2.69,4.35,3.52,7.67l-4.46,0.21l-0.78-2.07c0,0,1.45-1.22,1.55-1.97
		C156.01,100.97,154.09,98.48,152.54,95.42L152.54,95.42z"/>
	<path class="st173" d="M124.31,121.01c0,0,2.07,7.56,2.54,11.29c0.47,3.73,0.67,9.58-0.31,12.85c-0.98,3.26-3.37,8.13-8.75,10.41
		c0,0,2.18,2.12,9.53,3.52c7.36,1.4,14.61,2.23,18.49,2.18c3.89-0.05,8.34-0.83,8.34-0.83l0.02-5.29c-2.28,0.68-7.93,2.32-8.91,2.16
		c-1.22-0.19-12.05-6.64-12.05-8.51s1.1-20.3,1.1-20.3c3.07-0.98,25.11-3.99,25.11-3.99s0.21,3.99,0.33,5.48
		c2.12-0.33,3.47-0.53,3.47-0.53s1.09-7.41,0.78-9.22c0,0-4.87,1.35-6.42,0.83c-1.55-0.52-1.81-3.73-1.4-6.27l-21.86,3.57
		c0,0,2.18,3,2.38,4.2c0.21,1.19,0.73,2.07-2.95,3.26c-3.68,1.19-4.66,2.18-5.75,1.4c-1.09-0.78-2.07-6.99-2.07-6.99
		S124.46,120.29,124.31,121.01L124.31,121.01z"/>
	<path class="st180" d="M128.5,108.69l-5.79,1.37c0,0-1.32,0.45-0.86,1.77s2.26,5.58,2.26,5.58s-0.06,1.24,1.9,1.02
		c0,0,0.79,0.26,1.18,3.32c0.39,3.06,0.61,4.85,2.63,4.5c2.02-0.35,4.95-1.51,4.95-1.51s1.67-0.61,0.9-2.4
		c-0.77-1.79-3.95-6.28-3.95-6.28s-1.75-0.2-1.96,0.22c0,0,4.24,6.07,4.2,6.48c-0.04,0.41-3.1,1.24-3.59,1.41
		c-0.49,0.16-0.75,0-0.9-0.59c-0.14-0.59-0.59-4.2-1.04-5.01c-0.45-0.82-0.73-1.39-2.42-1.39l-2.36-5.48l5.34-1.47l1.16,2.34
		l-4.93,1.39l0.88,1.96l4.65-1.47c0,0-0.01,0.75,0.48,1.11c0.49,0.36,1.46,0.89,1.52,0.91c0.06,0.02,0.22-0.49-0.02-1.1
		c-0.23-0.61-2.36-5.24-2.36-5.24S129.57,108.23,128.5,108.69L128.5,108.69z"/>
	<path class="st181" d="M124.78,112.37c0,0-0.22,0.96,0.52,0.99c0,0,3.13-0.62,3.62-1.01c0,0,0.28-0.81-0.36-0.94
		C128.56,111.41,126.04,111.64,124.78,112.37L124.78,112.37z"/>
	<path class="st181" d="M126.47,116.26l3.87-1.29l0.25,0.45c0,0-0.94,0.33-1.04,0.68c-0.1,0.35,0.27,0.92,0.61,1.47
		c0.35,0.55,3.19,5.03,3.19,5.03s-2.13,1.35-3.19,1.25c0,0-0.9-4.21-1.17-4.97c-0.27-0.76-0.94-1.84-1.31-1.96
		c-0.37-0.12-1.02,0.04-1.02,0.04L126.47,116.26L126.47,116.26z"/>
	<path class="st180" d="M155.74,105.76c0,0,3.57-0.1,4.08-0.08c0.51,0.02,0.89,1.36,1.11,2.25c0.21,0.89,1.19,3.72,1.17,3.85
		c-0.02,0.13-0.73-0.03-1.07-0.38c-0.35-0.35-0.35-1.02-0.35-1.02l-3.72,0.36l-0.38-1.64l3.88-0.31c0,0-0.38-1.54-0.59-1.69
		c-0.22-0.15-3.9,0.05-4.07,0.26c-0.17,0.21,0.98,4.31,1.11,4.5c0.13,0.18,1.29-0.2,1.65,1.22c0.36,1.42-0.12,5.16,0.13,5.45
		c0.25,0.3,3.16-0.18,3.52-0.23c0.36-0.05,0.41-0.38,0.25-0.79c-0.17-0.41-1.83-4.79-1.92-5.07c-0.08-0.28,0.51-0.4,0.83-0.4
		c0.31,0,1.19,1.79,1.52,2.61c0.33,0.83,0.91,2.58,1.11,3.19c0.2,0.61,0.21,1.79-0.83,1.87c-1.04,0.08-4.02,0.69-4.36,0.69
		c-0.35,0-1.64-0.1-1.79-1.54c-0.15-1.44,0.02-5.47,0.02-5.47s-0.22-0.56-0.84-0.55c-0.63,0.02-0.98-0.76-1.11-1.21
		c-0.13-0.45-0.96-4.5-0.96-4.5S153.69,105.71,155.74,105.76L155.74,105.76z"/>
	<path class="st181" d="M156.35,107.87l0.31,0.86c0,0,2.99-0.07,3.12-0.21c0.13-0.15,0.07-0.96-0.31-0.94
		S156.96,107.66,156.35,107.87L156.35,107.87z"/>
	<path class="st181" d="M157.16,111.15l3.17-0.36l0.22,0.91c0,0-0.35,0.2-0.36,0.55c-0.02,0.35,1.59,4.81,1.7,5.21
		c0.12,0.4-1.11,0.76-1.8,0.79c-0.69,0.03-1.07-0.41-1.09-0.86c-0.02-0.45,0.08-4.05-0.05-4.4c-0.13-0.35-0.38-1.09-0.79-1.17
		c-0.41-0.08-0.83-0.13-0.83-0.13S156.89,111.48,157.16,111.15L157.16,111.15z"/>
	<path class="st181" d="M162.76,112.47l1.58,0.46l-0.07,4.13c0,0-1.34-4.47-2.04-4.7L162.76,112.47L162.76,112.47z"/>
	<path class="st173" d="M135.3,131.49l-0.69,16.58l0.14,0.97c0,0,9.51,6.87,10.62,6.95c1.11,0.08,8.75-1.99,8.75-1.99l0.23-8.59
		c0,0-1.53-0.08-1.6-2.71c-0.08-2.64,0.04-9.43,0.04-9.43s0.08-2.14,2.25-2.52c2.18-0.38,3.9-0.73,3.9-0.73v-1.15
		C158.92,128.87,143.15,132.77,135.3,131.49L135.3,131.49z M135.09,128.72l0.11,2.02c0,0,7.41,0.34,12.03-0.27
		c4.62-0.61,11.72-2.33,11.72-2.33l-0.19-2.56C158.77,125.59,144.91,128.3,135.09,128.72L135.09,128.72z"/>
	<path class="st173" d="M112.32,154.82c0,0-0.6,3.41,0,4.66c0.6,1.25,10.06,4.36,12.22,4.96c2.16,0.6,12.39,3.58,18.91,3.28
		c6.52-0.3,10.84-0.82,10.84-0.82l-0.04-5.27c0,0-9.58,1.86-16.23,0.99C131.36,161.77,115.65,158.06,112.32,154.82L112.32,154.82z"
		/>
	<path class="st173" d="M113.57,161.6c0,0-2.55,6.35-2.33,8.12c0,0,1.22,0.93,3.9,1.94l0.89-2.11l-3.06-0.95l2.33-6.14
		C114.66,162.17,114.08,161.89,113.57,161.6L113.57,161.6z M116.39,172.08c2.21,0.72,5.16,1.41,8.97,1.77
		c4.9,0.47,11.57,0.54,17.85-0.03c0.28-1.66,0.38-3.68,0.43-5.1c-1.31-0.02-2.62-0.1-3.86-0.27c-4.76-0.66-13.56-2.32-20.14-4.4
		L116.39,172.08L116.39,172.08z M144.74,173.68c1.01-0.11,2-0.23,2.96-0.38c0.21-1.6,0.29-3.42,0.32-4.7
		c-0.97,0.07-2,0.12-3.05,0.14C144.98,170.44,144.82,172.66,144.74,173.68L144.74,173.68z M149.08,173.08
		c4.09-0.7,7.63-1.75,9.87-3.24l-4.19-2.07c0,0-2.34,0.44-5.5,0.73C149.26,169.96,149.16,171.87,149.08,173.08L149.08,173.08z"/>
	<path class="st180" d="M117.06,163.59c0.82,0.25,1.2,1.41,0.83,2.59c-0.36,1.18-1.33,1.92-2.15,1.67c-0.82-0.25-1.2-1.41-0.83-2.59
		C115.27,164.08,116.23,163.33,117.06,163.59L117.06,163.59z"/>
	<path class="st182" d="M154.2,133.78v9.07c0,0-1.7,0.6,5.77,2.09c7.48,1.48,17.21,3.96,17.21,3.96s0.27-10.58,0-10.5
		C176.92,138.48,154.97,133.01,154.2,133.78L154.2,133.78z"/>
	<path class="st182" d="M155.8,132.08c0,0,21.17,4.4,22.11,4.78c0.94,0.38,0.55,11.93,0.55,11.93s0.22,0.93,2.91-0.06
		s2.69-1.04,2.69-1.04l-0.11-3.08c0,0,1.05-2.2,3.52-2.8c2.47-0.6,3.79-0.6,4.18,0.71c0.38,1.32-0.11,2.69-0.11,2.69l8.03-2.36
		c0,0-0.88-3.74,2.58-4.67c0,0,2.8-1.04,3.3,0.27c0.49,1.32,0.22,2.36,0.22,2.36l2.25-0.49l-0.17-8.8c0,0,0.17-1.1-2.42-1.65
		l-11.66-2.42l0.22,4.4l-4.62,0.88l-0.38-2.42c0,0-5.88,1.15-7.42,0.66l0.06,3.24l-4.01,0.99l-1.7-0.77v-5.55L155.8,132.08
		L155.8,132.08z"/>
	<polygon class="st183" points="155.86,145.92 155.8,166.02 178.57,174.4 178.57,151.33 	"/>
	<path class="st183" d="M179.6,151.21l0.18,22.83c0,0,25.44-9.78,25.75-10.14c0.3-0.36,0.55-21.43,0.55-21.43l-0.56,0.03
		c0,0,0,3.03-0.32,3.53c-0.32,0.5-3.38,1.71-4.27,1.64c-0.9-0.08-1.35-1.64-1.42-2.77l-8.02,2.37l-0.05,2.66
		c0,0,0.24,0.95-2.29,1.77c-2.53,0.82-3.22,1-3.22,1s-1.64,0.47-2.03-1.19l0.03-1.53L179.6,151.21L179.6,151.21z"/>
	<path class="st182" d="M186.27,143.69l3.81-0.86c0.37-0.08,0.69,0.31,0.69,0.69v6.09c0,0.38-0.32,0.6-0.69,0.69l-3.81,0.93
		c-0.37,0.09-1.37-0.12-1.37-0.5v-6.16C184.9,144.2,185.9,143.78,186.27,143.69L186.27,143.69z"/>
	<path class="st182" d="M201.6,139.82l2.79-0.75c0.27-0.07,0.51,0.27,0.51,0.61V145c0,0.33-0.24,0.53-0.51,0.61l-2.79,0.81
		c-0.27,0.08-1-0.11-1-0.44v-5.39C200.59,140.26,201.32,139.89,201.6,139.82L201.6,139.82z"/>
	<path class="st181" d="M113.57,161.6c0,0-2.55,6.35-2.33,8.12c0,0,1.22,0.93,3.9,1.94l0.89-2.11l-3.06-0.95l2.33-6.14
		C114.66,162.17,114.08,161.89,113.57,161.6L113.57,161.6z M125.17,165.6L125.17,165.6c0,0-4.11,0.13-4.9,1.55
		c-0.79,1.42-1.89,3.93-1.26,4.4c0.61,0.46,8.68,2.51,11.94,2.63c-2.02-0.06-3.91-0.17-5.6-0.33c-3.8-0.36-6.76-1.06-8.97-1.77
		l3.24-8.03C121.37,164.61,123.25,165.12,125.17,165.6L125.17,165.6z"/>
	<path class="st181" d="M133.33,174.23c0.02,0,5.12-0.53,9.99-1.14c-0.03,0.25-0.07,0.5-0.11,0.74
		C139.92,174.13,136.52,174.25,133.33,174.23L133.33,174.23z M144.8,172.9c1.06-0.14,2.08-0.28,3-0.42
		c-0.03,0.28-0.06,0.55-0.09,0.82c-0.97,0.14-1.96,0.27-2.96,0.38C144.76,173.47,144.78,173.2,144.8,172.9L144.8,172.9z
		 M149.13,172.28c0.98-0.16,1.77-0.32,2.29-0.46c3.3-0.89,3.3-1.36,3.62-1.99c0.16-0.32-2.74-0.59-5.78-0.78c0-0.19,0-0.37,0-0.55
		c3.16-0.29,5.5-0.73,5.5-0.73l4.19,2.07c-2.24,1.49-5.78,2.54-9.87,3.24C149.09,172.84,149.11,172.57,149.13,172.28L149.13,172.28z
		 M148.02,168.97c-1.09-0.06-2.15-0.12-3.04-0.16l0-0.08c1.04-0.02,2.07-0.07,3.05-0.14C148.02,168.72,148.02,168.84,148.02,168.97
		L148.02,168.97z M143.64,168.75c-0.49-0.02-0.83-0.04-0.97-0.04h0c0.32,0.01,0.64,0.02,0.97,0.03L143.64,168.75L143.64,168.75z"/>
	<path class="st181" d="M116.13,159.08c0.37-0.63,1.65-1.42,1.65-1.42c-2.51-0.93-4.5-1.91-5.46-2.84c0,0-0.6,3.41,0,4.66
		c0.6,1.25,10.06,4.36,12.22,4.96c0.46,0.13,1.29,0.37,2.37,0.66c0,0,0,0,0,0C124.33,164.38,115.77,159.7,116.13,159.08
		L116.13,159.08z"/>
	<path class="st181" d="M135.04,162.17L135.04,162.17c0,0,4.02,1.6,6.35,1.66c2.33,0.06,9.19-1.42,9.78-0.26
		c0.58,1.17,0.13,2.65-1.23,2.91c-1.36,0.26-11.53,0-13.47-0.65c-1.94-0.65-4.92,0.41-4.93,0.41c3.82,0.86,8.4,1.64,11.9,1.48
		c6.52-0.3,10.84-0.82,10.84-0.82l-0.04-5.27c0,0-9.58,1.86-16.23,0.99C137.15,162.52,136.15,162.36,135.04,162.17L135.04,162.17z"
		/>
	<path class="st181" d="M144.16,127.9L144.16,127.9c0,0-3.34,1.18-5.36,2.93c-2.08-0.02-3.59-0.09-3.59-0.09l-0.11-2.02
		C137.92,128.6,141.09,128.29,144.16,127.9L144.16,127.9z M137.95,131.73c-0.36,0.47-0.59,0.96-0.63,1.47
		c-0.26,2.98-1.36,11.98-0.58,14.25c0.78,2.27,8.64,8.54,8.64,8.54c-1.11-0.08-10.62-6.95-10.62-6.95l-0.14-0.97l0.69-16.58
		C136.11,131.62,137,131.69,137.95,131.73L137.95,131.73z"/>
	<path class="st181" d="M150.47,127.02L150.47,127.02c0,0,6.02-0.62,6.27,0.49c0.08,0.34-0.35,0.82-0.97,1.38
		c1.87-0.41,3.2-0.73,3.2-0.73l-0.19-2.56C158.77,125.59,155.24,126.28,150.47,127.02L150.47,127.02z M154.62,129.82
		c-1.29,1.02-2.7,2.12-2.8,2.93c-0.19,1.55-0.84,10.75-0.19,12.17c0.65,1.42,0.84,3.11,0.84,3.11s1.78,4.32-4.16,7.44
		c2.57-0.59,5.81-1.46,5.81-1.46l0.23-8.59c0,0-1.53-0.08-1.6-2.71c-0.08-2.64,0.04-9.43,0.04-9.43s0.08-2.14,2.25-2.52
		c2.18-0.38,3.9-0.73,3.9-0.73v-1.15C158.92,128.87,157.2,129.3,154.62,129.82L154.62,129.82z"/>
	<path class="st181" d="M126.46,129.98L126.46,129.98c0,0,2.57,8.66,1.98,12.74c-0.58,4.08-2.85,7.83-3.24,9.26
		c-0.39,1.42,2.46,1.94,4.21,0c0,0,0.39,2.14-2.65,3.04c0,0,7.9,2.46,11.85,2.4c0,0-5.57,0.26-7.83-0.26c0,0,15.41,4.21,23.38,1.94
		h0l0,1.33c0,0-4.46,0.78-8.34,0.83c-3.88,0.05-11.14-0.78-18.49-2.18c-7.36-1.4-9.53-3.52-9.53-3.52
		c5.39-2.28,7.77-7.15,8.75-10.41c0.98-3.26,0.78-9.12,0.31-12.85C126.76,131.63,126.63,130.84,126.46,129.98L126.46,129.98z"/>
	<path class="st181" d="M125.87,127.21L125.87,127.21c0,0-0.35-3.8,0.49-4.63h0c-0.27-1.29-0.44-2.35-0.44-2.35
		s-1.45,0.05-1.61,0.78C124.31,121.01,125.14,124.04,125.87,127.21L125.87,127.21z M135.68,120.43c7.02-1.34,15.66-2.79,17.11-2.9
		c0.8-0.06,2,0.18,3.26,0.62c-0.12-1.07-0.06-2.27,0.11-3.35l-21.86,3.57C134.31,118.37,135.03,119.36,135.68,120.43L135.68,120.43z
		 M161.07,120.9c0.42,0.4,0.7,0.79,0.78,1.17c0.32,1.43-0.12,5.45-0.41,7.66c1.11-0.17,1.76-0.27,1.76-0.27s1.09-7.41,0.78-9.22
		C163.99,120.24,162.6,120.62,161.07,120.9L161.07,120.9z"/>
	<path class="st181" d="M117.82,93.96c0,0-2.01,0.98-1.7,2.25c0.32,1.27,7.14,10.04,7.33,12.77l-1.56,0.35
		c-0.81-4.44-9.14-14.34-9.14-14.34L117.82,93.96L117.82,93.96z"/>
	<path class="st181" d="M152.54,95.42c0,0,3.8,3.29,4.37,4.95c0.57,1.66,0.67,3.06,0.31,3.43c-0.36,0.36-1.99,1.21-1.99,1.21
		l4.46-0.21c-0.83-3.32-3.52-7.67-3.52-7.67L152.54,95.42L152.54,95.42z"/>
	<path class="st184" d="M130.8,111.13c0,0-1.23-2.21-2.28-1.96c-1.05,0.25-5.51,1.16-5.76,1.6c-0.25,0.43,0.18,2.1,1.02,4.31
		c0.83,2.21,1.12,2.79,1.7,2.76c0.58-0.04,1.85,0.65,1.99,1.81c0.15,1.16,0.69,5.04,1.02,5.58c0.33,0.54,2.15,0.57,4.1,0.3
		c-0.89,0.29-1.91,0.58-2.76,0.73c-2.02,0.35-2.24-1.45-2.63-4.5c-0.39-3.06-1.18-3.32-1.18-3.32c-1.96,0.22-1.9-1.02-1.9-1.02
		s-1.79-4.26-2.26-5.58c-0.47-1.32,0.86-1.77,0.86-1.77l5.79-1.37c1.08-0.47,1.85,1.45,1.85,1.45S130.53,110.55,130.8,111.13
		L130.8,111.13z"/>
	<path class="st184" d="M123.65,111.71c0,0,1.6-1.02,2.75-1.24c1.15-0.23,2.48-0.63,2.72-0.54c0.25,0.09,1.44,2.54,1.44,2.77
		c0,0.23-3.26,1.01-3.98,1.26c-0.72,0.25-0.56,0.79-0.47,1.13c0.09,0.34,2.76-0.03,2.76-0.03l-2.77,0.88l-0.88-1.96l4.93-1.39
		l-1.16-2.34L123.65,111.71L123.65,111.71z"/>
	<path class="st184" d="M160.56,106.67c0,0-0.72-0.55-2.79-0.47c-2.07,0.09-3.11-0.13-3.11,0.39s0.73,4.32,0.99,4.88
		c0.26,0.56,0.95,1.12,1.55,1.38c0.6,0.26,0.09,4.62,0.17,5.35c0.09,0.73,0.82,1.99,1.9,1.73c1.08-0.26,3.89-0.23,3.89-0.23
		c-1.04,0.08-4.02,0.69-4.36,0.69c-0.35,0-1.64-0.1-1.79-1.54c-0.15-1.44,0.02-5.47,0.02-5.47s-0.22-0.56-0.84-0.55
		c-0.63,0.02-0.98-0.76-1.11-1.21s-0.96-4.5-0.96-4.5s-0.45-1.44,1.6-1.39c0,0,3.57-0.1,4.08-0.08
		C160.11,105.69,160.36,106.13,160.56,106.67L160.56,106.67z"/>
	<path class="st184" d="M158.17,106.82c-1.03,0.04-1.89,0.34-2.22,0.48c0.53-0.14,2.33-0.26,3.3-0.25c0.34,0,0.58,0.02,0.63,0.05
		c0.22,0.15,0.59,1.69,0.59,1.69l-3.88,0.31l0.38,1.64l1.71-0.17c0,0,0,0,0,0c-0.48,0.05-1.52-0.21-1.56-0.5
		c-0.03-0.29-0.02-0.63,0.24-0.68c0.26-0.05,3.36-0.15,3.38-0.41c0.02-0.26-0.55-1.74-0.58-2
		C160.12,106.72,159.5,106.77,158.17,106.82L158.17,106.82z"/>
	<path class="st178" d="M127.98,105.04c0,0,2.76-3.2,4.19-2.97c1.42,0.23,0.87,4.44,1.26,6.05c0.33,1.39,2.17,7.05,2.68,8.62
		l1.78-0.24c0,0-1.97-4.35-2.55-6.32c-0.58-1.97-0.67-6.72-0.67-6.72s-1.07-2.95-3-2.64c0,0-2.55,1.34-3.81,3.76L127.98,105.04
		L127.98,105.04z"/>
	<path class="st178" d="M119.16,93.85c-0.02-0.05-0.74-1.61-0.14-2.73c0.62-1.13,2.53-4.08,2.95-4.34
		c0.42-0.26,7.28,9.81,8.16,10.42c0.87,0.62-3.59,5.31-4.05,7.09c-0.14,0.57-0.24,0.96-0.29,1.24c0.12,0.17,0.19,0.25,0.19,0.25
		s3.76-5.82,5.91-6.18c0,0,2.11,0.22,2.55,2.64c0,0,0.09-2.37-2.42-4.57c-2.51-2.2-9.23-10.98-9.77-13.04c0,0-4.03,5.87-4.08,7.03
		C118.16,92.02,118.56,92.82,119.16,93.85L119.16,93.85z"/>
	<path class="st178" d="M145.46,88.5c0,0,0.69,1.91,0.66,2.82c-0.03,0.91,1.97,4.89,2.17,5.6c0.19,0.71,1.97-0.1,2.43,0.1
		c0.38,0.16,2.64,1.94,3.61,3.27c0.26,0.48,0.41,0.76,0.41,0.76s-2.91-3.27-4.35-3.09c-1.43,0.18-2.82,4.48-2.82,4.48
		c-0.45-3-2.69-8.38-2.69-8.38L145.46,88.5L145.46,88.5z"/>
	<path class="st178" d="M152.41,113.88c-0.91-0.21-1.96-0.54-2.12-0.97c-0.29-0.78-1.46-8.06-1-9.26c0.45-1.2,1.62-1.91,2.17-1.94
		c0.55-0.03,0.91,0.45,0.78,3.14c0,0,0.49-2.86,1.75-3.21c0,0-1.5-2.49-2.85-2.64c-1.35-0.16-2.54,1.66-3.32,4.2
		c0,0,1.4,7.41,0.73,11.19L152.41,113.88L152.41,113.88z"/>
	<path class="st178" d="M94.35,117.82c0,0,3.33,0.59,4.37,3.7c1.04,3.11-0.1,6.14-0.1,6.14s2.28-4.43,2.78-7.65
		c0,0,1.05,4.29-0.25,8.98c0,0,5.06-4.3,6.95-8.09c1.9-3.79,3.1-8.28,3.6-11.38c0,0,1.99,8.02,1.6,11.9
		c-0.39,3.89-3.19,5.46-3.19,5.46s3.46-0.28,5.32-2.85c0,0-2.66,5.17-4.56,6.36c-1.9,1.19-2.33,2.66-1.42,5.13
		c0.9,2.47,3.15,5.12,3.15,5.12l0.75,5.29c0,0,3.59-2.98,5.9-8.74c0,0-1.69,5.49-4,8.33c-2.3,2.85,6.1-5.69,6.64-6.17
		c0.54-0.47,0.88,1.69-0.07,4.61c-0.95,2.91-3.32,6.64-3.32,8c0,0.41-0.2,1.3-0.65,2.3c-1.05,0.63-1.83,1.01-1.83,1.01l-2.44-1.37
		l0.34-2.83c5.81-2.78,6.98-9.72,6.98-9.72c-1.27,3.76-7.81,8.15-7.81,8.15c-2.34-2.83-1.17-6.98-1.17-6.98
		c-1.03-0.73-2.39-2.88-3.86-6.54s-0.59-6.15-0.59-6.15c1.9-0.49,5.47-2.29,5.47-2.29c-1.95,0.78-5.76,0.54-5.76,0.54
		c5.18-4.44,5.03-11.52,5.03-11.52c0.1,4.98-7.47,12.3-7.47,12.3s0,0-2.05,2.25c-2.05,2.25-5.96,4.83-5.96,4.83
		c2.39-2.05,3.17-8.59,3.17-8.59c-0.2,1.37-2.49,3.96-2.49,3.96C99.1,123.62,94.35,117.82,94.35,117.82L94.35,117.82z"/>
	<path class="st178" d="M94.69,116.4L94.69,116.4L94.69,116.4L94.69,116.4L94.69,116.4z M94.79,115.71c0.16-0.9,0.57-2.45,1.5-3.24
		c1.36-1.15,5.96-0.68,7.52-2.78c1.56-2.1,1.02-9.08,3.46-9.89c2.44-0.81,4.54-0.81,5.49-0.07c0.95,0.75,4.06,2.56,8.24,10.64
		c0,0-4.32-10.34-8.82-14.22c0,0-7.91,1.17-9.37,2.54c0,0-0.05,5.47-0.88,7.67c-0.83,2.2-2.93,4.79-6.74,4.93
		C95.18,111.28,95.05,113.74,94.79,115.71L94.79,115.71z"/>
	<path class="st178" d="M123.94,119.71c-0.77-0.84-1.39-1.45-1.74-1.64c-1.68-0.91-0.78,3.63,0,7.64c0.78,4.01,3.55,15.7,0.77,24.24
		c1.76-2.78,3.86-6.77,2.75-14.47c-1.11-7.7-3.47-15.61-3.47-15.61L123.94,119.71L123.94,119.71z"/>
	<path class="st178" d="M90.67,131.02c0.62-0.5,1.13-1.08,1.31-1.74c0.61-2.19,0.67-3.1,0.67-3.1s0.61,2.67-0.73,5.71l0.79,2.67
		c0,0,3.55-1.06,3.14-10.21c0,0.01,0,0.02,0.01,0.03l0.34,1.47c1.54,8.06-2.99,12.77-2.99,12.77c-0.09-2.35-2.77-5.82-2.77-5.82
		L90.67,131.02L90.67,131.02z"/>
	<path class="st178" d="M157.36,97.81c0,0,5.16,6.72,5.61,9.24c0.45,2.52,1.12,3.42,2.13,3.81c1.01,0.39,1.63,2.8,1.51,4.37
		c-0.11,1.57-0.45,9.19-0.45,9.19l-1.39,4.67c0,0,0.62-7.67,0.57-10.46c-0.05-2.8-0.47-6.53-0.47-6.53l-1.87-0.36l-1.97-6.37
		L157.36,97.81L157.36,97.81z"/>
	<path class="st178" d="M163.37,103.09c0,0,3.63,8.72,4.36,10.07c0.73,1.35,1.57,2.19,1.57,2.19s-2.75,4.6-2.47,8.18
		c0,0,1.51-1.96,2.52-3.25c0,0-2.21,5.21-2.26,8.26l0.94-0.22c-0.16-8.29,5.18-10.98,5.18-10.98s0,0-1.5-0.05
		c-1.5-0.05-4.61,4.82-4.61,4.82c1.5-6.01,4.25-6.16,4.25-6.16C169.48,114.54,165.54,106.72,163.37,103.09L163.37,103.09z"/>
	<path class="st178" d="M173.67,118.42c-5.08,3.47-5.08,9.84-5.08,9.84l2.38-0.41c0.57-3.99,3.32-7.04,3.32-7.04L173.67,118.42
		L173.67,118.42z"/>
	<path class="st178" d="M174.87,122.1c0,0-2.18,1.76-2.69,5.65l5.34-0.73L174.87,122.1L174.87,122.1z"/>
	<path class="st175" d="M122.07,69.88c-0.33-0.83-0.84-1.71-1.57-2.03c-1.5-0.67-2.18-0.44-2.18-0.03s1.37,3.29,1.29,4.64
		c-0.08,1.35-0.1,1.27-0.1,1.27s0.96-0.73,1.27-1.68c0,0,1.37,1.56,1.27,3.55l0.26-3.19l-1.7-1.31l-0.26,1.44
		c0,0,0.26-1.7-0.09-2.27c-0.35-0.57-1.35-2.45-1.35-2.45s2.32,1.01,3.28,3.67C122.18,71.48,122.18,70.78,122.07,69.88L122.07,69.88
		z"/>
	<path class="st175" d="M151.82,70.09c0,0.01-0.59,0.68-0.66,1.48c0,0,1.04-0.62,1.66-0.36c0,0,0.13,0.21-0.05,1.19
		c-0.18,0.98-2.25,2.31-2.31,3.39c-0.05,1.09,0.98,1.14,2.43-0.3c-0.57,1.01-1.51,1.92-3.04,2.45c0,0-0.52-1.62,0.26-2.71
		c0.79-1.09,2.53-3.67,2.53-3.67s-1.18,0.39-2.45,2.4c0,0-0.35-2.62,1.18-3.67C151.37,70.3,151.56,70.19,151.82,70.09L151.82,70.09z
		"/>
	<path class="st181" d="M119.6,60.91c0,0,1.83-2.14,4.37-4.5v0c0,0-0.55-4.21-0.14-7.77c-0.14,0.15-0.29,0.3-0.43,0.47
		C123.41,49.11,118.52,55.21,119.6,60.91L119.6,60.91z M134.21,44.06c-0.09,0.03-6.62,2.4-6.89,4.73c-0.27,2.34-0.27,4.99-0.27,4.99
		l0,0c-0.89,0.69-1.75,1.43-2.55,2.15c-0.11-1.51-0.22-3.73-0.09-5.08c0.08-0.81,0.46-2.11,0.9-3.43c1.67-1.08,3.87-1.7,7.71-2.99
		C133.43,44.3,133.83,44.17,134.21,44.06L134.21,44.06z"/>
	<path class="st181" d="M121.92,59.55l4.37-2.4c5.76-3.4,13.85-6.94,20.63-4.85c1.4,0.62,2.6,1.22,3.64,1.8
		c0.32,0.23,0.64,0.47,0.94,0.74c1.74,1.49,4.27,3.18,3.89,6.83c-0.9,0.91-2.4,1.3-2.4,1.3c-0.61-1.7-4.41-6.12-9.26-7.69
		c-4.85-1.57-9.88-0.7-13.55,1.01C126.51,57.98,121.92,59.55,121.92,59.55L121.92,59.55z M154.47,56.84
		c0.81,0.76,1.34,1.48,1.69,2.14c0.04,0.75-0.03,1.44-0.24,1.92c-0.08,0.18-0.18,0.36-0.31,0.51
		C155.99,59.91,155.54,58.32,154.47,56.84L154.47,56.84z"/>
	<path class="st181" d="M145.66,45.8c1.13,0.74,3.95,2.78,4.65,5.08c0.9,0.43,1.5,0.76,1.5,0.76s-0.22-1.84-1.49-2.71
		C149.66,48.48,147.68,47.09,145.66,45.8L145.66,45.8z"/>
	<path class="st175" d="M65.79,119.49c0,0,1.11,5.46,6.46,5.54c5.35,0.09,13.64-0.09,15.37-0.6c1.73-0.52,2.94-2.69,4.08-3.32
		c0,1.23,0.5,4.91-6.03,5.25c-6.53,0.34-15.53,1.23-17.87-1.28C65.45,122.56,65.29,121.45,65.79,119.49L65.79,119.49z M91.7,100.56
		c0.29,0.07,0.46,0.1,0.46,0.1s-0.39,4.08,0.11,5.53c0,0-13.59-1.46-16.69-1.41c1.68-0.06,10.11-0.36,12.33-0.17
		c2.46,0.22,2.89-0.35,3.07-1.04C91.09,103.09,91.49,101.44,91.7,100.56L91.7,100.56z M90.89,107.5c1.86,0.34,3.48,1.07,3.33,2.95
		c-0.22,2.68-2.01,3.07-4.19,2.79c-2.18-0.28-14.41-1.28-14.41-1.28s9.99,0.18,13.02,0.22c3.02,0.04,4.14-0.52,4.36-1.9
		C93.21,108.9,90.91,107.51,90.89,107.5L90.89,107.5z M92.07,115c0.82,0.65,0.94,1.61,0.8,2.37c-0.22,1.23-2.29,2.96-5.19,2.57
		c-2.9-0.39-11.34-0.73-11.34-0.73s12.05-1.17,13.78-1.34C91.85,117.7,92.07,115.02,92.07,115L92.07,115z"/>
	<path class="st175" d="M94.54,96.59c0,0.02-0.68,7.6-0.07,8.9c0.6,1.3,2.07,1.3,2.94,1.21c0.86-0.09,1.82-4.19,3.33-5.68
		c-0.32,1.67-0.71,3.33-0.83,4.18c-0.23,1.7-2.03,4.18-4.12,3.5c-2.09-0.69-2.94-1.47-2.78-6.01
		C93.1,100.09,93.88,97.95,94.54,96.59L94.54,96.59z"/>
	<path class="st175" d="M144.52,87.43c0,0-2.36,3.68-3.91,4.97c-1.55,1.3-5.7,1.12-6.56,0.82c0,0,0,3.41,1.64,4.36
		c1.64,0.95,1.12,3.32,1.86,3.71c0.73,0.39,5.44,0.95,7.4-2.5c0.01,0.13,0.01,0.25,0.01,0.37c0,1.69-1.1,3.57-3.75,4.52
		c-2.65,0.96-5.59-1.62-5.59-1.62s0-0.7-0.18-1.95c-0.18-1.25-2.57-3.05-3.35-4.34c-0.77-1.29-6.69-7.83-7.43-9.2
		c-0.74-1.36-0.4-1.84-0.4-1.84c5,5.19,9.71,6.77,13.46,7.06C141.47,92.1,144.52,87.43,144.52,87.43L144.52,87.43z"/>
	<path class="st175" d="M179.56,98.79c-0.08,0.67-0.54,5.07,1.92,5.66c2.67,0.64,4.41-3.43,4.41-3.43
		c-0.47,2.02-1.81,3.26-1.81,4.61s0.05,1.86,0.05,1.86s-3.11-0.67-5.7-0.1c0,0,0.98-1.19,0.93-3.11
		C179.34,103.12,179.29,100.84,179.56,98.79L179.56,98.79z"/>
	<path class="st175" d="M178.96,108.17c-0.02,0.02-2.28,2.12-2.42,3.29c-0.14,1.17,3.59,0.82,4.65,0.8l0,0
		c-0.11,0.01-0.22,0.03-0.32,0.04c-2.18,0.41-3.63,0.47-5.39,2.38c0,0-1.35-3.11,0.73-4.92
		C177.11,108.99,177.96,108.47,178.96,108.17L178.96,108.17z M180.28,113.43c-0.01,0.01-2.05,0.8-2.24,1.65
		c-0.19,0.84-0.09,1.92,0.28,2.25c0.38,0.33,6.56,0.31,8.68,1.09l0,0c-1.98-0.26-4.59-0.52-5.76-0.31c-2.02,0.36-2.9,0.52-3.99,0.47
		c-1.09-0.05-1.61-1.71-1.04-3.26C176.62,114.21,178.45,113.68,180.28,113.43L180.28,113.43z M181.56,118.89
		c-0.01,0-2.73,1.12-2.45,2.1c0.28,0.99,1.05,2.48,4.41,2.71l0,0c-1.79-0.12-3.43-0.22-4-0.24c-1.5-0.05-2.43-0.98-2.43-2.49
		s1.71-1.81,3.73-2.02C181.03,118.92,181.28,118.9,181.56,118.89L181.56,118.89z M184.93,124.41L184.93,124.41
		c0,0-4.12,0.71-4.08,1.83c0.05,1.13,1.06,2.54,3.98,2.68c-1.54,0-2.49-0.13-3.44-0.29c-1.5-0.26-2.8-1.71-2.75-3.16
		c0,0,0.21-0.93,2.64-0.93C182.18,124.53,183.55,124.48,184.93,124.41L184.93,124.41z"/>
	<path class="st185" d="M155.81,162.9c2.47,0.63,5.84,1.43,8.8,1.95c5.44,0.95,7.25,0.86,8.29,0c1.04-0.86,1.55-9.76,1.21-10.79
		c-0.35-1.04-8.79-5.34-9.62-6.08l14.08,3.35v23.07l-22.77-8.38L155.81,162.9L155.81,162.9z"/>
	<path class="st185" d="M179.68,161.14c0.16,3.17,0.94,8.14,4.27,7.42c4.83-1.04,13.9-5.18,15.28-6.13
		c1.38-0.95,3.19-11.31,3.19-12.35c0-0.34,0.12-1.49,0.49-2.88c1.05-0.38,2.11-0.89,2.29-1.17c0.32-0.5,0.32-3.53,0.32-3.53
		l0.56-0.03c0,0-0.24,21.07-0.55,21.43c-0.3,0.36-25.75,10.14-25.75,10.14L179.68,161.14L179.68,161.14z"/>
	<path class="st182" d="M160.28,145.01L160.28,145.01c0,0,10.24,0.46,11.49,0.16c1.25-0.3,2.42-5.35,2.16-5.78
		c-0.26-0.43-5.34-2.93-5.34-2.93c4.57,1.05,8.48,1.99,8.6,1.96c0.27-0.07,0,10.5,0,10.5S167.72,146.5,160.28,145.01L160.28,145.01z
		"/>
	<path class="st182" d="M178.53,143.99c1.33,0.05,2.71,0.04,3.22-0.21c1.08-0.52,4.01-3.84,6.04-3.97c2.03-0.13,4.23-0.09,4.79,1.21
		c0.56,1.3,4.36,0.22,5.01,0.04c0.65-0.17,0.56-3.71,3.28-4.4c2.72-0.69,4.14-0.43,4.58-0.6c0.43-0.17,1.2-4.73,1.47-5.09
		c0.27-0.37-14.59,4.1-14.59,4.1l13.17-5.15c2.43,0.56,2.27,1.62,2.27,1.62l0.17,8.8l-2.25,0.49c0,0,0.28-1.04-0.22-2.36
		c-0.5-1.32-3.3-0.27-3.3-0.27c-3.46,0.93-2.58,4.67-2.58,4.67l-8.03,2.36c0,0,0.49-1.37,0.11-2.69c-0.39-1.32-1.7-1.32-4.18-0.71
		c-2.47,0.6-3.52,2.8-3.52,2.8l0.11,3.08c0,0,0,0.05-2.69,1.04s-2.91,0.06-2.91,0.06S178.53,146.54,178.53,143.99L178.53,143.99z"/>
	<path class="st182" d="M171.76,135.45c0.79-0.36,2.49-0.81,3.17-1.04c0.11-0.04,0.42-0.12,0.89-0.24v0.27l1.7,0.77l4.01-0.99
		l-0.03-1.49c2.7-0.67,5.62-1.39,7.48-1.85l0.3,1.86l4.62-0.88l-0.22-4.4l11.66,2.42c0.47,0.1,0.84,0.22,1.15,0.34l-14.17,4.84
		l-13.97,3.5c-0.1-0.96-0.24-1.62-0.45-1.7C177.59,136.74,175.03,136.16,171.76,135.45L171.76,135.45z"/>
	<path class="st186" d="M144.81,102.29L144.81,102.29c0,0-1.25,4.63-3.15,4.88c-1.91,0.25-2.75,0.5-2.75,1.28s0.28,5.43,1.44,5.84
		c1.16,0.41,7.44,0.37,7.44,0.37l-8.65,1.52c0,0-4.3-6.68-3.05-12.55c0,0,2.69,1.84,5.38,1.08
		C143.14,104.24,144.13,103.33,144.81,102.29L144.81,102.29z"/>
	<path class="st176" d="M269.48,67.07c0.11-0.01,0.22-0.02,0.33-0.02h5.87c1.01,0,1.88,0.58,2.26,1.49
		c0.38-0.89,1.25-1.49,2.26-1.49h4.17c0.75,0,1.4,0.3,1.89,0.88c0.48,0.58,0.67,1.27,0.53,2.01l-3.82,21.32
		c-0.13,0.74-0.58,1.35-1.2,1.7c0.01,0.19,0,0.38-0.03,0.58l-0.22,1.43c-0.05,0.29-0.14,0.56-0.27,0.81
		c-0.01,0.07-0.01,0.14-0.02,0.21l-0.21,1.35c-0.01,0.07-0.02,0.14-0.04,0.2c0.05,0.27,0.05,0.55,0.01,0.84l-0.22,1.38
		c-0.19,1.21-1.21,2.08-2.43,2.08h-3.58c-0.11,0-0.22-0.01-0.32-0.02c-0.1,0.01-0.21,0.02-0.32,0.02h-1.89
		c-0.28,0-0.54-0.04-0.79-0.12c-0.25,0.08-0.51,0.12-0.78,0.12h-1.65c-0.2,0-0.4-0.02-0.58-0.07c-0.18,0.04-0.37,0.07-0.57,0.07
		h-3.58c-0.24,0-0.46-0.03-0.67-0.09c-0.21,0.06-0.43,0.09-0.66,0.09h-1.68c-0.39,0-0.76-0.08-1.09-0.24
		c-0.33,0.16-0.69,0.24-1.08,0.24h-1.67c-0.75,0-1.39-0.3-1.87-0.86c-0.04-0.05-0.08-0.1-0.12-0.15c-0.45,0.62-1.17,1.01-1.99,1.01
		h-1.82c-0.42,0-0.81-0.1-1.15-0.28c-0.34,0.18-0.73,0.28-1.14,0.28h-1.66c-0.06,0-0.11,0-0.17-0.01c-0.06,0-0.11,0.01-0.17,0.01
		h-1.68c-0.57,0-1.09-0.19-1.51-0.51c-0.42,0.33-0.94,0.51-1.51,0.51h-1.81c-0.33,0-0.65-0.06-0.94-0.18
		c-0.65,0.23-1.34,0.34-2.07,0.34c-1.39,0-2.71-0.38-3.79-1.26c-0.38,0.29-0.79,0.54-1.23,0.74c-0.8,0.36-1.66,0.52-2.54,0.52
		c-0.68,0-1.35-0.09-1.99-0.31c-0.2-0.07-0.4-0.15-0.59-0.24c-0.38,0.24-0.84,0.38-1.32,0.38h-3.72c-0.37,0-0.72-0.07-1.03-0.22
		c-0.66,0.26-1.38,0.37-2.12,0.37c-0.78,0-1.54-0.17-2.25-0.51c-0.34-0.16-0.65-0.37-0.94-0.6c-0.46,0.61-1.16,0.95-1.95,0.95h-1.89
		c-0.28,0-0.54-0.04-0.79-0.12c-0.25,0.08-0.51,0.12-0.78,0.12h-1.65c-0.47,0-0.9-0.12-1.27-0.34c-0.78,0.37-1.63,0.53-2.49,0.53
		c-1.2,0-2.36-0.31-3.31-1.07c-0.01-0.01-0.03-0.02-0.04-0.03c-0.31,0.22-0.64,0.4-0.99,0.56c-0.8,0.36-1.66,0.52-2.54,0.52
		c-0.68,0-1.35-0.09-1.99-0.31c-0.63-0.21-1.21-0.53-1.72-0.95c-0.44,0.67-1.2,1.09-2.05,1.09h-1.67c-0.75,0-1.39-0.3-1.87-0.86
		c-0.48-0.57-0.68-1.25-0.56-1.98l0.31-1.98l-1.39-2.73c-0.16-0.32-0.25-0.66-0.27-0.99h-1.05c-0.45,0-0.86-0.11-1.22-0.32
		c-0.36,0.2-0.77,0.32-1.21,0.32h-4.17c-0.75,0-1.4-0.3-1.89-0.88c-0.14-0.17-0.26-0.35-0.35-0.53c-0.4,0.85-1.25,1.41-2.23,1.41
		h-4.17c-0.45,0-0.86-0.11-1.23-0.32c-0.36,0.2-0.78,0.32-1.22,0.32h-4.17c-0.75,0-1.4-0.3-1.89-0.88
		c-0.14-0.17-0.26-0.35-0.34-0.53c-0.4,0.85-1.25,1.41-2.23,1.41h-4.17c-0.75,0-1.4-0.3-1.89-0.88c-0.48-0.58-0.67-1.27-0.54-2.01
		l3.12-17.48l-0.95-2.53c-0.29-0.78-0.19-1.58,0.28-2.27c0.47-0.68,1.19-1.06,2.02-1.06h5.94c0.75,0,1.4,0.3,1.89,0.88
		c0.14,0.17,0.26,0.35,0.35,0.53c0.4-0.85,1.25-1.41,2.23-1.41h4.17c0.12,0,0.23,0.01,0.34,0.02c0.11-0.01,0.22-0.02,0.34-0.02
		h14.56c0.11,0,0.23,0.01,0.33,0.02c0.11-0.01,0.22-0.02,0.33-0.02h5.87c1.01,0,1.88,0.58,2.26,1.49c0.38-0.89,1.25-1.49,2.26-1.49
		h4.17c0.12,0,0.23,0.01,0.34,0.02c0.11-0.01,0.22-0.02,0.34-0.02h14.56c0.12,0,0.23,0.01,0.34,0.02c0.11-0.01,0.22-0.02,0.34-0.02
		h5.94c0.76,0,1.41,0.3,1.89,0.88c0.14,0.17,0.25,0.34,0.34,0.53c0.4-0.85,1.25-1.41,2.23-1.41h4.17c0.12,0,0.23,0.01,0.34,0.02
		c0.11-0.01,0.22-0.02,0.34-0.02h19.77c0.12,0,0.23,0.01,0.34,0.02c0.11-0.01,0.22-0.02,0.34-0.02h14.56
		C269.26,67.04,269.37,67.05,269.48,67.07L269.48,67.07z"/>
	<path class="st187" d="M159.13,72.67l-3.24,18.15h4.17l1.44-8.02h4.46l-1.44,8.02h4.17l3.82-21.32h-4.17l-1.44,8.02h-4.46
		l1.44-8.02h-5.94L159.13,72.67L159.13,72.67z M187.74,69.51h-14.56l1.19,3.17l-3.24,18.15h4.17l1.22-6.83h4.46l-1.22,6.83h4.17
		L187.74,69.51L187.74,69.51z M178.15,74.82h4.46l-0.69,3.89h-4.46L178.15,74.82L178.15,74.82z M189.6,72.67l-3.24,18.15h4.17
		l1.7-9.54l2.82,9.54h4.1l3.82-21.32h-4.17l-1.7,9.54l-2.82-9.54h-5.87L189.6,72.67L189.6,72.67z M201.6,90.82h8.97l4.97-6.43
		l2.67-14.88h-14.56l1.19,3.17L201.6,90.82L201.6,90.82z M213.08,74.82l-1.21,6.76l-2.92,3.96h-2.26l1.92-10.72L213.08,74.82
		L213.08,74.82z M233.45,69.51h-4.17l-0.74,4.09l-2.92,3.93l-1.54-3.93l0.74-4.09h-5.94l1.19,3.17l-0.65,3.73l3,7.33l-1.28,7.09
		h4.17l1.28-7.09l5.63-7.33L233.45,69.51L233.45,69.51z M235.33,72.67l-3.24,18.15h4.17l2.88-16.04h2.73l-2.87,16.04h4.17
		l2.87-16.04h2.76l-2.87,16.04h4.17l3.82-21.32h-19.77L235.33,72.67L235.33,72.67z M269.14,69.51h-14.56l1.19,3.17l-3.24,18.15h4.17
		l1.22-6.83h4.46l-1.22,6.83h4.17L269.14,69.51L269.14,69.51z M259.55,74.82h4.46l-0.69,3.89h-4.46L259.55,74.82L259.55,74.82z
		 M271,72.67l-3.24,18.15h4.17l1.7-9.54l2.82,9.54h4.1l3.82-21.32h-4.17l-1.7,9.54l-2.82-9.54h-5.87L271,72.67L271,72.67z"/>
	<g>
		<path class="st188" d="M194.55,98.16l1.18,2.05h-2.47l-1-1.77h-0.58l-0.35,1.77h-2.38l1.41-7.05h3.16c1.86,0,2.93,0.86,2.93,2.32
			C196.45,96.74,195.74,97.71,194.55,98.16z M193.16,95h-0.8l-0.33,1.65h0.98c0.65,0,1.04-0.34,1.04-0.94
			C194.04,95.21,193.7,95,193.16,95z"/>
		<path class="st188" d="M203.34,97.06c0,0.12-0.01,0.25-0.02,0.38l-3.9,0.73c0.15,0.33,0.49,0.46,1.03,0.46
			c0.39,0,0.82-0.12,1.17-0.38l0.95,1.38c-0.76,0.51-1.57,0.68-2.4,0.68c-1.82,0-3.04-0.99-3.04-2.55c0-1.81,1.36-3.16,3.43-3.16
			C202.12,94.61,203.34,95.44,203.34,97.06z M199.4,97.06l1.83-0.34c-0.07-0.36-0.38-0.56-0.8-0.56
			C199.85,96.16,199.54,96.55,199.4,97.06z"/>
		<path class="st188" d="M204.2,98.64c0-0.17,0.02-0.36,0.06-0.56l1.07-5.34h2.28l-1.05,5.24c-0.01,0.07-0.02,0.14-0.02,0.19
			c0,0.3,0.18,0.42,0.44,0.42c0.13,0,0.29-0.03,0.39-0.08l-0.24,1.66c-0.36,0.1-0.67,0.14-1.01,0.14
			C204.91,100.32,204.2,99.71,204.2,98.64z"/>
		<path class="st188" d="M209.33,94.71h2.27l-1.1,5.51h-2.27L209.33,94.71z M209.42,93.19c0-0.71,0.57-1.24,1.45-1.24
			c0.8,0,1.29,0.43,1.29,1.04c0,0.75-0.57,1.28-1.45,1.28C209.91,94.26,209.42,93.79,209.42,93.19z"/>
		<path class="st188" d="M219.31,98.51l-0.24,1.66c-0.36,0.1-0.67,0.14-1.01,0.14c-0.96,0-1.55-0.38-1.76-0.94
			c-0.43,0.6-1.04,0.94-1.78,0.94c-1.1,0-2.27-0.91-2.27-2.55c0-1.81,1.35-3.16,2.93-3.16c0.67,0,1.24,0.19,1.57,0.68l0.12-0.58
			h2.28l-0.65,3.27c-0.01,0.08-0.02,0.14-0.02,0.2c0,0.31,0.18,0.41,0.44,0.41C219.05,98.59,219.21,98.56,219.31,98.51z
			 M216.37,97.26c0-0.51-0.3-0.87-0.82-0.87c-0.59,0-1,0.49-1,1.26c0,0.51,0.3,0.87,0.82,0.87
			C215.97,98.52,216.37,98.03,216.37,97.26z"/>
		<path class="st188" d="M227.06,97.15c0,1.81-1.35,3.16-2.93,3.16c-0.74,0-1.34-0.22-1.66-0.83l-0.14,0.72h-2.17l1.49-7.47h2.28
			l-0.46,2.34c0.36-0.3,0.81-0.47,1.33-0.47C225.89,94.61,227.06,95.51,227.06,97.15z M224.76,97.26c0-0.51-0.3-0.87-0.82-0.87
			c-0.59,0-1,0.49-1,1.26c0,0.51,0.3,0.87,0.82,0.87C224.35,98.52,224.76,98.03,224.76,97.26z"/>
		<path class="st188" d="M228.07,98.64c0-0.17,0.02-0.36,0.06-0.56l1.07-5.34h2.28l-1.05,5.24c-0.01,0.07-0.02,0.14-0.02,0.19
			c0,0.3,0.18,0.42,0.44,0.42c0.13,0,0.29-0.03,0.39-0.08l-0.24,1.66c-0.36,0.1-0.67,0.14-1.01,0.14
			C228.78,100.32,228.07,99.71,228.07,98.64z"/>
		<path class="st188" d="M238.46,97.06c0,0.12-0.01,0.25-0.02,0.38l-3.9,0.73c0.15,0.33,0.49,0.46,1.03,0.46
			c0.39,0,0.82-0.12,1.17-0.38l0.95,1.38c-0.75,0.51-1.57,0.68-2.4,0.68c-1.82,0-3.04-0.99-3.04-2.55c0-1.81,1.36-3.16,3.43-3.16
			C237.25,94.61,238.46,95.44,238.46,97.06z M234.53,97.06l1.83-0.34c-0.07-0.36-0.38-0.56-0.8-0.56
			C234.97,96.16,234.66,96.55,234.53,97.06z"/>
		<path class="st188" d="M250.91,93.16l-1.41,7.05h-2.38l0.52-2.6h-2.2l-0.52,2.6h-2.38l1.41-7.05h2.38l-0.5,2.5h2.2l0.5-2.5H250.91
			z"/>
		<path class="st188" d="M258.39,98.51l-0.24,1.66c-0.36,0.1-0.67,0.14-1.01,0.14c-0.96,0-1.55-0.38-1.76-0.94
			c-0.43,0.6-1.04,0.94-1.78,0.94c-1.1,0-2.27-0.91-2.27-2.55c0-1.81,1.35-3.16,2.93-3.16c0.67,0,1.24,0.19,1.57,0.68l0.12-0.58
			h2.28l-0.65,3.27c-0.01,0.08-0.02,0.14-0.02,0.2c0,0.31,0.18,0.41,0.44,0.41C258.13,98.59,258.29,98.56,258.39,98.51z
			 M255.45,97.26c0-0.51-0.3-0.87-0.82-0.87c-0.59,0-1,0.49-1,1.26c0,0.51,0.3,0.87,0.82,0.87
			C255.05,98.52,255.45,98.03,255.45,97.26z"/>
		<path class="st188" d="M266,96.48c0,0.21-0.02,0.44-0.07,0.7l-0.6,3.04h-2.28l0.55-2.77c0.02-0.12,0.04-0.23,0.04-0.33
			c0-0.39-0.19-0.59-0.57-0.59c-0.51,0-0.88,0.33-1.02,1.05l-0.53,2.65h-2.28l1.1-5.51h2.14l-0.11,0.55
			c0.48-0.45,1.09-0.65,1.65-0.65C265.18,94.61,266,95.23,266,96.48z"/>
		<path class="st188" d="M273.42,98.17c0,0.3,0.18,0.42,0.44,0.42c0.13,0,0.29-0.03,0.39-0.08l-0.24,1.66
			c-0.36,0.1-0.67,0.14-1.01,0.14c-0.93,0-1.5-0.35-1.71-1c-0.43,0.6-1.04,1-1.82,1c-1.1,0-2.27-0.91-2.27-2.55
			c0-1.81,1.35-3.16,2.93-3.16c0.69,0,1.28,0.2,1.61,0.74l0.46-2.6h2.28l-1.05,5.24C273.43,98.05,273.42,98.12,273.42,98.17z
			 M271.33,97.26c0-0.51-0.3-0.87-0.82-0.87c-0.59,0-1,0.49-1,1.26c0,0.51,0.3,0.87,0.82,0.87
			C270.93,98.52,271.33,98.03,271.33,97.26z"/>
		<path class="st188" d="M274.99,99.81l0.79-1.55c0.54,0.33,1.3,0.5,1.91,0.5c0.5,0,0.67-0.11,0.67-0.26c0-0.47-2.78,0.03-2.78-1.81
			c0-1.42,1.38-2.08,3.1-2.08c0.81,0,1.58,0.15,2.16,0.41l-0.79,1.55c-0.57-0.33-1.18-0.41-1.64-0.41c-0.52,0-0.7,0.14-0.7,0.27
			c0,0.5,2.77-0.02,2.77,1.82c0,1.38-1.39,2.06-3.08,2.06C276.42,100.32,275.47,100.09,274.99,99.81z"/>
	</g>
</g>
</svg>
