<?xml version="1.0" encoding="utf-8"?>
<!-- Generator: Adobe Illustrator 27.8.1, SVG Export Plug-In . SVG Version: 6.00 Build 0)  -->
<svg version="1.1" id="Layer_1" xmlns="http://www.w3.org/2000/svg" xmlns:xlink="http://www.w3.org/1999/xlink" x="0px" y="0px"
	 viewBox="0 0 348 228" style="enable-background:new 0 0 348 228;" xml:space="preserve">
<style type="text/css">
	.st0{fill:#D6EADE;}
	.st1{fill:#03487C;}
	.st2{fill:#1B1B4C;}
	.st3{fill-rule:evenodd;clip-rule:evenodd;fill:#204F7A;}
	.st4{fill-rule:evenodd;clip-rule:evenodd;fill:#50A4FF;}
	.st5{fill:#002649;}
	.st6{fill:#E6E7E8;stroke:#CFCFCF;stroke-width:0.1061;}
	.st7{fill:#333333;}
	.st8{fill:#0F5998;}
	.st9{fill:#277FC1;}
	.st10{fill-rule:evenodd;clip-rule:evenodd;fill:#277FC1;}
	.st11{fill-rule:evenodd;clip-rule:evenodd;fill:#083D6D;}
	.st12{fill:#DDB462;}
	
		.st13{clip-path:url(#SVGID_00000170975649384206791430000001706900900164301194_);fill:url(#SVGID_00000170980790277193934350000016873761177799609475_);}
	.st14{fill:#FFFFFF;}
	.st15{fill:url(#SVGID_00000163073278225487160550000014865451726158988944_);}
	.st16{fill:#224685;}
	.st17{fill:none;}
	.st18{fill:#FFC73B;}
	.st19{fill:#11233F;}
	.st20{fill:#5267FF;}
	.st21{fill-rule:evenodd;clip-rule:evenodd;fill:#72342E;}
	.st22{fill:#72342E;}
	.st23{fill:#FFF2E2;}
	.st24{fill:#FFF2E2;stroke:#72342E;stroke-width:0.75;stroke-miterlimit:10;}
	.st25{fill:#FFCC99;}
	.st26{fill:#469CB2;}
	.st27{fill:url(#XMLID_00000058560999441964103430000003039655483599406987_);}
	.st28{fill:url(#XMLID_00000084523027289840833960000006870445774111974063_);}
	.st29{fill:url(#XMLID_00000098221984475781065600000000277845532463473595_);}
	.st30{fill:url(#XMLID_00000002351138389135562780000004365493270030749069_);}
	.st31{fill:url(#XMLID_00000050659331678667947160000004651910195512307077_);}
	.st32{fill:url(#XMLID_00000044879760507347384350000003706063328784630944_);}
	.st33{fill:url(#XMLID_00000155124404570287297610000008398751599180422327_);}
	.st34{fill:url(#XMLID_00000004512837241483945370000006443860796090953907_);}
	.st35{fill:url(#XMLID_00000032629271406750090600000001099671511556656283_);}
	.st36{fill:url(#XMLID_00000071537552533255437210000001021524485992418712_);}
	.st37{fill:url(#XMLID_00000040538127470659367980000006878219801167792801_);}
	.st38{fill:url(#XMLID_00000054238045839508166320000005890262663174721673_);}
	.st39{fill:url(#XMLID_00000006683182619289233900000008460887236094697643_);}
	.st40{fill:url(#XMLID_00000127006484452530748940000012032982296359859339_);}
	.st41{fill:url(#XMLID_00000021814491893484121980000010810396520090997677_);}
	.st42{fill:url(#SVGID_00000105416882555414302900000012941872970894375844_);}
	.st43{fill:url(#SVGID_00000063633963394444592970000006892307750904144564_);}
	.st44{fill:url(#SVGID_00000003796200376604258700000001017083605920349885_);}
	.st45{fill:url(#SVGID_00000079456863307237050020000004426930308192012200_);}
	.st46{fill:url(#SVGID_00000121985789543248118040000000924064192444609428_);}
	.st47{fill:url(#SVGID_00000160169518813770187810000008524954447181170604_);}
	.st48{fill:url(#SVGID_00000051355400361972157850000016010480498461672882_);}
	.st49{fill:url(#SVGID_00000177442110573262124570000000721917006174433205_);}
	.st50{fill:url(#SVGID_00000047759277423536453140000015809853728020054933_);}
	.st51{fill:url(#SVGID_00000083769848978401546520000010170793610421778356_);}
	.st52{fill:url(#SVGID_00000162335897946844265690000003265435924024732585_);}
	.st53{fill:url(#SVGID_00000098183811608105881060000005080039772340126887_);}
	.st54{fill:url(#SVGID_00000003806902900521994980000015868395060587922055_);}
	.st55{fill:url(#SVGID_00000096033182254623252670000000428889812133304501_);}
	.st56{fill:#30325E;}
	.st57{fill:#FF7859;}
	.st58{fill:#FFD550;}
	.st59{fill:#00C3AD;}
	.st60{fill:#FF4653;}
	.st61{fill:#D8CE19;}
	.st62{fill:#C1E5DE;}
	.st63{fill:#FFE4D2;}
	.st64{fill:#DFF4F0;}
	.st65{fill:#A2E0EB;}
	.st66{fill:#1B3493;}
	.st67{fill:none;stroke:#FFFFFF;stroke-width:2;stroke-linecap:round;stroke-linejoin:round;stroke-miterlimit:10;}
	.st68{fill:#F15A24;}
	.st69{fill:#F7931E;}
	.st70{fill:#58595B;}
	.st71{fill:#114E15;}
	.st72{fill:#013D01;}
	.st73{fill:#E9C608;}
	.st74{fill:#043B00;}
	.st75{fill:#D8A43E;}
	.st76{clip-path:url(#SVGID_00000012464113715567190470000016080229224085658789_);}
	.st77{fill:#F49630;}
	.st78{clip-path:url(#SVGID_00000074426760636223628750000003243692867843028891_);}
	.st79{clip-path:url(#SVGID_00000098188044666044667470000009544902064972817566_);}
	.st80{clip-path:url(#SVGID_00000003793386267193293250000017566431697866343318_);}
	.st81{clip-path:url(#SVGID_00000151536774802234772430000005855927109033161861_);}
	.st82{fill-rule:evenodd;clip-rule:evenodd;fill:#FF6600;}
	.st83{fill-rule:evenodd;clip-rule:evenodd;fill:#05174F;}
	.st84{fill:#05174F;}
	.st85{opacity:0.42;fill:url(#SVGID_00000126286177636946703030000005331483495189532582_);enable-background:new    ;}
	.st86{opacity:0.42;fill:url(#SVGID_00000024705227427628224660000007937257476004108476_);enable-background:new    ;}
	.st87{fill:url(#SVGID_00000111901458107204394210000012046965938641326208_);}
	.st88{fill:url(#SVGID_00000039116011716166476630000006048862428491453876_);}
	.st89{opacity:0.64;fill:url(#SVGID_00000172425306731322006310000016264448686036472711_);enable-background:new    ;}
	.st90{opacity:0.75;fill:url(#SVGID_00000075862304085611989440000017874976437580900789_);enable-background:new    ;}
	.st91{fill:url(#SVGID_00000136387052505713618880000002320453049255039404_);}
	.st92{fill:url(#SVGID_00000058557220098111730650000013296347434682468756_);}
	.st93{opacity:0.76;fill:url(#SVGID_00000172412677738975151830000016826249438557052337_);enable-background:new    ;}
	.st94{opacity:0.75;fill:url(#SVGID_00000028311297321739910490000007545278496140482723_);enable-background:new    ;}
	.st95{fill:url(#SVGID_00000034090236033724149480000001810502417262051218_);}
	.st96{opacity:0.42;fill:url(#SVGID_00000088841407474916212410000005589865653513835421_);enable-background:new    ;}
	.st97{opacity:0.42;fill:url(#SVGID_00000045588872328197571490000007475066740243740295_);enable-background:new    ;}
	.st98{clip-path:url(#SVGID_00000042696711430686237080000018068457024878434732_);}
	.st99{fill:#1ED7FE;}
	.st100{clip-path:url(#SVGID_00000036236037598602090370000014963722587282800800_);}
	.st101{clip-path:url(#SVGID_00000031909050710599592200000000865772541611569291_);}
	.st102{fill:#000056;}
	.st103{clip-path:url(#SVGID_00000166645165770189554590000015722919592057591741_);}
	.st104{enable-background:new    ;}
	.st105{fill:#053272;}
	.st106{fill:none;stroke:#053272;stroke-width:4;stroke-miterlimit:10;}
	.st107{fill:url(#SVGID_00000000209804455024772920000011563967291451121286_);}
	.st108{fill:url(#SVGID_00000148619543305450260660000001772480377598378421_);}
	.st109{fill:url(#SVGID_00000163795535729457036300000006735469293752837784_);}
	.st110{fill:url(#SVGID_00000168076360309571580820000009583168040810241466_);}
	.st111{fill:url(#SVGID_00000122710540794390155960000003206590824603477398_);}
	.st112{fill:url(#SVGID_00000056391620606635462480000002565752416471365305_);}
	.st113{fill:url(#SVGID_00000063615173096353807510000000478364047210896063_);}
	.st114{fill:url(#SVGID_00000071534355997261809670000011714097333032102808_);}
	.st115{fill:url(#SVGID_00000122684749967471358710000012210053501844164537_);}
	.st116{fill:url(#SVGID_00000003827223372874974250000016332744119669691306_);}
	.st117{fill:url(#SVGID_00000151537623611470672890000008171832466943168656_);}
	.st118{fill:url(#SVGID_00000137096006747664422230000014451928070922162611_);}
	.st119{fill:url(#SVGID_00000171707750458062775860000006143126216952048531_);}
	.st120{fill:url(#SVGID_00000063615807651786258750000016120295942523529121_);}
	.st121{fill:url(#SVGID_00000067210238174084119950000007010265479049192880_);}
	.st122{fill:url(#SVGID_00000018957727503005206520000000054262797264187825_);}
	.st123{fill:url(#SVGID_00000088101272042364025830000000086752312894887817_);}
	.st124{fill:url(#SVGID_00000149381654446488192460000005940058967325641883_);}
	.st125{fill:url(#SVGID_00000059270522942524351080000002124113577683837329_);}
	.st126{fill:url(#SVGID_00000146495161745586299850000001398332762490157712_);}
	.st127{fill:url(#SVGID_00000037666180985811429230000018413450987774103190_);}
	.st128{fill:url(#SVGID_00000077325810627796716370000002617953258625455036_);}
	.st129{fill:url(#SVGID_00000070796724435635382090000003196808700696049320_);}
	.st130{fill:url(#SVGID_00000089548395654887649870000003694107229587072941_);}
	.st131{fill:url(#SVGID_00000039101451856577404000000001269804710454944136_);}
	.st132{fill:url(#SVGID_00000150793411597448308290000016240001157600349586_);}
	.st133{fill:url(#SVGID_00000116929099284616958020000016536156231482322096_);}
	.st134{fill:url(#SVGID_00000154413854030512069950000012254188673944604823_);}
	.st135{fill:url(#SVGID_00000096771025424277251300000014855646200107367308_);}
	.st136{fill:none;stroke:#FEF73D;stroke-linecap:round;stroke-miterlimit:10;}
	.st137{fill:#FF189C;}
	.st138{fill:none;stroke:#FF189C;stroke-miterlimit:10;}
	.st139{fill:none;stroke:#00EFF1;stroke-linecap:round;stroke-miterlimit:10;}
	.st140{fill:#00EFF1;}
	.st141{fill:#FFA022;}
	.st142{fill:#0C103A;}
	.st143{fill-rule:evenodd;clip-rule:evenodd;fill:#5D9541;}
	.st144{fill-rule:evenodd;clip-rule:evenodd;fill:#F06021;}
	.st145{fill-rule:evenodd;clip-rule:evenodd;fill:#69BC60;}
	.st146{fill-rule:evenodd;clip-rule:evenodd;fill:#F6951C;}
	.st147{fill:#F6951C;}
	.st148{fill:url(#SVGID_00000046324700082171324310000009141416774722564739_);}
	.st149{fill:url(#SVGID_00000013172679883639423450000008528404043452709537_);}
	.st150{fill:url(#SVGID_00000059994113009248470930000016838376959183111060_);}
	.st151{fill:url(#SVGID_00000000186894083155185070000012314042922460760996_);}
	.st152{fill:url(#SVGID_00000120538250814488779190000006607708882046594212_);}
	.st153{fill:url(#SVGID_00000182496655136211068110000013302148932395965620_);}
	.st154{fill:url(#SVGID_00000178892748882514372280000017933650845823694725_);}
	.st155{fill:url(#SVGID_00000116237796411047247350000001772807978951119530_);}
	.st156{fill:url(#SVGID_00000008868179270426327730000013729877414190304436_);}
	.st157{fill:url(#SVGID_00000096039392213836097870000002705871936059504791_);}
	.st158{fill:url(#SVGID_00000160191244275592796530000011647126233412129182_);}
	.st159{fill:url(#SVGID_00000004542373212912762180000016074550062219211154_);}
	.st160{fill:url(#SVGID_00000054972074397095436620000013976055533343228567_);}
	.st161{fill:url(#SVGID_00000002361251312005340560000015333834287705019557_);}
	.st162{fill:url(#SVGID_00000016759536545179329270000003630294138554567343_);}
	.st163{fill:url(#SVGID_00000000908104593624670120000018226203601285343932_);}
	.st164{fill:url(#SVGID_00000106107303865533880260000018293677313803221922_);}
	.st165{fill:url(#SVGID_00000115479120659564582640000012418712311141991839_);}
	.st166{fill:url(#SVGID_00000043459366910070875710000012729861879378264760_);}
	.st167{fill:url(#SVGID_00000080928163429557061970000012005603012317146244_);}
	.st168{fill:url(#SVGID_00000143585677790828488200000015661262919281749399_);}
	.st169{fill:url(#SVGID_00000062166715621792818640000004819118947456629427_);}
	.st170{fill-rule:evenodd;clip-rule:evenodd;fill:#512100;}
	.st171{fill-rule:evenodd;clip-rule:evenodd;fill:#006D62;}
	.st172{fill-rule:evenodd;clip-rule:evenodd;}
	.st173{fill-rule:evenodd;clip-rule:evenodd;fill:#00A1F5;}
	.st174{fill-rule:evenodd;clip-rule:evenodd;fill:#FACFAB;}
	.st175{fill-rule:evenodd;clip-rule:evenodd;fill:#F29673;}
	.st176{fill-rule:evenodd;clip-rule:evenodd;fill:#FFFFFF;}
	.st177{fill-rule:evenodd;clip-rule:evenodd;fill:#333333;}
	.st178{fill-rule:evenodd;clip-rule:evenodd;fill:#BD4D00;}
	.st179{fill-rule:evenodd;clip-rule:evenodd;fill:#B2B2B2;}
	.st180{fill-rule:evenodd;clip-rule:evenodd;fill:#F2CC29;}
	.st181{fill-rule:evenodd;clip-rule:evenodd;fill:#005C9C;}
	.st182{fill-rule:evenodd;clip-rule:evenodd;fill:#8AC900;}
	.st183{fill-rule:evenodd;clip-rule:evenodd;fill:#808080;}
	.st184{fill-rule:evenodd;clip-rule:evenodd;fill:#CFA605;}
	.st185{fill-rule:evenodd;clip-rule:evenodd;fill:#666666;}
	.st186{fill-rule:evenodd;clip-rule:evenodd;fill:#CCCCCC;}
	.st187{fill:#960000;}
	.st188{fill:#00A1F5;}
	.st189{fill:url(#SVGID_00000034778929082309049680000000595141867729745029_);}
	.st190{fill:url(#SVGID_00000049916341492781925410000002226016996677782448_);}
	.st191{opacity:0.51;fill:url(#SVGID_00000165951374901912742260000001640739419520224654_);}
	.st192{fill:url(#SVGID_00000011030270926382495200000015404659658800382598_);}
	.st193{fill:url(#SVGID_00000176749788271253023130000018044925698445797258_);}
	.st194{fill:url(#SVGID_00000060725319417250045790000004072057920166577795_);}
	.st195{opacity:0.35;fill:url(#SVGID_00000178201525162874892430000010440155026689123504_);}
	.st196{opacity:0.35;fill:url(#SVGID_00000075137159607051120710000002767712676207551110_);}
	.st197{fill:#F06021;}
	.st198{fill-rule:evenodd;clip-rule:evenodd;fill:url(#SVGID_00000066482969944204060860000018172012794467164826_);}
	.st199{fill-rule:evenodd;clip-rule:evenodd;fill:url(#SVGID_00000169519700183891029020000001974032960718647982_);}
	.st200{fill-rule:evenodd;clip-rule:evenodd;fill:url(#SVGID_00000057125195896823476060000003760078863309825974_);}
	.st201{fill-rule:evenodd;clip-rule:evenodd;fill:url(#SVGID_00000127023380083878577170000001949792074141003451_);}
	.st202{fill-rule:evenodd;clip-rule:evenodd;fill:url(#SVGID_00000113323165095729088900000013159395594035197092_);}
	.st203{fill-rule:evenodd;clip-rule:evenodd;fill:url(#SVGID_00000152245724508533192080000001280565107810688415_);}
	.st204{fill-rule:evenodd;clip-rule:evenodd;fill:url(#SVGID_00000039098068218811478980000003566194072969206667_);}
	.st205{fill-rule:evenodd;clip-rule:evenodd;fill:url(#SVGID_00000158748507399074329960000002097579713838238866_);}
	.st206{fill-rule:evenodd;clip-rule:evenodd;fill:url(#SVGID_00000161617829299074972770000013333253284837973395_);}
	.st207{fill-rule:evenodd;clip-rule:evenodd;fill:url(#SVGID_00000075137656155239387930000006354514963168313006_);}
	.st208{fill-rule:evenodd;clip-rule:evenodd;fill:url(#SVGID_00000135687267634834346770000016894372466528759963_);}
	.st209{fill-rule:evenodd;clip-rule:evenodd;fill:url(#SVGID_00000183939956371204291640000017716417383450954880_);}
	.st210{fill-rule:evenodd;clip-rule:evenodd;fill:url(#SVGID_00000103252046755008914940000003287317643470939014_);}
	.st211{opacity:0.5;fill-rule:evenodd;clip-rule:evenodd;fill:#5D0101;enable-background:new    ;}
	.st212{fill:#E11B22;}
	.st213{fill:#959595;}
	.st214{fill:#003359;}
	.st215{fill:#1779C1;}
	.st216{fill:#0EB17C;}
	.st217{fill:#2B2353;}
	.st218{fill:#BE264E;}
	.st219{fill:#EAA41C;}
	.st220{fill:#1F9EF3;}
	.st221{fill:#0267A3;}
	.st222{fill:#FFEC00;}
	.st223{fill:#00A0E0;}
	.st224{fill:#E3007E;}
	.st225{fill:none;stroke:#000000;stroke-width:2;stroke-miterlimit:10;}
	.st226{fill:#FF9E80;}
	.st227{fill:#414151;}
	.st228{fill:#2B295E;}
	.st229{fill:#CCCCCC;}
	.st230{fill:#FF8C5C;}
	.st231{fill:#DBA21C;}
	.st232{fill:#EDDBB2;}
	.st233{fill:#DEC58B;}
	.st234{fill:#997113;}
	.st235{fill:#B88817;}
	.st236{fill:#003400;stroke:#8EC13D;stroke-width:4;stroke-miterlimit:10;}
	.st237{fill:#8EC13D;}
	.st238{fill:url(#XMLID_00000023258715308603315260000013463198094190819236_);}
	.st239{fill:url(#SVGID_00000124849062480760154600000008234436190533843353_);}
	.st240{fill:url(#SVGID_00000054952561232058528960000009576049820340343485_);}
	.st241{fill:url(#SVGID_00000062891299535032425150000017700668224954748605_);}
	.st242{fill:url(#SVGID_00000088133891394509808620000014569981766873181337_);}
	.st243{fill:url(#SVGID_00000164476825431621229440000015230928287280290202_);}
	.st244{fill:url(#SVGID_00000142164360653950878700000005338296126561585541_);}
	.st245{fill:url(#SVGID_00000046325836172045155090000007684406822633714057_);}
	.st246{fill:url(#SVGID_00000071520140923505555460000013456615024030997127_);}
	.st247{fill:url(#SVGID_00000016043090918706889060000008623214325434823584_);}
	.st248{fill:url(#SVGID_00000118399164564726200160000006508454524802049676_);}
	.st249{fill:url(#SVGID_00000168837524662913670610000015094613050787013249_);}
	.st250{fill:#1C75BC;}
	.st251{fill:#46920C;}
	.st252{fill:#FF9400;}
	.st253{fill:url(#SVGID_00000002370893014406592090000016212912391817458879_);}
	.st254{fill:url(#SVGID_00000003073474445331107790000001531634354624513418_);}
	.st255{fill:url(#SVGID_00000131353051522034066150000008619394169632879016_);}
	.st256{fill:url(#SVGID_00000089571500338701420170000003041189589774971323_);}
	.st257{fill:url(#SVGID_00000181774883925961508440000013786381202473807500_);}
	.st258{fill:url(#SVGID_00000171721130359280496330000009442383227734952103_);}
	.st259{fill:url(#SVGID_00000116933779220772624500000016063944711634836157_);}
	.st260{fill:url(#SVGID_00000019670809167480598560000002889523632382501259_);}
	.st261{fill:url(#SVGID_00000003072306935117120850000017721387628270868629_);}
	.st262{fill:url(#SVGID_00000115506356064366397530000014634068349316371882_);}
	.st263{fill:url(#SVGID_00000016780531670754211100000008350893022390450353_);}
	.st264{fill:url(#SVGID_00000150803118317376950740000002774893318069341626_);}
	.st265{fill:url(#SVGID_00000139290964556464377980000016581933293852978824_);}
	.st266{fill:url(#SVGID_00000011029910343401081250000014030219945990428811_);}
	.st267{fill:url(#SVGID_00000060010356620565553470000002522800755074315677_);}
	.st268{fill:url(#SVGID_00000091717305397955296470000000086130806185244581_);}
	.st269{fill:url(#SVGID_00000067194147698375612180000005955613006735849130_);}
	.st270{fill:url(#SVGID_00000041261506172170392500000016731168162597476286_);}
	.st271{fill:url(#SVGID_00000134229955272435323860000011903296914098413193_);}
	.st272{fill:#2F3F67;}
	.st273{fill:#C97F32;}
	.st274{fill:none;stroke:#C97F32;stroke-width:1.2891;stroke-miterlimit:10;}
	.st275{fill:url(#XMLID_00000157299066234789319140000001809832357060334493_);}
	.st276{fill:#00548B;}
	.st277{fill:#004368;}
	.st278{fill:#94070A;}
	.st279{fill:url(#XMLID_00000116950007460324038710000004196262434506545343_);}
	.st280{fill:url(#XMLID_00000142137568369137538640000013545097475102101930_);}
	.st281{fill:#B34A06;}
	.st282{fill:#A2B5C4;}
	.st283{fill:#192940;}
	.st284{fill:url(#SVGID_00000141439982480797316790000017914412019822838711_);}
	.st285{fill:url(#SVGID_00000145019744511017931540000012260019168166379189_);}
	.st286{fill:url(#SVGID_00000011728972886182513380000001478716046276473498_);}
	.st287{opacity:0.93;fill:url(#SVGID_00000029734864352992033480000008880305086877390491_);}
	.st288{opacity:0.93;fill:url(#SVGID_00000162341523606307592270000016229649825391221943_);}
	.st289{opacity:0.93;fill:url(#SVGID_00000133505718481312108080000011987988153732631486_);}
	.st290{opacity:0.93;fill:url(#SVGID_00000127750035649051489600000013448222370248749985_);}
	.st291{fill:url(#SVGID_00000031202984842351443220000003989117749286842763_);}
	.st292{stroke:#000000;stroke-width:0.75;stroke-miterlimit:10;}
</style>
<g>
	<g>
		
			<radialGradient id="SVGID_00000092444460984791344060000011862792142051012278_" cx="174.5413" cy="-1331.1735" r="74.4921" gradientTransform="matrix(1 0 0 -1 0 -1236.5282)" gradientUnits="userSpaceOnUse">
			<stop  offset="0" style="stop-color:#F9ED32"/>
			<stop  offset="1" style="stop-color:#F15A29"/>
		</radialGradient>
		<polygon style="fill:url(#SVGID_00000092444460984791344060000011862792142051012278_);" points="225.39,83.61 225.39,117.96 
			220.32,117.96 220.32,125.57 232.99,125.57 232.99,83.61 		"/>
		
			<radialGradient id="SVGID_00000177467167865606285750000003485361862659647891_" cx="174.5377" cy="-1331.1733" r="74.4966" gradientTransform="matrix(1 0 0 -1 0 -1236.5282)" gradientUnits="userSpaceOnUse">
			<stop  offset="0" style="stop-color:#F9ED32"/>
			<stop  offset="1" style="stop-color:#F15A29"/>
		</radialGradient>
		<polygon style="fill:url(#SVGID_00000177467167865606285750000003485361862659647891_);" points="209.34,83.61 209.34,131.48 
			204.27,131.48 204.27,139.09 216.95,139.09 216.95,83.61 		"/>
		
			<radialGradient id="SVGID_00000144297184591792035720000003491055702911043505_" cx="174.5386" cy="-1331.1736" r="74.4959" gradientTransform="matrix(1 0 0 -1 0 -1236.5282)" gradientUnits="userSpaceOnUse">
			<stop  offset="0" style="stop-color:#F9ED32"/>
			<stop  offset="1" style="stop-color:#F15A29"/>
		</radialGradient>
		<polygon style="fill:url(#SVGID_00000144297184591792035720000003491055702911043505_);" points="193.29,83.61 193.29,145.28 
			188.22,145.28 188.22,152.88 200.9,152.88 200.9,83.61 		"/>
		
			<radialGradient id="SVGID_00000129192694276506417480000010743101886234013066_" cx="174.5376" cy="-1331.1735" r="74.4931" gradientTransform="matrix(1 0 0 -1 0 -1236.5282)" gradientUnits="userSpaceOnUse">
			<stop  offset="0" style="stop-color:#27AAE1"/>
			<stop  offset="1" style="stop-color:#2B3990"/>
		</radialGradient>
		<polygon style="fill:url(#SVGID_00000129192694276506417480000010743101886234013066_);" points="122.62,104.16 122.62,69.81 
			127.68,69.81 127.68,62.21 115.01,62.21 115.01,104.16 		"/>
		
			<radialGradient id="SVGID_00000045577791056671992280000017178548589235203772_" cx="174.5383" cy="-1331.1735" r="74.4941" gradientTransform="matrix(1 0 0 -1 0 -1236.5282)" gradientUnits="userSpaceOnUse">
			<stop  offset="0" style="stop-color:#27AAE1"/>
			<stop  offset="1" style="stop-color:#2B3990"/>
		</radialGradient>
		<polygon style="fill:url(#SVGID_00000045577791056671992280000017178548589235203772_);" points="138.66,104.16 138.66,56.29 
			143.73,56.29 143.73,48.69 131.06,48.69 131.06,104.16 		"/>
		
			<radialGradient id="SVGID_00000147204442716769429580000005711609002556428179_" cx="174.5392" cy="-1331.1733" r="74.5074" gradientTransform="matrix(1 0 0 -1 0 -1236.5282)" gradientUnits="userSpaceOnUse">
			<stop  offset="0" style="stop-color:#27AAE1"/>
			<stop  offset="1" style="stop-color:#2B3990"/>
		</radialGradient>
		<polygon style="fill:url(#SVGID_00000147204442716769429580000005711609002556428179_);" points="154.71,104.16 154.71,42.5 
			159.78,42.5 159.78,34.89 147.11,34.89 147.11,104.16 		"/>
		
			<radialGradient id="SVGID_00000040562481724684787840000017320816537029501608_" cx="174.5387" cy="-1331.1731" r="74.4944" gradientTransform="matrix(1 0 0 -1 0 -1236.5282)" gradientUnits="userSpaceOnUse">
			<stop  offset="0" style="stop-color:#DA1C5C"/>
			<stop  offset="1" style="stop-color:#662D91"/>
		</radialGradient>
		<polygon style="fill:url(#SVGID_00000040562481724684787840000017320816537029501608_);" points="163.72,42.5 197.8,42.5 
			197.8,47.28 205.68,47.28 205.68,34.89 163.72,34.89 		"/>
		
			<radialGradient id="SVGID_00000082346657457889030040000004041658165160870036_" cx="174.5389" cy="-1331.1733" r="74.4945" gradientTransform="matrix(1 0 0 -1 0 -1236.5282)" gradientUnits="userSpaceOnUse">
			<stop  offset="0" style="stop-color:#DA1C5C"/>
			<stop  offset="1" style="stop-color:#662D91"/>
		</radialGradient>
		<polygon style="fill:url(#SVGID_00000082346657457889030040000004041658165160870036_);" points="163.72,58.54 211.59,58.54 
			211.59,63.33 219.2,63.33 219.2,50.67 163.72,50.67 		"/>
		
			<radialGradient id="SVGID_00000148657526477262450160000008174606279270185141_" cx="174.539" cy="-1331.1731" r="74.494" gradientTransform="matrix(1 0 0 -1 0 -1236.5282)" gradientUnits="userSpaceOnUse">
			<stop  offset="0" style="stop-color:#DA1C5C"/>
			<stop  offset="1" style="stop-color:#662D91"/>
		</radialGradient>
		<polygon style="fill:url(#SVGID_00000148657526477262450160000008174606279270185141_);" points="163.72,74.6 225.39,74.6 
			225.39,79.39 232.99,79.39 232.99,67 163.72,67 		"/>
		
			<radialGradient id="SVGID_00000141453243070884028430000006904337479594398384_" cx="174.5381" cy="-1331.1742" r="74.4948" gradientTransform="matrix(1 0 0 -1 0 -1236.5282)" gradientUnits="userSpaceOnUse">
			<stop  offset="0" style="stop-color:#8DC63F"/>
			<stop  offset="1" style="stop-color:#006838"/>
		</radialGradient>
		<polygon style="fill:url(#SVGID_00000141453243070884028430000006904337479594398384_);" points="184.28,145.28 150.21,145.28 
			150.21,140.49 142.32,140.49 142.32,152.88 184.28,152.88 		"/>
		
			<radialGradient id="SVGID_00000168830353960217361090000015116624895997797266_" cx="174.538" cy="-1331.1749" r="74.4921" gradientTransform="matrix(1 0 0 -1 0 -1236.5282)" gradientUnits="userSpaceOnUse">
			<stop  offset="0" style="stop-color:#8DC63F"/>
			<stop  offset="1" style="stop-color:#006838"/>
		</radialGradient>
		<polygon style="fill:url(#SVGID_00000168830353960217361090000015116624895997797266_);" points="184.28,129.23 136.41,129.23 
			136.41,124.44 128.81,124.44 128.81,137.11 184.28,137.11 		"/>
		
			<radialGradient id="SVGID_00000039844954169772633210000007167032029189426843_" cx="174.5381" cy="-1331.1736" r="74.4948" gradientTransform="matrix(1 0 0 -1 0 -1236.5282)" gradientUnits="userSpaceOnUse">
			<stop  offset="0" style="stop-color:#8DC63F"/>
			<stop  offset="1" style="stop-color:#006838"/>
		</radialGradient>
		<polygon style="fill:url(#SVGID_00000039844954169772633210000007167032029189426843_);" points="184.28,113.17 122.62,113.17 
			122.62,108.39 115.01,108.39 115.01,120.78 184.28,120.78 		"/>
	</g>
	<g>
		
			<radialGradient id="SVGID_00000178913773101392229760000011555169898355285633_" cx="70.9961" cy="180.4375" r="12.3661" gradientUnits="userSpaceOnUse">
			<stop  offset="0" style="stop-color:#27AAE1"/>
			<stop  offset="1" style="stop-color:#2B3990"/>
		</radialGradient>
		<path style="fill:url(#SVGID_00000178913773101392229760000011555169898355285633_);" d="M76.88,169.05
			c1.69,0.8,3.07,1.94,4.13,3.41c1.06,1.47,1.77,3.19,2.12,5.15h-8.19c-0.37-0.82-0.9-1.45-1.59-1.91
			c-0.69-0.45-1.48-0.68-2.36-0.68c-1.31,0-2.34,0.49-3.1,1.47c-0.76,0.98-1.14,2.3-1.14,3.96c0,1.66,0.38,2.97,1.14,3.96
			c0.76,0.98,1.79,1.47,3.1,1.47c0.89,0,1.67-0.23,2.36-0.68c0.69-0.46,1.22-1.09,1.59-1.91h8.19c-0.35,1.96-1.06,3.67-2.12,5.14
			c-1.06,1.47-2.44,2.61-4.13,3.41c-1.69,0.8-3.61,1.21-5.76,1.21c-2.5,0-4.67-0.53-6.51-1.59c-1.84-1.06-3.26-2.55-4.25-4.46
			c-0.99-1.91-1.49-4.09-1.49-6.54s0.5-4.63,1.49-6.54c0.99-1.91,2.41-3.4,4.25-4.46c1.84-1.06,4.01-1.59,6.51-1.59
			C73.26,167.84,75.18,168.24,76.88,169.05z"/>
		
			<radialGradient id="SVGID_00000155121625627445533110000004252754054296437411_" cx="97.9629" cy="180.3853" r="12.7313" gradientUnits="userSpaceOnUse">
			<stop  offset="0" style="stop-color:#27AAE1"/>
			<stop  offset="1" style="stop-color:#2B3990"/>
		</radialGradient>
		<path style="fill:url(#SVGID_00000155121625627445533110000004252754054296437411_);" d="M104.4,169.29
			c1.94,1.08,3.47,2.6,4.6,4.53c1.13,1.94,1.7,4.12,1.7,6.54s-0.57,4.61-1.7,6.54c-1.13,1.94-2.67,3.45-4.62,4.55
			c-1.95,1.1-4.08,1.65-6.39,1.65c-2.33,0-4.47-0.55-6.42-1.65c-1.95-1.1-3.49-2.61-4.64-4.55c-1.14-1.94-1.72-4.12-1.72-6.54
			s0.57-4.61,1.72-6.54c1.14-1.94,2.69-3.45,4.64-4.53s4.09-1.63,6.42-1.63C100.33,167.66,102.47,168.21,104.4,169.29z
			 M94.39,176.33c-0.84,0.99-1.26,2.34-1.26,4.04c0,1.68,0.42,3.02,1.26,4.01c0.84,0.99,2.04,1.49,3.6,1.49
			c1.54,0,2.73-0.5,3.57-1.49c0.84-0.99,1.26-2.33,1.26-4.01c0-1.7-0.42-3.05-1.26-4.04c-0.84-0.99-2.03-1.49-3.57-1.49
			C96.43,174.84,95.23,175.33,94.39,176.33z"/>
		
			<radialGradient id="SVGID_00000080207651660325394980000005580127384069654944_" cx="125.3857" cy="180.4727" r="12.139" gradientUnits="userSpaceOnUse">
			<stop  offset="0" style="stop-color:#27AAE1"/>
			<stop  offset="1" style="stop-color:#2B3990"/>
		</radialGradient>
		<path style="fill:url(#SVGID_00000080207651660325394980000005580127384069654944_);" d="M137.27,192.86h-7.77l-8.23-12.46v12.46
			h-7.77v-24.78h7.77l8.23,12.67v-12.67h7.77V192.86z"/>
		
			<radialGradient id="SVGID_00000121251087907800816260000015762022250851357109_" cx="149.9902" cy="180.3853" r="11.4089" gradientUnits="userSpaceOnUse">
			<stop  offset="0" style="stop-color:#27AAE1"/>
			<stop  offset="1" style="stop-color:#2B3990"/>
		</radialGradient>
		<path style="fill:url(#SVGID_00000121251087907800816260000015762022250851357109_);" d="M158.81,189.4
			c-0.73,1.14-1.8,2.05-3.2,2.71c-1.4,0.67-3.07,1-5,1c-2.96,0-5.41-0.69-7.33-2.08c-1.92-1.39-2.97-3.42-3.13-6.11h8.26
			c0.12,1.42,0.75,2.14,1.89,2.14c0.4,0,0.72-0.11,0.96-0.32s0.37-0.51,0.37-0.91c0-0.58-0.3-1.04-0.89-1.38
			c-0.6-0.34-1.56-0.73-2.89-1.17c-1.56-0.51-2.86-1.04-3.9-1.58c-1.04-0.54-1.94-1.33-2.71-2.38s-1.16-2.42-1.16-4.09
			c0-1.61,0.41-2.98,1.24-4.11c0.83-1.13,1.96-1.99,3.4-2.57c1.44-0.58,3.05-0.88,4.85-0.88c2.96,0,5.32,0.69,7.07,2.07
			s2.71,3.36,2.87,5.95h-8.37c-0.12-1.31-0.65-1.96-1.61-1.96c-0.33,0-0.6,0.1-0.81,0.3s-0.31,0.5-0.31,0.89
			c0,0.54,0.3,0.97,0.89,1.31c0.6,0.34,1.52,0.73,2.78,1.17c1.59,0.56,2.9,1.11,3.94,1.66c1.04,0.55,1.95,1.35,2.73,2.42
			c0.78,1.06,1.17,2.42,1.17,4.08C159.91,186.97,159.55,188.25,158.81,189.4z"/>
		
			<radialGradient id="SVGID_00000074413884051680527180000008071105365595646631_" cx="173.4753" cy="180.5952" r="11.7679" gradientUnits="userSpaceOnUse">
			<stop  offset="0" style="stop-color:#27AAE1"/>
			<stop  offset="1" style="stop-color:#2B3990"/>
		</radialGradient>
		<path style="fill:url(#SVGID_00000074413884051680527180000008071105365595646631_);" d="M170.24,168.08v13.96
			c0,1.14,0.25,2.05,0.75,2.71c0.5,0.67,1.31,1,2.43,1c1.12,0,1.95-0.33,2.49-1c0.54-0.67,0.8-1.57,0.8-2.71v-13.96h7.74v13.96
			c0,2.36-0.49,4.37-1.47,6.04s-2.32,2.92-4.02,3.76c-1.7,0.84-3.6,1.26-5.71,1.26s-3.96-0.42-5.58-1.26
			c-1.62-0.84-2.89-2.09-3.8-3.75c-0.91-1.66-1.37-3.67-1.37-6.06v-13.96H170.24z"/>
		
			<radialGradient id="SVGID_00000168814768514495481760000010713299545262802858_" cx="195.4373" cy="180.4727" r="10.2891" gradientUnits="userSpaceOnUse">
			<stop  offset="0" style="stop-color:#27AAE1"/>
			<stop  offset="1" style="stop-color:#2B3990"/>
		</radialGradient>
		<path style="fill:url(#SVGID_00000168814768514495481760000010713299545262802858_);" d="M195.58,186.98h7.49v5.88h-15.26v-24.78
			h7.77V186.98z"/>
		
			<radialGradient id="SVGID_00000120550993833550570700000014630615065459731594_" cx="214.5474" cy="180.4727" r="11.4521" gradientUnits="userSpaceOnUse">
			<stop  offset="0" style="stop-color:#27AAE1"/>
			<stop  offset="1" style="stop-color:#2B3990"/>
		</radialGradient>
		<path style="fill:url(#SVGID_00000120550993833550570700000014630615065459731594_);" d="M224.98,168.08v6.16h-6.58v18.62h-7.77
			v-18.62h-6.51v-6.16H224.98z"/>
		
			<radialGradient id="SVGID_00000116951411956078119200000008147182252972041360_" cx="230.9624" cy="180.4727" r="9.1817" gradientUnits="userSpaceOnUse">
			<stop  offset="0" style="stop-color:#27AAE1"/>
			<stop  offset="1" style="stop-color:#2B3990"/>
		</radialGradient>
		<path style="fill:url(#SVGID_00000116951411956078119200000008147182252972041360_);" d="M234.85,168.08v24.78h-7.77v-24.78
			H234.85z"/>
		
			<radialGradient id="SVGID_00000132785970926740467880000007117756804388253089_" cx="250.2295" cy="180.4727" r="12.139" gradientUnits="userSpaceOnUse">
			<stop  offset="0" style="stop-color:#27AAE1"/>
			<stop  offset="1" style="stop-color:#2B3990"/>
		</radialGradient>
		<path style="fill:url(#SVGID_00000132785970926740467880000007117756804388253089_);" d="M262.11,192.86h-7.77l-8.23-12.46v12.46
			h-7.77v-24.78h7.77l8.23,12.67v-12.67h7.77V192.86z"/>
		
			<radialGradient id="SVGID_00000137820543382223840730000010566768751644360587_" cx="277.0215" cy="180.4375" r="12.3575" gradientUnits="userSpaceOnUse">
			<stop  offset="0" style="stop-color:#27AAE1"/>
			<stop  offset="1" style="stop-color:#2B3990"/>
		</radialGradient>
		<path style="fill:url(#SVGID_00000137820543382223840730000010566768751644360587_);" d="M285.37,170.18
			c2.04,1.56,3.25,3.69,3.62,6.37h-8.19c-0.3-0.49-0.73-0.87-1.29-1.14s-1.24-0.4-2.03-0.4c-1.49,0-2.65,0.48-3.47,1.45
			c-0.82,0.97-1.23,2.29-1.23,3.97c0,1.94,0.46,3.38,1.37,4.34c0.91,0.96,2.31,1.43,4.2,1.43c1.8,0,3.24-0.72,4.34-2.17h-6.2v-5.5
			h12.64v7.77c-1.07,1.84-2.56,3.42-4.44,4.74c-1.89,1.32-4.28,1.98-7.18,1.98c-2.57,0-4.8-0.53-6.7-1.59
			c-1.9-1.06-3.36-2.55-4.38-4.46c-1.01-1.91-1.52-4.09-1.52-6.54s0.51-4.63,1.52-6.54c1.02-1.91,2.47-3.4,4.36-4.46
			c1.89-1.06,4.11-1.59,6.65-1.59C280.68,167.84,283.33,168.62,285.37,170.18z"/>
	</g>
</g>
</svg>
