<?xml version="1.0" encoding="utf-8"?>
<!-- Generator: Adobe Illustrator 27.8.1, SVG Export Plug-In . SVG Version: 6.00 Build 0)  -->
<svg version="1.1" id="Layer_1" xmlns="http://www.w3.org/2000/svg" xmlns:xlink="http://www.w3.org/1999/xlink" x="0px" y="0px"
	 viewBox="0 0 348 228" style="enable-background:new 0 0 348 228;" xml:space="preserve">
<style type="text/css">
	.st0{fill:#D6EADE;}
	.st1{fill:#03487C;}
	.st2{fill:#1B1B4C;}
	.st3{fill-rule:evenodd;clip-rule:evenodd;fill:#204F7A;}
	.st4{fill-rule:evenodd;clip-rule:evenodd;fill:#50A4FF;}
	.st5{fill:#002649;}
	.st6{fill:#E6E7E8;stroke:#CFCFCF;stroke-width:0.1061;}
	.st7{fill:#333333;}
	.st8{fill:#0F5998;}
	.st9{fill:#277FC1;}
	.st10{fill-rule:evenodd;clip-rule:evenodd;fill:#277FC1;}
	.st11{fill-rule:evenodd;clip-rule:evenodd;fill:#083D6D;}
	.st12{fill:#DDB462;}
	
		.st13{clip-path:url(#SVGID_00000183211982797541457180000000446876431077296567_);fill:url(#SVGID_00000092428382946139309980000008656619175548657078_);}
	.st14{fill:#FFFFFF;}
	.st15{fill:url(#SVGID_00000037689581713474512840000011786423167379093160_);}
	.st16{fill:#224685;}
	.st17{fill:none;}
	.st18{fill:#FFC73B;}
	.st19{fill:#11233F;}
	.st20{fill:#5267FF;}
	.st21{fill-rule:evenodd;clip-rule:evenodd;fill:#72342E;}
	.st22{fill:#72342E;}
	.st23{fill:#FFF2E2;}
	.st24{fill:#FFF2E2;stroke:#72342E;stroke-width:0.75;stroke-miterlimit:10;}
	.st25{fill:#FFCC99;}
	.st26{fill:#469CB2;}
	.st27{fill:url(#XMLID_00000118370459288579793980000013486165318162640002_);}
	.st28{fill:url(#XMLID_00000024693047570596373090000000737337744930539708_);}
	.st29{fill:url(#XMLID_00000021836823697448126160000005278572025907496360_);}
	.st30{fill:url(#XMLID_00000003791275145933993690000004589569019897192086_);}
	.st31{fill:url(#XMLID_00000148658327338410697840000008797335566908017288_);}
	.st32{fill:url(#XMLID_00000086657303559204701600000004368288427025379254_);}
	.st33{fill:url(#XMLID_00000101816557533625762940000014218173677396789384_);}
	.st34{fill:url(#XMLID_00000014595030633459985290000011308506101335899281_);}
	.st35{fill:url(#XMLID_00000027579048633542765810000016056276491323411077_);}
	.st36{fill:url(#XMLID_00000080202041772325967580000014387348498069838496_);}
	.st37{fill:url(#XMLID_00000114780777886842720630000001555150708228825008_);}
	.st38{fill:url(#XMLID_00000178904147776897617850000007688376512251361973_);}
	.st39{fill:url(#XMLID_00000083059040027891509660000011163168600201879956_);}
	.st40{fill:url(#XMLID_00000090998389929176025570000018213322875290272444_);}
	.st41{fill:url(#XMLID_00000175280229153833627190000012694352180756580262_);}
	.st42{fill:url(#SVGID_00000130624523110762130040000005030942704276051108_);}
	.st43{fill:url(#SVGID_00000002354008187382955700000008508851849550922911_);}
	.st44{fill:url(#SVGID_00000071559008504914603250000011947476847764593852_);}
	.st45{fill:url(#SVGID_00000127766231145376277010000014579509765885570471_);}
	.st46{fill:url(#SVGID_00000160907666121715159850000005490995883704030609_);}
	.st47{fill:url(#SVGID_00000110467542517374588080000003486742403665996221_);}
	.st48{fill:url(#SVGID_00000154405806389514126760000017148906415535832492_);}
	.st49{fill:url(#SVGID_00000015353808181544650170000014097813792792102038_);}
	.st50{fill:url(#SVGID_00000016756329809013657070000009441102199906150066_);}
	.st51{fill:url(#SVGID_00000062880072763418227490000016291870055085476231_);}
	.st52{fill:url(#SVGID_00000101090012316131018240000015896641084696217744_);}
	.st53{fill:url(#SVGID_00000000941766978126110840000017265148788079667079_);}
	.st54{fill:url(#SVGID_00000085227427906156767990000007496017098094719913_);}
	.st55{fill:url(#SVGID_00000029012566852204900610000006146991933071631245_);}
	.st56{fill:#30325E;}
	.st57{fill:#FF7859;}
	.st58{fill:#FFD550;}
	.st59{fill:#00C3AD;}
	.st60{fill:#FF4653;}
	.st61{fill:#D8CE19;}
	.st62{fill:#C1E5DE;}
	.st63{fill:#FFE4D2;}
	.st64{fill:#DFF4F0;}
	.st65{fill:#A2E0EB;}
	.st66{fill:#1B3493;}
	.st67{fill:none;stroke:#FFFFFF;stroke-width:2;stroke-linecap:round;stroke-linejoin:round;stroke-miterlimit:10;}
	.st68{fill:#F15A24;}
	.st69{fill:#F7931E;}
	.st70{fill:#58595B;}
	.st71{fill:#114E15;}
	.st72{fill:#013D01;}
	.st73{fill:#E9C608;}
	.st74{fill:#043B00;}
	.st75{fill:#D8A43E;}
	.st76{clip-path:url(#SVGID_00000137838523497660191240000003390564448030003114_);}
	.st77{fill:#F49630;}
	.st78{clip-path:url(#SVGID_00000005258387122052312830000011104742581419904185_);}
	.st79{clip-path:url(#SVGID_00000016755067040629861220000014160790536163898545_);}
	.st80{clip-path:url(#SVGID_00000016068218696828166590000016749337246177924772_);}
	.st81{clip-path:url(#SVGID_00000169555856842776378160000000714809795563454612_);}
	.st82{fill-rule:evenodd;clip-rule:evenodd;fill:#FF6600;}
	.st83{fill-rule:evenodd;clip-rule:evenodd;fill:#05174F;}
	.st84{fill:#05174F;}
	.st85{opacity:0.42;fill:url(#SVGID_00000064329851169211819980000007933234734422143120_);enable-background:new    ;}
	.st86{opacity:0.42;fill:url(#SVGID_00000000943583073563523670000014792511817619958957_);enable-background:new    ;}
	.st87{fill:url(#SVGID_00000157268916650936885960000012334804224151523206_);}
	.st88{fill:url(#SVGID_00000130635986533128504450000009953852772760935299_);}
	.st89{opacity:0.64;fill:url(#SVGID_00000075855289390947998180000011503079290080588205_);enable-background:new    ;}
	.st90{opacity:0.75;fill:url(#SVGID_00000092455594085454888340000003288828989913935754_);enable-background:new    ;}
	.st91{fill:url(#SVGID_00000039845024055243563930000015277536834903760803_);}
	.st92{fill:url(#SVGID_00000030479135199349189440000012854531278925517234_);}
	.st93{opacity:0.76;fill:url(#SVGID_00000173154740086382105350000016134706974450407847_);enable-background:new    ;}
	.st94{opacity:0.75;fill:url(#SVGID_00000120546671902656986030000001395943038349684103_);enable-background:new    ;}
	.st95{fill:url(#SVGID_00000002367381195995743380000002272051176640234647_);}
	.st96{opacity:0.42;fill:url(#SVGID_00000129194236118258158400000006007753987941322423_);enable-background:new    ;}
	.st97{opacity:0.42;fill:url(#SVGID_00000076565520278431399800000002038370027090363291_);enable-background:new    ;}
	.st98{clip-path:url(#SVGID_00000069380616557708709830000016022307135158175889_);}
	.st99{fill:#1ED7FE;}
	.st100{clip-path:url(#SVGID_00000121267594620984182390000012261642926366555830_);}
	.st101{clip-path:url(#SVGID_00000046312870071779168710000010170725263603204740_);}
	.st102{fill:#000056;}
	.st103{clip-path:url(#SVGID_00000114758125316791068300000007012461678134846862_);}
	.st104{enable-background:new    ;}
	.st105{fill:#053272;}
	.st106{fill:none;stroke:#053272;stroke-width:4;stroke-miterlimit:10;}
	.st107{fill:url(#SVGID_00000141439206361183635140000003470603329215929992_);}
	.st108{fill:url(#SVGID_00000032637864985727623590000016893566082673807770_);}
	.st109{fill:url(#SVGID_00000157302010865649791800000010487901294614555309_);}
	.st110{fill:url(#SVGID_00000111881341212381158490000016527491511609495207_);}
	.st111{fill:url(#SVGID_00000178905672197121076050000001561992043768147347_);}
	.st112{fill:url(#SVGID_00000132798699424391947510000008317290489602929558_);}
	.st113{fill:url(#SVGID_00000037672040299029417600000005672477988127587729_);}
	.st114{fill:url(#SVGID_00000044861770971161926340000003002701309740256958_);}
	.st115{fill:url(#SVGID_00000030482257208134961620000016182966041953848204_);}
	.st116{fill:url(#SVGID_00000165957280310677442590000014321671493196911793_);}
	.st117{fill:url(#SVGID_00000133501814164521063420000005184573153788018602_);}
	.st118{fill:url(#SVGID_00000181798993714403783350000017518805384247115140_);}
	.st119{fill:url(#SVGID_00000133514594701891972500000007232756565006711989_);}
	.st120{fill:url(#SVGID_00000133519002204625290860000009822264340011644077_);}
	.st121{fill:url(#SVGID_00000148630662843462940030000006135313020227088514_);}
	.st122{fill:url(#SVGID_00000030475584730835491420000010577717377493615763_);}
	.st123{fill:url(#SVGID_00000083055891686223516030000012363379004528412317_);}
	.st124{fill:url(#SVGID_00000131358117068460106660000014827290342046737342_);}
	.st125{fill:url(#SVGID_00000082359021541466180140000016386150867744488065_);}
	.st126{fill:url(#SVGID_00000087408567000893654840000014062908639929602472_);}
	.st127{fill:url(#SVGID_00000016795947517303240340000015399574960378054066_);}
	.st128{fill:url(#SVGID_00000032615648565650097500000004025162901734099603_);}
	.st129{fill:url(#SVGID_00000010287542050569613410000008449849590107740821_);}
	.st130{fill:url(#SVGID_00000168108529181073786350000014027553950102623163_);}
	.st131{fill:url(#SVGID_00000170263353017786642890000007159394845626755985_);}
	.st132{fill:url(#SVGID_00000051349883908911252850000003981561419437129387_);}
	.st133{fill:url(#SVGID_00000016776460574121826620000007762365812443623074_);}
	.st134{fill:url(#SVGID_00000096030747540910980690000017297612485327097535_);}
	.st135{fill:url(#SVGID_00000175304559892470361630000004063787870795155879_);}
	.st136{fill:none;stroke:#FEF73D;stroke-linecap:round;stroke-miterlimit:10;}
	.st137{fill:none;stroke:#FF189C;stroke-miterlimit:10;}
	.st138{fill:none;stroke:#00EFF1;stroke-linecap:round;stroke-miterlimit:10;}
	.st139{fill:#00EFF1;}
	.st140{fill:#FFA022;}
	.st141{fill:#0C103A;}
	.st142{fill-rule:evenodd;clip-rule:evenodd;fill:#5D9541;}
	.st143{fill-rule:evenodd;clip-rule:evenodd;fill:#F06021;}
	.st144{fill-rule:evenodd;clip-rule:evenodd;fill:#69BC60;}
	.st145{fill-rule:evenodd;clip-rule:evenodd;fill:#F6951C;}
	.st146{fill:#F6951C;}
	.st147{fill:url(#SVGID_00000116210590751781623420000013474656531517047979_);}
	.st148{fill:url(#SVGID_00000168090989710695922670000004644001555510448279_);}
	.st149{fill:url(#SVGID_00000180331027004342400610000006597764797223317690_);}
	.st150{fill:url(#SVGID_00000129190814132658144070000003435974913645552271_);}
	.st151{fill:url(#SVGID_00000167385976766942110180000015349438258409573815_);}
	.st152{fill:url(#SVGID_00000060709470841667361900000016291588646403129253_);}
	.st153{fill:url(#SVGID_00000139252854722645214350000009050092465694082744_);}
	.st154{fill:url(#SVGID_00000082360017335619460950000011200774812651141268_);}
	.st155{fill:url(#SVGID_00000114780386170442565870000000622405260157954210_);}
	.st156{fill:url(#SVGID_00000049213578510517993010000011748742694775791783_);}
	.st157{fill:url(#SVGID_00000072988152527366630940000005015959430284477353_);}
	.st158{fill:url(#SVGID_00000039842625915238357430000012033644566141607818_);}
	.st159{fill:url(#SVGID_00000113342697357585007130000001271268391111411115_);}
	.st160{fill:url(#SVGID_00000035490178931150548570000000023283185036457141_);}
	.st161{fill:url(#SVGID_00000139263396841660725990000012087297743505001876_);}
	.st162{fill:url(#SVGID_00000076591703380246495410000007228106330906737578_);}
	.st163{fill:url(#SVGID_00000036227677183039482500000016349119895070121630_);}
	.st164{fill:url(#SVGID_00000000911140115353497120000002123789000577077668_);}
	.st165{fill:url(#SVGID_00000059277237135456838820000009994716635230144398_);}
	.st166{fill:url(#SVGID_00000037687899054040025410000016345284186102486430_);}
	.st167{fill:url(#SVGID_00000122701223638462532670000012184185409982477719_);}
	.st168{fill:url(#SVGID_00000160163334805394660620000005474530271402756782_);}
	.st169{fill-rule:evenodd;clip-rule:evenodd;fill:#512100;}
	.st170{fill-rule:evenodd;clip-rule:evenodd;fill:#006D62;}
	.st171{fill-rule:evenodd;clip-rule:evenodd;}
	.st172{fill-rule:evenodd;clip-rule:evenodd;fill:#00A1F5;}
	.st173{fill-rule:evenodd;clip-rule:evenodd;fill:#FACFAB;}
	.st174{fill-rule:evenodd;clip-rule:evenodd;fill:#F29673;}
	.st175{fill-rule:evenodd;clip-rule:evenodd;fill:#FFFFFF;}
	.st176{fill-rule:evenodd;clip-rule:evenodd;fill:#333333;}
	.st177{fill-rule:evenodd;clip-rule:evenodd;fill:#BD4D00;}
	.st178{fill-rule:evenodd;clip-rule:evenodd;fill:#B2B2B2;}
	.st179{fill-rule:evenodd;clip-rule:evenodd;fill:#F2CC29;}
	.st180{fill-rule:evenodd;clip-rule:evenodd;fill:#005C9C;}
	.st181{fill-rule:evenodd;clip-rule:evenodd;fill:#8AC900;}
	.st182{fill-rule:evenodd;clip-rule:evenodd;fill:#808080;}
	.st183{fill-rule:evenodd;clip-rule:evenodd;fill:#CFA605;}
	.st184{fill-rule:evenodd;clip-rule:evenodd;fill:#666666;}
	.st185{fill-rule:evenodd;clip-rule:evenodd;fill:#CCCCCC;}
	.st186{fill:#960000;}
	.st187{fill:url(#SVGID_00000124148383461843750260000000868787831455079321_);}
	.st188{fill:url(#SVGID_00000009566444807084726850000007758342237673155004_);}
	.st189{opacity:0.51;fill:url(#SVGID_00000014613651198614356280000010666245047766393527_);}
	.st190{fill:url(#SVGID_00000160869198345636427540000018405853167089195911_);}
	.st191{fill:url(#SVGID_00000056419478978841687710000013859476466457261193_);}
	.st192{fill:url(#SVGID_00000183209211395252723640000000149905697580801717_);}
	.st193{opacity:0.35;fill:url(#SVGID_00000056399938601543131760000013528444026389821105_);}
	.st194{opacity:0.35;fill:url(#SVGID_00000012433076482931597680000006801096403608315297_);}
	.st195{fill:#F06021;}
	.st196{fill-rule:evenodd;clip-rule:evenodd;fill:url(#SVGID_00000142167654892699951690000017156035948385578632_);}
	.st197{fill-rule:evenodd;clip-rule:evenodd;fill:url(#SVGID_00000054951065467722511250000015266792949386984836_);}
	.st198{fill-rule:evenodd;clip-rule:evenodd;fill:url(#SVGID_00000176037457428489899830000014474043794435729055_);}
	.st199{fill-rule:evenodd;clip-rule:evenodd;fill:url(#SVGID_00000052795370414008213840000017711326378564335009_);}
	.st200{fill-rule:evenodd;clip-rule:evenodd;fill:url(#SVGID_00000039109254898188576760000004849815248136088985_);}
	.st201{fill-rule:evenodd;clip-rule:evenodd;fill:url(#SVGID_00000029042877443038811000000010728327715984062391_);}
	.st202{fill-rule:evenodd;clip-rule:evenodd;fill:url(#SVGID_00000173161864627843919560000000852927387950664333_);}
	.st203{fill-rule:evenodd;clip-rule:evenodd;fill:url(#SVGID_00000081637621358844155260000018364223786224734095_);}
	.st204{fill-rule:evenodd;clip-rule:evenodd;fill:url(#SVGID_00000162324088514232970280000001114282356189522341_);}
	.st205{fill-rule:evenodd;clip-rule:evenodd;fill:url(#SVGID_00000152981727671253971800000005001351595975655332_);}
	.st206{fill-rule:evenodd;clip-rule:evenodd;fill:url(#SVGID_00000181788802518449137080000009736797449663563936_);}
	.st207{fill-rule:evenodd;clip-rule:evenodd;fill:url(#SVGID_00000008849920552316523710000009748140386149814950_);}
	.st208{fill-rule:evenodd;clip-rule:evenodd;fill:url(#SVGID_00000169550227227325641180000001080223160497789353_);}
	.st209{opacity:0.5;fill-rule:evenodd;clip-rule:evenodd;fill:#5D0101;enable-background:new    ;}
	.st210{fill:#E11B22;}
	.st211{fill:#959595;}
	.st212{fill:#003359;}
	.st213{fill:#1779C1;}
	.st214{fill:#0EB17C;}
	.st215{fill:#2B2353;}
	.st216{fill:#BE264E;}
	.st217{fill:#EAA41C;}
	.st218{fill:#1F9EF3;}
	.st219{fill:#0267A3;}
	.st220{fill:#FFEC00;}
	.st221{fill:#00A0E0;}
	.st222{fill:#E3007E;}
	.st223{fill:none;stroke:#000000;stroke-width:2;stroke-miterlimit:10;}
	.st224{fill:#FF9E80;}
	.st225{fill:#414151;}
	.st226{fill:#2B295E;}
	.st227{fill:#CCCCCC;}
	.st228{fill:#FF8C5C;}
	.st229{fill:#DBA21C;}
	.st230{fill:#EDDBB2;}
	.st231{fill:#DEC58B;}
	.st232{fill:#997113;}
	.st233{fill:#B88817;}
	.st234{fill:#003400;stroke:#8EC13D;stroke-width:4;stroke-miterlimit:10;}
	.st235{fill:#8EC13D;}
	.st236{fill:url(#XMLID_00000130643737072373053960000010426926201905123229_);}
	.st237{fill:url(#SVGID_00000020357184692708627090000010158664449750261942_);}
	.st238{fill:url(#SVGID_00000107573061506914879620000017277032085288478896_);}
	.st239{fill:url(#SVGID_00000085229724871859425010000012024039982130492072_);}
	.st240{fill:url(#SVGID_00000171710526363043999700000011129343487589461138_);}
	.st241{fill:url(#SVGID_00000128457018600243523910000007773076288535040166_);}
	.st242{fill:url(#SVGID_00000101068147966371013210000014732164468098055335_);}
	.st243{fill:url(#SVGID_00000030468568818156796320000000657924590137160598_);}
	.st244{fill:url(#SVGID_00000049922666992419039620000001929322983070273961_);}
	.st245{fill:url(#SVGID_00000073699459984432621920000008034554901503773874_);}
	.st246{fill:url(#SVGID_00000044165595500669251550000001395290516818278284_);}
	.st247{fill:url(#SVGID_00000080180799916484459150000010093107279238071698_);}
	.st248{fill:#1C75BC;}
	.st249{fill:#46920C;}
	.st250{fill:#FF9400;}
	.st251{fill:url(#SVGID_00000035489220874697165340000012111779616898976181_);}
	.st252{fill:url(#SVGID_00000000208707896287751350000007198927148250343103_);}
	.st253{fill:url(#SVGID_00000052079927957659748910000011977233737738814889_);}
	.st254{fill:url(#SVGID_00000001631770871985117540000013930793675018799771_);}
	.st255{fill:url(#SVGID_00000023984057945532868260000005974541870875854747_);}
	.st256{fill:url(#SVGID_00000068642126623973253630000010979133833889452450_);}
	.st257{fill:url(#SVGID_00000005979067336947780070000014733190252301140639_);}
	.st258{fill:url(#SVGID_00000064336614793661829300000001865793062462840192_);}
	.st259{fill:url(#SVGID_00000114068425530178176010000012662695654308177316_);}
	.st260{fill:url(#SVGID_00000034077538501287356920000005922764044563394234_);}
	.st261{fill:url(#SVGID_00000146466249977337723920000017708284788257319357_);}
	.st262{fill:url(#SVGID_00000055693752290676366820000004699814914182232236_);}
	.st263{fill:url(#SVGID_00000038389867507128038680000002249353144229657767_);}
	.st264{fill:url(#SVGID_00000145050245449625748630000011362534009595495815_);}
	.st265{fill:url(#SVGID_00000007404989153059696440000001717646756563798685_);}
	.st266{fill:url(#SVGID_00000180359349357132479450000011808421296931603387_);}
	.st267{fill:url(#SVGID_00000150787234186437541980000006719402656759221131_);}
	.st268{fill:url(#SVGID_00000078758249590745583980000014329633359976029600_);}
	.st269{fill:url(#SVGID_00000018920562211145999440000006809568203992583606_);}
	.st270{fill:#2F3F67;}
	.st271{fill:#C97F32;}
	.st272{fill:none;stroke:#C97F32;stroke-width:1.2891;stroke-miterlimit:10;}
	.st273{fill:url(#XMLID_00000011732883352811154180000015587002615483914384_);}
	.st274{fill:#00548B;}
	.st275{fill:#004368;}
	.st276{fill:#94070A;}
	.st277{fill:url(#XMLID_00000018228256820749383300000012964541019529068960_);}
	.st278{fill:url(#XMLID_00000061447828644649522940000002605907260698274970_);}
	.st279{fill:#B34A06;}
	.st280{fill:#A2B5C4;}
	.st281{fill:#192940;}
	.st282{fill:url(#SVGID_00000081630530969227641300000012703072143780840320_);}
	.st283{fill:url(#SVGID_00000068656355041296588540000016659817350158173863_);}
	.st284{fill:url(#SVGID_00000053533481756290884170000012073208332109411219_);}
	.st285{opacity:0.93;fill:url(#SVGID_00000183971659535267954930000018401737801558029754_);}
	.st286{opacity:0.93;fill:url(#SVGID_00000087408256386007526030000005430248742549826198_);}
	.st287{opacity:0.93;fill:url(#SVGID_00000091699020495243778940000005223587290433839248_);}
	.st288{opacity:0.93;fill:url(#SVGID_00000023971886799085381360000013046826906281337481_);}
	.st289{fill:url(#SVGID_00000111891611760982816270000008997238173076398471_);}
	.st290{stroke:#000000;stroke-width:0.75;stroke-miterlimit:10;}
</style>
<g>
	<g>
		<g>
			
				<linearGradient id="SVGID_00000146495897970115198550000004426138054766148254_" gradientUnits="userSpaceOnUse" x1="144.1933" y1="30.7355" x2="214.4622" y2="133.6877">
				<stop  offset="0" style="stop-color:#FF3C4B"/>
				<stop  offset="1" style="stop-color:#DF0028"/>
			</linearGradient>
			<path style="fill:url(#SVGID_00000146495897970115198550000004426138054766148254_);" d="M225.71,39.01
				c-0.67-0.53-1.39-1.02-2.13-1.51c-11.63-7.43-31.09-8.54-45.88,2.5c-5.53,4.13-10.27,9.65-13.81,14.45
				c-0.01,0.01-0.01,0.01-0.01,0.01c-5.37-5.83-11.22-9.85-17.28-11.89c-2.91-1-5.87-1.52-8.85-1.57
				c-9.4-0.15-18.18,4.73-24.03,13.32c-3.2,4.71-7.11,12.79-6.5,23.75c0.32,6.04,2.02,12.95,5.98,20.64
				c4.84,9.37,11.12,17.9,17.56,25.73c1.13,1.39,2.27,2.74,3.41,4.08c2.19,2.59,4.42,5.05,6.5,7.52
				c18.85,22.44,21.83,33.1,21.83,33.1l8.34-6.46c0.8-0.62,10.7-8.31,22.51-19.03c11.82-10.72,25.56-24.48,34.06-37.21
				C245.89,78.77,245.27,54.19,225.71,39.01z M222.95,78.87c-0.16,0.52-0.32,1-0.47,1.45c-0.07,0.21-0.14,0.42-0.22,0.64
				c-0.58,1.65-1.02,2.71-1.19,3.07c-1.75,4.14-4.2,8.57-7.34,13.28c-11.26,16.88-33.91,36.71-45.61,46.42
				c-4.03-5.86-9.26-11.88-15.02-18.49c-2.39-2.73-4.86-5.57-7.32-8.5c-0.15-0.18-0.29-0.35-0.44-0.53
				c-6.51-7.74-12.91-16.14-17.49-25.02c-6.86-13.33-4.06-22.36-0.51-27.58c1.91-2.8,5.18-6.12,10.03-6.12c0.09,0,0.15,0,0.15,0
				c5.4,0.08,11.46,4.2,17.04,11.46c1,1.31,1.99,2.73,2.97,4.24l7.58,11.83l6.61-12.4c0.87-1.62,2.74-4.72,5.24-8.13
				c2.87-3.94,6.59-8.3,10.58-11.27c8.5-6.34,19.55-5.65,25.73-2.61c0.88,0.42,1.67,0.91,2.33,1.42
				C223.93,58.47,226.37,67.46,222.95,78.87z"/>
		</g>
		
			<linearGradient id="SVGID_00000023984404908623360560000006388106565430731411_" gradientUnits="userSpaceOnUse" x1="173.5992" y1="138.1247" x2="173.5992" y2="86.4838">
			<stop  offset="0" style="stop-color:#FFFFFF"/>
			<stop  offset="0.9964" style="stop-color:#FFFFFF;stop-opacity:0"/>
		</linearGradient>
		<path style="fill:url(#SVGID_00000023984404908623360560000006388106565430731411_);" d="M217.52,85.16
			c-0.15,0.5-0.29,0.96-0.42,1.38c-0.06,0.2-0.13,0.41-0.2,0.61c-0.52,1.58-0.92,2.59-1.07,2.94c-1.57,3.96-3.77,8.2-6.6,12.7
			c-10.31,16.4-31.48,36-41.95,45.25c-3.16-6.2-7.32-12.21-12.49-18.54c-2.15-2.61-4.37-5.32-6.57-8.13
			c-0.14-0.17-0.26-0.34-0.39-0.51c-5.84-7.41-11.59-15.43-15.71-23.93c-6.16-12.75-3.65-21.38-0.45-26.37
			c1.71-2.68,4.65-5.85,9.01-5.85c0.08,0,0.14,0,0.14,0c4.85,0.08,10.29,4.02,15.3,10.96c0.9,1.25,1.79,2.61,2.66,4.05l6.81,11.31
			l5.94-11.86c0.78-1.55,2.46-4.51,4.7-7.78c2.58-3.77,5.92-7.93,9.5-10.78c7.63-6.07,17.56-5.4,23.1-2.5
			c0.79,0.41,1.5,0.87,2.09,1.36C218.39,65.66,220.58,74.26,217.52,85.16z"/>
		
			<linearGradient id="SVGID_00000137095724831678704220000003436784310436342444_" gradientUnits="userSpaceOnUse" x1="174.0483" y1="100.4387" x2="174.0483" y2="135.6852">
			<stop  offset="0" style="stop-color:#DF0028"/>
			<stop  offset="1" style="stop-color:#FF3C4B"/>
		</linearGradient>
		<path style="fill:url(#SVGID_00000137095724831678704220000003436784310436342444_);" d="M222.95,78.87
			c-0.16,0.52-0.32,1-0.47,1.45c-0.07,0.21-0.14,0.42-0.22,0.64c-0.58,1.65-1.02,2.71-1.19,3.07c-1.75,4.14-4.2,8.57-7.34,13.28
			c-11.26,16.88-33.91,36.71-45.61,46.42c-4.03-5.86-9.26-11.88-15.02-18.49c-2.39-2.73-4.86-5.57-7.32-8.5
			c-0.15-0.18-0.29-0.35-0.44-0.53c-6.51-7.74-12.91-16.14-17.49-25.02c-6.86-13.33-4.06-22.36-0.51-27.58
			c1.91-2.8,5.18-6.12,10.03-6.12c0.09,0,0.15,0,0.15,0c5.4,0.08,11.46,4.2,17.04,11.46c1,1.31,1.99,2.73,2.97,4.24l7.58,11.83
			l6.61-12.4c0.87-1.62,2.74-4.72,5.24-8.13c2.87-3.94,6.59-8.3,10.58-11.27c8.5-6.34,19.55-5.65,25.73-2.61
			c0.88,0.42,1.67,0.91,2.33,1.42C223.93,58.47,226.37,67.46,222.95,78.87z"/>
		
			<radialGradient id="SVGID_00000066487560164443222500000013889835225621604020_" cx="166.694" cy="125.0983" r="72.7934" gradientTransform="matrix(1 0 0 0.6097 0 48.8237)" gradientUnits="userSpaceOnUse">
			<stop  offset="0.1498" style="stop-color:#FFFFFF;stop-opacity:0"/>
			<stop  offset="0.7202" style="stop-color:#BF7061"/>
		</radialGradient>
		<path style="opacity:0.93;fill:url(#SVGID_00000066487560164443222500000013889835225621604020_);" d="M222.95,78.87
			c-0.16,0.52-0.32,1-0.47,1.45c-0.07,0.21-0.14,0.42-0.22,0.64c-0.58,1.65-1.02,2.71-1.19,3.07c-1.75,4.14-4.2,8.57-7.34,13.28
			c-11.26,16.88-33.91,36.71-45.61,46.42c-4.03-5.86-9.26-11.88-15.02-18.49c-2.39-2.73-4.86-5.57-7.32-8.5
			c-0.15-0.18-0.29-0.35-0.44-0.53c-6.51-7.74-12.91-16.14-17.49-25.02c-6.86-13.33-4.06-22.36-0.51-27.58
			c1.91-2.8,5.18-6.12,10.03-6.12c0.09,0,0.15,0,0.15,0c5.4,0.08,11.46,4.2,17.04,11.46c1,1.31,1.99,2.73,2.97,4.24l7.58,11.83
			l6.61-12.4c0.87-1.62,2.74-4.72,5.24-8.13c2.87-3.94,6.59-8.3,10.58-11.27c8.5-6.34,19.55-5.65,25.73-2.61
			c0.88,0.42,1.67,0.91,2.33,1.42C223.93,58.47,226.37,67.46,222.95,78.87z"/>
		
			<linearGradient id="SVGID_00000080181145051529771170000017645720108750500225_" gradientUnits="userSpaceOnUse" x1="186.3019" y1="40.0463" x2="214.9406" y2="62.9224">
			<stop  offset="0" style="stop-color:#FFFFFF;stop-opacity:0"/>
			<stop  offset="1" style="stop-color:#BF7061"/>
		</linearGradient>
		<path style="opacity:0.93;fill:url(#SVGID_00000080181145051529771170000017645720108750500225_);" d="M222.95,78.87
			c3.41-11.4,0.98-20.4-7.34-26.86c-5.31-4.12-18.35-6.06-28.06,1.19c-3.99,2.98-7.71,7.33-10.58,11.27l-13.09-10.02
			c3.53-4.8,8.29-10.33,13.82-14.46c14.78-11.04,34.25-9.92,45.88-2.5C232.99,47.19,225.47,70.88,222.95,78.87z"/>
		
			<linearGradient id="SVGID_00000136378115389719426390000015048774122097874070_" gradientUnits="userSpaceOnUse" x1="127.1354" y1="105.5198" x2="124.1914" y2="68.1536">
			<stop  offset="0" style="stop-color:#FFFFFF;stop-opacity:0"/>
			<stop  offset="1" style="stop-color:#BF7061"/>
		</linearGradient>
		<path style="opacity:0.93;fill:url(#SVGID_00000136378115389719426390000015048774122097874070_);" d="M145.78,116.73l-11.6,11.8
			c-7.58-8.92-15.29-18.78-20.97-29.81c-3.95-7.7-5.66-14.61-5.98-20.64c8.5-20.63,28.19-20.66,30.15-20.6
			c-4.85,0-8.12,3.32-10.03,6.12c-3.55,5.21-6.36,14.24,0.51,27.58C132.54,100.26,139.13,108.83,145.78,116.73z"/>
		
			<linearGradient id="SVGID_00000066501328062753609860000008499319597228856476_" gradientUnits="userSpaceOnUse" x1="183.7175" y1="54.5279" x2="183.3504" y2="45.2778">
			<stop  offset="0" style="stop-color:#FFFFFF;stop-opacity:0"/>
			<stop  offset="0.1768" style="stop-color:#F2E2DE;stop-opacity:0.1768"/>
			<stop  offset="0.5696" style="stop-color:#D7A59B;stop-opacity:0.5696"/>
			<stop  offset="0.8545" style="stop-color:#C67F71;stop-opacity:0.8545"/>
			<stop  offset="1" style="stop-color:#BF7061"/>
		</linearGradient>
		<path style="opacity:0.93;fill:url(#SVGID_00000066501328062753609860000008499319597228856476_);" d="M213.28,50.59
			c-6.18-3.04-17.23-3.73-25.73,2.61c-3.99,2.98-7.71,7.33-10.58,11.27c-2.5,3.41-4.37,6.51-5.24,8.13l-6.61,12.4l-7.58-11.83
			c-0.98-1.51-1.97-2.93-2.97-4.24l9.31-14.49c0,0,0,0,0.01-0.01C171.5,42.99,198.14,40.48,213.28,50.59z"/>
		<path class="st14" d="M195.95,47.36c-15.87,1.57-29.11,14.26-30.31,28.44c-1.21,14.2,10.02,25.61,25.81,25.46
			c2.78-0.03,6.85-0.48,9.49-1.17c2.96,2.62,11.47,4.85,16.85,4.26c0,0-3.48-5.87-2.82-8.97c4.62-6.31,8.97-14.34,9.66-22.8
			C225.92,56.95,212.69,45.7,195.95,47.36z"/>
		<g>
			<path class="st14" d="M117.77,76.65c1.06,12.19,13.69,22.2,27.5,22.33c13.08,0.12,22.39-8.76,21.39-19.82
				c-1-11.04-11.97-20.93-25.12-22.15C127.67,55.72,116.71,64.48,117.77,76.65z"/>
			<path class="st14" d="M140.62,96.2c0,0-6.5,5.96-14.12,5.47c0,0,3.42-4.73,1.03-11.84L140.62,96.2z"/>
		</g>
		
			<linearGradient id="SVGID_00000101099968713583549410000003240982884424193719_" gradientUnits="userSpaceOnUse" x1="156.7298" y1="97.5302" x2="180.7613" y2="55.9065">
			<stop  offset="0" style="stop-color:#DF0028"/>
			<stop  offset="1" style="stop-color:#FF3C4B"/>
		</linearGradient>
		<path style="fill:url(#SVGID_00000101099968713583549410000003240982884424193719_);" d="M187.05,75.51
			c0,2.06-1.67,3.73-3.73,3.73c-2.06,0-3.73-1.67-3.73-3.73c0-2.06,1.67-3.73,3.73-3.73C185.37,71.77,187.05,73.44,187.05,75.51z
			 M195.27,71.77c-2.06,0-3.73,1.67-3.73,3.73c0,2.06,1.67,3.73,3.73,3.73c2.06,0,3.73-1.67,3.73-3.73
			C199.01,73.44,197.34,71.77,195.27,71.77z M207.24,71.77c-2.06,0-3.73,1.67-3.73,3.73c0,2.06,1.67,3.73,3.73,3.73
			c2.06,0,3.73-1.67,3.73-3.73C210.97,73.44,209.3,71.77,207.24,71.77z M130.25,74.2c-2.06,0-3.73,1.67-3.73,3.73
			c0,2.06,1.67,3.73,3.73,3.73c2.06,0,3.73-1.67,3.73-3.73C133.99,75.87,132.32,74.2,130.25,74.2z M142.22,74.2
			c-2.06,0-3.73,1.67-3.73,3.73c0,2.06,1.67,3.73,3.73,3.73c2.06,0,3.73-1.67,3.73-3.73C145.95,75.87,144.28,74.2,142.22,74.2z
			 M154.18,74.2c-2.06,0-3.73,1.67-3.73,3.73c0,2.06,1.67,3.73,3.73,3.73c2.06,0,3.73-1.67,3.73-3.73
			C157.91,75.87,156.24,74.2,154.18,74.2z"/>
	</g>
	<g>
		<path class="st290" d="M59.29,181.92c0-0.27,0.09-0.49,0.27-0.67s0.4-0.27,0.65-0.27h2.96V181c1.03,0,2,0.2,2.91,0.59
			c0.91,0.39,1.7,0.92,2.38,1.59c0.68,0.67,1.22,1.46,1.61,2.37c0.39,0.91,0.59,1.88,0.59,2.91c0,1.03-0.2,2.01-0.59,2.91
			c-0.39,0.91-0.93,1.7-1.61,2.37c-0.68,0.67-1.47,1.2-2.38,1.59c-0.91,0.39-1.88,0.59-2.91,0.59H60.2c-0.25,0-0.46-0.09-0.65-0.27
			c-0.18-0.18-0.27-0.4-0.27-0.65V181.92z M63.16,195.3c0.76,0,1.49-0.18,2.18-0.53c0.69-0.35,1.29-0.84,1.79-1.46
			c0.51-0.62,0.91-1.34,1.21-2.17c0.3-0.82,0.44-1.71,0.44-2.67c0-0.94-0.15-1.83-0.44-2.67c-0.3-0.84-0.7-1.57-1.21-2.18
			c-0.51-0.61-1.1-1.1-1.79-1.46c-0.69-0.36-1.42-0.55-2.18-0.55h-2.01v0.32v13.09v0.29H63.16z"/>
		<path class="st290" d="M77.86,181.63l4.74,13.04l0.03,0.03c0.02,0.06,0.03,0.16,0.03,0.32c0,0.25-0.09,0.46-0.26,0.65
			c-0.17,0.18-0.39,0.27-0.66,0.27c-0.21,0-0.4-0.06-0.56-0.17c-0.16-0.11-0.27-0.27-0.33-0.46l-1.61-4.42h-5.89l-1.75,4.85
			c-0.04,0.13-0.13,0.2-0.29,0.2c-0.21,0-0.32-0.11-0.32-0.32c0-0.04,0.01-0.07,0.03-0.09v-0.03l5.05-13.81
			c0.04-0.21,0.14-0.38,0.32-0.52c0.17-0.13,0.36-0.2,0.57-0.2c0.21,0,0.39,0.06,0.55,0.19c0.15,0.12,0.27,0.27,0.34,0.45V181.63z
			 M76.31,182.84l-2.73,7.44h5.43L76.31,182.84z"/>
		<path class="st290" d="M85.67,181.6h-4.19c-0.21,0-0.32-0.11-0.32-0.32s0.11-0.32,0.32-0.32h4.19h1.87h4.19h0.03
			c0.21,0,0.32,0.11,0.32,0.32s-0.11,0.32-0.32,0.32h-0.03h-4.19v13.41c0,0.25-0.09,0.46-0.26,0.65c-0.17,0.18-0.39,0.27-0.66,0.27
			c-0.27,0-0.49-0.09-0.67-0.27c-0.18-0.18-0.27-0.4-0.27-0.65V181.6z"/>
		<path class="st290" d="M93.95,181.24c0.18-0.18,0.4-0.27,0.65-0.27c0.27,0,0.49,0.09,0.68,0.27s0.27,0.41,0.27,0.67v13.09
			c0,0.25-0.09,0.46-0.27,0.65c-0.18,0.18-0.41,0.27-0.68,0.27c-0.25,0-0.46-0.09-0.65-0.27c-0.18-0.18-0.27-0.4-0.27-0.65v-13.09
			C93.68,181.65,93.77,181.43,93.95,181.24z"/>
		<path class="st290" d="M98.22,183.1v12.52c0,0.21-0.11,0.32-0.32,0.32c-0.21,0-0.32-0.11-0.32-0.32v-13.67
			c0-0.38,0.15-0.66,0.46-0.83c0.21-0.13,0.44-0.17,0.68-0.11c0.24,0.06,0.44,0.19,0.59,0.4l8.7,12.4v-12.52
			c0-0.21,0.1-0.32,0.29-0.32c0.21,0,0.32,0.11,0.32,0.32v0.03v13.67v0.06c0,0.33-0.15,0.58-0.46,0.78
			c-0.21,0.11-0.44,0.14-0.69,0.09c-0.25-0.06-0.44-0.19-0.57-0.4L98.22,183.1z"/>
		<path class="st290" d="M122.16,188.42c0.19-0.18,0.42-0.27,0.69-0.27c0.27,0,0.49,0.09,0.67,0.27c0.18,0.18,0.27,0.41,0.27,0.67
			v4.82c-0.71,0.71-1.53,1.26-2.46,1.67c-0.93,0.4-1.93,0.6-3,0.6c-1.07,0-2.08-0.2-3.01-0.6c-0.94-0.4-1.76-0.96-2.46-1.67
			c-0.7-0.71-1.25-1.53-1.65-2.46c-0.4-0.93-0.6-1.93-0.6-3c0-1.07,0.2-2.08,0.6-3.01c0.4-0.94,0.95-1.76,1.65-2.46
			c0.7-0.7,1.52-1.25,2.46-1.65c0.94-0.4,1.94-0.6,3.01-0.6c0.92,0,1.79,0.15,2.61,0.44c0.82,0.3,1.57,0.72,2.24,1.28
			c0.08,0.06,0.11,0.13,0.11,0.23c0,0.21-0.11,0.32-0.32,0.32c-0.08,0-0.13-0.01-0.17-0.03c-1.24-1.03-2.72-1.57-4.42-1.61h-0.06
			c-0.8,0-1.56,0.19-2.25,0.56c-0.7,0.37-1.31,0.88-1.84,1.52c-0.53,0.64-0.94,1.39-1.25,2.25c-0.31,0.86-0.46,1.78-0.46,2.76
			c0,0.98,0.15,1.9,0.46,2.76c0.31,0.86,0.72,1.61,1.25,2.24c0.53,0.63,1.14,1.13,1.84,1.51c0.7,0.37,1.45,0.56,2.25,0.56h0.03
			c0.63,0,1.24-0.08,1.84-0.24c0.59-0.16,1.15-0.39,1.66-0.68v-5.51C121.88,188.83,121.97,188.6,122.16,188.42z"/>
		<path class="st290" d="M138.7,182.21c-0.04,0-0.07,0-0.09-0.01c-0.02-0.01-0.04-0.01-0.06-0.01c-0.33-0.17-0.68-0.31-1.06-0.42
			c-0.38-0.1-0.79-0.16-1.21-0.16c-0.79,0-1.45,0.28-1.98,0.83c-0.54,0.56-0.8,1.22-0.8,2.01c0,0.8,0.27,1.48,0.8,2.02
			c0.53,0.55,1.2,0.82,1.98,0.82c0.21,0,0.32,0.11,0.32,0.32s-0.11,0.32-0.32,0.32c-0.52,0-1,0.1-1.45,0.3
			c-0.45,0.2-0.84,0.47-1.18,0.8c-0.34,0.34-0.6,0.73-0.79,1.19c-0.19,0.46-0.29,0.95-0.29,1.46s0.1,1,0.29,1.46
			c0.19,0.46,0.45,0.86,0.79,1.21c0.33,0.34,0.73,0.62,1.18,0.82c0.45,0.2,0.93,0.3,1.45,0.3c0.65,0,1.26-0.1,1.82-0.3
			c0.56-0.2,1.06-0.47,1.49-0.82c0.43-0.34,0.77-0.75,1.02-1.21c0.25-0.46,0.37-0.95,0.37-1.46c0-0.11-0.01-0.21-0.03-0.29
			c-0.21-0.04-0.42-0.09-0.62-0.14c-0.2-0.06-0.41-0.14-0.62-0.26c-0.46-0.27-0.92-0.45-1.39-0.56c-0.47-0.11-0.92-0.13-1.35-0.07
			c-0.43,0.06-0.82,0.18-1.16,0.37c-0.34,0.19-0.61,0.46-0.8,0.8c-0.06,0.1-0.13,0.14-0.23,0.14c-0.15,0-0.23-0.08-0.23-0.23
			c0-0.08,0.01-0.13,0.03-0.17c0.31-0.5,0.68-0.91,1.13-1.25c0.45-0.33,0.94-0.57,1.48-0.72c0.54-0.14,1.08-0.18,1.64-0.11
			c0.56,0.07,1.09,0.25,1.61,0.56c0.31,0.17,0.61,0.3,0.92,0.37h0.09v0.03c0.54,0.15,1.02,0.17,1.46,0.06
			c0.44-0.12,0.76-0.35,0.98-0.69c0.02-0.08,0.09-0.11,0.2-0.11c0.15,0,0.23,0.08,0.23,0.23c0,0.06-0.01,0.1-0.03,0.11
			c-0.27,0.48-0.63,0.86-1.08,1.13c-0.45,0.28-0.92,0.46-1.42,0.53v0.26c0,0.61-0.14,1.19-0.43,1.72c-0.29,0.54-0.68,1-1.18,1.41
			c-0.5,0.4-1.08,0.72-1.75,0.95c-0.67,0.23-1.39,0.35-2.15,0.35c-0.77,0-1.48-0.12-2.15-0.35c-0.67-0.23-1.26-0.55-1.77-0.95
			c-0.51-0.4-0.91-0.87-1.19-1.41c-0.29-0.53-0.43-1.11-0.43-1.72c0-0.94,0.33-1.78,0.99-2.51c0.66-0.74,1.52-1.27,2.57-1.59
			c-0.8-0.27-1.45-0.68-1.92-1.25c-0.48-0.56-0.72-1.19-0.72-1.88c0-0.48,0.12-0.93,0.36-1.35c0.24-0.42,0.57-0.79,0.99-1.11
			c0.42-0.32,0.91-0.56,1.48-0.75c0.56-0.18,1.16-0.27,1.79-0.27c0.48,0,0.93,0.05,1.35,0.16c0.42,0.11,0.82,0.25,1.21,0.45
			c0.12,0.06,0.17,0.15,0.17,0.29C139.02,182.09,138.91,182.21,138.7,182.21z"/>
		<path class="st290" d="M151.46,181.24c0.18-0.18,0.4-0.27,0.65-0.27c0.36,0,0.64,0.16,0.83,0.49l5.4,9.36l5.4-9.36
			c0.19-0.33,0.46-0.49,0.8-0.49c0.27,0,0.49,0.09,0.67,0.27c0.18,0.18,0.27,0.41,0.27,0.67v13.09c0,0.25-0.09,0.46-0.27,0.65
			c-0.18,0.18-0.41,0.27-0.67,0.27c-0.27,0-0.49-0.09-0.66-0.27c-0.17-0.18-0.26-0.4-0.26-0.65v-12.09l-3.99,6.86l-1.21,2.1
			c-0.1,0.15-0.21,0.27-0.34,0.35c-0.23,0.13-0.47,0.17-0.72,0.1c-0.25-0.07-0.44-0.22-0.57-0.45l-4.97-8.64v12.37
			c0,0.21-0.11,0.32-0.32,0.32s-0.32-0.11-0.32-0.32v-13.7C151.19,181.65,151.28,181.43,151.46,181.24z"/>
		<path class="st290" d="M174.36,181.63l4.74,13.04l0.03,0.03c0.02,0.06,0.03,0.16,0.03,0.32c0,0.25-0.09,0.46-0.26,0.65
			c-0.17,0.18-0.39,0.27-0.66,0.27c-0.21,0-0.4-0.06-0.56-0.17c-0.16-0.11-0.27-0.27-0.33-0.46l-1.61-4.42h-5.89l-1.75,4.85
			c-0.04,0.13-0.13,0.2-0.29,0.2c-0.21,0-0.32-0.11-0.32-0.32c0-0.04,0.01-0.07,0.03-0.09v-0.03l5.05-13.81
			c0.04-0.21,0.14-0.38,0.32-0.52c0.17-0.13,0.36-0.2,0.57-0.2c0.21,0,0.39,0.06,0.55,0.19c0.15,0.12,0.27,0.27,0.34,0.45V181.63z
			 M172.81,182.84l-2.73,7.44h5.43L172.81,182.84z"/>
		<path class="st290" d="M182.17,181.6h-4.19c-0.21,0-0.32-0.11-0.32-0.32s0.11-0.32,0.32-0.32h4.19h1.87h4.19h0.03
			c0.21,0,0.32,0.11,0.32,0.32s-0.11,0.32-0.32,0.32h-0.03h-4.19v13.41c0,0.25-0.09,0.46-0.26,0.65c-0.17,0.18-0.39,0.27-0.66,0.27
			c-0.27,0-0.49-0.09-0.67-0.27c-0.18-0.18-0.27-0.4-0.27-0.65V181.6z"/>
		<path class="st290" d="M195.86,180.74c1.03,0,2,0.18,2.89,0.55c0.89,0.36,1.68,0.86,2.37,1.49c0.04,0.04,0.07,0.07,0.09,0.09
			c0.02,0.02,0.05,0.05,0.09,0.09h0.03c0.06,0.1,0.09,0.18,0.09,0.26c0,0.21-0.11,0.32-0.32,0.32c-0.13,0-0.23-0.05-0.29-0.14
			c-0.63-0.61-1.36-1.1-2.18-1.45c-0.82-0.35-1.72-0.54-2.7-0.56h-0.06c-0.8,0-1.56,0.19-2.25,0.56c-0.7,0.37-1.31,0.88-1.84,1.52
			c-0.53,0.64-0.94,1.39-1.25,2.25c-0.31,0.86-0.46,1.78-0.46,2.76c0,0.98,0.15,1.9,0.46,2.76c0.31,0.86,0.72,1.61,1.25,2.24
			c0.53,0.63,1.14,1.13,1.84,1.51c0.7,0.37,1.45,0.56,2.25,0.56h0.03c0.98,0,1.89-0.18,2.74-0.55c0.85-0.36,1.59-0.87,2.23-1.52
			c0.06-0.06,0.13-0.09,0.23-0.09c0.21,0,0.32,0.11,0.32,0.32c0,0.1-0.03,0.17-0.09,0.23c-0.71,0.71-1.53,1.26-2.46,1.67
			c-0.93,0.4-1.93,0.6-3,0.6c-1.07,0-2.08-0.2-3.01-0.6c-0.94-0.4-1.76-0.96-2.46-1.67c-0.7-0.71-1.25-1.53-1.65-2.46
			c-0.4-0.93-0.6-1.93-0.6-3c0-1.07,0.2-2.08,0.6-3.01c0.4-0.94,0.95-1.76,1.65-2.46c0.7-0.7,1.52-1.25,2.46-1.65
			C193.79,180.94,194.79,180.74,195.86,180.74z"/>
		<path class="st290" d="M212.87,181.24c0.18-0.18,0.41-0.27,0.67-0.27s0.49,0.09,0.66,0.27c0.17,0.18,0.26,0.41,0.26,0.67v13.09
			c0,0.25-0.09,0.46-0.26,0.65c-0.17,0.18-0.39,0.27-0.66,0.27s-0.49-0.09-0.67-0.27c-0.18-0.18-0.27-0.4-0.27-0.65v-6.23h-7.41
			v6.23c0,0.25-0.09,0.46-0.27,0.65c-0.18,0.18-0.41,0.27-0.68,0.27c-0.25,0-0.46-0.09-0.65-0.27c-0.18-0.18-0.27-0.4-0.27-0.65
			v-6.23v-0.63v-6.23c0-0.27,0.09-0.49,0.27-0.67s0.4-0.27,0.65-0.27c0.27,0,0.49,0.09,0.68,0.27c0.18,0.18,0.27,0.41,0.27,0.67
			v6.23h7.41v-6.23C212.6,181.65,212.69,181.43,212.87,181.24z"/>
		<path class="st290" d="M216.75,181.24c0.18-0.18,0.4-0.27,0.65-0.27c0.36,0,0.64,0.16,0.83,0.49l5.4,9.36l5.4-9.36
			c0.19-0.33,0.46-0.49,0.8-0.49c0.27,0,0.49,0.09,0.67,0.27s0.27,0.41,0.27,0.67v13.09c0,0.25-0.09,0.46-0.27,0.65
			c-0.18,0.18-0.41,0.27-0.67,0.27c-0.27,0-0.49-0.09-0.66-0.27c-0.17-0.18-0.26-0.4-0.26-0.65v-12.09l-3.99,6.86l-1.21,2.1
			c-0.1,0.15-0.21,0.27-0.34,0.35c-0.23,0.13-0.47,0.17-0.72,0.1c-0.25-0.07-0.44-0.22-0.57-0.45l-4.97-8.64v12.37
			c0,0.21-0.11,0.32-0.32,0.32s-0.32-0.11-0.32-0.32v-13.7C216.48,181.65,216.57,181.43,216.75,181.24z"/>
		<path class="st290" d="M239.65,181.63l4.74,13.04l0.03,0.03c0.02,0.06,0.03,0.16,0.03,0.32c0,0.25-0.09,0.46-0.26,0.65
			c-0.17,0.18-0.39,0.27-0.66,0.27c-0.21,0-0.4-0.06-0.56-0.17c-0.16-0.11-0.27-0.27-0.33-0.46l-1.61-4.42h-5.89l-1.75,4.85
			c-0.04,0.13-0.13,0.2-0.29,0.2c-0.21,0-0.32-0.11-0.32-0.32c0-0.04,0.01-0.07,0.03-0.09v-0.03l5.05-13.81
			c0.04-0.21,0.14-0.38,0.32-0.52c0.17-0.13,0.36-0.2,0.57-0.2s0.39,0.06,0.55,0.19c0.15,0.12,0.27,0.27,0.35,0.45V181.63z
			 M238.1,182.84l-2.73,7.44h5.43L238.1,182.84z"/>
		<path class="st290" d="M255.61,180.97c0.21,0,0.32,0.11,0.32,0.32c0,0.1-0.03,0.17-0.09,0.23l-0.4,0.37l-1.75,1.78l-3.93,3.9
			l5.71,5.71l1,1l0.09,0.09c0.15,0.19,0.23,0.4,0.23,0.63c0,0.25-0.09,0.46-0.26,0.65c-0.17,0.18-0.39,0.27-0.66,0.27
			c-0.31,0-0.55-0.11-0.72-0.32l-6.72-6.72l-0.43-0.43v6.55c0,0.25-0.09,0.46-0.27,0.65c-0.18,0.18-0.41,0.27-0.68,0.27
			c-0.25,0-0.46-0.09-0.65-0.27c-0.18-0.18-0.27-0.4-0.27-0.65v-13.09c0-0.27,0.09-0.49,0.27-0.67s0.4-0.27,0.65-0.27
			c0.27,0,0.49,0.09,0.68,0.27s0.27,0.41,0.27,0.67v6.55l1.32-1.32l6.06-6.06C255.46,181.01,255.53,180.97,255.61,180.97z"/>
		<path class="st290" d="M258.87,181.24c0.18-0.18,0.4-0.27,0.65-0.27c0.27,0,0.49,0.09,0.68,0.27c0.18,0.18,0.27,0.41,0.27,0.67
			v13.09c0,0.25-0.09,0.46-0.27,0.65c-0.18,0.18-0.41,0.27-0.68,0.27c-0.25,0-0.46-0.09-0.65-0.27c-0.18-0.18-0.27-0.4-0.27-0.65
			v-13.09C258.6,181.65,258.69,181.43,258.87,181.24z"/>
		<path class="st290" d="M263.13,183.1v12.52c0,0.21-0.11,0.32-0.32,0.32c-0.21,0-0.32-0.11-0.32-0.32v-13.67
			c0-0.38,0.15-0.66,0.46-0.83c0.21-0.13,0.44-0.17,0.67-0.11c0.24,0.06,0.44,0.19,0.59,0.4l8.7,12.4v-12.52
			c0-0.21,0.1-0.32,0.29-0.32c0.21,0,0.32,0.11,0.32,0.32v0.03v13.67v0.06c0,0.33-0.15,0.58-0.46,0.78
			c-0.21,0.11-0.44,0.14-0.69,0.09c-0.25-0.06-0.44-0.19-0.57-0.4L263.13,183.1z"/>
		<path class="st290" d="M287.08,188.42c0.19-0.18,0.42-0.27,0.69-0.27s0.49,0.09,0.68,0.27c0.18,0.18,0.27,0.41,0.27,0.67v4.82
			c-0.71,0.71-1.53,1.26-2.46,1.67c-0.93,0.4-1.93,0.6-3,0.6c-1.07,0-2.08-0.2-3.01-0.6c-0.94-0.4-1.76-0.96-2.46-1.67
			c-0.7-0.71-1.25-1.53-1.65-2.46c-0.4-0.93-0.6-1.93-0.6-3c0-1.07,0.2-2.08,0.6-3.01c0.4-0.94,0.95-1.76,1.65-2.46
			c0.7-0.7,1.52-1.25,2.46-1.65c0.94-0.4,1.94-0.6,3.01-0.6c0.92,0,1.79,0.15,2.61,0.44c0.82,0.3,1.57,0.72,2.24,1.28
			c0.08,0.06,0.11,0.13,0.11,0.23c0,0.21-0.11,0.32-0.32,0.32c-0.08,0-0.13-0.01-0.17-0.03c-1.24-1.03-2.72-1.57-4.42-1.61h-0.06
			c-0.8,0-1.56,0.19-2.25,0.56c-0.7,0.37-1.31,0.88-1.84,1.52c-0.53,0.64-0.94,1.39-1.25,2.25c-0.31,0.86-0.46,1.78-0.46,2.76
			c0,0.98,0.15,1.9,0.46,2.76c0.31,0.86,0.72,1.61,1.25,2.24c0.53,0.63,1.14,1.13,1.84,1.51c0.7,0.37,1.45,0.56,2.25,0.56h0.03
			c0.63,0,1.24-0.08,1.84-0.24c0.59-0.16,1.15-0.39,1.67-0.68v-5.51C286.79,188.83,286.89,188.6,287.08,188.42z"/>
	</g>
</g>
</svg>
