<?xml version="1.0" encoding="utf-8"?>
<!-- Generator: Adobe Illustrator 27.8.1, SVG Export Plug-In . SVG Version: 6.00 Build 0)  -->
<svg version="1.1" id="Layer_1" xmlns="http://www.w3.org/2000/svg" xmlns:xlink="http://www.w3.org/1999/xlink" x="0px" y="0px"
	 viewBox="0 0 348 228" style="enable-background:new 0 0 348 228;" xml:space="preserve">
<style type="text/css">
	.st0{fill:#D6EADE;}
	.st1{fill:#03487C;}
	.st2{fill:#1B1B4C;}
	.st3{fill-rule:evenodd;clip-rule:evenodd;fill:#204F7A;}
	.st4{fill-rule:evenodd;clip-rule:evenodd;fill:#50A4FF;}
	.st5{fill:#002649;}
	.st6{fill:#E6E7E8;stroke:#CFCFCF;stroke-width:0.1061;}
	.st7{fill:#333333;}
	.st8{fill:#0F5998;}
	.st9{fill:#277FC1;}
	.st10{fill-rule:evenodd;clip-rule:evenodd;fill:#277FC1;}
	.st11{fill-rule:evenodd;clip-rule:evenodd;fill:#083D6D;}
	.st12{fill:#DDB462;}
	
		.st13{clip-path:url(#SVGID_00000126309972671112058520000000202196931624720824_);fill:url(#SVGID_00000170236165257739050950000016122295388477640610_);}
	.st14{fill:#FFFFFF;}
	.st15{fill:url(#SVGID_00000062889678840313435400000013612718173469347483_);}
	.st16{fill:#224685;}
	.st17{fill:none;}
	.st18{fill:#FFC73B;}
	.st19{fill:#11233F;}
	.st20{fill:#5267FF;}
	.st21{fill-rule:evenodd;clip-rule:evenodd;fill:#72342E;}
	.st22{fill:#72342E;}
	.st23{fill:#FFF2E2;}
	.st24{fill:#FFF2E2;stroke:#72342E;stroke-width:0.75;stroke-miterlimit:10;}
	.st25{fill:#FFCC99;}
	.st26{fill:#469CB2;}
	.st27{fill:url(#XMLID_00000024720833405175174280000006608454305219829932_);}
	.st28{fill:url(#XMLID_00000022527158065866129170000002683230140992076468_);}
	.st29{fill:url(#XMLID_00000003817327403106868990000013951617167470916776_);}
	.st30{fill:url(#XMLID_00000018923241549692269710000004261916683788609431_);}
	.st31{fill:url(#XMLID_00000155848408871353193000000002348384423448218010_);}
	.st32{fill:url(#XMLID_00000036946158708270356700000001331819047988968878_);}
	.st33{fill:url(#XMLID_00000139251677569108836820000000251999253313841280_);}
	.st34{fill:url(#XMLID_00000177479681229615028850000006293952709416212106_);}
	.st35{fill:url(#XMLID_00000011026261537684168860000000529705014001515670_);}
	.st36{fill:url(#XMLID_00000078039868548465383590000006533909923235968664_);}
	.st37{fill:url(#XMLID_00000157292367883432514880000006838418507230170275_);}
	.st38{fill:url(#XMLID_00000115473926655015319500000012322664274742278059_);}
	.st39{fill:url(#XMLID_00000081609253092325044300000003017837122842881181_);}
	.st40{fill:url(#XMLID_00000043422940913708832130000002449059833767002764_);}
	.st41{fill:url(#XMLID_00000106853447037261937440000002996494094545817499_);}
	.st42{fill:url(#SVGID_00000154428078838609894240000013880002079089968768_);}
	.st43{fill:url(#SVGID_00000180336272191703050430000000566912531071031194_);}
	.st44{fill:url(#SVGID_00000033339073345351285730000000166736678626904209_);}
	.st45{fill:url(#SVGID_00000049931580331143721800000014686133749433484472_);}
	.st46{fill:url(#SVGID_00000158002664192570802840000001816374350057359257_);}
	.st47{fill:url(#SVGID_00000065061949611077823310000001130346247309967029_);}
	.st48{fill:url(#SVGID_00000055665150693007265750000016453674055338336952_);}
	.st49{fill:url(#SVGID_00000167397567464434562980000013043968122963240622_);}
	.st50{fill:url(#SVGID_00000021802080270917769620000005049433980507321985_);}
	.st51{fill:url(#SVGID_00000045611207571207535110000012401291528972178582_);}
	.st52{fill:url(#SVGID_00000174599716128743107440000006536639898392598660_);}
	.st53{fill:url(#SVGID_00000178198447042049653630000007895509608659446429_);}
	.st54{fill:url(#SVGID_00000156584151230525653140000004737649718037171643_);}
	.st55{fill:url(#SVGID_00000052099851492471860020000014849885484332906668_);}
	.st56{fill:#30325E;}
	.st57{fill:#FF7859;}
	.st58{fill:#FFD550;}
	.st59{fill:#00C3AD;}
	.st60{fill:#FF4653;}
	.st61{fill:#D8CE19;}
	.st62{fill:#C1E5DE;}
	.st63{fill:#FFE4D2;}
	.st64{fill:#DFF4F0;}
	.st65{fill:#A2E0EB;}
	.st66{fill:#1B3493;}
	.st67{fill:none;stroke:#FFFFFF;stroke-width:2;stroke-linecap:round;stroke-linejoin:round;stroke-miterlimit:10;}
	.st68{fill:#F15A24;}
	.st69{fill:#F7931E;}
	.st70{fill:#58595B;}
	.st71{fill:#114E15;}
	.st72{fill:#013D01;}
	.st73{fill:#E9C608;}
	.st74{fill:#043B00;}
	.st75{fill:#D8A43E;}
	.st76{clip-path:url(#SVGID_00000076576741426010461940000018133150715221030560_);}
	.st77{fill:#F49630;}
	.st78{clip-path:url(#SVGID_00000154403410039009318260000015000043969388210331_);}
	.st79{clip-path:url(#SVGID_00000039111691108097414160000000615913684612589985_);}
	.st80{clip-path:url(#SVGID_00000145040627377785457900000013056138193633208214_);}
	.st81{clip-path:url(#SVGID_00000096030627456273233710000002652872493056061097_);}
	.st82{fill-rule:evenodd;clip-rule:evenodd;fill:#FF6600;}
	.st83{fill-rule:evenodd;clip-rule:evenodd;fill:#05174F;}
	.st84{fill:#05174F;}
	.st85{opacity:0.42;fill:url(#SVGID_00000183208874964389308200000000231882231388104074_);enable-background:new    ;}
	.st86{opacity:0.42;fill:url(#SVGID_00000022559022229056025220000005244301384781180084_);enable-background:new    ;}
	.st87{fill:url(#SVGID_00000008864955123162345840000014716050273953404575_);}
	.st88{fill:url(#SVGID_00000077300171486088866370000010086601158422382735_);}
	.st89{opacity:0.64;fill:url(#SVGID_00000001624860277001387620000005045429721267882925_);enable-background:new    ;}
	.st90{opacity:0.75;fill:url(#SVGID_00000083065718421204765330000005696916674857547959_);enable-background:new    ;}
	.st91{fill:url(#SVGID_00000094598971900748955000000008722498506283102127_);}
	.st92{fill:url(#SVGID_00000136376209525465339320000015884628419028405909_);}
	.st93{opacity:0.76;fill:url(#SVGID_00000178911490308005176540000004661901121900895106_);enable-background:new    ;}
	.st94{opacity:0.75;fill:url(#SVGID_00000021095892214859411260000011477414743962742456_);enable-background:new    ;}
	.st95{fill:url(#SVGID_00000070078700226484686410000000659610248082008252_);}
	.st96{opacity:0.42;fill:url(#SVGID_00000062163793798137514910000001906688783452204475_);enable-background:new    ;}
	.st97{opacity:0.42;fill:url(#SVGID_00000176015318185532134680000015601501644419544193_);enable-background:new    ;}
	.st98{clip-path:url(#SVGID_00000122694160105042331840000006923556471677359542_);}
	.st99{fill:#1ED7FE;}
	.st100{clip-path:url(#SVGID_00000060747501388270094520000010586830067027218335_);}
	.st101{clip-path:url(#SVGID_00000139282052378986597300000011950323238638656927_);}
	.st102{fill:#000056;}
	.st103{clip-path:url(#SVGID_00000122697301998424512680000008894806382429360784_);}
	.st104{enable-background:new    ;}
	.st105{fill:#053272;}
	.st106{fill:none;stroke:#053272;stroke-width:4;stroke-miterlimit:10;}
	.st107{fill:url(#SVGID_00000071542310336961697210000018373264148322761105_);}
	.st108{fill:url(#SVGID_00000119096385969307844970000001186297379527622587_);}
	.st109{fill:url(#SVGID_00000051368162895235362800000015027287122666339514_);}
	.st110{fill:url(#SVGID_00000116938117993513293110000000028297606986384538_);}
	.st111{fill:url(#SVGID_00000026122871058440830100000009634776302371169669_);}
	.st112{fill:url(#SVGID_00000125563274220360288230000003641900132227098041_);}
	.st113{fill:url(#SVGID_00000183211308424555387680000017398468385070674073_);}
	.st114{fill:url(#SVGID_00000122691498473017722960000012060699713999343285_);}
	.st115{fill:url(#SVGID_00000011030622490863010930000006553518293491693475_);}
	.st116{fill:url(#SVGID_00000019659733418670198000000009855885966403953072_);}
	.st117{fill:url(#SVGID_00000111188458951893952940000003692091823274298273_);}
	.st118{fill:url(#SVGID_00000058561788657633797910000017946628703062073018_);}
	.st119{fill:url(#SVGID_00000147928567861232820680000016733665643139171723_);}
	.st120{fill:url(#SVGID_00000003104956404759698070000007634916303619980181_);}
	.st121{fill:url(#SVGID_00000145059423430981064180000008178794200661805455_);}
	.st122{fill:url(#SVGID_00000103245076935025253680000016986507186204335547_);}
	.st123{fill:url(#SVGID_00000166640311550224475810000000443967046256236176_);}
	.st124{fill:url(#SVGID_00000129910286957196582190000017196911817220457384_);}
	.st125{fill:url(#SVGID_00000016790524879932866760000001549823879367450559_);}
	.st126{fill:url(#SVGID_00000139264633645917056150000003608053665431023520_);}
	.st127{fill:url(#SVGID_00000061466842386357882960000014614743083863247521_);}
	.st128{fill:url(#SVGID_00000149361566733173401640000005210787990343455617_);}
	.st129{fill:url(#SVGID_00000096029688938071345380000003434157667022867604_);}
	.st130{fill:url(#SVGID_00000031205742464147611760000017909759841386179242_);}
	.st131{fill:url(#SVGID_00000121242124016292528500000007191276843104741514_);}
	.st132{fill:url(#SVGID_00000180363023040347102740000015199229563715662990_);}
	.st133{fill:url(#SVGID_00000088838184587231184340000014714131043456676012_);}
	.st134{fill:url(#SVGID_00000043435885502059980910000017373705835984317074_);}
	.st135{fill:url(#SVGID_00000051348041769015793720000013707116082445430658_);}
	.st136{fill:none;stroke:#FEF73D;stroke-linecap:round;stroke-miterlimit:10;}
	.st137{fill:none;stroke:#FF189C;stroke-miterlimit:10;}
	.st138{fill:none;stroke:#00EFF1;stroke-linecap:round;stroke-miterlimit:10;}
	.st139{fill:#00EFF1;}
	.st140{fill:#FFA022;}
	.st141{fill:#0C103A;}
	.st142{fill-rule:evenodd;clip-rule:evenodd;fill:#5D9541;}
	.st143{fill-rule:evenodd;clip-rule:evenodd;fill:#F06021;}
	.st144{fill-rule:evenodd;clip-rule:evenodd;fill:#69BC60;}
	.st145{fill-rule:evenodd;clip-rule:evenodd;fill:#F6951C;}
	.st146{fill:#F6951C;}
	.st147{fill:url(#SVGID_00000106106260615899574830000006833966655251433140_);}
	.st148{fill:url(#SVGID_00000003783684515849967040000011406317530117378459_);}
	.st149{fill:url(#SVGID_00000115473802491317276230000016478234952064936636_);}
	.st150{opacity:0.93;fill:url(#SVGID_00000008123869383302978340000015406764798359333010_);}
	.st151{opacity:0.93;fill:url(#SVGID_00000088851158897610579560000004081330148271984004_);}
	.st152{opacity:0.93;fill:url(#SVGID_00000015336770759437627770000014959268128685397129_);}
	.st153{opacity:0.93;fill:url(#SVGID_00000072253229669797895710000015178179640738068872_);}
	.st154{fill:url(#SVGID_00000009582711383912973780000008129808400818929297_);}
	.st155{fill:url(#SVGID_00000052812793413816507130000012161569726394884256_);}
	.st156{fill:url(#SVGID_00000006697842924781020090000018250680412114885507_);}
	.st157{fill:url(#SVGID_00000179626660693334490340000007971417774615706521_);}
	.st158{fill:url(#SVGID_00000102532719493459798280000001786035084601883578_);}
	.st159{fill:url(#SVGID_00000158710162644692544870000009328737340390632836_);}
	.st160{fill:url(#SVGID_00000019663890527114341860000001715408718308285848_);}
	.st161{fill:url(#SVGID_00000090275283649196010220000009796427452740502196_);}
	.st162{fill:url(#SVGID_00000124879759077116501390000000441500627261237377_);}
	.st163{fill:url(#SVGID_00000062895689494242482290000013341016498510140568_);}
	.st164{fill:url(#SVGID_00000094589914523813244530000013893179155016934551_);}
	.st165{fill:url(#SVGID_00000111187605359254385660000017032400633241757364_);}
	.st166{fill:url(#SVGID_00000101082737388758894320000016467250693077023151_);}
	.st167{fill:url(#SVGID_00000003088118297100849310000012532222066845751179_);}
	.st168{fill:url(#SVGID_00000099643275398354227750000013027941246121674398_);}
	.st169{fill:url(#SVGID_00000116212140806432510080000006589588766665597363_);}
	.st170{fill:url(#SVGID_00000122692423253474391250000010040613032530509740_);}
	.st171{fill:url(#SVGID_00000005239239236305255600000002747254912136434088_);}
	.st172{fill:url(#SVGID_00000044178833511346712390000006557976155330741165_);}
	.st173{fill:url(#SVGID_00000158708818847291992430000002964243149603540110_);}
	.st174{fill:url(#SVGID_00000088109827637766755870000015319765351500174772_);}
	.st175{fill:url(#SVGID_00000028311434569247680240000002043719387739801785_);}
	.st176{fill:url(#SVGID_00000049924093866971388760000010894025919807274918_);}
	.st177{fill:url(#SVGID_00000062908860987380812590000008004124818910686896_);}
	.st178{fill:url(#SVGID_00000075143454216474966320000011128801050122257840_);}
	.st179{fill:url(#SVGID_00000145024702651890184740000005030423094317494166_);}
	.st180{fill:url(#SVGID_00000091014830457899282800000009507220876787407541_);}
	.st181{fill:url(#SVGID_00000029010095644222696080000007657637839114513593_);}
	.st182{fill:url(#SVGID_00000004504925023093849720000001933624191055123902_);}
	.st183{fill:url(#SVGID_00000167361557283059557780000003384240096765604778_);}
	.st184{fill:url(#SVGID_00000003093800251810460600000008378388266275004292_);}
	.st185{fill:url(#SVGID_00000033339772120936163180000002203609971313566877_);}
	.st186{fill:url(#SVGID_00000032624903185241307190000000648900881266904488_);}
	.st187{fill:url(#SVGID_00000095322330585666385420000012611267717332259225_);}
	.st188{fill:url(#SVGID_00000021817420381334357390000015694164841098910851_);}
	.st189{fill:url(#SVGID_00000094581073759632638410000010903659856584183455_);}
	.st190{fill:url(#SVGID_00000117660806502281117430000012933178846861975692_);}
	.st191{fill:url(#SVGID_00000027587895493753579250000002677624120177165243_);}
	.st192{fill:url(#SVGID_00000085219243668768375910000006917813780654373038_);}
	.st193{fill:url(#SVGID_00000141415715246220340380000013432668415609217721_);}
	.st194{fill:url(#SVGID_00000140005380334353871560000013460528802837517233_);}
	.st195{fill:url(#SVGID_00000031920462557412471120000008119491830165656985_);}
	.st196{fill:url(#SVGID_00000165915405213101553190000000104333292864939929_);}
	.st197{fill:url(#SVGID_00000089571089955857950730000005699044355193257361_);}
	.st198{fill:url(#SVGID_00000026884187824314122600000002116218223257466246_);}
	.st199{fill-rule:evenodd;clip-rule:evenodd;fill:#512100;}
	.st200{fill-rule:evenodd;clip-rule:evenodd;fill:#006D62;}
	.st201{fill-rule:evenodd;clip-rule:evenodd;}
	.st202{fill-rule:evenodd;clip-rule:evenodd;fill:#00A1F5;}
	.st203{fill-rule:evenodd;clip-rule:evenodd;fill:#FACFAB;}
	.st204{fill-rule:evenodd;clip-rule:evenodd;fill:#F29673;}
	.st205{fill-rule:evenodd;clip-rule:evenodd;fill:#FFFFFF;}
	.st206{fill-rule:evenodd;clip-rule:evenodd;fill:#333333;}
	.st207{fill-rule:evenodd;clip-rule:evenodd;fill:#BD4D00;}
	.st208{fill-rule:evenodd;clip-rule:evenodd;fill:#B2B2B2;}
	.st209{fill-rule:evenodd;clip-rule:evenodd;fill:#F2CC29;}
	.st210{fill-rule:evenodd;clip-rule:evenodd;fill:#005C9C;}
	.st211{fill-rule:evenodd;clip-rule:evenodd;fill:#8AC900;}
	.st212{fill-rule:evenodd;clip-rule:evenodd;fill:#808080;}
	.st213{fill-rule:evenodd;clip-rule:evenodd;fill:#CFA605;}
	.st214{fill-rule:evenodd;clip-rule:evenodd;fill:#666666;}
	.st215{fill-rule:evenodd;clip-rule:evenodd;fill:#CCCCCC;}
	.st216{fill:#960000;}
	.st217{fill:url(#SVGID_00000173143085939532866060000018103352591226930319_);}
	.st218{fill:url(#SVGID_00000182522165500449935470000007793863229867318656_);}
	.st219{opacity:0.51;fill:url(#SVGID_00000094593032429604602980000008340246934372474771_);}
	.st220{fill:url(#SVGID_00000174586101737119221800000010711883578321033399_);}
	.st221{fill:url(#SVGID_00000096742754315920715680000017509071615688860557_);}
	.st222{fill:url(#SVGID_00000019653271838570240540000002331198854723096708_);}
	.st223{opacity:0.35;fill:url(#SVGID_00000163778403534605984010000003873441666774137743_);}
	.st224{opacity:0.35;fill:url(#SVGID_00000143580521413261706860000004122301873369836691_);}
	.st225{fill:#F06021;}
	.st226{fill-rule:evenodd;clip-rule:evenodd;fill:url(#SVGID_00000123414276924966758760000016097428413972452783_);}
	.st227{fill-rule:evenodd;clip-rule:evenodd;fill:url(#SVGID_00000047749550998013063320000002822549429302679988_);}
	.st228{fill-rule:evenodd;clip-rule:evenodd;fill:url(#SVGID_00000039127918371867688440000011182509916709370539_);}
	.st229{fill-rule:evenodd;clip-rule:evenodd;fill:url(#SVGID_00000073719720315936914720000011661692260840487337_);}
	.st230{fill-rule:evenodd;clip-rule:evenodd;fill:url(#SVGID_00000150089386886721071090000012999448885642799280_);}
	.st231{fill-rule:evenodd;clip-rule:evenodd;fill:url(#SVGID_00000039132376742011678900000011534352326598957970_);}
	.st232{fill-rule:evenodd;clip-rule:evenodd;fill:url(#SVGID_00000090277642890628889770000010917671647351056051_);}
	.st233{fill-rule:evenodd;clip-rule:evenodd;fill:url(#SVGID_00000131335311510336906420000004636937078263902137_);}
	.st234{fill-rule:evenodd;clip-rule:evenodd;fill:url(#SVGID_00000004505300477620023540000009396051137344380854_);}
	.st235{fill-rule:evenodd;clip-rule:evenodd;fill:url(#SVGID_00000158714503265480909690000011130135765485099424_);}
	.st236{fill-rule:evenodd;clip-rule:evenodd;fill:url(#SVGID_00000003823124721378245720000015239596332843527353_);}
	.st237{fill-rule:evenodd;clip-rule:evenodd;fill:url(#SVGID_00000013884800751044475680000012584208143523447427_);}
	.st238{fill-rule:evenodd;clip-rule:evenodd;fill:url(#SVGID_00000017487218962989062670000015097892075069609872_);}
	.st239{opacity:0.5;fill-rule:evenodd;clip-rule:evenodd;fill:#5D0101;enable-background:new    ;}
	.st240{fill:#E11B22;}
	.st241{fill:#959595;}
	.st242{fill:#003359;}
	.st243{fill:#1779C1;}
	.st244{fill:#0EB17C;}
	.st245{fill:#2B2353;}
	.st246{fill:#BE264E;}
	.st247{fill:#EAA41C;}
	.st248{fill:#1F9EF3;}
	.st249{fill:#0267A3;}
	.st250{fill:#FFEC00;}
	.st251{fill:#00A0E0;}
	.st252{fill:#E3007E;}
	.st253{fill:none;stroke:#000000;stroke-width:2;stroke-miterlimit:10;}
	.st254{fill:#FF9E80;}
	.st255{fill:#414151;}
	.st256{fill:#2B295E;}
	.st257{fill:#CCCCCC;}
	.st258{fill:#FF8C5C;}
	.st259{fill:#DBA21C;}
	.st260{fill:#EDDBB2;}
	.st261{fill:#DEC58B;}
	.st262{fill:#997113;}
	.st263{fill:#B88817;}
	.st264{fill:#003400;stroke:#8EC13D;stroke-width:4;stroke-miterlimit:10;}
	.st265{fill:#8EC13D;}
	.st266{fill:url(#XMLID_00000067196721079724331980000009627231354159037100_);}
	.st267{fill:url(#SVGID_00000129895186728156434910000008718155545144288913_);}
	.st268{fill:url(#SVGID_00000031194883508250752820000004738855089501876392_);}
	.st269{fill:url(#SVGID_00000016795077882180253690000007685287442429806464_);}
	.st270{fill:url(#SVGID_00000065070114837022945320000003418786677679314857_);}
	.st271{fill:url(#SVGID_00000106130450700254610010000016281800658233346703_);}
	.st272{fill:url(#SVGID_00000061456447863019785270000010191549342386945678_);}
	.st273{fill:url(#SVGID_00000132804193039995536230000006535516786074810245_);}
	.st274{fill:url(#SVGID_00000067214379373815095070000017659634432025499309_);}
	.st275{fill:url(#SVGID_00000152252501561817909050000017851983538450733990_);}
	.st276{fill:url(#SVGID_00000001660284162132486220000002169327936974148998_);}
	.st277{fill:url(#SVGID_00000067204369209745545170000017869200696009928070_);}
	.st278{fill:#1C75BC;}
	.st279{fill:#FF9400;}
	.st280{fill:#46920C;}
	.st281{fill:url(#SVGID_00000132072763614666729910000003399064134162955435_);}
	.st282{fill:url(#SVGID_00000128483173068436744560000013819319949218541980_);}
	.st283{fill:url(#SVGID_00000169539992911345346810000000137129773898845846_);}
	.st284{fill:url(#SVGID_00000175319643234594740680000011316534476519190153_);}
	.st285{fill:url(#SVGID_00000170252272050482267490000007337689591142985355_);}
	.st286{fill:url(#SVGID_00000099650426843644809710000001539399156414047647_);}
	.st287{fill:url(#SVGID_00000070077361317607153860000008652020996235327421_);}
	.st288{fill:url(#SVGID_00000019652686666730610070000006665892974815543197_);}
	.st289{fill:url(#SVGID_00000002385039212648626410000018265708749785741229_);}
	.st290{fill:url(#SVGID_00000119098167970953657650000000292622015254353819_);}
	.st291{fill:url(#SVGID_00000011737763069868898900000010548719584020704688_);}
	.st292{fill:url(#SVGID_00000016794531892129430280000009388336250654394266_);}
	.st293{fill:url(#SVGID_00000096033058094066435950000011229515353157026195_);}
	.st294{fill:url(#SVGID_00000021104644620806842000000018057263064487731344_);}
	.st295{fill:url(#SVGID_00000150089712109302077210000018445827345343446416_);}
	.st296{fill:url(#SVGID_00000138540357573509604570000001059992980515194290_);}
	.st297{fill:url(#SVGID_00000128466664560628167230000001650818790824503461_);}
	.st298{fill:url(#SVGID_00000043446114714217077850000011306281603223212425_);}
	.st299{fill:url(#SVGID_00000154395945193510758640000009936319797606210470_);}
	.st300{fill:#2F3F67;}
	.st301{fill:#C97F32;}
	.st302{fill:none;stroke:#C97F32;stroke-width:1.2891;stroke-miterlimit:10;}
	.st303{fill:url(#XMLID_00000159438187869847640370000015020654778768133795_);}
	.st304{fill:#00548B;}
	.st305{fill:#004368;}
	.st306{fill:#94070A;}
	.st307{fill:url(#XMLID_00000179641430702026329190000017421804048807893148_);}
	.st308{fill:url(#XMLID_00000063611199953518083280000014562254423640407181_);}
	.st309{fill:#B34A06;}
	.st310{fill:#A2B5C4;}
	.st311{fill:#192940;}
</style>
<g id="BACKGROUND_00000066479807991231630380000016310253046931418501_">
	<rect x="0.14" y="0.16" class="st64" width="348" height="228"/>
</g>
<g>
	<g>
		<g>
			<path class="st300" d="M174.29,39.43c14.53,0,28.74,2.34,42.31,6.97c1.04,4.58,3.96,8.57,8.17,11.12v52.3
				c0,2.03-1.81,9.71-25.13,23.31c-10.44,6.09-21.03,10.9-25.32,12.78c-4.28-1.91-14.8-6.78-25.23-12.9
				c-23.45-13.77-25.27-21.23-25.27-23.19v-52.3c4.2-2.55,7.13-6.54,8.17-11.12C145.55,41.77,159.76,39.43,174.29,39.43
				 M174.29,34.27c-15.98,0-31.95,2.78-47.05,8.34c0.02,5.14-3.4,9.77-8.58,11.7v55.51c0,18.08,55.63,41.71,55.63,41.71h0
				c0,0,55.63-23.08,55.63-41.71V54.31c-5.19-1.93-8.6-6.56-8.58-11.7C206.24,37.05,190.27,34.27,174.29,34.27L174.29,34.27z"/>
		</g>
		<path class="st257" d="M174.29,49c-14.17-0.27-28.16,2.94-40.38,5.96c0,4.34-2.69,8.09-6.48,9.03v37c0,5.84,7.1,16.77,21.83,26.99
			c15.51,10.76,25.04,14.77,25.04,14.77s9.53-4.01,25.04-14.77c14.73-10.21,21.83-21.15,21.83-26.99v-37
			c-3.79-0.94-6.49-4.69-6.48-9.03C202.45,51.93,188.46,48.73,174.29,49z"/>
		<g>
			<path class="st301" d="M130.64,58.29c0,1.15-0.9,2.07-2.01,2.07c-1.11,0-2.01-0.93-2.01-2.07c0-1.15,0.9-2.07,2.01-2.07
				C129.74,56.21,130.64,57.14,130.64,58.29z"/>
			<ellipse class="st301" cx="219.95" cy="58.29" rx="2.01" ry="2.07"/>
		</g>
	</g>
	<g>
		<g>
			<g>
				<path class="st301" d="M229.51,124.13c2.27,4.37,1.23,6.51-2.17,9.96c-2.04-2.17-2.59-3.87-2.46-5
					C225.05,127.33,226.99,127.36,229.51,124.13z M223.57,129.23c2.18,4.76,1.07,6.87-2.52,10.13c-2.03-2.44-2.53-4.24-2.38-5.43
					C218.9,132.14,220.87,132.34,223.57,129.23z M210.83,138.33c1.98,5.54,0.68,7.57-3.26,10.41c-1.92-3-2.3-5.03-2.07-6.27
					C205.85,140.58,207.85,141.17,210.83,138.33z M217.32,133.98c2.09,5.13,0.9,7.23-2.88,10.27c-1.99-2.71-2.45-4.64-2.26-5.85
					C212.49,136.58,214.47,136.95,217.32,133.98z M235.05,118.66c2.36,3.95,1.45,6.15-1.74,9.79c-2.04-1.9-2.62-3.48-2.54-4.59
					C230.89,122.17,232.76,122.01,235.05,118.66z M242.84,117.22c-0.57-2.52-0.52-4.06,0.25-5.21c0.79-1.15,2.27-1.86,4.56-2.93
					c0.67,2.36,0.74,4.3,0.01,5.65C246.93,116.11,245.41,116.95,242.84,117.22z M239.98,112.81c2.55,3.44,1.79,5.72-1.1,9.59
					c-2.03-1.61-2.66-3.07-2.63-4.14c0.04-0.81,0.46-1.31,1.16-2.03c0.36-0.36,0.77-0.78,1.2-1.33
					C239.05,114.35,239.53,113.68,239.98,112.81z M248.23,118.32c-0.72,0.91-1.28,1.68-1.73,2.35c-0.43,0.68-0.79,1.25-1.1,1.73
					c-0.61,0.96-1.05,1.58-1.9,1.81c-1.12,0.31-2.68-0.03-4.59-1.78c1.66-1.77,2.91-3.02,4.29-3.71
					C244.58,118.04,246.09,117.92,248.23,118.32z M225.49,144.26c-1.94,1.14-2.98,2.22-3.81,2.98c-0.82,0.77-1.4,1.24-2.38,1.11
					c-1.28-0.16-2.96-1.23-4.81-4.04C218.65,141.8,220.82,141.11,225.49,144.26z M237.73,132.21c-3.47,2.81-3.75,4.73-5.58,4.87
					c-1.22,0.06-2.86-0.66-4.77-2.95C231.18,131.11,233.21,130.11,237.73,132.21z M231.78,138.42c-3.67,2.55-4,4.52-5.89,4.48
					c-1.24-0.04-2.92-0.93-4.81-3.48C225.07,136.63,227.18,135.79,231.78,138.42z M204.13,142.25c1.79,5.91,0.4,7.95-3.73,10.49
					c-1.77-3.3-2.06-5.47-1.77-6.73C199.06,144.1,201.03,144.92,204.13,142.25z M243.26,125.56c-3.24,3.12-3.45,5-5.22,5.31
					c-1.17,0.18-2.78-0.35-4.69-2.39C236.94,125.21,238.84,124.03,243.26,125.56z M218.83,149.72c-4.02,2.04-4.51,4.1-6.49,3.71
					c-1.3-0.27-2.98-1.55-4.74-4.64C211.92,146.55,214.16,146.07,218.83,149.72z M204.37,159.47c-2.22,0.71-3.49,1.6-4.5,2.19
					c-1,0.6-1.7,0.96-2.71,0.52c-1-0.43-2.12-1.5-3.19-3.59c-0.63-1.17-1.29-1.12-2.01-0.86c-0.19,0.07-0.77,0.33-1.58,0.71
					c-0.83,0.35-1.89,0.81-3.03,1.26c-2.3,0.88-4.98,1.67-6.55,1.9c-1.55,0.27-2.46-0.05-2.94-0.39c-0.49-0.36-0.58-0.85-0.6-1.16
					c-0.04-0.65,0.16-1.93,2.98-2.26c1.42-0.16,3.98-0.48,6.29-0.92c1.15-0.23,2.23-0.48,3.08-0.67c0.84-0.22,1.43-0.39,1.61-0.46
					c0.68-0.24,1.18-0.63,0.87-1.87c-0.72-2.36-0.75-3.95-0.47-4.93c0.29-0.95,0.88-1.18,1.82-1.46c0.94-0.26,2.23-0.62,3.83-1.82
					c1.39,5.82,0.2,7.94-3.4,9.95l0.14,0.11l-0.02,0.16C197.98,154.74,200.23,155.02,204.37,159.47z M211.81,154.82
					c-2.1,0.89-3.3,1.83-4.23,2.51c-0.92,0.68-1.59,1.05-2.59,0.75c-1.32-0.41-2.94-1.87-4.56-5.26
					C204.92,150.92,207.18,150.58,211.81,154.82z"/>
			</g>
			<g>
				<path class="st301" d="M110.27,132.21c4.51-2.09,6.54-1.1,10.35,1.92c-1.91,2.29-3.56,3.01-4.77,2.95
					C114.02,136.94,113.75,135.02,110.27,132.21z M116.21,138.42c4.6-2.62,6.71-1.78,10.7,0.99c-1.89,2.55-3.57,3.45-4.81,3.48
					C120.21,142.94,119.88,140.97,116.21,138.42z M129.17,149.72c4.67-3.66,6.91-3.17,11.23-0.93c-1.76,3.09-3.44,4.37-4.74,4.64
					C133.68,153.82,133.19,151.76,129.17,149.72z M122.51,144.26c4.67-3.15,6.83-2.46,11,0.05c-1.85,2.82-3.53,3.88-4.81,4.04
					c-0.98,0.12-1.55-0.35-2.38-1.11C125.49,146.48,124.45,145.4,122.51,144.26z M104.74,125.56c4.42-1.53,6.31-0.35,9.91,2.92
					c-1.91,2.03-3.52,2.56-4.69,2.39C108.19,130.56,107.99,128.68,104.74,125.56z M104.99,117.34c-2.57-0.28-4.1-1.11-4.83-2.48
					c-0.74-1.35-0.68-3.3,0.02-5.7c2.26,1.07,3.74,1.8,4.54,2.96C105.5,113.27,105.56,114.82,104.99,117.34z M99.77,118.32
					c2.14-0.4,3.65-0.28,5.03,0.41c1.37,0.69,2.63,1.93,4.29,3.71c-1.92,1.75-3.47,2.09-4.59,1.78c-0.85-0.23-1.29-0.86-1.9-1.81
					c-0.31-0.48-0.67-1.05-1.1-1.73C101.04,120,100.48,119.24,99.77,118.32z M108.02,112.81c0.45,0.87,0.93,1.54,1.38,2.09
					c0.43,0.55,0.84,0.97,1.2,1.33c0.7,0.72,1.12,1.22,1.16,2.03c0.03,1.07-0.6,2.53-2.63,4.14
					C106.23,118.53,105.47,116.25,108.02,112.81z M130.67,133.98c2.86,2.97,4.84,2.6,5.14,4.43c0.2,1.2-0.26,3.13-2.26,5.85
					C129.78,141.21,128.59,139.11,130.67,133.98z M118.49,124.13c2.52,3.23,4.46,3.2,4.63,4.96c0.13,1.14-0.41,2.83-2.46,5
					C117.26,130.64,116.22,128.5,118.49,124.13z M124.43,129.23c2.7,3.11,4.67,2.91,4.91,4.7c0.15,1.18-0.35,2.99-2.38,5.43
					C123.36,136.1,122.25,133.99,124.43,129.23z M136.19,154.82c4.64-4.24,6.89-3.9,11.38-2.01c-1.62,3.39-3.25,4.86-4.56,5.26
					c-1,0.3-1.67-0.07-2.59-0.75C139.49,156.65,138.29,155.71,136.19,154.82z M112.95,118.66c2.29,3.35,4.16,3.51,4.28,5.2
					c0.09,1.11-0.5,2.69-2.54,4.59C111.5,124.8,110.59,122.6,112.95,118.66z M137.17,138.33c2.98,2.84,4.97,2.25,5.33,4.14
					c0.23,1.24-0.15,3.27-2.07,6.27C136.5,145.9,135.19,143.87,137.17,138.33z M150.73,145.66c1.59,1.2,2.89,1.57,3.83,1.82
					c0.94,0.28,1.53,0.51,1.82,1.46c0.28,0.95,0.26,2.48-0.4,4.73c-0.36,1.3,0.15,1.71,0.85,1.95c0.18,0.07,0.78,0.23,1.61,0.45
					c0.84,0.19,1.92,0.44,3.07,0.67c2.3,0.44,4.86,0.75,6.27,0.91c2.81,0.33,3,1.61,2.97,2.26c-0.02,0.31-0.11,0.8-0.59,1.16
					c-0.48,0.34-1.38,0.66-2.93,0.39c-1.56-0.22-4.24-1.01-6.53-1.89c-1.15-0.44-2.21-0.91-3.03-1.26
					c-0.81-0.38-1.39-0.64-1.58-0.71c-0.7-0.25-1.34-0.3-1.96,0.79c-1.1,2.21-2.25,3.34-3.27,3.78c-1.01,0.44-1.71,0.08-2.71-0.52
					c-1.01-0.59-2.29-1.48-4.5-2.19c4.15-4.46,6.4-4.73,10.38-3.58l-0.02-0.18l0.12-0.1C150.52,153.6,149.34,151.48,150.73,145.66z
					 M143.87,142.25c3.1,2.66,5.07,1.85,5.5,3.76c0.29,1.26,0,3.43-1.77,6.73C143.47,150.2,142.08,148.16,143.87,142.25z"/>
			</g>
		</g>
		<g>
			<g>
				<path class="st300" d="M82.78,180.77c0.15-0.41,0.31-0.83,0.46-1.24c-0.46-0.17-0.93-0.35-1.39-0.52
					c0.23-0.61,0.46-1.22,0.69-1.83c0.4,0.15,0.81,0.31,1.22,0.46c1.88-5.06,3.76-10.11,5.64-15.17c-0.38-0.14-0.76-0.28-1.14-0.43
					c0.23-0.62,0.47-1.24,0.7-1.86c3.81,1.44,7.65,2.78,11.51,4.01c-0.13,0.42-0.27,0.84-0.4,1.26c0.44,0.14,0.87,0.28,1.31,0.41
					c-0.65,2.08-1.31,4.16-1.96,6.24c-0.65-0.21-1.31-0.41-1.96-0.62c0.12-0.38,0.24-0.76,0.37-1.13c-0.35-0.11-0.69-0.22-1.04-0.34
					c-0.14,0.42-0.28,0.84-0.41,1.26c0.45,0.15,0.89,0.29,1.34,0.44c-0.57,1.78-1.15,3.56-1.72,5.35c0.36,0.11,0.71,0.23,1.07,0.34
					c-0.13,0.42-0.27,0.84-0.4,1.26c0.46,0.15,0.92,0.29,1.38,0.43c-0.64,2.07-1.29,4.15-1.93,6.22
					C91.64,183.92,87.19,182.4,82.78,180.77z M94.77,183.05c0.57-1.8,1.15-3.6,1.72-5.4c-0.39-0.12-0.77-0.25-1.15-0.37
					c-0.12,0.37-0.24,0.74-0.36,1.11c-1.71-0.55-3.42-1.13-5.12-1.72c0.3-0.86,0.6-1.72,0.9-2.58c0.87,0.3,1.74,0.6,2.61,0.89
					c-0.1,0.28-0.19,0.57-0.29,0.85c0.39,0.13,0.78,0.26,1.18,0.39c0.66-1.99,1.31-3.97,1.97-5.96c-0.38-0.13-0.76-0.25-1.15-0.38
					c-0.1,0.28-0.19,0.57-0.29,0.85c-0.86-0.29-1.71-0.58-2.56-0.88c0.34-0.97,0.67-1.93,1.01-2.9c1.41,0.49,2.81,0.96,4.23,1.43
					c-0.12,0.38-0.25,0.76-0.37,1.13c0.36,0.12,0.73,0.24,1.09,0.35c0.58-1.81,1.16-3.61,1.75-5.42c-3.59-1.16-7.16-2.4-10.7-3.73
					c-0.13,0.35-0.27,0.71-0.4,1.07c0.38,0.14,0.76,0.28,1.14,0.42c-1.97,5.32-3.94,10.65-5.91,15.97c-0.41-0.15-0.81-0.3-1.22-0.45
					c-0.13,0.35-0.26,0.69-0.39,1.04C86.52,180.31,90.63,181.73,94.77,183.05z M94.78,169.34c-0.12-0.04-0.25-0.08-0.37-0.13
					c-0.1,0.28-0.19,0.57-0.29,0.85c0.12,0.04,0.25,0.08,0.37,0.13C94.59,169.91,94.69,169.62,94.78,169.34z M91.81,176.89
					c0.59,0.2,1.17,0.4,1.76,0.59c0.06-0.18,0.12-0.35,0.18-0.53c-0.59-0.19-1.17-0.39-1.76-0.59
					C91.93,176.54,91.87,176.71,91.81,176.89z"/>
				<path class="st300" d="M107.89,188.66c-2.51-0.65-5.02-1.34-7.52-2.07c0.12-0.42,0.25-0.85,0.37-1.27
					c-0.47-0.14-0.94-0.28-1.42-0.42c0.19-0.63,0.37-1.25,0.56-1.88c0.41,0.12,0.82,0.24,1.24,0.36c1.51-5.18,3.03-10.36,4.54-15.54
					c-0.39-0.11-0.77-0.23-1.16-0.34c0.19-0.63,0.37-1.25,0.56-1.88c2.29,0.68,4.58,1.33,6.89,1.94c3.04,0.81,5.46,2.86,6.85,5.46
					c1.84,2.32,2.74,5.36,2.1,8.36C119.8,186.79,113.87,190.21,107.89,188.66z M111.84,167.98c-2.17-0.57-4.33-1.18-6.48-1.82
					c-0.11,0.36-0.21,0.71-0.32,1.07c0.39,0.11,0.77,0.23,1.16,0.34c-1.58,5.45-3.17,10.91-4.75,16.36
					c-0.41-0.12-0.83-0.24-1.24-0.36c-0.11,0.36-0.21,0.71-0.32,1.07c2.33,0.69,4.66,1.34,7.01,1.97
					c5.67,1.51,11.35-1.74,12.45-6.89C120.45,174.57,117.01,169.36,111.84,167.98z M108.05,182.27c-0.32-0.08-0.63-0.17-0.95-0.25
					c0.89-3.31,1.78-6.62,2.67-9.92c0.3,0.08,0.61,0.16,0.91,0.24c2.83,0.75,4.63,3.55,3.98,6.28
					C114.03,181.35,111.06,183.06,108.05,182.27z M114.03,175.81c-0.64-0.68-1.46-1.18-2.43-1.44c-0.16-0.04-0.32-0.08-0.49-0.13
					c-0.68,2.59-1.35,5.18-2.03,7.76c2.4,0.22,4.62-1.29,5.16-3.51C114.46,177.58,114.36,176.66,114.03,175.81z"/>
				<path class="st300" d="M142.23,176.83c-0.47,3.64-0.93,7.29-1.4,10.93c-0.47,3.89-4.45,6.63-8.75,5.94
					c-2.51-0.4-4.56-1.89-5.66-3.79c-1.61-1.62-2.37-3.85-1.92-6.14c0.71-3.6,1.42-7.21,2.12-10.81c-0.37-0.07-0.73-0.14-1.1-0.22
					c0.13-0.65,0.26-1.3,0.39-1.95c2.55,0.51,5.1,0.98,7.66,1.41c-0.07,0.44-0.15,0.87-0.22,1.31c0.38,0.06,0.75,0.12,1.13,0.19
					c0.07-0.44,0.14-0.87,0.21-1.31c2.57,0.42,5.15,0.79,7.73,1.12c-0.06,0.44-0.11,0.88-0.17,1.31c0.45,0.06,0.9,0.11,1.35,0.17
					c-0.08,0.66-0.16,1.31-0.24,1.97C142.99,176.93,142.61,176.88,142.23,176.83z M141.8,175.02c0.05-0.38,0.1-0.75,0.15-1.13
					c-2.3-0.3-4.59-0.63-6.88-1c-0.06,0.37-0.12,0.75-0.18,1.12c0.41,0.07,0.82,0.13,1.24,0.2c-0.58,3.77-1.17,7.54-1.75,11.31
					c-0.18,1.2-1.42,2.03-2.73,1.82c-1.31-0.22-2.13-1.38-1.92-2.58c0.66-3.76,1.31-7.52,1.97-11.27c0.4,0.07,0.81,0.14,1.21,0.21
					c0.06-0.37,0.13-0.75,0.19-1.12c-2.28-0.39-4.55-0.81-6.82-1.26c-0.07,0.37-0.15,0.74-0.22,1.12c0.37,0.07,0.73,0.15,1.1,0.22
					c-0.73,3.74-1.46,7.49-2.19,11.23c-0.73,3.64,1.95,7.22,5.96,7.88c4.01,0.66,7.75-1.89,8.22-5.54
					c0.51-3.78,1.02-7.56,1.54-11.34C141.05,174.92,141.43,174.97,141.8,175.02z M134.6,174.39c-0.07,0.44-0.14,0.87-0.21,1.31
					c-0.41-0.07-0.81-0.13-1.22-0.2c-0.6,3.62-1.21,7.25-1.81,10.87c-0.03,0.16-0.02,0.29-0.02,0.45c0.11,0.04,0.22,0.06,0.36,0.09
					c1.05,0.17,2.06-0.5,2.21-1.47c0.57-3.63,1.14-7.26,1.71-10.89C135.29,174.5,134.95,174.45,134.6,174.39z"/>
				<path class="st300" d="M164.58,195.46c-0.31-0.3-0.62-0.6-0.93-0.91c-1.97,1.28-4.42,1.99-6.98,1.83
					c-3.47-0.22-6.44-1.91-8.24-4.32c-2.26-2.05-3.45-4.99-3.1-8.07c0.66-5.47,5.77-9.43,11.32-9.06c2.39,0.16,4.53,1.01,6.29,2.54
					c0.29-0.26,0.58-0.53,0.87-0.79c0.89,0.93,1.79,1.86,2.7,2.79c-1.9,1.75-3.84,3.48-5.83,5.19c-0.91-0.95-1.81-1.9-2.69-2.85
					c0.04-0.03,0.08-0.07,0.12-0.1c-0.17-0.01-0.36-0.05-0.52-0.06c-2.73-0.17-5.11,1.76-5.34,4.34c-0.08,0.95,0.16,1.88,0.61,2.65
					c0.79,0.57,1.74,0.93,2.79,1c1,0.07,1.81-0.09,2.64-0.52c-0.24-0.25-0.49-0.51-0.73-0.76c0.53-0.41,1.06-0.82,1.58-1.24
					c2.26,2.36,4.59,4.69,6.99,6.99C165.62,194.58,165.11,195.02,164.58,195.46z M164.09,192.74c-1.69-1.66-3.35-3.33-4.97-5.02
					c-0.3,0.24-0.6,0.48-0.9,0.72c0.26,0.27,0.52,0.54,0.78,0.81c-1.04,0.63-2.15,0.91-3.38,0.83c-3.1-0.21-5.38-2.74-5.12-5.56
					c0.27-2.82,2.86-4.89,5.81-4.7c1.21,0.08,2.26,0.52,3.16,1.28c-0.29,0.25-0.58,0.5-0.87,0.75c0.26,0.28,0.52,0.56,0.79,0.84
					c1.76-1.51,3.5-3.05,5.19-4.6c-0.26-0.27-0.53-0.55-0.79-0.82c-0.29,0.26-0.58,0.53-0.88,0.79c-1.76-1.63-3.87-2.54-6.3-2.7
					c-5.32-0.35-10.23,3.45-10.85,8.69c-0.62,5.26,3.68,10.1,9.54,10.5c2.62,0.18,4.98-0.47,6.98-1.93c0.3,0.3,0.59,0.59,0.89,0.88
					C163.49,193.25,163.79,193,164.09,192.74z"/>
				<path class="st300" d="M179.08,196.84c-0.01-0.44-0.02-0.88-0.03-1.32c-0.05,0-0.1,0-0.15,0c0.01,0.44,0.02,0.88,0.03,1.32
					c-2.82,0.07-5.64,0.09-8.46,0.07c0-0.44,0.01-0.88,0.01-1.32c-0.49,0-0.97-0.01-1.46-0.02c0.01-0.65,0.02-1.31,0.03-1.96
					c0.32,0,0.64,0.01,0.96,0.01c-0.19-1.11-0.26-2.26-0.25-3.37c0.06-4.64,1.76-9.08,4.77-12.81c-0.2,0-0.4,0-0.6,0
					c0-0.66-0.01-1.32-0.01-1.99c3.7-0.02,7.4-0.13,11.1-0.32c0.02,0.44,0.05,0.88,0.07,1.32c0.45-0.02,0.9-0.05,1.35-0.07
					c0.04,0.66,0.08,1.32,0.11,1.98c-0.39,0.02-0.78,0.04-1.17,0.07c0.29,5.39,0.57,10.77,0.86,16.16c0.42-0.02,0.83-0.04,1.25-0.07
					c0.04,0.65,0.08,1.3,0.11,1.96C184.76,196.65,181.92,196.77,179.08,196.84z M185.58,194.84c-0.02-0.37-0.04-0.74-0.06-1.11
					c-0.42,0.02-0.83,0.04-1.25,0.06c-0.26-5.67-0.52-11.34-0.77-17.02c0.39-0.02,0.78-0.04,1.17-0.06
					c-0.02-0.38-0.04-0.76-0.06-1.14c-3.42,0.17-6.84,0.27-10.26,0.29c0,0.38,0.01,0.76,0.01,1.14c0.36,0,0.72-0.01,1.09-0.01
					c-3.29,3.77-5.18,8.45-5.23,13.25c-0.01,1.24,0.12,2.52,0.37,3.79c-0.36,0-0.72-0.01-1.08-0.01c0,0.37-0.01,0.74-0.01,1.11
					c2.49,0.03,4.98,0.03,7.47-0.02c-0.01-0.37-0.01-0.74-0.02-1.11c-0.45,0.01-0.89,0.01-1.34,0.02c-0.3-1.03-0.48-2.06-0.52-3.12
					c1.37-0.44,2.74-0.89,4.1-1.34c0.04,1.47,0.08,2.93,0.11,4.4c-0.43,0.01-0.85,0.02-1.28,0.03c0.01,0.37,0.02,0.74,0.02,1.11
					C180.56,195.06,183.07,194.97,185.58,194.84z M179.07,184.89c-1.14,0.38-2.28,0.76-3.43,1.12c0.62-2.1,1.6-4,2.96-5.7
					c0.12,0,0.24-0.01,0.36-0.01C178.99,181.83,179.03,183.36,179.07,184.89z M177.43,194.91c0.05,0,0.1,0,0.15,0
					c-0.01-0.44-0.02-0.88-0.03-1.32c0.43-0.01,0.85-0.02,1.28-0.03c-0.01-0.54-0.03-1.08-0.04-1.62c-0.59,0.19-1.18,0.38-1.78,0.57
					c0.04,0.36,0.07,0.72,0.11,1.08c0.1,0,0.19,0,0.29-0.01C177.42,194.03,177.42,194.47,177.43,194.91z"/>
				<path class="st300" d="M202.38,181.52c-0.05-0.4-0.1-0.81-0.15-1.21c-0.62,0.08-1.25,0.15-1.87,0.22
					c0.49,4.25,0.97,8.49,1.46,12.74c0.43-0.05,0.85-0.1,1.28-0.15c0.08,0.66,0.16,1.31,0.24,1.97c-2.82,0.34-5.64,0.63-8.46,0.87
					c-0.04-0.44-0.08-0.88-0.11-1.32c-0.49,0.04-0.97,0.08-1.46,0.12c-0.05-0.66-0.11-1.32-0.16-1.98c0.42-0.03,0.85-0.07,1.27-0.11
					c-0.33-3.82-0.65-7.64-0.98-11.46c-0.16,0.01-0.31,0.03-0.47,0.04c0.03,0.41,0.07,0.81,0.1,1.21c-0.69,0.06-1.39,0.11-2.08,0.17
					c-0.03-0.44-0.07-0.88-0.1-1.32c-0.46,0.03-0.92,0.07-1.38,0.1c-0.15-2.18-0.3-4.35-0.45-6.53c4.35-0.3,8.69-0.72,13.02-1.26
					c0.05,0.44,0.11,0.88,0.16,1.31c0.45-0.06,0.9-0.11,1.35-0.17c0.28,2.16,0.57,4.32,0.85,6.49
					C203.75,181.35,203.06,181.43,202.38,181.52z M202.39,179.76c-0.23-1.88-0.46-3.77-0.7-5.65c-4.05,0.5-8.12,0.89-12.19,1.18
					c0.13,1.89,0.27,3.79,0.4,5.68c0.4-0.03,0.79-0.06,1.19-0.09c-0.03-0.41-0.06-0.81-0.09-1.22c0.91-0.07,1.81-0.14,2.72-0.22
					c0.4,4.54,0.79,9.08,1.19,13.62c-0.43,0.04-0.85,0.07-1.28,0.11c0.03,0.38,0.06,0.76,0.09,1.13c2.49-0.21,4.99-0.45,7.48-0.73
					c-0.04-0.38-0.08-0.75-0.13-1.13c-0.42,0.05-0.85,0.09-1.27,0.14c-0.48-4.53-0.97-9.06-1.45-13.59c0.91-0.1,1.83-0.2,2.74-0.31
					c0.05,0.4,0.1,0.81,0.14,1.21C201.62,179.85,202,179.8,202.39,179.76z"/>
				<path class="st300" d="M210.56,194.12c-0.06-0.44-0.13-0.87-0.19-1.31c-0.48,0.07-0.97,0.14-1.45,0.21
					c-0.09-0.65-0.18-1.29-0.28-1.94c0.42-0.06,0.84-0.12,1.27-0.18c-0.79-5.34-1.58-10.67-2.36-16.01
					c-0.4,0.06-0.79,0.12-1.19,0.17c-0.09-0.66-0.19-1.31-0.28-1.97c2.58-0.37,5.15-0.78,7.71-1.23c0.08,0.43,0.15,0.87,0.23,1.3
					c0.45-0.08,0.89-0.16,1.34-0.24c0.12,0.65,0.24,1.3,0.36,1.96c-0.4,0.07-0.79,0.14-1.19,0.21c0.94,5.31,1.88,10.62,2.82,15.94
					c0.42-0.08,0.85-0.15,1.27-0.23c0.12,0.64,0.23,1.29,0.35,1.93C216.17,193.24,213.37,193.71,210.56,194.12z M216.75,191.35
					c-0.06-0.37-0.13-0.73-0.19-1.1c-0.42,0.07-0.84,0.15-1.26,0.22c-0.95-5.6-1.89-11.2-2.84-16.79c0.39-0.07,0.79-0.13,1.18-0.2
					c-0.07-0.37-0.13-0.75-0.2-1.12c-2.29,0.4-4.58,0.76-6.87,1.09c0.05,0.38,0.11,0.75,0.16,1.13c0.39-0.06,0.79-0.11,1.18-0.17
					c0.84,5.62,1.68,11.23,2.52,16.85c-0.42,0.06-0.85,0.13-1.27,0.19c0.05,0.37,0.11,0.73,0.16,1.1
					C211.8,192.18,214.28,191.79,216.75,191.35z"/>
				<path class="st300" d="M233.29,189.9c-2.88,0.69-5.74,0-7.96-1.6c-2.85-1.32-5.01-4.04-5.63-7.29c-1-5.37,2.19-10.81,7.16-11.99
					c2.64-0.62,5.32,0.06,7.52,1.58c2.77,1.21,5.13,3.67,6.03,6.83C241.95,182.69,238.86,188.55,233.29,189.9z M226.96,169.43
					c-4.75,1.12-7.78,6.36-6.81,11.49c0.97,5.15,6.06,8.85,11.31,7.62c5.28-1.24,8.23-6.83,6.8-11.88
					C236.82,171.61,231.7,168.32,226.96,169.43z M230.4,184.08c-2.54,0.6-5.01-1.42-5.58-4.12c-0.57-2.69,0.77-5.53,3.18-6.09
					c2.41-0.57,4.93,1.33,5.62,4.02C234.32,180.61,232.94,183.48,230.4,184.08z M231.56,175.32c-0.59-0.18-1.2-0.22-1.8-0.08
					c-2.19,0.53-3.38,3.12-2.83,5.61c0.25,1.11,0.81,2.07,1.56,2.77c0.6,0.16,1.2,0.19,1.81,0.04c2.28-0.54,3.52-3.18,2.88-5.67
					C232.91,176.92,232.32,175.97,231.56,175.32z"/>
				<path class="st300" d="M255.89,183.14c-0.14-0.42-0.28-0.84-0.43-1.25c-0.1,0.04-0.21,0.07-0.31,0.1
					c0.14,0.42,0.28,0.84,0.43,1.25c-2.71,0.92-5.43,1.79-8.16,2.61c-0.13-0.42-0.26-0.84-0.38-1.27c-0.47,0.14-0.94,0.28-1.41,0.42
					c-0.19-0.63-0.37-1.25-0.56-1.88c0.31-0.09,0.62-0.18,0.93-0.28c-1.18-1.78-2-3.66-2.57-5.56c-0.93-3.12-1.08-6.56-0.54-10.41
					c-0.25,0.08-0.49,0.15-0.74,0.23c-0.19-0.63-0.39-1.27-0.58-1.9c1.9-0.58,3.8-1.18,5.69-1.81c0.25,0.3,0.5,0.59,0.76,0.89
					c-0.11-0.34-0.23-0.69-0.34-1.03c2.49-0.83,4.96-1.7,7.42-2.62c0.15,0.41,0.31,0.83,0.46,1.24c0.43-0.16,0.86-0.32,1.29-0.48
					c0.23,0.62,0.47,1.24,0.7,1.86c-0.37,0.14-0.75,0.28-1.12,0.42c1.88,5.06,3.76,10.11,5.65,15.17c0.4-0.15,0.8-0.3,1.19-0.45
					c0.23,0.61,0.46,1.22,0.69,1.83C261.3,181.26,258.6,182.22,255.89,183.14z M261.53,179.29c-0.13-0.35-0.26-0.7-0.39-1.04
					c-0.4,0.15-0.79,0.29-1.19,0.44c-1.94-5.34-3.88-10.67-5.82-16.01c0.37-0.14,0.74-0.27,1.11-0.41
					c-0.13-0.36-0.26-0.71-0.39-1.07c-2.2,0.81-4.4,1.59-6.61,2.33c0.12,0.36,0.24,0.72,0.36,1.08c0.38-0.13,0.76-0.26,1.15-0.39
					c0.51,1.49,1.02,2.98,1.52,4.46c-1.4-1.58-2.78-3.18-4.15-4.78c-1.66,0.55-3.33,1.08-5,1.59c0.11,0.36,0.22,0.73,0.33,1.09
					c0.32-0.1,0.65-0.2,0.97-0.3c-0.65,4.03-0.53,7.64,0.44,10.89c0.61,2.06,1.54,4.05,2.84,5.92c-0.36,0.11-0.71,0.21-1.07,0.32
					c0.11,0.35,0.21,0.71,0.32,1.07c2.41-0.72,4.82-1.47,7.21-2.27c-0.12-0.35-0.23-0.7-0.35-1.06c-0.37,0.12-0.75,0.25-1.12,0.37
					c-1.48-1.69-2.52-3.64-3.21-5.78c-0.43-1.34-0.7-2.64-0.77-3.9c2.45,2.87,4.96,5.7,7.53,8.5c-0.41,0.14-0.82,0.28-1.23,0.42
					c0.12,0.35,0.24,0.7,0.35,1.05C256.77,181.01,259.15,180.17,261.53,179.29z M253.44,181.51c0.07,0.12,0.17,0.22,0.26,0.31
					c0.06-0.02,0.11-0.04,0.17-0.06c-0.14-0.42-0.28-0.84-0.42-1.26c0.34-0.11,0.69-0.23,1.03-0.35c-1.34-1.47-2.67-2.94-3.99-4.42
					c0.07,0.23,0.15,0.45,0.22,0.68c0.5,1.51,1.22,2.97,2.12,4.29c0.1-0.03,0.2-0.07,0.31-0.1
					C253.24,180.91,253.34,181.21,253.44,181.51z"/>
			</g>
		</g>
		<g>
			<g>
				<g>
					<path class="st300" d="M175.86,105h2.73V102h-2.73V84.5c0.57,0.23,1.19,0.38,1.85,0.38c2.72,0,4.93-2.21,4.93-4.93
						c0-2.39-1.69-4.37-3.95-4.83c0.24-0.58,0.38-1.22,0.38-1.88c0-2.72-2.21-4.93-4.93-4.93c-2.72,0-4.93,2.21-4.93,4.93
						c0,0.67,0.14,1.3,0.38,1.88c-2.25,0.46-3.95,2.44-3.95,4.83c0,2.72,2.21,4.93,4.93,4.93c0.66,0,1.28-0.14,1.85-0.38v26.8h8.9
						v-3.17h-5.45V105z M172.12,81.41c-0.41,0.44-0.96,0.68-1.55,0.68c-1.18,0-2.15-0.96-2.15-2.15c0-1.02,0.72-1.9,1.72-2.1
						l3.31-0.67l-1.29-3.12c-0.11-0.26-0.16-0.54-0.16-0.82c0-1.18,0.96-2.15,2.15-2.15c1.18,0,2.15,0.96,2.15,2.15
						c0,0.28-0.06,0.55-0.16,0.82l-1.29,3.12l3.31,0.67c0.99,0.2,1.71,1.09,1.71,2.1c0,1.18-0.96,2.15-2.15,2.15
						c-0.59,0-1.14-0.24-1.55-0.68l-2.02-2.13L172.12,81.41z"/>
				</g>
				<g>
					<line class="st302" x1="185.51" y1="93.59" x2="204.34" y2="74.75"/>
					<line class="st302" x1="162.77" y1="93.59" x2="143.93" y2="74.75"/>
				</g>
			</g>
			<polygon class="st301" points="204.82,75.94 198.98,81.85 198.98,90.88 201.82,89.09 204.82,90.8 			"/>
			<polygon class="st301" points="143.49,75.94 149.32,81.85 149.32,90.88 146.48,89.09 143.49,90.8 			"/>
		</g>
		<g>
			<g>
				<polygon class="st300" points="174.28,119.33 176.11,123.04 180.21,123.63 177.24,126.52 177.94,130.6 174.28,128.67 
					170.62,130.6 171.32,126.52 168.35,123.63 172.45,123.04 				"/>
			</g>
			<g>
				<g>
					<g>
						<polygon class="st300" points="188.6,118.95 190.63,121.28 193.69,120.94 192.1,123.58 193.38,126.39 190.38,125.7 
							188.1,127.78 187.83,124.71 185.14,123.19 187.98,121.98 						"/>
					</g>
					<g>
						<polygon class="st300" points="200.08,115.21 202.15,116.47 204.36,115.47 203.81,117.83 205.44,119.62 203.02,119.82 
							201.82,121.93 200.88,119.69 198.51,119.21 200.34,117.62 						"/>
					</g>
				</g>
				<g>
					<g>
						<polygon class="st300" points="159.96,118.95 157.93,121.28 154.86,120.94 156.45,123.58 155.17,126.39 158.18,125.7 
							160.46,127.78 160.73,124.71 163.42,123.19 160.57,121.98 						"/>
					</g>
					<g>
						<polygon class="st300" points="148.48,115.21 146.41,116.47 144.2,115.47 144.75,117.83 143.12,119.62 145.53,119.82 
							146.73,121.93 147.67,119.69 150.05,119.21 148.21,117.62 						"/>
					</g>
				</g>
			</g>
		</g>
	</g>
</g>
</svg>
