<?xml version="1.0" encoding="utf-8"?>
<!-- Generator: Adobe Illustrator 27.8.1, SVG Export Plug-In . SVG Version: 6.00 Build 0)  -->
<svg version="1.1" id="Layer_1" xmlns="http://www.w3.org/2000/svg" xmlns:xlink="http://www.w3.org/1999/xlink" x="0px" y="0px"
	 viewBox="0 0 348 228" style="enable-background:new 0 0 348 228;" xml:space="preserve">
<style type="text/css">
	.st0{fill:#D6EADE;}
	.st1{fill:#03487C;}
	.st2{fill:#1B1B4C;}
	.st3{fill-rule:evenodd;clip-rule:evenodd;fill:#204F7A;}
	.st4{fill-rule:evenodd;clip-rule:evenodd;fill:#50A4FF;}
	.st5{fill:#002649;}
	.st6{fill:#E6E7E8;stroke:#CFCFCF;stroke-width:0.1061;}
	.st7{fill:#333333;}
	.st8{fill:#0F5998;}
	.st9{fill:#277FC1;}
	.st10{fill-rule:evenodd;clip-rule:evenodd;fill:#277FC1;}
	.st11{fill-rule:evenodd;clip-rule:evenodd;fill:#083D6D;}
	.st12{fill:#DDB462;}
	
		.st13{clip-path:url(#SVGID_00000096750796094795925660000015275352201215748797_);fill:url(#SVGID_00000029727051067936385310000011032827342938621078_);}
	.st14{fill:#FFFFFF;}
	.st15{fill:url(#SVGID_00000133504905071802974400000010638329177347101112_);}
	.st16{fill:#224685;}
	.st17{fill:none;}
	.st18{fill:#FFC73B;}
	.st19{fill:#11233F;}
	.st20{fill:#5267FF;}
	.st21{fill-rule:evenodd;clip-rule:evenodd;fill:#72342E;}
	.st22{fill:#72342E;}
	.st23{fill:#FFF2E2;}
	.st24{fill:#FFF2E2;stroke:#72342E;stroke-width:0.75;stroke-miterlimit:10;}
	.st25{fill:#FFCC99;}
	.st26{fill:#469CB2;}
	.st27{fill:url(#XMLID_00000145032274371208743820000014665978913520191913_);}
	.st28{fill:url(#XMLID_00000163063119344201822540000004600981742249506468_);}
	.st29{fill:url(#XMLID_00000021816978129843103540000005150914482175344776_);}
	.st30{fill:url(#XMLID_00000140704129463534922410000000305389167922349749_);}
	.st31{fill:url(#XMLID_00000037691915066421618730000012887324684681707952_);}
	.st32{fill:url(#XMLID_00000118380600998287693910000016657913076748623539_);}
	.st33{fill:url(#XMLID_00000162339871913944750050000004708477819189909180_);}
	.st34{fill:url(#XMLID_00000041270577156497401770000008857546892439487402_);}
	.st35{fill:url(#XMLID_00000115514541517693812150000000384848618626944385_);}
	.st36{fill:url(#XMLID_00000178196547463815909460000013413079533813531560_);}
	.st37{fill:url(#XMLID_00000088820038132406254600000018326496863577948323_);}
	.st38{fill:url(#XMLID_00000054238654849459634710000005202026195812270268_);}
	.st39{fill:url(#XMLID_00000089564838239646487320000011110631268308236693_);}
	.st40{fill:url(#XMLID_00000114040600481584556330000008118344982669717406_);}
	.st41{fill:url(#XMLID_00000009557352269519830680000006432728382629417133_);}
	.st42{fill:url(#SVGID_00000010292731160724011840000013888709290889101451_);}
	.st43{fill:url(#SVGID_00000049189473422853232910000004903164046356152247_);}
	.st44{fill:url(#SVGID_00000047738623595819194200000011869659198926250396_);}
	.st45{fill:url(#SVGID_00000008827140785357259010000000899888095360607147_);}
	.st46{fill:url(#SVGID_00000109750383222937624830000001416882950793436588_);}
	.st47{fill:url(#SVGID_00000123417546190570896130000015199031990231663512_);}
	.st48{fill:url(#SVGID_00000015335863257073315940000000599607557942300060_);}
	.st49{fill:url(#SVGID_00000042718114439510162110000002020427294544403095_);}
	.st50{fill:url(#SVGID_00000153673014724809885060000017484111866796499364_);}
	.st51{fill:url(#SVGID_00000004526764488927294830000002394813668428827524_);}
	.st52{fill:url(#SVGID_00000063621108026622558250000013603094370280850595_);}
	.st53{fill:url(#SVGID_00000002343157059395623450000001775832473142700733_);}
	.st54{fill:url(#SVGID_00000069366021887553692800000006511169763062052756_);}
	.st55{fill:url(#SVGID_00000133494143140265172970000002951186692414984586_);}
	.st56{fill:#30325E;}
	.st57{fill:#FF7859;}
	.st58{fill:#FFD550;}
	.st59{fill:#00C3AD;}
	.st60{fill:#FF4653;}
	.st61{fill:#D8CE19;}
	.st62{fill:#C1E5DE;}
	.st63{fill:#FFE4D2;}
	.st64{fill:#DFF4F0;}
	.st65{fill:#A2E0EB;}
	.st66{fill:#1B3493;}
	.st67{fill:none;stroke:#FFFFFF;stroke-width:2;stroke-linecap:round;stroke-linejoin:round;stroke-miterlimit:10;}
	.st68{fill:#F15A24;}
	.st69{fill:#F7931E;}
	.st70{fill:#58595B;}
	.st71{fill:#114E15;}
	.st72{fill:#013D01;}
	.st73{fill:#E9C608;}
	.st74{fill:#043B00;}
	.st75{fill:#D8A43E;}
	.st76{clip-path:url(#SVGID_00000121971386069225710970000015149831094848262319_);}
	.st77{fill:#F49630;}
	.st78{clip-path:url(#SVGID_00000129176461410679138640000005814657918110179752_);}
	.st79{clip-path:url(#SVGID_00000085965731786002642670000013027560721320595636_);}
	.st80{clip-path:url(#SVGID_00000009550160262926011660000008351242310111405463_);}
	.st81{clip-path:url(#SVGID_00000072964187593879616970000012166508061628303028_);}
	.st82{fill-rule:evenodd;clip-rule:evenodd;fill:#FF6600;}
	.st83{fill-rule:evenodd;clip-rule:evenodd;fill:#05174F;}
	.st84{fill:#05174F;}
	.st85{opacity:0.42;fill:url(#SVGID_00000116914450902656103100000011386773774449400493_);enable-background:new    ;}
	.st86{opacity:0.42;fill:url(#SVGID_00000153666070068316443810000003868921950579515830_);enable-background:new    ;}
	.st87{fill:url(#SVGID_00000051375602399310763810000016339238284389233834_);}
	.st88{fill:url(#SVGID_00000124154393104563442550000014576584556273008035_);}
	.st89{opacity:0.64;fill:url(#SVGID_00000017497567486709163390000004642538789143432873_);enable-background:new    ;}
	.st90{opacity:0.75;fill:url(#SVGID_00000099643481420279548350000014359439023389185952_);enable-background:new    ;}
	.st91{fill:url(#SVGID_00000183242688866739415590000006964104945336749469_);}
	.st92{fill:url(#SVGID_00000096767558090865762910000018099935547086932635_);}
	.st93{opacity:0.76;fill:url(#SVGID_00000016765279045787788440000000930500319162778774_);enable-background:new    ;}
	.st94{opacity:0.75;fill:url(#SVGID_00000075147600926343629790000007962481745823554742_);enable-background:new    ;}
	.st95{fill:url(#SVGID_00000151505955577270683610000000079321403532472993_);}
	.st96{opacity:0.42;fill:url(#SVGID_00000057867615520045645480000015118973217104236424_);enable-background:new    ;}
	.st97{opacity:0.42;fill:url(#SVGID_00000161626186265002135400000012196172185497330056_);enable-background:new    ;}
	.st98{clip-path:url(#SVGID_00000071521092448362860910000010524721265374789786_);}
	.st99{fill:#1ED7FE;}
	.st100{clip-path:url(#SVGID_00000125578306948463724180000006415229958327434420_);}
	.st101{clip-path:url(#SVGID_00000002358027963131167330000011841769144725833127_);}
	.st102{fill:#000056;}
	.st103{clip-path:url(#SVGID_00000092421887894251674480000008784583417447800246_);}
	.st104{enable-background:new    ;}
	.st105{fill:#053272;}
	.st106{fill:none;stroke:#053272;stroke-width:4;stroke-miterlimit:10;}
	.st107{fill:url(#SVGID_00000057831399898772863840000009489925306756737414_);}
	.st108{fill:url(#SVGID_00000015335472316921039360000009375448197472251826_);}
	.st109{fill:url(#SVGID_00000119089454698082619250000014067500561761728169_);}
	.st110{fill:url(#SVGID_00000022552172376970406570000013820333147819695497_);}
	.st111{fill:url(#SVGID_00000178911299972646039870000009350358111936515236_);}
	.st112{fill:url(#SVGID_00000018209325966910095170000010127626848337622172_);}
	.st113{fill:url(#SVGID_00000087370183226824051120000005120596783052571027_);}
	.st114{fill:url(#SVGID_00000072248089771171843820000010623164403153899679_);}
	.st115{fill:url(#SVGID_00000026843461739736402540000015726703029144662669_);}
	.st116{fill:url(#SVGID_00000079448358857782442470000017201610854207599496_);}
	.st117{fill:url(#SVGID_00000018195582513767444210000012666058409429357757_);}
	.st118{fill:url(#SVGID_00000152945694880824060070000011836360934026786214_);}
	.st119{fill:url(#SVGID_00000164477424668874896690000018275009227311685817_);}
	.st120{fill:url(#SVGID_00000182520176580173332460000015137440074571798195_);}
	.st121{fill:url(#SVGID_00000172418149754024998800000007552148272796389803_);}
	.st122{fill:url(#SVGID_00000126295980613192011410000013678770810311013556_);}
	.st123{fill:url(#SVGID_00000009584972141920576560000003238611413035241360_);}
	.st124{fill:url(#SVGID_00000158020162087909570760000016977621256489259689_);}
	.st125{fill:url(#SVGID_00000108292948577169773260000005539115476782261127_);}
	.st126{fill:url(#SVGID_00000087377719872367043340000008823254835642145460_);}
	.st127{fill:url(#SVGID_00000157270899441107104000000011179983348917251488_);}
	.st128{fill:url(#SVGID_00000002360488548490460680000018210590315751555717_);}
	.st129{fill:url(#SVGID_00000076603572040099360700000006080458027843942275_);}
	.st130{fill:url(#SVGID_00000067955001231371722030000014917086256027280260_);}
	.st131{fill:url(#SVGID_00000066508999923161308060000018314073754821810608_);}
	.st132{fill:url(#SVGID_00000119109434604543225370000017522480772062686643_);}
	.st133{fill:url(#SVGID_00000052824300086083764210000000850272555049169547_);}
	.st134{fill:url(#SVGID_00000073709390050602216820000000633468034836471966_);}
	.st135{fill:url(#SVGID_00000009575316767390174750000004172884745291604099_);}
	.st136{fill:none;stroke:#FEF73D;stroke-linecap:round;stroke-miterlimit:10;}
	.st137{fill:#FF189C;}
	.st138{fill:none;stroke:#FF189C;stroke-miterlimit:10;}
	.st139{fill:none;stroke:#00EFF1;stroke-linecap:round;stroke-miterlimit:10;}
	.st140{fill:#00EFF1;}
	.st141{fill:#FFA022;}
	.st142{fill:#0C103A;}
	.st143{fill-rule:evenodd;clip-rule:evenodd;fill:#5D9541;}
	.st144{fill-rule:evenodd;clip-rule:evenodd;fill:#F06021;}
	.st145{fill-rule:evenodd;clip-rule:evenodd;fill:#69BC60;}
	.st146{fill-rule:evenodd;clip-rule:evenodd;fill:#F6951C;}
	.st147{fill:#F6951C;}
	.st148{fill:#69BC60;}
	.st149{font-family:'Gadugi-Bold';}
	.st150{font-size:10px;}
	.st151{letter-spacing:1;}
	.st152{fill:url(#SVGID_00000029047720252246389830000011258610001992054952_);}
	.st153{fill:url(#SVGID_00000087385571936316288320000002475448625715927694_);}
	.st154{fill:url(#SVGID_00000176727322202773912260000015707595136855469230_);}
	.st155{fill:url(#SVGID_00000065055055785661662560000002662289363616985004_);}
	.st156{fill:url(#SVGID_00000005237621361425518800000002369511608241643654_);}
	.st157{fill:url(#SVGID_00000093891188345765926400000017592788040707660435_);}
	.st158{fill:url(#SVGID_00000140003683010550255350000004881182042878974868_);}
	.st159{fill:url(#SVGID_00000181077310377212963560000013385738653609503911_);}
	.st160{fill:url(#SVGID_00000090276036259802616050000008449154524622565820_);}
	.st161{fill:url(#SVGID_00000154391871296873315070000012791098083600711554_);}
	.st162{fill:url(#SVGID_00000169523793485160313850000014096655937086465454_);}
	.st163{fill:url(#SVGID_00000121268783926036913730000008593818961929331870_);}
	.st164{fill:url(#SVGID_00000081642247145793626310000014712729617388853398_);}
	.st165{fill:url(#SVGID_00000025409046832025036700000002633860711434065065_);}
	.st166{fill:url(#SVGID_00000154387994398303702500000012486304137655195813_);}
	.st167{fill:url(#SVGID_00000124845090049776509080000008841641326067414403_);}
	.st168{fill:url(#SVGID_00000023249183736059207660000015671184288432211884_);}
	.st169{fill:url(#SVGID_00000082367024403205345660000008909135825560350632_);}
	.st170{fill:url(#SVGID_00000170247222298122620590000015508512836867027621_);}
	.st171{fill:url(#SVGID_00000126313804958538449920000009265728680857029258_);}
	.st172{fill:url(#SVGID_00000022559318154522691800000000449103358001632699_);}
	.st173{fill:url(#SVGID_00000143619323565286990800000009238280961171581106_);}
	.st174{fill-rule:evenodd;clip-rule:evenodd;fill:#512100;}
	.st175{fill-rule:evenodd;clip-rule:evenodd;fill:#006D62;}
	.st176{fill-rule:evenodd;clip-rule:evenodd;}
	.st177{fill-rule:evenodd;clip-rule:evenodd;fill:#00A1F5;}
	.st178{fill-rule:evenodd;clip-rule:evenodd;fill:#FACFAB;}
	.st179{fill-rule:evenodd;clip-rule:evenodd;fill:#F29673;}
	.st180{fill-rule:evenodd;clip-rule:evenodd;fill:#FFFFFF;}
	.st181{fill-rule:evenodd;clip-rule:evenodd;fill:#333333;}
	.st182{fill-rule:evenodd;clip-rule:evenodd;fill:#BD4D00;}
	.st183{fill-rule:evenodd;clip-rule:evenodd;fill:#B2B2B2;}
	.st184{fill-rule:evenodd;clip-rule:evenodd;fill:#F2CC29;}
	.st185{fill-rule:evenodd;clip-rule:evenodd;fill:#005C9C;}
	.st186{fill-rule:evenodd;clip-rule:evenodd;fill:#8AC900;}
	.st187{fill-rule:evenodd;clip-rule:evenodd;fill:#808080;}
	.st188{fill-rule:evenodd;clip-rule:evenodd;fill:#CFA605;}
	.st189{fill-rule:evenodd;clip-rule:evenodd;fill:#666666;}
	.st190{fill-rule:evenodd;clip-rule:evenodd;fill:#CCCCCC;}
	.st191{fill:#960000;}
	.st192{fill:#00A1F5;}
	.st193{fill:url(#SVGID_00000147903206562150165710000012041464309963517319_);}
	.st194{fill:url(#SVGID_00000105389612275246879770000017599106260731452291_);}
	.st195{opacity:0.51;fill:url(#SVGID_00000101068540245720590580000011525548265019158705_);}
	.st196{fill:url(#SVGID_00000072281481930929303130000000518882683792952506_);}
	.st197{fill:url(#SVGID_00000065067363528820996100000008793758300423623083_);}
	.st198{fill:url(#SVGID_00000093171094909161241110000012422312283580333751_);}
	.st199{opacity:0.35;fill:url(#SVGID_00000108288850174141440940000002123792028588613286_);}
	.st200{opacity:0.35;fill:url(#SVGID_00000169548342062172960610000002509678976702306494_);}
	.st201{fill:#F06021;}
	.st202{fill-rule:evenodd;clip-rule:evenodd;fill:url(#SVGID_00000152231022673545141690000009856173508897735869_);}
	.st203{fill-rule:evenodd;clip-rule:evenodd;fill:url(#SVGID_00000176035974375692146840000004111450089653341364_);}
	.st204{fill-rule:evenodd;clip-rule:evenodd;fill:url(#SVGID_00000159461490351825308110000007694813727437646763_);}
	.st205{fill-rule:evenodd;clip-rule:evenodd;fill:url(#SVGID_00000137839618020566538130000016280104042023356295_);}
	.st206{fill-rule:evenodd;clip-rule:evenodd;fill:url(#SVGID_00000047020191309579306730000014094809464900507537_);}
	.st207{fill-rule:evenodd;clip-rule:evenodd;fill:url(#SVGID_00000022523251240022642380000012091348325850552497_);}
	.st208{fill-rule:evenodd;clip-rule:evenodd;fill:url(#SVGID_00000065780743063120748430000011890358519981537700_);}
	.st209{fill-rule:evenodd;clip-rule:evenodd;fill:url(#SVGID_00000173875516231664660680000002858189627992714934_);}
	.st210{fill-rule:evenodd;clip-rule:evenodd;fill:url(#SVGID_00000158728345790440266640000017527144997884194966_);}
	.st211{fill-rule:evenodd;clip-rule:evenodd;fill:url(#SVGID_00000015345126111264294010000008674056562556539264_);}
	.st212{fill-rule:evenodd;clip-rule:evenodd;fill:url(#SVGID_00000062881462030836658930000003246535480005421230_);}
	.st213{fill-rule:evenodd;clip-rule:evenodd;fill:url(#SVGID_00000083076045755432866080000016631969995320000438_);}
	.st214{fill-rule:evenodd;clip-rule:evenodd;fill:url(#SVGID_00000022553641198841485220000003030235412934684343_);}
	.st215{opacity:0.5;fill-rule:evenodd;clip-rule:evenodd;fill:#5D0101;enable-background:new    ;}
	.st216{fill:#E11B22;}
	.st217{fill:#959595;}
	.st218{fill:#003359;}
	.st219{fill:#1779C1;}
	.st220{fill:#0EB17C;}
	.st221{fill:#2B2353;}
	.st222{fill:#BE264E;}
	.st223{fill:#EAA41C;}
	.st224{fill:#1F9EF3;}
	.st225{fill:#0267A3;}
	.st226{fill:#FFEC00;}
	.st227{fill:#00A0E0;}
	.st228{fill:#E3007E;}
	.st229{fill:none;stroke:#000000;stroke-width:2;stroke-miterlimit:10;}
	.st230{fill:#FF9E80;}
	.st231{fill:#414151;}
	.st232{fill:#2B295E;}
	.st233{fill:#CCCCCC;}
	.st234{fill:#FF8C5C;}
	.st235{fill:#DBA21C;}
	.st236{fill:#EDDBB2;}
	.st237{fill:#DEC58B;}
	.st238{fill:#997113;}
	.st239{fill:#B88817;}
	.st240{fill:#003400;stroke:#8EC13D;stroke-width:4;stroke-miterlimit:10;}
	.st241{fill:#8EC13D;}
	.st242{fill:url(#XMLID_00000058560517928366601290000008143682566208999851_);}
	.st243{fill:url(#SVGID_00000179615278086093275420000013549234932077434501_);}
	.st244{fill:url(#SVGID_00000149376833780974109250000002597507829848633484_);}
	.st245{fill:url(#SVGID_00000164511266313710359960000015937134264563960222_);}
	.st246{fill:url(#SVGID_00000054244303727583311100000002317926326145258408_);}
	.st247{fill:url(#SVGID_00000085251907491229347220000004607145241190470551_);}
	.st248{fill:url(#SVGID_00000065036661058731891520000012317664368310838680_);}
	.st249{fill:url(#SVGID_00000150804710174401296650000002240945675809107351_);}
	.st250{fill:url(#SVGID_00000071518518279320101840000007477951760397635003_);}
	.st251{fill:url(#SVGID_00000089549729327077047330000005445426074898632343_);}
	.st252{fill:url(#SVGID_00000070833733064250046860000001084400913879232687_);}
	.st253{fill:url(#SVGID_00000163792039895538223670000016175815742519263639_);}
	.st254{fill:#1C75BC;}
	.st255{fill:#46920C;}
	.st256{fill:#FF9400;}
	.st257{fill:url(#SVGID_00000082368341255950279690000003562007215271606405_);}
	.st258{fill:url(#SVGID_00000093876805664964629280000017386845523028356772_);}
	.st259{fill:url(#SVGID_00000005255653395877469230000006652631676523280797_);}
	.st260{fill:url(#SVGID_00000008867925525709143730000004010814622448912525_);}
	.st261{fill:url(#SVGID_00000119820945257776291550000010907379699457903510_);}
	.st262{fill:url(#SVGID_00000062891101476531393640000002807089917534766219_);}
	.st263{fill:url(#SVGID_00000033366070219493067590000017040948378360904615_);}
	.st264{fill:url(#SVGID_00000115495781199801478510000016072382670477951645_);}
	.st265{fill:url(#SVGID_00000120533809434177909230000007655535110273272488_);}
	.st266{fill:url(#SVGID_00000112627013688286661480000005958151507520559020_);}
	.st267{fill:url(#SVGID_00000052783637375318008630000012819858544053128616_);}
	.st268{fill:url(#SVGID_00000061442984860393768820000015846281339143970477_);}
	.st269{fill:url(#SVGID_00000044881064521702399660000016751222705329636992_);}
	.st270{fill:url(#SVGID_00000006684060137931910460000007643936585559417525_);}
	.st271{fill:url(#SVGID_00000115498023799389463180000000360874259599734413_);}
	.st272{fill:url(#SVGID_00000115473512399107349600000013314324271479195570_);}
	.st273{fill:url(#SVGID_00000147903749602399579710000010269140945731763632_);}
	.st274{fill:url(#SVGID_00000010280712925711979790000007920469050912963247_);}
	.st275{fill:url(#SVGID_00000089547570940445695320000007144619934318418049_);}
	.st276{fill:#2F3F67;}
	.st277{fill:#C97F32;}
	.st278{fill:none;stroke:#C97F32;stroke-width:1.2891;stroke-miterlimit:10;}
	.st279{fill:url(#XMLID_00000182525129977528297690000003482548783986270885_);}
	.st280{fill:#00548B;}
	.st281{fill:#004368;}
	.st282{fill:#94070A;}
	.st283{fill:url(#XMLID_00000072267777204633160600000000613461402138039951_);}
	.st284{fill:url(#XMLID_00000150782159050155637350000013957660270692204162_);}
	.st285{fill:#B34A06;}
	.st286{fill:#A2B5C4;}
	.st287{fill:#192940;}
	.st288{fill:url(#SVGID_00000166649050643359472760000010144282675685042105_);}
	.st289{fill:url(#SVGID_00000122686645770788780850000017521477230121042065_);}
	.st290{fill:url(#SVGID_00000059277544288856740670000001253247913635293573_);}
	.st291{opacity:0.93;fill:url(#SVGID_00000114772662714717928120000010499720502576359866_);}
	.st292{opacity:0.93;fill:url(#SVGID_00000058588369495586890020000005152983594195052451_);}
	.st293{opacity:0.93;fill:url(#SVGID_00000042017711337591142990000015459266418573260713_);}
	.st294{opacity:0.93;fill:url(#SVGID_00000065754551843663543200000008320504435241865096_);}
	.st295{fill:url(#SVGID_00000002364199150969053060000016895020008776673669_);}
	.st296{stroke:#000000;stroke-width:0.75;stroke-miterlimit:10;}
</style>
<g>
	<g>
		<path class="st142" d="M277.4,167.29v-3.94h-16.1v3.94h5.91v15.48h4.27v-15.48H277.4z M258.03,182.78v-19.43h-4.22v11.96
			l-9.1-11.96h-3.94v19.43h4.22v-12.35l9.41,12.35H258.03z M236.94,182.78v-3.8h-10.55v-4.08h9.16v-3.8h-9.16v-3.94h10.41v-3.8
			h-14.63v19.43H236.94z M217.51,182.78v-19.43h-4.61l-5.11,8.21l-5.11-8.21h-4.61v19.43h4.22v-12.6l5.41,8.21h0.11l5.47-8.3v12.68
			H217.51z M194.81,167.29v-3.94h-16.1v3.94h5.91v15.48h4.27v-15.48H194.81z M175.25,182.78v-19.43h-4.27v19.43H175.25z
			 M166.42,174.31v-10.96h-4.27v11.13c0,1.55-0.37,2.72-1.11,3.5c-0.74,0.78-1.77,1.17-3.08,1.17c-1.31,0-2.34-0.4-3.08-1.21
			c-0.74-0.8-1.11-2-1.11-3.59v-10.99h-4.27v11.1c0,2.87,0.75,5.02,2.25,6.47c1.5,1.44,3.55,2.16,6.16,2.16
			c1.29,0,2.47-0.18,3.52-0.54c1.06-0.36,1.95-0.91,2.69-1.64c0.74-0.73,1.31-1.64,1.71-2.73
			C166.22,177.08,166.42,175.79,166.42,174.31z M141.61,170.04c0,0.83-0.28,1.5-0.85,2c-0.56,0.5-1.37,0.75-2.43,0.75h-4.33v-5.58
			h4.25c1.05,0,1.88,0.23,2.47,0.69c0.59,0.46,0.89,1.16,0.89,2.08V170.04z M146.53,182.78l-4.74-6.94
			c1.24-0.46,2.24-1.19,3.01-2.18c0.77-0.99,1.15-2.27,1.15-3.84v-0.06c0-2.02-0.64-3.59-1.93-4.72c-1.29-1.13-3.08-1.69-5.4-1.69
			h-8.88v19.43h4.27v-6.22h3.36l4.16,6.22H146.53z M126.32,179.64l-2.72-2.75c-0.76,0.7-1.52,1.26-2.29,1.66
			c-0.77,0.41-1.71,0.61-2.82,0.61c-0.83,0-1.59-0.16-2.29-0.49c-0.69-0.32-1.29-0.76-1.78-1.32c-0.49-0.55-0.87-1.2-1.15-1.94
			c-0.28-0.74-0.42-1.53-0.42-2.36v-0.06c0-0.83,0.14-1.61,0.42-2.35c0.28-0.73,0.67-1.37,1.17-1.93c0.5-0.56,1.1-0.99,1.79-1.3
			c0.69-0.31,1.45-0.47,2.26-0.47c0.98,0,1.86,0.19,2.65,0.58c0.79,0.39,1.56,0.93,2.32,1.61l2.72-3.14
			c-0.45-0.44-0.93-0.85-1.44-1.22c-0.52-0.37-1.08-0.68-1.69-0.94c-0.61-0.26-1.29-0.46-2.04-0.61c-0.75-0.15-1.58-0.22-2.48-0.22
			c-1.5,0-2.87,0.26-4.11,0.79c-1.24,0.53-2.3,1.25-3.19,2.16c-0.89,0.92-1.58,1.98-2.08,3.19c-0.5,1.21-0.75,2.51-0.75,3.9v0.06
			c0,1.39,0.25,2.69,0.75,3.91c0.5,1.22,1.19,2.28,2.08,3.18c0.89,0.9,1.94,1.6,3.16,2.12c1.22,0.52,2.54,0.78,3.97,0.78
			c0.94,0,1.8-0.08,2.55-0.23c0.76-0.16,1.46-0.39,2.1-0.69c0.64-0.31,1.23-0.67,1.76-1.1
			C125.31,180.66,125.82,180.18,126.32,179.64z M105.43,182.78v-3.8H94.88v-4.08h9.16v-3.8h-9.16v-3.94h10.41v-3.8H90.66v19.43
			H105.43z M82.48,170.04c0,0.83-0.28,1.5-0.85,2c-0.56,0.5-1.37,0.75-2.43,0.75h-4.33v-5.58h4.25c1.05,0,1.88,0.23,2.47,0.69
			c0.59,0.46,0.89,1.16,0.89,2.08V170.04z M87.39,182.78l-4.74-6.94c1.24-0.46,2.24-1.19,3.01-2.18c0.77-0.99,1.15-2.27,1.15-3.84
			v-0.06c0-2.02-0.64-3.59-1.93-4.72c-1.29-1.13-3.09-1.69-5.4-1.69H70.6v19.43h4.27v-6.22h3.36l4.16,6.22H87.39z"/>
		<path class="st143" d="M154.79,149.1c-17.45-5.94-31.27-19.75-37.21-37.21l3.66-0.98c4.83,16.28,18.31,28.84,35.11,32.37
			L154.79,149.1z"/>
		<path class="st144" d="M223.51,125.83c-10.69,15.94-28.88,26.43-49.51,26.43c-3.96,0-7.83-0.39-11.57-1.12l1.85-6.9
			c0.57,0.02,1.13,0.03,1.71,0.03c18.81,0,35.02-11.13,42.4-27.17L223.51,125.83z"/>
		<path class="st145" d="M170.05,51.13c-1.34-0.11-2.69-0.18-4.07-0.18c-25.77,0-46.66,20.89-46.66,46.66
			c0,1.88,0.11,3.73,0.33,5.55l-4.1,1.1c-0.74-3.74-1.13-7.61-1.13-11.57c0-31.58,24.57-57.41,55.63-59.45v-3.37l17.17,13.31
			l-17.17,13.98V51.13z"/>
		<path class="st146" d="M183.9,33.93c28.19,4.71,49.68,29.22,49.68,58.76c0,9.44-2.2,18.37-6.11,26.31l-16.37-9.45
			c1-3.81,1.54-7.81,1.54-11.93c0-20-12.58-37.06-30.26-43.69l13.31-10.84L183.9,33.93z"/>
		<path class="st147" d="M186.38,102.28c2.81,1.04,5.05,3.25,6.13,6.04c1.25-3.24,1.94-6.76,1.94-10.44
			c0-7.99-3.24-15.23-8.48-20.47c-5.24-5.24-12.47-8.48-20.47-8.48c-7.99,0-15.23,3.24-20.47,8.48c-5.24,5.24-8.48,12.48-8.48,20.47
			c0,3.68,0.69,7.2,1.94,10.44c1.08-2.79,3.33-5,6.14-6.04c-1.9-1.2-3.17-3.31-3.17-5.73c0-3.73,3.03-6.76,6.76-6.76
			c3.73,0,6.76,3.03,6.76,6.76c0,2.41-1.27,4.53-3.17,5.73c2.32,0.86,4.27,2.53,5.48,4.66c-2.82,2.38-4.56,5.93-4.56,9.76v7.17
			c0.76,0.37,1.54,0.72,2.34,1.02v-8.19c0-4.48,2.86-8.31,6.84-9.79c-1.9-1.2-3.17-3.31-3.17-5.73c0-3.74,3.03-6.76,6.76-6.76
			c3.74,0,6.76,3.03,6.76,6.76c0,2.41-1.27,4.53-3.17,5.73c3.98,1.47,6.84,5.31,6.84,9.79v8.19c0.8-0.31,1.58-0.65,2.34-1.02v-7.17
			c0-3.84-1.73-7.38-4.56-9.76c1.21-2.13,3.15-3.8,5.48-4.66c-1.91-1.2-3.17-3.31-3.17-5.73c0-3.73,3.03-6.76,6.76-6.76
			c3.74,0,6.76,3.03,6.76,6.76C189.55,98.97,188.28,101.08,186.38,102.28 M165.51,62.5c9.77,0,18.61,3.96,25.02,10.36
			c6.4,6.4,10.36,15.25,10.36,25.02c0,9.77-3.96,18.61-10.36,25.02c-6.4,6.4-15.25,10.36-25.02,10.36
			c-9.77,0-18.61-3.96-25.01-10.36c-6.4-6.4-10.36-15.25-10.36-25.02c0-9.77,3.96-18.61,10.36-25.02
			C146.89,66.46,155.74,62.5,165.51,62.5z"/>
	</g>
	<text transform="matrix(1 0 0 1 108.7158 195.7491)" class="st148 st149 st150 st151">CONNECTING TALENT</text>
</g>
</svg>
