<?xml version="1.0" encoding="utf-8"?>
<!-- Generator: Adobe Illustrator 27.8.1, SVG Export Plug-In . SVG Version: 6.00 Build 0)  -->
<svg version="1.1" id="Layer_1" xmlns="http://www.w3.org/2000/svg" xmlns:xlink="http://www.w3.org/1999/xlink" x="0px" y="0px"
	 viewBox="0 0 348 228" style="enable-background:new 0 0 348 228;" xml:space="preserve">
<style type="text/css">
	.st0{fill:#D6EADE;}
	.st1{fill:#03487C;}
	.st2{fill:#1B1B4C;}
	.st3{fill-rule:evenodd;clip-rule:evenodd;fill:#204F7A;}
	.st4{fill-rule:evenodd;clip-rule:evenodd;fill:#50A4FF;}
	.st5{fill:#002649;}
	.st6{fill:#E6E7E8;stroke:#CFCFCF;stroke-width:0.1061;}
	.st7{fill:#333333;}
	.st8{fill:#0F5998;}
	.st9{fill:#277FC1;}
	.st10{fill-rule:evenodd;clip-rule:evenodd;fill:#277FC1;}
	.st11{fill-rule:evenodd;clip-rule:evenodd;fill:#083D6D;}
	.st12{fill:#DDB462;}
	
		.st13{clip-path:url(#SVGID_00000173865538815420730190000005244216023765414785_);fill:url(#SVGID_00000158746895991594747490000006034068478022502306_);}
	.st14{fill:#FFFFFF;}
	.st15{fill:url(#SVGID_00000181055758670783968790000010738588585423014058_);}
	.st16{fill:#224685;}
	.st17{fill:none;}
	.st18{fill:#FFC73B;}
	.st19{fill:#11233F;}
	.st20{fill:#5267FF;}
	.st21{fill-rule:evenodd;clip-rule:evenodd;fill:#72342E;}
	.st22{fill:#72342E;}
	.st23{fill:#FFF2E2;}
	.st24{fill:#FFF2E2;stroke:#72342E;stroke-width:0.75;stroke-miterlimit:10;}
	.st25{fill:#FFCC99;}
	.st26{fill:#469CB2;}
	.st27{fill:url(#XMLID_00000008128858989750522060000004705756006859136696_);}
	.st28{fill:url(#XMLID_00000052822823921162013020000012882637715140697514_);}
	.st29{fill:url(#XMLID_00000038386801893488976090000009363777131186201744_);}
	.st30{fill:url(#XMLID_00000029757547750704991330000013717659667906798988_);}
	.st31{fill:url(#XMLID_00000161603215386378435230000001052383423878542212_);}
	.st32{fill:url(#XMLID_00000088814694067420585120000007695139584224784527_);}
	.st33{fill:url(#XMLID_00000152964713935651893740000005325181623816174003_);}
	.st34{fill:url(#XMLID_00000130636157785802547500000000252554069676319672_);}
	.st35{fill:url(#XMLID_00000125580789655210409690000010618081526591220633_);}
	.st36{fill:url(#XMLID_00000042708443161635153060000011490696580395292562_);}
	.st37{fill:url(#XMLID_00000070821397692849237430000009533074466999327905_);}
	.st38{fill:url(#XMLID_00000028293680862576014180000012415678534899051704_);}
	.st39{fill:url(#XMLID_00000113344056623873293020000009710368541233456796_);}
	.st40{fill:url(#XMLID_00000052801590132861207320000018217859527171676290_);}
	.st41{fill:url(#XMLID_00000181792377979118808120000013198282706108739466_);}
	.st42{fill:url(#SVGID_00000121250039893225040280000013940369220149353858_);}
	.st43{fill:url(#SVGID_00000105389812680750088340000017574182596880080796_);}
	.st44{fill:url(#SVGID_00000103261506036328989570000003866307212585726143_);}
	.st45{fill:url(#SVGID_00000140009337954824140190000003537320471347596470_);}
	.st46{fill:url(#SVGID_00000092456275121821452320000004594073641464447153_);}
	.st47{fill:url(#SVGID_00000152945980178944173810000011024659648112473485_);}
	.st48{fill:url(#SVGID_00000119109404231371345790000010836596980656558253_);}
	.st49{fill:url(#SVGID_00000042715605945650312500000000881869500522111399_);}
	.st50{fill:url(#SVGID_00000107547104772194787520000001395511320552429492_);}
	.st51{fill:url(#SVGID_00000068653589705685991210000002324545732683720379_);}
	.st52{fill:url(#SVGID_00000035507765960897741360000007130702717595396501_);}
	.st53{fill:url(#SVGID_00000065754635248608554270000002541362809861971589_);}
	.st54{fill:url(#SVGID_00000158020284087622934740000007173863562920421767_);}
	.st55{fill:url(#SVGID_00000056388372438952296410000004244177441592103826_);}
	.st56{fill:#30325E;}
	.st57{fill:#FF7859;}
	.st58{fill:#FFD550;}
	.st59{fill:#00C3AD;}
	.st60{fill:#FF4653;}
	.st61{fill:#D8CE19;}
	.st62{fill:#C1E5DE;}
	.st63{fill:#FFE4D2;}
	.st64{fill:#DFF4F0;}
	.st65{fill:#A2E0EB;}
	.st66{fill:#1B3493;}
	.st67{fill:none;stroke:#FFFFFF;stroke-width:2;stroke-linecap:round;stroke-linejoin:round;stroke-miterlimit:10;}
	.st68{fill:#F15A24;}
	.st69{fill:#F7931E;}
	.st70{fill:#58595B;}
	.st71{fill:#114E15;}
	.st72{fill:#013D01;}
	.st73{fill:#E9C608;}
	.st74{fill:#043B00;}
	.st75{fill:#D8A43E;}
	.st76{clip-path:url(#SVGID_00000072265356406219882150000006601582397560376254_);}
	.st77{fill:#F49630;}
	.st78{clip-path:url(#SVGID_00000061456837335986476720000012506594522533792644_);}
	.st79{clip-path:url(#SVGID_00000152250539612401293350000002031539474841249195_);}
	.st80{clip-path:url(#SVGID_00000173876290526795453770000016801226360627770527_);}
	.st81{clip-path:url(#SVGID_00000029031670745341059820000011184709611016787623_);}
	.st82{fill-rule:evenodd;clip-rule:evenodd;fill:#FF6600;}
	.st83{fill-rule:evenodd;clip-rule:evenodd;fill:#05174F;}
	.st84{fill:#05174F;}
	.st85{opacity:0.42;fill:url(#SVGID_00000116203700245837573300000004571801909733965742_);enable-background:new    ;}
	.st86{opacity:0.42;fill:url(#SVGID_00000051348162848113086360000010252077469079523253_);enable-background:new    ;}
	.st87{fill:url(#SVGID_00000055695763690456856100000014088712529856629693_);}
	.st88{fill:url(#SVGID_00000126301734648477968850000005540324397134928546_);}
	.st89{opacity:0.64;fill:url(#SVGID_00000152984987453591238090000011235720282814997680_);enable-background:new    ;}
	.st90{opacity:0.75;fill:url(#SVGID_00000058588782439443182380000011322454594084037284_);enable-background:new    ;}
	.st91{fill:url(#SVGID_00000137119530994764179790000013318187845840545164_);}
	.st92{fill:url(#SVGID_00000144335872135728737260000008822383798619664525_);}
	.st93{opacity:0.76;fill:url(#SVGID_00000033346909416746662020000017014295529590746041_);enable-background:new    ;}
	.st94{opacity:0.75;fill:url(#SVGID_00000168808414560882695590000017645841562467126974_);enable-background:new    ;}
	.st95{fill:url(#SVGID_00000177480314562298038400000005696019927853471663_);}
	.st96{opacity:0.42;fill:url(#SVGID_00000124153050278477599380000009209776590610107290_);enable-background:new    ;}
	.st97{opacity:0.42;fill:url(#SVGID_00000070118981772880177430000006512525895124976541_);enable-background:new    ;}
	.st98{clip-path:url(#SVGID_00000147219965705555908260000000668676268761570191_);}
	.st99{fill:#1ED7FE;}
	.st100{clip-path:url(#SVGID_00000111184901363317007630000018065445141068410043_);}
	.st101{clip-path:url(#SVGID_00000165230780319651133100000011842479996533138080_);}
	.st102{fill:#000056;}
	.st103{clip-path:url(#SVGID_00000084507525430551482560000017475705526426056358_);}
	.st104{enable-background:new    ;}
	.st105{fill:#053272;}
	.st106{fill:none;stroke:#053272;stroke-width:4;stroke-miterlimit:10;}
	.st107{fill:url(#SVGID_00000054983689294224118020000002586167440580166827_);}
	.st108{fill:url(#SVGID_00000005249659968278005200000012596097035784988807_);}
	.st109{fill:url(#SVGID_00000111904489742835675250000007239450537782041224_);}
	.st110{fill:url(#SVGID_00000015314356164826771000000006766086293303633829_);}
	.st111{fill:url(#SVGID_00000157289991354766297620000015887089094505956024_);}
	.st112{fill:url(#SVGID_00000146474238732123313680000002818756656321933470_);}
	.st113{fill:url(#SVGID_00000101795659435664504800000003326891505867676291_);}
	.st114{fill:url(#SVGID_00000077301285546305528910000014223322794642696368_);}
	.st115{fill:url(#SVGID_00000166668827149239223650000017289370443674390705_);}
	.st116{fill:url(#SVGID_00000031923923137926164090000009463477739014705829_);}
	.st117{fill:url(#SVGID_00000115503093343582192070000003057004138162064015_);}
	.st118{fill:url(#SVGID_00000142135816074959071150000006100856464814325417_);}
	.st119{fill:url(#SVGID_00000029045617657415573650000007808797815641376896_);}
	.st120{fill:url(#SVGID_00000049201145735000845660000005633628045091526552_);}
	.st121{fill:url(#SVGID_00000007399298340507561260000011340088362109747643_);}
	.st122{fill:url(#SVGID_00000036960878402691319560000012343254529048323717_);}
	.st123{fill:url(#SVGID_00000132781096479499786040000004730073942488712101_);}
	.st124{fill:url(#SVGID_00000043453631051357466640000007171906454046040221_);}
	.st125{fill:url(#SVGID_00000163052136665744457250000017719372278382312860_);}
	.st126{fill:url(#SVGID_00000006698337284069002820000005815626337737271972_);}
	.st127{fill:url(#SVGID_00000077300186429273842090000008125802178764722867_);}
	.st128{fill:url(#SVGID_00000036938888455241083740000013352597440767567233_);}
	.st129{fill:url(#SVGID_00000041285464325960388620000010183019713840141232_);}
	.st130{fill:url(#SVGID_00000029760410352594461900000016917329202043449220_);}
	.st131{fill:url(#SVGID_00000124157251969083663990000005852478584431585957_);}
	.st132{fill:url(#SVGID_00000018936557054171009460000009699898531006218889_);}
	.st133{fill:url(#SVGID_00000152259538792233686410000016650065705002704545_);}
	.st134{fill:url(#SVGID_00000030467483602878672750000007887637890389924031_);}
	.st135{fill:url(#SVGID_00000049917536970492320830000012128584885530725054_);}
	.st136{fill:none;stroke:#FEF73D;stroke-linecap:round;stroke-miterlimit:10;}
	.st137{fill:#FF189C;}
	.st138{fill:none;stroke:#FF189C;stroke-miterlimit:10;}
	.st139{fill:none;stroke:#00EFF1;stroke-linecap:round;stroke-miterlimit:10;}
	.st140{fill:#00EFF1;}
	.st141{fill:#FFA022;}
	.st142{fill:#0C103A;}
	.st143{fill-rule:evenodd;clip-rule:evenodd;fill:#5D9541;}
	.st144{fill-rule:evenodd;clip-rule:evenodd;fill:#F06021;}
	.st145{fill-rule:evenodd;clip-rule:evenodd;fill:#69BC60;}
	.st146{fill-rule:evenodd;clip-rule:evenodd;fill:#F6951C;}
	.st147{fill:#F6951C;}
	.st148{fill:url(#SVGID_00000104695042662836084900000013651709799878072466_);}
	.st149{fill:url(#SVGID_00000087405300151379234700000014178262128386933141_);}
	.st150{fill:url(#SVGID_00000180367980568205206410000001964634239084076990_);}
	.st151{fill:url(#SVGID_00000181079112088016814730000007958201691453644989_);}
	.st152{fill:url(#SVGID_00000150825013636616347850000000124981004203430583_);}
	.st153{fill:url(#SVGID_00000106853108055020648160000004376029851854598318_);}
	.st154{fill:url(#SVGID_00000145751844771600237090000003161177788146806921_);}
	.st155{fill:url(#SVGID_00000057843203587697674670000003209405638183873163_);}
	.st156{fill:url(#SVGID_00000085217468284662901460000002402326735066346158_);}
	.st157{fill:url(#SVGID_00000103978117723374778050000002903851396230983578_);}
	.st158{fill:url(#SVGID_00000072958951769044449590000016786721389375813032_);}
	.st159{fill:url(#SVGID_00000139254902570981066460000013356134703961348789_);}
	.st160{fill:url(#SVGID_00000165198231805784578060000017111491391213811128_);}
	.st161{fill:url(#SVGID_00000093887845704675376030000010094650164769307776_);}
	.st162{fill:url(#SVGID_00000098943568371891993220000002305794723522137267_);}
	.st163{fill:url(#SVGID_00000081642085485766952200000004962485135746588060_);}
	.st164{fill:url(#SVGID_00000058552149807009540800000007637697456171701383_);}
	.st165{fill:url(#SVGID_00000009556352388404469700000009202887324444702377_);}
	.st166{fill:url(#SVGID_00000004540108706694362840000011268635931280277690_);}
	.st167{fill:url(#SVGID_00000011015151603765382550000010826560722935976328_);}
	.st168{fill:url(#SVGID_00000021079813532233514230000014283399247635490187_);}
	.st169{fill:url(#SVGID_00000111903454109550192260000003203934686760055470_);}
	.st170{fill-rule:evenodd;clip-rule:evenodd;fill:#512100;}
	.st171{fill-rule:evenodd;clip-rule:evenodd;fill:#006D62;}
	.st172{fill-rule:evenodd;clip-rule:evenodd;}
	.st173{fill-rule:evenodd;clip-rule:evenodd;fill:#00A1F5;}
	.st174{fill-rule:evenodd;clip-rule:evenodd;fill:#FACFAB;}
	.st175{fill-rule:evenodd;clip-rule:evenodd;fill:#F29673;}
	.st176{fill-rule:evenodd;clip-rule:evenodd;fill:#FFFFFF;}
	.st177{fill-rule:evenodd;clip-rule:evenodd;fill:#333333;}
	.st178{fill-rule:evenodd;clip-rule:evenodd;fill:#BD4D00;}
	.st179{fill-rule:evenodd;clip-rule:evenodd;fill:#B2B2B2;}
	.st180{fill-rule:evenodd;clip-rule:evenodd;fill:#F2CC29;}
	.st181{fill-rule:evenodd;clip-rule:evenodd;fill:#005C9C;}
	.st182{fill-rule:evenodd;clip-rule:evenodd;fill:#8AC900;}
	.st183{fill-rule:evenodd;clip-rule:evenodd;fill:#808080;}
	.st184{fill-rule:evenodd;clip-rule:evenodd;fill:#CFA605;}
	.st185{fill-rule:evenodd;clip-rule:evenodd;fill:#666666;}
	.st186{fill-rule:evenodd;clip-rule:evenodd;fill:#CCCCCC;}
	.st187{fill:#960000;}
	.st188{fill:url(#SVGID_00000043436039644687993980000010427729727419355071_);}
	.st189{fill:url(#SVGID_00000032627601963804085410000014418249682135566001_);}
	.st190{opacity:0.51;fill:url(#SVGID_00000157992942903394691730000016404701010964218019_);}
	.st191{fill:url(#SVGID_00000007391202255044124720000016614212450019525794_);}
	.st192{fill:url(#SVGID_00000018953485416555091310000014872059552399118226_);}
	.st193{fill:url(#SVGID_00000136380676055880734580000017817492748113917612_);}
	.st194{opacity:0.35;fill:url(#SVGID_00000007419408293803149790000011872502690632414632_);}
	.st195{opacity:0.35;fill:url(#SVGID_00000155849031181225057980000000296695317580243848_);}
	.st196{fill:#F06021;}
	.st197{fill-rule:evenodd;clip-rule:evenodd;fill:url(#SVGID_00000139271862119361721340000002753486329887188924_);}
	.st198{fill-rule:evenodd;clip-rule:evenodd;fill:url(#SVGID_00000088097562645946127000000016065708814563922341_);}
	.st199{fill-rule:evenodd;clip-rule:evenodd;fill:url(#SVGID_00000008871918205631738450000005382725902864865211_);}
	.st200{fill-rule:evenodd;clip-rule:evenodd;fill:url(#SVGID_00000153696239261703903350000015258600336948073875_);}
	.st201{fill-rule:evenodd;clip-rule:evenodd;fill:url(#SVGID_00000178919003232297145050000000845383716831859090_);}
	.st202{fill-rule:evenodd;clip-rule:evenodd;fill:url(#SVGID_00000007389682446769604460000003250212714307799173_);}
	.st203{fill-rule:evenodd;clip-rule:evenodd;fill:url(#SVGID_00000067940681718456154480000006722803185604956330_);}
	.st204{fill-rule:evenodd;clip-rule:evenodd;fill:url(#SVGID_00000047782687151884700320000003111246359375456950_);}
	.st205{fill-rule:evenodd;clip-rule:evenodd;fill:url(#SVGID_00000141429677944304353060000007560391297895064242_);}
	.st206{fill-rule:evenodd;clip-rule:evenodd;fill:url(#SVGID_00000067195820240756527460000012591000661604689059_);}
	.st207{fill-rule:evenodd;clip-rule:evenodd;fill:url(#SVGID_00000128469976393332759820000002814674056063553947_);}
	.st208{fill-rule:evenodd;clip-rule:evenodd;fill:url(#SVGID_00000152959806986504201600000015094937496430771127_);}
	.st209{fill-rule:evenodd;clip-rule:evenodd;fill:url(#SVGID_00000029014063994647844410000007887720196586683795_);}
	.st210{opacity:0.5;fill-rule:evenodd;clip-rule:evenodd;fill:#5D0101;enable-background:new    ;}
	.st211{fill:#E11B22;}
	.st212{fill:#959595;}
	.st213{fill:#003359;}
	.st214{fill:#1779C1;}
	.st215{fill:#0EB17C;}
	.st216{fill:#2B2353;}
	.st217{fill:#BE264E;}
	.st218{fill:#EAA41C;}
	.st219{fill:#1F9EF3;}
	.st220{fill:#0267A3;}
	.st221{fill:#FFEC00;}
	.st222{fill:#00A0E0;}
	.st223{fill:#E3007E;}
	.st224{fill:none;stroke:#000000;stroke-width:2;stroke-miterlimit:10;}
	.st225{fill:#FF9E80;}
	.st226{fill:#414151;}
	.st227{fill:#2B295E;}
	.st228{fill:#CCCCCC;}
	.st229{fill:#FF8C5C;}
	.st230{fill:#DBA21C;}
	.st231{fill:#EDDBB2;}
	.st232{fill:#DEC58B;}
	.st233{fill:#997113;}
	.st234{fill:#B88817;}
	.st235{fill:#003400;stroke:#8EC13D;stroke-width:4;stroke-miterlimit:10;}
	.st236{fill:#8EC13D;}
	.st237{fill:url(#XMLID_00000126324737405268486010000001534985114975091884_);}
	.st238{fill:url(#SVGID_00000029759675321242889620000011697029687143113093_);}
	.st239{fill:url(#SVGID_00000114781630881351327390000018397701820598834623_);}
	.st240{fill:url(#SVGID_00000114756810687947353640000013648940829811370149_);}
	.st241{fill:url(#SVGID_00000181775788352399413090000000950344815560941495_);}
	.st242{fill:url(#SVGID_00000147182629610644815010000013218398757884612737_);}
	.st243{fill:url(#SVGID_00000010269490453743142210000013412855715085852817_);}
	.st244{fill:url(#SVGID_00000162354670390173658930000015085035006039250067_);}
	.st245{fill:url(#SVGID_00000150080916568658464400000013875766273671584185_);}
	.st246{fill:url(#SVGID_00000151541010595108699190000007015847072554396091_);}
	.st247{fill:url(#SVGID_00000140715274101688741300000010219456664488192384_);}
	.st248{fill:url(#SVGID_00000154398415312730385570000007592441615476333465_);}
	.st249{fill:#1C75BC;}
	.st250{fill:#46920C;}
	.st251{fill:#FF9400;}
	.st252{fill:url(#SVGID_00000003798073881397465120000009530008380308150703_);}
	.st253{fill:url(#SVGID_00000041268810177115591600000008623689119570796960_);}
	.st254{fill:url(#SVGID_00000016765768470657415480000001348122763463361470_);}
	.st255{fill:url(#SVGID_00000071520396826401411020000011707061947980756905_);}
	.st256{fill:url(#SVGID_00000174582321763088956470000002318229026164276364_);}
	.st257{fill:url(#SVGID_00000071559884438985888110000001313349970239153852_);}
	.st258{fill:url(#SVGID_00000015322745644884789630000002062797888580494211_);}
	.st259{fill:url(#SVGID_00000167370428871397101050000007730539595555940532_);}
	.st260{fill:url(#SVGID_00000065047057085175093660000002423190056944087196_);}
	.st261{fill:url(#SVGID_00000071554138362057302430000017739981995959370686_);}
	.st262{fill:url(#SVGID_00000125562972301549008970000017877523784393347762_);}
	.st263{fill:url(#SVGID_00000070829299530379474450000009160680048649699974_);}
	.st264{fill:url(#SVGID_00000085949170061907195290000015545054457196009370_);}
	.st265{fill:url(#SVGID_00000139263463638359925350000011147099578550256791_);}
	.st266{fill:url(#SVGID_00000021812608912037360310000007083996715097979038_);}
	.st267{fill:url(#SVGID_00000013890055446572114300000012775876584940069559_);}
	.st268{fill:url(#SVGID_00000048501088361378182130000000351443666569106878_);}
	.st269{fill:url(#SVGID_00000114781971006060485900000010215666075304527782_);}
	.st270{fill:url(#SVGID_00000064336859367321833110000002137533736085669815_);}
	.st271{fill:#2F3F67;}
	.st272{fill:#C97F32;}
	.st273{fill:none;stroke:#C97F32;stroke-width:1.2891;stroke-miterlimit:10;}
	.st274{fill:url(#XMLID_00000139258700088777408370000006029408449781821858_);}
	.st275{fill:#00548B;}
	.st276{fill:#004368;}
	.st277{fill:#94070A;}
	.st278{fill:url(#XMLID_00000163030815559757738590000018432372320942946957_);}
	.st279{fill:url(#XMLID_00000084531650525073073200000002726194390133029808_);}
	.st280{fill:#B34A06;}
	.st281{fill:#A2B5C4;}
	.st282{fill:#192940;}
	.st283{fill:url(#SVGID_00000179632047452456311020000012846850208267428992_);}
	.st284{fill:url(#SVGID_00000050620809766953437870000005648222473999196051_);}
	.st285{fill:url(#SVGID_00000075125932979561763550000003911381879027723167_);}
	.st286{opacity:0.93;fill:url(#SVGID_00000153703615197145038750000008570884012297681297_);}
	.st287{opacity:0.93;fill:url(#SVGID_00000089536527048137082880000000662223148834830782_);}
	.st288{opacity:0.93;fill:url(#SVGID_00000084492751123114635540000002980643196754242711_);}
	.st289{opacity:0.93;fill:url(#SVGID_00000147201618885886416290000013032832158737420706_);}
	.st290{fill:url(#SVGID_00000011727302063065477510000014425067554146550405_);}
	.st291{stroke:#000000;stroke-width:0.75;stroke-miterlimit:10;}
</style>
<g id="BACKGROUND_00000127033575414001739440000005355320689140620978_">
	<rect x="-0.26" width="348" height="228"/>
</g>
<g>
	<g>
		<path class="st141" d="M92.79,144.07h6.71v4.44h-6.71v9.11h8.44v4.44H87.91v-31.1h13.33v4.44h-8.44V144.07z"/>
		<path class="st141" d="M108.7,139.54h-0.09v22.52h-4.4v-31.1h6.13l4.93,18.61h0.09v-18.61h4.35v31.1h-5.02L108.7,139.54z"/>
		<path class="st141" d="M130.55,144.74h6.84v9.86c0,4.98-2.49,7.82-7.29,7.82c-4.8,0-7.29-2.84-7.29-7.82v-16.17
			c0-4.98,2.49-7.82,7.29-7.82c4.8,0,7.29,2.84,7.29,7.82v3.02h-4.62v-3.33c0-2.22-0.98-3.07-2.53-3.07c-1.55,0-2.53,0.84-2.53,3.07
			v16.79c0,2.22,0.98,3.02,2.53,3.02c1.56,0,2.53-0.8,2.53-3.02v-5.73h-2.22V144.74z"/>
		<path class="st141" d="M140.55,130.97h4.89v31.1h-4.89V130.97z"/>
		<path class="st141" d="M153.43,139.54h-0.09v22.52h-4.4v-31.1h6.13l4.93,18.61h0.09v-18.61h4.35v31.1h-5.02L153.43,139.54z"/>
		<path class="st141" d="M172.85,144.07h6.71v4.44h-6.71v9.11h8.44v4.44h-13.33v-31.1h13.33v4.44h-8.44V144.07z"/>
		<path class="st141" d="M189.19,144.07h6.71v4.44h-6.71v9.11h8.44v4.44h-13.33v-31.1h13.33v4.44h-8.44V144.07z"/>
		<path class="st141" d="M210.87,162.06c-0.27-0.8-0.44-1.29-0.44-3.82v-4.89c0-2.89-0.98-3.95-3.2-3.95h-1.69v12.66h-4.89v-31.1
			h7.37c5.06,0,7.24,2.35,7.24,7.15v2.44c0,3.2-1.02,5.24-3.2,6.26v0.09c2.44,1.02,3.24,3.33,3.24,6.57v4.8
			c0,1.51,0.04,2.62,0.53,3.78L210.87,162.06L210.87,162.06z M205.54,135.41v9.55h1.91c1.82,0,2.93-0.8,2.93-3.29v-3.07
			c0-2.22-0.76-3.2-2.49-3.2L205.54,135.41L205.54,135.41z"/>
		<path class="st141" d="M218.51,130.97h4.89v31.1h-4.89V130.97z"/>
		<path class="st141" d="M231.4,139.54h-0.09v22.52h-4.4v-31.1h6.13l4.93,18.61h0.09v-18.61h4.35v31.1h-5.02L231.4,139.54z"/>
		<path class="st141" d="M253.25,144.74h6.84v9.86c0,4.98-2.49,7.82-7.29,7.82c-4.8,0-7.29-2.84-7.29-7.82v-16.17
			c0-4.98,2.49-7.82,7.29-7.82c4.8,0,7.29,2.84,7.29,7.82v3.02h-4.62v-3.33c0-2.22-0.98-3.07-2.53-3.07c-1.55,0-2.53,0.84-2.53,3.07
			v16.79c0,2.22,0.98,3.02,2.53,3.02c1.56,0,2.53-0.8,2.53-3.02v-5.73h-2.22V144.74z"/>
	</g>
	<g>
		<g>
			<path class="st14" d="M98.07,86.26h3.15v1.07h-4.48v-5.79h4.37v1.07h-3.04V86.26z M97.97,83.87h2.79v1.05h-2.79V83.87z"/>
			<path class="st14" d="M105.58,87.44c-0.46,0-0.91-0.06-1.34-0.19c-0.43-0.12-0.77-0.29-1.03-0.48l0.45-1.01
				c0.24,0.18,0.53,0.32,0.88,0.43c0.34,0.11,0.69,0.17,1.03,0.17c0.26,0,0.48-0.03,0.64-0.08c0.16-0.05,0.28-0.13,0.36-0.22
				c0.08-0.09,0.12-0.2,0.12-0.32c0-0.15-0.06-0.28-0.18-0.37c-0.12-0.09-0.28-0.17-0.48-0.22c-0.2-0.06-0.42-0.11-0.66-0.17
				c-0.24-0.05-0.48-0.12-0.72-0.19c-0.24-0.07-0.46-0.17-0.66-0.3c-0.2-0.12-0.36-0.29-0.48-0.49c-0.12-0.2-0.18-0.45-0.18-0.76
				c0-0.33,0.09-0.63,0.26-0.91c0.18-0.27,0.45-0.49,0.81-0.65c0.36-0.16,0.81-0.24,1.36-0.24c0.36,0,0.72,0.04,1.08,0.13
				c0.36,0.09,0.67,0.21,0.93,0.38l-0.42,1.01c-0.26-0.15-0.53-0.26-0.8-0.33c-0.28-0.07-0.54-0.11-0.79-0.11
				c-0.26,0-0.48,0.03-0.64,0.09c-0.16,0.06-0.28,0.14-0.35,0.24c-0.07,0.1-0.11,0.21-0.11,0.33c0,0.15,0.06,0.28,0.18,0.37
				c0.12,0.09,0.28,0.17,0.48,0.22c0.2,0.05,0.42,0.1,0.66,0.16c0.24,0.05,0.48,0.12,0.72,0.19c0.24,0.08,0.45,0.18,0.65,0.29
				c0.2,0.12,0.36,0.28,0.48,0.48c0.12,0.2,0.19,0.45,0.19,0.75c0,0.33-0.09,0.62-0.27,0.89c-0.18,0.27-0.45,0.49-0.81,0.65
				C106.58,87.35,106.12,87.44,105.58,87.44z"/>
			<path class="st14" d="M111.44,87.34v-4.7h-1.85v-1.09h5.04v1.09h-1.85v4.7H111.44z"/>
			<path class="st14" d="M116.73,87.34v-5.79h2.63c0.63,0,1.18,0.12,1.66,0.36c0.48,0.24,0.85,0.58,1.12,1.01
				c0.27,0.43,0.4,0.94,0.4,1.52c0,0.58-0.14,1.09-0.4,1.53c-0.27,0.43-0.65,0.77-1.12,1.01c-0.48,0.24-1.03,0.36-1.66,0.36
				L116.73,87.34L116.73,87.34z M118.07,86.25h1.21c0.39,0,0.72-0.07,1-0.22c0.28-0.15,0.5-0.36,0.66-0.63
				c0.16-0.27,0.24-0.59,0.24-0.95c0-0.37-0.08-0.69-0.24-0.96c-0.16-0.27-0.38-0.48-0.66-0.62c-0.28-0.15-0.62-0.22-1-0.22h-1.21
				V86.25z"/>
		</g>
		<g>
			<path class="st14" d="M225.75,87.34v-0.87l2.23-2.11c0.18-0.16,0.31-0.3,0.39-0.43c0.09-0.12,0.14-0.24,0.17-0.35
				c0.03-0.11,0.04-0.21,0.04-0.3c0-0.23-0.08-0.4-0.23-0.53c-0.15-0.13-0.39-0.19-0.69-0.19c-0.25,0-0.47,0.05-0.68,0.15
				c-0.2,0.1-0.38,0.25-0.52,0.44l-0.97-0.63c0.21-0.33,0.52-0.59,0.92-0.79c0.4-0.19,0.85-0.29,1.37-0.29
				c0.43,0,0.81,0.07,1.13,0.21c0.33,0.14,0.58,0.33,0.76,0.59c0.18,0.26,0.27,0.56,0.27,0.91c0,0.18-0.03,0.37-0.08,0.55
				c-0.05,0.19-0.15,0.38-0.29,0.59c-0.14,0.2-0.34,0.43-0.61,0.69l-1.85,1.74l-0.26-0.48h3.27v1.09L225.75,87.34L225.75,87.34z"/>
			<path class="st14" d="M234.54,87.44c-0.47,0-0.9-0.12-1.27-0.35c-0.37-0.23-0.67-0.57-0.88-1.02c-0.22-0.44-0.33-0.99-0.33-1.62
				c0-0.64,0.11-1.18,0.33-1.62c0.22-0.44,0.51-0.78,0.88-1.02c0.37-0.23,0.79-0.35,1.27-0.35c0.48,0,0.91,0.12,1.28,0.35
				c0.37,0.23,0.67,0.57,0.88,1.02c0.22,0.44,0.33,0.99,0.33,1.62c0,0.64-0.11,1.18-0.33,1.62c-0.22,0.44-0.51,0.78-0.88,1.02
				C235.44,87.32,235.02,87.44,234.54,87.44z M234.54,86.31c0.23,0,0.42-0.06,0.59-0.19c0.17-0.13,0.3-0.33,0.4-0.61
				c0.1-0.28,0.14-0.63,0.14-1.07c0-0.44-0.05-0.79-0.14-1.07s-0.23-0.48-0.4-0.61c-0.17-0.13-0.36-0.19-0.59-0.19
				c-0.22,0-0.41,0.06-0.58,0.19c-0.17,0.13-0.31,0.33-0.4,0.61c-0.1,0.28-0.15,0.63-0.15,1.07c0,0.44,0.05,0.79,0.15,1.07
				c0.1,0.28,0.23,0.48,0.4,0.61C234.13,86.25,234.32,86.31,234.54,86.31z"/>
			<path class="st14" d="M238.97,87.34v-0.87l2.23-2.11c0.18-0.16,0.31-0.3,0.39-0.43c0.09-0.12,0.14-0.24,0.17-0.35
				c0.03-0.11,0.04-0.21,0.04-0.3c0-0.23-0.08-0.4-0.23-0.53c-0.15-0.13-0.39-0.19-0.69-0.19c-0.25,0-0.47,0.05-0.68,0.15
				c-0.2,0.1-0.38,0.25-0.52,0.44l-0.97-0.63c0.21-0.33,0.52-0.59,0.92-0.79c0.4-0.19,0.85-0.29,1.37-0.29
				c0.43,0,0.81,0.07,1.13,0.21c0.33,0.14,0.58,0.33,0.76,0.59c0.18,0.26,0.27,0.56,0.27,0.91c0,0.18-0.03,0.37-0.08,0.55
				c-0.05,0.19-0.15,0.38-0.29,0.59c-0.14,0.2-0.34,0.43-0.61,0.69l-1.85,1.74l-0.26-0.48h3.27v1.09L238.97,87.34L238.97,87.34z"/>
			<path class="st14" d="M245.13,86.12v-0.9l2.73-3.67h1.41l-2.66,3.67l-0.66-0.19h4.55v1.09L245.13,86.12L245.13,86.12z
				 M248.24,87.34v-1.22l0.04-1.09v-1.08h1.26v3.39H248.24z"/>
		</g>
	</g>
	<g>
		<g>
			<path class="st14" d="M204.56,78.33c-0.8-3.76-2.29-7.28-4.31-10.41l3.72-4.9l-8.11-8.1l-4.9,3.72
				c-1.53-0.99-3.16-1.85-4.86-2.57l-2.39,5.63c9.06,3.8,15.42,12.75,15.42,23.19c0,13.88-11.26,25.13-25.14,25.13
				c-2.1,0-4.15-0.26-6.1-0.75l-2.99,5.52c0.83,0.25,1.68,0.47,2.53,0.66l0.83,6.09h11.46l0.83-6.09c3.77-0.81,7.28-2.29,10.41-4.31
				l4.9,3.72l8.11-8.1l-3.72-4.9c2.03-3.13,3.51-6.64,4.31-10.41l6.09-0.83V79.16L204.56,78.33z"/>
		</g>
		<g>
			<path class="st141" d="M148.86,84.9c0-13.88,11.25-25.14,25.14-25.14c2.65,0,5.2,0.41,7.6,1.17l2.4-5.66
				c-1.12-0.38-2.27-0.69-3.44-0.94l-0.83-6.09h-11.46l-0.83,6.09c-3.77,0.81-7.28,2.29-10.41,4.31l-4.9-3.72l-8.11,8.1l3.72,4.9
				c-2.03,3.13-3.51,6.64-4.31,10.41l-6.09,0.83v11.46l6.09,0.83c0.81,3.76,2.29,7.28,4.31,10.41l-3.72,4.9l8.11,8.1l4.9-3.72
				c1.82,1.17,3.76,2.17,5.81,2.95l2.95-5.44C155.94,105.26,148.86,95.9,148.86,84.9z"/>
		</g>
		<g>
			<polygon class="st141" points="183.14,57.29 162.71,57.29 158.41,82.92 166.62,82.92 161.15,117.21 183.04,76.87 174.83,76.87 
							"/>
		</g>
	</g>
	<g>
		<path class="st14" d="M128.17,177.41v-7h1.99c0.61,0,1.09,0.15,1.44,0.44s0.53,0.68,0.53,1.16c0,0.4-0.11,0.74-0.32,1.04
			s-0.51,0.5-0.89,0.62v0.02c0.47,0.06,0.85,0.23,1.13,0.54c0.28,0.3,0.42,0.69,0.42,1.17c0,0.6-0.21,1.08-0.64,1.46
			s-0.97,0.56-1.63,0.56H128.17z M128.99,171.15v2.26h0.84c0.45,0,0.8-0.11,1.06-0.33c0.26-0.22,0.39-0.52,0.39-0.92
			c0-0.68-0.45-1.02-1.34-1.02H128.99z M128.99,174.15v2.52h1.11c0.48,0,0.86-0.11,1.12-0.34s0.4-0.54,0.4-0.94
			c0-0.83-0.56-1.24-1.69-1.24H128.99z"/>
		<path class="st14" d="M139.34,177.41h-0.8v-0.79h-0.02c-0.33,0.61-0.85,0.91-1.54,0.91c-1.19,0-1.79-0.71-1.79-2.13v-2.99h0.8
			v2.86c0,1.05,0.4,1.58,1.21,1.58c0.39,0,0.71-0.14,0.96-0.43c0.25-0.29,0.38-0.67,0.38-1.13v-2.88h0.8V177.41z"/>
		<path class="st14" d="M142.86,171.14c-0.14,0-0.27-0.05-0.37-0.15s-0.15-0.22-0.15-0.37s0.05-0.27,0.15-0.37
			c0.1-0.1,0.22-0.15,0.37-0.15c0.15,0,0.27,0.05,0.37,0.15c0.1,0.1,0.15,0.22,0.15,0.37c0,0.14-0.05,0.27-0.15,0.37
			S143.01,171.14,142.86,171.14z M143.26,177.41h-0.8v-5h0.8V177.41z"/>
		<path class="st14" d="M147.18,177.41h-0.8v-7.4h0.8V177.41z"/>
		<path class="st14" d="M154.57,177.41h-0.8v-0.85h-0.02c-0.37,0.64-0.94,0.97-1.72,0.97c-0.63,0-1.13-0.22-1.51-0.67
			c-0.38-0.45-0.56-1.06-0.56-1.83c0-0.83,0.21-1.49,0.62-1.99s0.97-0.75,1.67-0.75c0.69,0,1.19,0.27,1.5,0.81h0.02v-3.1h0.8V177.41
			z M153.77,175.15v-0.74c0-0.4-0.13-0.75-0.4-1.03s-0.61-0.42-1.02-0.42c-0.49,0-0.87,0.18-1.15,0.54s-0.42,0.85-0.42,1.48
			c0,0.58,0.13,1.03,0.4,1.37c0.27,0.33,0.63,0.5,1.08,0.5c0.45,0,0.81-0.16,1.09-0.48S153.77,175.64,153.77,175.15z"/>
		<path class="st14" d="M158.1,171.14c-0.14,0-0.27-0.05-0.37-0.15s-0.15-0.22-0.15-0.37s0.05-0.27,0.15-0.37
			c0.1-0.1,0.22-0.15,0.37-0.15c0.15,0,0.27,0.05,0.37,0.15c0.1,0.1,0.15,0.22,0.15,0.37c0,0.14-0.05,0.27-0.15,0.37
			S158.24,171.14,158.1,171.14z M158.49,177.41h-0.8v-5h0.8V177.41z"/>
		<path class="st14" d="M165.76,177.41h-0.8v-2.85c0-1.06-0.39-1.59-1.16-1.59c-0.4,0-0.73,0.15-0.99,0.45
			c-0.26,0.3-0.39,0.68-0.39,1.14v2.85h-0.8v-5h0.8v0.83h0.02c0.38-0.63,0.92-0.95,1.64-0.95c0.55,0,0.97,0.18,1.25,0.53
			c0.29,0.35,0.43,0.86,0.43,1.53V177.41z"/>
		<path class="st14" d="M173.04,177.01c0,1.84-0.88,2.75-2.64,2.75c-0.62,0-1.16-0.12-1.62-0.35v-0.8c0.56,0.31,1.1,0.47,1.61,0.47
			c1.23,0,1.85-0.65,1.85-1.96v-0.55h-0.02c-0.38,0.64-0.95,0.96-1.72,0.96c-0.62,0-1.12-0.22-1.5-0.67
			c-0.38-0.45-0.57-1.04-0.57-1.79c0-0.85,0.2-1.53,0.61-2.03s0.97-0.75,1.68-0.75c0.67,0,1.17,0.27,1.5,0.81h0.02v-0.69h0.8V177.01
			z M172.24,175.15v-0.74c0-0.4-0.13-0.74-0.4-1.02s-0.6-0.42-1-0.42c-0.49,0-0.88,0.18-1.16,0.54c-0.28,0.36-0.42,0.86-0.42,1.51
			c0,0.56,0.13,1,0.4,1.34c0.27,0.33,0.62,0.5,1.07,0.5c0.45,0,0.81-0.16,1.1-0.48S172.24,175.65,172.24,175.15z"/>
		<path class="st14" d="M180.5,177.41v-7h1.93c2.47,0,3.7,1.14,3.7,3.41c0,1.08-0.34,1.95-1.03,2.6c-0.69,0.66-1.6,0.98-2.75,0.98
			H180.5z M181.32,171.15v5.52h1.04c0.92,0,1.63-0.25,2.14-0.74s0.77-1.19,0.77-2.09c0-1.79-0.95-2.69-2.86-2.69H181.32z"/>
		<path class="st14" d="M191.52,173.22c-0.14-0.11-0.34-0.16-0.61-0.16c-0.34,0-0.63,0.16-0.86,0.48s-0.34,0.76-0.34,1.32v2.55h-0.8
			v-5h0.8v1.03h0.02c0.11-0.35,0.29-0.63,0.52-0.82c0.23-0.2,0.5-0.29,0.79-0.29c0.21,0,0.37,0.02,0.48,0.07V173.22z"/>
		<path class="st14" d="M197.9,175.11h-3.53c0.01,0.56,0.16,0.99,0.45,1.29s0.68,0.45,1.18,0.45c0.56,0,1.08-0.19,1.55-0.56v0.75
			c-0.44,0.32-1.02,0.48-1.74,0.48c-0.71,0-1.26-0.23-1.67-0.68c-0.4-0.45-0.61-1.09-0.61-1.92c0-0.78,0.22-1.41,0.66-1.9
			c0.44-0.49,0.99-0.73,1.64-0.73s1.16,0.21,1.52,0.63s0.54,1.01,0.54,1.76V175.11z M197.08,174.43c0-0.46-0.11-0.82-0.33-1.08
			s-0.52-0.39-0.92-0.39c-0.38,0-0.7,0.13-0.96,0.41s-0.43,0.62-0.49,1.06H197.08z"/>
		<path class="st14" d="M204.19,177.41h-0.8v-0.78h-0.02c-0.35,0.6-0.86,0.9-1.54,0.9c-0.5,0-0.89-0.13-1.17-0.4
			s-0.42-0.61-0.42-1.05c0-0.93,0.55-1.48,1.65-1.63l1.5-0.21c0-0.85-0.34-1.27-1.03-1.27c-0.6,0-1.15,0.21-1.63,0.62v-0.82
			c0.49-0.31,1.06-0.47,1.7-0.47c1.18,0,1.76,0.62,1.76,1.87V177.41z M203.39,174.88l-1.21,0.17c-0.37,0.05-0.65,0.14-0.84,0.28
			c-0.19,0.13-0.28,0.37-0.28,0.7c0,0.24,0.09,0.44,0.26,0.6c0.17,0.16,0.41,0.23,0.7,0.23c0.4,0,0.73-0.14,0.98-0.42
			c0.26-0.28,0.39-0.63,0.39-1.06V174.88z"/>
		<path class="st14" d="M214.3,177.41h-0.8v-2.87c0-0.55-0.08-0.95-0.26-1.2s-0.46-0.37-0.86-0.37c-0.34,0-0.63,0.16-0.87,0.47
			s-0.36,0.69-0.36,1.12v2.85h-0.8v-2.97c0-0.98-0.38-1.47-1.14-1.47c-0.35,0-0.64,0.15-0.87,0.44c-0.23,0.29-0.34,0.68-0.34,1.15
			v2.85h-0.8v-5h0.8v0.79h0.02c0.35-0.61,0.87-0.91,1.55-0.91c0.34,0,0.64,0.1,0.89,0.29c0.25,0.19,0.43,0.44,0.52,0.75
			c0.37-0.69,0.92-1.04,1.66-1.04c1.1,0,1.65,0.68,1.65,2.04V177.41z"/>
		<path class="st14" d="M217.01,177.23v-0.86c0.44,0.32,0.92,0.48,1.44,0.48c0.7,0,1.05-0.23,1.05-0.7c0-0.13-0.03-0.25-0.09-0.34
			c-0.06-0.09-0.14-0.17-0.24-0.25s-0.22-0.14-0.36-0.19c-0.14-0.06-0.29-0.12-0.45-0.18c-0.22-0.09-0.42-0.18-0.58-0.27
			c-0.17-0.09-0.31-0.19-0.42-0.3c-0.11-0.11-0.2-0.24-0.25-0.38c-0.06-0.14-0.09-0.31-0.09-0.5c0-0.23,0.05-0.44,0.16-0.62
			c0.11-0.18,0.25-0.33,0.43-0.45c0.18-0.12,0.38-0.21,0.61-0.28s0.47-0.09,0.71-0.09c0.43,0,0.82,0.08,1.16,0.22v0.81
			c-0.37-0.24-0.79-0.36-1.27-0.36c-0.15,0-0.28,0.02-0.41,0.05c-0.12,0.04-0.22,0.08-0.31,0.14c-0.09,0.06-0.15,0.14-0.2,0.22
			c-0.05,0.09-0.07,0.18-0.07,0.29c0,0.13,0.02,0.24,0.07,0.33c0.05,0.09,0.12,0.17,0.21,0.23c0.09,0.07,0.2,0.13,0.33,0.19
			c0.13,0.06,0.28,0.12,0.44,0.18c0.22,0.08,0.42,0.17,0.6,0.26c0.18,0.09,0.33,0.19,0.45,0.3c0.12,0.11,0.22,0.24,0.29,0.39
			c0.07,0.15,0.1,0.32,0.1,0.52c0,0.25-0.05,0.46-0.16,0.64c-0.11,0.18-0.25,0.33-0.44,0.45c-0.18,0.12-0.39,0.21-0.63,0.27
			c-0.24,0.06-0.49,0.09-0.75,0.09C217.84,177.53,217.39,177.43,217.01,177.23z"/>
	</g>
</g>
</svg>
