<?xml version="1.0" encoding="utf-8"?>
<!-- Generator: Adobe Illustrator 27.8.1, SVG Export Plug-In . SVG Version: 6.00 Build 0)  -->
<svg version="1.1" id="Layer_1" xmlns="http://www.w3.org/2000/svg" xmlns:xlink="http://www.w3.org/1999/xlink" x="0px" y="0px"
	 viewBox="0 0 348 228" style="enable-background:new 0 0 348 228;" xml:space="preserve">
<style type="text/css">
	.st0{fill:#D6EADE;}
	.st1{fill:#03487C;}
	.st2{fill:#1B1B4C;}
	.st3{fill-rule:evenodd;clip-rule:evenodd;fill:#204F7A;}
	.st4{fill-rule:evenodd;clip-rule:evenodd;fill:#50A4FF;}
	.st5{fill:#002649;}
	.st6{fill:#E6E7E8;stroke:#CFCFCF;stroke-width:0.1061;}
	.st7{fill:#333333;}
	.st8{fill:#0F5998;}
	.st9{fill:#277FC1;}
	.st10{fill-rule:evenodd;clip-rule:evenodd;fill:#277FC1;}
	.st11{fill-rule:evenodd;clip-rule:evenodd;fill:#083D6D;}
	.st12{fill:#DDB462;}
	
		.st13{clip-path:url(#SVGID_00000039117430694043323660000014829185835797467823_);fill:url(#SVGID_00000155134383214723244480000006434883247567861668_);}
	.st14{fill:#FFFFFF;}
	.st15{fill:url(#SVGID_00000051384397663583174820000011584293739618327939_);}
	.st16{fill:#224685;}
	.st17{fill:none;}
	.st18{fill:#FFC73B;}
	.st19{fill:#11233F;}
	.st20{fill:#5267FF;}
	.st21{fill-rule:evenodd;clip-rule:evenodd;fill:#72342E;}
	.st22{fill:#72342E;}
	.st23{fill:#FFF2E2;}
	.st24{fill:#FFF2E2;stroke:#72342E;stroke-width:0.75;stroke-miterlimit:10;}
	.st25{fill:#FFCC99;}
	.st26{fill:#469CB2;}
	.st27{fill:url(#XMLID_00000141426591032734132250000014556819458115063965_);}
	.st28{fill:url(#XMLID_00000006689308135826156740000001139793718414021283_);}
	.st29{fill:url(#XMLID_00000058591107152141579440000016481824639192033171_);}
	.st30{fill:url(#XMLID_00000085229674585572122690000006330821889858949042_);}
	.st31{fill:url(#XMLID_00000024691776242431233280000006899830543812164752_);}
	.st32{fill:url(#XMLID_00000082369187791047677780000003023647955522874035_);}
	.st33{fill:url(#XMLID_00000013158500116758411260000013468230864709429653_);}
	.st34{fill:url(#XMLID_00000105408737113499874080000003193020456063781552_);}
	.st35{fill:url(#XMLID_00000145044002648703235620000011598966333762228396_);}
	.st36{fill:url(#XMLID_00000098199865331124161070000008644769803033794996_);}
	.st37{fill:url(#XMLID_00000076603519125703520420000013969411018557894840_);}
	.st38{fill:url(#XMLID_00000036938495181830915300000003776535299510495143_);}
	.st39{fill:url(#XMLID_00000077314839341516852410000005109912743623875763_);}
	.st40{fill:url(#XMLID_00000103973717414660190900000003404624068744344982_);}
	.st41{fill:url(#XMLID_00000092429996952421427540000004838126726403841667_);}
	.st42{fill:url(#SVGID_00000082344946279896105970000017301373066177689494_);}
	.st43{fill:url(#SVGID_00000053510869907277121300000011892632814599798430_);}
	.st44{fill:url(#SVGID_00000163061322855447590920000014353117044916042651_);}
	.st45{fill:url(#SVGID_00000168827740190770208480000012011543276763647923_);}
	.st46{fill:url(#SVGID_00000129905617224616314840000005963782590526017693_);}
	.st47{fill:url(#SVGID_00000123401081073908330560000001621310564337325707_);}
	.st48{fill:url(#SVGID_00000141456265415204628390000010874254495263178928_);}
	.st49{fill:url(#SVGID_00000041981716775651478970000004526488296967871402_);}
	.st50{fill:url(#SVGID_00000148645335615688989820000017024011383610564736_);}
	.st51{fill:url(#SVGID_00000044888093555952688060000010682975809847000509_);}
	.st52{fill:url(#SVGID_00000052100253360187096960000010114303399872839554_);}
	.st53{fill:url(#SVGID_00000018199543683570449340000001790483878541247147_);}
	.st54{fill:url(#SVGID_00000181057206582544704050000008425933212405802402_);}
	.st55{fill:url(#SVGID_00000026146995144296951180000017258047022108096151_);}
	.st56{fill:#30325E;}
	.st57{fill:#FF7859;}
	.st58{fill:#FFD550;}
	.st59{fill:#00C3AD;}
	.st60{fill:#FF4653;}
	.st61{fill:#D8CE19;}
	.st62{fill:#C1E5DE;}
	.st63{fill:#FFE4D2;}
	.st64{fill:#DFF4F0;}
	.st65{fill:#A2E0EB;}
	.st66{fill:#1B3493;}
	.st67{fill:none;stroke:#FFFFFF;stroke-width:2;stroke-linecap:round;stroke-linejoin:round;stroke-miterlimit:10;}
	.st68{fill:#F15A24;}
	.st69{fill:#F7931E;}
	.st70{fill:#58595B;}
	.st71{fill:#114E15;}
	.st72{fill:#013D01;}
	.st73{fill:#E9C608;}
	.st74{fill:#043B00;}
	.st75{fill:#D8A43E;}
	.st76{clip-path:url(#SVGID_00000105387405216044004090000016393021363405050274_);}
	.st77{fill:#F49630;}
	.st78{clip-path:url(#SVGID_00000182500012787319435090000013054928589113214864_);}
	.st79{clip-path:url(#SVGID_00000050625420149725645620000013435440155804565433_);}
	.st80{clip-path:url(#SVGID_00000158726202132540681100000011952886063489192376_);}
	.st81{clip-path:url(#SVGID_00000155149005183172492350000013680583821641867952_);}
	.st82{fill-rule:evenodd;clip-rule:evenodd;fill:#FF6600;}
	.st83{fill-rule:evenodd;clip-rule:evenodd;fill:#05174F;}
	.st84{fill:#05174F;}
	.st85{opacity:0.42;fill:url(#SVGID_00000071540374888225344310000003965024186122205853_);enable-background:new    ;}
	.st86{opacity:0.42;fill:url(#SVGID_00000040543956755386792410000013612359909134135198_);enable-background:new    ;}
	.st87{fill:url(#SVGID_00000125601215198968418380000013692215134663237771_);}
	.st88{fill:url(#SVGID_00000076597226463978045460000017284078216387633291_);}
	.st89{opacity:0.64;fill:url(#SVGID_00000137099231842006900250000017545316006653240755_);enable-background:new    ;}
	.st90{opacity:0.75;fill:url(#SVGID_00000010281673378261288630000009129855911298567598_);enable-background:new    ;}
	.st91{fill:url(#SVGID_00000101074506282310970140000012416203112689304728_);}
	.st92{fill:url(#SVGID_00000091713597494560071660000009771092278157147804_);}
	.st93{opacity:0.76;fill:url(#SVGID_00000026124189207033975820000002008361693425887119_);enable-background:new    ;}
	.st94{opacity:0.75;fill:url(#SVGID_00000007418750945526494640000015305799120938792097_);enable-background:new    ;}
	.st95{fill:url(#SVGID_00000021832695572157737270000002915655667271885707_);}
	.st96{opacity:0.42;fill:url(#SVGID_00000048468602977208027620000004854550131768647093_);enable-background:new    ;}
	.st97{opacity:0.42;fill:url(#SVGID_00000082349932332650837610000013232011345231706811_);enable-background:new    ;}
	.st98{clip-path:url(#SVGID_00000003807268639646278660000004618253705432295345_);}
	.st99{fill:#1ED7FE;}
	.st100{clip-path:url(#SVGID_00000170966881930618501540000000712504890943395757_);}
	.st101{clip-path:url(#SVGID_00000100374461903410955700000013314391218793411724_);}
	.st102{fill:#000056;}
	.st103{clip-path:url(#SVGID_00000138560400569892621870000003399360422253306287_);}
	.st104{enable-background:new    ;}
	.st105{fill:#053272;}
	.st106{fill:none;stroke:#053272;stroke-width:4;stroke-miterlimit:10;}
	.st107{fill:url(#SVGID_00000075126277663125119220000010970457606301586051_);}
	.st108{fill:url(#SVGID_00000173155786301890153200000017870207882478856871_);}
	.st109{fill:url(#SVGID_00000145769791656975505230000001197396422259772549_);}
	.st110{fill:url(#SVGID_00000115481330009577842520000017633939884658052792_);}
	.st111{fill:url(#SVGID_00000078021852154032665820000007738433775018489236_);}
	.st112{fill:url(#SVGID_00000168800548525731127710000008726067185831943303_);}
	.st113{fill:url(#SVGID_00000160185790960197164210000007053869130617471914_);}
	.st114{fill:url(#SVGID_00000061470938213826980130000007001103858790864770_);}
	.st115{fill:url(#SVGID_00000123408165591331173290000015263284580986224828_);}
	.st116{fill:url(#SVGID_00000005985670848649831570000006270913681822494375_);}
	.st117{fill:url(#SVGID_00000168836171821859155900000014330923571599115396_);}
	.st118{fill:url(#SVGID_00000160183882329392490510000000487728900668963245_);}
	.st119{fill:url(#SVGID_00000002364139512877101010000004611083771898265760_);}
	.st120{fill:url(#SVGID_00000067946917316407328880000005503845149296301742_);}
	.st121{fill:url(#SVGID_00000178197913628973319920000002945486507627056010_);}
	.st122{fill:url(#SVGID_00000101095185293093437820000002553648784781877181_);}
	.st123{fill:url(#SVGID_00000069397301657084263960000006727934741578503068_);}
	.st124{fill:url(#SVGID_00000081623225299801529240000005834361880861213114_);}
	.st125{fill:url(#SVGID_00000139997804573523057800000006344966037914638768_);}
	.st126{fill:url(#SVGID_00000159468445482423400960000003530276528299504803_);}
	.st127{fill:url(#SVGID_00000006672172210372345230000011148207435397547696_);}
	.st128{fill:url(#SVGID_00000158022668338430161190000017321278403761261698_);}
	.st129{fill:url(#SVGID_00000032615382646073815230000016606483994155276714_);}
	.st130{fill:url(#SVGID_00000081607986393656149910000012510231973675060410_);}
	.st131{fill:url(#SVGID_00000135688393196009864110000010655013221119641762_);}
	.st132{fill:url(#SVGID_00000058587161919698515700000009765985401788446110_);}
	.st133{fill:url(#SVGID_00000132805109140289809870000003028131898460765602_);}
	.st134{fill:url(#SVGID_00000108277685917918357590000001196131420697642901_);}
	.st135{fill:url(#SVGID_00000166646802424110817130000014256536402311955107_);}
	.st136{fill:none;stroke:#FEF73D;stroke-linecap:round;stroke-miterlimit:10;}
	.st137{fill:#FF189C;}
	.st138{fill:none;stroke:#FF189C;stroke-miterlimit:10;}
	.st139{fill:none;stroke:#00EFF1;stroke-linecap:round;stroke-miterlimit:10;}
	.st140{fill:#00EFF1;}
	.st141{font-family:'LibreBaskerville-Regular';}
	.st142{font-size:16.7168px;}
	.st143{fill:#FFA022;}
	.st144{fill:#0C103A;}
	.st145{fill-rule:evenodd;clip-rule:evenodd;fill:#5D9541;}
	.st146{fill-rule:evenodd;clip-rule:evenodd;fill:#F06021;}
	.st147{fill-rule:evenodd;clip-rule:evenodd;fill:#69BC60;}
	.st148{fill-rule:evenodd;clip-rule:evenodd;fill:#F6951C;}
	.st149{fill:#F6951C;}
	.st150{fill:url(#SVGID_00000160902769889053303160000016230913106569350052_);}
	.st151{fill:url(#SVGID_00000147190273716800494270000016270119248541333662_);}
	.st152{fill:url(#SVGID_00000037666410099783283500000014376002764997219976_);}
	.st153{fill:url(#SVGID_00000103235136761877268210000004779543862008510594_);}
	.st154{fill:url(#SVGID_00000148661831543700827300000011584798375575136906_);}
	.st155{fill:url(#SVGID_00000130628750156074030770000007675891865398008231_);}
	.st156{fill:url(#SVGID_00000080923254844137343090000009612925571881150908_);}
	.st157{fill:url(#SVGID_00000181048123063772211650000009492380695081993363_);}
	.st158{fill:url(#SVGID_00000005225014277513010270000000062232796869583804_);}
	.st159{fill:url(#SVGID_00000106111824229695882050000000743880739688237968_);}
	.st160{fill:url(#SVGID_00000152959950200272661040000015783941084815484822_);}
	.st161{fill:url(#SVGID_00000040557499012935060270000000704507624124194475_);}
	.st162{fill:url(#SVGID_00000042009683747492321210000012771742445258783374_);}
	.st163{fill:url(#SVGID_00000063615507100622311150000013765614725973027232_);}
	.st164{fill:url(#SVGID_00000031919342735609028280000016597640345694905279_);}
	.st165{fill:url(#SVGID_00000127764399667189083410000013604739680810507685_);}
	.st166{fill:url(#SVGID_00000141420098845960134400000000322633574871419806_);}
	.st167{fill:url(#SVGID_00000136375493568837752960000017425569149433234092_);}
	.st168{fill:url(#SVGID_00000180338009538894864650000004881793360807709877_);}
	.st169{fill:url(#SVGID_00000183936054212573735100000006572820919897237419_);}
	.st170{fill:url(#SVGID_00000155838251898473452920000016357033439548328378_);}
	.st171{fill:url(#SVGID_00000085232454066873372900000014269600532253582484_);}
	.st172{fill-rule:evenodd;clip-rule:evenodd;fill:#512100;}
	.st173{fill-rule:evenodd;clip-rule:evenodd;fill:#006D62;}
	.st174{fill-rule:evenodd;clip-rule:evenodd;}
	.st175{fill-rule:evenodd;clip-rule:evenodd;fill:#00A1F5;}
	.st176{fill-rule:evenodd;clip-rule:evenodd;fill:#FACFAB;}
	.st177{fill-rule:evenodd;clip-rule:evenodd;fill:#F29673;}
	.st178{fill-rule:evenodd;clip-rule:evenodd;fill:#FFFFFF;}
	.st179{fill-rule:evenodd;clip-rule:evenodd;fill:#333333;}
	.st180{fill-rule:evenodd;clip-rule:evenodd;fill:#BD4D00;}
	.st181{fill-rule:evenodd;clip-rule:evenodd;fill:#B2B2B2;}
	.st182{fill-rule:evenodd;clip-rule:evenodd;fill:#F2CC29;}
	.st183{fill-rule:evenodd;clip-rule:evenodd;fill:#005C9C;}
	.st184{fill-rule:evenodd;clip-rule:evenodd;fill:#8AC900;}
	.st185{fill-rule:evenodd;clip-rule:evenodd;fill:#808080;}
	.st186{fill-rule:evenodd;clip-rule:evenodd;fill:#CFA605;}
	.st187{fill-rule:evenodd;clip-rule:evenodd;fill:#666666;}
	.st188{fill-rule:evenodd;clip-rule:evenodd;fill:#CCCCCC;}
	.st189{fill:#960000;}
	.st190{fill:url(#SVGID_00000011725941194610566530000012139434585464061883_);}
	.st191{fill:url(#SVGID_00000025443566303290660710000014315948809439193731_);}
	.st192{opacity:0.51;fill:url(#SVGID_00000111167707699570659120000017365450660422078103_);}
	.st193{fill:url(#SVGID_00000063592699895067657280000005311528671830149267_);}
	.st194{fill:url(#SVGID_00000098902115460042720960000006591443113729947044_);}
	.st195{fill:url(#SVGID_00000127004029609467332390000006983834675438330535_);}
	.st196{opacity:0.35;fill:url(#SVGID_00000006696218060764704450000007137550612113779603_);}
	.st197{opacity:0.35;fill:url(#SVGID_00000095324850927594508150000004315642817023363765_);}
	.st198{fill:#F06021;}
	.st199{fill-rule:evenodd;clip-rule:evenodd;fill:url(#SVGID_00000112604739536081627070000001887848258354796724_);}
	.st200{fill-rule:evenodd;clip-rule:evenodd;fill:url(#SVGID_00000090990636704825633670000002447868873242980765_);}
	.st201{fill-rule:evenodd;clip-rule:evenodd;fill:url(#SVGID_00000123407455671559191190000009413822263806171270_);}
	.st202{fill-rule:evenodd;clip-rule:evenodd;fill:url(#SVGID_00000136382658319501936860000015586728187876715937_);}
	.st203{fill-rule:evenodd;clip-rule:evenodd;fill:url(#SVGID_00000080202944663489485180000001772571114528373168_);}
	.st204{fill-rule:evenodd;clip-rule:evenodd;fill:url(#SVGID_00000147218057149756646720000015590356403702171289_);}
	.st205{fill-rule:evenodd;clip-rule:evenodd;fill:url(#SVGID_00000081617418176752711730000002234029067256608156_);}
	.st206{fill-rule:evenodd;clip-rule:evenodd;fill:url(#SVGID_00000150787343998132163950000010172402750859297180_);}
	.st207{fill-rule:evenodd;clip-rule:evenodd;fill:url(#SVGID_00000097486629511513608460000008410652416637511843_);}
	.st208{fill-rule:evenodd;clip-rule:evenodd;fill:url(#SVGID_00000065052389137451391030000002775502956693651870_);}
	.st209{fill-rule:evenodd;clip-rule:evenodd;fill:url(#SVGID_00000015343470680446832610000010243883409968693633_);}
	.st210{fill-rule:evenodd;clip-rule:evenodd;fill:url(#SVGID_00000163761649022844053020000000132595054021851042_);}
	.st211{fill-rule:evenodd;clip-rule:evenodd;fill:url(#SVGID_00000183937080072675543860000007196172296501934239_);}
	.st212{opacity:0.5;fill-rule:evenodd;clip-rule:evenodd;fill:#5D0101;enable-background:new    ;}
	.st213{fill:#E11B22;}
	.st214{fill:#959595;}
	.st215{fill:#003359;}
	.st216{fill:#1779C1;}
	.st217{fill:#0EB17C;}
	.st218{fill:#2B2353;}
	.st219{fill:#BE264E;}
	.st220{fill:#EAA41C;}
	.st221{fill:#1F9EF3;}
	.st222{fill:#0267A3;}
	.st223{fill:#FFEC00;}
	.st224{fill:#00A0E0;}
	.st225{fill:#E3007E;}
	.st226{fill:none;stroke:#000000;stroke-width:2;stroke-miterlimit:10;}
	.st227{fill:#FF9E80;}
	.st228{fill:#414151;}
	.st229{fill:#2B295E;}
	.st230{fill:#CCCCCC;}
	.st231{fill:#FF8C5C;}
	.st232{fill:#DBA21C;}
	.st233{fill:#EDDBB2;}
	.st234{fill:#DEC58B;}
	.st235{fill:#997113;}
	.st236{fill:#B88817;}
	.st237{fill:#003400;stroke:#8EC13D;stroke-width:4;stroke-miterlimit:10;}
	.st238{fill:#8EC13D;}
	.st239{fill:url(#XMLID_00000078024475954166567960000015535649560171178129_);}
	.st240{fill:url(#SVGID_00000017490922544100218240000013183380445016433326_);}
	.st241{fill:url(#SVGID_00000078736721903929247800000006668382288331908797_);}
	.st242{fill:url(#SVGID_00000002376797725412639050000014051788490599701120_);}
	.st243{fill:url(#SVGID_00000105424550819435310760000009322689357742959495_);}
	.st244{fill:url(#SVGID_00000173157839796220166300000015277144193971707780_);}
	.st245{fill:url(#SVGID_00000144316308037477219000000012056277925082335405_);}
	.st246{fill:url(#SVGID_00000029751401549866102260000017664242994421170820_);}
	.st247{fill:url(#SVGID_00000157302050039544867030000017848386131058535852_);}
	.st248{fill:url(#SVGID_00000166677814223924387760000005558480681724038580_);}
	.st249{fill:url(#SVGID_00000029033332969624282780000017328674518699370430_);}
	.st250{fill:url(#SVGID_00000102530083054434007250000003918967981791004289_);}
	.st251{fill:#1C75BC;}
	.st252{fill:#46920C;}
	.st253{fill:#FF9400;}
	.st254{fill:url(#SVGID_00000090987705412501211910000012196414979106738611_);}
	.st255{fill:url(#SVGID_00000105391966654431000470000008326201298286530238_);}
	.st256{fill:url(#SVGID_00000132796313659811216060000014934711508112390558_);}
	.st257{fill:url(#SVGID_00000062190799630759124020000011381364353390572209_);}
	.st258{fill:url(#SVGID_00000040545658139019923970000004532656341809710748_);}
	.st259{fill:url(#SVGID_00000033338582385169616960000008712353634363785636_);}
	.st260{fill:url(#SVGID_00000098206633736337237140000011579525471075591060_);}
	.st261{fill:url(#SVGID_00000029742472565851836780000004411690982835996567_);}
	.st262{fill:url(#SVGID_00000031193370710497078100000002685654196131703222_);}
	.st263{fill:url(#SVGID_00000174603574981561789940000009072952950231229071_);}
	.st264{fill:url(#SVGID_00000119117761555224279140000009922625818907103381_);}
	.st265{fill:url(#SVGID_00000070839874172305852660000011298526593269566105_);}
	.st266{fill:url(#SVGID_00000167398027765791845430000009606939998639925633_);}
	.st267{fill:url(#SVGID_00000147188292361301959770000008964243645209467273_);}
	.st268{fill:url(#SVGID_00000041988519434026254580000007591659326089711509_);}
	.st269{fill:url(#SVGID_00000067933861924179608210000005315745345518613123_);}
	.st270{fill:url(#SVGID_00000084515137037461779990000014768124573364446104_);}
	.st271{fill:url(#SVGID_00000094587252868144887720000010913766191308419755_);}
	.st272{fill:url(#SVGID_00000108276689768581713710000018329604598173087897_);}
	.st273{fill:#2F3F67;}
	.st274{fill:#C97F32;}
	.st275{fill:none;stroke:#C97F32;stroke-width:1.2891;stroke-miterlimit:10;}
	.st276{fill:url(#XMLID_00000075852282087600036180000011328969567036349100_);}
	.st277{fill:#00548B;}
	.st278{fill:#004368;}
	.st279{fill:#94070A;}
	.st280{fill:url(#XMLID_00000073693243304796123090000012586588687710928828_);}
	.st281{fill:url(#XMLID_00000030457315487869317490000008562680115777971599_);}
	.st282{fill:#B34A06;}
	.st283{fill:#A2B5C4;}
	.st284{fill:#192940;}
	.st285{fill:url(#SVGID_00000086670952335542459500000008817448663291970451_);}
	.st286{fill:url(#SVGID_00000107583678781864703100000006960716609748963767_);}
	.st287{fill:url(#SVGID_00000002377858763692787760000017281243166986534312_);}
	.st288{opacity:0.93;fill:url(#SVGID_00000130641332627881466340000014208343639615479436_);}
	.st289{opacity:0.93;fill:url(#SVGID_00000070106018458291971490000017702497811840681383_);}
	.st290{opacity:0.93;fill:url(#SVGID_00000163039091846214787890000004085977246627906700_);}
	.st291{opacity:0.93;fill:url(#SVGID_00000152983801435969309390000008150998870112237483_);}
	.st292{fill:url(#SVGID_00000005240685883772985410000008717735548191635117_);}
	.st293{stroke:#000000;stroke-width:0.75;stroke-miterlimit:10;}
</style>
<g id="BACKGROUND_00000116203959517936751300000007352993941595766666_">
	<rect x="0" width="348" height="228"/>
</g>
<g>
	<g>
		<circle class="st136" cx="174" cy="114" r="68.48"/>
		<g>
			<g>
				<path class="st137" d="M123.47,96.05c0.59,0,1.07-0.02,1.44-0.06s0.64-0.11,0.84-0.23s0.34-0.29,0.42-0.51s0.15-0.52,0.19-0.91
					h0.52v4.08h-0.52c-0.06-0.37-0.13-0.67-0.22-0.89c-0.09-0.22-0.24-0.39-0.45-0.51c-0.2-0.12-0.48-0.19-0.83-0.22
					c-0.35-0.03-0.81-0.05-1.4-0.05v2.87c0,0.3,0.04,0.55,0.12,0.75c0.08,0.2,0.21,0.37,0.4,0.49c0.19,0.12,0.43,0.21,0.74,0.26
					s0.68,0.08,1.13,0.08c0.53,0,0.98-0.04,1.34-0.11c0.37-0.07,0.67-0.2,0.91-0.39c0.24-0.19,0.44-0.43,0.58-0.75
					c0.15-0.31,0.27-0.7,0.38-1.18h0.56l-0.22,3.19h-9.44v-0.56c0.31-0.01,0.56-0.04,0.75-0.08c0.2-0.05,0.34-0.13,0.45-0.24
					s0.17-0.27,0.21-0.47c0.04-0.2,0.06-0.47,0.06-0.79V93.4c0-0.33-0.02-0.59-0.05-0.79c-0.03-0.2-0.1-0.36-0.19-0.47
					s-0.23-0.2-0.4-0.24s-0.4-0.07-0.68-0.09v-0.56h8.8l0.1,2.73h-0.6c-0.06-0.39-0.14-0.71-0.26-0.97
					c-0.12-0.25-0.29-0.46-0.5-0.61c-0.21-0.15-0.49-0.26-0.83-0.32c-0.34-0.06-0.75-0.09-1.25-0.09H124
					c-0.24,0-0.39,0.03-0.45,0.09s-0.08,0.2-0.08,0.42V96.05z"/>
				<path class="st137" d="M133.69,99.71c0,0.38,0.01,0.68,0.04,0.9c0.02,0.22,0.07,0.39,0.15,0.5c0.08,0.12,0.2,0.19,0.36,0.23
					s0.38,0.06,0.66,0.08v0.56h-4.39v-0.56c0.27-0.02,0.49-0.05,0.65-0.08s0.29-0.11,0.38-0.22c0.09-0.11,0.15-0.27,0.17-0.47
					c0.03-0.21,0.04-0.48,0.04-0.84v-1.74c0-0.55-0.01-0.99-0.03-1.33s-0.04-0.57-0.07-0.69c-0.03-0.12-0.06-0.22-0.11-0.3
					c-0.05-0.08-0.12-0.14-0.21-0.18c-0.09-0.04-0.21-0.07-0.35-0.08c-0.14-0.01-0.32-0.02-0.53-0.02v-0.47l2.69-0.53l0.18,1.23
					h0.06c0.31-0.39,0.67-0.69,1.09-0.91s0.88-0.32,1.38-0.32c0.59,0,1.08,0.08,1.44,0.24c0.37,0.16,0.69,0.43,0.98,0.81
					c0.16,0.21,0.3,0.49,0.42,0.83c0.12,0.34,0.18,0.81,0.18,1.4v1.96c0,0.38,0.01,0.68,0.04,0.9c0.02,0.22,0.07,0.39,0.15,0.5
					c0.08,0.12,0.2,0.19,0.35,0.23c0.16,0.04,0.37,0.06,0.64,0.08v0.56h-4.36v-0.56c0.28-0.01,0.5-0.03,0.66-0.08
					c0.16-0.04,0.29-0.12,0.37-0.23c0.08-0.11,0.14-0.27,0.17-0.48s0.04-0.48,0.04-0.83v-1.89c0-0.47-0.03-0.87-0.08-1.2
					c-0.06-0.33-0.15-0.59-0.27-0.79c-0.13-0.2-0.29-0.34-0.49-0.43c-0.2-0.09-0.46-0.13-0.77-0.13c-0.3,0-0.55,0.08-0.77,0.25
					c-0.21,0.17-0.4,0.4-0.56,0.7c-0.08,0.17-0.16,0.38-0.22,0.65c-0.06,0.26-0.09,0.54-0.09,0.83V99.71z"/>
				<path class="st137" d="M140.59,95.37v-0.63c0.56-0.16,1.02-0.4,1.4-0.72c0.38-0.32,0.66-0.69,0.84-1.11h0.71v1.69h1.6v0.77h-1.6
					v4.28c0,0.58,0.06,0.99,0.19,1.23s0.34,0.36,0.63,0.36c0.36,0,0.64-0.17,0.82-0.5l0.29,0.4c-0.26,0.66-0.87,0.99-1.84,0.99
					c-0.64,0-1.14-0.15-1.5-0.45c-0.36-0.3-0.54-0.71-0.54-1.25v-5.06H140.59z"/>
				<path class="st137" d="M153.08,100.69c-0.85,0.96-1.9,1.44-3.16,1.44c-0.58,0-1.1-0.09-1.57-0.27
					c-0.47-0.18-0.87-0.44-1.21-0.77c-0.33-0.33-0.59-0.72-0.78-1.18c-0.19-0.46-0.28-0.96-0.28-1.52c0-0.58,0.1-1.1,0.29-1.58
					c0.2-0.48,0.47-0.89,0.83-1.24c0.36-0.35,0.78-0.62,1.27-0.82c0.49-0.19,1.02-0.29,1.61-0.29c0.98,0,1.75,0.26,2.3,0.79
					c0.55,0.53,0.82,1.27,0.82,2.23c0,0.15-0.02,0.24-0.07,0.27c-0.05,0.03-0.18,0.05-0.39,0.05h-4.49
					c-0.04,0.08-0.06,0.24-0.06,0.46c0,0.91,0.2,1.63,0.59,2.16s0.93,0.79,1.61,0.79c0.39,0,0.78-0.09,1.16-0.26
					c0.39-0.18,0.76-0.43,1.12-0.75L153.08,100.69z M150.38,97.03c0.37,0,0.61-0.02,0.72-0.06c0.11-0.04,0.16-0.14,0.16-0.3
					c0-0.41-0.12-0.74-0.35-1c-0.23-0.26-0.52-0.39-0.88-0.39c-0.4,0-0.75,0.17-1.07,0.5c-0.31,0.33-0.51,0.75-0.61,1.26H150.38z"/>
				<path class="st137" d="M157.3,99.83c0,0.36,0.02,0.65,0.05,0.86c0.03,0.21,0.1,0.37,0.2,0.48s0.25,0.18,0.45,0.22
					c0.2,0.03,0.46,0.05,0.78,0.05v0.56h-4.65v-0.56c0.28-0.02,0.5-0.05,0.67-0.08c0.17-0.04,0.29-0.11,0.38-0.22
					c0.08-0.11,0.14-0.27,0.16-0.48c0.02-0.21,0.03-0.49,0.03-0.84v-1.7c0-0.58-0.01-1.04-0.04-1.38c-0.03-0.34-0.09-0.61-0.18-0.79
					c-0.09-0.19-0.23-0.31-0.4-0.37s-0.4-0.09-0.68-0.09v-0.49l2.79-0.52l0.22,1.6h0.06c0.25-0.49,0.58-0.88,0.99-1.17
					s0.84-0.43,1.3-0.43c0.35,0,0.64,0.09,0.86,0.26c0.22,0.18,0.33,0.4,0.33,0.67c0,0.3-0.09,0.55-0.26,0.75s-0.41,0.31-0.7,0.31
					c-0.14,0-0.26-0.03-0.38-0.08s-0.21-0.12-0.3-0.19c-0.09-0.07-0.18-0.13-0.26-0.2c-0.09-0.06-0.18-0.09-0.27-0.09
					c-0.18,0-0.34,0.12-0.5,0.35s-0.29,0.54-0.39,0.93c-0.07,0.28-0.13,0.59-0.18,0.94c-0.05,0.35-0.07,0.69-0.07,1.04V99.83z"/>
				<path class="st137" d="M161,95.37v-0.63c0.56-0.16,1.02-0.4,1.4-0.72c0.38-0.32,0.66-0.69,0.84-1.11h0.71v1.69h1.6v0.77h-1.6
					v4.28c0,0.58,0.06,0.99,0.19,1.23s0.34,0.36,0.63,0.36c0.36,0,0.64-0.17,0.82-0.5l0.29,0.4c-0.26,0.66-0.87,0.99-1.84,0.99
					c-0.64,0-1.14-0.15-1.5-0.45c-0.36-0.3-0.54-0.71-0.54-1.25v-5.06H161z"/>
				<path class="st137" d="M170.76,97.28v-0.58c0-0.54-0.1-0.93-0.29-1.18s-0.49-0.37-0.88-0.37c-0.27,0-0.47,0.07-0.61,0.22
					c-0.14,0.14-0.27,0.38-0.39,0.72c-0.08,0.23-0.2,0.41-0.36,0.54s-0.36,0.2-0.63,0.2c-0.26,0-0.46-0.08-0.6-0.24
					c-0.14-0.16-0.21-0.38-0.21-0.67c0-0.45,0.24-0.8,0.73-1.06c0.49-0.26,1.22-0.39,2.21-0.39c1.04,0,1.78,0.19,2.23,0.56
					c0.45,0.38,0.67,1,0.67,1.89v3.05c0,0.79,0.16,1.18,0.47,1.18c0.18,0,0.34-0.06,0.49-0.18l0.21,0.4
					c-0.13,0.23-0.33,0.42-0.61,0.55s-0.58,0.2-0.93,0.2c-0.43,0-0.75-0.13-0.98-0.39c-0.22-0.26-0.33-0.63-0.33-1.1h-0.07
					c-0.27,0.48-0.62,0.85-1.04,1.1s-0.91,0.38-1.46,0.38c-0.59,0-1.05-0.16-1.41-0.49c-0.35-0.33-0.53-0.76-0.53-1.29
					c0-0.41,0.18-0.79,0.54-1.15c0.36-0.36,0.97-0.71,1.81-1.05L170.76,97.28z M170.76,98.01c-0.78,0.35-1.37,0.68-1.76,0.98
					s-0.59,0.62-0.59,0.94c0,0.27,0.07,0.48,0.22,0.64c0.15,0.16,0.33,0.24,0.56,0.24c0.22,0,0.43-0.04,0.63-0.12
					c0.2-0.08,0.36-0.18,0.5-0.31c0.14-0.13,0.25-0.29,0.33-0.47c0.08-0.18,0.12-0.37,0.12-0.58V98.01z"/>
				<path class="st137" d="M177.54,99.7c0,0.37,0.01,0.67,0.04,0.89c0.03,0.22,0.08,0.4,0.17,0.52c0.08,0.12,0.2,0.2,0.36,0.24
					c0.16,0.04,0.37,0.07,0.64,0.08v0.56h-4.39v-0.56c0.26-0.01,0.47-0.04,0.63-0.09s0.29-0.13,0.38-0.25
					c0.09-0.12,0.15-0.28,0.18-0.49c0.03-0.21,0.05-0.48,0.05-0.8v-1.71c0-0.54-0.01-0.98-0.03-1.33c-0.02-0.35-0.04-0.59-0.07-0.72
					c-0.05-0.23-0.15-0.39-0.31-0.46c-0.16-0.07-0.46-0.11-0.88-0.11v-0.47l3.23-0.53V99.7z M175.5,91.51c0-0.31,0.1-0.56,0.31-0.77
					s0.46-0.31,0.76-0.31c0.31,0,0.56,0.1,0.77,0.31c0.21,0.21,0.31,0.47,0.31,0.77c0,0.3-0.1,0.55-0.31,0.76
					c-0.21,0.21-0.47,0.31-0.77,0.31c-0.3,0-0.55-0.1-0.76-0.31S175.5,91.81,175.5,91.51z"/>
				<path class="st137" d="M182.57,99.71c0,0.38,0.01,0.68,0.04,0.9c0.02,0.22,0.07,0.39,0.15,0.5c0.08,0.12,0.2,0.19,0.36,0.23
					s0.38,0.06,0.66,0.08v0.56h-4.39v-0.56c0.27-0.02,0.49-0.05,0.65-0.08s0.29-0.11,0.38-0.22c0.09-0.11,0.15-0.27,0.17-0.47
					c0.03-0.21,0.04-0.48,0.04-0.84v-1.74c0-0.55-0.01-0.99-0.03-1.33s-0.04-0.57-0.07-0.69c-0.03-0.12-0.06-0.22-0.11-0.3
					c-0.05-0.08-0.12-0.14-0.21-0.18c-0.09-0.04-0.21-0.07-0.35-0.08c-0.14-0.01-0.32-0.02-0.53-0.02v-0.47l2.69-0.53l0.18,1.23
					h0.06c0.31-0.39,0.67-0.69,1.09-0.91s0.88-0.32,1.38-0.32c0.59,0,1.08,0.08,1.44,0.24c0.37,0.16,0.69,0.43,0.98,0.81
					c0.16,0.21,0.3,0.49,0.42,0.83c0.12,0.34,0.18,0.81,0.18,1.4v1.96c0,0.38,0.01,0.68,0.04,0.9c0.02,0.22,0.07,0.39,0.15,0.5
					c0.08,0.12,0.2,0.19,0.35,0.23c0.16,0.04,0.37,0.06,0.64,0.08v0.56h-4.36v-0.56c0.28-0.01,0.5-0.03,0.66-0.08
					c0.16-0.04,0.29-0.12,0.37-0.23c0.08-0.11,0.14-0.27,0.17-0.48s0.04-0.48,0.04-0.83v-1.89c0-0.47-0.03-0.87-0.08-1.2
					c-0.06-0.33-0.15-0.59-0.27-0.79c-0.13-0.2-0.29-0.34-0.49-0.43c-0.2-0.09-0.46-0.13-0.77-0.13c-0.3,0-0.55,0.08-0.77,0.25
					c-0.21,0.17-0.4,0.4-0.56,0.7c-0.08,0.17-0.16,0.38-0.22,0.65c-0.06,0.26-0.09,0.54-0.09,0.83V99.71z"/>
				<path class="st137" d="M192.72,99.69c0,0.39,0.01,0.7,0.03,0.92c0.02,0.22,0.07,0.39,0.15,0.51c0.08,0.12,0.2,0.19,0.36,0.23
					c0.16,0.04,0.38,0.06,0.65,0.08v0.56h-4.4v-0.56c0.28-0.02,0.5-0.05,0.67-0.08c0.17-0.04,0.29-0.11,0.38-0.22
					c0.08-0.11,0.14-0.27,0.17-0.48s0.04-0.49,0.04-0.84v-1.73c0-0.53-0.01-0.97-0.02-1.32c-0.01-0.35-0.04-0.59-0.08-0.72
					c-0.03-0.12-0.06-0.22-0.1-0.29c-0.04-0.07-0.11-0.12-0.2-0.17s-0.2-0.07-0.34-0.08c-0.14-0.01-0.32-0.02-0.54-0.02v-0.47
					l2.69-0.53l0.17,1.21h0.08c0.39-0.44,0.78-0.75,1.18-0.93c0.4-0.19,0.85-0.28,1.37-0.28c0.61,0,1.12,0.11,1.52,0.32
					s0.7,0.52,0.91,0.92h0.06c0.33-0.39,0.73-0.69,1.2-0.91c0.46-0.22,0.96-0.33,1.49-0.33c0.56,0,1.04,0.07,1.46,0.21
					c0.41,0.14,0.74,0.34,0.97,0.6c0.19,0.21,0.32,0.49,0.41,0.84s0.13,0.82,0.13,1.43v2.15c0,0.38,0.01,0.68,0.04,0.91
					c0.02,0.22,0.08,0.4,0.16,0.52c0.08,0.12,0.2,0.2,0.36,0.24c0.16,0.04,0.38,0.06,0.65,0.08v0.56h-4.4v-0.56
					c0.28-0.01,0.5-0.03,0.66-0.08s0.29-0.12,0.38-0.24c0.09-0.12,0.14-0.28,0.17-0.48c0.02-0.2,0.03-0.48,0.03-0.84v-1.82
					c0-0.48-0.03-0.89-0.08-1.23c-0.06-0.33-0.14-0.6-0.26-0.81c-0.12-0.2-0.28-0.35-0.48-0.44c-0.2-0.09-0.44-0.13-0.73-0.13
					c-0.33,0-0.59,0.08-0.8,0.24c-0.21,0.16-0.38,0.36-0.52,0.61c-0.24,0.44-0.36,0.98-0.36,1.63v1.84c0,0.38,0.01,0.68,0.03,0.91
					c0.02,0.22,0.07,0.4,0.15,0.52c0.08,0.12,0.21,0.2,0.37,0.24s0.39,0.06,0.68,0.08v0.56h-4.42v-0.56
					c0.28-0.02,0.5-0.05,0.66-0.08s0.29-0.11,0.38-0.22c0.09-0.11,0.14-0.27,0.17-0.48c0.02-0.21,0.03-0.49,0.03-0.84v-1.82
					c0-0.48-0.03-0.89-0.08-1.23c-0.06-0.33-0.15-0.6-0.27-0.81s-0.29-0.35-0.49-0.44c-0.2-0.09-0.46-0.13-0.77-0.13
					c-0.31,0-0.56,0.07-0.76,0.22c-0.2,0.15-0.36,0.35-0.49,0.6c-0.12,0.22-0.21,0.48-0.28,0.77c-0.06,0.29-0.1,0.58-0.1,0.89V99.69
					z"/>
				<path class="st137" d="M212.05,100.69c-0.85,0.96-1.9,1.44-3.16,1.44c-0.58,0-1.1-0.09-1.57-0.27
					c-0.47-0.18-0.87-0.44-1.21-0.77c-0.33-0.33-0.59-0.72-0.78-1.18c-0.19-0.46-0.28-0.96-0.28-1.52c0-0.58,0.1-1.1,0.29-1.58
					c0.2-0.48,0.47-0.89,0.83-1.24c0.36-0.35,0.78-0.62,1.27-0.82c0.49-0.19,1.02-0.29,1.61-0.29c0.98,0,1.75,0.26,2.3,0.79
					c0.55,0.53,0.82,1.27,0.82,2.23c0,0.15-0.02,0.24-0.07,0.27c-0.05,0.03-0.18,0.05-0.39,0.05h-4.49
					c-0.04,0.08-0.06,0.24-0.06,0.46c0,0.91,0.2,1.63,0.59,2.16s0.93,0.79,1.61,0.79c0.39,0,0.78-0.09,1.16-0.26
					c0.39-0.18,0.76-0.43,1.12-0.75L212.05,100.69z M209.35,97.03c0.37,0,0.61-0.02,0.72-0.06c0.11-0.04,0.16-0.14,0.16-0.3
					c0-0.41-0.12-0.74-0.35-1c-0.23-0.26-0.52-0.39-0.88-0.39c-0.4,0-0.75,0.17-1.07,0.5c-0.31,0.33-0.51,0.75-0.61,1.26H209.35z"/>
				<path class="st137" d="M216.26,99.71c0,0.38,0.01,0.68,0.04,0.9c0.02,0.22,0.07,0.39,0.15,0.5c0.08,0.12,0.2,0.19,0.36,0.23
					s0.38,0.06,0.66,0.08v0.56h-4.39v-0.56c0.27-0.02,0.49-0.05,0.65-0.08s0.29-0.11,0.38-0.22c0.09-0.11,0.15-0.27,0.17-0.47
					c0.03-0.21,0.04-0.48,0.04-0.84v-1.74c0-0.55-0.01-0.99-0.03-1.33s-0.04-0.57-0.07-0.69c-0.03-0.12-0.06-0.22-0.11-0.3
					c-0.05-0.08-0.12-0.14-0.21-0.18c-0.09-0.04-0.21-0.07-0.35-0.08c-0.14-0.01-0.32-0.02-0.53-0.02v-0.47l2.69-0.53l0.18,1.23
					h0.06c0.31-0.39,0.67-0.69,1.09-0.91s0.88-0.32,1.38-0.32c0.59,0,1.08,0.08,1.44,0.24c0.37,0.16,0.69,0.43,0.98,0.81
					c0.16,0.21,0.3,0.49,0.42,0.83c0.12,0.34,0.18,0.81,0.18,1.4v1.96c0,0.38,0.01,0.68,0.04,0.9c0.02,0.22,0.07,0.39,0.15,0.5
					c0.08,0.12,0.2,0.19,0.35,0.23c0.16,0.04,0.37,0.06,0.64,0.08v0.56h-4.36v-0.56c0.28-0.01,0.5-0.03,0.66-0.08
					c0.16-0.04,0.29-0.12,0.37-0.23c0.08-0.11,0.14-0.27,0.17-0.48s0.04-0.48,0.04-0.83v-1.89c0-0.47-0.03-0.87-0.08-1.2
					c-0.06-0.33-0.15-0.59-0.27-0.79c-0.13-0.2-0.29-0.34-0.49-0.43c-0.2-0.09-0.46-0.13-0.77-0.13c-0.3,0-0.55,0.08-0.77,0.25
					c-0.21,0.17-0.4,0.4-0.56,0.7c-0.08,0.17-0.16,0.38-0.22,0.65c-0.06,0.26-0.09,0.54-0.09,0.83V99.71z"/>
				<path class="st137" d="M223.15,95.37v-0.63c0.56-0.16,1.02-0.4,1.4-0.72c0.38-0.32,0.66-0.69,0.84-1.11h0.71v1.69h1.6v0.77h-1.6
					v4.28c0,0.58,0.06,0.99,0.19,1.23s0.34,0.36,0.63,0.36c0.36,0,0.64-0.17,0.82-0.5l0.29,0.4c-0.26,0.66-0.87,0.99-1.84,0.99
					c-0.64,0-1.14-0.15-1.5-0.45c-0.36-0.3-0.54-0.71-0.54-1.25v-5.06H223.15z"/>
			</g>
			<g>
				<g>
					<path class="st137" d="M158.93,134.17l3.22-8.12h4.07v0.56c-0.31,0-0.56,0.03-0.75,0.09c-0.19,0.06-0.34,0.17-0.44,0.33
						c-0.1,0.16-0.17,0.37-0.2,0.65c-0.03,0.27-0.05,0.62-0.05,1.04v5.4c0,0.46,0.02,0.83,0.06,1.1c0.04,0.27,0.11,0.48,0.22,0.63
						s0.27,0.25,0.48,0.29c0.21,0.05,0.49,0.07,0.83,0.08v0.56h-5.24v-0.56c0.34-0.01,0.62-0.04,0.83-0.09s0.37-0.15,0.49-0.29
						c0.12-0.14,0.19-0.34,0.23-0.59c0.04-0.25,0.06-0.6,0.06-1.04v-6.52h-0.07l-3.75,9.22h-1.03l-3.87-9.22h-0.06v6.42
						c0,0.46,0.02,0.83,0.06,1.1c0.04,0.27,0.11,0.48,0.22,0.63c0.11,0.15,0.27,0.25,0.48,0.29s0.48,0.07,0.83,0.08v0.56h-4.29
						v-0.56c0.34-0.01,0.62-0.04,0.84-0.09c0.21-0.05,0.38-0.15,0.49-0.29c0.12-0.14,0.19-0.34,0.23-0.59
						c0.04-0.25,0.06-0.6,0.06-1.04v-5.6c0-0.39-0.02-0.72-0.06-0.98s-0.11-0.47-0.21-0.62s-0.25-0.26-0.44-0.32
						c-0.19-0.06-0.44-0.09-0.76-0.09v-0.56h4.22l3.25,8.12H158.93z"/>
					<path class="st137" d="M172.97,131.68c0-0.37-0.01-0.67-0.03-0.88c-0.02-0.22-0.07-0.38-0.15-0.5
						c-0.08-0.12-0.21-0.2-0.37-0.24c-0.16-0.04-0.38-0.08-0.66-0.1v-0.56h3.15v4.22c0,0.57,0.01,1.01,0.02,1.33
						c0.01,0.32,0.04,0.56,0.08,0.72c0.03,0.12,0.06,0.22,0.1,0.29c0.04,0.07,0.1,0.13,0.18,0.17c0.08,0.04,0.2,0.07,0.34,0.08
						s0.33,0.02,0.56,0.02v0.54l-2.77,0.17l-0.15-1.24h-0.06c-0.24,0.39-0.58,0.69-1.02,0.91c-0.44,0.21-0.92,0.32-1.46,0.32
						c-0.99,0-1.75-0.35-2.27-1.06c-0.4-0.54-0.6-1.31-0.6-2.3v-1.88c0-0.38-0.01-0.68-0.03-0.9s-0.07-0.38-0.15-0.5
						c-0.08-0.11-0.2-0.19-0.35-0.23c-0.16-0.04-0.38-0.08-0.65-0.1v-0.56h3.12v3.94c0,0.94,0.12,1.62,0.35,2.04
						c0.23,0.42,0.6,0.63,1.11,0.63c0.55,0,0.97-0.25,1.27-0.75c0.3-0.48,0.45-1.19,0.45-2.13V131.68z"/>
					<path class="st137" d="M177.56,136.78h-0.43v-2.54h0.58c0.16,0.67,0.39,1.16,0.68,1.46c0.3,0.31,0.68,0.46,1.16,0.46
						c0.34,0,0.61-0.07,0.8-0.22c0.19-0.14,0.29-0.34,0.29-0.59c0-0.26-0.12-0.51-0.35-0.76c-0.23-0.25-0.61-0.51-1.13-0.79
						c-0.71-0.38-1.21-0.76-1.52-1.14c-0.31-0.38-0.46-0.8-0.46-1.27c0-0.31,0.06-0.59,0.17-0.86s0.27-0.49,0.47-0.69
						c0.2-0.19,0.44-0.35,0.72-0.45c0.28-0.11,0.58-0.16,0.91-0.16c0.29,0,0.57,0.04,0.86,0.12c0.28,0.08,0.53,0.2,0.75,0.35
						l0.25-0.33h0.36v2.1h-0.54c-0.21-0.53-0.43-0.91-0.66-1.14c-0.23-0.23-0.5-0.35-0.83-0.35c-0.26,0-0.47,0.07-0.62,0.21
						c-0.15,0.14-0.23,0.33-0.23,0.56c0,0.26,0.11,0.51,0.34,0.74c0.23,0.23,0.61,0.49,1.14,0.77c0.37,0.2,0.69,0.4,0.96,0.6
						c0.27,0.19,0.49,0.39,0.65,0.59c0.17,0.2,0.29,0.41,0.37,0.63c0.08,0.22,0.12,0.45,0.12,0.7c0,0.33-0.06,0.62-0.18,0.88
						s-0.29,0.48-0.52,0.67c-0.22,0.19-0.49,0.33-0.8,0.43c-0.31,0.1-0.66,0.15-1.04,0.15c-0.4,0-0.77-0.05-1.11-0.16
						c-0.34-0.11-0.63-0.26-0.85-0.47L177.56,136.78z"/>
					<path class="st137" d="M186.45,134.49c0,0.37,0.01,0.67,0.04,0.89c0.03,0.22,0.08,0.4,0.17,0.52c0.08,0.12,0.2,0.2,0.36,0.24
						c0.16,0.04,0.37,0.07,0.64,0.08v0.56h-4.39v-0.56c0.26-0.01,0.47-0.04,0.63-0.09s0.29-0.13,0.38-0.25
						c0.09-0.12,0.15-0.28,0.18-0.49c0.03-0.21,0.05-0.48,0.05-0.8v-1.71c0-0.54-0.01-0.98-0.03-1.33
						c-0.02-0.35-0.04-0.59-0.07-0.72c-0.05-0.23-0.15-0.39-0.31-0.46c-0.16-0.07-0.46-0.11-0.88-0.11v-0.47l3.23-0.53V134.49z
						 M184.4,126.3c0-0.31,0.1-0.56,0.31-0.77s0.46-0.31,0.76-0.31c0.31,0,0.56,0.1,0.77,0.31c0.21,0.21,0.31,0.47,0.31,0.77
						c0,0.3-0.1,0.55-0.31,0.76c-0.21,0.21-0.47,0.31-0.77,0.31c-0.3,0-0.55-0.1-0.76-0.31S184.4,126.6,184.4,126.3z"/>
					<path class="st137" d="M195.25,135.62c-0.35,0.39-0.79,0.69-1.32,0.91c-0.52,0.21-1.09,0.32-1.71,0.32
						c-0.57,0-1.08-0.09-1.55-0.27c-0.46-0.18-0.86-0.43-1.2-0.76c-0.33-0.33-0.59-0.72-0.77-1.18c-0.18-0.46-0.27-0.97-0.27-1.53
						c0-0.58,0.1-1.1,0.29-1.57c0.19-0.47,0.47-0.88,0.82-1.22s0.78-0.6,1.27-0.79c0.49-0.19,1.04-0.28,1.63-0.28
						c0.42,0,0.81,0.04,1.16,0.12c0.36,0.08,0.66,0.2,0.92,0.35c0.25,0.15,0.46,0.32,0.61,0.52c0.15,0.2,0.22,0.42,0.22,0.65
						c0,0.27-0.08,0.48-0.23,0.64c-0.15,0.16-0.36,0.24-0.62,0.24c-0.21,0-0.4-0.06-0.56-0.17s-0.32-0.29-0.48-0.54
						c-0.14-0.22-0.26-0.4-0.35-0.53c-0.1-0.13-0.19-0.23-0.27-0.3c-0.08-0.07-0.17-0.12-0.25-0.14c-0.08-0.02-0.19-0.04-0.31-0.04
						c-0.54,0-0.96,0.25-1.25,0.75c-0.3,0.5-0.45,1.2-0.45,2.1c0,0.97,0.18,1.71,0.54,2.23c0.36,0.52,0.87,0.78,1.54,0.78
						c0.38,0,0.76-0.07,1.14-0.22c0.38-0.14,0.74-0.35,1.09-0.62L195.25,135.62z"/>
				</g>
			</g>
		</g>
		<polygon class="st14" points="174,54.37 168.87,61.87 174,69.37 179.13,61.87 		"/>
		<g>
			<g>
				<path class="st138" d="M258.61,123.3l-1.16,5.44c-0.24,1.14-1.36,1.86-2.5,1.62c-1.14-0.24-1.86-1.36-1.62-2.5l1.16-5.44
					c0.24-1.14,1.36-1.86,2.5-1.62C258.12,121.04,258.85,122.16,258.61,123.3z M266.66,109.53l-13.92-2.96l0.33,5.18l11.17,2.38
					L266.66,109.53z"/>
				<path class="st139" d="M256.98,124.7l-0.45,2.09c-0.09,0.44-0.52,0.72-0.96,0.62c-0.44-0.09-0.72-0.52-0.62-0.96l0.45-2.09
					c0.09-0.44,0.52-0.72,0.96-0.62C256.8,123.84,257.08,124.27,256.98,124.7z M255.3,149.41l-8.43-1.79l1.42,3.41l4.31,0.92
					L255.3,149.41z M252.61,151.95l-4.31-0.92l-1.11,5.21l4.31,0.92L252.61,151.95z M274.27,100.43c1.46-6.84-2.91-13.57-9.75-15.02
					c-6.84-1.46-13.57,2.91-15.02,9.75c-0.91,4.27,0.45,8.49,3.26,11.42l13.88,2.95C270.4,108,273.36,104.7,274.27,100.43z"/>
				
					<rect x="249.16" y="112.54" transform="matrix(0.9781 0.2082 -0.2082 0.9781 32.7954 -50.1918)" class="st136" width="11.42" height="36.37"/>
			</g>
			<g>
				<path class="st138" d="M91.01,120.8c1.14-0.24,2.25,0.48,2.5,1.62l1.16,5.44c0.24,1.14-0.48,2.25-1.62,2.5
					c-1.14,0.24-2.25-0.48-2.5-1.62l-1.16-5.44C89.15,122.16,89.88,121.04,91.01,120.8z M83.75,114.13l11.17-2.38l0.33-5.18
					l-13.92,2.96L83.75,114.13z"/>
				<path class="st139" d="M91.64,123.74c0.44-0.09,0.87,0.19,0.96,0.62l0.45,2.09c0.09,0.44-0.19,0.87-0.62,0.96
					c-0.44,0.09-0.87-0.19-0.96-0.62l-0.45-2.09C90.92,124.27,91.2,123.84,91.64,123.74z M95.39,151.95l4.31-0.92l1.42-3.41
					l-8.43,1.79L95.39,151.95z M96.5,157.16l4.31-0.92l-1.11-5.21l-4.31,0.92L96.5,157.16z M81.36,109.53l13.88-2.95
					c2.81-2.93,4.17-7.15,3.26-11.42c-1.46-6.84-8.18-11.21-15.02-9.75c-6.84,1.46-11.21,8.18-9.75,15.02
					C74.64,104.7,77.6,108,81.36,109.53z"/>
				
					<rect x="87.41" y="112.54" transform="matrix(-0.9781 0.2082 -0.2082 -0.9781 211.4235 239.2011)" class="st136" width="11.42" height="36.37"/>
			</g>
		</g>
		<path class="st140" d="M178.77,168.22c0.01-0.03,0.02-0.05,0.03-0.08l4.33-9.87l0.24-0.54l0.92-2.1l-10.93-2.73l-0.96,2.18
			l-0.21,0.47l-3.58,8.15c-0.02-0.03-0.04-0.06-0.07-0.1l-0.03,0.07c-0.29-0.45-0.73-0.82-1.28-1.04c-0.11-0.05-0.23-0.08-0.34-0.11
			c-0.04-0.01-0.09-0.02-0.13-0.03c-1.2-0.21-2.42,0.36-2.89,1.43c-0.55,1.24,0.12,2.7,1.48,3.24c0.11,0.05,0.23,0.08,0.34,0.11
			c0.04,0.01,0.09,0.02,0.13,0.03c1.2,0.21,2.42-0.36,2.89-1.43l4.43-10.08l8.94,2.23l0,0l0.1,0.02l-3.52,8.01
			c-0.02-0.03-0.04-0.06-0.07-0.1l-0.03,0.07c-0.29-0.45-0.73-0.82-1.28-1.04c-0.11-0.05-0.23-0.08-0.34-0.11
			c-0.04-0.01-0.09-0.02-0.13-0.03c-1.2-0.21-2.42,0.36-2.89,1.43c-0.55,1.25,0.12,2.7,1.48,3.24c0.11,0.05,0.23,0.08,0.34,0.11
			c0.04,0.01,0.09,0.02,0.13,0.03C177.09,169.87,178.3,169.3,178.77,168.22z"/>
	</g>
	<text transform="matrix(1 0 0 1 168.2322 121.2355)" class="st140 st141 st142">&amp;</text>
</g>
</svg>
