<?xml version="1.0" encoding="utf-8"?>
<!-- Generator: Adobe Illustrator 27.8.1, SVG Export Plug-In . SVG Version: 6.00 Build 0)  -->
<svg version="1.1" id="Layer_1" xmlns="http://www.w3.org/2000/svg" xmlns:xlink="http://www.w3.org/1999/xlink" x="0px" y="0px"
	 viewBox="0 0 348 228" style="enable-background:new 0 0 348 228;" xml:space="preserve">
<style type="text/css">
	.st0{fill:#D6EADE;}
	.st1{fill:#03487C;}
	.st2{fill:#1B1B4C;}
	.st3{fill:none;}
	.st4{fill-rule:evenodd;clip-rule:evenodd;fill:#204F7A;}
	.st5{fill-rule:evenodd;clip-rule:evenodd;fill:#50A4FF;}
	.st6{fill:#002649;}
	.st7{fill:#E6E7E8;stroke:#CFCFCF;stroke-width:0.1061;}
	.st8{fill:#333333;}
	.st9{fill-rule:evenodd;clip-rule:evenodd;fill:#277FC1;}
	.st10{fill-rule:evenodd;clip-rule:evenodd;fill:#083D6D;}
	.st11{fill:#DDB462;}
	
		.st12{clip-path:url(#SVGID_00000134246067266361706050000012859419313207498424_);fill:url(#SVGID_00000026123342054287157320000018341064303975839637_);}
	.st13{fill:#FFFFFF;}
	.st14{fill:url(#SVGID_00000123430779882754989460000004087772602694153356_);}
	.st15{fill:#224685;}
	.st16{fill:#FFC73B;}
	.st17{fill:#11233F;}
	.st18{fill:#5267FF;}
	.st19{fill-rule:evenodd;clip-rule:evenodd;fill:#72342E;}
	.st20{fill:#72342E;}
	.st21{fill:#FFF2E2;}
	.st22{fill:#FFF2E2;stroke:#72342E;stroke-width:0.75;stroke-miterlimit:10;}
	.st23{fill:#FFCC99;}
	.st24{fill:#469CB2;}
	.st25{fill:url(#XMLID_00000070085564724882542780000016984706539214868157_);}
	.st26{fill:url(#XMLID_00000179626282807649019170000014190742302731917492_);}
	.st27{fill:url(#XMLID_00000086683553110875235070000010170796370583154877_);}
	.st28{fill:url(#XMLID_00000067915815997712142740000000407650032092034711_);}
	.st29{fill:url(#XMLID_00000086692947964733216730000004145087408516551058_);}
	.st30{fill:url(#XMLID_00000173137329123792283680000017486024631631076744_);}
	.st31{fill:url(#XMLID_00000040564619914342208090000000929436079763061149_);}
	.st32{fill:url(#XMLID_00000064347000847058397720000015396488279074756751_);}
	.st33{fill:url(#XMLID_00000165206814482682682110000017492868466991209150_);}
	.st34{fill:url(#XMLID_00000173149106385657963160000010151679360425972643_);}
	.st35{fill:url(#XMLID_00000013874426889045590470000004991737394361851008_);}
	.st36{fill:url(#XMLID_00000085224322097452410450000014205965833746022298_);}
	.st37{fill:url(#XMLID_00000101077150353941728850000007055940830615415461_);}
	.st38{fill:url(#XMLID_00000119835796308997790110000013016663679700822944_);}
	.st39{fill:url(#XMLID_00000009580165572324993220000011446448586256690328_);}
	.st40{fill:url(#SVGID_00000036216447802321300220000003474230150840169652_);}
	.st41{fill:url(#SVGID_00000163785689512448495580000001765509478269364136_);}
	.st42{fill:url(#SVGID_00000068674720733455856960000016888432184171418541_);}
	.st43{fill:url(#SVGID_00000054265749576636343250000005638976173241278876_);}
	.st44{fill:url(#SVGID_00000116232009143371563720000002334174753545642934_);}
	.st45{fill:url(#SVGID_00000105425753960117309190000017041841858738413747_);}
	.st46{fill:url(#SVGID_00000013153556580579687130000005989600995145057171_);}
	.st47{fill:url(#SVGID_00000079447718838257913980000006303513777281271688_);}
	.st48{fill:url(#SVGID_00000139997332162902335730000001114812674530724541_);}
	.st49{fill:url(#SVGID_00000098221112968948125620000000142637018486929850_);}
	.st50{fill:url(#SVGID_00000032616287214362316950000003069787654279851704_);}
	.st51{fill:url(#SVGID_00000115490185640431154180000015321609645559087268_);}
	.st52{fill:url(#SVGID_00000024696643185503017810000009205673295789798300_);}
	.st53{fill:url(#SVGID_00000075858233546855659140000015064905171872088723_);}
	.st54{fill:#30325E;}
	.st55{fill:#FF7859;}
	.st56{fill:#FFD550;}
	.st57{fill:#00C3AD;}
	.st58{fill:#FF4653;}
	.st59{fill:#D8CE19;}
	.st60{fill:#FFE4D2;}
	.st61{fill:#A2E0EB;}
	.st62{fill:#1B3493;}
	.st63{fill:none;stroke:#FFFFFF;stroke-width:2;stroke-linecap:round;stroke-linejoin:round;stroke-miterlimit:10;}
	.st64{fill:#F15A24;}
	.st65{fill:#F7931E;}
	.st66{fill:#58595B;}
	.st67{fill:#114E15;}
	.st68{fill:#013D01;}
	.st69{fill:#E9C608;}
	.st70{fill:#043B00;}
	.st71{fill:#D8A43E;}
	.st72{clip-path:url(#SVGID_00000080197416388877036290000012323620503535208858_);}
	.st73{fill:#F49630;}
	.st74{clip-path:url(#SVGID_00000035517229654016219600000002571412185087005838_);}
	.st75{clip-path:url(#SVGID_00000112625383603501339830000004309437883900464057_);}
	.st76{clip-path:url(#SVGID_00000101797166227689423270000016740481851146391469_);}
	.st77{clip-path:url(#SVGID_00000012467667608259256640000010229837031425658248_);}
	.st78{fill-rule:evenodd;clip-rule:evenodd;fill:#FF6600;}
	.st79{fill-rule:evenodd;clip-rule:evenodd;fill:#05174F;}
	.st80{fill:#05174F;}
	.st81{opacity:0.42;fill:url(#SVGID_00000026876102862767453860000008268948124730610090_);enable-background:new    ;}
	.st82{opacity:0.42;fill:url(#SVGID_00000139290864138890136800000012170807090589639846_);enable-background:new    ;}
	.st83{fill:url(#SVGID_00000065774554155492337630000011983134245412213150_);}
	.st84{fill:url(#SVGID_00000095336575131720425130000002147333731823351478_);}
	.st85{opacity:0.64;fill:url(#SVGID_00000170274230566351743690000003286049064668515982_);enable-background:new    ;}
	.st86{opacity:0.75;fill:url(#SVGID_00000003801184133599708670000011250953998696802723_);enable-background:new    ;}
	.st87{fill:url(#SVGID_00000131333259545354546830000013189688022573700740_);}
	.st88{fill:url(#SVGID_00000024687073005974335510000000748829587068643513_);}
	.st89{opacity:0.76;fill:url(#SVGID_00000147908049853178577030000009080540699226745789_);enable-background:new    ;}
	.st90{opacity:0.75;fill:url(#SVGID_00000085971772527819900200000002661082635481182080_);enable-background:new    ;}
	.st91{fill:url(#SVGID_00000075159359639634315920000008888430295329771150_);}
	.st92{opacity:0.42;fill:url(#SVGID_00000114757354205472136220000003048609472290448034_);enable-background:new    ;}
	.st93{opacity:0.42;fill:url(#SVGID_00000058556883707548174520000003074078243978427050_);enable-background:new    ;}
	.st94{clip-path:url(#SVGID_00000043427504331220692170000016006808814765985199_);}
	.st95{fill:#1ED7FE;}
	.st96{clip-path:url(#SVGID_00000151542762561873216330000010071866083088691887_);}
	.st97{clip-path:url(#SVGID_00000020393234387961627330000008081022252677231534_);}
	.st98{fill:#000056;}
	.st99{clip-path:url(#SVGID_00000159439132750511368640000010912516953041342337_);}
	.st100{fill:#053272;}
	.st101{fill:none;stroke:#053272;stroke-width:4;stroke-miterlimit:10;}
	.st102{fill:url(#SVGID_00000147920474539436860790000017554656333271329464_);}
	.st103{fill:url(#SVGID_00000044895494259265710000000004987699783513771151_);}
	.st104{fill:url(#SVGID_00000173125031020585008560000010238648324599944609_);}
	.st105{fill:url(#SVGID_00000008107539967571215680000018118487851740705169_);}
	.st106{fill:url(#SVGID_00000072248300783589637650000016606900816339632535_);}
	.st107{fill:url(#SVGID_00000062911962036758619310000003206396460873324189_);}
	.st108{fill:url(#SVGID_00000019669090735464773380000017482468709136451259_);}
	.st109{fill:url(#SVGID_00000069359106366981525690000009804383412776980627_);}
	.st110{fill:url(#SVGID_00000030459142665056519270000002740284768144295074_);}
	.st111{fill:url(#SVGID_00000029739099254797418990000009892132861887877274_);}
	.st112{fill:url(#SVGID_00000144337253272962057760000008129047659914670258_);}
	.st113{fill:url(#SVGID_00000003073669322975768660000015476876314934463620_);}
	.st114{fill:url(#SVGID_00000049907486334343351170000011889565545459304614_);}
	.st115{fill:url(#SVGID_00000023963782923294977740000007716623461303744652_);}
	.st116{fill:url(#SVGID_00000012449830241906420320000001108981227871362970_);}
	.st117{fill:url(#SVGID_00000059302887994175115840000015215607649908593540_);}
	.st118{fill:url(#SVGID_00000018955411318151037460000006568793475419016610_);}
	.st119{fill:url(#SVGID_00000075865500377107809340000009149471709604247472_);}
	.st120{fill:url(#SVGID_00000097499877688108429670000006882937604389627816_);}
	.st121{fill:url(#SVGID_00000000939472729661082520000016762952451922668951_);}
	.st122{fill:url(#SVGID_00000116917283942547481060000015593301682392624292_);}
	.st123{fill:url(#SVGID_00000183217892289191861380000011458669828547235233_);}
	.st124{fill:url(#SVGID_00000093867073482033141130000001746210725183958670_);}
	.st125{fill:url(#SVGID_00000133508638939725198450000002343301337536608424_);}
	.st126{fill:url(#SVGID_00000087384420457420536610000003265142135421030044_);}
	.st127{fill:url(#SVGID_00000036235789927756070590000006953625919915656071_);}
	.st128{fill:url(#SVGID_00000064329287408180893380000011759799685527042969_);}
	.st129{fill:url(#SVGID_00000016780708117315415810000015812356139628264100_);}
	.st130{fill:url(#SVGID_00000149380279309260867180000003043005908023005354_);}
	.st131{fill:none;stroke:#FEF73D;stroke-linecap:round;stroke-miterlimit:10;}
	.st132{fill:none;stroke:#FF189C;stroke-miterlimit:10;}
	.st133{fill:none;stroke:#00EFF1;stroke-linecap:round;stroke-miterlimit:10;}
	.st134{fill:#00EFF1;}
	.st135{fill:#FFA022;}
	.st136{fill:#0C103A;}
	.st137{fill-rule:evenodd;clip-rule:evenodd;fill:#5D9541;}
	.st138{fill-rule:evenodd;clip-rule:evenodd;fill:#F06021;}
	.st139{fill-rule:evenodd;clip-rule:evenodd;fill:#69BC60;}
	.st140{fill-rule:evenodd;clip-rule:evenodd;fill:#F6951C;}
	.st141{fill:#F6951C;}
	.st142{fill:url(#SVGID_00000130641896572746631390000000496315791371840167_);}
	.st143{fill:url(#SVGID_00000127027166565010005090000004916265665387446180_);}
	.st144{fill:url(#SVGID_00000052074781927307453160000013101059395766837161_);}
	.st145{opacity:0.93;fill:url(#SVGID_00000079459341406143054370000007141291795654088092_);}
	.st146{opacity:0.93;fill:url(#SVGID_00000013191232657526900870000016720918078042526336_);}
	.st147{opacity:0.93;fill:url(#SVGID_00000027575912021756020530000014749761709190897343_);}
	.st148{opacity:0.93;fill:url(#SVGID_00000178912076955749721710000015806745626402377885_);}
	.st149{fill:url(#SVGID_00000149369366089228365700000010684247386994507157_);}
	.st150{fill:url(#SVGID_00000012457077668903613690000008170304344115275663_);}
	.st151{fill:url(#SVGID_00000154408163585540965330000004437275601053460412_);}
	.st152{fill:url(#SVGID_00000153682412109799410300000006018488731041731751_);}
	.st153{fill:url(#SVGID_00000148661673402310164510000015527712351159995581_);}
	.st154{fill:url(#SVGID_00000049903599064791352530000003229502098941679547_);}
	.st155{fill:url(#SVGID_00000000219808398749236660000000811687583702981272_);}
	.st156{fill:url(#SVGID_00000103951304023456412280000000085875260776515237_);}
	.st157{fill:url(#SVGID_00000107550715141761851890000011708904762756551100_);}
	.st158{fill:url(#SVGID_00000144337205236044810490000016352702853450590380_);}
	.st159{fill:url(#SVGID_00000031185716675730394620000016399449845850571655_);}
	.st160{fill:url(#SVGID_00000050622910998284196850000014725890370457850534_);}
	.st161{fill:url(#SVGID_00000141442467830228717670000001107294148511462799_);}
	.st162{fill:url(#SVGID_00000036218711904842174690000013087770598310723769_);}
	.st163{fill:url(#SVGID_00000033359980104661210580000016742438621141240961_);}
	.st164{fill:url(#SVGID_00000009567634110069384440000007369753355907494020_);}
	.st165{fill:url(#SVGID_00000130616701275599866670000010754261873215612805_);}
	.st166{fill:url(#SVGID_00000062893397658913396870000005258214694991436719_);}
	.st167{fill:url(#SVGID_00000172410679041940029910000002113052694620216962_);}
	.st168{fill:url(#SVGID_00000021114879119063478390000000626595264040846492_);}
	.st169{fill:url(#SVGID_00000161601221329447791900000006660555194077836673_);}
	.st170{fill:url(#SVGID_00000093878141832709425190000004547424155171351183_);}
	.st171{fill:url(#SVGID_00000057146115910157446200000001892436935517095307_);}
	.st172{fill:url(#SVGID_00000040560972909825604380000010608820065144684428_);}
	.st173{fill:url(#SVGID_00000029762779497942416080000008895221380866449558_);}
	.st174{fill:url(#SVGID_00000183939192209922994940000005201575885593412516_);}
	.st175{fill:url(#SVGID_00000135651021539710755340000014178459972457909130_);}
	.st176{fill:url(#SVGID_00000080924565123467300160000008929667656478288778_);}
	.st177{fill:url(#SVGID_00000094576314185490913600000013059265806403005612_);}
	.st178{fill:url(#SVGID_00000031925581117851808360000002928486364306720682_);}
	.st179{fill:url(#SVGID_00000157299619172703317520000003248394452293505170_);}
	.st180{fill:url(#SVGID_00000099653938774912271170000010752835304106614449_);}
	.st181{fill:url(#SVGID_00000124156352593311910220000003362592567749888680_);}
	.st182{fill:url(#SVGID_00000023962201596246962880000009253163677043698331_);}
	.st183{fill:url(#SVGID_00000034061766842308812650000016221451751373790117_);}
	.st184{fill:url(#SVGID_00000068648350603510584370000005295053151262013851_);}
	.st185{fill:url(#SVGID_00000086670239833746302090000010486816241982428585_);}
	.st186{fill:url(#SVGID_00000114043607280273175180000001604104668984900528_);}
	.st187{fill:url(#SVGID_00000012450002672461206450000009327217872369259416_);}
	.st188{fill:url(#SVGID_00000080890892533887018670000007051974798593198734_);}
	.st189{fill:url(#SVGID_00000064326162217758389490000009500080802460048812_);}
	.st190{fill:url(#SVGID_00000067220740261856957520000010508012776237003681_);}
	.st191{fill:url(#SVGID_00000117671050452596615850000007150192826555453100_);}
	.st192{fill:url(#SVGID_00000183956715321387394690000006935506910539811210_);}
	.st193{fill:url(#SVGID_00000114063647877735691600000009292646793530510474_);}
	.st194{fill-rule:evenodd;clip-rule:evenodd;fill:#512100;}
	.st195{fill-rule:evenodd;clip-rule:evenodd;fill:#006D62;}
	.st196{fill-rule:evenodd;clip-rule:evenodd;}
	.st197{fill-rule:evenodd;clip-rule:evenodd;fill:#00A1F5;}
	.st198{fill-rule:evenodd;clip-rule:evenodd;fill:#FACFAB;}
	.st199{fill-rule:evenodd;clip-rule:evenodd;fill:#F29673;}
	.st200{fill-rule:evenodd;clip-rule:evenodd;fill:#FFFFFF;}
	.st201{fill-rule:evenodd;clip-rule:evenodd;fill:#333333;}
	.st202{fill-rule:evenodd;clip-rule:evenodd;fill:#BD4D00;}
	.st203{fill-rule:evenodd;clip-rule:evenodd;fill:#B2B2B2;}
	.st204{fill-rule:evenodd;clip-rule:evenodd;fill:#F2CC29;}
	.st205{fill-rule:evenodd;clip-rule:evenodd;fill:#005C9C;}
	.st206{fill-rule:evenodd;clip-rule:evenodd;fill:#8AC900;}
	.st207{fill-rule:evenodd;clip-rule:evenodd;fill:#808080;}
	.st208{fill-rule:evenodd;clip-rule:evenodd;fill:#CFA605;}
	.st209{fill-rule:evenodd;clip-rule:evenodd;fill:#666666;}
	.st210{fill-rule:evenodd;clip-rule:evenodd;fill:#CCCCCC;}
	.st211{fill:#960000;}
	.st212{fill:url(#SVGID_00000152982021097925841210000014917239577356417680_);}
	.st213{fill:url(#SVGID_00000117637399130612575020000001845403561009277334_);}
	.st214{opacity:0.51;fill:url(#SVGID_00000077310737183158782650000017515915708259585705_);}
	.st215{fill:url(#SVGID_00000069370808476181583250000016940401394967727777_);}
	.st216{fill:url(#SVGID_00000024703567784926369090000006917751004313302441_);}
	.st217{fill:url(#SVGID_00000014628302466392897790000011418418153284809096_);}
	.st218{opacity:0.35;fill:url(#SVGID_00000128443853170887887610000003424668289873045136_);}
	.st219{opacity:0.35;fill:url(#SVGID_00000034782408161766385720000017821112327437762215_);}
	.st220{fill:#F06021;}
	.st221{fill-rule:evenodd;clip-rule:evenodd;fill:url(#SVGID_00000092448873365928491300000007753946336640937640_);}
	.st222{fill-rule:evenodd;clip-rule:evenodd;fill:url(#SVGID_00000168825297421623601090000000423269669454109352_);}
	.st223{fill-rule:evenodd;clip-rule:evenodd;fill:url(#SVGID_00000062902354538299892440000015366340967477270161_);}
	.st224{fill-rule:evenodd;clip-rule:evenodd;fill:url(#SVGID_00000023266682393316245500000012575172481731471540_);}
	.st225{fill-rule:evenodd;clip-rule:evenodd;fill:url(#SVGID_00000068657115337184902180000012421510295820099260_);}
	.st226{fill-rule:evenodd;clip-rule:evenodd;fill:url(#SVGID_00000163779331963432030580000014165416257569137338_);}
	.st227{fill-rule:evenodd;clip-rule:evenodd;fill:url(#SVGID_00000103969944587176477370000015237172336045273529_);}
	.st228{fill-rule:evenodd;clip-rule:evenodd;fill:url(#SVGID_00000183965144996872279040000009990937230992073652_);}
	.st229{fill-rule:evenodd;clip-rule:evenodd;fill:url(#SVGID_00000176728119741571139770000005769428624999413403_);}
	.st230{fill-rule:evenodd;clip-rule:evenodd;fill:url(#SVGID_00000064347138142337795790000002247120962471534981_);}
	.st231{fill-rule:evenodd;clip-rule:evenodd;fill:url(#SVGID_00000149354672145697628380000001434503128030245762_);}
	.st232{fill-rule:evenodd;clip-rule:evenodd;fill:url(#SVGID_00000151532327149496267080000006958694151265099669_);}
	.st233{fill-rule:evenodd;clip-rule:evenodd;fill:url(#SVGID_00000075141163549108942950000011130895613596660619_);}
	.st234{opacity:0.5;fill-rule:evenodd;clip-rule:evenodd;fill:#5D0101;enable-background:new    ;}
	.st235{fill:#E11B22;}
	.st236{fill:#959595;}
	.st237{fill:#003359;}
	.st238{fill:#1779C1;}
	.st239{fill:#0EB17C;}
	.st240{fill:#2B2353;}
	.st241{fill:#BE264E;}
	.st242{fill:#EAA41C;}
	.st243{fill:#1F9EF3;}
	.st244{fill:#0267A3;}
	.st245{fill:#FFEC00;}
	.st246{fill:#00A0E0;}
	.st247{fill:#E3007E;}
	.st248{fill:none;stroke:#000000;stroke-width:2;stroke-miterlimit:10;}
</style>
<g id="Layer_4">
	<g>
		<g>
			
				<linearGradient id="SVGID_00000133519405022837212800000013143923994867688593_" gradientUnits="userSpaceOnUse" x1="91.4303" y1="-790.6545" x2="91.4303" y2="-860.8104" gradientTransform="matrix(1 0 0 -1 0 -741.6129)">
				<stop  offset="0" style="stop-color:#EC2224"/>
				<stop  offset="1" style="stop-color:#C1272D"/>
			</linearGradient>
			<path style="fill:url(#SVGID_00000133519405022837212800000013143923994867688593_);" d="M89.57,86.27
				c-2.89,1.93-5.66,4.82-5.83,8.25c-0.02,0.19-0.02,0.39,0,0.58c0.4-3.31,3.39-5.78,6.18-7.43c5.1-3.03,6.74-5.27,9.22-11.03
				C96.06,82.34,94.45,82.96,89.57,86.27z"/>
			
				<linearGradient id="SVGID_00000174583599216161124530000000512167794152638361_" gradientUnits="userSpaceOnUse" x1="112.5651" y1="-790.6545" x2="112.5651" y2="-860.8106" gradientTransform="matrix(1 0 0 -1 0 -741.6129)">
				<stop  offset="0" style="stop-color:#EC2224"/>
				<stop  offset="1" style="stop-color:#C1272D"/>
			</linearGradient>
			<path style="fill:url(#SVGID_00000174583599216161124530000000512167794152638361_);" d="M103.22,68.78
				c-0.54,14.45,17.52,19.76,17.52,27.19c0,2.74-1,5.23-2.64,7.12c2.33-2,3.83-4.96,3.83-8.25
				C121.92,86.83,106.22,83.64,103.22,68.78z"/>
			
				<linearGradient id="SVGID_00000082354808525800079880000010340465441158250153_" gradientUnits="userSpaceOnUse" x1="253.072" y1="-790.6553" x2="253.072" y2="-860.8104" gradientTransform="matrix(1 0 0 -1 0 -741.6129)">
				<stop  offset="0" style="stop-color:#EC2224"/>
				<stop  offset="1" style="stop-color:#C1272D"/>
			</linearGradient>
			<path style="fill:url(#SVGID_00000082354808525800079880000010340465441158250153_);" d="M254.42,84.67
				c6.26-12.29-9.11-22.46-17.99-13.44c9.44-6.5,22.24,3.4,17.29,14.22c7.34-1.91,14.65,3.58,14.65,11.18c0,2.49-0.81,4.9-2.29,6.85
				c2.29-2.1,3.64-5.08,3.64-8.21C269.71,87.22,262.04,82.34,254.42,84.67z"/>
			
				<linearGradient id="SVGID_00000054970512743145062400000008318839505349572784_" gradientUnits="userSpaceOnUse" x1="229.2631" y1="-790.6542" x2="229.2631" y2="-860.8113" gradientTransform="matrix(1 0 0 -1 0 -741.6129)">
				<stop  offset="0" style="stop-color:#EC2224"/>
				<stop  offset="1" style="stop-color:#C1272D"/>
			</linearGradient>
			<path style="fill:url(#SVGID_00000054970512743145062400000008318839505349572784_);" d="M232.77,84.77
				c-0.37-0.04-0.75-0.06-1.12-0.06c-3.33,0-6.58,1.52-9.11,4.16c2.25-1.67,4.81-2.37,7.43-2.55c1.16-0.1,3.83,0.16,6.03,1.21
				l-1.5-2.47C233.94,84.93,233.25,84.83,232.77,84.77z"/>
			
				<linearGradient id="SVGID_00000065790409453046605770000017916778234599067274_" gradientUnits="userSpaceOnUse" x1="99.3865" y1="-766.2194" x2="99.3865" y2="-844.6393" gradientTransform="matrix(1 0 0 -1 0 -741.6129)">
				<stop  offset="0" style="stop-color:#EC2224"/>
				<stop  offset="1" style="stop-color:#C1272D"/>
			</linearGradient>
			<path style="fill:url(#SVGID_00000065790409453046605770000017916778234599067274_);" d="M129.33,92.1
				c0-8.33,2.38-16.1,6.5-22.68c-7.21-10.45-19.26-17.29-32.91-17.29c-22.08,0-39.97,17.9-39.97,39.97
				c0,22.08,17.9,39.97,39.97,39.97c13.65,0,25.7-6.85,32.91-17.29C131.72,108.2,129.33,100.43,129.33,92.1z M105.17,104.19
				c0.17,7.37,6.09,13.42,14,12.93l0.12,3.02H86.73l0.12-2.85c8.11,0.39,13.91-5.73,14.04-13.24c-8.51,6.73-20.41,1.88-20.41-8.7
				c0-9.8,17.6-12.52,22.42-30.29c0.02,0,0.71,2.94,2.62,6.73c5.08,10.04,19.82,15.79,19.82,23.47
				C125.35,105.55,114.05,111.8,105.17,104.19z"/>
			
				<linearGradient id="SVGID_00000005959108879481607120000012635505201821128854_" gradientUnits="userSpaceOnUse" x1="247.6666" y1="-766.2194" x2="247.6666" y2="-844.6393" gradientTransform="matrix(1 0 0 -1 0 -741.6129)">
				<stop  offset="0" style="stop-color:#EC2224"/>
				<stop  offset="1" style="stop-color:#C1272D"/>
			</linearGradient>
			<path style="fill:url(#SVGID_00000005959108879481607120000012635505201821128854_);" d="M245.08,52.13
				c-14.93,0-27.94,8.19-34.8,20.32c3.05,5.89,4.78,12.57,4.78,19.65c0,7.09-1.73,13.76-4.78,19.65
				c6.86,12.13,19.87,20.32,34.8,20.32c22.08,0,39.97-17.9,39.97-39.97C285.06,70.02,267.16,52.13,245.08,52.13z M260.14,107.43
				c-4.78,0-11.3-1.46-13.67-5.12c0.17,8.85,5.48,15.6,14.91,14.96l0.14,2.86h-16.73h-17.66v-2.85c9.65,0.52,15.38-5.88,15.48-14.71
				c-2.43,3.56-8.17,4.96-12.79,4.96c-6.99,0-12.57-5.65-12.57-12.56c0-8.5,8.41-14.47,16.48-12c-4.2-8.21,1.79-18.19,11.32-18.19
				c9.53,0,15.51,9.96,11.31,18.17c8.07-2.47,16.44,3.48,16.44,11.98C272.81,101.84,267.13,107.43,260.14,107.43z"/>
			
				<linearGradient id="SVGID_00000081626476657349748180000011941840696035632319_" gradientUnits="userSpaceOnUse" x1="159.8259" y1="-790.6551" x2="159.8259" y2="-860.8099" gradientTransform="matrix(1 0 0 -1 0 -741.6129)">
				<stop  offset="0" style="stop-color:#4E4E4E"/>
				<stop  offset="1" style="stop-color:#000000"/>
			</linearGradient>
			<polygon style="fill:url(#SVGID_00000081626476657349748180000011941840696035632319_);" points="155.36,91.85 164.29,104.43 
				158.09,91.85 164.29,79.3 			"/>
			
				<linearGradient id="SVGID_00000026856988732520316110000010130940030028808842_" gradientUnits="userSpaceOnUse" x1="181.8479" y1="-790.6543" x2="181.8479" y2="-860.8102" gradientTransform="matrix(1 0 0 -1 0 -741.6129)">
				<stop  offset="0" style="stop-color:#4E4E4E"/>
				<stop  offset="1" style="stop-color:#000000"/>
			</linearGradient>
			<polygon style="fill:url(#SVGID_00000026856988732520316110000010130940030028808842_);" points="188.61,91.85 175.09,72.79 
				185.09,91.85 175.09,110.93 			"/>
			
				<linearGradient id="SVGID_00000114061033994894370130000009990330809768040346_" gradientUnits="userSpaceOnUse" x1="172.1938" y1="-790.6549" x2="172.1938" y2="-860.8101" gradientTransform="matrix(1 0 0 -1 0 -741.6129)">
				<stop  offset="0" style="stop-color:#4E4E4E"/>
				<stop  offset="1" style="stop-color:#000000"/>
			</linearGradient>
			<path style="fill:url(#SVGID_00000114061033994894370130000009990330809768040346_);" d="M172.19,52.13
				c-22.08,0-39.97,17.9-39.97,39.97c0,22.08,17.9,39.97,39.97,39.97c22.08,0,39.97-17.9,39.97-39.97
				C212.16,70.02,194.27,52.13,172.19,52.13z M172.19,119.49l-19.45-27.4l19.45-27.4l19.45,27.4L172.19,119.49z"/>
			
				<linearGradient id="SVGID_00000059991261500640943220000008920314392102568074_" gradientUnits="userSpaceOnUse" x1="99.0618" y1="-797.0584" x2="99.0618" y2="-849.6363" gradientTransform="matrix(1 0 0 -1 0 -741.6129)">
				<stop  offset="0" style="stop-color:#EE4023"/>
				<stop  offset="1" style="stop-color:#C1272D"/>
			</linearGradient>
			<path style="fill:url(#SVGID_00000059991261500640943220000008920314392102568074_);" d="M102.73,130.65
				c-21.26,0-38.56-17.3-38.56-38.56c0-21.26,17.3-38.56,38.56-38.56c12.36,0,23.96,5.94,31.22,15.93
				c-4.07,6.84-6.22,14.64-6.22,22.62c0,7.99,2.15,15.79,6.22,22.62C126.69,124.71,115.09,130.65,102.73,130.65z M85.07,121.57
				h35.51l-0.25-5.95l-1.44,0.09c-0.27,0.02-0.54,0.03-0.81,0.03c-5.46,0-9.88-3.51-11.25-8.54c2.11,1.17,4.36,1.78,6.65,1.78
				c7.34,0,13.09-6.03,13.09-13.72c0-4.77-4.59-8.63-9.44-12.72c-4.08-3.44-8.3-6.99-10.53-11.4c-0.73-1.44-1.75-3.7-2.48-6.31
				c-0.29-1.04-1.01-1.19-1.41-1.19h-1.08l-0.28,1.05c-2.5,9.21-8.52,14.12-13.82,18.45c-4.64,3.79-8.65,7.06-8.65,12.21
				c0,3.79,1.42,7.21,4.01,9.65c2.45,2.3,5.72,3.57,9.22,3.57c2.37,0,4.68-0.57,6.82-1.68c-1.28,5.3-5.84,9.02-11.53,9.02
				c-0.22,0-0.44-0.01-0.66-0.02l-1.42-0.07L85.07,121.57z"/>
			
				<linearGradient id="SVGID_00000173848200206430932910000017813258532696011649_" gradientUnits="userSpaceOnUse" x1="247.5792" y1="-797.0584" x2="247.5792" y2="-849.6363" gradientTransform="matrix(1 0 0 -1 0 -741.6129)">
				<stop  offset="0" style="stop-color:#EE4023"/>
				<stop  offset="1" style="stop-color:#C1272D"/>
			</linearGradient>
			<path style="fill:url(#SVGID_00000173848200206430932910000017813258532696011649_);" d="M244.9,130.65
				c-13.61,0-26.26-7.24-33.19-18.95c2.25-4.53,3.67-9.31,4.26-14.27c1.18,6.53,6.95,11.51,13.87,11.51c3.44,0,7.85-1.3,11.09-3.58
				c-1.55,6.32-6.72,10.73-13.18,10.73c-0.26,0-1.51-0.1-1.51-0.1v5.57h36.6v-5.8c0,0-1.38,0.13-1.7,0.13
				c-6.97,0-11.42-5.03-12.89-10.74c3.36,2.33,8.08,3.68,11.72,3.68c7.77,0,14.09-6.25,14.09-13.93c0-7.69-6.33-13.96-14.11-13.96
				c-0.5,0-0.99,0.03-1.48,0.08c1.04-3.67,0.52-7.62-1.54-10.98c-2.56-4.2-7.06-6.7-12.02-6.7c-4.95,0-9.44,2.51-12.01,6.7
				c-2.06,3.37-2.59,7.33-1.55,11c-0.49-0.05-0.98-0.08-1.47-0.08c-6.46,0-11.92,4.32-13.59,10.19c-0.13-6.55-1.67-12.83-4.57-18.69
				c6.93-11.71,19.58-18.95,33.19-18.95c21.26,0,38.56,17.3,38.56,38.56C283.45,113.36,266.16,130.65,244.9,130.65z"/>
			
				<linearGradient id="SVGID_00000069379984488850492950000001128073726007724196_" gradientUnits="userSpaceOnUse" x1="172.0086" y1="-810.548" x2="172.0086" y2="-858.8867" gradientTransform="matrix(1 0 0 -1 0 -741.6129)">
				<stop  offset="0" style="stop-color:#5A5A59"/>
				<stop  offset="1" style="stop-color:#000000"/>
			</linearGradient>
			<path style="fill:url(#SVGID_00000069379984488850492950000001128073726007724196_);" d="M172.01,130.65
				c-21.26,0-38.56-17.3-38.56-38.56c0-21.26,17.3-38.56,38.56-38.56c21.26,0,38.56,17.3,38.56,38.56
				C210.57,113.36,193.27,130.65,172.01,130.65z M150.82,92.1l21.19,29.84L193.2,92.1l-21.19-29.84L150.82,92.1z"/>
			
				<linearGradient id="SVGID_00000160911732394520285600000005400673064570903699_" gradientUnits="userSpaceOnUse" x1="99.0835" y1="-835.9862" x2="99.0835" y2="-783.9116" gradientTransform="matrix(1 0 0 -1 0 -741.6129)">
				<stop  offset="0" style="stop-color:#EE4023"/>
				<stop  offset="1" style="stop-color:#C1272D"/>
			</linearGradient>
			<path style="fill:url(#SVGID_00000160911732394520285600000005400673064570903699_);" d="M80.34,90.32
				c1.57-2.59,4.26-4.79,7.19-7.19c5.31-4.33,11.32-9.24,13.82-18.45l0.28-1.05h1.08c0.4,0,1.12,0.15,1.41,1.19
				c0.73,2.61,1.75,4.88,2.48,6.31c2.23,4.41,6.45,7.96,10.53,11.4c3.08,2.59,6.04,5.08,7.8,7.78h2.85
				c0.29-7.36,2.39-14.52,6.16-20.84c-7.26-10-18.86-15.93-31.22-15.93c-20.66,0-37.58,16.34-38.51,36.78L80.34,90.32L80.34,90.32z"
				/>
			
				<linearGradient id="SVGID_00000027597502497444774740000018046809253239077772_" gradientUnits="userSpaceOnUse" x1="247.5571" y1="-835.9862" x2="247.5571" y2="-783.9116" gradientTransform="matrix(1 0 0 -1 0 -741.6129)">
				<stop  offset="0" style="stop-color:#EE4023"/>
				<stop  offset="1" style="stop-color:#C1272D"/>
			</linearGradient>
			<path style="fill:url(#SVGID_00000027597502497444774740000018046809253239077772_);" d="M216.56,90.32
				c1.94-5.43,7.17-9.33,13.31-9.33c0.49,0,0.98,0.03,1.47,0.08c-1.04-3.67-0.51-7.63,1.55-11c2.57-4.2,7.06-6.7,12.01-6.7
				c4.96,0,9.45,2.51,12.02,6.7c2.06,3.36,2.58,7.32,1.54,10.98c0.49-0.05,0.99-0.08,1.48-0.08c6.15,0,11.37,3.92,13.3,9.35h10.17
				c-0.93-20.44-17.85-36.78-38.51-36.78c-13.61,0-26.26,7.24-33.19,18.95c2.78,5.6,4.29,11.59,4.53,17.83L216.56,90.32
				L216.56,90.32z"/>
			
				<linearGradient id="SVGID_00000061439927918125670650000006142749444126414776_" gradientUnits="userSpaceOnUse" x1="172.0081" y1="-835.9862" x2="172.0081" y2="-783.9116" gradientTransform="matrix(1 0 0 -1 0 -741.6129)">
				<stop  offset="0" style="stop-color:#5A5A59"/>
				<stop  offset="1" style="stop-color:#000000"/>
			</linearGradient>
			<path style="fill:url(#SVGID_00000061439927918125670650000006142749444126414776_);" d="M152.08,90.32l19.93-28.06l19.93,28.06
				h18.59c-0.93-20.44-17.85-36.78-38.51-36.78c-20.66,0-37.58,16.34-38.51,36.78H152.08z"/>
		</g>
		<g>
			<g>
				
					<linearGradient id="SVGID_00000101073866813625193220000002928271814084157879_" gradientUnits="userSpaceOnUse" x1="63.6916" y1="164.0244" x2="85.0317" y2="164.0244">
					<stop  offset="0" style="stop-color:#EE4023"/>
					<stop  offset="1" style="stop-color:#C1272D"/>
				</linearGradient>
				<path style="fill:url(#SVGID_00000101073866813625193220000002928271814084157879_);" d="M79.89,163.94h5.15v8.13
					c-2.27,2.54-5.42,3.8-9.44,3.8c-3.37,0-6.19-1.11-8.47-3.34c-2.28-2.23-3.43-5.04-3.43-8.44c0-3.4,1.16-6.23,3.49-8.51
					c2.33-2.27,5.14-3.41,8.42-3.41c3.29,0,6.15,1.08,8.57,3.25l-2.66,3.84c-1.03-0.9-1.97-1.51-2.84-1.85
					c-0.86-0.34-1.8-0.51-2.8-0.51c-1.95,0-3.58,0.66-4.92,1.98c-1.33,1.32-2,3.07-2,5.23c0,2.16,0.64,3.9,1.92,5.2
					c1.28,1.3,2.8,1.95,4.57,1.95c1.77,0,3.25-0.34,4.43-1.02V163.94z"/>
				
					<linearGradient id="SVGID_00000108310126950543384160000008382430727602559126_" gradientUnits="userSpaceOnUse" x1="86.4086" y1="164.1556" x2="111.1581" y2="164.1556">
					<stop  offset="0" style="stop-color:#EE4023"/>
					<stop  offset="1" style="stop-color:#C1272D"/>
				</linearGradient>
				<path style="fill:url(#SVGID_00000108310126950543384160000008382430727602559126_);" d="M105.72,175.61l-2.13-4.95h-9.6
					l-2.13,4.95h-5.44l9.9-22.91h4.95l9.9,22.91H105.72z M98.8,159.52l-2.88,6.65h5.74L98.8,159.52z"/>
				
					<linearGradient id="SVGID_00000183961057071221599500000012664284738565034148_" gradientUnits="userSpaceOnUse" x1="113.8133" y1="164.1556" x2="139.4479" y2="164.1556">
					<stop  offset="0" style="stop-color:#EE4023"/>
					<stop  offset="1" style="stop-color:#C1272D"/>
				</linearGradient>
				<path style="fill:url(#SVGID_00000183961057071221599500000012664284738565034148_);" d="M134.33,161.19l-6.2,12.52h-3.05
					l-6.16-12.52v14.42h-5.11V152.7h6.92l5.9,12.59l5.93-12.59h6.88v22.91h-5.11V161.19z"/>
				
					<linearGradient id="SVGID_00000095325526326532327220000003914072801339489928_" gradientUnits="userSpaceOnUse" x1="145.086" y1="164.1556" x2="161.9682" y2="164.1556">
					<stop  offset="0" style="stop-color:#EE4023"/>
					<stop  offset="1" style="stop-color:#C1272D"/>
				</linearGradient>
				<path style="fill:url(#SVGID_00000095325526326532327220000003914072801339489928_);" d="M161.61,152.7v4.56H150.2v4.72h10.26
					v4.36H150.2v4.75h11.77v4.52h-16.88V152.7H161.61z"/>
				
					<linearGradient id="SVGID_00000041282207381741408430000008806703009386911393_" gradientUnits="userSpaceOnUse" x1="164.8849" y1="164.0244" x2="183.0784" y2="164.0244">
					<stop  offset="0" style="stop-color:#EE4023"/>
					<stop  offset="1" style="stop-color:#C1272D"/>
				</linearGradient>
				<path style="fill:url(#SVGID_00000041282207381741408430000008806703009386911393_);" d="M171.88,157.27
					c-0.49,0.4-0.74,0.94-0.74,1.61c0,0.67,0.3,1.2,0.9,1.59c0.6,0.39,1.99,0.86,4.16,1.39c2.17,0.54,3.86,1.34,5.06,2.41
					c1.2,1.07,1.8,2.63,1.8,4.69c0,2.05-0.77,3.72-2.31,5c-1.54,1.28-3.57,1.92-6.08,1.92c-3.63,0-6.9-1.34-9.8-4.03l3.05-3.74
					c2.47,2.16,4.75,3.25,6.85,3.25c0.94,0,1.68-0.2,2.21-0.61c0.54-0.4,0.8-0.95,0.8-1.64c0-0.69-0.28-1.23-0.85-1.64
					c-0.57-0.4-1.69-0.81-3.38-1.23c-2.67-0.63-4.62-1.46-5.85-2.48c-1.23-1.02-1.85-2.61-1.85-4.79c0-2.17,0.78-3.85,2.34-5.03
					c1.56-1.18,3.51-1.77,5.85-1.77c1.53,0,3.06,0.26,4.59,0.79c1.53,0.52,2.86,1.27,4,2.23l-2.59,3.74
					c-1.99-1.51-4.04-2.26-6.16-2.26C173.05,156.66,172.38,156.87,171.88,157.27z"/>
			</g>
			<g>
				
					<linearGradient id="SVGID_00000008146702795647316680000002915654572471177355_" gradientUnits="userSpaceOnUse" x1="187.4846" y1="168.4985" x2="200.0361" y2="168.4985">
					<stop  offset="0" style="stop-color:#EE4023"/>
					<stop  offset="1" style="stop-color:#C1272D"/>
				</linearGradient>
				<path style="fill:url(#SVGID_00000008146702795647316680000002915654572471177355_);" d="M196.35,174.11
					c-1.11,0.9-2.4,1.35-3.86,1.35c-1.46,0-2.66-0.37-3.6-1.12c-0.94-0.75-1.41-1.77-1.41-3.06c0-1.45,0.97-2.74,2.91-3.87
					c-0.44-0.53-0.75-0.99-0.95-1.4c-0.2-0.4-0.3-0.88-0.3-1.42c0-1.12,0.41-1.98,1.22-2.58c0.81-0.59,1.77-0.89,2.89-0.89
					c1.11,0,2.06,0.29,2.85,0.86c0.79,0.57,1.18,1.38,1.18,2.41c0,1.3-0.95,2.5-2.84,3.61c0.74,0.93,1.3,1.59,1.67,2
					c0.33-0.61,0.58-1.25,0.75-1.92l2.32,1.67c-0.3,0.83-0.67,1.61-1.11,2.32l1.96,1.94l-1.96,1.86L196.35,174.11z M191.01,172.52
					c0.38,0.3,0.88,0.46,1.49,0.46c0.61,0,1.26-0.29,1.96-0.87c-0.97-1.02-1.8-1.94-2.5-2.78c-1.02,0.63-1.53,1.32-1.53,2.04
					C190.44,171.84,190.63,172.22,191.01,172.52z M193.25,163.46c-0.29,0-0.55,0.1-0.78,0.31c-0.23,0.2-0.35,0.48-0.35,0.83
					c0,0.35,0.26,0.86,0.79,1.52c0.99-0.53,1.49-1.02,1.49-1.49c0-0.38-0.12-0.67-0.36-0.87S193.55,163.46,193.25,163.46z"/>
			</g>
			<g>
				
					<linearGradient id="SVGID_00000005252300741133853770000017119063449250262688_" gradientUnits="userSpaceOnUse" x1="204.2208" y1="170.0823" x2="213.7073" y2="170.0823">
					<stop  offset="0" style="stop-color:#5A5A59"/>
					<stop  offset="1" style="stop-color:#000000"/>
				</linearGradient>
				<path style="fill:url(#SVGID_00000005252300741133853770000017119063449250262688_);" d="M211.42,170.05h2.29v3.61
					c-1.01,1.13-2.41,1.69-4.2,1.69c-1.5,0-2.75-0.5-3.77-1.49c-1.02-0.99-1.52-2.24-1.52-3.75c0-1.51,0.52-2.77,1.55-3.78
					c1.03-1.01,2.28-1.52,3.74-1.52c1.46,0,2.73,0.48,3.81,1.44l-1.18,1.7c-0.46-0.4-0.88-0.67-1.26-0.82
					c-0.38-0.15-0.8-0.23-1.25-0.23c-0.86,0-1.59,0.29-2.19,0.88c-0.59,0.59-0.89,1.36-0.89,2.32s0.28,1.73,0.85,2.31
					c0.57,0.58,1.25,0.87,2.03,0.87s1.44-0.15,1.97-0.45V170.05z"/>
				
					<linearGradient id="SVGID_00000054244169400683670350000001721882449099204230_" gradientUnits="userSpaceOnUse" x1="214.3194" y1="170.1406" x2="225.3212" y2="170.1406">
					<stop  offset="0" style="stop-color:#5A5A59"/>
					<stop  offset="1" style="stop-color:#000000"/>
				</linearGradient>
				<path style="fill:url(#SVGID_00000054244169400683670350000001721882449099204230_);" d="M222.9,175.23l-0.95-2.2h-4.27
					l-0.95,2.2h-2.42l4.4-10.19h2.2l4.4,10.19H222.9z M219.83,168.08l-1.28,2.96h2.55L219.83,168.08z"/>
				
					<linearGradient id="SVGID_00000111158334259202222380000006651918010422587270_" gradientUnits="userSpaceOnUse" x1="226.5015" y1="170.1406" x2="237.897" y2="170.1406">
					<stop  offset="0" style="stop-color:#5A5A59"/>
					<stop  offset="1" style="stop-color:#000000"/>
				</linearGradient>
				<path style="fill:url(#SVGID_00000111158334259202222380000006651918010422587270_);" d="M235.62,168.82l-2.75,5.57h-1.36
					l-2.74-5.57v6.41h-2.27v-10.19h3.07l2.62,5.6l2.64-5.6h3.06v10.19h-2.27V168.82z"/>
				
					<linearGradient id="SVGID_00000010299230293866919580000012113686675020701096_" gradientUnits="userSpaceOnUse" x1="240.4032" y1="170.1406" x2="248.5345" y2="170.1406">
					<stop  offset="0" style="stop-color:#5A5A59"/>
					<stop  offset="1" style="stop-color:#000000"/>
				</linearGradient>
				<path style="fill:url(#SVGID_00000010299230293866919580000012113686675020701096_);" d="M244.86,175.23h-4.46v-10.19h3.96
					c0.69,0,1.28,0.08,1.79,0.25c0.5,0.17,0.88,0.39,1.13,0.67c0.46,0.52,0.68,1.12,0.68,1.78c0,0.8-0.26,1.39-0.77,1.78
					c-0.18,0.14-0.3,0.22-0.36,0.26c-0.07,0.03-0.19,0.09-0.36,0.17c0.63,0.14,1.13,0.42,1.51,0.85c0.37,0.43,0.56,0.97,0.56,1.61
					c0,0.71-0.24,1.34-0.73,1.88C247.24,174.92,246.26,175.23,244.86,175.23z M242.68,169.17h1.08c0.63,0,1.1-0.07,1.41-0.2
					c0.31-0.14,0.46-0.43,0.46-0.88c0-0.45-0.14-0.75-0.42-0.9c-0.28-0.15-0.76-0.22-1.43-0.22h-1.09V169.17z M242.68,173.31h1.56
					c0.65,0,1.14-0.08,1.46-0.24c0.33-0.16,0.49-0.48,0.49-0.95c0-0.47-0.17-0.78-0.52-0.93c-0.34-0.15-0.9-0.23-1.65-0.23h-1.34
					V173.31z"/>
				
					<linearGradient id="SVGID_00000049935268314864202970000015985285653877811078_" gradientUnits="userSpaceOnUse" x1="250.4433" y1="170.1406" x2="257.0591" y2="170.1406">
					<stop  offset="0" style="stop-color:#5A5A59"/>
					<stop  offset="1" style="stop-color:#000000"/>
				</linearGradient>
				<path style="fill:url(#SVGID_00000049935268314864202970000015985285653877811078_);" d="M250.44,175.23v-10.19h2.27v8.16h4.34
					v2.03H250.44z"/>
				
					<linearGradient id="SVGID_00000110440213129385452370000001884001410372364685_" gradientUnits="userSpaceOnUse" x1="258.7202" y1="170.1406" x2="260.9933" y2="170.1406">
					<stop  offset="0" style="stop-color:#5A5A59"/>
					<stop  offset="1" style="stop-color:#000000"/>
				</linearGradient>
				<path style="fill:url(#SVGID_00000110440213129385452370000001884001410372364685_);" d="M258.72,165.05h2.27v10.19h-2.27
					V165.05z"/>
				
					<linearGradient id="SVGID_00000145767492262854220030000018055902514186343606_" gradientUnits="userSpaceOnUse" x1="263.4997" y1="170.1406" x2="272.8987" y2="170.1406">
					<stop  offset="0" style="stop-color:#5A5A59"/>
					<stop  offset="1" style="stop-color:#000000"/>
				</linearGradient>
				<path style="fill:url(#SVGID_00000145767492262854220030000018055902514186343606_);" d="M270.63,165.05h2.27v10.19h-2.27
					l-4.85-6.38v6.38h-2.27v-10.19h2.13l5,6.56V165.05z"/>
				
					<linearGradient id="SVGID_00000087372539909310439530000012653889610524545215_" gradientUnits="userSpaceOnUse" x1="274.8219" y1="170.0823" x2="284.3084" y2="170.0823">
					<stop  offset="0" style="stop-color:#5A5A59"/>
					<stop  offset="1" style="stop-color:#000000"/>
				</linearGradient>
				<path style="fill:url(#SVGID_00000087372539909310439530000012653889610524545215_);" d="M282.02,170.05h2.29v3.61
					c-1.01,1.13-2.41,1.69-4.2,1.69c-1.5,0-2.75-0.5-3.77-1.49c-1.02-0.99-1.52-2.24-1.52-3.75c0-1.51,0.52-2.77,1.55-3.78
					c1.03-1.01,2.28-1.52,3.74-1.52c1.46,0,2.73,0.48,3.81,1.44l-1.18,1.7c-0.46-0.4-0.88-0.67-1.26-0.82
					c-0.38-0.15-0.8-0.23-1.25-0.23c-0.86,0-1.59,0.29-2.19,0.88c-0.59,0.59-0.89,1.36-0.89,2.32s0.28,1.73,0.85,2.31
					c0.57,0.58,1.25,0.87,2.03,0.87s1.44-0.15,1.97-0.45V170.05z"/>
			</g>
		</g>
	</g>
</g>
</svg>
