<?xml version="1.0" encoding="utf-8"?>
<!-- Generator: Adobe Illustrator 27.8.1, SVG Export Plug-In . SVG Version: 6.00 Build 0)  -->
<svg version="1.1" id="Layer_1" xmlns="http://www.w3.org/2000/svg" xmlns:xlink="http://www.w3.org/1999/xlink" x="0px" y="0px"
	 viewBox="0 0 348 228" style="enable-background:new 0 0 348 228;" xml:space="preserve">
<style type="text/css">
	.st0{fill:#D6EADE;}
	.st1{fill:#03487C;}
	.st2{fill:#1B1B4C;}
	.st3{fill-rule:evenodd;clip-rule:evenodd;fill:#204F7A;}
	.st4{fill-rule:evenodd;clip-rule:evenodd;fill:#50A4FF;}
	.st5{fill:#002649;}
	.st6{fill:#E6E7E8;stroke:#CFCFCF;stroke-width:0.1061;}
	.st7{fill:#333333;}
	.st8{fill:#0F5998;}
	.st9{fill:#277FC1;}
	.st10{fill-rule:evenodd;clip-rule:evenodd;fill:#277FC1;}
	.st11{fill-rule:evenodd;clip-rule:evenodd;fill:#083D6D;}
	.st12{fill:#DDB462;}
	
		.st13{clip-path:url(#SVGID_00000048498953580530732730000017007577911261668742_);fill:url(#SVGID_00000045578986688132040120000016019430758175639230_);}
	.st14{fill:#FFFFFF;}
	.st15{fill:url(#SVGID_00000057134594299472168190000000176664988514631325_);}
	.st16{fill:#224685;}
	.st17{fill:none;}
	.st18{fill:#FFC73B;}
	.st19{fill:#11233F;}
	.st20{fill:#5267FF;}
	.st21{fill-rule:evenodd;clip-rule:evenodd;fill:#72342E;}
	.st22{fill:#72342E;}
	.st23{fill:#FFF2E2;}
	.st24{fill:#FFF2E2;stroke:#72342E;stroke-width:0.75;stroke-miterlimit:10;}
	.st25{fill:#FFCC99;}
	.st26{fill:#469CB2;}
	.st27{fill:url(#XMLID_00000123403582852215429380000008092586406451088815_);}
	.st28{fill:url(#XMLID_00000164510918258352519210000007684030262892076706_);}
	.st29{fill:url(#XMLID_00000010990653673132068550000002578775400522677920_);}
	.st30{fill:url(#XMLID_00000083079107095725549870000005051195932481348775_);}
	.st31{fill:url(#XMLID_00000023980025977702468320000000289220286028495243_);}
	.st32{fill:url(#XMLID_00000129167310230587361420000005466478429142447272_);}
	.st33{fill:url(#XMLID_00000176034898384203039610000008450894386462203295_);}
	.st34{fill:url(#XMLID_00000152980518024152282110000007036321673244007093_);}
	.st35{fill:url(#XMLID_00000092430286948640408680000017772531602328425633_);}
	.st36{fill:url(#XMLID_00000106124821419123148120000000324925376206222754_);}
	.st37{fill:url(#XMLID_00000075871811725097142190000013916920640341110928_);}
	.st38{fill:url(#XMLID_00000179635142769023148970000008348827493223424173_);}
	.st39{fill:url(#XMLID_00000051376842603383721010000003134774148496353189_);}
	.st40{fill:url(#XMLID_00000083086787215771681440000017484713543791345321_);}
	.st41{fill:url(#XMLID_00000009581571934941564790000006603450403784927923_);}
	.st42{fill:url(#SVGID_00000070839461713609137340000006835901773191650747_);}
	.st43{fill:url(#SVGID_00000017495229727512215480000013950550595672660894_);}
	.st44{fill:url(#SVGID_00000093895886540327698490000004836683539692520878_);}
	.st45{fill:url(#SVGID_00000088126680055741668090000014301853500958516898_);}
	.st46{fill:url(#SVGID_00000166677377231328358800000018143852174346476456_);}
	.st47{fill:url(#SVGID_00000135660164195270729520000008298917848844499347_);}
	.st48{fill:url(#SVGID_00000085963090923869055890000007373185272048742052_);}
	.st49{fill:url(#SVGID_00000174584726642971372250000000892036001408940453_);}
	.st50{fill:url(#SVGID_00000008131543166109387370000005135004102655517596_);}
	.st51{fill:url(#SVGID_00000123412511941557961400000003382120931812978618_);}
	.st52{fill:url(#SVGID_00000003080117470544168100000010659983625910409645_);}
	.st53{fill:url(#SVGID_00000057121549165641500910000003934080830903975046_);}
	.st54{fill:url(#SVGID_00000100362899835777765090000006005279111157866890_);}
	.st55{fill:url(#SVGID_00000061472295427480325190000000013717939064570034_);}
	.st56{fill:#30325E;}
	.st57{fill:#FF7859;}
	.st58{fill:#FFD550;}
	.st59{fill:#00C3AD;}
	.st60{fill:#FF4653;}
	.st61{fill:#D8CE19;}
	.st62{fill:#FFE4D2;}
	.st63{fill:#DFF4F0;}
	.st64{fill:#A2E0EB;}
	.st65{fill:#1B3493;}
	.st66{fill:none;stroke:#FFFFFF;stroke-width:2;stroke-linecap:round;stroke-linejoin:round;stroke-miterlimit:10;}
	.st67{fill:#F15A24;}
	.st68{fill:#F7931E;}
	.st69{fill:#58595B;}
	.st70{fill:#114E15;}
	.st71{fill:#013D01;}
	.st72{fill:#E9C608;}
	.st73{fill:#043B00;}
	.st74{fill:#D8A43E;}
	.st75{clip-path:url(#SVGID_00000114051968450875713680000012212682306329161659_);}
	.st76{fill:#F49630;}
	.st77{clip-path:url(#SVGID_00000127032976827611141250000005839729003637514397_);}
	.st78{clip-path:url(#SVGID_00000139274882117893780150000017406616404942197681_);}
	.st79{clip-path:url(#SVGID_00000158000502581110045690000007504374360585257602_);}
	.st80{clip-path:url(#SVGID_00000099664370862032609540000007969628771438334135_);}
	.st81{fill-rule:evenodd;clip-rule:evenodd;fill:#FF6600;}
	.st82{fill-rule:evenodd;clip-rule:evenodd;fill:#05174F;}
	.st83{fill:#05174F;}
	.st84{opacity:0.42;fill:url(#SVGID_00000043443474676470822800000003563574759556791936_);enable-background:new    ;}
	.st85{opacity:0.42;fill:url(#SVGID_00000108305401274612678180000011601204070570598045_);enable-background:new    ;}
	.st86{fill:url(#SVGID_00000127728151541034356510000017652382369287935874_);}
	.st87{fill:url(#SVGID_00000049918874141988214620000015076409132557345413_);}
	.st88{opacity:0.64;fill:url(#SVGID_00000012460447791942619080000013791471199871067061_);enable-background:new    ;}
	.st89{opacity:0.75;fill:url(#SVGID_00000095309414429272531510000006328457294038519691_);enable-background:new    ;}
	.st90{fill:url(#SVGID_00000170984945742376121100000005220161473539934872_);}
	.st91{fill:url(#SVGID_00000032617340724710227460000004667566353843912836_);}
	.st92{opacity:0.76;fill:url(#SVGID_00000176737574223415628820000010303702371156528564_);enable-background:new    ;}
	.st93{opacity:0.75;fill:url(#SVGID_00000005960178322333725200000005399915887166893979_);enable-background:new    ;}
	.st94{fill:url(#SVGID_00000127015139136018025570000007120544117259131581_);}
	.st95{opacity:0.42;fill:url(#SVGID_00000180346320599508752280000015242840492460555149_);enable-background:new    ;}
	.st96{opacity:0.42;fill:url(#SVGID_00000182504220418018980440000001359918693960134574_);enable-background:new    ;}
	.st97{clip-path:url(#SVGID_00000113352827433522665750000012304768596114058895_);}
	.st98{fill:#1ED7FE;}
	.st99{clip-path:url(#SVGID_00000097469224156090443820000014018804549590966151_);}
	.st100{clip-path:url(#SVGID_00000093883624178614542850000016492580951856894886_);}
	.st101{fill:#000056;}
	.st102{clip-path:url(#SVGID_00000025435694868939329640000014379830832516082361_);}
	.st103{fill:#053272;}
	.st104{font-family:'Poppins-Black';}
	.st105{font-size:30.9198px;}
	.st106{font-family:'Poppins-Light';}
	.st107{font-size:16.2274px;}
	.st108{letter-spacing:3;}
	.st109{fill:none;stroke:#053272;stroke-width:4;stroke-miterlimit:10;}
	.st110{enable-background:new    ;}
	.st111{fill:url(#SVGID_00000098941577615500236280000015198084916408663729_);}
	.st112{fill:url(#SVGID_00000145022154220328756190000007720431906569024910_);}
	.st113{fill:url(#SVGID_00000000191139091132093150000007144967116639566743_);}
	.st114{fill:url(#SVGID_00000103257699748820428170000003987718940084174749_);}
	.st115{fill:url(#SVGID_00000130620709838880038320000011165324578485862286_);}
	.st116{fill:url(#SVGID_00000099634944490761831460000007276138106715415197_);}
	.st117{fill:url(#SVGID_00000145745813279341985280000014799900885236931245_);}
	.st118{fill:url(#SVGID_00000057113385662461648010000001659443364042123445_);}
	.st119{fill:url(#SVGID_00000096017200410224093650000011862340169482715572_);}
	.st120{fill:url(#SVGID_00000040573221444004005220000002557002887315414440_);}
	.st121{fill:url(#SVGID_00000067916350805738364710000000921370246993717143_);}
	.st122{fill:url(#SVGID_00000108286723814062009310000016163887239274235561_);}
	.st123{fill:url(#SVGID_00000041258412875542580000000015401228325872347819_);}
	.st124{fill:url(#SVGID_00000165913630094244950570000018081304310674680504_);}
	.st125{fill:url(#SVGID_00000070089539391897585870000005183400125728805528_);}
	.st126{fill:url(#SVGID_00000166636733203390410090000012873369997828404144_);}
	.st127{fill:url(#SVGID_00000008115761198329179870000010708952895042514109_);}
	.st128{fill:url(#SVGID_00000010270646862030987620000014382445946435647152_);}
	.st129{fill:url(#SVGID_00000122688907834209513850000007761615675965069198_);}
	.st130{fill:url(#SVGID_00000003812817337021555320000008637596810161281689_);}
	.st131{fill:url(#SVGID_00000076576669483841491590000010628456683663202708_);}
	.st132{fill:url(#SVGID_00000016762440707381370000000002749083216742567045_);}
	.st133{fill:url(#SVGID_00000177475418955886359070000017223798805252759484_);}
	.st134{fill:url(#SVGID_00000075134165664280575970000007512435369585655959_);}
	.st135{fill:url(#SVGID_00000038392861191092540690000013576199292471870894_);}
	.st136{fill:url(#SVGID_00000103223686705990132910000005815093300205467327_);}
	.st137{fill:url(#SVGID_00000086689068615492785830000016047115535560094861_);}
	.st138{fill:url(#SVGID_00000096774486185798237790000012845128236732484525_);}
	.st139{fill:url(#SVGID_00000096748472816352772440000003055683525398196398_);}
	.st140{fill:none;stroke:#FEF73D;stroke-linecap:round;stroke-miterlimit:10;}
	.st141{fill:none;stroke:#FF189C;stroke-miterlimit:10;}
	.st142{fill:none;stroke:#00EFF1;stroke-linecap:round;stroke-miterlimit:10;}
	.st143{fill:#00EFF1;}
	.st144{fill:#FFA022;}
	.st145{fill:#0C103A;}
	.st146{fill-rule:evenodd;clip-rule:evenodd;fill:#5D9541;}
	.st147{fill-rule:evenodd;clip-rule:evenodd;fill:#F06021;}
	.st148{fill-rule:evenodd;clip-rule:evenodd;fill:#69BC60;}
	.st149{fill-rule:evenodd;clip-rule:evenodd;fill:#F6951C;}
	.st150{fill:#F6951C;}
	.st151{fill:url(#SVGID_00000039830631449099900050000017234285733513372861_);}
	.st152{fill:url(#SVGID_00000021097897424916499090000013676305120204064686_);}
	.st153{fill:url(#SVGID_00000085223728693635759220000013175906927375515067_);}
	.st154{opacity:0.93;fill:url(#SVGID_00000054946859723041269730000007399802520021535406_);}
	.st155{opacity:0.93;fill:url(#SVGID_00000042706652245197387810000011007458642930866083_);}
	.st156{opacity:0.93;fill:url(#SVGID_00000096766473110707334000000001097305300079136922_);}
	.st157{opacity:0.93;fill:url(#SVGID_00000167378408890161753800000013945341597740519341_);}
	.st158{fill:url(#SVGID_00000119093907264475625010000011770732330382835887_);}
	.st159{fill:url(#SVGID_00000183218351691662393610000007047816742765457283_);}
	.st160{fill:url(#SVGID_00000053514174272719836020000004550526589828992142_);}
	.st161{fill:url(#SVGID_00000135657327695454936230000002040916251476309915_);}
	.st162{fill:url(#SVGID_00000105400597314115313350000005981085403234246062_);}
	.st163{fill:url(#SVGID_00000132063496902062830520000003209841962883832197_);}
	.st164{fill:url(#SVGID_00000151533188468899505120000014291104192914093733_);}
	.st165{fill:url(#SVGID_00000178183862095617100040000009890489949521651605_);}
	.st166{fill:url(#SVGID_00000108308595845131965540000014445593370916701841_);}
	.st167{fill:url(#SVGID_00000106845665152754537250000018073928783565286311_);}
	.st168{fill:url(#SVGID_00000176026424479011012800000011372533454459335064_);}
	.st169{fill:url(#SVGID_00000068678243946648877840000011257416170697034941_);}
	.st170{fill:url(#SVGID_00000116197029096293519300000008947883961366197935_);}
	.st171{fill:url(#SVGID_00000058551525918299429960000005300433898624496291_);}
	.st172{fill:url(#SVGID_00000118371760304316392590000000946474642880599695_);}
	.st173{fill:url(#SVGID_00000013191665426659311610000018261957343727179653_);}
	.st174{fill:url(#SVGID_00000073688820838603611570000017386388355259898773_);}
	.st175{fill:url(#SVGID_00000070103522454576891390000002885559662717876402_);}
	.st176{fill:url(#SVGID_00000054256242310387949570000015930852394595003804_);}
	.st177{fill:url(#SVGID_00000024718837689477110960000007417425643456446649_);}
	.st178{fill:url(#SVGID_00000104679250312822825330000017534518593797287040_);}
	.st179{fill:url(#SVGID_00000112612692455212648330000009864914510478896005_);}
	.st180{fill:url(#SVGID_00000122687136041922968830000003496045751520196996_);}
	.st181{fill:url(#SVGID_00000120553822199187373280000012438288718591175086_);}
	.st182{fill:url(#SVGID_00000141433933871309780850000008561777524592571047_);}
	.st183{fill:url(#SVGID_00000134941504033753473760000004372503621233809839_);}
	.st184{fill:url(#SVGID_00000152960360825565118350000013825479349974923156_);}
	.st185{fill:url(#SVGID_00000134953748717464657350000001616572872374170299_);}
	.st186{fill:url(#SVGID_00000000213202484565456830000012577618242973230474_);}
	.st187{fill:url(#SVGID_00000069384042872364976640000000648725192795076517_);}
	.st188{fill:url(#SVGID_00000096753277596901895090000014955494528688412578_);}
	.st189{fill:url(#SVGID_00000174601266474060749400000011858727282384256924_);}
	.st190{fill:url(#SVGID_00000030484264608352807190000016807944922466864034_);}
	.st191{fill:url(#SVGID_00000031196886062720369110000009009096782220501638_);}
	.st192{fill:url(#SVGID_00000078758670301982294450000014765483721205180083_);}
	.st193{fill:url(#SVGID_00000115493617840918411410000009791500255596592289_);}
	.st194{fill:url(#SVGID_00000108275329349070618190000011420400324111819916_);}
	.st195{fill:url(#SVGID_00000025435363087436315660000013529873445405733762_);}
	.st196{fill:url(#SVGID_00000055687257127287115660000011535233107133882005_);}
	.st197{fill:url(#SVGID_00000181073637603239933080000005342045576585349519_);}
	.st198{fill:url(#SVGID_00000036239607634984237360000008799304738904248766_);}
	.st199{fill:url(#SVGID_00000067920504330303187960000001760680652677341104_);}
	.st200{fill:url(#SVGID_00000011741973694639458730000012606701537078751628_);}
	.st201{fill:url(#SVGID_00000026843564266262993490000015661211981389009050_);}
	.st202{fill:url(#SVGID_00000037673501591314791650000007196415701674237845_);}
	.st203{fill-rule:evenodd;clip-rule:evenodd;fill:#512100;}
	.st204{fill-rule:evenodd;clip-rule:evenodd;fill:#006D62;}
	.st205{fill-rule:evenodd;clip-rule:evenodd;}
	.st206{fill-rule:evenodd;clip-rule:evenodd;fill:#00A1F5;}
	.st207{fill-rule:evenodd;clip-rule:evenodd;fill:#FACFAB;}
	.st208{fill-rule:evenodd;clip-rule:evenodd;fill:#F29673;}
	.st209{fill-rule:evenodd;clip-rule:evenodd;fill:#FFFFFF;}
	.st210{fill-rule:evenodd;clip-rule:evenodd;fill:#333333;}
	.st211{fill-rule:evenodd;clip-rule:evenodd;fill:#BD4D00;}
	.st212{fill-rule:evenodd;clip-rule:evenodd;fill:#B2B2B2;}
	.st213{fill-rule:evenodd;clip-rule:evenodd;fill:#F2CC29;}
	.st214{fill-rule:evenodd;clip-rule:evenodd;fill:#005C9C;}
	.st215{fill-rule:evenodd;clip-rule:evenodd;fill:#8AC900;}
	.st216{fill-rule:evenodd;clip-rule:evenodd;fill:#808080;}
	.st217{fill-rule:evenodd;clip-rule:evenodd;fill:#CFA605;}
	.st218{fill-rule:evenodd;clip-rule:evenodd;fill:#666666;}
	.st219{fill-rule:evenodd;clip-rule:evenodd;fill:#CCCCCC;}
	.st220{fill:#960000;}
	.st221{fill:url(#SVGID_00000112618208188476083130000000642985378673558670_);}
	.st222{fill:url(#SVGID_00000121978067425446470080000008214577961769073343_);}
	.st223{opacity:0.51;fill:url(#SVGID_00000077310049196608742750000003725094351976434359_);}
	.st224{fill:url(#SVGID_00000029727353371735829320000018088500495590846859_);}
	.st225{fill:url(#SVGID_00000044144298868319498440000012704484995956620970_);}
	.st226{fill:url(#SVGID_00000180340902243739061520000010462495743171361972_);}
	.st227{opacity:0.35;fill:url(#SVGID_00000083080022343478044630000010540444835683979137_);}
	.st228{opacity:0.35;fill:url(#SVGID_00000037679550533613179980000015352014381757796264_);}
	.st229{fill:#F06021;}
	.st230{fill-rule:evenodd;clip-rule:evenodd;fill:url(#SVGID_00000116915081471514764660000010565461810681156791_);}
	.st231{fill-rule:evenodd;clip-rule:evenodd;fill:url(#SVGID_00000127014749747666512950000013784705314851568545_);}
	.st232{fill-rule:evenodd;clip-rule:evenodd;fill:url(#SVGID_00000078016178112441241060000013939418447185199510_);}
	.st233{fill-rule:evenodd;clip-rule:evenodd;fill:url(#SVGID_00000049205569163878308890000012466234370558161286_);}
	.st234{fill-rule:evenodd;clip-rule:evenodd;fill:url(#SVGID_00000016053124018833806490000013794273331583163283_);}
	.st235{fill-rule:evenodd;clip-rule:evenodd;fill:url(#SVGID_00000040550278285732890890000009307700741215407780_);}
	.st236{fill-rule:evenodd;clip-rule:evenodd;fill:url(#SVGID_00000140013184523176126480000004672846810331169431_);}
	.st237{fill-rule:evenodd;clip-rule:evenodd;fill:url(#SVGID_00000029033118214900547980000005346388171422350731_);}
	.st238{fill-rule:evenodd;clip-rule:evenodd;fill:url(#SVGID_00000183930223419872050500000001831618048464173444_);}
	.st239{fill-rule:evenodd;clip-rule:evenodd;fill:url(#SVGID_00000147187461247178117330000011257389366855644076_);}
	.st240{fill-rule:evenodd;clip-rule:evenodd;fill:url(#SVGID_00000079457493804982071430000013579656076669775013_);}
	.st241{fill-rule:evenodd;clip-rule:evenodd;fill:url(#SVGID_00000160190130033451618670000015942853542320441257_);}
	.st242{fill-rule:evenodd;clip-rule:evenodd;fill:url(#SVGID_00000099662141273295380450000004532239743911932842_);}
	.st243{opacity:0.5;fill-rule:evenodd;clip-rule:evenodd;fill:#5D0101;enable-background:new    ;}
	.st244{fill:#E11B22;}
	.st245{fill:#959595;}
	.st246{fill:#003359;}
	.st247{fill:#1779C1;}
	.st248{fill:#0EB17C;}
	.st249{fill:#2B2353;}
	.st250{fill:#BE264E;}
	.st251{fill:#EAA41C;}
	.st252{fill:#1F9EF3;}
	.st253{fill:#0267A3;}
	.st254{fill:#FFEC00;}
	.st255{fill:#00A0E0;}
	.st256{fill:#E3007E;}
	.st257{fill:none;stroke:#000000;stroke-width:2;stroke-miterlimit:10;}
	.st258{fill:#FF9E80;}
	.st259{fill:#414151;}
	.st260{fill:#2B295E;}
	.st261{fill:#CCCCCC;}
	.st262{fill:#FF8C5C;}
	.st263{fill:#DBA21C;}
	.st264{fill:#EDDBB2;}
	.st265{fill:#DEC58B;}
	.st266{fill:#997113;}
	.st267{fill:#B88817;}
	.st268{fill:#003400;stroke:#8EC13D;stroke-width:4;stroke-miterlimit:10;}
	.st269{fill:#8EC13D;}
	.st270{fill:url(#XMLID_00000124867194489450833480000005078141144008783267_);}
	.st271{fill:url(#SVGID_00000043438538090696312560000004404203645730262444_);}
	.st272{fill:url(#SVGID_00000031923801928498756330000002040728673458014338_);}
	.st273{fill:url(#SVGID_00000013184412888619365820000015096949313150851217_);}
	.st274{fill:url(#SVGID_00000098219568425424797600000013305510055333558943_);}
	.st275{fill:url(#SVGID_00000035518696172464032190000015425452744682729646_);}
	.st276{fill:url(#SVGID_00000072253054446261435300000009956859126139809969_);}
	.st277{fill:url(#SVGID_00000034782370988170147470000008346657124676518068_);}
	.st278{fill:url(#SVGID_00000137840158085357440720000007948024442647430807_);}
	.st279{fill:url(#SVGID_00000073716128371130377820000002443357806150617997_);}
	.st280{fill:url(#SVGID_00000058559773437541821890000008298675452854950310_);}
	.st281{fill:url(#SVGID_00000145055502772621767680000011256824741028670141_);}
	.st282{fill:#1C75BC;}
	.st283{fill:#FF9400;}
	.st284{fill:#46920C;}
	.st285{fill:url(#SVGID_00000112592256512494866600000017852977871954070423_);}
	.st286{fill:url(#SVGID_00000075161798203022385120000012980946631457334715_);}
	.st287{fill:url(#SVGID_00000017500602146082699720000005102688067181113994_);}
	.st288{fill:url(#SVGID_00000054962713609472193160000007589618640940529826_);}
	.st289{fill:url(#SVGID_00000079450396428424027850000000934116791585170326_);}
	.st290{fill:url(#SVGID_00000143603115322750982230000009197965858107082668_);}
	.st291{fill:url(#SVGID_00000181801016682476836550000001039013257259450291_);}
	.st292{fill:url(#SVGID_00000041984760374815385070000012346811121529906107_);}
	.st293{fill:url(#SVGID_00000040568968640223754160000004974238132892724140_);}
	.st294{fill:url(#SVGID_00000106122297848787684980000009030795730895802815_);}
	.st295{fill:url(#SVGID_00000094618684028311905940000006577314065967598514_);}
	.st296{fill:url(#SVGID_00000181765345929247674140000011704810669497173161_);}
	.st297{fill:url(#SVGID_00000097469935526943325470000003835124301080267413_);}
	.st298{fill:url(#SVGID_00000038395379331467100280000010964979280662230705_);}
	.st299{fill:url(#SVGID_00000119101095861757525630000011180455747526788771_);}
	.st300{fill:url(#SVGID_00000069385887051721195130000008598648411181972889_);}
	.st301{fill:url(#SVGID_00000020395959270760017450000012155072072740936626_);}
	.st302{fill:url(#SVGID_00000155838272116923398430000015704383678806878350_);}
	.st303{fill:url(#SVGID_00000012466547408808361950000015932932408722216860_);}
	.st304{fill:#2F3F67;}
	.st305{fill:#C97F32;}
	.st306{fill:none;stroke:#C97F32;stroke-width:1.2891;stroke-miterlimit:10;}
	.st307{fill:url(#XMLID_00000074408902791115230870000007506044213267216777_);}
	.st308{fill:#00548B;}
	.st309{fill:#004368;}
	.st310{fill:#94070A;}
	.st311{fill:url(#XMLID_00000039811821763953139390000004642236312127046306_);}
	.st312{fill:url(#XMLID_00000092448511098754114220000000700820396176290176_);}
	.st313{fill:url(#SVGID_00000139994165257804088890000008869986964306139788_);}
</style>
<g id="OBJECTS_00000095297069681047933190000010277085020326899636_">
	<g>
		<g>
			<text transform="matrix(1 -3.300000e-03 3.300000e-03 1 128.0584 160.6046)" class="st103 st104 st105">HOME</text>
		</g>
		<g>
			<text transform="matrix(1 -3.300000e-03 3.300000e-03 1 108.4198 180.4264)" class="st103 st106 st107 st108">IMPROVEMENT</text>
		</g>
		<g>
			<polygon class="st103" points="229.6,60.98 229.6,40.11 200.89,40.11 200.89,48.84 174.06,37.5 104.18,67.04 104.18,125.53 
				113.64,125.53 113.64,73.31 174.06,47.77 210.35,63.11 210.35,49.57 220.14,49.57 220.14,67.25 234.48,73.31 234.48,125.53 
				243.94,125.53 243.94,67.04 			"/>
			<path class="st103" d="M222.16,82.9l-7.55,6.09c-1.03-0.08-1.64-0.13-2.67-0.21l-2.32-2.58c0.06-1.08,0.09-1.68,0.15-2.76
				l8.45-7.55c0,0-16.08-7.11-19.3,9.83l-1.67,8.77l-19.16,28.1V85.75h0.02l-0.02-3.24v0l0-0.75c0.06-1.23,2.1-2.22,4.58-2.22
				c1.19,0,4.27,0.88,4.43,2.03l0.02,4.16l9.37-0.04l-0.1-20.67l0,0v-0.01l-4.16,0.02v0.01L187,65.06l0.02,4.16
				c-0.14,1.15-3.22,2.05-4.41,2.05c-2.36,0-4.53-0.97-4.6-2.2L178,65.08l-9.14,0.12c-10.74,0.05-19.41,8.8-19.36,19.54l4.06-0.02
				c0-12.18,13.56-10.94,13.56-6.37v4.15v3.38v34.4l-5.88-9.71l1.2-0.72l-2.8-4.72l-6.67,4.02l-16.3-27.05l-0.35-6.01l-7.44-2.88
				l-2.87,1.73L125.32,83l5,2.91l16.3,27.06l-6.66,4.01l2.8,4.72l1.19-0.72l2.75,4.54h23.59l0,0h5.78l0,0h14.2h0l15.31-25.07
				l14.54-2.36l-2.47-3.17C217.66,94.93,224.95,88.22,222.16,82.9z"/>
		</g>
		<line class="st109" x1="88.82" y1="125.53" x2="259.3" y2="125.53"/>
		<line class="st109" x1="88.82" y1="190.5" x2="259.3" y2="190.5"/>
		<g>
			<g>
				<g class="st110">
					<path class="st103" d="M67.33,95.8v2.33h2.84v0.96h-2.84v2.39h3.16v1.01h-4.41v-7.7h4.41v1H67.33z"/>
					<path class="st103" d="M78.39,101.5c-0.18,0.32-0.46,0.58-0.83,0.78c-0.37,0.2-0.83,0.29-1.36,0.29
						c-0.52,0-0.99-0.09-1.41-0.28s-0.75-0.45-0.99-0.78c-0.25-0.33-0.39-0.72-0.43-1.16h1.33c0.04,0.33,0.18,0.62,0.43,0.86
						c0.25,0.24,0.59,0.36,1.01,0.36c0.38,0,0.67-0.1,0.88-0.31c0.21-0.2,0.31-0.46,0.31-0.79c0-0.28-0.08-0.5-0.23-0.68
						c-0.15-0.18-0.34-0.32-0.57-0.42c-0.23-0.1-0.54-0.22-0.93-0.35c-0.48-0.15-0.87-0.31-1.17-0.46c-0.3-0.15-0.56-0.37-0.77-0.67
						s-0.32-0.67-0.32-1.15c0-0.41,0.1-0.78,0.31-1.09c0.2-0.31,0.49-0.55,0.87-0.73c0.38-0.17,0.81-0.26,1.31-0.26
						c0.79,0,1.41,0.19,1.87,0.57c0.46,0.38,0.73,0.87,0.79,1.48h-1.34c-0.05-0.29-0.19-0.54-0.41-0.75
						c-0.22-0.21-0.53-0.31-0.91-0.31c-0.35,0-0.63,0.09-0.84,0.27c-0.21,0.18-0.32,0.43-0.32,0.77c0,0.26,0.07,0.48,0.22,0.65
						s0.33,0.31,0.55,0.4c0.22,0.1,0.53,0.21,0.91,0.34c0.49,0.15,0.89,0.31,1.2,0.46c0.31,0.16,0.57,0.38,0.79,0.68
						c0.21,0.3,0.32,0.69,0.32,1.18C78.66,100.82,78.57,101.17,78.39,101.5z"/>
					<path class="st103" d="M86.76,94.79v1h-2.15v6.7h-1.25v-6.7h-2.14v-1H86.76z"/>
					<path class="st103" d="M90.57,101.12v1.38h-1.41v-1.38H90.57z"/>
				</g>
			</g>
			<g class="st110">
				<path class="st103" d="M252.4,95.96v-1.17h2.47v7.7h-1.31v-6.54H252.4z"/>
				<path class="st103" d="M259.87,101.23c0.23,0.23,0.54,0.34,0.93,0.34c0.55,0,0.97-0.22,1.24-0.66c0.27-0.44,0.41-1.13,0.41-2.08
					l-0.01-0.37c-0.12,0.39-0.36,0.71-0.73,0.94c-0.37,0.24-0.79,0.35-1.28,0.35c-0.76,0-1.35-0.23-1.78-0.68
					c-0.43-0.46-0.64-1.09-0.64-1.9c0-0.5,0.1-0.94,0.29-1.33c0.2-0.39,0.49-0.7,0.88-0.93c0.39-0.23,0.88-0.34,1.45-0.34
					c1.11,0,1.88,0.34,2.3,1.02c0.42,0.68,0.63,1.62,0.63,2.82c0,1.36-0.21,2.4-0.64,3.11s-1.13,1.07-2.12,1.07
					c-0.76,0-1.36-0.22-1.8-0.65c-0.43-0.43-0.68-0.99-0.75-1.67h1.18C259.5,100.68,259.64,101,259.87,101.23z M261.91,96.12
					c-0.27-0.32-0.68-0.47-1.23-0.47c-0.45,0-0.81,0.13-1.09,0.4s-0.41,0.65-0.41,1.13c0,0.52,0.14,0.91,0.41,1.19
					s0.65,0.42,1.12,0.42c0.28,0,0.54-0.06,0.78-0.17c0.24-0.11,0.44-0.28,0.59-0.5c0.15-0.22,0.23-0.49,0.23-0.81
					C262.32,96.83,262.18,96.43,261.91,96.12z"/>
				<path class="st103" d="M268.38,101.23c0.23,0.23,0.54,0.34,0.93,0.34c0.55,0,0.97-0.22,1.24-0.66c0.27-0.44,0.41-1.13,0.41-2.08
					l-0.01-0.37c-0.12,0.39-0.36,0.71-0.73,0.94c-0.37,0.24-0.79,0.35-1.28,0.35c-0.76,0-1.35-0.23-1.78-0.68
					c-0.43-0.46-0.64-1.09-0.64-1.9c0-0.5,0.1-0.94,0.29-1.33c0.2-0.39,0.49-0.7,0.88-0.93c0.39-0.23,0.88-0.34,1.45-0.34
					c1.11,0,1.88,0.34,2.3,1.02c0.42,0.68,0.63,1.62,0.63,2.82c0,1.36-0.21,2.4-0.64,3.11s-1.13,1.07-2.12,1.07
					c-0.76,0-1.36-0.22-1.8-0.65c-0.43-0.43-0.68-0.99-0.75-1.67h1.18C268.01,100.68,268.15,101,268.38,101.23z M270.42,96.12
					c-0.27-0.32-0.68-0.47-1.23-0.47c-0.45,0-0.81,0.13-1.09,0.4s-0.41,0.65-0.41,1.13c0,0.52,0.14,0.91,0.41,1.19
					s0.65,0.42,1.12,0.42c0.28,0,0.54-0.06,0.78-0.17c0.24-0.11,0.44-0.28,0.59-0.5c0.15-0.22,0.23-0.49,0.23-0.81
					C270.83,96.83,270.69,96.43,270.42,96.12z"/>
			</g>
			<g class="st110">
				<path class="st103" d="M277.75,99.15c0.71-0.77,1.06-1.49,1.06-2.16c0-0.39-0.1-0.71-0.29-0.94c-0.19-0.23-0.5-0.35-0.93-0.35
					c-0.44,0-0.78,0.14-1,0.43c-0.23,0.29-0.35,0.7-0.38,1.23H275c0.05-0.88,0.32-1.55,0.81-2.02s1.12-0.7,1.88-0.7
					c0.75,0,1.34,0.2,1.76,0.59s0.64,0.94,0.64,1.64c0,0.56-0.17,1.13-0.52,1.7c-0.35,0.57-0.78,1.1-1.32,1.59
					c-0.53,0.48-1.08,0.9-1.65,1.25h3.66v1.01h-5.35v-0.92C276.1,100.72,277.04,99.93,277.75,99.15z"/>
			</g>
		</g>
	</g>
</g>
</svg>
