<?xml version="1.0" encoding="utf-8"?>
<!-- Generator: Adobe Illustrator 27.8.1, SVG Export Plug-In . SVG Version: 6.00 Build 0)  -->
<svg version="1.1" id="Layer_1" xmlns="http://www.w3.org/2000/svg" xmlns:xlink="http://www.w3.org/1999/xlink" x="0px" y="0px"
	 viewBox="0 0 348 228" style="enable-background:new 0 0 348 228;" xml:space="preserve">
<style type="text/css">
	.st0{fill:#D6EADE;}
	.st1{fill:#03487C;}
	.st2{fill:#1B1B4C;}
	.st3{fill:none;}
	.st4{fill-rule:evenodd;clip-rule:evenodd;fill:#204F7A;}
	.st5{fill-rule:evenodd;clip-rule:evenodd;fill:#50A4FF;}
	.st6{fill:#002649;}
	.st7{fill:#E6E7E8;stroke:#CFCFCF;stroke-width:0.1061;}
	.st8{fill:#333333;}
	.st9{fill-rule:evenodd;clip-rule:evenodd;fill:#277FC1;}
	.st10{fill-rule:evenodd;clip-rule:evenodd;fill:#083D6D;}
	.st11{fill:#DDB462;}
	
		.st12{clip-path:url(#SVGID_00000175310454848991248620000002176172735022799525_);fill:url(#SVGID_00000112612942664325983610000012620076331400119463_);}
	.st13{fill:#FFFFFF;}
	.st14{fill:url(#SVGID_00000100349876592996802270000014083613093921958016_);}
	.st15{fill:#224685;}
	.st16{fill:#FFC73B;}
	.st17{fill:#11233F;}
	.st18{fill:#5267FF;}
	.st19{fill-rule:evenodd;clip-rule:evenodd;fill:#72342E;}
	.st20{fill:#72342E;}
	.st21{fill:#FFF2E2;}
	.st22{fill:#FFF2E2;stroke:#72342E;stroke-width:0.75;stroke-miterlimit:10;}
	.st23{fill:#FFCC99;}
	.st24{fill:#469CB2;}
	.st25{fill:url(#XMLID_00000176026089709886312500000004247240805940063892_);}
	.st26{fill:url(#XMLID_00000147191684851943827190000001316534922618341539_);}
	.st27{fill:url(#XMLID_00000078730938101335019230000000987408903420757930_);}
	.st28{fill:url(#XMLID_00000010303690489802024770000011173660229491809444_);}
	.st29{fill:url(#XMLID_00000089552761441610344790000005444893637902937278_);}
	.st30{fill:url(#XMLID_00000110471981726444126530000008445307148171681710_);}
	.st31{fill:url(#XMLID_00000008840456667979405300000015661953756754765477_);}
	.st32{fill:url(#XMLID_00000015346076563296104750000009475150714355745933_);}
	.st33{fill:url(#XMLID_00000058579627720353423660000016401936082710306744_);}
	.st34{fill:url(#XMLID_00000117652473646787655700000008082375482324645264_);}
	.st35{fill:url(#XMLID_00000030481016348427259920000005612515342271120793_);}
	.st36{fill:url(#XMLID_00000027567009366671446290000013682078940908441010_);}
	.st37{fill:url(#XMLID_00000176014337212715044760000002389263349386641335_);}
	.st38{fill:url(#XMLID_00000142143653138386516800000005065206404501631883_);}
	.st39{fill:url(#XMLID_00000170961838730778392980000004139860357991937727_);}
	.st40{fill:url(#SVGID_00000163777781237446184840000011684762538256461234_);}
	.st41{fill:url(#SVGID_00000181804194100204242910000006652631892445710245_);}
	.st42{fill:url(#SVGID_00000124156584149157577650000015583158183688526770_);}
	.st43{fill:url(#SVGID_00000000200883328103755990000000071639247032769465_);}
	.st44{fill:url(#SVGID_00000178895386202194240680000009521124787076156070_);}
	.st45{fill:url(#SVGID_00000061436981258120704650000013412383553637878428_);}
	.st46{fill:url(#SVGID_00000004529389894873058550000009176935907960784057_);}
	.st47{fill:url(#SVGID_00000142893562233012004880000011164741690185737624_);}
	.st48{fill:url(#SVGID_00000016073895852719682700000013048383080828645306_);}
	.st49{fill:url(#SVGID_00000042723315294642873100000016564157280907747978_);}
	.st50{fill:url(#SVGID_00000078002449391546259060000009363567404148184742_);}
	.st51{fill:url(#SVGID_00000015320426533683417410000004659052724319381933_);}
	.st52{fill:url(#SVGID_00000059270016821456256750000015210145795184449181_);}
	.st53{fill:url(#SVGID_00000083781229085005531470000016603363168511811741_);}
	.st54{fill:#30325E;}
	.st55{fill:#FF7859;}
	.st56{fill:#FFD550;}
	.st57{fill:#00C3AD;}
	.st58{fill:#FF4653;}
	.st59{fill:#D8CE19;}
	.st60{fill:#FFE4D2;}
	.st61{fill:#A2E0EB;}
	.st62{fill:#1B3493;}
	.st63{fill:none;stroke:#FFFFFF;stroke-width:2;stroke-linecap:round;stroke-linejoin:round;stroke-miterlimit:10;}
	.st64{fill:#F15A24;}
	.st65{fill:#F7931E;}
	.st66{fill:#58595B;}
	.st67{fill:#114E15;}
	.st68{fill:#013D01;}
	.st69{fill:#E9C608;}
	.st70{fill:#043B00;}
	.st71{fill:#D8A43E;}
	.st72{clip-path:url(#SVGID_00000159452981336023661560000005680338970106615451_);}
	.st73{fill:#F49630;}
	.st74{clip-path:url(#SVGID_00000183941754408340545600000002790085263046719901_);}
	.st75{clip-path:url(#SVGID_00000117655787112113484570000009379100305074839221_);}
	.st76{clip-path:url(#SVGID_00000048465368705248907130000014949744746345729421_);}
	.st77{clip-path:url(#SVGID_00000037671024154625476030000004603560475258607268_);}
	.st78{fill-rule:evenodd;clip-rule:evenodd;fill:#FF6600;}
	.st79{fill-rule:evenodd;clip-rule:evenodd;fill:#05174F;}
	.st80{fill:#05174F;}
	.st81{opacity:0.42;fill:url(#SVGID_00000003822654446715840090000002557143798536036776_);enable-background:new    ;}
	.st82{opacity:0.42;fill:url(#SVGID_00000100354794129180364630000000408943369886943637_);enable-background:new    ;}
	.st83{fill:url(#SVGID_00000176749666524391885470000016670910434938377368_);}
	.st84{fill:url(#SVGID_00000183954805715108324240000010160608785582690189_);}
	.st85{opacity:0.64;fill:url(#SVGID_00000088851902106525482950000010052217379502516666_);enable-background:new    ;}
	.st86{opacity:0.75;fill:url(#SVGID_00000015324793374895132430000003670744988453423806_);enable-background:new    ;}
	.st87{fill:url(#SVGID_00000030475028148667198710000009855205728976233656_);}
	.st88{fill:url(#SVGID_00000015317341885185169680000007303311344308162223_);}
	.st89{opacity:0.76;fill:url(#SVGID_00000061434516104776478120000006835152376299540111_);enable-background:new    ;}
	.st90{opacity:0.75;fill:url(#SVGID_00000102505366538524669550000006740158052778059965_);enable-background:new    ;}
	.st91{fill:url(#SVGID_00000085242827304092864500000016156558900923911327_);}
	.st92{opacity:0.42;fill:url(#SVGID_00000127729638578995392650000006094935697444677263_);enable-background:new    ;}
	.st93{opacity:0.42;fill:url(#SVGID_00000052810097113897572680000018020136349187903166_);enable-background:new    ;}
	.st94{font-family:'REVERIE-Regular';}
	.st95{font-size:41.2101px;}
	.st96{clip-path:url(#SVGID_00000069388182605581245420000016663656825619295163_);}
	.st97{fill:#1ED7FE;}
	.st98{clip-path:url(#SVGID_00000005948793011830560560000009879515652447270579_);}
	.st99{clip-path:url(#SVGID_00000124853967564274499970000016387656282714839229_);}
	.st100{fill:#000056;}
	.st101{clip-path:url(#SVGID_00000178176809703548162270000015673166172408776109_);}
	.st102{fill:#053272;}
	.st103{fill:none;stroke:#053272;stroke-width:4;stroke-miterlimit:10;}
	.st104{fill:url(#SVGID_00000122690272409520592830000000907262040743015059_);}
	.st105{fill:url(#SVGID_00000149366702584881180480000015193586704087295883_);}
	.st106{fill:url(#SVGID_00000002348297551650019130000002394801525097361832_);}
	.st107{fill:url(#SVGID_00000012448274674004028740000001895956098566414723_);}
	.st108{fill:url(#SVGID_00000178885809570066208350000005611659474875353006_);}
	.st109{fill:url(#SVGID_00000129906295556601193880000008889415944505790634_);}
	.st110{fill:url(#SVGID_00000105400633514029362730000010127606478697621383_);}
	.st111{fill:url(#SVGID_00000166656194611717074640000016183742842643084418_);}
	.st112{fill:url(#SVGID_00000014611251414497909580000006655959393974278333_);}
	.st113{fill:url(#SVGID_00000018951699079286954230000010286742319463424144_);}
	.st114{fill:url(#SVGID_00000069392065961779014970000015249326058640349060_);}
	.st115{fill:url(#SVGID_00000162327398628506190030000015173162104582636685_);}
	.st116{fill:url(#SVGID_00000016794200907717570710000004187146684576872626_);}
	.st117{fill:url(#SVGID_00000036209046317213480030000009414589571374087085_);}
	.st118{fill:url(#SVGID_00000144339333726324385470000004454252725593371308_);}
	.st119{fill:url(#SVGID_00000116951301015795106140000018112823571159070911_);}
	.st120{fill:url(#SVGID_00000080184060143207870450000011238727678236612750_);}
	.st121{fill:url(#SVGID_00000087408639233955191380000005396564992267660457_);}
	.st122{fill:url(#SVGID_00000069360055277723278740000007226244464046307250_);}
	.st123{fill:url(#SVGID_00000101812422751254013420000013600858736072519594_);}
	.st124{fill:url(#SVGID_00000094580020114907582500000001742322631005349004_);}
	.st125{fill:url(#SVGID_00000054948456846294643570000005421571959093052851_);}
	.st126{fill:url(#SVGID_00000106132221344425164500000007984484989142531259_);}
	.st127{fill:url(#SVGID_00000104686748639545582710000000021015573897298318_);}
	.st128{fill:url(#SVGID_00000163755190084619447010000008243383694260172700_);}
	.st129{fill:url(#SVGID_00000112604408993471356630000005939466726625714604_);}
	.st130{fill:url(#SVGID_00000048493898955455110140000015865117640494194080_);}
	.st131{fill:url(#SVGID_00000009569066299797721310000001397980102859257989_);}
	.st132{fill:url(#SVGID_00000132081831815652468730000013338097082613912244_);}
	.st133{fill:none;stroke:#FEF73D;stroke-linecap:round;stroke-miterlimit:10;}
	.st134{fill:none;stroke:#FF189C;stroke-miterlimit:10;}
	.st135{fill:none;stroke:#00EFF1;stroke-linecap:round;stroke-miterlimit:10;}
	.st136{fill:#00EFF1;}
	.st137{fill:#FFA022;}
	.st138{fill:#0C103A;}
	.st139{fill-rule:evenodd;clip-rule:evenodd;fill:#5D9541;}
	.st140{fill-rule:evenodd;clip-rule:evenodd;fill:#F06021;}
	.st141{fill-rule:evenodd;clip-rule:evenodd;fill:#69BC60;}
	.st142{fill-rule:evenodd;clip-rule:evenodd;fill:#F6951C;}
	.st143{fill:#F6951C;}
	.st144{fill:url(#SVGID_00000125603406993837315020000011848706259899087540_);}
	.st145{fill:url(#SVGID_00000013166602912102006550000001794314994714484890_);}
	.st146{fill:url(#SVGID_00000082345772107923029190000009497093076240196022_);}
	.st147{opacity:0.93;fill:url(#SVGID_00000065049076978421025140000009567869447004968615_);}
	.st148{opacity:0.93;fill:url(#SVGID_00000023266872570242551690000005160271394492318394_);}
	.st149{opacity:0.93;fill:url(#SVGID_00000183948673868097926570000010940144226012037036_);}
	.st150{opacity:0.93;fill:url(#SVGID_00000146462696632989330450000016483360160443740053_);}
	.st151{fill:url(#SVGID_00000097500458012807126800000002169833053809530258_);}
	.st152{fill:url(#SVGID_00000158009274291785035160000003813289623041846432_);}
	.st153{fill:url(#SVGID_00000093868855302573764360000010168863659039494034_);}
	.st154{fill:url(#SVGID_00000176746299702083889580000006494141147387041178_);}
	.st155{fill:url(#SVGID_00000131369875765950820380000001256810711744853939_);}
	.st156{fill:url(#SVGID_00000107563168508220507270000006505503454830983845_);}
	.st157{fill:url(#SVGID_00000179633606677636158430000007432265555860826029_);}
	.st158{fill:url(#SVGID_00000160187947740598976000000009148281498697268873_);}
	.st159{fill:url(#SVGID_00000150082698817449246450000008030831343728596609_);}
	.st160{fill:url(#SVGID_00000178901303862827189900000002461060124110362543_);}
	.st161{fill:url(#SVGID_00000104693234359996158070000006353562362771583886_);}
	.st162{fill:url(#SVGID_00000113322907956665598350000015340516696379924882_);}
	.st163{fill:url(#SVGID_00000111882826106499601190000001973770130825739957_);}
	.st164{fill:url(#SVGID_00000139984791663673873390000009927340815184842162_);}
	.st165{fill:url(#SVGID_00000097475299476584555000000011481946430878579122_);}
	.st166{fill:url(#SVGID_00000118375869924026400600000005406640046886551685_);}
	.st167{fill:url(#SVGID_00000146485341490590286890000010675662330746216600_);}
	.st168{fill:url(#SVGID_00000160870658442709477100000015386819632810769062_);}
	.st169{fill:url(#SVGID_00000043423987599318769220000011516882480735030167_);}
	.st170{fill:url(#SVGID_00000132768461587572451550000001269845654553194624_);}
	.st171{fill:url(#SVGID_00000096771216903289622830000006982995556440348595_);}
	.st172{fill:url(#SVGID_00000054970982561011330910000004591201732253922179_);}
	.st173{fill:url(#SVGID_00000109730897091813038480000010288888652245903495_);}
	.st174{fill:url(#SVGID_00000036236034330491814150000008888507325027997328_);}
	.st175{fill:url(#SVGID_00000174595399474901609940000015653389018615818409_);}
	.st176{fill:url(#SVGID_00000065058536993409327920000006097129220804576435_);}
	.st177{fill:url(#SVGID_00000134233197173574027330000010510679224550534020_);}
	.st178{fill:url(#SVGID_00000016058080463810663760000017781948476264183223_);}
	.st179{fill:url(#SVGID_00000011713798247498446930000009700657505807841948_);}
	.st180{fill:url(#SVGID_00000103226935646357920590000000471546687456310149_);}
	.st181{fill:url(#SVGID_00000092451520437684433560000000152367061453140666_);}
	.st182{fill:url(#SVGID_00000069363071655539074610000006566446376469973659_);}
	.st183{fill:url(#SVGID_00000034063317606317033780000001066109976040149150_);}
	.st184{fill:url(#SVGID_00000079482583241729603260000010144823685617182618_);}
	.st185{fill:url(#SVGID_00000001653601608332129070000011980292571141059748_);}
	.st186{fill:url(#SVGID_00000043447394623362464450000013818434696536013232_);}
	.st187{fill:url(#SVGID_00000109008165819507311610000004926420001382854800_);}
	.st188{fill:url(#SVGID_00000085946617042916393830000009969660260792518019_);}
	.st189{fill:url(#SVGID_00000084503472385776218880000017458899169036445103_);}
	.st190{fill:url(#SVGID_00000121988337503418510540000008266605607126128316_);}
	.st191{fill:url(#SVGID_00000012450480557813396930000014433633149645108117_);}
	.st192{fill:url(#SVGID_00000150077654948624164000000005113511355632136590_);}
	.st193{fill:url(#SVGID_00000133530700803377893970000014179752924728194476_);}
	.st194{fill:url(#SVGID_00000052792409674600085050000002657579041223956645_);}
	.st195{fill:url(#SVGID_00000089568166845334851030000005443934764502460580_);}
	.st196{fill-rule:evenodd;clip-rule:evenodd;fill:#512100;}
	.st197{fill-rule:evenodd;clip-rule:evenodd;fill:#006D62;}
	.st198{fill-rule:evenodd;clip-rule:evenodd;}
	.st199{fill-rule:evenodd;clip-rule:evenodd;fill:#00A1F5;}
	.st200{fill-rule:evenodd;clip-rule:evenodd;fill:#FACFAB;}
	.st201{fill-rule:evenodd;clip-rule:evenodd;fill:#F29673;}
	.st202{fill-rule:evenodd;clip-rule:evenodd;fill:#FFFFFF;}
	.st203{fill-rule:evenodd;clip-rule:evenodd;fill:#333333;}
	.st204{fill-rule:evenodd;clip-rule:evenodd;fill:#BD4D00;}
	.st205{fill-rule:evenodd;clip-rule:evenodd;fill:#B2B2B2;}
	.st206{fill-rule:evenodd;clip-rule:evenodd;fill:#F2CC29;}
	.st207{fill-rule:evenodd;clip-rule:evenodd;fill:#005C9C;}
	.st208{fill-rule:evenodd;clip-rule:evenodd;fill:#8AC900;}
	.st209{fill-rule:evenodd;clip-rule:evenodd;fill:#808080;}
	.st210{fill-rule:evenodd;clip-rule:evenodd;fill:#CFA605;}
	.st211{fill-rule:evenodd;clip-rule:evenodd;fill:#666666;}
	.st212{fill-rule:evenodd;clip-rule:evenodd;fill:#CCCCCC;}
	.st213{fill:#960000;}
	.st214{fill:url(#SVGID_00000064349081103602137810000009502559191960372662_);}
	.st215{fill:url(#SVGID_00000179630583310788570880000005957849582776171162_);}
	.st216{opacity:0.51;fill:url(#SVGID_00000031898406549512356410000003473800677494981773_);}
	.st217{fill:url(#SVGID_00000015325901363524471850000000368523330515730855_);}
	.st218{fill:url(#SVGID_00000078745467089746371540000011987663532388586376_);}
	.st219{fill:url(#SVGID_00000069388083510694417070000018343033178061775797_);}
	.st220{opacity:0.35;fill:url(#SVGID_00000166650028973357536970000002512776115633314962_);}
	.st221{opacity:0.35;fill:url(#SVGID_00000111178009065498041110000005437653476798327742_);}
	.st222{fill:#F06021;}
	.st223{fill-rule:evenodd;clip-rule:evenodd;fill:url(#SVGID_00000034803288521906842550000015029381580835872128_);}
	.st224{fill-rule:evenodd;clip-rule:evenodd;fill:url(#SVGID_00000040533251094848624940000009861515772705143694_);}
	.st225{fill-rule:evenodd;clip-rule:evenodd;fill:url(#SVGID_00000093168342306048067050000005444829013054316207_);}
	.st226{fill-rule:evenodd;clip-rule:evenodd;fill:url(#SVGID_00000055698765043912658440000014283916673772174239_);}
	.st227{fill-rule:evenodd;clip-rule:evenodd;fill:url(#SVGID_00000119090103410361659150000007700891498594903471_);}
	.st228{fill-rule:evenodd;clip-rule:evenodd;fill:url(#SVGID_00000102546579429864451390000001447286700422724770_);}
	.st229{fill-rule:evenodd;clip-rule:evenodd;fill:url(#SVGID_00000126325332584670653870000003593820309999228607_);}
	.st230{fill-rule:evenodd;clip-rule:evenodd;fill:url(#SVGID_00000031928838038826025590000007028097573471046789_);}
	.st231{fill-rule:evenodd;clip-rule:evenodd;fill:url(#SVGID_00000095314455889034450980000017779634911999739298_);}
	.st232{fill-rule:evenodd;clip-rule:evenodd;fill:url(#SVGID_00000174583221533326020600000014538094058970048138_);}
	.st233{fill-rule:evenodd;clip-rule:evenodd;fill:url(#SVGID_00000039128938141968028690000018078499301396162701_);}
	.st234{fill-rule:evenodd;clip-rule:evenodd;fill:url(#SVGID_00000159436931550444710890000001464034700711403939_);}
	.st235{fill-rule:evenodd;clip-rule:evenodd;fill:url(#SVGID_00000171715586265032745030000000113438750850773683_);}
	.st236{opacity:0.5;fill-rule:evenodd;clip-rule:evenodd;fill:#5D0101;enable-background:new    ;}
	.st237{fill:#E11B22;}
	.st238{fill:#959595;}
	.st239{fill:#003359;}
	.st240{fill:#1779C1;}
	.st241{fill:#0EB17C;}
	.st242{fill:#2B2353;}
	.st243{fill:#BE264E;}
	.st244{fill:#EAA41C;}
	.st245{fill:#1F9EF3;}
	.st246{fill:#0267A3;}
	.st247{fill:#FFEC00;}
	.st248{fill:#00A0E0;}
	.st249{fill:#E3007E;}
	.st250{fill:none;stroke:#000000;stroke-width:2;stroke-miterlimit:10;}
</style>
<g>
	<g>
		
			<linearGradient id="SVGID_00000129166631337231024510000013603021195712920758_" gradientUnits="userSpaceOnUse" x1="210.0511" y1="-304.4476" x2="206.6595" y2="-279.7568" gradientTransform="matrix(1 0 0 -1 0 -230.339)">
			<stop  offset="0" style="stop-color:#000000"/>
			<stop  offset="1" style="stop-color:#000000"/>
		</linearGradient>
		<path style="opacity:0.42;fill:url(#SVGID_00000129166631337231024510000013603021195712920758_);enable-background:new    ;" d="
			M207.24,51.43c4.58,4.48,4.03,18.1,2.46,23.5c0.91-5.64,0.33-18.47-5.39-25.02C205.34,50.41,206.31,50.92,207.24,51.43z"/>
		
			<linearGradient id="SVGID_00000039823745561763943280000004322923344418278074_" gradientUnits="userSpaceOnUse" x1="139.0764" y1="-302.6713" x2="125.9336" y2="-292.0318" gradientTransform="matrix(1 0 0 -1 0 -230.339)">
			<stop  offset="0" style="stop-color:#000000"/>
			<stop  offset="1" style="stop-color:#000000"/>
		</linearGradient>
		<path style="opacity:0.42;fill:url(#SVGID_00000039823745561763943280000004322923344418278074_);enable-background:new    ;" d="
			M142.97,75.77c-0.63-0.34-1.26-0.7-1.88-1.06c-5.28-3.08-10.91-6.6-14.58-11.59c0,0,0.01-0.02,0.04-0.06
			c0-0.01,0.01-0.02,0.02-0.03c0.03-0.04,0.07-0.09,0.12-0.16c0-0.01,0.01-0.01,0.02-0.02c0.06-0.08,0.13-0.17,0.21-0.27
			c0.01-0.01,0.02-0.02,0.03-0.04c0.09-0.11,0.18-0.22,0.29-0.35c0.02-0.02,0.03-0.04,0.05-0.06c0.11-0.13,0.23-0.27,0.37-0.43
			c0.02-0.02,0.04-0.05,0.06-0.07c0.1-0.11,0.2-0.22,0.3-0.34C131.42,66.55,137.25,71.61,142.97,75.77z"/>
		<g>
			
				<linearGradient id="SVGID_00000058581786634817579800000002586442127713116092_" gradientUnits="userSpaceOnUse" x1="171.559" y1="-276.0086" x2="184.6264" y2="-375.3658" gradientTransform="matrix(1 0 0 -1 0 -230.339)">
				<stop  offset="0" style="stop-color:#002C61"/>
				<stop  offset="0.146" style="stop-color:#709BEB"/>
				<stop  offset="0.5042" style="stop-color:#4D3591"/>
				<stop  offset="0.6818" style="stop-color:#3EA68E"/>
				<stop  offset="1" style="stop-color:#2E2A70"/>
			</linearGradient>
			<path style="fill:url(#SVGID_00000058581786634817579800000002586442127713116092_);" d="M221.42,63.03
				C221.42,63.03,221.42,63.03,221.42,63.03c-0.05-0.06-0.11-0.14-0.19-0.24c-0.01-0.01-0.02-0.02-0.03-0.03
				c-0.08-0.1-0.18-0.22-0.29-0.36c-0.01-0.02-0.03-0.04-0.04-0.05c-0.12-0.14-0.25-0.3-0.4-0.47c-0.02-0.02-0.04-0.05-0.07-0.08
				c-0.15-0.18-0.32-0.37-0.51-0.57c-0.03-0.03-0.05-0.06-0.08-0.09c-0.19-0.21-0.41-0.44-0.63-0.67c-0.03-0.03-0.06-0.06-0.09-0.1
				c-0.24-0.25-0.5-0.51-0.78-0.78c-0.03-0.03-0.05-0.05-0.08-0.08c-0.31-0.3-0.64-0.61-0.99-0.93c-0.21-0.19-0.43-0.39-0.65-0.59
				c-0.11-0.1-0.22-0.19-0.34-0.29c-0.2-0.17-0.41-0.35-0.62-0.52c-0.16-0.13-0.32-0.26-0.48-0.4c-0.2-0.16-0.41-0.33-0.62-0.49
				c-0.2-0.16-0.4-0.31-0.6-0.47c-0.2-0.16-0.41-0.31-0.62-0.47c-0.23-0.17-0.47-0.35-0.72-0.52c-0.21-0.15-0.41-0.3-0.63-0.44
				c-0.27-0.19-0.56-0.38-0.85-0.57c-0.2-0.14-0.4-0.27-0.61-0.41c-0.34-0.22-0.69-0.43-1.04-0.65c-0.18-0.11-0.35-0.22-0.54-0.33
				c-0.2-0.12-0.41-0.25-0.62-0.37c-0.14-0.08-0.28-0.16-0.42-0.24c-0.21-0.12-0.43-0.24-0.65-0.37c-0.93-0.51-1.9-1.02-2.92-1.52
				c-7.43-3.6-17.44-6.52-30.31-6.52c-24.64,0-38.72,10.68-44.45,16.32c-0.01,0.01-0.03,0.03-0.04,0.04
				c-0.22,0.22-0.43,0.43-0.63,0.63c-0.03,0.03-0.06,0.06-0.09,0.09c-0.19,0.2-0.36,0.38-0.53,0.56c-0.03,0.03-0.06,0.06-0.09,0.09
				c-0.05,0.05-0.1,0.11-0.15,0.16c-0.11,0.12-0.21,0.23-0.3,0.34c-0.02,0.02-0.04,0.05-0.06,0.07c-0.14,0.16-0.26,0.3-0.37,0.43
				c-0.02,0.02-0.03,0.04-0.05,0.06c-0.11,0.13-0.21,0.25-0.29,0.35c-0.01,0.01-0.02,0.03-0.03,0.04c-0.09,0.11-0.16,0.2-0.21,0.27
				c0,0.01-0.01,0.01-0.02,0.02c-0.05,0.07-0.09,0.12-0.12,0.16c-0.01,0.01-0.01,0.02-0.02,0.03c-0.03,0.04-0.04,0.06-0.04,0.06
				c0.01,0.28,0.03,0.55,0.05,0.83c0.01,0.09,0.01,0.18,0.02,0.27c0.04,0.61,0.09,1.22,0.14,1.83c0.02,0.3,0.06,0.6,0.08,0.9
				c0.06,0.69,0.13,1.38,0.21,2.07c0.04,0.33,0.08,0.66,0.12,0.99c0.09,0.71,0.18,1.41,0.29,2.11c0.04,0.28,0.08,0.57,0.12,0.85
				c0.15,0.99,0.32,1.97,0.5,2.96c0,0,0,0,0,0v0c0.21,1.13,0.45,2.26,0.69,3.38c0.06,0.28,0.12,0.55,0.19,0.83
				c0.26,1.13,0.53,2.25,0.82,3.37c0.07,0.23,0.12,0.47,0.2,0.73c0.45,1.66,0.93,3.31,1.46,4.95c0,0,0,0,0,0
				c0.93,2.9,1.99,5.77,3.16,8.59c3.52,8.49,8.07,16.49,13.45,23.54c0.3,0.39,0.73,0.68,1.22,0.76c3.54,0.61,7.47-0.26,11.38-4.11
				c0.75-0.73,1.5-1.58,2.25-2.54c0.76-0.98,1.5-2.19,2.16-3.57c3.01-6.28,3.21-13.65,0.45-19.76c-2.31-5.1-5.97-7.87-10.91-10.34
				c-3.9-1.94-7.81-3.89-11.61-6.02c4.14-1.28,8.24-0.91,11.22-0.24c3.49,0.78,6.81,2.2,9.94,3.9c2.84,1.56,5.39,3.46,8.07,5.06
				c0,0.01,0.01,0.01,0.01,0.02c2.74,1.67,5.59,3.06,8.99,3.52c6.28,0.85,12.51-1.24,17.85-4.45c3.93-2.36,7.49-5.35,10.66-8.65
				c-1.25,5.26-3.68,10-7.69,13.68c-3.78,3.47-8.37,5.93-12.64,8.7c-0.29,0.19-0.58,0.38-0.87,0.57c-2.77,1.84-5.45,3.8-7.97,5.97
				c-0.46,0.39-0.9,0.79-1.34,1.18c-0.23,0.2-0.44,0.4-0.66,0.61c-0.2,0.19-0.41,0.37-0.6,0.56c-0.27,0.26-0.53,0.52-0.8,0.77
				c-0.13,0.13-0.26,0.25-0.38,0.37c-0.31,0.31-0.6,0.61-0.89,0.91c-0.07,0.08-0.15,0.15-0.22,0.23c-0.31,0.33-0.61,0.66-0.9,0.98
				c-0.04,0.05-0.09,0.1-0.14,0.15c-0.3,0.34-0.59,0.68-0.87,1.01c-0.03,0.04-0.07,0.07-0.1,0.11c-0.3,0.36-0.59,0.72-0.87,1.08
				c-0.01,0.01-0.02,0.03-0.03,0.04c-0.28,0.36-0.55,0.72-0.81,1.09c-0.01,0.01-0.02,0.02-0.03,0.04c-2.13,2.97-3.6,5.95-4.58,9.12
				c0,0,0,0,0,0c-0.01,0.02-0.01,0.05-0.02,0.07c0,0,0,0,0,0c0,0.02-0.01,0.03-0.02,0.05c-0.38,1.23-0.68,2.49-0.92,3.78
				c-0.65,3.5-0.84,7.3-0.77,11.61c0.01,0.67,0.34,1.3,0.89,1.68c1.62,1.12,3.28,2.16,4.97,3.11c0.83,0.49,1.68,0.93,2.53,1.36
				c13.2-6.65,24.67-18.62,33.04-33.07c1.52-2.6,2.93-5.28,4.23-8.03c1.63-3.44,3.08-6.98,4.35-10.58c0,0,0,0,0,0
				c0.12-0.32,0.23-0.65,0.34-0.98c0.08-0.24,0.16-0.48,0.25-0.73c0.01-0.04,0.03-0.08,0.04-0.12c0.07-0.21,0.14-0.41,0.21-0.62
				c0.18-0.55,0.36-1.11,0.53-1.66c0.03-0.1,0.06-0.21,0.1-0.31c0.97-3.16,1.79-6.35,2.45-9.57c1.03-4.97,1.69-9.99,1.95-14.97
				C221.48,63.12,221.46,63.09,221.42,63.03z M181.92,83.52c-3.56,0-6.45-2.89-6.45-6.45c0-3.56,2.89-6.44,6.45-6.44
				c3.56,0,6.44,2.88,6.44,6.44C188.36,80.63,185.47,83.52,181.92,83.52z"/>
			
				<linearGradient id="SVGID_00000091711730821293629440000009231767289060075909_" gradientUnits="userSpaceOnUse" x1="221.6435" y1="-290.7899" x2="169.3145" y2="-353.3844" gradientTransform="matrix(1 0 0 -1 0 -230.339)">
				<stop  offset="0" style="stop-color:#A061A7"/>
				<stop  offset="0.0856" style="stop-color:#9259A0"/>
				<stop  offset="0.5139" style="stop-color:#5F3C87"/>
				<stop  offset="0.8311" style="stop-color:#422B78"/>
				<stop  offset="1" style="stop-color:#372673"/>
			</linearGradient>
			<path style="fill:url(#SVGID_00000091711730821293629440000009231767289060075909_);" d="M221.48,63.12
				C221,72.5,219.08,82,215.96,91.1c-0.11,0.33-0.22,0.66-0.34,0.98c-7.62,20.34-40.28,14.82-48.32,30.15
				c1.95-6.44,5.9-12.05,13.24-18.38c2.78-2.4,5.75-4.54,8.83-6.54c4.27-2.77,8.87-5.23,12.64-8.7c4.01-3.68,6.44-8.43,7.69-13.68
				c1.57-5.4,2.12-19.02-2.46-23.5C217.06,56.89,221.48,63.12,221.48,63.12z"/>
			
				<linearGradient id="SVGID_00000019674554056930564470000013529906417627408006_" gradientUnits="userSpaceOnUse" x1="175.5819" y1="-353.1514" x2="226.6062" y2="-295.0982" gradientTransform="matrix(1 0 0 -1 0 -230.339)">
				<stop  offset="0" style="stop-color:#FFFFFF"/>
				<stop  offset="1" style="stop-color:#0001AB"/>
			</linearGradient>
			
				<path style="opacity:0.64;fill:url(#SVGID_00000019674554056930564470000013529906417627408006_);enable-background:new    ;" d="
				M221.48,63.12c-0.42,8.07-1.9,16.23-4.28,24.14c-0.29,0.95-0.59,1.9-0.9,2.84c-0.11,0.34-0.22,0.67-0.34,1.01
				c-0.11,0.33-0.22,0.66-0.34,0.98c0,0,0,0,0,0c-0.14,0.37-0.28,0.73-0.44,1.08c0,0,0,0.01,0,0.01
				c-7.56,17.24-34.16,14.75-45.01,25.26l-0.56,0.56c-0.54,0.58-1.04,1.2-1.48,1.86c-0.28,0.42-0.54,0.85-0.78,1.3
				c-0.01,0.03-0.03,0.05-0.04,0.08c0-0.01,0.01-0.03,0.01-0.04c0,0,0,0,0-0.01c0.26-0.76,3.51-9.61,20.4-20.31
				c3.32-2.11,7.18-4.28,11.64-6.49c1.89-0.93,3.59-1.95,5.12-3.06c12.73-9.17,13.83-23.75,12.76-33.76
				C220.11,61.21,221.48,63.12,221.48,63.12z"/>
			
				<linearGradient id="SVGID_00000088113113051980989290000011872597714426541702_" gradientUnits="userSpaceOnUse" x1="215.8275" y1="-288.1834" x2="177.7739" y2="-350.6047" gradientTransform="matrix(1 0 0 -1 0 -230.339)">
				<stop  offset="0" style="stop-color:#FFFFFF"/>
				<stop  offset="0.8778" style="stop-color:#0036C6"/>
				<stop  offset="1" style="stop-color:#FFFFFF"/>
			</linearGradient>
			
				<path style="opacity:0.75;fill:url(#SVGID_00000088113113051980989290000011872597714426541702_);enable-background:new    ;" d="
				M215.35,77.87c-2.42,6.75-7.19,13.18-15.99,17.52c-27.21,13.42-31.76,25.94-32.05,26.79c1.96-6.42,5.9-12.01,13.22-18.33
				c2.78-2.4,5.75-4.54,8.83-6.54c4.27-2.77,8.87-5.23,12.64-8.7c3.33-3.06,5.58-6.86,6.95-11.08c0.28-0.85,0.52-1.72,0.73-2.61
				c1.57-5.4,2.12-19.02-2.46-23.5c4.38,2.43,7.68,5.02,10,7.13C217.84,64.16,217.75,71.17,215.35,77.87z"/>
			
				<linearGradient id="SVGID_00000021116303686194072420000016738786761576606909_" gradientUnits="userSpaceOnUse" x1="222.3387" y1="-292.2336" x2="175.2722" y2="-351.1501" gradientTransform="matrix(1 0 0 -1 0 -230.339)">
				<stop  offset="0" style="stop-color:#FFFFFF"/>
				<stop  offset="0.0883" style="stop-color:#F6F6F7"/>
				<stop  offset="0.2164" style="stop-color:#E6E7E8"/>
				<stop  offset="0.3688" style="stop-color:#CBCDCF"/>
				<stop  offset="0.5399" style="stop-color:#A7A9AC"/>
				<stop  offset="0.7265" style="stop-color:#7C7E80"/>
				<stop  offset="0.9232" style="stop-color:#444345"/>
				<stop  offset="1" style="stop-color:#000000"/>
			</linearGradient>
			<path style="fill:url(#SVGID_00000021116303686194072420000016738786761576606909_);" d="M217.23,58.57
				c0.41,3.58,0.51,7.2,0.16,10.79c-0.38,3.59-1.22,7.15-2.64,10.48c-1.42,3.33-3.44,6.41-5.96,9.02c-2.53,2.59-5.46,4.81-8.7,6.44
				c-6.43,3.22-12.75,6.7-18.49,11.04c-2.88,2.14-5.63,4.48-8.1,7.08c-0.62,0.65-1.22,1.32-1.81,1.99c-0.56,0.7-1.16,1.37-1.67,2.11
				c-1.06,1.45-2.04,2.97-2.7,4.65c0.62-1.69,1.56-3.25,2.59-4.73c0.49-0.76,1.08-1.44,1.62-2.16c0.58-0.69,1.17-1.38,1.77-2.05
				c2.46-2.65,5.2-5.02,8.08-7.19c5.72-4.41,12.05-7.97,18.46-11.24c6.39-3.19,11.75-8.51,14.58-15.12c1.44-3.28,2.3-6.8,2.71-10.36
				C217.57,65.77,217.56,62.15,217.23,58.57z"/>
			
				<linearGradient id="SVGID_00000030488960259067106330000017352996076951593108_" gradientUnits="userSpaceOnUse" x1="129.5278" y1="-293.5524" x2="166.8342" y2="-344.1288" gradientTransform="matrix(1 0 0 -1 0 -230.339)">
				<stop  offset="0" style="stop-color:#A061A7"/>
				<stop  offset="0.0856" style="stop-color:#9259A0"/>
				<stop  offset="0.5139" style="stop-color:#5F3C87"/>
				<stop  offset="0.8311" style="stop-color:#422B78"/>
				<stop  offset="1" style="stop-color:#372673"/>
			</linearGradient>
			<path style="fill:url(#SVGID_00000030488960259067106330000017352996076951593108_);" d="M165.49,92.13
				c-2.31-5.1-5.97-7.87-10.91-10.34c-3.9-1.94-7.81-3.89-11.61-6.02c-0.63-0.34-1.26-0.7-1.88-1.06
				c-5.28-3.08-10.91-6.6-14.58-11.59c0.35,6.8,1.46,13.67,3.24,20.41c0.07,0.23,0.12,0.47,0.2,0.73c2.09,3.6,7.03,6.46,12.42,9.4
				c10.6,5.8,22.89,11.86,18.24,24.34c0.75-0.73,1.5-1.58,2.25-2.54c0.76-0.98,1.5-2.19,2.16-3.57
				C168.05,105.6,168.25,98.23,165.49,92.13z"/>
			
				<linearGradient id="SVGID_00000155128140337035404040000017006551315307960510_" gradientUnits="userSpaceOnUse" x1="165.3797" y1="-341.8632" x2="129.8269" y2="-304.3074" gradientTransform="matrix(1 0 0 -1 0 -230.339)">
				<stop  offset="0" style="stop-color:#FFFFFF"/>
				<stop  offset="1" style="stop-color:#0001AB"/>
			</linearGradient>
			
				<path style="opacity:0.76;fill:url(#SVGID_00000155128140337035404040000017006551315307960510_);enable-background:new    ;" d="
				M160.62,117.99c4.65-12.48-7.64-18.54-18.24-24.34c-5.39-2.94-10.34-5.8-12.42-9.4c-0.08-0.25-0.13-0.5-0.2-0.73
				c-0.61-2.31-1.14-4.64-1.59-6.97c-0.04-0.2-0.08-0.41-0.12-0.61c0.25,0.26,0.51,0.51,0.79,0.76c4.32,3.95,11.18,6.68,18.18,9.65
				c0.84,0.36,1.68,0.72,2.53,1.08c6.78,2.95,11.52,6.76,13.59,11.74c0.76,1.84,1.16,3.84,1.16,6.02
				C164.29,108.92,163.12,113.16,160.62,117.99z"/>
			
				<linearGradient id="SVGID_00000062904684088201073830000005787323723696428676_" gradientUnits="userSpaceOnUse" x1="128.4872" y1="-292.4794" x2="168.2097" y2="-341.2145" gradientTransform="matrix(1 0 0 -1 0 -230.339)">
				<stop  offset="0" style="stop-color:#FFFFFF"/>
				<stop  offset="0.8778" style="stop-color:#0036C6"/>
				<stop  offset="1" style="stop-color:#FFFFFF"/>
			</linearGradient>
			
				<path style="opacity:0.75;fill:url(#SVGID_00000062904684088201073830000005787323723696428676_);enable-background:new    ;" d="
				M165.03,111.88c-0.66,1.38-1.4,2.58-2.16,3.57c-0.75,0.96-1.5,1.81-2.25,2.54c7.91-15.24,2.53-24.66-11.07-30.56
				c-8.29-3.6-16.77-6.63-21.5-11.49c-0.31-1.66-0.58-3.33-0.8-5c-0.35-2.61-0.6-5.22-0.73-7.82c3.67,4.99,9.3,8.51,14.58,11.59
				c0.62,0.36,1.25,0.72,1.88,1.06c0.62,0.35,1.24,0.69,1.86,1.02c3.21,1.74,6.48,3.37,9.75,5c4.94,2.46,8.6,5.23,10.91,10.34
				C168.25,98.23,168.05,105.6,165.03,111.88z"/>
			
				<linearGradient id="SVGID_00000110462865387396299400000015581133609046947005_" gradientUnits="userSpaceOnUse" x1="129.0881" y1="-303.8354" x2="165.8066" y2="-342.056" gradientTransform="matrix(1 0 0 -1 0 -230.339)">
				<stop  offset="0" style="stop-color:#FFFFFF"/>
				<stop  offset="0.1442" style="stop-color:#FAFAFA"/>
				<stop  offset="0.2722" style="stop-color:#F0F0F1"/>
				<stop  offset="0.3942" style="stop-color:#E0E1E3"/>
				<stop  offset="0.5124" style="stop-color:#CBCDCF"/>
				<stop  offset="0.628" style="stop-color:#B0B2B4"/>
				<stop  offset="0.7416" style="stop-color:#909295"/>
				<stop  offset="0.8535" style="stop-color:#6C6E70"/>
				<stop  offset="0.9615" style="stop-color:#3A393B"/>
				<stop  offset="1" style="stop-color:#000000"/>
			</linearGradient>
			<path style="fill:url(#SVGID_00000110462865387396299400000015581133609046947005_);" d="M160.62,117.99
				c1.08-2.36,2.17-4.75,2.74-7.29c0.62-2.51,0.93-5.12,0.57-7.67c-0.34-2.55-1.36-4.99-2.91-7.04c-1.54-2.06-3.54-3.74-5.69-5.16
				c-1.06-0.74-2.21-1.34-3.34-1.97c-1.17-0.56-2.33-1.13-3.53-1.64c-2.39-1.04-4.8-2.02-7.18-3.1c-4.71-2.15-9.59-4.41-13.23-8.2
				c1.87,1.82,4.07,3.25,6.36,4.48c2.28,1.25,4.66,2.31,7.05,3.33l7.2,3.03c1.2,0.49,2.39,1.07,3.57,1.63
				c1.15,0.63,2.32,1.23,3.4,1.98c2.18,1.45,4.22,3.19,5.79,5.32c1.58,2.12,2.64,4.65,2.93,7.28c0.31,2.63-0.05,5.28-0.73,7.8
				C162.96,113.31,161.78,115.67,160.62,117.99z"/>
			
				<linearGradient id="SVGID_00000045602468250273836260000000461225338648939400_" gradientUnits="userSpaceOnUse" x1="163.0248" y1="-346.1555" x2="132.7336" y2="-314.4874" gradientTransform="matrix(1 0 0 -1 0 -230.339)">
				<stop  offset="0" style="stop-color:#000000"/>
				<stop  offset="1" style="stop-color:#000000"/>
			</linearGradient>
			
				<path style="opacity:0.42;fill:url(#SVGID_00000045602468250273836260000000461225338648939400_);enable-background:new    ;" d="
				M160.62,117.99c1.56-6.29-0.43-12.26-10.19-18.27c-6.55-4.03-12.18-5.42-19.02-10.52c0,0,0,0,0,0c-0.53-1.64-1.01-3.29-1.46-4.95
				c2.09,3.6,7.03,6.46,12.42,9.4C152.97,99.45,165.26,105.51,160.62,117.99z"/>
			
				<linearGradient id="SVGID_00000144323826860643306950000014481216788169885372_" gradientUnits="userSpaceOnUse" x1="166.4338" y1="-351.7378" x2="213.4168" y2="-328.0376" gradientTransform="matrix(1 0 0 -1 0 -230.339)">
				<stop  offset="0" style="stop-color:#000000"/>
				<stop  offset="1" style="stop-color:#000000"/>
			</linearGradient>
			
				<path style="opacity:0.42;fill:url(#SVGID_00000144323826860643306950000014481216788169885372_);enable-background:new    ;" d="
				M215.18,93.16c0.15-0.35,0.3-0.71,0.44-1.08c-1.27,3.61-2.72,7.15-4.35,10.58c-6.95,5.23-13.11,6.15-22.91,8.82
				c-12.49,3.4-16.14,5.16-21.01,10.66c0.24-0.45,0.5-0.88,0.78-1.3c0.44-0.65,0.94-1.27,1.48-1.86l0.56-0.56
				c10.85-10.51,37.45-8.03,45.01-25.26C215.18,93.17,215.18,93.16,215.18,93.16z"/>
		</g>
	</g>
	<text transform="matrix(1 0 0 1 87.8517 173.4368)" class="st80 st94 st95">Insurance</text>
</g>
</svg>
