<?xml version="1.0" encoding="utf-8"?>
<!-- Generator: Adobe Illustrator 27.8.1, SVG Export Plug-In . SVG Version: 6.00 Build 0)  -->
<svg version="1.1" id="Layer_1" xmlns="http://www.w3.org/2000/svg" xmlns:xlink="http://www.w3.org/1999/xlink" x="0px" y="0px"
	 viewBox="0 0 348 228" style="enable-background:new 0 0 348 228;" xml:space="preserve">
<style type="text/css">
	.st0{fill:#D6EADE;}
	.st1{fill:#03487C;}
	.st2{fill:#1B1B4C;}
	.st3{fill:none;}
	.st4{fill-rule:evenodd;clip-rule:evenodd;fill:#204F7A;}
	.st5{fill-rule:evenodd;clip-rule:evenodd;fill:#50A4FF;}
	.st6{fill:#002649;}
	.st7{fill:#E6E7E8;stroke:#CFCFCF;stroke-width:0.1061;}
	.st8{fill:#333333;}
	.st9{fill-rule:evenodd;clip-rule:evenodd;fill:#277FC1;}
	.st10{fill-rule:evenodd;clip-rule:evenodd;fill:#083D6D;}
	.st11{fill:#DDB462;}
	
		.st12{clip-path:url(#SVGID_00000099647059084562532340000004577920214936349845_);fill:url(#SVGID_00000132777827520509681820000006433548649264001460_);}
	.st13{fill:#FFFFFF;}
	.st14{fill:url(#SVGID_00000155109451850657457690000003379061910558121365_);}
	.st15{fill:#224685;}
	.st16{fill:#FFC73B;}
	.st17{fill:#11233F;}
	.st18{fill:#5267FF;}
	.st19{fill-rule:evenodd;clip-rule:evenodd;fill:#72342E;}
	.st20{fill:#72342E;}
	.st21{fill:#FFF2E2;}
	.st22{fill:#FFF2E2;stroke:#72342E;stroke-width:0.75;stroke-miterlimit:10;}
	.st23{fill:#FFCC99;}
	.st24{fill:#469CB2;}
	.st25{fill:url(#XMLID_00000074408426207690330460000010922415776882178474_);}
	.st26{fill:url(#XMLID_00000051372652686756720330000007476342554789535665_);}
	.st27{fill:url(#XMLID_00000114038175801143464780000003072375165900631469_);}
	.st28{fill:url(#XMLID_00000034061337006645619420000002368046855665656502_);}
	.st29{fill:url(#XMLID_00000105405216933088671830000001847747625567313834_);}
	.st30{fill:url(#XMLID_00000138546160132378602820000008030026331954664871_);}
	.st31{fill:url(#XMLID_00000133515186354177695120000006967215636074779520_);}
	.st32{fill:url(#XMLID_00000020383822440512469040000010081589777092956853_);}
	.st33{fill:url(#XMLID_00000096774539557016419100000008294323304780324772_);}
	.st34{fill:url(#XMLID_00000076595462386185240020000016823338706033550510_);}
	.st35{fill:url(#XMLID_00000134216022964471568360000008802782328934504877_);}
	.st36{fill:url(#XMLID_00000179642223771897768710000008061083199129674168_);}
	.st37{fill:url(#XMLID_00000147918661521640555350000012445778867110120617_);}
	.st38{fill:url(#XMLID_00000059297342070467345820000005463883404971198614_);}
	.st39{fill:url(#XMLID_00000106119464965871547040000003735101084678358189_);}
	.st40{fill:url(#SVGID_00000008135203844904410050000002479521292661645965_);}
	.st41{fill:url(#SVGID_00000044171171719330583370000004690720416765583272_);}
	.st42{fill:url(#SVGID_00000059988836080818144070000002691494597200992179_);}
	.st43{fill:url(#SVGID_00000078734563252521905630000014238715055460490683_);}
	.st44{fill:url(#SVGID_00000109021467598387178750000001221853588724503938_);}
	.st45{fill:url(#SVGID_00000025421756614811522260000016185067710430575783_);}
	.st46{fill:url(#SVGID_00000157310281970197076120000004148093874369846426_);}
	.st47{fill:url(#SVGID_00000127002240689497212370000018213529787716847753_);}
	.st48{fill:url(#SVGID_00000022538098418511082300000010172533378213310859_);}
	.st49{fill:url(#SVGID_00000132071634904457814600000006404573140584924311_);}
	.st50{fill:url(#SVGID_00000018202272981952772430000008774421675754593702_);}
	.st51{fill:url(#SVGID_00000129207724699993000150000000999462721592098966_);}
	.st52{fill:url(#SVGID_00000090296403785393524950000002901814844052446897_);}
	.st53{fill:url(#SVGID_00000173141520011349757470000006507775196752504970_);}
	.st54{fill:#30325E;}
	.st55{fill:#FF7859;}
	.st56{fill:#FFD550;}
	.st57{fill:#00C3AD;}
	.st58{fill:#FF4653;}
	.st59{fill:#D8CE19;}
	.st60{fill:#FFE4D2;}
	.st61{fill:#A2E0EB;}
	.st62{fill:#1B3493;}
	.st63{fill:none;stroke:#FFFFFF;stroke-width:2;stroke-linecap:round;stroke-linejoin:round;stroke-miterlimit:10;}
	.st64{fill:#F15A24;}
	.st65{fill:#F7931E;}
	.st66{fill:#58595B;}
	.st67{fill:#114E15;}
	.st68{fill:#013D01;}
	.st69{fill:#E9C608;}
	.st70{fill:#043B00;}
	.st71{fill:#D8A43E;}
	.st72{clip-path:url(#SVGID_00000047021494825969247350000003410661358760447920_);}
	.st73{fill:#F49630;}
	.st74{clip-path:url(#SVGID_00000075159565910776071900000008794116509704153985_);}
	.st75{clip-path:url(#SVGID_00000096766230110170124500000002255302926169902999_);}
	.st76{clip-path:url(#SVGID_00000034084789801820814650000007639626523592379027_);}
	.st77{clip-path:url(#SVGID_00000114758423572449992720000014900927707873232003_);}
	.st78{fill-rule:evenodd;clip-rule:evenodd;fill:#FF6600;}
	.st79{fill-rule:evenodd;clip-rule:evenodd;fill:#05174F;}
	.st80{fill:#05174F;}
	.st81{opacity:0.42;fill:url(#SVGID_00000078750529441927855110000012034227613251878840_);enable-background:new    ;}
	.st82{opacity:0.42;fill:url(#SVGID_00000010294062536497660370000017574785341504484792_);enable-background:new    ;}
	.st83{fill:url(#SVGID_00000127029948164956669660000008939042347439686035_);}
	.st84{fill:url(#SVGID_00000168087705956227194550000010650565567808060584_);}
	.st85{opacity:0.64;fill:url(#SVGID_00000157992960264249134300000002804086601632660649_);enable-background:new    ;}
	.st86{opacity:0.75;fill:url(#SVGID_00000092454747833908848280000007682195827551607948_);enable-background:new    ;}
	.st87{fill:url(#SVGID_00000136405802928464292530000004475291102272123282_);}
	.st88{fill:url(#SVGID_00000064334561655576118650000011200380159298346900_);}
	.st89{opacity:0.76;fill:url(#SVGID_00000071561773314851549350000004789665049353525139_);enable-background:new    ;}
	.st90{opacity:0.75;fill:url(#SVGID_00000000935381808816505420000000458351711863915680_);enable-background:new    ;}
	.st91{fill:url(#SVGID_00000060720217453404194310000016144311297121242017_);}
	.st92{opacity:0.42;fill:url(#SVGID_00000109719473422424865550000014060319251027509416_);enable-background:new    ;}
	.st93{opacity:0.42;fill:url(#SVGID_00000162326975053249963370000009658287239790952331_);enable-background:new    ;}
	.st94{clip-path:url(#SVGID_00000072282147676601307120000008798441307286247867_);}
	.st95{fill:#1ED7FE;}
	.st96{clip-path:url(#SVGID_00000056424592254842306340000011566323536561745563_);}
	.st97{clip-path:url(#SVGID_00000051358508822205798780000017715947381925964687_);}
	.st98{fill:#000056;}
	.st99{clip-path:url(#SVGID_00000017496953040217725160000009662903156026983604_);}
	.st100{fill:#053272;}
	.st101{fill:none;stroke:#053272;stroke-width:4;stroke-miterlimit:10;}
	.st102{fill:url(#SVGID_00000155133429687438854010000011114153477358273171_);}
	.st103{fill:url(#SVGID_00000072976870540499592370000003430353638212437426_);}
	.st104{fill:url(#SVGID_00000106835613052879879070000001685922833913615750_);}
	.st105{fill:url(#SVGID_00000054959165160851278780000011408300493060990901_);}
	.st106{fill:url(#SVGID_00000129202484510892718220000003443930082858064545_);}
	.st107{fill:url(#SVGID_00000021118478394102525400000013136719389362205595_);}
	.st108{fill:url(#SVGID_00000113351180663660111060000018214231567553136017_);}
	.st109{fill:url(#SVGID_00000150093010875153640290000012689746946354246788_);}
	.st110{fill:url(#SVGID_00000047019096295311153010000006877070766680122527_);}
	.st111{fill:url(#SVGID_00000119110069538188975470000008621496513762817420_);}
	.st112{fill:url(#SVGID_00000137122422455311313950000004589657382104446374_);}
	.st113{fill:url(#SVGID_00000182507146519993000090000006336500426514769822_);}
	.st114{fill:url(#SVGID_00000078748768568088157610000000797135606484241593_);}
	.st115{fill:url(#SVGID_00000011715122797875818810000012077838655109631646_);}
	.st116{fill:url(#SVGID_00000152975228475977766310000004758404512280809390_);}
	.st117{fill:url(#SVGID_00000030476694876376829430000000472760244103411122_);}
	.st118{fill:url(#SVGID_00000114069848353727103470000010971961530969933232_);}
	.st119{fill:url(#SVGID_00000151509348615802774610000000158403636535651224_);}
	.st120{fill:url(#SVGID_00000013884252514139973210000015169984220928121995_);}
	.st121{fill:url(#SVGID_00000071552326968077895610000001277316434607176877_);}
	.st122{fill:url(#SVGID_00000057109994432556018480000010407085674967961005_);}
	.st123{fill:url(#SVGID_00000078733790225014336080000008286688169673061001_);}
	.st124{fill:url(#SVGID_00000078006294148067695510000016632898305783705219_);}
	.st125{fill:url(#SVGID_00000014619549607138174640000011999626021437956750_);}
	.st126{fill:url(#SVGID_00000040576756115900204020000010137704309678754735_);}
	.st127{fill:url(#SVGID_00000127759666394262566610000017403867500432982151_);}
	.st128{fill:url(#SVGID_00000027593905545053536260000010815261535096374176_);}
	.st129{fill:url(#SVGID_00000123408566311518349310000007638020525031931815_);}
	.st130{fill:url(#SVGID_00000151509743350696759500000010460497661591439786_);}
	.st131{fill:none;stroke:#FEF73D;stroke-linecap:round;stroke-miterlimit:10;}
	.st132{fill:none;stroke:#FF189C;stroke-miterlimit:10;}
	.st133{fill:none;stroke:#00EFF1;stroke-linecap:round;stroke-miterlimit:10;}
	.st134{fill:#00EFF1;}
	.st135{fill:#FFA022;}
	.st136{fill:#0C103A;}
	.st137{fill-rule:evenodd;clip-rule:evenodd;fill:#5D9541;}
	.st138{fill-rule:evenodd;clip-rule:evenodd;fill:#F06021;}
	.st139{fill-rule:evenodd;clip-rule:evenodd;fill:#69BC60;}
	.st140{fill-rule:evenodd;clip-rule:evenodd;fill:#F6951C;}
	.st141{fill:#F6951C;}
	.st142{fill:url(#SVGID_00000014626191924682711430000013691819612216886187_);}
	.st143{fill:url(#SVGID_00000056393672790491513520000008838894567554780038_);}
	.st144{fill:url(#SVGID_00000073692829798509247070000008486928186918018465_);}
	.st145{opacity:0.93;fill:url(#SVGID_00000149367471215289267920000003258825663223930503_);}
	.st146{opacity:0.93;fill:url(#SVGID_00000160889451612275085610000002523920736316154246_);}
	.st147{opacity:0.93;fill:url(#SVGID_00000140701841260071848310000014463803709980279725_);}
	.st148{opacity:0.93;fill:url(#SVGID_00000054955137997167429810000008236179911395385504_);}
	.st149{fill:url(#SVGID_00000166671342668237182110000011277067782408534922_);}
	.st150{fill:url(#SVGID_00000005255172172352042750000008639151893596335758_);}
	.st151{fill:url(#SVGID_00000002368447430040942590000016703997101641348229_);}
	.st152{fill:url(#SVGID_00000062903000011572944770000003331136635510800278_);}
	.st153{fill:url(#SVGID_00000039814749761910759470000013021631869846535591_);}
	.st154{fill:url(#SVGID_00000129883890194175901660000005092997970424511128_);}
	.st155{fill:url(#SVGID_00000121261455799255651940000007527253801584760458_);}
	.st156{fill:url(#SVGID_00000127016603033354116520000009893629886775261070_);}
	.st157{fill:url(#SVGID_00000000924882792533628590000014220321529534603180_);}
	.st158{fill:url(#SVGID_00000160183151358877005310000011919601826415265179_);}
	.st159{fill:url(#SVGID_00000170999870903073322370000012414809357318734224_);}
	.st160{fill:url(#SVGID_00000101815836539847647470000004043748776848401083_);}
	.st161{fill:url(#SVGID_00000152969404828010394000000000687927832334365569_);}
	.st162{fill:url(#SVGID_00000161627729537847710660000002861668236286042761_);}
	.st163{fill:url(#SVGID_00000029756170384731460490000009633499868082935682_);}
	.st164{fill:url(#SVGID_00000166655807634149174110000008324394130613324435_);}
	.st165{fill:url(#SVGID_00000150799185612734897240000000033761714394741906_);}
	.st166{fill:url(#SVGID_00000088108382002402916080000015772629917659977089_);}
	.st167{fill:url(#SVGID_00000121979966004859665030000009571905026546433200_);}
	.st168{fill:url(#SVGID_00000093166539974251559930000007252983566527620012_);}
	.st169{fill:url(#SVGID_00000066513020306139564320000006286644471347786888_);}
	.st170{fill:url(#SVGID_00000119829167615562565170000016249202212518920090_);}
	.st171{fill:url(#SVGID_00000020376383508313371480000005370627143452006325_);}
	.st172{fill:url(#SVGID_00000089568523504900166260000015961776968238410665_);}
	.st173{fill:url(#SVGID_00000054266894653934964590000008839551874061953167_);}
	.st174{fill:url(#SVGID_00000126316989299026099870000013592566770966378402_);}
	.st175{fill:url(#SVGID_00000156557998936427621530000003619099442043588505_);}
	.st176{fill:url(#SVGID_00000135653918085445907010000016237853515868345220_);}
	.st177{fill:url(#SVGID_00000114049113058507286870000014759981250420797629_);}
	.st178{fill:url(#SVGID_00000096746196316597940440000010539996788349568139_);}
	.st179{fill:url(#SVGID_00000001635961824708721670000016160626546939005614_);}
	.st180{fill:url(#SVGID_00000147924574646680891510000014908628725506855613_);}
	.st181{fill:url(#SVGID_00000052790869292913862400000007999893994129015171_);}
	.st182{fill:url(#SVGID_00000148633404330252380150000003775318416690004400_);}
	.st183{fill:url(#SVGID_00000044869438767158976010000004934060960613609353_);}
	.st184{fill:url(#SVGID_00000073690839070941413910000004812509043343344015_);}
	.st185{fill:url(#SVGID_00000160885435093248369860000003620347449464467856_);}
	.st186{fill:url(#SVGID_00000083809021844390288880000014434168772618003085_);}
	.st187{fill:url(#SVGID_00000054235253957884602790000015927662256994439340_);}
	.st188{fill:url(#SVGID_00000150078301597496360650000011807521122589884082_);}
	.st189{fill:url(#SVGID_00000063615183649968124220000008690461642250566315_);}
	.st190{fill:url(#SVGID_00000174602393879574392690000018243624390624507546_);}
	.st191{fill:url(#SVGID_00000131337411673811310980000013434702586377333643_);}
	.st192{fill:url(#SVGID_00000035519142164975452410000009932593625658619321_);}
	.st193{fill:url(#SVGID_00000080893893347995960010000011765955449088920206_);}
	.st194{fill-rule:evenodd;clip-rule:evenodd;fill:#512100;}
	.st195{fill-rule:evenodd;clip-rule:evenodd;fill:#006D62;}
	.st196{fill-rule:evenodd;clip-rule:evenodd;}
	.st197{fill-rule:evenodd;clip-rule:evenodd;fill:#00A1F5;}
	.st198{fill-rule:evenodd;clip-rule:evenodd;fill:#FACFAB;}
	.st199{fill-rule:evenodd;clip-rule:evenodd;fill:#F29673;}
	.st200{fill-rule:evenodd;clip-rule:evenodd;fill:#FFFFFF;}
	.st201{fill-rule:evenodd;clip-rule:evenodd;fill:#333333;}
	.st202{fill-rule:evenodd;clip-rule:evenodd;fill:#BD4D00;}
	.st203{fill-rule:evenodd;clip-rule:evenodd;fill:#B2B2B2;}
	.st204{fill-rule:evenodd;clip-rule:evenodd;fill:#F2CC29;}
	.st205{fill-rule:evenodd;clip-rule:evenodd;fill:#005C9C;}
	.st206{fill-rule:evenodd;clip-rule:evenodd;fill:#8AC900;}
	.st207{fill-rule:evenodd;clip-rule:evenodd;fill:#808080;}
	.st208{fill-rule:evenodd;clip-rule:evenodd;fill:#CFA605;}
	.st209{fill-rule:evenodd;clip-rule:evenodd;fill:#666666;}
	.st210{fill-rule:evenodd;clip-rule:evenodd;fill:#CCCCCC;}
	.st211{fill:#960000;}
	.st212{fill:url(#SVGID_00000098194545831034570710000007799588772663189658_);}
	.st213{fill:url(#SVGID_00000140736739782999202760000018004028942147421101_);}
	.st214{opacity:0.51;fill:url(#SVGID_00000119836542700152567060000009881555247922869377_);}
	.st215{fill:url(#SVGID_00000003822937732998638610000007278198008211223956_);}
	.st216{fill:url(#SVGID_00000128442838564799880920000004673631784441094050_);}
	.st217{fill:url(#SVGID_00000057845991292369104880000005645129762227974037_);}
	.st218{opacity:0.35;fill:url(#SVGID_00000096051599571293172050000004692469961238636426_);}
	.st219{opacity:0.35;fill:url(#SVGID_00000042695766963256368150000015962791598629910460_);}
	.st220{fill:#F06021;}
	.st221{fill-rule:evenodd;clip-rule:evenodd;fill:url(#SVGID_00000064336119357916386850000006015975210004497055_);}
	.st222{fill-rule:evenodd;clip-rule:evenodd;fill:url(#SVGID_00000098206108943938040080000009796253108654130581_);}
	.st223{fill-rule:evenodd;clip-rule:evenodd;fill:url(#SVGID_00000003804836810072631590000000454367150513225141_);}
	.st224{fill-rule:evenodd;clip-rule:evenodd;fill:url(#SVGID_00000173858701042440419030000012795311348226089382_);}
	.st225{fill-rule:evenodd;clip-rule:evenodd;fill:url(#SVGID_00000145060634257279320340000017656243046868575420_);}
	.st226{fill-rule:evenodd;clip-rule:evenodd;fill:url(#SVGID_00000077288672072356033790000014873163454236492733_);}
	.st227{fill-rule:evenodd;clip-rule:evenodd;fill:url(#SVGID_00000170976111128510052580000013294831291133507742_);}
	.st228{fill-rule:evenodd;clip-rule:evenodd;fill:url(#SVGID_00000045620397450895017430000002593514378769025161_);}
	.st229{fill-rule:evenodd;clip-rule:evenodd;fill:url(#SVGID_00000066516291960114540400000017501082761915838878_);}
	.st230{fill-rule:evenodd;clip-rule:evenodd;fill:url(#SVGID_00000118364380582087282290000008537770844063999115_);}
	.st231{fill-rule:evenodd;clip-rule:evenodd;fill:url(#SVGID_00000026155658313196706200000003594625559123997836_);}
	.st232{fill-rule:evenodd;clip-rule:evenodd;fill:url(#SVGID_00000029042578174133310050000006444761664534274946_);}
	.st233{fill-rule:evenodd;clip-rule:evenodd;fill:url(#SVGID_00000168113219533690128360000015834161853083740572_);}
	.st234{opacity:0.5;fill-rule:evenodd;clip-rule:evenodd;fill:#5D0101;enable-background:new    ;}
	.st235{fill:#E11B22;}
	.st236{fill:#959595;}
	.st237{fill:#003359;}
	.st238{fill:#1779C1;}
	.st239{fill:#0EB17C;}
	.st240{fill:#2B2353;}
	.st241{fill:#BE264E;}
	.st242{fill:#EAA41C;}
	.st243{fill:#1F9EF3;}
	.st244{fill:#0267A3;}
	.st245{fill:#FFEC00;}
	.st246{fill:#00A0E0;}
	.st247{fill:#E3007E;}
	.st248{fill:none;stroke:#000000;stroke-width:2;stroke-miterlimit:10;}
</style>
<g>
	<g>
		<path class="st78" d="M262.23,80.55c-1.69,2.92-5.42,3.92-8.34,2.23c-2.92-1.69-3.92-5.42-2.24-8.34
			c1.69-2.92,5.42-3.92,8.34-2.23C262.92,73.89,263.92,77.63,262.23,80.55L262.23,80.55z M262.15,151.23c1.74,1,2.33,3.22,1.33,4.96
			c-1,1.74-3.22,2.33-4.96,1.33c-1.74-1-2.33-3.22-1.33-4.96C258.19,150.82,260.41,150.23,262.15,151.23z M272.78,114.22
			c2.57-4.45,8.25-5.97,12.7-3.4c4.45,2.57,5.97,8.25,3.4,12.7c-2.57,4.45-8.25,5.97-12.7,3.4
			C271.74,124.35,270.22,118.66,272.78,114.22z M266.89,98.41l3.55,6.15l2.15,3.73c-1.33,1.03-2.48,2.33-3.37,3.88
			c-3.39,5.87-1.84,13.23,3.37,17.28l-2.15,3.73l-3.42,5.92l-5.03,8.71c-2.87-0.72-5.98,0.5-7.53,3.19
			c-1.87,3.24-0.76,7.39,2.48,9.26c3.24,1.87,7.39,0.76,9.26-2.48c1.55-2.69,1.05-6-1.01-8.12l3.47-6.02l1.55-2.69l3.42-5.92
			l2.15-3.73c6.11,2.49,13.26,0.15,16.65-5.72c0.89-1.55,1.44-3.2,1.67-4.86l19.62,0c0.5,2.22,1.89,4.23,4.01,5.46
			c1.53,0.88,3.22,1.23,4.85,1.11v-3.95c-0.96,0.14-1.98-0.03-2.89-0.56c-2.15-1.24-2.89-4-1.65-6.15c0.95-1.64,2.77-2.46,4.54-2.21
			v-3.94c-3.13-0.24-6.26,1.29-7.94,4.19c-0.44,0.76-0.75,1.56-0.93,2.37l-8.13,0.04c0-0.01,0-0.03,0-0.04l-7.18,0l-4.3,0
			c-0.55-3.95-2.85-7.62-6.58-9.77c-3.72-2.15-8.05-2.31-11.74-0.81l-2.15-3.73l-3.61-6.26l-6.24-10.81
			c0.93-0.78,1.74-1.73,2.38-2.84c2.94-5.09,1.19-11.6-3.9-14.54c-5.09-2.94-11.6-1.2-14.54,3.9c-2.94,5.09-1.2,11.6,3.9,14.55
			c2.84,1.64,6.11,1.82,8.97,0.78L266.89,98.41z"/>
		<path class="st79" d="M273.64,95.36l3.58,6.2c4.11-0.86,8.53-0.27,12.45,2c5.09,2.94,8.17,8.03,8.74,13.47l7.18,0
			c-0.74-7.51-4.33-13.75-9.59-17.79c-0.78-0.6-0.99-1.67-0.5-2.52l1.94-3.36c0.4-0.69,1.12-1.05,1.91-0.96
			c2.71,0.31,5.47-0.97,6.93-3.49c1.95-3.38,0.79-7.69-2.58-9.64c-3.38-1.95-7.7-0.79-9.64,2.58c-1.45,2.51-1.18,5.55,0.44,7.74
			c0.47,0.64,0.52,1.45,0.12,2.14l-1.97,3.42c-0.49,0.84-1.5,1.2-2.4,0.84C285.32,94.03,279.58,93.67,273.64,95.36L273.64,95.36z"/>
		<path class="st79" d="M296.14,127.71c-4.57,7.91-14.34,10.96-22.5,7.31l-3.42,5.92c6.4,3.1,13.56,3.22,19.82,0.84
			c0.9-0.34,1.9,0.01,2.38,0.85l4.85,8.41c0.33,0.57,0.35,1.21,0.07,1.81c-1.03,2.16-0.26,4.84,1.9,6.09
			c2.25,1.3,5.13,0.53,6.44-1.73c1.3-2.25,0.53-5.13-1.72-6.44c-0.62-0.36-1.3-0.56-1.97-0.62c-0.66-0.05-1.2-0.4-1.53-0.97
			l-4.79-8.29c-0.5-0.86-0.28-1.94,0.51-2.53c2.6-1.96,4.85-4.46,6.58-7.46c1.1-1.91,1.83-4.11,2.28-6.53h-7.43
			C297.26,125.52,296.76,126.63,296.14,127.71L296.14,127.71z"/>
		<path class="st79" d="M267.65,130.65c-4.95-5.54-6.04-13.84-2.12-20.62c1.28-2.22,2.97-4.06,4.92-5.47l-3.55-6.15
			c-3.2,2.17-5.82,4.64-7.46,7.48c-1.73,3-2.77,6.2-3.17,9.43c-0.12,0.98-0.95,1.71-1.94,1.71l-17.79,0c-1.42,0-2.65-0.67-3.41-1.87
			c-1.18-1.86-3.26-3.1-5.63-3.1c-3.68,0-6.66,2.98-6.66,6.66c0,3.68,2.98,6.66,6.66,6.66c2.29,0,4.3-1.15,5.5-2.91
			c0.78-1.14,1.96-1.76,3.33-1.76h18.13c0.97,0,1.77,0.69,1.93,1.64c0.88,5.44,3.53,10.56,7.72,14.43L267.65,130.65z"/>
	</g>
	<g>
		<path class="st80" d="M33.25,116.82v34.78H25.4v-34.78H33.25z"/>
		<path class="st80" d="M40.06,151.61v-34.78h9.19l7.22,12.75c2.06,3.66,4.08,8,5.68,11.92h0.1c-0.46-4.59-0.62-9.29-0.62-14.55
			v-10.11h7.22v34.78H60.6l-7.43-13.42c-2.06-3.72-4.39-8.2-6.04-12.28h-0.21c0.26,4.64,0.36,9.55,0.36,15.22v10.48H40.06z"/>
		<path class="st80" d="M82.42,123.43h-9.39v-6.61h26.73v6.61h-9.5v28.18h-7.84V123.43z"/>
		<path class="st80" d="M124.63,136.9h-12.8v8.26h14.29v6.45h-22.14v-34.78h21.42v6.45h-13.57v7.22h12.8V136.9z"/>
		<path class="st80" d="M131.5,117.29c2.53-0.41,6.24-0.72,10.48-0.72c5.16,0,8.77,0.77,11.25,2.73c2.12,1.65,3.25,4.13,3.25,7.33
			c0,4.39-3.15,7.43-6.14,8.51v0.15c2.43,0.98,3.77,3.25,4.64,6.45c1.08,3.97,2.12,8.51,2.79,9.86h-8.05
			c-0.52-1.03-1.39-3.82-2.37-8.1c-0.98-4.39-2.48-5.52-5.73-5.57h-2.32v13.67h-7.79V117.29z M139.29,132.25h3.1
			c3.92,0,6.24-1.96,6.24-5.01c0-3.15-2.17-4.8-5.78-4.8c-1.91,0-2.99,0.1-3.56,0.26V132.25z"/>
		<path class="st80" d="M162.1,151.61v-34.78h9.19l7.22,12.75c2.06,3.66,4.08,8,5.68,11.92h0.1c-0.46-4.59-0.62-9.29-0.62-14.55
			v-10.11h7.22v34.78h-8.26l-7.43-13.42c-2.06-3.72-4.39-8.2-6.04-12.28h-0.21c0.26,4.64,0.36,9.55,0.36,15.22v10.48H162.1z"/>
		<path class="st80" d="M218.4,136.9h-12.8v8.26h14.29v6.45h-22.14v-34.78h21.42v6.45H205.6v7.22h12.8V136.9z"/>
		<path class="st80" d="M232.28,127.24v24.37h7.84v-28.18h-4.04C233.98,123.43,232.28,125.13,232.28,127.24z"/>
	</g>
</g>
</svg>
