<?xml version="1.0" encoding="utf-8"?>
<!-- Generator: Adobe Illustrator 27.8.1, SVG Export Plug-In . SVG Version: 6.00 Build 0)  -->
<svg version="1.1" id="Layer_1" xmlns="http://www.w3.org/2000/svg" xmlns:xlink="http://www.w3.org/1999/xlink" x="0px" y="0px"
	 viewBox="0 0 348 228" style="enable-background:new 0 0 348 228;" xml:space="preserve">
<style type="text/css">
	.st0{fill:#D6EADE;}
	.st1{fill:#03487C;}
	.st2{fill:#1B1B4C;}
	.st3{fill-rule:evenodd;clip-rule:evenodd;fill:#204F7A;}
	.st4{fill-rule:evenodd;clip-rule:evenodd;fill:#50A4FF;}
	.st5{fill:#002649;}
	.st6{fill:#E6E7E8;stroke:#CFCFCF;stroke-width:0.1061;}
	.st7{fill:#333333;}
	.st8{fill:#0F5998;}
	.st9{fill:#277FC1;}
	.st10{fill-rule:evenodd;clip-rule:evenodd;fill:#277FC1;}
	.st11{fill-rule:evenodd;clip-rule:evenodd;fill:#083D6D;}
	.st12{fill:#DDB462;}
	
		.st13{clip-path:url(#SVGID_00000114063197302238040890000007384642773325084857_);fill:url(#SVGID_00000029005894637792293440000017195746477041987992_);}
	.st14{fill:#FFFFFF;}
	.st15{fill:url(#SVGID_00000162328154194307115730000013269670232132597163_);}
	.st16{fill:#224685;}
	.st17{fill:none;}
	.st18{fill:#FFC73B;}
	.st19{fill:#11233F;}
	.st20{fill:#5267FF;}
	.st21{fill-rule:evenodd;clip-rule:evenodd;fill:#72342E;}
	.st22{fill:#72342E;}
	.st23{fill:#FFF2E2;}
	.st24{fill:#FFF2E2;stroke:#72342E;stroke-width:0.75;stroke-miterlimit:10;}
	.st25{fill:#FFCC99;}
	.st26{fill:#469CB2;}
	.st27{fill:url(#XMLID_00000142158449089454240020000000217714368170310803_);}
	.st28{fill:url(#XMLID_00000165231086999272974640000013750879223768142778_);}
	.st29{fill:url(#XMLID_00000137845375235739551980000002162825974823967121_);}
	.st30{fill:url(#XMLID_00000124880823834772127790000006192526871230826921_);}
	.st31{fill:url(#XMLID_00000013157782698161446560000015156073122153989286_);}
	.st32{fill:url(#XMLID_00000028286734004305957110000004339565924538567615_);}
	.st33{fill:url(#XMLID_00000106121508664473532570000016325027041543771802_);}
	.st34{fill:url(#XMLID_00000033350022127297398940000008054287666204105654_);}
	.st35{fill:url(#XMLID_00000083048269259519731930000013253690219561499267_);}
	.st36{fill:url(#XMLID_00000183242516461405642460000014878800361622355132_);}
	.st37{fill:url(#XMLID_00000049190528653336635020000008512409209006669185_);}
	.st38{fill:url(#XMLID_00000169536321226250079310000017525122933775557814_);}
	.st39{fill:url(#XMLID_00000085963854598758044260000012507824554466998975_);}
	.st40{fill:url(#XMLID_00000111158637870254953580000011384225157480182948_);}
	.st41{fill:url(#XMLID_00000109023528987047382960000009457868039695733924_);}
	.st42{fill:url(#SVGID_00000085215405469856116330000002201876778272342425_);}
	.st43{fill:url(#SVGID_00000026883672500919561590000017903722588554993281_);}
	.st44{fill:url(#SVGID_00000102534177087017233100000017961821933300788879_);}
	.st45{fill:url(#SVGID_00000047777213332528394370000004264533277568809347_);}
	.st46{fill:url(#SVGID_00000050652906412254771920000001899205451985717677_);}
	.st47{fill:url(#SVGID_00000177486024831527653090000005960446994205147781_);}
	.st48{fill:url(#SVGID_00000062171039080640016100000003844068907549760660_);}
	.st49{fill:url(#SVGID_00000172401341755987088050000016306469181773278106_);}
	.st50{fill:url(#SVGID_00000021100595199513936780000011426647086527580334_);}
	.st51{fill:url(#SVGID_00000174592079872692146070000015814175362342631092_);}
	.st52{fill:url(#SVGID_00000040535494708098978330000009300716435250446255_);}
	.st53{fill:url(#SVGID_00000130619184078434732020000017710307508243218593_);}
	.st54{fill:url(#SVGID_00000083048614657320028460000006618415410469431966_);}
	.st55{fill:url(#SVGID_00000161605405244565516330000000455202746459122616_);}
	.st56{fill:#30325E;}
	.st57{fill:#FF7859;}
	.st58{fill:#FFD550;}
	.st59{fill:#00C3AD;}
	.st60{fill:#FF4653;}
	.st61{fill:#D8CE19;}
	.st62{fill:#C1E5DE;}
	.st63{fill:#FFE4D2;}
	.st64{fill:#DFF4F0;}
	.st65{fill:#A2E0EB;}
	.st66{fill:#1B3493;}
	.st67{fill:none;stroke:#FFFFFF;stroke-width:2;stroke-linecap:round;stroke-linejoin:round;stroke-miterlimit:10;}
	.st68{fill:#F15A24;}
	.st69{fill:#F7931E;}
	.st70{fill:#58595B;}
	.st71{fill:#114E15;}
	.st72{fill:#013D01;}
	.st73{fill:#E9C608;}
	.st74{fill:#043B00;}
	.st75{fill:#D8A43E;}
	.st76{clip-path:url(#SVGID_00000083053991389872436410000004528673487451660223_);}
	.st77{fill:#F49630;}
	.st78{clip-path:url(#SVGID_00000089534623892073811720000013274337791162631314_);}
	.st79{clip-path:url(#SVGID_00000119797495172505085670000006670954878601371324_);}
	.st80{clip-path:url(#SVGID_00000016076221649891039710000018256060340957954226_);}
	.st81{clip-path:url(#SVGID_00000007403350061397164570000005747970122550662794_);}
	.st82{fill-rule:evenodd;clip-rule:evenodd;fill:#FF6600;}
	.st83{fill-rule:evenodd;clip-rule:evenodd;fill:#05174F;}
	.st84{fill:#05174F;}
	.st85{opacity:0.42;fill:url(#SVGID_00000078043011553103185210000012765167745580195215_);enable-background:new    ;}
	.st86{opacity:0.42;fill:url(#SVGID_00000090281241363320104170000008372572460059505547_);enable-background:new    ;}
	.st87{fill:url(#SVGID_00000013157730304830135580000003863483896570565034_);}
	.st88{fill:url(#SVGID_00000059272214008201450660000000283240060082685602_);}
	.st89{opacity:0.64;fill:url(#SVGID_00000014620891465770214490000010062644713719317940_);enable-background:new    ;}
	.st90{opacity:0.75;fill:url(#SVGID_00000008143971329054563010000016001297923599777683_);enable-background:new    ;}
	.st91{fill:url(#SVGID_00000120560630447750352100000002365060536666097850_);}
	.st92{fill:url(#SVGID_00000156567218921196520700000014852907737751166616_);}
	.st93{opacity:0.76;fill:url(#SVGID_00000125577743487837413490000011781257875482159782_);enable-background:new    ;}
	.st94{opacity:0.75;fill:url(#SVGID_00000018211865058361141100000005726172164414809240_);enable-background:new    ;}
	.st95{fill:url(#SVGID_00000127020127404460719190000004031282847367112620_);}
	.st96{opacity:0.42;fill:url(#SVGID_00000040564893655337880030000005355888472916518561_);enable-background:new    ;}
	.st97{opacity:0.42;fill:url(#SVGID_00000059310902619646613420000002598274242678702006_);enable-background:new    ;}
	.st98{clip-path:url(#SVGID_00000075847808532907978200000010923372659145245083_);}
	.st99{fill:#1ED7FE;}
	.st100{clip-path:url(#SVGID_00000124846782858419346610000001986786246164439453_);}
	.st101{clip-path:url(#SVGID_00000003069238949390212790000017537753287362673795_);}
	.st102{fill:#000056;}
	.st103{clip-path:url(#SVGID_00000094590407200911522190000004726314981382883997_);}
	.st104{enable-background:new    ;}
	.st105{fill:#053272;}
	.st106{fill:none;stroke:#053272;stroke-width:4;stroke-miterlimit:10;}
	.st107{fill:url(#SVGID_00000101806745089295456080000006816830884227034524_);}
	.st108{fill:url(#SVGID_00000059275956105413704820000004270030002209294729_);}
	.st109{fill:url(#SVGID_00000127731806590392649270000010595731519274545814_);}
	.st110{fill:url(#SVGID_00000177449655082224179800000006362298594504757918_);}
	.st111{fill:url(#SVGID_00000033358645217269183570000018116918796747305638_);}
	.st112{fill:url(#SVGID_00000048502347103635215320000003195688339453510561_);}
	.st113{fill:url(#SVGID_00000167360623022930625300000005079852472692064650_);}
	.st114{fill:url(#SVGID_00000093176677444019126160000003974362419060558731_);}
	.st115{fill:url(#SVGID_00000152984806237063351110000011802234540087896194_);}
	.st116{fill:url(#SVGID_00000009583250799150544930000002019488972257564825_);}
	.st117{fill:url(#SVGID_00000071547336658943932370000008102845591332190907_);}
	.st118{fill:url(#SVGID_00000147188072625181233780000016270889733710955173_);}
	.st119{fill:url(#SVGID_00000125566180515274131010000000510035104886759813_);}
	.st120{fill:url(#SVGID_00000030448271111724636200000013917808039697580952_);}
	.st121{fill:url(#SVGID_00000056385701709461006090000004045775918316888706_);}
	.st122{fill:url(#SVGID_00000051376572325584528800000010256289852567110829_);}
	.st123{fill:url(#SVGID_00000168079757398219706120000010340919573397941915_);}
	.st124{fill:url(#SVGID_00000078744915245968130270000010467730553452931751_);}
	.st125{fill:url(#SVGID_00000021831533736339528970000014462348684876765106_);}
	.st126{fill:url(#SVGID_00000011033710921587521310000003953930996868224918_);}
	.st127{fill:url(#SVGID_00000152955398369327222720000009387713033809467809_);}
	.st128{fill:url(#SVGID_00000155137400065170251780000004672571904140576656_);}
	.st129{fill:url(#SVGID_00000096738585489078906480000009846812070680222608_);}
	.st130{fill:url(#SVGID_00000005945311217915860620000014867987147027354004_);}
	.st131{fill:url(#SVGID_00000176035179459137999880000010982372944894355351_);}
	.st132{fill:url(#SVGID_00000105423754144331372150000014757783608311087768_);}
	.st133{fill:url(#SVGID_00000165198820436301345650000005761659618201665157_);}
	.st134{fill:url(#SVGID_00000175295608153732682570000016018123068285804163_);}
	.st135{fill:url(#SVGID_00000041998119831099642830000010098174713049972364_);}
	.st136{fill:none;stroke:#FEF73D;stroke-linecap:round;stroke-miterlimit:10;}
	.st137{fill:none;stroke:#FF189C;stroke-miterlimit:10;}
	.st138{fill:none;stroke:#00EFF1;stroke-linecap:round;stroke-miterlimit:10;}
	.st139{fill:#00EFF1;}
	.st140{fill:#FFA022;}
	.st141{fill:#0C103A;}
	.st142{fill-rule:evenodd;clip-rule:evenodd;fill:#5D9541;}
	.st143{fill-rule:evenodd;clip-rule:evenodd;fill:#F06021;}
	.st144{fill-rule:evenodd;clip-rule:evenodd;fill:#69BC60;}
	.st145{fill-rule:evenodd;clip-rule:evenodd;fill:#F6951C;}
	.st146{fill:#F6951C;}
	.st147{fill:url(#SVGID_00000085932318620700966550000017144846679217880461_);}
	.st148{fill:url(#SVGID_00000134938098087920184770000004138890839713774751_);}
	.st149{fill:url(#SVGID_00000111160818397497115900000009921446324147467910_);}
	.st150{opacity:0.93;fill:url(#SVGID_00000075149830475460337340000013430499302406236056_);}
	.st151{opacity:0.93;fill:url(#SVGID_00000032646639056053410970000014554846568977954976_);}
	.st152{opacity:0.93;fill:url(#SVGID_00000025444331577358693320000011066866266441717916_);}
	.st153{opacity:0.93;fill:url(#SVGID_00000100345052313692616090000017604040687165023881_);}
	.st154{fill:url(#SVGID_00000099626535605310235610000004378107659782012847_);}
	.st155{fill:url(#SVGID_00000132795089443053213750000012001849572728582308_);}
	.st156{fill:url(#SVGID_00000082359443259820712760000010925251962642175620_);}
	.st157{fill:url(#SVGID_00000011747949058600284730000003982310921592392371_);}
	.st158{fill:url(#SVGID_00000103244290788893775420000016436428376654424978_);}
	.st159{fill:url(#SVGID_00000096766898991674723550000011936125096969364373_);}
	.st160{fill:url(#SVGID_00000052819835808362108540000018142644419689291450_);}
	.st161{fill:url(#SVGID_00000017499370415284091420000006982115796386603179_);}
	.st162{fill:url(#SVGID_00000102544907826399108700000000013354002521060011_);}
	.st163{fill:url(#SVGID_00000018210181425269943300000017224195777450197437_);}
	.st164{fill:url(#SVGID_00000108277491158599221470000005374788617789280676_);}
	.st165{fill:url(#SVGID_00000049943532161358454270000006666538087034368688_);}
	.st166{fill:url(#SVGID_00000075844078327395028310000007844474204100329345_);}
	.st167{fill:url(#SVGID_00000183953008875015912690000007414816808319857336_);}
	.st168{fill:url(#SVGID_00000064328087314470062910000015955257530093007770_);}
	.st169{fill:url(#SVGID_00000165221007735063937270000002287317660083069335_);}
	.st170{fill:url(#SVGID_00000075152056827341990840000005156707818857221550_);}
	.st171{fill:url(#SVGID_00000127766804379007094000000004063454790660249781_);}
	.st172{fill:url(#SVGID_00000150099421939741275230000011039332024346689668_);}
	.st173{fill:url(#SVGID_00000003103668525756712630000016729756236958708642_);}
	.st174{fill:url(#SVGID_00000178921998501172469300000012375942736425781127_);}
	.st175{fill:url(#SVGID_00000056397023098234567360000011487134268650898067_);}
	.st176{fill:url(#SVGID_00000066513670433177846510000014439853059524235916_);}
	.st177{fill:url(#SVGID_00000045613219974579195010000003288884499568715907_);}
	.st178{fill:url(#SVGID_00000047777557229349892460000011880476081600552842_);}
	.st179{fill:url(#SVGID_00000139281307910726217750000006862816179260349589_);}
	.st180{fill:url(#SVGID_00000000930900171408800330000001031931885444844465_);}
	.st181{fill:url(#SVGID_00000038411490430415951870000017291265043044936379_);}
	.st182{fill:url(#SVGID_00000170968018969924395520000006427288047914357936_);}
	.st183{fill:url(#SVGID_00000069358623269425459800000015044184451818413720_);}
	.st184{fill:url(#SVGID_00000166642492322113219110000004821835774432624267_);}
	.st185{fill:url(#SVGID_00000046340013667986924690000012436440626298315149_);}
	.st186{fill:url(#SVGID_00000043444751620999050870000010129658439528038844_);}
	.st187{fill:url(#SVGID_00000000937739059174486280000006520764218522295193_);}
	.st188{fill:url(#SVGID_00000053518295464006384450000008945650056796095407_);}
	.st189{fill:url(#SVGID_00000047035830364671577190000018323765969732466080_);}
	.st190{fill:url(#SVGID_00000081631063125145734670000012107639981433905301_);}
	.st191{fill:url(#SVGID_00000117650034597457139760000013269000402025294999_);}
	.st192{fill:url(#SVGID_00000065790677913100689330000017203801462327265453_);}
	.st193{fill:url(#SVGID_00000127746707265336743040000017411004558626993028_);}
	.st194{fill:url(#SVGID_00000123421290343054436270000011985707705070517130_);}
	.st195{fill:url(#SVGID_00000146481255502879277220000009974807532593759387_);}
	.st196{fill:url(#SVGID_00000018943590917237080210000002789631165681887117_);}
	.st197{fill:url(#SVGID_00000117656334084077077480000005836381206487906702_);}
	.st198{fill:url(#SVGID_00000014595044075347229190000005159869453971974784_);}
	.st199{fill-rule:evenodd;clip-rule:evenodd;fill:#512100;}
	.st200{fill-rule:evenodd;clip-rule:evenodd;fill:#006D62;}
	.st201{fill-rule:evenodd;clip-rule:evenodd;}
	.st202{fill-rule:evenodd;clip-rule:evenodd;fill:#00A1F5;}
	.st203{fill-rule:evenodd;clip-rule:evenodd;fill:#FACFAB;}
	.st204{fill-rule:evenodd;clip-rule:evenodd;fill:#F29673;}
	.st205{fill-rule:evenodd;clip-rule:evenodd;fill:#FFFFFF;}
	.st206{fill-rule:evenodd;clip-rule:evenodd;fill:#333333;}
	.st207{fill-rule:evenodd;clip-rule:evenodd;fill:#BD4D00;}
	.st208{fill-rule:evenodd;clip-rule:evenodd;fill:#B2B2B2;}
	.st209{fill-rule:evenodd;clip-rule:evenodd;fill:#F2CC29;}
	.st210{fill-rule:evenodd;clip-rule:evenodd;fill:#005C9C;}
	.st211{fill-rule:evenodd;clip-rule:evenodd;fill:#8AC900;}
	.st212{fill-rule:evenodd;clip-rule:evenodd;fill:#808080;}
	.st213{fill-rule:evenodd;clip-rule:evenodd;fill:#CFA605;}
	.st214{fill-rule:evenodd;clip-rule:evenodd;fill:#666666;}
	.st215{fill-rule:evenodd;clip-rule:evenodd;fill:#CCCCCC;}
	.st216{fill:#960000;}
	.st217{fill:url(#SVGID_00000128452083487834415650000009437672831182204800_);}
	.st218{fill:url(#SVGID_00000051378033377824382360000007500923652647713155_);}
	.st219{opacity:0.51;fill:url(#SVGID_00000119796203714427823640000003337101922044433326_);}
	.st220{fill:url(#SVGID_00000005988646403385532430000008971661241960405921_);}
	.st221{fill:url(#SVGID_00000114050215740843791890000002600826839769889215_);}
	.st222{fill:url(#SVGID_00000021806635719143920640000015318368006807699102_);}
	.st223{opacity:0.35;fill:url(#SVGID_00000100353029703307375820000002917351417764735388_);}
	.st224{opacity:0.35;fill:url(#SVGID_00000039100677249108187770000004736712173579250588_);}
	.st225{fill:#F06021;}
	.st226{fill-rule:evenodd;clip-rule:evenodd;fill:url(#SVGID_00000077325039551902887590000009494240647094699441_);}
	.st227{fill-rule:evenodd;clip-rule:evenodd;fill:url(#SVGID_00000134230163191169453990000006873029964433910955_);}
	.st228{fill-rule:evenodd;clip-rule:evenodd;fill:url(#SVGID_00000128463161353647006390000011874755714153168513_);}
	.st229{fill-rule:evenodd;clip-rule:evenodd;fill:url(#SVGID_00000047041024106700008090000017005739473418916280_);}
	.st230{fill-rule:evenodd;clip-rule:evenodd;fill:url(#SVGID_00000094609597611247353450000012648100691594131601_);}
	.st231{fill-rule:evenodd;clip-rule:evenodd;fill:url(#SVGID_00000070096876263190010540000012892011703453237155_);}
	.st232{fill-rule:evenodd;clip-rule:evenodd;fill:url(#SVGID_00000031169556308524677520000000650603257343766934_);}
	.st233{fill-rule:evenodd;clip-rule:evenodd;fill:url(#SVGID_00000036938401140503662670000014687909284425336453_);}
	.st234{fill-rule:evenodd;clip-rule:evenodd;fill:url(#SVGID_00000155835307708350101430000001045560559390232507_);}
	.st235{fill-rule:evenodd;clip-rule:evenodd;fill:url(#SVGID_00000110440661425233210860000007742500076266548654_);}
	.st236{fill-rule:evenodd;clip-rule:evenodd;fill:url(#SVGID_00000144315375204150591070000013053251271388758707_);}
	.st237{fill-rule:evenodd;clip-rule:evenodd;fill:url(#SVGID_00000168101554487257962050000015169175879496105104_);}
	.st238{fill-rule:evenodd;clip-rule:evenodd;fill:url(#SVGID_00000090991485713342345380000015334299745507669413_);}
	.st239{opacity:0.5;fill-rule:evenodd;clip-rule:evenodd;fill:#5D0101;enable-background:new    ;}
	.st240{fill:#E11B22;}
	.st241{fill:#959595;}
	.st242{fill:#003359;}
	.st243{fill:#1779C1;}
	.st244{fill:#0EB17C;}
	.st245{fill:#2B2353;}
	.st246{fill:#BE264E;}
	.st247{fill:#EAA41C;}
	.st248{fill:#1F9EF3;}
	.st249{fill:#0267A3;}
	.st250{fill:#FFEC00;}
	.st251{fill:#00A0E0;}
	.st252{fill:#E3007E;}
	.st253{fill:none;stroke:#000000;stroke-width:2;stroke-miterlimit:10;}
	.st254{fill:#FF9E80;}
	.st255{fill:#414151;}
	.st256{fill:#2B295E;}
	.st257{fill:#CCCCCC;}
	.st258{fill:#FF8C5C;}
	.st259{fill:#DBA21C;}
	.st260{fill:#EDDBB2;}
	.st261{fill:#DEC58B;}
	.st262{fill:#997113;}
	.st263{fill:#B88817;}
	.st264{fill:#003400;stroke:#8EC13D;stroke-width:4;stroke-miterlimit:10;}
	.st265{fill:#8EC13D;}
	.st266{fill:url(#XMLID_00000129917149187623232220000006433758853310239931_);}
	.st267{fill:url(#SVGID_00000139274453770079105010000015450511715623978884_);}
	.st268{fill:url(#SVGID_00000119795907520923740120000015517020139365223817_);}
	.st269{fill:url(#SVGID_00000014592482439715602840000006352901904806169777_);}
	.st270{fill:url(#SVGID_00000072974311164541890410000015751785429125134732_);}
	.st271{fill:url(#SVGID_00000148649837093482077150000004587041745043001773_);}
	.st272{fill:url(#SVGID_00000013177783346477239660000007253330707765863345_);}
	.st273{fill:url(#SVGID_00000126283192258118318710000012544727459362367631_);}
	.st274{fill:url(#SVGID_00000066509516801774331760000012637487028905904291_);}
	.st275{fill:url(#SVGID_00000071554002406800453460000013549806885129239482_);}
	.st276{fill:url(#SVGID_00000049222813335163040030000006108821715292439460_);}
	.st277{fill:url(#SVGID_00000099662841456860586960000008972323314426159295_);}
	.st278{fill:#1C75BC;}
	.st279{fill:#46920C;}
	.st280{fill:#FF9400;}
	.st281{fill:url(#SVGID_00000106837070843931700090000011210478140958721435_);}
	.st282{fill:url(#SVGID_00000023244588509398790470000003566867074108210075_);}
	.st283{fill:url(#SVGID_00000127757560743356370180000012007829515255948457_);}
	.st284{fill:url(#SVGID_00000114788222721042479800000006112987932860108701_);}
	.st285{fill:url(#SVGID_00000160906015530768732470000015745847183650558387_);}
	.st286{fill:url(#SVGID_00000101079260872743385200000000616789762504917888_);}
	.st287{fill:url(#SVGID_00000106854501094736251550000015824274718889552057_);}
	.st288{fill:url(#SVGID_00000181059979140838876950000006723101675771631546_);}
	.st289{fill:url(#SVGID_00000014621107903568813540000015671953835762344096_);}
	.st290{fill:url(#SVGID_00000101098126199174893600000008666611982450338201_);}
	.st291{fill:url(#SVGID_00000102524042696316251850000015242369168256755330_);}
	.st292{fill:url(#SVGID_00000016758530242960331770000000245983268362770600_);}
	.st293{fill:url(#SVGID_00000021806737428383815080000000258893953391910326_);}
	.st294{fill:url(#SVGID_00000137132513891060937730000008290455993642017702_);}
	.st295{fill:url(#SVGID_00000156575124910981170130000009813481873758016692_);}
	.st296{fill:url(#SVGID_00000055679175958230898990000007392411496158625159_);}
	.st297{fill:url(#SVGID_00000150076539885163376640000017348405977054229408_);}
	.st298{fill:url(#SVGID_00000140722512908181010080000011868963260888441768_);}
	.st299{fill:url(#SVGID_00000027593752631883649300000018156717633802422417_);}
	.st300{fill:#2F3F67;}
	.st301{fill:#C97F32;}
	.st302{fill:none;stroke:#C97F32;stroke-width:1.2891;stroke-miterlimit:10;}
	.st303{fill:url(#XMLID_00000152959661288060679890000013732151177343299746_);}
	.st304{fill:#00548B;}
	.st305{fill:#004368;}
	.st306{fill:#94070A;}
	.st307{fill:url(#XMLID_00000169555087114770732060000005020424242351101878_);}
	.st308{fill:url(#XMLID_00000048468177058858246540000009022156616976434088_);}
	.st309{fill:#B34A06;}
	.st310{fill:#A2B5C4;}
	.st311{fill:#192940;}
</style>
<g>
	<g>
		<g>
			<path class="st309" d="M232.82,142.16c-6.32,0-12.5,0-18.6,0c0-21.59,0-43.2,0-64.73c5.72-1.7,11.28-1.75,16.88-0.52
				c1.89,0.42,1.86,0.44,1.86,2.37C232.91,100.25,232.85,121.18,232.82,142.16z"/>
			<path class="st310" d="M111.55,117.27c45.03-11.48,86.09-37.49,118.6-70.41c-2.27-1.5-4.37-2.89-6.52-4.31
				c7.4-3.39,14.74-6.74,22.13-10.12c-1.33,7.11-2.65,14.14-3.99,21.29c-1.72-0.96-3.61-1.87-5.29-2.95
				c-0.61-0.42-0.99-0.3-1.5,0.22c-2.98,3.06-5.91,6.18-9.05,9.07c-31.18,29.68-70.78,53.56-114.44,57.06
				C111.53,117.17,111.54,117.22,111.55,117.27z"/>
			<path class="st311" d="M236.12,61.45c3.98,0,7.85,0,11.81,0c0,26.86,0,53.75,0,80.7c-3.98,0-7.91,0-11.81,0
				C236.12,115.25,236.12,88.39,236.12,61.45z"/>
			<path class="st311" d="M208.81,142.14c-6.25,0-12.43,0-18.65,0c0-14.18,0-28.3,0.03-42.48c0-0.25,0.35-0.64,0.62-0.74
				c5.81-2.36,12.07-1.59,18-0.21C208.81,113.3,208.81,127.67,208.81,142.14z"/>
			<path class="st311" d="M161.8,131.61c0,3.15-0.02,6.3,0.01,9.45c0.01,0.74-0.19,1-0.99,1c-4.95-0.04-9.89-0.03-14.84-0.01
				c-0.74,0-1.02-0.16-1.01-0.97c0.22-6.02-0.34-12.1,0.35-18.08c0.31-4.39,13.65-3.67,16.27-1.88c0.79,3.26,0.08,7.06,0.31,10.48
				C161.86,131.61,161.83,131.61,161.8,131.61z"/>
			<path class="st309" d="M139.29,142.06c-5.77,0-11.55,0-17.31,0c0-5.09,0-10.09,0-15.14c5.43-1.54,11.35-1.55,16.77,0.06
				c0.52,0.16,0.71,0.38,0.7,0.91C139.34,132.61,139.58,137.4,139.29,142.06z"/>
			<path class="st311" d="M161.67,142.1h-16.89v-21.32c5.6-1.64,11.56-1.65,17.2-0.17L161.67,142.1z"/>
			<path class="st309" d="M184.53,142.1h-16.89v-31.19c5.69-2.4,11.45-2.42,17.2-0.25L184.53,142.1z"/>
		</g>
		<g>
			<rect x="100.07" y="193.05" class="st309" width="56.12" height="2.52"/>
		</g>
		<g>
			<path class="st309" d="M167.27,195.4l-1.91-2.23c-0.09,0.24-0.18,0.42-0.25,0.55c-0.21,0.54-0.58,0.98-1.11,1.31
				c-0.53,0.33-1.15,0.49-1.85,0.49c-0.79,0-1.48-0.16-2.08-0.49c-0.59-0.33-1.05-0.78-1.37-1.35c-0.32-0.57-0.48-1.22-0.48-1.95
				c0-0.72,0.14-1.35,0.42-1.89c0.28-0.54,0.65-0.96,1.13-1.26c0.48-0.3,1.01-0.46,1.6-0.49l-0.21-0.32
				c-0.24-0.33-0.42-0.66-0.55-0.98c-0.13-0.32-0.19-0.69-0.19-1.09c0-0.51,0.13-0.98,0.4-1.42c0.26-0.44,0.66-0.8,1.18-1.07
				c0.52-0.27,1.15-0.41,1.88-0.41c1.05,0,1.86,0.24,2.43,0.71c0.57,0.47,0.94,1.08,1.1,1.82c0.12,0.35,0.18,0.73,0.18,1.13
				l-0.02,0.34h-2.31c0-0.29-0.01-0.49-0.04-0.6c-0.01-0.42-0.13-0.75-0.35-0.98c-0.22-0.23-0.54-0.34-0.94-0.34
				c-0.37,0-0.65,0.11-0.87,0.32c-0.21,0.21-0.32,0.47-0.32,0.78c0,0.27,0.05,0.51,0.16,0.71c0.11,0.2,0.28,0.45,0.53,0.74
				l6.34,7.99H167.27z M163.41,192.97c0.32-0.31,0.49-0.72,0.49-1.21c0-0.52-0.19-0.95-0.56-1.29c-0.37-0.34-0.81-0.51-1.32-0.51
				c-0.48,0-0.88,0.15-1.19,0.44c-0.31,0.29-0.47,0.71-0.47,1.25c0,0.54,0.17,0.97,0.52,1.3c0.35,0.32,0.77,0.49,1.28,0.49
				C162.67,193.44,163.08,193.28,163.41,192.97z"/>
			<path class="st309" d="M182.57,182.93v1.98h-5.25v3.34h4.2v1.91h-4.2v5.25h-2.49v-12.47H182.57z"/>
			<path class="st309" d="M186.73,182.93v12.47h-2.49v-12.47H186.73z"/>
			<path class="st309" d="M199.56,195.4h-2.49l-5.58-8.48v8.48H189v-12.47h2.49l5.58,8.55v-8.55h2.49V195.4z"/>
			<path class="st309" d="M209.42,192.89h-5l-0.88,2.51h-2.63l4.59-12.33h2.84l4.58,12.33h-2.63L209.42,192.89z M208.75,191
				l-1.84-5.26l-1.84,5.26H208.75z"/>
			<path class="st309" d="M224.82,195.4h-2.49l-5.58-8.48v8.48h-2.49v-12.47h2.49l5.58,8.55v-8.55h2.49V195.4z"/>
			<path class="st309" d="M236.59,184c1.02,0.8,1.7,1.89,2.03,3.27h-2.61c-0.27-0.67-0.69-1.2-1.26-1.59
				c-0.57-0.39-1.26-0.58-2.06-0.58c-0.66,0-1.25,0.17-1.78,0.5c-0.53,0.33-0.94,0.8-1.24,1.41c-0.29,0.61-0.44,1.33-0.44,2.16
				c0,0.81,0.15,1.53,0.44,2.14c0.29,0.61,0.71,1.08,1.24,1.41c0.53,0.33,1.12,0.49,1.78,0.49c0.8,0,1.49-0.19,2.06-0.58
				c0.57-0.39,0.99-0.92,1.26-1.59h2.61c-0.33,1.38-1.01,2.47-2.03,3.27c-1.02,0.8-2.31,1.2-3.87,1.2c-1.19,0-2.24-0.27-3.15-0.8
				c-0.91-0.54-1.62-1.29-2.12-2.25c-0.5-0.97-0.75-2.06-0.75-3.29c0-1.24,0.25-2.34,0.75-3.3c0.5-0.97,1.2-1.72,2.11-2.25
				c0.91-0.54,1.96-0.8,3.16-0.8C234.27,182.8,235.56,183.2,236.59,184z"/>
			<path class="st309" d="M242.98,184.9v3.23h4.42v1.91h-4.42v3.36h4.95v2h-7.44v-12.47h7.44v1.98H242.98z"/>
		</g>
	</g>
	<g>
		<path class="st311" d="M105.12,150.23v27.34h-5.05v-27.34H105.12z"/>
		<path class="st311" d="M122.83,177.56h-5.05l-5.34-13.74v13.74h-5.05v-27.34h5.05l5.34,13.98v-13.98h5.05V177.56z"/>
		<path class="st311" d="M129.33,150.23l3.32,18.8l3.3-18.8h5.37l-5.41,27.34h-6.53l-5.41-27.34H129.33z"/>
		<path class="st311" d="M147.5,157.02v3.4h5v6.45h-5v3.86h5.68v6.83h-10.73v-27.34h10.73v6.8H147.5z"/>
		<path class="st311" d="M166.81,173.74c-0.48,1.26-1.17,2.26-2.08,2.99c-0.91,0.73-1.99,1.1-3.25,1.1c-1.93,0-3.51-0.77-4.76-2.3
			c-1.25-1.53-1.93-3.78-2.04-6.74h5.37c0.08,1.57,0.49,2.36,1.23,2.36c0.26,0,0.47-0.11,0.63-0.35s0.24-0.57,0.24-1
			c0-0.64-0.19-1.15-0.58-1.53c-0.39-0.37-1.01-0.8-1.88-1.29c-1.02-0.57-1.86-1.15-2.54-1.74c-0.67-0.59-1.26-1.47-1.76-2.62
			c-0.5-1.16-0.75-2.67-0.75-4.52c0-1.78,0.27-3.29,0.81-4.54c0.54-1.25,1.27-2.19,2.21-2.84c0.93-0.64,1.98-0.96,3.15-0.96
			c1.92,0,3.46,0.76,4.59,2.28c1.14,1.52,1.76,3.71,1.86,6.56h-5.43c-0.08-1.44-0.42-2.16-1.05-2.16c-0.21,0-0.39,0.11-0.52,0.33
			c-0.14,0.22-0.2,0.55-0.2,0.98c0,0.59,0.19,1.07,0.58,1.45c0.39,0.37,0.99,0.8,1.81,1.29c1.03,0.62,1.88,1.23,2.56,1.83
			c0.67,0.6,1.27,1.49,1.77,2.66c0.51,1.17,0.76,2.67,0.76,4.5C167.53,171.06,167.29,172.48,166.81,173.74z"/>
		<path class="st311" d="M181.95,150.23v6.8h-4.27v20.54h-5.05v-20.54h-4.23v-6.8H181.95z"/>
		<path class="st311" d="M202.66,150.23v27.34h-5.02v-13.63l-2.48,13.63h-4.32l-2.48-13.63v13.63h-5.05v-27.34h6.18l3.55,16.41
			l3.46-16.41H202.66z"/>
		<path class="st311" d="M209.98,157.02v3.4h5v6.45h-5v3.86h5.68v6.83h-10.73v-27.34h10.73v6.8H209.98z"/>
		<path class="st311" d="M233.01,177.56h-5.05l-5.34-13.74v13.74h-5.05v-27.34h5.05l5.34,13.98v-13.98h5.05V177.56z"/>
		<path class="st311" d="M247.93,150.23v6.8h-4.27v20.54h-5.05v-20.54h-4.23v-6.8H247.93z"/>
	</g>
</g>
</svg>
