<?xml version="1.0" encoding="utf-8"?>
<!-- Generator: Adobe Illustrator 27.8.1, SVG Export Plug-In . SVG Version: 6.00 Build 0)  -->
<svg version="1.1" id="Layer_1" xmlns="http://www.w3.org/2000/svg" xmlns:xlink="http://www.w3.org/1999/xlink" x="0px" y="0px"
	 viewBox="0 0 348 228" style="enable-background:new 0 0 348 228;" xml:space="preserve">
<style type="text/css">
	.st0{fill:#D6EADE;}
	.st1{fill:#03487C;}
	.st2{fill:#1B1B4C;}
	.st3{fill:none;}
	.st4{fill-rule:evenodd;clip-rule:evenodd;fill:#204F7A;}
	.st5{fill-rule:evenodd;clip-rule:evenodd;fill:#50A4FF;}
	.st6{fill:#002649;}
	.st7{fill:#E6E7E8;stroke:#CFCFCF;stroke-width:0.1061;}
	.st8{fill:#333333;}
	.st9{fill-rule:evenodd;clip-rule:evenodd;fill:#277FC1;}
	.st10{fill-rule:evenodd;clip-rule:evenodd;fill:#083D6D;}
	.st11{fill:#DDB462;}
	
		.st12{clip-path:url(#SVGID_00000122704646022938019860000015412425655789766072_);fill:url(#SVGID_00000073695632937625439540000012652910718780939402_);}
	.st13{fill:#FFFFFF;}
	.st14{fill:url(#SVGID_00000124163803415686333260000010725688658430507904_);}
	.st15{fill:#224685;}
	.st16{fill:#FFC73B;}
	.st17{fill:#11233F;}
	.st18{fill:#5267FF;}
	.st19{fill-rule:evenodd;clip-rule:evenodd;fill:#72342E;}
	.st20{fill:#72342E;}
	.st21{fill:#FFF2E2;}
	.st22{fill:#FFF2E2;stroke:#72342E;stroke-width:0.75;stroke-miterlimit:10;}
	.st23{fill:#FFCC99;}
	.st24{fill:#469CB2;}
	.st25{fill:url(#XMLID_00000032620011567590148280000014248077410682291586_);}
	.st26{fill:url(#XMLID_00000138549900810524031730000009199965900860941968_);}
	.st27{fill:url(#XMLID_00000024708458030970356390000011285798048425074818_);}
	.st28{fill:url(#XMLID_00000164508032341309206400000013544612684748360351_);}
	.st29{fill:url(#XMLID_00000179639994731305559970000010257225253678066061_);}
	.st30{fill:url(#XMLID_00000042703803857316268750000007095473239070332553_);}
	.st31{fill:url(#XMLID_00000096763604353640568220000006315331356059179430_);}
	.st32{fill:url(#XMLID_00000069396446577158633880000009192521078298552217_);}
	.st33{fill:url(#XMLID_00000178190226080805560780000015949945010010362523_);}
	.st34{fill:url(#XMLID_00000137834225938110433550000012244576038658695598_);}
	.st35{fill:url(#XMLID_00000173866733247354551780000005969610306364920213_);}
	.st36{fill:url(#XMLID_00000012465686952423612030000000415822923596832144_);}
	.st37{fill:url(#XMLID_00000047045981460819022700000015533421996685969794_);}
	.st38{fill:url(#XMLID_00000069357986475083085210000011333106831552494006_);}
	.st39{fill:url(#XMLID_00000163051972154034251740000009954121121687103417_);}
	.st40{fill:url(#SVGID_00000047757531306516909250000011296440440117269405_);}
	.st41{fill:url(#SVGID_00000029746727184690775610000016998837026225546156_);}
	.st42{fill:url(#SVGID_00000151527373367893274900000002451085243392494231_);}
	.st43{fill:url(#SVGID_00000156564851162487095050000010647093517931693456_);}
	.st44{fill:url(#SVGID_00000126296116948579575040000007810802681671260811_);}
	.st45{fill:url(#SVGID_00000098211044362497224380000009450227107707273135_);}
	.st46{fill:url(#SVGID_00000000217296567470666820000009534159492314723747_);}
	.st47{fill:url(#SVGID_00000040566555428930468380000008276443688357845674_);}
	.st48{fill:url(#SVGID_00000133510086787894472250000009817029899279763874_);}
	.st49{fill:url(#SVGID_00000169539860101899442770000008595006948929274545_);}
	.st50{fill:url(#SVGID_00000036217578894096592400000009625038567499283078_);}
	.st51{fill:url(#SVGID_00000047751004573704748870000011915956800008678836_);}
	.st52{fill:url(#SVGID_00000076589083529420382010000004371497737056038078_);}
	.st53{fill:url(#SVGID_00000164501188682509056800000015892245580949793412_);}
	.st54{fill:#30325E;}
	.st55{fill:#FF7859;}
	.st56{fill:#FFD550;}
	.st57{fill:#00C3AD;}
	.st58{fill:#FF4653;}
	.st59{fill:#D8CE19;}
	.st60{fill:#FFE4D2;}
	.st61{fill:#A2E0EB;}
	.st62{fill:#1B3493;}
	.st63{fill:none;stroke:#FFFFFF;stroke-width:2;stroke-linecap:round;stroke-linejoin:round;stroke-miterlimit:10;}
	.st64{fill:#F15A24;}
	.st65{font-family:'Arial-BoldMT';}
	.st66{font-size:12px;}
	.st67{fill:#F7931E;}
	.st68{fill:#58595B;}
	.st69{fill:#114E15;}
	.st70{fill:#013D01;}
	.st71{fill:#E9C608;}
	.st72{fill:#043B00;}
	.st73{fill:#D8A43E;}
	.st74{clip-path:url(#SVGID_00000157302552599138454480000008642372976112658361_);}
	.st75{fill:#F49630;}
	.st76{clip-path:url(#SVGID_00000103242790280112248180000005366571336763387286_);}
	.st77{clip-path:url(#SVGID_00000028315246832080669520000005583427480480019873_);}
	.st78{clip-path:url(#SVGID_00000112598795036260659820000007865915537723808675_);}
	.st79{clip-path:url(#SVGID_00000083069624595054348120000017386701275148639626_);}
	.st80{fill-rule:evenodd;clip-rule:evenodd;fill:#FF6600;}
	.st81{fill-rule:evenodd;clip-rule:evenodd;fill:#05174F;}
	.st82{fill:#05174F;}
	.st83{opacity:0.42;fill:url(#SVGID_00000084500241830046983920000005504589319648465065_);enable-background:new    ;}
	.st84{opacity:0.42;fill:url(#SVGID_00000066500629679513790490000005680020930291895942_);enable-background:new    ;}
	.st85{fill:url(#SVGID_00000072279252928388142130000009926728382474450575_);}
	.st86{fill:url(#SVGID_00000110446204952114942250000018289900726941981336_);}
	.st87{opacity:0.64;fill:url(#SVGID_00000078760708911925833440000015440300769522703506_);enable-background:new    ;}
	.st88{opacity:0.75;fill:url(#SVGID_00000129902014123691708160000002739967161007160508_);enable-background:new    ;}
	.st89{fill:url(#SVGID_00000115504216505376360260000009193791267910823827_);}
	.st90{fill:url(#SVGID_00000090271003087392780350000009178360796889155238_);}
	.st91{opacity:0.76;fill:url(#SVGID_00000160184052730322479590000015304476232934264192_);enable-background:new    ;}
	.st92{opacity:0.75;fill:url(#SVGID_00000183959113569192068550000017041685734189329331_);enable-background:new    ;}
	.st93{fill:url(#SVGID_00000163753988136229428560000012529641396614612919_);}
	.st94{opacity:0.42;fill:url(#SVGID_00000072994955686178909480000004387872763349806485_);enable-background:new    ;}
	.st95{opacity:0.42;fill:url(#SVGID_00000077310967067589134650000011759902986228382109_);enable-background:new    ;}
	.st96{clip-path:url(#SVGID_00000160191919818954177640000003366588676976067502_);}
	.st97{fill:#1ED7FE;}
	.st98{clip-path:url(#SVGID_00000024002878571826574170000014192204681201413002_);}
	.st99{clip-path:url(#SVGID_00000054262594456828452660000013884557089344990348_);}
	.st100{fill:#000056;}
	.st101{clip-path:url(#SVGID_00000119797483468366021520000011867544467679479728_);}
	.st102{fill:#053272;}
	.st103{fill:none;stroke:#053272;stroke-width:4;stroke-miterlimit:10;}
	.st104{fill:url(#SVGID_00000071542123198505185360000016190382981936546235_);}
	.st105{fill:url(#SVGID_00000168808190763205307910000004632420202003108539_);}
	.st106{fill:url(#SVGID_00000170966273314230277160000016305814142786794943_);}
	.st107{fill:url(#SVGID_00000178917208138269232320000014200711582706840511_);}
	.st108{fill:url(#SVGID_00000112620654738455274770000016826674377828504192_);}
	.st109{fill:url(#SVGID_00000155130243848735288340000001591330524813201543_);}
	.st110{fill:url(#SVGID_00000066501375928839299790000007772135039255730304_);}
	.st111{fill:url(#SVGID_00000054237593015680620900000002055692502735866002_);}
	.st112{fill:url(#SVGID_00000167357562059652032310000015561991427543598260_);}
	.st113{fill:url(#SVGID_00000118375814013971527160000002360048095290725002_);}
	.st114{fill:url(#SVGID_00000157272978746933603870000005562331302090754468_);}
	.st115{fill:url(#SVGID_00000054950578486904147170000018057167481896095367_);}
	.st116{fill:url(#SVGID_00000052784485684777938510000002498119795522833544_);}
	.st117{fill:url(#SVGID_00000039817648426345759560000003264447715525863091_);}
	.st118{fill:url(#SVGID_00000165212572058912469220000007555268345937984695_);}
	.st119{fill:url(#SVGID_00000053525814773513992020000012584164524393091775_);}
	.st120{fill:url(#SVGID_00000042715840170135559960000018146933113621978295_);}
	.st121{fill:url(#SVGID_00000140015546903536318180000006441504461934575020_);}
	.st122{fill:url(#SVGID_00000157279487858291959080000008312823873710011026_);}
	.st123{fill:url(#SVGID_00000109009592675497100280000009691284871272950173_);}
	.st124{fill:url(#SVGID_00000152228236989319572740000009942503224796931465_);}
	.st125{fill:url(#SVGID_00000044166845203919876840000000483730713619685284_);}
	.st126{fill:url(#SVGID_00000067227372674159734680000003675085673375446163_);}
	.st127{fill:url(#SVGID_00000127043885238506470110000005088850502654545334_);}
	.st128{fill:url(#SVGID_00000126320474678434895590000003988996890560211076_);}
	.st129{fill:url(#SVGID_00000101815041959114364400000017999808456764371111_);}
	.st130{fill:url(#SVGID_00000123435430496459237600000003146478818077250690_);}
	.st131{fill:url(#SVGID_00000080899012390071704630000013330187144422212756_);}
	.st132{fill:url(#SVGID_00000163060537337820143250000008901628834929082033_);}
	.st133{fill:none;stroke:#FEF73D;stroke-linecap:round;stroke-miterlimit:10;}
	.st134{fill:none;stroke:#FF189C;stroke-miterlimit:10;}
	.st135{fill:none;stroke:#00EFF1;stroke-linecap:round;stroke-miterlimit:10;}
	.st136{fill:#00EFF1;}
	.st137{fill:#FFA022;}
	.st138{fill:#0C103A;}
	.st139{fill-rule:evenodd;clip-rule:evenodd;fill:#5D9541;}
	.st140{fill-rule:evenodd;clip-rule:evenodd;fill:#F06021;}
	.st141{fill-rule:evenodd;clip-rule:evenodd;fill:#69BC60;}
	.st142{fill-rule:evenodd;clip-rule:evenodd;fill:#F6951C;}
	.st143{fill:#F6951C;}
	.st144{fill:url(#SVGID_00000129201512433483456190000005851405077932317602_);}
	.st145{fill:url(#SVGID_00000001665421712394593510000013335150085650967227_);}
	.st146{fill:url(#SVGID_00000137116975032076880880000017650682684356516504_);}
	.st147{opacity:0.93;fill:url(#SVGID_00000066504237596790922380000006957174121879180938_);}
	.st148{opacity:0.93;fill:url(#SVGID_00000084504825089126097010000009688972437761109424_);}
	.st149{opacity:0.93;fill:url(#SVGID_00000018921511119342281360000009980599989120024241_);}
	.st150{opacity:0.93;fill:url(#SVGID_00000044136721902179153060000001637299288401842318_);}
	.st151{fill:url(#SVGID_00000024705803203331840720000011606809020618633101_);}
	.st152{fill:url(#SVGID_00000055677787149235060130000003546764358427130296_);}
	.st153{fill:url(#SVGID_00000043423210618284226010000013923152735547757956_);}
	.st154{fill:url(#SVGID_00000044870418896849370340000003495489979690363538_);}
	.st155{fill:url(#SVGID_00000055708663471507658410000015395001295344886949_);}
	.st156{fill:url(#SVGID_00000085230877736190272530000005956372961506126999_);}
	.st157{fill:url(#SVGID_00000104704554260238224080000002545615319737314460_);}
	.st158{fill:url(#SVGID_00000002384487727959705450000006600555385455041204_);}
	.st159{fill:url(#SVGID_00000167354137784430376660000000259753494888361372_);}
	.st160{fill:url(#SVGID_00000098190688255252798580000015757204080849163438_);}
	.st161{fill:url(#SVGID_00000092431757293996192650000013770761067368259713_);}
	.st162{fill:url(#SVGID_00000175285730946733297940000009480950069365246646_);}
	.st163{fill:url(#SVGID_00000036931326177020284630000018321248882780725670_);}
	.st164{fill:url(#SVGID_00000139260829438911599090000017651886241114233990_);}
	.st165{fill:url(#SVGID_00000065764423769021760630000015714229277517181339_);}
	.st166{fill:url(#SVGID_00000071525966169016016870000005301016598817415860_);}
	.st167{fill:url(#SVGID_00000047779902734902239830000012347937885485739180_);}
	.st168{fill:url(#SVGID_00000080168950343677761160000015852618286123853194_);}
	.st169{fill:url(#SVGID_00000011729443005426403050000003239133606183545251_);}
	.st170{fill:url(#SVGID_00000174565748783483583830000009979815702544097965_);}
	.st171{fill:url(#SVGID_00000038404068857103294610000016149964789272980410_);}
	.st172{fill:url(#SVGID_00000010301274811150057390000005950536881587918221_);}
	.st173{fill:url(#SVGID_00000142176158674209456700000008595945817050798983_);}
	.st174{fill:url(#SVGID_00000126297690622818614990000010792327813339155619_);}
	.st175{fill:url(#SVGID_00000111182623131207796110000006691546484879531702_);}
	.st176{fill:url(#SVGID_00000106836320334827841400000007342646667632713653_);}
	.st177{fill:url(#SVGID_00000071519503733040226150000011030503215503121287_);}
	.st178{fill:url(#SVGID_00000035518921384337346580000006015082940662927247_);}
	.st179{fill:url(#SVGID_00000113314832228386804190000015085890254032358818_);}
	.st180{fill:url(#SVGID_00000060739510434009691510000003853917008994279067_);}
	.st181{fill:url(#SVGID_00000115510231170611957510000011094920828451613588_);}
	.st182{fill:url(#SVGID_00000085218574438322055720000014865133927764455568_);}
	.st183{fill:url(#SVGID_00000062904789251797240910000011965935155299882918_);}
	.st184{fill:url(#SVGID_00000048489860002702821230000014449384625421231006_);}
	.st185{fill:url(#SVGID_00000110437079547844255210000005560745388054823597_);}
	.st186{fill:url(#SVGID_00000090267690304341448030000011007032916139188894_);}
	.st187{fill:url(#SVGID_00000132772978512089289820000006634442526486542981_);}
	.st188{fill:url(#SVGID_00000153672700432751397620000013991322976184756406_);}
	.st189{fill:url(#SVGID_00000046300402722708160670000011824963570615348409_);}
	.st190{fill:url(#SVGID_00000142891626872834825100000004596417922255278720_);}
	.st191{fill:url(#SVGID_00000183219954408633807930000014610368918988905126_);}
	.st192{fill:url(#SVGID_00000057865109729596971630000001223811586854204563_);}
	.st193{fill:url(#SVGID_00000101817781984676673660000003248760278968783744_);}
	.st194{fill:url(#SVGID_00000049223167834288101460000002421566132831097530_);}
	.st195{fill:url(#SVGID_00000000944230175664808860000009169117051549451161_);}
	.st196{fill-rule:evenodd;clip-rule:evenodd;fill:#512100;}
	.st197{fill-rule:evenodd;clip-rule:evenodd;fill:#006D62;}
	.st198{fill-rule:evenodd;clip-rule:evenodd;}
	.st199{fill-rule:evenodd;clip-rule:evenodd;fill:#00A1F5;}
	.st200{fill-rule:evenodd;clip-rule:evenodd;fill:#FACFAB;}
	.st201{fill-rule:evenodd;clip-rule:evenodd;fill:#F29673;}
	.st202{fill-rule:evenodd;clip-rule:evenodd;fill:#FFFFFF;}
	.st203{fill-rule:evenodd;clip-rule:evenodd;fill:#333333;}
	.st204{fill-rule:evenodd;clip-rule:evenodd;fill:#BD4D00;}
	.st205{fill-rule:evenodd;clip-rule:evenodd;fill:#B2B2B2;}
	.st206{fill-rule:evenodd;clip-rule:evenodd;fill:#F2CC29;}
	.st207{fill-rule:evenodd;clip-rule:evenodd;fill:#005C9C;}
	.st208{fill-rule:evenodd;clip-rule:evenodd;fill:#8AC900;}
	.st209{fill-rule:evenodd;clip-rule:evenodd;fill:#808080;}
	.st210{fill-rule:evenodd;clip-rule:evenodd;fill:#CFA605;}
	.st211{fill-rule:evenodd;clip-rule:evenodd;fill:#666666;}
	.st212{fill-rule:evenodd;clip-rule:evenodd;fill:#CCCCCC;}
	.st213{fill:#960000;}
	.st214{fill:url(#SVGID_00000003103895338519070990000002794016513526874032_);}
	.st215{fill:url(#SVGID_00000117671822485389622120000018258751315104922808_);}
	.st216{opacity:0.51;fill:url(#SVGID_00000078742456525893045360000015372962519786376111_);}
	.st217{fill:url(#SVGID_00000073710243024589975310000002237400744671948456_);}
	.st218{fill:url(#SVGID_00000060010952938370853930000000432369165160417198_);}
	.st219{fill:url(#SVGID_00000113343910823971248230000013019176078900252834_);}
	.st220{opacity:0.35;fill:url(#SVGID_00000065776113194168596510000001125869203581073042_);}
	.st221{opacity:0.35;fill:url(#SVGID_00000171684907342936665460000018025142977794123657_);}
	.st222{fill:#F06021;}
	.st223{fill-rule:evenodd;clip-rule:evenodd;fill:url(#SVGID_00000018944046875876287170000014351770406587638455_);}
	.st224{fill-rule:evenodd;clip-rule:evenodd;fill:url(#SVGID_00000042009849133137777560000014416478652053927869_);}
	.st225{fill-rule:evenodd;clip-rule:evenodd;fill:url(#SVGID_00000034048163470293656430000013117147405895132573_);}
	.st226{fill-rule:evenodd;clip-rule:evenodd;fill:url(#SVGID_00000010996626546754534350000002383514673956667024_);}
	.st227{fill-rule:evenodd;clip-rule:evenodd;fill:url(#SVGID_00000101098431720948848470000014011014245158791571_);}
	.st228{fill-rule:evenodd;clip-rule:evenodd;fill:url(#SVGID_00000161600004021312620830000010258703817483645623_);}
	.st229{fill-rule:evenodd;clip-rule:evenodd;fill:url(#SVGID_00000061457218864025240580000001216049901518443425_);}
	.st230{fill-rule:evenodd;clip-rule:evenodd;fill:url(#SVGID_00000083068389721736405710000014148558398970938038_);}
	.st231{fill-rule:evenodd;clip-rule:evenodd;fill:url(#SVGID_00000039853142647659880210000017336675945034906548_);}
	.st232{fill-rule:evenodd;clip-rule:evenodd;fill:url(#SVGID_00000042711509572826513420000014792266591600778390_);}
	.st233{fill-rule:evenodd;clip-rule:evenodd;fill:url(#SVGID_00000084504636306976133550000008296726361684213152_);}
	.st234{fill-rule:evenodd;clip-rule:evenodd;fill:url(#SVGID_00000091007819891559462570000000953470063799777169_);}
	.st235{fill-rule:evenodd;clip-rule:evenodd;fill:url(#SVGID_00000137851878192783743020000003952490001069447835_);}
	.st236{opacity:0.5;fill-rule:evenodd;clip-rule:evenodd;fill:#5D0101;enable-background:new    ;}
	.st237{fill:#E11B22;}
	.st238{fill:#959595;}
	.st239{fill:#003359;}
	.st240{fill:#1779C1;}
	.st241{fill:#0EB17C;}
	.st242{fill:#2B2353;}
	.st243{fill:#BE264E;}
	.st244{fill:#EAA41C;}
	.st245{fill:#1F9EF3;}
	.st246{fill:#0267A3;}
	.st247{fill:#FFEC00;}
	.st248{fill:#00A0E0;}
	.st249{fill:#E3007E;}
	.st250{fill:none;stroke:#000000;stroke-width:2;stroke-miterlimit:10;}
</style>
<g>
	<text transform="matrix(0.9996 0 0 1 151.7873 139.3389)" class="st64 st65 st66">Amplifying Impact</text>
	<g>
		<path class="st64" d="M162.8,172.5c-39.58-4.66-68.97-31.3-65.65-59.49c1.91-16.21,14.23-29.41,31.87-36.81
			c0.42-0.2,0.84-0.4,1.27-0.6c-22.74,6.21-39.35,21.1-41.59,40.14c-3.32,28.19,26.07,54.82,65.65,59.49
			c16.01,1.89,31.23-0.11,43.9-5.03C187.5,173.06,175.39,173.99,162.8,172.5z"/>
		<path class="st67" d="M97.15,113.02c-3.32,28.19,26.07,54.82,65.65,59.49c12.59,1.48,24.7,0.56,35.46-2.29
			c1.4-0.54,2.77-1.12,4.11-1.73c-10.92,2.98-23.25,3.97-36.09,2.46c-39.58-4.66-68.98-31.3-65.65-59.49
			c1.78-15.12,12.62-27.62,28.4-35.24C111.37,83.61,99.06,96.8,97.15,113.02z"/>
		<path class="st64" d="M109.96,72.81c25.9-13.34,55.78-11.81,58.71-11.58c-0.14-0.42-14.83-7.81-17.55-9.17l-0.32,5.48
			c-0.76-0.02-1.53-0.03-2.3-0.03c-42.26,0-76.52,24.4-76.52,54.5c0,24.42,15.92,37.72,30.38,46.09
			c-12.57-9.71-20.25-22.68-20.25-36.94c0-27.6,28.81-50.41,66.17-54.01v4.14c3.27-1.8,16.13-7.91,17.87-8.76
			C155.49,61.21,123.26,65.96,109.96,72.81z"/>
	</g>
	<g>
		<g>
			<path d="M138.64,124.44l-0.06-10.77l-5.22,8.77h-2.55l-5.2-8.48v10.48h-5.31v-20.32h4.73l7.14,11.73l6.97-11.73h4.73l0.06,20.32
				H138.64z"/>
			<path d="M160.41,110.23c1.37,1.19,2.06,3.01,2.06,5.47v8.74h-5.14v-2.03c-0.79,1.53-2.34,2.29-4.64,2.29
				c-1.22,0-2.27-0.21-3.16-0.64c-0.89-0.43-1.56-1-2.02-1.73c-0.45-0.73-0.68-1.55-0.68-2.48c0-1.49,0.57-2.65,1.71-3.47
				c1.14-0.82,2.9-1.23,5.28-1.23h3.13c-0.1-1.66-1.21-2.5-3.34-2.5c-0.75,0-1.52,0.12-2.29,0.36c-0.77,0.24-1.43,0.58-1.97,1
				l-1.86-3.74c0.87-0.58,1.93-1.03,3.18-1.35c1.25-0.32,2.5-0.48,3.76-0.48C157.04,108.44,159.03,109.04,160.41,110.23z
				 M155.91,120.75c0.48-0.31,0.83-0.76,1.04-1.36v-1.36h-2.38c-1.61,0-2.41,0.53-2.41,1.6c0,0.48,0.18,0.87,0.55,1.16
				c0.37,0.29,0.87,0.44,1.51,0.44C154.86,121.21,155.42,121.06,155.91,120.75z"/>
			<path d="M173.4,108.98c0.9-0.36,1.93-0.54,3.09-0.54v4.96c-0.5-0.06-0.92-0.09-1.25-0.09c-1.18,0-2.1,0.32-2.77,0.96
				c-0.67,0.64-1,1.62-1,2.93v7.23h-5.51v-15.73h5.25v1.89C171.77,109.88,172.5,109.34,173.4,108.98z"/>
			<path d="M185.89,118.92l-1.63,1.65v3.86h-5.51V102.9h5.51v11.29l5.63-5.49h6.53l-6.53,6.73l7.08,9h-6.68L185.89,118.92z"/>
			<path d="M213.96,117.96h-11.44c0.23,0.81,0.68,1.44,1.35,1.87c0.67,0.44,1.5,0.65,2.51,0.65c0.75,0,1.41-0.11,1.96-0.32
				c0.55-0.21,1.11-0.56,1.67-1.04l2.9,3.02c-1.53,1.7-3.76,2.55-6.7,2.55c-1.84,0-3.45-0.35-4.85-1.04
				c-1.39-0.7-2.47-1.66-3.24-2.9c-0.76-1.24-1.15-2.64-1.15-4.21c0-1.55,0.37-2.94,1.12-4.17c0.74-1.23,1.77-2.19,3.09-2.89
				c1.32-0.7,2.8-1.04,4.44-1.04c1.57,0,2.99,0.32,4.27,0.97c1.28,0.65,2.29,1.59,3.03,2.82c0.74,1.23,1.12,2.68,1.12,4.37
				C214.05,116.64,214.02,117.09,213.96,117.96z M203.52,113.09c-0.57,0.48-0.93,1.14-1.09,1.97h6.44
				c-0.16-0.83-0.52-1.49-1.09-1.97c-0.57-0.48-1.28-0.73-2.13-0.73C204.81,112.36,204.09,112.6,203.52,113.09z"/>
			<path d="M227.45,123.8c-0.46,0.29-1.03,0.51-1.7,0.67c-0.67,0.15-1.38,0.23-2.13,0.23c-2.05,0-3.63-0.5-4.73-1.51
				c-1.1-1.01-1.65-2.51-1.65-4.5v-5.28h-2.29v-4.12h2.29v-4.09h5.51v4.09h3.6v4.12h-3.6v5.22c0,0.56,0.15,1,0.45,1.32
				c0.3,0.32,0.7,0.48,1.2,0.48c0.64,0,1.2-0.16,1.68-0.49L227.45,123.8z"/>
			<path d="M229.89,106.12c-0.62-0.56-0.93-1.26-0.93-2.09c0-0.83,0.31-1.53,0.93-2.09c0.62-0.56,1.43-0.84,2.44-0.84
				c1.01,0,1.82,0.27,2.44,0.8c0.62,0.53,0.93,1.21,0.93,2.05c0,0.87-0.31,1.59-0.93,2.16c-0.62,0.57-1.43,0.86-2.44,0.86
				C231.32,106.96,230.51,106.68,229.89,106.12z M229.57,108.71h5.51v15.73h-5.51V108.71z"/>
			<path d="M253.62,110.19c1.19,1.16,1.78,2.91,1.78,5.25v9h-5.51v-8.1c0-2.15-0.86-3.22-2.58-3.22c-0.95,0-1.71,0.31-2.28,0.93
				c-0.57,0.62-0.86,1.55-0.86,2.79v7.6h-5.51v-15.73h5.25v1.71c0.62-0.64,1.35-1.13,2.21-1.47c0.85-0.34,1.78-0.51,2.79-0.51
				C250.86,108.44,252.43,109.02,253.62,110.19z"/>
			<path d="M276.01,108.71v12.86c0,2.92-0.79,5.11-2.38,6.57c-1.59,1.46-3.87,2.19-6.85,2.19c-1.55,0-3-0.17-4.35-0.52
				c-1.35-0.35-2.51-0.86-3.45-1.54l2-3.86c0.64,0.52,1.45,0.93,2.42,1.23c0.98,0.3,1.94,0.45,2.89,0.45c1.45,0,2.52-0.32,3.19-0.96
				c0.68-0.64,1.02-1.59,1.02-2.84v-0.52c-1.06,1.24-2.62,1.86-4.67,1.86c-1.39,0-2.68-0.31-3.86-0.94
				c-1.18-0.63-2.12-1.52-2.82-2.67c-0.7-1.15-1.04-2.48-1.04-3.99c0-1.49,0.35-2.81,1.04-3.96c0.7-1.15,1.63-2.04,2.82-2.67
				c1.18-0.63,2.47-0.94,3.86-0.94c2.24,0,3.89,0.73,4.93,2.18v-1.92H276.01z M269.58,118.34c0.65-0.6,0.97-1.37,0.97-2.32
				c0-0.95-0.32-1.72-0.96-2.31c-0.64-0.59-1.46-0.89-2.47-0.89c-1.01,0-1.83,0.3-2.48,0.89c-0.65,0.59-0.97,1.36-0.97,2.31
				c0,0.95,0.33,1.72,0.99,2.32c0.66,0.6,1.48,0.9,2.47,0.9S268.94,118.94,269.58,118.34z"/>
		</g>
	</g>
</g>
</svg>
