<?xml version="1.0" encoding="utf-8"?>
<!-- Generator: Adobe Illustrator 27.8.1, SVG Export Plug-In . SVG Version: 6.00 Build 0)  -->
<svg version="1.1" id="Layer_1" xmlns="http://www.w3.org/2000/svg" xmlns:xlink="http://www.w3.org/1999/xlink" x="0px" y="0px"
	 viewBox="0 0 348 228" style="enable-background:new 0 0 348 228;" xml:space="preserve">
<style type="text/css">
	.st0{fill:#D6EADE;}
	.st1{fill:#03487C;}
	.st2{fill:#1B1B4C;}
	.st3{fill:none;}
	.st4{fill-rule:evenodd;clip-rule:evenodd;fill:#204F7A;}
	.st5{fill-rule:evenodd;clip-rule:evenodd;fill:#50A4FF;}
	.st6{fill:#002649;}
	.st7{fill:#E6E7E8;stroke:#CFCFCF;stroke-width:0.1061;}
	.st8{fill:#333333;}
	.st9{fill-rule:evenodd;clip-rule:evenodd;fill:#277FC1;}
	.st10{fill-rule:evenodd;clip-rule:evenodd;fill:#083D6D;}
	.st11{fill:#DDB462;}
	
		.st12{clip-path:url(#SVGID_00000095335810254243689150000014171572621560443803_);fill:url(#SVGID_00000124148237325417379030000004701478988341199287_);}
	.st13{fill:#FFFFFF;}
	.st14{fill:url(#SVGID_00000160148159432775289670000014967348310303678141_);}
	.st15{fill:#224685;}
	.st16{fill:#FFC73B;}
	.st17{fill:#11233F;}
	.st18{fill:#5267FF;}
	.st19{fill-rule:evenodd;clip-rule:evenodd;fill:#72342E;}
	.st20{fill:#72342E;}
	.st21{fill:#FFF2E2;}
	.st22{fill:#FFF2E2;stroke:#72342E;stroke-width:0.75;stroke-miterlimit:10;}
	.st23{fill:#FFCC99;}
	.st24{fill:#469CB2;}
	.st25{fill:url(#XMLID_00000109718804922780490120000011576839101802981258_);}
	.st26{fill:url(#XMLID_00000084496000951407263080000002396539101413053827_);}
	.st27{fill:url(#XMLID_00000125596437505415011200000006657840861030556567_);}
	.st28{fill:url(#XMLID_00000123428669895661445750000002354404216554061498_);}
	.st29{fill:url(#XMLID_00000071525588681980595990000013411731273166152612_);}
	.st30{fill:url(#XMLID_00000157296982143033976740000011688246903307808674_);}
	.st31{fill:url(#XMLID_00000039825977763305091170000011084783268923430332_);}
	.st32{fill:url(#XMLID_00000062892371759985545380000007470260501594488735_);}
	.st33{fill:url(#XMLID_00000143575883885793384260000008914484868912422077_);}
	.st34{fill:url(#XMLID_00000091713233366255767020000013687834988851828131_);}
	.st35{fill:url(#XMLID_00000165196827752688181840000013414642732147355828_);}
	.st36{fill:url(#XMLID_00000140712610084096499330000004284935921128668074_);}
	.st37{fill:url(#XMLID_00000074425372461047933470000009509350189203670422_);}
	.st38{fill:url(#XMLID_00000080912574039133486540000014931481461343964309_);}
	.st39{fill:url(#XMLID_00000002373513038147204670000000146379342867577728_);}
	.st40{fill:url(#SVGID_00000127750983000493368830000017329552387070227378_);}
	.st41{fill:url(#SVGID_00000008850386161871836300000009634149152786687157_);}
	.st42{fill:url(#SVGID_00000094583744099595640760000011196054288146727101_);}
	.st43{fill:url(#SVGID_00000116922341285819344830000000339507275848063416_);}
	.st44{fill:url(#SVGID_00000039101570117859995760000007242251406010730384_);}
	.st45{fill:url(#SVGID_00000166675024135533921090000010428197054142318781_);}
	.st46{fill:url(#SVGID_00000163030969354013841000000005459584794562319505_);}
	.st47{fill:url(#SVGID_00000070827149820134644070000000335594427816755634_);}
	.st48{fill:url(#SVGID_00000083772630938355709760000009299252302165512621_);}
	.st49{fill:url(#SVGID_00000072254119484968581460000005339449263494425242_);}
	.st50{fill:url(#SVGID_00000083089844501394290680000005515109513902262663_);}
	.st51{fill:url(#SVGID_00000003802457457361719540000016452584701340456854_);}
	.st52{fill:url(#SVGID_00000032616810408589652690000003830464020436586663_);}
	.st53{fill:url(#SVGID_00000149359093720662365900000015105123022170313405_);}
	.st54{fill:#30325E;}
	.st55{fill:#FF7859;}
	.st56{fill:#FFD550;}
	.st57{fill:#00C3AD;}
	.st58{fill:#FF4653;}
	.st59{fill:#D8CE19;}
	.st60{fill:#FFE4D2;}
	.st61{fill:#A2E0EB;}
	.st62{fill:#1B3493;}
	.st63{fill:none;stroke:#FFFFFF;stroke-width:2;stroke-linecap:round;stroke-linejoin:round;stroke-miterlimit:10;}
	.st64{fill:#F15A24;}
	.st65{fill:#F7931E;}
	.st66{fill:#58595B;}
	.st67{fill:#114E15;}
	.st68{fill:#013D01;}
	.st69{fill:#E9C608;}
	.st70{fill:#043B00;}
	.st71{fill:#D8A43E;}
	.st72{clip-path:url(#SVGID_00000138531812447400472400000015118751548729900217_);}
	.st73{fill:#F49630;}
	.st74{clip-path:url(#SVGID_00000000182450395092443790000005673375408713939846_);}
	.st75{clip-path:url(#SVGID_00000139281019332471611270000009893297922229612991_);}
	.st76{clip-path:url(#SVGID_00000023987289073876177800000014221755370691904643_);}
	.st77{clip-path:url(#SVGID_00000006667356977889795890000008750266553290714806_);}
	.st78{fill-rule:evenodd;clip-rule:evenodd;fill:#FF6600;}
	.st79{fill-rule:evenodd;clip-rule:evenodd;fill:#05174F;}
	.st80{fill:#05174F;}
	.st81{opacity:0.42;fill:url(#SVGID_00000060739422987092757040000003533760558248491662_);enable-background:new    ;}
	.st82{opacity:0.42;fill:url(#SVGID_00000028307530285378383770000012243256651946923149_);enable-background:new    ;}
	.st83{fill:url(#SVGID_00000119808603476980431550000004931765501262846099_);}
	.st84{fill:url(#SVGID_00000155146573856787068540000012878564236278184356_);}
	.st85{opacity:0.64;fill:url(#SVGID_00000115513724311952982520000012605490184648417665_);enable-background:new    ;}
	.st86{opacity:0.75;fill:url(#SVGID_00000144322505450133951020000004482327951317261723_);enable-background:new    ;}
	.st87{fill:url(#SVGID_00000036213053445833890970000014369085909011476887_);}
	.st88{fill:url(#SVGID_00000140012808763230071650000011523430438535428485_);}
	.st89{opacity:0.76;fill:url(#SVGID_00000078038678778926279450000010136186091721505701_);enable-background:new    ;}
	.st90{opacity:0.75;fill:url(#SVGID_00000151529424554131533700000017857787417872118436_);enable-background:new    ;}
	.st91{fill:url(#SVGID_00000057857871812164270840000007724074601150751117_);}
	.st92{opacity:0.42;fill:url(#SVGID_00000176025152884839650180000012191234456008555432_);enable-background:new    ;}
	.st93{opacity:0.42;fill:url(#SVGID_00000181780609823823777840000006623959034490304645_);enable-background:new    ;}
	.st94{clip-path:url(#SVGID_00000157284792368502082700000002781341775281423006_);}
	.st95{fill:#1ED7FE;}
	.st96{clip-path:url(#SVGID_00000132769187385412233810000004292332015851635599_);}
	.st97{clip-path:url(#SVGID_00000116919416200249566270000013315828515550591632_);}
	.st98{fill:#000056;}
	.st99{clip-path:url(#SVGID_00000005959444877246239140000005593013704295460994_);}
	.st100{fill:#053272;}
	.st101{fill:none;stroke:#053272;stroke-width:4;stroke-miterlimit:10;}
	.st102{fill:url(#SVGID_00000010270021514541391320000018314350176070944696_);}
	.st103{fill:url(#SVGID_00000096044973091765731240000005114321990413972636_);}
	.st104{fill:url(#SVGID_00000080185983795489230480000017915631450600256400_);}
	.st105{fill:url(#SVGID_00000111187240253121731380000002623590964376083895_);}
	.st106{fill:url(#SVGID_00000166666543533259951760000011045354421935856773_);}
	.st107{fill:url(#SVGID_00000057143360290376292540000007064596421562342577_);}
	.st108{fill:url(#SVGID_00000160189576719984414680000015780288734265059468_);}
	.st109{fill:url(#SVGID_00000146462214788730870710000006038286564144266388_);}
	.st110{fill:url(#SVGID_00000108302263924845025340000005504659072399257263_);}
	.st111{fill:url(#SVGID_00000161591856295360344840000012997200483649065108_);}
	.st112{fill:url(#SVGID_00000146472065135638290180000002846228901094888873_);}
	.st113{fill:url(#SVGID_00000108275384040327865200000004290374156668190602_);}
	.st114{fill:url(#SVGID_00000157284974616508617470000014396734753128369296_);}
	.st115{fill:url(#SVGID_00000026855172875724285060000003078932287760563643_);}
	.st116{fill:url(#SVGID_00000060740060714472880050000016440176062625286285_);}
	.st117{fill:url(#SVGID_00000131352005255494903860000015957412822345893267_);}
	.st118{fill:url(#SVGID_00000057122392120895311190000017320955789702023853_);}
	.st119{fill:url(#SVGID_00000126307002947725294140000011013350137118474928_);}
	.st120{fill:url(#SVGID_00000153668613043180939130000002985321497524977577_);}
	.st121{fill:url(#SVGID_00000097489245268804199150000002218754011315566740_);}
	.st122{fill:url(#SVGID_00000035512370844061653600000005253147042692800186_);}
	.st123{fill:url(#SVGID_00000105390032634997272320000006609263114470067855_);}
	.st124{fill:url(#SVGID_00000078757509598661213960000008762598429231677852_);}
	.st125{fill:url(#SVGID_00000159441989391091940780000006357386877894569639_);}
	.st126{fill:url(#SVGID_00000116232720869599052820000006771105691099836079_);}
	.st127{fill:url(#SVGID_00000103947519682854134560000015441338195997708709_);}
	.st128{fill:url(#SVGID_00000063621202990182658060000009817760185763455367_);}
	.st129{fill:url(#SVGID_00000039096319605406130430000007090155158172215946_);}
	.st130{fill:url(#SVGID_00000153707557670016760130000004597631814945932966_);}
	.st131{fill:none;stroke:#FEF73D;stroke-linecap:round;stroke-miterlimit:10;}
	.st132{fill:none;stroke:#FF189C;stroke-miterlimit:10;}
	.st133{fill:none;stroke:#00EFF1;stroke-linecap:round;stroke-miterlimit:10;}
	.st134{fill:#00EFF1;}
	.st135{fill:#FFA022;}
	.st136{fill:#0C103A;}
	.st137{fill-rule:evenodd;clip-rule:evenodd;fill:#5D9541;}
	.st138{fill-rule:evenodd;clip-rule:evenodd;fill:#F06021;}
	.st139{fill-rule:evenodd;clip-rule:evenodd;fill:#69BC60;}
	.st140{fill-rule:evenodd;clip-rule:evenodd;fill:#F6951C;}
	.st141{fill:#F6951C;}
	.st142{fill:url(#SVGID_00000013906116194197735450000000974707425117917881_);}
	.st143{fill:url(#SVGID_00000153662949803681454130000004878133269723358651_);}
	.st144{fill:url(#SVGID_00000163043731691755824150000015699921590383226254_);}
	.st145{opacity:0.93;fill:url(#SVGID_00000145057955418429181440000005535968236874679194_);}
	.st146{opacity:0.93;fill:url(#SVGID_00000036237851687820405380000009688589311898000800_);}
	.st147{opacity:0.93;fill:url(#SVGID_00000059285025962533563040000016548629823073551028_);}
	.st148{opacity:0.93;fill:url(#SVGID_00000127018820081649090220000000729471999131700611_);}
	.st149{fill:url(#SVGID_00000029745664026412462950000000284594401810593963_);}
	.st150{fill:url(#SVGID_00000071521224924223044000000013664807969659764382_);}
	.st151{fill:url(#SVGID_00000163073787722494952190000018156418387812537771_);}
	.st152{fill:url(#SVGID_00000014631775562418982010000005233411530884361135_);}
	.st153{fill:url(#SVGID_00000175307014904545237300000002499308164544430010_);}
	.st154{fill:url(#SVGID_00000039850229738627304850000013108161134977159870_);}
	.st155{fill:url(#SVGID_00000183238765436024542430000009679266364632487584_);}
	.st156{fill:url(#SVGID_00000152962973021507389570000011054362346015733180_);}
	.st157{fill:url(#SVGID_00000144333310070643556260000006017803104113195394_);}
	.st158{fill:url(#SVGID_00000178923981825884961590000004205606841417587134_);}
	.st159{fill:url(#SVGID_00000034768076706361664770000017287695919826764981_);}
	.st160{fill:url(#SVGID_00000111902204097855737850000014634956823307052702_);}
	.st161{fill:url(#SVGID_00000000937046138838838890000012967956742215997615_);}
	.st162{fill:url(#SVGID_00000062901073408702491100000004783204470077375361_);}
	.st163{fill:url(#SVGID_00000102546712239036223030000014574435651578955168_);}
	.st164{fill:url(#SVGID_00000030482710220609094120000014002741036903989902_);}
	.st165{fill:url(#SVGID_00000032633603015536390630000010420244183026743470_);}
	.st166{fill:url(#SVGID_00000176759241933097279780000006522000994907301800_);}
	.st167{fill:url(#SVGID_00000132085806863877488160000008939838040527425471_);}
	.st168{fill:url(#SVGID_00000061449977324449665970000000383823495803555975_);}
	.st169{fill:url(#SVGID_00000068664856173546597550000013656604679196297146_);}
	.st170{fill:url(#SVGID_00000008830235035799030090000011866914730313989256_);}
	.st171{fill:url(#SVGID_00000105422211274849760520000013991716228648747956_);}
	.st172{fill:url(#SVGID_00000057852720002179007700000003663631202974731938_);}
	.st173{fill:url(#SVGID_00000001622942341448951510000017995948894476695987_);}
	.st174{fill:url(#SVGID_00000162319039165281376770000002941149531231445136_);}
	.st175{fill:url(#SVGID_00000087385069620253179790000012854169106604806071_);}
	.st176{fill:url(#SVGID_00000168109544281424955990000008741124344742833339_);}
	.st177{fill:url(#SVGID_00000031887027449737700740000011316275934719296385_);}
	.st178{fill:url(#SVGID_00000175282233273631542220000001924991972072498835_);}
	.st179{fill:url(#SVGID_00000049200623197602455250000002371669514360173705_);}
	.st180{fill:url(#SVGID_00000103260115974531191960000016630710333132787119_);}
	.st181{fill:url(#SVGID_00000086673737921548152180000005911430937704933280_);}
	.st182{fill:url(#SVGID_00000030479911155497471290000002218029138407347623_);}
	.st183{fill:url(#SVGID_00000048499657555509925080000016746079440876420285_);}
	.st184{fill:url(#SVGID_00000090988361338120845220000010732249956864255666_);}
	.st185{fill:url(#SVGID_00000125588773377418826350000008794028823014100628_);}
	.st186{fill:url(#SVGID_00000109021958190969158640000017633657528418026646_);}
	.st187{fill:url(#SVGID_00000116216908769324737710000002466097306243173270_);}
	.st188{fill:url(#SVGID_00000082352534494824136660000015747686469503881887_);}
	.st189{fill:url(#SVGID_00000137090243796174629640000016320092376110238131_);}
	.st190{fill:url(#SVGID_00000034051441864078355000000010749634630388916378_);}
	.st191{fill:url(#SVGID_00000122701168679380871840000006033911388635109295_);}
	.st192{fill:url(#SVGID_00000152241466209982021650000014576245214503740553_);}
	.st193{fill:url(#SVGID_00000005260911161483522480000002992763921280551046_);}
	.st194{fill-rule:evenodd;clip-rule:evenodd;fill:#512100;}
	.st195{fill-rule:evenodd;clip-rule:evenodd;fill:#006D62;}
	.st196{fill-rule:evenodd;clip-rule:evenodd;}
	.st197{fill-rule:evenodd;clip-rule:evenodd;fill:#00A1F5;}
	.st198{fill-rule:evenodd;clip-rule:evenodd;fill:#FACFAB;}
	.st199{fill-rule:evenodd;clip-rule:evenodd;fill:#F29673;}
	.st200{fill-rule:evenodd;clip-rule:evenodd;fill:#FFFFFF;}
	.st201{fill-rule:evenodd;clip-rule:evenodd;fill:#333333;}
	.st202{fill-rule:evenodd;clip-rule:evenodd;fill:#BD4D00;}
	.st203{fill-rule:evenodd;clip-rule:evenodd;fill:#B2B2B2;}
	.st204{fill-rule:evenodd;clip-rule:evenodd;fill:#F2CC29;}
	.st205{fill-rule:evenodd;clip-rule:evenodd;fill:#005C9C;}
	.st206{fill-rule:evenodd;clip-rule:evenodd;fill:#8AC900;}
	.st207{fill-rule:evenodd;clip-rule:evenodd;fill:#808080;}
	.st208{fill-rule:evenodd;clip-rule:evenodd;fill:#CFA605;}
	.st209{fill-rule:evenodd;clip-rule:evenodd;fill:#666666;}
	.st210{fill-rule:evenodd;clip-rule:evenodd;fill:#CCCCCC;}
	.st211{fill:#960000;}
	.st212{fill:url(#SVGID_00000080177992686942502350000010739989828996059022_);}
	.st213{fill:url(#SVGID_00000181778180744252926910000003488525074092464818_);}
	.st214{opacity:0.51;fill:url(#SVGID_00000059276812233092205740000015108991408824945030_);}
	.st215{fill:url(#SVGID_00000013184452839849692320000009319123048518588854_);}
	.st216{fill:url(#SVGID_00000062891664084283167460000004718109776090659253_);}
	.st217{fill:url(#SVGID_00000026161914829493674950000017801375266965351567_);}
	.st218{opacity:0.35;fill:url(#SVGID_00000105422923168853610790000017948499244892509080_);}
	.st219{opacity:0.35;fill:url(#SVGID_00000069390114677827907730000008869674476991531415_);}
	.st220{fill:#F06021;}
	.st221{fill-rule:evenodd;clip-rule:evenodd;fill:url(#SVGID_00000159445480113817837200000006811414977833322632_);}
	.st222{fill-rule:evenodd;clip-rule:evenodd;fill:url(#SVGID_00000047766927199807211200000008201992818089807285_);}
	.st223{fill-rule:evenodd;clip-rule:evenodd;fill:url(#SVGID_00000129179909019141812120000014438102819061388990_);}
	.st224{fill-rule:evenodd;clip-rule:evenodd;fill:url(#SVGID_00000089541113375876748520000008248585932762181558_);}
	.st225{fill-rule:evenodd;clip-rule:evenodd;fill:url(#SVGID_00000100357911740402835640000017796443189112733844_);}
	.st226{fill-rule:evenodd;clip-rule:evenodd;fill:url(#SVGID_00000005974592741846380580000010087793101183074995_);}
	.st227{fill-rule:evenodd;clip-rule:evenodd;fill:url(#SVGID_00000113314208638702488660000003514279642348137641_);}
	.st228{fill-rule:evenodd;clip-rule:evenodd;fill:url(#SVGID_00000018237488456206424260000009684521860407626398_);}
	.st229{fill-rule:evenodd;clip-rule:evenodd;fill:url(#SVGID_00000070112354811886657230000000860163599468561854_);}
	.st230{fill-rule:evenodd;clip-rule:evenodd;fill:url(#SVGID_00000083052039536212003270000017874429016079665322_);}
	.st231{fill-rule:evenodd;clip-rule:evenodd;fill:url(#SVGID_00000157286503740152555010000000655614351318833577_);}
	.st232{fill-rule:evenodd;clip-rule:evenodd;fill:url(#SVGID_00000163756710487097790840000007698792496168433838_);}
	.st233{fill-rule:evenodd;clip-rule:evenodd;fill:url(#SVGID_00000113348074057697541890000009503550899045164220_);}
	.st234{opacity:0.5;fill-rule:evenodd;clip-rule:evenodd;fill:#5D0101;enable-background:new    ;}
	.st235{fill:#E11B22;}
	.st236{fill:#959595;}
	.st237{fill:#003359;}
	.st238{fill:#1779C1;}
	.st239{fill:#0EB17C;}
	.st240{fill:#2B2353;}
	.st241{fill:#BE264E;}
	.st242{fill:#EAA41C;}
	.st243{fill:#1F9EF3;}
	.st244{fill:#0267A3;}
	.st245{fill:#FFEC00;}
	.st246{fill:#00A0E0;}
	.st247{fill:#E3007E;}
	.st248{fill:none;stroke:#000000;stroke-width:2;stroke-miterlimit:10;}
</style>
<g id="Layer_1_00000097474772028172620390000012022044254782651777_">
	<g id="XMLID_3804_">
		<g id="XMLID_3803_">
			<g id="XMLID_3288_">
				<g id="XMLID_1957_">
					<path id="XMLID_2355_" d="M122.41,132.12c-0.2,0.38-0.46,0.71-0.8,0.97c-0.34,0.26-0.73,0.45-1.17,0.58
						c-0.45,0.13-0.92,0.19-1.42,0.19h-2.28v3.31h-1.06v-9.39h3.52c0.53,0,1.01,0.07,1.44,0.21c0.43,0.14,0.81,0.34,1.11,0.59
						c0.31,0.25,0.55,0.57,0.71,0.94c0.17,0.37,0.25,0.79,0.25,1.25C122.71,131.29,122.61,131.73,122.41,132.12z M120.95,129.28
						c-0.46-0.34-1.07-0.52-1.84-0.52h-2.38v4.13h2.33c0.39,0,0.74-0.05,1.06-0.15c0.32-0.1,0.59-0.24,0.82-0.42
						c0.23-0.18,0.4-0.4,0.52-0.66c0.12-0.25,0.18-0.54,0.18-0.85C121.65,130.14,121.41,129.63,120.95,129.28z"/>
					<path id="XMLID_2358_" d="M131.07,132.95v4.23h-1.06v-9.39h1.06v4.17h5.42v-4.17h1.06v9.39h-1.06v-4.23H131.07z"/>
					<path id="XMLID_2361_" d="M154.39,134.33c-0.23,0.59-0.56,1.1-0.98,1.55c-0.42,0.45-0.93,0.8-1.52,1.07
						c-0.59,0.26-1.24,0.4-1.96,0.4c-0.72,0-1.37-0.13-1.95-0.39c-0.59-0.26-1.09-0.61-1.51-1.05c-0.42-0.44-0.74-0.96-0.97-1.54
						c-0.23-0.59-0.34-1.21-0.34-1.86c0-0.65,0.12-1.27,0.35-1.86c0.23-0.59,0.56-1.1,0.98-1.55c0.42-0.45,0.93-0.8,1.52-1.07
						c0.59-0.26,1.24-0.4,1.96-0.4c0.72,0,1.37,0.13,1.95,0.39c0.59,0.26,1.09,0.61,1.51,1.05c0.42,0.44,0.74,0.96,0.97,1.54
						c0.23,0.59,0.34,1.21,0.34,1.86C154.73,133.12,154.62,133.74,154.39,134.33z M153.36,130.98c-0.18-0.47-0.44-0.89-0.77-1.23
						c-0.33-0.35-0.72-0.63-1.17-0.83c-0.45-0.21-0.95-0.31-1.48-0.31s-1.03,0.1-1.48,0.3c-0.45,0.2-0.84,0.48-1.16,0.83
						c-0.32,0.35-0.57,0.76-0.76,1.23c-0.18,0.47-0.28,0.97-0.28,1.51c0,0.54,0.09,1.04,0.28,1.52c0.18,0.47,0.44,0.89,0.77,1.23
						c0.33,0.35,0.72,0.63,1.17,0.83c0.45,0.21,0.95,0.31,1.48,0.31c0.54,0,1.03-0.1,1.48-0.3c0.45-0.2,0.84-0.48,1.16-0.83
						c0.32-0.35,0.57-0.76,0.76-1.23c0.18-0.47,0.27-0.97,0.27-1.51C153.63,131.96,153.54,131.45,153.36,130.98z"/>
					<path id="XMLID_2366_" d="M165.24,137.18h-1.06v-8.41h-3.15v-0.98h7.37v0.98h-3.15L165.24,137.18L165.24,137.18z"/>
					<path id="XMLID_2368_" d="M183.93,134.33c-0.23,0.59-0.56,1.1-0.98,1.55c-0.42,0.45-0.93,0.8-1.52,1.07
						c-0.59,0.26-1.24,0.4-1.96,0.4c-0.72,0-1.37-0.13-1.95-0.39c-0.59-0.26-1.09-0.61-1.51-1.05c-0.42-0.44-0.74-0.96-0.97-1.54
						c-0.23-0.59-0.34-1.21-0.34-1.86c0-0.65,0.12-1.27,0.35-1.86c0.23-0.59,0.56-1.1,0.98-1.55c0.42-0.45,0.93-0.8,1.52-1.07
						c0.59-0.26,1.24-0.4,1.96-0.4c0.72,0,1.37,0.13,1.95,0.39c0.59,0.26,1.09,0.61,1.51,1.05c0.42,0.44,0.74,0.96,0.97,1.54
						c0.23,0.59,0.34,1.21,0.34,1.86C184.28,133.12,184.16,133.74,183.93,134.33z M182.91,130.98c-0.18-0.47-0.44-0.89-0.77-1.23
						c-0.33-0.35-0.72-0.63-1.17-0.83c-0.45-0.21-0.95-0.31-1.48-0.31s-1.03,0.1-1.48,0.3c-0.45,0.2-0.84,0.48-1.16,0.83
						c-0.32,0.35-0.57,0.76-0.76,1.23c-0.18,0.47-0.28,0.97-0.28,1.51c0,0.54,0.09,1.04,0.28,1.52c0.18,0.47,0.44,0.89,0.77,1.23
						c0.33,0.35,0.72,0.63,1.17,0.83c0.45,0.21,0.95,0.31,1.48,0.31c0.54,0,1.03-0.1,1.48-0.3c0.45-0.2,0.84-0.48,1.16-0.83
						c0.32-0.35,0.57-0.76,0.76-1.23c0.18-0.47,0.27-0.97,0.27-1.51C183.18,131.96,183.09,131.45,182.91,130.98z"/>
					<path id="XMLID_2371_" d="M198.4,136.92c-0.64,0.28-1.36,0.42-2.15,0.42c-0.74,0-1.41-0.13-1.99-0.38
						c-0.59-0.25-1.09-0.59-1.5-1.03c-0.42-0.44-0.73-0.95-0.95-1.54c-0.22-0.59-0.33-1.22-0.33-1.89c0-0.64,0.11-1.26,0.34-1.85
						c0.23-0.59,0.55-1.11,0.96-1.56c0.41-0.45,0.91-0.8,1.48-1.07c0.58-0.26,1.22-0.4,1.93-0.4c0.39,0,0.75,0.03,1.08,0.08
						c0.33,0.05,0.63,0.13,0.91,0.24c0.28,0.11,0.55,0.24,0.79,0.4c0.25,0.16,0.49,0.33,0.72,0.53l-0.68,0.81
						c-0.18-0.16-0.37-0.31-0.56-0.44c-0.2-0.13-0.41-0.24-0.64-0.34c-0.23-0.09-0.48-0.17-0.75-0.22
						c-0.27-0.05-0.57-0.08-0.91-0.08c-0.52,0-1,0.1-1.44,0.31c-0.44,0.21-0.81,0.48-1.13,0.83c-0.31,0.35-0.56,0.76-0.74,1.23
						c-0.18,0.47-0.27,0.97-0.27,1.5c0,0.56,0.09,1.09,0.26,1.57c0.17,0.48,0.42,0.89,0.74,1.24c0.32,0.35,0.71,0.62,1.17,0.82
						c0.46,0.2,0.97,0.3,1.54,0.3c0.54,0,1.04-0.09,1.52-0.28c0.47-0.18,0.87-0.41,1.19-0.67v-2.34h-2.86v-0.94h3.88v3.73
						C199.58,136.3,199.04,136.64,198.4,136.92z"/>
					<path id="XMLID_2374_" d="M214.24,137.18l-2.72-3.65h-2.68v3.65h-1.06v-9.39h4.04c0.52,0,0.99,0.07,1.4,0.2
						c0.42,0.13,0.77,0.32,1.07,0.57c0.3,0.25,0.52,0.54,0.68,0.89c0.16,0.34,0.24,0.73,0.24,1.15c0,0.39-0.06,0.74-0.19,1.05
						c-0.13,0.31-0.3,0.58-0.53,0.81c-0.23,0.23-0.5,0.42-0.81,0.57c-0.31,0.15-0.65,0.26-1.02,0.32l2.88,3.83L214.24,137.18
						L214.24,137.18z M213.52,129.26c-0.42-0.33-1.01-0.49-1.78-0.49h-2.91v3.82h2.89c0.35,0,0.67-0.04,0.97-0.13
						c0.3-0.09,0.55-0.22,0.77-0.38c0.22-0.17,0.38-0.37,0.5-0.61c0.12-0.24,0.18-0.52,0.18-0.82
						C214.15,130.04,213.94,129.58,213.52,129.26z"/>
					<path id="XMLID_2377_" d="M231.59,137.18h-1.14l-1.1-2.48h-5.11l-1.11,2.48h-1.09l4.28-9.46h0.99L231.59,137.18z M226.8,128.97
						l-2.15,4.79h4.28L226.8,128.97z"/>
					<path id="XMLID_2390_" d="M245.55,132.12c-0.2,0.38-0.46,0.71-0.8,0.97c-0.34,0.26-0.73,0.45-1.17,0.58
						c-0.45,0.13-0.92,0.19-1.42,0.19h-2.28v3.31h-1.06v-9.39h3.52c0.53,0,1.01,0.07,1.44,0.21c0.43,0.14,0.81,0.34,1.11,0.59
						c0.31,0.25,0.55,0.57,0.71,0.94c0.17,0.37,0.25,0.79,0.25,1.25C245.84,131.29,245.74,131.73,245.55,132.12z M244.09,129.28
						c-0.46-0.34-1.07-0.52-1.84-0.52h-2.38v4.13h2.33c0.39,0,0.74-0.05,1.06-0.15c0.32-0.1,0.59-0.24,0.82-0.42
						c0.23-0.18,0.4-0.4,0.52-0.66c0.12-0.25,0.18-0.54,0.18-0.85C244.78,130.14,244.55,129.63,244.09,129.28z"/>
					<path id="XMLID_2393_" d="M254.2,132.95v4.23h-1.06v-9.39h1.06v4.17h5.42v-4.17h1.06v9.39h-1.06v-4.23H254.2z"/>
					<path id="XMLID_2400_" d="M272.71,137.18h-1.06v-3.72l-3.9-5.68h1.29l3.16,4.7l3.19-4.7h1.23l-3.9,5.66L272.71,137.18
						L272.71,137.18z"/>
				</g>
				<g id="XMLID_1740_">
					<g id="XMLID_3244_">
						<path id="XMLID_723_" d="M120.82,102.68c0.15,0.33,0.44,0.64,0.84,0.92c0.41,0.29,0.97,0.55,1.69,0.79
							c0.72,0.24,1.63,0.5,2.73,0.76c1.21,0.31,2.29,0.65,3.23,1.02c0.94,0.37,1.71,0.83,2.33,1.37c0.62,0.54,1.09,1.17,1.41,1.88
							c0.32,0.72,0.48,1.56,0.48,2.52c0,1.1-0.2,2.08-0.61,2.94c-0.4,0.86-0.97,1.58-1.69,2.18c-0.72,0.59-1.59,1.05-2.6,1.35
							c-1.01,0.31-2.12,0.46-3.33,0.46c-1.78,0-3.49-0.3-5.12-0.91c-1.63-0.6-3.14-1.53-4.52-2.79l2.44-2.9
							c1.12,0.97,2.26,1.71,3.4,2.23c1.14,0.52,2.44,0.78,3.89,0.78c1.25,0,2.25-0.26,2.99-0.79c0.74-0.53,1.11-1.24,1.11-2.15
							c0-0.42-0.07-0.79-0.22-1.12c-0.14-0.33-0.41-0.63-0.79-0.91c-0.39-0.27-0.92-0.53-1.59-0.78c-0.67-0.24-1.55-0.5-2.63-0.76
							c-1.24-0.29-2.33-0.6-3.29-0.96c-0.96-0.35-1.76-0.79-2.42-1.32c-0.65-0.53-1.15-1.17-1.49-1.91
							c-0.34-0.75-0.51-1.66-0.51-2.74c0-1.01,0.2-1.93,0.59-2.76c0.39-0.83,0.93-1.53,1.62-2.13c0.69-0.59,1.51-1.05,2.48-1.37
							c0.97-0.32,2.02-0.48,3.17-0.48c1.69,0,3.22,0.25,4.57,0.74c1.35,0.5,2.62,1.22,3.81,2.16l-2.18,3.07
							c-1.06-0.77-2.1-1.36-3.14-1.77c-1.03-0.41-2.08-0.61-3.14-0.61c-1.19,0-2.11,0.27-2.77,0.81c-0.66,0.54-0.99,1.19-0.99,1.96
							C120.59,101.95,120.67,102.35,120.82,102.68z"/>
					</g>
					<g id="XMLID_3246_">
						<path id="XMLID_733_" d="M154.19,118.55h-4.09V99.21h-7.33v-3.76h18.75v3.76h-7.33V118.55z"/>
					</g>
					<g id="XMLID_3248_">
						<path id="XMLID_741_" d="M191.82,108.55c0,1.72-0.24,3.22-0.71,4.52c-0.47,1.3-1.14,2.38-2,3.25
							c-0.86,0.87-1.9,1.52-3.12,1.95c-1.22,0.43-2.59,0.64-4.11,0.64c-1.5,0-2.85-0.21-4.06-0.64c-1.21-0.43-2.24-1.07-3.1-1.93
							c-0.86-0.86-1.52-1.92-1.98-3.18c-0.46-1.27-0.69-2.73-0.69-4.41v-13.3h4.03v13.14c0,2.16,0.52,3.8,1.56,4.92
							c1.04,1.12,2.48,1.68,4.32,1.68c1.81,0,3.24-0.54,4.28-1.62c1.04-1.08,1.56-2.68,1.56-4.82v-13.3h4.03L191.82,108.55
							L191.82,108.55z"/>
					</g>
					<g id="XMLID_3250_">
						<path id="XMLID_742_" d="M224,111.54c-0.59,1.42-1.44,2.65-2.52,3.68c-1.09,1.03-2.39,1.85-3.89,2.44
							c-1.51,0.59-3.16,0.89-4.97,0.89H204v-23.1h8.61c1.8,0,3.46,0.29,4.97,0.87c1.51,0.58,2.81,1.39,3.89,2.43
							c1.09,1.03,1.93,2.26,2.52,3.66c0.59,1.41,0.89,2.93,0.89,4.55C224.89,108.6,224.59,110.12,224,111.54z M220.05,103.87
							c-0.39-0.96-0.93-1.8-1.62-2.5c-0.7-0.71-1.54-1.26-2.53-1.66c-0.99-0.4-2.1-0.6-3.31-0.6h-4.57v15.78h4.57
							c1.21,0,2.32-0.19,3.31-0.58c0.99-0.39,1.84-0.93,2.53-1.62c0.69-0.7,1.24-1.52,1.62-2.49c0.39-0.96,0.58-2.02,0.58-3.17
							C220.63,105.88,220.44,104.83,220.05,103.87z"/>
					</g>
					<g id="XMLID_3253_">
						<path id="XMLID_772_" d="M240.67,95.45v23.1h-4.03v-23.1H240.67z"/>
					</g>
					<g id="XMLID_3255_">
						<path id="XMLID_1072_" d="M275.72,111.59c-0.59,1.45-1.43,2.72-2.51,3.81c-1.08,1.09-2.36,1.95-3.83,2.59
							c-1.47,0.64-3.1,0.96-4.88,0.96s-3.41-0.31-4.88-0.94c-1.47-0.63-2.74-1.48-3.8-2.56c-1.06-1.08-1.88-2.34-2.48-3.8
							c-0.59-1.45-0.89-2.99-0.89-4.62c0-1.63,0.3-3.17,0.89-4.62c0.59-1.45,1.43-2.72,2.51-3.81c1.08-1.09,2.35-1.95,3.83-2.59
							c1.47-0.64,3.1-0.96,4.88-0.96s3.41,0.31,4.88,0.94c1.47,0.63,2.74,1.48,3.8,2.56c1.06,1.08,1.88,2.34,2.48,3.8
							c0.59,1.45,0.89,2.99,0.89,4.62C276.61,108.6,276.31,110.14,275.72,111.59z M271.77,103.85c-0.39-1-0.92-1.88-1.62-2.62
							c-0.69-0.75-1.52-1.34-2.49-1.78c-0.97-0.44-2.02-0.66-3.17-0.66c-1.14,0-2.19,0.21-3.15,0.64c-0.96,0.43-1.78,1.01-2.46,1.75
							c-0.68,0.74-1.22,1.61-1.6,2.61c-0.39,1-0.58,2.06-0.58,3.19c0,1.12,0.19,2.18,0.58,3.18c0.38,1,0.92,1.88,1.62,2.62
							c0.69,0.75,1.52,1.34,2.49,1.78c0.97,0.44,2.02,0.66,3.17,0.66c1.14,0,2.19-0.21,3.15-0.64c0.96-0.43,1.78-1.01,2.46-1.75
							c0.68-0.74,1.22-1.61,1.6-2.61c0.38-1,0.58-2.06,0.58-3.18C272.35,105.91,272.16,104.85,271.77,103.85z"/>
					</g>
				</g>
			</g>
			<path id="XMLID_1227_" d="M89.13,114.47l30.86-53.46c-19.27,2.58-35.42,15.02-43.21,32.08L89.13,114.47z"/>
			<path id="XMLID_1228_" class="st59" d="M122.13,60.76l-12.34,21.37h61.72c-10.19-13.15-26.13-21.62-44.05-21.62
				C125.66,60.51,123.88,60.6,122.13,60.76z"/>
			<path id="XMLID_1243_" d="M132.8,171.63l12.34-21.37H83.41c10.19,13.15,26.13,21.62,44.05,21.62
				C129.26,171.88,131.04,171.79,132.8,171.63z"/>
			<path id="XMLID_1246_" class="st59" d="M88.56,116.94L88.56,116.94l-0.6-1.04L75.93,95.07c-2.67,6.52-4.15,13.65-4.15,21.13
				c0,12.06,3.83,23.22,10.35,32.34h24.68L88.56,116.94z"/>
		</g>
	</g>
</g>
</svg>
