<?xml version="1.0" encoding="utf-8"?>
<!-- Generator: Adobe Illustrator 27.8.1, SVG Export Plug-In . SVG Version: 6.00 Build 0)  -->
<svg version="1.1" id="Layer_1" xmlns="http://www.w3.org/2000/svg" xmlns:xlink="http://www.w3.org/1999/xlink" x="0px" y="0px"
	 viewBox="0 0 348 228" style="enable-background:new 0 0 348 228;" xml:space="preserve">
<style type="text/css">
	.st0{fill:#D6EADE;}
	.st1{fill:#03487C;}
	.st2{fill:#1B1B4C;}
	.st3{fill:none;}
	.st4{fill-rule:evenodd;clip-rule:evenodd;fill:#204F7A;}
	.st5{fill-rule:evenodd;clip-rule:evenodd;fill:#50A4FF;}
	.st6{fill:#002649;}
	.st7{fill:#E6E7E8;stroke:#CFCFCF;stroke-width:0.1061;}
	.st8{fill:#333333;}
	.st9{fill-rule:evenodd;clip-rule:evenodd;fill:#277FC1;}
	.st10{fill-rule:evenodd;clip-rule:evenodd;fill:#083D6D;}
	.st11{fill:#DDB462;}
	
		.st12{clip-path:url(#SVGID_00000044150586512283757030000003214100436654619271_);fill:url(#SVGID_00000153696919385081531820000000429972456553476030_);}
	.st13{fill:#FFFFFF;}
	.st14{fill:url(#SVGID_00000053509842310989662470000010451902371867655088_);}
	.st15{fill:#224685;}
	.st16{fill:#FFC73B;}
	.st17{fill:#11233F;}
	.st18{fill:#5267FF;}
	.st19{fill-rule:evenodd;clip-rule:evenodd;fill:#72342E;}
	.st20{fill:#72342E;}
	.st21{fill:#FFF2E2;}
	.st22{fill:#FFF2E2;stroke:#72342E;stroke-width:0.75;stroke-miterlimit:10;}
	.st23{fill:#FFCC99;}
	.st24{fill:#469CB2;}
	.st25{fill:url(#XMLID_00000135656212733071249650000000021313513083678372_);}
	.st26{fill:url(#XMLID_00000180352441001453379000000016312528266828826527_);}
	.st27{fill:url(#XMLID_00000013190813226990499460000004841369024091562654_);}
	.st28{fill:url(#XMLID_00000181795228251092194280000008346305097004177071_);}
	.st29{fill:url(#XMLID_00000087404961869749788600000011578728258377410206_);}
	.st30{fill:url(#XMLID_00000040534847332614147660000006223913785113296782_);}
	.st31{fill:url(#XMLID_00000113315375217487593210000009826915651269449394_);}
	.st32{fill:url(#XMLID_00000127727252423780796970000001189540166557195939_);}
	.st33{fill:url(#XMLID_00000119118995050250746240000000602426198936331399_);}
	.st34{fill:url(#XMLID_00000023974436608452748260000013315568630805390981_);}
	.st35{fill:url(#XMLID_00000112607999159069971140000016433385929171082119_);}
	.st36{fill:url(#XMLID_00000005968885983785777180000002081248338457783992_);}
	.st37{fill:url(#XMLID_00000009568486862654743210000018226121924844427431_);}
	.st38{fill:url(#XMLID_00000036211639771101658610000007751120783126649769_);}
	.st39{fill:url(#XMLID_00000063601163807673799060000004653220980137030787_);}
	.st40{fill:url(#SVGID_00000119822432945249796390000001536242746812977797_);}
	.st41{fill:url(#SVGID_00000176028916793444440730000002302712971590085559_);}
	.st42{fill:url(#SVGID_00000124852312200812120580000015352984562158274955_);}
	.st43{fill:url(#SVGID_00000074438442809398182780000008966536099925524913_);}
	.st44{fill:url(#SVGID_00000078045419422382455600000009607697282401245081_);}
	.st45{fill:url(#SVGID_00000136381057000664808680000004424084808014931641_);}
	.st46{fill:url(#SVGID_00000026161772162480225980000008317103667445976705_);}
	.st47{fill:url(#SVGID_00000019640352163348260520000013868401343742765447_);}
	.st48{fill:url(#SVGID_00000136401459036336047830000011535928935803278764_);}
	.st49{fill:url(#SVGID_00000006704474012649170010000010661183252375363501_);}
	.st50{fill:url(#SVGID_00000070807345440756179740000001237206711506885253_);}
	.st51{fill:url(#SVGID_00000007393262759608579380000015060738502134705045_);}
	.st52{fill:url(#SVGID_00000165199547324060244280000005634133824706819209_);}
	.st53{fill:url(#SVGID_00000139254567585924122180000018281911890725168300_);}
	.st54{fill:#30325E;}
	.st55{fill:#FF7859;}
	.st56{fill:#FFD550;}
	.st57{fill:#00C3AD;}
	.st58{fill:#FF4653;}
	.st59{fill:#D8CE19;}
	.st60{fill:#FFE4D2;}
	.st61{fill:#A2E0EB;}
	.st62{fill:#1B3493;}
	.st63{fill:none;stroke:#FFFFFF;stroke-width:2;stroke-linecap:round;stroke-linejoin:round;stroke-miterlimit:10;}
	.st64{fill:#F15A24;}
	.st65{fill:#F7931E;}
	.st66{fill:#58595B;}
	.st67{fill:#114E15;}
	.st68{fill:#013D01;}
	.st69{fill:#E9C608;}
	.st70{fill:#043B00;}
	.st71{fill:#D8A43E;}
	.st72{clip-path:url(#SVGID_00000121976574706619083830000012802697336378398902_);}
	.st73{fill:#F49630;}
	.st74{clip-path:url(#SVGID_00000005230263682422896040000012476446278226502318_);}
	.st75{clip-path:url(#SVGID_00000033356809458696519330000016627648465756602759_);}
	.st76{clip-path:url(#SVGID_00000025400349429246414520000017322947873050857398_);}
	.st77{clip-path:url(#SVGID_00000176762536280996439190000015115866692333065119_);}
	.st78{fill-rule:evenodd;clip-rule:evenodd;fill:#FF6600;}
	.st79{fill-rule:evenodd;clip-rule:evenodd;fill:#05174F;}
	.st80{fill:#05174F;}
	.st81{opacity:0.42;fill:url(#SVGID_00000158028863349506947410000014216156803901717413_);enable-background:new    ;}
	.st82{opacity:0.42;fill:url(#SVGID_00000168822603868909740230000010967021784380424117_);enable-background:new    ;}
	.st83{fill:url(#SVGID_00000062174379891079294480000000211779510570600334_);}
	.st84{fill:url(#SVGID_00000145754563065998256440000007324631084885041813_);}
	.st85{opacity:0.64;fill:url(#SVGID_00000127035325068049179160000017338786705451864457_);enable-background:new    ;}
	.st86{opacity:0.75;fill:url(#SVGID_00000123403015003174327180000014197118176090591934_);enable-background:new    ;}
	.st87{fill:url(#SVGID_00000096038867884764907070000012407322514590773923_);}
	.st88{fill:url(#SVGID_00000155827328951953515280000013023242611920236945_);}
	.st89{opacity:0.76;fill:url(#SVGID_00000012452666779499372910000004459973129105034154_);enable-background:new    ;}
	.st90{opacity:0.75;fill:url(#SVGID_00000173842756972043160750000012651808874659259830_);enable-background:new    ;}
	.st91{fill:url(#SVGID_00000152228755291784049020000018224148408663475897_);}
	.st92{opacity:0.42;fill:url(#SVGID_00000013173998787776885540000015778642352192395675_);enable-background:new    ;}
	.st93{opacity:0.42;fill:url(#SVGID_00000036211054480433928700000001519656844411185039_);enable-background:new    ;}
	.st94{clip-path:url(#SVGID_00000031199279159435327960000002068188339144049318_);}
	.st95{fill:#1ED7FE;}
	.st96{clip-path:url(#SVGID_00000069356422190047826080000000410602544931061135_);}
	.st97{clip-path:url(#SVGID_00000118395726310099458110000000618365331028011143_);}
	.st98{fill:#000056;}
	.st99{clip-path:url(#SVGID_00000003785015954132872640000013664938615480960656_);}
	.st100{fill:#053272;}
	.st101{fill:none;stroke:#053272;stroke-width:4;stroke-miterlimit:10;}
	.st102{fill:url(#SVGID_00000065758204137954659650000013035585334141361549_);}
	.st103{fill:url(#SVGID_00000057121109378049906890000017524023399681412532_);}
	.st104{fill:url(#SVGID_00000071558608930767420430000011098275543832059548_);}
	.st105{fill:url(#SVGID_00000096037359176343532970000000964609701391716483_);}
	.st106{fill:url(#SVGID_00000080896076066377917720000013109385273640742587_);}
	.st107{fill:url(#SVGID_00000052091952032015992520000016842751612761210794_);}
	.st108{fill:url(#SVGID_00000064344800901784636020000006094173118658264246_);}
	.st109{fill:url(#SVGID_00000164481975087951473970000015730478067108323255_);}
	.st110{fill:url(#SVGID_00000131358996009743021680000012738332312720389805_);}
	.st111{fill:url(#SVGID_00000125573349596590362140000013293790962644008066_);}
	.st112{fill:url(#SVGID_00000042722979943761535870000007520355651720655527_);}
	.st113{fill:url(#SVGID_00000079472430501789358520000009230829686207373206_);}
	.st114{fill:url(#SVGID_00000133523086755827247820000010073897744381886601_);}
	.st115{fill:url(#SVGID_00000101086992211224205320000010846154054624377000_);}
	.st116{fill:url(#SVGID_00000006681390688866765560000000970027632431949748_);}
	.st117{fill:url(#SVGID_00000148660462619916200230000005581715320414339473_);}
	.st118{fill:url(#SVGID_00000095313596763753458960000007063624510793563012_);}
	.st119{fill:url(#SVGID_00000078738893109458965140000012003080144228687525_);}
	.st120{fill:url(#SVGID_00000018936462086927546610000008702557045106528943_);}
	.st121{fill:url(#SVGID_00000049909159007693583930000002741198670887849389_);}
	.st122{fill:url(#SVGID_00000079474135074884123860000008346399080514343355_);}
	.st123{fill:url(#SVGID_00000048476941114020153280000008394342074303119023_);}
	.st124{fill:url(#SVGID_00000070818235563865302930000003131854433088586635_);}
	.st125{fill:url(#SVGID_00000114067110582700290290000008090581880854567344_);}
	.st126{fill:url(#SVGID_00000039842959311857886240000011927694818819382673_);}
	.st127{fill:url(#SVGID_00000126320100597942913410000012000026206086312868_);}
	.st128{fill:url(#SVGID_00000140712706883019550620000001788764670357237888_);}
	.st129{fill:url(#SVGID_00000029013135378865027070000016837529043815818165_);}
	.st130{fill:url(#SVGID_00000021835060271334457270000018022020381532294293_);}
	.st131{fill:none;stroke:#FEF73D;stroke-linecap:round;stroke-miterlimit:10;}
	.st132{fill:none;stroke:#FF189C;stroke-miterlimit:10;}
	.st133{fill:none;stroke:#00EFF1;stroke-linecap:round;stroke-miterlimit:10;}
	.st134{fill:#00EFF1;}
	.st135{fill:#FFA022;}
	.st136{fill:#0C103A;}
	.st137{fill-rule:evenodd;clip-rule:evenodd;fill:#5D9541;}
	.st138{fill-rule:evenodd;clip-rule:evenodd;fill:#F06021;}
	.st139{fill-rule:evenodd;clip-rule:evenodd;fill:#69BC60;}
	.st140{fill-rule:evenodd;clip-rule:evenodd;fill:#F6951C;}
	.st141{fill:#F6951C;}
	.st142{fill:url(#SVGID_00000082370611286834593970000012476647554781094027_);}
	.st143{fill:url(#SVGID_00000176737916672959997130000013305201230051631027_);}
	.st144{fill:url(#SVGID_00000008861173322268595240000010951702807738677183_);}
	.st145{opacity:0.93;fill:url(#SVGID_00000183932869423941621910000003273468138785242554_);}
	.st146{opacity:0.93;fill:url(#SVGID_00000055668289250541091700000012670118735208608659_);}
	.st147{opacity:0.93;fill:url(#SVGID_00000010305429368903455780000002424566417860665988_);}
	.st148{opacity:0.93;fill:url(#SVGID_00000144318876724233686420000009885167523870165645_);}
	.st149{fill:url(#SVGID_00000069377029387547779330000000636690758998357149_);}
	.st150{fill:url(#SVGID_00000137118872746542153480000010736600072750266272_);}
	.st151{fill:url(#SVGID_00000162320392065993899360000016442508652221518214_);}
	.st152{fill:url(#SVGID_00000144331738229495715010000010252392627079492780_);}
	.st153{fill:url(#SVGID_00000156572619708812454450000005789828820720774043_);}
	.st154{fill:url(#SVGID_00000118392626991811857830000000931088758625872055_);}
	.st155{fill:url(#SVGID_00000170964045342106276800000003605346786687760031_);}
	.st156{fill:url(#SVGID_00000155835456976217934670000017356773357878247844_);}
	.st157{fill:url(#SVGID_00000025438591748739494290000001082457993641267852_);}
	.st158{fill:url(#SVGID_00000037670789168970072230000005137992026104714409_);}
	.st159{fill:url(#SVGID_00000013883652605116568430000015139997170478011295_);}
	.st160{fill:url(#SVGID_00000103234277267991356540000009297432634238540678_);}
	.st161{fill:url(#SVGID_00000074414454938410879180000017601082320466382516_);}
	.st162{fill:url(#SVGID_00000182506885225081079400000000293816439372196992_);}
	.st163{fill:url(#SVGID_00000093893195465804141460000007386871906830603949_);}
	.st164{fill:url(#SVGID_00000176764606341810011250000012372395804734503556_);}
	.st165{fill:url(#SVGID_00000011723851211480964820000006820569308050284204_);}
	.st166{fill:url(#SVGID_00000125602209054646234720000012904531153832614536_);}
	.st167{fill:url(#SVGID_00000128481447508860888810000015675839164263607452_);}
	.st168{fill:url(#SVGID_00000143604084118675020190000001546693802114849198_);}
	.st169{fill:url(#SVGID_00000076582401183591051870000006809712677533199760_);}
	.st170{fill:url(#SVGID_00000008114290769275992530000002561981685481016992_);}
	.st171{fill:url(#SVGID_00000127025521211115487080000015688597545390820249_);}
	.st172{fill:url(#SVGID_00000017491262416620205540000009284587914066330261_);}
	.st173{fill:url(#SVGID_00000134933983263162949510000008988450145891061417_);}
	.st174{fill:url(#SVGID_00000080912005188701118230000017210906186442554497_);}
	.st175{fill:url(#SVGID_00000168838441529329132360000006383879997937644944_);}
	.st176{fill:url(#SVGID_00000093888539860806034180000003952132488803100831_);}
	.st177{fill:url(#SVGID_00000062875639869971391200000002930423536566967462_);}
	.st178{fill:url(#SVGID_00000031192535991489440630000015911149527845157050_);}
	.st179{fill:url(#SVGID_00000181050512452295239660000004857352489529043844_);}
	.st180{fill:url(#SVGID_00000173135178980872099670000013861457405600208778_);}
	.st181{fill:url(#SVGID_00000020357359120737103500000002623089820223804032_);}
	.st182{fill:url(#SVGID_00000085966915334968461210000017291988742540468633_);}
	.st183{fill:url(#SVGID_00000141438300357657014710000015633058137159734188_);}
	.st184{fill:url(#SVGID_00000149377734622456168690000009796369932595508894_);}
	.st185{fill:url(#SVGID_00000095318666091795983020000017479362874189562022_);}
	.st186{fill:url(#SVGID_00000010309674811095363710000004333462833848017586_);}
	.st187{fill:url(#SVGID_00000100377544916302667980000007833779185344307331_);}
	.st188{fill:url(#SVGID_00000108295165076284923710000010476174226919093436_);}
	.st189{fill:url(#SVGID_00000063594244607247519010000009711780261430951350_);}
	.st190{fill:url(#SVGID_00000004518829452718779780000006936255117977197469_);}
	.st191{fill:url(#SVGID_00000096746181877753549150000012287802649126210688_);}
	.st192{fill:url(#SVGID_00000018233676998882062870000007267487256482283924_);}
	.st193{fill:url(#SVGID_00000093861198982163738040000011711609163746014123_);}
	.st194{fill-rule:evenodd;clip-rule:evenodd;fill:#512100;}
	.st195{fill-rule:evenodd;clip-rule:evenodd;fill:#006D62;}
	.st196{fill-rule:evenodd;clip-rule:evenodd;}
	.st197{fill-rule:evenodd;clip-rule:evenodd;fill:#00A1F5;}
	.st198{fill-rule:evenodd;clip-rule:evenodd;fill:#FACFAB;}
	.st199{fill-rule:evenodd;clip-rule:evenodd;fill:#F29673;}
	.st200{fill-rule:evenodd;clip-rule:evenodd;fill:#FFFFFF;}
	.st201{fill-rule:evenodd;clip-rule:evenodd;fill:#333333;}
	.st202{fill-rule:evenodd;clip-rule:evenodd;fill:#BD4D00;}
	.st203{fill-rule:evenodd;clip-rule:evenodd;fill:#B2B2B2;}
	.st204{fill-rule:evenodd;clip-rule:evenodd;fill:#F2CC29;}
	.st205{fill-rule:evenodd;clip-rule:evenodd;fill:#005C9C;}
	.st206{fill-rule:evenodd;clip-rule:evenodd;fill:#8AC900;}
	.st207{fill-rule:evenodd;clip-rule:evenodd;fill:#808080;}
	.st208{fill-rule:evenodd;clip-rule:evenodd;fill:#CFA605;}
	.st209{fill-rule:evenodd;clip-rule:evenodd;fill:#666666;}
	.st210{fill-rule:evenodd;clip-rule:evenodd;fill:#CCCCCC;}
	.st211{fill:#960000;}
	.st212{fill:url(#SVGID_00000088128122855437726650000001780272746023639719_);}
	.st213{fill:url(#SVGID_00000070120250673004083060000009962549831946840709_);}
	.st214{opacity:0.51;fill:url(#SVGID_00000108291790213002632830000004944939025329173906_);}
	.st215{fill:url(#SVGID_00000114048694698933466830000008894883816134915733_);}
	.st216{fill:url(#SVGID_00000129185615711892359330000015714975921439258778_);}
	.st217{fill:url(#SVGID_00000060032063392528122580000000504330099482715537_);}
	.st218{opacity:0.35;fill:url(#SVGID_00000010999896063499817550000008207793095567398298_);}
	.st219{opacity:0.35;fill:url(#SVGID_00000041277969231972135800000010735760119753482160_);}
	.st220{fill:#F06021;}
	.st221{fill-rule:evenodd;clip-rule:evenodd;fill:url(#SVGID_00000088824140361057071280000014709573472566631308_);}
	.st222{fill-rule:evenodd;clip-rule:evenodd;fill:url(#SVGID_00000000934382458142565410000017099753776600510904_);}
	.st223{fill-rule:evenodd;clip-rule:evenodd;fill:url(#SVGID_00000163067743777712168310000012616057788464872585_);}
	.st224{fill-rule:evenodd;clip-rule:evenodd;fill:url(#SVGID_00000166661327866162907840000018021884554109748137_);}
	.st225{fill-rule:evenodd;clip-rule:evenodd;fill:url(#SVGID_00000101100725918865379230000014639435660738955143_);}
	.st226{fill-rule:evenodd;clip-rule:evenodd;fill:url(#SVGID_00000043450555458981797410000000392162992966900630_);}
	.st227{fill-rule:evenodd;clip-rule:evenodd;fill:url(#SVGID_00000101086322816387611760000007563356628782761877_);}
	.st228{fill-rule:evenodd;clip-rule:evenodd;fill:url(#SVGID_00000130636391840118683790000008541596644206124464_);}
	.st229{fill-rule:evenodd;clip-rule:evenodd;fill:url(#SVGID_00000005226336304122262250000017468240851194314682_);}
	.st230{fill-rule:evenodd;clip-rule:evenodd;fill:url(#SVGID_00000045614911081901858360000015789095631978952621_);}
	.st231{fill-rule:evenodd;clip-rule:evenodd;fill:url(#SVGID_00000109014395515703670830000011852541691954297759_);}
	.st232{fill-rule:evenodd;clip-rule:evenodd;fill:url(#SVGID_00000180332219881813088950000018237256209106310309_);}
	.st233{fill-rule:evenodd;clip-rule:evenodd;fill:url(#SVGID_00000109003301178488493730000008591625937345285564_);}
	.st234{opacity:0.5;fill-rule:evenodd;clip-rule:evenodd;fill:#5D0101;enable-background:new    ;}
	.st235{fill:#E11B22;}
	.st236{fill:#959595;}
	.st237{fill:#003359;}
	.st238{fill:#1779C1;}
	.st239{fill:#0EB17C;}
	.st240{fill:#2B2353;}
	.st241{fill:#BE264E;}
	.st242{fill:#EAA41C;}
	.st243{fill:#1F9EF3;}
	.st244{fill:#0267A3;}
	.st245{fill:#FFEC00;}
	.st246{fill:#00A0E0;}
	.st247{fill:#E3007E;}
	.st248{fill:none;stroke:#000000;stroke-width:2;stroke-miterlimit:10;}
</style>
<rect width="348" height="228"/>
<g>
	<g id="XMLID_7724_">
		<g id="XMLID_7736_">
			<g id="XMLID_7762_">
				
					<radialGradient id="XMLID_00000023268066780769757730000007776392573612285568_" cx="75.8228" cy="164.7551" r="5.4889" gradientUnits="userSpaceOnUse">
					<stop  offset="0" style="stop-color:#FFFFFF"/>
					<stop  offset="1" style="stop-color:#FFCC99"/>
				</radialGradient>
				<path id="XMLID_7776_" style="fill:url(#XMLID_00000023268066780769757730000007776392573612285568_);" d="M79.15,166.53
					c-0.08-0.22-0.18-0.43-0.29-0.61c-0.11-0.19-0.24-0.37-0.4-0.54c-0.04-0.05-0.09-0.1-0.14-0.15c0.21-0.08,0.41-0.17,0.58-0.28
					c0.33-0.2,0.6-0.45,0.81-0.74c0.21-0.29,0.37-0.62,0.47-0.98c0.1-0.35,0.15-0.74,0.15-1.15c0-0.66-0.12-1.21-0.35-1.64
					c-0.23-0.44-0.55-0.78-0.94-1.03c-0.38-0.24-0.82-0.41-1.3-0.5c-0.46-0.09-0.95-0.14-1.45-0.14h-5.43v11.98h1.42v-5.14H76
					c0.27,0,0.5,0.05,0.69,0.14c0.2,0.09,0.38,0.23,0.53,0.39c0.16,0.17,0.3,0.37,0.43,0.61c0.13,0.25,0.25,0.51,0.35,0.79
					l1.21,3.22h1.55l-1.33-3.5L79.15,166.53z M72.31,160.19h3.9c0.92,0,1.61,0.15,2.06,0.45c0.41,0.28,0.61,0.75,0.61,1.44
					c0,0.4-0.06,0.74-0.17,1.01c-0.1,0.26-0.26,0.46-0.48,0.62c-0.22,0.16-0.52,0.29-0.88,0.36c-0.38,0.08-0.85,0.12-1.39,0.12
					h-3.66V160.19z"/>
				
					<radialGradient id="XMLID_00000067233462978630237100000003195609625353641151_" cx="96.3561" cy="164.7551" r="5.2611" gradientUnits="userSpaceOnUse">
					<stop  offset="0" style="stop-color:#FFFFFF"/>
					<stop  offset="1" style="stop-color:#FFCC99"/>
				</radialGradient>
				<polygon id="XMLID_7775_" style="fill:url(#XMLID_00000067233462978630237100000003195609625353641151_);" points="
					93.37,165.23 100.04,165.23 100.04,163.81 93.37,163.81 93.37,160.19 100.49,160.19 100.49,158.76 91.95,158.76 91.95,170.75 
					100.77,170.75 100.77,169.32 93.37,169.32 				"/>
				
					<radialGradient id="XMLID_00000040534858195806633110000004049144422200619658_" cx="116.2903" cy="164.7499" r="5.7746" gradientUnits="userSpaceOnUse">
					<stop  offset="0" style="stop-color:#FFFFFF"/>
					<stop  offset="1" style="stop-color:#FFCC99"/>
				</radialGradient>
				<path id="XMLID_7772_" style="fill:url(#XMLID_00000040534858195806633110000004049144422200619658_);" d="M115.36,158.75
					l-0.07,0.19c-0.37,0.98-0.74,1.94-1.11,2.88l-2.17,5.63c-0.36,0.94-0.73,1.91-1.11,2.89l-0.15,0.4h1.52l0.75-2.03
					c0.21-0.57,0.41-1.11,0.59-1.63h5.19l1.39,3.66h1.64l-4.89-11.99H115.36z M114.05,165.84l2.08-5.25l2.19,5.25H114.05z"/>
				
					<radialGradient id="XMLID_00000083065198443253566060000002700744356237448888_" cx="135.9219" cy="164.7551" r="4.9616" gradientUnits="userSpaceOnUse">
					<stop  offset="0" style="stop-color:#FFFFFF"/>
					<stop  offset="1" style="stop-color:#FFCC99"/>
				</radialGradient>
				<polygon id="XMLID_7771_" style="fill:url(#XMLID_00000083065198443253566060000002700744356237448888_);" points="
					133.69,158.76 132.27,158.76 132.27,170.75 139.57,170.75 139.57,169.32 133.69,169.32 				"/>
				
					<radialGradient id="XMLID_00000176004293285268357010000011236248755524050323_" cx="173.7503" cy="164.7551" r="5.2611" gradientUnits="userSpaceOnUse">
					<stop  offset="0" style="stop-color:#FFFFFF"/>
					<stop  offset="1" style="stop-color:#FFCC99"/>
				</radialGradient>
				<polygon id="XMLID_7770_" style="fill:url(#XMLID_00000176004293285268357010000011236248755524050323_);" points="
					170.76,165.23 177.43,165.23 177.43,163.81 170.76,163.81 170.76,160.19 177.88,160.19 177.88,158.76 169.34,158.76 
					169.34,170.75 178.16,170.75 178.16,169.32 170.76,169.32 				"/>
				
					<radialGradient id="XMLID_00000165942568464083611090000008821472530309821881_" cx="193.6325" cy="164.7551" r="5.511" gradientUnits="userSpaceOnUse">
					<stop  offset="0" style="stop-color:#FFFFFF"/>
					<stop  offset="1" style="stop-color:#FFCC99"/>
				</radialGradient>
				<path id="XMLID_7769_" style="fill:url(#XMLID_00000165942568464083611090000008821472530309821881_);" d="M197.52,165.24
					c-0.25-0.24-0.54-0.45-0.87-0.62c-0.32-0.16-0.66-0.29-1.01-0.4c-0.34-0.11-0.7-0.2-1.06-0.28c-0.35-0.08-0.7-0.15-1.03-0.22
					c-0.55-0.11-1.02-0.24-1.39-0.37c-0.35-0.12-0.63-0.27-0.84-0.42c-0.19-0.15-0.33-0.31-0.4-0.48c-0.08-0.18-0.12-0.41-0.12-0.66
					c0-0.56,0.22-0.98,0.66-1.3c0.47-0.34,1.19-0.51,2.14-0.51c0.46,0,0.86,0.05,1.21,0.15c0.34,0.1,0.64,0.23,0.89,0.41
					c0.24,0.17,0.44,0.37,0.59,0.6c0.15,0.23,0.27,0.49,0.33,0.76l0.06,0.22h1.37l-0.05-0.34c-0.07-0.5-0.23-0.96-0.47-1.36
					c-0.25-0.4-0.57-0.74-0.97-1.02c-0.39-0.28-0.85-0.49-1.37-0.63c-0.51-0.14-1.08-0.21-1.68-0.21c-0.61,0-1.18,0.08-1.68,0.23
					c-0.51,0.16-0.96,0.38-1.33,0.66c-0.38,0.29-0.67,0.64-0.88,1.05c-0.21,0.41-0.31,0.86-0.31,1.35c0,0.45,0.08,0.85,0.23,1.2
					c0.16,0.35,0.4,0.66,0.73,0.93c0.31,0.26,0.71,0.48,1.19,0.68c0.46,0.19,1.02,0.35,1.66,0.49c0.74,0.16,1.38,0.31,1.88,0.46
					c0.48,0.14,0.87,0.31,1.16,0.49c0.26,0.16,0.45,0.35,0.56,0.56c0.11,0.22,0.17,0.5,0.17,0.83c0,0.31-0.07,0.59-0.19,0.83
					c-0.13,0.25-0.32,0.46-0.57,0.64c-0.26,0.18-0.58,0.33-0.95,0.42c-0.38,0.1-0.81,0.15-1.29,0.15c-0.46,0-0.91-0.04-1.32-0.12
					c-0.39-0.08-0.75-0.21-1.05-0.39c-0.3-0.18-0.55-0.42-0.75-0.72c-0.2-0.3-0.35-0.69-0.42-1.16l-0.04-0.25h-1.39l0.02,0.32
					c0.04,0.57,0.17,1.09,0.39,1.55c0.23,0.47,0.56,0.87,0.99,1.2c0.42,0.32,0.94,0.57,1.55,0.75c0.6,0.17,1.31,0.26,2.1,0.26
					c0.62,0,1.2-0.09,1.73-0.26c0.54-0.17,1-0.42,1.4-0.74c0.4-0.32,0.71-0.71,0.93-1.15c0.22-0.45,0.34-0.94,0.34-1.47
					c0-0.46-0.08-0.87-0.23-1.22C197.98,165.78,197.77,165.48,197.52,165.24z"/>
				
					<radialGradient id="XMLID_00000001652499373583484610000003629435142562975150_" cx="213.3838" cy="164.7551" r="5.3744" gradientUnits="userSpaceOnUse">
					<stop  offset="0" style="stop-color:#FFFFFF"/>
					<stop  offset="1" style="stop-color:#FFCC99"/>
				</radialGradient>
				<polygon id="XMLID_7768_" style="fill:url(#XMLID_00000001652499373583484610000003629435142562975150_);" points="
					208.71,160.19 212.65,160.19 212.65,170.75 214.08,170.75 214.08,160.19 218.06,160.19 218.06,158.76 208.71,158.76 				"/>
				
					<radialGradient id="XMLID_00000178893081107202461620000014387882196489136555_" cx="233.0839" cy="164.7499" r="5.7746" gradientUnits="userSpaceOnUse">
					<stop  offset="0" style="stop-color:#FFFFFF"/>
					<stop  offset="1" style="stop-color:#FFCC99"/>
				</radialGradient>
				<path id="XMLID_7765_" style="fill:url(#XMLID_00000178893081107202461620000014387882196489136555_);" d="M232.16,158.75
					l-0.07,0.19c-0.37,0.98-0.74,1.94-1.11,2.88l-2.17,5.63c-0.36,0.94-0.73,1.91-1.11,2.89l-0.15,0.4h1.52l0.75-2.03
					c0.21-0.57,0.41-1.11,0.59-1.63h5.19l1.39,3.66h1.64l-4.89-11.99H232.16z M230.84,165.84l2.08-5.25l2.19,5.25H230.84z"/>
				
					<radialGradient id="XMLID_00000106838392363716509780000018136550243095636403_" cx="252.7831" cy="164.7551" r="5.3744" gradientUnits="userSpaceOnUse">
					<stop  offset="0" style="stop-color:#FFFFFF"/>
					<stop  offset="1" style="stop-color:#FFCC99"/>
				</radialGradient>
				<polygon id="XMLID_7764_" style="fill:url(#XMLID_00000106838392363716509780000018136550243095636403_);" points="
					248.11,160.19 252.05,160.19 252.05,170.75 253.47,170.75 253.47,160.19 257.46,160.19 257.46,158.76 248.11,158.76 				"/>
				
					<radialGradient id="XMLID_00000029031558805118489250000017605854903569628586_" cx="272.7013" cy="164.7551" r="5.2611" gradientUnits="userSpaceOnUse">
					<stop  offset="0" style="stop-color:#FFFFFF"/>
					<stop  offset="1" style="stop-color:#FFCC99"/>
				</radialGradient>
				<polygon id="XMLID_7763_" style="fill:url(#XMLID_00000029031558805118489250000017605854903569628586_);" points="
					269.71,169.32 269.71,165.23 276.38,165.23 276.38,163.81 269.71,163.81 269.71,160.19 276.83,160.19 276.83,158.76 
					268.29,158.76 268.29,170.75 277.11,170.75 277.11,169.32 				"/>
			</g>
		</g>
		<g id="XMLID_7725_">
			
				<radialGradient id="XMLID_00000147936326397719830340000005185185714571137713_" cx="209.4716" cy="89.5484" r="41.7884" gradientUnits="userSpaceOnUse">
				<stop  offset="0" style="stop-color:#FFFFFF"/>
				<stop  offset="1" style="stop-color:#FFCC99"/>
			</radialGradient>
			<path id="XMLID_7730_" style="fill:url(#XMLID_00000147936326397719830340000005185185714571137713_);" d="M200.28,37.76
				l-19.28,19.28l5.44,5.44l13.83-13.83l26.97,26.97h-32.28v65.73h35.26h7.7V75.61v-0.2L200.28,37.76z M211.73,121.23H199.9V109.4
				h11.83V121.23z M211.73,107.58H199.9V95.75h11.83V107.58z M225.38,121.23h-11.83V109.4h11.83V121.23z M225.38,107.58h-11.83
				V95.75h11.83V107.58z"/>
			
				<radialGradient id="XMLID_00000008835272922842706210000006376826958666301592_" cx="169.8765" cy="103.852" r="26.998" gradientUnits="userSpaceOnUse">
				<stop  offset="0" style="stop-color:#FFFFFF"/>
				<stop  offset="1" style="stop-color:#FFCC99"/>
			</radialGradient>
			<polygon id="XMLID_7729_" style="fill:url(#XMLID_00000008835272922842706210000006376826958666301592_);" points="170.33,78.6 
				177.12,71.81 171.68,66.36 162.63,75.41 162.63,141.34 170.33,141.34 170.33,140.69 			"/>
			
				<radialGradient id="XMLID_00000021103512638362386140000002271568076548579981_" cx="130.9481" cy="111.1574" r="25.9529" gradientUnits="userSpaceOnUse">
				<stop  offset="0" style="stop-color:#FFFFFF"/>
				<stop  offset="1" style="stop-color:#FFCC99"/>
			</radialGradient>
			<polygon id="XMLID_7728_" style="fill:url(#XMLID_00000021103512638362386140000002271568076548579981_);" points="
				144.14,105.05 144.14,116.43 151.83,116.43 151.83,101.86 130.95,80.98 110.06,101.86 110.06,141.34 117.76,141.34 
				117.76,133.64 117.76,105.05 130.95,91.86 			"/>
			
				<radialGradient id="XMLID_00000166651026579686407480000002129295949251680689_" cx="160.5283" cy="90.8913" r="41.3523" gradientUnits="userSpaceOnUse">
				<stop  offset="0" style="stop-color:#FFFFFF"/>
				<stop  offset="1" style="stop-color:#FFCC99"/>
			</radialGradient>
			<polygon id="XMLID_7727_" style="fill:url(#XMLID_00000166651026579686407480000002129295949251680689_);" points="160.53,40.44 
				130.95,70.02 130.95,77.09 138.64,84.78 138.64,73.21 160.53,51.33 182.41,73.21 182.41,80.19 173.08,80.19 173.08,119.18 
				173.08,126.88 173.08,141.34 190.11,141.34 190.11,126.88 190.11,70.02 			"/>
			
				<radialGradient id="XMLID_00000142148298776023706900000002679613250520095880_" cx="145.4162" cy="118.5435" r="19.0917" gradientUnits="userSpaceOnUse">
				<stop  offset="0" style="stop-color:#FFFFFF"/>
				<stop  offset="1" style="stop-color:#FFCC99"/>
			</radialGradient>
			<polygon id="XMLID_7726_" style="fill:url(#XMLID_00000142148298776023706900000002679613250520095880_);" points="
				154.58,119.18 151.83,119.18 144.14,119.18 141.39,119.18 138.64,119.18 138.64,103.44 130.95,95.75 130.95,126.88 
				130.95,141.34 159.88,141.34 159.88,126.88 159.88,119.18 			"/>
		</g>
	</g>
	<g>
		
			<radialGradient id="SVGID_00000060745369729676909950000011287171347932121991_" cx="76.6846" cy="182.0879" r="4.4059" gradientUnits="userSpaceOnUse">
			<stop  offset="0" style="stop-color:#FFFFFF"/>
			<stop  offset="1" style="stop-color:#FFCC99"/>
		</radialGradient>
		<path style="fill:url(#SVGID_00000060745369729676909950000011287171347932121991_);" d="M72.77,182c0.14-2.73,2.09-5.42,5.41-4.6
			c1.33,0.33,2.34,1.25,2.33,2.74h-1.3c0.23-1.5-0.66-2.48-1.55-2.65c-2.22-0.44-3.35,1.99-3.43,4.47
			c-0.06,2.38,0.83,4.81,2.65,4.77c1.55-0.03,2.08-1.07,2.7-3.31l1.03,0.31c-0.42,2.13-1.7,3.2-3.58,3.2
			C73.95,186.93,72.63,184.44,72.77,182z"/>
		
			<radialGradient id="SVGID_00000002384475626996113910000017572902469142648747_" cx="91.4251" cy="182.1367" r="4.0596" gradientUnits="userSpaceOnUse">
			<stop  offset="0" style="stop-color:#FFFFFF"/>
			<stop  offset="1" style="stop-color:#FFCC99"/>
		</radialGradient>
		<path style="fill:url(#SVGID_00000002384475626996113910000017572902469142648747_);" d="M88.34,178.88
			c0-0.55-0.13-0.95-0.31-1.34c0,0,0-0.01-0.01-0.03h3.5c1.75,0,3,0.7,3,2.2c0,1.68-1.96,2.41-3.63,2.69
			c-0.14,0.03-0.14,0.06-0.01,0.12c1.95,0.73,3.55,2.25,3.95,4.21h-1.38c-0.43-1.4-1.64-2.72-2.73-3.54
			c-0.64-0.48-0.44-0.79,0.31-0.98c1.12-0.27,2.2-0.78,2.2-2.13c0-1.38-0.66-2.22-1.72-2.22h-1.56c-0.21,0-0.34,0.53-0.34,1.12v7.77
			h-1.27V178.88z"/>
		
			<radialGradient id="SVGID_00000009579991414901921100000010701420304378483596_" cx="105.6096" cy="182.1878" r="4.2912" gradientUnits="userSpaceOnUse">
			<stop  offset="0" style="stop-color:#FFFFFF"/>
			<stop  offset="1" style="stop-color:#FFCC99"/>
		</radialGradient>
		<path style="fill:url(#SVGID_00000009579991414901921100000010701420304378483596_);" d="M104.58,177.52h1.47l3.43,9.22H108
			l-1.12-3c-0.65,1.13-2.17,2.82-3.5,3.09c-1.26,0.26-2.12-0.87-1.37-2.59l2.38-5.42c0.16-0.36,0.23-0.87,0.18-1.27V177.52z
			 M104.93,178.46l-2.54,5.85c-0.48,1.12-0.21,2.21,0.72,2.21c1.31,0,3.07-1.92,3.72-2.94L104.93,178.46z"/>
		
			<radialGradient id="SVGID_00000092448572554594753320000000424836553699335563_" cx="119.4981" cy="182.1238" r="3.882" gradientUnits="userSpaceOnUse">
			<stop  offset="0" style="stop-color:#FFFFFF"/>
			<stop  offset="1" style="stop-color:#FFCC99"/>
		</radialGradient>
		<path style="fill:url(#SVGID_00000092448572554594753320000000424836553699335563_);" d="M116.84,186.73v-7.96
			c0-0.46-0.12-0.95-0.32-1.26h5.67l0.3,1.73c-0.56-1.21-1.34-1.38-2.15-1.38h-1.99c-0.12,0.3-0.21,0.56-0.21,0.91v3.15h2.5
			c0.35,0,0.66-0.21,0.82-0.83v1.9c-0.16-0.56-0.43-0.85-0.82-0.85h-2.5v4.59H116.84z"/>
		
			<radialGradient id="SVGID_00000095306404663926121040000012997567420154977713_" cx="132.9078" cy="182.1304" r="4.1965" gradientUnits="userSpaceOnUse">
			<stop  offset="0" style="stop-color:#FFFFFF"/>
			<stop  offset="1" style="stop-color:#FFCC99"/>
		</radialGradient>
		<path style="fill:url(#SVGID_00000095306404663926121040000012997567420154977713_);" d="M132.28,177.74
			c-1.12,0-2.7,0.19-3.11,1.12v-1.34h7.46v1.3c-0.49-0.91-1.98-1.08-3.08-1.08v9.01l-1.27-0.03V177.74z"/>
		
			<radialGradient id="SVGID_00000035510018146206340740000013011103595418995389_" cx="144.7962" cy="182.1238" r="3.33" gradientUnits="userSpaceOnUse">
			<stop  offset="0" style="stop-color:#FFFFFF"/>
			<stop  offset="1" style="stop-color:#FFCC99"/>
		</radialGradient>
		<path style="fill:url(#SVGID_00000035510018146206340740000013011103595418995389_);" d="M144.15,186.73v-7.96
			c0-0.46-0.12-0.95-0.32-1.26h1.94c-0.18,0.3-0.31,0.81-0.31,1.26v7.96H144.15z"/>
		
			<radialGradient id="SVGID_00000106857120536794845830000005876271482630745232_" cx="157.0418" cy="182.1238" r="4.1121" gradientUnits="userSpaceOnUse">
			<stop  offset="0" style="stop-color:#FFFFFF"/>
			<stop  offset="1" style="stop-color:#FFCC99"/>
		</radialGradient>
		<path style="fill:url(#SVGID_00000106857120536794845830000005876271482630745232_);" d="M153.51,177.5h0.23
			c0.56,0,1.14,0.3,1.46,0.75l4.84,6.92c0.1,0.14,0.18,0.21,0.23,0.21c0.08,0,0.12-0.1,0.1-0.33l-0.1-3.56
			c-0.03-0.98-0.22-2.51-0.94-3.99l1.23,0.01v9.22h-0.29c-0.43,0-0.88-0.23-1.13-0.58l-5.06-7.18c-0.1-0.14-0.19-0.22-0.26-0.22
			c-0.08,0-0.13,0.12-0.12,0.35l0.09,3.43c0.01,0.43,0.03,2.34,0.88,4.21l-1.18-0.01V177.5z"/>
		
			<radialGradient id="SVGID_00000072255405178209869740000005614408444129577396_" cx="171.7907" cy="182.0068" r="4.2632" gradientUnits="userSpaceOnUse">
			<stop  offset="0" style="stop-color:#FFFFFF"/>
			<stop  offset="1" style="stop-color:#FFCC99"/>
		</radialGradient>
		<path style="fill:url(#SVGID_00000072255405178209869740000005614408444129577396_);" d="M172.53,177.28c1.74,0,3.02,0.97,3,2.86
			h-1.3c0.23-1.5-0.4-2.48-1.29-2.65c-1.44-0.29-3.51,1.33-3.51,4.64c0,2.64,1.94,4.38,3.22,4.39l1.83,0.01v-1.12
			c0-0.7-0.13-1.62-0.32-2.3l-0.16-0.52h1.5v4.13h-2.93c-2.15,0-4.54-1.53-4.54-4.62C168.05,178.81,170.44,177.28,172.53,177.28z"/>
		
			<radialGradient id="SVGID_00000022524814399231114940000010461244634681318036_" cx="195.3592" cy="182.1233" r="4.2675" gradientUnits="userSpaceOnUse">
			<stop  offset="0" style="stop-color:#FFFFFF"/>
			<stop  offset="1" style="stop-color:#FFCC99"/>
		</radialGradient>
		<path style="fill:url(#SVGID_00000022524814399231114940000010461244634681318036_);" d="M198.3,179.15
			c-0.65-0.81-1.61-1.65-2.74-1.65c-1.03,0-2.57,0.44-2.57,1.55c0,2.82,6.03,3.12,6.03,5.54c0,1.43-1.48,2.34-3.64,2.34
			c-1.85,0-3.19-1-3.67-1.77l0.57-0.58c0.92,1.34,2.03,2.11,3.02,2.13c1.39,0.04,2.53-0.51,2.53-1.42c0-2.34-5.84-2.41-5.84-5.49
			c0-1.44,1.64-2.46,3.5-2.48c1.42-0.03,2.77,0.55,3.35,1.2L198.3,179.15z"/>
		
			<radialGradient id="SVGID_00000181046000291935588440000015645222434433251987_" cx="209.4204" cy="182.1238" r="3.991" gradientUnits="userSpaceOnUse">
			<stop  offset="0" style="stop-color:#FFFFFF"/>
			<stop  offset="1" style="stop-color:#FFCC99"/>
		</radialGradient>
		<path style="fill:url(#SVGID_00000181046000291935588440000015645222434433251987_);" d="M206.17,177.54v-0.01l-0.01-0.01h3.43
			c4.52,0,3.85,5.24-0.57,5.24h-1.26v2.67c0,0.47,0.12,0.96,0.3,1.25l0.04,0.06h-1.94l0.01-0.01v-0.01c0.2-0.3,0.31-0.78,0.31-1.26
			v-6.64C206.49,178.33,206.37,177.84,206.17,177.54z M208.96,182.59c2.91,0,3.34-4.85,0.64-4.85h-1.76l-0.08,0.43v4.42H208.96z"/>
		
			<radialGradient id="SVGID_00000039097014243600010190000010007006039272088976_" cx="222.3357" cy="182.1878" r="4.2912" gradientUnits="userSpaceOnUse">
			<stop  offset="0" style="stop-color:#FFFFFF"/>
			<stop  offset="1" style="stop-color:#FFCC99"/>
		</radialGradient>
		<path style="fill:url(#SVGID_00000039097014243600010190000010007006039272088976_);" d="M221.31,177.52h1.47l3.43,9.22h-1.48
			l-1.12-3c-0.65,1.13-2.17,2.82-3.5,3.09c-1.26,0.26-2.12-0.87-1.37-2.59l2.38-5.42c0.16-0.36,0.23-0.87,0.18-1.27V177.52z
			 M221.66,178.46l-2.53,5.85c-0.48,1.12-0.21,2.21,0.71,2.21c1.31,0,3.07-1.92,3.72-2.94L221.66,178.46z"/>
		
			<radialGradient id="SVGID_00000092453102559057955600000017935307475663019431_" cx="236.6226" cy="182.0879" r="4.4059" gradientUnits="userSpaceOnUse">
			<stop  offset="0" style="stop-color:#FFFFFF"/>
			<stop  offset="1" style="stop-color:#FFCC99"/>
		</radialGradient>
		<path style="fill:url(#SVGID_00000092453102559057955600000017935307475663019431_);" d="M232.71,182
			c0.14-2.73,2.09-5.42,5.41-4.6c1.33,0.33,2.34,1.25,2.33,2.74h-1.3c0.23-1.5-0.66-2.48-1.55-2.65c-2.22-0.44-3.35,1.99-3.43,4.47
			c-0.06,2.38,0.83,4.81,2.65,4.77c1.55-0.03,2.08-1.07,2.7-3.31l1.03,0.31c-0.42,2.13-1.7,3.2-3.58,3.2
			C233.89,186.93,232.57,184.44,232.71,182z"/>
		
			<radialGradient id="SVGID_00000055687337419322659190000006718453877392441751_" cx="251.459" cy="182.0885" r="4.3338" gradientUnits="userSpaceOnUse">
			<stop  offset="0" style="stop-color:#FFFFFF"/>
			<stop  offset="1" style="stop-color:#FFCC99"/>
		</radialGradient>
		<path style="fill:url(#SVGID_00000055687337419322659190000006718453877392441751_);" d="M253.12,177.4
			c1.33,0.33,2.34,1.25,2.05,2.74h-0.9c0.23-1.5-0.79-2.48-1.68-2.65c-0.18-0.04-0.35-0.05-0.52-0.05c-1.87,0-2.83,2.21-2.91,4.49
			h1.4c1.83,0,2.15-0.21,2.33-0.83v1.77c-0.18-0.56-0.46-0.72-2.33-0.72h-1.4c-0.03,2.33,0.87,4.63,2.65,4.59
			c1.29-0.03,2.07-0.75,2.77-2.34l0.6,0.39c-0.61,1.38-1.73,2.15-3.21,2.15C245.45,186.93,246.84,175.85,253.12,177.4z"/>
		
			<radialGradient id="SVGID_00000029732763981112699120000009954592627821536675_" cx="265.8709" cy="182.1233" r="4.2675" gradientUnits="userSpaceOnUse">
			<stop  offset="0" style="stop-color:#FFFFFF"/>
			<stop  offset="1" style="stop-color:#FFCC99"/>
		</radialGradient>
		<path style="fill:url(#SVGID_00000029732763981112699120000009954592627821536675_);" d="M268.81,179.15
			c-0.65-0.81-1.61-1.65-2.74-1.65c-1.03,0-2.57,0.44-2.57,1.55c0,2.82,6.03,3.12,6.03,5.54c0,1.43-1.48,2.34-3.64,2.34
			c-1.85,0-3.19-1-3.67-1.77l0.57-0.58c0.92,1.34,2.03,2.11,3.02,2.13c1.39,0.04,2.53-0.51,2.53-1.42c0-2.34-5.84-2.41-5.84-5.49
			c0-1.44,1.64-2.46,3.5-2.48c1.42-0.03,2.77,0.55,3.35,1.2L268.81,179.15z"/>
	</g>
</g>
</svg>
