<?xml version="1.0" encoding="utf-8"?>
<!-- Generator: Adobe Illustrator 27.8.1, SVG Export Plug-In . SVG Version: 6.00 Build 0)  -->
<svg version="1.1" id="Layer_1" xmlns="http://www.w3.org/2000/svg" xmlns:xlink="http://www.w3.org/1999/xlink" x="0px" y="0px"
	 viewBox="0 0 348 228" style="enable-background:new 0 0 348 228;" xml:space="preserve">
<style type="text/css">
	.st0{fill:#D6EADE;}
	.st1{fill:#03487C;}
	.st2{fill:#1B1B4C;}
	.st3{fill-rule:evenodd;clip-rule:evenodd;fill:#204F7A;}
	.st4{fill-rule:evenodd;clip-rule:evenodd;fill:#50A4FF;}
	.st5{fill:#002649;}
	.st6{fill:#E6E7E8;stroke:#CFCFCF;stroke-width:0.1061;}
	.st7{fill:#333333;}
	.st8{fill:#0F5998;}
	.st9{fill:#277FC1;}
	.st10{fill-rule:evenodd;clip-rule:evenodd;fill:#277FC1;}
	.st11{fill-rule:evenodd;clip-rule:evenodd;fill:#083D6D;}
	.st12{fill:#DDB462;}
	
		.st13{clip-path:url(#SVGID_00000156555195752617970660000016568774556576562351_);fill:url(#SVGID_00000090975312396248470020000009803184697690108863_);}
	.st14{fill:#FFFFFF;}
	.st15{fill:url(#SVGID_00000031173610147392169860000013707131364866114201_);}
	.st16{fill:#224685;}
	.st17{fill:none;}
	.st18{fill:#FFC73B;}
	.st19{fill:#11233F;}
	.st20{fill:#5267FF;}
	.st21{fill-rule:evenodd;clip-rule:evenodd;fill:#72342E;}
	.st22{fill:#72342E;}
	.st23{fill:#FFF2E2;}
	.st24{fill:#FFF2E2;stroke:#72342E;stroke-width:0.75;stroke-miterlimit:10;}
	.st25{fill:#FFCC99;}
	.st26{fill:#469CB2;}
	.st27{fill:url(#XMLID_00000007426810786497607290000018404694988169796999_);}
	.st28{fill:url(#XMLID_00000098903099532329065690000001758369861055769273_);}
	.st29{fill:url(#XMLID_00000098193167908016112400000018009673856498895526_);}
	.st30{fill:url(#XMLID_00000144320432456677118110000003044723008074836633_);}
	.st31{fill:url(#XMLID_00000093143423284151866610000009538381148128854193_);}
	.st32{fill:url(#XMLID_00000044868030692681848890000002295419581971289487_);}
	.st33{fill:url(#XMLID_00000103243624251800927880000003849042096149359805_);}
	.st34{fill:url(#XMLID_00000065047733339454948150000003948652355255775930_);}
	.st35{fill:url(#XMLID_00000096048001444131352940000002695106423743858071_);}
	.st36{fill:url(#XMLID_00000043437992754372090340000017748659959243746999_);}
	.st37{fill:url(#XMLID_00000008119158245542841710000014404451929424371607_);}
	.st38{fill:url(#XMLID_00000150785445032030443260000006347488860194305956_);}
	.st39{fill:url(#XMLID_00000020392804316299466960000006278085471702570890_);}
	.st40{fill:url(#XMLID_00000045580610647777579650000006315760432996006285_);}
	.st41{fill:url(#XMLID_00000019667668614691829940000004162859975778095768_);}
	.st42{fill:url(#SVGID_00000060733055514443429800000004866159878966411909_);}
	.st43{fill:url(#SVGID_00000003077965355335784530000005323544646473803410_);}
	.st44{fill:url(#SVGID_00000142864824294209131250000015162051559053537683_);}
	.st45{fill:url(#SVGID_00000086656846874546275490000008605018528984045963_);}
	.st46{fill:url(#SVGID_00000162310405615875922330000015982148462535988135_);}
	.st47{fill:url(#SVGID_00000180352416567180061140000000166952879032795780_);}
	.st48{fill:url(#SVGID_00000031181441180419934170000000215126835751874944_);}
	.st49{fill:url(#SVGID_00000083778792797562190970000000013611831528605843_);}
	.st50{fill:url(#SVGID_00000146467965579641073590000013081693752864541110_);}
	.st51{fill:url(#SVGID_00000073679362597139955610000006586373171472993452_);}
	.st52{fill:url(#SVGID_00000150806618825928516730000009878344655237404599_);}
	.st53{fill:url(#SVGID_00000082370498175110056830000007337342875009760401_);}
	.st54{fill:url(#SVGID_00000053545308809563482750000007315480737202258859_);}
	.st55{fill:url(#SVGID_00000170270598958784063520000013698679688374691984_);}
	.st56{fill:#30325E;}
	.st57{fill:#FF7859;}
	.st58{fill:#FFD550;}
	.st59{fill:#00C3AD;}
	.st60{fill:#FF4653;}
	.st61{fill:#D8CE19;}
	.st62{fill:#C1E5DE;}
	.st63{fill:#FFE4D2;}
	.st64{fill:#DFF4F0;}
	.st65{fill:#A2E0EB;}
	.st66{fill:#1B3493;}
	.st67{fill:none;stroke:#FFFFFF;stroke-width:2;stroke-linecap:round;stroke-linejoin:round;stroke-miterlimit:10;}
	.st68{fill:#F15A24;}
	.st69{fill:#F7931E;}
	.st70{fill:#58595B;}
	.st71{fill:#114E15;}
	.st72{fill:#013D01;}
	.st73{fill:#E9C608;}
	.st74{fill:#043B00;}
	.st75{fill:#D8A43E;}
	.st76{clip-path:url(#SVGID_00000173136500033016563790000000974566037372519812_);}
	.st77{fill:#F49630;}
	.st78{clip-path:url(#SVGID_00000134212719955738039080000004963044925602558140_);}
	.st79{clip-path:url(#SVGID_00000157302758181288364750000010275289069990802829_);}
	.st80{clip-path:url(#SVGID_00000124865592510974300040000008667272601271606656_);}
	.st81{clip-path:url(#SVGID_00000152971502882614067930000007228880357603685510_);}
	.st82{fill-rule:evenodd;clip-rule:evenodd;fill:#FF6600;}
	.st83{fill-rule:evenodd;clip-rule:evenodd;fill:#05174F;}
	.st84{fill:#05174F;}
	.st85{opacity:0.42;fill:url(#SVGID_00000054959911946096725150000008790032252827491730_);enable-background:new    ;}
	.st86{opacity:0.42;fill:url(#SVGID_00000183933871602702050670000002983747102794044042_);enable-background:new    ;}
	.st87{fill:url(#SVGID_00000083068299856256158450000015650149196546154408_);}
	.st88{fill:url(#SVGID_00000173882749186961980920000001041374154094271919_);}
	.st89{opacity:0.64;fill:url(#SVGID_00000026844593584922174330000016566527652290119847_);enable-background:new    ;}
	.st90{opacity:0.75;fill:url(#SVGID_00000009548378736887251120000013296175747738655908_);enable-background:new    ;}
	.st91{fill:url(#SVGID_00000160896370325630689150000018161637408452792460_);}
	.st92{fill:url(#SVGID_00000163756626469444716200000013969771078214532272_);}
	.st93{opacity:0.76;fill:url(#SVGID_00000055668476194528930700000010119853218200887981_);enable-background:new    ;}
	.st94{opacity:0.75;fill:url(#SVGID_00000060729366929657479750000012232721739846492060_);enable-background:new    ;}
	.st95{fill:url(#SVGID_00000027573351092311869350000008311250989159862151_);}
	.st96{opacity:0.42;fill:url(#SVGID_00000072252701332492209350000003907478264453188245_);enable-background:new    ;}
	.st97{opacity:0.42;fill:url(#SVGID_00000176008012645589341580000002060792826061859209_);enable-background:new    ;}
	.st98{clip-path:url(#SVGID_00000098223035639532429190000015024595828291725495_);}
	.st99{fill:#1ED7FE;}
	.st100{clip-path:url(#SVGID_00000089549891605534994270000016224267424692370110_);}
	.st101{clip-path:url(#SVGID_00000036247469881240770510000010174241767849966235_);}
	.st102{fill:#000056;}
	.st103{clip-path:url(#SVGID_00000037688051097207058510000005191417361541547947_);}
	.st104{enable-background:new    ;}
	.st105{fill:#053272;}
	.st106{fill:none;stroke:#053272;stroke-width:4;stroke-miterlimit:10;}
	.st107{fill:url(#SVGID_00000178183238864704420870000007250190108477992577_);}
	.st108{fill:url(#SVGID_00000114070886432725642520000011518562690983293872_);}
	.st109{fill:url(#SVGID_00000025404468812530933650000007417432920205623224_);}
	.st110{fill:url(#SVGID_00000072261116139875542230000007312128971916592824_);}
	.st111{fill:url(#SVGID_00000093136101958860348040000006954648645931259778_);}
	.st112{fill:url(#SVGID_00000059990432774788340770000004653815265444805551_);}
	.st113{fill:url(#SVGID_00000140728921213255966310000014312825533326799538_);}
	.st114{fill:url(#SVGID_00000031887566983400761370000011019240176607466171_);}
	.st115{fill:url(#SVGID_00000075849659693158554360000016055330575519974022_);}
	.st116{fill:url(#SVGID_00000091004414053880645510000011313507652121577908_);}
	.st117{fill:url(#SVGID_00000048473894315095326360000006045495463896865185_);}
	.st118{fill:url(#SVGID_00000170243286238163686220000005686594655357406871_);}
	.st119{fill:url(#SVGID_00000014630481453736723010000001992006342826014121_);}
	.st120{fill:url(#SVGID_00000001647429916033029490000008111174503159955383_);}
	.st121{fill:url(#SVGID_00000154396237630566243840000006555957050870142627_);}
	.st122{fill:url(#SVGID_00000012445158074916435030000009520667920565185440_);}
	.st123{fill:url(#SVGID_00000026161287298466348400000016609257512169122978_);}
	.st124{fill:url(#SVGID_00000107572246289153165800000008399530934471715987_);}
	.st125{fill:url(#SVGID_00000067221489083438215660000004429097529855656094_);}
	.st126{fill:url(#SVGID_00000116210694672913575770000001597859416393216642_);}
	.st127{fill:url(#SVGID_00000090271947073297030870000018400814121355958163_);}
	.st128{fill:url(#SVGID_00000163049213529911096290000000709252237137398688_);}
	.st129{fill:url(#SVGID_00000057849496022438756120000010610105986808261274_);}
	.st130{fill:url(#SVGID_00000142886606671576504310000014448637992652408995_);}
	.st131{fill:url(#SVGID_00000167375496143020003040000008824930766349915832_);}
	.st132{fill:url(#SVGID_00000048470687020181111030000008038133035575458434_);}
	.st133{fill:url(#SVGID_00000175300271450904390080000016024735596730174392_);}
	.st134{fill:url(#SVGID_00000087377382744234001330000015883224793970488195_);}
	.st135{fill:url(#SVGID_00000048499308269890569330000008361048008222750618_);}
	.st136{fill:none;stroke:#FEF73D;stroke-linecap:round;stroke-miterlimit:10;}
	.st137{fill:none;stroke:#FF189C;stroke-miterlimit:10;}
	.st138{fill:none;stroke:#00EFF1;stroke-linecap:round;stroke-miterlimit:10;}
	.st139{fill:#00EFF1;}
	.st140{fill:#FFA022;}
	.st141{fill:#0C103A;}
	.st142{fill-rule:evenodd;clip-rule:evenodd;fill:#5D9541;}
	.st143{fill-rule:evenodd;clip-rule:evenodd;fill:#F06021;}
	.st144{fill-rule:evenodd;clip-rule:evenodd;fill:#69BC60;}
	.st145{fill-rule:evenodd;clip-rule:evenodd;fill:#F6951C;}
	.st146{fill:#F6951C;}
	.st147{fill:url(#SVGID_00000066507619636192356200000013084959515679374264_);}
	.st148{fill:url(#SVGID_00000137134207796367827390000011935119607191459983_);}
	.st149{fill:url(#SVGID_00000114758534974068626700000010883243633796210856_);}
	.st150{fill:url(#SVGID_00000143615723596677933830000010930749646331593135_);}
	.st151{fill:url(#SVGID_00000161591876670347045850000001996990805224755076_);}
	.st152{fill:url(#SVGID_00000163068533923541582490000008253050757152470657_);}
	.st153{fill:url(#SVGID_00000114772032447768174800000011474688839983604639_);}
	.st154{fill:url(#SVGID_00000018930484650104698340000016840420521866506168_);}
	.st155{fill:url(#SVGID_00000011747710318372458040000017740535306228733616_);}
	.st156{fill:url(#SVGID_00000022554428306657459490000016208360020186133432_);}
	.st157{fill:url(#SVGID_00000120520561551976129200000015839279965055401871_);}
	.st158{fill:url(#SVGID_00000039121834652025731790000003470838469647623573_);}
	.st159{fill:url(#SVGID_00000131360763507358100380000013228111912564379314_);}
	.st160{fill:url(#SVGID_00000106868168078656785520000006148244996312355741_);}
	.st161{fill:url(#SVGID_00000055679664055503724190000000039328872039563440_);}
	.st162{fill:url(#SVGID_00000162354072295285928130000011812908935319458947_);}
	.st163{fill:url(#SVGID_00000073702883355124468510000008278264429601821104_);}
	.st164{fill:url(#SVGID_00000008118111194931768880000004369785922114495380_);}
	.st165{fill:url(#SVGID_00000031200096457825423520000017445357572457717664_);}
	.st166{fill:url(#SVGID_00000067945925777831113060000018199843162475589291_);}
	.st167{fill:url(#SVGID_00000000917501584936981510000006342171152021685427_);}
	.st168{fill:url(#SVGID_00000145047857790150049160000004746528282623997591_);}
	.st169{fill-rule:evenodd;clip-rule:evenodd;fill:#512100;}
	.st170{fill-rule:evenodd;clip-rule:evenodd;fill:#006D62;}
	.st171{fill-rule:evenodd;clip-rule:evenodd;}
	.st172{fill-rule:evenodd;clip-rule:evenodd;fill:#00A1F5;}
	.st173{fill-rule:evenodd;clip-rule:evenodd;fill:#FACFAB;}
	.st174{fill-rule:evenodd;clip-rule:evenodd;fill:#F29673;}
	.st175{fill-rule:evenodd;clip-rule:evenodd;fill:#FFFFFF;}
	.st176{fill-rule:evenodd;clip-rule:evenodd;fill:#333333;}
	.st177{fill-rule:evenodd;clip-rule:evenodd;fill:#BD4D00;}
	.st178{fill-rule:evenodd;clip-rule:evenodd;fill:#B2B2B2;}
	.st179{fill-rule:evenodd;clip-rule:evenodd;fill:#F2CC29;}
	.st180{fill-rule:evenodd;clip-rule:evenodd;fill:#005C9C;}
	.st181{fill-rule:evenodd;clip-rule:evenodd;fill:#8AC900;}
	.st182{fill-rule:evenodd;clip-rule:evenodd;fill:#808080;}
	.st183{fill-rule:evenodd;clip-rule:evenodd;fill:#CFA605;}
	.st184{fill-rule:evenodd;clip-rule:evenodd;fill:#666666;}
	.st185{fill-rule:evenodd;clip-rule:evenodd;fill:#CCCCCC;}
	.st186{fill:#960000;}
	.st187{fill:url(#SVGID_00000140721805952652716310000010908028006554309300_);}
	.st188{fill:url(#SVGID_00000128469209848185925950000018339582826051019656_);}
	.st189{opacity:0.51;fill:url(#SVGID_00000156550026138627628170000010610498441962053538_);}
	.st190{fill:url(#SVGID_00000047058834510529347160000005348604117340589475_);}
	.st191{fill:url(#SVGID_00000134226415591041775060000011465918560473208754_);}
	.st192{fill:url(#SVGID_00000097478743845489385520000001677634665320794505_);}
	.st193{opacity:0.35;fill:url(#SVGID_00000163759737108801103360000015611731742256772516_);}
	.st194{opacity:0.35;fill:url(#SVGID_00000103230055796376670650000015027008512036764845_);}
	.st195{fill:#F06021;}
	.st196{fill-rule:evenodd;clip-rule:evenodd;fill:url(#SVGID_00000120528624945739851020000006325948164015836584_);}
	.st197{fill-rule:evenodd;clip-rule:evenodd;fill:url(#SVGID_00000003799810196309267170000001863092409544887714_);}
	.st198{fill-rule:evenodd;clip-rule:evenodd;fill:url(#SVGID_00000097500468000718654480000004423227268979437958_);}
	.st199{fill-rule:evenodd;clip-rule:evenodd;fill:url(#SVGID_00000091004263491363716050000000675203572700913793_);}
	.st200{fill-rule:evenodd;clip-rule:evenodd;fill:url(#SVGID_00000001625987831241416330000002508318103311941258_);}
	.st201{fill-rule:evenodd;clip-rule:evenodd;fill:url(#SVGID_00000012457115928677686630000013408588708041030272_);}
	.st202{fill-rule:evenodd;clip-rule:evenodd;fill:url(#SVGID_00000106862425521668768870000009943912091664733583_);}
	.st203{fill-rule:evenodd;clip-rule:evenodd;fill:url(#SVGID_00000057145837529367338130000001037806604273518503_);}
	.st204{fill-rule:evenodd;clip-rule:evenodd;fill:url(#SVGID_00000063635684775305184380000015519392736742031540_);}
	.st205{fill-rule:evenodd;clip-rule:evenodd;fill:url(#SVGID_00000003804667126230503980000000912364363039909045_);}
	.st206{fill-rule:evenodd;clip-rule:evenodd;fill:url(#SVGID_00000167384172790680840520000007184361420000478375_);}
	.st207{fill-rule:evenodd;clip-rule:evenodd;fill:url(#SVGID_00000166652094656072428920000016391296768329120935_);}
	.st208{fill-rule:evenodd;clip-rule:evenodd;fill:url(#SVGID_00000093893453772779159310000016376775299831997598_);}
	.st209{opacity:0.5;fill-rule:evenodd;clip-rule:evenodd;fill:#5D0101;enable-background:new    ;}
	.st210{fill:#E11B22;}
	.st211{fill:#959595;}
	.st212{fill:#003359;}
	.st213{fill:#1779C1;}
	.st214{fill:#0EB17C;}
	.st215{fill:#2B2353;}
	.st216{fill:#BE264E;}
	.st217{fill:#EAA41C;}
	.st218{fill:#1F9EF3;}
	.st219{fill:#0267A3;}
	.st220{fill:#FFEC00;}
	.st221{fill:#00A0E0;}
	.st222{fill:#E3007E;}
	.st223{fill:none;stroke:#000000;stroke-width:2;stroke-miterlimit:10;}
	.st224{fill:#FF9E80;}
	.st225{fill:#414151;}
	.st226{fill:#2B295E;}
	.st227{fill:#CCCCCC;}
	.st228{fill:#FF8C5C;}
	.st229{fill:#DBA21C;}
	.st230{fill:#EDDBB2;}
	.st231{fill:#DEC58B;}
	.st232{fill:#997113;}
	.st233{fill:#B88817;}
	.st234{fill:#003400;stroke:#8EC13D;stroke-width:4;stroke-miterlimit:10;}
	.st235{fill:#8EC13D;}
	.st236{fill:url(#XMLID_00000023261050501963230330000014172031683330105262_);}
	.st237{fill:url(#SVGID_00000054983748804118006360000005594583690337996976_);}
	.st238{fill:url(#SVGID_00000082350229182314385200000011406898078644887733_);}
	.st239{fill:url(#SVGID_00000168112213971360744620000013838264560977303940_);}
	.st240{fill:url(#SVGID_00000104666230882374584530000007247185909336960414_);}
	.st241{fill:url(#SVGID_00000002364702930648185390000016134731176991891622_);}
	.st242{fill:url(#SVGID_00000030450309469363044240000016011083923679514753_);}
	.st243{fill:url(#SVGID_00000061435768610050553900000012157940920440321446_);}
	.st244{fill:url(#SVGID_00000096777366717232835800000005277353793376072605_);}
	.st245{fill:url(#SVGID_00000163065176075628204600000002847283981290038918_);}
	.st246{fill:url(#SVGID_00000135657846546055581270000011311199991958633632_);}
	.st247{fill:url(#SVGID_00000082332351226317595150000007403143492296410302_);}
	.st248{fill:#1C75BC;}
	.st249{fill:#46920C;}
	.st250{fill:#FF9400;}
	.st251{fill:url(#SVGID_00000124854467945476641120000000462934085360380346_);}
	.st252{fill:url(#SVGID_00000076600071142474019920000008224259239763657345_);}
	.st253{fill:url(#SVGID_00000078728959213950695600000013949071008912744856_);}
	.st254{fill:url(#SVGID_00000151513390456421403870000007691723004536723594_);}
	.st255{fill:url(#SVGID_00000063631714594986167980000004737291673801115809_);}
	.st256{fill:url(#SVGID_00000098940170532458793960000007516061558744130201_);}
	.st257{fill:url(#SVGID_00000090994025620074770420000013654051799236501653_);}
	.st258{fill:url(#SVGID_00000055665288069224087590000011231617492948717972_);}
	.st259{fill:url(#SVGID_00000091000658589927745540000011235911629801876110_);}
	.st260{fill:url(#SVGID_00000029739688558964909010000013235113890288076173_);}
	.st261{fill:url(#SVGID_00000179619774418805249810000001786637590722344581_);}
	.st262{fill:url(#SVGID_00000147191896239017332880000017834005441098139058_);}
	.st263{fill:url(#SVGID_00000085958663561036028380000007227061286965863100_);}
	.st264{fill:url(#SVGID_00000075151272632097613310000016390429307690668176_);}
	.st265{fill:url(#SVGID_00000070080315632820805670000014810425375678942131_);}
	.st266{fill:url(#SVGID_00000146478902822441356490000008007847940300180614_);}
	.st267{fill:url(#SVGID_00000176026014581456549590000002276099054605806739_);}
	.st268{fill:url(#SVGID_00000092430295455164951160000017029435122815876227_);}
	.st269{fill:url(#SVGID_00000036943366668120428900000001839533641988436389_);}
	.st270{fill:#2F3F67;}
	.st271{fill:#C97F32;}
	.st272{fill:none;stroke:#C97F32;stroke-width:1.2891;stroke-miterlimit:10;}
	.st273{fill:url(#XMLID_00000134228739081961703640000007319399278803732871_);}
	.st274{fill:#00548B;}
	.st275{fill:#004368;}
	.st276{fill:#94070A;}
	.st277{fill:url(#XMLID_00000165217898640124957440000004709118702316845733_);}
	.st278{fill:url(#XMLID_00000126302805284498663030000004831293392135468940_);}
	.st279{fill:#B34A06;}
	.st280{fill:#A2B5C4;}
	.st281{fill:#192940;}
	.st282{fill:url(#SVGID_00000083070011475965859870000001730888413153216158_);}
	.st283{fill:url(#SVGID_00000070103667673467813800000012634224642786249655_);}
	.st284{fill:url(#SVGID_00000157987927190426878020000017831230295768202643_);}
	.st285{opacity:0.93;fill:url(#SVGID_00000088816166081036811740000010216746551630659736_);}
	.st286{opacity:0.93;fill:url(#SVGID_00000178193801932587713620000009582961934952339385_);}
	.st287{opacity:0.93;fill:url(#SVGID_00000052097899807236857350000002078756180346325130_);}
	.st288{opacity:0.93;fill:url(#SVGID_00000116199370277903134370000017720713883969954193_);}
	.st289{fill:url(#SVGID_00000008133366522964229430000016683641875523149708_);}
	.st290{stroke:#000000;stroke-width:0.75;stroke-miterlimit:10;}
</style>
<rect y="0.08" class="st1" width="348" height="228"/>
<g>
	<g>
		<g>
			<path class="st25" d="M53.81,177.74l-4.4-7.05h-2.03v7.05h-2.85v-17.65h6.22c2.02,0,3.55,0.49,4.59,1.48
				c1.04,0.98,1.56,2.28,1.56,3.9c0,1.38-0.39,2.52-1.16,3.4c-0.77,0.88-1.9,1.45-3.36,1.7l4.62,7.17H53.81z M47.39,168.67h3.15
				c2.3,0,3.45-1.02,3.45-3.05c0-0.97-0.28-1.72-0.84-2.26c-0.56-0.54-1.43-0.81-2.61-0.81h-3.15V168.67z"/>
			<path class="st25" d="M72.19,171.42h-10.6c0.05,1.42,0.44,2.47,1.17,3.15s1.64,1.02,2.72,1.02c0.95,0,1.75-0.24,2.41-0.73
				c0.66-0.48,1.06-1.12,1.21-1.92h3.05c-0.18,0.97-0.57,1.82-1.15,2.57c-0.58,0.75-1.34,1.34-2.28,1.76
				c-0.93,0.42-1.97,0.64-3.12,0.64c-1.33,0-2.51-0.28-3.54-0.85c-1.03-0.57-1.83-1.38-2.41-2.45c-0.58-1.07-0.88-2.33-0.88-3.77
				c0-1.43,0.29-2.68,0.88-3.75c0.58-1.07,1.39-1.88,2.41-2.45c1.02-0.57,2.2-0.85,3.54-0.85c1.35,0,2.53,0.28,3.54,0.84
				c1.01,0.56,1.78,1.32,2.32,2.3c0.54,0.98,0.81,2.06,0.81,3.26C72.29,170.66,72.26,171.07,72.19,171.42z M68.95,167.86
				c-0.34-0.61-0.81-1.06-1.4-1.35s-1.24-0.44-1.94-0.44c-1.12,0-2.05,0.34-2.8,1.02c-0.75,0.68-1.16,1.69-1.22,3.02h7.82
				C69.45,169.22,69.29,168.46,68.95,167.86z"/>
			<path class="st25" d="M77.89,159.24v18.5h-2.85v-18.5H77.89z"/>
			<path class="st25" d="M81.44,158.77c0.33-0.32,0.78-0.48,1.33-0.48s1,0.16,1.34,0.48c0.34,0.32,0.51,0.72,0.51,1.2
				s-0.17,0.88-0.51,1.17c-0.34,0.3-0.79,0.45-1.34,0.45s-0.99-0.15-1.33-0.45c-0.33-0.3-0.5-0.69-0.5-1.17
				S81.1,159.09,81.44,158.77z M84.19,163.97v13.77h-2.85v-13.77H84.19z"/>
			<path class="st25" d="M96.36,164.72c0.88,0.62,1.51,1.43,1.88,2.45v-3.2h2.85v13.92c0,1.28-0.26,2.42-0.79,3.41
				c-0.53,0.99-1.28,1.77-2.26,2.34c-0.98,0.57-2.15,0.85-3.5,0.85c-1.93,0-3.5-0.46-4.69-1.38c-1.19-0.92-1.94-2.16-2.24-3.73h2.83
				c0.23,0.82,0.68,1.45,1.35,1.91c0.67,0.46,1.52,0.69,2.55,0.69c1.13,0,2.07-0.35,2.8-1.05c0.73-0.7,1.1-1.72,1.1-3.05v-3.35
				c-0.37,1.02-0.99,1.83-1.88,2.45c-0.88,0.62-1.95,0.92-3.2,0.92c-1.2,0-2.27-0.28-3.21-0.85c-0.94-0.57-1.68-1.38-2.21-2.45
				c-0.53-1.07-0.8-2.33-0.8-3.77c0-1.43,0.27-2.68,0.8-3.75c0.53-1.07,1.27-1.88,2.21-2.45c0.94-0.57,2.01-0.85,3.21-0.85
				C94.41,163.79,95.48,164.1,96.36,164.72z M91,167.51c-0.76,0.81-1.14,1.92-1.14,3.34s0.38,2.53,1.14,3.34
				c0.76,0.81,1.77,1.21,3.04,1.21c0.8,0,1.52-0.19,2.15-0.56c0.63-0.38,1.13-0.9,1.5-1.59c0.37-0.68,0.55-1.48,0.55-2.4
				c0-0.9-0.18-1.7-0.55-2.39c-0.37-0.69-0.87-1.23-1.5-1.6c-0.63-0.38-1.35-0.56-2.15-0.56C92.77,166.29,91.76,166.7,91,167.51z"/>
			<path class="st25" d="M104.61,158.77c0.33-0.32,0.77-0.48,1.32-0.48c0.55,0,1,0.16,1.34,0.48c0.34,0.32,0.51,0.72,0.51,1.2
				s-0.17,0.88-0.51,1.17c-0.34,0.3-0.79,0.45-1.34,0.45c-0.55,0-0.99-0.15-1.32-0.45c-0.33-0.3-0.5-0.69-0.5-1.17
				S104.28,159.09,104.61,158.77z M107.36,163.97v13.77h-2.85v-13.77H107.36z"/>
			<path class="st25" d="M120.71,164.64c1.07,0.57,1.9,1.38,2.5,2.45c0.6,1.07,0.9,2.32,0.9,3.75c0,1.45-0.3,2.71-0.9,3.77
				c-0.6,1.07-1.43,1.88-2.5,2.45s-2.27,0.85-3.6,0.85c-1.33,0-2.53-0.28-3.59-0.85s-1.89-1.39-2.5-2.46
				c-0.61-1.07-0.91-2.33-0.91-3.76c0-1.43,0.3-2.68,0.91-3.75c0.61-1.07,1.44-1.88,2.5-2.45c1.06-0.57,2.25-0.85,3.59-0.85
				C118.45,163.79,119.65,164.08,120.71,164.64z M115.09,166.77c-0.62,0.33-1.11,0.85-1.49,1.54c-0.38,0.69-0.56,1.54-0.56,2.54
				c0,1.02,0.19,1.87,0.56,2.55c0.38,0.68,0.87,1.19,1.49,1.52c0.62,0.33,1.29,0.5,2.03,0.5s1.41-0.17,2.02-0.5
				c0.62-0.33,1.11-0.84,1.49-1.52c0.38-0.68,0.56-1.53,0.56-2.55c0-1-0.19-1.85-0.56-2.54c-0.38-0.69-0.87-1.2-1.49-1.54
				c-0.62-0.33-1.29-0.5-2.02-0.5S115.7,166.44,115.09,166.77z"/>
			<path class="st25" d="M138.41,165.29c0.97,1.03,1.45,2.51,1.45,4.43v8.02h-2.85v-7.73c0-1.23-0.32-2.19-0.95-2.86
				c-0.63-0.68-1.5-1.01-2.6-1.01c-1.13,0-2.04,0.36-2.72,1.09c-0.68,0.73-1.03,1.79-1.03,3.19v7.33h-2.85v-13.77h2.85v3.02
				c0.37-1.03,0.98-1.83,1.85-2.4c0.87-0.57,1.87-0.85,3-0.85C136.16,163.74,137.45,164.26,138.41,165.29z"/>
			<path class="st25" d="M161.39,177.74l-3.3-3.73c-0.02,0.17-0.1,0.46-0.25,0.88c-0.23,0.9-0.74,1.63-1.51,2.19
				c-0.78,0.56-1.7,0.84-2.76,0.84c-1.08,0-2.03-0.22-2.85-0.67c-0.82-0.45-1.45-1.08-1.9-1.88s-0.67-1.72-0.67-2.75
				c0-1.05,0.2-1.96,0.61-2.73c0.41-0.77,0.96-1.35,1.66-1.75c0.7-0.4,1.47-0.6,2.32-0.6h0.18l-0.33-0.45c-0.4-0.5-0.71-1-0.92-1.49
				c-0.22-0.49-0.33-1.05-0.33-1.66c0-0.7,0.18-1.36,0.54-1.98s0.89-1.11,1.6-1.49c0.71-0.38,1.55-0.56,2.54-0.56
				c1.47,0,2.59,0.35,3.36,1.05c0.78,0.7,1.26,1.58,1.46,2.65c0.15,0.55,0.21,1.14,0.17,1.77h-2.7v-0.27c0-0.25-0.01-0.43-0.02-0.55
				c-0.02-0.7-0.22-1.25-0.61-1.65c-0.39-0.4-0.93-0.6-1.61-0.6c-0.63,0-1.13,0.18-1.49,0.55c-0.36,0.37-0.54,0.82-0.54,1.35
				c0,0.45,0.09,0.84,0.26,1.17c0.18,0.33,0.45,0.73,0.81,1.18l9.2,11.17H161.39z M155.6,174.72c0.52-0.52,0.79-1.18,0.79-2
				c0-0.57-0.15-1.08-0.44-1.54c-0.29-0.46-0.67-0.82-1.15-1.08c-0.47-0.26-0.97-0.39-1.49-0.39c-0.8,0-1.45,0.25-1.95,0.74
				c-0.5,0.49-0.75,1.19-0.75,2.09c0,0.92,0.29,1.64,0.86,2.16c0.57,0.52,1.28,0.79,2.11,0.79
				C154.4,175.49,155.08,175.24,155.6,174.72z"/>
			<path class="st25" d="M182.99,175.46c-0.42,0.74-1.05,1.34-1.9,1.79c-0.85,0.45-1.89,0.67-3.12,0.67c-1.2,0-2.27-0.21-3.22-0.64
				c-0.95-0.43-1.71-1.02-2.28-1.79s-0.89-1.65-0.97-2.65h3.05c0.08,0.77,0.41,1.42,0.99,1.98c0.58,0.55,1.35,0.82,2.31,0.82
				c0.87,0,1.54-0.23,2.01-0.7c0.48-0.47,0.71-1.07,0.71-1.8c0-0.63-0.17-1.15-0.53-1.56c-0.35-0.41-0.78-0.73-1.3-0.96
				s-1.22-0.5-2.12-0.8c-1.1-0.35-2-0.7-2.69-1.05s-1.28-0.86-1.76-1.52c-0.48-0.67-0.72-1.54-0.72-2.62c0-0.95,0.23-1.78,0.7-2.5
				c0.47-0.72,1.13-1.27,2-1.66c0.87-0.39,1.87-0.59,3-0.59c1.8,0,3.23,0.43,4.29,1.3c1.06,0.87,1.66,2,1.81,3.4h-3.08
				c-0.12-0.67-0.43-1.24-0.94-1.71c-0.51-0.47-1.2-0.71-2.09-0.71c-0.8,0-1.44,0.2-1.93,0.61s-0.72,1-0.72,1.76
				c0,0.6,0.17,1.1,0.5,1.49c0.33,0.39,0.75,0.7,1.26,0.92c0.51,0.23,1.2,0.49,2.09,0.79c1.12,0.35,2.03,0.7,2.74,1.06
				c0.71,0.36,1.31,0.88,1.8,1.56c0.49,0.68,0.74,1.58,0.74,2.7C183.61,173.91,183.4,174.71,182.99,175.46z"/>
			<path class="st25" d="M197.57,164.64c0.94,0.57,1.68,1.38,2.21,2.45c0.53,1.07,0.8,2.32,0.8,3.75c0,1.45-0.27,2.71-0.8,3.77
				c-0.53,1.07-1.27,1.88-2.21,2.45s-2.01,0.85-3.21,0.85c-1.25,0-2.32-0.31-3.2-0.92c-0.88-0.62-1.5-1.43-1.85-2.45v9.75h-2.85
				v-20.32h2.85v3.2c0.35-1.02,0.97-1.83,1.85-2.45c0.88-0.62,1.95-0.93,3.2-0.93C195.56,163.79,196.63,164.08,197.57,164.64z
				 M191.34,166.86c-0.63,0.38-1.13,0.91-1.5,1.6c-0.37,0.69-0.55,1.49-0.55,2.39c0,0.92,0.18,1.72,0.55,2.4
				c0.37,0.68,0.87,1.21,1.5,1.59s1.35,0.56,2.15,0.56c1.27,0,2.28-0.4,3.05-1.21c0.77-0.81,1.15-1.92,1.15-3.34
				c0-1.4-0.38-2.51-1.15-3.33c-0.77-0.82-1.78-1.23-3.05-1.23C192.69,166.29,191.97,166.48,191.34,166.86z"/>
			<path class="st25" d="M203.44,158.77c0.33-0.32,0.77-0.48,1.32-0.48c0.55,0,1,0.16,1.34,0.48c0.34,0.32,0.51,0.72,0.51,1.2
				s-0.17,0.88-0.51,1.17c-0.34,0.3-0.79,0.45-1.34,0.45c-0.55,0-0.99-0.15-1.32-0.45c-0.33-0.3-0.5-0.69-0.5-1.17
				S203.1,159.09,203.44,158.77z M206.19,163.97v13.77h-2.85v-13.77H206.19z"/>
			<path class="st25" d="M214.49,164.53c0.87-0.52,1.87-0.79,3-0.79v3.1h-0.85c-1.25,0-2.25,0.3-3.01,0.91
				c-0.76,0.61-1.14,1.61-1.14,3.01v6.98h-2.85v-13.77h2.85v2.7C212.95,165.77,213.62,165.06,214.49,164.53z"/>
			<path class="st25" d="M219.71,158.77c0.33-0.32,0.77-0.48,1.32-0.48c0.55,0,1,0.16,1.34,0.48c0.34,0.32,0.51,0.72,0.51,1.2
				s-0.17,0.88-0.51,1.17c-0.34,0.3-0.79,0.45-1.34,0.45c-0.55,0-0.99-0.15-1.32-0.45c-0.33-0.3-0.5-0.69-0.5-1.17
				S219.38,159.09,219.71,158.77z M222.46,163.97v13.77h-2.85v-13.77H222.46z"/>
			<path class="st25" d="M232.84,175.27v2.48h-1.75c-1.47,0-2.58-0.35-3.34-1.06c-0.76-0.71-1.14-1.89-1.14-3.54v-6.75h-1.97v-2.42
				h1.97v-3.43h2.88v3.43h3.33v2.42h-3.33v6.8c0,0.78,0.15,1.32,0.44,1.62c0.29,0.3,0.8,0.45,1.54,0.45H232.84z"/>
			<path class="st25" d="M248.21,163.97v13.77h-2.88v-3c-0.35,1.02-0.96,1.8-1.82,2.36c-0.87,0.56-1.88,0.84-3.03,0.84
				c-1.6,0-2.88-0.52-3.85-1.55c-0.97-1.03-1.45-2.51-1.45-4.42v-8h2.85v7.7c0,1.25,0.32,2.21,0.95,2.89
				c0.63,0.67,1.5,1.01,2.6,1.01c1.13,0,2.04-0.37,2.73-1.1c0.68-0.73,1.02-1.8,1.02-3.2v-7.3H248.21z"/>
			<path class="st25" d="M260.36,164.72c0.88,0.62,1.51,1.43,1.88,2.45v-3.2h2.85v13.77h-2.85v-3.2c-0.37,1.02-0.99,1.83-1.88,2.45
				c-0.88,0.62-1.95,0.92-3.2,0.92c-1.2,0-2.27-0.28-3.21-0.85s-1.68-1.38-2.21-2.45c-0.53-1.07-0.8-2.33-0.8-3.77
				c0-1.43,0.27-2.68,0.8-3.75c0.53-1.07,1.27-1.88,2.21-2.45c0.94-0.57,2.01-0.85,3.21-0.85
				C258.41,163.79,259.48,164.1,260.36,164.72z M255,167.51c-0.76,0.81-1.14,1.92-1.14,3.34s0.38,2.53,1.14,3.34
				c0.76,0.81,1.77,1.21,3.04,1.21c0.8,0,1.52-0.19,2.15-0.56c0.63-0.38,1.13-0.9,1.5-1.59c0.37-0.68,0.55-1.48,0.55-2.4
				c0-0.9-0.18-1.7-0.55-2.39c-0.37-0.69-0.87-1.23-1.5-1.6c-0.63-0.38-1.35-0.56-2.15-0.56C256.77,166.29,255.76,166.7,255,167.51z
				"/>
			<path class="st25" d="M271.36,159.24v18.5h-2.85v-18.5H271.36z"/>
			<path class="st25" d="M274.91,158.77c0.33-0.32,0.77-0.48,1.32-0.48c0.55,0,1,0.16,1.34,0.48c0.34,0.32,0.51,0.72,0.51,1.2
				s-0.17,0.88-0.51,1.17c-0.34,0.3-0.79,0.45-1.34,0.45c-0.55,0-0.99-0.15-1.32-0.45c-0.33-0.3-0.5-0.69-0.5-1.17
				S274.58,159.09,274.91,158.77z M277.66,163.97v13.77h-2.85v-13.77H277.66z"/>
			<path class="st25" d="M288.04,175.27v2.48h-1.75c-1.47,0-2.58-0.35-3.34-1.06c-0.76-0.71-1.14-1.89-1.14-3.54v-6.75h-1.97v-2.42
				h1.97v-3.43h2.88v3.43h3.33v2.42h-3.33v6.8c0,0.78,0.15,1.32,0.44,1.62c0.29,0.3,0.8,0.45,1.54,0.45H288.04z"/>
			<path class="st25" d="M292.34,163.97l4.12,10.12l3.83-10.12h3.17l-8.33,20.32h-3.17l2.98-6.88l-5.8-13.45H292.34z"/>
		</g>
	</g>
	<g>
		<path class="st26" d="M134.03,84.53c-0.04,0-0.09-0.01-0.13-0.02c-0.23-0.07-0.36-0.31-0.29-0.54c1.43-4.66,3.65-9.01,6.6-12.94
			c0.14-0.19,0.42-0.23,0.61-0.09c0.19,0.14,0.23,0.42,0.09,0.61c-2.89,3.85-5.06,8.11-6.46,12.67
			C134.39,84.41,134.22,84.53,134.03,84.53z M138.48,85.55c1.2-3.96,3.06-7.67,5.51-11.04c0.14-0.19,0.1-0.47-0.1-0.61
			c-0.19-0.14-0.47-0.1-0.61,0.1c-2.51,3.44-4.41,7.24-5.64,11.3c-0.07,0.23,0.06,0.47,0.29,0.54c0.04,0.01,0.09,0.02,0.13,0.02
			C138.25,85.86,138.43,85.74,138.48,85.55z M165.48,55.88c1.2-0.25,2.46-0.45,3.73-0.6c0.24-0.03,0.41-0.24,0.38-0.48
			c-0.03-0.24-0.24-0.41-0.48-0.38c-1.3,0.15-2.58,0.36-3.81,0.61c-0.24,0.05-0.39,0.28-0.34,0.52c0.04,0.21,0.22,0.35,0.43,0.35
			C165.42,55.88,165.45,55.88,165.48,55.88z M168.35,59.67c0.65-0.1,1.36-0.18,2.17-0.26c0.24-0.02,0.42-0.23,0.39-0.47
			c-0.02-0.24-0.24-0.42-0.47-0.39c-0.83,0.08-1.55,0.16-2.22,0.27c-0.24,0.04-0.4,0.26-0.37,0.5c0.03,0.22,0.22,0.37,0.43,0.37
			C168.31,59.67,168.33,59.67,168.35,59.67z M133.18,105.39c0.24-0.05,0.39-0.28,0.34-0.52c-0.25-1.2-0.45-2.46-0.6-3.73
			c-0.03-0.24-0.24-0.41-0.48-0.38c-0.24,0.03-0.41,0.24-0.38,0.48c0.15,1.3,0.36,2.58,0.61,3.81c0.04,0.21,0.22,0.35,0.43,0.35
			C133.12,105.4,133.15,105.4,133.18,105.39z M136.95,102.5c0.24-0.04,0.4-0.26,0.37-0.5c-0.1-0.65-0.18-1.36-0.26-2.17
			c-0.02-0.24-0.23-0.42-0.47-0.39c-0.24,0.02-0.42,0.23-0.39,0.47c0.08,0.83,0.16,1.55,0.27,2.22c0.03,0.22,0.22,0.37,0.43,0.37
			C136.9,102.5,136.92,102.5,136.95,102.5z M214.1,84.51c0.23-0.07,0.36-0.31,0.29-0.54c-1.43-4.66-3.65-9.01-6.6-12.94
			c-0.14-0.19-0.42-0.23-0.61-0.09c-0.19,0.14-0.23,0.42-0.09,0.61c2.89,3.85,5.06,8.11,6.46,12.67c0.06,0.19,0.23,0.31,0.42,0.31
			C214.01,84.53,214.05,84.52,214.1,84.51z M210.06,85.84c0.23-0.07,0.36-0.31,0.29-0.54c-1.23-4.05-3.13-7.85-5.64-11.3
			c-0.14-0.19-0.41-0.24-0.61-0.1c-0.19,0.14-0.24,0.41-0.1,0.61c2.45,3.36,4.31,7.08,5.51,11.04c0.06,0.19,0.23,0.31,0.42,0.31
			C209.98,85.86,210.02,85.85,210.06,85.84z M199.43,63.19c0.14-0.19,0.11-0.47-0.09-0.61c-3.93-2.95-8.29-5.18-12.95-6.61
			c-0.23-0.07-0.47,0.06-0.54,0.29c-0.07,0.23,0.06,0.47,0.29,0.54c4.57,1.4,8.84,3.58,12.68,6.47c0.08,0.06,0.17,0.09,0.26,0.09
			C199.22,63.36,199.35,63.3,199.43,63.19z M196.47,66.26c0.14-0.19,0.1-0.47-0.1-0.61c-3.45-2.52-7.25-4.42-11.31-5.65
			c-0.23-0.07-0.47,0.06-0.54,0.29c-0.07,0.23,0.06,0.47,0.29,0.54c3.96,1.21,7.68,3.06,11.05,5.52c0.08,0.06,0.17,0.08,0.26,0.08
			C196.25,66.44,196.38,66.38,196.47,66.26z M215.57,91.95c0.24-0.03,0.41-0.24,0.38-0.48c-0.15-1.3-0.36-2.58-0.61-3.81
			c-0.05-0.24-0.28-0.38-0.52-0.34c-0.24,0.05-0.39,0.28-0.34,0.52c0.25,1.2,0.45,2.46,0.6,3.73c0.03,0.22,0.21,0.39,0.43,0.39
			C215.53,91.95,215.55,91.95,215.57,91.95z M211.42,93.28c0.24-0.02,0.42-0.23,0.39-0.47c-0.08-0.83-0.16-1.55-0.27-2.22
			c-0.04-0.24-0.26-0.4-0.5-0.37c-0.24,0.04-0.4,0.26-0.37,0.5c0.1,0.65,0.18,1.36,0.26,2.17c0.02,0.23,0.21,0.4,0.43,0.4
			C211.4,93.28,211.41,93.28,211.42,93.28z M140.82,121.78c0.19-0.14,0.23-0.42,0.09-0.61c-2.89-3.85-5.06-8.11-6.46-12.67
			c-0.07-0.23-0.31-0.36-0.54-0.29c-0.23,0.07-0.36,0.31-0.29,0.54c1.43,4.66,3.65,9.01,6.6,12.94c0.09,0.11,0.22,0.17,0.35,0.17
			C140.65,121.86,140.74,121.83,140.82,121.78z M143.9,118.81c0.19-0.14,0.24-0.41,0.1-0.61c-2.45-3.36-4.31-7.08-5.51-11.04
			c-0.07-0.23-0.31-0.36-0.54-0.29c-0.23,0.07-0.36,0.31-0.29,0.54c1.23,4.05,3.13,7.85,5.64,11.3c0.09,0.12,0.22,0.18,0.35,0.18
			C143.73,118.9,143.82,118.87,143.9,118.81z M132.92,91.57c0.15-1.27,0.35-2.53,0.6-3.73c0.05-0.24-0.1-0.47-0.34-0.52
			c-0.24-0.05-0.47,0.1-0.52,0.34c-0.26,1.23-0.46,2.51-0.61,3.81c-0.03,0.24,0.14,0.46,0.38,0.48c0.02,0,0.03,0,0.05,0
			C132.7,91.95,132.89,91.79,132.92,91.57z M137.05,92.88c0.07-0.81,0.16-1.52,0.26-2.17c0.04-0.24-0.13-0.46-0.37-0.5
			c-0.24-0.04-0.46,0.13-0.5,0.37c-0.1,0.67-0.19,1.4-0.27,2.22c-0.02,0.24,0.15,0.45,0.39,0.47c0.01,0,0.03,0,0.04,0
			C136.84,93.28,137.03,93.11,137.05,92.88z M183.04,55.54c0.05-0.24-0.1-0.47-0.34-0.52c-1.23-0.26-2.51-0.46-3.81-0.61
			c-0.24-0.03-0.46,0.14-0.48,0.38c-0.03,0.24,0.14,0.46,0.38,0.48c1.27,0.15,2.53,0.35,3.73,0.6c0.03,0.01,0.06,0.01,0.09,0.01
			C182.81,55.88,182.99,55.74,183.04,55.54z M180.14,59.3c0.04-0.24-0.13-0.46-0.37-0.5c-0.67-0.1-1.4-0.19-2.22-0.27
			c-0.24-0.02-0.45,0.15-0.47,0.39c-0.02,0.24,0.15,0.45,0.39,0.47c0.81,0.07,1.52,0.16,2.17,0.26c0.02,0,0.04,0,0.07,0
			C179.92,59.67,180.11,59.52,180.14,59.3z M207.79,121.69c2.95-3.93,5.17-8.28,6.6-12.94c0.07-0.23-0.06-0.47-0.29-0.54
			c-0.23-0.07-0.47,0.06-0.54,0.29c-1.4,4.56-3.57,8.83-6.46,12.67c-0.14,0.19-0.11,0.47,0.09,0.61c0.08,0.06,0.17,0.09,0.26,0.09
			C207.57,121.86,207.7,121.8,207.79,121.69z M204.71,118.72c2.51-3.44,4.41-7.24,5.64-11.3c0.07-0.23-0.06-0.47-0.29-0.54
			c-0.23-0.07-0.47,0.06-0.54,0.29c-1.2,3.96-3.06,7.67-5.51,11.04c-0.14,0.19-0.1,0.47,0.1,0.61c0.08,0.06,0.17,0.08,0.26,0.08
			C204.49,118.9,204.62,118.83,204.71,118.72z M186.39,136.74c4.66-1.43,9.02-3.65,12.95-6.61c0.19-0.14,0.23-0.42,0.09-0.61
			c-0.14-0.19-0.42-0.23-0.61-0.09c-3.85,2.89-8.12,5.07-12.68,6.47c-0.23,0.07-0.36,0.31-0.29,0.54c0.06,0.19,0.23,0.31,0.42,0.31
			C186.31,136.76,186.35,136.75,186.39,136.74z M185.06,132.71c4.06-1.23,7.86-3.13,11.31-5.65c0.19-0.14,0.24-0.41,0.1-0.61
			c-0.14-0.19-0.41-0.24-0.61-0.1c-3.37,2.46-7.08,4.31-11.05,5.52c-0.23,0.07-0.36,0.31-0.29,0.54c0.06,0.19,0.23,0.31,0.42,0.31
			C184.98,132.73,185.02,132.72,185.06,132.71z M215.33,105.06c0.26-1.23,0.46-2.51,0.61-3.81c0.03-0.24-0.14-0.46-0.38-0.48
			c-0.24-0.03-0.46,0.14-0.48,0.38c-0.15,1.27-0.35,2.53-0.6,3.73c-0.05,0.24,0.1,0.47,0.34,0.52c0.03,0.01,0.06,0.01,0.09,0.01
			C215.11,105.4,215.29,105.26,215.33,105.06z M211.55,102.13c0.1-0.67,0.19-1.4,0.27-2.22c0.02-0.24-0.15-0.45-0.39-0.47
			c-0.24-0.02-0.45,0.15-0.47,0.39c-0.07,0.81-0.16,1.52-0.26,2.17c-0.04,0.24,0.13,0.46,0.37,0.5c0.02,0,0.04,0,0.07,0
			C211.33,102.5,211.52,102.35,211.55,102.13z M149.18,63.27c3.85-2.89,8.12-5.07,12.68-6.47c0.23-0.07,0.36-0.31,0.29-0.54
			c-0.07-0.23-0.31-0.36-0.54-0.29c-4.66,1.43-9.02,3.65-12.95,6.61c-0.19,0.14-0.23,0.42-0.09,0.61c0.09,0.11,0.22,0.17,0.35,0.17
			C149.01,63.36,149.1,63.33,149.18,63.27z M152.14,66.36c3.37-2.46,7.08-4.31,11.05-5.52c0.23-0.07,0.36-0.31,0.29-0.54
			c-0.07-0.23-0.31-0.36-0.54-0.29c-4.06,1.23-7.86,3.13-11.31,5.65c-0.19,0.14-0.24,0.41-0.1,0.61c0.09,0.12,0.22,0.18,0.35,0.18
			C151.98,66.44,152.07,66.42,152.14,66.36z M178.89,138.3c1.3-0.15,2.58-0.36,3.81-0.61c0.24-0.05,0.39-0.28,0.34-0.52
			c-0.05-0.24-0.28-0.39-0.52-0.34c-1.2,0.25-2.46,0.45-3.73,0.6c-0.24,0.03-0.41,0.24-0.38,0.48c0.03,0.22,0.21,0.39,0.43,0.39
			C178.86,138.31,178.87,138.31,178.89,138.3z M177.56,134.17c0.83-0.08,1.55-0.16,2.22-0.27c0.24-0.04,0.4-0.26,0.37-0.5
			c-0.04-0.24-0.26-0.4-0.5-0.37c-0.65,0.1-1.36,0.18-2.17,0.26c-0.24,0.02-0.42,0.24-0.39,0.47c0.02,0.23,0.21,0.4,0.43,0.4
			C177.53,134.18,177.54,134.18,177.56,134.17z M162.15,136.45c0.07-0.23-0.06-0.47-0.29-0.54c-4.57-1.4-8.84-3.58-12.68-6.47
			c-0.19-0.14-0.47-0.11-0.61,0.09c-0.14,0.19-0.11,0.47,0.09,0.61c3.93,2.95,8.29,5.18,12.95,6.61c0.04,0.01,0.09,0.02,0.13,0.02
			C161.92,136.76,162.09,136.64,162.15,136.45z M163.48,132.42c0.07-0.23-0.06-0.47-0.29-0.54c-3.96-1.21-7.68-3.06-11.05-5.52
			c-0.19-0.14-0.47-0.1-0.61,0.1c-0.14,0.19-0.1,0.47,0.1,0.61c3.45,2.52,7.25,4.42,11.31,5.65c0.04,0.01,0.09,0.02,0.13,0.02
			C163.25,132.73,163.43,132.6,163.48,132.42z M169.59,137.92c0.03-0.24-0.14-0.46-0.38-0.48c-1.27-0.15-2.53-0.35-3.73-0.6
			c-0.24-0.05-0.47,0.1-0.52,0.34c-0.05,0.24,0.1,0.47,0.34,0.52c1.23,0.26,2.51,0.46,3.81,0.61c0.02,0,0.03,0,0.05,0
			C169.38,138.31,169.57,138.14,169.59,137.92z M170.92,133.78c0.02-0.24-0.15-0.45-0.39-0.47c-0.81-0.07-1.52-0.16-2.17-0.26
			c-0.24-0.04-0.46,0.13-0.5,0.36c-0.04,0.24,0.13,0.46,0.37,0.5c0.67,0.1,1.4,0.19,2.22,0.27c0.01,0,0.03,0,0.04,0
			C170.71,134.18,170.9,134.01,170.92,133.78z M159.9,89.86c0.18-0.16,0.2-0.44,0.03-0.62c-2.55-2.85-4.05-6.7-4.47-11.44
			c4.72,0.42,8.56,1.91,11.41,4.45c0.18,0.16,0.46,0.14,0.62-0.04s0.14-0.46-0.04-0.62c-3.1-2.76-7.28-4.34-12.44-4.71
			c-0.13-0.01-0.25,0.04-0.34,0.13c-0.09,0.09-0.14,0.21-0.13,0.34c0.37,5.17,1.96,9.36,4.73,12.47c0.09,0.1,0.21,0.15,0.33,0.15
			C159.71,89.97,159.82,89.94,159.9,89.86z M168.26,90.61c0.17-0.17,0.17-0.45,0-0.62L155.3,77.02c-0.17-0.17-0.45-0.17-0.62,0
			c-0.17,0.17-0.17,0.45,0,0.62l12.96,12.97c0.09,0.09,0.2,0.13,0.31,0.13C168.06,90.74,168.17,90.7,168.26,90.61z M188.72,89.83
			c2.77-3.1,4.36-7.3,4.73-12.47c0.01-0.13-0.04-0.25-0.13-0.34c-0.09-0.09-0.21-0.13-0.34-0.13c-5.15,0.37-9.34,1.95-12.44,4.71
			c-0.18,0.16-0.2,0.44-0.04,0.62s0.44,0.2,0.62,0.04c2.85-2.53,6.69-4.03,11.41-4.45c-0.42,4.74-1.92,8.59-4.47,11.44
			c-0.16,0.18-0.14,0.46,0.03,0.62c0.08,0.07,0.19,0.11,0.29,0.11C188.51,89.97,188.63,89.93,188.72,89.83z M180.36,90.61
			l12.96-12.97c0.17-0.17,0.17-0.45,0-0.62c-0.17-0.17-0.45-0.17-0.62,0L179.74,90c-0.17,0.17-0.17,0.45,0,0.62
			c0.09,0.09,0.2,0.13,0.31,0.13S180.27,90.7,180.36,90.61z M155.02,115.81c5.15-0.37,9.34-1.95,12.44-4.71
			c0.18-0.16,0.2-0.44,0.04-0.62c-0.16-0.18-0.44-0.2-0.62-0.04c-2.85,2.53-6.69,4.03-11.41,4.45c0.42-4.74,1.92-8.59,4.47-11.44
			c0.16-0.18,0.14-0.46-0.03-0.62c-0.18-0.16-0.46-0.14-0.62,0.03c-2.77,3.1-4.36,7.3-4.73,12.47c-0.01,0.13,0.04,0.25,0.13,0.34
			c0.08,0.08,0.19,0.13,0.31,0.13C155,115.82,155.01,115.82,155.02,115.81z M155.3,115.69l12.96-12.97c0.17-0.17,0.17-0.45,0-0.62
			c-0.17-0.17-0.45-0.17-0.62,0l-12.96,12.97c-0.17,0.17-0.17,0.45,0,0.62c0.09,0.09,0.2,0.13,0.31,0.13
			C155.1,115.82,155.21,115.77,155.3,115.69z M193.32,115.69c0.09-0.09,0.14-0.21,0.13-0.34c-0.37-5.17-1.96-9.36-4.73-12.47
			c-0.16-0.18-0.44-0.2-0.62-0.03c-0.18,0.16-0.2,0.44-0.03,0.62c2.55,2.85,4.05,6.7,4.47,11.44c-4.72-0.42-8.56-1.91-11.41-4.45
			c-0.18-0.16-0.46-0.14-0.62,0.04c-0.16,0.18-0.14,0.46,0.04,0.62c3.1,2.76,7.28,4.34,12.44,4.71c0.01,0,0.02,0,0.03,0
			C193.13,115.82,193.24,115.77,193.32,115.69z M193.32,115.69c0.17-0.17,0.17-0.45,0-0.62l-12.96-12.97
			c-0.17-0.17-0.45-0.17-0.62,0c-0.17,0.17-0.17,0.45,0,0.62l12.96,12.97c0.09,0.09,0.2,0.13,0.31,0.13
			C193.13,115.82,193.24,115.77,193.32,115.69z"/>
		<path class="st25" d="M174,149.11c-29.09,0-52.76-23.67-52.76-52.76S144.91,43.6,174,43.6s52.76,23.67,52.76,52.76
			C226.76,125.45,203.09,149.11,174,149.11z M174,44.47c-28.61,0-51.89,23.28-51.89,51.89s23.28,51.89,51.89,51.89
			s51.89-23.28,51.89-51.89S202.61,44.47,174,44.47z M159.45,142.58c0.07-0.23-0.05-0.47-0.28-0.55
			c-14.58-4.73-26.11-16.26-30.85-30.85c-0.07-0.23-0.32-0.35-0.55-0.28c-0.23,0.07-0.35,0.32-0.28,0.55
			c4.82,14.85,16.56,26.59,31.41,31.41c0.04,0.01,0.09,0.02,0.13,0.02C159.22,142.89,159.39,142.77,159.45,142.58z M128.32,81.52
			c4.73-14.58,16.26-26.11,30.85-30.85c0.23-0.07,0.35-0.32,0.28-0.55c-0.07-0.23-0.32-0.35-0.55-0.28
			c-14.85,4.82-26.59,16.56-31.41,31.41c-0.07,0.23,0.05,0.47,0.28,0.55c0.04,0.01,0.09,0.02,0.13,0.02
			C128.09,81.82,128.26,81.71,128.32,81.52z M220.23,81.8c0.23-0.07,0.35-0.32,0.28-0.55c-4.82-14.85-16.56-26.59-31.41-31.41
			c-0.23-0.07-0.47,0.05-0.55,0.28c-0.07,0.23,0.05,0.47,0.28,0.55c14.58,4.73,26.11,16.26,30.85,30.85c0.06,0.18,0.23,0.3,0.41,0.3
			C220.14,81.82,220.18,81.82,220.23,81.8z M189.1,142.86c14.85-4.82,26.59-16.56,31.41-31.41c0.07-0.23-0.05-0.47-0.28-0.55
			c-0.23-0.07-0.47,0.05-0.55,0.28c-4.73,14.58-16.26,26.11-30.85,30.85c-0.23,0.07-0.35,0.32-0.28,0.55
			c0.06,0.18,0.23,0.3,0.41,0.3C189.01,142.89,189.06,142.88,189.1,142.86z M174,149.11c-29.09,0-52.76-23.67-52.76-52.76
			S144.91,43.6,174,43.6s52.76,23.67,52.76,52.76C226.76,125.45,203.09,149.11,174,149.11z M174,44.47
			c-28.61,0-51.89,23.28-51.89,51.89s23.28,51.89,51.89,51.89s51.89-23.28,51.89-51.89S202.61,44.47,174,44.47z M159.45,142.58
			c0.07-0.23-0.05-0.47-0.28-0.55c-14.58-4.73-26.11-16.26-30.85-30.85c-0.07-0.23-0.32-0.35-0.55-0.28
			c-0.23,0.07-0.35,0.32-0.28,0.55c4.82,14.85,16.56,26.59,31.41,31.41c0.04,0.01,0.09,0.02,0.13,0.02
			C159.22,142.89,159.39,142.77,159.45,142.58z M128.32,81.52c4.73-14.58,16.26-26.11,30.85-30.85c0.23-0.07,0.35-0.32,0.28-0.55
			c-0.07-0.23-0.32-0.35-0.55-0.28c-14.85,4.82-26.59,16.56-31.41,31.41c-0.07,0.23,0.05,0.48,0.28,0.55
			c0.04,0.01,0.09,0.02,0.13,0.02C128.09,81.82,128.26,81.71,128.32,81.52z M220.23,81.8c0.23-0.07,0.35-0.32,0.28-0.55
			c-4.82-14.85-16.56-26.59-31.41-31.41c-0.23-0.07-0.47,0.05-0.55,0.28c-0.07,0.23,0.05,0.48,0.28,0.55
			c14.58,4.73,26.11,16.26,30.85,30.85c0.06,0.18,0.23,0.3,0.41,0.3C220.14,81.82,220.18,81.82,220.23,81.8z M189.1,142.86
			c14.85-4.82,26.59-16.56,31.41-31.41c0.07-0.23-0.05-0.48-0.28-0.55c-0.23-0.07-0.48,0.05-0.55,0.28
			c-4.73,14.58-16.26,26.11-30.85,30.85c-0.23,0.07-0.35,0.32-0.28,0.55c0.06,0.18,0.23,0.3,0.41,0.3
			C189.01,142.89,189.06,142.88,189.1,142.86z M174,64.17c-0.12,0-0.23-0.05-0.32-0.14c-0.21-0.22-5.07-5.39-4.96-9.27
			c0.06-2.23,1.23-2.67,1.74-2.76c1.22-0.21,2.66,0.75,3.54,2.28c0.88-1.53,2.32-2.49,3.54-2.28c0.5,0.09,1.68,0.53,1.74,2.76
			c0.11,3.88-4.75,9.06-4.96,9.27C174.23,64.12,174.12,64.17,174,64.17z M170.8,52.85c-0.07,0-0.13,0.01-0.19,0.02
			c-0.84,0.15-1,1.27-1.02,1.92c-0.08,2.99,3.33,7.09,4.4,8.3c1.07-1.21,4.49-5.31,4.4-8.3c-0.02-0.65-0.17-1.77-1.02-1.92
			c-0.89-0.15-2.31,0.84-2.98,2.58c-0.07,0.17-0.23,0.28-0.41,0.28c-0.18,0-0.34-0.11-0.41-0.28
			C172.96,53.83,171.69,52.85,170.8,52.85z M177.2,140.74c-1.14,0-2.4-0.92-3.2-2.31c-0.88,1.53-2.32,2.49-3.54,2.28
			c-0.5-0.09-1.68-0.53-1.74-2.76c-0.11-3.88,4.75-9.06,4.96-9.27c0.16-0.17,0.47-0.17,0.63,0c0.21,0.22,5.07,5.39,4.96,9.27
			c-0.06,2.22-1.23,2.67-1.74,2.76C177.43,140.73,177.31,140.74,177.2,140.74z M174,136.99c0.18,0,0.34,0.11,0.41,0.28
			c0.68,1.74,2.09,2.74,2.98,2.58c0.84-0.15,1-1.27,1.02-1.92c0.08-2.99-3.33-7.09-4.4-8.3c-1.07,1.21-4.49,5.32-4.4,8.3
			c0.02,0.65,0.17,1.77,1.02,1.92c0.9,0.16,2.31-0.84,2.98-2.58C173.66,137.1,173.82,136.99,174,136.99z M215.47,101.63
			c-3.87,0-8.93-4.76-9.15-4.96c-0.09-0.08-0.14-0.2-0.14-0.32c0-0.12,0.05-0.23,0.14-0.32c0.22-0.21,5.38-5.08,9.27-4.96
			c2.22,0.06,2.67,1.23,2.76,1.74c0.21,1.22-0.75,2.66-2.28,3.54c1.53,0.88,2.49,2.32,2.28,3.54c-0.09,0.5-0.53,1.68-2.76,1.74
			C215.55,101.63,215.51,101.63,215.47,101.63z M207.27,96.36c1.21,1.07,5.33,4.48,8.3,4.4c0.65-0.02,1.77-0.17,1.92-1.02
			c0.16-0.89-0.84-2.31-2.58-2.98c-0.17-0.07-0.28-0.23-0.28-0.41s0.11-0.34,0.28-0.41c1.74-0.68,2.73-2.09,2.58-2.98
			c-0.15-0.84-1.27-1-1.92-1.02C212.57,91.88,208.48,95.28,207.27,96.36z M132.53,101.63c-0.04,0-0.08,0-0.13,0
			c-2.23-0.06-2.67-1.23-2.76-1.74c-0.21-1.22,0.75-2.66,2.28-3.54c-1.53-0.88-2.49-2.32-2.28-3.54c0.09-0.5,0.53-1.68,2.76-1.74
			c3.88-0.13,9.06,4.75,9.27,4.96c0.09,0.08,0.14,0.2,0.14,0.32c0,0.12-0.05,0.23-0.14,0.32
			C141.46,96.88,136.4,101.63,132.53,101.63z M132.53,91.95c-0.04,0-0.07,0-0.11,0c-0.65,0.02-1.77,0.17-1.92,1.02
			c-0.16,0.89,0.84,2.31,2.58,2.98c0.17,0.07,0.28,0.23,0.28,0.41c0,0.18-0.11,0.34-0.28,0.41c-1.74,0.68-2.73,2.09-2.58,2.98
			c0.15,0.84,1.27,1,1.92,1.02c2.98,0.08,7.09-3.33,8.3-4.4C139.53,95.3,135.51,91.95,132.53,91.95z M174,106.4
			c-0.2,0-0.38-0.14-0.43-0.34c-1.47-6.68-2.06-7.85-6.92-9.28c-0.19-0.05-0.31-0.22-0.31-0.42c0-0.19,0.13-0.36,0.31-0.42
			c4.86-1.42,5.45-2.6,6.92-9.28c0.04-0.2,0.22-0.34,0.43-0.34c0.2,0,0.38,0.14,0.43,0.34c1.47,6.68,2.06,7.85,6.92,9.28
			c0.19,0.05,0.31,0.22,0.31,0.42c0,0.19-0.13,0.36-0.31,0.42c-4.86,1.42-5.45,2.6-6.92,9.28C174.38,106.25,174.21,106.4,174,106.4z
			 M168.21,96.36c3.65,1.28,4.63,2.85,5.79,7.65c1.16-4.8,2.14-6.37,5.79-7.65c-3.65-1.28-4.63-2.85-5.79-7.65
			C172.84,93.51,171.86,95.08,168.21,96.36z M146.17,72.82c-2.36,0-4.28-1.92-4.28-4.28c0-2.36,1.92-4.28,4.28-4.28
			c2.36,0,4.28,1.92,4.28,4.28C150.46,70.9,148.53,72.82,146.17,72.82z M146.17,65.12c-1.88,0-3.41,1.53-3.41,3.41
			c0,1.88,1.53,3.41,3.41,3.41c1.88,0,3.41-1.53,3.41-3.41C149.58,66.66,148.05,65.12,146.17,65.12z M146.17,128.46
			c-2.36,0-4.28-1.92-4.28-4.29s1.92-4.28,4.28-4.28c2.36,0,4.28,1.92,4.28,4.28C150.46,126.54,148.53,128.46,146.17,128.46z
			 M146.17,120.76c-1.88,0-3.41,1.53-3.41,3.41c0,1.88,1.53,3.41,3.41,3.41c1.88,0,3.41-1.53,3.41-3.41
			C149.58,122.29,148.05,120.76,146.17,120.76z M201.83,72.82c-2.36,0-4.28-1.92-4.28-4.28c0-2.36,1.92-4.28,4.28-4.28
			s4.28,1.92,4.28,4.28S204.19,72.82,201.83,72.82z M201.83,65.12c-1.88,0-3.41,1.53-3.41,3.41c0,1.88,1.53,3.41,3.41,3.41
			s3.41-1.53,3.41-3.41C205.24,66.66,203.71,65.12,201.83,65.12z M201.83,128.46c-2.36,0-4.28-1.92-4.28-4.29s1.92-4.28,4.28-4.28
			s4.28,1.92,4.28,4.28S204.19,128.46,201.83,128.46z M201.83,120.76c-1.88,0-3.41,1.53-3.41,3.41c0,1.88,1.53,3.41,3.41,3.41
			s3.41-1.53,3.41-3.41C205.24,122.29,203.71,120.76,201.83,120.76z M158.23,73.79c-0.19,0-0.39-0.02-0.58-0.06
			c-0.72-0.15-1.34-0.58-1.75-1.2c-0.4-0.62-0.54-1.36-0.39-2.09c0.15-0.72,0.58-1.34,1.2-1.75c0.62-0.4,1.36-0.54,2.09-0.39
			c0.72,0.15,1.34,0.58,1.75,1.2c0.4,0.62,0.54,1.36,0.39,2.09c-0.15,0.72-0.58,1.34-1.2,1.75
			C159.28,73.64,158.76,73.79,158.23,73.79z M158.22,69.12c-0.36,0-0.72,0.1-1.03,0.31c-0.43,0.28-0.72,0.7-0.82,1.2
			c-0.11,0.5-0.01,1,0.26,1.43c0.28,0.43,0.7,0.72,1.2,0.82c0.5,0.11,1,0.01,1.43-0.26c0.43-0.28,0.72-0.7,0.82-1.2
			c0.11-0.5,0.01-1-0.26-1.43l0,0c-0.28-0.43-0.7-0.72-1.2-0.82C158.49,69.14,158.35,69.12,158.22,69.12z M148.77,83.25
			c-0.38,0-0.76-0.08-1.12-0.24c-1.4-0.62-2.03-2.26-1.4-3.66c0.62-1.4,2.26-2.03,3.66-1.4c1.4,0.62,2.03,2.26,1.4,3.66
			C150.84,82.64,149.83,83.25,148.77,83.25z M148.77,78.58c-0.23,0-0.46,0.04-0.68,0.13c-0.47,0.18-0.85,0.54-1.05,1
			c-0.21,0.46-0.22,0.98-0.04,1.45c0.18,0.47,0.54,0.85,1,1.05c0.96,0.43,2.08-0.01,2.51-0.96c0.43-0.96-0.01-2.08-0.96-2.51
			C149.29,78.64,149.03,78.58,148.77,78.58z M158.22,124.46c-0.52,0-1.04-0.14-1.5-0.45c-1.28-0.83-1.65-2.55-0.81-3.83
			c0.4-0.62,1.02-1.05,1.75-1.2c0.72-0.15,1.46-0.02,2.09,0.39c1.28,0.83,1.65,2.55,0.81,3.83
			C160.02,124.01,159.13,124.46,158.22,124.46z M158.23,119.79c-0.13,0-0.27,0.01-0.4,0.04c-0.5,0.11-0.92,0.4-1.2,0.82
			c-0.57,0.88-0.32,2.06,0.56,2.63c0.88,0.57,2.06,0.32,2.63-0.56c0.57-0.88,0.32-2.06-0.56-2.63
			C158.95,119.89,158.59,119.79,158.23,119.79z M148.77,115c-1.06,0-2.08-0.61-2.54-1.64c-0.62-1.4,0.01-3.04,1.4-3.66
			s3.04,0.01,3.66,1.4c0.62,1.4-0.01,3.04-1.4,3.66C149.53,114.92,149.15,115,148.77,115z M148.77,110.33
			c-0.26,0-0.52,0.05-0.77,0.16c-0.46,0.21-0.82,0.58-1,1.05s-0.17,0.99,0.04,1.45c0.21,0.46,0.58,0.82,1.05,1
			c0.47,0.18,0.99,0.17,1.45-0.04c0.96-0.43,1.39-1.55,0.96-2.51C150.19,110.75,149.49,110.33,148.77,110.33z M189.77,73.79
			c-0.53,0-1.05-0.15-1.5-0.45c-0.62-0.4-1.05-1.02-1.2-1.75c-0.15-0.72-0.02-1.46,0.39-2.09l0,0c0.4-0.62,1.02-1.05,1.75-1.2
			c0.72-0.15,1.46-0.02,2.09,0.39c0.62,0.4,1.05,1.02,1.2,1.75c0.15,0.72,0.02,1.46-0.39,2.09c-0.4,0.62-1.02,1.05-1.75,1.2
			C190.16,73.77,189.96,73.79,189.77,73.79z M189.78,69.12c-0.13,0-0.27,0.01-0.4,0.04c-0.5,0.11-0.92,0.4-1.2,0.82l0,0
			c-0.28,0.43-0.37,0.93-0.26,1.43c0.11,0.5,0.4,0.92,0.82,1.2c0.43,0.28,0.93,0.37,1.43,0.26c0.5-0.11,0.92-0.4,1.2-0.82
			c0.28-0.43,0.37-0.93,0.26-1.43c-0.11-0.5-0.4-0.92-0.82-1.2C190.5,69.23,190.14,69.12,189.78,69.12z M187.82,69.75L187.82,69.75
			L187.82,69.75z M199.24,83.25c-1.06,0-2.08-0.61-2.54-1.64c-0.62-1.4,0.01-3.04,1.4-3.66c1.4-0.62,3.04,0.01,3.66,1.4
			c0.62,1.4-0.01,3.04-1.4,3.66C199.99,83.18,199.61,83.25,199.24,83.25z M199.23,78.58c-0.26,0-0.52,0.05-0.77,0.17
			c-0.96,0.43-1.39,1.55-0.96,2.51c0.43,0.96,1.55,1.39,2.51,0.96c0.46-0.21,0.82-0.58,1-1.05c0.18-0.47,0.17-0.99-0.04-1.45
			c-0.21-0.46-0.58-0.82-1.05-1C199.69,78.62,199.46,78.58,199.23,78.58z M189.78,124.46c-0.91,0-1.8-0.44-2.33-1.26
			c-0.83-1.28-0.47-3,0.81-3.83c0.62-0.4,1.36-0.54,2.09-0.39c0.72,0.15,1.34,0.58,1.75,1.2c0.83,1.28,0.47,3-0.81,3.83
			C190.82,124.32,190.3,124.46,189.78,124.46z M189.77,119.79c-0.36,0-0.72,0.1-1.03,0.31c-0.88,0.57-1.13,1.75-0.56,2.63
			c0.57,0.88,1.75,1.13,2.63,0.56c0.88-0.57,1.13-1.75,0.56-2.63c-0.28-0.43-0.7-0.72-1.2-0.82
			C190.04,119.8,189.9,119.79,189.77,119.79z M199.23,115c-0.38,0-0.76-0.08-1.12-0.24c-1.4-0.62-2.03-2.26-1.4-3.66
			c0.62-1.4,2.26-2.03,3.66-1.4c1.4,0.62,2.03,2.26,1.4,3.66C201.3,114.39,200.29,115,199.23,115z M199.23,110.33
			c-0.73,0-1.42,0.42-1.74,1.13c-0.43,0.96,0.01,2.08,0.96,2.51c0.46,0.21,0.98,0.22,1.45,0.04c0.47-0.18,0.85-0.54,1.05-1
			c0.21-0.46,0.22-0.98,0.04-1.45c-0.18-0.47-0.54-0.85-1-1.05C199.75,110.38,199.49,110.33,199.23,110.33z M163.48,78.98
			c-0.3-3.47,0.32-7.11,1.86-10.82c0.09-0.22-0.01-0.48-0.24-0.57c-0.22-0.09-0.48,0.01-0.57,0.24c-1.53,3.67-2.18,7.29-1.96,10.76
			C162.88,78.71,163.18,78.84,163.48,78.98z M184.53,78.98c0.29-0.14,0.59-0.27,0.9-0.4c0.22-3.47-0.43-7.08-1.96-10.76
			c-0.09-0.22-0.35-0.33-0.57-0.24c-0.22,0.09-0.33,0.35-0.24,0.57C184.21,71.88,184.83,75.51,184.53,78.98z M191.72,85.02
			c-0.13,0.31-0.26,0.61-0.4,0.9c3.46-0.29,7.08,0.33,10.77,1.87c0.05,0.02,0.11,0.03,0.17,0.03c0.17,0,0.33-0.1,0.4-0.27
			c0.09-0.22-0.01-0.48-0.24-0.57C198.77,85.46,195.17,84.81,191.72,85.02z M145.74,87.82c0.06,0,0.11-0.01,0.17-0.03
			c3.69-1.54,7.32-2.16,10.77-1.87c-0.14-0.29-0.28-0.59-0.4-0.9c-3.45-0.21-7.05,0.44-10.7,1.96c-0.22,0.09-0.33,0.35-0.24,0.57
			C145.41,87.72,145.57,87.82,145.74,87.82z M184.53,113.73c0.3,3.47-0.32,7.11-1.86,10.82c-0.09,0.22,0.01,0.48,0.24,0.57
			c0.05,0.02,0.11,0.03,0.17,0.03c0.17,0,0.33-0.1,0.4-0.27c1.53-3.67,2.18-7.29,1.96-10.76C185.12,114,184.82,113.87,184.53,113.73
			z M202.09,104.93c-3.69,1.54-7.32,2.16-10.77,1.87c0.14,0.3,0.28,0.6,0.41,0.91c0.42,0.03,0.84,0.04,1.26,0.04
			c3.06,0,6.23-0.67,9.44-2.01c0.22-0.09,0.33-0.35,0.24-0.57C202.57,104.94,202.31,104.84,202.09,104.93z M156.28,107.7
			c0.13-0.31,0.26-0.61,0.41-0.91c-3.46,0.29-7.08-0.33-10.77-1.87c-0.22-0.09-0.48,0.01-0.57,0.24c-0.09,0.22,0.01,0.48,0.24,0.57
			c3.21,1.34,6.38,2.01,9.44,2.01C155.44,107.74,155.86,107.73,156.28,107.7z M163.48,113.73c-0.29,0.14-0.59,0.27-0.9,0.4
			c-0.22,3.47,0.43,7.08,1.96,10.76c0.07,0.17,0.23,0.27,0.4,0.27c0.06,0,0.11-0.01,0.17-0.03c0.22-0.09,0.33-0.35,0.24-0.57
			C163.79,120.84,163.17,117.2,163.48,113.73z"/>
		<path class="st14" d="M188.97,142.89c-0.07,0-0.14-0.02-0.21-0.05c-5.74-3.14-9.56-8.86-11.76-13.11c-1.52-2.95-2.5-5.61-3-7.15
			c-0.51,1.54-1.48,4.21-3,7.15c-2.2,4.25-6.02,9.97-11.76,13.11c-0.17,0.1-0.39,0.06-0.52-0.08c-0.14-0.14-0.16-0.36-0.06-0.53
			c0.07-0.12,7.04-11.82,8.83-39.35c-27.53,1.78-39.24,8.76-39.35,8.83c-0.17,0.1-0.39,0.08-0.53-0.06
			c-0.14-0.14-0.18-0.35-0.08-0.52c3.14-5.74,8.86-9.56,13.11-11.76c2.95-1.52,5.61-2.5,7.15-3c-1.54-0.51-4.21-1.48-7.15-3
			c-4.25-2.2-9.97-6.02-13.11-11.76c-0.09-0.17-0.06-0.39,0.08-0.52c0.14-0.14,0.36-0.16,0.53-0.06c0.12,0.07,11.82,7.04,39.35,8.83
			c-1.78-27.53-8.76-39.24-8.83-39.35c-0.1-0.17-0.08-0.39,0.06-0.53c0.14-0.14,0.35-0.18,0.52-0.08
			c5.74,3.14,9.56,8.86,11.76,13.11c1.52,2.95,2.5,5.61,3,7.15c0.51-1.54,1.48-4.21,3-7.15c2.2-4.25,6.02-9.97,11.76-13.11
			c0.17-0.09,0.39-0.06,0.52,0.08c0.14,0.14,0.16,0.36,0.06,0.53c-0.07,0.12-7.04,11.82-8.83,39.35
			c27.53-1.78,39.24-8.76,39.35-8.83c0.17-0.1,0.38-0.08,0.53,0.06c0.14,0.14,0.18,0.35,0.08,0.52c-3.14,5.74-8.86,9.56-13.11,11.76
			c-2.95,1.52-5.61,2.5-7.15,3c1.54,0.51,4.21,1.48,7.15,3c4.25,2.2,9.97,6.02,13.11,11.76c0.09,0.17,0.06,0.39-0.08,0.52
			c-0.14,0.14-0.36,0.16-0.53,0.06c-0.12-0.07-11.82-7.04-39.35-8.83c1.78,27.53,8.76,39.24,8.83,39.35
			c0.1,0.17,0.08,0.39-0.06,0.53C189.2,142.84,189.09,142.89,188.97,142.89z M167.95,101.97c0.12,0,0.23,0.05,0.31,0.13
			c0.09,0.09,0.13,0.21,0.13,0.34c-1.41,22.77-6.37,34.96-8.26,38.85c4.82-3.14,8.11-8.15,10.08-11.94c2.33-4.5,3.36-8.34,3.37-8.38
			c0.05-0.19,0.22-0.32,0.42-0.32c0.2,0,0.37,0.13,0.42,0.32c0.01,0.04,1.03,3.87,3.37,8.38c1.97,3.8,5.26,8.81,10.08,11.94
			c-1.88-3.89-6.84-16.09-8.26-38.85c-0.01-0.12,0.04-0.25,0.13-0.34c0.09-0.09,0.21-0.14,0.34-0.13
			c22.77,1.41,34.96,6.37,38.85,8.26c-3.14-4.82-8.14-8.11-11.94-10.08c-4.5-2.33-8.34-3.36-8.38-3.37
			c-0.19-0.05-0.32-0.22-0.32-0.42c0-0.2,0.13-0.37,0.32-0.42c0.04-0.01,3.87-1.03,8.38-3.37c3.8-1.97,8.81-5.26,11.94-10.08
			c-3.89,1.88-16.08,6.84-38.85,8.26c-0.13,0.01-0.25-0.04-0.34-0.13c-0.09-0.09-0.13-0.21-0.13-0.34
			c1.41-22.77,6.37-34.96,8.26-38.85c-4.82,3.14-8.11,8.14-10.08,11.94c-2.33,4.5-3.36,8.34-3.37,8.38
			c-0.05,0.19-0.22,0.32-0.42,0.32s-0.37-0.13-0.42-0.32c-0.01-0.04-1.03-3.87-3.37-8.38c-1.97-3.8-5.26-8.81-10.08-11.94
			c1.88,3.89,6.84,16.08,8.26,38.85c0.01,0.12-0.04,0.25-0.13,0.34c-0.09,0.09-0.21,0.13-0.34,0.13
			c-22.77-1.41-34.96-6.37-38.85-8.26c3.14,4.82,8.14,8.11,11.94,10.08c4.5,2.33,8.34,3.36,8.38,3.37c0.19,0.05,0.32,0.22,0.32,0.42
			c0,0.2-0.13,0.37-0.32,0.42c-0.04,0.01-3.87,1.03-8.38,3.37c-3.8,1.97-8.81,5.26-11.94,10.08c3.89-1.88,16.08-6.84,38.85-8.26
			C167.93,101.97,167.94,101.97,167.95,101.97z M173.57,86.66c0.04-0.2,0.22-0.34,0.43-0.34c0.2,0,0.38,0.14,0.43,0.34
			c0,0.02,0.01,0.03,0.01,0.05V71.64c0-0.24-0.2-0.44-0.44-0.44s-0.44,0.2-0.44,0.44V86.7C173.57,86.69,173.57,86.67,173.57,86.66z
			 M166.65,96.77c-0.19-0.05-0.31-0.22-0.31-0.42c0-0.19,0.13-0.36,0.31-0.42c0.02-0.01,0.04-0.01,0.06-0.02h-17.74
			c-0.24,0-0.44,0.2-0.44,0.44c0,0.24,0.2,0.44,0.44,0.44h17.74C166.69,96.79,166.67,96.78,166.65,96.77z M174.43,106.05
			c-0.04,0.2-0.22,0.34-0.43,0.34c-0.2,0-0.38-0.14-0.43-0.34c0-0.02-0.01-0.03-0.01-0.05v15.69c0,0.24,0.2,0.44,0.44,0.44
			s0.44-0.19,0.44-0.44v-15.69C174.43,106.02,174.43,106.04,174.43,106.05z M199.03,95.92h-17.74c0.02,0.01,0.04,0.01,0.06,0.02
			c0.19,0.05,0.31,0.22,0.31,0.42c0,0.19-0.13,0.36-0.31,0.42c-0.02,0.01-0.04,0.01-0.06,0.02h17.74c0.24,0,0.44-0.2,0.44-0.44
			C199.47,96.12,199.27,95.92,199.03,95.92z M174,52.85c-0.13,0-0.26-0.06-0.34-0.16c-1.44-1.79-2.04-3.48-1.78-5.03
			c0.32-1.9,1.82-2.85,1.89-2.89c0.14-0.09,0.32-0.09,0.46,0c0.06,0.04,1.56,0.99,1.89,2.89c0.26,1.55-0.33,3.25-1.78,5.03
			C174.26,52.79,174.13,52.85,174,52.85z M174,45.67c-0.37,0.31-1.08,1.03-1.26,2.14c-0.19,1.17,0.23,2.48,1.26,3.89
			c1.03-1.41,1.46-2.72,1.26-3.9C175.07,46.69,174.37,45.98,174,45.67z M174,148.02c-0.08,0-0.16-0.02-0.23-0.07
			c-0.06-0.04-1.56-0.99-1.89-2.89c-0.26-1.55,0.33-3.25,1.78-5.03c0.17-0.21,0.51-0.21,0.68,0c1.44,1.79,2.04,3.48,1.78,5.03
			c-0.32,1.9-1.82,2.85-1.89,2.89C174.16,148,174.08,148.02,174,148.02z M174,141.02c-1.03,1.41-1.45,2.71-1.26,3.89
			c0.18,1.1,0.89,1.82,1.26,2.13c0.37-0.31,1.08-1.03,1.26-2.13C175.45,143.73,175.03,142.42,174,141.02z M221.98,98.53
			c-1.35,0-2.8-0.62-4.31-1.84c-0.1-0.08-0.16-0.21-0.16-0.34c0-0.13,0.06-0.26,0.16-0.34c1.79-1.44,3.48-2.04,5.03-1.78
			c1.9,0.32,2.85,1.82,2.89,1.89c0.09,0.14,0.09,0.32,0,0.46c-0.04,0.06-0.99,1.56-2.89,1.89
			C222.47,98.51,222.23,98.53,221.98,98.53z M218.66,96.36c1.41,1.03,2.72,1.46,3.9,1.26c1.11-0.19,1.82-0.89,2.12-1.26
			c-0.31-0.37-1.03-1.08-2.14-1.26C221.38,94.9,220.07,95.33,218.66,96.36z M126.02,98.53c-0.24,0-0.48-0.02-0.72-0.06
			c-1.9-0.32-2.85-1.82-2.89-1.89c-0.09-0.14-0.09-0.32,0-0.46c0.04-0.06,0.99-1.56,2.89-1.89c1.55-0.26,3.25,0.33,5.03,1.78
			c0.1,0.08,0.16,0.21,0.16,0.34c0,0.13-0.06,0.26-0.16,0.34C128.82,97.92,127.37,98.53,126.02,98.53z M123.32,96.35
			c0.31,0.37,1.03,1.08,2.14,1.26c1.17,0.19,2.48-0.23,3.89-1.26c-1.41-1.03-2.72-1.46-3.9-1.26
			C124.33,95.29,123.62,95.99,123.32,96.35z M122.77,96.36L122.77,96.36L122.77,96.36z M201.83,130.86c-3.69,0-6.69-3-6.69-6.69
			c0-3.69,3-6.69,6.69-6.69s6.69,3,6.69,6.69C208.52,127.86,205.52,130.86,201.83,130.86z M201.83,118.36
			c-3.21,0-5.82,2.61-5.82,5.82c0,3.21,2.61,5.82,5.82,5.82c3.21,0,5.82-2.61,5.82-5.82C207.65,120.97,205.04,118.36,201.83,118.36z
			 M146.17,130.86c-3.69,0-6.69-3-6.69-6.69c0-3.69,3-6.69,6.69-6.69c3.69,0,6.69,3,6.69,6.69
			C152.86,127.86,149.86,130.86,146.17,130.86z M146.17,118.36c-3.21,0-5.82,2.61-5.82,5.82c0,3.21,2.61,5.82,5.82,5.82
			c3.21,0,5.82-2.61,5.82-5.82C151.99,120.97,149.38,118.36,146.17,118.36z M201.83,75.23c-3.69,0-6.69-3-6.69-6.69
			c0-3.69,3-6.69,6.69-6.69s6.69,3,6.69,6.69C208.52,72.23,205.52,75.23,201.83,75.23z M201.83,62.72c-3.21,0-5.82,2.61-5.82,5.82
			c0,3.21,2.61,5.82,5.82,5.82c3.21,0,5.82-2.61,5.82-5.82C207.65,65.33,205.04,62.72,201.83,62.72z M146.17,75.23
			c-3.69,0-6.69-3-6.69-6.69c0-3.69,3-6.69,6.69-6.69c3.69,0,6.69,3,6.69,6.69C152.86,72.23,149.86,75.23,146.17,75.23z
			 M146.17,62.72c-3.21,0-5.82,2.61-5.82,5.82c0,3.21,2.61,5.82,5.82,5.82c3.21,0,5.82-2.61,5.82-5.82
			C151.99,65.33,149.38,62.72,146.17,62.72z M174,149.21c-2.73,0-5.18-1.59-7.55-3.13c-1.73-1.12-3.37-2.18-5.07-2.64
			c-1.79-0.48-3.89-0.38-5.92-0.28c-2.77,0.13-5.64,0.27-7.89-1.03c-2.29-1.33-3.61-3.9-4.89-6.39c-0.92-1.79-1.86-3.64-3.14-4.92
			s-3.13-2.23-4.92-3.14c-2.49-1.27-5.06-2.59-6.39-4.89c-1.3-2.25-1.17-5.12-1.03-7.89c0.1-2.03,0.2-4.13-0.28-5.92
			c-0.45-1.7-1.51-3.33-2.64-5.07c-1.54-2.37-3.13-4.82-3.13-7.55s1.59-5.18,3.13-7.55c1.12-1.73,2.18-3.37,2.64-5.07
			c0.48-1.79,0.38-3.89,0.28-5.92c-0.13-2.77-0.27-5.64,1.03-7.89c1.33-2.29,3.9-3.61,6.39-4.89c1.79-0.92,3.64-1.86,4.92-3.14
			c1.28-1.28,2.23-3.13,3.14-4.92c1.27-2.49,2.59-5.06,4.89-6.39c2.25-1.3,5.12-1.16,7.89-1.03c2.03,0.1,4.13,0.2,5.92-0.28
			c1.7-0.45,3.33-1.51,5.07-2.64c2.37-1.54,4.82-3.13,7.55-3.13c2.73,0,5.18,1.59,7.55,3.13c1.73,1.12,3.37,2.18,5.07,2.64
			c1.79,0.48,3.89,0.38,5.92,0.28c2.77-0.13,5.64-0.27,7.89,1.03c2.29,1.33,3.61,3.9,4.89,6.39c0.92,1.79,1.86,3.64,3.14,4.92
			c1.28,1.28,3.13,2.23,4.92,3.14c2.49,1.27,5.06,2.59,6.39,4.89c1.3,2.25,1.17,5.12,1.03,7.89c-0.1,2.03-0.2,4.13,0.28,5.92
			c0.45,1.7,1.51,3.33,2.64,5.07c1.54,2.37,3.13,4.82,3.13,7.55c0,2.73-1.59,5.18-3.13,7.55c-1.12,1.73-2.18,3.37-2.64,5.07
			c-0.48,1.79-0.38,3.89-0.28,5.92c0.13,2.77,0.27,5.64-1.03,7.89c-1.33,2.29-3.9,3.61-6.39,4.89c-1.79,0.92-3.64,1.86-4.92,3.14
			c-1.28,1.28-2.23,3.13-3.14,4.92c-1.27,2.49-2.59,5.06-4.89,6.39c-2.25,1.3-5.12,1.17-7.89,1.03c-2.03-0.1-4.13-0.2-5.92,0.28
			c-1.7,0.45-3.33,1.52-5.07,2.64C179.18,147.62,176.73,149.21,174,149.21z M158.01,142.21c1.24,0,2.46,0.09,3.6,0.39
			c1.83,0.49,3.6,1.64,5.32,2.75c2.27,1.47,4.61,2.99,7.08,2.99s4.81-1.52,7.08-2.99c1.71-1.11,3.49-2.26,5.32-2.75
			c1.92-0.51,4.09-0.41,6.19-0.31c2.77,0.13,5.38,0.26,7.41-0.91c2.07-1.2,3.33-3.66,4.55-6.03c0.95-1.85,1.93-3.77,3.3-5.14
			c1.38-1.38,3.29-2.36,5.14-3.3c2.38-1.22,4.84-2.47,6.03-4.55c1.18-2.03,1.05-4.64,0.91-7.41c-0.1-2.1-0.21-4.27,0.31-6.19
			c0.49-1.83,1.64-3.6,2.75-5.32c1.47-2.27,2.99-4.61,2.99-7.08s-1.52-4.81-2.99-7.08c-1.11-1.71-2.26-3.49-2.75-5.32
			c-0.51-1.92-0.41-4.09-0.31-6.19c0.13-2.77,0.26-5.38-0.91-7.41c-1.2-2.07-3.66-3.33-6.03-4.55c-1.85-0.95-3.77-1.93-5.14-3.3
			c-1.38-1.38-2.36-3.29-3.3-5.14c-1.22-2.38-2.47-4.84-4.55-6.03c-2.03-1.18-4.65-1.05-7.41-0.91c-2.1,0.1-4.27,0.21-6.19-0.31
			c-1.83-0.49-3.6-1.64-5.32-2.75c-2.27-1.47-4.61-2.99-7.08-2.99c-2.47,0-4.81,1.52-7.08,2.99c-1.71,1.11-3.49,2.26-5.32,2.75
			c-1.92,0.51-4.09,0.41-6.19,0.31c-2.77-0.13-5.38-0.26-7.41,0.91c-2.07,1.2-3.33,3.66-4.55,6.03c-0.95,1.85-1.93,3.77-3.3,5.14
			c-1.38,1.38-3.29,2.36-5.14,3.3c-2.38,1.22-4.84,2.47-6.03,4.55c-1.18,2.03-1.05,4.65-0.91,7.41c0.1,2.1,0.21,4.27-0.31,6.19
			c-0.49,1.83-1.64,3.6-2.75,5.32c-1.47,2.27-2.99,4.61-2.99,7.08c0,2.47,1.52,4.81,2.99,7.08c1.11,1.71,2.26,3.49,2.75,5.32
			c0.51,1.92,0.41,4.09,0.31,6.19c-0.13,2.77-0.26,5.38,0.91,7.41c1.2,2.07,3.66,3.33,6.03,4.55c1.85,0.95,3.77,1.93,5.14,3.3
			c1.38,1.38,2.36,3.29,3.3,5.14c1.22,2.38,2.47,4.84,4.55,6.03c2.03,1.17,4.64,1.05,7.41,0.91
			C156.28,142.25,157.15,142.21,158.01,142.21z"/>
	</g>
</g>
</svg>
