<?xml version="1.0" encoding="utf-8"?>
<!-- Generator: Adobe Illustrator 27.8.1, SVG Export Plug-In . SVG Version: 6.00 Build 0)  -->
<svg version="1.1" id="Layer_1" xmlns="http://www.w3.org/2000/svg" xmlns:xlink="http://www.w3.org/1999/xlink" x="0px" y="0px"
	 viewBox="0 0 348 228" style="enable-background:new 0 0 348 228;" xml:space="preserve">
<style type="text/css">
	.st0{fill:#D6EADE;}
	.st1{fill:#03487C;}
	.st2{fill:#1B1B4C;}
	.st3{fill:none;}
	.st4{fill-rule:evenodd;clip-rule:evenodd;fill:#204F7A;}
	.st5{fill-rule:evenodd;clip-rule:evenodd;fill:#50A4FF;}
	.st6{fill:#002649;}
	.st7{fill:#E6E7E8;stroke:#CFCFCF;stroke-width:0.1061;}
	.st8{fill:#333333;}
	.st9{fill-rule:evenodd;clip-rule:evenodd;fill:#277FC1;}
	.st10{fill-rule:evenodd;clip-rule:evenodd;fill:#083D6D;}
	.st11{fill:#DDB462;}
	
		.st12{clip-path:url(#SVGID_00000163034583383183326760000012584180689812808619_);fill:url(#SVGID_00000008140100428791841600000002399278724966891932_);}
	.st13{fill:#FFFFFF;}
	.st14{fill:url(#SVGID_00000118376114067950687170000011019815211267002800_);}
	.st15{fill:#224685;}
	.st16{fill:#FFC73B;}
	.st17{fill:#11233F;}
	.st18{fill:#5267FF;}
	.st19{fill-rule:evenodd;clip-rule:evenodd;fill:#72342E;}
	.st20{fill:#72342E;}
	.st21{fill:#FFF2E2;}
	.st22{fill:#FFF2E2;stroke:#72342E;stroke-width:0.75;stroke-miterlimit:10;}
	.st23{fill:#FFCC99;}
	.st24{fill:#469CB2;}
	.st25{fill:url(#XMLID_00000103955762334975636680000016647312868865046947_);}
	.st26{fill:url(#XMLID_00000012437515058507580900000014035586355127037581_);}
	.st27{fill:url(#XMLID_00000132076785476194893860000001066085827225297307_);}
	.st28{fill:url(#XMLID_00000099645810406479349410000004343532405925038001_);}
	.st29{fill:url(#XMLID_00000054951795758394437990000010398272252558243980_);}
	.st30{fill:url(#XMLID_00000176005045374222250160000002272463159207170953_);}
	.st31{fill:url(#XMLID_00000008869315386067582050000010237823264030709649_);}
	.st32{fill:url(#XMLID_00000014614985545980217090000010160930124854102200_);}
	.st33{fill:url(#XMLID_00000036968179847497200030000018078695912448234147_);}
	.st34{fill:url(#XMLID_00000127738863856081128560000008982470917506132106_);}
	.st35{fill:url(#XMLID_00000044865756002133619160000011286900343852893067_);}
	.st36{fill:url(#XMLID_00000153706320127496277460000012207899867070007201_);}
	.st37{fill:url(#XMLID_00000066517507933523591350000005993131173300949641_);}
	.st38{fill:url(#XMLID_00000178918740903527724390000017399861485091855491_);}
	.st39{fill:url(#XMLID_00000067920128946672137850000002853691462907710361_);}
	.st40{fill:url(#SVGID_00000061443884597710181080000013545990455541939367_);}
	.st41{fill:url(#SVGID_00000142141959866583898090000003864061159397178255_);}
	.st42{fill:url(#SVGID_00000112591211941745858720000012113684870046042296_);}
	.st43{fill:url(#SVGID_00000166650094521494451250000013075029049418632886_);}
	.st44{fill:url(#SVGID_00000032623886984177229240000001013364181814944649_);}
	.st45{fill:url(#SVGID_00000137120241186855067920000011973881410569123971_);}
	.st46{fill:url(#SVGID_00000178919473330103349730000015109055306823531657_);}
	.st47{fill:url(#SVGID_00000079470420397127613420000009907685534326081446_);}
	.st48{fill:url(#SVGID_00000100372951212965209700000016266302910550485140_);}
	.st49{fill:url(#SVGID_00000003785876463091333130000007263175288547457457_);}
	.st50{fill:url(#SVGID_00000152977929496539952760000000285324460076627864_);}
	.st51{fill:url(#SVGID_00000081631691728566947740000012336455242244543629_);}
	.st52{fill:url(#SVGID_00000020380888603822233330000001501484556211699135_);}
	.st53{fill:url(#SVGID_00000109740644074064034550000013768694688728486789_);}
	.st54{fill:#30325E;}
	.st55{fill:#FF7859;}
	.st56{fill:#FFD550;}
	.st57{fill:#00C3AD;}
	.st58{fill:#FF4653;}
	.st59{fill:#D8CE19;}
	.st60{fill:#FFE4D2;}
	.st61{fill:#A2E0EB;}
	.st62{fill:#1B3493;}
	.st63{fill:none;stroke:#FFFFFF;stroke-width:2;stroke-linecap:round;stroke-linejoin:round;stroke-miterlimit:10;}
	.st64{fill:#F15A24;}
	.st65{fill:#F7931E;}
	.st66{fill:#58595B;}
	.st67{fill:#114E15;}
	.st68{fill:#013D01;}
	.st69{fill:#E9C608;}
	.st70{fill:#043B00;}
	.st71{fill:#D8A43E;}
	.st72{clip-path:url(#SVGID_00000006709046202632255600000004912679256098038922_);}
	.st73{fill:#F49630;}
	.st74{clip-path:url(#SVGID_00000122720856655934167530000014678921822204581010_);}
	.st75{clip-path:url(#SVGID_00000093878743250490337550000003293845678787356817_);}
	.st76{clip-path:url(#SVGID_00000057129617782757801060000000801981220338977470_);}
	.st77{clip-path:url(#SVGID_00000183218032492595607130000018130246639494228919_);}
	.st78{fill-rule:evenodd;clip-rule:evenodd;fill:#FF6600;}
	.st79{fill-rule:evenodd;clip-rule:evenodd;fill:#05174F;}
	.st80{fill:#05174F;}
	.st81{opacity:0.42;fill:url(#SVGID_00000183959164258454633450000002748571685655792000_);enable-background:new    ;}
	.st82{opacity:0.42;fill:url(#SVGID_00000121261774258753912810000005168107213838313094_);enable-background:new    ;}
	.st83{fill:url(#SVGID_00000028321589600126105340000009564794428828474788_);}
	.st84{fill:url(#SVGID_00000025410569013631165890000008275440480230714021_);}
	.st85{opacity:0.64;fill:url(#SVGID_00000040559849504877197380000011435287028157244599_);enable-background:new    ;}
	.st86{opacity:0.75;fill:url(#SVGID_00000044876946403341260230000015307645936100393403_);enable-background:new    ;}
	.st87{fill:url(#SVGID_00000121245076049597129390000009300973294423579056_);}
	.st88{fill:url(#SVGID_00000132792194138302337390000008450301019858207900_);}
	.st89{opacity:0.76;fill:url(#SVGID_00000060734473231826840280000001146779597064801186_);enable-background:new    ;}
	.st90{opacity:0.75;fill:url(#SVGID_00000083787339862127772200000003454888582875491232_);enable-background:new    ;}
	.st91{fill:url(#SVGID_00000010309272090861378090000017213927600956557982_);}
	.st92{opacity:0.42;fill:url(#SVGID_00000011717872926358256330000017151331404535991190_);enable-background:new    ;}
	.st93{opacity:0.42;fill:url(#SVGID_00000073691290289560870100000014050210263052364955_);enable-background:new    ;}
	.st94{clip-path:url(#SVGID_00000139994695083728128990000005760029204681242789_);}
	.st95{fill:#1ED7FE;}
	.st96{clip-path:url(#SVGID_00000002366797785702389830000007908867264588342927_);}
	.st97{clip-path:url(#SVGID_00000066497539062749073720000004744981106611852938_);}
	.st98{fill:#000056;}
	.st99{clip-path:url(#SVGID_00000112601755479866422640000010291883490255780026_);}
	.st100{fill:#053272;}
	.st101{fill:none;stroke:#053272;stroke-width:4;stroke-miterlimit:10;}
	.st102{fill:url(#SVGID_00000071534449350014436270000014774846391269821830_);}
	.st103{fill:url(#SVGID_00000005231966538967318900000014754965000441227908_);}
	.st104{fill:url(#SVGID_00000181799610192654362060000000243096959585905298_);}
	.st105{fill:url(#SVGID_00000086687193536453658830000006479322061065117842_);}
	.st106{fill:url(#SVGID_00000008828932033970265230000012461863160771138987_);}
	.st107{fill:url(#SVGID_00000122691673901118594830000017031239459936111544_);}
	.st108{fill:url(#SVGID_00000024000331526424626080000010758172094748438924_);}
	.st109{fill:url(#SVGID_00000104672056461032468360000008112236268564943271_);}
	.st110{fill:url(#SVGID_00000165216731360949803170000001523252803643319732_);}
	.st111{fill:url(#SVGID_00000114049451669715047340000012078061662412729763_);}
	.st112{fill:url(#SVGID_00000120535356658106606090000000975481281564346281_);}
	.st113{fill:url(#SVGID_00000068653814902044025780000013784086855976239241_);}
	.st114{fill:url(#SVGID_00000049192580765876457990000015802074017382747021_);}
	.st115{fill:url(#SVGID_00000037670803584813108170000003099026743514145695_);}
	.st116{fill:url(#SVGID_00000128468213019244021080000004882932670567256501_);}
	.st117{fill:url(#SVGID_00000107585445271670384190000017591870122484540071_);}
	.st118{fill:url(#SVGID_00000109003162804295940740000015328065010907880118_);}
	.st119{fill:url(#SVGID_00000087392187534800137770000000046433640053082808_);}
	.st120{fill:url(#SVGID_00000137816635282045173620000003694071624181021846_);}
	.st121{fill:url(#SVGID_00000109738393945545860610000017279889983193852290_);}
	.st122{fill:url(#SVGID_00000052075275738451851560000003416086360178647430_);}
	.st123{fill:url(#SVGID_00000127763658380809538390000015772483903229176762_);}
	.st124{fill:url(#SVGID_00000176727384359983747560000009808962412194405774_);}
	.st125{fill:url(#SVGID_00000001641212755429620860000013362141081328303507_);}
	.st126{fill:url(#SVGID_00000075862066091659280130000007835684455684629690_);}
	.st127{fill:url(#SVGID_00000072271908447179527620000010759189823837104286_);}
	.st128{fill:url(#SVGID_00000181067720989045431000000009561575507773041831_);}
	.st129{fill:url(#SVGID_00000029040736222799631740000004840241961378044319_);}
	.st130{fill:url(#SVGID_00000000214506523436730400000006123451504137379005_);}
	.st131{fill:none;stroke:#FEF73D;stroke-linecap:round;stroke-miterlimit:10;}
	.st132{fill:none;stroke:#FF189C;stroke-miterlimit:10;}
	.st133{fill:none;stroke:#00EFF1;stroke-linecap:round;stroke-miterlimit:10;}
	.st134{fill:#00EFF1;}
	.st135{fill:#FFA022;}
	.st136{fill:#0C103A;}
	.st137{fill-rule:evenodd;clip-rule:evenodd;fill:#5D9541;}
	.st138{fill-rule:evenodd;clip-rule:evenodd;fill:#F06021;}
	.st139{fill-rule:evenodd;clip-rule:evenodd;fill:#69BC60;}
	.st140{fill-rule:evenodd;clip-rule:evenodd;fill:#F6951C;}
	.st141{fill:#F6951C;}
	.st142{fill:url(#SVGID_00000100375968941726355430000000542090730127649674_);}
	.st143{fill:url(#SVGID_00000160909933619993634790000016518053224458155454_);}
	.st144{fill:url(#SVGID_00000035515828681739789900000017441826400920500616_);}
	.st145{opacity:0.93;fill:url(#SVGID_00000177470900597959984790000012321578057569754029_);}
	.st146{opacity:0.93;fill:url(#SVGID_00000080916451609835722940000013465798165741796491_);}
	.st147{opacity:0.93;fill:url(#SVGID_00000181075810649253634290000004253036865927452556_);}
	.st148{opacity:0.93;fill:url(#SVGID_00000005257606244075852800000001355581139283895687_);}
	.st149{fill:url(#SVGID_00000180349134377937775570000009309518118033538232_);}
	.st150{fill:url(#SVGID_00000048487922733672244950000001323746587812308608_);}
	.st151{fill:url(#SVGID_00000106848829920732698180000007317147154748132538_);}
	.st152{fill:url(#SVGID_00000135692385335149176410000005892264399623703187_);}
	.st153{fill:url(#SVGID_00000018947716172541262380000006652167170936116356_);}
	.st154{fill:url(#SVGID_00000136375439809343518240000012291626771247152554_);}
	.st155{fill:url(#SVGID_00000077308039442065062230000016145703701620777147_);}
	.st156{fill:url(#SVGID_00000126306292661069829390000006955591510153555098_);}
	.st157{fill:url(#SVGID_00000081611281817572022780000005920833217119336629_);}
	.st158{fill:url(#SVGID_00000059276584113306637740000009845248137771390632_);}
	.st159{fill:url(#SVGID_00000054976320038929413480000016696299759997210769_);}
	.st160{fill:url(#SVGID_00000062885246302954564490000017151060133923504058_);}
	.st161{fill:url(#SVGID_00000109735173577806777320000016155200787374426037_);}
	.st162{fill:url(#SVGID_00000043424186019488774020000017945944620964376488_);}
	.st163{fill:url(#SVGID_00000050640892804103533680000012454121073231974582_);}
	.st164{fill:url(#SVGID_00000174572507533695624880000008141258112348977839_);}
	.st165{fill:url(#SVGID_00000137828620147187745750000006804361428188887473_);}
	.st166{fill:url(#SVGID_00000150785716812825831240000006512825730638260611_);}
	.st167{fill:url(#SVGID_00000012435853133730212390000007999655248295859081_);}
	.st168{fill:url(#SVGID_00000082354787828651795400000004661274233379580059_);}
	.st169{fill:url(#SVGID_00000172439779445406519180000006504887418678411394_);}
	.st170{fill:url(#SVGID_00000004520839076968090500000003565359631583540617_);}
	.st171{fill:url(#SVGID_00000104680930483247286550000000063916268913977483_);}
	.st172{fill:url(#SVGID_00000018203839648073711330000013744017075449584831_);}
	.st173{fill:url(#SVGID_00000018231148744809388260000001119591339552110224_);}
	.st174{fill:url(#SVGID_00000072259892186480074790000007650375697038792067_);}
	.st175{fill:url(#SVGID_00000010292751265113237930000009446860416320297660_);}
	.st176{fill:url(#SVGID_00000012470895240588896120000012001421588756843939_);}
	.st177{fill:url(#SVGID_00000016768787905246565940000008642430022537088690_);}
	.st178{fill:url(#SVGID_00000033354077506159207630000012301322503342650277_);}
	.st179{fill:url(#SVGID_00000030484592609926092900000001250716744709179801_);}
	.st180{fill:url(#SVGID_00000031167889297255765150000000372237227898726534_);}
	.st181{fill:url(#SVGID_00000126300988944875678600000010234905952372894376_);}
	.st182{fill:url(#SVGID_00000137132049707934664230000002739285284476099237_);}
	.st183{fill:url(#SVGID_00000137824270019664145330000007243647732812008117_);}
	.st184{fill:url(#SVGID_00000030444517416321205150000010697622359502811303_);}
	.st185{fill:url(#SVGID_00000165956726845067909940000006984829648337051295_);}
	.st186{fill:url(#SVGID_00000089559153459001172400000013112311526250849165_);}
	.st187{fill:url(#SVGID_00000170279333311985104580000014633286786463233456_);}
	.st188{fill:url(#SVGID_00000048481215397031468120000012322726049846424209_);}
	.st189{fill:url(#SVGID_00000138550280559255421320000003525761391472802455_);}
	.st190{fill:url(#SVGID_00000163037166522391072360000000725734216137127342_);}
	.st191{fill:url(#SVGID_00000162329533391769905860000004635469973063132330_);}
	.st192{fill:url(#SVGID_00000129195404272040256580000015961764756650981518_);}
	.st193{fill:url(#SVGID_00000099651588893571109760000014733537605971632010_);}
	.st194{fill-rule:evenodd;clip-rule:evenodd;fill:#512100;}
	.st195{fill-rule:evenodd;clip-rule:evenodd;fill:#006D62;}
	.st196{fill-rule:evenodd;clip-rule:evenodd;}
	.st197{fill-rule:evenodd;clip-rule:evenodd;fill:#00A1F5;}
	.st198{fill-rule:evenodd;clip-rule:evenodd;fill:#FACFAB;}
	.st199{fill-rule:evenodd;clip-rule:evenodd;fill:#F29673;}
	.st200{fill-rule:evenodd;clip-rule:evenodd;fill:#FFFFFF;}
	.st201{fill-rule:evenodd;clip-rule:evenodd;fill:#333333;}
	.st202{fill-rule:evenodd;clip-rule:evenodd;fill:#BD4D00;}
	.st203{fill-rule:evenodd;clip-rule:evenodd;fill:#B2B2B2;}
	.st204{fill-rule:evenodd;clip-rule:evenodd;fill:#F2CC29;}
	.st205{fill-rule:evenodd;clip-rule:evenodd;fill:#005C9C;}
	.st206{fill-rule:evenodd;clip-rule:evenodd;fill:#8AC900;}
	.st207{fill-rule:evenodd;clip-rule:evenodd;fill:#808080;}
	.st208{fill-rule:evenodd;clip-rule:evenodd;fill:#CFA605;}
	.st209{fill-rule:evenodd;clip-rule:evenodd;fill:#666666;}
	.st210{fill-rule:evenodd;clip-rule:evenodd;fill:#CCCCCC;}
	.st211{fill:#960000;}
	.st212{fill:url(#SVGID_00000030452590594014959310000003298667120329338768_);}
	.st213{fill:url(#SVGID_00000129921259121971016220000006504702367780380587_);}
	.st214{opacity:0.51;fill:url(#SVGID_00000162338582066506917380000016851446292310391991_);}
	.st215{fill:url(#SVGID_00000034802207583549770850000002297350617414346391_);}
	.st216{fill:url(#SVGID_00000158003492421837307090000000338074987956597925_);}
	.st217{fill:url(#SVGID_00000034801215825188624140000003347240039010917271_);}
	.st218{opacity:0.35;fill:url(#SVGID_00000065034182449845218050000016427367618548031162_);}
	.st219{opacity:0.35;fill:url(#SVGID_00000095337361863117009800000005214164114851990676_);}
	.st220{fill:#F06021;}
	.st221{fill-rule:evenodd;clip-rule:evenodd;fill:url(#SVGID_00000124844905943494296670000017719921594364721085_);}
	.st222{fill-rule:evenodd;clip-rule:evenodd;fill:url(#SVGID_00000063635692355685758240000016679158820536283273_);}
	.st223{fill-rule:evenodd;clip-rule:evenodd;fill:url(#SVGID_00000176002120591713055800000005591708723582056320_);}
	.st224{fill-rule:evenodd;clip-rule:evenodd;fill:url(#SVGID_00000047055200681214908330000011239602981604057734_);}
	.st225{fill-rule:evenodd;clip-rule:evenodd;fill:url(#SVGID_00000146490644089707862610000009033951499595635642_);}
	.st226{fill-rule:evenodd;clip-rule:evenodd;fill:url(#SVGID_00000154404568791081477090000010978110915444068755_);}
	.st227{fill-rule:evenodd;clip-rule:evenodd;fill:url(#SVGID_00000024694442870135604380000001463574817043455872_);}
	.st228{fill-rule:evenodd;clip-rule:evenodd;fill:url(#SVGID_00000180363474086412912190000017745033849769666966_);}
	.st229{fill-rule:evenodd;clip-rule:evenodd;fill:url(#SVGID_00000019642997220942309550000008984957321644543121_);}
	.st230{fill-rule:evenodd;clip-rule:evenodd;fill:url(#SVGID_00000016790286469835986880000015304960360367795091_);}
	.st231{fill-rule:evenodd;clip-rule:evenodd;fill:url(#SVGID_00000068657936818657899790000013177140897428856223_);}
	.st232{fill-rule:evenodd;clip-rule:evenodd;fill:url(#SVGID_00000129206178835854311990000017339276992068853687_);}
	.st233{fill-rule:evenodd;clip-rule:evenodd;fill:url(#SVGID_00000116925390045700734060000002612236618214224045_);}
	.st234{opacity:0.5;fill-rule:evenodd;clip-rule:evenodd;fill:#5D0101;enable-background:new    ;}
	.st235{fill:#E11B22;}
	.st236{fill:#959595;}
	.st237{fill:#003359;}
	.st238{fill:#1779C1;}
	.st239{fill:#0EB17C;}
	.st240{fill:#2B2353;}
	.st241{fill:#BE264E;}
	.st242{fill:#EAA41C;}
	.st243{fill:#1F9EF3;}
	.st244{fill:#0267A3;}
	.st245{fill:#FFEC00;}
	.st246{fill:#00A0E0;}
	.st247{fill:#E3007E;}
	.st248{fill:none;stroke:#000000;stroke-width:2;stroke-miterlimit:10;}
</style>
<rect x="0.1" class="st2" width="348" height="228"/>
<g>
	<g>
		<g>
			<defs>
				<path id="SVGID_1_" d="M166.19,140.36c-0.03-2.01,1.57-3.66,3.58-3.69c2.01-0.03,3.66,1.57,3.69,3.58
					c0.03,2.01-1.57,3.66-3.58,3.69C167.87,143.96,166.22,142.36,166.19,140.36 M137.88,129.03c-0.03-2.01,1.57-3.66,3.58-3.69
					c2.01-0.03,3.66,1.57,3.69,3.58c0.03,2.01-1.57,3.66-3.58,3.69C139.56,132.64,137.91,131.04,137.88,129.03z M209.33,123.2
					c-0.03-2.01,1.57-3.66,3.58-3.69c2.01-0.03,3.66,1.57,3.69,3.58c0.03,2.01-1.57,3.66-3.58,3.69
					C211.01,126.81,209.36,125.21,209.33,123.2z M195.87,130.4c-0.03-2.01,1.57-3.66,3.58-3.69c2.01-0.03,3.66,1.57,3.69,3.58
					c0.03,2.01-1.57,3.66-3.58,3.69C197.55,134,195.9,132.4,195.87,130.4z M181.81,55.92c0.03,2.01-1.57,3.66-3.58,3.69
					c-2.01,0.03-3.66-1.57-3.69-3.58c-0.03-2.01,1.57-3.66,3.58-3.69C180.12,52.31,181.78,53.91,181.81,55.92z M210.12,67.24
					c0.03,2.01-1.57,3.66-3.58,3.69c-2.01,0.03-3.66-1.57-3.69-3.58c-0.03-2.01,1.57-3.66,3.58-3.69
					C208.44,63.64,210.09,65.24,210.12,67.24z M138.67,73.07c0.03,2.01-1.57,3.66-3.58,3.69c-2.01,0.03-3.66-1.57-3.69-3.58
					c-0.03-2.01,1.57-3.66,3.58-3.69C136.99,69.46,138.64,71.07,138.67,73.07z M152.13,65.88c0.03,2.01-1.57,3.66-3.58,3.69
					c-2.01,0.03-3.66-1.57-3.69-3.58c-0.03-2.01,1.57-3.66,3.58-3.69C150.45,62.27,152.1,63.87,152.13,65.88z M198.53,74.61
					c-6.43,0.1-11.72,4.74-12.85,10.82c-0.13,0.71-0.73,1.21-1.45,1.22l-12.39,0.19c-0.22-0.16-0.4-0.37-0.51-0.64
					c-0.24-0.57-0.13-1.19,0.3-1.63l16.77-17.29c0.45-0.46,1.1-0.59,1.69-0.32c0.93,0.42,1.96,0.64,3.04,0.63
					c3.95-0.06,7.1-3.31,7.04-7.26c-0.06-3.95-3.31-7.1-7.26-7.04c-3.95,0.06-7.1,3.31-7.04,7.26c0.02,1.08,0.27,2.11,0.72,3.02
					c0.28,0.58,0.17,1.24-0.27,1.7l-20.55,21.18c-0.06,0.06-0.35,0.51-0.99,0.51l-14.37,0.17c-0.62,0.01-1.15-0.34-1.4-0.9
					c-0.25-0.57-0.13-1.19,0.3-1.63l10.01-10.31c0.45-0.46,1.1-0.59,1.69-0.32c0.92,0.42,1.96,0.64,3.04,0.63
					c3.95-0.06,7.1-3.31,7.04-7.26c-0.06-3.95-3.31-7.1-7.26-7.04c-3.95,0.06-7.1,3.31-7.04,7.26c0.02,1.08,0.27,2.11,0.72,3.02
					c0.28,0.58,0.18,1.24-0.27,1.7l-14.11,14.54c-0.29,0.3-0.64,0.44-1.05,0.45l-1.98,0.09c-0.64,0.03-1.19-0.37-1.42-0.96
					c-1.04-2.73-3.7-4.66-6.79-4.61c-3.95,0.06-7.1,3.31-7.04,7.26c0.06,3.95,3.31,7.1,7.26,7.04c3.09-0.05,5.7-2.05,6.65-4.81
					c0.21-0.61,0.75-1,1.39-1.01l44.13-0.67c0.72-0.01,1.33,0.47,1.48,1.18c1.32,6.04,6.75,10.53,13.18,10.43
					c7.34-0.11,13.19-6.15,13.08-13.48C211.9,80.36,205.86,74.5,198.53,74.61z M149.47,121.66c6.43-0.1,11.72-4.74,12.85-10.82
					c0.13-0.71,0.73-1.21,1.45-1.22l12.39-0.19c0.22,0.15,0.4,0.37,0.51,0.64c0.24,0.56,0.13,1.19-0.3,1.63l-16.77,17.29
					c-0.45,0.46-1.1,0.59-1.69,0.32c-0.93-0.42-1.96-0.64-3.04-0.63c-3.95,0.06-7.1,3.31-7.04,7.26c0.06,3.95,3.31,7.1,7.26,7.04
					c3.95-0.06,7.1-3.31,7.04-7.26c-0.02-1.08-0.27-2.11-0.72-3.02c-0.28-0.58-0.18-1.24,0.27-1.7l20.55-21.18
					c0.06-0.06,0.35-0.51,0.99-0.51l14.37-0.17c0.62-0.01,1.15,0.34,1.4,0.9c0.24,0.57,0.13,1.19-0.3,1.63l-10.01,10.31
					c-0.45,0.46-1.1,0.59-1.69,0.32c-0.93-0.42-1.96-0.64-3.04-0.63c-3.95,0.06-7.1,3.31-7.04,7.26c0.06,3.95,3.31,7.1,7.26,7.04
					c3.95-0.06,7.1-3.31,7.04-7.26c-0.02-1.08-0.27-2.11-0.72-3.02c-0.28-0.58-0.18-1.24,0.27-1.7l14.11-14.54
					c0.29-0.3,0.64-0.44,1.05-0.45l1.98-0.09c0.64-0.03,1.19,0.37,1.42,0.96c1.04,2.73,3.7,4.66,6.8,4.61
					c3.95-0.06,7.1-3.31,7.04-7.26c-0.06-3.95-3.31-7.1-7.26-7.04c-3.09,0.05-5.7,2.05-6.65,4.81c-0.21,0.61-0.75,1-1.39,1.01
					l-44.13,0.67c-0.72,0.01-1.33-0.47-1.48-1.18c-1.32-6.04-6.75-10.53-13.18-10.43c-7.33,0.11-13.19,6.15-13.08,13.48
					C136.1,115.92,142.14,121.77,149.47,121.66z"/>
			</defs>
			<clipPath id="SVGID_00000119800253665023548820000013736897419511871667_">
				<use xlink:href="#SVGID_1_"  style="overflow:visible;"/>
			</clipPath>
			
				<linearGradient id="SVGID_00000003092307428252546190000005237832497163382665_" gradientUnits="userSpaceOnUse" x1="174" y1="1152.0966" x2="174" y2="1234.8165" gradientTransform="matrix(1 0 0 -1 0 1295.0847)">
				<stop  offset="0" style="stop-color:#7A6DFF"/>
				<stop  offset="0.1554" style="stop-color:#7572FF"/>
				<stop  offset="0.3466" style="stop-color:#6681FF"/>
				<stop  offset="0.5566" style="stop-color:#4F9AFE"/>
				<stop  offset="0.7784" style="stop-color:#2DBDFE"/>
				<stop  offset="1" style="stop-color:#05E7FD"/>
			</linearGradient>
			
				<rect x="124.77" y="52.31" style="clip-path:url(#SVGID_00000119800253665023548820000013736897419511871667_);fill:url(#SVGID_00000003092307428252546190000005237832497163382665_);" width="98.45" height="91.65"/>
		</g>
	</g>
	<path class="st13" d="M249.5,158.08v17.29h-4v-7.09h-7.85v7.09h-4v-17.29h4v6.82h7.85v-6.82H249.5z M221.97,175.66
		c-1.76,0-3.36-0.38-4.78-1.15c-1.42-0.77-2.54-1.83-3.36-3.19c-0.82-1.36-1.22-2.89-1.22-4.61c0-1.71,0.41-3.25,1.22-4.61
		c0.81-1.36,1.93-2.42,3.36-3.19c1.42-0.77,3.03-1.15,4.8-1.15c1.5,0,2.85,0.26,4.06,0.79c1.21,0.53,2.23,1.28,3.05,2.27l-2.57,2.37
		c-1.17-1.35-2.62-2.02-4.35-2.02c-1.07,0-2.02,0.23-2.86,0.7c-0.84,0.47-1.49,1.12-1.96,1.96c-0.47,0.84-0.7,1.79-0.7,2.86
		c0,1.07,0.23,2.02,0.7,2.86c0.47,0.84,1.12,1.49,1.96,1.96c0.84,0.47,1.8,0.7,2.86,0.7c1.73,0,3.18-0.68,4.35-2.05l2.57,2.37
		c-0.82,1-1.84,1.77-3.06,2.3C224.83,175.4,223.47,175.66,221.97,175.66z M204.64,164.35c0-0.97-0.31-1.72-0.94-2.24
		c-0.63-0.52-1.54-0.78-2.74-0.78h-3.26v6.03h3.26c1.2,0,2.12-0.26,2.74-0.79C204.33,166.04,204.64,165.3,204.64,164.35z
		 M204.71,175.36l-3.33-4.82h-0.2h-3.48v4.82h-4v-17.29h7.48c1.53,0,2.86,0.26,3.99,0.77c1.13,0.51,2,1.23,2.61,2.17
		c0.61,0.94,0.91,2.05,0.91,3.33c0,1.28-0.31,2.39-0.93,3.32c-0.62,0.93-1.49,1.64-2.63,2.14l3.88,5.56L204.71,175.36L204.71,175.36
		z M183.06,168.62l-2.74-6.62l-2.74,6.62H183.06z M184.32,171.66h-8.03l-1.53,3.7h-4.1l7.71-17.29h3.95l7.73,17.29h-4.2
		L184.32,171.66z M167.9,172.15v3.21h-13.39v-17.29h13.06v3.21h-9.09v3.75h8.03v3.11h-8.03v4L167.9,172.15L167.9,172.15z
		 M142.59,175.66c-1.37,0-2.69-0.19-3.96-0.56c-1.28-0.37-2.3-0.85-3.07-1.44l1.36-3.01c0.74,0.54,1.62,0.98,2.64,1.31
		c1.02,0.33,2.04,0.49,3.06,0.49c1.14,0,1.98-0.17,2.52-0.51c0.54-0.34,0.82-0.79,0.82-1.35c0-0.41-0.16-0.75-0.48-1.02
		c-0.32-0.27-0.73-0.49-1.24-0.65c-0.5-0.16-1.18-0.35-2.04-0.54c-1.32-0.31-2.4-0.63-3.24-0.94c-0.84-0.31-1.56-0.82-2.16-1.51
		c-0.6-0.69-0.9-1.61-0.9-2.77c0-1,0.27-1.91,0.82-2.73c0.54-0.82,1.36-1.46,2.46-1.94c1.09-0.48,2.43-0.72,4.01-0.72
		c1.1,0,2.18,0.13,3.24,0.4c1.05,0.26,1.98,0.64,2.77,1.14l-1.23,3.04c-1.6-0.91-3.19-1.36-4.79-1.36c-1.12,0-1.95,0.18-2.48,0.54
		c-0.54,0.36-0.8,0.84-0.8,1.43c0,0.59,0.31,1.03,0.93,1.32c0.62,0.29,1.56,0.57,2.83,0.85c1.32,0.31,2.4,0.63,3.24,0.94
		c0.84,0.31,1.56,0.81,2.16,1.48c0.6,0.67,0.9,1.59,0.9,2.74c0,0.99-0.28,1.89-0.83,2.7c-0.55,0.82-1.38,1.46-2.48,1.94
		C145.52,175.42,144.17,175.66,142.59,175.66z M131.88,172.15v3.21H118.5v-17.29h13.06v3.21h-9.09v3.75h8.03v3.11h-8.03v4
		L131.88,172.15L131.88,172.15z M109.44,164.35c0-0.97-0.31-1.72-0.94-2.24c-0.63-0.52-1.54-0.78-2.74-0.78h-3.26v6.03h3.26
		c1.2,0,2.12-0.26,2.74-0.79C109.12,166.04,109.44,165.3,109.44,164.35z M109.51,175.36l-3.33-4.82h-0.2h-3.48v4.82h-4v-17.29h7.48
		c1.53,0,2.86,0.26,3.99,0.77c1.13,0.51,2,1.23,2.61,2.17c0.61,0.94,0.91,2.05,0.91,3.33c0,1.28-0.31,2.39-0.93,3.32
		c-0.62,0.93-1.49,1.64-2.63,2.14l3.88,5.56L109.51,175.36L109.51,175.36z"/>
</g>
</svg>
