<?xml version="1.0" encoding="utf-8"?>
<!-- Generator: Adobe Illustrator 27.8.1, SVG Export Plug-In . SVG Version: 6.00 Build 0)  -->
<svg version="1.1" id="Layer_1" xmlns="http://www.w3.org/2000/svg" xmlns:xlink="http://www.w3.org/1999/xlink" x="0px" y="0px"
	 viewBox="0 0 348 228" style="enable-background:new 0 0 348 228;" xml:space="preserve">
<style type="text/css">
	.st0{fill:#D6EADE;}
	.st1{fill:#03487C;}
	.st2{fill:#1B1B4C;}
	.st3{fill:none;}
	.st4{fill-rule:evenodd;clip-rule:evenodd;fill:#204F7A;}
	.st5{fill-rule:evenodd;clip-rule:evenodd;fill:#50A4FF;}
	.st6{fill:#002649;}
	.st7{fill:#E6E7E8;stroke:#CFCFCF;stroke-width:0.1061;}
	.st8{fill:#333333;}
	.st9{fill-rule:evenodd;clip-rule:evenodd;fill:#277FC1;}
	.st10{fill-rule:evenodd;clip-rule:evenodd;fill:#083D6D;}
	.st11{fill:#E2E2E2;}
	.st12{font-family:'AquireRegular';}
	.st13{font-size:42.4411px;}
	.st14{fill:#DDB462;}
	
		.st15{clip-path:url(#SVGID_00000096033862171309551690000012014645329524037309_);fill:url(#SVGID_00000026136578584957658940000001328837983637434758_);}
	.st16{fill:#FFFFFF;}
	.st17{fill:url(#SVGID_00000160905533445288812330000007901295338929352349_);}
	.st18{fill:#224685;}
	.st19{fill:#FFC73B;}
	.st20{fill:#11233F;}
	.st21{fill:#5267FF;}
	.st22{fill-rule:evenodd;clip-rule:evenodd;fill:#72342E;}
	.st23{fill:#72342E;}
	.st24{fill:#FFF2E2;}
	.st25{fill:#FFF2E2;stroke:#72342E;stroke-width:0.75;stroke-miterlimit:10;}
	.st26{fill:#FFCC99;}
	.st27{fill:#469CB2;}
	.st28{fill:url(#XMLID_00000003073499507732269660000012984495376592436364_);}
	.st29{fill:url(#XMLID_00000019639303937019297990000014094667272985444740_);}
	.st30{fill:url(#XMLID_00000014604847816043620750000012154231146145038240_);}
	.st31{fill:url(#XMLID_00000035504447561228629340000009109471821422755720_);}
	.st32{fill:url(#XMLID_00000046312012198793139450000004015357595857871509_);}
	.st33{fill:url(#XMLID_00000089555790559803006890000014146704990411191737_);}
	.st34{fill:url(#XMLID_00000181061779674326430780000010593120191917551032_);}
	.st35{fill:url(#XMLID_00000119113203042765374270000012312976688045058435_);}
	.st36{fill:url(#XMLID_00000148646328478475136420000015245242449651947392_);}
	.st37{fill:url(#XMLID_00000157275129188468730230000001178016419570717347_);}
	.st38{fill:url(#XMLID_00000024699748994026637520000008334436332009001914_);}
	.st39{fill:url(#XMLID_00000119821789866105490430000009463333449399137426_);}
	.st40{fill:url(#XMLID_00000139279417879483464940000016873423859797188237_);}
	.st41{fill:url(#XMLID_00000106106288710614505250000011194951461359318673_);}
	.st42{fill:url(#XMLID_00000147899474825554036450000014738505111160851356_);}
	.st43{fill:url(#SVGID_00000139990877181007783080000004935189847662058935_);}
	.st44{fill:url(#SVGID_00000092448953022439097470000005198809977573345961_);}
	.st45{fill:url(#SVGID_00000036944953835079671750000014875790049534727811_);}
	.st46{fill:url(#SVGID_00000022557749993270293610000008356217697951736207_);}
	.st47{fill:url(#SVGID_00000138544124189717001240000012955512494890897595_);}
	.st48{fill:url(#SVGID_00000118375523808991750970000016982980649830941628_);}
	.st49{fill:url(#SVGID_00000177452076137446770990000017743161163559804294_);}
	.st50{fill:url(#SVGID_00000080207371942056072560000002452415217902270399_);}
	.st51{fill:url(#SVGID_00000129203673224602362130000009576706445009227959_);}
	.st52{fill:url(#SVGID_00000062166761971569855880000002942071193058278319_);}
	.st53{fill:url(#SVGID_00000162352813102804486970000008024727063117916820_);}
	.st54{fill:url(#SVGID_00000003080583546952153590000004256663483626789819_);}
	.st55{fill:url(#SVGID_00000173125074006267407130000002362347670740711851_);}
	.st56{fill:url(#SVGID_00000182520708082819115710000000435535458222188221_);}
	.st57{fill:#30325E;}
	.st58{fill:#FF7859;}
	.st59{fill:#FFD550;}
	.st60{fill:#00C3AD;}
	.st61{fill:#FF4653;}
	.st62{fill:#D8CE19;}
	.st63{fill:#FFE4D2;}
	.st64{fill:#A2E0EB;}
	.st65{fill:#1B3493;}
	.st66{fill:none;stroke:#FFFFFF;stroke-width:2;stroke-linecap:round;stroke-linejoin:round;stroke-miterlimit:10;}
	.st67{fill:#F15A24;}
	.st68{fill:#F7931E;}
	.st69{fill:#58595B;}
	.st70{fill:#114E15;}
	.st71{fill:#013D01;}
	.st72{fill:#E9C608;}
	.st73{fill:#043B00;}
	.st74{fill:#D8A43E;}
	.st75{clip-path:url(#SVGID_00000110435986955506616920000000181495310525928877_);}
	.st76{fill:#F49630;}
	.st77{clip-path:url(#SVGID_00000012439312840739094510000010173662479822089607_);}
	.st78{clip-path:url(#SVGID_00000017502687834330215240000013344903967692979121_);}
	.st79{clip-path:url(#SVGID_00000123403803418561760530000000538018720558271403_);}
	.st80{clip-path:url(#SVGID_00000065769770866089456640000010836167886849021361_);}
	.st81{fill-rule:evenodd;clip-rule:evenodd;fill:#FF6600;}
	.st82{fill-rule:evenodd;clip-rule:evenodd;fill:#05174F;}
	.st83{fill:#05174F;}
	.st84{opacity:0.42;fill:url(#SVGID_00000052097950789226414890000003821090052069544363_);enable-background:new    ;}
	.st85{opacity:0.42;fill:url(#SVGID_00000047050707032960129100000004832262444488487586_);enable-background:new    ;}
	.st86{fill:url(#SVGID_00000084519305491824825920000006567215818675300009_);}
	.st87{fill:url(#SVGID_00000049200243946429552060000014078456222968850849_);}
	.st88{opacity:0.64;fill:url(#SVGID_00000080200806984598249730000010488818242453308305_);enable-background:new    ;}
	.st89{opacity:0.75;fill:url(#SVGID_00000109716114507853612740000017636204218761682562_);enable-background:new    ;}
	.st90{fill:url(#SVGID_00000065063480509740992900000018336912099070537914_);}
	.st91{fill:url(#SVGID_00000039829158700839310100000016511605989538906550_);}
	.st92{opacity:0.76;fill:url(#SVGID_00000044866517616815321510000010686401239247849873_);enable-background:new    ;}
	.st93{opacity:0.75;fill:url(#SVGID_00000152263262972518108000000001692444081510187139_);enable-background:new    ;}
	.st94{fill:url(#SVGID_00000117640701821505548270000001784419729750905765_);}
	.st95{opacity:0.42;fill:url(#SVGID_00000180350184987310515910000017131209833121279149_);enable-background:new    ;}
	.st96{opacity:0.42;fill:url(#SVGID_00000107572533434474315080000015036114067860421811_);enable-background:new    ;}
	.st97{clip-path:url(#SVGID_00000078767807937097360060000015017944795635236772_);}
	.st98{fill:#1ED7FE;}
	.st99{clip-path:url(#SVGID_00000120546757658143241920000008348519307927111600_);}
	.st100{clip-path:url(#SVGID_00000028291518264101147380000015468574358131225276_);}
	.st101{fill:#000056;}
	.st102{clip-path:url(#SVGID_00000115510083882046884640000009604458533310235319_);}
	.st103{fill:#053272;}
	.st104{fill:none;stroke:#053272;stroke-width:4;stroke-miterlimit:10;}
	.st105{fill:url(#SVGID_00000036214203358864868430000007793868540708797610_);}
	.st106{fill:url(#SVGID_00000018226818032474634690000014367402026730830998_);}
	.st107{fill:url(#SVGID_00000155846059851309596220000012857687883756675750_);}
	.st108{fill:url(#SVGID_00000083776437759192342610000008746400082658188955_);}
	.st109{fill:url(#SVGID_00000107553815786352331740000008878642963895654562_);}
	.st110{fill:url(#SVGID_00000097490839003284503980000007125517280663281071_);}
	.st111{fill:url(#SVGID_00000108989790679562605070000018325736756007870647_);}
	.st112{fill:url(#SVGID_00000013893939852103376300000017042315952013409431_);}
	.st113{fill:url(#SVGID_00000121965148686253396630000014846568672814146432_);}
	.st114{fill:url(#SVGID_00000050637985790124547020000002103145067503371932_);}
	.st115{fill:url(#SVGID_00000042697154714456992760000000441040008306876065_);}
	.st116{fill:url(#SVGID_00000108289134511955041490000012987661618911769240_);}
	.st117{fill:url(#SVGID_00000045579972164882182480000000154113809520504223_);}
	.st118{fill:url(#SVGID_00000155854913908308523590000006945817641662109064_);}
	.st119{fill:url(#SVGID_00000142866338125481894720000004923871955154796194_);}
	.st120{fill:url(#SVGID_00000103258770969242907770000000325286407120036250_);}
	.st121{fill:url(#SVGID_00000128482369532506323300000001090881139758014625_);}
	.st122{fill:url(#SVGID_00000137811446181139150650000014124379810106327444_);}
	.st123{fill:url(#SVGID_00000168106257331248631560000014832567920962838445_);}
	.st124{fill:url(#SVGID_00000111191918938027078670000006870201232070607023_);}
	.st125{fill:url(#SVGID_00000133509608409637393890000013694945712175942821_);}
	.st126{fill:url(#SVGID_00000049222646731431715090000007257058192344672409_);}
	.st127{fill:url(#SVGID_00000167395886666316927600000013254594289527743385_);}
	.st128{fill:url(#SVGID_00000088106869129463449140000001623318338516772789_);}
	.st129{fill:url(#SVGID_00000063599962518453562150000012388031042316762255_);}
	.st130{fill:url(#SVGID_00000157995875590745947840000006313922752288538016_);}
	.st131{fill:url(#SVGID_00000110431787901394774030000006861470309198937005_);}
	.st132{fill:url(#SVGID_00000127766543345240697250000012421617408413676175_);}
	.st133{fill:url(#SVGID_00000181794471548328740070000001581008013875589772_);}
	.st134{fill:none;stroke:#FEF73D;stroke-linecap:round;stroke-miterlimit:10;}
	.st135{fill:none;stroke:#FF189C;stroke-miterlimit:10;}
	.st136{fill:none;stroke:#00EFF1;stroke-linecap:round;stroke-miterlimit:10;}
	.st137{fill:#00EFF1;}
	.st138{fill:#FFA022;}
	.st139{fill:#0C103A;}
	.st140{fill-rule:evenodd;clip-rule:evenodd;fill:#5D9541;}
	.st141{fill-rule:evenodd;clip-rule:evenodd;fill:#F06021;}
	.st142{fill-rule:evenodd;clip-rule:evenodd;fill:#69BC60;}
	.st143{fill-rule:evenodd;clip-rule:evenodd;fill:#F6951C;}
	.st144{fill:#F6951C;}
	.st145{fill:url(#SVGID_00000108998715511504445620000014486314868717559690_);}
	.st146{fill:url(#SVGID_00000155852548151772081740000009029238463374403725_);}
	.st147{fill:url(#SVGID_00000150797802894538360240000001209759502154076809_);}
	.st148{opacity:0.93;fill:url(#SVGID_00000151521216605697451330000008316214615477512372_);}
	.st149{opacity:0.93;fill:url(#SVGID_00000018944362498180806180000015731442610293557424_);}
	.st150{opacity:0.93;fill:url(#SVGID_00000119797276344847497910000006186289355592153243_);}
	.st151{opacity:0.93;fill:url(#SVGID_00000063597010126773846690000000239911283730116485_);}
	.st152{fill:url(#SVGID_00000109725274405771750830000001111973096893522321_);}
	.st153{fill:url(#SVGID_00000157266828074022362390000012667675782120126142_);}
	.st154{fill:url(#SVGID_00000071529655727101457790000001997890293428156345_);}
	.st155{fill:url(#SVGID_00000160892370670661708840000018362477119448853388_);}
	.st156{fill:url(#SVGID_00000062161121186012582180000000419286356769274519_);}
	.st157{fill:url(#SVGID_00000149345660379976663140000010932378074337530537_);}
	.st158{fill:url(#SVGID_00000149368656027337567700000000808666148440855971_);}
	.st159{fill:url(#SVGID_00000030469457902322419420000003563288409796138117_);}
	.st160{fill:url(#SVGID_00000009575334477041409840000014696844575780558987_);}
	.st161{fill:url(#SVGID_00000176028467753251438740000010592999449188992951_);}
	.st162{fill:url(#SVGID_00000002355635621958928350000016896017320635894690_);}
	.st163{fill:url(#SVGID_00000046304231058103652570000010542264976837770137_);}
	.st164{fill:url(#SVGID_00000085210205373610138410000003389472600363098559_);}
	.st165{fill:url(#SVGID_00000134934784374318195950000014193682155033396619_);}
	.st166{fill:url(#SVGID_00000141437502809243162480000017210714576515006875_);}
	.st167{fill:url(#SVGID_00000036210859443125465010000016152460988029480074_);}
	.st168{fill:url(#SVGID_00000156548990391803421150000012841322034015201698_);}
	.st169{fill:url(#SVGID_00000057866626880663408770000016491772219002721925_);}
	.st170{fill:url(#SVGID_00000106127347142203772480000010077866652820824727_);}
	.st171{fill:url(#SVGID_00000044146672427490698340000016011879723543015822_);}
	.st172{fill:url(#SVGID_00000055693252825504944920000018092818830422879918_);}
	.st173{fill:url(#SVGID_00000110440003154790780580000000010002288536585657_);}
	.st174{fill:url(#SVGID_00000149379791567061895510000008614609884139723143_);}
	.st175{fill:url(#SVGID_00000145767643972540149010000013108828874580226992_);}
	.st176{fill:url(#SVGID_00000172404203735261392100000007947929139577940134_);}
	.st177{fill:url(#SVGID_00000012454448577880880290000018244930886188465285_);}
	.st178{fill:url(#SVGID_00000096038505989257384680000004004937774169276092_);}
	.st179{fill:url(#SVGID_00000178894023474437633190000011389696282118277018_);}
	.st180{fill:url(#SVGID_00000023978983298955677650000017408870331908196230_);}
	.st181{fill:url(#SVGID_00000059297703366509160840000001735434576301490050_);}
	.st182{fill:url(#SVGID_00000129889768864068621690000014555423819806780326_);}
	.st183{fill:url(#SVGID_00000113349411065874329480000017454375150190429086_);}
	.st184{fill:url(#SVGID_00000018942967440717293240000016789575658299162028_);}
	.st185{fill:url(#SVGID_00000153673368394185502690000003602073235050718895_);}
	.st186{fill:url(#SVGID_00000016791712281541497050000013675502450726668424_);}
	.st187{fill:url(#SVGID_00000071535299038096398560000002800403369918587800_);}
	.st188{fill:url(#SVGID_00000151543516992537890720000016983533305630267034_);}
	.st189{fill:url(#SVGID_00000054954922808580201530000016780385633183910324_);}
	.st190{fill:url(#SVGID_00000141430591023953026910000013603660887931428748_);}
	.st191{fill:url(#SVGID_00000047743143277414813390000001033236739053288848_);}
	.st192{fill:url(#SVGID_00000078754982371494264950000002512116496923088796_);}
	.st193{fill:url(#SVGID_00000132048794439845686250000016780781087386053298_);}
	.st194{fill:url(#SVGID_00000175292395143007941180000006571386741592090278_);}
	.st195{fill:url(#SVGID_00000134214249016379685990000017510162967782656685_);}
	.st196{fill:url(#SVGID_00000096750584343951841900000007634948300515981755_);}
	.st197{fill-rule:evenodd;clip-rule:evenodd;fill:#512100;}
	.st198{fill-rule:evenodd;clip-rule:evenodd;fill:#006D62;}
	.st199{fill-rule:evenodd;clip-rule:evenodd;}
	.st200{fill-rule:evenodd;clip-rule:evenodd;fill:#00A1F5;}
	.st201{fill-rule:evenodd;clip-rule:evenodd;fill:#FACFAB;}
	.st202{fill-rule:evenodd;clip-rule:evenodd;fill:#F29673;}
	.st203{fill-rule:evenodd;clip-rule:evenodd;fill:#FFFFFF;}
	.st204{fill-rule:evenodd;clip-rule:evenodd;fill:#333333;}
	.st205{fill-rule:evenodd;clip-rule:evenodd;fill:#BD4D00;}
	.st206{fill-rule:evenodd;clip-rule:evenodd;fill:#B2B2B2;}
	.st207{fill-rule:evenodd;clip-rule:evenodd;fill:#F2CC29;}
	.st208{fill-rule:evenodd;clip-rule:evenodd;fill:#005C9C;}
	.st209{fill-rule:evenodd;clip-rule:evenodd;fill:#8AC900;}
	.st210{fill-rule:evenodd;clip-rule:evenodd;fill:#808080;}
	.st211{fill-rule:evenodd;clip-rule:evenodd;fill:#CFA605;}
	.st212{fill-rule:evenodd;clip-rule:evenodd;fill:#666666;}
	.st213{fill-rule:evenodd;clip-rule:evenodd;fill:#CCCCCC;}
	.st214{fill:#960000;}
	.st215{fill:url(#SVGID_00000137818417072994894430000008694077154363933342_);}
	.st216{fill:url(#SVGID_00000032632203073845026450000007261912458344582813_);}
	.st217{opacity:0.51;fill:url(#SVGID_00000018194739752741121800000010109943324811527553_);}
	.st218{fill:url(#SVGID_00000073718632810443354060000006775190509163858614_);}
	.st219{fill:url(#SVGID_00000041998681169061155750000013488164828211835033_);}
	.st220{fill:url(#SVGID_00000121965501409408951270000017782696827056658830_);}
	.st221{opacity:0.35;fill:url(#SVGID_00000013178833473090613940000005476336612992986045_);}
	.st222{opacity:0.35;fill:url(#SVGID_00000055671074728323896740000000828932832876283325_);}
	.st223{fill:#F06021;}
	.st224{fill-rule:evenodd;clip-rule:evenodd;fill:url(#SVGID_00000098926669997741284590000004187799486096966834_);}
	.st225{fill-rule:evenodd;clip-rule:evenodd;fill:url(#SVGID_00000128447040763879085650000007440018178166313914_);}
	.st226{fill-rule:evenodd;clip-rule:evenodd;fill:url(#SVGID_00000094598615721138533500000001367316052356356518_);}
	.st227{fill-rule:evenodd;clip-rule:evenodd;fill:url(#SVGID_00000152956274835673815160000010063536567898915225_);}
	.st228{fill-rule:evenodd;clip-rule:evenodd;fill:url(#SVGID_00000109013020748722585270000012677464170286411906_);}
	.st229{fill-rule:evenodd;clip-rule:evenodd;fill:url(#SVGID_00000007400439305727918730000008960201290326452642_);}
	.st230{fill-rule:evenodd;clip-rule:evenodd;fill:url(#SVGID_00000139272894723646088510000016695875113294015675_);}
	.st231{fill-rule:evenodd;clip-rule:evenodd;fill:url(#SVGID_00000139984212322971662900000000100955408429228984_);}
	.st232{fill-rule:evenodd;clip-rule:evenodd;fill:url(#SVGID_00000055697100146775019870000016204754706244787859_);}
	.st233{fill-rule:evenodd;clip-rule:evenodd;fill:url(#SVGID_00000129164341278267920920000014852373149022255038_);}
	.st234{fill-rule:evenodd;clip-rule:evenodd;fill:url(#SVGID_00000008124995277902156560000014740199172947300771_);}
	.st235{fill-rule:evenodd;clip-rule:evenodd;fill:url(#SVGID_00000078023865669351772640000008228776954742909338_);}
	.st236{fill-rule:evenodd;clip-rule:evenodd;fill:url(#SVGID_00000142161866269748888110000016907381644439583384_);}
	.st237{opacity:0.5;fill-rule:evenodd;clip-rule:evenodd;fill:#5D0101;enable-background:new    ;}
	.st238{fill:#E11B22;}
	.st239{fill:#959595;}
	.st240{fill:#003359;}
	.st241{fill:#1779C1;}
	.st242{fill:#0EB17C;}
	.st243{fill:#2B2353;}
	.st244{fill:#BE264E;}
	.st245{fill:#EAA41C;}
	.st246{fill:#1F9EF3;}
	.st247{fill:#0267A3;}
	.st248{fill:#FFEC00;}
	.st249{fill:#00A0E0;}
	.st250{fill:#E3007E;}
	.st251{fill:none;stroke:#000000;stroke-width:2;stroke-miterlimit:10;}
</style>
<rect x="-0.31" width="348" height="228"/>
<g>
	<g>
		<text transform="matrix(1 0 0 1 31.7147 140.277)" class="st11 st12 st13">RESTAURANT</text>
		<g>
			<g>
				<g>
					<path class="st14" d="M177.04,53.81c0-1.85-1.5-3.35-3.35-3.35s-3.35,1.5-3.35,3.35c0,1.85,3.35,8.1,3.35,8.1
						S177.04,55.66,177.04,53.81z"/>
					<path class="st14" d="M182.71,53.95c-0.82-0.82-2.15-0.82-2.97,0c-0.82,0.82-2.11,5.08-2.11,5.08s4.26-1.29,5.08-2.11
						C183.53,56.1,183.53,54.77,182.71,53.95z"/>
					<path class="st14" d="M169.76,59.04c0,0-1.29-4.26-2.11-5.08c-0.82-0.82-2.15-0.82-2.97,0c-0.82,0.82-0.82,2.15,0,2.97
						C165.5,57.74,169.76,59.04,169.76,59.04z"/>
				</g>
				<g>
					<path class="st14" d="M247.59,103.18c3.12-1.33,5.44-3.71,6.66-6.93c1.31-3.44,1.18-7.39-0.23-10.87
						c0.99,0.99,1.99,1.93,3.15,2.91c6.52,5.48,13.1,6.89,19.55,4.18c3.49-1.47,8.42-5.79,8.44-10.78c0.01-2.45-1.1-4.8-2.93-6.44
						c-0.76-0.69-1.65-1.25-2.64-1.65c-1.74-0.71-3.91-0.33-5.53,0.96c-1.48,1.18-2.2,2.89-1.93,4.56c0.24,1.47,1.5,2.75,3,3.02
						c0.79,0.14,1.56-0.38,1.95-0.93c0.25-0.35,0.35-0.71,0.3-1.03c0.11-0.56-0.07-1.17-0.53-1.58c-0.7-0.62-1.77-0.57-2.39,0.13
						c-0.44,0.49-0.54,1.17-0.31,1.75c-0.48-0.4-0.83-0.95-0.93-1.54c-0.21-1.3,0.35-2.58,1.53-3.52c1.31-1.05,3.05-1.36,4.42-0.8
						c2.93,1.19,4.89,4.02,4.87,7.05c-0.02,4.02-4.04,8.2-7.76,9.76c-6.03,2.54-12.22,1.19-18.4-4c-2.36-1.99-4.09-3.84-6.46-6.41
						l-0.77-0.83c-0.01-0.01-0.03-0.02-0.04-0.03c-0.73-0.82-1.52-1.61-2.35-2.36c-6.22-5.58-15.06-8.91-23.67-3.16
						c-3.86,2.58-6.82,7.03-7.54,11.33c-0.52,3.09,0.13,5.95,1.89,8.27c1.51,1.99,4.89,3.28,7.34,1.95
						c1.56-0.85,2.39-2.42,2.07-3.91c-0.21-0.96-1.22-2.75-3.1-2.55c-0.45,0.01-0.89,0.2-1.21,0.56c-0.62,0.7-0.57,1.77,0.13,2.39
						c0.7,0.62,1.77,0.57,2.39-0.13c0.21-0.23,0.33-0.51,0.39-0.79c0.18,0.3,0.28,0.6,0.32,0.75c0.21,0.99-0.41,2.11-1.51,2.71
						c-1.89,1.03-4.69-0.02-5.92-1.65c-1.57-2.07-2.15-4.64-1.68-7.42c0.66-3.95,3.5-8.21,7.06-10.59
						c9.77-6.53,19.95-0.51,25.69,6.64c3.1,3.85,4.01,9.21,2.31,13.64c-1.49,3.9-4.74,6.46-9.15,7.19
						c-3.47,0.58-7.44-1.59-9.23-5.04c-0.69-1.33-0.97-2.68-0.84-3.96c0-0.03,0.01-0.05,0.01-0.08c0-0.01,0-0.03,0-0.04
						c0.17-1.39,0.81-2.7,1.92-3.83c1.08-1.1,2.37-1.66,3.73-1.61c1.45,0.06,2.85,0.81,3.96,2.12c0.76,0.91,1.05,2.35,0.69,3.42
						c-0.04,0.12-0.09,0.25-0.17,0.38c-0.07-0.35-0.24-0.68-0.52-0.93c-0.7-0.62-1.77-0.57-2.39,0.13c-0.62,0.7-0.57,1.77,0.13,2.39
						c0.3,0.27,0.66,0.4,1.04,0.42c0.2,0.19,0.43,0.18,0.63,0.07c0.01,0,0.03-0.01,0.05-0.01c1.11-0.26,1.93-1,2.29-2.09
						c0.48-1.44,0.11-3.29-0.89-4.49c-1.3-1.55-3-2.45-4.77-2.52c-1.66-0.06-3.28,0.63-4.57,1.94c-0.09,0.09-0.17,0.18-0.25,0.28
						c0.1-0.29,0.19-0.59,0.28-0.89c0.76-2.54,0.77-6.19-0.91-8.62c-0.34-0.49-0.76-0.98-1.25-1.41c-1.44-1.29-3.45-2.14-5.64-1.31
						c-1.12,0.42-2.08,1.48-2.45,2.68c-0.3,0.98-0.16,1.94,0.38,2.7c0.48,0.67,1.18,1.11,1.92,1.19c0.5,0.06,1-0.06,1.43-0.33
						c0.18-0.09,0.35-0.22,0.5-0.38c0.36-0.4,0.48-0.91,0.4-1.4c0,0,0,0,0,0c-0.01-0.05-0.02-0.11-0.03-0.16
						c-0.03-0.13-0.06-0.26-0.12-0.38c-0.21-0.47-0.61-0.75-1.1-0.81c-0.59-0.15-1.24,0.02-1.68,0.5c-0.29,0.32-0.42,0.72-0.43,1.13
						c-0.43-0.61-0.35-1.27-0.22-1.73c0.27-0.87,0.98-1.66,1.78-1.96c2.32-0.88,4.45,0.7,5.58,2.32c1.46,2.11,1.42,5.46,0.76,7.66
						c-0.11,0.37-0.23,0.73-0.34,1.09c-0.46,1.42-0.93,2.88-0.86,4.51c-0.14,1.49,0.17,3.04,0.95,4.54
						c1.78,3.41,5.31,5.64,8.82,5.73v0.02h60.5v-1.08L247.59,103.18L247.59,103.18z"/>
					<path class="st14" d="M99.53,103.18c-3.12-1.33-5.44-3.71-6.66-6.93c-1.31-3.44-1.18-7.39,0.23-10.87
						c-0.99,0.99-1.99,1.93-3.15,2.91c-6.52,5.48-13.1,6.89-19.55,4.18c-3.49-1.47-8.42-5.79-8.44-10.78
						c-0.01-2.45,1.1-4.8,2.93-6.44c0.76-0.69,1.65-1.25,2.64-1.65c1.74-0.71,3.91-0.33,5.53,0.96c1.48,1.18,2.2,2.89,1.93,4.56
						c-0.24,1.47-1.5,2.75-3,3.02c-0.79,0.14-1.56-0.38-1.95-0.93c-0.25-0.35-0.35-0.71-0.3-1.03c-0.11-0.56,0.07-1.17,0.53-1.58
						c0.7-0.62,1.77-0.57,2.39,0.13c0.44,0.49,0.54,1.17,0.31,1.75c0.48-0.4,0.83-0.95,0.93-1.54c0.21-1.3-0.35-2.58-1.53-3.52
						c-1.31-1.05-3.05-1.36-4.42-0.8c-2.93,1.19-4.89,4.02-4.87,7.05c0.02,4.02,4.04,8.2,7.76,9.76c6.03,2.54,12.22,1.19,18.4-4
						c2.36-1.99,4.09-3.84,6.46-6.41l0.77-0.83c0.01-0.01,0.03-0.02,0.04-0.03c0.73-0.82,1.52-1.61,2.35-2.36
						c6.22-5.58,15.06-8.91,23.67-3.16c3.86,2.58,6.82,7.03,7.54,11.33c0.52,3.09-0.13,5.95-1.89,8.27
						c-1.51,1.99-4.89,3.28-7.34,1.95c-1.56-0.85-2.39-2.42-2.07-3.91c0.2-0.96,1.22-2.75,3.1-2.55c0.45,0.01,0.89,0.2,1.21,0.56
						c0.62,0.7,0.57,1.77-0.13,2.39c-0.7,0.62-1.77,0.57-2.39-0.13c-0.21-0.23-0.33-0.51-0.39-0.79c-0.18,0.3-0.28,0.6-0.32,0.75
						c-0.21,0.99,0.41,2.11,1.51,2.71c1.89,1.03,4.69-0.02,5.92-1.65c1.57-2.07,2.15-4.64,1.68-7.42c-0.66-3.95-3.5-8.21-7.06-10.59
						c-9.77-6.53-19.95-0.51-25.69,6.64c-3.1,3.85-4.01,9.21-2.31,13.64c1.49,3.9,4.74,6.46,9.15,7.19
						c3.47,0.58,7.44-1.59,9.23-5.04c0.69-1.33,0.97-2.68,0.84-3.96c0-0.03-0.01-0.05-0.01-0.08c0-0.01,0-0.03,0-0.04
						c-0.17-1.39-0.81-2.7-1.92-3.83c-1.08-1.1-2.37-1.66-3.73-1.61c-1.45,0.06-2.85,0.81-3.96,2.12c-0.76,0.91-1.05,2.35-0.69,3.42
						c0.04,0.12,0.09,0.25,0.17,0.38c0.07-0.35,0.24-0.68,0.52-0.93c0.7-0.62,1.77-0.57,2.39,0.13c0.62,0.7,0.57,1.77-0.13,2.39
						c-0.3,0.27-0.66,0.4-1.04,0.42c-0.2,0.19-0.43,0.18-0.63,0.07c-0.02,0-0.03-0.01-0.05-0.01c-1.11-0.26-1.93-1-2.29-2.09
						c-0.48-1.44-0.11-3.29,0.89-4.49c1.3-1.55,3-2.45,4.77-2.52c1.66-0.06,3.28,0.63,4.57,1.94c0.09,0.09,0.17,0.18,0.25,0.28
						c-0.1-0.29-0.19-0.59-0.28-0.89c-0.76-2.54-0.77-6.19,0.91-8.62c0.34-0.49,0.76-0.98,1.25-1.41c1.44-1.29,3.45-2.14,5.64-1.31
						c1.12,0.42,2.08,1.48,2.45,2.68c0.3,0.98,0.16,1.94-0.38,2.7c-0.48,0.67-1.18,1.11-1.92,1.19c-0.5,0.06-1-0.06-1.43-0.33
						c-0.18-0.09-0.35-0.22-0.5-0.38c-0.36-0.4-0.48-0.91-0.4-1.4c0,0,0,0,0,0c0.01-0.05,0.02-0.11,0.03-0.16
						c0.03-0.13,0.06-0.26,0.12-0.38c0.21-0.47,0.61-0.75,1.1-0.81c0.59-0.15,1.24,0.02,1.68,0.5c0.29,0.32,0.42,0.72,0.43,1.13
						c0.43-0.61,0.35-1.27,0.22-1.73c-0.27-0.87-0.98-1.66-1.78-1.96c-2.32-0.88-4.45,0.7-5.58,2.32c-1.46,2.11-1.42,5.46-0.76,7.66
						c0.11,0.37,0.23,0.73,0.34,1.09c0.46,1.42,0.93,2.88,0.86,4.51c0.14,1.49-0.17,3.04-0.95,4.54c-1.78,3.41-5.31,5.64-8.82,5.73
						v0.02h-60.5v-1.08L99.53,103.18L99.53,103.18z"/>
					<g>
						<g>
							<g>
								<g>
									<g>
										<path class="st14" d="M217.05,80.28c-1.28,0-2.55-0.36-3.55-1.1c-1.09-0.8-2.28-2.38-2.05-4.19
											c0.19-1.57,0.99-2.43,1.62-2.88c0.87-0.62,2-0.83,3.09-0.6c0.97,0.21,1.69,0.75,2.03,1.51c0.23,0.51,0.24,1.38-0.13,1.89
											c-0.22,0.3-0.54,0.45-0.9,0.41c-0.3-0.03-0.52-0.3-0.49-0.6c0.03-0.3,0.32-0.52,0.6-0.49c-0.01-0.06,0.03-0.51-0.08-0.77
											c-0.25-0.56-0.82-0.79-1.26-0.88c-0.79-0.17-1.6-0.02-2.22,0.42c-0.65,0.46-1.05,1.19-1.17,2.12
											c-0.15,1.25,0.7,2.5,1.62,3.18c1.82,1.35,4.88,1.12,6.55-0.5c2.12-2.05,1.98-5.45,0.64-7.41
											c-3.05-4.47-9.31-2.91-14.33-1.65c-0.91,0.23-1.78,0.45-2.57,0.61c-2.07,0.44-6.75,1.42-8.08-1.29
											c-0.41-0.84-0.33-2.12,0.19-2.86c0.36-0.52,1.05-0.85,1.66-0.82c0.47,0.02,0.85,0.25,1.07,0.64
											c0.15,0.26,0.06,0.6-0.21,0.75c-0.26,0.15-0.6,0.06-0.75-0.2c-0.02-0.03-0.05-0.08-0.17-0.09
											c-0.25-0.01-0.57,0.15-0.71,0.36c-0.28,0.41-0.34,1.27-0.11,1.74c0.96,1.94,5.05,1.08,6.79,0.71
											c0.86-0.18,1.71-0.39,2.61-0.62c5.07-1.27,12.02-3.01,15.51,2.09c1.86,2.72,1.51,6.59-0.78,8.82
											C220.32,79.7,218.68,80.28,217.05,80.28z"/>
									</g>
								</g>
							</g>
							<g>
								<g>
									<g>
										<path class="st14" d="M218.01,74.22c0,0.92-0.75,1.67-1.67,1.67c-0.92,0-1.67-0.75-1.67-1.67c0-0.92,0.75-1.67,1.67-1.67
											S218.01,73.3,218.01,74.22z"/>
									</g>
								</g>
							</g>
							<g>
								<g>
									<g>
										<path class="st14" d="M199.89,66.18c0,0.92-0.75,1.67-1.67,1.67c-0.92,0-1.67-0.75-1.67-1.67c0-0.92,0.75-1.67,1.67-1.67
											C199.14,64.51,199.89,65.26,199.89,66.18z"/>
									</g>
								</g>
							</g>
						</g>
						<g>
							<g>
								<g>
									<g>
										<path class="st14" d="M130.03,80.28c1.28,0,2.55-0.36,3.55-1.1c1.09-0.8,2.28-2.38,2.05-4.19
											c-0.19-1.57-0.99-2.43-1.62-2.88c-0.87-0.62-2-0.83-3.09-0.6c-0.97,0.21-1.69,0.75-2.03,1.51
											c-0.23,0.51-0.24,1.38,0.13,1.89c0.22,0.3,0.54,0.45,0.9,0.41c0.3-0.03,0.52-0.3,0.49-0.6c-0.03-0.3-0.32-0.52-0.6-0.49
											c0.01-0.06-0.03-0.51,0.08-0.77c0.25-0.56,0.82-0.79,1.26-0.88c0.79-0.17,1.6-0.02,2.22,0.42
											c0.65,0.46,1.05,1.19,1.17,2.12c0.15,1.25-0.7,2.5-1.62,3.18c-1.82,1.35-4.88,1.12-6.55-0.5
											c-2.12-2.05-1.98-5.45-0.64-7.41c3.05-4.47,9.31-2.91,14.33-1.65c0.91,0.23,1.78,0.45,2.57,0.61
											c2.07,0.44,6.75,1.42,8.08-1.29c0.41-0.84,0.33-2.12-0.19-2.86c-0.36-0.52-1.05-0.85-1.66-0.82
											c-0.47,0.02-0.85,0.25-1.07,0.64c-0.15,0.26-0.06,0.6,0.21,0.75c0.26,0.15,0.6,0.06,0.75-0.2
											c0.02-0.03,0.05-0.08,0.18-0.09c0.25-0.01,0.57,0.15,0.71,0.36c0.28,0.41,0.34,1.27,0.11,1.74
											c-0.96,1.94-5.05,1.08-6.79,0.71c-0.86-0.18-1.71-0.39-2.61-0.62c-5.07-1.27-12.02-3.01-15.51,2.09
											c-1.86,2.72-1.51,6.59,0.78,8.82C126.76,79.7,128.4,80.28,130.03,80.28z"/>
									</g>
								</g>
							</g>
							<g>
								<g>
									<g>
										<path class="st14" d="M129.07,74.22c0,0.92,0.75,1.67,1.67,1.67c0.92,0,1.67-0.75,1.67-1.67c0-0.92-0.75-1.67-1.67-1.67
											C129.81,72.55,129.07,73.3,129.07,74.22z"/>
									</g>
								</g>
							</g>
							<g>
								<g>
									<g>
										<path class="st14" d="M147.19,66.18c0,0.92,0.75,1.67,1.67,1.67s1.67-0.75,1.67-1.67c0-0.92-0.75-1.67-1.67-1.67
											C147.94,64.51,147.19,65.26,147.19,66.18z"/>
									</g>
								</g>
							</g>
						</g>
					</g>
				</g>
			</g>
		</g>
		<g>
			<g>
				<path class="st14" d="M174.69,74.14l-1.13,9.28l-1.13-9.28c-0.08-0.62,0.37-1.19,0.99-1.26c0.62-0.08,1.19,0.37,1.26,0.99
					C174.7,73.96,174.7,74.06,174.69,74.14z"/>
			</g>
			<g>
				<path class="st14" d="M170.23,74.24l-0.31,9.35l-1.93-9.15c-0.13-0.61,0.26-1.21,0.88-1.34c0.61-0.13,1.21,0.26,1.34,0.88
					C170.23,74.06,170.24,74.15,170.23,74.24z"/>
			</g>
			<g>
				<path class="st14" d="M165.8,74.72l0.5,9.34l-2.72-8.95c-0.18-0.6,0.16-1.23,0.76-1.42c0.6-0.18,1.23,0.16,1.42,0.76
					C165.78,74.54,165.8,74.64,165.8,74.72z"/>
			</g>
			<g>
				<path class="st14" d="M161.43,75.59l1.31,9.26l-3.49-8.68c-0.23-0.58,0.05-1.24,0.63-1.48c0.58-0.23,1.24,0.05,1.48,0.63
					C161.4,75.41,161.42,75.51,161.43,75.59z"/>
			</g>
			<g>
				<path class="st14" d="M157.16,76.84l2.12,9.11l-4.23-8.34c-0.28-0.56-0.06-1.24,0.5-1.53c0.56-0.28,1.24-0.06,1.52,0.5
					C157.1,76.66,157.14,76.75,157.16,76.84z"/>
			</g>
			<g>
				<path class="st14" d="M153,78.45l2.9,8.89l-4.94-7.94c-0.33-0.53-0.17-1.23,0.36-1.56c0.53-0.33,1.23-0.17,1.56,0.36
					C152.94,78.28,152.98,78.37,153,78.45z"/>
			</g>
			<g>
				<path class="st14" d="M149.01,80.42l3.67,8.6l-5.62-7.48c-0.38-0.5-0.28-1.21,0.23-1.59c0.5-0.38,1.21-0.28,1.59,0.23
					C148.92,80.26,148.97,80.34,149.01,80.42z"/>
			</g>
			<g>
				<path class="st14" d="M145.2,82.73l4.4,8.25l-6.25-6.96c-0.42-0.47-0.38-1.18,0.09-1.6c0.47-0.42,1.18-0.38,1.6,0.09
					C145.1,82.58,145.15,82.65,145.2,82.73z"/>
			</g>
			<g>
				<path class="st14" d="M141.6,85.37l5.11,7.84l-6.83-6.39c-0.46-0.43-0.48-1.15-0.05-1.6c0.43-0.46,1.15-0.48,1.6-0.05
					C141.49,85.22,141.55,85.29,141.6,85.37z"/>
			</g>
			<g>
				<path class="st14" d="M138.25,88.3l5.77,7.36l-7.36-5.77c-0.49-0.39-0.58-1.1-0.19-1.59s1.1-0.58,1.59-0.19
					C138.13,88.17,138.2,88.23,138.25,88.3z"/>
			</g>
			<g>
				<path class="st14" d="M135.17,91.52l6.39,6.83l-7.84-5.11c-0.52-0.34-0.67-1.05-0.33-1.57c0.34-0.52,1.05-0.67,1.57-0.33
					C135.04,91.39,135.11,91.46,135.17,91.52z"/>
			</g>
			<g>
				<path class="st14" d="M132.38,95l6.96,6.25l-8.25-4.4c-0.55-0.3-0.76-0.98-0.47-1.53c0.3-0.55,0.98-0.76,1.53-0.47
					C132.24,94.88,132.32,94.94,132.38,95z"/>
			</g>
			<g>
				<path class="st14" d="M129.9,98.7l7.48,5.62l-8.6-3.67c-0.58-0.25-0.84-0.91-0.6-1.49c0.25-0.58,0.91-0.84,1.49-0.6
					C129.75,98.6,129.83,98.65,129.9,98.7z"/>
			</g>
			<g>
				<path class="st14" d="M128.78,149.76l8.6-3.67l-7.48,5.62c-0.5,0.38-1.21,0.28-1.59-0.23c-0.38-0.5-0.28-1.21,0.23-1.59
					C128.61,149.84,128.7,149.8,128.78,149.76z"/>
			</g>
			<g>
				<path class="st14" d="M131.09,153.57l8.25-4.4l-6.96,6.25c-0.47,0.42-1.18,0.38-1.6-0.09c-0.42-0.47-0.38-1.18,0.09-1.6
					C130.93,153.67,131.01,153.61,131.09,153.57z"/>
			</g>
			<g>
				<path class="st14" d="M133.72,157.16l7.84-5.11l-6.39,6.83c-0.43,0.46-1.15,0.48-1.6,0.05c-0.46-0.43-0.48-1.15-0.05-1.6
					C133.58,157.27,133.65,157.21,133.72,157.16z"/>
			</g>
			<g>
				<path class="st14" d="M136.66,160.51l7.36-5.77l-5.77,7.36c-0.39,0.49-1.1,0.58-1.59,0.19s-0.58-1.1-0.19-1.59
					C136.52,160.64,136.59,160.57,136.66,160.51z"/>
			</g>
			<g>
				<path class="st14" d="M139.88,163.6l6.83-6.39l-5.11,7.84c-0.34,0.52-1.05,0.67-1.57,0.33s-0.67-1.05-0.33-1.57
					C139.75,163.73,139.81,163.66,139.88,163.6z"/>
			</g>
			<g>
				<path class="st14" d="M143.35,166.39l6.25-6.96l-4.4,8.25c-0.3,0.55-0.98,0.76-1.53,0.47s-0.76-0.98-0.47-1.53
					C143.24,166.53,143.29,166.45,143.35,166.39z"/>
			</g>
			<g>
				<path class="st14" d="M147.06,168.86l5.62-7.48l-3.67,8.6c-0.25,0.58-0.91,0.84-1.49,0.6c-0.58-0.25-0.84-0.91-0.6-1.49
					C146.95,169.02,147,168.93,147.06,168.86z"/>
			</g>
			<g>
				<path class="st14" d="M150.96,171.01l4.94-7.94l-2.9,8.89c-0.19,0.6-0.83,0.92-1.43,0.73c-0.6-0.19-0.92-0.83-0.73-1.43
					C150.87,171.17,150.92,171.08,150.96,171.01z"/>
			</g>
			<g>
				<path class="st14" d="M155.04,172.8l4.23-8.34l-2.12,9.11c-0.14,0.61-0.75,0.99-1.36,0.85c-0.61-0.14-0.99-0.75-0.85-1.36
					C154.97,172.97,155,172.88,155.04,172.8z"/>
			</g>
			<g>
				<path class="st14" d="M159.26,174.24l3.49-8.68l-1.31,9.26c-0.09,0.62-0.66,1.05-1.28,0.96c-0.62-0.09-1.05-0.66-0.96-1.28
					C159.2,174.41,159.23,174.32,159.26,174.24z"/>
			</g>
			<g>
				<path class="st14" d="M163.59,175.3l2.72-8.95l-0.5,9.34c-0.03,0.63-0.57,1.11-1.19,1.07c-0.63-0.03-1.11-0.57-1.07-1.19
					C163.54,175.47,163.56,175.38,163.59,175.3z"/>
			</g>
			<g>
				<path class="st14" d="M167.99,175.97l1.93-9.15l0.31,9.35c0.02,0.63-0.47,1.15-1.1,1.17c-0.63,0.02-1.15-0.47-1.17-1.1
					C167.96,176.15,167.97,176.06,167.99,175.97z"/>
			</g>
			<g>
				<path class="st14" d="M172.44,176.27l1.13-9.28l1.13,9.28c0.08,0.62-0.37,1.19-0.99,1.26c-0.62,0.08-1.19-0.37-1.26-0.99
					C172.42,176.45,172.42,176.35,172.44,176.27z"/>
			</g>
			<g>
				<path class="st14" d="M176.89,176.17l0.31-9.35l1.93,9.15c0.13,0.61-0.26,1.21-0.88,1.34c-0.61,0.13-1.21-0.26-1.34-0.88
					C176.89,176.35,176.89,176.26,176.89,176.17z"/>
			</g>
			<g>
				<path class="st14" d="M181.32,175.69l-0.5-9.34l2.72,8.95c0.18,0.6-0.16,1.23-0.76,1.42c-0.6,0.18-1.23-0.16-1.42-0.76
					C181.34,175.87,181.32,175.77,181.32,175.69z"/>
			</g>
			<g>
				<path class="st14" d="M185.69,174.82l-1.31-9.26l3.49,8.68c0.23,0.58-0.05,1.24-0.63,1.48c-0.58,0.23-1.24-0.05-1.48-0.63
					C185.73,175,185.7,174.9,185.69,174.82z"/>
			</g>
			<g>
				<path class="st14" d="M189.97,173.57l-2.12-9.11l4.23,8.34c0.28,0.56,0.06,1.24-0.5,1.52c-0.56,0.28-1.24,0.06-1.52-0.5
					C190.02,173.75,189.99,173.66,189.97,173.57z"/>
			</g>
			<g>
				<path class="st14" d="M194.12,171.96l-2.9-8.89l4.94,7.94c0.33,0.53,0.17,1.23-0.36,1.56c-0.53,0.33-1.23,0.17-1.56-0.36
					C194.19,172.13,194.15,172.04,194.12,171.96z"/>
			</g>
			<g>
				<path class="st14" d="M198.12,169.99l-3.67-8.6l5.62,7.48c0.38,0.5,0.28,1.21-0.23,1.59c-0.5,0.38-1.21,0.28-1.59-0.23
					C198.2,170.15,198.15,170.07,198.12,169.99z"/>
			</g>
			<g>
				<path class="st14" d="M201.93,167.68l-4.4-8.25l6.25,6.96c0.42,0.47,0.38,1.18-0.09,1.6c-0.47,0.42-1.18,0.38-1.6-0.09
					C202.02,167.83,201.97,167.76,201.93,167.68z"/>
			</g>
			<g>
				<path class="st14" d="M205.52,165.04l-5.11-7.84l6.83,6.39c0.46,0.43,0.48,1.15,0.05,1.6c-0.43,0.46-1.15,0.48-1.6,0.05
					C205.63,165.19,205.57,165.12,205.52,165.04z"/>
			</g>
			<g>
				<path class="st14" d="M208.87,162.11l-5.77-7.36l7.36,5.77c0.49,0.39,0.58,1.1,0.19,1.59c-0.39,0.49-1.1,0.58-1.59,0.19
					C208.99,162.24,208.92,162.18,208.87,162.11z"/>
			</g>
			<g>
				<path class="st14" d="M211.95,158.89l-6.39-6.83l7.84,5.11c0.52,0.34,0.67,1.05,0.33,1.57c-0.34,0.52-1.05,0.67-1.57,0.33
					C212.09,159.02,212.01,158.95,211.95,158.89z"/>
			</g>
			<g>
				<path class="st14" d="M214.74,155.42l-6.96-6.25l8.25,4.4c0.55,0.3,0.76,0.98,0.47,1.53c-0.3,0.55-0.98,0.76-1.53,0.47
					C214.89,155.53,214.81,155.47,214.74,155.42z"/>
			</g>
			<g>
				<path class="st14" d="M217.22,151.71l-7.48-5.62l8.6,3.67c0.58,0.25,0.84,0.91,0.6,1.49c-0.25,0.58-0.91,0.84-1.49,0.6
					C217.37,151.81,217.29,151.76,217.22,151.71z"/>
			</g>
			<g>
				<path class="st14" d="M218.35,100.65l-8.6,3.67l7.48-5.62c0.5-0.38,1.21-0.28,1.59,0.23c0.38,0.5,0.28,1.21-0.23,1.59
					C218.51,100.57,218.43,100.62,218.35,100.65z"/>
			</g>
			<g>
				<path class="st14" d="M216.03,96.84l-8.25,4.4l6.96-6.25c0.47-0.42,1.18-0.38,1.6,0.09c0.42,0.47,0.38,1.18-0.09,1.6
					C216.19,96.74,216.11,96.8,216.03,96.84z"/>
			</g>
			<g>
				<path class="st14" d="M213.4,93.25l-7.84,5.11l6.39-6.83c0.43-0.46,1.15-0.48,1.6-0.05c0.46,0.43,0.48,1.15,0.05,1.6
					C213.55,93.14,213.47,93.2,213.4,93.25z"/>
			</g>
			<g>
				<path class="st14" d="M210.46,89.9l-7.36,5.77l5.77-7.36c0.39-0.49,1.1-0.58,1.59-0.19c0.49,0.39,0.58,1.1,0.19,1.59
					C210.6,89.77,210.53,89.84,210.46,89.9z"/>
			</g>
			<g>
				<path class="st14" d="M207.25,86.81l-6.83,6.39l5.11-7.84c0.34-0.52,1.05-0.67,1.57-0.33s0.67,1.05,0.33,1.57
					C207.37,86.68,207.31,86.75,207.25,86.81z"/>
			</g>
			<g>
				<path class="st14" d="M203.77,84.02l-6.25,6.96l4.4-8.25c0.3-0.55,0.98-0.76,1.53-0.47c0.55,0.3,0.76,0.98,0.47,1.53
					C203.88,83.88,203.83,83.96,203.77,84.02z"/>
			</g>
			<g>
				<path class="st14" d="M200.07,81.55l-5.62,7.48l3.67-8.6c0.25-0.58,0.91-0.84,1.49-0.6c0.58,0.25,0.84,0.91,0.6,1.49
					C200.17,81.4,200.12,81.48,200.07,81.55z"/>
			</g>
			<g>
				<path class="st14" d="M196.16,79.4l-4.94,7.94l2.9-8.89c0.19-0.6,0.83-0.92,1.43-0.73c0.6,0.19,0.92,0.83,0.73,1.43
					C196.25,79.24,196.21,79.33,196.16,79.4z"/>
			</g>
			<g>
				<path class="st14" d="M192.08,77.61l-4.23,8.34l2.12-9.11c0.14-0.61,0.75-0.99,1.36-0.85c0.61,0.14,0.99,0.75,0.85,1.36
					C192.16,77.44,192.12,77.53,192.08,77.61z"/>
			</g>
			<g>
				<path class="st14" d="M187.86,76.18l-3.49,8.68l1.31-9.26c0.09-0.62,0.66-1.05,1.28-0.96c0.62,0.09,1.05,0.66,0.96,1.28
					C187.92,76,187.9,76.09,187.86,76.18z"/>
			</g>
			<g>
				<path class="st14" d="M183.54,75.12l-2.72,8.95l0.5-9.34c0.03-0.63,0.57-1.11,1.19-1.07c0.63,0.03,1.11,0.57,1.07,1.19
					C183.58,74.94,183.56,75.03,183.54,75.12z"/>
			</g>
			<g>
				<path class="st14" d="M179.13,74.44l-1.93,9.15l-0.31-9.35c-0.02-0.63,0.47-1.15,1.1-1.17c0.63-0.02,1.15,0.47,1.17,1.1
					C179.16,74.26,179.15,74.35,179.13,74.44z"/>
			</g>
		</g>
		<g>
			<rect x="43.95" y="145.55" class="st14" width="76.16" height="1.08"/>
		</g>
		<g>
			<rect x="227.02" y="145.55" class="st14" width="76.16" height="1.08"/>
		</g>
	</g>
	<g>
		<g>
			<path class="st14" d="M226.47,160.73c1.31,1.31,3.43,1.31,4.73,0s1.31-3.43,0-4.73s-8.1-3.36-8.1-3.36
				S225.16,159.42,226.47,160.73z"/>
			<path class="st14" d="M222.35,164.64c1.16,0,2.1-0.94,2.1-2.1c0-1.16-2.1-5.09-2.1-5.09s-2.1,3.93-2.1,5.09
				C220.25,163.7,221.19,164.64,222.35,164.64z"/>
			<path class="st14" d="M227.92,151.88c0,0,3.93,2.1,5.09,2.1c1.16,0,2.1-0.94,2.1-2.1s-0.94-2.1-2.1-2.1
				C231.85,149.78,227.92,151.88,227.92,151.88z"/>
		</g>
		<g>
			<path class="st14" d="M116.19,156c-1.31,1.31-1.31,3.43,0,4.73c1.31,1.31,3.43,1.31,4.73,0c1.31-1.31,3.36-8.1,3.36-8.1
				S117.49,154.69,116.19,156z"/>
			<path class="st14" d="M112.28,151.88c0,1.16,0.94,2.1,2.1,2.1c1.16,0,5.09-2.1,5.09-2.1s-3.93-2.1-5.09-2.1
				C113.22,149.78,112.28,150.72,112.28,151.88z"/>
			<path class="st14" d="M125.03,157.45c0,0-2.1,3.93-2.1,5.09c0,1.16,0.94,2.1,2.1,2.1c1.16,0,2.1-0.94,2.1-2.1
				C127.13,161.38,125.03,157.45,125.03,157.45z"/>
		</g>
	</g>
</g>
</svg>
