<?xml version="1.0" encoding="utf-8"?>
<!-- Generator: Adobe Illustrator 27.8.1, SVG Export Plug-In . SVG Version: 6.00 Build 0)  -->
<svg version="1.1" id="Layer_1" xmlns="http://www.w3.org/2000/svg" xmlns:xlink="http://www.w3.org/1999/xlink" x="0px" y="0px"
	 viewBox="0 0 348 228" style="enable-background:new 0 0 348 228;" xml:space="preserve">
<style type="text/css">
	.st0{fill:#D6EADE;}
	.st1{fill:#03487C;}
	.st2{fill:#1B1B4C;}
	.st3{fill-rule:evenodd;clip-rule:evenodd;fill:#204F7A;}
	.st4{fill-rule:evenodd;clip-rule:evenodd;fill:#50A4FF;}
	.st5{fill:#002649;}
	.st6{fill:#E6E7E8;stroke:#CFCFCF;stroke-width:0.1061;}
	.st7{fill:#333333;}
	.st8{fill:#0F5998;}
	.st9{fill:#277FC1;}
	.st10{fill-rule:evenodd;clip-rule:evenodd;fill:#277FC1;}
	.st11{fill-rule:evenodd;clip-rule:evenodd;fill:#083D6D;}
	.st12{fill:#DDB462;}
	
		.st13{clip-path:url(#SVGID_00000163774761506066175650000008568209434744525462_);fill:url(#SVGID_00000060710603896039389410000015046369672837592995_);}
	.st14{fill:#FFFFFF;}
	.st15{fill:url(#SVGID_00000151511013658415830210000001640512583476125859_);}
	.st16{fill:#224685;}
	.st17{fill:none;}
	.st18{fill:#FFC73B;}
	.st19{fill:#11233F;}
	.st20{fill:#5267FF;}
	.st21{fill-rule:evenodd;clip-rule:evenodd;fill:#72342E;}
	.st22{fill:#72342E;}
	.st23{fill:#FFF2E2;}
	.st24{fill:#FFF2E2;stroke:#72342E;stroke-width:0.75;stroke-miterlimit:10;}
	.st25{fill:#FFCC99;}
	.st26{fill:#469CB2;}
	.st27{fill:url(#XMLID_00000036220163363818948250000014114168071852156605_);}
	.st28{fill:url(#XMLID_00000059988340052706067640000013061260740072905344_);}
	.st29{fill:url(#XMLID_00000158001118447673780580000018328752194750682515_);}
	.st30{fill:url(#XMLID_00000168078288226934825580000014980424110900605338_);}
	.st31{fill:url(#XMLID_00000078003992678588621870000009378107041064166045_);}
	.st32{fill:url(#XMLID_00000131335945854400033250000017353163578346235563_);}
	.st33{fill:url(#XMLID_00000048487355270336479130000005850445761788988577_);}
	.st34{fill:url(#XMLID_00000029751479673197693560000010278463710931920007_);}
	.st35{fill:url(#XMLID_00000005955057939272219410000002805662203120877959_);}
	.st36{fill:url(#XMLID_00000104685314821323605220000001389103610398765192_);}
	.st37{fill:url(#XMLID_00000122708341954641106330000010914759154368611218_);}
	.st38{fill:url(#XMLID_00000012473452350604003630000003959490837878050202_);}
	.st39{fill:url(#XMLID_00000181783713649908728120000016850830937825442962_);}
	.st40{fill:url(#XMLID_00000094612607501032017340000003570354907254405299_);}
	.st41{fill:url(#XMLID_00000161615018108530128110000003576834547506697865_);}
	.st42{fill:url(#SVGID_00000121241271341005635560000011972846241578935440_);}
	.st43{fill:url(#SVGID_00000070115929637660329020000017728805469765737884_);}
	.st44{fill:url(#SVGID_00000145034483938612812890000016928452086522216358_);}
	.st45{fill:url(#SVGID_00000114771134352568661640000003353375542576857736_);}
	.st46{fill:url(#SVGID_00000127039894197326082670000012801168209409784499_);}
	.st47{fill:url(#SVGID_00000042000108023751099440000007237706672894119857_);}
	.st48{fill:url(#SVGID_00000093135988564185980400000000056189133154377636_);}
	.st49{fill:url(#SVGID_00000039107645860366335020000010229201616503891622_);}
	.st50{fill:url(#SVGID_00000169546427413888037890000004190036649527874739_);}
	.st51{fill:url(#SVGID_00000037662863593614514870000002627527920928731036_);}
	.st52{fill:url(#SVGID_00000009558061763180841150000005367951519989183665_);}
	.st53{fill:url(#SVGID_00000163764331022810276500000013073110571630298283_);}
	.st54{fill:url(#SVGID_00000118393176765598351570000006441350948602731658_);}
	.st55{fill:url(#SVGID_00000034058124664214057630000003265008752423699848_);}
	.st56{fill:#30325E;}
	.st57{fill:#FF7859;}
	.st58{fill:#FFD550;}
	.st59{fill:#00C3AD;}
	.st60{fill:#FF4653;}
	.st61{fill:#D8CE19;}
	.st62{fill:#FFE4D2;}
	.st63{fill:#A2E0EB;}
	.st64{fill:#1B3493;}
	.st65{fill:none;stroke:#FFFFFF;stroke-width:2;stroke-linecap:round;stroke-linejoin:round;stroke-miterlimit:10;}
	.st66{fill:#F15A24;}
	.st67{fill:#F7931E;}
	.st68{fill:#58595B;}
	.st69{fill:#114E15;}
	.st70{fill:#013D01;}
	.st71{fill:#E9C608;}
	.st72{fill:#043B00;}
	.st73{fill:#D8A43E;}
	.st74{clip-path:url(#SVGID_00000171699190940239858120000014078372967920384932_);}
	.st75{fill:#F49630;}
	.st76{clip-path:url(#SVGID_00000179634628908472144420000010992302131520951437_);}
	.st77{clip-path:url(#SVGID_00000096742949558511749870000006731827052787967394_);}
	.st78{clip-path:url(#SVGID_00000123408851546413650730000015156518902015555713_);}
	.st79{clip-path:url(#SVGID_00000145755650437353181410000013859849010371639713_);}
	.st80{fill-rule:evenodd;clip-rule:evenodd;fill:#FF6600;}
	.st81{fill-rule:evenodd;clip-rule:evenodd;fill:#05174F;}
	.st82{fill:#05174F;}
	.st83{opacity:0.42;fill:url(#SVGID_00000070076845317119696350000009469332672573334161_);enable-background:new    ;}
	.st84{opacity:0.42;fill:url(#SVGID_00000047739906458073708070000015346810130299823500_);enable-background:new    ;}
	.st85{fill:url(#SVGID_00000128444135211778160920000013112672109345158808_);}
	.st86{fill:url(#SVGID_00000065778933206663223480000012331996015139197618_);}
	.st87{opacity:0.64;fill:url(#SVGID_00000083066229663455177140000006313780345468973732_);enable-background:new    ;}
	.st88{opacity:0.75;fill:url(#SVGID_00000075873315584148163190000000556880234597475003_);enable-background:new    ;}
	.st89{fill:url(#SVGID_00000029736410246089464980000008140884302670772891_);}
	.st90{fill:url(#SVGID_00000127004019136036056290000009227859693617868966_);}
	.st91{opacity:0.76;fill:url(#SVGID_00000070078741207888385050000005862338731151520957_);enable-background:new    ;}
	.st92{opacity:0.75;fill:url(#SVGID_00000026858800383190919810000017487069079127232425_);enable-background:new    ;}
	.st93{fill:url(#SVGID_00000161597044678166844110000007612039626100039059_);}
	.st94{opacity:0.42;fill:url(#SVGID_00000175314594958362434110000015327496158473014948_);enable-background:new    ;}
	.st95{opacity:0.42;fill:url(#SVGID_00000172431392233481394230000008887285805386990260_);enable-background:new    ;}
	.st96{clip-path:url(#SVGID_00000166648655056850229790000014810242581548451220_);}
	.st97{fill:#1ED7FE;}
	.st98{clip-path:url(#SVGID_00000050636318557283428140000008008822979230397827_);}
	.st99{clip-path:url(#SVGID_00000044152967614279169800000016816074825762368653_);}
	.st100{fill:#000056;}
	.st101{clip-path:url(#SVGID_00000067222639861779088280000002019491219454989246_);}
	.st102{fill:#053272;}
	.st103{fill:none;stroke:#053272;stroke-width:4;stroke-miterlimit:10;}
	.st104{fill:url(#SVGID_00000169523596929562284850000015102660079644814522_);}
	.st105{fill:url(#SVGID_00000031206338726683565140000016094313099119240856_);}
	.st106{fill:url(#SVGID_00000079478768863040292300000014669296815528593840_);}
	.st107{fill:url(#SVGID_00000023259656439247435900000013305277944318657684_);}
	.st108{fill:url(#SVGID_00000168804015291990544760000010095502237148814015_);}
	.st109{fill:url(#SVGID_00000046331762251780064370000001739823340083775368_);}
	.st110{fill:url(#SVGID_00000128450106424329070790000009937658920949216911_);}
	.st111{fill:url(#SVGID_00000148641912052218405450000018412676823784444851_);}
	.st112{fill:url(#SVGID_00000111172111878401052810000004913519161964889247_);}
	.st113{fill:url(#SVGID_00000031918994498240637040000001549970319721543812_);}
	.st114{fill:url(#SVGID_00000111173169340020843540000008979282924884583041_);}
	.st115{fill:url(#SVGID_00000092430632373596434750000002686793924648215185_);}
	.st116{fill:url(#SVGID_00000173843125731512601280000008982772902460791482_);}
	.st117{fill:url(#SVGID_00000063592833818285445310000012135572070069579908_);}
	.st118{fill:url(#SVGID_00000069393863510852132680000015863771369518479264_);}
	.st119{fill:url(#SVGID_00000168825821146146677400000000621613329720860065_);}
	.st120{fill:url(#SVGID_00000005247527599027084320000000265195024696611495_);}
	.st121{fill:url(#SVGID_00000093167956072041967150000001503865922418607782_);}
	.st122{fill:url(#SVGID_00000098200462980486703590000009900700696246396295_);}
	.st123{fill:url(#SVGID_00000065794184923661611020000002514771482384591034_);}
	.st124{fill:url(#SVGID_00000135658136546111836840000002903022685965076875_);}
	.st125{fill:url(#SVGID_00000041280628103217874050000015784975863359103111_);}
	.st126{fill:url(#SVGID_00000032630262245503938330000004203317198880327099_);}
	.st127{fill:url(#SVGID_00000114075572261136556280000002097405625314626992_);}
	.st128{fill:url(#SVGID_00000085245066651753481070000016101293341820795785_);}
	.st129{fill:url(#SVGID_00000043441395454179692820000011076118356896002734_);}
	.st130{fill:url(#SVGID_00000150821345417053977940000010396771513586044594_);}
	.st131{fill:url(#SVGID_00000152959448414161726130000017483706820054083723_);}
	.st132{fill:url(#SVGID_00000088821564242829248060000012833592748770935430_);}
	.st133{fill:none;stroke:#FEF73D;stroke-linecap:round;stroke-miterlimit:10;}
	.st134{fill:none;stroke:#FF189C;stroke-miterlimit:10;}
	.st135{fill:none;stroke:#00EFF1;stroke-linecap:round;stroke-miterlimit:10;}
	.st136{fill:#00EFF1;}
	.st137{fill:#FFA022;}
	.st138{fill:#0C103A;}
	.st139{fill-rule:evenodd;clip-rule:evenodd;fill:#5D9541;}
	.st140{fill-rule:evenodd;clip-rule:evenodd;fill:#F06021;}
	.st141{fill-rule:evenodd;clip-rule:evenodd;fill:#69BC60;}
	.st142{fill-rule:evenodd;clip-rule:evenodd;fill:#F6951C;}
	.st143{fill:#F6951C;}
	.st144{fill:url(#SVGID_00000096776584783461611440000013595527593824194233_);}
	.st145{fill:url(#SVGID_00000068638809780416181470000017450871877069267347_);}
	.st146{fill:url(#SVGID_00000116935481250765477630000012075757121574032571_);}
	.st147{opacity:0.93;fill:url(#SVGID_00000168816923023286358160000016836776180963112324_);}
	.st148{opacity:0.93;fill:url(#SVGID_00000011022778013852437810000014384186190845456011_);}
	.st149{opacity:0.93;fill:url(#SVGID_00000091717339647261865190000007988109690577960331_);}
	.st150{opacity:0.93;fill:url(#SVGID_00000059295386833431827800000015146962744467175823_);}
	.st151{fill:url(#SVGID_00000163057657106184892280000011507017980078870707_);}
	.st152{fill:url(#SVGID_00000057139985807492369530000000994028919083194278_);}
	.st153{fill:url(#SVGID_00000176012160951536832940000007904443643944582069_);}
	.st154{fill:url(#SVGID_00000074413916956727807400000017654103919395681167_);}
	.st155{fill:url(#SVGID_00000037693785881790641710000007346936968917200316_);}
	.st156{fill:url(#SVGID_00000134224232766512247760000016286597478149755785_);}
	.st157{fill:url(#SVGID_00000152257191254511236760000017390072812955408558_);}
	.st158{fill:url(#SVGID_00000065767666959318054400000018020038199166572961_);}
	.st159{fill:url(#SVGID_00000134212352493090791490000000492382357641789348_);}
	.st160{fill:url(#SVGID_00000170996607073312891980000001833260272450307480_);}
	.st161{fill:url(#SVGID_00000039851059314456555380000016859516078507087775_);}
	.st162{fill:url(#SVGID_00000044151024353156936390000009092050074265288621_);}
	.st163{fill:url(#SVGID_00000113312155295299305350000000752421877467081640_);}
	.st164{fill:url(#SVGID_00000087395898892254471060000013555646280322549160_);}
	.st165{fill:url(#SVGID_00000089569651472746128700000006719592788632268182_);}
	.st166{fill:url(#SVGID_00000159471725601749778190000000403644897772063404_);}
	.st167{fill:url(#SVGID_00000048497623981072379210000014194414272350346405_);}
	.st168{fill:url(#SVGID_00000038388473356791830270000017909926588223667608_);}
	.st169{fill:url(#SVGID_00000106121847383474928870000010525971410175187617_);}
	.st170{fill:url(#SVGID_00000119826699285253428190000005515826572153196708_);}
	.st171{fill:url(#SVGID_00000064319566877622348940000009396198328219521723_);}
	.st172{fill:url(#SVGID_00000100355315631598211720000008516308753642665387_);}
	.st173{fill:url(#SVGID_00000040551651036595264860000011991036129266756242_);}
	.st174{fill:url(#SVGID_00000132058760199189285580000018074321983808249022_);}
	.st175{fill:url(#SVGID_00000100380479539653496150000012510677188696432814_);}
	.st176{fill:url(#SVGID_00000131326896265755988130000005401702726851788175_);}
	.st177{fill:url(#SVGID_00000113312950186784706840000011726768560088888246_);}
	.st178{fill:url(#SVGID_00000008828334114389722770000004649121593585540484_);}
	.st179{fill:url(#SVGID_00000067235772579139028950000009098459815479337628_);}
	.st180{fill:url(#SVGID_00000116949562084771845870000005861541564845459596_);}
	.st181{fill:url(#SVGID_00000002342211143768558390000000406314598741152156_);}
	.st182{fill:url(#SVGID_00000129177781378388769000000007869619545348112532_);}
	.st183{fill:url(#SVGID_00000011026299543749917740000007627977057763113604_);}
	.st184{fill:url(#SVGID_00000029034452737885837650000008233078532071664318_);}
	.st185{fill:url(#SVGID_00000021098669900446720250000008941092468449328818_);}
	.st186{fill:url(#SVGID_00000174569350850723293720000009586813304801662903_);}
	.st187{fill:url(#SVGID_00000095303686601570687130000005919375943462276791_);}
	.st188{fill:url(#SVGID_00000164509192709197621670000016745048079848559279_);}
	.st189{fill:url(#SVGID_00000056390121061784077180000000203869259919871389_);}
	.st190{fill:url(#SVGID_00000169547619251256759830000009746961818026295975_);}
	.st191{fill:url(#SVGID_00000046299018331115995770000007397142260443219092_);}
	.st192{fill:url(#SVGID_00000022544259991776369550000007456584873503387541_);}
	.st193{fill:url(#SVGID_00000016050845137699995220000007142602334627568059_);}
	.st194{fill:url(#SVGID_00000179608990572669819990000004422300572538350734_);}
	.st195{fill:url(#SVGID_00000180362745348354419720000013155461724201479599_);}
	.st196{fill-rule:evenodd;clip-rule:evenodd;fill:#512100;}
	.st197{fill-rule:evenodd;clip-rule:evenodd;fill:#006D62;}
	.st198{fill-rule:evenodd;clip-rule:evenodd;}
	.st199{fill-rule:evenodd;clip-rule:evenodd;fill:#00A1F5;}
	.st200{fill-rule:evenodd;clip-rule:evenodd;fill:#FACFAB;}
	.st201{fill-rule:evenodd;clip-rule:evenodd;fill:#F29673;}
	.st202{fill-rule:evenodd;clip-rule:evenodd;fill:#FFFFFF;}
	.st203{fill-rule:evenodd;clip-rule:evenodd;fill:#333333;}
	.st204{fill-rule:evenodd;clip-rule:evenodd;fill:#BD4D00;}
	.st205{fill-rule:evenodd;clip-rule:evenodd;fill:#B2B2B2;}
	.st206{fill-rule:evenodd;clip-rule:evenodd;fill:#F2CC29;}
	.st207{fill-rule:evenodd;clip-rule:evenodd;fill:#005C9C;}
	.st208{fill-rule:evenodd;clip-rule:evenodd;fill:#8AC900;}
	.st209{fill-rule:evenodd;clip-rule:evenodd;fill:#808080;}
	.st210{fill-rule:evenodd;clip-rule:evenodd;fill:#CFA605;}
	.st211{fill-rule:evenodd;clip-rule:evenodd;fill:#666666;}
	.st212{fill-rule:evenodd;clip-rule:evenodd;fill:#CCCCCC;}
	.st213{fill:#960000;}
	.st214{fill:url(#SVGID_00000004511986443166354230000004378550744714615948_);}
	.st215{fill:url(#SVGID_00000116953180894292105900000011172025902671127699_);}
	.st216{opacity:0.51;fill:url(#SVGID_00000003068961969849549570000017969989806640981179_);}
	.st217{fill:url(#SVGID_00000044894610461027787930000007851773299865504398_);}
	.st218{fill:url(#SVGID_00000123408617252510407190000013506184590768739774_);}
	.st219{fill:url(#SVGID_00000067919309946182044490000004603753685990298006_);}
	.st220{opacity:0.35;fill:url(#SVGID_00000021087123738711923200000014042292970395589822_);}
	.st221{opacity:0.35;fill:url(#SVGID_00000031170388262557803520000002463664042106244487_);}
	.st222{fill:#F06021;}
	.st223{fill-rule:evenodd;clip-rule:evenodd;fill:url(#SVGID_00000072980739024788742110000013857618684416163743_);}
	.st224{fill-rule:evenodd;clip-rule:evenodd;fill:url(#SVGID_00000075163393283583109020000013221006996240166808_);}
	.st225{fill-rule:evenodd;clip-rule:evenodd;fill:url(#SVGID_00000165927769867127561160000006330460006935743405_);}
	.st226{fill-rule:evenodd;clip-rule:evenodd;fill:url(#SVGID_00000054260401574677803770000011591267980370266534_);}
	.st227{fill-rule:evenodd;clip-rule:evenodd;fill:url(#SVGID_00000150801804472198354090000011629165049661465004_);}
	.st228{fill-rule:evenodd;clip-rule:evenodd;fill:url(#SVGID_00000046324971549412274490000012990924456938655381_);}
	.st229{fill-rule:evenodd;clip-rule:evenodd;fill:url(#SVGID_00000169544743679999588900000005902088606571063713_);}
	.st230{fill-rule:evenodd;clip-rule:evenodd;fill:url(#SVGID_00000047062237320966593760000015305158921693597357_);}
	.st231{fill-rule:evenodd;clip-rule:evenodd;fill:url(#SVGID_00000104704370499271560030000011001279675011534751_);}
	.st232{fill-rule:evenodd;clip-rule:evenodd;fill:url(#SVGID_00000005244207999995439850000005600237669750388368_);}
	.st233{fill-rule:evenodd;clip-rule:evenodd;fill:url(#SVGID_00000021085492607938899090000005532641924923870901_);}
	.st234{fill-rule:evenodd;clip-rule:evenodd;fill:url(#SVGID_00000071537006299992220720000004068019129713216950_);}
	.st235{fill-rule:evenodd;clip-rule:evenodd;fill:url(#SVGID_00000132074704320561508400000006120324181454662061_);}
	.st236{opacity:0.5;fill-rule:evenodd;clip-rule:evenodd;fill:#5D0101;enable-background:new    ;}
	.st237{fill:#E11B22;}
	.st238{fill:#959595;}
	.st239{fill:#003359;}
	.st240{fill:#1779C1;}
	.st241{fill:#0EB17C;}
	.st242{fill:#2B2353;}
	.st243{fill:#BE264E;}
	.st244{fill:#EAA41C;}
	.st245{fill:#1F9EF3;}
	.st246{fill:#0267A3;}
	.st247{fill:#FFEC00;}
	.st248{fill:#00A0E0;}
	.st249{fill:#E3007E;}
	.st250{fill:none;stroke:#000000;stroke-width:2;stroke-miterlimit:10;}
</style>
<g>
	<g>
		<path class="st8" d="M91.54,173.84l-4.82-10.79l0.36-3.17l16.87-13.64l2.46,5.54l-0.48,2.36l-7.34,5.94l0.43-2.53l-3.51,2.84
			l1.41,2.77l11.62-7.05l4.55,10.56l-0.38,3.15l-16.89,13.66l-2.48-5.56l0.41-2.19l7.31-5.92l-0.29,2.34l3.51-2.84l-1.23-2.79
			L91.54,173.84z M115.76,164.41L106.71,144l18.14-14.67l2.47,5.49l-0.4,2.26L119.6,143l0.3-2.43l-3.53,2.86l1.45,3.27l7.43-5.97
			l-1.46,8.47l-0.25,0.2l-3.31,2.72l1.39,3.04l3.51-2.84l0.45-2.34l6.17-4.99l2.24,4.85l-0.56,3.17l-15.43,12.47L115.76,164.41z
			 M142.84,137.99l3.51-2.84l-0.92-2.1l7.31-5.92l2.46,5.54l-0.56,3.17l-15.43,12.48l-2.23-1.08l-8.12-18.29l0.36-3.17l16.91-13.59
			l2.44,5.51l-0.58,3.15l-7.34,5.94l0.51-3.34l-3.53,2.86L142.84,137.99z M164.01,120.87l3.51-2.84l-7.55-17.02l7.34-5.94
			l9.07,20.48l-0.56,3.17l-15.43,12.47l-2.23-1.08l-9.08-20.39l7.34-5.94L164.01,120.87z M190.84,106.57l-7.31-5.73l3.83,8.55
			l-7.29,5.9l-9.99-22.53l16.79-13.54l2.19,1.03l2.89,6.02l-1.21,8.68l7.38,5.76L190.84,106.57z M182.12,97.66l1.12-8.28l-3.51,2.84
			L182.12,97.66z M208.44,92.34l-7.39,5.98L192,77.98l-2.27-1.13l8.71-7.04L208.44,92.34z M222.8,50.11l2.32,5.36l-6.52,5.27
			l7.67,17.21l-7.32,5.92l-7.62-17.26l-5.41,4.46l-6.05-2.39L222.8,50.11z M242.4,53.27l-9.48,7.67l-2.25-1.06l-5.35-11.81
			l7.34-5.94l3.86,8.48l3.53-2.86l-3.86-8.48l7.32-5.92l9.16,20.54l-0.58,3.15l-15.42,12.48l-2.25-1.06l-1.52-3.3l0.35-2.22
			l7.36-5.91l-0.39,2.21l3.58-2.9L242.4,53.27z"/>
		<path class="st9" d="M91.54,175.84l-4.82-10.79l0.36-3.17l16.87-13.64l2.46,5.54l-0.48,2.36l-7.34,5.94l0.43-2.53l-3.51,2.84
			l1.41,2.77l11.62-7.05l4.55,10.56l-0.38,3.15l-16.89,13.66l-2.48-5.56l0.41-2.19l7.31-5.92l-0.29,2.34l3.51-2.84l-1.23-2.79
			L91.54,175.84z M115.81,166.37l-9.06-20.41l18.14-14.67l2.47,5.49l-0.4,2.26l-7.31,5.92l0.3-2.43l-3.53,2.86l1.45,3.27l7.43-5.97
			l-1.46,8.47l-0.25,0.2l-3.31,2.72l1.38,3.04l3.51-2.84l0.45-2.34l6.17-4.99l2.24,4.86l-0.56,3.17l-15.42,12.48L115.81,166.37z
			 M142.88,139.95l3.51-2.84l-0.92-2.1l7.31-5.92l2.46,5.54l-0.56,3.17l-15.42,12.47l-2.23-1.08l-8.12-18.29l0.36-3.17l16.91-13.59
			l2.44,5.51l-0.58,3.15l-7.34,5.94l0.51-3.34l-3.53,2.86L142.88,139.95z M164.06,122.83l3.51-2.84l-7.55-17.02l7.34-5.94
			l9.07,20.48l-0.56,3.17l-15.42,12.48l-2.23-1.08l-9.08-20.39l7.34-5.94L164.06,122.83z M190.89,108.53l-7.31-5.73l3.83,8.55
			l-7.29,5.9l-9.99-22.53l16.79-13.54l2.19,1.03l2.89,6.02l-1.21,8.68l7.38,5.76L190.89,108.53z M182.17,99.62l1.13-8.28l-3.51,2.84
			L182.17,99.62z M208.49,94.3l-7.39,5.98l-9.04-20.34l-2.27-1.13l8.71-7.04L208.49,94.3z M222.85,52.07l2.32,5.36l-6.52,5.27
			l7.67,17.21l-7.31,5.92l-7.62-17.25l-5.41,4.46l-6.05-2.39L222.85,52.07z M242.45,55.23l-9.48,7.67l-2.25-1.06l-5.35-11.81
			l7.34-5.94l3.86,8.48l3.53-2.86l-3.86-8.48l7.31-5.92l9.16,20.54l-0.58,3.15L236.7,71.49l-2.25-1.06l-1.52-3.3l0.35-2.22
			l7.36-5.91l-0.39,2.21l3.58-2.9L242.45,55.23z"/>
	</g>
	<g>
		<path class="st10" d="M194.39,66.53l-60.03,50.82l-9.66,8.22c-11.28-14.15-15.87-33.27-10.95-51.9
			c15.97-8.03,41.52-9.15,60.16-3.36l-16.2,9.57c-11.15-1.26-23.41-0.3-32.85,2.88c-1.01,7.75-0.01,15.47,2.68,22.51L194.39,66.53z"
			/>
		<path class="st11" d="M166.19,161.47c-5.94-2.45-11.29-5.81-15.94-9.85l-15.75,7.57l12.86-10.25l9.77-8.18
			c2.7,2.55,5.73,4.8,9.06,6.66c12.62-7.05,20.96-19.61,23.06-33.5l13.06-10.91C204.03,127.89,189.74,151.74,166.19,161.47z"/>
	</g>
</g>
</svg>
