<?xml version="1.0" encoding="utf-8"?>
<!-- Generator: Adobe Illustrator 27.8.1, SVG Export Plug-In . SVG Version: 6.00 Build 0)  -->
<svg version="1.1" id="Layer_1" xmlns="http://www.w3.org/2000/svg" xmlns:xlink="http://www.w3.org/1999/xlink" x="0px" y="0px"
	 viewBox="0 0 348 228" style="enable-background:new 0 0 348 228;" xml:space="preserve">
<style type="text/css">
	.st0{fill:#D6EADE;}
	.st1{fill:#03487C;}
	.st2{fill:#1B1B4C;}
	.st3{fill:none;}
	.st4{fill-rule:evenodd;clip-rule:evenodd;fill:#204F7A;}
	.st5{fill-rule:evenodd;clip-rule:evenodd;fill:#50A4FF;}
	.st6{fill:#002649;}
	.st7{fill:#E6E7E8;stroke:#CFCFCF;stroke-width:0.1061;}
	.st8{fill:#333333;}
	.st9{fill-rule:evenodd;clip-rule:evenodd;fill:#277FC1;}
	.st10{fill-rule:evenodd;clip-rule:evenodd;fill:#083D6D;}
	.st11{fill:#DDB462;}
	
		.st12{clip-path:url(#SVGID_00000016052030236298370830000012476703456589345213_);fill:url(#SVGID_00000023259195481944410660000010345086517667421831_);}
	.st13{fill:#FFFFFF;}
	.st14{fill:url(#SVGID_00000110462683663738582620000015318271562825288070_);}
	.st15{fill:#224685;}
	.st16{fill:#FFC73B;}
	.st17{fill:#11233F;}
	.st18{fill:#5267FF;}
	.st19{fill-rule:evenodd;clip-rule:evenodd;fill:#72342E;}
	.st20{fill:#72342E;}
	.st21{fill:#FFF2E2;}
	.st22{fill:#FFF2E2;stroke:#72342E;stroke-width:0.75;stroke-miterlimit:10;}
	.st23{fill:#FFCC99;}
	.st24{fill:#469CB2;}
	.st25{fill:url(#XMLID_00000026843571651315359760000004943221231395134344_);}
	.st26{fill:url(#XMLID_00000156546386077723689910000015585014460535675044_);}
	.st27{fill:url(#XMLID_00000039127130148466574610000016727931133878469774_);}
	.st28{fill:url(#XMLID_00000078022248480806029780000014117055599904578475_);}
	.st29{fill:url(#XMLID_00000161591662676491299910000000573844321212213138_);}
	.st30{fill:url(#XMLID_00000000215651389159096610000011234277731358308007_);}
	.st31{fill:url(#XMLID_00000183945984821632871300000016039978078655268757_);}
	.st32{fill:url(#XMLID_00000133496717403574175530000000975551756606212024_);}
	.st33{fill:url(#XMLID_00000087397249938618007480000002616980869089195668_);}
	.st34{fill:url(#XMLID_00000060747162157557415640000009447974146437438876_);}
	.st35{fill:url(#XMLID_00000131325054338624718030000007706098054028694412_);}
	.st36{fill:url(#XMLID_00000096035266714608004660000015209462128517975976_);}
	.st37{fill:url(#XMLID_00000006706845345708431040000005704395368617318535_);}
	.st38{fill:url(#XMLID_00000050632029219711907820000011484773486773138621_);}
	.st39{fill:url(#XMLID_00000043420326214859095810000010566137800228154768_);}
	.st40{fill:url(#SVGID_00000155831948090006078080000000613664661983312035_);}
	.st41{fill:url(#SVGID_00000149347477017502025310000013515388638699533223_);}
	.st42{fill:url(#SVGID_00000144339521350186777230000011491099607090871698_);}
	.st43{fill:url(#SVGID_00000173880841092385044890000010880805366487478184_);}
	.st44{fill:url(#SVGID_00000052799265615821682600000013001871457111857043_);}
	.st45{fill:url(#SVGID_00000095325523490684780260000012950992990011287486_);}
	.st46{fill:url(#SVGID_00000101794410629774774460000012607366016915717300_);}
	.st47{fill:url(#SVGID_00000156588057127942170580000007389405198711467395_);}
	.st48{fill:url(#SVGID_00000168839269789267810120000016472308599556505772_);}
	.st49{fill:url(#SVGID_00000112632575870732334310000006199362343114393990_);}
	.st50{fill:url(#SVGID_00000161616590475562222440000000631299481970054314_);}
	.st51{fill:url(#SVGID_00000052085692511460691060000013145670940727327365_);}
	.st52{fill:url(#SVGID_00000127742080273048273150000007645190508093176242_);}
	.st53{fill:url(#SVGID_00000144333425881981518860000000285780690381167256_);}
	.st54{fill:#30325E;}
	.st55{fill:#FF7859;}
	.st56{fill:#FFD550;}
	.st57{fill:#00C3AD;}
	.st58{fill:#FF4653;}
	.st59{fill:#D8CE19;}
	.st60{fill:#FFE4D2;}
	.st61{fill:#A2E0EB;}
	.st62{fill:#1B3493;}
	.st63{fill:none;stroke:#FFFFFF;stroke-width:2;stroke-linecap:round;stroke-linejoin:round;stroke-miterlimit:10;}
	.st64{fill:#F15A24;}
	.st65{fill:#F7931E;}
	.st66{fill:#58595B;}
	.st67{fill:#114E15;}
	.st68{fill:#013D01;}
	.st69{fill:#E9C608;}
	.st70{fill:#043B00;}
	.st71{fill:#D8A43E;}
	.st72{clip-path:url(#SVGID_00000033361811499662705440000006478479316232071854_);}
	.st73{fill:#F49630;}
	.st74{clip-path:url(#SVGID_00000135678031423119710890000009050168146603656123_);}
	.st75{clip-path:url(#SVGID_00000069371803708365867270000002439546911258463150_);}
	.st76{clip-path:url(#SVGID_00000018918098519433815410000010957215446473525166_);}
	.st77{clip-path:url(#SVGID_00000163762440749833080640000004728220032638609033_);}
	.st78{fill-rule:evenodd;clip-rule:evenodd;fill:#FF6600;}
	.st79{fill-rule:evenodd;clip-rule:evenodd;fill:#05174F;}
	.st80{fill:#05174F;}
	.st81{opacity:0.42;fill:url(#SVGID_00000047761732958378544070000005788145308331962509_);enable-background:new    ;}
	.st82{opacity:0.42;fill:url(#SVGID_00000062898435184704978440000015066534194341904293_);enable-background:new    ;}
	.st83{fill:url(#SVGID_00000023986252501683696330000005122221044676054417_);}
	.st84{fill:url(#SVGID_00000160910045871936288110000009867088800567415478_);}
	.st85{opacity:0.64;fill:url(#SVGID_00000105392881365130178010000013922542709594316956_);enable-background:new    ;}
	.st86{opacity:0.75;fill:url(#SVGID_00000036250836544289962990000001043012981051747007_);enable-background:new    ;}
	.st87{fill:url(#SVGID_00000002358015689272248170000004748841063254021533_);}
	.st88{fill:url(#SVGID_00000165216564718078647200000011642151249809925054_);}
	.st89{opacity:0.76;fill:url(#SVGID_00000026883879316557748070000002839116355575914669_);enable-background:new    ;}
	.st90{opacity:0.75;fill:url(#SVGID_00000015326901964769927640000005580339121511738276_);enable-background:new    ;}
	.st91{fill:url(#SVGID_00000051353205236544389290000007302026116771483049_);}
	.st92{opacity:0.42;fill:url(#SVGID_00000078043975967872243890000007079766471900247484_);enable-background:new    ;}
	.st93{opacity:0.42;fill:url(#SVGID_00000050657104341792234010000012498171630669055413_);enable-background:new    ;}
	.st94{clip-path:url(#SVGID_00000030485879756571108430000017071873354863998900_);}
	.st95{fill:#1ED7FE;}
	.st96{clip-path:url(#SVGID_00000118355972713218144610000007897703876669213620_);}
	.st97{clip-path:url(#SVGID_00000083080078296106162410000001825513224014478227_);}
	.st98{fill:#000056;}
	.st99{clip-path:url(#SVGID_00000047031160362742672370000003812884028646635708_);}
	.st100{fill:#053272;}
	.st101{fill:none;stroke:#053272;stroke-width:4;stroke-miterlimit:10;}
	.st102{fill:url(#SVGID_00000170274646284519724320000017718212586318974344_);}
	.st103{fill:url(#SVGID_00000170259471735554303500000006065211960990853004_);}
	.st104{fill:url(#SVGID_00000165940504161193481640000009832463158337081785_);}
	.st105{fill:url(#SVGID_00000135659749573495110030000011172143373467737532_);}
	.st106{fill:url(#SVGID_00000024682450474057814180000018074620183699027639_);}
	.st107{fill:url(#SVGID_00000123417703890749221190000002674660092970519742_);}
	.st108{fill:url(#SVGID_00000044162148359605856800000003184413572157867953_);}
	.st109{fill:url(#SVGID_00000142877970297306221150000005926788661018006706_);}
	.st110{fill:url(#SVGID_00000116194499387268108720000009896194959968821659_);}
	.st111{fill:url(#SVGID_00000121988495297451186930000001149195396030003339_);}
	.st112{fill:url(#SVGID_00000049207357850201186150000010155375350797524123_);}
	.st113{fill:url(#SVGID_00000150795356467099202580000012890593160462091397_);}
	.st114{fill:url(#SVGID_00000178192430066210311960000006392719101216178563_);}
	.st115{fill:url(#SVGID_00000090253511703653547860000006541436179142462397_);}
	.st116{fill:url(#SVGID_00000035491124218480746440000006606792721076260260_);}
	.st117{fill:url(#SVGID_00000147215208815606521330000004887664689193366195_);}
	.st118{fill:url(#SVGID_00000117670360497281177380000007388002006178403750_);}
	.st119{fill:url(#SVGID_00000016763682369074339930000011576221608690856606_);}
	.st120{fill:url(#SVGID_00000181800720897868334510000004026408122331491773_);}
	.st121{fill:url(#SVGID_00000124840817801938199430000016934323704008256957_);}
	.st122{fill:url(#SVGID_00000155824818846089831270000006972388315802968461_);}
	.st123{fill:url(#SVGID_00000091696496440245997650000012836208756852332929_);}
	.st124{fill:url(#SVGID_00000034076008250862902640000013896046437474507963_);}
	.st125{fill:url(#SVGID_00000147216772216811056110000014401001297228556470_);}
	.st126{fill:url(#SVGID_00000026144506360200757530000012673056705164867716_);}
	.st127{fill:url(#SVGID_00000021833494994326530170000013947203450333948047_);}
	.st128{fill:url(#SVGID_00000145033877375052821060000017512556693003566741_);}
	.st129{fill:url(#SVGID_00000158733717323482623380000010213930335639319983_);}
	.st130{fill:url(#SVGID_00000037650447893801873450000007326670609553203390_);}
	.st131{fill:none;stroke:#FEF73D;stroke-linecap:round;stroke-miterlimit:10;}
	.st132{fill:none;stroke:#FF189C;stroke-miterlimit:10;}
	.st133{fill:none;stroke:#00EFF1;stroke-linecap:round;stroke-miterlimit:10;}
	.st134{fill:#00EFF1;}
	.st135{fill:#FFA022;}
	.st136{fill:#0C103A;}
	.st137{fill-rule:evenodd;clip-rule:evenodd;fill:#5D9541;}
	.st138{fill-rule:evenodd;clip-rule:evenodd;fill:#F06021;}
	.st139{fill-rule:evenodd;clip-rule:evenodd;fill:#69BC60;}
	.st140{fill-rule:evenodd;clip-rule:evenodd;fill:#F6951C;}
	.st141{fill:#F6951C;}
	.st142{fill:url(#SVGID_00000010289145580178401200000014122299539490547349_);}
	.st143{fill:url(#SVGID_00000090290497732348521850000008567234644184448916_);}
	.st144{fill:url(#SVGID_00000064314783619337849840000002956302394523716271_);}
	.st145{opacity:0.93;fill:url(#SVGID_00000050657017533192877210000000373382608827977398_);}
	.st146{opacity:0.93;fill:url(#SVGID_00000075846597939822258430000007024341648751373992_);}
	.st147{opacity:0.93;fill:url(#SVGID_00000121981225392462222120000001199619130921832582_);}
	.st148{opacity:0.93;fill:url(#SVGID_00000085251745339981194680000016981220984320634257_);}
	.st149{fill:url(#SVGID_00000103247489589097992100000004951836889003835785_);}
	.st150{fill:url(#SVGID_00000091703610541169086370000014197034906835413938_);}
	.st151{fill:url(#SVGID_00000093173380569584788780000007220810970469199238_);}
	.st152{fill:url(#SVGID_00000178175485050277507810000017958822122912277902_);}
	.st153{fill:url(#SVGID_00000026850097873811995360000000900457053206496386_);}
	.st154{fill:url(#SVGID_00000040552104573671489030000008313072706284986039_);}
	.st155{fill:url(#SVGID_00000088812084986635750180000006091956274801354161_);}
	.st156{fill:url(#SVGID_00000031909565790745369190000001104521696740642968_);}
	.st157{fill:url(#SVGID_00000149355120562415928460000014752011332620961978_);}
	.st158{fill:url(#SVGID_00000011722876737890718790000012024484725612774792_);}
	.st159{fill:url(#SVGID_00000091699395710174030740000011964719872333084334_);}
	.st160{fill:url(#SVGID_00000080921424190420558940000013587332542691704975_);}
	.st161{fill:url(#SVGID_00000161606546212134993760000006268071376756217023_);}
	.st162{fill:url(#SVGID_00000039817463352177140850000002859408759614126210_);}
	.st163{fill:url(#SVGID_00000083795291112494951990000011312190937225369227_);}
	.st164{fill:url(#SVGID_00000003824059686342523240000012050964920464703126_);}
	.st165{fill:url(#SVGID_00000172406828298178424260000003639629788104297368_);}
	.st166{fill:url(#SVGID_00000006698217507199521120000005834055075688803518_);}
	.st167{fill:url(#SVGID_00000170275005293974498640000002548048436634193073_);}
	.st168{fill:url(#SVGID_00000104704353553047780760000008784087011586547597_);}
	.st169{fill:url(#SVGID_00000023988192949006659590000016617474390311983496_);}
	.st170{fill:url(#SVGID_00000077291531886442831710000010872909134403802547_);}
	.st171{fill:url(#SVGID_00000170260218347560690360000005146376550951696262_);}
	.st172{fill:url(#SVGID_00000078765266995205873760000013676225324108098446_);}
	.st173{fill:url(#SVGID_00000136390554725724257630000016988866266659143583_);}
	.st174{fill:url(#SVGID_00000183241932273212766400000017344888829261565096_);}
	.st175{fill:url(#SVGID_00000131355861352828508340000009313617547578616193_);}
	.st176{fill:url(#SVGID_00000075879854999334332840000012070270030016607423_);}
	.st177{fill:url(#SVGID_00000010299434780848528250000005956295496118955146_);}
	.st178{fill:url(#SVGID_00000059294266968151523630000008936260899913544623_);}
	.st179{fill:url(#SVGID_00000051352755916974461110000016035478611280533685_);}
	.st180{fill:url(#SVGID_00000096049839472045159520000014848603514044381094_);}
	.st181{fill:url(#SVGID_00000174583269567103231510000009220461994071980941_);}
	.st182{fill:url(#SVGID_00000098902336002099035160000011219303928672360577_);}
	.st183{fill:url(#SVGID_00000116921826907157411380000012263550769570485427_);}
	.st184{fill:url(#SVGID_00000073720308172712811810000000614772187836305558_);}
	.st185{fill:url(#SVGID_00000045584731472928704760000012243308416750711956_);}
	.st186{fill:url(#SVGID_00000020364325112313066400000013718927491429660824_);}
	.st187{fill:url(#SVGID_00000042706027044503154620000000743585520918883764_);}
	.st188{fill:url(#SVGID_00000114776834177164462810000002338001943395348879_);}
	.st189{fill:url(#SVGID_00000054228314569687078330000018183910339020366488_);}
	.st190{fill:url(#SVGID_00000070826267539964403230000015905045550955383465_);}
	.st191{fill:url(#SVGID_00000043451951989650121940000000800486416950026662_);}
	.st192{fill:url(#SVGID_00000149346031831536470920000012243883100267051160_);}
	.st193{fill:url(#SVGID_00000158737677734195047240000009577776512860269185_);}
	.st194{fill-rule:evenodd;clip-rule:evenodd;fill:#512100;}
	.st195{fill-rule:evenodd;clip-rule:evenodd;fill:#006D62;}
	.st196{fill-rule:evenodd;clip-rule:evenodd;}
	.st197{fill-rule:evenodd;clip-rule:evenodd;fill:#00A1F5;}
	.st198{fill-rule:evenodd;clip-rule:evenodd;fill:#FACFAB;}
	.st199{fill-rule:evenodd;clip-rule:evenodd;fill:#F29673;}
	.st200{fill-rule:evenodd;clip-rule:evenodd;fill:#FFFFFF;}
	.st201{fill-rule:evenodd;clip-rule:evenodd;fill:#333333;}
	.st202{fill-rule:evenodd;clip-rule:evenodd;fill:#BD4D00;}
	.st203{fill-rule:evenodd;clip-rule:evenodd;fill:#B2B2B2;}
	.st204{fill-rule:evenodd;clip-rule:evenodd;fill:#F2CC29;}
	.st205{fill-rule:evenodd;clip-rule:evenodd;fill:#005C9C;}
	.st206{fill-rule:evenodd;clip-rule:evenodd;fill:#8AC900;}
	.st207{fill-rule:evenodd;clip-rule:evenodd;fill:#808080;}
	.st208{fill-rule:evenodd;clip-rule:evenodd;fill:#CFA605;}
	.st209{fill-rule:evenodd;clip-rule:evenodd;fill:#666666;}
	.st210{fill-rule:evenodd;clip-rule:evenodd;fill:#CCCCCC;}
	.st211{fill:#960000;}
	.st212{fill:url(#SVGID_00000060018771484872861030000001940124727670768551_);}
	.st213{fill:url(#SVGID_00000173123786401545043670000017242385998476356746_);}
	.st214{opacity:0.51;fill:url(#SVGID_00000021089818040595131070000004989834077930361532_);}
	.st215{fill:url(#SVGID_00000075863722696377946800000009172876544381083276_);}
	.st216{fill:url(#SVGID_00000152969851190785211510000010483575641477026981_);}
	.st217{fill:url(#SVGID_00000098908467169285335460000005622658992008480148_);}
	.st218{opacity:0.35;fill:url(#SVGID_00000181790734768198883010000001494400845752443776_);}
	.st219{opacity:0.35;fill:url(#SVGID_00000114754405266935192880000016344365541556771488_);}
	.st220{fill:#F06021;}
	.st221{fill-rule:evenodd;clip-rule:evenodd;fill:url(#SVGID_00000153674121585694670510000012378459201918255023_);}
	.st222{fill-rule:evenodd;clip-rule:evenodd;fill:url(#SVGID_00000035521715539280154390000000128225165415270079_);}
	.st223{fill-rule:evenodd;clip-rule:evenodd;fill:url(#SVGID_00000106850605418575890780000006409522130361653936_);}
	.st224{fill-rule:evenodd;clip-rule:evenodd;fill:url(#SVGID_00000170268348063079839680000015868973398786639506_);}
	.st225{fill-rule:evenodd;clip-rule:evenodd;fill:url(#SVGID_00000155866808962288189890000010148006126439224252_);}
	.st226{fill-rule:evenodd;clip-rule:evenodd;fill:url(#SVGID_00000107560610491889580070000007987437690547932341_);}
	.st227{fill-rule:evenodd;clip-rule:evenodd;fill:url(#SVGID_00000013889386372759254710000007301612281927642530_);}
	.st228{fill-rule:evenodd;clip-rule:evenodd;fill:url(#SVGID_00000072279664275059679690000001437491907689237898_);}
	.st229{fill-rule:evenodd;clip-rule:evenodd;fill:url(#SVGID_00000036236328861159440370000000977054629389485984_);}
	.st230{fill-rule:evenodd;clip-rule:evenodd;fill:url(#SVGID_00000005253717315342688590000003151186214695497623_);}
	.st231{fill-rule:evenodd;clip-rule:evenodd;fill:url(#SVGID_00000165220172781557068980000012368818711572357782_);}
	.st232{fill-rule:evenodd;clip-rule:evenodd;fill:url(#SVGID_00000114057239570828825410000013417363308160920497_);}
	.st233{fill-rule:evenodd;clip-rule:evenodd;fill:url(#SVGID_00000176729818840239597150000009170331604810978476_);}
	.st234{opacity:0.5;fill-rule:evenodd;clip-rule:evenodd;fill:#5D0101;enable-background:new    ;}
	.st235{fill:#E11B22;}
	.st236{fill:#959595;}
	.st237{fill:#003359;}
	.st238{fill:#1779C1;}
	.st239{fill:#0EB17C;}
	.st240{fill:#2B2353;}
	.st241{fill:#BE264E;}
	.st242{fill:#EAA41C;}
	.st243{fill:#1F9EF3;}
	.st244{fill:#0267A3;}
	.st245{fill:#FFEC00;}
	.st246{fill:#00A0E0;}
	.st247{fill:#E3007E;}
	.st248{fill:none;stroke:#000000;stroke-width:2;stroke-miterlimit:10;}
</style>
<rect class="st0" width="348" height="228"/>
<g>
	<g>
		<path class="st19" d="M112.27,168.2c-0.94-1.69-1.92-3.36-2.81-5.08c-0.59-1.14-1.08-2.34-1.58-3.53
			c-0.41-0.97-0.77-1.96-1.14-2.95c-0.44-1.2-0.53-2.4,0.05-3.59c0.2-0.41,0.53-0.66,0.96-0.65c1.13,0.01,2.13,0.21,3.03,1.1
			c1.89,1.88,3.49,3.91,4.7,6.31c1.29,2.58,2.41,5.22,3.31,7.95c0.69,2.11,0.97,4.32,0.81,6.6c1.69,0.87,3.33,1.84,5.16,2.62
			c-0.23-1.12-0.28-1.08-0.9-1.86c-1.35-1.69-2.73-3.36-3.73-5.29c-0.27-0.52-0.51-1.07-0.63-1.63c-0.26-1.32-0.51-2.64-1-3.91
			c-0.31-0.8-0.01-1.53,0.72-1.97c1-0.6,1.44-0.85,2.56-0.04c1.46,1.04,2.66,2.27,3.45,3.91c0.86,1.8,1.82,3.55,2.71,5.34
			c1.15,2.33,1.48,4.78,1.08,7.41c0.68,0.68,1.6,1,2.6,1.2c1.61,0.32,3.21,0.79,4.83,0.95c3.32,0.33,6.66,0.51,9.99,0.71
			c0.45,0.03,0.92-0.16,1.38-0.21c0.49-0.05,0.95,0.27,1.08,0.71c0.12,0.41-0.18,0.95-0.64,1.11c-0.22,0.08-0.46,0.12-0.68,0.12
			c-2.82-0.08-5.62-0.32-8.39-0.85c-2.59-0.5-5.19-0.98-7.78-1.52c-0.91-0.19-1.79-0.51-2.74-0.79c-2.43,2.17-5.46,3.36-8.26,4.93
			c-0.4,0.22-0.86,0.41-1.31,0.48c-1.63,0.21-3.26,0.43-4.89,0.51c-1.44,0.07-2.02-0.42-2.5-1.75c-0.16-0.43-0.08-0.78,0.22-1.13
			c0.7-0.8,1.42-1.54,2.43-1.97c0.86-0.37,1.68-0.84,2.5-1.29c0.78-0.42,1.58-0.77,2.47-0.89c0.35-0.04,0.69-0.14,1.01-0.27
			c0.49-0.2,0.94-0.49,1.43-0.67c0.48-0.18,1-0.26,1.71-0.44c-0.4-0.3-0.63-0.52-0.9-0.66c-0.89-0.44-1.76-1.06-2.71-1.22
			c-0.88-0.15-1.84,0.23-2.76,0.34c-1.75,0.19-3.5,0.4-5.25,0.52c-2.79,0.19-5.48-0.44-8.16-1.11c-1.25-0.31-2.44-0.85-3.7-1.13
			c-1.79-0.4-3.18-1.48-4.56-2.56c-0.44-0.34-0.73-0.9-1.01-1.4c-0.17-0.32-0.08-0.71,0.26-0.93c1.6-1.04,3.25-1.88,5.26-1.58
			c0.72,0.1,1.46,0.23,2.25-0.01c-0.29-0.14-0.57-0.32-0.88-0.43c-1.59-0.55-2.88-1.55-4.11-2.66c-0.52-0.47-1.06-0.93-1.61-1.36
			c-1.15-0.89-1.85-2.1-2.44-3.39c-0.27-0.58-0.14-1.05,0.39-1.38c0.75-0.46,1.51-1,2.42-0.31c0.09,0.07,0.21,0.15,0.31,0.15
			c1.42,0.07,2.54,0.82,3.67,1.57c0.63,0.42,1.34,0.62,2.13,0.71c-0.28-1.29-2.19-5.15-3.86-7.83c-0.33-0.05-0.72-0.15-1.12-0.16
			c-2.52-0.11-4.81-0.96-7.03-2.08c-0.86-0.43-1.56-1.01-2-1.9c-0.36-0.74-0.82-1.43-1.18-2.16c-0.28-0.58-0.14-1.04,0.39-1.37
			c0.44-0.28,0.92-0.52,1.4-0.74c0.2-0.09,0.51-0.19,0.67-0.1c0.97,0.56,2.16,0.45,3.11,1.1c0.81,0.56,1.71,1,2.54,1.48
			c0.15-0.18,0.29-0.29,0.28-0.34c-0.92-2.78-1.85-5.55-2.82-8.46c-0.24-0.02-0.58-0.11-0.9-0.08c-1.83,0.18-3.46-0.47-5.09-1.15
			c-0.38-0.16-0.71-0.43-1.1-0.55c-2.4-0.76-3.89-2.51-5.06-4.61c-0.74-1.33-1.43-2.69-2.17-4.03c-0.31-0.56-0.32-1.11-0.11-1.69
			c0.28-0.76,0.86-1.18,1.63-1c0.67,0.16,1.34,0.44,1.94,0.78c0.61,0.34,1.17,0.78,1.69,1.26c0.74,0.68,1.49,1.31,2.39,1.77
			c0.31,0.16,0.6,0.39,0.83,0.65c1.24,1.44,2.8,2.46,4.46,3.5c0.01-0.27,0.05-0.5,0.01-0.71c-0.21-1.15-0.44-2.3-0.65-3.39
			c-0.21-0.16-0.34-0.31-0.49-0.37c-1.75-0.63-2.86-1.93-3.77-3.47c-0.65-1.12-1.31-2.23-1.96-3.34c-0.17-0.3-0.34-0.62-0.47-0.94
			c-0.23-0.57,0.05-1.07,0.64-1.2c0.72-0.15,1.4-0.09,2.01,0.37c0.61,0.46,1.23,0.9,1.85,1.34c0.23,0.16,0.48,0.28,0.87,0.51
			c0.02-0.45,0.05-0.72,0.04-0.99c-0.05-1.93-0.13-3.87-0.14-5.8c-0.01-1.22-0.4-2.11-1.58-2.67c-1.52-0.73-2.68-1.87-3.41-3.42
			c-0.46-0.95-0.98-1.87-1.45-2.82c-0.76-1.56-0.31-2.91,1.21-3.67c0.31-0.15,0.65-0.23,1.05-0.37c0.58,0.36,1.2,0.68,1.76,1.1
			c0.37,0.27,0.74,0.62,0.94,1.02c0.68,1.42,1.58,2.75,1.7,4.4c0.04,0.57,0.19,1.12,0.67,1.57c0.58-0.68,0.97-1.38,1.2-2.18
			c0.22-0.79,0.51-1.56,0.74-2.35c0.38-1.3,0.85-2.56,1.61-3.7c0.13-0.19,0.19-0.41,0.35-0.76c-0.67-0.01-1.24-0.04-1.81-0.02
			c-0.73,0.02-1.38-0.16-2-0.56c-0.54-0.35-1.09-0.69-1.67-0.99c-0.61-0.31-0.98-0.81-1.31-1.37c-0.36-0.61-0.48-1.24-0.05-1.82
			c0.48-0.64,1.16-0.99,2-0.8c0.51,0.12,1.01,0.31,1.52,0.45c0.32,0.09,0.66,0.13,1.15,0.22c-0.92-2.35-1.03-4.58-0.59-6.82
			c0.11-0.12,0.18-0.23,0.27-0.29c2.02-1.35,2.28-0.98,3.15,0.83c0.43,0.9,0.9,1.78,1.33,2.68c0.56,1.15,1.24,2.27,1.16,3.63
			c0,0.08,0.15,0.16,0.28,0.3c0.51-0.15,0.81-0.59,1.11-0.99c0.63-0.81,1.42-1.38,2.34-1.81c0.96-0.45,1.88-0.97,2.83-1.41
			c0.49-0.23,0.92-0.08,1.21,0.38c0.57,0.89,0.84,1.81,0.21,2.79c-0.38,0.6-0.7,1.23-1.11,1.79c-0.27,0.37-0.62,0.73-1.02,0.94
			c-1.7,0.91-3.35,1.96-5.3,2.3c-0.57,0.1-1.14,0.23-1.78,0.35c-1.89,2.09-2.64,4.79-3.36,7.48c0.36,0.32,0.61,0.08,0.84-0.04
			c1.31-0.66,2.62-1.32,3.91-2.02c0.68-0.36,1.33-0.46,1.98,0.01c0.63,0.46,0.85,1.33,0.62,2.22c-0.17,0.65-0.64,1.04-1.08,1.52
			c-1.75,1.88-4.14,2.61-6.32,3.7c-0.16,0.08-0.33,0.12-0.5,0.17c-1.38,0.4-1.42,0.4-1.41,1.72c0.01,2.94,0.2,5.86,0.84,8.74
			c0.02,0.1,0.13,0.19,0.27,0.39c0.19-0.21,0.42-0.38,0.54-0.6c0.5-0.99,0.97-1.99,1.46-2.99c0.71-1.46,1.6-2.74,3.2-3.34
			c0.22-0.08,0.44-0.15,0.67-0.19c0.34-0.06,0.74,0.24,0.74,0.59c-0.01,1.34,0.09,2.69-0.71,3.91c-0.48,0.73-0.73,1.6-1.22,2.33
			c-1.05,1.57-1.84,2.23-4.11,3.67c-0.04,1.06,0.33,2.12,0.51,3.2c0.17,1.04,0.36,2.07,0.81,3.01c0.44,0.07,0.56-0.24,0.64-0.49
			c0.17-0.56,0.29-1.13,0.39-1.7c0.53-3.26,1.8-6.14,4-8.64c0.88-1,1.85-1.76,3.03-2.32c0.96-0.45,1.87-0.98,2.83-1.43
			c0.83-0.39,1.25-0.21,1.75,0.58c0.52,0.84,0.7,1.76,0.47,2.7c-0.25,1.02-0.55,2.03-1.13,2.94c-0.63,0.99-1.19,2.02-1.82,3.02
			c-0.28,0.44-0.59,0.88-0.96,1.25c-1.74,1.82-3.49,3.64-5.27,5.42c-0.9,0.9-1.87,1.73-2.77,2.56c0.66,3.4,2.52,8.58,3.84,10.68
			c0.4-0.37,0.24-0.88,0.36-1.29c0.13-0.45,0.19-0.91,0.27-1.37c0.06-0.35-0.01-0.77,0.17-1.02c0.64-0.91,0.7-1.97,0.92-3
			c0.06-0.28,0.2-0.55,0.31-0.82c0.32-0.75,0.71-1.48,0.96-2.25c0.59-1.77,2.05-2.49,3.63-3.03c0.24-0.09,0.68,0.14,0.92,0.35
			c0.24,0.22,0.44,0.59,0.48,0.91c0.15,1.27,0.47,2.57-0.47,3.71c-0.11,0.13-0.2,0.3-0.24,0.47c-0.57,2.31-1.93,4.26-2.87,6.41
			c-0.4,0.91-0.8,1.81-0.84,2.85c-0.01,0.38-0.24,0.77-0.41,1.13c-0.25,0.52-0.55,1.03-0.86,1.59c0.19,0.43,0.37,0.86,0.57,1.27
			c0.58,1.15,1.22,2.28,1.76,3.45c0.72,1.56,1.7,2.93,2.87,4.18c0.68,0.73,1.31,1.49,2.29,1.87c0.36,0.14,0.64,0.49,0.96,0.74
			c0.73,0.58,1.47,1.15,2.19,1.75c0.35,0.29,0.66,0.63,0.99,0.96c0.04,0.03,0.08,0.07,0.14,0.1c0.03,0.02,0.08,0,0.12,0
			C112.45,168.22,112.36,168.21,112.27,168.2z M117.56,175.02c-1-0.84-1.8-1.27-3.18-1.7c-2.52-0.78-5.01-1.68-7.57-2.31
			c-2.44-0.6-4.95-0.95-7.44-1.3c-1.11-0.16-2.2,0.13-3.14,1.01c1,0.97,2,1.83,3.32,2.25c1.51,0.48,2.99,1.08,4.53,1.42
			c2.17,0.49,4.36,0.95,6.57,1.13c1.91,0.16,3.86-0.08,5.79-0.16C116.83,175.34,117.27,175.39,117.56,175.02z M118.8,172.91
			c-0.34-2.37-0.88-4.21-1.63-6c-1.08-2.6-2.39-5.09-3.71-7.58c-1-1.91-2.45-3.42-4-4.86c-0.35-0.33-0.77-0.54-1.3-0.29
			c-0.41,0.61-0.2,1.28,0.04,1.83c0.86,1.99,1.36,4.12,2.46,6.02c0.53,0.91,0.94,1.89,1.43,2.82c0.27,0.52,0.53,1.06,0.89,1.52
			c1.49,1.89,3,3.75,4.54,5.6C117.77,172.25,118.14,172.43,118.8,172.91z M95.01,136.31c0.34-0.2,0.72-0.36,1-0.62
			c0.55-0.52,1.13-1.05,1.56-1.67c1.07-1.56,2.44-2.84,3.73-4.21c0.32-0.34,0.62-0.71,0.86-1.1c0.65-1.05,1.33-2.08,1.87-3.18
			c0.41-0.83,0.66-1.75,0.9-2.64c0.11-0.39,0.03-0.82-0.55-1.05c-1.35,0.55-2.8,1.12-3.96,2.09c-1.58,1.32-2.72,3.07-3.52,4.98
			c-0.52,1.24-0.8,2.58-1.14,3.88c-0.21,0.79-0.28,1.61-0.8,2.31C94.72,135.41,94.69,135.83,95.01,136.31z M119.98,163.53
			c0.3,1.28,0.63,2.4,0.81,3.54c0.25,1.62,1.03,2.96,2.02,4.21c0.36,0.46,0.68,0.94,1.01,1.42c0.27,0.38,0.48,0.81,0.8,1.13
			c0.67,0.68,1.19,1.44,1.51,2.33c0.32,0.89,0.86,1.59,1.98,1.9c-0.05-1.9-0.35-3.68-1.14-5.32c-1.04-2.16-2.19-4.27-3.33-6.37
			c-0.62-1.15-1.5-2.09-2.63-2.76C120.78,163.47,120.41,163.56,119.98,163.53z M94.97,160.18c0.12,0.93,0.58,1.51,1.16,2.02
			c1.06,0.93,2.08,1.9,3.2,2.75c0.74,0.56,1.59,0.99,2.42,1.41c0.84,0.42,1.77,0.68,2.57,1.15c1.53,0.91,3.22,1.41,4.87,2.01
			c0.18,0.06,0.38,0.05,0.74,0.1c-0.23-0.31-0.3-0.48-0.43-0.57c-1.09-0.81-2.06-1.73-2.87-2.83c-0.17-0.23-0.4-0.43-0.64-0.59
			c-0.87-0.59-1.78-1.13-2.64-1.74c-1-0.72-1.98-1.46-3.23-1.73c-0.28-0.06-0.58-0.18-0.8-0.35
			C98.09,160.86,96.72,160.28,94.97,160.18z M113.27,184.73c0.51,0.09,0.89,0.22,1.27,0.2c1.22-0.08,2.45-0.18,3.66-0.37
			c0.62-0.09,1.25-0.3,1.82-0.58c1.94-0.94,3.87-1.93,5.79-2.92c0.45-0.23,0.86-0.53,1.38-0.85c-0.5-0.68-0.88-1.22-1.76-0.98
			c-0.44,0.12-0.93,0.11-1.39,0.15c-0.94,0.07-1.83,0.27-2.68,0.73c-0.56,0.29-1.2,0.43-1.81,0.62c-0.44,0.14-0.92,0.21-1.33,0.41
			c-1.26,0.61-2.5,1.27-3.75,1.92C113.88,183.35,113.42,183.78,113.27,184.73z M92.23,136.99c-1.21-1.47-2.41-2.54-3.8-3.38
			c-0.76-0.46-1.44-0.97-2.08-1.58c-0.54-0.52-1.1-1.07-1.73-1.46c-0.85-0.52-1.65-1.08-2.38-1.77c-0.46-0.44-1.01-0.79-1.54-1.16
			c-0.17-0.12-0.39-0.29-0.6-0.04c-0.01,0.11-0.06,0.24-0.02,0.32c0.75,1.52,1.43,3.08,2.29,4.54c0.62,1.05,1.51,1.93,2.62,2.52
			c0.77,0.41,1.56,0.79,2.37,1.12C88.8,136.65,90.23,137.38,92.23,136.99z M104.8,138.38c-1.09,0.15-1.79,0.71-2.08,1.69
			c-0.47,1.61-1.57,3.01-1.61,4.77c0,0.16-0.08,0.35-0.17,0.49c-0.73,1.24-0.76,2.66-1.05,4.01c-0.09,0.4-0.13,0.81-0.12,1.22
			c0.01,0.5,0.29,0.84,0.92,0.98c0.13-1.39,0.54-2.64,1.05-3.88c0.87-2.1,2.03-4.08,2.57-6.31c0.07-0.27,0.25-0.52,0.39-0.78
			C105.11,139.87,105.05,139.15,104.8,138.38z M97.46,152.02c-0.28-1.04-0.28-1.05-0.54-1.3c-1.5-1.46-4.79-3.64-7.53-4.24
			c-0.22-0.05-0.5,0.12-0.85,0.22c0.23,0.54,0.44,0.96,0.57,1.4c0.3,0.97,0.94,1.6,1.85,1.98c1.3,0.54,2.59,1.09,3.9,1.58
			C95.69,151.95,96.55,152.06,97.46,152.02z M88.74,111.19c-0.34-0.8-0.74-1.42-0.86-2.09c-0.25-1.38-1.07-2.45-1.69-3.63
			c-0.34-0.66-0.98-1-1.7-1.1c-0.16-0.02-0.46,0.17-0.52,0.33c-0.09,0.25-0.13,0.6-0.03,0.83c0.64,1.31,1.28,2.63,2.03,3.88
			C86.59,110.45,87.48,110.95,88.74,111.19z M92.83,90.73c-0.13,0.02-0.25,0.03-0.38,0.05c-0.06,0.57-0.15,1.13-0.16,1.7
			c-0.05,1.76,0.71,3.28,1.52,4.78c0.3,0.56,0.79,0.83,1.37,1c0.51,0.15,0.92-0.26,0.8-0.79C95.41,94.99,94.03,92.9,92.83,90.73z
			 M103.6,94.19c-1.15,0.6-2.14,1.08-3.11,1.62c-0.29,0.16-0.56,0.43-0.75,0.71c-0.15,0.23-0.1,0.62-0.27,0.82
			c-0.21,0.26-0.59,0.37-0.86,0.59c-0.48,0.4-0.96,0.81-0.96,1.54c1.42-0.03,2.44-0.91,3.62-1.39c1.46-0.59,2.01-1.87,2.52-3.18
			C103.84,94.78,103.71,94.59,103.6,94.19z M97.97,107.83c-0.81,0.31-1.61,0.78-2.43,1.2c-2.47,1.27-2.46,1.27-4,3.48
			c-0.12,0.18-0.3,0.37-0.02,0.63c1.27-0.66,2.54-1.38,3.86-1.97c1.11-0.5,1.83-1.42,2.7-2.18
			C98.38,108.71,98.48,108.26,97.97,107.83z M88.23,97.34c0.07,1.16,0.06,1.18,0.63,1.57c0.48,0.33,0.98,0.62,1.47,0.93
			c1.21,0.76,2.82,0.76,4.39-0.08c-1.87-0.7-3.45-1.8-5.33-2.23C89.02,97.45,88.63,97.41,88.23,97.34z M92.47,127
			c1.51-0.82,2.46-2.09,3.18-3.58c0.28-0.58,0.52-1.17,0.79-1.75c0.26-0.58,0.44-1.17,0.11-1.91c-0.88,0.5-1.39,1.24-1.72,2.01
			c-0.61,1.4-1.36,2.71-2.15,4.01C92.48,126.09,92.2,126.45,92.47,127z M85.97,122.23c0.65,2.18,1.69,3.78,3.01,5.2
			c0.23,0.25,0.57,0.63,1.02,0.28c-0.01-0.13,0.03-0.27-0.02-0.36c-0.72-1.27-1.46-2.53-2.19-3.79
			C87.42,122.93,86.86,122.58,85.97,122.23z M94.1,137.17c0-0.05,0.03-0.11,0.01-0.15c-0.02-0.05-0.07-0.09-0.11-0.13
			c0,0.05-0.03,0.11-0.01,0.16C94.01,137.09,94.06,137.13,94.1,137.17z"/>
		<path class="st19" d="M227.57,168.24c0.04,0,0.09,0.01,0.12,0c0.05-0.02,0.09-0.06,0.13-0.1c0.33-0.32,0.64-0.66,0.99-0.96
			c0.72-0.6,1.46-1.17,2.19-1.75c0.32-0.25,0.6-0.6,0.96-0.74c0.98-0.38,1.6-1.14,2.29-1.87c1.17-1.26,2.15-2.62,2.87-4.18
			c0.54-1.17,1.18-2.3,1.76-3.45c0.21-0.41,0.38-0.84,0.57-1.27c-0.31-0.56-0.6-1.07-0.86-1.59c-0.18-0.36-0.4-0.75-0.41-1.13
			c-0.03-1.03-0.44-1.93-0.84-2.85c-0.94-2.15-2.29-4.1-2.87-6.41c-0.04-0.17-0.13-0.33-0.24-0.47c-0.93-1.14-0.62-2.45-0.47-3.71
			c0.04-0.32,0.24-0.69,0.48-0.91c0.23-0.21,0.67-0.44,0.92-0.35c1.58,0.54,3.04,1.26,3.63,3.03c0.26,0.77,0.64,1.5,0.96,2.25
			c0.12,0.27,0.25,0.54,0.31,0.82c0.22,1.03,0.28,2.09,0.92,3c0.18,0.25,0.11,0.68,0.17,1.02c0.08,0.46,0.14,0.93,0.27,1.37
			c0.12,0.41-0.04,0.92,0.36,1.29c1.33-2.11,3.19-7.28,3.84-10.68c-0.9-0.83-1.87-1.66-2.77-2.56c-1.78-1.78-3.53-3.6-5.27-5.42
			c-0.36-0.38-0.68-0.81-0.96-1.25c-0.62-0.99-1.18-2.03-1.82-3.02c-0.58-0.91-0.88-1.92-1.13-2.94c-0.23-0.95-0.05-1.86,0.47-2.7
			c0.49-0.8,0.91-0.97,1.75-0.58c0.96,0.45,1.87,0.98,2.83,1.43c1.18,0.56,2.15,1.32,3.03,2.32c2.2,2.5,3.48,5.39,4.01,8.64
			c0.09,0.57,0.22,1.15,0.39,1.7c0.07,0.25,0.2,0.57,0.63,0.49c0.45-0.94,0.64-1.97,0.81-3.01c0.17-1.08,0.55-2.14,0.51-3.2
			c-2.27-1.44-3.06-2.09-4.11-3.67c-0.48-0.72-0.74-1.6-1.22-2.33c-0.8-1.22-0.69-2.57-0.71-3.91c0-0.36,0.39-0.65,0.74-0.59
			c0.23,0.04,0.46,0.1,0.67,0.19c1.6,0.6,2.49,1.88,3.2,3.34c0.48,1,0.95,2,1.46,2.99c0.11,0.22,0.34,0.39,0.54,0.6
			c0.14-0.2,0.24-0.29,0.27-0.39c0.64-2.88,0.83-5.8,0.84-8.74c0.01-1.31-0.03-1.31-1.41-1.72c-0.17-0.05-0.34-0.09-0.5-0.17
			c-2.19-1.09-4.57-1.82-6.32-3.7c-0.45-0.48-0.91-0.87-1.08-1.52c-0.23-0.89-0.01-1.76,0.62-2.22c0.65-0.47,1.3-0.37,1.98-0.01
			c1.29,0.69,2.6,1.36,3.91,2.02c0.24,0.12,0.48,0.37,0.84,0.04c-0.71-2.69-1.46-5.38-3.36-7.48c-0.64-0.13-1.21-0.25-1.78-0.35
			c-1.95-0.34-3.6-1.4-5.3-2.3c-0.4-0.21-0.75-0.57-1.02-0.94c-0.42-0.56-0.74-1.19-1.12-1.79c-0.63-0.99-0.36-1.9,0.21-2.79
			c0.29-0.46,0.72-0.61,1.21-0.38c0.96,0.45,1.88,0.97,2.84,1.41c0.92,0.43,1.71,1,2.34,1.81c0.3,0.4,0.6,0.84,1.11,0.99
			c0.13-0.14,0.28-0.22,0.28-0.3c-0.08-1.36,0.6-2.48,1.16-3.63c0.44-0.9,0.91-1.78,1.33-2.68c0.86-1.81,1.13-2.19,3.15-0.83
			c0.1,0.06,0.16,0.17,0.27,0.29c0.44,2.24,0.33,4.47-0.59,6.82c0.5-0.1,0.83-0.14,1.15-0.22c0.51-0.14,1.01-0.33,1.52-0.45
			c0.84-0.2,1.52,0.15,2,0.8c0.43,0.57,0.32,1.21-0.05,1.82c-0.34,0.56-0.71,1.06-1.32,1.37c-0.57,0.29-1.12,0.63-1.66,0.99
			c-0.61,0.4-1.27,0.58-2,0.56c-0.57-0.02-1.13,0.01-1.8,0.02c0.16,0.34,0.23,0.57,0.35,0.76c0.76,1.14,1.23,2.39,1.61,3.7
			c0.23,0.79,0.52,1.56,0.74,2.35c0.22,0.8,0.62,1.5,1.2,2.18c0.48-0.45,0.63-1,0.67-1.57c0.11-1.64,1.02-2.98,1.7-4.4
			c0.19-0.4,0.57-0.75,0.94-1.02c0.56-0.41,1.18-0.74,1.76-1.1c0.4,0.14,0.74,0.21,1.05,0.37c1.52,0.76,1.97,2.11,1.21,3.67
			c-0.46,0.95-0.99,1.87-1.45,2.82c-0.74,1.55-1.9,2.69-3.41,3.42c-1.18,0.56-1.57,1.45-1.58,2.67c-0.01,1.93-0.1,3.87-0.15,5.8
			c-0.01,0.27,0.02,0.54,0.04,0.99c0.39-0.23,0.65-0.35,0.87-0.51c0.62-0.44,1.24-0.89,1.85-1.34c0.61-0.45,1.29-0.51,2.01-0.36
			c0.59,0.12,0.86,0.62,0.64,1.2c-0.13,0.32-0.3,0.64-0.47,0.94c-0.65,1.12-1.31,2.23-1.96,3.34c-0.9,1.54-2.02,2.84-3.77,3.47
			c-0.16,0.06-0.28,0.21-0.49,0.37c-0.21,1.09-0.44,2.24-0.65,3.39c-0.04,0.21,0.01,0.44,0.01,0.71c1.66-1.04,3.22-2.06,4.46-3.5
			c0.23-0.26,0.52-0.49,0.83-0.65c0.9-0.46,1.65-1.09,2.39-1.77c0.51-0.48,1.08-0.92,1.69-1.26c0.6-0.34,1.27-0.62,1.94-0.78
			c0.77-0.18,1.35,0.24,1.63,1c0.22,0.58,0.2,1.13-0.11,1.69c-0.74,1.34-1.43,2.7-2.17,4.03c-1.17,2.1-2.66,3.85-5.06,4.61
			c-0.39,0.12-0.72,0.4-1.1,0.55c-1.63,0.68-3.26,1.34-5.09,1.15c-0.33-0.03-0.66,0.05-0.9,0.08c-0.97,2.91-1.9,5.68-2.82,8.46
			c-0.02,0.06,0.12,0.16,0.27,0.34c0.84-0.48,1.73-0.92,2.54-1.48c0.95-0.65,2.14-0.54,3.11-1.1c0.16-0.09,0.47,0.01,0.67,0.1
			c0.48,0.22,0.96,0.46,1.4,0.74c0.52,0.33,0.66,0.79,0.38,1.37c-0.36,0.74-0.81,1.43-1.18,2.16c-0.44,0.89-1.15,1.46-2,1.9
			c-2.22,1.12-4.51,1.96-7.03,2.08c-0.4,0.02-0.79,0.11-1.12,0.16c-1.67,2.68-3.58,6.54-3.86,7.83c0.79-0.09,1.5-0.29,2.13-0.71
			c1.13-0.74,2.25-1.5,3.66-1.57c0.11,0,0.22-0.08,0.31-0.15c0.91-0.69,1.67-0.15,2.41,0.31c0.52,0.32,0.65,0.8,0.38,1.38
			c-0.59,1.29-1.29,2.5-2.44,3.39c-0.55,0.43-1.09,0.89-1.61,1.36c-1.23,1.1-2.52,2.1-4.11,2.66c-0.31,0.11-0.59,0.28-0.88,0.43
			c0.79,0.24,1.52,0.12,2.25,0.01c2.01-0.3,3.66,0.54,5.26,1.58c0.34,0.22,0.43,0.61,0.26,0.93c-0.27,0.5-0.57,1.06-1.01,1.4
			c-1.38,1.08-2.76,2.16-4.56,2.56c-1.26,0.28-2.45,0.82-3.7,1.13c-2.68,0.67-5.37,1.3-8.16,1.11c-1.76-0.12-3.5-0.32-5.25-0.52
			c-0.93-0.1-1.89-0.48-2.76-0.34c-0.95,0.16-1.82,0.78-2.71,1.22c-0.27,0.14-0.5,0.36-0.9,0.66c0.71,0.18,1.23,0.26,1.71,0.44
			c0.49,0.18,0.95,0.47,1.43,0.67c0.32,0.13,0.67,0.23,1.01,0.27c0.89,0.12,1.69,0.46,2.47,0.89c0.82,0.45,1.65,0.92,2.51,1.29
			c1.01,0.43,1.73,1.17,2.43,1.97c0.31,0.35,0.38,0.7,0.22,1.13c-0.49,1.32-1.07,1.82-2.5,1.75c-1.63-0.08-3.27-0.3-4.89-0.51
			c-0.45-0.06-0.91-0.25-1.31-0.48c-2.8-1.57-5.84-2.75-8.26-4.93c-0.94,0.27-1.83,0.6-2.74,0.79c-2.59,0.54-5.18,1.01-7.78,1.52
			c-2.77,0.54-5.57,0.77-8.39,0.85c-0.23,0.01-0.47-0.04-0.68-0.12c-0.47-0.17-0.77-0.7-0.65-1.11c0.13-0.45,0.59-0.77,1.08-0.71
			c0.46,0.05,0.93,0.24,1.38,0.21c3.34-0.21,6.67-0.39,9.99-0.71c1.63-0.16,3.22-0.64,4.84-0.95c0.99-0.2,1.91-0.52,2.6-1.2
			c-0.4-2.63-0.07-5.08,1.08-7.41c0.89-1.79,1.85-3.54,2.71-5.34c0.79-1.64,1.99-2.87,3.45-3.91c1.12-0.8,1.56-0.55,2.56,0.04
			c0.73,0.44,1.03,1.17,0.72,1.97c-0.49,1.27-0.73,2.59-1,3.91c-0.11,0.57-0.36,1.12-0.63,1.63c-1,1.93-2.39,3.6-3.73,5.29
			c-0.62,0.78-0.67,0.74-0.9,1.86c1.83-0.78,3.47-1.75,5.16-2.62c-0.16-2.28,0.11-4.49,0.81-6.6c0.9-2.73,2.02-5.37,3.31-7.95
			c1.21-2.4,2.8-4.43,4.7-6.31c0.9-0.88,1.9-1.09,3.03-1.1c0.44,0,0.76,0.24,0.96,0.65c0.58,1.19,0.49,2.39,0.05,3.59
			c-0.37,0.99-0.73,1.98-1.14,2.95c-0.5,1.19-0.99,2.39-1.58,3.53c-0.89,1.72-1.87,3.39-2.81,5.08
			C227.75,168.21,227.66,168.22,227.57,168.24z M223.67,175.36c1.93,0.09,3.88,0.32,5.79,0.16c2.21-0.18,4.4-0.64,6.57-1.13
			c1.54-0.35,3.02-0.94,4.53-1.42c1.32-0.42,2.32-1.28,3.32-2.25c-0.95-0.87-2.03-1.16-3.14-1.01c-2.49,0.36-5,0.71-7.44,1.3
			c-2.56,0.62-5.05,1.53-7.57,2.31c-1.38,0.43-2.18,0.86-3.18,1.7C222.85,175.39,223.28,175.34,223.67,175.36z M222.59,171.96
			c1.53-1.85,3.05-3.72,4.54-5.6c0.36-0.46,0.61-1,0.88-1.52c0.49-0.94,0.9-1.91,1.43-2.82c1.1-1.9,1.6-4.03,2.46-6.02
			c0.24-0.55,0.45-1.22,0.04-1.83c-0.53-0.25-0.95-0.04-1.3,0.29c-1.55,1.44-2.99,2.96-4,4.86c-1.31,2.49-2.62,4.98-3.71,7.58
			c-0.75,1.79-1.29,3.64-1.63,6C221.97,172.43,222.35,172.25,222.59,171.96z M245.14,135.07c-0.52-0.69-0.59-1.52-0.8-2.31
			c-0.35-1.3-0.63-2.64-1.15-3.88c-0.8-1.9-1.94-3.65-3.52-4.98c-1.15-0.97-2.61-1.54-3.96-2.09c-0.58,0.23-0.65,0.66-0.55,1.05
			c0.25,0.9,0.5,1.81,0.9,2.64c0.54,1.1,1.22,2.14,1.87,3.18c0.24,0.39,0.54,0.76,0.86,1.1c1.29,1.36,2.65,2.65,3.73,4.21
			c0.43,0.62,1,1.15,1.56,1.67c0.28,0.26,0.66,0.42,1,0.62C245.42,135.83,245.4,135.41,245.14,135.07z M219.09,163.62
			c-1.13,0.67-2.01,1.61-2.63,2.76c-1.14,2.11-2.29,4.22-3.33,6.37c-0.79,1.64-1.1,3.42-1.14,5.32c1.12-0.31,1.66-1.01,1.98-1.9
			c0.32-0.9,0.85-1.65,1.51-2.33c0.32-0.33,0.54-0.76,0.8-1.13c0.34-0.48,0.65-0.97,1.01-1.42c0.99-1.25,1.77-2.59,2.02-4.21
			c0.18-1.14,0.51-2.26,0.81-3.54C219.71,163.56,219.33,163.47,219.09,163.62z M240.79,161.81c-0.23,0.17-0.52,0.29-0.8,0.35
			c-1.24,0.27-2.23,1.01-3.23,1.73c-0.85,0.61-1.76,1.15-2.63,1.74c-0.24,0.16-0.47,0.36-0.63,0.59c-0.81,1.1-1.78,2.02-2.87,2.83
			c-0.13,0.1-0.2,0.27-0.43,0.57c0.36-0.04,0.56-0.03,0.74-0.1c1.65-0.6,3.34-1.1,4.87-2.01c0.8-0.48,1.73-0.73,2.57-1.15
			c0.83-0.42,1.68-0.85,2.42-1.41c1.12-0.85,2.14-1.82,3.2-2.75c0.57-0.51,1.03-1.09,1.16-2.02
			C243.4,160.28,242.03,160.86,240.79,161.81z M225.65,183.04c-1.24-0.65-2.48-1.31-3.75-1.92c-0.41-0.2-0.89-0.27-1.33-0.41
			c-0.61-0.2-1.25-0.33-1.81-0.62c-0.85-0.45-1.74-0.65-2.68-0.73c-0.46-0.04-0.94-0.03-1.39-0.15c-0.88-0.23-1.26,0.3-1.76,0.98
			c0.52,0.32,0.93,0.62,1.38,0.85c1.92,0.99,3.85,1.98,5.79,2.92c0.57,0.27,1.2,0.49,1.82,0.58c1.21,0.18,2.44,0.28,3.66,0.37
			c0.38,0.02,0.76-0.11,1.27-0.2C226.7,183.78,226.24,183.35,225.65,183.04z M252.77,136.07c0.81-0.33,1.6-0.7,2.37-1.12
			c1.1-0.59,2-1.46,2.62-2.52c0.86-1.46,1.54-3.02,2.29-4.54c0.04-0.08-0.01-0.21-0.02-0.32c-0.22-0.25-0.43-0.08-0.6,0.04
			c-0.53,0.37-1.08,0.72-1.54,1.16c-0.73,0.69-1.53,1.25-2.38,1.77c-0.64,0.39-1.19,0.94-1.73,1.46c-0.64,0.61-1.33,1.12-2.08,1.58
			c-1.38,0.85-2.59,1.92-3.8,3.38C249.89,137.38,251.32,136.65,252.77,136.07z M235.41,140.58c0.14,0.25,0.32,0.5,0.39,0.78
			c0.54,2.24,1.7,4.21,2.57,6.31c0.51,1.23,0.91,2.49,1.05,3.88c0.63-0.14,0.9-0.48,0.92-0.98c0.01-0.4-0.03-0.82-0.12-1.22
			c-0.3-1.35-0.33-2.77-1.05-4.01c-0.09-0.15-0.16-0.33-0.16-0.49c-0.04-1.76-1.14-3.16-1.61-4.77c-0.29-0.98-0.99-1.54-2.08-1.69
			C235.07,139.15,235,139.87,235.41,140.58z M245.25,151.65c1.32-0.49,2.61-1.04,3.9-1.58c0.91-0.38,1.56-1.01,1.85-1.98
			c0.13-0.44,0.35-0.85,0.57-1.4c-0.35-0.1-0.62-0.27-0.85-0.22c-2.74,0.6-6.03,2.77-7.53,4.24c-0.26,0.25-0.26,0.27-0.54,1.3
			C243.56,152.06,244.43,151.95,245.25,151.65z M254.15,109.42c0.75-1.25,1.38-2.57,2.03-3.88c0.11-0.22,0.07-0.58-0.02-0.83
			c-0.06-0.16-0.36-0.36-0.52-0.33c-0.73,0.09-1.36,0.44-1.7,1.1c-0.62,1.18-1.45,2.26-1.7,3.63c-0.12,0.67-0.52,1.29-0.85,2.09
			C252.64,110.95,253.53,110.45,254.15,109.42z M244.15,97.47c-0.12,0.53,0.29,0.94,0.8,0.79c0.58-0.17,1.07-0.45,1.37-1
			c0.81-1.5,1.56-3.01,1.52-4.78c-0.02-0.57-0.11-1.13-0.16-1.7c-0.13-0.02-0.25-0.03-0.38-0.05
			C246.08,92.9,244.71,94.99,244.15,97.47z M236.33,94.9c0.51,1.32,1.06,2.59,2.52,3.18c1.18,0.48,2.2,1.36,3.62,1.39
			c-0.01-0.73-0.49-1.15-0.96-1.54c-0.27-0.22-0.65-0.34-0.86-0.59c-0.17-0.2-0.11-0.59-0.27-0.82c-0.19-0.28-0.46-0.55-0.75-0.71
			c-0.97-0.54-1.96-1.03-3.11-1.62C236.4,94.59,236.28,94.78,236.33,94.9z M242.04,108.97c0.87,0.76,1.59,1.68,2.7,2.18
			c1.32,0.6,2.59,1.32,3.86,1.97c0.28-0.26,0.1-0.45-0.02-0.63c-1.54-2.21-1.54-2.21-4-3.48c-0.82-0.42-1.62-0.89-2.43-1.2
			C241.63,108.26,241.73,108.71,242.04,108.97z M250.73,97.53c-1.88,0.43-3.46,1.53-5.33,2.23c1.57,0.84,3.18,0.84,4.38,0.08
			c0.49-0.31,0.99-0.6,1.47-0.93c0.57-0.39,0.56-0.4,0.63-1.57C251.48,97.41,251.1,97.45,250.73,97.53z M247.44,125.77
			c-0.79-1.3-1.54-2.61-2.15-4.01c-0.33-0.76-0.84-1.51-1.72-2.01c-0.33,0.75-0.15,1.33,0.1,1.91c0.26,0.58,0.51,1.18,0.79,1.75
			c0.72,1.48,1.67,2.76,3.18,3.58C247.91,126.45,247.63,126.09,247.44,125.77z M252.33,123.57c-0.73,1.26-1.47,2.52-2.19,3.79
			c-0.05,0.09-0.02,0.23-0.02,0.36c0.46,0.35,0.79-0.03,1.02-0.28c1.32-1.42,2.36-3.03,3.01-5.2
			C253.26,122.58,252.7,122.93,252.33,123.57z M246.12,137.04c0.01-0.04-0.01-0.1-0.01-0.16c-0.04,0.04-0.09,0.08-0.11,0.13
			c-0.01,0.04,0.01,0.1,0.01,0.15C246.05,137.13,246.11,137.09,246.12,137.04z"/>
	</g>
	<g>
		<path class="st20" d="M224.4,93.41c-0.05-0.22-0.16-0.44-0.3-0.61c-1.62-1.96-3.55-3.49-6.22-3.52c-1.63-0.02-3.32-0.26-4.88,0.57
			c-0.26,0.14-0.62,0.04-0.88,0.36c-2.69,3.22-5.15,6.6-7.15,10.3c-1.45,2.67-2.83,5.39-4.46,7.95c-2.73,4.32-5.62,8.53-8.45,12.78
			c-0.25,0.37-0.53,0.72-0.83,1.12c-0.88-0.23-1.72-0.4-2.54-0.65c-1.27-0.39-2.56-0.58-3.89-0.67c-2.4-0.17-4.8-0.37-7.17-0.86
			c-1.91-0.4-3.85-0.58-5.81-0.54c-2.93,0.05-5.85,0-8.78,0.01c-1.03,0-2.07,0.05-3.09,0.14c-2.46,0.21-4.91,0.43-7.37,0.68
			c-1.14,0.12-2.28,0.28-3.4,0.49c-4.34,0.82-8.66,1.71-13.01,2.5c-1.99,0.36-3.9,0.94-5.79,1.62c-1.87,0.67-3.82,1.18-5.45,2.41
			c-0.18,0.14-0.4,0.23-0.62,0.3c-1.82,0.57-3.35,1.65-4.9,2.73c-0.86,0.6-1.07,1.6-1.82,2.22c-0.14,0.12-0.15,0.43-0.18,0.65
			c-0.29,2.76-0.09,5.5,0.38,8.22c0.15,0.85,0.28,1.69,0.27,2.55c-0.01,0.51,0,1.03,0,1.62c1.02,0.27,1.17,1.11,1.38,1.97
			c0.17,0.72,0.39,1.45,0.72,2.11c0.99,2,1.59,4.19,2.89,6.04c0.19,0.28,0.33,0.61,0.42,0.94c0.35,1.24,1.04,2.3,1.72,3.36
			c0.77,1.21,1.48,2.47,2.4,3.55c1.05,1.25,1.76,2.67,2.55,4.07c0.53,0.95,1.1,1.85,1.92,2.62c0.79,0.74,1.46,1.62,2.11,2.49
			c0.83,1.09,1.51,2.29,2.39,3.33c1.75,2.07,3.75,3.86,6.31,4.91c1,0.41,1.95,0.99,3.12,0.67c0.25-0.07,0.56,0.07,0.85,0.1
			c1.1,0.11,2.1,0.56,3.1,1c2.22,0.98,4.52,1.64,6.93,1.94c0.68,0.08,1.37,0.18,2.03,0.35c1.91,0.5,3.85,0.57,5.8,0.55
			c1.49-0.02,2.98,0.05,4.47,0.1c2.29,0.09,4.58,0.21,6.88,0.29c0.51,0.02,1.06,0.01,1.53-0.16c1.31-0.46,2.76-0.17,4.02-0.81
			c1.22,0.11,2.39-0.2,3.56-0.47c0.93-0.22,1.91-0.43,2.74-0.88c1.13-0.61,2.37-0.83,3.56-1.19c0.38-0.12,0.75-0.16,1.03-0.46
			c0.76-0.82,1.76-1.23,2.7-1.79c0.97-0.58,1.76-1.45,2.63-2.19c0.13-0.11,0.3-0.16,0.45-0.26c1.39-0.93,2.7-1.95,3.7-3.31
			c0.71-0.97,1.44-1.93,2.1-2.94c0.66-1.01,1.28-2.04,1.85-3.1c0.79-1.46,1.49-2.98,2.28-4.44c1.63-3.02,3.43-5.97,4.42-9.3
			c0.08-0.27,0.2-0.54,0.32-0.8c1.19-2.37,2.07-4.85,2.71-7.41c0.17-0.67,0.4-1.32,0.6-1.98c0.08-0.27,0.23-0.55,0.22-0.83
			c-0.02-0.9,0.33-1.68,0.66-2.47c0.5-1.19,0.68-2.42,0.45-3.7c-0.13-0.73-0.29-1.46-0.38-2.2c-0.07-0.56-0.22-1.21-0.02-1.69
			c0.39-0.95,0.19-1.72-0.12-2.63c-0.31-0.91-0.79-1.48-1.62-1.86c-0.46-0.21-0.97-0.42-1.33-0.76c-0.71-0.66-1.59-0.88-2.48-1.12
			c-0.65-0.18-1.3-0.38-2.04-0.6c0.43-1.07,1.08-1.87,1.65-2.71c0.58-0.85,1.1-1.74,1.64-2.62c0.3-0.49,0.52-1.03,0.84-1.5
			c1.54-2.3,2.78-4.75,3.81-7.31c0.23-0.58,0.58-1.12,0.89-1.66c0.37-0.64,0.82-1.24,1.15-1.9c1.18-2.36,2.27-4.76,3.5-7.1
			c0.68-1.28,1.13-2.64,1.46-4.01C224.91,96.51,224.73,94.93,224.4,93.41z M211.11,129.67c0.84,0.89,1.97,1.36,2.78,2.26
			c0.32,0.36,0.85,0.52,1.38,0.82c0.04,0.2,0.13,0.47,0.13,0.75c0.01,1.95,0.02,3.9,0,5.85c0,0.39-0.13,0.78-0.21,1.17
			c-0.1,0.5-0.22,1-0.31,1.51c-0.04,0.23,0,0.49-0.1,0.68c-0.98,1.92-0.88,4.14-1.71,6.1c-0.22,0.53-0.35,1.09-0.59,1.61
			c-2.73,5.94-5.72,11.76-8.65,17.6c-0.96,1.91-2.39,3.51-3.57,5.26c-0.06,0.09-0.15,0.18-0.23,0.25c-1.43,1.24-2.84,2.49-4.29,3.71
			c-0.5,0.42-0.94,1.06-1.76,0.86c-0.55,0.48-1.22,0.88-1.63,1.47c-0.65,0.94-1.59,1.37-2.59,1.49c-0.83,0.1-1.54,0.34-2.23,0.76
			c-1.23,0.74-2.56,1.27-3.97,1.57c-0.39,0.08-0.79,0.17-1.19,0.17c-0.81,0.01-1.59,0.08-2.35,0.42c-0.3,0.13-0.67,0.12-1.01,0.12
			c-1.43,0.02-2.87,0.03-4.3,0.03c-0.23,0-0.48,0.04-0.68-0.05c-1.24-0.51-2.48-0.2-3.73-0.11c-1.31,0.09-2.64,0.05-3.96,0.12
			c-3.12,0.16-6.17-0.25-9.23-0.81c-2.38-0.43-4.69-1.04-6.92-2c-1.05-0.45-2.18-0.7-3.25-1.11c-1.28-0.5-2.53-1.06-3.79-1.62
			c-0.73-0.33-1.43-0.71-2.14-1.06c-0.1-0.05-0.23-0.08-0.3-0.16c-0.74-0.85-1.8-1.42-2.36-2.43c-0.65-1.18-1.6-2.07-2.51-3.02
			c-0.47-0.49-1.01-0.94-1.4-1.49c-1.42-2.01-3.03-3.87-4.09-6.13c-0.53-1.12-1.24-2.17-1.96-3.19c-0.35-0.49-0.93-0.82-1.4-1.23
			c-0.17-0.14-0.38-0.26-0.48-0.45c-0.93-1.7-2.07-3.29-2.62-5.2c-0.31-1.1-0.82-2.14-1.29-3.18c-1.32-2.91-1.76-6.04-2.38-9.13
			c-0.04-0.22-0.04-0.46-0.04-0.69c-0.01-2.53,0-5.05-0.05-7.57c-0.02-1.16,0.46-2.04,1.43-2.56c0.99-0.54,1.91-1.25,3.08-1.46
			c0.49-0.09,0.99-0.35,1.39-0.66c1.02-0.81,2.2-1.11,3.44-1.37c0.83-0.17,1.6-0.59,2.39-0.91c0.14-0.06,0.3-0.21,0.35-0.36
			c0.26-0.79,0.93-0.96,1.61-1.08c1.92-0.34,3.85-0.65,5.76-1c3.33-0.61,6.65-1.25,9.98-1.85c1.18-0.21,2.38-0.37,3.57-0.49
			c2.74-0.27,5.48-0.51,8.23-0.74c0.57-0.05,1.15-0.04,1.72-0.05c2.07-0.01,4.13,0.04,6.2-0.01c3.22-0.09,6.41,0.13,9.59,0.7
			c1.97,0.35,3.98,0.53,5.98,0.65c1.8,0.11,3.48,0.63,5.24,1.13c-0.19,0.85-0.8,1.3-1.3,1.83c-0.51,0.54-1.04,1.07-1.5,1.65
			c-0.13,0.17-0.08,0.49-0.12,0.88c0.98-0.24,1.08-1.31,1.9-1.57c0.05,0.75-0.29,1.27-0.71,1.74c-0.31,0.34-0.62,0.68-0.96,0.98
			c-0.61,0.53-1.1,1.14-1.43,1.89c-0.21,0.46-0.51,0.91-0.86,1.27c-0.95,0.96-1.51,2.14-2.09,3.33c-0.37,0.76-0.82,1.5-1.3,2.2
			c-0.18,0.26-0.51,0.46-0.81,0.58c-0.47,0.2-0.95-0.05-1.09-0.52c-0.07-0.22-0.07-0.45-0.12-0.68c-0.04-0.22-0.1-0.44-0.18-0.74
			c-0.73-0.36-1.54-0.63-2.17-1.23c-0.4-0.38-0.96-0.23-1.47-0.03c-1.46,0.56-2.22,0.26-2.91-1.06c-0.26-0.5-0.55-1.01-0.92-1.44
			c-0.4-0.46-0.94-0.64-1.55-0.35c-0.82,0.39-1.64,0.77-2.53,1.19c-0.13-0.09-0.35-0.2-0.48-0.37c-0.69-0.94-1.65-1.15-2.74-1.04
			c-0.34,0.03-0.7,0.05-1.03,0c-1.12-0.17-2,0.35-2.83,0.98c-0.54,0.41-0.53,0.75,0,1.24c0.12,0.11,0.26,0.21,0.4,0.31
			c-0.14,0.28-0.26,0.57-0.63,0.38c-0.4-0.21-0.79-0.45-1.18-0.67c0-0.87-0.2-1.09-0.77-0.73c-0.8,0.5-1.53,0.34-2.27-0.01
			c-0.51-0.24-1.06-0.5-1.46-0.88c-0.59-0.55-1.23-0.62-1.92-0.41c-0.59,0.18-1.23,0.39-1.69,0.77c-0.93,0.75-1.75,1.62-2.69,2.51
			c-0.25-0.03-0.65-0.11-1.03-0.09c-0.63,0.03-1.22,0.15-1.69,0.69c-0.55,0.64-1.26,0.92-2.15,0.77c-0.5-0.09-1.03,0.01-1.55-0.03
			c-1.42-0.1-2.7,0.25-3.88,1.07c-0.51,0.35-1.06,0.66-1.73,0.69c-0.83,0.04-1.58-0.13-2.29-0.59c-0.33-0.21-0.7-0.46-1.06-0.47
			c-1.05-0.04-2.02-0.35-3.01-0.67c-0.43-0.14-0.89-0.21-1.35-0.27c-0.82-0.11-1.37-0.52-1.61-1.33l0,0
			c1.64,0.65,3.36,0.56,5.07,0.5c0.22-0.01,0.45-0.08,0.63-0.19c0.11-0.07,0.16-0.27,0.17-0.42c0.01-0.08-0.1-0.21-0.19-0.26
			c-0.15-0.07-0.32-0.14-0.48-0.14c-1.75-0.05-3.52-0.21-5.2,0.51c-0.57-0.46-1.15-0.93-1.73-1.39c0.24-1.4,0.33-1.48,2.47-1.82
			c0.04-0.23,0.09-0.5,0.15-0.81c0.14-0.05,0.3-0.16,0.45-0.15c1.29,0.12,2.49-0.23,3.69-0.62c0.14-0.04,0.34-0.3,0.31-0.36
			c-0.08-0.18-0.25-0.39-0.42-0.44c-0.26-0.08-0.61-0.12-0.84-0.01c-1.15,0.53-2.36,0.37-3.56,0.43c-0.34,0.02-0.69,0-1.03,0.04
			c-0.22,0.02-0.56,0.05-0.64,0.2c-0.65,1.11-2.21,1.19-2.71,2.48c-0.15,0.38-0.61,0.64-1.01,1.03c0.35,0.71,0.64,1.49,0.65,2.36
			c0,0.52,0.45,0.81,0.97,0.73c0.39-0.06,0.75-0.23,1.27-0.39c1,0.57,2.09,1.2,3.18,1.82c1.97,1.12,4.04,1.87,6.35,1.81
			c2.14-0.06,4.23,0.19,6.28,0.83c0.33,0.1,0.67,0.18,1.01,0.2c3.55,0.2,7.08,0.71,10.64,0.5c0.79-0.04,1.58-0.1,2.28,0.5
			c0.23,0.2,0.76,0.07,1.14,0.05c0.33-0.02,0.66-0.18,0.99-0.17c1.55,0.03,3.09,0.12,4.64,0.13c3.84,0.03,7.69,0.05,11.53,0.02
			c2.23-0.02,4.47-0.13,6.7-0.21c0.29-0.01,0.59,0.02,0.85-0.08c0.65-0.23,1.21-0.11,1.63,0.4c0.93-0.73,0.94-0.68,2.05-0.97
			c1.18-0.3,2.36-0.38,3.58-0.34c1.55,0.05,3.1,0.03,4.65,0.04c0.63,0,1.24,0.01,1.85-0.28c0.34-0.16,0.78-0.15,1.18-0.15
			c0.91-0.01,1.83,0.07,2.68-0.43c0.62-0.36,1.21,0.18,1.77,0.16c0.16-0.07,0.31-0.09,0.37-0.17c0.64-0.85,1.45-1.26,2.52-1.08
			c1.08,0.18,1.96-0.55,2.98-0.68c0.16-0.02,0.31-0.22,0.46-0.22c1.65-0.01,2.85-1.04,4.18-1.8c0.53-0.3,0.88-0.75,1.09-1.29
			c0.09-0.22,0.05-0.58-0.07-0.79c-0.2-0.32-0.6-0.33-0.93-0.21c-0.2,0.07-0.35,0.27-0.53,0.41c-0.62,0.5-1.22,1.01-1.86,1.49
			c-0.27,0.2-0.6,0.4-0.93,0.43c-1.33,0.12-2.51,0.7-3.76,1.09c-0.3,0.1-0.67,0.01-1.15,0.01c0.25-0.61,0.36-1.11,0.63-1.52
			c1.67-2.52,3.38-5.02,5.08-7.54C209.49,128.62,210.47,128.99,211.11,129.67z M178.74,139.95c-1.64,1.03-1.64,1.03-3.66,1.04
			c-0.86,0-1.72,0.01-2.58,0.01c-0.23,0-0.46,0-0.69,0c-0.64,0.01-1.12-0.63-1.91-0.29c-0.59,0.25-1.35,0.06-2.04,0.06
			c-1.43,0-2.86-0.01-4.29-0.02c-0.11,0-0.22-0.06-0.34-0.1c0.03-0.73,0.43-1.1,1.13-1.2c0.51-0.07,1.03-0.09,1.53-0.2
			c0.6-0.12,1.27-0.15,1.67-0.74c-0.88-0.97-0.97-0.99-2.92-0.72c-0.13-0.64-0.54-1.21-0.43-1.93c-0.71,0.46-1.44,0.51-2.39,0.23
			c0.51-1.08,1.48-1.62,1.85-2.6c0.39,0.02,0.72,0.03,1.06,0.05c0.08,0.38,0.14,0.7,0.2,0.98c0.5,0.29,0.77,0.06,1.08-0.26
			c0.28-0.3,0.33-0.26,0.73,0.39c-0.25,0.12-0.49,0.23-0.73,0.33c-0.51,0.22-1.17,0.07-1.54,0.63c0.96,0.09,1.93,0.13,2.88,0.29
			c0.28,0.05,0.51,0.41,0.85,0.71c0.18-0.19,0.42-0.36,0.51-0.59c0.14-0.37,0.18-0.77,0.29-1.3c0.61-0.36,1.28-0.76,1.89-1.12
			c0.54,0.11,0.61,0.49,0.68,0.8c0.32,1.33,1.17,2.03,2.48,2.24c-0.01,0.01-0.05,0.04-0.05,0.04c0.02,0,0.04-0.01,0.06-0.01
			c0-0.01,0-0.02-0.01-0.02c0.22-0.13,0.42-0.3,0.66-0.37c0.64-0.17,1.29-0.29,1.96-0.43c0.65,0.83,0.65,0.83,1.54,1.19
			c-0.04,0.14-0.07,0.28-0.12,0.43c-0.06,0.16-0.13,0.3-0.24,0.57c0.3,0.22,0.6,0.45,0.9,0.67c0.37,0.27,0.44,0.63,0.31,1.06
			c0.56-0.11,0.57-0.11,0.57,0.6c0.01,0,0.02-0.01,0.03-0.01c0,0.01,0.01,0.03,0.01,0.04c0.23,0.03,0.46,0.06,0.79,0.1
			c-0.4,0.25-0.67,0.32-0.79-0.1c-0.01,0-0.03,0-0.04-0.01c0-0.01,0-0.02,0-0.03C179.19,140.5,178.88,140.42,178.74,139.95z
			 M161.48,138.36c0.94,0.6,0.21,1.54,0.7,2.31c-1.77,0.09-3.41,0.21-5.05-0.11c-0.78-0.15-1.58-0.27-2.38-0.29
			c-1.72-0.05-3.44,0-5.16-0.03c-1.03-0.02-2.06-0.11-3.08-0.19c-0.92-0.07-1.86-0.12-2.39-0.93c-0.67,0.22-1.19,0.5-1.72,0.54
			c-0.49,0.03-1-0.19-1.5-0.32c-0.54-0.14-1.08-0.3-1.71-0.48c0.73-0.74,1.47-1.02,2.39-1.01c1.03,0.02,2.06-0.07,3.09-0.09
			c0.62-0.01,1.09-0.24,1.46-0.75c0.26-0.36,0.53-0.76,1.17-0.79c0.13,0.17,0.28,0.41,0.46,0.61c0.61,0.69,1.06,0.71,1.7,0.03
			c0.27-0.29,0.52-0.62,0.66-0.98c0.31-0.85,0.96-1.43,1.58-2.01c0.88-0.82,1.44-0.84,2.42-0.12c0.54,0.4,1.04,0.87,1.59,1.33
			c0.61-0.13,1.23-0.55,1.97-0.13c0.03,0.47,0.04,0.98,0.11,1.47c0.05,0.34,0.18,0.74,0.6,0.7c0.21-0.02,0.45-0.31,0.56-0.53
			c0.23-0.44,0.39-0.91,0.59-1.39c0.94,0.61,0.94,0.61,0.73,2.26c-0.47,0.28-0.99,0.59-1.59,0.94
			C159.74,139.38,160.64,138.93,161.48,138.36z M223.27,96.25c0.01,1.38-0.34,2.58-1.42,3.54c-0.37,0.33-0.66,0.8-0.86,1.27
			c-0.53,1.26-1,2.56-1.49,3.84c-0.12,0.32-0.21,0.66-0.38,0.96c-0.71,1.3-1.46,2.58-2.17,3.88c-0.52,0.96-1,1.94-1.5,2.9
			c-0.27,0.5-0.5,1.04-0.85,1.49c-1.02,1.33-1.78,2.8-2.53,4.29c-0.62,1.23-1.37,2.37-2.14,3.52c-1.08,1.61-2.04,3.31-2.99,5.01
			c-0.26,0.45-0.49,0.88-0.86,1.26c-0.31,0.32-0.52,0.75-0.81,1.1c-0.25,0.29-0.57,0.53-0.86,0.79c-0.05-0.18-0.09-0.36-0.16-0.63
			c-0.58,0.51-1.16,0.86-1.49,1.37c-0.82,1.27-1.97,2.21-3.03,3.26c-0.16,0.15-0.3,0.36-0.36,0.56c-0.04,0.12,0.07,0.31,0.16,0.43
			c0.05,0.07,0.21,0.11,0.31,0.09c0.16-0.04,0.35-0.1,0.45-0.22c0.92-1.09,2.06-1.98,2.72-3.29c0.25-0.49,0.73-0.86,1.1-1.29
			c0.04,1.44-0.95,2.4-1.68,3.47c-0.45,0.65-1.09,1.17-1.16,2.05c-0.02,0.25-0.27,0.5-0.45,0.71c-0.26,0.31-0.6,0.55-0.82,0.88
			c-0.94,1.35-2.35,1.7-3.86,1.79c-0.85,0.05-1.67,0.17-2.51,0.38c-1.08,0.27-2.28,0.24-3.41,0.13c-1.16-0.11-2.28-0.03-3.42,0.06
			c-1.08,0.09-2.17,0.02-3.26,0.02c-0.48-0.88-0.48-1.12,0.08-1.79c0.43-0.52,0.93-1,1.31-1.56c0.38-0.57,0.67-1.19,0.93-1.82
			c0.4-0.96,0.85-1.88,1.66-2.57c0.12-0.11,0.24-0.27,0.27-0.43c0.3-1.29,1.22-2.15,2.02-3.13c0.86-1.06,1.51-2.3,2.27-3.44
			c0.32-0.48,0.64-0.95,1.02-1.37c0.28-0.3,0.48-0.54,0.45-1.02c-0.01-0.33,0.3-0.71,0.55-1.01c0.49-0.57,0.95-1.15,1.1-1.91
			c0.18-0.86,0.63-1.59,1.11-2.31c1.08-1.62,2.12-3.27,3.24-4.87c2.67-3.82,4.81-7.93,6.95-12.05c1.4-2.69,3-5.28,4.51-7.92
			c0.38-0.67,1-1,1.67-1.38c1.78-1.01,3.65-0.88,5.52-0.69c2.06,0.21,3.54,1.52,4.84,3c0.2,0.23,0.26,0.62,0.28,0.95
			C223.34,95.1,223.26,95.68,223.27,96.25z"/>
		<path class="st20" d="M203.25,164.85c-0.35,0.29-0.6,0.71-0.96,0.97c-0.93,0.68-1.85,1.33-2.07,2.57
			c-0.93,1.23-1.74,2.57-2.81,3.66c-1.4,1.43-2.54,3.05-3.86,4.73c0.31,0,0.58,0.08,0.7-0.02c0.4-0.32,0.84-0.65,1.08-1.08
			c0.51-0.93,1.3-1.58,2-2.33c0.66-0.7,1.27-1.46,1.89-2.2c0.98-1.19,1.97-2.37,2.91-3.59c0.74-0.94,1.41-1.93,2.11-2.91
			c0.04-0.06-0.01-0.2-0.02-0.32C203.75,164.21,203.53,164.62,203.25,164.85z"/>
		<path class="st20" d="M131.52,154.61c0.3-0.18,0.52-0.4,0.75-0.42c0.33-0.04,0.67,0.12,1,0.1c0.17-0.01,0.33-0.22,0.65-0.47
			c-0.63-0.27-1.07-0.51-1.54-0.64c-0.74-0.2-1.18-0.63-1.33-1.39c-0.06-0.3-0.08-0.69-0.54-0.7c-0.19,0.29-0.38,0.56-0.57,0.85
			c-0.82-0.18-1.39-0.63-1.92-1.16c-0.48-0.48-0.94-1.06-1.53-1.36c-0.68-0.34-1.01-0.99-1.57-1.53c-0.15,0.25-0.31,0.4-0.3,0.51
			c0.08,0.59,0.33,1.08,0.87,1.4c0.65,0.38,1.23,0.82,1.47,1.6c0.06,0.18,0.3,0.32,0.49,0.43c0.65,0.36,1.3,0.72,1.96,1.05
			C130.29,153.31,131.15,153.72,131.52,154.61z"/>
		<path class="st20" d="M183.12,179.87c-0.27-0.01-0.55,0.14-0.84,0.18c-1.81,0.24-3.61,0.56-5.33,1.23
			c-0.25,0.1-0.57,0.06-0.85,0.06c-0.82-0.02-1.57,0.21-2.37,0.62c0.18,0.49,0.47,0.54,0.75,0.52c0.57-0.04,1.14-0.18,1.71-0.16
			c0.6,0.02,1.13-0.09,1.67-0.3c1.12-0.44,2.25-0.85,3.49-0.8c0.33,0.01,0.67-0.15,1-0.22c0.61-0.12,1.23-0.25,1.85-0.32
			c1.1-0.13,1.88-0.45,2.87-1.28c-0.08-0.05-0.18-0.16-0.25-0.14C185.62,179.62,184.41,179.93,183.12,179.87z"/>
		<path class="st20" d="M133.12,148.53c0.29,0.11,0.69,0.11,0.87-0.45c-0.95-0.14-1.7-0.76-2.7-0.82c-0.4-0.02-0.84-0.35-1.15-0.65
			c-0.24-0.23-0.31-0.54-0.76-0.49c-0.54,0.05-0.33-0.67-0.7-0.83c-0.3-0.13-0.63-0.29-0.95-0.31c-0.67-0.03-1.17-0.33-1.61-0.81
			c-0.22-0.25-0.47-0.49-0.75-0.67c-1.04-0.67-2.1-1.31-3.2-1.99c-0.15,0.79,0.19,1.29,0.83,1.69c1.99,1.24,3.97,2.5,5.96,3.73
			C130.25,147.72,131.73,148.01,133.12,148.53z"/>
		<path class="st20" d="M143.29,173.77c-0.64-0.04-1.28-0.17-1.39-0.99c-0.45-0.24-0.89-0.48-1.34-0.7c-0.3-0.15-0.68-0.19-0.91-0.4
			c-0.65-0.6-1.48-0.86-2.25-1.23c-0.07-0.03-0.19,0.06-0.39,0.13c0.09,0.41,0.18,0.84,0.27,1.22c0.4,0.15,0.72,0.27,1.03,0.4
			c1.21,0.52,2.35,1.12,2.86,2.45c0.22,0.56,0.7,0.7,1.25,0.74c0.12-0.26,0.23-0.5,0.36-0.78c0.17,0.04,0.35,0.03,0.48,0.11
			c0.38,0.23,0.75,0.48,1.22,0.79c-0.07-0.45-0.06-0.85-0.19-1.2C144.12,173.89,143.73,173.79,143.29,173.77z"/>
		<path class="st20" d="M142.25,169.27c0.19-0.03,0.35-0.2,0.59-0.33c-0.56-0.61-1.22-0.52-1.82-0.57c-0.59-0.05-1.08-0.21-1.5-0.67
			c-0.46-0.5-1.06-0.84-1.75-1.01c-0.38-0.1-0.75-0.27-1.12-0.42c-0.32-0.12-0.66-0.21-0.93-0.4c-0.28-0.18-0.5-0.47-0.79-0.75
			c-0.21,0.88,0.02,1.42,0.63,1.91c1.21,0.96,2.42,1.79,3.99,2.12C140.47,169.33,141.34,169.4,142.25,169.27z"/>
		<path class="st20" d="M136.43,160.55c0.54,0.16,1.07,0.38,1.62,0.5c0.54,0.12,1.09,0.13,1.73,0.2c-0.1-0.26-0.11-0.47-0.21-0.53
			c-0.34-0.19-0.7-0.37-1.07-0.48c-1.6-0.45-3.15-0.99-4.52-1.96c-1.39-0.99-2.77-2-4.17-2.99c-0.25-0.18-0.46-0.56-1.1-0.21
			c0.38,0.4,0.65,0.76,0.99,1.04c1.16,0.93,2.34,1.82,3.51,2.73c0.49,0.39,0.9,0.9,1.43,1.19
			C135.18,160.32,135.83,160.38,136.43,160.55z"/>
		<path class="st20" d="M131.52,132.3c-1.54,0.37-3.07,0.79-4.59,1.2c-0.08,0.02-0.14,0.16-0.3,0.36c1.35,0.9,2.52,0.02,3.69-0.12
			c0.84-0.1,1.72-0.37,2.44-0.92C132.43,132.22,131.96,132.2,131.52,132.3z"/>
		<path class="st20" d="M203.1,163.24c0.32,0.27,0.54,0.09,0.67-0.05c1.19-1.39,2.38-2.78,3.53-4.2c0.24-0.29,0.4-0.71,0.11-1.14
			C205.94,159.63,204.07,161.08,203.1,163.24z"/>
		<path class="st20" d="M209.06,142.51c-0.54,0.84-1.33,1.4-1.93,2.14c-0.04,0.04-0.08,0.1-0.08,0.15c0.01,0.21-0.03,0.48,0.09,0.6
			c0.12,0.13,0.44,0.2,0.6,0.13c0.25-0.1,0.48-0.31,0.64-0.53c0.96-1.26,1.9-2.54,2.83-3.83c0.08-0.1,0.01-0.31,0.01-0.83
			C210.32,141.23,209.54,141.77,209.06,142.51z"/>
		<path class="st20" d="M210.5,138.08c-0.4,0.18-0.71,0.57-1.05,0.87c-0.69,0.59-1.39,1.18-2.07,1.79c-0.1,0.09-0.15,0.35-0.08,0.45
			c0.07,0.12,0.33,0.23,0.43,0.19c0.35-0.15,0.72-0.34,1-0.59c0.81-0.72,1.52-1.58,2.39-2.21c0.72-0.52,1.05-1.13,1.06-1.98
			C211.68,137.19,211.22,137.74,210.5,138.08z"/>
		<path class="st20" d="M206.67,149.45c-0.11,0.1-0.16,0.31-0.17,0.47c-0.02,0.29,0.03,0.62,0.38,0.66c0.16,0.02,0.4-0.15,0.52-0.3
			c0.24-0.31,0.43-0.66,0.64-0.99c0.6-0.96,1.21-1.92,1.98-3.15C208.28,146.94,207.73,148.43,206.67,149.45z"/>
		<path class="st20" d="M166.32,181.7c0.34,0.6,0.75,0.91,1.29,0.94c1.24,0.05,2.49,0.09,3.74,0.07c0.26-0.01,0.51-0.33,1.02-0.68
			c-0.75-0.06-1.19-0.13-1.62-0.12C169.29,181.92,167.84,182.17,166.32,181.7z"/>
		<path class="st20" d="M206.2,154.41c-0.18,0.33-0.31,0.75,0.35,1.17c0.62-1.33,1.62-2.35,1.97-4.02
			C207.43,152.51,206.76,153.42,206.2,154.41z"/>
		<path class="st20" d="M138.27,164.61c-1.27-0.3-2.27-1.26-3.72-1.44c0.08,0.25,0.08,0.47,0.18,0.52c0.88,0.49,1.76,0.99,2.67,1.42
			C137.69,165.25,138.07,165.18,138.27,164.61z"/>
		<path class="st20" d="M132.88,162.84c0.04,0.8,0.05,0.8,0.58,1.54C133.44,163.18,133.44,163.18,132.88,162.84z"/>
		<path class="st20" d="M130.57,140.37c-0.6,0.49-0.6,1-0.62,1.73C130.68,141.61,130.73,141.11,130.57,140.37z"/>
		<path class="st20" d="M143.71,172.93c0-0.05-0.03-0.1-0.05-0.16c-0.03,0.04-0.08,0.09-0.08,0.13c-0.01,0.05,0.03,0.1,0.05,0.16
			C143.65,173.02,143.7,172.98,143.71,172.93z"/>
		<path class="st20" d="M131.49,159.14c0.04,0.06,0.09,0.12,0.13,0.18c0.02-0.04,0.04-0.08,0.06-0.12c-0.02-0.04-0.04-0.1-0.07-0.11
			C131.58,159.08,131.53,159.12,131.49,159.14z"/>
		<path class="st20" d="M206.09,121.27c-1.27,1.4-2.53,2.81-3.79,4.21c-0.08,0.08-0.16,0.18-0.18,0.28c-0.02,0.1,0,0.24,0.06,0.31
			c0.06,0.07,0.23,0.14,0.29,0.11c0.24-0.14,0.47-0.31,0.68-0.5c1.55-1.38,2.68-3.12,4.1-4.77
			C206.57,120.58,206.34,120.99,206.09,121.27z"/>
		<path class="st20" d="M203.26,127.31c-0.81,0.85-1.46,1.85-2.53,2.44c-0.08,0.04-0.01,0.36-0.01,0.57
			c0.94-0.18,1.52-0.65,1.96-1.37c0.41-0.67,0.9-1.29,1.35-1.94c-0.04-0.07-0.09-0.14-0.13-0.21
			C203.68,126.98,203.44,127.12,203.26,127.31z"/>
		<path class="st20" d="M214.7,108.34c0.01-0.01,0.02-0.02,0.02-0.03l-0.04-0.05C214.69,108.29,214.69,108.32,214.7,108.34z"/>
		<path class="st20" d="M214.08,110.47c0.34-0.66,0.83-1.31,0.62-2.13c-1.11,1.45-1.49,2.24-1.6,3.43
			C213.48,111.27,213.85,110.91,214.08,110.47z"/>
		<path class="st20" d="M219.05,99.86c0.03-0.04,0.06-0.07,0.08-0.11c-0.02-0.04-0.03-0.09-0.05-0.13
			C219.08,99.7,219.06,99.78,219.05,99.86z"/>
		<path class="st20" d="M214.72,108.31c0.01-0.02,0.02-0.03,0.03-0.05c-0.02,0-0.05,0-0.07,0
			C214.68,108.26,214.72,108.31,214.72,108.31z"/>
		<path class="st20" d="M214.75,108.26c0.07,0,0.15-0.01,0.22-0.01c-0.03-0.07-0.06-0.14-0.09-0.21
			C214.84,108.11,214.8,108.19,214.75,108.26z"/>
		<path class="st20" d="M217.97,102.74c0.02-0.01,0.04-0.02,0.05-0.03l-0.03,0.01C217.98,102.73,217.98,102.74,217.97,102.74z"/>
		<path class="st20" d="M210.42,116.16c-0.02,0.04-0.03,0.09-0.05,0.13c0.06,0,0.11,0.01,0.17,0.01c-0.01-0.04,0-0.09-0.02-0.13
			C210.51,116.15,210.45,116.16,210.42,116.16z"/>
		<path class="st20" d="M217.99,102.46c0,0.09,0,0.18,0,0.27c0,0,0.03-0.01,0.03-0.01C218.01,102.63,218,102.54,217.99,102.46z"/>
		<path class="st20" d="M216.61,105.45c-0.07,0.01-0.13,0.03-0.2,0.04c0.02,0.04,0.03,0.09,0.05,0.14c0.06-0.04,0.11-0.09,0.16-0.14
			c0.01-0.39,0.02-0.78,0.04-1.17c-0.02,0.37-0.04,0.74-0.05,1.13C216.61,105.44,216.61,105.45,216.61,105.45z"/>
		<path class="st20" d="M217.35,104.13C217.35,104.13,217.35,104.13,217.35,104.13c-0.23,0.05-0.45,0.09-0.68,0.13c0,0,0,0,0,0.01
			c0,0.02,0,0.03,0,0.05c0-0.02,0-0.03,0-0.05c0.23-0.04,0.45-0.08,0.68-0.12c0.04-0.36,0.07-0.72,0.1-1.09c0,0,0,0,0,0
			c0.18-0.1,0.35-0.21,0.52-0.31c-0.19,0.08-0.37,0.17-0.56,0.26C217.38,103.37,217.36,103.75,217.35,104.13z"/>
		<path class="st20" d="M153.6,136.59c-0.73,0.49-1.48,0.46-2.27,0.35c-0.33-0.04-0.57,0.22-0.51,0.5c0.07,0.33,0.3,0.45,0.62,0.43
			c0.44-0.03,0.92-0.19,1.32-0.07c1.02,0.31,1.55-0.24,2.37-1.24C154.34,136.56,153.86,136.41,153.6,136.59z"/>
		<path class="st20" d="M147.85,138.45c-0.05,0-0.16,0.32-0.11,0.45c0.07,0.18,0.35,0.46,0.39,0.44c0.41-0.24,0.78,0.1,1.15,0.05
			c0.31-0.04,0.61-0.17,1-0.28c-0.16-0.52-0.29-0.94-0.47-1.51C149.1,137.83,148.58,138.43,147.85,138.45z"/>
		<path class="st20" d="M171.34,137.43c-0.15-0.93-0.29-1-1.36-0.71c0.06,0.94,0.13,1.88,0.19,2.86c0.83,0.38,1.64,0.43,2.46,0.07
			c0.06-0.03,0.07-0.17,0.13-0.33c-0.4-0.17-0.8-0.35-1.24-0.53C171.47,138.32,171.42,137.88,171.34,137.43z"/>
		<path class="st20" d="M176.25,137.89c-0.34-0.34-0.63-0.59-0.88-0.89c-0.37-0.46-0.84-0.43-1.33-0.34
			c0.19,0.68,0.38,1.35,0.58,2.07C175.33,138.71,175.81,138.42,176.25,137.89z"/>
	</g>
	<g>
		<path class="st21" d="M201.23,95.94c-0.15-0.14-0.31-0.25-0.48-0.36c-0.87-0.6-1.75-1.17-2.59-1.79
			c-0.58-0.42-1.21-0.69-1.88-0.89c-1.82-0.54-3.64-1.1-5.45-1.68c-0.59-0.19-1.17-0.22-1.77-0.21c-1.3,0.01-2.6-0.01-3.9-0.02
			c-0.55-0.01-1.1-0.04-1.65-0.03c-2.52,0.06-4.97,0.53-7.36,1.3c-1.1,0.35-2.18,0.75-3.29,1.05c-0.62,0.17-1.31,0.1-1.91,0.3
			c-0.6,0.2-1.12,0.62-1.68,0.93c-0.13,0.07-0.28,0.11-0.42,0.15c-2.09,0.63-3.99,1.6-5.66,3.01c-0.15,0.13-0.37,0.17-0.76,0.33
			c0.2-0.39,0.27-0.56,0.38-0.73c1.07-1.7,2.32-3.26,3.69-4.73c0.4-0.43,0.86-0.84,1.37-1.14c1.16-0.69,2.37-1.31,3.54-1.97
			c0.13-0.07,0.41-0.15,0.16-0.48c-0.93,0.29-1.92,0.5-2.83,0.89c-0.96,0.4-1.96,0.78-2.7,1.58c-1.42,1.55-2.85,3.09-3.97,4.88
			c-0.5,0.81-1.04,1.59-1.57,2.38c-0.16,0.24-0.37,0.44-0.57,0.68c-0.32-0.14-0.59-0.25-0.85-0.37c0.01-0.58,0.02-1.08,0.04-1.57
			c0.1-2.65,0.06-5.3-0.36-7.93c-0.1-0.6-0.26-1.16-0.52-1.71c-0.62-1.33-1.54-2.46-2.46-3.57c-0.1-0.11-0.26-0.17-0.64-0.41
			c0.36,0.72,0.59,1.16,0.81,1.61c0.44,0.9,0.9,1.79,1.3,2.7c0.2,0.45,0.34,0.94,0.41,1.43c0.15,1.04,0.28,2.09,0.34,3.13
			c0.07,1.23,0.1,2.47-0.11,3.98c-0.24-0.5-0.41-0.74-0.49-1c-0.54-1.9-1.4-3.65-2.65-5.18c-0.58-0.71-0.79-1.61-1.28-2.34
			c-0.49-0.73-1.35-1.15-1.87-1.92c-0.64-0.95-1.35-1.86-2.08-2.75c-1.81-2.22-3.85-4.2-6.32-5.71c-1.11-0.68-2.14-1.48-3.22-2.19
			c-0.46-0.3-0.93-0.59-1.44-0.77c-1.85-0.62-3.71-1.2-5.58-1.79c-0.33-0.11-0.67-0.27-1.01-0.28c-1.55-0.04-3.1-0.06-4.65-0.04
			c-0.54,0-0.82,0.32-0.89,0.84c-0.02,0.15-0.01,0.3-0.01,0.45c-0.02,2.95-0.04,5.9-0.04,8.86c0,0.39,0.05,0.82,0.23,1.15
			c0.27,0.47,0.27,0.95,0.26,1.45c-0.06,3.15-0.1,6.3-0.17,9.45c-0.01,0.4-0.02,0.81-0.14,1.18c-0.77,2.43-1.35,4.93-2.49,7.24
			c-0.23,0.46-0.32,0.94-0.26,1.45c0.07,0.6,0.09,1.2,0.19,1.79c0.18,1.06,0.57,2.03,1.31,2.82c1.26,1.35,2.49,2.75,3.86,4
			c1.11,1.02,2.44,1.71,4.06,1.64c1.25-0.06,2.5,0.02,3.75,0.04c0.23,0,0.5-0.07,0.59,0.28c-0.29,0.56-0.85,0.84-1.35,1.15
			c-0.61,0.38-1.08,0.87-1.54,1.41c-1.13,1.31-1.85,2.85-2.63,4.36c-0.42,0.81-0.28,1.13,0.3,1.88c0.61,0.8,1.61,1.18,2.11,2.09
			c0.08,0.14,0.43,0.15,0.66,0.19c0.84,0.15,1.05,0.52,0.68,1.23c-0.37,0.71-0.72,1.44-1.21,2.06c-0.58,0.73-0.88,1.58-1.12,2.43
			c-0.19,0.65-0.16,1.38-0.14,2.07c0.01,0.26,0.21,0.6,0.43,0.74c1.15,0.74,2.75,0.44,3.57-0.74c0.51-0.73,0.78-1.62,1.46-2.24
			c0.13-0.12,0.23-0.36,0.22-0.54c-0.03-0.65,0.37-1.14,0.64-1.65c0.31-0.59,0.53-1.17,0.54-1.83c0-0.14,0.1-0.27,0.18-0.47
			c0.28-0.02,0.58-0.07,0.87-0.07c0.55,0,1.08-0.02,1.59-0.32c0.28-0.16,0.67-0.16,1.01-0.19c1.23-0.1,2.36-0.4,3.24-1.35
			c0.23-0.25,0.54-0.44,0.85-0.61c0.64-0.34,1.17-0.74,1.4-1.48c0.09-0.27,0.32-0.5,0.53-0.71c0.97-1.01,1.95-2.01,2.92-3.01
			c0.16-0.17,0.27-0.44,0.64-0.27c0.06,1.25,0.7,2.48,0.3,3.8c-0.04,0.12,0.08,0.29,0.1,0.43c0.23,1.42,0.48,2.82,0.95,4.21
			c0.42,1.25,0.99,2.26,2.01,3.06c0.27,0.21,0.56,0.46,0.7,0.75c0.23,0.48,0.61,0.77,1.02,1.07c0.27,0.19,0.51,0.44,0.82,0.71
			c-0.66,0.87-0.77,1.86-0.92,2.84c-0.05,0.34-0.2,0.65-0.28,0.99c-0.07,0.29-0.19,0.6-0.13,0.87c0.15,0.66,0.06,1.31-0.09,1.93
			c-0.2,0.83,0.14,1.46,0.51,2.11c0.41,0.71,1.14,0.98,1.89,1.07c0.72,0.09,1.02-0.53,1.36-1.01c0.7-0.97,0.89-2.1,1-3.24
			c0.09-0.99,0.12-1.99,0.22-2.99c0.07-0.68,0.53-0.9,1.18-0.6c0.17,0.08,0.31,0.23,0.44,0.32c0.49-0.12,0.92-0.26,1.35-0.33
			c0.64-0.11,1.28-0.19,1.92-0.26c0.77-0.09,1.15-0.55,1.26-1.27c0.11-0.79,0.2-1.59,0.28-2.39c0.18-1.81,0.21-3.6-0.62-5.29
			c-0.11-0.22-0.19-0.47-0.23-0.71c-0.03-0.21-0.18-0.49,0.21-0.67c1.18,0.79,2.4,1.55,3.57,2.4c0.8,0.58,1.67,0.84,2.64,0.93
			c0.76,0.07,1.49,0.07,2.23-0.09c1.47-0.31,2.94-0.61,4.41-0.9c1.22-0.24,2.25-0.82,3.11-1.71c0.41-0.43,0.77-0.92,1.17-1.37
			c0.32-0.35,0.49-0.74,0.56-1.2c0.38-2.54,1.33-4.92,2.07-7.36c0.1-0.33,0.26-0.65,0.46-0.94c1.83-2.75,3.68-5.49,5.53-8.22
			c0.19-0.28,0.43-0.59,0.71-0.73c0.53-0.25,0.85-0.67,1.16-1.13c1.55-2.27,3.12-4.54,4.67-6.81c0.17-0.25,0.35-0.49,0.49-0.75
			C201.66,96.61,201.58,96.26,201.23,95.94z"/>
		<g>
			<path class="st19" d="M201.23,95.94c-0.15-0.14-0.31-0.25-0.48-0.36c-0.87-0.6-1.75-1.17-2.59-1.79
				c-0.58-0.42-1.21-0.69-1.88-0.89c-1.82-0.54-3.64-1.1-5.45-1.68c-0.59-0.19-1.17-0.22-1.77-0.21c-1.3,0.01-2.6-0.01-3.9-0.02
				c-0.55-0.01-1.1-0.04-1.65-0.03c-2.52,0.06-4.97,0.53-7.36,1.3c-1.1,0.35-2.18,0.75-3.29,1.05c-0.62,0.17-1.31,0.1-1.91,0.3
				c-0.6,0.2-1.12,0.62-1.68,0.93c-0.13,0.07-0.28,0.11-0.42,0.15c-2.09,0.63-3.99,1.6-5.66,3.01c-0.15,0.13-0.37,0.17-0.76,0.33
				c0.2-0.39,0.27-0.56,0.38-0.73c1.07-1.7,2.32-3.26,3.69-4.73c0.4-0.43,0.86-0.84,1.37-1.14c1.16-0.69,2.37-1.31,3.54-1.97
				c0.13-0.07,0.41-0.15,0.16-0.48c-0.93,0.29-1.92,0.5-2.83,0.89c-0.96,0.4-1.96,0.78-2.7,1.58c-1.42,1.55-2.85,3.09-3.97,4.88
				c-0.5,0.81-1.04,1.59-1.57,2.38c-0.16,0.24-0.37,0.44-0.57,0.68c-0.32-0.14-0.59-0.25-0.85-0.37c0.01-0.58,0.02-1.08,0.04-1.57
				c0.1-2.65,0.06-5.3-0.36-7.93c-0.1-0.6-0.26-1.16-0.52-1.71c-0.62-1.33-1.54-2.46-2.46-3.57c-0.1-0.11-0.26-0.17-0.64-0.41
				c0.36,0.72,0.59,1.16,0.81,1.61c0.44,0.9,0.9,1.79,1.3,2.7c0.2,0.45,0.34,0.94,0.41,1.43c0.15,1.04,0.28,2.09,0.34,3.13
				c0.07,1.23,0.1,2.47-0.11,3.98c-0.24-0.5-0.41-0.74-0.49-1c-0.54-1.9-1.4-3.65-2.65-5.18c-0.58-0.71-0.79-1.61-1.28-2.34
				c-0.49-0.73-1.35-1.15-1.87-1.92c-0.64-0.95-1.35-1.86-2.08-2.75c-1.81-2.22-3.85-4.2-6.32-5.71c-1.11-0.68-2.14-1.48-3.22-2.19
				c-0.46-0.3-0.93-0.59-1.44-0.77c-1.85-0.62-3.71-1.2-5.58-1.79c-0.33-0.11-0.67-0.27-1.01-0.28c-1.55-0.04-3.1-0.06-4.65-0.04
				c-0.54,0-0.82,0.32-0.89,0.84c-0.02,0.15-0.01,0.3-0.01,0.45c-0.02,2.95-0.04,5.9-0.04,8.86c0,0.39,0.05,0.82,0.23,1.15
				c0.27,0.47,0.27,0.95,0.26,1.45c-0.06,3.15-0.1,6.3-0.17,9.45c-0.01,0.4-0.02,0.81-0.14,1.18c-0.77,2.43-1.35,4.93-2.49,7.24
				c-0.23,0.46-0.32,0.94-0.26,1.45c0.07,0.6,0.09,1.2,0.19,1.79c0.18,1.06,0.57,2.03,1.31,2.82c1.26,1.35,2.49,2.75,3.86,4
				c1.11,1.02,2.44,1.71,4.06,1.64c1.25-0.06,2.5,0.02,3.75,0.04c0.23,0,0.5-0.07,0.59,0.28c-0.29,0.56-0.85,0.84-1.35,1.15
				c-0.61,0.38-1.08,0.87-1.54,1.41c-1.13,1.31-1.85,2.85-2.63,4.36c-0.42,0.81-0.28,1.13,0.3,1.88c0.61,0.8,1.61,1.18,2.11,2.09
				c0.08,0.14,0.43,0.15,0.66,0.19c0.84,0.15,1.05,0.52,0.68,1.23c-0.37,0.71-0.72,1.44-1.21,2.06c-0.58,0.73-0.88,1.58-1.12,2.43
				c-0.19,0.65-0.16,1.38-0.14,2.07c0.01,0.26,0.21,0.6,0.43,0.74c1.15,0.74,2.75,0.44,3.57-0.74c0.51-0.73,0.78-1.62,1.46-2.24
				c0.13-0.12,0.23-0.36,0.22-0.54c-0.03-0.65,0.37-1.14,0.64-1.65c0.31-0.59,0.53-1.17,0.54-1.83c0-0.14,0.1-0.27,0.18-0.47
				c0.28-0.02,0.58-0.07,0.87-0.07c0.55,0,1.08-0.02,1.59-0.32c0.28-0.16,0.67-0.16,1.01-0.19c1.23-0.1,2.36-0.4,3.24-1.35
				c0.23-0.25,0.54-0.44,0.85-0.61c0.64-0.34,1.17-0.74,1.4-1.48c0.09-0.27,0.32-0.5,0.53-0.71c0.97-1.01,1.95-2.01,2.92-3.01
				c0.16-0.17,0.27-0.44,0.64-0.27c0.06,1.25,0.7,2.48,0.3,3.8c-0.04,0.12,0.08,0.29,0.1,0.43c0.23,1.42,0.48,2.82,0.95,4.21
				c0.42,1.25,0.99,2.26,2.01,3.06c0.27,0.21,0.56,0.46,0.7,0.75c0.23,0.48,0.61,0.77,1.02,1.07c0.27,0.19,0.51,0.44,0.82,0.71
				c-0.66,0.87-0.77,1.86-0.92,2.84c-0.05,0.34-0.2,0.65-0.28,0.99c-0.07,0.29-0.19,0.6-0.13,0.87c0.15,0.66,0.06,1.31-0.09,1.93
				c-0.2,0.83,0.14,1.46,0.51,2.11c0.41,0.71,1.14,0.98,1.89,1.07c0.72,0.09,1.02-0.53,1.36-1.01c0.7-0.97,0.89-2.1,1-3.24
				c0.09-0.99,0.12-1.99,0.22-2.99c0.07-0.68,0.53-0.9,1.18-0.6c0.17,0.08,0.31,0.23,0.44,0.32c0.49-0.12,0.92-0.26,1.35-0.33
				c0.64-0.11,1.28-0.19,1.92-0.26c0.77-0.09,1.15-0.55,1.26-1.27c0.11-0.79,0.2-1.59,0.28-2.39c0.18-1.81,0.21-3.6-0.62-5.29
				c-0.11-0.22-0.19-0.47-0.23-0.71c-0.03-0.21-0.18-0.49,0.21-0.67c1.18,0.79,2.4,1.55,3.57,2.4c0.8,0.58,1.67,0.84,2.64,0.93
				c0.76,0.07,1.49,0.07,2.23-0.09c1.47-0.31,2.94-0.61,4.41-0.9c1.22-0.24,2.25-0.82,3.11-1.71c0.41-0.43,0.77-0.92,1.17-1.37
				c0.32-0.35,0.49-0.74,0.56-1.2c0.38-2.54,1.33-4.92,2.07-7.36c0.1-0.33,0.26-0.65,0.46-0.94c1.83-2.75,3.68-5.49,5.53-8.22
				c0.19-0.28,0.43-0.59,0.71-0.73c0.53-0.25,0.85-0.67,1.16-1.13c1.55-2.27,3.12-4.54,4.67-6.81c0.17-0.25,0.35-0.49,0.49-0.75
				C201.66,96.61,201.58,96.26,201.23,95.94z M149.97,87.13c0.6,0.29,1.1,0.67,1.5,1.2c1.05,1.4,2.09,2.8,3.13,4.21
				c0.15,0.2,0.29,0.41,0.39,0.64c0.8,1.78,1.59,3.55,2.36,5.33c0.15,0.34,0.39,0.72-0.03,1.17c-0.15-0.11-0.33-0.19-0.43-0.33
				c-0.27-0.36-0.5-0.75-0.74-1.12c-0.83-1.31-1.65-2.62-2.82-3.67c-0.22-0.2-0.41-0.44-0.57-0.69c-1.1-1.69-2.56-3.06-3.97-4.47
				c-0.42-0.42-0.91-0.79-1.44-1.05c-0.95-0.46-1.82-1.04-2.64-1.7c-1.41-1.13-2.96-2.04-4.59-2.8c-0.68-0.32-1.36-0.64-2.14-0.62
				c-0.24,0.01-0.5-0.03-0.54-0.48c0.47-0.1,0.93-0.13,1.4,0.05c1.45,0.56,2.99,0.74,4.48,1.16c0.77,0.22,1.55,0.39,2.32,0.6
				c1.03,0.29,1.93,0.75,2.7,1.53C148.78,86.55,149.39,86.85,149.97,87.13z M135.2,99.5c-0.09-0.16-0.1-0.38-0.13-0.57
				c-0.01-0.04,0.05-0.08,0.09-0.14c0.03-0.01,0.08-0.06,0.11-0.05c1.72,0.48,3.53,0.61,5.23,1.21c1.13,0.39,2.31,0.63,3.47,0.93
				c1.11,0.29,2.24,0.53,3.23,1.15c0.25,0.16,0.54,0.27,0.82,0.36c1.77,0.54,3.53,1.08,5.31,1.6c0.33,0.1,0.69,0.06,1.04,0.09
				c0.44,0.05,0.85,0.15,1.15,0.46c-0.03,0.37-0.27,0.35-0.45,0.34c-0.9-0.03-1.77,0.12-2.66,0.29c-1.36,0.26-2.75,0.38-4.11,0.66
				c-0.57,0.12-1.19,0.02-1.79,0c-1.25-0.05-2.48,0.01-3.71,0.34c-0.61,0.17-1.29,0.14-1.93,0.14c-1.49-0.01-2.98-0.11-4.43,0.47
				c-0.68,0.27-1.46,0.28-2.29,0.42c-0.05-0.19-0.16-0.41-0.17-0.63c-0.02-0.45,0.04-0.9,0-1.35c-0.05-0.54,0.14-0.96,0.48-1.36
				c0.25-0.3,0.46-0.64,0.67-0.98C135.8,101.77,135.86,100.64,135.2,99.5z M135.08,93.74c0-0.73-0.1-1.39-0.71-1.88
				c-0.72-0.58-0.38-1.39-0.42-2.11c-0.04-0.57,0.34-0.91,1-1.2c0.5,0.68,1.1,1.06,1.93,1.05c0.23,0,0.46,0.16,0.69,0.25
				c0.96,0.42,1.93,0.83,2.88,1.27c0.36,0.17,0.7,0.38,1.03,0.6c1.33,0.89,2.69,1.72,4.07,2.52c2.29,1.33,4.43,2.89,6.41,4.67
				c0.41,0.36,0.86,0.69,1.3,1.01c1.1,0.79,2.01,1.78,2.94,2.78c-0.11,0.36-0.22,0.69-0.33,1.05c-0.13,0.01-0.28,0.06-0.41,0.03
				c-0.48-0.1-0.97-0.22-1.45-0.35c-0.53-0.14-1.06-0.29-1.57-0.46c-1.04-0.34-2.09-0.69-3.12-1.06c-0.61-0.22-1.25-0.4-1.8-0.73
				c-0.92-0.55-1.92-0.83-2.94-1.1c-1.84-0.5-3.66-1.02-5.5-1.51c-0.53-0.14-1.08-0.2-1.61-0.3c-1.08-0.2-2.15-0.47-3.11-1.03
				c-0.42-0.25-0.57-0.85-0.19-1.13C135.01,95.5,135.09,94.66,135.08,93.74z M138.8,87.09c0.04-0.7,0.1-1.39-0.44-1.99
				c-0.16-0.18-0.16-0.52-0.23-0.78c0.59-0.19,0.98,0.09,1.36,0.29c1.52,0.76,3,1.6,4.34,2.67c0.94,0.75,1.92,1.44,3,1.98
				c0.48,0.24,0.94,0.58,1.32,0.97c1.34,1.34,2.73,2.65,3.78,4.26c0.14,0.21,0.28,0.42,0.47,0.58c1.36,1.16,2.22,2.69,3.2,4.15
				c0.39,0.58,0.82,1.13,1.23,1.71c0.15,0.21,0.14,0.22-0.08,0.78c-0.09-0.02-0.21,0-0.26-0.06c-1.12-1.14-2.34-2.17-3.56-3.2
				c-1.34-1.14-2.73-2.18-4.13-3.23c-1.2-0.9-2.46-1.7-3.81-2.39c-1.02-0.52-1.94-1.23-2.91-1.85c-0.38-0.24-0.75-0.51-1.15-0.7
				c-1.36-0.62-2.74-1.2-4.21-1.84c0.35-0.57,0.8-0.34,1.17-0.39C138.54,87.95,138.76,87.76,138.8,87.09z M135.61,107.77
				c0.45-0.02,0.92,0.03,1.33-0.11c0.93-0.32,1.87-0.32,2.82-0.29c1.45,0.05,2.88,0.01,4.32-0.33c0.81-0.19,1.69-0.11,2.53-0.11
				c1.2-0.01,2.36-0.08,3.56-0.35c1.25-0.29,2.56-0.32,3.82-0.67c0.31-0.09,0.68,0.01,1.15,0.02c-0.26,0.82-0.69,1.18-1.31,1.37
				c-2.01,0.62-4,1.27-6.02,1.88c-0.96,0.29-1.93,0.48-2.95,0.45c-0.53-0.01-1.09,0.16-1.6,0.35c-1.16,0.43-2.36,0.46-3.55,0.36
				c-0.68-0.06-1.35-0.31-2.01-0.54c-1.08-0.37-2.2-0.63-3.18-1.25c-0.15-0.09-0.24-0.26-0.41-0.45
				C134.63,107.74,135.13,107.79,135.61,107.77z M153.22,111.24c0.16-0.07,0.33-0.1,0.49-0.15c0.02,0.08,0.06,0.22,0.05,0.22
				c-0.2,0.08-0.41,0.15-0.62,0.21c-0.02,0-0.05-0.06-0.08-0.08C153.11,111.37,153.15,111.27,153.22,111.24z M133.8,113.55
				c-1.79-0.03-3.31-0.62-4.52-1.99c-0.69-0.79-1.47-1.5-2.23-2.23c-0.98-0.95-1.84-1.97-2.02-3.4c-0.02-0.19-0.14-0.37-0.2-0.52
				c0.06-0.18,0.08-0.34,0.15-0.47c1.3-2.61,2.09-5.41,2.89-8.2c0.14-0.47,0.21-0.98,0.21-1.47c0.04-3.45,0.06-6.9,0.06-10.35
				c0-0.43-0.1-0.89-0.27-1.29c-0.17-0.38-0.24-0.75-0.23-1.15c0.04-2.55,0.07-5.1,0.11-7.65c0-0.19,0.04-0.39,0.06-0.57
				c1.59-0.3,3.74-0.17,5.05,0.26c1.66,0.55,3.33,1.09,5,1.61c0.53,0.17,1,0.41,1.46,0.74c1.01,0.73,2.05,1.43,3.11,2.09
				c2.19,1.36,4.01,3.1,5.69,5.01c-0.21,0.33-0.38,0.1-0.54,0.05c-1.29-0.39-2.57-0.82-3.87-1.17c-1.25-0.34-2.57-0.49-3.77-0.94
				c-1.03-0.39-2.05-0.39-3.09-0.38c-1.06,0.01-1.15,0.11-1.28,1.2c-0.02,0.15-0.01,0.3-0.02,0.53c0.81,0.33,1.3,0.95,1.52,1.84
				c0.13,0.51,0.43,0.98,0.7,1.58c-0.57,0.15-1.07,0.2-1.48,0.42c-0.42,0.22-0.82,0.3-1.28,0.34c-1.32,0.1-2.15,1-2.21,2.34
				c-0.02,0.5-0.02,1-0.04,1.5c-0.02,0.42,0.13,0.77,0.37,1.11c0.6,0.84,0.58,0.85,0.53,2.16c-0.14,0.1-0.32,0.26-0.53,0.38
				c-0.34,0.2-0.48,0.51-0.5,0.87c-0.03,0.7-0.07,1.4-0.02,2.1c0.02,0.32,0.15,0.71,0.37,0.94c0.47,0.49,0.63,1.13,0.95,1.69
				c0.27,0.49,0.19,0.99-0.13,1.41c-1.63,2.13-1.33,1.82-1.39,4.71c-0.05,2.16-0.02,2.14,1.71,3.68c0.31,0.27,0.58,0.53,0.99,0.6
				c0.1,0.01,0.21,0.03,0.29,0.08c1.14,0.79,2.46,0.76,3.75,0.78c1.15,0.02,2.3-0.01,3.45,0.01c1,0.01,1.96,0,2.93-0.44
				c0.7-0.32,1.54-0.4,2.32-0.5c1.39-0.18,2.77-0.41,4.07-0.96c0.18-0.07,0.38-0.09,0.57-0.13c0.04,0.07,0.08,0.14,0.12,0.21
				c-0.16,0.09-0.31,0.21-0.47,0.27c-1.45,0.55-2.9,1.1-4.35,1.64c-0.14,0.05-0.29,0.12-0.43,0.12c-1.73-0.01-3.28,0.88-4.99,0.97
				c-0.24,0.01-0.5,0.09-0.71,0.21c-0.92,0.51-1.91,0.49-2.92,0.46C137.1,113.59,135.45,113.58,133.8,113.55z M140.17,126.04
				c-0.77,0.09-1.36,0.56-1.39,1.32c-0.04,1-0.49,1.8-0.92,2.63c-0.09,0.17-0.21,0.37-0.21,0.55c0.01,0.55-0.29,0.92-0.63,1.3
				c-0.23,0.25-0.37,0.58-0.54,0.88c-0.33,0.59-0.33,0.59-1.15,1.08c-0.53-1.1-0.31-2.09,0.38-3.07c0.52-0.73,0.9-1.55,1.39-2.29
				c0.46-0.69,0.38-1.43,0.32-2.17c-0.02-0.25-0.26-0.53-0.47-0.7c-0.31-0.24-0.68-0.42-1.04-0.59c-1.02-0.46-1.9-1.08-2.49-2.12
				c0-0.8,0.6-1.41,0.9-2.14c0.3-0.74,0.81-1.32,1.48-1.83c1.15-0.87,2.17-1.89,3.25-2.85c0.4-0.36,0.84-0.67,1.29-0.91
				c0.29,0.3,0.07,0.41-0.04,0.54c-0.34,0.43-0.72,0.81-0.81,1.4c-0.03,0.2-0.26,0.43-0.45,0.52c-0.91,0.42-1.14,1.34-1.59,2.09
				c-0.29,0.48,0.07,1.02,0.65,1.06c0.45,0.03,0.9,0.01,1.35,0.01c0.69,0.01,1.39,0.02,2.25,0.03c-0.04,1.82-0.08,3.46-0.13,5.16
				C141.04,125.97,140.6,125.98,140.17,126.04z M151.77,119.09c-1.55,1.47-3.01,3.01-4.94,4.06c-1.27,0.7-2.65,1.1-3.99,1.92
				c-0.42-1.71,0.02-3.36-0.32-4.97c-1.1-0.54-2.3-0.06-3.48-0.43c0.06-0.21,0.05-0.44,0.15-0.55c0.83-0.86,1.66-1.71,2.42-2.64
				c0.51-0.63,1.3-1.12,2.05-1.45c1.78-0.79,3.62-1.43,5.43-2.17c0.33-0.13,0.57,0.1,0.85,0.06c0.28-0.04,0.56-0.15,0.84-0.23
				c0.02,0.07,0.03,0.13,0.05,0.2c-1.13,1.05-2.25,2.11-3.4,3.13c-0.29,0.26-0.69,0.4-1.02,0.62c-0.79,0.52-1.64,0.98-2.2,1.78
				c-0.12,0.18-0.18,0.4-0.38,0.87c0.93-0.56,1.57-1.03,2.28-1.37c1.38-0.66,2.5-1.6,3.58-2.67c1.02-1.01,2.15-1.91,3.35-2.65
				c0.38,0.21,0.26,0.46,0.2,0.69c-0.29,1.01-0.61,2.01-0.89,3.02c-0.09,0.32-0.18,0.7-0.09,1
				C152.48,118.04,152.24,118.65,151.77,119.09z M162,99.75c1.48-0.93,2.97-1.83,4.48-2.72c0.38-0.23,0.81-0.4,1.23-0.54
				c1.46-0.5,2.94-0.98,4.4-1.48c0.77-0.26,1.53-0.38,2.35-0.22c0.78,0.15,1.57,0.17,2.38,0.03c0.52-0.1,1.1-0.04,1.62,0.09
				c0.87,0.22,1.72,0.51,2.56,0.83c1.3,0.5,2.58,1.05,3.88,1.57c0.28,0.11,0.58,0.16,0.87,0.22c0.55,0.11,1,0.37,1.39,0.89
				c-0.19,0.06-0.35,0.17-0.43,0.12c-1.71-1-3.62-1.02-5.5-1.18c-0.54-0.05-1.1-0.01-1.65,0.01c-1.35,0.05-2.69,0.15-4.03-0.14
				c-0.33-0.07-0.71-0.07-1.04,0c-1.86,0.38-3.76,0.57-5.55,1.24c-0.46,0.18-0.94,0.38-1.43,0.45c-1.81,0.25-3.45,0.98-5.11,1.67
				c-0.39,0.16-0.77,0.49-1.34,0.23C161.19,100.18,161.63,99.98,162,99.75z M160.54,102.36c0.03-0.08,0.15-0.14,0.24-0.16
				c2.3-0.66,4.39-1.97,6.82-2.26c0.29-0.04,0.59-0.13,0.87-0.24c1.73-0.69,3.57-0.98,5.38-1.34c0.65-0.13,1.29-0.19,1.94-0.07
				c1.14,0.21,2.29,0.17,3.44,0.1c1.76-0.11,3.5,0.04,5.24,0.3c0.38,0.06,0.75,0.23,1.45,0.44c-0.49,0.33-0.7,0.55-0.95,0.62
				c-0.88,0.25-1.22,0.99-1.57,1.7c-0.15,0.29-0.06,0.59,0.21,0.81c0.27,0.22,0.56,0.42,0.81,0.66c0.08,0.08,0.06,0.26,0.1,0.48
				c-1.43-0.28-2.8-0.57-4.17-0.81c-0.54-0.1-1.09-0.14-1.64-0.16c-1.55-0.04-3.09-0.13-4.64-0.27c-2.69-0.24-5.39-0.14-8.09,0.15
				c-1.83,0.2-3.69,0.15-5.62,0.82C160.46,102.72,160.48,102.53,160.54,102.36z M182.16,110.85c0.15,0.43,0.04,0.78-0.44,1.17
				c-1.32-0.1-2.55-0.46-3.7-1.11c-0.35-0.19-0.72-0.34-1.1-0.48c-1.98-0.7-3.96-1.39-5.94-2.1c-0.8-0.29-1.6-0.55-2.47-0.59
				c-0.45-0.02-0.9-0.11-1.33-0.23c-1.59-0.44-3.18-0.87-4.75-1.38c-0.79-0.25-1.55-0.65-2.42-1.02c0.09-0.35,0.19-0.71,0.29-1.09
				c1.21-0.33,2.39-0.58,3.58-0.61c1.1-0.02,2.19-0.2,3.28-0.27c1.84-0.11,3.7-0.08,5.55-0.11c0.2,0,0.4-0.02,0.6,0.01
				c1.93,0.27,3.88,0.37,5.83,0.33c0.29-0.01,0.59,0.07,0.89,0.13c0.93,0.18,1.86,0.36,2.79,0.55c0.34,0.07,0.72,0.09,0.99,0.27
				c0.65,0.43,1.31,0.4,2.04,0.18c0.44,0.56,0.5,1.09,0.1,1.66c-0.17,0.25-0.34,0.49-0.51,0.74c-0.23,0.35-0.52,0.61-0.96,0.63
				c-0.79,0.04-1.28,0.49-1.66,1.12c-0.08,0.13-0.15,0.26-0.24,0.38C182.13,109.58,181.92,110.16,182.16,110.85z M177.49,116.83
				c-0.01,0.3,0.08,0.6,0.07,0.89c-0.01,0.24-0.05,0.51-0.18,0.7c-0.4,0.62-0.84,1.22-1.33,1.92c-0.24-0.19-0.43-0.32-0.58-0.49
				c-0.7-0.78-1.36-1.59-2.09-2.33c-0.41-0.42-0.93-0.75-1.42-1.09c-1.23-0.85-2.5-1.64-3.44-2.86c-0.26-0.34-0.68-0.58-1.04-0.84
				c-0.82-0.57-1.74-1.03-2.45-1.71c-0.93-0.89-1.88-1.78-2.79-2.68c-0.75-0.74-1.47-1.48-2.35-2.05c-0.06-0.04-0.06-0.17-0.12-0.35
				c0.45-0.19,0.9-0.06,1.23,0.19c0.75,0.56,1.63,0.74,2.48,1.02c0.95,0.31,1.89,0.64,2.85,0.94c0.57,0.18,1.15,0.4,1.73,0.45
				c1.16,0.11,2.24,0.49,3.31,0.89c1.45,0.54,2.91,1.05,4.37,1.56c0.75,0.26,1.5,0.5,2.2,0.93c0.58,0.35,1.29,0.51,2.14,0.82
				c-0.3,0.29-0.41,0.48-0.57,0.55C177.95,113.99,177.53,115.3,177.49,116.83z M159.36,107.35c0.55,0.13,0.99,0.45,1.31,0.87
				c0.58,0.76,1.19,1.47,2.03,1.97c0.17,0.1,0.32,0.26,0.42,0.42c0.63,1.02,1.61,1.63,2.57,2.25c1.1,0.71,2.1,1.51,2.98,2.48
				c0.56,0.62,1.31,1.08,2.01,1.55c0.99,0.67,2,1.3,2.75,2.29c0.29,0.38,0.78,0.61,1.18,0.9c0.31,0.23,0.63,0.46,0.84,1.11
				c-0.81-0.08-1.42-0.07-1.99-0.22c-1.15-0.3-2.32-0.6-3.41-1.06c-1.1-0.46-2.12-1.15-2.86-2.12c-0.64-0.84-1.35-1.58-2.21-2.21
				c-0.63-0.46-1.15-1.11-1.65-1.73c-1.22-1.52-2.38-3.09-3.59-4.62C159.32,108.69,159.09,108.13,159.36,107.35z M157.98,112.94
				c-0.25,0.16-0.34-0.07-0.44-0.18c-0.08-0.09-0.09-0.25-0.13-0.37c0.06-0.03,0.12-0.07,0.18-0.1c0.09,0.09,0.21,0.16,0.27,0.26
				C157.93,112.66,157.94,112.8,157.98,112.94z M159.26,129.27c-0.17,0.23-0.39,0.43-0.62,0.68c-1.34-1.95-2.51-3.91-3.21-6.09
				c-0.39-1.23-0.56-2.53-0.8-3.81c-0.12-0.61-0.02-1.27,0.46-1.65c0.45-0.35,0.57-0.79,0.73-1.25c0.36-1.08,0.73-2.16,1.09-3.2
				c0.43-0.1,0.53,0.16,0.59,0.39c0.44,1.64,0.88,3.28,1.28,4.93c0.18,0.73,0.37,1.44,0.74,2.11c0.43,0.79,0.75,1.63,1.13,2.45
				c0.09,0.2,0.22,0.39,0.43,0.76c0.23-0.75,0.16-1.28,0.01-1.8c-0.14-0.48-0.27-0.98-0.51-1.41c-0.57-1.02-0.79-2.15-1-3.28
				c-0.13-0.68-0.35-1.35-0.53-2.03c-0.06-0.23-0.1-0.46-0.15-0.73c0.6,0.05,0.6,0.67,1.1,0.79c0.35,0.09,0.59,0.61,0.86,0.96
				c0.28,0.36,0.53,0.73,0.78,1.1c0.26,0.37,0.51,0.74,0.76,1.11c0.22,0.33,0.37,0.72,0.63,1.02c0.8,0.89,0.96,2.07,1.44,3.1
				c0.06,0.13,0.07,0.29,0.06,0.44c-0.05,1.01,0.18,1.98,0.39,2.95c0.06,0.26-0.03,0.54-0.07,0.96c-0.35-0.16-0.57-0.24-0.77-0.36
				c-0.38-0.24-0.74-0.51-1.12-0.76c-1.21-0.8-1.26-0.79-2.13,0.41C160.29,127.8,159.79,128.55,159.26,129.27z M167.94,127.74
				c0.15,0.67,0.17,1.38,0.19,2.08c0.04,1.25-0.22,2.47-0.47,3.65c-0.97,0.56-1.96,0.56-2.95,0.49c-0.25-0.02-0.49-0.09-0.74-0.14
				c-1.64-0.32-2.1,0.33-2.57,1.96c-0.24,0.84-0.16,1.78-0.23,2.67c-0.01,0.15,0,0.3-0.01,0.45c-0.08,1.36-0.22,1.6-1.52,2.59
				c-0.09-0.36-0.25-0.69-0.25-1.02c0.01-0.74,0.21-1.48,0.01-2.22c-0.02-0.09-0.01-0.21,0.04-0.29c0.48-0.75,0.41-1.62,0.57-2.44
				c0.06-0.28,0.18-0.56,0.31-0.82c0.68-1.3,0.59-1.79-0.54-2.68c-0.16-0.12-0.32-0.24-0.48-0.36c-0.04-0.03-0.05-0.08-0.17-0.29
				c0.78-1.19,1.54-2.35,2.31-3.52c0.13-0.2,0.29-0.39,0.44-0.6c0.63,0.1,1,0.54,1.46,0.82c0.55,0.34,1.06,0.75,1.61,1.09
				c0.42,0.26,1,0.04,1.06-0.43c0.12-0.87,0.31-1.73-0.03-2.63c-0.38-1.01-0.63-2.08-0.89-3.13c-0.04-0.15,0.2-0.37,0.38-0.67
				c0.26,0.25,0.48,0.39,0.58,0.59c0.36,0.65,0.74,1.3,1,2C167.43,125.81,167.72,126.77,167.94,127.74z M199.38,97.71
				c-1.32,1.95-2.64,3.89-3.96,5.83c-0.2,0.29-0.39,0.67-0.67,0.78c-0.77,0.3-1.14,0.95-1.56,1.56c-1.76,2.55-3.51,5.11-5.27,7.66
				c-0.46,0.66-0.85,1.35-1.05,2.14c-0.15,0.58-0.36,1.14-0.56,1.71c-0.58,1.65-1.07,3.33-1.36,5.07c-0.09,0.54-0.22,1.07-0.34,1.59
				c-0.14,0.12-0.27,0.19-0.37,0.3c-1.09,1.16-2.52,1.55-4.02,1.78c-1.04,0.16-2.08,0.32-3.1,0.55c-1.51,0.34-2.88,0.05-4.16-0.75
				c-1.14-0.72-2.25-1.49-3.38-2.24c-0.5-0.33-0.99-0.67-1.5-1c-0.84-0.55-1.52-1.22-2.16-2.02c-1.02-1.28-1.93-2.69-3.29-3.67
				c-0.2-0.14-0.36-0.35-0.51-0.55c-0.94-1.35-1.88-2.71-2.81-4.07c-0.07-0.11-0.09-0.26-0.13-0.39c0.07-0.03,0.14-0.06,0.21-0.1
				c0.16,0.18,0.35,0.35,0.48,0.56c0.65,1.09,1.59,1.92,2.47,2.8c0.81,0.81,1.66,1.57,2.28,2.55c0.18,0.29,0.47,0.52,0.75,0.72
				c1.6,1.12,3.21,2.21,4.82,3.32c0.72,0.5,1.54,0.62,2.36,0.85c1.07,0.29,2.06,0.13,3.08-0.01c0.58-0.08,1.02-0.37,1.35-0.86
				c0.59-0.87,1.18-1.74,1.77-2.61c0.48-0.7,0.48-1.51,0.51-2.31c0.01-0.3-0.06-0.6-0.05-0.9c0.02-0.42,0.19-0.79,0.56-1.01
				c0.51-0.3,1.03-0.65,1.59-0.81c0.69-0.19,1.13-0.58,1.49-1.15c0.16-0.25,0.32-0.51,0.5-0.75c0.48-0.65,0.82-1.3,0.13-1.96
				c0.4-0.87,0.79-1.53,1.72-1.66c0.48-0.07,0.79-0.4,1.03-0.8c0.21-0.34,0.4-0.71,0.67-1c0.73-0.79,0.55-1.66,0.29-2.54
				c-0.05-0.18-0.16-0.41-0.32-0.49c-0.96-0.53-1.22-1.66-2.16-2.27c0.53-0.9,1.53-1.02,2.2-1.59c0.32-0.27,0.93-0.19,1.6-0.3
				c-0.09,0.06,0.01,0.02,0.07-0.05c0.79-1.1,0.63-1.46-0.44-2.15c-0.8-0.52-1.56-1.03-2.52-1.27c-1.06-0.26-2.08-0.71-3.08-1.15
				c-1.56-0.69-3.15-1.27-4.83-1.56c0.03-0.42,0.34-0.36,0.54-0.41c2.6-0.61,5.22-0.92,7.88-0.66c0.5,0.05,1.01,0.09,1.5,0.03
				c1.53-0.18,2.96,0.12,4.4,0.65c1.12,0.42,2.3,0.71,3.46,1.01c0.88,0.23,1.7,0.58,2.43,1.14c0.67,0.51,1.47,0.85,2.06,1.54
				C199.74,97.12,199.58,97.42,199.38,97.71z"/>
			<path class="st19" d="M149.04,113.64c-0.06-0.05-0.15-0.15-0.17-0.13c-0.07,0.05-0.13,0.13-0.19,0.2
				c0.06,0.05,0.13,0.11,0.19,0.16C148.93,113.79,148.98,113.71,149.04,113.64z"/>
			<path class="st19" d="M160,117.07c-0.02,0.08-0.01,0.18,0,0.27c0.08,0,0.16-0.01,0.25-0.02c-0.01-0.09-0.01-0.19-0.04-0.27
				C160.19,117.03,160.01,117.05,160,117.07z"/>
		</g>
	</g>
</g>
<g>
	<g>
		<path class="st22" d="M108.23,73.7c0.14,0.6,0.08,1.29-0.16,2.07c-0.24,0.78-0.69,1.59-1.35,2.47c-0.64,0.86-1.32,1.56-2.04,2.1
			c-0.72,0.55-1.44,0.9-2.15,1.06c-0.71,0.16-1.37,0.1-1.97-0.19c0.63-0.97,0.95-1.45,1.6-2.4c0.46,0.23,1,0.22,1.6,0
			c0.6-0.22,1.16-0.69,1.69-1.39c0.47-0.63,0.72-1.21,0.74-1.74c0.02-0.53-0.15-0.95-0.53-1.25c-0.33-0.26-0.7-0.35-1.11-0.26
			c-0.41,0.09-0.83,0.28-1.25,0.57c-0.42,0.29-0.97,0.72-1.63,1.3c-0.81,0.71-1.49,1.29-2.06,1.72c-0.57,0.43-1.17,0.72-1.8,0.88
			c-0.63,0.16-1.25,0.05-1.85-0.34c-0.53-0.34-0.87-0.84-1-1.5c-0.13-0.66-0.06-1.44,0.23-2.33c0.29-0.89,0.78-1.81,1.48-2.75
			c1.1-1.49,2.23-2.46,3.35-2.93c1.12-0.46,2.08-0.43,2.88,0.06c-0.77,0.92-1.16,1.39-1.91,2.34c-0.42-0.18-0.91-0.18-1.47,0.03
			c-0.56,0.21-1.11,0.67-1.64,1.39c-0.48,0.65-0.75,1.26-0.81,1.82c-0.06,0.56,0.12,0.98,0.54,1.27c0.33,0.23,0.69,0.28,1.09,0.16
			c0.4-0.12,0.81-0.34,1.22-0.66c0.41-0.32,0.96-0.76,1.63-1.32c0.83-0.71,1.56-1.26,2.17-1.64c0.61-0.38,1.23-0.59,1.87-0.65
			c0.64-0.06,1.24,0.16,1.8,0.64C107.81,72.61,108.09,73.1,108.23,73.7z"/>
		<path class="st22" d="M109.82,67.41c1.3,1.27,1.95,1.9,3.26,3.17c-0.69,0.71-1.02,1.07-1.69,1.81c-3.46-3.16-5.19-4.74-8.64-7.9
			c1.61-1.78,2.44-2.64,4.14-4.28c1.44-1.39,2.78-2.15,3.95-2.32c1.17-0.17,2.1,0.2,2.82,1.05c0.71,0.85,0.9,1.82,0.6,2.93
			c-0.3,1.11-1.11,2.25-2.4,3.51C111.03,66.18,110.62,66.58,109.82,67.41z M111.61,60.73c-0.44-0.49-0.98-0.7-1.61-0.59
			c-0.63,0.1-1.38,0.57-2.24,1.4c-0.79,0.77-1.18,1.17-1.96,1.97c1.16,1.13,1.75,1.7,2.91,2.83c0.74-0.77,1.11-1.14,1.87-1.88
			C112.14,62.94,112.51,61.73,111.61,60.73z"/>
		<path class="st22" d="M126.34,56.55c-2.16,1.36-3.23,2.09-5.3,3.64c0.23,1.1,0.35,1.64,0.61,2.72c-0.81,0.63-1.22,0.95-2.01,1.61
			c-1.22-4.97-1.69-7.52-2.33-12.73c1.02-0.73,1.54-1.08,2.59-1.77c4.6,2.49,6.8,3.86,10.94,6.82c-0.88,0.5-1.31,0.75-2.18,1.28
			C127.74,57.47,127.28,57.16,126.34,56.55z M124.98,55.68c-2.04-1.29-3.09-1.91-5.23-3.1c0.33,2.43,0.53,3.63,1,6.01
			C122.4,57.37,123.25,56.79,124.98,55.68z"/>
		<path class="st22" d="M146.09,50.23c-1.32-0.62-2-0.92-3.38-1.49c0.02,0.11,0.02,0.31,0,0.62c0.02,0.63-0.21,1.22-0.68,1.79
			c-0.47,0.57-1.1,1.01-1.91,1.33c-0.82,0.33-1.59,0.5-2.33,0.49c-0.74,0-1.39-0.16-1.95-0.49c-0.57-0.32-1-0.79-1.29-1.41
			c-0.3-0.63-0.4-1.25-0.29-1.86c0.11-0.61,0.39-1.17,0.85-1.66s1.04-0.89,1.74-1.18c0.06-0.02,0.09-0.04,0.14-0.06
			c-0.15-0.07-0.23-0.1-0.38-0.17c-0.46-0.17-0.84-0.36-1.15-0.59c-0.31-0.22-0.55-0.52-0.71-0.9c-0.18-0.43-0.21-0.89-0.06-1.4
			c0.15-0.51,0.48-1,1-1.48c0.52-0.48,1.22-0.89,2.08-1.21c1.29-0.48,2.36-0.6,3.19-0.39c0.83,0.21,1.43,0.69,1.83,1.25
			c0.21,0.3,0.41,0.66,0.51,1.07c-0.93,0.29-1.39,0.45-2.3,0.76c-0.02-0.07-0.04-0.1-0.06-0.17c-0.05-0.16-0.11-0.27-0.14-0.34
			c-0.19-0.39-0.46-0.72-0.89-0.85c-0.43-0.13-0.94-0.09-1.53,0.13c-0.55,0.2-0.93,0.48-1.15,0.83c-0.22,0.35-0.26,0.68-0.13,1.01
			c0.11,0.28,0.28,0.49,0.51,0.64c0.23,0.15,0.55,0.3,0.96,0.46c4.14,1.59,6.11,2.51,9.8,4.56C147.46,49.81,147,49.94,146.09,50.23z
			 M140.92,49.89c0.29-0.48,0.34-0.97,0.15-1.47c-0.13-0.35-0.37-0.63-0.71-0.82c-0.34-0.2-0.74-0.3-1.19-0.31
			c-0.45-0.01-0.88,0.07-1.3,0.24c-0.65,0.26-1.11,0.64-1.38,1.11c-0.27,0.47-0.28,0.98-0.04,1.53c0.25,0.56,0.66,0.89,1.25,1.02
			c0.58,0.13,1.19,0.06,1.83-0.2C140.17,50.73,140.63,50.37,140.92,49.89z"/>
		<path class="st22" d="M169.05,35.08c0.05,4.61,0.07,6.91,0.12,11.52c-0.93,0.01-1.39,0.02-2.32,0.06
			c-0.14-3.45-0.21-5.18-0.34-8.63c-1.66,3.52-2.41,5.3-3.71,8.89c-0.81,0.07-1.21,0.11-2.01,0.21c-2.03-3.24-3.12-4.84-5.49-7.95
			c0.58,3.41,0.87,5.11,1.44,8.52c-0.91,0.15-1.37,0.23-2.27,0.41c-0.9-4.52-1.35-6.78-2.25-11.3c1.26-0.25,1.89-0.36,3.15-0.56
			c2.7,3.29,3.95,4.99,6.23,8.46c1.49-3.85,2.35-5.76,4.27-9.53C167.13,35.11,167.77,35.1,169.05,35.08z"/>
		<path class="st22" d="M180.76,44.76c-2.47-0.32-3.71-0.44-6.19-0.57c-0.51,0.99-0.75,1.48-1.23,2.48
			c-0.99-0.04-1.48-0.05-2.47-0.06c2.15-4.58,3.38-6.85,6.14-11.26c1.21,0.09,1.81,0.15,3.02,0.28c1.88,4.84,2.66,7.29,3.92,12.19
			c-0.97-0.17-1.46-0.25-2.44-0.39C181.22,46.36,181.07,45.82,180.76,44.76z M180.27,43.23c-0.72-2.29-1.11-3.44-1.96-5.71
			c-1.26,2.08-1.86,3.13-2.99,5.25C177.31,42.9,178.3,42.99,180.27,43.23z"/>
		<path class="st22" d="M194.73,48.9c-0.48,0.36-1.1,0.58-1.85,0.67c-0.75,0.09-1.6,0-2.57-0.25c-0.94-0.25-1.75-0.59-2.44-1.03
			c-0.69-0.45-1.22-0.96-1.57-1.55c-0.36-0.59-0.51-1.22-0.45-1.88c1.01,0.19,1.52,0.3,2.52,0.53c-0.04,0.51,0.13,1,0.51,1.46
			c0.38,0.46,0.95,0.79,1.73,0.99c0.69,0.18,1.27,0.18,1.73-0.01c0.47-0.19,0.77-0.52,0.91-0.98c0.12-0.4,0.07-0.78-0.14-1.12
			c-0.21-0.34-0.51-0.65-0.9-0.91c-0.39-0.27-0.94-0.6-1.64-0.97c-0.86-0.46-1.58-0.85-2.11-1.21c-0.54-0.36-0.97-0.79-1.3-1.31
			s-0.43-1.13-0.29-1.83c0.12-0.62,0.43-1.12,0.95-1.5c0.51-0.38,1.19-0.62,2.04-0.7c0.84-0.08,1.78,0,2.81,0.26
			c1.63,0.41,2.84,1.06,3.61,1.89c0.77,0.83,1.07,1.72,0.91,2.64c-1.06-0.34-1.59-0.5-2.66-0.81c0.02-0.45-0.15-0.9-0.51-1.32
			c-0.36-0.43-0.94-0.75-1.73-0.95c-0.71-0.18-1.32-0.18-1.81-0.02c-0.49,0.16-0.79,0.5-0.91,0.99c-0.09,0.39-0.02,0.74,0.22,1.06
			c0.23,0.32,0.55,0.6,0.95,0.85c0.4,0.25,0.96,0.58,1.66,0.96c0.88,0.48,1.59,0.92,2.12,1.33c0.53,0.4,0.92,0.89,1.19,1.45
			c0.27,0.56,0.28,1.19,0.05,1.9C195.55,48.09,195.21,48.54,194.73,48.9z"/>
		<path class="st22" d="M205.9,53.39c-0.53,0.29-1.18,0.41-1.94,0.38c-0.76-0.03-1.6-0.24-2.53-0.64c-0.9-0.39-1.66-0.85-2.28-1.39
			c-0.62-0.55-1.07-1.13-1.34-1.77c-0.27-0.64-0.33-1.28-0.18-1.93c0.98,0.34,1.46,0.52,2.43,0.9c-0.12,0.5-0.02,1.01,0.29,1.52
			c0.31,0.52,0.83,0.93,1.58,1.24c0.66,0.28,1.24,0.37,1.73,0.25c0.49-0.12,0.84-0.39,1.05-0.83c0.18-0.38,0.19-0.76,0.02-1.13
			c-0.16-0.37-0.42-0.72-0.77-1.04c-0.35-0.32-0.84-0.73-1.49-1.21c-0.79-0.58-1.44-1.08-1.93-1.51c-0.48-0.43-0.85-0.93-1.11-1.49
			c-0.25-0.56-0.26-1.18-0.02-1.86c0.21-0.59,0.6-1.05,1.16-1.35c0.57-0.3,1.28-0.43,2.13-0.39c0.85,0.05,1.77,0.27,2.76,0.68
			c1.56,0.65,2.67,1.48,3.32,2.42c0.65,0.94,0.81,1.87,0.52,2.76c-1.01-0.5-1.51-0.74-2.53-1.21c0.09-0.45-0.01-0.91-0.31-1.39
			s-0.83-0.88-1.58-1.2c-0.68-0.29-1.29-0.38-1.8-0.29c-0.51,0.09-0.86,0.37-1.05,0.85c-0.14,0.37-0.12,0.73,0.06,1.08
			c0.18,0.35,0.46,0.68,0.82,0.99c0.36,0.31,0.87,0.72,1.51,1.2c0.8,0.61,1.45,1.16,1.92,1.64c0.46,0.48,0.79,1.02,0.97,1.62
			c0.18,0.6,0.11,1.23-0.23,1.89C206.83,52.71,206.43,53.11,205.9,53.39z"/>
		<path class="st22" d="M216.66,58.55c-2.11-1.47-3.19-2.15-5.4-3.43c-0.91,0.65-1.36,0.97-2.25,1.64c-0.88-0.49-1.32-0.73-2.21-1.2
			c4.04-3.1,6.19-4.54,10.7-7.19c1.06,0.65,1.59,0.99,2.63,1.68c-0.48,5.21-0.87,7.78-1.94,12.77c-0.82-0.63-1.23-0.93-2.06-1.53
			C216.36,60.2,216.47,59.65,216.66,58.55z M216.92,56.95c0.38-2.39,0.54-3.6,0.8-6.03c-2.1,1.26-3.12,1.92-5.11,3.28
			C214.36,55.25,215.22,55.8,216.92,56.95z"/>
		<path class="st22" d="M235.83,64.33c0.44,1.48,0.34,2.79-0.26,3.9c-0.76-0.87-1.15-1.3-1.93-2.14c0.21-0.7,0.16-1.49-0.16-2.36
			c-0.32-0.87-0.9-1.72-1.74-2.53c-0.77-0.74-1.59-1.26-2.43-1.56c-0.85-0.3-1.66-0.36-2.42-0.18c-0.76,0.18-1.41,0.6-1.96,1.25
			c-0.58,0.69-0.9,1.42-0.98,2.2c-0.08,0.78,0.06,1.55,0.43,2.34c0.37,0.78,0.93,1.53,1.68,2.26c0.92,0.89,1.91,1.47,2.99,1.73
			c1.08,0.26,2.08,0.13,2.98-0.43c-1.62-1.77-2.45-2.62-4.16-4.25c0.38-0.41,0.57-0.61,0.96-1.01c2.39,2.27,3.54,3.47,5.74,6.01
			c-0.54,0.48-0.82,0.71-1.36,1.19c-0.77,0.43-1.64,0.62-2.59,0.61c-0.96-0.02-1.94-0.26-2.96-0.73c-1.02-0.46-1.99-1.15-2.94-2.06
			c-1.06-1.02-1.85-2.07-2.37-3.2c-0.52-1.13-0.75-2.23-0.67-3.32c0.08-1.1,0.47-2.11,1.19-3.02c0.72-0.91,1.62-1.52,2.71-1.79
			c1.09-0.28,2.29-0.2,3.57,0.25c1.29,0.45,2.56,1.26,3.78,2.43C234.42,61.35,235.39,62.85,235.83,64.33z"/>
		<path class="st22" d="M241.04,71.47c-1.13,0.86-1.69,1.29-2.82,2.16c1.52,2,2.25,3.03,3.66,5.18c-0.49,0.32-0.73,0.48-1.22,0.8
			c-1.38-2.11-2.1-3.13-3.6-5.09c-1.15,0.88-1.73,1.33-2.88,2.21c1.6,2.1,2.36,3.19,3.82,5.46c-0.52,0.33-0.78,0.5-1.3,0.83
			c-1.99-3.1-3.06-4.57-5.31-7.34c3.62-2.97,5.43-4.45,9.06-7.41c2.58,3.18,3.81,4.87,6.1,8.43c-0.51,0.33-0.77,0.49-1.28,0.83
			C243.66,75,242.81,73.79,241.04,71.47z"/>
	</g>
</g>
</svg>
