<?xml version="1.0" encoding="utf-8"?>
<!-- Generator: Adobe Illustrator 27.8.1, SVG Export Plug-In . SVG Version: 6.00 Build 0)  -->
<svg version="1.1" id="Layer_1" xmlns="http://www.w3.org/2000/svg" xmlns:xlink="http://www.w3.org/1999/xlink" x="0px" y="0px"
	 viewBox="0 0 348 228" style="enable-background:new 0 0 348 228;" xml:space="preserve">
<style type="text/css">
	.st0{fill:#D6EADE;}
	.st1{fill:#03487C;}
	.st2{fill:#1B1B4C;}
	.st3{fill:none;}
	.st4{fill:#50A4FF;}
	.st5{font-family:'Airstrike';}
	.st6{font-size:21.7529px;}
	.st7{fill-rule:evenodd;clip-rule:evenodd;fill:#204F7A;}
	.st8{fill-rule:evenodd;clip-rule:evenodd;fill:#50A4FF;}
	.st9{fill:#002649;}
	.st10{fill:#E6E7E8;stroke:#CFCFCF;stroke-width:0.1061;}
	.st11{fill:#333333;}
	.st12{fill-rule:evenodd;clip-rule:evenodd;fill:#277FC1;}
	.st13{fill-rule:evenodd;clip-rule:evenodd;fill:#083D6D;}
	.st14{fill:#DDB462;}
	
		.st15{clip-path:url(#SVGID_00000095320125576966960470000012980862009617376687_);fill:url(#SVGID_00000061466758111670247390000003540855485773481636_);}
	.st16{fill:#FFFFFF;}
	.st17{fill:url(#SVGID_00000132794716395415303970000017286712943198579083_);}
	.st18{fill:#224685;}
	.st19{fill:#FFC73B;}
	.st20{fill:#11233F;}
	.st21{fill:#5267FF;}
	.st22{fill-rule:evenodd;clip-rule:evenodd;fill:#72342E;}
	.st23{fill:#72342E;}
	.st24{fill:#FFF2E2;}
	.st25{fill:#FFF2E2;stroke:#72342E;stroke-width:0.75;stroke-miterlimit:10;}
	.st26{fill:#FFCC99;}
	.st27{fill:#469CB2;}
	.st28{fill:url(#XMLID_00000036248365209543912090000004910230810663938466_);}
	.st29{fill:url(#XMLID_00000079453747499070797010000002850276275153104269_);}
	.st30{fill:url(#XMLID_00000085963449841868033720000015007529952436317353_);}
	.st31{fill:url(#XMLID_00000103242027151293299020000018414469593751909028_);}
	.st32{fill:url(#XMLID_00000133519062220163037700000015021611313531123603_);}
	.st33{fill:url(#XMLID_00000163776271987491301810000012741993796602277273_);}
	.st34{fill:url(#XMLID_00000182500599418026318580000009120785499645424010_);}
	.st35{fill:url(#XMLID_00000007428055659889401960000014526817284313124769_);}
	.st36{fill:url(#XMLID_00000108292137966031644860000002635209377062758051_);}
	.st37{fill:url(#XMLID_00000090999892730958122460000012748790705995879332_);}
	.st38{fill:url(#XMLID_00000139260540686211969000000000748937019868967582_);}
	.st39{fill:url(#XMLID_00000125598772327865389760000012305429564112074891_);}
	.st40{fill:url(#XMLID_00000159435055825629908040000010597225321356898234_);}
	.st41{fill:url(#XMLID_00000096027864629794483460000015652057044375559819_);}
	.st42{fill:url(#XMLID_00000094595791696662734340000014783495293155437492_);}
	.st43{fill:url(#SVGID_00000143601549933131261650000013414816956001096623_);}
	.st44{fill:url(#SVGID_00000017483096771136297800000017377127087055603585_);}
	.st45{fill:url(#SVGID_00000155835842231246274420000012770338347553610403_);}
	.st46{fill:url(#SVGID_00000049920278194343977230000015181526449134407577_);}
	.st47{fill:url(#SVGID_00000013177840331865861620000017620953098423983269_);}
	.st48{fill:url(#SVGID_00000103961877802752519190000004373928399343345052_);}
	.st49{fill:url(#SVGID_00000009577084290420829070000006722342637039811754_);}
	.st50{fill:url(#SVGID_00000119102385108901818780000005386518649630934698_);}
	.st51{fill:url(#SVGID_00000031912967414041344830000007180891432488688303_);}
	.st52{fill:url(#SVGID_00000011732782452865228990000008288410516772588456_);}
	.st53{fill:url(#SVGID_00000075854201398148090150000002944854906282943109_);}
	.st54{fill:url(#SVGID_00000156559208088637614770000002281887488400969864_);}
	.st55{fill:url(#SVGID_00000143604367138767253100000014146250432210740144_);}
	.st56{fill:url(#SVGID_00000037662471713602430940000009220644598540496043_);}
	.st57{fill:#30325E;}
	.st58{fill:#FF7859;}
	.st59{fill:#FFD550;}
	.st60{fill:#00C3AD;}
	.st61{fill:#FF4653;}
	.st62{fill:#D8CE19;}
	.st63{fill:#FFE4D2;}
	.st64{fill:#A2E0EB;}
	.st65{fill:#1B3493;}
	.st66{fill:none;stroke:#FFFFFF;stroke-width:2;stroke-linecap:round;stroke-linejoin:round;stroke-miterlimit:10;}
	.st67{fill:#F15A24;}
	.st68{fill:#F7931E;}
	.st69{fill:#58595B;}
	.st70{fill:#114E15;}
	.st71{fill:#013D01;}
	.st72{fill:#E9C608;}
	.st73{fill:#043B00;}
	.st74{fill:#D8A43E;}
	.st75{clip-path:url(#SVGID_00000152252906308743957640000015601508433158739129_);}
	.st76{fill:#F49630;}
	.st77{clip-path:url(#SVGID_00000142170421522865124540000004348681896898485148_);}
	.st78{clip-path:url(#SVGID_00000158724267102310817000000004635194557230670493_);}
	.st79{clip-path:url(#SVGID_00000121997771200006067310000015285336097405184417_);}
	.st80{clip-path:url(#SVGID_00000114787108372293216850000000141511458367297705_);}
	.st81{fill-rule:evenodd;clip-rule:evenodd;fill:#FF6600;}
	.st82{fill-rule:evenodd;clip-rule:evenodd;fill:#05174F;}
	.st83{fill:#05174F;}
	.st84{opacity:0.42;fill:url(#SVGID_00000101816656999707505990000004777560270655896747_);enable-background:new    ;}
	.st85{opacity:0.42;fill:url(#SVGID_00000168086184246260511930000001427468191329192328_);enable-background:new    ;}
	.st86{fill:url(#SVGID_00000141446950044521066550000015501365555458493824_);}
	.st87{fill:url(#SVGID_00000055670234282404338000000007416364082606749581_);}
	.st88{opacity:0.64;fill:url(#SVGID_00000039125058242465234430000006577883161889470865_);enable-background:new    ;}
	.st89{opacity:0.75;fill:url(#SVGID_00000104671830973421487360000006951982249768646060_);enable-background:new    ;}
	.st90{fill:url(#SVGID_00000031928452904040035400000006227642300129774227_);}
	.st91{fill:url(#SVGID_00000079460236702087561690000001257245959039165857_);}
	.st92{opacity:0.76;fill:url(#SVGID_00000143580808144383940720000002894112041732122811_);enable-background:new    ;}
	.st93{opacity:0.75;fill:url(#SVGID_00000096774879756228024390000013271426300049342134_);enable-background:new    ;}
	.st94{fill:url(#SVGID_00000166661826466821310470000015715921236839448212_);}
	.st95{opacity:0.42;fill:url(#SVGID_00000024703495659792179480000002405816167412044986_);enable-background:new    ;}
	.st96{opacity:0.42;fill:url(#SVGID_00000064349704689570672290000001620318346666951312_);enable-background:new    ;}
	.st97{clip-path:url(#SVGID_00000156580739276371320950000007454589310199311235_);}
	.st98{fill:#1ED7FE;}
	.st99{clip-path:url(#SVGID_00000087402996965063807800000011844582938249874333_);}
	.st100{clip-path:url(#SVGID_00000091737535411033052060000008406215047820491955_);}
	.st101{fill:#000056;}
	.st102{clip-path:url(#SVGID_00000150100632541992884530000003833626754266123424_);}
	.st103{fill:#053272;}
	.st104{fill:none;stroke:#053272;stroke-width:4;stroke-miterlimit:10;}
	.st105{fill:url(#SVGID_00000015349704007461835450000005593769682182149002_);}
	.st106{fill:url(#SVGID_00000011743177548945018150000003139624224846333113_);}
	.st107{fill:url(#SVGID_00000047781903686707621280000013234554971157525153_);}
	.st108{fill:url(#SVGID_00000021110934651361723480000006057092184811598477_);}
	.st109{fill:url(#SVGID_00000071521900390690494940000000745510227970370949_);}
	.st110{fill:url(#SVGID_00000117657544404709659590000000711719033258402984_);}
	.st111{fill:url(#SVGID_00000056394418703861567620000008892923969097714601_);}
	.st112{fill:url(#SVGID_00000159432959093312465500000005085408820186045620_);}
	.st113{fill:url(#SVGID_00000029727198585214653830000010867188030233756349_);}
	.st114{fill:url(#SVGID_00000150071240001936820160000007083765865906348679_);}
	.st115{fill:url(#SVGID_00000068662214341150495070000014890975337189325969_);}
	.st116{fill:url(#SVGID_00000152967484408251775770000007385541766825640383_);}
	.st117{fill:url(#SVGID_00000120553155101531701600000000268464329913522335_);}
	.st118{fill:url(#SVGID_00000173146776211748360120000002762184017257044910_);}
	.st119{fill:url(#SVGID_00000160890165628009918960000012833238971901616272_);}
	.st120{fill:url(#SVGID_00000093174838780644552170000003795137192538152613_);}
	.st121{fill:url(#SVGID_00000137119822752669767500000018340972825926269073_);}
	.st122{fill:url(#SVGID_00000024698167591197796400000015717578444880112308_);}
	.st123{fill:url(#SVGID_00000049181275419184384790000005024862062209338537_);}
	.st124{fill:url(#SVGID_00000068636677220047915130000013987430877920831383_);}
	.st125{fill:url(#SVGID_00000124875229330826428790000012202068160871208891_);}
	.st126{fill:url(#SVGID_00000015339702726762038300000016654303937152895934_);}
	.st127{fill:url(#SVGID_00000054252106763164921810000016029760443925579932_);}
	.st128{fill:url(#SVGID_00000000190027239030482590000018006295248895614857_);}
	.st129{fill:url(#SVGID_00000182506393167022000520000006770392622808689558_);}
	.st130{fill:url(#SVGID_00000060744605625555712510000006328471605332230795_);}
	.st131{fill:url(#SVGID_00000107573360205917515850000013068058177622380955_);}
	.st132{fill:url(#SVGID_00000100347647440668412840000018344519917724010405_);}
	.st133{fill:url(#SVGID_00000023963642274370176200000016967859858539919517_);}
	.st134{fill:none;stroke:#FEF73D;stroke-linecap:round;stroke-miterlimit:10;}
	.st135{fill:none;stroke:#FF189C;stroke-miterlimit:10;}
	.st136{fill:none;stroke:#00EFF1;stroke-linecap:round;stroke-miterlimit:10;}
	.st137{fill:#00EFF1;}
	.st138{fill:#FFA022;}
	.st139{fill:#0C103A;}
	.st140{fill-rule:evenodd;clip-rule:evenodd;fill:#5D9541;}
	.st141{fill-rule:evenodd;clip-rule:evenodd;fill:#F06021;}
	.st142{fill-rule:evenodd;clip-rule:evenodd;fill:#69BC60;}
	.st143{fill-rule:evenodd;clip-rule:evenodd;fill:#F6951C;}
	.st144{fill:#F6951C;}
	.st145{fill:url(#SVGID_00000178897249808216210520000016577916628279798179_);}
	.st146{fill:url(#SVGID_00000176727272228749860220000008005373013673308339_);}
	.st147{fill:url(#SVGID_00000153704634362902497600000006636841805848147107_);}
	.st148{opacity:0.93;fill:url(#SVGID_00000056419955605620126570000000058602652204697481_);}
	.st149{opacity:0.93;fill:url(#SVGID_00000057116191764790360750000007781364798038486160_);}
	.st150{opacity:0.93;fill:url(#SVGID_00000131353569759721276950000014474244716222404002_);}
	.st151{opacity:0.93;fill:url(#SVGID_00000159462830365425962070000015110886914085928336_);}
	.st152{fill:url(#SVGID_00000096762744185435014430000013212144867442103214_);}
	.st153{fill:url(#SVGID_00000124882190695609399890000005936897372116252037_);}
	.st154{fill:url(#SVGID_00000119115479531810043740000003226785082616649350_);}
	.st155{fill:url(#SVGID_00000183946540464748855870000005818084300558953896_);}
	.st156{fill:url(#SVGID_00000098214400753876773140000003712390035674241162_);}
	.st157{fill:url(#SVGID_00000097502864357279346020000006862317151445607059_);}
	.st158{fill:url(#SVGID_00000042013960330964369170000016081373745053579672_);}
	.st159{fill:url(#SVGID_00000010999473651915052190000006979070846200650667_);}
	.st160{fill:url(#SVGID_00000031914983362514141380000006313678354943898523_);}
	.st161{fill:url(#SVGID_00000108280957654798210690000010519360067159184272_);}
	.st162{fill:url(#SVGID_00000075163375435169803910000016871392273418901149_);}
	.st163{fill:url(#SVGID_00000034794234110683681790000004721566489523156916_);}
	.st164{fill:url(#SVGID_00000075138000472924932930000009594580653326999189_);}
	.st165{fill:url(#SVGID_00000132785394448941260530000003082675691036450733_);}
	.st166{fill:url(#SVGID_00000100343173099900958120000017826416691909033617_);}
	.st167{fill:url(#SVGID_00000053537603403765829700000004771395204999997318_);}
	.st168{fill:url(#SVGID_00000075856842438766355130000016733570939214830721_);}
	.st169{fill:url(#SVGID_00000179606345337492895470000000108117135374438066_);}
	.st170{fill:url(#SVGID_00000083076050825460506550000002059283982456108690_);}
	.st171{fill:url(#SVGID_00000076584663139942311510000006706191522951790240_);}
	.st172{fill:url(#SVGID_00000025420077844655598110000015390837587181072555_);}
	.st173{fill:url(#SVGID_00000077282928928319460720000001359905682849477814_);}
	.st174{fill:url(#SVGID_00000178191654571406063650000005558357474845638311_);}
	.st175{fill:url(#SVGID_00000137821202797891879810000010685890980981435834_);}
	.st176{fill:url(#SVGID_00000121255162787773847100000001102631986547512476_);}
	.st177{fill:url(#SVGID_00000018936906335337786780000016599555543738010521_);}
	.st178{fill:url(#SVGID_00000129889780807266857680000016704305495290716292_);}
	.st179{fill:url(#SVGID_00000176738605249252280800000016396372908674069405_);}
	.st180{fill:url(#SVGID_00000010305006479017372830000005595811869177502132_);}
	.st181{fill:url(#SVGID_00000179625307246531769440000008453120426162059195_);}
	.st182{fill:url(#SVGID_00000125601898563223436130000002765793938258973363_);}
	.st183{fill:url(#SVGID_00000146479285254577320860000008266135978229737872_);}
	.st184{fill:url(#SVGID_00000018959903550791303920000000041705888213929889_);}
	.st185{fill:url(#SVGID_00000064349871811750652090000008063545190640669595_);}
	.st186{fill:url(#SVGID_00000070098148189094450580000000940178676877212821_);}
	.st187{fill:url(#SVGID_00000008836005434898772780000000225957551027927439_);}
	.st188{fill:url(#SVGID_00000041261832363922830500000011155536547120111768_);}
	.st189{fill:url(#SVGID_00000011732566190069910840000004736625642974498225_);}
	.st190{fill:url(#SVGID_00000021110622499201763040000008513759066331095725_);}
	.st191{fill:url(#SVGID_00000059294953894223286040000001422387316116502921_);}
	.st192{fill:url(#SVGID_00000000210239005727761970000002633795692528955577_);}
	.st193{fill:url(#SVGID_00000011710992208939319910000012635895248375605641_);}
	.st194{fill:url(#SVGID_00000094578870250340213610000009849334027888243868_);}
	.st195{fill:url(#SVGID_00000016072822872754331950000001849784192988325512_);}
	.st196{fill:url(#SVGID_00000024705009861654458570000009380861644951985800_);}
	.st197{fill-rule:evenodd;clip-rule:evenodd;fill:#512100;}
	.st198{fill-rule:evenodd;clip-rule:evenodd;fill:#006D62;}
	.st199{fill-rule:evenodd;clip-rule:evenodd;}
	.st200{fill-rule:evenodd;clip-rule:evenodd;fill:#00A1F5;}
	.st201{fill-rule:evenodd;clip-rule:evenodd;fill:#FACFAB;}
	.st202{fill-rule:evenodd;clip-rule:evenodd;fill:#F29673;}
	.st203{fill-rule:evenodd;clip-rule:evenodd;fill:#FFFFFF;}
	.st204{fill-rule:evenodd;clip-rule:evenodd;fill:#333333;}
	.st205{fill-rule:evenodd;clip-rule:evenodd;fill:#BD4D00;}
	.st206{fill-rule:evenodd;clip-rule:evenodd;fill:#B2B2B2;}
	.st207{fill-rule:evenodd;clip-rule:evenodd;fill:#F2CC29;}
	.st208{fill-rule:evenodd;clip-rule:evenodd;fill:#005C9C;}
	.st209{fill-rule:evenodd;clip-rule:evenodd;fill:#8AC900;}
	.st210{fill-rule:evenodd;clip-rule:evenodd;fill:#808080;}
	.st211{fill-rule:evenodd;clip-rule:evenodd;fill:#CFA605;}
	.st212{fill-rule:evenodd;clip-rule:evenodd;fill:#666666;}
	.st213{fill-rule:evenodd;clip-rule:evenodd;fill:#CCCCCC;}
	.st214{fill:#960000;}
	.st215{fill:url(#SVGID_00000129178048191694969590000011746872234952890512_);}
	.st216{fill:url(#SVGID_00000166646879850405361190000016349201912572291714_);}
	.st217{opacity:0.51;fill:url(#SVGID_00000127006423055214236790000013510923750053867186_);}
	.st218{fill:url(#SVGID_00000036951401160602287490000000897611753988365492_);}
	.st219{fill:url(#SVGID_00000027601479945016766160000009748171086724005563_);}
	.st220{fill:url(#SVGID_00000117668433461456070940000003873943733483174039_);}
	.st221{opacity:0.35;fill:url(#SVGID_00000135685922934155978140000001298581374520512648_);}
	.st222{opacity:0.35;fill:url(#SVGID_00000145020736121789182930000009156151165899148725_);}
	.st223{fill:#F06021;}
	.st224{fill-rule:evenodd;clip-rule:evenodd;fill:url(#SVGID_00000166663804403204277490000001427550283644743605_);}
	.st225{fill-rule:evenodd;clip-rule:evenodd;fill:url(#SVGID_00000092447642720898320880000016312920081819885219_);}
	.st226{fill-rule:evenodd;clip-rule:evenodd;fill:url(#SVGID_00000155824987376323403570000013088303934756285876_);}
	.st227{fill-rule:evenodd;clip-rule:evenodd;fill:url(#SVGID_00000160868601907459860440000001501377915712063387_);}
	.st228{fill-rule:evenodd;clip-rule:evenodd;fill:url(#SVGID_00000049185836917507840460000008114960447983513534_);}
	.st229{fill-rule:evenodd;clip-rule:evenodd;fill:url(#SVGID_00000135660687914350982080000008259126868960536969_);}
	.st230{fill-rule:evenodd;clip-rule:evenodd;fill:url(#SVGID_00000167377695217764632300000001345481288653873578_);}
	.st231{fill-rule:evenodd;clip-rule:evenodd;fill:url(#SVGID_00000176017122171624311710000013782648045324297913_);}
	.st232{fill-rule:evenodd;clip-rule:evenodd;fill:url(#SVGID_00000097470878500067590820000013550000892031269539_);}
	.st233{fill-rule:evenodd;clip-rule:evenodd;fill:url(#SVGID_00000176754787028028636380000012350133210097479059_);}
	.st234{fill-rule:evenodd;clip-rule:evenodd;fill:url(#SVGID_00000139972779714506663250000008596418583575370129_);}
	.st235{fill-rule:evenodd;clip-rule:evenodd;fill:url(#SVGID_00000029740105567128672560000003246570169627943355_);}
	.st236{fill-rule:evenodd;clip-rule:evenodd;fill:url(#SVGID_00000155134048990755987860000000640123636825652124_);}
	.st237{opacity:0.5;fill-rule:evenodd;clip-rule:evenodd;fill:#5D0101;enable-background:new    ;}
	.st238{fill:#E11B22;}
	.st239{fill:#959595;}
	.st240{fill:#003359;}
	.st241{fill:#1779C1;}
	.st242{fill:#0EB17C;}
	.st243{fill:#2B2353;}
	.st244{fill:#BE264E;}
	.st245{fill:#EAA41C;}
	.st246{fill:#1F9EF3;}
	.st247{fill:#0267A3;}
	.st248{fill:#FFEC00;}
	.st249{fill:#00A0E0;}
	.st250{fill:#E3007E;}
	.st251{fill:none;stroke:#000000;stroke-width:2;stroke-miterlimit:10;}
</style>
<g>
	<text transform="matrix(1 0 0 1 57.0853 178.3641)" class="st4 st5 st6">SPORTS AND FITNESS</text>
</g>
<path class="st7" d="M137.93,57.48c-1.31-0.75-2.7-0.8-4-0.6c-2.1,0.31-4.26,1.26-6.13,2.19c-6.68,3.3-13.07,7.01-19.37,11.01
	c-5.08,3.22-10.08,6.61-15.28,9.61c-5.85,3.38-11.78,6.07-18.28,8.02c-5.37,1.62-10.93,2.72-16.57,3.48
	c13.5,8.32,27.47,1.5,43.64-9.45c4.72-3.2,9.34-6.55,14.07-9.73c3.65-2.45,7.37-4.84,11.23-6.93c1.67-0.9,3.38-1.75,5.15-2.46
	c1.44-0.58,2.97-1.1,4.53-1.36c1.34-0.22,2.72-0.39,4.11-0.48C140.2,59.47,139.18,58.19,137.93,57.48z M264.99,87.72
	c-6.5-1.96-12.44-4.64-18.28-8.02c-5.19-3.01-10.2-6.39-15.27-9.61c-6.31-4.01-12.69-7.71-19.38-11.01
	c-1.87-0.93-4.02-1.88-6.13-2.19c-1.3-0.19-2.68-0.14-3.99,0.6c-1.26,0.72-2.27,1.99-3.1,3.32c1.39,0.09,2.76,0.25,4.11,0.48
	c1.56,0.26,3.09,0.78,4.53,1.36c1.76,0.71,3.47,1.56,5.15,2.46c3.85,2.08,7.58,4.48,11.22,6.93c4.73,3.18,9.36,6.53,14.08,9.73
	c16.17,10.95,30.13,17.77,43.64,9.45C275.91,90.44,270.35,89.34,264.99,87.72z M196.88,60.79c-1,1.77-1.89,3.71-2.71,5.65l1.56,0.6
	c0.62-1.46,1.28-2.93,2-4.3c1.59,0.07,3.17,0.25,4.69,0.5c1.46,0.25,2.89,0.74,4.25,1.28c1.72,0.69,3.38,1.52,5.01,2.4
	c3.81,2.05,7.5,4.43,11.11,6.86c4.73,3.18,9.35,6.53,14.07,9.73c9,6.1,18.56,10.94,28.34,15.56c-10.68,4.45-20.72-1.57-33.91-12.49
	c-5.11-4.24-10.31-8.14-16.16-11.19c-2.64-1.37-5.34-2.53-8.1-3.5v2.18c2.44,0.89,4.83,1.94,7.17,3.16
	c10.87,5.65,19.34,14.45,29.07,21.83c2.15,1.63,4.33,3.17,6.58,4.59c-14.4,2.81-24.06-17.55-42.9-23.6
	c-0.02,0.73-0.03,1.46-0.06,2.19c10.43,3.82,22.04,13.9,31.48,22.82c-12.68,0.59-18.12-9.91-31.59-16.49
	c-0.02,0.75-0.03,1.49-0.05,2.21c6.92,3.37,13.01,8.14,18.28,14c-10.4-1.21-8.91-2.59-16.61-8.3c-0.6-0.45-1.2-0.88-1.81-1.31
	c-0.03,0.82-0.07,1.63-0.12,2.43c0.28,0.19,0.55,0.39,0.83,0.6c1.69,1.26,3.39,2.58,4.95,4.03c-1.99-0.56-3.98-1.2-5.97-1.92
	c-1.04,12.95-4.11,22.93-13.72,32.83c-2.53,2.61-5.44,5.15-9.05,7.98c-3.23,2.54-6.82,5.11-11.26,8.1l-1.87,1.26l-1.88-1.26
	c-4.43-2.99-8-5.57-11.23-8.1c-3.62-2.84-6.48-5.38-9.01-7.98c-9.69-10-12.69-20.05-13.69-33.17c-2.31,0.87-4.61,1.62-6.91,2.27
	c1.57-1.45,3.27-2.78,4.96-4.03c0.58-0.43,1.17-0.86,1.76-1.26c-0.05-0.8-0.08-1.61-0.11-2.43c-0.93,0.64-1.85,1.3-2.76,1.97
	c-7.71,5.71-6.21,7.09-16.61,8.3c5.51-6.14,11.92-11.07,19.25-14.46c-0.02-0.72-0.03-1.46-0.05-2.21
	c-14.18,6.53-19.56,17.55-32.55,16.95c9.73-9.2,21.79-19.66,32.49-23.17c-0.01-0.73-0.01-1.45-0.02-2.16
	c-19.53,5.61-29.3,26.79-43.95,23.93c2.24-1.42,4.42-2.96,6.57-4.59c9.73-7.38,18.2-16.18,29.07-21.83c2.7-1.4,5.47-2.58,8.3-3.56
	v-2.16c-3.17,1.04-6.23,2.33-9.23,3.89c-5.85,3.05-11.05,6.95-16.17,11.19C95.4,97.49,85.35,103.51,74.66,99.06
	C84.44,94.44,94,89.6,103,83.5c4.72-3.2,9.34-6.55,14.08-9.73c3.6-2.43,7.29-4.8,11.11-6.86c1.62-0.88,3.29-1.71,5.01-2.4
	c1.34-0.54,2.78-1.03,4.24-1.28c1.53-0.25,3.11-0.43,4.7-0.5c0.78,1.5,1.49,3.09,2.15,4.68l1.56-0.6c-0.86-2.07-1.81-4.15-2.87-6.03
	c-1.15-2.01-2.56-3.97-4.48-5.06c-1.67-0.95-3.39-1.07-5.06-0.83c-2.26,0.33-4.53,1.33-6.54,2.32c-6.73,3.32-13.21,6.94-19.56,10.97
	c-15.07,9.57-45.42,27.48-59.73,16.35c28.96,1.19,59.6-22.86,75.91-31.02c17.38-8.7,19.78-1.37,25.74,11.98l21.23-8.14l20.26,7.76
	c5.85-13.11,8.36-20.22,25.58-11.6c16.31,8.15,46.96,32.21,75.92,31.02c-14.32,11.13-44.66-6.78-59.73-16.35
	c-6.35-4.03-12.83-7.65-19.56-10.97c-2-0.99-4.29-1.99-6.54-2.32c-1.67-0.25-3.4-0.13-5.07,0.83
	C199.45,56.82,198.03,58.78,196.88,60.79z"/>
<path id="XMLID_26_" class="st8" d="M170.34,60.94l-33.01,12.71c0,4.15,0,8.31,0.05,12.46c0.25,19.77,1.2,32.28,13.24,44.68
	c2.75,2.83,5.69,5.34,8.67,7.68c3.61,2.83,7.31,5.45,11.04,7.97c3.73-2.52,7.44-5.13,11.04-7.97c2.98-2.34,5.93-4.85,8.67-7.68
	c12.04-12.41,12.98-24.92,13.24-44.68c0.05-4.15,0.06-8.3,0.05-12.46L170.34,60.94z"/>
<path class="st9" d="M170.34,145.5l-0.44-0.3c-3.95-2.69-7.17-5.02-10.13-7.34c-3.46-2.72-6.19-5.14-8.59-7.61
	c-12.01-12.38-12.77-24.84-13.02-44.15c-0.05-3.5-0.05-6.95-0.05-11.38v-0.53l32.12-12.41l32.12,12.41v0.53
	c0,4.43,0.1,7.87,0.05,11.38c-0.25,19.31-0.96,31.78-12.97,44.15c-2.4,2.47-5.1,4.89-8.57,7.61c-2.96,2.32-6.16,4.66-10.11,7.34
	L170.34,145.5z M139.66,75.25c0,4.17,0.01,7.47,0.05,10.82c0.24,18.93,0.98,31.14,12.58,43.09c2.35,2.42,5.03,4.8,8.44,7.47
	c2.82,2.21,5.88,4.44,9.6,6.98c3.72-2.54,6.78-4.77,9.6-6.98c3.41-2.68,6.09-5.05,8.44-7.47c11.6-11.95,12.34-24.16,12.58-43.09
	c0.04-3.35,0.05-6.66,0.06-10.82l-30.68-11.81L139.66,75.25z M169.09,50.53l-4.44-0.01l3.59,2.45l-1.38,3.98l3.59-2.47l3.58,2.47
	l-1.38-3.98l3.59-2.45l-4.44,0.01l-1.36-3.98L169.09,50.53z M155.89,53.75l-4.44-0.01l3.59,2.45l-1.38,3.98l3.58-2.47l3.58,2.47
	l-1.38-3.98l3.59-2.45l-4.44,0.01l-1.36-3.98L155.89,53.75z M182.58,53.75l-4.44-0.01l3.59,2.45l-1.38,3.98l3.59-2.47l3.58,2.47
	l-1.38-3.98l3.59-2.45l-4.44,0.01l-1.36-3.98L182.58,53.75z"/>
<path class="st10" d="M155.48,85.03c-0.01,0.01-0.03,0.03-0.04,0.06c0.12-0.1,0.31-0.26,0.56-0.46
	C155.82,84.76,155.65,84.9,155.48,85.03z M174.38,98.24c-0.64-0.49-2.77-2.17-4.16-3.22c-1.35-1.02-3.52-2.45-4.2-2.99
	c-0.41,0.08-1.62,0.3-2.15,0.51c-0.65,0.26-3.89,1.54-5.2,2.23c-1.31,0.69-2.13,1.18-2.34,1.39c-0.15,0.16-0.49,0.38-0.67,0.49
	c-0.3,1.24-1.19,5.12-1.23,7.22c-0.03,1.77,0.05,2.73,0.06,3.16v0c0.09,0.18,0.27,0.5,0.58,0.91c0.48,0.63,2.49,2.33,3.7,3.23
	c1.21,0.91,2.86,2.09,3.56,2.49c0.44,0.25,0.86,0.4,1.1,0.48c1.01-0.46,4.12-1.64,5.71-2.34c1.41-0.61,2.79-1.33,3.47-1.66h0
	c0.17-0.21,0.48-0.74,0.67-1.75c0.27-1.44,0.67-4.98,0.75-6.08c0.09-1.1,0.35-2.45,0.24-3.06C174.2,98.79,174.26,98.41,174.38,98.24
	z M178.56,125.49l-0.06,0.01c0,0-0.55-0.1-1.07-0.46c-0.52-0.36-1.17-0.88-1.55-1.05c-0.38-0.18-0.99-0.19-1.09-0.35
	c0,0,0.42-0.09,0.72-0.33c-0.56,0.08-2.52,0.42-4.39,0.22c-1.79-0.19-4.71-0.67-5.6-0.94c0.23,0.08,0.47,0.15,0.35,0.15
	c-0.42-0.02-0.91-0.05-1.12,0c-0.1,0.02-1.55,0.53-2.97,0.81c-1.43,0.29-3.23,0.42-3.23,0.42s1.95-0.29,3.04-0.48
	c1.08-0.19,2.72-0.78,3.04-0.87c0.26-0.07,0.37-0.43,0.43-0.62c-0.42-1.11-1.3-3.86-1.5-5.12c-0.18-1.07-0.37-1.81-0.44-2.22
	c-0.72-0.5-4.07-2.83-5.54-4.17c-1.47-1.34-3.16-2.76-3.51-3.05c-0.66,0.25-2.01,0.76-2.79,1.09c-0.67,0.27-1.28,0.65-1.65,0.86
	c-0.01,0.28-0.09,2.87,0.44,4.56c0.5,1.59,1.36,3.37,1.54,3.73c-0.22-0.41-1.42-2.66-1.7-3.64c-0.31-1.08-0.73-3.2-0.82-3.62
	c-0.09-0.42-0.06-1.14-0.06-1.14l0.17,0.18c-0.25-0.28-1.16-1.34-1.73-4.29c-0.64-3.36-0.57-4.05-0.52-4.13c0,0,0.01-0.04,0.03-0.1
	c-0.05,0.12-0.19,0.25-0.21,0.37c-0.52,5.71,1.07,11.52,4.55,16.24c0.07,0.1,0.25,0.11,0.33,0.19c0,0,0,0.01,0,0.01
	c0.07,0.1,0.03,0.28,0.11,0.37c1.42,1.81,3.13,3.44,5.11,4.82c6.28,4.4,13.92,5.36,20.68,3.28c-0.15,0.03-0.24,0.04-0.27,0.04
	c0.11-0.05,1.01-0.46,1.14-0.61C178.47,125.6,178.52,125.54,178.56,125.49z M191.28,113.99c0,0.07-0.03,0.17-0.07,0.25
	c-0.11,0.19-0.12,0.97-0.44,1.52c-0.34,0.56-0.29,0.37-0.29,0.37s0.33-0.81,0.4-1.17c0.06-0.28,0.14-0.77,0.23-1
	c-0.13-0.17-0.31-0.66-0.68-1.07c-0.28-0.3-0.75-0.68-1.08-1c-0.2-0.05-0.51-0.1-0.64-0.02c-0.2,0.12-2.89,1.89-3.64,2.28
	c-0.75,0.39-3.56,1.69-3.85,1.93c-0.2,0.17-0.57,0.34-0.79,0.42c-0.23,0.54-0.74,1.55-1.88,3.18c-1.24,1.78-2.03,2.82-2.49,3.3
	c0.07,0,0.11,0.03,0.11,0.03s-0.45,0.39-0.22,0.71c0.23,0.31,1.16,1.01,1.68,1.32c0.42,0.24,0.83,0.37,0.97,0.4
	c0.03-0.02,0.07-0.03,0.12-0.02c0.13,0.03,0.21,0.12,0.48,0.04c0.26-0.08,1.92-0.75,2.79-1.27c0.81-0.48,1.6-0.87,1.69-0.92
	c-0.01,0.01-0.02,0.02-0.05,0.04c2.35-1.54,4.44-3.55,6.15-6c0.87-1.24,1.59-2.53,2.19-3.86
	C191.73,113.72,191.46,113.93,191.28,113.99z M190.42,101.47c-0.03-0.13-0.06-0.24-0.04-0.33c-0.32-0.39-2.06-2.45-3.5-3.72
	c-1.59-1.41-2.89-2.35-3.23-2.41c-0.25-0.04-0.61-0.13-0.74-0.23c-1.08,0.51-7.67,3.53-8.31,3.59c-0.07,0.18-0.18,0.49-0.16,0.63
	c0.04,0.2-0.58,7.15-0.75,8.15c-0.17,1.01-0.49,2.23-0.35,2.48c0.1,0.17,0.09,0.43,0.08,0.58c0.75,0.57,2.41,1.97,3.71,3.01
	c1.28,1.01,2.65,2,3.22,2.48c0.22,0.05,0.61,0.12,0.93,0.04c0.47-0.12,2.45-0.95,4.53-2.2c2.08-1.24,2.58-1.61,2.72-1.81
	c0.09-0.13,0.36-0.36,0.52-0.49c0.15-0.69,1.04-3.77,1.16-4.88C190.34,105.18,190.48,101.73,190.42,101.47z M167.33,82.41
	c-0.84-0.45-2.46-1.01-2.82-1.13c-0.06,0.02-0.1,0.02-0.17,0.02c0,0-0.63,0.12-2.37,0.51c-0.77,0.17-2.32,0.71-3.66,1.42
	c-1.23,0.65-2.48,1.57-2.88,1.88c-0.07,0.14-0.14,0.42-0.21,0.47c-0.09,0.08-0.3,0.07-0.39,0.15c-0.93,0.8-1.81,1.67-2.62,2.63
	l-0.03,0.03c-0.01,0.01-0.02,0.03-0.03,0.05c0,0,0,0,0,0.01c0,0.01,0,0.02,0,0.04c0.03,0.11-0.45,1.79-0.6,2.34
	c-0.11,0.43-0.36,1.3-0.46,1.66c0.03,0.21,0.17,0.6,1.17,1.3c1.04,0.73,2.47,1.74,3.13,2.22c0,0,0.01,0,0.01,0
	c0.19,0.06,0.55,0.11,0.99-0.16c0.68-0.41,2.04-1.35,3.88-2.12c1.7-0.71,4.99-1.93,5.61-2.19c0.2-0.65,0.83-2.28,1.84-4.1
	c1.05-1.89,1.59-2.89,1.9-3.21C169.21,83.83,168.08,82.83,167.33,82.41z M165.94,91.73c-0.1-0.08-0.06-0.16-0.01-0.21
	c-0.01,0-0.03,0.01-0.04,0.02c-0.05,0.15-0.07,0.25-0.07,0.28c0,0.03,0.07,0.1,0.2,0.2c0.09-0.01,0.14-0.02,0.14-0.02
	C166.16,91.99,166.15,91.91,165.94,91.73z M150.87,90.09c-2.23,3.19-3.55,6.76-4.02,10.38c-0.02,0.14,0.14,0.27,0.14,0.41
	c0.19-0.74,0.87-3.66,1.91-5.3c0.86-1.35,1.59-2.54,1.95-3.04v0c0.05-0.15,0.45-1.32,0.54-1.56c0.09-0.26,0.59-2.07,0.59-2.07
	l0.02-0.29C151.61,89.08,151.23,89.58,150.87,90.09z M151.05,92.64c0,0,0.03-0.01,0.01-0.05C151.05,92.62,151.05,92.64,151.05,92.64
	z M183.81,84.44c-5.23-3.66-11.37-5.02-17.16-4.22c0,0,0,0,0,0s-0.01,0-0.03,0c-0.01,0-0.03,0-0.05,0.01
	c-0.29,0.07-1.23,0.32-1.61,0.68c-0.09,0.09-0.17,0.16-0.23,0.21c0.44,0.12,1.99,0.68,2.63,1.11c0.66,0.44,2.15,1.55,2.46,1.86h0
	c0.56-0.07,4.82,0.21,6.36,0.43c1.51,0.21,3.56,0.89,3.93,1.07c0.2-0.29,0.56-0.81,0.72-1.17c0.24-0.53,0.36-1.57,0.36-1.57
	s0.08,0.11,0.14,0.1c0.06,0-0.09,1.12-0.35,1.52c-0.22,0.35-0.63,1.05-0.78,1.2c0.36,0.47,1.95,3.5,2.52,6.1
	c0.34,1.53,0.49,2.22,0.5,2.56c0.02-0.01,0.03-0.01,0.05-0.01c0.14,0.01,2.39,1.58,3.57,2.74c1.18,1.15,2.33,2.43,2.74,2.98
	c0.13,0.18,0.76,0.62,1.02,0.88c0.33-0.15,1.2-0.64,1.61-1c0.37-0.33,0.97-0.91,1.21-1.06C192.22,93.24,188.93,88.02,183.81,84.44z"
	/>
<path class="st11" d="M195.05,98.7c-1.3-6.07-4.81-11.71-10.32-15.56c-5.72-4-12.61-5.41-19.1-4.25
	c-10.51,1.87-19.05,10.74-20.42,21.35c-0.02,0.15,0.13,0.29,0.09,0.44c-0.05,0.14-0.18,0.32-0.19,0.48c-0.32,3.47,0.11,7,1.22,10.3
	c1.7,5.06,5.25,9.76,9.62,12.82c6.68,4.68,14.82,5.71,22.02,3.51c0.3-0.06,0.89-0.22,1.85-0.63c0.62-0.26,1.7-0.68,2.56-1.15
	c0.54-0.29,1.02-0.59,1.4-0.84c2.82-1.73,5.33-4.05,7.35-6.93c1.25-1.79,2.23-3.69,2.96-5.65c0.43-1.06,0.96-2.85,1.38-5.4
	C196.04,103.72,195.28,99.63,195.05,98.7z M152.15,88.43c-0.01-0.02,0-0.02,0.01-0.03c0.01-0.02,0.04-0.04,0.06-0.05
	c0.81-0.96,1.69-1.84,2.62-2.63c0.09-0.08,0.29-0.07,0.38-0.14c0.07-0.06,0.14-0.33,0.21-0.47c-0.02,0.02-0.04,0.03-0.06,0.05
	c0.02-0.02,0.04-0.04,0.07-0.06c0.02-0.03,0.03-0.05,0.05-0.06c0.17-0.13,0.34-0.27,0.52-0.4c-0.25,0.2-0.45,0.36-0.56,0.46
	c0,0.01-0.01,0.01-0.01,0.02c0.4-0.31,1.66-1.24,2.89-1.88c1.34-0.71,2.89-1.25,3.66-1.41c1.73-0.38,2.36-0.51,2.36-0.51
	c0.07-0.01,0.11,0,0.17-0.03c0.36,0.12,1.98,0.68,2.82,1.13c0.76,0.42,1.88,1.43,2.31,1.81c-0.31,0.32-0.86,1.32-1.91,3.21
	c-1,1.82-1.64,3.46-1.84,4.1c-0.62,0.26-3.91,1.48-5.61,2.19c-1.84,0.76-3.2,1.7-3.88,2.12c-0.44,0.27-0.79,0.22-0.99,0.16
	c0-0.01-0.01-0.01-0.01-0.01c-0.66-0.47-2.09-1.49-3.13-2.21c-1-0.7-1.14-1.09-1.17-1.31c0.1-0.35,0.35-1.23,0.46-1.65
	c0.15-0.55,0.64-2.22,0.6-2.34c-0.01-0.02-0.01-0.03-0.01-0.04C152.14,88.44,152.15,88.43,152.15,88.43z M174.44,99.01
	c-0.03-0.14,0.09-0.45,0.16-0.64c0.64-0.06,7.23-3.08,8.3-3.59c0.12,0.1,0.49,0.18,0.74,0.23c0.34,0.06,1.64,1,3.23,2.41
	c1.44,1.27,3.18,3.33,3.5,3.72c-0.02,0.09,0.02,0.2,0.05,0.32c0.06,0.26-0.07,3.71-0.21,4.93c-0.13,1.11-1.01,4.19-1.16,4.88
	c-0.16,0.13-0.43,0.35-0.52,0.49c-0.13,0.2-0.63,0.56-2.72,1.8c-2.08,1.25-4.06,2.08-4.53,2.2c-0.31,0.08-0.7,0.01-0.92-0.05
	c-0.56-0.48-1.94-1.47-3.22-2.48c-1.3-1.04-2.96-2.43-3.72-3.01c0.02-0.15,0.02-0.42-0.08-0.58c-0.14-0.25,0.17-1.48,0.35-2.48
	C173.86,106.16,174.48,99.22,174.44,99.01z M174.28,99.25c0.1,0.61-0.16,1.96-0.25,3.06c-0.09,1.1-0.49,4.64-0.75,6.08
	c-0.19,1.01-0.5,1.54-0.67,1.75h-0.01c-0.68,0.33-2.07,1.04-3.47,1.66c-1.59,0.7-4.7,1.87-5.71,2.34c-0.24-0.08-0.66-0.23-1.1-0.48
	c-0.7-0.4-2.36-1.59-3.56-2.5c-1.21-0.9-3.22-2.6-3.7-3.23c-0.31-0.41-0.5-0.73-0.58-0.91v-0.01c-0.01-0.43-0.09-1.39-0.06-3.16
	c0.03-2.11,0.92-5.99,1.23-7.23c0.17-0.1,0.52-0.33,0.67-0.49c0.21-0.21,1.03-0.7,2.34-1.38c1.31-0.69,4.55-1.97,5.2-2.23
	c0.54-0.21,1.74-0.43,2.15-0.51c0.67,0.54,2.85,1.98,4.2,2.99c1.38,1.05,3.52,2.74,4.16,3.22
	C174.27,98.41,174.19,98.79,174.28,99.25z M150.87,90.09c0.36-0.51,0.74-1.01,1.13-1.48l-0.03,0.29c0,0-0.5,1.81-0.59,2.08
	c-0.09,0.24-0.49,1.41-0.53,1.56v0.01c-0.36,0.5-1.09,1.68-1.95,3.03c-1.05,1.65-1.72,4.57-1.91,5.31c0-0.14-0.16-0.28-0.14-0.41
	C147.32,96.85,148.63,93.28,150.87,90.09z M151.05,92.64c0,0,0.01-0.02,0.01-0.05C151.08,92.63,151.05,92.64,151.05,92.64z
	 M178.41,125.67c-0.14,0.16-1.04,0.57-1.14,0.62c0.03,0,0.12-0.01,0.27-0.04c-6.76,2.08-14.4,1.12-20.68-3.28
	c-1.98-1.38-3.69-3.01-5.12-4.82c-0.08-0.1-0.04-0.28-0.11-0.37c0,0,0-0.01,0-0.01c-0.08-0.09-0.26-0.1-0.33-0.19
	c-3.48-4.72-5.07-10.52-4.55-16.23c0.02-0.13,0.16-0.25,0.21-0.37c-0.02,0.06-0.03,0.09-0.03,0.1c-0.05,0.08-0.12,0.77,0.52,4.13
	c0.57,2.95,1.48,4.01,1.73,4.3l-0.17-0.17c0,0-0.03,0.71,0.06,1.14c0.09,0.42,0.51,2.54,0.82,3.62c0.28,0.97,1.48,3.23,1.7,3.64
	c-0.18-0.36-1.04-2.15-1.54-3.74c-0.53-1.69-0.46-4.27-0.45-4.56c0.37-0.21,0.98-0.58,1.65-0.86c0.79-0.32,2.14-0.84,2.79-1.09
	c0.35,0.29,2.05,1.7,3.52,3.05c1.46,1.34,4.82,3.67,5.54,4.17c0.07,0.42,0.27,1.16,0.44,2.22c0.21,1.26,1.08,4.01,1.5,5.12
	c-0.07,0.19-0.17,0.55-0.44,0.62c-0.31,0.09-1.95,0.68-3.03,0.87c-0.98,0.17-2.68,0.43-2.99,0.48c0.3-0.03,1.9-0.16,3.18-0.42
	c1.42-0.29,2.87-0.79,2.97-0.81c0.22-0.06,0.7-0.03,1.12-0.01c0.11,0.01-0.06-0.06-0.26-0.12c0.98,0.28,3.78,0.73,5.51,0.91
	c1.88,0.19,3.83-0.14,4.39-0.22c-0.3,0.24-0.72,0.33-0.72,0.33c0.1,0.16,0.71,0.17,1.09,0.35c0.38,0.17,1.03,0.69,1.55,1.05
	c0.52,0.36,1.07,0.46,1.07,0.46l0.06-0.01C178.52,125.54,178.47,125.6,178.41,125.67z M189.79,117.32c-1.71,2.44-3.8,4.45-6.15,6
	c0.03-0.02,0.04-0.03,0.05-0.04c-0.09,0.05-0.88,0.44-1.69,0.92c-0.87,0.52-2.53,1.18-2.79,1.27c-0.27,0.08-0.35-0.01-0.48-0.04
	c-0.05-0.01-0.09,0-0.12,0.03c-0.15-0.04-0.55-0.16-0.97-0.4c-0.53-0.31-1.46-1.02-1.69-1.32c-0.23-0.31,0.23-0.71,0.23-0.71
	s-0.04-0.03-0.11-0.03c0.46-0.48,1.25-1.52,2.49-3.3c1.15-1.63,1.65-2.64,1.89-3.18c0.22-0.09,0.59-0.26,0.79-0.43
	c0.29-0.24,3.1-1.54,3.84-1.93c0.75-0.39,3.43-2.16,3.64-2.28c0.13-0.08,0.44-0.03,0.64,0.03c0.32,0.31,0.79,0.7,1.08,0.99
	c0.37,0.41,0.55,0.9,0.68,1.07c-0.09,0.23-0.17,0.72-0.23,1c-0.07,0.36-0.4,1.17-0.4,1.17s-0.05,0.2,0.29-0.36
	c0.33-0.55,0.34-1.33,0.45-1.52c0.04-0.08,0.07-0.18,0.07-0.25c0.17-0.06,0.44-0.27,0.7-0.52
	C191.39,114.79,190.66,116.08,189.79,117.32z M192.24,99.93c-0.41,0.36-1.28,0.86-1.61,1c-0.26-0.26-0.89-0.71-1.02-0.88
	c-0.42-0.55-1.56-1.84-2.74-2.98c-1.18-1.15-3.43-2.73-3.57-2.74c-0.02,0-0.03,0-0.05,0.01c-0.02-0.33-0.16-1.03-0.5-2.56
	c-0.57-2.6-2.16-5.62-2.52-6.1c0.15-0.15,0.55-0.85,0.78-1.2c0.26-0.4,0.41-1.53,0.35-1.52c-0.06,0.01-0.14-0.1-0.14-0.1
	s-0.12,1.04-0.36,1.57c-0.17,0.36-0.52,0.88-0.72,1.17c-0.37-0.19-2.42-0.86-3.93-1.07c-1.53-0.22-5.79-0.5-6.36-0.43
	c-0.15-0.16-0.6-0.52-1.1-0.89c-0.5-0.37-1.03-0.76-1.36-0.98c-0.64-0.42-2.19-0.99-2.63-1.1c0.06-0.06,0.14-0.13,0.23-0.22
	c0.38-0.36,1.32-0.6,1.6-0.68c0.02-0.01,0.04-0.01,0.05-0.01c0.02,0,0.02-0.01,0.03-0.01c0.01,0,0.01,0,0.01,0
	c5.79-0.8,11.93,0.56,17.16,4.22c5.12,3.58,8.41,8.8,9.64,14.43C193.21,99.02,192.61,99.6,192.24,99.93z"/>
</svg>
