<?xml version="1.0" encoding="utf-8"?>
<!-- Generator: Adobe Illustrator 27.8.1, SVG Export Plug-In . SVG Version: 6.00 Build 0)  -->
<svg version="1.1" id="Layer_1" xmlns="http://www.w3.org/2000/svg" xmlns:xlink="http://www.w3.org/1999/xlink" x="0px" y="0px"
	 viewBox="0 0 348 228" style="enable-background:new 0 0 348 228;" xml:space="preserve">
<style type="text/css">
	.st0{fill:#D6EADE;}
	.st1{fill:#03487C;}
	.st2{fill:#1B1B4C;}
	.st3{fill-rule:evenodd;clip-rule:evenodd;fill:#204F7A;}
	.st4{fill-rule:evenodd;clip-rule:evenodd;fill:#50A4FF;}
	.st5{fill:#002649;}
	.st6{fill:#E6E7E8;stroke:#CFCFCF;stroke-width:0.1061;}
	.st7{fill:#333333;}
	.st8{fill:#0F5998;}
	.st9{fill:#277FC1;}
	.st10{fill-rule:evenodd;clip-rule:evenodd;fill:#277FC1;}
	.st11{fill-rule:evenodd;clip-rule:evenodd;fill:#083D6D;}
	.st12{fill:#DDB462;}
	
		.st13{clip-path:url(#SVGID_00000062904377501732432210000011893769512111881893_);fill:url(#SVGID_00000024002083866064518820000000949210764057532344_);}
	.st14{fill:#FFFFFF;}
	.st15{fill:url(#SVGID_00000067230619067325155360000015275382500600790413_);}
	.st16{fill:#224685;}
	.st17{fill:none;}
	.st18{fill:#FFC73B;}
	.st19{fill:#11233F;}
	.st20{fill:#5267FF;}
	.st21{fill-rule:evenodd;clip-rule:evenodd;fill:#72342E;}
	.st22{fill:#72342E;}
	.st23{fill:#FFF2E2;}
	.st24{fill:#FFF2E2;stroke:#72342E;stroke-width:0.75;stroke-miterlimit:10;}
	.st25{fill:#FFCC99;}
	.st26{fill:#469CB2;}
	.st27{fill:url(#XMLID_00000140733204062480749210000003040287328455844490_);}
	.st28{fill:url(#XMLID_00000020398602490296873330000006156350056079442108_);}
	.st29{fill:url(#XMLID_00000124142328915156081720000008791241534260517255_);}
	.st30{fill:url(#XMLID_00000053513254319724952110000007019567559403604154_);}
	.st31{fill:url(#XMLID_00000048480968321144898640000018400758373870460821_);}
	.st32{fill:url(#XMLID_00000173155632986653301560000006455027740643300012_);}
	.st33{fill:url(#XMLID_00000163750896870167557370000014397903206351284880_);}
	.st34{fill:url(#XMLID_00000132085487248261932050000011526895197007872406_);}
	.st35{fill:url(#XMLID_00000042724044484590919730000007458777499480705188_);}
	.st36{fill:url(#XMLID_00000085214244080434208770000005137269294783397776_);}
	.st37{fill:url(#XMLID_00000056411486757166812950000003895314260259918005_);}
	.st38{fill:url(#XMLID_00000123423095062978614440000017549208091787067559_);}
	.st39{fill:url(#XMLID_00000085220381556171886070000009524760071035335858_);}
	.st40{fill:url(#XMLID_00000001637734784237464700000017770179458865744004_);}
	.st41{fill:url(#XMLID_00000049187144523845062970000016541239503374707610_);}
	.st42{fill:url(#SVGID_00000137818260269265957730000000510592017545407376_);}
	.st43{fill:url(#SVGID_00000051345380414360354830000017044425315391914429_);}
	.st44{fill:url(#SVGID_00000131346869207949014280000013448129729428309671_);}
	.st45{fill:url(#SVGID_00000142889888816928325830000011885315515355946672_);}
	.st46{fill:url(#SVGID_00000003072812710842707750000016820633967559434894_);}
	.st47{fill:url(#SVGID_00000144305293579953799830000016707900757096609931_);}
	.st48{fill:url(#SVGID_00000062884630502181853160000012536970033812652962_);}
	.st49{fill:url(#SVGID_00000160178230054881690480000014090925906789986991_);}
	.st50{fill:url(#SVGID_00000087392130450970950560000004042838758747965315_);}
	.st51{fill:url(#SVGID_00000036240190740972645920000010976018684798452659_);}
	.st52{fill:url(#SVGID_00000128466309839335631300000013693668649772389007_);}
	.st53{fill:url(#SVGID_00000034088240950474087590000002153642630205593730_);}
	.st54{fill:url(#SVGID_00000117676206605460266600000017268399418053458567_);}
	.st55{fill:url(#SVGID_00000143607059018129550830000012889500794887241118_);}
	.st56{fill:#30325E;}
	.st57{fill:#FF7859;}
	.st58{fill:#FFD550;}
	.st59{fill:#00C3AD;}
	.st60{fill:#FF4653;}
	.st61{fill:#D8CE19;}
	.st62{fill:#C1E5DE;}
	.st63{fill:#FFE4D2;}
	.st64{fill:#DFF4F0;}
	.st65{fill:#A2E0EB;}
	.st66{fill:#1B3493;}
	.st67{fill:none;stroke:#FFFFFF;stroke-width:2;stroke-linecap:round;stroke-linejoin:round;stroke-miterlimit:10;}
	.st68{fill:#F15A24;}
	.st69{fill:#F7931E;}
	.st70{fill:#58595B;}
	.st71{fill:#114E15;}
	.st72{fill:#013D01;}
	.st73{fill:#E9C608;}
	.st74{fill:#043B00;}
	.st75{fill:#D8A43E;}
	.st76{clip-path:url(#SVGID_00000020366143413903964800000002101390631265649323_);}
	.st77{fill:#F49630;}
	.st78{clip-path:url(#SVGID_00000146457195513244681860000017687930082299268513_);}
	.st79{clip-path:url(#SVGID_00000114763910084806818240000000289027870809923262_);}
	.st80{clip-path:url(#SVGID_00000023259042673907950570000015681972882812344461_);}
	.st81{clip-path:url(#SVGID_00000181056893940873405880000002870071111640056465_);}
	.st82{fill-rule:evenodd;clip-rule:evenodd;fill:#FF6600;}
	.st83{fill-rule:evenodd;clip-rule:evenodd;fill:#05174F;}
	.st84{fill:#05174F;}
	.st85{opacity:0.42;fill:url(#SVGID_00000023968776685655082090000007251056062971169977_);enable-background:new    ;}
	.st86{opacity:0.42;fill:url(#SVGID_00000107584218661401947180000008330431726810060700_);enable-background:new    ;}
	.st87{fill:url(#SVGID_00000173851145807330569280000008167643431211618976_);}
	.st88{fill:url(#SVGID_00000001644944597170751310000006674779577689858226_);}
	.st89{opacity:0.64;fill:url(#SVGID_00000160910115450788202050000012530086577872445360_);enable-background:new    ;}
	.st90{opacity:0.75;fill:url(#SVGID_00000119096054088969785970000010909983674835840397_);enable-background:new    ;}
	.st91{fill:url(#SVGID_00000143602777685689313500000000122501022668768430_);}
	.st92{fill:url(#SVGID_00000181783397725747538030000011607632422638801570_);}
	.st93{opacity:0.76;fill:url(#SVGID_00000078038633504964695070000008246279175820142737_);enable-background:new    ;}
	.st94{opacity:0.75;fill:url(#SVGID_00000016060495620724332530000000297527034604306595_);enable-background:new    ;}
	.st95{fill:url(#SVGID_00000177456611980386982080000003756160023644182694_);}
	.st96{opacity:0.42;fill:url(#SVGID_00000024685805678196199330000013830810460856156069_);enable-background:new    ;}
	.st97{opacity:0.42;fill:url(#SVGID_00000021830392217849364550000004541282716416447366_);enable-background:new    ;}
	.st98{clip-path:url(#SVGID_00000116198154290923108030000016644698670505453458_);}
	.st99{fill:#1ED7FE;}
	.st100{clip-path:url(#SVGID_00000073714836657784008890000000301762484865419444_);}
	.st101{clip-path:url(#SVGID_00000018958708646217998420000010227538880542056583_);}
	.st102{fill:#000056;}
	.st103{clip-path:url(#SVGID_00000054950583197277177110000017873005100389510333_);}
	.st104{enable-background:new    ;}
	.st105{fill:#053272;}
	.st106{fill:none;stroke:#053272;stroke-width:4;stroke-miterlimit:10;}
	.st107{fill:url(#SVGID_00000033370496460306535780000005634670248829726870_);}
	.st108{fill:url(#SVGID_00000119096293082813836000000004696836483449384335_);}
	.st109{fill:url(#SVGID_00000134933316857107528540000012838239677934412184_);}
	.st110{fill:url(#SVGID_00000041276717701964674430000014080499831527012798_);}
	.st111{fill:url(#SVGID_00000177445803174767650280000012632996569328251289_);}
	.st112{fill:url(#SVGID_00000101798252167909023090000004326848375408008852_);}
	.st113{fill:url(#SVGID_00000021836623098771231180000006316239553078999474_);}
	.st114{fill:url(#SVGID_00000008144731303730519560000001865131529454009012_);}
	.st115{fill:url(#SVGID_00000011011207843523312140000016529326836298703752_);}
	.st116{fill:url(#SVGID_00000179616921846279723590000017782627964597871498_);}
	.st117{fill:url(#SVGID_00000176735047735716878550000009593241480137009844_);}
	.st118{fill:url(#SVGID_00000106139791148315810020000009847355058377851267_);}
	.st119{fill:url(#SVGID_00000129198810572869985010000010016929326253590958_);}
	.st120{fill:url(#SVGID_00000044898684093678926860000004094895097535093431_);}
	.st121{fill:url(#SVGID_00000038413488827364324960000014437673253860503742_);}
	.st122{fill:url(#SVGID_00000043425857243520431200000007030120003333336984_);}
	.st123{fill:url(#SVGID_00000059990903655628475530000006187672211939438271_);}
	.st124{fill:url(#SVGID_00000051345965526172373540000016144156576430161037_);}
	.st125{fill:url(#SVGID_00000129892971796079316330000002362518184871246493_);}
	.st126{fill:url(#SVGID_00000110448779214756865050000017031043159198356868_);}
	.st127{fill:url(#SVGID_00000128446861446877555890000013581772151698021766_);}
	.st128{fill:url(#SVGID_00000105389326910320445310000017466218851809040542_);}
	.st129{fill:url(#SVGID_00000082344999589397005130000004218031524435175848_);}
	.st130{fill:url(#SVGID_00000142890176230906237150000012807274073312203411_);}
	.st131{fill:url(#SVGID_00000101084302858655212310000005169406994480519079_);}
	.st132{fill:url(#SVGID_00000029010263348201602750000006808037790338284989_);}
	.st133{fill:url(#SVGID_00000106115639508960470680000016292706017649847707_);}
	.st134{fill:url(#SVGID_00000126323725445842059370000007039410768984450691_);}
	.st135{fill:url(#SVGID_00000045592153532905537560000001758557077560980106_);}
	.st136{fill:none;stroke:#FEF73D;stroke-linecap:round;stroke-miterlimit:10;}
	.st137{fill:#FF189C;}
	.st138{fill:none;stroke:#FF189C;stroke-miterlimit:10;}
	.st139{fill:none;stroke:#00EFF1;stroke-linecap:round;stroke-miterlimit:10;}
	.st140{fill:#00EFF1;}
	.st141{fill:#FFA022;}
	.st142{fill:#0C103A;}
	.st143{fill-rule:evenodd;clip-rule:evenodd;fill:#5D9541;}
	.st144{fill-rule:evenodd;clip-rule:evenodd;fill:#F06021;}
	.st145{fill-rule:evenodd;clip-rule:evenodd;fill:#69BC60;}
	.st146{fill-rule:evenodd;clip-rule:evenodd;fill:#F6951C;}
	.st147{fill:#F6951C;}
	.st148{fill:url(#SVGID_00000023248255392648880690000015748974105817826967_);}
	.st149{fill:url(#SVGID_00000183965799427216029940000008843380689247641010_);}
	.st150{fill:url(#SVGID_00000091730283437997230000000012345191314298174142_);}
	.st151{fill:url(#SVGID_00000176721298074988055920000001599902599840312482_);}
	.st152{fill:url(#SVGID_00000089545833796983730930000001805042240948640157_);}
	.st153{fill:url(#SVGID_00000145035509391335516730000010329871055282159275_);}
	.st154{fill:url(#SVGID_00000125577970986276526930000017977889756680473775_);}
	.st155{fill:url(#SVGID_00000075885436752646893250000002821686068633684920_);}
	.st156{fill:url(#SVGID_00000035524529116753387870000015595237213979769744_);}
	.st157{fill:url(#SVGID_00000127024804549117849330000000223410733310898063_);}
	.st158{fill:url(#SVGID_00000041987443743079284420000006046075549751831960_);}
	.st159{fill:url(#SVGID_00000176748085346795355290000010983558942667570076_);}
	.st160{fill:url(#SVGID_00000046310937193609172910000010186856788401770380_);}
	.st161{fill:url(#SVGID_00000145737726246853045940000002916660330796192439_);}
	.st162{fill:url(#SVGID_00000114043242009281931830000002893869005745314966_);}
	.st163{fill:url(#SVGID_00000008109795264652232720000015182473226346659712_);}
	.st164{fill:url(#SVGID_00000008131651771922879000000004113958922406666400_);}
	.st165{fill:url(#SVGID_00000029740342273390666440000008249369107445896587_);}
	.st166{fill:url(#SVGID_00000068660704188401413320000011261172828075807675_);}
	.st167{fill:url(#SVGID_00000052805268546554469250000002557888595113452164_);}
	.st168{fill:url(#SVGID_00000164480589441651853330000016237312302715205794_);}
	.st169{fill:url(#SVGID_00000142139130863885379720000005135603345528774064_);}
	.st170{fill-rule:evenodd;clip-rule:evenodd;fill:#512100;}
	.st171{fill-rule:evenodd;clip-rule:evenodd;fill:#006D62;}
	.st172{fill-rule:evenodd;clip-rule:evenodd;}
	.st173{fill-rule:evenodd;clip-rule:evenodd;fill:#00A1F5;}
	.st174{fill-rule:evenodd;clip-rule:evenodd;fill:#FACFAB;}
	.st175{fill-rule:evenodd;clip-rule:evenodd;fill:#F29673;}
	.st176{fill-rule:evenodd;clip-rule:evenodd;fill:#FFFFFF;}
	.st177{fill-rule:evenodd;clip-rule:evenodd;fill:#333333;}
	.st178{fill-rule:evenodd;clip-rule:evenodd;fill:#BD4D00;}
	.st179{fill-rule:evenodd;clip-rule:evenodd;fill:#B2B2B2;}
	.st180{fill-rule:evenodd;clip-rule:evenodd;fill:#F2CC29;}
	.st181{fill-rule:evenodd;clip-rule:evenodd;fill:#005C9C;}
	.st182{fill-rule:evenodd;clip-rule:evenodd;fill:#8AC900;}
	.st183{fill-rule:evenodd;clip-rule:evenodd;fill:#808080;}
	.st184{fill-rule:evenodd;clip-rule:evenodd;fill:#CFA605;}
	.st185{fill-rule:evenodd;clip-rule:evenodd;fill:#666666;}
	.st186{fill-rule:evenodd;clip-rule:evenodd;fill:#CCCCCC;}
	.st187{fill:#960000;}
	.st188{fill:#00A1F5;}
	.st189{fill:url(#SVGID_00000121958393524856312610000003942686287130629531_);}
	.st190{fill:url(#SVGID_00000018921958798087111710000014769231270206858170_);}
	.st191{opacity:0.51;fill:url(#SVGID_00000082326258766809683230000017703720653091839631_);}
	.st192{fill:url(#SVGID_00000127756765061262718740000005598960062062670505_);}
	.st193{fill:url(#SVGID_00000165946980124053091950000012996285240694816942_);}
	.st194{fill:url(#SVGID_00000078758806889608780430000002663852384791690630_);}
	.st195{opacity:0.35;fill:url(#SVGID_00000060013822051021424170000009617736979547248270_);}
	.st196{opacity:0.35;fill:url(#SVGID_00000125593931973380902140000011668658598485796757_);}
	.st197{fill:#F06021;}
	.st198{fill-rule:evenodd;clip-rule:evenodd;fill:url(#SVGID_00000134955686640541808440000017931300882805958328_);}
	.st199{fill-rule:evenodd;clip-rule:evenodd;fill:url(#SVGID_00000056424357644148337700000012029779913278690721_);}
	.st200{fill-rule:evenodd;clip-rule:evenodd;fill:url(#SVGID_00000013884943426471283890000006942394319037493147_);}
	.st201{fill-rule:evenodd;clip-rule:evenodd;fill:url(#SVGID_00000079445687433062110570000010472265109452215966_);}
	.st202{fill-rule:evenodd;clip-rule:evenodd;fill:url(#SVGID_00000044151654043131375880000013858114352180078498_);}
	.st203{fill-rule:evenodd;clip-rule:evenodd;fill:url(#SVGID_00000031200135091256506130000006409325135106227844_);}
	.st204{fill-rule:evenodd;clip-rule:evenodd;fill:url(#SVGID_00000101818048502941320460000014389517817998685843_);}
	.st205{fill-rule:evenodd;clip-rule:evenodd;fill:url(#SVGID_00000009585313263024415870000017509965202023908774_);}
	.st206{fill-rule:evenodd;clip-rule:evenodd;fill:url(#SVGID_00000165952733314741115460000015196764141994673549_);}
	.st207{fill-rule:evenodd;clip-rule:evenodd;fill:url(#SVGID_00000074432519936990061580000016409505506591314832_);}
	.st208{fill-rule:evenodd;clip-rule:evenodd;fill:url(#SVGID_00000026154456475068718340000009089728888973526422_);}
	.st209{fill-rule:evenodd;clip-rule:evenodd;fill:url(#SVGID_00000100355852398913117490000004924822825189040780_);}
	.st210{fill-rule:evenodd;clip-rule:evenodd;fill:url(#SVGID_00000145042479117792856780000006477961337173897910_);}
	.st211{opacity:0.5;fill-rule:evenodd;clip-rule:evenodd;fill:#5D0101;enable-background:new    ;}
	.st212{fill:#E11B22;}
	.st213{fill:#003359;}
	.st214{fill:#0EB17C;}
	.st215{fill:#959595;}
	.st216{fill:#1779C1;}
	.st217{fill:#2B2353;}
	.st218{fill:#BE264E;}
	.st219{fill:#EAA41C;}
	.st220{fill:#1F9EF3;}
	.st221{fill:#0267A3;}
	.st222{fill:#FFEC00;}
	.st223{fill:#00A0E0;}
	.st224{fill:#E3007E;}
	.st225{fill:none;stroke:#000000;stroke-width:2;stroke-miterlimit:10;}
	.st226{fill:#FF9E80;}
	.st227{fill:#414151;}
	.st228{fill:#2B295E;}
	.st229{fill:#CCCCCC;}
	.st230{fill:#FF8C5C;}
	.st231{fill:#DBA21C;}
	.st232{fill:#EDDBB2;}
	.st233{fill:#DEC58B;}
	.st234{fill:#997113;}
	.st235{fill:#B88817;}
	.st236{fill:#003400;stroke:#8EC13D;stroke-width:4;stroke-miterlimit:10;}
	.st237{fill:#8EC13D;}
	.st238{fill:#F2F2F2;}
	.st239{fill:url(#XMLID_00000139279291656499152520000001197188923861807238_);}
	.st240{fill:url(#SVGID_00000168816833483401708950000003661126613847419069_);}
	.st241{fill:url(#SVGID_00000088854990204997940460000014840422695717442740_);}
	.st242{fill:url(#SVGID_00000005956227495726925600000017108777713903806366_);}
	.st243{fill:url(#SVGID_00000039096771953881385110000002073995062373615785_);}
	.st244{fill:url(#SVGID_00000103235180328853988290000004488843223290044821_);}
	.st245{fill:url(#SVGID_00000007409792783803219980000007703083237705259677_);}
	.st246{fill:url(#SVGID_00000082339660831866786890000014877298324743528120_);}
	.st247{fill:url(#SVGID_00000102537738837794086010000009279814994042864513_);}
	.st248{fill:url(#SVGID_00000057120456804908432720000014939273787580012949_);}
	.st249{fill:url(#SVGID_00000002353192405280261380000001956425489750287019_);}
	.st250{fill:url(#SVGID_00000008832708986371259770000008557408908392899970_);}
	.st251{fill:#1C75BC;}
	.st252{fill:#46920C;}
	.st253{fill:#FF9400;}
	.st254{fill:url(#SVGID_00000005268073036149965350000018160639044426173114_);}
	.st255{fill:url(#SVGID_00000036929999132406336030000008751895600385311161_);}
	.st256{fill:url(#SVGID_00000075154512321486359140000002792343863028080283_);}
	.st257{fill:url(#SVGID_00000051378049010670176900000009768000915476012733_);}
	.st258{fill:url(#SVGID_00000165945738155536849240000004062898565033148092_);}
	.st259{fill:url(#SVGID_00000048498340781286182740000007617289236561981336_);}
	.st260{fill:url(#SVGID_00000183960364654210493550000010238900779339332253_);}
	.st261{fill:url(#SVGID_00000071533123479265003150000001776745957974543254_);}
	.st262{fill:url(#SVGID_00000013155614179196407790000014452641946864556928_);}
	.st263{fill:url(#SVGID_00000005246953573471095700000000990452908285601431_);}
	.st264{fill:url(#SVGID_00000143580399120109388710000002670971480058864770_);}
	.st265{fill:url(#SVGID_00000146485977355803090500000006191804173944608406_);}
	.st266{fill:url(#SVGID_00000088855171998747692900000010814251321658702771_);}
	.st267{fill:url(#SVGID_00000061460672897440622540000016364917929805338546_);}
	.st268{fill:url(#SVGID_00000096769161370814020280000000596602299695303316_);}
	.st269{fill:url(#SVGID_00000137815824851924599660000012626698342458793389_);}
	.st270{fill:url(#SVGID_00000123436293486332535050000006839199156818225065_);}
	.st271{fill:url(#SVGID_00000075861051578202460130000016025145801977075079_);}
	.st272{fill:url(#SVGID_00000010997305049679574930000014900835375257566390_);}
	.st273{fill:#2F3F67;}
	.st274{fill:#C97F32;}
	.st275{fill:none;stroke:#C97F32;stroke-width:1.2891;stroke-miterlimit:10;}
	.st276{fill:url(#XMLID_00000106147094949763954470000006559722071654583484_);}
	.st277{fill:#00548B;}
	.st278{fill:#004368;}
	.st279{fill:#94070A;}
	.st280{fill:url(#XMLID_00000173126741895068378870000015040939771299216272_);}
	.st281{fill:url(#XMLID_00000148652281106888840480000018255179242002059163_);}
	.st282{fill:#B34A06;}
	.st283{fill:#A2B5C4;}
	.st284{fill:#192940;}
	.st285{fill:url(#SVGID_00000094615013311520296680000013839260118883827856_);}
	.st286{fill:url(#SVGID_00000072266128473207768980000009929318776656661162_);}
	.st287{fill:url(#SVGID_00000020379452548694326540000001422195795529050001_);}
	.st288{opacity:0.93;fill:url(#SVGID_00000028317678696458403130000008938920261597690023_);}
	.st289{opacity:0.93;fill:url(#SVGID_00000140006293619750885650000011866465165447143556_);}
	.st290{opacity:0.93;fill:url(#SVGID_00000050652337221624174860000012750923820225528204_);}
	.st291{opacity:0.93;fill:url(#SVGID_00000061466573272161785610000001712195789242718896_);}
	.st292{fill:url(#SVGID_00000113342493366658004870000000772810675510580362_);}
	.st293{stroke:#000000;stroke-width:0.75;stroke-miterlimit:10;}
</style>
<linearGradient id="SVGID_00000165926574718501817310000005684854473335512503_" gradientUnits="userSpaceOnUse" x1="301.3045" y1="-13.4573" x2="37.6327" y2="250.2145">
	<stop  offset="0" style="stop-color:#44DCD5"/>
	<stop  offset="1" style="stop-color:#1C87AE"/>
</linearGradient>
<rect style="fill:url(#SVGID_00000165926574718501817310000005684854473335512503_);" width="347.69" height="228"/>
<g>
	<g>
		<g>
			<path class="st14" d="M158.39,85.3c0-6.22,3.65-11.6,8.92-14.1l-63.69,14.34v42.96h55.44l8.03-29.2
				C161.93,96.75,158.39,91.44,158.39,85.3z M124.72,123.64c0.07-0.09-17.35,0.4-17.35,0.4V97.93l2.24-0.35v22.32l15.11-0.66
				C124.72,119.24,124.66,123.73,124.72,123.64z M125.13,115.19l-13.71,0.86v-1.22l13.71-0.94V115.19z M125.13,109.39l-13.71,1.24
				v-1.23l13.71-1.32V109.39z M125.13,103.57l-13.71,1.61v-1.23l13.71-1.7V103.57z M125.13,97.76l-13.71,1.99v-1.23l13.71-2.07
				V97.76z M154.84,122.95c0.09-0.11-22.38,0.52-22.38,0.52V93.98l2.86-0.45v25.24l19.53-0.85
				C154.84,117.92,154.75,123.06,154.84,122.95z M155.37,113.3l-17.73,1.11v-1.39l17.73-1.22V113.3z M155.37,106.66l-17.73,1.59
				v-1.39l17.73-1.71V106.66z M155.37,100.02l-17.73,2.09v-1.4l17.73-2.19V100.02z M155.37,93.38l-17.73,2.57v-1.39l17.73-2.68
				V93.38z"/>
			<path class="st14" d="M180.69,71.19c5.27,2.51,8.92,7.88,8.92,14.1c0,6.14-3.55,11.45-8.71,14l8.03,29.2h55.45V85.54
				L180.69,71.19z M222.87,96.45l13.71,2.07v1.23l-13.71-1.99V96.45z M222.87,102.26l13.71,1.7v1.23l-13.71-1.61V102.26z
				 M222.87,108.07l13.71,1.32v1.23l-13.71-1.24V108.07z M192.63,91.88l17.73,2.68v1.39l-17.73-2.57V91.88z M192.63,98.52
				l17.73,2.19v1.4l-17.73-2.09V98.52z M192.63,105.16l17.73,1.71v1.39l-17.73-1.59V105.16z M192.63,111.8l17.73,1.22v1.39
				l-17.73-1.11V111.8z M215.53,123.46c0,0-22.47-0.62-22.38-0.52c0.09,0.11,0-5.02,0-5.02l19.53,0.85V93.53l2.86,0.45V123.46z
				 M222.87,113.88l13.71,0.94v1.22l-13.71-0.86V113.88z M240.62,124.04c0,0-17.42-0.49-17.35-0.4c0.07,0.09,0-4.4,0-4.4l15.11,0.66
				V97.58l2.24,0.35V124.04z"/>
		</g>
		<g>
			<polygon class="st14" points="132.64,75.23 172,66.32 172,43.38 132.64,52.28 			"/>
			<polygon class="st14" points="215.36,75.23 176,66.32 176,43.38 215.36,52.28 			"/>
		</g>
		<g>
			<g>
				<g>
					<g>
						<path class="st14" d="M98.8,144.29c0.46,0,0.69,0.23,0.69,0.69v2.98c0,0.46-0.23,0.69-0.69,0.69H83.08
							c-0.61,0-1.04,0.16-1.29,0.47c-0.25,0.31-0.38,0.74-0.38,1.29v1.07c0,1.17,0.54,1.76,1.63,1.76h11.77
							c1.82,0,3.19,0.47,4.11,1.4c0.92,0.93,1.38,2.26,1.38,4v2.51c0,1.53-0.45,2.76-1.35,3.7c-0.9,0.94-2.3,1.41-4.2,1.41H77.37
							c-0.48,0-0.72-0.23-0.72-0.69v-2.98c0-0.46,0.24-0.69,0.72-0.69h16.47c0.61,0,1.04-0.16,1.29-0.47
							c0.25-0.31,0.38-0.74,0.38-1.29v-1.29c0-1.17-0.54-1.76-1.63-1.76H82.11c-1.82,0-3.19-0.47-4.11-1.4
							c-0.92-0.93-1.38-2.26-1.38-4v-2.29c0-1.53,0.45-2.76,1.35-3.7c0.9-0.94,2.3-1.41,4.2-1.41H98.8z"/>
						<path class="st14" d="M127.75,144.29c0.48,0,0.72,0.23,0.72,0.69v3.07c0,0.48-0.24,0.72-0.72,0.72h-9.85v16.79
							c0,0.46-0.23,0.69-0.69,0.69h-3.42c-0.46,0-0.69-0.23-0.69-0.69v-16.79h-9.85c-0.48,0-0.72-0.24-0.72-0.72v-3.07
							c0-0.46,0.24-0.69,0.72-0.69H127.75z"/>
						<path class="st14" d="M148.87,144.29c1.59,0,2.94,0.15,4.06,0.45c1.12,0.3,2.03,0.78,2.73,1.44c0.7,0.66,1.21,1.51,1.52,2.56
							c0.31,1.05,0.47,2.32,0.47,3.83v5.4c0,1.51-0.16,2.79-0.47,3.84c-0.31,1.06-0.82,1.91-1.52,2.57
							c-0.7,0.66-1.61,1.13-2.73,1.43c-1.12,0.29-2.47,0.44-4.06,0.44h-9.69c-1.59,0-2.94-0.15-4.05-0.44
							c-1.11-0.29-2.01-0.77-2.71-1.43c-0.7-0.66-1.21-1.52-1.54-2.57c-0.32-1.06-0.49-2.34-0.49-3.84v-5.4
							c0-1.51,0.16-2.78,0.49-3.83c0.32-1.05,0.84-1.9,1.54-2.56c0.7-0.66,1.6-1.14,2.71-1.44c1.11-0.3,2.46-0.45,4.05-0.45H148.87z
							 M135.19,157.63c0,0.82,0.07,1.5,0.2,2.06c0.14,0.55,0.36,0.99,0.67,1.32c0.31,0.32,0.74,0.55,1.27,0.69
							c0.53,0.14,1.21,0.2,2.02,0.2h9.32c0.82,0,1.49-0.07,2.02-0.2c0.53-0.14,0.96-0.37,1.27-0.69c0.31-0.32,0.54-0.76,0.67-1.32
							c0.14-0.55,0.2-1.24,0.2-2.06v-4.71c0-0.82-0.07-1.5-0.2-2.06c-0.14-0.55-0.36-0.99-0.67-1.32c-0.31-0.32-0.74-0.55-1.27-0.69
							c-0.53-0.14-1.21-0.2-2.02-0.2h-9.32c-0.82,0-1.49,0.07-2.02,0.2c-0.53,0.14-0.96,0.37-1.27,0.69
							c-0.31,0.32-0.54,0.76-0.67,1.32c-0.14,0.55-0.2,1.24-0.2,2.06V157.63z"/>
						<path class="st14" d="M179.33,144.29c2.4,0,4.13,0.54,5.18,1.63c1.05,1.09,1.57,2.7,1.57,4.83v1.79c0,1.8-0.37,3.22-1.1,4.27
							c-0.73,1.05-1.92,1.72-3.58,2.01l5.36,6.65c0.1,0.1,0.14,0.26,0.09,0.47c-0.04,0.21-0.21,0.31-0.5,0.31h-4.05
							c-0.27,0-0.46-0.03-0.56-0.09c-0.1-0.06-0.21-0.17-0.31-0.31l-4.96-6.53h-10.13v6.24c0,0.46-0.23,0.69-0.69,0.69h-3.39
							c-0.48,0-0.72-0.23-0.72-0.69v-20.33c0-0.63,0.31-0.94,0.94-0.94H179.33z M166.34,155.49h12.02c1.07,0,1.82-0.23,2.26-0.69
							c0.44-0.46,0.66-1.16,0.66-2.1v-1.32c0-0.94-0.22-1.64-0.66-2.1c-0.44-0.46-1.19-0.69-2.26-0.69h-11.61
							c-0.27,0-0.41,0.13-0.41,0.38V155.49z"/>
						<path class="st14" d="M203.87,144.29c0.79,0,1.46,0.16,2.01,0.49c0.54,0.32,1.08,0.96,1.6,1.9l10.38,18.86
							c0.1,0.21,0.13,0.38,0.08,0.52c-0.05,0.14-0.2,0.2-0.45,0.2h-3.98c-0.36,0-0.6-0.14-0.72-0.41l-2.23-4.05H195.8l-2.16,4.05
							c-0.15,0.27-0.39,0.41-0.72,0.41h-4.08c-0.27,0-0.43-0.07-0.49-0.2c-0.05-0.14-0.03-0.31,0.08-0.52l10.29-18.86
							c0.52-0.94,1.04-1.57,1.54-1.9c0.5-0.32,1.09-0.49,1.76-0.49H203.87z M197.78,158.16h10.79l-4.99-9.19
							c-0.08-0.15-0.2-0.22-0.35-0.22h-0.19c-0.15,0-0.26,0.07-0.35,0.22L197.78,158.16z"/>
						<path class="st14" d="M243.71,144.29c0.46,0,0.69,0.23,0.69,0.69v3.07c0,0.48-0.23,0.72-0.69,0.72h-15.72
							c-0.82,0-1.49,0.07-2.02,0.2c-0.53,0.14-0.96,0.37-1.27,0.69c-0.31,0.32-0.54,0.76-0.67,1.3c-0.14,0.54-0.2,1.23-0.2,2.07
							v4.52c0,0.84,0.07,1.53,0.2,2.09c0.14,0.55,0.36,0.99,0.67,1.32c0.31,0.32,0.74,0.55,1.27,0.69c0.53,0.14,1.21,0.2,2.02,0.2
							h10.35c0.54,0,0.94-0.14,1.19-0.42c0.25-0.28,0.38-0.78,0.38-1.49v-2.54c0-0.27-0.13-0.41-0.38-0.41h-9.19
							c-0.46,0-0.69-0.24-0.69-0.72v-2.35c0-0.48,0.23-0.72,0.69-0.72h13.08c0.63,0,0.94,0.31,0.94,0.94v7.31c0,1.76-0.33,3-1,3.72
							c-0.67,0.72-1.63,1.08-2.89,1.08h-12.68c-1.59,0-2.94-0.15-4.05-0.44c-1.11-0.29-2.01-0.77-2.71-1.43
							c-0.7-0.66-1.21-1.52-1.54-2.57c-0.32-1.06-0.49-2.34-0.49-3.84v-5.4c0-1.51,0.16-2.78,0.49-3.83
							c0.32-1.05,0.84-1.9,1.54-2.56c0.7-0.66,1.6-1.14,2.71-1.44c1.11-0.3,2.46-0.45,4.05-0.45H243.71z"/>
						<g>
							<path class="st14" d="M270.66,161.89h-13.71c-0.82,0-1.49-0.07-2.02-0.2c-0.53-0.14-0.96-0.37-1.29-0.69
								c-0.32-0.32-0.55-0.76-0.67-1.32c-0.13-0.55-0.19-1.24-0.19-2.05v-0.53h17.73c0.46,0,0.69-0.23,0.69-0.69v-2.48
								c0-0.46-0.23-0.69-0.69-0.69h-4.35h-13.38h-4.71v4.74c0,1.51,0.16,2.79,0.49,3.84c0.32,1.06,0.84,1.91,1.54,2.57
								c0.7,0.66,1.6,1.13,2.71,1.43c1.11,0.29,2.46,0.44,4.05,0.44h13.8c0.48,0,0.72-0.23,0.72-0.69v-2.98
								C271.38,162.12,271.14,161.89,270.66,161.89z"/>
							<path class="st14" d="M270.66,144.29h-13.8c-1.59,0-2.94,0.15-4.05,0.45c-1.11,0.3-2.01,0.78-2.71,1.44
								c-0.7,0.66-1.21,1.51-1.54,2.56c-0.17,0.54-0.29,1.14-0.37,1.8h4.87c0.13-0.41,0.33-0.74,0.59-1
								c0.32-0.32,0.75-0.55,1.29-0.69c0.53-0.14,1.21-0.2,2.02-0.2h13.71c0.48,0,0.72-0.23,0.72-0.69v-2.98
								C271.38,144.52,271.14,144.29,270.66,144.29z"/>
						</g>
					</g>
					<g>
						<path class="st14" d="M105.92,171.89c0.8,0.61,1.33,1.44,1.61,2.49h-1.68c-0.23-0.59-0.6-1.06-1.1-1.41
							c-0.5-0.35-1.12-0.52-1.85-0.52c-0.58,0-1.1,0.14-1.56,0.43c-0.46,0.29-0.82,0.7-1.08,1.23c-0.26,0.53-0.4,1.16-0.4,1.87
							c0,0.7,0.13,1.32,0.4,1.85c0.26,0.53,0.63,0.94,1.08,1.23c0.46,0.29,0.98,0.43,1.56,0.43c0.73,0,1.35-0.17,1.85-0.52
							c0.5-0.35,0.87-0.81,1.1-1.4h1.68c-0.28,1.05-0.82,1.87-1.61,2.48c-0.8,0.61-1.8,0.91-3,0.91c-0.93,0-1.75-0.21-2.46-0.63
							c-0.71-0.42-1.26-1.01-1.65-1.76c-0.39-0.75-0.58-1.62-0.58-2.59c0-0.97,0.19-1.84,0.58-2.59c0.39-0.75,0.94-1.35,1.65-1.77
							c0.71-0.43,1.53-0.64,2.46-0.64C104.12,170.97,105.12,171.28,105.92,171.89z"/>
						<path class="st14" d="M111.8,173.53c0.48-0.29,1.04-0.44,1.67-0.44v1.72H113c-0.69,0-1.25,0.17-1.67,0.51
							c-0.42,0.34-0.63,0.9-0.63,1.67v3.88h-1.58v-7.65h1.58v1.5C110.95,174.22,111.32,173.82,111.8,173.53z"/>
						<path class="st14" d="M119.5,173.64c0.49,0.34,0.84,0.8,1.04,1.36v-1.78h1.58v7.65h-1.58v-1.78c-0.2,0.56-0.55,1.02-1.04,1.36
							c-0.49,0.34-1.08,0.51-1.78,0.51c-0.67,0-1.26-0.16-1.79-0.47c-0.52-0.31-0.93-0.77-1.23-1.36c-0.3-0.59-0.44-1.29-0.44-2.1
							c0-0.8,0.15-1.49,0.44-2.08c0.3-0.59,0.71-1.05,1.23-1.36c0.52-0.31,1.12-0.47,1.79-0.47
							C118.41,173.12,119.01,173.29,119.5,173.64z M116.52,175.19c-0.42,0.45-0.63,1.07-0.63,1.85c0,0.79,0.21,1.41,0.63,1.85
							c0.42,0.45,0.98,0.67,1.69,0.67c0.44,0,0.84-0.1,1.2-0.31c0.35-0.21,0.63-0.5,0.83-0.88c0.2-0.38,0.3-0.82,0.3-1.33
							c0-0.5-0.1-0.94-0.3-1.33c-0.2-0.38-0.48-0.68-0.83-0.89c-0.35-0.21-0.75-0.31-1.2-0.31
							C117.5,174.51,116.94,174.74,116.52,175.19z"/>
						<path class="st14" d="M126.29,171.94c-0.25,0.23-0.38,0.61-0.38,1.16v0.13h1.68v1.36h-1.68v6.29h-1.6v-6.29h-1.04v-1.36h1.04
							v-0.25c0-0.94,0.27-1.64,0.82-2.1c0.55-0.47,1.37-0.67,2.46-0.62v1.39C126.98,171.61,126.54,171.71,126.29,171.94z"/>
						<path class="st14" d="M132.72,179.5v1.38h-0.97c-0.82,0-1.43-0.2-1.86-0.59c-0.42-0.39-0.63-1.05-0.63-1.97v-3.75h-1.1v-1.35
							h1.1v-1.9h1.6v1.9h1.85v1.35h-1.85v3.78c0,0.44,0.08,0.74,0.24,0.9c0.16,0.17,0.45,0.25,0.85,0.25H132.72z"/>
						<path class="st14" d="M134.26,170.33c0.19-0.18,0.43-0.26,0.74-0.26c0.31,0,0.55,0.09,0.74,0.26c0.19,0.18,0.28,0.4,0.28,0.67
							s-0.09,0.49-0.28,0.65c-0.19,0.17-0.44,0.25-0.74,0.25c-0.31,0-0.55-0.08-0.74-0.25s-0.28-0.38-0.28-0.65
							S134.08,170.51,134.26,170.33z M135.79,173.22v7.65h-1.58v-7.65H135.79z"/>
						<path class="st14" d="M144.13,173.96c0.54,0.57,0.8,1.39,0.8,2.46v4.46h-1.58v-4.29c0-0.69-0.18-1.22-0.53-1.59
							c-0.35-0.38-0.83-0.56-1.44-0.56c-0.63,0-1.13,0.2-1.51,0.6c-0.38,0.4-0.57,0.99-0.57,1.77v4.07h-1.58v-7.65h1.58v1.68
							c0.2-0.57,0.55-1.02,1.03-1.33c0.48-0.31,1.04-0.47,1.67-0.47C142.87,173.1,143.59,173.38,144.13,173.96z"/>
						<path class="st14" d="M151.62,173.64c0.49,0.34,0.84,0.8,1.04,1.36v-1.78h1.58v7.74c0,0.71-0.15,1.35-0.44,1.9
							c-0.29,0.55-0.71,0.98-1.26,1.3c-0.55,0.31-1.2,0.47-1.94,0.47c-1.07,0-1.94-0.25-2.6-0.76c-0.66-0.51-1.08-1.2-1.24-2.07
							h1.57c0.13,0.45,0.38,0.81,0.75,1.06c0.37,0.25,0.84,0.38,1.42,0.38c0.63,0,1.15-0.19,1.56-0.58c0.41-0.39,0.61-0.95,0.61-1.7
							v-1.86c-0.2,0.56-0.55,1.02-1.04,1.36c-0.49,0.34-1.08,0.51-1.78,0.51c-0.67,0-1.26-0.16-1.79-0.47
							c-0.52-0.31-0.93-0.77-1.23-1.36c-0.3-0.59-0.44-1.29-0.44-2.1c0-0.8,0.15-1.49,0.44-2.08c0.3-0.59,0.71-1.05,1.23-1.36
							c0.52-0.31,1.12-0.47,1.79-0.47C150.54,173.12,151.14,173.29,151.62,173.64z M148.65,175.19c-0.42,0.45-0.63,1.07-0.63,1.85
							c0,0.79,0.21,1.41,0.63,1.85c0.42,0.45,0.98,0.67,1.69,0.67c0.44,0,0.84-0.1,1.2-0.31c0.35-0.21,0.63-0.5,0.83-0.88
							c0.2-0.38,0.3-0.82,0.3-1.33c0-0.5-0.1-0.94-0.3-1.33c-0.2-0.38-0.48-0.68-0.83-0.89c-0.35-0.21-0.75-0.31-1.2-0.31
							C149.63,174.51,149.07,174.74,148.65,175.19z"/>
						<path class="st14" d="M166.78,171.89c0.8,0.61,1.33,1.44,1.61,2.49h-1.68c-0.23-0.59-0.6-1.06-1.1-1.41
							c-0.5-0.35-1.12-0.52-1.85-0.52c-0.58,0-1.1,0.14-1.56,0.43c-0.46,0.29-0.82,0.7-1.08,1.23c-0.26,0.53-0.4,1.16-0.4,1.87
							c0,0.7,0.13,1.32,0.4,1.85c0.26,0.53,0.63,0.94,1.08,1.23c0.46,0.29,0.98,0.43,1.56,0.43c0.73,0,1.35-0.17,1.85-0.52
							c0.5-0.35,0.87-0.81,1.1-1.4h1.68c-0.28,1.05-0.82,1.87-1.61,2.48c-0.8,0.61-1.8,0.91-3,0.91c-0.93,0-1.75-0.21-2.46-0.63
							c-0.71-0.42-1.26-1.01-1.65-1.76c-0.39-0.75-0.58-1.62-0.58-2.59c0-0.97,0.19-1.84,0.58-2.59c0.39-0.75,0.94-1.35,1.65-1.77
							c0.71-0.43,1.53-0.64,2.46-0.64C164.98,170.97,165.98,171.28,166.78,171.89z"/>
						<path class="st14" d="M171.56,170.6v10.28h-1.58V170.6H171.56z"/>
						<path class="st14" d="M178.97,173.6c0.59,0.31,1.06,0.77,1.39,1.36c0.33,0.59,0.5,1.29,0.5,2.08c0,0.81-0.17,1.5-0.5,2.1
							c-0.33,0.59-0.8,1.05-1.39,1.36c-0.59,0.31-1.26,0.47-2,0.47c-0.74,0-1.4-0.16-1.99-0.47c-0.59-0.31-1.05-0.77-1.39-1.37
							c-0.34-0.6-0.51-1.29-0.51-2.09s0.17-1.49,0.51-2.08c0.34-0.59,0.8-1.05,1.39-1.36c0.59-0.31,1.25-0.47,1.99-0.47
							C177.71,173.12,178.38,173.28,178.97,173.6z M175.85,174.78c-0.34,0.19-0.62,0.47-0.83,0.85c-0.21,0.38-0.31,0.85-0.31,1.41
							c0,0.56,0.1,1.04,0.31,1.42c0.21,0.38,0.48,0.66,0.83,0.85c0.34,0.19,0.72,0.28,1.12,0.28c0.41,0,0.78-0.09,1.13-0.28
							c0.34-0.18,0.62-0.47,0.83-0.85s0.31-0.85,0.31-1.42c0-0.56-0.11-1.03-0.31-1.41s-0.48-0.67-0.83-0.85
							c-0.34-0.18-0.72-0.28-1.13-0.28C176.57,174.5,176.19,174.59,175.85,174.78z"/>
						<path class="st14" d="M189.45,173.22v7.65h-1.6v-1.67c-0.19,0.57-0.53,1-1.01,1.31c-0.48,0.31-1.04,0.47-1.68,0.47
							c-0.89,0-1.6-0.29-2.14-0.86c-0.54-0.57-0.81-1.39-0.81-2.46v-4.44h1.58v4.28c0,0.69,0.17,1.23,0.53,1.6
							c0.35,0.38,0.83,0.56,1.44,0.56c0.63,0,1.13-0.2,1.51-0.61c0.38-0.41,0.57-1,0.57-1.78v-4.06H189.45z"/>
						<path class="st14" d="M196.19,173.64c0.49,0.34,0.83,0.8,1.03,1.36v-4.4h1.6v10.28h-1.6v-1.78c-0.19,0.56-0.54,1.02-1.03,1.36
							c-0.49,0.34-1.08,0.51-1.78,0.51c-0.67,0-1.26-0.16-1.79-0.47c-0.52-0.31-0.93-0.77-1.23-1.36c-0.3-0.59-0.44-1.29-0.44-2.1
							c0-0.8,0.15-1.49,0.44-2.08c0.3-0.59,0.71-1.05,1.23-1.36s1.12-0.47,1.79-0.47C195.11,173.12,195.71,173.29,196.19,173.64z
							 M193.22,175.19c-0.42,0.45-0.63,1.07-0.63,1.85c0,0.79,0.21,1.41,0.63,1.85c0.42,0.45,0.98,0.67,1.69,0.67
							c0.44,0,0.84-0.1,1.2-0.31c0.35-0.21,0.63-0.5,0.83-0.88c0.2-0.38,0.3-0.82,0.3-1.33c0-0.5-0.1-0.94-0.3-1.33
							c-0.2-0.38-0.48-0.68-0.83-0.89c-0.35-0.21-0.75-0.31-1.2-0.31C194.2,174.51,193.64,174.74,193.22,175.19z"/>
						<path class="st14" d="M205.4,173.81c0.54,0.46,0.87,1.07,0.99,1.84h-1.5c-0.06-0.42-0.24-0.75-0.54-1.01
							c-0.29-0.25-0.68-0.38-1.16-0.38c-0.4,0-0.71,0.1-0.92,0.28c-0.22,0.19-0.33,0.45-0.33,0.77c0,0.24,0.08,0.44,0.24,0.58
							c0.16,0.15,0.35,0.26,0.59,0.35c0.24,0.08,0.57,0.18,1.01,0.28c0.57,0.13,1.04,0.26,1.4,0.4c0.36,0.14,0.66,0.36,0.92,0.66
							c0.25,0.3,0.38,0.71,0.38,1.23c0,0.64-0.24,1.16-0.73,1.56c-0.49,0.4-1.14,0.6-1.97,0.6c-0.95,0-1.72-0.22-2.31-0.67
							c-0.59-0.44-0.94-1.06-1.06-1.86h1.54c0.05,0.42,0.23,0.76,0.56,1.01c0.32,0.26,0.75,0.39,1.28,0.39c0.38,0,0.68-0.1,0.9-0.3
							c0.22-0.2,0.33-0.45,0.33-0.76c0-0.27-0.08-0.48-0.25-0.64c-0.17-0.16-0.38-0.28-0.63-0.37c-0.25-0.09-0.59-0.18-1.03-0.27
							c-0.56-0.13-1.01-0.26-1.35-0.39c-0.35-0.13-0.64-0.34-0.89-0.63c-0.24-0.29-0.37-0.69-0.37-1.19c0-0.65,0.24-1.17,0.73-1.58
							c0.49-0.4,1.16-0.6,2.02-0.6C204.14,173.12,204.86,173.35,205.4,173.81z"/>
						<path class="st14" d="M213.92,173.91c0.65,0.52,1.05,1.23,1.21,2.13h-1.68c-0.09-0.48-0.32-0.86-0.67-1.13
							c-0.36-0.27-0.8-0.41-1.34-0.41c-0.61,0-1.12,0.21-1.53,0.65c-0.41,0.43-0.61,1.06-0.61,1.9s0.2,1.47,0.61,1.9
							c0.41,0.44,0.92,0.65,1.53,0.65c0.54,0,0.98-0.14,1.34-0.42c0.36-0.28,0.58-0.66,0.67-1.14h1.68
							c-0.16,0.9-0.56,1.61-1.21,2.14c-0.65,0.53-1.47,0.79-2.46,0.79c-0.74,0-1.4-0.16-1.97-0.47c-0.57-0.31-1.02-0.77-1.34-1.36
							c-0.32-0.59-0.49-1.29-0.49-2.1c0-0.8,0.16-1.49,0.49-2.08c0.32-0.59,0.77-1.05,1.34-1.36s1.22-0.47,1.97-0.47
							C212.45,173.12,213.27,173.38,213.92,173.91z"/>
						<path class="st14" d="M221.5,173.64c0.49,0.34,0.84,0.8,1.04,1.36v-1.78h1.58v7.65h-1.58v-1.78c-0.2,0.56-0.55,1.02-1.04,1.36
							c-0.49,0.34-1.08,0.51-1.78,0.51c-0.67,0-1.26-0.16-1.79-0.47c-0.52-0.31-0.93-0.77-1.23-1.36c-0.3-0.59-0.44-1.29-0.44-2.1
							c0-0.8,0.15-1.49,0.44-2.08c0.3-0.59,0.71-1.05,1.23-1.36c0.52-0.31,1.12-0.47,1.79-0.47
							C220.42,173.12,221.01,173.29,221.5,173.64z M218.52,175.19c-0.42,0.45-0.63,1.07-0.63,1.85c0,0.79,0.21,1.41,0.63,1.85
							c0.42,0.45,0.98,0.67,1.69,0.67c0.44,0,0.84-0.1,1.2-0.31c0.35-0.21,0.63-0.5,0.83-0.88c0.2-0.38,0.3-0.82,0.3-1.33
							c0-0.5-0.1-0.94-0.3-1.33c-0.2-0.38-0.48-0.68-0.83-0.89c-0.35-0.21-0.75-0.31-1.2-0.31
							C219.51,174.51,218.94,174.74,218.52,175.19z"/>
						<path class="st14" d="M232.2,173.6c0.52,0.31,0.93,0.77,1.23,1.36c0.3,0.59,0.44,1.29,0.44,2.08c0,0.81-0.15,1.5-0.44,2.1
							c-0.3,0.59-0.71,1.05-1.23,1.36c-0.52,0.31-1.12,0.47-1.78,0.47c-0.69,0-1.29-0.17-1.78-0.51c-0.49-0.34-0.83-0.8-1.03-1.36
							v5.42h-1.58v-11.29h1.58V175c0.19-0.56,0.54-1.02,1.03-1.36c0.49-0.34,1.08-0.51,1.78-0.51
							C231.09,173.12,231.68,173.28,232.2,173.6z M228.74,174.82c-0.35,0.21-0.63,0.5-0.83,0.89c-0.2,0.38-0.31,0.83-0.31,1.33
							c0,0.51,0.1,0.95,0.31,1.33c0.2,0.38,0.48,0.67,0.83,0.88c0.35,0.21,0.75,0.31,1.2,0.31c0.7,0,1.27-0.22,1.69-0.67
							c0.43-0.45,0.64-1.07,0.64-1.85c0-0.78-0.21-1.39-0.64-1.85c-0.43-0.45-0.99-0.68-1.69-0.68
							C229.49,174.51,229.09,174.62,228.74,174.82z"/>
						<path class="st14" d="M242.46,177.36h-5.89c0.03,0.79,0.25,1.37,0.65,1.75c0.41,0.38,0.91,0.57,1.51,0.57
							c0.53,0,0.97-0.13,1.34-0.4c0.37-0.27,0.59-0.62,0.67-1.07h1.69c-0.1,0.54-0.31,1.01-0.64,1.43
							c-0.32,0.42-0.74,0.74-1.26,0.98c-0.52,0.24-1.1,0.35-1.74,0.35c-0.74,0-1.4-0.16-1.97-0.47c-0.57-0.31-1.02-0.77-1.34-1.36
							c-0.32-0.59-0.49-1.29-0.49-2.1c0-0.8,0.16-1.49,0.49-2.08c0.32-0.59,0.77-1.05,1.34-1.36c0.57-0.31,1.22-0.47,1.97-0.47
							c0.75,0,1.4,0.16,1.97,0.46c0.56,0.31,0.99,0.74,1.29,1.28s0.45,1.15,0.45,1.81C242.52,176.94,242.5,177.17,242.46,177.36z
							 M240.66,175.38c-0.19-0.34-0.45-0.59-0.78-0.75s-0.69-0.24-1.08-0.24c-0.62,0-1.14,0.19-1.56,0.57
							c-0.42,0.38-0.64,0.94-0.68,1.68h4.35C240.94,176.14,240.85,175.72,240.66,175.38z"/>
						<path class="st14" d="M248.72,173.81c0.54,0.46,0.87,1.07,0.99,1.84h-1.5c-0.06-0.42-0.24-0.75-0.54-1.01
							c-0.29-0.25-0.68-0.38-1.16-0.38c-0.4,0-0.71,0.1-0.92,0.28c-0.22,0.19-0.33,0.45-0.33,0.77c0,0.24,0.08,0.44,0.24,0.58
							c0.16,0.15,0.35,0.26,0.59,0.35c0.24,0.08,0.57,0.18,1.01,0.28c0.57,0.13,1.04,0.26,1.4,0.4c0.36,0.14,0.66,0.36,0.92,0.66
							c0.25,0.3,0.38,0.71,0.38,1.23c0,0.64-0.24,1.16-0.73,1.56c-0.49,0.4-1.14,0.6-1.97,0.6c-0.95,0-1.72-0.22-2.31-0.67
							c-0.59-0.44-0.94-1.06-1.06-1.86h1.54c0.05,0.42,0.23,0.76,0.56,1.01c0.32,0.26,0.75,0.39,1.28,0.39c0.38,0,0.68-0.1,0.9-0.3
							c0.22-0.2,0.33-0.45,0.33-0.76c0-0.27-0.08-0.48-0.25-0.64c-0.17-0.16-0.38-0.28-0.63-0.37c-0.25-0.09-0.59-0.18-1.03-0.27
							c-0.56-0.13-1.01-0.26-1.35-0.39c-0.35-0.13-0.64-0.34-0.89-0.63c-0.24-0.29-0.37-0.69-0.37-1.19c0-0.65,0.24-1.17,0.73-1.58
							c0.49-0.4,1.16-0.6,2.02-0.6C247.46,173.12,248.18,173.35,248.72,173.81z"/>
					</g>
				</g>
			</g>
		</g>
	</g>
</g>
</svg>
