<?xml version="1.0" encoding="utf-8"?>
<!-- Generator: Adobe Illustrator 27.8.1, SVG Export Plug-In . SVG Version: 6.00 Build 0)  -->
<svg version="1.1" id="Layer_1" xmlns="http://www.w3.org/2000/svg" xmlns:xlink="http://www.w3.org/1999/xlink" x="0px" y="0px"
	 viewBox="0 0 348 228" style="enable-background:new 0 0 348 228;" xml:space="preserve">
<style type="text/css">
	.st0{fill:#D6EADE;}
	.st1{fill:#03487C;}
	.st2{fill:#1B1B4C;}
	.st3{fill-rule:evenodd;clip-rule:evenodd;fill:#204F7A;}
	.st4{fill-rule:evenodd;clip-rule:evenodd;fill:#50A4FF;}
	.st5{fill:#002649;}
	.st6{fill:#E6E7E8;stroke:#CFCFCF;stroke-width:0.1061;}
	.st7{fill:#333333;}
	.st8{fill:#0F5998;}
	.st9{fill:#277FC1;}
	.st10{fill-rule:evenodd;clip-rule:evenodd;fill:#277FC1;}
	.st11{fill-rule:evenodd;clip-rule:evenodd;fill:#083D6D;}
	.st12{fill:#DDB462;}
	
		.st13{clip-path:url(#SVGID_00000167382921152852563570000006806907098625963957_);fill:url(#SVGID_00000154383835710800777240000002174601467046811061_);}
	.st14{fill:#FFFFFF;}
	.st15{fill:url(#SVGID_00000011020003837232103000000001723003632011387047_);}
	.st16{fill:#FFE000;}
	.st17{fill:#224685;}
	.st18{fill:none;}
	.st19{fill:#FFC73B;}
	.st20{fill:#11233F;}
	.st21{fill:#5267FF;}
	.st22{fill-rule:evenodd;clip-rule:evenodd;fill:#72342E;}
	.st23{fill:#72342E;}
	.st24{fill:#FFF2E2;}
	.st25{fill:#FFF2E2;stroke:#72342E;stroke-width:0.75;stroke-miterlimit:10;}
	.st26{fill:#FFCC99;}
	.st27{fill:#469CB2;}
	.st28{fill:url(#XMLID_00000007424674625006705280000004422798844241573273_);}
	.st29{fill:url(#XMLID_00000044885181956699757710000009712519475001062320_);}
	.st30{fill:url(#XMLID_00000147906990836131766390000015900376004137268920_);}
	.st31{fill:url(#XMLID_00000152248926050749735070000000022591857823791244_);}
	.st32{fill:url(#XMLID_00000182525328254291702310000012627831291178681218_);}
	.st33{fill:url(#XMLID_00000116214746796969766700000017993446977851983505_);}
	.st34{fill:url(#XMLID_00000039107996013697745290000013216059538361830293_);}
	.st35{fill:url(#XMLID_00000093173838449405499240000007298342610077061017_);}
	.st36{fill:url(#XMLID_00000107579069644677231050000004153141935265741246_);}
	.st37{fill:url(#XMLID_00000016044593435429167410000011836832890604889277_);}
	.st38{fill:url(#XMLID_00000047760580595489094650000011217219683482323590_);}
	.st39{fill:url(#XMLID_00000021820415834812331750000012217519672254249642_);}
	.st40{fill:url(#XMLID_00000045601488650129714910000007743605482885462917_);}
	.st41{fill:url(#XMLID_00000042705560619269485590000007831700838429044135_);}
	.st42{fill:url(#XMLID_00000039133797406413311480000002232352514588675985_);}
	.st43{fill:url(#SVGID_00000003793605078474079890000000277559457245596309_);}
	.st44{fill:url(#SVGID_00000057843976917664783720000011693441864079337654_);}
	.st45{fill:url(#SVGID_00000152950481472703133710000001067283564768649142_);}
	.st46{fill:url(#SVGID_00000124879755887263295160000000206706707958007701_);}
	.st47{fill:url(#SVGID_00000078755132170478451610000010093079830636363662_);}
	.st48{fill:url(#SVGID_00000179646659213971280480000007045384044775606189_);}
	.st49{fill:url(#SVGID_00000134951144847427507520000009361144277942926780_);}
	.st50{fill:url(#SVGID_00000073704450977843807000000013046344383463310249_);}
	.st51{fill:url(#SVGID_00000044867852926347000800000003859733287797208448_);}
	.st52{fill:url(#SVGID_00000053539180218152191960000012678004252742164139_);}
	.st53{fill:url(#SVGID_00000091000203444740227860000001307108888343926973_);}
	.st54{fill:url(#SVGID_00000065034492378705557790000006391879291220067730_);}
	.st55{fill:url(#SVGID_00000136373165703450382900000008009819548618287498_);}
	.st56{fill:url(#SVGID_00000088833326906237916040000003043592908980031873_);}
	.st57{fill:#30325E;}
	.st58{fill:#FF7859;}
	.st59{fill:#FFD550;}
	.st60{fill:#00C3AD;}
	.st61{fill:#FF4653;}
	.st62{fill:#D8CE19;}
	.st63{fill:#C1E5DE;}
	.st64{fill:#FFE4D2;}
	.st65{fill:#DFF4F0;}
	.st66{fill:#A2E0EB;}
	.st67{fill:#1B3493;}
	.st68{fill:none;stroke:#FFFFFF;stroke-width:2;stroke-linecap:round;stroke-linejoin:round;stroke-miterlimit:10;}
	.st69{fill:#F15A24;}
	.st70{fill:#F7931E;}
	.st71{fill:#58595B;}
	.st72{fill:#114E15;}
	.st73{fill:#013D01;}
	.st74{fill:#E9C608;}
	.st75{fill:#043B00;}
	.st76{fill:#D8A43E;}
	.st77{clip-path:url(#SVGID_00000103265769720141626860000014475112927075368843_);}
	.st78{fill:#F49630;}
	.st79{clip-path:url(#SVGID_00000179640801565212039630000008650274539250246320_);}
	.st80{clip-path:url(#SVGID_00000018943801588788776040000011347786761607186826_);}
	.st81{clip-path:url(#SVGID_00000151517704756415675980000012089059011227122853_);}
	.st82{clip-path:url(#SVGID_00000074406442444576777350000000369708701583937196_);}
	.st83{fill-rule:evenodd;clip-rule:evenodd;fill:#FF6600;}
	.st84{fill-rule:evenodd;clip-rule:evenodd;fill:#05174F;}
	.st85{fill:#05174F;}
	.st86{opacity:0.42;fill:url(#SVGID_00000168827697013158553410000002423035057097670301_);enable-background:new    ;}
	.st87{opacity:0.42;fill:url(#SVGID_00000005984184846070163300000010502675571518416518_);enable-background:new    ;}
	.st88{fill:url(#SVGID_00000056403038282772036700000002247658370743280308_);}
	.st89{fill:url(#SVGID_00000130614581632340702780000007877407090713407881_);}
	.st90{opacity:0.64;fill:url(#SVGID_00000096769566737881495190000016853392022967262603_);enable-background:new    ;}
	.st91{opacity:0.75;fill:url(#SVGID_00000174591052710172383710000018372913112993877915_);enable-background:new    ;}
	.st92{fill:url(#SVGID_00000008112199284146834030000012100344572436628096_);}
	.st93{fill:url(#SVGID_00000017500473863540025330000010850585720075730615_);}
	.st94{opacity:0.76;fill:url(#SVGID_00000153681772959960674160000005633037576398228126_);enable-background:new    ;}
	.st95{opacity:0.75;fill:url(#SVGID_00000142891391133548150690000016958638900115634839_);enable-background:new    ;}
	.st96{fill:url(#SVGID_00000014611234201933837740000002330262522252671373_);}
	.st97{opacity:0.42;fill:url(#SVGID_00000165932646083077649540000002822004094747471274_);enable-background:new    ;}
	.st98{opacity:0.42;fill:url(#SVGID_00000044145424860173850720000009962102291156374448_);enable-background:new    ;}
	.st99{clip-path:url(#SVGID_00000085252576724208563380000003206636234056932002_);}
	.st100{fill:#1ED7FE;}
	.st101{clip-path:url(#SVGID_00000088095177792197218080000015648963240327606430_);}
	.st102{clip-path:url(#SVGID_00000048481547989663775120000012632482253363325595_);}
	.st103{fill:#000056;}
	.st104{clip-path:url(#SVGID_00000016759799707928099760000015249069994525211031_);}
	.st105{enable-background:new    ;}
	.st106{fill:#053272;}
	.st107{fill:none;stroke:#053272;stroke-width:4;stroke-miterlimit:10;}
	.st108{fill:url(#SVGID_00000041980583485651659000000012591965732804885171_);}
	.st109{fill:url(#SVGID_00000125569981027203145170000010812912501807894436_);}
	.st110{fill:url(#SVGID_00000075142133242749334930000017464182784513949084_);}
	.st111{fill:url(#SVGID_00000048466169250414934080000016486801858624778399_);}
	.st112{fill:url(#SVGID_00000113316670841537411730000007663404509651196597_);}
	.st113{fill:url(#SVGID_00000076581584208231350810000011691205924181251228_);}
	.st114{fill:url(#SVGID_00000003069017171429233680000006823703597358279828_);}
	.st115{fill:url(#SVGID_00000037651462896863138350000002872105086113673909_);}
	.st116{fill:url(#SVGID_00000135666861983666556990000008341431685263857569_);}
	.st117{fill:url(#SVGID_00000109731578574327089770000010733855931526115773_);}
	.st118{fill:url(#SVGID_00000119811467799466786880000012119280302770177183_);}
	.st119{fill:url(#SVGID_00000017500082925341777610000014944457818846481799_);}
	.st120{fill:url(#SVGID_00000145736774342247653300000011683654866382371749_);}
	.st121{fill:url(#SVGID_00000140014975832864496240000005515763924534543017_);}
	.st122{fill:url(#SVGID_00000001622211490295506110000017873540898511390139_);}
	.st123{fill:url(#SVGID_00000155107512336542726300000010941151049416760505_);}
	.st124{fill:url(#SVGID_00000157987110273250319340000005204346373830002325_);}
	.st125{fill:url(#SVGID_00000091733169691625088050000014846277107568380313_);}
	.st126{fill:url(#SVGID_00000039845491592411653160000014814858792695737750_);}
	.st127{fill:url(#SVGID_00000126314079858344900720000010880375736655188621_);}
	.st128{fill:url(#SVGID_00000037665392842593439800000005819767732037310888_);}
	.st129{fill:url(#SVGID_00000112622374243983637970000010033185060963891844_);}
	.st130{fill:url(#SVGID_00000042711086199328831210000017719587138979138205_);}
	.st131{fill:url(#SVGID_00000141429067169588275350000007492339970858614453_);}
	.st132{fill:url(#SVGID_00000179644307019788989990000010096013303750366093_);}
	.st133{fill:url(#SVGID_00000084529824698164680100000006614429479871513221_);}
	.st134{fill:url(#SVGID_00000173132153919399724160000002549264262118227112_);}
	.st135{fill:url(#SVGID_00000101075007795070013380000004164237951787194021_);}
	.st136{fill:url(#SVGID_00000168819046080255496840000004415036176237088651_);}
	.st137{fill:none;stroke:#FEF73D;stroke-linecap:round;stroke-miterlimit:10;}
	.st138{fill:#FF189C;}
	.st139{fill:none;stroke:#FF189C;stroke-miterlimit:10;}
	.st140{fill:none;stroke:#00EFF1;stroke-linecap:round;stroke-miterlimit:10;}
	.st141{fill:#00EFF1;}
	.st142{fill:#FFA022;}
	.st143{fill:#0C103A;}
	.st144{fill-rule:evenodd;clip-rule:evenodd;fill:#5D9541;}
	.st145{fill-rule:evenodd;clip-rule:evenodd;fill:#F06021;}
	.st146{fill-rule:evenodd;clip-rule:evenodd;fill:#69BC60;}
	.st147{fill-rule:evenodd;clip-rule:evenodd;fill:#F6951C;}
	.st148{fill:#F6951C;}
	.st149{fill:url(#SVGID_00000020378500070698482600000000698300291804021126_);}
	.st150{fill:url(#SVGID_00000074407140269828273820000002884116106756903845_);}
	.st151{fill:url(#SVGID_00000080899261114706948560000009536664158157887162_);}
	.st152{fill:url(#SVGID_00000062162145444327446440000010268286206406760594_);}
	.st153{fill:url(#SVGID_00000182523745198959924570000017560318474898150307_);}
	.st154{fill:url(#SVGID_00000070098595270252065680000017257558412955936952_);}
	.st155{fill:url(#SVGID_00000021802670598196787940000003066363673634072717_);}
	.st156{fill:url(#SVGID_00000128451458868097677320000017890738597793823897_);}
	.st157{fill:url(#SVGID_00000044143987928658661950000008453424925310406331_);}
	.st158{fill:url(#SVGID_00000045615093073514420730000013433760916925469583_);}
	.st159{fill:url(#SVGID_00000066473875377092842350000017856872826131990693_);}
	.st160{fill:url(#SVGID_00000013160126735214452180000016114175714322429068_);}
	.st161{fill:url(#SVGID_00000137132812509629621450000018270603454543610557_);}
	.st162{fill:url(#SVGID_00000143606564687557262320000012523406734498973855_);}
	.st163{fill:url(#SVGID_00000039115916838079829950000016399936347494801795_);}
	.st164{fill:url(#SVGID_00000019664238515263170330000016464474561184803505_);}
	.st165{fill:url(#SVGID_00000136387172585189603520000000131173226390584744_);}
	.st166{fill:url(#SVGID_00000116943768042897238160000007036310383232201886_);}
	.st167{fill:url(#SVGID_00000085252365914311825050000015748675693320639166_);}
	.st168{fill:url(#SVGID_00000183939891121340289430000012587116690559000765_);}
	.st169{fill:url(#SVGID_00000101797393951780642320000010359756266892874654_);}
	.st170{fill:url(#SVGID_00000049943735114263984230000018267361998271534744_);}
	.st171{fill-rule:evenodd;clip-rule:evenodd;fill:#512100;}
	.st172{fill-rule:evenodd;clip-rule:evenodd;fill:#006D62;}
	.st173{fill-rule:evenodd;clip-rule:evenodd;}
	.st174{fill-rule:evenodd;clip-rule:evenodd;fill:#00A1F5;}
	.st175{fill-rule:evenodd;clip-rule:evenodd;fill:#FACFAB;}
	.st176{fill-rule:evenodd;clip-rule:evenodd;fill:#F29673;}
	.st177{fill-rule:evenodd;clip-rule:evenodd;fill:#FFFFFF;}
	.st178{fill-rule:evenodd;clip-rule:evenodd;fill:#333333;}
	.st179{fill-rule:evenodd;clip-rule:evenodd;fill:#BD4D00;}
	.st180{fill-rule:evenodd;clip-rule:evenodd;fill:#B2B2B2;}
	.st181{fill-rule:evenodd;clip-rule:evenodd;fill:#F2CC29;}
	.st182{fill-rule:evenodd;clip-rule:evenodd;fill:#005C9C;}
	.st183{fill-rule:evenodd;clip-rule:evenodd;fill:#8AC900;}
	.st184{fill-rule:evenodd;clip-rule:evenodd;fill:#808080;}
	.st185{fill-rule:evenodd;clip-rule:evenodd;fill:#CFA605;}
	.st186{fill-rule:evenodd;clip-rule:evenodd;fill:#666666;}
	.st187{fill-rule:evenodd;clip-rule:evenodd;fill:#CCCCCC;}
	.st188{fill:#960000;}
	.st189{fill:#00A1F5;}
	.st190{fill:url(#SVGID_00000006694495233154183600000017691560376716657831_);}
	.st191{fill:url(#SVGID_00000080929158040171923210000008453743494460963204_);}
	.st192{opacity:0.51;fill:url(#SVGID_00000003093587539085605010000000872700329895576470_);}
	.st193{fill:url(#SVGID_00000014635254907153967290000014540867956514067884_);}
	.st194{fill:url(#SVGID_00000039830617069891326930000007163519320523717276_);}
	.st195{fill:url(#SVGID_00000168078118022608295190000016812549556580322950_);}
	.st196{opacity:0.35;fill:url(#SVGID_00000069399034968749607510000000543587903196748170_);}
	.st197{opacity:0.35;fill:url(#SVGID_00000137105431882083890640000012595167818399375247_);}
	.st198{fill:#F06021;}
	.st199{fill-rule:evenodd;clip-rule:evenodd;fill:url(#SVGID_00000157305627115346741020000005605435486405995163_);}
	.st200{fill-rule:evenodd;clip-rule:evenodd;fill:url(#SVGID_00000022557968581571616510000001019397965982712192_);}
	.st201{fill-rule:evenodd;clip-rule:evenodd;fill:url(#SVGID_00000115476046012376171270000013564796791826055832_);}
	.st202{fill-rule:evenodd;clip-rule:evenodd;fill:url(#SVGID_00000134212187820631932720000015362348814852562856_);}
	.st203{fill-rule:evenodd;clip-rule:evenodd;fill:url(#SVGID_00000063609315048745308830000004593874362205532565_);}
	.st204{fill-rule:evenodd;clip-rule:evenodd;fill:url(#SVGID_00000018928378536776039850000010252120514435116967_);}
	.st205{fill-rule:evenodd;clip-rule:evenodd;fill:url(#SVGID_00000096049715114665071730000010071060483926023316_);}
	.st206{fill-rule:evenodd;clip-rule:evenodd;fill:url(#SVGID_00000093152892722085763990000007339997300996263830_);}
	.st207{fill-rule:evenodd;clip-rule:evenodd;fill:url(#SVGID_00000109003391852705210640000007269577664717253773_);}
	.st208{fill-rule:evenodd;clip-rule:evenodd;fill:url(#SVGID_00000018228114092509952040000009761686294416919952_);}
	.st209{fill-rule:evenodd;clip-rule:evenodd;fill:url(#SVGID_00000097501920143561664320000017831078125862728125_);}
	.st210{fill-rule:evenodd;clip-rule:evenodd;fill:url(#SVGID_00000103961770646014038100000001752599183328620947_);}
	.st211{fill-rule:evenodd;clip-rule:evenodd;fill:url(#SVGID_00000105424406455320488390000017141711118630078135_);}
	.st212{opacity:0.5;fill-rule:evenodd;clip-rule:evenodd;fill:#5D0101;enable-background:new    ;}
	.st213{fill:#E11B22;}
	.st214{fill:#003359;}
	.st215{fill:#0EB17C;}
	.st216{fill:#959595;}
	.st217{fill:#1779C1;}
	.st218{fill:#2B2353;}
	.st219{fill:#BE264E;}
	.st220{fill:#EAA41C;}
	.st221{fill:#1F9EF3;}
	.st222{fill:#0267A3;}
	.st223{fill:#FFEC00;}
	.st224{fill:#00A0E0;}
	.st225{fill:#E3007E;}
	.st226{fill:none;stroke:#000000;stroke-width:2;stroke-miterlimit:10;}
	.st227{fill:#FF9E80;}
	.st228{fill:#414151;}
	.st229{fill:#2B295E;}
	.st230{fill:#CCCCCC;}
	.st231{fill:#FF8C5C;}
	.st232{fill:#DBA21C;}
	.st233{fill:#EDDBB2;}
	.st234{fill:#DEC58B;}
	.st235{fill:#997113;}
	.st236{fill:#B88817;}
	.st237{fill:#003400;stroke:#8EC13D;stroke-width:4;stroke-miterlimit:10;}
	.st238{fill:#8EC13D;}
	.st239{fill:#F2F2F2;}
	.st240{fill:url(#XMLID_00000178191791882439663920000014802080995306708645_);}
	.st241{fill:url(#SVGID_00000096052259766006706850000016939585407716793503_);}
	.st242{fill:url(#SVGID_00000024687271928442969360000011097989464760508831_);}
	.st243{fill:url(#SVGID_00000167372807430962775420000002521788526634495397_);}
	.st244{fill:url(#SVGID_00000159471791737946644040000014244516443744320689_);}
	.st245{fill:url(#SVGID_00000014622293060220975630000013312964889059847810_);}
	.st246{fill:url(#SVGID_00000092438729412923158610000002455489766523289745_);}
	.st247{fill:url(#SVGID_00000147180774664720736790000003235831217740552081_);}
	.st248{fill:url(#SVGID_00000154405857952407795460000008941434651647067794_);}
	.st249{fill:url(#SVGID_00000046312678117594330640000003227233484049315727_);}
	.st250{fill:url(#SVGID_00000062871225085893271670000005525491026546023090_);}
	.st251{fill:url(#SVGID_00000113326990524328254370000000223385991810641564_);}
	.st252{fill:#1C75BC;}
	.st253{fill:#46920C;}
	.st254{fill:#FF9400;}
	.st255{fill:url(#SVGID_00000172402810308563661230000017863593987002120868_);}
	.st256{fill:url(#SVGID_00000088105642189524094710000008579568355020803230_);}
	.st257{fill:url(#SVGID_00000152236703201197712510000003099273369463079310_);}
	.st258{fill:url(#SVGID_00000180329013092008268430000002465414451830737562_);}
	.st259{fill:url(#SVGID_00000096763613825737771960000003881350879067624104_);}
	.st260{fill:url(#SVGID_00000144326271052166140300000016770570538811374733_);}
	.st261{fill:url(#SVGID_00000182523047957350091150000013129317266529204353_);}
	.st262{fill:url(#SVGID_00000021808011803817355960000006169413014390132107_);}
	.st263{fill:url(#SVGID_00000165196298387536315970000003640193058567102345_);}
	.st264{fill:url(#SVGID_00000146497311659311693420000016473288549286512316_);}
	.st265{fill:url(#SVGID_00000052065944430549404710000003271139982100623269_);}
	.st266{fill:url(#SVGID_00000116214547486020435630000018011534320864359814_);}
	.st267{fill:url(#SVGID_00000057122551950199965390000001381638092558871681_);}
	.st268{fill:url(#SVGID_00000152974812868940697640000002919241901142981053_);}
	.st269{fill:url(#SVGID_00000034801290071433598030000007197425549341271189_);}
	.st270{fill:url(#SVGID_00000059279548280536920130000006314257269365363643_);}
	.st271{fill:url(#SVGID_00000027581877544880055770000009141443899077101699_);}
	.st272{fill:url(#SVGID_00000101786550895958999280000006007205721227275433_);}
	.st273{fill:url(#SVGID_00000123431999312882014020000008126829815556894868_);}
	.st274{fill:#2F3F67;}
	.st275{fill:#C97F32;}
	.st276{fill:none;stroke:#C97F32;stroke-width:1.2891;stroke-miterlimit:10;}
	.st277{fill:url(#XMLID_00000076601919407366886560000002606615796342683295_);}
	.st278{fill:#00548B;}
	.st279{fill:#004368;}
	.st280{fill:#94070A;}
	.st281{fill:url(#XMLID_00000013883626546302327310000000969414419673993110_);}
	.st282{fill:url(#XMLID_00000046313583221138932720000000915167034704055733_);}
	.st283{fill:#B34A06;}
	.st284{fill:#A2B5C4;}
	.st285{fill:#192940;}
	.st286{fill:url(#SVGID_00000121255984865208884540000002738915887731868811_);}
	.st287{fill:url(#SVGID_00000023256804073246057860000001621006474374449833_);}
	.st288{fill:url(#SVGID_00000128474621674776873620000003947876375231780013_);}
	.st289{opacity:0.93;fill:url(#SVGID_00000126281394035434234160000006575501364879271336_);}
	.st290{opacity:0.93;fill:url(#SVGID_00000005255533611730750320000006204877917256573364_);}
	.st291{opacity:0.93;fill:url(#SVGID_00000096758300856546979440000012700160613490596742_);}
	.st292{opacity:0.93;fill:url(#SVGID_00000080184343478852620650000006071133958827861669_);}
	.st293{fill:url(#SVGID_00000176726716901737916810000012808514631640897715_);}
	.st294{stroke:#000000;stroke-width:0.75;stroke-miterlimit:10;}
</style>
<rect x="0.15" class="st16" width="347.69" height="228"/>
<g>
	<g>
		<g>
			<g>
				<path class="st17" d="M75.56,146.63h5.99v21.36h10.48V173H75.56V146.63z"/>
				<path class="st17" d="M118.2,159.54c0,8.65-5.24,13.89-12.95,13.89c-7.82,0-12.4-5.91-12.4-13.42c0-7.9,5.05-13.81,12.83-13.81
					C113.78,146.2,118.2,152.27,118.2,159.54z M99.15,159.89c0,5.16,2.43,8.8,6.42,8.8c4.03,0,6.34-3.83,6.34-8.96
					c0-4.73-2.27-8.8-6.38-8.8C101.5,150.94,99.15,154.77,99.15,159.89z"/>
				<path class="st17" d="M144.14,171.79c-1.84,0.63-5.32,1.49-8.8,1.49c-4.81,0-8.29-1.21-10.72-3.56
					c-2.43-2.27-3.76-5.71-3.72-9.58c0.04-8.76,6.42-13.77,15.06-13.77c3.4,0,6.02,0.67,7.32,1.29l-1.25,4.77
					c-1.45-0.63-3.25-1.13-6.14-1.13c-4.97,0-8.72,2.82-8.72,8.53c0,5.44,3.4,8.65,8.29,8.65c1.37,0,2.46-0.16,2.93-0.39v-5.52
					h-4.07v-4.66h9.82V171.79z"/>
				<path class="st17" d="M154.78,146.63V173h-5.99v-26.37H154.78z"/>
				<path class="st17" d="M160.14,166.86c1.6,0.82,4.07,1.64,6.61,1.64c2.74,0,4.19-1.13,4.19-2.86c0-1.64-1.25-2.58-4.42-3.72
					c-4.38-1.53-7.24-3.95-7.24-7.79c0-4.5,3.76-7.94,9.98-7.94c2.97,0,5.16,0.63,6.73,1.33l-1.33,4.81
					c-1.06-0.51-2.93-1.25-5.52-1.25c-2.58,0-3.83,1.17-3.83,2.54c0,1.68,1.49,2.43,4.89,3.72c4.66,1.72,6.85,4.15,6.85,7.86
					c0,4.42-3.4,8.18-10.64,8.18c-3.01,0-5.99-0.78-7.47-1.6L160.14,166.86z"/>
				<path class="st17" d="M186.16,151.64h-7.08v-5.01h20.27v5.01h-7.2V173h-5.99V151.64z"/>
				<path class="st17" d="M208.49,146.63V173h-5.99v-26.37H208.49z"/>
				<path class="st17" d="M233.02,172.26c-1.1,0.55-3.56,1.13-6.77,1.13c-9.12,0-13.81-5.67-13.81-13.18c0-9,6.42-14.01,14.4-14.01
					c3.09,0,5.44,0.63,6.49,1.17l-1.21,4.73c-1.21-0.51-2.89-0.98-5.01-0.98c-4.73,0-8.41,2.86-8.41,8.72
					c0,5.28,3.13,8.61,8.45,8.61c1.8,0,3.79-0.39,4.97-0.86L233.02,172.26z"/>
				<path class="st17" d="M237.13,166.86c1.6,0.82,4.07,1.64,6.61,1.64c2.74,0,4.19-1.13,4.19-2.86c0-1.64-1.25-2.58-4.42-3.72
					c-4.38-1.53-7.24-3.95-7.24-7.79c0-4.5,3.76-7.94,9.98-7.94c2.97,0,5.16,0.63,6.73,1.33l-1.33,4.81
					c-1.06-0.51-2.93-1.25-5.52-1.25c-2.58,0-3.83,1.17-3.83,2.54c0,1.68,1.49,2.43,4.89,3.72c4.66,1.72,6.85,4.15,6.85,7.86
					c0,4.42-3.4,8.18-10.64,8.18c-3.01,0-5.99-0.78-7.47-1.6L237.13,166.86z"/>
			</g>
		</g>
		<path class="st17" d="M54.3,118.9c0.4-6.2,1.45-13.52,1.45-13.52l4.02,0.72V84.13h-4.02v-4.75h20.84v6.28h7.32V99.9h3.7V89.28
			h13.92l-0.36,19.03h135.76h2.17l4.75-1.85l2.17-2.58c0,0,47.56-4.27,47.96-2.49c0.4,1.77-16.1,9.82-17.95,14.24
			c-1.15,2.74-8.53,6.97-16.87,9.9c-1.48,5.43-6.45,9.42-12.34,9.42H78.8c-3.59,0-6.83-1.48-9.15-3.85
			c-5.27,2.09-9.85,3.03-12.83,0.26C53.34,128.12,53.89,125.09,54.3,118.9z"/>
		<path class="st17" d="M246,141.33c0,0-118.87,3.39-164.65,0"/>
		<path class="st17" d="M70.68,137.32c0,0,165.42,4.71,182.39,0.62"/>
		<rect x="105.1" y="88.94" class="st17" width="27.92" height="17"/>
		<rect x="158.02" y="47.58" class="st17" width="27.92" height="17"/>
		<g>
			<path class="st18" d="M219.19,79.34v5.23C219.66,82.86,219.61,81.08,219.19,79.34z"/>
			<path class="st18" d="M219.03,85.09h-20.45c-2.37,1.41-5.3,2.71-8.86,3.85h12.13v5.96c1.68-0.33,3.42-0.73,5.22-1.21
				c0.86-0.23,1.67-0.48,2.43-0.74v-4h7.02C217.75,87.74,218.56,86.44,219.03,85.09z"/>
			<path class="st17" d="M123.18,85.09h8.69c-3.03-1.2-5.94-2.47-8.69-3.77V85.09z"/>
			<path class="st17" d="M151.1,81.81V68.09h-27.92v6.81c1.14,0.41,2.32,0.83,3.56,1.27C135.11,79.15,143.37,80.94,151.1,81.81z"/>
			<path class="st17" d="M143.19,88.94h-2.51v17h27.92v-13.4C159.89,92.68,151.27,91.23,143.19,88.94z"/>
			<path class="st17" d="M179.41,95.63c0,0,9.05,1.89,22.42-0.73v-5.96h-12.13c-2.95,0.95-6.32,1.79-10.17,2.51
				c-1.87,0.35-3.75,0.61-5.62,0.79v13.7h27.92v-8.5C189.82,98.53,179.41,95.63,179.41,95.63z"/>
			<path class="st17" d="M234.85,88.94c-1.98,7.67-9.72,13.22-9.72,13.22s-0.49-0.14,3.9-6.27c1.51-2.11,2.53-4.45,2.89-6.95h-7.9
				c-0.51,0.52-1.1,1.03-1.79,1.52c-3.95,2.82-8.33,4.62-12.74,5.71v9.77h27.92v-17H234.85z"/>
			<path class="st17" d="M209.49,92.94c3.15-1.1,5.44-2.47,7.02-4h-7.02V92.94z"/>
			<path class="st17" d="M198.57,85.09h20.45c0.06-0.17,0.11-0.35,0.16-0.52v-5.23c-0.61-2.55-2-5.04-3.69-7.17
				c-1.06-1.34-2.29-2.72-3.59-4.08h-6.6C208.08,74.18,206.6,80.3,198.57,85.09z"/>
			<path class="st17" d="M219.19,68.09h-3c1.04,0.88,2.05,1.8,3,2.73V68.09z"/>
			<path class="st17" d="M195.49,68.09h-4.22v8.09c0.7-0.46,1.31-0.94,1.84-1.43C195.09,72.91,195.7,70.58,195.49,68.09z"/>
			<path class="st17" d="M185.94,78.81V68.09h-27.92v14.27C169.41,82.85,179.22,81.34,185.94,78.81z"/>
			<path class="st19" d="M96.89,65.52c0,0,10.64,8.37,26.3,15.79V74.9C96.89,65.52,96.89,65.52,96.89,65.52z"/>
			<path class="st19" d="M186.23,51.07c0,0,8.61,9.25,9.26,17.01h9.81C202.51,61.92,195.36,55.77,186.23,51.07z"/>
			<path class="st14" d="M189.71,88.94c3.56-1.14,6.5-2.44,8.86-3.85h-7.3v-8.91c-1.45,0.96-3.24,1.85-5.33,2.64v6.28h-27.92v-2.73
				c-2.25-0.1-4.56-0.28-6.93-0.54v3.28h-19.23c3.61,1.42,7.4,2.74,11.32,3.85h25.4v3.6c1.78-0.03,3.55-0.13,5.33-0.3v-3.3H189.71z"
				/>
			<path class="st19" d="M151.1,81.81c-7.73-0.87-15.99-2.66-24.36-5.64c-1.24-0.44-2.42-0.86-3.56-1.27v6.41
				c2.75,1.3,5.66,2.58,8.69,3.77h19.23V81.81z"/>
			<path class="st19" d="M143.19,88.94c8.08,2.3,16.7,3.75,25.4,3.6v-3.6H143.19z"/>
			<path class="st19" d="M189.71,88.94h-15.79v3.3c1.88-0.18,3.75-0.44,5.62-0.79C183.39,90.72,186.76,89.88,189.71,88.94z"/>
			<path class="st19" d="M198.57,85.09c8.02-4.78,9.5-10.91,6.73-17h-9.81c0.21,2.49-0.4,4.83-2.38,6.66
				c-0.53,0.49-1.15,0.97-1.84,1.43v8.91H198.57z"/>
			<path class="st19" d="M185.94,85.09v-6.28c-6.72,2.53-16.53,4.05-27.92,3.54v2.73H185.94z"/>
			<path class="st14" d="M219.19,84.56v0.52h-0.16c-0.46,1.35-1.28,2.65-2.51,3.85h7.51c5.22-5.34,1.34-12.11-4.84-18.12v8.52
				C219.61,81.08,219.66,82.86,219.19,84.56z"/>
			<path class="st19" d="M198.47,56.04c0,0,7.47,5.81,13.43,12.04h4.28C208.2,61.28,198.47,56.04,198.47,56.04z"/>
			<path class="st14" d="M207.06,93.68c-1.8,0.48-3.55,0.88-5.22,1.21v2.55c2.51-0.23,5.09-0.63,7.65-1.27v-3.23
				C208.73,93.2,207.92,93.45,207.06,93.68z"/>
			<path class="st19" d="M179.41,95.63c0,0,10.41,2.9,22.42,1.81v-2.55C188.46,97.52,179.41,95.63,179.41,95.63z"/>
			<path class="st19" d="M224.03,88.94h-7.51c-1.58,1.54-3.87,2.9-7.02,4v3.23c4.41-1.1,8.8-2.9,12.74-5.71
				C222.92,89.96,223.52,89.46,224.03,88.94z"/>
			<path class="st19" d="M219.19,79.34v-8.52c-0.95-0.93-1.96-1.84-3-2.73h-4.28c1.3,1.36,2.53,2.74,3.59,4.08
				C217.19,74.3,218.58,76.79,219.19,79.34z"/>
			<path class="st19" d="M219.19,84.56c-0.05,0.18-0.1,0.35-0.16,0.52h0.16V84.56z"/>
			<path class="st19" d="M232.34,76.95c-9.62-13.13-24.86-18.53-24.86-18.53s10.43,6.84,18.28,15.07c5.15,5.39,6.84,10.7,6.16,15.45
				h2.93C235.8,85.29,235.44,81.17,232.34,76.95z"/>
			<path class="st19" d="M225.14,102.15c0,0,7.73-5.55,9.72-13.22h-2.93c-0.36,2.49-1.37,4.83-2.89,6.95
				C224.65,102.01,225.14,102.15,225.14,102.15z"/>
		</g>
		<polygon class="st14" points="197.58,59.59 187.88,51.07 190.65,39.37 201.87,35.14 211.92,43.04 209.7,55.51 		"/>
		<g>
			<path class="st17" d="M189.04,37.99l-2.78,14.2c-0.02,0.08,0.01,0.16,0.08,0.21l11.52,9.14c0.06,0.05,0.14,0.06,0.21,0.03
				l12.65-4.45c0.07-0.03,0.13-0.09,0.14-0.16l2.77-14.17c0.02-0.08-0.01-0.16-0.08-0.21l-11-9.05c-0.06-0.05-0.14-0.06-0.21-0.04
				l-13.18,4.33C189.12,37.85,189.06,37.91,189.04,37.99z M192.7,39.36l4.31-1.42l7,6.76l-3.64,1.28c-0.07,0.03-0.16,0.01-0.22-0.04
				L192.7,39.36z M202.03,36.4l7.67,6.31l-3.54,1.24l-6.96-6.72l2.62-0.86C201.9,36.34,201.98,36.35,202.03,36.4z M199.11,58.49
				l1.96-10.05l3.64-1.28l-0.51,2.59c-0.02,0.12,0.05,0.23,0.17,0.26l1.58,0.31c0.12,0.02,0.23-0.05,0.26-0.17l0.74-3.76l3.64-1.28
				l-1.94,9.92c-0.01,0.08-0.07,0.14-0.14,0.16L199.11,58.49z M191.01,41.28l7.56,6.67l-1.84,9.41l-7.57-6
				c-0.06-0.05-0.09-0.13-0.08-0.21L191.01,41.28z"/>
		</g>
	</g>
	<g>
		<path d="M101.13,180.52v2.56h3.11v1.05h-3.11v2.62h3.47v1.11h-4.84v-8.45h4.84v1.1H101.13z"/>
		<path d="M109.83,187.86l-1.62-2.33l-1.41,2.33h-1.52l2.18-3.42l-2.2-3.17h1.54l1.58,2.27l1.4-2.27h1.51l-2.18,3.33l2.26,3.27
			H109.83z"/>
		<path d="M117.37,181.86c0.56,0.45,0.91,1.06,1.04,1.84h-1.45c-0.08-0.41-0.27-0.74-0.58-0.98c-0.31-0.24-0.69-0.35-1.16-0.35
			c-0.53,0-0.97,0.19-1.32,0.56c-0.35,0.37-0.53,0.92-0.53,1.63c0,0.72,0.18,1.27,0.53,1.64c0.35,0.38,0.79,0.56,1.32,0.56
			c0.46,0,0.85-0.12,1.16-0.36c0.31-0.24,0.5-0.57,0.58-0.98h1.45c-0.14,0.77-0.48,1.39-1.04,1.84c-0.56,0.45-1.26,0.68-2.12,0.68
			c-0.64,0-1.2-0.14-1.69-0.41c-0.49-0.27-0.88-0.66-1.16-1.17c-0.28-0.51-0.42-1.11-0.42-1.81c0-0.69,0.14-1.28,0.42-1.8
			c0.28-0.51,0.66-0.9,1.16-1.17c0.49-0.27,1.06-0.41,1.69-0.41C116.11,181.19,116.82,181.41,117.37,181.86z"/>
		<path d="M125.81,184.84h-5.07c0.02,0.68,0.21,1.18,0.56,1.51c0.35,0.33,0.79,0.49,1.3,0.49c0.45,0,0.84-0.12,1.16-0.35
			c0.32-0.23,0.51-0.54,0.58-0.92h1.46c-0.09,0.46-0.27,0.87-0.55,1.23c-0.28,0.36-0.64,0.64-1.09,0.84
			c-0.45,0.2-0.95,0.31-1.5,0.31c-0.64,0-1.2-0.14-1.69-0.41c-0.49-0.27-0.88-0.66-1.16-1.17s-0.42-1.11-0.42-1.81
			c0-0.69,0.14-1.28,0.42-1.8s0.66-0.9,1.16-1.17c0.49-0.27,1.06-0.41,1.69-0.41c0.65,0,1.21,0.13,1.69,0.4
			c0.48,0.27,0.85,0.63,1.11,1.1c0.26,0.47,0.39,0.99,0.39,1.56C125.86,184.47,125.84,184.67,125.81,184.84z M124.26,183.13
			c-0.16-0.29-0.39-0.51-0.67-0.65c-0.28-0.14-0.59-0.21-0.93-0.21c-0.54,0-0.98,0.16-1.34,0.49c-0.36,0.33-0.55,0.81-0.59,1.45
			h3.75C124.5,183.78,124.43,183.42,124.26,183.13z"/>
		<path d="M128.54,179.01v8.86h-1.36v-8.86H128.54z"/>
		<path d="M131.56,179.01v8.86h-1.36v-8.86H131.56z"/>
		<path d="M139.29,184.84h-5.07c0.02,0.68,0.21,1.18,0.56,1.51c0.35,0.33,0.79,0.49,1.3,0.49c0.45,0,0.84-0.12,1.16-0.35
			c0.32-0.23,0.51-0.54,0.58-0.92h1.46c-0.09,0.46-0.27,0.87-0.55,1.23c-0.28,0.36-0.64,0.64-1.09,0.84s-0.95,0.31-1.5,0.31
			c-0.64,0-1.2-0.14-1.69-0.41c-0.49-0.27-0.88-0.66-1.16-1.17c-0.28-0.51-0.42-1.11-0.42-1.81c0-0.69,0.14-1.28,0.42-1.8
			c0.28-0.51,0.66-0.9,1.16-1.17c0.49-0.27,1.06-0.41,1.69-0.41c0.65,0,1.21,0.13,1.69,0.4c0.48,0.27,0.85,0.63,1.11,1.1
			c0.26,0.47,0.39,0.99,0.39,1.56C139.34,184.47,139.32,184.67,139.29,184.84z M137.74,183.13c-0.16-0.29-0.39-0.51-0.67-0.65
			c-0.28-0.14-0.59-0.21-0.93-0.21c-0.54,0-0.98,0.16-1.34,0.49c-0.36,0.33-0.55,0.81-0.59,1.45h3.75
			C137.98,183.78,137.9,183.42,137.74,183.13z"/>
		<path d="M146.18,181.9c0.46,0.49,0.69,1.2,0.69,2.12v3.84h-1.36v-3.7c0-0.59-0.15-1.05-0.45-1.37c-0.3-0.32-0.72-0.48-1.24-0.48
			c-0.54,0-0.98,0.17-1.3,0.52c-0.33,0.35-0.49,0.86-0.49,1.53v3.51h-1.36v-6.59h1.36v1.45c0.18-0.49,0.47-0.88,0.89-1.15
			c0.41-0.27,0.89-0.41,1.44-0.41C145.11,181.16,145.72,181.41,146.18,181.9z"/>
		<path d="M153.52,181.86c0.56,0.45,0.91,1.06,1.04,1.84h-1.45c-0.08-0.41-0.27-0.74-0.58-0.98c-0.31-0.24-0.69-0.35-1.16-0.35
			c-0.53,0-0.97,0.19-1.32,0.56c-0.35,0.37-0.53,0.92-0.53,1.63c0,0.72,0.18,1.27,0.53,1.64c0.35,0.38,0.79,0.56,1.32,0.56
			c0.46,0,0.85-0.12,1.16-0.36c0.31-0.24,0.5-0.57,0.58-0.98h1.45c-0.14,0.77-0.48,1.39-1.04,1.84s-1.26,0.68-2.12,0.68
			c-0.64,0-1.2-0.14-1.69-0.41c-0.49-0.27-0.88-0.66-1.16-1.17c-0.28-0.51-0.42-1.11-0.42-1.81c0-0.69,0.14-1.28,0.42-1.8
			c0.28-0.51,0.66-0.9,1.16-1.17c0.49-0.27,1.06-0.41,1.69-0.41C152.26,181.19,152.96,181.41,153.52,181.86z"/>
		<path d="M161.96,184.84h-5.07c0.02,0.68,0.21,1.18,0.56,1.51c0.35,0.33,0.79,0.49,1.3,0.49c0.45,0,0.84-0.12,1.16-0.35
			c0.32-0.23,0.51-0.54,0.58-0.92h1.46c-0.09,0.46-0.27,0.87-0.55,1.23c-0.28,0.36-0.64,0.64-1.09,0.84s-0.95,0.31-1.5,0.31
			c-0.64,0-1.2-0.14-1.69-0.41c-0.49-0.27-0.88-0.66-1.16-1.17s-0.42-1.11-0.42-1.81c0-0.69,0.14-1.28,0.42-1.8s0.66-0.9,1.16-1.17
			c0.49-0.27,1.06-0.41,1.69-0.41c0.65,0,1.21,0.13,1.69,0.4c0.48,0.27,0.85,0.63,1.11,1.1c0.26,0.47,0.39,0.99,0.39,1.56
			C162.01,184.47,161.99,184.67,161.96,184.84z M160.41,183.13c-0.16-0.29-0.39-0.51-0.67-0.65c-0.28-0.14-0.59-0.21-0.93-0.21
			c-0.54,0-0.98,0.16-1.34,0.49c-0.36,0.33-0.55,0.81-0.59,1.45h3.75C160.65,183.78,160.57,183.42,160.41,183.13z"/>
		<path d="M166.17,178.78c0.16-0.15,0.37-0.23,0.63-0.23c0.26,0,0.48,0.08,0.64,0.23c0.16,0.15,0.25,0.34,0.25,0.57
			c0,0.23-0.08,0.42-0.25,0.56c-0.16,0.14-0.38,0.22-0.64,0.22c-0.26,0-0.47-0.07-0.63-0.22c-0.16-0.14-0.24-0.33-0.24-0.56
			C165.93,179.12,166.01,178.93,166.17,178.78z M167.49,181.27v6.59h-1.36v-6.59H167.49z"/>
		<path d="M174.67,181.9c0.46,0.49,0.69,1.2,0.69,2.12v3.84H174v-3.7c0-0.59-0.15-1.05-0.45-1.37c-0.3-0.32-0.72-0.48-1.24-0.48
			c-0.54,0-0.98,0.17-1.3,0.52c-0.33,0.35-0.49,0.86-0.49,1.53v3.51h-1.36v-6.59h1.36v1.45c0.18-0.49,0.47-0.88,0.89-1.15
			c0.41-0.27,0.89-0.41,1.44-0.41C173.59,181.16,174.21,181.41,174.67,181.9z"/>
		<path d="M186.49,185.86c-0.35,0.63-0.85,1.13-1.52,1.48s-1.46,0.53-2.39,0.53h-2.82v-8.45h2.82c0.93,0,1.72,0.17,2.39,0.52
			c0.67,0.35,1.17,0.84,1.52,1.47c0.35,0.63,0.52,1.37,0.52,2.23S186.84,185.23,186.49,185.86z M184.81,185.84
			c0.54-0.53,0.81-1.26,0.81-2.21c0-0.95-0.27-1.69-0.81-2.21c-0.54-0.53-1.32-0.79-2.33-0.79h-1.35v6.01h1.35
			C183.49,186.63,184.26,186.37,184.81,185.84z"/>
		<path d="M194.47,184.84h-5.07c0.02,0.68,0.21,1.18,0.56,1.51c0.35,0.33,0.79,0.49,1.3,0.49c0.45,0,0.84-0.12,1.16-0.35
			c0.32-0.23,0.51-0.54,0.58-0.92h1.46c-0.09,0.46-0.27,0.87-0.55,1.23c-0.28,0.36-0.64,0.64-1.09,0.84s-0.95,0.31-1.5,0.31
			c-0.64,0-1.2-0.14-1.69-0.41c-0.49-0.27-0.88-0.66-1.16-1.17c-0.28-0.51-0.42-1.11-0.42-1.81c0-0.69,0.14-1.28,0.42-1.8
			c0.28-0.51,0.66-0.9,1.16-1.17c0.49-0.27,1.06-0.41,1.69-0.41c0.65,0,1.21,0.13,1.69,0.4c0.48,0.27,0.85,0.63,1.11,1.1
			c0.26,0.47,0.39,0.99,0.39,1.56C194.51,184.47,194.5,184.67,194.47,184.84z M192.92,183.13c-0.16-0.29-0.39-0.51-0.67-0.65
			c-0.28-0.14-0.59-0.21-0.93-0.21c-0.54,0-0.98,0.16-1.34,0.49c-0.36,0.33-0.55,0.81-0.59,1.45h3.75
			C193.15,183.78,193.08,183.42,192.92,183.13z"/>
		<path d="M197.19,179.01v8.86h-1.36v-8.86H197.19z"/>
		<path d="M198.89,178.78c0.16-0.15,0.37-0.23,0.63-0.23c0.26,0,0.48,0.08,0.64,0.23c0.16,0.15,0.25,0.34,0.25,0.57
			c0,0.23-0.08,0.42-0.25,0.56c-0.16,0.14-0.38,0.22-0.64,0.22c-0.26,0-0.47-0.07-0.63-0.22c-0.16-0.14-0.24-0.33-0.24-0.56
			C198.65,179.12,198.73,178.93,198.89,178.78z M200.21,181.27v6.59h-1.36v-6.59H200.21z"/>
		<path d="M204.57,186.45l1.87-5.18h1.46l-2.51,6.59h-1.65l-2.51-6.59h1.46L204.57,186.45z"/>
		<path d="M214.98,184.84h-5.07c0.02,0.68,0.21,1.18,0.56,1.51c0.35,0.33,0.79,0.49,1.3,0.49c0.45,0,0.84-0.12,1.16-0.35
			c0.32-0.23,0.51-0.54,0.58-0.92h1.46c-0.09,0.46-0.27,0.87-0.55,1.23c-0.28,0.36-0.64,0.64-1.09,0.84
			c-0.45,0.2-0.95,0.31-1.5,0.31c-0.64,0-1.2-0.14-1.69-0.41c-0.49-0.27-0.88-0.66-1.16-1.17s-0.42-1.11-0.42-1.81
			c0-0.69,0.14-1.28,0.42-1.8s0.66-0.9,1.16-1.17c0.49-0.27,1.06-0.41,1.69-0.41c0.65,0,1.21,0.13,1.69,0.4
			c0.48,0.27,0.85,0.63,1.11,1.1c0.26,0.47,0.39,0.99,0.39,1.56C215.03,184.47,215.01,184.67,214.98,184.84z M213.43,183.13
			c-0.16-0.29-0.39-0.51-0.67-0.65c-0.28-0.14-0.59-0.21-0.93-0.21c-0.54,0-0.98,0.16-1.34,0.49c-0.36,0.33-0.55,0.81-0.59,1.45
			h3.75C213.67,183.78,213.59,183.42,213.43,183.13z"/>
		<path d="M218.67,181.54c0.41-0.25,0.89-0.38,1.44-0.38v1.48h-0.41c-0.6,0-1.08,0.15-1.44,0.44c-0.36,0.29-0.54,0.77-0.54,1.44
			v3.34h-1.36v-6.59h1.36v1.29C217.93,182.13,218.25,181.79,218.67,181.54z"/>
		<path d="M221.9,181.27l1.97,4.85l1.83-4.85h1.52l-3.99,9.73h-1.52l1.42-3.29l-2.78-6.44H221.9z"/>
	</g>
</g>
</svg>
