<?xml version="1.0" encoding="utf-8"?>
<!-- Generator: Adobe Illustrator 27.8.1, SVG Export Plug-In . SVG Version: 6.00 Build 0)  -->
<svg version="1.1" xmlns="http://www.w3.org/2000/svg" xmlns:xlink="http://www.w3.org/1999/xlink" x="0px" y="0px"
	 viewBox="0 0 350 230" style="enable-background:new 0 0 350 230;" xml:space="preserve">
<style type="text/css">
	.st0{fill:#003799;}
	.st1{display:none;fill:#003799;}
	.st2{font-family:'Microsoft-Himalaya';}
	.st3{font-size:46.0195px;}
	.st4{fill:#630000;}
	.st5{fill-rule:evenodd;clip-rule:evenodd;fill:#037FE1;}
	.st6{fill-rule:evenodd;clip-rule:evenodd;}
	.st7{fill-rule:evenodd;clip-rule:evenodd;fill:#562900;}
	.st8{fill-rule:evenodd;clip-rule:evenodd;fill:#00184C;}
	.st9{fill-rule:evenodd;clip-rule:evenodd;fill:#2C2C5B;}
	.st10{fill-rule:evenodd;clip-rule:evenodd;fill:#007C89;}
	.st11{fill:#C97C00;}
	.st12{fill:#7A6B00;}
	.st13{fill-rule:evenodd;clip-rule:evenodd;fill:#022B18;}
	.st14{fill-rule:evenodd;clip-rule:evenodd;fill:#03113F;}
	.st15{fill:#273F02;}
	.st16{fill:url(#SVGID_1_);}
	.st17{fill:#B62126;}
	.st18{fill:#231F20;}
	.st19{fill:#FFFFFF;}
	.st20{fill:#17629D;}
	.st21{fill:#540159;}
	.st22{fill:#66082A;}
	.st23{display:none;}
	.st24{fill:#005C68;}
	.st25{fill:#563900;}
</style>
<g id="Logo1">
	<g>
		<path d="M111.02,36.13c-0.79,1.27-1.57,2.54-2.59,4.19c44.45-2.86,88.53-2.94,133.02,0c-0.99-1.62-1.79-2.94-2.6-4.26
			c0.1-0.1,0.19-0.2,0.29-0.3c2.18,2.08,4.78,3.86,6.45,6.29c6.68,9.73,12.59,19.94,17.34,30.77c0.29,0.67,0.58,1.34,0.82,2.03
			c0.77,2.23-0.12,3.79-2.44,4.25c-16.27,3.25-31.26,9.43-44.61,19.44c0.75-2.09,6.27-7.39,12.03-11.05
			c4.66-2.96,9.56-5.56,14.75-8.55c-45.79-1.53-91.3-1.51-136.89,0.26c10.13,4.71,19.37,10.51,26.95,19.21
			c-4.51-2.77-8.61-5.51-12.92-7.88c-9.99-5.5-20.66-9.19-31.85-11.4c-2.69-0.53-3.53-2.12-2.4-4.86
			c3.87-9.33,8.85-18.08,14.23-26.6c1.38-2.18,2.62-4.5,4.29-6.44c1.71-1.99,3.88-3.58,5.85-5.35
			C110.85,35.97,110.94,36.05,111.02,36.13z M141.57,73.51c0.01,0.12,0.02,0.23,0.03,0.35c-0.5-0.1-1-0.24-1.5-0.3
			c-3.88-0.42-7.78-0.71-11.65-1.25c-5.65-0.78-11.24-1.84-16.42-4.4c-2.59-1.28-4.28-3.15-4.7-6.17
			c-1.11-7.88,4.1-15.38,12.18-17.32c1.07-0.26,2.15-0.47,3.22-0.7c-1.25-0.18-2.44-0.16-3.62-0.02c-3.52,0.43-7.01,1.1-9.75,3.53
			c-6.35,5.64-9.9,12.83-11.27,21.13c-0.5,3.03,1.3,4.96,4.38,5.03c2.78,0.06,5.57,0.1,8.35,0.1
			C121.07,73.51,131.32,73.51,141.57,73.51z M286.92,115.77c-0.38,8.2-5.14,13.56-13.16,14.26c-8.84,0.76-17.69,1.39-26.54,1.86
			c-1.34,0.07-2.89-0.83-4.08-1.66c-2.53-1.75-4.95-3.41-8.3-3.2c-1.03,0.06-2.34-0.92-3.17-1.76c-1.91-1.94-1.39-4.01,1.21-4.85
			c4.34-1.41,8.72-2.69,13.1-3.95c8.9-2.56,17.77-5.19,26.72-7.55c4.84-1.27,9.11,0.77,12.93,3.52
			C286.44,113.02,286.51,114.63,286.92,115.77z M259.72,120.4c0.12,4.39,3.11,7.63,7.27,8.25c4.55,0.69,9.02-1.77,10.27-5.64
			c0.91-2.84-0.01-6.09-2.05-7.18c1.1,4.66-0.66,8.36-4.67,9.85C266.25,127.27,262.49,125.52,259.72,120.4z M240.9,121.96
			c-0.21,3.29,2.31,6.44,6.01,7.51c4.28,1.24,9.03-0.65,10.92-4.35c1.51-2.95,0.89-6.37-1.5-8.35c0.62,5.3-0.89,8.53-4.65,9.96
			C247.53,128.3,244.11,126.79,240.9,121.96z M73.68,108.41c0.29,0.07,0.86,0.21,1.42,0.37c12.97,3.72,25.93,7.44,38.9,11.17
			c0.06,0.02,0.13,0.02,0.19,0.05c1.56,0.62,3.54,0.81,3.43,3.18c-0.07,1.64-2.13,3.96-4.01,3.84c-3.66-0.24-6.32,1.58-8.97,3.58
			c-1.58,1.19-3.24,1.41-5.2,1.25c-8.38-0.69-16.79-1.03-25.15-1.85c-9.05-0.88-12.9-7-12.62-15.46c0.03-0.9,0.71-2.1,1.47-2.61
			C66.2,109.84,69.68,108.81,73.68,108.41z M73.12,115.21c-2.1,2.29-2.97,4.45-2.34,7.03c0.88,3.62,3.41,5.67,6.89,6.33
			c3.76,0.71,7.1-0.33,9.47-3.56c1.25-1.7,1.55-3.03,1.1-4.35c-2.14,4.58-6.04,6.54-10.21,5.15
			C73.84,124.42,71.98,120.71,73.12,115.21z M107.44,121.51c-2.71,4.9-6.06,6.62-10.23,5.42c-4.14-1.18-5.78-4.27-5.38-10.19
			c-2.47,2.38-2.96,5.69-1.29,8.63c1.94,3.42,6.25,5.2,10.27,4.25C104.74,128.7,107.38,125.59,107.44,121.51z"/>
		<path class="st0" d="M272.49,85.33c7.14-1.14,14.45-1.38,21.02-4.76c-0.02-0.22-0.04-0.44-0.05-0.67c-3.08,0-6.17,0.01-9.25,0
			c-3.65-0.01-7.29-0.01-10.94-0.04c-2.22-0.02-2.84-0.63-2.87-2.83c-0.03-2.25-0.05-4.51,0.02-6.76c0.07-2.5,1.83-4.2,4.27-3.89
			c4.06,0.52,8.17,1,12.13,2c4.95,1.26,8.11,4.61,9.09,9.73c0.53,2.77-0.18,4.08-2.84,4.84C286.34,84.87,279.42,85.3,272.49,85.33z
			 M58.57,79.98c6.09-0.05,12.19-0.1,18.28-0.11c1.58,0,2.61-0.6,2.65-2.25c0.06-2.58,0.12-5.17-0.02-7.75
			c-0.11-2.07-1.87-3.8-3.84-3.52c-4.64,0.65-9.36,1.17-13.82,2.51c-4.49,1.34-7.19,4.84-7.8,9.62c-0.35,2.7,0.22,3.82,2.84,4.41
			c4.12,0.93,8.32,1.48,12.5,2.13c1.37,0.22,2.76,0.32,4.15,0.39c1.37,0.06,2.74,0.01,4.1,0.01c-7.22-1.21-14.57-1.49-21.15-5.35
			C57.17,80.06,57.87,79.99,58.57,79.98z M217.77,134.21c-1.52,0.7-3.13,1.77-4.69,1.74c-10.4-0.2-20.79-0.67-31.18-1
			c-1.55-0.05-2.07-0.75-2.06-2.23c0.04-3.05,0.03-6.1-0.08-9.14c-0.06-1.71,0.61-2.34,2.29-2.44c5.03-0.28,10.05-0.63,15.06-1.07
			c4.92-0.43,9.84-1,14.75-1.52c-1.42-0.25-2.81-0.27-4.19-0.24c-8.55,0.16-17.09,0.31-25.64,0.51c-3.46,0.08-4.69,1.31-4.74,4.7
			c-0.05,3.31-0.07,6.63-0.01,9.94c0.04,2.5,1.5,4.01,3.97,4.01c10.54,0.02,21.07,0.02,31.61-0.07c3.05-0.03,5.75-2.01,6.83-4.83
			C218.93,133.24,218.43,133.91,217.77,134.21z M137.33,137.42c10.41,0.07,20.82,0.07,31.23,0.05c2.53-0.01,4.1-1.58,4.14-4.1
			c0.06-3.38,0.05-6.76-0.02-10.14c-0.06-2.9-1.39-4.29-4.29-4.36c-10.1-0.26-20.21-0.45-30.31-0.67c0.95,0.34,1.91,0.58,2.89,0.67
			c8.98,0.78,17.95,1.56,26.94,2.27c1.66,0.13,2.38,0.8,2.32,2.47c-0.1,2.98-0.18,5.97-0.12,8.95c0.04,1.85-0.77,2.37-2.51,2.42
			c-9.28,0.25-18.56,0.39-27.82,0.98c-4.33,0.28-7.71-0.66-10.25-4.27C131.15,134.97,133.44,137.39,137.33,137.42z"/>
	</g>
	<text transform="matrix(1 0 0 1 34.5483 175.4296)" class="st1 st2 st3">Auto &amp; Transportation</text>
</g>
<g id="Logo2">
</g>
<g id="Logo3">
</g>
<g id="Logo4">
</g>
<g id="Logo5">
</g>
<g id="Logo6">
</g>
<g id="Logo7">
</g>
<g id="Logo8">
</g>
<g id="Logo9">
</g>
<g id="Logo10">
</g>
<g id="Logo11">
</g>
<g id="Logo12">
</g>
<g id="Logo13">
</g>
<g id="Logo14">
</g>
<g id="Layer_15">
</g>
</svg>
