<?xml version="1.0" encoding="utf-8"?>
<!-- Generator: Adobe Illustrator 27.8.1, SVG Export Plug-In . SVG Version: 6.00 Build 0)  -->
<svg version="1.1" xmlns="http://www.w3.org/2000/svg" xmlns:xlink="http://www.w3.org/1999/xlink" x="0px" y="0px"
	 viewBox="0 0 350 230" style="enable-background:new 0 0 350 230;" xml:space="preserve">
<style type="text/css">
	.st0{fill:#003799;}
	.st1{fill:#630000;}
	.st2{fill-rule:evenodd;clip-rule:evenodd;fill:#037FE1;}
	.st3{fill-rule:evenodd;clip-rule:evenodd;}
	.st4{fill-rule:evenodd;clip-rule:evenodd;fill:#562900;}
	.st5{fill-rule:evenodd;clip-rule:evenodd;fill:#00184C;}
	.st6{fill-rule:evenodd;clip-rule:evenodd;fill:#2C2C5B;}
	.st7{fill-rule:evenodd;clip-rule:evenodd;fill:#007C89;}
	.st8{fill:#C97C00;}
	.st9{fill:#7A6B00;}
	.st10{fill-rule:evenodd;clip-rule:evenodd;fill:#022B18;}
	.st11{fill-rule:evenodd;clip-rule:evenodd;fill:#03113F;}
	.st12{fill:#273F02;}
	.st13{fill:url(#SVGID_1_);}
	.st14{fill:#B62126;}
	.st15{fill:#231F20;}
	.st16{fill:#FFFFFF;}
	.st17{display:none;fill:#B62126;}
	.st18{font-family:'MidnightDayRegular';}
	.st19{font-size:34.3493px;}
	.st20{fill:#17629D;}
	.st21{fill:#540159;}
	.st22{fill:#66082A;}
	.st23{display:none;}
	.st24{fill:#005C68;}
	.st25{fill:#563900;}
</style>
<g id="Logo1">
</g>
<g id="Logo2">
</g>
<g id="Logo3">
</g>
<g id="Logo4">
</g>
<g id="Logo5">
</g>
<g id="Logo6">
</g>
<g id="Logo7">
</g>
<g id="Logo8">
</g>
<g id="Logo9">
</g>
<g id="Logo10">
	<g>
		<path class="st14" d="M291.4,120.6l-23.42,0.46c1.41-19.43-6.13-28.83-6.13-28.83c-3.94-7.88-20.88-9.45-20.88-9.45
			c-8.27-9.45-25.21-15.76-25.21-15.76c-20.74-3.75-35.76-3.06-43.99-2.06l-0.15-0.05c0,0,9.72-10.77,34.15-9.98
			c0,0-7.62,1.31-3.42,4.73c4.21,3.42,7.36-0.26,17.34-0.26c9.98,0,23.11,5.26,31.26,1.84c0,0-2.89,4.73-7.88,6.31
			c-4.99,1.58-3.41,10.25,3.15,7.35c6.57-2.89,7.35-6.57,15.76-9.72c8.4-3.15,14.71,1.31,17.34,4.46c0,0-11.03-4.46-13.66,2.62
			c-2.63,7.09,3.94,12.08,8.67,11.03c4.73-1.05,11.3-5.25,21.02,0c0,0-4.99,0.79-9.98,3.68c-4.99,2.89-3.68,4.46-9.72,6.3
			c0,0,2.89,4.46,12.61,2.63c0,0-1.05,4.2-9.2,8.14c-8.14,3.94-2.36,7.36,1.84,6.04c4.2-1.31,11.56-2.36,16.81,0.26
			C297.7,110.36,287.98,114.04,291.4,120.6z"/>
		<path class="st15" d="M218.26,123.76h22.95c3-2.96,4.86-7.07,4.86-11.62c0-9.02-7.32-16.34-16.34-16.34
			c-9.02,0-16.34,7.32-16.34,16.34C213.39,116.68,215.26,120.79,218.26,123.76z"/>
		<path class="st15" d="M113.06,123.76h22.95c3-2.96,4.86-7.07,4.86-11.62c0-9.02-7.31-16.34-16.34-16.34
			c-9.02,0-16.34,7.32-16.34,16.34C108.19,116.68,110.06,120.79,113.06,123.76z"/>
		<path class="st15" d="M308.21,121.39c0,0.65-0.27,1.25-0.69,1.68c-0.43,0.43-1.02,0.69-1.68,0.69h-60.96
			c2.47-3.23,3.96-7.25,3.96-11.63c0-10.55-8.55-19.1-19.11-19.1c-10.55,0-19.11,8.55-19.11,19.1c0,4.38,1.49,8.4,3.97,11.63h-74.91
			c2.47-3.23,3.96-7.25,3.96-11.63c0-10.55-8.55-19.1-19.11-19.1c-10.55,0-19.11,8.55-19.11,19.1c0,4.38,1.49,8.4,3.97,11.63H44.15
			c-1.3,0-2.36-1.06-2.36-2.37c0-0.65,0.27-1.24,0.69-1.67c0.43-0.42,1.02-0.69,1.67-0.69h34.68c-0.01-2.57,0.31-5.87,1.5-9.46
			h18.39c0.87,0,1.58-0.41,1.58-1.28s-0.49-1.48-1.58-1.38H81.59c0.99-2.63,2.33-4.83,4.09-6.99h16.98c0,0,1.78-3.55,4.34-5.52H91.3
			c8.08-6.42,21.23-11.91,42.49-13.98c0,0,11.82-9.07,30.73-14.19c0,0,2.69-0.71,5.56-1.17c-2.52,1.53-5.98,3.36-6.68,5.47
			c-1.84,5.52,12.68-0.1,15.57-1.15c2.89-1.05,8.41-1.57,10.51-0.26c0,0-8.93,1.84-8.67,7.09c0.26,5.26,4.47,6.31,12.34,2.1
			c7.89-4.2,11.04-6.56,24.96-1.57c0,0-12.08,0-14.97,5.78c-2.89,5.78,5.51,8.14,15.76,4.2c10.24-3.94,21.27-0.79,24.16,0.79
			c0,0-4.46,0.26-3.41,2.89c1.05,2.63,3.94,3.41,9.46,3.41c5.51,0,8.4,0.79,10.77,4.2c0,0-7.89-1.31-6.05,4.73
			c1.84,6.05,9.46,6.31,9.46,6.31s0.21,5.46-4.25,9.98h46.8c0.66,0,1.25,0.27,1.68,0.69C307.94,120.15,308.21,120.74,308.21,121.39z
			"/>
		<path class="st16" d="M202.87,107.52h-60.88c0.24,0.61,0.44,1.28,0.55,2.01h60.33c0.65,0,1.18-0.45,1.18-1.01
			C204.06,107.97,203.53,107.52,202.87,107.52z"/>
		<path class="st16" d="M124.62,100.25c4.36,0,8.16,2.31,10.29,5.77c-2.1-2.59-5.31-4.25-8.91-4.25c-6.34,0-11.48,5.14-11.48,11.48
			c0,5.21,3.47,9.6,8.22,11c-5.78-0.91-10.2-5.89-10.2-11.92C112.54,105.66,117.95,100.25,124.62,100.25z"/>
		<path class="st16" d="M229.64,100.25c4.36,0,8.16,2.31,10.29,5.77c-2.1-2.59-5.31-4.25-8.91-4.25c-6.34,0-11.48,5.14-11.48,11.48
			c0,5.21,3.47,9.6,8.22,11c-5.78-0.91-10.21-5.89-10.21-11.92C217.55,105.66,222.96,100.25,229.64,100.25z"/>
	</g>
	<text transform="matrix(1 0 0 1 32.4692 162.0303)" class="st17 st18 st19">Auto &amp; Transportation</text>
</g>
<g id="Logo11">
</g>
<g id="Logo12">
</g>
<g id="Logo13">
</g>
<g id="Logo14">
</g>
<g id="Layer_15">
</g>
</svg>
