<?xml version="1.0" encoding="utf-8"?>
<!-- Generator: Adobe Illustrator 27.8.1, SVG Export Plug-In . SVG Version: 6.00 Build 0)  -->
<svg version="1.1" xmlns="http://www.w3.org/2000/svg" xmlns:xlink="http://www.w3.org/1999/xlink" x="0px" y="0px"
	 viewBox="0 0 350 230" style="enable-background:new 0 0 350 230;" xml:space="preserve">
<style type="text/css">
	.st0{fill:#003799;}
	.st1{fill:#630000;}
	.st2{fill-rule:evenodd;clip-rule:evenodd;fill:#037FE1;}
	.st3{fill-rule:evenodd;clip-rule:evenodd;}
	.st4{fill-rule:evenodd;clip-rule:evenodd;fill:#562900;}
	.st5{fill-rule:evenodd;clip-rule:evenodd;fill:#00184C;}
	.st6{display:none;fill:#00184C;}
	.st7{font-family:'NofexRegular';}
	.st8{font-size:20.8419px;}
	.st9{fill-rule:evenodd;clip-rule:evenodd;fill:#2C2C5B;}
	.st10{fill-rule:evenodd;clip-rule:evenodd;fill:#007C89;}
	.st11{fill:#C97C00;}
	.st12{fill:#7A6B00;}
	.st13{fill-rule:evenodd;clip-rule:evenodd;fill:#022B18;}
	.st14{fill-rule:evenodd;clip-rule:evenodd;fill:#03113F;}
	.st15{fill:#273F02;}
	.st16{fill:url(#SVGID_1_);}
	.st17{fill:#B62126;}
	.st18{fill:#231F20;}
	.st19{fill:#FFFFFF;}
	.st20{fill:#17629D;}
	.st21{fill:#540159;}
	.st22{fill:#66082A;}
	.st23{display:none;}
	.st24{fill:#005C68;}
	.st25{fill:#563900;}
</style>
<g id="Logo1">
</g>
<g id="Logo2">
</g>
<g id="Logo3">
</g>
<g id="Logo4">
	<path class="st4" d="M155.19,102.05c11.59,9.79,36.01,17.11,73.26,21.94c-47.06-0.64-70.58-0.97-70.58-0.97
		C161.26,116.13,160.21,107.88,155.19,102.05 M264.61,108.83c5.52,2.56,8.42,5.86,8.69,9.91c0,0-3.22-0.15-9.66-0.44
		c0.23-15.35-18.15-23.53-29.4-13.09c-5.14,4.77-6.93,12.14-4.57,18.73c-1.98-6.19,0.23-12.94,5.48-16.77
		c5.25-3.82,12.36-3.85,17.64-0.08c5.28,3.78,7.55,10.52,5.62,16.72c5.18-0.17,11.97-0.32,20.38-0.46c-0.28-1.31-0.62-2.5-1.03-3.58
		c2.08-4.29,2.73-7.59,1.94-9.9C269.65,109.18,264.61,108.83,264.61,108.83 M173.15,92.26c-30.85-2.88-54.28-4.16-63.07-2.38
		c45.55,5.47,84.97,8.61,111.04,7.95c16.96-0.72,32.56,0.67,46.82,4.15c0.24-1.84,2.48-1.68,6.7,0.49c0,0,0.32,1.33,0.95,3.99
		c0,0,0,0-11.13,1.19c14.47,0.64,6.35,0.31,14.47,0.64c-1.13-4.52-1.69-6.79-1.69-6.79c-14.12-5.88-30.94-8.91-50.47-9.09
		C215.62,93.96,197.74,93.91,173.15,92.26 M108.62,128.62c-3.43,8.15,0,0-3.43,8.15c5.18,4.02,11.25,6.94,17.81,8.39l0,7.14
		c-4.87,0.08-9.71-0.53-14.38-1.78c-3.57-0.96-7.04-2.29-10.35-3.99L108.62,128.62z M101.37,114.48c-9.13,6.26,0,0-9.13,6.26
		c2.55,5.33,6.14,10.07,10.51,13.98l-6.26,10.85c-7.31-4.12-13.72-10.05-18.48-17.61L101.37,114.48z M100.02,101.63
		c-11.97,1.67,0,0-11.97,1.67c0.13,5.19,1.19,10.17,3.03,14.77l-14.12,8.15c-4.48-7.76-6.74-16.19-6.97-24.55L100.02,101.63z
		 M102.45,90.11c-11.01-4.96,0,0-11.01-4.96c-0.73,1.77-1.35,3.58-1.85,5.43c-0.82,3.06-1.3,6.09-1.48,9.06H69.96
		c0.05-4.4,0.65-8.77,1.78-12.99c1.08-4.02,2.63-7.91,4.64-11.58L102.45,90.11z M108.73,79.09c-6.69-8.89,0,0-6.69-8.89
		c-3.69,3.3-6.86,7.31-9.24,12l-15.4-8.89c4.24-7.09,10.23-13.26,17.78-17.81L108.73,79.09z M148.65,55.23
		c6.95,4.09,13.03,9.85,17.6,17.1l-1.04,0.6c-5.17-6.2-12.05-10.34-19.57-12.48L148.65,55.23z M123,47.99
		c4.27,0.08,8.51,0.68,12.62,1.78c3.9,1.05,7.68,2.54,11.25,4.46l-6.03,10.24c-0.32-0.08,2.1-4.71,1.78-4.77
		c-6.39-1.35-13.13-1.32-19.61,0.05L123,47.99L123,47.99z M96.93,54.48c7.63-4.21,15.87-6.31,24.04-6.48l-0.06,21.07
		c-0.96-8.57,0,0-0.96-8.57c-5.46,1.53-10.66,4.03-15.22,7.49L96.93,54.48z"/>
	<path class="st5" d="M243.97,116.82c-2.99,0-2.99,4.55,0,4.55C246.96,121.37,246.96,116.82,243.97,116.82 M187.46,103.89
		c-0.47,5.36,13,11.44,40.42,18.26c-36.58-5.1-60.22-12.2-70.94-21.31C166.67,102.52,176.84,103.54,187.46,103.89 M122.05,117.11
		c-0.85-7.6,3.22-14.89,10.14-18.14c6.92-3.25,15.13-1.74,20.44,3.76c5.31,5.5,6.52,13.77,3.02,20.56
		c2.63-6.35,0.82-13.67-4.47-18.06c-5.28-4.39-12.81-4.84-18.58-1.1c-5.76,3.74-8.42,10.8-6.56,17.41c0,0-7-1.29-21-3.86
		c-0.83-4.57-1.25-9.1-1.27-13.58c0,0,0.81-0.57,2.42-1.73c-0.02,4.36,0.4,8.38,1.25,12.07
		C117.18,116.23,122.05,117.11,122.05,117.11 M109.57,90.29c-2.16,3.84-2.42,9.44-2.44,14.35l12.31,1.8l-10.74-3.68
		C108.19,99.5,108.45,94.83,109.57,90.29 M118.44,84.82c1.03,2.07,1.55,3.11,1.55,3.11c-2.44,0.05-5.12,0.2-8.04,0.46
		c0.32-1.45,0.36-2.51,0.14-3.19c-3.26-0.87-4.43-2.37-3.54-4.5c0.71-1.7,4.61,0.92,5.66,1.48c1.43,0.65,3.29,0.24,5.3-0.24
		C120.26,83.43,119.91,84.39,118.44,84.82 M132.3,87.46l26.6-9.31c19.32-2.55,33.5-2.13,42.54,1.24l20.96,11.69l-5.94,0.41
		l-18.78-10.31c-4.03-1.49-10.53-2.11-19.51-1.85c-1.42,2.09-2.5,5.83-3.23,11.23c-0.55-0.04-1.1-0.07-1.65-0.11
		c-13.23-1.23-26.58-2.38-39.88-2.94C133.04,87.49,132.67,87.47,132.3,87.46 M141.2,114.67c-3.05,0-3.05,4.64,0,4.64
		C144.26,119.31,144.26,114.67,141.2,114.67 M136.6,115.7c-3.84,1.25-5.8,1.13-5.86-0.34c0.17-2.68,1.58-5.12,3.81-6.61
		c1.38-0.26,2.39,1.47,3.05,5.21C137.69,114.7,137.28,115.4,136.6,115.7 M140.02,112.36c-3-2.71-3.88-4.46-2.63-5.24
		c2.4-1.19,5.22-1.19,7.63,0c0.92,1.06-0.08,2.81-2.99,5.24C141.44,112.8,140.62,112.8,140.02,112.36z M144.63,113.66
		c0.84-3.95,1.92-5.59,3.22-4.9c2.23,1.49,3.64,3.93,3.81,6.61c-0.46,1.32-2.47,1.34-6.03,0.04
		C144.95,115.1,144.54,114.39,144.63,113.66z M145.81,118.29c3.84-1.25,5.8-1.13,5.86,0.34c-0.17,2.68-1.58,5.12-3.81,6.61
		c-1.38,0.26-2.39-1.47-3.05-5.21C144.72,119.29,145.12,118.58,145.81,118.29z M142.38,121.63c3,2.71,3.88,4.46,2.64,5.25
		c-2.4,1.19-5.22,1.19-7.63,0c-0.92-1.06,0.08-2.81,2.99-5.25C140.97,121.18,141.79,121.18,142.38,121.63z M137.78,120.33
		c-0.84,3.95-1.92,5.59-3.22,4.9c-2.23-1.49-3.64-3.93-3.81-6.61c0.46-1.32,2.47-1.34,6.04-0.04
		C137.46,118.89,137.87,119.6,137.78,120.33z M141.2,113.66c1.84,0,3.34,1.49,3.34,3.34c0,1.84-1.49,3.34-3.34,3.34
		c-1.84,0-3.34-1.49-3.34-3.34C137.87,115.15,139.36,113.66,141.2,113.66z M141.2,114.71c1.26,0,2.28,1.02,2.28,2.28
		c0,1.26-1.02,2.28-2.28,2.28c-1.26,0-2.28-1.02-2.28-2.28C138.92,115.73,139.94,114.71,141.2,114.71z M141.2,103.13
		c7.66,0,13.86,6.21,13.86,13.86s-6.21,13.86-13.86,13.86c-7.66,0-13.86-6.21-13.86-13.86S133.55,103.13,141.2,103.13z
		 M239.36,117.8c-3.84,1.25-5.8,1.13-5.86-0.34c0.17-2.68,1.58-5.12,3.81-6.61c1.38-0.27,2.39,1.47,3.05,5.21
		C240.46,116.8,240.05,117.51,239.36,117.8 M242.79,114.46c-3-2.71-3.88-4.46-2.64-5.25c2.4-1.19,5.22-1.19,7.63,0
		c0.92,1.06-0.08,2.81-2.99,5.25C244.2,114.91,243.38,114.91,242.79,114.46z M247.39,115.76c0.84-3.95,1.92-5.59,3.22-4.9
		c2.23,1.49,3.64,3.93,3.81,6.61c-0.46,1.32-2.47,1.34-6.03,0.04C247.71,117.2,247.3,116.5,247.39,115.76z M248.57,120.39
		c3.84-1.25,5.8-1.13,5.86,0.34c-0.17,2.68-1.58,5.12-3.81,6.61c-1.38,0.26-2.39-1.47-3.05-5.21
		C247.48,121.39,247.89,120.69,248.57,120.39z M245.15,123.73c3,2.71,3.88,4.46,2.64,5.24c-2.4,1.19-5.22,1.19-7.63,0
		c-0.92-1.06,0.08-2.81,2.99-5.24C243.73,123.29,244.55,123.29,245.15,123.73z M240.54,122.44c-0.84,3.95-1.92,5.59-3.22,4.9
		c-2.23-1.49-3.64-3.93-3.81-6.61c0.46-1.32,2.47-1.34,6.03-0.04C240.22,120.99,240.63,121.7,240.54,122.44z M243.97,115.76
		c1.84,0,3.34,1.49,3.34,3.34c0,1.84-1.49,3.34-3.34,3.34c-1.84,0-3.34-1.49-3.34-3.34C240.63,117.25,242.12,115.76,243.97,115.76z
		 M243.97,116.81c1.26,0,2.28,1.02,2.28,2.28c0,1.26-1.02,2.28-2.28,2.28c-1.26,0-2.28-1.02-2.28-2.28
		C241.69,117.84,242.71,116.81,243.97,116.81z M243.97,105.23c7.66,0,13.86,6.21,13.86,13.86s-6.21,13.86-13.86,13.86
		c-7.66,0-13.86-6.21-13.86-13.86S236.31,105.23,243.97,105.23z"/>
	<text transform="matrix(1 0 0 1 9.9658 176.7578)" class="st6 st7 st8">Auto &amp; Transportation</text>
</g>
<g id="Logo5">
</g>
<g id="Logo6">
</g>
<g id="Logo7">
</g>
<g id="Logo8">
</g>
<g id="Logo9">
</g>
<g id="Logo10">
</g>
<g id="Logo11">
</g>
<g id="Logo12">
</g>
<g id="Logo13">
</g>
<g id="Logo14">
</g>
<g id="Layer_15">
</g>
</svg>
