<?xml version="1.0" encoding="UTF-8"?>
<svg xmlns="http://www.w3.org/2000/svg" viewBox="0 0 642.65 342.65">
  <defs>
    <style>
      .cls-1 {
        isolation: isolate;
      }

      .cls-2 {
        fill: #ff29ad;
      }

      .cls-2, .cls-3, .cls-4 {
        stroke-width: 0px;
      }

      .cls-3 {
        fill: #00cf16;
      }

      .cls-4 {
        fill: #ffce00;
      }

      .cls-5 {
        mix-blend-mode: darken;
      }

      .cls-6 {
        mix-blend-mode: multiply;
      }
    </style>
  </defs>
  <g class="cls-1">
    <g id="Layer_1" data-name="Layer 1">
      <g>
        <path class="cls-4" d="m478.17,332.25s.46-7.61.92-15.21c.04-1.15.09-2.3.13-3.36.06-1.07.12-2.08.17-2.94.12-1.73.21-2.88.21-2.88l145.57-15.95s.4,2.62.99,6.56c.28,1.98.61,4.28.96,6.76.33,2.47.68,5.11,1.03,7.74.88,7.57,1.75,15.14,1.75,15.14l-151.73,4.14Z"/>
        <path class="cls-4" d="m479.03,287.24s-1.22-7.52-2.43-15.04c-.46-2.34-.87-4.64-1.16-6.42-.28-1.78-.46-2.97-.46-2.97l128.37-44.16s.95,2.43,2.38,6.09c1.38,3.68,3.23,8.59,5.07,13.5,2.51,7.2,5.02,14.39,5.02,14.39l-136.79,34.61Z"/>
        <path class="cls-4" d="m469.59,242.19s-2.84-7.07-5.69-14.13c-2.02-4.5-3.88-9.2-3.88-9.2l106.4-65.75s5.76,8.43,11.35,17.05c4.04,6.46,8.07,12.92,8.07,12.92l-116.25,59.11Z"/>
        <path class="cls-4" d="m449.75,199.27s-4.33-6.27-8.65-12.54c-3.1-4.13-6.12-8.49-6.12-8.49l81.79-79.97s7.29,6.78,14.5,13.8c5.36,5.43,10.71,10.84,10.71,10.84l-92.22,76.35Z"/>
        <path class="cls-4" d="m420.12,160.87s-5.59-5.18-11.19-10.35c-4.1-3.48-8.18-7.19-8.18-7.19l56.5-86.96s8.42,4.91,16.81,10.05c6.41,4.12,12.82,8.24,12.82,8.24l-66.77,86.21Z"/>
        <path class="cls-4" d="m381.84,129.3s-6.59-3.82-13.18-7.64c-4.95-2.58-9.94-5.38-9.94-5.38l32.25-87.25s9.09,2.86,18.23,5.94c7.16,2.62,14.32,5.23,14.32,5.23l-41.68,89.09Z"/>
        <path class="cls-4" d="m336.5,106.57s-7.26-2.27-14.53-4.53c-5.62-1.47-11.34-3.13-11.34-3.13l10.82-81.62s9.26.76,18.63,1.7c7.57.96,15.13,1.93,15.13,1.93l-18.71,85.66Z"/>
        <path class="cls-4" d="m285.36,94.26s-1.9-.19-4.74-.48c-.36-.03-.73-.07-1.11-.11l-.29-.03h-.07s0,0,0,0c2.48-.01.68,0,1.23,0h-.2s-.61-.05-.61-.05c-.82-.05-1.68-.11-2.57-.17-1.79-.11-3.68-.24-5.59-.37-.95-.06-1.9-.13-2.84-.19-.77-.03-1.53-.06-2.27-.09-1.43-.06-2.77-.11-3.92-.16-2.31-.11-3.85-.18-3.85-.18l-6.2-71.38s2.25-.32,5.63-.79c1.69-.24,3.67-.5,5.79-.79,1.04-.13,2.12-.28,3.21-.42.93-.1,1.88-.21,2.83-.31,1.89-.2,3.79-.41,5.56-.61.89-.1,1.75-.19,2.56-.28l.6-.07h.15s.04-.02.04-.02h1.28s.07-.01.07-.01l.29-.02c.38-.03.76-.06,1.11-.08,2.85-.22,4.75-.37,4.75-.37l-.85,76.99Z"/>
        <path class="cls-4" d="m232.79,93.35l-15.09,2.08c-6.22,1.11-12.44,2.23-12.44,2.23l-18.51-58.08s8.37-3.09,16.74-6.18c7.25-2.34,14.5-4.69,14.5-4.69l14.8,64.64Z"/>
        <path class="cls-4" d="m179.69,104.49s-7.13,2.68-14.26,5.37c-6.01,2.57-12.03,5.13-12.03,5.13l-25.45-43.36s7.28-4.75,14.56-9.5c6.55-3.89,13.11-7.77,13.11-7.77l24.07,50.14Z"/>
        <path class="cls-4" d="m129.33,127.72s-6.36,4.18-12.73,8.36c-5.48,3.97-10.95,7.94-10.95,7.94l-27.03-28.93s5.89-6.08,11.77-12.16c5.54-5.23,11.07-10.46,11.07-10.46l27.87,35.25Z"/>
        <path class="cls-4" d="m84.43,162.25s-5.3,5.47-10.6,10.95c-4.61,5.25-9.22,10.49-9.22,10.49l-23.87-16.29s4.29-7.05,8.58-14.1c4.26-6.31,8.53-12.63,8.53-12.63l26.59,21.58Z"/>
        <path class="cls-4" d="m47.54,206.75s-3.97,6.5-7.95,13.01c-3.43,6.34-6.86,12.66-6.86,12.66l-16.94-6.7s2.54-7.62,5.09-15.24c2.77-7.09,5.55-14.19,5.55-14.19l21.11,10.47Z"/>
        <path class="cls-4" d="m20.93,259.38s-2.43,7.22-4.87,14.44c-1.99,7.15-3.99,14.3-3.99,14.3l-7.44-1.16s.76-7.77,1.51-15.55c1.14-7.53,2.27-15.07,2.27-15.07l12.52,3.03Z"/>
      </g>
      <g class="cls-6">
        <path class="cls-3" d="m422.64,332.52s.52-7.61,1.04-15.22c.05-1.05.11-2.11.16-3.1.08-.99.15-1.91.21-2.7.15-1.6.26-2.67.26-2.67l144.68-17.88s.45,2.71,1.13,6.78c.32,2.04.7,4.43,1.1,6.98.38,2.56.78,5.28,1.18,8,.99,7.56,1.97,15.12,1.97,15.12l-151.72,4.67Z"/>
        <path class="cls-3" d="m423.88,289.32s-1.37-7.5-2.74-15.01c-.23-1.08-.45-2.16-.65-3.18-.19-1.03-.37-1.98-.52-2.81-.27-1.67-.45-2.78-.45-2.78l124.54-48.76s1.09,2.46,2.73,6.16c.8,1.86,1.74,4.03,2.74,6.35.98,2.34,2.03,4.83,3.08,7.32,2.81,7.09,5.63,14.18,5.63,14.18l-134.35,38.52Z"/>
        <path class="cls-3" d="m413.85,245.92s-3.18-6.92-6.37-13.85c-2.13-4.16-4.08-8.59-4.08-8.59l98.88-71.01s6.52,8.17,12.85,16.6c4.48,6.17,8.96,12.34,8.96,12.34l-110.25,64.51Z"/>
        <path class="cls-3" d="m392.43,205.07s-4.79-5.93-9.57-11.86c-3.28-3.72-6.49-7.73-6.49-7.73l70.68-83.9s8.09,6.12,16.11,12.54c5.86,4.88,11.72,9.76,11.72,9.76l-82.45,81.2Z"/>
        <path class="cls-3" d="m360.46,169.79s-6.09-4.57-12.19-9.15c-4.32-2.93-8.66-6.15-8.66-6.15l42.6-87.9s9.11,3.82,18.23,7.93c6.88,3.3,13.77,6.58,13.77,6.58l-53.74,88.68Z"/>
        <path class="cls-3" d="m319.52,142.91s-7.03-2.92-14.06-5.84c-5.18-1.85-10.45-3.95-10.45-3.95l17.07-83.93s9.5,1.39,19.09,3.03c7.49,1.48,14.97,2.97,14.97,2.97l-26.63,87.71Z"/>
        <path class="cls-3" d="m271.97,126.77s-7.56-1.04-15.11-2.08c-.95-.13-1.89-.26-2.82-.39l-.7-.09-.17-.03h-.04c1.03,0-2.33-.02,2.31.01h-.04s-.08-.01-.08-.01l-.35-.02c-.46-.03-.91-.07-1.35-.1-1.79-.13-3.45-.26-4.88-.37-2.85-.22-4.75-.36-4.75-.36l-1.69-73.61s1.89-.24,4.73-.58c1.42-.18,3.08-.38,4.85-.59.44-.05.89-.11,1.35-.17l.35-.04h.08s.02,0,.02,0h2.34s.04,0,.04,0h.18s.7-.05.7-.05c.94-.05,1.89-.11,2.85-.17,7.61-.46,15.22-.93,15.22-.93l-3.04,79.59Z"/>
        <path class="cls-3" d="m219.73,122.91s-7.59.78-15.17,1.56c-6,.94-12.16,1.77-12.16,1.77l-17.91-58.95s8.5-3.13,17.16-6.14c7.29-2.25,14.58-4.5,14.58-4.5l13.51,66.26Z"/>
        <path class="cls-3" d="m167.15,132.4s-7.15,2.64-14.31,5.28c-5.92,2.5-11.84,5-11.84,5l-25.71-42.39s7.3-4.96,14.6-9.92c6.5-3.99,13-7.98,13-7.98l24.26,50.02Z"/>
        <path class="cls-3" d="m117.28,155.44s-6.29,4.33-12.57,8.64c-5.34,4.08-10.67,8.15-10.67,8.15l-26.77-26.34s5.64-6.41,11.29-12.82c5.32-5.47,10.64-10.93,10.64-10.93l28.08,33.31Z"/>
        <path class="cls-3" d="m73.57,191.16s-5.04,5.73-10.07,11.45c-4.32,5.49-8.64,10.99-8.64,10.99l-22.04-12.88s3.75-7.36,7.49-14.73c3.81-6.61,7.63-13.22,7.63-13.22l25.63,18.39Z"/>
        <path class="cls-3" d="m39.29,237.81s-3.46,6.79-6.92,13.58c-2.92,6.66-5.83,13.31-5.83,13.31l-12.99-3.71s1.72-7.8,3.44-15.6c2.06-7.34,4.13-14.68,4.13-14.68l18.18,7.11Z"/>
        <path class="cls-3" d="m17.26,292.94s-1.67,7.44-3.34,14.88c-1.21,7.45-2.41,14.9-2.41,14.9l-1.49-.05s-.28-7.7-.56-15.4c.18-7.63.36-15.25.36-15.25l7.44.92Z"/>
      </g>
      <g class="cls-5">
        <path class="cls-2" d="m367.25,332.86s.59-7.61,1.18-15.23c.07-.94.14-1.88.2-2.75.09-.88.18-1.7.26-2.4.2-1.43.33-2.38.33-2.38l143.48-20.35s.53,2.81,1.33,7.05c.38,2.13.82,4.61,1.29,7.27.43,2.66.9,5.5,1.36,8.33,1.13,7.56,2.25,15.1,2.25,15.1l-151.69,5.35Z"/>
        <path class="cls-2" d="m369.05,291.96s-1.57-7.47-3.14-14.95c-.23-.98-.45-1.97-.66-2.89-.18-.94-.35-1.81-.5-2.56-.26-1.54-.43-2.57-.43-2.57l119.4-54.33s1.28,2.48,3.19,6.2c.94,1.88,2.03,4.07,3.21,6.42,1.15,2.37,2.37,4.89,3.59,7.41,3.2,6.93,6.4,13.87,6.4,13.87l-131.05,43.4Z"/>
        <path class="cls-2" d="m358.39,250.53s-3.61-6.73-7.22-13.46c-2.23-3.76-4.26-7.88-4.26-7.88l88.96-76.67s7.45,7.71,14.72,15.79c5.02,5.75,10.04,11.5,10.04,11.5l-102.24,70.72Z"/>
        <path class="cls-2" d="m335.13,212.22s-5.35-5.45-10.69-10.9c-3.47-3.21-6.89-6.81-6.89-6.81l56.51-86.95s9,5.12,17.96,10.63c6.43,4.12,12.87,8.24,12.87,8.24l-69.76,85.79Z"/>
        <path class="cls-2" d="m300.48,180.98s-6.66-3.73-13.31-7.46c-4.54-2.24-9.17-4.83-9.17-4.83l25.78-86.19s9.75,2.29,19.58,4.92c7.34,2.15,14.68,4.3,14.68,4.3l-37.54,89.26Z"/>
        <path class="cls-2" d="m256.62,160.3s-7.43-1.7-14.86-3.4c-5.4-.93-10.98-2.11-10.98-2.11l.5-76.22s9.58-.54,19.36-.83c7.65,0,15.31,0,15.31,0l-9.32,82.57Z"/>
        <path class="cls-2" d="m206.62,152.78s-7.63.44-15.26.88c-2.92.31-5.85.61-8.05.85-2.23.21-3.72.34-3.72.34l-17.09-60.1s2.2-.77,5.49-1.92c3.33-1.13,7.78-2.63,12.22-4.13,7.33-2.13,14.67-4.26,14.67-4.26l11.73,68.35Z"/>
        <path class="cls-2" d="m154.78,160.13s-7.19,2.57-14.39,5.14c-5.68,2.43-11.6,4.83-11.6,4.83l-26.01-41.23s7.19-5.25,14.63-10.45c6.43-4.11,12.87-8.22,12.87-8.22l24.5,49.93Z"/>
        <path class="cls-2" d="m105.47,182.91s-6.19,4.49-12.37,8.97c-5.15,4.2-10.31,8.41-10.31,8.41l-26.21-23.21s5.31-6.8,10.6-13.59c5.02-5.76,10.05-11.51,10.05-11.51l28.24,30.93Z"/>
        <path class="cls-2" d="m63.24,220.09s-4.68,6.03-9.36,12.06c-3.95,5.8-7.89,11.6-7.89,11.6l-19.24-9.07s3.02-7.69,6.03-15.38c3.22-6.93,6.43-13.86,6.43-13.86l24.03,14.65Z"/>
        <path class="cls-2" d="m32.38,269.37s-2.78,7.11-5.58,14.21c-2.22,7.03-4.44,14.07-4.44,14.07l-7.44-1.16s.65-7.87,1.29-15.74c1.13-7.56,2.26-15.11,2.26-15.11l13.91,3.72Z"/>
      </g>
    </g>
  </g>
</svg>