<?xml version="1.0" encoding="utf-8"?>
<!-- Generator: Adobe Illustrator 27.8.1, SVG Export Plug-In . SVG Version: 6.00 Build 0)  -->
<svg version="1.1" xmlns="http://www.w3.org/2000/svg" xmlns:xlink="http://www.w3.org/1999/xlink" x="0px" y="0px"
	 viewBox="0 0 350 230" style="enable-background:new 0 0 350 230;" xml:space="preserve">
<style type="text/css">
	.st0{fill:#00B1F0;}
	.st1{fill:#231F20;}
	.st2{fill:#EE2724;}
	.st3{fill:#FFFFFF;}
	.st4{fill:#55B948;}
	.st5{fill:#342643;}
	.st6{fill:#4AB9EA;}
	.st7{fill:#1A5DAB;}
	.st8{fill:#2A419A;}
	.st9{fill:url(#SVGID_1_);}
	.st10{fill:url(#SVGID_00000123432270679457864510000008908074645619356327_);}
	.st11{fill:#3252A4;}
	.st12{fill:#AED136;}
	.st13{fill:#2C296A;}
	.st14{fill:#E6E7E7;}
	.st15{fill:#80C342;}
	.st16{fill:#87C540;}
	.st17{fill:#576A30;}
	.st18{fill:#FEBE2A;}
	.st19{fill:#163A63;}
	.st20{fill:#294DA1;}
	.st21{fill:#F26524;}
	.st22{fill:#95C93D;}
	.st23{fill:#007AC1;}
	.st24{fill:#AFD351;}
	.st25{fill:#165591;}
	.st26{fill:#8DD6F7;}
	.st27{fill:#284F9A;}
	.st28{fill:#192D56;}
	.st29{fill:#60B4E5;}
	.st30{fill:#22211D;}
	.st31{fill:#C62630;}
</style>
<g id="Layer_1">
</g>
<g id="Layer_2">
</g>
<g id="Layer_3">
</g>
<g id="Layer_4">
</g>
<g id="Layer_5">
</g>
<g id="Layer_6">
</g>
<g id="Layer_7">
</g>
<g id="Layer_8">
</g>
<g id="Layer_9">
</g>
<g id="Layer_10">
</g>
<g id="Layer_11">
</g>
<g id="Layer_12">
	<g>
		<path class="st24" d="M169.48,29.58l11.51,13.72h-31.43c-2.73,0-5.68,0.21-8.25,1.16c-4.73,1.84-7.2,5.1-7.2,10.36v43.53
			l-15.4,15.4V51.71c0-9.83,5.2-15.82,13.93-19.5c4.15-1.79,9.88-2.63,17.19-2.63H169.48z M154.6,107.64l23.5,20.45l56.98-65.6
			l-36.8,3.63l9.41,8.15l-30.86,35.48l-23.5-20.4l-57.19,58.61l22.55-15.56v10.78c0,4.94,1.37,9.36,4.57,13.19
			c6.41,7.41,17.35,8.94,26.55,8.94h47.99L177,147.23v4.36h-27.7c-4.47,0-9.46-0.79-12.67-4.15c-1.84-2.16-2.52-4.52-2.52-7.36
			v-18.29L154.6,107.64z"/>
		<path class="st18" d="M191.56,122.57l11.77-13.56v54.56l-11.77-9.36V122.57z M239.92,32.21c-4.21-1.79-9.88-2.63-17.24-2.63
			h-43.63l18.08,20.76V43.3h25.86c7.67,0,15.45,2.31,15.45,11.51l-0.11,108.5c9.36-3.26,15.51-9.94,15.51-20.13V51.71
			C253.85,42.04,248.65,35.94,239.92,32.21z M207.17,165.31h11.62V91.24l-11.62,13.35V165.31z M222.89,165.31
			c3.9,0.06,7.79-0.27,11.62-1V73.16l-11.62,13.35L222.89,165.31z"/>
	</g>
</g>
<g id="Layer_13">
</g>
<g id="Layer_14">
</g>
<g id="Layer_15">
</g>
</svg>
