<?xml version="1.0" encoding="utf-8"?>
<!-- Generator: Adobe Illustrator 27.8.1, SVG Export Plug-In . SVG Version: 6.00 Build 0)  -->
<svg version="1.1" xmlns="http://www.w3.org/2000/svg" xmlns:xlink="http://www.w3.org/1999/xlink" x="0px" y="0px"
	 viewBox="0 0 350 230" style="enable-background:new 0 0 350 230;" xml:space="preserve">
<style type="text/css">
	.st0{fill:#00B1F0;}
	.st1{fill:#231F20;}
	.st2{fill:#EE2724;}
	.st3{fill:#FFFFFF;}
	.st4{fill:#55B948;}
	.st5{fill:#342643;}
	.st6{fill:#4AB9EA;}
	.st7{fill:#1A5DAB;}
	.st8{fill:#2A419A;}
	.st9{fill:url(#SVGID_1_);}
	.st10{fill:url(#SVGID_00000028305331822280738200000017067978450689512117_);}
	.st11{fill:#3252A4;}
	.st12{fill:#AED136;}
	.st13{fill:#2C296A;}
	.st14{fill:#E6E7E7;}
	.st15{fill:#80C342;}
	.st16{fill:#87C540;}
	.st17{fill:#576A30;}
	.st18{fill:#FEBE2A;}
	.st19{fill:#163A63;}
	.st20{fill:#294DA1;}
	.st21{fill:#F26524;}
	.st22{fill:#95C93D;}
	.st23{fill:#007AC1;}
	.st24{fill:#AFD351;}
	.st25{fill:#165591;}
	.st26{fill:#8DD6F7;}
	.st27{fill:#284F9A;}
	.st28{fill:#192D56;}
	.st29{fill:#60B4E5;}
	.st30{fill:#22211D;}
	.st31{fill:#C62630;}
</style>
<g id="Layer_1">
</g>
<g id="Layer_2">
	<g>
		<path class="st3" d="M183.46,24.37c0,1.14-0.93,2.07-2.07,2.07c-1.14,0-2.07-0.93-2.07-2.07c0-1.14,0.93-2.07,2.07-2.07
			C182.53,22.3,183.46,23.22,183.46,24.37z"/>
		<path class="st4" d="M202.89,37.03v55.43c-8.28,3.86-16.82,7.14-25.56,9.8V37.03H202.89z M144.04,48.5v61.64
			c7.96-1.35,16.64-3.19,25.56-5.57V48.5H144.04z M111.22,57.97v55.67c6.61-0.32,15.37-0.96,25.56-2.39V57.97H111.22z"/>
		<path class="st5" d="M273.53,133.95V20.94c0-0.88-0.71-1.59-1.59-1.59c-0.03,0-0.05,0-0.08,0H90.92
			c-0.88-0.04-1.63,0.63-1.67,1.51c0,0.03,0,0.05,0,0.08v113.01l-27.32,38.63h238.92L273.53,133.95z M98.48,121.77
			c0,0,85.13,6.45,144.47-45.87l0.48,17.44l16.64-36l-36.16,7.88l13.46,5.81C182.26,116.67,98.48,113.8,98.48,113.8V29.62
			c0-0.88,0.71-1.59,1.59-1.59H262.7c0.88,0,1.59,0.71,1.59,1.59v95.65H98.48V121.77z M213.16,169.15h-63.55
			c-0.79-0.01-1.42-0.66-1.41-1.46c0-0.13,0.02-0.25,0.06-0.38l1.99-6.77c0.15-0.62,0.71-1.05,1.35-1.04h59.57
			c0.64-0.02,1.2,0.41,1.35,1.04l1.99,6.77c0.22,0.76-0.22,1.56-0.98,1.78C213.42,169.13,213.29,169.15,213.16,169.15z
			 M273.37,156.73H89.4c-0.92-0.04-1.64-0.82-1.6-1.74c0.01-0.29,0.1-0.56,0.25-0.81l9.56-14.65c0.32-0.49,0.85-0.78,1.43-0.8
			h164.69c0.58,0.01,1.12,0.31,1.43,0.8l9.56,14.65c0.48,0.79,0.24,1.82-0.55,2.3C273.93,156.63,273.66,156.72,273.37,156.73
			L273.37,156.73z"/>
	</g>
</g>
<g id="Layer_3">
</g>
<g id="Layer_4">
</g>
<g id="Layer_5">
</g>
<g id="Layer_6">
</g>
<g id="Layer_7">
</g>
<g id="Layer_8">
</g>
<g id="Layer_9">
</g>
<g id="Layer_10">
</g>
<g id="Layer_11">
</g>
<g id="Layer_12">
</g>
<g id="Layer_13">
</g>
<g id="Layer_14">
</g>
<g id="Layer_15">
</g>
</svg>
