<?xml version="1.0" encoding="utf-8"?>
<!-- Generator: Adobe Illustrator 27.8.1, SVG Export Plug-In . SVG Version: 6.00 Build 0)  -->
<svg version="1.1" xmlns="http://www.w3.org/2000/svg" xmlns:xlink="http://www.w3.org/1999/xlink" x="0px" y="0px"
	 viewBox="0 0 350 230" style="enable-background:new 0 0 350 230;" xml:space="preserve">
<style type="text/css">
	.st0{fill:#00B1F0;}
	.st1{fill:#231F20;}
	.st2{fill:#EE2724;}
	.st3{fill:#FFFFFF;}
	.st4{fill:#55B948;}
	.st5{fill:#342643;}
	.st6{fill:#4AB9EA;}
	.st7{fill:#1A5DAB;}
	.st8{fill:#2A419A;}
	.st9{fill:url(#SVGID_1_);}
	.st10{fill:url(#SVGID_00000112605488110757488360000007046743828357796262_);}
	.st11{fill:#3252A4;}
	.st12{fill:#AED136;}
	.st13{fill:#2C296A;}
	.st14{fill:#E6E7E7;}
	.st15{fill:#80C342;}
	.st16{fill:#87C540;}
	.st17{fill:#576A30;}
	.st18{fill:#FEBE2A;}
	.st19{fill:#163A63;}
	.st20{fill:#294DA1;}
	.st21{fill:#F26524;}
	.st22{fill:#95C93D;}
	.st23{fill:#007AC1;}
	.st24{fill:#AFD351;}
	.st25{fill:#165591;}
	.st26{fill:#8DD6F7;}
	.st27{fill:#284F9A;}
	.st28{fill:#192D56;}
	.st29{fill:#60B4E5;}
	.st30{fill:#22211D;}
	.st31{fill:#C62630;}
</style>
<g id="Layer_1">
</g>
<g id="Layer_2">
</g>
<g id="Layer_3">
</g>
<g id="Layer_4">
</g>
<g id="Layer_5">
</g>
<g id="Layer_6">
</g>
<g id="Layer_7">
	<g>
		<path class="st15" d="M235.9,39.26l-3.38-4.17l5.49-4.33l3.33,4.17L235.9,39.26z M232.84,68.1c16.72,30.46,5.59,68.7-24.87,85.42
			c-23.41,12.85-52.38,9.52-72.27-8.3l-8.66,6.92l-3.33-4.23l8.13-6.44c-1.21-1.32-2.38-2.64-3.49-4.07l-5.55,4.44l-3.33-4.23
			l5.7-4.54c-0.85-1.27-1.64-2.59-2.43-3.91l-13.79,10.93l-3.33-4.17l14.68-11.67c-3.7-8.13-5.61-16.95-5.6-25.88
			c0.04-34.77,28.27-62.93,63.04-62.89c13.75,0.02,27.12,4.53,38.06,12.86l12.84-10.19l3.33,4.23l-11.94,9.51
			c1.11,1,2.22,2.11,3.27,3.22l3.86-3.06l3.33,4.17l-3.64,2.96c1.13,1.37,2.18,2.8,3.17,4.28l6.23-4.97l3.33,4.23L232.84,68.1z
			 M228.82,98.36c0-28.27-22.92-51.18-51.18-51.18c-28.27,0-51.18,22.92-51.18,51.18c0,28.27,22.92,51.18,51.18,51.18h0
			C205.91,149.55,228.82,126.63,228.82,98.36z M239.6,55.84l3.33,4.23l4.65-3.75l-3.33-4.17L239.6,55.84z M231.1,48.92l3.33,4.23
			l14.68-11.67l-3.38-4.17L231.1,48.92z M251.54,32.71L249,34.72l3.33,4.17l2.54-2.01L251.54,32.71z M105.06,143.21l-3.33-4.23
			l-5.49,4.38l3.33,4.17L105.06,143.21z M115.68,154.3l3.38,4.17l4.65-3.7l-3.33-4.23L115.68,154.3z M115.58,140.73l-14.68,11.62
			l3.38,4.23l14.63-11.67L115.58,140.73z M95.13,157l3.33,4.17l2.54-2.01l-3.33-4.17L95.13,157z"/>
		<path class="st16" d="M177.64,166.93c-15.19,0.04-29.95-5-41.94-14.31l1.11-1.48c11.67,9.09,26.04,14,40.83,13.94
			c36.82,0,66.77-29.9,66.77-66.71c0.02-9.63-2.07-19.15-6.13-27.89l1.69-0.79c4.14,8.99,6.27,18.78,6.23,28.68
			C246.17,136.22,215.49,166.9,177.64,166.93z M114.73,120.66c-12.28-34.77,5.95-72.91,40.72-85.19c7.13-2.52,14.63-3.81,22.19-3.81
			c12.21-0.01,24.19,3.31,34.65,9.61l0.9-1.53c-10.71-6.51-23.01-9.94-35.55-9.93c-37.77,0-68.56,30.74-68.56,68.56
			c-0.02,7.81,1.32,15.57,3.96,22.92L114.73,120.66z M177.64,145.48c-26.02,0-47.12-21.09-47.12-47.12s21.09-47.12,47.12-47.12
			s47.12,21.09,47.12,47.12l0,0C224.73,124.37,203.65,145.45,177.64,145.48z M177.64,52.46c-25.35,0-45.9,20.55-45.9,45.9
			s20.55,45.9,45.9,45.9s45.9-20.55,45.9-45.9l0,0C223.51,73.03,202.98,52.49,177.64,52.46z"/>
		<path class="st17" d="M175.32,117.38v-15.37c-4.81-1.32-8.29-3.43-10.56-6.18c-2.25-2.87-3.43-6.44-3.33-10.09
			c0-4.01,1.27-7.39,3.8-10.09c2.54-2.69,5.86-4.33,10.09-4.75v-3.59h5.28v3.59c3.91,0.48,6.97,1.8,9.3,4.01
			c2.32,2.22,3.75,5.07,4.38,8.77l-9.24,1.21c-0.56-2.89-2.04-4.84-4.44-5.86v14.31c5.86,1.58,9.88,3.64,11.99,6.18
			c2.11,2.54,3.22,5.76,3.22,9.72c0.1,4.1-1.33,8.09-4.01,11.2c-2.69,3.01-6.39,4.86-11.2,5.55v6.87h-5.28v-6.66
			c-4.23-0.53-7.66-2.11-10.3-4.75s-4.33-6.34-5.07-11.2l9.56-1c0.34,1.84,1.1,3.57,2.22,5.07
			C172.65,115.62,173.89,116.67,175.32,117.38z M175.32,78.93c-1.39,0.43-2.59,1.3-3.43,2.48c-0.86,1.1-1.33,2.46-1.32,3.86
			c0.01,1.3,0.42,2.57,1.16,3.64c0.93,1.21,2.17,2.14,3.59,2.69V78.93z M180.6,117.91c1.74-0.31,3.32-1.21,4.49-2.54
			c1.15-1.33,1.77-3.04,1.74-4.81c0.02-1.54-0.5-3.03-1.48-4.23c-0.95-1.21-2.54-2.11-4.75-2.75V117.91z"/>
	</g>
</g>
<g id="Layer_8">
</g>
<g id="Layer_9">
</g>
<g id="Layer_10">
</g>
<g id="Layer_11">
</g>
<g id="Layer_12">
</g>
<g id="Layer_13">
</g>
<g id="Layer_14">
</g>
<g id="Layer_15">
</g>
</svg>
