<?xml version="1.0" encoding="utf-8"?>
<!-- Generator: Adobe Illustrator 27.8.1, SVG Export Plug-In . SVG Version: 6.00 Build 0)  -->
<svg version="1.1" xmlns="http://www.w3.org/2000/svg" xmlns:xlink="http://www.w3.org/1999/xlink" x="0px" y="0px"
	 viewBox="0 0 350 230" style="enable-background:new 0 0 350 230;" xml:space="preserve">
<style type="text/css">
	.st0{fill:#00B1F0;}
	.st1{fill:#231F20;}
	.st2{fill:#EE2724;}
	.st3{fill:#FFFFFF;}
	.st4{fill:#55B948;}
	.st5{fill:#342643;}
	.st6{fill:#4AB9EA;}
	.st7{fill:#1A5DAB;}
	.st8{fill:#2A419A;}
	.st9{fill:url(#SVGID_1_);}
	.st10{fill:url(#SVGID_00000031182648574772155150000001403808844111891104_);}
	.st11{fill:#3252A4;}
	.st12{fill:#AED136;}
	.st13{fill:#2C296A;}
	.st14{fill:#E6E7E7;}
	.st15{fill:#80C342;}
	.st16{fill:#87C540;}
	.st17{fill:#576A30;}
	.st18{fill:#FEBE2A;}
	.st19{fill:#163A63;}
	.st20{fill:#294DA1;}
	.st21{fill:#F26524;}
	.st22{fill:#95C93D;}
	.st23{fill:#007AC1;}
	.st24{fill:#AFD351;}
	.st25{fill:#165591;}
	.st26{fill:#8DD6F7;}
	.st27{fill:#284F9A;}
	.st28{fill:#192D56;}
	.st29{fill:#60B4E5;}
	.st30{fill:#22211D;}
	.st31{fill:#C62630;}
</style>
<g id="Layer_1">
</g>
<g id="Layer_2">
</g>
<g id="Layer_3">
	<g>
		<path class="st6" d="M231.12,66.37l29.78,8.25c-15.86,30.23-21.07,52.16-29.78,96.66V66.37z"/>
		<path class="st7" d="M131.14,151.12h-19.35V91.34h19.35V151.12z M156.96,54.69h-19.35v96.43h19.35V54.69z M182.73,77.94h-19.35
			v73.18h19.35V77.94z M208.55,45.76H189.2v105.36h19.35V45.76z M231.12,154.27c6.99-46.5,11.68-72.21,24.45-103.76l-24.45-5.84
			V154.27z"/>
		<path class="st8" d="M231.12,20.56v151.91H89.11V70.67l5.9-6.07v102.15h130.21V26.29h-96.08l6.24-5.73H231.12z"/>
	</g>
</g>
<g id="Layer_4">
</g>
<g id="Layer_5">
</g>
<g id="Layer_6">
</g>
<g id="Layer_7">
</g>
<g id="Layer_8">
</g>
<g id="Layer_9">
</g>
<g id="Layer_10">
</g>
<g id="Layer_11">
</g>
<g id="Layer_12">
</g>
<g id="Layer_13">
</g>
<g id="Layer_14">
</g>
<g id="Layer_15">
</g>
</svg>
