<?xml version="1.0" encoding="utf-8"?>
<!-- Generator: Adobe Illustrator 27.8.1, SVG Export Plug-In . SVG Version: 6.00 Build 0)  -->
<svg version="1.1" xmlns="http://www.w3.org/2000/svg" xmlns:xlink="http://www.w3.org/1999/xlink" x="0px" y="0px"
	 viewBox="0 0 350 230" style="enable-background:new 0 0 350 230;" xml:space="preserve">
<style type="text/css">
	.st0{fill:#00B1F0;}
	.st1{fill:#231F20;}
	.st2{fill:#EE2724;}
	.st3{fill:#FFFFFF;}
	.st4{fill:#55B948;}
	.st5{fill:#342643;}
	.st6{fill:#4AB9EA;}
	.st7{fill:#1A5DAB;}
	.st8{fill:#2A419A;}
	.st9{fill:url(#SVGID_1_);}
	.st10{fill:url(#SVGID_00000047049114680006938550000006075144788510360744_);}
	.st11{fill:#3252A4;}
	.st12{fill:#AED136;}
	.st13{fill:#2C296A;}
	.st14{fill:#E6E7E7;}
	.st15{fill:#80C342;}
	.st16{fill:#87C540;}
	.st17{fill:#576A30;}
	.st18{fill:#FEBE2A;}
	.st19{fill:#163A63;}
	.st20{fill:#294DA1;}
	.st21{fill:#F26524;}
	.st22{fill:#95C93D;}
	.st23{fill:#007AC1;}
	.st24{fill:#AFD351;}
	.st25{fill:#165591;}
	.st26{fill:#8DD6F7;}
	.st27{fill:#284F9A;}
	.st28{fill:#192D56;}
	.st29{fill:#60B4E5;}
	.st30{fill:#22211D;}
	.st31{fill:#C62630;}
</style>
<g id="Layer_1">
</g>
<g id="Layer_2">
</g>
<g id="Layer_3">
</g>
<g id="Layer_4">
</g>
<g id="Layer_5">
</g>
<g id="Layer_6">
	<g>
		<path class="st12" d="M65.01,82.36v13.42l-5.61-2.46h1.39c-0.19-1.76-2.02-3.09-3.78-3.09c-2.12,0-3.84,1.72-3.84,3.84
			c-0.01,0.39,0.05,0.77,0.19,1.13l-3.72,3.15V82.36H65.01z M68.41,63.71v33.59l6.55,2.84c0.7-0.65,1.63-1.01,2.58-1.01
			c0.39-0.03,0.78,0.04,1.13,0.19l-0.57,1.2l5.67-5.92V63.71H68.41z M87.25,50.66v40.33l6.43-6.81l-1.58,1.07
			c-0.11-0.28-0.17-0.58-0.19-0.88c0.03-2.11,1.74-3.81,3.84-3.84c2.03,0,3.71,1.57,3.84,3.59l3.02,1.26V50.66L87.25,50.66z
			 M106.03,68.87v17.9l8.82,3.65l-1.13-0.95c0.64-0.42,1.38-0.66,2.14-0.69c0.52,0,1.04,0.11,1.51,0.32l4.03-3.53v-16.7
			L106.03,68.87z"/>
		<path class="st13" d="M88.32,21.43c-36.85-0.03-66.76,29.81-66.79,66.67c0,0.02,0,0.04,0,0.06c-0.08,9.85,1.94,19.6,5.92,28.61
			l19.47-16.26l-6.05,2.9c-1.58-4.93-2.38-10.07-2.39-15.25c-0.07-27.49,22.16-49.83,49.66-49.9c20.56-0.05,39.03,12.54,46.5,31.69
			c0.13,0.25-9.01,11.03-9.01,11.03l23.82-19.6C138.81,37.11,114.82,21.43,88.32,21.43z M156.37,48.71l2.71,3.65l-6.43,6.05
			l8.82-6.24l-2.21-2.21l9.7-0.5l-3.84,8.63l-2.08-3.02l-26.28,21.74c0.89,3.72,1.33,7.52,1.32,11.34
			c0.02,27.49-22.25,49.8-49.74,49.82c-19.04,0.01-36.43-10.84-44.78-27.95c-0.27-0.53-0.5-1.08-0.69-1.64l-24.51,20.04L30.6,123
			c15.31,27.1,45.81,42.97,57.72,74.1c18.59-42.28,66.79-56.46,66.79-108.95c-0.04-7.09-1.1-14.13-3.15-20.92l10.65-9.33l2.9,3.4
			l6.11-13.55L156.37,48.71z M56.18,97.86l0.76-1.26l-7.31,6.11v11.34c3.96,5.9,9.22,10.81,15.38,14.37V99.5l-5.48-2.46
			C58.69,97.98,57.36,98.31,56.18,97.86z M81.45,102.96c0.13,2.12-1.49,3.94-3.61,4.06c-1.95,0.12-3.68-1.25-4.01-3.18l1.64,0.25
			l-7.06-3.09v29.24c4.84,2.31,10.04,3.73,15.38,4.22V99.44l-2.46,2.65C81.4,102.37,81.44,102.67,81.45,102.96L81.45,102.96z
			 M97.84,87.59c-0.6,0.44-1.33,0.66-2.08,0.63c-0.39,0-0.77-0.07-1.13-0.19l-7.37,7.81v38.82h1.07c4.86-0.01,9.68-0.78,14.3-2.27
			V88.91l-5.73-2.39L97.84,87.59z M119.7,92.25v0.38c0.09,2.12-1.56,3.91-3.69,4c-2.12,0.09-3.91-1.56-4-3.69l-5.99-2.52v40.77
			c5.77-2.36,11-5.88,15.38-10.33V93.39l10.52-11.72l-13.67,11.22L119.7,92.25z"/>
		<path class="st14" d="M121.4,205.61c0,1.64-14.81,2.96-33.08,2.96s-33.14-1.32-33.14-2.96c0-1.64,14.87-2.96,33.14-2.96
			S121.4,203.97,121.4,205.61z"/>
	</g>
</g>
<g id="Layer_7">
</g>
<g id="Layer_8">
</g>
<g id="Layer_9">
</g>
<g id="Layer_10">
</g>
<g id="Layer_11">
</g>
<g id="Layer_12">
</g>
<g id="Layer_13">
</g>
<g id="Layer_14">
</g>
<g id="Layer_15">
</g>
</svg>
