<?xml version="1.0" encoding="utf-8"?>
<!-- Generator: Adobe Illustrator 27.8.1, SVG Export Plug-In . SVG Version: 6.00 Build 0)  -->
<svg version="1.1" xmlns="http://www.w3.org/2000/svg" xmlns:xlink="http://www.w3.org/1999/xlink" x="0px" y="0px"
	 viewBox="0 0 350 230" style="enable-background:new 0 0 350 230;" xml:space="preserve">
<style type="text/css">
	.st0{fill:#00B1F0;}
	.st1{fill:#231F20;}
	.st2{fill:#EE2724;}
	.st3{fill:#FFFFFF;}
	.st4{fill:#55B948;}
	.st5{fill:#342643;}
	.st6{fill:#4AB9EA;}
	.st7{fill:#1A5DAB;}
	.st8{fill:#2A419A;}
	.st9{fill:url(#SVGID_1_);}
	.st10{fill:url(#SVGID_00000144303655881763385360000013694345537015525015_);}
	.st11{fill:#3252A4;}
	.st12{fill:#AED136;}
	.st13{fill:#2C296A;}
	.st14{fill:#E6E7E7;}
	.st15{fill:#80C342;}
	.st16{fill:#87C540;}
	.st17{fill:#576A30;}
	.st18{fill:#FEBE2A;}
	.st19{fill:#163A63;}
	.st20{fill:#294DA1;}
	.st21{fill:#F26524;}
	.st22{fill:#95C93D;}
	.st23{fill:#007AC1;}
	.st24{fill:#AFD351;}
	.st25{fill:#165591;}
	.st26{fill:#8DD6F7;}
	.st27{fill:#284F9A;}
	.st28{fill:#192D56;}
	.st29{fill:#60B4E5;}
	.st30{fill:#22211D;}
	.st31{fill:#C62630;}
</style>
<g id="Layer_1">
</g>
<g id="Layer_2">
</g>
<g id="Layer_3">
</g>
<g id="Layer_4">
</g>
<g id="Layer_5">
</g>
<g id="Layer_6">
</g>
<g id="Layer_7">
</g>
<g id="Layer_8">
</g>
<g id="Layer_9">
</g>
<g id="Layer_10">
</g>
<g id="Layer_11">
	<g>
		<path class="st24" d="M236.69,57.57c8.42,12.19,12.63,26.01,12.63,41.62c-1.59,25.17-12.54,46.77-30.27,60.1v-60l-13.23,10.45
			v57.33c-2.43,1.1-4.93,2.04-7.48,2.82v-54.26l-13.23,10.45v46.67c-2.48,0.3-4.95,0.5-7.53,0.59V132l-13.23,10.45v30.13
			c-25.37-3.86-48.51-21.11-58.37-45.19l50.54-39.84l-6.84,8.47l9.22,11.69l11.5,14.72l49.4-38.9l8.13,9.76l4.81-19.52L236.69,57.57
			z"/>
		<path class="st25" d="M175,24.82c-40.94-0.11-74.21,32.99-74.32,73.93c0,0.15,0,0.3,0,0.45c0,1.44,0.05,2.82,0.1,4.21l46.33-36.47
			l5.6,7.18l4.81-3.77l7.93,10.16l8.57,10.85l7.88,9.96l-5.8-11.45l29.48-23.34l-8.13-9.76l20.02-1.24l16.95-1.04
			c-2.12-2.78-4.42-5.41-6.89-7.88C212.95,32.09,195.45,24.82,175,24.82z M142.2,41.52l5.1,6.54l-6.49,5.05l-5.1-6.49L142.2,41.52z
			 M133.43,68.18l-6.74-8.62l8.67-6.79l6.74,8.67L133.43,68.18z M152.9,70.01l-10.26-13.13l13.13-10.26l10.26,13.13L152.9,70.01z"/>
	</g>
</g>
<g id="Layer_12">
</g>
<g id="Layer_13">
</g>
<g id="Layer_14">
</g>
<g id="Layer_15">
</g>
</svg>
