<?xml version="1.0" encoding="utf-8"?>
<!-- Generator: Adobe Illustrator 27.8.1, SVG Export Plug-In . SVG Version: 6.00 Build 0)  -->
<svg version="1.1" xmlns="http://www.w3.org/2000/svg" xmlns:xlink="http://www.w3.org/1999/xlink" x="0px" y="0px"
	 viewBox="0 0 350 230" style="enable-background:new 0 0 350 230;" xml:space="preserve">
<style type="text/css">
	.st0{fill:#00B1F0;}
	.st1{fill:#231F20;}
	.st2{fill:#EE2724;}
	.st3{fill:#FFFFFF;}
	.st4{fill:#55B948;}
	.st5{fill:#342643;}
	.st6{fill:#4AB9EA;}
	.st7{fill:#1A5DAB;}
	.st8{fill:#2A419A;}
	.st9{fill:url(#SVGID_1_);}
	.st10{fill:url(#SVGID_00000073718415430265494190000011050624391960968884_);}
	.st11{fill:#3252A4;}
	.st12{fill:#AED136;}
	.st13{fill:#2C296A;}
	.st14{fill:#E6E7E7;}
	.st15{fill:#80C342;}
	.st16{fill:#87C540;}
	.st17{fill:#576A30;}
	.st18{fill:#FEBE2A;}
	.st19{fill:#163A63;}
	.st20{fill:#294DA1;}
	.st21{fill:#F26524;}
	.st22{fill:#95C93D;}
	.st23{fill:#007AC1;}
	.st24{fill:#AFD351;}
	.st25{fill:#165591;}
	.st26{fill:#8DD6F7;}
	.st27{fill:#284F9A;}
	.st28{fill:#192D56;}
	.st29{fill:#60B4E5;}
	.st30{fill:#22211D;}
	.st31{fill:#C62630;}
</style>
<g id="Layer_1">
</g>
<g id="Layer_2">
</g>
<g id="Layer_3">
</g>
<g id="Layer_4">
</g>
<g id="Layer_5">
</g>
<g id="Layer_6">
</g>
<g id="Layer_7">
</g>
<g id="Layer_8">
</g>
<g id="Layer_9">
</g>
<g id="Layer_10">
	<g>
		<path class="st22" d="M147.96,113.47c2.52,6.73,4.29,13.71,5.3,20.82c0.4,3.06,0.51,6.16,0.32,9.25c-0.09,2.01-0.33,4.02-0.7,6
			c-1.27,6.97-4.5,13.44-9.3,18.65c4.81,1.41,11.9,2,19.95,1.57c5.68-7.19,6.92-17.52,6.81-25.74c-0.11-11.52-2.92-24.77-8-38.23
			c-8.22-21.74-21.03-40.39-35.15-51.31l-4-3.03l4.65-1.89c0.38-0.16,33.52-13.41,71.65-16.49c-3.52-4.48-7.47-8.61-11.79-12.33
			c-0.1-0.1-0.24-0.15-0.38-0.16c-47.31,4.65-91.06,27.58-91.06,27.58c17.47,9.95,33.25,28.28,43.85,48.02
			c2.16,3.95,4.06,7.95,5.73,11.9C146.61,109.9,147.32,111.69,147.96,113.47z"/>
		<path class="st23" d="M153.59,143.53c-5.69,1.04-11.31,2.44-16.82,4.22c-2.54-14.33-8.38-24.17-14.65-29.52
			c8.69-1.13,17.32-2.72,25.85-4.76c2.52,6.73,4.29,13.71,5.3,20.82C153.66,137.35,153.77,140.45,153.59,143.53z M143.58,168.19
			c4.8-5.21,8.03-11.68,9.3-18.65c-5.89,1.14-11.69,2.71-17.36,4.7l-3.41,1.35l-0.49-3.62c-2.97-21.74-13.52-31.63-19.47-32.71l0,0
			c-1.84-0.32-3.3,0-4.38,1.08c-2,2-2.65,6.27-1.78,11.73c4,24.12,24.71,46.18,42.66,45.37h0.05c3.6-0.11,7.09-1.25,10.06-3.3
			c1.78-1.23,3.39-2.7,4.76-4.38C155.48,170.19,148.4,169.6,143.58,168.19z M239.67,87.89c6.16,27.2,4.43,55.21-7.46,67.75
			l-1.35,1.3l-1.35,1.19l-0.27,0.16c-14.28,11.19-44.99,17.36-65.1,18.98c8-6.65,12.11-18.11,11.95-33.31
			c-0.11-12.22-3.03-26.12-8.38-40.23c-7.79-20.66-19.74-38.77-33.09-50.56c12.17-4.33,46.66-15.36,81.97-14.98
			c5.73,6.65,10.65,14.87,14.65,23.9c-12.98,14.22-24.22,32.39-29.31,42.66c0,0-10.44-6.6-20.87-6.27
			c7.84,4.22,20.44,18.82,25.04,25.95c0,0,13.41-44.18,47.64-80.35c-0.38,0.54-6.43,9.52-12.87,26.77h-0.05
			C238.8,76.31,238.41,82.22,239.67,87.89z"/>
	</g>
</g>
<g id="Layer_11">
</g>
<g id="Layer_12">
</g>
<g id="Layer_13">
</g>
<g id="Layer_14">
</g>
<g id="Layer_15">
</g>
</svg>
