<?xml version="1.0" encoding="utf-8"?>
<!-- Generator: Adobe Illustrator 27.8.1, SVG Export Plug-In . SVG Version: 6.00 Build 0)  -->
<svg version="1.1" xmlns="http://www.w3.org/2000/svg" xmlns:xlink="http://www.w3.org/1999/xlink" x="0px" y="0px"
	 viewBox="0 0 350 230" style="enable-background:new 0 0 350 230;" xml:space="preserve">
<style type="text/css">
	.st0{fill:#00B1F0;}
	.st1{fill:#231F20;}
	.st2{fill:#EE2724;}
	.st3{fill:#FFFFFF;}
	.st4{fill:#55B948;}
	.st5{fill:#342643;}
	.st6{fill:#4AB9EA;}
	.st7{fill:#1A5DAB;}
	.st8{fill:#2A419A;}
	.st9{fill:url(#SVGID_1_);}
	.st10{fill:url(#SVGID_00000036964265245899402770000011092161149025381504_);}
	.st11{fill:#3252A4;}
	.st12{fill:#AED136;}
	.st13{fill:#2C296A;}
	.st14{fill:#E6E7E7;}
	.st15{fill:#80C342;}
	.st16{fill:#87C540;}
	.st17{fill:#576A30;}
	.st18{fill:#FEBE2A;}
	.st19{fill:#163A63;}
	.st20{fill:#294DA1;}
	.st21{fill:#F26524;}
	.st22{fill:#95C93D;}
	.st23{fill:#007AC1;}
	.st24{fill:#AFD351;}
	.st25{fill:#165591;}
	.st26{fill:#8DD6F7;}
	.st27{fill:#284F9A;}
	.st28{fill:#192D56;}
	.st29{fill:#60B4E5;}
	.st30{fill:#22211D;}
	.st31{fill:#C62630;}
</style>
<g id="Layer_1">
</g>
<g id="Layer_2">
</g>
<g id="Layer_3">
</g>
<g id="Layer_4">
</g>
<g id="Layer_5">
</g>
<g id="Layer_6">
</g>
<g id="Layer_7">
</g>
<g id="Layer_8">
</g>
<g id="Layer_9">
</g>
<g id="Layer_10">
</g>
<g id="Layer_11">
</g>
<g id="Layer_12">
</g>
<g id="Layer_13">
	<g>
		<path class="st26" d="M133.12,124.92v55.3H87.71v-21.22l-7.18,2.2L133.12,124.92z M133.12,98.34V47.08H87.65v95.1l-4.79,8.06
			l62.16-64.05L133.12,98.34L133.12,98.34z"/>
		<path class="st27" d="M178.59,142.74v37.47h-22.74v-57.19l0,0L178.59,142.74z M178.59,115.41V30.39h-39.43
			c-3.34,0-6.05,2.71-6.05,6.05v10.64h18.77c2.19,0,3.97,1.78,3.97,3.97c0,0,0,0,0,0v44.59L178.59,115.41L178.59,115.41z"/>
		<polygon class="st24" points="178.59,142.74 178.59,142.74 184.38,147.84 		"/>
		<polygon class="st24" points="184.38,147.84 178.59,142.74 178.59,180.22 178.59,180.22 178.59,142.74 		"/>
		<path class="st24" d="M260.97,91.86l8.5-31.05v119.41h-56.18v-62.79l34.95-36.65L260.97,91.86z M263.99,14.71h-79.92
			c-3.03,0-5.48,2.45-5.48,5.48v10.2h28.72c3.31,0.03,5.98,2.73,5.98,6.05v50.57l-30.92,31.68l50.26-51.45l-12.66-11.08l49.5-14.42
			V20.18C269.47,17.16,267.02,14.71,263.99,14.71C263.99,14.71,263.99,14.71,263.99,14.71z"/>
		<polygon class="st28" points="133.12,98.34 145.02,86.19 133.12,98.34 		"/>
		<path class="st28" d="M155.85,51.04c0-2.19-1.78-3.97-3.97-3.97c0,0,0,0,0,0C154.08,47.08,155.85,48.85,155.85,51.04
			C155.85,51.04,155.85,51.04,155.85,51.04z"/>
		<path class="st28" d="M145.02,86.19l10.83,9.45l0,0L145.02,86.19z M151.89,47.08h-18.77v51.27l11.9-12.16l10.83,9.45V51.04
			C155.85,48.85,154.08,47.08,151.89,47.08C151.89,47.08,151.89,47.08,151.89,47.08z M147.04,115.35l-13.92,9.57l0,0v55.3h22.74
			v-57.19l0,0L147.04,115.35z"/>
		<polygon class="st28" points="178.59,115.41 182.37,118.68 178.59,115.41 		"/>
		<polygon class="st28" points="178.59,115.41 182.37,118.68 178.59,115.41 		"/>
		<path class="st28" d="M213.29,117.43L213.29,117.43v62.79h-34.7v-37.47l5.79,5.1L213.29,117.43z M213.29,36.43
			c0-3.31-2.67-6.01-5.98-6.05h-28.72v85.02l3.78,3.27l30.92-31.68V36.43z"/>
	</g>
</g>
<g id="Layer_14">
</g>
<g id="Layer_15">
</g>
</svg>
