<?xml version="1.0" encoding="utf-8"?>
<!-- Generator: Adobe Illustrator 27.8.1, SVG Export Plug-In . SVG Version: 6.00 Build 0)  -->
<svg version="1.1" xmlns="http://www.w3.org/2000/svg" xmlns:xlink="http://www.w3.org/1999/xlink" x="0px" y="0px"
	 viewBox="0 0 350 230" style="enable-background:new 0 0 350 230;" xml:space="preserve">
<style type="text/css">
	.st0{fill:#00B1F0;}
	.st1{fill:#231F20;}
	.st2{fill:#EE2724;}
	.st3{fill:#FFFFFF;}
	.st4{fill:#55B948;}
	.st5{fill:#342643;}
	.st6{fill:#4AB9EA;}
	.st7{fill:#1A5DAB;}
	.st8{fill:#2A419A;}
	.st9{fill:url(#SVGID_1_);}
	.st10{fill:url(#SVGID_00000087389535457576963660000008734022032808258442_);}
	.st11{fill:#3252A4;}
	.st12{fill:#AED136;}
	.st13{fill:#2C296A;}
	.st14{fill:#E6E7E7;}
	.st15{fill:#80C342;}
	.st16{fill:#87C540;}
	.st17{fill:#576A30;}
	.st18{fill:#FEBE2A;}
	.st19{fill:#163A63;}
	.st20{fill:#294DA1;}
	.st21{fill:#F26524;}
	.st22{fill:#95C93D;}
	.st23{fill:#007AC1;}
	.st24{fill:#AFD351;}
	.st25{fill:#165591;}
	.st26{fill:#8DD6F7;}
	.st27{fill:#284F9A;}
	.st28{fill:#192D56;}
	.st29{fill:#60B4E5;}
	.st30{fill:#22211D;}
	.st31{fill:#C62630;}
</style>
<g id="Layer_1">
</g>
<g id="Layer_2">
</g>
<g id="Layer_3">
</g>
<g id="Layer_4">
</g>
<g id="Layer_5">
</g>
<g id="Layer_6">
</g>
<g id="Layer_7">
</g>
<g id="Layer_8">
</g>
<g id="Layer_9">
	<g>
		<path class="st20" d="M233.32,90.79l-9.38-20.36l19.26,2.94c-12.91-42.03-57.45-65.64-99.48-52.73c-1.15,0.35-2.3,0.74-3.44,1.14
			c-7.54,2.74-14.63,6.59-21.04,11.41c-35.03,26.52-41.93,76.41-15.41,111.44c0.41,0.54,0.82,1.07,1.24,1.6
			C191.8,139.62,233.32,90.79,233.32,90.79z M187.88,48.17c0-2.95,2.39-5.34,5.34-5.34h15.09c2.95,0,5.34,2.39,5.34,5.34v49.37
			c-8.09,6.31-16.71,11.92-25.76,16.74V48.17z M152.79,66.69c0-2.95,2.39-5.34,5.34-5.34h15.09c2.95,0,5.34,2.39,5.34,5.34v52.26
			c-8.35,3.89-16.95,7.19-25.76,9.87V66.69z M117.71,87.24c0-2.95,2.39-5.34,5.34-5.34h15.09c2.95,0,5.34,2.39,5.34,5.34v44.22
			c-8.48,2.2-17.08,3.88-25.76,5.03V87.24z M240.99,106.5c-43.36,37.11-94.09,45.33-131.2,45.14c30.42,31.7,80.77,32.75,112.48,2.33
			c6.77-6.5,12.34-14.14,16.45-22.57c2.68-5.56,4.71-11.4,6.07-17.42L240.99,106.5z"/>
		<path class="st21" d="M92.56,150.9c37.23,2.82,97.89-1.1,148.43-44.41l8.95,17.6l21.77-46.37l-47.78-7.3l9.38,20.36
			c0,0-45.45,53.48-140.64,56.06C90.11,146.92,89.98,150.72,92.56,150.9z"/>
	</g>
</g>
<g id="Layer_10">
</g>
<g id="Layer_11">
</g>
<g id="Layer_12">
</g>
<g id="Layer_13">
</g>
<g id="Layer_14">
</g>
<g id="Layer_15">
</g>
</svg>
