<?xml version="1.0" encoding="utf-8"?>
<!-- Generator: Adobe Illustrator 27.8.1, SVG Export Plug-In . SVG Version: 6.00 Build 0)  -->
<svg version="1.1" xmlns="http://www.w3.org/2000/svg" xmlns:xlink="http://www.w3.org/1999/xlink" x="0px" y="0px"
	 viewBox="0 0 350 230" style="enable-background:new 0 0 350 230;" xml:space="preserve">
<style type="text/css">
	.st0{fill:#00B1F0;}
	.st1{fill:#231F20;}
	.st2{fill:#EE2724;}
	.st3{fill:#FFFFFF;}
	.st4{fill:#55B948;}
	.st5{fill:#342643;}
	.st6{fill:#4AB9EA;}
	.st7{fill:#1A5DAB;}
	.st8{fill:#2A419A;}
	.st9{fill:url(#SVGID_1_);}
	.st10{fill:url(#SVGID_00000107563341471456912830000000448093932812809863_);}
	.st11{fill:#3252A4;}
	.st12{fill:#AED136;}
	.st13{fill:#2C296A;}
	.st14{fill:#E6E7E7;}
	.st15{fill:#80C342;}
	.st16{fill:#87C540;}
	.st17{fill:#576A30;}
	.st18{fill:#FEBE2A;}
	.st19{fill:#163A63;}
	.st20{fill:#294DA1;}
	.st21{fill:#F26524;}
	.st22{fill:#95C93D;}
	.st23{fill:#007AC1;}
	.st24{fill:#AFD351;}
	.st25{fill:#165591;}
	.st26{fill:#8DD6F7;}
	.st27{fill:#284F9A;}
	.st28{fill:#192D56;}
	.st29{fill:#60B4E5;}
	.st30{fill:#22211D;}
	.st31{fill:#C62630;}
</style>
<g id="Layer_1">
</g>
<g id="Layer_2">
</g>
<g id="Layer_3">
</g>
<g id="Layer_4">
</g>
<g id="Layer_5">
</g>
<g id="Layer_6">
</g>
<g id="Layer_7">
</g>
<g id="Layer_8">
	<g>
		<path class="st18" d="M180.1,100.13l7.94,13.33c10.67-11.25,16.46-21.74,19.36-28.12l-5.57-8c0,0-18.84-28.75-43.59,0L100.1,157
			l-0.35,0.58c18.78-3.59,34.43-8.93,47.48-15.13L180.1,100.13z"/>
		<path class="st19" d="M210.19,143.2L210.19,143.2c34.43-20.81,57.45-50.09,50.55-73.22c-11.07-36.75-61.28-36.29-82.32-34.38
			V24.48L147.63,41.7l30.78,17.22V42.33c62.38,6.32,36.12,53.22,36.12,53.22c-6.79,8.76-14.38,16.87-22.67,24.23
			c-15.34,13.45-32.84,24.21-51.77,31.83c-14.18,5.78-29.02,9.81-44.17,12c-4.99,0.64-7.88,0.75-7.88,0.75
			c23.83,7.59,50.67,6.03,75.94-1.1l96.75-1.57l-22.14-31.65C234.59,132.54,225.78,137.41,210.19,143.2z"/>
	</g>
</g>
<g id="Layer_9">
</g>
<g id="Layer_10">
</g>
<g id="Layer_11">
</g>
<g id="Layer_12">
</g>
<g id="Layer_13">
</g>
<g id="Layer_14">
</g>
<g id="Layer_15">
</g>
</svg>
