<?xml version="1.0" encoding="utf-8"?>
<!-- Generator: Adobe Illustrator 27.8.1, SVG Export Plug-In . SVG Version: 6.00 Build 0)  -->
<svg version="1.1" xmlns="http://www.w3.org/2000/svg" xmlns:xlink="http://www.w3.org/1999/xlink" x="0px" y="0px"
	 viewBox="0 0 350 230" style="enable-background:new 0 0 350 230;" xml:space="preserve">
<style type="text/css">
	.st0{fill:#00B1F0;}
	.st1{fill:#231F20;}
	.st2{fill:#EE2724;}
	.st3{fill:#FFFFFF;}
	.st4{fill:#55B948;}
	.st5{fill:#342643;}
	.st6{fill:#4AB9EA;}
	.st7{fill:#1A5DAB;}
	.st8{fill:#2A419A;}
	.st9{fill:url(#SVGID_1_);}
	.st10{fill:url(#SVGID_00000117666577302306642140000007102666044856815232_);}
	.st11{fill:#3252A4;}
	.st12{fill:#AED136;}
	.st13{fill:#2C296A;}
	.st14{fill:#E6E7E7;}
	.st15{fill:#80C342;}
	.st16{fill:#87C540;}
	.st17{fill:#576A30;}
	.st18{fill:#FEBE2A;}
	.st19{fill:#163A63;}
	.st20{fill:#294DA1;}
	.st21{fill:#F26524;}
	.st22{fill:#95C93D;}
	.st23{fill:#007AC1;}
	.st24{fill:#AFD351;}
	.st25{fill:#165591;}
	.st26{fill:#8DD6F7;}
	.st27{fill:#284F9A;}
	.st28{fill:#192D56;}
	.st29{fill:#60B4E5;}
	.st30{fill:#22211D;}
	.st31{fill:#C62630;}
</style>
<g id="Layer_1">
</g>
<g id="Layer_2">
</g>
<g id="Layer_3">
</g>
<g id="Layer_4">
</g>
<g id="Layer_5">
	<path class="st11" d="M244.25,102.84c0.07-0.89,0.07-1.84,0.07-2.8c0.04-41.08-33.23-74.42-74.31-74.46
		c-41.08-0.04-74.42,33.23-74.46,74.31c-0.04,41.08,33.23,74.42,74.31,74.46c0.05,0,0.1,0,0.15,0c2.2,0,3.98-1.78,3.98-3.98
		c0-2.2-1.78-3.98-3.98-3.98c-36.64,0.04-66.37-29.63-66.41-66.27c-0.04-36.64,29.63-66.37,66.27-66.41s66.37,29.63,66.41,66.27
		c0,0.02,0,0.05,0,0.07v0.44l-7.23-5.46l5.39,33.21l20-27.01L244.25,102.84z M166.99,137.82l-6.79-19.33h-39.92
		c7.31,20.07,27.01,34.39,49.74,34.39h2.29L166.99,137.82z M154.97,103.87l-11.51-32.91l-16.68,32.91H154.97z M170.02,47.2
		c-6.07,0.02-12.08,1.09-17.78,3.17h0.15l30.77,80.73l6.79,17.86c27.02-11.02,39.99-41.85,28.97-68.87
		C210.81,60.21,191.49,47.21,170.02,47.2L170.02,47.2z M194.96,87.64v20.51c0,1.79-1.45,3.25-3.25,3.25s-3.25-1.45-3.25-3.25V87.64
		h-7.45l10.7-18.6l10.77,18.6H194.96z"/>
</g>
<g id="Layer_6">
</g>
<g id="Layer_7">
</g>
<g id="Layer_8">
</g>
<g id="Layer_9">
</g>
<g id="Layer_10">
</g>
<g id="Layer_11">
</g>
<g id="Layer_12">
</g>
<g id="Layer_13">
</g>
<g id="Layer_14">
</g>
<g id="Layer_15">
</g>
</svg>
