<?xml version="1.0" encoding="utf-8"?>
<!-- Generator: Adobe Illustrator 27.8.1, SVG Export Plug-In . SVG Version: 6.00 Build 0)  -->
<svg version="1.1" xmlns="http://www.w3.org/2000/svg" xmlns:xlink="http://www.w3.org/1999/xlink" x="0px" y="0px"
	 viewBox="0 0 350 230" style="enable-background:new 0 0 350 230;" xml:space="preserve">
<style type="text/css">
	.st0{fill:#00B1F0;}
	.st1{fill:#231F20;}
	.st2{fill:#EE2724;}
	.st3{fill:#FFFFFF;}
	.st4{fill:#55B948;}
	.st5{fill:#342643;}
	.st6{fill:#4AB9EA;}
	.st7{fill:#1A5DAB;}
	.st8{fill:#2A419A;}
	.st9{fill:url(#SVGID_1_);}
	.st10{fill:url(#SVGID_00000013172117562606156350000011472564114223086780_);}
	.st11{fill:#3252A4;}
	.st12{fill:#AED136;}
	.st13{fill:#2C296A;}
	.st14{fill:#E6E7E7;}
	.st15{fill:#80C342;}
	.st16{fill:#87C540;}
	.st17{fill:#576A30;}
	.st18{fill:#FEBE2A;}
	.st19{fill:#163A63;}
	.st20{fill:#294DA1;}
	.st21{fill:#F26524;}
	.st22{fill:#95C93D;}
	.st23{fill:#007AC1;}
	.st24{fill:#AFD351;}
	.st25{fill:#165591;}
	.st26{fill:#8DD6F7;}
	.st27{fill:#284F9A;}
	.st28{fill:#192D56;}
	.st29{fill:#60B4E5;}
	.st30{fill:#22211D;}
	.st31{fill:#C62630;}
</style>
<g id="Layer_1">
</g>
<g id="Layer_2">
</g>
<g id="Layer_3">
</g>
<g id="Layer_4">
</g>
<g id="Layer_5">
</g>
<g id="Layer_6">
</g>
<g id="Layer_7">
</g>
<g id="Layer_8">
</g>
<g id="Layer_9">
</g>
<g id="Layer_10">
</g>
<g id="Layer_11">
</g>
<g id="Layer_12">
</g>
<g id="Layer_13">
</g>
<g id="Layer_14">
	<g>
		<path class="st29" d="M155.23,59.03v30.19l-11.6,11.6l-0.81-0.81l-6.23-6.18v-34.8c-0.01-3.96,2.49-7.5,6.23-8.81
			c0.99-0.35,2.04-0.52,3.09-0.51c5.12-0.03,9.29,4.1,9.32,9.22C155.23,58.96,155.23,58.99,155.23,59.03z M143.63,129.59h-0.81
			c-2.26-0.13-4.42-0.93-6.23-2.28v24.82c0.02,3.95,2.51,7.48,6.23,8.81c1,0.32,2.04,0.49,3.09,0.51c5.15,0,9.32-4.17,9.32-9.32
			v-29.18l-3.14,3.14C149.85,128.35,146.8,129.61,143.63,129.59z M164.91,113.28v49.24c-0.01,3.94,2.47,7.45,6.18,8.76
			c1.01,0.37,2.07,0.56,3.14,0.56c5.12,0,9.27-4.15,9.27-9.27c0-0.02,0-0.03,0-0.05V94.69l-12.41,12.41L164.91,113.28z
			 M180.81,21.29c-1.76-1.73-4.12-2.72-6.59-2.74c-1.07,0.01-2.13,0.18-3.14,0.51c-3.7,1.36-6.17,4.87-6.18,8.81v51.67l15.05-15.05
			c1-1.05,2.21-1.87,3.55-2.43V27.87C183.51,25.41,182.55,23.04,180.81,21.29z M209.08,31.67c-1.75-1.75-4.11-2.73-6.59-2.74
			c-1.05,0.01-2.09,0.18-3.09,0.51c-3.73,1.33-6.22,4.86-6.23,8.81v23.76c1.37,0.57,2.61,1.42,3.65,2.48l13.37,13.37l1.62-1.62
			V38.26C211.81,35.78,210.83,33.42,209.08,31.67z M201.79,103.15l-2.38-2.38l-6.23-6.18v36.83c0,3.95,2.5,7.47,6.23,8.76
			c0.99,0.37,2.04,0.56,3.09,0.56c5.15,0,9.32-4.17,9.32-9.32v-24.87c-0.54,0.08-1.08,0.12-1.62,0.1
			C207.03,106.67,204,105.41,201.79,103.15z"/>
		<path class="st30" d="M142.82,50.21v49.8l-6.23-6.18v-34.8C136.58,55.06,139.08,51.53,142.82,50.21z M136.59,152.14
			c0.02,3.95,2.51,7.48,6.23,8.81v-31.36c-2.26-0.13-4.42-0.93-6.23-2.28V152.14z M164.91,27.87v51.67l6.18-6.18V19.06
			C167.39,20.41,164.92,23.93,164.91,27.87z M164.91,162.52c-0.01,3.94,2.47,7.45,6.18,8.76V107.1l-6.18,6.18V162.52z M193.17,38.26
			v23.76c1.37,0.57,2.61,1.42,3.65,2.48l2.58,2.53V29.44C195.67,30.77,193.18,34.3,193.17,38.26z M193.17,131.42
			c0,3.95,2.5,7.47,6.23,8.76v-39.41l-6.23-6.18V131.42z M250.97,58.52c-0.01-0.22-0.04-0.44-0.1-0.66v-0.25l-0.25-0.76l0,0V56.7
			c-0.09-0.2-0.21-0.39-0.35-0.56l-0.15-0.25c-0.09-0.16-0.21-0.3-0.35-0.41l-0.15-0.2L249,54.82h-0.05l-0.71-0.41l-0.2-0.1
			l-0.61-0.15h-0.25l-0.81-0.1h-22.14c-2.59,0.27-4.47,2.59-4.2,5.17c0.23,2.22,1.98,3.97,4.2,4.2h10.79l-24.82,24.82L191.7,69.61
			c-1.84-1.82-4.8-1.82-6.64,0l-41.44,41.49l-16.26-16.26c-1.82-1.82-4.77-1.82-6.59,0l-20.42,20.36c-1.82,1.86-1.79,4.84,0.08,6.66
			c0.86,0.84,2.01,1.32,3.22,1.34c1.24,0,2.42-0.49,3.29-1.37l17.12-17.12l16.26,16.26c1.82,1.82,4.77,1.82,6.59,0l41.49-41.44
			l18.49,18.49c1.82,1.82,4.77,1.82,6.59,0l28.17-28.12v9.78c0,2.57,2.08,4.66,4.66,4.66c2.57,0,4.66-2.08,4.66-4.66
			c0,0,0-0.01,0-0.01V58.52z"/>
	</g>
</g>
<g id="Layer_15">
</g>
</svg>
