<?xml version="1.0" encoding="utf-8"?>
<!-- Generator: Adobe Illustrator 27.8.1, SVG Export Plug-In . SVG Version: 6.00 Build 0)  -->
<svg version="1.1" xmlns="http://www.w3.org/2000/svg" xmlns:xlink="http://www.w3.org/1999/xlink" x="0px" y="0px"
	 viewBox="0 0 300 300" style="enable-background:new 0 0 300 300;" xml:space="preserve">
<style type="text/css">
	.st0{fill:#FFEA2C;}
	.st1{fill:#F7FF57;}
	.st2{fill:#FFFFFF;}
	.st3{fill:#D64949;}
	.st4{fill:#353535;}
	.st5{fill:#FFC783;}
	.st6{font-family:'Airstrike';}
	.st7{font-size:21.7529px;}
</style>
<g id="Layer_1">
	<path class="st0" d="M147,65.1c-36.7,0-66.5,29.8-66.5,66.5c0,6.9,1.1,13.6,3.1,19.9c1.4-0.7,2.8-1.5,4.3-2.2
		c-1.7-5.6-2.6-11.6-2.6-17.7c0-34,27.7-61.7,61.7-61.7c20.5,0,38.6,10,49.9,25.4c1.6-0.8,3-1.5,4.4-2.1
		C189.2,76.1,169.4,65.1,147,65.1z M212.5,119.7c-1.4,0.5-3,1-4.6,1.6c0.6,3.3,0.9,6.7,0.9,10.2c0,34-27.7,61.7-61.7,61.7
		c-23.6,0-44.1-13.3-54.5-32.8c-1.6,0.5-3.1,1-4.6,1.5C99,183.3,121.3,198,147,198c36.7,0,66.5-29.8,66.5-66.5
		C213.5,127.5,213.2,123.6,212.5,119.7z"/>
	<path class="st1" d="M147,73c-32.3,0-58.5,26.3-58.5,58.5c0,5.6,0.8,11.1,2.3,16.2c4.1-2.1,8.5-4.3,13-6.6
		c-0.7-3.1-1.1-6.3-1.1-9.6c0-24.4,19.9-44.3,44.3-44.3c13.6,0,25.7,6.1,33.8,15.7c4.8-2.3,9.2-4.5,13.1-6.4
		C183.3,82.3,166.2,73,147,73z M205.6,131.5c0,32.3-26.3,58.5-58.5,58.5c-22.2,0-41.5-12.4-51.4-30.6c1.5-0.5,3.1-1,4.7-1.5
		c1.5-0.5,3.1-1,4.7-1.5c1.5-0.5,3-1,4.5-1.5c7.8,12.5,21.7,20.9,37.6,20.9c24.4,0,44.3-19.8,44.3-44.3c0-1.5-0.1-3-0.2-4.4
		c5-1.7,9.7-3.3,13.8-4.8C205.3,125.4,205.6,128.4,205.6,131.5z"/>
	<path class="st2" d="M123.9,131.1c-0.5,0.2-0.9,0.5-1.4,0.7c0-0.2-0.1-0.5-0.1-0.7L123.9,131.1z M122.6,156.4
		c-0.7-0.1-1.2-0.7-1.2-1.5c0.1-0.7,0.7-1.2,1.5-1.2l2,0.2c-0.1-1.1-0.2-2.3-0.4-3.5l-2.3,0.3c-0.1,0-0.1,0-0.2,0
		c-0.1,0-0.2,0-0.3,0h0c-3.1,1-6.2,2.1-9.2,3.1c2.8,4.3,6.3,8,10.4,11c0.3-0.7,0.5-1.3,0.8-2l-2.3-0.8c-0.7-0.2-1.1-1-0.8-1.7
		c0.2-0.7,1-1.1,1.7-0.8l2.2,0.8c0.3-1.2,0.4-2.4,0.5-3.6v0L122.6,156.4z M169.8,134.5l1.2,0.3c0-0.1,0-0.1,0-0.2
		c0.1-0.2,0.1-0.4,0.1-0.6C170.7,134.2,170.2,134.3,169.8,134.5z M188,128.2c-4.4,1.5-9.1,3.1-13.9,4.8c-0.1,0.8-0.3,1.5-0.5,2.3
		l2.3,0.5c0.7,0.2,1.2,0.9,1,1.6c-0.1,0.6-0.7,1.1-1.3,1.1c-0.1,0-0.2,0-0.3,0l-2.5-0.5c-0.2,0.6-0.4,1.2-0.5,1.8
		c-0.2,0.7-0.4,1.4-0.6,2.1l2.4,0.6c0.7,0.2,1.1,0.9,1,1.6c-0.2,0.6-0.7,1-1.3,1c-0.1,0-0.2,0-0.3,0l-2.4-0.6
		c-0.4,1.2-0.7,2.4-0.9,3.6l2.1,0.3c0.7,0.1,1.2,0.8,1.2,1.5c-0.1,0.7-0.7,1.2-1.3,1.2c-0.1,0-0.1,0-0.2,0l-2.3-0.3
		c-0.2,1.2-0.3,2.3-0.4,3.5l2-0.2c0.7-0.1,1.4,0.4,1.5,1.2c0.1,0.7-0.4,1.4-1.2,1.5l-2.4,0.3v0c0.1,1.2,0.2,2.4,0.5,3.6l2.2-0.8
		c0.7-0.2,1.5,0.1,1.7,0.8c0.2,0.7-0.1,1.4-0.8,1.7l-2.3,0.8c0.2,0.6,0.5,1.3,0.8,2c10.3-7.5,17-19.6,17-33.3
		C188.1,130.4,188.1,129.3,188,128.2z M160.3,110.6l-1,2.1c-0.2,0.5-0.7,0.8-1.2,0.8c-0.2,0-0.4,0-0.6-0.1c-0.7-0.3-0.9-1.1-0.6-1.8
		l1-2.2c-1.1-0.5-2.3-1-3.5-1.4l-0.7,2.3c-0.2,0.6-0.7,0.9-1.3,0.9c-0.1,0-0.3,0-0.4-0.1c-0.7-0.2-1.1-1-0.9-1.7l0.7-2.2
		c-1.2-0.2-2.3-0.4-3.5-0.4v2.3c0,0.7-0.6,1.3-1.3,1.3c-0.7,0-1.3-0.6-1.3-1.3v-2.3c-1.2,0.1-2.4,0.2-3.5,0.4l0.7,2.2
		c0.2,0.7-0.2,1.4-0.9,1.7c-0.1,0-0.3,0.1-0.4,0.1c-0.6,0-1.1-0.4-1.3-0.9l-0.7-2.3c-1.2,0.4-2.3,0.8-3.5,1.4l1,2.2
		c0.3,0.7,0,1.4-0.6,1.8c-0.2,0.1-0.4,0.1-0.6,0.1c-0.5,0-1-0.3-1.2-0.8l-1-2.1c-1,0.6-1.9,1.3-2.8,2l1.6,1.7
		c0.5,0.5,0.5,1.4-0.1,1.9c-0.3,0.3-0.6,0.4-0.9,0.4c-0.4,0-0.7-0.1-1-0.4l-1.7-1.8c-0.8,0.8-1.5,1.7-2.2,2.6c0,0-0.1,0.1-0.1,0.1
		l2,1.2c0.6,0.4,0.8,1.2,0.5,1.8c-0.3,0.4-0.7,0.7-1.1,0.7c-0.2,0-0.5-0.1-0.7-0.2l-2.1-1.2c-0.6,1-1.1,2.1-1.5,3.2l2.4,0.7
		c0.7,0.2,1.1,0.9,0.9,1.6c-0.2,0.6-0.7,1-1.3,1c-0.1,0-0.2,0-0.4-0.1l-2.4-0.7c-0.3,1.2-0.5,2.3-0.5,3.5l2.3,0c0,0,0,0,0,0
		c0.7,0,1.3,0.6,1.3,1.3c0,0.1,0,0.2,0,0.3c7-3.5,14.1-7,21-10.4c5.3-2.6,10.4-5.1,15.4-7.6C161.8,111.5,161,111,160.3,110.6z
		 M147,90.5c-22.6,0-41.1,18.4-41.1,41.1c0,2.8,0.3,5.5,0.8,8.1c4.3-2.2,8.7-4.4,13.2-6.6c-0.1-0.6-0.2-1.3-0.2-1.9l-2.6,0
		c0,0,0,0,0,0c-0.7,0-1.3-0.6-1.3-1.3c0-0.7,0.6-1.3,1.3-1.3l2.5,0c0.1-1.4,0.3-2.9,0.6-4.3l-2.2-0.7c-0.7-0.2-1.1-0.9-0.9-1.6
		c0.2-0.7,0.9-1.1,1.6-0.9l2.3,0.7c0.5-1.3,1.1-2.6,1.8-3.8l-2.1-1.2c-0.6-0.4-0.8-1.2-0.5-1.8c0.4-0.6,1.2-0.8,1.8-0.5l2.1,1.3
		c0.1-0.1,0.2-0.2,0.3-0.4c0.8-1,1.6-2,2.5-2.9l-1.7-1.7c-0.5-0.5-0.5-1.4,0.1-1.9c0.5-0.5,1.4-0.5,1.9,0l1.7,1.8
		c1.1-0.9,2.3-1.8,3.5-2.5l-1.1-2.3c-0.3-0.7,0-1.5,0.6-1.8c0.7-0.3,1.5,0,1.8,0.6l1,2.1c1.2-0.6,2.5-1.1,3.8-1.5l-0.7-2.3
		c-0.2-0.7,0.2-1.4,0.9-1.7c0.7-0.2,1.4,0.2,1.7,0.9l0.7,2.4c1.4-0.3,2.9-0.5,4.3-0.6v-2.5c0-0.7,0.6-1.3,1.3-1.3
		c0.7,0,1.3,0.6,1.3,1.3v2.5c1.5,0.1,2.9,0.3,4.3,0.6h0l0.7-2.4c0.2-0.7,1-1.1,1.7-0.9c0.7,0.2,1.1,1,0.9,1.7l-0.7,2.3
		c1.3,0.4,2.6,0.9,3.8,1.5l1-2.1c0.3-0.7,1.1-1,1.8-0.6c0.7,0.3,0.9,1.1,0.6,1.8l-1.1,2.3c1.2,0.7,2.4,1.6,3.5,2.5l1.7-1.8
		c0.5-0.5,1.3-0.6,1.9,0c0.1,0.1,0.1,0.1,0.2,0.2c3.2-1.6,6.3-3.1,9.2-4.5C170.4,95.9,159.3,90.5,147,90.5z M170.2,137.3
		c-0.2,0.6-0.3,1.1-0.5,1.6c-0.2,0.7-0.4,1.4-0.6,2.2l-2.3-0.6c-0.7-0.2-1.4,0.2-1.6,0.9c-0.2,0.7,0.2,1.4,1,1.6l2.2,0.6
		c-0.4,1.4-0.7,2.7-1,4l-2.6-0.3c-0.7-0.1-1.4,0.4-1.5,1.2c-0.1,0.7,0.4,1.4,1.2,1.5l2.5,0.3c-0.2,1.4-0.4,2.8-0.5,4.1l-2.7,0.3
		c-0.7,0.1-1.2,0.7-1.2,1.5c0.1,0.7,0.7,1.2,1.3,1.2c0.1,0,0.1,0,0.2,0l2.4-0.3c0.1,1.4,0.3,2.8,0.6,4.2v0l-2.4,0.8
		c-0.7,0.2-1.1,1-0.8,1.7c0.2,0.5,0.7,0.9,1.3,0.9c0.1,0,0.3,0,0.4-0.1l2.2-0.8c0.3,0.9,0.6,1.7,1,2.6c-6.3,4-13.8,6.3-21.8,6.3
		c-8,0-15.5-2.3-21.8-6.3c0.4-0.9,0.8-1.7,1-2.6l2.2,0.8c0.1,0.1,0.3,0.1,0.4,0.1c0.6,0,1.1-0.3,1.3-0.9c0.2-0.7-0.1-1.4-0.8-1.7
		l-2.4-0.8c0.3-1.4,0.5-2.8,0.6-4.2l2.4,0.3c0.1,0,0.1,0,0.2,0c0.7,0,1.2-0.5,1.3-1.2c0.1-0.7-0.4-1.4-1.2-1.5l-2.7-0.3
		c-0.1-1.4-0.2-2.7-0.5-4.1l2.5-0.3c0.7-0.1,1.2-0.8,1.2-1.5c0-0.2-0.1-0.4-0.2-0.6c5.5-1.8,11-3.7,16.5-5.6
		c6.8-2.3,13.5-4.6,20-6.8c-0.1,0.7,0.4,1.3,1,1.4L170.2,137.3z M149.9,158.4l4.3-3.3l-5.4-0.1l-1.8-5.1l-1.8,5.1l-5.4,0.1l4.3,3.3
		l-1.6,5.2l4.4-3.1l4.4,3.1L149.9,158.4z"/>
	<path class="st3" d="M131.5,156.1c-0.1,0.7-0.7,1.2-1.3,1.2c-0.1,0-0.1,0-0.2,0l-2.4-0.3c-0.1,1.4-0.3,2.8-0.6,4.2l2.4,0.8
		c0.7,0.2,1.1,1,0.8,1.7c-0.2,0.5-0.7,0.9-1.3,0.9c-0.1,0-0.3,0-0.4-0.1l-2.2-0.8c-0.3,0.9-0.6,1.7-1,2.6c-0.8-0.5-1.5-1-2.2-1.5
		c0.3-0.7,0.5-1.3,0.8-2l-2.3-0.8c-0.7-0.2-1.1-1-0.8-1.7c0.2-0.7,1-1.1,1.7-0.8l2.2,0.8c0.3-1.2,0.4-2.4,0.5-3.6v0l-2.4-0.3
		c-0.7-0.1-1.2-0.7-1.2-1.5c0.1-0.7,0.7-1.2,1.5-1.2l2,0.2c-0.1-1.1-0.2-2.3-0.4-3.5l-2.3,0.3c-0.1,0-0.1,0-0.2,0
		c-0.1,0-0.2,0-0.3,0c0.9-0.3,1.8-0.6,2.6-0.9h0c0.8-0.3,1.7-0.6,2.5-0.9c1.2-0.4,2.4-0.8,3.6-1.2c0.1,0.2,0.2,0.4,0.2,0.6
		c0.1,0.7-0.4,1.4-1.2,1.5l-2.5,0.3c0.2,1.4,0.4,2.8,0.5,4.1l2.7,0.3C131.1,154.7,131.6,155.4,131.5,156.1z M168.5,108.8
		c-0.5-0.5-1.4-0.5-1.9,0l-1.7,1.8c-1.1-0.9-2.3-1.8-3.5-2.5l1.1-2.3c0.3-0.7,0-1.5-0.6-1.8c-0.7-0.3-1.5,0-1.8,0.6l-1,2.1
		c-1.2-0.6-2.5-1.1-3.8-1.5l0.7-2.3c0.2-0.7-0.2-1.4-0.9-1.7c-0.7-0.2-1.4,0.2-1.7,0.9l-0.7,2.4h0c-1.4-0.3-2.9-0.5-4.3-0.6v-2.5
		c0-0.7-0.6-1.3-1.3-1.3c-0.7,0-1.3,0.6-1.3,1.3v2.5c-1.5,0.1-2.9,0.3-4.3,0.6l-0.7-2.4c-0.2-0.7-1-1.1-1.7-0.9
		c-0.7,0.2-1.1,1-0.9,1.7l0.7,2.3c-1.3,0.4-2.6,0.9-3.8,1.5l-1-2.1c-0.3-0.7-1.1-1-1.8-0.6c-0.7,0.3-1,1.1-0.6,1.8l1.1,2.3
		c-1.2,0.7-2.4,1.6-3.5,2.5l-1.7-1.8c-0.5-0.5-1.3-0.6-1.9,0c-0.5,0.5-0.6,1.3-0.1,1.9l1.7,1.7c-0.9,0.9-1.7,1.9-2.5,2.9
		c-0.1,0.1-0.2,0.2-0.3,0.4l-2.1-1.3c-0.6-0.4-1.4-0.2-1.8,0.5c-0.4,0.6-0.2,1.4,0.5,1.8l2.1,1.2c-0.7,1.2-1.3,2.5-1.8,3.8l-2.3-0.7
		c-0.7-0.2-1.4,0.2-1.6,0.9c-0.2,0.7,0.2,1.4,0.9,1.6l2.2,0.7c-0.4,1.4-0.6,2.8-0.6,4.3l-2.5,0c-0.7,0-1.3,0.6-1.3,1.3
		c0,0.7,0.6,1.3,1.3,1.3c0,0,0,0,0,0l2.6,0c0,0.6,0.1,1.3,0.2,1.9c0.8-0.4,1.7-0.8,2.5-1.2c0-0.2-0.1-0.5-0.1-0.7l1.5,0
		c0.7-0.4,1.4-0.7,2.1-1.1c0-0.1,0-0.2,0-0.3c0-0.7-0.6-1.3-1.3-1.3c0,0,0,0,0,0l-2.3,0c0.1-1.2,0.2-2.3,0.5-3.5l2.4,0.7
		c0.1,0,0.3,0.1,0.4,0.1c0.6,0,1.1-0.4,1.3-1c0.2-0.7-0.2-1.4-0.9-1.6l-2.4-0.7c0.4-1.1,0.9-2.1,1.5-3.2l2.1,1.2
		c0.2,0.1,0.4,0.2,0.7,0.2c0.5,0,0.9-0.2,1.1-0.7c0.4-0.6,0.2-1.4-0.5-1.8l-2-1.2c0,0,0.1-0.1,0.1-0.1c0.7-0.9,1.4-1.8,2.2-2.6
		l1.7,1.8c0.3,0.3,0.6,0.4,1,0.4c0.3,0,0.7-0.1,0.9-0.4c0.5-0.5,0.6-1.3,0.1-1.9l-1.6-1.7c0.9-0.7,1.8-1.4,2.8-2l1,2.1
		c0.2,0.5,0.7,0.8,1.2,0.8c0.2,0,0.4,0,0.6-0.1c0.7-0.3,0.9-1.1,0.6-1.8l-1-2.2c1.1-0.5,2.3-1,3.5-1.4l0.7,2.3
		c0.2,0.6,0.7,0.9,1.3,0.9c0.1,0,0.3,0,0.4-0.1c0.7-0.2,1.1-1,0.9-1.7l-0.7-2.2c1.2-0.2,2.3-0.4,3.5-0.4v2.3c0,0.7,0.6,1.3,1.3,1.3
		c0.7,0,1.3-0.6,1.3-1.3v-2.3c1.2,0.1,2.4,0.2,3.5,0.4l-0.7,2.2c-0.2,0.7,0.2,1.4,0.9,1.7c0.1,0,0.3,0.1,0.4,0.1
		c0.6,0,1.1-0.4,1.3-0.9l0.7-2.3c1.2,0.4,2.3,0.8,3.5,1.4l-1,2.2c-0.3,0.7,0,1.4,0.6,1.8c0.2,0.1,0.4,0.1,0.6,0.1
		c0.5,0,1-0.3,1.2-0.8l1-2.1c0.8,0.5,1.5,1,2.2,1.5c0.7-0.4,1.4-0.7,2.2-1.1c0.2-0.1,0.3-0.2,0.5-0.2c1.2-0.6,2.4-1.2,3.6-1.8
		C168.6,108.9,168.6,108.9,168.5,108.8z M175.9,135.8l-2.3-0.5c0.2-0.8,0.4-1.5,0.5-2.3c-1,0.3-1.9,0.7-2.9,1c0,0.2-0.1,0.4-0.1,0.6
		c0,0.1,0,0.1,0,0.2l-1.2-0.3c-0.9,0.3-1.8,0.6-2.8,1c-0.1,0.7,0.4,1.3,1,1.4l2.2,0.5c-0.2,0.6-0.3,1.1-0.5,1.6
		c-0.2,0.7-0.4,1.4-0.6,2.2l-2.3-0.6c-0.7-0.2-1.4,0.2-1.6,0.9c-0.2,0.7,0.2,1.4,1,1.6l2.2,0.6c-0.4,1.4-0.7,2.7-1,4l-2.6-0.3
		c-0.7-0.1-1.4,0.4-1.5,1.2c-0.1,0.7,0.4,1.4,1.2,1.5l2.5,0.3c-0.2,1.4-0.4,2.8-0.5,4.1l-2.7,0.3c-0.7,0.1-1.2,0.7-1.2,1.5
		c0.1,0.7,0.7,1.2,1.3,1.2c0.1,0,0.1,0,0.2,0l2.4-0.3c0.1,1.4,0.3,2.8,0.6,4.2v0l-2.4,0.8c-0.7,0.2-1.1,1-0.8,1.7
		c0.2,0.5,0.7,0.9,1.3,0.9c0.1,0,0.3,0,0.4-0.1l2.2-0.8c0.3,0.9,0.6,1.7,1,2.6c0.8-0.5,1.5-1,2.2-1.5c-0.3-0.7-0.5-1.3-0.8-2
		l2.3-0.8c0.7-0.2,1.1-1,0.8-1.7c-0.2-0.7-1-1.1-1.7-0.8l-2.2,0.8c-0.3-1.2-0.4-2.4-0.5-3.6v0l2.4-0.3c0.7-0.1,1.2-0.7,1.2-1.5
		c-0.1-0.7-0.7-1.2-1.5-1.2l-2,0.2c0.1-1.1,0.2-2.3,0.4-3.5l2.3,0.3c0.1,0,0.1,0,0.2,0c0.7,0,1.2-0.5,1.3-1.2
		c0.1-0.7-0.4-1.4-1.2-1.5l-2.1-0.3c0.3-1.2,0.6-2.4,0.9-3.6l2.4,0.6c0.1,0,0.2,0,0.3,0c0.6,0,1.1-0.4,1.3-1c0.2-0.7-0.2-1.4-1-1.6
		l-2.4-0.6c0.2-0.7,0.4-1.4,0.6-2.1c0.2-0.6,0.4-1.2,0.5-1.8l2.5,0.5c0.1,0,0.2,0,0.3,0c0.6,0,1.2-0.4,1.3-1.1
		C177.1,136.6,176.6,135.9,175.9,135.8z"/>
	<path class="st4" d="M221.5,100.3c-1.5-3.7-4.5-6.6-8.2-8c-2.9-1.1-6-1.3-9-0.4c-12.6-18.1-33.6-30-57.3-30
		c-38.4,0-69.7,31.3-69.7,69.7c0,6,0.8,11.8,2.2,17.3c-0.3-0.2-0.6-0.4-1-0.6c-1.3-0.5-2.7-0.5-3.9,0c-2.6,1.1-3.9,4.1-2.8,6.7
		l5.3,12.7c0.8,2,2.7,3.2,4.7,3.2c0.7,0,1.3-0.1,2-0.4c1.7-0.7,2.8-2.1,3.1-3.8c12.1,20.6,34.5,34.5,60.1,34.5
		c38.4,0,69.7-31.3,69.7-69.7c0-4.5-0.4-8.9-1.3-13.2c2.6-1.5,4.6-3.8,5.9-6.6C223,108.1,223,104.1,221.5,100.3z M147,65.1
		c22.3,0,42.2,11.1,54.2,28c-1.4,0.7-2.8,1.4-4.4,2.1c-11.2-15.4-29.4-25.4-49.9-25.4c-34,0-61.7,27.7-61.7,61.7
		c0,6.1,0.9,12.1,2.6,17.7c-1.5,0.8-2.9,1.5-4.3,2.2c-2-6.3-3.1-13-3.1-19.9C80.6,94.9,110.4,65.1,147,65.1z M147,87.3
		c-24.4,0-44.3,19.8-44.3,44.3c0,3.3,0.4,6.5,1.1,9.6c-4.5,2.3-8.9,4.5-13,6.6c-1.5-5.1-2.3-10.6-2.3-16.2
		C88.5,99.3,114.8,73,147,73c19.2,0,36.3,9.3,46.9,23.6c-3.9,1.9-8.3,4.1-13.1,6.4C172.7,93.4,160.6,87.3,147,87.3z M177.9,104.5
		c-3,1.4-6,3-9.2,4.5c-1.2,0.6-2.4,1.2-3.6,1.8c-0.2,0.1-0.3,0.2-0.5,0.2c-0.7,0.4-1.4,0.7-2.2,1.1c-5,2.4-10.2,5-15.4,7.6
		c-7,3.4-14,6.9-21,10.4c-0.7,0.4-1.4,0.7-2.1,1.1c-0.5,0.2-0.9,0.5-1.4,0.7c-0.8,0.4-1.7,0.8-2.5,1.2c-4.5,2.2-8.9,4.5-13.2,6.6
		c-0.5-2.6-0.8-5.3-0.8-8.1c0-22.6,18.4-41.1,41.1-41.1C159.3,90.5,170.4,95.9,177.9,104.5z M83.7,166.5c-0.2,0.5-0.6,0.9-1.1,1.1
		c-1,0.4-2.1-0.1-2.5-1.1l-2.5-6.1v0l-2.7-6.6c-0.2-0.5-0.2-1,0-1.5c0.2-0.5,0.6-0.9,1.1-1.1c0.2-0.1,0.5-0.1,0.7-0.1
		c0.8,0,1.5,0.5,1.8,1.2l0.9,2.2l0.8,2v0l0.9,2.1l0,0.1l0.9,2.1l0,0l0.8,2l0.9,2.2C83.9,165.5,83.9,166,83.7,166.5z M147,198
		c-25.7,0-48.1-14.7-59.1-36.1c1.5-0.5,3.1-1,4.6-1.5c10.4,19.5,30.9,32.8,54.5,32.8c34,0,61.7-27.7,61.7-61.7
		c0-3.5-0.3-6.9-0.9-10.2c1.6-0.6,3.2-1.1,4.6-1.6c0.7,3.8,1.1,7.8,1.1,11.8C213.5,168.2,183.7,198,147,198z M147,175.8
		c24.4,0,44.3-19.8,44.3-44.3c0-1.5-0.1-3-0.2-4.4c5-1.7,9.7-3.3,13.8-4.8c0.5,3,0.7,6.1,0.7,9.2c0,32.3-26.3,58.5-58.5,58.5
		c-22.2,0-41.5-12.4-51.4-30.6c1.5-0.5,3.1-1,4.7-1.5c1.5-0.5,3.1-1,4.7-1.5c1.5-0.5,3-1,4.5-1.5C117.3,167.4,131.2,175.8,147,175.8
		z M112.6,153.9c3-1,6.1-2,9.2-3.1h0c0.9-0.3,1.8-0.6,2.6-0.9h0c0.8-0.3,1.7-0.6,2.5-0.9c1.2-0.4,2.4-0.8,3.6-1.2
		c5.5-1.8,11-3.7,16.5-5.6c6.8-2.3,13.5-4.6,20-6.8c0.9-0.3,1.9-0.6,2.8-1c0.5-0.2,0.9-0.3,1.4-0.5c1-0.3,2-0.7,2.9-1
		c4.8-1.7,9.5-3.3,13.9-4.8c0.1,1.1,0.1,2.2,0.1,3.3c0,13.7-6.7,25.8-17,33.3c-0.7,0.5-1.5,1-2.2,1.5c-6.3,4-13.8,6.3-21.8,6.3
		c-8,0-15.5-2.3-21.8-6.3c-0.8-0.5-1.5-1-2.2-1.5C118.9,161.8,115.4,158.1,112.6,153.9z M218.4,110.5c-0.8,1.9-2.1,3.4-3.7,4.6
		c-0.5,0.3-0.9,0.6-1.4,0.9c-0.5,0.2-1,0.5-1.5,0.6c0,0,0,0,0,0c-1.4,0.5-2.9,1-4.5,1.6c-0.5,0.2-1,0.4-1.5,0.5
		c-0.5,0.2-1,0.3-1.5,0.5c-4.1,1.4-8.6,3-13.6,4.7c-0.5,0.2-1,0.4-1.5,0.5c-0.5,0.2-1,0.3-1.5,0.5c-3.3,1.1-6.8,2.3-10.3,3.6
		c-1,0.3-1.9,0.7-2.9,1c-0.9,0.3-1.8,0.6-2.7,0.9c-0.6,0.2-1.2,0.4-1.8,0.6h0c-7.3,2.5-15.1,5.2-22.9,7.8c-6.9,2.3-13.9,4.7-20.8,7
		c-0.8,0.3-1.7,0.6-2.5,0.8c-4.4,1.5-8.7,2.9-12.8,4.3c-0.5,0.2-1,0.3-1.5,0.5c-0.5,0.2-1,0.3-1.5,0.5c-4.8,1.6-9.3,3.1-13.7,4.5
		c-0.5,0.2-1,0.3-1.5,0.5c-0.2,0.1-0.3,0.1-0.4,0.1c-0.4,0.1-0.7,0.2-1.1,0.4c-1.6,0.5-3.1,1-4.6,1.5c-0.5,0.2-1,0.3-1.5,0.5
		c0,0-0.1,0-0.1,0l-0.9-2.1l-0.4-0.9l-0.5-1.2c0,0,0.1,0,0.1-0.1c0.5-0.2,0.9-0.5,1.4-0.7c1.4-0.7,2.8-1.5,4.3-2.2
		c0.5-0.2,0.9-0.5,1.4-0.7c0.5-0.2,0.9-0.5,1.4-0.7c4.1-2.1,8.4-4.3,12.9-6.5c0.5-0.2,1-0.5,1.4-0.7c0.5-0.2,1-0.5,1.4-0.7
		c3.2-1.6,6.5-3.3,9.8-4.9c1.1-0.6,2.2-1.1,3.4-1.7c0.8-0.4,1.6-0.8,2.4-1.2c0.3-0.2,0.6-0.3,0.9-0.5c0,0,0,0,0,0
		c7.6-3.8,15.3-7.6,22.9-11.3c4.9-2.4,9.7-4.8,14.4-7.1c1.2-0.6,2.4-1.2,3.6-1.8c0,0,0.1,0,0.1-0.1c0.8-0.4,1.6-0.8,2.4-1.2
		c4.3-2.1,8.5-4.1,12.4-6.1c0.5-0.2,1-0.5,1.5-0.7h0c0.5-0.2,1-0.5,1.4-0.7c4.7-2.3,9.1-4.4,13-6.3c0.5-0.2,1-0.5,1.4-0.7
		c0.5-0.2,1-0.5,1.4-0.7c1.5-0.7,3-1.5,4.3-2.1c0.1,0,0.1,0,0.1-0.1c0.5-0.2,0.9-0.4,1.4-0.6c0.5-0.2,1.1-0.3,1.6-0.4
		c0.6-0.1,1.3-0.2,1.9-0.2c0.4,0,0.8,0,1.2,0.1h0c0.9,0.1,1.8,0.3,2.8,0.7c0.9,0.3,1.7,0.8,2.5,1.3c1.7,1.2,3.1,2.9,4,4.9
		C219.8,104.5,219.7,107.6,218.4,110.5z"/>
	<path class="st5" d="M218.4,110.5c-0.8,1.9-2.1,3.4-3.7,4.6c-0.5,0.3-0.9,0.6-1.4,0.9c-0.5,0.2-1,0.5-1.5,0.6c0,0,0,0,0,0
		c-1.4,0.5-2.9,1-4.5,1.6c-0.5,0.2-1,0.4-1.5,0.5c-0.5,0.2-1,0.3-1.5,0.5c-4.1,1.4-8.6,3-13.6,4.7c-0.5,0.2-1,0.4-1.5,0.5
		c-0.5,0.2-1,0.3-1.5,0.5c-3.3,1.1-6.8,2.3-10.3,3.6c-1,0.3-1.9,0.7-2.9,1c-0.9,0.3-1.8,0.6-2.7,0.9c-0.6,0.2-1.2,0.4-1.8,0.6h0
		c-7.3,2.5-15.1,5.2-22.9,7.8c-6.9,2.3-13.9,4.7-20.8,7c-0.8,0.3-1.7,0.6-2.5,0.8c-4.4,1.5-8.7,2.9-12.8,4.3c-0.5,0.2-1,0.3-1.5,0.5
		c-0.5,0.2-1,0.3-1.5,0.5c-4.8,1.6-9.3,3.1-13.7,4.5c-0.5,0.2-1,0.3-1.5,0.5c-0.2,0.1-0.3,0.1-0.4,0.1c-0.4,0.1-0.7,0.2-1.1,0.4
		c-1.6,0.5-3.1,1-4.6,1.5c-0.5,0.2-1,0.3-1.5,0.5c0,0-0.1,0-0.1,0l-0.9-2.1l-0.4-0.9l-0.5-1.2c0,0,0.1,0,0.1-0.1
		c0.5-0.2,0.9-0.5,1.4-0.7c1.4-0.7,2.8-1.5,4.3-2.2c0.5-0.2,0.9-0.5,1.4-0.7c0.5-0.2,0.9-0.5,1.4-0.7c4.1-2.1,8.4-4.3,12.9-6.5
		c0.5-0.2,1-0.5,1.4-0.7c0.5-0.2,1-0.5,1.4-0.7c3.2-1.6,6.5-3.3,9.8-4.9c1.1-0.6,2.2-1.1,3.4-1.7c0.8-0.4,1.6-0.8,2.4-1.2
		c0.3-0.2,0.6-0.3,0.9-0.5c0,0,0,0,0,0c7.6-3.8,15.3-7.6,22.9-11.3c4.9-2.4,9.7-4.8,14.4-7.1c1.2-0.6,2.4-1.2,3.6-1.8c0,0,0,0,0,0
		l0.1-0.1c0.8-0.4,1.6-0.8,2.4-1.2c4.3-2.1,8.5-4.1,12.4-6.1c0.5-0.2,1-0.5,1.5-0.7h0c0.5-0.2,1-0.5,1.4-0.7c4.7-2.3,9.1-4.4,13-6.3
		c0.5-0.2,1-0.5,1.4-0.7c0.5-0.2,1-0.5,1.4-0.7c1.5-0.7,3-1.5,4.3-2.1c0.1,0,0.1,0,0.1-0.1c0.5-0.2,0.9-0.4,1.4-0.6
		c0.5-0.2,1.1-0.3,1.6-0.4c0.6-0.1,1.3-0.2,1.9-0.2c0.4,0,0.8,0,1.2,0.1h0c0.9,0.1,1.8,0.3,2.8,0.7c0.9,0.3,1.7,0.8,2.5,1.3
		c1.7,1.2,3.1,2.9,4,4.9C219.8,104.5,219.7,107.6,218.4,110.5z M83.7,165l-0.9-2.2l-0.8-2l0,0l-0.9-2.1l0-0.1l-0.9-2.1v0l-0.8-2
		l-0.9-2.2c-0.3-0.7-1-1.2-1.8-1.2c-0.3,0-0.5,0-0.7,0.1c-0.5,0.2-0.9,0.6-1.1,1.1c-0.2,0.5-0.2,1,0,1.5l2.7,6.6v0l2.5,6.1
		c0.4,1,1.6,1.5,2.5,1.1c0.5-0.2,0.9-0.6,1.1-1.1C83.9,166,83.9,165.5,83.7,165z"/>
</g>
<g id="Layer_2">
	<text transform="matrix(1 0 0 1 25.3959 233.1158)" class="st4 st6 st7">SPORTS AND FITNESS</text>
</g>
</svg>
