<?xml version="1.0" encoding="utf-8"?>
<!-- Generator: Adobe Illustrator 27.8.1, SVG Export Plug-In . SVG Version: 6.00 Build 0)  -->
<svg version="1.1" id="Layer_1" xmlns="http://www.w3.org/2000/svg" xmlns:xlink="http://www.w3.org/1999/xlink" x="0px" y="0px"
	 viewBox="0 0 1000 1000" style="enable-background:new 0 0 1000 1000;" xml:space="preserve">
<style type="text/css">
	.st0{fill:#5E3500;}
	.st1{opacity:0.38;fill:#8C5002;}
	.st2{fill:#8C5002;}
	.st3{fill-rule:evenodd;clip-rule:evenodd;fill:#5E3500;}
	.st4{fill-rule:evenodd;clip-rule:evenodd;fill:#8C5002;}
	.st5{fill-rule:evenodd;clip-rule:evenodd;fill:#D48E33;}
	.st6{fill:#A2DE4A;}
	.st7{fill:#4F902C;}
	.st8{fill:url(#SVGID_1_);}
	.st9{fill:url(#SVGID_00000161633231988664770270000006304588534521076898_);}
	.st10{fill:url(#SVGID_00000093171443333402959170000012704407557251070648_);}
	.st11{fill:url(#SVGID_00000178886829071374657880000017547668093218207658_);}
	.st12{fill:url(#SVGID_00000173877635449328378120000007627814350148570551_);}
	.st13{fill:url(#SVGID_00000087406609424317758790000012891220277117919640_);}
	.st14{fill:url(#SVGID_00000018936422338803327630000006146896813833180830_);}
	.st15{fill:url(#SVGID_00000003793714427373414810000004571286076811274387_);}
	.st16{fill:url(#SVGID_00000159441178145654955620000017748844296987077280_);}
	.st17{fill:url(#SVGID_00000057866875613201829210000009765662379984671416_);}
	.st18{fill:url(#SVGID_00000132048343796472721740000003039673962682946985_);}
	.st19{fill:url(#SVGID_00000138534340406363775640000014405814187438372020_);}
	.st20{fill:url(#SVGID_00000136382220831960283830000002002127502922440361_);}
	.st21{fill:url(#SVGID_00000110432777153372529510000017228191774980955062_);}
	.st22{fill:url(#SVGID_00000083768799259525144980000006078927921727332500_);}
	.st23{fill:url(#SVGID_00000146496514747550051420000007025120147347063204_);}
	.st24{fill:url(#SVGID_00000007396772562971886220000017303544613536619417_);}
	.st25{fill:url(#SVGID_00000072996924243418071500000007989333139943547821_);}
	.st26{fill:url(#SVGID_00000063627635975326030930000001881887367176795537_);}
	.st27{fill:url(#SVGID_00000034800616148853836220000006839140105351538071_);}
	.st28{fill:url(#SVGID_00000103960863125620668710000000111169857028665760_);}
	.st29{fill:url(#SVGID_00000035522557170555861180000017750230429596922784_);}
	.st30{fill:url(#SVGID_00000152982223436027289370000008234854357958359472_);}
	.st31{fill:url(#SVGID_00000108991517141995158170000013400762754552502707_);}
	.st32{fill:url(#SVGID_00000097489021637803949010000009781104069344134064_);}
	.st33{fill:url(#SVGID_00000157291717410524430310000011078904606996627331_);}
	.st34{fill:url(#SVGID_00000122684206301333586330000007680266070945579929_);}
	.st35{fill:url(#SVGID_00000121265726913336540120000013068006341938030241_);}
	.st36{fill-rule:evenodd;clip-rule:evenodd;fill:#C78125;}
	.st37{fill-rule:evenodd;clip-rule:evenodd;fill:#784400;}
	.st38{fill-rule:evenodd;clip-rule:evenodd;fill:#A3610C;}
	.st39{fill-rule:evenodd;clip-rule:evenodd;fill:#C27D23;}
	.st40{fill-rule:evenodd;clip-rule:evenodd;fill:#FFE5C4;}
	.st41{fill-rule:evenodd;clip-rule:evenodd;fill:#FFCF91;}
	.st42{fill-rule:evenodd;clip-rule:evenodd;fill:#FFEFDB;}
	.st43{fill-rule:evenodd;clip-rule:evenodd;fill:#F0AE58;}
	.st44{fill-rule:evenodd;clip-rule:evenodd;fill:#FFF9F2;}
	.st45{fill-rule:evenodd;clip-rule:evenodd;fill:#5D9A11;}
	.st46{fill-rule:evenodd;clip-rule:evenodd;fill:#4A8207;}
	.st47{fill-rule:evenodd;clip-rule:evenodd;fill:#3A6900;}
	.st48{fill-rule:evenodd;clip-rule:evenodd;fill:#78BD12;}
	.st49{fill-rule:evenodd;clip-rule:evenodd;fill:#CC9933;}
	.st50{fill-rule:evenodd;clip-rule:evenodd;fill:#AD671C;}
	.st51{fill-rule:evenodd;clip-rule:evenodd;fill:#96540E;}
	.st52{fill-rule:evenodd;clip-rule:evenodd;fill:#EDC574;}
	.st53{fill-rule:evenodd;clip-rule:evenodd;fill:#BD7E20;}
	.st54{fill:#FFFFFF;}
	.st55{opacity:0.38;fill-rule:evenodd;clip-rule:evenodd;fill:#8C5002;}
	.st56{font-family:'NunitoHeavy-Regular';}
	.st57{font-size:132.2293px;}
	.st58{font-size:40.926px;}
	.st59{fill:url(#SVGID_00000061467104437739080870000002740215336100465038_);}
	.st60{fill:url(#SVGID_00000145053226436608652460000001881711496880326568_);}
	.st61{fill:url(#SVGID_00000021101037605820671760000009541928392318239107_);}
	.st62{fill:url(#SVGID_00000084530760440442398130000010252785085453692082_);}
	.st63{fill:url(#SVGID_00000140005110805160950110000000817281726421781895_);}
	.st64{fill:url(#SVGID_00000049215563976983638910000007064310987200605316_);}
	.st65{opacity:0.43;fill:#8C5002;}
	.st66{fill:url(#SVGID_00000170995251274771804930000004020545375640296335_);}
	.st67{fill:url(#SVGID_00000183952600632496335480000014168826514719601575_);}
	.st68{fill:url(#SVGID_00000048492665604831981230000016845392781093666191_);}
	.st69{opacity:0.35;fill:#8C5002;}
	.st70{fill:url(#SVGID_00000072963112041068920010000006372563722420210067_);}
	.st71{fill:url(#SVGID_00000077305083980765587320000007047050578535796400_);}
	.st72{fill:url(#SVGID_00000097478833500549247790000002650953104112477593_);}
	.st73{fill:url(#SVGID_00000013185042723542963710000010216134580604867482_);}
	.st74{fill:url(#SVGID_00000003089441404897636270000009078314112788488068_);}
	.st75{fill:url(#SVGID_00000182488825917701334160000016437145863446340491_);}
</style>
<ellipse class="st0" cx="505.58" cy="611.45" rx="102.77" ry="6.64"/>
<ellipse class="st1" cx="505.58" cy="611.56" rx="64.66" ry="3.9"/>
<linearGradient id="SVGID_1_" gradientUnits="userSpaceOnUse" x1="554.8892" y1="338.4218" x2="551.9065" y2="398.821">
	<stop  offset="0" style="stop-color:#B49518"/>
	<stop  offset="1" style="stop-color:#BA961C"/>
</linearGradient>
<polygon class="st8" points="604.48,340.87 587.06,370.94 549,398.68 510.16,394.81 502.55,391.58 503.32,382.29 "/>
<linearGradient id="SVGID_00000065755487113055270730000003572075550318932912_" gradientUnits="userSpaceOnUse" x1="539.33" y1="537.2568" x2="537.8772" y2="566.6767">
	<stop  offset="0" style="stop-color:#B49518"/>
	<stop  offset="1" style="stop-color:#BA961C"/>
</linearGradient>
<path style="fill:url(#SVGID_00000065755487113055270730000003572075550318932912_);" d="M568.1,538.68l-58.94,25.55
	c0,0,14.32,2.42,18.58,1.65l38.32-24.39L568.1,538.68z"/>
<linearGradient id="SVGID_00000101786649599995280920000000611975667528084919_" gradientUnits="userSpaceOnUse" x1="533.3281" y1="445.2281" x2="530.7708" y2="497.0126">
	<stop  offset="0" style="stop-color:#B49518"/>
	<stop  offset="1" style="stop-color:#BA961C"/>
</linearGradient>
<path style="fill:url(#SVGID_00000101786649599995280920000000611975667528084919_);" d="M480.61,492.61c0,0,5.29,2.19,10.71,2.45
	l63.81-14.71l20.97-21.94l7.48-10.71l-42.45,19.74l-40.77,5.29L480.61,492.61z"/>
<path class="st0" d="M374.93,306.61c0,0,121.16-58.85,225.35-90.14l-7.7-19.43l-8.64,3.42l-18.23-8.18l-4.42-11.16
	c0,0-132.82,38.9-183.18,74.68l4.42,11.16l-5.3,15.01l-10.8,4.28L374.93,306.61z"/>
<linearGradient id="SVGID_00000098184281567396213090000009578091815091266962_" gradientUnits="userSpaceOnUse" x1="501.5694" y1="266.2728" x2="498.4727" y2="439.6922">
	<stop  offset="0" style="stop-color:#4F902C"/>
	<stop  offset="1" style="stop-color:#A2DE4A"/>
</linearGradient>
<path style="fill:url(#SVGID_00000098184281567396213090000009578091815091266962_);" d="M609.52,302.16c0,0-120,61.16-203.61,72.77
	l-13.55-73.55C392.35,301.39,529.77,291.71,609.52,302.16z"/>
<linearGradient id="SVGID_00000010307997964655954720000000816655059146142378_" gradientUnits="userSpaceOnUse" x1="506.2741" y1="336.0211" x2="503.2901" y2="396.4472">
	<stop  offset="0" style="stop-color:#B49518"/>
	<stop  offset="0.206" style="stop-color:#CDAB18"/>
	<stop  offset="0.397" style="stop-color:#EEB13E"/>
	<stop  offset="0.5779" style="stop-color:#E2B83E"/>
	<stop  offset="0.7688" style="stop-color:#E2CE3E"/>
	<stop  offset="1" style="stop-color:#BA961C"/>
</linearGradient>
<path style="fill:url(#SVGID_00000010307997964655954720000000816655059146142378_);" d="M604.48,340.87l-74.71-3.1
	c0,0-79.35,32.13-123.87,37.16c0,0,51.1,18.19,92.9,21.29C498.81,396.23,579.71,366.42,604.48,340.87z"/>
<linearGradient id="SVGID_00000146480166398817569900000007045898343365120134_" gradientUnits="userSpaceOnUse" x1="506.9274" y1="348.2803" x2="516.2177" y2="470.6029">
	<stop  offset="0" style="stop-color:#4F902C"/>
	<stop  offset="1" style="stop-color:#A2DE4A"/>
</linearGradient>
<path style="fill:url(#SVGID_00000146480166398817569900000007045898343365120134_);" d="M604.48,340.87
	c0,0-37.94,41.42-190.06,81.29l8.52,47.61c0,0,85.55-13.55,169.94-64.65L604.48,340.87z"/>
<linearGradient id="SVGID_00000165932794287459507390000000197350977376309419_" gradientUnits="userSpaceOnUse" x1="503.9969" y1="443.7796" x2="501.5344" y2="493.6461">
	<stop  offset="0" style="stop-color:#B49518"/>
	<stop  offset="0.206" style="stop-color:#CDAB18"/>
	<stop  offset="0.397" style="stop-color:#EEB13E"/>
	<stop  offset="0.5779" style="stop-color:#E2B83E"/>
	<stop  offset="0.7688" style="stop-color:#E2CE3E"/>
	<stop  offset="1" style="stop-color:#BA961C"/>
</linearGradient>
<path style="fill:url(#SVGID_00000165932794287459507390000000197350977376309419_);" d="M507.71,445.39c0,0,63.87,4.26,75.87,2.32
	c0,0-32.52,30.58-102.97,44.9c0,0-42.97-12.77-57.68-22.84L507.71,445.39z"/>
<linearGradient id="SVGID_00000072277848043372908490000016135501796928049283_" gradientUnits="userSpaceOnUse" x1="503.9352" y1="532.7085" x2="502.3903" y2="563.9914">
	<stop  offset="0" style="stop-color:#B49518"/>
	<stop  offset="0.206" style="stop-color:#CDAB18"/>
	<stop  offset="0.397" style="stop-color:#EEB13E"/>
	<stop  offset="0.5779" style="stop-color:#E2B83E"/>
	<stop  offset="0.7688" style="stop-color:#E2CE3E"/>
	<stop  offset="1" style="stop-color:#BA961C"/>
</linearGradient>
<path style="fill:url(#SVGID_00000072277848043372908490000016135501796928049283_);" d="M515.06,533.26l53.03,5.42
	c0,0-43.35,22.45-57.68,25.55c0,0-51.87-0.77-72-10.06C438.42,554.16,505,542.55,515.06,533.26z"/>
<linearGradient id="SVGID_00000047774351042167871720000012931128041077300655_" gradientUnits="userSpaceOnUse" x1="508.9122" y1="501.1167" x2="502.7187" y2="626.5361">
	<stop  offset="0" style="stop-color:#4F902C"/>
	<stop  offset="1" style="stop-color:#A2DE4A"/>
</linearGradient>
<path style="fill:url(#SVGID_00000047774351042167871720000012931128041077300655_);" d="M568.1,538.68
	c0,0-53.03,34.84-124.26,44.13l2.71,10.45c0,0,72.77,9.68,111.48-0.39L568.1,538.68z"/>
<linearGradient id="SVGID_00000061438167269874834980000016887114579403204529_" gradientUnits="userSpaceOnUse" x1="509.7458" y1="436.5773" x2="500.4554" y2="561.9967">
	<stop  offset="0" style="stop-color:#4F902C"/>
	<stop  offset="1" style="stop-color:#A2DE4A"/>
</linearGradient>
<path style="fill:url(#SVGID_00000061438167269874834980000016887114579403204529_);" d="M583.58,447.71
	c0,0-42.19,40.65-153.68,58.84l8.52,47.61c0,0,77.81-9.29,136.26-49.16L583.58,447.71z"/>
<ellipse class="st0" cx="500.39" cy="301.77" rx="107.81" ry="8.19"/>
<text transform="matrix(1 0 0 1 286.0395 736.5626)" class="st0 st56 st57">Kokein</text>
<text transform="matrix(1 0 0 1 301.1033 788.4921)" class="st56 st58">Coffee With a twist!</text>
<g>
	<path class="st54" d="M577.86,206.75c4.36-1.76,8.75-3.44,13.12-5.15l0.37-0.14c0,0,0.17,0.38,0.17,0.38
		c1.84,4.28,3.6,8.59,5.4,12.88c-4.61,0.29-9.17,1.95-13.61,3.2c-29.32,9.44-57.72,21.49-86.5,32.44
		c28-12.92,56.46-25.14,86.01-34.09c4.36-1.17,8.56-2.48,13.11-2.86c0,0-0.66,0.95-0.66,0.95c-1.51-4.07-3.05-8.12-4.53-12.2
		c0,0,0.53,0.24,0.53,0.24C586.8,203.84,582.35,205.34,577.86,206.75L577.86,206.75z"/>
</g>
<g>
	<path class="st54" d="M387.04,256.09c29.97-17.48,61.6-32.12,93.85-44.87c21.35-8.38,43.62-16.11,65.75-22.16
		c3.72-1.03,7.44-2.03,11.16-3.02c-5.26,1.72-11.21,3.59-16.52,5.27C488.37,208.78,436.53,230.48,387.04,256.09L387.04,256.09z"/>
</g>
<g>
	<path class="st54" d="M387.77,269.14c-1.48,4.89-3.06,9.75-4.67,14.6c0,0-0.08,0.25-0.08,0.25s-0.27,0.12-0.27,0.12
		c-2.75,1.24-8.32,3.69-11.09,4.88c0,0,0.48-1.15,0.48-1.15s2.72,6.56,2.72,6.56l2.67,6.58c0,0-1.36-0.53-1.36-0.53
		c9.63-4.61,19.35-9.05,29.37-12.78c3.36-1.16,6.72-2.48,10.26-2.99c-6.79,2.08-13.09,5.47-19.54,8.38
		c-4.8,2.27-14.43,6.89-19.21,9.18c0,0-0.97,0.46-0.97,0.46c-0.15-0.36-2.77-7-3.01-7.59c-0.17-0.4-2.85-7.34-2.9-7.45
		c0,0,0.81-0.32,0.81-0.32c2.81-1.12,8.46-3.34,11.29-4.42c0,0-0.35,0.37-0.35,0.37C383.8,278.55,385.74,273.83,387.77,269.14
		L387.77,269.14z"/>
</g>
<path class="st65" d="M398.25,267.26c14.22-7.5,113.97-59.56,153.82-66.02c1.61-0.26,3.02,1.08,2.85,2.71l-0.65,6.07
	c-0.11,1-0.76,1.86-1.7,2.23c-14.77,5.81-132.61,52.37-155.35,68.41c-1.2,0.85-2.82-0.2-2.57-1.65l1.57-8.95
	C396.43,268.86,397.17,267.83,398.25,267.26z"/>
<path class="st3" d="M516.26,307.05c0,0,20.53-27.98,38.24-26.49c17.71,1.49,26.92-2.92,30.27-9.65c3.35-6.73,4.89-3.91,13.88-4.34
	c8.99-0.43,13.08-3.74,13.44-12.04c0.36-8.31,11.53-10.28,12.16,2.97c0.62,13.25-16.35,10.16-19.25,17.01
	c-2.9,6.85,8.83,11.98,7.67,20.39c-1.16,8.42-9.94,10.76-18.33,11.59c-8.4,0.84-22.45-3.01-38.81-1.79
	C539.17,305.94,516.26,307.05,516.26,307.05L516.26,307.05z"/>
<path class="st4" d="M533.08,298.15c0,0,8.04-15.86,23.47-12.7c15.42,3.17,28.05-3.52,30.5-8.95c2.45-5.43,4.79-6.68,9.06-6.31
	c4.27,0.37,9.14-1.61,11.27-2.67c2.13-1.07,1.22,1.85-4.13,4.43c-5.35,2.58-8.76,4.85-2.51,10.66c6.26,5.82,6.85,9.51,1.81,13.51
	c-5.03,4-3.28,4.41-15.23,3.45c-11.95-0.96-16.69-2.79-26.03-2.06C551.96,298.25,533.08,298.15,533.08,298.15L533.08,298.15z
	 M611.97,264.76c0.23-0.91,1.98-3.93,2.33-8.44c0.36-4.51,4.85-6.27,6.35-1.44C622.15,259.71,617.56,264.99,611.97,264.76
	L611.97,264.76z"/>
<path class="st3" d="M546.1,296.09c0,0,1.18-7.57,7.54-7.15c6.35,0.43,9.94,1.07,14.12-0.24c4.17-1.31,5.64,2.1,1.04,2.09
	c-4.6-0.02-10.59-1.4-11.24,0.66c-0.65,2.05,1.8,3.5-1.14,4.55C553.48,297.06,547.81,297.42,546.1,296.09L546.1,296.09z
	 M594.94,296.77c1.03-0.47,7.2-3.57,5.83-7.03c-1.37-3.46-4-4.1-5.08-6.92c-1.09-2.82-2.29-2.41-2.42-0.78
	c-0.13,1.62,5.39,5.26,4.41,7.51c-0.99,2.25-2.65,4.27-5.15,3.3c-2.5-0.96-0.37-3.67-0.41-4.83c-0.04-1.16-3.45-1.68-3.1,0.52
	c0.35,2.19,1.6,3.66,0.62,4.5c-0.98,0.84-1.77,1.28-3.35,0.13c-1.58-1.15-7.2,0.2-7.08,1.93
	C579.31,296.82,594.94,296.77,594.94,296.77L594.94,296.77z M581.72,284.35c-1.5,1.11-4.47,2-5.87,2.73
	c-1.4,0.73,0.97,3.12,4.79,0.67C584.46,285.3,583.12,284.06,581.72,284.35L581.72,284.35z"/>
<path class="st3" d="M592.66,255.5c1.35-3.04,4.24-13.03-2.76-21.55c-7-8.52,10.28-16.19,15.38-2.94
	C610.39,244.26,597.6,256.52,592.66,255.5L592.66,255.5z"/>
<path class="st3" d="M616.23,274.17c1.61,0.23,6.73,0.24,9.81-4.21c3.08-4.46,9.04,2.67,3.46,6.88
	C623.94,281.03,616.42,276.63,616.23,274.17L616.23,274.17z"/>
<path class="st3" d="M614.56,279.63c0.27,0.93,1.5,3.72,4.68,4.32c3.18,0.59,0.74,5.57-2.9,3.56
	C612.7,285.49,613.26,280.32,614.56,279.63L614.56,279.63z"/>
<ellipse class="st69" cx="500.39" cy="301.77" rx="73.13" ry="5.56"/>
</svg>
