<?xml version="1.0" encoding="utf-8"?>
<!-- Generator: Adobe Illustrator 27.8.1, SVG Export Plug-In . SVG Version: 6.00 Build 0)  -->
<svg version="1.1" id="Layer_1" xmlns="http://www.w3.org/2000/svg" xmlns:xlink="http://www.w3.org/1999/xlink" x="0px" y="0px"
	 viewBox="0 0 350 230" style="enable-background:new 0 0 350 230;" xml:space="preserve">
<style type="text/css">
	.st0{fill:none;stroke:#000000;stroke-miterlimit:10;}
	.st1{fill:#F9C616;}
	.st2{fill:#D71674;}
	.st3{fill:#2592D0;}
	.st4{fill:#2C2C2D;}
	.st5{fill:#DD5D26;}
	.st6{fill:#66CCF5;}
	.st7{fill:#EB1D25;}
	.st8{fill:#FDB715;}
	.st9{fill:#3681C3;}
	.st10{fill:#F79021;}
	.st11{fill:#109696;}
	.st12{fill:#62439A;}
	.st13{fill:#D0CA29;}
	.st14{fill:#EE344C;}
	.st15{fill:#030304;}
	.st16{fill:#83C562;}
	.st17{fill:#F78F1E;}
	.st18{fill:#284BA0;}
	.st19{fill:#684EA0;}
	.st20{fill:#61C088;}
	.st21{fill:#77C9AE;}
	.st22{fill:#F5BD1A;}
	.st23{fill:#AE72B0;}
	.st24{fill:#E44197;}
	.st25{fill:#9A64A9;}
	.st26{fill:#5FA2D8;}
	.st27{fill:#51B3E5;}
</style>
<path class="st6" d="M107.7,69.5l0.1,1.7c-0.4,0.1-32.9,6.6-45.4,85.4l-0.3,1.4H47c-1.7,11-1.4,18-1.4,18h40.2
	c0,0-2.1-31.9,4.5-69.2c14.5-44.4,43.7-28.5,39.1-9.6c-4.6,18.9-33.1,23.4-33.1,23.4L95.4,145C150.6,125.5,141.6,69,107.7,69.5z"/>
<path class="st7" d="M92.7,70.7l0.4,1.7c-0.4,0.2-36.3,15.6-53.1,68.9l-0.4,1.2H23.3c-3.4,8.2-5,13.8-5,13.8h42.3
	c13-81.3,46.9-86.8,46.9-86.8C102.6,69.3,97.6,69.7,92.7,70.7z"/>
<path class="st8" d="M92.5,70.8c0,0-36.9,15.2-54.1,70H3.2C3.2,140.8,33.8,79.5,92.5,70.8z"/>
</svg>
