<?xml version="1.0" encoding="utf-8"?>
<!-- Generator: Adobe Illustrator 27.8.1, SVG Export Plug-In . SVG Version: 6.00 Build 0)  -->
<svg version="1.1" xmlns="http://www.w3.org/2000/svg" xmlns:xlink="http://www.w3.org/1999/xlink" x="0px" y="0px"
	 viewBox="0 0 350 230" style="enable-background:new 0 0 350 230;" xml:space="preserve">
<style type="text/css">
	.st0{fill:#E4335A;}
	.st1{fill:#005199;}
	.st2{fill:#AD0000;}
	.st3{fill:#00E2E2;}
	.st4{fill:#003F33;}
	.st5{fill:#600068;}
	.st6{fill:#664600;}
	.st7{fill:#DAB038;}
	.st8{fill:#466F85;}
	.st9{fill:#57D4FF;}
	.st10{fill:#99042B;}
	.st11{fill:#BF882F;}
	.st12{fill:#B0C1C1;}
	.st13{fill:#689FC1;}
	.st14{fill:#0035AA;}
	.st15{fill:#CEC1A3;}
	.st16{fill:#AC8746;}
	.st17{fill:#F2EBDD;}
	.st18{fill:#350B00;}
	.st19{fill:#ECC752;}
	.st20{fill:#005468;}
	.st21{stroke:#000000;stroke-width:0.25;stroke-miterlimit:10;}
	.st22{fill:#EFECFF;}
	.st23{fill:#FFDE98;}
	.st24{fill:#5B3F00;}
	.st25{fill:#826834;}
	.st26{fill:none;stroke:#5B3F00;stroke-width:2;stroke-miterlimit:10;}
	.st27{fill:#FFBE00;}
	.st28{fill:#9B8D75;}
	.st29{fill:#FFFFFF;}
	.st30{fill:#FFFF00;}
	.st31{fill:#FFBF00;}
	.st32{fill:#FFA500;}
	.st33{fill:#B7F3F9;}
	.st34{fill:#B78802;}
</style>
<g id="Logo1">
</g>
<g id="Logo2">
</g>
<g id="Logo3">
</g>
<g id="Logo4">
	<g>
		<path class="st5" d="M327.29,191.45h-60.96c0,0,0.29-25.97-4.85-38.38c-5.15-12.41-2.5-20.4-2.5-20.4s6.34-8.88,18.11-9.35
			c4.12,10.26,8.35,21.91,8.35,21.91c3.62-8.09,8.13-15.61,10.87-20.53c5.72,1.06,13.47,4.77,18.81,11.14
			c0.01,0.38,0,0.76-0.02,1.12c-0.2,3.47-2.24,6.38-4.84,8.37c-16.73,12.84-4.19,20.28-4.19,20.28
			C326.93,181.08,327.29,191.45,327.29,191.45z"/>
		<path class="st6" d="M237.24,105.92c-6.25-8.67,8.21-15.47,8.21-15.47s77.99-32.81,77.1-43.85C321.66,35.55,311,43.08,311,43.08
			c8.57-7.04,12.31-4.59,13.94-1.19c1.58,3.28,1.06,7.17-1.03,10.16c-14.01,20.06-75.93,36.41-81.96,46.48
			c-6.48,10.81,11.17,10.67,11.17,10.67S241.62,111.99,237.24,105.92z M264.5,76.34c0,0,20.24-3.87,32.52-16.84
			C297.02,59.51,279.01,70.99,264.5,76.34z M268.42,49.1c14.76-9.2,28.34,2.29,28.34,2.29c-3.95-4.56-15.38-17.84-31.78-7.86
			c-14.86,9.04-6.58,30.66-6.58,30.66S255.43,57.19,268.42,49.1z M306.56,67.92c0,0-20.72,13.18-40.63,19.98
			c0,0,4.47,10.04-2.72,19.38c-7.19,9.34-22.81,10.76-15.83,36.56c0,0-4.52-22.34,12.95-26.2
			C277.8,113.78,308.48,100.61,306.56,67.92z"/>
	</g>
</g>
<g id="Logo5">
</g>
<g id="Logo6">
</g>
<g id="Logo7">
</g>
<g id="Logo8">
</g>
<g id="Logo9">
</g>
<g id="Logo10">
</g>
<g id="Logo11">
</g>
<g id="Logo12">
</g>
<g id="Logo13">
</g>
<g id="Logo14">
</g>
<g id="Logo15">
</g>
</svg>
