<?xml version="1.0" encoding="utf-8"?>
<!-- Generator: Adobe Illustrator 27.8.1, SVG Export Plug-In . SVG Version: 6.00 Build 0)  -->
<svg version="1.1" xmlns="http://www.w3.org/2000/svg" xmlns:xlink="http://www.w3.org/1999/xlink" x="0px" y="0px"
	 viewBox="0 0 350 230" style="enable-background:new 0 0 350 230;" xml:space="preserve">
<style type="text/css">
	.st0{fill:#E4335A;}
	.st1{fill:#005199;}
	.st2{fill:#AD0000;}
	.st3{fill:#00E2E2;}
	.st4{fill:#003F33;}
	.st5{fill:#600068;}
	.st6{fill:#664600;}
	.st7{fill:#DAB038;}
	.st8{fill:#466F85;}
	.st9{fill:#57D4FF;}
	.st10{fill:#99042B;}
	.st11{fill:#BF882F;}
	.st12{fill:#B0C1C1;}
	.st13{fill:#689FC1;}
	.st14{fill:#0035AA;}
	.st15{fill:#CEC1A3;}
	.st16{fill:#AC8746;}
	.st17{fill:#F2EBDD;}
	.st18{fill:#350B00;}
	.st19{fill:#ECC752;}
	.st20{fill:#005468;}
	.st21{stroke:#000000;stroke-width:0.25;stroke-miterlimit:10;}
	.st22{fill:#EFECFF;}
	.st23{fill:#FFDE98;}
	.st24{fill:#5B3F00;}
	.st25{fill:#826834;}
	.st26{fill:none;stroke:#5B3F00;stroke-width:2;stroke-miterlimit:10;}
	.st27{fill:#FFBE00;}
	.st28{fill:#9B8D75;}
	.st29{fill:#FFFFFF;}
	.st30{fill:#FFFF00;}
	.st31{fill:#FFBF00;}
	.st32{fill:#FFA500;}
	.st33{fill:#B7F3F9;}
	.st34{fill:#B78802;}
</style>
<g id="Logo1">
	<path d="M48.95,50.45c2.92-6.52,11.72-0.56,11.72-0.56s45.18,33.49,51.28,29.23c6.1-4.26-1.85-7.81-1.85-7.81
		c6.96,2.51,6.79,5.49,5.37,7.57c-1.37,2.02-3.8,3.04-6.23,2.86c-16.32-1.2-46.58-31.09-54.43-31.12
		c-8.44-0.03-2.43,10.02-2.43,10.02S46.9,55.03,48.95,50.45z M74.34,54.04c0,0,10.84,12.33,24.8,15.47
		C99.14,69.51,83.9,61.82,74.34,54.04z M91.07,47.4c9.46,3.77,10.29,18.09,10.29,18.09c1.31-3.81,1.91-17.04-9.37-23.04
		c-10.23-5.43-16.71,8.83-16.71,8.83S81.61,43.63,91.07,47.4z M72.52,63.37c-21.91,0-26.95,16.63-26.86,24.78
		c0.08,7.55,4.29,12.79-0.24,14.14c-6.17,1.83-4.39-4.72-4.39-4.72c-5.19,3.29-0.43,8.89-0.43,8.89c7.2,6.78,16.52,0.97,14.89-6.08
		c-1.63-7.05,2.87-19.19,14.38-20.19c11.51-1.01,17.72-6.61,17.72-6.61C78.42,67.91,72.52,63.37,72.52,63.37z M92.68,89.34
		c2.55,6.58,9.37,23.73,9.37,23.73c6.35-12.7,4.53-32.5,4.53-32.5c0.91,14.81-5.44,27.06-5.44,27.06s-4.99-15.72-7.71-21.21
		c-2.72-5.48-7.86-4.64-7.86-4.64S90.13,82.76,92.68,89.34z"/>
	<path class="st0" d="M60.01,110.53c-2.03-6.85,0.06-10.78,0.06-10.78c7.8-5.72,8.63-12.84,8.63-12.84
		c0.26,12.74,5.5,21.47,5.5,21.47C82.52,102.56,87.01,93,87.01,93c-0.17,5.49,1.99,6.76,3.36,8.47c1,1.25,1.58,2.82,1.41,4.42
		c-0.02,0.2-0.05,0.39-0.09,0.58c-0.37,1.78-1.74,3.13-3.36,3.96c-6.54,3.33-6.41,6.48-5.39,8.37c-10.57,4.45-18.95,3.81-22.14,3.66
		C61.01,118.4,60.96,113.74,60.01,110.53z M122.95,176.64c4.89-1.64,7.27-1.96,7.27-1.96s-10.21-46.77-45.75-54.08
		c0,0-9.86,5.4-23.85,4.47c-0.27,3.32-0.64,5.75-0.64,5.75s-9.34,34.33-5.1,56.24c0,0,10.36,4.45,19.12-0.98
		c8.76-5.43,11-4.78,24.85-1.5c13.86,3.28,18.45,3.78,21.27-2.08C122.95,176.64,118.05,178.28,122.95,176.64z"/>
</g>
<g id="Logo2">
</g>
<g id="Logo3">
</g>
<g id="Logo4">
</g>
<g id="Logo5">
</g>
<g id="Logo6">
</g>
<g id="Logo7">
</g>
<g id="Logo8">
</g>
<g id="Logo9">
</g>
<g id="Logo10">
</g>
<g id="Logo11">
</g>
<g id="Logo12">
</g>
<g id="Logo13">
</g>
<g id="Logo14">
</g>
<g id="Logo15">
</g>
</svg>
