<?xml version="1.0" encoding="utf-8"?>
<!-- Generator: Adobe Illustrator 27.8.1, SVG Export Plug-In . SVG Version: 6.00 Build 0)  -->
<svg version="1.1" xmlns="http://www.w3.org/2000/svg" xmlns:xlink="http://www.w3.org/1999/xlink" x="0px" y="0px"
	 viewBox="0 0 350 230" style="enable-background:new 0 0 350 230;" xml:space="preserve">
<style type="text/css">
	.st0{fill:#E4335A;}
	.st1{fill:#005199;}
	.st2{fill:#AD0000;}
	.st3{fill:#00E2E2;}
	.st4{fill:#003F33;}
	.st5{fill:#600068;}
	.st6{fill:#664600;}
	.st7{fill:#DAB038;}
	.st8{fill:#466F85;}
	.st9{fill:#57D4FF;}
	.st10{fill:#99042B;}
	.st11{fill:#BF882F;}
	.st12{fill:#B0C1C1;}
	.st13{fill:#689FC1;}
	.st14{fill:#0035AA;}
	.st15{fill:#CEC1A3;}
	.st16{fill:#AC8746;}
	.st17{fill:#F2EBDD;}
	.st18{fill:#350B00;}
	.st19{fill:#ECC752;}
	.st20{fill:#005468;}
	.st21{stroke:#000000;stroke-width:0.25;stroke-miterlimit:10;}
	.st22{fill:#EFECFF;}
	.st23{fill:#FFDE98;}
	.st24{fill:#5B3F00;}
	.st25{fill:#826834;}
	.st26{fill:none;stroke:#5B3F00;stroke-width:2;stroke-miterlimit:10;}
	.st27{fill:#FFBE00;}
	.st28{fill:#9B8D75;}
	.st29{fill:#FFFFFF;}
	.st30{fill:#FFFF00;}
	.st31{fill:#FFBF00;}
	.st32{fill:#FFA500;}
	.st33{fill:#B7F3F9;}
	.st34{fill:#B78802;}
</style>
<g id="Logo1">
</g>
<g id="Logo2">
</g>
<g id="Logo3">
</g>
<g id="Logo4">
</g>
<g id="Logo5">
</g>
<g id="Logo6">
</g>
<g id="Logo7">
</g>
<g id="Logo8">
</g>
<g id="Logo9">
</g>
<g id="Logo10">
	<g id="OBJECTS">
		<g>
			<path class="st15" d="M138.82,94.03l33.31-56.61l-17.37-25.01L91.88,39.98L72.06,102l27.57,27.56l17.23-40.49l16.37,71.49
				l39.88-33.74L138.82,94.03z"/>
			<path class="st16" d="M195.24,12.42l62.88,27.56L277.94,102l-27.57,27.56l-17.23-40.49l-16.37,71.49l-78.39-66.33L195.24,12.42z"
				/>
			<polygon class="st16" points="116.86,89.08 91.88,39.98 72.06,102 			"/>
			<polygon class="st15" points="233.14,89.08 258.12,39.98 277.94,102 			"/>
			<path class="st17" d="M157.34,91.66c0,3.15-2.55,5.71-5.71,5.71s-5.71-2.56-5.71-5.71c0-3.15,2.55-5.71,5.71-5.71
				S157.34,88.51,157.34,91.66z M220.07,91.66c0-0.63-0.51-1.14-1.14-1.14h-67.29c-0.63,0-1.14,0.51-1.14,1.14s0.51,1.14,1.14,1.14
				h67.29C219.56,92.8,220.07,92.29,220.07,91.66z"/>
		</g>
	</g>
</g>
<g id="Logo11">
</g>
<g id="Logo12">
</g>
<g id="Logo13">
</g>
<g id="Logo14">
</g>
<g id="Logo15">
</g>
</svg>
