<?xml version="1.0" encoding="utf-8"?>
<!-- Generator: Adobe Illustrator 27.8.1, SVG Export Plug-In . SVG Version: 6.00 Build 0)  -->
<svg version="1.1" xmlns="http://www.w3.org/2000/svg" xmlns:xlink="http://www.w3.org/1999/xlink" x="0px" y="0px"
	 viewBox="0 0 350 230" style="enable-background:new 0 0 350 230;" xml:space="preserve">
<style type="text/css">
	.st0{fill:#E4335A;}
	.st1{fill:#005199;}
	.st2{fill:#AD0000;}
	.st3{fill:#00E2E2;}
	.st4{fill:#003F33;}
	.st5{fill:#600068;}
	.st6{fill:#664600;}
	.st7{fill:#DAB038;}
	.st8{fill:#466F85;}
	.st9{fill:#57D4FF;}
	.st10{fill:#99042B;}
	.st11{fill:#BF882F;}
	.st12{fill:#B0C1C1;}
	.st13{fill:#689FC1;}
	.st14{fill:#0035AA;}
	.st15{fill:#CEC1A3;}
	.st16{fill:#AC8746;}
	.st17{fill:#F2EBDD;}
	.st18{fill:#350B00;}
	.st19{fill:#ECC752;}
	.st20{fill:#005468;}
	.st21{stroke:#000000;stroke-width:0.25;stroke-miterlimit:10;}
	.st22{fill:#EFECFF;}
	.st23{fill:#FFDE98;}
	.st24{fill:#5B3F00;}
	.st25{fill:#826834;}
	.st26{fill:none;stroke:#5B3F00;stroke-width:2;stroke-miterlimit:10;}
	.st27{fill:#FFBE00;}
	.st28{fill:#9B8D75;}
	.st29{fill:#FFFFFF;}
	.st30{fill:#FFFF00;}
	.st31{fill:#FFBF00;}
	.st32{fill:#FFA500;}
	.st33{fill:#B7F3F9;}
	.st34{fill:#B78802;}
</style>
<g id="Logo1">
</g>
<g id="Logo2">
</g>
<g id="Logo3">
</g>
<g id="Logo4">
</g>
<g id="Logo5">
</g>
<g id="Logo6">
</g>
<g id="Logo7">
</g>
<g id="Logo8">
</g>
<g id="Logo9">
</g>
<g id="Logo10">
</g>
<g id="Logo11">
	<path class="st18" d="M118.87,123.09l0.24-0.14L118.87,123.09L118.87,123.09z M131.09,67.77l-8.41-6.55
		c-1.92,2.54-3.63,5.23-5.09,8.07l9.55,4.74C128.28,71.83,129.6,69.74,131.09,67.77z M124.96,111.17l-10.09,3.42
		c0.71,1.91,1.52,3.77,2.43,5.59l9.38-5.05C126.05,113.84,125.47,112.52,124.96,111.17z M123.26,84.47l-10.3-2.75
		c-0.64,2.63-1.08,5.32-1.33,8.06l10.63,0.76C122.45,88.48,122.79,86.45,123.26,84.47z M126.3,75.73l-9.55-4.74
		c-1.3,2.74-2.38,5.6-3.22,8.56l10.3,2.75C124.48,80.03,125.31,77.84,126.3,75.73z M150.26,53.03l0.9,5.03l16.08-13.56l0.01-0.19
		l-19.83-7.16l0.93,5.21c-2.38,0.86-4.67,1.87-6.88,3.01l5,9.41C147.7,54.14,148.96,53.56,150.26,53.03z M122.02,95.07
		c0-0.65,0.01-1.29,0.04-1.94l-10.62-0.76c-0.04,0.89-0.07,1.79-0.07,2.7c0,1.94,0.1,3.88,0.3,5.8l10.56-1.38
		C122.09,98.02,122.02,96.55,122.02,95.07z M137.25,61.1l-6.97-8.06c-2.42,2.13-4.65,4.46-6.66,6.96l8.42,6.55
		C133.61,64.59,135.35,62.77,137.25,61.1z M122.62,102.41l-10.56,1.38c0.41,2.6,0.99,5.16,1.76,7.67l10.1-3.42
		C123.36,106.2,122.93,104.32,122.62,102.41z M145.73,55.17l-5-9.41c-3.43,1.85-6.63,4.02-9.56,6.48l6.97,8.07
		C140.47,58.36,143.01,56.64,145.73,55.17z M202.54,123.75l8.02,7.05c1.3-1.57,2.51-3.2,3.63-4.9l-9.06-5.6
		C204.33,121.5,203.45,122.64,202.54,123.75z M161.91,140.17l-1.47,10.56c2.28,0.28,4.58,0.44,6.88,0.44c0.88,0,1.77-0.03,2.66-0.07
		l-0.67-10.64C166.84,140.56,164.36,140.46,161.91,140.17z M190.09,134.37c-0.56,0.32-1.13,0.63-1.7,0.93l4.65,9.58
		c0.8-0.41,1.59-0.83,2.37-1.29c1.68-0.97,3.31-2.03,4.87-3.16l-6.49-8.48C192.6,132.81,191.37,133.63,190.09,134.37z
		 M196.13,130.16l6.49,8.47c2.05-1.65,3.97-3.44,5.76-5.36l-8.02-7.05C199.04,127.63,197.63,128.94,196.13,130.16z M180.29,138.6
		l2.77,10.29c2.59-0.76,5.15-1.72,7.65-2.87l-4.66-9.59C184.16,137.29,182.24,138.01,180.29,138.6z M171.2,140.34l0.67,10.64
		c3.02-0.25,6.04-0.74,9.02-1.49l-2.77-10.29C175.83,139.75,173.52,140.14,171.2,140.34z M143.68,133.79l-5.65,9.04
		c3.32,2.05,6.8,3.72,10.4,5.02l3.5-10.06C149.07,136.74,146.31,135.41,143.68,133.79z M153.05,138.17l-3.5,10.08
		c3.06,1.03,6.19,1.78,9.36,2.27l1.47-10.56C157.9,139.57,155.45,138.97,153.05,138.17z M139.56,130.93l3.9-3.29l-19.79-7.14
		l-0.17,0.09l3.71,20.75l4.05-3.42c1.93,1.63,3.96,3.11,6.04,4.45l5.65-9.03C141.81,132.59,140.67,131.79,139.56,130.93z
		 M215.93,123.08l-0.28-0.16L215.93,123.08C215.93,123.09,215.93,123.09,215.93,123.08z M209.2,77.27l9.88-4.01
		c-1.24-2.93-2.72-5.76-4.45-8.45l-8.88,5.9C207.08,72.81,208.23,75,209.2,77.27z M211.9,85.94l10.47-2
		c-0.64-3.16-1.54-6.26-2.7-9.25l-9.88,4.01C210.69,81.04,211.39,83.47,211.9,85.94z M190.09,55.77c0.56,0.32,1.11,0.66,1.66,1
		l5.97-8.82c-0.75-0.48-1.52-0.96-2.3-1.41c-1.68-0.97-3.41-1.85-5.17-2.64l-4.09,9.84C187.49,54.36,188.81,55.03,190.09,55.77z
		 M198.65,62.14l7.53-7.55c-1.96-1.86-4.07-3.59-6.32-5.19l-5.97,8.83C195.58,59.44,197.17,60.74,198.65,62.14z M204.7,69.14
		l8.88-5.9c-1.73-2.5-3.66-4.86-5.8-7.07l-7.53,7.55C201.88,65.42,203.37,67.23,204.7,69.14z M167.39,39.03v0.27V39.03
		C167.4,39.03,167.4,39.03,167.39,39.03z M183.43,52.61l4.09-9.84c-2.45-0.95-4.97-1.72-7.52-2.31l-2.09,10.45
		C179.78,51.37,181.63,51.93,183.43,52.61z M174.67,50.27l2.09-10.45c-2-0.34-4.03-0.57-6.06-0.69l-0.31,10.65
		C171.82,49.87,173.25,50.04,174.67,50.27z M212.75,97.09c-0.07,1.38-0.19,2.77-0.38,4.15l-4.8-1.73l3.71,20.71l0.16,0.1
		l16.12-13.59l-4.98-1.8c0.45-2.49,0.72-4.98,0.83-7.46L212.75,97.09z M212.79,96.25l10.65,0.38c0.12-3.9-0.16-7.76-0.84-11.52
		l-10.47,2.01C212.65,90.1,212.88,93.16,212.79,96.25z"/>
	<path class="st19" d="M148.8,79.88l5.08-9.42c0.01-0.01,0.02-0.02,0.02-0.03c0.04-0.06,0.08-0.12,0.12-0.17
		c0.01-0.01,0.02-0.03,0.04-0.04c0.06-0.06,0.13-0.12,0.2-0.16c0.02-0.01,0.04-0.02,0.06-0.03c0.06-0.03,0.12-0.06,0.18-0.08
		c0.02-0.01,0.05-0.02,0.08-0.02c0.06-0.02,0.13-0.03,0.2-0.03c0.02,0,0.03-0.01,0.05-0.01c0.01,0,0.01,0,0.02,0
		c0.01,0,0.01,0,0.02,0h24.77c0.01,0,0.01,0,0.02,0c0.01,0,0.01,0,0.02,0c0.02,0,0.03,0.01,0.05,0.01c0.07,0.01,0.14,0.02,0.2,0.03
		c0.03,0.01,0.05,0.01,0.08,0.02c0.06,0.02,0.12,0.05,0.18,0.08c0.02,0.01,0.04,0.02,0.06,0.03c0.07,0.05,0.14,0.1,0.2,0.16
		c0.01,0.01,0.02,0.03,0.04,0.04c0.05,0.05,0.09,0.11,0.12,0.17c0.01,0.01,0.02,0.02,0.02,0.03l5.04,9.34l11.89,2.8l0,0c0,0,0,0,0,0
		l5.63,1.33c-4.75-15.24-18.97-26.31-35.77-26.31c-16.81,0-31.03,11.07-35.77,26.31l5.63-1.33L148.8,79.88z"/>
	<path class="st18" d="M204.75,92.37c-0.15-2.05-0.46-4.06-0.92-6.01l-5.41-1.28l0.08,7.28l0.24,23.21
		c3.87-5.89,6.12-12.94,6.12-20.52C204.86,94.16,204.81,93.26,204.75,92.37z M136.38,85.09l-5.41,1.28
		c-0.46,1.95-0.77,3.95-0.92,6.01c-0.06,0.89-0.11,1.79-0.11,2.7c0,6.82,1.82,13.22,5.01,18.73c0.35,0.61,0.72,1.21,1.11,1.79
		l0.24-23.22L136.38,85.09z M196.17,84.56l-10.56-2.49l-3.84,10.3l-3.32,8.88c-0.13,0.36-0.44,0.62-0.81,0.7
		c-0.08,0.02-0.16,0.02-0.23,0.02c-0.3,0-0.58-0.12-0.79-0.33l-8.25-8.39v5.42c0,0.62-0.5,1.11-1.11,1.11
		c-0.62,0-1.11-0.5-1.11-1.11v-5.42l-8.25,8.39c-0.21,0.21-0.5,0.33-0.79,0.33c-0.08,0-0.16-0.01-0.23-0.02
		c-0.37-0.08-0.68-0.34-0.81-0.7l-3.32-8.88l-3.82-10.23l-10.28,2.42v7.81v26.68c6.62,7.93,16.46,13.09,27.51,13.46v-2.69
		c0-0.62,0.5-1.11,1.11-1.11c0.61,0,1.11,0.5,1.11,1.11v2.69c11.17-0.28,21.13-5.45,27.81-13.45V92.37L196.17,84.56L196.17,84.56z
		 M167.4,126.41c-1.26,0-2.29-1.02-2.29-2.29c0-1.26,1.02-2.29,2.29-2.29c1.26,0,2.29,1.02,2.29,2.29
		C169.68,125.39,168.66,126.41,167.4,126.41z M166.13,118.32v-8.14c0-0.62,0.5-1.11,1.11-1.11c0.61,0,1.11,0.5,1.11,1.11v8.14
		c0,0.62-0.5,1.11-1.11,1.11C166.63,119.44,166.13,118.94,166.13,118.32z M167.4,106.65c-1.26,0-2.29-1.02-2.29-2.29
		s1.02-2.29,2.29-2.29c1.26,0,2.29,1.02,2.29,2.29C169.68,105.63,168.66,106.65,167.4,106.65z M167.25,88.46l5.43-8.57h-10.85
		L167.25,88.46z M160.41,77.67h2.63h8.71h2.33l0.33-0.52l3.2-5.05h-20.72l3.23,5.11L160.41,77.67z M180.75,75.4l-1.11-2.06
		l-0.08-0.14l-1.04,1.64l-1.8,2.84l-0.01,0.02l-0.63,1l-0.06,0.1l-0.57,0.9l-0.14,0.21l-6.65,10.5l1.95,1.98l6.36,6.47l2.41-6.47
		l4.04-10.81l0.27-0.71l-0.23-0.43l-0.71-1.31L180.75,75.4z M159.18,79.9l-0.1-0.15l-0.61-0.96l-0.02-0.03l-0.63-1l-0.05-0.08
		l-1.8-2.84l-1.04-1.64l-0.08,0.14l-1.11,2.06l-2.05,3.8l-0.71,1.31l-0.19,0.34l0.29,0.78l4.01,10.75l2.41,6.47l6.36-6.47l1.95-1.98
		L159.18,79.9z"/>
</g>
<g id="Logo12">
</g>
<g id="Logo13">
</g>
<g id="Logo14">
</g>
<g id="Logo15">
</g>
</svg>
