<?xml version="1.0" encoding="utf-8"?>
<!-- Generator: Adobe Illustrator 27.8.1, SVG Export Plug-In . SVG Version: 6.00 Build 0)  -->
<svg version="1.1" xmlns="http://www.w3.org/2000/svg" xmlns:xlink="http://www.w3.org/1999/xlink" x="0px" y="0px"
	 viewBox="0 0 350 230" style="enable-background:new 0 0 350 230;" xml:space="preserve">
<style type="text/css">
	.st0{fill:#E4335A;}
	.st1{fill:#005199;}
	.st2{fill:#AD0000;}
	.st3{fill:#00E2E2;}
	.st4{fill:#003F33;}
	.st5{fill:#600068;}
	.st6{fill:#664600;}
	.st7{fill:#DAB038;}
	.st8{fill:#466F85;}
	.st9{fill:#57D4FF;}
	.st10{fill:#99042B;}
	.st11{fill:#BF882F;}
	.st12{fill:#B0C1C1;}
	.st13{fill:#689FC1;}
	.st14{fill:#0035AA;}
	.st15{fill:#CEC1A3;}
	.st16{fill:#AC8746;}
	.st17{fill:#F2EBDD;}
	.st18{fill:#350B00;}
	.st19{fill:#ECC752;}
	.st20{fill:#005468;}
	.st21{stroke:#000000;stroke-width:0.25;stroke-miterlimit:10;}
	.st22{fill:#EFECFF;}
	.st23{fill:#FFDE98;}
	.st24{fill:#5B3F00;}
	.st25{fill:#826834;}
	.st26{fill:none;stroke:#5B3F00;stroke-width:2;stroke-miterlimit:10;}
	.st27{fill:#FFBE00;}
	.st28{fill:#9B8D75;}
	.st29{fill:#FFFFFF;}
	.st30{fill:#FFFF00;}
	.st31{fill:#FFBF00;}
	.st32{fill:#FFA500;}
	.st33{fill:#B7F3F9;}
	.st34{fill:#B78802;}
</style>
<g id="Logo1">
</g>
<g id="Logo2">
</g>
<g id="Logo3">
</g>
<g id="Logo4">
</g>
<g id="Logo5">
</g>
<g id="Logo6">
</g>
<g id="Logo7">
</g>
<g id="Logo8">
</g>
<g id="Logo9">
</g>
<g id="Logo10">
</g>
<g id="Logo11">
</g>
<g id="Logo12">
	<g>
		<path class="st20" d="M186.41,88.21c2.11,3.95,2.33,7.83,1.32,12.02c-0.49-0.1-0.94-0.15-1.36-0.29
			c-1.47-0.49-3.04-0.82-4.39-1.54c-3.68-1.97-7.59-1.42-11.47-1.3c-0.53,0.02-1.06,0.35-1.59,0.54c-2.5,0.92-4.99,1.85-7.65,2.83
			c-1.04-4.38-0.85-8.29,1.34-12.41c2.22,1.32,4.37,2.52,6.42,3.87c0.94,0.62,1.85,0.89,2.98,0.98c4.05,0.31,7.8-0.14,11.01-2.99
			C183.9,89.14,185.17,88.81,186.41,88.21z M191.94,88.3c-0.24,3.66-0.43,7.32-0.74,10.97c-0.07,0.8-0.35,1.67-0.79,2.34
			c-5.02,7.58-10.1,15.12-15.16,22.67c-0.23,0.34-0.49,0.66-0.79,1.05c-0.34-0.47-0.62-0.84-0.88-1.22
			c-4.7-7-9.35-14.03-14.13-20.98c-1.23-1.79-1.87-3.61-1.93-5.75c-0.08-3.04-0.33-6.08-0.53-9.54c-0.39,0.77-0.64,1.15-0.79,1.57
			c-1.38,3.95-2.73,7.92-4.13,11.86c-0.36,1.02-0.22,1.83,0.38,2.75c6.93,10.66,13.82,21.35,20.72,32.04
			c1.09,1.68,1.48,1.69,2.55,0.02c6.52-10.09,12.96-20.23,19.61-30.23c1.51-2.26,1.94-4.22,0.93-6.74
			c-1.44-3.61-2.63-7.31-3.93-10.97C192.22,88.2,192.08,88.25,191.94,88.3z M174.86,98.85c0.42,0.62,1.12,1.21,1.21,1.88
			c0.14,1.01-0.6,1.68-1.65,1.64c-1.05-0.04-1.75-0.73-1.52-1.75c0.15-0.66,0.85-1.2,1.31-1.79
			C174.42,98.84,174.64,98.84,174.86,98.85z M174.2,110.09c-0.46-0.59-1.16-1.12-1.31-1.77c-0.22-1.01,0.47-1.71,1.52-1.74
			c1.06-0.04,1.79,0.63,1.66,1.63c-0.09,0.66-0.79,1.24-1.21,1.86C174.64,110.08,174.42,110.09,174.2,110.09z M174.04,118.12
			c-0.31-0.41-1.01-0.96-1.15-1.62c-0.22-1.03,0.52-1.69,1.55-1.72c0.97-0.03,1.62,0.56,1.67,1.54
			C176.17,117.36,175.55,117.94,174.04,118.12z"/>
		<path class="st21" d="M158.71,73.44c2.27,2.91,3.53,3.01,6.12,0.76c0.68-0.59,1.33-1.21,2.04-1.75c2.27-1.7,4.24-1.61,6.39,0.24
			c0.39,0.34,0.76,0.7,1.19,1.11c0.45-0.41,0.89-0.83,1.35-1.22c2.05-1.72,4.02-1.8,6.17-0.21c0.76,0.56,1.44,1.22,2.16,1.83
			c2.62,2.23,3.75,2.14,5.92-0.47c0.42,2.09-0.74,4.38-2.91,5.72c-3.36,2.08-7.96,1.84-11.18-0.61c-0.49-0.37-0.94-0.78-1.47-1.23
			c-3.63,3.38-7.74,4.32-12.27,2.05C159.84,78.48,158.65,76.43,158.71,73.44z M134.13,61.76c-1.57,1.93-3.01,3.97-4.29,6.1
			l-0.12-0.36l0.65,0.26l-0.32,0.1c1.28-2.16,2.71-4.23,4.29-6.19l0.44,0.36c-1.58,1.92-3.01,3.96-4.29,6.09l-0.11,0.19l-0.21-0.09
			l-0.63-0.26l-0.27-0.11l0.15-0.25c1.27-2.17,2.69-4.25,4.26-6.21L134.13,61.76z M146.07,51.88c2.12-1.39,4.35-2.62,6.65-3.67
			c2.3-1.07,4.69-1.91,7.12-2.6l-0.37-1.24c-2.47,0.8-4.85,1.8-7.18,2.93c-2.32,1.14-4.55,2.45-6.67,3.92L146.07,51.88z
			 M174.77,43.79c5.01,0.17,9.99,1.09,14.7,2.69l0.83-2.64c-5.05-1.45-10.3-2.15-15.51-2.05L174.77,43.79z M202.63,53.31
			c2,1.45,3.87,3.06,5.65,4.76c1.77,1.71,3.41,3.55,4.91,5.5l3.2-2.54c-1.68-2.06-3.52-3.99-5.48-5.77
			c-1.96-1.79-4.08-3.39-6.29-4.85L202.63,53.31z M220.39,76.35c1.75,4.57,2.84,9.39,3.23,14.26l4.46-0.33
			c-0.37-5.33-1.6-10.59-3.6-15.53L220.39,76.35z M222.59,105.21c-1.03,4.8-2.8,9.42-5.15,13.74l3.42,1.96
			c2.75-4.55,4.72-9.57,5.95-14.75L222.59,105.21z M208.5,130.67c-3.55,3.44-7.63,6.37-12.06,8.64l1.24,2.53
			c4.76-2.22,9.21-5.16,13.13-8.7L208.5,130.67z M182.31,144.07c-2.46,0.43-4.96,0.7-7.47,0.74c-2.51,0.04-5.02-0.1-7.52-0.42
			l-0.25,1.78c5.14,0.79,10.41,0.82,15.59,0.12L182.31,144.07z M152.88,140.19c-4.57-2.12-8.82-4.94-12.52-8.36l-1.03,1.14
			c3.85,3.48,8.2,6.41,12.89,8.65L152.88,140.19z M130.9,120.12c-2.52-4.35-4.43-9.06-5.52-13.96l-1.93,0.47
			c1.32,5.04,3.31,9.9,6.01,14.35L130.9,120.12z M124.31,91.18l0.47-3.63c0.08-0.6,0.13-1.21,0.28-1.81l0.37-1.79l0.24-1.18
			l-1.15-0.37l-0.34-0.11L124,82.23c-0.04-0.02-0.17-0.04-0.25-0.06l-1.31-0.31l-0.27,1.35l-0.38,1.89c-0.15,0.63-0.21,1.26-0.3,1.9
			l-0.5,3.82l2.95,0.19l0.35-3.63c0.06-0.61,0.1-1.22,0.22-1.81l0.31-1.8l-1.59,1.04c0.03,0.01,0.01-0.01,0.07,0.02l0.14,0.04
			l0.28,0.08l-0.91-1.55l-0.33,1.89c-0.13,0.63-0.16,1.27-0.23,1.91l-0.38,3.82L124.31,91.18z M122.05,106.77
			c1.14,5.24,3.11,10.31,5.79,14.97l3.39-1.99c-2.57-4.28-4.52-8.94-5.78-13.79L122.05,106.77z M137.82,134.39
			c3.93,3.7,8.44,6.81,13.33,9.15l1.96-4.14c-4.49-2.1-8.68-4.85-12.38-8.17L137.82,134.39z M166.63,148.29
			c5.36,0.81,10.85,0.83,16.23,0.03l-0.77-4.94c-4.87,0.79-9.87,0.84-14.78,0.17L166.63,148.29z M198.4,143.55
			c4.91-2.35,9.47-5.44,13.46-9.16l-3.63-3.89c-3.6,3.35-7.69,6.19-12.1,8.38L198.4,143.55z M222,121.64
			c2.73-4.72,4.7-9.88,5.87-15.2l-5.13-1.16c-1.12,4.8-2.95,9.42-5.38,13.69L222,121.64z M229.01,90.22
			c-0.42-5.43-1.68-10.78-3.74-15.81l-4.49,1.76c1.74,4.63,2.81,9.5,3.15,14.42L229.01,90.22z M217,60.5
			c-3.44-4.17-7.48-7.83-12-10.74l-2.1,3.05c4.04,2.95,7.66,6.45,10.67,10.41L217,60.5z M190.44,43.15
			c-5.13-1.45-10.46-2.12-15.75-2.01l-0.01,2.09c5.08,0.16,10.12,1.07,14.9,2.69L190.44,43.15z M159.15,43.76
			c-4.99,1.65-9.74,3.98-14.03,6.96l0.47,0.7c4.31-2.81,9.02-4.99,13.96-6.36L159.15,43.76z"/>
	</g>
</g>
<g id="Logo13">
</g>
<g id="Logo14">
</g>
<g id="Logo15">
</g>
</svg>
