<?xml version="1.0" encoding="utf-8"?>
<!-- Generator: Adobe Illustrator 27.8.1, SVG Export Plug-In . SVG Version: 6.00 Build 0)  -->
<svg version="1.1" xmlns="http://www.w3.org/2000/svg" xmlns:xlink="http://www.w3.org/1999/xlink" x="0px" y="0px"
	 viewBox="0 0 350 230" style="enable-background:new 0 0 350 230;" xml:space="preserve">
<style type="text/css">
	.st0{fill:#E4335A;}
	.st1{fill:#005199;}
	.st2{fill:#AD0000;}
	.st3{fill:#00E2E2;}
	.st4{fill:#003F33;}
	.st5{fill:#600068;}
	.st6{fill:#664600;}
	.st7{fill:#DAB038;}
	.st8{fill:#466F85;}
	.st9{fill:#57D4FF;}
	.st10{fill:#99042B;}
	.st11{fill:#BF882F;}
	.st12{fill:#B0C1C1;}
	.st13{fill:#689FC1;}
	.st14{fill:#0035AA;}
	.st15{fill:#CEC1A3;}
	.st16{fill:#AC8746;}
	.st17{fill:#F2EBDD;}
	.st18{fill:#350B00;}
	.st19{fill:#ECC752;}
	.st20{fill:#005468;}
	.st21{stroke:#000000;stroke-width:0.25;stroke-miterlimit:10;}
	.st22{fill:#EFECFF;}
	.st23{fill:#FFDE98;}
	.st24{fill:#5B3F00;}
	.st25{fill:#826834;}
	.st26{fill:none;stroke:#5B3F00;stroke-width:2;stroke-miterlimit:10;}
	.st27{fill:#FFBE00;}
	.st28{fill:#9B8D75;}
	.st29{fill:#FFFFFF;}
	.st30{fill:#FFFF00;}
	.st31{fill:#FFBF00;}
	.st32{fill:#FFA500;}
	.st33{fill:#B7F3F9;}
	.st34{fill:#B78802;}
</style>
<g id="Logo1">
</g>
<g id="Logo2">
</g>
<g id="Logo3">
</g>
<g id="Logo4">
</g>
<g id="Logo5">
</g>
<g id="Logo6">
</g>
<g id="Logo7">
</g>
<g id="Logo8">
</g>
<g id="Logo9">
</g>
<g id="Logo10">
</g>
<g id="Logo11">
</g>
<g id="Logo12">
</g>
<g id="Logo13">
	<g>
		<path class="st22" d="M233.98,104.32c0,34.13-27.67,61.81-61.81,61.81c-34.13,0-61.81-27.67-61.81-61.81s27.67-61.81,61.81-61.81
			C206.31,42.52,233.98,70.19,233.98,104.32z M117.57,54.25c-2.79,0-5.06,2.27-5.06,5.06c0,2.79,2.27,5.06,5.06,5.06
			c2.79,0,5.06-2.27,5.06-5.06C122.63,56.52,120.36,54.25,117.57,54.25z M234.88,134.37c-2.79,0-5.06,2.27-5.06,5.06
			s2.27,5.06,5.06,5.06c2.79,0,5.06-2.27,5.06-5.06S237.67,134.37,234.88,134.37z M129.58,48.46c-1.35,0-2.44,1.09-2.44,2.44
			s1.09,2.44,2.44,2.44s2.44-1.09,2.44-2.44S130.93,48.46,129.58,48.46z M112.51,135.8c-1.35,0-2.44,1.09-2.44,2.44
			c0,1.35,1.09,2.44,2.44,2.44c1.35,0,2.44-1.09,2.44-2.44C114.95,136.89,113.85,135.8,112.51,135.8z M231.54,68.38
			c-1.35,0-2.44,1.09-2.44,2.44c0,1.35,1.09,2.44,2.44,2.44c1.35,0,2.44-1.09,2.44-2.44C233.98,69.48,232.88,68.38,231.54,68.38z
			 M233.98,149.91c-1.35,0-2.44,1.09-2.44,2.44c0,1.35,1.09,2.44,2.44,2.44c1.35,0,2.44-1.09,2.44-2.44
			C236.42,151.01,235.33,149.91,233.98,149.91z M173.92,35.04c-1.35,0-2.44,1.09-2.44,2.44s1.09,2.44,2.44,2.44
			c1.35,0,2.44-1.09,2.44-2.44S175.27,35.04,173.92,35.04z M206.34,159.2c-1.79,0-3.23,1.45-3.23,3.23c0,1.79,1.45,3.23,3.23,3.23
			c1.79,0,3.23-1.45,3.23-3.23C209.57,160.65,208.12,159.2,206.34,159.2z"/>
		<g>
			<path class="st23" d="M149.58,61.62c-0.58,0-1.04-0.47-1.04-1.04V49.13c0-11.5,9.35-20.85,20.85-20.85
				c11.5,0,20.85,9.35,20.85,20.85v5.27c0,0.58-0.47,1.04-1.04,1.04s-1.04-0.47-1.04-1.04v-5.27c0-10.35-8.42-18.76-18.76-18.76
				c-10.35,0-18.76,8.42-18.76,18.76v11.45C150.63,61.15,150.16,61.62,149.58,61.62z"/>
			<path class="st24" d="M217.37,62.16l9.37,88.05c0.4,3.72-2.52,6.97-6.27,6.97h-96.61c-3.74,0-6.66-3.25-6.27-6.97l9.37-88.05
				c0.34-3.2,3.04-5.63,6.27-5.63h77.87C214.33,56.53,217.03,58.96,217.37,62.16z"/>
			<path class="st25" d="M143.28,157.18h-19.41c-3.74,0-6.66-3.25-6.27-6.97l9.37-88.05c0.34-3.2,3.04-5.63,6.27-5.63h0.67
				c3.22,0,5.93,2.43,6.27,5.63l9.37,88.05C149.94,153.93,147.03,157.18,143.28,157.18z M200.34,56.53l-7.77,22.98l-9.51-6.15
				l-0.27-2.54h-3.67l11.74-21.59l1.93-0.01c1.59-0.01,3.08,0.76,3.98,2.08L200.34,56.53z M179.13,70.82l-3.75,2.42l-9.7,6.27
				l-14.32-22.98l3.2-4.69c1.13-1.65,3.01-2.64,5.02-2.62l0.8,0.01L179.13,70.82z M214.57,104.13h-19.91l-0.56-5h19.91
				L214.57,104.13z M179.13,70.82l-3.75,2.42l-0.25-2.42H179.13z M183.06,73.37l-0.27-2.54h-3.67l-3.75,2.42l8.91,83.93h7.68
				L183.06,73.37z"/>
			<path class="st26" d="M198.17,58.23c0,1.12-0.91,2.04-2.04,2.04c-1.12,0-2.04-0.91-2.04-2.04c0-1.12,0.91-2.04,2.04-2.04
				C197.26,56.19,198.17,57.11,198.17,58.23z M156.52,56.19c-1.12,0-2.04,0.92-2.04,2.04c0,1.12,0.92,2.04,2.04,2.04
				c1.12,0,2.04-0.91,2.04-2.04C158.56,57.11,157.65,56.19,156.52,56.19z"/>
			<path class="st27" d="M196.13,59.27c-0.58,0-1.04-0.47-1.04-1.04v-9.1c0-10.35-8.42-18.76-18.76-18.76
				c-10.35,0-18.76,8.42-18.76,18.76v9.1c0,0.58-0.47,1.04-1.04,1.04c-0.58,0-1.04-0.47-1.04-1.04v-9.1
				c0-11.5,9.35-20.85,20.85-20.85s20.85,9.35,20.85,20.85v9.1C197.18,58.81,196.71,59.27,196.13,59.27z"/>
			<path class="st28" d="M159.64,49.24h33.1c1.07,0,1.68,1.22,1.04,2.08l-14.65,19.51l-20.39-19.34
				C157.89,50.67,158.46,49.24,159.64,49.24z M133.98,57.35h-0.82v92.4h0.82V57.35z M147.45,154.43c-0.03,0.04-0.06,0.08-0.09,0.12
				c-1.04,1.15-2.52,1.82-4.08,1.82h-19.41c-1.47,0-2.87-0.6-3.9-1.64l13.6-6.37L147.45,154.43z"/>
			<path class="st29" d="M181.17,74.89c0,0.89-0.72,1.6-1.6,1.6s-1.6-0.72-1.6-1.6c0-0.89,0.72-1.6,1.6-1.6S181.17,74,181.17,74.89z
				 M183.4,110.72c-0.89,0-1.6,0.72-1.6,1.6c0,0.89,0.72,1.6,1.6,1.6s1.6-0.72,1.6-1.6C185,111.43,184.28,110.72,183.4,110.72z
				 M187.41,148.15c-0.89,0-1.6,0.72-1.6,1.6s0.72,1.6,1.6,1.6s1.6-0.72,1.6-1.6S188.3,148.15,187.41,148.15z M182.13,62.04
				l-0.54-5.1h-7.67l0.56,5.23c0.03,0.33,0.31,0.57,0.64,0.57h6.38C181.87,62.75,182.17,62.42,182.13,62.04z"/>
		</g>
	</g>
</g>
<g id="Logo14">
</g>
<g id="Logo15">
</g>
</svg>
