<?xml version="1.0" encoding="utf-8"?>
<!-- Generator: Adobe Illustrator 27.8.1, SVG Export Plug-In . SVG Version: 6.00 Build 0)  -->
<svg version="1.1" xmlns="http://www.w3.org/2000/svg" xmlns:xlink="http://www.w3.org/1999/xlink" x="0px" y="0px"
	 viewBox="0 0 350 230" style="enable-background:new 0 0 350 230;" xml:space="preserve">
<style type="text/css">
	.st0{fill:#E4335A;}
	.st1{fill:#005199;}
	.st2{fill:#AD0000;}
	.st3{fill:#00E2E2;}
	.st4{fill:#003F33;}
	.st5{fill:#600068;}
	.st6{fill:#664600;}
	.st7{fill:#DAB038;}
	.st8{fill:#466F85;}
	.st9{fill:#57D4FF;}
	.st10{fill:#99042B;}
	.st11{fill:#BF882F;}
	.st12{fill:#B0C1C1;}
	.st13{fill:#689FC1;}
	.st14{fill:#0035AA;}
	.st15{fill:#CEC1A3;}
	.st16{fill:#AC8746;}
	.st17{fill:#F2EBDD;}
	.st18{fill:#350B00;}
	.st19{fill:#ECC752;}
	.st20{fill:#005468;}
	.st21{stroke:#000000;stroke-width:0.25;stroke-miterlimit:10;}
	.st22{fill:#EFECFF;}
	.st23{fill:#FFDE98;}
	.st24{fill:#5B3F00;}
	.st25{fill:#826834;}
	.st26{fill:none;stroke:#5B3F00;stroke-width:2;stroke-miterlimit:10;}
	.st27{fill:#FFBE00;}
	.st28{fill:#9B8D75;}
	.st29{fill:#FFFFFF;}
	.st30{fill:#FFFF00;}
	.st31{fill:#FFBF00;}
	.st32{fill:#FFA500;}
	.st33{fill:#B7F3F9;}
	.st34{fill:#B78802;}
</style>
<g id="Logo1">
</g>
<g id="Logo2">
</g>
<g id="Logo3">
</g>
<g id="Logo4">
</g>
<g id="Logo5">
</g>
<g id="Logo6">
</g>
<g id="Logo7">
</g>
<g id="Logo8">
</g>
<g id="Logo9">
</g>
<g id="Logo10">
</g>
<g id="Logo11">
</g>
<g id="Logo12">
</g>
<g id="Logo13">
</g>
<g id="Logo14">
	<g>
		<path class="st30" d="M234.61,93.57h-18.45v44.81h-61.89v-13.31h41.44V80.25h18.45c-4.55-10.28-9.09-20.56-13.64-30.84
			c5.82,0.59,11.06,1.47,15.63,2.43C222.31,65.75,228.46,79.66,234.61,93.57z"/>
		<path class="st31" d="M214.17,80.25h-18.45v44.81h-41.44v-31.5h-18.45l18.45-41.72c5.97-1.25,13.06-2.36,21.08-2.89
			c0.17,5.3,4.52,9.54,9.86,9.54c5.34,0,9.69-4.24,9.86-9.54c1.87,0.12,3.68,0.28,5.45,0.46C205.08,59.69,209.62,69.97,214.17,80.25
			z"/>
		<path class="st32" d="M200.53,49.42c-1.76-0.18-3.58-0.33-5.45-0.46c-0.17,5.3-4.52,9.54-9.86,9.54c-5.34,0-9.69-4.24-9.86-9.54
			c-8.02,0.52-15.11,1.63-21.08,2.89l-18.45,41.72h18.45v31.5h-20.45V80.25h-18.45l18.45-41.72c5.97-1.25,13.06-2.36,21.08-2.89
			c0.17,5.3,4.52,9.54,9.86,9.54c5.34,0,9.69-4.24,9.86-9.54c8.03,0.53,15.13,1.64,21.08,2.89
			C197.32,42.16,198.93,45.79,200.53,49.42z"/>
	</g>
</g>
<g id="Logo15">
</g>
</svg>
