<?xml version="1.0" encoding="utf-8"?>
<!-- Generator: Adobe Illustrator 27.8.1, SVG Export Plug-In . SVG Version: 6.00 Build 0)  -->
<svg version="1.1" xmlns="http://www.w3.org/2000/svg" xmlns:xlink="http://www.w3.org/1999/xlink" x="0px" y="0px"
	 viewBox="0 0 350 230" style="enable-background:new 0 0 350 230;" xml:space="preserve">
<style type="text/css">
	.st0{fill:#E4335A;}
	.st1{fill:#005199;}
	.st2{fill:#AD0000;}
	.st3{fill:#00E2E2;}
	.st4{fill:#003F33;}
	.st5{fill:#600068;}
	.st6{fill:#664600;}
	.st7{fill:#DAB038;}
	.st8{fill:#466F85;}
	.st9{fill:#57D4FF;}
	.st10{fill:#99042B;}
	.st11{fill:#BF882F;}
	.st12{fill:#B0C1C1;}
	.st13{fill:#689FC1;}
	.st14{fill:#0035AA;}
	.st15{fill:#CEC1A3;}
	.st16{fill:#AC8746;}
	.st17{fill:#F2EBDD;}
	.st18{fill:#350B00;}
	.st19{fill:#ECC752;}
	.st20{fill:#005468;}
	.st21{stroke:#000000;stroke-width:0.25;stroke-miterlimit:10;}
	.st22{fill:#EFECFF;}
	.st23{fill:#FFDE98;}
	.st24{fill:#5B3F00;}
	.st25{fill:#826834;}
	.st26{fill:none;stroke:#5B3F00;stroke-width:2;stroke-miterlimit:10;}
	.st27{fill:#FFBE00;}
	.st28{fill:#9B8D75;}
	.st29{fill:#FFFFFF;}
	.st30{fill:#FFFF00;}
	.st31{fill:#FFBF00;}
	.st32{fill:#FFA500;}
	.st33{fill:#B7F3F9;}
	.st34{fill:#B78802;}
</style>
<g id="Logo1">
</g>
<g id="Logo2">
</g>
<g id="Logo3">
</g>
<g id="Logo4">
</g>
<g id="Logo5">
</g>
<g id="Logo6">
</g>
<g id="Logo7">
</g>
<g id="Logo8">
</g>
<g id="Logo9">
</g>
<g id="Logo10">
</g>
<g id="Logo11">
</g>
<g id="Logo12">
</g>
<g id="Logo13">
</g>
<g id="Logo14">
</g>
<g id="Logo15">
	<g>
		<path class="st33" d="M222.98,87.2c-2.74-4.7-6.02-8.98-10.25-12.65c2.62-1.33,3.2-3.04,2.05-5.5c-0.53-1.12-1.25-2.11-2.05-3.05
			c-0.44-0.52-0.65-1.05-0.5-1.75c0.74-3.51,0.71-7.07,0.5-10.61c-0.55-9.31-4.13-17.18-11.44-23.14
			c-6.06-4.94-13.21-6.93-20.88-7.35c-0.81-0.04-1.44-0.26-2.06-0.83c-1.67-1.55-4.18-2-5.74-0.56c-1.42,1.31-2.94,1.37-4.58,1.53
			c-1.13,0.11-2.26,0.23-3.39,0.4c-14.06,2.1-24.41,11.88-26.98,25.84c-0.88,4.81-0.97,9.75-1.73,14.6c-0.39,2.5,1.2,4.31,3.61,4.86
			c0.5,0.11,1.32-0.27,1.4,0.67c0.07,0.8,0.13,1.52-0.67,2.18c-3.35,2.76-6.31,5.89-9,9.3c-16.37,20.8-15.87,50.43,0.93,70.75
			c18.32,22.16,50.42,26.38,74.45,10.1C231.46,145.18,237.41,111.93,222.98,87.2z M214.24,79.02c0.29,0.29,0.29,0.65,0.19,1.02
			c-0.24,0.93-0.68,1.77-1.21,2.57c-0.32,0.48-0.64,0.58-1.05,0.07c-0.86-1.06-1.96-1.75-3.3-2.04c-0.64-0.14-0.59-0.54-0.53-1.02
			c0.22-1.66,0.43-3.33,0.67-5.28C211,75.88,212.64,77.42,214.24,79.02z M147.8,95.93c4.58,3.26,9.65,2.94,14.74,2.3
			c3.18-0.4,5.56-2.04,7.16-4.87c1.19-2.12,1.95-4.4,2.74-6.68c0.35-1.02,0.91-1.77,2.02-2c1.41-0.29,2.54,0.3,3.01,1.67
			c0.77,2.24,1.42,4.51,2.59,6.59c1.77,3.16,4.39,5.01,8.02,5.43c3.14,0.37,6.26,0.31,9.36-0.36c1.75-0.37,3.36-1.05,4.93-2.47
			c-0.02,4.59-0.2,8.87-1.87,12.93c-2.86,6.97-7.11,13.03-12.64,18.09c-7.27,6.65-16.35,7.14-24.16,1.14
			c-7.16-5.5-12.25-12.64-14.92-21.35c-0.98-3.2-1.1-6.54-1.12-9.87C147.66,96.33,147.74,96.17,147.8,95.93z M146.95,81.39
			c0.37-2.94,1.54-4.01,4.49-4.39c2.12-0.27,4.26-0.31,6.4-0.28c2.64,0.06,5.27,0.2,7.84,0.87c3.36,0.88,4.62,2.54,4.39,6.01
			c-0.17,2.7-0.81,5.31-1.9,7.78c-1.17,2.65-3.2,4.25-6.11,4.64c-2.99,0.4-5.98,0.43-8.96-0.15c-2.53-0.49-4.3-1.87-5.06-4.4
			C147.05,88.18,146.52,84.82,146.95,81.39z M201.91,91.68c-0.56,1.94-1.87,3.21-3.8,3.77c-3.65,1.06-7.36,1.09-11.08,0.41
			c-1.53-0.28-2.86-1.09-3.76-2.32c-2.61-3.6-3.74-7.63-3.01-12.09c0.33-2,1.55-3.18,3.51-3.73c2.97-0.84,6.02-0.87,8.91-0.97
			c2.33,0.13,4.52,0.02,6.68,0.45c2.51,0.5,3.61,1.71,3.83,4.25C203.5,84.95,202.88,88.34,201.91,91.68z M198.08,74.68
			c-4.7-0.38-9.36-0.35-13.99,0.64c-2.26,0.49-4.19,1.47-5.54,3.43c-0.17,0.25-0.32,0.6-0.69,0.6c-1.77,0.02-3.55,0.01-5.32,0.02
			c-0.31,0-0.49-0.19-0.65-0.43c-1.64-2.33-4.07-3.29-6.72-3.79c-4.87-0.92-9.78-0.96-14.68-0.31c-2.75,0.36-4.92,1.6-5.73,4.51
			c-0.09,0.33-0.11,0.82-0.59,0.8c-0.6-0.02-0.48-0.58-0.53-0.94c-0.45-3.07-0.53-6.16-0.55-9.25c-0.01-0.58,0.15-0.91,0.79-1.02
			c7.21-1.24,14.28-3.27,21.57-4.12c13.92-1.62,27.33-0.18,39.93,6.41c1.04,0.55,1.49,1.08,1.32,2.29
			c-0.29,2.14-0.29,4.32-0.91,6.52C204.74,75.97,201.69,74.97,198.08,74.68z M145.84,95.83c-0.08,0.64-0.24,1.29-0.94,1.53
			c-0.65,0.23-1.16-0.15-1.56-0.58c-2.57-2.73-4.08-5.95-4.42-9.08c-0.04-3.33,1.43-5.04,3.72-4.99c0.75,0.02,1.16,0.25,1.27,1.06
			c0.44,3.24,1.02,6.45,1.81,9.62C145.91,94.18,145.94,95.01,145.84,95.83z M204.35,93.1c0.73-3.1,1.43-6.2,1.86-9.36
			c0.11-0.82,0.54-1.04,1.29-1.03c2.37,0.02,3.77,1.69,3.65,5.02c-0.25,2.89-1.54,5.93-3.82,8.55c-0.32,0.37-0.73,0.7-1.15,0.95
			c-0.94,0.57-1.56,0.31-1.81-0.75C204.09,95.36,204.09,94.22,204.35,93.1z M141.11,44.74c4.06-10.71,12.1-16.6,23.09-18.83
			c2.19-0.45,4.42-0.61,6.65-0.64c0.93-0.01,1.56-0.28,2.12-1.13c1.04-1.6,3.06-1.61,4.05,0.03c0.61,1.01,1.36,1.14,2.35,1.16
			c7.71,0.19,14.85,2.14,20.9,7.14c6.07,5.01,9.19,11.62,10.05,19.35c0.25,2.21,0.27,4.45,0.37,6.68c0.06,1.41-0.12,2.8-0.44,4.14
			c-0.34,0.07-0.49-0.12-0.63-0.29c-6.18-7.23-14.12-11.53-23.28-13.59c-13.83-3.1-27.47-2.23-40.85,2.47
			c-2.15,0.76-4.05,2.02-6.29,3.35C139.27,51,139.95,47.81,141.11,44.74z M140.3,66.95c-1.71-0.35-2.51-1.28-2.27-2.98
			c0.28-2.02,0.75-4.02,1.13-6.03c0.17-0.9,0.87-1.34,1.55-1.8c4.23-2.86,8.97-4.37,13.91-5.36c5.24-1.04,10.52-1.57,15.02-1.54
			c9.79-0.05,18.44,1.3,26.53,5.33c6.86,3.42,12.07,8.67,16.43,14.85c0.1,0.15,0.19,0.31,0.27,0.47c0.36,0.74,0.82,1.54,0.14,2.28
			c-0.75,0.82-1.53,0.22-2.21-0.19c-5.58-3.42-11.46-6.15-17.79-7.85c-10.16-2.72-20.41-2.59-30.73-0.99
			c-5.85,0.91-11.58,2.4-17.38,3.54C143.39,66.98,141.85,67.27,140.3,66.95z M136.13,78.74c1.38-1.6,2.88-3.09,4.7-4.51
			c0.22,1.93,0.4,3.6,0.62,5.26c0.09,0.64-0.06,0.97-0.74,1.18c-1.29,0.39-2.35,1.18-3.04,2.36c-0.39,0.66-0.74,0.62-1.26,0.13
			C134.81,81.64,134.7,80.39,136.13,78.74z M151.62,128.91c-1.74,2.78-1.91,6.05-2.22,9.2c-0.77,7.83-0.24,15.63,0.96,23.39
			c0.11,0.71,0.21,1.42,0.36,2.45c-5.54-2.89-10.23-6.34-14.36-10.57c-4.08-4.18-7.21-9-9.76-14.23c-0.39-0.81-0.34-1.13,0.61-1.4
			c2.8-0.79,5.57-1.67,8.34-2.59c4.22-1.39,7.87-3.72,11.11-6.75c1.78-1.66,3.5-3.4,5.81-5.02
			C152.31,125.49,152.69,127.2,151.62,128.91z M177.64,169.6c-0.9-0.08-1.82-0.01-2.72-0.01c-1.29-0.11-3.02,0.62-3.77-0.33
			c-0.67-0.86,0.23-2.41,0.46-3.66c0.51-2.86,1-5.73,1.66-8.56c0.4-1.72,0.26-3.25-0.46-4.87c-1.35-3.04-1.27-3.06,1.48-4.79
			c0.63-0.4,1.1-0.42,1.72,0c3.14,2.13,2.95,1.05,1.46,4.49c-0.83,1.92-1.07,3.73-0.63,5.78c0.76,3.5,1.29,7.06,1.99,10.58
			C179.04,169.33,178.75,169.69,177.64,169.6z M194.73,132.08c-0.41,1.29-1.17,2.35-2.16,3.26c-4.59,4.22-10.02,7.03-15.79,9.24
			c-0.9,0.34-1.83,0.5-2.8,0.16c-5.57-1.96-10.84-4.45-15.37-8.33c-2.7-2.31-4-5.22-3.94-8.76c0.03-1.85,0.01-3.7,0.01-5.55
			c2.06,2.1,3.91,4.14,5.96,6.02c9.19,8.44,21.72,7.62,30.2-1.41c1.45-1.54,2.8-3.17,4.47-5.06
			C195.21,125.37,195.8,128.76,194.73,132.08z M200.64,163.13c-0.36,0.19-0.73,0.34-1.22,0.57c-0.11-1.14,0.21-2.13,0.37-3.12
			c1.35-8.45,1.82-16.9,0.47-25.4c-0.39-2.44-0.89-4.79-2.24-6.95c-0.87-1.39-0.2-3.09-0.52-4.89c1.2,0.51,1.98,1.03,2.56,1.7
			c5.99,6.88,13.86,10.43,22.44,12.7c1.33,0.35,1.33,0.82,0.79,1.92C218.22,149.9,210.67,157.71,200.64,163.13z"/>
		<path class="st33" d="M185.46,114.39c-2.74-1.71-5.71-2.58-8.97-2.12c-0.91,0.13-1.79,0.1-2.71-0.02
			c-3.54-0.45-6.78,0.31-9.63,2.51c-0.76,0.59-1.07,1.2-0.27,2.03c2.95,3.05,6.28,5.26,10.64,4.94c4.58,0.21,8.15-1.64,11.19-4.74
			C186.9,115.77,186.92,115.3,185.46,114.39z M166.3,116.69c-0.29-0.19-0.79-0.29-0.76-0.69c0.04-0.47,0.58-0.49,0.94-0.63
			c2.36-0.93,4.78-1.44,7.33-1.01c1.04,0.17,2.09,0.04,3.13-0.06c2.66-0.27,5.1,0.53,7.68,1.52
			C178.83,120.3,172.08,120.57,166.3,116.69z M183.27,103.67c-0.71,1.57-2.17,1.61-3.58,1.72c-0.18,0.01-0.38-0.03-0.54,0.03
			c-3.14,1.18-6.25,0.38-9.38-0.04c-2.96-0.4-4-2.33-2.47-4.91c0.42-0.7,0.83-1.41,1.74-1.75c-0.39,0.8-0.83,1.58-1.17,2.4
			c-0.86,2.08-0.24,3.03,1.97,3.07c0.32,0.01,0.66-0.06,0.95,0.03c3.35,0.97,6.66,0.14,9.98-0.14c1.55-0.13,1.84-0.56,1.6-2.13
			c-0.18-1.17-1.05-2.07-1.33-3.29c0.63,0.22,0.84,0.7,1.14,1.07C183.12,100.88,184,102.06,183.27,103.67z"/>
		<path class="st34" d="M210.25,62.63c-0.34,0.07-0.49-0.12-0.63-0.29c-6.18-7.23-14.12-11.53-23.28-13.59
			c-13.83-3.1-27.47-2.23-40.85,2.47c-2.15,0.76-4.05,2.02-6.29,3.35c0.07-3.58,0.74-6.77,1.91-9.84
			c4.06-10.71,12.1-16.6,23.09-18.83c2.19-0.45,4.42-0.61,6.65-0.64c0.93-0.01,1.56-0.28,2.12-1.13c1.04-1.6,3.06-1.61,4.05,0.03
			c0.61,1.01,1.36,1.14,2.35,1.16c7.71,0.19,14.85,2.14,20.9,7.14c6.07,5.01,9.19,11.62,10.05,19.35c0.25,2.21,0.27,4.45,0.37,6.68
			C210.76,59.9,210.58,61.29,210.25,62.63z M197.44,98.02c-3.1,0.67-6.22,0.73-9.36,0.36c-3.63-0.43-6.24-2.28-8.02-5.43
			c-1.17-2.08-1.83-4.36-2.59-6.59c-0.47-1.37-1.59-1.96-3.01-1.67c-1.11,0.23-1.67,0.98-2.02,2c-0.78,2.28-1.54,4.56-2.74,6.68
			c-1.59,2.83-3.98,4.47-7.16,4.87c-5.09,0.64-10.16,0.95-14.74-2.3c-0.06,0.24-0.13,0.4-0.13,0.57c0.02,3.33,0.14,6.67,1.12,9.87
			c2.67,8.71,7.76,15.86,14.92,21.35c7.81,5.99,16.89,5.5,24.16-1.14c5.54-5.06,9.78-11.12,12.64-18.09
			c1.67-4.06,1.85-8.34,1.87-12.93C200.8,96.96,199.19,97.64,197.44,98.02z M167.3,100.46c0.42-0.7,0.83-1.41,1.74-1.75
			c-0.39,0.8-0.83,1.58-1.17,2.4c-0.86,2.08-0.24,3.03,1.97,3.07c0.32,0.01,0.66-0.06,0.95,0.03c3.35,0.97,6.66,0.14,9.98-0.14
			c1.55-0.13,1.84-0.56,1.6-2.13c-0.18-1.17-1.05-2.07-1.33-3.29c0.63,0.22,0.84,0.7,1.14,1.07c0.93,1.16,1.81,2.34,1.08,3.95
			c-0.71,1.57-2.17,1.61-3.58,1.72c-0.18,0.01-0.38-0.03-0.54,0.03c-3.14,1.18-6.25,0.38-9.38-0.04
			C166.81,104.98,165.78,103.04,167.3,100.46z M185.7,117c-3.04,3.1-6.6,4.95-11.19,4.74c-4.36,0.33-7.69-1.88-10.64-4.94
			c-0.8-0.83-0.49-1.44,0.27-2.03c2.86-2.2,6.1-2.96,9.63-2.51c0.91,0.12,1.8,0.14,2.71,0.02c3.26-0.46,6.23,0.41,8.97,2.12
			C186.92,115.3,186.9,115.77,185.7,117z M213.01,72.17c-0.75,0.82-1.53,0.22-2.21-0.19c-5.58-3.42-11.46-6.15-17.79-7.85
			c-10.16-2.72-20.41-2.59-30.73-0.99c-5.85,0.91-11.58,2.4-17.38,3.54c-1.51,0.3-3.04,0.59-4.6,0.27
			c-1.71-0.35-2.51-1.28-2.27-2.98c0.28-2.02,0.75-4.02,1.13-6.03c0.17-0.9,0.87-1.34,1.55-1.8c4.23-2.86,8.97-4.37,13.91-5.36
			c5.24-1.04,10.52-1.57,15.02-1.54c9.79-0.05,18.44,1.3,26.53,5.33c6.86,3.42,12.07,8.67,16.43,14.85c0.1,0.15,0.19,0.31,0.27,0.47
			C213.23,70.64,213.69,71.43,213.01,72.17z M206.73,73.52c-0.29,2.14-0.29,4.32-0.91,6.52c-1.08-4.08-4.13-5.07-7.73-5.36
			c-4.7-0.38-9.36-0.35-13.99,0.64c-2.26,0.49-4.19,1.47-5.54,3.43c-0.17,0.25-0.32,0.6-0.69,0.6c-1.77,0.02-3.55,0.01-5.32,0.02
			c-0.31,0-0.49-0.19-0.65-0.43c-1.64-2.33-4.07-3.29-6.72-3.79c-4.87-0.92-9.78-0.96-14.68-0.31c-2.75,0.36-4.92,1.6-5.73,4.51
			c-0.09,0.33-0.11,0.82-0.59,0.8c-0.6-0.02-0.48-0.58-0.53-0.94c-0.45-3.07-0.53-6.16-0.55-9.25c-0.01-0.58,0.15-0.91,0.79-1.02
			c7.21-1.24,14.28-3.27,21.57-4.12c13.92-1.62,27.33-0.18,39.93,6.41C206.44,71.78,206.89,72.32,206.73,73.52z M223.28,139.67
			c-5.06,10.23-12.61,18.04-22.64,23.46c-0.36,0.19-0.73,0.34-1.22,0.57c-0.11-1.14,0.21-2.13,0.37-3.12
			c1.35-8.45,1.82-16.9,0.47-25.4c-0.39-2.44-0.89-4.79-2.24-6.95c-0.87-1.39-0.2-3.09-0.52-4.89c1.2,0.51,1.98,1.03,2.56,1.7
			c5.99,6.88,13.86,10.43,22.44,12.7C223.82,138.1,223.83,138.57,223.28,139.67z M149.39,138.11c-0.77,7.83-0.24,15.63,0.96,23.39
			c0.11,0.71,0.21,1.42,0.36,2.45c-5.54-2.89-10.23-6.34-14.36-10.57c-4.08-4.18-7.21-9-9.76-14.23c-0.39-0.81-0.34-1.13,0.61-1.4
			c2.8-0.79,5.57-1.67,8.34-2.59c4.22-1.39,7.87-3.72,11.11-6.75c1.78-1.66,3.5-3.4,5.81-5.02c-0.16,2.09,0.22,3.8-0.85,5.51
			C149.88,131.69,149.7,134.96,149.39,138.11z M194.73,132.08c-0.41,1.29-1.17,2.35-2.16,3.26c-4.59,4.22-10.02,7.03-15.79,9.24
			c-0.9,0.34-1.83,0.5-2.8,0.16c-5.57-1.96-10.84-4.45-15.37-8.33c-2.7-2.31-4-5.22-3.94-8.76c0.03-1.85,0.01-3.7,0.01-5.55
			c2.06,2.1,3.91,4.14,5.96,6.02c9.19,8.44,21.72,7.62,30.2-1.41c1.45-1.54,2.8-3.17,4.47-5.06
			C195.21,125.37,195.8,128.76,194.73,132.08z M170.08,83.61c-0.17,2.7-0.81,5.31-1.9,7.78c-1.17,2.65-3.2,4.25-6.11,4.64
			c-2.99,0.4-5.98,0.43-8.96-0.15c-2.53-0.49-4.3-1.87-5.06-4.4c-0.99-3.3-1.52-6.66-1.09-10.09c0.37-2.94,1.54-4.01,4.49-4.39
			c2.12-0.27,4.26-0.31,6.4-0.28c2.64,0.06,5.27,0.2,7.84,0.87C169.05,78.48,170.3,80.14,170.08,83.61z M201.91,91.68
			c-0.56,1.94-1.87,3.21-3.8,3.77c-3.65,1.06-7.36,1.09-11.08,0.41c-1.53-0.28-2.86-1.09-3.76-2.32c-2.61-3.6-3.74-7.63-3.01-12.09
			c0.33-2,1.55-3.18,3.51-3.73c2.97-0.84,6.02-0.87,8.91-0.97c2.33,0.13,4.52,0.02,6.68,0.45c2.51,0.5,3.61,1.71,3.83,4.25
			C203.5,84.95,202.88,88.34,201.91,91.68z M177.64,169.6c-0.9-0.08-1.82-0.01-2.72-0.01c-1.29-0.11-3.02,0.62-3.77-0.33
			c-0.67-0.86,0.23-2.41,0.46-3.66c0.51-2.86,1-5.73,1.66-8.56c0.4-1.72,0.26-3.25-0.46-4.87c-1.35-3.04-1.27-3.06,1.48-4.79
			c0.63-0.4,1.1-0.42,1.72,0c3.14,2.13,2.95,1.05,1.46,4.49c-0.83,1.92-1.07,3.73-0.63,5.78c0.76,3.5,1.29,7.06,1.99,10.58
			C179.04,169.33,178.75,169.69,177.64,169.6z M211.14,87.73c-0.25,2.89-1.54,5.93-3.82,8.55c-0.32,0.37-0.73,0.7-1.15,0.95
			c-0.94,0.57-1.56,0.31-1.81-0.75c-0.27-1.12-0.28-2.26-0.01-3.38c0.73-3.1,1.43-6.2,1.86-9.36c0.11-0.82,0.54-1.04,1.29-1.03
			C209.87,82.73,211.27,84.4,211.14,87.73z M145.84,95.83c-0.08,0.64-0.24,1.29-0.94,1.53c-0.65,0.23-1.16-0.15-1.56-0.58
			c-2.57-2.73-4.08-5.95-4.42-9.08c-0.04-3.33,1.43-5.04,3.72-4.99c0.75,0.02,1.16,0.25,1.27,1.06c0.44,3.24,1.02,6.45,1.81,9.62
			C145.91,94.18,145.94,95.01,145.84,95.83z M140.71,80.66c-1.29,0.39-2.35,1.18-3.04,2.36c-0.39,0.66-0.74,0.62-1.26,0.13
			c-1.6-1.51-1.71-2.76-0.28-4.42c1.38-1.6,2.88-3.09,4.7-4.51c0.22,1.93,0.4,3.6,0.62,5.26C141.54,80.12,141.39,80.46,140.71,80.66
			z M214.43,80.04c-0.24,0.93-0.68,1.77-1.21,2.57c-0.32,0.48-0.64,0.58-1.05,0.07c-0.86-1.06-1.96-1.75-3.3-2.04
			c-0.64-0.14-0.59-0.54-0.53-1.02c0.22-1.66,0.43-3.33,0.67-5.28c1.98,1.53,3.62,3.07,5.22,4.67
			C214.53,79.31,214.53,79.67,214.43,80.04z M184.62,115.83c-5.8,4.46-12.55,4.73-18.32,0.86c-0.29-0.19-0.79-0.29-0.76-0.69
			c0.04-0.47,0.58-0.49,0.94-0.63c2.36-0.93,4.78-1.44,7.33-1.01c1.04,0.17,2.09,0.04,3.13-0.06
			C179.61,114.04,182.05,114.84,184.62,115.83z"/>
	</g>
</g>
</svg>
