<?xml version="1.0" encoding="utf-8"?>
<!-- Generator: Adobe Illustrator 27.8.1, SVG Export Plug-In . SVG Version: 6.00 Build 0)  -->
<svg version="1.1" xmlns="http://www.w3.org/2000/svg" xmlns:xlink="http://www.w3.org/1999/xlink" x="0px" y="0px"
	 viewBox="0 0 350 230" style="enable-background:new 0 0 350 230;" xml:space="preserve">
<style type="text/css">
	.st0{fill:#E4335A;}
	.st1{fill:#005199;}
	.st2{fill:#AD0000;}
	.st3{fill:#00E2E2;}
	.st4{fill:#003F33;}
	.st5{fill:#600068;}
	.st6{fill:#664600;}
	.st7{fill:#DAB038;}
	.st8{fill:#466F85;}
	.st9{fill:#57D4FF;}
	.st10{fill:#99042B;}
	.st11{fill:#BF882F;}
	.st12{fill:#B0C1C1;}
	.st13{fill:#689FC1;}
	.st14{fill:#0035AA;}
	.st15{fill:#CEC1A3;}
	.st16{fill:#AC8746;}
	.st17{fill:#F2EBDD;}
	.st18{fill:#350B00;}
	.st19{fill:#ECC752;}
	.st20{fill:#005468;}
	.st21{stroke:#000000;stroke-width:0.25;stroke-miterlimit:10;}
	.st22{fill:#EFECFF;}
	.st23{fill:#FFDE98;}
	.st24{fill:#5B3F00;}
	.st25{fill:#826834;}
	.st26{fill:none;stroke:#5B3F00;stroke-width:2;stroke-miterlimit:10;}
	.st27{fill:#FFBE00;}
	.st28{fill:#9B8D75;}
	.st29{fill:#FFFFFF;}
	.st30{fill:#FFFF00;}
	.st31{fill:#FFBF00;}
	.st32{fill:#FFA500;}
	.st33{fill:#B7F3F9;}
	.st34{fill:#B78802;}
</style>
<g id="Logo1">
</g>
<g id="Logo2">
	<path class="st1" d="M127.7,58.62c3.29-11.36,19.06-3.61,19.06-3.61s81.69,44.45,90.7,36.08c9.01-8.38-4.82-12.36-4.82-12.36
		c11.97,2.51,12.38,7.42,10.53,11.17c-1.78,3.62-5.52,5.86-9.55,6.12c-27.01,1.78-83.43-40.2-96.3-38.45
		c-13.82,1.89-1.68,16.97-1.68,16.97S125.4,66.58,127.7,58.62z M161.15,68.8c-1.62,2.64-2.95,4.26-6.35,4.79
		c-2.08,0.32-4.35,0.48-5.94,1.87c-1.53,1.34-2.02,3.49-2.42,5.49c-0.29,1.43-0.58,2.86-0.87,4.3c-0.72,3.57-2.53,5.02-6.16,5
		c-2.43-0.01-4.93,0.65-6.76,2.23c-1.84,1.58-2.87,4.2-2.2,6.53c0.46,1.6,1.63,2.88,2.79,4.08c2.34,2.42,4.95,5.04,5.21,8.39
		c0.17,2.14-0.75,4.34-2.38,5.73c-1.63,1.39-3.95,1.95-6.04,1.44c-2.1-0.51-4.2-2.21-5.77-3.32c-1.11-0.78-2.55-0.8-3.9-0.79
		c-3.2,0.01-6.98,1.54-8.33,4.76c-0.45,1.06-0.9,2.13-1.18,3.25c-0.6,2.37-0.04,4.06,0.81,6.24c0.82,2.11,2.51,3.28,3.38,5.3
		c0.6,1.41,0.38,3.3-0.9,4.15c-0.5,0.33-1.09,0.46-1.68,0.54c-1.4,0.18-2.95,0.02-4.01-0.92c-1.06-0.94-1.32-2.82-0.24-3.74
		c-2.45,1.27-2.83,5-1.13,7.18c1.69,2.19,4.77,2.91,7.5,2.49c2.05-0.32,4.04-1.23,5.4-2.8c1.36-1.56,1.99-3.81,1.36-5.78
		c-0.52-1.62-1.78-2.89-2.63-4.36c-0.85-1.48-1.21-3.54-0.01-4.75c0.38-0.38,0.87-0.63,1.38-0.8c2.4-0.81,4.75,0.11,6.18,2.22
		c1.55,2.29,3.04,4.59,4.63,6.9c1.11,1.62,2.56,2.58,4.29,3.48c2.83,1.47,6.31,1.75,9.44,1.2c5.66-0.99,7.37-5.14,8.98-9.83
		c1.16-3.35,4.53-4.53,7.8-4.67c5.25-0.24,10.9,1.51,15.66,3.64c2.43-2.79,2.48-8.3,2.09-12.48c-10.43-7.78-11.71-21.37-9.9-33.25
		c0.22-1.46,0.61-3.15,1.96-3.76c1.23-0.55,2.71,0.13,3.57,1.17c0.86,1.04,1.27,2.36,1.81,3.59c0.74,1.7,1.86,3.36,3.57,4.07
		c2.01,0.84,4.28,0.17,6.41-0.28c2.13-0.46,4.65-0.58,6.16,0.99c0.82,0.85,1.24,2.11,2.29,2.65c0.88,0.45,1.93,0.24,2.91,0.29
		c7.58,0.37,4.06,10.04,2.32,14.21c-1.79,4.29-4.74,8.04-8.7,10.51c-0.33,8.5,3.42,11.93,3.42,11.93
		c8.62-7.35,15.85-19.94,17.21-34.07C195.61,87.77,176.34,76.71,161.15,68.8z M214.27,78.29c-23.58-1.94-44.17-19.63-44.17-19.63
		C187.55,69.2,214.27,78.29,214.27,78.29z M171.01,53.93c0,0,13.09-20.18,31.08-13.63c19.86,7.22,16.18,24.36,14.9,30.9
		c0,0-0.36-23.81-16.72-27.81C183.91,39.39,171.01,53.93,171.01,53.93z"/>
	<path class="st2" d="M190.19,107.67c-2.34-0.84-4.51,0-4.51,0s-2.16-0.84-4.51,0c0,0,3-2.46,4.51-1.32
		C187.18,105.21,190.19,107.67,190.19,107.67z M185.68,108.38c-2.04-0.9-4.53-0.47-4.51-0.43c1.47,2.41,4.51,1.89,4.51,1.89
		s3.03,0.53,4.51-1.89C190.21,107.91,187.72,107.49,185.68,108.38z M164.99,127.43c-5.13,13.43-8.21,25.53-4.2,32.99l55.29,0
		C216.09,160.43,169.47,158.44,164.99,127.43z"/>
</g>
<g id="Logo3">
</g>
<g id="Logo4">
</g>
<g id="Logo5">
</g>
<g id="Logo6">
</g>
<g id="Logo7">
</g>
<g id="Logo8">
</g>
<g id="Logo9">
</g>
<g id="Logo10">
</g>
<g id="Logo11">
</g>
<g id="Logo12">
</g>
<g id="Logo13">
</g>
<g id="Logo14">
</g>
<g id="Logo15">
</g>
</svg>
