<?xml version="1.0" encoding="utf-8"?>
<!-- Generator: Adobe Illustrator 27.8.1, SVG Export Plug-In . SVG Version: 6.00 Build 0)  -->
<svg version="1.1" xmlns="http://www.w3.org/2000/svg" xmlns:xlink="http://www.w3.org/1999/xlink" x="0px" y="0px"
	 viewBox="0 0 350 230" style="enable-background:new 0 0 350 230;" xml:space="preserve">
<style type="text/css">
	.st0{fill:#E4335A;}
	.st1{fill:#005199;}
	.st2{fill:#AD0000;}
	.st3{fill:#00E2E2;}
	.st4{fill:#003F33;}
	.st5{fill:#600068;}
	.st6{fill:#664600;}
	.st7{fill:#DAB038;}
	.st8{fill:#466F85;}
	.st9{fill:#57D4FF;}
	.st10{fill:#99042B;}
	.st11{fill:#BF882F;}
	.st12{fill:#B0C1C1;}
	.st13{fill:#689FC1;}
	.st14{fill:#0035AA;}
	.st15{fill:#CEC1A3;}
	.st16{fill:#AC8746;}
	.st17{fill:#F2EBDD;}
	.st18{fill:#350B00;}
	.st19{fill:#ECC752;}
	.st20{fill:#005468;}
	.st21{stroke:#000000;stroke-width:0.25;stroke-miterlimit:10;}
	.st22{fill:#EFECFF;}
	.st23{fill:#FFDE98;}
	.st24{fill:#5B3F00;}
	.st25{fill:#826834;}
	.st26{fill:none;stroke:#5B3F00;stroke-width:2;stroke-miterlimit:10;}
	.st27{fill:#FFBE00;}
	.st28{fill:#9B8D75;}
	.st29{fill:#FFFFFF;}
	.st30{fill:#FFFF00;}
	.st31{fill:#FFBF00;}
	.st32{fill:#FFA500;}
	.st33{fill:#B7F3F9;}
	.st34{fill:#B78802;}
</style>
<g id="Logo1">
</g>
<g id="Logo2">
</g>
<g id="Logo3">
</g>
<g id="Logo4">
</g>
<g id="Logo5">
	<path class="st7" d="M60.5,130.74c-1.51-1.87-1.52-1.87-0.35-3.97c0.96-1.72,1.92-3.44,2.92-5.22c1.52,0.64,2.99,1.3,4.5,1.88
		c4.57,1.74,8.74,1.17,12.14-2.51c1.7-1.84,3.63-2.62,6.08-2.29c0.35,0.05,0.72-0.06,1.12-0.27c-1.36-1.14-2.77-2.03-4.76-1.48
		c1.21-0.88,1.48-0.85,2.9-0.27c0.83,0.34,1.62,1.2,2.73,0.28c-2.07-1.05-3.91-2.74-6.6-2.12c1.08-0.87,1.58-0.98,2.73-0.56
		c0.64,0.23,1.26,0.61,1.92,0.72c0.57,0.1,1.19-0.09,1.79-0.43c-2.13-1.59-4.19-3.12-7.12-1.93c1.07-1.34,1.37-1.41,3.59-0.94
		c0.95,0.2,1.9,0.47,2.37-0.99c-1.82-0.68-3.36-1.93-5.63-1.06c-2.13,0.82-4,1.87-5.66,3.43c-0.92,0.87-2.02,1.56-3.15,2.41
		c-0.14-1.41-0.02-2.84-2-2.96c-0.15,2.05-0.3,4.03-0.47,6.34c-1.3-0.95-2.33-1.68-3.32-2.46c-0.14-0.11-0.14-0.44-0.13-0.67
		c0.01-0.16,0.12-0.32,0.21-0.46c1.87-2.93,1.38-5.7-0.33-8.55c-2.11-3.5-4.38-6.84-7.48-9.8c-1.45,2.01-2.85,3.9-4.16,5.84
		c-0.14,0.21,0.1,0.87,0.35,1.14c2.68,2.84,5.41,5.63,8.12,8.45c1.48,1.54,1.6,1.67,0.18,3.24c-2.7,2.98-5.48,5.9-8.39,8.68
		c-1.49,1.43-2.51,1.29-3.8-0.34c-1.08-1.36-1.92-2.93-2.75-4.47c-0.2-0.37-0.04-1.09,0.21-1.49c0.59-0.94,1.33-1.78,1.99-2.65
		c-1.95-2.14-3.89-4.25-5.8-6.39c-0.51-0.57-0.91-1.25-1.37-1.87c-0.87-1.17-0.95-2.43-0.49-3.78c1.6-4.72,4.22-8.9,6.96-13.01
		c0.36-0.54,0.64-1.16,1.11-1.57c3.09-2.77,3.32-6.43,3.2-10.23c-2.16-0.41-4.48-0.65-6.67-1.31c-2.11-0.63-4.27-1.42-6.09-2.62
		c-3.15-2.07-3.1-4.78,0.02-6.89c4.67-3.16,9.89-4.22,15.47-3.46c4.12,0.57,8.22,1.35,12.36,1.78c4.96,0.5,10.03,0.57,14.35-2.28
		c3.3-2.18,6.2-4.99,9.22-7.59c1.62-1.4,3.05-3.03,4.69-4.4c0.66-0.55,1.67-0.7,2.52-1.03c0.12,0.89,0.47,1.82,0.32,2.66
		c-0.81,4.38-3.04,8.09-5.83,11.46c-5.7,6.88-13.12,10.9-21.7,12.98c-0.49,0.12-0.97,0.23-1.77,0.43c0.85,0.56,1.49,0.94,2.1,1.37
		c1.33,0.95,2.64,1.91,3.95,2.88c2.7,2.02,4.68,4.55,5.43,7.89c2.24,10.07,6.3,19.59,8.99,29.52c0.46,1.7,0.93,3.4,1.28,5.12
		c0.55,2.63-0.17,3.79-2.73,4.67c-0.61,0.21-1.59,0.36-1.73,0.77c-0.35,1.01-0.61,2.22-0.38,3.24c1.73,7.96,3.71,15.87,5.35,23.85
		c1.5,7.23,2.45,14.56,2.8,21.95c0.06,1.18-0.36,1.62-1.42,1.96c-7.01,2.29-14.21,3.62-21.54,4.33c-9.4,0.91-18.78,0.74-28.14-0.44
		c-0.45-0.06-1.13,0.31-1.43,0.69c-1.84,2.31-1.84,2.4-4.53,1.23c-6.97-3.04-13.49-6.77-18.83-12.32c-0.93-0.96-0.97-1.59-0.16-2.66
		c7.48-9.94,15.75-19.18,24.86-27.63c4.94-4.58,10.16-8.85,15.25-13.26C60.04,131.14,60.23,130.97,60.5,130.74z M67.61,73.64
		c0.17-0.15,0.24-0.19,0.29-0.26c2.89-3.89,3.45-4.07,7.92-2.57c0.04,0.01,0.08,0.03,0.12,0.04c1.44,0.44,2.15,0.02,2.58-1.44
		c0.16-0.55,0.49-1.04,0.73-1.57c0.12-0.28,0.34-0.68,0.24-0.84c-0.13-0.2-0.59-0.37-0.84-0.3c-3.19,0.94-6.44,0.78-9.7,0.58
		c-1.21-0.08-1.89,0.51-2.32,1.61c-0.44,1.14-1,2.25-1.54,3.45C65.75,72.68,66.66,73.15,67.61,73.64z M80.44,50.56
		c-2.87-5.87-7.92-9.66-15.48-8.14c-8.23,1.66-10.17,8.21-7.22,14.74c7.57-2.06,15.15-4.13,22.75-6.2
		C80.48,50.8,80.49,50.66,80.44,50.56z"/>
</g>
<g id="Logo6">
</g>
<g id="Logo7">
</g>
<g id="Logo8">
</g>
<g id="Logo9">
</g>
<g id="Logo10">
</g>
<g id="Logo11">
</g>
<g id="Logo12">
</g>
<g id="Logo13">
</g>
<g id="Logo14">
</g>
<g id="Logo15">
</g>
</svg>
