<?xml version="1.0" encoding="utf-8"?>
<!-- Generator: Adobe Illustrator 27.8.1, SVG Export Plug-In . SVG Version: 6.00 Build 0)  -->
<svg version="1.1" xmlns="http://www.w3.org/2000/svg" xmlns:xlink="http://www.w3.org/1999/xlink" x="0px" y="0px"
	 viewBox="0 0 350 230" style="enable-background:new 0 0 350 230;" xml:space="preserve">
<style type="text/css">
	.st0{fill:#E4335A;}
	.st1{fill:#005199;}
	.st2{fill:#AD0000;}
	.st3{fill:#00E2E2;}
	.st4{fill:#003F33;}
	.st5{fill:#600068;}
	.st6{fill:#664600;}
	.st7{fill:#DAB038;}
	.st8{fill:#466F85;}
	.st9{fill:#57D4FF;}
	.st10{fill:#99042B;}
	.st11{fill:#BF882F;}
	.st12{fill:#B0C1C1;}
	.st13{fill:#689FC1;}
	.st14{fill:#0035AA;}
	.st15{fill:#CEC1A3;}
	.st16{fill:#AC8746;}
	.st17{fill:#F2EBDD;}
	.st18{fill:#350B00;}
	.st19{fill:#ECC752;}
	.st20{fill:#005468;}
	.st21{stroke:#000000;stroke-width:0.25;stroke-miterlimit:10;}
	.st22{fill:#EFECFF;}
	.st23{fill:#FFDE98;}
	.st24{fill:#5B3F00;}
	.st25{fill:#826834;}
	.st26{fill:none;stroke:#5B3F00;stroke-width:2;stroke-miterlimit:10;}
	.st27{fill:#FFBE00;}
	.st28{fill:#9B8D75;}
	.st29{fill:#FFFFFF;}
	.st30{fill:#FFFF00;}
	.st31{fill:#FFBF00;}
	.st32{fill:#FFA500;}
	.st33{fill:#B7F3F9;}
	.st34{fill:#B78802;}
</style>
<g id="Logo1">
</g>
<g id="Logo2">
</g>
<g id="Logo3">
</g>
<g id="Logo4">
</g>
<g id="Logo5">
</g>
<g id="Logo6">
	<path class="st8" d="M299.14,98.91c1.7,4.92,3.27,9.48,4.86,14.08c1.33-4.81,3.47-9.53,3.47-14.71c0.01-5.49-3.24-9.16-7.78-11.5
		c-3.44-1.77-7.24-2.83-10.48-4.05c0.88-0.06,2.35-0.17,3.94-0.28c0.4-5.29,2.36-10.02,5.53-14.39c-2.23-1.46-4.33-2.98-6.6-4.19
		c-0.63-0.34-1.86,0.08-2.64,0.49c-2.69,1.41-4.4,3.75-5.64,6.46c-0.19,0.41-0.35,0.84-0.77,1.23c0-0.64-0.07-1.3,0.01-1.93
		c0.58-4.41,3.84-8.59,7.48-9.39c0.9-0.2,2.1-0.14,2.87,0.31c3.15,1.84,6.19,3.87,9.27,5.84c0.17,0.11,0.31,0.28,0.5,0.46
		c-3.85,4.5-6.67,9.43-6.98,15.46c2.15,0.83,4.28,1.48,6.26,2.44c5.63,2.73,9.06,9.16,7.89,15.3c-0.86,4.51-2.23,8.93-3.44,13.37
		c-1.5,5.5-2.37,11.02-0.31,16.55c0.98,2.63,2.16,5.18,3.38,7.71c1.44,2.97,1.6,5.92,0.06,8.85c-0.54,1.04-0.31,1.73,0.44,2.48
		c1.76,1.76,3.45,3.59,5.23,5.34c2.72,2.68,2.88,5.63,0.22,8.36c-1.13,1.17-2.47,2.16-3.82,3.08c-0.79,0.54-1,0.99-0.75,1.93
		c1.51,5.76,3.97,11.01,8.2,15.57c-1.29,0.88-2.51,1.79-3.81,2.58c-5.04,3.05-10.29,5.68-15.96,7.38c-0.99,0.3-1.19,0.77-1.16,1.68
		c0.06,2.01,0.02,4.02,0.02,6.05c-0.9,0.31-1.75,0.6-3,1.03c0-3.25,0-6.3,0-9.7c-2.01,1.24-2.82,2.72-3.25,4.44
		c-0.4,1.59-0.7,3.21-1.07,4.81c-0.47,2.09-1.7,3.42-3.8,4.06c-3.89,1.19-7.87,1.7-11.92,1.55c-0.56-0.02-1.35-0.62-1.6-1.16
		c-1.14-2.38-0.07-5.03,2.38-6.02c1.07-0.43,2.29-0.53,3.33-1c0.69-0.31,1.54-0.95,1.71-1.6c1.75-6.71,3.37-13.44,5.05-20.3
		c-0.96-0.18-1.66-0.31-2.52-0.47c-0.52,2.44-1.67,4.54-4.55,4.22c-2.2-0.25-4.33-1.06-6.51-1.63c-0.15,1.49-0.26,3.29-0.53,5.06
		c-0.94,6.29-4.04,9.48-10.31,10.19c-6.31,0.72-12.6,0.36-18.75-1.36c-2.73-0.77-3.1-1.75-1.43-4.06c1.86-2.58,3.88-5.04,5.8-7.57
		c0.5-0.65,0.89-1.39,1.53-2.38c-1.34,0.08-2.32,0.16-3.3,0.19c-2.01,0.07-4.25,0.37-5.5-1.61c-1.39-2.21-1.41-4.79,0.04-6.95
		c1.89-2.8,4.04-5.44,6.28-7.97c8.9-10.03,18.24-19.69,26.71-30.06c8.74-10.69,16.66-22.05,24.94-33.12
		C298.53,99.8,298.67,99.58,299.14,98.91z M285.26,197.36c1.53-0.29,2.97-1.27,4-2.69c2.07-2.87,4-5.83,6-8.78
		c-2.28-2.34-2.9-5.11-2.68-8.14c0.38-5.26,2.66-9.84,5.03-14.43c3.63-7.03,5.93-14.28,3.08-22.27c-1.29-3.62-1.31-7.35-0.52-11.13
		c1.3-6.19,1.55-12.4,0.05-18.6c-0.3-1.22-0.43-2.7-1.9-3.05c-1.58-0.38-2.46,0.92-3.39,1.92c-0.07,0.08-0.12,0.17-0.19,0.26
		c-2.99,3.89-3.84,8.47-3.9,13.18c-0.05,3.27,0.29,6.55,0.62,9.82c0.23,2.3,0.54,4.63,1.15,6.85c0.72,2.59,1.28,5.14,0.95,7.82
		c-0.65,5.31-1.11,10.66-2.04,15.92C289.57,175.13,287.38,186.18,285.26,197.36z M261.31,158.8c-0.09-0.19-0.18-0.38-0.26-0.56
		c-1.53,0.13-3.1,0.12-4.59,0.43c-0.95,0.2-2,0.69-2.67,1.38c-2.58,2.66-5.07,5.41-7.5,8.2c-1.14,1.31-2.26,2.69-3.11,4.2
		c-1.59,2.81-0.59,4.34,2.57,4.24c1.48-0.05,2.98-0.16,4.44,0c1.9,0.22,2.59,1.33,2.02,3.14c-0.33,1.04-0.87,2.06-1.49,2.96
		c-1.11,1.61-2.35,3.13-3.54,4.68c-0.85,1.11-1.72,2.2-2.76,3.53c1.77,0.27,3.22,0.65,4.68,0.7c4.43,0.13,8.88,0.37,13.3,0.1
		c3.85-0.23,6.14-2.78,6.56-6.38c0.42-3.56-1.31-6.46-4.86-7.81c-2.47-0.94-5.05-1.58-7.51-2.54c-4.09-1.6-4.79-4.16-2.12-7.65
		c1.51-1.97,3.23-3.79,4.8-5.72C260,160.78,260.63,159.77,261.31,158.8z M270.4,178.68c1.4-17.67,5.97-34.22,11.42-50.52
		c-7.79,9.11-15.55,18.19-23.32,27.28c0.88,0.09,1.88,0.1,2.84,0.3c2.64,0.56,3.52,2.3,2.3,4.71c-0.69,1.35-1.63,2.6-2.57,3.8
		c-1.44,1.83-2.99,3.58-4.46,5.38c-0.89,1.1-0.63,1.97,0.68,2.46c1.44,0.53,2.89,1.03,4.36,1.48
		C264.82,174.58,268.07,175.43,270.4,178.68z M303.75,173.44c-0.09-0.06-0.18-0.12-0.27-0.19c0.18-0.66,0.35-1.31,0.54-1.96
		c1.1-3.64,3.84-5.82,6.83-7.85c1.25-0.85,2.39-1.9,3.42-3.01c0.83-0.89,0.69-2.04-0.18-2.86c-2.15-2.02-4.39-3.96-6.63-5.97
		c-1.01,1.25-2.66,2.72-3.57,4.54c-1.42,2.87-2.37,5.99-3.48,9.02c-1.24,3.4-2.18,6.86-2,10.53c0.2,4.14,2.31,6.87,6.33,7.87
		c1.63,0.4,3.34,0.68,5.01,0.65c1.72-0.03,3.44-0.49,4.9-0.72c-2.32-4.99-4.49-9.65-6.79-14.61
		C306.56,170.33,305.16,171.89,303.75,173.44z M305.41,149.06c2.04-2.37,3.23-5.83,2.35-8.1c-1.35-3.48-2.93-6.88-4.52-10.58
		c-0.71,2.83-0.76,5.36-0.17,7.92C303.9,141.9,304.65,145.51,305.41,149.06z M309.3,48.69c0.29-1.31,0.58-2.49,0.8-3.67
		c0.09-0.49,0.01-1-0.08-1.55c-1.64,4.68-5.45,6.98-9.55,9c-6.75,3.33-13.47,6.7-20.21,10.06c-0.56,0.28-1.13,0.55-1.92,0.59
		c0.86-0.92,1.7-1.85,2.58-2.75c0.89-0.91,1.9-1.71,2.73-2.67c2.18-2.54,1.91-4.76-0.77-6.75c-0.57-0.43-1.22-0.76-1.97-1.23
		c0.75,1.37,1.42,2.58,2.08,3.79c-0.1,0.07-0.2,0.14-0.3,0.22c-1.85-1.35-3.67-2.73-5.55-4.04c-4.15-2.9-2.3-9.13,1.04-10.65
		c1.59-0.72,3.21-1.37,4.87-1.9c2.33-0.75,3.93-2.2,4.8-4.49c0.66-1.76,1.39-3.49,2.16-5.42c-2.79,2.55-3.56,6.67-7.06,8.02
		c1.14-2,2.34-4.14,3.58-6.27c2.87-4.93,7.4-7.25,12.57-6.45c4.42,0.69,6.67,2.99,7.71,7.58c0.34-1.41,0.67-2.81,0.98-4.11
		c1.56,1.92,1.21,4.59-0.68,7.27c1.2,1.55,2.24,3.03,3.42,4.4C313.8,41.47,313.39,45.52,309.3,48.69z M287.07,42.36
		c-0.42,3.04,0.21,5.65,1.86,7.99c0.97,1.39,2.35,2.05,4.06,2.1c6.16,0.19,12.59-5.3,13.23-11.43c0.23-2.17-0.13-4.26-1.91-5.79
		c-3.94-3.39-9.63-2.16-11.49,2.64C291.76,40.59,290.22,42.31,287.07,42.36z M277.3,46.41c0.85-3.41,3.09-5.1,6.43-5.56
		c0.89-0.12,1.77-0.35,2.66-0.44c2.55-0.26,4.07-1.66,4.99-4.03c0.72-1.86,1.62-3.7,2.72-5.36c2.22-3.36,5.35-3.97,8.81-1.97
		c0.38,0.22,0.77,0.4,1.16,0.6c0.12-0.12,0.25-0.24,0.37-0.36c-0.74-0.97-1.32-2.13-2.23-2.88c-3.15-2.6-8.01-1.87-10.35,1.57
		c-0.88,1.29-1.57,2.8-1.96,4.31c-0.77,2.98-2.56,4.88-5.31,6.09c-1.74,0.76-3.48,1.58-5.06,2.62
		C277.66,42.24,276.65,44.02,277.3,46.41z M274.4,61.02c-3.79,1.65-5.7,4.46-5.41,8.61c0.32,4.54,0.7,9.08,1.09,13.61
		c0.26,3,0.42,6.03,0.92,8.99c0.48,2.87,2.3,3.53,4.73,1.91c1.13-0.75,2.14-1.67,3.45-2.71c-0.42,3.76-1.57,7.24-0.33,10.83
		c1.27,3.69,3.83,7.29,6.34,8.32c-0.42-0.75-0.78-1.45-1.2-2.11c-2.62-4.19-3.51-8.61-2.31-13.52c1.37-5.62,0.59-10.96-3.06-15.65
		c-2.27-2.92-4.13-5.95-3.37-9.98c-0.61,0.8-1.15,1.6-1.38,2.47c-0.78,2.99-0.11,5.73,1.55,8.31c1.17,1.81,2.18,3.73,3.21,5.63
		c0.2,0.38,0.35,1.09,0.15,1.34c-1.45,1.76-3,3.45-4.51,5.15c-0.15-0.09-0.29-0.18-0.44-0.28c-0.07-0.4-0.18-0.79-0.21-1.2
		c-0.52-5.96-0.91-11.94-1.58-17.88c-0.48-4.27,0.3-7.87,4.02-10.47c0.77-0.54,1.38-1.31,2.01-2.03c0.39-0.45,0.67-0.99,1.19-1.78
		C277.38,59.53,275.92,60.35,274.4,61.02z M309.67,66.42c0.28-3.4,0.3-6.89-0.18-10.25c-0.44-3.04-2.66-4.1-5.7-3.47
		c-2.79,0.58-5.08,2.05-7.04,4.07c-0.47,0.48-0.86,1.04-1.21,1.47c2.46-1,4.85-2.18,7.36-2.92c2.56-0.75,3.9,0.28,4.03,2.95
		c0.12,2.42-0.1,4.86-0.14,7.29c-0.08,4.33-0.21,8.67-0.14,13c0.02,1.29,0.65,2.57,1.06,4.09
		C308.41,76.99,309.24,71.72,309.67,66.42z M296.31,47.78c-1.13-0.77-2.31-1.46-3.36-2.33c-1.2-1-2.12-0.36-2.8,0.49
		c-0.6,0.75,0.48,2.59,1.7,2.72c1.44,0.16,2.91-0.06,4.37-0.12C296.26,48.29,296.28,48.04,296.31,47.78z M303.5,39.76
		c-0.91-1.31-3.29-2.04-5.55-1.31C300.05,38.95,301.91,39.39,303.5,39.76z"/>
</g>
<g id="Logo7">
</g>
<g id="Logo8">
</g>
<g id="Logo9">
</g>
<g id="Logo10">
</g>
<g id="Logo11">
</g>
<g id="Logo12">
</g>
<g id="Logo13">
</g>
<g id="Logo14">
</g>
<g id="Logo15">
</g>
</svg>
