<?xml version="1.0" encoding="utf-8"?>
<!-- Generator: Adobe Illustrator 27.8.1, SVG Export Plug-In . SVG Version: 6.00 Build 0)  -->
<svg version="1.1" xmlns="http://www.w3.org/2000/svg" xmlns:xlink="http://www.w3.org/1999/xlink" x="0px" y="0px"
	 viewBox="0 0 350 230" style="enable-background:new 0 0 350 230;" xml:space="preserve">
<style type="text/css">
	.st0{fill:#E4335A;}
	.st1{fill:#005199;}
	.st2{fill:#AD0000;}
	.st3{fill:#00E2E2;}
	.st4{fill:#003F33;}
	.st5{fill:#600068;}
	.st6{fill:#664600;}
	.st7{fill:#DAB038;}
	.st8{fill:#466F85;}
	.st9{fill:#57D4FF;}
	.st10{fill:#99042B;}
	.st11{fill:#BF882F;}
	.st12{fill:#B0C1C1;}
	.st13{fill:#689FC1;}
	.st14{fill:#0035AA;}
	.st15{fill:#CEC1A3;}
	.st16{fill:#AC8746;}
	.st17{fill:#F2EBDD;}
	.st18{fill:#350B00;}
	.st19{fill:#ECC752;}
	.st20{fill:#005468;}
	.st21{stroke:#000000;stroke-width:0.25;stroke-miterlimit:10;}
	.st22{fill:#EFECFF;}
	.st23{fill:#FFDE98;}
	.st24{fill:#5B3F00;}
	.st25{fill:#826834;}
	.st26{fill:none;stroke:#5B3F00;stroke-width:2;stroke-miterlimit:10;}
	.st27{fill:#FFBE00;}
	.st28{fill:#9B8D75;}
	.st29{fill:#FFFFFF;}
	.st30{fill:#FFFF00;}
	.st31{fill:#FFBF00;}
	.st32{fill:#FFA500;}
	.st33{fill:#B7F3F9;}
	.st34{fill:#B78802;}
</style>
<g id="Logo1">
</g>
<g id="Logo2">
</g>
<g id="Logo3">
</g>
<g id="Logo4">
</g>
<g id="Logo5">
</g>
<g id="Logo6">
</g>
<g id="Logo7">
	<path class="st9" d="M100.79,120.72c1.02,2.22,1.89,4.52,3.09,6.63c2.54,4.46,5.25,8.83,7.9,13.23c0.04,0.07,0.09,0.14,0.13,0.22
		c2.91,5.11,1.79,8.74-3.62,11.51c-2.52-5.77-5.04-11.53-7.56-17.29c-0.07,0.02-0.15,0.04-0.22,0.07c0.57,2.3,1.08,4.61,1.71,6.89
		c2.97,10.87,5.77,21.8,9.02,32.59c3.68,12.21,11.14,21.76,21.7,28.88c0.3,0.2,0.59,0.41,1.09,0.76c-0.62,0.03-0.98,0.07-1.33,0.07
		c-10.42,0-20.83-0.01-31.25,0.02c-0.96,0-1.54-0.3-2.05-1.07c-2.6-3.86-3.85-8.23-4.76-12.71c-2.36-11.54-2.64-23.24-2.54-34.96
		c0.01-1.74,0-3.47-0.17-5.26c-0.44,1.28-0.87,2.56-1.32,3.84c-3.22,9.15-6.68,18.21-11.02,26.88c-4.16,8.31-9.68,15.61-16.93,21.53
		c-1.4,1.15-2.8,1.79-4.73,1.77c-16.56-0.09-33.13-0.05-49.69-0.05c-0.45,0-0.9,0-1.35,0c29.17-11.44,51.7-30.49,67.27-57.63
		c-0.08-0.08-0.16-0.16-0.23-0.25c-2.74,3.29-5.45,6.61-8.24,9.86c-2.82,3.3-5.72,6.53-8.62,9.83c-2.04-3.59-1.94-6.76,0.53-10
		c2.53-3.32,5.27-6.49,7.89-9.75c4.1-5.12,7.89-11.76,9.04-15.54c-4.57,5.6-9.41,11.54-14.44,17.7c-2.06-3.28-3.74-6.21-3.64-9.82
		c0.04-1.61,0.94-2.75,1.98-3.79c2.01-2.01,4.14-3.91,6.11-5.95c8.89-9.18,15.17-19.88,18.63-32.21c0.24-0.84,0.45-1.69,0.64-2.55
		c0.17-0.77,0.29-1.55,0.39-2.1c-3.58,6.58-7.26,13.33-10.94,20.09c-0.19-0.04-0.38-0.07-0.57-0.11c-0.3-1.81-0.7-3.61-0.9-5.43
		c-0.67-6.15,1.08-11.74,4.16-16.99c1.08-1.84,2.18-3.66,3.27-5.49c1.48-2.49,1.68-5.04,0.23-7.62c-0.63-1.13-1.24-2.28-1.98-3.33
		c-1.67-2.36-1.94-4.86-0.86-7.49c0.67-1.61,1.39-3.23,2.31-4.71c1.19-1.93,2.81-2.51,4.84-1.54c1.82,0.87,3.45,2.14,5.13,3.29
		c0.61,0.42,1.09,1.01,1.7,1.58c1.29-1.95,2.25-4.13,4.94-5.07c-0.7-0.72-1.2-1.36-1.83-1.83c-0.63-0.46-1.36-0.84-2.1-1.1
		c-2.35-0.83-3.99-2.37-5.01-4.62c-0.06-0.14-0.17-0.27-0.27-0.43c-1.07,1.02-2.08,2.01-3.12,2.96c-0.98,0.89-2.06,1.22-3.45,0.98
		c-5.62-0.98-6.57-0.54-9.41,4.43c-1.94,3.4-4.2,6.53-7.05,9.23c-0.9,0.86-1.64,1.89-2.4,2.88c-0.65,0.85-0.66,1.7,0.28,2.4
		c2.21,1.65,4.37,3.36,6.64,4.92c2.43,1.67,4.97,3.19,7.36,5.03c-1.47-0.55-2.97-1.03-4.4-1.67c-3.79-1.7-7.35-3.8-10.54-6.47
		c-2.69-2.26-2.88-3.41-0.85-6.23c0.85-1.18,1.9-2.21,2.88-3.3c1.14-1.27,2.29-2.53,3.28-3.62c-1.68-2-3.38-3.74-4.73-5.72
		c-2.02-2.96-1.63-5.5,0.98-7.94c0.97-0.91,2.06-1.7,3.11-2.52c3.16-2.49,4.8-5.82,5.39-9.73c0.06-0.36,0.01-0.93-0.22-1.12
		c-2.4-2.03-4.84-4.03-8.06-4.6c-0.67-0.12-1.43-0.04-2.09,0.13c-1.48,0.38-2.2,1.3-1.87,2.76c0.32,1.4,0.86,2.8,1.59,4.03
		c1.02,1.71,2.31,3.27,3.41,5.08c-1.05-0.73-2.13-1.42-3.13-2.21c-1.83-1.46-3.25-3.27-4.09-5.45c-1.18-3.05,0.14-5.63,3.29-6.53
		c2.63-0.75,5.17-0.16,7.32,1.27c3.19,2.12,6.24,4.48,9.2,6.92c4.26,3.51,8.45,7.11,13.48,9.51c3.53,1.68,7.21,2.91,11.14,3.18
		c0.95,0.06,1.94,0.04,2.87-0.14c1.56-0.3,2.07-1.43,1.07-2.65c-1.04-1.28-2.37-2.31-3.6-3.43c-0.3-0.27-0.67-0.46-0.95-0.77
		c3.05,0.54,5.56,1.95,7.04,4.78c0.81,1.55,0.33,3.06-1.3,3.76c-1.2,0.51-2.56,0.66-3.86,0.91c-0.48,0.09-0.99,0.01-1.95,0.01
		c0.83,1.11,1.41,1.98,2.1,2.76c0.41,0.46,0.96,0.8,1.47,1.17c2.92,2.1,3.39,4,1.72,7.22c-0.64,1.22-1.42,2.37-2,3.61
		c-0.43,0.94-0.81,1.96-0.89,2.97c-0.05,0.73,0.22,1.77,0.74,2.18c0.44,0.35,1.45,0.02,2.19-0.09c0.31-0.05,0.59-0.3,0.89-0.47
		c-0.37,1.88-2.12,2.82-5.41,2.93c1.85,6.79,3.71,13.59,5.56,20.39c-3.64-5.69-5.09-12.28-7.76-18.4c-0.38,1.79-1.23,3.36-0.01,5.41
		c4.63,7.81,5.93,16.31,4.55,25.26c-0.09,0.57,0.01,1.26,0.28,1.77c2.84,5.35,5.69,10.69,8.63,15.98c1.8,3.23,1.3,6.23-0.59,9.52
		c-3.39-4.77-6.66-9.37-9.93-13.97C100.98,120.63,100.89,120.68,100.79,120.72z M76.87,41.64c0,1.43-0.13,2.98,0.05,4.49
		c0.11,0.97,0.48,2.04,1.07,2.81c0.75,0.97,1.8,1.72,2.79,2.48c0.25,0.19,0.78,0.15,1.13,0.05c1.87-0.54,2.99-2,4.16-3.34
		C82.95,45.93,79.87,43.76,76.87,41.64z M86.23,34.69c2.95,2.17,5.72,4.59,8.56,6.9c1.92-3.07,1.55-6.73-1.06-9.17
		c-2.93-2.73-6.33-4.76-10.05-6.22c-3.01-1.17-5-0.39-6.56,2.34C80.16,30.58,83.28,32.51,86.23,34.69z M75.89,30.21
		c-0.39,0.71-0.72,1.32-1.05,1.9c2.63,3.27,16.34,10.83,19.52,10.62C88.74,37.56,82.78,33.29,75.89,30.21z M75.22,61.97
		c-2.33,2.55-4.66,5.09-6.99,7.64c-2.85,3.11-2.78,4.35,0.6,6.82c1.6,1.17,3.36,2.13,5.05,3.19c0.06-0.09,0.11-0.19,0.17-0.28
		c-1.39-1.5-2.82-2.96-4.15-4.5c-1.52-1.76-1.55-2.09-0.26-4.06c1.21-1.85,2.55-3.62,3.78-5.45c0.71-1.05,1.33-2.15,2-3.23
		C75.35,62.05,75.28,62.01,75.22,61.97z"/>
</g>
<g id="Logo8">
</g>
<g id="Logo9">
</g>
<g id="Logo10">
</g>
<g id="Logo11">
</g>
<g id="Logo12">
</g>
<g id="Logo13">
</g>
<g id="Logo14">
</g>
<g id="Logo15">
</g>
</svg>
