<?xml version="1.0" encoding="utf-8"?>
<!-- Generator: Adobe Illustrator 27.8.1, SVG Export Plug-In . SVG Version: 6.00 Build 0)  -->
<svg version="1.1" xmlns="http://www.w3.org/2000/svg" xmlns:xlink="http://www.w3.org/1999/xlink" x="0px" y="0px"
	 viewBox="0 0 350 230" style="enable-background:new 0 0 350 230;" xml:space="preserve">
<style type="text/css">
	.st0{fill:#E4335A;}
	.st1{fill:#005199;}
	.st2{fill:#AD0000;}
	.st3{fill:#00E2E2;}
	.st4{fill:#003F33;}
	.st5{fill:#600068;}
	.st6{fill:#664600;}
	.st7{fill:#DAB038;}
	.st8{fill:#466F85;}
	.st9{fill:#57D4FF;}
	.st10{fill:#99042B;}
	.st11{fill:#BF882F;}
	.st12{fill:#B0C1C1;}
	.st13{fill:#689FC1;}
	.st14{fill:#0035AA;}
	.st15{fill:#CEC1A3;}
	.st16{fill:#AC8746;}
	.st17{fill:#F2EBDD;}
	.st18{fill:#350B00;}
	.st19{fill:#ECC752;}
	.st20{fill:#005468;}
	.st21{stroke:#000000;stroke-width:0.25;stroke-miterlimit:10;}
	.st22{fill:#EFECFF;}
	.st23{fill:#FFDE98;}
	.st24{fill:#5B3F00;}
	.st25{fill:#826834;}
	.st26{fill:none;stroke:#5B3F00;stroke-width:2;stroke-miterlimit:10;}
	.st27{fill:#FFBE00;}
	.st28{fill:#9B8D75;}
	.st29{fill:#FFFFFF;}
	.st30{fill:#FFFF00;}
	.st31{fill:#FFBF00;}
	.st32{fill:#FFA500;}
	.st33{fill:#B7F3F9;}
	.st34{fill:#B78802;}
</style>
<g id="Logo1">
</g>
<g id="Logo2">
</g>
<g id="Logo3">
</g>
<g id="Logo4">
</g>
<g id="Logo5">
</g>
<g id="Logo6">
</g>
<g id="Logo7">
</g>
<g id="Logo8">
	<g>
		<path class="st10" d="M271.1,63.62c0.38-0.46,0.61-0.74,0.84-1.02c3.64-4.45,7.86-8.18,13.22-10.46
			c11.07-4.72,24.28,0.39,28.77,11.19c2.42,5.81,1.76,11.52-0.92,17.07c-2.45,5.07-6.21,9.03-10.59,12.46
			c-7.83,6.12-16.41,11.02-25.28,15.42c-7.04,3.5-14.24,6.67-21.35,10.02c-0.84,0.4-1.22,0.19-1.76-0.51
			c-1.38-1.77-2.26-3.66-2.41-5.96c-0.13-2.15-0.49-4.29-0.89-6.41c-0.86-4.47-0.15-8.88,0.31-13.3c0.71-6.89,1.42-13.78,2.01-20.68
			c0.12-1.46-0.12-2.99-0.46-4.43c-0.39-1.67-1.5-2.49-3.22-2.36c-1.65,0.12-3.3,0.45-4.93,0.81c-3.02,0.67-3.49,0.38-3.72-2.7
			c-0.22-2.81,0.07-5.53,1.01-8.22c0.98-2.79,1.76-5.65,2.57-8.49c0.2-0.69,0.52-0.98,1.22-1.19c4.47-1.31,8.93-2.67,13.37-4.09
			c0.76-0.24,1.27-0.17,1.88,0.32c4.44,3.51,7.1,8.18,8.61,13.51c0.74,2.63,1.07,5.38,1.59,8.07
			C270.99,62.91,271.02,63.14,271.1,63.62z"/>
		<path class="st11" d="M230.32,81.77c0.65-1.06,1.2-2.11,1.88-3.07c3.31-4.65,7.9-5.26,12.43-1.76c1.26,0.97,1.84,2,1.71,3.69
			c-1.1,14.56-4.22,28.56-11.07,41.58c-2.01,3.82-3.83,7.74-5.79,11.58c-1.88,3.68-2.64,7.53-2.62,11.67
			c0.12,19.82,0.1,39.64,0.13,59.46c0,0.27,0,0.55,0,0.82c-0.1,0.09-0.2,0.17-0.3,0.26c-0.04-0.17-0.04-0.36-0.12-0.5
			c-10.14-15.7-19.5-31.82-26.57-49.17c-2.37-5.81-4.28-11.76-5.37-17.97c-1.74-9.92,1.5-18.02,8.8-24.67
			c5.54-5.05,12.06-8.46,19-11.11c2.14-0.82,4.34-1.49,6.67-2.29c-0.49-0.77-0.99-1.54-1.48-2.31c-1.24-1.97-2.46-3.95-3.72-5.91
			c-0.17-0.26-0.47-0.47-0.76-0.63c-0.98-0.53-2.04-0.92-2.96-1.53c-3.39-2.26-4.61-5.77-3.41-9.67c0.22-0.73,0.52-1.44,0.85-2.13
			c0.98-2,1.4-2.2,3.57-1.77c3.29,0.65,6.04,2.26,8.32,4.7c0.21,0.23,0.43,0.46,0.64,0.68C230.21,81.74,230.25,81.74,230.32,81.77z
			 M247.44,140.06c3.08-9.83,4.22-19.86,2.91-30.12c-0.53-4.14-1.5-8.24-1.07-12.46c0.68-6.68,1.45-13.36,2.11-20.05
			c0.25-2.48,0.57-5.01,0.37-7.47c-0.27-3.18-2.23-4.27-5.31-3.44c-1.14,0.31-2.28,0.67-3.44,0.86c-1.87,0.31-3.13-0.45-3.5-2.29
			c-0.7-3.43-0.49-6.85,0.57-10.2c0.75-2.38,1.55-4.74,2.33-7.1c-0.09-0.03-0.18-0.06-0.27-0.09c-0.08,0.23-0.16,0.45-0.24,0.68
			c-0.92,2.68-1.94,5.3-3.76,7.53c-2.39,2.93-5.15,2.93-7.49-0.03c-2.03-2.58-2.95-5.58-3.1-8.82c-0.02-0.44,0.2-0.95,0.44-1.34
			c1.1-1.76,2.69-3.03,4.5-3.96c6.01-3.1,12.3-5.38,19-6.45c0.74-0.12,1.54-0.08,2.28,0.07c1.02,0.21,1.23,0.89,0.56,1.67
			c-0.45,0.52-0.95,1.05-1.54,1.4c-2.44,1.47-4.92,2.89-7.39,4.32c-0.29,0.17-0.6,0.31-0.89,0.47c0.05,0.11,0.09,0.23,0.14,0.34
			c5.24-1.65,10.51-3.2,15.7-4.99c5.67-1.95,11.19-4.29,16.21-7.63c1.12-0.74,2.16-1.66,3.05-2.66c1-1.12,0.69-2.55-0.66-3.23
			c-0.88-0.44-1.89-0.74-2.87-0.87c-4.17-0.55-8.27,0.12-12.34,0.94c-10.71,2.15-21.08,5.44-31.19,9.59
			c-0.31,0.13-0.63,0.23-0.94,0.35c-0.03-0.09-0.07-0.19-0.1-0.28c2.59-1.37,5.18-2.75,7.89-4.18c-2.12-1.11-4.26-1.36-6.47-1.22
			c-5.67,0.35-9.42,3.45-10.83,8.94c-0.04,0.17-0.04,0.37-0.13,0.5c-0.25,0.37-0.47,0.86-0.83,1.06c-4.11,2.27-8.3,4.42-12.37,6.75
			c-5.23,3-10.3,6.27-14.76,10.36c-1.29,1.19-2.48,2.55-3.44,4.02c-1.18,1.8-0.4,3.22,1.73,3.24c1.83,0.01,3.7-0.15,5.48-0.54
			c6.86-1.5,13.38-4.05,19.86-6.69c2.83-1.15,5.62-2.39,8.48-3.61c0.25,0.44,0.47,0.87,0.72,1.29c1.21,2.08,2.46,4.14,4.51,5.54
			c2.07,1.41,3.95,1.25,5.76-0.47c0.47-0.45,0.89-0.94,1.48-1.56c-0.05,0.46-0.07,0.72-0.11,0.98c-0.37,2.29-0.51,4.57,0.07,6.84
			c0.53,2.06,1.68,2.9,3.81,2.76c1.07-0.07,2.14-0.24,3.21-0.4c3.73-0.55,4.9,0.43,4.55,4.17c-0.6,6.34-1.31,12.68-2.01,19.01
			c-0.58,5.24-0.84,10.41,0.18,15.68c1.4,7.24,1.68,14.59,0.59,21.94c-0.55,3.71-1.08,7.43-1.64,11.25
			C247.34,140.24,247.41,140.15,247.44,140.06z M224.93,66.55c-1.8,0.9-2.87,3.83-2.33,6.36c1.4-5.01,4.31-6.35,9.24-4.06
			C229.72,66.42,226.94,65.55,224.93,66.55z"/>
	</g>
</g>
<g id="Logo9">
</g>
<g id="Logo10">
</g>
<g id="Logo11">
</g>
<g id="Logo12">
</g>
<g id="Logo13">
</g>
<g id="Logo14">
</g>
<g id="Logo15">
</g>
</svg>
