<?xml version="1.0" encoding="utf-8"?>
<!-- Generator: Adobe Illustrator 27.8.1, SVG Export Plug-In . SVG Version: 6.00 Build 0)  -->
<svg version="1.1" xmlns="http://www.w3.org/2000/svg" xmlns:xlink="http://www.w3.org/1999/xlink" x="0px" y="0px"
	 viewBox="0 0 350 230" style="enable-background:new 0 0 350 230;" xml:space="preserve">
<style type="text/css">
	.st0{fill:#E4335A;}
	.st1{fill:#005199;}
	.st2{fill:#AD0000;}
	.st3{fill:#00E2E2;}
	.st4{fill:#003F33;}
	.st5{fill:#600068;}
	.st6{fill:#664600;}
	.st7{fill:#DAB038;}
	.st8{fill:#466F85;}
	.st9{fill:#57D4FF;}
	.st10{fill:#99042B;}
	.st11{fill:#BF882F;}
	.st12{fill:#B0C1C1;}
	.st13{fill:#689FC1;}
	.st14{fill:#0035AA;}
	.st15{fill:#CEC1A3;}
	.st16{fill:#AC8746;}
	.st17{fill:#F2EBDD;}
	.st18{fill:#350B00;}
	.st19{fill:#ECC752;}
	.st20{fill:#005468;}
	.st21{stroke:#000000;stroke-width:0.25;stroke-miterlimit:10;}
	.st22{fill:#EFECFF;}
	.st23{fill:#FFDE98;}
	.st24{fill:#5B3F00;}
	.st25{fill:#826834;}
	.st26{fill:none;stroke:#5B3F00;stroke-width:2;stroke-miterlimit:10;}
	.st27{fill:#FFBE00;}
	.st28{fill:#9B8D75;}
	.st29{fill:#FFFFFF;}
	.st30{fill:#FFFF00;}
	.st31{fill:#FFBF00;}
	.st32{fill:#FFA500;}
	.st33{fill:#B7F3F9;}
	.st34{fill:#B78802;}
</style>
<g id="Logo1">
</g>
<g id="Logo2">
</g>
<g id="Logo3">
</g>
<g id="Logo4">
</g>
<g id="Logo5">
</g>
<g id="Logo6">
</g>
<g id="Logo7">
</g>
<g id="Logo8">
</g>
<g id="Logo9">
	<g>
		<path class="st12" d="M175,14.48c-39,0-70.62,31.62-70.62,70.62c0,6,0.75,11.83,2.16,17.39c1.91,7.52,5.02,14.56,9.13,20.9h118.66
			c4.11-6.34,7.22-13.38,9.13-20.9c1.43-5.56,2.17-11.39,2.17-17.39C245.63,46.1,214.01,14.48,175,14.48z M175,98.45
			c-13.71-0.27-18.27-17.14-28.29-19.87c0.1-15.53,12.73-28.09,28.29-28.09c15.57,0,28.18,12.56,28.29,28.09
			C193.27,81.32,188.71,98.18,175,98.45z M137.03,89.82c0.37-2.38,2.43-4.19,4.9-4.19c2.75,0,4.98,2.22,4.98,4.97
			c0,2.75-2.23,4.98-4.98,4.98c-1.26,0-2.41-0.47-3.29-1.26C138.02,92.86,137.48,91.36,137.03,89.82z M208.06,95.57
			c-2.74,0-4.97-2.23-4.97-4.98c0-2.75,2.23-4.97,4.97-4.97c2.47,0,4.52,1.79,4.9,4.16c-0.44,1.56-0.98,3.07-1.61,4.54
			C210.47,95.11,209.32,95.57,208.06,95.57z"/>
		<path class="st13" d="M175,39.28c-21.83,0-39.52,17.69-39.52,39.51c0,0.85,0.03,1.7,0.09,2.54c0.18,2.93,0.69,5.78,1.47,8.5
			c0.37-2.38,2.43-4.19,4.9-4.19c2.75,0,4.98,2.22,4.98,4.97c0,2.75-2.23,4.98-4.98,4.98c-1.26,0-2.41-0.47-3.29-1.26
			c6.02,14.11,20.03,24,36.35,24c16.3,0,30.31-9.88,36.35-23.98c-0.88,0.77-2.02,1.24-3.29,1.24c-2.74,0-4.97-2.23-4.97-4.98
			c0-2.75,2.23-4.97,4.97-4.97c2.47,0,4.52,1.79,4.9,4.16c0.79-2.71,1.29-5.54,1.47-8.47c0.06-0.84,0.08-1.69,0.08-2.54
			C214.52,56.97,196.82,39.28,175,39.28z M175,107.09c-15.63,0-28.29-12.67-28.29-28.3c0-0.07,0-0.14,0.01-0.21
			c0.1-15.53,12.73-28.09,28.29-28.09c15.57,0,28.18,12.56,28.29,28.09c0.01,0.07,0.01,0.14,0.01,0.21
			C203.29,94.42,190.63,107.09,175,107.09z"/>
		<path class="st14" d="M243.45,102.49c-12.96-2.86-20.75-15.28-29.02-21.17c-2.67-1.91-5.39-3.12-8.36-3.12
			c-0.98,0-1.91,0.13-2.79,0.38c-10.01,2.74-14.58,19.6-28.29,19.87c-13.71-0.27-18.27-17.14-28.29-19.87
			c-0.88-0.25-1.81-0.38-2.79-0.38c-2.96,0-5.68,1.22-8.36,3.12c-8.27,5.89-16.06,18.31-29.02,21.17c-0.04,0.01-0.09,0.02-0.12,0.03
			l7.44,32.1l8.1-4.06l6.42,51.01h93.24l6.42-51.01l8.11,4.06l7.43-32.1C243.54,102.51,243.49,102.5,243.45,102.49z M208.06,85.63
			c2.47,0,4.52,1.79,4.9,4.16c-0.44,1.56-0.98,3.07-1.61,4.54c-0.88,0.77-2.02,1.24-3.29,1.24c-2.74,0-4.97-2.23-4.97-4.98
			C203.09,87.85,205.32,85.63,208.06,85.63z M141.93,85.63c2.75,0,4.98,2.22,4.98,4.97c0,2.75-2.23,4.98-4.98,4.98
			c-1.26,0-2.41-0.47-3.29-1.26c-0.63-1.45-1.17-2.96-1.61-4.49C137.4,87.45,139.46,85.63,141.93,85.63z"/>
		<path class="st13" d="M212.96,89.8c-0.44,1.56-0.98,3.07-1.61,4.54c1.04-0.92,1.69-2.25,1.69-3.74
			C213.04,90.33,213.02,90.05,212.96,89.8z M137.03,89.82c-0.05,0.25-0.07,0.51-0.07,0.77c0,1.48,0.65,2.81,1.68,3.72
			C138.02,92.86,137.48,91.36,137.03,89.82z"/>
	</g>
</g>
<g id="Logo10">
</g>
<g id="Logo11">
</g>
<g id="Logo12">
</g>
<g id="Logo13">
</g>
<g id="Logo14">
</g>
<g id="Logo15">
</g>
</svg>
