<?xml version="1.0" encoding="utf-8"?>
<!-- Generator: Adobe Illustrator 27.8.1, SVG Export Plug-In . SVG Version: 6.00 Build 0)  -->
<svg version="1.1" xmlns="http://www.w3.org/2000/svg" xmlns:xlink="http://www.w3.org/1999/xlink" x="0px" y="0px"
	 viewBox="0 0 350 230" style="enable-background:new 0 0 350 230;" xml:space="preserve">
<style type="text/css">
	.st0{fill:#E4D027;}
	.st1{fill:#14A639;}
	.st2{fill:#9ED834;}
	.st3{fill:#0B8813;}
	.st4{fill:#FEFEFE;}
	.st5{fill:#6BC53C;}
	.st6{fill:#89E051;}
	.st7{fill:#E2BF2B;}
	.st8{fill:#0C8149;}
	.st9{fill:#5B3A00;}
	.st10{fill:#72721D;}
	.st11{fill:#355600;}
	.st12{fill:#603200;}
	.st13{fill:#2BC152;}
	.st14{fill:#DCE041;}
	.st15{fill:#BCAF15;}
	.st16{fill:#0B7E21;}
	.st17{fill:#5C9E23;}
	.st18{fill:#0C4710;}
	.st19{fill:#00760D;}
	.st20{fill:#459B02;}
	.st21{fill:#FCAC01;}
	.st22{fill:#AEC600;}
	.st23{fill:#545913;}
	.st24{fill:#953327;}
	.st25{fill:#ABCB13;}
	.st26{fill:#FFE566;}
	.st27{fill:#72DD2C;}
	.st28{fill:url(#SVGID_1_);}
	.st29{fill:url(#SVGID_00000128450523739531792210000005208652442622521480_);}
	.st30{fill:url(#SVGID_00000094588721816661615530000016305860768201700781_);}
	.st31{fill:#C1B700;}
	.st32{fill:url(#SVGID_00000057118119904478055200000002518303397987247765_);}
	.st33{fill:#2F5A11;}
	.st34{fill:url(#SVGID_00000101804859224571062440000013741463548796686252_);}
	.st35{fill:#E8CB1B;}
	.st36{fill:#AFAA00;}
</style>
<g id="Logo1">
</g>
<g id="Logo2">
</g>
<g id="Logo3">
</g>
<g id="Logo4">
</g>
<g id="Logo5">
</g>
<g id="Logo6">
	<g>
		<path class="st13" d="M137.35,114.98c0.09-0.2,0.25-0.4,0.26-0.6c0.06-1.7,0.13-3.39,0.14-5.09c0.01-2.3-1.21-3.97-2.87-5.38
			c-0.6-0.51-1.22-1-1.9-1.41c-4.63-2.81-5.88-7.17-4.89-12.05c0.14-0.7,0.35-1.39,0.56-2.21c0.45,0.7,0.81,1.34,1.24,1.92
			c1.04,1.4,2.04,2.83,3.18,4.13c1.59,1.81,3.11,3.64,3.68,6.05c0.15,0.64,0.25,1.3,0.37,1.95c0.07,0.01,0.13,0.02,0.2,0.04
			c0.09-0.24,0.23-0.47,0.25-0.72c0.11-1.36,0.18-2.72,0.28-4.08c0.18-2.51-0.81-4.5-2.68-6.12c-1.65-1.42-2.74-3.2-3.16-5.33
			c-0.21-1.05-0.29-2.13-0.3-3.2c-0.02-2.8,0.03-5.6,0.06-8.4c0-0.33,0.03-0.67,0.09-1c0.1-0.52,0.49-0.68,0.96-0.68
			c0.47,0,0.87,0.17,0.98,0.67c0.08,0.37,0.12,0.76,0.13,1.14c0.07,3.09,0.11,6.17,0.2,9.26c0.05,1.78,0.76,3.32,1.9,4.79
			c0.1-0.23,0.17-0.37,0.21-0.51c0.47-1.61,0.97-3.2,1.38-4.82c0.21-0.85,0.33-1.74,0.35-2.61c0.04-2.7,0-5.41,0-8.11
			c0-0.33,0-0.67,0-1c0.01-1,0.23-1.34,0.88-1.36c0.71-0.02,1.08,0.41,1.08,1.38c0.01,1.7,0.04,3.4-0.05,5.1
			c-0.17,3.28,0.33,6.48,1.14,9.64c0.21,0.83,0.39,1.66,0.58,2.5c0.08,0.07,0.16,0.14,0.24,0.21c0.09-0.19,0.16-0.4,0.28-0.57
			c0.99-1.53,1.68-3.16,1.7-5.02c0.04-3.11,0.08-6.22,0.12-9.33c0.01-0.93,0.33-1.33,1.03-1.33c0.74,0,1.1,0.39,1.1,1.27
			c-0.01,3.13-0.2,6.28-0.01,9.4c0.2,3.32-0.92,5.88-3.38,8.04c-1.34,1.18-2.4,2.64-2.62,4.49c-0.11,0.92-0.03,1.86,0.01,2.79
			c0.05,1.16,0.14,2.31,0.21,3.47c0.07,0.02,0.14,0.04,0.21,0.07c0.1-0.14,0.25-0.27,0.29-0.43c0.14-0.51,0.23-1.02,0.36-1.54
			c0.39-1.59,1.15-2.97,2.22-4.21c1.42-1.65,2.89-3.26,4.24-4.96c0.6-0.77,0.96-1.72,1.44-2.61c0.09,0.14,0.28,0.35,0.34,0.58
			c0.87,3.1,1,6.17-0.44,9.16c-0.93,1.91-2.4,3.31-4.2,4.4c-1.38,0.84-2.65,1.8-3.58,3.15c-1.07,1.57-1.18,3.35-1.13,5.16
			c0.03,1.1,0.09,2.2,0.17,3.3c0.02,0.28,0.16,0.55,0.24,0.82c0.08-0.01,0.16-0.01,0.23-0.02c0.09-0.38,0.2-0.76,0.26-1.15
			c0.38-2.57,1.55-4.67,3.53-6.37c1.97-1.68,3.65-3.59,4.49-6.1c0.04-0.12,0.16-0.2,0.24-0.31c0.09,0.09,0.23,0.16,0.26,0.27
			c1.08,3.98,1.13,7.84-1.68,11.2c-0.8,0.95-1.86,1.71-2.88,2.44c-1.52,1.08-2.93,2.22-3.87,3.87c-0.79,1.38-1,2.89-1.02,4.42
			c-0.03,1.84,0.03,3.68,0.07,5.52c0,0.18,0.14,0.36,0.21,0.54c0.16-0.14,0.42-0.25,0.47-0.43c0.22-0.73,0.35-1.49,0.55-2.22
			c1.58-5.81,5.47-9.56,10.8-11.98c12.67-5.74,25.83-9.99,39.43-12.88c6.84-1.45,13.72-2.79,20.62-3.96
			c4.69-0.79,9.44-1.21,14.16-1.8c0.21-0.03,0.43-0.05,0.64-0.08c1.47-0.22,1.48-0.22,1.54-1.72c0.61-14.56-3.72-27.41-13.33-38.43
			c-5.81-6.67-12.67-11.89-20.93-15.18c-7.98-3.17-16.25-4.47-24.81-3.54c-7.16,0.77-13.8,3.18-20.01,6.78
			c-13.16,7.64-21.77,18.86-26.09,33.39c-1.7,5.73-2.28,11.62-1.93,17.59c0.06,1,0.01,2,0.01,3.1c-1.34,0-2.71,0-4.23,0
			c-0.11-1.83-0.3-3.71-0.33-5.59c-0.17-13.91,4.24-26.29,12.59-37.32c8.96-11.84,20.98-18.8,35.37-21.84
			c5.97-1.26,12-1.45,18.05-0.58c7.02,1.01,13.56,3.41,19.7,6.92c7.92,4.52,14.69,10.34,19.89,17.88
			c5.4,7.82,8.75,16.46,10.12,25.86c0.8,5.49,0.63,10.96-0.28,16.43c-0.13,0.78-0.48,1.03-1.22,1.07c-2.7,0.13-5.41,0.15-8.09,0.48
			c-5,0.61-10,1.28-14.97,2.13c-7.73,1.32-15.34,3.2-22.84,5.5c-10.14,3.11-20,6.94-29.23,12.23c-6.09,3.49-11.6,7.75-16.59,12.68
			c-0.15,0.15-0.31,0.3-0.47,0.44c-0.05,0.04-0.13,0.06-0.23,0.1c-6.79-5.74-12.2-12.6-16.5-20.37c1.63-1.19,3.3-1.34,4.77-0.24
			c4.36,3.26,7.85,7.2,9.51,12.51c0.25,0.8,0.4,1.62,0.61,2.43c0.07,0.27,0.15,0.53,0.39,0.82c0.07-0.15,0.18-0.3,0.19-0.45
			c0.06-2.25,0.22-4.5,0.14-6.74c-0.11-3.15-1.73-5.58-4.42-7.03c-5.28-2.85-6.7-8.43-4.83-13.82c0.04-0.11,0.08-0.23,0.15-0.44
			c0.18,0.4,0.32,0.73,0.47,1.06c0.84,1.88,2.19,3.35,3.7,4.7c2.17,1.94,3.68,4.26,4.05,7.21c0.03,0.27,0.15,0.54,0.23,0.81
			C137.21,114.96,137.28,114.97,137.35,114.98z"/>
		<path class="st14" d="M179.39,142.35c1.36,0.4,2.58,0.74,3.78,1.13c0.72,0.23,1.31,0.05,1.85-0.43
			c9.21-8.3,20.02-13.59,31.91-16.82c1.05-0.29,2.12-0.52,3.18-0.78c0.06,0.07,0.12,0.15,0.17,0.22c-0.71,0.91-1.36,1.89-2.15,2.73
			c-3.57,3.8-7.75,6.87-12.03,9.82c-6.53,4.5-13.71,7.36-21.5,8.65c-10.45,1.73-20.63,0.72-30.49-3.21
			c-4.05-1.62-7.92-3.58-11.48-6.14c-0.23-0.16-0.45-0.34-0.74-0.56c0.91-0.79,1.77-1.53,2.62-2.29c7.67-6.8,16.45-11.77,25.86-15.7
			c11.14-4.65,22.64-8.15,34.48-10.54c5.79-1.17,11.63-2,17.52-2.5c2.22-0.19,4.42-0.45,6.64-0.66c0.59-0.05,1.19-0.01,1.9-0.01
			c-0.43,1.2-0.81,2.37-1.27,3.5c-0.9,2.26-0.26,1.9-2.74,2.18c-2.73,0.31-5.5,0.4-8.2,0.88c-4.23,0.75-8.45,1.6-12.61,2.67
			c-12.69,3.3-24.67,8.3-35.59,15.63c-3.17,2.13-6.05,4.67-9.06,7.03c-0.73,0.58-1.45,1.18-2.16,1.78
			c-0.32,0.27-0.61,0.58-1.03,0.97c1.5,0.44,2.86,0.87,4.24,1.2c0.33,0.08,0.84-0.08,1.09-0.32c8.33-7.64,18.09-12.89,28.5-17.06
			c6.91-2.77,13.95-5.09,21.24-6.64c4.21-0.89,8.45-1.63,12.75-1.94c0.24-0.02,0.47,0,0.72,0c-1.16,2.95-2.76,5.34-6.22,5.95
			c-5.95,1.06-11.7,2.83-17.24,5.24c-8.05,3.5-15.32,8.2-21.8,14.11C180.86,141.08,180.17,141.67,179.39,142.35z M188.19,65.85
			c-0.05-7.33-5.89-13.14-13.16-13.1c-7.32,0.04-13.06,5.86-13.02,13.21c0.05,7.29,5.71,13.03,12.81,12.98
			C182.45,78.87,188.25,73.2,188.19,65.85z M191.64,48.03c-1.55,1.48-3.07,3-4.56,4.55c-0.45,0.47-0.47,1.08-0.07,1.65
			c0.43,0.6,1.07,0.82,1.76,0.56c0.3-0.12,0.61-0.29,0.84-0.51c1-0.93,1.98-1.87,2.94-2.83c0.52-0.52,1.04-1.06,1.44-1.67
			c0.6-0.92-0.11-2.08-1.25-2.16C192.38,47.73,191.91,47.77,191.64,48.03z M155.86,49.02c0.29,0.55,0.47,1.2,0.88,1.63
			c1.25,1.31,2.58,2.54,3.91,3.78c0.78,0.73,1.58,0.71,2.26,0c0.67-0.7,0.63-1.35-0.18-2.17c-1.13-1.13-2.25-2.27-3.41-3.37
			c-0.44-0.42-0.92-0.85-1.46-1.13c-0.93-0.49-1.82,0.12-1.82,1.17C155.98,48.96,155.92,48.99,155.86,49.02z M193.71,82.36
			c0.71-0.64,0.65-1.64-0.18-2.46c-1.22-1.21-2.47-2.4-3.73-3.57c-0.33-0.3-0.76-0.49-1.16-0.7c-0.11-0.06-0.29-0.1-0.39-0.05
			c-1.26,0.6-1.67,1.63-0.76,2.71c1.21,1.44,2.61,2.72,3.98,4.03c0.3,0.29,0.79,0.39,1.24,0.6
			C193.07,82.72,193.44,82.6,193.71,82.36z M155.99,81.19c-0.15,0.87,0.36,1.41,1.04,1.59c0.41,0.11,1.03-0.14,1.39-0.42
			c0.82-0.65,1.55-1.42,2.31-2.15c0.67-0.64,1.37-1.27,2.01-1.94c0.67-0.7,0.62-1.48-0.05-2.16c-0.63-0.64-1.37-0.69-2.03-0.09
			c-1.38,1.25-2.76,2.5-4.09,3.81c-0.34,0.34-0.5,0.87-0.74,1.31C155.87,81.16,155.93,81.18,155.99,81.19z M121.5,102.81
			c-1.64,0-2.95,1.28-2.94,2.88c0.02,1.58,1.19,2.73,2.79,2.74c1.63,0.01,2.9-1.19,2.89-2.73
			C124.24,104.08,123.03,102.8,121.5,102.81z M195.53,66.53c1,0,2.01,0.03,3.01-0.01c0.95-0.04,1.46-0.56,1.48-1.4
			c0.01-0.86-0.53-1.44-1.47-1.51c-0.52-0.04-1.05-0.02-1.58-0.01c-1.48,0.02-2.96,0.01-4.44,0.08c-0.93,0.04-1.35,0.58-1.33,1.52
			c0.02,0.85,0.45,1.32,1.33,1.35c1,0.03,2,0.01,3.01,0.01C195.53,66.54,195.53,66.54,195.53,66.53z M154.52,66.54
			c0.96,0,1.91,0.02,2.87,0c1.05-0.02,1.64-0.55,1.64-1.41c0-0.81-0.66-1.49-1.6-1.5c-1.93-0.02-3.87-0.01-5.81,0.04
			c-0.95,0.02-1.47,0.58-1.47,1.42c0.01,0.89,0.55,1.43,1.5,1.45C152.61,66.56,153.57,66.54,154.52,66.54
			C154.52,66.54,154.52,66.54,154.52,66.54z M173.55,45.07c0,0.88-0.01,1.77,0,2.65c0.02,1.08,0.48,1.57,1.41,1.58
			c1.01,0.01,1.5-0.47,1.54-1.55c0.03-0.9,0.04-1.81,0.05-2.72c0.01-0.91,0.05-1.82-0.01-2.72c-0.08-1.01-0.68-1.48-1.68-1.44
			c-0.84,0.04-1.28,0.54-1.31,1.54C173.54,43.3,173.55,44.19,173.55,45.07C173.55,45.07,173.55,45.07,173.55,45.07z M173.53,86.3
			c0,0.79-0.01,1.57,0,2.36c0.01,1.07,0.46,1.63,1.34,1.69c0.95,0.07,1.62-0.48,1.66-1.55c0.07-1.69,0.07-3.39,0.01-5.08
			c-0.03-0.96-0.65-1.47-1.52-1.45c-0.88,0.02-1.45,0.63-1.47,1.59c-0.02,0.81,0,1.62,0,2.43C173.54,86.3,173.53,86.3,173.53,86.3z
			 M152.64,56.45c-0.19,0.69-0.01,1.3,0.62,1.59c1.56,0.71,3.14,1.36,4.73,2.02c0.16,0.07,0.44,0.11,0.53,0.02
			c0.35-0.35,0.84-0.72,0.93-1.15c0.12-0.55-0.19-1.09-0.81-1.36c-1.37-0.6-2.72-1.25-4.09-1.87c-0.24-0.11-0.5-0.16-0.69-0.23
			C153.15,55.49,152.8,55.85,152.64,56.45z M191.92,60.17c1.61-0.78,3.22-1.56,4.8-2.39c0.25-0.13,0.5-0.46,0.56-0.73
			c0.18-0.96-0.81-1.76-1.73-1.38c-1.45,0.6-2.87,1.28-4.31,1.91c-0.57,0.25-0.73,0.7-0.74,1.06
			C190.47,59.59,191.37,60.44,191.92,60.17z M157.86,70.43c-1.48,0.52-2.94,1.12-4.4,1.71c-0.65,0.26-0.81,0.85-0.77,1.48
			c0.04,0.65,1.08,1.36,1.59,1.13c1.46-0.66,2.9-1.35,4.37-1.99c0.54-0.24,0.78-0.6,0.73-1.09
			C159.37,70.65,158.73,70.12,157.86,70.43z M184.17,44.43c-0.61-0.19-1.12,0.04-1.37,0.61c-0.63,1.41-1.23,2.85-1.83,4.27
			c-0.23,0.54,0.03,0.93,0.47,1.22c0.79,0.52,1.64,0.25,2.15-0.77c0.59-1.17,1.08-2.39,1.6-3.6c0.06-0.15,0.06-0.33,0.07-0.4
			C185.26,44.94,184.77,44.61,184.17,44.43z M196.6,72.35c-1.51-0.59-2.99-1.23-4.5-1.81c-0.25-0.09-0.68-0.08-0.84,0.07
			c-0.29,0.29-0.53,0.7-0.62,1.09c-0.1,0.48,0.2,0.84,0.67,1.05c1.39,0.62,2.77,1.27,4.16,1.89c0.85,0.38,1.81-0.25,1.82-1.28
			C197.32,72.92,197.14,72.56,196.6,72.35z M168.97,49c-0.49-1.26-1.05-2.51-1.62-3.74c-0.27-0.58-1.19-0.91-1.79-0.73
			c-0.48,0.14-1.12,1.1-0.94,1.45c0.71,1.38,1.41,2.76,2.17,4.11c0.17,0.3,0.57,0.46,0.87,0.69C168.66,50.66,169.3,49.84,168.97,49z
			 M183.42,81.4c-0.37-0.69-1.12-0.91-1.83-0.58c-0.54,0.25-0.79,0.92-0.5,1.6c0.48,1.17,1,2.33,1.56,3.45
			c0.14,0.27,0.5,0.49,0.81,0.6c1.06,0.38,1.48-0.45,2-1.16C184.79,84.03,184.12,82.71,183.42,81.4z M167.13,86.11
			c0.69-1.25,1.28-2.55,1.84-3.86c0.23-0.55-0.19-1.25-0.72-1.47c-0.62-0.26-1.12-0.09-1.49,0.56c-0.66,1.13-1.3,2.27-1.94,3.42
			c-0.43,0.77,0.23,1.86,1.19,1.98C166.39,86.53,166.95,86.43,167.13,86.11z"/>
	</g>
</g>
<g id="Logo7">
</g>
<g id="Logo8">
</g>
<g id="Logo9">
</g>
<g id="Logo10">
</g>
<g id="Logo11">
</g>
<g id="Logo12">
</g>
<g id="Logo13">
</g>
<g id="Logo14">
</g>
<g id="Logo15">
</g>
</svg>
