<?xml version="1.0" encoding="utf-8"?>
<!-- Generator: Adobe Illustrator 27.8.1, SVG Export Plug-In . SVG Version: 6.00 Build 0)  -->
<svg version="1.1" xmlns="http://www.w3.org/2000/svg" xmlns:xlink="http://www.w3.org/1999/xlink" x="0px" y="0px"
	 viewBox="0 0 350 230" style="enable-background:new 0 0 350 230;" xml:space="preserve">
<style type="text/css">
	.st0{fill:#E4D027;}
	.st1{fill:#14A639;}
	.st2{fill:#9ED834;}
	.st3{fill:#0B8813;}
	.st4{fill:#FEFEFE;}
	.st5{fill:#6BC53C;}
	.st6{fill:#89E051;}
	.st7{fill:#E2BF2B;}
	.st8{fill:#0C8149;}
	.st9{fill:#5B3A00;}
	.st10{fill:#72721D;}
	.st11{fill:#355600;}
	.st12{fill:#603200;}
	.st13{fill:#2BC152;}
	.st14{fill:#DCE041;}
	.st15{fill:#BCAF15;}
	.st16{fill:#0B7E21;}
	.st17{fill:#5C9E23;}
	.st18{fill:#0C4710;}
	.st19{fill:#00760D;}
	.st20{fill:#459B02;}
	.st21{fill:#FCAC01;}
	.st22{fill:#AEC600;}
	.st23{fill:#545913;}
	.st24{fill:#953327;}
	.st25{fill:#ABCB13;}
	.st26{fill:#FFE566;}
	.st27{fill:#72DD2C;}
	.st28{fill:url(#SVGID_1_);}
	.st29{fill:url(#SVGID_00000064350909960250145540000001043355135864425089_);}
	.st30{fill:url(#SVGID_00000117639430507623997330000014902355427480628406_);}
	.st31{fill:#C1B700;}
	.st32{fill:url(#SVGID_00000071543447503646203580000013711264526955918247_);}
	.st33{fill:#2F5A11;}
	.st34{fill:url(#SVGID_00000021104673602568370400000009731824082272491904_);}
	.st35{fill:#E8CB1B;}
	.st36{fill:#AFAA00;}
</style>
<g id="Logo1">
</g>
<g id="Logo2">
	<g>
		<path d="M228.13,82.42c-2.33-0.53-4.65-1.09-6.99-1.58c-6.34-1.31-12.74-1.93-19.22-1.76c-12.58,0.33-24.65,3.07-36.29,7.8
			c-4.71,1.92-9.2,4.28-13.59,6.84c-0.21,0.12-0.55,0.16-0.77,0.08c-4.05-1.54-8.09-3.11-12.14-4.67c-0.02-0.01-0.04-0.03-0.15-0.11
			c4.74-2.3,9.67-3.94,14.71-5.59c-2.59-1.37-3.2-2.29-3.62-5.46c-4.12,0.59-8.24,1.18-12.17,1.74c0,1.37,0.18,2.67-0.04,3.9
			c-0.5,2.85-2.8,4.85-5.9,5.38c-2.64,0.45-5.37-0.84-6.86-3.24c-1.39-2.25-1.21-5.27,0.5-7.57c0.28-0.38,0.35-0.69,0.2-1.15
			c-0.6-1.77-1.17-3.55-1.73-5.33c-0.14-0.43-0.28-0.86-0.34-1.3c-0.13-0.97,0.54-1.77,1.51-1.83c0.55-0.03,1.1-0.01,1.72-0.01
			c0.02-0.34,0.06-0.6,0.06-0.85c0-1.87-0.01-3.74-0.01-5.61c0-0.41-0.01-0.73-0.47-0.95c-0.61-0.3-0.65-0.92-0.52-1.52
			c0.13-0.6,0.56-0.86,1.15-0.87c0.63-0.01,1.26-0.02,1.89-0.03c0.68-0.01,0.99,0.4,1.13,1c0.13,0.56-0.01,1.02-0.52,1.37
			c-0.21,0.14-0.48,0.39-0.48,0.59c-0.03,2.23-0.02,4.47-0.02,6.8c0.3,0.01,0.55,0.04,0.8,0.03c3.61-0.02,7.21-0.03,10.82-0.05
			c1.3-0.01,1.58,0.23,1.59,1.55c0.02,1.92-0.01,3.84-0.02,5.76c0,0.26,0,0.51,0,0.86c1.07-0.08,2.06-0.13,3.04-0.24
			c0.14-0.01,0.35-0.26,0.35-0.4c0.02-2.81,0.02-5.62,0.02-8.45c-0.54-0.03-0.98-0.02-1.42-0.07c-0.53-0.06-0.9-0.33-0.88-0.92
			c0.03-0.58,0.42-0.82,0.96-0.83c1.39-0.02,2.79-0.03,4.19-0.03c0.58,0,1,0.27,1.04,0.85c0.05,0.62-0.37,0.88-0.95,0.92
			c-0.23,0.02-0.47,0.04-0.77,0.06c0,0.31,0,0.61,0,0.89c3.05,0,6.08,0,9.36,0c-0.42-0.73-0.72-1.26-1.03-1.78
			c-0.29-0.5-0.63-0.97-0.89-1.49c-0.28-0.54-0.29-1.09,0.31-1.45c0.56-0.34,1.11-0.22,1.45,0.31c0.94,1.46,1.88,2.92,2.73,4.43
			c0.49,0.87,0.01,1.62-1.03,1.69c-2.07,0.13-4.15,0.19-6.23,0.28c-1.32,0.05-2.63,0.11-3.95,0.12c-0.54,0.01-0.73,0.18-0.72,0.74
			c0.03,1.6,0.01,3.19,0.01,4.86c1.04-0.11,1.93-0.18,2.81-0.31c0.22-0.03,0.44-0.25,0.61-0.43c1.94-2.12,4.7-2.34,6.83-0.54
			c1.96,1.66,2.18,4.69,0.49,6.82c-0.03,0.03-0.02,0.09-0.06,0.25c1.05-0.26,2.06-0.5,3.06-0.77c6.53-1.76,13.15-3.11,19.85-4.02
			c6.47-0.88,12.97-1.43,19.51-1.29c7.63,0.17,15.09,1.29,22.23,4.06c1.68,0.65,3.28,1.5,4.92,2.25
			C228.19,82.27,228.16,82.35,228.13,82.42z M135.74,83.39c0.66-1.86-0.36-4.2-2.16-5.23c-2.11-1.22-4.53-0.87-6.02,0.87
			c-1.6,1.87-1.67,4.36-0.16,6.22c1.37,1.7,3.93,2.23,5.9,1.17c-0.64-1.2-1.43-2.27-2.6-2.98c-0.81-0.5-1.24-1.19-1.39-2.09
			c-0.13-0.75-0.27-1.5-0.33-2.26c-0.02-0.21,0.2-0.58,0.37-0.63c1.3-0.38,2.6-0.38,3.81,0.33
			C134.83,79.79,135.54,81.37,135.74,83.39z M157.66,78.58c0.01-1.44-1.19-2.68-2.62-2.7c-1.44-0.03-2.72,1.2-2.71,2.6
			c0,1.48,1.18,2.72,2.59,2.73C156.48,81.23,157.66,80.1,157.66,78.58z"/>
		<path class="st6" d="M214.63,101.56c0.38,2.93-0.83,5.32-2.5,7.52c-3.25,4.29-7.85,6.52-12.88,8.34c0.86-3.14,1.13-6.1-0.96-8.79
			c0.08,0.58,0.19,1.16,0.24,1.75c0.15,1.85-0.58,3.44-1.5,4.98c-0.54,0.9-1.11,1.79-1.59,2.73c-0.31,0.59-0.72,0.87-1.36,1.03
			c-4.71,1.17-9.29,2.71-13.55,5.09c-0.91,0.51-1.78,1.09-2.73,1.67c0.18-1.86,0.77-3.59,1.49-5.27c2.51-5.91,6.61-10.6,11.46-14.67
			c6.34-5.31,13.6-9.06,21.26-12.03c7.25-2.81,14.69-4.99,22.37-6.27c2.46-0.41,4.95-0.7,7.42-1.04c0.25-0.03,0.51-0.03,0.87-0.05
			c-0.34,0.77-0.67,1.45-0.95,2.15c-2.03,5.02-4.09,10.03-6.06,15.08c-2.98,7.64-6.65,14.89-11.84,21.3
			c-4.65,5.75-10.02,10.67-16.62,14.1c-4.52,2.35-9.3,3.78-14.47,3.62c-5.79-0.18-10.7-2.26-14.52-6.71
			c-0.83-0.96-0.81-0.97-0.03-1.94c2.57-3.23,5.74-5.71,9.47-7.46c1.8-0.85,3.7-1.5,5.56-2.22c0.23-0.09,0.55-0.14,0.75-0.05
			c1.69,0.78,3.38,1.58,5.04,2.43c0.65,0.33,1.21,0.83,1.96,1.35c-0.86-2.16-2.37-3.56-4.17-4.91c0.71-0.23,1.28-0.48,1.88-0.58
			c0.27-0.05,0.62,0.17,0.9,0.34c1.75,1.06,3.43,2.27,5.25,3.17c2.28,1.13,4.79,1.31,7.34,1.22c-3.9-0.93-6.9-3.26-9.7-6.06
			c0.89-0.46,1.68-1.08,2.57-1.28c0.86-0.2,1.82-0.02,2.72,0.07c3.51,0.34,6.99,0.34,10.4-0.7c0.82-0.25,1.62-0.59,2.41-0.98
			c-3.69,0.19-7.31,0.07-10.79-1.34c1.09-1.23,2.23-2.37,3.18-3.63c1.85-2.46,2.98-5.2,2.81-8.35
			C215.71,103.87,215.4,102.64,214.63,101.56z M107.33,87.05c3.12,0.6,6.03,1.16,8.94,1.72c7.56,1.46,14.93,3.59,22.11,6.35
			c6.56,2.52,12.79,5.7,18.38,10c5.11,3.93,9.34,8.64,12.14,14.52c0.88,1.85,1.51,3.8,1.87,6.01c-0.72-0.44-1.31-0.79-1.9-1.15
			c-4.14-2.55-8.64-4.21-13.34-5.37c-0.63-0.16-1.07-0.41-1.37-1.01c-0.47-0.94-1.03-1.84-1.58-2.73c-1.27-2.07-1.96-4.24-1.23-6.73
			c-1.65,1.23-2,4.77-0.85,8.78c-0.55-0.19-1.03-0.33-1.5-0.51c-4.24-1.6-8.12-3.74-11.09-7.27c-1.33-1.59-2.44-3.31-2.86-5.38
			c-0.17-0.84-0.16-1.71-0.4-2.64c-0.24,0.8-0.57,1.59-0.7,2.41c-0.51,3.35,0.57,6.31,2.56,8.93c0.96,1.27,2.19,2.34,3.3,3.49
			c0.18,0.18,0.38,0.34,0.63,0.56c-3.51,1.48-7.08,1.79-10.76,1.44c-0.02,0.07-0.03,0.14-0.05,0.21c0.69,0.26,1.36,0.55,2.06,0.76
			c3.69,1.14,7.48,1.29,11.25,0.7c1.77-0.28,2.99,0.54,4.39,1.27c-2.98,2.65-5.99,5.1-9.98,5.93c0.02,0.09,0.04,0.17,0.06,0.26
			c1.23-0.1,2.47-0.15,3.69-0.31c3.24-0.43,6.04-1.89,8.63-3.83c1.17-0.88,1.54-0.87,2.98-0.05c-1.77,1.26-3.26,2.72-4.05,4.79
			c1.95-1.74,4.42-2.5,6.71-3.6c0.25-0.12,0.62-0.15,0.88-0.07c5.78,1.91,10.77,4.97,14.47,9.92c0.32,0.43,0.56,0.75,0.09,1.33
			c-3.75,4.66-8.67,6.86-14.57,7.03c-4.7,0.13-9.04-1.2-13.2-3.25c-6.67-3.29-12-8.18-16.69-13.86
			c-5.37-6.49-9.07-13.89-12.17-21.65c-2.14-5.38-4.33-10.73-6.5-16.1C107.58,87.73,107.5,87.51,107.33,87.05z M111.3,82.7
			c0.31-1.71,0.57-3.37,0.93-5.01c1.64-7.57,4.36-14.72,8.46-21.31c7.66-12.31,18.06-21.4,31.62-26.74
			c9.4-3.7,19.13-5.15,29.18-4.14c11.29,1.13,21.47,5.23,30.55,11.97c10.87,8.06,18.48,18.6,23.12,31.29
			c1.56,4.26,2.59,8.66,3.3,13.14c0.08,0.54-0.03,0.84-0.59,0.97c-0.64,0.15-1.26,0.37-1.89,0.56c-0.1,0.03-0.2,0.01-0.37,0.02
			c-0.17-0.96-0.34-1.91-0.52-2.86c-2.87-15.48-10.31-28.34-22.35-38.44c-7.41-6.22-15.93-10.37-25.43-12.43
			c-11.95-2.59-23.55-1.36-34.8,3.3c-11.64,4.82-20.85,12.63-27.86,23.07c-5.16,7.68-8.35,16.13-9.97,25.21
			c-0.13,0.7-0.23,1.4-0.34,2.1c-0.01,0.05-0.05,0.09-0.12,0.21C113.29,83.33,112.35,83.03,111.3,82.7z M164.77,103.02
			c-2.64-1.99-5.26-3.96-7.98-6.01c1.01-0.63,2.03-1.3,3.08-1.91c7.56-4.43,15.59-7.75,24.05-9.95c7.72-2.01,15.58-3.1,23.58-2.78
			c3.27,0.13,6.49,0.55,9.63,1.51c0.25,0.08,0.49,0.16,0.71,0.19C197.52,83.07,179.96,89.76,164.77,103.02z M174.3,114.19
			c-1.73-2.27-3.41-4.48-5.14-6.74c11.53-13.1,26.42-18.89,43.41-20.14c0.03,0.08,0.07,0.15,0.1,0.23
			c-0.76,0.28-1.51,0.56-2.27,0.82c-4.67,1.63-9.28,3.41-13.68,5.7c-9.08,4.73-16.76,11.03-22.22,19.82
			C174.45,113.97,174.39,114.05,174.3,114.19z"/>
		<path class="st7" d="M189.13,73.87c-8.26,0.6-16.41,1.95-24.45,3.86c-1.58-3.59-0.94-9.15,2.8-13.03
			c3.8-3.95,9.48-5.03,14.34-2.73C186.9,64.36,189.44,69.79,189.13,73.87z M222.02,64.5c-0.2,0.2-0.5,0.7-0.94,0.9
			c-1.34,0.6-2.73,1.09-4.11,1.6c-3.42,1.27-6.85,2.53-10.28,3.79c-0.07,0.03-0.15,0.05-0.22,0.08c-0.82,0.26-1.47,0.03-1.75-0.6
			c-0.29-0.68,0.01-1.35,0.83-1.69c1.53-0.63,3.08-1.21,4.62-1.81c3.28-1.27,6.56-2.54,9.84-3.81
			C221.08,62.54,222.03,63.13,222.02,64.5z M135.94,52.53c0.3,0.13,0.7,0.26,1.05,0.47c4.01,2.4,8.02,4.81,12.02,7.21
			c0.25,0.15,0.49,0.32,0.71,0.5c0.55,0.44,0.68,0.99,0.33,1.61c-0.34,0.6-0.98,0.84-1.61,0.53c-0.77-0.39-1.5-0.87-2.24-1.31
			c-3.56-2.08-7.12-4.15-10.69-6.23c-0.67-0.39-1.12-0.87-0.92-1.72C134.74,52.94,135.22,52.68,135.94,52.53z M201.78,63.15
			c-0.3-0.28-0.79-0.52-0.88-0.86c-0.1-0.41-0.01-1.02,0.25-1.34c0.36-0.45,0.94-0.75,1.45-1.07c3.67-2.3,7.35-4.59,11.02-6.89
			c0.85-0.53,1.54-0.46,2,0.22c0.49,0.73,0.31,1.51-0.59,2.06c-3.29,2.03-6.59,4.02-9.89,6.03c-0.76,0.46-1.52,0.94-2.29,1.39
			C202.56,62.86,202.23,62.96,201.78,63.15z M155.45,55.5c-0.36,0.41-0.61,0.82-0.96,1.06c-0.5,0.34-1.02,0.16-1.43-0.25
			c-0.8-0.8-1.57-1.62-2.36-2.43c-2.35-2.4-4.71-4.8-7.07-7.2c-0.22-0.22-0.44-0.45-0.64-0.7c-0.51-0.64-0.5-1.34,0.01-1.84
			c0.58-0.58,1.36-0.62,1.97-0.01c1.09,1.1,2.14,2.25,3.2,3.37c2.08,2.19,4.16,4.38,6.23,6.58
			C154.76,54.47,155.04,54.94,155.45,55.5z M206.49,43.56c0.45,0.37,0.91,0.61,1.14,0.98c0.34,0.53,0.2,1.11-0.26,1.59
			c-1.46,1.52-2.91,3.04-4.36,4.56c-1.65,1.73-3.31,3.46-4.96,5.18c-0.9,0.94-1.6,1.1-2.23,0.51c-0.62-0.59-0.52-1.16,0.4-2.16
			c3.01-3.27,6.01-6.55,9.03-9.8C205.56,44.1,205.99,43.9,206.49,43.56z M161.35,50.73c-0.29,0.32-0.53,0.8-0.9,0.93
			c-0.37,0.13-0.89-0.04-1.29-0.2c-0.22-0.09-0.36-0.44-0.5-0.69c-1.87-3.44-3.73-6.89-5.58-10.33c-0.14-0.25-0.27-0.51-0.37-0.79
			c-0.28-0.76-0.01-1.45,0.67-1.8c0.65-0.33,1.32-0.15,1.75,0.57c0.45,0.74,0.83,1.52,1.23,2.29c1.48,2.88,2.95,5.75,4.41,8.64
			C160.98,49.74,161.12,50.16,161.35,50.73z M176.6,40.23c0,2.08,0.01,4.16,0,6.24c0,0.85-0.49,1.4-1.24,1.43
			c-0.81,0.03-1.27-0.46-1.29-1.43c-0.06-3.16-0.11-6.32-0.16-9.48c-0.02-1.08-0.05-2.16,0-3.24c0.04-0.79,0.61-1.24,1.37-1.23
			c0.71,0.01,1.26,0.55,1.31,1.31c0.02,0.24,0.01,0.47,0.01,0.71C176.6,36.44,176.6,38.34,176.6,40.23z M168.71,47.63
			c-0.01,0.78-0.44,1.17-1.1,1.29c-0.67,0.12-1.12-0.21-1.3-0.87c-0.44-1.65-0.87-3.3-1.31-4.96c-0.6-2.24-1.2-4.47-1.8-6.7
			c-0.06-0.23-0.12-0.46-0.16-0.69c-0.16-0.93,0.19-1.55,0.96-1.71c0.81-0.18,1.46,0.21,1.69,1.13c1,3.98,1.97,7.96,2.94,11.94
			C168.69,47.26,168.69,47.47,168.71,47.63z M190.84,51.83c-1.23,0.03-1.79-0.79-1.37-1.67c0.83-1.75,1.73-3.48,2.6-5.22
			c1.05-2.09,2.1-4.18,3.16-6.26c0.3-0.59,0.78-1.06,1.43-0.85c0.45,0.15,0.87,0.61,1.13,1.04c0.14,0.23,0.02,0.73-0.14,1.03
			c-1.96,3.69-3.93,7.37-5.93,11.04C191.5,51.35,191.04,51.64,190.84,51.83z M187.48,35.48c-0.05,0.25-0.12,0.61-0.21,0.96
			c-0.93,3.72-1.86,7.44-2.79,11.16c-0.04,0.18-0.1,0.36-0.16,0.53c-0.24,0.62-0.7,0.95-1.35,0.82c-0.68-0.14-1.04-0.62-0.97-1.32
			c0.05-0.49,0.18-0.98,0.29-1.47c0.84-3.66,1.69-7.32,2.54-10.98c0.2-0.87,0.8-1.33,1.56-1.21
			C187.09,34.08,187.52,34.62,187.48,35.48z"/>
	</g>
</g>
<g id="Logo3">
</g>
<g id="Logo4">
</g>
<g id="Logo5">
</g>
<g id="Logo6">
</g>
<g id="Logo7">
</g>
<g id="Logo8">
</g>
<g id="Logo9">
</g>
<g id="Logo10">
</g>
<g id="Logo11">
</g>
<g id="Logo12">
</g>
<g id="Logo13">
</g>
<g id="Logo14">
</g>
<g id="Logo15">
</g>
</svg>
