<?xml version="1.0" encoding="utf-8"?>
<!-- Generator: Adobe Illustrator 27.8.1, SVG Export Plug-In . SVG Version: 6.00 Build 0)  -->
<svg version="1.1" xmlns="http://www.w3.org/2000/svg" xmlns:xlink="http://www.w3.org/1999/xlink" x="0px" y="0px"
	 viewBox="0 0 350 230" style="enable-background:new 0 0 350 230;" xml:space="preserve">
<style type="text/css">
	.st0{fill:#E4D027;}
	.st1{fill:#14A639;}
	.st2{fill:#9ED834;}
	.st3{fill:#0B8813;}
	.st4{fill:#FEFEFE;}
	.st5{fill:#6BC53C;}
	.st6{fill:#89E051;}
	.st7{fill:#E2BF2B;}
	.st8{fill:#0C8149;}
	.st9{fill:#5B3A00;}
	.st10{fill:#72721D;}
	.st11{fill:#355600;}
	.st12{fill:#603200;}
	.st13{fill:#2BC152;}
	.st14{fill:#DCE041;}
	.st15{fill:#BCAF15;}
	.st16{fill:#0B7E21;}
	.st17{fill:#5C9E23;}
	.st18{fill:#0C4710;}
	.st19{fill:#00760D;}
	.st20{fill:#459B02;}
	.st21{fill:#FCAC01;}
	.st22{fill:#AEC600;}
	.st23{fill:#545913;}
	.st24{fill:#953327;}
	.st25{fill:#ABCB13;}
	.st26{fill:#FFE566;}
	.st27{fill:#72DD2C;}
	.st28{fill:url(#SVGID_1_);}
	.st29{fill:url(#SVGID_00000016057215266310614300000007807332836974980760_);}
	.st30{fill:url(#SVGID_00000099651423168455836160000016515821229187712687_);}
	.st31{fill:#C1B700;}
	.st32{fill:url(#SVGID_00000052810333165787275670000003750900619703569316_);}
	.st33{fill:#2F5A11;}
	.st34{fill:url(#SVGID_00000075884972589077765240000005365707346301769874_);}
	.st35{fill:#E8CB1B;}
	.st36{fill:#AFAA00;}
</style>
<g id="Logo1">
</g>
<g id="Logo2">
</g>
<g id="Logo3">
</g>
<g id="Logo4">
</g>
<g id="Logo5">
</g>
<g id="Logo6">
</g>
<g id="Logo7">
</g>
<g id="Logo8">
</g>
<g id="Logo9">
</g>
<g id="Logo10">
</g>
<g id="Logo11">
</g>
<g id="Logo12">
</g>
<g id="Logo13">
</g>
<g id="Logo14">
</g>
<g id="Logo15">
	<g>
		<path class="st33" d="M194.95,100.55l-10.65-4.47c-0.58-0.24-1.19-0.11-1.63,0.24v-0.9c1.28-0.34,2.22-1.49,2.22-2.88
			c0-0.47-0.08-0.93-0.25-1.37l-5.47-14.58c-0.29-0.77-0.81-1.43-1.5-1.88L159.2,61.05c-0.65-0.43-1.4-0.65-2.15-0.65
			c-0.75,0-1.5,0.22-2.15,0.65l-14.82,10.95V45.25h2.42c0.81,0,1.17-0.91,0.75-1.48c-0.07-0.09-0.15-0.17-0.27-0.24l-14.85-9.1
			l-14.85,9.1c-0.11,0.07-0.2,0.15-0.27,0.24c-0.42,0.57-0.06,1.48,0.75,1.48h2.12v93.95h24.2v-0.3h6.14v-37.61l11.24-4.93
			l11.24,4.93v38.68h12.04v0.3l3.66-5.01l0.1-0.14l1.16-1.59l3.85-5.27c-1.94-1.76-4.17-3.01-6.72-3.5
			c0.01-0.01,0.02-0.01,0.03-0.01c0.66,0.04,3.74,0.33,7.49,2.42l2.93-4.01c-1.78-0.49-3.63-0.81-5.56-0.92
			c0.01-0.01,0.03-0.01,0.04-0.02c0.01-0.01,0.02-0.01,0.04-0.02c0.7-0.07,2.94-0.25,6.11,0.1l0.12-0.17v-18.56
			c0.99,0.24,1.98-0.49,1.98-1.55C195.94,101.38,195.55,100.8,194.95,100.55z M120.02,50.25h6.03v7.38h-6.03V50.25z M120.02,61.85
			h6.03v7.38h-6.03V61.85z M163.32,87.12h-11.74V75.87h11.74V87.12z"/>
		<radialGradient id="SVGID_1_" cx="175" cy="123.7834" r="55.8394" gradientUnits="userSpaceOnUse">
			<stop  offset="0" style="stop-color:#FFFFFF"/>
			<stop  offset="1" style="stop-color:#2F5A11"/>
		</radialGradient>
		<path class="st28" d="M192.99,140.37h-40.04c2.93-7.52,7.44-14.31,14.29-15.62c-0.01,0-0.02-0.01-0.03-0.01
			c-1.3,0.08-12.36,1.16-18.88,15.63h-12.79c0.27-0.39,0.54-0.79,0.82-1.18h-8.34c-0.28,0.39-0.57,0.78-0.85,1.18h-15.32
			c1.22-1.55,2.56-3.12,4.03-4.66v-7.88c-4.83,3.1-9.67,7.18-14.26,12.54h-3.82v-8.56c4.65-4.45,10.68-9.03,18.08-12.28v-4.28
			c-5.74,1.34-11.88,3.6-18.08,7.27v-7.24c5.29-2.5,11.32-4.34,18.08-4.95v-1.61c-5.16-0.15-11.37,0.27-18.08,1.99v-3.53
			c6.07,0,12.1,0.38,18.08,1.12c3.45,0.43,6.87,0.98,10.27,1.66c0.34,0.07,0.68,0.14,1.02,0.21c0.26,0.05,0.53,0.11,0.79,0.16
			c0.35,0.07,0.7,0.15,1.05,0.23c0.35,0.08,0.7,0.15,1.05,0.23c5.47,1.24,10.86,2.79,16.15,4.65c0.31,0.11,0.62,0.22,0.93,0.33
			c0.02,0.01,0.04,0.01,0.05,0.02c0.03,0.01,0.04,0.01,0.04,0.01h0c7.38,2.65,14.55,5.9,21.45,9.73c2,1.11,3.97,2.26,5.92,3.47
			l0.39,0.24l0.23,0.14l0.32,0.19l8.78,5.42l0.16,0.1l2.81,1.74L192.99,140.37z M155.47,119.06c-0.32-0.06-3.84-0.73-9.26-0.58
			c-7.6,0.21-18.91,2.02-30.34,9.35v7.88c7.04-7.41,16.98-14.3,30.34-16.18c2.92-0.41,6.01-0.58,9.27-0.47
			C155.48,119.07,155.47,119.06,155.47,119.06z M162.28,122.2c-1.31-0.14-8-0.62-16.07,2.6c-5.85,2.33-12.43,6.62-18.21,14.4h8.34
			c2.74-3.86,6.02-7.6,9.86-10.58c4.57-3.55,9.94-6.03,16.14-6.38C162.33,122.22,162.3,122.21,162.28,122.2z M147.2,115.8
			c-0.11-0.04-0.45-0.14-0.98-0.29c-3.5-0.97-15.58-3.69-30.34-0.26v4.28c8.37-3.68,18.49-5.67,30.34-3.88
			c0.34,0.05,0.68,0.1,1.02,0.16C147.24,115.81,147.22,115.81,147.2,115.8z M130.06,110.8c-0.35-0.08-0.7-0.16-1.05-0.23
			c-0.35-0.08-0.7-0.15-1.05-0.23c-2.11-0.44-4.22-0.84-6.35-1.19c-1.71-0.2-3.64-0.36-5.73-0.42v1.61
			c4.55-0.41,9.43-0.27,14.64,0.61C130.49,110.93,130.33,110.88,130.06,110.8z M189.49,128.25c-1.94-1.76-4.17-3.01-6.72-3.5
			c-1.22,0.66-2.44,1.34-3.64,2.03h0c-0.01,0-0.01,0.01-0.02,0.01l0,0c-1.25,0.72-2.49,1.46-3.71,2.21l-0.28,0.17l-0.03,0.02
			l-0.09,0.05l-6.31,3.9l-11.68,7.22h40.04C195.21,135.66,192.76,131.23,189.49,128.25z M193.21,123.15
			c-1.78-0.49-3.63-0.81-5.56-0.92c-1.63,0.8-3.25,1.64-4.85,2.5c0.66,0.04,3.74,0.33,7.49,2.42c3.74,2.09,8.13,5.98,11.39,13.21
			h12.8C209.42,132.93,202.38,125.69,193.21,123.15z M194.52,119.07L194.52,119.07c-0.19,0.08-0.38,0.16-0.57,0.24
			c-2.1,0.91-4.17,1.88-6.23,2.89c0.7-0.07,2.94-0.25,6.11,0.1c7.26,0.8,19.38,4.33,29.01,18.07h15.31
			C229.79,129.78,215.76,118.31,194.52,119.07z M228.44,109.14c5.94-0.7,14.36-0.83,23.77,1.58v-3.53
			C244.21,107.19,236.26,107.85,228.44,109.14z M219.48,110.94c0.03-0.01,0.19-0.06,0.46-0.14c-5.78,1.31-11.48,2.97-17.06,4.97
			c1.87-0.59,25.15-7.54,49.33,6.75v-7.24C243.35,111.1,232.43,108.77,219.48,110.94z M202.76,115.81
			C202.76,115.81,202.76,115.82,202.76,115.81L202.76,115.81C202.76,115.82,202.76,115.82,202.76,115.81
			c-2.78,1-5.52,2.09-8.24,3.25c0.96-0.19,30.65-5.79,53.85,21.31h3.82v-8.56C242.14,122.18,225.62,111.97,202.76,115.81z
			 M182.79,124.74c-0.01,0-0.01,0.01-0.02,0.01c0,0,0,0,0,0C182.78,124.75,182.79,124.74,182.79,124.74
			C182.79,124.74,182.79,124.74,182.79,124.74z M188.43,140.37h-3.23c-0.4-5.56-2.09-10.58-6.1-13.57c0.01,0,0.01-0.01,0.02-0.01
			C180.11,127.34,186.14,131.08,188.43,140.37z M176.78,140.37h-1.59c1.05-5.15,1.3-9.42-0.1-11.17l0.03-0.02
			C175.57,129.5,177.93,131.61,176.78,140.37z M202.76,115.81C202.76,115.82,202.76,115.82,202.76,115.81
			C202.76,115.82,202.76,115.82,202.76,115.81C202.76,115.82,202.76,115.81,202.76,115.81
			C202.76,115.81,202.76,115.81,202.76,115.81z"/>
		<path class="st35" d="M221.74,59.5c4.02,4.83,3.36,12-1.47,16.02c-4.83,4.02-12,3.36-16.02-1.47c-4.02-4.83-3.36-12,1.47-16.02
			C210.56,54.01,217.73,54.67,221.74,59.5z M203.39,55.35l-1.79-2.15 M208.44,49.87l0.71,2.71 M216.05,49.74l-0.5,2.75
			 M223.01,52.84l-1.61,2.29 M225.57,59.97l2.43-1.39 M230.1,65.9l-2.79,0.24 M228.92,73.42l-2.63-0.96 M222.69,77.75l1.97,1.98
			 M218.15,83.66l-0.95-2.63 M210.58,84.47l0.25-2.79 M203.37,82.01l1.4-2.42 M197.89,76.73l2.29-1.6 M197.9,69.15l-2.76,0.48
			 M195.65,62.04l2.7,0.73"/>
		<path class="st36" d="M242.55,106.52l-5.65-17.29c-0.59-1.8-3.5-1.76-4.03,0.05l-5.06,17.43c-1.14,3.92,1.86,7.73,6.22,8.32v12.84
			h2.35v-12.84C240.84,114.43,243.85,110.49,242.55,106.52z"/>
	</g>
</g>
</svg>
