<?xml version="1.0" encoding="utf-8"?>
<!-- Generator: Adobe Illustrator 27.8.1, SVG Export Plug-In . SVG Version: 6.00 Build 0)  -->
<svg version="1.1" xmlns="http://www.w3.org/2000/svg" xmlns:xlink="http://www.w3.org/1999/xlink" x="0px" y="0px"
	 viewBox="0 0 350 230" style="enable-background:new 0 0 350 230;" xml:space="preserve">
<style type="text/css">
	.st0{fill:#E4D027;}
	.st1{fill:#14A639;}
	.st2{fill:#9ED834;}
	.st3{fill:#0B8813;}
	.st4{fill:#FEFEFE;}
	.st5{fill:#6BC53C;}
	.st6{fill:#89E051;}
	.st7{fill:#E2BF2B;}
	.st8{fill:#0C8149;}
	.st9{fill:#5B3A00;}
	.st10{fill:#72721D;}
	.st11{fill:#355600;}
	.st12{fill:#603200;}
	.st13{fill:#2BC152;}
	.st14{fill:#DCE041;}
	.st15{fill:#BCAF15;}
	.st16{fill:#0B7E21;}
	.st17{fill:#5C9E23;}
	.st18{fill:#0C4710;}
	.st19{fill:#00760D;}
	.st20{fill:#459B02;}
	.st21{fill:#FCAC01;}
	.st22{fill:#AEC600;}
	.st23{fill:#545913;}
	.st24{fill:#953327;}
	.st25{fill:#ABCB13;}
	.st26{fill:#FFE566;}
	.st27{fill:#72DD2C;}
	.st28{fill:url(#SVGID_1_);}
	.st29{fill:url(#SVGID_00000063619289836569155980000009042725667075811516_);}
	.st30{fill:url(#SVGID_00000037687863838640939770000006316887385746665912_);}
	.st31{fill:#C1B700;}
	.st32{fill:url(#SVGID_00000131354977557510929970000014047527856997837243_);}
	.st33{fill:#2F5A11;}
	.st34{fill:url(#SVGID_00000000908526125690528580000018021359173377384881_);}
	.st35{fill:#E8CB1B;}
	.st36{fill:#AFAA00;}
</style>
<g id="Logo1">
</g>
<g id="Logo2">
</g>
<g id="Logo3">
</g>
<g id="Logo4">
</g>
<g id="Logo5">
</g>
<g id="Logo6">
</g>
<g id="Logo7">
	<g>
		<path class="st15" d="M174.97,34.12c0.02,0.02,0.04,0.04,0.06,0.06c0.9,0.91,1.74,2.12,2.44,3.2c2.05,3.2,3.47,6.35,3.27,10.26
			c-0.17,3.22-1.83,6.8-4.26,8.96c-0.29-1.32-0.29-3.03-0.43-4.42c-0.35-3.29-0.86-6.74-0.96-10.04l-0.11-0.03l0.03-0.07l0.05,0
			L175,42.02c-0.27,0.94-0.35,2.01-0.5,2.97c-0.59,3.86-1.02,7.79-1.08,11.7c-0.55-0.52-1.01-1.16-1.45-1.77
			c-1.52-2.09-2.58-4.21-2.82-6.82C168.65,42.64,171.63,38.11,174.97,34.12z M193.24,49.34c0.93-0.13,2.04-0.05,2.98,0.01
			c-0.41,4.38-1.79,9.03-4.98,12.2c-3.1,3.09-7.35,4.42-11.66,4.4c2.47-4.2,5.75-7.79,9.45-10.94c0.52-0.46,1.1-0.86,1.63-1.3
			c-0.51,0.23-1.01,0.48-1.5,0.74c-0.5,0.26-0.98,0.53-1.46,0.82c-0.48,0.28-0.96,0.58-1.42,0.89c-0.47,0.31-0.92,0.63-1.37,0.96
			c-0.45,0.33-0.89,0.67-1.32,1.03c-0.43,0.35-0.86,0.72-1.27,1.09c-0.41,0.38-0.82,0.76-1.21,1.16c-0.39,0.4-0.78,0.8-1.15,1.22
			c-0.8,0.9-1.52,1.87-2.25,2.82c0.31-3.81,0.7-6.79,3.32-9.81C184.14,51.02,188.64,49.67,193.24,49.34z"/>
		<path class="st16" d="M173.41,58.56c1.07,0,2.15-0.01,3.23,0.01c-0.05,5.1,0.06,10.22-0.04,15.32l-3.17,0L173.41,58.56z
			 M156.71,101.85c3.66-3.17,7.71-5.97,11.83-8.51c14.26-8.78,29.83-13.93,46.74-12.69c1.45,0.11,8.35,0.87,9.05,1.63l0.02,0.15
			c-0.24,0.16-3.14,0.02-3.68,0.03c-2.71,0.04-5.42,0.25-8.11,0.61c-1.75,0.25-3.5,0.56-5.23,0.92c-1.73,0.36-3.45,0.79-5.16,1.27
			c-3.45,0.95-6.82,2.04-10.13,3.41c-7.63,3.16-14.85,7.66-21.31,12.79c-1.51,1.19-2.99,2.42-4.43,3.69
			c-0.72,0.63-1.48,1.25-2.11,1.96c-1.58-1.15-3.12-2.34-4.72-3.46C158.56,103.03,157.63,102.45,156.71,101.85z M171.23,112.98
			c9.49-10.19,20.55-18.24,33.65-23.15c1.68-0.63,3.41-1.16,5.12-1.69c4.62-1.42,9.52-2.57,14.35-2.9
			c-0.01,0.76-0.05,1.51-0.11,2.27c-2.67,0.8-5.29,1.63-7.87,2.67c-0.47,0.2-0.94,0.4-1.41,0.6c-0.47,0.2-0.94,0.41-1.4,0.62
			c-0.47,0.21-0.93,0.43-1.39,0.65c-0.46,0.22-0.92,0.44-1.38,0.67c-0.46,0.23-0.92,0.46-1.37,0.69c-0.45,0.23-0.91,0.47-1.36,0.71
			c-0.45,0.24-0.9,0.49-1.35,0.74c-0.45,0.25-0.89,0.5-1.33,0.76c-0.44,0.26-0.88,0.52-1.32,0.78c-0.44,0.26-0.87,0.53-1.31,0.8
			c-0.43,0.27-0.87,0.55-1.29,0.83c-0.43,0.28-0.86,0.56-1.28,0.85c-0.42,0.29-0.85,0.58-1.27,0.87c-0.42,0.29-0.84,0.59-1.25,0.89
			c-0.41,0.3-0.83,0.6-1.24,0.91c-0.41,0.31-0.82,0.62-1.22,0.93c-0.4,0.31-0.81,0.63-1.21,0.95c-0.4,0.32-0.8,0.64-1.19,0.97
			c-0.39,0.33-0.78,0.66-1.17,0.99c-0.39,0.33-0.77,0.67-1.16,1.01c-0.38,0.34-0.76,0.68-1.14,1.03c-0.38,0.35-0.75,0.7-1.12,1.05
			c-0.37,0.35-0.74,0.71-1.1,1.07c-0.37,0.36-0.73,0.72-1.09,1.08c-0.36,0.36-0.72,0.73-1.07,1.1c-0.35,0.37-0.7,0.74-1.05,1.12
			c-0.35,0.38-0.69,0.76-1.03,1.14c-0.34,0.38-0.68,0.77-1.01,1.15c-0.33,0.39-0.66,0.78-0.99,1.17c-0.33,0.39-0.65,0.79-0.97,1.19
			c-0.32,0.4-0.64,0.8-0.95,1.2c-0.31,0.4-0.63,0.81-0.93,1.22c-1.47-1.72-3.11-3.35-4.72-4.94
			C172.61,114.3,171.85,113.7,171.23,112.98z M184.18,127.89c0.29-0.1,2.28-3.42,2.6-3.89c1.25-1.86,2.61-3.67,3.97-5.45
			c0.45-0.6,0.9-1.19,1.37-1.78c0.46-0.59,0.93-1.17,1.41-1.74c0.48-0.58,0.96-1.15,1.45-1.71c0.49-0.56,0.99-1.12,1.49-1.67
			c0.5-0.55,1.02-1.1,1.53-1.64c0.52-0.54,1.04-1.07,1.57-1.6c0.53-0.53,1.07-1.05,1.61-1.56c0.54-0.51,1.09-1.02,1.65-1.52
			c0.56-0.5,1.12-0.99,1.68-1.48c0.57-0.49,1.14-0.97,1.72-1.44c0.58-0.47,1.16-0.94,1.75-1.4c0.59-0.46,1.19-0.91,1.79-1.36
			c0.6-0.44,1.21-0.88,1.82-1.31c0.61-0.43,1.23-0.85,1.85-1.27c0.62-0.41,1.25-0.82,1.88-1.22c0.63-0.4,1.27-0.79,1.91-1.18
			c2.07-1.21,4.24-2.48,6.48-3.36c-0.31,1.82-0.59,3.67-1.06,5.46c-0.07,0.27-0.14,0.54-0.22,0.8c-0.08,0.27-0.15,0.53-0.23,0.8
			c-0.08,0.27-0.16,0.53-0.25,0.8c-0.08,0.26-0.17,0.53-0.26,0.79c-0.09,0.26-0.18,0.53-0.27,0.79c-0.09,0.26-0.19,0.52-0.29,0.78
			c-0.1,0.26-0.2,0.52-0.3,0.78c-0.1,0.26-0.21,0.52-0.31,0.77c-0.11,0.26-0.22,0.51-0.33,0.77c-0.11,0.25-0.23,0.51-0.34,0.76
			c-0.12,0.25-0.23,0.5-0.35,0.76c-0.12,0.25-0.24,0.5-0.37,0.75c-0.12,0.25-0.25,0.5-0.38,0.74c-0.13,0.25-0.26,0.49-0.39,0.74
			c-0.13,0.24-0.27,0.49-0.4,0.73c-0.14,0.24-0.28,0.48-0.42,0.72c-0.14,0.24-0.28,0.48-0.43,0.72c-0.14,0.24-0.29,0.47-0.44,0.71
			c-0.15,0.23-0.3,0.47-0.45,0.7c-0.15,0.23-0.31,0.46-0.46,0.69c-0.16,0.23-0.32,0.46-0.48,0.69c-0.16,0.23-0.32,0.45-0.49,0.68
			c-0.16,0.22-0.33,0.45-0.5,0.67c-0.17,0.22-0.34,0.44-0.51,0.66c-0.17,0.22-0.35,0.44-0.52,0.65c-0.18,0.22-0.35,0.43-0.53,0.64
			c-0.18,0.21-0.36,0.42-0.54,0.63c-0.18,0.21-0.37,0.42-0.55,0.62c-0.19,0.21-0.37,0.41-0.56,0.61c-0.19,0.2-0.38,0.4-0.57,0.6
			c-0.19,0.2-0.39,0.4-0.59,0.59c-0.2,0.2-0.4,0.39-0.6,0.58c-0.85,0.84-1.73,1.64-2.64,2.41c-0.91,0.77-1.85,1.51-2.82,2.2
			c-0.42,0.3-0.84,0.6-1.27,0.88c-0.43,0.29-0.86,0.57-1.3,0.84c-0.44,0.27-0.88,0.54-1.33,0.8c-0.45,0.26-0.9,0.51-1.35,0.76
			c-0.45,0.25-0.91,0.49-1.37,0.72c-0.46,0.23-0.93,0.46-1.4,0.67c-0.47,0.22-0.94,0.43-1.42,0.63c-0.48,0.2-0.95,0.4-1.44,0.59
			c-0.48,0.19-0.97,0.37-1.45,0.54c-0.49,0.17-0.98,0.34-1.47,0.49c-0.49,0.16-0.99,0.31-1.49,0.45c-0.5,0.14-1,0.27-1.5,0.4
			c-0.5,0.13-1,0.24-1.51,0.35c-0.51,0.11-1.01,0.21-1.52,0.31c-0.51,0.09-1.02,0.18-1.53,0.26c-0.51,0.08-1.02,0.15-1.54,0.21
			C181.44,132.07,183.49,128.56,184.18,127.89z"/>
		<path class="st17" d="M117.95,74.86c1.41-8.29,4.76-16.59,9.61-23.46c0.96-1.38,1.98-2.73,3.05-4.03c1.07-1.3,2.19-2.56,3.36-3.78
			c0.27-0.27,0.53-0.54,0.8-0.8c0.27-0.26,0.54-0.53,0.82-0.79c0.28-0.26,0.55-0.52,0.84-0.77c0.28-0.25,0.56-0.5,0.85-0.75
			c0.29-0.25,0.57-0.49,0.86-0.74c0.29-0.24,0.58-0.48,0.88-0.72c0.3-0.24,0.59-0.47,0.89-0.7c0.3-0.23,0.6-0.46,0.91-0.68
			c0.3-0.23,0.61-0.45,0.92-0.67c0.31-0.22,0.62-0.44,0.93-0.65c0.31-0.21,0.63-0.42,0.94-0.63c0.32-0.21,0.64-0.41,0.96-0.61
			c0.32-0.2,0.64-0.4,0.97-0.59c0.32-0.19,0.65-0.39,0.98-0.57c0.33-0.19,0.66-0.37,0.99-0.55c0.33-0.18,0.67-0.36,1-0.54
			c0.34-0.18,0.67-0.35,1.01-0.52c0.34-0.17,0.68-0.33,1.02-0.5c0.34-0.16,0.69-0.32,1.03-0.48c0.35-0.16,0.69-0.31,1.04-0.46
			c0.35-0.15,0.7-0.29,1.05-0.44c0.35-0.14,0.7-0.28,1.06-0.41c0.35-0.13,0.71-0.27,1.06-0.39c0.36-0.13,0.71-0.25,1.07-0.37
			c0.36-0.12,0.72-0.24,1.08-0.35c0.36-0.11,0.72-0.22,1.09-0.33c0.36-0.11,0.73-0.21,1.09-0.31c0.37-0.1,0.73-0.2,1.1-0.29
			c0.37-0.09,0.73-0.18,1.1-0.27c0.37-0.09,0.74-0.17,1.11-0.25c0.37-0.08,0.74-0.15,1.11-0.22c0.37-0.07,0.74-0.14,1.12-0.2
			c0.37-0.06,0.75-0.12,1.13-0.18c0.38-0.06,0.75-0.11,1.13-0.15c0.38-0.05,0.75-0.09,1.13-0.13c0.38-0.04,0.76-0.08,1.13-0.11
			c0.38-0.03,0.76-0.06,1.14-0.09c0.38-0.02,0.76-0.05,1.14-0.06c0.38-0.02,0.76-0.03,1.14-0.04c0.38-0.01,0.76-0.02,1.14-0.02
			c0.38,0,0.76,0,1.14,0.01c0.38,0.01,0.76,0.02,1.14,0.03c0.38,0.01,0.76,0.03,1.14,0.05c0.38,0.02,0.76,0.05,1.14,0.07
			c0.38,0.03,0.76,0.06,1.14,0.1c0.38,0.04,0.76,0.08,1.13,0.12c0.38,0.04,0.75,0.09,1.13,0.14c0.38,0.05,0.75,0.11,1.13,0.17
			c0.38,0.06,0.75,0.12,1.12,0.19c0.37,0.07,0.75,0.14,1.12,0.21c0.37,0.07,0.74,0.15,1.12,0.23c0.37,0.08,0.74,0.17,1.11,0.26
			c0.37,0.09,0.74,0.18,1.11,0.28c0.37,0.1,0.73,0.2,1.1,0.3c0.37,0.1,0.73,0.21,1.09,0.32c0.36,0.11,0.73,0.23,1.09,0.35
			c0.36,0.12,0.72,0.24,1.08,0.37c0.36,0.13,0.72,0.26,1.07,0.39c0.36,0.13,0.71,0.27,1.06,0.41c0.35,0.14,0.71,0.28,1.06,0.43
			c0.35,0.15,0.7,0.3,1.05,0.45c0.35,0.15,0.69,0.31,1.04,0.47c0.34,0.16,0.69,0.33,1.03,0.49c0.34,0.17,0.68,0.34,1.02,0.52
			c2.16,1.11,4.31,2.3,6.29,3.71c13.02,9.25,21.94,22.63,24.64,38.48c-0.47,0.12-3.76,4.22-4.73,4.85
			c-0.25-1.96-0.43-3.91-0.83-5.85c-0.11-0.51-0.22-1.01-0.34-1.51c-0.12-0.5-0.25-1-0.39-1.5c-0.14-0.5-0.28-1-0.43-1.49
			c-0.15-0.49-0.31-0.99-0.47-1.48c-0.17-0.49-0.34-0.98-0.52-1.46c-0.18-0.48-0.37-0.97-0.56-1.45c-0.19-0.48-0.39-0.96-0.6-1.43
			c-0.21-0.47-0.42-0.94-0.64-1.41c-0.22-0.47-0.45-0.93-0.68-1.39c-0.23-0.46-0.47-0.92-0.72-1.37c-0.25-0.45-0.5-0.9-0.76-1.35
			c-0.26-0.45-0.53-0.89-0.8-1.33c-0.27-0.44-0.55-0.87-0.84-1.31c-0.29-0.43-0.58-0.86-0.87-1.28c-0.3-0.42-0.6-0.84-0.91-1.26
			c-0.31-0.41-0.63-0.82-0.95-1.23c-8.54-10.7-20.9-18.06-34.6-19.6c-0.37-0.05-0.75-0.09-1.13-0.12c-0.38-0.04-0.75-0.07-1.13-0.1
			c-0.38-0.03-0.75-0.05-1.13-0.07c-0.38-0.02-0.75-0.04-1.13-0.05c-0.38-0.01-0.75-0.02-1.13-0.03c-0.38,0-0.75,0-1.13,0
			c-0.38,0-0.75,0.01-1.13,0.02c-0.38,0.01-0.75,0.03-1.13,0.05c-0.38,0.02-0.75,0.04-1.13,0.07c-0.38,0.03-0.75,0.06-1.13,0.1
			c-0.38,0.04-0.75,0.08-1.13,0.12c-0.37,0.04-0.75,0.09-1.12,0.15c-0.37,0.05-0.75,0.11-1.12,0.17c-0.37,0.06-0.74,0.13-1.12,0.19
			c-0.37,0.07-0.74,0.14-1.11,0.22c-0.37,0.08-0.74,0.16-1.11,0.24c-0.37,0.09-0.73,0.17-1.1,0.27c-0.37,0.09-0.73,0.19-1.09,0.29
			c-0.36,0.1-0.73,0.21-1.09,0.31c-0.36,0.11-0.72,0.22-1.08,0.34c-0.36,0.12-0.72,0.24-1.07,0.36c-0.36,0.12-0.71,0.25-1.06,0.38
			c-0.35,0.13-0.71,0.27-1.06,0.41c-0.35,0.14-0.7,0.28-1.05,0.43c-0.35,0.15-0.69,0.3-1.04,0.45c-0.34,0.15-0.69,0.31-1.03,0.48
			c-0.34,0.16-0.68,0.33-1.02,0.5c-0.34,0.17-0.67,0.34-1.01,0.52c-0.33,0.18-0.66,0.36-0.99,0.54c-0.33,0.18-0.66,0.37-0.98,0.56
			c-0.33,0.19-0.65,0.39-0.97,0.58c-0.32,0.2-0.64,0.4-0.96,0.6c-1.7,1.1-3.32,2.36-4.9,3.63c-9.13,7.31-15.67,18.36-18.2,29.73
			c-0.47,2.11-0.73,4.26-0.97,6.4c-1.13-1.05-2.2-2.21-3.27-3.33C118.95,75.87,118.48,75.32,117.95,74.86z M155.62,49.34l0.06,0
			c4.54-0.05,9.35,1.36,12.62,4.62c2.95,2.95,3.75,6.4,3.76,10.44c-2.25-3.74-5.95-6.72-9.6-9.01c-1-0.63-2.02-1.25-3.11-1.73
			c0.43,0.3,0.83,0.62,1.24,0.95c4.03,3.28,7.28,6.92,9.83,11.46c-3.79,0.06-7.74-1.33-10.67-3.7c-3.93-3.18-5.38-8.1-5.89-12.92
			C154.43,49.41,155.03,49.37,155.62,49.34z M176.59,73.88c1.7,0,3.41,0.04,5.11,0.11c1.7,0.07,3.4,0.17,5.1,0.3
			c1.7,0.13,3.39,0.29,5.09,0.48c1.69,0.19,3.38,0.42,5.07,0.67c1.7,0.27,3.4,0.57,5.09,0.89c1.22,0.24,2.43,0.54,3.66,0.75
			c-4.46,0.06-8.88,0.24-13.29,0.96c-5.28,0.87-10.46,2.42-15.48,4.24c-10.11,3.67-19.48,8.42-27.93,15.12
			c-1.57-1.02-3.35-1.83-5.03-2.63c-2.39-1.15-4.83-2.22-7.3-3.19c-2.47-0.98-4.97-1.86-7.51-2.65c-1.11-0.35-2.25-0.78-3.41-0.94
			c-0.25-1.54-0.12-4.31-0.11-5.97c3.19-1.27,7.05-2.36,10.38-3.25c1.52-0.41,3.05-0.79,4.58-1.15c1.53-0.36,3.07-0.69,4.62-1
			c1.55-0.31,3.1-0.59,4.65-0.84c1.55-0.26,3.11-0.49,4.68-0.69c1.56-0.2,3.13-0.38,4.7-0.53c1.57-0.15,3.14-0.28,4.71-0.38
			c1.57-0.1,3.15-0.17,4.72-0.22c1.57-0.05,3.15-0.07,4.73-0.07L176.59,73.88z"/>
		<path class="st18" d="M227.28,79.66c0.98-0.62,4.27-4.72,4.73-4.85c0.08,0.46,0.15,0.93,0.21,1.39c0.06,0.47,0.12,0.93,0.18,1.4
			c0.05,0.47,0.1,0.93,0.14,1.4c0.04,0.47,0.08,0.94,0.11,1.4c0.03,0.47,0.06,0.94,0.07,1.41c0.02,0.47,0.03,0.94,0.04,1.41
			c0.01,0.47,0.01,0.94,0.01,1.41c0,0.47-0.01,0.94-0.03,1.41c-0.02,0.47-0.04,0.94-0.06,1.41c-0.03,0.47-0.06,0.94-0.1,1.41
			c-0.04,0.47-0.08,0.94-0.13,1.4c-0.05,0.47-0.1,0.93-0.17,1.4c-0.06,0.47-0.13,0.93-0.2,1.39c-0.07,0.46-0.15,0.93-0.23,1.39
			c-0.08,0.46-0.17,0.92-0.27,1.38c-0.09,0.46-0.19,0.92-0.3,1.38c-0.11,0.46-0.22,0.91-0.33,1.37c-0.12,0.45-0.24,0.91-0.37,1.36
			c-0.13,0.45-0.26,0.9-0.4,1.35c-0.14,0.45-0.28,0.9-0.43,1.34c-0.15,0.45-0.31,0.89-0.47,1.33c-0.16,0.44-0.33,0.88-0.5,1.32
			c-0.17,0.44-0.35,0.87-0.53,1.31c-0.18,0.43-0.37,0.86-0.56,1.29c-0.19,0.43-0.39,0.85-0.59,1.28c-0.2,0.42-0.41,0.84-0.62,1.26
			c-0.21,0.42-0.43,0.83-0.65,1.25c-0.22,0.41-0.45,0.82-0.68,1.23c-0.23,0.41-0.47,0.81-0.71,1.21c-0.24,0.4-0.49,0.8-0.74,1.2
			c-0.25,0.4-0.51,0.79-0.77,1.18c-0.26,0.39-0.53,0.78-0.8,1.16c-0.27,0.39-0.55,0.77-0.84,1.15s-0.57,0.76-0.87,1.13
			c-0.29,0.37-0.59,0.74-0.89,1.11s-0.61,0.73-0.92,1.08c-0.31,0.36-0.63,0.71-0.95,1.06c-0.32,0.35-0.64,0.7-0.97,1.04
			c-0.33,0.34-0.66,0.68-1,1.01c-0.34,0.33-0.68,0.66-1.02,0.99c-0.35,0.33-0.69,0.65-1.05,0.96c-0.35,0.32-0.71,0.63-1.07,0.94
			c-0.36,0.31-0.73,0.61-1.09,0.91c-0.37,0.3-0.74,0.59-1.12,0.88c-0.38,0.29-0.75,0.58-1.14,0.86c-0.38,0.28-0.77,0.56-1.16,0.83
			c-0.39,0.27-0.78,0.54-1.18,0.8c-0.4,0.26-0.79,0.52-1.2,0.77c-0.4,0.25-0.81,0.5-1.22,0.74c-0.41,0.24-0.82,0.48-1.23,0.71
			c-0.41,0.23-0.83,0.46-1.25,0.68c-0.42,0.22-0.84,0.44-1.27,0.65c-0.42,0.21-0.85,0.42-1.28,0.62c-0.43,0.2-0.86,0.4-1.3,0.59
			c-0.43,0.19-0.87,0.37-1.31,0.55c-0.44,0.18-0.88,0.35-1.32,0.52c-0.44,0.17-0.89,0.33-1.34,0.49c-0.45,0.16-0.9,0.31-1.35,0.46
			c-0.45,0.15-0.9,0.29-1.36,0.42c-0.45,0.14-0.91,0.26-1.37,0.39c-0.46,0.12-0.92,0.24-1.38,0.35c-0.46,0.11-0.92,0.22-1.39,0.32
			c-0.46,0.1-0.93,0.2-1.39,0.29c-0.47,0.09-0.93,0.17-1.4,0.25c-0.46,0.08-0.92,0.15-1.39,0.21c-0.46,0.07-0.93,0.13-1.39,0.18
			c-0.47,0.05-0.93,0.1-1.4,0.15c-0.47,0.04-0.93,0.08-1.4,0.11c-0.47,0.03-0.93,0.06-1.4,0.08c-0.47,0.02-0.94,0.03-1.4,0.04
			c-0.47,0.01-0.94,0.01-1.4,0.01c-0.47,0-0.94-0.01-1.4-0.03c-0.47-0.01-0.94-0.03-1.4-0.06c-0.47-0.03-0.93-0.06-1.4-0.09
			c-0.47-0.04-0.93-0.08-1.4-0.13c-0.47-0.05-0.93-0.1-1.4-0.16c-0.46-0.06-0.93-0.13-1.39-0.2c-0.46-0.07-0.92-0.15-1.39-0.23
			c-0.46-0.08-0.92-0.17-1.38-0.26c-0.46-0.09-0.92-0.19-1.37-0.3c-0.46-0.1-0.91-0.21-1.37-0.33c-0.45-0.12-0.91-0.24-1.36-0.36
			c-0.45-0.13-0.9-0.26-1.35-0.4c-0.45-0.14-0.89-0.28-1.34-0.43c-0.44-0.15-0.89-0.3-1.33-0.46c-0.44-0.16-0.88-0.32-1.31-0.49
			c-0.44-0.17-0.87-0.35-1.3-0.53c-0.43-0.18-0.86-0.37-1.29-0.56c-0.43-0.19-0.85-0.39-1.28-0.59c-0.42-0.2-0.84-0.41-1.26-0.62
			c-0.42-0.21-0.83-0.43-1.24-0.65c-0.41-0.22-0.82-0.45-1.23-0.68c-0.41-0.23-0.81-0.47-1.21-0.71c-0.4-0.24-0.8-0.49-1.19-0.74
			c-0.4-0.25-0.79-0.51-1.18-0.77c-0.39-0.26-0.77-0.53-1.16-0.8c-0.39-0.27-0.78-0.55-1.17-0.84c-0.39-0.28-0.77-0.57-1.15-0.87
			c-0.38-0.29-0.75-0.59-1.12-0.9c-0.37-0.3-0.74-0.61-1.1-0.92c-0.36-0.31-0.72-0.63-1.08-0.95c-0.36-0.32-0.71-0.65-1.05-0.98
			c-0.35-0.33-0.69-0.66-1.03-1c-0.34-0.34-0.67-0.68-1-1.03c-0.33-0.35-0.66-0.7-0.98-1.05c-0.32-0.35-0.64-0.71-0.95-1.08
			c-0.31-0.36-0.62-0.73-0.92-1.1c-0.3-0.37-0.6-0.74-0.9-1.12c-0.29-0.38-0.58-0.76-0.87-1.14c-0.28-0.39-0.56-0.77-0.84-1.17
			c-0.27-0.39-0.54-0.79-0.81-1.19c-0.26-0.4-0.52-0.8-0.78-1.21c-0.25-0.41-0.5-0.81-0.75-1.23c-0.24-0.41-0.48-0.83-0.72-1.24
			c-0.23-0.42-0.46-0.84-0.69-1.26c-0.22-0.42-0.44-0.85-0.66-1.28c-0.21-0.43-0.42-0.86-0.62-1.29c-0.2-0.43-0.4-0.87-0.59-1.31
			c-0.19-0.44-0.38-0.88-0.56-1.32c-0.18-0.44-0.36-0.89-0.53-1.34c-0.17-0.45-0.33-0.9-0.49-1.35s-0.31-0.91-0.46-1.36
			c-0.15-0.46-0.29-0.91-0.42-1.37c-0.14-0.46-0.27-0.92-0.39-1.38c-0.12-0.46-0.24-0.93-0.36-1.39c-0.11-0.47-0.22-0.93-0.32-1.4
			s-0.2-0.94-0.29-1.41c-0.09-0.47-0.17-0.94-0.25-1.41c-1.02-6.1-0.94-12.53-0.02-18.64c0.53,0.46,1,1.01,1.49,1.52
			c1.07,1.12,2.14,2.28,3.27,3.33c-0.18,2.29-0.3,4.57-0.21,6.86c0.02,0.36,0.04,0.73,0.06,1.09c0.02,0.36,0.05,0.73,0.08,1.09
			c0.03,0.36,0.07,0.73,0.1,1.09c0.04,0.36,0.08,0.72,0.13,1.09c0.05,0.36,0.1,0.72,0.15,1.08c0.05,0.36,0.11,0.72,0.17,1.08
			c0.06,0.36,0.13,0.72,0.19,1.07c0.07,0.36,0.14,0.71,0.22,1.07c0.08,0.36,0.16,0.71,0.24,1.07c0.08,0.35,0.17,0.71,0.26,1.06
			c0.09,0.35,0.19,0.7,0.28,1.05c0.1,0.35,0.2,0.7,0.31,1.05c0.11,0.35,0.21,0.7,0.33,1.04c0.11,0.35,0.23,0.69,0.35,1.04
			c0.12,0.34,0.24,0.69,0.37,1.03c0.13,0.34,0.26,0.68,0.39,1.02c0.13,0.34,0.27,0.68,0.41,1.01c0.14,0.34,0.29,0.67,0.43,1
			c0.15,0.33,0.3,0.66,0.46,0.99c0.16,0.33,0.31,0.66,0.48,0.98c0.16,0.33,0.33,0.65,0.5,0.97c0.17,0.32,0.34,0.64,0.52,0.96
			c0.18,0.32,0.35,0.64,0.54,0.95c0.18,0.32,0.37,0.63,0.56,0.94c0.19,0.31,0.38,0.62,0.58,0.93c0.2,0.31,0.39,0.61,0.59,0.92
			c0.2,0.3,0.41,0.6,0.61,0.9c0.21,0.3,0.42,0.6,0.63,0.89s0.43,0.59,0.65,0.88c0.22,0.29,0.44,0.58,0.67,0.86
			c0.23,0.29,0.46,0.57,0.69,0.85c0.23,0.28,0.47,0.56,0.7,0.83c0.28,0.32,0.56,0.64,0.85,0.96c0.29,0.32,0.58,0.63,0.87,0.94
			c0.3,0.31,0.59,0.61,0.9,0.91c0.3,0.3,0.61,0.6,0.92,0.89c0.31,0.29,0.62,0.58,0.94,0.87c0.32,0.29,0.64,0.57,0.96,0.85
			s0.65,0.55,0.98,0.82c0.33,0.27,0.66,0.54,1,0.8c0.34,0.26,0.68,0.52,1.02,0.77c0.34,0.25,0.69,0.5,1.04,0.75
			c0.35,0.25,0.7,0.49,1.06,0.72c0.35,0.24,0.71,0.47,1.07,0.7c0.36,0.23,0.72,0.45,1.09,0.67c0.37,0.22,0.73,0.44,1.11,0.65
			c0.37,0.21,0.74,0.42,1.12,0.62c0.38,0.2,0.75,0.4,1.14,0.59s0.76,0.38,1.15,0.56c0.39,0.18,0.77,0.36,1.16,0.54
			c0.39,0.17,0.78,0.34,1.18,0.51c0.39,0.16,0.79,0.32,1.19,0.48c0.4,0.15,0.8,0.3,1.2,0.45c0.4,0.15,0.8,0.29,1.21,0.42
			c0.4,0.14,0.81,0.27,1.22,0.39c0.41,0.13,0.82,0.25,1.23,0.36c0.41,0.12,0.82,0.23,1.24,0.33c0.41,0.11,0.83,0.21,1.24,0.3
			c0.42,0.1,0.83,0.19,1.25,0.27c0.42,0.09,0.84,0.17,1.26,0.24c0.42,0.08,0.84,0.15,1.26,0.21c0.42,0.07,0.84,0.13,1.27,0.18
			c0.42,0.06,0.85,0.1,1.27,0.15c0.42,0.04,0.85,0.08,1.28,0.12c0.43,0.03,0.86,0.06,1.3,0.09c0.43,0.02,0.86,0.04,1.3,0.06
			c0.43,0.01,0.87,0.02,1.3,0.02c0.43,0,0.87,0,1.3-0.01c0.43-0.01,0.87-0.02,1.3-0.04c0.43-0.02,0.86-0.04,1.3-0.07
			c0.43-0.03,0.86-0.06,1.29-0.11c0.43-0.04,0.86-0.09,1.29-0.14c0.43-0.05,0.86-0.11,1.29-0.17c0.43-0.06,0.86-0.13,1.28-0.2
			c0.43-0.07,0.85-0.15,1.28-0.23c0.42-0.08,0.85-0.17,1.27-0.26c0.42-0.09,0.84-0.19,1.26-0.29c0.42-0.1,0.84-0.21,1.26-0.33
			c0.42-0.11,0.83-0.23,1.25-0.36s0.83-0.25,1.24-0.39c0.41-0.13,0.82-0.27,1.23-0.42c0.41-0.14,0.81-0.29,1.22-0.45
			c0.4-0.15,0.81-0.31,1.21-0.48c0.4-0.16,0.8-0.33,1.2-0.51c0.4-0.17,0.79-0.35,1.18-0.54c0.39-0.18,0.78-0.37,1.17-0.57
			c0.39-0.19,0.77-0.39,1.15-0.59c0.38-0.2,0.76-0.41,1.14-0.62c0.38-0.21,0.75-0.43,1.12-0.65c0.37-0.22,0.74-0.45,1.11-0.68
			c0.37-0.23,0.73-0.47,1.09-0.71c0.36-0.24,0.72-0.48,1.07-0.73c0.35-0.25,0.71-0.5,1.05-0.76c0.35-0.26,0.69-0.52,1.04-0.78
			c0.34-0.27,0.68-0.54,1.02-0.81c0.34-0.27,0.67-0.55,1-0.83c0.33-0.28,0.65-0.56,0.97-0.85c0.32-0.29,0.63-0.58,0.95-0.87
			c0.31-0.29,0.62-0.59,0.92-0.89c0.3-0.3,0.61-0.61,0.9-0.92c0.3-0.31,0.59-0.62,0.88-0.94c0.29-0.32,0.57-0.64,0.86-0.96
			c0.28-0.32,0.56-0.65,0.83-0.98c0.27-0.33,0.54-0.66,0.81-1c0.26-0.34,0.53-0.68,0.78-1.02c0.26-0.34,0.51-0.69,0.76-1.04
			c0.25-0.35,0.49-0.7,0.73-1.06c0.24-0.36,0.47-0.71,0.7-1.08c0.23-0.36,0.46-0.73,0.68-1.09c0.22-0.37,0.44-0.74,0.65-1.11
			c0.21-0.37,0.42-0.75,0.62-1.13c0.2-0.38,0.4-0.76,0.59-1.14c0.19-0.38,0.38-0.77,0.56-1.15c0.18-0.39,0.36-0.78,0.54-1.17
			c0.17-0.39,0.34-0.79,0.51-1.18c0.16-0.4,0.32-0.79,0.48-1.19c0.15-0.4,0.3-0.8,0.45-1.2c0.14-0.4,0.28-0.81,0.42-1.22
			c0.13-0.41,0.26-0.82,0.39-1.23c0.12-0.41,0.24-0.82,0.36-1.23c0.11-0.41,0.22-0.83,0.33-1.24c0.1-0.42,0.2-0.83,0.29-1.25
			c0.09-0.42,0.18-0.84,0.26-1.26c0.08-0.42,0.16-0.84,0.23-1.26c0.07-0.42,0.14-0.85,0.2-1.27c0.06-0.42,0.12-0.85,0.17-1.27
			c0.05-0.43,0.1-0.85,0.14-1.28c0.04-0.43,0.08-0.85,0.11-1.28C227.57,85.37,227.59,82.48,227.28,79.66z M125.77,87.99
			c1.16,0.16,2.3,0.59,3.41,0.94c2.54,0.79,5.04,1.68,7.51,2.65c2.47,0.97,4.9,2.04,7.3,3.19c1.68,0.8,3.46,1.62,5.03,2.63
			c1.43,0.78,2.88,1.54,4.28,2.37c1.15,0.68,2.26,1.43,3.42,2.08c0.92,0.6,1.85,1.17,2.75,1.8c1.6,1.12,3.15,2.31,4.72,3.46
			c1.57,1.15,3.04,2.43,4.52,3.7c0.84,0.72,1.71,1.42,2.53,2.17c0.61,0.72,1.38,1.32,2.06,1.99c1.61,1.59,3.26,3.22,4.72,4.94
			c2.24,2.55,4.3,5.15,6.17,7.98c-0.69,0.67-2.74,4.18-3.23,5.14c-0.89,0.04-1.77,0.18-2.66,0.23c-1.85,0.11-3.7,0.12-5.55,0.04
			c-0.33-0.02-0.67-0.04-1-0.06c-0.33-0.02-0.67-0.05-1-0.08c-0.33-0.03-0.67-0.06-1-0.1c-0.33-0.04-0.66-0.08-1-0.12
			c-0.33-0.04-0.66-0.09-0.99-0.14c-0.33-0.05-0.66-0.1-0.99-0.16c-0.33-0.06-0.66-0.12-0.99-0.18c-0.33-0.06-0.66-0.13-0.98-0.2
			c-0.33-0.07-0.65-0.14-0.98-0.22c-0.33-0.08-0.65-0.16-0.97-0.24c-0.32-0.08-0.65-0.17-0.97-0.26c-0.32-0.09-0.64-0.18-0.96-0.28
			c-0.32-0.1-0.64-0.19-0.96-0.3c-0.32-0.1-0.64-0.21-0.95-0.31c-0.32-0.11-0.63-0.22-0.95-0.33c-0.31-0.11-0.63-0.23-0.94-0.35
			c-0.31-0.12-0.62-0.24-0.93-0.37c-0.31-0.13-0.62-0.26-0.92-0.39c-0.31-0.13-0.61-0.27-0.92-0.41c-0.3-0.14-0.61-0.28-0.91-0.43
			c-0.3-0.15-0.6-0.29-0.9-0.44c-0.3-0.15-0.6-0.31-0.89-0.46c-0.3-0.16-0.59-0.32-0.88-0.48c-0.29-0.16-0.58-0.33-0.87-0.5
			c-0.29-0.17-0.58-0.34-0.86-0.51c-0.29-0.17-0.57-0.35-0.85-0.53c-0.28-0.18-0.56-0.36-0.84-0.55c-0.28-0.19-0.55-0.37-0.83-0.57
			c-0.27-0.19-0.55-0.39-0.82-0.58c-0.27-0.2-0.54-0.4-0.81-0.6c-0.27-0.2-0.53-0.41-0.79-0.61c-0.26-0.21-0.52-0.42-0.78-0.63
			c-1.66-1.35-3.22-2.94-4.67-4.51C130.96,109.11,126.89,99.17,125.77,87.99z"/>
	</g>
</g>
<g id="Logo8">
</g>
<g id="Logo9">
</g>
<g id="Logo10">
</g>
<g id="Logo11">
</g>
<g id="Logo12">
</g>
<g id="Logo13">
</g>
<g id="Logo14">
</g>
<g id="Logo15">
</g>
</svg>
