<?xml version="1.0" encoding="utf-8"?>
<!-- Generator: Adobe Illustrator 27.8.1, SVG Export Plug-In . SVG Version: 6.00 Build 0)  -->
<svg version="1.1" xmlns="http://www.w3.org/2000/svg" xmlns:xlink="http://www.w3.org/1999/xlink" x="0px" y="0px"
	 viewBox="0 0 350 230" style="enable-background:new 0 0 350 230;" xml:space="preserve">
<style type="text/css">
	.st0{fill:#E4D027;}
	.st1{fill:#14A639;}
	.st2{fill:#9ED834;}
	.st3{fill:#0B8813;}
	.st4{fill:#FEFEFE;}
	.st5{fill:#6BC53C;}
	.st6{fill:#89E051;}
	.st7{fill:#E2BF2B;}
	.st8{fill:#0C8149;}
	.st9{fill:#5B3A00;}
	.st10{fill:#72721D;}
	.st11{fill:#355600;}
	.st12{fill:#603200;}
	.st13{fill:#2BC152;}
	.st14{fill:#DCE041;}
	.st15{fill:#BCAF15;}
	.st16{fill:#0B7E21;}
	.st17{fill:#5C9E23;}
	.st18{fill:#0C4710;}
	.st19{fill:#00760D;}
	.st20{fill:#459B02;}
	.st21{fill:#FCAC01;}
	.st22{fill:#AEC600;}
	.st23{fill:#545913;}
	.st24{fill:#953327;}
	.st25{fill:#ABCB13;}
	.st26{fill:#FFE566;}
	.st27{fill:#72DD2C;}
	.st28{fill:url(#SVGID_1_);}
	.st29{fill:url(#SVGID_00000176015671642007388310000012197862922524633515_);}
	.st30{fill:url(#SVGID_00000147913971632854146340000007170403673646747578_);}
	.st31{fill:#C1B700;}
	.st32{fill:url(#SVGID_00000088827162873225277530000003146684260504447902_);}
	.st33{fill:#2F5A11;}
	.st34{fill:url(#SVGID_00000045620934094453755210000001787281687212717449_);}
	.st35{fill:#E8CB1B;}
	.st36{fill:#AFAA00;}
</style>
<g id="Logo1">
</g>
<g id="Logo2">
</g>
<g id="Logo3">
</g>
<g id="Logo4">
	<g>
		<path class="st9" d="M67.76,90.69h138.48v35.61H67.76V90.69z"/>
		<path id="CUSTOM-group" class="st10" d="M269.34,123.27c0.47,1,0.9,2.01,1.3,3.03h11.6v-5.43
			C277.75,121.08,273.42,121.89,269.34,123.27L269.34,123.27z M271.37,86.95v-5.3c2.93-0.99,5.05-3.76,5.05-7.03v-10.1
			c0-4.09-3.33-7.42-7.42-7.42s-7.42,3.33-7.42,7.42v10.1c0,3.26,2.12,6.04,5.05,7.03v6.19C268.19,87.5,269.77,87.2,271.37,86.95z
			 M216.31,86.83v-6.66c2.93-0.99,5.05-3.76,5.05-7.03V52.95c0-4.09-3.33-7.42-7.42-7.42c-4.09,0-7.42,3.33-7.42,7.42v20.19
			c0,3.26,2.12,6.04,5.05,7.03v6.1C213.16,86.41,214.74,86.6,216.31,86.83z M236.5,92.61v-6.99c2.93-0.99,5.05-3.77,5.05-7.03V58.39
			c0-4.09-3.33-7.42-7.42-7.42s-7.42,3.33-7.42,7.42v20.19c0,3.26,2.12,6.04,5.05,7.03v5.1C233.37,91.29,234.95,91.92,236.5,92.61z
			 M282.24,100.75c-6.92,0.23-13.63,1.46-19.96,3.68c-1.73,0.61-3.4,1.28-5.03,2.01c1.36,1.32,2.64,2.7,3.86,4.13
			c0.96-0.4,1.94-0.77,2.93-1.12c5.76-2.02,11.87-3.16,18.2-3.38L282.24,100.75L282.24,100.75z M253.44,103.01
			c2.33-1.14,4.76-2.16,7.28-3.05c6.83-2.4,14.06-3.72,21.52-3.95v-5.32c-12.13,0.37-23.64,3.53-33.43,8.8
			C250.42,100.61,251.96,101.78,253.44,103.01L253.44,103.01z M265.62,113.92c-0.49,0.17-0.97,0.35-1.45,0.54
			c1.07,1.49,2.06,3.01,2.96,4.57c0.08-0.03,0.17-0.06,0.25-0.09c4.7-1.65,9.69-2.59,14.87-2.81v-5.32
			C276.46,111.03,270.88,112.08,265.62,113.92z M222.94,126.3h3.01c-1.99-1.12-4.14-2.09-6.44-2.89c-4.19-1.47-8.66-2.32-13.3-2.54
			v5.43H222.94z M226.17,104.43c-6.33-2.22-13.03-3.45-19.96-3.68v5.32c6.32,0.23,12.43,1.36,18.2,3.38
			c6.09,2.14,11.52,5.16,16.14,8.99c2.88,2.39,5.36,5.03,7.37,7.86h6.34c-2.56-4.38-6.01-8.39-10.31-11.95
			C238.84,110.12,232.86,106.78,226.17,104.43L226.17,104.43z M237.52,122.09c-4.18-3.47-9.12-6.21-14.68-8.16
			c-5.26-1.85-10.84-2.89-16.63-3.11v5.32c5.18,0.22,10.17,1.16,14.87,2.81c4.97,1.74,9.35,4.18,13.05,7.24
			c0.05,0.04,0.1,0.08,0.15,0.12h7.6C240.58,124.82,239.12,123.41,237.52,122.09z M265.52,126.3h-5.87
			c-2.93-5.8-7.19-11.04-12.68-15.6c-5.53-4.59-12-8.2-19.22-10.74c-6.83-2.39-14.06-3.72-21.53-3.95v-5.32
			C232.83,91.49,256.49,105.76,265.52,126.3z"/>
	</g>
</g>
<g id="Logo5">
</g>
<g id="Logo6">
</g>
<g id="Logo7">
</g>
<g id="Logo8">
</g>
<g id="Logo9">
</g>
<g id="Logo10">
</g>
<g id="Logo11">
</g>
<g id="Logo12">
</g>
<g id="Logo13">
</g>
<g id="Logo14">
</g>
<g id="Logo15">
</g>
</svg>
