<?xml version="1.0" encoding="utf-8"?>
<!-- Generator: Adobe Illustrator 27.8.1, SVG Export Plug-In . SVG Version: 6.00 Build 0)  -->
<svg version="1.1" xmlns="http://www.w3.org/2000/svg" xmlns:xlink="http://www.w3.org/1999/xlink" x="0px" y="0px"
	 viewBox="0 0 350 230" style="enable-background:new 0 0 350 230;" xml:space="preserve">
<style type="text/css">
	.st0{fill:#E4D027;}
	.st1{fill:#14A639;}
	.st2{fill:#9ED834;}
	.st3{fill:#0B8813;}
	.st4{fill:#FEFEFE;}
	.st5{fill:#6BC53C;}
	.st6{fill:#89E051;}
	.st7{fill:#E2BF2B;}
	.st8{fill:#0C8149;}
	.st9{fill:#5B3A00;}
	.st10{fill:#72721D;}
	.st11{fill:#355600;}
	.st12{fill:#603200;}
	.st13{fill:#2BC152;}
	.st14{fill:#DCE041;}
	.st15{fill:#BCAF15;}
	.st16{fill:#0B7E21;}
	.st17{fill:#5C9E23;}
	.st18{fill:#0C4710;}
	.st19{fill:#00760D;}
	.st20{fill:#459B02;}
	.st21{fill:#FCAC01;}
	.st22{fill:#AEC600;}
	.st23{fill:#545913;}
	.st24{fill:#953327;}
	.st25{fill:#ABCB13;}
	.st26{fill:#FFE566;}
	.st27{fill:#72DD2C;}
	.st28{fill:url(#SVGID_1_);}
	.st29{fill:url(#SVGID_00000135672062520309995270000017864482488111840407_);}
	.st30{fill:url(#SVGID_00000044864003609277355550000000611323588976647086_);}
	.st31{fill:#C1B700;}
	.st32{fill:url(#SVGID_00000156569990213622943840000001650323644630171780_);}
	.st33{fill:#2F5A11;}
	.st34{fill:url(#SVGID_00000089563119396979647960000015371215605388110524_);}
	.st35{fill:#E8CB1B;}
	.st36{fill:#AFAA00;}
</style>
<g id="Logo1">
</g>
<g id="Logo2">
</g>
<g id="Logo3">
</g>
<g id="Logo4">
</g>
<g id="Logo5">
</g>
<g id="Logo6">
</g>
<g id="Logo7">
</g>
<g id="Logo8">
</g>
<g id="Logo9">
	<g>
		<g>
			<path class="st22" d="M117.57,157.35c0-2.78,0-5.4,0-8.16c-0.89-0.04-1.7-0.11-2.5-0.11c-2.67,0-5.34,0.08-8-0.01
				c-0.59-0.02-1.53-0.52-1.65-0.97c-0.13-0.5,0.36-1.46,0.85-1.74c0.9-0.51,1.99-0.91,3.01-0.94c3.14-0.11,6.28-0.05,9.42-0.03
				c1.66,0.01,2.38,0.77,2.4,2.48c0.02,1.8,0,3.59,0,5.47c2.8,0,5.45,0,8.35,0c0-1.77,0-3.55,0-5.34c0-0.52-0.04-1.04,0.02-1.55
				c0.1-0.97,0.61-1.65,1.64-1.65c1.08,0.01,1.64,0.68,1.65,1.75c0.03,1.76,0.01,3.53,0.01,5.29c0,0.47,0,0.93,0,1.37
				c2.33,0.43,2.74,0.91,2.73,3.19c-0.01,2.15-0.07,4.3-0.09,6.45c0,0.33,0.1,0.67,0.16,1c0.19,1.06,0.38,2.12,0.6,3.32
				c1.82-0.65,3.88-1.37,5.93-2.1c0.08,0.12,0.15,0.23,0.23,0.35c-3.16,2.34-6.14,4.99-9.51,6.96
				c-18.75,10.91-38.33,12.89-58.71,4.97c-7.34-2.85-13.94-7.05-20.52-11.31c-8.66-5.61-17.32-11.27-26.81-15.4
				c-4.51-1.96-9.25-3.42-13.88-5.11c-0.15-0.05-0.29-0.13-0.71-0.31c6.21-0.71,12.08-0.53,17.9,0.8c8.1,1.84,15.44,5.44,22.52,9.67
				c6.97,4.17,13.97,8.28,20.99,12.38c1.06,0.62,2.23,1.04,3.49,1.62c0.04-0.49,0.09-0.82,0.1-1.14c0.02-3.05-0.04-6.11,0.09-9.16
				c0.05-1.34-0.42-1.83-1.67-2.17c-7.15-1.94-11.5-6.64-12.56-13.94c-0.6-4.14-0.42-8.38-0.32-12.68c1.76,3.33,4.97,4.75,7.77,6.68
				c3.73,2.57,6.07,6.11,7.05,10.57c0.48,2.2,1.19,4.34,1.79,6.51c0.15,0.01,0.3,0.02,0.45,0.03c0.46-1.53,1.02-3.04,1.36-4.6
				c0.73-3.4,1.67-6.74,4.12-9.32c1.46-1.54,3.14-2.95,4.93-4.06c2.47-1.54,4.87-3.05,6.06-5.89c0.13,0.02,0.25,0.05,0.38,0.07
				c0,1.1-0.01,2.2,0,3.3c0.03,3.7,0.23,7.4-0.76,11.03c-1.83,6.72-6.11,10.89-12.97,12.31c-0.71,0.15-0.93,0.43-0.93,1.09
				c-0.01,4.13-0.06,8.26-0.01,12.39c0,0.37,0.57,0.97,0.97,1.07c4.33,1.07,8.67,2.08,13.02,3.04c0.98,0.22,2.01,0.22,3.1,0.2
				c-3.57-3.16-5.28-6.98-4.77-11.71c0.35-3.22,1.77-5.86,4.11-8.09C102.61,151.16,111.72,150.03,117.57,157.35z M106.94,158.39
				c-3.52-0.13-6.59,2.72-6.72,6.24c-0.12,3.44,2.87,6.6,6.42,6.77c3.46,0.17,6.56-2.8,6.69-6.44
				C113.46,161.55,110.51,158.52,106.94,158.39z M128.46,170.73c-2.59-1.54-3.55-3.5-3.16-6.05c-2,0-3.83,0-5.7,0
				c-0.07,3.74-1.6,6.76-4.18,9.31c0.07,0.11,0.13,0.22,0.2,0.34C119.77,173.16,123.91,172,128.46,170.73z M132.73,166.02
				c-0.01-1.13-1.01-2.19-2.1-2.22c-1.02-0.03-1.99,0.93-2,1.97c-0.01,1.16,0.99,2.2,2.09,2.17
				C131.84,167.92,132.74,167.06,132.73,166.02z"/>
			<path class="st22" d="M20.73,160.06c3.2,0.47,6.43,0.8,9.59,1.46c7.25,1.5,13.72,4.88,20.08,8.52
				c5.67,3.24,11.27,6.63,17.12,9.51c10.79,5.32,22.3,7.36,34.3,6.58c6.46-0.42,12.75-1.78,18.91-3.76
				c0.36-0.12,0.72-0.22,1.22-0.06c-2.14,1.18-4.23,2.49-6.44,3.52c-21.73,10.04-42.93,8.71-63.35-3.52
				c-7.14-4.28-13.85-9.28-20.72-14c-3.65-2.51-7.22-5.13-10.82-7.69C20.66,160.42,20.69,160.24,20.73,160.06z"/>
			<path class="st22" d="M79.81,57.88c14.13,0.72,24.5,7.25,30.74,20.05c1.04,2.14,0.1,3.93-1.89,3.62
				c-0.68-0.11-1.47-0.86-1.83-1.53c-2.31-4.25-5.24-7.94-9-11.01c-10.27-8.39-25.21-8.66-35.77-0.61
				c-3.96,3.02-7.1,6.73-9.47,11.09c-0.19,0.34-0.37,0.68-0.58,1c-0.71,1.11-1.68,1.45-2.73,0.96c-1.03-0.48-1.54-1.54-1.05-2.71
				c0.62-1.5,1.31-3,2.2-4.36c6.3-9.58,15.09-15.18,26.55-16.48c0.13-0.01,0.26-0.02,0.39-0.02C78.18,57.88,78.99,57.88,79.81,57.88
				z"/>
			<path class="st22" d="M79.58,141.76c-1.59-4.42-4.8-6.59-8.46-8.45c-5.06-2.58-7.51-7.03-8.02-12.57
				c-0.19-2.06-0.03-4.16,0.07-6.3c1.34,3.12,4.09,4.51,6.87,5.91c4.1,2.08,6.81,5.22,7.57,9.93c0.27,1.7,1.07,3.31,1.63,4.96
				c0.17,0.01,0.33,0.02,0.5,0.03c0.46-1.16,1.09-2.28,1.35-3.47c0.71-3.23,1.51-6.42,4.13-8.68c1.32-1.14,2.78-2.18,4.33-2.98
				c2.67-1.37,5.27-2.72,6.53-5.7c0,2.12,0.15,4.26-0.03,6.37c-0.35,3.87-1.71,7.37-4.56,10.12c-1.01,0.97-2.17,1.88-3.43,2.47
				C84.35,135.12,81.09,137.26,79.58,141.76z"/>
			<path class="st22" d="M79.47,124.9c-1.33-3.22-3.5-5.42-6.56-6.76c-6.12-2.68-8.89-7.54-9.06-14.05c-0.03-1.29,0-2.58,0-3.87
				c0-0.07,0.06-0.14,0.21-0.45c1.14,3.27,3.86,4.55,6.53,5.94c3.67,1.91,5.98,4.87,6.89,8.98c0.37,1.68,1.16,3.27,1.76,4.9
				c0.19,0.01,0.39,0.02,0.58,0.03c0.6-1.61,1.38-3.17,1.76-4.83c0.98-4.25,3.41-7.27,7.29-9.12c2.75-1.31,5.35-2.72,6.41-6.2
				c1.06,8.16-1.4,15.28-8.6,18.38C82.62,119.61,81.6,120.75,79.47,124.9z"/>
			<path class="st22" d="M79.59,110.3c-1.22-2.96-2.97-5.28-5.81-6.47c-7.65-3.19-9.53-10.18-8.59-17.42
				c1.13,3.04,3.66,4.01,6.01,5.21c3.37,1.72,5.56,4.31,6.35,8.1c0.36,1.73,1.12,3.37,1.7,5.06c0.21,0.01,0.43,0.02,0.64,0.02
				c0.58-1.7,1.29-3.36,1.7-5.1c0.82-3.49,2.72-6.06,5.89-7.71c0.34-0.18,0.67-0.38,1.02-0.54c2.37-1.07,4.66-2.23,5.62-4.96
				c0.45,4.92,0.13,9.61-3.18,13.52c-0.87,1.03-1.94,2.06-3.13,2.61C84.22,104.29,80.93,106.18,79.59,110.3z"/>
			<path class="st22" d="M66.65,74.95c1.12,1.72,2.89,2.46,4.53,3.36c3.29,1.8,5.54,4.31,6.12,8.23c0.22,1.49,1.23,2.87,1.88,4.29
				c0.19,0.01,0.37,0.03,0.56,0.04c0.63-1.27,1.58-2.47,1.84-3.81c0.84-4.38,3.25-7.32,7.27-9.19c1.37-0.64,2.48-1.86,3.62-2.75
				c1.09,5.53-0.75,11.56-5.75,13.74c-3.19,1.39-5.85,3.26-7.07,6.98c-0.27-0.53-0.41-0.81-0.54-1.09c-1.06-2.2-2.64-3.84-4.86-4.96
				c-1.63-0.82-3.28-1.76-4.62-2.97c-2.98-2.69-3.35-6.33-3.18-10.09C66.49,76.14,66.59,75.54,66.65,74.95z"/>
			<path class="st22" d="M52.38,93.74c-3.31-0.54-7.17-1.15-11.02-1.82c-5.24-0.92-10.48-1.88-15.72-2.83
				c-0.46-0.08-0.93-0.17-1.38-0.31c-1.21-0.38-1.88-1.48-1.61-2.57c0.27-1.11,1.19-1.68,2.49-1.46c4.15,0.71,8.28,1.46,12.43,2.16
				c4.95,0.84,9.9,1.64,14.85,2.49c0.62,0.11,1.29,0.27,1.8,0.61c0.8,0.52,1.26,1.31,0.87,2.33C54.73,93.33,54.04,93.88,52.38,93.74
				z"/>
			<path class="st22" d="M106.27,93.83c-1.43-0.03-2.13-0.67-2.23-1.81c-0.12-1.29,0.51-2.13,1.83-2.37
				c2.07-0.37,4.15-0.69,6.22-1.04c7.15-1.23,14.29-2.47,21.44-3.71c1.66-0.29,2.85,0.29,3.06,1.5c0.21,1.23-0.7,2.35-2.27,2.62
				c-7.53,1.33-15.06,2.63-22.59,3.93C109.81,93.27,107.9,93.56,106.27,93.83z"/>
			<path class="st22" d="M79.64,85.32c-1.02-1.57-2.1-3.25-3.21-4.91c-2.15-3.2-2.16-6.8,0.05-9.98c0.95-1.37,1.98-2.68,2.98-4.01
				c3.93,3.02,5.74,8.23,4.23,12.19c-0.29,0.75-0.76,1.43-1.19,2.12C81.52,82.31,80.53,83.88,79.64,85.32z"/>
			<path class="st22" d="M114.85,102.23c2.24,0.51,4.91,1.09,7.58,1.72c3.71,0.87,7.42,1.77,11.13,2.66
				c0.42,0.1,0.84,0.19,1.23,0.35c1.1,0.47,1.68,1.49,1.43,2.44c-0.29,1.07-1.27,1.74-2.5,1.5c-2.23-0.43-4.44-0.97-6.65-1.48
				c-4.14-0.96-8.27-1.92-12.4-2.89c-1.69-0.4-2.31-1.02-2.34-2.29C112.3,102.87,113.01,102.17,114.85,102.23z"/>
			<path class="st22" d="M25.06,110.99c-1.05-0.08-1.83-0.52-2.07-1.6c-0.26-1.18,0.3-2.18,1.49-2.48c2.83-0.7,5.68-1.33,8.53-2
				c3.34-0.79,6.68-1.59,10.02-2.38c0.42-0.1,0.84-0.21,1.26-0.26c1.33-0.17,2.3,0.43,2.58,1.56c0.26,1.03-0.48,2.16-1.73,2.48
				c-2.04,0.52-4.09,0.99-6.14,1.47c-4.31,1-8.62,2-12.93,3C25.74,110.86,25.4,110.92,25.06,110.99z"/>
			<path class="st22" d="M52.15,66.66c-0.66,0.71-1.1,1.55-1.74,1.77c-0.63,0.21-1.66,0.03-2.19-0.39c-1.65-1.3-3.15-2.8-4.69-4.23
				c-2.08-1.93-4.14-3.88-6.2-5.83c-0.25-0.24-0.49-0.49-0.69-0.77c-0.63-0.92-0.68-1.89,0.13-2.7c0.8-0.8,1.8-0.86,2.69-0.13
				c1.39,1.15,2.72,2.37,4.06,3.58c2.32,2.12,4.64,4.23,6.9,6.4C51.04,64.96,51.48,65.76,52.15,66.66z"/>
			<path class="st22" d="M123.11,55.91c-0.4,0.66-0.59,1.22-0.97,1.58c-3.74,3.56-7.48,7.1-11.27,10.6
				c-0.91,0.84-2.02,0.74-2.77-0.04c-0.81-0.85-0.84-2.09,0.12-3c3.05-2.91,6.16-5.75,9.24-8.62c0.69-0.64,1.31-1.42,2.1-1.88
				c0.58-0.34,1.5-0.53,2.08-0.31C122.23,54.47,122.59,55.29,123.11,55.91z"/>
			<path class="st22" d="M77.51,46.63c0-2.28-0.02-4.56,0.01-6.84c0.01-1.49,0.76-2.32,2-2.31c1.17,0.01,2.07,0.95,2.07,2.32
				c0.02,4.56,0.01,9.12-0.02,13.67c-0.01,1.26-1.02,2.29-2.14,2.27c-1.11-0.02-1.93-0.95-1.94-2.28c-0.02-2.28-0.01-4.56-0.01-6.84
				C77.49,46.63,77.5,46.63,77.51,46.63z"/>
			<path class="st22" d="M115.71,78.06c-0.38-0.35-1.09-0.69-1.2-1.17c-0.13-0.56,0.16-1.3,0.48-1.84c0.2-0.34,0.79-0.47,1.23-0.65
				c2.23-0.91,4.45-1.82,6.69-2.7c0.51-0.2,1.11-0.49,1.59-0.39c0.54,0.12,1.21,0.56,1.4,1.03c0.16,0.38-0.26,1.05-0.52,1.53
				c-0.12,0.22-0.49,0.34-0.76,0.46c-2.52,1.1-5.04,2.2-7.57,3.28C116.7,77.77,116.32,77.86,115.71,78.06z"/>
			<path class="st22" d="M44.74,75.77c0.03,1.54-1.01,2.45-1.99,2.04c-2.93-1.22-5.83-2.52-8.71-3.85
				c-0.83-0.38-1.08-1.29-0.57-1.96c0.34-0.45,1.23-0.77,1.81-0.7c0.86,0.1,1.68,0.6,2.52,0.94c1.75,0.71,3.53,1.36,5.23,2.16
				C43.77,74.76,44.35,75.45,44.74,75.77z"/>
			<path class="st22" d="M68.46,44.62c0.27,0.27,0.95,0.66,1.17,1.24c0.86,2.23,1.61,4.51,2.34,6.79c0.35,1.07-0.07,1.83-1.17,2.19
				c-1.08,0.35-1.65-0.25-1.94-1.14c-0.77-2.31-1.55-4.62-2.21-6.97C66.31,45.49,66.97,44.66,68.46,44.62z"/>
			<path class="st22" d="M49.6,54.41c0.43-0.48,0.73-1.11,1.2-1.27c0.47-0.16,1.34-0.06,1.61,0.27c1.75,2.12,3.43,4.3,5,6.55
				c0.24,0.34,0.01,1.36-0.35,1.65c-0.41,0.34-1.23,0.35-1.82,0.24c-0.38-0.07-0.71-0.59-1-0.96c-1.24-1.54-2.47-3.09-3.66-4.67
				C50.22,55.73,49.98,55.12,49.6,54.41z"/>
			<path class="st22" d="M101.35,60.7c0.32-0.64,0.5-1.13,0.79-1.53c1.27-1.73,2.55-3.44,3.86-5.14c0.87-1.13,1.67-1.35,2.49-0.75
				c0.9,0.66,0.99,1.54,0.13,2.7c-1.34,1.83-2.69,3.66-4.17,5.38c-0.38,0.44-1.27,0.72-1.86,0.63
				C102.13,61.92,101.77,61.17,101.35,60.7z"/>
			<path class="st22" d="M90.49,44.67c1.42-0.01,2.22,0.95,1.9,2.02c-0.69,2.34-1.45,4.66-2.25,6.96c-0.32,0.92-0.97,1.59-2.06,1.22
				c-1.08-0.36-1.26-1.27-0.97-2.21c0.71-2.33,1.47-4.65,2.32-6.94C89.62,45.22,90.26,44.89,90.49,44.67z"/>
			<path class="st22" d="M64.1,56.71c-0.24,0.25-0.59,0.91-1.03,0.98c-0.57,0.09-1.46-0.09-1.78-0.5c-0.62-0.78-0.96-1.8-1.39-2.73
				c-0.57-1.25-1.16-2.49-1.67-3.76c-0.3-0.76-0.09-1.45,0.67-1.87c0.78-0.44,1.56-0.21,1.91,0.47c1.15,2.2,2.16,4.47,3.22,6.71
				C64.09,56.12,64.07,56.27,64.1,56.71z"/>
			<path class="st22" d="M96.9,57.83c-1.36,0.02-2.21-0.88-1.8-1.91c0.91-2.3,2-4.53,3.16-6.71c0.18-0.34,1.32-0.52,1.75-0.28
				c0.43,0.24,0.88,1.21,0.72,1.64c-0.83,2.2-1.81,4.34-2.83,6.46C97.69,57.45,97.09,57.68,96.9,57.83z"/>
		</g>
	</g>
</g>
<g id="Logo10">
</g>
<g id="Logo11">
</g>
<g id="Logo12">
</g>
<g id="Logo13">
</g>
<g id="Logo14">
</g>
<g id="Logo15">
</g>
</svg>
