<?xml version="1.0" encoding="utf-8"?>
<!-- Generator: Adobe Illustrator 27.8.1, SVG Export Plug-In . SVG Version: 6.00 Build 0)  -->
<svg version="1.1" xmlns="http://www.w3.org/2000/svg" xmlns:xlink="http://www.w3.org/1999/xlink" x="0px" y="0px"
	 viewBox="0 0 350 230" style="enable-background:new 0 0 350 230;" xml:space="preserve">
<style type="text/css">
	.st0{fill:#E4D027;}
	.st1{fill:#14A639;}
	.st2{fill:#9ED834;}
	.st3{fill:#0B8813;}
	.st4{fill:#FEFEFE;}
	.st5{fill:#6BC53C;}
	.st6{fill:#89E051;}
	.st7{fill:#E2BF2B;}
	.st8{fill:#0C8149;}
	.st9{fill:#5B3A00;}
	.st10{fill:#72721D;}
	.st11{fill:#355600;}
	.st12{fill:#603200;}
	.st13{fill:#2BC152;}
	.st14{fill:#DCE041;}
	.st15{fill:#BCAF15;}
	.st16{fill:#0B7E21;}
	.st17{fill:#5C9E23;}
	.st18{fill:#0C4710;}
	.st19{fill:#00760D;}
	.st20{fill:#459B02;}
	.st21{fill:#FCAC01;}
	.st22{fill:#AEC600;}
	.st23{fill:#545913;}
	.st24{fill:#953327;}
	.st25{fill:#ABCB13;}
	.st26{fill:#FFE566;}
	.st27{fill:#72DD2C;}
	.st28{fill:url(#SVGID_1_);}
	.st29{fill:url(#SVGID_00000141448640529715775130000010582825764978977664_);}
	.st30{fill:url(#SVGID_00000134226374866178594470000017017742080802221707_);}
	.st31{fill:#C1B700;}
	.st32{fill:url(#SVGID_00000099660076870762088590000014558795675589375145_);}
	.st33{fill:#2F5A11;}
	.st34{fill:url(#SVGID_00000124873254978741511100000009158832444662034590_);}
	.st35{fill:#E8CB1B;}
	.st36{fill:#AFAA00;}
</style>
<g id="Logo1">
</g>
<g id="Logo2">
</g>
<g id="Logo3">
</g>
<g id="Logo4">
</g>
<g id="Logo5">
</g>
<g id="Logo6">
</g>
<g id="Logo7">
</g>
<g id="Logo8">
</g>
<g id="Logo9">
</g>
<g id="Logo10">
</g>
<g id="Logo11">
</g>
<g id="Logo12">
	<path class="st19" d="M80.58,116.43c1.5,0.41,2.86,0.66,4.12,1.17c3.14,1.25,6.31,2.46,9.32,3.99c1.63,0.83,2.52,0.18,3.6-0.75
		c1.76-1.51,3.54-3,5.36-4.44c1.17-0.93,2.42-1.75,3.63-2.64c0.23-0.17,0.4-0.41,0.73-0.76c-1-0.61-1.86-1.24-2.81-1.69
		c-3.92-1.87-7.89-3.62-11.78-5.55c-2.16-1.07-4.48-1.59-6.72-2.39c-2.27-0.8-4.6-1.48-6.95-2.03c-4.14-0.96-8.27-2.02-12.47-2.59
		c-4.46-0.6-8.99-0.69-13.48-0.99c-0.43-0.03-0.86-0.02-1.29-0.06c-1.78-0.18-2.3-0.74-2.2-2.55c0.06-1.11,0.72-1.73,1.86-1.7
		c3.06,0.09,6.12,0.13,9.17,0.32c1.88,0.11,1.9,0.2,1.9-1.82c0-1.64-0.02-3.28,0-4.92c0.02-1.6-0.66-2.65-2.02-3.56
		c-1.04-0.69-1.89-1.78-2.57-2.86c-1.12-1.78-2.71-3.27-3.15-5.52c-0.26-1.33-1.35-2.49-1.72-3.82c-0.92-3.31-1.27-6.74-0.78-10.14
		c0.47-3.24,1.04-6.5,3.17-9.24c0.8-1.02,1.1-2.44,1.92-3.43c1.56-1.9,3.27-3.69,5.05-5.39c0.65-0.62,1.74-1.27,2.52-1.15
		c0.87,0.13,1.82,0.98,2.35,1.77c0.84,1.25,2.42,1.5,3.21,2.77c1.18,1.87,2.71,3.55,3.7,5.52c4.19,8.33,4.25,16.73-0.31,24.93
		c-1.33,2.39-3.27,4.44-4.98,6.61c-0.26,0.33-0.98,0.32-1.21,0.65c-0.39,0.59-0.76,1.31-0.79,1.99c-0.1,2.32-0.05,4.66-0.07,6.99
		c-0.01,0.88,0.32,1.34,1.27,1.42c1.07,0.09,2.13,0.31,3.18,0.54c0.86,0.19,1.16-0.07,1.15-0.96c-0.04-2.54,0-5.09-0.02-7.64
		c-0.01-0.96,0.28-1.63,1.07-2.31c1.18-1.03,2.07-2.39,3.15-3.55c1.34-1.44,2.69-2.87,4.12-4.22c1.11-1.05,2.39-1.92,3.48-2.98
		c0.9-0.88,1.54-2.03,2.47-2.88c0.54-0.49,1.42-0.86,2.15-0.87c8.93-0.06,17.86-0.06,26.79-0.02c1.3,0,2.42,0.45,3.4,1.51
		c2.4,2.59,4.96,5.03,7.47,7.52c1.69,1.68,3.45,3.3,5.02,5.08c0.56,0.64,0.93,1.67,0.95,2.54c0.09,4.05,0.03,8.11,0.03,12.17
		c0,1.78,0.08,1.79,1.73,1.28c3.7-1.13,7.42-2.22,11.15-3.25c0.93-0.26,1.42-0.59,1.33-1.65c-0.09-1.11-0.14-2.26,0-3.36
		c0.18-1.47-0.47-2.45-1.5-3.34c-3.54-3.08-6.35-6.75-8.52-10.91c-0.02-0.04-0.05-0.07-0.06-0.11c-1.01-2.91-2.29-5.76-2.97-8.75
		c-1.3-5.73-0.99-11.5,1.02-17.05c1.87-5.15,4.4-10,8.48-13.79c1.14-1.05,1.93-2.65,3.75-2.97c0.43-0.08,0.67-0.97,1.14-1.22
		c1.1-0.6,2.06-0.29,2.95,0.62c1.48,1.51,3.18,2.83,4.56,4.42c6.39,7.34,9.87,15.77,9.27,25.65c-0.28,4.66-1.55,9.08-3.72,13.21
		c-0.51,0.96-1.45,1.69-2.04,2.62c-0.49,0.78-0.6,1.84-1.17,2.52c-1.8,2.14-3.68,4.22-5.67,6.18c-0.75,0.74-1.16,1.4-1.09,2.43
		c0.06,0.99,0.04,1.98,0,2.98c-0.04,0.95,0.37,1.2,1.26,1.03c9.6-1.78,19.31-1.67,29.03-1.66c37.75,0.03,75.5,0.01,113.25,0.01
		c1.04,0,2.08-0.04,3.1,0.04c0.46,0.04,1.32-0.36,1.24,0.73c0,0.05,0.22,0.19,0.3,0.17c1.15-0.35,1.21,0.48,1.21,1.2
		c-0.01,1.04-0.52,1.83-1.55,2.13c-0.4,0.12-0.86,0.07-1.29,0.07c-41.55,0-83.1-0.02-124.64,0.03c-4.17,0-8.35,0.34-12.51,0.69
		c-3.23,0.27-6.45,0.79-9.66,1.25c-1.54,0.22-3.12,0.41-4.6,0.88c-4.69,1.5-9.36,3.06-13.98,4.73c-2.6,0.94-5.11,2.17-7.66,3.25
		c-1.67,0.71-3.38,1.35-5.02,2.13c-0.79,0.37-1.44,1.02-2.18,1.51c-3.72,2.46-7.56,4.75-11.14,7.4c-3.52,2.6-6.76,5.57-10.14,8.36
		c-0.35,0.29-0.79,0.46-1.18,0.7c-0.31,0.19-0.67,0.36-0.89,0.62c-1.26,1.49-2.45,3.04-3.74,4.49c-0.47,0.53-1.16,0.88-1.49,1.12
		c-1.21,1.63-2.23,3.09-3.34,4.48c-1.11,1.39-2.42,2.63-3.45,4.08c-1.27,1.79-2.33,3.73-3.52,5.58c-1.83,2.85-3.64,5.72-5.6,8.48
		c-0.3,0.42-1.52,0.59-2.07,0.33c-0.6-0.28-1.09-1.13-1.3-1.83c-0.14-0.47,0.18-1.18,0.49-1.66c2.51-3.89,5.05-7.76,7.6-11.62
		c0.83-1.25,0.71-1.6-0.65-2.17c-5.46-2.29-11.23-3.36-17.02-4.27c-2.8-0.44-5.67-0.4-8.51-0.53c-1.29-0.06-2.14-0.85-2.22-2.17
		c-0.06-1.12,0.72-1.94,2-2.01c3.53-0.18,7.03-0.12,10.51,0.72c2.45,0.59,5.05,0.61,7.48,1.27c3.78,1.02,7.48,2.36,11.22,3.57
		c0.33,0.11,0.65,0.22,0.72,0.25c3.58-3.96,7.07-7.82,10.67-11.8c-0.45-0.28-0.88-0.63-1.36-0.83c-2.31-0.95-4.65-1.83-6.96-2.8
		c-5.06-2.13-10.41-3.18-15.73-4.35c-5.27-1.15-10.62-1.36-15.98-1.54c-1.75-0.06-2.59-0.75-2.59-2.19c0-1.5,0.88-2.38,2.66-2.26
		c4.07,0.27,8.14,0.57,12.2,1.04c2.98,0.34,5.95,0.88,8.9,1.5c2.35,0.49,4.66,1.21,6.98,1.85
		C80.33,116.08,80.51,116.37,80.58,116.43z M151.37,82.7c0.17,0.08,0.35,0.16,0.52,0.24c0.83-1.05,1.65-2.1,2.48-3.15
		c3.27-4.1,5.17-8.86,5.97-13.95c0.53-3.38,0.44-6.91-0.55-10.27c-0.87-2.95-1.93-5.84-2.91-8.76c-0.04-0.11-0.15-0.2-0.24-0.29
		c-0.61-0.69-1.24-1.37-1.84-2.07c-2-2.33-3.99-4.66-6.04-7.06c-0.69,1.02-1.12,2-1.84,2.65c-1.33,1.2-2.59,2.38-3.42,4.04
		c-0.88,1.76-2.17,3.33-3.01,5.11c-2.69,5.68-3.8,11.62-2.48,17.88c0.1,0.46,0.11,0.94,0.2,1.4c0.13,0.67,0.26,1.33,0.44,1.98
		c0.09,0.32,0.35,0.59,0.47,0.91c1.4,3.98,3.54,7.52,6.3,10.69c0.29,0.34,0.71,0.56,1.36,1.06c0-1.15,0-1.88,0-2.61
		c0-5.22-0.01-10.44,0.01-15.66c0-1.03,0.08-2.14,1.26-2.56c1.69-0.59,3.18,0.54,3.18,2.36c0.01,5.48,0,10.96,0.01,16.44
		C151.26,81.62,151.33,82.16,151.37,82.7z M116.32,87.84c-3.49,0-6.98,0.02-10.48-0.01c-1.06-0.01-1.43,0.41-1.42,1.47
		c0.04,5.26,0,10.52,0.07,15.78c0.01,0.55,0.45,1.27,0.91,1.6c1.29,0.91,2.68,1.68,4.07,2.46c1.44,0.8,2.89,1.54,4.41,0.03
		c0.32-0.32,0.99-0.27,1.48-0.44c0.22-0.08,0.4-0.26,0.58-0.42c0.35-0.3,0.64-0.69,1.03-0.9c1.93-1.03,3.88-2.03,5.85-3
		c1.12-0.55,2.24-1.22,3.44-1.46c1.42-0.29,1.87-1,1.86-2.33c-0.03-3.71-0.01-7.42-0.01-11.12c0-1.58-0.06-1.65-1.71-1.65
		C123.05,87.84,119.68,87.84,116.32,87.84z M61.98,78.58c0.15-0.06,0.3-0.11,0.45-0.17c0.05-0.4,0.14-0.8,0.15-1.2
		c0.02-0.99,0-1.98,0-2.98c0-3.88-0.01-7.76,0.02-11.65c0.01-1.57,0.66-2.42,1.83-2.54c1.42-0.14,2.38,0.58,2.4,2.01
		c0.07,4.7,0.06,9.4,0.1,14.1c0.01,0.71,0.12,1.42,0.21,2.28c0.46-0.17,0.82-0.2,0.96-0.39c0.73-1,1.66-1.95,2.05-3.08
		c0.71-2.02,1.84-3.84,2.26-6.02c0.88-4.6,0.58-9.04-1.25-13.29c-0.7-1.62-1.07-3.47-2.65-4.72c-1.23-0.97-2.13-2.35-3.26-3.46
		c-0.19-0.19-0.93-0.15-1.17,0.07c-0.93,0.83-1.96,1.64-2.59,2.68c-1.92,3.14-3.97,6.19-4.57,10.01c-0.81,5.2-0.02,10.03,2.54,14.58
		C60.2,76.14,61.14,77.33,61.98,78.58z M94.28,74.1c0.34,0.77,0.42,1.34,0.75,1.65c1.13,1.03,2.39,1.92,3.51,2.96
		c0.91,0.84,1.75,1.77,2.5,2.76c0.87,1.16,1.87,1.94,3.38,1.94c4.87-0.01,9.74,0,14.62,0c0.43,0,0.86,0.05,1.29,0.05
		c1.37,0.01,2.75,0,4.12,0c0.06-0.14,0.13-0.28,0.19-0.42c-0.27-0.39-0.48-0.83-0.81-1.15c-1.75-1.68-3.68-3.2-5.25-5.04
		c-1.63-1.9-3.24-2.98-5.97-2.84c-5.46,0.28-10.95,0.08-16.42,0.08C95.67,74.1,95.16,74.1,94.28,74.1z M99.82,103.86
		c0.11-0.4,0.28-0.71,0.28-1.03c0.01-4.61,0.01-9.23,0-13.84c0-0.79-0.4-1.14-1.22-1.14c-6.86,0.01-13.72,0.02-20.57,0
		c-0.93,0-1.34,0.38-1.33,1.31c0.02,1.55,0,3.11,0,4.66c0,2.25,0,2.25,2.11,2.88c1.87,0.56,1.87,0.56,1.87-1.37
		c0-0.3-0.01-0.6,0-0.91c0.02-1.96,0.52-2.44,2.46-2.35c0.3,0.01,0.6-0.02,0.9-0.03c2.92-0.11,5.85-0.45,8.75-0.26
		c2.41,0.16,3.08,0.04,3.09,3.43c0.01,2.03-0.04,4.06,0.04,6.08c0.02,0.48,0.3,1.17,0.67,1.39
		C97.75,103.17,98.76,103.45,99.82,103.86z M96.57,83.35c-0.67-0.96-1.12-1.84-1.79-2.5c-1.77-1.73-3.66-3.33-5.44-5.05
		c-0.73-0.7-1.2-0.54-1.81,0.11c-1.98,2.09-4,4.14-6.01,6.21c-0.29,0.3-0.54,0.63-1.05,1.23C86.01,83.35,91.19,83.35,96.57,83.35z
		 M91.66,100.51c0-1.28-0.02-2.29,0.01-3.3c0.02-0.8-0.39-1.07-1.11-1.06c-1.38,0.01-2.75-0.04-4.13,0.05
		c-0.36,0.02-0.98,0.44-0.98,0.68c0,0.57,0.14,1.5,0.49,1.64C87.7,99.26,89.55,99.8,91.66,100.51z M147.09,53.99
		c-0.29,0.48-0.13,1.43,0.15,2.02c0.5,1.04,1.88,1.44,2.75,0.69c0.63-0.55,1.17-1.61,1.12-2.4c-0.04-0.65-1.01-1.24-1.78-2.09
		C148.36,52.94,147.49,53.32,147.09,53.99z"/>
</g>
<g id="Logo13">
</g>
<g id="Logo14">
</g>
<g id="Logo15">
</g>
</svg>
