<?xml version="1.0" encoding="utf-8"?>
<!-- Generator: Adobe Illustrator 27.8.1, SVG Export Plug-In . SVG Version: 6.00 Build 0)  -->
<svg version="1.1" xmlns="http://www.w3.org/2000/svg" xmlns:xlink="http://www.w3.org/1999/xlink" x="0px" y="0px"
	 viewBox="0 0 350 230" style="enable-background:new 0 0 350 230;" xml:space="preserve">
<style type="text/css">
	.st0{fill:#E4D027;}
	.st1{fill:#14A639;}
	.st2{fill:#9ED834;}
	.st3{fill:#0B8813;}
	.st4{fill:#FEFEFE;}
	.st5{fill:#6BC53C;}
	.st6{fill:#89E051;}
	.st7{fill:#E2BF2B;}
	.st8{fill:#0C8149;}
	.st9{fill:#5B3A00;}
	.st10{fill:#72721D;}
	.st11{fill:#355600;}
	.st12{fill:#603200;}
	.st13{fill:#2BC152;}
	.st14{fill:#DCE041;}
	.st15{fill:#BCAF15;}
	.st16{fill:#0B7E21;}
	.st17{fill:#5C9E23;}
	.st18{fill:#0C4710;}
	.st19{fill:#00760D;}
	.st20{fill:#459B02;}
	.st21{fill:#FCAC01;}
	.st22{fill:#AEC600;}
	.st23{fill:#545913;}
	.st24{fill:#953327;}
	.st25{fill:#ABCB13;}
	.st26{fill:#FFE566;}
	.st27{fill:#72DD2C;}
	.st28{fill:url(#SVGID_1_);}
	.st29{fill:url(#SVGID_00000099622313461300243460000016623447255610680241_);}
	.st30{fill:url(#SVGID_00000025415775301526037960000013072262656536024507_);}
	.st31{fill:#C1B700;}
	.st32{fill:url(#SVGID_00000172402542879478028690000005577428365421353102_);}
	.st33{fill:#2F5A11;}
	.st34{fill:url(#SVGID_00000026869218386934554210000004501653324047138214_);}
	.st35{fill:#E8CB1B;}
	.st36{fill:#AFAA00;}
</style>
<g id="Logo1">
</g>
<g id="Logo2">
</g>
<g id="Logo3">
</g>
<g id="Logo4">
</g>
<g id="Logo5">
</g>
<g id="Logo6">
</g>
<g id="Logo7">
</g>
<g id="Logo8">
	<g>
		<path class="st19" d="M174.74,50.52c-1.37,7.6-2.74,15.19-4.18,23.21c-1.95-1.42-3.76-2.57-5.39-3.94
			c-7.48-6.3-9.47-14.27-6.96-23.54c0.97-3.57,2.59-6.84,4.35-10.09c3.22-5.94,7.22-11.3,11.58-16.42c0.22-0.26,0.42-0.54,0.58-0.74
			c0.27,0.08,0.37,0.08,0.42,0.13c6.07,6.94,11.56,14.27,15.11,22.88c1.57,3.8,2.48,7.74,2.43,11.87
			c-0.09,6.4-2.87,11.51-7.63,15.61c-1.72,1.48-3.63,2.74-5.69,4.27c-1.46-8-2.84-15.62-4.23-23.24
			C175,50.52,174.87,50.52,174.74,50.52z M194.8,104.72c-10.61,11.42-15.81,25.07-16.05,40.7c3.87,0,7.51,0,11.16,0
			c0.42-13.46,5.04-25.06,14.55-34.53c9.49-9.45,21.1-14.05,34.5-14.4c0-0.65,0-1.16,0-1.68c0-3.07,0-6.14,0-9.52
			C221.41,85.69,206.63,91.98,194.8,104.72z M197.77,145.45c3.65,0,7.3,0,10.83,0c2.01-18.28,12.05-28.3,30.3-30.28
			c0-3.53,0-7.16,0-10.87C214.6,104.18,197.25,124.88,197.77,145.45z M238.84,123.33c-12.84-0.18-22.65,11.33-22,22.14
			c7.3,0,14.6,0,22,0C238.84,137.99,238.84,130.66,238.84,123.33z"/>
		<path class="st20" d="M159.99,145.47c-0.32-13.55-5.01-25.12-14.5-34.6c-9.45-9.44-21.01-14.08-34.42-14.41c0-3.64,0-7.22,0-10.96
			c1.28,0,2.56-0.08,3.83,0.01c10.63,0.77,20.51,3.91,29.29,9.98c16.83,11.64,25.85,27.72,26.81,48.23
			c0.08,1.73,0.04,1.74-1.63,1.74C166.3,145.48,163.23,145.47,159.99,145.47z M209.85,66.79c-3.26,5.16-6.52,10.31-9.84,15.58
			c3.24,0.79,6.27,0.89,9.26,0.43c6.62-1,10.59-5.31,13.18-11.12c2.55-5.74,3.47-11.85,3.95-18.05c0.13-1.74,0.19-3.49,0.29-5.4
			c-2.11,0.3-3.95,0.52-5.78,0.83c-6.18,1.03-12.23,2.5-17.72,5.65c-5.79,3.32-9.47,8.04-9.56,15c-0.03,2.68,0.32,5.3,1.33,7.95
			c4.96-3.76,9.79-7.41,14.61-11.07C209.66,66.66,209.76,66.73,209.85,66.79z M149.92,82.43c-6.21,1.17-11.93,1.11-16.9-3.01
			c-2.66-2.21-4.35-5.06-5.72-8.23c-3.01-6.95-3.65-14.29-4.05-21.7c-0.02-0.34,0-0.68,0-1.22c1.39,0.18,2.66,0.32,3.93,0.51
			c6.15,0.9,12.2,2.23,17.81,5.01c5.14,2.55,9.3,6.07,10.78,11.94c1.01,3.98,0.5,7.89-0.76,11.98c-5.01-3.79-9.89-7.48-14.76-11.16
			c-0.08,0.07-0.16,0.13-0.24,0.2C143.26,71.91,146.53,77.07,149.92,82.43z M111.05,115.11c0-3.53,0-7.11,0-10.95
			c2.18,0.21,4.29,0.29,6.36,0.63c17.58,2.9,31.11,16.27,34.16,33.77c0.33,1.91,0.46,3.87,0.59,5.81c0.02,0.35-0.42,1.05-0.66,1.05
			c-3.41,0.07-6.82,0.05-10.13,0.05C139.28,127.22,129.36,117.11,111.05,115.11z M111.06,123.42c2.73-0.21,5.18,0.45,7.59,1.32
			c8.16,2.93,13.99,10.78,14.45,19.36c0.04,0.83,0.04,1.4-1.08,1.4c-6.67-0.04-13.33-0.02-20-0.03c-0.29,0-0.58-0.06-0.96-0.11
			C111.06,138.05,111.06,130.81,111.06,123.42z"/>
		<path class="st21" d="M184.97,95.25c0,5.5-4.46,9.97-9.97,9.97s-9.97-4.46-9.97-9.97c0-5.5,4.46-9.97,9.97-9.97
			S184.97,89.75,184.97,95.25z"/>
	</g>
</g>
<g id="Logo9">
</g>
<g id="Logo10">
</g>
<g id="Logo11">
</g>
<g id="Logo12">
</g>
<g id="Logo13">
</g>
<g id="Logo14">
</g>
<g id="Logo15">
</g>
</svg>
