<?xml version="1.0" encoding="utf-8"?>
<!-- Generator: Adobe Illustrator 27.8.1, SVG Export Plug-In . SVG Version: 6.00 Build 0)  -->
<svg version="1.1" xmlns="http://www.w3.org/2000/svg" xmlns:xlink="http://www.w3.org/1999/xlink" x="0px" y="0px"
	 viewBox="0 0 350 230" style="enable-background:new 0 0 350 230;" xml:space="preserve">
<style type="text/css">
	.st0{fill:#E4D027;}
	.st1{fill:#14A639;}
	.st2{fill:#9ED834;}
	.st3{fill:#0B8813;}
	.st4{fill:#FEFEFE;}
	.st5{fill:#6BC53C;}
	.st6{fill:#89E051;}
	.st7{fill:#E2BF2B;}
	.st8{fill:#0C8149;}
	.st9{fill:#5B3A00;}
	.st10{fill:#72721D;}
	.st11{fill:#355600;}
	.st12{fill:#603200;}
	.st13{fill:#2BC152;}
	.st14{fill:#DCE041;}
	.st15{fill:#BCAF15;}
	.st16{fill:#0B7E21;}
	.st17{fill:#5C9E23;}
	.st18{fill:#0C4710;}
	.st19{fill:#00760D;}
	.st20{fill:#459B02;}
	.st21{fill:#FCAC01;}
	.st22{fill:#AEC600;}
	.st23{fill:#545913;}
	.st24{fill:#953327;}
	.st25{fill:#ABCB13;}
	.st26{fill:#FFE566;}
	.st27{fill:#72DD2C;}
	.st28{fill:url(#SVGID_1_);}
	.st29{fill:url(#SVGID_00000124858076150591657250000018032102903848046742_);}
	.st30{fill:url(#SVGID_00000044888917734523103110000003624977812684702089_);}
	.st31{fill:#C1B700;}
	.st32{fill:url(#SVGID_00000089537053680282635100000011840737960087460245_);}
	.st33{fill:#2F5A11;}
	.st34{fill:url(#SVGID_00000142168087974105037150000005221695225815402902_);}
	.st35{fill:#E8CB1B;}
	.st36{fill:#AFAA00;}
</style>
<g id="Logo1">
</g>
<g id="Logo2">
</g>
<g id="Logo3">
</g>
<g id="Logo4">
</g>
<g id="Logo5">
</g>
<g id="Logo6">
</g>
<g id="Logo7">
</g>
<g id="Logo8">
</g>
<g id="Logo9">
</g>
<g id="Logo10">
</g>
<g id="Logo11">
	<g>
		<path class="st24" d="M199.53,70.61c14.02,2.58,23.84,10.31,29.82,23.19c8.43-13.19,19.41-22.54,35.43-24.67
			c-2.82,2.39-5.72,4.57-8.31,7.08c-10.11,9.79-16.88,21.69-21.43,34.89c-1.56,4.53-2.5,9.28-3.95,13.86
			c-6.28,19.76-19.67,31.76-39.99,35.61c-13.06,2.48-25.82,0.53-38.07-4.46c-13.99-5.7-22.99-16.13-27.91-30.26
			c-2.79-8.03-4.06-16.36-5.04-24.75c-0.76-6.51-1.09-13.08-2.93-19.77c0.4,0.47,0.62,0.67,0.78,0.91
			c3.36,4.97,5.89,10.27,7.27,16.17c0.72,3.07,2.08,6,3.25,8.96c0.32,0.82,0.99,1.51,1.78,2.15c-0.15-0.81-0.3-1.62-0.44-2.43
			c-1.51-8.85-0.67-17.51,1.95-26.05c1.05-3.43,1.99-6.89,2.87-10.36c1.78-7.02,1.62-13.8-2.73-20.14c0.38,0.2,0.78,0.37,1.14,0.6
			c3.16,2.03,5.07,5.04,6.37,8.45c2.99,7.8,3.3,15.75,1.25,23.84c-0.88,3.47-1.76,6.96-2.28,10.49c-0.32,2.15,0.05,4.39,0.11,6.6
			c0.15,0,0.31,0,0.46,0c0.24-1.62,0.4-3.25,0.73-4.85c1.84-8.99,6.65-16.19,13.63-21.97c3.03-2.51,6.27-4.76,9.39-7.16
			c1.25-0.96,2.46-1.97,3.62-3.02c5.13-4.68,6.33-10.65,5.65-17.24c-0.05-0.51-0.12-1.02-0.07-1.56c1.71,2.65,2.28,5.6,2.12,8.69
			c-0.33,6.17-3.07,11.35-6.95,15.95c-2.65,3.14-5.55,6.07-8.35,9.07c-3.39,3.63-6.48,7.47-8.41,12.11
			c-2.54,6.12-2.53,12.43-1.4,18.83c1.37,7.84,4.01,15.14,9.21,21.3c11.46,13.6,31.65,15.4,45.46,4.12
			c15.35-12.54,19.04-36.48,8.12-52.72c-2.85-4.24-6.52-7.63-10.82-10.36c-0.37-0.23-0.74-0.47-1.1-0.72
			C199.7,70.95,199.67,70.85,199.53,70.61z"/>
		<path class="st25" d="M230.37,58.82c6.51-0.01,11.71,5.17,11.7,11.65c-0.01,6.44-5.3,11.68-11.75,11.63
			c-6.41-0.05-11.56-5.25-11.55-11.68C218.78,63.99,223.94,58.83,230.37,58.82z M105.5,55.21c-0.85-0.02-1.33,0.22-1.74,1.01
			c-2.98,5.79-1.43,13.02,3.71,17.01c2.18,1.69,4.63,2.65,7.62,2.85c-1.84-3.89-3.59-7.57-5.34-11.26c0.1-0.05,0.21-0.11,0.31-0.16
			c2.36,3.34,4.72,6.67,7.17,10.14C121.56,65.88,115.15,55.42,105.5,55.21z M134.96,43.96c1.4-9.24-7.31-17.27-16.42-15.18
			c-0.97,0.22-1.37,0.7-1.54,1.63c-0.9,5.14,0.47,9.55,4.36,13.03c3.25,2.91,7.11,3.87,11.67,3.12c-2.77-3.3-5.4-6.43-8.02-9.56
			c0.08-0.08,0.17-0.15,0.25-0.23c3.13,2.63,6.25,5.25,9.47,7.95C134.84,44.36,134.93,44.17,134.96,43.96z M122.95,55.45
			c0.07-0.07,0.14-0.14,0.22-0.21c3.19,2.68,6.38,5.36,9.67,8.11c0.11-0.42,0.19-0.66,0.23-0.91c1.54-9.16-7.94-17.56-16.84-14.88
			c-0.46,0.14-0.96,0.84-1.08,1.36c-1.34,6.01,1.46,12.05,6.91,14.95c2.78,1.48,5.73,1.92,9.03,1.27
			C128.29,61.81,125.62,58.63,122.95,55.45z M117.1,90.79c1.49-9.31-6.98-17.32-16.24-15.4c-1.07,0.22-1.52,0.73-1.72,1.76
			c-1.22,6.26,1.96,12.53,7.78,15.14c2.57,1.15,5.24,1.51,8.26,0.89c-2.91-3.47-5.7-6.78-8.48-10.09c0.05-0.05,0.11-0.1,0.16-0.15
			c3.3,2.78,6.6,5.56,10,8.42C117,91.02,117.08,90.91,117.1,90.79z M145.71,19.21c-0.36-0.34-1.21-0.45-1.72-0.29
			c-6.45,1.96-10.47,8.45-9.39,15.1c0.41,2.51,1.39,4.77,3.26,6.82c1.54-4.25,3-8.28,4.46-12.31c0.08,0.02,0.16,0.05,0.24,0.07
			c-0.75,4.24-1.5,8.48-2.28,12.86C149.7,38.41,152.66,25.84,145.71,19.21z M154.44,68.38c0.86-3.76-0.08-7.11-2.74-9.9
			c-0.28-0.29-1.06-0.34-1.5-0.19c-3.61,1.22-6,3.67-7.02,7.35c-1.01,3.64-0.21,6.93,2.27,10.05c1.2-3.31,2.33-6.4,3.45-9.49
			c0.09,0.03,0.17,0.06,0.26,0.09c-0.57,3.21-1.14,6.42-1.75,9.91C151.25,74.68,153.58,72.14,154.44,68.38z M163.85,64.29
			c4.85-5.65,1.93-15.22-5.26-17.08c-0.45-0.12-1.19,0.17-1.53,0.52c-2.99,3.14-3.65,8.14-1.63,12.08c1.3,2.53,3.27,4.3,6.17,5.33
			c-0.59-3.36-1.14-6.49-1.69-9.63c0.1-0.02,0.2-0.05,0.31-0.07c1.08,2.98,2.17,5.97,3.28,9.02
			C163.7,64.36,163.8,64.35,163.85,64.29z M129.87,77.49c-1.09-3.71-3.62-6.11-7.3-7.23c-0.41-0.12-1.16,0.26-1.5,0.64
			c-3.76,4.1-3.58,10.85,0.45,14.71c1.11,1.07,2.52,1.82,3.8,2.72c0.11-0.11,0.23-0.23,0.34-0.34c-0.56-3.2-1.12-6.4-1.69-9.61
			c0.08-0.02,0.17-0.05,0.25-0.07c1.11,3.05,2.23,6.1,3.44,9.42C130.24,84.54,130.95,81.17,129.87,77.49z M148.52,39.91
			c-0.32-0.3-1.04-0.41-1.48-0.29c-4.95,1.41-8.25,6.71-7.41,11.82c0.33,2.03,1.04,3.88,2.6,5.5c1.16-3.18,2.25-6.16,3.34-9.14
			c0.1,0.03,0.2,0.06,0.29,0.09c-0.55,3.13-1.1,6.25-1.68,9.54C151.57,55.16,153.97,45.07,148.52,39.91z M101.07,69.92
			c-3-5.72-11.8-6.47-15.64-1.31c-0.25,0.34-0.26,1.08-0.07,1.48c1.38,2.85,3.66,4.66,6.78,5.22c3.44,0.63,6.4-0.35,8.99-3.04
			c-2.98-0.68-5.73-1.3-8.84-2.01c3.22,0,6.03,0,8.87,0C101.13,70.16,101.12,70.03,101.07,69.92z M106.08,45.87
			c2.21,1.85,4.42,3.7,6.69,5.59c0.83-3.06-0.27-6.5-2.76-8.78c-2.51-2.29-5.48-2.98-8.75-2.23c-0.36,0.08-0.75,0.69-0.84,1.11
			c-1.08,4.85,2.02,9.91,6.83,11.14c1.36,0.35,2.76,0.59,4.3,0.02c-1.95-2.32-3.78-4.51-5.62-6.7
			C105.97,45.98,106.02,45.93,106.08,45.87z M170.15,42.6c-0.81-2.76-2.7-4.56-5.45-5.38c-0.32-0.09-0.91,0.23-1.17,0.53
			c-1.62,1.9-2.27,4.12-1.85,6.59c0.52,3.04,2.77,5.63,5.3,6.07c-0.41-2.34-0.81-4.64-1.21-6.95c0.07-0.02,0.15-0.05,0.22-0.07
			c0.82,2.22,1.64,4.43,2.52,6.83C170.46,47.84,170.94,45.31,170.15,42.6z M154.49,32.73c-0.41-0.11-1.14,0.14-1.42,0.47
			c-1.87,2.23-2.44,4.79-1.59,7.6c0.77,2.52,2.43,4.21,5.08,5.27c-0.45-2.6-0.86-4.94-1.27-7.29c0.07-0.02,0.14-0.04,0.22-0.06
			c0.82,2.23,1.64,4.46,2.52,6.84C161.84,41.25,159.79,34.18,154.49,32.73z M95.91,60.62c0.07-0.09,0.14-0.18,0.22-0.26
			c1.54,0.97,3.08,1.95,4.71,2.98c0.29-4.91-4.36-8.53-8.9-7.22c-0.87,0.25-1.17,0.69-1.18,1.57c-0.07,4.75,4.47,8.18,9.31,6.76
			C98.58,63.08,97.25,61.85,95.91,60.62z"/>
	</g>
</g>
<g id="Logo12">
</g>
<g id="Logo13">
</g>
<g id="Logo14">
</g>
<g id="Logo15">
</g>
</svg>
