<?xml version="1.0" encoding="utf-8"?>
<!-- Generator: Adobe Illustrator 27.8.1, SVG Export Plug-In . SVG Version: 6.00 Build 0)  -->
<svg version="1.1" xmlns="http://www.w3.org/2000/svg" xmlns:xlink="http://www.w3.org/1999/xlink" x="0px" y="0px"
	 viewBox="0 0 350 230" style="enable-background:new 0 0 350 230;" xml:space="preserve">
<style type="text/css">
	.st0{fill:#E4D027;}
	.st1{fill:#14A639;}
	.st2{fill:#9ED834;}
	.st3{fill:#0B8813;}
	.st4{fill:#FEFEFE;}
	.st5{fill:#6BC53C;}
	.st6{fill:#89E051;}
	.st7{fill:#E2BF2B;}
	.st8{fill:#0C8149;}
	.st9{fill:#5B3A00;}
	.st10{fill:#72721D;}
	.st11{fill:#355600;}
	.st12{fill:#603200;}
	.st13{fill:#2BC152;}
	.st14{fill:#DCE041;}
	.st15{fill:#BCAF15;}
	.st16{fill:#0B7E21;}
	.st17{fill:#5C9E23;}
	.st18{fill:#0C4710;}
	.st19{fill:#00760D;}
	.st20{fill:#459B02;}
	.st21{fill:#FCAC01;}
	.st22{fill:#AEC600;}
	.st23{fill:#545913;}
	.st24{fill:#953327;}
	.st25{fill:#ABCB13;}
	.st26{fill:#FFE566;}
	.st27{fill:#72DD2C;}
	.st28{fill:url(#SVGID_1_);}
	.st29{fill:url(#SVGID_00000031198816270059532850000010859180080259223971_);}
	.st30{fill:url(#SVGID_00000161603146993830023300000017231257364302383238_);}
	.st31{fill:#C1B700;}
	.st32{fill:url(#SVGID_00000071548327910304306140000004776633418845784490_);}
	.st33{fill:#2F5A11;}
	.st34{fill:url(#SVGID_00000072254779015941893300000010490116961838170258_);}
	.st35{fill:#E8CB1B;}
	.st36{fill:#AFAA00;}
</style>
<g id="Logo1">
</g>
<g id="Logo2">
</g>
<g id="Logo3">
</g>
<g id="Logo4">
</g>
<g id="Logo5">
</g>
<g id="Logo6">
</g>
<g id="Logo7">
</g>
<g id="Logo8">
</g>
<g id="Logo9">
</g>
<g id="Logo10">
	<g>
		<path class="st23" d="M79.87,62.5c25.9,23,55.7,38.51,89.44,46.33c33.76,7.83,67.36,6.91,100.77-2.47c0,4.82,0,9.53,0,14.36
			c-32.37,7.09-64.56,6.39-96.54-2.3C137.12,108.53,105.91,89.81,79.87,62.5z"/>
		<path class="st23" d="M128.97,105.84c-4.74,4.39-9.45,8.75-14.14,13.1c-5.15-2.03-28.84-18.52-33.08-23.04
			c1.25-0.22,2.43-0.43,3.6-0.62c6.81-1.15,13.63-2.29,20.45-3.42c0.31-0.05,0.72,0.03,0.97,0.2c7.03,4.96,14.32,9.48,21.91,13.55
			C128.76,105.66,128.83,105.74,128.97,105.84z"/>
		<path class="st23" d="M135.94,94.32c-2.42-1.11-4.69-2.12-6.93-3.19c-6.93-3.31-13.64-7.01-20.15-11.1
			c-0.51-0.32-0.75-0.66-0.81-1.27c-0.65-7.05-1.33-14.09-2.01-21.14c-0.2-2.05-0.39-4.1-0.6-6.27c0.22,0.16,0.36,0.24,0.48,0.35
			c6.88,6.61,14.25,12.61,22.07,18.07c0.28,0.2,0.54,0.54,0.65,0.87c2.4,7.68,4.77,15.38,7.15,23.07
			C135.84,93.83,135.86,93.97,135.94,94.32z"/>
		<path class="st23" d="M270.07,93.33c0,2.62,0,5.32,0,8.13c-18.62-1.52-35.95-6.96-52.08-16.25
			c-21.78-12.55-37.26-30.47-45.93-46.6C195.81,72.19,228.53,90.56,270.07,93.33z"/>
		<path class="st23" d="M159.6,138.41c0.86-0.64,1.62-1.2,2.37-1.76c4.78-3.56,9.56-7.13,14.36-10.68c0.34-0.25,0.81-0.39,1.25-0.46
			c0.58-0.11,1.2-0.06,1.78-0.16c2.27-0.41,4.4,0.37,6.57,0.8c7.91,1.56,15.88,2.69,23.91,3.36c0.18,0.01,0.35,0.05,0.72,0.1
			c-1.92,1.18-3.69,2.26-5.47,3.35c-6.27,3.83-12.54,7.66-18.8,11.5c-0.47,0.29-0.89,0.38-1.44,0.27
			c-8.32-1.58-16.52-3.62-24.62-6.09C160.07,138.59,159.92,138.53,159.6,138.41z"/>
		<path class="st23" d="M127.1,125.5c0.66-0.73,1.28-1.4,1.89-2.08c3.53-3.87,7.06-7.73,10.58-11.6c0.32-0.35,0.55-0.55,1.08-0.31
			c7.91,3.64,16.05,6.72,24.37,9.29c0.1,0.03,0.2,0.08,0.37,0.16c-0.18,0.17-0.32,0.31-0.48,0.43c-5.71,4.13-11.43,8.26-17.13,12.4
			c-0.42,0.31-0.77,0.38-1.26,0.17c-6.29-2.73-12.58-5.44-18.88-8.15C127.49,125.73,127.34,125.63,127.1,125.5z"/>
		<path class="st23" d="M140.41,77.67c2.55,1.37,5.01,2.82,7.57,4.04c4.91,2.34,9.89,4.56,14.83,6.85c0.4,0.19,0.86,0.52,1.03,0.9
			c2.37,5.2,4.7,10.42,7.03,15.64c0.07,0.15,0.12,0.3,0.23,0.59c-0.53-0.1-0.96-0.18-1.39-0.28c-8.21-1.93-16.28-4.35-24.19-7.28
			c-0.46-0.17-0.77-0.35-0.89-0.9c-1.37-6.33-2.76-12.65-4.15-18.98C140.44,78.07,140.44,77.89,140.41,77.67z"/>
		<path class="st23" d="M203.8,110.37c-2.96-0.24-5.83-0.37-8.67-0.74c-5.56-0.72-11.11-1.58-16.66-2.37
			c-0.57-0.08-0.89-0.29-1.08-0.88c-1.45-4.46-2.95-8.9-4.43-13.35c-0.07-0.2-0.13-0.41-0.23-0.73c0.3,0.07,0.52,0.11,0.73,0.18
			c7.52,2.51,15.16,4.53,22.94,6.05c0.33,0.06,0.74,0.28,0.9,0.55c2.13,3.59,4.22,7.21,6.31,10.82
			C203.68,110,203.71,110.13,203.8,110.37z"/>
		<path class="st23" d="M193.35,70.56c-1.09,0.58-2.15,1.15-3.22,1.71c-2.2,1.16-4.41,2.32-6.61,3.5c-0.39,0.21-0.66,0.3-1.05-0.09
			c-5.58-5.6-10.66-11.62-15.21-18.09c-0.06-0.08-0.11-0.17-0.26-0.4c1.2,0.1,2.26,0.19,3.32,0.29c3.8,0.36,7.61,0.73,11.41,1.12
			c0.28,0.03,0.62,0.2,0.81,0.41c3.56,3.76,7.1,7.53,10.64,11.3C193.23,70.36,193.26,70.43,193.35,70.56z"/>
		<path class="st23" d="M188.13,34.71c1.81,2.67,3.52,5.31,5.35,7.85c1.55,2.15,3.26,4.19,4.89,6.29c0.2,0.26,0.4,0.61,0.41,0.92
			c0.2,4.85,0.38,9.7,0.56,14.54c0,0.1-0.02,0.21-0.03,0.41c-0.27-0.19-0.49-0.33-0.69-0.49c-4.59-3.69-8.9-7.69-12.89-12.02
			c-0.24-0.26-0.43-0.72-0.38-1.05c0.87-5.37,1.78-10.74,2.69-16.11C188.06,34.94,188.09,34.84,188.13,34.71z"/>
		<path class="st23" d="M206.4,94.68c3.6-1.43,7.11-2.72,10.52-4.23c1.9-0.84,3.6-0.52,5.28,0.32c4.81,2.4,9.7,4.59,14.76,6.41
			c0.25,0.09,0.49,0.2,0.91,0.38c-1.95,0.58-3.72,1.1-5.49,1.63c-3.67,1.08-7.33,2.17-11,3.22c-0.35,0.1-0.84,0.12-1.15-0.05
			c-4.5-2.44-8.98-4.92-13.46-7.4C206.67,94.91,206.6,94.83,206.4,94.68z"/>
		<path class="st23" d="M270.11,85.73c-23.48-11.81-38.65-30.11-45.62-55.18c0.06-0.04,0.11-0.08,0.17-0.13
			c0.55,1.43,1.06,2.88,1.65,4.29c8.55,20.47,22.9,35.39,42.98,44.81c0.64,0.3,0.88,0.62,0.85,1.32
			C270.07,82.39,270.11,83.93,270.11,85.73z"/>
		<path class="st23" d="M189,81.99c3.51-2.24,6.77-4.33,9.94-6.36c4.5,3.25,8.94,6.47,13.4,9.7c-0.03,0.02-0.17,0.13-0.32,0.19
			c-3.92,1.5-7.84,3-11.77,4.47c-0.26,0.1-0.69,0.13-0.88-0.01C195.95,87.37,192.55,84.73,189,81.99z"/>
		<path class="st23" d="M204.6,55.71c1.92,1.76,3.69,3.47,5.56,5.07c1.93,1.66,3.95,3.22,5.91,4.83c0.23,0.19,0.5,0.47,0.55,0.74
			c0.6,3.55,1.17,7.1,1.76,10.75c-0.24-0.1-0.41-0.14-0.56-0.23c-4.41-2.71-8.81-5.41-13.2-8.14c-0.25-0.16-0.55-0.53-0.54-0.79
			C204.22,63.91,204.41,59.88,204.6,55.71z"/>
		<path class="st23" d="M236.79,85.14c-3.4-1.34-6.8-2.66-10.19-4.03c-1.38-0.56-2.72-1.21-4.06-1.86
			c-0.24-0.12-0.52-0.43-0.54-0.67c-0.21-2.89-0.37-5.79-0.54-8.68c-0.01-0.1,0.02-0.2,0.04-0.39c0.9,0.57,1.72,1.14,2.58,1.63
			c3.32,1.88,6.65,3.75,10.01,5.58c0.55,0.3,0.85,0.64,1.01,1.24c0.59,2.33,1.24,4.65,1.87,6.97
			C236.9,84.99,236.85,85.06,236.79,85.14z"/>
		<path class="st23" d="M218.13,41.72c3.11,1.16,6.19,2.3,9.25,3.47c0.2,0.08,0.39,0.28,0.5,0.48c1.65,3.05,3.29,6.1,4.93,9.16
			c0.02,0.04,0.02,0.1,0.05,0.24c-0.7,0.16-1.4,0.32-2.1,0.48c-1.69,0.39-3.38,0.79-5.08,1.14c-0.24,0.05-0.68-0.06-0.79-0.24
			c-2.71-4.64-5.01-9.48-6.81-14.55C218.07,41.87,218.09,41.84,218.13,41.72z"/>
		<path class="st23" d="M235.8,30.68c0.11,0.31,0.19,0.53,0.27,0.75c1.27,3.34,2.54,6.68,3.79,10.02c0.15,0.4,0.24,0.9,0.15,1.3
			c-0.68,3.15-1.41,6.28-2.15,9.55c-0.24-0.29-0.43-0.48-0.56-0.69c-2.03-3.23-4.06-6.47-6.05-9.72c-0.17-0.27-0.25-0.75-0.13-1.02
			c1.46-3.29,2.97-6.56,4.47-9.84C235.62,30.94,235.68,30.86,235.8,30.68z"/>
		<path class="st23" d="M257.21,80.7c-2.04,0-3.96-0.02-5.87,0.01c-1.84,0.02-3.69,0.1-5.53,0.12c-0.32,0-0.73-0.09-0.95-0.3
			c-2.47-2.32-4.9-4.68-7.35-7.03c-0.07-0.07-0.12-0.17-0.25-0.36c1.52-0.18,2.95-0.36,4.39-0.53c1.13-0.13,2.28-0.17,3.39-0.41
			c1.15-0.25,2.07,0.23,2.85,0.85C250.96,75.5,253.97,78.03,257.21,80.7z"/>
		<path class="st23" d="M228.07,61.78c2.58-0.82,4.95-1.58,7.33-2.32c0.17-0.05,0.5,0.04,0.61,0.18c2.23,2.79,4.44,5.59,6.7,8.44
			c-0.43,0.05-0.92,0.11-1.42,0.16c-2.32,0.24-4.64,0.47-6.95,0.74c-0.55,0.06-0.9-0.09-1.23-0.53
			C231.48,66.26,229.82,64.09,228.07,61.78z"/>
		<path class="st23" d="M242.88,47.29c0.7,1.12,1.27,2.13,1.92,3.08c1.22,1.79,2.51,3.53,3.74,5.31c0.18,0.26,0.32,0.64,0.3,0.94
			c-0.2,2.32-0.45,4.63-0.7,7.11c-0.3-0.25-0.52-0.42-0.71-0.62c-2.23-2.36-4.45-4.74-6.68-7.09c-0.36-0.38-0.43-0.72-0.26-1.23
			C241.29,52.36,242.05,49.9,242.88,47.29z"/>
		<path class="st23" d="M251.48,59.28c0.67,0.72,1.21,1.35,1.81,1.93c1.68,1.65,3.37,3.3,5.09,4.91c0.4,0.37,0.56,0.72,0.55,1.25
			c-0.03,1.56-0.01,3.12-0.01,4.8c-0.27-0.16-0.44-0.23-0.58-0.34c-2.55-1.92-5.1-3.85-7.66-5.77c-0.37-0.27-0.5-0.56-0.4-1.03
			C250.7,63.17,251.07,61.31,251.48,59.28z"/>
	</g>
</g>
<g id="Logo11">
</g>
<g id="Logo12">
</g>
<g id="Logo13">
</g>
<g id="Logo14">
</g>
<g id="Logo15">
</g>
</svg>
