<?xml version="1.0" encoding="utf-8"?>
<!-- Generator: Adobe Illustrator 27.8.1, SVG Export Plug-In . SVG Version: 6.00 Build 0)  -->
<svg version="1.1" xmlns="http://www.w3.org/2000/svg" xmlns:xlink="http://www.w3.org/1999/xlink" x="0px" y="0px"
	 viewBox="0 0 350 230" style="enable-background:new 0 0 350 230;" xml:space="preserve">
<style type="text/css">
	.st0{fill:#E4D027;}
	.st1{fill:#14A639;}
	.st2{fill:#9ED834;}
	.st3{fill:#0B8813;}
	.st4{fill:#FEFEFE;}
	.st5{fill:#6BC53C;}
	.st6{fill:#89E051;}
	.st7{fill:#E2BF2B;}
	.st8{fill:#0C8149;}
	.st9{fill:#5B3A00;}
	.st10{fill:#72721D;}
	.st11{fill:#355600;}
	.st12{fill:#603200;}
	.st13{fill:#2BC152;}
	.st14{fill:#DCE041;}
	.st15{fill:#BCAF15;}
	.st16{fill:#0B7E21;}
	.st17{fill:#5C9E23;}
	.st18{fill:#0C4710;}
	.st19{fill:#00760D;}
	.st20{fill:#459B02;}
	.st21{fill:#FCAC01;}
	.st22{fill:#AEC600;}
	.st23{fill:#545913;}
	.st24{fill:#953327;}
	.st25{fill:#ABCB13;}
	.st26{fill:#FFE566;}
	.st27{fill:#72DD2C;}
	.st28{fill:url(#SVGID_1_);}
	.st29{fill:url(#SVGID_00000141453857132609242960000008883582694096785846_);}
	.st30{fill:url(#SVGID_00000140719463625487555960000010693442908110815360_);}
	.st31{fill:#C1B700;}
	.st32{fill:url(#SVGID_00000165921813765543291210000003420756490970042045_);}
	.st33{fill:#2F5A11;}
	.st34{fill:url(#SVGID_00000041278087111917515720000013104105019765243316_);}
	.st35{fill:#E8CB1B;}
	.st36{fill:#AFAA00;}
</style>
<g id="Logo1">
</g>
<g id="Logo2">
</g>
<g id="Logo3">
	<path class="st8" d="M175.85,24.74c12.51,0.02,23.69,4.02,33.75,11.31c13.88,10.06,22.12,23.65,24.3,40.57
		c2.62,20.34-3.56,37.9-18.31,52.25c-9.7,9.45-21.51,14.44-34.9,15.84c-14.72,1.54-27.95-2.43-39.97-10.87
		c-7.59-5.34-13.65-12.03-17.99-20.25c-3.89-7.38-6.12-15.27-6.94-23.55c-1.65-16.83,3.68-31.44,14.32-44.31
		c8.92-10.78,20.4-17.18,34.06-19.84C168.04,25.15,171.93,24.78,175.85,24.74z M131.71,104.62c0.5,0,0.81,0,1.12,0
		c5.01,0.02,10.02-0.07,15.03,0.07c5.92,0.16,11.8,0.84,17.6,2.05c1.46,0.31,1.61,0.23,2.26-1.13c2.49-5.2,3.51-10.69,3.34-16.43
		c-0.1-3.32-1.17-6.22-3.55-8.58c-2.85-2.83-6.35-3.57-10.2-3.17c-2.26,0.23-4.52,0.52-6.78,0.75c-2.73,0.28-5.32-0.17-7.67-1.63
		c-0.67-0.41-1.22-0.42-1.9-0.06c-2.23,1.15-4.57,1.52-7.04,0.93c-3.32-0.79-5.69-3.09-8.41-5.15c3.85-2.34,7.76-3.84,12.21-2.9
		c2.46,0.52,4.54,2.7,5.11,5.1c-1.14-0.46-2.22-0.96-3.35-1.35c-1.15-0.4-2.33-0.75-3.51-1.01c-1.13-0.24-2.3-0.3-3.62,0.02
		c0.78,0.18,1.4,0.25,1.96,0.47c2.39,0.94,4.76,1.9,7.13,2.9c2.35,0.99,4.77,1.43,7.3,1.01c2.65-0.44,5.27-1.08,7.94-1.37
		c4.94-0.54,9.69-0.04,13.6,3.53c0.03,0.03,0.09,0.02,0.22,0.05c-0.35-0.65-0.66-1.24-0.98-1.83c-1.02-1.89-2.05-3.79-2.46-5.93
		c-0.27-1.41-0.31-2.82,0.14-4.28c2.91,2.19,3.77,5.48,5,8.55c0.08-0.15,0.11-0.27,0.11-0.39c0.01-0.27,0.01-0.54,0-0.81
		c-0.07-2.29-1.02-4.29-2.05-6.28c-0.81-1.56-1.5-3.17-2.18-4.79c-0.33-0.79-0.48-1.65-0.72-2.47c2.54,2.65,4.27,5.79,5.91,8.99
		c1.11-8.25,0.43-16.59,1.84-24.78c0.1,0.28,0.17,0.56,0.19,0.85c0.25,3.46,0.5,6.92,0.72,10.38c0.27,4.24,0.5,8.49,0.76,12.73
		c0.01,0.24,0.07,0.48,0.1,0.73c1.78-3.16,3.48-6.28,5.97-8.89c0.07,0.19,0.06,0.33,0.01,0.45c-0.44,1.19-0.82,2.41-1.33,3.57
		c-0.94,2.12-1.97,4.2-2.92,6.32c-0.65,1.44-1.01,2.93-0.57,4.54c1.16-3.2,2.18-6.48,5.24-8.69c0,0.71-0.04,1.27,0.01,1.83
		c0.22,2.33-0.4,4.44-1.59,6.43c-0.75,1.24-1.4,2.54-2.18,3.95c0.22-0.11,0.29-0.12,0.34-0.17c2.86-2.55,6.27-3.59,10.02-3.71
		c3.53-0.12,6.95,0.58,10.38,1.28c2.9,0.59,5.73,0.48,8.48-0.71c2.84-1.23,5.52-2.87,8.62-3.46c-3.6-0.61-6.67,1.12-9.89,2.34
		c0.48-2.14,2.27-4.09,4.4-4.87c1.98-0.72,3.99-0.62,6-0.22c2.45,0.49,4.64,1.56,6.8,2.92c-1.53,1.09-2.97,2.14-4.43,3.17
		c-3.56,2.5-7.31,2.93-11.29,1.05c-0.37-0.18-0.99-0.15-1.36,0.05c-2.19,1.16-4.51,1.83-6.97,1.68c-2.6-0.16-5.2-0.49-7.79-0.83
		c-6.59-0.86-12.04,2.96-13.34,9.42c-0.5,2.5-0.28,5.01-0.07,7.53c0.34,4.04,1.38,7.88,3.26,11.49c0.5,0.97,0.61,1,1.66,0.86
		c4.65-0.61,9.29-1.31,13.95-1.8c5.28-0.55,10.59-0.61,15.89-0.31c1.35,0.07,2.7,0.14,4.23,0.22c-1.42-1.6-3.04-2.87-3.38-5.08
		c2.43,0.69,4.17,1.92,4.74,4.43c0.08,0.34,0.33,0.85,0.56,0.9c0.34,0.06,0.76-0.21,1.1-0.41c0.19-0.11,0.32-0.36,0.45-0.57
		c1.14-1.86,2.91-2.28,4.98-2.23c-0.86,1.97-2.87,2.44-4.28,3.62c0.06,0.05,0.11,0.12,0.17,0.14c1.01,0.28,2.03,0.54,3.04,0.84
		c0.71,0.21,1.14-0.07,1.36-0.73c0.21-0.62,0.39-1.26,0.61-1.88c3.08-8.89,4.08-17.97,2.61-27.3c-2.23-14.15-8.61-25.95-19.72-35.08
		c-13.05-10.73-27.83-15.32-44.68-12.37c-9.44,1.66-18.03,5.25-25.52,11.3c-7.07,5.71-12.32,12.84-16.23,21
		c-2.91,6.08-4.62,12.5-5.06,19.23c-0.54,8.19,0.8,16.12,3.48,23.85c0.21,0.61,0.5,1.2,0.76,1.8c1.37-0.27,2.65-0.53,4.16-0.83
		c-1.78-0.93-3.57-1.55-4.18-3.54c2.15-0.23,3.91,0.56,4.94,2.19c0.31,0.5,0.57,1.06,1.31,0.97c0.74-0.09,0.58-0.76,0.71-1.2
		c0.67-2.21,2.43-3.78,4.52-3.95C134.51,101.9,133.09,103.15,131.71,104.62z M125.92,111.81c0.32,0.62,0.52,1,0.72,1.39
		c0.44,0.85,0.78,1.03,1.71,0.82c7.41-1.74,14.93-2.48,22.53-2.54c2.45-0.02,4.9,0,7.35,0c-8.9,2.51-17.56,5.57-25.76,10.06
		c1,1.06,1.94,2.02,2.84,3.02c0.41,0.45,0.79,0.47,1.28,0.17c7.22-4.29,14.9-7.54,22.87-10.12c7.19-2.33,14.56-3.78,22.1-4.36
		c5.54-0.43,11.09-0.36,16.63-0.12c7.76,0.33,15.42,1.41,22.94,3.38c2.17,0.57,2.17,0.58,3.16-1.43c0.02-0.04,0.02-0.09,0.03-0.17
		c-0.13-0.05-0.26-0.12-0.4-0.15c-2.65-0.66-5.29-1.39-7.97-1.95c-9.01-1.89-18.14-2.55-27.33-2.42
		c-5.38,0.08-10.74,0.45-16.07,1.21c-2.58,0.37-5.18,0.74-7.78,0.88c-1.71,0.09-3.45-0.26-5.18-0.39
		c-7.33-0.56-14.66-0.51-21.94,0.6C133.79,110.25,129.94,111.07,125.92,111.81z M138.47,127.51c0.29,0.26,0.51,0.48,0.75,0.68
		c0.37,0.32,0.72,0.7,1.14,0.91c0.3,0.15,0.74,0.13,1.07,0.03c0.34-0.1,0.62-0.38,0.92-0.59c3.97-2.83,8.18-5.26,12.64-7.24
		c9.09-4.03,18.59-5.85,28.53-5.53c6.75,0.22,13.39,1.07,19.94,2.7c4.16,1.03,8.2,2.39,12.17,4c0.33,0.14,0.91,0.21,1.12,0.02
		c0.76-0.67,1.41-1.46,2.16-2.27c-0.33-0.15-0.53-0.26-0.76-0.34c-2.15-0.73-4.28-1.52-6.45-2.18c-7.56-2.3-15.32-3.51-23.19-4.15
		c-10.73-0.87-21.18,0.32-31.3,4.03C150.55,120.02,144.33,123.31,138.47,127.51z M144.39,132.05c1.02,0.63,1.9,1.19,2.79,1.74
		c0.59-0.42,1.19-0.85,1.79-1.27c12.81-8.96,27.03-12.11,42.45-10.17c6.93,0.87,13.73,2.31,20.3,4.73c0.19,0.07,0.51-0.02,0.68-0.15
		c0.3-0.23,0.54-0.54,0.88-0.91c-0.59-0.24-1.08-0.44-1.57-0.64c-7.9-3.25-16.09-5.29-24.62-5.95
		c-15.22-1.16-29.04,2.75-41.46,11.61C145.24,131.34,144.88,131.66,144.39,132.05z M151.12,135.8c0.1,0.09,0.15,0.15,0.21,0.18
		c1.05,0.47,2.13,0.88,3.14,1.41c0.77,0.4,1.31,0.26,1.98-0.26c6.93-5.38,14.8-8.34,23.52-9.11c6.79-0.6,13.47,0.14,20.06,1.81
		c1.87,0.47,3.71,1.06,5.57,1.58c1.02,0.29,1.54,0.1,2.03-0.77c-10.19-4.74-20.85-6.3-31.95-4.98
		C166.58,126.74,158.38,130.11,151.12,135.8z M199.54,135.32c0.01-0.05,0.03-0.1,0.04-0.15c-0.25-0.15-0.48-0.34-0.74-0.43
		c-1.72-0.61-3.41-1.41-5.18-1.75c-7.43-1.43-14.69-0.6-21.77,1.99c-2.73,1-5.27,2.35-7.32,4.47c-0.22,0.23-0.41,0.49-0.68,0.82
		c1.77,0.27,3.38,0.53,5,0.74c0.32,0.04,0.72-0.1,1-0.28c0.86-0.55,1.64-1.24,2.53-1.75c7.01-4.09,14.61-5.13,22.56-4.3
		C196.51,134.84,198.02,135.11,199.54,135.32z M164.23,71.99c1.4-4.96-0.35-9.46-4.59-12.06c-2.15-1.32-4.54-1.89-7.01-2.2
		c-0.93-0.12-1.86-0.2-2.93-0.31c0.84,2.61,1.63,5.07,2.42,7.54c0.7,2.16,2.01,3.89,3.79,5.28c1.88,1.48,4.04,2.06,6.49,2.08
		c-1.56-4.32-3.88-8.01-7.4-10.9C159.71,63.46,162.31,67.35,164.23,71.99z M195.68,61.28c-3.9,2.77-6.15,6.7-7.91,11.12
		c3.4-0.1,6.26-1.14,8.31-3.82c2.48-3.25,3.1-7.27,4.51-11.08c-4.19,0.3-8.13,0.97-11.44,3.6c-3.16,2.52-4.5,7.27-3.06,11.11
		C188.02,67.33,190.64,63.23,195.68,61.28z M165.55,50.61c-1.43-1.92-3.36-3.18-5.62-3.91c-2.41-0.78-4.91-0.92-7.57-0.98
		c0.36,1.39,0.63,2.68,1.02,3.93c0.95,3.06,2.48,5.74,5.21,7.58c2.32,1.57,4.89,1.88,7.71,1.42c-2.6-3.4-5.21-6.63-8.51-9.25
		c3.87,1.44,6.66,4.27,9.43,7.43C167.37,54.4,166.87,52.39,165.55,50.61z M189.38,47.1c-2.23,0.88-4.02,2.29-5.24,4.38
		c-0.98,1.67-1.3,3.48-1.05,5.6c2.89-3.69,6.11-6.69,10.51-8.14c-3.97,2.48-6.72,6.14-9.71,9.74c3.81,0.62,6.99-0.28,9.6-2.99
		c2.67-2.77,3.54-6.33,4.38-9.97C195.59,45.6,191.41,46.29,189.38,47.1z M197.17,88.79c-0.23-2.76-1.21-5.22-3.3-7.14
		c-2.21-2.04-5.72-2.38-8.01-0.73c3.96,1.21,6.76,3.61,8.06,7.57c-2.43-2.97-5.19-5.47-9-6.74c0.18,3.38,1.29,6.25,4.28,7.86
		c2.51,1.36,5.24,2.32,7.99,3.5C197.19,91.51,197.28,90.14,197.17,88.79z M157.07,81.16c-3.19,2.37-5.03,7.78-3.96,11.73
		c0.69-0.24,1.39-0.44,2.06-0.73c2.05-0.9,4.19-1.66,6.12-2.78c2.81-1.63,3.9-4.36,4.05-7.6c-3.81,1.33-6.62,3.84-9.06,6.86
		c1.31-4.05,4.12-6.52,8.27-7.7C162.23,79.44,159.23,79.56,157.07,81.16z M208.48,59.78c-1.3,2.21-1.4,5.56-0.31,7.16
		c1.9-4.51,3.09-6.47,4.49-7.26c-1.74,2.59-2.5,5.47-3.37,8.41c3.18-0.53,5.39-2.12,6.7-4.94c1.26-2.7,1.16-5.59,1.29-8.57
		C213.58,55.15,210.43,56.46,208.48,59.78z M138.13,60.05c1.89,1.81,2.89,4.3,3.95,6.97c1.24-3.05,0.89-5.7-0.94-8.09
		c-2.07-2.71-4.92-4-8.5-4.32c0.42,2.65,0.65,5.17,1.25,7.59c0.78,3.14,3.77,5.49,7.14,5.82C140.01,65.25,139.05,62.59,138.13,60.05
		z M180.9,42.87c-0.64,2.38-1.28,4.77-1.94,7.24c0.35-0.04,0.57-0.05,0.78-0.09c2.4-0.44,3.96-1.88,4.88-4.09
		c1.21-2.9,0.68-5.84,0.22-8.79c-6.19,1.63-9.56,7.55-6.84,12.37C178.56,47.02,179.31,44.76,180.9,42.87z M171.13,49.88
		c-0.6-2.32-1.19-4.63-1.79-6.95c1.62,1.83,2.27,4.08,2.86,6.57c0.24-0.56,0.41-0.91,0.54-1.27c1.6-4.59-2.18-10.37-7.28-11.05
		c-0.65,2.63-0.9,5.29-0.17,7.94c0.5,1.81,1.61,3.25,3.28,4.13c0.75,0.39,1.61,0.58,2.42,0.85
		C171.04,50.03,171.09,49.96,171.13,49.88z M202.61,68.52c-0.73,1.92-1.45,3.84-2.21,5.84c0.54,0,0.97,0.06,1.39-0.01
		c2.08-0.33,3.94-2.32,4.37-4.61c0.38-2-0.26-3.85-0.71-5.74c-4.32,0.81-7.55,5.94-5.71,9.09c0.88-1.58,1.75-3.14,2.62-4.7
		C202.44,68.43,202.53,68.47,202.61,68.52z M149.67,74.26c-0.73-1.92-1.45-3.85-2.18-5.77c0.09-0.04,0.18-0.08,0.27-0.12
		c0.87,1.57,1.74,3.14,2.65,4.77c1.74-4.07-2.08-8.36-5.67-9.17c-0.25,1.19-0.57,2.37-0.74,3.57c-0.38,2.71,0.9,5.2,3.34,6.45
		c0.66,0.34,1.46,0.38,2.2,0.56C149.58,74.45,149.63,74.36,149.67,74.26z M205.33,79.81c1.76,0.58,3.51,1.16,5.27,1.74
		c-0.03,0.1-0.06,0.2-0.09,0.31c-1.75-0.42-3.5-0.83-5.3-1.26c1.35,3.16,5.68,4.18,9.47,2.28
		C212.69,79.07,208.05,77.55,205.33,79.81z M139.46,81.86c-0.02-0.1-0.05-0.2-0.07-0.3c1.77-0.6,3.54-1.2,5.44-1.84
		c-3.8-1.76-7.38-0.97-9.28,3.25c2.18,0.56,4.34,0.99,6.56,0.32c1.31-0.4,2.24-1.23,2.81-2.65
		C142.99,81.08,141.22,81.47,139.46,81.86z M175.06,39.24c1.59-0.01,2.93-1.3,2.95-2.86c0.02-1.63-1.22-2.94-2.81-2.96
		c-1.66-0.03-2.95,1.23-2.96,2.88C172.23,37.95,173.47,39.24,175.06,39.24z M204.2,53.57c1.96-0.49,3.34-2.4,3.17-4.37
		c-0.16-1.85-1.46-3.41-3-3.49c0.6,1.58,0.84,3.13-0.28,4.59c-1.14,1.47-2.62,1.74-4.41,1.15C200.4,53.21,202.29,54.05,204.2,53.57z
		 M142.85,49.72c0.08,1.87,1.45,3.54,3.2,3.89c1.73,0.35,3.74-0.6,4.41-2.07c-3.75,1.1-6.29-2.4-4.61-5.9
		C143.9,46.22,142.77,47.79,142.85,49.72z M124.58,100.02c1.9,1.21,3.81,2.37,4.62,4.63c0.9-1.51,1.81-2.92,2.59-4.41
		c0.53-1.02,0.87-2.14,1.3-3.21c-2.37,0.75-3.52,2.41-3.9,4.84c-1.4-2.34-3.19-3.7-6.07-3.67
		C123.68,98.92,124.01,99.66,124.58,100.02z M221.34,103.91c0.63-1.54,1.9-2.37,3.26-3.22c0.92-0.57,1.61-1.52,2.4-2.3
		c-2.74-0.11-4.66,1.06-5.95,3.44c-0.8-2.13-1.57-4.13-3.94-4.89c0.29,1.1,0.54,2.22,1.07,3.21c0.79,1.48,1.77,2.85,2.72,4.35
		C221.05,104.29,221.25,104.13,221.34,103.91z M150.53,85.16c0.93-0.13,1.89-0.33,2.48-1.11c0.98-1.3,1.85-2.68,2.81-4.08
		c-4.45,0.31-7.11,2.59-7.38,5.37C149.17,85.27,149.85,85.25,150.53,85.16z M194.39,79.84c0.84,1.23,1.62,2.46,2.49,3.62
		c1.14,1.52,3.2,2.18,4.85,1.63C201.18,82.11,198.05,79.86,194.39,79.84z M145.89,90.63c-2.18-0.29-3.16-1.72-3.65-3.7
		c-0.34,2.1-1.59,3.29-3.56,3.84c2.12,0.17,3.07,1.47,3.57,3.32C142.58,92.03,143.89,91.03,145.89,90.63z M208.07,94.3
		c0.45-1.89,1.46-3.14,3.51-3.44c-2.04-0.56-3.09-1.95-3.55-3.89c-0.22,2.11-1.26,3.4-3.34,3.88
		C206.61,91.23,207.65,92.44,208.07,94.3z M128.16,93.56c-1.61,1.85-1.41,5.04,0.44,6.27C130.1,97.8,129.9,95.08,128.16,93.56z
		 M221.95,93.62c-1.76,1.86-1.9,4.64-0.28,6.2C223.37,98.45,223.73,95.71,221.95,93.62z M157.6,99.24
		c-0.45-0.32-0.97-0.58-1.33-0.98c-0.38-0.41-0.6-0.97-0.97-1.59c-0.22,1.41-1.2,2.04-2.54,2.57c1.41,0.31,2.22,0.96,2.67,2.11
		C155.74,100.16,156.57,99.54,157.6,99.24z M160.21,39.3c-1.42-0.36-1.98-1.31-2.42-2.56c-0.31,1.43-1.17,2.13-2.47,2.58
		c1.4,0.36,2.14,1.19,2.49,2.61C158.16,40.55,158.89,39.76,160.21,39.3z M192.62,41.8c0.49-1.23,1.17-2.09,2.51-2.53
		c-1.37-0.36-2.1-1.18-2.5-2.34c-0.34,1.22-1.06,1.97-2.32,2.41C191.59,39.71,192.32,40.46,192.62,41.8z M219.32,80.28
		c-0.32,1.4-1.05,2.16-2.3,2.6c1.32,0.3,1.93,1.12,2.33,2.42c0.35-1.5,1.29-2.07,2.68-2.46C220.62,82.46,219.78,81.68,219.32,80.28z
		 M130.8,85.27c0.36-1.33,1.07-2.07,2.4-2.4c-1.33-0.42-2.02-1.23-2.44-2.56c-0.35,1.44-1.21,2.13-2.55,2.56
		C129.62,83.19,130.42,83.89,130.8,85.27z M194.94,96.69c-0.31,1.33-1.01,2.11-2.37,2.52c1.34,0.33,1.96,1.14,2.41,2.31
		c0.33-1.22,1.06-1.91,2.32-2.29C195.99,98.77,195.37,97.92,194.94,96.69z M177.58,62.32c1.46-1.36,2.93-2.72,4.37-4.11
		c0.2-0.19,0.22-0.56,0.39-1.01c-2.03,0.99-3.47,2.32-4.71,3.88c-0.25,0.32-0.28,0.82-0.44,1.35
		C177.45,62.35,177.54,62.36,177.58,62.32z M167.79,57.15c0.2,0.36,0.33,0.78,0.61,1.06c1.27,1.29,2.58,2.53,3.88,3.79
		c0.14,0.14,0.3,0.26,0.45,0.39c-0.65-2.63-2.65-4.03-4.67-5.42C167.96,57.03,167.88,57.09,167.79,57.15z M170.7,52.51
		c0.19,1.91,0.56,3.73,2.04,5.21C173.39,55.63,172.47,53.33,170.7,52.51z M179.6,52.49c-2.06,1.13-2.86,3.82-1.98,5.12
		C178.99,56.17,179.27,54.34,179.6,52.49z M186.05,93.01c-0.53,0.66-1.01,1.25-1.5,1.87c0.5,0.56,0.97,1.07,1.37,1.51
		c0.6-0.52,1.14-0.99,1.74-1.5C187.07,94.2,186.59,93.64,186.05,93.01z M162.83,94.81c0.41,0.46,0.92,1.03,1.43,1.61
		c0.54-0.56,1.03-1.09,1.57-1.65c-0.5-0.59-1.03-1.21-1.46-1.72C163.79,93.7,163.28,94.28,162.83,94.81z M210.83,50.59
		c0.35,0.37,0.67,0.71,1.03,1.1c0.43-0.4,0.81-0.76,1.11-1.04c-0.37-0.43-0.69-0.82-1.06-1.25
		C211.53,49.82,211.19,50.19,210.83,50.59z M138.17,51.66c0.44-0.36,0.84-0.68,1.27-1.02c-0.38-0.43-0.74-0.83-1.11-1.25
		c-0.38,0.4-0.73,0.77-1.1,1.16C137.56,50.93,137.85,51.28,138.17,51.66z M131.06,64.38c-0.4,0.43-0.72,0.78-1.06,1.15
		c0.4,0.37,0.73,0.68,1.08,1c0.38-0.35,0.69-0.65,1.08-1.01C131.75,65.1,131.41,64.75,131.06,64.38z M220.06,65.5
		c-0.37-0.42-0.67-0.77-1.01-1.16c-0.39,0.45-0.7,0.82-1.03,1.21c0.31,0.29,0.58,0.53,0.88,0.81
		C219.3,66.06,219.66,65.8,220.06,65.5z M124.21,77.32c-0.35,0.32-0.41,0.68-0.05,0.99c0.73,0.63,1.05-0.26,1.61-0.41
		C124.97,77.02,124.65,76.91,124.21,77.32z M225.42,76.74c-0.85,1.08-0.85,1.15,0.16,1.81C226.5,77.75,226.48,77.57,225.42,76.74z
		 M167.7,86.79c-0.31,0.37-0.55,0.65-0.82,0.97c0.3,0.25,0.54,0.45,0.79,0.67c0.3-0.24,0.56-0.46,0.87-0.71
		C168.25,87.39,167.99,87.1,167.7,86.79z M128.78,61.03c-0.13,0.14-0.13,0.61,0,0.72c0.58,0.51,0.79-0.16,1.2-0.43
		C129.55,61.12,129.28,60.47,128.78,61.03z M220.99,60.52c-0.04,0.4-0.09,0.8-0.13,1.21c0.25-0.03,0.5-0.05,0.75-0.08
		c-0.05-0.37-0.09-0.75-0.14-1.12C221.32,60.53,221.15,60.52,220.99,60.52z"/>
</g>
<g id="Logo4">
</g>
<g id="Logo5">
</g>
<g id="Logo6">
</g>
<g id="Logo7">
</g>
<g id="Logo8">
</g>
<g id="Logo9">
</g>
<g id="Logo10">
</g>
<g id="Logo11">
</g>
<g id="Logo12">
</g>
<g id="Logo13">
</g>
<g id="Logo14">
</g>
<g id="Logo15">
</g>
</svg>
