<?xml version="1.0" encoding="utf-8"?>
<!-- Generator: Adobe Illustrator 27.8.1, SVG Export Plug-In . SVG Version: 6.00 Build 0)  -->
<svg version="1.1" xmlns="http://www.w3.org/2000/svg" xmlns:xlink="http://www.w3.org/1999/xlink" x="0px" y="0px"
	 viewBox="0 0 350 230" style="enable-background:new 0 0 350 230;" xml:space="preserve">
<style type="text/css">
	.st0{fill:#E4D027;}
	.st1{fill:#14A639;}
	.st2{fill:#9ED834;}
	.st3{fill:#0B8813;}
	.st4{fill:#FEFEFE;}
	.st5{fill:#6BC53C;}
	.st6{fill:#89E051;}
	.st7{fill:#E2BF2B;}
	.st8{fill:#0C8149;}
	.st9{fill:#5B3A00;}
	.st10{fill:#72721D;}
	.st11{fill:#355600;}
	.st12{fill:#603200;}
	.st13{fill:#2BC152;}
	.st14{fill:#DCE041;}
	.st15{fill:#BCAF15;}
	.st16{fill:#0B7E21;}
	.st17{fill:#5C9E23;}
	.st18{fill:#0C4710;}
	.st19{fill:#00760D;}
	.st20{fill:#459B02;}
	.st21{fill:#FCAC01;}
	.st22{fill:#AEC600;}
	.st23{fill:#545913;}
	.st24{fill:#953327;}
	.st25{fill:#ABCB13;}
	.st26{fill:#FFE566;}
	.st27{fill:#72DD2C;}
	.st28{fill:url(#SVGID_1_);}
	.st29{fill:url(#SVGID_00000091732815734237436340000005259649003992793495_);}
	.st30{fill:url(#SVGID_00000183227841266511695010000010735765531755881108_);}
	.st31{fill:#C1B700;}
	.st32{fill:url(#SVGID_00000099635779992650464120000010884531697746989491_);}
	.st33{fill:#2F5A11;}
	.st34{fill:url(#SVGID_00000060735152932534575320000016773541804874380217_);}
	.st35{fill:#E8CB1B;}
	.st36{fill:#AFAA00;}
</style>
<g id="Logo1">
	<g>
		<path class="st0" d="M204.07,74.97c0.01-1.2,0.16-6.23,0.39-7.1c0.29,0.88,0.29,5.63,0.18,6.73l-0.01,3.97l-0.6-0.18
			C204.03,77.25,204.04,76.11,204.07,74.97z M200.54,73.25c1.09,0.46,2.16,0.68,3.33,0.77c-0.12-0.83-0.15-1.68-0.3-2.5
			c-0.42-2.29-1.62-4.4-3.5-5.79c-1.84-1.36-4.73-2.46-7.03-2.52C194.69,67.23,196.24,71.43,200.54,73.25z M143.69,54.18
			c-1.46,2.02-3.11,4.26-2.88,6.88c0.26,3,2.56,4.78,4.49,6.8c-0.05-2.01,0.01-3.96,0.11-5.97c0.03-0.67-0.02-1.42,0.12-2.08
			l0.07-0.07l0.08,0.17c0.25,2.63,0.5,5.3,0.45,7.94c1.92-1.54,4.34-4.15,4.65-6.67c0.34-2.76-1.85-5.5-3.37-7.6
			c-0.46-0.64-0.94-1.44-1.49-2c-0.07-0.07-0.09-0.08-0.16-0.13C145.03,52.33,144.36,53.26,143.69,54.18z M179.54,56.27
			c-2.05,2.67-3.03,5.75-3.29,9.07c-0.05,0.66-0.13,1.35-0.08,2.02l0.09,0.12l0.1,0.01c4.47-0.2,7.94-1.23,11.06-4.61
			c2.77-3.01,4.57-7.15,5.66-11.04c0.21-0.74,0.49-1.52,0.57-2.28c-0.1-0.1-0.05-0.09-0.14-0.1
			C188.38,50.15,182.79,52.05,179.54,56.27z"/>
		<path class="st1" d="M156.68,63.28c-0.02,1.26-2.26,5.44-3.07,6.5c-1.94,2.55-4.28,3.38-7.36,3.81c-0.01-0.03-0.02-0.06-0.02-0.1
			c-0.16-1.7,1-4.1,1.96-5.45C150.21,65.21,153.36,63.86,156.68,63.28z M206.1,68.91c-0.76,1.29-1.06,2.68-1.17,4.16
			c-0.02,0.22-0.1,0.57-0.05,0.77c0.01,0.05,0.04,0.09,0.06,0.14l0.19,0.01c2.67-0.09,4.89-1.19,6.71-3.12
			c1.65-1.76,3.17-4.77,3.4-7.21l-0.06-0.14l-0.18-0.01C211.56,64.43,208,65.69,206.1,68.91z M165.26,64.98
			c1.91,1.25,5.59,2.73,7.88,2.62c0.44,0.08,0.88,0.1,1.32,0.12c-0.19-1.23-0.16-2.48-0.36-3.7c-0.54-4.13-2.2-7.69-5.57-10.26
			c-3.41-2.6-7.63-3.98-11.87-4.33C157.85,55.06,160.24,61.7,165.26,64.98z"/>
		<path class="st2" d="M134.79,63.16c2.05,0.29,4.06,0.8,5.76,2.03c2.91,2.08,4.29,5.22,4.84,8.67c-1.54-0.25-2.97-0.54-4.34-1.3
			C137.54,70.6,135.82,66.86,134.79,63.16z M199.52,61.25c0.26,2.61,2.55,4.39,4.45,5.88c0.11-1.71,0.24-3.41,0.38-5.11
			c0.05-0.64,0.04-1.41,0.21-2.03l0.07,0.03c0.25,2.34,0.54,4.72,0.58,7.08c1.84-1.48,4.14-3.38,4.39-5.91
			c0.25-2.56-1.7-5.15-3.06-7.15c-0.53-0.77-1.04-1.61-1.65-2.32c-0.05-0.06-0.03-0.04-0.08-0.08
			C202.92,53.91,199.21,58.19,199.52,61.25z M167.01,46.87c0.53,4.36,4.29,7.25,7.34,9.99c-0.03-1.52,0.62-13.02,0.91-13.45
			c0.42,4.46,0.45,8.96,0.85,13.42c0.76-0.55,1.43-1.26,2.12-1.89c2.36-2.21,4.66-4.58,5.19-7.91c0.71-4.43-2.47-8.81-4.97-12.2
			c-0.67-0.91-2.43-3.41-3.18-4.04C172.01,34.95,166.33,41.2,167.01,46.87z M110.78,85.48c0.16,0,0.32,0.01,0.49,0.02
			c1.53,0.11,3.1,0.37,4.63,0.58c16.7,2.25,33.32,9.53,46.01,20.66c2.07,1.82,4.14,3.73,5.95,5.81c-0.87,1.03-1.96,1.96-2.92,2.91
			c-1.01,1.04-1.98,2.13-2.96,3.2c-9.74-13.64-22.47-22.91-38.07-28.85c-2.76-1.05-5.57-2.05-8.39-2.93
			c-1.52-0.47-3.21-0.71-4.66-1.37C110.83,85.51,110.81,85.49,110.78,85.48z M108.19,85.01c1.55,0.29,3.09,0.23,4.66,0.35
			c3.07,0.25,6.09,0.6,9.12,1.18c0.88,0.16,1.76,0.33,2.64,0.52c0.88,0.19,1.75,0.39,2.62,0.6c0.87,0.21,1.74,0.44,2.6,0.68
			c0.86,0.24,1.72,0.49,2.58,0.76c0.86,0.27,1.71,0.55,2.55,0.84c0.85,0.29,1.69,0.6,2.53,0.92c0.84,0.32,1.67,0.65,2.5,1
			c0.83,0.34,1.65,0.7,2.46,1.07c0.82,0.37,1.63,0.75,2.43,1.15c0.8,0.4,1.6,0.8,2.39,1.22c0.79,0.42,1.58,0.85,2.36,1.3
			c0.78,0.44,1.55,0.9,2.31,1.37c0.76,0.47,1.52,0.95,2.27,1.44c0.75,0.49,1.49,0.99,2.23,1.51s1.46,1.04,2.18,1.58
			c0.72,0.54,1.43,1.08,2.13,1.64c2.87,2.3,5.74,4.82,8.11,7.64l0.86-0.76c2.26-1.98,4.46-3.48,6.8-5.31
			c-13.33-11.96-31.54-18.66-49.14-20.76c-4.16-0.5-8.4-0.9-12.6-0.65c-0.09,0.01-0.18,0.01-0.27,0.02
			C112.44,84.45,110.23,84.52,108.19,85.01z"/>
		<path class="st3" d="M155.17,135.26c1.08,0.15,2.22,0.7,3.28,0.99c2.24,0.6,4.5,1.09,6.79,1.47c0.44,0.07,0.88,0.13,1.32,0.18
			c0.44,0.06,0.89,0.11,1.33,0.15c0.44,0.05,0.89,0.09,1.33,0.13c0.44,0.04,0.89,0.07,1.33,0.1c0.44,0.03,0.89,0.05,1.34,0.07
			c0.45,0.02,0.89,0.03,1.34,0.04c0.45,0.01,0.89,0.01,1.34,0.01c0.45,0,0.89-0.01,1.34-0.02c0.45-0.01,0.89-0.03,1.34-0.05
			c0.45-0.02,0.89-0.04,1.34-0.07c0.44-0.03,0.89-0.06,1.33-0.1c0.44-0.04,0.89-0.08,1.33-0.13c0.44-0.05,0.89-0.1,1.33-0.16
			c0.44-0.06,0.88-0.12,1.32-0.19c0.44-0.07,0.88-0.14,1.32-0.22c0.44-0.08,0.88-0.16,1.32-0.24c0.44-0.09,0.87-0.18,1.31-0.27
			c0.44-0.1,0.87-0.19,1.3-0.3c0.43-0.1,0.87-0.21,1.3-0.33c0.43-0.11,0.86-0.23,1.29-0.35c0.43-0.12,0.86-0.25,1.28-0.38
			c0.43-0.13,0.85-0.27,1.27-0.41s0.84-0.29,1.26-0.44c0.42-0.15,0.84-0.3,1.25-0.46c0.42-0.16,0.83-0.32,1.24-0.49
			c0.41-0.17,0.82-0.34,1.23-0.52c0.41-0.18,0.82-0.36,1.22-0.54c0.41-0.18,0.81-0.37,1.21-0.57c0.4-0.19,0.8-0.39,1.2-0.59
			c0.4-0.2,0.79-0.41,1.19-0.62c0.39-0.21,0.78-0.43,1.17-0.64c0.39-0.22,0.77-0.44,1.16-0.67c1.7-1.02,3.33-2.16,4.88-3.4
			c0.83-0.65,1.66-1.45,2.54-2.02c0.22-0.14,0.3-0.12,0.55-0.06c-1.85,2.06-3.88,3.97-5.91,5.85c-7.88,7.32-16.58,13.55-25.77,19.1
			c-1.6,0.96-3.22,1.91-4.84,2.83c-0.87,0.5-1.75,1.05-2.66,1.47c-5.45-2.93-10.74-6.13-15.87-9.58c-2.14-1.43-4.45-2.88-6.38-4.59
			c-1.01-0.59-2.02-1.51-2.94-2.23c-4.29-3.36-8.48-7.03-12.19-11.03c2.73,1.37,5.2,3.18,7.91,4.59c1.83,0.96,3.69,1.86,5.58,2.72
			c0.94,0.42,1.99,0.74,2.89,1.23c-0.42,1.29-1.22,3.34-1.2,4.67l0.16,0.02C153.44,139,154.85,135.86,155.17,135.26z M165.77,74.43
			c-2.94,0.29-5.86,0.7-8.77,1.21c-2.58,0.48-5.15,1.04-7.7,1.67c-1.06,0.26-2.25,0.49-3.25,0.92c-0.16-2.8,0.03-5.66-0.39-8.45
			l0,0.07l-0.08,0.03c-0.01,1.52-0.27,7.49,0.02,8.44c-2.68,0.81-5.33,1.73-7.94,2.77c-0.91,0.36-1.88,0.7-2.75,1.14
			c17.11,2.89,32.44,8.96,45.64,20.42c1.46-0.89,2.89-1.84,4.36-2.7c3.79-2.22,7.68-4.22,11.68-6.02c-0.07-0.11-0.14-0.22-0.22-0.32
			c-0.87-1.16-1.9-2.19-2.94-3.19c-4.86-4.73-10.16-7.29-16.87-8.28c-0.01-2.73-0.28-5.51-0.48-8.24c-0.29-3.58-0.41-7.21-0.53-10.8
			c-0.07-1.93-0.19-3.87-0.23-5.8c0-0.03,0-0.05,0-0.08l-0.11,0.07c0.04,0.12,0.04,0.08,0.03,0.18c-0.2,2.32-0.13,4.68-0.2,7.01
			c-0.09,3.13-0.29,6.27-0.45,9.4C171.66,73.95,168.71,74.13,165.77,74.43z M190.5,101.21c1.94-1.17,4-2.18,6.02-3.21
			c0.73-0.38,1.47-0.76,2.21-1.12c0.74-0.37,1.48-0.72,2.23-1.07c0.75-0.35,1.5-0.69,2.26-1.02c0.76-0.33,1.51-0.66,2.28-0.97
			c0.76-0.32,1.53-0.62,2.3-0.92c0.77-0.3,1.54-0.59,2.32-0.87c0.78-0.28,1.56-0.55,2.34-0.82c0.78-0.26,1.57-0.52,2.36-0.77
			c0.79-0.25,1.58-0.48,2.37-0.71c0.79-0.23,1.59-0.45,2.39-0.66c0.8-0.21,1.6-0.41,2.4-0.61c0.8-0.19,1.61-0.38,2.41-0.55
			c0.81-0.18,1.62-0.34,2.43-0.5c0.81-0.16,1.62-0.31,2.44-0.45c0.81-0.14,1.63-0.27,2.45-0.39c0.82-0.12,1.63-0.23,2.45-0.34
			c2.53-0.31,5.12-0.59,7.67-0.67c-7.18,1.59-20.08,8.44-26.51,12.46c-2.61,1.66-5.15,3.42-7.62,5.27
			c-1.97,1.46-3.87,3.04-5.73,4.64c-0.82,0.71-1.6,1.55-2.47,2.19c-1.39,1.47-2.9,2.82-4.31,4.29c-3.87,4.04-7.63,8.42-10.76,13.07
			c-1.58,0.5-9.43,1.17-10.97,0.76l-1.16-0.13c-2.33,0.06-4.89-0.5-7.15-1.06c-1.2-0.3-2.41-0.68-3.64-0.79
			c0.83-1.07,1.68-2.13,2.56-3.17c0.88-1.04,1.77-2.06,2.69-3.06c0.92-1,1.86-1.98,2.82-2.94c0.96-0.96,1.94-1.9,2.94-2.82
			c1-0.92,2.02-1.82,3.06-2.69c1.04-0.88,2.1-1.73,3.17-2.56c1.07-0.83,2.17-1.64,3.28-2.42s2.23-1.55,3.38-2.28
			C187.05,103.23,188.74,102.15,190.5,101.21z"/>
		<path class="st4" d="M194.85,105.23c6.31-4.1,12.64-7.54,19.48-10.66c2.03-0.92,4.14-2.01,6.29-2.61l0.03,0.06l0.02-0.02
			c-1.73,0.65-3.37,1.5-5.04,2.28c-3.13,1.47-6.2,3.05-9.21,4.75c-3.01,1.7-5.95,3.52-8.82,5.45c-0.8,0.54-2.46,1.48-3.08,2.11
			c-1.89,1.14-3.66,2.59-5.39,3.97c-5.82,4.63-12.47,10.59-15.57,17.49c-0.06,0.13-0.03,0.09-0.13,0.17l-1.16-0.13
			C177.33,117.69,185.49,111.58,194.85,105.23z"/>
		<path class="st1" d="M118.07,90.51c3.63,1.35,7.3,3.33,10.72,5.17l0.05,0.09c0.49,0.9,0.83,1.89,1.25,2.82
			c0.75,1.66,1.58,3.28,2.47,4.87c6.21,10.96,14.2,17.14,25.79,21.71c-1.58,3.03-3.21,6.07-4.17,9.36c-0.9-0.48-1.95-0.81-2.89-1.23
			c-1.88-0.85-3.74-1.76-5.58-2.72c-2.71-1.42-5.18-3.22-7.91-4.59c-1.27-1.14-2.35-2.54-3.47-3.82
			c-6.9-7.9-12.41-17.38-15.24-27.51C118.72,93.3,118.32,91.9,118.07,90.51z M173.43,128.23l-1.16-0.13
			c-2.33,0.06-4.89-0.5-7.15-1.06c-1.2-0.3-2.41-0.68-3.64-0.79c-2.27,2.81-4.56,5.83-6.31,9c1.08,0.15,2.22,0.7,3.28,0.99
			c2.24,0.6,4.5,1.09,6.79,1.47c0.44,0.07,0.88,0.13,1.32,0.18c0.44,0.06,0.89,0.11,1.33,0.15c0.44,0.05,0.89,0.09,1.33,0.13
			c0.44,0.04,0.89,0.07,1.33,0.1c0.44,0.03,0.89,0.05,1.34,0.07c0.45,0.02,0.89,0.03,1.34,0.04c0.45,0.01,0.89,0.01,1.34,0.01
			c0.45,0,0.89-0.01,1.34-0.02c0.45-0.01,0.89-0.03,1.34-0.05c0.45-0.02,0.89-0.04,1.34-0.07c0.44-0.03,0.89-0.06,1.33-0.1
			c0.44-0.04,0.89-0.08,1.33-0.13c0.44-0.05,0.89-0.1,1.33-0.16c0.44-0.06,0.88-0.12,1.32-0.19c0.44-0.07,0.88-0.14,1.32-0.22
			c0.44-0.08,0.88-0.16,1.32-0.24c0.44-0.09,0.87-0.18,1.31-0.27c0.44-0.1,0.87-0.19,1.3-0.3c0.43-0.1,0.87-0.21,1.3-0.33
			c0.43-0.11,0.86-0.23,1.29-0.35c0.43-0.12,0.86-0.25,1.28-0.38c0.43-0.13,0.85-0.27,1.27-0.41s0.84-0.29,1.26-0.44
			c0.42-0.15,0.84-0.3,1.25-0.46c0.42-0.16,0.83-0.32,1.24-0.49c0.41-0.17,0.82-0.34,1.23-0.52c0.41-0.18,0.82-0.36,1.22-0.54
			c0.41-0.18,0.81-0.37,1.21-0.57c0.4-0.19,0.8-0.39,1.2-0.59c0.4-0.2,0.79-0.41,1.19-0.62c0.39-0.21,0.78-0.43,1.17-0.64
			c0.39-0.22,0.77-0.44,1.16-0.67c1.7-1.02,3.33-2.16,4.88-3.4c0.83-0.65,1.66-1.45,2.54-2.02c0.22-0.14,0.3-0.12,0.55-0.06
			c9.25-9.73,14.79-19.67,17.74-32.79c-1.43,0.81-2.91,1.51-4.35,2.3c-1.4,0.76-2.76,1.59-4.13,2.41c-0.88,0.52-2.05,1.09-2.76,1.83
			c-0.67,0.7-1.42,2.7-1.94,3.65c-0.9,1.65-1.86,3.3-2.92,4.85c-7.67,11.33-18.07,18.6-31.62,21.06
			C182.83,127.97,174.98,128.63,173.43,128.23z"/>
		<path class="st5" d="M157,75.64c2.91-0.52,5.83-0.92,8.77-1.21c2.94-0.29,5.88-0.47,8.84-0.54c-0.09,2.67-0.24,5.33-0.26,8
			c-5.25-0.18-12.72-1.12-16.48-5.15C157.55,76.38,157.26,76.03,157,75.64z M176.59,82.13c6.71,1,12.01,3.55,16.87,8.28
			c1.03,1.01,2.07,2.04,2.94,3.19c0.08,0.11,0.15,0.21,0.22,0.32c5.8-2.62,11.94-4.63,18.09-6.24c2.29-0.6,4.6-1.21,6.93-1.6
			c-2.61-1.41-5.22-2.79-7.93-4c-2.96-1.32-6.01-2.43-9.06-3.51l-0.6-0.18c-8.88-3.04-18.59-4.15-27.92-4.5
			C176.31,76.62,176.57,79.4,176.59,82.13z M174.48,19.45c2.52-0.09,5.13,0.07,7.63,0.39c15.03,1.91,29.31,9.74,38.62,21.77
			c7.46,9.63,11.91,20.66,12.97,32.81c0.27,3.14,0.4,6.49,0,9.63c-3.12,0.29-6.4,0.62-9.46,1.32c0.07-1.23,0.24-2.45,0.32-3.67
			c0.12-1.95,0.13-3.9,0.04-5.86c-0.49-10.56-4.76-21.17-11.43-29.33c-8.51-10.41-19.85-16.38-33.21-17.73
			c-1.6-0.18-3.27-0.17-4.87-0.14c-12.86,0.18-25.61,5.24-34.62,14.52c-7.12,7.33-12.28,16.66-14.09,26.78
			c-0.7,3.92-0.88,7.82-0.82,11.8c-2.99-0.17-5.94-0.3-8.93-0.13c-0.55-15.93,4.64-30.91,15.37-42.78c0.27-0.3,0.55-0.6,0.83-0.9
			c0.28-0.3,0.56-0.59,0.85-0.88c0.29-0.29,0.58-0.58,0.87-0.87c0.29-0.29,0.59-0.57,0.89-0.85c0.3-0.28,0.6-0.56,0.91-0.83
			c0.3-0.27,0.61-0.54,0.92-0.81c0.31-0.27,0.62-0.53,0.94-0.79c0.32-0.26,0.63-0.52,0.95-0.77c0.32-0.25,0.64-0.5,0.97-0.75
			c0.33-0.25,0.65-0.49,0.99-0.73c0.33-0.24,0.66-0.48,1-0.71c0.34-0.23,0.67-0.46,1.02-0.69c0.34-0.23,0.68-0.45,1.03-0.67
			c0.35-0.22,0.69-0.43,1.04-0.65c0.35-0.21,0.7-0.42,1.06-0.63c0.35-0.2,0.71-0.41,1.07-0.6c0.36-0.2,0.72-0.39,1.08-0.58
			c0.36-0.19,0.73-0.38,1.09-0.56c0.37-0.18,0.73-0.36,1.1-0.54c0.37-0.17,0.74-0.35,1.12-0.51c0.37-0.17,0.75-0.33,1.13-0.49
			c0.38-0.16,0.76-0.31,1.14-0.47c0.38-0.15,0.76-0.3,1.15-0.44c0.38-0.14,0.77-0.28,1.15-0.42c0.39-0.14,0.77-0.27,1.16-0.39
			c0.39-0.13,0.78-0.25,1.17-0.37c0.39-0.12,0.78-0.23,1.18-0.35c0.39-0.11,0.79-0.22,1.18-0.32c0.4-0.1,0.79-0.2,1.19-0.3
			c0.4-0.09,0.8-0.19,1.2-0.27c0.4-0.09,0.8-0.17,1.2-0.25c0.4-0.08,0.8-0.15,1.21-0.22C168.67,19.74,171.56,19.59,174.48,19.45z"/>
	</g>
</g>
<g id="Logo2">
</g>
<g id="Logo3">
</g>
<g id="Logo4">
</g>
<g id="Logo5">
</g>
<g id="Logo6">
</g>
<g id="Logo7">
</g>
<g id="Logo8">
</g>
<g id="Logo9">
</g>
<g id="Logo10">
</g>
<g id="Logo11">
</g>
<g id="Logo12">
</g>
<g id="Logo13">
</g>
<g id="Logo14">
</g>
<g id="Logo15">
</g>
</svg>
