<?xml version="1.0" encoding="utf-8"?>
<!-- Generator: Adobe Illustrator 27.8.1, SVG Export Plug-In . SVG Version: 6.00 Build 0)  -->
<svg version="1.1" xmlns="http://www.w3.org/2000/svg" xmlns:xlink="http://www.w3.org/1999/xlink" x="0px" y="0px"
	 viewBox="0 0 350 230" style="enable-background:new 0 0 350 230;" xml:space="preserve">
<style type="text/css">
	.st0{fill:#E4D027;}
	.st1{fill:#14A639;}
	.st2{fill:#9ED834;}
	.st3{fill:#0B8813;}
	.st4{fill:#FEFEFE;}
	.st5{fill:#6BC53C;}
	.st6{fill:#89E051;}
	.st7{fill:#E2BF2B;}
	.st8{fill:#0C8149;}
	.st9{fill:#5B3A00;}
	.st10{fill:#72721D;}
	.st11{fill:#355600;}
	.st12{fill:#603200;}
	.st13{fill:#2BC152;}
	.st14{fill:#DCE041;}
	.st15{fill:#BCAF15;}
	.st16{fill:#0B7E21;}
	.st17{fill:#5C9E23;}
	.st18{fill:#0C4710;}
	.st19{fill:#00760D;}
	.st20{fill:#459B02;}
	.st21{fill:#FCAC01;}
	.st22{fill:#AEC600;}
	.st23{fill:#545913;}
	.st24{fill:#953327;}
	.st25{fill:#ABCB13;}
	.st26{fill:#FFE566;}
	.st27{fill:#72DD2C;}
	.st28{fill:url(#SVGID_1_);}
	.st29{fill:url(#SVGID_00000026856556882317152890000000455176363442043051_);}
	.st30{fill:url(#SVGID_00000058571630124228617320000017593345265908980872_);}
	.st31{fill:#C1B700;}
	.st32{fill:url(#SVGID_00000078728553543106583210000012198657561834513072_);}
	.st33{fill:#2F5A11;}
	.st34{fill:url(#SVGID_00000121249379863606838480000006596310609361427372_);}
	.st35{fill:#E8CB1B;}
	.st36{fill:#AFAA00;}
</style>
<g id="Logo1">
</g>
<g id="Logo2">
</g>
<g id="Logo3">
</g>
<g id="Logo4">
</g>
<g id="Logo5">
</g>
<g id="Logo6">
</g>
<g id="Logo7">
</g>
<g id="Logo8">
</g>
<g id="Logo9">
</g>
<g id="Logo10">
</g>
<g id="Logo11">
</g>
<g id="Logo12">
</g>
<g id="Logo13">
	<g>
		<path class="st26" d="M136.12,70.6c5.02-21.63,26.62-35.1,48.25-30.09s35.1,26.62,30.09,48.25c-5.02,21.63-26.62,35.1-48.25,30.09
			C144.57,113.84,131.1,92.24,136.12,70.6z"/>
		<path class="st27" d="M133.31,96.18c1.92-1.92,2.66-4.57,2.23-7.05c-2.48-0.43-5.13,0.31-7.05,2.23c-1.02,1.02-1.7,2.25-2.05,3.55
			V88.9c2.43,0.37,5-0.37,6.88-2.25c1.92-1.92,2.66-4.57,2.23-7.05c-0.68-0.12-1.37-0.14-2.05-0.08v-2.93h-0.23v2.95
			c-0.84,0.09-1.67,0.31-2.45,0.67v-4.36h-0.23v4.48c-0.76,0.38-1.47,0.87-2.1,1.49c-1.02,1.02-1.7,2.25-2.05,3.55v-4.24
			c1.68-1.35,2.76-3.41,2.76-5.73c0-2.43-1.18-4.58-3-5.92v-4.42h-0.23v4.39c-1.83,1.34-3.04,3.5-3.04,5.94
			c0,2.24,1.01,4.24,2.59,5.59v4.37c-0.35-1.3-1.03-2.53-2.05-3.55c-0.75-0.75-1.61-1.31-2.53-1.7v-5.38h-0.23v5.29
			c-0.79-0.31-1.61-0.49-2.45-0.54v-4.01h-0.23v4.01c-0.54-0.02-1.08,0.01-1.62,0.1c-0.43,2.48,0.31,5.13,2.23,7.05
			c1.87,1.87,4.44,2.61,6.88,2.25v6.01c-0.35-1.3-1.03-2.53-2.05-3.55c-1.92-1.92-4.57-2.66-7.05-2.23
			c-0.43,2.48,0.31,5.13,2.23,7.05c1.87,1.87,4.44,2.61,6.88,2.25v6.31c-0.35-1.3-1.03-2.53-2.05-3.55
			c-1.92-1.92-4.57-2.66-7.05-2.23c-0.43,2.48,0.31,5.13,2.23,7.05c1.87,1.87,4.44,2.61,6.88,2.25v21.88h0.91v-21.88
			c2.43,0.37,5-0.37,6.88-2.25c1.92-1.92,2.66-4.57,2.23-7.05c-2.48-0.43-5.13,0.31-7.05,2.23c-1.02,1.02-1.7,2.25-2.05,3.55v-6.31
			C128.87,98.79,131.44,98.06,133.31,96.18z M233.19,96.18c1.92-1.92,2.66-4.57,2.23-7.05c-2.48-0.43-5.13,0.31-7.05,2.23
			c-1.02,1.02-1.7,2.25-2.05,3.55V88.9c2.43,0.37,5-0.37,6.88-2.25c1.92-1.92,2.66-4.57,2.23-7.05c-0.68-0.12-1.37-0.14-2.05-0.08
			v-2.93h-0.23v2.95c-0.84,0.09-1.67,0.31-2.45,0.67v-4.36h-0.23v4.48c-0.76,0.38-1.47,0.87-2.1,1.49c-1.02,1.02-1.7,2.25-2.05,3.55
			v-4.24c1.68-1.35,2.76-3.41,2.76-5.73c0-2.43-1.18-4.58-3-5.92v-4.42h-0.23v4.39c-1.83,1.34-3.04,3.5-3.04,5.94
			c0,2.24,1.01,4.24,2.59,5.59v4.37c-0.35-1.3-1.03-2.53-2.05-3.55c-0.75-0.75-1.61-1.31-2.53-1.7v-5.38h-0.23v5.29
			c-0.79-0.31-1.61-0.49-2.45-0.54v-4.01h-0.23v4.01c-0.54-0.02-1.08,0.01-1.62,0.1c-0.43,2.48,0.31,5.13,2.23,7.05
			c1.87,1.87,4.44,2.61,6.88,2.25v6.01c-0.35-1.3-1.03-2.53-2.05-3.55c-1.92-1.92-4.57-2.66-7.05-2.23
			c-0.43,2.48,0.31,5.13,2.23,7.05c1.87,1.87,4.44,2.61,6.88,2.25v6.31c-0.35-1.3-1.03-2.53-2.05-3.55
			c-1.92-1.92-4.57-2.66-7.05-2.23c-0.43,2.48,0.31,5.13,2.23,7.05c1.87,1.87,4.44,2.61,6.88,2.25v21.88h0.91v-21.88
			c2.43,0.37,5-0.37,6.88-2.25c1.92-1.92,2.66-4.57,2.23-7.05c-2.48-0.43-5.13,0.31-7.05,2.23c-1.02,1.02-1.7,2.25-2.05,3.55v-6.31
			C228.74,98.79,231.31,98.06,233.19,96.18z M157.98,104.59c1.92-1.92,2.66-4.57,2.23-7.05c-2.48-0.43-5.13,0.31-7.05,2.23
			c-1.02,1.02-1.7,2.25-2.05,3.55v-6.01c2.43,0.37,5-0.37,6.88-2.25c1.92-1.92,2.66-4.57,2.23-7.05c-0.68-0.12-1.37-0.14-2.05-0.08
			V85h-0.23v2.95c-0.84,0.09-1.67,0.31-2.45,0.67v-4.36h-0.23v4.48c-0.76,0.38-1.47,0.87-2.1,1.49c-1.02,1.02-1.7,2.25-2.05,3.55
			v-4.24c1.68-1.35,2.76-3.41,2.76-5.73c0-2.43-1.18-4.58-3-5.92v-4.42h-0.23v4.39c-1.83,1.34-3.04,3.5-3.04,5.94
			c0,2.24,1.01,4.24,2.59,5.59v4.37c-0.35-1.3-1.03-2.53-2.05-3.55c-0.75-0.75-1.61-1.31-2.53-1.7v-5.38h-0.23v5.29
			c-0.79-0.31-1.61-0.49-2.45-0.54v-4.01h-0.23v4.01c-0.54-0.02-1.08,0.01-1.62,0.1c-0.43,2.48,0.31,5.13,2.23,7.05
			c1.87,1.87,4.44,2.61,6.88,2.25v6.01c-0.35-1.3-1.03-2.53-2.05-3.55c-1.92-1.92-4.57-2.66-7.05-2.23
			c-0.43,2.48,0.31,5.13,2.23,7.05c1.87,1.87,4.44,2.61,6.88,2.25v6.31c-0.35-1.3-1.03-2.53-2.05-3.55
			c-1.92-1.92-4.57-2.66-7.05-2.23c-0.43,2.48,0.31,5.13,2.23,7.05c1.87,1.87,4.44,2.61,6.88,2.25v21.88h0.91v-21.88
			c2.43,0.37,5-0.37,6.88-2.25c1.92-1.92,2.66-4.57,2.23-7.05c-2.48-0.43-5.13,0.31-7.05,2.23c-1.02,1.02-1.7,2.25-2.05,3.55v-6.31
			C153.54,107.21,156.11,106.47,157.98,104.59z M207.82,104.59c1.92-1.92,2.66-4.57,2.23-7.05c-2.48-0.43-5.13,0.31-7.05,2.23
			c-1.02,1.02-1.7,2.25-2.05,3.55v-6.01c2.43,0.37,5-0.37,6.88-2.25c1.92-1.92,2.66-4.57,2.23-7.05c-0.68-0.12-1.37-0.14-2.05-0.08
			V85h-0.23v2.95c-0.84,0.09-1.67,0.31-2.45,0.67v-4.36h-0.23v4.48c-0.76,0.38-1.47,0.87-2.1,1.49c-1.02,1.02-1.7,2.25-2.05,3.55
			v-4.24c1.68-1.35,2.76-3.41,2.76-5.73c0-2.43-1.18-4.58-3-5.92v-4.42h-0.23v4.39c-1.83,1.34-3.04,3.5-3.04,5.94
			c0,2.24,1.01,4.24,2.59,5.59v4.37c-0.35-1.3-1.03-2.53-2.05-3.55c-0.75-0.75-1.61-1.31-2.53-1.7v-5.38h-0.23v5.29
			c-0.79-0.31-1.61-0.49-2.45-0.54v-4.01h-0.23v4.01c-0.54-0.02-1.08,0.01-1.62,0.1c-0.43,2.48,0.31,5.13,2.23,7.05
			c1.87,1.87,4.44,2.61,6.88,2.25v6.01c-0.35-1.3-1.03-2.53-2.05-3.55c-1.92-1.92-4.57-2.66-7.05-2.23
			c-0.43,2.48,0.31,5.13,2.23,7.05c1.87,1.87,4.44,2.61,6.88,2.25v6.31c-0.35-1.3-1.03-2.53-2.05-3.55
			c-1.92-1.92-4.57-2.66-7.05-2.23c-0.43,2.48,0.31,5.13,2.23,7.05c1.87,1.87,4.44,2.61,6.88,2.25v21.88h0.91v-21.88
			c2.43,0.37,5-0.37,6.88-2.25c1.92-1.92,2.66-4.57,2.23-7.05c-2.48-0.43-5.13,0.31-7.05,2.23c-1.02,1.02-1.7,2.25-2.05,3.55v-6.31
			C203.37,107.21,205.94,106.47,207.82,104.59z"/>
		<radialGradient id="SVGID_1_" cx="175.0003" cy="105.0587" r="58.4437" gradientUnits="userSpaceOnUse">
			<stop  offset="0.1424" style="stop-color:#7EB833"/>
			<stop  offset="0.4305" style="stop-color:#66B027"/>
			<stop  offset="0.7584" style="stop-color:#299A07"/>
		</radialGradient>
		<path class="st28" d="M183.15,96.18c1.92-1.92,2.66-4.57,2.23-7.05c-2.48-0.43-5.13,0.31-7.05,2.23c-1.02,1.02-1.7,2.25-2.05,3.55
			V88.9c2.43,0.37,5-0.37,6.88-2.25c1.92-1.92,2.66-4.57,2.23-7.05c-0.68-0.12-1.37-0.14-2.05-0.08v-2.93h-0.23v2.95
			c-0.84,0.09-1.67,0.31-2.45,0.67v-4.36h-0.23v4.48c-0.76,0.38-1.47,0.87-2.1,1.49c-1.02,1.02-1.7,2.25-2.05,3.55v-4.24
			c1.68-1.35,2.76-3.41,2.76-5.73c0-2.43-1.18-4.58-3-5.92v-4.42h-0.23v4.39c-1.83,1.34-3.04,3.5-3.04,5.94
			c0,2.24,1.01,4.24,2.59,5.59v4.37c-0.35-1.3-1.03-2.53-2.05-3.55c-0.75-0.75-1.61-1.31-2.53-1.7v-5.38h-0.23v5.29
			c-0.79-0.31-1.61-0.49-2.45-0.54v-4.01h-0.23v4.01c-0.54-0.02-1.08,0.01-1.62,0.1c-0.43,2.48,0.31,5.13,2.23,7.05
			c1.87,1.87,4.44,2.61,6.88,2.25v6.01c-0.35-1.3-1.03-2.53-2.05-3.55c-1.92-1.92-4.57-2.66-7.05-2.23
			c-0.43,2.48,0.31,5.13,2.23,7.05c1.87,1.87,4.44,2.61,6.88,2.25v6.31c-0.35-1.3-1.03-2.53-2.05-3.55
			c-1.92-1.92-4.57-2.66-7.05-2.23c-0.43,2.48,0.31,5.13,2.23,7.05c1.87,1.87,4.44,2.61,6.88,2.25v21.88h0.91v-21.88
			c2.43,0.37,5-0.37,6.88-2.25c1.92-1.92,2.66-4.57,2.23-7.05c-2.48-0.43-5.13,0.31-7.05,2.23c-1.02,1.02-1.7,2.25-2.05,3.55v-6.31
			C178.71,98.79,181.28,98.06,183.15,96.18z M222,127.72h-94c-13.99,0-25.33,7.76-25.33,17.33h144.67
			C247.33,135.48,235.99,127.72,222,127.72z"/>
	</g>
</g>
<g id="Logo14">
</g>
<g id="Logo15">
</g>
</svg>
