<?xml version="1.0" encoding="utf-8"?>
<!-- Generator: Adobe Illustrator 27.8.1, SVG Export Plug-In . SVG Version: 6.00 Build 0)  -->
<svg version="1.1" xmlns="http://www.w3.org/2000/svg" xmlns:xlink="http://www.w3.org/1999/xlink" x="0px" y="0px"
	 viewBox="0 0 350 230" style="enable-background:new 0 0 350 230;" xml:space="preserve">
<style type="text/css">
	.st0{fill:#E4D027;}
	.st1{fill:#14A639;}
	.st2{fill:#9ED834;}
	.st3{fill:#0B8813;}
	.st4{fill:#FEFEFE;}
	.st5{fill:#6BC53C;}
	.st6{fill:#89E051;}
	.st7{fill:#E2BF2B;}
	.st8{fill:#0C8149;}
	.st9{fill:#5B3A00;}
	.st10{fill:#72721D;}
	.st11{fill:#355600;}
	.st12{fill:#603200;}
	.st13{fill:#2BC152;}
	.st14{fill:#DCE041;}
	.st15{fill:#BCAF15;}
	.st16{fill:#0B7E21;}
	.st17{fill:#5C9E23;}
	.st18{fill:#0C4710;}
	.st19{fill:#00760D;}
	.st20{fill:#459B02;}
	.st21{fill:#FCAC01;}
	.st22{fill:#AEC600;}
	.st23{fill:#545913;}
	.st24{fill:#953327;}
	.st25{fill:#ABCB13;}
	.st26{fill:#FFE566;}
	.st27{fill:#72DD2C;}
	.st28{fill:url(#SVGID_1_);}
	.st29{fill:url(#SVGID_00000076595732956203786120000016526459460868299137_);}
	.st30{fill:url(#SVGID_00000129201234510224809560000017734996737563044251_);}
	.st31{fill:#C1B700;}
	.st32{fill:url(#SVGID_00000176005815682696894520000002766910624964875435_);}
	.st33{fill:#2F5A11;}
	.st34{fill:url(#SVGID_00000074417096914251500540000004353423828320393407_);}
	.st35{fill:#E8CB1B;}
	.st36{fill:#AFAA00;}
</style>
<g id="Logo1">
</g>
<g id="Logo2">
</g>
<g id="Logo3">
</g>
<g id="Logo4">
</g>
<g id="Logo5">
</g>
<g id="Logo6">
</g>
<g id="Logo7">
</g>
<g id="Logo8">
</g>
<g id="Logo9">
</g>
<g id="Logo10">
</g>
<g id="Logo11">
</g>
<g id="Logo12">
</g>
<g id="Logo13">
</g>
<g id="Logo14">
	<g>
		<linearGradient id="SVGID_1_" gradientUnits="userSpaceOnUse" x1="106.1114" y1="140.2802" x2="243.8914" y2="140.2802">
			<stop  offset="0" style="stop-color:#0D4700"/>
			<stop  offset="0.0341" style="stop-color:#336428"/>
			<stop  offset="0.0824" style="stop-color:#62885A"/>
			<stop  offset="0.1332" style="stop-color:#8CA886"/>
			<stop  offset="0.1855" style="stop-color:#B0C3AB"/>
			<stop  offset="0.2397" style="stop-color:#CDD9CA"/>
			<stop  offset="0.2965" style="stop-color:#E3EAE1"/>
			<stop  offset="0.3569" style="stop-color:#F3F6F2"/>
			<stop  offset="0.4235" style="stop-color:#FCFDFC"/>
			<stop  offset="0.5082" style="stop-color:#FFFFFF"/>
			<stop  offset="0.5852" style="stop-color:#DFE6DD"/>
			<stop  offset="0.7561" style="stop-color:#8CA786"/>
			<stop  offset="1" style="stop-color:#0D4700"/>
		</linearGradient>
		<path class="st28" d="M148.6,133.31v3.9h-42.49v-3.9H148.6z M106.11,143.35v3.9h42.49v-3.9H106.11z M201.39,133.31v3.9h42.5v-3.9
			H201.39z M201.39,143.35v3.9h42.5v-3.9H201.39z"/>
		
			<linearGradient id="SVGID_00000144305777025033172710000005374306131350319026_" gradientUnits="userSpaceOnUse" x1="171.833" y1="-826.2875" x2="176.3335" y2="-905.7953" gradientTransform="matrix(1 0 0 -1 0 -755.871)">
			<stop  offset="0" style="stop-color:#7EB833"/>
			<stop  offset="0.2798" style="stop-color:#66B027"/>
			<stop  offset="0.8679" style="stop-color:#299A07"/>
			<stop  offset="1" style="stop-color:#1A9500"/>
		</linearGradient>
		<path style="fill:url(#SVGID_00000144305777025033172710000005374306131350319026_);" d="M195.9,88.5l-0.01-0.01l-5.98-4.99
			l-0.16-0.13l-2.99-2.49l-0.31-0.26l-2.97-2.48l-0.18-0.15l-0.44-0.36l-1.59-1.33l-0.8-0.67l-0.31-0.26l-5.36-4.47l-2.31,1.94
			l-0.21,0.17l-4.13,3.44l-1.59,1.33l-0.25,0.21l-0.32,0.27l-2.83,2.36l-0.31,0.26l-2.84,2.36l-0.24,0.21l-3.1,2.58l-0.12,0.1
			l-2.83,2.36l-0.29,0.24l-2.86,2.39l-0.15,0.13v63.57h12.87v-11.47c0-6.91,5.6-12.52,12.51-12.52c3.45,0,6.59,1.4,8.85,3.67
			c2.27,2.27,3.67,5.39,3.67,8.85v11.47h10.88V91.25L195.9,88.5z M178.92,121.92h-8.23V113c0-2.27,1.84-4.11,4.11-4.11
			c2.28,0,4.12,1.84,4.12,4.11V121.92z M178.92,105.46h-8.23v-8.92c0-2.27,1.84-4.11,4.11-4.11c2.28,0,4.12,1.84,4.12,4.11V105.46z"
			/>
		<path class="st31" d="M217.92,117.69L199.2,98.97l-1.56-1.55l-5.54-5.55l-6.55,1.53l-0.07,0.07l-7.74-7.74
			c0.13-0.37,0.22-0.76,0.22-1.18c0-0.58-0.16-1.12-0.42-1.6l7.94-7.94l0.07,0.06l6.55,1.53l8.44-8.44l5.79-5.79l11.58-11.58
			l3.02-3.02c0.34-0.34,0.34-0.88,0-1.22l-8.46-8.45c-0.32-0.33-0.89-0.33-1.21,0l-3.02,3.01l-2.9,2.9l-2.89,2.9l-2.9,2.89
			l-2.89,2.9l-2.9,2.9l-2.9,2.89l-8.18,8.19l1.39,6.82l-2.8,2.8l-5.23,5.23c-0.44-0.21-0.93-0.34-1.45-0.34
			c-0.5,0-0.97,0.11-1.39,0.31l-8-8l1.39-6.82l-8.18-8.19l-2.9-2.89c0,0,0,0,0-0.01l-2.9-2.89l-2.89-2.9l-2.9-2.89l-2.89-2.9
			l-2.9-2.89v-0.01l-3.02-3.01c-0.32-0.32-0.89-0.32-1.21,0l-8.46,8.46c-0.34,0.33-0.34,0.88,0,1.21l3.02,3.02l11.58,11.58l5.79,5.8
			l2.9,2.89l5.54,5.54l6.55-1.52l0.07-0.07l2.77,2.77l5.12,5.11c-0.29,0.49-0.46,1.06-0.46,1.66c0,0.44,0.09,0.86,0.25,1.25
			l-7.68,7.67l-0.07-0.07l-6.55-1.52l-5.54,5.54l-1.21,1.21l-1.69,1.68l-5.79,5.8l-11.58,11.58c0,0,0,0-0.01,0l-3.01,3.02
			c-0.34,0.33-0.34,0.88,0,1.21l8.46,8.46c0.32,0.32,0.89,0.32,1.21,0l3.02-3.01v-0.01l2.89-2.89c0,0,0,0,0.01,0l2.89-2.9l2.9-2.89
			v-0.01l0.7-0.7l5.09-5.09l2.9-2.89v-0.01l5.79-5.79l2.39-2.39l-1.39-6.83l7.59-7.58c0.52,0.33,1.14,0.53,1.8,0.53
			c0.69,0,1.33-0.21,1.86-0.56l7.62,7.61l-1.39,6.83l2.39,2.39l5.79,5.79v0.01l2.9,2.89l2.9,2.9l2.54,2.54l0.35,0.35v0.01l2.9,2.89
			l2.9,2.9l2.89,2.89v0.01l3.02,3.01c0.32,0.32,0.89,0.32,1.21,0l8.46-8.46c0.34-0.33,0.34-0.88,0-1.21L217.92,117.69z M191.76,74.5
			l-4.75-1.03l3.02-3.02l2.89,2.9L191.76,74.5z M194.14,72.13l-2.9-2.89l1.69-1.68l2.89,2.89L194.14,72.13z M197.03,69.24l-2.89-2.9
			l1.68-1.68l2.89,2.89L197.03,69.24z M199.93,66.34l-2.89-2.89l1.68-1.69l2.89,2.9L199.93,66.34z M202.83,63.44l-2.9-2.89
			l1.68-1.68l2.9,2.89L202.83,63.44z M205.72,60.55l-2.89-2.9l1.68-1.68l2.89,2.89L205.72,60.55z M208.62,57.65l-2.89-2.89
			l1.68-1.68l2.89,2.89L208.62,57.65z M211.52,54.75l-2.9-2.89l1.68-1.68l2.9,2.89L211.52,54.75z M211.87,39.92l7.24,7.24l-1.8,1.8
			l-7.24-7.24L211.87,39.92z M208.85,42.93l7.24,7.24l-1.68,1.69l-7.24-7.25L208.85,42.93z M205.95,45.83l2.9,2.89l-1.68,1.68
			l-2.9-2.89L205.95,45.83z M203.06,48.72l2.89,2.9l-1.68,1.68l-2.89-2.9L203.06,48.72z M200.16,51.62l2.89,2.89l-1.68,1.69
			l-2.89-2.9L200.16,51.62z M197.26,54.52l2.9,2.89l-1.68,1.68l-2.9-2.89L197.26,54.52z M194.37,57.41l2.89,2.9l-1.68,1.68
			l-2.89-2.89L194.37,57.41z M191.47,60.31l2.89,2.89l-1.68,1.68l-2.89-2.89L191.47,60.31z M188.58,63.21l2.89,2.89l-1.68,1.68
			l-2.9-2.89L188.58,63.21z M185.68,66.1l2.89,2.9l-3.02,3.01l-0.99-4.78L185.68,66.1z M162.38,64.89l-2.89,2.89l-1.69-1.68
			l2.9-2.89L162.38,64.89z M159.48,61.99l-2.89,2.89l-1.68-1.68l2.89-2.89L159.48,61.99z M156.59,59.1l-2.9,2.89l-1.68-1.68
			l2.89-2.9L156.59,59.1z M153.69,56.2l-2.89,2.89l-1.69-1.68l2.9-2.89L153.69,56.2z M150.79,53.3l-2.89,2.89l-1.68-1.68l2.89-2.89
			L150.79,53.3z M147.9,50.41L145,53.3l-1.68-1.68l2.9-2.89L147.9,50.41z M145,47.51l-2.89,2.89l-1.68-1.68l2.89-2.89L145,47.51z
			 M130.16,47.16l7.25-7.24l1.8,1.8l-7.25,7.24L130.16,47.16z M133.18,50.18l7.24-7.25l1.68,1.68l-7.24,7.25L133.18,50.18z
			 M136.08,53.07l2.89-2.89l1.68,1.68l-2.89,2.89L136.08,53.07z M138.97,55.97l2.89-2.9l1.69,1.69l-2.9,2.89L138.97,55.97z
			 M141.87,58.86l2.89-2.89l1.68,1.68l-2.89,2.9L141.87,58.86z M144.76,61.76l2.9-2.89l1.68,1.68l-2.9,2.89L144.76,61.76z
			 M147.66,64.66l2.89-2.9l1.68,1.69l-2.89,2.89L147.66,64.66z M150.56,67.55l2.89-2.89l1.68,1.68l-2.89,2.9L150.56,67.55z
			 M153.45,70.45l2.9-2.89l1.68,1.68l-2.9,2.89L153.45,70.45z M157.51,74.5l-1.16-1.15l2.89-2.9l3.02,3.02L157.51,74.5z
			 M163.72,72.01L160.7,69l2.89-2.9l1.12,1.12L163.72,72.01z M157.51,93.97l4.75,1.03l-3.02,3.02l-2.89-2.9L157.51,93.97z
			 M155.13,96.34l2.9,2.89l-1.68,1.68l-2.9-2.89L155.13,96.34z M152.24,99.24l2.89,2.89l-1.68,1.68l-2.89-2.89L152.24,99.24z
			 M149.34,102.13l1.08,1.08l1.81,1.82l-1.68,1.68l-0.13-0.13l-2.76-2.77L149.34,102.13z M146.45,105.03l2.89,2.89l-1.68,1.68
			l-2.9-2.89L146.45,105.03z M143.55,107.93l2.89,2.89l-1.68,1.68l-2.89-2.89L143.55,107.93z M140.65,110.82l2.9,2.89l-1.68,1.69
			l-2.9-2.9L140.65,110.82z M137.76,113.72l2.89,2.89l-1.68,1.68l-2.89-2.89L137.76,113.72z M137.41,128.56l-7.25-7.25l1.8-1.8
			l7.25,7.24L137.41,128.56z M140.42,125.54l-7.24-7.24l1.68-1.68l7.24,7.24L140.42,125.54z M143.32,122.64l-2.89-2.89l1.68-1.68
			l2.89,2.89L143.32,122.64z M146.21,119.75l-2.89-2.9l1.68-1.68l2.9,2.9L146.21,119.75z M149.11,116.85l-2.89-2.89l1.68-1.68
			l2.52,2.52l0.37,0.37L149.11,116.85z M152.01,113.95l-1.59-1.59l-1.3-1.3l1.68-1.68l2.89,2.89L152.01,113.95z M154.9,111.06
			l-2.89-2.9l1.68-1.68l2.9,2.9L154.9,111.06z M157.8,108.16l-2.89-2.89l1.68-1.68l2.89,2.89L157.8,108.16z M160.7,105.26l-2.9-2.89
			l1.69-1.68l2.89,2.89L160.7,105.26z M163.59,102.37l-2.89-2.9l3.02-3.01l1,4.79L163.59,102.37z M213.2,115.4l-2.9,2.89l-1.68-1.68
			l2.9-2.89L213.2,115.4z M210.3,112.5l-2.89,2.9l-1.68-1.68l2.89-2.9L210.3,112.5z M207.4,109.61l-2.89,2.89l-1.68-1.68l2.89-2.89
			L207.4,109.61z M204.51,106.71l-2.9,2.89l-1.68-1.68l2.9-2.89L204.51,106.71z M199.93,102.13l1.68,1.68l-2.41,2.42l-0.48,0.48
			l-1.68-1.68l2.16-2.17L199.93,102.13z M198.71,100.92l-2.89,2.89l-1.68-1.68l2.89-2.89L198.71,100.92z M195.82,98.02l-2.89,2.89
			l-1.69-1.68l2.9-2.89L195.82,98.02z M191.76,93.97l1.16,1.15l-2.89,2.9L187.01,95L191.76,93.97z M184.56,101.25l0.99-4.79
			l3.02,3.02l-2.89,2.89L184.56,101.25z M186.89,103.58l2.9-2.89l1.68,1.68l-2.89,2.89L186.89,103.58z M189.79,106.48l2.89-2.89
			l1.68,1.68l-2.89,2.89L189.79,106.48z M192.69,109.38l2.89-2.9l1.68,1.68l-2.89,2.9L192.69,109.38z M195.58,112.27l2.9-2.89
			l1.68,1.68l-0.96,0.96l-1.94,1.93L195.58,112.27z M199.2,115.89l-0.72-0.72l2.89-2.89l1.68,1.68l-2.89,2.89L199.2,115.89z
			 M201.38,118.06l2.89-2.89l1.68,1.68l-2.89,2.9L201.38,118.06z M204.27,120.96l2.89-2.89l1.69,1.68l-2.9,2.89L204.27,120.96z
			 M207.17,123.86l7.24-7.25l1.68,1.69l-7.24,7.24L207.17,123.86z M211.87,128.56l-1.8-1.81l7.24-7.24l1.8,1.8L211.87,128.56z"/>
		
			<linearGradient id="SVGID_00000108275072909526878560000011830598331908946051_" gradientUnits="userSpaceOnUse" x1="184.7392" y1="-41.5338" x2="189.248" y2="-125.9139">
			<stop  offset="0" style="stop-color:#7EB833"/>
			<stop  offset="0.2798" style="stop-color:#66B027"/>
			<stop  offset="0.8679" style="stop-color:#299A07"/>
			<stop  offset="1" style="stop-color:#1A9500"/>
		</linearGradient>
		<path style="fill:url(#SVGID_00000108275072909526878560000011830598331908946051_);" d="M110.22,151.56h-4.11v-21.58l2.06-3.09
			l2.06,3.09V151.56z M128.42,151.56h-4.11v-21.58l2.06-3.09l2.06,3.09V151.56z M146.62,151.56h-4.11v-21.58l2.06-3.09l2.06,3.09
			V151.56z M239.77,151.56h4.11v-21.58l-2.06-3.09l-2.06,3.09V151.56z M221.58,151.56h4.11v-21.58l-2.06-3.09l-2.06,3.09V151.56z
			 M203.38,151.56h4.11v-21.58l-2.06-3.09l-2.06,3.09V151.56z"/>
	</g>
</g>
<g id="Logo15">
</g>
</svg>
