<?xml version="1.0" encoding="utf-8"?>
<!-- Generator: Adobe Illustrator 27.8.1, SVG Export Plug-In . SVG Version: 6.00 Build 0)  -->
<svg version="1.1" xmlns="http://www.w3.org/2000/svg" xmlns:xlink="http://www.w3.org/1999/xlink" x="0px" y="0px"
	 viewBox="0 0 350 230" style="enable-background:new 0 0 350 230;" xml:space="preserve">
<style type="text/css">
	.st0{fill:#003F49;}
	.st1{fill:#8E032B;}
	.st2{fill:#87622B;}
	.st3{fill:#83014C;}
	.st4{fill:#B72204;}
	.st5{fill:#015254;}
	.st6{fill:#5B9C40;}
	.st7{fill:#0055B6;}
	.st8{fill-rule:evenodd;clip-rule:evenodd;fill:#3A1D03;}
	.st9{fill-rule:evenodd;clip-rule:evenodd;fill:#723600;}
	.st10{fill:#00438D;}
	.st11{fill:#162E50;}
	.st12{fill:#F6921E;}
	.st13{fill:#00237A;}
	.st14{fill:#563B00;}
	.st15{fill:#00FFB6;}
	.st16{fill:#9500FF;}
	.st17{fill:#440000;}
	.st18{fill:#45EDFF;}
	.st19{fill:#CC7F7F;}
</style>
<g id="Layer_1">
</g>
<g id="Layer_2">
</g>
<g id="Layer_3">
</g>
<g id="Layer_4">
</g>
<g id="Layer_5">
</g>
<g id="Layer_6">
</g>
<g id="Layer_7">
</g>
<g id="Layer_8">
</g>
<g id="Layer_9">
	<g>
		<path class="st11" d="M35.78,96.1h15.62v29.15h8.73V96.1h15.62v29.15h8.73V96.1h7.93l4.94-9.19H14.18l4.94,9.19h7.92v29.15h8.73
			V96.1z M74.8,127.86h-5.79H58.65h-5.79H42.5h-5.79H4.57l3.12,7.83h29.02h5.79h10.36h5.79h10.36h5.79h29.02l3.12-7.83H74.8z
			 M99.97,84.16l5.28-8.96H6.26l5.28,8.96H99.97z M102.34,69.58c-0.08-0.43-0.33-0.69-0.64-0.75c-0.15-0.05-0.33-0.08-0.53-0.08
			c-0.84,0-1.68,0-2.52,0c0-0.01,0-0.02-0.01-0.02c-0.08,0-0.22,0-0.36,0c-8.42,0-16.84,0-25.26,0.01c-0.02,0-0.04,0-0.05,0
			c-0.36,0-0.73,0-1.09,0c0,0-0.01,0-0.01,0c-0.71-0.02-1.42-0.01-2.12-0.01c-5.47,0-10.95,0-16.42-0.01c-0.53,0-1.08-0.02-1.6-0.11
			c-1.15-0.2-2.16-0.58-3.03-1.14c-0.65-0.44-1.24-0.99-1.78-1.66c-0.2-0.26-0.39-0.52-0.55-0.78c-0.21-0.36-0.4-0.74-0.56-1.14
			c-0.39-0.98-0.6-1.94-0.61-2.87c0.02-0.94,0.22-1.9,0.61-2.87c0.16-0.41,0.35-0.79,0.56-1.14c0.17-0.26,0.35-0.53,0.55-0.78
			c0.53-0.68,1.13-1.23,1.78-1.66c0.87-0.56,1.89-0.94,3.03-1.14c0.52-0.09,1.07-0.11,1.6-0.11c5.47-0.01,10.95,0,16.42-0.01
			c0.71,0,1.42,0.01,2.12-0.01c0,0,0.01,0,0.01,0c0.36,0,0.73,0,1.09,0c0.02,0,0.04,0,0.05,0c8.42,0.01,16.84,0.01,25.26,0.01
			c0.14,0,0.28,0,0.36,0c0-0.01,0-0.02,0.01-0.02c0.84,0,1.68,0,2.52,0c0.2,0,0.38-0.03,0.53-0.08c0.32-0.06,0.56-0.31,0.64-0.75
			c0.02-0.12,0.02-0.23,0-0.34c-0.05-0.56-0.45-0.9-1.09-0.94c-0.09-0.01-0.17-0.01-0.26,0c-4.16,0-8.33,0-12.5,0
			c-5.76,0-11.51,0-17.27,0c-0.02,0-0.05,0-0.07,0c0,0,0,0,0,0c-3.44,0-6.89,0-10.33,0c-0.42,0-0.85,0-1.27,0c-2.23,0-4.47,0-6.7,0
			c-4.78,0-8.94,3.58-9.67,8.3c-0.07,0.48-0.11,0.97-0.12,1.44c0,0.04,0,0.08,0,0.12s0,0.08,0,0.12c0,0.47,0.04,0.95,0.12,1.44
			c0.73,4.72,4.89,8.3,9.67,8.3c2.23,0,4.46,0,6.69,0c0.43,0,0.86,0,1.29,0c3.44,0,6.88,0,10.32,0c0,0,0,0,0,0c0.03,0,0.05,0,0.08,0
			c5.76,0,11.51,0,17.27,0c4.16,0,8.33,0,12.49,0c0.09,0,0.17,0,0.26,0c0.64-0.04,1.03-0.38,1.09-0.94
			C102.37,69.81,102.37,69.7,102.34,69.58z M68.09,34.24c-3.49,2.65-6.98,5.29-10.48,7.92c-0.93,0.7-1.6,0.6-2.3-0.32
			c-1.24-1.64-2.48-3.28-3.75-4.96c-0.97,0.74-1.91,1.46-2.86,2.19c-3.11,2.39-6.23,4.79-9.35,7.18c-0.25,0.19-0.34,0.38-0.35,0.69
			c-0.04,1.31-0.59,2.37-1.62,3.17c-6.22,4.79-12.45,9.58-18.68,14.37c-0.97,0.75-1.92,1.54-2.93,2.24
			c-1.36,0.95-2.81,1.19-4.33,0.33c-2.88-1.63-3.1-5.03-0.44-7.08c6.65-5.12,13.31-10.23,19.96-15.35c0.41-0.32,0.83-0.62,1.23-0.95
			c1.05-0.85,2.24-1.14,3.54-0.87c0.39,0.08,0.63-0.01,0.93-0.24c4-3.09,8.01-6.16,12.01-9.24c0.03-0.02,0.04-0.05,0.09-0.11
			c-1.3-1.72-2.55-3.44-3.88-5.1c-0.57-0.71-0.44-1.69,0.32-2.25c2.58-1.92,5.14-3.87,7.71-5.81c0.88-0.67,1.78-1.32,2.64-2.01
			c0.81-0.66,1.73-0.57,2.37,0.29c2.47,3.34,4.98,6.64,7.48,9.96c0.98,1.3,1.97,2.59,2.96,3.88C68.94,32.91,68.84,33.66,68.09,34.24
			z M71.2,33.76c-0.4-0.22-0.77-0.13-1.11,0.12c-1.01,0.76-2.01,1.52-3.02,2.29c-3.49,2.64-6.98,5.28-10.47,7.92
			c-0.09,0.06-0.16,0.13-0.22,0.21c-0.02,0.01-0.04,0.03-0.05,0.04c-0.44,0.34-0.54,0.82-0.3,1.24c0.23,0.4,0.74,0.6,1.17,0.42
			c0.22-0.09,0.41-0.25,0.6-0.4c1.71-1.29,3.42-2.59,5.13-3.88c2.68-2.02,5.36-4.04,8.02-6.08c0.25-0.19,0.42-0.5,0.69-0.83
			C71.73,34.28,71.58,33.97,71.2,33.76z M57.26,15.27c0.06-0.46-0.09-0.74-0.45-0.94c-0.38-0.21-0.72-0.14-1.05,0.08
			c-0.12,0.06-0.24,0.14-0.36,0.23c-3.91,2.97-7.84,5.93-11.75,8.89c-0.57,0.43-1.14,0.84-1.7,1.28c-0.26,0.21-0.4,0.46-0.42,0.72
			c-0.04,0.21-0.01,0.42,0.11,0.62c0.23,0.4,0.74,0.6,1.17,0.42c0.22-0.09,0.41-0.25,0.6-0.4c1.71-1.29,3.42-2.59,5.13-3.88
			c2.68-2.02,5.36-4.04,8.02-6.08c0.25-0.19,0.42-0.5,0.69-0.83C57.26,15.34,57.26,15.3,57.26,15.27
			C57.26,15.27,57.26,15.27,57.26,15.27L57.26,15.27z M75.78,49.03c-0.12-0.06-0.27-0.07-0.44-0.07c-0.67,0.01-1.34,0-1.99,0
			c-0.32-0.98-0.67-1.23-1.64-1.23c-5.54,0-11.08,0.01-16.62-0.01c-0.91,0-1.62,0.21-1.82,1.26c-0.57,0-1.13-0.04-1.67,0.02h-0.04
			c-0.25,0-0.46,0.2-0.46,0.46c0,0,0,0,0,0l0,0c0,0,0,0,0,0.01c0,0.26,0.21,0.46,0.46,0.46h0.08c0.06,0.02,0.16,0,0.23,0
			c7.46,0,14.92,0,22.37,0c0.01,0,0.03,0,0.04,0h1.34c0.26,0,0.46-0.21,0.46-0.46C76.09,49.26,75.96,49.09,75.78,49.03z"/>
	</g>
	<path class="st12" d="M97.55,54.61c0,0.19-0.16,0.34-0.36,0.34H49c-0.01,0-0.01-0.01-0.01-0.01c0.18-0.14,0.36-0.26,0.55-0.38
		c0.16-0.1,0.33-0.19,0.5-0.27c0,0,0,0,0,0h47.14c0.1,0,0.19,0.04,0.25,0.1C97.51,54.43,97.55,54.52,97.55,54.61z M97.55,56.18
		c0.02,0.2-0.17,0.37-0.38,0.37H47.41c-0.01,0-0.01-0.01-0.01-0.01c0.08-0.11,0.17-0.21,0.26-0.32c0.1-0.12,0.2-0.23,0.3-0.34
		c0,0,0,0,0.01,0h49.22c0.1,0,0.19,0.04,0.25,0.1C97.5,56.03,97.54,56.1,97.55,56.18z M97.55,57.81c0,0.19-0.16,0.34-0.36,0.34
		H46.48c0,0,0,0,0,0c0.1-0.23,0.21-0.45,0.32-0.66c0,0,0,0,0.01,0h50.39c0.1,0,0.19,0.04,0.25,0.1
		C97.51,57.63,97.55,57.72,97.55,57.81z M97.54,59.48c-0.04,0.16-0.2,0.26-0.37,0.26H45.98c-0.01,0-0.01,0-0.01-0.01
		c0.05-0.22,0.1-0.44,0.17-0.66c0,0,0-0.01,0.01-0.01h51.04c0.1,0,0.19,0.04,0.25,0.1C97.53,59.25,97.57,59.36,97.54,59.48z
		 M97.55,61.01c0,0.19-0.16,0.34-0.36,0.34H45.85c0,0-0.01,0-0.01-0.01c-0.01-0.11-0.01-0.22-0.01-0.32c0-0.11,0.01-0.22,0.01-0.34
		c0,0,0-0.01,0.01-0.01h51.34c0.1,0,0.19,0.04,0.25,0.1C97.51,60.83,97.55,60.91,97.55,61.01z M97.55,62.57
		c0.02,0.2-0.17,0.37-0.38,0.37H46.14c0,0-0.01,0-0.01-0.01c-0.07-0.22-0.12-0.44-0.17-0.66c0,0,0-0.01,0.01-0.01h51.21
		c0.1,0,0.19,0.04,0.25,0.1C97.5,62.42,97.54,62.49,97.55,62.57z M97.55,64.2c0,0.19-0.16,0.34-0.36,0.34H46.8c0,0-0.01,0-0.01,0
		c-0.11-0.21-0.22-0.43-0.32-0.66c0-0.01,0-0.01,0.01-0.01h50.71c0.1,0,0.19,0.04,0.25,0.1C97.51,64.02,97.55,64.11,97.55,64.2z
		 M97.55,65.8c0,0.19-0.16,0.34-0.36,0.34H47.95c0,0,0,0-0.01,0c-0.1-0.1-0.19-0.21-0.28-0.32c-0.09-0.11-0.18-0.22-0.27-0.34
		c0-0.01,0-0.01,0.01-0.01h49.79c0.1,0,0.19,0.04,0.25,0.1C97.51,65.62,97.55,65.71,97.55,65.8z M97.55,67.4
		c0,0.19-0.16,0.34-0.36,0.34H50.02c0,0,0,0,0,0c-0.16-0.08-0.32-0.17-0.47-0.26c-0.2-0.12-0.39-0.26-0.57-0.4
		c-0.01,0,0-0.01,0.01-0.01h48.21c0.1,0,0.19,0.04,0.25,0.1C97.51,67.22,97.55,67.31,97.55,67.4z M84.59,138.62H27.05v77.17h57.54
		V138.62z M344.45,122.6H108.82v4h235.63V122.6z"/>
</g>
<g id="Layer_10">
</g>
<g id="Layer_11">
</g>
<g id="Layer_12">
</g>
<g id="Layer_13">
</g>
<g id="Layer_14">
</g>
<g id="Layer_15">
</g>
</svg>
