<?xml version="1.0" encoding="utf-8"?>
<!-- Generator: Adobe Illustrator 27.8.1, SVG Export Plug-In . SVG Version: 6.00 Build 0)  -->
<svg version="1.1" xmlns="http://www.w3.org/2000/svg" xmlns:xlink="http://www.w3.org/1999/xlink" x="0px" y="0px"
	 viewBox="0 0 350 230" style="enable-background:new 0 0 350 230;" xml:space="preserve">
<style type="text/css">
	.st0{fill:#003F49;}
	.st1{fill:#8E032B;}
	.st2{fill:#87622B;}
	.st3{fill:#83014C;}
	.st4{fill:#B72204;}
	.st5{fill:#015254;}
	.st6{fill:#5B9C40;}
	.st7{fill:#0055B6;}
	.st8{fill-rule:evenodd;clip-rule:evenodd;fill:#3A1D03;}
	.st9{fill-rule:evenodd;clip-rule:evenodd;fill:#723600;}
	.st10{fill:#00438D;}
	.st11{fill:#162E50;}
	.st12{fill:#F6921E;}
	.st13{fill:#00237A;}
	.st14{fill:#563B00;}
	.st15{fill:#00FFB6;}
	.st16{fill:#9500FF;}
	.st17{fill:#440000;}
	.st18{fill:#45EDFF;}
	.st19{fill:#CC7F7F;}
</style>
<g id="Layer_1">
	<g>
		<path class="st0" d="M250.33,88.25c-0.82-8.88-3.23-17.6-7.04-25.66c-7.55-15.77-20.42-29.01-36.23-36.58
			c-8.66-4.14-18.11-6.58-27.7-7.09c-13-0.75-26.22,1.88-37.87,7.75c-21.04,10.56-36.54,31.38-40.81,54.52
			c-3.08,15.99-0.75,32.86,6.09,47.59c3.39,7.2,7.88,13.88,13.26,19.73c1.66,1.77,3.32,3.57,5.23,5.09
			c-1.86-5.36-2.95-10.96-3.5-16.61c-0.09-0.8-0.71-1.33-1.13-1.95c-2.99-4.14-5.4-8.7-7.33-13.42c-1.64-3.96-2.9-8.1-3.72-12.31
			c-0.4-1.84-0.58-3.7-1.02-5.54c-0.4-2.92-0.55-5.89-0.55-8.86c0.02-2.17,0.07-4.34,0.42-6.49c-1.51,0.35-3.03,0.58-4.58,0.47
			c-0.31-0.04-0.69-0.09-0.84-0.4c-0.07-0.35,0.27-0.44,0.51-0.53c1.93-0.51,3.76-1.37,5.4-2.5c0.58-4.54,1.75-8.97,3.28-13.26
			c4.12-11.32,11.27-21.52,20.53-29.23c7.53-6.36,16.5-10.94,26.04-13.37c0.84-0.44,1.48-1.22,2.39-1.57
			c2.21-0.95,4.54-1.57,6.89-2.1c2.5-0.6,5.18-0.6,7.6,0.35c1.11,0.33,2.04,1.28,3.28,1.2c3.96,0.38,7.93,0.97,11.78,1.99
			c7.99,1.97,15.59,5.51,22.32,10.27c13.95,9.88,23.94,25.16,27.46,41.87c1.79,8.72,1.82,17.83,0.2,26.59
			c-2.57,13.51-9.23,26.2-18.91,35.98c-0.2,0.22-0.44,0.42-0.49,0.73c-0.33,1.24-0.42,2.57-1.09,3.68
			c-0.55,0.86-1.17,1.71-1.99,2.33c0.86-1.26,1.77-2.55,2.06-4.07c1.28-5.71,2.02-11.56,2.39-17.38c0.2-1.68,0.02-3.39-0.07-5.07
			c-0.11-2.37-0.47-4.72-0.82-7.04c-0.78-4.81-1.77-9.57-2.9-14.3c-0.22-0.93-0.44-1.88-0.8-2.77c-0.16,0.64-0.49,1.22-0.86,1.77
			c-0.86,1.26-1.66,2.57-2.66,3.72c-0.55,0.64-1.09,1.37-1.86,1.77c1.75-2.5,3.48-5.03,5.23-7.51c-0.4-3.17-0.75-6.38-1.35-9.52
			c-0.24-1.35-1.11-2.64-2.44-3.1c-4.54-1.55-9.32-2.37-13.66-4.5c-3.61-1.75-7.26-3.48-10.81-5.34c-1.42-0.75-2.39-2.04-3.43-3.21
			c-1.24-1.4-2.33-2.92-3.26-4.54c-0.18-0.35-0.62-0.38-0.93-0.55c-0.16-0.22-0.27-0.47-0.31-0.73c-0.02-0.6-0.16-1.2-0.27-1.77
			c0.04-0.16,0.11-0.47,0.13-0.62c0.84-2.04,0.82-4.3,1.44-6.4c0.51-0.02,1.04-0.09,1.44-0.44c0.89-0.6,1.15-1.71,1.53-2.64
			c0.58-1.46,0.95-3.01,0.84-4.58c0.04-0.91,0.11-1.84,0.07-2.75c0-0.66-0.62-1.4-1.31-1.02c0.49-1.9,0.6-3.9,0.42-5.87
			c0.33-0.64,0.78-1.22,0.86-1.95c0.18-0.89-0.4-1.66-0.62-2.46c-0.18-1.51-1-2.81-1.55-4.21c-0.64-1.57-2.08-2.55-3.41-3.48
			c-0.84-0.51-1.66-1.11-2.61-1.4c0.04-0.13,0.07-0.27,0.11-0.4c-2.06-1.42-4.45-2.44-6.98-2.52c-1.73-0.16-3.43,0.27-5.09,0.69
			c-1.64,0.44-3.3,0.89-4.89,1.51c-1.22,0.55-2.41,1.31-3.08,2.5c-0.49,0.78-0.62,1.71-1,2.55c-0.33,0.6-0.86,1.06-1.15,1.68
			c-0.64,1.4-1.04,2.9-1.17,4.43c-0.31,3.96,0.49,7.97,2.02,11.65c-0.11,0-0.33,0-0.44,0h0.04l-0.2-0.11
			c0.07-0.04,0.22-0.15,0.29-0.2c-0.44-0.31-0.86-0.93-1.51-0.69c-0.44,0.31-0.44,0.89-0.31,1.35c0.35,1.48,0.62,2.99,1.24,4.41
			c0.42,0.91,0.24,1.9,0.49,2.86c0.4,0.89,1.31,1.53,2.28,1.51c-0.02-0.16-0.07-0.44-0.09-0.6c0.29,1.62,0.47,3.28,0.91,4.87
			c0.15,0.58,0.29,1.17,0.35,1.77c0.04,0.04,0.11,0.16,0.13,0.22l-0.13-0.2c0.11,1.48,0.11,2.95,0.11,4.43
			c-0.73,0.64-1.37,1.35-2.02,2.08c-2.39,2.77-4.74,5.6-7.46,8.06c-2.33,1.79-4.94,3.19-7.48,4.69c-1.46,0.93-3.19,1.2-4.78,1.84
			c-2.64,1.22-5.31,2.33-7.91,3.63c-0.89,0.42-1.2,1.44-1.46,2.3c-0.31,1.17-0.71,2.35-0.93,3.54c-0.02,0.75,0.31,1.48,0.49,2.21
			c0.42,1.4,0.44,2.88,1.04,4.21c0.09-0.09,0.24-0.29,0.31-0.38c1.02-0.04,2.04-0.04,3.03,0.09c-1.2-2.59-1.4-5.54-1.42-8.35
			c0.44,2.52,0.66,5.12,1.59,7.53c0.24,0.75,0.69,1.59,0.33,2.39c-0.13,0.6-0.75,0.8-1.17,1.13c1.11,1.68,2.26,3.37,3.5,4.96
			c-0.11,0.04-0.22,0.09-0.33,0.13c-0.86-1.2-1.86-2.28-2.66-3.52c-0.33-0.55-0.73-1.06-1.15-1.53c-0.8,0.95-1.31,2.15-2.3,2.95
			c-0.82,0.66-1.84,1.09-2.83,1.35c2.57,3.96,5,8.04,8.06,11.67c-0.78-0.16-1.4-0.69-2.04-1.11c-1.11-0.73-2.04-1.66-2.97-2.61
			c-1.31-1.4-2.59-2.88-3.21-4.69c0.89,1.75,2.19,3.23,3.59,4.56c0.69,0.66,1.37,1.33,2.17,1.84c-2.08-2.95-4.07-5.98-6.02-9.03
			c-1.31,3.99-2.44,8.02-3.34,12.11c-0.86,4.14-1.66,8.39-1.31,12.64c0.55,6.4,1.84,12.73,3.88,18.82c0.42,1.26,1.59,2.04,2.77,2.52
			c2.37,0.95,4.83,1.64,7.26,2.39c8.44,2.5,17.18,3.7,25.93,4.34c4.21,0.24,8.41,0.58,12.62,0.58c-2.57,0.07-5.16,0.02-7.75,0.07
			c-4.89-0.04-9.79-0.4-14.64-1.09c-7.35-1-14.68-2.5-21.61-5.2c0,0.04,0.02,0.16,0.02,0.22c2.81,2.15,5.76,4.12,8.84,5.85
			c7.93,4.5,16.76,7.35,25.8,8.55c8.19,1.13,16.56,0.75,24.67-0.82c12.18-2.41,23.65-8.1,33.1-16.14
			c8.39-7.11,15.21-16.01,19.93-25.93C248.96,116.66,251.64,102.31,250.33,88.25z M178.94,34.35c-1.11-0.04-2.21,0.16-3.3,0.29
			c-0.49,0.2-1,0.35-1.53,0.4c0.16-0.04,0.49-0.11,0.64-0.13c2.33-0.86,4.96-1,7.35-0.35c0.33,0.07,0.69,0.22,1.04,0.09
			c0-0.07,0-0.2,0-0.27c-1.44-0.86-3.06-1.4-4.56-2.08c-2.13-0.89-4.45-1-6.69-1.33c1.95,0.09,3.92,0.07,5.8,0.64
			c1.31,0.42,2.61,0.84,3.81,1.51c0.18-0.2,0.44-0.58,0.71-0.24c-0.18,0.16-0.38,0.24-0.58,0.38c0.78,0.38,1.66,0.8,1.88,1.68
			C181.99,34.7,180.49,34.35,178.94,34.35z M181.44,31.76c0.93,0.49,1.75,1.13,2.39,1.95c-0.69-0.47-1.28-1.09-2.04-1.46
			c-2.3-1.22-4.85-2.13-7.48-2.13C176.77,29.99,179.25,30.67,181.44,31.76z M178.65,28.52c-0.22,0.13-0.51,0.22-0.73,0.02
			c-2.81-1.2-5.89-1.68-8.95-1.51C172.25,26.49,175.66,27.11,178.65,28.52z M168.8,36.27c-0.84,0.44-1.66,0.86-2.44,1.42l-0.15-0.07
			l-0.11-0.09c-0.53,0.07-0.84,0.6-1.28,0.84c0.35-0.55,0.89-1,1.51-1.24c0.04-0.04,0.11-0.11,0.15-0.13
			c0.38,0.15,0.66-0.2,0.95-0.35c1.11-0.69,2.37-1.24,3.68-1.4l0.2,0.02c-0.33,0.2-0.66,0.4-1,0.6
			C169.75,35.77,169.26,36.08,168.8,36.27z M169.79,36.56c-0.64,0.35-1.22,0.82-1.95,1c0.62-0.42,1.2-0.95,1.88-1.26L169.79,36.56z
			 M161.93,37.54c-0.11-0.93,0.66-1.62,1.28-2.21c1.99-1.64,4.74-1.73,7.2-2.04c0,0.02,0.02,0.07,0.04,0.09
			c-0.84,0.11-1.66,0.29-2.48,0.44c0.13,0.09,0.4,0.22,0.53,0.31c-0.29-0.02-0.58-0.04-0.86-0.04c-0.62,0.55-1.46,0.8-2.13,1.31
			c-1.22,0.91-2.39,1.95-3.17,3.26c0.47-2.08,2.37-3.37,4.21-4.16c0.33-0.18,0.8-0.2,1-0.58C165.23,34.24,163.24,35.72,161.93,37.54
			z M167.42,31.4c-1.97,0.58-3.85,1.66-4.94,3.45c-0.31,0.13-0.13,0.53,0.13,0.38h0.11c-0.02,0.04-0.04,0.13-0.07,0.18
			c-0.22,0.04-0.44,0.09-0.66,0.13c-0.31,0.62-0.62,1.22-0.97,1.79c0.16-2.28,1.79-4.3,3.85-5.18
			C165.7,31.85,166.54,31.47,167.42,31.4z M160.16,33.26c0.04,0.07,0.13,0.18,0.18,0.24c-0.04,0.55-0.18,1.11-0.38,1.62
			C159.81,34.5,160.03,33.88,160.16,33.26z M159.34,40.19c-0.73,0.04-1.53-0.22-2.19,0.13c-0.2,0.09-0.38,0.2-0.55,0.31
			c0.44-0.42,0.97-0.71,1.53-0.95c0.44,0.18,1.02,0.16,1.37,0.49L159.34,40.19z M159.81,40.26l-0.11-0.09
			c0.07-0.07,0.2-0.22,0.27-0.29c-0.2-0.42-0.49-0.84-0.51-1.31c-0.11,0.13-0.22,0.29-0.31,0.42c0.16,0.22,0.44,0.69,0.58,0.93
			c-0.95-0.16-1.84-1.13-2.79-0.49c0-0.04,0-0.11,0-0.13c0.4-0.13,0.82-0.29,1.22-0.42l-0.13-0.44c0.38,0.2,0.73,0.44,1.09,0.69
			c-0.22-0.53-0.66-1.15-1.33-0.95c0.11-0.04,0.35-0.13,0.47-0.18c0-0.09,0-0.29,0-0.4c0.31,0.29,0.58,0.64,1.02,0.73
			c-0.27-0.53-0.71-1.22-1.4-1.13c-0.22,0-0.44,0.02-0.66,0.02c0.51-0.2,1.04-0.35,1.59-0.16c-0.11-0.18-0.33-0.53-0.44-0.71
			c-0.51,0-1.13-0.2-1.48,0.33c0.09-0.18,0.22-0.33,0.35-0.49c0.75-0.18,1.99,0.18,1.64,1.2c0.66,0.91,1.06,2.02,1.42,3.1
			C160.16,40.42,159.92,40.3,159.81,40.26z M160.18,36.05c-0.07-1.22,0.64-2.28,1.26-3.26l-0.16-0.31l0.27,0.27
			c0.78-1.09,1.99-1.71,3.17-2.24c-0.82,0.55-1.73,1-2.44,1.73c-0.58,0.53-0.95,1.22-1.42,1.86c0.11,0,0.35,0.02,0.49,0.02
			c-0.13,0.18-0.24,0.51-0.53,0.18C160.6,34.86,160.38,35.46,160.18,36.05z M158.41,84.26c0.04-3.57,0.07-7.13,0.66-10.65
			c0.11-0.73,0.53-1.37,0.93-1.97c0.38,0.31,0.38,0.89,0.62,1.28c0.58,1.06,1.51,1.88,2.33,2.77c1.59,1.51,3.17,3.06,4.92,4.41
			c0.86,0.66,1.73,1.35,2.57,2.02c-0.6,0.29-1.17,0.58-1.77,0.86l0.11-0.24c0.24-0.38,0.49-0.75,0.69-1.15
			c-0.31,0.22-0.62,0.47-0.89,0.75c-1.33,1.51-2.55,3.1-3.63,4.76c-1.13,1.62-2.37,3.17-3.3,4.89c1.26-1.42,2.28-3.01,3.52-4.45
			c0.62-0.84,1.17-1.79,2.06-2.35c1.71-1.06,3.76-1.31,5.74-1.11c0.69,0.07,1.35,0.33,1.86,0.82c-2.3-0.31-4.74-0.47-6.91,0.51
			c-1.15,0.44-1.95,1.44-2.72,2.35c0.73,1.53,1.73,2.9,2.59,4.36c0.22,0.51,0.78,0.24,1.17,0.18c0.91-0.24,1.86-0.31,2.72-0.71
			c0.89-0.66,1.24-1.75,1.99-2.55c-0.49,1.22-1.04,2.39-1.82,3.43c-0.18,0.04-0.51,0.13-0.69,0.18c0.91,1.31,1.35,2.88,1.77,4.41
			c-0.58-1.48-1.2-2.97-2.02-4.34c-0.78,2.46-0.6,5.09-1.4,7.53c0-1.28,0.2-2.57,0.35-3.85c0.18-1.26,0.29-2.57,0.84-3.72
			c-0.73-0.22-1.51,0.04-2.24,0.11c-0.62,4.03-1.31,8.06-2.04,12.07c-0.31,1-0.02,2.06-0.49,3.03c0.4,0.89,0.95,1.71,1.42,2.55
			c1.57,2.57,3.03,5.23,4.72,7.73c2.26-3.7,4.03-7.68,5.27-11.82c0.22-0.73-0.22-1.42-0.47-2.06c-0.78-1.84-1.46-3.72-2.35-5.51
			c0.53,2.35,1.28,4.63,1.9,6.95c-0.86-1.82-1.44-3.76-1.93-5.71c-0.58-2.39-1.35-4.72-2.1-7.04c-0.18-0.38,0.11-0.73,0.29-1.04
			c1.24-1.79,2.39-3.63,3.68-5.38c1.44,1.57,2.68,3.34,4.14,4.92c0.55-2.08,1.53-4.03,2.17-6.09c-0.78,1.84-1.73,3.59-2.28,5.49
			c-2.57-3.06-4.85-6.38-7.84-9.06c-0.04,0-0.16,0.04-0.2,0.04c0,0.07-0.02,0.22-0.04,0.29c-0.4,0.07-0.82,0.11-1.22,0.11
			c2.66-1.75,5.31-3.57,7.44-5.98c1.28-1.4,2.52-2.9,3.26-4.67c0.27-0.62,0.2-1.33,0.49-1.95c0.44-0.31,0.35,0.58,0.53,0.82
			c0.84,3.76,1.06,7.64,0.91,11.47c-0.29,2.64-0.84,5.25-1.33,7.84c-0.69,3.68-1.71,7.29-2.72,10.87c-1.22,3.9-2.21,7.86-3.9,11.6
			c-0.95,2.15-2.21,4.16-3.26,6.29c-0.13,0.24-0.24,0.53-0.51,0.71c-3.08-4.67-5.82-9.57-8.5-14.48c-0.6-1.17-1.22-2.39-1.51-3.68
			c-0.6-3.08-2.24-5.82-2.92-8.88C158.26,89.66,158.41,86.94,158.41,84.26z M168.46,96.93c-0.2,3.23-0.93,6.44-2.02,9.48l-0.09-0.02
			c-0.18-0.42,0.11-0.86,0.2-1.26C167.38,102.42,167.96,99.67,168.46,96.93z M174.64,120.84c-1.2,4.14-1.79,8.41-2.41,12.69
			c-0.29,0-0.58-0.02-0.84-0.02c-1.15-5.85-3.1-11.47-5.03-17.09c1.73,3.9,3.26,7.88,4.27,12.05c0.33,1.31,0.6,2.61,0.91,3.92
			c0.47-2.55,1.15-5.05,1.75-7.55C173.69,123.48,174.02,122.1,174.64,120.84z M138.11,109.95c0.33,2.44,1.53,4.58,2.75,6.67
			c0.42,0.66,0.38,1.48,0.53,2.24c0.49,2.41,0.73,4.85,1.2,7.26c0.62,3.32,1.64,6.6,2.02,9.96c0.18,1.55,0.02,3.12-0.16,4.67
			c-0.47-0.13-0.62-0.6-0.8-1c-1-2.72-1.17-5.65-1.4-8.5c-0.22-4.32-0.51-8.66-1.42-12.89c-0.31-1.73-1.55-3.06-2.17-4.65
			c-1.59-3.7-1.04-7.82-1.22-11.74C137.88,104.61,137.62,107.31,138.11,109.95z M134.65,104.43c-0.18-0.95-0.18-1.9-0.33-2.86
			c0.42,1.37,0.58,2.81,1.04,4.19c0.75,2.3,1.46,4.61,2.37,6.86c-0.38-0.49-0.8-0.95-1.02-1.55
			C136.16,108.82,135.05,106.71,134.65,104.43z M130.51,109.13c1.24,0.66,2.17,1.73,3.23,2.61c1.62,1.33,3.12,2.77,4.63,4.21
			c-1.2-0.82-2.26-1.86-3.34-2.81c-0.2-0.13-0.4-0.27-0.62-0.33c2.66,2.7,5.47,5.6,6.4,9.39c-1-1.64-1.86-3.39-3.1-4.89
			C135.6,114.31,132.61,112.09,130.51,109.13z M132.57,129.08c1,0.93,1.97,1.97,2.55,3.21c-2.44-2.95-5.71-5.09-9.1-6.8
			c-0.73-0.38-1.53-0.64-2.21-1.09C127.03,125.23,130.09,126.84,132.57,129.08z M126.7,142.5c1.42-1.82,3.65-2.57,5.78-3.19
			c-2.61-0.22-5.31-0.64-7.57-2.04c4.01,1.37,8.28,1.35,12.42,1.77c0.2,0.02,0.38,0.11,0.51,0.29c-3.03,0.27-6.16,0.53-8.95,1.88
			C128.12,141.57,127.41,142.06,126.7,142.5z M132.61,145.22c-0.11-1.48,1.17-2.57,2.3-3.3c2.66-1.53,5.93-1.73,8.9-1.09
			c0.29,0.09,0.73,0.04,0.8,0.44c-2.81-0.29-5.8-0.51-8.41,0.75C134.67,142.65,133.5,143.85,132.61,145.22z M139.97,149.07
			c-1-0.13-2.06,0.09-3.03-0.27c4.94,0.42,10.1-0.16,14.55-2.5C148.07,148.48,143.97,149.41,139.97,149.07z M158.28,115.62
			c-4.36-6.22-8.53-12.58-12.53-19.04c1.46-0.44,2.9-1,4.36-1.48c-1.79-1.48-3.63-2.9-5.31-4.5c2.46-2.79,4.96-5.56,7.57-8.22
			c-1.24,1.59-2.57,3.1-3.85,4.67c-0.95,1.09-1.75,2.3-2.75,3.32c2.02,1.73,4.12,3.37,6.09,5.16c-1.71,0.47-3.43,0.91-5.16,1.4
			c2.15,3.08,4.16,6.27,6.27,9.37c2.66,3.99,5.38,7.91,8.04,11.87c2.19,3.23,3.72,6.82,5.47,10.3c0.84,1.82,1.73,3.61,2.5,5.45
			c-1.73-2.9-3.14-5.98-4.81-8.92C162.44,121.71,160.38,118.63,158.28,115.62z M164.52,139.42c0.29-1.35,0.64-2.88,1.86-3.68
			c0.84-0.31,1.75,0,2.61,0.11c-0.71,3.1-0.89,6.33-0.47,9.5c0.2,1.53,0.53,3.03,0.82,4.56c-1.24-0.13-2.5-0.02-3.74-0.27
			c-0.97-0.18-1.48-1.15-1.59-2.06C163.7,144.87,164.1,142.12,164.52,139.42z M164.43,160.83c0.24-0.29,0.51-0.55,0.89-0.69
			c0.29,0.09,0.53,0.24,0.78,0.4C165.92,161.21,164.9,161.28,164.43,160.83z M168.09,160.79c-0.31,0.53-0.91,0.42-1.37,0.24
			c0.29-0.58,1.17-1.09,1.59-0.35c-0.22-0.04-0.44-0.09-0.66-0.13c-0.18,0.11-0.33,0.24-0.51,0.35
			C167.38,160.86,167.84,160.81,168.09,160.79z M168.73,161.21c0.22-0.2,0.44-0.38,0.66-0.55c0.31,0.04,0.62,0.09,0.93,0.15
			C169.93,161.34,169.33,161.32,168.73,161.21z M172.01,135.06c3.32,1.17,6.78,1.97,10.25,2.5c-4.03-0.27-7.91-1.44-11.8-2.39
			C170.88,134.75,171.5,134.88,172.01,135.06z M176.68,135.04c2.64,0.51,5.16,1.55,7.55,2.77
			C181.66,137.07,179.25,135.88,176.68,135.04z M182.46,150.05c-0.2,0.4-0.69,0.18-1.02,0.18c-0.02-0.42-0.22-1.2,0.4-1.24
			C182.42,148.76,182.86,149.65,182.46,150.05z M181.06,148.96c0,0.29-0.02,0.55-0.02,0.84c-0.02-0.09-0.04-0.29-0.04-0.4l-0.2,0.02
			c0.04,0.64-0.69,0.78-1.13,0.53c-0.42-0.44,0-1.06,0.44-1.31c0.27,0.22,0.55,0.44,0.78,0.71
			C180.91,149.27,181.02,149.07,181.06,148.96z M178.72,149.89c-0.66,0.16-1.44-0.07-1.97-0.51c-0.18,0.38-0.84,0.66-1.11,0.22
			c-0.35-0.4,0.04-0.93,0.2-1.35c0.16,0,0.44,0,0.58,0c0.16,0.22,0.33,0.44,0.38,0.73c0.15,0.11,0.44,0.35,0.6,0.47
			c0.07-0.18,0.2-0.53,0.27-0.71c0.13-0.02,0.42-0.04,0.55-0.04c-0.29,0.27-0.44,0.6-0.53,0.97c0.4,0.04,0.73-0.04,1-0.29
			c-0.18-0.02-0.55-0.09-0.73-0.11c0.24-0.2,0.53-0.24,0.82-0.09c-0.02-0.11-0.04-0.38-0.07-0.49c0.11,0.02,0.29,0.09,0.4,0.11
			C178.89,149.14,178.65,149.45,178.72,149.89z M184.36,158.69c-0.29,1-0.47,2.02-0.78,3.01c-1.35,0.11-2.68,0.38-4.01,0.53
			c1.04-2.77,1.99-5.58,2.5-8.48c1,0.07,1.99,0.09,2.97,0.31C184.85,155.61,184.78,157.18,184.36,158.69z M175.13,150.76l-0.31,0.07
			c-0.13-0.09-0.24-0.18-0.38-0.24c-0.2,0-0.6,0-0.8,0.02c0.97-0.15,1.9,0.2,2.86,0.24c3.63,0.31,7.26,0.8,10.83,1.55
			C183.26,152.04,179.18,151.49,175.13,150.76z M195.66,95.44c-4.81,7.84-10.1,15.41-14.75,23.36c-1.28,2.19-2.33,4.5-3.45,6.73
			c-1.33,2.59-2.5,5.25-3.76,7.86c0.64-2.08,1.64-4.05,2.46-6.07c1.66-3.57,3.06-7.26,5.09-10.65c2.37-4.05,4.92-8.02,7.51-11.94
			c2.02-3.03,3.96-6.13,6.09-9.1c-1.97-0.58-3.85-1.35-5.8-1.97c1.95-1.82,3.99-3.52,6.11-5.09c-1.97-2.21-3.85-4.52-5.58-6.93
			c1.64,1.75,3.19,3.54,4.81,5.31c0.55,0.64,1.15,1.26,1.64,1.97c-1.79,1.44-3.63,2.81-5.29,4.41
			C192.38,94.05,194,94.8,195.66,95.44z M216.54,97.61c-0.82,2.17-2.33,3.96-3.83,5.69l-0.04-0.07
			C214.04,101.42,215.37,99.56,216.54,97.61z M212.62,114.84c2.02-2.19,4.76-3.63,7.55-4.61c-0.18,0.49-0.71,0.62-1.11,0.91
			c-2.52,1.46-4.78,3.37-6.89,5.4c0.78-1.22,1.79-2.24,2.83-3.23C214.15,113.67,213.48,114.4,212.62,114.84z M209.16,101.2
			c0.38-0.64,0.71-1.31,1.2-1.88c-1.77,4.1-4.3,7.77-6.6,11.56c0.18-1.9,1.04-3.63,1.71-5.4c0.78-1.9,1.51-3.85,2.46-5.69
			c-1.04,2.86-2.1,5.71-3.03,8.59C206.22,105.94,207.75,103.59,209.16,101.2z M201.35,125.54c-0.02-4.12,0.86-8.17,1.37-12.25
			c-0.58-3.72,0.15-7.51,1.31-11.05c0.84-2.57,1.88-5.07,3.01-7.53c-1.09,3.3-2.44,6.53-3.14,9.94c-0.53,2.55-0.66,5.16-0.55,7.77
			c-0.38,1.06-0.22,2.21-0.42,3.3c-0.11,0.97-0.4,1.93-0.49,2.92c0.64-1.46,1.2-2.99,2.06-4.34c1.44-2.21,3.19-4.27,5.34-5.8
			l0.09,0.07c-3.21,2.83-5.74,6.51-7,10.63c-0.71,1.64-0.97,3.41-1.09,5.18C201.84,124.78,201.81,125.29,201.35,125.54z
			 M201.88,157.87c0.09-1,0.13-2.02,0.31-2.99c2.21-0.18,4.43-0.33,6.64-0.55C206.6,155.67,204.25,156.8,201.88,157.87z
			 M215.48,137.16c-0.42-0.69-0.66-1.46-1.15-2.08c-1.24-1.59-2.97-2.77-4.81-3.57c1.77,0.62,3.57,1.4,4.85,2.79
			C215.08,135.08,215.59,136.1,215.48,137.16z M208.92,130.61c0.13-0.42,0.22-0.84,0.29-1.26c3.88,0.18,7.95,0.11,11.58-1.42
			c-1.37,1.26-3.28,1.73-5.07,1.99c-0.24,0.13-0.47,0.29-0.71,0.42c-0.93-0.02-1.84-0.15-2.75-0.22c0.13,0.09,0.27,0.2,0.4,0.29
			c1.9,0.58,3.94,1.42,4.98,3.21C215.23,131.63,212.02,130.83,208.92,130.61z"/>
		<path class="st1" d="M103.61,88.42c5-1.55,9.34-4.76,12.82-8.61c1.48-1.57,2.72-3.32,4.21-4.87c-0.18-1.04-0.29-2.08-0.38-3.12
			c0.78-0.09,1.57-0.09,2.37,0.02c0,1.11-0.18,2.21-0.29,3.32c4.05,2.99,8.61,5.36,13.57,6.36c1.71,0.35,3.43,0.49,5.18,0.6
			c-1.35,0.97-3.1,1.02-4.69,1.06c-5.14-0.09-9.96-2.21-14.22-4.96c0,2.83,0.16,5.65,0.11,8.48c-0.07,5.27-0.07,10.54-0.18,15.81
			c1.79,0.04,3.61,0.07,5.4,0.13c0.38,0,0.75,0.13,1.11,0.22c-0.42-0.8-0.73-1.64-0.97-2.5c-1.55-5.31-2.99-10.67-4.38-16.03
			c-0.49-1.82-0.62-3.7-0.84-5.56c0.51,0.47,1.02,1,1.17,1.71c1.26,4.14,2.3,8.33,3.43,12.49c0.91,3.39,1.79,6.78,2.59,10.21
			c-4.3,0.16-8.59,0.31-12.89,0.18c-0.04-2.02,0.24-4.03,0.44-6.02c0.55-4.83,1.09-9.63,1.68-14.46c0.13-1.26,0.97-2.26,1.62-3.3
			c0.02,3.14-0.51,6.24-0.89,9.37c-0.49,3.7-0.91,7.4-1.35,11.09c-0.13,0.91-0.18,1.86-0.51,2.72c1.06-0.18,2.15-0.11,3.23-0.11
			c-0.02-8.24-0.18-16.45-0.04-24.69c-1.75,3.19-4.41,5.8-7.46,7.75C110.51,87.47,107.08,88.6,103.61,88.42z M110.51,105.32
			c1.44,0.38,2.95,0.33,4.43,0.38c5.54,0.11,11.07-0.02,16.59-0.38c1.09,0,2.39-0.78,2.04-2.02c-1.64-0.22-3.26,0.07-4.87,0.18
			c-3.26,0.07-6.51,0.27-9.77,0.22c-2.21,0.02-4.45-0.22-6.67-0.11c-0.02-0.11-0.09-0.33-0.11-0.44c1.46,0.11,2.95,0.18,4.41,0.16
			c-0.02-0.13-0.09-0.42-0.11-0.55c-1.66,0.04-3.32,0.16-4.98,0.2v0.11c0.2,0,0.58,0.02,0.75,0.02c-0.11,0.16-0.24,0.29-0.35,0.44
			c-0.91-0.09-1.82-0.31-2.75-0.29C109.19,104.08,109.61,105.08,110.51,105.32z M128.67,108.64c1.24-0.62,2.08-1.77,2.83-2.92
			c-2.41,0.02-4.83,0.22-7.26,0.24c-4.05,0.18-8.1-0.02-12.16,0.02c1.33,2.88,4.78,3.83,7.71,3.92
			C122.78,109.92,125.97,110.1,128.67,108.64z M239.1,96.88c0.42-17.18-6.44-34.3-18.31-46.68c-9.79-10.36-23.14-17.27-37.25-19.33
			c-0.64-0.13-1.26-0.47-1.71-0.97c8.81,0.93,17.36,3.9,25,8.33c7.46,4.25,13.93,10.14,19.2,16.92c5.29,6.86,9.21,14.79,11.54,23.14
			c5.4,19.24,1.2,40.81-10.74,56.8c-1.55,2.04-3.06,4.12-4.92,5.89c0.07-0.8,0.42-1.53,0.95-2.1c4.14-4.85,7.66-10.25,10.3-16.05
			C236.87,114.69,238.86,105.81,239.1,96.88z M115.83,70.53c4.98-12.18,13.77-22.7,24.71-29.94c5.09-3.37,10.72-5.85,16.54-7.64
			c0.47-0.04,0.51-0.51,0.55-0.89c-0.64,0.09-1.24,0.29-1.84,0.51c-4.54,1.44-8.92,3.37-13.04,5.76
			c-12.67,7.51-22.74,19.33-28.08,33.08c-1.55,4.1-2.9,8.35-3.5,12.69c0.38-0.31,0.86-0.62,0.93-1.15
			C112.97,78.7,114.19,74.54,115.83,70.53z M110.49,88.05c-0.55,4.92-0.53,9.88,0.02,14.79c0.16,0,0.49-0.02,0.64-0.02
			c0.18-1.13-0.11-2.24-0.16-3.37c-0.18-4.03-0.09-8.06,0.31-12.07C110.91,87.38,110.45,87.56,110.49,88.05z M120.68,131.47
			c0.27,0.42,0.58,0.82,0.91,1.2c0.18-1.24-0.78-2.19-1.28-3.21c-3.5-5.82-5.98-12.2-7.55-18.8c-0.33-1.28-0.44-2.61-0.84-3.88
			c-0.11-0.38-0.35-0.73-0.73-0.86c0,0.55,0.04,1.11,0.18,1.64C112.84,116.01,116.01,124.21,120.68,131.47z"/>
	</g>
</g>
<g id="Layer_2">
</g>
<g id="Layer_3">
</g>
<g id="Layer_4">
</g>
<g id="Layer_5">
</g>
<g id="Layer_6">
</g>
<g id="Layer_7">
</g>
<g id="Layer_8">
</g>
<g id="Layer_9">
</g>
<g id="Layer_10">
</g>
<g id="Layer_11">
</g>
<g id="Layer_12">
</g>
<g id="Layer_13">
</g>
<g id="Layer_14">
</g>
<g id="Layer_15">
</g>
</svg>
