<?xml version="1.0" encoding="utf-8"?>
<!-- Generator: Adobe Illustrator 27.8.1, SVG Export Plug-In . SVG Version: 6.00 Build 0)  -->
<svg version="1.1" xmlns="http://www.w3.org/2000/svg" xmlns:xlink="http://www.w3.org/1999/xlink" x="0px" y="0px"
	 viewBox="0 0 350 230" style="enable-background:new 0 0 350 230;" xml:space="preserve">
<style type="text/css">
	.st0{fill:#003F49;}
	.st1{fill:#8E032B;}
	.st2{fill:#87622B;}
	.st3{fill:#83014C;}
	.st4{fill:#B72204;}
	.st5{fill:#015254;}
	.st6{fill:#5B9C40;}
	.st7{fill:#0055B6;}
	.st8{fill-rule:evenodd;clip-rule:evenodd;fill:#3A1D03;}
	.st9{fill-rule:evenodd;clip-rule:evenodd;fill:#723600;}
	.st10{fill:#00438D;}
	.st11{fill:#162E50;}
	.st12{fill:#F6921E;}
	.st13{fill:#00237A;}
	.st14{fill:#563B00;}
	.st15{fill:#00FFB6;}
	.st16{fill:#9500FF;}
	.st17{fill:#440000;}
	.st18{fill:#45EDFF;}
	.st19{fill:#CC7F7F;}
</style>
<g id="Layer_1">
</g>
<g id="Layer_2">
</g>
<g id="Layer_3">
	<g>
		<path class="st3" d="M69.97,78.85c2.07,1.25,4.01,2.37,5.9,3.59c8.58,5.55,14.93,12.99,18.85,22.44c0.32,0.76,0.55,1.62,0.55,2.44
			c0.02,5.95,0.83,11.8,2.09,17.66c-3.33-2.44-6.76-4.67-9.86-7.28c-7.25-6.11-12.23-13.8-15.12-22.84c-1.4-4.38-2.09-8.9-2.4-13.48
			C69.93,80.65,69.97,79.9,69.97,78.85z M279.65,79.08c-0.25,0.11-0.48,0.23-0.72,0.36c-4.32,2.33-8.21,5.26-11.78,8.6
			c-4.61,4.31-8.46,9.2-11.16,14.95c-1.07,2.29-1.69,4.59-1.64,7.18c0.05,2.5-0.31,5.03-0.67,7.53c-0.37,2.61-0.95,5.19-1.4,7.55
			c17.38-10.38,26.25-26.05,27.87-46.2C279.84,79.06,279.73,79.04,279.65,79.08z M101.38,136.5c-2.16-5.38-5.83-9.49-10.44-12.81
			c-5.81-4.17-12.33-6.67-19.34-7.95c-2.22-0.4-4.43-0.89-6.78-1.37c0.2,0.44,0.3,0.72,0.45,0.98
			c6.49,11.95,15.73,20.79,28.73,25.35c3.64,1.28,7.33,2.43,11.16,3.7C103.82,141.65,102.44,139.14,101.38,136.5z M255.58,140.18
			c3.03-1.17,6.07-2.44,8.89-4.04c8.46-4.79,14.82-11.75,19.87-19.97c0.3-0.49,0.53-1.03,0.86-1.69c-0.63,0.07-1.07,0.09-1.49,0.17
			c-2.4,0.5-4.83,0.92-7.2,1.53c-9.43,2.43-17.9,6.63-24.69,13.79c-0.6,0.63-1.24,1.3-1.58,2.07c-1.71,3.87-3.32,7.79-4.92,11.57
			C248.65,142.51,252.17,141.49,255.58,140.18z M256.39,144.05c-4.24,0.41-8.36,1.33-12.2,3.28c-1.24,0.63-2.15,1.51-2.96,2.64
			c-1.99,2.79-4.07,5.51-6.17,8.22c-0.94,1.21-2.01,2.32-3.02,3.47c0.06,0.11,0.12,0.21,0.18,0.32
			c17.05,0.72,31.45-5.64,44.11-16.73C269.68,144.1,263.06,143.4,256.39,144.05z M104,69.56c-0.03,0.97-0.65,1.95-1.1,2.87
			c-3.2,6.49-5.46,13.3-6.69,20.43c-0.29,1.72-0.48,3.46-0.77,5.52c-1.04-1.65-2.02-3.03-2.82-4.51
			c-3.26-6.04-4.68-12.52-4.22-19.35c0.48-7.16,2.93-13.7,6.78-19.72c1.34-2.09,2.9-4.04,4.37-6.05c0.21-0.29,0.48-0.54,0.8-0.9
			c1.59,4.98,2.88,9.9,3.34,15.01c-0.01-0.01-0.02-0.01-0.02-0.02v-0.01l0,0c0,0,0,0,0,0C103.8,65.08,104.06,67.33,104,69.56z
			 M92.09,73.05c0-0.01,0-0.01,0-0.02c-0.01,0-0.01-0.01-0.02-0.01c0,0.01,0,0.03,0,0.04C92.08,73.06,92.09,73.06,92.09,73.05z
			 M246.67,62.84C246.67,62.84,246.67,62.84,246.67,62.84L246.67,62.84L246.67,62.84c-0.01,0.01-0.02,0.01-0.02,0.02
			c0.46-5.11,1.75-10.03,3.34-15.01c0.32,0.35,0.59,0.6,0.8,0.9c1.47,2.01,3.03,3.96,4.37,6.05c3.85,6.02,6.3,12.56,6.78,19.72
			c0.46,6.83-0.96,13.31-4.22,19.35c-0.8,1.48-1.78,2.86-2.82,4.51c-0.28-2.07-0.47-3.8-0.77-5.52c-1.22-7.14-3.49-13.94-6.69-20.43
			c-0.45-0.92-1.08-1.9-1.1-2.87C246.28,67.33,246.54,65.08,246.67,62.84z M258.27,73.07c0-0.01,0-0.03,0-0.04
			c-0.01,0-0.01,0.01-0.02,0.01c0,0.01,0,0.01,0,0.02C258.26,73.06,258.26,73.06,258.27,73.07z M117.53,161.25
			c-3.11-3.46-6.04-7.05-8.53-10.99c-0.27-0.43-0.73-0.83-1.19-1.05c-4.26-2.05-8.69-3.58-13.36-4.41
			c-5.25-0.94-10.52-0.8-15.79-0.33c-1.76,0.16-3.51,0.45-5.27,0.68c-0.01,0.11-0.03,0.22-0.04,0.33
			c12.91,10.66,27.19,17.66,44.7,16.5C117.83,161.67,117.7,161.44,117.53,161.25z M181.93,31.11c0.07-0.5-0.02-0.85-0.14-1.19
			c-0.71-2.17-1.4-4.35-2.16-6.51c-0.23-0.64-0.09-0.95,0.47-1.28c2.04-1.25,4.05-2.54,6.06-3.82c0.2-0.13,0.38-0.29,0.72-0.55
			c-2.7,0-5.19-0.06-7.68,0.03c-0.97,0.03-1.33-0.32-1.61-1.19c-0.76-2.36-1.63-4.69-2.5-7.17c-0.17,0.43-0.3,0.74-0.41,1.05
			c-0.73,2.13-1.47,4.26-2.15,6.4c-0.21,0.64-0.49,0.91-1.2,0.88c-1.82-0.06-3.64-0.02-5.45-0.03c-0.85,0-1.7,0-2.85,0
			c1.98,1.24,3.69,2.3,5.38,3.39c0.79,0.5,1.96,0.91,2.2,1.62c0.24,0.71-0.45,1.74-0.76,2.62c-0.65,1.86-1.32,3.72-1.98,5.58
			c0.06,0.04,0.12,0.08,0.18,0.12c2.34-1.72,4.69-3.45,7.1-5.22C177.47,27.65,179.7,29.38,181.93,31.11z M183.73,38.73
			c0.21-0.17,0.3-0.33,0.38-0.51c0.51-1.09,1.03-2.17,1.52-3.27c0.14-0.33,0.31-0.39,0.64-0.32c1.23,0.26,2.47,0.49,3.7,0.72
			c0.12,0.02,0.25,0.03,0.48,0.05c-1.03-0.97-1.97-1.89-2.95-2.76c-0.39-0.34-0.4-0.6-0.19-1.04c0.56-1.18,1.07-2.39,1.63-3.65
			c-0.22,0.1-0.38,0.17-0.53,0.26c-1.05,0.56-2.1,1.1-3.13,1.68c-0.31,0.17-0.51,0.17-0.78-0.1c-0.67-0.68-1.38-1.32-2.08-1.98
			c-0.32-0.31-0.65-0.61-1.09-1.03c0.31,1.19,0.58,2.21,0.84,3.24c0.12,0.48,0.42,1.06,0.26,1.41c-0.16,0.36-0.8,0.51-1.24,0.73
			c-0.92,0.48-1.85,0.95-2.77,1.43c0.01,0.04,0.02,0.07,0.02,0.11c1.52,0.18,3.04,0.37,4.6,0.56
			C183.27,35.79,183.5,37.26,183.73,38.73z M163.73,37.65c0.21-0.17,0.3-0.33,0.38-0.51c0.51-1.09,1.03-2.17,1.52-3.27
			c0.14-0.33,0.31-0.39,0.64-0.32c1.23,0.26,2.47,0.49,3.7,0.72c0.12,0.02,0.25,0.03,0.48,0.05c-1.03-0.97-1.97-1.89-2.95-2.76
			c-0.39-0.34-0.4-0.6-0.19-1.04c0.56-1.18,1.07-2.39,1.63-3.65c-0.22,0.1-0.38,0.17-0.53,0.26c-1.05,0.56-2.1,1.1-3.13,1.68
			c-0.31,0.17-0.51,0.17-0.78-0.1c-0.67-0.68-1.38-1.32-2.08-1.98c-0.32-0.31-0.65-0.61-1.09-1.03c0.31,1.19,0.58,2.21,0.84,3.24
			c0.12,0.48,0.42,1.06,0.26,1.41c-0.16,0.36-0.8,0.51-1.24,0.73c-0.92,0.48-1.85,0.95-2.77,1.43c0.01,0.04,0.02,0.07,0.02,0.11
			c1.52,0.18,3.04,0.37,4.6,0.56C163.27,34.71,163.5,36.18,163.73,37.65z"/>
		<path d="M155.18,31.68c-6.31,2.17-12.3,4.94-17.92,8.52c-11.58,7.38-20.14,17.44-26.01,29.79c-3.55,7.46-5.97,15.29-6.86,23.53
			c-2.19,20.32,2.49,38.8,15.23,54.93c10.25,12.98,23.58,21.34,39.73,24.96c17.99,4.03,35.14,1.62,51.17-7.6
			c11.11-6.39,19.63-15.42,26.03-26.47c4.86-8.39,8.09-17.36,9.29-27.01c1.1-8.84,0.71-17.62-1.47-26.26
			c-3.17-12.58-8.95-23.82-17.7-33.47c-8.41-9.28-18.5-16.06-30.31-20.27c-0.23-0.08-0.45-0.2-0.61-0.47
			c1.45,0.49,2.92,0.93,4.35,1.46c8.04,2.96,15.55,6.91,22.21,12.35c15.89,12.97,25.79,29.51,28.76,49.85
			c2.57,17.54-0.8,34.09-9.74,49.45c-7.2,12.37-16.93,22.24-29.44,29.24c-8.77,4.91-18.26,7.67-28.25,8.7
			c-7.38,0.76-14.72,0.59-22.04-0.62c-12.71-2.1-24.19-6.97-34.2-15.13c-12.21-9.96-20.75-22.54-25.83-37.38
			c-3.01-8.79-4.13-17.93-3.65-27.26c0.62-11.9,3.59-23.15,9.54-33.47c10.75-18.63,26.29-31.32,47.13-37.24
			C154.8,31.75,154.99,31.72,155.18,31.68z M132.83,76.32c-5.14,9.34-10.27,18.69-15.43,28.02c-0.15,0.27-0.58,0.52-0.9,0.55
			c-0.89,0.07-1.79,0.03-2.71,0.03c2.15,9.6,10.34,16.78,20.73,16.44c10.31-0.34,17.89-8.54,19.3-16.43c-0.88,0-1.76-0.04-2.62,0.01
			c-0.64,0.04-0.97-0.22-1.23-0.77c-0.58-1.21-1.19-2.42-1.84-3.59c-4.38-7.88-8.78-15.75-13.16-23.63
			c-0.28-0.51-0.51-1.05-0.76-1.58c3.66-1.63,3.73-1.73,5.16-5.42c0.15-0.39,0.62-0.76,1.03-0.93c3.81-1.56,7.79-2.57,11.83-3.32
			c1.75-0.32,3.52-0.57,5.29-0.69c0.99-0.07,2,0.25,3,0.26c9.97,0.05,19.93,0.07,29.9,0.09c6.73,0.01,13.26,1.14,19.59,3.42
			c0.67,0.24,1.11,0.54,1.26,1.34c0.13,0.71,0.48,1.4,0.86,2.03c1.33,2.18,3.78,3.26,6.13,2.77c2.91-0.6,4.73-2.45,5.13-5.24
			c0.34-2.35-0.86-4.75-3.04-5.9c-2.27-1.19-4.47-0.9-6.6,0.44c-0.33,0.21-0.9,0.35-1.23,0.21c-6.18-2.57-12.63-3.94-19.28-4.48
			c-1.27-0.1-2.55-0.15-3.82-0.3c-0.26-0.03-0.47-0.42-0.71-0.65c0.27-0.17,0.54-0.51,0.8-0.49c1.34,0.1,2.7,0.16,4,0.48
			c1.15,0.28,1.77,0,2.1-1.09c0.05-0.16,0.12-0.3,0.22-0.52c-13.97-3.05-27.87-3.31-41.93,0.02c0.39,0.73,0.67,1.28,0.97,1.83
			c1.43-0.38,2.73-0.95,4.07-1.04c2.92-0.19-1.15-0.13,1.78-0.18c0.47-0.01,0.99,0.03,0.88,0.63c-0.05,0.28-0.54,0.65-0.85,0.67
			c-1.61,0.09,0.23,0.04-1.39,0.06c-1.13,0.01,1.28,0.05,0.23,0.05c-0.59,0.03,0.3-0.01-0.8,0.03c-1.22,0.05-0.22,0.01-0.81,0.04
			c-6.74,0.79-13.24,2.34-19.53,4.72c-0.83,0.32-1.47,0.26-2.23-0.22c-2.7-1.67-6.29-0.85-8.15,1.8c-1.75,2.5-1.23,6.15,1.34,8.02
			c1.1,0.8,2.5,1.21,3.81,1.82C133.15,75.74,132.99,76.03,132.83,76.32z M148.71,104.88c-4.77,0-9.42,0-14.17,0
			c0-8.39,0-16.77,0-25.15c0.08-0.02,0.17-0.04,0.25-0.06C139.42,88.04,144.03,96.41,148.71,104.88z M132.9,104.89
			c-4.61,0-9.17,0-14.03,0c4.69-8.43,9.28-16.68,13.87-24.92c0.05,0.02,0.11,0.04,0.16,0.06C132.9,88.3,132.9,96.56,132.9,104.89z
			 M215.34,76.22c-5.28,9.26-10.57,18.52-15.83,27.8c-0.35,0.62-0.72,0.88-1.42,0.82c-0.61-0.05-1.24-0.01-1.88-0.01
			c1.98,9.33,10.3,16.67,20.14,16.29c11.23-0.43,18.03-7.97,19.8-16.29c-0.92,0-1.83-0.04-2.73,0.01c-0.66,0.04-1.02-0.19-1.34-0.78
			c-3.27-5.88-6.57-11.74-9.86-17.61c-2.07-3.69-4.14-7.39-6.29-11.22C215.69,75.64,215.51,75.93,215.34,76.22z M215.24,104.82
			c-4.73,0-9.42,0-14.44,0c4.8-8.46,9.48-16.71,14.16-24.95c0.09,0.03,0.19,0.07,0.28,0.1C215.24,88.24,215.24,96.51,215.24,104.82z
			 M230.88,104.83c-4.83,0-9.4,0-14.02,0c0-8.2,0-16.35,0-24.49c0.09-0.02,0.17-0.04,0.26-0.06
			C221.67,88.42,226.23,96.54,230.88,104.83z M187.51,73.37c-2.08,0-4.08,0-6.18,0c0,23.34,0,46.62,0,69.97c2.05,0,4.08,0,6.18,0
			C187.51,119.94,187.51,96.66,187.51,73.37z M171.88,143.29c2.04,0,4.07,0,6.11,0c0-23.35,0-46.64,0-69.99c-2.04,0-4,0-6.11,0
			C171.88,96.67,171.88,119.97,171.88,143.29z M103.67,62.84L103.67,62.84C103.67,62.84,103.67,62.84,103.67,62.84L103.67,62.84z
			 M162.46,143.33c2.11,0,4.14,0,6.06,0c0-23.36,0-46.66,0-69.99c-2.13,0-4.03,0-6.06,0C162.46,96.74,162.46,120.01,162.46,143.33z
			 M198.31,150.79c-2.56,0.06-5.11,0.06-7.67,0.06c-13.16,0.01-26.32,0.01-39.48,0.01c-2.79,0-5.44,2.42-5.74,5.26
			c19.74,0,39.48,0,59.22,0C204.05,153.17,200.95,150.72,198.31,150.79z M166.62,53.97c4.69-0.65,9.42-0.63,14.11-0.16
			c4.68,0.46,9.33,1.24,13.96,2.03c2.03,0.34,2.06,0.48,2.74-1.49c0.09-0.25,0.13-0.51,0.23-0.95c-2.21-1.08-4.4-2.18-6.61-3.22
			c-7.92-3.74-16.13-4.74-24.67-2.55c-4.23,1.08-8.17,2.89-12.08,4.79c-2.33,1.13-2.46,1.51-1.03,3.68c0.04,0.05,0.1,0.09-0.01-0.01
			C157.86,55.35,162.23,54.57,166.62,53.97z M198.21,149.47c-0.68-2.4-2.1-3.99-4.49-4.53c-0.91-0.21-1.87-0.21-2.81-0.21
			c-7.84,0-15.69,0.03-23.53,0.04c-3.5,0.01-7-0.09-10.5,0.02c-3.06,0.1-5.01,1.96-6.5,4.68
			C166.42,149.47,182.29,149.47,198.21,149.47z M158.89,66.69c-0.51,3.02,0.75,4.58,3.7,4.66c0.5,0.01,1.01,0.02,1.51,0.02
			c7.67-0.01,15.35-0.03,23.02-0.04c2.9-0.01,4.25-1.63,3.78-4.64C180.19,66.69,169.53,66.69,158.89,66.69z M169.71,39.93
			c0,2.61,2.41,4.84,5.19,4.82c2.83-0.02,5.1-2.19,5.1-4.88c0.01-2.65-2.31-4.82-5.16-4.82C172.08,35.05,169.71,37.3,169.71,39.93z"
			/>
	</g>
</g>
<g id="Layer_4">
</g>
<g id="Layer_5">
</g>
<g id="Layer_6">
</g>
<g id="Layer_7">
</g>
<g id="Layer_8">
</g>
<g id="Layer_9">
</g>
<g id="Layer_10">
</g>
<g id="Layer_11">
</g>
<g id="Layer_12">
</g>
<g id="Layer_13">
</g>
<g id="Layer_14">
</g>
<g id="Layer_15">
</g>
</svg>
