<?xml version="1.0" encoding="utf-8"?>
<!-- Generator: Adobe Illustrator 27.8.1, SVG Export Plug-In . SVG Version: 6.00 Build 0)  -->
<svg version="1.1" xmlns="http://www.w3.org/2000/svg" xmlns:xlink="http://www.w3.org/1999/xlink" x="0px" y="0px"
	 viewBox="0 0 350 230" style="enable-background:new 0 0 350 230;" xml:space="preserve">
<style type="text/css">
	.st0{fill:#003F49;}
	.st1{fill:#8E032B;}
	.st2{fill:#87622B;}
	.st3{fill:#83014C;}
	.st4{fill:#B72204;}
	.st5{fill:#015254;}
	.st6{fill:#5B9C40;}
	.st7{fill:#0055B6;}
	.st8{fill-rule:evenodd;clip-rule:evenodd;fill:#3A1D03;}
	.st9{fill-rule:evenodd;clip-rule:evenodd;fill:#723600;}
	.st10{fill:#00438D;}
	.st11{fill:#162E50;}
	.st12{fill:#F6921E;}
	.st13{fill:#00237A;}
	.st14{fill:#563B00;}
	.st15{fill:#00FFB6;}
	.st16{fill:#9500FF;}
	.st17{fill:#440000;}
	.st18{fill:#45EDFF;}
	.st19{fill:#CC7F7F;}
</style>
<g id="Layer_1">
</g>
<g id="Layer_2">
</g>
<g id="Layer_3">
</g>
<g id="Layer_4">
</g>
<g id="Layer_5">
</g>
<g id="Layer_6">
</g>
<g id="Layer_7">
</g>
<g id="Layer_8">
</g>
<g id="Layer_9">
</g>
<g id="Layer_10">
</g>
<g id="Layer_11">
	<path class="st15" d="M162.67,37.19l12.39-25.97l12.44,26.07l16.29-15.72l-8.22,37.77h-40.99l-8.33-37.65L162.67,37.19
		L162.67,37.19z M207.73,95.85l-17.85,5.9v22.44v4.3v0.11l-9.15,5.28l15.71,9.06l5.34-3.09v-35.36l5.95-1.97v40.74
		c-11.78,6.8-20.95,12.11-32.73,18.9c-11.78-6.8-20.95-12.1-32.73-18.9V101.9l5.95,1.97v35.98l5.87,3.39l16.23-9.37l-10.21-5.9
		v-0.11v-4.3v-22.44l-17.86-5.9v-6.27l23.81,7.86v28.08v0.5l9.46,5.46l8.4-4.85v-0.5V97.43l23.81-7.86v6.27L207.73,95.85z
		 M175.53,136.88l-16.23,9.37c5.05,2.91,9.92,5.73,15.71,9.06c5.98-3.46,11-6.35,16.23-9.37L175.53,136.88z M130.37,76.98h89.27
		v5.95h-89.27V76.98z M154.08,65.2h41.94v5.89h-41.94V65.2z M219.63,88.89v61.87c-14.88,8.59-29.75,17.18-44.63,25.77
		c-14.88-8.6-29.75-17.18-44.64-25.77V88.89h5.95v58.46c12.89,7.45,25.79,14.88,38.68,22.32c12.89-7.45,25.79-14.88,38.68-22.32
		V88.89H219.63L219.63,88.89z M159.37,53.34h31.38l3.05-13.86l-8.13,7.84l-10.62-22.25l-10.54,22.09l-8.23-7.82L159.37,53.34
		L159.37,53.34z"/>
</g>
<g id="Layer_12">
</g>
<g id="Layer_13">
</g>
<g id="Layer_14">
</g>
<g id="Layer_15">
</g>
</svg>
