<?xml version="1.0" encoding="utf-8"?>
<!-- Generator: Adobe Illustrator 27.8.1, SVG Export Plug-In . SVG Version: 6.00 Build 0)  -->
<svg version="1.1" xmlns="http://www.w3.org/2000/svg" xmlns:xlink="http://www.w3.org/1999/xlink" x="0px" y="0px"
	 viewBox="0 0 350 230" style="enable-background:new 0 0 350 230;" xml:space="preserve">
<style type="text/css">
	.st0{fill:#003F49;}
	.st1{fill:#8E032B;}
	.st2{fill:#87622B;}
	.st3{fill:#83014C;}
	.st4{fill:#B72204;}
	.st5{fill:#015254;}
	.st6{fill:#5B9C40;}
	.st7{fill:#0055B6;}
	.st8{fill-rule:evenodd;clip-rule:evenodd;fill:#3A1D03;}
	.st9{fill-rule:evenodd;clip-rule:evenodd;fill:#723600;}
	.st10{fill:#00438D;}
	.st11{fill:#162E50;}
	.st12{fill:#F6921E;}
	.st13{fill:#00237A;}
	.st14{fill:#563B00;}
	.st15{fill:#00FFB6;}
	.st16{fill:#9500FF;}
	.st17{fill:#440000;}
	.st18{fill:#45EDFF;}
	.st19{fill:#CC7F7F;}
</style>
<g id="Layer_1">
</g>
<g id="Layer_2">
</g>
<g id="Layer_3">
</g>
<g id="Layer_4">
	<g>
		<path class="st4" d="M184.14,139.62h-1.92l5.55,42.89l-12.77,11.77l-12.78-11.77l5.55-42.89h-1.92
			c-22.49,0-40.72,18.23-40.72,40.72v33.51h99.73v-33.51C224.87,157.85,206.64,139.62,184.14,139.62z M175.01,16.15l-41.57,17.83
			l6.1,20.34l2.8,9.36h65.33l2.8-9.35l6.11-20.35L175.01,16.15z M203.53,58.12h-3.9c-5.57-7.57-14.53-12.49-24.62-12.49
			c-10.1,0-19.06,4.92-24.62,12.49h-3.91l-2.81-9.37c7.66-8.72,18.87-14.23,31.35-14.23c12.47,0,23.69,5.51,31.34,14.23
			L203.53,58.12z"/>
		<path class="st5" d="M184.14,134.07h-1.92c-1.6,0-3.11,0.68-4.17,1.89c-1.06,1.19-1.55,2.79-1.34,4.38l5.19,40.04l-6.9,6.35
			l-6.9-6.35l5.18-40.04c0.2-1.59-0.28-3.19-1.33-4.38c-1.06-1.2-2.58-1.89-4.18-1.89h-1.92c-25.51,0-46.28,20.76-46.28,46.27v33.51
			c0,3.07,2.5,5.55,5.56,5.55h99.75c3.07,0,5.55-2.48,5.55-5.55v-33.51C230.43,154.83,209.67,134.07,184.14,134.07z M219.32,208.3
			h-88.62v-27.96c0-17.88,13.42-32.7,30.73-34.89l-4.71,36.35c-0.22,1.78,0.43,3.57,1.75,4.8l12.78,11.77c2.12,1.96,5.4,1.96,7.53,0
			l12.78-11.77c1.32-1.23,1.97-3.02,1.74-4.8l-4.7-36.35c17.3,2.19,30.73,17.01,30.73,34.89V208.3z M218.76,28.87l-41.57-17.82
			c-1.4-0.61-2.97-0.61-4.38,0l-41.57,17.82c-2.59,1.12-3.93,4-3.12,6.71l7.83,26.09l1.08,3.61c0.7,2.35,2.87,3.96,5.32,3.96h65.33
			c2.45,0,4.62-1.61,5.32-3.96l1.09-3.6l7.83-26.1C222.71,32.86,221.36,29.99,218.76,28.87z M206.34,48.75l-2.81,9.37h-57.05
			l-2.81-9.37l-3.48-11.62l34.82-14.93l34.82,14.93L206.34,48.75z M214.07,61.67c-0.97-2.58-2.18-5.03-3.6-7.35
			c-1.22-1.97-2.6-3.84-4.13-5.58l-2.81,9.37h-3.9c1.28,1.73,2.37,3.58,3.25,5.55c0.8,1.77,1.44,3.63,1.88,5.56
			c0.53,2.24,0.81,4.56,0.81,6.96c0,9.47-4.29,18.25-11.76,24.1c-2.41,1.89-2.84,5.38-0.95,7.79c1.1,1.41,2.73,2.13,4.38,2.13
			c1.19,0,2.4-0.38,3.41-1.17c10.18-7.96,16.03-19.94,16.03-32.85C216.67,71.09,215.76,66.19,214.07,61.67z M156.2,100.29
			c-7.47-5.84-11.76-14.63-11.76-24.1c0-2.4,0.28-4.72,0.81-6.96c0.45-1.93,1.08-3.79,1.89-5.56c0.87-1.97,1.97-3.83,3.25-5.55
			h-3.91l-2.81-9.37c-1.52,1.74-2.9,3.59-4.13,5.57c-1.42,2.31-2.63,4.77-3.59,7.35c-1.68,4.53-2.61,9.43-2.61,14.53
			c0,12.91,5.84,24.89,16.03,32.85c2.42,1.89,5.91,1.46,7.79-0.96C159.04,105.67,158.62,102.18,156.2,100.29z"/>
	</g>
</g>
<g id="Layer_5">
</g>
<g id="Layer_6">
</g>
<g id="Layer_7">
</g>
<g id="Layer_8">
</g>
<g id="Layer_9">
</g>
<g id="Layer_10">
</g>
<g id="Layer_11">
</g>
<g id="Layer_12">
</g>
<g id="Layer_13">
</g>
<g id="Layer_14">
</g>
<g id="Layer_15">
</g>
</svg>
