<?xml version="1.0" encoding="utf-8"?>
<!-- Generator: Adobe Illustrator 27.8.1, SVG Export Plug-In . SVG Version: 6.00 Build 0)  -->
<svg version="1.1" xmlns="http://www.w3.org/2000/svg" xmlns:xlink="http://www.w3.org/1999/xlink" x="0px" y="0px"
	 viewBox="0 0 350 230" style="enable-background:new 0 0 350 230;" xml:space="preserve">
<style type="text/css">
	.st0{fill:#003F49;}
	.st1{fill:#8E032B;}
	.st2{fill:#87622B;}
	.st3{fill:#83014C;}
	.st4{fill:#B72204;}
	.st5{fill:#015254;}
	.st6{fill:#5B9C40;}
	.st7{fill:#0055B6;}
	.st8{fill-rule:evenodd;clip-rule:evenodd;fill:#3A1D03;}
	.st9{fill-rule:evenodd;clip-rule:evenodd;fill:#723600;}
	.st10{fill:#00438D;}
	.st11{fill:#162E50;}
	.st12{fill:#F6921E;}
	.st13{fill:#00237A;}
	.st14{fill:#563B00;}
	.st15{fill:#00FFB6;}
	.st16{fill:#9500FF;}
	.st17{fill:#440000;}
	.st18{fill:#45EDFF;}
	.st19{fill:#CC7F7F;}
</style>
<g id="Layer_1">
</g>
<g id="Layer_2">
</g>
<g id="Layer_3">
</g>
<g id="Layer_4">
</g>
<g id="Layer_5">
	<g>
		<path class="st6" d="M29.68,203.91c0.03-0.52,0.03-0.82,0.07-1.11c0.16-1.2,0.14-1.22-1.11-1.29c-1.49-0.09-2.97-0.18-4.5-0.46
			c4.12-1.03,8.23-2.05,12.35-3.08c-4.38-1.46-7.2-4.26-7.63-8.9c-0.43-4.63,1.76-7.91,5.98-10.02c-5.23-2.9-7.38-7.14-5.31-12.86
			c1.29-3.56,4.15-5.45,7.96-5.84c-0.21,0.09-0.42,0.18-0.64,0.28c-0.03,0.01-0.07,0.02-0.1,0.03c-3.01,1.21-5.93,2.65-6.21,6.36
			c-0.29,3.75,1.39,6.69,4.52,8.76c1.76,1.16,1.79,1.14,1.38,3.36c-0.46,0.16-0.95,0.27-1.39,0.49c-5.91,2.95-6.17,10.19-0.43,14.1
			c1.14,0.78,2.55,1.19,3.89,1.65c0.56,0.19,1.32,0.47,1.79-0.35c0.06-0.11,0.38-0.11,0.57-0.1c2.99,0.2,5.97,0.6,8.96,0.6
			c21.87,0.05,43.75,0.08,65.62-0.01c4.15-0.02,8.3-0.63,12.45-0.99c9.04-0.78,18.08-1.56,27.12-2.34c3.44-0.3,6.88-0.57,10.32-0.9
			c0.42-0.04,0.81-0.42,1.23-0.46c0.61-0.06,1.24,0.03,1.87,0.07c0.26,0.02,0.52,0.09,1.09,0.19c-0.46,0.16-0.65,0.26-0.84,0.28
			c-10.38,1.3-20.76,2.59-31.13,3.89c-6.68,0.84-13.36,1.68-20.05,2.52c-0.6,0.08-1.21,0.11-1.82,0.11
			c-21.91,0.01-43.82,0-65.73,0.01c-1.12,0-2.23,0.09-3.34,0.18c-0.23,0.02-0.48,0.19-0.67,0.35c-0.59,0.47-1.09,1.12-1.76,1.43
			C39.63,201.97,34.72,202.82,29.68,203.91z M169.44,173.75c-0.75-0.13-1.51-0.26-2.26-0.39c-0.09-0.02-0.25-0.02-0.29,0.03
			c-0.52,0.84-1.39,0.54-2.1,0.61c-2.33,0.21-4.66,0.32-6.99,0.48c-8.78,0.59-17.56,1.18-26.35,1.76
			c-5.37,0.35-10.74,0.95-16.11,0.97c-23.09,0.11-46.18,0.05-69.27,0.04c-0.85,0-1.69-0.01-2.54-0.05c-0.6-0.03-0.88,0.22-0.89,0.81
			c-0.01,0.49-0.05,0.98-0.08,1.57c0.45,0,0.79,0,1.12,0c21.67,0,43.34-0.07,65.01,0.02c6.11,0.03,12.16-0.48,18.22-1.11
			c13.83-1.45,27.68-2.83,41.51-4.25c0.35-0.04,0.69-0.11,1.04-0.17C169.45,173.97,169.45,173.86,169.44,173.75z M42.12,191.66
			c-0.21,0-0.45,0.15-0.61,0.3c-0.87,0.79-1.2,2.28-0.78,3.38c0.3-0.04,0.59-0.13,0.88-0.11c1.3,0.08,2.6,0.22,3.9,0.26
			c0.31,0.01,0.75-0.26,0.91-0.52c0.63-1.06,1.16-2.16,1.77-3.31C46.21,191.65,44.17,191.64,42.12,191.66z M38.11,175.79
			c-0.21,0-0.45,0.15-0.61,0.3c-0.87,0.79-1.2,2.28-0.78,3.38c0.3-0.04,0.59-0.13,0.88-0.11c1.3,0.08,2.6,0.22,3.9,0.26
			c0.31,0.01,0.75-0.26,0.91-0.52c0.63-1.06,1.16-2.16,1.77-3.31C42.2,175.78,40.15,175.77,38.11,175.79z M41.86,179.23
			c-1.25,0.04-2.5,0.13-3.75,0.1c-0.56-0.02-1.11-0.29-1.68-0.45c-0.08,1.64-0.16,3.52-0.26,5.7c1.25-1.09,2.26-1.97,3.32-2.9
			c1.08,0.92,2.1,1.79,3.43,2.92c0-1.67-0.03-2.98,0.01-4.29C42.97,179.51,42.61,179.21,41.86,179.23z"/>
		<path class="st7" d="M120.54,136.99c1.45,0.51,2.88,1.02,4.32,1.51c6.31,2.17,12.65,4.22,18.91,6.53
			c4.06,1.5,7.98,3.39,11.59,5.83c0.06,0.04,0.12,0.07,0.17,0.12c0.45,0.47,1.67-0.55,1.67,0.94c0,0.68,0.63,1.35,0.67,2.03
			c0.03,0.74-0.3,1.49-0.47,2.24c-0.01,0.03,0.02,0.06,0.05,0.18c3.64,0.12,7.3,0.25,10.97,0.37c0,0.06,0,0.12,0,0.18
			c-3.74,0.23-7.48,0.45-11.21,0.69c-12.59,0.79-25.19,1.58-37.78,2.37c-1.49,0.09-2.98,0.17-4.46,0.17
			c-24.86,0.02-49.72,0.03-74.58,0.04c-0.64,0-1.29,0-1.94-0.1c6.32-0.77,12.64-1.54,18.76-2.29c-0.51-0.27-1.17-0.57-1.77-0.96
			c-0.86-0.56-0.74-1.65,0.16-2.12c0.27-0.14,0.59-0.34,0.7-0.59c1.34-3.28,2.39-4.45,5.51-5.98c-0.09-0.1-0.2-0.17-0.24-0.26
			c-0.16-0.37-0.5-0.84-0.39-1.09c0.15-0.33,0.67-0.68,1.04-0.69c2.44-0.06,4.88-0.04,7.31-0.04c3.86,0,7.72,0,11.65-0.2
			c-0.3-0.15-0.59-0.3-0.89-0.44c-3.78-1.66-7.57-3.31-11.35-4.96c-1.59-0.7-2.19-1.87-1.68-3.17c0.4-1.03,1.9-1.93,3.43-1.04
			c0.11,0.06,0.25,0.08,0.43,0.14c0.34-0.42,0.77-0.73,0.13-1.32c-2.51-2.32-1.73-5.38,1.61-6.42c-0.19-0.41-0.48-0.8-0.55-1.22
			c-0.14-0.81,0.48-1.47,1.33-1.4c0.53,0.04,0.79-0.06,1-0.56c1.52-3.51,3.06-7.01,4.58-10.52c0.1-0.23,0.11-0.66-0.03-0.79
			c-0.53-0.49-0.91-1.07-0.51-1.68c0.3-0.46,0.92-0.72,1.53-1.17c0.01,0.03-0.07-0.2-0.17-0.43c-0.87-2.08,0.22-4.31,2.39-4.88
			c1.22-0.32,1.5-1.1,0.75-2.08c-0.64-0.83-0.68-1.91-0.1-2.74c0.64-0.91,1.68-1.24,2.79-0.77c2.22,0.93,4.41,1.92,6.61,2.87
			c0.49,0.21,0.99,0.4,1.59,0.65c0.03-0.37,0.08-0.62,0.08-0.87c0-16.29,0.02-32.58-0.03-48.87c0-1.39,0.29-2.5,1.3-3.44
			c0.26-0.24,0.45-0.56,0.71-0.88c-0.58-0.21-1.05-0.39-1.53-0.56c0.01-0.14,0.03-0.28,0.04-0.42c2.85-0.33,5.71-0.12,8.56-0.16
			c0.04,0.16,0.08,0.32,0.12,0.48c-0.49,0.22-0.97,0.43-1.56,0.7c0.21,0.28,0.39,0.61,0.65,0.85c1.11,0.98,1.35,2.18,1.34,3.63
			c-0.06,8.3-0.03,16.59-0.03,24.89c0,15.55,0.04,31.09-0.05,46.64c-0.01,1.84,0.45,2.86,2.1,3.68c3.81,1.9,7.53,3.99,11.3,5.99
			c0.53,0.28,0.98,0.44,1.47-0.22c0.21-0.28,0.96-0.38,1.34-0.23c0.34,0.13,0.55,0.68,0.74,1.08
			C120.7,136.39,120.58,136.67,120.54,136.99z M104.81,146.62c1.42-0.04,2.84-0.11,4.26-0.13c1.6-0.02,2.41,0.57,3.05,2.03
			c0.12,0.28,0.46,0.64,0.71,0.66c1.81,0.14,2.83,1.17,3.31,2.81c0.16,0.56,0.43,0.75,0.99,0.77c1.33,0.05,2.43,0.64,3.17,1.74
			c0.4,0.59,0.87,0.73,1.53,0.75c5.68,0.16,11.37,0.36,17.05,0.54c3.37,0.11,6.73,0.21,10.1,0.32
			c-10.71-3.77-20.06-10.2-30.11-15.03c-0.62,0.3-1.42,0.76-1.83,0.52c-0.51-0.3-0.69-1.15-1.02-1.77c0.11-0.12,0.22-0.25,0.32-0.37
			c-4.35-1.51-8.71-3.02-13.14-4.56c0,0.52,0,0.77,0,1.02c-2.92,0-5.76,0-8.61,0c-0.04-0.13-0.09-0.25-0.13-0.38
			c0.53-0.26,1.07-0.52,1.64-0.8c-0.5-0.56-0.74-1.34-1.84-1.2c-0.77,0.1-1.34-0.61-1.12-1.34c0.29-0.97-0.23-1.26-0.88-1.59
			c-1.06,1.52-1.06,1.52-2.6,1.17c-0.39,0.42-0.46,0.76,0,1.28c0.79,0.88,0.33,1.96-0.83,2.18c-0.18,0.03-0.35,0.06-0.55,0.1
			c1.35,3.47-0.06,5.58-3.7,5.59c-0.74,0-0.78,0.45-0.88,1.03c2.03,0.7,2.74,2.02,1.77,4.12c1.97,0,3.76-0.05,5.54,0.02
			c0.67,0.03,1.33,0.34,2,0.52c-0.18,0.53-0.37,1.07-0.49,1.44c1.35,1.07,2.73,2.17,4.22,3.35c-0.04-1.65,1.16-1.27,2.13-1.31
			c2.33-0.08,4.66-0.16,6.99-0.24c0.27-0.01,0.54-0.09,0.81-0.13c0-0.14-0.01-0.27-0.01-0.41c-3.09-0.12-6.18-0.24-9.31-0.36
			c0.06-0.48,0.12-0.91,0.19-1.42c0.35-0.03,0.67-0.06,1-0.07c1.75-0.08,3.51-0.13,5.26-0.26
			C104.17,147.19,104.49,146.83,104.81,146.62z M100.58,106.77c0-2.42,0-4.7,0-6.99c-0.01-10.32-0.02-20.65-0.03-30.97
			c0-0.37-0.03-0.74-0.05-1.11c-0.09-2.28-0.23-4.57-0.25-6.85c-0.02-2.54,0.07-5.07,0.1-7.61c0.01-0.92-0.7-1.04-1.34-1
			c-0.64,0.05-1.5-0.09-1.5,1.04c0.02,3.92,0,7.84,0.02,11.75c0.01,2.18,0.13,4.37,0.09,6.55c-0.06,3.54-0.23,7.09-0.31,10.63
			c-0.06,3.04-0.05,6.09-0.08,9.14c-0.02,2.7-0.06,5.4-0.07,8.09c-0.01,1.75,0.01,3.51,0.05,5.26c0.01,0.24,0.17,0.59,0.37,0.68
			C98.57,105.88,99.59,106.32,100.58,106.77z M85.1,130.81c1.73-3.98,3.41-7.82,5.14-11.79c-2.38-1.03-4.71-2.04-6.75-2.93
			c-0.97,2.06-1.9,3.92-2.72,5.83c-0.83,1.93-1.55,3.92-2.36,5.99C80.52,128.83,82.77,129.81,85.1,130.81z M97.17,117.91
			c0.2,0.58,0.49,1.07,0.52,1.58c0.07,1.16,0.02,2.33,0,3.5c0,0.14-0.07,0.28-0.11,0.41c1.38,0.18,1.48,1.14,1.29,2.25
			c0.53,0.21,1,0.4,1.44,0.58c-0.03-5.18,0.46-10.21,0.15-15.29c-0.51,0.05-0.85,0.07-1.18,0.11c-0.7,0.08-1.32,0.98-0.99,1.61
			C99.42,114.84,98.82,116.56,97.17,117.91z M97.97,154.54c0.11,0.02,0.23,0.04,0.34,0.06c-0.47-1.06,0.25-0.82,0.66-0.83
			c2.91-0.09,5.82-0.15,8.73-0.25c0.38-0.01,0.75-0.14,1.13-0.21c-0.02-0.15-0.03-0.31-0.05-0.46c-3.87-0.12-7.73-0.24-11.77-0.36
			C97.36,153.25,97.66,153.89,97.97,154.54z M87.34,107.26c1.84,0.81,3.57,1.54,5.28,2.33c0.77,0.35,1.49,0.5,2.42-0.08
			c-2.39-1.07-4.68-2.09-6.96-3.11C87.82,106.69,87.63,106.91,87.34,107.26z M80.85,139.47c-2.03-0.89-4-1.75-6.03-2.64
			c0.01,1.14,0,1.16,0.88,1.55c1.3,0.58,2.61,1.11,3.9,1.69C80.19,140.34,80.57,140.24,80.85,139.47z M82.57,157.79
			c0.01,0.05,0.02,0.09,0.04,0.14c5.01,0,10.03,0,15.04,0c0-0.05,0-0.09,0-0.14C92.62,157.79,87.6,157.79,82.57,157.79z
			 M67.11,155.6c0.01,0.05,0.03,0.09,0.04,0.14c4.27,0,8.54,0,12.81,0c0-0.05,0-0.09,0-0.14C75.67,155.6,71.39,155.6,67.11,155.6z
			 M68.12,146.65c0.01,0.05,0.02,0.1,0.04,0.14c3.25,0,6.51,0,9.76,0c0-0.05,0-0.1,0-0.14C74.66,146.65,71.39,146.65,68.12,146.65z
			 M152.8,90.89c0.66,0.29,0.77,0.92,0.4,1.33c-0.76,0.85-0.55,1.81-0.62,2.76c-0.03,0.34-0.33,0.67-0.51,1
			c-0.16-0.32-0.42-0.64-0.45-0.98c-0.08-0.95,0.16-1.9-0.61-2.75c-0.47-0.52-0.13-1.19,0.42-1.58c0.67-0.48,0.57-0.95,0.31-1.65
			c-0.22-0.6-0.29-1.41-0.06-1.99c0.26-0.65,0.2-1.06-0.03-1.68c-0.21-0.56,0-1.28,0.02-1.92c0.02-0.49,0.02-0.97,0.03-1.46
			c0.01-0.7,0.01-1.4,0.01-2.1c0-0.46,0.16-0.99-0.02-1.37c-0.36-0.78-0.34-1.45,0.03-2.21c0.17-0.36,0.03-0.86,0.03-1.29
			c0-0.73-0.01-1.46-0.02-2.19c0-0.46-0.02-0.93-0.02-1.39c0-0.7,0-1.41,0-2.11c0-0.47,0.15-0.99-0.01-1.38
			c-0.33-0.78-0.33-1.45,0.02-2.22c0.16-0.35,0.02-0.85,0.02-1.29c0-0.73,0.01-1.46,0.01-2.2c0-0.44,0.15-0.94-0.02-1.3
			c-0.39-0.81-0.39-1.5,0.03-2.29c0.17-0.32,0.16-0.87-0.01-1.19c-0.4-0.79-0.42-1.49-0.02-2.3c0.17-0.35,0.02-0.85,0.01-1.29
			c-0.02-0.7-0.22-1.47-0.01-2.1c0.21-0.61,0.19-1.01-0.05-1.59c-0.22-0.51-0.27-1.22-0.09-1.74c0.43-1.25,0.5-1.23-0.84-1.63
			c-0.28,0.36-0.55,0.72-0.83,1.08c0,0,0.02,0.03,0.02,0.03c0.01-0.33,0.03-0.66,0.04-0.99c-0.28,0.08-0.57,0.17-0.85,0.25
			c0.22-0.34,0.43-0.67,0.67-1.04c-0.2-0.7-0.41-1.47-0.66-2.36c-0.34,0.15-0.68,0.26-0.99,0.44c-0.96,0.57-1.93,1.13-2.86,1.75
			c-2.67,1.78-5.48,1.96-8.42,0.8c-2.23-0.88-4.43-1.87-6.71-2.63c-1.23-0.41-2.58-0.6-3.88-0.61c-7.52-0.06-15.03-0.02-22.55-0.04
			c-0.93,0-1.58,0.11-1.83,1.21c-0.17,0.76-0.69,1.44-1.07,2.18c0.71,0.53,1.98-0.32,2.46,1.01c-2.96,0-5.82,0-8.84,0
			c0.63-1.26,1.73-0.53,2.41-0.96c-0.45-1.04-0.85-2.11-1.38-3.09c-0.13-0.24-0.7-0.32-1.07-0.32c-2.67-0.03-5.35-0.02-8.02-0.02
			c-4.54,0-9.08,0.07-13.61-0.02c-2.85-0.06-5.47,0.61-8.07,1.71c-1.92,0.82-3.9,1.53-5.91,2.12c-1.79,0.52-3.56,0.17-5.19-0.76
			c-1.32-0.76-2.62-1.55-3.93-2.32c-0.31-0.18-0.65-0.32-1-0.49c-0.24,0.87-0.46,1.63-0.65,2.33c0.31,0.51,0.62,1.01,0.93,1.51
			c-0.24-0.27-0.49-0.53-0.76-0.84c-0.95,0.71-0.09,1.03,0.24,1.63c0.22-0.36,0.36-0.59,0.5-0.82c0.43,0.54-0.02,1.59,1.04,1.78
			c0.14,0.02,0.23,0.27,0.35,0.42l0.03-0.02c-0.93-0.09-0.75,0.49-0.63,1.04c0,0,0.02-0.02,0.02-0.02
			c-0.16-0.38-0.32-0.75-0.48-1.13c-0.13-0.3-0.19-0.66-0.39-0.88c-0.6-0.63-1.26-1.19-1.97-1.85c-1.16,0.28-1.07,0.26-0.65,1.57
			c0.18,0.54-0.09,1.22-0.13,1.84c-0.03,0.46-0.02,0.93-0.02,1.39c-0.01,0.73-0.01,1.46-0.01,2.19c0,0.46,0.03,0.93,0.03,1.39
			c0.01,0.7,0.01,1.4,0.01,2.11c0,0.46-0.14,0.97,0.01,1.37c0.3,0.78,0.36,1.45-0.05,2.22c-0.18,0.34,0.01,0.85,0.01,1.29
			c0,0.73-0.01,1.46-0.01,2.19c0,0.44-0.14,0.93,0.02,1.29c0.36,0.8,0.41,1.5-0.02,2.3c-0.17,0.31-0.16,0.87,0.01,1.2
			c0.42,0.8,0.4,1.49,0.02,2.3c-0.17,0.35-0.01,0.85,0,1.29c0.02,0.71,0.04,1.41,0.05,2.12c0.01,0.49-0.01,0.98-0.02,1.47
			c-0.01,0.7-0.02,1.4-0.03,2.1c-0.01,0.43-0.18,0.95-0.01,1.29c0.42,0.8,0.41,1.49,0.02,2.3c-0.17,0.35-0.17,0.93,0.01,1.27
			c0.42,0.77,0.36,1.44,0.03,2.21c-0.15,0.36-0.27,0.91-0.11,1.2c0.5,0.86,0.52,1.61,0,2.46c-0.3,0.49-0.32,1,0.26,1.41
			c0.77,0.54,0.91,1.22,0.3,1.99c0.03-0.2,0.14-0.42,0.09-0.59c-0.13-0.41-0.24-0.95-0.55-1.13c-0.26-0.16-0.93-0.02-1.14,0.23
			c-0.24,0.28-0.17,0.83-0.21,1.04c0.82,0.19,1.33,0.3,1.85,0.42c-0.79,0.69-0.25,1.6-0.42,2.39c-0.08,0.36-0.32,0.69-0.49,1.04
			c-0.17-0.35-0.45-0.69-0.48-1.05c-0.08-0.92,0.11-1.82-0.61-2.66c-0.48-0.56-0.14-1.24,0.47-1.64c0.63-0.41,0.64-0.92,0.3-1.47
			c-0.49-0.8-0.45-1.55-0.01-2.37c0.17-0.31,0.12-0.86-0.04-1.2c-0.38-0.8-0.4-1.5,0.03-2.29c0.17-0.32,0.16-0.87,0-1.2
			c-0.42-0.83-0.44-1.56,0.03-2.38c0.16-0.28,0.13-0.81-0.03-1.11c-0.44-0.82-0.43-1.55,0.01-2.38c0.17-0.31,0-0.8-0.01-1.21
			c-0.02-0.73-0.03-1.46-0.05-2.19c-0.01-0.46,0.01-0.92-0.01-1.38c-0.03-0.65-0.35-1.44-0.09-1.92c0.41-0.75,0.39-1.31-0.03-1.95
			c1.31,0.18,0.87-0.69,0.86-1.43c-1.16,0.06-0.68,0.94-0.83,1.46c0.05-0.63,0.11-1.27,0.14-1.9c0.02-0.43,0.11-0.92-0.04-1.28
			c-0.35-0.8-0.38-1.49,0.04-2.28c0.17-0.32,0.18-0.88,0.01-1.19c-0.45-0.82-0.42-1.54,0-2.36c0.16-0.31,0.03-0.79-0.02-1.18
			c-0.07-0.58-0.45-1.33-0.22-1.71c0.59-0.94,0.32-1.77,0.08-2.66c0.21,0.13,0.42,0.27,0.63,0.4c0.1-0.43,0.2-0.87,0.37-1.6
			c-0.55,0.26-0.78,0.37-1.02,0.48c0.07-0.63,0.37-1.36,0.16-1.88c-0.36-0.88-0.47-1.63,0.05-2.45c0.29-0.46,0.26-0.83-0.33-1
			c-0.31-0.09-0.62-0.18-0.81-0.24c-0.34,0.43-0.6,0.75-0.86,1.08c0.05-0.4,0.6-0.97-0.53-1.08c-0.1,0.41-0.19,0.81-0.29,1.22
			c0.28-0.06,0.57-0.12,0.85-0.18c-0.21,0.24-0.42,0.47-0.63,0.71c-0.25,0.29-0.71,0.59-0.71,0.89c0,1.01-0.45,1.61-1.3,2.08
			c-0.29,0.16-0.44,0.62-0.59,0.97c-0.17,0.39-0.15,0.9-0.41,1.19c-0.42,0.45-0.99,0.76-1.5,1.13c0,0,0.03,0.02,0.03,0.02
			c0.2-0.65,0.39-1.29,0.59-1.93c0.06,0.34,0.11,0.67,0.17,1.01c0.3-0.28,0.6-0.55,0.9-0.83c-0.06-0.12-0.12-0.23-0.18-0.35
			c-0.29,0.05-0.59,0.11-0.88,0.16c0.23-0.24,0.49-0.45,0.67-0.71c0.27-0.38,0.47-0.81,0.73-1.21c0.36-0.56,0.74-1.12,1.12-1.67
			c0.23-0.34,0.54-0.63,0.73-0.99c0.37-0.73,0.68-1.48,1.21-2.09c-0.17-0.61-0.46-1.22-0.49-1.84c-0.08-1.71,1.33-3.06,3.08-2.84
			c1.29,0.16,2.57,0.55,3.82,0.95c0.93,0.3,1.82,0.74,2.7,1.16c3.16,1.53,6.27,1.39,9.36-0.22c1.65-0.86,3.28-1.8,5.01-2.45
			c1.43-0.53,3-0.95,4.51-0.97c7.55-0.1,15.1-0.06,22.65-0.03c0.96,0,1.42-0.25,1.71-1.22c0.29-0.97,0.93-1.84,1.44-2.81
			c-2.01-2.44-1.97-3.39,0.38-5.65c-1.12-1.66-1.19-2.74-0.23-3.61c0.82-0.74,2.17-0.74,2.98-0.01c0.98,0.88,0.92,1.99-0.19,3.6
			c2.29,2.5,2.34,3.65,0.4,5.57c0.58,1.26,1.09,2.49,1.72,3.65c0.15,0.27,0.71,0.43,1.09,0.44c2.64,0.04,5.28,0.02,7.92,0.02
			c4.88,0,9.75,0.06,14.63-0.02c2.36-0.04,4.46,0.67,6.5,1.7c1.42,0.72,2.84,1.43,4.27,2.12c2.66,1.29,5.35,1.29,8.05,0.1
			c1.18-0.52,2.34-1.09,3.55-1.51c1.05-0.37,2.14-0.67,3.24-0.8c2.54-0.29,4.02,1.8,3,4.14c-0.07,0.15-0.13,0.31-0.18,0.4
			c0.23,0.29,0.43,0.55,0.62,0.8c0,0,0.03-0.02,0.03-0.02c-1.16-0.23-0.75,0.49-0.63,1.04c0,0,0.02-0.03,0.02-0.03
			c-0.26-0.33-0.53-0.66-0.88-1.11c-0.22,0.07-0.63,0.1-0.88,0.32c-0.21,0.18-0.4,0.69-0.3,0.85c0.58,0.92,0.54,1.74-0.04,2.64
			c-0.14,0.22-0.1,0.7,0.05,0.94c0.53,0.84,0.51,1.6,0.03,2.46c-0.16,0.28-0.15,0.82,0.02,1.11c0.49,0.83,0.41,1.56,0.01,2.39
			c-0.16,0.32-0.13,0.86,0.03,1.19c0.39,0.8,0.39,1.5-0.01,2.3c-0.16,0.33-0.17,0.87-0.01,1.19c0.39,0.79,0.4,1.49,0.03,2.29
			c-0.16,0.36-0.18,0.92-0.01,1.28c0.38,0.8,0.37,1.51-0.01,2.3c-0.16,0.33-0.16,0.86,0,1.19c0.4,0.83,0.44,1.56-0.05,2.38
			c-0.17,0.28-0.15,0.82,0.01,1.11c0.46,0.82,0.45,1.55,0,2.38c-0.17,0.31-0.12,0.86,0.04,1.2c0.39,0.8,0.4,1.5-0.02,2.3
			c-0.17,0.32-0.16,0.87,0.01,1.19c0.42,0.83,0.46,1.55-0.03,2.37c-0.17,0.28-0.16,0.83,0.01,1.11c0.48,0.82,0.44,1.55,0.01,2.38
			c-0.16,0.32-0.03,0.8,0,1.21c0.04,0.63,0.1,1.27,0.15,1.9c-0.03-1.4-0.03-1.4-0.84-1.3c-0.11,1.22-0.11,1.22,0.87,1.27
			c-0.67,0.82-0.48,1.55,0.24,2.23c-0.52,0.07-1.11,0.01-1.53,0.25c-0.21,0.12-0.1,0.78-0.14,1.12c0.71,0,1.2,0,1.96,0
			C153.03,91.81,152.91,91.35,152.8,90.89z M86.13,42.61c0-0.02,0-0.03,0.01-0.05c2.73-0.1,5.45-0.18,8.18-0.31
			c0.3-0.01,0.59-0.31,0.88-0.47c-0.32-0.21-0.63-0.58-0.95-0.59c-5.51-0.16-11.02-0.29-16.52-0.4c-1.96-0.04-3.92-0.08-5.87,0.01
			c-1.23,0.06-2.54,0.14-3.67,0.58c-3.01,1.19-5.94,2.58-8.89,3.92c-0.21,0.1-0.32,0.43-0.47,0.65c0.27,0.07,0.58,0.25,0.8,0.18
			c1.68-0.56,3.43-1.01,5-1.8c2.34-1.16,4.79-1.66,7.33-1.7C76.67,42.55,81.4,42.61,86.13,42.61z M139.3,45.68
			c-0.36-0.19-0.54-0.28-0.71-0.37c-1.83-0.87-3.68-1.71-5.49-2.63c-2.9-1.47-5.95-2.18-9.2-1.91c-0.74,0.06-1.48,0.12-2.22,0.13
			c-6.31,0.05-12.62,0.08-18.96,0.12c0,0.55,0,0.86,0,1.21c0.54,0.05,1.01,0.13,1.48,0.14c4.7,0.08,9.4,0.16,14.1,0.21
			c2.46,0.03,4.93,0.03,7.39,0c1.84-0.02,3.63,0.18,5.36,0.89c1.67,0.69,3.34,1.4,5.06,1.97C137,45.74,137.93,46.37,139.3,45.68z
			 M152.08,42.96c-0.72,0.1-1.31,0.53-1.18,1.23c0.11,0.56,0.29,1.35,1.34,1.24c0.92-0.1,1.08-0.75,1.12-1.32
			C153.41,43.38,152.82,43.02,152.08,42.96z M45.69,42.97c-0.64,0.07-1.27,0.42-1.19,1.15c0.05,0.46,0.54,1.1,0.97,1.25
			c0.67,0.22,1.48-0.52,1.53-1.15C47.05,43.62,46.43,42.99,45.69,42.97z M98.53,31.61c-0.48,0.6-1.01,1.15-0.96,1.21
			c0.41,0.48,0.93,0.88,1.42,1.3c0.24-0.33,0.74-0.74,0.67-0.97C99.5,32.67,99.05,32.28,98.53,31.61z M150.38,45.35
			c0.03-2.05,0.54-2.9,1.74-2.93c1.18-0.02,1.68,0.8,1.82,2.93c0.65-0.8,0.57-1.9-0.21-2.66c-0.86-0.84-2.14-0.85-3.1-0.02
			C149.84,43.35,149.75,44.42,150.38,45.35z M43.95,45.34c-0.14-1.85,0.46-2.9,1.78-2.84c0.57,0.03,1.35,0.44,1.61,0.91
			c0.3,0.52,0.13,1.31,0.16,2.02c0.67-1.02,0.52-2.16-0.37-2.9c-0.83-0.69-1.98-0.63-2.87,0.15C43.43,43.42,43.32,44.36,43.95,45.34
			z M99.74,27.95c-0.36-0.31-0.63-0.69-0.79-0.65c-0.28,0.07-0.7,0.4-0.7,0.62c0,0.33,0.32,0.65,0.51,0.97
			C99.04,28.63,99.33,28.35,99.74,27.95z M46.3,76.89c-0.15-0.08-0.29-0.16-0.44-0.25c-0.19,0.26-0.49,0.51-0.52,0.78
			c-0.02,0.21,0.31,0.45,0.48,0.68C45.98,77.71,46.14,77.3,46.3,76.89z M46.11,62.7c-0.1-0.05-0.21-0.1-0.31-0.15
			c-0.17,0.28-0.46,0.55-0.46,0.83c0,0.24,0.32,0.49,0.49,0.74c0.09-0.05,0.19-0.1,0.28-0.15C46.11,63.55,46.11,63.13,46.11,62.7z
			 M45.83,74.69c0.09-0.08,0.18-0.15,0.27-0.23c0-0.41,0-0.83,0-1.24c-0.11-0.04-0.23-0.08-0.34-0.12
			c-0.15,0.29-0.41,0.58-0.41,0.86C45.35,74.21,45.66,74.45,45.83,74.69z M46.32,80.45c-0.88-0.31-1.1,0.01-0.99,0.54
			c0.05,0.24,0.33,0.44,0.51,0.66C45.98,81.27,46.14,80.89,46.32,80.45z M151.49,81.49c1,0.33,1.13-0.1,1.05-0.62
			c-0.03-0.21-0.29-0.39-0.44-0.59C151.92,80.66,151.73,81.03,151.49,81.49z M151.61,60.38c0.96,0.31,1.01-0.19,0.93-0.68
			c-0.03-0.2-0.31-0.36-0.48-0.54C151.91,59.56,151.76,59.96,151.61,60.38z M151.52,49.77c1.01,0.35,1.12-0.1,1.04-0.62
			c-0.03-0.21-0.29-0.39-0.44-0.59C151.94,48.94,151.75,49.31,151.52,49.77z M46.3,69.86c-0.94-0.33-1.06,0.09-0.98,0.62
			c0.04,0.22,0.28,0.4,0.43,0.6C45.94,70.68,46.12,70.28,46.3,69.86z M46.34,60.38c-0.23-0.47-0.41-0.85-0.6-1.22
			c-0.15,0.17-0.4,0.33-0.42,0.51C45.27,60.13,45.25,60.68,46.34,60.38z M151.74,74.66c0.31-0.11,0.69-0.15,0.71-0.27
			c0.07-0.33,0.05-0.71-0.04-1.04c-0.03-0.1-0.42-0.1-0.67-0.15C151.74,73.73,151.74,74.11,151.74,74.66z M46.35,83.9
			c-1.1-0.26-1.09,0.27-1.02,0.75c0.03,0.19,0.29,0.34,0.45,0.5C45.95,84.76,46.13,84.37,46.35,83.9z M151.58,83.92
			c0.16,0.42,0.31,0.82,0.47,1.23c0.17-0.18,0.45-0.35,0.49-0.55C152.62,84.07,152.51,83.62,151.58,83.92z M46.4,88.05
			c-0.28-0.32-0.44-0.51-0.61-0.7c-0.16,0.22-0.44,0.43-0.46,0.67c-0.02,0.21,0.23,0.45,0.36,0.67C45.9,88.5,46.1,88.32,46.4,88.05z
			 M151.58,69.86c0.15,0.41,0.29,0.81,0.44,1.22c0.18-0.2,0.47-0.38,0.52-0.61C152.63,69.93,152.46,69.54,151.58,69.86z
			 M151.99,66.04c-0.1,0.08-0.21,0.16-0.31,0.24c0.02,0.4,0.04,0.79,0.05,1.19c0.1,0.05,0.21,0.1,0.31,0.15
			c0.17-0.28,0.47-0.56,0.47-0.85C152.52,66.53,152.18,66.29,151.99,66.04z M152.04,62.57c-0.15,0.08-0.3,0.16-0.45,0.24
			c0.15,0.4,0.31,0.79,0.46,1.19c0.17-0.22,0.49-0.45,0.47-0.66C152.5,63.08,152.22,62.83,152.04,62.57z M151.6,52.17
			c0.15,0.45,0.28,0.87,0.42,1.29c0.19-0.17,0.51-0.32,0.54-0.52C152.62,52.51,152.7,51.92,151.6,52.17z M45.37,48.56
			c-0.16,1.3-0.15,1.32,0.75,1.23C46.01,49.32,46.54,48.53,45.37,48.56z M46.26,55.84c-0.17-0.09-0.35-0.19-0.52-0.28
			c-0.15,0.27-0.4,0.54-0.42,0.82c-0.02,0.18,0.29,0.39,0.45,0.59C45.94,56.59,46.1,56.21,46.26,55.84z M99.41,41.44
			c-0.47-0.22-0.69-0.42-0.89-0.4c-0.22,0.02-0.42,0.25-0.62,0.39c0.22,0.16,0.42,0.41,0.66,0.45
			C98.73,41.92,98.96,41.69,99.41,41.44z M152.02,76.64c-0.15,0.09-0.31,0.17-0.46,0.26c0.18,0.4,0.35,0.79,0.53,1.19
			c0.15-0.22,0.46-0.45,0.43-0.64C152.47,77.15,152.2,76.9,152.02,76.64z M151.57,55.72c0.18,0.42,0.36,0.82,0.53,1.23
			c0.16-0.22,0.4-0.42,0.45-0.66C152.67,55.69,152.36,55.49,151.57,55.72z M41.15,51.2c0.27-0.45,0.49-0.76,0.63-1.11
			c0.03-0.07-0.29-0.28-0.44-0.42c-0.23,0.31-0.49,0.6-0.66,0.94C40.64,50.69,40.92,50.92,41.15,51.2z M76.98,90.97
			c0.1,0.31,0.2,0.62,0.32,0.99c1.12,0.06,2.23,0.38,2.37,1.68c0.07,0.62-0.28,1.5-0.75,1.93c-0.93,0.84-1.95,0.41-2.83-0.34
			c-2.76,3.15-6.56,4.03-10.32,4.85c-8.93,1.95-17.97,2.23-27.07,1.69c-5.9-0.35-11.73-1.04-17.37-2.91
			c-2.19-0.73-4.33-1.61-5.82-3.64c-0.97,0.71-1.97,1.21-3.05,0.33c-0.64-0.52-0.85-1.23-0.65-2.01c0.3-1.19,1.27-1.48,2.39-1.56
			c0.03-1.06,0.35-1.9,1.43-2.32c0.25-0.1,0.34-0.6,0.5-0.92c0.24-0.48,0.47-0.96,0.71-1.44c0.02,0.44-0.84,0.82-0.12,1.26
			c0.09,0.06,0.55-0.48,0.83-0.75c0.04-0.03,0.01-0.13,0.03-0.3c-0.25-0.06-0.51-0.12-0.77-0.18c0.31-0.61,1.47-0.62,1.16-1.69
			c-0.04-0.14,0.19-0.37,0.29-0.55l-0.02-0.03c0.06,0.83,0.5,0.77,1.04,0.43c0,0-0.02-0.02-0.02-0.02
			c-0.25,0.25-0.52,0.47-0.74,0.75c-0.24,0.3-0.6,0.63-0.6,0.95c0,0.93-0.5,1.45-1.19,1.93c-0.28,0.2-0.69,0.54-0.68,0.79
			c0.07,1.09-0.55,1.73-1.25,2.23c0.57,1.56,1.77,1.58,3.12,1.57c3.93-0.01,7.85,0.09,11.78,0.17c0.88,0.02,1.8,0.07,1.9,1.4
			c1.2,0,2.38-0.01,3.56,0c0.92,0.01,1.94-0.2,2.36,1.02c0.05,0.15,0.3,0.27,0.48,0.34c3.01,1.27,6.18,1.54,9.39,1.36
			c1.26-0.07,2.52-0.47,3.75-0.84c0.9-0.27,2-0.43,1.89-1.92c1.85,0,3.61,0.01,5.36-0.01c0.29,0,0.77-0.04,0.83-0.19
			c0.49-1.23,1.61-1.11,2.55-1.14c4.09-0.12,8.19-0.22,12.28-0.17c1.34,0.02,2.14-0.41,2.54-1.39c-0.39-0.59-0.7-1.07-1.02-1.56
			l-0.03,0.01c0.23,0.31,0.46,0.61,0.78,1.03c0.33-0.41,0.51-0.62,0.68-0.84L76.98,90.97z M14.85,94.34
			c-0.1-1.09-0.5-1.29-1.26-1.28c-0.78,0.01-0.97,0.43-0.96,0.99c0.01,0.66,0.47,1.16,1.11,1.04
			C14.19,95.02,14.57,94.54,14.85,94.34z M77.71,93.07c-0.64-0.11-1.13,0.3-0.98,1c0.09,0.42,0.67,0.94,1.1,1.02
			c0.63,0.11,1.05-0.43,1.03-1.09C78.84,93.4,78.56,92.96,77.71,93.07z M15.94,90.71c-0.78-0.79-1.04-0.32-1.23,0.1
			c-0.08,0.17,0.05,0.43,0.08,0.64C15.15,91.22,15.51,90.99,15.94,90.71z M122.29,90.75c-0.32,0.48-0.63,0.96-1.04,1.57
			c0.42,0.83,1.09,1.4,2.43,1.38c4.09-0.05,8.18,0.04,12.27,0.16c0.97,0.03,2.11-0.05,2.68,1.15c0.08,0.16,0.55,0.19,0.83,0.19
			c1.69,0.02,3.37,0.01,5.15,0.01c-0.02,1.31,0.85,1.51,1.76,1.8c4.29,1.38,8.54,1.42,12.79-0.14c1.08-0.4,1.16-0.47,1.5-1.66
			c1.59,0,3.24,0,4.89,0c0.5,0,0.82-0.04,1.02-0.68c0.11-0.34,0.89-0.64,1.37-0.66c3.95-0.11,7.91-0.18,11.87-0.2
			c1.33-0.01,2.69,0.19,3.23-1.57c-0.88-0.52-1.35-1.4-1.21-2.58c0.66,0.24,1.37,0.43,1.47,1.3c-0.35-0.25-0.6-1.05-1.22-0.2
			c0.22,0.32,0.43,0.63,0.8,1.17c0.19-0.48,0.29-0.74,0.39-1.01c0.15,0.35,0.3,0.69,0.5,1.16c1,0.1,2.18,0.41,2.25,1.78
			c0.03,0.63-0.36,1.47-0.84,1.9c-0.91,0.8-1.9,0.29-2.74-0.34c-3.87,3.88-8.95,4.67-13.94,5.46c-11.79,1.86-23.59,1.77-35.34-0.44
			c-1.79-0.34-3.56-0.84-5.3-1.38c-2.85-0.88-3.99-1.61-6.05-3.65c-0.93,0.62-1.93,1.16-3,0.24c-0.62-0.53-0.87-1.21-0.65-2
			c0.34-1.18,1.28-1.48,2.32-1.53c0.22-0.45,0.42-0.86,0.62-1.27c0.06,0.25,0.12,0.49,0.18,0.74c0.2-0.1,0.42-0.18,0.61-0.3
			c0.16-0.1,0.28-0.26,0.43-0.39C122.32,90.76,122.29,90.75,122.29,90.75z M184.13,93.12c-0.74-0.21-1.05,0.23-1.07,0.89
			c-0.03,0.67,0.42,1.2,1.04,1.08c0.43-0.08,1-0.61,1.1-1.04C185.33,93.46,184.95,92.94,184.13,93.12z M120.15,93.08
			c-0.85-0.15-1.23,0.34-1.11,0.88c0.09,0.44,0.63,0.79,0.98,1.18c0.39-0.35,1.02-0.64,1.12-1.06
			C121.31,93.38,120.79,92.99,120.15,93.08z M131.04,77.14c-0.68,0.44-1.32,0.88-1.1,1.87c0.02,0.09-0.2,0.23-0.31,0.35
			c-0.16-0.24-0.32-0.48-0.47-0.72c-0.21,0.25-0.5,0.46-0.59,0.75c-0.05,0.17,0.2,0.45,0.31,0.65c0.35-0.31,0.57-0.51,0.79-0.71
			c-0.1,0.87-0.82,1.04-1.47,1.29c-0.05-1.11,0.15-2.06,1.36-2.55c0.25-0.1,0.47-0.59,0.49-0.91c0.08-0.88,0.41-1.49,1.23-1.91
			c0.31-0.16,0.44-0.66,0.63-1.02c0.29-0.55,0.42-1.38,0.86-1.6c0.93-0.46,1.12-1.19,1.29-2.02c0.12,0.25,0.24,0.5,0.45,0.95
			c0.36-0.56,0.59-0.9,0.81-1.24c-0.06-0.1-0.12-0.21-0.18-0.31c-0.3,0.13-0.61,0.25-0.91,0.38c0.31-0.33,0.66-0.63,0.93-0.99
			c0.21-0.27,0.3-0.62,0.48-0.92c0.37-0.62,0.75-1.23,1.15-1.83c0.24-0.37,0.53-0.7,0.75-1.07c0.34-0.57,0.65-1.17,0.96-1.76
			c-0.21,0.35-0.44,0.69-0.59,1.06c-0.06,0.13,0.02,0.47,0.1,0.49c0.18,0.04,0.44,0.02,0.58-0.09c0.65-0.51,0.16-0.98-0.09-1.45
			c0.62-0.19,0.83-0.6,0.94-1.25c0.09-0.58,0.41-1.31,0.86-1.59c0.65-0.4,1.04-0.75,0.97-1.55c-0.02-0.17,0.23-0.36,0.36-0.55
			c0.1,0.27,0.19,0.53,0.29,0.8c0.31-0.29,0.62-0.57,0.91-0.84c-0.63-0.89-0.88-0.17-1.22,0.07c0.88-0.99,1.65-2.04,2.05-3.34
			c0.04-0.12,0.27-0.17,0.42-0.25c-0.18,0.49-1.12,0.91-0.13,1.64c0.25-0.61,1.29-1.04,0.08-1.61c0.55-0.47,1.14-0.89,1-1.79
			c-0.03-0.22,0.29-0.49,0.45-0.74c0.05,0.34,0.1,0.68,0.15,1.02c0.31-0.27,0.63-0.54,0.94-0.81c-0.05-0.12-0.1-0.24-0.15-0.36
			c-0.31,0.04-0.63,0.08-0.94,0.11c0.26-0.24,0.57-0.44,0.78-0.72c0.24-0.32,0.39-0.71,0.6-1.05c0.36-0.59,0.72-1.18,1.1-1.76
			c0.25-0.39,0.53-0.75,0.76-1.15c0.18-0.3,0.3-0.63,0.44-0.95c0.02,0.27,0.04,0.53,0.06,0.8c0.26-0.03,0.51-0.06,0.77-0.08
			c0,0-0.02-0.03-0.02-0.03c-1.05,0.71-1.36,1.85-1.77,2.94c-0.1,0.26-0.54,0.38-0.74,0.63c-0.28,0.34-0.62,0.71-0.69,1.11
			c-0.15,0.82-0.43,1.43-1.22,1.83c-0.31,0.16-0.57,0.65-0.63,1.02c-0.13,0.87-0.44,1.49-1.28,1.88c-0.29,0.13-0.54,0.61-0.57,0.95
			c-0.08,0.89-0.45,1.49-1.24,1.92c-0.29,0.16-0.45,0.6-0.62,0.93c-0.28,0.54-0.53,1.11-0.79,1.66c-0.13-0.49,1.04-1.07-0.14-1.54
			c-0.22,0.36-0.43,0.69-0.7,1.13c0.35,0.15,0.61,0.27,0.87,0.39c-0.7,0.38-1.19,0.8-1.19,1.77c0,0.48-0.72,0.95-1.1,1.44
			c-0.25,0.32-0.64,0.64-0.67,0.98c-0.06,0.89-0.45,1.46-1.2,1.92c-0.34,0.21-0.63,0.69-0.7,1.08c-0.14,0.82-0.41,1.42-1.21,1.81
			c-0.31,0.15-0.46,0.66-0.66,1.01c-0.29,0.53-0.57,1.07-0.85,1.61c0.2-0.41,0.41-0.82,0.63-1.27c-1.03-0.54-1,0.35-1.36,0.84
			c0.3,0.16,0.53,0.28,0.76,0.41c-0.62,0.41-1.16,0.82-1.09,1.74c0.02,0.35-0.49,0.74-0.76,1.12c0.17-0.36,0.35-0.72,0.56-1.16
			c-0.97-0.51-1.02,0.25-1.31,0.83C130.55,76.95,130.79,77.05,131.04,77.14z M147.5,49.6c-0.07,0.45-0.14,0.88-0.21,1.3
			c0.21-0.07,0.5-0.07,0.63-0.21C148.26,50.32,148.53,49.89,147.5,49.6z M137.25,67.53c-0.27-0.21-0.55-0.47-0.58-0.45
			c-0.26,0.23-0.51,0.48-0.68,0.78c-0.04,0.08,0.21,0.32,0.33,0.49C136.6,68.1,136.88,67.85,137.25,67.53z M57.63,61.02
			c0.29,0.5,0.56,1.01,0.87,1.5c0.28,0.44,0.59,0.85,0.9,1.28c-0.1,0.17-0.31,0.34-0.3,0.5c0.03,0.35,0.14,0.71,0.29,1.03
			c0.03,0.07,0.33,0.02,0.51,0.03c-0.04-0.29-0.04-0.6-0.12-0.87c-0.08-0.25-0.26-0.47-0.39-0.71c0.32,0.62,0.63,1.25,0.97,1.85
			c0.19,0.33,0.36,0.76,0.66,0.92c0.79,0.42,1.16,1.01,1.26,1.89c0.04,0.36,0.33,0.81,0.64,1c0.75,0.46,1.18,1.02,1.22,1.92
			c0.01,0.3,0.18,0.76,0.4,0.85c1.21,0.53,1.54,1.49,1.48,2.69c0,0,0.03-0.02,0.03-0.02c-0.33-0.19-0.67-0.38-1-0.57
			c0.24-0.15,0.48-0.3,0.81-0.5c-0.49-0.38-0.46-1.49-1.41-0.66c0.22,0.42,0.42,0.8,0.63,1.19c-0.29-0.5-0.56-1.01-0.87-1.5
			c-0.28-0.44-0.6-0.85-0.9-1.28c0.18-0.22,0.37-0.44,0.6-0.71c-0.22-0.33-0.44-0.66-0.66-0.98c-0.11,0.01-0.21,0.01-0.32,0.02
			c-0.03,0.27-0.15,0.56-0.08,0.81c0.09,0.31,0.31,0.59,0.48,0.88c-0.32-0.56-0.62-1.13-0.95-1.68c-0.24-0.39-0.54-0.75-0.79-1.14
			c-0.38-0.59-0.73-1.19-1.1-1.79c-0.23-0.36-0.47-0.72-0.7-1.08c-0.39-0.62-0.78-1.24-1.17-1.85c-0.24-0.37-0.49-0.72-0.73-1.09
			c-0.38-0.58-0.75-1.17-1.12-1.76c-0.23-0.37-0.47-0.73-0.71-1.1c-0.38-0.59-0.77-1.17-1.16-1.75c-0.25-0.38-0.48-0.79-0.76-1.15
			c-0.18-0.23-0.55-0.35-0.64-0.59c-0.42-1.12-0.77-2.27-1.86-2.96c-0.02-0.01-0.01-0.06-0.01-0.1l-0.02,0.02
			c0.55,0.36,1.08,0.66,1.04-0.42l-0.02,0.03c0.1,1.32,1.3,1.87,1.96,2.8c0.16,0.22,0.1,0.58,0.22,0.84
			c0.19,0.38,0.44,0.74,0.7,1.08c0.26,0.35,0.55,0.69,0.83,1.03c-0.35-0.3-0.65-0.98-1.24-0.02c0.32,0.26,0.64,0.52,0.97,0.78
			c0.08-0.26,0.17-0.53,0.25-0.79c0.12,0.18,0.37,0.38,0.35,0.54c-0.13,0.86,0.4,1.27,1.04,1.62c-0.22,0.18-0.45,0.36-0.72,0.59
			c0.28,0.38,0.5,0.7,0.73,1.02c0.09,0,0.19,0,0.28,0c0.05-0.25,0.19-0.52,0.13-0.74C58,61.59,57.78,61.31,57.63,61.02z M53.1,56.01
			c0.45,0.27,0.81,0.49,1.17,0.7c0.02-0.22,0.14-0.49,0.06-0.66C54.12,55.62,53.85,55.18,53.1,56.01z M62.26,67.77
			c-0.41-0.28-0.72-0.51-1.06-0.68c-0.05-0.02-0.41,0.39-0.38,0.42c0.21,0.3,0.48,0.56,0.75,0.81
			C61.59,68.34,61.83,68.11,62.26,67.77z M71.09,81.82c0.27,1.38,1.34,2.2,2.16,3.21c0.13,0.16,0.07,0.46,0.18,0.66
			c0.21,0.41,0.37,0.92,0.72,1.15c0.7,0.47,1.09,1.01,1.17,1.86c0.04,0.36,0.38,0.7,0.62,1.03c0.33,0.43,0.69,0.84,1.04,1.25
			c0,0,0.02-0.03,0.02-0.03c-0.26-0.25-0.52-0.49-0.87-0.82c-0.2,0.22-0.4,0.42-0.59,0.63c0,0,0.03-0.01,0.03-0.01
			c-0.17-0.86-0.4-1.67-1.35-2c-0.06-0.02-0.07-0.18-0.11-0.27c0.27-0.01,0.53-0.01,0.8-0.02c-0.14-0.41-0.27-0.82-0.41-1.22
			c-1.14,0.32-0.41,0.85-0.36,1.28c-0.21-0.36-0.58-0.71-0.6-1.07c-0.03-0.66-0.34-0.96-0.83-1.35c-0.49-0.4-0.72-1.11-1.08-1.68
			c-0.24-0.39-0.5-0.77-0.75-1.15c-0.38-0.58-0.75-1.17-1.13-1.75c-0.25-0.38-0.49-0.77-0.74-1.15c0.35-0.64,0.52-1.26-0.55-1.83
			c-0.03,0.39-0.14,0.7-0.05,0.93c0.13,0.33,0.4,0.61,0.6,0.9c-0.14-0.08-0.35-0.13-0.42-0.26c-0.73-1.22-1.15-2.63-2.25-3.62
			c0.37,0.19,0.59,1.1,1.22,0.19c-0.23-0.33-0.46-0.67-0.88-1.27c-0.16,0.56-0.24,0.84-0.32,1.12c-0.12-0.53-0.25-1.06-0.37-1.6
			c0,0-0.03,0.02-0.03,0.02c1.11,0.49,1.91,1.18,1.89,2.55c0,0.23,0.41,0.47,0.62,0.72c0.39,0.47,1,0.9,1.1,1.43
			c0.15,0.75,0.27,1.34,1.08,1.62c0.2,0.07,0.3,0.42,0.44,0.64c-0.29-0.08-0.57-0.16-0.86-0.23c0,0.24-0.09,0.54,0.02,0.69
			c0.16,0.22,0.47,0.33,0.72,0.48C71.04,82.47,71.06,82.14,71.09,81.82z M71.81,84.77c0.32,0.36,0.58,0.68,0.88,0.96
			c0.03,0.02,0.38-0.2,0.37-0.25c-0.12-0.39-0.29-0.76-0.48-1.21C72.28,84.47,72.1,84.59,71.81,84.77z M23.97,76.25
			c0.3-0.33,0.62-0.64,0.88-0.99c0.23-0.3,0.55-0.63,0.57-0.97c0.07-0.89,0.43-1.48,1.22-1.93c0.31-0.18,0.46-0.66,0.67-1.01
			c0.35-0.6,0.57-1.35,1.07-1.78c0.47-0.4,0.86-0.65,0.82-1.34c-0.02-0.26,0.28-0.54,0.43-0.82c0,0-0.02-0.03-0.02-0.03
			c-0.09,0.55-0.4,1.28,0.7,0.87c-0.66,0.62-1.47,1.11-1.33,2.24c0.03,0.23-0.38,0.5-0.58,0.76c0.13-0.33,0.26-0.66,0.46-1.17
			c-0.35,0.02-0.7-0.07-0.82,0.06c-0.21,0.22-0.27,0.57-0.4,0.87c0.26,0.07,0.53,0.14,0.79,0.2c-0.83,0.54-0.99,1.5-1.46,2.23
			c-0.73,1.15-1.63,2.23-2.24,3.48l0.02,0.02c0.01-0.38,0.02-0.76,0.03-1.14C24.52,75.95,24.25,76.1,23.97,76.25z M27.13,73.33
			c-0.75-0.84-1.02-0.38-1.21,0.07c-0.08,0.19,0.04,0.46,0.06,0.69C26.34,73.85,26.71,73.61,27.13,73.33z M163.14,60.21
			c-0.03-1.11-0.33-2.01-1.49-2.46c-0.22-0.08-0.42-0.55-0.42-0.84c0.01-0.92-0.46-1.46-1.18-1.92c-0.3-0.19-0.53-0.56-0.7-0.89
			c-0.2-0.39-0.29-0.83-0.43-1.25c-0.08,0.34-0.15,0.67-0.23,1.01c-0.3-0.26-0.59-0.52-0.89-0.78c0.05-0.12,0.09-0.24,0.14-0.36
			c0.33,0.04,0.65,0.08,0.98,0.12c-0.42-0.31-0.85-0.61-1.27-0.92c-0.23,1.13,0.15,1.93,1.2,2.47c0.29,0.15,0.44,0.61,0.61,0.94
			c0.23,0.45,0.43,0.91,0.65,1.37c-0.07-0.15-0.19-0.31-0.19-0.46c-0.01-0.22,0.06-0.45,0.1-0.68c0.21,0.1,0.46,0.15,0.63,0.3
			c0.14,0.12,0.2,0.34,0.42,0.74c-0.4,0.05-0.69,0.09-0.98,0.13c0.41,0.51,0.86,1,1.22,1.55c0.26,0.39,0.42,0.85,0.62,1.28
			c-0.12-0.42-0.69-0.9,0.34-1.26c0.14,0.39,0.29,0.79,0.43,1.19c-0.26,0.03-0.52,0.06-0.79,0.09c0.45,0.3,0.9,0.61,1.35,0.91
			C163.22,60.39,163.14,60.3,163.14,60.21z M168.28,68.11c-0.03-1.11-0.33-2.01-1.49-2.46c-0.22-0.08-0.42-0.55-0.42-0.84
			c0.01-0.92-0.46-1.46-1.18-1.92c-0.3-0.19-0.53-0.56-0.7-0.89c-0.2-0.39-0.29-0.83-0.43-1.25c-0.08,0.34-0.15,0.67-0.23,1.01
			c-0.3-0.26-0.59-0.52-0.89-0.78c0.05-0.12,0.09-0.24,0.14-0.36c0.33,0.04,0.65,0.08,0.98,0.12c-0.42-0.31-0.85-0.61-1.27-0.92
			c-0.23,1.13,0.15,1.93,1.2,2.47c0.29,0.15,0.44,0.61,0.61,0.94c0.23,0.45,0.43,0.91,0.65,1.37c-0.07-0.15-0.19-0.31-0.19-0.46
			c-0.01-0.22,0.06-0.45,0.1-0.68c0.21,0.1,0.46,0.15,0.63,0.3c0.14,0.12,0.2,0.34,0.42,0.74c-0.4,0.05-0.69,0.09-0.98,0.13
			c0.41,0.51,0.86,1,1.22,1.55c0.26,0.39,0.42,0.85,0.62,1.28c-0.12-0.42-0.69-0.9,0.34-1.26c0.14,0.39,0.29,0.79,0.43,1.19
			c-0.26,0.03-0.52,0.06-0.79,0.09c0.45,0.3,0.9,0.61,1.35,0.91C168.36,68.29,168.29,68.2,168.28,68.11z M126.38,83.41
			c-0.15,0.64-0.1,1.45-0.48,1.87c-0.82,0.92-1.73,1.71-1.9,3.03c-0.02,0.17-0.2,0.42-0.35,0.47c-0.99,0.3-1.18,1.12-1.36,1.97
			c0,0,0.03,0.01,0.03,0.01c-0.36-0.81-0.78-0.69-1.22-0.06c0.3-0.33,0.62-0.65,0.89-1c0.23-0.3,0.55-0.63,0.57-0.96
			c0.05-0.89,0.44-1.48,1.21-1.91c0.29-0.16,0.67-0.53,0.66-0.79c-0.04-1.19,0.56-1.86,1.57-2.31
			C126.14,83.67,126.25,83.52,126.38,83.41z M123.24,87.2c-0.05,0.51-0.1,0.94-0.15,1.36c0.24-0.11,0.54-0.16,0.7-0.34
			C124.16,87.83,124.18,87.45,123.24,87.2z M126.07,84.89c-0.62-0.72-0.95-0.43-1.14,0.07c-0.08,0.21,0.05,0.49,0.08,0.74
			C125.36,85.44,125.71,85.17,126.07,84.89z M179.1,85.85c-0.56-0.47-1.18-0.86-1.05-1.79c0.03-0.23-0.44-0.52-0.64-0.81
			c-0.41-0.6-0.8-1.21-1.18-1.82c-0.22-0.34-0.39-0.72-0.64-1.04c-0.25-0.33-0.56-0.61-0.84-0.91c0.29,0.13,0.58,0.26,0.88,0.38
			c0.04-0.26,0.07-0.53,0.11-0.79c0.13,0.3,0.22,0.61,0.38,0.89c0.22,0.38,0.48,0.73,0.72,1.09c0.38,0.58,0.77,1.15,1.14,1.74
			c0.21,0.35,0.34,0.75,0.57,1.08c0.36,0.51,0.78,0.99,1.18,1.48c-0.26-0.34-0.52-0.68-0.8-1.05
			C178.02,85.03,178.72,85.42,179.1,85.85z M177.92,82.32c-0.43-0.27-0.79-0.5-1.15-0.72c-0.03,0.22-0.16,0.49-0.07,0.65
			C176.9,82.63,177.14,83.19,177.92,82.32z M171.36,72.7c0.2,0.18,0.31,0.24,0.33,0.32c0.09,0.34,0.15,0.69,0.22,1.03
			c-0.28-0.15-0.57-0.3-0.85-0.45c-0.09-0.05-0.16-0.12-0.24-0.19c0.36,0.4,0.73,0.79,1.07,1.2c0.24,0.29,0.45,0.61,0.62,0.94
			c0.19,0.37,0.33,0.76,0.49,1.15c0.01-0.29,0.02-0.59,0.04-0.88c0.23,0.03,0.46,0.06,0.69,0.09c0,0-0.03,0.02-0.03,0.02
			c-0.04-0.12-0.05-0.32-0.13-0.36c-0.8-0.36-1.32-0.85-1.19-1.83c0.03-0.19-0.15-0.47-0.32-0.61c-0.88-0.72-1.7-1.46-1.78-2.71
			c0-0.06-0.15-0.11-0.24-0.17l0.02-0.03c-0.01,0.33-0.03,0.65-0.04,0.98c-0.25-0.09-0.49-0.18-0.74-0.27
			c0.62,0.78,1.52,1.38,1.57,2.52C171.01,73.2,171.18,72.97,171.36,72.7z M33.5,61.38c0.21-0.2,0.45-0.38,0.64-0.59
			c0.23-0.26,0.62-0.56,0.61-0.84c-0.02-1.29,0.67-1.95,1.8-2.31c0,0-0.02-0.03-0.02-0.03c-0.05,0.49,0.08,1.13-0.18,1.43
			c-0.9,1.02-1.78,2.03-2.23,3.34c0.05-0.33,0.09-0.65,0.14-0.98C34.01,61.4,33.76,61.39,33.5,61.38z M36.42,58.86
			c-0.62-0.72-0.96-0.46-1.16,0.05c-0.08,0.2,0.05,0.49,0.08,0.74C35.69,59.39,36.05,59.13,36.42,58.86z M157.08,49.98
			c-0.05,0.32-0.11,0.64-0.16,0.96c-0.24-0.17-0.53-0.3-0.71-0.52c-0.1-0.12-0.01-0.39,0-0.59
			C156.5,49.88,156.79,49.93,157.08,49.98c-0.83-0.77-1.64-1.55-1.73-2.79c-0.01-0.12-0.23-0.22-0.35-0.34c0,0,0.03-0.02,0.03-0.02
			c0.05,0.15,0.12,0.3,0.14,0.46c0.02,0.22-0.02,0.45-0.03,0.67c-0.25-0.03-0.49-0.06-0.74-0.09c0,0,0.02-0.03,0.02-0.03
			c0.11,0.19,0.19,0.5,0.35,0.56c0.7,0.25,0.94,0.65,0.98,1.43c0.02,0.5,0.56,1.02,0.94,1.46c0.25,0.29,0.65,0.44,0.99,0.66
			C157.48,51.3,157.28,50.64,157.08,49.98z M50.37,49.69c0.04,0.13,0.09,0.25,0.12,0.38c0.05,0.27,0.08,0.53,0.12,0.8
			c-0.29-0.05-0.58-0.1-0.87-0.14c0,0,0.02-0.02,0.02-0.02c1,0.7,1.33,1.83,1.83,2.84c0,0-0.02,0.02-0.02,0.02
			c0.04-0.35,0.08-0.7,0.14-1.28c0.48,0.46,0.69,0.66,0.9,0.86c0,0-0.02,0.03-0.02,0.03c-0.99-1-1.5-2.31-2.24-3.47L50.37,49.69z
			 M181.86,89.55c-0.28-0.17-0.56-0.34-0.84-0.51c-0.92-0.58-1.23-1.42-1.01-2.47C181.49,87.03,181.8,88.21,181.86,89.55z
			 M181.01,87.22c-0.93,0.26-0.8,0.67-0.42,1.06c0.15,0.15,0.46,0.16,0.69,0.23C181.19,88.09,181.1,87.66,181.01,87.22z
			 M126.75,81.85c0.33-0.07,0.66-0.13,0.98-0.2c0.04,0.1,0.07,0.2,0.11,0.3c-0.22,0.32-0.44,0.65-0.66,0.97
			c-0.12-0.01-0.24-0.02-0.36-0.03c-0.02-0.36-0.03-0.72-0.05-1.07c-0.14,0.55-0.28,1.09-0.43,1.64c1-0.2,1.56-0.83,1.76-1.8
			c0.07-0.35,0.07-0.72,0.1-1.08C127.72,81,127.23,81.42,126.75,81.85z M36.53,57.62c0.49-0.43,0.98-0.85,1.48-1.28
			c-0.27,0.12-0.55,0.24-0.82,0.37c-0.03-0.23-0.15-0.53-0.05-0.67c0.16-0.22,0.47-0.34,0.71-0.5c0.04,0.28,0.09,0.56,0.13,0.84
			c0.13-0.53,0.26-1.07,0.38-1.6c0,0,0.03,0.02,0.03,0.02c-0.78,0.2-1.39,0.65-1.65,1.41c-0.15,0.45-0.13,0.96-0.18,1.44
			L36.53,57.62z M29.62,67.37c0.26-0.06,0.52-0.12,0.79-0.18c-0.01,0.32-0.02,0.65-0.03,0.97c0.19-0.47,0.35-0.94,0.57-1.39
			c0.15-0.31,0.38-0.59,0.61-0.85c0.21-0.24,0.46-0.45,0.7-0.67c-0.26,0.02-0.53,0.03-0.79,0.05c0.03-0.23,0.03-0.47,0.1-0.69
			c0.07-0.25,0.19-0.48,0.29-0.71c0,0,0.01,0.03,0.01,0.03c-1.01,0.98-0.87,2.7-2.23,3.46L29.62,67.37z M18.24,85.05
			c0.2-0.25,0.4-0.5,0.6-0.75c0.13,0.03,0.25,0.06,0.38,0.09c0.02,0.36,0.04,0.73,0.06,1.09c0,0-0.02-0.02-0.02-0.02
			c0.08-0.06,0.22-0.12,0.22-0.18c0.09-1.16,0.81-1.93,1.61-2.66c0,0,0.02,0.02,0.02,0.02c-0.27,0.03-0.53,0.06-0.8,0.09
			c-0.01-0.27-0.02-0.54-0.03-0.81c-0.39,1.02-0.76,2.05-1.81,2.62c-0.13,0.07-0.14,0.35-0.2,0.54
			C18.26,85.08,18.24,85.05,18.24,85.05z M169.33,70.08c0.25,0.05,0.5,0.09,0.74,0.14c0,0-0.02,0.03-0.02,0.03
			c-0.23-0.26-0.45-0.52-0.68-0.78c-0.22-0.24-0.66-0.5-0.63-0.69c0.13-0.83-0.38-1.3-0.84-1.82c0.11,0.16,0.28,0.31,0.3,0.48
			c0.03,0.28-0.04,0.57-0.06,0.85c-0.27-0.15-0.54-0.3-0.81-0.45c0.32,0.34,0.67,0.67,0.96,1.05c0.21,0.27,0.36,0.6,0.51,0.91
			c0.18,0.36,0.33,0.74,0.49,1.11C169.3,70.64,169.31,70.36,169.33,70.08z M21.12,81.64c0,0.33,0,0.66-0.01,0.99
			c0,0-0.02-0.02-0.02-0.02c0.08-0.06,0.22-0.11,0.23-0.18c0.14-1.27,1.06-2.05,1.8-2.95c-0.46,0.47-0.89,0.7-1.22-0.12
			c0,0,0.02,0.03,0.02,0.03c-0.17,0.85-0.4,1.65-1.34,1.99c-0.14,0.05-0.19,0.34-0.28,0.52C20.57,81.82,20.84,81.73,21.12,81.64z
			 M21.9,79.36c0.12-0.11,0.23-0.25,0.37-0.33c0.2-0.13,0.42-0.22,0.64-0.32c0.08,0.25,0.16,0.5,0.24,0.75
			c0.12-0.24,0.34-0.48,0.34-0.71c-0.03-0.76,0.32-1.18,0.99-1.44c0.12-0.05,0.19-0.25,0.28-0.39c0,0,0.02,0.02,0.02,0.02
			c-0.61,0.19-1.07,0.2-0.8-0.67c-0.13,0.33-0.22,0.67-0.39,0.98c-0.18,0.32-0.42,0.61-0.65,0.91c-0.33,0.42-0.67,0.82-1.01,1.24
			L21.9,79.36z M174.93,78.73c0.28,0.11,0.55,0.22,0.83,0.32c-0.65-0.92-1.78-1.56-1.75-2.9c0-0.08-0.2-0.16-0.3-0.23
			c0,0,0.03-0.02,0.03-0.02c0.04,0.34,0.08,0.67,0.11,1.01c-0.26-0.04-0.51-0.09-0.77-0.14c0.44,0.58,0.9,1.14,1.31,1.74
			c0.19,0.28,0.25,0.64,0.36,0.96C174.8,79.23,174.86,78.98,174.93,78.73z M31.86,63.91c0.63,0.3,0.82,0.73,0.41,1.34
			c0.18-0.4,0.34-0.81,0.54-1.21c0.17-0.34,0.35-0.68,0.58-0.97c0.2-0.25,0.47-0.44,0.71-0.66c-0.26-0.01-0.52-0.01-0.78-0.02
			c0.06-0.34,0.12-0.67,0.18-1.01c-0.19,0.31-0.56,0.63-0.54,0.92c0.06,0.87-0.43,1.29-1.08,1.63L31.86,63.91z M102.32,143.26
			c0.32-0.24,0.62-0.47,0.92-0.7c-0.01-0.1-0.03-0.2-0.04-0.3c-0.54-0.04-1.07-0.11-1.61-0.11c-2.09-0.02-4.18-0.02-6.27-0.01
			c-0.24,0-0.48,0.12-0.72,0.18c0.17,0.21,0.32,0.44,0.51,0.63c0.11,0.11,0.27,0.17,0.5,0.29c-0.36,0.44-0.68,0.82-0.98,1.22
			c-0.54,0.72-1.06,1.45-1.59,2.18c2.19-0.09,4.38-0.25,6.57-0.25c1.75-0.01,3.5,0.17,5.25,0.26
			C104,145.53,103.17,144.41,102.32,143.26z M103.1,138.6c0-0.65,0-1.16,0-1.73c-2.79,0-5.66,0-8.37,0c0,0.6,0,1.05,0,1.71
			C97.5,138.86,100.37,138.62,103.1,138.6z M103.09,141.3c0-0.6,0-1.14,0-1.76c-2.75,0-5.64,0-8.37,0c0,0.6,0,1.07,0,1.76
			C97.46,141.3,100.35,141.3,103.09,141.3z"/>
	</g>
</g>
<g id="Layer_6">
</g>
<g id="Layer_7">
</g>
<g id="Layer_8">
</g>
<g id="Layer_9">
</g>
<g id="Layer_10">
</g>
<g id="Layer_11">
</g>
<g id="Layer_12">
</g>
<g id="Layer_13">
</g>
<g id="Layer_14">
</g>
<g id="Layer_15">
</g>
</svg>
