<?xml version="1.0" encoding="utf-8"?>
<!-- Generator: Adobe Illustrator 27.8.1, SVG Export Plug-In . SVG Version: 6.00 Build 0)  -->
<svg version="1.1" xmlns="http://www.w3.org/2000/svg" xmlns:xlink="http://www.w3.org/1999/xlink" x="0px" y="0px"
	 viewBox="0 0 350 230" style="enable-background:new 0 0 350 230;" xml:space="preserve">
<style type="text/css">
	.st0{fill:#003F49;}
	.st1{fill:#8E032B;}
	.st2{fill:#87622B;}
	.st3{fill:#83014C;}
	.st4{fill:#B72204;}
	.st5{fill:#015254;}
	.st6{fill:#5B9C40;}
	.st7{fill:#0055B6;}
	.st8{fill-rule:evenodd;clip-rule:evenodd;fill:#3A1D03;}
	.st9{fill-rule:evenodd;clip-rule:evenodd;fill:#723600;}
	.st10{fill:#00438D;}
	.st11{fill:#162E50;}
	.st12{fill:#F6921E;}
	.st13{fill:#00237A;}
	.st14{fill:#563B00;}
	.st15{fill:#00FFB6;}
	.st16{fill:#9500FF;}
	.st17{fill:#440000;}
	.st18{fill:#45EDFF;}
	.st19{fill:#CC7F7F;}
</style>
<g id="Layer_1">
</g>
<g id="Layer_2">
</g>
<g id="Layer_3">
</g>
<g id="Layer_4">
</g>
<g id="Layer_5">
</g>
<g id="Layer_6">
	<g>
		<path class="st8" d="M93.14,111.05H53.5v7.9h19.76v47.41H61.4v7.9h19.76v-55.32h11.98L93.14,111.05L93.14,111.05z M27.75,182.17
			v5.27h59.4v-5.27H27.75z M15.9,189.16v7.9H99v-7.9H15.9z M27.75,198.79v5.27h59.4v-5.27H27.75z M27.75,25.94v5.27h59.4v-5.27
			H27.75z M15.9,32.94v7.9H99v-7.9H15.9z M27.75,42.56v5.27h59.4v-5.27H27.75z M41.64,166.36H53.5v7.9c-6.58,0-13.17,0-19.75,0
			V55.73c9.22,0,18.44,0,27.66,0v7.9H41.64V166.36z"/>
		<path class="st3" d="M85.36,72.82c-0.3,1.47-0.55,2.84-0.87,4.19c-1.45,6.17-4.48,11.43-9.19,15.7c-0.38,0.34-0.83,0.66-1.31,0.83
			c-3.47,1.25-6.72,2.94-9.89,4.9c0.73-2.46,1.32-4.93,2.2-7.28c2.06-5.51,5.52-10.03,10.2-13.6c2.27-1.73,4.76-3.08,7.38-4.21
			C84.3,73.17,84.74,73.04,85.36,72.82z M58.21,103.19c2.7-2.38,4.33-5.38,5.31-8.77c1.23-4.26,1.33-8.6,0.61-12.96
			c-0.23-1.38-0.4-2.78-0.61-4.25c-0.21,0.21-0.36,0.33-0.48,0.46c-5.63,6.29-8.87,13.53-8.83,22.08c0.01,2.4,0.11,4.79,0.16,7.3
			C55.71,105.7,56.89,104.36,58.21,103.19z M97.88,90.77c-0.57,0.19-1.27,0.03-1.91-0.05c-4.46-0.52-8.91-0.42-13.34,0.35
			c-1.07,0.19-2.12,0.44-3.39,0.7c0.75-0.95,1.35-1.81,2.05-2.59c2.85-3.16,6.34-5.34,10.43-6.5c4.29-1.21,8.62-1.14,12.94-0.15
			c1.5,0.35,2.97,0.85,4.45,1.29c0.22,0.06,0.42,0.17,0.69,0.28c-2.58,1.97-5.19,3.75-8.08,5.08c0-0.01,0-0.01,0.01-0.02l0,0l0,0
			c0,0,0,0,0,0C100.46,89.72,99.2,90.34,97.88,90.77z M47.11,117.8c1.37-2.54,2.86-5,4.65-7.28c0.2-0.25,0.33-0.6,0.36-0.91
			c0.31-2.92,0.28-5.82-0.21-8.73c-0.55-3.27-1.73-6.32-3.1-9.3c-0.46-1-1-1.96-1.5-2.94c-0.07,0.01-0.13,0.03-0.2,0.04
			c-3.54,9.77-4.65,19.57-0.32,29.57C46.93,118.06,47.03,117.94,47.11,117.8z"/>
	</g>
</g>
<g id="Layer_7">
</g>
<g id="Layer_8">
</g>
<g id="Layer_9">
</g>
<g id="Layer_10">
</g>
<g id="Layer_11">
</g>
<g id="Layer_12">
</g>
<g id="Layer_13">
</g>
<g id="Layer_14">
</g>
<g id="Layer_15">
</g>
</svg>
