<?xml version="1.0" encoding="utf-8"?>
<!-- Generator: Adobe Illustrator 27.8.1, SVG Export Plug-In . SVG Version: 6.00 Build 0)  -->
<svg version="1.1" xmlns="http://www.w3.org/2000/svg" xmlns:xlink="http://www.w3.org/1999/xlink" x="0px" y="0px"
	 viewBox="0 0 350 230" style="enable-background:new 0 0 350 230;" xml:space="preserve">
<style type="text/css">
	.st0{fill:#003F49;}
	.st1{fill:#8E032B;}
	.st2{fill:#87622B;}
	.st3{fill:#83014C;}
	.st4{fill:#B72204;}
	.st5{fill:#015254;}
	.st6{fill:#5B9C40;}
	.st7{fill:#0055B6;}
	.st8{fill-rule:evenodd;clip-rule:evenodd;fill:#3A1D03;}
	.st9{fill-rule:evenodd;clip-rule:evenodd;fill:#723600;}
	.st10{fill:#00438D;}
	.st11{fill:#162E50;}
	.st12{fill:#F6921E;}
	.st13{fill:#00237A;}
	.st14{fill:#563B00;}
	.st15{fill:#00FFB6;}
	.st16{fill:#9500FF;}
	.st17{fill:#440000;}
	.st18{fill:#45EDFF;}
	.st19{fill:#CC7F7F;}
</style>
<g id="Layer_1">
</g>
<g id="Layer_2">
</g>
<g id="Layer_3">
</g>
<g id="Layer_4">
</g>
<g id="Layer_5">
</g>
<g id="Layer_6">
</g>
<g id="Layer_7">
	<path class="st9" d="M142.92,168.18c10.91,2.56,23.79-4.88,27.03-15.6C159.04,150.02,146.16,157.46,142.92,168.18z M154.35,125.54
		c-2.56,10.91,4.88,23.79,15.6,27.04C172.51,141.67,165.07,128.79,154.35,125.54z M127.81,159c8.82,3.45,20.47-1.2,24.48-9.78
		C143.47,145.77,131.82,150.42,127.81,159z M142.51,124.75c-3.45,8.81,1.2,20.46,9.78,24.47
		C155.74,140.41,151.09,128.76,142.51,124.75z M113,144.34c6.96,5.18,18.38,3.88,24-2.74C130.04,136.42,118.62,137.72,113,144.34z
		 M134.26,117.61c-5.18,6.96-3.88,18.38,2.74,23.99C142.18,134.64,140.88,123.22,134.26,117.61z M103.37,131.28
		c5.43,5.79,16,6.47,22.12,1.42C120.07,126.91,109.5,126.23,103.37,131.28z M126.91,110.58c-5.79,5.43-6.46,16-1.42,22.12
		C131.28,127.27,131.96,116.7,126.91,110.58z M97.17,117.9c4.04,6.15,13.51,8.41,19.89,4.77
		C113.02,116.53,103.55,114.26,97.17,117.9z M121.83,102.78c-6.14,4.04-8.41,13.51-4.77,19.89
		C123.2,118.63,125.47,109.16,121.83,102.78z M93.08,104.3c2.92,6.21,11.38,9.55,17.76,7.02C107.91,105.12,99.45,101.78,93.08,104.3
		z M117.86,93.56c-6.2,2.93-9.55,11.38-7.02,17.76C117.05,108.39,120.39,99.94,117.86,93.56z M91.06,89.98
		c1.81,6.25,9.29,10.68,15.64,9.27C104.89,93,97.42,88.57,91.06,89.98z M115.97,83.61c-6.25,1.81-10.68,9.28-9.27,15.64
		C112.95,97.44,117.38,89.97,115.97,83.61z M91.23,75.3c0.71,6.34,7.14,11.83,13.51,11.53C104.03,80.49,97.6,75,91.23,75.3z
		 M104.74,86.83c6.34-0.71,11.83-7.15,11.53-13.51C109.93,74.02,104.44,80.46,104.74,86.83z M93.59,60.67
		c-0.4,6.39,5.04,12.97,11.39,13.78C105.38,68.06,99.94,61.48,93.59,60.67z M104.98,74.45c6.38,0.4,12.97-5.04,13.78-11.38
		C112.37,62.66,105.79,68.1,104.98,74.45z M98.12,46.46c-1.51,6.48,2.89,14.11,9.25,16.04C108.89,56.03,104.48,48.39,98.12,46.46z
		 M107.37,62.5c6.47,1.51,14.11-2.9,16.04-9.26C116.94,51.73,109.3,56.14,107.37,62.5z M236.12,38.23
		c-3.15,5.88-0.86,14.42,4.81,17.94C244.08,50.29,241.79,41.75,236.12,38.23z M195.66,125.54c-10.73,3.25-18.17,16.13-15.61,27.04
		C190.77,149.33,198.21,136.45,195.66,125.54z M180.05,152.58c3.24,10.72,16.12,18.16,27.03,15.6
		C203.84,157.46,190.96,150.02,180.05,152.58z M207.49,124.75c-8.58,4.01-13.23,15.66-9.77,24.47
		C206.29,145.21,210.94,133.56,207.49,124.75z M197.72,149.22c4.01,8.58,15.65,13.23,24.47,9.78
		C218.18,150.42,206.53,145.77,197.72,149.22z M215.74,117.61c-6.62,5.61-7.92,17.03-2.74,23.99
		C219.62,135.99,220.92,124.57,215.74,117.61z M213,141.6c5.62,6.62,17.04,7.92,24,2.74C231.38,137.72,219.96,136.42,213,141.6z
		 M223.09,110.58c-5.05,6.12-4.37,16.69,1.42,22.12C229.56,126.58,228.88,116.01,223.09,110.58z M224.51,132.7
		c6.12,5.05,16.69,4.37,22.12-1.42C240.5,126.23,229.94,126.91,224.51,132.7z M228.17,102.78c-3.64,6.38-1.37,15.85,4.77,19.89
		C236.58,116.29,234.31,106.82,228.17,102.78z M232.94,122.67c6.39,3.64,15.85,1.38,19.89-4.77
		C246.45,114.26,236.98,116.53,232.94,122.67z M232.14,93.56c-2.53,6.38,0.81,14.83,7.02,17.76
		C241.69,104.94,238.35,96.49,232.14,93.56z M239.16,111.32c6.38,2.53,14.84-0.81,17.77-7.02
		C250.55,101.78,242.09,105.12,239.16,111.32z M234.03,83.61c-1.41,6.36,3.02,13.83,9.27,15.64
		C244.71,92.89,240.28,85.42,234.03,83.61z M243.3,99.25c6.36,1.41,13.83-3.02,15.64-9.27C252.58,88.57,245.11,93,243.3,99.25z
		 M233.73,73.32c-0.3,6.36,5.2,12.8,11.53,13.51C245.56,80.46,240.07,74.02,233.73,73.32z M245.26,86.83
		c6.37,0.3,12.8-5.19,13.51-11.53C252.4,75,245.97,80.49,245.26,86.83z M231.24,63.07c0.81,6.34,7.4,11.78,13.78,11.38
		C244.21,68.1,237.63,62.66,231.24,63.07z M256.41,60.67c-6.35,0.81-11.79,7.39-11.39,13.78C251.37,73.64,256.81,67.06,256.41,60.67
		z M226.59,53.24c1.93,6.36,9.57,10.77,16.04,9.26C240.7,56.14,233.06,51.73,226.59,53.24z M251.88,46.46
		c-6.36,1.93-10.77,9.57-9.25,16.04C248.99,60.57,253.4,52.94,251.88,46.46z M113.88,38.23c-5.67,3.52-7.96,12.06-4.81,17.94
		C114.74,52.65,117.03,44.11,113.88,38.23z M175,21.09c-29,0-52.51,23.51-52.51,52.51c0,29.01,23.51,52.52,52.51,52.52
		s52.51-23.51,52.51-52.52C227.51,44.6,204,21.09,175,21.09z M186.47,115.8h-22.93v-2.03h22.93V115.8z M191.04,113.1h-32.08v-3.05
		h32.08V113.1z M173.48,82.95V79.9h15.3v3.05h-4.63v21.35h-7.62v-3.05h4.57v-18.3H173.48z M176.53,61.59h-7.63v39.66h4.58v3.05
		h-7.63V58.54h10.68V61.59z M186.47,107.35v2.03h-22.93v-2.03H186.47z M206.35,69.08c-1.62,0-3-1.18-3.53-2.84l3.53-13.13
		c-0.84,0.06-1.84-0.09-3.01-0.52c-5.29-1.96-15.37-13.45-26.81-1.68v1.53h14.51v3.05h-32.08v-3.05h14.51l0.01-1.53
		c-11.44-11.77-21.53-0.28-26.82,1.68c-1.17,0.43-2.17,0.58-3.01,0.52l3.53,13.13c-0.53,1.66-1.91,2.84-3.53,2.84s-3-1.18-3.53-2.84
		l3.53-13.13c-2-0.14-3.09-1.43-3.29-2.85c-0.54-3.72,4.38-5.01,5.05-2.63c0.41,1.5-1.63,2.34-2.14,0.98
		c-1.13,0.53-0.99,1.45-0.27,2.02c2.75,2.2,10.84-7.15,19.8-6.83c3.58,0.12,7.93,1.6,10.68,4.43v-3.12
		c-3.12-3.29-1.99-11.55,1.52-13.7c3.52,2.15,4.65,10.41,1.53,13.7v3.12c2.75-2.83,7.09-4.31,10.68-4.43
		c8.95-0.32,17.04,9.03,19.8,6.83c0.71-0.57,0.85-1.49-0.28-2.02c-0.51,1.35-2.55,0.52-2.13-0.98c0.66-2.38,5.58-1.09,5.05,2.63
		c-0.21,1.42-1.3,2.71-3.3,2.85l3.53,13.13C209.35,67.9,207.97,69.08,206.35,69.08z"/>
</g>
<g id="Layer_8">
</g>
<g id="Layer_9">
</g>
<g id="Layer_10">
</g>
<g id="Layer_11">
</g>
<g id="Layer_12">
</g>
<g id="Layer_13">
</g>
<g id="Layer_14">
</g>
<g id="Layer_15">
</g>
</svg>
