<?xml version="1.0" encoding="utf-8"?>
<!-- Generator: Adobe Illustrator 27.8.1, SVG Export Plug-In . SVG Version: 6.00 Build 0)  -->
<svg version="1.1" xmlns="http://www.w3.org/2000/svg" xmlns:xlink="http://www.w3.org/1999/xlink" x="0px" y="0px"
	 viewBox="0 0 350 230" style="enable-background:new 0 0 350 230;" xml:space="preserve">
<style type="text/css">
	.st0{fill:#003F49;}
	.st1{fill:#8E032B;}
	.st2{fill:#87622B;}
	.st3{fill:#83014C;}
	.st4{fill:#B72204;}
	.st5{fill:#015254;}
	.st6{fill:#5B9C40;}
	.st7{fill:#0055B6;}
	.st8{fill-rule:evenodd;clip-rule:evenodd;fill:#3A1D03;}
	.st9{fill-rule:evenodd;clip-rule:evenodd;fill:#723600;}
	.st10{fill:#00438D;}
	.st11{fill:#162E50;}
	.st12{fill:#F6921E;}
	.st13{fill:#00237A;}
	.st14{fill:#563B00;}
	.st15{fill:#00FFB6;}
	.st16{fill:#9500FF;}
	.st17{fill:#440000;}
	.st18{fill:#45EDFF;}
	.st19{fill:#CC7F7F;}
</style>
<g id="Layer_1">
</g>
<g id="Layer_2">
</g>
<g id="Layer_3">
</g>
<g id="Layer_4">
</g>
<g id="Layer_5">
</g>
<g id="Layer_6">
</g>
<g id="Layer_7">
</g>
<g id="Layer_8">
</g>
<g id="Layer_9">
</g>
<g id="Layer_10">
</g>
<g id="Layer_11">
</g>
<g id="Layer_12">
</g>
<g id="Layer_13">
</g>
<g id="Layer_14">
	<path class="st18" d="M189.52,165v-48.34h-5.95v52.12c-1.91,1.24-3.89,2.57-5.95,3.97l0,0v-6.93v-17.72v-31.44h-5.68v31.44v17.43
		v6.93l0,0c-2.05-1.4-4.03-2.72-5.94-3.97v-51.84h-5.95v48.06c-2.08-1.29-4.06-2.5-5.95-3.64l0,0
		c-24.66-14.89-33.78-18.78-33.78-56.47V67.58c0-5.28,2.62-9.81,7.19-12.45l20.14-11.63l20.14-11.63c4.57-2.64,9.81-2.64,14.39,0
		l20.14,11.63l20.14,11.63c4.57,2.64,7.19,7.17,7.19,12.45v37.04c0,37.91-9.23,41.63-34.22,56.73l0,0
		c-1.89,1.15-3.87,2.35-5.95,3.65L189.52,165z M193.48,61.21l1.34,4.16l4.38-0.01l-3.54,2.56l1.36,4.16l-3.53-2.58l-3.53,2.58
		l1.36-4.16l-3.55-2.56l4.38,0.01L193.48,61.21L193.48,61.21z M156.98,61.21l1.34,4.16l4.38-0.01l-3.54,2.56l1.36,4.16l-3.53-2.58
		l-3.53,2.58l1.36-4.16l-3.55-2.56l4.38,0.01L156.98,61.21L156.98,61.21z M151.77,77.37h46.07c1.99,0,3.62,1.26,3.62,2.81l0,0
		c0,1.54-1.63,2.81-3.62,2.81h-46.07c-1.99,0-3.62-1.27-3.62-2.81l0,0C148.15,78.63,149.78,77.37,151.77,77.37z M175.24,48.5
		l2.94,9.12l9.59-0.02L180,63.22l2.98,9.12l-7.74-5.65l-7.75,5.65l2.98-9.12l-7.77-5.62l9.59,0.02L175.24,48.5z M154.38,99.84h40.87
		c1.4,0,2.55,1.26,2.55,2.81l0,0c0,1.54-1.14,2.81-2.55,2.81h-40.87c-1.4,0-2.55-1.26-2.55-2.81l0,0
		C151.83,101.09,152.97,99.84,154.38,99.84z M189.53,111.05h5.95v5.61v18.21v19.64c20.78-12.5,28.51-16.68,28.51-49.54v-37.7
		c0-2.77-1.37-5.14-3.77-6.53l-20.72-11.96l-19-10.97c-3.49-2.01-7.48-2.01-10.96,0l-19,10.97l-20.72,11.96
		c-2.4,1.38-3.77,3.75-3.77,6.53v37.7c0,32.63,7.64,36.98,28.08,49.28v-18.31v-19.28v-5.61h5.95h5.95h5.94h5.68h5.95H189.53
		L189.53,111.05z M189.53,94.22h-5.95h-5.95h-5.68h-5.94h-5.95h-5.95h-1.63h-1.21h-2.53v0.05c0.05,3.12-2.53,5.66-5.66,5.66
		c-3.12,0-5.66-2.53-5.66-5.66c0-3.12,2.53-5.66,5.66-5.66h63.82c3.12,0,5.66,2.53,5.66,5.66c0,3.12-2.53,5.66-5.66,5.66
		c-3.13,0-5.66-2.53-5.66-5.66v-0.05h-2.02h-0.73h-3.06H189.53L189.53,94.22z"/>
</g>
<g id="Layer_15">
</g>
</svg>
