<?xml version="1.0" encoding="utf-8"?>
<!-- Generator: Adobe Illustrator 27.8.1, SVG Export Plug-In . SVG Version: 6.00 Build 0)  -->
<svg version="1.1" xmlns="http://www.w3.org/2000/svg" xmlns:xlink="http://www.w3.org/1999/xlink" x="0px" y="0px"
	 viewBox="0 0 350 230" style="enable-background:new 0 0 350 230;" xml:space="preserve">
<style type="text/css">
	.st0{fill:#003F49;}
	.st1{fill:#8E032B;}
	.st2{fill:#87622B;}
	.st3{fill:#83014C;}
	.st4{fill:#B72204;}
	.st5{fill:#015254;}
	.st6{fill:#5B9C40;}
	.st7{fill:#0055B6;}
	.st8{fill-rule:evenodd;clip-rule:evenodd;fill:#3A1D03;}
	.st9{fill-rule:evenodd;clip-rule:evenodd;fill:#723600;}
	.st10{fill:#00438D;}
	.st11{fill:#162E50;}
	.st12{fill:#F6921E;}
	.st13{fill:#00237A;}
	.st14{fill:#563B00;}
	.st15{fill:#00FFB6;}
	.st16{fill:#9500FF;}
	.st17{fill:#440000;}
	.st18{fill:#45EDFF;}
	.st19{fill:#CC7F7F;}
</style>
<g id="Layer_1">
</g>
<g id="Layer_2">
</g>
<g id="Layer_3">
</g>
<g id="Layer_4">
</g>
<g id="Layer_5">
</g>
<g id="Layer_6">
</g>
<g id="Layer_7">
</g>
<g id="Layer_8">
</g>
<g id="Layer_9">
</g>
<g id="Layer_10">
</g>
<g id="Layer_11">
</g>
<g id="Layer_12">
</g>
<g id="Layer_13">
	<path class="st17" d="M213.85,105.05l13.96-34.4c-0.71-0.26-1.4-0.65-2-1.17c-7.27-5.45-15.71-8.57-24.33-9.35
		c-6.48-0.59-13.06,0.15-19.31,2.21v0.07c0,3.34-2.25,6.15-5.31,7.01v6.57h20.09c1.71,0,3.25,0.69,4.37,1.81
		c1.12,1.12,1.81,2.66,1.81,4.37c0,1.7-0.69,3.24-1.81,4.36v0.01c-1.12,1.12-2.66,1.81-4.37,1.81c-1.7,0-3.24-0.69-4.36-1.81
		l-0.01-0.01c-1.12-1.12-1.81-2.66-1.81-4.36c0-0.8,0.15-1.56,0.42-2.25h-6.48v73.02h18.52v3.37h-18.52h-3.92v-3.37V79.91h-3.92
		v79.77h40.87v3.38h-40.87h-3.92h-40.87v-3.38h40.87V79.91h-3.92v73.02v3.37h-3.92h-18.52v-3.37h18.52V79.91h-6.47
		c0.27,0.69,0.42,1.46,0.42,2.25c0,1.7-0.69,3.24-1.81,4.36l-0.01,0.01c-1.12,1.12-2.66,1.81-4.36,1.81c-1.71,0-3.25-0.69-4.37-1.81
		v-0.01c-1.12-1.12-1.81-2.66-1.81-4.36c0-1.71,0.69-3.25,1.81-4.37c1.12-1.12,2.66-1.81,4.37-1.81h20.09v-6.57
		c-3.06-0.86-5.31-3.67-5.31-7.01v-0.07c-6.24-2.06-12.83-2.8-19.31-2.21c-8.61,0.78-17.06,3.9-24.33,9.35
		c-0.55,0.47-1.17,0.84-1.83,1.11l13.99,34.46v1.85c0,4.61-1.87,8.79-4.9,11.82c-3.03,3.03-7.2,4.9-11.82,4.9
		c-4.61,0-8.79-1.87-11.82-4.9c-3.02-3.02-4.9-7.2-4.9-11.82v-1.85l14.07-34.66c-0.98-0.48-1.81-1.18-2.43-2.03
		c-0.71-0.96-1.16-2.13-1.27-3.37c-0.26-3.04,1.17-5.1,3.08-6.12c0.8-0.43,1.7-0.67,2.59-0.71c0.9-0.04,1.8,0.12,2.61,0.49
		c1.77,0.81,3.07,2.52,2.97,5.11l-3.91-0.16c0.03-0.75-0.27-1.21-0.68-1.4c-0.24-0.11-0.52-0.16-0.82-0.14
		c-0.31,0.01-0.61,0.09-0.9,0.25c-0.64,0.34-1.13,1.13-1.02,2.35c0.05,0.51,0.23,0.98,0.52,1.38c0.29,0.4,0.69,0.71,1.15,0.9v-0.01
		c0.48,0.2,0.98,0.25,1.47,0.17s0.95-0.29,1.34-0.62l0.11-0.08c7.88-5.93,17.04-9.32,26.39-10.17c6.96-0.63,14.03,0.16,20.74,2.35
		c0.95-1.53,2.45-2.68,4.22-3.18v-7.51l-4.97-4.97l6.93-6.93l6.93,6.93l-4.97,4.97v7.51c1.78,0.5,3.28,1.65,4.23,3.18
		c6.72-2.2,13.78-2.98,20.74-2.35c9.35,0.85,18.51,4.24,26.39,10.17l0.11,0.08c0.38,0.33,0.85,0.54,1.34,0.62
		c0.49,0.08,0.99,0.03,1.47-0.17v0.01c0.47-0.19,0.86-0.51,1.15-0.9c0.29-0.4,0.47-0.87,0.52-1.38c0.1-1.23-0.38-2-1.02-2.35
		c-0.28-0.16-0.59-0.24-0.9-0.25c-0.3-0.01-0.58,0.03-0.82,0.14c-0.41,0.19-0.71,0.65-0.68,1.4l-3.91,0.16
		c-0.1-2.59,1.19-4.3,2.97-5.11c0.81-0.37,1.71-0.54,2.62-0.49c0.89,0.04,1.78,0.28,2.59,0.71c1.9,1.03,3.33,3.08,3.08,6.12
		c-0.1,1.24-0.55,2.4-1.27,3.37c-0.59,0.8-1.36,1.48-2.28,1.95l14.09,34.74v1.85c0,4.61-1.87,8.79-4.9,11.82
		c-3.02,3.03-7.2,4.9-11.82,4.9s-8.79-1.87-11.82-4.9c-3.02-3.02-4.9-7.2-4.9-11.82L213.85,105.05L213.85,105.05z M172.94,58.91
		L172.94,58.91c-0.4,0.22-0.76,0.51-1.05,0.85l-0.04,0.05l-0.01,0.01l-0.03,0.03l-0.02,0.03l-0.01,0.01l-0.03,0.03l0,0l-0.02,0.02
		l-0.01,0.01l-0.03,0.03v0.01l-0.02,0.03l-0.04,0.05l-0.01,0.01l-0.01,0.01l-0.04,0.06l-0.01,0.01l0,0v0.01l-0.05,0.07v0.01
		l-0.01,0.01l-0.04,0.07l-0.01,0.01l-0.01,0.03l-0.03,0.04v0.01l-0.01,0.02l-0.04,0.07l-0.01,0.01l-0.03,0.07l-0.01,0.03l-0.04,0.07
		l0,0l-0.04,0.08l0,0l-0.03,0.08l-0.01,0.01v0.01l-0.03,0.07l-0.01,0.02v0.01L171.16,61l-0.01,0.03c-0.02,0.05-0.04,0.11-0.05,0.18
		l0,0l0,0l-0.03,0.09v0.01l-0.02,0.08v0.01v0.01l-0.02,0.09l0,0l-0.02,0.09v0.01L171,61.67v0.01v0.01l-0.01,0.09l0,0
		c-0.01,0.06-0.02,0.12-0.02,0.19v0.01v0.01l-0.01,0.09v0.01l-0.01,0.09v0.01l-0.01,0.09v0.01v0.01v0.09v0.09l0,0v0.01v0.01
		l0.01,0.08v0.01l0,0l0.01,0.09v0.01v0.01v0.02l0.01,0.04v0.02l0,0l0.01,0.03l0.01,0.04v0.02v0.01l0.01,0.03v0.02v0.02v0.02
		l0.01,0.04l0.01,0.02v0.02l0,0l0.01,0.07l0.01,0.02l0.01,0.07l0.01,0.02v0.02c0.03,0.12,0.06,0.24,0.09,0.35l0,0
		c0.31,0.97,0.98,1.78,1.86,2.27l0.03,0.01l0.02,0.01h0.01l0.03,0.01l0.01,0.01l0.02,0.01l0.03,0.01l0.03,0.01l0.03,0.01l0,0
		l0.03,0.01l0.03,0.01l0.03,0.01l0.03,0.01l0.03,0.01l0.03,0.01l0.03,0.01h0.01l0.03,0.01l0.03,0.01l0.03,0.01l0,0l0.03,0.01
		l0.03,0.01h0.01l0.03,0.01l0.03,0.01h0.01l0.02,0.01l0.03,0.01l0.05,0.02h0.01l0.03,0.01l0.01,0.01l0.02,0.01l0.03,0.01h0.01
		l0.04,0.01h0.01l0.03,0.01l0.01,0.01l0.02,0.01l0.03,0.01l0.03,0.01l0,0l0.03,0.01l0.03,0.01l0.01,0.01h0.02l0.03,0.01l0.03,0.01
		l0,0l0.03,0.01l0.03,0.01h0.01h0.02l0.03,0.01l0.03,0.01l0,0l0.03,0.01h0.03l0.03,0.01l0.03,0.01l0.03,0.01l0,0l0,0l0.06,0.01h0.01
		h0.02l0.05,0.01h0.01l0,0l0.03,0.01h0.03h0.02h0.02h0.03h0.03l0,0h0.03h0.03h0.02h0.02h0.03h0.03h0.03h0.03H175h0.02h0.03h0.03l0,0
		h0.03h0.03h0.02h0.02h0.03l0.03-0.01l0,0h0.01l0.05-0.01h0.02h0.01l0.06-0.01l0,0l0,0l0.03-0.01l0.03-0.01l0.03-0.01h0.03
		l0.03-0.01l0,0l0.03-0.01l0.03-0.01h0.02h0.01l0.03-0.01l0.03-0.01l0,0l0.03-0.01l0.03-0.01h0.02l0.01-0.01l0.03-0.01l0.03-0.01
		h0.01l0.03-0.01l0.03-0.01l0.02-0.01l0.01-0.01l0.03-0.01h0.01l0.04-0.01h0.01l0.03-0.01l0.02-0.01l0.01-0.01l0.03-0.01h0.01
		l0.05-0.02l0.03-0.01l0.02-0.01h0.01l0.03-0.01l0.03-0.01h0.01l0.03-0.01l0.03-0.01l0,0l0.03-0.01l0.03-0.01l0.03-0.01h0.01
		l0.03-0.01l0.03-0.01l0.03-0.01l0.03-0.01l0.03-0.01l0.03-0.01l0.03-0.01l0,0l0.03-0.01l0.03-0.01l0.03-0.01l0.02-0.01l0.01-0.01
		l0.03-0.01h0.01l0.02-0.01l0.03-0.01c0.88-0.49,1.54-1.3,1.86-2.27l0,0c0.04-0.11,0.07-0.23,0.09-0.35v-0.02l0.01-0.02l0.01-0.07
		l0.01-0.02l0.01-0.07l0,0v-0.02l0.01-0.02l0.01-0.04v-0.02v-0.02v-0.02l0.01-0.03v-0.01v-0.02l0.01-0.04l0.01-0.03l0,0v-0.02
		l0.01-0.04V62.7v-0.01v-0.01l0.01-0.09l0,0v-0.01V62.5v-0.01v-0.01l0,0v-0.09v-0.09v-0.01v-0.01l-0.01-0.09v-0.01l-0.01-0.09v-0.01
		l-0.01-0.09v-0.01v-0.01c-0.01-0.06-0.01-0.12-0.03-0.19l0,0l-0.01-0.09v-0.01v-0.01l-0.01-0.08v-0.01l-0.02-0.09l0,0l-0.02-0.09
		v-0.01v-0.01l-0.02-0.08v-0.01l-0.03-0.09l0,0l0,0c-0.02-0.06-0.04-0.11-0.05-0.18L178.67,61l-0.03-0.07v-0.01l-0.01-0.02
		l-0.03-0.07v-0.01l-0.01-0.01l-0.03-0.08l0,0l-0.04-0.08l0,0l-0.04-0.07l-0.01-0.03l-0.03-0.07l-0.01-0.01l-0.04-0.07l-0.01-0.02
		v-0.01l-0.02-0.04l-0.02-0.03l-0.01-0.01l-0.04-0.07l-0.01-0.01v-0.01l-0.05-0.07v-0.01l0,0l-0.01-0.01l-0.04-0.06l-0.01-0.01
		l-0.01-0.01l-0.04-0.05l-0.02-0.03v-0.01l-0.03-0.03l-0.01-0.01l-0.02-0.02l0,0l-0.03-0.03l-0.01-0.01l-0.02-0.03l-0.03-0.03
		l-0.01-0.01l-0.04-0.05c-0.3-0.34-0.65-0.63-1.05-0.85l0,0l-0.05-0.03l-0.03-0.01l-0.01-0.01l-0.02-0.01
		c-0.09-0.05-0.19-0.09-0.28-0.13l-0.03-0.01h-0.01l-0.02-0.01l-0.03-0.01l-0.03-0.01l-0.03-0.01l-0.03-0.01
		c-0.06-0.02-0.12-0.05-0.18-0.06l-0.03-0.01l0,0l-0.03-0.01l-0.02-0.01l-0.01-0.01l-0.03-0.01h-0.01L176,58.56l-0.03-0.01l0,0
		l-0.03-0.01l-0.03-0.01l-0.03-0.01l-0.01-0.01h-0.02l-0.03-0.01l0,0l-0.03-0.01l-0.03-0.01h-0.01l-0.03-0.01h-0.01l-0.02-0.01
		l-0.03-0.01l-0.03-0.01h-0.01l-0.03-0.01h-0.01l-0.03-0.01h-0.01h-0.02h-0.03h-0.01h-0.03l-0.03-0.01h-0.01h-0.03h-0.02h-0.01
		h-0.03h-0.01h-0.03l-0.03-0.01h-0.01h-0.03h-0.02h-0.01h-0.03h-0.01h-0.03h-0.03l0,0h-0.03h-0.02h-0.01h-0.03h-0.01h-0.02h-0.03
		h-0.03h-0.02h-0.01h-0.03h-0.01h-0.02h-0.03l0,0h-0.03h-0.03h-0.01h-0.03h-0.01h-0.02h-0.03h-0.01l-0.03,0.01h-0.03h-0.01h-0.03
		h-0.01h-0.02h-0.03h-0.01l-0.03,0.01h-0.03h-0.01h-0.03h-0.02h-0.01l-0.03,0.01h-0.01l-0.03,0.01h-0.01l-0.03,0.01l-0.03,0.01
		l-0.02,0.01h-0.01l-0.03,0.01h-0.01l-0.03,0.01l-0.03,0.01l0,0l-0.03,0.01h-0.02l-0.01,0.01l-0.03,0.01l-0.03,0.01l-0.03,0.01l0,0
		l-0.03,0.01l-0.02,0.01h-0.01l-0.03,0.01l-0.01,0.01l-0.02,0.01l-0.03,0.01l0,0l-0.03,0.01l-0.03,0.01l-0.03,0.01
		c-0.04,0.01-0.08,0.03-0.12,0.04l-0.03,0.01l-0.01,0.01l-0.02,0.01l-0.03,0.01l0,0l-0.03,0.01l-0.03,0.01h-0.01l-0.03,0.01
		c-0.09,0.04-0.19,0.09-0.28,0.13l-0.02,0.01l-0.01,0.01L173,58.87l-0.05,0.03L172.94,58.91z M198.56,80.57
		c-0.41-0.41-0.97-0.66-1.59-0.66c-0.63,0-1.19,0.25-1.6,0.65v0.01c-0.4,0.4-0.66,0.97-0.66,1.59c0,0.63,0.25,1.19,0.65,1.6
		c0.4,0.4,0.97,0.66,1.6,0.66c0.62,0,1.19-0.25,1.59-0.66l0,0c0.4-0.4,0.66-0.97,0.66-1.6C199.21,81.54,198.96,80.98,198.56,80.57
		L198.56,80.57z M154.45,80.57c-0.4-0.4-0.97-0.65-1.6-0.65c-0.62,0-1.19,0.25-1.59,0.66c-0.4,0.4-0.66,0.97-0.66,1.59
		c0,0.63,0.25,1.19,0.65,1.6l0,0c0.41,0.41,0.97,0.66,1.59,0.66c0.63,0,1.19-0.25,1.6-0.66c0.4-0.4,0.65-0.97,0.65-1.6
		c0-0.62-0.25-1.19-0.66-1.59v-0.01H154.45z M131.92,105.05l-12.48-30.76l-12.48,30.76H131.92L131.92,105.05z M128.64,116.1
		c1.94-1.94,3.27-4.49,3.68-7.34h-25.76c0.4,2.85,1.74,5.4,3.68,7.34c2.35,2.35,5.6,3.81,9.2,3.81
		C123.03,119.91,126.28,118.45,128.64,116.1L128.64,116.1z M243.04,105.05l-12.48-30.76l-12.48,30.76H243.04L243.04,105.05z
		 M239.76,116.1c1.94-1.94,3.27-4.49,3.68-7.34h-25.76c0.4,2.85,1.73,5.4,3.68,7.34c2.35,2.35,5.6,3.81,9.2,3.81
		S237.4,118.45,239.76,116.1L239.76,116.1z"/>
</g>
<g id="Layer_14">
</g>
<g id="Layer_15">
</g>
</svg>
