<?xml version="1.0" encoding="utf-8"?>
<!-- Generator: Adobe Illustrator 27.8.1, SVG Export Plug-In . SVG Version: 6.00 Build 0)  -->
<svg version="1.1" xmlns="http://www.w3.org/2000/svg" xmlns:xlink="http://www.w3.org/1999/xlink" x="0px" y="0px"
	 viewBox="0 0 350 230" style="enable-background:new 0 0 350 230;" xml:space="preserve">
<style type="text/css">
	.st0{fill:#003F49;}
	.st1{fill:#8E032B;}
	.st2{fill:#87622B;}
	.st3{fill:#83014C;}
	.st4{fill:#B72204;}
	.st5{fill:#015254;}
	.st6{fill:#5B9C40;}
	.st7{fill:#0055B6;}
	.st8{fill-rule:evenodd;clip-rule:evenodd;fill:#3A1D03;}
	.st9{fill-rule:evenodd;clip-rule:evenodd;fill:#723600;}
	.st10{fill:#00438D;}
	.st11{fill:#162E50;}
	.st12{fill:#F6921E;}
	.st13{fill:#00237A;}
	.st14{fill:#563B00;}
	.st15{fill:#00FFB6;}
	.st16{fill:#9500FF;}
	.st17{fill:#440000;}
	.st18{fill:#45EDFF;}
	.st19{fill:#CC7F7F;}
</style>
<g id="Layer_1">
</g>
<g id="Layer_2">
</g>
<g id="Layer_3">
</g>
<g id="Layer_4">
</g>
<g id="Layer_5">
</g>
<g id="Layer_6">
</g>
<g id="Layer_7">
</g>
<g id="Layer_8">
</g>
<g id="Layer_9">
</g>
<g id="Layer_10">
	<g>
		<path class="st13" d="M123.92,23.59l-16.1,60.88V23.59H123.92z M128.63,26.75v79.59h21.88L128.63,26.75z M130.49,23.59l23.24,84
			v0.32l-0.02,0.08c-3.05,12.05-13.93,20.47-26.46,20.47c-7.33,0-14.32-2.93-19.43-8.08v32.15h51.9V46.92h24.45V23.59H130.49z
			 M125.88,26.74l-18.05,67.09v12.51h18.05V26.74z"/>
		<path class="st14" d="M218.42,119.38h8.16v57.34h-8.16V119.38z M242.18,82.74V51.63h-77.64v125.09h31.12l-0.54-0.54v-64.43h7.57
			v64.98h8.16V111.8h23.31v64.91h8.03v-71.5h-53.7v-7.97h53.7v-6.54h-62.81v-7.97H242.18z"/>
	</g>
</g>
<g id="Layer_11">
</g>
<g id="Layer_12">
</g>
<g id="Layer_13">
</g>
<g id="Layer_14">
</g>
<g id="Layer_15">
</g>
</svg>
