<?xml version="1.0" encoding="utf-8"?>
<!-- Generator: Adobe Illustrator 27.8.1, SVG Export Plug-In . SVG Version: 6.00 Build 0)  -->
<svg version="1.1" xmlns="http://www.w3.org/2000/svg" xmlns:xlink="http://www.w3.org/1999/xlink" x="0px" y="0px"
	 viewBox="0 0 350 230" style="enable-background:new 0 0 350 230;" xml:space="preserve">
<style type="text/css">
	.st0{fill:#003F49;}
	.st1{fill:#8E032B;}
	.st2{fill:#87622B;}
	.st3{fill:#83014C;}
	.st4{fill:#B72204;}
	.st5{fill:#015254;}
	.st6{fill:#5B9C40;}
	.st7{fill:#0055B6;}
	.st8{fill-rule:evenodd;clip-rule:evenodd;fill:#3A1D03;}
	.st9{fill-rule:evenodd;clip-rule:evenodd;fill:#723600;}
	.st10{fill:#00438D;}
	.st11{fill:#162E50;}
	.st12{fill:#F6921E;}
	.st13{fill:#00237A;}
	.st14{fill:#563B00;}
	.st15{fill:#00FFB6;}
	.st16{fill:#9500FF;}
	.st17{fill:#440000;}
	.st18{fill:#45EDFF;}
	.st19{fill:#CC7F7F;}
</style>
<g id="Layer_1">
</g>
<g id="Layer_2">
</g>
<g id="Layer_3">
</g>
<g id="Layer_4">
</g>
<g id="Layer_5">
</g>
<g id="Layer_6">
</g>
<g id="Layer_7">
</g>
<g id="Layer_8">
</g>
<g id="Layer_9">
</g>
<g id="Layer_10">
</g>
<g id="Layer_11">
</g>
<g id="Layer_12">
	<path class="st16" d="M169.39,64.91h4.84v4.84h-4.84V64.91z M149.62,95.57h50.3c1.73,0,3.14,1.41,3.14,3.14l0,0
		c0,1.73-1.41,3.14-3.14,3.14h-50.3c-1.73,0-3.14-1.41-3.14-3.14l0,0C146.48,96.99,147.89,95.57,149.62,95.57z M191.24,168.44
		v-54.05h-6.65v58.29c-2.14,1.4-4.35,2.87-6.65,4.45l0,0v-7.75v-19.82V114.4h-6.35v35.16v19.49v7.75l0,0
		c-2.29-1.57-4.51-3.04-6.64-4.43V114.4h-6.65v53.75c-2.32-1.44-4.53-2.79-6.65-4.07l0,0c-27.58-16.65-37.78-21.01-37.78-63.15
		V67.26c0-5.91,2.93-10.97,8.04-13.93l22.52-13.01l22.52-13.01c5.12-2.95,10.97-2.95,16.08,0l22.52,13.01l22.52,13.01
		c5.12,2.95,8.04,8.02,8.04,13.93v33.66c0,42.39-10.32,46.55-38.26,63.44l0,0c-2.11,1.27-4.32,2.63-6.65,4.07L191.24,168.44z
		 M191.24,108.12h6.65v6.27v20.37v21.96c23.24-13.97,31.89-18.65,31.89-55.4v-34.4c0-3.09-1.53-5.74-4.21-7.29L202.4,46.25
		l-21.25-12.27c-3.9-2.25-8.36-2.25-12.26,0l-21.25,12.27l-23.17,13.37c-2.68,1.55-4.21,4.2-4.21,7.29v34.4
		c0,36.49,8.54,41.35,31.4,55.11v-20.47V114.4v-6.27h6.65h6.65h6.64h6.35h6.65L191.24,108.12L191.24,108.12z M191.24,89.3h-6.65
		h-6.65h-6.35h-6.64h-6.65h-7.28h-1.82h-1.35h-2.2v0.06c0.06,3.49-2.83,6.33-6.33,6.33c-3.49,0-6.33-2.83-6.33-6.33
		c0-3.49,2.83-6.33,6.33-6.33h71.37c3.49,0,6.33,2.83,6.33,6.33c0,3.49-2.83,6.33-6.33,6.33c-3.49,0-6.33-2.83-6.33-6.33V89.3h-2.25
		h-1.93h-2.31H191.24L191.24,89.3z M175.02,44.91l40.9,23.62l-0.06,7.2l-40.84-23.58l-41.38,23.88l-0.01-7.23L175.02,44.91
		L175.02,44.91z M175.8,64.91h4.84v4.84h-4.84V64.91z M175.8,71.19h4.84v4.84h-4.84V71.19z M169.4,71.19h4.84v4.84h-4.84V71.19z"/>
</g>
<g id="Layer_13">
</g>
<g id="Layer_14">
</g>
<g id="Layer_15">
</g>
</svg>
