<?xml version="1.0" encoding="utf-8"?>
<!-- Generator: Adobe Illustrator 27.8.1, SVG Export Plug-In . SVG Version: 6.00 Build 0)  -->
<svg version="1.1" xmlns="http://www.w3.org/2000/svg" xmlns:xlink="http://www.w3.org/1999/xlink" x="0px" y="0px"
	 viewBox="0 0 350 230" style="enable-background:new 0 0 350 230;" xml:space="preserve">
<style type="text/css">
	.st0{fill:#94D3EC;}
	.st1{fill-rule:evenodd;clip-rule:evenodd;fill:#1F3A6E;}
	.st2{fill:#E73F2D;}
	.st3{fill:#253E92;}
	.st4{fill:#EF3E25;}
	.st5{fill:#45BA8B;}
	.st6{fill:none;}
	.st7{fill:#F5B92B;}
	.st8{fill:#0391B3;}
	.st9{fill:#116380;}
	.st10{fill:#939598;}
	.st11{fill:#36004C;}
	.st12{fill:#F2B21C;}
	.st13{fill:#E6E6E6;}
	.st14{fill:#33BFC7;}
	.st15{fill:#463895;}
	.st16{fill:#470000;}
	.st17{fill:#FFFFFF;}
	.st18{fill:#ED1C24;}
	.st19{fill:#373D01;}
	.st20{fill:#6D2700;}
	.st21{fill:#C94502;}
	.st22{fill:#4FAF76;}
	.st23{fill:#231F20;}
	.st24{fill:#0049FF;}
	.st25{fill:#9A5E26;}
</style>
<g id="Layer_1">
</g>
<g id="Layer_2">
</g>
<g id="Layer_3">
	<g>
		<rect x="269.19" y="124.07" class="st6" width="3.49" height="3.52"/>
		<path class="st7" d="M121.98,111.08l-0.46,0.46v-21.5h3.65c-0.15,1.52-0.15,3.04,0,4.56l0.23,2.35h-0.61v3.49h1.06
			C126.24,104.17,125.93,107.28,121.98,111.08z M140.36,104.85c-0.15-1.52-2.43-2.73-4.03-1.9
			C137.88,103.04,139.32,103.72,140.36,104.85z M113.63,141.31l-6.46,0.53h-2.89v-34.18h3.34v-8.28h6.15v8.28h3.34v7.75
			c-1.37,1.06-2.2,1.75-2.58,3.19c-0.32,1.32-0.55,2.67-0.68,4.03h-2.43v3.49h2.05c-0.46,4.86-0.91,10.41-0.99,12.08
			C112.41,139.87,112.87,140.78,113.63,141.31z M110.74,111h-3.49v3.49h3.49L110.74,111z M180.92,132.65v-0.68l-0.61,1.9
			c0,0.08,0.08,0.15,0.08,0.23s0.53-0.99,0.76-1.44H180.92z M214.95,99.84h4.86v-8.28h3.65v-3.27h4.25v-7.14h4.86v7.14h4.18v3.27
			h3.65v22.1h2.89v-12.38h3.95v-6.91h1.82v-6.99h1.6V78.5h1.67v8.89h1.6v6.99h1.82v6.91h3.87v20.66h2.81v5.39h3.95v-6.53h10.71
			v25.37c-10.1-1.67-21.12-3.04-32.96-4.18c0.54-2.53,1.66-4.89,3.27-6.91c-2.15,1.56-3.92,3.58-5.17,5.92
			c0.33-2.33,0.97-4.6,1.9-6.76c-1.48,1.82-2.71,3.84-3.65,6c0.21-2.06,0.7-4.07,1.44-6c-1.12,1.32-2.06,2.77-2.81,4.33
			c1.22-5.16,3.27-7.22,3.27-7.22c-1.93,1.48-3.47,3.41-4.48,5.62c-0.12-1.47-0.51-2.92-1.14-4.25c-0.02,2.17-0.22,4.33-0.61,6.46
			c-0.61-1.33-1.38-2.58-2.28-3.72c0.62,1.87,1,3.81,1.14,5.77c-5.47-0.46-11.09-0.84-16.79-1.14v-0.84
			c-0.3-3.11-3.11-4.1-5.85-3.19c-0.08-5.24,0.3-13.14,0.61-18.99h2.73v-3.57h-2.58c0.15-2.28,0.23-3.95,0.23-4.25
			C213.17,106.04,213.71,102.82,214.95,99.84L214.95,99.84z M269.19,127.56h3.49v-3.49h-3.49V127.56z M252.93,115.71h3.49v-3.49
			h-3.49V115.71z M252.93,122.63h3.49v-3.49h-3.49V122.63z M247.31,108.73h3.49v-3.57h-3.49V108.73z M247.31,122.63h3.49v-3.49
			h-3.49V122.63z M233.64,98.93h3.49v-3.57h-3.49V98.93z M233.64,116.25h3.49v-3.49h-3.49V116.25z M225.74,105.92h3.57v-3.49h-3.57
			V105.92z M181.99,132.65c-0.15,0.76-0.38,1.67-0.53,2.73h0.15c0.53-0.99,0.99-1.9,1.44-2.66L181.99,132.65z M222.17,73.63
			c1.67,0.68,3.04-2.43,2.66-4.1c-4.1,0.68-17.01-12.84-19.06-17.09c-0.61-1.14-0.68-2.2-0.15-2.96c-1.82,0.46-6,2.58-3.57,5.92
			C206.67,61.71,214.88,70.6,222.17,73.63z M225.43,74.09c0.04,1.73,1.46,3.11,3.19,3.11c1.74-0.27,2.93-1.9,2.66-3.64
			c-0.21-1.37-1.29-2.45-2.66-2.66C226.86,70.9,225.43,72.33,225.43,74.09C225.43,74.09,225.43,74.09,225.43,74.09L225.43,74.09z"/>
		<path class="st8" d="M206.98,51.84c-0.53-1.06-0.84-1.52-0.3-2.66c0.53-1.14,2.89-3.42,4.48-5.39
			c-0.61,5.47,1.14,12.99,6.15,16.56c5.01,3.57,12.38-2.05,9.57-8.89s-1.44-10.63-1.44-10.63c-4.63,4.03,2.28,13.14-0.61,16.71
			c-1.9,2.35-6.15,3.42-8.81-0.84c-2.67-4.36-3.69-9.53-2.89-14.58c0.61-3.34,5.7-5.01,8.66-5.32s8.73-0.91,11.01-0.68
			c3.57,0.46,8.36,5.85,8.66,6.84c0.3,0.99,0.15,3.34,0.53,4.18c0.38,0.84,10.79,7.14,10.94,8.36c0.06,0.81-0.09,1.63-0.46,2.35
			c0,2.51-1.52,5.54-4.03,5.85c-0.38,1.9-2.2,2.35-3.8,2.43c-2.96,0.15-15.19,0.23-17.85,1.22c-1.22,0.46-1.75,1.22-3.19,0.68
			c-2.89-1.14-6.76-4.71-8.89-6.91c-1.74-1.68-3.39-3.45-4.94-5.32C208.72,54.57,207.77,53.25,206.98,51.84z M279.97,146.63H70.03
			c11.17-1.9,23.7-3.49,37.14-4.79l6.46-0.53c-0.76-0.53-1.22-1.6-1.14-3.11c0.08-1.52,0.53-7.22,0.99-12.08
			c0.15-1.22,0.3-2.43,0.38-3.49c0.14-1.36,0.36-2.7,0.68-4.03c0.38-1.44,1.22-2.13,2.58-3.19c1.56-1.18,3.04-2.47,4.41-3.87
			l0.46-0.46c3.95-3.8,4.25-6.91,3.87-10.63c-0.08-1.06-0.3-2.28-0.46-3.49l-0.23-2.35c-0.15-1.52-0.15-3.04,0-4.56
			c0.23-3.55,1.38-6.98,3.34-9.95c-0.98-1.21-1.85-2.5-2.58-3.87c-5.09-9.49-2.05-21.88,6.23-28.48c3.2-2.57,7.14-4.06,11.24-4.25
			c1.6-0.08,1.06,1.06,0.53,1.14C130.95,48.04,127,62.7,133.45,73.48c0.19,0.4,0.42,0.78,0.68,1.14c7.67-5.09,18.84-6.68,28.56-7.67
			c19.44-1.9,28.18-2.81,37.83-11.39l0.46,0.61c4.63,6.38,12.61,14.96,19.98,18.38c-0.17,0.36-0.3,0.75-0.38,1.14
			c-0.17,3.13-0.5,6.25-0.99,9.34h0.08c-0.43,4.12-1.59,8.13-3.42,11.85c-0.51,0.92-0.94,1.89-1.29,2.89
			c-1.24,2.98-1.79,6.2-1.6,9.42c0,0.3-0.08,1.97-0.23,4.25c-0.08,1.06-0.08,2.28-0.15,3.57c-0.3,5.85-0.68,13.75-0.61,18.99
			c2.73-0.91,5.54,0.08,5.85,3.19v0.84c5.7,0.3,11.32,0.68,16.79,1.14c-0.14-1.96-0.52-3.9-1.14-5.77c0.9,1.15,1.67,2.4,2.28,3.72
			c0.38-2.13,0.59-4.29,0.61-6.46c0.63,1.34,1.02,2.78,1.14,4.25c1.01-2.21,2.55-4.14,4.48-5.62c0,0-2.05,2.05-3.27,7.22
			c0.75-1.56,1.69-3.01,2.81-4.33c-0.74,1.93-1.23,3.95-1.44,6c0.93-2.16,2.16-4.18,3.65-6c-0.93,2.16-1.57,4.43-1.9,6.76
			c1.25-2.34,3.02-4.37,5.16-5.92c-1.61,2.02-2.73,4.39-3.27,6.91c11.85,1.14,22.86,2.51,32.96,4.18L279.97,146.63z M136.34,102.95
			c1.54,0.09,2.98,0.77,4.03,1.9C140.21,103.33,137.93,102.12,136.34,102.95z M138.31,133.34l-1.37,0.38
			c0.31,0.42,0.57,0.88,0.76,1.37C137.88,134.49,138.08,133.91,138.31,133.34z M171.81,138.88v-0.23h0.23c1.26,0.21,2.54,0.21,3.8,0
			l0.76-0.3c0.07-1.09,0.02-2.19-0.15-3.27c-0.68-0.13-1.37-0.13-2.05,0c-1.85-4.79-1.74-10.11,0.3-14.81
			c0.68-1.9,1.29-3.8,1.75-5.62c0.51-1.51,0.92-3.06,1.22-4.63c0.11,1.94-0.07,3.89-0.53,5.77c1.32,1.03,2.96,1.54,4.63,1.44
			c-0.61,2.11-0.99,4.27-1.14,6.46c-0.23,2.43-0.3,4.79-0.3,7.22c0.18-0.29,0.39-0.57,0.61-0.84l0.91-0.99l1.29-1.06
			c-0.33,0.31-0.62,0.67-0.84,1.06c-0.55,0.89-1,1.83-1.37,2.81l-0.61,1.97c0,0.08,0.08,0.15,0.08,0.23s0.53-0.99,0.76-1.44
			c0.46-0.72,0.96-1.4,1.52-2.05l-0.68,2.05c-0.15,0.76-0.38,1.67-0.53,2.73h0.15c0.53-0.99,0.99-1.9,1.44-2.66l1.44-1.97
			c0-0.04,0.03-0.08,0.08-0.08h0c-0.06,0.06-0.08,0.14-0.08,0.23c-0.15,0.3-0.38,0.99-0.68,1.82s-0.46,1.67-0.68,2.73h0.38
			c1.05-1.6,2.39-2.99,3.95-4.1c-1.12,1.44-1.99,3.06-2.58,4.79c0.81,0.65,1.31,1.62,1.37,2.66v0.15l15.65,0.38
			c0.13-1.77-0.44-3.52-1.6-4.86c1.5,1.1,2.66,2.6,3.34,4.33c0.46-2.51,0.23-6.15-1.37-8.58c1.19,0.93,2.11,2.16,2.66,3.57
			c-0.99-8.73-2.35-18.61-4.63-26.81l1.75-1.67l2.28-2.81l-2.28,1.75c-2.55,1.95-5.3,3.63-8.2,5.01c-1.14,0.52-2.3,0.98-3.49,1.37
			c-0.84,0.3-1.7,0.53-2.58,0.68c1.89-2.79,3.91-5.47,6.08-8.05c0.59-0.66,1.31-1.18,2.13-1.52h0.15l0.61-0.3
			c0.96-0.68,1.19-2,0.51-2.96c-0.12-0.17-0.27-0.32-0.43-0.45c-0.83-0.68-1.97-0.85-2.96-0.46c-0.54,0.15-1.05,0.38-1.52,0.68
			c-0.66,0.44-1.29,0.93-1.9,1.44l-2.73,2.66c-1.99,1.78-3.9,3.65-5.7,5.62c-0.46,0.53-1.6,1.22-1.97,0.46s0.46-4.94-1.37-7.75
			c-1.9-2.87-2.95-6.21-3.04-9.65c0-1.67,0.76-2.2,1.6-3.72s1.82-1.9,1.82-2.51c-0.09-0.6-0.14-1.21-0.15-1.82
			c-0.15-0.71-0.43-1.38-0.84-1.97c0,0-0.08-1.06-0.84-0.99c-0.76,0.08-2.51,0.3-3.19,0c-1.26-0.92-2.77-1.42-4.33-1.44
			c-1.06,0.12-2.09,0.42-3.04,0.91c-0.91-2.28-0.91-4.33-1.22-4.41s-0.91,2.51-0.99,5.54l0,0c0,0-2.13-2.51-2.73-1.67
			c-0.61,0.84-0.23,6.53-0.23,6.53s-0.61,1.22-0.46,5.32c0.15,4.1-0.23,6.3-1.9,7.67h-0.15v0.15c-1.44,0.94-2.97,1.76-4.56,2.43
			c-0.79,0.34-1.55,0.75-2.28,1.22l0.23-1.52l-0.84,1.82c-2.58,1.47-4.85,3.43-6.68,5.77c-0.65,0.84-1.24,1.73-1.75,2.66l-1.44,0.68
			c0.23-1.4,0.02-2.83-0.61-4.1c-0.58-1.29-1.57-2.36-2.81-3.04c-2.73-1.22-5.54,1.97-2.58,4.63c2.96,2.66-1.6,5.7-4.79,7.29
			c-0.97,0.48-1.89,1.07-2.73,1.75c-1.29,0.61-2.54,1.32-3.72,2.13c-2.51,1.82-2.81,4.41-3.34,6.91c-0.53,2.51-1.37,8.89-1.37,8.89
			c2.58-0.76,5.09,0.38,5.39,3.19c0.05,0.41,0.03,0.82-0.08,1.22l6.76-0.38c-0.17-0.62-0.3-1.26-0.38-1.9
			c-0.45-0.28-0.81-0.68-1.06-1.14c1.56,0.9,3.3,1.45,5.09,1.6c-0.71-1.44-1.72-2.71-2.96-3.72c1.93,0.63,3.54,1.99,4.48,3.8
			c-0.07-1.72-0.51-3.4-1.29-4.94c-5.32-0.15-8.96-6.38-5.85-10.94c0.52-0.72,1.16-1.34,1.9-1.82l0.46-0.38l2.35-1.22
			c2.73-1.37,5.39-3.34,6.61-5.92l0.99-0.46c-0.87,2.4-1.41,4.9-1.6,7.44c-2.05,1.75-1.97,4.25-2.13,6.68
			c-0.15,2.43-0.08,3.87-0.08,5.85c0.74-1.42,1.81-2.64,3.11-3.57c0,0-2.58,3.04-2.58,9.42h0.61c0.87-1.23,2.01-2.25,3.34-2.96
			c-0.93,0.77-1.59,1.8-1.9,2.96h3.27c0.06,0.12,0.09,0.25,0.08,0.38v0.23l8.13-0.3c-0.4-2.08-1.14-4.09-2.2-5.92
			c0.97,0.8,1.84,1.72,2.58,2.73c-0.05-1.89-0.27-3.77-0.68-5.62c0.82,1,1.41,2.17,1.75,3.42c0.51-2.05,1.5-3.95,2.89-5.54
			c0,0-1.37,2.05-1.52,6.68c0.35-1.47,0.91-2.88,1.67-4.18c-0.29,1.78-0.37,3.59-0.23,5.39c0.43-2,1.12-3.94,2.05-5.77
			c-0.39,2-0.51,4.04-0.38,6.08c0.65-2.23,1.79-4.28,3.34-6c0,0-2.13,4.56-1.67,8.58h0.38c3.04-4.79,0.76-10.41,0.76-10.41
			s1.67,2.43,2.35,6.08c0.61-1.98,1.43-3.89,2.43-5.7c-0.69,2.75-0.95,5.6-0.76,8.43c0.71-1.82,1.71-3.51,2.96-5.01
			c-0.41,1.62-0.63,3.27-0.68,4.94c0.57-0.97,1.5-1.68,2.58-1.97c-0.64,1.13-1.15,2.33-1.52,3.57L171.81,138.88z"/>
	</g>
</g>
<g id="Layer_4">
</g>
<g id="Layer_5">
</g>
<g id="Layer_6">
</g>
<g id="Layer_7">
</g>
<g id="Layer_8">
</g>
<g id="Layer_9">
</g>
<g id="Layer_10">
</g>
<g id="Layer_11">
</g>
<g id="Layer_12">
</g>
<g id="Layer_13">
</g>
<g id="Layer_14">
</g>
<g id="Layer_15">
</g>
</svg>
