<?xml version="1.0" encoding="utf-8"?>
<!-- Generator: Adobe Illustrator 27.8.1, SVG Export Plug-In . SVG Version: 6.00 Build 0)  -->
<svg version="1.1" xmlns="http://www.w3.org/2000/svg" xmlns:xlink="http://www.w3.org/1999/xlink" x="0px" y="0px"
	 viewBox="0 0 350 230" style="enable-background:new 0 0 350 230;" xml:space="preserve">
<style type="text/css">
	.st0{fill:#94D3EC;}
	.st1{fill-rule:evenodd;clip-rule:evenodd;fill:#1F3A6E;}
	.st2{fill:#E73F2D;}
	.st3{fill:#253E92;}
	.st4{fill:#EF3E25;}
	.st5{fill:#45BA8B;}
	.st6{fill:none;}
	.st7{fill:#F5B92B;}
	.st8{fill:#0391B3;}
	.st9{fill:#116380;}
	.st10{fill:#939598;}
	.st11{fill:#36004C;}
	.st12{fill:#F2B21C;}
	.st13{fill:#E6E6E6;}
	.st14{fill:#33BFC7;}
	.st15{fill:#463895;}
	.st16{fill:#470000;}
	.st17{fill:#FFFFFF;}
	.st18{fill:#ED1C24;}
	.st19{fill:#373D01;}
	.st20{fill:#6D2700;}
	.st21{fill:#C94502;}
	.st22{fill:#4FAF76;}
	.st23{fill:#231F20;}
	.st24{fill:#0049FF;}
	.st25{fill:#9A5E26;}
</style>
<g id="Layer_1">
</g>
<g id="Layer_2">
</g>
<g id="Layer_3">
</g>
<g id="Layer_4">
</g>
<g id="Layer_5">
</g>
<g id="Layer_6">
</g>
<g id="Layer_7">
</g>
<g id="Layer_8">
</g>
<g id="Layer_9">
</g>
<g id="Layer_10">
	<path class="st19" d="M215.86,92.47c-3.12-3.65-6.72-6.96-6.67-12.27c-9.98-2.29-19.58-2.63-28.54,3.07
		c-4.48,2.87-7.69,6.62-9.3,11.69c-0.72,2.52-0.69,5.2,0.1,7.69c0.15,0.58,0.24,1.41-0.05,1.85c-3.17,5.02-4.87,10.37-4.53,16.32
		c-17.09,0-40.71-22.01-40.33-37.4c2.09,0.68,4.19,1.51,6.33,1.95c8.47,1.75,15.05-3.46,17.14-10.28c1.41-4.38,2.05-9.06,2.97-13.59
		c0.54-2.68,0.68-5.41,1.46-8.04c2.44-8.47,9.5-12.61,18.07-10.57s14.9,7.31,16.66,16.32c1.75,9.01,7.01,13.3,14.9,16.07
		c5.99,2.14,12.18,1.85,18.31,1.85h1.46c3.6-0.05,4.97,1.31,3.94,4.82c-2.97,10.18-9.11,17.63-19.58,20.6
		c-9.25,2.68-18.12,1.46-26.3-3.8c-0.88-0.54-1.75-1.66-1.85-2.63c-0.24-1.95,2.09-2.97,3.94-1.75c3.12,2.05,6.43,3.65,10.13,4.33
		c7.65,1.36,14.66,0.15,20.7-5.07C215.21,93.28,215.55,92.89,215.86,92.47z M181.04,67.2c0-3.56-2.09-5.75-5.5-5.8
		c-2.68-0.05-4.97,2.39-5.02,5.36c-0.12,2.9,2.14,5.36,5.04,5.48S180.92,70.1,181.04,67.2L181.04,67.2z M219.47,88.72
		c2-2.13,3.28-4.84,3.65-7.74h-8.96C215.08,84.24,216.64,86.77,219.47,88.72L219.47,88.72z M170.13,132.94
		c-0.36-0.35-0.82-0.57-1.31-0.63c-2.39-0.34-4.82-0.49-7.21-0.93c-10.91-1.95-20.21-7.06-28.34-14.51
		c-11.1-10.13-17.09-22.79-18.46-37.7c-0.15-2,0.19-4.19-0.49-5.94c-1.02-2.63-2.73-4.97-4.33-7.69
		c-8.33,25.91-5.16,49.68,12.91,70.18c18.07,20.5,41.74,24.94,59.85,22.26c-2.78-3.7-2.87-7.55-0.63-11.59
		C175.24,141.32,175.24,141.32,170.13,132.94z M146.07,37.83c-9.05,1.26-17.57,4.98-24.64,10.76c-5.07,4.09-6.48,9.79-3.56,15.54
		c2.73,5.75,7.36,10.37,13.1,13.1c1.76,0.79,3.68,1.16,5.6,1.07c2.82-0.19,4.87-1.95,6.19-4.48c2.63-4.87,2.87-10.32,3.7-15.63
		c1.22-7.69,3.46-14.76,10.96-19.29C153.43,37.68,149.72,37.29,146.07,37.83z M152.4,30.52c1.51,0,3.02,0.39,4.53,0.19
		c10.63-1.5,21.46-0.89,31.85,1.8c17.39,4.48,30.93,14.56,41.59,28.78c9.45,12.57,13.93,26.69,12.91,42.47v0.34l0.15,0.34
		c4.14-29.46-4.87-53.77-29.81-70.42c-22.99-15.44-47.44-15.78-72.08-3.26L152.4,30.52z M208.65,157.78
		c4.58-0.58,7.55-5.21,6.09-9.35c-1.29-3.82-3.7-7.16-6.92-9.59c-2.24-1.61-4.87-2.24-7.35-0.88c-4.68,2.53-8.72,5.99-11.4,10.62
		c-2.68,4.63-0.15,8.33,4.24,9.25c2.34,0.44,4.82,0.39,7.31,0.54S205.97,158.17,208.65,157.78z M194.68,116.53
		c0.83,2.14,1.31,4.48,2.53,6.43c2.87,4.63,8.72,5.11,12.61,1.27c3.9-3.85,3.99-9.79,1.22-14.17s-8.13-5.36-12.18-2.09
		c-2.63,2.14-3.65,5.07-3.7,8.33L194.68,116.53z M220.29,71.34c-4.77-2.34-9.55-4.77-14.37-7.01c-2.48-1.12-3.75-3.02-4.48-5.55
		c-0.73-2.53-1.07-4.38-2.05-6.38c-4.24-8.77-12.03-12.13-21.14-13.3c0.46,0.38,0.94,0.73,1.46,1.02c2.63,1.7,5.41,3.26,7.84,5.21
		c4.63,3.9,6.92,9.11,8.43,14.9c0.58,2.09,1.85,4.43,3.51,5.75c6.33,5.11,13.83,6.82,22.35,6.23L220.29,71.34z M230.52,122.86
		c-0.63-5.26-6.33-7.99-10.42-5.02c-4.09,2.97-5.41,8.23-4.04,12.42c0.83,2.39,2.14,4.43,4.87,4.87c2.56,0.53,5.2-0.43,6.82-2.48
		c1.9-2.29,2.97-4.82,2.78-7.79C230.57,124.19,230.57,123.53,230.52,122.86z M188.69,118.67c-3.51-3.46-9.06-2.34-10.71,2.19
		c-1.66,4.53-0.83,8.72,2.34,12.37c1.96,2.1,5.06,2.68,7.65,1.41c3.17-1.56,4.04-4.43,4.14-7.89
		C192.09,123.72,190.86,120.8,188.69,118.67L188.69,118.67z"/>
</g>
<g id="Layer_11">
</g>
<g id="Layer_12">
</g>
<g id="Layer_13">
</g>
<g id="Layer_14">
</g>
<g id="Layer_15">
</g>
</svg>
