<?xml version="1.0" encoding="utf-8"?>
<!-- Generator: Adobe Illustrator 27.8.1, SVG Export Plug-In . SVG Version: 6.00 Build 0)  -->
<svg version="1.1" xmlns="http://www.w3.org/2000/svg" xmlns:xlink="http://www.w3.org/1999/xlink" x="0px" y="0px"
	 viewBox="0 0 350 230" style="enable-background:new 0 0 350 230;" xml:space="preserve">
<style type="text/css">
	.st0{fill:#94D3EC;}
	.st1{fill-rule:evenodd;clip-rule:evenodd;fill:#1F3A6E;}
	.st2{fill:#E73F2D;}
	.st3{fill:#253E92;}
	.st4{fill:#EF3E25;}
	.st5{fill:#45BA8B;}
	.st6{fill:none;}
	.st7{fill:#F5B92B;}
	.st8{fill:#0391B3;}
	.st9{fill:#116380;}
	.st10{fill:#939598;}
	.st11{fill:#36004C;}
	.st12{fill:#F2B21C;}
	.st13{fill:#E6E6E6;}
	.st14{fill:#33BFC7;}
	.st15{fill:#463895;}
	.st16{fill:#470000;}
	.st17{fill:#FFFFFF;}
	.st18{fill:#ED1C24;}
	.st19{fill:#373D01;}
	.st20{fill:#6D2700;}
	.st21{fill:#C94502;}
	.st22{fill:#4FAF76;}
	.st23{fill:#231F20;}
	.st24{fill:#0049FF;}
	.st25{fill:#9A5E26;}
</style>
<g id="Layer_1">
</g>
<g id="Layer_2">
</g>
<g id="Layer_3">
</g>
<g id="Layer_4">
	<g>
		<path class="st9" d="M204.18,38.22c2.6-0.97,5.61-1.95,8.37-0.97s3.33,2.84,4.06,4.88c-2.36-1.06-4.71-2.28-7.31-2.52
			c2.44,1.06,4.96,1.79,7.31,3.17c-1.87,1.3-4.14,2.36-6.42,1.63C207.91,43.66,206.05,40.33,204.18,38.22z M197.92,58.29
			c7.31-4.39,14.79-8.53,22.99-11.13s19.09-4.39,28.44-1.87c8.6,2.3,16.06,7.68,20.96,15.11c-2.08-0.61-4.2-1.1-6.34-1.46
			c-7.64-1.06-15.44,0.73-22.51,3.66c-4.91,2.05-9.55,4.7-13.81,7.88c2.93-1.3,5.77-2.52,8.78-3.58c7.07-2.52,14.63-4.63,22.18-3.49
			c0.08-1.46,0.08-2.84,0.16-4.31c1.16,1.47,2.01,3.16,2.52,4.96c3.78,1.28,7.32,3.17,10.48,5.61c2.82,2.25,4.73,5.46,5.36,9.02
			c2.55,13.24-0.35,26.95-8.04,38.03c-5.6,7.97-13.74,13.81-23.08,16.58c-0.32,0.98-0.65,2.19-1.71,2.68
			c-1.06,0.49-4.63,0.98-7.07,1.06c-0.98,0.16-1.62-0.65-2.19-1.38c-2.77,0.75-5.69,0.72-8.45-0.08c-2.03-0.81-3.66,1.3-5.69,0.98
			c-3.9-0.24-7.8-0.73-11.7-0.98c-3.9-0.24-9.99-0.49-14.87-1.14c-0.16-1.36,0.07-2.74,0.65-3.98l-3.82-0.49
			c-0.57,1.46-1.38,3.01-3.01,3.49c-2.18,0.81-4.55,0.98-6.83,0.49c-1.14-0.32-1.14-1.71-1.14-2.6c-0.94-0.03-1.87-0.19-2.76-0.49
			c-0.73-0.65-0.65-1.62-0.73-2.52l-12.59-0.81l-0.73,2.19c-2.76,0.49-5.69,1.06-8.45,0.24c-1.22-0.32-1.38-1.62-1.3-2.68
			c-2.76,1.3-5.85,2.52-8.94,2.6c-1.26,0.01-2.29-1-2.3-2.25c0-0.12,0.01-0.23,0.02-0.35l-3.98,0.16c-0.32,0.73-0.57,1.46-0.97,2.19
			c-1.14,2.68-5.61,2.93-6.99,0.32c-1.54,0.41-3.74,0.24-3.9-1.79l-9.43,0.89c0.06,0.68,0.17,1.36,0.33,2.03
			c-2.19,0.73-4.55,0.73-6.83,0.97c-5.44,0.16-10.89,0.57-16.33,0.73c-3.25,0.49-6.34,1.3-9.51,2.03
			c-8.78,2.28-17.47,4.79-25.76,8.53c15.44-3.9,31.04-7.23,46.88-9.02c22.36-2.75,44.99-2.45,67.28,0.89
			c21.45,2.93,42.74,8.61,64.51,8.21c7.39,0.21,14.76-1,21.69-3.57c9.25-3.51,17.17-9.82,22.67-18.04
			c10.32-15.44,11.62-36.32,3.82-53.14c-3.44-7.48-8.59-14.05-15.03-19.18c-6.99-5.69-15.6-9.67-24.7-10.48
			c-9.1-0.81-20.72,1.63-29.9,6.26C209.56,48.7,203.37,53.08,197.92,58.29z M196.46,53.33c2.03,0.97,4.23,0,5.93-1.3
			c-2.04-0.96-4.12-1.8-6.26-2.52c2.19,0.16,4.31,1.14,6.34,2.03c-0.73-1.71-1.79-3.58-3.66-4.14c-1.87-0.57-4.88,0.08-7.15,0.89
			C193.13,50.08,194.35,52.28,196.46,53.33z M222.21,55.12c-0.08-2.68,0.89-5.2,1.62-7.72c-1.79,0.89-3.57,2.19-4.23,4.23
			s0.49,5.93,1.79,8.53c1.79-1.79,3.9-3.33,5.12-5.53s-0.08-5.44-2.03-7.23C223.51,49.92,222.95,52.52,222.21,55.12L222.21,55.12z
			 M206.78,60.89c0.29-2.22,0.84-4.4,1.62-6.5c-1.54,0.73-3.17,1.79-3.66,3.58s0.32,5.04,1.3,7.39c1.71-1.79,4.06-3.17,4.79-5.69
			s-0.65-3.9-1.95-5.36C208.16,56.5,207.51,58.69,206.78,60.89L206.78,60.89z M237,61.94c1.22,0.65,2.68,0,3.9-0.57
			c-1.3-0.73-2.6-1.38-3.82-2.19l3.82,1.87c-0.41-1.22-0.89-2.6-2.27-3.09c-1.38-0.49-3.09-0.16-4.55,0.08
			C234.97,59.43,235.54,61.13,237,61.94L237,61.94z M188.82,66.9c2.28-0.57,4.88-0.49,6.83-2.03s1.62-3.82,1.38-5.77
			c-1.79,1.3-3.33,2.84-5.12,4.14c1.3-1.71,3.01-2.93,4.63-4.39c-1.79-0.16-3.82-0.08-5.2,1.22
			C189.96,61.38,189.15,64.54,188.82,66.9z M228.96,66.82c1.22,0.16,2.11-0.73,3.01-1.38c-1.3-0.35-2.58-0.78-3.82-1.3l3.74,0.89
			c-0.57-0.89-1.14-1.95-2.19-2.28c-1.06-0.33-3.33,0.24-4.88,0.81C226.03,64.87,227.01,66.66,228.96,66.82z M168.59,66.9
			c-2.68,0.73-5.61,0-8.29,0.97c-0.41,0.57-0.08,1.3,0.08,1.95c0.81,1.95,0.65,4.23,2.11,5.85s6.34,2.03,9.26,3.25
			c1.06,1.14,1.14,2.84,1.46,4.22c0.33,1.38-1.54,5.28,0.73,7.15c0.5,0.86,0.93,1.76,1.3,2.68c0,1.22-0.65,2.28-0.97,3.41l1.22-0.89
			c-0.27,1.29-0.21,2.63,0.16,3.9l0.73-1.38c1.3,2.03,2.84,3.9,4.14,5.93c1.02,1.49,2.39,2.72,3.98,3.57
			c0.71,2.57,1.09,5.22,1.14,7.88c-0.08,2.6-0.89,5.28-0.65,7.96c0.2,1.76,0.12,3.55-0.24,5.28c-0.74,0.18-1.47,0.4-2.19,0.65
			c-1.22,0.65-1.14,2.28-1.38,3.49c1.87,0.46,3.83,0.43,5.69-0.08c1.32-0.17,2.43-1.04,2.93-2.28c1.22-3.49,0.81-7.23,1.62-10.81
			s3.01-8.29,3.01-12.68c1.31-0.17,2.62-0.41,3.9-0.73c0.51-0.65,0.94-1.36,1.3-2.11c-0.81-1.06-1.71-2.28-1.62-3.74
			c0.08-1.46,1.14-3.41,2.27-4.79c0.89,0.41,1.95,0.89,2.93,0.49c1.69-0.47,3.5-0.35,5.12,0.32c1.12-0.97,2.17-2,3.17-3.09
			c1.3,3.1,1.72,6.5,1.22,9.83c3.17-0.16,6.42-0.65,9.67-0.16c0.79,0.05,1.5,0.51,1.87,1.22c1.38,2.44,2.44,4.96,3.74,7.39
			c0.58,1.09,1.45,1.99,2.52,2.6c2.68,1.71,5.44,3.25,7.8,5.36c1.46,3.41,2.04,7.12,1.71,10.81c-0.16,1.87-3.09,1.22-3.49,3.01
			c-0.41,1.79-0.81,2.68,0.73,2.52c2.23,0.2,4.48-0.11,6.58-0.89c1.38-0.73,0.81-2.52,0.89-3.74c-0.41-5.2,0.65-10.32,0.65-15.44
			c0.08-1.46-1.54-2.03-1.95-3.33c-0.62-1.65-1.02-3.37-1.22-5.12c-0.32-3.9,2.03-7.31,2.19-11.21c0.16-3.9-0.16-7.39-3.09-9.59
			c1.95-0.32,4.63,0.16,5.77-1.79c1.9-0.49,3.73-1.23,5.44-2.19v-0.81c4.71-1.14,7.64-5.53,8.61-9.99
			c-0.45,0.59-0.86,1.22-1.22,1.87c0.73-3.49,0.98-7.15-0.08-10.56c-0.62,3.07-1.84,6-3.58,8.61c-1.15,1.51-2.58,2.78-4.23,3.74
			c-2.86,2.07-5.91,3.86-9.1,5.36c-2.93,1.22-6.18,2.28-9.26,1.3c-2.9-1.01-5.95-1.51-9.02-1.46c-6.74,0.24-13.41,2.19-20.15,1.22
			c-1.54-0.32-3.01-0.97-4.63-1.06c-1.21-0.03-2.41-0.22-3.57-0.57c-1.71-0.73-2.84-2.19-3.98-3.58c-2.76-3.17-5.77-6.01-8.21-9.43
			c-1.22-1.54-2.28-3.41-4.23-3.98c-2.42-0.65-4.97-0.65-7.39,0C170.54,63.65,169.89,65.68,168.59,66.9L168.59,66.9z M178.91,66.66
			c-0.98,2.11-2.44,4.23-2.28,6.66c0.07,1.85,1.37,3.41,3.17,3.82c0.98,0.24,1.71-0.57,2.19-1.22s0.89-3.41,1.06-5.12
			c0.52,1.75,0.54,3.6,0.08,5.36c-1.06,3.17-6.58,3.09-7.39-0.16C174.93,72.75,176.39,68.93,178.91,66.66L178.91,66.66z
			 M173.87,88.84l71.26-16.33c1.54-1.22,3.66-2.28,4.06-4.39c0.41-2.11-0.57-2.68-1.46-3.66c-0.49,1.46-0.98,2.93-1.54,4.39
			c0.27-1.53,0.71-3.03,1.3-4.47c-1.06,0.65-2.36,1.14-2.84,2.36c-0.49,1.22-0.08,3.98,0.49,5.77L173.87,88.84z M163.8,91.28
			c1.3-0.89,2.68-1.79,3.41-3.17c0.73-1.38,0-2.93-0.97-4.06c-0.57,1.38-0.98,2.68-1.63,3.98c0.32-1.3,0.89-2.6,1.3-3.98
			c-1.06,0.57-2.28,1.22-2.6,2.36s71.34-13.08,71.74-11.46L163.8,91.28z M149.82,92.98c1.71-0.32,3.66-0.24,5.2-1.3
			c1.54-1.06,1.38-2.84,1.14-4.31c-1.22,0.89-2.44,1.95-3.74,2.84c1.08-1.09,2.22-2.12,3.41-3.09c-1.38-0.08-2.93-0.16-4.06,0.89
			c-1.14,1.06,69.63-13.16,69.31-11.38L149.82,92.98z M109.6,108.01c-1.71-3.49-1.95-7.8-4.71-10.73c-0.41-0.57-1.71-0.81-1.79,0.08
			c-1.3,4.96,1.22,10.08,4.96,13.24l-1.14,2.68c-3.09-0.08-6.09-1.06-9.18-0.41c-3.09,0.65-7.23,3.41-7.96,7.31
			c-0.49,1.79,0.08,3.66,0.73,5.44c-0.76,0.37-1.32,1.05-1.54,1.87c1.13,1.36,3.03,1.79,4.63,1.06c0.27,1.07,0.77,2.07,1.46,2.93
			c6.99-0.32,14.06-0.49,21.04-1.14c-0.14-0.86-0.36-1.7-0.65-2.52c-0.57-1.3-2.44-0.41-3.09-1.54c-1.07-1.81-1.04-4.07,0.08-5.85
			c0.97-1.22,0.41-3.33,1.87-4.14c1.46-0.81,2.03-1.14,1.95-2.28c-0.45-1.58-1.46-2.93-2.84-3.82c-0.57-0.49-1.62-0.81-1.38-1.79
			c0.24-4.23,0.57-8.94-2.03-12.51c-1.27,0.94-1.93,2.5-1.71,4.06C108.46,102.65,109.36,105.33,109.6,108.01z M222.21,111.34
			c2.03,3.74,6.18,5.36,8.69,8.61c0.95,3.3,1.09,6.79,0.41,10.16c-0.49,1.54-3.01,0.73-3.49,2.36s-1.06,2.19,0.08,2.44
			c2.36,0.16,5.04,0.65,7.15-0.65c0.81-2.03,0.65-4.23,0.98-6.26c0.32-2.03,0.89-5.28,1.22-7.88c-2.52-2.52-5.85-3.74-8.61-5.93
			c-2.76-2.19-3.41-6.99-5.85-10.08c-1.18-0.19-2.38-0.3-3.57-0.32C220.26,106.31,221.08,108.91,222.21,111.34z M182.24,112.16
			c0,2.44-0.81,4.88-0.65,7.39c0.16,2.52,0.32,3.98-0.16,5.85c-0.49,1.87-2.52,0.41-3.01,1.62c-0.39,0.72-0.58,1.54-0.57,2.36
			c0.41,1.06,1.71,0.65,2.52,0.89c0.58-1.48,1.99-2.47,3.58-2.52c0.09-1.95,0.07-3.9-0.08-5.85c0-2.68,0.89-5.28,0.65-7.96
			c-0.12-1.9-0.45-3.78-0.97-5.61c-0.57-0.53-1.19-0.99-1.87-1.38C181.91,108.66,182.16,110.37,182.24,112.16L182.24,112.16z"/>
		<path class="st10" d="M208.48,97.86l2.6-2.11c0.81,3.82,0.81,7.96-0.97,11.46c-0.65,1.14-0.73,2.76,0.32,3.66
			c1.06,0.89,2.6,1.14,3.66,2.03c1.06,0.89,3.41,3.9,4.39,6.26c1.79,4.55,1.06,9.75-1.22,14.06c2.28,0.08,4.96-0.41,6.18-2.6
			c0.94-2.28,0.76-4.86-0.49-6.99c-0.65-1.22-2.11-1.46-3.17-2.19c-1.06-0.73,0.41-1.3,1.14-1.54c1.51,0.08,2.91,0.82,3.82,2.03
			c2.84,3.58,2.6,9.26-0.81,12.27c-1.09,0.88-2.52,1.24-3.9,0.98l-17.79-1.54c0.04-0.74,0.12-1.47,0.24-2.19
			c0.98-0.24,1.95,0.24,2.84,0.41c-1.95-2.03-1.95-5.2-0.89-7.72s2.44-2.93,3.98-4.06c-2.6,0.57-4.39,2.6-5.61,4.88l-0.97-1.79
			c0.07,3.53-0.15,7.07-0.65,10.56l-5.69-0.49c0.15-0.71,0.34-1.42,0.57-2.11l2.44-0.49c0.61-2.55,0.77-5.19,0.49-7.8
			c-0.24-1.79-1.38-3.33-1.79-5.04c-0.62-3.08-0.19-6.29,1.22-9.1c0.81-1.46,2.03-2.76,2.44-4.47c0.41-1.71-1.71-2.28-1.54-3.82
			c0.19-1.05,0.55-2.07,1.06-3.01C203.12,97.86,205.88,96.39,208.48,97.86z M114.96,103.87c-0.01,0.62,0.01,1.25,0.08,1.87
			c1.06,0.83,2.27,1.44,3.58,1.79c1.14,0.32,2.68,0.41,3.33,1.54c0.65,1.14,1.3,4.47,2.6,6.42s3.82,2.6,5.36,4.39
			c1.05,1.55,1.41,3.46,0.98,5.28c-0.57,1.22-2.28,1.22-3.01,2.36s-0.08,1.06-0.16,1.62c1.71,0,3.82,0,4.96-1.54
			c1.14-1.54,2.11-4.63,2.6-7.15c-0.41,2.44-0.57,4.96-1.38,7.31l-2.28,1.63c0.16,0.24,0.32,0.81,0.49,1.14
			c1.46,0.32,3.49,0.57,4.39-0.98c1.54-3.41,2.68-7.31,5.85-9.67c2.49-0.6,5.06,0.62,6.18,2.93c0.41,0.97,1.14,2.28,0.08,3.09
			c-1.06,0.81-2.93-0.65-4.23,0.24c-1.3,0.89-0.89,1.71-0.89,2.6c3.25,0.57,6.34-0.97,9.26-2.03l0.98-2.44
			c-1.79-1.14-2.44-3.17-2.84-5.12c0.65,1.3,1.14,2.76,2.44,3.57c1.3,0.81,4.14,1.3,5.93,2.52c0.08,0.41,0.16,1.14,0.24,1.54
			c-1.22-0.24-2.6-0.97-3.82-0.41c-1.22,0.57-0.98,1.38-1.3,2.19c2.6,1.46,5.69,0.65,8.45,0.32c0.74-3.15,0.8-6.42,0.16-9.59
			c2.76,0.08,5.77-0.65,7.39-3.09c1.62-2.44,0.89-3.57,1.14-5.36s1.87-4.39,3.09-6.26l-2.03,1.14c1.34-1.7,3.03-3.08,4.96-4.06
			c-2.76-0.16-5.93,0.49-7.56,2.93c-1.62,2.44-1.71,5.2-2.6,7.8c-0.89,2.6-3.82,2.11-6.01,2.19c-1.79-4.47-4.71-8.78-9.26-10.73
			c-2.71-1.33-5.88-1.36-8.61-0.08c-3.01,1.22-5.61,3.57-8.94,3.49c-3.33-0.08-4.23-2.28-5.44-4.31c-1.22-2.03-2.19-2.19-3.09-3.41
			s-0.89-1.46-1.79-1.22c-0.89,0.24-1.79,0.73-2.52,1.22C119.11,100.46,117.08,102.33,114.96,103.87z"/>
	</g>
</g>
<g id="Layer_5">
</g>
<g id="Layer_6">
</g>
<g id="Layer_7">
</g>
<g id="Layer_8">
</g>
<g id="Layer_9">
</g>
<g id="Layer_10">
</g>
<g id="Layer_11">
</g>
<g id="Layer_12">
</g>
<g id="Layer_13">
</g>
<g id="Layer_14">
</g>
<g id="Layer_15">
</g>
</svg>
