<?xml version="1.0" encoding="utf-8"?>
<!-- Generator: Adobe Illustrator 27.8.1, SVG Export Plug-In . SVG Version: 6.00 Build 0)  -->
<svg version="1.1" xmlns="http://www.w3.org/2000/svg" xmlns:xlink="http://www.w3.org/1999/xlink" x="0px" y="0px"
	 viewBox="0 0 350 230" style="enable-background:new 0 0 350 230;" xml:space="preserve">
<style type="text/css">
	.st0{fill:#94D3EC;}
	.st1{fill-rule:evenodd;clip-rule:evenodd;fill:#1F3A6E;}
	.st2{fill:#E73F2D;}
	.st3{fill:#253E92;}
	.st4{fill:#EF3E25;}
	.st5{fill:#45BA8B;}
	.st6{fill:none;}
	.st7{fill:#F5B92B;}
	.st8{fill:#0391B3;}
	.st9{fill:#116380;}
	.st10{fill:#939598;}
	.st11{fill:#36004C;}
	.st12{fill:#F2B21C;}
	.st13{fill:#E6E6E6;}
	.st14{fill:#33BFC7;}
	.st15{fill:#463895;}
	.st16{fill:#470000;}
	.st17{fill:#FFFFFF;}
	.st18{fill:#ED1C24;}
	.st19{fill:#373D01;}
	.st20{fill:#6D2700;}
	.st21{fill:#C94502;}
	.st22{fill:#4FAF76;}
	.st23{fill:#231F20;}
	.st24{fill:#0049FF;}
	.st25{fill:#9A5E26;}
</style>
<g id="Layer_1">
</g>
<g id="Layer_2">
</g>
<g id="Layer_3">
</g>
<g id="Layer_4">
</g>
<g id="Layer_5">
</g>
<g id="Layer_6">
</g>
<g id="Layer_7">
</g>
<g id="Layer_8">
</g>
<g id="Layer_9">
</g>
<g id="Layer_10">
</g>
<g id="Layer_11">
</g>
<g id="Layer_12">
</g>
<g id="Layer_13">
</g>
<g id="Layer_14">
	<g>
		<path class="st23" d="M195.3,56.8c-12.58-2.39-24.95-14.36-24.95-14.36c4.1-11.48,21.33-20.23,21.33-20.23
			c19.35-13.47,14.83-2.12,14.83-2.12c13.26-1.5-0.89,11.96-0.89,11.96c4.38,3.01,3.76,12.1,3.76,12.1
			c11.89,10.12,4.51,12.78-2.46,14.15c-6.97,1.37-11.35-4.51-11.35-4.51L195.3,56.8z M167.82,45.59
			c-6.36,1.23-13.95,15.79-13.95,15.79c-23.72,12.24-26.52,35.82-26.8,38.08c-1.23,8.61,3.42,25.02,4.24,26.39
			c0.82,1.37,3.08,4.99-7.52,3.69c-10.6-1.3-15.31-14.15-15.31-15.59c-0.07-9.98,9.37-14.56,9.37-14.56s6.02-4.99-5.54-3.08
			c-11.55,1.91-10.6,17.3-9.02,22.97c1.57,5.67,6.56,11.42,14.83,14.49c8.27,3.08,31.51,2.87,41.43,2.87s22.97-0.34,22.97-0.34
			c-0.82-2.94-1.57-6.15-8.68-5.13c-7.11,1.03-11.89-0.62-11.89-0.62c3.08-1.78,7.86-11.07,6.63-15.72
			c-1.64-14.83-20.37-19.14-20.37-19.14c12.99-0.75,19.89,9.09,19.89,9.09c1.37-1.03,2.12-9.09,2.12-9.09l0.89,0.21
			c-0.62,3.01,1.16,11.28,2.32,14.56c1.16,3.28,5.88,12.99,9.02,18.73c3.14,5.74,3.76,6.36,10.39,6.97c6.63,0.62,6.7-2.53,5.54-3.83
			c-0.66-0.62-1.04-1.49-1.03-2.39c3.42,0.62,3.55-0.34,3.55-0.34c0.55-2.05-0.68-5.88-3.96-5.26s-4.51,0.07-4.51,0.07
			c-6.63-6.36-8.27-25.7-8.27-25.7c12.51-12.58,10.66-18.59,10.66-24.54s0.07-12.78,0.07-12.78
			C178.42,56.94,167.82,45.59,167.82,45.59z M210.68,70.82c-1.16,2.19-4.58,3.28-4.58,3.28c-0.82,4.85,3.55,6.56,4.58,7.25
			c0.58,0.32,0.86,1,0.68,1.64c4.58,3.01,11.48-2.32,11.48-2.32c-3.14,6.15-10.94,4.79-10.94,4.79
			c-3.83,12.03,2.73,17.64,4.51,21.33s1.03,15.18,0.48,18.59s-3.55,1.5-5.54,3.28c-1.98,1.78,0.75,2.94,2.05,2.8
			s1.85,0.75,4.03,0.89c2.19,0.14,2.8-0.62,4.31-3.69c0.74-1.67,1.86-3.15,3.28-4.31c-0.89,0.96,2.26,4.99,2.26,4.99
			c-4.58-0.55-9.5,3.01-2.8,4.1c6.7,1.09,23.24-0.82,23.24-0.82c0.21,7.25-3.62,10.19-10.39,10.19s-6.63,1.98-6.22,2.32
			c0.41,0.34,1.23,2.73,11.28,0.41c10.05-2.32,9.98-10.87,8.55-14.56c-1.44-3.69-1.57-3.21-0.82-18.12s-7.72-22.63-13.19-24.75
			c-5.47-2.12-8.55-4.38-9.78-12.3s-5.4-5.95-6.43-8.61c-0.77-2.28-2.14-4.31-3.96-5.88c-1.57-1.44-1.64,7.72-1.64,7.72
			S211.91,68.7,210.68,70.82z"/>
		<path class="st24" d="M195.1,138.36L195.1,138.36z M239.6,135.42l-6.43,0.41C235.36,135.76,237.55,135.62,239.6,135.42z
			 M273.85,133.92c-6.63-0.82-13.47-1.5-20.44-1.98c0.17,0.93,0.26,1.86,0.27,2.8C266.33,134.12,273.85,133.92,273.85,133.92z
			 M239.6,135.42l5.95-0.27v-0.21L239.6,135.42z M192.64,138.29c-4.17-0.41-6.36-0.89-8.07-2.39l0.62,2.39h-2.67
			c-0.14,0-13.19,0.34-22.97,0.34h-6.22c-13.06,0-28.99-0.34-35.89-2.94l-0.48-0.21c-24.2,2.32-40.2,4.58-40.2,4.58l-0.62,12.3
			c38.08-6.84,82.1-11.28,118.95-14.08L192.64,138.29L192.64,138.29z M224.08,135.49c-1.91-0.34-3.14-0.89-3.9-1.57
			c-0.75,0.35-1.57,0.51-2.39,0.48h-0.41c-1.06-0.04-2.1-0.27-3.08-0.68l-0.68-0.14h-0.34c-1.44,0-3.76-0.68-4.51-2.6
			c0-0.14-0.07-0.21-0.07-0.34h-6.02c-0.46,0.73-1.2,1.23-2.05,1.37c0.47,1.06,0.49,2.27,0.07,3.35c-0.55,1.16-1.78,2.53-4.72,2.87
			c13.6-1.03,26.25-1.85,37.19-2.46h-3.08C228.09,135.84,226.08,135.75,224.08,135.49L224.08,135.49z M183.48,142.73
			c28.78-2.53,54.96-4.31,54.96-4.31C220.04,138.51,201.67,139.95,183.48,142.73L183.48,142.73z M109.85,160.3
			c0,0,31.24-11.14,73.62-17.57c-31.45,2.8-66.04,6.49-73.08,9.71L109.85,160.3z"/>
	</g>
</g>
<g id="Layer_15">
</g>
</svg>
