<?xml version="1.0" encoding="utf-8"?>
<!-- Generator: Adobe Illustrator 27.8.1, SVG Export Plug-In . SVG Version: 6.00 Build 0)  -->
<svg version="1.1" xmlns="http://www.w3.org/2000/svg" xmlns:xlink="http://www.w3.org/1999/xlink" x="0px" y="0px"
	 viewBox="0 0 350 230" style="enable-background:new 0 0 350 230;" xml:space="preserve">
<style type="text/css">
	.st0{fill:#94D3EC;}
	.st1{fill-rule:evenodd;clip-rule:evenodd;fill:#1F3A6E;}
	.st2{fill:#E73F2D;}
	.st3{fill:#253E92;}
	.st4{fill:#EF3E25;}
	.st5{fill:#45BA8B;}
	.st6{fill:none;}
	.st7{fill:#F5B92B;}
	.st8{fill:#0391B3;}
	.st9{fill:#116380;}
	.st10{fill:#939598;}
	.st11{fill:#36004C;}
	.st12{fill:#F2B21C;}
	.st13{fill:#E6E6E6;}
	.st14{fill:#33BFC7;}
	.st15{fill:#463895;}
	.st16{fill:#470000;}
	.st17{fill:#FFFFFF;}
	.st18{fill:#ED1C24;}
	.st19{fill:#373D01;}
	.st20{fill:#6D2700;}
	.st21{fill:#C94502;}
	.st22{fill:#4FAF76;}
	.st23{fill:#231F20;}
	.st24{fill:#0049FF;}
	.st25{fill:#9A5E26;}
</style>
<g id="Layer_1">
</g>
<g id="Layer_2">
</g>
<g id="Layer_3">
</g>
<g id="Layer_4">
</g>
<g id="Layer_5">
</g>
<g id="Layer_6">
</g>
<g id="Layer_7">
</g>
<g id="Layer_8">
</g>
<g id="Layer_9">
</g>
<g id="Layer_10">
</g>
<g id="Layer_11">
</g>
<g id="Layer_12">
	<path class="st21" d="M173.82,143.58l0.98,0.2c-0.01-0.18,0.01-0.36,0.05-0.54h-0.98C173.88,143.35,173.86,143.47,173.82,143.58z
		 M174.6,160.1l1.61,2.1c0.15-1.03,0.44-1.66,0.24-1.86c-0.46-0.35-0.97-0.61-1.52-0.78L174.6,160.1z M175.92,134.68l-0.29,0.44
		l0.73,0.44l0.24-0.34L175.92,134.68z M165.31,161.32l-0.83,0.68l1.91,1.27L165.31,161.32z M169.91,160.1l0.49,0.54
		c-0.04-0.23-0.11-0.46-0.2-0.68L169.91,160.1z M171.86,162.06v0.88l-0.93,0.1l1.71,1.56c0-0.29,0.05-0.54,0.05-0.83l0.98-0.24
		L171.86,162.06z M165.51,152.72l0.15-1.71l-0.93-0.1v1.76L165.51,152.72z M169.76,144.16l0.2-0.24l-4.3-4.11L169.76,144.16z
		 M180.91,139.76L180.91,139.76z M184.43,141.52L184.43,141.52z M188.15,141.38v-0.1l0,0V141.38z M178.07,163.43l-0.59,0.78
		l0.44,0.29l0.44-0.88L178.07,163.43z M189.27,146.07l-2-1.71l1.56,2.1L189.27,146.07z M188.88,142.45L188.88,142.45z
		 M170.84,162.94v-0.39h-0.34L170.84,162.94z M184.38,141.48 M184.43,141.52L184.43,141.52
		C184.28,141.48,184.33,141.52,184.43,141.52z M156.27,71.08 M190.93,68.44l-0.98-0.49l-0.24,0.64l1.12,0.29L190.93,68.44z
		 M157.69,87.45l0.2-0.34l-0.73-0.29L157.69,87.45z M153.58,83.1 M161.06,117.42L161.06,117.42z M200.61,44.48L200.61,44.48z
		 M191.42,63.25l-0.29,0.49l2.69,1.37C192.99,64.52,192.2,63.89,191.42,63.25z M137.84,113.71h-0.15l0.1,0.1L137.84,113.71z
		 M194.6,66.14L194.6,66.14z M141.5,105.3v-0.1l0,0V105.3z M161.65,163.33c0.29-0.64,0.54-1.22,0.88-2.05l-1.91,0.2l-1.03-2
		l-3.32,0.44c-0.04-0.3-0.11-0.59-0.2-0.88l3.76-1.03c-0.34-0.64-0.64-1.08-0.68-1.17l-3.76-0.2c-0.1-0.2-0.15-0.44-0.24-0.68
		l0.98-0.78c0-2.84-0.39-5.57,0.15-8.16c0.54-2.59,1.96-5.13,3.13-8.07l1.37,1.56c-0.15-0.59-0.24-1.17-0.39-2l1.96-2.15l0.1,0.1
		c0.38-0.89,0.82-1.76,1.32-2.59c3.42-4.4,5.52-9.44,7.28-14.62c4.01-11.49,15.3-15.99,25.76-10.32c2,1.08,3.76,2.64,5.77,3.76
		c4.35,2.44,8.85,4.69,13.2,7.19c2.69,1.49,5.3,3.12,7.82,4.89c0.73,0.49,1.08,1.47,1.71,2.35l1.76,0.2v0.34l-0.98,0.24
		c0.59,0.98,0.98,2.05,1.71,2.79c2.4,2.2,2.44,4.94,2.35,7.77c24.52-30.45,19.71-75.02-10.75-99.54s-75.02-19.71-99.54,10.75
		s-19.71,75.02,10.75,99.54c9.16,7.38,20.01,12.35,31.58,14.48L161.65,163.33z M223.69,80.95c-0.15,0.78-0.29,1.27-0.39,1.81
		l0.54-0.15c1.42,4.06,2.84,8.16,4.16,11.88c-0.29,1.56-0.73,2.93-0.83,4.3c-0.12,2.83-1.21,5.54-3.08,7.68
		c-4.89,5.77-13.44,4.01-16.08-3.23c-1.91-5.23-1.42-10.46-0.24-15.79c0.67-3.27,2.3-6.27,4.69-8.6h8.8l-0.98,0.73L223.69,80.95z
		 M200.07,43.55l0.44,0.83l0.1,0.1c0,0.08,0.04,0.15,0.1,0.2c2.35,2.88,4.79,5.67,7.04,8.6c4.01,5.23,6.65,11.15,9.09,17.21
		c0.34,0.88,0.54,1.86,0.83,2.79l0.68-0.2c-0.1-0.54-0.24-1.12-0.44-1.91l2.59-0.29l-1.32,3.52l-3.42,1.52
		c0.2-0.83,0.34-1.42,0.54-2.15l-1.37-0.59l-1.03,1.17c-4.45-10.07-8.85-19.85-13.2-29.68l-0.15-0.15l0,0
		c-0.04-0.04-0.05-0.09-0.05-0.15l-0.78-0.59L200.07,43.55z M201.83,74.3c0.64,4.3,1.17,8.6-0.39,12.81
		c-1.12,3.03-2.93,5.52-6.16,6.55s-5.92-0.1-8.36-2.1c-3.28-2.74-4.6-6.55-5.72-10.46c-1.61-5.62-1.47-11.15,1.17-16.72
		c-0.29-0.44-0.54-0.88-0.83-1.27c0.64-0.34,1.12-0.78,1.71-0.88c1.76-0.39,3.52-0.98,5.23-0.83
		C195.53,62.03,200.81,67.26,201.83,74.3L201.83,74.3z M174.5,33.14c0.05,0.1,0.1,0.15,0.1,0.2c2.74,3.18,5.62,6.21,8.12,9.53
		c2.49,3.32,3.42,5.48,4.94,8.36c0.66,1.28,1.06,2.67,1.17,4.11c0.1,0.73-0.34,2.1-0.88,2.3c-0.92,0.18-1.87-0.01-2.64-0.54
		c-0.68-0.54-0.88-1.61-1.27-2.4l-1.66-3.28c0.07-0.72,0.07-1.44,0-2.15c-1.47-5.43-4.35-10.12-7.28-14.81
		c-0.19-0.36-0.36-0.74-0.49-1.12l-0.15-0.15L174.5,33.14z M164.63,66.87c0.49-0.64,0.88-1.22,1.32-1.86
		c0.24,3.08,0.24,3.08,1.22,2.88l6.5,8.56c0.49,2.44,1.03,5.28,1.61,8.12h-0.29c0.54,1.61,1.03,3.23,1.52,4.89l-0.49,0.24
		l-4.25-4.06l-0.29,0.34l4.64,4.2c0.15,7.38-7.24,12.47-13.35,9.63c-3.86-1.76-6.36-4.74-8.12-8.75s-2.64-9.58-2.35-14.57
		c0.15-2.15,0.93-4.25,1.47-6.75l1.42,0.44v-1.17h0.29c-0.06-0.4-0.09-0.81-0.1-1.22C158.37,67.26,161.26,65.16,164.63,66.87z
		 M149.42,43.4c1.71,4.6,3.32,8.95,4.99,13.35l2,1.08l-1.03,0.73l1.08,1.71c-0.29,1.22-0.59,2.54-0.98,4.01l-3.32-0.68
		C148.54,57.24,149.33,50.4,149.42,43.4z M133.29,92.98c-1.58-6.73-1.79-13.72-0.64-20.53c1.17,6.01,2.05,12.08,5.18,17.55
		c0.24,1.35,0.57,2.69,0.98,4.01c0.68,1.76,0.2,2.74-1.56,3.13C134.81,96.74,133.78,94.98,133.29,92.98z M147.03,127.69
		c-3.96-2.1-7.53-4.4-9.19-8.8c-0.2-0.34-0.45-0.65-0.73-0.93c0-5.04-1.22-9.92,1.08-14.57l2.3,1.17l-1.61-2l1.03-1.47l1.42,0.93
		l0.49,0.39l0.34,0.29l-0.24-0.39l-0.44-0.49l-0.93-1.47c1.71-1.47,3.47-2.1,5.77-1.61c3.23,0.73,5.48,2.74,7.77,4.99
		c3.37,3.37,5.92,7.04,7.09,11.64c0.07,0.67,0.07,1.34,0,2l0,0c0,1.47,1.22,3.13-0.59,4.35l-0.1,0.15l0.15-0.1
		c-0.05,0.54-0.1,1.08-0.2,1.91c-2.25-2.15-4.3-4.11-6.4-6.01l-0.29,0.29c2.1,2.2,4.16,4.4,6.21,6.65
		C157,129.2,150.79,129.74,147.03,127.69z M147.42,120.16 M166.88,163.92c0.01-0.18,0.05-0.36,0.1-0.54h-0.39L166.88,163.92z
		 M138.96,114.88l0.34-0.54l-1.52-0.59L138.96,114.88z M168.69,152.04l-0.15,0.78l0.39,0.1l0.29-0.68L168.69,152.04z M143.46,104.32
		 M147.42,120.16 M184.63,143.38l0.39-0.59l-2.88-1.42L184.63,143.38z M215.43,130.43l-0.88,0.39l0.29,0.34l0.78-0.39L215.43,130.43
		z M214.4,125.68l0.88,0.24l0.15-1.61l-0.54-0.1C214.74,124.71,214.55,125.2,214.4,125.68z M213.71,151.4h1.17
		c0.01-0.2-0.01-0.39-0.05-0.59l-1.17,0.1L213.71,151.4z M188.44,140.45v-0.1h-0.05L188.44,140.45z M207.07,156.78
		c0,0.15-0.05,0.29-0.05,0.44l1.86-0.98c-0.07-0.39-0.11-0.88-0.15-1.47C208.04,155.65,207.55,156.19,207.07,156.78z M208.83,149.4
		l0.64,0.44l0.24-0.44l-0.68-0.34C208.94,149.16,208.87,149.27,208.83,149.4z M218.6,133.12L218.6,133.12z M210.59,153.4l-0.64-0.49
		l-0.24,0.29l0.64,0.49L210.59,153.4z M160.86,140.45 M160.77,140.5 M223.15,125.78l-0.64,0.68l0.44,0.64l0.73-0.73L223.15,125.78z
		 M201.2,137.96h-0.1l0.15,0.1L201.2,137.96z M220.36,130.13l-0.93,0.39c-0.39,0.93,0.24,1.42,1.81,1.96
		C220.85,131.5,220.61,130.82,220.36,130.13z M217.97,129.79l-0.64,0.44c0.24,0.44,0.54,0.88,0.83,1.32l0.68-0.49L217.97,129.79z
		 M218.65,133.12L218.65,133.12c0.04-0.04,0.05-0.09,0.05-0.15L218.65,133.12z M218.6,133.12 M218.7,132.92 M212.93,134.83
		l1.56-0.24l-0.1-0.78l-1.47,0.15V134.83z M196.7,140.3L196.7,140.3z M192.25,158.83h-0.73v0.54l0.73-0.2
		C192.3,159.08,192.25,158.98,192.25,158.83z M192.99,119.48 M196.75,140.4 M182.67,163.57l0.44,0.83l0.64-0.1
		c-0.15-0.33-0.28-0.68-0.39-1.03L182.67,163.57z M191.57,161.47c-0.29-0.59-1.12-0.88-1.76-1.27l-0.73,0.59l1.12,2.44l1.12-0.29
		C191.52,162.4,191.76,161.81,191.57,161.47z M186.63,143.77l0.34,0.29l-0.24-0.39l-1.52-1.37L186.63,143.77z M194.89,158.68
		l-0.54-0.29c-0.2,0.39-0.44,0.73-0.64,1.08l0.68,0.34L194.89,158.68z M195.77,139.28 M192.94,119.57L192.94,119.57z M197.34,123.88
		 M199.15,155.31l-1.47,0.15c0.05,0.29,0.15,0.59,0.2,0.83l1.37-0.34C199.19,155.74,199.15,155.53,199.15,155.31z M195.87,124.76
		l-1.37-0.83c0,0.1-0.01,0.2-0.05,0.29l1.12,1.03L195.87,124.76z M195.82,139.28 M202.08,158.1l-4.69,3.13l0,0
		c1.96-0.64,3.86-1.37,5.77-2.2L202.08,158.1z M199.73,136.54L199.73,136.54z"/>
</g>
<g id="Layer_13">
</g>
<g id="Layer_14">
</g>
<g id="Layer_15">
</g>
</svg>
