<?xml version="1.0" encoding="utf-8"?>
<!-- Generator: Adobe Illustrator 27.8.1, SVG Export Plug-In . SVG Version: 6.00 Build 0)  -->
<svg version="1.1" xmlns="http://www.w3.org/2000/svg" xmlns:xlink="http://www.w3.org/1999/xlink" x="0px" y="0px"
	 viewBox="0 0 350 230" style="enable-background:new 0 0 350 230;" xml:space="preserve">
<style type="text/css">
	.st0{fill:#94D3EC;}
	.st1{fill-rule:evenodd;clip-rule:evenodd;fill:#1F3A6E;}
	.st2{fill:#E73F2D;}
	.st3{fill:#253E92;}
	.st4{fill:#EF3E25;}
	.st5{fill:#45BA8B;}
	.st6{fill:none;}
	.st7{fill:#F5B92B;}
	.st8{fill:#0391B3;}
	.st9{fill:#116380;}
	.st10{fill:#939598;}
	.st11{fill:#36004C;}
	.st12{fill:#F2B21C;}
	.st13{fill:#E6E6E6;}
	.st14{fill:#33BFC7;}
	.st15{fill:#463895;}
	.st16{fill:#470000;}
	.st17{fill:#FFFFFF;}
	.st18{fill:#ED1C24;}
	.st19{fill:#373D01;}
	.st20{fill:#6D2700;}
	.st21{fill:#C94502;}
	.st22{fill:#4FAF76;}
	.st23{fill:#231F20;}
	.st24{fill:#0049FF;}
	.st25{fill:#9A5E26;}
</style>
<g id="Layer_1">
</g>
<g id="Layer_2">
</g>
<g id="Layer_3">
</g>
<g id="Layer_4">
</g>
<g id="Layer_5">
	<path class="st11" d="M122.9,118.21c0,1.06-0.19,2.12-0.55,3.11c-2.06,2.81-4.62,4.47-8.74,5.47l-0.95,0.2
		c-7.88,1.61-16.57-4.12-23.8-0.55c-3.21,1.61-5.42,4.82-6.43,8.29c-1,3.47-0.95,7.13-0.65,10.75c1.1,12.81,6.58,26.41,18.08,32.24
		c-16.82-7.28-30.38-23.15-32.14-41.38c-0.3-2.86-0.25-5.88,0.7-8.59c0.95-2.71,3.11-5.12,5.88-5.93c2.76-0.8,6.13,0.3,9.19,0.05
		c4.72-0.35,8.59-3.77,12-7.03c0.46-0.32,0.78-0.81,0.9-1.36c0.15-1.1-1.1-1.76-1.91-2.51c-2.46-2.11-1.76-5.98-2.06-9.19
		c-0.49-4.65-3.31-8.74-7.48-10.85c1.35-2.77,2.27-5.74,2.71-8.79c0.05-0.55,0.1-1.26-0.35-1.61c-0.45-0.35-1.16-0.1-1.71,0.15
		c-2.04,1.08-3.89,2.49-5.47,4.17c1.07-1.8,1.81-3.77,2.21-5.83c0.1-0.6,0.15-1.36-0.3-1.81c-0.45-0.45-1.51-0.35-2.26-0.05
		c-8.34,3.21-15.37,9.04-22.6,14.31c-7.23,5.27-15.27,10.09-24.21,10.85c2.16-0.2,9.14-10.95,10.9-12.86
		c3.97-4.37,8.09-8.54,12.35-12.55c7.58-7.18,15.57-13.61,25.41-17.53c1.61-0.7,3.82-1.16,4.87,0.25s0.6,1.66,0.55,2.56
		c-0.15,2.89-0.92,5.72-2.26,8.29c7.67,2.09,14.08,7.35,17.63,14.46c3.31,6.78,3.82,14.91,8.44,20.84c1.16,1.5,2.55,2.81,4.12,3.87
		c1.69,1.15,3.55,2.02,5.52,2.56C122.04,113.83,122.9,115.98,122.9,118.21z M41.64,106.96l0.25-0.15l-0.3,0.1L41.64,106.96z
		 M110.69,181.89l-2.51,0.7c-1.71,0.45-3.41,0.8-5.12,1.16l-2.56,0.4l-0.65,0.1h-0.65l-1.31,0.15l-1.31,0.15h-11.6l-1.31-0.1
		l-1.31-0.1h-1.26l-0.65-0.1l-0.65-0.1h-0.6l-0.65-0.1l-1.26-0.2l-0.65-0.15l-0.6-0.1l-0.65-0.15l-0.6-0.1l-0.65-0.15h-0.3l-0.3-0.1
		l-1.26-0.3c-6.62-1.65-12.95-4.29-18.78-7.83c-23.76-14.11-36.78-41.07-33.04-68.45c0.45-3.31,1.16-6.59,2.11-9.79
		c0.45-1.61,1-3.21,1.61-4.77c0.6-1.56,1.21-3.06,1.91-4.62c0.7-1.56,1.46-2.96,2.26-4.47l0.65-1.05l0.6-1.1
		c0.13-0.16,0.25-0.32,0.35-0.5l0.35-0.55c0.2-0.36,0.42-0.71,0.65-1.05l0.7-1.05l0.7-1l0.2-0.25l0.15-0.25l0.4-0.5l0.35-0.55
		l0.4-0.45l0.35-0.5l0.4-0.5l0.8-1l0.8-0.95l0.4-0.45l0.4-0.5l1.71-1.81l0.9-0.9l0.2-0.25c0.05-0.05,0.15-0.1,0.2-0.2l0.45-0.45
		l0.45-0.4l0.45-0.45l0.5-0.4l0.45-0.45l0.9-0.8l0.5-0.45l0.5-0.4c1.27-1.09,2.59-2.11,3.97-3.06l1-0.7l1.05-0.7l1.05-0.7l1.05-0.65
		c5.73-3.53,11.96-6.17,18.48-7.83c6.54-1.71,13.29-2.46,20.04-2.21c6.79,0.3,13.51,1.56,19.94,3.77c3.22,1.14,6.36,2.5,9.39,4.07
		l4.47,2.51c1.46,0.9,2.86,1.86,4.27,2.86c1.41,1,2.71,2.06,4.07,3.16c1.36,1.1,2.56,2.26,3.82,3.47c1.26,1.21,2.41,2.46,3.57,3.77
		s2.26,2.61,3.31,3.97l0.8,1.05l0.35,0.5l0.4,0.55l0.75,1.05l0.35,0.55l0.35,0.55l0.35,0.55l0.35,0.55l0.7,1.1l1.31,2.26
		c0.85,1.51,1.66,3.06,2.36,4.62c0.7,1.56,1.46,3.21,2.06,4.87h0.1c-1.93-6.82-4.89-13.31-8.79-19.23
		c-1.96-2.97-4.14-5.79-6.53-8.44l-0.45-0.45l-0.45-0.5l-0.45-0.5l-0.25-0.25l-0.25-0.2l-0.9-0.95l-1-0.95
		c-1.31-1.21-2.61-2.41-4.02-3.52c-2.8-2.27-5.75-4.33-8.84-6.18c-1.56-0.9-3.16-1.76-4.77-2.56c-1.61-0.8-3.26-1.51-4.97-2.16
		c-1.71-0.65-3.36-1.31-5.07-1.86s-3.52-1-5.27-1.41l-1.31-0.3l-1.36-0.25l-0.65-0.15l-0.65-0.1l-0.7-0.1l-0.65-0.1l-1.36-0.2
		l-1.36-0.15l-1.36-0.2l-1.36-0.1c-7.27-0.58-14.59-0.02-21.69,1.66c-3.56,0.81-7.06,1.9-10.45,3.26l-1.31,0.5l-1.26,0.55l-0.6,0.25
		l-0.65,0.3l-0.6,0.3l-0.3,0.15l-0.3,0.15l-1.26,0.6l-1.21,0.65l-0.6,0.3l-0.6,0.35l-1.21,0.65c-3.16,1.87-6.19,3.96-9.04,6.28
		l-0.5,0.4l-0.55,0.45l-1.05,0.9l-0.5,0.45l-0.5,0.45c-0.18,0.15-0.35,0.32-0.5,0.5l-0.5,0.45l-1.96,1.91l-1.91,2.01l-0.45,0.5
		l-0.45,0.55l-0.9,1l-0.85,1.05l-0.45,0.55l-0.45,0.55L28.18,71l-0.4,0.55l-0.4,0.55l-0.2,0.25l-0.2,0.3l-0.8,1.1l-0.8,1.16
		l-0.75,1.16l-0.35,0.55c-0.14,0.19-0.25,0.39-0.35,0.6l-0.75,1.16l-0.65,1.21c-0.9,1.61-1.76,3.26-2.51,4.92
		c-0.75,1.66-1.51,3.36-2.16,5.07c-0.65,1.71-1.26,3.47-1.76,5.22l-0.4,1.31c-0.1,0.45-0.25,0.9-0.35,1.36l-0.15,0.65l-0.15,0.65
		c-0.1,0.45-0.25,0.9-0.35,1.36l-0.25,1.36l-0.25,1.36c-0.1,0.45-0.15,0.9-0.25,1.36l-0.1,0.7c-0.01,0.22-0.04,0.44-0.1,0.65
		c-0.25,1.81-0.4,3.67-0.5,5.52c-0.1,1.86-0.15,3.67-0.15,5.47s0.15,3.67,0.35,5.52c0.01,0.45,0.04,0.91,0.1,1.36l0.2,1.36v0.35
		c0.04,0.11,0.06,0.23,0.05,0.35l0.1,0.65c0.1,0.45,0.15,0.95,0.25,1.41l0.25,1.36l0.25,1.31l0.15,0.7l0.15,0.65l0.15,0.65l0.15,0.7
		l0.35,1.31c0.04,0.23,0.1,0.45,0.2,0.65l0.15,0.7l0.2,0.65l0.2,0.65c0.16,0.43,0.29,0.86,0.4,1.31c0.6,1.76,1.26,3.47,1.96,5.17
		s1.46,3.31,2.26,4.97s1.76,3.21,2.71,4.82c0.95,1.61,1.96,3.06,3.01,4.57c2.14,2.95,4.49,5.73,7.03,8.34
		c5.12,5.21,10.99,9.61,17.43,13.06c6.39,3.43,13.26,5.85,20.39,7.18c7.04,1.32,14.24,1.54,21.34,0.65c1.81-0.2,3.57-0.55,5.27-0.85
		l1.31-0.3h0.35l0.3-0.1l0.65-0.15l2.56-0.7c3.39-0.96,6.7-2.18,9.89-3.67L110.69,181.89z"/>
</g>
<g id="Layer_6">
</g>
<g id="Layer_7">
</g>
<g id="Layer_8">
</g>
<g id="Layer_9">
</g>
<g id="Layer_10">
</g>
<g id="Layer_11">
</g>
<g id="Layer_12">
</g>
<g id="Layer_13">
</g>
<g id="Layer_14">
</g>
<g id="Layer_15">
</g>
</svg>
