<?xml version="1.0" encoding="utf-8"?>
<!-- Generator: Adobe Illustrator 27.8.1, SVG Export Plug-In . SVG Version: 6.00 Build 0)  -->
<svg version="1.1" xmlns="http://www.w3.org/2000/svg" xmlns:xlink="http://www.w3.org/1999/xlink" x="0px" y="0px"
	 viewBox="0 0 350 230" style="enable-background:new 0 0 350 230;" xml:space="preserve">
<style type="text/css">
	.st0{fill:#94D3EC;}
	.st1{fill-rule:evenodd;clip-rule:evenodd;fill:#1F3A6E;}
	.st2{fill:#E73F2D;}
	.st3{fill:#253E92;}
	.st4{fill:#EF3E25;}
	.st5{fill:#45BA8B;}
	.st6{fill:none;}
	.st7{fill:#F5B92B;}
	.st8{fill:#0391B3;}
	.st9{fill:#116380;}
	.st10{fill:#939598;}
	.st11{fill:#36004C;}
	.st12{fill:#F2B21C;}
	.st13{fill:#E6E6E6;}
	.st14{fill:#33BFC7;}
	.st15{fill:#463895;}
	.st16{fill:#470000;}
	.st17{fill:#FFFFFF;}
	.st18{fill:#ED1C24;}
	.st19{fill:#373D01;}
	.st20{fill:#6D2700;}
	.st21{fill:#C94502;}
	.st22{fill:#4FAF76;}
	.st23{fill:#231F20;}
	.st24{fill:#0049FF;}
	.st25{fill:#9A5E26;}
</style>
<g id="Layer_1">
</g>
<g id="Layer_2">
</g>
<g id="Layer_3">
</g>
<g id="Layer_4">
</g>
<g id="Layer_5">
</g>
<g id="Layer_6">
</g>
<g id="Layer_7">
</g>
<g id="Layer_8">
</g>
<g id="Layer_9">
</g>
<g id="Layer_10">
</g>
<g id="Layer_11">
	<path class="st20" d="M138.8,95.54l-0.31-0.26h-0.05c0.07,0.2,0.18,0.39,0.31,0.56c0.48,0.33,0.8,0.86,0.87,1.44
		c0.07,0.52,0.19,1.04,0.36,1.54c0.11,0.46,0.2,0.92,0.26,1.39c0.15,1.28,0.36,2.62,0.46,3.95c0.02,0.91-0.02,1.82-0.1,2.72
		c0.01,0.34-0.01,0.69-0.05,1.03l-0.62,3.59c-0.08,0.59-0.22,1.18-0.41,1.75c-0.43,1.56-1.05,3.06-1.85,4.47
		c-0.62,1.03-1.18,2.11-1.85,3.08c-1.21,1.82-2.76,3.39-4.57,4.62c-1.11,0.75-2.3,1.37-3.54,1.85c-1.27,0.46-2.6,0.7-3.95,0.72
		c-1.01,0.02-2.02-0.13-2.98-0.46c-0.87-0.24-1.71-0.57-2.52-0.98c-0.81-0.41-1.57-0.91-2.26-1.49c-0.81-0.63-1.57-1.34-2.26-2.11
		c-1.13-1.2-2.1-2.55-2.88-4c-0.67-1.39-1.44-2.72-2.05-4.16c-0.43-0.99-0.81-2-1.13-3.03c-0.34-0.91-0.63-1.83-0.87-2.77
		c-0.31-1.08-0.46-2.21-0.72-3.29c-0.41-1.8-0.62-3.65-0.62-5.49c-0.05-1.23-0.21-2.46-0.21-3.7s0.15-3.23,0.31-4.83
		c0.14-1.33,0.37-2.65,0.67-3.95c0.41-1.75,0.87-3.54,1.44-5.24c0.46-1.43,1.01-2.84,1.64-4.21c0.53-1.07,1.13-2.09,1.8-3.08
		c0.41-0.67,0.98-1.33,1.44-1.95c0.46-0.62,1.13-1.39,1.59-2.11c0.66-0.89,1.28-1.82,1.85-2.77c0.62-1.08,1.18-2.21,1.75-3.39
		l1.85-3.9c0.92-1.85,1.8-3.65,2.77-5.49c0.48-0.85,1.01-1.67,1.59-2.46c0.25-0.27,0.54-0.5,0.87-0.67h0.51
		c0.09,0.23,0.11,0.48,0.05,0.72c-0.36,1.33-0.82,2.62-1.23,3.9c-0.41,1.28-0.67,2.26-0.92,3.44c-0.28,1.01-0.5,2.04-0.67,3.08
		c-0.18,1.22-0.28,2.46-0.31,3.7c0.02,1.04,0.18,2.08,0.46,3.08c0.56,1.68,1.57,3.17,2.93,4.31c1.3,1.15,2.5,2.4,3.59,3.75
		c1.59,2,3.08,4.11,4.52,6.21c0.77,1.13,1.33,2.36,2,3.54c0.42,0.7,0.79,1.42,1.13,2.16c0.46,0.98,0.87,2,1.33,3.03l0.62,1.59
		c0.05,0.15,0.05,0.36,0.1,0.51L138.8,95.54z M210.43,109.61c0.17,1.04,0.41,2.07,0.72,3.08c0.35,0.99,0.78,1.95,1.28,2.88
		c0.49,1.03,1.07,2.01,1.75,2.93c0.77,1.05,1.61,2.04,2.52,2.98c1.05,1.03,2.22,1.93,3.49,2.67c1.34,0.78,2.77,1.38,4.26,1.8
		c0.57,0.16,1.16,0.25,1.75,0.26c1.26,0.11,2.54,0.09,3.8-0.05c1.13-0.22,2.22-0.6,3.23-1.13c1.04-0.52,2.02-1.16,2.93-1.9
		c1.58-1.4,2.92-3.04,3.95-4.88c1.13-2.09,2.04-4.29,2.72-6.57c0.27-0.93,0.49-1.87,0.67-2.82c0.05-0.26,0.05-0.51,0.1-0.77
		c0.05-0.26,0.36-1.64,0.51-2.46c0.15-0.82,0.21-2.05,0.31-3.13l0.31-3.8c0-0.51-0.05-1.03-0.05-1.54s0.05-0.77,0.05-1.18
		l-0.31-3.49c-0.1-1.03-0.15-2-0.31-3.03c-0.15-1.03-0.56-2.46-0.87-3.65c-0.28-1.34-0.64-2.66-1.08-3.95
		c-0.51-1.52-1.11-3.01-1.8-4.47c-0.55-1.29-1.19-2.54-1.9-3.75c-0.98-1.69-2-3.29-3.03-4.93l-1.49-2.36l-1.8-3.13l-1.75-3.29
		l-1.08-2.11c-0.46-0.87-0.87-1.75-1.39-2.52c-0.51-0.77-0.82-1.59-1.64-2.05c-0.82-0.46-0.46-0.21-0.62-0.1
		c-0.16,0.1-0.25,0.28-0.26,0.46c0.05,0.59,0.16,1.17,0.31,1.75c0.21,0.87,0.47,1.73,0.77,2.57c0.56,1.69,1.23,3.39,1.75,5.08
		c0.33,1.05,0.54,2.14,0.62,3.23c0.1,1.18,0.21,2.41-0.26,3.54c-0.46,1.13-0.82,2-1.23,2.98c-0.69,1.5-1.61,2.89-2.72,4.11
		c-0.72,0.87-1.64,1.54-2.41,2.31c-1.54,1.54-3.08,2.98-4.47,4.62c-0.96,1.24-1.84,2.54-2.62,3.9c-0.67,1.18-1.28,2.46-1.85,3.7
		c-0.56,1.23-0.62,1.54-0.98,2.26c-0.53,1.05-0.94,2.15-1.23,3.29c-0.26,1.23-0.67,2.46-0.87,3.7s-0.26,2.82-0.46,4.57
		C209.55,106.94,210.17,108.01,210.43,109.61z M172.64,71.1c0,1.63-0.1,3.26-0.31,4.88c-0.22,1.64-0.55,3.27-0.98,4.88
		c-0.4,1.31-0.88,2.6-1.44,3.85c-0.82,2.03-2.08,3.86-3.7,5.34c-0.91,0.9-1.97,1.63-3.13,2.16c-1.12,0.52-2.32,0.83-3.54,0.92
		c-0.75,0.12-1.5,0.19-2.26,0.21c-1.28-0.15-2.62-0.26-3.8-0.82c-1.01-0.37-2.01-0.8-2.98-1.28c-2.23-1.26-4.23-2.89-5.9-4.83
		c-1.38-1.52-2.54-3.23-3.44-5.08c-0.56-1.28-1.23-2.62-1.75-3.95c-0.31-0.91-0.57-1.83-0.77-2.77c-0.24-0.81-0.43-1.63-0.56-2.46
		c-0.21-1.03-0.31-2.05-0.41-3.08c-0.1-1.03-0.26-2.26-0.31-3.39c-0.05-1.13,0.05-2.82,0.1-4.26v-0.31c0.1-1.23,0.15-2.46,0.36-3.65
		c0.2-1.34,0.51-2.66,0.92-3.95c0.51-1.39,1.13-2.72,1.75-4.06c0.61-1.13,1.28-2.23,2-3.29c0.76-1.07,1.59-2.1,2.46-3.08l5.13-5.8
		c0.98-1.13,1.95-2.31,2.98-3.44c1.03-1.13,1.64-1.9,2.41-2.93c0.77-1.03,2.26-3.18,3.29-4.83c1.03-1.64,1.69-2.67,2.52-3.95
		c0.59-0.96,1.24-1.89,1.95-2.77c0.23-0.28,0.56-0.46,0.92-0.51c0.46-0.1,0.67,0.26,0.51,0.67c-0.72,1.44-1.44,2.88-2.05,4.31
		s-0.92,2.36-1.49,3.49c-0.47,1.03-0.7,2.15-0.67,3.29c-0.03,1.4,0.4,2.77,1.23,3.9c0.67,0.92,1.39,1.8,2,2.77s1.28,2.11,1.95,3.18
		v0.26c-3.34-1.8-6.78-2.93-10.73-2.16c1.63,0.19,3.21,0.66,4.67,1.39c1.32,0.69,2.53,1.57,3.59,2.62c0.67,0.63,1.31,1.3,1.9,2
		c1.16,1.34,2.14,2.83,2.93,4.42c0.41,0.98,0.98,1.85,1.39,2.88c0.44,1.07,0.82,2.17,1.13,3.29c0.32,0.87,0.59,1.77,0.82,2.67
		c0.21,0.87,0.31,1.8,0.46,2.67c0.15,0.87,0.36,2.05,0.51,3.08c0.15,1.03,0.1,1.18,0.1,1.75C172.54,67.25,172.64,69.15,172.64,71.1z
		 M156.52,78.54c-2.67-0.05-4.83,1.8-4.88,4.88c-0.06,2.55,1.96,4.67,4.51,4.72c0.09,0,0.17,0,0.26,0c2.82,0.21,4.77-2.31,4.88-4.42
		C161.39,80.34,158.98,78.54,156.52,78.54z M212.48,65.81c-0.08,1.38-0.23,2.75-0.46,4.11c-0.05,0.31-0.05,0.67-0.1,0.98
		c-0.05,0.31-0.21,1.44-0.36,2.16l-0.46,2.11c-0.15,0.67-0.26,1.33-0.46,2s-0.72,2-1.13,2.98c-0.29,0.76-0.63,1.5-1.03,2.21
		c-0.39,0.84-0.86,1.65-1.39,2.41c-0.84,1.13-1.77,2.2-2.77,3.18c-1.38,1.42-3.04,2.54-4.88,3.29c-1.05,0.5-2.18,0.83-3.34,0.98
		c-0.88,0.14-1.78,0.22-2.67,0.26c-1.16,0.04-2.31-0.15-3.39-0.56c-0.82-0.36-1.69-0.62-2.46-1.03c-0.85-0.46-1.67-0.98-2.46-1.54
		c-1.11-0.8-2.06-1.81-2.77-2.98c-0.72-1.06-1.36-2.18-1.9-3.34c-0.49-1.17-0.9-2.37-1.23-3.59c-0.21-0.72-0.21-1.49-0.41-2.26
		c-0.56-2.41-0.21-4.83-0.26-7.24c0.03-0.84,0.12-1.68,0.26-2.52c0.03-0.46,0.08-0.93,0.15-1.39c0.1-0.82,0.31-1.64,0.46-2.46
		l0.46-2.16c0.36-1.23,0.72-2.46,1.18-3.7c0.37-1.17,0.81-2.32,1.33-3.44c0.41-0.87,0.92-1.75,1.44-2.62
		c0.51-0.87,1.59-2.67,2.46-3.95c0.87-1.28,1.33-2,2-3.03c0.67-1.03,1.59-2.62,2.31-3.9c0.43-0.71,0.83-1.45,1.18-2.21
		c0.31-0.67,0.51-1.28,0.77-1.95c0.27-0.71,0.46-1.45,0.56-2.21c0.07-0.91,0.03-1.82-0.1-2.72c-0.15-1.28-0.87-2.41-1.39-3.54
		s-0.98-1.95-1.49-2.98l-1.69-3.44c-0.22-0.48-0.41-0.98-0.56-1.49c-0.03-0.15-0.03-0.31,0-0.46c0.21,0.05,0.46,0.05,0.56,0.15
		c0.42,0.41,0.8,0.85,1.13,1.33c0.77,1.08,1.49,2.11,2.21,3.23c1.03,1.63,2.25,3.13,3.65,4.47c0.98,0.92,2.11,1.75,3.13,2.62
		l3.59,3.13c1.28,1.18,2.57,2.31,3.8,3.54s1.18,1.59,1.8,2.36l0.21,0.62c-3.13-1.64-6.32-2.05-9.6-0.92h0.98
		c1.07-0.01,2.14,0.2,3.13,0.62c1.69,0.62,3.2,1.65,4.42,2.98c0.87,0.97,1.63,2.04,2.26,3.18c0.95,1.68,1.67,3.47,2.16,5.34
		c0.31,1.18,0.46,2.41,0.72,3.65C212.69,59.29,212.58,62.52,212.48,65.81z M193.79,78.49c-1.34-0.06-2.63,0.51-3.49,1.54
		c-0.11,0.1-0.2,0.22-0.26,0.36c-0.7,0.81-1.06,1.86-1.03,2.93c-0.15,1.95,1.13,3.54,2.62,4.31l0.56,0.26l1.13,0.31
		c2.62,0.24,4.97-1.65,5.29-4.26C198.82,80.29,196.31,78.59,193.79,78.49z M214.53,134.4c-0.13,1.12-0.34,2.24-0.62,3.34
		c-0.14,0.71-0.37,1.4-0.67,2.05c-0.54,1.21-1.14,2.39-1.8,3.54c-0.52,0.87-1.12,1.7-1.8,2.46c-1.48,1.82-3.15,3.47-4.98,4.93
		l-2.88,2.11c-1.32,0.9-2.75,1.62-4.26,2.16l-1.08,0.36c-0.18,0.08-0.33,0.23-0.41,0.41c-0.37,1.65-1.15,3.19-2.26,4.47
		c-0.95,1.26-2.18,2.28-3.59,2.98c-1.14,0.6-2.33,1.11-3.54,1.54c-1.01,0.31-2.04,0.57-3.08,0.77c-2.38,0.58-4.84,0.8-7.29,0.67
		c-0.82,0-1.64,0.05-2.46,0c-0.82-0.05-2.52-0.26-3.8-0.46s-2.05-0.36-3.08-0.62c-2.41-0.72-4.72-1.69-6.62-3.34
		c-1.42-1.18-2.52-2.7-3.18-4.42l-0.62-1.64c-0.08-0.15-0.2-0.28-0.36-0.36c-1.35-0.48-2.67-1.05-3.95-1.69
		c-1.39-0.84-2.73-1.77-4-2.77c-1.55-1.13-2.98-2.42-4.26-3.85c-1.47-1.58-2.71-3.36-3.7-5.29c-0.56-1.18-1.03-2.31-1.49-3.54
		c-0.19-0.69-0.33-1.39-0.41-2.11c-0.18-0.71-0.28-1.43-0.31-2.16c0.03-0.86,0.12-1.72,0.26-2.57c0.01-0.31,0.04-0.62,0.1-0.92
		c0.41-1.55,0.99-3.05,1.75-4.47c0.75-1.34,1.65-2.6,2.67-3.75c1.28-1.45,2.72-2.75,4.31-3.85c0.92-0.72,1.95-1.33,2.93-1.95
		c0.98-0.62,2.41-1.44,3.49-2.26c1.44-1.08,2.76-2.3,3.95-3.65c1.42-1.61,2.54-3.48,3.29-5.49c0.41-1.13,0.77-2.31,1.18-3.49
		c0.41-1.18,0.82-2.52,1.39-3.75c0.66-1.71,1.85-3.16,3.39-4.16c0.84-0.48,1.74-0.86,2.67-1.13c1.03-0.36,2.11-0.56,3.13-0.82
		c0.32-0.1,0.64-0.15,0.98-0.15c1.44,0.1,2.88-0.51,4.31,0c0.59,0.09,1.2,0.12,1.8,0.1l2.36,0.51l1.54,0.36
		c0.78,0.3,1.54,0.66,2.26,1.08c0.87,0.62,1.75,1.18,2.31,2.16c0.56,0.98,1.13,1.9,1.54,2.88c0.41,0.98,0.82,2.41,1.23,3.59
		c0.28,1.09,0.64,2.15,1.08,3.18c0.36,0.92,0.87,1.75,1.33,2.67c0.46,0.92,0.67,0.62,0.51,1.13l0.15,0.1
		c0.16,0.09,0.3,0.21,0.41,0.36c0.7,0.95,1.51,1.81,2.41,2.57c0.99,0.94,2.06,1.8,3.18,2.57c0.92,0.62,1.95,1.13,2.93,1.75
		c0.98,0.62,1.64,1.13,2.41,1.75c0.77,0.62,1.9,1.49,2.77,2.26c0.8,0.74,1.56,1.53,2.26,2.36c1.03,1.2,1.89,2.53,2.57,3.95
		c0.64,1.26,1.11,2.61,1.39,4C214.52,132.03,214.6,133.22,214.53,134.4z M166.07,107.14c0.07,0.57,0.19,1.14,0.36,1.69
		c0.54,1.13,1.24,2.18,2.05,3.13c1.03,1.18,2.19,2.25,3.44,3.18c1.01,0.78,2.19,1.31,3.44,1.54c1.32,0.22,2.68-0.01,3.85-0.67
		c0.93-0.49,1.79-1.09,2.57-1.8c1.47-1.17,2.74-2.57,3.75-4.16c0.56-0.81,0.89-1.74,0.98-2.72c0.03-0.6,0.02-1.2-0.05-1.8
		c-0.04-0.68-0.17-1.35-0.36-2c-0.26-0.87-0.62-1.69-0.87-2.57c-0.32-0.89-0.8-1.71-1.44-2.41c-1.08-1.13-2.52-1.54-3.95-1.9
		c-1.1-0.19-2.22-0.31-3.34-0.36c-1.83-0.01-3.65,0.29-5.39,0.87c-1.15,0.41-2.16,1.16-2.88,2.16c-0.98,1.39-1.33,2.98-1.8,4.52
		C166.08,104.91,165.95,106.03,166.07,107.14z M161.19,150.94c1.94,0.17,3.89-0.02,5.75-0.56c1.24-0.4,2.42-0.99,3.49-1.75
		c2.12-1.52,3.38-3.96,3.39-6.57v-14.63c0-1.85,0.05-3.7,0-5.6c-0.01-0.24-0.13-0.46-0.31-0.62l-2.46-0.98
		c-1.23-0.46-2.21-1.33-3.23-2.16c-1.03-0.82-1.69-1.44-2.52-2.16c-0.59-0.52-1.38-0.76-2.16-0.67c-0.86,0.08-1.7,0.33-2.46,0.72
		c-1.49,0.82-3.03,1.54-4.52,2.41c-1.49,0.87-3.08,1.8-4.57,2.77c-1.19,0.79-2.33,1.66-3.39,2.62c-1.46,1.26-2.71,2.75-3.7,4.42
		c-0.65,1.1-1.12,2.29-1.39,3.54c-0.29,1.47-0.22,2.98,0.21,4.42c0.26,0.82,0.36,1.75,0.77,2.46c0.41,0.72,1.44,2.31,2.16,3.49
		c1.16,1.54,2.5,2.94,4,4.16c1.1,0.97,2.31,1.81,3.59,2.52c1.41,0.73,2.89,1.32,4.42,1.75C159.22,150.79,160.2,150.93,161.19,150.94
		z M190.3,156.38l-3.08-0.41c-1.18-0.21-2.36-0.41-3.54-0.72s-2.11-0.67-3.18-0.98s-1.33-0.62-2.05-0.82
		c-0.83-0.27-1.7-0.4-2.57-0.41c-0.9,0.14-1.78,0.4-2.62,0.77l-4.21,1.39c-0.66,0.2-1.32,0.36-2,0.46c-0.79,0.22-1.6,0.39-2.41,0.51
		l-2.31,0.15l0.31,0.56c1.39,1.69,3.29,2.57,5.34,3.18c1.02,0.33,2.07,0.55,3.13,0.67c1.29,0.22,2.59,0.35,3.9,0.41
		c1.89,0.13,3.78,0.02,5.65-0.31l1.95-0.31c0.85-0.17,1.69-0.4,2.52-0.67c0.87-0.27,1.71-0.61,2.52-1.03
		C188.74,158.29,189.66,157.44,190.3,156.38z M209.25,130.91c-0.27-0.77-0.58-1.52-0.92-2.26c-0.51-0.85-1.05-1.67-1.64-2.46
		c-1.23-1.57-2.68-2.96-4.31-4.11c-1.13-0.82-2.36-1.54-3.59-2.26s-2-1.28-3.03-1.85l-4-2.11c-0.76-0.4-1.61-0.61-2.46-0.62
		c-0.92,0.01-1.81,0.38-2.46,1.03l-2.88,2.46c-1.11,0.9-2.36,1.63-3.7,2.16l-1.39,0.46v0.77c0,6.83-0.05,13.61,0,20.43
		c0.02,0.7,0.14,1.39,0.36,2.05c0.53,1.59,1.53,2.99,2.88,4c1.19,0.91,2.55,1.55,4,1.9c1.15,0.24,2.32,0.38,3.49,0.41
		c0.91,0.04,1.82,0.01,2.72-0.1c0.69-0.03,1.38-0.13,2.05-0.31c1.14-0.33,2.25-0.75,3.34-1.23c1.11-0.53,2.18-1.15,3.18-1.85
		c0.88-0.61,1.7-1.3,2.46-2.05c1.06-1,2.05-2.06,2.98-3.18c0.76-1.1,1.45-2.25,2.05-3.44c0.67-1.18,1.07-2.5,1.18-3.85
		C209.6,133.58,209.71,132.2,209.25,130.91L209.25,130.91z M156,137.12c-1.03,0.05-1.85,0.87-1.9,1.9c0,0.87,0.92,2,1.85,1.85
		c0.92-0.15,1.85-0.56,1.9-1.85C157.85,138,157.03,137.15,156,137.12z M152.61,129.17c-1.01,0.03-1.82,0.84-1.85,1.85
		c0.05,1.01,0.84,1.82,1.85,1.9c1.06,0,1.92-0.84,1.95-1.9C154.54,129.97,153.66,129.14,152.61,129.17
		C152.62,129.17,152.62,129.17,152.61,129.17z M160.73,130.35c0.96,0.06,1.79-0.68,1.85-1.64c0-0.05,0-0.11,0-0.16
		c0-1.28-0.62-1.9-1.75-1.9s-2,0.72-1.95,1.8C158.88,129.48,159.7,130.32,160.73,130.35z M168.27,134.61
		c1.05,0.03,1.92-0.8,1.95-1.85c0,0,0,0,0,0c-0.05-1.05-0.9-1.87-1.95-1.9c-1,0.1-1.78,0.9-1.85,1.9
		C166.37,133.63,167.35,134.76,168.27,134.61L168.27,134.61z M163.19,134.97c-0.1-1-0.9-1.78-1.9-1.85c-1.04,0.03-1.87,0.86-1.9,1.9
		c-0.05,0.82,0.92,2,1.9,1.8S163.24,135.79,163.19,134.97z M164.37,143.85c1.18,0,1.9-0.72,1.9-1.75c0.03-1.02-0.78-1.87-1.8-1.9
		c-1.02-0.03-1.87,0.78-1.9,1.8c-0.09,0.93,0.6,1.76,1.53,1.84C164.19,143.86,164.28,143.86,164.37,143.85z M184.29,130.86
		c-1.02,0-1.85,0.83-1.85,1.85v0c-0.09,0.96,0.62,1.81,1.58,1.89c0.07,0.01,0.14,0.01,0.21,0.01c1.03,0.03,1.9-0.77,1.95-1.8
		C186.17,131.76,185.34,130.91,184.29,130.86z M196.62,137.12c-1.03,0.17-1.73,1.15-1.56,2.19c0.13,0.8,0.76,1.43,1.56,1.56
		c0.92,0.1,1.9-0.98,1.9-1.85C198.51,138.15,197.54,137.07,196.62,137.12z M199.95,129.17c-1.01,0.05-1.82,0.84-1.9,1.85
		c0.03,1.06,0.89,1.9,1.95,1.9c1-0.03,1.8-0.85,1.8-1.85C201.95,130.09,200.88,129.17,199.95,129.17z M191.33,133.12
		c-1.05,0-1.9,0.85-1.9,1.9c0,0.99,0.8,1.8,1.79,1.8c0.04,0,0.07,0,0.11,0c0.96,0.06,1.79-0.68,1.85-1.64c0-0.05,0-0.11,0-0.16
		C193.15,134,192.34,133.17,191.33,133.12L191.33,133.12z M191.89,126.65c-0.96-0.09-1.81,0.62-1.89,1.58
		c0,0.05-0.01,0.11-0.01,0.16c-0.03,1.05,0.8,1.92,1.85,1.95c0,0,0,0,0,0c1.05,0,1.9-0.85,1.9-1.9c0.03-0.96-0.73-1.77-1.69-1.8
		C192,126.65,191.94,126.65,191.89,126.65L191.89,126.65z M188.14,140.15c-1.02,0-1.85,0.83-1.85,1.85v0
		c-0.06,0.96,0.68,1.79,1.64,1.85c0.05,0,0.11,0,0.16,0c1.28-0.05,1.9-0.62,1.9-1.85c0.06-0.96-0.67-1.79-1.64-1.85
		C188.28,140.15,188.21,140.15,188.14,140.15L188.14,140.15z"/>
</g>
<g id="Layer_12">
</g>
<g id="Layer_13">
</g>
<g id="Layer_14">
</g>
<g id="Layer_15">
</g>
</svg>
