<?xml version="1.0" encoding="utf-8"?>
<!-- Generator: Adobe Illustrator 27.8.1, SVG Export Plug-In . SVG Version: 6.00 Build 0)  -->
<svg version="1.1" xmlns="http://www.w3.org/2000/svg" xmlns:xlink="http://www.w3.org/1999/xlink" x="0px" y="0px"
	 viewBox="0 0 350 230" style="enable-background:new 0 0 350 230;" xml:space="preserve">
<style type="text/css">
	.st0{fill:#94D3EC;}
	.st1{fill-rule:evenodd;clip-rule:evenodd;fill:#1F3A6E;}
	.st2{fill:#E73F2D;}
	.st3{fill:#253E92;}
	.st4{fill:#EF3E25;}
	.st5{fill:#45BA8B;}
	.st6{fill:none;}
	.st7{fill:#F5B92B;}
	.st8{fill:#0391B3;}
	.st9{fill:#116380;}
	.st10{fill:#939598;}
	.st11{fill:#36004C;}
	.st12{fill:#F2B21C;}
	.st13{fill:#E6E6E6;}
	.st14{fill:#33BFC7;}
	.st15{fill:#463895;}
	.st16{fill:#470000;}
	.st17{fill:#FFFFFF;}
	.st18{fill:#ED1C24;}
	.st19{fill:#373D01;}
	.st20{fill:#6D2700;}
	.st21{fill:#C94502;}
	.st22{fill:#4FAF76;}
	.st23{fill:#231F20;}
	.st24{fill:#0049FF;}
	.st25{fill:#9A5E26;}
</style>
<g id="Layer_1">
</g>
<g id="Layer_2">
</g>
<g id="Layer_3">
</g>
<g id="Layer_4">
</g>
<g id="Layer_5">
</g>
<g id="Layer_6">
</g>
<g id="Layer_7">
</g>
<g id="Layer_8">
</g>
<g id="Layer_9">
	<g>
		<path d="M268.32,88.9c1.23,1.27,2.38,2.62,3.45,4.03c3.67,5.04,4.17,10.44,1.58,16.05c-3.96,8.92-14.47,14.18-23.18,11.73
			c-3.67-1.01-6.41-3.38-8.71-6.26c-1.29-1.57-2.49-3.2-3.6-4.89c-3.09-4.82-7.56-7.49-13.1-7.7c-10.08-0.29-20.15-0.07-30.52-0.07
			c0.94,3.81,2.02,7.34,2.73,10.94c0.72,3.6,1.15,6.48,1.58,9.72c0.07,0.65-0.36,1.3-0.5,1.87c-0.66-0.1-1.29-0.32-1.87-0.65
			c-3.02-2.45-5.97-5.04-9.07-7.7c-1.66,1.44-3.17,2.88-4.75,4.17l-4.61,3.89l-0.72-0.5v-21.23h-6.33c-0.22,2.23-0.5,4.39-0.5,6.62
			c-0.07,4.25,0,8.56,0,12.81c-0.11,0.64-0.28,1.26-0.5,1.87c-0.65-0.13-1.28-0.35-1.87-0.65c-2.59-2.23-5.11-4.61-7.77-6.98
			l-8.85,7.49c-0.58,0.5-1.44,0.58-2.16,0.86c-0.18-0.71-0.25-1.43-0.22-2.16c1.15-5.9,2.45-11.8,3.74-17.63
			c0.14-0.79,0.36-1.58,0.58-2.38l-0.43-0.29c-8.92,0-17.85-0.29-26.7-0.07c-5.38,0.01-10.41,2.71-13.39,7.2
			c-1.53,2.25-3.19,4.41-4.97,6.48c-5.54,6.26-13.31,7.63-20.8,3.81c-7.49-3.81-12.24-11.23-11.59-18.86
			c0.29-3.53,1.94-6.48,4.32-9.07c0.68-0.67,1.4-1.3,2.16-1.87c-2.23-2.52-4.46-4.61-6.05-7.05c-4.03-6.12-2.81-12.38,0.58-18.28
			s7.63-7.63,13.6-7.34s8.71,2.73,12.16,5.9s4.82,4.32,7.13,6.62c2.38,2.4,5.5,3.92,8.85,4.32l11.08,1.3
			c0.79-2.23,1.58-4.25,2.16-5.83c-1.22-2.45-2.66-4.61-3.38-6.98c-0.72-2.38,0.14-5.97,2.88-7.92c6.05-4.39,12.67-4.89,19.5-2.3
			c6.84,2.59,12.16,6.91,16.77,12.31c0.68,0.92,1.85,1.32,2.95,1.01c2.73-0.29,5.54,0.07,8.28,0.07c0.72-0.05,1.4-0.33,1.94-0.79
			c4.75-5.4,10.22-9.79,16.91-12.52c3.96-1.66,8.06-2.52,12.31-1.58c4.25,0.94,8.2,2.3,9.79,6.62s-0.36,8.06-3.38,11.23l2.45,6.55
			c5.76-0.22,11.59-0.36,17.35-2.09c3.53-1.01,5.69-3.96,8.35-6.12s3.89-3.81,6.05-5.54c7.05-5.83,15.83-5.76,21.52,0
			c7.41,7.63,6.91,19.22-1.15,26.13L268.32,88.9z M263.72,91.42l-11.08,2.02c1.51-3.74,2.02-3.81,5.04-4.39
			c3.72-0.6,7.37-1.61,10.87-3.02c4.82-2.02,6.12-5.18,5.18-10.36c-0.14-0.58-0.22-1.15-0.36-1.66
			c-1.66-5.97-4.53-11.01-10.87-12.81c-6.33-1.8-11.52,0.5-16.05,4.89c-1.58,1.58-3.24,3.09-4.89,4.61
			c-3.24,3.02-6.48,6.05-11.16,6.62l-11.23,1.22c-0.72,0.06-1.37,0.43-1.8,1.01c-1.33,2.71-3.98,4.53-6.98,4.82
			c-4.23,0.38-8.49,0.48-12.74,0.29c-3.38-0.14-6.69-0.72-10.08-1.15c1.51,3.89,3.09,7.63,4.25,11.52c0.72,2.45,1.87,3.09,4.39,3.02
			c10-0.14,20.01-0.22,30.08-0.07c6.12,0.07,11.01,2.59,14.47,7.84c1.44,2.17,3.03,4.24,4.75,6.19c3.74,4.32,8.64,6.33,14.25,5.25
			c9-1.73,13.46-5.97,11.88-13.96c-0.53-2.52-1.59-4.9-3.09-6.98C267.24,94.37,265.3,92.93,263.72,91.42z M159.79,83.86
			c-6.84,0.36-13.75,0.94-20.73,0.94c-3.6,0.07-7.05-1.22-8.78-4.75c-0.72-1.37-1.51-1.87-2.88-1.8h-2.3
			c-5.47-0.65-10.8-1.66-14.83-5.97c-2.7-2.76-5.56-5.35-8.56-7.77c-6.91-5.83-16.34-4.97-21.52,2.02
			c-2.23,3.06-3.6,6.66-3.96,10.44c-0.43,4.03,0.94,7.13,4.75,8.92c3.68,1.87,7.69,3.02,11.8,3.38c2.73,0.14,3.81,1.08,4.39,4.25
			l-10.8-2.09c-0.76,0.55-1.44,1.21-2.02,1.94c-1.87,2.52-4.25,4.82-5.33,7.63c-1.58,4.25-1.8,8.78,2.09,12.24
			c7.27,6.33,17.78,5.61,23.97-1.8c1.8-2.09,3.38-4.46,5.04-6.69c2.38-3.54,6.2-5.86,10.44-6.33c3.27-0.4,6.56-0.6,9.86-0.58
			l22.74,0.14c0.74-0.1,1.38-0.56,1.73-1.22C156.62,92.35,158.28,87.89,159.79,83.86z M181.24,78.97c2.88,0.94,5.76,2.3,8.71,2.73
			c5.47,0.79,11.01,1.08,16.48,1.44c1.62-0.01,3.22-0.28,4.75-0.79c2.88-0.94,4.46-3.02,4.17-6.05c-0.29-3.02-0.86-4.25-1.3-6.41
			c-2.16,0.36-3.53,1.87-5.83,0.72l2.45-1.22c2.92-1.07,5.19-3.43,6.12-6.41c1.22-3.6,0.29-6.48-2.88-8.64
			c-3.26-2.41-7.42-3.28-11.37-2.38c-9,2.02-15.62,7.41-21.16,14.47c-0.32,0.59-0.56,1.22-0.72,1.87c2.59-0.72,4.75-1.15,6.84-1.87
			c5.76-2.09,11.52-4.1,17.13-6.62c3.09-1.37,3.17-2.38,1.22-5.9c1.22,0.36,2.23,0.36,2.59,0.86c0.36,0.5,1.01,2.09,0.65,2.73
			c-0.78,1.39-1.92,2.53-3.31,3.31c-4.39,2.02-8.85,3.89-13.31,5.54c-4.46,1.66-7.05,2.09-10.58,3.09
			c-0.22,3.17-0.22,3.24,2.73,3.24l12.81-0.43l2.73-0.36v0.65c-5.97,1.51-12.09,1.44-18.21,1.08
			C181.74,75.37,181.53,76.88,181.24,78.97L181.24,78.97z M164.9,69.4c-3.09-0.86-6.19-1.58-9.14-2.59
			c-4.39-1.58-8.78-3.24-13.03-5.18c-1.67-0.86-3.14-2.06-4.32-3.53c-1.01-1.08-0.43-2.45,0.65-3.31c0.65-0.36,1.36-0.6,2.09-0.72
			c-1.58,2.66-1.51,3.38,0.72,5.04c1.32,1.05,2.8,1.87,4.39,2.45c6.26,2.23,12.6,4.25,18.86,6.26c0.46,0.04,0.92,0.02,1.37-0.07
			c-0.28-0.61-0.62-1.18-1.01-1.73c-4.17-5.25-9.14-9.57-15.26-12.16c-3.14-1.39-6.5-2.21-9.93-2.45
			c-4.82-0.29-9.28,3.17-10.08,6.91c-0.79,3.74,2.02,8.92,6.48,11.01l1.8,0.79l-0.22,0.79l-4.61-0.72
			c-3.96,6.19-1.66,11.95,5.69,12.6c5.25,0.43,10.58-0.14,15.91-0.65c2.95-0.36,5.9-1.51,8.85-2.38c0.5-0.14,1.22-0.86,1.15-1.22
			c-0.07-1.66-0.36-3.24-0.58-4.97c-5.86,0.6-11.78,0.34-17.56-0.79v-0.65l17.78,0.79V69.4z M167.99,81.05
			c-0.36-0.07-1.15-0.5-1.58-0.29c-2.09,0.86-4.1,1.73-4.89,4.17c-2.73,8.42-5.69,16.84-8.35,25.26c-1.15,3.53-1.58,7.2-2.38,10.8
			l0.5,0.22l6.84-5.76c2.16-1.94,2.16-1.94,4.39,0.07l5.33,4.75c-0.22-13.24,1.37-25.77,3.89-38.15c-1.8-0.86-2.73-0.14-3.24,1.44
			c-0.94,2.73-1.8,5.54-2.73,8.35c-0.29,0.65-0.72,1.22-1.01,1.87l-0.94-0.43L167.99,81.05z M175.62,81.92
			c2.73,12.65,4.06,25.56,3.96,38.51c2.09-1.87,4.03-3.45,5.76-5.18c1.73-1.73,2.38-1.51,3.89-0.14c1.51,1.37,4.61,4.03,7.41,6.41
			c-2.52-13.53-5.97-26.13-11.8-37.93c-0.79-1.58-3.67-2.16-5.61-3.17c-0.07,0-0.14,0.22,0-0.07c1.37,4.03,2.59,7.77,3.74,11.59
			c0.14,0.5-0.22,1.15-0.29,1.73c-0.4-0.39-0.72-0.85-0.94-1.37c-1.22-3.24-2.3-6.48-3.45-9.64
			C177.78,81.2,176.85,81.05,175.62,81.92L175.62,81.92z M179.29,73.71h-0.07c0-1.08,0.07-2.09,0-3.17s-1.8-4.17-3.81-4.46
			s-5.11-1.08-6.98,1.44s-1.51,8.92-0.14,10.94c0.52,0.74,1.25,1.32,2.09,1.66c4.82,1.44,9.43,1.08,8.92-5.61L179.29,73.71z
			 M176.34,98.26c-0.79-4.89-1.58-9.57-2.38-14.25h-0.65c-0.72,4.68-1.51,9.43-2.23,14.18L176.34,98.26z"/>
		<path class="st17" d="M263.72,91.42c1.58,1.51,3.53,2.95,4.82,4.89c1.51,2.09,2.56,4.46,3.09,6.98
			c1.58,7.99-2.88,12.24-11.88,13.96c-5.61,1.08-10.51-0.94-14.25-5.25c-1.72-1.95-3.31-4.02-4.75-6.19
			c-3.45-5.25-8.35-7.77-14.47-7.84c-10.08-0.14-20.08-0.07-30.08,0.07c-2.52,0.07-3.67-0.58-4.39-3.02
			c-1.15-3.89-2.73-7.63-4.25-11.52c3.38,0.43,6.69,1.01,10.08,1.15c4.25,0.19,8.5,0.1,12.74-0.29c3.01-0.29,5.65-2.11,6.98-4.82
			c0.43-0.58,1.08-0.94,1.8-1.01l11.23-1.22c4.68-0.58,7.92-3.6,11.16-6.62c1.66-1.51,3.31-3.02,4.89-4.61
			c4.53-4.39,9.72-6.69,16.05-4.89c6.33,1.8,9.21,6.84,10.87,12.81c0.14,0.5,0.22,1.08,0.36,1.66c0.94,5.18-0.36,8.35-5.18,10.36
			c-3.5,1.41-7.14,2.42-10.87,3.02c-3.02,0.58-3.53,0.65-5.04,4.39L263.72,91.42z"/>
		<path class="st17" d="M159.79,83.86c-1.51,4.03-3.17,8.49-4.89,12.88c-0.34,0.66-0.99,1.12-1.73,1.22l-22.74-0.14
			c-3.3-0.02-6.59,0.17-9.86,0.58c-4.24,0.48-8.06,2.79-10.44,6.33c-1.66,2.23-3.24,4.61-5.04,6.69c-6.19,7.41-16.7,8.13-23.97,1.73
			c-3.89-3.45-3.67-7.99-2.09-12.24c1.08-2.81,3.45-5.11,5.33-7.63c0.58-0.74,1.26-1.39,2.02-1.94l10.8,2.09
			c-0.58-3.17-1.66-4.1-4.39-4.25c-4.11-0.36-8.12-1.51-11.8-3.38c-3.81-1.8-5.18-4.89-4.75-8.92c0.36-3.77,1.73-7.38,3.96-10.44
			c5.18-6.98,14.61-7.84,21.52-2.02c3.01,2.42,5.87,5.01,8.56,7.77c4.03,4.32,9.36,5.33,14.83,5.97h2.3
			c1.37-0.07,2.16,0.43,2.88,1.8c1.73,3.53,5.18,4.82,8.78,4.75C146.04,84.8,152.95,84.22,159.79,83.86z"/>
		<path class="st18" d="M181.24,78.97c0.29-2.09,0.5-3.6,0.79-5.33c6.12,0.36,12.24,0.43,18.21-1.08v-0.65l-2.73,0.36l-12.81,0.43
			c-2.95,0-2.95-0.07-2.73-3.24c3.53-1.01,7.13-1.87,10.58-3.09c3.45-1.22,8.92-3.53,13.31-5.54c1.39-0.78,2.53-1.92,3.31-3.31
			c0.36-0.65-0.14-2.02-0.65-2.73c-0.5-0.72-1.37-0.5-2.59-0.86c1.94,3.53,1.87,4.53-1.22,5.9c-5.61,2.52-11.37,4.53-17.13,6.62
			c-2.09,0.72-4.25,1.15-6.84,1.87c0.16-0.65,0.4-1.28,0.72-1.87c5.54-7.05,12.16-12.45,21.16-14.47c3.96-0.91,8.11-0.04,11.37,2.38
			c3.17,2.16,4.1,5.04,2.88,8.64c-0.93,2.97-3.19,5.34-6.12,6.41l-2.45,1.22c2.3,1.15,3.67-0.36,5.83-0.72
			c0.43,2.16,1.15,4.25,1.3,6.41s-1.3,5.11-4.17,6.05c-1.53,0.51-3.13,0.78-4.75,0.79c-5.47-0.36-11.01-0.65-16.48-1.44
			C187,81.27,184.12,79.9,181.24,78.97z M155.76,66.8c-4.39-1.58-8.78-3.24-13.03-5.18c-1.67-0.86-3.14-2.06-4.32-3.53
			c-1.01-1.08-0.43-2.45,0.65-3.31c0.65-0.36,1.36-0.6,2.09-0.72c-1.58,2.66-1.51,3.38,0.72,5.04c1.32,1.05,2.8,1.87,4.39,2.45
			c6.26,2.23,12.6,4.25,18.86,6.26c0.46,0.04,0.92,0.02,1.37-0.07c-0.28-0.61-0.62-1.18-1.01-1.73c-4.17-5.25-9.14-9.57-15.26-12.16
			c-3.14-1.39-6.5-2.21-9.93-2.45c-4.82-0.29-9.28,3.17-10.08,6.91c-0.79,3.74,2.02,8.92,6.48,11.01l1.8,0.79l-0.22,0.79l-4.61-0.72
			c-3.96,6.19-1.66,11.95,5.69,12.6c5.25,0.43,10.58-0.14,15.91-0.65c2.95-0.36,5.9-1.51,8.85-2.38c0.5-0.14,1.22-0.86,1.15-1.22
			c-0.07-1.66-0.36-3.24-0.58-4.97c-5.86,0.6-11.78,0.34-17.56-0.79v-0.65l17.78,0.79V69.4C161.8,68.53,158.71,67.81,155.76,66.8z
			 M166.41,80.77c-2.09,0.86-4.1,1.73-4.89,4.17c-2.73,8.42-5.69,16.84-8.35,25.26c-1.15,3.53-1.58,7.2-2.38,10.8l0.5,0.22
			l6.84-5.76c2.16-1.94,2.16-1.94,4.39,0.07l5.33,4.75c-0.22-13.24,1.37-25.77,3.89-38.15c-1.8-0.86-2.73-0.14-3.24,1.44
			c-0.94,2.73-1.8,5.54-2.73,8.35c-0.29,0.65-0.72,1.22-1.01,1.87l-0.94-0.43l4.17-12.31C167.63,80.98,166.84,80.55,166.41,80.77
			L166.41,80.77z M179.58,120.42c2.09-1.87,4.03-3.45,5.76-5.18c1.73-1.73,2.38-1.51,3.89-0.14c1.51,1.37,4.61,4.03,7.41,6.41
			c-2.52-13.53-5.97-26.13-11.8-37.93c-0.79-1.58-3.67-2.16-5.61-3.17c-0.07,0-0.14,0.22,0-0.07c1.37,4.03,2.59,7.77,3.74,11.59
			c0.14,0.5-0.22,1.15-0.29,1.73c-0.4-0.39-0.72-0.85-0.94-1.37c-1.22-3.24-2.3-6.48-3.45-9.64c-0.5-1.44-1.44-1.58-2.66-0.72
			C178.36,94.57,179.68,107.48,179.58,120.42L179.58,120.42z M179.22,73.71c0-1.08,0.07-2.09,0-3.17s-1.8-4.17-3.81-4.46
			c-2.02-0.29-5.11-1.08-6.98,1.44s-1.51,8.92-0.14,10.94c0.52,0.74,1.25,1.32,2.09,1.66c4.82,1.44,9.43,1.08,8.92-5.61v-0.79
			H179.22z"/>
		<path class="st17" d="M176.34,98.26h-5.25c0.72-4.75,1.51-9.5,2.23-14.18h0.65C174.76,88.68,175.55,93.36,176.34,98.26z"/>
	</g>
</g>
<g id="Layer_10">
</g>
<g id="Layer_11">
</g>
<g id="Layer_12">
</g>
<g id="Layer_13">
</g>
<g id="Layer_14">
</g>
<g id="Layer_15">
</g>
</svg>
