<?xml version="1.0" encoding="utf-8"?>
<!-- Generator: Adobe Illustrator 27.8.1, SVG Export Plug-In . SVG Version: 6.00 Build 0)  -->
<svg version="1.1" xmlns="http://www.w3.org/2000/svg" xmlns:xlink="http://www.w3.org/1999/xlink" x="0px" y="0px"
	 viewBox="0 0 350 230" style="enable-background:new 0 0 350 230;" xml:space="preserve">
<style type="text/css">
	.st0{fill:#94D3EC;}
	.st1{fill-rule:evenodd;clip-rule:evenodd;fill:#1F3A6E;}
	.st2{fill:#E73F2D;}
	.st3{fill:#253E92;}
	.st4{fill:#EF3E25;}
	.st5{fill:#45BA8B;}
	.st6{fill:none;}
	.st7{fill:#F5B92B;}
	.st8{fill:#0391B3;}
	.st9{fill:#116380;}
	.st10{fill:#939598;}
	.st11{fill:#36004C;}
	.st12{fill:#F2B21C;}
	.st13{fill:#E6E6E6;}
	.st14{fill:#33BFC7;}
	.st15{fill:#463895;}
	.st16{fill:#470000;}
	.st17{fill:#FFFFFF;}
	.st18{fill:#ED1C24;}
	.st19{fill:#373D01;}
	.st20{fill:#6D2700;}
	.st21{fill:#C94502;}
	.st22{fill:#4FAF76;}
	.st23{fill:#231F20;}
	.st24{fill:#0049FF;}
	.st25{fill:#9A5E26;}
</style>
<g id="Layer_1">
</g>
<g id="Layer_2">
</g>
<g id="Layer_3">
</g>
<g id="Layer_4">
</g>
<g id="Layer_5">
</g>
<g id="Layer_6">
</g>
<g id="Layer_7">
	<g>
		<path class="st14" d="M174.18,27.91c7.56-7.98,18-12.61,28.99-12.85c12.91-0.29,25.65,5.25,34.99,14.12s15.97,22.42,17.81,35.85
			c2.36,16.43-1.1,33.14-7.32,48.36c-1.61-3.63-3.05-7.32-5.01-10.78c4.73-14.35,6.92-30.09,2.77-44.84
			c-4.15-14.76-13.89-27.15-27.67-32.86c-10.32-4.44-22.65-4.44-32.45,1.21c-12.28,6.69-19.31,20.92-18.68,34.64
			c-5.76-7.26-13.26-13.6-22.31-16.14c-10.32-2.88-21.9-1.44-30.84,4.55s-14.24,15.33-16.83,25.25c-4.15,16.02,0.4,33.14,8.93,46.92
			c-7.09-7.95-11.01-18.27-12.74-28.65c-2.54-17.06,3.69-35.85,17.87-46.29c9.16-7.32,21.56-9.45,33.03-7.67
			c6.97,1.15,12.97,5.07,18.62,9.16C165.54,40.59,168.82,33.44,174.18,27.91z"/>
		<path class="st15" d="M189.75,53.9c5.88-1.5,11.7,0.63,17.52,0.98c2.88,0.4,5.13,2.59,7.15,4.5c4.21,3.98,7.84,8.99,8.76,14.87
			c0.69,4.44-2.94,7.78-5.65,10.72c-2.71,2.94-5.82,5.94-9.86,5.19s-3.63-5.42-3.86-8.47c-0.06-4.5-0.63-9.05-3.11-12.85
			c0.52,3.98,1.61,7.9,1.27,11.93c-0.35,4.03-0.23,8.93,3.23,11.76c3.46,2.82,6.4,0.92,8.99-0.69c5.25-3.34,9.97-8.24,11.24-14.53
			c1.15,4.21,2.19,8.59,4.96,12.05c5.65,7.32,11.24,15.1,12.85,24.38c2.36,11.01,0.17,22.25,0.12,33.32
			c1.79,2.42,5.01,3.98,5.53,7.15c0.29,2.19,0.23,4.9-1.73,6.28c-4.84,0.75-9.8,0.29-14.64-0.06c-5.13-3-3.4-9.8-4.67-14.7
			c-0.92,2.94-1.61,5.94-2.36,8.93c-3.75-0.17-7.44-0.46-11.18-0.69c-0.5-2.93-2.22-5.5-4.73-7.09c-2.82-1.56-2.94-4.96-3.75-7.78
			c-0.35,2.31-0.86,4.78,0,7.03c1.04,3.34,5.42,4.5,5.76,8.18c0.35,3.69-2.42,6.34-5.71,6.51c-5.13,0.46-11.3,0.92-15.22-3.17
			c-1.73-1.56-1.56-3.98-1.56-6.05c0-4.27-1.1-8.42-1.96-12.57c-0.66,4.62-1.07,9.28-1.21,13.95c-2.48,0.06-4.96,0.12-7.44,0.06
			c-2.02-6.11-2.82-12.57-3.46-18.96c-0.76-7.46,1.63-14.89,6.57-20.52c2.02-2.36,4.96-4.5,5.13-7.9c0.17-1.73-0.75-4.21-2.88-3.4
			c-4.67,0.63-9.91,0.81-13.83-2.19c-2.31-2.59-3.98-5.76-5.59-8.82c-1.5,2.71-2.88,5.88-5.76,7.44c-2.31,0.63-4.73,0.86-6.86,2.02
			c0.52,1.79,0.63,3.92,2.31,5.19c4.21,3.4,8.65,6.97,10.95,12.05c4.03,8.36,2.59,17.98,4.61,26.86c0.4,3.34,4.9,3.63,5.53,6.86
			c0.95,1.84,0.22,4.1-1.62,5.04c-0.27,0.14-0.56,0.25-0.86,0.32c-3.03,0.76-6.22,0.45-9.05-0.86c-1.5-1.61-2.13-3.75-3.11-5.71
			c-0.17,1.5-0.29,2.94-0.46,4.44c-5.94,0.06-11.87,0-17.81,0c-0.84-3.14-1.88-6.22-3.11-9.22c0,3.57,1.04,7.32-0.17,10.84
			c-1.27,1.73-3.75,2.02-5.76,2.25s-5.36,0.12-6.8-2.08s0.06-5.01,0.52-7.38c-4.09,1.1-8.82,1.61-12.62-0.69
			c-8.13-4.44-11.36-13.66-15.79-21.21c2.08-3.05,6.34-1.5,8.42,0.75c4.44,4.73,7.44,11.36,13.83,13.89
			c-3.34-7.38-6.97-14.87-7.84-23c-0.81-8.8,1.16-17.63,5.65-25.25c4.61-7.95,11.47-14.41,18.73-20c4.96-3.4,6.97-9.51,11.64-13.2
			c1.11,2.82,1.9,5.76,2.36,8.76c1.73-1.56,3.46-3.05,5.25-4.38c-0.63,2.48-1.44,4.96-2.31,7.44c2.02,2.08,4.27,3.98,5.94,6.4
			c1.67,2.42,0.63,5.07,1.44,7.49c0.75,1.22,1.62,2.36,2.59,3.4c1.73-3.8,5.25-6.4,6.97-10.2c1.9-5.13,0.06-11.3,3.63-15.85
			C178.7,58.94,183.9,55.53,189.75,53.9z"/>
	</g>
</g>
<g id="Layer_8">
</g>
<g id="Layer_9">
</g>
<g id="Layer_10">
</g>
<g id="Layer_11">
</g>
<g id="Layer_12">
</g>
<g id="Layer_13">
</g>
<g id="Layer_14">
</g>
<g id="Layer_15">
</g>
</svg>
