<?xml version="1.0" encoding="utf-8"?>
<!-- Generator: Adobe Illustrator 27.8.1, SVG Export Plug-In . SVG Version: 6.00 Build 0)  -->
<svg version="1.1" xmlns="http://www.w3.org/2000/svg" xmlns:xlink="http://www.w3.org/1999/xlink" x="0px" y="0px"
	 viewBox="0 0 350 230" style="enable-background:new 0 0 350 230;" xml:space="preserve">
<style type="text/css">
	.st0{fill:#94D3EC;}
	.st1{fill-rule:evenodd;clip-rule:evenodd;fill:#1F3A6E;}
	.st2{fill:#E73F2D;}
	.st3{fill:#253E92;}
	.st4{fill:#EF3E25;}
	.st5{fill:#45BA8B;}
	.st6{fill:none;}
	.st7{fill:#F5B92B;}
	.st8{fill:#0391B3;}
	.st9{fill:#116380;}
	.st10{fill:#939598;}
	.st11{fill:#36004C;}
	.st12{fill:#F2B21C;}
	.st13{fill:#E6E6E6;}
	.st14{fill:#33BFC7;}
	.st15{fill:#463895;}
	.st16{fill:#470000;}
	.st17{fill:#FFFFFF;}
	.st18{fill:#ED1C24;}
	.st19{fill:#373D01;}
	.st20{fill:#6D2700;}
	.st21{fill:#C94502;}
	.st22{fill:#4FAF76;}
	.st23{fill:#231F20;}
	.st24{fill:#0049FF;}
	.st25{fill:#9A5E26;}
</style>
<g id="Layer_1">
</g>
<g id="Layer_2">
</g>
<g id="Layer_3">
</g>
<g id="Layer_4">
</g>
<g id="Layer_5">
</g>
<g id="Layer_6">
</g>
<g id="Layer_7">
</g>
<g id="Layer_8">
	<path class="st16" d="M172.43,18.93l10.75,10.15c-2.28,2.1-5.71,2.04-7.39-0.78s-2.64-6.01-3.96-9.01L172.43,18.93z M177.95,37.01
		c-2.82,3.18-3.96,6.61-2.58,10.75c0.44,1.63,0.27,3.36-0.48,4.86c-2.34,5.04-4.74,10.15-6.97,15.25c-1.02,2.28-2.22,4.62-2.4,7.03
		c-0.3,4.8,2.16,8.65,5.71,11.71c0.96,0.78,2.4,1.02,3.66,1.5l0.24-0.42c-2.12-1.32-3.53-3.53-3.84-6.01
		c-0.06-0.47,0.07-0.95,0.36-1.32c0.96-1.32,1.14-3.3,0.12-4.32c-0.46-0.51-1.11-0.81-1.8-0.84c-0.6,0-1.26,0.42-2.04,0.78
		c0.34-1.43,0.78-2.84,1.32-4.2c2.64-6.07,5.28-12.07,8.05-18.08c0.66-1.5,1.2-2.94,0.96-4.56c-0.24-1.62-0.48-2.58-0.66-3.9
		c-0.18-1.32-0.12-2.76,0.9-3.9c2.94-3.3,5.77-6.67,8.59-10.03c0.49-0.76,1.46-1.04,2.28-0.66c0.66,0.18,1.32,0.18,1.98,0.3
		c-0.41-0.41-0.9-0.74-1.44-0.96c-2.22-1.14-4.26-2.58-5.34-4.92l-2.16-4.92c6.79,0.84,12.85,3.24,17.66,8.47l-0.42-1.32
		c6.01-2.04,11.95-3.12,18.2-1.98c13.45,2.46,20.12,14.53,18.98,26.36c-0.18,1.68-0.36,3.42-0.54,5.4
		c3.24-5.83,4.14-11.77,3.48-18.02c5.77,9.07,5.28,18.68,2.4,28.59l0.36-0.24c3.54-6.49,6.13-13.21,5.83-20.78
		c-0.12-5.58-2.2-10.94-5.89-15.13c-5.71-6.49-13.21-9.61-21.62-10.75l-4.62-0.48c2.7-2.46,3.48-4.08,2.94-5.95
		c-1.81,2.2-4.43,3.59-7.27,3.84c-3.54,0.48-7.09,0.78-10.63,1.2c-0.6-3.48-0.66-3.72-1.74-4.68c-0.12,2.64-0.84,4.86-3.12,6.37
		c-0.53,0.43-1.3,0.4-1.8-0.06c-5.65-4.14-12.07-4.92-18.8-4.56c-0.44,0.06-0.86,0.18-1.26,0.36c2.4,1.44,3.54,3.66,4.74,5.77
		s2.88,4.8,5.47,6.31C182.4,31.66,180.3,34.42,177.95,37.01z M221.73,104.27c2.46-4.38,4.44-8.95,4.74-13.99
		c0.3-5.04-1.2-11.95-3.54-14.05l-1.08,1.86c-3.18,5.77-7.87,10.03-13.33,13.33c-6.49,3.9-13.15,7.39-19.76,11.05
		c-6.61,3.66-11.83,6.97-16.4,12.25c-3.77,4.3-6.03,9.72-6.43,15.43c-0.3,4.25,0.06,8.53,1.08,12.67c0.36,1.56,0.84,3.12,1.2,4.56
		c0-2.28-0.06-4.56,0.06-6.85c0.04-2.31,0.2-4.61,0.48-6.91c1.2-9.01,5.89-15.85,13.21-21.14c5.83-4.14,12.43-7.03,18.8-10.21
		c6.37-3.18,11.53-6.07,16.46-10.45c1.08-0.96,2.1-1.92,3.24-3.06c0.06,0.54,0.12,0.84,0.12,1.08c0.18,3.72-1.2,6.97-3.12,9.97
		c-4.68,7.33-10.93,12.91-18.26,17.42l-2.46,1.44c22.28-1.08,46.84-22.46,51.53-41.14C241.25,88.41,232.6,97.48,221.73,104.27
		L221.73,104.27z M167.74,157.96c2.1-1.62,4.08-3.36,6.25-4.86c6.91-4.8,14.71-7.87,22.34-11.23c8.77-3.84,17.48-7.75,25.64-12.85
		c13.33-8.29,23.84-19.22,31.11-33.21c4.01-7.55,6.39-15.85,6.97-24.38c0.45-6.76-0.39-13.55-2.46-20
		c-0.78-2.34-1.68-4.56-2.52-6.85c0.42,3.3,1.02,6.49,1.5,9.73c0.96,7.3,0.43,14.71-1.56,21.8c-4.62,17.12-14.29,30.87-28.17,41.74
		c-9.55,7.45-20.18,13.21-30.69,19.1c-7.93,4.5-16.03,8.77-22.94,14.83c-2.04,1.8-3.84,3.96-5.71,5.95L167.74,157.96z
		 M177.17,108.71c-1.56-3.6-4.02-6.67-6.85-9.49c-3.52-3.56-7.43-6.73-11.65-9.43c-0.53-0.29-0.93-0.76-1.14-1.32
		c-0.9-3.48-2.94-6.25-5.4-8.77c-3.9-4.08-8.59-7.03-13.63-9.49l-0.72-0.18c2.64,4.38,4.44,8.83,4.56,13.81
		c-3.24-0.18-6.49-2.4-16.88-11.29c-1.56,6.55-1.2,12.67,3.3,17.96c-1.5,1.02-2.94,1.86-4.32,2.88c-2.34,1.8-4.14,4.02-4.44,7.15
		c-0.34,3.29-1.66,6.41-3.78,8.95c-1.86,2.28-1.74,3.3-0.06,5.77c1.68,2.46,3.9,5.65,5.95,8.41c2.04,2.76,3.54,3.18,6.31,2.52
		l3.66-0.84c0.36-0.07,0.73-0.05,1.08,0.06c2.7,1.3,5.08,3.19,6.97,5.53c1.62,2.04,3.06,4.2,4.62,6.43
		c-0.9-5.28-4.02-9.25-7.51-13.09l4.5-0.78c-0.92-0.35-1.9-0.54-2.88-0.54c-3.18,0-6.37-0.18-9.55,0.12
		c-3.18,0.3-4.14,0.06-5.59-2.28c-1.16-1.75-2.45-3.42-3.84-4.98c-1.86-2.04-2.16-3.24-0.42-5.28s2.52-4.44,2.88-7.09
		c0.36-2.64,0.54-4.92,2.28-6.97c1.74-2.04,5.47-4.86,8.71-6.61l1.56-0.84c-0.72,0-1.14-0.12-1.38,0s-1.08,0-1.5-0.48
		c-1.55-2.28-2.44-4.94-2.58-7.69c3.42,3.24,7.57,5.22,11.95,6.61c0.59,0.12,1,0.66,0.96,1.26c0.2,2.3,1.15,4.47,2.7,6.19
		c0.12-1.02,0.12-1.8,0.24-2.58c0.42-2.76,0.96-5.47,1.14-8.23c0.12-1.74-0.24-3.48-0.36-5.1l2.82,3.36
		c1.74,2.16,3.36,4.32,4.08,7.09c0.63,1.95-0.26,4.07-2.1,4.98l-1.86,1.02c2.94,2.22,5.65,1.92,8.53-1.14L177.17,108.71z
		 M197.41,95.26l0.9-0.54c3.72-2.76,7.57-5.34,11.17-8.35c5.44-4.48,9.74-10.18,12.55-16.64c1.85-4.21,2.54-8.83,1.98-13.39
		c-1.13,5.65-3.33,11.03-6.49,15.85c0.66-3.54,1.14-6.79,0.78-10.15c-0.42-4.26-1.5-8.29-3.84-11.83c-1.74-2.41-3.61-4.74-5.59-6.97
		c-0.72-0.9-1.5-1.68-2.22-2.52c-0.09,0.29-0.09,0.61,0,0.9c0.78,2.28,1.62,4.56,2.16,6.85c1.14,5.04-1.02,9.55-5.53,12.07
		c-2.94,1.62-6.19,2.28-9.43,2.76c-3.24,0.48-5.53,1.8-6.61,4.8c3.6-2.04,3.96-2.16,5.4-1.86l-8.47,9.73
		c-0.67,0.75-0.92,1.79-0.66,2.76c1.08,4.56,0.12,6.19-4.26,7.93c-0.18,0.06-0.3,0.24-0.6,0.48l1.62-0.24
		c3.54-0.3,5.16-1.92,5.4-5.47c0.03-1.64,0.67-3.2,1.8-4.38c2.52-2.76,5.04-5.59,7.63-8.29c1.44-1.5,2.82-2.7,5.28-2.76
		c3.5-0.14,6.76-1.84,8.89-4.62c0.72-0.9,1.32-1.92,2.04-3c2.16,5.59,1.92,10.93,0.12,16.34c-2.22,6.61-6.19,12.07-10.81,17.12
		l-3.06,3.54L197.41,95.26z M154.77,32.56c-1.56-2.46-3.12-4.86-4.62-7.33s-4.62-4.74-8.47-4.56s-9.19,0.12-13.81,0.78
		c-3.24,0.42-6.31,1.08-8.89,3.3c-0.72,0.6-1.56,1.08-2.28,1.62c-2.34,1.86-4.68,3.72-6.91,5.71s-1.8,6.01-0.24,7.99
		c-0.12-3.48,1.5-5.71,4.32-7.51c2.82-1.8,5.59-4.02,8.47-5.89c1.38-0.9,2.94-1.86,4.5-1.98c5.16-0.42,10.39-0.48,15.61-0.66
		c1.77-0.09,3.49,0.62,4.68,1.92c1.26,1.2,2.28,2.64,3.54,3.84c1.19,1.12,2.43,2.19,3.72,3.18L154.77,32.56z M129.01,31.96
		c-1.86,2.52-1.98,5.34-1.44,8.23c0.54,2.88,1.32,5.77,1.8,8.71c0.48,2.94-0.78,6.79-3.78,8.29c-3,1.5-4.26,0.84-5.53-1.5
		c-1.26-2.34-2.52-5.22-3.9-7.75c-1.19-2.11-2.49-4.16-3.9-6.13c-0.42-0.6-1.32-0.9-2.04-1.32l-0.18,0.3
		c1.65,1.94,2.91,4.19,3.72,6.61c1.08,3.06,2.16,6.07,3.48,9.01c1.54,3.43,5.17,5.41,8.89,4.86c3.12-0.42,5.83-2.82,6.79-6.43
		c0.72-2.7,0.18-5.28-0.66-7.87c-1.62-4.98-3.96-9.85-2.58-15.73L129.01,31.96z M165.88,60.67c1.88-1.64,3.29-3.76,4.08-6.13
		c1.26-3.72,2.34-7.51,3.36-11.35c0.54-2.04-0.18-3.3-2.16-4.2c-1.09-0.55-2.24-1-3.42-1.32c-4.2-1.14-8.41-2.16-12.55-3.36
		c-1.98-0.54-3.9-1.38-5.83-2.1c0.65,1,1.48,1.85,2.46,2.52c3.06,2.22,6.61,3.42,10.21,4.5c1.95,0.56,3.88,1.22,5.77,1.98
		c1.92,0.84,2.1,1.62,1.56,3.6c-0.66,2.11-1.18,4.25-1.56,6.43c-0.78,5.28-2.82,9.43-8.29,11.29
		C161.81,62.95,164.17,62.26,165.88,60.67L165.88,60.67z M150.57,58.99c-3.54-0.54-7.09-0.72-10.51,0.3
		c-1.73,0.46-3.37,1.19-4.86,2.16c-2.82,1.86-3.72,4.86-2.94,8.23c0.46,1.88,1.32,3.65,2.52,5.16c0.12-1.08,0.06-2.16,0.12-3.24
		c0.24-3.36,1.32-6.31,4.5-8.05c1.98-1.14,4.2-1.32,6.43-1.32c3.42,0.06,6.91,0.12,10.33,0c1.82-0.03,3.56-0.71,4.92-1.92
		L150.57,58.99z M250.14,79.23c6.73-12.55,7.93-29.55-1.38-41.86C253.32,51.24,252.66,65.11,250.14,79.23L250.14,79.23z
		 M106.73,41.39c-0.76,5.24-2.85,10.2-6.07,14.41c-1.86,2.64-3.9,5.16-5.77,7.87c-2.58,3.78-3.12,8.05-2.1,12.55
		c0.5-2.94,1.65-5.73,3.36-8.17c2.28-3.42,4.74-6.79,6.91-10.33c3.3-5.26,4.71-11.49,4.02-17.66
		C106.94,40.5,106.82,40.94,106.73,41.39z M176.69,58.69l7.81-11.65l0.3,0.12v2.76c0.94-1.62,1.76-3.31,2.46-5.04
		c0.84-1.98,1.62-3.96,2.28-5.95c0.66-1.98-0.06-1.56-1.2-1.02s-3.36,1.8-4.98,2.76c-0.23,0.23-0.39,0.52-0.48,0.84
		c-0.9,2.94-1.62,5.95-2.7,8.83c-1.08,2.88-2.4,5.47-3.66,8.17L176.69,58.69z M144.5,33.52c-0.96-0.42-2.04-1.32-2.88-1.14
		c-2.4,0.42-4.74,1.32-7.15,2.04l0.12,0.42c3.23,0.95,6.69,0.67,9.73-0.78L144.5,33.52z M128.59,104.81
		c1.08-1.92,2.82-1.8,4.68-1.44c0.42,0.07,0.85,0.05,1.26-0.06c-0.07-0.48-0.21-0.95-0.42-1.38c-1.18-1.48-3.33-1.73-4.81-0.55
		c-0.34,0.27-0.62,0.6-0.84,0.97c-0.42,0.84-0.9,1.62-0.36,2.58L128.59,104.81z M99.52,57.06l-0.24,0.24l-0.18,0.18l-0.36,0.36
		l-0.66,0.78l-1.26,1.56c-0.78,1.08-1.5,2.21-2.16,3.36c-1.28,2.31-2.33,4.74-3.12,7.27c-1.52,5.06-2.03,10.36-1.5,15.61
		c0.6,5.17,1.93,10.22,3.96,15.01c1,2.36,2.12,4.66,3.36,6.91c0.3,0.6,0.66,1.14,0.96,1.68l1.02,1.68l1.02,1.62l1.02,1.62l0.54,0.78
		l0.6,0.78l1.08,1.56l1.2,1.56l0.54,0.72l0.6,0.78l1.2,1.5l1.26,1.44c0.78,1.02,1.62,1.98,2.46,2.94
		c3.42,3.78,7.03,7.39,10.75,10.87c7.54,6.85,15.49,13.24,23.78,19.16c-8.14-6.09-15.9-12.67-23.24-19.7
		c-3.6-3.54-7.15-7.27-10.39-11.11c-0.84-0.96-1.62-1.92-2.4-2.94l-1.2-1.5l-1.14-1.5l-0.6-0.72l-0.54-0.78l-1.08-1.56l-1.08-1.56
		l-0.54-0.78l-0.48-0.78l-1.02-1.62l-0.96-1.62c-0.3-0.54-0.6-1.08-0.96-1.62l-0.84-1.68c-1.19-2.21-2.23-4.5-3.12-6.85
		c-1.88-4.64-3.03-9.54-3.42-14.53c-0.39-4.91,0.2-9.85,1.74-14.53c0.77-2.33,1.8-4.56,3.06-6.67c0.63-1.04,1.31-2.04,2.04-3
		l1.14-1.38l0.6-0.66l0.3-0.3l0.18-0.18l0.12-0.12L99.52,57.06z"/>
</g>
<g id="Layer_9">
</g>
<g id="Layer_10">
</g>
<g id="Layer_11">
</g>
<g id="Layer_12">
</g>
<g id="Layer_13">
</g>
<g id="Layer_14">
</g>
<g id="Layer_15">
</g>
</svg>
