<?xml version="1.0" encoding="utf-8"?>
<!-- Generator: Adobe Illustrator 27.8.1, SVG Export Plug-In . SVG Version: 6.00 Build 0)  -->
<svg version="1.1" xmlns="http://www.w3.org/2000/svg" xmlns:xlink="http://www.w3.org/1999/xlink" x="0px" y="0px"
	 viewBox="0 0 350 230" style="enable-background:new 0 0 350 230;" xml:space="preserve">
<style type="text/css">
	.st0{fill:#94D3EC;}
	.st1{fill-rule:evenodd;clip-rule:evenodd;fill:#1F3A6E;}
	.st2{fill:#E73F2D;}
	.st3{fill:#253E92;}
	.st4{fill:#EF3E25;}
	.st5{fill:#45BA8B;}
	.st6{fill:none;}
	.st7{fill:#F5B92B;}
	.st8{fill:#0391B3;}
	.st9{fill:#116380;}
	.st10{fill:#939598;}
	.st11{fill:#36004C;}
	.st12{fill:#F2B21C;}
	.st13{fill:#E6E6E6;}
	.st14{fill:#33BFC7;}
	.st15{fill:#463895;}
	.st16{fill:#470000;}
	.st17{fill:#FFFFFF;}
	.st18{fill:#ED1C24;}
	.st19{fill:#373D01;}
	.st20{fill:#6D2700;}
	.st21{fill:#C94502;}
	.st22{fill:#4FAF76;}
	.st23{fill:#231F20;}
	.st24{fill:#0049FF;}
	.st25{fill:#9A5E26;}
</style>
<g id="Layer_1">
</g>
<g id="Layer_2">
</g>
<g id="Layer_3">
</g>
<g id="Layer_4">
</g>
<g id="Layer_5">
</g>
<g id="Layer_6">
</g>
<g id="Layer_7">
</g>
<g id="Layer_8">
</g>
<g id="Layer_9">
</g>
<g id="Layer_10">
</g>
<g id="Layer_11">
</g>
<g id="Layer_12">
</g>
<g id="Layer_13">
</g>
<g id="Layer_14">
</g>
<g id="Layer_15">
	<path class="st25" d="M200.01,18.39c-2.58,3.85-2.86,7.65-1.27,11.64c0.38-3.66,0.61-7.37,3.19-10.28s6.38-3.66,10.23-3.38
		c5.96,0.42,9.24,4.79,9.81,12.86c1.83-2.16,1.64-6.19-0.7-10.7c5.73,1.41,11.17,2.63,15.72,6.15c2.11,1.6,2.25,4.04,1.69,6.43
		c-0.18,1.02-0.57,1.99-1.13,2.86c-1.97,3.19-3.28,6.52-3.38,10.28c-0.09,0.76-0.29,1.51-0.61,2.21c-1.08,2.44-3.28,3-5.4,1.36
		s-3.75-4.97-3.57-8.4c0.05-0.99-0.38-1.97-0.56-2.96c-0.56,0.89-1.36,1.78-1.6,2.77c-0.47,2.3-0.42,4.55,0.94,6.62
		c0.9,1.21,0.84,2.89-0.14,4.04c-1.74,2.21-3.33,4.65-5.49,6.43c-4.54,3.84-11.27,3.54-15.44-0.7c-1.85-1.94-3.52-4.04-4.97-6.29
		c-0.42-0.66-0.38-2.06,0-2.82c1.6-2.86,1.64-5.77,0.8-8.82c-0.14-0.52-0.8-0.89-1.22-1.31c-0.19,0.56-0.61,1.17-0.52,1.74
		c0.33,3.47-0.19,6.62-2.96,9.06c-2.77,2.44-5.96,1.97-6.48-2.06c-0.47-4.25-1.85-8.34-4.04-12.01c-0.32-0.62-0.54-1.28-0.66-1.97
		c-0.89-3.33,0.09-5.82,3.05-7.6C189.73,20.88,194.71,19.61,200.01,18.39z M210.57,41.66L210.57,41.66c0.2-0.02,0.41-0.02,0.61,0
		l2.96,1.31c-0.56,0.84-1.08,1.69-1.6,2.53c-0.52,0.84-1.08,1.36-1.13,2.02c-0.05,1.83,1.92,3.61,3.8,3.66
		c1.88,0.05,3.52-1.17,3.75-3.33s-0.75-4.55-2.21-6.48c-2.49-3.33-5.68-4.36-9.01-2.91s-6.52,6.19-5.82,9.62
		c0.33,1.6,1.22,2.86,2.96,3.1c1.77,0.29,3.52-0.6,4.32-2.21c0.8-1.6,0-2.72-1.22-3.75c-1.22-1.03-1.36-1.78-1.13-2.16
		s1.45-1.03,2.25-1.36C209.91,41.38,210.1,41.66,210.57,41.66z M210.43,50.82c-0.99,0.61-1.97,1.17-2.91,1.83
		c-0.3,0.25-0.52,0.6-0.61,0.99c-0.14,1.83,1.78,3.8,3.61,3.8c1.83,0,3.66-2.02,3.52-3.71c-0.08-0.38-0.27-0.73-0.56-0.99
		L210.43,50.82z M217.47,30.64c-0.84,1.31-1.83,2.11-1.69,2.77c0.14,0.66,1.13,1.36,1.78,2.02c0.61-0.61,1.64-1.22,1.64-1.83
		S218.36,32,217.47,30.64z M206.07,33.55c-1.27-0.89-1.97-1.88-2.72-1.83c-0.75,0.05-1.74,1.17-1.69,1.74
		c0.29,0.87,0.96,1.56,1.83,1.88C204,35.42,204.8,34.44,206.07,33.55z M197.06,63.2c-3.94,7.04-4.08,14.22-1.5,21.77
		c3.89,11.59,6.8,23.46,7.04,35.81c0.05,1.22-0.09,2.02-1.31,2.63c-1.62,0.71-2.38,2.59-1.69,4.22c0.47,0.99,2.21,1.88,3.43,2.02
		c3.61,0.38,6.05-2.44,5.96-7.04c-0.19-11.26-0.56-22.57-0.99-33.83c-0.05-1.13-0.8-2.39-1.55-3.38c-1.78-2.39-3.94-4.46-5.58-6.9
		c-1.85-2.8-1.26-6.54,1.36-8.63c2.35-1.97,4.83-1.69,7.74,0.8c0.15,0.14,0.33,0.25,0.52,0.33c4.08-3.52,8.26-3,10.14,1.31
		c1.08,2.44,0.61,4.83-0.89,6.85c-1.5,2.02-3.52,4.08-5.16,6.19c-0.66,0.84-1.31,1.92-1.36,2.91c-0.52,10.89-0.94,21.82-1.31,32.71
		c-0.04,1.59,0.18,3.18,0.66,4.69c0.89,3.19,3.05,4.55,6.29,3.89c0.94-0.19,2.39-0.94,2.49-1.6c0.09-0.66-0.33-2.58-0.75-3.85
		c-0.09-0.38-0.84-0.52-1.08-0.89s-1.08-1.41-1.03-2.06c0.47-5.21,0.56-10.51,1.64-15.63c1.69-7.79,4.04-15.44,6.1-23.18
		c1.22-4.5,1.83-9.1,0.14-13.61c-1.69-4.5-3.33-7.88-4.97-11.78c-5.77,5.54-14.74,6.52-21.87-0.23
		C198.65,58.98,198.13,61.23,197.06,63.2z M169.88,44.01c-2.21,0.19-4.22,0.23-6.19,0.61c-1.97,0.38-3.94,0.84-5.63,1.78
		s-3,0.75-4.41-0.75c-2.91-3.05-4.41-6.76-5.73-10.65c-0.23-0.75-0.52-1.5-0.99-2.77c-0.89,2.39-1.41,4.41-2.39,6.19
		c-1.54,2.66-3.22,5.25-5.02,7.74c-0.8,1.13-1.92,1.27-3.28,0.52c-3.75-2.06-7.88-2.67-12.25-2.49c0-0.8-0.19-1.45,0.05-1.97
		c1.64-3.8,0.09-7.6,0.19-11.4s0.61-7.51,1.08-11.26c0.19-1.74,1.31-2.06,2.67-1.08c2.91,2.16,5.91,4.27,8.59,6.66
		c1.55,1.41,2.86,2.11,4.93,1.5c3.79-1.19,7.86-1.16,11.64,0.09c1.6,0.52,2.44,0,3.61-1.03c2.72-2.52,5.6-4.86,8.63-6.99
		c2.06-1.5,2.58-1.13,3.24,1.27c1.27,4.62,1.5,9.46,0.66,14.17c-0.38,2.3-0.89,4.55,0.23,6.85
		C169.88,41.85,169.79,42.93,169.88,44.01z M166.46,33.59c0-3.38,0.99-6.71-1.36-10.18l-5.87,5.3L166.46,33.59z M134.6,28.81
		c-1.88-1.6-3.57-3.14-5.4-4.55c-0.23-0.23-1.31,0.05-1.41,0.33c-0.94,2.91-0.7,5.82-0.23,8.87L134.6,28.81z M158.43,40.26
		c-1.31-0.89-2.11-1.78-2.82-1.74c-0.7,0.05-1.78,1.31-1.69,1.74c0.32,0.89,1.03,1.58,1.92,1.88
		C156.37,42.27,157.17,41.2,158.43,40.26z M137.79,42.51h0.84c0.47-0.75,1.41-1.6,1.27-2.11c-0.14-0.52-1.22-1.36-1.88-1.97
		c-0.61,0.61-1.64,1.27-1.69,1.92S137.27,41.76,137.79,42.51z M183.07,106.05c1.08,5.12,3.61,9.53,6.29,13.89
		c0.42,0.66,0.75,1.31,1.22,2.06c-1.22,0.28-2.11,0.38-2.96,0.61c-1.83,0.56-3.19,1.55-3.75,3.47c-0.56,1.92-0.05,1.88,1.31,1.88
		h10.09c1.13-2.25,1.74-4.32,3.05-5.87c1.31-1.55,1.45-1.83,1.36-3.14c-0.38-3.85-0.38-7.79-1.13-11.54
		c-1.41-6.95-3.19-13.8-4.88-20.93C185.14,90.19,181.34,97.7,183.07,106.05L183.07,106.05z M234.78,127.87
		c0.78-0.06,1.56-0.22,2.3-0.47c-0.23-0.94-0.19-2.16-0.8-2.82s-1.97-1.45-3.05-1.97c-1.08-0.52-1.92-0.42-3.05-0.7l1.31-2.06
		c3.38-5.12,6.1-10.46,6.76-16.71s-3.94-14.22-10.65-16.28c-1.17,3.99-2.44,7.98-3.52,12.01c-1.8,6.69-2.71,13.58-2.72,20.51
		c0,0.66,0.09,1.74,0.52,2.02c2.3,1.45,3.19,3.52,2.96,6.52C228.31,127.92,231.55,127.96,234.78,127.87L234.78,127.87z
		 M117.66,128.1c2.21,0.94,4.32,2.3,6.62,2.77c4.91,1.05,9.87,1.77,14.88,2.16c10.32,0.61,19.29,4.08,27.08,10.89
		c2.87,2.49,6.04,4.61,9.43,6.34c4.22,2.11,8.63,2.44,12.67-0.7c1.97-1.43,2.82-3.96,2.11-6.29c-0.52-1.55-1.41-2.67-3.1-2.96
		c-1.69-0.28-2.63,0.61-3.38,1.88s-2.72,1.97-4.5,1.36c-1.03-0.37-1.99-0.89-2.86-1.55c-3-2.16-5.82-4.46-8.87-6.52
		c-6.62-4.55-13.8-7.74-22.01-7.88c-1.27-0.05-2.58-0.28-3.71,0.09c-8.02,2.67-16.05,3.24-24.07-0.09L117.66,128.1z M131.5,126.98
		c-5.77,0.33-11.22-0.38-15.81-4.13c-3.52-2.86-5.16-6.71-4.5-11.22c0.66-4.5,3.43-7.74,7.93-9.1c1.22-0.38,1.83-0.94,2.06-2.21
		c0.61-2.91,2.35-5.21,4.5-7.37c1.97,7.37,4.22,14.55,5.68,21.82C132.16,118.62,131.5,122.75,131.5,126.98L131.5,126.98z
		 M120.8,109.9c-2.58,1.31-3.24,2.67-2.25,5.16c1.45,3.75,4.79,4.97,8.17,6.24L120.8,109.9z M158.86,59.83
		c0,3.14-0.09,6.29,0.05,9.43c0.14,3.14,0.7,7.7,0.7,11.54c0,7.32-2.49,14.22-3.89,21.3c-1.41,7.09-2.21,13.19-3.1,19.8
		c-0.06,1.06,0.39,2.09,1.22,2.77c1.13,0.84,2.67,1.22,4.08,1.78c0.19-0.42,0.33-0.61,0.28-0.8c-0.8-6.95,1.5-13.33,3.52-19.8
		c1.75-5.51,3.1-11.14,4.04-16.85c1.6-10.42-2.86-19.71-6.24-29.14L158.86,59.83z M141.07,118.72c-1.22-7.23-2.58-14.41-4.22-21.54
		c-2.16-9.34-3.75-18.63-1.88-28.25c0.56-2.96,0-6.15-0.09-9.24h-0.66c-1.64,4.74-3.38,9.39-4.88,14.17
		c-0.65,2.46-1.09,4.97-1.31,7.51c-0.94,8.78,1.5,16.99,4.32,25.11c2.16,6.29,4.13,12.62,3.24,19.62
		C141.12,125.01,141.96,124.07,141.07,118.72z M173.87,107.41c0.19-5.68-1.83-10.37-5.58-14.36c-1.6,5.63-3.05,11.17-4.74,16.61
		c-1.69,5.44-1.78,11.92-1.36,18.25c3.38,0,6.62-0.09,9.85,0c1.83,0.05,2.06-0.94,1.55-2.21c-0.44-0.99-1.18-1.81-2.11-2.35
		c-1.22-0.7-2.67-1.03-4.32-1.6C170.96,117.64,173.69,113.13,173.87,107.41z M142.53,100.89c0.7,4.32,1.55,8.63,2.06,13
		c0.52,4.36,1.17,8.73-1.03,12.81l6.99,0.61c-0.52-1.78-1.55-3.75-1.6-5.77c-0.1-3.45,0.1-6.91,0.61-10.32
		c0.42-3.52,1.27-6.95,1.97-10.42l-0.38-0.14c-1.41,4.22-2.82,8.45-4.22,12.53l-4.27-12.53L142.53,100.89z M153.74,51
		c-0.61,0.84-1.03,2.02-1.83,2.44c-0.8,0.42-2.63,0.7-3.05,0.19c-0.42-0.52-0.47-2.16-0.42-3.28c0.05-0.42,0.94-0.8,0.99-1.27
		c0.05-0.47-0.14-2.25-0.33-2.25c-1.55-0.09-3.47-0.42-4.65,0.33c-1.17,0.75,0.05,2.11,0.75,3.05s0.89,2.96-0.33,3.61
		c-1.22,0.66-2.67,0.33-3.52-1.08c-0.42-0.66-0.89-1.27-1.55-2.16c-1.03,1.83-0.42,3.05,0.52,4.04s2.77,2.16,4.46,1.27
		c1.69-0.89,2.58-0.7,4.04-0.05c1.45,0.66,4.74-0.28,5.54-2.35c0.28-0.7,0.05-1.64,0.05-2.49L153.74,51z M136.29,49.27
		c-4.56-2.47-9.86-3.22-14.92-2.11c-0.38,0.09-0.66,0.56-0.99,0.84c0.42,0.23,0.84,0.75,1.22,0.7c4.53-0.57,9.14-0.04,13.42,1.55
		c0.33,0.14,0.89-0.19,1.31-0.33C136.34,49.7,136.33,49.48,136.29,49.27z M173.31,47.72c-0.14-0.09-0.28-0.28-0.47-0.33
		c-5.07-1.36-9.95-0.66-14.69,1.45c-0.28,0.14-0.38,0.7-0.52,1.08c-0.14,0.38,0.99,0.28,1.41,0.14c4.13-1.27,8.31-1.92,12.62-1.45
		c0.52,0.09,1.08-0.19,1.64-0.28V47.72z M121.03,53.54l12.39-0.89v-0.56c-4.18-1.36-8.26-1.08-12.34,0.47L121.03,53.54z
		 M160.41,52.69l12.2,0.84C170.45,50.96,162.24,50.67,160.41,52.69z"/>
</g>
</svg>
