<?xml version="1.0" encoding="utf-8"?>
<!-- Generator: Adobe Illustrator 27.8.1, SVG Export Plug-In . SVG Version: 6.00 Build 0)  -->
<svg version="1.1" xmlns="http://www.w3.org/2000/svg" xmlns:xlink="http://www.w3.org/1999/xlink" x="0px" y="0px"
	 viewBox="0 0 350 230" style="enable-background:new 0 0 350 230;" xml:space="preserve">
<style type="text/css">
	.st0{fill:#94D3EC;}
	.st1{fill-rule:evenodd;clip-rule:evenodd;fill:#1F3A6E;}
	.st2{fill:#E73F2D;}
	.st3{fill:#253E92;}
	.st4{fill:#EF3E25;}
	.st5{fill:#45BA8B;}
	.st6{fill:none;}
	.st7{fill:#F5B92B;}
	.st8{fill:#0391B3;}
	.st9{fill:#116380;}
	.st10{fill:#939598;}
	.st11{fill:#36004C;}
	.st12{fill:#F2B21C;}
	.st13{fill:#E6E6E6;}
	.st14{fill:#33BFC7;}
	.st15{fill:#463895;}
	.st16{fill:#470000;}
	.st17{fill:#FFFFFF;}
	.st18{fill:#ED1C24;}
	.st19{fill:#373D01;}
	.st20{fill:#6D2700;}
	.st21{fill:#C94502;}
	.st22{fill:#4FAF76;}
	.st23{fill:#231F20;}
	.st24{fill:#0049FF;}
	.st25{fill:#9A5E26;}
</style>
<g id="Layer_1">
	<g>
		<path class="st0" d="M136.4,121.39c0.17-0.5,0.41-1.08,0.66-1.66h3.15v3.81h-3.81V121.39z M112.87,122.72h3.81v-3.89h-3.81V122.72
			z M123.14,107.48h-1.66v3.89h2.9l-0.5-1.24C123.56,109.27,123.31,108.38,123.14,107.48z M140.7,108.06l-0.25,0.58
			c-0.4,1.08-0.74,2.19-0.99,3.31h1.16c0.32-1.35,0.8-2.65,1.41-3.89H140.7z M162.74,71.27h3.89v-3.89h-3.89V71.27z M91.66,129.76
			h3.81v-3.89h-3.81V129.76z M112.87,99.77v3.89h2.15l0.17-0.17c0.55-0.34,1.05-0.76,1.49-1.24v-2.49H112.87z M73.77,135.14h3.89
			v-3.89h-3.89V135.14z M91.66,122.06h3.81v-3.81h-3.81V122.06z M97.79,129.76h3.89v-3.89h-3.89V129.76z M99.7,110.54h-1.91v1.91
			C98.36,111.75,99,111.11,99.7,110.54z M97.79,114.35h3.89v-0.75c-1.31-0.16-2.61-0.41-3.89-0.75V114.35z M232.91,92.73h-3.89v3.81
			h3.89V92.73z M145.09,104.66h0.99v0.5c0.57-0.12,1.15-0.21,1.74-0.25C146.95,104.62,146.01,104.53,145.09,104.66z M106.08,119.82
			h3.15v-5.47c-1.02,0.33-2.08,0.55-3.15,0.66V119.82z M175,34C109.99,34,57.28,86.7,57.28,151.71h11.68v-24.02h11.76v7.21h4.31
			v-5.96h3.07v-22.7h4.31v-7.54h1.99v-7.7h1.82v-9.78h1.74v9.78h1.82v7.7h1.99v7.54h4.31v0.99l3.15-1.08v-10.6h3.98v-3.56h4.64V84.2
			h5.38v7.79h0.58l0.58-0.91l0,0c6.46-10.11,19.22-10.19,30.82-10.69v-9.11h4.72v-14.5l7.21-6.88v-8.2h1.41v8.2l7.21,6.88v14.5h2.15
			l0.33-0.41l0,0v0.17c0.3-1.42,0.52-2.86,0.66-4.31c1.24,1.99,2.49,2.82,3.98,4.47c1.49,1.66,2.4,3.15,3.73,3.73
			c3.56,1.66,5.96-0.91,5.22-5.88c-0.41-2.65,0.17-2.73,0.17-6.63c0-2.65-1.08-5.3-3.4-6.3c1.81,1.54,2.76,3.85,2.57,6.21
			c-0.25,4.14-0.91,4.14-0.33,7.79c0.58,3.65-2.15,6.05-5.47,2.07c-3.31-3.98-4.64-4.8-6.54-7.46s-1.49-5.96,1.41-7.62l1.16-0.75
			c1.24-2.24,3.89-3.56,7.62-3.81s9.86,1.41,11.02,2.32c1.16,0.91,1.41,1.99,1.82,3.07l2.32,0.41c2.73,0.33,6.71,0,7.37,0.17
			s0.75,0.41,0.58,3.65c-0.17,3.23-0.99,4.47-2.24,5.3l1.16,0.75c0.41,0.25-0.5,2.82-2.73,3.81c-2.24,0.99-6.13,0.91-9.69,3.89
			c-0.52,0.88-0.91,1.83-1.16,2.82h0.25c0.66-0.08,0.33,2.24-0.33,2.32h-0.25c-0.01,0.12,0.02,0.23,0.08,0.33
			c0.17,2.98,1.57,5.8,2.4,9.2h0.17v0.91c0.37,2.11,0.37,4.27,0,6.38v19.72l1.74,2.15c0.33,0.58,1.33,1.33,1.74,0.58
			c0.41-0.75,0-4.64,1.91-7.04c1.34-1.54,2.37-3.31,3.07-5.22c-0.08,0-0.17,0-0.17-0.08s-0.08-1.91,0.33-2.15h0.17
			c0.04-1.89-0.51-3.74-1.57-5.3c-0.99-1.57-1.57-3.15,0.33-5.63c0,0,0.08-0.99,0.83-0.91c0.75,0.08,2.32,0.5,2.98,0.25
			c0.66-0.25,2.07-1.24,4.22-0.91c0.82,0.13,1.61,0.41,2.32,0.83c0.75-1.49,1.24-2.98,1.41-2.98s0.08,0,0.17,0.17v-2.98h4.31v-7.62
			h1.99V73.1h1.74V63.4h1.82v9.78h1.82v7.62h2.07v7.62h4.31v10.11h3.81v28.75H245c0.3-0.32,0.63-0.59,0.99-0.83v-8.62h3.65v-9.11
			h6.79v9.11h3.64v24.36h5.22v-7.29l7.87-7.46l7.87,7.46v16.65h-15.16v0.25h26.84C292.76,86.78,240.1,34.04,175.08,34
			C175.06,34,175.03,34,175,34z M211.62,147.9v-3.23c-1.41,2.82-3.48,6.38-3.89,6.54h-5.63c-0.41-2.57,0.66-3.81,3.73-2.73
			c0,0,2.15-5.55,2.49-10.02l0,0c0.25-4.47-2.32-11.27-2.9-16.32c-0.24,1.79-0.24,3.6,0,5.38c0,0-2.9,2.07-5.55,0.5v23.78h11.76
			v-0.58h-0.75C210.71,150.06,210.97,148.88,211.62,147.9z M252.95,125.37h3.89v-3.89h-3.89V125.37z M249.39,138.13h2.9v-3.89h-3.89
			v2.32c0.14,0.15,0.25,0.31,0.33,0.5L249.39,138.13z M274.24,137.8v3.89h3.89v-3.89H274.24z M268.11,145.5v3.89h3.81v-3.89H268.11z
			 M168.95,63.57h3.81v-3.89h-3.81V63.57z M237.54,106.07h-3.81v3.89h3.81V106.07z"/>
		<path class="st1" d="M178.89,64.73c-1.82-2.65-1.49-5.96,1.41-7.62l1.16-0.75c1.24-2.24,3.89-3.56,7.62-3.81s9.86,1.41,11.02,2.32
			c1.16,0.91,1.41,1.99,1.82,3.07l2.32,0.41c2.73,0.33,6.71,0,7.37,0.17s0.75,0.41,0.58,3.65s-0.99,4.47-2.24,5.3l1.16,0.75
			c0.41,0.25-0.5,2.82-2.73,3.81s-6.13,0.91-9.69,3.89c-0.52,0.88-0.91,1.83-1.16,2.82c-3.73,0.64-7.56,0.27-11.1-1.08
			c-3.42-1.15-6.31-3.5-8.12-6.63c0.3-1.42,0.52-2.86,0.66-4.31c1.24,1.99,2.49,2.82,3.98,4.47c1.49,1.66,2.4,3.15,3.73,3.73
			c3.56,1.66,5.96-0.91,5.22-5.88c-0.41-2.65,0.17-2.73,0.17-6.63c0-2.65-1.08-5.3-3.4-6.3c1.81,1.54,2.76,3.85,2.57,6.21
			c-0.25,4.14-0.91,4.14-0.33,7.79c0.58,3.65-2.15,6.05-5.47,2.07C182.12,68.21,180.8,67.38,178.89,64.73z M208.22,94.06
			c-0.75-0.08-0.83,0.91-0.83,0.91c-1.91,2.49-1.33,4.06-0.33,5.63c1.06,1.56,1.61,3.41,1.57,5.3c1.92,1.29,4.15,2.06,6.46,2.24
			c2.42,0.29,4.88-0.05,7.12-0.99c0.08-0.5,0.08-0.99,0.17-1.66c0.58-3.81,0.08-4.97,0.08-4.97s0.75-5.3,0.25-6.05
			c-0.5-0.75-2.65,1.24-2.65,1.24l0,0c0.17-2.9-0.66-4.56-0.91-4.47c-0.25,0.08-0.66,1.49-1.41,2.98c-0.71-0.42-1.5-0.7-2.32-0.83
			c-2.15-0.33-3.56,0.75-4.22,0.91C210.54,94.47,208.96,94.14,208.22,94.06z M248.73,137.05c4.22,6.05,3.07,14.17-5.55,14.17h-32.31
			c-0.25-3.4,1.74-4.72,3.81-4.47c2.07,0.25,4.14,0.75,5.72,0.58c-5.63-3.73-8.2-12.01-1.49-16.57c-4.8,1.66-5.55,5.8-5.63,10.52
			c0,0.25-4.8,9.69-5.55,9.94h-5.63c-0.41-2.57,0.66-3.81,3.73-2.73c0,0,2.15-5.55,2.49-10.02l0,0c0.25-4.47-2.32-11.27-2.9-16.32
			c-0.24,1.79-0.24,3.6,0,5.38c0,0-5.05,3.65-8.04-2.24c-1.56-3.09-3.3-6.07-5.22-8.95c-1.16,2.32-2.49,4.56-3.81,6.79
			c-1.33,2.24-3.31,5.96-3.65,8.86c-0.29,4.69-0.29,9.39,0,14.08c2.9-0.91,6.54,0.75,6.3,5.14h-11.02c0,0-0.58-8.7-1.57-14.5
			s-1.16-15.82-1.16-15.82c2.78-1.82,5.1-4.26,6.79-7.12c-2.9,3.4-6.96,6.71-11.1,7.29c-4.22,6.13-5.3,16.24-5.96,24.6
			c4.56-0.99,6.21,2.98,5.88,5.55H161c0.75-4.56,1.33-11.93,2.07-17.65c0.75-5.72,0.75-12.34,0.75-12.34
			c2.02-4.83,1.19-10.38-2.15-14.41c0.85,1.96,1.46,4.02,1.82,6.13l-0.83-0.58c-1.93-1.61-4.48-2.28-6.96-1.82
			c0.67,1.81,1.06,3.71,1.16,5.63c0.75,10.52-9.03,14.33-9.78,19.63c-0.41,2.82,0.83,7.54,1.99,10.36c2.9-1.08,6.71,0.58,6.38,5.05
			h-9.2c-1.33-5.96-2.65-8.28-5.3-13.5c-1.91-3.73-0.91-4.14,0.91-6.13c5.3-5.63,3.31-11.68-1.74-17.31
			c1.66-9.03,4.64-9.11,7.7-9.36c-2.65-0.91-5.8-0.08-7.37,3.73c-0.91,2.24-1.33,5.14-2.4,8.37c-1.32,3.73-2.93,7.36-4.8,10.85
			c-3.98,8.2-5.72,12.09-4.8,17.98c5.05-1.49,6.79,2.73,6.46,5.38h-11.18c-0.66-5.72,1.66-12.26,1.08-18.47c0,0,1.82-1.33,1.99-2.49
			c0.17-1.16,0.41-11.93-2.9-20.13c-1.57-3.89-1.33-8.2-0.75-11.76c-0.98,2.4-1.54,4.95-1.66,7.54c-4.72,8.2-9.94,9.69-9.94,9.69
			l1.33-3.15c-4.97,3.81-11.27,2.4-11.27,2.4c0.86-0.25,1.69-0.58,2.49-0.99c-2.21-0.14-4.4-0.5-6.54-1.08
			c4.39-5.96,13.09-6.05,17.65-9.28c2.9-1.99,4.72-5.55,9.2-12.43l0,0c11.6-18.06,43.41-4.14,52.85-17.65
			c2.1,2.89,5.01,5.08,8.37,6.3c3.69,1.43,7.68,1.88,11.6,1.33c-0.01,0.12,0.02,0.23,0.08,0.33c0.33,4.89,3.98,9.44,2.49,16.82
			l-0.75-1.91c0.27,3.38-0.21,6.77-1.41,9.94c0,0-0.25-1.57-0.5-2.9c-0.65,2.79-1.56,5.51-2.73,8.12c2.98,3.23,6.88,7.79,7.21,8.28
			c0.33,0.5,1.33,1.33,1.74,0.58c0.41-0.75,0-4.64,1.91-7.04c1.34-1.54,2.37-3.31,3.07-5.22c2.04,1.16,4.3,1.86,6.63,2.07
			c2.43,0.27,4.89,0.02,7.21-0.75c0.17,3.15,1.82,3.89,5.63,6.13c10.27,6.05,13.01,14.41,10.44,27.42
			c-1.33,6.79,12.59,5.8,6.71-4.39c-2.4-4.22-3.31-9.28,1.57-12.43s8.53,2.65,3.31,3.4S247.24,134.9,248.73,137.05z M210.54,110.87
			c0-0.69-0.56-1.24-1.24-1.24c-0.7,0-1.28,0.54-1.33,1.24c0,0.73,0.59,1.33,1.33,1.33h0C210,112.15,210.54,111.57,210.54,110.87z"
			/>
		<path class="st2" d="M178.23,70.86c1.57,3.07,4.64,5.38,8.2,6.79c3.62,1.36,7.55,1.7,11.35,0.99c0.66-0.08,0.33,2.24-0.33,2.32
			c-3.99,0.62-8.07,0.2-11.85-1.24c-3.44-1.22-6.42-3.48-8.53-6.46C176.82,72.85,177.9,71.19,178.23,70.86L178.23,70.86z
			 M208.47,105.82c-0.41,0.25-0.58,1.57-0.33,2.15c2.07,1.22,4.4,1.96,6.79,2.15c2.49,0.29,5.01,0.01,7.37-0.83
			c0.5-0.33,0.66-1.91,0.08-2.24c-2.28,1.02-4.81,1.4-7.29,1.08C212.72,107.95,210.44,107.15,208.47,105.82L208.47,105.82z
			 M207.97,110.87c0,0.73,0.59,1.33,1.33,1.33h0c0.7-0.04,1.24-0.62,1.24-1.33c0-0.69-0.56-1.24-1.24-1.24
			C208.6,109.63,208.01,110.17,207.97,110.87L207.97,110.87z"/>
	</g>
</g>
<g id="Layer_2">
</g>
<g id="Layer_3">
</g>
<g id="Layer_4">
</g>
<g id="Layer_5">
</g>
<g id="Layer_6">
</g>
<g id="Layer_7">
</g>
<g id="Layer_8">
</g>
<g id="Layer_9">
</g>
<g id="Layer_10">
</g>
<g id="Layer_11">
</g>
<g id="Layer_12">
</g>
<g id="Layer_13">
</g>
<g id="Layer_14">
</g>
<g id="Layer_15">
</g>
</svg>
