<?xml version="1.0" encoding="utf-8"?>
<!-- Generator: Adobe Illustrator 27.8.1, SVG Export Plug-In . SVG Version: 6.00 Build 0)  -->
<svg version="1.1" xmlns="http://www.w3.org/2000/svg" xmlns:xlink="http://www.w3.org/1999/xlink" x="0px" y="0px"
	 viewBox="0 0 350 230" style="enable-background:new 0 0 350 230;" xml:space="preserve">
<style type="text/css">
	.st0{fill:#94D3EC;}
	.st1{fill-rule:evenodd;clip-rule:evenodd;fill:#1F3A6E;}
	.st2{fill:#E73F2D;}
	.st3{fill:#253E92;}
	.st4{fill:#EF3E25;}
	.st5{fill:#45BA8B;}
	.st6{fill:none;}
	.st7{fill:#F5B92B;}
	.st8{fill:#0391B3;}
	.st9{fill:#116380;}
	.st10{fill:#939598;}
	.st11{fill:#36004C;}
	.st12{fill:#F2B21C;}
	.st13{fill:#E6E6E6;}
	.st14{fill:#33BFC7;}
	.st15{fill:#463895;}
	.st16{fill:#470000;}
	.st17{fill:#FFFFFF;}
	.st18{fill:#ED1C24;}
	.st19{fill:#373D01;}
	.st20{fill:#6D2700;}
	.st21{fill:#C94502;}
	.st22{fill:#4FAF76;}
	.st23{fill:#231F20;}
	.st24{fill:#0049FF;}
	.st25{fill:#9A5E26;}
</style>
<g id="Layer_1">
</g>
<g id="Layer_2">
</g>
<g id="Layer_3">
</g>
<g id="Layer_4">
</g>
<g id="Layer_5">
</g>
<g id="Layer_6">
</g>
<g id="Layer_7">
</g>
<g id="Layer_8">
</g>
<g id="Layer_9">
</g>
<g id="Layer_10">
</g>
<g id="Layer_11">
</g>
<g id="Layer_12">
</g>
<g id="Layer_13">
	<path class="st22" d="M215.75,35.52c3.59,3.29,7.27,6.78,7.52,12.73l-2.95-1.08l-0.59,0.59c1.92,2.21,3.78,4.42,5.75,6.59
		c1.97,2.16,4.18,4.52,6.24,6.68c-3.1,6.54-10.13,9.29-17.74,7.13c-0.4-0.2-0.83-0.33-1.28-0.39l-4.72-0.44
		c-0.1,1.77-0.64,3.64-0.29,5.26c2.02,8.6,3.59,17.2,1.82,26.05c-0.29,1.52-0.84,3.05-1.33,4.87c10.32,5.26,16.66,13.66,18.09,25.31
		c0.79,6.88-0.64,13.42-4.57,20.01c0.59-3.05,1.23-5.41,1.52-7.82c1.62-13.91-5.41-26.64-18.04-32.84
		c-2.36-1.18-4.77-2.21-7.18-3.24c-6.39-2.7-11.11-6.68-11.35-14.94c-1.43,1.52-2.36,2.61-3.29,3.69c0.34-5.21,3.69-8.45,8.85-8.5
		c5.16-0.05,10.47-3.83,11.85-9.19c0.25-1.13-0.44-2.9-1.28-3.83c-0.84-0.93-3.24-2.56-4.77-4.23l3.2,0.39
		c-1.18-7.03-7.72-7.67-11.99-10.86c0.29-1.87,0.74-3.78,0.74-5.7s-0.59-2.56-0.93-3.88c-1.33,0.39-2.95,0.39-4.03,1.18
		c-2.24,1.56-4.3,3.35-6.14,5.36c-9.88,10.91-17.99,22.86-23.35,36.67c-3.39,8.8-2.36,17.4-0.05,26.1
		c0.93,3.54,2.26,6.98,3.34,10.52c0.2,0.79,0.15,2.02-0.29,2.51c-3.2,3.39-6.49,6.68-9.83,9.98s-7.42,5.51-12.78,5.51
		c2.46,2.65,5.26,3.05,7.82,1.92c3.09-1.24,5.96-2.96,8.5-5.11c5.41-4.77,10.42-9.98,15.63-14.94c1.72-1.57,3.54-3,5.85-4.96
		c-0.44,1.97-0.74,3.2-1.08,4.62c12.29-9.63,21.09-11.7,30.97-7.42c-0.05,0.2-0.05,0.44-0.15,0.49c-9,3.83-15.29,10.62-20.5,18.68
		c-4.13,6.49-9.04,12.34-15.29,16.91c-16.61,12.09-39.03,6.64-46.6-11.45c-4.03-9.54-3.29-19.32,0-28.85
		c5.21-15.29,14.8-27.13,29.25-34.8c8.9-4.77,14.55-12.53,19.47-20.99c1.82-3.15,3.39-6.54,4.96-9.83
		c5.16-11.06,13.52-18.33,25.22-21.92c3.59-1.08,6.93-2.95,10.42-4.33c2.18-0.91,4.43-1.65,6.73-2.21c3.24-0.69,4.72,0.84,3.54,3.88
		C219.44,28.39,217.52,31.98,215.75,35.52z"/>
</g>
<g id="Layer_14">
</g>
<g id="Layer_15">
</g>
</svg>
