<?xml version="1.0" encoding="utf-8"?>
<!-- Generator: Adobe Illustrator 27.8.1, SVG Export Plug-In . SVG Version: 6.00 Build 0)  -->
<svg version="1.1" id="Layer_1" xmlns="http://www.w3.org/2000/svg" xmlns:xlink="http://www.w3.org/1999/xlink" x="0px" y="0px"
	 viewBox="0 0 350 230" style="enable-background:new 0 0 350 230;" xml:space="preserve">
<style type="text/css">
	.st0{fill:#E77024;}
	.st1{fill:#121657;}
	.st2{fill:#81004A;}
	.st3{fill:#EB2332;}
	.st4{fill:#29337C;}
	.st5{fill:#005F7F;}
	.st6{fill:#F26933;}
	.st7{fill:#489DD6;}
	.st8{fill:#E1E31F;}
	.st9{fill:#EB7924;}
	.st10{fill:#95979A;}
	.st11{fill:#F2682C;}
	.st12{fill:#4EC3C3;}
	.st13{fill:#F99D1C;}
	.st14{fill:#307EC2;}
	.st15{fill:#A50440;}
	.st16{fill:#231F20;}
</style>
<g>
	<path class="st16" d="M152.1,82h-11.7V65.8h28v89.1c-0.3-0.2-0.6-0.5-0.8-0.8c-15.7-20.2-31.4-40.5-47-60.8c-0.4-0.6-0.7-1.3-0.7-2
		c0-20.9,0-41.7,0-62.6c0-0.4,0-0.9,0.1-1.2h48.5v29.8h-16.2V43.7h-16c0,0.6-0.1,1.1,0,1.7c0,13.3,0,26.5,0,39.8c0,1,0.4,1.9,1,2.7
		c4.8,6.4,9.7,12.7,14.9,19.4V82z M192.4,82h11.7V65.8h-28v89.1c0.3-0.2,0.6-0.5,0.8-0.8c15.7-20.2,31.4-40.5,47-60.8
		c0.4-0.6,0.7-1.3,0.7-2c0-20.9,0-41.7,0-62.6c0-0.4,0-0.9-0.1-1.2H176v29.8h16.2V43.7h16c0,0.6,0.1,1.1,0,1.7c0,13.3,0,26.5,0,39.8
		c0,1-0.4,1.9-1,2.7c-4.8,6.4-9.7,12.7-14.9,19.4L192.4,82L192.4,82z"/>
</g>
</svg>
