<?xml version="1.0" encoding="utf-8"?>
<!-- Generator: Adobe Illustrator 27.8.1, SVG Export Plug-In . SVG Version: 6.00 Build 0)  -->
<svg version="1.1" id="Layer_1" xmlns="http://www.w3.org/2000/svg" xmlns:xlink="http://www.w3.org/1999/xlink" x="0px" y="0px"
	 viewBox="0 0 350 230" style="enable-background:new 0 0 350 230;" xml:space="preserve">
<style type="text/css">
	.st0{fill:none;stroke:#000000;stroke-miterlimit:10;}
	.st1{fill:#212B63;}
	.st2{fill:#F36C21;}
	.st3{fill:#580600;}
	.st4{fill:#8C8E90;}
	.st5{fill:#72C169;}
	.st6{fill:#101128;}
</style>
<path d="M82.8,68.9H9.3v96.6h73.5c26.7,0,48.3-21.6,48.3-48.3S109.5,68.9,82.8,68.9z M17.5,135.6h28.8c0.5,0,0.5,0,0.5-0.5V134
	l21.4-0.1v10.6H46.9c0-0.4,0-0.7,0-1.1c0-0.4,0-0.6-0.6-0.6l-28.6,0.2h-0.5v1.7l-4.6,0v-10.5h4.6c0,0.4,0,0.8,0,1.2
	C17.2,135.5,17.2,135.6,17.5,135.6z M17,102.5c0.1,0.1,0.5,0.1,0.8,0.1l28.4-0.1c0.4,0,0.4,0,0.4-0.4v-2.6L68,99.3v10.9l-21.4,0.1
	c0-0.4,0-0.9,0-1.3c0-0.5,0-0.5-0.5-0.5l-25.5,0.2H17v1.7h-4.6V99.6H17v2.1C17,102,16.9,102.4,17,102.5z M67.9,98.7l-21.4,0.1v-0.4
	c0-1,0-2.1,0-3c0-0.9,0-0.6-0.5-0.6l-21,0.1h-7.9c-0.2,0-0.2,0.1-0.2,0.3V99h-4.5V88.3H17v1.3c0,0.2,0,0.4,0.3,0.4h11.5l17.3-0.1
	c0.5,0,0.5,0,0.5-0.5v-1.2l21.4,0L67.9,98.7L67.9,98.7z M12.2,71.3l55.7-0.2v5.2l-55.7,0.2V71.3z M12.3,77.1l55.6-0.3v10.6
	l-21.4,0.1v-0.4c0-1.4,0-2.9,0-4.4c0-1.4,0-0.6-0.5-0.6l-28.6,0.2c-0.5,0-0.5,0-0.5,0.7c0,0.7,0,2.8,0,4.2v0.4h-4.6V77.1z
	 M12.4,111.1H17v0.4c0,1.5,0,3,0,4.4c0,0.3,0,0.4,0.4,0.4h11.5l17.3-0.1c0.5,0,0.5,0,0.5-0.5v-4.8h21.4v11l-55.7,0.3
	C12.4,122.2,12.4,111.1,12.4,111.1z M12.5,122.7l55.6-0.2l0,10.8H46.8v-0.4c0-1.5,0-3,0-4.5c0-0.5,0-0.5-0.5-0.5l-28.6,0.2h-0.5v5.4
	h-4.7V122.7z M12.6,145.2h4.6v0.4c0,1.4,0,2.9,0,4.4c0,0.5,0,0.5,0.4,0.5h28.8c0.5,0,0.5,0,0.5-0.5v-4.8l21.4-0.1v10.6l-55.6,0.2
	L12.6,145.2z M68.3,163l-55.6,0.3v-7l55.6-0.2V163z"/>
</svg>
