<?xml version="1.0" encoding="utf-8"?>
<!-- Generator: Adobe Illustrator 27.8.1, SVG Export Plug-In . SVG Version: 6.00 Build 0)  -->
<svg version="1.1" id="Layer_1" xmlns="http://www.w3.org/2000/svg" xmlns:xlink="http://www.w3.org/1999/xlink" x="0px" y="0px"
	 viewBox="0 0 350 230" style="enable-background:new 0 0 350 230;" xml:space="preserve">
<style type="text/css">
	.st0{fill:none;stroke:#000000;stroke-miterlimit:10;}
	.st1{fill:#212B63;}
	.st2{fill:#F36C21;}
	.st3{fill:#580600;}
	.st4{fill:#8C8E90;}
	.st5{fill:#72C169;}
	.st6{fill:#101128;}
</style>
<g>
	<path class="st1" d="M69.5,165.2c0.7,1.4,1.4,2.7,2.2,4.1l-7.1,6.3l-0.1-0.2C66.3,172,68,168.6,69.5,165.2z M87.3,112.9
		c-2.6,3.2-4.8,6.7-6.7,10.3c-3.7,7.3-5.7,15.4-5.8,23.7c0,6,0.7,11.9,2.2,17.7l51.8-45.5l-20.2-23c-4.4,2.2-8.6,4.9-12.3,8
		C92.9,106.7,89.9,109.7,87.3,112.9z M103,89.8c-4.5,1.5-8.8,3.5-12.7,6c-8.6,5.4-15.5,13-20.2,22c-0.3,0.6-0.6,1.1-0.8,1.7
		c-0.9-1.6-1.9-3-3-4.5c-1.7-2.2-3.5-4.2-5.6-6c-1.3-1.2-2.6-2.3-3.9-3.3l-1.8-1.5c-1.7-1.4-3.4-2.9-5-4.6c-1.5-1.7-2.8-3.5-3.9-5.5
		c-0.4-0.7-1.2-1.2-2-1.2l-0.8,0.1c-1.1,0.4-1.7,1.4-1.6,2.5c0.4,2.7,1.1,5.4,2.3,7.9c1.2,2.4,2.6,4.8,4.3,6.9
		c0.8,1.1,1.7,2.2,2.5,3.2l2,2.5c1.4,1.7,2.6,3.5,3.6,5.4c2,3.5,3.4,7.4,4.1,11.5c0.6,4.1,0.7,8.3,0.2,12.5
		c-0.8,5.9-2.4,12.3-5.3,19.6L8.2,111.3L72.4,55L103,89.8z M76.9,97.6c0-4.5-3.6-8.2-8.2-8.2c-4.5,0-8.2,3.6-8.2,8.2
		c0,4.5,3.6,8.2,8.2,8.2S76.9,102.1,76.9,97.6L76.9,97.6z"/>
	<path class="st2" d="M118.1,89.3c-8.7,3.2-16.7,7.4-23.4,13c-3.4,2.7-6.4,5.7-9.2,9.1c-2.7,3.3-5.1,6.9-7,10.8
		c-3.9,7.6-6,16.1-6.1,24.7c-0.1,8.7,1.6,17.6,4.7,26.3c-3.3-4.4-5.9-9.2-7.7-14.4c-2,6-4.8,11.6-7.9,16.9
		c-5.2,8.5-11.6,16.3-19,22.9c4.4-8.9,8.9-17.5,12.7-26.2c3.7-8.8,6.8-17.6,7.9-26.5c0.6-4.4,0.5-8.8-0.2-13.2
		c-0.7-4.3-2.2-8.5-4.3-12.3c-1.2-1.9-2.5-3.8-3.9-5.6c-1.4-1.9-3-3.7-4.5-5.8c-1.6-2-2.9-4.2-4-6.4c-1.1-2.3-1.8-4.8-2.1-7.2
		c1.2,2.1,2.6,4,4.2,5.8c1.6,1.7,3.3,3.3,5.2,4.8c1.8,1.6,3.7,3.1,5.6,4.8c1.9,1.8,3.7,3.6,5.4,5.7c2,2.7,3.7,5.6,5,8.8
		c0.8-2.1,1.7-4.2,2.7-6.2c2.2-4.4,5-8.4,8.3-11.9c3.2-3.5,7-6.6,11.1-9.2C99.5,92.6,108.6,89.7,118.1,89.3z M68.7,103.4
		c3.2,0,5.8-2.6,5.8-5.8c0-3.2-2.6-5.8-5.8-5.8c-3.2,0-5.8,2.6-5.8,5.8C62.9,100.8,65.5,103.4,68.7,103.4z"/>
</g>
</svg>
