<?xml version="1.0" encoding="UTF-8"?>
<svg id="Layer_1" data-name="Layer 1" xmlns="http://www.w3.org/2000/svg" viewBox="0 0 350 230">
  <defs>
    <style>
      .cls-1 {
        fill: none;
        stroke: #000;
        stroke-miterlimit: 10;
      }

      .cls-2 {
        fill: #010101;
      }

      .cls-2, .cls-3 {
        stroke-width: 0px;
      }

      .cls-3 {
        fill: #f29320;
      }
    </style>
  </defs>
  <rect class="cls-1" x="5.16" y="43.12" width="131.61" height="146.58"/>
  <g>
    <path class="cls-3" d="m91.47,105.01l-22.28,16.8V48.51h22.28v56.5Zm-22.28,29.37v50.97h22.28v-69.73l-22.28,18.76Z"/>
    <path class="cls-2" d="m155.78,59.51c-.89.89-1.95,1.95-3.29,3.13.06.84.11,2.12.28,3.68l1-.89c.28-.22.67-.22.95.06l.11.17c.22.22.22.61,0,.89l-1.95,1.67.17,2.9.95-.84c.28-.22.67-.22.95.06l.11.17c.22.22.22.61,0,.89l-1.9,1.62c.28,3.18.39,5.92.28,6.36-.28.45-.61.84-1,1.17-.33.28-.45-.06-.45-.45s-1-3.57-1.95-6.53h-.06c-.11.11-.28.06-.39,0h-.06c-.06-.11-.06-.33.06-.39l.17-.28c-.06-.33-.17-.61-.28-.95h-.06c-.11.11-.33.11-.39,0h-.06c-.11-.11-.11-.28,0-.39l.28-.28c-.06-.28-.11-.5-.28-.78h-.06c-.06.11-.17.11-.28.06l-.06-.06h-.11c-.06-.11-.06-.33.06-.39l.28-.28c-.11-.28-.22-.56-.28-.84l-.17-.39h-.11c-.17.17-.45.17-.61,0l-.06-.06-.11-.11c-.17-.22-.11-.5.06-.67l.28-.28-.33-.61c-1.45,1.28-3.07,2.62-4.86,4.02,0,0-1.51,1.17-3.29,2.4l.45,6.42s-.61,1.95-1.17,1.51-1.06-3.01-1.34-3.46-.78-1.95-1-2.68l-.39.17-1.06.56h-.11l-.67.56c-.06.06-.17.06-.28,0-.06-.11-.06-.22,0-.33l.67-.56v-.28l.67-.95c.06-.11.17-.28.28-.39l-2.57-1.4-3.29-1.79c-.39-.56,1.62-.95,1.62-.95l6.36,1.28c1.4-1.62,2.68-3.01,2.68-3.01l4.58-4.3-.56-.45-.28.33c-.22.17-.5.11-.67-.06l-.11-.11c-.17-.17-.17-.5,0-.67l.11-.11-.39-.17-.84-.39-.28.17c-.06.11-.17.11-.28.06l-.06-.06h-.17c-.06-.11-.06-.33.06-.39h.06l-.78-.5-.28.28c-.11.11-.28.11-.39,0h-.06c-.11-.11-.11-.33,0-.39h.06l-.89-.45-.28.28c-.11.06-.28.06-.39-.06h-.06c-.06-.11-.06-.28,0-.39h.06l-6.25-3.01c-.45,0-.67-.17-.45-.45.39-.33.84-.61,1.34-.89.5,0,3.13.45,6.31,1l1.84-1.56c.22-.22.56-.22.78-.06q.06.06.06.11l.17.17c.22.28.17.67-.06.89l-.95.84,2.9.56,1.9-1.67c.28-.17.61-.17.89.06l.17.17c.22.28.22.67-.06.95l-1,.89,3.63.78c1.4-1.17,2.51-2.12,3.52-2.9s3.35-2.62,4.13-2.79c.84-.11,1.62.06,1.62.06,0,0,.45,0-.11,1.62-.17,2.01-1.4,2.68-2.9,4.13ZM19.51,162.62l.11-94.29H6.39v114.5l9.49-7.43,116.73-97.92L19.51,162.62Z"/>
  </g>
</svg>