<?xml version="1.0" encoding="utf-8"?>
<!-- Generator: Adobe Illustrator 27.8.1, SVG Export Plug-In . SVG Version: 6.00 Build 0)  -->
<svg version="1.1" id="Layer_1" xmlns="http://www.w3.org/2000/svg" xmlns:xlink="http://www.w3.org/1999/xlink" x="0px" y="0px"
	 viewBox="0 0 350 230" style="enable-background:new 0 0 350 230;" xml:space="preserve">
<style type="text/css">
	.st0{fill:none;stroke:#000000;stroke-miterlimit:10;}
	.st1{fill:#212B63;}
	.st2{fill:#F36C21;}
	.st3{fill:#580600;}
	.st4{fill:#8C8E90;}
	.st5{fill:#72C169;}
	.st6{fill:#101128;}
</style>
<g>
	<path class="st3" d="M70.4,170.7c7.3-21.4,17.1-36.1,26.7-46.3c2.9,4.3,4.3,9.8,4.3,16.3c0,10.2-3.3,17.9-9.9,22.9
		C86.6,167.5,79.5,169.8,70.4,170.7z M80.9,106.8c5.3-2.4,10.7-4.4,16.3-5.9c1.2-3,1.7-6.2,1.7-9.4c0-9.4-3.1-16.5-9.3-21.4
		c-6.3-4.9-15.3-7.3-27.1-7.3H23.1v100.4C35.1,138.1,55.6,118.2,80.9,106.8z"/>
	<path class="st4" d="M22.6,170.9c0,0,23.7-73.3,117-73.3c0,0-48.7,4.1-71.9,73.3H22.6z"/>
</g>
</svg>
