<?xml version="1.0" encoding="utf-8"?>
<!-- Generator: Adobe Illustrator 27.8.1, SVG Export Plug-In . SVG Version: 6.00 Build 0)  -->
<svg version="1.1" id="Layer_1" xmlns="http://www.w3.org/2000/svg" xmlns:xlink="http://www.w3.org/1999/xlink" x="0px" y="0px"
	 viewBox="0 0 350 230" style="enable-background:new 0 0 350 230;" xml:space="preserve">
<style type="text/css">
	.st0{fill:none;stroke:#000000;stroke-miterlimit:10;}
	.st1{fill:#212B63;}
	.st2{fill:#F36C21;}
	.st3{fill:#580600;}
	.st4{fill:#8C8E90;}
	.st5{fill:#72C169;}
	.st6{fill:#101128;}
</style>
<g>
	<path class="st5" d="M58,74.9l-37.1,88.3h20.5l37.1-88.3H58L58,74.9z M126.4,94H79.6l8.2-19.1h46.4L126.4,94z M96.1,104H76
		l-7.8,16.5h21.3L96.1,104z"/>
	<path class="st6" d="M59.1,124.2l-16.6,39.4c-0.2,0.5-0.6,0.8-1.2,0.8H9.2c-0.7,0-1.3-0.5-1.3-1.3c0-0.7,0.5-1.3,1.3-1.3h31.3
		l16.3-38.7c0.1-0.7,0.8-1.1,1.5-0.9c0.7,0.1,1.1,0.8,0.9,1.5C59.3,123.9,59.2,124.1,59.1,124.2z M97.8,113.8L97.8,113.8
		c-0.7-0.2-1.4,0.1-1.6,0.7l-3.7,9.1h-25c-0.5,0-0.9,0.3-1.1,0.8l-16.1,38.3c-0.3,0.6,0,1.4,0.7,1.6l0.5,0.1c0.5,0,1-0.3,1.2-0.8
		l15.7-37.5h25c0.5,0,0.9-0.3,1.2-0.8l4-10C98.7,114.8,98.4,114.1,97.8,113.8z M122.2,96.5H78.4c-0.7,0-1.3,0.5-1.3,1.3
		c0,0.7,0.5,1.3,1.3,1.3h43.8c0.7,0,1.3-0.5,1.3-1.3C123.5,97.1,122.9,96.5,122.2,96.5z M6.9,133.4l24.7,1.1L26,147.8v0
		c-0.3,0.6,0,1.3,0.6,1.6c0.1,0.1,0.3,0.1,0.5,0.1c0.5,0,1-0.3,1.2-0.7l30.9-73.4v0c0.3-0.6,0-1.3-0.6-1.6c0,0,0,0-0.1,0
		c-0.6-0.2-1.3,0.1-1.5,0.7L53,83.6l-35,1.3l33.9,1.2l-3,7.2l-33.1,1.2l32,1.1l-2.3,5.6l-31.8,1.3l30.8,1.2l-2.5,5.9l-30.4,1.2
		l29.4,1.1l-2.3,5.4l-28.5,1.3l27.4,1.1l-2.1,5c0,0,0,0,0,0L8.9,126l25.7,1.2l-2.1,5L6.9,133.4z"/>
</g>
</svg>
