<?xml version="1.0" encoding="utf-8"?>
<!-- Generator: Adobe Illustrator 27.8.1, SVG Export Plug-In . SVG Version: 6.00 Build 0)  -->
<svg version="1.1" xmlns="http://www.w3.org/2000/svg" xmlns:xlink="http://www.w3.org/1999/xlink" x="0px" y="0px"
	 viewBox="0 0 350 230" style="enable-background:new 0 0 350 230;" xml:space="preserve">
<style type="text/css">
	.st0{fill:#E4335A;}
	.st1{fill:#005199;}
	.st2{fill:#AD0000;}
	.st3{fill:#00E2E2;}
	.st4{fill:#003F33;}
	.st5{fill:#600068;}
	.st6{fill:#664600;}
	.st7{fill:#DAB038;}
	.st8{fill:#466F85;}
	.st9{fill:#57D4FF;}
	.st10{fill:#99042B;}
	.st11{fill:#BF882F;}
	.st12{fill:#B0C1C1;}
	.st13{fill:#689FC1;}
	.st14{fill:#0035AA;}
	.st15{fill:#CEC1A3;}
	.st16{fill:#AC8746;}
	.st17{fill:#F2EBDD;}
	.st18{fill:#350B00;}
	.st19{fill:#ECC752;}
	.st20{fill:#005468;}
	.st21{stroke:#000000;stroke-width:0.25;stroke-miterlimit:10;}
	.st22{fill:#EFECFF;}
	.st23{fill:#FFDE98;}
	.st24{fill:#5B3F00;}
	.st25{fill:#826834;}
	.st26{fill:none;stroke:#5B3F00;stroke-width:2;stroke-miterlimit:10;}
	.st27{fill:#FFBE00;}
	.st28{fill:#9B8D75;}
	.st29{fill:#FFFFFF;}
	.st30{fill:#FFFF00;}
	.st31{fill:#FFBF00;}
	.st32{fill:#FFA500;}
	.st33{fill:#B7F3F9;}
	.st34{fill:#B78802;}
</style>
<g id="Logo1">
</g>
<g id="Logo2">
</g>
<g id="Logo3">
	<g>
		<path class="st3" d="M98.47,154.65c-0.56,5.52-5.25,8.06-10.09,10.2c-0.67,0.29-1.33,0.6-1.99,0.91
			c-3.12,1.46-6.23,3.06-9.37,4.51C66.91,174.89,58,183.98,57.1,195.07c-3.6-16.42-7.18-33.63-2.63-49.81
			c1.4-4.99,3.43-9.77,4.74-14.7c3.3-3.75,12.08-12.66,23.37-15.59c0,0-13.45-0.71-22.08,6.28c-0.01-0.59-0.04-1.19-0.09-1.79
			c-0.64-7.62-3.36-16.11,1.41-23c1.68-2.4,5.16-2.59,7.19-0.54c1.76,1.78,3.52,4.49,3.97,8.41c0,0,1.36-3.98,5.68-7.24
			c5.23-3.94,12.64-2.11,15.84,3.61c0.06,0.11,0.12,0.2,0.17,0.27c1.01,1.47,1.53,3.25,1.21,5c-0.04,0.22-0.09,0.43-0.15,0.63
			c-1.32,4.66-7.11,4.04-9.57,7.46c-4.47,6.22,3.6,12.16,7.1,16.49C98.63,137.17,99.31,146.41,98.47,154.65z M48.1,156.84
			c-14.92-9.22-24.86-25.71-24.86-44.53c0-5.05,0.73-9.92,2.06-14.54c-1.17-0.18-2.27-0.54-3.26-1.07
			c-1.44,4.96-2.23,10.19-2.23,15.61c0,20.73,11.33,38.81,28.12,48.41C47.95,159.43,48.01,158.14,48.1,156.84z M100.75,62.6
			c-0.14,0.47-0.29,0.93-0.48,1.39c-0.2,0.46-0.42,0.91-0.66,1.36c-0.07,0.14-0.14,0.28-0.21,0.41
			c16.89,8.67,28.46,26.26,28.46,46.55c0,19.05-10.18,35.72-25.4,44.86c-0.55,2.16-1.56,3.94-2.82,5.42
			c18.72-8.99,31.65-28.12,31.65-50.28C131.29,90.6,118.87,71.8,100.75,62.6z"/>
		<path class="st4" d="M120.98,124.2c0,0-2.83,8.5-20.29,17.01c0,0,16.71-10.49,16.71-17.46c0-0.9-9.64-23.48-14.59-29.25
			c-4.94-5.77-18.73-8.02-18.73-8.02c0,0-2.43-2.56-1.78-8.44c4.32-2.28,9.52-7.88,6.42-12.88c-1.1-1.77-3-3.01-5.06-3.29
			c-0.92-0.13-1.88-0.08-2.74-0.43c-1.96-0.8-2.58-3.21-3.05-5.28c-0.29-1.27-0.65-2.61-1.6-3.5c-2.29-2.16-7.01-2.21-7.76,1.1
			c-1.85,8.15-1.64,17.63,5.2,23.54c0.06,2.92-0.25,6.73-2.07,8.55c-3.19-1.71-7.02-3.21-10.67-3.31c-2.27-0.06-4.67,0.58-5.64,2.85
			c-0.26,0.61-0.53,1.2-0.81,1.76l0,0c0,0-3.55,20.96,0,36.23c0,0,12.8-11.85,28.47-8.44c0,0-16.9,0.8-30.05,13.66
			c0,0-4.21-12.15-1.23-37.94c-0.83,0.56-1.82,0.96-3.1,1.08c-2.2,0.22-4.59-0.15-6.48-1.31c-1.15-0.71-2.11-1.45-2.8-2.62
			c-0.99-1.68-1.9-3.34-2.86-5.01c-0.88-1.54-2.47-2.29-4.17-1.85c-0.36,0.09-0.72,0.24-1,0.49c-0.89,0.78-0.75,2.23-0.23,3.29
			c0.52,1.06,1.33,2,1.6,3.15c0.34,1.4-0.21,2.93-1.23,3.94c-1.02,1.02-2.45,1.55-3.88,1.67c-1.91,0.16-4.01-0.5-5.07-2.1
			c-1.06-1.6-0.62-4.16,1.14-4.92c-0.79,0.58-0.7,1.9-0.02,2.6c0.69,0.7,1.75,0.9,2.73,0.84c0.41-0.02,0.83-0.09,1.19-0.29
			c0.93-0.52,1.18-1.82,0.83-2.83c-0.5-1.45-1.61-2.34-2.07-3.84c-0.48-1.56-0.78-2.75-0.25-4.36c0.25-0.76,0.62-1.48,0.98-2.2
			c1.1-2.17,3.79-3.04,6.01-2.88c0.94,0.06,1.94,0.15,2.66,0.75c1.04,0.84,2.4,2.13,3.84,2.59c1.42,0.45,3.05,0.19,4.26-0.7
			c1.2-0.88,1.94-2.36,1.94-3.85c-0.01-2.34-1.69-4.28-3.19-6.08c-0.74-0.89-1.49-1.84-1.73-2.97c-0.35-1.65,0.5-3.41,1.85-4.41
			c1.35-1.01,3.12-1.33,4.8-1.21c2.52,0.19,3.84-0.72,4.52-3.16c0.27-0.98,0.54-1.96,0.82-2.94c0.38-1.37,0.82-2.83,1.95-3.69
			c1.17-0.88,2.75-0.88,4.21-1c2.19-0.18,3.36-1.57,4.52-3.09c0.37-0.48,0.73-0.97,1.13-1.44c1.76-2.08,3.92-3.87,6.45-4.93
			c2.33-0.98,6.36-3.14,8.98-2.26c0.28,0.09,0.54,0.24,0.81,0.36c3.27,1.42,5.83-0.86,8.67,2.06c1.75,1.79,4.35,4.48,4.91,6.97
			c0.41,1.81,0.43,3.42,1.11,5.2c0.58,1.53,1.34,2.98,1.42,4.66c0.12,2.49,0.23,5.59-0.75,7.9c-0.29,0.68-0.67,1.31-0.97,1.99
			c-1.39,3.13,0.04,6.23-2.35,9.08c-1.97,2.34-5.17,3.23-7.06,5.66c-0.92,1.18-1.42,2.67-1.45,4.17c-0.01,0.61,0.17,1.18,0.25,1.71
			l0,0c0,0,15.15,3.22,19.48,7.25C108.45,96.15,120.98,124.2,120.98,124.2z"/>
	</g>
</g>
<g id="Logo4">
</g>
<g id="Logo5">
</g>
<g id="Logo6">
</g>
<g id="Logo7">
</g>
<g id="Logo8">
</g>
<g id="Logo9">
</g>
<g id="Logo10">
</g>
<g id="Logo11">
</g>
<g id="Logo12">
</g>
<g id="Logo13">
</g>
<g id="Logo14">
</g>
<g id="Logo15">
</g>
</svg>
