<?xml version="1.0" encoding="utf-8"?>
<!-- Generator: Adobe Illustrator 27.8.1, SVG Export Plug-In . SVG Version: 6.00 Build 0)  -->
<svg version="1.1" id="Layer_1" xmlns="http://www.w3.org/2000/svg" xmlns:xlink="http://www.w3.org/1999/xlink" x="0px" y="0px"
	 viewBox="0 0 350 230" style="enable-background:new 0 0 350 230;" xml:space="preserve">
<style type="text/css">
	.st0{fill:#E77024;}
	.st1{fill:#121657;}
	.st2{fill:#81004A;}
	.st3{fill:#EB2332;}
	.st4{fill:#29337C;}
	.st5{fill:#005F7F;}
	.st6{fill:#F26933;}
	.st7{fill:#489DD6;}
	.st8{fill:#E1E31F;}
	.st9{fill:#EB7924;}
	.st10{fill:#95979A;}
	.st11{fill:#F2682C;}
	.st12{fill:#4EC3C3;}
	.st13{fill:#F99D1C;}
	.st14{fill:#307EC2;}
	.st15{fill:#A50440;}
</style>
<g>
	<g>
		<path class="st11" d="M150.1,48.5l22.3-22.3l20,20C178.8,40.6,163.2,41.4,150.1,48.5z M150.1,135.1l22.3,22.3l20-20
			C178.8,143,163.2,142.2,150.1,135.1z M130.5,68.2l-23.6,23.6l23.6,23.6C122.4,100.8,122.4,82.9,130.5,68.2z"/>
		<path class="st12" d="M190.3,75.2l15.6-15.5L238,91.8L205.9,124l-15.6-15.5c-9.2,9.1-24,9.1-33.2,0s-9.1-24,0-33.2
			S181.2,66.1,190.3,75.2z"/>
	</g>
</g>
</svg>
