<?xml version="1.0" encoding="utf-8"?>
<!-- Generator: Adobe Illustrator 27.8.1, SVG Export Plug-In . SVG Version: 6.00 Build 0)  -->
<svg version="1.1" id="Layer_1" xmlns="http://www.w3.org/2000/svg" xmlns:xlink="http://www.w3.org/1999/xlink" x="0px" y="0px"
	 viewBox="0 0 350 230" style="enable-background:new 0 0 350 230;" xml:space="preserve">
<style type="text/css">
	.st0{fill:#E77024;}
	.st1{fill:#121657;}
	.st2{fill:#81004A;}
	.st3{fill:#EB2332;}
	.st4{fill:#29337C;}
	.st5{fill:#005F7F;}
	.st6{fill:#F26933;}
	.st7{fill:#489DD6;}
	.st8{fill:#E1E31F;}
	.st9{fill:#EB7924;}
	.st10{fill:#95979A;}
	.st11{fill:#F2682C;}
	.st12{fill:#4EC3C3;}
	.st13{fill:#F99D1C;}
	.st14{fill:#307EC2;}
	.st15{fill:#A50440;}
</style>
<g>
	<path class="st15" d="M175.5,29.7c-22.5,0-43.1,12.4-53.6,32.3l18.7,10.4l1.3-4.8l0.3-0.8c1.6-3.9,3.8-6.5,6.3-9.5
		c7-8.4,16.6-12.6,28.7-12.6c8.3,0,15.6,2,21.6,6.1c6,4.1,10.4,10,13.1,17.6l1.5,4.2l-24.4,10.6l-1.7-4.9c-1.1-3.3-2.5-5.7-4-7.1
		c-1.5-1.4-2.8-1.6-4.9-1.6c-5.2,0-7.4,2.4-8.5,4.2c-1.1,1.8-3.3,7.4-3.3,17.5c0,9,1.6,13.4,3,15.6c1.4,2.2,4,3.7,7.6,3.7
		c2.4,0.1,4.8-0.6,6.8-2c2-1.4,3.8-3.8,5.4-7.1l2.1-4.6l22.8,12l-1.7,4c-3,7.5-7.7,13.3-13.7,17.2c-6,3.9-13.4,5.8-21.6,5.8
		c-12.6,0-22.4-4.1-29-12.1c-2.6-3.2-4.6-6.7-6.1-10.5l-0.1-0.3l-1.1-4.4l-19,9.6c15.4,29.8,52,41.4,81.8,26.1
		c29.8-15.4,41.4-52,26.1-81.8C219.1,42.4,198.3,29.7,175.5,29.7z"/>
</g>
</svg>
