<?xml version="1.0" encoding="utf-8"?>
<!-- Generator: Adobe Illustrator 27.8.1, SVG Export Plug-In . SVG Version: 6.00 Build 0)  -->
<svg version="1.1" id="Layer_1" xmlns="http://www.w3.org/2000/svg" xmlns:xlink="http://www.w3.org/1999/xlink" x="0px" y="0px"
	 viewBox="0 0 350 230" style="enable-background:new 0 0 350 230;" xml:space="preserve">
<style type="text/css">
	.st0{fill:#E77024;}
	.st1{fill:#121657;}
	.st2{fill:#81004A;}
	.st3{fill:#EB2332;}
	.st4{fill:#29337C;}
	.st5{fill:#005F7F;}
	.st6{fill:#F26933;}
	.st7{fill:#489DD6;}
	.st8{fill:#E1E31F;}
	.st9{fill:#EB7924;}
	.st10{fill:#95979A;}
	.st11{fill:#F2682C;}
	.st12{fill:#4EC3C3;}
	.st13{fill:#F99D1C;}
	.st14{fill:#307EC2;}
	.st15{fill:#A50440;}
</style>
<g>
	<path class="st5" d="M237.1,90l-21.8-21.8l21.8-21.9L259,68.2L237.1,90z M204.4,70.6l-9.3-9.3l-9.3,9.3l9.3,9.3L204.4,70.6z"/>
	<path class="st6" d="M198.9,109.3l-15.1-15.1l15.1-15.1L214,94.3L198.9,109.3z M221,57.9l-13.2-13.2l-13.2,13.2l13.2,13.2L221,57.9
		z"/>
	<path class="st7" d="M193.6,82.2l-12.1,12.1l12.1,12l-17.5,17.5l-25.3-26.7l17.8-16.7h-11l-11.9,11.3h-0.1l-4.7,4.5V46.7l8.5-8.5
		L193.6,82.2z M141,99.4v17.5h-8.4V55.1L93.4,94.3l56.2,56.1l20.8-20.8L141,99.4z M215,71.6l-9.3,9.3l9.3,9.3l9.3-9.3L215,71.6z"/>
</g>
</svg>
