<?xml version="1.0" encoding="utf-8"?>
<!-- Generator: Adobe Illustrator 27.8.1, SVG Export Plug-In . SVG Version: 6.00 Build 0)  -->
<svg version="1.1" id="Layer_1" xmlns="http://www.w3.org/2000/svg" xmlns:xlink="http://www.w3.org/1999/xlink" x="0px" y="0px"
	 viewBox="0 0 350 230" style="enable-background:new 0 0 350 230;" xml:space="preserve">
<style type="text/css">
	.st0{fill:#E77024;}
	.st1{fill:#121657;}
	.st2{fill:#81004A;}
	.st3{fill:#EB2332;}
	.st4{fill:#29337C;}
	.st5{fill:#005F7F;}
	.st6{fill:#F26933;}
	.st7{fill:#489DD6;}
	.st8{fill:#E1E31F;}
	.st9{fill:#EB7924;}
	.st10{fill:#95979A;}
	.st11{fill:#F2682C;}
	.st12{fill:#4EC3C3;}
	.st13{fill:#F99D1C;}
	.st14{fill:#307EC2;}
	.st15{fill:#A50440;}
</style>
<g>
	<path class="st9" d="M237.9,96.6c0-35.6-28.9-64.5-64.6-64.6h-59.6v58.6l30.9,24V62.9h28.7c18.6,0,33.7,15.1,33.7,33.7
		s-15.1,33.7-33.7,33.7h-8.7l33.4,26C222.1,146.2,237.8,122.7,237.9,96.6z"/>
	<path class="st10" d="M153,112.8l-8.5,1.9l-30.9-24L161,78.9c11.5-2.8,23.2,4.2,26.1,15.7l9.2,37c2.1,8.3,2.7,16.6,1.7,24.6
		l-33.4-26l-3.5-12.7C160.2,114.1,156.6,111.9,153,112.8z"/>
</g>
</svg>
