<?xml version="1.0" encoding="utf-8"?>
<!-- Generator: Adobe Illustrator 27.8.1, SVG Export Plug-In . SVG Version: 6.00 Build 0)  -->
<svg version="1.1" id="Layer_1" xmlns="http://www.w3.org/2000/svg" xmlns:xlink="http://www.w3.org/1999/xlink" x="0px" y="0px"
	 viewBox="0 0 350 230" style="enable-background:new 0 0 350 230;" xml:space="preserve">
<style type="text/css">
	.st0{fill:#E77024;}
	.st1{fill:#121657;}
	.st2{fill:#81004A;}
	.st3{fill:#EB2332;}
	.st4{fill:#29337C;}
	.st5{fill:#005F7F;}
	.st6{fill:#F26933;}
	.st7{fill:#489DD6;}
	.st8{fill:#E1E31F;}
	.st9{fill:#EB7924;}
	.st10{fill:#95979A;}
	.st11{fill:#F2682C;}
	.st12{fill:#4EC3C3;}
	.st13{fill:#F99D1C;}
	.st14{fill:#307EC2;}
	.st15{fill:#A50440;}
</style>
<g>
	<path class="st1" d="M155,99.8l2.9,19.5l-9.9,36.3h-41.8l1.7-6.1h32.8L155,99.8z M187.4,88.2l5.4-18.5l-5.5-37.4h-47l-1.7,6.1h41.2
		L187.4,88.2z M205.2,32.3l-1.7,6.1h34.2l-32.2,111.1h-40.8l0.9,6.1h47.3l33.8-123.4H205.2z"/>
	<path class="st2" d="M234.2,41.1l-30.7,105.7h-38.7l-1-6.2h26l27.1-93.1h-14.9l1.9-6.2L234.2,41.1z M163,47.4l8.4,54.1l12.1,0.8
		l2.1-7.2l-8.3-54h-38.5l-1.9,6.2L163,47.4z M153.1,86.4l-12.2-0.8l-15.8,54.9h-15.2l-1.9,6.2h30.7l15.4-53.5L153.1,86.4z"/>
</g>
</svg>
