<?xml version="1.0" encoding="utf-8"?>
<!-- Generator: Adobe Illustrator 27.8.1, SVG Export Plug-In . SVG Version: 6.00 Build 0)  -->
<svg version="1.1" xmlns="http://www.w3.org/2000/svg" xmlns:xlink="http://www.w3.org/1999/xlink" x="0px" y="0px"
	 viewBox="0 0 350 230" style="enable-background:new 0 0 350 230;" xml:space="preserve">
<style type="text/css">
	.st0{fill:#C61A76;}
	.st1{fill:#8C449A;}
	.st2{fill:url(#SVGID_1_);}
	.st3{fill:#841618;}
	.st4{fill:#E4314A;}
	.st5{fill:#5FBB46;}
	.st6{fill:#DCA127;}
	.st7{fill:#45B0E4;}
	.st8{fill:#1A1A1A;}
	.st9{fill:url(#SVGID_00000150074433405066443510000006377384841470675111_);}
	.st10{fill:#275A9A;}
	.st11{fill:#4687C7;}
	.st12{fill:url(#SVGID_00000152942289323624431350000007974572031985217435_);}
	.st13{fill:url(#SVGID_00000070083790737474073180000009900861491812520595_);}
	.st14{fill:url(#SVGID_00000026849961860482806260000018173196539175643316_);}
	.st15{fill:url(#SVGID_00000047056461652609083470000002425118135573846176_);}
	.st16{fill:#507834;}
	.st17{fill:url(#SVGID_00000057132799269006396010000003241968232862762641_);}
	.st18{fill:#F2652E;}
	.st19{fill:#F6872E;}
	.st20{fill:url(#SVGID_00000087376895360956121410000016702576976137225662_);}
	.st21{fill:#8DC641;}
	.st22{fill:#E26926;}
	.st23{fill:#3A77B7;}
	.st24{fill:#9B9DA0;}
	.st25{fill:#EE4079;}
	.st26{fill:#7DCBF1;}
	.st27{fill:#FEE81F;}
	.st28{fill:#231F20;}
	.st29{fill-rule:evenodd;clip-rule:evenodd;fill:#FEC660;}
	.st30{fill-rule:evenodd;clip-rule:evenodd;fill:#DB1F2C;}
	.st31{fill-rule:evenodd;clip-rule:evenodd;fill:#B9479A;}
	.st32{fill-rule:evenodd;clip-rule:evenodd;fill:#3B57A7;}
	.st33{fill-rule:evenodd;clip-rule:evenodd;fill:#3EAAE0;}
	.st34{fill-rule:evenodd;clip-rule:evenodd;fill:#80C342;}
	.st35{fill:#00ADEA;}
	.st36{fill:#EB2227;}
	.st37{fill:#14AB4B;}
	.st38{fill:none;}
	.st39{fill:#FBB03B;}
	.st40{fill:#C59C6D;}
	.st41{fill:url(#SVGID_00000037683495367632924920000011880690071561715646_);}
	.st42{fill:url(#SVGID_00000012460614874964760640000016278587661187545002_);}
	.st43{fill:url(#SVGID_00000076604190462141983140000013713704757686463655_);}
	.st44{fill:#010101;}
	.st45{fill:#CFD1D2;}
	.st46{fill:#A7A9AC;}
	.st47{fill:#00AEEF;}
	.st48{fill:#F7941D;}
	.st49{fill:#EC008C;}
	.st50{fill:#39B54A;}
	.st51{fill:url(#SVGID_00000176729547448535886770000009464698537343788223_);}
	.st52{opacity:0.75;}
	.st53{fill:#005D97;}
	.st54{fill:#FFCD06;}
	.st55{fill:#8C56A3;}
	.st56{fill:#8C328B;}
	.st57{fill:#BBD867;}
	.st58{fill:#1FAFB5;}
	.st59{fill:#D44194;}
	.st60{fill:#EF5AA0;}
	.st61{fill:#F89422;}
	.st62{fill:#FFF4DC;}
	.st63{fill:#FFE7B6;}
	.st64{fill:#FFDB93;}
	.st65{fill:#FFCF6F;}
	.st66{fill:#FEC24A;}
	.st67{fill:#FBAA19;}
	.st68{fill:#FADBE4;}
	.st69{fill:#F5B6CA;}
	.st70{fill:#F093B0;}
	.st71{fill:#E96E95;}
	.st72{fill:#E6497C;}
	.st73{fill:#DA1D49;}
	.st74{fill:#F6DBE9;}
	.st75{fill:#EBB7D5;}
	.st76{fill:#E195C0;}
	.st77{fill:#D673AD;}
	.st78{fill:#CF559F;}
	.st79{fill:#CF2A91;}
	.st80{fill:#D0B6D8;}
	.st81{fill:#B793C4;}
	.st82{fill:#9970B1;}
	.st83{fill:#8356A3;}
	.st84{fill:#74489D;}
	.st85{fill:#663F98;}
	.st86{fill:#DCECF9;}
	.st87{fill:#BADAF3;}
	.st88{fill:#99C6EB;}
	.st89{fill:#7CB5E2;}
	.st90{fill:#63A1D7;}
	.st91{fill:#447BBF;}
	.st92{fill:#DDEEDC;}
	.st93{fill:#BCDFB6;}
	.st94{fill:#9DD196;}
	.st95{fill:#81C674;}
	.st96{fill:#69BE55;}
	.st97{fill:#49B749;}
	.st98{fill:#ED2D88;}
	.st99{fill:#FFF200;}
</style>
<g id="Layer_1">
</g>
<g id="Layer_2">
</g>
<g id="Layer_3">
</g>
<g id="Layer_4">
</g>
<g id="Layer_5">
</g>
<g id="Layer_6">
</g>
<g id="Layer_7">
</g>
<g id="Layer_8">
</g>
<g id="Layer_9">
	<g>
		<path class="st38" d="M288.22,131.96v-0.02c-0.01,0.01-0.01,0.01-0.01,0.02C288.21,131.95,288.22,131.95,288.22,131.96z"/>
		<polygon class="st38" points="305.6,143.96 305.58,144.01 305.6,144.01 		"/>
		<path class="st38" d="M305.6,143.93v0.03C305.62,143.89,305.62,143.9,305.6,143.93z"/>
		<path class="st39" d="M270.12,125.26c0.06-0.11,0.12-0.22,0.17-0.34l0.33-0.55c0.06-0.1,0.1-0.21,0.11-0.33l0.17-0.39
			c0.58-1.2,1.06-2.45,1.43-3.74c0.5-1.67,0.85-3.38,1.05-5.12c0.22-2.08,0.22-4.19,0-6.27c-0.17-1.1-0.33-2.26-0.61-3.41
			l-0.17-0.88h-0.05v-0.28l-0.17-0.55l-0.17-0.5v-0.22l-0.11-0.22c-0.07-0.28-0.16-0.56-0.28-0.83c-0.01-0.15-0.05-0.3-0.11-0.44
			l-0.17-0.44c-0.16-0.28-0.29-0.57-0.39-0.88c-0.11-0.28-0.28-0.55-0.39-0.88l-0.44-0.83c-0.17-0.33-0.28-0.61-0.44-0.88l-0.5-0.88
			l-1.05-1.65l-0.17-0.22l-0.17-0.22l-0.28-0.39l-0.28-0.44l-0.17-0.22l-0.17-0.17l-0.66-0.83l-0.17-0.17l-0.17-0.22l-0.33-0.39
			l-1.43-1.49l-0.77-0.72l-0.77-0.66l-0.77-0.66l-0.83-0.66l-0.44-0.33l-0.44-0.28l-0.88-0.61l-0.88-0.55l-0.44-0.28l-0.44-0.22
			l-0.94-0.55l-0.94-0.44l-0.5-0.22l-0.55-0.33l-0.99-0.39l-0.94-0.39l-0.5-0.17l-0.5-0.17l-0.99-0.33l-0.99-0.28l-0.5-0.11
			l-0.5-0.11l-0.99-0.22c-2.57-0.52-5.19-0.73-7.81-0.61c-2.39,0.15-4.77,0.52-7.1,1.1c-1.1,0.33-2.09,0.61-3.08,0.99l-2.7,1.1
			c-1.44,0.67-2.82,1.46-4.13,2.37c-0.88,0.53-1.72,1.12-2.53,1.76l-0.66,0.55l-0.22,0.17l0.22-0.22l0.55-0.61
			c0.5-0.5,1.27-1.27,2.26-2.15c1.25-1.06,2.57-2.04,3.96-2.92c0.83-0.57,1.69-1.08,2.59-1.54l3.08-1.49
			c2.38-0.96,4.85-1.68,7.37-2.15c2.87-0.52,5.78-0.7,8.69-0.55h2.31l1.16,0.17l1.16,0.22l0.61,0.11l0.55,0.11l1.21,0.28l1.16,0.33
			l0.55,0.17l0.61,0.17l1.16,0.39l1.16,0.44l0.55,0.22l0.61,0.28l1.1,0.5l1.16,0.55l0.55,0.28l0.55,0.33l1.1,0.61l1.05,0.66
			l1.05,0.72l1.05,0.72l1.98,1.6l0.44,0.39l0.28,0.22l0.22,0.22l0.94,0.88l0.22,0.22l0.22,0.22l0.44,0.44l0.44,0.44l0.22,0.22
			l0.22,0.28c0.55,0.61,1.1,1.27,1.6,1.93l0.77,0.99l0.72,0.99c0.26,0.34,0.5,0.68,0.72,1.05l0.66,1.05l0.61,1.05l0.33,0.55
			c0.07,0.19,0.16,0.38,0.28,0.55l0.55,1.16l0.17,0.28l0.11,0.28l0.22,0.5l0.22,0.44l0.11,0.28v0.11c0-0.11,0.05,0.17,0.05,0.17
			h0.06l0.39,1.1c0.61,1.52,1.1,3.09,1.49,4.68c0.69,2.77,1.08,5.62,1.16,8.47c0.09,2.45-0.06,4.9-0.44,7.32
			c-0.29,1.88-0.69,3.73-1.21,5.56l-0.1,0.32l-2.66-2.44C277.34,123.29,273.14,123.12,270.12,125.26z"/>
		<path class="st40" d="M288.27,131.85h-0.05v0.09C288.23,131.92,288.25,131.89,288.27,131.85z"/>
		<path class="st40" d="M297.32,141.6l-9.63-8.82c0.15-0.32,0.32-0.63,0.52-0.93v0.09c-0.01,0.01-0.01,0.01-0.01,0.02
			c-0.02,0.01-0.04,0.07,0,0c0.01-0.01,0.01-0.01,0.01,0.01v-0.02c0.01-0.02,0.03-0.05,0.05-0.09h-0.05l0.17-0.33
			c0.1-0.2,0.19-0.4,0.28-0.61l0.61-1.21l0.11-0.17v-0.11c0.01-0.1,0.04-0.2,0.11-0.28c0.07-0.19,0.14-0.37,0.22-0.55l0.5-1.1
			l0.5-1.27c0.05-0.22,0.17-0.44,0.22-0.66l0.17-0.33c0.01-0.12,0.05-0.23,0.11-0.33c0.11-0.44,0.28-0.88,0.44-1.38l0.17-0.66
			l0.22-0.72c0.11-0.5,0.28-0.94,0.39-1.43l0.33-1.54l0.17-0.77c0.07-0.25,0.1-0.51,0.11-0.77c0.12-0.53,0.21-1.06,0.28-1.6
			c0.06-0.5,0.11-1.05,0.22-1.6s0.06-0.55,0.06-0.83c0-0.28,0.06-0.55,0.06-0.83s0.05-0.61,0.05-0.88v-2.59c0-0.61,0-1.16-0.05-1.76
			v-0.94c-0.05-0.29-0.07-0.58-0.06-0.88c-0.06-0.61-0.11-1.21-0.22-1.82c-0.27-2.51-0.75-4.99-1.43-7.43
			c-0.72-2.56-1.63-5.07-2.75-7.48c-2.39-5.09-5.63-9.74-9.57-13.75c-2.05-2.06-4.28-3.93-6.66-5.61l-0.88-0.61l-0.94-0.61
			c-0.66-0.39-1.27-0.83-1.93-1.16l-0.94-0.55l-0.5-0.28h-0.16l-0.28-0.11l-2.09-1.05l-1.98-0.88l-1.05-0.39l-1.05-0.44l-0.5-0.17
			l-0.55-0.17l-1.05-0.39l-0.55-0.17l-0.55-0.17l-1.05-0.28c-2.86-0.76-5.79-1.27-8.75-1.49c-5.82-0.46-11.68,0.06-17.33,1.54
			l-0.99,0.28l-0.55,0.17l-0.5,0.17l-1.98,0.66l-1.98,0.77l-0.5,0.17l-0.44,0.22l-0.94,0.39l-0.99,0.44l-0.88,0.5
			c-0.63,0.27-1.23,0.58-1.82,0.94l-0.88,0.5l-0.44,0.22l-0.22,0.11l-0.22,0.17l-1.65,1.05c-2.13,1.42-4.18,2.99-6.11,4.68
			l-1.38,1.32l-0.66,0.61l-0.61,0.66l-0.66,0.66l-0.28,0.33l-0.17,0.17l-0.17,0.17l-1.16,1.32l-1.1,1.32l-0.99,1.38l-0.99,1.32
			l-0.44,0.66l-0.28,0.5l-0.83,1.32c-0.15,0.21-0.28,0.43-0.39,0.66l-0.39,0.66c-0.28,0.44-0.5,0.88-0.72,1.32
			c-0.22,0.44-0.5,0.88-0.66,1.27c-1.47,2.96-2.66,6.06-3.58,9.24c-0.33,1.32-0.61,2.53-0.83,3.58c-0.22,1.05-0.22,0.99-0.28,1.43
			s-0.17,0.88-0.22,1.27l-0.08,0.46c0.01-0.16,0.03-0.33,0.03-0.52c0.07-0.4,0.1-0.8,0.11-1.21c0.06-0.44,0.11-0.94,0.22-1.49
			c0.11-0.55,0.33-2.31,0.61-3.63c0.71-3.29,1.71-6.51,2.97-9.63c0.22-0.44,0.39-0.88,0.61-1.38l0.66-1.38l0.33-0.72l0.33-0.72
			l0.83-1.43l0.39-0.72l0.44-0.72c0.26-0.5,0.56-0.97,0.88-1.43c0.28-0.5,0.66-0.99,0.99-1.49l0.99-1.49l1.16-1.43l0.11-0.17
			l0.17-0.22l0.28-0.33l0.61-0.72c0.22-0.24,0.42-0.5,0.61-0.77l0.66-0.66l1.32-1.43c1.92-1.93,3.96-3.72,6.11-5.39l1.71-1.21
			l0.22-0.17l0.22-0.17l0.44-0.28l0.94-0.61l1.82-1.1l0.99-0.55c0.29-0.21,0.61-0.4,0.94-0.55l0.99-0.5l0.5-0.28l0.5-0.22l2.04-0.94
			l2.15-0.88l0.5-0.22l0.55-0.17l1.1-0.39c6.04-2.04,12.38-3.04,18.76-2.97c3.31,0.07,6.6,0.42,9.85,1.05l1.27,0.28l0.61,0.11
			l0.61,0.17l1.21,0.28l0.61,0.17l0.61,0.22l1.21,0.33l1.21,0.39l2.42,0.88l2.2,0.94l0.28,0.11h0.33l0.55,0.28l1.16,0.55
			c0.77,0.33,1.49,0.77,2.26,1.16l1.1,0.61l1.05,0.66c2.89,1.74,5.62,3.75,8.14,6c4.91,4.38,9.04,9.58,12.21,15.35
			c1.53,2.76,2.82,5.65,3.85,8.64c1.05,2.88,1.84,5.84,2.37,8.86c0.17,0.72,0.28,1.43,0.39,2.2l0.17,1.05
			c0.06,0.39,0.06,0.77,0.11,1.1l0.17,2.15c0.05,0.72,0.11,1.43,0.11,2.15c0,0.72,0.05,0.33,0.05,0.5v2.64
			c0,0.33-0.05,0.66-0.05,0.99c0,0.33-0.06,1.38-0.11,2.04l-0.17,1.98c-0.06,0.33-0.06,0.66-0.11,0.99l-0.17,0.94
			c-0.05,0.66-0.17,1.27-0.28,1.87l-0.33,1.87c-0.05,0.3-0.12,0.59-0.22,0.88l-0.17,0.88c-0.17,0.61-0.33,1.16-0.44,1.71l-0.11,0.44
			l-0.17,0.44c-0.05,0.28-0.17,0.55-0.22,0.83l-0.5,1.6l-0.61,1.6c-0.11,0.28-0.17,0.55-0.28,0.77l-0.17,0.39v0.39
			c-0.17,0.44-0.39,0.83-0.55,1.27c-0.07,0.21-0.16,0.41-0.28,0.61l-0.11,0.33v0.11l-0.17,0.33c-0.17,0.44-0.39,0.88-0.55,1.27
			C298.43,139.57,297.87,140.62,297.32,141.6z"/>
		<path class="st40" d="M288.21,131.96C288.19,131.97,288.16,132.03,288.21,131.96L288.21,131.96z"/>
		
			<linearGradient id="SVGID_1_" gradientUnits="userSpaceOnUse" x1="171.7651" y1="-115.8014" x2="323.8117" y2="-115.8014" gradientTransform="matrix(1 0 0 -1 0 -18)">
			<stop  offset="0" style="stop-color:#DF4192"/>
			<stop  offset="1" style="stop-color:#2A3B8F"/>
		</linearGradient>
		<path class="st2" d="M323.81,114.86v2.31c-0.03,3.91-0.38,7.81-1.05,11.66c-0.06,0.5-0.17,0.94-0.22,1.38
			c-0.06,0.44-0.17,0.94-0.28,1.38c-0.11,0.44-0.39,1.82-0.55,2.7c-0.17,0.88-0.5,1.71-0.72,2.59l-0.33,1.27l-0.39,1.21
			c-0.28,0.83-0.5,1.65-0.77,2.42c-0.28,0.77-0.61,1.65-0.88,2.42l-0.5,1.16l-0.11,0.33l-0.11,0.22l-0.22,0.55l-0.83,1.98l-0.22,0.5
			v0.11l-0.11,0.17l-0.11,0.28l-0.5,1.05l-0.99,1.93l-0.99,1.87l-0.99,1.76c-0.23,0.39-0.45,0.75-0.68,1.12
			c-0.36-1.5-1.16-2.92-2.38-4.04l-6.25-5.73c0.15-0.26,0.31-0.53,0.45-0.81c0.28-0.55,0.61-1.05,0.94-1.6
			c0.13-0.29,0.27-0.56,0.44-0.83l0.08-0.17h0.03v-0.06c0.02-0.07,0.02-0.06,0-0.03v-0.03l0.22-0.5c0.33-0.61,0.61-1.27,0.94-1.93
			c0.09-0.15,0.17-0.32,0.22-0.5l0.17-0.28c0-0.06,0.06-0.11,0.06-0.22c0.15-0.28,0.28-0.58,0.39-0.88l0.83-1.87
			c0.22-0.66,0.5-1.32,0.72-2.04c0.16-0.34,0.29-0.69,0.39-1.05c0.14-0.34,0.25-0.69,0.33-1.05c0.22-0.72,0.5-1.43,0.72-2.2
			s0.39-1.49,0.55-2.26l0.33-1.16c0.06-0.39,0.17-0.77,0.22-1.16c0.71-3.3,1.15-6.65,1.32-10.01c0.06-0.39,0.06-0.83,0.11-1.27
			v-4.02c0-0.94-0.05-1.82-0.11-2.75c-0.01-0.46-0.05-0.92-0.11-1.38c-0.01-0.46-0.04-0.92-0.11-1.38
			c-0.39-3.81-1.08-7.58-2.09-11.28c-0.17-0.44-0.28-0.94-0.44-1.43c-0.06-0.24-0.13-0.48-0.22-0.72c-0.06-0.24-0.13-0.48-0.22-0.72
			c-0.33-0.94-0.61-1.87-0.94-2.81l-1.16-2.81c-0.07-0.25-0.16-0.48-0.28-0.72l-0.33-0.66l-0.66-1.43
			c-1.78-3.76-3.89-7.35-6.33-10.73c-2.51-3.49-5.33-6.74-8.42-9.74c-3.18-3-6.64-5.69-10.34-8.03l-1.38-0.88l-0.72-0.44l-0.39-0.22
			l-0.33-0.22l-2.86-1.54l-3.14-1.49l-2.97-1.32c-4.16-1.61-8.45-2.85-12.82-3.74c-17.17-3.23-34.94-0.02-49.89,9.02
			c-3.43,2.08-6.68,4.44-9.74,7.04l-1.1,0.99l-0.55,0.5l-0.5,0.5l-2.09,1.98c-0.66,0.72-1.32,1.38-1.93,2.09l-0.5,0.5l-0.44,0.55
			l-0.94,1.05c-0.28,0.39-0.61,0.72-0.88,1.05l-0.83,1.1l-0.83,1.1l-0.44,0.5l-0.17,0.28l-0.22,0.28l-1.49,2.2l-0.39,0.55
			l-0.33,0.55l-0.72,1.1c-0.94,1.43-1.71,2.97-2.48,4.4l-0.17,0.28h-0.06v0.28c-0.13,0.17-0.22,0.35-0.28,0.55
			c-0.2,0.36-0.39,0.72-0.55,1.1c-0.11,0.17-0.17,0.39-0.28,0.55c-0.1,0.17-0.18,0.36-0.22,0.55l-0.5,1.05
			c-1.2,2.74-2.25,5.56-3.14,8.42c-0.17,0.66-0.39,1.32-0.55,1.98l-0.5,1.98c-0.17,0.61-0.28,1.27-0.44,1.87
			c-0.17,0.61-0.28,1.21-0.33,1.82l-0.33,1.76c-0.11,0.61-0.17,1.16-0.22,1.71c-0.07,0.27-0.1,0.54-0.11,0.83
			c-0.07,0.27-0.1,0.54-0.11,0.83l-0.17,1.54c-0.06,0.5-0.06,0.99-0.11,1.49s-0.06,0.94-0.11,1.38c-0.06,0.44-0.06,1.76-0.06,2.53
			v2.2c0,0.66,0,1.32,0.06,1.82v0.77c0,0.28,0.06,0.5,0.06,0.72c0.04,0.35,0.06,0.7,0.06,1.05c-0.06-0.28-0.11-0.66-0.17-1.05
			c0.01-0.22-0.01-0.45-0.06-0.66c0-0.28-0.06-0.5-0.06-0.77c-0.07-0.62-0.1-1.24-0.11-1.87c-0.06-0.66-0.11-1.38-0.11-2.15
			s-0.06-1.65-0.06-2.59c0-0.94,0.06-0.94,0.06-1.43c-0.01-0.5,0.01-0.99,0.06-1.49c0-0.5,0.06-0.99,0.06-1.54
			c0.04-0.28,0.07-0.55,0.06-0.83c0.06-0.28,0.06-0.55,0.11-0.83l0.17-1.76c0.06-0.55,0.17-1.16,0.22-1.76
			c0.06-0.61,0.17-1.27,0.28-1.87l0.33-1.98c0.17-0.61,0.28-1.32,0.44-1.98l0.5-2.04c0.75-2.95,1.67-5.85,2.75-8.69l0.5-1.16
			c0.05-0.19,0.12-0.38,0.22-0.55c0.07-0.19,0.14-0.37,0.22-0.55l0.5-1.16c0.11-0.17,0.17-0.39,0.28-0.55v-0.17v-0.17l0.17-0.28
			c0.72-1.49,1.43-3.08,2.37-4.62l0.72-1.16l0.28-0.61c0.15-0.17,0.28-0.35,0.39-0.55l1.43-2.37l0.22-0.28l0.17-0.28l0.44-0.55
			l0.77-1.16l0.83-1.21l0.88-1.1l0.88-1.16l0.44-0.55l0.5-0.55c0.61-0.77,1.27-1.49,1.93-2.26l2.04-2.2l0.5-0.55l0.55-0.5l1.1-1.05
			c3.08-2.87,6.37-5.5,9.85-7.87c3.69-2.43,7.56-4.55,11.61-6.33c8.52-3.7,17.62-5.83,26.9-6.27c9.68-0.43,19.35,0.98,28.49,4.18
			l3.47,1.32l3.25,1.38h0.28l0.22,0.11l0.39,0.22l0.83,0.39l1.65,0.83l0.39,0.17l0.39,0.22l0.83,0.44l1.6,0.88
			c4.2,2.44,8.16,5.28,11.83,8.47c3.65,3.17,6.99,6.69,9.96,10.51c2.95,3.66,5.53,7.6,7.7,11.77l0.83,1.54l0.39,0.77l0.39,0.77
			l1.38,3.14l1.27,3.14c0.12,0.26,0.21,0.54,0.28,0.83c0.12,0.25,0.21,0.51,0.28,0.77c0.22,0.55,0.39,1.1,0.55,1.6
			c1.34,4.19,2.35,8.47,3.03,12.82c0.04,0.52,0.12,1.03,0.22,1.54l0.17,1.6c0.11,1.05,0.17,2.09,0.28,3.14
			c0.11,1.05,0.11,2.09,0.11,3.14C323.8,114.38,323.82,114.61,323.81,114.86z"/>
		
			<linearGradient id="SVGID_00000125561383389834944350000012928247806698434751_" gradientUnits="userSpaceOnUse" x1="171.7639" y1="73.9704" x2="323.8118" y2="73.9704" gradientTransform="matrix(1 0 0 1 0 70)">
			<stop  offset="0" style="stop-color:#DF4192"/>
			<stop  offset="1" style="stop-color:#2A3B8F"/>
		</linearGradient>
		<path style="fill:url(#SVGID_00000125561383389834944350000012928247806698434751_);" d="M305.6,143.93
			c-0.02,0.03-0.03,0.07-0.04,0.08h0.02l0.03-0.06V143.93z"/>
		
			<linearGradient id="SVGID_00000148662756333094455600000012200063787240579486_" gradientUnits="userSpaceOnUse" x1="266.5995" y1="74.0148" x2="344.4935" y2="74.0148" gradientTransform="matrix(1 0 0 1 0 70)">
			<stop  offset="0" style="stop-color:#DF4192"/>
			<stop  offset="1" style="stop-color:#2A3B8F"/>
		</linearGradient>
		<path style="fill:url(#SVGID_00000148662756333094455600000012200063787240579486_);" d="M305.56,144.01h-0.01
			C305.55,144.02,305.55,144.02,305.56,144.01z"/>
		<path class="st44" d="M262.15,172.67l9.24-9.24c1.41-1.38,1.44-3.64,0.06-5.06c-0.02-0.02-0.04-0.04-0.06-0.06l-19.97-19.97
			c-0.72-0.7-0.72-1.85-0.02-2.57c0.01-0.01,0.01-0.01,0.02-0.02l6.99-6.99c0.46-0.48,1.23-0.51,1.71-0.05
			c0.02,0.02,0.03,0.03,0.05,0.05l0.99,0.99l2.86-2.86l-3.25-3.25c-0.9-0.98-2.43-1.06-3.42-0.15c-0.03,0.03-0.07,0.07-0.1,0.1
			l-11.17,11.17c-1.09,1.09-1.09,2.87,0,3.96l20.19,20.19c1.03,1.03,1.03,2.7,0.01,3.74l-0.01,0.01l-7.04,7.1l-0.28-0.28
			c-1.56-1.58-4.1-1.6-5.68-0.04c-0.02,0.02-0.03,0.03-0.04,0.04l-11.22,11.22c-2.49,2.49-2.49,6.53,0,9.02
			c2.52,2.46,6.55,2.46,9.08,0l10.95-11C263.73,177.08,263.78,174.38,262.15,172.67z M310.41,164.49l-7.1,7.75
			c-3,3.27-8.08,3.49-11.35,0.5l-29.73-27.25c-3.27-3-3.49-8.08-0.5-11.35l7.1-7.75c0.4-0.43,0.83-0.8,1.28-1.13
			c3.02-2.14,7.22-1.97,10.07,0.63l2.66,2.44l4.86,4.46l9.63,8.82l6.34,5.81l6.25,5.73c1.22,1.12,2.02,2.54,2.38,4.04
			C312.9,159.68,312.29,162.44,310.41,164.49z"/>
	</g>
</g>
<g id="Layer_10">
</g>
<g id="Layer_11">
</g>
<g id="Layer_12">
</g>
<g id="Layer_13">
</g>
<g id="Layer_14">
</g>
<g id="Layer_15">
</g>
</svg>
