<?xml version="1.0" encoding="utf-8"?>
<!-- Generator: Adobe Illustrator 27.8.1, SVG Export Plug-In . SVG Version: 6.00 Build 0)  -->
<svg version="1.1" xmlns="http://www.w3.org/2000/svg" xmlns:xlink="http://www.w3.org/1999/xlink" x="0px" y="0px"
	 viewBox="0 0 350 230" style="enable-background:new 0 0 350 230;" xml:space="preserve">
<style type="text/css">
	.st0{fill:#C61A76;}
	.st1{fill:#8C449A;}
	.st2{fill:url(#SVGID_1_);}
	.st3{fill:#841618;}
	.st4{fill:#E4314A;}
	.st5{fill:#5FBB46;}
	.st6{fill:#DCA127;}
	.st7{fill:#45B0E4;}
	.st8{fill:#1A1A1A;}
	.st9{fill:url(#SVGID_00000083780910691005067170000014733777660971726513_);}
	.st10{fill:#275A9A;}
	.st11{fill:#4687C7;}
	.st12{fill:url(#SVGID_00000119117109279942395730000008900045571443517325_);}
	.st13{fill:url(#SVGID_00000067934085159261493120000015667471617095315355_);}
	.st14{fill:url(#SVGID_00000139291250805236536430000018159474056095797179_);}
	.st15{fill:url(#SVGID_00000168807601114480048100000009994786576018529177_);}
	.st16{fill:#507834;}
	.st17{fill:url(#SVGID_00000104692235075815539570000008955428884010572188_);}
	.st18{fill:#F2652E;}
	.st19{fill:#F6872E;}
	.st20{fill:url(#SVGID_00000127753294274346868960000016142482723275831714_);}
	.st21{fill:#8DC641;}
	.st22{fill:#E26926;}
	.st23{fill:#3A77B7;}
	.st24{fill:#9B9DA0;}
	.st25{fill:#EE4079;}
	.st26{fill:#7DCBF1;}
	.st27{fill:#FEE81F;}
	.st28{fill:#231F20;}
	.st29{fill-rule:evenodd;clip-rule:evenodd;fill:#FEC660;}
	.st30{fill-rule:evenodd;clip-rule:evenodd;fill:#DB1F2C;}
	.st31{fill-rule:evenodd;clip-rule:evenodd;fill:#B9479A;}
	.st32{fill-rule:evenodd;clip-rule:evenodd;fill:#3B57A7;}
	.st33{fill-rule:evenodd;clip-rule:evenodd;fill:#3EAAE0;}
	.st34{fill-rule:evenodd;clip-rule:evenodd;fill:#80C342;}
	.st35{fill:#00ADEA;}
	.st36{fill:#EB2227;}
	.st37{fill:#14AB4B;}
	.st38{fill:none;}
	.st39{fill:#FBB03B;}
	.st40{fill:#C59C6D;}
	.st41{fill:url(#SVGID_00000174568161277181927890000010057421607377670303_);}
	.st42{fill:url(#SVGID_00000080172209517372593110000007761676375341179558_);}
	.st43{fill:url(#SVGID_00000018214663914090115790000005860431742981685922_);}
	.st44{fill:#010101;}
	.st45{fill:#CFD1D2;}
	.st46{fill:#A7A9AC;}
	.st47{fill:#00AEEF;}
	.st48{fill:#F7941D;}
	.st49{fill:#EC008C;}
	.st50{fill:#39B54A;}
	.st51{fill:url(#SVGID_00000128447540540688720150000017371015639988257183_);}
	.st52{opacity:0.75;}
	.st53{fill:#005D97;}
	.st54{fill:#FFCD06;}
	.st55{fill:#8C56A3;}
	.st56{fill:#8C328B;}
	.st57{fill:#BBD867;}
	.st58{fill:#1FAFB5;}
	.st59{fill:#D44194;}
	.st60{fill:#EF5AA0;}
	.st61{fill:#F89422;}
	.st62{fill:#FFF4DC;}
	.st63{fill:#FFE7B6;}
	.st64{fill:#FFDB93;}
	.st65{fill:#FFCF6F;}
	.st66{fill:#FEC24A;}
	.st67{fill:#FBAA19;}
	.st68{fill:#FADBE4;}
	.st69{fill:#F5B6CA;}
	.st70{fill:#F093B0;}
	.st71{fill:#E96E95;}
	.st72{fill:#E6497C;}
	.st73{fill:#DA1D49;}
	.st74{fill:#F6DBE9;}
	.st75{fill:#EBB7D5;}
	.st76{fill:#E195C0;}
	.st77{fill:#D673AD;}
	.st78{fill:#CF559F;}
	.st79{fill:#CF2A91;}
	.st80{fill:#D0B6D8;}
	.st81{fill:#B793C4;}
	.st82{fill:#9970B1;}
	.st83{fill:#8356A3;}
	.st84{fill:#74489D;}
	.st85{fill:#663F98;}
	.st86{fill:#DCECF9;}
	.st87{fill:#BADAF3;}
	.st88{fill:#99C6EB;}
	.st89{fill:#7CB5E2;}
	.st90{fill:#63A1D7;}
	.st91{fill:#447BBF;}
	.st92{fill:#DDEEDC;}
	.st93{fill:#BCDFB6;}
	.st94{fill:#9DD196;}
	.st95{fill:#81C674;}
	.st96{fill:#69BE55;}
	.st97{fill:#49B749;}
	.st98{fill:#ED2D88;}
	.st99{fill:#FFF200;}
</style>
<g id="Layer_1">
</g>
<g id="Layer_2">
</g>
<g id="Layer_3">
</g>
<g id="Layer_4">
</g>
<g id="Layer_5">
</g>
<g id="Layer_6">
</g>
<g id="Layer_7">
	<g>
		<path class="st29" d="M98.67,91.91L92.6,77.62c-2.1-4.96-0.53-4.72,1.4-8.46c0.88-1.69,2.28-5.02,1.92-8.22
			c-2.16-6.01-4.84-11.9,1.92-17.03l2.97,7c3.67,8.63-6.83,10.15-2.8,19.54l4.78,11.14C104.91,86.42,101.65,88.29,98.67,91.91
			 M120.25,121.53l15.4-2.16c5.31-0.7,4.66,0.76,7.76,3.56c1.4,1.28,4.26,3.5,7.47,3.97c6.41-0.53,12.71-1.58,15.92,6.3l-7.47,1.05
			c-9.27,1.28-8.05-9.21-18.14-7.76l-12.02,1.75C123.92,129,122.93,125.38,120.25,121.53 M97.5,138.09l6.07,14.29
			c2.1,4.96,0.53,4.72-1.4,8.46c-0.88,1.69-2.28,5.02-1.92,8.22c2.16,6.07,4.84,11.9-1.92,17.03l-2.97-7
			c-3.61-8.57,6.83-10.09,2.8-19.48l-4.78-11.14C91.26,143.58,94.53,141.71,97.5,138.09 M74.99,114.42l-14.29,6.07
			c-4.96,2.1-4.72,0.53-8.46-1.4c-1.69-0.88-5.02-2.28-8.22-1.92c-6.01,2.16-11.9,4.84-17.03-1.92l7-2.97
			c8.57-3.61,10.15,6.83,19.54,2.8l11.14-4.78C69.51,108.17,71.37,111.44,74.99,114.42"/>
		<path class="st30" d="M110.16,95.29l1.86-15.4c0.7-5.36,1.92-4.32,5.48-6.65c1.58-0.99,4.43-3.21,5.72-6.13
			c1.17-6.3,1.81-12.71,10.21-13.76l-0.93,7.52c-1.11,9.27-10.96,5.36-12.19,15.51l-1.4,12.02
			C118.27,93.65,114.53,93.65,110.16,95.29 M117.8,127.07l15.4,1.86c5.36,0.7,4.38,1.92,6.65,5.48c0.99,1.58,3.21,4.49,6.13,5.72
			c6.36,1.17,12.71,1.81,13.76,10.21l-7.47-0.93c-9.33-1.11-5.36-10.96-15.51-12.19l-12.07-1.4
			C119.43,135.18,119.43,131.45,117.8,127.07 M91.55,137.16l2.16,15.4c0.76,5.31-0.76,4.66-3.56,7.76c-1.28,1.46-3.5,4.32-3.97,7.47
			c0.53,6.41,1.58,12.71-6.3,15.92l-1.05-7.47c-1.28-9.27,9.21-8.05,7.76-18.14l-1.75-12.02C84.09,140.84,87.71,139.9,91.55,137.16
			 M75.92,108.47l-15.34,2.16c-5.36,0.76-4.72-0.76-7.82-3.56c-1.4-1.28-4.26-3.5-7.47-3.97c-6.36,0.53-12.71,1.58-15.92-6.3
			l7.47-1.05c9.27-1.28,8.05,9.21,18.14,7.76L67,101.76C72.25,101.06,73.24,104.62,75.92,108.47"/>
		<path class="st31" d="M114.83,99.08l5.83-14.4c2.04-4.96,2.97-3.67,6.94-4.96c1.81-0.58,5.19-1.92,7.17-4.43
			c2.74-5.83,5.02-11.84,13.41-10.67l-2.8,7c-3.56,8.69-12.02,2.33-15.8,11.84l-4.49,11.26C123.11,99.6,119.49,98.67,114.83,99.08
			 M114.01,131.74l14.4,5.83c4.96,2.04,3.67,2.97,4.96,7c0.58,1.75,1.98,5.13,4.49,7.11c5.77,2.74,11.78,5.02,10.61,13.41l-7-2.8
			c-8.69-3.56-2.33-12.02-11.84-15.8l-11.26-4.49C113.48,140.02,114.42,136.4,114.01,131.74 M86.02,134.71l-1.86,15.4
			c-0.7,5.36-1.92,4.38-5.42,6.65c-1.63,0.99-4.49,3.21-5.77,6.13c-1.17,6.36-1.81,12.71-10.21,13.77l0.93-7.47
			c1.11-9.33,10.96-5.36,12.19-15.51l1.4-12.07C77.91,136.35,81.64,136.35,86.02,134.71 M78.37,102.93l-15.4-1.86
			c-5.36-0.7-4.38-1.92-6.65-5.42c-0.99-1.63-3.21-4.49-6.13-5.77c-6.3-1.17-12.71-1.81-13.77-10.21l7.52,0.93
			c9.27,1.11,5.36,10.96,15.51,12.19l12.02,1.4C76.74,94.82,76.74,98.55,78.37,102.93"/>
		<path class="st32" d="M118.38,103.98l9.33-12.42c3.27-4.26,3.85-2.8,8.05-2.97c1.86-0.11,5.48-0.58,8.05-2.45
			c4.14-4.9,7.93-10.15,15.75-6.83l-4.61,6.01c-5.6,7.47-12.19-0.82-18.26,7.35l-7.28,9.74
			C126.26,106.6,122.99,104.73,118.38,103.98 M109.11,135.29l12.42,9.33c4.32,3.27,2.8,3.85,3.03,8.05
			c0.06,1.86,0.53,5.48,2.45,8.05c4.9,4.14,10.09,7.93,6.83,15.75l-6.07-4.55c-7.47-5.66,0.82-12.19-7.35-18.32l-9.68-7.28
			C106.48,143.17,108.35,139.9,109.11,135.29 M81.35,130.92l-5.83,14.4c-2.04,4.96-2.97,3.67-6.94,4.96
			c-1.81,0.59-5.19,1.98-7.17,4.49c-2.74,5.77-5.02,11.78-13.41,10.67l2.86-7.05c3.5-8.63,11.96-2.33,15.75-11.84l4.49-11.26
			C73.06,130.4,76.68,131.39,81.35,130.92 M82.16,98.26l-14.4-5.83c-4.96-2.04-3.67-2.97-4.96-6.94c-0.59-1.81-1.92-5.19-4.43-7.17
			c-5.83-2.74-11.84-5.02-10.67-13.41l7,2.86c8.69,3.5,2.33,11.96,11.84,15.75l11.26,4.49C82.69,89.98,81.75,93.6,82.16,98.26"/>
		<path class="st33" d="M104.62,92.84l-2.16-15.34c-0.7-5.36,0.76-4.72,3.56-7.82c1.28-1.4,3.5-4.26,3.97-7.47
			c-0.53-6.36-1.58-12.71,6.3-15.92l1.05,7.47c1.28,9.27-9.21,8.05-7.76,18.2l1.75,11.96C112.08,89.16,108.47,90.16,104.62,92.84
			 M120.54,109.64l12.25-9.57c4.26-3.33,4.43-1.75,8.52-0.88c1.86,0.41,5.48,0.93,8.46-0.29c5.25-3.61,10.21-7.7,16.91-2.51
			l-5.95,4.66c-7.35,5.77-11.55-3.97-19.6,2.33l-9.51,7.52C127.48,114.18,124.8,111.56,120.54,109.64 M77.79,126.02l-9.33,12.42
			c-3.27,4.32-3.85,2.8-8.05,3.03c-1.86,0.06-5.48,0.53-8.05,2.45c-4.14,4.9-7.88,10.09-15.75,6.83l4.61-6.07
			c5.6-7.47,12.19,0.88,18.32-7.35l7.22-9.68C69.92,123.4,73.18,125.27,77.79,126.02 M87.06,94.71l-12.42-9.33
			c-4.32-3.27-2.8-3.85-2.97-8.05c-0.11-1.86-0.58-5.48-2.45-8.05c-4.9-4.14-10.15-7.88-6.88-15.69l6.07,4.55
			c7.47,5.6-0.82,12.19,7.35,18.32l9.68,7.23C89.69,86.83,87.82,90.1,87.06,94.71"/>
		<path class="st34" d="M121.18,115.58l14.29-6.07c4.96-2.1,4.72-0.53,8.46,1.4c1.69,0.88,5.02,2.28,8.22,1.92
			c6.01-2.16,11.9-4.78,17.03,1.92l-7,2.97c-8.57,3.67-10.15-6.83-19.54-2.8l-11.14,4.78C126.66,121.83,124.8,118.56,121.18,115.58
			 M103.51,137.45l9.57,12.25c3.27,4.26,1.69,4.43,0.82,8.52c-0.41,1.86-0.88,5.48,0.29,8.46c3.61,5.25,7.7,10.21,2.51,16.91
			l-4.66-5.95c-5.72-7.35,3.97-11.55-2.33-19.6l-7.52-9.51C98.9,144.39,101.53,141.71,103.51,137.45 M75.63,120.42l-12.25,9.57
			c-4.26,3.33-4.43,1.69-8.52,0.82c-1.86-0.41-5.42-0.88-8.4,0.29c-5.31,3.61-10.27,7.7-16.97,2.51l5.95-4.66
			c7.41-5.72,11.55,3.97,19.6-2.33l9.51-7.52C68.69,115.82,71.37,118.44,75.63,120.42 M92.66,92.55L83.16,80.3
			c-3.33-4.26-1.75-4.43-0.88-8.52c0.41-1.86,0.93-5.42-0.29-8.4c-3.61-5.31-7.7-10.27-2.51-16.97l4.66,5.95
			c5.77,7.41-3.97,11.55,2.33,19.6L94,81.47C97.27,85.61,94.65,88.29,92.66,92.55"/>
	</g>
</g>
<g id="Layer_8">
</g>
<g id="Layer_9">
</g>
<g id="Layer_10">
</g>
<g id="Layer_11">
</g>
<g id="Layer_12">
</g>
<g id="Layer_13">
</g>
<g id="Layer_14">
</g>
<g id="Layer_15">
</g>
</svg>
