<?xml version="1.0" encoding="utf-8"?>
<!-- Generator: Adobe Illustrator 27.8.1, SVG Export Plug-In . SVG Version: 6.00 Build 0)  -->
<svg version="1.1" xmlns="http://www.w3.org/2000/svg" xmlns:xlink="http://www.w3.org/1999/xlink" x="0px" y="0px"
	 viewBox="0 0 350 230" style="enable-background:new 0 0 350 230;" xml:space="preserve">
<style type="text/css">
	.st0{fill:#C61A76;}
	.st1{fill:#8C449A;}
	.st2{fill:url(#SVGID_1_);}
	.st3{fill:#841618;}
	.st4{fill:#E4314A;}
	.st5{fill:#5FBB46;}
	.st6{fill:#DCA127;}
	.st7{fill:#45B0E4;}
	.st8{fill:#1A1A1A;}
	.st9{fill:url(#SVGID_00000098924596527538774670000017275016279138993073_);}
	.st10{fill:#275A9A;}
	.st11{fill:#4687C7;}
	.st12{fill:url(#SVGID_00000013880014909915755100000001537963075625712806_);}
	.st13{fill:url(#SVGID_00000078724034319911351820000000320524517655776925_);}
	.st14{fill:url(#SVGID_00000035505809029819922870000016134814518189547176_);}
	.st15{fill:url(#SVGID_00000029763671614118103770000018410833406868565407_);}
	.st16{fill:#507834;}
	.st17{fill:url(#SVGID_00000140721259357255455030000015652237795289694892_);}
	.st18{fill:#F2652E;}
	.st19{fill:#F6872E;}
	.st20{fill:url(#SVGID_00000042720499873847847790000009835725000329270184_);}
	.st21{fill:#8DC641;}
	.st22{fill:#E26926;}
	.st23{fill:#3A77B7;}
	.st24{fill:#9B9DA0;}
	.st25{fill:#EE4079;}
	.st26{fill:#7DCBF1;}
	.st27{fill:#FEE81F;}
	.st28{fill:#231F20;}
	.st29{fill-rule:evenodd;clip-rule:evenodd;fill:#FEC660;}
	.st30{fill-rule:evenodd;clip-rule:evenodd;fill:#DB1F2C;}
	.st31{fill-rule:evenodd;clip-rule:evenodd;fill:#B9479A;}
	.st32{fill-rule:evenodd;clip-rule:evenodd;fill:#3B57A7;}
	.st33{fill-rule:evenodd;clip-rule:evenodd;fill:#3EAAE0;}
	.st34{fill-rule:evenodd;clip-rule:evenodd;fill:#80C342;}
	.st35{fill:#00ADEA;}
	.st36{fill:#EB2227;}
	.st37{fill:#14AB4B;}
	.st38{fill:none;}
	.st39{fill:#FBB03B;}
	.st40{fill:#C59C6D;}
	.st41{fill:url(#SVGID_00000125600742988649969210000016880834577266355890_);}
	.st42{fill:url(#SVGID_00000125592752964850043670000003364796010002109572_);}
	.st43{fill:url(#SVGID_00000158018419073309103510000007085597360701001118_);}
	.st44{fill:#010101;}
	.st45{fill:#CFD1D2;}
	.st46{fill:#A7A9AC;}
	.st47{fill:#00AEEF;}
	.st48{fill:#F7941D;}
	.st49{fill:#EC008C;}
	.st50{fill:#39B54A;}
	.st51{fill:url(#SVGID_00000009552905236713181430000005292120894123359645_);}
	.st52{opacity:0.75;}
	.st53{fill:#005D97;}
	.st54{fill:#FFCD06;}
	.st55{fill:#8C56A3;}
	.st56{fill:#8C328B;}
	.st57{fill:#BBD867;}
	.st58{fill:#1FAFB5;}
	.st59{fill:#D44194;}
	.st60{fill:#EF5AA0;}
	.st61{fill:#F89422;}
	.st62{fill:#FFF4DC;}
	.st63{fill:#FFE7B6;}
	.st64{fill:#FFDB93;}
	.st65{fill:#FFCF6F;}
	.st66{fill:#FEC24A;}
	.st67{fill:#FBAA19;}
	.st68{fill:#FADBE4;}
	.st69{fill:#F5B6CA;}
	.st70{fill:#F093B0;}
	.st71{fill:#E96E95;}
	.st72{fill:#E6497C;}
	.st73{fill:#DA1D49;}
	.st74{fill:#F6DBE9;}
	.st75{fill:#EBB7D5;}
	.st76{fill:#E195C0;}
	.st77{fill:#D673AD;}
	.st78{fill:#CF559F;}
	.st79{fill:#CF2A91;}
	.st80{fill:#D0B6D8;}
	.st81{fill:#B793C4;}
	.st82{fill:#9970B1;}
	.st83{fill:#8356A3;}
	.st84{fill:#74489D;}
	.st85{fill:#663F98;}
	.st86{fill:#DCECF9;}
	.st87{fill:#BADAF3;}
	.st88{fill:#99C6EB;}
	.st89{fill:#7CB5E2;}
	.st90{fill:#63A1D7;}
	.st91{fill:#447BBF;}
	.st92{fill:#DDEEDC;}
	.st93{fill:#BCDFB6;}
	.st94{fill:#9DD196;}
	.st95{fill:#81C674;}
	.st96{fill:#69BE55;}
	.st97{fill:#49B749;}
	.st98{fill:#ED2D88;}
	.st99{fill:#FFF200;}
</style>
<g id="Layer_1">
</g>
<g id="Layer_2">
	<g>
		<path class="st3" d="M168.58,64.9l-1.26,1.03c11.45-1.03,20.94-5.46,27.5-15.3c-0.05,0.48-0.13,0.96-0.23,1.44l0.4,0.23l4.25-8
			c0.57,2.65,1.21,5.12,1.61,7.65c0.49,2.7,0.82,5.43,0.98,8.17c0.1,2.68,0.07,5.37-0.11,8.05c-0.23,2.59-0.69,5.23-0.69,7.94
			c0.69-2.65,1.38-5.29,2.01-7.94l0.69,0.11c-0.57,2.53-0.92,5.12-1.73,7.59c-0.92,2.67-2.04,5.26-3.34,7.77
			c-1.3,2.41-2.78,4.72-4.43,6.9c-1.67,2.13-3.57,4.09-5.06,6.44l5.75-4.95l0.52,0.57c-1.96,1.73-3.74,3.74-5.81,5.29
			c-7.31,5.41-15.59,8.34-24.56,9.44l-1.61,0.23c-3.16,0.63-5.64,0.06-7.71-2.88c-1.76-2.44-3.9-4.6-6.33-6.38
			c-2.13-1.61-2.93-3.34-2.82-5.98c0.46-7.13,2.19-13.81,7.13-19.27c3.71-3.99,8.45-6.9,13.69-8.4
			C167.66,64.62,167.95,64.79,168.58,64.9z M164.67,102.01c16.45-1.96,29.86-15.93,31-31.41
			C190.15,86.13,179.33,95.68,164.67,102.01z M110.59,141.87c0-4.78,0-9.26,0.06-13.75c0.08-0.61,0.39-1.17,0.87-1.55
			c4.2-4.03,8.51-7.94,12.71-11.96c1.03-0.98,1.73-0.57,2.65,0.06c3.28,2.24,6.56,4.43,9.95,6.56l-9.61-9.32l17.2-14.04
			c4.43,3.16,8.33,7.01,11.56,11.39c0.34,0.46,0.17,1.67-0.23,2.19c-4.48,5.58-8.97,11.16-13.63,16.57
			c-3.39,4.03-7.13,7.82-10.64,11.73c-1.15,1.49-2.96,2.31-4.83,2.19C121.41,141.75,116.23,141.87,110.59,141.87z"/>
		<path class="st4" d="M190.96,141.64h-46.36c4.55-2.07,7.08-5.52,8.05-10.36c0.46-2.47,3.11-3.45,5.41-2.07
			c1.3,0.88,2.53,1.86,3.68,2.93c2.59,2.07,4.43,1.84,6.44-0.75l0.11-0.17c4.6-6.1,7.42-6.04,11.96,0.17
			C184.8,137.61,185.89,138.65,190.96,141.64z M187.85,123.87c-3.28,0-5.87-2.36-5.92-5.46c-0.06-3.11,2.76-5.75,6.44-5.75
			c3.68,0,5.64,2.24,5.69,5.35C194.12,121.11,191.7,123.81,187.85,123.87z"/>
		<path class="st5" d="M239.34,13.19c0,5.52-0.17,10.87,0.06,16.22c0.11,2.99-0.69,5.12-2.99,6.96s-4.48,1.9-6.56,0.06
			c-0.94-0.94-1.82-1.94-2.65-2.99c-2.36-2.82-4.32-3.39-7.71-2.13c-1.21,0.46-2.36,0.98-3.57,1.32c-3.57,1.09-6.38-0.06-8.11-3.34
			c-0.44-0.83-0.8-1.7-1.09-2.59c-1.26-4.48-2.42-8.92-3.62-13.52L239.34,13.19z M225.81,38.9c2.47,2.65,5.52,10.93,2.53,14.15
			c-1.26,1.32-4.43,0.8-5.01-0.69c-0.57-1.49,0.34-4.32,0.52-5.81l0.69-4.95C224.66,40.74,225.3,39.94,225.81,38.9z"/>
		<path class="st6" d="M239.39,141.87h-19.21c-0.57,0-1.21-0.75-1.67-1.26c-0.46-0.52-1.96-3.11-3.28-4.32
			c-3.74-3.45-8.4-3.22-13.46,0.57c-2.13,1.61-4.25,2.88-7.08,2.7c-2.82-0.17-5.35-2.36-5.52-5.06c-0.17-2.7,1.09-5.01,4.55-5.41
			c3.45-0.4,7.65-0.17,11.5-0.46c5.46-0.46,7.82-5.87,4.6-10.36c-0.57-0.75-1.15-1.49-1.78-2.19c-1.61-1.96-1.9-4.32-0.57-5.81
			c1.32-1.49,3.45-1.15,5.23-0.46c1.21,0.53,2.38,1.15,3.51,1.84c0.63,0.34,1.15,0.8,1.78,1.21c3.68,2.42,6.21,2.65,8.69,0.75
			s3.85-6.27,2.88-9.83c-0.56-1.78-0.93-3.61-1.09-5.46c-0.11-2.42,1.73-4.09,4.14-4.25c2.42-0.17,4.78,1.32,4.89,3.68
			c0.11,2.36-0.46,4.48-0.87,6.73c-0.4,2.24-1.15,5.52-1.44,8.28c-0.35,2.27,0.88,4.49,2.99,5.41c0.63,0.33,1.06,0.96,1.15,1.67
			C239.45,127.03,239.39,134.28,239.39,141.87z M222.71,92.63c1.96,0,3.91,2.24,3.8,4.37c-0.09,1.89-1.67,3.37-3.57,3.34
			c-1.96,0.06-3.74-1.84-3.74-4.03C219.23,94.36,220.76,92.75,222.71,92.63z"/>
		<path class="st7" d="M110.65,13.13h81.68v0.29l-9.67,2.01c-3.62,0.87-6.96,2.07-7.54,6.56c-0.11,0.54-0.37,1.04-0.75,1.44
			c-4.6,4.78-4.37,10.7-3.97,16.62c0.34,4.78,0.92,9.55,1.15,14.38c-0.04,1.47-0.44,2.91-1.15,4.2c-0.87,1.78-2.47,1.84-2.99-0.06
			c-0.71-2.7-0.96-5.5-0.75-8.28c0.29-5.18,1.26-10.3,1.55-15.48s-2.41-7.82-6.15-8.05c-3.74-0.23-8.11,2.7-8.4,7.36
			s0.17,7.88,0.17,11.79c0.05,1.64-0.16,3.27-0.63,4.83c-0.8,2.36-2.99,2.65-4.55,0.75c-0.85-0.94-1.46-2.06-1.78-3.28
			c-2.07-7.82-14.27-8.22-18.35-2.36c-3.05,4.37-4.09,9.26-4.72,14.38c-1.03,9.09,0.34,17.89,2.53,26.63
			c0.87,3.57-0.75,6.67-3.34,7.13c-2.59,0.46-4.37-1.67-4.6-5.46c-0.17-2.88,0.4-5.81,0.92-8.63c3.11-16.57,2.19-32.79-4.55-48.38
			c-0.8-1.9-2.36-3.45-3.51-5.23c-0.31-0.39-0.53-0.84-0.63-1.32V13.13z M143.21,60.3c0.15-1.9,0.66-3.76,1.49-5.46
			c0.39-0.59,1.08-0.92,1.78-0.87c2.47,0.98,3.39,6.67,1.26,8.28c-2.13,1.61-4.03,1.44-4.48-0.8
			C143.22,61.07,143.2,60.69,143.21,60.3z"/>
	</g>
</g>
<g id="Layer_3">
</g>
<g id="Layer_4">
</g>
<g id="Layer_5">
</g>
<g id="Layer_6">
</g>
<g id="Layer_7">
</g>
<g id="Layer_8">
</g>
<g id="Layer_9">
</g>
<g id="Layer_10">
</g>
<g id="Layer_11">
</g>
<g id="Layer_12">
</g>
<g id="Layer_13">
</g>
<g id="Layer_14">
</g>
<g id="Layer_15">
</g>
</svg>
