<?xml version="1.0" encoding="utf-8"?>
<!-- Generator: Adobe Illustrator 27.8.1, SVG Export Plug-In . SVG Version: 6.00 Build 0)  -->
<svg version="1.1" xmlns="http://www.w3.org/2000/svg" xmlns:xlink="http://www.w3.org/1999/xlink" x="0px" y="0px"
	 viewBox="0 0 350 230" style="enable-background:new 0 0 350 230;" xml:space="preserve">
<style type="text/css">
	.st0{fill:#C61A76;}
	.st1{fill:#8C449A;}
	.st2{fill:url(#SVGID_1_);}
	.st3{fill:#841618;}
	.st4{fill:#E4314A;}
	.st5{fill:#5FBB46;}
	.st6{fill:#DCA127;}
	.st7{fill:#45B0E4;}
	.st8{fill:#1A1A1A;}
	.st9{fill:url(#SVGID_00000064337482699199819140000008486344537588035719_);}
	.st10{fill:#275A9A;}
	.st11{fill:#4687C7;}
	.st12{fill:url(#SVGID_00000103986753445787432390000005773188966909447577_);}
	.st13{fill:url(#SVGID_00000083782873627960893700000012695155986166139027_);}
	.st14{fill:url(#SVGID_00000090295945610830545580000011750312071332090787_);}
	.st15{fill:url(#SVGID_00000029011958017661340170000011511200804759253413_);}
	.st16{fill:#507834;}
	.st17{fill:url(#SVGID_00000160892203649222699490000004225462895139204759_);}
	.st18{fill:#F2652E;}
	.st19{fill:#F6872E;}
	.st20{fill:url(#SVGID_00000053536900684709060080000004483670970798192820_);}
	.st21{fill:#8DC641;}
	.st22{fill:#E26926;}
	.st23{fill:#3A77B7;}
	.st24{fill:#9B9DA0;}
	.st25{fill:#EE4079;}
	.st26{fill:#7DCBF1;}
	.st27{fill:#FEE81F;}
	.st28{fill:#231F20;}
	.st29{fill-rule:evenodd;clip-rule:evenodd;fill:#FEC660;}
	.st30{fill-rule:evenodd;clip-rule:evenodd;fill:#DB1F2C;}
	.st31{fill-rule:evenodd;clip-rule:evenodd;fill:#B9479A;}
	.st32{fill-rule:evenodd;clip-rule:evenodd;fill:#3B57A7;}
	.st33{fill-rule:evenodd;clip-rule:evenodd;fill:#3EAAE0;}
	.st34{fill-rule:evenodd;clip-rule:evenodd;fill:#80C342;}
	.st35{fill:#00ADEA;}
	.st36{fill:#EB2227;}
	.st37{fill:#14AB4B;}
	.st38{fill:none;}
	.st39{fill:#FBB03B;}
	.st40{fill:#C59C6D;}
	.st41{fill:url(#SVGID_00000000928086174622310190000004341819710854079933_);}
	.st42{fill:url(#SVGID_00000065049152572797587680000002940440756025736605_);}
	.st43{fill:url(#SVGID_00000171720646288416176670000006410293872978987966_);}
	.st44{fill:#010101;}
	.st45{fill:#CFD1D2;}
	.st46{fill:#A7A9AC;}
	.st47{fill:#00AEEF;}
	.st48{fill:#F7941D;}
	.st49{fill:#EC008C;}
	.st50{fill:#39B54A;}
	.st51{fill:url(#SVGID_00000072266544938726698820000007671036919759482282_);}
	.st52{opacity:0.75;}
	.st53{fill:#005D97;}
	.st54{fill:#FFCD06;}
	.st55{fill:#8C56A3;}
	.st56{fill:#8C328B;}
	.st57{fill:#BBD867;}
	.st58{fill:#1FAFB5;}
	.st59{fill:#D44194;}
	.st60{fill:#EF5AA0;}
	.st61{fill:#F89422;}
	.st62{fill:#FFF4DC;}
	.st63{fill:#FFE7B6;}
	.st64{fill:#FFDB93;}
	.st65{fill:#FFCF6F;}
	.st66{fill:#FEC24A;}
	.st67{fill:#FBAA19;}
	.st68{fill:#FADBE4;}
	.st69{fill:#F5B6CA;}
	.st70{fill:#F093B0;}
	.st71{fill:#E96E95;}
	.st72{fill:#E6497C;}
	.st73{fill:#DA1D49;}
	.st74{fill:#F6DBE9;}
	.st75{fill:#EBB7D5;}
	.st76{fill:#E195C0;}
	.st77{fill:#D673AD;}
	.st78{fill:#CF559F;}
	.st79{fill:#CF2A91;}
	.st80{fill:#D0B6D8;}
	.st81{fill:#B793C4;}
	.st82{fill:#9970B1;}
	.st83{fill:#8356A3;}
	.st84{fill:#74489D;}
	.st85{fill:#663F98;}
	.st86{fill:#DCECF9;}
	.st87{fill:#BADAF3;}
	.st88{fill:#99C6EB;}
	.st89{fill:#7CB5E2;}
	.st90{fill:#63A1D7;}
	.st91{fill:#447BBF;}
	.st92{fill:#DDEEDC;}
	.st93{fill:#BCDFB6;}
	.st94{fill:#9DD196;}
	.st95{fill:#81C674;}
	.st96{fill:#69BE55;}
	.st97{fill:#49B749;}
	.st98{fill:#ED2D88;}
	.st99{fill:#FFF200;}
</style>
<g id="Layer_1">
</g>
<g id="Layer_2">
</g>
<g id="Layer_3">
</g>
<g id="Layer_4">
</g>
<g id="Layer_5">
</g>
<g id="Layer_6">
	<g>
		<g>
			<path class="st25" d="M117.19,100.25L117.19,100.25c-7.61-0.67-15.27,0.45-22.37,3.26l-0.79,0.29l-0.29,0.15
				c-7.78,3.3-14.55,8.6-19.62,15.35h-0.07c-5.13,6.88-8.33,15-9.27,23.53c-0.63,5.45-0.31,10.95,0.94,16.29l0.15,0.44l0,0
				c0,0.15,0.07,0.22,0.07,0.36l0,0c0.07,0.15,0.07,0.29,0.15,0.36v0.22c0.05,0.09,0.07,0.19,0.07,0.29v0.15
				c0,0.15,0.07,0.22,0.07,0.36l0.44,1.45c0.07,0.07,0.07,0.15,0.15,0.29v0.15l0.15,0.29c0,0.15,0.07,0.22,0.07,0.29v0.15
				c0,0.15,0.07,0.22,0.15,0.36v0.12l0.22,0.44l0,0c0.08,0.16,0.13,0.33,0.15,0.51l0,0l0.22,0.44l0,0
				c-25.55-4.15-42.9-28.2-38.75-53.74c2.53-15.62,12.77-28.9,27.24-35.32l2.1-0.79l0.94-0.36l1.01-0.36l0.94-0.29
				c13.02-3.85,27.07-1.87,38.52,5.43l0.58,0.29l0.51,0.36l0.51,0.36l1.3,0.94h0.07l0.36,0.22l0.51,0.44l0.29,0.22l0.29,0.22
				l0.22,0.22h0.07l0.22,0.22h0.22l0.22,0.22c0.07,0.07,0.07,0.15,0.15,0.15c0.07,0,0.22,0.15,0.29,0.29l0.22,0.15l0.22,0.22
				l0.29,0.22l0.29,0.29c0.44,0.44,0.94,0.87,1.38,1.38l0.44,0.44l0.65,0.72l0.22,0.15l0.44,0.51l0.36,0.44l0.22,0.22l0.22,0.29
				l0.72,0.87l0.22,0.29l0,0l0.22,0.22l0.79,1.01l0.22,0.29l0.22,0.29l1.16,1.81l0.22,0.29l0.15,0.29l0.15,0.15
				c0.07,0.15,0.07,0.22,0.15,0.29l0.22,0.36l0.22,0.36l0.15,0.29l0,0l0.22,0.36l0.15,0.29l0,0l0.15,0.29l0.22,0.44l0.22,0.29
				c0.11,0.25,0.23,0.49,0.36,0.72l0.15,0.29l0.36,0.72c-0.13,0.15-0.12,0.38,0.03,0.51C117.11,100.21,117.15,100.24,117.19,100.25z
				 M118.86,100.83c0.17,0.35,0.32,0.71,0.44,1.09h0.07L118.86,100.83z M55.71,75.49l-0.36,0.14c0.01,0.12-0.01,0.25-0.07,0.36v0.44
				L56,76.07c0-0.22,0.07-0.51,0.07-0.72L55.71,75.49z"/>
			<path class="st26" d="M140.57,109.81L140.57,109.81l-1.16,1.45l-0.15,0.22c-0.08,0-0.15,0.07-0.15,0.15l-0.22,0.29h-0.07
				l-0.22,0.29l-1.81,1.95l-0.29,0.29l-0.22,0.22l-1.16,1.16l-0.22,0.22l-0.29,0.29l-0.87,0.72l-0.29,0.22h-0.07l-0.22,0.22
				l-0.22,0.15l-0.22,0.22l-0.65,0.51l-0.22,0.22l-0.44,0.29l-0.15,0.15l-0.51,0.36l-0.36,0.22l-0.29,0.22l-0.72,0.51l-0.51,0.36
				l-0.36,0.22l-0.29,0.22l-0.44,0.22l-0.22,0.22l-0.36,0.22l-0.29,0.15l-0.29,0.15l-0.22,0.15l-0.29,0.15l-0.72,0.44l-0.29,0.15
				l-0.87,0.44l-0.29,0.15l-0.79,0.44l-0.65,0.29c0.74-7.63-0.38-15.34-3.26-22.44c-0.11-0.38-0.26-0.74-0.44-1.09
				c-3.3-7.76-8.6-14.5-15.35-19.55l0,0c-6.88-5.13-15.01-8.32-23.53-9.27l-1.52-0.15c-1.35-0.15-2.7-0.22-4.05-0.22H73.6
				l-3.11,0.15h-1.45c-1.67,0.22-3.33,0.51-4.93,0.87h-1.09l-0.51,0.15h-0.07l-0.44,0.15h-0.5l-0.29,0.15h-0.36l-0.44,0.15h-0.72
				l-0.29,0.15h-0.15l-0.44,0.15h-0.07l-0.36,0.15h-0.22l-0.44,0.15l-0.51,0.22l-0.44,0.15c1.32-7.39,4.37-14.37,8.91-20.35
				c15.48-20.66,44.78-24.88,65.45-9.41c20.69,15.46,24.92,44.78,9.45,65.47C140.61,109.77,140.59,109.79,140.57,109.81z
				 M55.71,75.49l-0.36,0.14c0.01,0.12-0.01,0.25-0.07,0.36v0.44L56,76.07c0-0.22,0.07-0.51,0.07-0.72L55.71,75.49z M117.04,99.96
				c0,0.11,0.06,0.22,0.15,0.29l0,0C117.1,100.18,117.04,100.07,117.04,99.96z M120.96,126.54L120.96,126.54l0.79-0.36
				L120.96,126.54z"/>
			<path class="st27" d="M158.89,154.99c-3.78,25.6-27.59,43.28-53.19,39.5c-7.68-1.14-14.95-4.16-21.17-8.8
				c-20.69-15.46-24.92-44.78-9.45-65.47c0.02-0.02,0.03-0.04,0.04-0.06h0.07l1.09-1.45l0.22-0.22l0.15-0.15l0.22-0.29l0,0
				l0.22-0.29l1.81-1.95l0.29-0.29l0.22-0.22l1.16-1.09l0.29-0.29l0.29-0.29l0.87-0.72l0.22-0.22h0.07l0.29-0.22l0.15-0.15
				l0.29-0.22l0.58-0.51l0.29-0.15l0.36-0.36l0.22-0.15l0.51-0.36l0.29-0.22l0.29-0.22l0.72-0.51l0.51-0.36l0.36-0.22l0.36-0.22
				l0.36-0.22l0.29-0.15l0.36-0.22l0.29-0.22l0.22-0.15l0.29-0.15l0.22-0.15l0.79-0.44l0.22-0.15l0.94-0.44l0.29-0.15L92.6,106
				l0.58-0.29c-0.71,7.63,0.41,15.33,3.26,22.44l0.44,1.09c3.32,7.76,8.61,14.52,15.35,19.62h0.07c6.85,5.14,14.95,8.37,23.46,9.34
				l1.52,0.15l4.13,0.15h0.79l3.04-0.22h1.52c1.66-0.16,3.3-0.43,4.93-0.79l0.44-0.15h0.58l0.51-0.15h0.65l0.44-0.15h0.44l1.09-0.36
				h0.65l0.44-0.15h0.07l0.36-0.15h0.22L158.89,154.99z M98.58,129.72L98.58,129.72l0.15,0.29L98.58,129.72z M94.02,103.8l0.79-0.29
				l0,0L94.02,103.8z"/>
			<path class="st28" d="M178.59,138.26c-15.5,20.68-44.83,24.88-65.53,9.41l0,0l-0.36-0.29l-0.51-0.44l-0.29-0.22l-0.29-0.22
				l-0.29-0.22l0,0l-0.29-0.22l-0.15-0.15l-0.22-0.22l-0.22-0.15l-0.29-0.22l-0.22-0.22l-0.15-0.22l-0.29-0.22l-0.29-0.29l-1.38-1.3
				l-0.51-0.51l-0.65-0.72c-0.08,0-0.15-0.07-0.15-0.15l-0.44-0.51l-0.36-0.36l-0.22-0.29l-0.22-0.29l-0.79-0.87l-0.22-0.29
				l-0.94-1.3l-0.22-0.29l-0.22-0.29l-1.23-1.81l-0.22-0.29l-0.15-0.29v-0.15l-0.22-0.29c-0.07-0.15-0.15-0.22-0.15-0.36l-0.22-0.29
				l-0.22-0.36l0,0l-0.15-0.29l-0.22-0.36l-0.36-0.65c-0.07-0.15-0.15-0.22-0.15-0.36c-0.15-0.2-0.27-0.42-0.36-0.65l-0.15-0.36
				c-0.13-0.24-0.26-0.48-0.36-0.72l-0.15-0.29l0,0c7.61,0.69,15.26-0.4,22.37-3.18l0.79-0.36h0.29
				c7.76-3.37,14.51-8.68,19.62-15.42l0,0c5.15-6.87,8.38-14.99,9.34-23.53c0.57-5.45,0.22-10.95-1.01-16.29
				c0-0.15-0.07-0.29-0.07-0.44l0,0c-0.07-0.07-0.07-0.22-0.15-0.36l0,0c0-0.15-0.07-0.22-0.07-0.36s-0.07-0.15-0.07-0.22v-0.72
				c-0.09-0.1-0.14-0.23-0.15-0.36l-0.44-1.45v-0.22c0-0.07-0.07-0.15-0.07-0.22s-0.07-0.22-0.07-0.29c0-0.07-0.07-0.22-0.15-0.29
				v-0.15c-0.09-0.1-0.14-0.23-0.15-0.36c0-0.07-0.07-0.07-0.07-0.15s-0.07-0.29-0.15-0.44l0,0l-0.22-0.51l0,0
				c-0.08-0.13-0.13-0.28-0.15-0.44l0,0c25.57,3.71,43.28,27.44,39.58,53.01c-1.13,7.75-4.18,15.1-8.88,21.36L178.59,138.26z
				 M96.41,128.05L96.41,128.05l0.44,1.09L96.41,128.05z"/>
		</g>
	</g>
</g>
<g id="Layer_7">
</g>
<g id="Layer_8">
</g>
<g id="Layer_9">
</g>
<g id="Layer_10">
</g>
<g id="Layer_11">
</g>
<g id="Layer_12">
</g>
<g id="Layer_13">
</g>
<g id="Layer_14">
</g>
<g id="Layer_15">
</g>
</svg>
