<?xml version="1.0" encoding="utf-8"?>
<!-- Generator: Adobe Illustrator 27.8.1, SVG Export Plug-In . SVG Version: 6.00 Build 0)  -->
<svg version="1.1" xmlns="http://www.w3.org/2000/svg" xmlns:xlink="http://www.w3.org/1999/xlink" x="0px" y="0px"
	 viewBox="0 0 350 230" style="enable-background:new 0 0 350 230;" xml:space="preserve">
<style type="text/css">
	.st0{fill:#C61A76;}
	.st1{fill:#8C449A;}
	.st2{fill:url(#SVGID_1_);}
	.st3{fill:#841618;}
	.st4{fill:#E4314A;}
	.st5{fill:#5FBB46;}
	.st6{fill:#DCA127;}
	.st7{fill:#45B0E4;}
	.st8{fill:#1A1A1A;}
	.st9{fill:url(#SVGID_00000154411472784076664030000015184606891098506637_);}
	.st10{fill:#275A9A;}
	.st11{fill:#4687C7;}
	.st12{fill:url(#SVGID_00000134960016948627810970000000904268872376615359_);}
	.st13{fill:url(#SVGID_00000140694245346791655490000007824952896119959465_);}
	.st14{fill:url(#SVGID_00000127751700562745624530000006600104419396120501_);}
	.st15{fill:url(#SVGID_00000057110949130980528180000014191021548246643371_);}
	.st16{fill:#507834;}
	.st17{fill:url(#SVGID_00000136378076030717808000000017145192379645296781_);}
	.st18{fill:#F2652E;}
	.st19{fill:#F6872E;}
	.st20{fill:url(#SVGID_00000154423947922918374640000017555725878669947796_);}
	.st21{fill:#8DC641;}
	.st22{fill:#E26926;}
	.st23{fill:#3A77B7;}
	.st24{fill:#9B9DA0;}
	.st25{fill:#EE4079;}
	.st26{fill:#7DCBF1;}
	.st27{fill:#FEE81F;}
	.st28{fill:#231F20;}
	.st29{fill-rule:evenodd;clip-rule:evenodd;fill:#FEC660;}
	.st30{fill-rule:evenodd;clip-rule:evenodd;fill:#DB1F2C;}
	.st31{fill-rule:evenodd;clip-rule:evenodd;fill:#B9479A;}
	.st32{fill-rule:evenodd;clip-rule:evenodd;fill:#3B57A7;}
	.st33{fill-rule:evenodd;clip-rule:evenodd;fill:#3EAAE0;}
	.st34{fill-rule:evenodd;clip-rule:evenodd;fill:#80C342;}
	.st35{fill:#00ADEA;}
	.st36{fill:#EB2227;}
	.st37{fill:#14AB4B;}
	.st38{fill:none;}
	.st39{fill:#FBB03B;}
	.st40{fill:#C59C6D;}
	.st41{fill:url(#SVGID_00000060753020616938554660000000834198973117992860_);}
	.st42{fill:url(#SVGID_00000066506252387780038570000005600345519840207544_);}
	.st43{fill:url(#SVGID_00000172416061810962569940000002838332246422677403_);}
	.st44{fill:#010101;}
	.st45{fill:#CFD1D2;}
	.st46{fill:#A7A9AC;}
	.st47{fill:#00AEEF;}
	.st48{fill:#F7941D;}
	.st49{fill:#EC008C;}
	.st50{fill:#39B54A;}
	.st51{fill:url(#SVGID_00000102504658495803351800000002218622048130098095_);}
	.st52{opacity:0.75;}
	.st53{fill:#005D97;}
	.st54{fill:#FFCD06;}
	.st55{fill:#8C56A3;}
	.st56{fill:#8C328B;}
	.st57{fill:#BBD867;}
	.st58{fill:#1FAFB5;}
	.st59{fill:#D44194;}
	.st60{fill:#EF5AA0;}
	.st61{fill:#F89422;}
	.st62{fill:#FFF4DC;}
	.st63{fill:#FFE7B6;}
	.st64{fill:#FFDB93;}
	.st65{fill:#FFCF6F;}
	.st66{fill:#FEC24A;}
	.st67{fill:#FBAA19;}
	.st68{fill:#FADBE4;}
	.st69{fill:#F5B6CA;}
	.st70{fill:#F093B0;}
	.st71{fill:#E96E95;}
	.st72{fill:#E6497C;}
	.st73{fill:#DA1D49;}
	.st74{fill:#F6DBE9;}
	.st75{fill:#EBB7D5;}
	.st76{fill:#E195C0;}
	.st77{fill:#D673AD;}
	.st78{fill:#CF559F;}
	.st79{fill:#CF2A91;}
	.st80{fill:#D0B6D8;}
	.st81{fill:#B793C4;}
	.st82{fill:#9970B1;}
	.st83{fill:#8356A3;}
	.st84{fill:#74489D;}
	.st85{fill:#663F98;}
	.st86{fill:#DCECF9;}
	.st87{fill:#BADAF3;}
	.st88{fill:#99C6EB;}
	.st89{fill:#7CB5E2;}
	.st90{fill:#63A1D7;}
	.st91{fill:#447BBF;}
	.st92{fill:#DDEEDC;}
	.st93{fill:#BCDFB6;}
	.st94{fill:#9DD196;}
	.st95{fill:#81C674;}
	.st96{fill:#69BE55;}
	.st97{fill:#49B749;}
	.st98{fill:#ED2D88;}
	.st99{fill:#FFF200;}
</style>
<g id="Layer_1">
</g>
<g id="Layer_2">
</g>
<g id="Layer_3">
	<g>
		<path class="st4" d="M105.49,178.97c-5,0.05-9.98-0.48-14.87-1.56c-9.27-2.05-17.76-5.88-24.92-12.1
			c-0.61-0.51-1.19-1.04-1.76-1.59c14.79,2.15,30.12-0.63,44.52-4.42l-13.59,7.22c11.18,0.07,22.72-6.09,29.31-15.08
			c-8.21,0.64-16.57,1.42-25.06,2.27l-9.35,0.99c-7.43,4.11-16.07,5.94-25.41,6.16c-1.01,0.05-2.01,0.07-3.02,0.07
			c-2.3-2.76-4.18-5.86-5.54-9.2c-2.17-5.11-2.79-10.75-1.77-16.21c1.28-6.22,4.36-11.93,8.85-16.42c2.6-2.62,5.5-4.92,8.63-6.87
			c-3.31,1.03-6.53,2.33-9.63,3.89c-5.59,3.05-10.55,6.94-14.3,12.1c-4.67,6.3-6.72,13.31-5.8,21.17c0.63,5.1,2.55,9.95,5.59,14.09
			c4.39,6.23,10.19,10.69,16.85,14.09c4.39,2.22,9.06,3.86,13.87,4.88c3.19,0.56,6.3,1.13,9.49,1.42c2.45,0.2,4.91,0.23,7.36,0.07
			c1.58,0.05,3.17-0.05,4.74-0.28c3.68-0.64,7.43-1.34,11.11-2.27c3.89-1.03,7.63-2.58,11.11-4.6h-0.64
			C116.13,178.21,110.83,178.94,105.49,178.97z"/>
		<path class="st8" d="M147.96,117.38c-2.95-6.04-8.55-10.36-15.15-11.68l0.64-0.92c6.58-7.93,13.02-15.85,19.68-23.71
			c10.69-12.53,21.66-24.7,33.63-36.03c4.11-3.97,8.42-7.72,12.67-11.61c0.21-0.21,0.42-0.56,0.78-0.64
			c0.44-0.12,0.91-0.09,1.34,0.07c0.29,0.36,0.42,0.82,0.36,1.28c-0.27,0.73-0.6,1.44-0.99,2.12c-6.02,11.89-12.7,23.42-20.03,34.55
			c-9.7,14.93-19.82,29.66-30.65,43.89l-1.91,2.9L147.96,117.38z M131.61,132.46c-2.22-3.33-5.52-5.81-9.35-7.01
			c0.07-0.21,0.07-0.42,0.14-0.56c1.75-4.97,4.08-9.73,6.94-14.16c0.25-0.49,0.82-0.73,1.34-0.56c6.58,0.99,11.11,4.53,13.59,10.69
			c0.09,0.33,0.06,0.68-0.07,0.99c-3.67,4-7.8,7.54-12.32,10.55L131.61,132.46z M124.32,131.68c-4.25-3.05-9.91-2.62-14.3,1.28
			c-1.61,1.37-2.97,3-4.03,4.81c-3.65,7.09-9.28,12.97-16.21,16.92l9.35-1.06c8.49-0.85,16.85-1.63,25.06-2.27
			c1.29-1.76,2.38-3.66,3.25-5.66C129.77,140.32,128.49,134.58,124.32,131.68z M140.53,186.97c-4.99,2.84-10.32,5.05-15.86,6.58
			c-5.17,1.34-10.55,2.33-15.85,3.25c-2.23,0.29-4.48,0.41-6.72,0.36c-3.49,0.19-6.99,0.17-10.48-0.07
			c-4.56-0.47-9.1-1.17-13.59-2.12c-6.87-1.39-13.52-3.73-19.75-6.94c-9.55-4.81-17.84-11.18-24.06-20.03
			c-4.25-6.09-7.15-12.74-8-20.17c-1.28-11.18,1.63-21.17,8.28-30.16c5.38-7.43,12.39-12.96,20.46-17.27
			c4.4-2.28,8.99-4.16,13.73-5.59c-4.48,2.75-8.62,6.03-12.32,9.77c-6.44,6.66-10.9,14.44-12.67,23.5
			c-1.56,7.93-0.5,15.65,2.47,23.08c3.1,7.5,7.96,14.15,14.16,19.4c10.27,8.99,22.3,14.44,35.6,17.27
			c6.94,1.56,14.05,2.32,21.17,2.27c7.63-0.01,15.23-1.06,22.58-3.11C139.82,186.89,139.97,186.97,140.53,186.97z"/>
	</g>
</g>
<g id="Layer_4">
</g>
<g id="Layer_5">
</g>
<g id="Layer_6">
</g>
<g id="Layer_7">
</g>
<g id="Layer_8">
</g>
<g id="Layer_9">
</g>
<g id="Layer_10">
</g>
<g id="Layer_11">
</g>
<g id="Layer_12">
</g>
<g id="Layer_13">
</g>
<g id="Layer_14">
</g>
<g id="Layer_15">
</g>
</svg>
