<?xml version="1.0" encoding="utf-8"?>
<!-- Generator: Adobe Illustrator 27.8.1, SVG Export Plug-In . SVG Version: 6.00 Build 0)  -->
<svg version="1.1" xmlns="http://www.w3.org/2000/svg" xmlns:xlink="http://www.w3.org/1999/xlink" x="0px" y="0px"
	 viewBox="0 0 350 230" style="enable-background:new 0 0 350 230;" xml:space="preserve">
<style type="text/css">
	.st0{fill:#C61A76;}
	.st1{fill:#8C449A;}
	.st2{fill:url(#SVGID_1_);}
	.st3{fill:#841618;}
	.st4{fill:#E4314A;}
	.st5{fill:#5FBB46;}
	.st6{fill:#DCA127;}
	.st7{fill:#45B0E4;}
	.st8{fill:#1A1A1A;}
	.st9{fill:url(#SVGID_00000043422609788208407820000009069598625657585568_);}
	.st10{fill:#275A9A;}
	.st11{fill:#4687C7;}
	.st12{fill:url(#SVGID_00000168802992339446938000000008671186677530268064_);}
	.st13{fill:url(#SVGID_00000014630745196743857940000000926185266973901474_);}
	.st14{fill:url(#SVGID_00000073705701102731418030000009286175298191339434_);}
	.st15{fill:url(#SVGID_00000141418811424695115860000006671662608098168704_);}
	.st16{fill:#507834;}
	.st17{fill:url(#SVGID_00000025436720700442284610000011169333175213624248_);}
	.st18{fill:#F2652E;}
	.st19{fill:#F6872E;}
	.st20{fill:url(#SVGID_00000177446011421786506280000015003865606480329372_);}
	.st21{fill:#8DC641;}
	.st22{fill:#E26926;}
	.st23{fill:#3A77B7;}
	.st24{fill:#9B9DA0;}
	.st25{fill:#EE4079;}
	.st26{fill:#7DCBF1;}
	.st27{fill:#FEE81F;}
	.st28{fill:#231F20;}
	.st29{fill-rule:evenodd;clip-rule:evenodd;fill:#FEC660;}
	.st30{fill-rule:evenodd;clip-rule:evenodd;fill:#DB1F2C;}
	.st31{fill-rule:evenodd;clip-rule:evenodd;fill:#B9479A;}
	.st32{fill-rule:evenodd;clip-rule:evenodd;fill:#3B57A7;}
	.st33{fill-rule:evenodd;clip-rule:evenodd;fill:#3EAAE0;}
	.st34{fill-rule:evenodd;clip-rule:evenodd;fill:#80C342;}
	.st35{fill:#00ADEA;}
	.st36{fill:#EB2227;}
	.st37{fill:#14AB4B;}
	.st38{fill:none;}
	.st39{fill:#FBB03B;}
	.st40{fill:#C59C6D;}
	.st41{fill:url(#SVGID_00000144325995135056508580000006041142716438448826_);}
	.st42{fill:url(#SVGID_00000069374694129496397980000002390033850062048696_);}
	.st43{fill:url(#SVGID_00000075844915931108241700000010298838145063582338_);}
	.st44{fill:#010101;}
	.st45{fill:#CFD1D2;}
	.st46{fill:#A7A9AC;}
	.st47{fill:#00AEEF;}
	.st48{fill:#F7941D;}
	.st49{fill:#EC008C;}
	.st50{fill:#39B54A;}
	.st51{fill:url(#SVGID_00000098221618804460340900000002863584849968930483_);}
	.st52{opacity:0.75;}
	.st53{fill:#005D97;}
	.st54{fill:#FFCD06;}
	.st55{fill:#8C56A3;}
	.st56{fill:#8C328B;}
	.st57{fill:#BBD867;}
	.st58{fill:#1FAFB5;}
	.st59{fill:#D44194;}
	.st60{fill:#EF5AA0;}
	.st61{fill:#F89422;}
	.st62{fill:#FFF4DC;}
	.st63{fill:#FFE7B6;}
	.st64{fill:#FFDB93;}
	.st65{fill:#FFCF6F;}
	.st66{fill:#FEC24A;}
	.st67{fill:#FBAA19;}
	.st68{fill:#FADBE4;}
	.st69{fill:#F5B6CA;}
	.st70{fill:#F093B0;}
	.st71{fill:#E96E95;}
	.st72{fill:#E6497C;}
	.st73{fill:#DA1D49;}
	.st74{fill:#F6DBE9;}
	.st75{fill:#EBB7D5;}
	.st76{fill:#E195C0;}
	.st77{fill:#D673AD;}
	.st78{fill:#CF559F;}
	.st79{fill:#CF2A91;}
	.st80{fill:#D0B6D8;}
	.st81{fill:#B793C4;}
	.st82{fill:#9970B1;}
	.st83{fill:#8356A3;}
	.st84{fill:#74489D;}
	.st85{fill:#663F98;}
	.st86{fill:#DCECF9;}
	.st87{fill:#BADAF3;}
	.st88{fill:#99C6EB;}
	.st89{fill:#7CB5E2;}
	.st90{fill:#63A1D7;}
	.st91{fill:#447BBF;}
	.st92{fill:#DDEEDC;}
	.st93{fill:#BCDFB6;}
	.st94{fill:#9DD196;}
	.st95{fill:#81C674;}
	.st96{fill:#69BE55;}
	.st97{fill:#49B749;}
	.st98{fill:#ED2D88;}
	.st99{fill:#FFF200;}
</style>
<g id="Layer_1">
</g>
<g id="Layer_2">
</g>
<g id="Layer_3">
</g>
<g id="Layer_4">
</g>
<g id="Layer_5">
</g>
<g id="Layer_6">
</g>
<g id="Layer_7">
</g>
<g id="Layer_8">
</g>
<g id="Layer_9">
</g>
<g id="Layer_10">
</g>
<g id="Layer_11">
</g>
<g id="Layer_12">
	<g>
		<path class="st60" d="M261.02,157.67c30.67,12.05,3.65,13.3-22.52,15.71c-51.19,5.73-27.51,24.52,36.99,42.22
			c-53.94-5.9-138.7-42.72-63.24-51.69c81.36-9.22-33.65-13.3-35.82-13.79l0,0C200.02,150.11,231.19,145.95,261.02,157.67z"/>
		<path class="st61" d="M333.49,138.81c0,0-0.83-21.94-7.06-31.5l-0.25,0.17h-0.17l-0.33,0.17h-0.08l-0.42,0.17h-0.17l-0.33,0.17
			l-0.25,0.17l-0.58,0.25l-0.25,0.17l-0.42,0.25h-0.33l-0.5,0.33l-0.33,0.17l-0.58,0.25l-0.33,0.17l-0.5,0.25l-0.33,0.17l-0.75,0.33
			l-0.25,0.17l-3.65,1.58c-1.33,0.5-0.25-1.42,1.42-3.82l2.08-3.32h0.08l0.17-0.33l0.17-0.25l0.17-0.25l0.17-0.25l0.17-0.33
			l0.17-0.25v-0.25l0.17-0.25v-0.25l0.17-0.25v-0.17c0-0.08,0.08-0.17,0.08-0.25c0.06-0.07,0.09-0.15,0.08-0.25v-0.17
			c0.05-0.04,0.08-0.11,0.08-0.17v-0.66l0,0v-0.25c-0.33-2.66-20.86-33.49-27.09-26.43l-0.83,1l-0.33,0.25
			c-0.2,0.24-0.42,0.46-0.66,0.66c-0.08,0.08-0.17,0.25-0.33,0.33l-0.66,0.58l-0.25,0.25l-1.99,1.58L288.34,79l-0.66,0.5l-0.33,0.25
			l-0.75,0.42l-0.25,0.25l-1,0.58l0,0c-3.83,2.25-7.98,3.89-12.3,4.9c2.99-2.65,5.56-5.73,7.65-9.14l0,0
			c1.77-2.86,3.25-5.89,4.41-9.06l0,0l0.25-0.66l0,0v-0.19h0.08c-1.15-3.66-62.4-18.95-52.5-52.52c0,0-55.1,32.66-33.24,79.62
			c11.05,23.85,41.14,15.29,41.14,15.29l-13.3,16.12c0,0,31.83,18.28,47.62,14.71c15.79-3.58,20.69-6.48,20.86-6.56l-11.72,14.79
			c0,0,23.69,4.57,27.75,16.87c5.82-18.62,1.33-30.17-13.46-41.72c-17.29-13.55-37.73-21.85-56.09-34.24
			c-12.3-8.31-27.09-21.02-19.12-37.06c-2.08,16.79,10.14,25.35,22.52,32.82c23.93,15.04,69.22,31.66,76.04,61.92
			c3.41,15.21-8.72,33.49-21.02,47.37c-1.96,2.22-5.24,2.68-7.73,1.08l-2.99-1.99c-0.8,3-1.85,5.91-3.16,8.72
			c0.97,0.54,1.51,1.64,1.33,2.75c-0.21,1-0.99,1.79-1.99,1.99c-0.54,0.07-1.08,0.01-1.58-0.17c-1.69,3.12-3.64,6.09-5.82,8.89
			l-0.25,0.17C278.72,215.68,336.15,182.6,333.49,138.81z"/>
	</g>
</g>
<g id="Layer_13">
</g>
<g id="Layer_14">
</g>
<g id="Layer_15">
</g>
</svg>
