<?xml version="1.0" encoding="utf-8"?>
<!-- Generator: Adobe Illustrator 27.8.1, SVG Export Plug-In . SVG Version: 6.00 Build 0)  -->
<svg version="1.1" xmlns="http://www.w3.org/2000/svg" xmlns:xlink="http://www.w3.org/1999/xlink" x="0px" y="0px"
	 viewBox="0 0 350 230" style="enable-background:new 0 0 350 230;" xml:space="preserve">
<style type="text/css">
	.st0{fill:#C61A76;}
	.st1{fill:#8C449A;}
	.st2{fill:url(#SVGID_1_);}
	.st3{fill:#841618;}
	.st4{fill:#E4314A;}
	.st5{fill:#5FBB46;}
	.st6{fill:#DCA127;}
	.st7{fill:#45B0E4;}
	.st8{fill:#1A1A1A;}
	.st9{fill:url(#SVGID_00000160151857741385389530000004099012116789311374_);}
	.st10{fill:#275A9A;}
	.st11{fill:#4687C7;}
	.st12{fill:url(#SVGID_00000042724016667485032860000017970945885988475575_);}
	.st13{fill:url(#SVGID_00000151539746864784512270000003851032839609944988_);}
	.st14{fill:url(#SVGID_00000147204257839805239500000011846841850653647033_);}
	.st15{fill:url(#SVGID_00000150071403474192481380000010879147757577067694_);}
	.st16{fill:#507834;}
	.st17{fill:url(#SVGID_00000061442319509572773230000001505778490324996495_);}
	.st18{fill:#F2652E;}
	.st19{fill:#F6872E;}
	.st20{fill:url(#SVGID_00000023239384068089537180000010062115500194930109_);}
	.st21{fill:#8DC641;}
	.st22{fill:#E26926;}
	.st23{fill:#3A77B7;}
	.st24{fill:#9B9DA0;}
	.st25{fill:#EE4079;}
	.st26{fill:#7DCBF1;}
	.st27{fill:#FEE81F;}
	.st28{fill:#231F20;}
	.st29{fill-rule:evenodd;clip-rule:evenodd;fill:#FEC660;}
	.st30{fill-rule:evenodd;clip-rule:evenodd;fill:#DB1F2C;}
	.st31{fill-rule:evenodd;clip-rule:evenodd;fill:#B9479A;}
	.st32{fill-rule:evenodd;clip-rule:evenodd;fill:#3B57A7;}
	.st33{fill-rule:evenodd;clip-rule:evenodd;fill:#3EAAE0;}
	.st34{fill-rule:evenodd;clip-rule:evenodd;fill:#80C342;}
	.st35{fill:#00ADEA;}
	.st36{fill:#EB2227;}
	.st37{fill:#14AB4B;}
	.st38{fill:none;}
	.st39{fill:#FBB03B;}
	.st40{fill:#C59C6D;}
	.st41{fill:url(#SVGID_00000153704248658380427210000015415450683119085968_);}
	.st42{fill:url(#SVGID_00000140699193504859281120000015598831712250847641_);}
	.st43{fill:url(#SVGID_00000049921993674252550860000015727702257657908640_);}
	.st44{fill:#010101;}
	.st45{fill:#CFD1D2;}
	.st46{fill:#A7A9AC;}
	.st47{fill:#00AEEF;}
	.st48{fill:#F7941D;}
	.st49{fill:#EC008C;}
	.st50{fill:#39B54A;}
	.st51{fill:url(#SVGID_00000125573516259784420500000006956793513465904005_);}
	.st52{opacity:0.75;}
	.st53{fill:#005D97;}
	.st54{fill:#FFCD06;}
	.st55{fill:#8C56A3;}
	.st56{fill:#8C328B;}
	.st57{fill:#BBD867;}
	.st58{fill:#1FAFB5;}
	.st59{fill:#D44194;}
	.st60{fill:#EF5AA0;}
	.st61{fill:#F89422;}
	.st62{fill:#FFF4DC;}
	.st63{fill:#FFE7B6;}
	.st64{fill:#FFDB93;}
	.st65{fill:#FFCF6F;}
	.st66{fill:#FEC24A;}
	.st67{fill:#FBAA19;}
	.st68{fill:#FADBE4;}
	.st69{fill:#F5B6CA;}
	.st70{fill:#F093B0;}
	.st71{fill:#E96E95;}
	.st72{fill:#E6497C;}
	.st73{fill:#DA1D49;}
	.st74{fill:#F6DBE9;}
	.st75{fill:#EBB7D5;}
	.st76{fill:#E195C0;}
	.st77{fill:#D673AD;}
	.st78{fill:#CF559F;}
	.st79{fill:#CF2A91;}
	.st80{fill:#D0B6D8;}
	.st81{fill:#B793C4;}
	.st82{fill:#9970B1;}
	.st83{fill:#8356A3;}
	.st84{fill:#74489D;}
	.st85{fill:#663F98;}
	.st86{fill:#DCECF9;}
	.st87{fill:#BADAF3;}
	.st88{fill:#99C6EB;}
	.st89{fill:#7CB5E2;}
	.st90{fill:#63A1D7;}
	.st91{fill:#447BBF;}
	.st92{fill:#DDEEDC;}
	.st93{fill:#BCDFB6;}
	.st94{fill:#9DD196;}
	.st95{fill:#81C674;}
	.st96{fill:#69BE55;}
	.st97{fill:#49B749;}
	.st98{fill:#ED2D88;}
	.st99{fill:#FFF200;}
</style>
<g id="Layer_1">
</g>
<g id="Layer_2">
</g>
<g id="Layer_3">
</g>
<g id="Layer_4">
</g>
<g id="Layer_5">
</g>
<g id="Layer_6">
</g>
<g id="Layer_7">
</g>
<g id="Layer_8">
</g>
<g id="Layer_9">
</g>
<g id="Layer_10">
</g>
<g id="Layer_11">
	<g>
		<g id="Layer_1_1_">
			<g>
				<g>
					
						<linearGradient id="SVGID_1_" gradientUnits="userSpaceOnUse" x1="97.858" y1="-43.5634" x2="97.858" y2="20.9506" gradientTransform="matrix(1 0 0 1 0 70)">
						<stop  offset="0" style="stop-color:#009EDD"/>
						<stop  offset="0.15" style="stop-color:#009ED8"/>
						<stop  offset="0.32" style="stop-color:#009FCA"/>
						<stop  offset="0.51" style="stop-color:#00A0B2"/>
						<stop  offset="0.7" style="stop-color:#00A292"/>
						<stop  offset="0.9" style="stop-color:#00A568"/>
						<stop  offset="1" style="stop-color:#00A651"/>
					</linearGradient>
					<path class="st2" d="M102.71,62.69V51.37c0.02-2.29,1.13-4.43,2.99-5.77c5.44-3.83,6.75-11.33,2.92-16.77
						c-2.38-3.38-6.34-5.31-10.47-5.1c-6.64,0.42-11.67,6.13-11.26,12.77c0.23,3.69,2.15,7.07,5.2,9.16c1.84,1.3,2.94,3.43,2.92,5.7
						v11.32c0.02,1.67-1.2,3.1-2.85,3.35c-7.74,1.04-15.11,3.97-21.44,8.54c-0.57,0.42-0.69,1.21-0.29,1.78l3.35,4.41
						c0.41,0.52,1.15,0.65,1.71,0.29c13.37-9.51,31.15-9.99,45.01-1.21c0.51,0.36,1.23,0.23,1.59-0.28
						c0.02-0.03,0.03-0.05,0.05-0.08l3.14-4.63c0.38-0.55,0.23-1.3-0.31-1.68c-0.01-0.01-0.03-0.02-0.04-0.03
						c-5.83-3.77-12.42-6.2-19.3-7.12C103.97,65.79,102.73,64.38,102.71,62.69z"/>
					<g>
						<g class="st52">
							<path class="st53" d="M102.71,62.69V51.37c0.02-2.29,1.13-4.43,2.99-5.77c5.44-3.83,6.75-11.33,2.92-16.77
								c-2.38-3.38-6.34-5.31-10.47-5.1c-6.64,0.42-11.67,6.13-11.26,12.77c0.23,3.69,2.15,7.07,5.2,9.16
								c1.84,1.3,2.94,3.43,2.92,5.7v11.32c0.02,1.67-1.2,3.1-2.85,3.35c-7.74,1.04-15.11,3.97-21.44,8.54
								c-0.57,0.42-0.69,1.21-0.29,1.78l3.35,4.41c0.41,0.52,1.15,0.65,1.71,0.29c13.37-9.51,31.15-9.99,45.01-1.21
								c0.51,0.36,1.23,0.23,1.59-0.28c0.02-0.03,0.03-0.05,0.05-0.08l3.14-4.63c0.38-0.55,0.23-1.3-0.31-1.68
								c-0.01-0.01-0.03-0.02-0.04-0.03c-5.83-3.77-12.42-6.2-19.3-7.12C103.97,65.79,102.73,64.38,102.71,62.69z"/>
						</g>
					</g>
				</g>
				<path class="st54" d="M190.45,113.9c-0.39-6.6-6.05-11.63-12.65-11.24c-3.72,0.22-7.13,2.16-9.22,5.25
					c-1.3,1.84-3.43,2.94-5.7,2.92h-38.81c-1.06-0.01-1.97-0.74-2.21-1.78c-0.49-2.16-1.26-4.24-2.28-6.2
					c-1.82-3.33-4.41-6.19-7.55-8.33c-3.9-2.59-8.49-3.98-13.17-3.99c-3.14-0.01-6.24,0.62-9.12,1.85
					c-1.43,0.59-2.78,1.34-4.06,2.21c-0.65,0.43-1.52,0.34-2.07-0.22L56.7,67.54c-1.63-1.62-2.35-3.94-1.92-6.2
					c1.15-6.5-3.18-12.72-9.69-13.88c-6.5-1.16-12.72,3.18-13.88,9.69c-1.16,6.5,3.18,12.72,9.69,13.88c1.39,0.25,2.8,0.25,4.19,0
					c2.24-0.44,4.54,0.28,6.13,1.92l27.2,27.13c0.5,0.55,0.58,1.36,0.22,1.99c-3.86,6.54-4.33,14.55-1.28,21.51
					c0.29,0.69,1.08,1.01,1.77,0.72c0.16-0.07,0.31-0.17,0.44-0.29c1.49-1.28,2.85-2.49,4.28-3.56c0.49-0.39,0.66-1.06,0.43-1.64
					c-0.59-1.52-0.88-3.14-0.85-4.77c-0.01-2.05,0.41-4.09,1.21-5.98c1.19-2.76,3.14-5.14,5.62-6.84c2.55-1.71,5.55-2.63,8.62-2.63
					c3.09,0.01,6.11,0.93,8.69,2.63c2.03,1.43,3.71,3.31,4.91,5.48c1.23,2.25,1.86,4.77,1.85,7.33c0.01,2.08-0.41,4.14-1.21,6.05
					c-2.2,5.25-7.14,8.84-12.82,9.33c-0.8,0.1-1.39,0.77-1.43,1.56v4.99c0.04,0.91,0.8,1.6,1.71,1.56l0,0
					c2.57-0.21,5.1-0.83,7.48-1.85c6.65-2.8,11.64-8.49,13.53-15.45c0.25-0.98,1.12-1.68,2.14-1.71h39.17
					c2.27,0.01,4.4,1.13,5.7,2.99c3.82,5.44,11.33,6.75,16.76,2.93C188.76,122.05,190.69,118.06,190.45,113.9L190.45,113.9z"/>
				<path class="st55" d="M97.66,102.5c-6.39,0.59-11.09,6.24-10.5,12.62c0.08,0.94,0.29,1.87,0.6,2.76c0.5,1.68,0.07,3.5-1.14,4.77
					l-34.9,34.9c-1.62,1.63-3.94,2.35-6.2,1.92c-3.87-0.72-7.85,0.53-10.61,3.35c-4.63,4.71-4.58,12.28,0.12,16.92
					c4.71,4.63,12.28,4.58,16.92-0.12c2.73-2.77,3.94-6.7,3.25-10.53c-0.39-2.24,0.33-4.52,1.92-6.13l35.89-35.82
					c1.03-1.07,2.53-1.55,3.99-1.28c1.08,0.17,2.18,0.19,3.28,0.07c6.41-1.21,10.64-7.4,9.42-13.81
					C108.63,106.37,103.5,102.28,97.66,102.5L97.66,102.5z"/>
				<path class="st56" d="M164.24,162.61c-2.8-3-6.94-4.34-10.97-3.56c-2.24,0.36-4.52-0.38-6.13-1.99l-9.9-9.9
					c-0.84-0.87-0.93-2.23-0.22-3.21c0.71-0.85,1.43-1.85,2.07-2.78c3.72-5.5,6.26-11.71,7.48-18.23c0.16-0.77-0.34-1.53-1.11-1.68
					c-0.1-0.02-0.21-0.03-0.31-0.03h-5.27c-0.68-0.01-1.28,0.46-1.43,1.14c-0.53,2.54-1.3,5.01-2.28,7.4
					c-3.1,7.21-8.19,13.38-14.67,17.81c-4.32,2.95-9.19,5.01-14.31,6.05c-0.66,0.1-1.15,0.68-1.14,1.36v5.41
					c0.03,0.79,0.69,1.4,1.48,1.37c0.05,0,0.1-0.01,0.16-0.01c3.45-0.63,6.81-1.63,10.04-2.99c3.88-1.69,7.53-3.84,10.9-6.41
					c0.96-0.71,2.28-0.62,3.14,0.22l9.97,9.97c1.63,1.59,2.35,3.89,1.92,6.13c-1.22,6.53,3.09,12.82,9.62,14.04
					c6.53,1.22,12.82-3.09,14.04-9.62C168.03,169.3,166.88,165.41,164.24,162.61L164.24,162.61z"/>
				<path class="st57" d="M151.14,73.09c-2.41,3.11-6.18,4.86-10.12,4.7c-2.28-0.07-4.46,0.96-5.84,2.78l-7.2,9.54
					c-0.53,0.72-0.66,1.66-0.36,2.49c1.81,2.33,3.3,4.89,4.41,7.62c0.93,2.15,1.65,4.4,2.14,6.69c0.08,0.59-0.33,1.12-0.92,1.2
					c-0.05,0.01-0.1,0.01-0.15,0.01h-6.27c-0.49,0.05-0.93-0.3-1-0.78c-1.82-7.42-6.64-13.74-13.32-17.45l-2.7-1.36
					c-3.43-1.41-7.11-2.14-10.83-2.14c-5.05-0.03-10,1.36-14.31,3.99c-0.51,0.25-1.13,0.17-1.56-0.22l-3.99-3.99
					c-0.5-0.56-0.45-1.41,0.11-1.91c0.03-0.03,0.07-0.06,0.1-0.08c1.8-1.2,3.7-2.23,5.7-3.06c4.41-1.88,9.16-2.85,13.96-2.85h1.85
					c5.62,0.29,11.09,1.92,15.96,4.77h0.07c0.04,0,0.07,0.03,0.07,0.07l0,0l2.14,1.28l0.43,0.36c1.11,0.66,2.55,0.39,3.35-0.64
					l6.2-8.26c1.43-1.76,1.86-4.12,1.14-6.27c-2.13-6.3,1.25-13.13,7.55-15.26c6.3-2.13,13.13,1.25,15.26,7.55
					C154.29,65.7,153.59,69.9,151.14,73.09L151.14,73.09z M73.45,103.36c0.29-0.71,0.57-1.36,0.93-2.07
					c0.3-0.57,0.18-1.27-0.29-1.71l-3.77-3.77c-0.61-0.56-1.55-0.53-2.11,0.07c-0.06,0.07-0.12,0.14-0.16,0.22
					c-5.63,9.78-6.39,21.63-2.07,32.05c0.84,1.96,1.84,3.84,2.99,5.62c0.52,0.74,1.54,0.91,2.28,0.39c0.07-0.05,0.14-0.11,0.21-0.18
					l3.49-3.49c0.53-0.5,0.65-1.29,0.29-1.92C70.63,120.93,69.97,111.56,73.45,103.36z"/>
				<path class="st58" d="M124.65,125c-2.09,4.97-5.57,9.23-10.04,12.25c-4.61,3.1-10.04,4.76-15.6,4.77
					c-3.72,0.01-7.4-0.75-10.83-2.21l-1.78-0.85c-0.6-0.27-1.3-0.16-1.78,0.29l-3.63,3.7c-0.61,0.62-0.59,1.61,0.03,2.22
					c0.08,0.08,0.17,0.14,0.26,0.21c3.77,2.14,7.89,3.6,12.18,4.28c1.3,0.21,2.26,1.32,2.28,2.63v26.42
					c-0.01,2.27-1.13,4.4-2.99,5.7c-5.44,3.83-6.75,11.33-2.92,16.77c2.38,3.38,6.34,5.31,10.47,5.1
					c6.17-0.43,11.01-5.44,11.25-11.61c0.16-4.09-1.81-7.96-5.2-10.25c-1.86-1.31-2.97-3.43-2.99-5.7v-26.64
					c0.05-1.3,1-2.4,2.28-2.63c2.53-0.43,4.99-1.17,7.33-2.21c6.42-2.69,11.91-7.2,15.81-12.96c2.31-3.46,4.02-7.29,5.06-11.32
					c0.16-0.77-0.34-1.53-1.11-1.68c-0.08-0.02-0.16-0.03-0.24-0.03H127c-0.59,0.01-1.13,0.38-1.36,0.93
					C125.39,123.13,125.05,124.09,124.65,125z"/>
				<path class="st59" d="M65.32,136.68l0.43,0.57c0.57,0.81,0.48,1.92-0.22,2.63l-2.78,2.85c-0.81,0.8-2.12,0.78-2.92-0.03
					c-0.08-0.08-0.15-0.16-0.22-0.25c-4.59-6.28-7.58-13.59-8.69-21.29c-0.18-1.13-1.13-1.97-2.28-1.99h-13.1
					c-2.28-0.03-4.43,1.09-5.7,2.99c-3.7,5.47-11.13,6.92-16.61,3.22c-3.11-2.1-5.05-5.53-5.25-9.27
					c-0.38-6.63,4.68-12.33,11.31-12.72c4.16-0.24,8.15,1.69,10.55,5.1c1.27,1.9,3.42,3.02,5.7,2.99h12.82
					c1.17,0,2.13-0.9,2.21-2.07c0.14-0.85,0.22-1.78,0.36-2.63c0.12-1.09,1.11-1.88,2.2-1.77c0.1,0.01,0.2,0.03,0.29,0.05l3.77,0.71
					c1.09,0.18,1.82,1.2,1.65,2.29c-0.01,0.02-0.01,0.04-0.01,0.07c-0.25,1.96-0.39,3.94-0.43,5.91
					C58.45,122.1,60.85,129.98,65.32,136.68z M93.02,155.13c0.01-0.62-0.46-1.14-1.07-1.21c-3.03-0.54-6-1.43-8.83-2.63
					c-2.08-0.87-4.08-1.92-5.98-3.13c-0.51-0.3-1.15-0.21-1.56,0.22l-3.99,3.99c-0.5,0.44-0.55,1.21-0.1,1.71
					c0.07,0.08,0.16,0.16,0.25,0.22l0,0c5.95,4,12.71,6.62,19.8,7.69c0.65,0.16,1.3-0.24,1.46-0.89c0.03-0.1,0.04-0.22,0.03-0.32
					V155.13z"/>
			</g>
		</g>
	</g>
</g>
<g id="Layer_12">
</g>
<g id="Layer_13">
</g>
<g id="Layer_14">
</g>
<g id="Layer_15">
</g>
</svg>
