<?xml version="1.0" encoding="utf-8"?>
<!-- Generator: Adobe Illustrator 27.8.1, SVG Export Plug-In . SVG Version: 6.00 Build 0)  -->
<svg version="1.1" xmlns="http://www.w3.org/2000/svg" xmlns:xlink="http://www.w3.org/1999/xlink" x="0px" y="0px"
	 viewBox="0 0 350 230" style="enable-background:new 0 0 350 230;" xml:space="preserve">
<style type="text/css">
	.st0{fill:#C61A76;}
	.st1{fill:#8C449A;}
	.st2{fill:url(#SVGID_1_);}
	.st3{fill:#841618;}
	.st4{fill:#E4314A;}
	.st5{fill:#5FBB46;}
	.st6{fill:#DCA127;}
	.st7{fill:#45B0E4;}
	.st8{fill:#1A1A1A;}
	.st9{fill:url(#SVGID_00000171684908554566254810000006049255107193187000_);}
	.st10{fill:#275A9A;}
	.st11{fill:#4687C7;}
	.st12{fill:url(#SVGID_00000088118589130326973110000000130722614145615776_);}
	.st13{fill:url(#SVGID_00000016058592319328329940000006346480152674660541_);}
	.st14{fill:url(#SVGID_00000040545935457123643150000018351639984961555629_);}
	.st15{fill:url(#SVGID_00000011721308375543280300000018030160795686960033_);}
	.st16{fill:#507834;}
	.st17{fill:url(#SVGID_00000170974757842456565950000011407526897195872394_);}
	.st18{fill:#F2652E;}
	.st19{fill:#F6872E;}
	.st20{fill:url(#SVGID_00000041984288381829679020000005040991986955573940_);}
	.st21{fill:#8DC641;}
	.st22{fill:#E26926;}
	.st23{fill:#3A77B7;}
	.st24{fill:#9B9DA0;}
	.st25{fill:#EE4079;}
	.st26{fill:#7DCBF1;}
	.st27{fill:#FEE81F;}
	.st28{fill:#231F20;}
	.st29{fill-rule:evenodd;clip-rule:evenodd;fill:#FEC660;}
	.st30{fill-rule:evenodd;clip-rule:evenodd;fill:#DB1F2C;}
	.st31{fill-rule:evenodd;clip-rule:evenodd;fill:#B9479A;}
	.st32{fill-rule:evenodd;clip-rule:evenodd;fill:#3B57A7;}
	.st33{fill-rule:evenodd;clip-rule:evenodd;fill:#3EAAE0;}
	.st34{fill-rule:evenodd;clip-rule:evenodd;fill:#80C342;}
	.st35{fill:#00ADEA;}
	.st36{fill:#EB2227;}
	.st37{fill:#14AB4B;}
	.st38{fill:none;}
	.st39{fill:#FBB03B;}
	.st40{fill:#C59C6D;}
	.st41{fill:url(#SVGID_00000049222222225246328620000012576228627601618592_);}
	.st42{fill:url(#SVGID_00000072252054083260204810000005583288855646400188_);}
	.st43{fill:url(#SVGID_00000107580432186650865680000017627975762766267550_);}
	.st44{fill:#010101;}
	.st45{fill:#CFD1D2;}
	.st46{fill:#A7A9AC;}
	.st47{fill:#00AEEF;}
	.st48{fill:#F7941D;}
	.st49{fill:#EC008C;}
	.st50{fill:#39B54A;}
	.st51{fill:url(#SVGID_00000110436709983956038400000013064068421537054338_);}
	.st52{opacity:0.75;}
	.st53{fill:#005D97;}
	.st54{fill:#FFCD06;}
	.st55{fill:#8C56A3;}
	.st56{fill:#8C328B;}
	.st57{fill:#BBD867;}
	.st58{fill:#1FAFB5;}
	.st59{fill:#D44194;}
	.st60{fill:#EF5AA0;}
	.st61{fill:#F89422;}
	.st62{fill:#FFF4DC;}
	.st63{fill:#FFE7B6;}
	.st64{fill:#FFDB93;}
	.st65{fill:#FFCF6F;}
	.st66{fill:#FEC24A;}
	.st67{fill:#FBAA19;}
	.st68{fill:#FADBE4;}
	.st69{fill:#F5B6CA;}
	.st70{fill:#F093B0;}
	.st71{fill:#E96E95;}
	.st72{fill:#E6497C;}
	.st73{fill:#DA1D49;}
	.st74{fill:#F6DBE9;}
	.st75{fill:#EBB7D5;}
	.st76{fill:#E195C0;}
	.st77{fill:#D673AD;}
	.st78{fill:#CF559F;}
	.st79{fill:#CF2A91;}
	.st80{fill:#D0B6D8;}
	.st81{fill:#B793C4;}
	.st82{fill:#9970B1;}
	.st83{fill:#8356A3;}
	.st84{fill:#74489D;}
	.st85{fill:#663F98;}
	.st86{fill:#DCECF9;}
	.st87{fill:#BADAF3;}
	.st88{fill:#99C6EB;}
	.st89{fill:#7CB5E2;}
	.st90{fill:#63A1D7;}
	.st91{fill:#447BBF;}
	.st92{fill:#DDEEDC;}
	.st93{fill:#BCDFB6;}
	.st94{fill:#9DD196;}
	.st95{fill:#81C674;}
	.st96{fill:#69BE55;}
	.st97{fill:#49B749;}
	.st98{fill:#ED2D88;}
	.st99{fill:#FFF200;}
</style>
<g id="Layer_1">
</g>
<g id="Layer_2">
</g>
<g id="Layer_3">
</g>
<g id="Layer_4">
</g>
<g id="Layer_5">
</g>
<g id="Layer_6">
</g>
<g id="Layer_7">
</g>
<g id="Layer_8">
</g>
<g id="Layer_9">
</g>
<g id="Layer_10">
	<g>
		<path class="st45" d="M165.35,108.36c0.12-4.11,1.49-8.52-0.68-12.13c-2.18-3.61-5.97-4.54-9.83-4.67
			c-3.86-0.12-7.65,1-11.38,2.05c-8.83,2.61-17.85,5.1-27.12,4.79c-6.97-0.19-14.43-2.43-19.53-6.84s-7.53-10.76-9.02-16.3
			c-3.73-13.25-0.12-27.37,8.09-38.69s22.27-19.47,37.57-23.33c16.8-4.17,34.34-6.59,51.82-5.47c26.25,1.68,53.19,11.82,67.37,32.47
			c14.99,21.9,15.43,51.76-2.8,72.35c-9.64,10.89-24.32,17.48-39.31,20.4c-9.95,1.87-20.71,1.49-29.67-2.8
			c-2.08-0.95-4.04-2.14-5.85-3.55C169.08,121.98,165.16,115.32,165.35,108.36z M184.76,94.48c-7.09,4.35-9.08,12.32-5.29,17.11
			c3.79,4.79,13.31,5.72,20.34,1.37c7.03-4.35,9.52-10.82,5.16-17.17C201.49,90.75,191.79,90.13,184.76,94.48L184.76,94.48z"/>
		<path class="st46" d="M199.37,130.63c-6.41,0-12.19-1.18-17.11-3.48c-1.83-0.9-3.56-1.98-5.16-3.23
			c-5.35-4.17-8.52-10.02-8.34-15.49c0.02-1,0.11-2,0.25-2.99c0.37-3.42,0.81-7.34-1.49-11.01c-2.3-3.67-7.15-6.16-12.63-6.28h-0.56
			c-4.17,0-8.02,1.12-11.82,2.24c-8.77,2.55-16.67,4.67-24.7,4.67h-1.37c-6.78-0.19-13.31-2.49-17.42-6.03
			c-4.11-3.55-6.9-10.82-8.02-14.62c-3.23-11.57-0.44-24.63,7.65-35.71s19.72-18.04,35.58-22.08s29.24-5.6,42.3-5.6
			c2.86,0,5.72,0.06,8.46,0.25c13.31,0.87,26.13,3.92,37.01,8.83c12.07,5.41,21.4,12.88,27.74,22.15
			c14.87,21.65,13.81,49.7-2.49,68.18c-8.34,9.39-21.59,16.24-37.39,19.28C206.42,130.33,202.9,130.65,199.37,130.63z M195.02,88.14
			c-4.26,0.02-8.43,1.2-12.07,3.42c-4.6,2.86-7.71,7.22-8.58,11.88c-0.72,3.6,0.14,7.34,2.36,10.26c2.67,3.42,7.59,5.47,13.06,5.47
			l0,0c4.17-0.01,8.25-1.15,11.82-3.3c4.79-2.99,7.78-6.78,8.71-11.07c0.93-4.29-0.12-7.46-2.55-10.95
			C205.35,90.38,200.62,88.14,195.02,88.14z"/>
		<path class="st47" d="M189.92,65.56c-0.2-0.66-0.59-1.24-1.12-1.68c-1.31-1.24-3.3-1.93-4.85-2.36c-3.23-0.87-6.47-1.37-9.58-2.61
			c-3.16-1.29-6.11-3.03-8.77-5.16c-2.05-1.68-3.98-3.67-6.53-4.48c-2.55-0.81-6.35-0.12-9.02,1.49c-4.17,2.55-8.9,7.22-9.83,12.01
			c-0.93,4.79,1.49,8.09,4.85,10.58l0.93,0.62c1.59,1.05,2.55,2.82,2.55,4.73v7.34c0.02,0.77-0.19,1.54-0.62,2.18
			c-0.44,0.81-0.87,1.56-0.68,2.49c0.06,0.53,0.39,1.01,0.87,1.24c0.9,0.57,2.09,0.3,2.66-0.6c0.01-0.01,0.01-0.01,0.01-0.02
			c0.5-0.87,0.19-1.93-0.31-2.74c-0.45-0.73-0.71-1.57-0.75-2.43v-6.78c0-1.24,1-2.24,2.23-2.25c0.26,0,0.51,0.04,0.75,0.13
			l0.56,0.19c1.43,0.53,2.39,1.89,2.43,3.42v30.73c-0.01,1.08-0.31,2.13-0.87,3.05c-0.56,1.06-1.12,2.05-0.93,3.3
			c0.11,0.76,0.57,1.42,1.24,1.8c1.28,0.7,2.87,0.26,3.61-1c0.68-1.18,0.25-2.61-0.37-3.73c-0.67-0.95-1.06-2.07-1.12-3.23V83.35
			c0.01-2.03,1.65-3.66,3.68-3.66c0.21,0,0.41,0.02,0.62,0.06c2.52,0.51,5.09,0.68,7.65,0.5c4.6-0.19,9.06-1.54,13-3.92
			C185.25,74.39,191.29,69.6,189.92,65.56z"/>
		<path class="st48" d="M142.83,42.79c-0.01-2.59-0.96-5.09-2.67-7.03c-5.1-5.97-15.68-6.41-22.64-4.23
			c-4.29,1.31-8.21,4.48-9.39,8.77c-0.47,1.69-0.52,3.46-0.12,5.16c0.44,1.93,1.68,3.11,2.49,4.85c1.49,3.3-1.18,6.28-1.99,9.27
			c-0.81,2.99-0.19,4.42,0.62,6.41s2.61,4.54,4.11,6.66c3.05,4.48,1.87,11.38,1.87,16.61v53.75c0.06,2.08-0.53,4.12-1.68,5.85
			c-1,1.44-0.63,3.42,0.81,4.41c0.35,0.25,0.76,0.42,1.18,0.5c1.72,0.31,3.37-0.84,3.68-2.56c0.03-0.18,0.05-0.36,0.05-0.55
			c0.02-0.59-0.14-1.17-0.44-1.68c-1.14-1.67-1.77-3.64-1.8-5.66V80.18c-0.02-1.81,0.76-3.53,2.12-4.73
			c3.36-2.74,7.71-3.36,11.26-5.6c1.56-1.01,2.93-2.3,4.04-3.79c2.55-3.61,2.3-7.78,3.92-11.76c1.62-3.98,3.42-5.91,4.29-9.21
			C142.72,44.34,142.82,43.57,142.83,42.79z"/>
		<path class="st49" d="M222.64,44.1c-0.04-0.49-0.12-0.96-0.25-1.43c-0.81-3.86-4.17-5.91-7.65-7.15
			c-4.48-1.56-8.65-2.61-13.44-2.05c-3.36,0.44-6.78,1-10.02,0.06c-3.23-0.93-5.54-3.55-7.03-6.66s-3.73-7.28-6.35-10.14
			c-0.7-0.91-1.69-1.55-2.8-1.8c-2.12-0.37-4.11,2.18-3.67,4.17s1.37,2.49,1.68,3.86c0.87,3.73-0.56,6.03-2.99,8.71
			c-2.43,2.67-4.54,4.67-4.6,7.9c-0.06,3.23,1.31,4.67,3.17,6.28c1.93,1.56,4.3,2.45,6.78,2.55c1.26,0.07,2.53-0.07,3.73-0.44
			c1.12-0.37,2.12-1.18,3.3-1.18c3.3,0,4.29,4.23,5.79,6.41c1,1.37,2.21,2.58,3.61,3.55c2.36,1.7,3.75,4.44,3.73,7.34V93.3
			c0,1.09-0.3,2.17-0.87,3.11c-0.56,1.06-1.12,2.05-0.93,3.23c0.23,1.42,1.57,2.39,3,2.16c0.78-0.12,1.46-0.6,1.85-1.29
			c0.68-1.18,0.25-2.61-0.37-3.73c-0.67-0.95-1.06-2.07-1.12-3.23V64.69c-0.01-2.37,1.91-4.3,4.28-4.3c0.11,0,0.22,0.01,0.32,0.01
			c7.53,0.56,15.37-3.11,19.22-9.77C222.17,48.65,222.73,46.39,222.64,44.1z M200.31,109.48c-0.6-0.1-1.21,0.01-1.74,0.31l-1.12,0.5
			c-1.63,0.56-3.32,0.9-5.04,1c-1.49,0.06-3.17-0.31-4.48,0.31c-1.31,0.62-2.8,3.36-1.24,4.79s2.74,2.05,4.04,3.11l1.06,0.81
			c1.9,1.37,3.04,3.56,3.05,5.91v18.35c0,0.7-0.19,1.39-0.56,1.99c-0.5,0.63-0.73,1.44-0.62,2.24c0.07,0.48,0.34,0.91,0.75,1.18
			c0.85,0.48,1.92,0.21,2.43-0.62c0.5-0.81,0.19-1.74-0.25-2.49c-0.41-0.65-0.65-1.41-0.68-2.18v-19.04
			c-0.07-1.58,0.44-3.13,1.43-4.35l0.25-0.37c0.46-1.12,1.11-2.15,1.93-3.05c0.87-0.87,1.99-1.62,2.67-2.49
			C202.86,114.51,203.54,109.85,200.31,109.48z"/>
		<path class="st50" d="M251.63,73.21c-0.19-4.29-3.61-7.28-7.53-8.15c-3.92-0.87-7.46-0.06-10.95-0.81
			c-2.23-0.44-4.52-0.55-6.78-0.31h-0.75c-2.8,0.31-5.66,1.31-7.65,3.3c-4.11,4.17-1.74,9.27,0.25,13.75
			c2.8,6.28-2.24,14.62,4.67,19.35l0.44,0.25c1.82,1.17,2.92,3.18,2.92,5.35v30.67c0,1.09-0.3,2.17-0.87,3.11
			c-0.7,0.93-1.03,2.08-0.93,3.23c0.09,0.78,0.55,1.47,1.24,1.87c1.28,0.7,2.87,0.26,3.61-1c0.68-1.18,0.25-2.61-0.44-3.73
			c-0.68-1.12-1.43-3.05-0.87-4.67c0.33-0.67,0.62-1.36,0.87-2.05c0.09-0.89-0.04-1.79-0.37-2.61c-0.06-0.31-0.19-0.62-0.25-0.87
			c-0.03-0.27-0.03-0.54,0-0.81c-0.06-0.68-0.06-1.37,0-2.05c0.04-0.7,0.27-1.36,0.68-1.93c0.5-0.53,1.12-0.96,1.8-1.24
			c1.12-0.56,2.43-1,2.92-2.24c0.22-0.83,0.09-1.7-0.37-2.43c-0.52-0.7-0.8-1.56-0.81-2.43v-12.5c-0.01-1.71,0.69-3.35,1.93-4.54
			c1.93-1.87,2.86-4.48,3.98-6.97c1.12-2.49,4.29-5.72,6.84-8.02S251.88,77.75,251.63,73.21z M231.29,114.89
			c0.09,1.62-0.21,3.24-0.87,4.73c-0.35,0.65-0.85,1.23-1.43,1.68c-0.31,0.19-1.18,0.75-1.18,0v-17.73c0-0.85,0.65-1.56,1.49-1.62
			h0.12c0.88-0.14,1.71,0.47,1.85,1.35c0.01,0.09,0.02,0.18,0.02,0.27V114.89z"/>
	</g>
</g>
<g id="Layer_11">
</g>
<g id="Layer_12">
</g>
<g id="Layer_13">
</g>
<g id="Layer_14">
</g>
<g id="Layer_15">
</g>
</svg>
