<?xml version="1.0" encoding="utf-8"?>
<!-- Generator: Adobe Illustrator 27.8.1, SVG Export Plug-In . SVG Version: 6.00 Build 0)  -->
<svg version="1.1" xmlns="http://www.w3.org/2000/svg" xmlns:xlink="http://www.w3.org/1999/xlink" x="0px" y="0px"
	 viewBox="0 0 350 230" style="enable-background:new 0 0 350 230;" xml:space="preserve">
<style type="text/css">
	.st0{fill:#C61A76;}
	.st1{fill:#8C449A;}
	.st2{fill:url(#SVGID_1_);}
	.st3{fill:#841618;}
	.st4{fill:#E4314A;}
	.st5{fill:#5FBB46;}
	.st6{fill:#DCA127;}
	.st7{fill:#45B0E4;}
	.st8{fill:#1A1A1A;}
	.st9{fill:url(#SVGID_00000083065981898919606430000004020597493326571408_);}
	.st10{fill:#275A9A;}
	.st11{fill:#4687C7;}
	.st12{fill:url(#SVGID_00000160909591680981176010000006677898860695598489_);}
	.st13{fill:url(#SVGID_00000084504972034620256110000015023618364161331880_);}
	.st14{fill:url(#SVGID_00000083785661117003493500000002311861800305469885_);}
	.st15{fill:url(#SVGID_00000061436668726078991950000012697576359618023332_);}
	.st16{fill:#507834;}
	.st17{fill:url(#SVGID_00000077300997868487860670000005377767896647245971_);}
	.st18{fill:#F2652E;}
	.st19{fill:#F6872E;}
	.st20{fill:url(#SVGID_00000132791547849048686710000003231364463571235250_);}
	.st21{fill:#8DC641;}
	.st22{fill:#E26926;}
	.st23{fill:#3A77B7;}
	.st24{fill:#9B9DA0;}
	.st25{fill:#EE4079;}
	.st26{fill:#7DCBF1;}
	.st27{fill:#FEE81F;}
	.st28{fill:#231F20;}
	.st29{fill-rule:evenodd;clip-rule:evenodd;fill:#FEC660;}
	.st30{fill-rule:evenodd;clip-rule:evenodd;fill:#DB1F2C;}
	.st31{fill-rule:evenodd;clip-rule:evenodd;fill:#B9479A;}
	.st32{fill-rule:evenodd;clip-rule:evenodd;fill:#3B57A7;}
	.st33{fill-rule:evenodd;clip-rule:evenodd;fill:#3EAAE0;}
	.st34{fill-rule:evenodd;clip-rule:evenodd;fill:#80C342;}
	.st35{fill:#00ADEA;}
	.st36{fill:#EB2227;}
	.st37{fill:#14AB4B;}
	.st38{fill:none;}
	.st39{fill:#FBB03B;}
	.st40{fill:#C59C6D;}
	.st41{fill:url(#SVGID_00000023975643669595382050000007435425487147378347_);}
	.st42{fill:url(#SVGID_00000155842506112484586640000002054742445355812754_);}
	.st43{fill:url(#SVGID_00000101094592533322234540000001624161510960357536_);}
	.st44{fill:#010101;}
	.st45{fill:#CFD1D2;}
	.st46{fill:#A7A9AC;}
	.st47{fill:#00AEEF;}
	.st48{fill:#F7941D;}
	.st49{fill:#EC008C;}
	.st50{fill:#39B54A;}
	.st51{fill:url(#SVGID_00000087370349367563947780000017363130952884829844_);}
	.st52{opacity:0.75;}
	.st53{fill:#005D97;}
	.st54{fill:#FFCD06;}
	.st55{fill:#8C56A3;}
	.st56{fill:#8C328B;}
	.st57{fill:#BBD867;}
	.st58{fill:#1FAFB5;}
	.st59{fill:#D44194;}
	.st60{fill:#EF5AA0;}
	.st61{fill:#F89422;}
	.st62{fill:#FFF4DC;}
	.st63{fill:#FFE7B6;}
	.st64{fill:#FFDB93;}
	.st65{fill:#FFCF6F;}
	.st66{fill:#FEC24A;}
	.st67{fill:#FBAA19;}
	.st68{fill:#FADBE4;}
	.st69{fill:#F5B6CA;}
	.st70{fill:#F093B0;}
	.st71{fill:#E96E95;}
	.st72{fill:#E6497C;}
	.st73{fill:#DA1D49;}
	.st74{fill:#F6DBE9;}
	.st75{fill:#EBB7D5;}
	.st76{fill:#E195C0;}
	.st77{fill:#D673AD;}
	.st78{fill:#CF559F;}
	.st79{fill:#CF2A91;}
	.st80{fill:#D0B6D8;}
	.st81{fill:#B793C4;}
	.st82{fill:#9970B1;}
	.st83{fill:#8356A3;}
	.st84{fill:#74489D;}
	.st85{fill:#663F98;}
	.st86{fill:#DCECF9;}
	.st87{fill:#BADAF3;}
	.st88{fill:#99C6EB;}
	.st89{fill:#7CB5E2;}
	.st90{fill:#63A1D7;}
	.st91{fill:#447BBF;}
	.st92{fill:#DDEEDC;}
	.st93{fill:#BCDFB6;}
	.st94{fill:#9DD196;}
	.st95{fill:#81C674;}
	.st96{fill:#69BE55;}
	.st97{fill:#49B749;}
	.st98{fill:#ED2D88;}
	.st99{fill:#FFF200;}
</style>
<g id="Layer_1">
</g>
<g id="Layer_2">
</g>
<g id="Layer_3">
</g>
<g id="Layer_4">
</g>
<g id="Layer_5">
</g>
<g id="Layer_6">
</g>
<g id="Layer_7">
</g>
<g id="Layer_8">
</g>
<g id="Layer_9">
</g>
<g id="Layer_10">
</g>
<g id="Layer_11">
</g>
<g id="Layer_12">
</g>
<g id="Layer_13">
	<g>
		<g>
			<path class="st62" d="M169.64,129.95c-2.87-1.35-4.09-4.76-2.75-7.62s4.76-4.09,7.62-2.75c2.85,1.34,4.08,4.73,2.77,7.59
				c-1.33,2.87-4.73,4.13-7.6,2.8C169.66,129.97,169.65,129.96,169.64,129.95z"/>
			<g>
				<path class="st63" d="M172.37,115.93c-3.53-0.12-6.28-3.08-6.16-6.6c0.12-3.53,3.08-6.28,6.6-6.16c3.52,0.12,6.28,3.07,6.16,6.6
					C178.86,113.29,175.9,116.05,172.37,115.93L172.37,115.93z"/>
				<path class="st64" d="M169.1,100.37c-3.65,1.42-7.77-0.38-9.19-4.03c-1.42-3.65,0.38-7.77,4.03-9.19
					c3.65-1.42,7.77,0.38,9.19,4.03c0,0.01,0.01,0.01,0.01,0.02C174.54,94.85,172.74,98.95,169.1,100.37z"/>
				<path class="st65" d="M158.95,85.91c-3.13,3-8.11,2.89-11.11-0.24c-3-3.13-2.89-8.11,0.24-11.11c3.13-3,8.08-2.9,11.09,0.22
					c3.01,3.12,2.93,8.1-0.2,11.11C158.96,85.89,158.95,85.9,158.95,85.91z"/>
				<path class="st66" d="M142.35,75.54c-1.71,4.54-6.77,6.84-11.31,5.14c-4.54-1.71-6.84-6.77-5.14-11.31
					c0.09-0.23,0.19-0.47,0.29-0.69c2.09-4.38,7.34-6.23,11.72-4.14C142.03,66.48,143.96,71.27,142.35,75.54z"/>
				<path class="st67" d="M120.85,72.1c0,5.4-4.37,9.77-9.77,9.77c-5.4,0-9.77-4.37-9.77-9.77c0-5.4,4.37-9.77,9.77-9.77l0,0
					C116.48,62.33,120.85,66.7,120.85,72.1z"/>
			</g>
		</g>
		<g>
			<path class="st68" d="M148.52,63.53c-2.6,1.8-6.17,1.15-7.97-1.45s-1.15-6.17,1.45-7.97c2.58-1.78,6.12-1.16,7.94,1.4
				c1.83,2.58,1.22,6.16-1.37,7.99C148.55,63.51,148.54,63.52,148.52,63.53z"/>
			<path class="st69" d="M137.77,54.14c-1.87,3-5.81,3.91-8.81,2.05c-3-1.87-3.91-5.81-2.05-8.81s5.81-3.91,8.81-2.05
				S139.63,51.14,137.77,54.14L137.77,54.14z"/>
			<path class="st70" d="M122.65,49.23c-0.62,3.87-4.26,6.5-8.13,5.88c-3.87-0.62-6.5-4.26-5.88-8.13c0.62-3.86,4.25-6.5,8.12-5.88
				c3.87,0.61,6.51,4.25,5.89,8.12C122.65,49.22,122.65,49.23,122.65,49.23z"/>
			<path class="st71" d="M105.07,50.76c1.05,4.22-1.51,8.5-5.73,9.55c-4.22,1.05-8.5-1.51-9.55-5.73l0,0
				c-1.05-4.22,1.51-8.5,5.73-9.55C99.74,43.97,104.02,46.54,105.07,50.76z"/>
			<path class="st72" d="M87.77,59.93c2.94,3.86,2.19,9.38-1.66,12.31c-3.86,2.94-9.38,2.19-12.31-1.66
				c-2.94-3.86-2.19-9.38,1.66-12.31c0.01-0.01,0.02-0.02,0.03-0.03C79.36,55.33,84.84,56.08,87.77,59.93z"/>
			<path class="st73" d="M74.02,76.85c4.64,2.69,6.22,8.63,3.53,13.28s-8.63,6.22-13.28,3.53c-4.62-2.67-6.21-8.57-3.57-13.21
				C63.39,75.78,69.35,74.17,74.02,76.85z"/>
		</g>
		<g>
			<path class="st74" d="M80.46,48.58c0.28,3.15-2.04,5.93-5.19,6.22c-3.15,0.29-5.94-2.03-6.23-5.19
				c-0.29-3.15,2.03-5.94,5.19-6.23C77.38,43.1,80.17,45.42,80.46,48.58C80.46,48.57,80.46,48.58,80.46,48.58z"/>
			<path class="st75" d="M66.98,53.22c1.62,3.14,0.43,6.99-2.67,8.68c-3.13,1.63-6.99,0.42-8.62-2.71s-0.42-6.99,2.71-8.62
				C61.5,48.95,65.32,50.13,66.98,53.22z"/>
			<path class="st76" d="M55.13,63.86c3.04,2.47,3.5,6.94,1.03,9.98c-2.47,3.04-6.94,3.5-9.98,1.03c-3.03-2.47-3.5-6.93-1.04-9.97
				c2.42-3.04,6.86-3.54,9.9-1.11C55.07,63.81,55.1,63.83,55.13,63.86z"/>
			<path class="st77" d="M47.66,79.85c4.21,1.17,6.68,5.53,5.51,9.74c-1.17,4.21-5.53,6.68-9.74,5.51s-6.68-5.53-5.51-9.74
				c0.01-0.03,0.02-0.07,0.03-0.1C39.13,81.08,43.48,78.66,47.66,79.85L47.66,79.85z"/>
			<path class="st78" d="M47,99.44c4.81-0.6,9.21,2.82,9.8,7.64c0.6,4.81-2.82,9.21-7.64,9.8c-4.81,0.6-9.21-2.82-9.8-7.64
				c0-0.01-0.01-0.02-0.01-0.03C38.78,104.41,42.2,100.04,47,99.44z"/>
			<path class="st79" d="M54.75,119.8c4.66-2.73,10.64-1.17,13.37,3.49c2.73,4.66,1.17,10.64-3.49,13.37
				c-4.66,2.73-10.64,1.17-13.37-3.49c-0.02-0.03-0.04-0.07-0.06-0.11C48.52,128.42,50.11,122.49,54.75,119.8z"/>
		</g>
		<g>
			<path class="st80" d="M33.52,100.05c2.84,1.38,4.07,4.76,2.78,7.64c-1.34,2.88-4.76,4.13-7.64,2.78
				c-2.88-1.34-4.13-4.76-2.78-7.64C27.23,99.96,30.64,98.72,33.52,100.05z"/>
			<path class="st81" d="M30.79,114.07c3.53,0.15,6.25,3.13,6.1,6.66c-0.15,3.53-3.13,6.25-6.66,6.1c-3.5-0.15-6.22-3.09-6.11-6.59
				C24.31,116.72,27.27,113.98,30.79,114.07z"/>
			<path class="st82" d="M34.07,129.63c3.66-1.4,7.76,0.44,9.16,4.1s-0.44,7.76-4.1,9.16c-3.66,1.4-7.76-0.43-9.16-4.09
				c-1.4-3.66,0.43-7.76,4.08-9.16C34.06,129.63,34.06,129.63,34.07,129.63z"/>
			<path class="st83" d="M44.16,144.09c3.13-3.05,8.14-2.97,11.19,0.16c3.05,3.13,2.97,8.14-0.16,11.19
				c-3.13,3.05-8.14,2.97-11.19-0.16c-0.02-0.02-0.04-0.04-0.05-0.05c-3.01-3.12-2.93-8.1,0.2-11.11
				C44.15,144.11,44.16,144.1,44.16,144.09z"/>
			<path class="st84" d="M60.81,154.52c1.89-4.44,7.01-6.51,11.45-4.62c4.44,1.89,6.51,7.01,4.62,11.45c-1.88,4.43-7,6.5-11.43,4.63
				c-4.43-1.83-6.53-6.92-4.69-11.34C60.78,154.6,60.79,154.55,60.81,154.52z"/>
			<path class="st85" d="M82.31,157.9c0-5.4,4.37-9.77,9.77-9.77c5.4,0,9.77,4.37,9.77,9.77c0,5.4-4.37,9.77-9.77,9.77
				c-0.02,0-0.04,0-0.05,0c-5.37,0-9.72-4.35-9.72-9.72C82.31,157.94,82.31,157.92,82.31,157.9z"/>
		</g>
		<g>
			<path class="st86" d="M54.59,166.47c2.61-1.84,6.22-1.22,8.06,1.39c1.84,2.61,1.22,6.22-1.39,8.06
				c-2.61,1.84-6.22,1.22-8.06-1.39c-0.01-0.01-0.02-0.03-0.03-0.04C51.36,171.88,51.99,168.3,54.59,166.47z"/>
			<path class="st87" d="M65.4,175.86c1.87-2.99,5.81-3.9,8.8-2.04c2.99,1.87,3.9,5.81,2.04,8.8c-1.87,2.99-5.81,3.9-8.8,2.04
				c-0.01-0.01-0.01-0.01-0.02-0.01C64.43,182.77,63.53,178.84,65.4,175.86z"/>
			<path class="st88" d="M80.46,180.77c0.62-3.87,4.26-6.5,8.13-5.88c3.87,0.62,6.5,4.26,5.88,8.13c-0.62,3.86-4.25,6.5-8.12,5.88
				C82.5,188.26,79.87,184.63,80.46,180.77z"/>
			<path class="st89" d="M98.03,179.24c-1.04-4.25,1.55-8.53,5.79-9.58c4.25-1.04,8.53,1.55,9.58,5.79
				c1.04,4.23-1.53,8.51-5.76,9.57c-4.24,1.06-8.54-1.52-9.6-5.76C98.04,179.26,98.03,179.25,98.03,179.24z"/>
			<path class="st90" d="M115.39,170.07c-2.88-3.87-2.07-9.34,1.79-12.22c3.87-2.88,9.34-2.07,12.22,1.79
				c2.86,3.85,2.09,9.28-1.73,12.17C123.8,174.72,118.31,173.94,115.39,170.07z"/>
			<path class="st91" d="M129.09,153.15c-4.68-2.69-6.28-8.67-3.59-13.34c2.69-4.67,8.67-6.28,13.34-3.59s6.28,8.67,3.59,13.34
				c-0.01,0.02-0.02,0.03-0.02,0.04C139.7,154.25,133.75,155.84,129.09,153.15z"/>
		</g>
		<g>
			<path class="st92" d="M122.65,181.42c-0.26-3.15,2.09-5.92,5.25-6.18c3.15-0.26,5.92,2.09,6.18,5.25
				c0.26,3.14-2.06,5.89-5.2,6.18c-3.15,0.28-5.94-2.05-6.22-5.2C122.65,181.45,122.65,181.44,122.65,181.42z"/>
			<path class="st93" d="M136.19,176.78c-1.66-3.07-0.53-6.92,2.54-8.59c0.02-0.01,0.05-0.03,0.08-0.04c3-1.86,6.94-0.93,8.79,2.07
				s0.93,6.94-2.07,8.79c-0.23,0.14-0.47,0.27-0.71,0.38c-3.07,1.66-6.92,0.53-8.59-2.54C136.21,176.83,136.2,176.81,136.19,176.78z
				"/>
			<path class="st94" d="M147.97,166.14c-3.04-2.47-3.5-6.94-1.03-9.98c2.47-3.04,6.94-3.5,9.98-1.03c3.03,2.47,3.5,6.93,1.04,9.97
				C155.5,168.14,151.03,168.61,147.97,166.14C147.98,166.15,147.97,166.14,147.97,166.14z"/>
			<path class="st95" d="M155.45,150.15c-4.16-1.22-6.56-5.58-5.34-9.75s5.58-6.56,9.75-5.34c4.14,1.21,6.53,5.53,5.35,9.68
				c-1.18,4.18-5.52,6.6-9.7,5.43C155.5,150.16,155.47,150.16,155.45,150.15z"/>
			<path class="st96" d="M156.16,130.56c-4.79,0.56-9.13-2.86-9.69-7.65c-0.56-4.79,2.86-9.13,7.65-9.69
				c4.76-0.56,9.08,2.82,9.69,7.58c0.61,4.79-2.78,9.15-7.56,9.76C156.21,130.55,156.19,130.55,156.16,130.56z"/>
			<path class="st97" d="M148.36,110.25c-4.66,2.69-10.6,1.08-13.29-3.57c-2.69-4.66-1.08-10.6,3.57-13.29l0,0
				c4.66-2.69,10.6-1.08,13.29,3.57C154.62,101.62,153.01,107.57,148.36,110.25L148.36,110.25z"/>
		</g>
	</g>
</g>
<g id="Layer_14">
</g>
<g id="Layer_15">
</g>
</svg>
