<?xml version="1.0" encoding="utf-8"?>
<!-- Generator: Adobe Illustrator 27.8.1, SVG Export Plug-In . SVG Version: 6.00 Build 0)  -->
<svg version="1.1" xmlns="http://www.w3.org/2000/svg" xmlns:xlink="http://www.w3.org/1999/xlink" x="0px" y="0px"
	 viewBox="0 0 350 230" style="enable-background:new 0 0 350 230;" xml:space="preserve">
<style type="text/css">
	.st0{fill:#C61A76;}
	.st1{fill:#8C449A;}
	.st2{fill:url(#SVGID_1_);}
	.st3{fill:#841618;}
	.st4{fill:#E4314A;}
	.st5{fill:#5FBB46;}
	.st6{fill:#DCA127;}
	.st7{fill:#45B0E4;}
	.st8{fill:#1A1A1A;}
	.st9{fill:url(#SVGID_00000103245029115484066070000007810536825232421821_);}
	.st10{fill:#275A9A;}
	.st11{fill:#4687C7;}
	.st12{fill:url(#SVGID_00000087405585174542448270000011061896484726261399_);}
	.st13{fill:url(#SVGID_00000162341893474870712410000012488096645843626389_);}
	.st14{fill:url(#SVGID_00000146491437160397900540000012546954107224370850_);}
	.st15{fill:url(#SVGID_00000026868110025145357450000004417028405269231240_);}
	.st16{fill:#507834;}
	.st17{fill:url(#SVGID_00000089569903963677968630000006436155630006506924_);}
	.st18{fill:#F2652E;}
	.st19{fill:#F6872E;}
	.st20{fill:url(#SVGID_00000075140538638347481100000017369242628867019927_);}
	.st21{fill:#8DC641;}
	.st22{fill:#E26926;}
	.st23{fill:#3A77B7;}
	.st24{fill:#9B9DA0;}
	.st25{fill:#EE4079;}
	.st26{fill:#7DCBF1;}
	.st27{fill:#FEE81F;}
	.st28{fill:#231F20;}
	.st29{fill-rule:evenodd;clip-rule:evenodd;fill:#FEC660;}
	.st30{fill-rule:evenodd;clip-rule:evenodd;fill:#DB1F2C;}
	.st31{fill-rule:evenodd;clip-rule:evenodd;fill:#B9479A;}
	.st32{fill-rule:evenodd;clip-rule:evenodd;fill:#3B57A7;}
	.st33{fill-rule:evenodd;clip-rule:evenodd;fill:#3EAAE0;}
	.st34{fill-rule:evenodd;clip-rule:evenodd;fill:#80C342;}
	.st35{fill:#00ADEA;}
	.st36{fill:#EB2227;}
	.st37{fill:#14AB4B;}
	.st38{fill:none;}
	.st39{fill:#FBB03B;}
	.st40{fill:#C59C6D;}
	.st41{fill:url(#SVGID_00000115508344602161037490000017998541731463653292_);}
	.st42{fill:url(#SVGID_00000153681690456636524960000004888892694835649426_);}
	.st43{fill:url(#SVGID_00000120534880012250099870000001063697105921280664_);}
	.st44{fill:#010101;}
	.st45{fill:#CFD1D2;}
	.st46{fill:#A7A9AC;}
	.st47{fill:#00AEEF;}
	.st48{fill:#F7941D;}
	.st49{fill:#EC008C;}
	.st50{fill:#39B54A;}
	.st51{fill:url(#SVGID_00000015315949853468322280000011853724616113010328_);}
	.st52{opacity:0.75;}
	.st53{fill:#005D97;}
	.st54{fill:#FFCD06;}
	.st55{fill:#8C56A3;}
	.st56{fill:#8C328B;}
	.st57{fill:#BBD867;}
	.st58{fill:#1FAFB5;}
	.st59{fill:#D44194;}
	.st60{fill:#EF5AA0;}
	.st61{fill:#F89422;}
	.st62{fill:#FFF4DC;}
	.st63{fill:#FFE7B6;}
	.st64{fill:#FFDB93;}
	.st65{fill:#FFCF6F;}
	.st66{fill:#FEC24A;}
	.st67{fill:#FBAA19;}
	.st68{fill:#FADBE4;}
	.st69{fill:#F5B6CA;}
	.st70{fill:#F093B0;}
	.st71{fill:#E96E95;}
	.st72{fill:#E6497C;}
	.st73{fill:#DA1D49;}
	.st74{fill:#F6DBE9;}
	.st75{fill:#EBB7D5;}
	.st76{fill:#E195C0;}
	.st77{fill:#D673AD;}
	.st78{fill:#CF559F;}
	.st79{fill:#CF2A91;}
	.st80{fill:#D0B6D8;}
	.st81{fill:#B793C4;}
	.st82{fill:#9970B1;}
	.st83{fill:#8356A3;}
	.st84{fill:#74489D;}
	.st85{fill:#663F98;}
	.st86{fill:#DCECF9;}
	.st87{fill:#BADAF3;}
	.st88{fill:#99C6EB;}
	.st89{fill:#7CB5E2;}
	.st90{fill:#63A1D7;}
	.st91{fill:#447BBF;}
	.st92{fill:#DDEEDC;}
	.st93{fill:#BCDFB6;}
	.st94{fill:#9DD196;}
	.st95{fill:#81C674;}
	.st96{fill:#69BE55;}
	.st97{fill:#49B749;}
	.st98{fill:#ED2D88;}
	.st99{fill:#FFF200;}
</style>
<g id="Layer_1">
</g>
<g id="Layer_2">
</g>
<g id="Layer_3">
</g>
<g id="Layer_4">
</g>
<g id="Layer_5">
</g>
<g id="Layer_6">
</g>
<g id="Layer_7">
</g>
<g id="Layer_8">
</g>
<g id="Layer_9">
</g>
<g id="Layer_10">
</g>
<g id="Layer_11">
</g>
<g id="Layer_12">
</g>
<g id="Layer_13">
</g>
<g id="Layer_14">
</g>
<g id="Layer_15">
	<g>
		<g>
			<path class="st99" d="M128.55,161.86c-0.02,17.73-14.41,32.08-32.14,32.06c-17.73-0.02-32.08-14.41-32.06-32.14
				c0.01-9.66,4.38-18.81,11.89-24.89c-5.21,5.91-9.28,12.28-9.36,19.52c-0.59,8.17,5.54,15.26,13.71,15.86
				c8.17,0.59,15.26-5.54,15.86-13.71c0.04-0.61,0.05-1.22,0.02-1.82c-0.09,8.19,6.48,14.89,14.66,14.99
				c8.19,0.09,14.89-6.48,14.99-14.66l0,0c0.02-7.3-4-13.87-9.17-19.98C124.32,143.19,128.58,152.28,128.55,161.86z"/>
			<path class="st99" d="M75.95,82.89c0.42,12.14,16.64,20.47,21.62,29.89c4.42-9.74,20.13-18.98,19.83-31.12
				c-0.17-5.73-4.96-10.24-10.68-10.07c-5.73,0.17-10.24,4.96-10.07,10.68c0.21-5.73-4.27-10.54-9.99-10.75
				c-5.73-0.21-10.54,4.27-10.75,9.99C75.9,81.97,75.91,82.43,75.95,82.89z"/>
		</g>
		<g>
			<path class="st47" d="M128.85,68.29c0.06-17.73-14.26-32.15-31.99-32.21S64.72,50.34,64.66,68.07
				c-0.03,9.65,4.27,18.79,11.72,24.92c-5.17-6-9.2-12.4-9.23-19.59c0.45-8.18,7.44-14.44,15.62-13.99
				c7.47,0.41,13.47,6.33,13.98,13.8c-0.03-8.19,6.57-14.85,14.76-14.89c8.19-0.03,14.85,6.57,14.89,14.76
				c-0.02,7.36-4.09,13.84-9.3,19.93C124.51,86.95,128.83,77.88,128.85,68.29z"/>
			<path class="st47" d="M75.74,146.98c0.49-12.09,16.77-20.3,21.82-29.75c4.36,9.76,20.01,19.16,19.62,31.25
				c-0.21,5.73-5.02,10.21-10.75,10c-5.73-0.21-10.21-5.02-10-10.75c0.17,5.73-4.33,10.51-10.06,10.68
				c-5.73,0.17-10.51-4.33-10.68-10.06C75.68,147.89,75.7,147.43,75.74,146.98z"/>
		</g>
		<g>
			<path class="st49" d="M49.73,82.12c-17.69-0.06-32.09,14.25-32.14,31.95s14.25,32.09,31.95,32.14
				c9.61,0.03,18.72-4.25,24.83-11.66c-5.95,5.17-12.35,9.2-19.59,9.29c-8.19,0.03-14.85-6.57-14.89-14.76
				c-0.03-8.19,6.57-14.85,14.76-14.89c-8.17,0.54-15.23-5.65-15.77-13.82C38.34,92.2,44.53,85.14,52.7,84.6
				c0.61-0.04,1.22-0.04,1.82-0.01c7.36-0.03,13.84,4.03,19.93,9.3C68.39,86.44,59.32,82.12,49.73,82.12z"/>
			<path class="st49" d="M129.06,94.7c-12.14,0.42-20.41,16.7-29.89,21.68c9.74,4.37,19.04,20.07,31.12,19.77
				c5.73,0.21,10.54-4.27,10.75-9.99c0.21-5.73-4.26-10.54-9.99-10.75c-0.46-0.02-0.92-0.01-1.37,0.04
				c5.73-0.17,10.24-4.96,10.07-10.68C139.57,99.03,134.79,94.52,129.06,94.7z"/>
		</g>
		<g>
			<path class="st28" d="M143.54,146.57c17.73,0.06,32.15-14.26,32.21-31.99c0.06-17.73-14.26-32.15-31.99-32.21
				c-9.65-0.03-18.79,4.27-24.92,11.72c6-5.17,12.35-9.2,19.59-9.23c8.17-0.54,15.23,5.65,15.77,13.82s-5.65,15.23-13.82,15.77
				c-0.61,0.04-1.22,0.04-1.82,0.01c8.19-0.05,14.87,6.54,14.92,14.73s-6.54,14.87-14.73,14.92c-7.36-0.02-13.84-4.09-19.98-9.3
				C124.86,142.22,133.94,146.53,143.54,146.57z"/>
			<path class="st28" d="M64.97,94.48c12.09,0.49,20.3,16.83,29.75,21.88c-9.76,4.3-19.16,19.95-31.25,19.57
				c-5.73,0.17-10.51-4.33-10.68-10.06c-0.17-5.73,4.33-10.51,10.06-10.68c0.46-0.01,0.92,0.01,1.37,0.05
				c-5.7-0.17-10.17-4.93-10.01-10.63c0-0.04,0-0.08,0.01-0.12C54.45,98.77,59.25,94.3,64.97,94.48z"/>
		</g>
	</g>
</g>
</svg>
