<?xml version="1.0" encoding="utf-8"?>
<!-- Generator: Adobe Illustrator 27.8.1, SVG Export Plug-In . SVG Version: 6.00 Build 0)  -->
<svg version="1.1" xmlns="http://www.w3.org/2000/svg" xmlns:xlink="http://www.w3.org/1999/xlink" x="0px" y="0px"
	 viewBox="0 0 350 230" style="enable-background:new 0 0 350 230;" xml:space="preserve">
<style type="text/css">
	.st0{fill:#C61A76;}
	.st1{fill:#8C449A;}
	.st2{fill:url(#SVGID_1_);}
	.st3{fill:#841618;}
	.st4{fill:#E4314A;}
	.st5{fill:#5FBB46;}
	.st6{fill:#DCA127;}
	.st7{fill:#45B0E4;}
	.st8{fill:#1A1A1A;}
	.st9{fill:url(#SVGID_00000043449079951332235810000017990748536888757648_);}
	.st10{fill:#275A9A;}
	.st11{fill:#4687C7;}
	.st12{fill:url(#SVGID_00000154401749786844892820000002503595998194038660_);}
	.st13{fill:url(#SVGID_00000000218065310870096910000010680892033648458931_);}
	.st14{fill:url(#SVGID_00000024694972220575816580000013513029454644202426_);}
	.st15{fill:url(#SVGID_00000086665716848390764220000004087183886601120162_);}
	.st16{fill:#507834;}
	.st17{fill:url(#SVGID_00000030476885674127170730000004689176997684197302_);}
	.st18{fill:#F2652E;}
	.st19{fill:#F6872E;}
	.st20{fill:url(#SVGID_00000153693545588843390550000015118681131643061913_);}
	.st21{fill:#8DC641;}
	.st22{fill:#E26926;}
	.st23{fill:#3A77B7;}
	.st24{fill:#9B9DA0;}
	.st25{fill:#EE4079;}
	.st26{fill:#7DCBF1;}
	.st27{fill:#FEE81F;}
	.st28{fill:#231F20;}
	.st29{fill-rule:evenodd;clip-rule:evenodd;fill:#FEC660;}
	.st30{fill-rule:evenodd;clip-rule:evenodd;fill:#DB1F2C;}
	.st31{fill-rule:evenodd;clip-rule:evenodd;fill:#B9479A;}
	.st32{fill-rule:evenodd;clip-rule:evenodd;fill:#3B57A7;}
	.st33{fill-rule:evenodd;clip-rule:evenodd;fill:#3EAAE0;}
	.st34{fill-rule:evenodd;clip-rule:evenodd;fill:#80C342;}
	.st35{fill:#00ADEA;}
	.st36{fill:#EB2227;}
	.st37{fill:#14AB4B;}
	.st38{fill:none;}
	.st39{fill:#FBB03B;}
	.st40{fill:#C59C6D;}
	.st41{fill:url(#SVGID_00000134221775837613427830000004281448945328443270_);}
	.st42{fill:url(#SVGID_00000116234887887759669620000004620669550062624189_);}
	.st43{fill:url(#SVGID_00000180332855320107543480000014185568589408591758_);}
	.st44{fill:#010101;}
	.st45{fill:#CFD1D2;}
	.st46{fill:#A7A9AC;}
	.st47{fill:#00AEEF;}
	.st48{fill:#F7941D;}
	.st49{fill:#EC008C;}
	.st50{fill:#39B54A;}
	.st51{fill:url(#SVGID_00000014629344305832511550000003302972266325805469_);}
	.st52{opacity:0.75;}
	.st53{fill:#005D97;}
	.st54{fill:#FFCD06;}
	.st55{fill:#8C56A3;}
	.st56{fill:#8C328B;}
	.st57{fill:#BBD867;}
	.st58{fill:#1FAFB5;}
	.st59{fill:#D44194;}
	.st60{fill:#EF5AA0;}
	.st61{fill:#F89422;}
	.st62{fill:#FFF4DC;}
	.st63{fill:#FFE7B6;}
	.st64{fill:#FFDB93;}
	.st65{fill:#FFCF6F;}
	.st66{fill:#FEC24A;}
	.st67{fill:#FBAA19;}
	.st68{fill:#FADBE4;}
	.st69{fill:#F5B6CA;}
	.st70{fill:#F093B0;}
	.st71{fill:#E96E95;}
	.st72{fill:#E6497C;}
	.st73{fill:#DA1D49;}
	.st74{fill:#F6DBE9;}
	.st75{fill:#EBB7D5;}
	.st76{fill:#E195C0;}
	.st77{fill:#D673AD;}
	.st78{fill:#CF559F;}
	.st79{fill:#CF2A91;}
	.st80{fill:#D0B6D8;}
	.st81{fill:#B793C4;}
	.st82{fill:#9970B1;}
	.st83{fill:#8356A3;}
	.st84{fill:#74489D;}
	.st85{fill:#663F98;}
	.st86{fill:#DCECF9;}
	.st87{fill:#BADAF3;}
	.st88{fill:#99C6EB;}
	.st89{fill:#7CB5E2;}
	.st90{fill:#63A1D7;}
	.st91{fill:#447BBF;}
	.st92{fill:#DDEEDC;}
	.st93{fill:#BCDFB6;}
	.st94{fill:#9DD196;}
	.st95{fill:#81C674;}
	.st96{fill:#69BE55;}
	.st97{fill:#49B749;}
	.st98{fill:#ED2D88;}
	.st99{fill:#FFF200;}
</style>
<g id="Layer_1">
</g>
<g id="Layer_2">
</g>
<g id="Layer_3">
</g>
<g id="Layer_4">
</g>
<g id="Layer_5">
</g>
<g id="Layer_6">
</g>
<g id="Layer_7">
</g>
<g id="Layer_8">
</g>
<g id="Layer_9">
</g>
<g id="Layer_10">
</g>
<g id="Layer_11">
</g>
<g id="Layer_12">
</g>
<g id="Layer_13">
</g>
<g id="Layer_14">
	<g>
		<path class="st98" d="M329.77,93.36L329.77,93.36c-28.26-20.26-47.66-19.89-58.48-17.38c-10.82,2.51-15.73,8.85-15.73,8.85
			c27.99-12.53,45,2.24,47.23,4.32c-1.81,1.76-17.75,15.41-49.42,7.09c0,0,2.93,6.34,15.14,8.37
			C281.84,106.79,303.54,105.78,329.77,93.36z M270.54,56.09c1.01,1.28,7.46,10.13-17.7,23.62c6.14-0.77,12.07-2.77,17.43-5.86
			c8.21-4.8,14.77-12.85,11.89-28.58h-0.05c-53.47,13.59-39.98,31.83-39.98,31.83C248.2,60.19,267.87,56.41,270.54,56.09z
			 M222.56,85.73c-14.39-5.49-4.53-20.21-3.2-22.07c2.13-0.32,18.82-2.13,15.03,14.61c0,0,21.48-16.53-20.85-25.64l0,0
			C199.32,96.07,222.56,85.73,222.56,85.73z M201.87,116.17c7.46-4.85,11.84-12.42,11.84-12.42c-20.58,15.35-24.74,4.05-25.27,2.45
			c1.39-2.24,13.17-17.59,28.52-13.97c0,0-6.34-21.06-42.54,17.7C186.31,121.24,195,120.6,201.87,116.17z M222.93,132.7
			c3.63-12.1,0.8-18.29,0.8-18.29c-8.26,32.2-22.66,37.59-24.58,38.07c-0.64-2.88-4.74-24.15,15.67-42.38
			c0,0-30.81,4.21-22.76,64.93l0,0C210.94,162.13,219.15,145.28,222.93,132.7z M304.39,94.95L304.39,94.95z M304.39,95.01
			L304.39,95.01L304.39,95.01L304.39,95.01z M278.8,184.73L278.8,184.73c2.56-25.48,1.44-44.62-1.71-56.78
			c-2.83-10.77-7.41-16.85-12.16-20.31c-8.53-6.18-18.55-3.84-18.55-3.84c28.79,13.01,14.55,42.22,12.64,46.49
			c-4.11-0.27-31.88-3.31-27.14-36.89c0,0-6.4,8.37-5.65,19.73c0.43,6.13,2.88,13.49,9.38,21.59
			C242.92,163.73,255.67,175.14,278.8,184.73z"/>
	</g>
</g>
<g id="Layer_15">
</g>
</svg>
