<?xml version="1.0" encoding="utf-8"?>
<!-- Generator: Adobe Illustrator 27.8.1, SVG Export Plug-In . SVG Version: 6.00 Build 0)  -->
<svg version="1.1" xmlns="http://www.w3.org/2000/svg" xmlns:xlink="http://www.w3.org/1999/xlink" x="0px" y="0px"
	 viewBox="0 0 350 230" style="enable-background:new 0 0 350 230;" xml:space="preserve">
<style type="text/css">
	.st0{fill:#C61A76;}
	.st1{fill:#8C449A;}
	.st2{fill:url(#SVGID_1_);}
	.st3{fill:#841618;}
	.st4{fill:#E4314A;}
	.st5{fill:#5FBB46;}
	.st6{fill:#DCA127;}
	.st7{fill:#45B0E4;}
	.st8{fill:#1A1A1A;}
	.st9{fill:url(#SVGID_00000076570570362385751550000013443599002129907129_);}
	.st10{fill:#275A9A;}
	.st11{fill:#4687C7;}
	.st12{fill:url(#SVGID_00000058586825709108514070000012493995859166825650_);}
	.st13{fill:url(#SVGID_00000176025645237666916500000000370232338329405879_);}
	.st14{fill:url(#SVGID_00000099633376380940354470000010062935601541001117_);}
	.st15{fill:url(#SVGID_00000163037230471707682070000007043806858152638908_);}
	.st16{fill:#507834;}
	.st17{fill:url(#SVGID_00000005265579958737675710000009571867713508546735_);}
	.st18{fill:#F2652E;}
	.st19{fill:#F6872E;}
	.st20{fill:url(#SVGID_00000078756868999490094070000003211142647366589118_);}
	.st21{fill:#8DC641;}
	.st22{fill:#E26926;}
	.st23{fill:#3A77B7;}
	.st24{fill:#9B9DA0;}
	.st25{fill:#EE4079;}
	.st26{fill:#7DCBF1;}
	.st27{fill:#FEE81F;}
	.st28{fill:#231F20;}
	.st29{fill-rule:evenodd;clip-rule:evenodd;fill:#FEC660;}
	.st30{fill-rule:evenodd;clip-rule:evenodd;fill:#DB1F2C;}
	.st31{fill-rule:evenodd;clip-rule:evenodd;fill:#B9479A;}
	.st32{fill-rule:evenodd;clip-rule:evenodd;fill:#3B57A7;}
	.st33{fill-rule:evenodd;clip-rule:evenodd;fill:#3EAAE0;}
	.st34{fill-rule:evenodd;clip-rule:evenodd;fill:#80C342;}
	.st35{fill:#00ADEA;}
	.st36{fill:#EB2227;}
	.st37{fill:#14AB4B;}
	.st38{fill:none;}
	.st39{fill:#FBB03B;}
	.st40{fill:#C59C6D;}
	.st41{fill:url(#SVGID_00000181798668550652083710000014183396766770272437_);}
	.st42{fill:url(#SVGID_00000055665944891801787030000013567260523254282113_);}
	.st43{fill:url(#SVGID_00000110451783030813073770000008180853297130769564_);}
	.st44{fill:#010101;}
	.st45{fill:#CFD1D2;}
	.st46{fill:#A7A9AC;}
	.st47{fill:#00AEEF;}
	.st48{fill:#F7941D;}
	.st49{fill:#EC008C;}
	.st50{fill:#39B54A;}
	.st51{fill:url(#SVGID_00000085222231849239437750000006418259767710833035_);}
	.st52{opacity:0.75;}
	.st53{fill:#005D97;}
	.st54{fill:#FFCD06;}
	.st55{fill:#8C56A3;}
	.st56{fill:#8C328B;}
	.st57{fill:#BBD867;}
	.st58{fill:#1FAFB5;}
	.st59{fill:#D44194;}
	.st60{fill:#EF5AA0;}
	.st61{fill:#F89422;}
	.st62{fill:#FFF4DC;}
	.st63{fill:#FFE7B6;}
	.st64{fill:#FFDB93;}
	.st65{fill:#FFCF6F;}
	.st66{fill:#FEC24A;}
	.st67{fill:#FBAA19;}
	.st68{fill:#FADBE4;}
	.st69{fill:#F5B6CA;}
	.st70{fill:#F093B0;}
	.st71{fill:#E96E95;}
	.st72{fill:#E6497C;}
	.st73{fill:#DA1D49;}
	.st74{fill:#F6DBE9;}
	.st75{fill:#EBB7D5;}
	.st76{fill:#E195C0;}
	.st77{fill:#D673AD;}
	.st78{fill:#CF559F;}
	.st79{fill:#CF2A91;}
	.st80{fill:#D0B6D8;}
	.st81{fill:#B793C4;}
	.st82{fill:#9970B1;}
	.st83{fill:#8356A3;}
	.st84{fill:#74489D;}
	.st85{fill:#663F98;}
	.st86{fill:#DCECF9;}
	.st87{fill:#BADAF3;}
	.st88{fill:#99C6EB;}
	.st89{fill:#7CB5E2;}
	.st90{fill:#63A1D7;}
	.st91{fill:#447BBF;}
	.st92{fill:#DDEEDC;}
	.st93{fill:#BCDFB6;}
	.st94{fill:#9DD196;}
	.st95{fill:#81C674;}
	.st96{fill:#69BE55;}
	.st97{fill:#49B749;}
	.st98{fill:#ED2D88;}
	.st99{fill:#FFF200;}
</style>
<g id="Layer_1">
</g>
<g id="Layer_2">
</g>
<g id="Layer_3">
</g>
<g id="Layer_4">
	<g>
		
			<linearGradient id="SVGID_1_" gradientUnits="userSpaceOnUse" x1="199.1656" y1="58.7229" x2="168.5704" y2="45.7921" gradientTransform="matrix(1 0 0 1 0 70)">
			<stop  offset="0.01" style="stop-color:#4687C7"/>
			<stop  offset="0.56" style="stop-color:#2B61A2"/>
			<stop  offset="1" style="stop-color:#19478A"/>
		</linearGradient>
		<path class="st2" d="M223.68,139.35c0.05-0.15,0.1-0.31,0.14-0.47C223.74,139.01,223.74,139.22,223.68,139.35z"/>
		<path class="st10" d="M224.28,137.55c0.13-0.28,0.22-0.57,0.27-0.87c0.08-0.14,0.13-0.3,0.14-0.47c0.12-0.28,0.21-0.57,0.27-0.87
			c0.07-0.14,0.07-0.33,0.14-0.47l0.2-0.87c0.07-0.2,0.07-0.33,0.14-0.53l0.2-0.87c0-0.14,0.07-0.33,0.07-0.47
			c0.07-0.29,0.11-0.57,0.14-0.87l0.14-0.53c0-0.27,0.07-0.53,0.07-0.87c0.06-0.17,0.08-0.36,0.07-0.53
			c0.07-0.27,0.07-0.53,0.14-0.8v-0.6c0.06-0.26,0.08-0.53,0.07-0.8c0.05-0.19,0.08-0.4,0.07-0.6v-3.48c0-0.27-0.07-0.53-0.07-0.8
			v-0.53c-0.07-0.33-0.07-0.6-0.14-0.87v-0.53c-0.07-0.27-0.07-0.6-0.14-0.93c-0.07-0.33-0.07-0.27-0.07-0.4
			c0-0.14-0.07-0.67-0.14-1c-0.05-0.1-0.08-0.22-0.07-0.33l-0.2-1.14c-0.05-0.06-0.07-0.13-0.07-0.2c-0.07-0.4-0.2-0.8-0.27-1.2
			v-0.14c-0.08-0.43-0.19-0.86-0.33-1.27l0,0c-1.67-5.85-4.64-11.24-8.69-15.78h-0.07c-4.25-4.86-9.62-8.6-15.65-10.9l-0.2-0.14
			c-2.64-1-5.37-1.72-8.16-2.14h-0.07c-4.71-0.72-9.5-0.62-14.17,0.27c0.47,0.87,0.93,1.81,1.34,2.67s0.2,0.33,0.27,0.53l0.4,0.87
			c0.08,0.28,0.19,0.55,0.33,0.8c0.07,0.27,0.2,0.47,0.27,0.74l0.4,0.93l0,0c3.06-0.2,6.13-0.07,9.16,0.4l0,0
			c2.78,0.48,5.51,1.22,8.16,2.2h0.2c6.04,2.31,11.43,6.05,15.71,10.9l0,0c8.26,9.32,11.79,21.91,9.56,34.16
			c0.07-0.14,0.07-0.33,0.14-0.47c0.07-0.14,0.2-0.53,0.33-0.87C224.2,137.77,224.24,137.66,224.28,137.55z M102.66,68.35
			c0.07,0.33,0.2,0.6,0.27,0.93c0.08,0.14,0.13,0.3,0.14,0.47c0.14,0.27,0.2,0.53,0.33,0.87l0.2,0.4c0.07,0.3,0.18,0.6,0.33,0.87
			l0.2,0.47c0.08,0.28,0.19,0.55,0.33,0.8l0.2,0.47l0.4,0.8c0.06,0.17,0.15,0.33,0.27,0.47c0.07,0.26,0.18,0.51,0.33,0.74l0.27,0.53
			l0.4,0.67c0.14,0.16,0.25,0.34,0.33,0.53l0.4,0.67c0.14,0.16,0.25,0.34,0.33,0.53l0.4,0.6l0.4,0.6l0.4,0.53l0.47,0.6l0.33,0.47
			l0.53,0.6l0.33,0.47l0.6,0.67l0.33,0.4l0.6,0.67l0.33,0.27l0.67,0.74l0.27,0.27l0.8,0.74l0.2,0.2l0.87,0.8h0.14l1.07,0.87l0,0
			c4.73,3.79,10.26,6.44,16.18,7.76l0,0c6.3,1.48,12.87,1.39,19.12-0.27h0.2c2.74-0.67,5.38-1.66,7.89-2.94h0.07
			c2.13-1.08,4.16-2.33,6.08-3.74c1.89-1.46,3.65-3.07,5.28-4.81l-2.67-1.34l-0.53-0.27l-0.74-0.47l-0.8-0.47l-0.67-0.47l-0.8-0.53
			h-0.07c-2.36,1.97-4.94,3.65-7.69,5.01l0,0c-2.52,1.27-5.16,2.28-7.89,3.01h-0.27c-6.24,1.59-12.77,1.69-19.06,0.27h-0.07
			c-12.12-2.78-22.29-10.96-27.62-22.2c0.07,0.14,0.07,0.27,0.14,0.4c0.06,0.32,0.15,0.63,0.27,0.93
			C102.54,68.09,102.59,68.22,102.66,68.35z"/>
		<path class="st11" d="M214.12,105.18L214.12,105.18c-4.28-4.85-9.67-8.58-15.71-10.9h-0.2c-2.64-0.99-5.37-1.73-8.16-2.2l0,0
			c-3.03-0.46-6.1-0.6-9.16-0.4l0,0c0.79,2.16,1.42,4.37,1.87,6.62c2.53,0.21,5.04,0.66,7.49,1.34c1.61,0.4,3.2,0.89,4.75,1.47
			c9.44,3.68,17.34,10.47,22.4,19.25c3.53,6.07,5.55,12.91,5.89,19.92c0.14-0.26,0.25-0.52,0.33-0.8v-0.14
			C225.85,127.11,222.36,114.52,214.12,105.18z M193.59,104.78c-1.4-0.59-2.86-1.06-4.34-1.4c-1.95-0.54-3.94-0.92-5.95-1.14
			c0.27,2.24,0.33,4.5,0.2,6.75v0.2l0,0c-0.37,6.58-2.2,13-5.35,18.79c16.98,17.92,35.77,18.85,41.12,18.79
			C221.23,128.57,210.69,111.33,193.59,104.78z M129.74,88.8h0.07c6.28,1.42,12.82,1.33,19.06-0.27h0.27
			c2.73-0.73,5.37-1.74,7.89-3.01l0,0c2.75-1.36,5.33-3.04,7.69-5.01h0.07c-1.95-1.32-3.78-2.79-5.48-4.41
			c-2.19,1.32-4.5,2.43-6.89,3.34c-1.54,0.57-3.1,1.06-4.68,1.47c-16.97,4.4-34.94-1.6-45.87-15.31c0.06,0.3,0.15,0.59,0.27,0.87
			v0.14C107.44,77.85,117.62,86.02,129.74,88.8z M146.72,77.17c1.47-0.4,2.94-0.87,4.34-1.4c1.88-0.68,3.69-1.53,5.42-2.54
			c-1.47-1.68-2.81-3.47-4.01-5.35c-0.07-0.07-0.14-0.14-0.14-0.2h-0.07c-3.54-5.56-5.8-11.84-6.62-18.39
			c-24.21-4.61-39.98,5.48-44.26,8.69C110.37,73.95,129.01,81.84,146.72,77.17z"/>
		
			<linearGradient id="SVGID_00000131345784485342350240000012784730105607450527_" gradientUnits="userSpaceOnUse" x1="173.2284" y1="50.6906" x2="171.3229" y2="19.1725" gradientTransform="matrix(1 0 0 1 0 70)">
			<stop  offset="0.01" style="stop-color:#8DC641"/>
			<stop  offset="0.15" style="stop-color:#7FB53D"/>
			<stop  offset="0.73" style="stop-color:#4B7430"/>
			<stop  offset="1" style="stop-color:#375A2B"/>
		</linearGradient>
		<path style="fill:url(#SVGID_00000131345784485342350240000012784730105607450527_);" d="M174.07,127.45
			c-0.27,0.33-0.47,0.74-0.74,1.14C173.07,128.99,173.8,127.78,174.07,127.45z"/>
		<path class="st16" d="M189.18,56.71c-1.16,1.14-2.26,2.34-3.27,3.61l-0.14,0.2c-1.78,2.17-3.33,4.52-4.61,7.02l0,0
			c-2.18,4.27-3.58,8.88-4.15,13.64l1.87-0.33l0.53-0.14l1.34-0.14h0.6l1.27-0.14h2.07c0.74-3.2,1.86-6.29,3.34-9.23l0,0
			c1.26-2.44,2.76-4.74,4.48-6.89c0.07-0.07,0.14-0.14,0.14-0.2c4.01-4.9,9.11-8.77,14.91-11.3l0,0
			c11.53-5.04,24.77-4.27,35.64,2.07c-0.05-0.12-0.15-0.21-0.27-0.27l-0.87-0.67l-0.53-0.4c-1.01-0.81-2.09-1.55-3.21-2.2
			c-1.19-0.71-2.42-1.36-3.68-1.94l-2.01-0.93l-1.81-0.67l-2.61-0.8l-2.67-0.67l-2.67-0.47l-2.74-0.27
			c-1.36-0.12-2.72-0.15-4.08-0.07l-2.81,0.14c-4.17,0.45-8.25,1.54-12.1,3.21l0,0c-2.96,1.27-5.74,2.91-8.29,4.88
			C191.56,54.66,190.33,55.65,189.18,56.71z M179.62,109v-0.14l0,0c0.07-0.74,0.07-1.47,0.07-2.14c0.01-1.41-0.08-2.81-0.27-4.21
			c-0.07-0.67-0.14-1.4-0.27-2.07l0,0c-0.74-4.75-2.32-9.32-4.68-13.5l-1.14,1.27l-0.47,0.4l-0.74,0.74l-0.6,0.53l-0.67,0.6
			L170.19,91c-0.07,0.14-0.2,0.2-0.33,0.33c1.21,2.94,2.06,6.02,2.54,9.16l0,0c0.46,2.78,0.62,5.61,0.47,8.42l0,0v0.14l0,0
			c-0.37,6.5-2.27,12.83-5.55,18.46l0,0c-6.18,10.51-16.72,17.71-28.75,19.66c4.42,0.07,8.83-0.58,13.04-1.94h0.14l1.07-0.33
			l0.2-0.14l1-0.33l0.27-0.14l0.93-0.33l0.33-0.2l0.8-0.33l0.4-0.2l0.8-0.4l0.4-0.2l0.8-0.4l0.4-0.27l0.74-0.4l0.4-0.27l0.67-0.47
			l0.47-0.27l0.67-0.47l0.47-0.27l0.6-0.47l0.47-0.33l0.6-0.47l0.47-0.4l0.6-0.47l0.47-0.4l0.53-0.47l0.47-0.47l0.53-0.47l0.47-0.47
			c0.14-0.17,0.3-0.33,0.47-0.47l0.47-0.53l0.47-0.47l0.47-0.53l0.4-0.53c0.19-0.15,0.35-0.33,0.47-0.53l0.4-0.47l0.47-0.6l0.4-0.53
			l0.47-0.67l0.33-0.47l0.47-0.74l0.27-0.4c0.27-0.4,0.47-0.8,0.74-1.14l0,0C177.37,121.74,179.27,115.46,179.62,109L179.62,109z"/>
		<path class="st18" d="M166.38,11.25l-0.74,0.53l-0.4,0.33l-0.74,0.53c-0.14,0.14-0.2,0.27-0.33,0.33l-0.74,0.6
			c-0.07,0.14-0.2,0.2-0.33,0.33l-0.67,0.6l-0.4,0.33l-0.6,0.6l-0.33,0.4l-0.6,0.6l-0.4,0.47l-0.53,0.6l-0.4,0.47l-0.47,0.6
			l-0.4,0.47l-0.47,0.6l-0.4,0.53l-0.4,0.53l-0.4,0.67l-0.33,0.47c-0.11,0.25-0.28,0.48-0.47,0.67l-0.27,0.53l-0.47,0.74l-0.2,0.4
			c-0.19,0.27-0.36,0.56-0.47,0.87l-0.2,0.33c-0.13,0.32-0.29,0.64-0.47,0.93l-0.14,0.33l-0.47,1c0,0.07-0.07,0.14-0.07,0.2
			c-0.18,0.37-0.34,0.75-0.47,1.14v0.14c-0.19,0.41-0.36,0.84-0.47,1.27l0,0c-2.03,5.72-2.74,11.82-2.07,17.85l0,0
			c0.64,6.43,2.85,12.6,6.42,17.99l0.14,0.2c1.54,2.35,3.33,4.53,5.35,6.49h0.07c1.67,1.7,3.5,3.22,5.48,4.55
			c1.98,1.35,4.08,2.52,6.28,3.48c0.07-0.99,0.2-1.97,0.4-2.94c0-0.2,0.07-0.4,0.07-0.6l0.2-0.87l0.2-0.87l0.2-0.8l0.2-0.93v-0.14
			c-2.64-1.56-5.06-3.45-7.22-5.61l0,0c-2.02-1.97-3.83-4.15-5.42-6.49c0-0.07-0.07-0.14-0.14-0.2c-3.54-5.4-5.74-11.56-6.42-17.99
			l0,0c-1.34-12.38,3.1-24.69,12.04-33.36l-0.4,0.27l-0.74,0.53L166.38,11.25z"/>
		<path class="st19" d="M155.88,43.54L155.88,43.54c0.67,6.42,2.88,12.59,6.42,17.99c0.07,0.07,0.14,0.14,0.14,0.2
			c1.58,2.34,3.4,4.51,5.42,6.49l0,0c2.16,2.17,4.59,4.06,7.22,5.61v0.14c0.66-2.26,1.47-4.47,2.41-6.62
			c-1.93-1.65-3.72-3.46-5.35-5.42c-1-1.27-2.01-2.61-2.94-4.01c-9.6-14.62-9.73-33.52-0.33-48.27l-0.74,0.47h-0.14
			C159.01,18.79,154.54,31.13,155.88,43.54z M172.33,55.78c0.87,1.27,1.81,2.54,2.74,3.68c1.28,1.55,2.66,3,4.15,4.34
			c1.13-1.96,2.4-3.84,3.81-5.61c0-0.07,0.06-0.14,0.14-0.14l0,0c4.15-5.15,9.37-9.32,15.31-12.24C195,21.41,180.3,9.71,175.88,6.7
			C163.69,20.36,162.24,40.51,172.33,55.78z"/>
		<path class="st21" d="M243.2,54.77c-10.87-6.35-24.11-7.11-35.64-2.07l0,0c-5.8,2.53-10.91,6.4-14.91,11.3
			c0,0.07-0.07,0.14-0.14,0.2c-1.71,2.14-3.22,4.45-4.48,6.89l0,0c-1.48,2.93-2.6,6.03-3.34,9.23h-0.2
			c2.23-0.08,4.47,0.01,6.68,0.27c1.01-2.32,2.19-4.55,3.55-6.68c0.9-1.42,1.88-2.78,2.94-4.08c6.42-7.83,15.31-13.25,25.21-15.38
			c6.86-1.39,13.95-1.21,20.73,0.53l-0.67-0.53l-0.87-0.67l0.87,0.67C243.07,54.51,243.17,54.63,243.2,54.77z M200.68,72.36
			c-0.93,1.2-1.87,2.41-2.67,3.68c-1.09,1.69-2.05,3.45-2.88,5.28c2.21,0.48,4.38,1.13,6.49,1.94h0.27
			c6.13,2.4,11.66,6.12,16.18,10.9c22.26-10.63,29.01-28.15,30.56-33.3C231.88,53.36,212.19,58.08,200.68,72.36z M167.32,127.72
			L167.32,127.72c3.28-5.62,5.18-11.95,5.55-18.46l0,0v-0.14l0,0c0.15-2.81-0.01-5.64-0.47-8.42l0,0c-0.48-3.14-1.33-6.22-2.54-9.16
			c0.14-0.14,0.27-0.2,0.33-0.33c-2.09,1.81-4.38,3.38-6.82,4.68c0.59,2.48,0.95,5.01,1.07,7.56c0.09,1.69,0.09,3.36,0,5.01
			c-1.02,17.41-12.18,32.59-28.48,38.78h0.87c5,0.27,10-0.37,14.77-1.87c-4.21,1.35-8.62,2.01-13.04,1.94
			C150.59,145.38,161.12,138.2,167.32,127.72z M160.57,107.99c0.07-1.47,0.07-3.01,0-4.55c-0.14-2-0.4-3.98-0.8-5.95
			c-2.14,0.95-4.36,1.73-6.62,2.34c-3.73,0.99-7.57,1.48-11.43,1.47c-2.71-0.01-5.42-0.26-8.09-0.74
			c-7.09,13.04-8.02,24.74-7.56,32.36c0.24,4.26,1.07,8.47,2.48,12.5C146.49,141.69,159.64,126.3,160.57,107.99z"/>
	</g>
</g>
<g id="Layer_5">
</g>
<g id="Layer_6">
</g>
<g id="Layer_7">
</g>
<g id="Layer_8">
</g>
<g id="Layer_9">
</g>
<g id="Layer_10">
</g>
<g id="Layer_11">
</g>
<g id="Layer_12">
</g>
<g id="Layer_13">
</g>
<g id="Layer_14">
</g>
<g id="Layer_15">
</g>
</svg>
