<?xml version="1.0" encoding="utf-8"?>
<!-- Generator: Adobe Illustrator 27.8.1, SVG Export Plug-In . SVG Version: 6.00 Build 0)  -->
<svg version="1.1" xmlns="http://www.w3.org/2000/svg" xmlns:xlink="http://www.w3.org/1999/xlink" x="0px" y="0px"
	 viewBox="0 0 350 230" style="enable-background:new 0 0 350 230;" xml:space="preserve">
<style type="text/css">
	.st0{fill:#C61A76;}
	.st1{fill:#8C449A;}
	.st2{fill:url(#SVGID_1_);}
	.st3{fill:#841618;}
	.st4{fill:#E4314A;}
	.st5{fill:#5FBB46;}
	.st6{fill:#DCA127;}
	.st7{fill:#45B0E4;}
	.st8{fill:#1A1A1A;}
	.st9{fill:url(#SVGID_00000175293013424070955340000002932929918882716321_);}
	.st10{fill:#275A9A;}
	.st11{fill:#4687C7;}
	.st12{fill:url(#SVGID_00000079448108917767491410000014398845865389392003_);}
	.st13{fill:url(#SVGID_00000019671126208447380490000007970253438060415909_);}
	.st14{fill:url(#SVGID_00000093135040937697064040000010664810362485975477_);}
	.st15{fill:url(#SVGID_00000070107254533870169770000014329041712439494331_);}
	.st16{fill:#507834;}
	.st17{fill:url(#SVGID_00000124154804036470046490000013776293028492670603_);}
	.st18{fill:#F2652E;}
	.st19{fill:#F6872E;}
	.st20{fill:url(#SVGID_00000165197703998223904990000014806878603281621656_);}
	.st21{fill:#8DC641;}
	.st22{fill:#E26926;}
	.st23{fill:#3A77B7;}
	.st24{fill:#9B9DA0;}
	.st25{fill:#EE4079;}
	.st26{fill:#7DCBF1;}
	.st27{fill:#FEE81F;}
	.st28{fill:#231F20;}
	.st29{fill-rule:evenodd;clip-rule:evenodd;fill:#FEC660;}
	.st30{fill-rule:evenodd;clip-rule:evenodd;fill:#DB1F2C;}
	.st31{fill-rule:evenodd;clip-rule:evenodd;fill:#B9479A;}
	.st32{fill-rule:evenodd;clip-rule:evenodd;fill:#3B57A7;}
	.st33{fill-rule:evenodd;clip-rule:evenodd;fill:#3EAAE0;}
	.st34{fill-rule:evenodd;clip-rule:evenodd;fill:#80C342;}
	.st35{fill:#00ADEA;}
	.st36{fill:#EB2227;}
	.st37{fill:#14AB4B;}
	.st38{fill:none;}
	.st39{fill:#FBB03B;}
	.st40{fill:#C59C6D;}
	.st41{fill:url(#SVGID_00000101817298673231508290000016590316283303754404_);}
	.st42{fill:url(#SVGID_00000051367667397926881360000014012859932771514811_);}
	.st43{fill:url(#SVGID_00000145040900983832439770000007965680691407755938_);}
	.st44{fill:#010101;}
	.st45{fill:#CFD1D2;}
	.st46{fill:#A7A9AC;}
	.st47{fill:#00AEEF;}
	.st48{fill:#F7941D;}
	.st49{fill:#EC008C;}
	.st50{fill:#39B54A;}
	.st51{fill:url(#SVGID_00000155865264375911083170000012873434205049957760_);}
	.st52{opacity:0.75;}
	.st53{fill:#005D97;}
	.st54{fill:#FFCD06;}
	.st55{fill:#8C56A3;}
	.st56{fill:#8C328B;}
	.st57{fill:#BBD867;}
	.st58{fill:#1FAFB5;}
	.st59{fill:#D44194;}
	.st60{fill:#EF5AA0;}
	.st61{fill:#F89422;}
	.st62{fill:#FFF4DC;}
	.st63{fill:#FFE7B6;}
	.st64{fill:#FFDB93;}
	.st65{fill:#FFCF6F;}
	.st66{fill:#FEC24A;}
	.st67{fill:#FBAA19;}
	.st68{fill:#FADBE4;}
	.st69{fill:#F5B6CA;}
	.st70{fill:#F093B0;}
	.st71{fill:#E96E95;}
	.st72{fill:#E6497C;}
	.st73{fill:#DA1D49;}
	.st74{fill:#F6DBE9;}
	.st75{fill:#EBB7D5;}
	.st76{fill:#E195C0;}
	.st77{fill:#D673AD;}
	.st78{fill:#CF559F;}
	.st79{fill:#CF2A91;}
	.st80{fill:#D0B6D8;}
	.st81{fill:#B793C4;}
	.st82{fill:#9970B1;}
	.st83{fill:#8356A3;}
	.st84{fill:#74489D;}
	.st85{fill:#663F98;}
	.st86{fill:#DCECF9;}
	.st87{fill:#BADAF3;}
	.st88{fill:#99C6EB;}
	.st89{fill:#7CB5E2;}
	.st90{fill:#63A1D7;}
	.st91{fill:#447BBF;}
	.st92{fill:#DDEEDC;}
	.st93{fill:#BCDFB6;}
	.st94{fill:#9DD196;}
	.st95{fill:#81C674;}
	.st96{fill:#69BE55;}
	.st97{fill:#49B749;}
	.st98{fill:#ED2D88;}
	.st99{fill:#FFF200;}
</style>
<g id="Layer_1">
	<g>
		
			<linearGradient id="SVGID_1_" gradientUnits="userSpaceOnUse" x1="104.709" y1="821.532" x2="218.4328" y2="929.4451" gradientTransform="matrix(1 0 0 -1 0 982)">
			<stop  offset="0.28" style="stop-color:#4159A2"/>
			<stop  offset="0.52" style="stop-color:#8C449A"/>
			<stop  offset="0.79" style="stop-color:#C61A76"/>
		</linearGradient>
		<path class="st2" d="M217.04,112.11h-0.49c-0.76-0.93-1.79-1.61-2.95-1.94l0,0c0.26,0.22,0.49,0.56,0.79,0.67
			c0.89,0.42,1.63,1.09,2.13,1.94h0.04l-0.37-0.15h0.04c-0.04-0.04-0.07-0.07-0.07-0.11l-0.11,0.11l0,0l-2.05-1.57l-1.42-0.3v0.11
			l-1.83-0.11v-0.11l-3.58,0.82v-0.15c-0.26-0.04-0.6-0.22-0.82-0.11c-0.22,0.11-1.27,0.56-1.91,0.86c-0.63,0.3-1.01,0.9-1.83,0.56
			c-0.82,0.79-1.79,0.75-2.84,0.37c-1.05-0.37-1.49-1.57-0.63-2.54l1.35-1.53l1.61-1.31l1.61-0.37v-0.97l-3.21,1.83l-0.37-0.07
			l-4.48,3.17h-0.07c-0.21-0.01-0.43,0.01-0.63,0.07l-1.27,0.37h0.04l-0.63-0.9l2.24-2.99v0.07l1.49-1.68l1.83-2.24
			c0.82-0.9,1.68-1.76,2.54-2.65c0.07-0.07,0.26-0.07,0.49-0.11v0.67l-0.67,0.41c-0.04-0.07-0.07-0.15-0.04-0.04h0.04
			c0.97,0,1.27-0.93,1.83-1.46l1.94-1.83c0.07-0.07,0.07-0.19,0.15-0.26l0.07-0.19h-0.04l-0.11,0.15l-0.26-0.67l-0.67,0.34
			l-4.97,3.06l-0.34,0.22c-2.8,2.65-6.16,4.44-9.52,6.24c-0.35,0.25-0.68,0.54-0.97,0.86c-1.12-0.34-1.16-0.67-0.19-2.17
			c-0.39,0.04-0.78,0.03-1.16-0.04c-0.34-0.12-0.65-0.3-0.93-0.52l0.07-0.45c-0.27-0.39-0.55-0.76-0.86-1.12h-0.67
			c-0.07-0.3-0.19-0.6-0.26-1.01l-2.13-0.11c0.67-1.23,2.05-1.42,2.8-2.43l0.6,0.41l1.91-0.9l1.53-1.12l-0.07-0.15h0.49l3.81-2.58
			V96.4l-6.16,1.91l-0.07-0.15l4.67-2.65v0.37h-0.34l-0.15,0.19h0.15v-0.22h0.34v-0.37l0.67-0.3c0.19,0.86-0.41,0.82-0.82,0.97l0,0
			v-0.07l1.79-0.45l-0.19-0.56l4.11-1.79l-0.07-0.19h-0.37l0.07-0.6l-0.79,0.15l-7.02,2.39c-0.62,0.25-1.21,0.54-1.79,0.86
			c-3-2.31-6.58-3.75-10.35-4.14c-4.18-0.41-8.26,0.15-12.06,2.05c-2.77,1.38-4.89,3.55-6.95,5.86c-1.53,1.72-3.03,3.51-4.7,5.12
			c-2.73,2.61-6.12,3.77-9.82,3.92c-3.7,0.15-6.87-0.37-10.42-1.27c0.93-1.68,1.79-3.29,2.65-4.89l10.57-19.36l12.1-22.22
			l10.5-19.27c3.15-5.92,10.5-8.16,16.42-5.01c0.4,0.21,0.79,0.45,1.17,0.71c1.74,1.21,3.14,2.86,4.03,4.78l5.64,10.87
			c2.5,4.82,5,9.64,7.54,14.42c0.26,0.56,0.56,1.08,0.82,1.57l1.27,0.75l2.2,0.75l-0.11,0.37l-1.01-0.37
			c0.01,0.26,0.03,0.53,0.07,0.79l0.15,0.19l-1.31,0.93l0.11,0.11l1.19-0.11l-1.08,1.68l-0.07-0.11l-2.05,2.32
			c-1.01,1.35-1.16,3.33-2.99,4c-0.34,0.41-0.56,0.82-0.9,1.16c-1.38,1.38-2.8,2.77-4.18,4.18c-0.16,0.15-0.24,0.37-0.22,0.6
			c0.53-0.2,1.04-0.44,1.53-0.71c1.94-1.08,3.81-2.24,5.75-3.33c1.94-1.08,3.55-1.61,5.68-0.86l-1.16,0.71l0.07,0.15h0.97l0.34,0.6
			c0.97-0.45,1.49-0.15,1.68,0.56l1.94,1.42l-0.22,0.3l-0.82-0.56l-0.37,1.01l0.79,0.19l-0.79,0.86l0.07,0.15l0.71-0.15l0.52,0.41
			l0.67-0.15l2.54,1.87l-0.19,0.26l-0.63-0.37l-0.11,0.71l-0.93,0.82l0.93,0.22c-0.3,0.63-0.6,1.19-0.86,1.72l-0.26-0.49
			c-0.11,0.52-0.11,0.52,0.3,0.49c-0.49,0.82-0.97,1.68-1.42,2.54c-0.19,0.38-0.31,0.78-0.37,1.19c-0.86,1.49-4.44,5.34-4.93,5.3
			c-0.08,0.22-0.18,0.43-0.3,0.63c1.23-0.26,2.28-0.63,2.84-1.79h0.41l1.91-1.05l0.07,0.11l-0.52,0.56l0,0l-0.67,0.63l-1.35,0.63
			l0.11,0.22c0.56-0.07,1.05-0.26,1.19-0.86l1.31-0.26V99.7l-0.26-0.15h0.04l2.99-1.35c0.58,0.71,1.1,1.46,1.57,2.24
			c0.32,0.48,0.2,1.13-0.28,1.45c-0.11,0.07-0.23,0.12-0.36,0.15c0.82-1.42,0.07-2.39-0.97-3.36l-0.86,0.34v0.15l1.38,0.3
			c0.11,0.6,0.22,1.27,0.34,1.94l-0.19,0.07c0.07,0.19,0.16,0.38,0.26,0.56l-0.82,0.49c-0.49-0.07-0.97,0.15-1.16,0.86l-0.37-0.56
			c-2.02,1.27-2.02,1.27-1.76,1.61l2.13-1.05l-1.05,0.93l-2.39,1.31c-0.9,1.42-2.5,2.28-4.18,2.99v0.22l0.71,0.11l4.22-0.41
			c0.11-0.04,0.26,0.07,0.37,0.11h-0.82l0.07,0.37l0.75-0.41l0.45-0.22l0.71,0.15l-0.75,0.41l0.07,0.15l1.12-0.26v-0.19l1.27,0.56
			l-0.93-0.3v0.3h0.97l2.65,1.83l-0.11,0.07L217.04,112.11z M208.89,96.69L208.89,96.69z M204.64,104.34l-0.07,0.22
			c-0.63-0.3-0.79,0.26-1.19,0.37l0.11,0.22l1.05-0.6l0.11-0.26l0,0C204.68,104.23,204.68,104.27,204.64,104.34z M196.05,83.09
			l-0.11,0.34l-0.45-0.67l-3.06,2.54l2.17-0.19l1.42-1.61v-0.41L196.05,83.09L196.05,83.09z M206.5,102.7c0,0.04-0.04,0.07,0,0.04
			l0,0V102.7z M207.55,104.9L207.55,104.9z M206.24,107.63L206.24,107.63c-0.15,0.04-0.04,0,0.04,0l0,0H206.24z M203.96,109.42
			l-0.15,0.26h0.15V109.42H204C204.08,109.39,204,109.42,203.96,109.42z M202.7,105.28l0.34-0.11l-0.07-0.11l-0.22,0.26l-0.3,0.11
			v0.11L202.7,105.28z M209.31,106.06l-0.63,0.26l0.07-0.6l-0.22-0.07l-0.37,0.71c-0.6,0.37-1.42,0.49-1.46,1.35l0.19,0.22
			l1.31-1.46l0.45,0.22c0.03-0.12,0.04-0.25,0.04-0.37l0.63-0.3v0.07V106.06z M202.47,108.72L202.47,108.72l-0.07-0.07l-2.05,1.83
			c-0.04,0.04,0.04,0.19,0.04,0.26l0.19,0.11c0.07-0.19,0.11-0.37,0.19-0.6l0.3,0.41c1.19-0.86,2.28-1.72,3.4-2.58l-0.22-0.3
			l-1.05,0.67L202.47,108.72z M207.14,110.06l-2.17,0.52v0.19C205.68,110.36,206.66,111.33,207.14,110.06z M210.54,95.01l0.22,0.11
			l1.31-1.98l-0.63,0.11C211.1,93.92,210.8,94.45,210.54,95.01L210.54,95.01z M199.19,111.07l0.79,0.71l0.26-1.08L199.19,111.07z
			 M205.76,100.39l0.3,0.15l0.67-1.27l-0.22-0.11C206.24,99.56,205.98,99.97,205.76,100.39L205.76,100.39z M204.41,111.18
			l-0.15-0.11l-0.82,0.56l0.6,0.26C204.15,111.63,204.3,111.4,204.41,111.18z M205.08,106.14l0.26,0.19l0.56-0.82l-0.19-0.11
			L205.08,106.14z M206.69,106.06l-0.07-0.26l-0.41,0.22l0.11,0.19L206.69,106.06z M200.9,112.23v-0.19l-0.45,0.11v0.19
			L200.9,112.23z M212.18,92.8l0.11,0.15l0.34-0.34l-0.11-0.11L212.18,92.8z M200.34,106.58v0.11l0.3,0.07v-0.11L200.34,106.58z
			 M205.8,108.38l-0.11-0.19l-0.37,0.22l0.07,0.15L205.8,108.38z M204.3,106.25v0.15l0.37-0.11v-0.07L204.3,106.25z M202.17,111.96
			l-0.07-0.11l-0.3,0.19l0.07,0.15L202.17,111.96z M203.63,74.95l-0.15-0.11l-0.15,0.34l0.11,0.07L203.63,74.95z M211.66,92.17
			l-0.07-0.07l-0.22,0.19l0.07,0.11L211.66,92.17z M201.69,108.27l0.07,0.11l0.26-0.11l-0.07-0.11L201.69,108.27z M206.02,101.84
			v-0.07h-0.19v0.07H206.02z M196.87,81.11l0.15,0.07c-0.01-0.08,0.01-0.15,0.04-0.22h-0.07L196.87,81.11z M207.33,110.54l0.11,0.11
			l0.15-0.15l-0.07-0.07L207.33,110.54z M201.8,105.88h0.11v-0.19h-0.15L201.8,105.88z M201.95,102.93L201.95,102.93z
			 M203.29,110.06l-0.15-0.11l-0.11,0.26h0.11L203.29,110.06z M205.05,107.41l-0.07,0.11h0.11L205.05,107.41z M202.28,91.72v-0.07
			h-0.04L202.28,91.72z M202.92,75.44h0.07v-0.19h-0.07V75.44z M206.09,87.87h-0.11v0.07L206.09,87.87z M198.47,91.38l0.11,0.07
			v-0.11L198.47,91.38z M204.08,102.44L204.08,102.44z M202.32,108.3v-0.07h-0.04L202.32,108.3z M199.15,79.02h-0.04
			C199.11,79.1,199.15,79.06,199.15,79.02z M201.35,105.88L201.35,105.88z M212.63,92.2L212.63,92.2z M205.83,96.76v-0.07h-0.07
			L205.83,96.76z M217.08,112.6l0.22,0.15v-0.11L217.08,112.6z M211.06,99.49l0.11,0.19l0.19-0.19H211.06z M195.6,111.22
			c-0.01,0.06-0.04,0.11-0.07,0.15l0.07,0.07l0.07-0.19L195.6,111.22z M217.04,112.11c0,0.15,0.04,0.34,0.04,0.49l0,0
			C217.08,112.45,217.04,112.26,217.04,112.11z M216.74,113.05l-0.19-0.22h-0.04l0.22,0.26V113.05z M216.74,113.05v0.07l0,0V113.05z
			 M193.51,111.89L193.51,111.89z M193.51,111.89l0.22-0.19h-0.04l-0.19,0.22V111.89z M216.22,112.67h-0.19l0.07,0.07l0.07-0.07
			H216.22z M202.47,108.72L202.47,108.72z"/>
	</g>
</g>
<g id="Layer_2">
</g>
<g id="Layer_3">
</g>
<g id="Layer_4">
</g>
<g id="Layer_5">
</g>
<g id="Layer_6">
</g>
<g id="Layer_7">
</g>
<g id="Layer_8">
</g>
<g id="Layer_9">
</g>
<g id="Layer_10">
</g>
<g id="Layer_11">
</g>
<g id="Layer_12">
</g>
<g id="Layer_13">
</g>
<g id="Layer_14">
</g>
<g id="Layer_15">
</g>
</svg>
