<?xml version="1.0" encoding="utf-8"?>
<!-- Generator: Adobe Illustrator 27.8.1, SVG Export Plug-In . SVG Version: 6.00 Build 0)  -->
<svg version="1.1" xmlns="http://www.w3.org/2000/svg" xmlns:xlink="http://www.w3.org/1999/xlink" x="0px" y="0px"
	 viewBox="0 0 350 230" style="enable-background:new 0 0 350 230;" xml:space="preserve">
<style type="text/css">
	.st0{fill:#003799;}
	.st1{fill:#630000;}
	.st2{fill-rule:evenodd;clip-rule:evenodd;fill:#037FE1;}
	.st3{fill-rule:evenodd;clip-rule:evenodd;}
	.st4{fill-rule:evenodd;clip-rule:evenodd;fill:#562900;}
	.st5{fill-rule:evenodd;clip-rule:evenodd;fill:#00184C;}
	.st6{fill-rule:evenodd;clip-rule:evenodd;fill:#2C2C5B;}
	.st7{fill-rule:evenodd;clip-rule:evenodd;fill:#007C89;}
	.st8{fill:#C97C00;}
	.st9{fill:#7A6B00;}
	.st10{fill-rule:evenodd;clip-rule:evenodd;fill:#022B18;}
	.st11{fill-rule:evenodd;clip-rule:evenodd;fill:#03113F;}
	.st12{fill:#273F02;}
	.st13{fill:url(#SVGID_1_);}
	.st14{fill:#B62126;}
	.st15{fill:#231F20;}
	.st16{fill:#FFFFFF;}
	.st17{fill:#17629D;}
	.st18{fill:#540159;}
	.st19{display:none;fill:#540159;}
	.st20{font-family:'MidnightDayRegular';}
	.st21{font-size:30px;}
	.st22{fill:#66082A;}
	.st23{display:none;}
	.st24{fill:#005C68;}
	.st25{fill:#563900;}
</style>
<g id="Logo1">
</g>
<g id="Logo2">
</g>
<g id="Logo3">
</g>
<g id="Logo4">
</g>
<g id="Logo5">
</g>
<g id="Logo6">
</g>
<g id="Logo7">
</g>
<g id="Logo8">
</g>
<g id="Logo9">
</g>
<g id="Logo10">
</g>
<g id="Logo11">
</g>
<g id="Logo12">
	<path class="st18" d="M176.08,45.15l0.01-0.03c-0.33,0.01-0.65,0.01-0.98,0.02c-0.32-0.01-0.65-0.01-0.97-0.02v0.03
		c-21.27,0.34-38.68,4.98-38.68,4.98h79.31C214.77,50.13,197.35,45.49,176.08,45.15z M206.94,89.95c-0.19-0.65-0.53-1.35-1.11-2.01
		c-1.17-1.33-3.08-2.07-5.39-2.07l-0.03,2.5v-2.5h-50.6c-2.34,0-4.26,0.74-5.42,2.07c-0.58,0.66-0.92,1.36-1.11,2.01
		c-0.2,0.65-0.25,1.25-0.25,1.71c0,0.51,0.06,0.9,0.1,1.13c0.72,5.92,2.32,11.59,3.84,16.02c0.11-0.01,0.23-0.01,0.34-0.02
		c0.82,2.2,1.55,3.99,2.09,5.23c-0.16,0.01-0.31,0.02-0.47,0.02c0.89,2.18,1.52,3.48,1.54,3.53l0.69,1.42l23.97-0.19l23.93,0.19
		l0.69-1.42c0.02-0.05,0.67-1.39,1.59-3.64c-0.15-0.01-0.29-0.01-0.44-0.02c0.5-1.17,1.18-2.81,1.93-4.81
		c0.11,0.01,0.21,0.02,0.32,0.03c1.55-4.46,3.2-10.26,3.93-16.32c0.05-0.22,0.1-0.62,0.11-1.15
		C207.19,91.2,207.14,90.6,206.94,89.95z M148.14,91.27c0.02-0.01,0.08-0.1,0.32-0.19c0.24-0.09,0.66-0.18,1.38-0.2h50.55
		c0.72,0.02,1.13,0.11,1.37,0.2c0.24,0.09,0.3,0.18,0.32,0.19c0.03,0.02,0.09,0.17,0.09,0.39c0,0.07,0,0.14-0.01,0.18l-0.03,0.11
		l-0.01,0.14c-0.09,0.75-0.19,1.5-0.31,2.24h-53.4c-0.12-0.74-0.22-1.49-0.31-2.24l-0.02-0.17l-0.03-0.12
		c0-0.03-0.01-0.08-0.01-0.14C148.05,91.44,148.1,91.3,148.14,91.27z M200.78,99.44h-51.34c-0.29-1.19-0.55-2.41-0.78-3.65h52.89
		C201.33,97.03,201.06,98.25,200.78,99.44z M199.48,104.19h-48.74c-0.33-1.05-0.64-2.16-0.93-3.29h50.6
		C200.12,102.04,199.8,103.14,199.48,104.19z M198.14,108.24c-0.12,0.32-0.23,0.64-0.34,0.94h-45.38c-0.4-1.08-0.81-2.26-1.23-3.53
		h47.84C198.73,106.56,198.43,107.43,198.14,108.24z M195.88,113.95l-20.75-0.16l-20.79,0.16c-0.07-0.15-0.14-0.31-0.21-0.48
		c-0.33-0.75-0.72-1.71-1.16-2.83h44.28C196.71,112.02,196.23,113.15,195.88,113.95z M152.42,109.18c0.19,0.51,0.38,1,0.55,1.46
		h44.28c0.17-0.46,0.36-0.94,0.55-1.46H152.42z M150.74,104.19c0.05,0.18,0.11,0.35,0.16,0.53c0.1,0.31,0.2,0.62,0.29,0.93h47.84
		c0.15-0.48,0.3-0.96,0.45-1.46H150.74z M149.44,99.44c0.11,0.5,0.24,0.98,0.37,1.46h50.6c0.02-0.05,0.03-0.09,0.04-0.14
		c0.11-0.44,0.22-0.88,0.33-1.32H149.44z M148.41,94.33c0.08,0.49,0.16,0.98,0.25,1.46h52.89c0.1-0.48,0.18-0.97,0.26-1.46H148.41z
		 M146.16,94.33v1.46h58.03v-1.46H146.16z M146.16,99.44v1.46h58.03v-1.46H146.16z M148.11,104.19v1.46h53.19l0.54-1.46H148.11z
		 M150.54,109.18v1.46h48.9l0.54-1.46H150.54z M118.67,85.27c-2.07,3.17-1.16,7.55-1.16,7.55L137.95,95
		C141.17,84.85,118.67,85.27,118.67,85.27z M122.99,92.81c-1.82,0-3.29-1.47-3.29-3.28s1.47-3.29,3.29-3.29
		c1.81,0,3.28,1.48,3.28,3.29S124.8,92.81,122.99,92.81z M132.51,93.36c-1.33,0-2.41-1.08-2.41-2.4c0-1.33,1.08-2.4,2.41-2.4
		c1.32,0,2.4,1.07,2.4,2.4C134.91,92.28,133.83,93.36,132.51,93.36z M231.43,85.27c0,0-22.51-0.42-19.28,9.73l20.43-2.18
		C232.58,92.82,233.5,88.44,231.43,85.27z M217.59,93.36c-1.32,0-2.4-1.08-2.4-2.4c0-1.33,1.08-2.4,2.4-2.4c1.33,0,2.4,1.07,2.4,2.4
		C219.99,92.28,218.92,93.36,217.59,93.36z M227.11,92.81c-1.81,0-3.28-1.47-3.28-3.28s1.47-3.29,3.28-3.29
		c1.82,0,3.29,1.48,3.29,3.29S228.93,92.81,227.11,92.81z M113.32,92.02c0,0-2.74,0.18-3.29,2.92v18.14
		c2.57-0.43,5.13-0.82,7.67-1.19C116.21,108.24,114.18,101.78,113.32,92.02z M236.24,92.02c-0.9,10.1-3.29,16.68-5,20.25
		c2.98,0.44,5.86,0.91,8.65,1.39v-18.9C239.35,92.02,236.24,92.02,236.24,92.02z M225.76,61.12v6.72h-3.07l-7.19-14.38h-80.77
		l-7.18,14.34h-3.37v-6.71c-6.99,0-12.73,2.52-12.31,6.15c0.42,3.64,3.92,3.64,3.92,3.64l15.09,0.01h3.41l81.59,0.02h3.4l14.87,0.01
		c0,0,3.5,0,3.92-3.64C238.49,63.64,232.75,61.12,225.76,61.12z M134.29,70.89c-0.52-0.82-0.86-1.21-0.86-1.21l-3.85-0.2
		c0.46,0.46,0.89,0.93,1.3,1.41c7.44,8.52,9.44,20.69,9.44,20.69C139.25,79.84,135.89,73.37,134.29,70.89z M216.76,69.68
		c0,0-0.34,0.39-0.88,1.23c-1.61,2.5-4.96,8.96-6.02,20.67c0,0,1.99-12.15,9.42-20.67c0.42-0.49,0.87-0.97,1.33-1.43L216.76,69.68z
		 M113.87,80.51c0,0-2.68,3.46-3.28,9.44c1.23-0.01,2.25-0.07,3.01-0.13C113.29,88.35,112.96,85.29,113.87,80.51z M103.93,89.62
		c1.24,0.13,2.38,0.22,3.44,0.27c0.05-1.68,0.3-5.89,1.5-11.53C108.87,78.36,105.69,82.3,103.93,89.62z M95.73,88.21
		c1.53,0.36,3,0.65,4.39,0.88c0.24-2.18,1.14-7.49,4.51-13.82C104.63,75.27,98.04,81.31,95.73,88.21z M86.54,85.38
		c1.9,0.72,3.74,1.34,5.52,1.85c0.6-2.59,2.67-8.86,9.46-15.32C101,72.09,92.69,75.17,86.54,85.38z M77.54,81.29
		c1.65,0.88,3.28,1.67,4.88,2.38c1.66-2.81,6.5-9.62,16.94-15.37C98.71,68.43,88.13,70.68,77.54,81.29z M68.61,75.81
		c1.63,1.14,3.25,2.2,4.85,3.16c8.68-10.67,23.52-14.94,24.44-15.2C80.17,66.24,71.13,73.48,68.61,75.81z M60.33,69.31
		c1.7,1.49,3.39,2.87,5.07,4.16c3.3-3.06,13.05-10.53,32.25-13.73C97.65,59.74,75.36,57.5,60.33,69.31z M106.69,56.31
		c0,0-17.24-13.75-57.58,1.62c2.11,2.46,4.22,4.73,6.34,6.83c5.1-3.46,20.86-12.19,44.7-8.02c0,0-3.49,15.62,14.19,21.89
		c0.14-0.57,0.41-1.32,0.86-2.13C109.64,73.85,101.94,67.92,106.69,56.31z M239.41,89.95c-0.61-5.98-3.29-9.44-3.29-9.44
		c0.91,4.78,0.59,7.84,0.28,9.31C237.16,89.88,238.17,89.94,239.41,89.95z M241.13,78.36c1.2,5.64,1.44,9.85,1.5,11.53
		c1.05-0.05,2.2-0.14,3.44-0.27C244.31,82.3,241.13,78.36,241.13,78.36z M245.37,75.27c3.36,6.33,4.27,11.64,4.51,13.82
		c1.39-0.23,2.85-0.52,4.39-0.88C251.95,81.31,245.37,75.27,245.37,75.27z M248.48,71.91c6.79,6.46,8.86,12.73,9.46,15.32
		c1.77-0.51,3.62-1.13,5.52-1.85C257.31,75.17,249,72.09,248.48,71.91z M250.64,68.3c10.44,5.75,15.27,12.56,16.94,15.37
		c1.6-0.71,3.23-1.5,4.88-2.38C261.86,70.68,251.29,68.43,250.64,68.3z M252.1,63.77c0.92,0.26,15.76,4.53,24.43,15.2
		c1.61-0.96,3.22-2.02,4.86-3.16C278.87,73.48,269.83,66.24,252.1,63.77z M252.35,59.74c19.2,3.2,28.95,10.67,32.25,13.73
		c1.68-1.29,3.36-2.67,5.06-4.16C274.63,57.5,252.35,59.74,252.35,59.74z M243.31,56.31c4.83,11.8-3.22,17.74-8.79,20.32
		c0.44,0.81,0.68,1.56,0.81,2.11c18.05-6.2,14.52-22,14.52-22c23.84-4.17,39.59,4.56,44.7,8.02c2.11-2.1,4.23-4.37,6.34-6.83
		C260.54,42.56,243.31,56.31,243.31,56.31z M292.14,126.87c-31.2-7.83-62.1-11.61-90.8-12.94c0.45-1.11,0.97-2.44,1.51-3.95
		c0.1-0.28,0.2-0.56,0.3-0.85c10.05,0.76,19.45,1.86,28.09,3.14c2.98,0.44,5.86,0.91,8.65,1.39
		C271.73,119.11,291.34,126.56,292.14,126.87z M148.93,114.04c-54.27,2.66-92.33,12.21-94.67,12.81
		c19.1-6.35,37.79-10.79,55.77-13.77c2.57-0.43,5.13-0.82,7.67-1.19c10.01-1.44,19.79-2.44,29.27-3.08c0.13,0.4,0.27,0.78,0.4,1.16
		C147.93,111.53,148.46,112.9,148.93,114.04z"/>
	<text transform="matrix(1 0 0 1 50.5171 155.3223)" class="st19 st20 st21">Auto &amp; Transportation</text>
</g>
<g id="Logo13">
</g>
<g id="Logo14">
</g>
<g id="Layer_15">
</g>
</svg>
