<?xml version="1.0" encoding="utf-8"?>
<!-- Generator: Adobe Illustrator 27.8.1, SVG Export Plug-In . SVG Version: 6.00 Build 0)  -->
<svg version="1.1" xmlns="http://www.w3.org/2000/svg" xmlns:xlink="http://www.w3.org/1999/xlink" x="0px" y="0px"
	 viewBox="0 0 350 230" style="enable-background:new 0 0 350 230;" xml:space="preserve">
<style type="text/css">
	.st0{fill:#003799;}
	.st1{fill:#630000;}
	.st2{fill-rule:evenodd;clip-rule:evenodd;fill:#037FE1;}
	.st3{fill-rule:evenodd;clip-rule:evenodd;}
	.st4{fill-rule:evenodd;clip-rule:evenodd;fill:#562900;}
	.st5{fill-rule:evenodd;clip-rule:evenodd;fill:#00184C;}
	.st6{fill-rule:evenodd;clip-rule:evenodd;fill:#2C2C5B;}
	.st7{fill-rule:evenodd;clip-rule:evenodd;fill:#007C89;}
	.st8{fill:#C97C00;}
	.st9{fill:#7A6B00;}
	.st10{display:none;fill:#C97C00;}
	.st11{font-family:'MagicalMysteryTourOutlineShadow';}
	.st12{font-size:18px;}
	.st13{fill-rule:evenodd;clip-rule:evenodd;fill:#022B18;}
	.st14{fill-rule:evenodd;clip-rule:evenodd;fill:#03113F;}
	.st15{fill:#273F02;}
	.st16{fill:url(#SVGID_1_);}
	.st17{fill:#B62126;}
	.st18{fill:#231F20;}
	.st19{fill:#FFFFFF;}
	.st20{fill:#17629D;}
	.st21{fill:#540159;}
	.st22{fill:#66082A;}
	.st23{display:none;}
	.st24{fill:#005C68;}
	.st25{fill:#563900;}
</style>
<g id="Logo1">
</g>
<g id="Logo2">
</g>
<g id="Logo3">
</g>
<g id="Logo4">
</g>
<g id="Logo5">
</g>
<g id="Logo6">
	<g>
		<path class="st8" d="M175.26,46.82c0.41,1.06,0.86,2.1,1.22,3.17c0.25,0.74,0.66,1.04,1.45,1.05c1.22,0.01,2.43,0.15,4.04,0.26
			c-1.16,0.93-1.97,1.67-2.87,2.28c-0.8,0.55-1.09,1.1-0.7,2.09c0.4,1.01,0.56,2.11,0.86,3.33c-1.54-0.84-2.88-2.15-4.23-2.15
			c-1.28,0-2.56,1.37-4.15,2.32c0.36-1.49,0.6-2.69,0.96-3.86c0.22-0.71,0.07-1.14-0.53-1.56c-0.97-0.68-1.89-1.44-3.04-2.33
			c1.43-0.12,2.6-0.3,3.76-0.29c0.97,0.01,1.42-0.4,1.69-1.28c0.31-1.01,0.75-1.98,1.14-2.97C175,46.85,175.13,46.84,175.26,46.82z"
			/>
		<path class="st9" d="M141.71,115.99c1.53-6.65-5.21-14.59-12.74-14.83c-6.29-0.19-14.61,5.67-13.06,15.83
			c-3.41-1.11-6.8-2.09-10.08-3.37c-0.96-0.38-1.59-1.62-2.37-2.47c0.11-0.15,0.22-0.31,0.33-0.46c2.23,0.57,4.46,1.14,6.7,1.7
			c0.51,0.13,1.03,0.3,1.55,0.35c0.25,0.03,0.51-0.18,0.77-0.28c-0.17-0.26-0.28-0.67-0.51-0.74c-1.48-0.45-2.98-0.85-4.48-1.24
			c-0.94-0.25-1.9-0.44-2.84-0.69c-2.05-0.54-2.47-0.99-2.59-3.1c-0.16-2.63-0.06-5.22,1.29-7.62c1.31-2.33,0.88-4.71-0.08-7.05
			c-0.23-0.57-0.46-1.14-0.73-1.83c1.38-0.13,2.65-0.26,3.92-0.38c3.76-0.35,7.24-1.55,10.62-3.22c7.47-3.7,15-7.25,23.03-9.61
			c4.91-1.44,9.95-1.69,15-1.87c7.01-0.26,14.02-0.37,21,0.43c7.79,0.9,14.93,3.71,21.72,7.51c2.71,1.51,5.39,3.08,8.03,4.7
			c2.18,1.33,4.47,1.95,7.06,1.87c7.74-0.23,15.29,1.02,22.63,3.46c4.28,1.42,8.28,3.38,11.62,6.52c1.83,1.72,2.96,3.78,3.01,6.3
			c0.07,3.14,0.02,6.28,0.02,9.31c-4.55,0.76-8.8,1.47-13.2,2.21c0.77-4.61-0.02-8.73-3.35-12.1c-2.22-2.24-4.96-3.45-8.07-3.61
			c-3.89-0.2-7.2,1.23-9.89,4.06c-2.7,2.84-3.39,6.43-3.6,10.22C188.84,115.99,165.34,115.99,141.71,115.99z M114.35,93.03
			c0.02,0.11,0.05,0.22,0.07,0.33c7.13,0.12,14.26,0.24,21.39,0.35c0.41,0.01,0.83-0.18,1.23-0.15c1.4,0.1,2.8,0.35,4.2,0.38
			c10.19,0.19,20.38,0.3,30.57,0.5c6.92,0.14,13.85,0.29,20.76,0.61c10.77,0.5,21.54,1.05,32.29,1.78
			c5.53,0.38,10.27,2.63,13.67,7.23c0.3,0.41,0.73,0.85,1.19,1c3,0.98,6.09,0.71,9.29,0.63c-0.24-0.93-0.47-1.64-0.61-2.38
			c-0.19-1.04-0.72-1.39-1.81-1.45c-2.61-0.14-5.22-0.42-7.81-0.76c-1.12-0.15-2.19-0.61-3.28-0.92c0.04-0.16,0.08-0.33,0.12-0.49
			c3.76,0.35,7.52,0.7,11.55,1.08c-2.25-2.59-4.8-4.24-7.73-5.2c-10.1-3.29-20.47-5.03-31.09-5.32c-0.75-0.02-1.57-0.24-2.22-0.61
			c-2.23-1.28-4.36-2.72-6.59-4c-5.84-3.33-11.82-6.31-18.56-7.39c-8.06-1.29-16.17-1.34-24.3-1.01c-7.1,0.29-13.82,1.95-20.14,5.29
			c-3.92,2.07-7.95,3.91-11.96,5.8C121.21,89.94,117.77,91.46,114.35,93.03z M206.27,111.83c0.01-0.09,0.02-0.18,0.02-0.27
			c-0.83-0.1-1.67-0.23-2.5-0.29c-7.21-0.53-14.41-1.06-21.62-1.56c-3.14-0.22-6.28-0.37-9.43-0.49c-0.41-0.01-1.14,0.31-1.21,0.6
			c-0.51,2.07,0.11,2.92,2.23,2.89c9.71-0.15,19.41-0.35,29.12-0.56C204.01,112.13,205.14,111.94,206.27,111.83z M143.77,109.82
			c2.35,1.62,23.25,3.42,26.99,2.49c-0.13-1.03-0.25-2.07-0.39-3.23C161.52,109.23,152.77,108.65,143.77,109.82z M186.99,97.46
			c-0.15-0.08-0.26-0.17-0.37-0.18c-4.51-0.31-9.02-0.63-13.54-0.91c-0.32-0.02-0.65,0.19-1.08,0.34
			C173.58,98.18,181.42,98.5,186.99,97.46z M150.34,97.66c0.02-0.16,0.04-0.31,0.06-0.47c-0.49-0.12-0.98-0.29-1.48-0.36
			c-2.9-0.4-5.79-0.81-8.7-1.12c-0.59-0.06-1.23,0.33-1.85,0.51c0.55,0.34,1.09,0.93,1.66,0.97
			C143.45,97.43,146.89,97.52,150.34,97.66z M74.01,162.42c67.23-0.53,134.46-0.34,201.69,0.13c0,0.15,0.01,0.3,0.01,0.45
			c-2.1,0.15-4.19,0.31-6.29,0.44c-9.38,0.61-18.77,1.22-28.15,1.8c-3.06,0.19-6.12,0.27-9.17,0.49c-0.59,0.04-1.32,0.35-1.69,0.78
			c-8.85,10.29-19.29,18.71-30.9,25.63c-7.65,4.56-15.58,8.63-23.41,12.87c-0.49,0.27-1.35,0.37-1.8,0.12
			c-8.51-4.66-17.14-9.13-25.42-14.17c-10.67-6.51-20.4-14.3-28.88-23.56c-0.64-0.69-1.31-1.04-2.27-1.11
			c-9.07-0.66-18.13-1.35-27.2-2.07c-5.51-0.44-11.02-0.95-16.54-1.43C74,162.67,74.01,162.54,74.01,162.42z M127.86,166.93
			c6.24,5.94,12.85,11.07,19.7,15.92c8.34,5.91,17.33,10.71,26.34,15.48c0.79,0.42,1.4,0.51,2.2,0.07
			c6.59-3.64,13.32-7.05,19.77-10.91c8.85-5.3,17.05-11.51,24.37-18.81c0.63-0.63,1.22-1.29,1.84-1.94
			c-1.88-0.12-3.56,0.17-5.22,0.11c-1.48-0.05-2.5,0.58-3.56,1.43c-4.28,3.44-8.48,6.99-12.93,10.2
			c-7.66,5.54-15.88,10.2-24.32,14.44c-0.44,0.22-1.16,0.32-1.57,0.11c-13.96-7-27.2-15.1-38.95-25.47
			c-0.29-0.25-0.64-0.6-0.97-0.61C132.4,166.91,130.25,166.93,127.86,166.93z M180.24,183.89c0.06-0.07,0.12-0.14,0.18-0.21
			c-0.71-2.17-1.43-4.34-2.14-6.5c1.81-1.22,3.51-2.38,5.55-3.76c-1.92,0-3.46-0.08-4.98,0.03c-1.27,0.09-1.88-0.25-2.14-1.6
			c-0.32-1.75-0.95-3.44-1.44-5.16c-0.14,0.01-0.28,0.02-0.42,0.04c-0.66,2.18-1.33,4.36-2.03,6.68c-2.12,0-4.26,0-6.72,0
			c2.15,1.45,4.01,2.7,5.83,3.93c-0.81,2.24-1.55,4.31-2.3,6.38c0.08,0.05,0.15,0.11,0.23,0.16c1.69-1.37,3.39-2.75,5.1-4.13
			C176.77,181.17,178.5,182.53,180.24,183.89z M157.76,171.34c-0.38-1.05-0.69-1.92-1-2.79c-0.14-0.07-0.29-0.14-0.43-0.21
			c-0.07,2.79-1.63,3.49-4.12,3.11c2.42,1.05,2.93,2.67,1.81,4.99c1.1-0.66,1.91-1.51,2.66-1.47c0.82,0.05,1.6,0.92,2.61,1.58
			c-0.36-1.21-0.65-2.2-0.93-3.15c0.96-0.66,1.81-1.24,2.66-1.82c-0.03-0.08-0.07-0.16-0.1-0.24
			C159.88,171.34,158.84,171.34,157.76,171.34z M197.56,171.6c-0.09-0.08-0.18-0.16-0.28-0.25c-0.4-0.02-0.8-0.1-1.18-0.06
			c-1.2,0.14-1.92-0.29-2.12-1.55c-0.07-0.46-0.41-0.88-0.77-1.59c-0.38,1.26-0.65,2.17-0.93,3.11c-1.07,0.05-2.08,0.1-3.08,0.15
			c-0.07,0.11-0.14,0.21-0.21,0.32c2.56,0.85,3.14,2.39,1.69,4.76c1.66-1.53,3.22-2.04,5.08-0.26
			C194.11,173.72,195.68,172.6,197.56,171.6z M246.68,85.41c1.13-8.75,2.24-17.26,3.34-25.78c-0.52-0.16-0.89-0.29-1.27-0.39
			c-12.65-3.48-25.29-6.95-37.94-10.42c-7.09-1.95-14.19-3.87-21.27-5.86c-0.76-0.21-1.66-0.6-2.1-1.2
			c-3.24-4.38-6.38-8.84-9.56-13.27c-0.89-1.24-1.81-2.46-2.77-3.76c-0.38,0.43-0.61,0.64-0.79,0.89
			c-3.56,4.97-7.14,9.94-10.67,14.94c-0.87,1.24-1.85,2.11-3.4,2.53c-17.06,4.64-34.1,9.35-51.15,14.05
			c-3.06,0.84-6.12,1.7-9.31,2.58c1.2,8.36,2.39,16.61,3.6,25.03c-13.57-2.29-26.81-4.53-40.28-6.8c2.17,3.11,4.18,6.02,6.24,8.9
			c0.21,0.29,0.74,0.43,1.14,0.49c7.84,1.24,15.67,2.46,23.52,3.67c2.04,0.31,4.08,0.56,6.05,0.83c0-1.59,0-3.03,0-4.61
			c3.25-0.22,6.46-0.43,9.72-0.65c-0.05-0.28-0.08-0.45-0.11-0.62c-1.11-6.96-2.2-13.92-3.35-20.87c-0.18-1.07,0.18-1.47,1.18-1.73
			c9.63-2.57,19.26-5.16,28.88-7.78c9.19-2.5,18.37-5.07,27.57-7.53c1.15-0.31,1.97-0.78,2.65-1.74c2.34-3.29,4.74-6.53,7.14-9.78
			c0.38-0.51,0.84-0.96,1.31-1.49c0.26,0.31,0.41,0.46,0.54,0.64c2.75,3.7,5.49,7.41,8.26,11.1c0.32,0.43,0.8,0.88,1.29,1.02
			c2.12,0.62,4.29,1.1,6.42,1.69c15.07,4.18,30.14,8.37,45.2,12.56c2.25,0.62,4.49,1.26,6.76,1.89c-1.25,9.15-2.47,18.14-3.69,27.13
			c1.09,0.48,2.09,0.95,3.11,1.36c0.25,0.1,0.58,0.04,0.87,0c4.02-0.63,8.04-1.37,12.07-1.9c7.82-1.04,15.66-1.96,23.49-2.95
			c0.36-0.05,0.85-0.18,1.03-0.44c2.13-2.97,4.22-5.98,6.47-9.21C273.32,80.42,260.07,82.91,246.68,85.41z M275.37,125.87
			c-15.5-0.63-30.96-2.35-46.65-1.7c6.69-2.93,7.67-8.61,6.82-12.81c-0.85-4.22-4.66-7.49-9.12-7.89c-4.9-0.43-9.58,2.41-11.36,6.91
			c-1.05,2.67-1.12,5.37,0.02,8.04c1.15,2.69,3.35,4.33,6.1,5.67h-88.51c7.27-4.74,8.9-11.38,4.45-17.11
			c-3.81-4.91-11.3-5.49-15.97-1.21c-2.99,2.74-4.08,6.18-3.33,10.13c0.74,3.92,3.23,6.51,6.71,8.31
			c-17.18,0.78-34.35,1.56-51.53,2.34c0.01,0.11,0.01,0.22,0.01,0.34c5,0.2,10.01,0.52,15.02,0.56c16.6,0.15,33.19,0.23,49.79,0.28
			c17.84,0.05,35.68,0.06,53.52,0.02c26.4-0.05,52.81,0.48,79.19-1.07c1.62-0.09,3.24-0.27,4.86-0.41
			C275.38,126.14,275.38,126.01,275.37,125.87z M184.97,56.93c-0.06,0.96,0.34,1.32,1.18,1.56c4.99,1.41,9.96,2.88,14.95,4.29
			c9.98,2.82,19.96,5.63,29.95,8.4c1.02,0.28,1.33,0.65,1.12,1.74c-0.6,3.03-1.06,6.09-1.59,9.28c1.95,0.52,3.8,1.01,5.8,1.53
			c0.82-5.65,1.6-11.06,2.38-16.48c-17.96-4.99-35.79-9.94-53.76-14.93C184.99,53.94,185.06,55.44,184.97,56.93z M111.33,66.87
			c0.93,5.94,1.84,11.81,2.78,17.86c1.59-0.78,2.97-1.5,4.37-2.13c0.72-0.33,0.91-0.71,0.77-1.53c-0.53-2.92-0.94-5.86-1.42-8.79
			c-0.16-0.96,0.17-1.38,1.15-1.64c12.03-3.21,24.05-6.47,36.06-9.73c3.2-0.87,6.4-1.77,9.56-2.65c0-1.94,0-3.74,0-5.82
			C146.76,57.27,129.08,62.06,111.33,66.87z M251.69,99.28c0.23,0.27,0.77,0.39,1.17,0.4c5.76,0.14,11.52,0.24,17.28,0.39
			c0.83,0.02,1.4-0.19,1.89-0.89c1.54-2.22,3.15-4.39,4.71-6.59c0.52-0.73,0.96-1.52,1.6-2.55c-10.87,1.33-21.39,2.62-31.14,3.82
			C248.58,95.53,250.11,97.43,251.69,99.28z M78.08,99.08c0.23,0.31,0.83,0.47,1.26,0.48c6.25,0.1,12.51,0.16,18.77,0.23
			c2.14,0.02,2.37-0.17,2.95-2.24c0.08-0.3,0.15-0.6,0.21-0.91c0.25-1.5-0.17-2.15-1.63-2.46c-0.65-0.14-1.31-0.23-1.97-0.33
			c-6.27-0.95-12.53-1.89-18.8-2.84c-2.39-0.36-4.77-0.77-7.52-1.21C73.71,93.09,75.87,96.11,78.08,99.08z M80.03,101.83
			c0.21,0.35,0.41,0.74,0.67,1.09c1.59,2.24,3.22,4.45,4.78,6.71c0.46,0.67,0.98,0.87,1.76,0.87c3.72-0.02,7.45,0.03,11.17,0.04
			c0.59,0,1.19-0.05,1.42-0.06c-0.22-2.91-0.43-5.66-0.65-8.64C92.89,101.83,86.49,101.83,80.03,101.83z M262.27,110.67
			c0.43,0.02,0.99-0.34,1.3-0.69c1.14-1.3,2.2-2.67,3.27-4.02c0.87-1.09,1.71-2.21,2.8-3.61c-5.67,0-10.96,0-16.1,0
			c0.2,2.47,0.41,5.04,0.63,7.75C256.8,110.3,259.53,110.54,262.27,110.67z M164,79.9c-0.2-0.73-0.55-0.88-1.22-0.84
			c-2.43,0.16-4.88,0.21-7.3,0.46c-3.62,0.37-7.38,0.64-10.43,2.77c-3.7,2.57-7.11,5.56-10.64,8.37c-0.13,0.1-0.21,0.27-0.52,0.67
			c11.27,0,22.29,0,33.41,0C166.2,87.54,165.07,83.73,164,79.9z M168.31,80.36c1.14,3.35,2.33,6.69,3.39,10.07
			c0.3,0.95,0.74,1.2,1.68,1.21c9.67,0.1,19.34,0.25,29.01,0.38c0.26,0,0.53-0.06,0.89-0.11c-10.64-7.67-21.9-13.19-35.38-12.86
			C168.05,79.53,168.17,79.95,168.31,80.36z M132.82,115.63c-2.37,0.26-3.31-0.21-4.39-2.32c-0.72-1.42-1.35-2.88-2.05-4.31
			c-0.3-0.6-0.7-1.16-1.05-1.73c-3.5,2.1-4.85,5.21-3.83,8.5c1.02,3.28,4.27,5.54,7.58,5.27c3.03-0.25,5.9-2.73,6.37-5.67
			C134.55,115.46,133.68,115.53,132.82,115.63z M129.69,112.08c-0.84,1.67,0.03,2.99,1.92,2.86c1.41-0.09,2.8-0.32,4.27-0.5
			c-0.03-2.98-1.01-5.38-3.78-7.08C131.26,109.01,130.46,110.54,129.69,112.08z M126.2,107.11c0.82,1.56,1.64,3.11,2.59,4.92
			c0.96-1.86,1.74-3.37,2.71-5.25c-1.93-0.09-3.51-0.16-5.09-0.23C126.35,106.73,126.28,106.92,126.2,107.11z"/>
	</g>
	<text transform="matrix(1 0 0 1 58.6582 147.5806)" class="st10 st11 st12">AUTO &amp; TRANPORTATION</text>
</g>
<g id="Logo7">
</g>
<g id="Logo8">
</g>
<g id="Logo9">
</g>
<g id="Logo10">
</g>
<g id="Logo11">
</g>
<g id="Logo12">
</g>
<g id="Logo13">
</g>
<g id="Logo14">
</g>
<g id="Layer_15">
</g>
</svg>
