<?xml version="1.0" encoding="utf-8"?>
<!-- Generator: Adobe Illustrator 27.8.1, SVG Export Plug-In . SVG Version: 6.00 Build 0)  -->
<svg version="1.1" xmlns="http://www.w3.org/2000/svg" xmlns:xlink="http://www.w3.org/1999/xlink" x="0px" y="0px"
	 viewBox="0 0 350 230" style="enable-background:new 0 0 350 230;" xml:space="preserve">
<style type="text/css">
	.st0{fill:#003799;}
	.st1{fill:#630000;}
	.st2{fill-rule:evenodd;clip-rule:evenodd;fill:#037FE1;}
	.st3{fill-rule:evenodd;clip-rule:evenodd;}
	.st4{fill-rule:evenodd;clip-rule:evenodd;fill:#562900;}
	.st5{fill-rule:evenodd;clip-rule:evenodd;fill:#00184C;}
	.st6{fill-rule:evenodd;clip-rule:evenodd;fill:#2C2C5B;}
	.st7{fill-rule:evenodd;clip-rule:evenodd;fill:#007C89;}
	.st8{display:none;fill:#2C2C5B;}
	.st9{font-family:'NofexRegular';}
	.st10{font-size:19.726px;}
	.st11{fill:#C97C00;}
	.st12{fill:#7A6B00;}
	.st13{fill-rule:evenodd;clip-rule:evenodd;fill:#022B18;}
	.st14{fill-rule:evenodd;clip-rule:evenodd;fill:#03113F;}
	.st15{fill:#273F02;}
	.st16{fill:url(#SVGID_1_);}
	.st17{fill:#B62126;}
	.st18{fill:#231F20;}
	.st19{fill:#FFFFFF;}
	.st20{fill:#17629D;}
	.st21{fill:#540159;}
	.st22{fill:#66082A;}
	.st23{display:none;}
	.st24{fill:#005C68;}
	.st25{fill:#563900;}
</style>
<g id="Logo1">
</g>
<g id="Logo2">
</g>
<g id="Logo3">
</g>
<g id="Logo4">
</g>
<g id="Logo5">
	<g>
		<path class="st6" d="M220.35,94.91c-3.3,2.66-7.52,5.78-12.67,9.36c2.45-2.66,4.48-5.08,6.1-7.28l-14.7,4.64
			c-0.21,3.21-0.15,5.95,0.18,8.24c-2.28,1.46-4.57,2.89-6.87,4.3c-0.74,0.45-1.48,0.9-2.22,1.34l-0.09,0.05
			c-3.46,2.08-6.96,4.11-10.49,6.07h0c-2.08,1.15-4.2,2.31-6.38,3.46l-0.1,0.06c-15.84,8.36-30.97,14.55-49.48,14.57
			c-4.94,0-12.84-0.85-20.3-2.88c-0.09-13-0.41-25.74-0.98-38.84c-0.33-7.63,4.36-13.85,8.77-19.81c-0.98-1.63-1.47-2.44-1.47-2.44
			c-6.46,0.7-10.76-0.63-12.89-3.98c-5.04-7.92,9.83-11.82,14.41-6.95c1.44,1.52,2.18,4.07,2.23,7.64c0.04,0.05,0.08,0.09,0.14,0.14
			l5.6-14.37c2.68-6.89,5.09-11.03,8.68-13.61c3.62-2.6,8.12-3.39,14.98-3.59c2.7-0.08,6.26-0.17,10.67-0.27
			c9.32-0.22,16.39-0.22,25.71,0c4.41,0.1,7.97,0.19,10.67,0.27c6.87,0.2,11.36,0.99,14.98,3.59c3.6,2.58,6,6.72,8.68,13.61
			l5.6,14.37c0.05-0.05,0.1-0.09,0.14-0.14c0.05-3.57,0.79-6.12,2.23-7.64c4.58-4.86,19.44-0.96,14.41,6.95
			c-2.13,3.35-6.43,4.68-12.89,3.98c0,0-0.49,0.81-1.47,2.44c1.83,2.48,3.71,5,5.26,7.65c-0.15,1.17-0.17,2.36-0.04,3.55
			C224.71,91.29,222.56,93.14,220.35,94.91L220.35,94.91L220.35,94.91L220.35,94.91z M168.43,125.15c2.15-1.22,4.23-2.39,6.23-3.51
			h-38.62v3.51H168.43L168.43,125.15z M179.33,119.03c2.22-1.23,4.33-2.41,6.35-3.51h-49.63v3.51H179.33L179.33,119.03z
			 M127.87,118.18c4.42-1.21,6.31-6.73,5.67-16.55c-15.8-4.99-23.69-7.48-23.69-7.48c-0.68,10.28-1.02,15.42-1.02,15.42
			C121.52,115.3,127.87,118.18,127.87,118.18L127.87,118.18z M214.23,73.87l-5.39-13.82c-2.32-5.95-4.26-9.44-6.94-11.36
			c-2.65-1.91-6.36-2.5-12.21-2.67c-2.81-0.08-6.36-0.17-10.65-0.27c-8.61-0.2-16.87-0.2-25.47,0c-4.29,0.1-7.84,0.19-10.65,0.27
			c-5.84,0.17-9.55,0.76-12.21,2.67c-2.68,1.92-4.62,5.4-6.94,11.36l-5.39,13.82C131.04,75.52,201.58,75.52,214.23,73.87z"/>
		<path class="st7" d="M237.58,98.17c-18.39,14.26-43.03,30.53-66.16,40.39c-18.16,7.75-39.5,12.21-59.16,9.64
			c-41.9-5.48-45.75-30.75-16.84-53.95v1.23c-9.57,9.16-14.71,17.19-15.43,24.08c-1.95,18.7,30.34,24.14,43.64,24.12
			c20.63-0.02,37.05-7.27,54.82-16.89c19.62-10.63,41.8-25.28,52.59-36.05c-1.33-4.83,0.7-10.13,5.24-12.75
			c5.39-3.11,12.28-1.27,15.4,4.13c3.11,5.39,1.27,12.29-4.13,15.4C244.38,99.34,240.71,99.46,237.58,98.17L237.58,98.17z
			 M102.48,89.07v0.11c0.23-0.19,0.46-0.38,0.69-0.58C102.94,88.76,102.71,88.92,102.48,89.07L102.48,89.07z M244.33,91.97
			c2.33-1.34,3.12-4.32,1.78-6.64c-1.34-2.33-4.32-3.12-6.64-1.78c-2.33,1.34-3.12,4.32-1.78,6.64
			C239.03,92.52,242,93.31,244.33,91.97z M258.08,93.19c-17.76,20.68-54.61,43.79-78.76,53.9c-27.27,11.42-53.95,13.04-80.03,4.87
			c-37.03-11.6-33.28-37.27-5.95-60.48c-34.67,26.67-32.93,53.13,7.37,66.98c23.98,8.24,49.7,7.68,77.16-1.68
			c32.5-11.09,63.66-30.41,88.4-54.26c2.95,0.87,6.24,0.58,9.11-1.08c5.56-3.21,7.47-10.32,4.26-15.88
			c-3.21-5.56-10.32-7.47-15.88-4.26C259.46,83.78,257.35,88.57,258.08,93.19L258.08,93.19z M271.84,95.31
			c-2.18,1.26-4.96,0.51-6.22-1.67c-1.26-2.18-0.51-4.96,1.67-6.22c2.18-1.26,4.96-0.51,6.22,1.67
			C274.77,91.27,274.02,94.06,271.84,95.31z"/>
	</g>
	<text transform="matrix(1 0 0 1 18.8008 184.4336)" class="st8 st9 st10">Auto &amp; transportation</text>
</g>
<g id="Logo6">
</g>
<g id="Logo7">
</g>
<g id="Logo8">
</g>
<g id="Logo9">
</g>
<g id="Logo10">
</g>
<g id="Logo11">
</g>
<g id="Logo12">
</g>
<g id="Logo13">
</g>
<g id="Logo14">
</g>
<g id="Layer_15">
</g>
</svg>
