<?xml version="1.0" encoding="utf-8"?>
<!-- Generator: Adobe Illustrator 27.8.1, SVG Export Plug-In . SVG Version: 6.00 Build 0)  -->
<svg version="1.1" xmlns="http://www.w3.org/2000/svg" xmlns:xlink="http://www.w3.org/1999/xlink" x="0px" y="0px"
	 viewBox="0 0 350 230" style="enable-background:new 0 0 350 230;" xml:space="preserve">
<style type="text/css">
	.st0{fill:#003799;}
	.st1{fill:#630000;}
	.st2{fill-rule:evenodd;clip-rule:evenodd;fill:#037FE1;}
	.st3{fill-rule:evenodd;clip-rule:evenodd;}
	.st4{fill-rule:evenodd;clip-rule:evenodd;fill:#562900;}
	.st5{fill-rule:evenodd;clip-rule:evenodd;fill:#00184C;}
	.st6{fill-rule:evenodd;clip-rule:evenodd;fill:#2C2C5B;}
	.st7{fill-rule:evenodd;clip-rule:evenodd;fill:#007C89;}
	.st8{fill:#C97C00;}
	.st9{fill:#7A6B00;}
	.st10{fill-rule:evenodd;clip-rule:evenodd;fill:#022B18;}
	.st11{fill-rule:evenodd;clip-rule:evenodd;fill:#03113F;}
	.st12{display:none;fill:#022B18;}
	.st13{font-family:'PlayfairDisplay-Regular';}
	.st14{font-size:30px;}
	.st15{fill:#273F02;}
	.st16{fill:url(#SVGID_1_);}
	.st17{fill:#B62126;}
	.st18{fill:#231F20;}
	.st19{fill:#FFFFFF;}
	.st20{fill:#17629D;}
	.st21{fill:#540159;}
	.st22{fill:#66082A;}
	.st23{display:none;}
	.st24{fill:#005C68;}
	.st25{fill:#563900;}
</style>
<g id="Logo1">
</g>
<g id="Logo2">
</g>
<g id="Logo3">
</g>
<g id="Logo4">
</g>
<g id="Logo5">
</g>
<g id="Logo6">
</g>
<g id="Logo7">
	<g>
		<path class="st10" d="M134.06,140.19c-0.85,1.99-2.09,3.21-3.48,3.21c-4.28,0-3.97,0-8.61,0c-3.02,0-5.45-4.42-5.45-9.88
			c0-0.47,0.04-0.92,0.07-1.37l-0.36-0.27l-0.69-3.5l0.43-0.51c0.33-3.65-0.4-11.36,1.41-19.45c1.77-8.07,5.4-13.99,6.97-17.48
			c1.57-3.48,4.75-7.04,4.75-7.04s-4.33-0.51-6.43-1.14c-2.08-0.63-2.28-2.62-2.28-2.62c0.2-2.47,2.58-3.74,5.98-3.92
			c3.41-0.18,5.15,0.79,5.24,1.32c0.09,0.51-0.27,1.16-0.07,1.75c0.18,0.6,1.16,0.45,1.16,0.45s3.11-5.72,5.92-9.55
			c2.8-3.83,5.33-7.29,8.09-9.52c2.78-2.2,5.18-2.18,5.45-2.24c0.29-0.07,0.43-0.16,1.17-1.12c0.72-0.94,1.75-1.19,1.75-1.19
			s-0.02-1.72,0-2.85c0-1.14,1.01-0.85,1.01-0.85l10.47,0.09c0,0,0.92,0.02,1.19,0.31c0.27,0.29,0.54,1.53,0.54,1.53v-4.1
			c0,0,0.74-0.07,0.92,0c0.18,0.07,0.18,0.16,0.18,0.16l5.62,0.14l5.6-0.14c0,0,0.02-0.09,0.2-0.16c0.18-0.07,0.92,0,0.92,0v4.1
			c0,0,0.27-1.25,0.54-1.53c0.27-0.29,1.19-0.31,1.19-0.31l10.47-0.09c0,0,0.99-0.29,1.01,0.85c0.02,1.14,0,2.85,0,2.85
			s1.01,0.25,1.75,1.19c0.74,0.96,0.87,1.05,1.16,1.12c0.29,0.05,2.69,0.04,5.45,2.24c2.78,2.22,5.31,5.69,8.11,9.52
			c2.82,3.83,5.9,9.55,5.9,9.55s0.99,0.14,1.17-0.45c0.18-0.6-0.16-1.25-0.07-1.75c0.09-0.52,1.82-1.5,5.22-1.32
			c3.41,0.18,5.8,1.44,5.98,3.92c0,0-0.18,1.99-2.28,2.62c-2.08,0.63-6.41,1.14-6.41,1.14s3.18,3.56,4.75,7.04
			c1.57,3.48,5.18,9.41,6.97,17.48c1.81,8.09,1.08,15.8,1.41,19.45l0.43,0.51l-0.69,3.5l-0.36,0.27c0.05,0.45,0.05,0.9,0.05,1.37
			c0,5.45-2.44,9.88-5.44,9.88c-4.64,0-4.33,0-8.63,0c-1.37,0-2.62-1.23-3.47-3.21c-10.53,0.96-29.22,2.55-40.95,2.83
			C163.27,142.73,144.58,141.14,134.06,140.19L134.06,140.19z M175.01,56.89l-17.68-0.56c0,0-1.61-0.2-2.67,1.01
			c-1.1,1.21-1.08,1.25-1.08,1.25s1.73-0.74,5.92-0.85c3.59-0.09,12.95-0.16,15.51-0.18c2.55,0.02,11.9,0.09,15.51,0.18
			c4.19,0.11,5.92,0.85,5.92,0.85s0.02-0.04-1.08-1.25c-1.07-1.21-2.67-1.01-2.67-1.01L175.01,56.89L175.01,56.89z M175.01,60.43
			c0,0-17.88-0.07-25.5,1.19c0,0-1.84,0.05-3.79,2.65c-1.95,2.58-9.06,13.4-9.06,13.4s-1.1,2.17,2.38,2.24
			c3.48,0.09,26.92-0.54,35.97-0.63c9.05,0.09,32.47,0.72,35.97,0.63c3.47-0.07,2.38-2.24,2.38-2.24s-7.11-10.82-9.06-13.4
			c-1.97-2.6-3.79-2.65-3.79-2.65C192.88,60.36,175.01,60.43,175.01,60.43L175.01,60.43z M175.01,104.09c0,0-18-0.43-29.67,0.76
			c-3.99-4.98-20.26-18.8-22.88-6.72c-1.03,4.68-0.85,8,0,8.56c0.81,0.52,37.7,5.07,52.55,5.22c14.82-0.14,51.73-4.69,52.55-5.22
			c0.85-0.56,1.03-3.88,0-8.56c-2.64-12.08-18.91,1.73-22.88,6.72C193.01,103.66,175.01,104.09,175.01,104.09L175.01,104.09z
			 M175.01,116.06l-19.03-0.47c-2.49-0.05-3.12,0.87-3.12,3.12c0,0.87-0.18,5.49-0.25,7.73l-17.24-0.36c0,0-5.4-0.56-4.62,0.67
			c0.76,1.25,3.36,4.95,7.51,5.8c3.65,0.74,30.06,2.13,36.76,2.47c6.68-0.34,33.12-1.73,36.75-2.47c4.17-0.85,6.77-4.55,7.53-5.8
			c0.76-1.23-4.64-0.67-4.64-0.67l-17.23,0.36c-0.09-2.24-0.25-6.86-0.25-7.73c0-2.26-0.63-3.18-3.12-3.12L175.01,116.06
			L175.01,116.06z M210.76,131.54c0,0-28.67,1.12-35.75,1.34c-7.08-0.22-35.75-1.34-35.75-1.34c1.03,1.01,32.81,2.15,35.75,2.24
			C177.93,133.69,209.73,132.55,210.76,131.54L210.76,131.54z M213.43,129.5c0,0-31.15,0.88-38.43,1.08
			c-7.28-0.2-38.42-1.08-38.42-1.08c1.44,1.34,35.41,1.95,38.42,2C178.02,131.45,211.99,130.83,213.43,129.5L213.43,129.5z
			 M217.44,127.08c0,0-34.87,0.78-42.43,0.96c-7.57-0.18-42.43-0.96-42.43-0.96c1.46,1.35,39.26,1.82,42.43,1.88
			C178.19,128.9,216,128.43,217.44,127.08L217.44,127.08z M195.85,126.5c0-2.65-0.22-5.35-0.34-7.98c0,0-0.04-1.41-1.07-1.37
			c-6.48,0.27-12.93,0.34-19.43,0.38c-6.5-0.04-12.95-0.11-19.43-0.38c-1.03-0.04-1.07,1.37-1.07,1.37
			c-0.14,2.64-0.34,5.33-0.34,7.98c0,0,14.84,0.52,20.84,0.33C181,127.02,195.85,126.5,195.85,126.5L195.85,126.5z M229.7,114.85
			c0,0-6.12,0.07-8.58,2.8c-2.47,2.73-1.75,5.4,0.58,5.53l2.38-0.98c0,0-1.54-0.51-0.81-2.47c0.72-1.95,2.4-3.43,5.98-3.99
			c0,0,0.61,4.59-1.62,5.71c0,0,0.16,0.47,1.1,0.22C229.67,121.41,230.7,116.15,229.7,114.85L229.7,114.85z M201.06,109.38l2.6-3.74
			c0,0-11.66-1.03-22.64-0.65c0,0,17.46,1.12,19.81,1.53l-2.02,3.2L201.06,109.38L201.06,109.38z M211.09,99.74
			c0,0,3.14-2.2,5.9-2.26c8.83-0.13,0.98,11.86-10.22,6.23l-0.09,0.09c-0.05,0.45-0.09,0.92-0.09,1.39c0,1.17,0.22,2.31,0.6,3.36
			c3.48-0.38,6.99-0.79,10.47-1.25c2.22-0.27,4.44-0.54,6.64-0.87c0.52-0.07,1.03-0.16,1.55-0.25c0.02-0.33,0.04-0.65,0.04-0.99
			C225.89,96.33,218.11,93.38,211.09,99.74L211.09,99.74z M120.31,114.85c-0.98,1.3,0.04,6.55,0.98,6.81
			c0.92,0.25,1.1-0.22,1.1-0.22c-2.26-1.12-1.61-5.71-1.61-5.71c3.56,0.56,5.24,2.04,5.94,3.99c0.74,1.97-0.79,2.47-0.79,2.47
			l2.38,0.98c2.33-0.13,3.05-2.8,0.6-5.53C126.44,114.92,120.31,114.85,120.31,114.85L120.31,114.85z M148.95,109.38l2.26,0.34
			l-2.02-3.2c2.35-0.42,19.81-1.53,19.81-1.53c-10.98-0.38-22.64,0.65-22.64,0.65L148.95,109.38L148.95,109.38z M138.93,99.74
			c-7.02-6.36-14.83-3.41-14.83,5.45c0,0.34,0.04,0.67,0.05,0.99c0.52,0.09,1.03,0.18,1.55,0.25c2.2,0.33,4.42,0.6,6.64,0.87
			c3.48,0.45,6.97,0.87,10.47,1.25c0.38-1.05,0.6-2.18,0.6-3.36c0-0.47-0.04-0.94-0.11-1.39l-0.09-0.09
			c-11.18,5.63-19.03-6.36-10.2-6.23C135.79,97.54,138.93,99.74,138.93,99.74z"/>
		<path class="st11" d="M130.79,47.48c7.82,0,15.31,1.34,22.28,3.79c-0.4,0.54-0.63,1.23-0.63,1.99c0,0.47,0,0.94,0,1.41
			c-0.49,0.36-0.92,0.76-1.25,1.19c-0.07,0.09-0.14,0.2-0.23,0.31c-1.57,0.23-2.93,0.69-4.23,1.44L129.49,47.5
			C129.92,47.5,130.35,47.48,130.79,47.48L130.79,47.48z M133.42,73.27c2.06-3.3,4.77-7.22,7.49-10.42L117.1,48.89
			c-7.93,1.64-15.33,4.69-21.96,8.87L133.42,73.27L133.42,73.27z M122.72,88.4L76.44,75.33c3.3-4.6,7.2-8.78,11.56-12.41
			l31.92,12.93c-1.19,0.96-2,2.29-2.15,4.12l-0.02,0.2l0.02,0.2c0.22,2.2,1.88,4.04,3.95,4.68c0.81,0.25,1.73,0.45,2.69,0.63
			C123.8,86.56,123.22,87.5,122.72,88.4L122.72,88.4z M115.91,103.75c0.72-2.31,1.61-4.55,2.6-6.75c0.27-0.61,0.56-1.19,0.85-1.79
			L72.23,81.9c-2.22,3.97-4.04,8.2-5.42,12.62L115.91,103.75L115.91,103.75z M113.45,120.88l-49.64-4.04
			c-0.02-0.78-0.04-1.55-0.04-2.35c0-4.35,0.43-8.59,1.21-12.71l49.22,9.23c-0.45,2.91-0.65,5.81-0.72,8.76
			C113.47,120.13,113.47,120.5,113.45,120.88L113.45,120.88z M114.26,137.44H67.81c-1.52-4.17-2.62-8.54-3.29-13.06l48.32,3.94
			l0.96,4.89l0.09,0.07c0,0.09,0,0.16,0,0.23C113.89,134.82,114.01,136.14,114.26,137.44z M219.23,47.48
			c-7.82,0-15.31,1.34-22.28,3.79c0.38,0.54,0.61,1.23,0.63,1.99c0,0.47,0,0.94,0,1.41c0.47,0.36,0.9,0.76,1.25,1.19
			c0.07,0.09,0.14,0.2,0.23,0.31c1.57,0.23,2.93,0.69,4.23,1.44l17.24-10.11C220.1,47.5,219.66,47.48,219.23,47.48L219.23,47.48z
			 M216.57,73.27c-2.04-3.3-4.75-7.22-7.48-10.42l23.82-13.96c7.93,1.64,15.33,4.69,21.96,8.87L216.57,73.27L216.57,73.27z
			 M227.3,88.4l46.28-13.07c-3.32-4.6-7.2-8.78-11.57-12.41l-31.89,12.93c1.17,0.96,1.99,2.29,2.13,4.12l0.02,0.2l-0.02,0.2
			c-0.22,2.2-1.88,4.04-3.95,4.68c-0.83,0.25-1.75,0.45-2.69,0.63C226.22,86.56,226.8,87.5,227.3,88.4L227.3,88.4z M234.11,103.75
			c-0.72-2.31-1.61-4.55-2.6-6.75c-0.27-0.61-0.56-1.19-0.83-1.79l47.11-13.31c2.2,3.97,4.04,8.2,5.42,12.62L234.11,103.75
			L234.11,103.75z M236.55,120.88l49.66-4.04c0.02-0.78,0.02-1.55,0.02-2.35c0-4.35-0.4-8.59-1.19-12.71l-49.22,9.23
			c0.43,2.91,0.65,5.81,0.72,8.76C236.55,120.13,236.55,120.5,236.55,120.88L236.55,120.88z M235.75,137.44h46.44
			c1.53-4.17,2.64-8.54,3.3-13.06l-48.34,3.94l-0.94,4.89l-0.09,0.07c0,0.09,0,0.16,0,0.23
			C236.13,134.82,236.02,136.14,235.75,137.44z"/>
	</g>
	<text transform="matrix(1 0 0 1 21.8208 175.2806)" class="st12 st13 st14">Auto &amp; Transportation</text>
</g>
<g id="Logo8">
</g>
<g id="Logo9">
</g>
<g id="Logo10">
</g>
<g id="Logo11">
</g>
<g id="Logo12">
</g>
<g id="Logo13">
</g>
<g id="Logo14">
</g>
<g id="Layer_15">
</g>
</svg>
