<?xml version="1.0" encoding="utf-8"?>
<!-- Generator: Adobe Illustrator 27.8.1, SVG Export Plug-In . SVG Version: 6.00 Build 0)  -->
<svg version="1.1" xmlns="http://www.w3.org/2000/svg" xmlns:xlink="http://www.w3.org/1999/xlink" x="0px" y="0px"
	 viewBox="0 0 350 230" style="enable-background:new 0 0 350 230;" xml:space="preserve">
<style type="text/css">
	.st0{fill:#003799;}
	.st1{fill:#630000;}
	.st2{display:none;fill:#630000;}
	.st3{font-family:'MidnightDayRegular';}
	.st4{font-size:30px;}
	.st5{fill-rule:evenodd;clip-rule:evenodd;fill:#037FE1;}
	.st6{fill-rule:evenodd;clip-rule:evenodd;}
	.st7{fill-rule:evenodd;clip-rule:evenodd;fill:#562900;}
	.st8{fill-rule:evenodd;clip-rule:evenodd;fill:#00184C;}
	.st9{fill-rule:evenodd;clip-rule:evenodd;fill:#2C2C5B;}
	.st10{fill-rule:evenodd;clip-rule:evenodd;fill:#007C89;}
	.st11{fill:#C97C00;}
	.st12{fill:#7A6B00;}
	.st13{fill-rule:evenodd;clip-rule:evenodd;fill:#022B18;}
	.st14{fill-rule:evenodd;clip-rule:evenodd;fill:#03113F;}
	.st15{fill:#273F02;}
	.st16{fill:url(#SVGID_1_);}
	.st17{fill:#B62126;}
	.st18{fill:#231F20;}
	.st19{fill:#FFFFFF;}
	.st20{fill:#17629D;}
	.st21{fill:#540159;}
	.st22{fill:#66082A;}
	.st23{display:none;}
	.st24{fill:#005C68;}
	.st25{fill:#563900;}
</style>
<g id="Logo1">
</g>
<g id="Logo2">
	<g>
		<path d="M266.46,112.45c-6.03,0-14.02,0-22.33,0l-14.87,11.36c-5.92,4.52-13.25,6.77-20.68,6.35l-50.51-2.83h48.05
			c7.16,0,14.11-2.46,19.67-6.98l9.73-7.9c-17.65,0-34.23,0-34.23,0s19.97-2.42,29.37-6.76c0,0-56.68-28.08-91.2,4.64
			c0,0,22.16,1.03,38.64-0.77c-27.95,14.68-86.5-4.06-122.37,26.02c0,0,7.47-25.05,74.45-24.73c0,0,21.13-30.14,70.59-19.06
			c49.46,11.08,56.42,15.72,74.2,16.75c17.78,1.03,19.32,19.58,19.32,19.58S287.33,112.45,266.46,112.45z"/>
		<path class="st1" d="M97.11,163.77c5.9,0,11.12-2.93,14.28-7.42c1.45-2.05,3.84-3.23,6.35-3.23h115.45c2.53,0,4.85,1.28,6.32,3.34
			c3.97,5.55,11.01,8.48,18.08,6.88c6.25-1.42,10.94-6.03,12.76-11.72l-14.79,3.36l-6.95-7.51l3.02-9.78l14.78-3.36
			c-4.1-4.35-10.32-6.47-16.57-5.05c-4.33,0.99-7.92,3.51-10.32,6.86c-1.49,2.09-3.87,3.36-6.44,3.36H117.74
			c-2.58,0-4.95-1.29-6.46-3.38c-3.34-4.64-8.9-7.57-15.13-7.24c-8.99,0.48-16.24,7.91-16.5,16.91
			C79.37,155.67,87.29,163.77,97.11,163.77z M120.85,146.31c0-2.07,1.68-3.75,3.75-3.75H225.4c2.07,0,3.75,1.68,3.75,3.75
			s-1.68,3.75-3.75,3.75H124.6C122.53,150.06,120.85,148.38,120.85,146.31z M86.68,146.31l5.22-9.03h10.43l5.22,9.03l-5.22,9.03
			H91.89L86.68,146.31z M249.57,81.42c-2.43-0.57-4.44-2.31-5.33-4.64c-0.51-1.34-1.06-2.66-1.64-3.96
			c-1.02-2.29-0.83-4.93,0.48-7.06l5.67-9.18l-27.21-27.21l-9.18,5.67c-2.13,1.32-4.77,1.51-7.06,0.48
			c-1.3-0.59-2.62-1.13-3.96-1.64c-2.34-0.89-4.07-2.89-4.64-5.33l-2.47-10.5h-38.48l-2.48,10.5c-0.57,2.43-2.31,4.44-4.64,5.33
			c-1.34,0.51-2.66,1.06-3.96,1.64c-2.29,1.02-4.93,0.83-7.06-0.48l-9.18-5.67l-27.21,27.21l5.67,9.18
			c1.32,2.13,1.51,4.77,0.49,7.06c-0.59,1.3-1.13,2.62-1.64,3.96c-0.89,2.34-2.89,4.07-5.33,4.64l-10.5,2.48v24.06
			c7.07-1.6,15.49-2.81,25.53-3.39c-0.01-0.48-0.02-0.95-0.02-1.43c0-32.89,26.66-59.55,59.55-59.55
			c29.43,0,53.87,21.34,58.69,49.39c4.59,1.18,8.53,2.23,12.02,3.16c5.78,1.54,10.27,2.74,14.36,3.64V83.9L249.57,81.42z"/>
	</g>
	<text transform="matrix(1 0 0 1 50.5169 191.7596)" class="st2 st3 st4">Auto &amp; Transportation</text>
</g>
<g id="Logo3">
</g>
<g id="Logo4">
</g>
<g id="Logo5">
</g>
<g id="Logo6">
</g>
<g id="Logo7">
</g>
<g id="Logo8">
</g>
<g id="Logo9">
</g>
<g id="Logo10">
</g>
<g id="Logo11">
</g>
<g id="Logo12">
</g>
<g id="Logo13">
</g>
<g id="Logo14">
</g>
<g id="Layer_15">
</g>
</svg>
