<?xml version="1.0" encoding="utf-8"?>
<!-- Generator: Adobe Illustrator 27.8.1, SVG Export Plug-In . SVG Version: 6.00 Build 0)  -->
<svg version="1.1" xmlns="http://www.w3.org/2000/svg" xmlns:xlink="http://www.w3.org/1999/xlink" x="0px" y="0px"
	 viewBox="0 0 350 230" style="enable-background:new 0 0 350 230;" xml:space="preserve">
<style type="text/css">
	.st0{fill:#003799;}
	.st1{fill:#630000;}
	.st2{fill-rule:evenodd;clip-rule:evenodd;fill:#037FE1;}
	.st3{fill-rule:evenodd;clip-rule:evenodd;}
	.st4{fill-rule:evenodd;clip-rule:evenodd;fill:#562900;}
	.st5{fill-rule:evenodd;clip-rule:evenodd;fill:#00184C;}
	.st6{fill-rule:evenodd;clip-rule:evenodd;fill:#2C2C5B;}
	.st7{fill-rule:evenodd;clip-rule:evenodd;fill:#007C89;}
	.st8{fill:#C97C00;}
	.st9{fill:#7A6B00;}
	.st10{fill-rule:evenodd;clip-rule:evenodd;fill:#022B18;}
	.st11{fill-rule:evenodd;clip-rule:evenodd;fill:#03113F;}
	.st12{fill:#273F02;}
	.st13{fill:url(#SVGID_1_);}
	.st14{fill:#B62126;}
	.st15{fill:#231F20;}
	.st16{fill:#FFFFFF;}
	.st17{fill:#17629D;}
	.st18{display:none;fill:#17629D;}
	.st19{font-family:'MidnightDayRegular';}
	.st20{font-size:30px;}
	.st21{fill:#540159;}
	.st22{fill:#66082A;}
	.st23{display:none;}
	.st24{fill:#005C68;}
	.st25{fill:#563900;}
</style>
<g id="Logo1">
</g>
<g id="Logo2">
</g>
<g id="Logo3">
</g>
<g id="Logo4">
</g>
<g id="Logo5">
</g>
<g id="Logo6">
</g>
<g id="Logo7">
</g>
<g id="Logo8">
</g>
<g id="Logo9">
</g>
<g id="Logo10">
</g>
<g id="Logo11">
	<g>
		<path class="st15" d="M135.14,57.85l0.01,0.16c0,0-0.4-0.19-1.2-0.45c1.64-0.4,3.88-0.89,6.74-1.38
			c6.78-1.17,16.37-2.96,29.99-2.96c1.68,0,3.13-0.07,4.91-0.04c1.78-0.04,3.83,0.04,5.5,0.04c13.63,0,24.43,1.78,31.21,2.96
			c2.86,0.49,5.1,0.98,6.74,1.38c-0.8,0.26-1.2,0.45-1.2,0.45l0.01-0.16c-11.64,4.32-15.96,16.09-15.96,16.09
			c-10.35-1.98-24.31-1.95-25.51-1.95c-1.2,0-14.94-0.03-25.28,1.95C151.1,73.94,146.78,62.16,135.14,57.85z M124.9,49.69v2.89
			c0,0,1.72,0.13,3.8,0.46c1.97-3.3,6.36-9.5,13.27-13.03c0,0,13.75-5.52,33.93-5.39c20.5,0.13,35.82,5.39,35.82,5.39
			c6.9,3.54,11.29,9.74,13.27,13.03c2.08-0.33,3.8-0.46,3.8-0.46v-2.89c15.9-0.43,11.89,6.1,11.89,6.1
			c-8.8-1.24-14.78-0.64-18.26,0.08c-4-1.15-17.94-4.47-40.71-5.23c-1.63-0.05-3.34,0.03-5.07,0.06v0.01c-0.07,0-0.13-0.01-0.2-0.01
			c-0.07,0-0.13,0-0.2,0l-0.39,0.02c-1.73-0.04-3.04-0.15-4.68-0.09c-23.79,0.89-35.92,4.08-39.93,5.23
			c-3.48-0.72-9.46-1.31-18.26-0.08C113.01,55.78,109.01,49.25,124.9,49.69z M219.61,52.26c0,0-3.64-7.49-9.42-10.06
			c0,0-30.19-9.52-67.65-0.32c0,0-6.42,3.74-7.7,10.37C134.83,52.26,176.79,43.91,219.61,52.26z M203.73,76.02
			c3.76-9.85,20.25-27.62,36.49-11.77l-3.19,32.91c0,0-35.45,4.82-48.28,6C188.75,103.16,199.96,85.87,203.73,76.02z M235.52,66.6
			c-13.91-12.31-26.05,6.15-26.05,6.15c12.58-0.89,25.13,1.77,25.13,1.77L235.52,66.6z M211.1,86.31c1.99,0,3.59-1.61,3.59-3.6
			c0-1.98-1.61-3.59-3.59-3.59c-1.98,0-3.6,1.61-3.6,3.59C207.5,84.7,209.11,86.31,211.1,86.31z M160.93,102.06
			c-12.83-1.18-45.01-5.73-45.01-5.73l-3.21-32.09c16.25-15.84,32.73,1.93,36.5,11.77C152.98,85.87,160.93,102.06,160.93,102.06z
			 M118.35,74.52c0,0,12.55-2.66,25.13-1.77c0,0-12.15-18.45-26.06-6.15L118.35,74.52z M145.44,82.71c0-1.98-1.61-3.59-3.6-3.59
			c-1.98,0-3.59,1.61-3.59,3.59c0,1.99,1.61,3.6,3.59,3.6C143.83,86.31,145.44,84.7,145.44,82.71z M244,96.86l2.33-23.11
			c0.23-2.31-1.45-4.37-3.75-4.6c-0.37-0.04-0.72-0.01-1.06,0.04l-2.71,26.81L244,96.86z M114.26,96.01l-2.7-26.81
			c-0.35-0.05-0.7-0.08-1.06-0.04c-2.31,0.23-3.99,2.29-3.76,4.6l2.33,23.11L114.26,96.01z M155.48,80.93
			c0,2.64,9.22,4.77,20.59,4.77c11.38,0,20.59-2.14,20.59-4.77c0-2.64-9.22-4.77-20.59-4.77C164.7,76.15,155.48,78.29,155.48,80.93z
			"/>
		<path class="st17" d="M201.71,109.19c-68.37-1.57-112.58-7.07-136.74-17.02c-24.16-9.95-0.52-13.88-0.52-13.88
			c-16.96,8.38,13.51,18.44,120.8,19.64c82.76,0.92,97.67-11.79,97.67-11.79C324.57,99.24,257.41,110.47,201.71,109.19z
			 M282.25,109.23c0,0-32.88,5.77-100.75,5.24c-78.12-0.62-114.11-14.14-114.11-14.14s-6.68,0.53-2.06,8.38
			C69.96,116.57,212.34,128.35,282.25,109.23z M223.23,123.43c0,0-105.29,5.83-139.82-5.76c0,0-4.11,2.36,1.03,6.81
			C89.58,128.93,162.34,138.01,223.23,123.43z"/>
	</g>
	<text transform="matrix(1 0 0 1 50.5171 160.7422)" class="st18 st19 st20">Auto &amp; Transportation</text>
</g>
<g id="Logo12">
</g>
<g id="Logo13">
</g>
<g id="Logo14">
</g>
<g id="Layer_15">
</g>
</svg>
