<?xml version="1.0" encoding="utf-8"?>
<!-- Generator: Adobe Illustrator 27.8.1, SVG Export Plug-In . SVG Version: 6.00 Build 0)  -->
<svg version="1.1" xmlns="http://www.w3.org/2000/svg" xmlns:xlink="http://www.w3.org/1999/xlink" x="0px" y="0px"
	 viewBox="0 0 350 230" style="enable-background:new 0 0 350 230;" xml:space="preserve">
<style type="text/css">
	.st0{fill:#003799;}
	.st1{fill:#630000;}
	.st2{fill-rule:evenodd;clip-rule:evenodd;fill:#037FE1;}
	.st3{fill-rule:evenodd;clip-rule:evenodd;}
	.st4{fill-rule:evenodd;clip-rule:evenodd;fill:#562900;}
	.st5{fill-rule:evenodd;clip-rule:evenodd;fill:#00184C;}
	.st6{fill-rule:evenodd;clip-rule:evenodd;fill:#2C2C5B;}
	.st7{fill-rule:evenodd;clip-rule:evenodd;fill:#007C89;}
	.st8{fill:#C97C00;}
	.st9{fill:#7A6B00;}
	.st10{fill-rule:evenodd;clip-rule:evenodd;fill:#022B18;}
	.st11{fill-rule:evenodd;clip-rule:evenodd;fill:#03113F;}
	.st12{fill:#273F02;}
	.st13{display:none;fill:#273F02;}
	.st14{font-family:'MidnightDayRegular';}
	.st15{font-size:30px;}
	.st16{fill:url(#SVGID_1_);}
	.st17{fill:#B62126;}
	.st18{fill:#231F20;}
	.st19{fill:#FFFFFF;}
	.st20{fill:#17629D;}
	.st21{fill:#540159;}
	.st22{fill:#66082A;}
	.st23{display:none;}
	.st24{fill:#005C68;}
	.st25{fill:#563900;}
</style>
<g id="Logo1">
</g>
<g id="Logo2">
</g>
<g id="Logo3">
</g>
<g id="Logo4">
</g>
<g id="Logo5">
</g>
<g id="Logo6">
</g>
<g id="Logo7">
</g>
<g id="Logo8">
	<path class="st12" d="M252.89,63.57c-6.16-5.95-21.3-7.19-21.3-7.19c0.42,9.17,0.84,23.63,0.84,23.63l6.89-1.04
		c0,0,1.03-4.43,1.97-5.63s9.24-0.52,11.59-0.14c2.35,0.37,2.19,1.97,2.19,1.97s3.15-0.69,3.62-1.16
		C259.16,73.54,257.28,67.81,252.89,63.57z M90.26,64.49c-2.33,0-4.23,1.66-4.23,3.7c0,2.05,1.9,3.7,4.23,3.7
		c2.34,0,4.23-1.65,4.23-3.7C94.49,66.15,92.6,64.49,90.26,64.49z M101.6,69.15c-1.3,0-2.35,0.92-2.35,2.05s1.05,2.05,2.35,2.05
		c1.29,0,2.34-0.92,2.34-2.05S102.89,69.15,101.6,69.15z M169.84,37.3c-2.71,0-4.91,1.92-4.91,4.29c0,1.32,0.69,2.51,1.77,3.29
		c2.29-0.24,4.61-0.44,6.96-0.6c0.68-0.73,1.09-1.68,1.09-2.69C174.75,39.22,172.55,37.3,169.84,37.3z M178.18,32.05
		c-1.6,0-2.9,1.14-2.9,2.54c0,1.4,1.3,2.54,2.9,2.54c1.6,0,2.9-1.14,2.9-2.54C181.08,33.19,179.78,32.05,178.18,32.05z
		 M189.37,39.82c-0.32-0.1-0.67-0.15-1.03-0.15c-1.73,0-3.13,1.22-3.13,2.74c0,0.51,0.15,0.98,0.43,1.38
		c1.73-0.03,3.47-0.03,5.22-0.02c0.03,0.03,0.07,0.07,0.12,0.1c0.03-0.03,0.06-0.07,0.07-0.1c0.27-0.4,0.42-0.86,0.42-1.36
		C191.47,41.21,190.59,40.19,189.37,39.82z M86.03,48.37c-2.57,0-4.66,2.01-4.66,4.48c0,2.48,2.09,4.48,4.66,4.48
		c2.58,0,4.66-2,4.66-4.48C90.69,50.38,88.61,48.37,86.03,48.37z M128.45,45.82c-1.73,0-3.13,1.23-3.13,2.74
		c0,1.51,1.4,2.74,3.13,2.74s3.13-1.23,3.13-2.74C131.58,47.05,130.18,45.82,128.45,45.82z M133.95,35.51
		c-2.62,0-4.75,1.86-4.75,4.15c0,2.3,2.13,4.16,4.75,4.16c2.62,0,4.75-1.86,4.75-4.16C138.7,37.37,136.57,35.51,133.95,35.51z
		 M139.27,27.92c-1.48,0-2.67,1.15-2.67,2.57c0,1.42,1.19,2.57,2.67,2.57s2.68-1.15,2.68-2.57
		C141.95,29.07,140.75,27.92,139.27,27.92z M189.46,29.9c-1.11,0-2,0.86-2,1.92s0.89,1.92,2,1.92c1.1,0,1.99-0.86,1.99-1.92
		S190.56,29.9,189.46,29.9z M123.79,57.63c-2.57,0-4.66,2.01-4.66,4.48c0,1.52,0.78,2.86,1.99,3.67c1.94-2.3,4-4.69,5.95-6.86
		C126.23,58.12,125.07,57.63,123.79,57.63z M151.1,40.24c-1.62,0-2.94,1.26-2.94,2.82s1.32,2.82,2.94,2.82
		c1.62,0,2.94-1.26,2.94-2.82S152.72,40.24,151.1,40.24z M160.75,27.05c-2.71,0-4.91,1.92-4.91,4.29s2.2,4.29,4.91,4.29
		c2.71,0,4.91-1.92,4.91-4.29S163.46,27.05,160.75,27.05z M110.65,37.01c-5,0-9.05,3.75-9.05,8.37c0,4.63,4.05,8.37,9.05,8.37
		s9.05-3.74,9.05-8.37C119.7,40.76,115.65,37.01,110.65,37.01z M64.44,88.06c-3.3,0-5.97,2.57-5.97,5.74c0,3.17,2.67,5.74,5.97,5.74
		s5.98-2.57,5.98-5.74C70.42,90.63,67.74,88.06,64.44,88.06z M73.28,67.51c-3.3,0-5.97,2.57-5.97,5.74c0,3.17,2.67,5.75,5.97,5.75
		s5.98-2.58,5.98-5.75C79.26,70.08,76.58,67.51,73.28,67.51z M194.1,35.82c-2.42,0-4.43,1.74-4.73,4c-0.03,0.19-0.04,0.39-0.04,0.59
		c0,1.33,0.59,2.52,1.53,3.36c0.03,0.03,0.07,0.07,0.12,0.1c0.03-0.03,0.06-0.07,0.07-0.1c2.03,0.02,4.08,0.06,6.13,0.13
		c1.04-0.84,1.69-2.09,1.69-3.49C198.87,37.87,196.74,35.82,194.1,35.82z M206.76,105.68h-21.2c-1.12,0-2.03,0.91-2.03,2.03v2.19
		c0,1.11,0.91,2.02,2.03,2.02h21.2c1.12,0,2.03-0.91,2.03-2.02v-2.19C208.79,106.59,207.88,105.68,206.76,105.68z M97.63,54.77
		c-1.72,0-3.11,1.28-3.11,2.86c0,1.59,1.39,2.87,3.11,2.87c1.71,0,3.1-1.28,3.1-2.87C100.73,56.05,99.34,54.77,97.63,54.77z
		 M202.05,116.03h-11.28c-0.6,0-1.08,0.48-1.08,1.07v1.17c0,0.59,0.48,1.08,1.08,1.08h11.28c0.6,0,1.08-0.49,1.08-1.08v-1.17
		C203.13,116.51,202.65,116.03,202.05,116.03z M97.62,76.75c-2.57,0-4.65,2-4.65,4.48c0,0.58,0.12,1.14,0.33,1.65
		c2.76-1.05,5.82-2.16,8.7-3.19C101.35,77.97,99.64,76.75,97.62,76.75z M177.72,107.18c-0.44-0.18-0.9-0.35-1.38-0.53
		c11.09-6.55,29.94-12.85,29.94-12.85c-10.93,0.97-24.25,7.52-32.36,12.07c-8.97-2.65-23.43-4.38-39.76-4.38
		c-13.74,0-26.17,1.22-35.11,3.19c-2.16-2.41-4.82-6.62-7.12-13.94c0,0,0.97,9.42,4.69,14.52c-2.35,0.6-5.09,0.42-6.1,1.96
		c-2,3.02,0.15,14.5,0.15,14.5s90.3,0.97,90.4,0.94c2.47-0.63,2.1-5.63,1.55-8.14C182.23,112.72,180.74,108.03,177.72,107.18z
		 M189.8,131.38l-106.76-1.83c5.57,5.22,2.62,9.37,1.53,10.56c0,0,64.2,1.86,100.15,1.87c7.27,0,8.14-1.87,8.14-1.87
		C194.1,137.93,194.77,134.26,189.8,131.38z M58.47,130.02c-3.3,0-5.98,2.57-5.98,5.74c0,3.18,2.68,5.75,5.98,5.75
		c3.29,0,5.97-2.57,5.97-5.75C64.44,132.59,61.76,130.02,58.47,130.02z M79.26,87.04c-2.34,0-4.23,1.66-4.23,3.7
		c0,1.91,1.66,3.49,3.79,3.68c0.31-0.3,0.62-0.58,0.91-0.85c0.9-1.83,1.89-3.64,2.91-5.04C81.88,87.63,80.64,87.04,79.26,87.04z
		 M190.86,43.77c0.03,0.03,0.07,0.07,0.12,0.1c0.03-0.03,0.06-0.07,0.07-0.1H190.86z M189.8,131.38l-106.76-1.83
		c5.57,5.22,2.62,9.37,1.53,10.56c0,0,64.2,1.86,100.15,1.87c7.27,0,8.14-1.87,8.14-1.87C194.1,137.93,194.77,134.26,189.8,131.38z
		 M177.72,107.18c-0.44-0.18-0.9-0.35-1.38-0.53c11.09-6.55,29.94-12.85,29.94-12.85c-10.93,0.97-24.25,7.52-32.36,12.07
		c-8.97-2.65-23.43-4.38-39.76-4.38c-13.74,0-26.17,1.22-35.11,3.19c-2.16-2.41-4.82-6.62-7.12-13.94c0,0,0.97,9.42,4.69,14.52
		c-2.35,0.6-5.09,0.42-6.1,1.96c-2,3.02,0.15,14.5,0.15,14.5s90.3,0.97,90.4,0.94c2.47-0.63,2.1-5.63,1.55-8.14
		C182.23,112.72,180.74,108.03,177.72,107.18z M202.05,116.03h-11.28c-0.6,0-1.08,0.48-1.08,1.07v1.17c0,0.59,0.48,1.08,1.08,1.08
		h11.28c0.6,0,1.08-0.49,1.08-1.08v-1.17C203.13,116.51,202.65,116.03,202.05,116.03z M206.76,105.68h-21.2
		c-1.12,0-2.03,0.91-2.03,2.03v2.19c0,1.11,0.91,2.02,2.03,2.02h21.2c1.12,0,2.03-0.91,2.03-2.02v-2.19
		C208.79,106.59,207.88,105.68,206.76,105.68z M252.89,63.57c-6.16-5.95-21.3-7.19-21.3-7.19c0.42,9.17,0.84,23.63,0.84,23.63
		l6.89-1.04c0,0,1.03-4.43,1.97-5.63s9.24-0.52,11.59-0.14c2.35,0.37,2.19,1.97,2.19,1.97s3.15-0.69,3.62-1.16
		C259.16,73.54,257.28,67.81,252.89,63.57z M189.8,131.38l-106.76-1.83c5.57,5.22,2.62,9.37,1.53,10.56c0,0,64.2,1.86,100.15,1.87
		c7.27,0,8.14-1.87,8.14-1.87C194.1,137.93,194.77,134.26,189.8,131.38z M177.72,107.18c-0.44-0.18-0.9-0.35-1.38-0.53
		c11.09-6.55,29.94-12.85,29.94-12.85c-10.93,0.97-24.25,7.52-32.36,12.07c-8.97-2.65-23.43-4.38-39.76-4.38
		c-13.74,0-26.17,1.22-35.11,3.19c-2.16-2.41-4.82-6.62-7.12-13.94c0,0,0.97,9.42,4.69,14.52c-2.35,0.6-5.09,0.42-6.1,1.96
		c-2,3.02,0.15,14.5,0.15,14.5s90.3,0.97,90.4,0.94c2.47-0.63,2.1-5.63,1.55-8.14C182.23,112.72,180.74,108.03,177.72,107.18z
		 M202.05,116.03h-11.28c-0.6,0-1.08,0.48-1.08,1.07v1.17c0,0.59,0.48,1.08,1.08,1.08h11.28c0.6,0,1.08-0.49,1.08-1.08v-1.17
		C203.13,116.51,202.65,116.03,202.05,116.03z M206.76,105.68h-21.2c-1.12,0-2.03,0.91-2.03,2.03v2.19c0,1.11,0.91,2.02,2.03,2.02
		h21.2c1.12,0,2.03-0.91,2.03-2.02v-2.19C208.79,106.59,207.88,105.68,206.76,105.68z M252.89,63.57c-6.16-5.95-21.3-7.19-21.3-7.19
		c0.42,9.17,0.84,23.63,0.84,23.63l6.89-1.04c0,0,1.03-4.43,1.97-5.63s9.24-0.52,11.59-0.14c2.35,0.37,2.19,1.97,2.19,1.97
		s3.15-0.69,3.62-1.16C259.16,73.54,257.28,67.81,252.89,63.57z M112.16,63.03c-2.58,0-4.66,2-4.66,4.48c0,2.47,2.08,4.48,4.66,4.48
		c2.57,0,4.66-2.01,4.66-4.48C116.82,65.03,114.73,63.03,112.16,63.03z M68.64,117.69c-2.32,0-4.2,1.8-4.2,4.04
		c0,2.23,1.88,4.04,4.2,4.04c1.08,0,2.06-0.39,2.8-1.03c0.04-1.97,0.09-3.97,0.14-5.9C70.82,118.13,69.79,117.69,68.64,117.69z
		 M178.78,41.97c-0.83,0-1.51,0.59-1.51,1.32c0,0.28,0.1,0.55,0.28,0.76c0.85-0.05,1.7-0.09,2.55-0.11c0.13-0.19,0.2-0.41,0.2-0.65
		C180.3,42.56,179.62,41.97,178.78,41.97z M64.44,105.1c-2.33,0-4.23,1.66-4.23,3.7c0,2.04,1.9,3.7,4.23,3.7
		c2.34,0,4.23-1.66,4.23-3.7C68.67,106.76,66.78,105.1,64.44,105.1z M141.95,44.62c-1.62,0-2.94,1.26-2.94,2.82
		c0,0.94,0.48,1.77,1.21,2.27c1.45-0.4,2.93-0.78,4.42-1.13c0.16-0.35,0.25-0.73,0.25-1.14C144.89,45.88,143.57,44.62,141.95,44.62z
		 M286.64,145.16c2.47-4.89,5.17-16.02,3.02-41.03c-0.55-6.43-2.37-11.37-3.53-12.69c-1.17-5.23-4.39-18.76-6.57-19.9
		c-0.91-0.46-7.89-0.52-12.62-0.52c-3.63-5.88-15.04-20.64-39.98-24.36c-10.09-1.51-20.07-2.42-29.78-2.76
		c-2.05-0.07-4.1-0.11-6.13-0.13c-0.01,0.03-0.04,0.07-0.07,0.1c-0.05-0.03-0.09-0.07-0.12-0.1c-1.75-0.01-3.49-0.01-5.22,0.02
		c-1.86,0.02-3.71,0.07-5.54,0.15c-0.85,0.02-1.7,0.06-2.55,0.11c-1.3,0.06-2.6,0.14-3.89,0.23c-2.35,0.16-4.67,0.36-6.96,0.6
		c-7.73,0.8-15.12,2.03-22.06,3.7c-1.49,0.35-2.97,0.73-4.42,1.13c-1.19,0.32-2.37,0.66-3.53,1.01c-0.4,0.12-0.71,0.21-0.92,0.27
		c-1.56,0.43-4.95,3.78-8.7,7.93c-1.95,2.17-4.01,4.56-5.95,6.86c-3.56,4.26-6.72,8.22-8.12,10c-1.31,0.46-5.87,2.05-11,3.91
		c-2.88,1.03-5.94,2.14-8.7,3.19c-3.54,1.32-6.61,2.53-8.21,3.27c-0.79,0.37-1.63,1.23-2.45,2.38c-1.02,1.4-2.01,3.21-2.91,5.04
		c-0.29,0.27-0.6,0.55-0.91,0.85c-2.97,2.84-6.64,7.05-6.82,10.66c-0.12,2.21-0.27,7.67-0.42,13.76c-0.05,1.93-0.1,3.93-0.14,5.9
		c-0.21,8.97-0.38,17.46-0.38,17.46s0.38,4.94,2.29,9.17c-5.74,0.56-8.91,1.35-8.91,2.72c0,5.53,52.18,10.02,116.54,10.02
		c64.36,0,116.53-4.49,116.53-10.02C297.51,152.36,294.15,148.46,286.64,145.16z M226.86,156.41c-2.58,0-4.67-9.62-4.67-21.49
		s2.09-21.49,4.67-21.49c0.85,0,1.64,1.05,2.33,2.87c-0.28-0.28-0.56-0.43-0.86-0.43c-2.18,0-3.96,8.17-3.96,18.25
		c0,10.07,1.78,18.24,3.96,18.24c0.63,0,1.22-0.66,1.74-1.84C229.23,154.17,228.1,156.41,226.86,156.41z M230.2,107.73
		c-1.15-0.92-2.68-1.26-4.73-1.24c-10.75,0.11-11.58,37.38-11.58,37.38c0,0.07-0.02,2.36-2.66,2.59
		c-65.06,5.65-119.99-0.72-133.02-2.44c-1.91-0.26-2.96-2.46-2.96-2.46l-0.45-22.21h7.21c0.59,0,1.07-0.49,1.07-1.08v-1.17
		c0-0.59-0.48-1.07-1.07-1.07h-7.27l-0.08-4.11h11.83c1.12,0,2.02-0.91,2.02-2.02v-2.19c0-1.12-0.9-2.03-2.02-2.03H74.53l-0.03-1.38
		c0,0,2.07-3.36,1.96-3.05l2.35,0.88c1.92-5.17,5.46-12.84,7.34-13.71c5.26-2.45,27.8-10.32,28.02-10.4l0.35-0.12l0.22-0.28
		c0.48-0.61,14.86-3.85,46.84-1.82c27.56,1.75,66.15,5.36,66.15,5.36l-0.17-24.78c0,0-45.31-4.39-90.62-2.3
		c-0.88,0.04-0.99-0.54-0.5-0.67c0.22-0.07,0.55-0.16,0.98-0.29c24.66-7.47,56.32-8.89,89.17-3.99
		C255.88,53.5,265.9,74.27,266,74.48l1.82,2.97c-1.91,1.97-3.39,2.87-9.93,8.02c-4.6,0.99-26.04,5.7-33.41,9.63
		c-4.04,2.15-13.77,11.59-14.37,12.18c0.71-0.58,12.05-9.96,16.56-12.04c6.42-2.96,29.52-7.96,32.09-8.5
		c0.74-0.6,13.21-10.95,18.19-9.06c4.3,1.63,4.13,7.71,4.13,7.71s-7.2,0.53-11.51,7.11c-4.6,7.04-6.24,24.29-6.14,31.27l-27.79,6.57
		C235.43,118.73,233.14,109.35,230.2,107.73z M164.13,73.29l-8.83-0.26c9.29-7.46,23.67-17.5,23.67-17.5l8.49,0.41L164.13,73.29z
		 M193.59,56.23l31.98,1.67l-0.35,20.75l-54.66-4.61L193.59,56.23z M273.53,132.53l-38.3,8.52c0.23-2.27,0.37-4.71,0.41-7.25
		l29.3-7.59v-1.04c0,0,0.42-21.77,6.85-30.28c3.62-4.79,9.81-5.95,11.38-3.55c-2.89,2.84-6.01,11.18-6.54,12.75
		C272.69,115.82,273.53,132.53,273.53,132.53z M284.48,142.56c-1.64,0-2.98-8.68-2.98-19.38c0-10.71,1.34-19.39,2.98-19.39
		c0.55,0,1.05,0.95,1.49,2.59c-0.17-0.25-0.36-0.39-0.54-0.39c-1.4,0-2.54,7.37-2.54,16.46c0,9.08,1.14,16.45,2.54,16.45
		c0.39,0,0.77-0.6,1.11-1.66C286,140.53,285.28,142.56,284.48,142.56z"/>
	<text transform="matrix(1 0 0 1 50.5171 193.8919)" class="st13 st14 st15">Auto &amp; Transportation</text>
</g>
<g id="Logo9">
</g>
<g id="Logo10">
</g>
<g id="Logo11">
</g>
<g id="Logo12">
</g>
<g id="Logo13">
</g>
<g id="Logo14">
</g>
<g id="Layer_15">
</g>
</svg>
