<?xml version="1.0" encoding="utf-8"?>
<!-- Generator: Adobe Illustrator 27.8.1, SVG Export Plug-In . SVG Version: 6.00 Build 0)  -->
<svg version="1.1" xmlns="http://www.w3.org/2000/svg" xmlns:xlink="http://www.w3.org/1999/xlink" x="0px" y="0px"
	 viewBox="0 0 350 230" style="enable-background:new 0 0 350 230;" xml:space="preserve">
<style type="text/css">
	.st0{fill:#003799;}
	.st1{fill:#630000;}
	.st2{fill-rule:evenodd;clip-rule:evenodd;fill:#037FE1;}
	.st3{fill-rule:evenodd;clip-rule:evenodd;}
	.st4{fill-rule:evenodd;clip-rule:evenodd;fill:#562900;}
	.st5{fill-rule:evenodd;clip-rule:evenodd;fill:#00184C;}
	.st6{fill-rule:evenodd;clip-rule:evenodd;fill:#2C2C5B;}
	.st7{fill-rule:evenodd;clip-rule:evenodd;fill:#007C89;}
	.st8{fill:#C97C00;}
	.st9{fill:#7A6B00;}
	.st10{fill-rule:evenodd;clip-rule:evenodd;fill:#022B18;}
	.st11{fill-rule:evenodd;clip-rule:evenodd;fill:#03113F;}
	.st12{fill:#273F02;}
	.st13{fill:url(#SVGID_1_);}
	.st14{fill:#B62126;}
	.st15{fill:#231F20;}
	.st16{fill:#FFFFFF;}
	.st17{fill:#17629D;}
	.st18{fill:#540159;}
	.st19{fill:#66082A;}
	.st20{display:none;}
	.st21{fill:#005C68;}
	.st22{display:none;fill:#005C68;}
	.st23{font-family:'MidnightDayRegular';}
	.st24{font-size:30px;}
	.st25{fill:#563900;}
</style>
<g id="Logo1">
</g>
<g id="Logo2">
</g>
<g id="Logo3">
</g>
<g id="Logo4">
</g>
<g id="Logo5">
</g>
<g id="Logo6">
</g>
<g id="Logo7">
</g>
<g id="Logo8">
</g>
<g id="Logo9">
</g>
<g id="Logo10">
</g>
<g id="Logo11">
</g>
<g id="Logo12">
</g>
<g id="Logo13">
</g>
<g id="Logo14">
	<path class="st21" d="M69.16,123.54c-0.35-0.91-2.3-5.04-2.87-6.03c6.29,1.39,12.62,2.51,18.98,3.33
		c10.16,1.32,20.41,1.91,30.76,1.78c-0.66,1.69-1.81,3.92-3.87,5.97c-1.2,1.19-3.51,3.48-6.97,3.95c-1.37,0.18-26.1-2.07-30.14-3.41
		c-0.02-0.01-0.04-0.01-0.07-0.02C72.3,128.21,70.17,126.17,69.16,123.54z M135.84,126.49l-14.72,5.74
		c-0.82,0.35-0.6,1.57,0.28,1.62l20.54,0.49c0.67,0.02,1.02-0.8,0.54-1.27L135.84,126.49z M139.58,97.05
		c-1.01-0.51-2.69-1.2-4.88-1.39c-0.04,0-0.08-0.01-0.12-0.01c-2.66-0.21-5.3,0.54-7.46,2.09c-2.26,1.62-4.72,3.38-6.83,4.89
		c-3.36,2.4-6.71,4.81-10.07,7.21c5.22-0.06,15.42-1.02,24.41-8.06C136.58,100.25,138.21,98.63,139.58,97.05z M79.64,96.71
		c0.78-0.79,1.68-1.76,1.93-3.25c0.16-0.94-0.01-1.75-0.16-2.27c-2.28,1.98-4.12,3.51-5.31,4.49c-3.58,2.94-5.36,4.23-6.65,6.87
		c-0.54,1.1-0.82,2.07-0.96,2.7c2.19-1.44,4.08-2.75,5.63-3.84C74.52,101.14,77.01,99.35,79.64,96.71z M182.48,112.83
		c0,13.35-8.04,24.17-17.96,24.17c-9.92,0-17.96-10.82-17.96-24.17c0-13.35,8.04-24.17,17.96-24.17
		C174.45,88.65,182.48,99.48,182.48,112.83z M177.62,108.97l-4.93,3.6c-1.43,1.05-3.16,0.16-3.86-1.99
		c-0.7-2.14-0.11-4.73,1.33-5.77l4.8-3.5c-1.89-3.32-4.52-5.71-7.54-6.64v7.89c0,2.38-1.29,4.32-2.88,4.32
		c-1.59,0-2.88-1.93-2.88-4.32v-7.84c-3.84,1.26-7.06,4.91-8.86,9.81l5.39,2.31c1.53,0.66,2.42,3.05,1.98,5.34
		c-0.44,2.29-2.04,3.62-3.57,2.96l-5.34-2.29c-0.01,0.24-0.01,0.49-0.01,0.73c0,5.68,1.69,10.79,4.39,14.33l2.75-6.59
		c0.84-2.02,2.62-2.64,3.97-1.37c1.35,1.26,1.76,3.93,0.92,5.95l-2.58,6.18c1.24,0.55,2.56,0.84,3.92,0.84
		c2.34,0,4.53-0.86,6.44-2.38l-3.32-5.52c-1.07-1.77-0.97-4.5,0.21-6.1c1.18-1.6,3.01-1.45,4.07,0.32l3.43,5.7
		c1.6-3.19,2.55-7.11,2.55-11.35C178,111.99,177.87,110.44,177.62,108.97z M271.37,82.92c6.82,0,12.35,9.07,12.35,20.26
		c0,11.19-5.53,20.26-12.35,20.26c-6.82,0-12.34-9.07-12.34-20.26C259.02,91.99,264.55,82.92,271.37,82.92z M263.5,95.76l3.73,1.87
		c1.06,0.53,1.67,2.46,1.37,4.31c-0.3,1.85-1.41,2.92-2.47,2.39l-3.7-1.85c0,0.2-0.01,0.39-0.01,0.59c0,4.58,1.17,8.7,3.04,11.55
		l1.91-5.32c0.58-1.63,1.82-2.13,2.75-1.11c0.93,1.02,1.22,3.17,0.64,4.8l-1.79,4.99c0.86,0.44,1.77,0.68,2.71,0.68
		c1.62,0,3.14-0.7,4.46-1.92l-2.3-4.45c-0.74-1.43-0.67-3.63,0.15-4.92c0.82-1.29,2.08-1.17,2.82,0.26l2.37,4.6
		c1.11-2.57,1.76-5.73,1.76-9.15c0-1.28-0.09-2.52-0.26-3.71l-3.41,2.9c-0.99,0.84-2.19,0.13-2.67-1.6
		c-0.48-1.73-0.07-3.81,0.92-4.66l3.32-2.83c-1.31-2.68-3.13-4.61-5.22-5.36v6.36c0,1.92-0.89,3.48-2,3.48c-1.1,0-2-1.56-2-3.48
		v-6.32C266.97,88.87,264.74,91.81,263.5,95.76z M257.22,116.34c-10.25-0.26-22.63,0.22-36.48,1.32
		c-13.39,1.06-24.86,2.07-34.03,3.72c-1.18,4.21-3.21,7.86-5.81,10.56c24.3-2.04,63.74-5.02,84.84-6.49
		C261.87,124.33,258.71,120.89,257.22,116.34z M181.42,82.07c5.65-4.9,11.13-9.98,16.44-15.23c0.82-0.81,1.64-1.63,2.46-2.46
		c1.73-1.74,0.86-4.71-1.54-5.24c-4.64-1.02-9.75-1.9-15.28-2.52c-6.02-0.67-11.64-0.92-16.76-0.9c-4.91,0.02-9.73,1.25-14.04,3.6
		c-1.5,0.82-3.12,1.74-4.84,2.75c-4.71,2.79-6.98,4.48-11.25,7.18c-3.47,2.2-8.57,5.27-15.12,8.63c9.69,1.28,19.4,2.27,29.14,2.96
		C160.87,81.59,171.13,81.99,181.42,82.07z M191.69,79.35c0.8-0.27,1.8-0.61,2.22-0.77c0.72-0.28,2.69-0.88,3.37-1.17
		c0.02-0.01,0.02-0.03,0.03-0.07c0.1-0.83,0.17-1.7,0.6-2.44c1.38-2.39,4.79-2.4,7.2-2.41c1.58-0.01,3.33,0.11,4.56,1.23
		c1.61,1.47,1.2,4-0.85,4.82c-0.7,0.28-1.4,0.55-2.12,0.83c-2.17,0.82-5.6,1.71-8.94,2.52c25.17-0.47,65.93-4.21,70.53-5.87
		c-3.02-2.31-6.92-4.97-11.68-7.53c-5.66-3.04-10.34-4.75-12.37-5.45c-4.12-1.43-8.76-3-15.14-3.63c-5.05-0.5-8.38-0.13-13.5,0.43
		c-1.84,0.2-3.84,0.49-6.06,1.64c-1.98,1.03-3.16,2.24-4.59,3.72c-4.93,5.12-7.39,7.69-8.57,9
		C195.21,75.52,193.62,77.27,191.69,79.35z"/>
	<text transform="matrix(1 0 0 1 50.5171 165.2084)" class="st22 st23 st24">Auto &amp; Transportation</text>
</g>
<g id="Layer_15">
</g>
</svg>
