<?xml version="1.0" encoding="utf-8"?>
<!-- Generator: Adobe Illustrator 27.8.1, SVG Export Plug-In . SVG Version: 6.00 Build 0)  -->
<svg version="1.1" xmlns="http://www.w3.org/2000/svg" xmlns:xlink="http://www.w3.org/1999/xlink" x="0px" y="0px"
	 viewBox="0 0 350 230" style="enable-background:new 0 0 350 230;" xml:space="preserve">
<style type="text/css">
	.st0{fill:#003799;}
	.st1{fill:#630000;}
	.st2{fill-rule:evenodd;clip-rule:evenodd;fill:#037FE1;}
	.st3{fill-rule:evenodd;clip-rule:evenodd;}
	.st4{fill-rule:evenodd;clip-rule:evenodd;fill:#562900;}
	.st5{fill-rule:evenodd;clip-rule:evenodd;fill:#00184C;}
	.st6{fill-rule:evenodd;clip-rule:evenodd;fill:#2C2C5B;}
	.st7{fill-rule:evenodd;clip-rule:evenodd;fill:#007C89;}
	.st8{fill:#C97C00;}
	.st9{fill:#7A6B00;}
	.st10{fill-rule:evenodd;clip-rule:evenodd;fill:#022B18;}
	.st11{fill-rule:evenodd;clip-rule:evenodd;fill:#03113F;}
	.st12{fill:#273F02;}
	.st13{fill:url(#SVGID_1_);}
	.st14{display:none;fill:#680000;}
	.st15{font-family:'MidnightDayRegular';}
	.st16{font-size:30px;}
	.st17{fill:#B62126;}
	.st18{fill:#231F20;}
	.st19{fill:#FFFFFF;}
	.st20{fill:#17629D;}
	.st21{fill:#540159;}
	.st22{fill:#66082A;}
	.st23{display:none;}
	.st24{fill:#005C68;}
	.st25{fill:#563900;}
</style>
<g id="Logo1">
</g>
<g id="Logo2">
</g>
<g id="Logo3">
</g>
<g id="Logo4">
</g>
<g id="Logo5">
</g>
<g id="Logo6">
</g>
<g id="Logo7">
</g>
<g id="Logo8">
</g>
<g id="Logo9">
	<linearGradient id="SVGID_1_" gradientUnits="userSpaceOnUse" x1="60.4883" y1="96.4776" x2="289.5117" y2="96.4776">
		<stop  offset="0" style="stop-color:#FFFFFF"/>
		<stop  offset="0.0747" style="stop-color:#E4D1D1"/>
		<stop  offset="0.1658" style="stop-color:#C7A1A1"/>
		<stop  offset="0.2619" style="stop-color:#AE7575"/>
		<stop  offset="0.3614" style="stop-color:#985151"/>
		<stop  offset="0.4652" style="stop-color:#873434"/>
		<stop  offset="0.5747" style="stop-color:#791D1D"/>
		<stop  offset="0.6925" style="stop-color:#6F0D0D"/>
		<stop  offset="0.8244" style="stop-color:#6A0303"/>
		<stop  offset="1" style="stop-color:#680000"/>
	</linearGradient>
	<path class="st13" d="M60.51,136.82c25.44-18.48,56.06-4.68,70.14-4.97c15.2-0.33,13.58-10.38,0.73-10.17
		c-12.4,0.19-27.51,8.19-41.38-2.78c24.22,5.77,31.49-15.32,10.4-10.21c-18.26,4.42-32.95-2.24-32.95-2.24
		c31.09,5.95,33.16-17.7,69.69-6.83c33.82,10.07,16.78-15.09-6.12-4.99c13.49-13.77,30.17-1.95,29.35-9.39
		c-0.52-4.68-10.12-4.68-16.07-2.82c-5.98,1.88-17.39,12.36-31.68,8.8c-14.26-3.55-14.26-12.52-28.78-10.66c0,0,7.01-4.12,16.1-1.51
		c9.06,2.64,11.39,3.01,17.37,0.38c0,0,2.33-7.67-11.67-8.43c-14-0.75-17.91,6.57-28.81,8.24c-10.9,1.69-16.33,0.38-16.33,0.38
		s13.23-0.92,21.53-7.3c8.28-6.38,23.35-8.61,32.17-4.31c8.83,4.31,19.98,11.98,28.27,9.93c8.31-2.07,11.7-8.26,5.72-12.36
		c-5.98-4.14-12.19-6.57-25.42-3.58c-13.25,3.01-18.95-0.73-21.79-5.6c0,0,12.71,4.12,21.79-0.57c37.02-19.09,75.31,4.4,79.41-7.25
		c0.42-1.18,1.11-0.94,1.11-0.94l11.53,0.09c0,0,1.01,0.02,1.32,0.35c0.28,0.31,0.59,1.67,0.59,1.67v-4.52c0,0,0.8-0.07,1.01,0
		c0.19,0.09,0.21,0.21,0.21,0.21l6.14,0.14l6.19-0.14c0,0,0-0.12,0.21-0.21c0.19-0.07,1.01,0,1.01,0v4.52c0,0,0.28-1.37,0.59-1.67
		c0.28-0.33,1.32-0.35,1.32-0.35l11.51-0.09c0,0,1.11-0.31,1.11,0.94c0.02,1.25,0,3.13,0,3.13s1.13,0.26,1.93,1.32
		c0.8,1.04,0.97,1.15,1.29,1.22c0.31,0.07,2.94,0.02,5.98,2.45c3.04,2.45,5.84,6.26,8.92,10.47c3.08,4.21,6.5,10.5,6.5,10.5
		s1.08,0.16,1.29-0.49c0.21-0.66-0.19-1.36-0.09-1.93c0.12-0.54,2.02-1.62,5.77-1.44c3.74,0.19,6.35,1.6,6.57,4.31
		c0,0-0.21,2.19-2.49,2.87c-2.31,0.71-7.06,1.25-7.06,1.25s3.48,3.93,5.22,7.77c1.72,3.84,5.7,10.33,7.67,19.23
		c1.95,8.9,1.18,17.35,1.53,21.39l0.47,0.54l-0.75,3.86l-0.38,0.28c0.05,0.49,0.05,1.01,0.05,1.53c0,6-2.68,10.85-5.98,10.85
		c-5.11,0-4.78,0-9.48,0c-1.51,0-2.87-1.36-3.81-3.53c-11.6,1.06-32.15,2.8-45.07,3.11c-12.9-0.31-33.44-2.05-45.02-3.11
		c-0.94,2.17-2.31,3.53-3.84,3.53c-4.71,0-4.35,0-9.48,0c-1.69,0-3.22-1.27-4.31-3.32C125.63,147.95,93.16,121.19,60.51,136.82
		L60.51,136.82z M224.08,52.56l-19.44-0.61c0,0-1.74-0.21-2.94,1.11c-1.18,1.34-1.15,1.37-1.15,1.37s1.88-0.8,6.5-0.92
		c3.95-0.09,14.26-0.19,17.04-0.21c2.82,0.02,13.11,0.12,17.09,0.21c4.59,0.12,6.5,0.92,6.5,0.92s0.02-0.02-1.18-1.37
		c-1.2-1.32-2.94-1.11-2.94-1.11L224.08,52.56L224.08,52.56z M224.08,56.47c0,0-19.65-0.07-28.03,1.32c0,0-2,0.05-4.17,2.9
		c-2.14,2.85-9.96,14.73-9.96,14.73s-1.22,2.4,2.61,2.49c3.84,0.09,29.61-0.61,39.54-0.71c9.98,0.09,35.75,0.8,39.56,0.71
		c3.84-0.09,2.64-2.49,2.64-2.49s-7.84-11.89-9.98-14.73c-2.14-2.85-4.17-2.9-4.17-2.9C243.76,56.4,224.08,56.47,224.08,56.47
		L224.08,56.47z M224.08,104.48c0,0-19.79-0.47-32.62,0.82c-4.38-5.46-22.26-20.66-25.16-7.39c-1.13,5.15-0.94,8.8,0,9.41
		c0.89,0.59,41.47,5.6,57.78,5.77c16.33-0.16,56.91-5.18,57.83-5.77c0.92-0.61,1.11-4.26,0-9.41c-2.89-13.27-20.81,1.93-25.18,7.39
		C243.9,104.01,224.08,104.48,224.08,104.48L224.08,104.48z M224.08,117.66l-20.92-0.52c-2.73-0.07-3.44,0.97-3.44,3.44
		c0,0.94-0.19,6.02-0.28,8.5l-18.95-0.4c0,0-5.93-0.61-5.11,0.73c0.85,1.37,3.72,5.44,8.28,6.38c4,0.8,33.07,2.33,40.41,2.73
		c7.37-0.4,36.43-1.93,40.43-2.73c4.59-0.94,7.44-5.01,8.28-6.38c0.85-1.34-5.08-0.73-5.08-0.73l-18.97,0.4
		c-0.09-2.47-0.28-7.55-0.28-8.5c0-2.47-0.68-3.51-3.44-3.44L224.08,117.66L224.08,117.66z M224.08,136.14
		c-47.14-1.44-46.62-0.61,0,1.01C270.75,135.53,271.25,134.7,224.08,136.14L224.08,136.14z M224.08,133.62
		c-50.74-1.37-49.89,0.17,0,1.01C274.03,133.79,274.87,132.26,224.08,133.62L224.08,133.62z M224.08,130.82
		c-55.99-1.34-55.1,0.33,0,1.01C279.2,131.15,280.12,129.48,224.08,130.82L224.08,130.82z M247.03,129.13
		c0-2.92-0.24-5.86-0.38-8.78c0,0-0.05-1.55-1.18-1.51c-7.15,0.31-14.24,0.38-21.39,0.42c-7.13-0.05-14.22-0.12-21.35-0.42
		c-1.13-0.05-1.18,1.51-1.18,1.51c-0.14,2.92-0.38,5.86-0.38,8.78c0,0,16.33,0.59,22.9,0.35
		C230.7,129.71,247.03,129.13,247.03,129.13L247.03,129.13z M284.26,116.32c0,0-6.73,0.09-9.46,3.08c-2.71,2.99-1.91,5.93,0.66,6.07
		l2.64-1.06c0,0-1.69-0.59-0.89-2.73c0.8-2.14,2.61-3.77,6.54-4.38c0,0,0.71,5.04-1.77,6.26c0,0,0.19,0.52,1.2,0.24
		C284.22,123.52,285.35,117.76,284.26,116.32L284.26,116.32z M252.75,110.3l2.85-4.1c0,0-12.8-1.13-24.88-0.73
		c0,0,19.2,1.22,21.77,1.69l-2.21,3.51L252.75,110.3L252.75,110.3z M263.76,99.71c0,0,3.46-2.45,6.52-2.47
		c9.72-0.16,1.06,13.04-11.25,6.83l-0.09,0.09c-0.07,0.52-0.09,1.04-0.09,1.55c0,1.29,0.24,2.54,0.66,3.67
		c3.84-0.42,7.67-0.87,11.49-1.34c2.45-0.31,4.9-0.61,7.34-0.97c0.54-0.09,1.13-0.19,1.69-0.26c0.02-0.38,0.05-0.75,0.05-1.11
		C280.07,95.96,271.51,92.72,263.76,99.71L263.76,99.71z M163.93,116.32c-1.08,1.44,0.07,7.2,1.08,7.48
		c1.04,0.28,1.22-0.24,1.22-0.24c-2.49-1.22-1.79-6.26-1.79-6.26c3.93,0.61,5.77,2.24,6.57,4.38c0.78,2.14-0.89,2.73-0.89,2.73
		l2.61,1.06c2.59-0.14,3.37-3.08,0.66-6.07C170.68,116.42,163.93,116.32,163.93,116.32L163.93,116.32z M195.44,110.3l2.49,0.38
		l-2.24-3.51c2.59-0.47,21.79-1.69,21.79-1.69c-12.07-0.4-24.9,0.73-24.9,0.73L195.44,110.3L195.44,110.3z M184.43,99.71
		c-7.72-6.99-16.29-3.74-16.29,6c0,0.35,0,0.73,0.05,1.11c0.56,0.07,1.13,0.16,1.69,0.26c2.42,0.35,4.87,0.66,7.32,0.97
		c3.84,0.47,7.67,0.92,11.51,1.34c0.42-1.13,0.66-2.38,0.66-3.67c0-0.52-0.02-1.04-0.12-1.55l-0.09-0.09
		c-12.31,6.21-20.95-6.99-11.23-6.83C180.97,97.26,184.43,99.71,184.43,99.71z"/>
	<text transform="matrix(1 0 0 1 50.5168 175.7029)" class="st14 st15 st16">Auto &amp; Transportation</text>
</g>
<g id="Logo10">
</g>
<g id="Logo11">
</g>
<g id="Logo12">
</g>
<g id="Logo13">
</g>
<g id="Logo14">
</g>
<g id="Layer_15">
</g>
</svg>
