<?xml version="1.0" encoding="utf-8"?>
<!-- Generator: Adobe Illustrator 27.8.1, SVG Export Plug-In . SVG Version: 6.00 Build 0)  -->
<svg version="1.1" xmlns="http://www.w3.org/2000/svg" xmlns:xlink="http://www.w3.org/1999/xlink" x="0px" y="0px"
	 viewBox="0 0 350 230" style="enable-background:new 0 0 350 230;" xml:space="preserve">
<style type="text/css">
	.st0{fill:#003799;}
	.st1{fill:#630000;}
	.st2{fill-rule:evenodd;clip-rule:evenodd;fill:#037FE1;}
	.st3{fill-rule:evenodd;clip-rule:evenodd;}
	.st4{fill-rule:evenodd;clip-rule:evenodd;fill:#562900;}
	.st5{fill-rule:evenodd;clip-rule:evenodd;fill:#00184C;}
	.st6{fill-rule:evenodd;clip-rule:evenodd;fill:#2C2C5B;}
	.st7{fill-rule:evenodd;clip-rule:evenodd;fill:#007C89;}
	.st8{fill:#C97C00;}
	.st9{fill:#7A6B00;}
	.st10{fill-rule:evenodd;clip-rule:evenodd;fill:#022B18;}
	.st11{fill-rule:evenodd;clip-rule:evenodd;fill:#03113F;}
	.st12{fill:#273F02;}
	.st13{fill:url(#SVGID_1_);}
	.st14{fill:#B62126;}
	.st15{fill:#231F20;}
	.st16{fill:#FFFFFF;}
	.st17{fill:#17629D;}
	.st18{fill:#540159;}
	.st19{fill:#66082A;}
	.st20{display:none;}
	.st21{display:inline;fill:#66082A;}
	.st22{font-family:'MidnightDayRegular';}
	.st23{font-size:35.1022px;}
	.st24{fill:#005C68;}
	.st25{fill:#563900;}
</style>
<g id="Logo1">
</g>
<g id="Logo2">
</g>
<g id="Logo3">
</g>
<g id="Logo4">
</g>
<g id="Logo5">
</g>
<g id="Logo6">
</g>
<g id="Logo7">
</g>
<g id="Logo8">
</g>
<g id="Logo9">
</g>
<g id="Logo10">
</g>
<g id="Logo11">
</g>
<g id="Logo12">
</g>
<g id="Logo13">
	<path class="st19" d="M185.43,86.23l-0.09,0.03l-0.56,0.18l1.23-0.2C185.81,86.23,185.63,86.23,185.43,86.23z M130.54,83.81
		c-2.05-0.14-4.1-0.29-6.15-0.45l-1.53-0.12l-1.54-0.13l-1.53-0.12l-1.53-0.14l-1.54-0.14l-1.53-0.14l-1.53-0.14l-0.7-0.07
		c-0.03,0.37-0.03,0.73-0.01,1.11l11.52,0.73c0,0,2.02-0.02,3.53-0.16c1.71,0.58,3.36,1.06,4.93,1.49
		c-0.03-0.53-0.05-1.05-0.07-1.57L130.54,83.81z M128.68,87.09l-0.51,0.14c-0.34,0.09-0.67,0.2-1.01,0.29
		c-0.03,0.01-0.05,0.02-0.08,0.02c0.46,0.04,0.91,0.08,1.37,0.12c0.28-0.14,0.56-0.3,0.83-0.45c0.31-0.16,0.62-0.34,0.93-0.51
		c-0.35,0.09-0.69,0.17-1.03,0.26L128.68,87.09z M87.24,82.47l0.08-0.03l-0.17,0.01C87.18,82.46,87.21,82.46,87.24,82.47z
		 M53.22,90.95c0.02-0.03,0.03-0.07,0.06-0.1l-0.19,0.13L53.22,90.95z M98.69,118.52c-0.01-0.16-0.02-0.35-0.03-0.55
		c-0.01-0.2-0.03-0.43-0.05-0.66c-0.04-0.47-0.1-1-0.2-1.57c-0.01-0.08-0.03-0.14-0.03-0.22c-0.02-0.08-0.03-0.14-0.04-0.22
		c-0.03-0.14-0.05-0.3-0.09-0.45c-0.03-0.15-0.07-0.31-0.1-0.47c-0.03-0.15-0.07-0.31-0.11-0.48c-0.04-0.16-0.09-0.33-0.13-0.49
		c-0.02-0.09-0.04-0.16-0.07-0.25c-0.03-0.09-0.04-0.17-0.07-0.26c-0.05-0.16-0.1-0.33-0.15-0.5c-0.06-0.17-0.12-0.35-0.17-0.52
		c-0.03-0.09-0.06-0.17-0.09-0.26c-0.03-0.09-0.06-0.18-0.09-0.26c-0.07-0.17-0.13-0.35-0.2-0.52c-0.07-0.18-0.14-0.35-0.21-0.53
		c-0.03-0.09-0.08-0.18-0.11-0.26c-0.04-0.09-0.08-0.17-0.12-0.26c-0.08-0.17-0.15-0.35-0.24-0.52c-0.09-0.18-0.17-0.35-0.26-0.53
		c-0.09-0.17-0.18-0.34-0.27-0.51c-0.09-0.18-0.19-0.34-0.28-0.51c-0.09-0.17-0.19-0.34-0.29-0.51c-0.1-0.16-0.2-0.33-0.31-0.49
		c-0.2-0.33-0.42-0.66-0.64-0.97c-0.21-0.31-0.45-0.61-0.67-0.92c-0.23-0.29-0.46-0.59-0.7-0.86c-0.24-0.28-0.48-0.54-0.71-0.81
		c-0.12-0.13-0.24-0.25-0.36-0.37c-0.06-0.06-0.12-0.12-0.18-0.18c-0.06-0.07-0.12-0.12-0.18-0.18c-0.12-0.12-0.24-0.23-0.35-0.34
		c-0.12-0.12-0.24-0.22-0.36-0.32c-0.23-0.21-0.46-0.41-0.68-0.6c-0.11-0.09-0.23-0.18-0.33-0.27c-0.11-0.09-0.22-0.17-0.32-0.25
		c-0.1-0.09-0.21-0.15-0.31-0.23c-0.1-0.08-0.2-0.14-0.3-0.21c-0.38-0.27-0.72-0.49-1.01-0.67c-0.29-0.18-0.52-0.31-0.68-0.39
		c-0.13-0.07-0.21-0.11-0.24-0.12c0.03,0.03,0.09,0.09,0.19,0.19c0.07,0.07,0.14,0.14,0.24,0.24c0.09,0.09,0.2,0.2,0.31,0.31
		c0.06,0.06,0.12,0.12,0.19,0.19c0.03,0.03,0.07,0.07,0.1,0.1c0.03,0.03,0.06,0.07,0.09,0.1c0.14,0.15,0.29,0.31,0.45,0.47
		c0.15,0.18,0.32,0.35,0.49,0.54c0.17,0.2,0.36,0.39,0.54,0.6c0.18,0.21,0.38,0.43,0.57,0.66c0.09,0.12,0.2,0.24,0.3,0.36
		c0.09,0.12,0.2,0.24,0.3,0.37c0.1,0.13,0.2,0.26,0.31,0.38c0.1,0.13,0.2,0.26,0.31,0.39c0.09,0.14,0.2,0.27,0.31,0.41
		c0.1,0.14,0.2,0.28,0.31,0.42c0.2,0.28,0.41,0.58,0.61,0.87c0.09,0.15,0.2,0.3,0.3,0.45c0.1,0.15,0.2,0.31,0.3,0.46
		c0.1,0.15,0.2,0.31,0.3,0.46c0.09,0.16,0.2,0.31,0.29,0.48c0.19,0.31,0.38,0.63,0.56,0.95c0.19,0.32,0.36,0.66,0.54,0.98
		c0.16,0.33,0.34,0.66,0.49,0.99c0.16,0.32,0.31,0.66,0.47,0.98c0.08,0.16,0.14,0.32,0.22,0.48c0.03,0.09,0.07,0.16,0.11,0.25
		c0.03,0.08,0.07,0.16,0.1,0.24c0.07,0.16,0.14,0.32,0.2,0.48c0.06,0.16,0.12,0.32,0.19,0.48c0.03,0.08,0.06,0.15,0.09,0.23
		c0.03,0.08,0.06,0.16,0.09,0.24c0.06,0.15,0.12,0.31,0.18,0.45c0.11,0.31,0.21,0.6,0.31,0.88c0.05,0.14,0.1,0.28,0.14,0.43
		c0.03,0.07,0.05,0.14,0.08,0.2c0.02,0.07,0.04,0.14,0.06,0.2c0.09,0.26,0.18,0.52,0.26,0.77c0.07,0.25,0.15,0.48,0.21,0.7
		c0.07,0.22,0.13,0.43,0.18,0.62c0.06,0.2,0.1,0.37,0.15,0.53c0.03,0.09,0.04,0.16,0.07,0.23c0.02,0.08,0.03,0.14,0.05,0.2
		c0.03,0.13,0.07,0.23,0.09,0.31c0.05,0.18,0.08,0.27,0.08,0.27s0.01-0.1,0.01-0.28c0-0.09,0.01-0.2,0.01-0.33v-0.2
		C98.69,118.69,98.69,118.6,98.69,118.52z M289.1,107.26l-0.49,0.06c-0.16,0.02-0.33,0.03-0.49,0.05c-0.16,0.02-0.33,0.03-0.49,0.05
		c-0.16,0.02-0.33,0.03-0.49,0.05c-0.66,0.07-1.32,0.13-1.97,0.18c-0.66,0.06-1.31,0.11-1.97,0.15c-0.65,0.04-1.31,0.09-1.97,0.11
		c-0.32,0.02-0.65,0.03-0.98,0.04l-0.49,0.02c-0.17,0.01-0.33,0.02-0.49,0.02c-0.65,0.02-1.31,0.03-1.96,0.04
		c-0.66,0-1.31,0.01-1.97,0c-0.32-0.01-0.65-0.01-0.98-0.02l-0.48-0.01c-0.16-0.01-0.32-0.01-0.49-0.02l-0.97-0.03
		c-0.17-0.01-0.33-0.02-0.49-0.02c-0.16-0.01-0.32-0.02-0.48-0.03c-0.66-0.03-1.3-0.08-1.95-0.12c-0.66-0.05-1.3-0.1-1.95-0.16
		l-0.48-0.05l-0.48-0.04l-0.48-0.05c-0.16-0.02-0.32-0.03-0.48-0.06c-0.65-0.08-1.29-0.15-1.94-0.24c-0.64-0.09-1.28-0.18-1.93-0.28
		c-0.64-0.1-1.28-0.21-1.92-0.32l-0.65-0.11l-0.46,0.37l-0.11,0.09l-0.03,0.03l-0.02,0.02l-0.05,0.04
		c-0.03,0.03-0.07,0.06-0.09,0.09l-0.09,0.08c-0.11,0.1-0.22,0.2-0.32,0.31c-0.2,0.2-0.41,0.4-0.6,0.6c-0.39,0.4-0.77,0.8-1.15,1.2
		c-0.37,0.41-0.74,0.81-1.11,1.22c-0.37,0.41-0.73,0.81-1.1,1.23c-0.36,0.41-0.72,0.82-1.08,1.23c-0.36,0.42-0.71,0.83-1.06,1.24
		c-0.36,0.42-0.71,0.83-1.05,1.25c-0.35,0.42-0.7,0.84-1.05,1.26c-0.34,0.43-0.69,0.85-1.03,1.28c-0.35,0.42-0.68,0.85-1.02,1.28
		c-0.34,0.43-0.68,0.86-1.01,1.28c-0.33,0.43-0.66,0.87-1,1.3c-0.33,0.44-0.66,0.88-0.98,1.32c-0.32,0.44-0.64,0.88-0.96,1.34
		c-0.15,0.22-0.31,0.44-0.47,0.67c-0.15,0.22-0.31,0.45-0.46,0.68c-0.15,0.23-0.3,0.46-0.44,0.69c-0.14,0.24-0.29,0.47-0.41,0.71
		c0.18-0.2,0.37-0.4,0.56-0.59c0.2-0.2,0.38-0.39,0.58-0.58l1.17-1.14l2.34-2.28l1.17-1.14l1.17-1.15l1.16-1.15l1.16-1.15l2.3-2.31
		l2.29-2.31l1.14-1.16c0.38-0.38,0.76-0.77,1.14-1.14c0.38-0.38,0.77-0.77,1.15-1.13c0.19-0.18,0.37-0.37,0.56-0.54
		c0.03-0.02,0.04-0.03,0.06-0.05c0.44,0.09,0.88,0.16,1.34,0.24c0.66,0.11,1.34,0.21,2,0.3c0.67,0.09,1.34,0.17,2.02,0.24
		c0.17,0.02,0.33,0.03,0.5,0.04c0.17,0.02,0.34,0.03,0.5,0.05l0.51,0.03l0.5,0.04c0.67,0.04,1.35,0.08,2.02,0.1
		c0.17,0.01,0.34,0.01,0.5,0.01c0.17,0.01,0.34,0.01,0.51,0.02l0.5,0.01h0.51c0.67,0,1.35-0.01,2.02-0.03
		c0.67-0.02,1.34-0.05,2.02-0.1c0.34-0.02,0.67-0.04,1.01-0.08c0.17-0.01,0.33-0.03,0.5-0.04c0.17-0.02,0.33-0.03,0.5-0.05
		c0.34-0.03,0.67-0.07,1-0.11c0.17-0.02,0.33-0.03,0.5-0.06l0.5-0.07c0.17-0.02,0.33-0.04,0.5-0.07l0.49-0.08
		c0.33-0.05,0.66-0.1,1-0.16c0.66-0.11,1.33-0.24,1.98-0.38c0.66-0.14,1.31-0.29,1.96-0.45c0.66-0.16,1.3-0.33,1.95-0.52
		c0.15-0.05,0.31-0.1,0.48-0.14c0.16-0.05,0.32-0.1,0.48-0.15c0.32-0.09,0.64-0.2,0.96-0.31c0.63-0.22,1.26-0.44,1.88-0.7
		L289.1,107.26z M117.92,92.62l0.95-0.42l0.96-0.43l0.95-0.43l0.95-0.43l0.95-0.44l0.95-0.44l0.94-0.45l0.94-0.46
		c0.31-0.15,0.63-0.31,0.94-0.47c0.31-0.15,0.63-0.31,0.94-0.47c0.31-0.16,0.63-0.32,0.94-0.48c0.03-0.02,0.06-0.03,0.09-0.05
		c0.28-0.14,0.56-0.3,0.83-0.45c0.31-0.16,0.62-0.34,0.93-0.51c-0.35,0.09-0.69,0.17-1.03,0.26l-0.5,0.14l-0.51,0.14
		c-0.34,0.09-0.67,0.2-1.01,0.29c-0.03,0.01-0.05,0.02-0.08,0.02c-0.31,0.09-0.62,0.19-0.94,0.27c-0.33,0.1-0.66,0.2-1,0.3
		c-0.33,0.1-0.67,0.2-1,0.31l-1,0.31l-1,0.31l-1,0.32l-1,0.32c-0.66,0.22-1.33,0.44-1.98,0.67c-0.33,0.11-0.66,0.23-1,0.35
		c-0.32,0.11-0.66,0.23-0.99,0.35c-0.33,0.12-0.66,0.24-0.99,0.36l-0.99,0.37l-0.75,0.28l0.04,0.85c0.03,0.63,0.09,1.25,0.17,1.87
		c0.07,0.62,0.17,1.23,0.29,1.85c0.12,0.62,0.26,1.23,0.43,1.83c0.08,0.31,0.17,0.6,0.26,0.9c0.1,0.3,0.2,0.6,0.3,0.89
		c0.1,0.3,0.21,0.59,0.32,0.88c0.05,0.14,0.11,0.29,0.17,0.43l0.09,0.21l0.09,0.22c0.12,0.28,0.24,0.54,0.37,0.83l0.2,0.43
		c0.06,0.14,0.14,0.27,0.2,0.42c0.26,0.55,0.56,1.1,0.86,1.64c0.07,0.14,0.15,0.27,0.23,0.4l0.23,0.4c0.16,0.26,0.32,0.54,0.49,0.79
		c0.16,0.26,0.33,0.52,0.51,0.77c0.09,0.13,0.17,0.26,0.26,0.38l0.27,0.37c0.09,0.13,0.18,0.26,0.27,0.37l0.28,0.37l0.28,0.36
		l0.14,0.19l0.14,0.18c0.39,0.48,0.79,0.94,1.21,1.4c0.42,0.45,0.84,0.89,1.28,1.32c0.11,0.1,0.23,0.21,0.34,0.31
		c0.11,0.1,0.22,0.21,0.34,0.31c0.22,0.2,0.45,0.4,0.69,0.6c0.24,0.2,0.47,0.39,0.71,0.58c0.12,0.09,0.24,0.19,0.36,0.28
		c0.13,0.09,0.25,0.19,0.37,0.27c0.12,0.09,0.24,0.18,0.37,0.26l0.38,0.26l0.37,0.26l0.39,0.24c0.52,0.32,1.05,0.62,1.59,0.88
		c-0.44-0.41-0.88-0.82-1.31-1.23c-0.21-0.21-0.43-0.43-0.63-0.64c-0.21-0.21-0.42-0.43-0.61-0.65c-0.1-0.11-0.2-0.22-0.31-0.33
		l-0.14-0.16l-0.15-0.17c-0.2-0.22-0.39-0.44-0.58-0.67c-0.38-0.45-0.76-0.9-1.12-1.37c-0.18-0.23-0.36-0.47-0.54-0.7
		c-0.18-0.24-0.35-0.48-0.52-0.71l-0.26-0.36l-0.13-0.18l-0.13-0.19l-0.25-0.36l-0.24-0.37l-0.12-0.19l-0.12-0.18l-0.24-0.37
		l-0.23-0.37c-0.08-0.12-0.15-0.25-0.23-0.37l-0.22-0.37c-0.08-0.12-0.15-0.25-0.22-0.37l-0.43-0.77c-0.07-0.13-0.14-0.26-0.2-0.38
		l-0.2-0.38c-0.14-0.26-0.26-0.52-0.4-0.78c-0.12-0.26-0.26-0.52-0.37-0.78l-0.19-0.4c-0.06-0.13-0.12-0.26-0.18-0.39l-0.18-0.4
		l-0.17-0.39c-0.11-0.26-0.22-0.54-0.33-0.83l-0.09-0.2l-0.08-0.2c-0.05-0.14-0.1-0.27-0.15-0.41c-0.09-0.26-0.2-0.54-0.29-0.81
		c-0.18-0.54-0.36-1.09-0.5-1.65c-0.15-0.55-0.3-1.11-0.42-1.67c-0.12-0.56-0.22-1.13-0.31-1.69c-0.05-0.31-0.09-0.61-0.14-0.93
		l1.12-0.48L117.92,92.62z M249.75,101.41c-4.64-1.5-16.79-4.86-21.34-6.38c3.11,1.62,12.69,7.55,17.07,9.42
		c0.92,0.39,1.92,0.78,2.89,1.04c0.15,0.03,0.31-0.03,0.41-0.15c0.26-0.36,1.21-3.17,1.23-3.54
		C250.03,101.62,249.92,101.46,249.75,101.41z M78.2,89.8l2.61,2.08l11.44-0.41l5.96-2.37L78.2,89.8z M143.42,103.32
		c-6.73-0.97-13.44-2.03-20.15-3.17c0.97,1.17,1.94,2.34,2.92,3.5c1.23,1.48,36.14,3.43,51.84,3.94
		C166.47,106.41,154.93,104.98,143.42,103.32z M162.42,122.02c-13.33-0.66-37.94-2.18-52.4-3.29l14.11,3.41
		c13.42,0.54,23.91,0.85,37.86,0.92l1,0.01c4.45,0.02,9.04,0.04,13.55-0.26c0.5-0.03,0.99-0.07,1.46-0.11
		C172.79,122.5,167.56,122.28,162.42,122.02z M85.35,116.48c-0.6-8.75-6.81-15.46-13.88-14.98c-7.07,0.48-12.33,7.95-11.73,16.71
		c0.03,0.6,0.1,1.17,0.2,1.74c0.46-7.62,5.36-13.75,11.74-14.18c6.59-0.44,12.44,5.36,13.68,13.24
		C85.41,118.18,85.41,117.34,85.35,116.48z M226.75,114.73c-0.68-10.07-8.58-17.74-17.64-17.13c-9.07,0.61-15.86,9.26-15.19,19.34
		c0.06,0.86,0.17,1.71,0.33,2.54c0.37-9.09,6.82-16.56,15.21-17.13c8.29-0.55,15.59,5.8,17.3,14.58
		C226.81,116.21,226.8,115.47,226.75,114.73z M132.86,83.97c-0.22-5.08-0.3-9.56-0.66-10.19c-0.36-0.65-7.64,0.7-13.25,1.84
		c-3.32,0.67-5.73,3.47-6,6.75c-0.03,0.37-0.03,0.73-0.01,1.11l11.52,0.73c0,0,2.02-0.02,3.53-0.16c1.71,0.58,3.36,1.06,4.93,1.49
		C132.91,85.01,132.88,84.48,132.86,83.97z M187.53,67.48c-5.23-1.64-10.67-2.54-16.16-2.67c-10.42-0.22-16.04,2.45-16.04,2.45
		l31.08,18.7l0.48-0.12l0.25-0.07l0.25-0.06l0.49-0.11l0.25-0.06l0.24-0.05l0.49-0.11c1.29-0.28,2.57-0.53,3.85-0.77
		c1.28-0.23,2.54-0.46,3.82-0.67c1.27-0.21,2.54-0.42,3.81-0.61l0.95-0.14l0.95-0.14l1.91-0.28c1.27-0.18,2.54-0.35,3.82-0.51
		l0.96-0.13l0.95-0.12c0.64-0.08,1.28-0.15,1.92-0.23c1.28-0.14,2.56-0.29,3.85-0.41c1.29-0.13,2.59-0.25,3.89-0.34
		c0.66-0.05,1.31-0.09,1.97-0.13l1-0.04l1.02-0.03h0.54l0.28-0.01h0.14l0.12,0.01l0.48,0.01h0.3l0.24,0.02
		c0.64,0.02,1.28,0.05,1.92,0.08c1.15,0.05,2.3,0.11,3.45,0.18L187.53,67.48z M301.21,107.82c-0.22-0.22-0.45-0.45-0.68-0.67
		l-0.7-0.66c-0.12-0.11-0.24-0.22-0.36-0.33l-0.35-0.32c-0.48-0.43-0.94-0.87-1.44-1.28l-0.72-0.63l-0.18-0.16l-0.19-0.15
		l-0.37-0.31c-0.49-0.41-0.99-0.83-1.49-1.23l-0.76-0.6c-0.13-0.1-0.26-0.2-0.38-0.31l-0.38-0.29l-0.77-0.58
		c-0.26-0.2-0.51-0.39-0.77-0.58c-0.52-0.38-1.04-0.76-1.57-1.13l-1.59-1.1c-0.26-0.19-0.54-0.36-0.81-0.53l-0.82-0.53l-0.41-0.26
		l-0.2-0.14l-0.21-0.13l-0.83-0.5c-0.55-0.34-1.1-0.68-1.66-1l-0.84-0.48c-0.28-0.16-0.56-0.32-0.84-0.48l-1.71-0.92l-0.43-0.23
		c-0.14-0.08-0.29-0.14-0.43-0.22l-0.87-0.43c-0.59-0.29-1.16-0.59-1.75-0.86l-1.76-0.83c-0.14-0.07-0.3-0.13-0.44-0.2l-0.45-0.19
		l-0.89-0.38l-0.9-0.39l-0.05-0.02c-0.02-0.01,0-0.01-0.05-0.03l-0.03-0.01l-0.11-0.04l-0.22-0.09l-0.44-0.18l-0.88-0.35
		c-0.08-0.03-0.15-0.06-0.23-0.09l-0.23-0.09l-0.46-0.17l-0.93-0.35l-1.84-0.65l-0.93-0.31c-0.31-0.1-0.62-0.2-0.94-0.31l-0.93-0.29
		l-0.47-0.14l-0.24-0.07l-0.23-0.07l-0.94-0.27l-0.47-0.14l-0.47-0.13l-0.95-0.26c-0.31-0.09-0.63-0.16-0.94-0.24l-0.95-0.24
		l-0.95-0.22c-0.31-0.07-0.64-0.14-0.95-0.21c-0.64-0.14-1.28-0.27-1.92-0.39c-0.32-0.07-0.64-0.13-0.96-0.19l-0.97-0.17l-0.48-0.09
		l-0.48-0.08l-0.97-0.15c-1.29-0.2-2.59-0.37-3.9-0.52l-0.12-0.02l-0.16-0.01l-0.24-0.03l-0.48-0.04l-0.48-0.05l-0.48-0.04
		l-1.92-0.17c-1.28-0.1-2.55-0.21-3.83-0.31c-1.28-0.1-2.56-0.19-3.84-0.27l-1.92-0.12c-0.64-0.04-1.28-0.08-1.92-0.11
		c-0.13-0.01-0.26-0.02-0.39-0.02c-1.15-0.07-2.3-0.13-3.45-0.18c-0.65-0.03-1.28-0.06-1.92-0.08l-0.24-0.02h-0.3l-0.48-0.01
		l-0.12-0.01h-0.14l-0.28,0.01h-0.54l-1.02,0.03l-1,0.04c-0.66,0.04-1.32,0.08-1.97,0.13c-1.3,0.09-2.59,0.21-3.89,0.34
		c-1.28,0.12-2.57,0.26-3.85,0.41c-0.65,0.08-1.28,0.15-1.92,0.23l-0.95,0.12l-0.96,0.13c-1.28,0.16-2.55,0.33-3.82,0.51l-1.91,0.28
		l-0.95,0.14l-0.95,0.14c-1.27,0.2-2.54,0.4-3.81,0.61c-1.28,0.21-2.54,0.44-3.82,0.67c-1.28,0.25-2.55,0.49-3.85,0.77l-0.49,0.11
		l-0.24,0.05l-0.25,0.06l-0.49,0.11l-0.25,0.06l-0.25,0.07l-0.48,0.12l-0.03,0.01c-0.08,0.02-0.17,0.04-0.26,0.07l-0.26,0.07
		l-0.26,0.08c-0.04,0.01-0.09,0.03-0.14,0.03l-0.04,0.02c0.2,0,0.38,0.01,0.58,0.01l-1.23,0.2l0.56-0.18l0.09-0.03
		c-1.86-0.03-3.73-0.07-5.59-0.11c-2.06-0.05-4.11-0.1-6.17-0.16c-2.05-0.06-4.11-0.13-6.16-0.2c-2.06-0.08-4.11-0.15-6.17-0.24
		l-3.08-0.14l-3.08-0.15l-3.1-0.14l-3.08-0.16l-1.53-0.08l-1.54-0.09l-3.09-0.17l-3.08-0.19l-1.54-0.09l-1.54-0.1
		c-1.02-0.06-2.05-0.13-3.07-0.2l-0.76-0.05c0.02,0.51,0.04,1.04,0.07,1.57c-1.57-0.43-3.22-0.91-4.93-1.49
		c-1.51,0.14-3.53,0.16-3.53,0.16l-11.52-0.73c-0.03-0.37-0.02-0.74,0.01-1.11l-0.83-0.08c-0.51-0.05-1.02-0.1-1.53-0.15l-1.52-0.16
		l-1.53-0.16c-0.51-0.05-1.02-0.1-1.53-0.16l-1.52-0.17l-1.52-0.18l-1.53-0.19l-1.53-0.19c-1.01-0.13-2.03-0.26-3.05-0.39
		c-1.01-0.13-2.03-0.26-3.05-0.4c-1.01-0.14-2.03-0.28-3.05-0.43c-1.02-0.14-2.03-0.29-3.05-0.43l-0.72-0.11l-0.57,0.19l-2.08,0.67
		l-2.08,0.66l-2.09,0.65l-2.09,0.65c-0.7,0.21-1.4,0.43-2.09,0.63c-0.71,0.21-1.4,0.42-2.1,0.62l-2.1,0.62l-2.11,0.6l-2.11,0.6
		c-0.71,0.2-1.4,0.39-2.11,0.59l-1.05,0.29l-1.06,0.29c-0.71,0.19-1.41,0.38-2.12,0.57l-2.12,0.55l-2.13,0.55l-2.13,0.54l-2.13,0.53
		l-0.77,0.2l-0.34,0.55c-0.35,0.59-0.68,1.19-0.99,1.8c-0.15,0.31-0.3,0.61-0.43,0.93l-0.1,0.24l-0.11,0.26l-0.17,0.45l-0.17,0.44
		c-0.03,0.07-0.06,0.16-0.09,0.24l-0.08,0.26c-0.11,0.33-0.24,0.66-0.32,0.99l-0.14,0.49l-0.07,0.25l-0.06,0.25l-0.12,0.49
		c-0.03,0.16-0.08,0.32-0.11,0.49l-0.09,0.5l-0.04,0.25l-0.03,0.12l-0.02,0.13l-0.08,0.5l-0.03,0.25c-0.01,0.09-0.03,0.17-0.03,0.25
		c-0.03,0.34-0.07,0.67-0.1,1l-0.06,1l-0.03,1l0.01,1l0.04,1l0.09,0.99c0.03,0.32,0.07,0.66,0.11,0.98
		c0.04,0.32,0.09,0.66,0.14,0.98l0.09,0.48l0.04,0.24l0.02,0.12l0.03,0.12l0.1,0.48c0.03,0.16,0.06,0.32,0.09,0.48
		c0.14,0.64,0.3,1.28,0.47,1.9l0.14,0.47c0.04,0.16,0.09,0.31,0.14,0.47c0.05,0.15,0.09,0.31,0.14,0.47l0.15,0.46
		c0.1,0.31,0.21,0.61,0.31,0.92c0.05,0.15,0.11,0.31,0.17,0.45l0.17,0.46c0.12,0.3,0.23,0.6,0.36,0.89l0.18,0.45l0.2,0.44
		c0.26,0.59,0.53,1.17,0.81,1.75c0.28,0.57,0.58,1.14,0.88,1.7l0.37-0.17c-0.26-0.58-0.51-1.16-0.75-1.74
		c-0.13-0.3-0.24-0.59-0.36-0.88l-0.16-0.44l-0.09-0.22l-0.09-0.22l-0.16-0.45l-0.15-0.45l-0.08-0.22l-0.08-0.23l-0.14-0.45
		l-0.14-0.45c-0.05-0.15-0.09-0.3-0.14-0.45c-0.09-0.31-0.18-0.61-0.26-0.92l-0.13-0.46c-0.03-0.15-0.07-0.31-0.11-0.46
		c-0.03-0.15-0.08-0.31-0.11-0.46l-0.1-0.46c-0.14-0.62-0.26-1.24-0.36-1.86c-0.03-0.16-0.05-0.31-0.07-0.47l-0.07-0.47l-0.02-0.12
		l-0.02-0.12l-0.03-0.24l-0.06-0.47c-0.03-0.31-0.06-0.63-0.09-0.94c-0.03-0.31-0.04-0.63-0.06-0.94l-0.03-0.94v-0.94l0.03-0.94
		l0.07-0.94l0.1-0.94c0.05-0.31,0.09-0.62,0.14-0.94c0.01-0.08,0.03-0.15,0.04-0.23l0.04-0.23l0.09-0.47l0.03-0.11l0.03-0.12
		l0.05-0.23l0.11-0.46c0.03-0.15,0.08-0.31,0.12-0.45l0.13-0.46l0.07-0.22l0.08-0.23l0.14-0.44c0.09-0.31,0.21-0.59,0.32-0.88
		l0.09-0.21c0.03-0.08,0.05-0.15,0.09-0.22l0.2-0.44l0.19-0.43l0.09-0.2l0.11-0.21c0.14-0.28,0.28-0.56,0.43-0.84
		c0.29-0.51,0.59-1.02,0.91-1.51l-0.13,0.03l0.19-0.13c-0.03,0.03-0.04,0.07-0.06,0.1c2.84-0.58,5.67-1.18,8.5-1.83
		c2.87-0.65,5.73-1.33,8.58-2.04c2.86-0.71,5.7-1.45,8.53-2.23c0.71-0.19,1.42-0.38,2.13-0.58l2.13-0.6c0.71-0.2,1.41-0.4,2.12-0.6
		l2.04-0.6c-0.03-0.01-0.06-0.01-0.09-0.02l0.17-0.01l-0.08,0.03c4.04,0.7,8.1,1.35,12.16,1.94c1.03,0.15,2.05,0.3,3.07,0.44
		l1.54,0.21l1.54,0.2c0.51,0.07,1.02,0.14,1.54,0.2l1.53,0.2c1.03,0.12,2.06,0.25,3.09,0.36l1.54,0.18l1.54,0.17l1.54,0.16
		l1.55,0.15l1.54,0.16l1.54,0.14l1.55,0.14l1.54,0.14c1.01,0.09,2.02,0.18,3.04,0.26c0.03,0,0.05-0.01,0.08-0.02
		c0.34-0.09,0.67-0.2,1.01-0.29l0.51-0.14l0.5-0.14c0.34-0.09,0.68-0.18,1.03-0.26c-0.31,0.17-0.61,0.35-0.93,0.51
		c-0.27,0.15-0.55,0.31-0.83,0.45c0.6,0.05,1.18,0.09,1.78,0.14l3.09,0.24c1.03,0.09,2.06,0.15,3.1,0.23l1.54,0.11l1.55,0.1l3.1,0.2
		l3.1,0.2l1.54,0.09l1.55,0.09l3.1,0.18l3.1,0.16l1.55,0.08l1.55,0.08l3.1,0.14c4.13,0.19,8.26,0.32,12.4,0.43
		c4.13,0.11,8.27,0.18,12.4,0.22h0.06l0.08-0.02c0.3-0.09,0.59-0.2,0.89-0.28c0.15-0.04,0.3-0.09,0.45-0.12l0.46-0.12
		c0.61-0.16,1.23-0.31,1.85-0.44c1.23-0.28,2.48-0.54,3.73-0.78c2.49-0.48,4.99-0.93,7.5-1.34c2.51-0.41,5.02-0.8,7.54-1.16
		c2.52-0.36,5.04-0.7,7.56-0.98c1.27-0.15,2.53-0.28,3.79-0.39c1.26-0.11,2.53-0.21,3.79-0.26l0.47-0.01l0.24-0.01h0.94l0.24,0.01
		l1.91,0.04c1.27,0.03,2.54,0.07,3.81,0.11c1.28,0.03,2.54,0.09,3.81,0.14c1.28,0.06,2.54,0.12,3.81,0.18
		c1.28,0.07,2.54,0.14,3.81,0.21l2.86,0.18l0.48,0.03l0.24,0.02l0.11,0.01l0.12,0.01c1.27,0.11,2.53,0.25,3.79,0.4l0.94,0.12
		l0.47,0.07l0.48,0.07l0.94,0.14c0.31,0.05,0.63,0.1,0.94,0.15c0.63,0.1,1.25,0.21,1.88,0.33c0.31,0.05,0.62,0.12,0.94,0.18
		l0.93,0.18l0.94,0.2c0.31,0.07,0.62,0.13,0.93,0.2l0.93,0.21l0.46,0.11l0.46,0.12c2.47,0.61,4.91,1.32,7.31,2.13
		c0.3,0.1,0.6,0.2,0.9,0.3l0.9,0.32l0.44,0.16l0.23,0.08l0.11,0.04l0.03,0.01l0.03,0.01l0.06,0.03l0.88,0.34l0.89,0.34l0.44,0.17
		c0.14,0.05,0.3,0.11,0.44,0.17l1.76,0.73c0.59,0.24,1.16,0.51,1.74,0.77l0.87,0.39c0.14,0.07,0.3,0.13,0.43,0.2l0.43,0.21
		l1.71,0.83c0.57,0.29,1.13,0.58,1.69,0.87c2.25,1.18,4.46,2.44,6.6,3.79c2.15,1.35,4.25,2.79,6.29,4.3l0.38,0.28l0.19,0.14
		l0.19,0.14l0.76,0.59c0.5,0.38,1,0.78,1.5,1.17l0.37,0.3c0.13,0.1,0.25,0.2,0.37,0.31l0.73,0.6c0.24,0.2,0.48,0.42,0.72,0.62
		l0.72,0.62l0.27-0.31L301.21,107.82z M233.93,82c0.02,0.01,0.03,0.01,0.03,0.01c0,0.01,0.01,0.01,0.01,0.01L233.93,82z"/>
	<g class="st20">
		<text transform="matrix(1 0 0 1 29.3457 154.6064)" class="st21 st22 st23">Auto &amp; Transportation</text>
	</g>
</g>
<g id="Logo14">
</g>
<g id="Layer_15">
</g>
</svg>
