<?xml version="1.0" encoding="utf-8"?>
<!-- Generator: Adobe Illustrator 27.8.1, SVG Export Plug-In . SVG Version: 6.00 Build 0)  -->
<svg version="1.1" xmlns="http://www.w3.org/2000/svg" xmlns:xlink="http://www.w3.org/1999/xlink" x="0px" y="0px"
	 viewBox="0 0 350 230" style="enable-background:new 0 0 350 230;" xml:space="preserve">
<style type="text/css">
	.st0{fill:#003799;}
	.st1{fill:#630000;}
	.st2{fill-rule:evenodd;clip-rule:evenodd;fill:#037FE1;}
	.st3{fill-rule:evenodd;clip-rule:evenodd;}
	.st4{fill-rule:evenodd;clip-rule:evenodd;fill:#562900;}
	.st5{fill-rule:evenodd;clip-rule:evenodd;fill:#00184C;}
	.st6{fill-rule:evenodd;clip-rule:evenodd;fill:#2C2C5B;}
	.st7{fill-rule:evenodd;clip-rule:evenodd;fill:#007C89;}
	.st8{fill:#C97C00;}
	.st9{fill:#7A6B00;}
	.st10{fill-rule:evenodd;clip-rule:evenodd;fill:#022B18;}
	.st11{fill-rule:evenodd;clip-rule:evenodd;fill:#03113F;}
	.st12{fill:#273F02;}
	.st13{fill:url(#SVGID_1_);}
	.st14{fill:#B62126;}
	.st15{fill:#231F20;}
	.st16{fill:#FFFFFF;}
	.st17{fill:#17629D;}
	.st18{fill:#540159;}
	.st19{fill:#66082A;}
	.st20{display:none;}
	.st21{fill:#005C68;}
	.st22{fill:#563900;}
	.st23{display:none;fill:#563900;}
	.st24{font-family:'MidnightDayRegular';}
	.st25{font-size:30px;}
</style>
<g id="Logo1">
</g>
<g id="Logo2">
</g>
<g id="Logo3">
</g>
<g id="Logo4">
</g>
<g id="Logo5">
</g>
<g id="Logo6">
</g>
<g id="Logo7">
</g>
<g id="Logo8">
</g>
<g id="Logo9">
</g>
<g id="Logo10">
</g>
<g id="Logo11">
</g>
<g id="Logo12">
</g>
<g id="Logo13">
</g>
<g id="Logo14">
</g>
<g id="Layer_15">
	<path class="st22" d="M84.62,79.27c24.02,2.24,45.18,3.17,60.37,3.55c2.8-4.29,6.89-7.09,11.54-7.71
		c4.04-0.55,12.62-0.74,12.98-0.74h0.14c0.37,0,8.94,0.19,12.98,0.74c4.65,0.63,8.74,3.43,11.54,7.71
		c15.2-0.38,36.36-1.31,60.38-3.55c5.43-0.82,14.8-5.08,15.16-8.34c-2.18-4.3-15.19-4.44-18.44-2.47c-3.14,1.88,0.42,4.27,0.89,8.49
		c-5.49-5.24-19.09-17.89-26.49-21.45c-9.44-4.55-22.01-7.03-56.08-7.03s-46.64,2.49-56.08,7.03c-7.4,3.56-21,16.21-26.49,21.45
		c0.47-4.22,4.03-6.61,0.89-8.49c-3.25-1.97-16.26-1.83-18.44,2.47C69.82,74.19,79.2,78.45,84.62,79.27z M109.16,61.37
		c10.79-9.03,22.51-11.92,60.43-11.92c37.92,0,49.64,2.89,60.43,11.92c6.08,4.27,14.23,11.87,11.08,14.36
		c-2.07,1.62-12.55,2.64-19.54,3.14c5.52-0.67,10.03-1.47,12.58-2.4c10.23-3.74-1.49-12.28-13.28-17.5
		c-7.21-3.21-36.49-5.54-51.27-5.34c-14.79-0.2-44.06,2.13-51.27,5.34c-11.78,5.23-23.51,13.76-13.28,17.5
		c2.55,0.93,7.06,1.73,12.58,2.4c-7-0.51-17.47-1.52-19.54-3.14C94.93,73.23,103.08,65.64,109.16,61.37z M65.46,128.69
		c0,0-7.71-10.15-5.94-22.08c0.69-4.67,4.19-9.2,17.79-19.32c-3.39,3.32-13.57,14.68-14.68,18.61
		C61.78,108.87,62.34,119.23,65.46,128.69z M273.71,128.69c3.12-9.46,3.67-19.82,2.84-22.8c-1.11-3.94-11.28-15.29-14.68-18.61
		c13.59,10.12,17.1,14.66,17.79,19.32C281.41,118.54,273.71,128.69,273.71,128.69z M169.59,118.69
		c-19.08-1.07-64.08-7.21-96.53-15.81c0,0-4.66,9.39,0,19.2c17.24,9.44,71.69,18.43,96.53,18.41c24.83,0.03,79.27-8.97,96.51-18.41
		c4.66-9.8,0-19.2,0-19.2C233.66,111.48,188.65,117.62,169.59,118.69z M185.01,122.58c1.75-0.2,3.55-0.42,5.37-0.64v12.95
		c-1.82,0.2-3.62,0.38-5.37,0.54V122.58z M181.06,135.77c-1.66,0.13-3.25,0.25-4.77,0.34v-12.66c1.5-0.13,3.1-0.28,4.77-0.45V135.77
		z M194.34,121.43c1.67-0.22,3.35-0.44,5.02-0.67v13.08c-1.67,0.21-3.35,0.41-5.02,0.6V121.43z M203.32,120.21
		c1.58-0.22,3.13-0.44,4.64-0.66v13.14c-1.52,0.21-3.06,0.43-4.64,0.64V120.21z M211.91,118.97c1.66-0.25,3.24-0.48,4.71-0.71v13.12
		c-1.49,0.24-3.07,0.49-4.71,0.73V118.97z M131.22,119.55c1.51,0.22,3.06,0.44,4.64,0.66v13.12c-1.57-0.21-3.12-0.42-4.64-0.64
		V119.55z M127.27,132.12c-1.64-0.25-3.22-0.49-4.71-0.73v-13.12c1.47,0.22,3.05,0.46,4.71,0.71V132.12z M139.81,120.77
		c1.67,0.23,3.35,0.45,5.02,0.67v13.01c-1.67-0.19-3.35-0.4-5.02-0.6V120.77z M148.79,121.94c1.82,0.23,3.63,0.44,5.37,0.64v12.85
		c-1.75-0.16-3.55-0.34-5.37-0.54V121.94z M158.11,123.01c1.67,0.17,3.27,0.32,4.77,0.45v12.66c-1.51-0.09-3.11-0.21-4.77-0.34
		V123.01z M111.71,116.57c0,0,2.66,0.43,6.89,1.09v13.06c-2.85-0.51-5.21-0.98-6.83-1.38C111.77,129.34,114.96,124.94,111.71,116.57
		z M166.83,136.3v-12.57c0.99,0.06,1.92,0.1,2.75,0.11c0.83-0.02,1.76-0.06,2.75-0.11v12.57c-0.97,0.03-1.9,0.05-2.75,0.06
		C168.73,136.36,167.81,136.34,166.83,136.3z M227.39,129.34c-1.61,0.4-3.97,0.87-6.81,1.38v-13.06c4.22-0.65,6.88-1.09,6.88-1.09
		C224.2,124.94,227.39,129.34,227.39,129.34z M191.18,87.27l0.53,1.33l-1.72,0.07c-0.61,0.03-15.11,0.62-20.41,0.62
		c-5.3,0-19.8-0.6-20.41-0.62l-1.72-0.07l0.53-1.33c1.98-4.98,5.98-8.31,10.7-8.91c3.35-0.42,10.57-0.56,10.87-0.57
		c0.37,0.01,7.59,0.14,10.93,0.57C185.21,78.96,189.21,82.29,191.18,87.27z"/>
	<text transform="matrix(1 0 0 1 50.5171 172.4785)" class="st23 st24 st25">Auto &amp; Transportation</text>
</g>
</svg>
