<?xml version="1.0" encoding="utf-8"?>
<!-- Generator: Adobe Illustrator 27.8.1, SVG Export Plug-In . SVG Version: 6.00 Build 0)  -->
<svg version="1.1" id="Layer_1" xmlns="http://www.w3.org/2000/svg" xmlns:xlink="http://www.w3.org/1999/xlink" x="0px" y="0px"
	 viewBox="0 0 350 230" style="enable-background:new 0 0 350 230;" xml:space="preserve">
<style type="text/css">
	.st0{fill:none;stroke:#000000;stroke-miterlimit:10;}
	.st1{fill:#F9C616;}
	.st2{fill:#D71674;}
	.st3{fill:#2592D0;}
	.st4{fill:#2C2C2D;}
	.st5{fill:#DD5D26;}
	.st6{fill:#66CCF5;}
	.st7{fill:#EB1D25;}
	.st8{fill:#FDB715;}
	.st9{fill:#3681C3;}
	.st10{fill:#F79021;}
	.st11{fill:#109696;}
	.st12{fill:#62439A;}
	.st13{fill:#D0CA29;}
	.st14{fill:#EE344C;}
	.st15{fill:#030304;}
	.st16{fill:#83C562;}
	.st17{fill:#F78F1E;}
	.st18{fill:#284BA0;}
	.st19{fill:#684EA0;}
	.st20{fill:#61C088;}
	.st21{fill:#77C9AE;}
	.st22{fill:#F5BD1A;}
	.st23{fill:#AE72B0;}
	.st24{fill:#E44197;}
	.st25{fill:#9A64A9;}
	.st26{fill:#5FA2D8;}
	.st27{fill:#51B3E5;}
</style>
<path class="st16" d="M94.8,122c4.8,5.7,11.2,11.3,19.7,16.4c9-7.3,14.9-14.7,15.5-21.9c0.8-9.1-14.7-21.5-32.4-32.5
	C95.9,92.8,93.9,106.9,94.8,122z"/>
<path class="st17" d="M94.8,122c-15.4-18.2-14.5-37.6-12.7-47.1l-10.7-5.7c-4.5,5.5-14.4,18.9-18.9,37c7,31,24.2,44.7,33.7,50.1
	c4.9-2.6,9.6-5.2,13.9-7.9c5-3.1,9.8-6.4,14.4-10.1C106,133.3,99.7,127.7,94.8,122z"/>
<path class="st18" d="M52.5,106.2c4.5-18.1,14.4-31.5,18.9-37c-12.9-6.7-22.7-11.1-22.7-11.1c-36.2-14.4-32.5,52.7-29.3,88.2
	s25.3,29,25.3,29c6-2.4,12.3-5.1,18.7-7.9C48.8,144.8,48.2,123.4,52.5,106.2z"/>
</svg>
