<?xml version="1.0" encoding="utf-8"?>
<!-- Generator: Adobe Illustrator 27.8.1, SVG Export Plug-In . SVG Version: 6.00 Build 0)  -->
<svg version="1.1" id="Layer_1" xmlns="http://www.w3.org/2000/svg" xmlns:xlink="http://www.w3.org/1999/xlink" x="0px" y="0px"
	 viewBox="0 0 350 230" style="enable-background:new 0 0 350 230;" xml:space="preserve">
<style type="text/css">
	.st0{fill:none;stroke:#000000;stroke-miterlimit:10;}
	.st1{fill:#F9C616;}
	.st2{fill:#D71674;}
	.st3{fill:#2592D0;}
	.st4{fill:#2C2C2D;}
	.st5{fill:#DD5D26;}
	.st6{fill:#66CCF5;}
	.st7{fill:#EB1D25;}
	.st8{fill:#FDB715;}
	.st9{fill:#3681C3;}
	.st10{fill:#F79021;}
	.st11{fill:#109696;}
	.st12{fill:#62439A;}
	.st13{fill:#D0CA29;}
	.st14{fill:#EE344C;}
	.st15{fill:#030304;}
	.st16{fill:#83C562;}
	.st17{fill:#F78F1E;}
	.st18{fill:#284BA0;}
	.st19{fill:#684EA0;}
	.st20{fill:#61C088;}
	.st21{fill:#77C9AE;}
	.st22{fill:#F5BD1A;}
	.st23{fill:#AE72B0;}
	.st24{fill:#E44197;}
	.st25{fill:#9A64A9;}
	.st26{fill:#5FA2D8;}
	.st27{fill:#51B3E5;}
</style>
<g>
	<polygon class="st9" points="68,140 61.2,140 58.3,155.1 68,155.1 	"/>
	<polygon class="st10" points="91.8,155.1 99.5,155.1 91.5,140 85.5,140 	"/>
	<polygon class="st11" points="46.5,155.1 57.1,155.1 60.1,140 53,140 	"/>
	<polygon class="st12" points="76.2,140 69.1,140 69.1,155.1 79.5,155.1 	"/>
	<polygon class="st13" points="51.7,140 45.6,140 35.8,155.1 45.3,155.1 	"/>
	<polygon class="st14" points="84.2,140 77.3,140 80.7,155.1 90.6,155.1 	"/>
</g>
<path class="st15" d="M128.4,108.5H7.9l15.5-13.1h89.1L128.4,108.5z M95.2,74.3H40.6v17.4h54.6V74.3z M131.9,115.8v26.7
	c0,2.6-2.1,4.8-4.7,4.8c0,0-0.1,0-0.1,0h-23.6l-2.6-11.8H35.8l-2.6,11.8H10.1c-2.6,0-4.8-2.1-4.8-4.7c0,0,0-0.1,0-0.1v-26.7
	c0-0.3,0-0.6,0.1-0.8h126.5C131.8,115.2,131.9,115.5,131.9,115.8z M25.3,135.6H12.7v4.4h12.6V135.6z"/>
</svg>
