<?xml version="1.0" encoding="utf-8"?>
<!-- Generator: Adobe Illustrator 27.8.1, SVG Export Plug-In . SVG Version: 6.00 Build 0)  -->
<svg version="1.1" id="Layer_1" xmlns="http://www.w3.org/2000/svg" xmlns:xlink="http://www.w3.org/1999/xlink" x="0px" y="0px"
	 viewBox="0 0 350 230" style="enable-background:new 0 0 350 230;" xml:space="preserve">
<style type="text/css">
	.st0{fill:none;stroke:#000000;stroke-miterlimit:10;}
	.st1{fill:#F9C616;}
	.st2{fill:#D71674;}
	.st3{fill:#2592D0;}
	.st4{fill:#2C2C2D;}
	.st5{fill:#DD5D26;}
	.st6{fill:#66CCF5;}
	.st7{fill:#EB1D25;}
	.st8{fill:#FDB715;}
	.st9{fill:#3681C3;}
	.st10{fill:#F79021;}
	.st11{fill:#109696;}
	.st12{fill:#62439A;}
	.st13{fill:#D0CA29;}
	.st14{fill:#EE344C;}
	.st15{fill:#030304;}
	.st16{fill:#83C562;}
	.st17{fill:#F78F1E;}
	.st18{fill:#284BA0;}
	.st19{fill:#684EA0;}
	.st20{fill:#61C088;}
	.st21{fill:#77C9AE;}
	.st22{fill:#F5BD1A;}
	.st23{fill:#AE72B0;}
	.st24{fill:#E44197;}
	.st25{fill:#9A64A9;}
	.st26{fill:#5FA2D8;}
	.st27{fill:#51B3E5;}
</style>
<rect x="5.2" y="43.1" class="st0" width="131.6" height="146.6"/>
<path class="st19" d="M119.6,162.1l-0.2-0.6h-0.8c-0.4,0-43.9-3.5-56-21.1c-0.1-0.1-1.8-2.4-0.7-5.9s6.3-10,23.5-15.8
	c9.9-3.3,17.7-7.1,23.5-11.2l19.5,32.7C133.6,149,128.7,159.7,119.6,162.1z M89.2,92.1c3.5-1,6.4-2,8.9-2.9L81.9,62
	c-5.7-9.6-19.6-9.6-25.3,0l-23.6,39.7l-6.2,10.4C39.3,104.6,54.1,101,70.4,97C76.5,95.4,82.7,93.9,89.2,92.1z"/>
<path class="st20" d="M61.7,141.1c0,0-9.4-12.3,23.4-23.4c10.7-3.6,18.1-7.4,23.3-11.1C119,98.9,120,91.7,120,88
	c0-5.4-9-12.3-10.9-13.2c0,0,10.4,7.3-10.5,15.4c-2.6,1-5.6,2-9.2,3c-25,7-46.9,10-64,21.1l-15.5,26c-5.8,9.8,1.2,22.3,12.7,22.3
	h93.1l1.7-0.1C110.6,161.9,73.1,157.6,61.7,141.1z"/>
</svg>
