<?xml version="1.0" encoding="utf-8"?>
<!-- Generator: Adobe Illustrator 27.8.1, SVG Export Plug-In . SVG Version: 6.00 Build 0)  -->
<svg version="1.1" id="Layer_1" xmlns="http://www.w3.org/2000/svg" xmlns:xlink="http://www.w3.org/1999/xlink" x="0px" y="0px"
	 viewBox="0 0 350 230" style="enable-background:new 0 0 350 230;" xml:space="preserve">
<style type="text/css">
	.st0{fill:none;stroke:#000000;stroke-miterlimit:10;}
	.st1{fill:#F9C616;}
	.st2{fill:#D71674;}
	.st3{fill:#2592D0;}
	.st4{fill:#2C2C2D;}
	.st5{fill:#DD5D26;}
	.st6{fill:#66CCF5;}
	.st7{fill:#EB1D25;}
	.st8{fill:#FDB715;}
	.st9{fill:#3681C3;}
	.st10{fill:#F79021;}
	.st11{fill:#109696;}
	.st12{fill:#62439A;}
	.st13{fill:#D0CA29;}
	.st14{fill:#EE344C;}
	.st15{fill:#030304;}
	.st16{fill:#83C562;}
	.st17{fill:#F78F1E;}
	.st18{fill:#284BA0;}
	.st19{fill:#684EA0;}
	.st20{fill:#61C088;}
	.st21{fill:#77C9AE;}
	.st22{fill:#F5BD1A;}
	.st23{fill:#AE72B0;}
	.st24{fill:#E44197;}
	.st25{fill:#9A64A9;}
	.st26{fill:#5FA2D8;}
	.st27{fill:#51B3E5;}
</style>
<rect x="5.2" y="43.1" class="st0" width="131.6" height="146.6"/>
<path class="st24" d="M84,64.8l31.8,14.3c0,0,6.7,1.6,6.7,12.2v45.3c0,0,0.5,4.3-3.9,2.2c-4.4-2.1-5.3-2.4-5.3-2.4s-3-1.3-3.2-4.2
	c-0.2-3,0-39.1,0-39.1s0.6-3-2.1-4.6l-22.7-10c0,0-4.9-1.3-4.9-6.3v-6.6C80.5,65.7,80.9,63.4,84,64.8z"/>
<path class="st25" d="M72.9,66.1l0.2,56.5c0.4,2.5,1.9,4.6,4.2,5.6c3.9,1.9,42.1,18.9,42.1,18.9s5,2.3,2.2,5.6
	c-2.1,2.5-5.4,3.6-8.6,3c-1.9-0.5-48.3-21-48.3-21s-5.3-1.7-4.9-8.6s0-55.9,0-55.9s-0.1-4.5,4.1-6.6S72.8,60.7,72.9,66.1z"/>
<path class="st26" d="M52.1,75.8l0.2,56.5c0.4,2.5,2,4.6,4.2,5.6c3.9,1.9,42.1,18.8,42.1,18.8s5,2.4,2.2,5.6c-2.1,2.5-5.4,3.7-8.6,3
	c-1.9-0.5-48.3-21-48.3-21s-5.3-1.7-4.9-8.6c0.5-6.9,0-55.8,0-55.8s-0.1-4.6,4.1-6.6C47.2,71.3,52.1,70.4,52.1,75.8z"/>
<path class="st27" d="M31.8,84.6l0.2,59c0.4,2.5,2,4.6,4.3,5.6c3.9,1.9,42,18.8,42,18.8s5,2.4,2.2,5.6c-2.1,2.5-5.4,3.7-8.6,3
	c-1.9-0.5-48.3-21-48.3-21s-5.4-1.7-4.9-8.6s0-58.4,0-58.4s-0.2-4.5,4.1-6.6S31.8,79.2,31.8,84.6z"/>
</svg>
