<?xml version="1.0" encoding="UTF-8"?>
<svg id="Layer_1" data-name="Layer 1" xmlns="http://www.w3.org/2000/svg" viewBox="0 0 350 230">
  <defs>
    <style>
      .cls-1 {
        fill: #1f93d1;
      }

      .cls-1, .cls-2, .cls-3, .cls-4 {
        stroke-width: 0px;
      }

      .cls-2 {
        fill: #fdcf0b;
      }

      .cls-3 {
        fill: #ec0c8c;
      }

      .cls-4 {
        fill: #231f20;
      }
    </style>
  </defs>
  <path class="cls-2" d="m173.57,35.85v16.98s.38,3.35-2.46,3.82-5.99,2.29-7.77-1.91-6.2-15.2-6.2-15.2c0,0-1.91-3.23,2.08-4.2,4.88-1.15,10.87-2.08,10.87-2.08,0,0,3.48-.85,3.48,2.59Zm-23.99,3.48s-5.31,2.89-9.47,5.65c-3.4,2.29-.51,4.67-.51,4.67,0,0,7.85,8.87,11,12.19s5.48.51,7.98-.89,1.02-4.42,1.02-4.42l-5.65-15.54-.17-.47c-1.19-3.23-4.2-1.19-4.2-1.19Zm34.35,116.12s5.99-.93,10.87-2.08c3.99-.98,2.08-4.2,2.08-4.2,0,0-4.37-11.04-6.2-15.2s-4.93-2.38-7.77-1.91-2.46,3.82-2.46,3.82v16.98c0,3.44,3.48,2.59,3.48,2.59Zm20.51-6.07s5.31-2.89,9.47-5.65c3.4-2.29.51-4.67.51-4.67,0,0-7.85-8.87-11-12.19-3.14-3.31-5.48-.51-7.98.89s-1.02,4.42-1.02,4.42l5.65,15.54.17.47c1.19,3.23,4.2,1.19,4.2,1.19Z"/>
  <path class="cls-4" d="m136.76,51.73l.3.34,10.66,12.7s2.42,2.29.55,4.5-3.14,5.6-7.22,3.57-14.48-7.69-14.48-7.69c0,0-3.57-1.27-1.1-4.54,2.97-4.03,6.96-8.58,6.96-8.58,0,0,2.12-2.93,4.33-.3Zm-16.13,18.09s-2.17,5.65-3.61,10.44c-1.15,3.95,2.59,3.91,2.59,3.91,0,0,11.72,1.7,16.26,2.25,4.54.55,4.54-3.1,5.52-5.82.98-2.72-2.04-4.03-2.04-4.03l-14.31-8.28-.42-.25c-2.97-1.7-3.99,1.78-3.99,1.78Zm100.97,66.87s3.99-4.54,6.96-8.58c2.46-3.27-1.1-4.54-1.1-4.54,0,0-10.4-5.6-14.48-7.69s-5.35,1.36-7.22,3.57c-1.87,2.21.55,4.5.55,4.5l10.66,12.7.3.34c2.21,2.63,4.33-.3,4.33-.3Zm11.8-17.79s2.17-5.65,3.61-10.44c1.15-3.95-2.59-3.91-2.59-3.91,0,0-11.72-1.7-16.26-2.25s-4.54,3.1-5.52,5.82,2.04,4.03,2.04,4.03l14.31,8.28.42.25c2.97,1.7,3.99-1.78,3.99-1.78h0Z"/>
  <path class="cls-1" d="m119.94,107.9l.47-.08,16.3-2.89s3.23-.93,4.16,1.78c.93,2.72,3.31,5.48-.51,7.98s-13.88,8.75-13.88,8.75c0,0-2.84,2.42-4.5-1.32-2-4.59-3.95-10.32-3.95-10.32,0,0-1.44-3.31,1.91-3.91Zm7.64,23.01s3.78,4.71,7.22,8.32c3.44,3.61,4.67-.25,4.67-.25,0,0,7.35-9.3,10.06-12.95s-.42-5.48-2.25-7.73-4.5-.21-4.5-.21l-14.35,8.24-.42.25c-2.93,1.7-.42,4.33-.42,4.33h0Zm108.4-54.01s-1.95-5.73-3.95-10.32c-1.66-3.74-4.5-1.32-4.5-1.32,0,0-10.11,6.24-13.88,8.75-3.78,2.51-1.49,5.26-.51,7.98s4.16,1.78,4.16,1.78l16.3-2.89.47-.08c3.35-.59,1.91-3.91,1.91-3.91Zm-9.55-19.11s-3.78-4.71-7.22-8.32-4.67.25-4.67.25c0,0-7.35,9.3-10.06,12.95s.42,5.48,2.25,7.73,4.5.21,4.5.21l14.35-8.24.42-.25c2.93-1.7.42-4.33.42-4.33Z"/>
  <path class="cls-3" d="m142.02,141.4l.3-.38,10.61-12.65s1.87-2.8,4.33-1.32,6.07,2.08,4.76,6.45-5.05,15.62-5.05,15.62c0,0-.59,3.69-4.29,1.87-4.46-2.25-9.64-5.39-9.64-5.39,0,0-3.23-1.61-1.02-4.2Zm20.59,12.74s5.94,1.19,10.91,1.74c4.08.47,3.4-3.23,3.4-3.23,0,0-.34-11.85-.59-16.39s-3.82-3.95-6.67-4.46-3.65,2.72-3.65,2.72l-5.65,15.54-.17.47c-1.15,3.23,2.42,3.61,2.42,3.61Zm48.36-111.03s-5.18-3.14-9.64-5.39c-3.69-1.83-4.29,1.87-4.29,1.87,0,0-3.78,11.25-5.05,15.62s2.25,5.01,4.76,6.45,4.33-1.32,4.33-1.32l10.61-12.65.3-.38c2.21-2.59-1.02-4.2-1.02-4.2Zm-19.57-8.53s-5.94-1.19-10.91-1.74c-4.08-.47-3.4,3.23-3.4,3.23,0,0,.34,11.85.59,16.39s3.82,3.95,6.67,4.46,3.65-2.72,3.65-2.72l5.65-15.54.17-.47c1.15-3.23-2.42-3.61-2.42-3.61Z"/>
</svg>