<?xml version="1.0" encoding="UTF-8"?>
<svg id="Layer_1" data-name="Layer 1" xmlns="http://www.w3.org/2000/svg" viewBox="0 0 350 230">
  <defs>
    <style>
      .cls-1 {
        fill: #0f2c4d;
      }

      .cls-1, .cls-2, .cls-3 {
        stroke-width: 0px;
      }

      .cls-2 {
        fill: #36469d;
      }

      .cls-3 {
        fill: #1ca6ca;
      }
    </style>
  </defs>
  <path class="cls-3" d="m181.63,87.9l-45.42-26.66c-1.55-.92-3.32-1.41-5.13-1.41-5.76.07-10.39,4.79-10.34,10.55v53.28c-.05,5.77,4.57,10.5,10.34,10.6,1.81-.02,3.58-.52,5.13-1.45l45.42-26.62c5.05-3.05,6.67-9.62,3.62-14.67-.9-1.48-2.14-2.73-3.62-3.62Zm-4.27,10.98l-45.42,26.66c-.26.16-.55.25-.85.26-1.09-.11-1.91-1.04-1.88-2.14v-53.28c-.03-1.09.79-2.03,1.88-2.14.3,0,.6.09.85.26l45.42,26.66c.65.4,1.03,1.12.98,1.88.03.75-.35,1.45-.98,1.84Z"/>
  <path class="cls-1" d="m186.33,83.72l-24.1-13.8-24.23-13.93c-9.96-5.68-22.3,1.45-22.3,12.9v55.5c0,11.45,12.35,18.59,22.3,12.9l24.23-13.93,24.1-13.84c9.96-5.68,9.96-20.08,0-25.81Zm-1.62,23.03l-48.33,27.73c-1.75,1.02-3.74,1.56-5.77,1.58-5.6,0-11.67-4.49-11.67-11.67v-55.5c0-7.22,6.07-11.67,11.67-11.67,2.03.02,4.01.56,5.77,1.58l48.33,27.73c5.58,3.22,7.5,10.35,4.28,15.93-1.03,1.78-2.5,3.25-4.28,4.28h0Zm47.34,5.81l-34.87,19.83-36.28,20.64c-10.72,6.07-23.63-.26-26.41-11.58,1.49-.35,2.93-.9,4.27-1.62,1.32,6.34,6.86,10.92,13.33,11.02,2.3,0,4.56-.62,6.54-1.79l71.14-40.46c6.73-3.93,9-12.56,5.07-19.29-1.22-2.1-2.97-3.84-5.07-5.07l-71.14-40.46c-1.98-1.17-4.24-1.79-6.54-1.79-6.64.11-12.27,4.91-13.42,11.45-1.35-.71-2.79-1.24-4.27-1.58,2.52-11.62,15.64-18.2,26.49-12.05l36.28,20.64,34.87,19.83c12.35,7.05,12.35,25.25,0,32.3h0Z"/>
  <path class="cls-2" d="m152.1,146.27c1.51,0,3-.41,4.32-1.15l71.1-40.46c4.55-2.68,6.07-8.55,3.39-13.1-.82-1.4-1.99-2.56-3.39-3.39l-71.1-40.46c-1.32-.75-2.8-1.14-4.32-1.15-5.07.12-9.11,4.29-9.06,9.36l5.85,3.33v-3.29c-.1-1.86,1.33-3.45,3.2-3.55,0,0,0,0,0,0,.5,0,.98.14,1.41.38l71.14,40.46c1.75,1.12,2.25,3.45,1.13,5.2-.29.45-.68.84-1.13,1.13l-71.14,40.46c-.43.25-.91.38-1.41.38-1.86-.09-3.3-1.68-3.21-3.54,0,0,0,0,0,0v-2.82l-5.81,3.33c.16,4.89,4.12,8.8,9.02,8.89Z"/>
</svg>