<?xml version="1.0" encoding="UTF-8"?>
<svg id="Layer_1" data-name="Layer 1" xmlns="http://www.w3.org/2000/svg" viewBox="0 0 350 230">
  <defs>
    <style>
      .cls-1 {
        fill: #68469c;
      }

      .cls-1, .cls-2, .cls-3, .cls-4, .cls-5, .cls-6 {
        stroke-width: 0px;
      }

      .cls-2 {
        fill: #32b3e7;
      }

      .cls-3 {
        fill: #9ecf79;
      }

      .cls-4 {
        fill: #d9d9d9;
      }

      .cls-5 {
        fill: #8c3092;
      }

      .cls-6 {
        fill: #f39c4c;
      }
    </style>
  </defs>
  <path class="cls-4" d="m172.33,80.17l5.78-5.14c-3.53,2.89-5.78,5.14-5.78,5.14Z"/>
  <path class="cls-6" d="m204.45,42.27c-7-11.16-22.13-18.36-39.51-1.03-25.51,24.33-43.48,66.63-48.86,81.42s-6.81,36.08,7.39,36.67c7.88.34,12.88-2.99,15.72-5.97,15.37-51.07,33.15-73.2,33.15-73.2,8.18-12.97,32.12-37.89,32.12-37.89Z"/>
  <path class="cls-3" d="m199.06,149.4c-2.01,3.38,2.79,3.57,2.79,3.57,0,0,12.78-.2,16.55,0,3.77.2,5.78-2.99,5.78-2.99,0,0,12.58-20.56,16.16-27.71,1.07-2,1.76-4.17,2.06-6.41-11.8,4.36-35.01,17.38-35.01,17.38,0,0-6.32,12.73-8.32,16.16Z"/>
  <path class="cls-2" d="m237.15,99.51c-5.97-9.55-35.89,9.79-35.89,9.79,0,0-25.21,12.19-42.25,35.69-1.37,5.78-1.13,9.94,2.15,10.38,12.14,1.57,19.93-3.62,19.93-3.62l26.29-18.51s23.21-13.02,35.01-17.38c.54-4.8-1.08-9.69-5.24-16.35Z"/>
  <path class="cls-5" d="m219.38,71.45c-1.53-2.24-3.34-4.28-5.39-6.07-9.99-9.11-27.03,2.4-35.89,9.65l-5.78,5.14s-17.77,22.13-33.15,73.2c1.32-1.34,2.42-2.9,3.23-4.6,10.73-16.91,22.8-32.94,36.08-47.93,0,0,18.36-22.23,40.88-29.38Z"/>
  <path class="cls-1" d="m201.27,109.3c7.98-14.2,18.31-22.37,20.32-29.13.88-2.94-.44-6.07-2.2-8.71-22.52,7.15-40.88,29.38-40.88,29.38,0,0-15.77,28.3-19.49,44.16,17.04-23.5,42.25-35.69,42.25-35.69Z"/>
</svg>