<?xml version="1.0" encoding="UTF-8"?>
<svg id="Layer_1" data-name="Layer 1" xmlns="http://www.w3.org/2000/svg" viewBox="0 0 350 230">
  <defs>
    <style>
      .cls-1 {
        fill: #ee445b;
      }

      .cls-1, .cls-2 {
        stroke-width: 0px;
      }

      .cls-2 {
        fill: #2caae2;
      }
    </style>
  </defs>
  <path class="cls-1" d="m198.17,44.25s24.7-1.64,2.67,28.67c0,0-25.3,31.01-62.63,31.99v-50.33s-.37-29.98,27.31-18.99l34,20.02s5,3.09,5.66-3.37-7.02-8-7.02-8Z"/>
  <path class="cls-2" d="m220.2,67.27s-29.37,38.68-79.7,56.31c0,0-33.3,10.66-32.32-13.98,0,0-13,32.65,27.69,22.36,0,0,1.96,1.31,5,6.64,3.04,5.33,15.29,13.98,25.3,7.02s68.99-40.69,68.99-40.69c0,0,21.19-14.55-5-31.99l-9.96-5.66Z"/>
</svg>