<?xml version="1.0" encoding="UTF-8"?>
<svg id="Layer_1" data-name="Layer 1" xmlns="http://www.w3.org/2000/svg" viewBox="0 0 350 230">
  <defs>
    <style>
      .cls-1 {
        fill: #fdd00c;
      }

      .cls-1, .cls-2, .cls-3, .cls-4 {
        stroke-width: 0px;
      }

      .cls-2 {
        fill: #231f20;
      }

      .cls-3 {
        fill: #2093d1;
      }

      .cls-4 {
        fill: #ec0c8b;
      }
    </style>
  </defs>
  <path class="cls-2" d="m137.14,89.43c2.74-15.62,14.97-27.86,30.59-30.59v-22.94c-28.2,3.07-50.47,25.34-53.54,53.54h22.94Z"/>
  <path class="cls-3" d="m180.66,58.83c15.62,2.74,27.86,14.97,30.59,30.59h22.94c-3.07-28.2-25.34-50.47-53.54-53.54v22.94Z"/>
  <path class="cls-1" d="m167.73,132.95c-15.62-2.74-27.86-14.97-30.59-30.59h-22.94c3.07,28.2,25.34,50.47,53.54,53.54v-22.94Z"/>
  <path class="cls-4" d="m211.25,102.35c-2.74,15.62-14.97,27.86-30.59,30.59v22.94c28.2-3.07,50.47-25.34,53.54-53.54h-22.94Z"/>
</svg>