<?xml version="1.0" encoding="utf-8"?>
<!-- Generator: Adobe Illustrator 27.8.1, SVG Export Plug-In . SVG Version: 6.00 Build 0)  -->
<svg version="1.1" id="Layer_1" xmlns="http://www.w3.org/2000/svg" xmlns:xlink="http://www.w3.org/1999/xlink" x="0px" y="0px"
	 viewBox="0 0 350 230" style="enable-background:new 0 0 350 230;" xml:space="preserve">
<style type="text/css">
	.st0{fill:#A15FAC;}
	.st1{fill:#002C6B;}
	.st2{fill:#56001D;}
	.st3{fill:#8C002F;}
	.st4{fill:#043866;}
	.st5{fill:#506600;}
	.st6{fill:#604500;}
	.st7{fill-rule:evenodd;clip-rule:evenodd;fill:#C600C6;}
	.st8{fill-rule:evenodd;clip-rule:evenodd;fill:#464748;}
	.st9{fill-rule:evenodd;clip-rule:evenodd;fill:#FF838C;}
	.st10{fill-rule:evenodd;clip-rule:evenodd;fill:#005968;}
	.st11{fill:#F9C1C4;}
	.st12{fill-rule:evenodd;clip-rule:evenodd;fill:#002B26;}
	.st13{fill-rule:evenodd;clip-rule:evenodd;fill:#6D0008;}
	.st14{fill:#5B0A54;}
	.st15{fill:#FFFFFF;}
	.st16{fill-rule:evenodd;clip-rule:evenodd;fill:#C97943;}
	.st17{fill-rule:evenodd;clip-rule:evenodd;fill:#E9CEEA;}
	.st18{fill-rule:evenodd;clip-rule:evenodd;fill:#034C42;}
	.st19{fill:#026683;}
	.st20{fill:#26BCBC;}
	.st21{fill:#001F59;}
	.st22{fill:#7D1839;}
	.st23{fill:#A8007D;}
	.st24{fill:#5B2F00;}
</style>
<g>
	<path class="st5" d="M93.54,176.21l1.71,2.15c-5.17,7.34-14.25,15.08-23.86,12.33c-2.97-0.85-6.55-2.9-8.59-6.64
		c-6.34-11.64,2.95-25.19,16.85-20.78c-4.72-1.05-9.07,0.35-12.21,3.05c-5.71,4.91-7.39,14.1,0.16,20.52
		c2.41,2.05,5.07,2.88,7.78,2.79C83.1,190.15,89.99,182.34,93.54,176.21z M81.21,39.29c-11.94,1.77-23.08,6.58-30.25,16.76
		c-9.31,12.94-8.43,27.15-0.21,40.67c10.59,17.42,26.34,31.56,38.44,48.16c0.35,0.47,0.68,0.95,1.01,1.44l2.01-7.95
		c-9.56-12.95-21.6-24.15-31.15-37.32c-2.77-3.92-5.32-8-7.65-12.24c-6.45-11.74-7.63-26.9,2.55-36.69
		c6.35-6.38,15.3-9.87,24.06-11.34c14.32-2.41,32.39,0.97,38.89,15.62c7.53,16.56-3.11,37.12-21.66,36.47
		c-11.07-0.34-16.69-14.61-17.43-24.01c1.35,7,4.25,12.81,8.06,18.49c0.93-22.29,7.67-21.17-10.11-33.72
		c-3.93,14.94-8.43,26.47,7.13,36.16c-5.3-1.49-5.28,1.79-10.3,6.14c9.05,4.95,6.62,2.44,15.92-2.61c-3.53-0.19-5.75-0.58-9.01,0.3
		c2.95-1.17,5.82-1.06,9.17-1.07c20.18,6.83,38.98-15.12,29.54-36.25C113.5,41.27,96.24,37.11,81.21,39.29z"/>
	<path class="st6" d="M66.36,162.82c-4.44-7.01-14.69-7.22-22.13-8.01c-3.28-0.35-7.37-1.15-9.6-3.85
		c-2.56-3.1-1.14-7.61,0.58-11.24c-0.38-0.44-1.55-1.47-1.85-1.82c-1.38-1.6-1.74-4.05-0.4-5.79c-2.34-2.11-2.22-5.88,0.48-7.69
		c0.24-0.16,0.54-0.31,0.81-0.46c-0.81-0.52-2.48-0.79-3.6-2.1c-0.93-1.09-1.51-2.41-1.33-3.87c0.57-4.6,8.53-6.79,11.55-11.02
		c-1.49-1.17-3.19-3-3.48-6.61c1.31,1.3,2.57,1.8,4.5,1.23c3.57-2.99-13.26-33.43,9.6-48.82c-17.68,17.11-5.35,35.99-5.94,46.52
		c0.16,2.33-0.52,5.26-3.55,4.66c0.85,1.66,6.63,1.48-2.14,8.17c-1.66,1.26-3.45,2.31-5.13,3.52c-0.78,0.56-2.28,1.67-2.41,2.71
		c-0.07,0.58,0.27,1.12,0.63,1.54c1.21,1.42,4.48,1.03,4.53,4.21c0.05,3.03-8.12,3.9,1.2,7.44c-8.96,3.13,1.26,5.3-0.65,9.29
		c-1.04,2.16-2.53,5.42-1.36,7.66c1.26,2.43,5.75,3.08,7.88,3.3C53.62,152.76,62.38,152.63,66.36,162.82z M78.56,108.51
		c-3.69-3.87-7.18-7.97-10.48-12.3c-2.84-3.82-5.46-7.8-7.86-11.94c-2.4-4.14-3.95-8.59-4.63-13.35c-0.37-2.48-0.57-4.72-0.59-6.72
		c-0.05-3.92,0.95-7.44,3.01-10.77c0.39-0.63,0.83-1.26,1.33-1.89c-8.24,6.35-10.06,17.61-7.4,27.22c1.18,4.65,3.1,9.05,5.78,13.23
		c2.67,4.17,5.58,8.13,8.71,11.88c3.46,4.18,7.05,8.26,10.77,12.22c3.72,3.97,7.35,7.98,10.88,12.04c1.76,1.99,3.48,4.03,5.18,6.12
		l1.88-7.42c-1.84-2.19-3.7-4.34-5.58-6.47C85.91,116.33,82.25,112.37,78.56,108.51z M106.74,143.88c-1.76-3.77-3.89-7.32-6.4-10.65
		l-0.56,9.88c1.55,2.58,2.82,5.31,3.82,8.18c0.7,1.78,1.18,3.62,1.44,5.51c0.14,1.02,0.17,2.08,0.09,3.16
		c1.32-0.21,2.66-0.22,3.97-0.02c0.4-1.62,0.61-3.22,0.61-4.76c-0.01-1.95-0.3-3.86-0.87-5.72
		C108.27,147.59,107.57,145.73,106.74,143.88z M85.88,172.03l13.07-51.62l-2,35.01l-4.75,4.05l-5.77,20.49
		c-1.62,5.76-7.7,8.86-13.43,7.08c-5.77-1.79-8.91-7.75-7.15-13.43c1.8-5.8,8-8.81,13.53-7.09
		C82.36,167.44,84.64,169.5,85.88,172.03z M78.48,169.24c-4.18-1.3-8.58,1-9.87,5.17c-1.28,4.13,1.02,8.56,5.2,9.86
		c4.14,1.29,8.59-1.04,9.87-5.17C84.98,174.93,82.61,170.53,78.48,169.24z M115.44,165.74c3.83,4.55,3.25,11.25-1.37,15.15
		c-4.59,3.87-11.39,3.37-15.12-1.31l-13.28-16.64l-5.95-1.89l-15.43-31.49l32.08,42.5c0.15-2.81,1.46-5.59,3.85-7.61
		C104.65,160.72,111.53,161.09,115.44,165.74z M113.21,167.56c-2.81-3.34-7.76-3.75-11.11-0.93c-3.31,2.79-3.78,7.76-0.96,11.11
		c2.79,3.31,7.79,3.73,11.11,0.93C115.6,175.85,116,170.87,113.21,167.56z"/>
</g>
</svg>
