<?xml version="1.0" encoding="utf-8"?>
<!-- Generator: Adobe Illustrator 27.8.1, SVG Export Plug-In . SVG Version: 6.00 Build 0)  -->
<svg version="1.1" id="Layer_1" xmlns="http://www.w3.org/2000/svg" xmlns:xlink="http://www.w3.org/1999/xlink" x="0px" y="0px"
	 viewBox="0 0 350 230" style="enable-background:new 0 0 350 230;" xml:space="preserve">
<style type="text/css">
	.st0{fill:#A15FAC;}
	.st1{fill:#002C6B;}
	.st2{fill:#56001D;}
	.st3{fill:#8C002F;}
	.st4{fill:#043866;}
	.st5{fill:#506600;}
	.st6{fill:#604500;}
	.st7{fill-rule:evenodd;clip-rule:evenodd;fill:#C600C6;}
	.st8{fill-rule:evenodd;clip-rule:evenodd;fill:#464748;}
	.st9{fill-rule:evenodd;clip-rule:evenodd;fill:#FF838C;}
	.st10{fill-rule:evenodd;clip-rule:evenodd;fill:#005968;}
	.st11{fill:#F9C1C4;}
	.st12{fill-rule:evenodd;clip-rule:evenodd;fill:#002B26;}
	.st13{fill-rule:evenodd;clip-rule:evenodd;fill:#6D0008;}
	.st14{fill:#5B0A54;}
	.st15{fill:#FFFFFF;}
	.st16{fill-rule:evenodd;clip-rule:evenodd;fill:#C97943;}
	.st17{fill-rule:evenodd;clip-rule:evenodd;fill:#E9CEEA;}
	.st18{fill-rule:evenodd;clip-rule:evenodd;fill:#034C42;}
	.st19{fill:#026683;}
	.st20{fill:#26BCBC;}
	.st21{fill:#001F59;}
	.st22{fill:#7D1839;}
	.st23{fill:#A8007D;}
	.st24{fill:#5B2F00;}
</style>
<path class="st4" d="M145,95.65c5.36,5.35,9.59,11.75,12.34,18.69c2.74,6.95,3.96,14.45,3.56,21.82
	c-0.57,14.79-7.76,28.96-19.04,38.19c-5.61,4.64-12.23,8.02-19.22,9.9c-1.76,0.41-3.5,0.96-5.31,1.13
	c-1.79,0.26-3.58,0.57-5.39,0.56c-3.61,0.27-7.24,0.02-10.81-0.49c-7.16-1.04-14.01-3.78-20.07-7.68
	c-5.43-3.58-10.17-8.17-13.96-13.46c2.17-6.62,7.08-11.55,12.73-10.54c10.23,1.83,24.71,7.17,26.36-0.68
	c1.65-7.85,0.48-9.93,4.74-11.73c4.25-1.81-0.6-4.43-0.46-6.28c0.14-1.85,4.32-0.87,4.2-2.87c-0.11-2-3.41-2.38-2.95-4.87
	c0.45-2.49,6.82-2.41,7.08-5.84c0.26-3.44-8.86-9.44-8.05-14.82c0.8-5.39,2.99-5.19,3.29-11.98c0.25-5.55-2.49-14.62-8.94-21.2
	c0.5-0.96,0.96-1.93,1.37-2.93c1.23-3.04,2.02-6.35,2.03-9.66c0.03-3.3-0.57-6.58-1.74-9.63c-1.16-3.05-2.97-5.88-5.37-8.07
	c-2.4-2.18-5.43-3.67-8.61-4.05c3.14,0.61,5.97,2.29,8.12,4.55c2.16,2.26,3.75,5.02,4.69,7.99c0.96,2.96,1.35,6.08,1.15,9.15
	c-0.18,3.07-1.06,6.02-2.36,8.82C101.75,75.24,97.6,80,92.95,84.14c-4.66,4.17-9.86,7.75-15,11.6c-5.13,3.83-10.28,7.9-14.58,13.01
	c-4.31,5.07-7.48,11.34-8.82,17.93c-1.4,6.6-1.24,13.42,0.06,19.93c0.68,3.25,1.59,6.45,2.75,9.56c1.19,3.09,2.59,6.1,4.2,9
	l0.08,0.13c0.13,0.21,0.29,0.37,0.47,0.53c4.25,6.4,9.77,11.97,16.23,16.13c6.67,4.25,14.22,7.2,22.07,8.3
	c15.66,2.28,32.23-2.38,44.11-12.76c5.93-5.16,10.74-11.56,14.03-18.65c3.27-7.1,4.96-14.88,4.98-22.63
	C163.62,120.7,156.62,105.43,145,95.65z M49.87,167.46c-1.4-1.63-2.75-3.3-4-5.03c-1.26-1.73-2.38-3.54-3.47-5.36
	c-0.05-0.09-0.14-0.15-0.21-0.23c-3.42-6.89-5.95-14.21-7.07-21.72c-1.15-7.61-1.01-15.45,1.18-22.73
	c2.04-7.32,6.3-13.88,11.69-19.6c5.31-5.81,11.59-10.89,17.47-16.43c-6.88,4.2-13.71,8.52-19.87,13.99
	c-3.04,2.76-5.9,5.82-8.31,9.27c-2.41,3.45-4.29,7.32-5.61,11.34c-1.27,4.04-2.04,8.23-2.24,12.44c-0.17,4.21,0.18,8.41,0.88,12.52
	c1.43,8.23,4.63,16.04,8.94,23.06l0.07,0.11l0.05,0.08c0.14,0.2,0.31,0.36,0.5,0.47c1.16,1.61,2.41,3.15,3.72,4.62
	c1.49,1.67,3.07,3.26,4.76,4.72c3.34,2.95,7.02,5.47,10.94,7.46C55.86,173.69,52.71,170.7,49.87,167.46z M52.22,100.85
	c-1.71,1.95-3.31,4.02-4.7,6.26c-0.68,1.13-1.34,2.27-1.89,3.47c-0.28,0.6-0.59,1.18-0.85,1.79l-0.7,1.85
	c-1.78,4.96-2.54,10.21-2.34,15.37c0.3,10.33,4,20.22,9.73,28.33l0,0l0.01,0l0.07-0.06l-0.07,0.04c-3.9-9.11-6.24-18.78-5.81-28.29
	c0.34-9.53,3.85-18.52,10.31-25.4c3.1-3.55,6.77-6.7,10.57-9.77c3.75-3.13,7.76-6.06,11.53-9.41c3.8-3.29,7.37-6.94,10.38-11.04
	c2.94-4.13,5.26-8.8,6.11-13.73c-3.82,9.29-11.24,15.87-18.97,21.71C67.81,87.78,59.2,93.11,52.22,100.85z"/>
</svg>
