<?xml version="1.0" encoding="utf-8"?>
<!-- Generator: Adobe Illustrator 27.8.1, SVG Export Plug-In . SVG Version: 6.00 Build 0)  -->
<svg version="1.1" id="Layer_1" xmlns="http://www.w3.org/2000/svg" xmlns:xlink="http://www.w3.org/1999/xlink" x="0px" y="0px"
	 viewBox="0 0 350 230" style="enable-background:new 0 0 350 230;" xml:space="preserve">
<style type="text/css">
	.st0{fill:#A15FAC;}
	.st1{fill:#002C6B;}
	.st2{fill:#56001D;}
	.st3{fill:#8C002F;}
	.st4{fill:#043866;}
	.st5{fill:#506600;}
	.st6{fill:#604500;}
	.st7{fill-rule:evenodd;clip-rule:evenodd;fill:#C600C6;}
	.st8{fill-rule:evenodd;clip-rule:evenodd;fill:#464748;}
	.st9{fill-rule:evenodd;clip-rule:evenodd;fill:#FF838C;}
	.st10{fill-rule:evenodd;clip-rule:evenodd;fill:#005968;}
	.st11{fill:#F9C1C4;}
	.st12{fill-rule:evenodd;clip-rule:evenodd;fill:#002B26;}
	.st13{fill-rule:evenodd;clip-rule:evenodd;fill:#6D0008;}
	.st14{fill:#5B0A54;}
	.st15{fill:#FFFFFF;}
	.st16{fill-rule:evenodd;clip-rule:evenodd;fill:#C97943;}
	.st17{fill-rule:evenodd;clip-rule:evenodd;fill:#E9CEEA;}
	.st18{fill-rule:evenodd;clip-rule:evenodd;fill:#034C42;}
	.st19{fill:#026683;}
	.st20{fill:#26BCBC;}
	.st21{fill:#001F59;}
	.st22{fill:#7D1839;}
	.st23{fill:#A8007D;}
	.st24{fill:#5B2F00;}
</style>
<g>
	<path class="st14" d="M109.07,180.26c-1.06,4.62-3.19,8.32-6.37,11.07c0,0-0.01,0.01-0.01,0.01c-1.24,1.07-2.63,1.99-4.18,2.77
		c0,0-0.01,0.01-0.01,0.01c-9.75,4.56-22.61-0.28-26.54-1.97c-0.11-0.05-0.21-0.09-0.31-0.14c-0.29-0.13-0.58-0.26-0.86-0.4
		c-0.02-0.01-0.03-0.01-0.03-0.01c-23.33-10.92-39.51-34.77-39.51-62.43c0-30.79,20.05-56.85,47.69-65.62
		c-2.07,1.9-4.5,4.82-6.45,9.1c-3.14,6.89-4.17,15.39-3.07,25.29c0,0,0.39,1.64,0.69,4.06c-0.61,0.3-1.25,0.53-1.91,0.66
		c-0.17,0.04-0.33,0.06-0.5,0.08c-0.17,0.01-0.34,0.04-0.51,0.03c-0.34,0.02-0.69-0.01-1.03-0.06c-0.69-0.1-1.37-0.35-2-0.72
		c-0.63-0.37-1.21-0.86-1.68-1.45c0.32,0.69,0.8,1.32,1.37,1.86c0.57,0.54,1.26,1,2.02,1.31c0.38,0.15,0.78,0.28,1.19,0.36
		c0.2,0.05,0.41,0.07,0.62,0.1c0.21,0.02,0.42,0.04,0.63,0.04c0.67,0.02,1.35-0.04,2.01-0.16c0.05,0.65,0.09,1.33,0.12,2.02h0.03
		c0.14,2.02,0.02,4.03-0.34,5.81c-0.12,0.6-0.28,1.18-0.45,1.72c-0.22,0.54-1.85,2-2.93,2.97c-1.45,1.29-3.09,2.76-4.18,4.21
		c-1.96,2.59-1.56,4.41-0.82,5.53c0.39,0.77,2.04,3.58,5.91,5c-0.02,1.04-0.36,3.05-2.07,5.89l-0.03,0.05l-0.03,0.05
		c-0.27,0.52-0.4,1.38,0.02,2.24c0.49,0.99,1.52,1.64,3.15,2.01c-0.12,0.23-0.3,0.53-0.57,0.9c-0.37,0.53-0.52,1.16-0.41,1.8
		c0.11,0.64,0.46,1.19,0.99,1.56c0.68,0.48,1.88,1.05,3.74,1.12l0.05,0.01l0.08-0.01c0.08,0.01,0.18,0.05,0.26,0.16
		c0.12,0.17,0.66,1.22-0.5,4.65c-0.07,0.2-1.63,4.86,0.87,8.36c1.64,2.3,4.51,3.46,8.53,3.46c1.92,0,4.14-0.27,6.61-0.8l0.07-0.02
		l0.07-0.02c0.04-0.01,4.2-1.25,8.89-1.25c6.45,0,10.48,2.25,11.98,6.7C109.5,168.92,110.42,174.36,109.07,180.26z"/>
	<path class="st14" d="M128.7,166.95c-0.05,2.5-0.28,5-0.69,7.46c-0.11,0.61-0.22,1.23-0.35,1.84l-0.2,0.91
		c-0.07,0.31-0.13,0.61-0.21,0.91c-0.15,0.61-0.3,1.21-0.48,1.81l-0.26,0.9l-0.3,0.89c-0.8,2.36-1.78,4.67-3,6.84l-0.47,0.81
		c-0.16,0.27-0.33,0.53-0.49,0.79c-0.17,0.26-0.33,0.53-0.5,0.79l-0.53,0.77l-0.27,0.38l-0.28,0.37l-0.57,0.74
		c-0.19,0.24-0.4,0.48-0.6,0.71c-0.21,0.23-0.4,0.48-0.61,0.7l-0.64,0.67c-0.11,0.11-0.21,0.23-0.32,0.33l-0.34,0.32l-0.67,0.64
		c-0.23,0.21-0.47,0.4-0.71,0.6c-0.94,0.8-1.96,1.51-2.99,2.16l0.71-0.59c0.23-0.2,0.48-0.38,0.7-0.6c0.45-0.41,0.9-0.82,1.32-1.27
		c0.21-0.22,0.43-0.43,0.64-0.65l0.6-0.68l0.3-0.34c0.1-0.12,0.19-0.24,0.29-0.35l0.57-0.71c1.48-1.92,2.72-4.01,3.75-6.18
		c1.05-2.17,1.87-4.44,2.51-6.76c0.64-2.32,1.11-4.68,1.41-7.06c0.58-4.77,0.57-9.61-0.13-14.34c-0.17-1.18-0.4-2.35-0.65-3.52
		L125,155.4c-0.07-0.29-0.14-0.58-0.23-0.87l-0.49-1.74c-0.69-2.31-1.44-4.6-2.32-6.85c-0.25-0.65-0.5-1.29-0.76-1.93
		c0-0.01-0.01-0.01-0.01-0.02c-0.5-1.24-1.03-2.47-1.58-3.69c-0.16-0.35-0.32-0.69-0.48-1.03c-0.61-1.31-1.24-2.62-1.89-3.91
		c-0.44-0.87-0.89-1.74-1.35-2.6c-0.29-0.56-0.59-1.11-0.89-1.66c-2.01-3.73-4.16-7.39-6.33-11.06c-0.31-0.53-0.63-1.04-0.93-1.61
		l-0.46-0.83c-0.16-0.28-0.28-0.57-0.42-0.85l-0.41-0.85c-0.13-0.28-0.25-0.58-0.37-0.87l-0.36-0.87c-0.11-0.3-0.21-0.59-0.31-0.89
		c-0.82-2.37-1.38-4.83-1.7-7.3c-0.61-4.95-0.33-9.94,0.65-14.75c-0.4,4.88-0.32,9.8,0.61,14.54c0.46,2.37,1.12,4.69,2.03,6.9
		c0.12,0.27,0.22,0.55,0.34,0.82l0.38,0.81c0.13,0.27,0.25,0.54,0.38,0.81l0.42,0.79c0.15,0.26,0.27,0.53,0.43,0.78l0.46,0.76
		c0.3,0.5,0.64,1.02,0.97,1.54l1.24,1.94c-0.2-0.89-0.37-1.8-0.5-2.7c-0.14-1.01-0.23-2.02-0.23-3.04c0-1.01,0.09-2.03,0.36-3.01
		c-0.17,0.99-0.16,2-0.07,2.99c0.1,0.99,0.29,1.97,0.52,2.94c0.48,1.93,1.14,3.82,1.9,5.66c0.13,0.32,0.27,0.65,0.41,0.97
		c0.1,0.16,0.2,0.33,0.3,0.49c0.58,0.93,1.14,1.87,1.69,2.82c-0.05-0.35-0.1-0.7-0.15-1.05c-0.12-0.99-0.18-1.98-0.17-2.98
		c0.02-0.99,0.11-1.98,0.34-2.94c-0.13,0.98-0.11,1.96-0.02,2.93c0.1,0.97,0.26,1.93,0.48,2.87c0.22,0.95,0.49,1.88,0.79,2.81
		c0.17,0.52,0.35,1.04,0.54,1.56c0.07,0.12,0.14,0.25,0.21,0.38c1.2,2.16,2.32,4.37,3.4,6.6c1.07,2.24,2.04,4.52,2.94,6.84
		l0.65,1.75l0.6,1.76c0.1,0.3,0.2,0.59,0.3,0.89l0.27,0.89c0.18,0.6,0.38,1.18,0.53,1.79l0.48,1.8c0.08,0.3,0.15,0.61,0.23,0.91
		l0.21,0.92c0.25,1.23,0.48,2.47,0.63,3.72C128.62,161.94,128.76,164.45,128.7,166.95z M119.59,172.93c0.14-1.71,0.2-3.44,0.15-5.16
		c0-0.43-0.03-0.86-0.05-1.29c-0.02-0.43-0.05-0.86-0.09-1.28l-0.1-1.28l-0.13-1.27c-0.35-3.4-0.97-6.76-1.77-10.08
		c-0.09-0.42-0.2-0.83-0.31-1.24l-0.33-1.24l-0.36-1.23c-0.12-0.41-0.24-0.82-0.37-1.23l-0.39-1.22c-0.13-0.41-0.28-0.81-0.42-1.21
		c-0.27-0.81-0.59-1.61-0.88-2.41c-0.15-0.4-0.32-0.8-0.48-1.19c-0.16-0.4-0.32-0.79-0.49-1.19c-0.35-0.78-0.68-1.57-1.05-2.34
		l-0.55-1.16l-0.58-1.15c-0.37-0.77-0.81-1.52-1.23-2.28c-1.73-3-3.73-5.78-5.77-8.47c-2.06-2.68-4.15-5.29-6.12-7.94
		c-1.96-2.66-3.79-5.38-5.28-8.26l-1.1-2.21c-0.19-0.36-0.35-0.74-0.51-1.12l-0.5-1.13c-0.12-0.28-0.25-0.56-0.37-0.83
		c0,0,0-0.01,0-0.01c-0.23-0.73-0.44-1.47-0.64-2.2c-0.23-0.84-0.46-1.69-0.66-2.54c-0.1-0.41-0.2-0.82-0.3-1.23
		c-0.3-1.26-0.56-2.53-0.79-3.81c-0.15-0.81-0.28-1.61-0.4-2.42c-0.05-0.32-0.09-0.64-0.13-0.96c-0.02-0.15-0.04-0.31-0.06-0.46
		c-0.13-1.1-0.24-2.2-0.3-3.31c-0.02-0.25-0.03-0.51-0.04-0.76c-0.05-1.23-0.04-2.46,0.05-3.69c0.08-1.03,0.21-2.05,0.43-3.06
		c0.06-0.26,0.11-0.52,0.18-0.78c0.33-1.25,0.8-2.48,1.52-3.58c-0.8,1.04-1.38,2.25-1.8,3.5c-0.07,0.2-0.13,0.4-0.2,0.61
		c-0.33,1.06-0.55,2.15-0.72,3.25c-0.15,1.06-0.25,2.12-0.31,3.19c-0.02,0.39-0.04,0.78-0.05,1.17c-0.03,1.05-0.02,2.1,0.02,3.15
		c-0.21-1.07-0.37-2.14-0.52-3.21c-0.05-0.33-0.09-0.66-0.14-0.99l-0.07-0.69l-0.18-1.78c-0.05-0.41-0.06-0.82-0.09-1.24l-0.06-1.24
		c-0.02-0.41-0.05-0.83-0.06-1.24l-0.01-1.24c0-0.02,0-0.04,0-0.06c0-0.81-0.04-1.62,0.02-2.43c0.04-0.83,0.07-1.66,0.11-2.49
		l0.22-2.49c0.02-0.21,0.03-0.42,0.06-0.62l0.09-0.62l0.17-1.24c0.06-0.41,0.11-0.83,0.18-1.24l0.24-1.23l0.23-1.23
		c0.04-0.21,0.07-0.41,0.12-0.62l0.14-0.61l0.43-1.81l0.15-0.63c-0.08,0.22-0.15,0.44-0.23,0.66c-0.2,0.57-0.4,1.15-0.59,1.72
		l-0.2,0.6c-0.07,0.2-0.12,0.4-0.18,0.61l-0.34,1.21l-0.34,1.22c-0.1,0.41-0.18,0.82-0.28,1.23l-0.27,1.24l-0.14,0.62
		c-0.05,0.21-0.07,0.42-0.11,0.62l-0.42,2.5c-0.11,0.84-0.19,1.68-0.29,2.52c-0.11,0.84-0.13,1.69-0.19,2.53l-0.02,0.4l-0.05,0.87
		c-0.02,0.43-0.01,0.85-0.02,1.27l-0.01,1.27c0,0.29,0,0.58,0.01,0.88c0,0.13,0.01,0.26,0.02,0.4l0.12,2.55
		c0.02,0.25,0.04,0.49,0.07,0.74c0.13,1.45,0.26,2.9,0.5,4.33l0.14,0.98l0.04,0.29c0.07,0.42,0.16,0.84,0.24,1.25l0.25,1.26
		c0.08,0.42,0.16,0.84,0.27,1.25l0.14,0.56l0.48,1.93c0.03,0.1,0.06,0.2,0.09,0.3c0.21,0.72,0.43,1.44,0.65,2.16
		c1.03,3.25,2.28,6.44,3.78,9.52c0.17,0.39,0.39,0.77,0.58,1.15c0.2,0.38,0.39,0.77,0.61,1.14c0.43,0.75,0.85,1.5,1.31,2.22
		l0.68,1.09l0.71,1.07l0.35,0.53l0.37,0.52l0.73,1.05c3.96,5.52,8.33,10.58,11.56,16.22c0.39,0.71,0.8,1.41,1.16,2.14l0.56,1.09
		l0.53,1.11c0.36,0.74,0.68,1.49,1.02,2.24c0.32,0.76,0.64,1.51,0.94,2.28c1.21,3.05,2.24,6.18,3.07,9.36
		c0.83,3.18,1.48,6.41,1.91,9.67l0.16,1.22l0.13,1.23c0.04,0.41,0.09,0.82,0.11,1.22c0.03,0.41,0.07,0.81,0.09,1.22
		c0.1,1.63,0.1,3.26,0.02,4.88c-0.09,1.62-0.23,3.25-0.49,4.86c-0.26,1.61-0.62,3.2-1.06,4.76c-0.89,3.13-2.26,6.12-4.15,8.75
		c-0.94,1.32-2.02,2.55-3.24,3.61c-1.22,1.07-2.59,1.98-4.04,2.72c-1.46,0.74-3.02,1.31-4.64,1.68c-1.62,0.38-3.28,0.56-4.96,0.65
		c1.67,0.1,3.36,0.06,5.05-0.16c1.68-0.24,3.33-0.7,4.92-1.35c1.59-0.65,3.09-1.52,4.47-2.57c1.38-1.04,2.61-2.28,3.71-3.61
		c1.09-1.34,2.03-2.81,2.85-4.33c0.82-1.53,1.5-3.12,2.06-4.75C118.64,179.77,119.3,176.36,119.59,172.93z M124.12,163.91
		c-0.18-2.87-0.62-5.71-1.22-8.51c-0.61-2.8-1.4-5.55-2.33-8.24c-0.94-2.69-2.03-5.33-3.22-7.92c-1.2-2.58-2.51-5.11-3.91-7.57
		c-1.24-2.16-2.54-4.28-3.9-6.37c0,0-0.01-0.01-0.01-0.01c-0.19-0.29-0.37-0.58-0.56-0.86c-0.78-1.18-1.58-2.35-2.39-3.51
		c-0.82-1.15-1.66-2.3-2.51-3.42l-0.18-0.23c-0.15-0.26-0.3-0.53-0.46-0.79c-0.87-1.57-1.67-3.18-2.29-4.87
		c-0.32-0.84-0.58-1.7-0.78-2.58c-0.2-0.88-0.33-1.78-0.35-2.68c-0.07,0.91-0.03,1.82,0.08,2.73c0.11,0.91,0.29,1.81,0.53,2.7
		c0.18,0.7,0.39,1.38,0.62,2.06c-0.77-1-1.53-2.02-2.29-3.03c-1.65-2.25-3.2-4.56-4.47-7.02c-0.65-1.22-1.21-2.49-1.7-3.79
		c-0.48-1.3-0.88-2.63-1.18-3.99c-0.09-0.39-0.17-0.79-0.24-1.19c-0.17-0.97-0.29-1.96-0.35-2.94c-0.09-1.32-0.05-2.65,0.15-3.96
		l0,0c0.01-0.05,0.02-0.1,0.03-0.15l0,0c0-0.02,0.01-0.05,0.01-0.07l-0.02,0.06c-0.02,0.06-0.03,0.12-0.05,0.18c0,0,0,0,0,0
		c-0.33,1.29-0.46,2.62-0.48,3.95c-0.01,1.41,0.09,2.84,0.3,4.25l0.02,0.09c0.43,2.78,1.3,5.5,2.46,8.07
		c1.18,2.6,2.67,5.05,4.24,7.4c1.58,2.36,3.27,4.61,4.89,6.9c1,1.43,1.98,2.87,2.94,4.32c0,0,0,0,0.01,0.01
		c0.26,0.46,0.53,0.91,0.8,1.36c0.48,0.79,0.97,1.56,1.51,2.34l0.04-0.03c1.26,2.03,2.47,4.08,3.6,6.17
		c1.33,2.44,2.6,4.92,3.74,7.45c1.15,2.53,2.2,5.1,3.11,7.72c0.92,2.61,1.69,5.27,2.29,7.96c0.61,2.69,1.03,5.42,1.27,8.16
		c0.23,2.74,0.25,5.5,0.03,8.24c-0.06,0.68-0.14,1.37-0.21,2.05l-0.3,2.04c-0.12,0.68-0.26,1.35-0.38,2.03
		c-0.15,0.67-0.32,1.34-0.48,2.01c-0.18,0.66-0.38,1.32-0.57,1.99c-0.2,0.66-0.42,1.3-0.66,1.94c-0.48,1.28-1.05,2.53-1.68,3.76
		c-1.26,2.44-2.82,4.74-4.69,6.76c-0.93,1.01-1.94,1.96-3.03,2.79c-1.09,0.84-2.27,1.56-3.51,2.17c-1.84,0.89-3.85,1.47-5.91,1.67
		c-0.72,0.07-1.45,0.1-2.18,0.08c1.15,0.14,2.31,0.15,3.47,0.04c0.25-0.02,0.51-0.05,0.76-0.08c1.41-0.2,2.79-0.58,4.12-1.11
		c2.66-1.06,5.06-2.75,7.11-4.75c4.1-4.04,6.98-9.24,8.56-14.76C123.97,175.45,124.49,169.63,124.12,163.91z"/>
	<path class="st14" d="M97.03,43.78C90.17,50,86.15,67.65,86.15,67.65c6.69-1.27,13.38-4.08,17.04-9.55
		c4.07-6.1,1.68-13.39,2.51-20.26c0.29-2.4,0.77-4.77,1.44-7.08c0.08-0.27,0.48-2.41,0.82-2.49C75.4,36.24,85.02,67.23,85.02,67.23
		C87.98,51.2,97.03,43.78,97.03,43.78z M115.96,88.49c-4.84,7.9-3.74,25.97-3.74,25.97c6.07-3.1,11.69-7.67,13.67-13.96
		c2.2-7-2.15-13.32-3.28-20.14c-0.4-2.38-0.6-4.79-0.61-7.19c0-0.29-0.22-2.44,0.08-2.62c-28.99,16.78-11.05,43.82-11.05,43.82
		C109.35,98.14,115.96,88.49,115.96,88.49z M119.66,102.39c-3.95,6.45-3.06,21.21-3.06,21.21c4.96-2.53,9.55-6.27,11.16-11.4
		c1.79-5.72-1.76-10.88-2.68-16.46c-0.32-1.95-0.49-3.91-0.5-5.88c0-0.23-0.18-2,0.07-2.14c-23.68,13.71-9.03,35.8-9.03,35.8
		C114.26,110.28,119.66,102.39,119.66,102.39z M104.86,83.63c-4.84,7.9-3.74,25.97-3.74,25.97c6.07-3.1,11.69-7.67,13.67-13.96
		c2.2-7-2.15-13.32-3.28-20.14c-0.4-2.38-0.6-4.79-0.61-7.19c0-0.29-0.22-2.44,0.08-2.62c-28.99,16.78-11.05,43.82-11.05,43.82
		C98.25,93.29,104.86,83.63,104.86,83.63z M100.45,66.62c-6.97,6.1-11.3,23.68-11.3,23.68c6.72-1.16,13.45-3.85,17.2-9.26
		c4.18-6.03,1.91-13.36,2.86-20.21c0.33-2.39,0.85-4.75,1.56-7.05c0.08-0.27,0.52-2.4,0.86-2.47c-32.67,7.4-23.59,38.55-23.59,38.55
		C91.27,73.87,100.45,66.62,100.45,66.62z"/>
	<path class="st15" d="M109.77,109.65c19.2,0,8.68,18.21-0.91,1.58c9.6,16.63-11.43,16.63-1.83,0c-9.6,16.63-20.11-1.58-0.91-1.58
		c-19.2,0-8.68-18.21,0.91-1.58c-9.6-16.63,11.43-16.63,1.83,0C118.46,91.44,128.97,109.65,109.77,109.65z M89.83,73.82
		c4.74-8.21-5.64-8.21-0.9,0c-4.74-8.21-9.93,0.78-0.45,0.78c-9.48,0-4.29,8.99,0.45,0.78c-4.74,8.21,5.64,8.21,0.9,0
		c4.74,8.21,9.93-0.78,0.45-0.78C99.76,74.6,94.57,65.61,89.83,73.82z"/>
</g>
</svg>
