<?xml version="1.0" encoding="utf-8"?>
<!-- Generator: Adobe Illustrator 27.8.1, SVG Export Plug-In . SVG Version: 6.00 Build 0)  -->
<svg version="1.1" id="Layer_1" xmlns="http://www.w3.org/2000/svg" xmlns:xlink="http://www.w3.org/1999/xlink" x="0px" y="0px"
	 viewBox="0 0 350 230" style="enable-background:new 0 0 350 230;" xml:space="preserve">
<style type="text/css">
	.st0{fill:#A15FAC;}
	.st1{fill:#002C6B;}
	.st2{fill:#56001D;}
	.st3{fill:#8C002F;}
	.st4{fill:#043866;}
	.st5{fill:#506600;}
	.st6{fill:#604500;}
	.st7{fill-rule:evenodd;clip-rule:evenodd;fill:#C600C6;}
	.st8{fill-rule:evenodd;clip-rule:evenodd;fill:#464748;}
	.st9{fill-rule:evenodd;clip-rule:evenodd;fill:#FF838C;}
	.st10{fill-rule:evenodd;clip-rule:evenodd;fill:#005968;}
	.st11{fill:#F9C1C4;}
	.st12{fill-rule:evenodd;clip-rule:evenodd;fill:#002B26;}
	.st13{fill-rule:evenodd;clip-rule:evenodd;fill:#6D0008;}
	.st14{fill:#5B0A54;}
	.st15{fill:#FFFFFF;}
	.st16{fill-rule:evenodd;clip-rule:evenodd;fill:#C97943;}
	.st17{fill-rule:evenodd;clip-rule:evenodd;fill:#E9CEEA;}
	.st18{fill-rule:evenodd;clip-rule:evenodd;fill:#034C42;}
	.st19{fill:#026683;}
	.st20{fill:#26BCBC;}
	.st21{fill:#001F59;}
	.st22{fill:#7D1839;}
	.st23{fill:#A8007D;}
	.st24{fill:#5B2F00;}
</style>
<g>
	<path class="st16" d="M80.67,45.84c33.05,0,59.84,30.97,59.84,69.16s-26.79,69.16-59.84,69.16S20.83,153.2,20.83,115
		S47.62,45.84,80.67,45.84z"/>
	<path class="st17" d="M85.76,116.48c-0.05,0-0.1-0.01-0.14-0.01c-0.08,0-0.16-0.01-0.24-0.02c-0.05-0.01-0.09-0.01-0.13-0.01
		c-0.03,0-0.06,0-0.09-0.01c-0.06-0.01-0.11-0.02-0.17-0.03c-0.04-0.01-0.08-0.01-0.11-0.02c-0.05-0.01-0.1-0.01-0.15-0.02
		c-0.07-0.01-0.15-0.02-0.22-0.03c-0.11-0.02-0.21-0.04-0.32-0.07l-0.12-0.03c-0.13-0.03-0.26-0.06-0.39-0.09
		c-0.17-0.04-0.35-0.09-0.51-0.14l-0.19-0.05c-0.26-0.07-0.52-0.17-0.76-0.26c-0.24-0.09-0.44-0.17-0.63-0.26
		c-0.07-0.03-0.15-0.07-0.22-0.1c-0.19-0.09-0.39-0.18-0.57-0.28l-0.1-0.06c-0.23-0.13-0.47-0.25-0.69-0.4
		c-0.09-0.06-0.17-0.11-0.26-0.17c-0.16-0.1-0.33-0.21-0.49-0.32c-0.28-0.21-0.56-0.43-0.79-0.62c-0.19-0.16-0.37-0.33-0.52-0.47
		c-0.29-0.28-0.52-0.52-0.72-0.76c-0.05-0.07-0.11-0.13-0.17-0.2c-0.08-0.09-0.15-0.18-0.23-0.27c-0.18-0.22-0.33-0.42-0.48-0.63
		c-0.08-0.12-0.16-0.25-0.24-0.37c-0.06-0.09-0.12-0.19-0.18-0.28c-0.16-0.23-0.29-0.48-0.42-0.73l-0.05-0.09
		c-0.18-0.33-0.32-0.67-0.49-1.07c-0.06-0.14-0.11-0.28-0.16-0.42l-0.04-0.12c-0.11-0.29-0.19-0.59-0.27-0.88l-0.03-0.11
		c-0.05-0.17-0.09-0.34-0.12-0.53c-0.03-0.15-0.05-0.3-0.08-0.44l-0.02-0.14l-0.02-0.14c-0.02-0.14-0.05-0.28-0.07-0.43
		c-0.02-0.17-0.04-0.34-0.05-0.48c-0.01-0.15-0.02-0.31-0.02-0.53c0-0.18,0-0.36,0-0.54c0.01-0.26,0.01-0.52,0.02-0.78l0-0.16
		c0-0.02,0-0.03,0-0.04c0.03-0.06,0.03-0.13,0.03-0.19c0-0.06,0-0.11,0.02-0.17c0.02-0.05,0.02-0.11,0.02-0.16
		c0-0.04,0-0.07,0.01-0.11c0.01-0.07,0.02-0.14,0.04-0.22c0.01-0.06,0.02-0.12,0.03-0.18c0.01-0.05,0.01-0.1,0.02-0.15
		c0.01-0.07,0.02-0.14,0.03-0.2c0.02-0.07,0.03-0.14,0.05-0.21c0.02-0.09,0.05-0.17,0.06-0.26c0.04-0.25,0.12-0.49,0.19-0.71
		c0.1-0.33,0.21-0.66,0.34-0.98c0.03-0.08,0.06-0.16,0.1-0.24c0.06-0.14,0.11-0.28,0.18-0.42c0.17-0.35,0.35-0.7,0.54-1.04
		c0.12-0.22,0.27-0.46,0.43-0.69l0.02-0.04c0.18-0.27,0.37-0.54,0.58-0.79c0.08-0.09,0.15-0.18,0.22-0.27
		c0.12-0.15,0.25-0.3,0.38-0.44c0.23-0.24,0.48-0.48,0.72-0.71c0.09-0.09,0.18-0.18,0.28-0.27c0.06-0.05,0.12-0.11,0.19-0.16
		c0.18-0.14,0.35-0.28,0.53-0.41c0.15-0.11,0.28-0.2,0.41-0.29c0.18-0.12,0.34-0.23,0.5-0.32l0.18-0.11
		c0.21-0.13,0.43-0.26,0.65-0.38c0.36-0.19,0.74-0.36,1.12-0.52c0.38-0.15,0.72-0.27,1.04-0.37c0.21-0.07,0.45-0.13,0.68-0.19
		c0.08-0.02,0.17-0.04,0.25-0.05c0.07-0.01,0.15-0.03,0.22-0.04c0.04-0.01,0.09-0.02,0.14-0.02c0.05-0.01,0.1-0.01,0.14-0.03
		c0.13-0.04,0.26-0.05,0.39-0.07c0.09-0.01,0.18-0.02,0.26-0.04c0.14-0.03,0.29-0.04,0.42-0.05c0.13-0.01,0.25-0.02,0.38-0.02
		l0.08,0c0.02,0,0.03,0,0.05,0h0.02h0.03l0.04,0c0.02,0,0.04,0,0.06,0c0.01,0,0.01-0.01,0.02-0.01c0.18,0,0.35-0.01,0.53-0.01
		c0.14,0,0.29,0,0.43,0c0.04,0.01,0.09,0.02,0.13,0.02l0.03,0c0.02,0,0.05,0,0.07,0h0.02l0.06,0c0.03,0,0.07,0,0.1,0
		c0.07,0.01,0.14,0.02,0.21,0.03c0.06,0.01,0.11,0.01,0.17,0.02c0.06,0.01,0.13,0.01,0.19,0.02c0.04,0,0.09,0.01,0.13,0.01
		c0.08,0.01,0.15,0.02,0.21,0.03c0.05,0.01,0.11,0.02,0.16,0.03c0.07,0.01,0.13,0.03,0.19,0.04c0.05,0.01,0.1,0.02,0.15,0.02
		c0.06,0.01,0.13,0.02,0.19,0.03c0.09,0.02,0.18,0.04,0.27,0.07c0.07,0.02,0.13,0.03,0.2,0.05c0.22,0.05,0.46,0.12,0.76,0.21
		c0.28,0.09,0.56,0.18,0.82,0.29c0.09,0.04,0.18,0.07,0.26,0.1c0.13,0.05,0.26,0.1,0.39,0.16c0.07,0.03,0.14,0.07,0.21,0.1
		c0.12,0.06,0.24,0.11,0.35,0.18l0.14,0.08c0.18,0.1,0.37,0.2,0.56,0.31c0.29,0.17,0.57,0.37,0.83,0.54
		c0.28,0.19,0.56,0.41,0.91,0.71c0.23,0.19,0.45,0.41,0.65,0.61c0.14,0.13,0.27,0.27,0.39,0.41l0.12,0.13
		c0.07,0.07,0.14,0.15,0.21,0.23c0.18,0.22,0.32,0.4,0.45,0.57c0.09,0.12,0.19,0.25,0.3,0.41c0.24,0.35,0.43,0.64,0.58,0.91
		c0.17,0.3,0.3,0.54,0.41,0.77c0.11,0.23,0.24,0.5,0.35,0.78c0.03,0.07,0.06,0.14,0.08,0.21c0.04,0.09,0.07,0.18,0.11,0.27
		c0.09,0.24,0.15,0.45,0.21,0.64c0.03,0.1,0.06,0.21,0.08,0.31c0.01,0.05,0.02,0.1,0.04,0.15c0.01,0.04,0.02,0.08,0.03,0.12
		c0.02,0.08,0.04,0.16,0.06,0.24c0.02,0.1,0.04,0.2,0.05,0.3l0.02,0.11l0.02,0.12l0.03,0.17c0.01,0.05,0.02,0.09,0.03,0.14
		c0.01,0.07,0.03,0.14,0.04,0.22c0.01,0.04,0.01,0.08,0.01,0.13c0,0.05,0.01,0.11,0.02,0.16c0.03,0.18,0.05,0.38,0.05,0.62
		c0,0.03,0,0.06,0,0.08c0,0,0.01,0.01,0.01,0.01c0.01,0.49,0.01,0.98,0,1.48c-0.01,0.02-0.02,0.04-0.02,0.06c0,0.06,0,0.13,0,0.19
		c0,0.09,0,0.19-0.01,0.28c-0.01,0.08-0.02,0.17-0.03,0.25c-0.01,0.11-0.02,0.23-0.04,0.34c-0.01,0.08-0.02,0.16-0.03,0.23
		c-0.01,0.09-0.02,0.18-0.04,0.27c-0.02,0.12-0.05,0.23-0.08,0.35c-0.03,0.12-0.06,0.23-0.08,0.35c-0.06,0.29-0.15,0.58-0.24,0.86
		l-0.02,0.06c-0.05,0.16-0.11,0.32-0.17,0.48l-0.07,0.18c-0.09,0.25-0.2,0.51-0.33,0.77c-0.13,0.27-0.27,0.53-0.44,0.85
		c-0.1,0.19-0.21,0.37-0.32,0.53c-0.28,0.43-0.54,0.79-0.79,1.1l-0.03,0.04c-0.16,0.2-0.33,0.41-0.51,0.6l-0.15,0.15
		c-0.29,0.3-0.6,0.61-0.93,0.89l-0.12,0.1c-0.17,0.14-0.35,0.29-0.53,0.42l-0.15,0.11c-0.14,0.1-0.27,0.2-0.41,0.3
		c-0.12,0.08-0.26,0.17-0.43,0.27c-0.22,0.13-0.41,0.24-0.61,0.35c-0.45,0.25-0.83,0.43-1.2,0.57c-0.05,0.02-0.1,0.04-0.15,0.06
		c-0.11,0.04-0.22,0.09-0.33,0.13c-0.1,0.03-0.21,0.07-0.31,0.1c-0.18,0.06-0.37,0.12-0.55,0.17c-0.28,0.08-0.56,0.14-0.82,0.21
		l-0.04,0.01c-0.1,0.02-0.19,0.04-0.29,0.06c-0.15,0.03-0.31,0.05-0.46,0.07c-0.04,0.01-0.08,0.01-0.12,0.01
		c-0.05,0-0.09,0.01-0.14,0.01c-0.13,0.02-0.26,0.05-0.4,0.05c-0.02,0-0.02,0-0.03,0c-0.01,0-0.01,0-0.02,0c-0.01,0-0.01,0-0.02,0
		c-0.04,0.02-0.09,0.02-0.13,0.02l-0.04,0c-0.02,0-0.04,0-0.05,0c-0.01,0-0.02,0-0.04,0c-0.03,0-0.06,0.01-0.09,0.01
		c-0.06,0.01-0.11,0.01-0.17,0.01c-0.05,0-0.1,0-0.14,0c-0.08,0-0.16,0-0.24,0l-0.06,0l-0.1,0c-0.07,0-0.13,0-0.2,0
		C86.27,116.51,86.02,116.51,85.76,116.48z M54.56,129.41c-0.04-0.07-0.08-0.13-0.12-0.2c-1.82-3.03-3.64-6.06-5.55-9.03
		c-0.1-0.18-0.2-0.36-0.34-0.51c-0.02-0.02-0.04-0.04-0.07-0.07c-0.33-0.85-0.66-1.7-0.99-2.54c-0.15-0.38-0.31-0.77-0.46-1.15
		c-0.18-0.45-0.36-0.9-0.6-1.32c-0.15-0.26-0.37-0.47-0.67-0.56c-0.29-0.09-0.62-0.07-0.89,0.08c-0.03,0.01-0.05,0.03-0.08,0.04
		c-0.08-0.24-0.17-0.48-0.25-0.72c0.33-0.17,0.68-0.33,1.04-0.47c0.38-0.15,0.72-0.27,1.04-0.37c0.21-0.07,0.45-0.13,0.68-0.19
		c0.08-0.02,0.17-0.04,0.25-0.05c0.07-0.01,0.15-0.03,0.22-0.04c0.04-0.01,0.09-0.02,0.14-0.02c0.05-0.01,0.1-0.01,0.14-0.03
		c0.13-0.04,0.26-0.05,0.39-0.07c0.09-0.01,0.18-0.02,0.26-0.04c0.14-0.03,0.29-0.04,0.42-0.05c0.13-0.01,0.25-0.02,0.38-0.02
		l0.08,0c0.02,0,0.03,0,0.05,0h0.02h0.03l0.04,0c0.02,0,0.04,0,0.06,0c0.01,0,0.01-0.01,0.02-0.01c0.18,0,0.35-0.01,0.53-0.01
		c0.14,0,0.29,0,0.43,0c0.04,0.01,0.09,0.02,0.13,0.02l0.03,0c0.02,0,0.05,0,0.07,0h0.02l0.06,0c0.03,0,0.07,0,0.1,0
		c0.07,0.01,0.14,0.02,0.21,0.03c0.06,0.01,0.11,0.01,0.17,0.02c0.06,0.01,0.13,0.01,0.19,0.02c0.04,0,0.09,0.01,0.13,0.01
		c0.08,0.01,0.15,0.02,0.21,0.03c0.05,0.01,0.11,0.02,0.16,0.03c0.07,0.01,0.13,0.03,0.19,0.04c0.05,0.01,0.1,0.02,0.15,0.02
		c0.06,0.01,0.13,0.02,0.19,0.03c0.09,0.02,0.18,0.04,0.27,0.07c0.07,0.02,0.13,0.03,0.2,0.05c0.22,0.05,0.46,0.12,0.76,0.21
		c0.28,0.09,0.56,0.18,0.82,0.29c0.09,0.04,0.18,0.07,0.26,0.1c0.13,0.05,0.26,0.1,0.39,0.16c0.07,0.03,0.14,0.07,0.21,0.1
		c0.12,0.06,0.24,0.11,0.35,0.18l0.14,0.08c0.18,0.1,0.37,0.2,0.56,0.31c0.29,0.17,0.57,0.37,0.83,0.54
		c0.28,0.19,0.56,0.41,0.91,0.71c0.23,0.19,0.45,0.41,0.66,0.61c0.14,0.13,0.27,0.27,0.39,0.41l0.12,0.13
		c0.07,0.07,0.14,0.15,0.21,0.23c0.18,0.22,0.32,0.4,0.45,0.57c0.09,0.12,0.19,0.25,0.3,0.41c0.24,0.35,0.43,0.64,0.58,0.91
		c0.17,0.3,0.3,0.54,0.41,0.77c0.11,0.23,0.24,0.5,0.35,0.78c0.03,0.07,0.05,0.14,0.08,0.21c0.04,0.09,0.07,0.18,0.11,0.27
		c0.09,0.24,0.15,0.45,0.21,0.64c0.03,0.1,0.06,0.21,0.08,0.31c0.01,0.05,0.02,0.1,0.04,0.15c0.01,0.04,0.02,0.08,0.03,0.12
		c0.02,0.08,0.04,0.16,0.06,0.24c0.02,0.1,0.04,0.2,0.05,0.3l0.02,0.11l0.02,0.12l0.03,0.17c0.01,0.05,0.02,0.09,0.03,0.14
		c0.01,0.07,0.03,0.14,0.04,0.22c0.01,0.04,0.01,0.08,0.01,0.13c0,0.05,0.01,0.11,0.02,0.16c0.03,0.18,0.05,0.38,0.05,0.62
		c0,0.03,0,0.06,0,0.08c0,0,0.01,0.01,0.01,0.01c0.01,0.49,0.01,0.98,0,1.48c-0.01,0.02-0.02,0.04-0.02,0.06c0,0.06,0,0.13,0,0.19
		c0,0.09,0,0.19-0.01,0.28c-0.01,0.08-0.02,0.17-0.03,0.25c-0.01,0.11-0.02,0.23-0.04,0.34c-0.01,0.08-0.02,0.16-0.03,0.23
		c-0.01,0.09-0.02,0.18-0.04,0.27c-0.02,0.12-0.05,0.23-0.08,0.35s-0.06,0.23-0.08,0.35c-0.06,0.29-0.15,0.58-0.24,0.86l-0.02,0.06
		c-0.05,0.16-0.11,0.32-0.17,0.48l-0.07,0.18c-0.09,0.25-0.2,0.51-0.33,0.77c-0.13,0.27-0.27,0.53-0.44,0.85
		c-0.1,0.19-0.21,0.37-0.32,0.53c-0.28,0.43-0.54,0.79-0.79,1.1l-0.03,0.04c-0.16,0.2-0.33,0.41-0.51,0.6l-0.15,0.15
		c-0.29,0.3-0.6,0.61-0.93,0.89l-0.12,0.1c-0.14,0.12-0.29,0.24-0.44,0.36C56.75,132.96,55.65,131.19,54.56,129.41z"/>
	<path class="st18" d="M117.75,66.17c-0.13-0.03-0.23-0.14-0.26-0.26c-0.07-0.03-0.14-0.08-0.18-0.15c-0.14-0.23-0.27-0.46-0.4-0.69
		c-0.14-0.25-0.29-0.49-0.45-0.73c-0.28-0.45-0.58-0.9-0.88-1.33c0,0,0,0,0,0.01c-0.02-0.03-0.05-0.07-0.07-0.1c0,0,0,0,0,0
		c0,0,0,0,0,0l0,0c0,0-0.01-0.01-0.01-0.01c-0.43-0.61-0.9-1.19-1.4-1.74c-0.17-0.18-0.34-0.36-0.52-0.53
		c-0.18-0.18-0.37-0.34-0.56-0.51c-0.04-0.03-0.08-0.06-0.12-0.1c0.01,0.01,0.03,0.02,0.04,0.03c-0.03-0.02-0.05-0.04-0.08-0.07
		c0.01,0.01,0.03,0.02,0.04,0.03c-0.27-0.23-0.55-0.43-0.83-0.64c-0.29-0.22-0.59-0.43-0.86-0.67c-0.14-0.12-0.26-0.25-0.38-0.4
		c-0.1-0.12-0.2-0.25-0.24-0.4c-0.06-0.2,0.04-0.45,0.24-0.53c0.29-0.13,0.57-0.27,0.85-0.41c-0.02,0.01-0.03,0.02-0.05,0.03
		c0.04-0.02,0.07-0.04,0.11-0.06c-0.02,0.01-0.03,0.02-0.05,0.03c0.41-0.22,0.81-0.46,1.19-0.73c0.3-0.21,0.58-0.44,0.85-0.69
		c0.35-0.34,0.68-0.69,1-1.06c0.3-0.36,0.57-0.73,0.83-1.12c0.18-0.29,0.35-0.59,0.51-0.89c0.18-0.4,0.34-0.81,0.48-1.23
		c0.12-0.37,0.23-0.75,0.31-1.13c0.02-0.12,0.03-0.23,0.06-0.34c0.02-0.07,0.05-0.15,0.11-0.2c0.06-0.04,0.13-0.07,0.2-0.07
		c0.09-0.07,0.22-0.09,0.33-0.05c0.15,0.07,0.21,0.19,0.26,0.34c0.04,0.11,0.06,0.23,0.1,0.34c0.06,0.23,0.14,0.46,0.22,0.68
		c0.11,0.31,0.25,0.6,0.39,0.89c0.1,0.18,0.2,0.36,0.31,0.54c0.12,0.2,0.26,0.39,0.39,0.58c0.03,0.04,0.06,0.09,0.09,0.13
		c0,0,0,0,0,0c0.39,0.54,0.8,1.06,1.25,1.56c0.38,0.41,0.78,0.79,1.2,1.15c0.47,0.38,0.96,0.73,1.46,1.05c0,0,0,0,0,0c0,0,0,0,0,0
		c0,0,0,0,0,0l0,0c0,0,0,0,0,0c0,0,0,0,0,0c0,0,0,0,0,0c0.01,0.01,0.02,0.01,0.03,0.02c-0.01-0.01-0.03-0.02-0.04-0.03
		c0.06,0.04,0.11,0.08,0.17,0.11c0.01,0,0.01,0,0.02,0.01c0.07,0.02,0.14,0.04,0.21,0.06c0.22,0.05,0.33,0.29,0.26,0.5
		c-0.05,0.12-0.13,0.21-0.21,0.31c-0.06,0.07-0.11,0.14-0.17,0.21c-0.11,0.13-0.23,0.26-0.34,0.39c-0.23,0.25-0.46,0.5-0.69,0.75
		c-0.47,0.52-0.93,1.03-1.38,1.57c-0.22,0.26-0.43,0.53-0.64,0.8c-0.21,0.27-0.4,0.55-0.59,0.84c0.01-0.01,0.01-0.02,0.02-0.03
		c-0.26,0.41-0.5,0.84-0.72,1.28c-0.18,0.39-0.34,0.79-0.49,1.19c-0.08,0.21-0.16,0.43-0.24,0.64c-0.03,0.1-0.07,0.2-0.1,0.29
		c-0.04,0.13-0.1,0.25-0.16,0.36c-0.06,0.12-0.19,0.19-0.32,0.19C117.81,66.18,117.78,66.18,117.75,66.17z M121.59,79.54
		c-0.15-0.04-0.27-0.2-0.24-0.35c0.01-0.07,0.02-0.15,0.04-0.22c0,0,0,0,0,0c-0.21-0.34-0.35-0.71-0.53-1.07
		c-0.23-0.44-0.5-0.86-0.79-1.26c-0.01-0.02-0.03-0.04-0.04-0.06c0,0,0,0,0,0c0,0,0-0.01-0.01-0.01c0,0,0,0-0.01-0.01l0,0
		c0,0,0,0,0,0v0v0c0,0,0,0,0,0c-0.21-0.3-0.42-0.6-0.63-0.89c-0.22-0.3-0.46-0.6-0.66-0.92c-0.04-0.07-0.08-0.15-0.12-0.22
		c-0.05-0.09-0.1-0.18-0.12-0.29c-0.02-0.11,0.01-0.23,0.08-0.32c0.04-0.06,0.1-0.11,0.14-0.15c0.06-0.06,0.11-0.12,0.17-0.18
		c0.23-0.24,0.46-0.47,0.68-0.71c0.05-0.06,0.11-0.12,0.16-0.18c0.23-0.28,0.44-0.57,0.63-0.87c0.21-0.33,0.4-0.66,0.57-1.01
		c0.06-0.13,0.11-0.26,0.15-0.39c0.02-0.07,0.04-0.15,0.06-0.22c0.03-0.1,0.1-0.19,0.19-0.22c0-0.01,0-0.02,0-0.02
		c0.01-0.13,0.08-0.26,0.19-0.33c0,0,0,0,0,0c0,0,0.01,0,0.01-0.01c0,0,0,0,0,0c0.04-0.02,0.09-0.04,0.15-0.04c0,0,0,0,0,0
		c0.07,0,0.15,0.02,0.21,0.08c0.04,0.04,0.06,0.08,0.08,0.13c0,0,0,0,0,0c0,0,0,0,0,0c0,0,0,0,0,0c0,0,0,0,0,0.01
		c0.02,0.07,0.03,0.14,0.04,0.21c0.03,0.14,0.07,0.27,0.12,0.4c0.07,0.17,0.14,0.34,0.22,0.5c0.21,0.38,0.43,0.75,0.68,1.11
		c0.17,0.24,0.36,0.48,0.56,0.7c0.18,0.18,0.36,0.36,0.55,0.53c0.12,0.1,0.24,0.18,0.36,0.27c0.1,0.06,0.19,0.12,0.29,0.17
		c0.05,0.03,0.1,0.06,0.13,0.1c0.07,0.09,0.1,0.22,0.07,0.33c-0.03,0.15-0.09,0.29-0.15,0.43c0.01-0.01,0.01-0.03,0.02-0.04
		c-0.17,0.37-0.42,0.69-0.66,1.02c-0.25,0.34-0.49,0.68-0.72,1.03c-0.21,0.33-0.4,0.67-0.59,1.01c-0.19,0.35-0.37,0.69-0.54,1.05
		c-0.05,0.12-0.11,0.23-0.16,0.35c-0.03,0.07-0.07,0.15-0.1,0.22c-0.04,0.07-0.08,0.14-0.13,0.21c-0.06,0.1-0.17,0.17-0.29,0.17
		C121.64,79.55,121.62,79.54,121.59,79.54z M65.79,117.43c-0.05-0.01-0.11-0.02-0.16-0.03c0.01,0,0.01,0,0.02,0
		c-0.01,0-0.02,0-0.03,0c0,0-0.01,0-0.02,0c0,0,0,0,0,0c-0.54-0.08-1.06-0.28-1.56-0.49c-0.3-0.12-0.58-0.26-0.86-0.43
		c-0.31-0.18-0.6-0.39-0.88-0.61c-0.56-0.45-1.06-1.02-1.34-1.69c-0.29-0.7-0.35-1.47-0.33-2.22c0.01-0.44,0.07-0.88,0.14-1.32
		c0.05-0.19,0.08-0.38,0.1-0.57c0.01-0.07,0.03-0.13,0.04-0.2c0.05-0.27,0.11-0.55,0.16-0.82c-0.02,0.01-0.04,0.01-0.06,0.02
		c0.03-0.15,0.07-0.31,0.1-0.46c0.04-0.18,0.08-0.37,0.12-0.55c0.01-0.03,0.01-0.06,0.02-0.09c0,0,0.01,0,0.01,0
		c0.01-0.06,0.02-0.12,0.03-0.17c0.1-0.63,0.2-1.26,0.29-1.89c0-0.56,0-1.13,0-1.69c0-0.16,0-0.33-0.01-0.49
		c-0.01-0.16-0.02-0.33-0.03-0.49c-0.01-0.17-0.02-0.34-0.05-0.5c0-0.01,0-0.01,0-0.02c0,0,0,0,0,0l0,0
		c-0.01-0.09-0.01-0.16,0.04-0.24c0,0,0,0,0,0c0.05-0.08,0.14-0.14,0.23-0.15c0.01-0.02,0.02-0.04,0.03-0.06
		c0.1-0.14,0.31-0.18,0.44-0.06c0.1,0.09,0.12,0.23,0.13,0.37c0.05,0.1,0.08,0.21,0.1,0.3c0.05,0.19,0.09,0.37,0.12,0.55l0,0.02
		c0.08,0.42,0.14,0.83,0.18,1.14c0.04,0.3,0.07,0.62,0.09,0.92l0.01,0.11l0.01,0.1c0.05,0.69,0.11,1.39,0.1,2.09
		c-0.01,0.57-0.05,1.13-0.09,1.66l-0.01,0.15c-0.04,0.47-0.08,0.96-0.11,1.44l0-0.01c0,0.05-0.01,0.11-0.01,0.16
		c-0.01,0.25-0.02,0.52-0.01,0.78c0.02,0.27,0.05,0.51,0.09,0.73c0.04,0.18,0.09,0.37,0.15,0.57c0.09,0.26,0.19,0.52,0.32,0.79
		c0.12,0.24,0.23,0.44,0.34,0.61c0.09,0.13,0.2,0.27,0.32,0.41c0.2,0.23,0.4,0.42,0.6,0.6c0.16,0.14,0.34,0.27,0.53,0.4
		c0.12,0.08,0.25,0.15,0.38,0.23c0.14,0.08,0.29,0.17,0.42,0.26c0.05,0.03,0.1,0.06,0.15,0.1c0.05,0.04,0.09,0.1,0.12,0.16
		c0.07,0.09,0.1,0.2,0.08,0.31c-0.04,0.18-0.2,0.3-0.38,0.3C65.84,117.44,65.81,117.44,65.79,117.43L65.79,117.43z M67.5,114.14
		c-0.06-0.06-0.1-0.13-0.12-0.21c-0.05-0.21,0.05-0.44,0.18-0.61c0.11-0.14,0.25-0.27,0.39-0.38c0.15-0.12,0.32-0.22,0.49-0.31
		c0.31-0.16,0.65-0.27,1-0.35c0.32-0.08,0.66-0.13,0.99-0.16c0,0-0.01,0-0.01,0c0.01,0,0.01,0,0.02,0c0.01,0,0.03,0,0.04,0
		c-0.01,0-0.01,0-0.02,0c0.01,0,0.02,0,0.04,0c-0.01,0-0.01,0-0.02,0c0.01,0,0.02,0,0.03,0c0.01,0,0.02,0,0.03,0
		c-0.01,0-0.01,0-0.02,0c0.28-0.02,0.56,0,0.83,0.07c0.16,0.04,0.27,0.18,0.27,0.35c0,0.17-0.13,0.34-0.31,0.36
		c-0.22,0.02-0.45,0.03-0.67,0.04c0,0,0,0,0.01,0c-0.29,0.03-0.57,0.07-0.86,0.13c-0.24,0.06-0.47,0.12-0.71,0.2
		c-0.1,0.04-0.2,0.08-0.3,0.13c-0.08,0.04-0.16,0.09-0.23,0.14c-0.09,0.07-0.18,0.14-0.26,0.21c-0.03,0.03-0.06,0.06-0.09,0.09
		c-0.03,0.04-0.06,0.08-0.09,0.12c-0.02,0.03-0.04,0.06-0.05,0.09c0.01-0.01,0.01-0.02,0.02-0.03c-0.05,0.08-0.09,0.13-0.18,0.18
		c-0.04,0.02-0.08,0.03-0.12,0.03C67.65,114.25,67.56,114.21,67.5,114.14L67.5,114.14z M70.11,128.62c-0.2-0.02-0.38-0.08-0.56-0.15
		c-0.33-0.14-0.63-0.34-0.89-0.59c-0.24-0.24-0.4-0.56-0.51-0.88c-0.1-0.3-0.13-0.64-0.08-0.95c-0.04-0.04-0.08-0.09-0.11-0.14
		c-0.09-0.13-0.16-0.28-0.24-0.42c-0.08-0.15-0.14-0.31-0.2-0.47c-0.06-0.16-0.12-0.32-0.18-0.48c-0.12-0.35-0.22-0.71-0.26-1.07
		c-0.04-0.37,0.01-0.74,0.09-1.1c0.07-0.34,0.21-0.68,0.4-0.96c0.2-0.3,0.46-0.54,0.76-0.73c0.26-0.16,0.54-0.27,0.84-0.33
		c0.29-0.06,0.58-0.06,0.87-0.11c0,0,0.01,0,0.01,0c0.02-0.04,0.05-0.09,0.07-0.14c0.04-0.08,0.09-0.17,0.14-0.25
		c0.1-0.16,0.21-0.31,0.32-0.45c0.26-0.32,0.58-0.57,0.93-0.78c0.13-0.08,0.27-0.13,0.4-0.19c0.08-0.03,0.16-0.07,0.24-0.1
		c0.18-0.07,0.36-0.14,0.55-0.21c0.35-0.12,0.71-0.22,1.07-0.25c0.38-0.03,0.76-0.01,1.13,0.03c0.37,0.04,0.74,0.11,1.11,0.21
		c0.69,0.18,1.36,0.44,2.03,0.68c0.43,0.15,0.86,0.31,1.3,0.46c0.01,0,0.02,0.01,0.03,0.01c0,0,0,0,0,0h0c0,0,0,0,0,0c0,0,0,0,0,0
		c0,0,0,0,0,0h0c0,0,0,0,0,0c0,0,0,0,0,0c0.16,0.05,0.32,0.1,0.48,0.15c0.1,0.03,0.21,0.06,0.31,0.09
		c-0.11,0.25-0.22,0.51-0.33,0.76c-0.03,0.05-0.07,0.11-0.1,0.17c-0.01,0.02-0.03,0.04-0.04,0.06c-0.07,0.1-0.13,0.19-0.2,0.29
		c-0.27,0.39-0.54,0.79-0.79,1.19c-0.13,0.21-0.27,0.42-0.4,0.62c-0.07,0.11-0.15,0.22-0.22,0.34c-0.2,0.23-0.4,0.47-0.6,0.7
		c-0.24,0.28-0.49,0.55-0.74,0.83c-0.24,0.27-0.46,0.55-0.69,0.83c-0.23,0.28-0.47,0.53-0.72,0.79c-0.25,0.25-0.49,0.51-0.76,0.73
		c-0.28,0.23-0.58,0.45-0.87,0.66c-0.28,0.2-0.57,0.39-0.88,0.54c-0.36,0.17-0.73,0.35-1.12,0.46c0.02,0,0.03-0.01,0.05-0.01
		c-0.18,0.05-0.36,0.1-0.54,0.13c-0.19,0.03-0.38,0.05-0.57,0.06c-0.05,0-0.1,0-0.15,0C70.35,128.64,70.23,128.64,70.11,128.62
		L70.11,128.62z M79.58,120.36c0.07-0.05,0.15-0.11,0.22-0.16c0,0-0.01-0.01-0.01-0.01C79.72,120.25,79.65,120.3,79.58,120.36
		L79.58,120.36z M47.97,172.52c-0.06,0.14-0.06,0.3,0,0.45c0.06,0.14,0.17,0.22,0.29,0.3c0.04,0.03,0.09,0.07,0.13,0.1
		c0.15,0.11,0.3,0.18,0.49,0.19c0.01,0,0.02,0,0.03,0c0.75,0,0.79-0.98,0.98-1.28c0.12-0.2,0.23-0.41,0.34-0.62
		c0.25-0.48,0.5-0.97,0.75-1.46c0.72-1.41,1.43-2.82,2.15-4.24c0.72-1.43,1.49-2.83,2.26-4.23c0.39-0.7,0.79-1.4,1.19-2.09
		c0.42-0.71,0.85-1.41,1.27-2.12c0.45-0.75,0.89-1.51,1.31-2.28c0.39-0.71,0.77-1.42,1.17-2.12c0.39-0.7,0.78-1.41,1.18-2.1
		c0.4-0.69,0.82-1.37,1.24-2.05c0.84-1.35,1.7-2.69,2.55-4.03c-0.02,0.03-0.03,0.05-0.05,0.08c0.45-0.69,0.9-1.38,1.36-2.07
		c0.47-0.7,0.95-1.4,1.43-2.1c0.43-0.62,0.86-1.25,1.29-1.87c0.47-0.66,0.94-1.32,1.44-1.97c0.48-0.64,0.99-1.26,1.5-1.87
		c0.74-0.88,1.49-1.74,2.27-2.59c0.79-0.87,1.6-1.73,2.46-2.53c0.36-0.33,0.72-0.66,1.09-0.97c0.37-0.3,0.75-0.59,1.13-0.86
		c0.99-0.69,2.01-1.32,3.07-1.89c0.83-0.43,1.68-0.81,2.56-1.13c2.57-0.9,6.59-0.85,9.24-0.46c4.31,0.73,8.19,2.38,11.9,4.62
		c-0.01,0-0.01-0.01-0.02-0.01c2.99,1.8,5.3,3.84,7.87,6.27c0.86,0.81,1.7,1.64,2.55,2.46c0.34,0.33,0.68,0.66,1.02,0.99
		c0.08,0.08,0.16,0.17,0.24,0.25c0.57,0.6,1.13,1.2,1.72,1.78c0.28,0.28,0.57,0.55,0.86,0.83c0.15,0.15,0.3,0.3,0.44,0.45
		c0.07,0.07,0.13,0.14,0.2,0.21c0.04,0.04,0.08,0.09,0.12,0.13c0.04,0.05,0.09,0.1,0.13,0.14c0.85,0.92,1.68,1.87,2.51,2.82
		c0.5,0.58,1,1.16,1.49,1.75c0.49,0.59,0.94,1.22,1.4,1.84c0.4,0.56,0.81,1.11,1.25,1.63c0.25,0.29,0.5,0.58,0.73,0.88
		c0.12,0.15,0.23,0.3,0.35,0.44c0.05,0.05,0.09,0.1,0.14,0.15c0.15,0.21,0.29,0.43,0.44,0.64c0.01,0.02,0.02,0.04,0.04,0.05
		c0,0.02,0,0.03,0,0.05c0.02,0.02,0.05,0.04,0.07,0.07c0.04,0.04,0.08,0.08,0.12,0.12c0.06,0.03,0.12,0.06,0.18,0.09
		c0.03,0.01,0.05,0.03,0.08,0.04c0.03-0.01,0.07-0.02,0.1-0.04c0.04-0.02,0.08-0.03,0.13-0.05c0.04-0.01,0.07-0.03,0.11-0.03
		c0,0,0.01-0.01,0.01-0.01c0.02-0.01,0.03-0.02,0.04-0.03c0.02-0.02,0.05-0.03,0.07-0.05c0.02-0.03,0.04-0.06,0.06-0.09h0
		c0.03-0.04,0.06-0.08,0.09-0.12l0,0l0,0l0,0c0.04-0.05,0.07-0.1,0.11-0.15v0l0.04-0.05c0.03-0.03,0.05-0.07,0.08-0.1l0,0l0.01-0.01
		l0,0l0,0l0,0l0,0l0,0l0,0l0,0l0,0l0,0l0,0l0,0l0,0l0,0l0.04-0.05c0.01-0.01,0.01-0.02,0.02-0.03l0,0l0,0l0,0l0,0l0,0v0l0,0l0,0l0,0
		l0,0l0,0l0,0l0,0l0,0l0,0l0,0l0,0l0.01-0.01l0,0l0,0l0,0l0,0l0,0v0l0,0l0.01-0.02v0l0,0v0l0,0l0,0v0v0v0l0,0v0l0,0l0,0l0,0v0v0v0
		c0.03-0.05,0.06-0.1,0.08-0.15l0,0l0,0l0,0l0,0l0,0l0,0l0,0l0,0l0,0l0,0l0,0l0,0c0.03-0.06,0.07-0.11,0.1-0.17v0
		c0.02-0.03,0.04-0.06,0.06-0.1c0,0.01-0.01,0.01-0.01,0.02c0.13-0.22,0.26-0.43,0.4-0.64c0.06-0.11,0.12-0.21,0.17-0.32
		c-0.12-0.25-0.28-0.47-0.43-0.7c-0.3-0.45-0.62-0.89-0.94-1.32c-0.18-0.24-0.36-0.47-0.57-0.68c-0.05-0.06-0.11-0.12-0.18-0.18
		c-0.32-0.39-0.64-0.78-0.97-1.17c-0.7-0.85-1.38-1.72-2.1-2.55c0.02,0.02,0.04,0.04,0.05,0.06c-0.66-0.75-1.34-1.49-2.03-2.21
		l-0.07-0.07c-0.02-0.09-0.05-0.17-0.08-0.25c-0.09-0.28-0.18-0.56-0.26-0.83c-0.17-0.57-0.36-1.14-0.53-1.71
		c-0.33-1.1-0.66-2.21-1.03-3.3c-0.37-1.11-0.74-2.23-1.09-3.35c-0.36-1.13-0.76-2.26-1.13-3.38c-0.39-1.17-0.78-2.35-1.2-3.51
		l-0.11-0.3c0.14-0.14,0.28-0.29,0.41-0.45c0.01-0.01,0.01-0.01,0.02-0.02c0.12-0.13,0.24-0.26,0.35-0.39
		c0.25-0.3,0.5-0.61,0.72-0.94c0.16-0.24,0.32-0.48,0.47-0.72c0.08-0.1,0.16-0.21,0.24-0.32c0.24-0.32,0.46-0.64,0.66-0.99
		c0.19-0.32,0.36-0.64,0.52-0.98c0.16-0.33,0.32-0.66,0.46-1c-0.01,0.02-0.01,0.03-0.02,0.05c0.14-0.33,0.29-0.66,0.42-0.99
		c0.06-0.14,0.11-0.27,0.16-0.41c0.02-0.05,0.05-0.1,0.07-0.16c0.35-0.76,0.61-1.56,0.85-2.37c0.24-0.8,0.47-1.61,0.63-2.44
		c0.08-0.42,0.17-0.84,0.24-1.26c0.03-0.21,0.07-0.42,0.09-0.63c0.02-0.2,0.03-0.39,0.03-0.59c0.01-0.39,0.02-0.78,0.02-1.17
		c0-0.43-0.01-0.86-0.01-1.29c-0.01-0.39-0.01-0.78-0.02-1.17c0.02-0.59,0.01-1.19,0-1.78c-0.01-0.37-0.03-0.73-0.06-1.1
		c-0.03-0.32-0.07-0.63-0.12-0.95c0.01-0.31,0.01-0.63,0-0.94c-0.01-0.49-0.05-0.97-0.09-1.46c-0.04-0.48-0.09-0.96-0.15-1.44
		c-0.11-0.92-0.27-1.84-0.46-2.75c-0.1-0.46-0.2-0.92-0.33-1.37c-0.13-0.47-0.27-0.94-0.42-1.4c-0.24-0.73-0.52-1.44-0.86-2.12
		c-0.02-0.1-0.05-0.2-0.08-0.29c-0.11-0.4-0.23-0.79-0.36-1.18c-0.25-0.72-0.56-1.43-0.9-2.12c-0.34-0.69-0.73-1.36-1.15-2
		c-0.2-0.32-0.42-0.63-0.65-0.93c-0.24-0.32-0.5-0.62-0.76-0.92c-0.5-0.57-1.05-1.1-1.6-1.62c0,0,0,0,0,0c0,0,0,0-0.01-0.01
		c0,0-0.01-0.01-0.01-0.01c0,0,0,0,0.01,0.01c-0.39-0.37-0.8-0.72-1.22-1.06c-0.58-0.48-1.18-0.93-1.77-1.41
		c-0.58-0.47-1.16-0.95-1.71-1.46l0,0c-0.28-0.26-0.55-0.52-0.8-0.8c-0.24-0.26-0.47-0.54-0.71-0.81c-0.49-0.56-0.99-1.13-1.46-1.71
		c-0.02-0.02-0.03-0.04-0.05-0.06c-0.48-0.59-0.94-1.2-1.42-1.79c-0.47-0.58-0.97-1.14-1.49-1.68c-0.29-0.3-0.59-0.58-0.9-0.87
		c-0.29-0.26-0.57-0.53-0.87-0.78c-0.59-0.5-1.21-0.97-1.87-1.38c-0.11-0.07-0.22-0.14-0.33-0.2c-0.75-0.6-1.52-1.17-2.31-1.72
		c-0.5-0.35-1.01-0.69-1.55-0.98c-0.55-0.3-1.13-0.56-1.7-0.82c-0.57-0.25-1.13-0.49-1.71-0.73c-0.54-0.22-1.08-0.44-1.63-0.63
		c-0.57-0.21-1.15-0.38-1.74-0.55c-0.59-0.17-1.18-0.33-1.78-0.49c-1.16-0.3-2.33-0.56-3.51-0.74c-0.59-0.09-1.18-0.16-1.77-0.21
		c-0.64-0.05-1.27-0.08-1.91-0.09c-1.21-0.02-2.43,0.04-3.64,0.15c-0.59,0.05-1.19,0.13-1.78,0.2c-0.59,0.08-1.19,0.16-1.78,0.26
		c-1.18,0.19-2.36,0.4-3.54,0.57c-1.18,0.17-2.37,0.31-3.55,0.48c-0.59,0.09-1.18,0.18-1.77,0.29c-0.61,0.11-1.22,0.23-1.82,0.36
		c-0.57,0.11-1.15,0.22-1.71,0.39c-0.59,0.18-1.16,0.4-1.71,0.67c-0.25,0.12-0.5,0.27-0.74,0.42c-0.27,0.16-0.53,0.34-0.79,0.51
		c-0.5,0.35-0.96,0.74-1.4,1.17c-0.43,0.41-0.84,0.85-1.2,1.33c-0.38,0.5-0.76,1.01-1.08,1.55c-0.16,0.26-0.29,0.53-0.42,0.81
		c-0.12,0.26-0.24,0.52-0.34,0.79c-0.06,0.16-0.11,0.32-0.16,0.48c-0.06,0-0.11,0-0.17,0.01c-0.3,0.02-0.59,0.08-0.87,0.16
		c-0.03,0.01-0.07,0.02-0.1,0.03c-0.29,0.04-0.57,0.1-0.86,0.17c-0.38,0.09-0.76,0.19-1.13,0.32c-0.41,0.15-0.8,0.33-1.18,0.53
		c-0.43,0.23-0.84,0.48-1.24,0.76c-0.38,0.26-0.74,0.54-1.09,0.84c-1.08,0.91-2.07,1.93-2.95,3.03c-0.07,0.08-0.14,0.15-0.21,0.23
		c-0.21,0.23-0.41,0.46-0.6,0.7c-0.26,0.32-0.52,0.63-0.76,0.96c-0.25,0.33-0.49,0.68-0.73,1.02c-0.24,0.36-0.47,0.73-0.7,1.09
		c-0.21,0.34-0.43,0.68-0.63,1.04c-0.22,0.39-0.39,0.8-0.56,1.22c-0.17,0.41-0.35,0.81-0.52,1.21c-0.17,0.4-0.34,0.8-0.5,1.2
		c-0.17,0.43-0.35,0.86-0.51,1.29c-0.12,0.33-0.23,0.66-0.32,1c-0.09,0.36-0.16,0.72-0.24,1.08c-0.18,0.88-0.33,1.77-0.41,2.67
		c-0.07,0.85-0.04,1.71-0.04,2.56c0,0.42,0.01,0.84,0.04,1.27c0.02,0.42,0.04,0.85,0.06,1.27c0.02,0.44,0.06,0.88,0.08,1.32
		c0.02,0.41,0.06,0.82,0.07,1.24c0.01,0.48-0.04,0.96-0.09,1.43c-0.01,0.06-0.01,0.11-0.02,0.17c-0.07,0.33-0.15,0.65-0.23,0.97
		c0-0.02,0.01-0.04,0.01-0.05c-0.2,0.79-0.43,1.58-0.69,2.36c-0.27,0.81-0.54,1.62-0.78,2.44c-0.14,0.46-0.25,0.93-0.37,1.4
		c-0.11,0.45-0.21,0.91-0.29,1.37c-0.08,0.46-0.15,0.93-0.2,1.4c-0.05,0.44-0.09,0.89-0.1,1.33c-0.03,0.94,0,1.88,0.07,2.82
		c0.07,0.92,0.24,1.84,0.5,2.73c0.12,0.43,0.25,0.85,0.4,1.26c0.15,0.41,0.33,0.81,0.53,1.2c0.2,0.4,0.42,0.8,0.64,1.19
		c0.22,0.39,0.44,0.78,0.67,1.17c0.46,0.8,0.95,1.58,1.43,2.36c0.9,1.46,1.78,2.94,2.5,4.5c0.45,1.01,0.84,2.04,1.16,3.1
		c0-0.02-0.01-0.04-0.02-0.05c0.1,0.35,0.2,0.71,0.29,1.07c0.08,0.35,0.15,0.69,0.21,1.04c0.05,0.4,0.09,0.81,0.12,1.22
		c0-0.02,0-0.04,0-0.06c0.08,1.05,0.09,2.1,0.06,3.15l-0.01,0.1c-0.04,0.62-0.09,1.24-0.16,1.86c-0.08,0.71-0.2,1.43-0.3,2.14
		c-0.02,0.17-0.05,0.33-0.07,0.5c-0.08,0.29-0.16,0.59-0.24,0.89c-0.18,0.72-0.34,1.45-0.46,2.19s-0.23,1.47-0.32,2.21
		c-0.09,0.76-0.17,1.52-0.2,2.28c-0.03,0.75-0.03,1.5,0.02,2.25c0.02,0.34,0.06,0.68,0.1,1.02c0,0.43,0.02,0.86,0.05,1.3
		c0.05,0.56,0.12,1.12,0.19,1.67c0.07,0.58,0.17,1.15,0.29,1.72c0.12,0.58,0.25,1.16,0.41,1.74c0.3,1.1,0.73,2.16,1.19,3.2
		c0.47,1.04,0.97,2.08,1.6,3.03c0.31,0.46,0.65,0.9,1.02,1.32c0.07,0.08,0.15,0.17,0.22,0.25c-0.05,0.14-0.09,0.28-0.14,0.41
		c-0.11,0.33-0.23,0.65-0.34,0.98c0,0.01-0.01,0.02-0.01,0.03c0,0,0,0,0,0c-0.06,0.17-0.12,0.34-0.18,0.51
		c-0.07,0.2-0.15,0.4-0.16,0.62C47.97,172.49,47.97,172.5,47.97,172.52L47.97,172.52z M49.37,168.3c-0.17-0.22-0.33-0.44-0.49-0.67
		c-0.16-0.23-0.31-0.47-0.45-0.72c-0.29-0.49-0.55-1-0.81-1.51c-0.25-0.52-0.48-1.04-0.7-1.57c0,0.01,0.01,0.02,0.01,0.03
		c-0.07-0.18-0.15-0.35-0.22-0.53c-0.44-1.12-0.82-2.26-1.16-3.42c-0.1-0.5-0.18-1-0.24-1.5c-0.07-0.57-0.15-1.14-0.21-1.71
		c-0.02-0.32-0.03-0.64-0.04-0.96c0.07,0.26,0.14,0.53,0.22,0.79c0.1,0.35,0.21,0.7,0.34,1.05c0.14,0.51,0.29,1.03,0.45,1.53
		c0.28,0.89,0.67,1.73,1.05,2.58c0.36,0.81,0.76,1.61,1.18,2.39c0.41,0.78,0.87,1.54,1.35,2.27c0.08,0.13,0.17,0.25,0.26,0.38
		c-0.07,0.19-0.13,0.38-0.2,0.57C49.6,167.63,49.49,167.96,49.37,168.3L49.37,168.3z M40.88,124.26c-0.28-0.46-0.54-0.93-0.81-1.4
		c-0.39-0.68-0.77-1.37-1.1-2.08c-0.12-0.27-0.23-0.55-0.34-0.83c-0.1-0.26-0.18-0.53-0.26-0.8c-0.1-0.35-0.19-0.69-0.27-1.04
		c-0.07-0.3-0.12-0.59-0.17-0.89c-0.11-0.77-0.15-1.55-0.17-2.34c0-0.12,0-0.24,0-0.35c0.02,0.28,0.05,0.57,0.08,0.85
		c0.1,0.92,0.3,1.83,0.54,2.72c0.22,0.87,0.47,1.72,0.8,2.56c0.35,0.89,0.73,1.75,1.17,2.6C40.52,123.59,40.7,123.92,40.88,124.26
		L40.88,124.26z M41.03,97.98c0.05-0.88,0.07-1.75,0.1-2.63c0.03-0.91,0.07-1.81,0.16-2.72c0.08-0.69,0.19-1.38,0.3-2.06
		c0.11-0.69,0.24-1.37,0.41-2.05c0.22-0.84,0.49-1.67,0.8-2.48c0.48-1.2,1.02-2.37,1.63-3.5c0.49-0.88,1-1.75,1.59-2.57
		c0,0,0,0.01-0.01,0.01c0,0,0.01-0.01,0.01-0.01c0.01-0.01,0.02-0.02,0.02-0.03c-0.01,0.01-0.01,0.02-0.02,0.03
		c0.05-0.06,0.1-0.13,0.14-0.19c0.01-0.01,0.02-0.02,0.02-0.03c0.19-0.25,0.38-0.5,0.57-0.74c0.08-0.09,0.17-0.19,0.25-0.28
		c0.21-0.22,0.43-0.43,0.66-0.64c-0.4,0.51-0.77,1.04-1.13,1.58c-0.52,0.79-1.04,1.58-1.47,2.43c-0.21,0.42-0.41,0.85-0.59,1.28
		c-0.18,0.44-0.36,0.88-0.53,1.33c-0.66,1.73-1.15,3.52-1.51,5.34c-0.18,0.91-0.31,1.82-0.45,2.74c-0.14,0.92-0.3,1.84-0.47,2.75
		c0-0.02,0.01-0.04,0.01-0.05C41.37,96.3,41.21,97.14,41.03,97.98L41.03,97.98z M108.76,76.02c0.07,0.09,0.14,0.18,0.22,0.27
		c0.47,0.58,0.96,1.15,1.46,1.71c0.48,0.54,0.95,1.08,1.47,1.58c0.56,0.54,1.15,1.04,1.75,1.53c0.58,0.47,1.18,0.93,1.77,1.4
		c0.6,0.49,1.18,0.99,1.75,1.51c-0.01-0.01-0.03-0.02-0.04-0.04c0.31,0.3,0.62,0.59,0.92,0.9c0.27,0.28,0.52,0.58,0.76,0.88
		c0.22,0.27,0.44,0.55,0.64,0.83c0.2,0.28,0.38,0.57,0.56,0.86c0,0,0-0.01,0-0.01c0.21,0.34,0.41,0.69,0.61,1.04
		c0.14,0.25,0.27,0.5,0.39,0.76c-0.53-0.7-1.08-1.38-1.65-2.04c-0.31-0.36-0.63-0.72-0.96-1.07c-0.31-0.34-0.63-0.67-0.96-0.98
		c-0.71-0.66-1.47-1.25-2.27-1.79c-0.4-0.27-0.8-0.52-1.21-0.77c-0.06-0.04-0.12-0.07-0.18-0.11c-0.18-0.15-0.37-0.31-0.55-0.46
		c0,0,0,0,0,0c-0.18-0.16-0.36-0.31-0.54-0.48c-0.15-0.14-0.31-0.28-0.45-0.43c0,0,0,0,0,0c-0.03-0.03-0.05-0.05-0.08-0.08
		c0.01,0.01,0.02,0.03,0.04,0.04c-0.32-0.35-0.63-0.73-0.91-1.12c-0.25-0.35-0.48-0.72-0.7-1.09c-0.23-0.39-0.47-0.77-0.73-1.15
		c-0.32-0.47-0.63-0.95-0.94-1.43C108.87,76.2,108.82,76.11,108.76,76.02L108.76,76.02z M124.44,110.02
		c-0.02,0.26-0.05,0.53-0.08,0.79v0c-0.05,0.38-0.09,0.77-0.16,1.15c-0.06,0.38-0.14,0.76-0.23,1.14c-0.14,0.56-0.3,1.13-0.47,1.68
		c-0.19,0.57-0.39,1.14-0.6,1.7c-0.42,1.07-0.86,2.13-1.4,3.14c-0.23,0.42-0.47,0.83-0.72,1.23c-0.26,0.41-0.53,0.8-0.81,1.19
		c0,0,0,0,0-0.01c0,0,0,0,0,0.01c-0.01,0.01-0.02,0.02-0.02,0.03c0.01-0.01,0.01-0.02,0.02-0.03c-0.38,0.52-0.77,1.03-1.18,1.52
		c-0.12,0.14-0.23,0.28-0.35,0.42c-0.16-0.44-0.32-0.88-0.48-1.32c0.11-0.1,0.22-0.2,0.33-0.31c0.31-0.31,0.61-0.63,0.9-0.96
		c0,0,0,0,0.01-0.01c0,0,0,0,0,0c0,0,0,0,0,0c0,0,0-0.01,0.01-0.01c0.01-0.01,0.01-0.01,0.02-0.02c0,0,0,0,0,0c0,0,0,0,0,0
		c0.57-0.68,1.09-1.4,1.57-2.14c-0.01,0.01-0.02,0.03-0.03,0.05c0.28-0.44,0.54-0.91,0.79-1.37c0.23-0.43,0.46-0.87,0.67-1.31
		c0.4-0.83,0.75-1.7,1.08-2.57c0.34-0.91,0.64-1.84,0.87-2.78C124.26,110.84,124.35,110.43,124.44,110.02L124.44,110.02z
		 M104.88,125.46c0.75,0.44,1.5,0.88,2.25,1.33c1.54,0.94,3.04,1.93,4.48,3c0.72,0.53,1.44,1.08,2.12,1.66
		c0.69,0.59,1.36,1.2,2.04,1.8c0.7,0.62,1.39,1.25,2.08,1.89c0.65,0.6,1.27,1.24,1.88,1.88c0.42,0.43,0.83,0.87,1.23,1.32
		c-0.11-0.29-0.21-0.58-0.32-0.87c-0.19-0.52-0.36-1.04-0.53-1.57c-0.35-1.1-0.74-2.18-1.11-3.27c-0.38-1.11-0.74-2.23-1.08-3.35
		c-0.34-1.11-0.64-2.24-0.96-3.36c-0.32-1.14-0.64-2.29-0.97-3.43c-0.32-1.09-0.65-2.19-0.99-3.28c-0.03-0.08-0.06-0.16-0.09-0.24
		c-0.29-0.8-0.6-1.6-0.89-2.4c0,0,0,0.01,0,0.01c-0.25-0.7-0.49-1.41-0.73-2.11c-0.25-0.74-0.49-1.47-0.74-2.21
		c-0.2-0.61-0.4-1.22-0.57-1.83c-0.01-0.03-0.02-0.06-0.02-0.09c-0.07,0.02-0.13,0.04-0.2,0.06c-0.37,0.11-0.75,0.19-1.13,0.24
		c-0.15,0.02-0.31,0.03-0.46,0.03c-0.23,0-0.45-0.02-0.67-0.05c-0.37-0.05-0.72-0.16-1.06-0.3c-0.47-0.19-0.89-0.49-1.27-0.83
		c-0.18-0.16-0.34-0.34-0.5-0.53c-0.07-0.09-0.14-0.19-0.21-0.28c-0.06-0.06-0.11-0.13-0.15-0.21c-0.06-0.12-0.1-0.25-0.07-0.39
		c0.02-0.1,0.09-0.2,0.19-0.24c0.11-0.04,0.25-0.03,0.33,0.06c0.02,0.02,0.04,0.05,0.05,0.07c0.09,0.04,0.16,0.11,0.22,0.19
		c0.01,0.01,0.03,0.02,0.04,0.03c0.08,0.05,0.16,0.09,0.24,0.13c0.11,0.05,0.22,0.09,0.34,0.13c0.26,0.08,0.52,0.15,0.79,0.2
		c0.22,0.04,0.43,0.06,0.65,0.07c0.17,0.01,0.33,0,0.49-0.01c0.18-0.02,0.35-0.04,0.52-0.08c0.26-0.06,0.52-0.13,0.77-0.22
		c0.11-0.04,0.22-0.09,0.32-0.14c0.08-0.05,0.17-0.1,0.25-0.15c0.01-0.01,0.02-0.01,0.03-0.02c0.02-0.01,0.03-0.02,0.05-0.04
		c-0.01,0.01-0.02,0.01-0.03,0.02c0.1-0.07,0.2-0.16,0.3-0.24c0.21-0.2,0.41-0.42,0.61-0.64c0.22-0.27,0.42-0.54,0.6-0.83
		c0.23-0.37,0.44-0.76,0.63-1.16c0.34-0.73,0.63-1.5,0.88-2.26c0.14-0.46,0.26-0.92,0.35-1.39c0.08-0.42,0.12-0.84,0.17-1.26
		c0.05-0.41,0.08-0.83,0.11-1.24c0.01-0.23,0.01-0.46,0.02-0.69c0-0.13,0-0.27,0-0.4c-0.42-0.23-0.85-0.45-1.29-0.64
		c-0.5-0.21-1.01-0.4-1.53-0.55c-0.29-0.07-0.59-0.12-0.89-0.17c-0.72-0.09-1.45-0.12-2.18-0.12c-0.28,0-0.57,0.02-0.85,0.03
		c-0.29,0.02-0.58,0.05-0.88,0.08c-0.63,0.06-1.25,0.12-1.87,0.21c0.02,0,0.04,0,0.05-0.01c-0.49,0.08-0.99,0.16-1.48,0.25
		c-0.49,0.09-0.98,0.18-1.48,0.25c0,0,0,0,0,0c0,0,0,0,0,0c0,0,0,0,0,0c0,0,0,0,0,0c-1.3,0.19-2.6,0.35-3.91,0.43
		c-1.26,0.07-2.52,0.06-3.78-0.01c-0.64-0.03-1.27-0.07-1.9-0.13c-0.63-0.06-1.25-0.14-1.88-0.23c-0.63-0.09-1.25-0.2-1.88-0.32
		c-0.63-0.12-1.26-0.25-1.88-0.4c-0.64-0.16-1.28-0.34-1.92-0.53c-0.62-0.18-1.24-0.35-1.84-0.56c-0.58-0.2-1.15-0.43-1.71-0.68
		c-0.15-0.07-0.3-0.13-0.45-0.2c-0.24-0.1-0.49-0.2-0.72-0.31c-0.15-0.07-0.3-0.14-0.45-0.22c-0.05-0.03-0.1-0.05-0.15-0.08
		c0,0,0.01,0,0.01,0c-0.04-0.02-0.07-0.03-0.1-0.05c-0.06-0.03-0.12-0.07-0.19-0.1c-0.15-0.08-0.29-0.16-0.44-0.25
		c-0.14-0.08-0.28-0.15-0.41-0.22c-0.21-0.11-0.41-0.22-0.62-0.33c-0.18-0.11-0.36-0.22-0.55-0.32c-0.05-0.03-0.1-0.06-0.15-0.09
		c-0.08-0.05-0.15-0.09-0.23-0.14c0-0.01,0-0.01,0-0.02c-0.28-0.18-0.55-0.36-0.83-0.55c-0.51-0.34-1.01-0.69-1.51-1.05
		c-0.5-0.36-0.99-0.75-1.46-1.16c-0.09-0.07-0.17-0.15-0.26-0.22c-0.16,0.05-0.31,0.1-0.47,0.15c-0.22,0.08-0.44,0.16-0.66,0.25
		c0.01,0,0.03-0.01,0.04-0.02c-0.18,0.08-0.36,0.16-0.54,0.24c-0.03,0.02-0.06,0.03-0.09,0.05c-0.14,0.09-0.28,0.18-0.41,0.27
		c-0.24,0.15-0.47,0.3-0.71,0.46c-0.04,0.04-0.09,0.07-0.13,0.11c-0.56,0.47-1.13,0.94-1.7,1.41c-0.55,0.46-1.1,0.91-1.71,1.28
		c-0.16,0.1-0.32,0.19-0.49,0.26c-0.15,0.07-0.32,0.12-0.48,0.17c-0.15,0.04-0.31,0.08-0.46,0.08c-0.08,0-0.15-0.01-0.23-0.03
		c-0.1-0.03-0.21-0.08-0.29-0.14c-0.07-0.02-0.13-0.05-0.2-0.08c-0.11-0.05-0.21-0.1-0.3-0.17c-0.1-0.07-0.19-0.18-0.21-0.3
		c-0.02-0.12,0.03-0.24,0.11-0.31c0.03-0.09,0.08-0.16,0.14-0.24c0.06-0.08,0.13-0.15,0.2-0.23c0.16-0.17,0.34-0.34,0.52-0.49
		c0.29-0.26,0.61-0.5,0.92-0.73c0.32-0.31,0.65-0.59,0.99-0.86c0.47-0.38,0.95-0.74,1.45-1.09c0,0,0,0,0,0
		c0.02-0.01,0.03-0.02,0.05-0.04c0,0-0.01,0-0.01,0.01c0.3-0.21,0.6-0.42,0.91-0.61c0.3-0.19,0.6-0.36,0.92-0.52
		c0.32-0.17,0.65-0.32,0.99-0.46c0.03-0.01,0.06-0.02,0.09-0.04c-0.28-0.28-0.55-0.57-0.82-0.86c-0.1-0.11-0.2-0.23-0.3-0.34
		c-0.4-0.4-0.79-0.82-1.16-1.25c-0.48-0.55-0.94-1.12-1.39-1.7c-0.47-0.6-0.9-1.22-1.35-1.83c-0.02-0.03-0.04-0.06-0.06-0.09
		c0,0,0,0,0,0c0,0,0,0,0,0c-0.01-0.01-0.02-0.03-0.03-0.04c0.01,0.01,0.01,0.02,0.02,0.03c-0.34-0.47-0.7-0.92-1.07-1.36
		c-0.39-0.46-0.78-0.91-1.19-1.35c0.01,0.01,0.01,0.01,0.02,0.02c-0.01-0.01-0.02-0.02-0.03-0.03c0,0,0,0,0,0c0,0,0,0,0,0
		c-0.34-0.36-0.7-0.7-1.07-1.02c-0.41-0.33-0.83-0.63-1.27-0.91c-0.39-0.24-0.78-0.46-1.2-0.65c-0.32-0.14-0.65-0.25-0.99-0.36
		c0.01,0,0.02,0.01,0.04,0.01c-0.25-0.07-0.51-0.13-0.77-0.18c-0.22-0.03-0.44-0.06-0.66-0.07c-0.43-0.01-0.87,0.02-1.3,0.06
		c0.02,0,0.04,0,0.06-0.01c-0.32,0.03-0.64,0.08-0.96,0.14c-0.06,0.21-0.14,0.42-0.22,0.63c-0.11,0.28-0.24,0.57-0.38,0.84
		c-0.14,0.27-0.31,0.52-0.47,0.78c-0.15,0.23-0.3,0.45-0.46,0.68c-0.34,0.47-0.71,0.92-1.08,1.36c-0.46,0.55-0.94,1.07-1.4,1.62
		c0.01-0.01,0.02-0.02,0.03-0.03c-0.37,0.45-0.74,0.9-1.09,1.36c-0.36,0.47-0.69,0.95-1.01,1.45c-0.31,0.49-0.61,0.98-0.9,1.48
		c-0.27,0.47-0.54,0.94-0.78,1.43c-0.19,0.4-0.37,0.8-0.53,1.22c-0.17,0.43-0.33,0.86-0.47,1.3c0-0.01,0-0.01,0.01-0.02
		c-0.09,0.28-0.17,0.56-0.24,0.84c-0.07,0.28-0.13,0.56-0.19,0.84c-0.07,0.38-0.13,0.76-0.18,1.15c-0.05,0.4-0.08,0.81-0.11,1.21
		c-0.02,0.33-0.03,0.67-0.03,1c0,0.32,0,0.65,0.01,0.97c0.03,0.33,0.08,0.67,0.13,1c0.05,0.34,0.11,0.68,0.16,1.03
		c0.11,0.69,0.25,1.38,0.39,2.07c0-0.01-0.01-0.03-0.01-0.04c0.1,0.48,0.22,0.96,0.35,1.43c0.12,0.45,0.27,0.9,0.42,1.34
		c0,0,0,0,0,0c0,0,0,0,0,0v0c0,0,0,0,0,0c0,0,0,0,0,0c0,0,0,0,0,0v0c0,0,0,0,0,0v0c0,0.01,0,0.01,0.01,0.02c0,0,0,0,0,0v0
		c0,0,0,0,0,0c0,0,0,0,0,0s0,0,0,0c0,0,0,0,0,0c0,0,0,0,0,0v0c0.37,1.02,0.77,2.02,1.17,3.02c0.11-0.16,0.22-0.31,0.34-0.46
		c0.19-0.24,0.4-0.46,0.62-0.68c0.26-0.25,0.52-0.5,0.78-0.75c0.12-0.11,0.24-0.22,0.36-0.33c0.48-0.49,0.99-0.95,1.52-1.39
		c0.57-0.47,1.17-0.9,1.81-1.27c0.33-0.19,0.67-0.37,1.02-0.5c0.05-0.02,0.1-0.03,0.14-0.05c0.11-0.07,0.23-0.14,0.34-0.21
		c0.15-0.09,0.3-0.17,0.45-0.26c0.12-0.06,0.24-0.14,0.37-0.17c0.01,0,0.02,0,0.03-0.01c0.09-0.07,0.2-0.11,0.32-0.07
		c0.02,0.01,0.04,0.02,0.06,0.03c0.04,0,0.07,0.02,0.1,0.03c0.09,0.05,0.14,0.13,0.18,0.22c0.06,0.15,0.05,0.33,0.04,0.49
		c-0.01,0.12-0.04,0.23-0.07,0.35c0,0.04,0,0.09,0,0.13c-0.01,0.11-0.05,0.22-0.1,0.32c-0.05,0.11-0.12,0.2-0.19,0.29
		c-0.11,0.15-0.25,0.28-0.38,0.4c-0.39,0.36-0.82,0.66-1.27,0.95c-0.55,0.43-1.12,0.83-1.69,1.22c-0.24,0.16-0.48,0.32-0.73,0.48
		c-0.22,0.19-0.43,0.39-0.64,0.59c-0.24,0.23-0.47,0.46-0.69,0.7c-0.21,0.23-0.41,0.46-0.6,0.7c-0.15,0.19-0.28,0.38-0.41,0.57
		c-0.19,0.31-0.37,0.63-0.54,0.94c-0.03,0.05-0.06,0.11-0.09,0.16c0.21,0.44,0.41,0.89,0.62,1.33c0.31,0.66,0.62,1.32,0.94,1.98
		c0.02,0.01,0.04,0.01,0.06,0.02c0.01,0.02,0.02,0.05,0.03,0.07c0.06,0.16,0.13,0.32,0.2,0.47c0.07,0.17,0.14,0.33,0.22,0.49
		c0,0,0,0,0,0c0.04,0.08,0.08,0.17,0.12,0.26c0.01,0.03,0.03,0.05,0.04,0.08c0,0,0,0,0.01,0c0.01,0.02,0.02,0.03,0.03,0.05
		c0,0,0,0,0-0.01c0,0,0,0,0,0c0,0,0,0,0,0c0.04,0.07,0.08,0.15,0.11,0.22c0-0.01-0.01-0.01-0.01-0.02c0.07,0.13,0.14,0.26,0.22,0.39
		c-0.02,0-0.04,0-0.05,0c0.14,0.3,0.27,0.6,0.4,0.9c0.23,0.51,0.44,1.03,0.64,1.55c0.19,0.5,0.34,1,0.49,1.51
		c0.15,0.54,0.29,1.08,0.42,1.62c0.13,0.54,0.25,1.08,0.38,1.62c0.14,0.56,0.31,1.11,0.5,1.66c0.14,0.38,0.29,0.76,0.45,1.13
		c0.17,0.38,0.36,0.76,0.55,1.13c0.18,0.34,0.36,0.67,0.56,1c0.21,0.34,0.43,0.68,0.66,1c0.27,0.38,0.56,0.76,0.85,1.13
		c0.29,0.36,0.6,0.71,0.91,1.05c0,0,0,0,0,0c0,0,0,0,0,0c0,0,0,0,0,0c0,0,0,0,0,0c0,0,0.01,0.01,0.01,0.01c0,0,0,0,0,0c0,0,0,0,0,0
		c0,0,0,0,0.01,0.01c0,0,0,0,0.01,0.01c0,0,0,0,0,0c0.34,0.36,0.68,0.72,1.04,1.06c0.35,0.34,0.71,0.66,1.08,0.97
		c0.43,0.36,0.87,0.7,1.32,1.02c0.43,0.31,0.85,0.62,1.28,0.93c0.44,0.32,0.86,0.65,1.3,0.97c0.22,0.16,0.44,0.31,0.66,0.46
		c0.19,0.13,0.39,0.27,0.58,0.39c0.34,0.22,0.69,0.44,1.04,0.65c0.11,0.07,0.23,0.14,0.34,0.21c0.11,0.07,0.23,0.13,0.32,0.21
		c0.03,0.03,0.05,0.07,0.07,0.1c0.41-0.59,0.82-1.17,1.25-1.75c0.6-0.82,1.21-1.63,1.84-2.43c0.34-0.43,0.69-0.85,1.04-1.26
		c0.33-0.39,0.67-0.78,1.01-1.16c0.71-0.78,1.45-1.52,2.24-2.22c0.4-0.35,0.81-0.68,1.23-1.01c0.42-0.32,0.84-0.64,1.28-0.94
		c0.56-0.39,1.13-0.76,1.7-1.12c1.43-0.9,3.07-1.73,4.7-2.29C91.33,119.93,99.48,122.34,104.88,125.46L104.88,125.46z M61.92,112.39
		C61.93,112.39,61.93,112.39,61.92,112.39c0.01-0.01,0.01-0.02,0.01-0.03c0-0.02,0-0.04-0.01-0.06
		C61.92,112.34,61.92,112.36,61.92,112.39L61.92,112.39z M121.22,116.66c0.09-0.18,0.18-0.36,0.27-0.55l-0.02,0.03l0,0
		C121.39,116.32,121.31,116.49,121.22,116.66L121.22,116.66z M45.28,115.58c-0.06-0.14-0.11-0.28-0.16-0.43l0,0.01l0,0
		C45.17,115.3,45.22,115.44,45.28,115.58L45.28,115.58z M108.6,109.52c-0.03-0.02-0.07-0.03-0.1-0.05c0.06,0.01,0.12,0.02,0.18,0.02
		c0,0.02,0,0.04,0,0.06C108.65,109.54,108.63,109.53,108.6,109.52L108.6,109.52z M43.22,90.49C43.22,90.48,43.22,90.48,43.22,90.49
		C43.22,90.48,43.22,90.48,43.22,90.49c0.05-0.26,0.1-0.51,0.15-0.76c-0.05,0.26-0.11,0.52-0.16,0.78l0-0.01
		C43.22,90.5,43.22,90.49,43.22,90.49L43.22,90.49C43.22,90.49,43.22,90.49,43.22,90.49z M124.64,125.93
		c-0.11-0.18-0.18-0.37-0.23-0.57c-0.08-0.42-0.04-0.85,0.12-1.25c0.13-0.33,0.35-0.63,0.67-0.8c0.23-0.12,0.51-0.21,0.77-0.18
		c0.01,0,0.03,0,0.04,0c0.14-0.36,0.27-0.72,0.39-1.08c0.17-0.52,0.32-1.03,0.45-1.56c-0.04-0.04-0.07-0.07-0.11-0.11
		c-0.16-0.18-0.25-0.39-0.28-0.63c-0.03-0.31,0.03-0.66,0.24-0.91c0.01-0.04,0.03-0.08,0.05-0.12c0.08-0.13,0.18-0.25,0.31-0.33
		c0.07-0.04,0.15-0.08,0.22-0.11c0.11-0.8,0.19-1.6,0.24-2.41c0.07-1.55,0-3.1-0.11-4.65c0,0.03,0,0.05,0.01,0.08
		c-0.08-1-0.18-2-0.33-2.99c-0.15-1.01-0.32-2.02-0.53-3.03c-0.03-0.14-0.06-0.27-0.08-0.41c0.01,0.02,0.01,0.05,0.02,0.07
		c-0.03-0.15-0.07-0.3-0.1-0.45c0.01,0.03,0.01,0.05,0.02,0.08c-0.44-2.01-1-3.98-1.68-5.92c-0.04-0.1-0.07-0.21-0.11-0.31
		c0.01,0.02,0.02,0.05,0.03,0.07c-0.35-0.95-0.72-1.89-1.1-2.83c-0.38-0.92-0.78-1.83-1.22-2.73c-0.06-0.12-0.12-0.25-0.19-0.37
		c-0.06-0.12-0.12-0.23-0.19-0.34c-0.03-0.06-0.06-0.11-0.09-0.17c-0.04-0.07-0.08-0.14-0.1-0.21c-0.08-0.3,0.16-0.58,0.47-0.56
		c0.28,0.02,0.47,0.31,0.61,0.52c0.13,0.19,0.25,0.4,0.36,0.6c0.24,0.45,0.47,0.9,0.68,1.36c0.43,0.92,0.84,1.85,1.22,2.79
		c0.38,0.95,0.72,1.91,1.05,2.87c0.33,0.97,0.62,1.96,0.88,2.95c0.5,1.98,0.93,3.98,1.21,6.01c0.27,2.04,0.45,4.1,0.45,6.15
		c0,1.3-0.08,2.61-0.26,3.9c0.09,0.05,0.19,0.1,0.27,0.17c0.18,0.14,0.3,0.32,0.38,0.53c0.1,0.3,0.13,0.65,0.01,0.95
		c-0.13,0.31-0.37,0.56-0.66,0.72c-0.15,0.09-0.32,0.15-0.5,0.17c-0.22,0.86-0.5,1.71-0.81,2.54c0.17,0.11,0.32,0.24,0.45,0.4
		c0.23,0.29,0.37,0.67,0.36,1.04c-0.01,0.41-0.17,0.8-0.42,1.12c-0.15,0.2-0.34,0.38-0.56,0.51c-0.22,0.13-0.49,0.21-0.74,0.25
		c-0.06,0.01-0.11,0.01-0.17,0.01c-0.18,0-0.36-0.04-0.52-0.11c-0.18,0.29-0.38,0.58-0.58,0.86c-0.28,0.4-0.59,0.79-0.91,1.16
		c-0.62,0.72-1.31,1.37-2.05,1.97c-0.26,0.21-0.54,0.41-0.81,0.61c-0.11,0.08-0.22,0.15-0.33,0.23c-0.16,0.11-0.32,0.21-0.51,0.26
		c-0.05,0.01-0.1,0.02-0.14,0.02c-0.18,0-0.36-0.08-0.46-0.25c-0.13-0.21-0.09-0.46,0.07-0.65c0.13-0.15,0.3-0.25,0.47-0.35
		c0.11-0.07,0.22-0.15,0.32-0.22c0.54-0.39,1.06-0.81,1.56-1.26c0.41-0.38,0.79-0.79,1.15-1.21c0.46-0.55,0.87-1.13,1.26-1.74
		C124.58,126.03,124.61,125.98,124.64,125.93L124.64,125.93z M48.82,169.89c-0.13-0.03-0.26-0.06-0.38-0.11
		c-0.12-0.05-0.24-0.11-0.36-0.17c-0.23-0.12-0.45-0.25-0.67-0.39c-0.44-0.28-0.84-0.61-1.23-0.95c-0.4-0.34-0.77-0.72-1.13-1.09
		c-0.37-0.38-0.72-0.79-1.05-1.2c-0.38-0.47-0.71-0.98-1.03-1.49c-0.33-0.54-0.65-1.08-0.95-1.64c0.01,0.02,0.02,0.04,0.04,0.07
		c-0.01-0.02-0.02-0.04-0.03-0.06c-0.03-0.05-0.06-0.1-0.08-0.15c-0.01-0.01-0.01-0.02-0.02-0.03c0-0.01-0.01-0.02-0.01-0.02
		c-0.24-0.46-0.45-0.92-0.66-1.39c-0.22-0.48-0.42-0.97-0.59-1.47c-0.18-0.51-0.33-1.02-0.44-1.55c-0.11-0.5-0.18-1.02-0.24-1.53
		c-0.13-1.04-0.19-2.08-0.21-3.13c-0.01-0.98,0.04-1.96,0.11-2.94l-0.02-0.01c-0.07-0.02-0.14-0.05-0.2-0.09
		c-0.08-0.03-0.16-0.08-0.24-0.12l-0.01,0c-0.06-0.03-0.12-0.06-0.17-0.1c-0.08-0.06-0.14-0.14-0.2-0.22
		c-0.11-0.12-0.19-0.26-0.24-0.42c-0.06-0.23-0.07-0.46,0.02-0.68c0.01-0.02,0.01-0.04,0.02-0.05c0.07-0.41,0.28-0.78,0.59-1.05
		c0.14-0.12,0.29-0.2,0.47-0.24c0.09-0.02,0.18-0.02,0.26,0.01c0.01-0.09,0.03-0.18,0.04-0.28c0.08-0.52,0.19-1.03,0.3-1.54
		c0.09-0.43,0.19-0.85,0.3-1.28c-0.04-0.03-0.08-0.07-0.12-0.11c-0.18-0.2-0.31-0.47-0.3-0.74c-0.01-0.16,0.03-0.32,0.11-0.46
		c0.04-0.09,0.09-0.17,0.15-0.24c0.15-0.19,0.41-0.36,0.66-0.36c0.1-0.38,0.21-0.76,0.31-1.13c0.27-0.95,0.54-1.9,0.79-2.85
		c0.17-0.67,0.33-1.34,0.46-2.02c0,0.02-0.01,0.05-0.01,0.07c0.09-0.51,0.18-1.02,0.24-1.53c0.06-0.5,0.1-1.01,0.12-1.51
		c0.05-1.03-0.01-2.07-0.09-3.1c0,0.02,0,0.05,0.01,0.08c-0.07-0.86-0.14-1.71-0.26-2.56c-0.11-0.84-0.28-1.68-0.45-2.51
		c-0.22-1-0.49-1.99-0.79-2.97c-0.15-0.47-0.3-0.94-0.46-1.41c-0.08-0.23-0.16-0.45-0.24-0.68c-0.06-0.18-0.12-0.37-0.16-0.57
		c-0.02-0.1-0.01-0.2,0.04-0.29c0.07-0.13,0.23-0.22,0.38-0.2c0.15,0.02,0.24,0.11,0.31,0.23c0.19,0.36,0.33,0.74,0.48,1.12
		c0.19,0.49,0.36,0.98,0.53,1.47c0.34,0.98,0.64,1.97,0.89,2.97c0.25,1,0.45,2.01,0.6,3.03c0.15,1.02,0.25,2.05,0.31,3.08
		c0.03,0.5,0.05,1,0.05,1.5c0,0.51-0.03,1.02-0.07,1.53c-0.07,1.05-0.24,2.09-0.46,3.12c-0.2,0.95-0.46,1.88-0.72,2.81
		c-0.26,0.92-0.52,1.85-0.77,2.77c0.09,0.11,0.16,0.25,0.19,0.38c0.05,0.22,0.04,0.45-0.05,0.65c-0.09,0.21-0.25,0.37-0.44,0.49
		c-0.04,0.02-0.08,0.04-0.11,0.06c-0.19,0.78-0.37,1.56-0.52,2.35c-0.06,0.34-0.11,0.67-0.16,1.01c0.01,0.01,0.02,0.02,0.03,0.02
		c0.06,0.04,0.12,0.09,0.17,0.13c0.18,0.16,0.29,0.36,0.37,0.59c0.07,0.22,0.06,0.46,0.01,0.68c-0.1,0.44-0.41,0.83-0.8,1.05
		l-0.01,0.01c-0.02,0.33-0.04,0.66-0.06,0.99c0-0.02,0-0.04,0-0.05c-0.03,0.64-0.06,1.29-0.06,1.94c0,0.65,0.03,1.31,0.08,1.96
		c0.08,0.92,0.18,1.83,0.37,2.74c0.1,0.45,0.24,0.89,0.39,1.33c0.34,0.92,0.73,1.83,1.19,2.7c-0.01-0.02-0.02-0.04-0.04-0.07
		c0.01,0.02,0.02,0.04,0.03,0.07c0.03,0.05,0.06,0.1,0.08,0.15c0,0,0,0.01,0.01,0.01c0,0.01,0.01,0.02,0.02,0.03
		c0.45,0.83,0.93,1.63,1.46,2.41c0.49,0.68,1.04,1.31,1.6,1.93c-0.02-0.02-0.03-0.04-0.05-0.05c0.38,0.4,0.77,0.79,1.19,1.15
		c0.29,0.24,0.59,0.46,0.91,0.66c0.15,0.1,0.31,0.19,0.47,0.28c0.21,0.11,0.4,0.23,0.59,0.37c0.17,0.12,0.23,0.35,0.15,0.54
		c-0.07,0.18-0.25,0.29-0.43,0.29C48.9,169.9,48.86,169.9,48.82,169.89z"/>
</g>
</svg>
