<?xml version="1.0" encoding="utf-8"?>
<!-- Generator: Adobe Illustrator 27.8.1, SVG Export Plug-In . SVG Version: 6.00 Build 0)  -->
<svg version="1.1" id="Layer_1" xmlns="http://www.w3.org/2000/svg" xmlns:xlink="http://www.w3.org/1999/xlink" x="0px" y="0px"
	 viewBox="0 0 243 160" style="enable-background:new 0 0 243 160;" xml:space="preserve">
<style type="text/css">
	.st0{fill:#26BCBC;}
</style>
<path class="st0" d="M79.9,74.8c3.6,10.1,0.7,18.5-6.4,25.9c-0.1,0-0.1,0-0.2-0.1c0.1-0.2,0.2-0.4,0.3-0.6c2.3-3.8,3.9-7.9,4.6-12.4
	c0.2-1,0.1-1-0.8-1.4c-1.2-0.5-2.5-0.5-3.8-0.2c-2.2,0.6-4.3,1.5-6.3,2.5c-2.4,1.3-3.5,3.3-3.9,5.8c0,0.1,0,0.2,0,0.3
	c0,0,0,0-0.2,0.2c0.2-1.4,0.3-2.7,0.5-3.9c0.1-0.7,0.3-1.4,0.4-2.1c0.3-1.5,1.1-2.5,2.5-3.2c2.7-1.2,5.6-1.9,8.6-1.4
	c0.8,0.1,1.6,0.4,2.3,0.7c0.2,0.1,0.5,0.2,0.9,0.3c0-0.6,0-1.2,0-1.7c-0.1-2.8-0.5-5.5-1.6-8.1c-1.9-4.2-5.5-5.9-10-4.6
	c-1.7,0.5-3.5,1.1-5.2,1.5c-4.2,1-7.8-0.5-10.1-4.2c-1.5-2.5-1.1-5.2,1.1-7.3c1.9-1.9,4.4-2.8,7.1-2.8c0.6,0,1.2,0,2,0
	c-2-0.9-5.3-0.7-7.5,0.6c-2.3,1.4-3.8,3.4-4.9,5.9c-0.5-0.6-0.9-1.2-1.3-1.8c-0.1-0.2,0-0.5,0.2-0.7c2.4-3.5,5.6-5.8,9.8-6.8
	c5.1-1.1,9.8-0.1,14.3,2.3c6.3,3.4,11,8.4,13.2,15.4c2.1,6.8,1.3,13.3-2.4,19.4c-1.5,2.4-4.6,5.3-6.9,6.2c3.3-3.1,5.6-6.9,6.4-11.4
	C83.3,83,82.3,78.7,79.9,74.8z M71,55.8c4.4,2,7.9,5.1,10.8,8.8c3.6,4.7,5.6,9.9,5.6,15.8c0,4.5-1.1,8.8-3.3,12.8
	c-0.1,0.2-0.2,0.4-0.3,0.7c0.2-0.1,0.3-0.1,0.3-0.2c0.2-0.2,0.4-0.3,0.6-0.5c4.9-5,7-10.9,6-17.8c-0.9-6-3.8-11-8.2-15.1
	c-0.2-0.2-0.3-0.3-0.5-0.5c8.4,4.4,11.6,11.6,10.6,20.8c0.3-0.7,0.5-1.4,0.7-2c1.5-5.5,0.9-10.8-2.3-15.7c-2.1-3.2-5-5.8-8.3-7.8
	c-6.2-3.8-12.8-4.2-19.6-1.8c-0.3,0.1-0.6,0.3-0.8,0.4C65.4,53.9,68.3,54.5,71,55.8z M23.9,101c3.4,5.1,8.1,8.3,14,9.8
	c0.4,0.1,0.8,0.3,1-0.2c0.1-0.5,0-0.8-0.5-1.1c-2-0.9-3.9-2.1-5.5-3.6c-4.3-3.7-6.9-8.3-6.8-14.1c0-1.6,0.1-3.3,0.1-4.9
	c0-0.2-0.2-0.5-0.2-0.7c-0.2,0.1-0.5,0.2-0.6,0.3c-0.7,1-1.5,1.9-2.2,3c-2.8,4.4-4.2,9.2-3.4,14.5c0.7,4.5,2.6,8.4,5.8,11.7
	c5.3,5.5,11.7,8.2,19.4,7.1c2.6-0.4,5.1-1.2,7.5-2.5c0.3-0.2,0.6-0.4,0.5-0.8c-0.2-0.4-0.5-0.4-0.9-0.3c-3.4,0.9-6.9,1.2-10.4,0.6
	c-5.8-1-10.7-3.5-14.4-8.1c-2.5-3.2-3.8-6.9-3.7-11C23.7,100.7,23.8,100.8,23.9,101z M97.4,100.7c0,0.2,0,0.5,0,0.7
	c-0.4,4.3-1.9,8.1-4.8,11.3c-4.3,4.8-9.9,6.9-16.2,7.2c-2.4,0.1-4.8-0.2-7.2-0.8c-0.4-0.1-0.8-0.2-0.9,0.3c0,0.2,0.2,0.6,0.3,0.7
	c4.5,2.4,9.3,3.5,14.3,2.4c5.7-1.2,10.3-4.3,13.8-8.9c3.9-5.1,5.4-10.9,4.1-17.3c-0.7-3.8-2.7-6.9-5-9.9c-0.2-0.2-0.5-0.2-0.7-0.3
	c-0.1,0.2-0.3,0.5-0.2,0.7c0,1.1,0.2,2.3,0.2,3.4c0,3.2-0.4,6.4-1.9,9.3c-2.4,4.5-5.9,7.7-10.5,9.7c-0.5,0.2-0.7,0.6-0.5,1.1
	c0.2,0.5,0.6,0.4,1.1,0.3c3.4-0.9,6.5-2.5,9.3-4.8c1.9-1.5,3.5-3.4,4.8-5.7C97.4,100.5,97.4,100.6,97.4,100.7z M44.5,77.2
	c5-2.9,6.1-9.7,2.2-13.6c-3-3-8.7-4.4-13.2-0.8c-2.8,2.3-4.1,5.1-3.4,8.7c0.9,4.3,4.5,7.1,9.1,7.1C41.1,78.7,42.8,78.2,44.5,77.2z
	 M36.1,69.5c0.7,2.2,2.3,3.3,4.6,3.3c-1.5,1.2-4.1,0.9-5.7-0.5c-1.8-1.6-2.2-4.5-0.8-6.4c-0.5,3,0.3,5.3,3.2,6.6
	C36.6,71.7,36.2,70.7,36.1,69.5z M42.1,72c-2.3,0.4-4.4-0.9-4.9-3.1c-0.5-2.1,1.1-4.3,3.3-4.5c0.1,0,0.2,0,0.5,0.1
	c-0.4,0.2-0.6,0.2-0.9,0.3c-1.6,0.6-2.5,2.3-2.2,4c0.3,1.6,1.6,2.6,3.4,2.6c1.9,0,3.2-0.9,4-2.7c0.1-0.1,0.1-0.2,0.2-0.4
	C45.5,70.1,44.1,71.6,42.1,72z M77.2,100.1c-0.3,0.6-0.7,1.2-1,1.8c-2.6,4.4-5.7,8.3-9.6,11.5c-3.2,2.6-7.3,2.8-10.7,0.4
	c-1.3-0.9-2.5-2.1-3.6-3.3c-3.1-3.2-5.8-6.6-7.5-10.8c0-0.1-0.1-0.2-0.2-0.2c-0.1,0.5-0.1,0.9-0.1,1.3c0.1,0.8,0.3,1.6,0.5,2.4
	c0.1,0.6-0.2,1.1-0.7,1.4c-0.5,0.3-1,0.3-1.5,0.1c-0.3-0.2-0.7-0.5-0.9-0.8c-2.2-2.8-2.1-5.9-1.3-9.2c0.6,0.7,1.1,1.3,1.7,1.8
	c0.6,0.5,1.2,1,1.8,1.4c0.1-0.1,0.1-0.1,0.2-0.2c-0.8-1.7-1.7-3.4-2.5-5.1c-0.1-0.3-0.2-0.7,0-1c0.6-1.5,1.6-2.8,2.9-4
	c1.2-1.1,2.7-1.5,4.3-1.1c2.1,0.4,4,1.2,5.9,2.2c1.9,1,3.1,2.6,3.4,4.8c0.1,0.7,0.2,1.4,0.3,2c0.1-2.6-0.2-5.2-1.2-7.6
	c-0.4-1.1-1.2-1.8-2.3-2.2c-1.1-0.4-2.2-0.7-3.3-0.9c-4.5-0.7-9.1,1.6-10.7,5.4c0,0.1-0.1,0.2-0.3,0.5c-0.4-1.3-0.7-2.4-1.1-3.5
	c-2.8,0-5.4-0.9-7.7-2.7c-0.7,1.3-0.5,3.1,0.4,4.2c0.9,1.1,2.1,1.6,3.5,2c1.1,0.3,2.2,0.7,3.2,1.2c0.3,0.2,0.6,0.8,0.6,1.2
	c0,0.3-0.5,0.7-0.9,0.8c-0.6,0.2-1.2,0.2-1.9,0.4c-0.8,0.2-1.6,0.2-2.3,0.5c-0.9,0.3-1.3,1.1-1,2.1c0.5,1.6,2.2,2.3,3.6,1.4
	c0.6-0.4,1.1-0.9,1.7-1.4c0,0.8,0.1,1.7,0.1,2.5c0.2,2.3,1.1,4.3,2.8,5.9c1.1,1.1,2.3,1.1,3.5,0.2c0.2-0.1,0.3-0.2,0.4-0.3
	c0.1,0.1,0.1,0.1,0.2,0.1c0.1,0.1,0.2,0.2,0.2,0.3c1.9,3.1,4.3,5.7,7.3,7.6c4.2,2.7,8.7,3.2,13.3,1c4.4-2.2,7.5-5.6,9.7-9.9
	c0.7-1.3,1-2.8,1-4.2C77.3,100.1,77.3,100.1,77.2,100.1z M42.3,79.7c-5.1,1.5-9.3-0.1-12.5-4.4c-0.2,4.1,2.7,8.6,6.7,9.8
	c4.8,1.5,9.2,0.4,12.9-2.8c2.5-2.1,3.8-4.9,3.6-8.2c-0.1-2.1-1.1-3.8-2.9-5.2C49.8,74.3,47.4,78.2,42.3,79.7z M81.2,52
	c-3.7-4.6-8.3-7.1-14.4-6.2c-5,0.8-8.8,4.2-10.6,9.1c0.8-0.2,1.6-0.4,2.4-0.6c0.5-0.1,0.8-0.3,1.1-0.7c0.3-0.5,0.7-1,1.1-1.3
	c2.4-1.9,5.1-2.9,8.2-3c3.9-0.1,7.5,1,10.9,2.5c0.4,0.2,0.8,0.3,1.1,0.5C81.1,52.1,81.2,52.1,81.2,52z M56.1,42.5
	c-0.5,0-0.8,0-1.1,0c-3.4,0.4-6.3,1.7-8.5,4.3c-3.1,3.7-4,7.9-2.3,12.6c0.5,1.3,1.5,2.1,2.8,2.8C45.9,53.7,49.4,47.4,56.1,42.5z
	 M41.6,56.5c-0.7-3.2,0.2-6,2.2-8.6c0.9-1.1,1.9-2.1,2.8-3.2c-2.3,0.4-4.4,1.3-6.1,2.9c-3.2,2.9-3.9,7.9-1.5,11.3
	c0.1,0.2,0.3,0.4,0.5,0.5c1.1,0.2,2.2,0.4,3.2,0.6C42.3,58.8,41.9,57.6,41.6,56.5z M72.8,44.2c-0.5-0.2-0.9-0.6-1.4-0.8
	C66.2,40.9,61,40.9,56,44.1c-3.1,2-5.3,4.9-7.1,8c0,0.1,0,0.2-0.1,0.4c3.2-3.4,6.7-6,10.9-7.6c4.3-1.7,8.7-1.2,13.1-0.6
	C72.8,44.4,72.8,44.3,72.8,44.2z M58.9,47.3c-0.2,0-0.3,0.1-0.4,0.1c-3.1,1.5-6.1,3.2-8.5,5.6c-2.2,2.1-2.6,4.8-2.2,7.8
	c0.3-0.3,0.6-0.5,0.8-0.7c1.4-1.3,2.8-2.5,4.1-3.8c0.2-0.2,0.4-0.5,0.6-0.7c1.1-2.5,2.6-4.7,4.4-6.7C58,48.3,58.5,47.8,58.9,47.3
	C59,47.3,58.9,47.3,58.9,47.3z M55.1,37.1c-3.3-0.6-6,2.3-5.4,5.6c1-0.3,2-0.6,3-0.9c0.4-0.1,0.7-0.3,0.8-0.7c0.4-1.5,2-2,3.1-0.9
	c0.5,0.4,0.8,1,1.3,1.6c0.8-0.3,1.6-0.6,2.5-1C59,38.9,57.4,37.5,55.1,37.1z M25.3,74.7c0.2,3,2.6,6.1,4.9,7.2
	c-0.5-0.9-1-1.8-1.3-2.7c-1.1-2.6-1.4-5.1,0.1-7.7c0.1-0.2,0.1-0.4,0.1-0.6c0.1-1.1,0.1-2.3,0.1-3.4C26.7,68.6,25,71.8,25.3,74.7z
	 M48.5,93.9c0.9,0,1.8,0.3,2.6,0.1c1.9-0.4,3.7-1,5.8-1.6c-0.2-0.1-0.4-0.2-0.6-0.3c-1.2-0.6-2.5-0.6-3.7-0.3
	c-1.9,0.4-3.7,0.1-5.3-1.1c-0.1-0.1-0.2-0.1-0.4-0.2c0,0,0,0.1,0,0.1c0.3,0.3,0.7,0.6,1.1,0.9c0,0.1-0.1,0.1-0.1,0.2
	c-0.7-0.2-1.5-0.3-2.2-0.5c0,0.1,0,0.1-0.1,0.2c1.1,0.4,2.3,0.7,3.4,1.1c0,0.1,0,0.1,0,0.2c-0.8-0.1-1.6-0.2-2.4-0.4
	c0,0,0,0.1,0,0.1c0.9,0.2,1.9,0.5,2.8,0.7c0,0,0,0.1,0,0.1c-0.4,0-0.9,0-1.3,0c0,0,0,0.1,0,0.1c0.7,0.2,1.4,0.4,2.1,0.6
	c0,0.1,0,0.1,0,0.2c-0.5-0.1-1-0.1-1.5-0.2C48.5,93.8,48.5,93.9,48.5,93.9z M69.5,93.8c1.3,0.4,2.7,0.4,4-0.3
	c-0.7,0.2-1.4,0.3-2.1,0.4c0-0.1,0-0.1,0-0.2c0.6-0.2,1.1-0.3,1.7-0.5c0,0,0-0.1,0-0.1c-0.4,0.1-0.7,0.1-1.1,0.2c0-0.1,0-0.1,0-0.2
	c0.6-0.2,1.3-0.4,1.9-0.6c0,0,0-0.1,0-0.1c-0.2,0-0.4,0-0.6,0c0-0.1,0-0.1,0-0.2c0.8-0.3,1.6-0.6,2.4-0.9c0-0.1,0-0.1-0.1-0.2
	c-0.8,0.2-1.6,0.4-2.5,0.7c0.5-0.3,0.9-0.6,1.2-0.9c0.3-0.2,0.6-0.6,0.9-0.8c0-0.1-0.1-0.1-0.1-0.2c-1.8,1.6-3.8,2-6.2,1.5
	c-0.5-0.1-0.9-0.1-1.4-0.1c-0.8,0-1.6,0.1-2.2,0.8C66.7,92.9,68.1,93.4,69.5,93.8z M64,104.9c-0.5-0.2-1.1-0.2-1.7-0.1
	c-0.9,0.2-1.8,0.3-2.8,0.1c-1.5-0.4-2.8,0.5-4.2,1.1c1.5,0.6,8.9,0.6,11.1-0.1C65.6,105.5,64.8,105.2,64,104.9z M54,72.9
	c-0.1,3.8-0.5,7.4-3.3,10.1C55.2,80.6,55.9,75.7,54,72.9z M32.3,90.4c-0.6,1.1-0.3,2.8,0.6,3.6c0.2,0.1,0.5,0.3,0.6,0.2
	c0.9-0.4,1.8-1,2.7-1.4C35,92.1,33.7,91.2,32.3,90.4z M60.9,109.8c1.5-0.1,3-0.8,3.5-1.8c-2.3,1.9-4.7,1.5-7,0.1
	C58.2,109.5,59.5,109.9,60.9,109.8z M62.6,101.2c-1.5,1.1-1.8,1.1-3.4,0.1c-0.3-0.2-0.8-0.3-1.2-0.3c-0.4,0-0.4,0.2-0.1,0.6
	c0.3-0.6,0.6-0.5,1-0.1c1.3,1.2,2.9,1.1,4.1-0.2c0.1-0.1,0.2-0.2,0.2-0.2c0.4,0.1,0.7,0.2,1,0.4C63.7,100.8,63.2,100.7,62.6,101.2z"
	/>
</svg>
