<?xml version="1.0" encoding="utf-8"?>
<!-- Generator: Adobe Illustrator 27.8.1, SVG Export Plug-In . SVG Version: 6.00 Build 0)  -->
<svg version="1.1" id="Layer_1" xmlns="http://www.w3.org/2000/svg" xmlns:xlink="http://www.w3.org/1999/xlink" x="0px" y="0px"
	 viewBox="0 0 350 230" style="enable-background:new 0 0 350 230;" xml:space="preserve">
<style type="text/css">
	.st0{fill:#A15FAC;}
	.st1{fill:#002C6B;}
	.st2{fill:#56001D;}
	.st3{fill:#8C002F;}
	.st4{fill:#043866;}
	.st5{fill:#506600;}
	.st6{fill:#604500;}
	.st7{fill-rule:evenodd;clip-rule:evenodd;fill:#C600C6;}
	.st8{fill-rule:evenodd;clip-rule:evenodd;fill:#464748;}
	.st9{fill-rule:evenodd;clip-rule:evenodd;fill:#FF838C;}
	.st10{fill-rule:evenodd;clip-rule:evenodd;fill:#005968;}
	.st11{fill:#F9C1C4;}
	.st12{fill-rule:evenodd;clip-rule:evenodd;fill:#002B26;}
	.st13{fill-rule:evenodd;clip-rule:evenodd;fill:#6D0008;}
	.st14{fill:#5B0A54;}
	.st15{fill:#FFFFFF;}
	.st16{fill-rule:evenodd;clip-rule:evenodd;fill:#C97943;}
	.st17{fill-rule:evenodd;clip-rule:evenodd;fill:#E9CEEA;}
	.st18{fill-rule:evenodd;clip-rule:evenodd;fill:#034C42;}
	.st19{fill:#026683;}
	.st20{fill:#26BCBC;}
	.st21{fill:#001F59;}
	.st22{fill:#7D1839;}
	.st23{fill:#A8007D;}
	.st24{fill:#5B2F00;}
</style>
<g>
	<path class="st3" d="M267.51,196.28c1.32-4.52,2.85-8.97,4.31-13.44c1.87-5.71,1.88-5.71-4.35-5.71c-61.86,0-123.72,0-185.58,0.02
		c-1.54,0-3.13-0.33-4.71,0.37c-0.03,0.44-0.19,0.94-0.06,1.33c1.9,5.98,3.89,11.94,5.75,17.93c0.57,1.83,1.66,2.51,3.47,2.4
		c1.09-0.06,2.2-0.01,3.3-0.01c56.99,0,113.98,0,170.98,0c0.94,0,1.89-0.08,2.82,0.01C265.69,199.41,266.87,198.48,267.51,196.28z"
		/>
	<path class="st4" d="M73.06,125.8c0.73,2.63,2.04,4.16,5,3.67c0.76-0.13,1.57-0.02,2.35-0.02c63.28,0,126.56,0,189.83,0
		c0.79,0,1.58-0.06,2.35,0.01c2.14,0.21,3.64-0.39,4.13-2.74c0.22-1.06,0.78-2.05,1.12-3.09c5.42-16.48,10.51-30.7,16.32-47.01
		c0.06-0.12,0.11-0.24,0.13-0.36c-0.16-0.63-0.66-1.33-0.92-1.92c-1.67-3.95-5.9-5.53-9.68-3.67c-3.61,1.78-5.17,6.53-3.27,9.96
		c0.9,1.62,2.26,2.74,3.8,3.31c-5.55,2.81-12.75,4.71-22.22,4.99c-1.92,0.22-3.93,0.22-6.03-0.03c-8.66-1.01-14.92-5.35-18.54-13.33
		c-1.38-3.03-1.34-3.05,1.49-4.66c0.41-0.23,0.84-0.43,1.23-0.69c3.97-2.59,5.45-7.8,3.43-12.06c-2-4.23-6.98-6.42-11.47-4.98
		c-3.58,1.15-5.94,3.59-6.62,7.28c-0.71,3.85,0.56,7.17,3.73,9.55c1.36,1.02,2.62,1.75,1.14,3.64
		c-5.88,7.49-12.83,13.42-22.56,15.01c-4.52,0.74-8.72-0.36-12.28-3.46c-2.63-2.29-4.82-4.93-6.69-7.86
		c-4.18-6.54-6.76-13.77-9.32-21.03c-1.28-3.63-1.89-6.38,2.16-9.04c3.5-2.3,3.95-6.96,2.25-10.64c-1.71-3.7-5.72-6.16-9.46-5.79
		c-4.26,0.43-7.6,3.33-8.65,7.52c-0.97,3.89,0.4,7.89,4.18,10.09c2.33,1.35,2.41,2.68,1.72,4.88c-1.36,4.35-2.91,8.61-4.59,12.84
		c-2.22,5.58-5,10.84-8.78,15.51c-5.02,6.2-11.36,8.62-19.24,6.35c-8.42-2.43-14.32-8.14-19.57-14.76
		c-0.85-1.07-0.86-1.92,0.29-2.76c0.63-0.46,1.23-0.99,1.77-1.55c4.05-4.24,3.67-10.54-0.82-14.14c-4.07-3.26-10.65-2.29-13.8,2.04
		c-3.29,4.53-2.19,10.44,2.62,13.52c1.3,0.83,2.78,1.38,4.18,2.06c-0.1,1.5-0.77,2.74-1.34,4.02c-4.07,9.11-14.81,13.65-24.22,12.48
		c-9.72-0.3-17.02-2.22-22.6-5.06c1.6-0.55,3.01-1.69,3.93-3.35c1.9-3.43,0.34-8.18-3.27-9.96c-3.78-1.86-8.01-0.28-9.68,3.67
		c-0.25,0.6-0.75,1.29-0.92,1.92c0.02,0.12,0.07,0.24,0.12,0.35c5.14,14.57,9.42,26.67,14.57,41.28
		C71.33,120.43,72.3,123.09,73.06,125.8z M224.48,104.1c1.91-3.01,3.84-6.01,6.18-9.68c2.4,3.75,4.39,6.89,6.4,10.02
		c0.64,1,0.8,2.03,0.14,3.06c-2.08,3.23-3.82,6.7-6.49,9.81c-2.89-3.02-4.38-6.67-6.63-9.79
		C223.15,106.24,223.8,105.17,224.48,104.1z M169.44,104.39c2.03-3.15,4.03-6.3,6.23-9.73c2.83,3.35,4.54,6.87,6.68,10.1
		c0.56,0.85,0.71,1.73,0.11,2.63c-2.17,3.24-3.78,6.86-6.65,9.92c-2.78-3.02-4.44-6.59-6.56-9.83
		C168.57,106.42,168.79,105.39,169.44,104.39z M114.59,104.51c1.97-2.98,3.54-6.24,6.28-9.42c2.98,3.03,4.52,6.48,6.63,9.53
		c0.72,1.04,0.59,2.01-0.06,3.04c-2,3.16-3.97,6.34-6.14,9.81c-3.22-3.17-4.94-6.84-6.96-10.28
		C113.81,106.28,114.05,105.33,114.59,104.51z"/>
</g>
</svg>
