<?xml version="1.0" encoding="utf-8"?>
<!-- Generator: Adobe Illustrator 27.8.1, SVG Export Plug-In . SVG Version: 6.00 Build 0)  -->
<svg version="1.1" id="Layer_1" xmlns="http://www.w3.org/2000/svg" xmlns:xlink="http://www.w3.org/1999/xlink" x="0px" y="0px"
	 viewBox="0 0 350 230" style="enable-background:new 0 0 350 230;" xml:space="preserve">
<style type="text/css">
	.st0{fill:#A15FAC;}
	.st1{fill:#002C6B;}
	.st2{fill:#56001D;}
	.st3{fill:#8C002F;}
	.st4{fill:#043866;}
	.st5{fill:#506600;}
	.st6{fill:#604500;}
	.st7{fill-rule:evenodd;clip-rule:evenodd;fill:#C600C6;}
	.st8{fill-rule:evenodd;clip-rule:evenodd;fill:#464748;}
	.st9{fill-rule:evenodd;clip-rule:evenodd;fill:#FF838C;}
	.st10{fill-rule:evenodd;clip-rule:evenodd;fill:#005968;}
	.st11{fill:#F9C1C4;}
	.st12{fill-rule:evenodd;clip-rule:evenodd;fill:#002B26;}
	.st13{fill-rule:evenodd;clip-rule:evenodd;fill:#6D0008;}
	.st14{fill:#5B0A54;}
	.st15{fill:#FFFFFF;}
	.st16{fill-rule:evenodd;clip-rule:evenodd;fill:#C97943;}
	.st17{fill-rule:evenodd;clip-rule:evenodd;fill:#E9CEEA;}
	.st18{fill-rule:evenodd;clip-rule:evenodd;fill:#034C42;}
	.st19{fill:#026683;}
	.st20{fill:#26BCBC;}
	.st21{fill:#001F59;}
	.st22{fill:#7D1839;}
	.st23{fill:#A8007D;}
	.st24{fill:#5B2F00;}
</style>
<g>
	<path class="st7" d="M146.17,20.58c-0.66-1.15-2.14-1.55-3.29-0.88c-1.15,0.66-1.55,2.14-0.88,3.29s2.14,1.55,3.29,0.88
		C146.44,23.21,146.84,21.74,146.17,20.58z M123.69,104.51c-0.66-1.15-2.14-1.55-3.29-0.89c-1.15,0.66-1.55,2.14-0.88,3.29
		c0.66,1.15,2.14,1.55,3.29,0.88C123.96,107.13,124.36,105.66,123.69,104.51z M115.52,70.44c-2.52,0-4.56,2.05-4.56,4.56
		c0,2.52,2.03,4.56,4.56,4.56s4.56-2.03,4.56-4.56C120.07,72.48,118.04,70.44,115.52,70.44z M234.08,70.44
		c-2.51,0-4.56,2.05-4.56,4.56c0,2.52,2.05,4.56,4.56,4.56c2.52,0,4.56-2.03,4.56-4.56C238.64,72.48,236.6,70.44,234.08,70.44z
		 M122.81,42.2c-1.15-0.66-2.63-0.27-3.29,0.88c-0.66,1.15-0.27,2.63,0.88,3.29c1.15,0.66,2.63,0.27,3.29-0.88
		C124.36,44.34,123.96,42.86,122.81,42.2z M145.29,126.11c-1.15-0.66-2.62-0.27-3.28,0.88c-0.66,1.15-0.27,2.63,0.88,3.29
		c1.14,0.66,2.62,0.27,3.28-0.88C146.84,128.25,146.44,126.77,145.29,126.11z M229.2,103.63c-1.14-0.66-2.62-0.27-3.28,0.88
		c-0.66,1.15-0.27,2.63,0.88,3.29c1.15,0.66,2.62,0.27,3.28-0.88C230.75,105.77,230.35,104.29,229.2,103.63z M206.72,19.7
		c-1.15-0.66-2.63-0.27-3.29,0.88s-0.26,2.63,0.89,3.29c1.14,0.66,2.62,0.27,3.28-0.88C208.27,21.85,207.87,20.37,206.72,19.7z
		 M174.81,129.73c-2.52,0-4.56,2.03-4.56,4.56c0,2.52,2.03,4.56,4.56,4.56c2.51,0,4.56-2.03,4.56-4.56
		C179.36,131.76,177.31,129.73,174.81,129.73z M174.81,11.16c-2.52,0-4.56,2.03-4.56,4.56c0,2.52,2.03,4.56,4.56,4.56
		c2.52,0,4.56-2.05,4.56-4.56C179.36,13.2,177.31,11.16,174.81,11.16z M207.6,126.99c-0.66-1.15-2.14-1.55-3.29-0.88
		c-1.15,0.66-1.55,2.14-0.88,3.29c0.66,1.15,2.14,1.55,3.29,0.88C207.87,129.62,208.27,128.14,207.6,126.99z"/>
	<path class="st8" d="M234.83,29.97c6.78,6.72,4.57,12.02-2.1,21.13c-2.57,3.51-4.3,7.71-9.05,7.56
		c10.55-14.16,17.46-19.12,9.87-27.17c-6.12-4.03-9.82-2.03-15.12,3.52c-17.91,18.71-28.08,36.99-50.29,54.94
		c4.28-17.73-0.45-41.14-16.39-47.01c-5.68-2.09-6.83,0.55-5.2,5.65c4.2,13.11,4.87,32.06-2.58,41.01c4-12.72,4.74-25.12-0.71-40.71
		c-2.9-8.29,1.51-12.05,9.63-9.09c16.47,6.08,22.17,30.85,18.01,44.35c16.56-16.19,31.32-37.47,46-51.22
		C223.95,26.31,227.8,24.99,234.83,29.97z"/>
	<path class="st9" d="M228.97,27.13h-0.01c-1.26,0.68-2.6,1.59-4,2.78l-0.01,0.01c-1.25,1.06-2.52,2.33-3.82,3.84
		c-6.89,7.97,4.77,17.76,11.73,9.83c1.64-1.87,2.92-3.65,3.9-5.33v-0.01c0.68-1.19,1.19-2.33,1.56-3.39
		C240.93,27.34,236.17,23.3,228.97,27.13z M227.67,44.73c-1.97,0.35-3.96-0.38-5.5-2.71c1.74,1.61,3.63,2.28,5.38,1.98
		c3.21-0.54,6.97-5.55,8.79-8.16C234.57,39.08,231.55,44.03,227.67,44.73z M159.39,54.59c-1.11-3.81-2.55-7.23-4.32-10.09
		c0,0,0-0.01-0.01-0.01c-1.29-2.13-2.78-3.93-4.46-5.37c-1.99-1.74-4.24-2.93-6.77-3.48c-1.37-0.3-4.51-0.33-3.89,1.93
		c0.72,2.59,1.55,5.15,2.47,7.67c0,0.01,0,0.01,0.01,0.03c1.84,5.12,4.01,10.11,6.37,14.97c0.09,0.19,0.22,0.37,0.37,0.53h0.01
		C151.65,63.28,161.63,62.26,159.39,54.59z M158.09,57.6c-0.94,2.03-4.32,2.54-5.33,1.6c1.36,0.38,3.8-0.27,4.57-1.95
		c0.8-1.75-2.49-9.49-3.51-11.73C155.19,47.84,159.07,55.44,158.09,57.6z"/>
	<path class="st8" d="M222.41,53.88c-4.38-3.56-7.67-5-9.34-8.36C215.16,48.5,218.79,49.41,222.41,53.88z M215.64,45.12
		c1.22,2.44,3.61,3.49,6.8,6.08C219.8,47.95,217.16,47.29,215.64,45.12z M150.89,66.57c3.01,1.75,5.34,0.16,7.11-1.22
		C155.39,66.49,152.97,66.87,150.89,66.57z M151.96,64.9c1.94,1.13,3.44,0.1,4.58-0.79C154.85,64.85,153.29,65.09,151.96,64.9z"/>
</g>
</svg>
