<?xml version="1.0" encoding="utf-8"?>
<!-- Generator: Adobe Illustrator 27.8.1, SVG Export Plug-In . SVG Version: 6.00 Build 0)  -->
<svg version="1.1" id="Layer_1" xmlns="http://www.w3.org/2000/svg" xmlns:xlink="http://www.w3.org/1999/xlink" x="0px" y="0px"
	 viewBox="0 0 350 230" style="enable-background:new 0 0 350 230;" xml:space="preserve">
<style type="text/css">
	.st0{fill:#FCDBDB;}
	.st1{fill:#F5F9DC;}
	.st2{fill:#FFEEEE;}
	.st3{fill:#DCF9E7;}
	.st4{fill:#F9F4DC;}
	.st5{fill:#F7F6D7;}
	.st6{fill:#F6FCBE;}
	.st7{fill:url(#SVGID_1_);}
	.st8{fill:url(#SVGID_00000017479736534957538730000017587610156177746305_);}
	.st9{fill:url(#SVGID_00000050664363643193360090000002209583294385266842_);}
	.st10{fill:url(#SVGID_00000025430609049543884060000017050246385382482563_);}
	.st11{fill:url(#SVGID_00000059290644841995703680000007427035840566195901_);}
	.st12{fill:url(#SVGID_00000158006140455133174650000001566287226265073070_);}
	.st13{fill-rule:evenodd;clip-rule:evenodd;fill:#231F20;}
	.st14{fill:url(#SVGID_00000159449034002074200240000002014774373591441825_);}
	.st15{fill:url(#SVGID_00000098925214558361705990000004074216761575691396_);}
	.st16{fill:url(#SVGID_00000101821652351554942150000008241795123012256433_);}
	.st17{fill:url(#SVGID_00000009559803595555772120000005107321642417905814_);}
	.st18{fill-rule:evenodd;clip-rule:evenodd;fill:url(#SVGID_00000069384253367307978270000015647672412963873174_);}
	.st19{fill-rule:evenodd;clip-rule:evenodd;fill:url(#SVGID_00000169532727029336083440000017878566590275594385_);}
	.st20{fill-rule:evenodd;clip-rule:evenodd;fill:url(#SVGID_00000119109115911785659540000006795872765564271289_);}
	.st21{fill-rule:evenodd;clip-rule:evenodd;fill:url(#SVGID_00000175312199556893113380000002228674905794832319_);}
	.st22{fill-rule:evenodd;clip-rule:evenodd;fill:url(#SVGID_00000164514674900615415400000011511844578181016248_);}
	.st23{fill:url(#SVGID_00000057124641761661683590000016558548799742939059_);}
	.st24{fill:url(#SVGID_00000014608211640415274310000011334249851479663014_);}
	.st25{fill:url(#SVGID_00000138573088070411421530000015633505354806864818_);}
	.st26{fill:url(#SVGID_00000183225285563555695030000010742224973036969917_);}
	.st27{fill:url(#SVGID_00000048467412754997371410000012945540178046511243_);}
	.st28{fill:#FCCE3A;}
	.st29{fill:#5B62EE;}
	.st30{fill:url(#SVGID_00000035527237705453527030000017985982547135220373_);}
	.st31{fill:url(#SVGID_00000182493995088540192840000017235161311934518413_);}
	.st32{fill:url(#SVGID_00000060027207840858560710000004905299981111095180_);}
	.st33{fill:url(#SVGID_00000140715347983143796600000013654393382089840816_);}
	.st34{fill:url(#SVGID_00000005265501428601500590000018160496129788676739_);}
	.st35{fill-rule:evenodd;clip-rule:evenodd;fill:url(#SVGID_00000060744939151601331450000014910783884157317285_);}
	.st36{fill:url(#SVGID_00000050641764951697725690000005941279744127287175_);}
	.st37{fill:url(#SVGID_00000181061462916753297070000014241957553965482642_);}
	.st38{fill:url(#SVGID_00000135662992590817491550000009171457711602269337_);}
	.st39{fill:url(#SVGID_00000126304942961035558030000016789032046878733987_);}
	
		.st40{fill:url(#SVGID_00000158728826831019921410000007210493281399008169_);stroke:#000000;stroke-width:0.75;stroke-miterlimit:10;}
	.st41{fill:url(#SVGID_00000157992377743283220130000003622563214567559299_);}
	
		.st42{fill:url(#SVGID_00000111895859664590644110000005146179123345855904_);stroke:#000000;stroke-width:0.75;stroke-miterlimit:10;}
	.st43{fill:url(#SVGID_00000170983388612270890740000000567235698824284815_);}
	.st44{fill:url(#SVGID_00000021110984173978493870000007447950584067677098_);}
	.st45{fill:url(#SVGID_00000012466252131921076030000012846598093943089291_);}
	
		.st46{fill:url(#SVGID_00000001643200531977759070000003752718198609040818_);stroke:#000000;stroke-width:0.75;stroke-miterlimit:10;}
	.st47{fill:url(#SVGID_00000067198182021481487850000013988976882310277002_);}
	.st48{fill:url(#SVGID_00000104703985472619414250000003376834180758512534_);}
	.st49{fill:url(#SVGID_00000174562613037321868560000002829330796191269525_);}
	.st50{fill:url(#SVGID_00000122001018382240242670000018250898460716484779_);}
	.st51{fill:url(#XMLID_00000174590577356122458640000010051894935743792261_);}
	.st52{fill:url(#XMLID_00000057112004565521500800000014447240852450433964_);}
	.st53{fill:url(#SVGID_00000105411590608672606650000016057552296446956418_);}
	.st54{opacity:0.4;fill:url(#SVGID_00000165931020277243199560000011868687205882139049_);}
</style>
<linearGradient id="SVGID_1_" gradientUnits="userSpaceOnUse" x1="100.7533" y1="88.5708" x2="249.2468" y2="88.5708">
	<stop  offset="0" style="stop-color:#35B053"/>
	<stop  offset="1" style="stop-color:#A5C44D"/>
</linearGradient>
<path class="st7" d="M144.11,51.25c6.97,0,13.63-0.06,20.28,0.09c0.73,0.02,1.64,1.13,2.12,1.94c9.67,16.66,19.39,33.3,28.84,50.1
	c1.76,3.13,3.67,4.37,7.17,4.02c3.14-0.31,6.33-0.03,9.5-0.07c10.37-0.12,18.64-8.4,18.67-18.68c0.04-10.28-8.16-18.71-18.51-18.84
	c-8.89-0.11-17.78,0-26.67-0.06c-0.86-0.01-2.16-0.23-2.51-0.81c-3.45-5.69-6.73-11.47-10.34-17.71c1.48,0,2.4,0,3.33,0
	c11.8,0,23.6-0.01,35.39,0c17.41,0.01,32.22,11.2,36.59,27.62c4.41,16.56-2.89,33.89-18.01,42.44c-5.29,3-11.08,4.5-17.17,4.55
	c-7.92,0.07-15.85,0.07-23.77-0.05c-0.98-0.02-2.39-0.74-2.86-1.55c-13.85-23.8-27.61-47.66-41.37-71.51
	C144.58,52.39,144.44,51.99,144.11,51.25z M139.49,58.34c-3.37,5.83-6.61,11.35-9.7,16.95c-0.35,0.64-0.08,1.88,0.32,2.62
	c1.62,3.02,3.4,5.95,5.11,8.92c7.08,12.26,14.13,24.53,21.28,36.74c0.53,0.9,1.76,1.93,2.69,1.95c6.15,0.17,12.31,0.09,19.15,0.09
	C165.25,102.95,152.45,80.79,139.49,58.34z M149.01,125.45c-8.1-14.03-16.04-27.77-24.14-41.81c-8.16,14.15-16.04,27.82-24.12,41.81
	C117.08,125.45,132.86,125.45,149.01,125.45z"/>
</svg>
