<?xml version="1.0" encoding="utf-8"?>
<!-- Generator: Adobe Illustrator 27.8.1, SVG Export Plug-In . SVG Version: 6.00 Build 0)  -->
<svg version="1.1" id="Layer_1" xmlns="http://www.w3.org/2000/svg" xmlns:xlink="http://www.w3.org/1999/xlink" x="0px" y="0px"
	 viewBox="0 0 350 230" style="enable-background:new 0 0 350 230;" xml:space="preserve">
<style type="text/css">
	.st0{fill:#A15FAC;}
	.st1{fill:#002C6B;}
	.st2{fill:#56001D;}
	.st3{fill:#8C002F;}
	.st4{fill:#043866;}
	.st5{fill:#506600;}
	.st6{fill:#604500;}
	.st7{fill-rule:evenodd;clip-rule:evenodd;fill:#C600C6;}
	.st8{fill-rule:evenodd;clip-rule:evenodd;fill:#464748;}
	.st9{fill-rule:evenodd;clip-rule:evenodd;fill:#FF838C;}
	.st10{fill-rule:evenodd;clip-rule:evenodd;fill:#005968;}
	.st11{fill:#F9C1C4;}
	.st12{fill-rule:evenodd;clip-rule:evenodd;fill:#002B26;}
	.st13{fill-rule:evenodd;clip-rule:evenodd;fill:#6D0008;}
	.st14{fill:#5B0A54;}
	.st15{fill:#FFFFFF;}
	.st16{fill-rule:evenodd;clip-rule:evenodd;fill:#C97943;}
	.st17{fill-rule:evenodd;clip-rule:evenodd;fill:#E9CEEA;}
	.st18{fill-rule:evenodd;clip-rule:evenodd;fill:#034C42;}
	.st19{fill:#026683;}
	.st20{fill:#26BCBC;}
	.st21{fill:#001F59;}
	.st22{fill:#7D1839;}
	.st23{fill:#A8007D;}
	.st24{fill:#5B2F00;}
</style>
<path class="st10" d="M225.99,61.69c0.6,3.72,0.87,7.5,0.77,11.26v8.36c-3.76-5.06-10.55-4.27-8.57,9.2
	c0.06,0.39,0.13,0.77,0.2,1.13c-1.25-2.22-3.51-5.7-6-6.69c-0.57-0.22-1.36-0.13-1.36,0.74c0,0.41,0.33,0.74,0.74,0.74
	c2.1,0,2.27,0.29,4.03,2.48c0.94,1.17,1.85,2.64,2.59,3.95c2.57,4.56,5.64,6.87,8.37,7.78v7.37c-3.57,0.99-9.42,3.35-10.98,3.94
	c-7.48,2.8-12.25,5.05-17.07,11.78c-0.25,0.25-0.94,1.34-1.97,3.07h-14.83c-4.24-6.87-5.82-13.13-5.99-17.32
	c-0.52-13.18,10.89-0.93,22.7-2.4c5.19-0.64,1.56-6.03,1.17-10.49c-0.08-2.31,2.98-1.2,4.11-3.74c0.54-1.2-1.48-2.48-3.11-2.96
	c2.1-0.75,6.44-2.17,3.64-4.98c-4-4.01,5.58-4.94,5.79-6.72c0.18-1.53-2.06-4.86-4.62-8.71c-2.51-3.78-6.8-8.69-6.51-13.34
	c0.63-10.21-0.94-18.14-4.99-23.84c-2.13-1.13-4.57-1.42-7.12,0.48c-17.31,12.93-33.78,28.47-57.43,16.02
	c14.96,11.73,34.43,3.88,47.04-5.34c-13.53,13.83-27.26,24.23-51.63,13.91c9.53,6.21,22.92,7.69,35.32,1.89
	c1.15,3.39-6.39,6.6-7.7,18.48c-1.95,17.68,22.87,21.43,20.05,39.02c-0.34-15.39-20.03-16.15-24.83-36.77
	c-0.96,6.06,2.19,14.71,6.04,21.57c5.33,9.48,18.38,17.25,19.54,24.5c-6.82-14.4-37.53-14.71-50.84-57.94
	c9.56,39.84,47.24,51.49,48.05,58.78c-1.72-0.01-3.42-0.09-5.1-0.24c-29.66-2.64-51.4-26.71-51.35-56.21
	c0.05-24.26,15.6-46.09,38.98-53.69c6.05-1.97,11.52-2.95,18.03-2.84C198.19,14.42,221.51,34.12,225.99,61.69z M218.63,115.89
	c2.29-0.14,5.37-1.72,8.13-3.99v-1.19c-0.92,0.71-1.88,1.38-2.56,1.82C222.94,113.33,220.1,114.47,218.63,115.89z M205.75,126.81
	h21.01v-8.45c-3.59,3.59-7.72,5.07-16.35,7.07C208.13,125.95,206.71,126.33,205.75,126.81z M156.18,73.07
	c-1.44,0.24-2.41,1.6-2.16,3.04c0.24,1.44,1.6,2.41,3.04,2.16c1.44-0.24,2.41-1.6,2.16-3.04C158.98,73.8,157.62,72.83,156.18,73.07z
	 M196.06,56.24c-4.2,0.8-10.01-0.78-13.51-2.72c2.21,1.63,7.92,4.44,11.04,8.12l-0.64-3.79C192.92,57.68,195.73,56.3,196.06,56.24z
	 M180.69,47.64c8.11-1.1,11.28,1.92,14.32,6.29c0.38,0.55,1.25-0.09,1.19-0.88C193.52,47.83,188.24,45.22,180.69,47.64z
	 M226.76,110.71c1.45-1.11,2.81-2.32,2.82-2.84c0.03-0.78-3.58,0.37-2.82,0.15V110.71z M231.84,106.16
	c-1.23,2.08-3.07,4.09-5.08,5.74v6.46c2.15-2.15,4.11-5.05,6.72-9.28C237.59,102.44,236,99.14,231.84,106.16z M227.83,95.01
	c2.32-5.67,1.15-10.7-1.07-13.69v19.34C233.53,102.93,238.19,96.63,227.83,95.01z"/>
</svg>
