<?xml version="1.0" encoding="utf-8"?>
<!-- Generator: Adobe Illustrator 27.8.1, SVG Export Plug-In . SVG Version: 6.00 Build 0)  -->
<svg version="1.1" id="Layer_1" xmlns="http://www.w3.org/2000/svg" xmlns:xlink="http://www.w3.org/1999/xlink" x="0px" y="0px"
	 viewBox="0 0 350 230" style="enable-background:new 0 0 350 230;" xml:space="preserve">
<style type="text/css">
	.st0{fill:#A15FAC;}
	.st1{fill:#002C6B;}
	.st2{fill:#56001D;}
	.st3{fill:#8C002F;}
	.st4{fill:#043866;}
	.st5{fill:#506600;}
	.st6{fill:#604500;}
	.st7{fill-rule:evenodd;clip-rule:evenodd;fill:#C600C6;}
	.st8{fill-rule:evenodd;clip-rule:evenodd;fill:#464748;}
	.st9{fill-rule:evenodd;clip-rule:evenodd;fill:#FF838C;}
	.st10{fill-rule:evenodd;clip-rule:evenodd;fill:#005968;}
	.st11{fill:#F9C1C4;}
	.st12{fill-rule:evenodd;clip-rule:evenodd;fill:#002B26;}
	.st13{fill-rule:evenodd;clip-rule:evenodd;fill:#6D0008;}
	.st14{fill:#5B0A54;}
	.st15{fill:#FFFFFF;}
	.st16{fill-rule:evenodd;clip-rule:evenodd;fill:#C97943;}
	.st17{fill-rule:evenodd;clip-rule:evenodd;fill:#E9CEEA;}
	.st18{fill-rule:evenodd;clip-rule:evenodd;fill:#034C42;}
	.st19{fill:#026683;}
	.st20{fill:#26BCBC;}
	.st21{fill:#001F59;}
	.st22{fill:#7D1839;}
	.st23{fill:#A8007D;}
	.st24{fill:#5B2F00;}
</style>
<g>
	<path class="st11" d="M229.82,30.84l-0.2-1.45l0.09,1.47l-0.8,0.16c0.44,3.38,0.86,6.77,1.25,10.16c0.13,4.7,0.16,9.4,0.09,14.1
		c-0.49-8.8-1.3-17.62-2.5-26.42c-0.4-4.06-0.88-8.12-1.44-12.18c0.17,2.62,0.3,5.23,0.4,7.84l-0.04-0.42l-0.3,0.08
		c-0.17-2.64-0.36-5.28-0.55-7.92l-4.6,1.11l-0.06-0.6c-2.7,0.68-5.41,1.36-8.11,2.03l0.18,0.99l-2.97,0.75l-0.21-2.25l-3.96,0.99
		l-0.03-0.32l-5.37,1.35l-0.15-1.6l-3.59,0.9l-0.69,0.17l-2.35,0.59c-0.18-1.44-0.37-2.88-0.57-4.32c0.09,1.46,0.18,2.93,0.25,4.4
		l-1.17,0.29l0.18,0.99l-2.24,0.56c-0.19-2.15-0.39-4.3-0.59-6.45l-5.62,1.41c0.34,1.36,0.68,2.72,1.01,4.08
		c-0.44-0.92-0.89-1.85-1.35-2.77c-0.69,1.48-1.36,2.95-2,4.41l-0.17-1.08l-0.41-0.1c0.05-0.88,0.09-1.85,0.1-2.8l-2.47,0.62
		l-0.01,0.07l0.29,1.6l-0.14-0.04l-0.21,2.18l-0.22-0.05l-0.11-1.2l-0.02,0c-0.05,0.37-0.11,0.75-0.15,1.13l-1.47-0.36l-0.01-0.35
		l-0.71-2.04l-0.68,2.05l-0.09-1.86l-0.4,0.1l-0.31-3.31l-3.5,0.88l0,0.94l-0.41-0.1l-0.21,2.23c-0.17-0.91-0.36-1.85-0.58-2.77
		l-3.39,0.85l-0.21-2.24l-1.41,0.36l0.12,1.1l-0.27-0.07l-0.17-0.95L163.69,18c-0.19,1.2-0.37,2.4-0.54,3.6
		c-0.16-0.35-0.32-0.71-0.49-1.06l-0.43-2.17l-0.54,0.13l-0.18-0.38l-0.25,0.49l-0.58,0.15l0.49-1.91l-5.62-1.37
		c-0.2,2.09-0.4,4.17-0.59,6.26l-2.24-0.55l0.18-0.96l-1.17-0.28c0.07-1.42,0.16-2.85,0.25-4.27c-0.2,1.4-0.39,2.79-0.57,4.19
		l-2.35-0.57l-0.69,2.05l-3.59-0.87l-0.15,1.55l-5.37-1.31l-0.03,0.32l-3.27-0.8c-0.77,5.29-1.61,10.57-2.51,15.84l0.18-2.01
		c0.38-2.86,0.73-5.71,1.03-8.56l-0.17-0.04l0.4-2.14l0.11-1.09l-2.91-0.71l0.18-0.96c-2.7-0.66-5.41-1.31-8.11-1.97l-0.06,0.58
		l-4.6-1.08c-0.19,2.56-0.38,5.12-0.55,7.68l-0.3-0.07l-0.04,0.4c0.1-2.54,0.24-5.07,0.4-7.61c-0.56,3.94-1.04,7.88-1.44,11.82
		c-1.2,8.55-2.01,17.1-2.5,25.64c-0.06-4.56-0.04-9.13,0.09-13.69c0.39-3.29,0.81-6.58,1.25-9.86l-0.8-0.15l0.09-1.43l-0.2,1.41
		l-7.3-1.4c-1.49,34.52-1.26,69.65,5.58,105.09c-2.64-22.44-2.68-44.76-1.17-66.84c-0.55,22.1,0.8,44.14,2.83,65.97l0.55-0.62
		l-0.49,1.23l0.04,0.4l3.09-0.43c1.33-2.88,2.44-5.65,2.97-6.94c0.05-0.45-0.06-0.85-0.34-1.29c0.28-0.05-0.43-1.14-0.57-1.31
		c0.23,0.26,0.92,1.13,0.83,1.29c0.3,0.47,0.4,0.86,0.36,1.33c-0.56,2.24-1.2,4.48-1.85,6.72l3.62-0.51l-0.09-0.49l1.64-0.23
		l0.08,0.85l0.19-0.03l0.19,1.38l0.06-0.2l-0.07-1.21l0.43-0.06c0.15-0.55,0.3-1.1,0.45-1.65l-0.27,1.62l7.14-1.01
		c-0.35-1.9-0.69-3.81-1.02-5.72l0.46-0.06c-0.89-4.88-1.74-9.77-2.53-14.67c0-5.77,0.14-11.52,0.43-17.25
		c0.52,12.29,1.46,24.53,2.6,36.71l2.94-0.41l0.28,2.08l-0.13-2.1l0.89-0.12l0.45,4.97l4.1-0.58l-0.55-4.79
		c0.74,1.52,1.5,3.04,2.28,4.55l0.69-0.1c-0.23-1.77-0.46-3.54-0.69-5.3c0.34,1.75,0.7,3.5,1.06,5.25l1.23-0.17l-0.18-0.98
		l2.93-0.41l0.26,1.89c-0.14-2.19-0.25-4.37-0.34-6.55l0.11-0.02c-0.26-1.96-0.56-3.66-0.69-4.48c0.39,1.47,0.8,2.93,1.24,4.4
		l0.31-0.04l0.13,1.5c0.2,0.66,0.41,1.31,0.62,1.97c-0.29,1.67-0.59,3.33-0.9,4.99c2.7,0.68,5.41,1.36,8.11,2.03
		c0.25-2.63,0.49-5.27,0.71-7.9c0.33,0.58,0.67,1.13,1,1.63l0.19-0.03c-0.03,0.61-0.07,1.22-0.11,1.83
		c0.08-0.62,0.16-1.23,0.24-1.85l0.76-0.11l-0.1,0.58l0.67,0.1l-0.07,1.17l0.15-1.16l4.23,0.61l0.05,0.55l1.57-0.22l-0.29,1.64
		l2.91,0.42l0.11,0.8l-0.05-0.8l5.14,0.74l0.15-1.62l1.26,0.18c-0.06,1.11-0.12,2.22-0.19,3.33c0.15-1.1,0.29-2.2,0.42-3.29
		l3.88,0.56c0.12-1.35,0.24-2.7,0.36-4.04l3.92-0.55l0.08-0.01l0.58-0.08c-0.24,0.71-0.48,1.42-0.67,2.08l-0.1,0.59l1.85,0.27
		c0.41-0.64,0.83-1.37,1.25-2.14c0.15,1.62,0.3,3.24,0.46,4.86l3.71-0.9l2.56,0.37l0.35-1.08l1.5-0.36
		c-0.17-0.92-0.35-1.84-0.52-2.76l0.24-0.79l0.13-1.54l0.31,0.04c0.44-1.51,0.86-3.03,1.25-4.54c-0.13,0.84-0.43,2.59-0.69,4.62
		l0.11,0.02c-0.09,2.25-0.21,4.5-0.34,6.75l0.26-1.95l2.93,0.42l-0.18,1.01l1.23,0.18c0.36-1.8,0.71-3.61,1.06-5.41
		c-0.23,1.82-0.46,3.64-0.69,5.47l0.69,0.1c0.67-1.35,1.33-2.7,1.98-4.06V111.7l0.88,27l2.97,0.43l0.45-5.12l0.89,0.13l-0.13,2.17
		l0.28-2.15l2.94,0.43c1.14-12.55,2.08-25.17,2.6-37.83c0.28,5.91,0.43,11.83,0.43,17.78c-0.79,5.05-1.64,10.09-2.53,15.12
		l0.46,0.07c-0.33,1.97-0.68,3.93-1.02,5.89l7.14,1.04l-0.27-1.67c0.14,0.57,0.29,1.13,0.45,1.7l0.43,0.06l-0.07,1.24l0.06,0.21
		l0.19-1.43l0.19,0.03l0.08-0.88l1.64,0.24l-0.09,0.5l3.62,0.52c-0.65-2.31-1.29-4.62-1.85-6.93c-0.04-0.49,0.07-0.89,0.36-1.37
		c-0.09-0.16,0.59-1.06,0.83-1.33c-0.14,0.18-0.85,1.29-0.57,1.35c-0.28,0.46-0.38,0.86-0.34,1.33c0.53,1.32,1.64,4.18,2.97,7.15
		l3.09,0.45l0.04-0.41l-0.49-1.26l0.55,0.64c2.03-22.49,3.38-45.2,2.83-67.97c1.51,22.75,1.47,45.75-1.17,68.87
		c6.84-36.52,7.07-72.72,5.58-108.28L229.82,30.84z M144.12,106.23c-0.01-5.89,0.15-11.76,0.44-17.62c0.29,12.84,1.21,25.77,3,38.79
		l0.18,1.95C146.39,121.67,145.17,113.96,144.12,106.23z M148.07,130.19c0.12,1.06,0.25,2.11,0.39,3.17l-0.56-3.14L148.07,130.19z
		 M166.87,21.62l-0.08,0.8l-0.23-2.54l0.32,1.75L166.87,21.62z M167.07,22.9c-0.05-0.36-0.1-0.72-0.15-1.07l0.19,1.06L167.07,22.9z
		 M185.13,132.8c-0.13-0.71-0.26-1.41-0.38-2.12c0.24-0.28,0.49-0.56,0.73-0.84c0.06,0.49,0.12,0.99,0.19,1.48
		C185.49,131.8,185.31,132.29,185.13,132.8z M185.86,130.81c-0.02-0.44-0.05-0.88-0.07-1.33c0.35-0.41,0.71-0.82,1.05-1.23
		C186.73,128.56,186.33,129.55,185.86,130.81z M204.6,86.73l-0.88,0.44c-7.54,3.71-14.49,5.41-20.6,2.64
		c19.82,0.42,25.76-20.07,42.96-16.18C218.58,78.35,211.36,83.3,204.6,86.73z"/>
	<path class="st12" d="M146.34,141.31c0.12,0.2,0.05,0.46-0.15,0.57c-0.2,0.12-0.46,0.05-0.57-0.15l-2.37-4.11
		c-0.12-0.2-0.05-0.46,0.15-0.57c0.2-0.12,0.46-0.05,0.57,0.15L146.34,141.31z M165.63,134.15c0.51,0.88,0.2,2.02-0.68,2.53
		l-18.07,10.43c-0.88,0.51-2.02,0.2-2.53-0.68l-17.41-30.15c-0.51-0.88-0.2-2.02,0.68-2.53l18.07-10.43
		c0.88-0.51,2.02-0.2,2.53,0.68L165.63,134.15z M142.16,134.06l-9.68-16.77c-0.12-0.2-0.37-0.27-0.57-0.15
		c-0.2,0.12-0.27,0.37-0.15,0.57l9.68,16.77c0.12,0.2,0.37,0.27,0.57,0.15C142.2,134.51,142.27,134.26,142.16,134.06z
		 M146.34,141.31l-2.37-4.11c-0.12-0.2-0.37-0.27-0.57-0.15c-0.2,0.12-0.27,0.37-0.15,0.57l2.37,4.11c0.12,0.2,0.37,0.27,0.57,0.15
		C146.39,141.76,146.46,141.51,146.34,141.31z M133,89.54l-10.95,6.32c-1.24,0.72-1.67,2.32-0.96,3.57l7.36,12.75l15.47-8.93
		l-7.36-12.75C135.84,89.26,134.24,88.83,133,89.54z"/>
	<path class="st13" d="M242.57,62.63c-0.57,0.21-1.14,0.4-1.7,0.59c-14.35-8.07-27.42-21.07-43.71-23.01
		c-7.55-0.87-14.87,4.15-19.57,4.49c-4.71-0.34-12.02-5.36-19.57-4.49c-16.97,2.02-30.45,16.05-45.52,23.99
		c-1.69-0.42-3.36-0.95-5.06-1.57c-11.09-4.07-7.87,7.19-3.32,7.47c1.43,0.17,2.69,0.02,3.87-0.29c0.97-0.25,1.89-0.61,2.81-0.98
		c1.32,0.66,2.75,1.32,4.29,1.97c49.46,40.97,75.55,40.97,125,0c0.74-0.31,1.45-0.63,2.14-0.94c1.12,0.27,2.32,0.4,3.67,0.24
		C250.43,69.82,253.66,58.56,242.57,62.63z M183.13,89.81c19.82,0.42,25.76-20.07,42.96-16.18
		C209.81,83.87,194.9,95.16,183.13,89.81z M126.97,78.53l-13.96,1.15c-1.03,0.09-1.29,0.73-0.82,1.54l8.33,14.44l13.05-7.54
		l-5.15-8.91C127.98,78.42,127.86,78.45,126.97,78.53z M120.9,92.35c-0.2,0.11-0.46,0.05-0.57-0.15l-4.71-8.16
		c-0.12-0.2-0.05-0.46,0.15-0.57c0.2-0.12,0.46-0.05,0.57,0.15l4.71,8.16C121.16,91.98,121.1,92.24,120.9,92.35z"/>
</g>
</svg>
