<?xml version="1.0" encoding="utf-8"?>
<!-- Generator: Adobe Illustrator 27.8.1, SVG Export Plug-In . SVG Version: 6.00 Build 0)  -->
<svg version="1.1" id="Layer_1" xmlns="http://www.w3.org/2000/svg" xmlns:xlink="http://www.w3.org/1999/xlink" x="0px" y="0px"
	 viewBox="0 0 350 230" style="enable-background:new 0 0 350 230;" xml:space="preserve">
<style type="text/css">
	.st0{fill:#A15FAC;}
	.st1{fill:#002C6B;}
	.st2{fill:#56001D;}
	.st3{fill:#8C002F;}
	.st4{fill:#043866;}
	.st5{fill:#506600;}
	.st6{fill:#604500;}
	.st7{fill-rule:evenodd;clip-rule:evenodd;fill:#C600C6;}
	.st8{fill-rule:evenodd;clip-rule:evenodd;fill:#464748;}
	.st9{fill-rule:evenodd;clip-rule:evenodd;fill:#FF838C;}
	.st10{fill-rule:evenodd;clip-rule:evenodd;fill:#005968;}
	.st11{fill:#F9C1C4;}
	.st12{fill-rule:evenodd;clip-rule:evenodd;fill:#002B26;}
	.st13{fill-rule:evenodd;clip-rule:evenodd;fill:#6D0008;}
	.st14{fill:#5B0A54;}
	.st15{fill:#FFFFFF;}
	.st16{fill-rule:evenodd;clip-rule:evenodd;fill:#C97943;}
	.st17{fill-rule:evenodd;clip-rule:evenodd;fill:#E9CEEA;}
	.st18{fill-rule:evenodd;clip-rule:evenodd;fill:#034C42;}
	.st19{fill:#026683;}
	.st20{fill:#26BCBC;}
	.st21{fill:#001F59;}
	.st22{fill:#7D1839;}
	.st23{fill:#A8007D;}
	.st24{fill:#5B2F00;}
</style>
<path class="st19" d="M233.86,72.63c0.08,2.57,0.35,5.15,0.21,7.71c-0.34,6.48-2.18,12.48-6.3,17.62
	c-5.44,6.81-14.75,9.18-22.21,5.7c-0.83-0.39-1.6-0.88-2.43-1.35c2.51,4.02,9.95,6.41,18.24,2.59c-1.19,1.42-4.99,2.97-8.19,3.34
	c-2.8,0.32-4.47,0-8.78-1.72c3.04,3.61,10.05,3.94,16.76,0.81c-2.55,4-10.13,5.93-18.03,4.61c1.42,5.67,8.12,11.89,15.16,8.71
	c-0.6-1.13-0.98-1.36-5.13-2.96c2.27,0.03,4.27,0.54,6.07,1.64c0.67,0.41,1.09,0.33,1.66-0.13c2.68-2.14,4.72-4.7,5.52-8.11
	c0.03-0.14,0.12-0.26,0.21-0.44c0.33,3.55-1.76,7.72-5.33,10.69c1.93,3.46,1.19,6.71-0.85,9.82c-2.18,3.33-5.32,5.54-9.01,6.75
	c-4.07,1.34-8.27,2.32-12.44,3.34c-5.23,1.28-10.46,2.55-15.31,4.95c-1.98,0.98-3.92,2.12-5.7,3.44c-3.9,2.91-6.46,6.69-6.88,11.75
	c-0.61-2.47,0.16-6.25,1.85-9.07c2.92-4.85,7.27-8.02,12.3-10.4c4.91-2.33,10.16-3.43,15.46-4.42c3.72-0.69,7.41-1.52,10.88-3.1
	c3.15-1.44,5.76-3.5,7.47-6.57c0.96-1.73,1.51-3.52,0.71-5.55c-0.25,0.08-0.43,0.11-0.59,0.18c-4.93,2.37-11.36,0.81-15.2-3.94
	c-2.55-3.15-3.68-6.88-4.58-10.74c-1.83-7.91-3.73-15.8-5.61-23.69c-0.07-0.29-0.12-0.61-0.28-0.84c-0.16-0.22-0.47-0.49-0.68-0.46
	c-0.22,0.03-0.49,0.37-0.55,0.62c-0.18,0.79-0.2,1.62-0.42,2.4c-0.1,0.37-0.5,0.66-0.76,0.98c-0.3-0.28-0.7-0.5-0.89-0.84
	c-0.35-0.65-0.53-1.39-0.88-2.04c-0.24-0.45-0.64-0.81-1.16-1.43c-0.27,1.43-0.45,2.52-0.68,3.6c-1.24,5.64-4.57,9.85-9.31,12.93
	c-2.76,1.79-5.73,3.26-8.61,4.86c-0.52,0.29-1.07,0.51-1.59,0.81c-1.44,0.81-1.69,1.55-1.24,3.13c1.15,4.07,2.37,8.11,3.35,12.22
	c0.86,3.61,1.45,7.29,1.04,11.03c-0.12,1.12-0.4,2.22-0.61,3.33c-0.1-0.02-0.19-0.03-0.29-0.05c0.09-0.79,0.19-1.58,0.29-2.41
	c-3.89,0.74-7.72,1.34-11.47,2.24c-3.24,0.77-6.12,2.42-8.82,4.36c-5.01,3.61-7.13,8.74-7.79,14.65c-0.12,1.07-0.21,2.14-0.31,3.23
	c-1.41-8.71,1.06-15,7.84-19.42c4.45-2.9,9.43-4.24,14.66-4.79c1-0.1,2-0.14,2.99-0.25c1.89-0.2,2.94-1.27,2.86-3.15
	c-0.11-2.31-0.38-4.61-0.59-6.98c-0.33,0.11-0.44,0.12-0.45,0.16c-1.98,5.74-6.25,8.73-11.97,9.93c-4.24,0.89-8.4,0.44-12.49-0.97
	c-1.36-0.47-2.76-0.89-4.18-1.14c-2.68-0.49-3.99,0.21-5.36,2.6c0.25-2.89,2.01-4.38,5.06-4.1c1.84,0.17,3.66,0.56,5.48,0.89
	c2.48,0.45,5.65,0.07,7.22-1c-4.82,1.77-9.5-0.27-14.26-0.36c-0.01-0.1-0.03-0.19-0.04-0.29c0.44-0.09,0.89-0.27,1.33-0.24
	c1.59,0.08,3.18,0.22,4.77,0.34c4.58,0.35,8.77-0.58,12.33-3.67c0.11-0.1,0.26-0.15,0.6-0.35c-0.39-0.05-0.49-0.1-0.55-0.07
	c-3.2,1.7-6.55,1.85-10.06,1.17c-1.91-0.37-3.89-0.47-5.84-0.56c-0.74-0.03-1.51,0.3-2.33,0.27c0.97-0.24,1.93-0.61,2.91-0.68
	c1.36-0.09,2.74,0.13,4.11,0.09c2.13-0.06,4.27-0.16,6.4-0.38c0.69-0.07,1.4-0.51,2-0.91c2.34-1.54,2.93-4.21,1.46-6.6
	c-1.66-2.69-4.28-4.05-7.17-4.92c-2.48-0.75-5.03-1.29-7.51-2.04c-1.48-0.45-2.94-1.04-4.32-1.73c-3.06-1.54-4.59-3.43-5.61-6.65
	c-0.64,2.23,1.29,5.28,4.73,7.49c-2.13-0.09-5.07-1.95-6.58-4.16c-1.68-2.45-1.87-4.26-0.77-7.6c-0.74-0.07-1.48-0.11-2.21-0.22
	c-4-0.61-7.18-2.58-9.29-6.04c-3.2-5.26-0.86-11.57,4.99-13.71c0.58-0.21,1.19-0.36,1.86-0.38c-0.32,0.16-0.65,0.33-0.97,0.49
	c-3.57,1.81-5.04,5.76-3.47,9.43c3.5,8.19,12.74,8.36,17.35,3.31c-4.53,2.42-8.96,1.77-13.36-0.31c1.31,0.2,2.62,0.48,3.94,0.59
	c2.34,0.19,4.58-0.22,6.66-1.36c3.45-1.88,4.7-5.1,3.53-8.86c-0.78-2.48-2.24-4.52-3.97-6.36c-1.98-2.1-4.1-4.08-6.12-6.15
	c-3.91-3.97-7.04-8.44-8.39-13.93c-2.7-10.96,2.97-21.16,13.92-25.04c3.78-1.34,7.64-1.78,11.58-0.71c0.09,0.02,0.2-0.02,0.32-0.04
	c-4-3.68-12.04-2.66-19.51,2.54c0.22-0.46,0.33-0.75,0.5-1.01c3.72-5.75,8.76-9.58,15.74-10.19c2.04-0.18,4.23,0.21,6.21,0.81
	c3.05,0.92,4.72,3.29,5.46,6.35c0.39,1.62,0.76,3.25,1.32,4.82c0.33,0.94,1.01,1.75,1.71,2.55c-1.21-2.43-0.67-4.95-0.63-7.44
	c0.08-4.93-3.53-8.72-8.81-9.31c-3.67-0.41-7.16,0.25-10.5,1.78c-0.3,0.14-0.6,0.28-0.91,0.42c-0.03,0.01-0.07-0.01-0.31-0.06
	c0.64-0.56,1.16-1.1,1.75-1.53c4.95-3.53,10.44-4.6,16.28-3.11c6.93,1.77,10.55,8.92,8.28,15.9c-0.12,0.38-0.26,0.76-0.43,1.26
	c2.02-2.09,2.29-5.96,0.81-10.64c3.48,3.72,3.45,9.96-0.06,14.27c2.24-0.86,4.36-3.82,4.63-6.75c0.5-5.51-1.62-9.85-6.3-13.25
	c5.98,2.53,9.83,6.51,10.92,13.15c0.16-0.48,0.26-0.68,0.29-0.89c0.73-5.06-1.55-8.68-5.6-11.36c-3.32-2.2-7.06-3.2-11-3.53
	c-0.36-0.03-0.73-0.06-1.07-0.2c8.85-1.26,16.63,0.92,23.21,7.25c-1.55-4.7-5.15-7.13-9.75-8.85c0.44,0,0.63-0.03,0.8,0
	c2.76,0.59,5.3,1.63,7.53,3.41c6.36,5.08,6.69,13.6,0.62,19.05c-1.47,1.32-3.26,2.29-4.99,3.29c-1.73,1-3.56,1.82-5.36,2.7
	c-0.25,0.12-0.57,0.22-0.82,0.16c-5.67-1.29-11.05-0.12-16.29,1.98c-1.78,0.71-3.46,1.68-5.17,2.58c-1.25,0.65-2,1.72-2.38,3.07
	c-1.25,4.37-1.52,8.83-1.21,13.34c0.04,0.59,0.25,0.84,0.84,0.93c1.46,0.23,2.93,0.48,4.37,0.82c0.53,0.13,1.11,0.45,1.46,0.85
	c3.64,4.13,3.75,9.24,0.37,14.23c-0.6,0.89-1.25,1.73-1.03,2.94c0.27,1.47,1.14,2.42,2.44,2.94c1.07,0.43,1.32,1.15,1.22,2.16
	c-3.43-0.76-5.32-5.46-3.38-8.25c0.69-1,1.29-2.07,1.9-3.13c0.18-0.31,0.27-0.67,0.4-1c-0.08-0.06-0.16-0.13-0.24-0.19
	c-0.42,0.45-0.83,0.89-1.29,1.38c0.03-0.23,0.05-0.44,0.1-0.87c-0.6,0.42-1.09,0.76-1.6,1.11c-0.13-0.11-0.29-0.23-0.48-0.38
	c-0.35,0.38-0.67,0.74-0.99,1.1c-0.05-0.03-0.09-0.05-0.14-0.08c0.08-0.23,0.16-0.47,0.24-0.72c-2.12,0.17-2.12,0.22-2.36,2.22
	c-0.64,5.38,0.47,10.37,2.99,15.14c1.87,3.54,3.6,7.15,5.37,10.74c1.39,2.82,3.93,4.28,7.29,3.56c2.84-0.61,5.64-1.56,8.31-2.71
	c4.25-1.83,8.46-3.79,12.52-6c5.48-2.98,8.4-7.78,9.03-13.98c0.02-0.22,0.06-0.44,0.11-0.66c0.02-0.1,0.07-0.2,0.14-0.38
	c0.55,0.23,1.08,0.46,1.64,0.69c0.43-1.54,0.85-3.05,1.27-4.55c0.17-0.01,0.35-0.01,0.52-0.02c0.43,1.5,0.85,2.99,1.31,4.59
	c1.31-0.05,1.9-0.99,2.25-2.05c0.87-2.64,1.74-5.28,2.44-7.97c0.76-2.91,0.67-2.95-2.25-3.43c-2.5-0.41-4.94-0.98-7.17-2.37
	c0.45,5.98-1.08,9.08-5.19,10.65c-3.85,1.47-8.14,0.21-10.54-3.25c0.49,0.37,0.97,0.75,1.47,1.11c3.61,2.63,8.53,1.85,10.89-1.72
	c1.38-2.09,1.44-4.41,0.67-6.63c-0.97-2.82-2.25-5.53-3.38-8.25c2.7,2.03,5.9,3.16,9.36,3.5c1.99,0.2,3.99,0.27,5.99,0.39
	c3.13,0.19,6.26,0.38,9.2,0.55c-0.89-0.29-1.99-0.8-3.14-0.99c-3.18-0.52-6.37-1.09-9.57-1.31c-8.43-0.58-14.65-5.18-17.43-13.11
	c-0.27-0.77-0.53-1.54-0.79-2.31c-1.39-4.02-3.36-5.46-7.59-5.63c0.49-0.19,0.98-0.39,1.47-0.58c2.9-1.14,5.79-2.32,8.28-4.26
	c2.3-1.79,3.86-4.06,4.68-6.87c0.13-0.44,0.6-0.93,1.03-1.09c2.48-0.94,4.98-0.52,7.44,0.13c5.04,1.33,9.1,4.25,12.58,8.02
	c3.79,4.11,6.59,8.85,8.63,14.04c0.17,0.44,0.3,0.9,0.51,1.53c-5.14-0.56-9.98,0.03-14.51,2.11c2.18-0.28,4.41-0.75,6.65-0.81
	c10.44-0.25,17.84,4.58,21.71,14.29c3.17,7.97,3.48,16.04,0.01,24.04c-1.97,4.54-5.1,8.14-9.28,10.82
	c-0.18,0.12-0.36,0.24-0.64,0.43c4.49-0.69,10.61-5.66,13.65-11.08c3-5.37,3.84-11.23,3.6-17.31
	C233.59,72.62,233.73,72.62,233.86,72.63z M221.95,64.98c0.12,0.34,0.25,0.68,0.35,1.03c2.04,6.95,1.61,13.73-1.79,20.16
	c-2.65,5-7.28,7.41-12.55,6.8c-2.57-0.3-4.74-1.47-6.69-3.13c1.25,2.35,3.16,3.89,5.75,4.45c4.24,0.92,8.02-0.22,11.32-2.91
	c3.53-2.87,5.38-6.73,6.12-11.15C225.34,74.88,224.49,69.77,221.95,64.98z M139.25,77.13c0.06-0.29,0.11-0.39,0.1-0.49
	c-0.03-0.26-0.08-0.51-0.13-0.77c-0.49-2.24-1.69-4.11-3.2-5.77c-1.52-1.67-3.13-3.27-4.73-4.86c-3.13-3.1-5.5-6.69-7.02-10.82
	c-1.14-3.08-1.69-6.28-1.83-9.57c-0.04,2.14-0.1,4.29,0.22,6.39c1.12,7.49,4.17,14.02,10.03,19.03
	C135.07,72.32,137.72,74.08,139.25,77.13z M149.1,70.1c0.44-2.63-0.55-4.75-2.83-5.76c-1.41-0.62-2.92-1.03-4.42-1.43
	c-1.94-0.52-2.62,0.16-2.25,2.13c0.06,0.32,0.13,0.67,0.29,0.95c0.89,1.49,1.8,2.97,2.75,4.42c0.15,0.22,0.54,0.44,0.79,0.42
	C145.31,70.62,147.18,70.36,149.1,70.1z M208.12,47.83c0-0.05,0.01-0.09,0.01-0.14c-1.47,0.14-2.94,0.28-4.4,0.41
	c-4.09,0.34-8.19,0.96-12.28,0.92c-5.86-0.05-10.99-2.19-14.95-6.72c-0.1-0.11-0.23-0.18-0.35-0.27c-0.08,0.07-0.17,0.14-0.25,0.21
	c0.86,1.27,1.61,2.64,2.6,3.8c3.91,4.59,9.04,5.69,14.71,4.71C198.2,49.9,203.15,48.82,208.12,47.83z M206.19,71.61
	c0.07-0.06,0.14-0.13,0.21-0.19c-0.2-0.33-0.38-0.68-0.61-1c-2.06-2.97-5-4.4-8.5-4.85c-1.84-0.24-3.67-0.47-5.49-0.8
	c-3.18-0.57-5.88-2.07-8.16-4.36c2.23,2.99,4.78,5.52,8.7,6.07c1.36,0.19,2.72,0.32,4.08,0.46
	C200.21,67.35,203.87,68.04,206.19,71.61z M212.21,80.32c3.18-1.81,5.13-4.23,5.49-7.69c0.5-4.85-1.78-8.47-5.29-11.5
	c-0.4-0.34-0.84-0.63-1.26-0.95C217.53,68.21,217.86,73.04,212.21,80.32z M180.64,39.94c4.56,7.78,14.63,8.78,21.41,5.71
	C194.16,46.58,186.71,45.9,180.64,39.94z M199.38,89.75c0.36,3.48,2.84,6.47,6.47,7.59c3.63,1.12,6.9,0.4,10.04-2.12
	C209.02,96.87,202.95,96.89,199.38,89.75z M128.19,33.82c4.56-3.51,9.36-5.54,15.34-2.8c-1.19-1.46-2.48-2.26-4.08-2.44
	C134.63,28.06,131.07,30.27,128.19,33.82z M196.8,42.79c-2.21-0.79-4.68-1.52-7.02-2.54c-2.41-1.05-4.34-2.81-6.02-4.83
	C185.83,40.17,191.4,43.21,196.8,42.79z M142.95,103.32c-1.66,0-3.4,0.26-5.02-0.07c-1.59-0.32-3.05-1.24-4.38-1.81
	C135.43,104.57,139.83,105.52,142.95,103.32z M135.29,98.64c1.82,3.75,6.98,4.49,10.15,1.34
	C141.62,101.73,138.29,101.37,135.29,98.64z M161.95,90.52c-2.9,3.34-6.2,5.58-10.79,5.09c-1.46-0.16-2.02-0.8-2.23-2.29
	c-0.04-0.3-0.16-0.68-0.37-0.86c-1.03-0.85-1.12-1.95-0.92-3.13c0.22-1.28,0.71-1.62,1.98-1.47c0.31,0.04,0.67,0.05,0.95-0.08
	c1.54-0.7,3.01-0.52,4.49,0.21c1.36,0.67,2.71,1.36,4.12,1.92C159.97,90.23,160.88,90.3,161.95,90.52z M155.94,91.51
	c0-0.14,0-0.28,0-0.41c-1.38-0.05-2.77-0.11-4.15-0.13c-0.14,0-0.28,0.24-0.42,0.37c0.15,0.12,0.3,0.35,0.45,0.35
	C153.19,91.65,154.57,91.57,155.94,91.51z M184.05,149.22c3.87,0.74,7.77,1.11,11.71,1.03c8.58-0.17,15.89-3.22,21.77-9.52
	c1.15-1.23,2.07-2.67,3.1-4.01c-0.08-0.07-0.17-0.13-0.25-0.2c-2.96,3.73-6.71,6.45-11.14,8.03c-3.86,1.38-7.84,2.46-11.83,3.39
	c-4.6,1.06-9.3,1.38-14.05,1.05C183.59,149.07,183.81,149.18,184.05,149.22z M176.43,59.71c-2.46-1.27-4.91-2.57-7.38-3.81
	c-2.64-1.33-5.3-1.5-7.98-0.05c-1.59,0.86-3.25,1.62-4.85,2.46c-1.66,0.87-2.24,2.89-1.3,4.75c0.54-0.32,1.08-0.6,1.59-0.94
	c1.15-0.8,2.27-1.66,3.43-2.46c3.38-2.3,6.89-3.22,10.88-1.46c1.77,0.78,3.72,1.15,5.59,1.7C176.41,59.85,176.42,59.78,176.43,59.71
	z M148.32,119.22c-2.14,1.51-4.55,1.65-6.98,0.64c-1.46-0.61-2.22-1.69-1.97-2.73c0.27-1.13,1.18-1.53,3.11-1.31
	c-0.84-1.19-1.84-2-3.14-2.42c-1.34-0.44-2.35,0.02-2.86,1.33c-0.62,1.61-0.36,3.13,0.59,4.54c2.66,3.97,8.91,4.43,12.14,0.89
	c1.01-1.11,1.56-2.4,1.51-3.67C149.98,117.34,149.32,118.51,148.32,119.22z M190.76,89.06c-0.79,3.12-1.12,6.28-0.61,9.46
	c0.18,1.1,0.61,2.21,1.18,3.18c0.29,0.5,1.21,1.03,1.69,0.91c0.62-0.16,1.33-0.87,1.53-1.49c0.28-0.88,0.36-1.96,0.11-2.84
	c-0.96-3.29-2.09-6.54-3.16-9.79c-0.04-0.12-0.17-0.21-0.37-0.44C190.96,88.48,190.83,88.76,190.76,89.06z M157.68,69.16
	c0.63-0.12,0.96-0.18,1.31-0.25c-0.03,0.34-0.05,0.61-0.09,0.97c0.6-0.19,1.08-0.33,1.6-0.5c0.04,0.28,0.08,0.49,0.13,0.8
	c0.6-0.62,1.12-1.09,1.49,0.05c0.31-0.34,0.58-0.63,0.89-0.98c0.29,0.33,0.51,0.58,0.8,0.9c0.26-1.42,1-1.47,1.99-0.75
	c0.05-0.34,0.09-0.59,0.13-0.86c0.4,0.04,0.76,0.07,1.11,0.1c0.02-1.34,0.97-0.52,1.53-0.71c-0.2-0.17-0.37-0.32-0.55-0.48
	c1.42-1.27,2.8-2.51,4.18-3.75c-1,0.18-1.86,0.61-2.75,0.92c-2.79,0.96-5.59,1.87-8.39,2.79c-1.04,0.34-1.9,0.11-2.58-0.94
	C159.27,67.61,158.83,68.38,157.68,69.16z M126.18,84.78c-0.68-0.48-1.39-0.94-1.1-1.96c0.3-1.03,1.19-0.53,1.81-0.75
	c0.53-0.19,0.97-0.88,1.23-1.45c0.11-0.26-0.22-0.89-0.53-1.13c-0.97-0.74-2.82-0.62-3.76,0.15c-0.91,0.74-1.23,2.25-0.74,3.47
	c0.52,1.31,1.57,1.95,3.1,1.86C126.18,84.85,126.2,84.79,126.18,84.78z M143.7,156.4c1.71-6.04,4.6-11.32,8.89-16.17
	C147.35,143.12,143.11,150.92,143.7,156.4z M193.93,152.65c-4.33,2.45-8.65,4.9-12.98,7.36c0.41,0.25,0.81,0.34,1.15,0.24
	c0.99-0.29,2.06-0.49,2.91-1.03c3.1-2,6.13-4.12,9.18-6.19C194.11,152.89,194.02,152.77,193.93,152.65z M183.07,64.13
	c2.01,3.85,0.92,10.61-5.56,11.08c-0.04,0-0.08,0.07-0.13,0.12c4.71,0.59,7.94-2.63,7.42-7.3c-0.32-2.83-1.92-5.05-3.46-7.31
	C181.92,61.85,182.48,62.99,183.07,64.13z M194.6,71.36c-0.07-1.11-0.71-1.7-1.95-1.91c-1.16-0.19-2.11,0.16-2.35,1.15
	c-0.4,1.64-0.6,3.33-0.88,5c0.41-0.13,0.62-0.3,0.69-0.53c0.38-1.15,0.79-2.3,1.05-3.47c0.17-0.75,0.47-1.27,1.27-1.26
	c0.8,0,1.21,0.52,1.26,1.28c0.03,0.51,0.04,1.04-0.05,1.55c-0.17,0.93-0.42,1.85-0.64,2.78C193.91,74.54,194.71,73.09,194.6,71.36z
	 M188.53,152.82c-1.86,0.98-3.73,1.96-5.52,3.05c-0.62,0.38-1.04,1.08-1.55,1.64c0.11,0.12,0.22,0.24,0.33,0.35
	c3.39-1.18,5.89-3.77,8.68-5.84C189.82,152.28,189.14,152.49,188.53,152.82z M168.4,139.5c-1.13-0.87-2.19-1.86-3.41-2.58
	c-1.55-0.9-3.22-1.6-4.86-2.33c-0.33-0.14-0.77-0.02-1.17-0.02c0,0.06,0.01,0.13,0.01,0.19c3.12,1.6,6.25,3.21,9.37,4.81
	C168.36,139.55,168.38,139.53,168.4,139.5z M175.36,50.51c-0.08-0.51-0.13-1.02-0.24-1.51c-0.41-1.76-0.67-3.58-1.33-5.25
	c-0.88-2.2-3.66-3.52-5.83-2.94c4.06,0.76,5.91,3.39,6.55,7.12c0.15,0.88,0.45,1.74,0.68,2.62
	C175.26,50.54,175.31,50.52,175.36,50.51z M153.16,82.01c-0.5-1.4-2.25-1.84-3.27-0.85C151,81.45,152.03,81.72,153.16,82.01z
	 M156.09,80.64c-0.61,0.72-1.27,1.51-1.88,2.23C155.63,82.93,156.49,81.88,156.09,80.64z"/>
</svg>
