<?xml version="1.0" encoding="utf-8"?>
<!-- Generator: Adobe Illustrator 27.8.1, SVG Export Plug-In . SVG Version: 6.00 Build 0)  -->
<svg version="1.1" id="Layer_1" xmlns="http://www.w3.org/2000/svg" xmlns:xlink="http://www.w3.org/1999/xlink" x="0px" y="0px"
	 viewBox="0 0 350 230" style="enable-background:new 0 0 350 230;" xml:space="preserve">
<style type="text/css">
	.st0{fill:#A15FAC;}
	.st1{fill:#002C6B;}
	.st2{fill:#56001D;}
	.st3{fill:#8C002F;}
	.st4{fill:#043866;}
	.st5{fill:#506600;}
	.st6{fill:#604500;}
	.st7{fill-rule:evenodd;clip-rule:evenodd;fill:#C600C6;}
	.st8{fill-rule:evenodd;clip-rule:evenodd;fill:#464748;}
	.st9{fill-rule:evenodd;clip-rule:evenodd;fill:#FF838C;}
	.st10{fill-rule:evenodd;clip-rule:evenodd;fill:#005968;}
	.st11{fill:#F9C1C4;}
	.st12{fill-rule:evenodd;clip-rule:evenodd;fill:#002B26;}
	.st13{fill-rule:evenodd;clip-rule:evenodd;fill:#6D0008;}
	.st14{fill:#5B0A54;}
	.st15{fill:#FFFFFF;}
	.st16{fill-rule:evenodd;clip-rule:evenodd;fill:#C97943;}
	.st17{fill-rule:evenodd;clip-rule:evenodd;fill:#E9CEEA;}
	.st18{fill-rule:evenodd;clip-rule:evenodd;fill:#034C42;}
	.st19{fill:#026683;}
	.st20{fill:#26BCBC;}
	.st21{fill:#001F59;}
	.st22{fill:#7D1839;}
	.st23{fill:#A8007D;}
	.st24{fill:#5B2F00;}
</style>
<g>
	<path class="st22" d="M163.49,25.01c1.22-1.17,2.38-2.28,3.65-3.5c0.21,0.48,0.43,0.8,0.48,1.14c0.49,3.3,1.65,6.39,3.49,9.13
		c2.28,3.4,4.64,6.78,7.26,9.93c2.82,3.38,6.67,5.5,10.5,7.58c3.69,2,7.4,3.97,11.03,6.07c3.73,2.16,6.91,5.01,9.8,8.18
		c0.4,0.44,0.5,1.17,0.73,1.77c0.19,0.49,0.24,1.11,0.57,1.46c3.61,3.83,5.58,8.45,6.7,13.51c1.16,5.28,1.45,10.64,1.58,16.02
		c0.09,3.97,0.11,7.94,0.25,11.9c0.26,7.52,2.35,14.55,5.88,21.17c0.58,1.1,1.21,2.17,1.81,3.26c0.11,0.19,0.19,0.4,0.28,0.61
		c-0.06,0.05-0.13,0.1-0.19,0.16c-0.28-0.3-0.61-0.55-0.83-0.89c-1.36-2.16-2.81-4.28-4.03-6.52c-3.54-6.55-5.03-13.61-4.88-21.02
		c0.09-4.69,0.42-9.38,0.48-14.08c0.04-3.11-0.02-6.25-0.86-9.3c-1.44-5.21-4.43-9.43-8.33-13.06c-3.56-3.31-7.67-5.86-11.85-8.31
		c-4.05-2.37-8.18-4.59-12.17-7.06c-4.89-3.03-9.37-6.65-13.77-10.36c-2.06-1.74-4.07-3.55-5.99-5.44
		c-2.07-2.03-3.14-4.58-3.36-7.47c-0.02-0.25-0.07-0.5-0.14-0.97c-0.21,0.43-0.35,0.66-0.45,0.91c-2.07,5.34-4.84,10.29-7.92,15.11
		c-1.9,2.98-3.55,6.13-5.2,9.25c-0.96,1.82-0.65,3.78-0.26,5.72c0.32,1.58,0.69,3.18,0.73,4.79c0.08,3.09-1.05,5.78-3.18,8.03
		c-2.21,2.34-4.76,4.24-7.62,5.73c-0.57,0.3-1.12,0.7-1.59,1.15c-1.06,1-1.23,2.13-0.62,3.46c0.6,1.29,1.55,2.28,2.69,3.1
		c0.68,0.5,1.36,0.99,2.12,1.54c-1.12,1.19-2.21,2.36-3.37,3.58c0.63,0.13,1.17,0.23,1.71,0.37c1.57,0.43,2.88,1.34,4.17,2.28
		c0.66,0.48,1.35,0.94,2.02,1.41c1.11,0.8,2.32,1.07,3.67,0.76c0.17-0.04,0.37-0.01,0.58-0.01c-0.02,0.68-0.48,1.01-1,1.1
		c-1.27,0.19-2.55,0.41-3.82,0.38c-1.68-0.04-3.36-0.32-5.04-0.49c-0.12-0.01-0.23-0.02-0.35-0.02c-0.48,0-0.83,0.18-0.86,0.72
		c-0.03,0.54,0.31,0.78,0.78,0.81c0.7,0.06,1.41,0.06,2.11,0.07c1.01,0.03,2.02,0.04,3.03,0.08c0.29,0.01,0.59,0.07,0.97,0.12
		c-1.58,2.23-4.26,2.78-6.17,4.58c0.93,0.52,1.77,1.02,2.63,1.48c1.46,0.79,1.64,1.31,0.8,2.73c-0.55,0.93-1.2,1.8-1.72,2.74
		c-0.33,0.59-0.61,1.24-0.73,1.89c-0.35,2.02,0.95,3.46,3.09,3.53c4.75,0.15,9.47-0.15,14.16-1.01c7.87-1.45,15.54-3.56,22.8-6.97
		c5.28-2.48,10.1-5.66,14.55-9.43c0.62-0.52,1.28-0.99,2.08-1.62c-0.04,0.81,0.04,1.43-0.11,2c-1.44,5.63-4.05,10.58-8.53,14.42
		c-2.86,2.45-6.14,4.13-9.69,5.3c-1.74,0.57-3.48,1.12-5.22,1.7c-0.41,0.14-0.81,0.33-1.4,0.57c0.71,0.21,1.22,0.39,1.75,0.5
		c2.24,0.44,3.84,1.77,5.08,3.61c1.69,2.52,2.56,5.36,3.26,8.27c2.18,9.14,4.36,18.29,6.53,27.43c0.54,2.26,0.69,4.54,0.31,7
		c-0.79-0.54-1.58-0.98-2.25-1.57c-5.55-4.83-11.33-9.35-17.62-13.2c-4.8-2.93-9.64-5.81-14.51-8.64
		c-6.01-3.5-11.86-7.22-17.3-11.57c-4.58-3.66-8.71-7.72-11.86-12.71c-3.39-5.37-5.37-11.22-6.07-17.53
		c-1.14-10.28,1.27-19.74,6.44-28.59c3.22-5.52,7.13-10.52,11.28-15.35c0.06-0.07,0.11-0.14,0.1-0.27c-4.78,4-8.8,8.71-12.43,13.76
		c-3.64,5.06-6.44,10.55-8.27,16.53c-0.08,0-0.16,0-0.24,0.01c-0.03-0.18-0.12-0.38-0.08-0.55c1.06-4.63,2.55-9.11,4.65-13.39
		c4.23-8.58,10.21-15.76,17.44-21.96c3.56-3.05,7.39-5.69,11.57-7.83c0.4-0.2,0.77-0.44,1.15-0.68c1.33-0.84,1.82-1.98,1.6-3.59
		c-0.23-1.66-0.29-3.37-0.23-5.05c0.07-2.08,1.06-3.84,2.41-5.35c2.09-2.35,4.56-4.24,7.28-5.83c0.61-0.36,1.05-0.37,1.5,0.18
		C163.05,24.66,163.29,24.82,163.49,25.01z M166.06,32.43c-0.03,0.02-0.07,0.04-0.1,0.06c0.08,0.19,0.14,0.38,0.23,0.56
		c1.23,2.54,2.84,4.83,4.92,6.72c5.29,4.81,11.25,8.66,17.61,11.91c4.91,2.51,9.81,5.03,14.29,8.28c1.25,0.91,2.5,1.82,3.76,2.72
		c0.13,0.09,0.32,0.09,0.49,0.13c-0.02-0.16,0.02-0.36-0.06-0.49c-0.23-0.35-0.44-0.75-0.76-1c-2.07-1.62-4.03-3.42-6.27-4.76
		c-5.68-3.38-11.45-6.62-17.26-9.77c-5.61-3.04-10.72-6.64-14.68-11.73C167.53,34.17,166.79,33.31,166.06,32.43z M123.68,109.2
		c-3.16-14.2,0.39-26.82,8.97-38.27c-5.97,5.9-9.62,12.99-10.89,21.27C120.87,98.02,121.4,103.72,123.68,109.2z"/>
	<path class="st22" d="M229.78,103.13c3.77-12.71,4.77-25.43,0.87-38.3c0,2.65,0.1,5.28-0.03,7.89c-0.13,2.67-0.44,5.33-0.78,7.98
		c-0.33,2.6-0.95,5.15-1.58,7.69c-0.09-0.01-0.17-0.02-0.26-0.03c0-0.65-0.08-1.32,0.01-1.96c0.67-4.52,0.86-9.07,0.6-13.63
		c-0.32-5.43-1.07-10.78-3.01-15.91c-3.08-8.11-8.74-13.76-16.54-17.37c-4.42-2.04-9.1-3.2-13.85-4.13
		c-5.12-1-10.17-2.22-15.01-4.22c-4.05-1.67-6.87-4.48-8.23-8.69c-0.07-0.22-0.14-0.45-0.19-0.68c-0.1-0.51-0.18-1.01-0.3-1.7
		c1.24-0.32,2.46-0.75,3.71-0.94c7.79-1.19,15.41-0.32,22.8,2.32c9.55,3.41,17.61,9.08,24.32,16.64
		c6.29,7.09,10.34,15.37,12.59,24.55c0.93,3.79,1.55,7.63,1.62,11.54c0.09,4.96-0.51,9.84-1.56,14.66c-0.99,4.51-2.48,8.84-4.48,13
		C230.27,102.29,230.01,102.7,229.78,103.13z M207.96,35.56c0.01-0.02,0.01-0.03,0.02-0.05c-0.14-0.07-0.28-0.15-0.42-0.21
		c-3.11-1.36-6.35-2.27-9.65-3.01c-4.18-0.94-8.37-1.88-12.55-2.82c-3.06-0.69-5.57-2.17-7.24-4.91c-0.18-0.29-0.43-0.54-0.66-0.81
		c-1.03,1.06-1.06,1.76-0.38,2.86c1.2,1.93,3.11,2.85,5.14,3.47c2.01,0.62,4.09,1.03,6.16,1.44c4.87,0.97,9.76,1.87,14.64,2.85
		C204.67,34.7,206.31,35.16,207.96,35.56z M203.03,31.11c0.26-0.38,0.23-0.59-0.22-0.73c-2.02-0.62-4.01-1.3-6.04-1.9
		c-3.43-1.02-6.89-1.95-10.31-3.03c-1.33-0.42-2.57-1.13-3.87-1.68c-0.21-0.09-0.65-0.11-0.7-0.02c-0.14,0.27-0.19,0.62-0.15,0.91
		c0.03,0.23,0.21,0.5,0.41,0.62c1.62,1.02,3.18,2.18,5.11,2.6c1.6,0.35,3.2,0.72,4.81,1.05C195.73,29.67,199.38,30.38,203.03,31.11z
		"/>
	<path class="st22" d="M179.64,36.6c2.12,0.26,4.19,0.5,6.26,0.75c3.31,0.4,6.62,0.77,9.91,1.23c8.35,1.16,15.54,4.64,21.35,10.81
		c4.26,4.53,6.84,9.93,8.12,15.98c1.08,5.13,1.4,10.31,1.05,15.54c-0.31,4.62-1.24,9.15-2.06,13.69c-0.48,2.65-0.99,5.3-1.49,7.95
		c-0.04,0.19-0.12,0.38-0.17,0.56c-0.07,0-0.13,0-0.2,0c-0.07-0.46-0.17-0.93-0.2-1.39c-0.3-4.24-0.57-8.48-0.88-12.71
		c-0.45-6.03-0.81-12.08-2.54-17.94c-2.39-8.11-7.23-14.42-14.05-19.32c-4.12-2.96-8.73-4.93-13.48-6.59
		c-3.54-1.24-6.79-2.93-9.81-5.12C180.3,39.21,179.7,38.12,179.64,36.6z M223.71,82.13c0.07-0.01,0.15-0.01,0.22-0.02
		c-0.07-0.91-0.13-1.81-0.2-2.72c-0.32-3.95-0.45-7.93-1.43-11.79c-2.02-7.96-6.45-14.24-13.28-18.79c-1.27-0.85-2.65-1.5-4.15-1.89
		c0.29,0.28,0.61,0.51,0.94,0.71c3.74,2.24,6.96,5.09,9.73,8.46c3.13,3.81,5.46,8.05,6.42,12.91c0.65,3.28,0.94,6.64,1.38,9.96
		C223.49,80.01,223.59,81.07,223.71,82.13z"/>
	<path class="st22" d="M205.51,80.78c1.18,2.31,2.05,4.74,2.58,7.26c0.89,4.24,1.7,8.5,2.41,12.78c1,6.1,2.19,12.14,4.97,17.74
		c0.17,0.34,0.4,0.64,0.74,0.88c-0.42-2.04-0.91-4.06-1.24-6.12c-0.35-2.2-0.66-4.41-0.8-6.63c-0.23-3.61-0.21-7.23-0.47-10.83
		c-0.64-8.92-3.52-16.98-9.46-23.83c-3.71-4.27-8.15-7.63-13.04-10.38c-3.8-2.14-7.7-4.09-11.55-6.16c-1.28-0.69-2.5-1.49-3.77-2.19
		c-3.22-1.78-4.97-4.6-5.85-8.2c1.49,0.6,3.01,0.94,4.2,1.94c0.38,0.32,0.68,0.86,0.82,1.35c0.36,1.29,1.07,2.33,2.22,2.97
		c3.03,1.69,6.08,3.34,9.15,4.96c4.63,2.43,9.33,4.73,13.91,7.26c4.61,2.54,8.35,6.13,11.47,10.34c0.68,0.92,1.04,2.08,1.54,3.13
		c0.2,0.42,0.37,0.86,0.61,1.26c1.34,2.19,1.99,4.56,2.08,7.13c0.09,2.39,0.4,4.77,0.45,7.16c0.08,3.35,0.1,6.71-0.03,10.06
		c-0.23,6.37,0.44,12.6,2.61,18.63c1.8,5.02,4.28,9.69,7.37,14.03c0.22,0.31,0.34,0.68,0.37,1.13c-0.07-0.03-0.16-0.04-0.21-0.09
		c-4.86-5.18-8.84-11.01-12.52-17.04c-2.76-4.53-4.04-9.59-4.73-14.83c-0.77-5.83-1.63-11.66-2.54-17.47
		c-0.27-1.7-0.86-3.36-1.29-5.04c-0.09-0.37-0.12-0.76-0.17-1.14C205.39,80.82,205.45,80.8,205.51,80.78z"/>
	<path class="st22" d="M182.04,58.3c0.15,0.04,0.31,0.06,0.44,0.13c2.55,1.63,5.16,3.17,7.62,4.93c3.06,2.2,5.24,5.21,7.06,8.48
		c2.77,4.98,4.53,10.34,5.88,15.84c1.33,5.39,2.5,10.83,3.98,16.18c3,10.82,7.89,20.72,15.17,29.32c2.15,2.54,4.65,4.77,6.98,7.14
		c0.06,0.07,0.13,0.13,0.3,0.32c-0.25-0.08-0.37-0.1-0.46-0.16c-10.43-6.85-18.78-15.57-24.2-26.93c-2.11-4.42-3.55-9.06-4.78-13.79
		c-1.89-7.28-3.74-14.58-5.8-21.81c-1.39-4.89-3.37-9.57-6.64-13.55c-1.05-1.28-2.29-2.41-3.45-3.6c-0.75-0.77-1.5-1.53-2.25-2.3
		C181.95,58.44,181.99,58.37,182.04,58.3z"/>
	<path class="st22" d="M190.23,175.74c-0.5-0.55-1.01-1.08-1.49-1.64c-3.03-3.58-6.72-6.39-10.55-9.05
		c-7.23-5.04-14.96-9.23-22.71-13.39c-6.7-3.6-13.3-7.35-19.33-12.03c-10.61-8.25-17.25-18.95-19.94-32.1
		c-0.55-2.7-0.76-5.47-1.12-8.21c-0.03-0.25,0-0.51,0.09-0.78c0.26,1.24,0.52,2.49,0.78,3.73c1.4,6.72,3.54,13.17,7.12,19.08
		c3.94,6.5,9.11,11.84,15.3,16.22c5.97,4.23,12.43,7.6,18.86,11.05c5.04,2.71,10.05,5.48,14.94,8.43c4.7,2.83,8.91,6.32,12.63,10.39
		c2.01,2.2,3.85,4.55,5.29,7.18c0.17,0.3,0.23,0.67,0.34,1C190.37,175.65,190.3,175.69,190.23,175.74z"/>
	<path class="st22" d="M113.66,103.46c0.2,1.93,0.42,3.86,0.59,5.79c0.64,7.12,2.31,13.91,6.08,20.08c3.4,5.57,7.95,10,13.33,13.63
		c6.48,4.38,13.47,7.78,20.69,10.73c4.91,2,9.81,4.02,14.44,6.61c2.76,1.54,5.28,3.41,7.68,5.45c0.56,0.47,0.8,1.32,1.18,1.99
		c-0.07,0.07-0.13,0.14-0.2,0.21c-0.43-0.12-0.88-0.2-1.28-0.38c-4.14-1.83-8.28-3.66-12.4-5.53c-6.22-2.81-12.46-5.57-18.62-8.49
		c-5.46-2.58-10.61-5.71-15.3-9.55c-8.41-6.88-13.75-15.55-15.53-26.36c-0.76-4.64-1.01-9.28-0.79-13.96c0-0.08,0.03-0.16,0.04-0.24
		C113.6,103.46,113.63,103.46,113.66,103.46z"/>
	<path class="st22" d="M117.58,139.83c1.22,1.3,2.42,2.6,3.65,3.89c8.03,8.36,17.67,13.94,28.95,16.6
		c4.06,0.96,8.16,1.72,12.25,2.58c0.27,0.06,0.55,0.12,0.81,0.24c0.14,0.07,0.22,0.25,0.33,0.38c-0.15,0.08-0.3,0.22-0.45,0.22
		c-1.34,0.01-2.68,0.03-4.01-0.03c-8.72-0.41-16.9-2.78-24.56-6.95c-7.11-3.88-12.77-9.26-16.78-16.32
		c-0.09-0.16-0.17-0.33-0.26-0.49C117.52,139.89,117.55,139.86,117.58,139.83z"/>
	<path class="st22" d="M173.11,65.62c-3.58,2.99-7.27,5.79-11.92,7.05c0.03,0.26,0.06,0.48,0.09,0.72c-0.6,0.31-1.2,0.64-1.81,0.93
		c-0.15,0.07-0.39,0.13-0.53,0.06c-0.73-0.35-1.12-0.09-1.25,0.75c-0.46-0.28-0.86-0.54-1.3-0.81c-0.21,0.25-0.4,0.47-0.63,0.74
		c-0.33-0.42-0.65-0.81-0.97-1.23c-0.4,0.19-0.77,0.36-1.18,0.55c0.11-0.54,0.4-1.11,0.24-1.49c-0.17-0.41-0.84-0.57-1.18-0.95
		c-0.41-0.44-0.7-1-1.04-1.5c0.06-0.08,0.12-0.15,0.19-0.23c1.19,0.26,2.37,0.53,3.71,0.83c-0.65-0.92-1.22-1.72-1.81-2.56
		c1.01-0.79,1.97-1.67,3.05-2.34c0.52-0.33,1.31-0.48,1.92-0.38c1.24,0.2,2.47,0.54,3.65,0.99c2.63,1,5.2,0.77,7.76-0.19
		c0.74-0.28,1.46-0.64,2.19-0.95c0.24-0.1,0.5-0.14,0.75-0.2C173.06,65.49,173.08,65.56,173.11,65.62z"/>
	<path class="st22" d="M153.89,62.15c-1.16-1.72-0.98-3.49,0.49-4.8c2.16-1.93,4.72-2.38,7.49-1.98c4.5,0.65,8.16,2.9,11.36,6.01
		c0.03,0.03,0.03,0.08,0.11,0.29c-0.87-0.42-1.64-0.75-2.36-1.15c-2.1-1.18-4.31-2.04-6.72-2.36c-3.6-0.47-6.71,0.56-9.36,3.03
		C154.56,61.5,154.24,61.81,153.89,62.15z"/>
	<path class="st22" d="M137.73,82.92c0.15-0.84,0.67-1.39,1.39-1.32c1.46,0.13,2.75,0.67,3.61,1.9c0.27,0.39,0.41,0.95,0.39,1.43
		c-0.03,0.92-0.84,1.34-1.66,0.89c-0.99-0.53-1.97-1.09-2.89-1.73C138.21,83.83,138.01,83.32,137.73,82.92z"/>
</g>
</svg>
