<?xml version="1.0" encoding="utf-8"?>
<!-- Generator: Adobe Illustrator 27.8.1, SVG Export Plug-In . SVG Version: 6.00 Build 0)  -->
<svg version="1.1" id="Layer_1" xmlns="http://www.w3.org/2000/svg" xmlns:xlink="http://www.w3.org/1999/xlink" x="0px" y="0px"
	 viewBox="0 0 350 230" style="enable-background:new 0 0 350 230;" xml:space="preserve">
<style type="text/css">
	.st0{fill:#A15FAC;}
	.st1{fill:#002C6B;}
	.st2{fill:#56001D;}
	.st3{fill:#8C002F;}
	.st4{fill:#043866;}
	.st5{fill:#506600;}
	.st6{fill:#604500;}
	.st7{fill-rule:evenodd;clip-rule:evenodd;fill:#C600C6;}
	.st8{fill-rule:evenodd;clip-rule:evenodd;fill:#464748;}
	.st9{fill-rule:evenodd;clip-rule:evenodd;fill:#FF838C;}
	.st10{fill-rule:evenodd;clip-rule:evenodd;fill:#005968;}
	.st11{fill:#F9C1C4;}
	.st12{fill-rule:evenodd;clip-rule:evenodd;fill:#002B26;}
	.st13{fill-rule:evenodd;clip-rule:evenodd;fill:#6D0008;}
	.st14{fill:#5B0A54;}
	.st15{fill:#FFFFFF;}
	.st16{fill-rule:evenodd;clip-rule:evenodd;fill:#C97943;}
	.st17{fill-rule:evenodd;clip-rule:evenodd;fill:#E9CEEA;}
	.st18{fill-rule:evenodd;clip-rule:evenodd;fill:#034C42;}
	.st19{fill:#026683;}
	.st20{fill:#26BCBC;}
	.st21{fill:#001F59;}
	.st22{fill:#7D1839;}
	.st23{fill:#A8007D;}
	.st24{fill:#5B2F00;}
</style>
<path class="st21" d="M139.75,138.68c4.44,2.65,9.12,2.72,13.93,1.15c0.02,0.1,0.03,0.21,0.05,0.31c-0.96,0.33-1.89,0.75-2.87,0.98
	c-7.09,1.67-13.24-0.14-18-5.6c-4.78-5.47-5.43-11.85-2.92-18.56c1.66-4.42,4.56-7.94,8.3-10.8c0.28-0.21,0.56-0.42,0.93-0.71
	c-0.21,0-0.3-0.03-0.36,0c-5.98,3.61-10.51,8.41-12.55,15.26c-3.86,12.96,5.65,25.6,19.09,25.36c6.55-0.11,12.68-4.66,14.3-10.59
	c0.69-2.53,0.47-5.02-0.29-7.49c-0.12-0.39-0.19-0.79-0.28-1.19c0.11-0.04,0.22-0.08,0.33-0.12c0.54,1.12,1.19,2.2,1.61,3.36
	c2.26,6.32,1.76,12.26-2.8,17.46c-2.85,3.25-6.58,4.9-10.84,5.36c-5.94,0.65-11.67-0.06-16.71-3.46
	c-7.67-5.18-12.06-12.32-11.32-21.79c0.83-10.54,6.07-18.4,15.47-23.39c3.95-2.1,8.24-3.32,12.46-4.72
	c4.37-1.45,8.67-3.05,12.6-5.52c3.59-2.27,6.58-5.15,8.87-8.74c0.2-0.32,0.38-0.64,0.47-1.07c-0.07,0.06-0.16,0.1-0.21,0.17
	c-4.22,5.22-9.77,8.46-16.02,10.56c-4.94,1.66-9.98,3.04-14.94,4.64c-8.62,2.78-15.59,7.86-20.72,15.33
	c-7.43,10.8-5.24,25.31,3.23,34.04c2.13,2.2,4.53,4.13,6.81,6.18c0.26,0.23,0.51,0.47,0.67,0.85c-0.2-0.08-0.42-0.13-0.6-0.24
	c-7.24-4.64-13.33-10.38-17.45-18.04c-2.55-4.74-4.05-9.72-3.65-15.17c0.36-4.91,2.14-9.32,4.68-13.48c0.55-0.9,1.09-1.81,1.68-2.79
	c-4.95-1.35-8.12-4.51-9.71-9.25c-0.94-2.78-1.05-5.58-0.03-8.24c0.12,1.53,0.09,3.18,0.41,4.77c0.94,4.69,4.48,8.14,8.93,8.75
	c1.09,0.15,2.24,0.08,3.34-0.02c0.54-0.05,1.05-0.39,1.57-0.6c-0.03-0.11-0.05-0.23-0.08-0.34c-0.43,0.04-0.87,0.06-1.3,0.13
	c-4.36,0.69-8.58-1.4-10.52-5.22c-2.03-4-1.32-8.67,1.87-11.72c2.56-2.45,5.65-3.43,9.12-2.61c4.32,1.01,5.97,6.56,2.96,9.72
	c-1.19,1.25-2.66,1.75-4.35,1.33c-1.46-0.36-2.38-1.34-2.77-2.81c-0.2-0.77-0.06-1.44,0.53-2.18c0.03,0.3,0.05,0.48,0.06,0.66
	c0.14,2.58,2.76,4,5,2.71c1.78-1.03,2.59-2.83,2.26-5.06c-0.27-1.8-1.42-2.9-3.5-3.36c-3.68-0.8-7.88,1.5-9.51,5.19
	c-1.63,3.71-0.54,7.85,2.73,10.04c4.03,2.7,10.36,1.28,12.07-3.45c0.93-2.57,1.68-5.21,2.32-7.87c1.25-5.15,3.83-9.41,8.01-12.68
	c0.27-0.21,0.52-0.47,0.96-0.88c-1.03,0.18-1.84,0.37-2.65,0.46c-6.2,0.7-11.03-2.19-13.33-8.03c-1.42-3.62-1.62-7.34-0.64-11.11
	c0.07-0.26,0.15-0.51,0.24-0.76c0.03-0.08,0.1-0.14,0.25-0.35c-0.07,1.03-0.16,1.91-0.18,2.79c-0.09,3.39,0.5,6.64,2.25,9.59
	c3.59,6.03,11.81,8.18,17.49,4.5c-0.27,0.07-0.55,0.12-0.82,0.2c-8.63,2.4-17.55-3.93-18.14-12.86
	c-0.47-7.11,5.97-13.43,13.03-12.77c0.67,0.06,1.32,0.35,1.98,0.53c-0.02,0.07-0.03,0.14-0.05,0.21c-0.83,0.06-1.68,0.03-2.48,0.21
	c-4.41,0.99-6.86,4.01-8.08,8.15c-0.66,2.23-0.59,4.49,0.17,6.7c1.73,5.03,7.05,7.13,11.78,4.71c2.36-1.21,3.53-3,3.79-5.7
	c1.36-14.39,7.25-26.62,18.03-36.32c6.55-5.9,14.39-9.32,22.97-11.13c9.18-1.94,18.17-1.37,26.94,2.02
	c5.87,2.27,11.12,5.52,14.43,11.01c1.99,3.3,4.58,5.58,7.92,7.39c5.87,3.19,10.78,7.53,14.11,13.42c3.66,6.47,4.06,13.14,0.8,19.9
	c-1.45,3-3,5.94-4.55,8.89c-1.87,3.58-2.19,7.28-1.08,11.14c0.76,2.66,1.58,5.31,2.17,8.01c0.59,2.7-0.11,5.24-1.81,7.41
	c-1.16,1.48-2.47,2.85-3.73,4.25c-2.52,2.79-4.46,5.89-4.94,9.69c-0.87,6.85,3.63,12.61,10.49,13.5c0.67,0.09,1.34,0.16,2.05,0.39
	c-0.22,0.05-0.44,0.11-0.66,0.15c-6.21,1.1-13.52-3.92-15.38-10.22c-0.92-3.12-1.13-6.25-0.04-9.39c0.81-2.31,2.42-4.01,4.12-5.66
	c0.76-0.74,1.54-1.46,2.26-2.24c2.01-2.16,2.7-4.72,1.84-7.53c-0.74-2.43-1.74-4.79-2.63-7.18c-0.07,0.02-0.14,0.04-0.21,0.06
	c0.24,0.99,0.39,2,0.72,2.96c1.43,4.11,0.66,7.77-2.13,11.06c-0.97,1.15-1.93,2.31-2.96,3.4c-5.08,5.38-4.87,11.75-1.19,17.43
	c1.53,2.37,3.71,4.33,5.64,6.43c1.77,1.93,3.61,3.81,5.41,5.71c0.28,0.29,0.5,0.63,0.75,0.95c-0.05,0.06-0.11,0.11-0.16,0.17
	c-0.23-0.22-0.47-0.43-0.69-0.65c-6.23-6.28-13.54-10.65-22.21-12.63c-4.08-0.93-8.15-1.28-12.24-0.09
	c-7.26,2.12-12.53,8.63-13.06,16.18c-0.26,3.66,1.34,6.51,4.06,8.79c0.85,0.71,1.79,1.31,2.73,1.99c-0.12,0.01-0.22,0.05-0.28,0.03
	c-4.47-1.89-8.09-4.71-10.04-9.3c-1.17-2.76-1.19-5.62-0.48-8.5c1.12-4.51,2.84-8.8,4.83-12.98c0.06-0.13,0.11-0.27,0.17-0.42
	c-0.06-0.07-0.1-0.15-0.17-0.19c-5.27-2.86-9.03-7.21-12.12-12.22c-2.55-4.12-4.71-8.43-6.39-12.99c-0.13-0.36-0.29-0.7-0.47-1.13
	c-0.12,0.18-0.22,0.29-0.28,0.42c-2.68,5.78-7.15,9.71-12.79,12.44c-2.3,1.11-4.61,2.22-6.96,3.36c0.33,2.13,1.26,3.99,2.47,5.71
	c1.85,2.61,4.36,4.44,7.1,6.01c3.53,2.02,7.08,4,10.56,6.11c2.81,1.71,5.2,3.9,6.68,6.91c2.69,5.48,2,10.82-0.85,15.99
	c-2.55,4.62-6.53,7.68-11.33,9.58c-12.35,4.87-24.38,4.46-35.78-2.84c-6.31-4.04-10.45-9.77-12.54-16.97
	c-0.15-0.5-0.22-1.03-0.18-1.6c0.1,0.26,0.22,0.52,0.3,0.79c3.51,11.71,11.57,18.49,23.2,21.31c6.23,1.51,12.49,1.49,18.55-0.76
	c6.68-2.47,11.05-7.19,12.28-14.31c1.05-6.07-1.14-11.1-5.93-14.91c-2.6-2.07-5.44-3.84-8.08-5.87c-1.7-1.31-3.32-2.75-4.83-4.27
	c-2.31-2.33-3.53-5.18-3.61-8.5c-0.01-0.46-0.1-0.93-0.17-1.56c-0.86,0.42-1.61,0.78-2.36,1.15c-2.14,1.08-4.17,2.33-5.8,4.13
	c-3.37,3.7-4.08,9.98-1.54,14c0.92,1.47,2.09,2.7,3.79,3.31c3.11,1.11,5.97-0.94,5.88-4.23c-0.01-0.37-0.04-0.74-0.07-1.2
	c1.21,1.67,0.69,4.33-1.06,5.84c-1.71,1.48-4.15,1.64-6.08,0.37c-0.71-0.47-1.38-0.99-2.11-1.43c0.72,1.97,2.16,3.15,4.16,3.62
	c4.06,0.95,7.06-1.97,6.32-6.14c-0.18-1.02-0.56-2-0.91-3.2c1.9,2.18,2.58,4.47,1.71,7.08c-0.85,2.57-2.88,3.61-5.39,3.89
	c-2.84,0.31-5.16-0.92-7.29-2.61c-2.98-2.37-4.72-5.44-5.22-9.22c-0.03-0.23-0.1-0.45-0.16-0.76c-0.82,2.61-0.19,7.04,1.28,9.89
	c1.08,2.09,2.52,3.65,4.8,4.55c2.92,1.15,5.75,2.6,8.99,2.18c1.7-0.22,3.42-0.65,5.01-1.29c2.17-0.88,3.36-2.7,3.8-4.99
	c0.09-0.46,0.15-0.93,0.27-1.64c0.37,1.13,0.27,2.02-0.04,2.89c-0.82,2.33-2.55,3.8-4.76,4.7c-3.53,1.44-7.09,1.2-10.62-0.08
	C140.5,138.96,140.12,138.82,139.75,138.68z M207.19,103.34c0.26-0.64,0.65-0.75,1.28-0.52c0.42,0.15,0.94,0.22,1.36,0.12
	c2.28-0.57,4.54-1.21,6.81-1.84c1.01-0.28,1.6-0.03,2.14,0.87c0.49,0.82,0.14,1.4-0.48,1.91c-0.15,0.13-0.34,0.2-0.52,0.3
	c0.25,0.22,0.35,0.26,0.45,0.26c1.3,0.04,2.7-1.74,1.96-3.2c-1.09-2.13-0.2-3.91,2.1-4.55c0.48-0.13,0.98-0.22,1.46-0.36
	c0.67-0.2,1.37-0.36,2-0.67c1.44-0.71,1.89-1.88,1.35-3.39c-0.17-0.47-0.44-0.9-0.67-1.34c-0.66-1.28-1.37-2.54-1.98-3.85
	c-2.14-4.53-1.54-8.6,2-12.24c2.4-2.47,3.91-5.46,4.6-8.82c1.78-8.71-0.19-16.65-5.06-23.97c-0.08-0.12-0.23-0.2-0.41-0.36
	c-0.18,1.72-0.32,3.33-0.54,4.94c-0.94,7.01-4.15,12.69-9.93,16.86c-2.48,1.79-5.21,3.09-8.04,4.22c-0.75,0.3-1.5,0.62-2.25,0.92
	c1-0.01,1.96-0.14,2.9-0.34c4.67-0.98,8.96-0.09,12.85,2.65c0.57,0.4,1.07,1.04,1.35,1.68c0.49,1.13-0.14,2-1.36,2.06
	c-0.96,0.05-1.78-0.21-2.42-1.01c-1.1-1.4-2.5-2.49-4.18-3c-1.9-0.58-3.87-1.18-5.83-1.27c-2.84-0.14-5.7,0.02-8.52,0.78
	c-5.83,1.57-11.72,2.92-17.56,4.45c-2.71,0.71-5.16,2.01-7.35,3.75c-1.19,0.94-1.72,2.17-1.46,3.72c3.55-1.11,5.65-0.35,6.37,2.25
	c0.32,1.16,0.03,2.22-0.55,3.22c-1.04,1.77-2.77,1.97-4.6,1.91c0.6,4.03,2.11,7.58,4.43,10.78c2.47,3.43,5.58,6.24,8.86,8.85
	c4.64,3.69,9.49,7.04,14.98,9.45c3.43,1.5,8.96-1.48,8.36-6.07c-0.04-0.32-0.03-0.65-0.02-0.97c0.07-1.71,0.96-2.56,2.69-2.61
	c0.61-0.02,1.25-0.04,1.84-0.19c1.01-0.26,1.46-1.22,1.4-2.56c-0.04-0.99-0.7-1.1-1.45-1.17c-0.23-0.02-0.45-0.14-0.68-0.18
	c-1.3-0.22-2.59-0.43-3.89-0.65c0.87,0.59,1.78,0.98,2.69,1.37c0.9,0.39,1.4,1.06,1.39,2.06c-0.01,0.84-0.53,1.22-1.29,0.88
	c-0.64-0.28-1.29-0.64-1.78-1.12c-1.38-1.38-2.69-2.82-4.47-3.7C207.36,103.6,207.29,103.45,207.19,103.34z M201.74,18.59
	c0.02,0.11,0.04,0.22,0.06,0.33c1.08,7.34-1.04,13.62-6.23,18.89c-2.57,2.61-5.49,4.78-8.8,6.3c-4.92,2.26-9.93,4.32-14.93,6.42
	c-3.83,1.61-7.69,3.17-11.03,5.72c-1.25,0.96-2.31,2.17-3.53,3.18c-1.7,1.41-3.08,3.07-4.22,4.96c-0.1,0.16-0.15,0.36-0.22,0.54
	c3.11-4.29,7.33-6.81,12.29-8.25c2.83-0.82,5.65-1.67,8.49-2.45c4.88-1.34,9.82-2.53,14.4-4.77c6.18-3.01,10.94-7.42,13.53-13.93
	c0.7-1.74,1.24-3.53,1.41-5.45c-0.1,0.03-0.15,0.03-0.15,0.04c-0.1,0.27-0.21,0.55-0.29,0.83c-2.2,7.03-6.55,12.32-13.17,15.51
	c-3.51,1.69-7.25,2.94-10.95,4.22c-5.98,2.07-12.11,3.74-17.71,6.8c-0.09,0.05-0.21,0.04-0.32,0.06c0.94-0.72,1.88-1.4,2.94-1.82
	c4.02-1.6,8.05-3.18,12.12-4.63c4.33-1.53,8.78-2.74,12.88-4.86c6.05-3.12,10.7-7.56,13.14-14.07
	C203.14,27.7,203.4,23.18,201.74,18.59z M143.96,80.6c0.96-0.9,1.93-1.79,2.88-2.7c6.52-6.25,14.28-9.52,23.33-9.71
	c4.51-0.09,9.01-0.22,13.52-0.36c3.84-0.12,7.64-0.52,11.36-1.55c12.63-3.52,20.54-11.42,22.63-24.61c0.3-1.89,0.26-3.84,0.38-5.77
	c-0.4,1.69-0.55,3.39-0.81,5.08c-1.35,8.97-5.87,15.77-13.85,20.2c-5.64,3.14-11.77,4.44-18.13,4.72
	c-5.95,0.27-11.9,0.29-17.85,0.57C157.11,66.96,149.46,72,143.96,80.6z M193.59,28.33c-0.06-0.03-0.11-0.06-0.17-0.09
	c-0.23,0.3-0.48,0.58-0.7,0.89c-3.63,5.17-8.53,8.72-14.25,11.23c-4.26,1.87-8.52,3.74-12.76,5.65c-4.54,2.05-8.58,4.79-11.81,8.64
	c-3.78,4.5-5.44,9.83-6.18,15.54c-0.06,0.49-0.11,0.98-0.17,1.48c0.28-0.61,0.44-1.23,0.55-1.87c1.62-8.98,6.38-15.81,14.26-20.37
	c2.85-1.65,5.89-2.95,8.87-4.36c4.25-2.02,8.66-3.73,12.63-6.31c3.73-2.42,6.92-5.39,9.15-9.29
	C193.23,29.1,193.4,28.71,193.59,28.33z M211.71,50.43c-1.87,2.18-3.99,4.07-6.4,5.64c-5.11,3.32-10.83,4.83-16.79,5.62
	c-5.61,0.74-11.23,1.4-16.83,2.15c-2.03,0.27-4.03,0.7-6.04,1.06c0.31,0.18,0.59,0.19,0.88,0.17c3.15-0.18,6.3-0.36,9.44-0.55
	c5.32-0.32,10.66-0.51,15.91-1.59c5.08-1.04,9.88-2.74,14.05-5.92C208.29,55.21,210.3,53.09,211.71,50.43z M143.44,72.67
	c0.04-0.3,0.07-0.47,0.08-0.63c0.34-3.63,0.56-7.28,1.04-10.9c1.12-8.31,3.77-16.15,7.64-23.59c2.78-5.35,6.41-10.01,11.2-13.73
	c0.23-0.18,0.46-0.35,0.78-0.6c-0.23-0.03-0.3-0.06-0.34-0.04c-0.21,0.11-0.42,0.22-0.61,0.35c-5.74,3.73-10.24,8.59-13.22,14.76
	c-5.19,10.74-7,22.17-6.69,34C143.32,72.38,143.36,72.45,143.44,72.67z M238.06,61.96c0.89-5.79-1.3-11.18-4.34-14.64
	c0.25,0.55,0.54,1.09,0.82,1.63c1.55,2.95,2.69,6.01,2.91,9.38c0.21,3.18-0.65,6.13-1.78,9.03c-1.49,3.81-3.04,7.6-4.51,11.42
	c-0.77,2-0.99,4.46-0.66,5.92c0.14-5.2,2.5-9.57,5.1-13.85c1.04-1.71,2.07-3.44,2.99-5.21c1.93-3.71,2.24-7.58,0.95-11.57
	c-0.74-2.28-2.65-5.56-4.06-6.76C238.4,52.01,239.87,56.73,238.06,61.96z M135.27,119.14c0.03-0.08,0.07-0.16,0.09-0.24
	c1.27-5.21,4.56-8.74,9.28-11.04c2.65-1.29,5.34-2.49,8.01-3.73c4.8-2.23,9.23-4.98,12.75-9.02c0.45-0.52,0.86-1.07,1.29-1.61
	c-0.34,0.07-0.55,0.25-0.77,0.43c-2.1,1.71-4.12,3.54-6.32,5.1c-3.31,2.34-7.06,3.88-10.76,5.51c-2.34,1.03-4.71,2.07-6.86,3.43
	C137.95,110.52,135.69,114.3,135.27,119.14z M163.74,86.42c-0.27,0.15-0.54,0.28-0.8,0.44c-3.72,2.26-7.7,3.85-12.05,4.3
	c-3.19,0.33-6.4,0.53-9.61,0.76c-3.92,0.29-7.69,1.13-11.24,2.86c-0.23,0.11-0.44,0.25-0.8,0.47c0.27,0.02,0.33,0.05,0.38,0.03
	c5.13-1.68,10.45-2.04,15.8-2.15c3.26-0.07,6.46-0.5,9.56-1.56C158.24,90.46,161.19,88.78,163.74,86.42z M202.24,54.19
	c-5.77,2.96-11.9,4.69-18.25,5.71c-5.47,0.88-10.95,1.66-16.43,2.5c-2.46,0.38-4.85,1.05-7.13,2.1c0.32,0.04,0.64,0.02,0.94-0.03
	c5.45-0.82,10.9-1.64,16.34-2.47c5.57-0.85,11.1-1.83,16.41-3.8C196.98,57.14,199.75,55.93,202.24,54.19z M173.01,18.99
	c-0.03-0.05-0.06-0.11-0.09-0.16c-0.31,0.14-0.62,0.28-0.92,0.43c-6.8,3.41-12.16,8.42-16.34,14.74c-3.63,5.5-6.12,11.53-8.33,17.69
	c-0.43,1.21-0.85,2.42-1.27,3.63c0.27-0.19,0.38-0.45,0.48-0.71c1.98-5.43,4.33-10.69,7.09-15.77c3.84-7.08,8.82-13.14,15.69-17.5
	C170.56,20.57,171.79,19.78,173.01,18.99z M173.25,141.45c0.09-0.01,0.18-0.01,0.27-0.02c-0.26-1.56-0.39-3.15-0.79-4.67
	c-0.91-3.45-3.1-6.06-5.88-8.17c-3.19-2.41-6.47-4.72-9.71-7.07c-4.3-3.11-7.04-7.21-8.03-12.45c-0.03-0.14-0.13-0.26-0.29-0.56
	c-0.06,2.11,0.32,3.9,1.11,5.61c1.58,3.43,4.22,5.92,7.24,8.06c2.86,2.03,5.8,3.93,8.62,6.01
	C170.24,131.48,172.87,135.84,173.25,141.45z M178.04,85.38c0.01-1.27-1-2.29-2.28-2.28c-1.26,0-2.23,0.96-2.26,2.21
	c-0.03,1.34,0.91,2.31,2.22,2.32C177.02,87.63,178.03,86.66,178.04,85.38z M164.75,37c-5.75,2.86-10.22,7.11-13.63,12.49
	c-3.38,5.35-5.37,11.19-5.99,17.5C147.17,54.04,153.65,44.01,164.75,37z M164.62,41.8c-9.38,2.81-18.76,18.08-18.19,29.63
	c0.56-6.07,1.96-11.87,5.21-17.11C154.91,49.05,159.33,44.99,164.62,41.8z M122.1,106.39c-3.83,2.6-6.84,5.92-9.09,9.96
	c-2.45,4.39-3.46,10.59-2.68,13.16C110.36,119.75,114.92,112.41,122.1,106.39z M136.49,76.29c-4.17,1.51-9.42,10.18-8.3,13.73
	c0.17-0.27,0.34-0.46,0.44-0.69c0.46-1.14,0.99-2.27,1.34-3.45C131.13,81.99,133.02,78.62,136.49,76.29z M139.42,77.29
	c-3.91,0.45-8.03,6.16-8.25,10.56c1.03-0.14,1.26-0.94,1.48-1.74c0.88-3.22,2.43-5.98,5.27-7.89
	C138.38,77.91,138.86,77.64,139.42,77.29z M141.03,78.71c-3.29-0.27-6.78,5.15-6.36,7.46c0.76,0.07,1.04-0.43,1.19-1.04
	C136.6,82.22,138.09,79.91,141.03,78.71z M158.58,54.67c-3.91,2.68-6.46,6.34-7.77,10.88C152.74,61.46,155.22,57.75,158.58,54.67z
	 M124.66,93.12c2.1-4.39,2.8-9.34,5.47-13.5C127.07,83.63,126.27,88.54,124.66,93.12z M134.82,89.18c0.02,0.07,0.04,0.14,0.06,0.21
	c1.45-0.19,2.9-0.45,4.36-0.55c1.5-0.1,3-0.06,4.5-0.04c2.71,0.03,5.42,0.09,8.13,0.14c0.19,0,0.39-0.04,0.58-0.06
	c-4.57-0.23-9.12-0.4-13.68-0.4C137.46,88.48,136.14,88.94,134.82,89.18z M137.57,85.75c0.85-2.37,2.29-4.32,4.43-6
	C139.25,80.35,137.16,83.25,137.57,85.75z M234.96,110.33c1.23-0.91,2.57-1.66,3.84-2.53c1.94-1.34,3.94-2.61,5.76-4.1
	c3.38-2.75,4.15-6.33,2.14-10.2c-1.01-1.94-2.45-3.66-3.66-5.51c-1.28-1.97-2.65-3.9-3.73-5.99c-1.14-2.21-0.97-4.51,0.44-6.64
	c0.07-0.1,0.1-0.23,0.15-0.35c-1.78,1.68-2.7,3.7-2.4,6.15c0.27,2.21,1.26,4.16,2.32,6.07c1.08,1.96,2.27,3.86,3.32,5.84
	c1.59,3,1.23,5.86-0.89,8.49c-0.5,0.62-1.06,1.2-1.66,1.7c-1.69,1.42-3.42,2.81-5.14,4.2c-1.66,1.34-3.21,2.79-4.31,4.64
	c-0.44,0.74-0.81,1.53-1.1,2.07C231.6,112.96,233.25,111.6,234.96,110.33z M232.98,108.19c2.74-2.19,5.53-4.3,8.18-6.59
	c1.73-1.49,2.65-3.5,2.22-5.85c-0.21-1.14-0.63-2.28-1.19-3.29c-1.12-2.03-2.41-3.98-3.62-5.96c-0.06-0.1-0.06-0.24-0.09-0.36
	c-0.1,0.07-0.19,0.14-0.29,0.21c0.07,0.26,0.14,0.52,0.22,0.78c0.57,1.8,1.2,3.57,1.69,5.39c1.08,3.99,0.17,7.51-2.7,10.5
	c-1.41,1.47-2.79,2.95-4.19,4.43c-0.19,0.2-0.37,0.41-0.68,0.77C232.87,108.2,232.94,108.22,232.98,108.19z M139.47,157.7
	c0.12,0.05,0.24,0.12,0.37,0.15c6.4,1.49,12.68,1.36,18.75-1.46c4.83-2.25,8.27-5.77,9.9-10.92c0.65-2.06,0.7-4.15,0-6.21
	c-0.01,0.52,0.07,1.04,0.09,1.57c0.15,5-2.01,8.98-5.71,12.11c-4.51,3.83-9.94,5.28-15.74,5.34c-2.54,0.03-5.09-0.31-7.64-0.48
	C139.48,157.76,139.48,157.73,139.47,157.7z M162.65,132.89c1.95,6.64,0.58,12.24-4.09,17.02
	C164.09,146.05,165.4,136.96,162.65,132.89z M199.87,74.84c0.51,0.39,1.02,0.77,1.53,1.17c0.14,0.11,0.38,0.26,0.36,0.35
	c-0.18,0.79,0.42,1.45,0.74,1.87c0.79,1.01,1.84,1.92,2.97,2.54c1.19,0.65,2.6,0.92,3.9,1.37c0.37,0.13,0.72,0.3,1.14,0.48
	c0.05-0.04,0.21-0.16,0.36-0.27c0.27,0.26,0.5,0.47,0.75,0.7c0.16-0.25,0.3-0.45,0.45-0.69c0.4,0.34,0.75,0.63,1.16,0.97
	c0.08-0.3,0.13-0.5,0.2-0.78c0.32,0.36,0.56,0.64,0.93,1.06c0.44-2.01,1.99-0.97,3.23-1.37c-1.51-0.25-2.5-1.01-3.32-2.08
	c-0.23-0.3-0.85-0.47-1.26-0.44c-2.55,0.19-4.74-0.69-6.76-2.13c-1.14-0.81-2.16-1.77-3.68-1.96c-0.9-0.11-1.75-0.61-2.62-0.94
	C199.92,74.73,199.9,74.78,199.87,74.84z M215.66,94.32c0.15,1.5,1.27,2.1,2.62,1.49c0.74-0.33,1.55-0.54,2.35-0.67
	c0.55-0.09,1.13,0.06,1.7,0.1c0.03-0.09,0.06-0.17,0.09-0.26c-0.46-0.18-0.91-0.45-1.39-0.53c-1.06-0.17-2.02,0.12-2.9,0.79
	c-0.69,0.53-1.19,0.34-1.49-0.47c-0.31-0.82,0.04-1.79,0.88-2.27c0.47-0.28,0.99-0.49,1.71-0.83
	C216.94,91.44,215.49,92.61,215.66,94.32z"/>
</svg>
