<?xml version="1.0" encoding="utf-8"?>
<!-- Generator: Adobe Illustrator 27.8.1, SVG Export Plug-In . SVG Version: 6.00 Build 0)  -->
<svg version="1.1" id="Layer_1" xmlns="http://www.w3.org/2000/svg" xmlns:xlink="http://www.w3.org/1999/xlink" x="0px" y="0px"
	 viewBox="0 0 350 230" style="enable-background:new 0 0 350 230;" xml:space="preserve">
<style type="text/css">
	.st0{fill:#A15FAC;}
	.st1{fill:#002C6B;}
	.st2{fill:#56001D;}
	.st3{fill:#8C002F;}
	.st4{fill:#043866;}
	.st5{fill:#506600;}
	.st6{fill:#604500;}
	.st7{fill-rule:evenodd;clip-rule:evenodd;fill:#C600C6;}
	.st8{fill-rule:evenodd;clip-rule:evenodd;fill:#464748;}
	.st9{fill-rule:evenodd;clip-rule:evenodd;fill:#FF838C;}
	.st10{fill-rule:evenodd;clip-rule:evenodd;fill:#005968;}
	.st11{fill:#F9C1C4;}
	.st12{fill-rule:evenodd;clip-rule:evenodd;fill:#002B26;}
	.st13{fill-rule:evenodd;clip-rule:evenodd;fill:#6D0008;}
	.st14{fill:#5B0A54;}
	.st15{fill:#FFFFFF;}
	.st16{fill-rule:evenodd;clip-rule:evenodd;fill:#C97943;}
	.st17{fill-rule:evenodd;clip-rule:evenodd;fill:#E9CEEA;}
	.st18{fill-rule:evenodd;clip-rule:evenodd;fill:#034C42;}
	.st19{fill:#026683;}
	.st20{fill:#26BCBC;}
	.st21{fill:#001F59;}
	.st22{fill:#7D1839;}
	.st23{fill:#A8007D;}
	.st24{fill:#5B2F00;}
</style>
<g>
	<path class="st23" d="M138.48,168.51c-9.89,3.52-19.87,5.46-30.24,3.98c-14.62-2.09-23.36-12.52-22.17-26.45
		c0.88-10.33,7.49-15.11,17.53-12.81c3.66,0.84,7.37,1.68,11.1,1.95c3.74,0.27,5.33-1.42,5.49-5.2c0.1-2.36-0.16-4.74-0.37-7.1
		c-0.16-1.74-0.08-2.97,1.99-3.73c2.48-0.91,2.64-2.9,0.76-4.75c-0.7-0.69-1.36-1.44-2.11-2.23c0.63-0.46,0.86-0.73,1.15-0.81
		c0.72-0.21,1.46-0.36,2.2-0.49c2.92-0.53,3.07-0.94,1.22-3.43c-2.58-3.47-2.24-4.95,1.62-7.09c0.38-0.21,0.76-0.41,1.14-0.62
		c3.63-2.01,3.98-2.8,1.13-5.73c-5.51-5.69-8.07-12.01-8.03-20.22c0.08-14.59-7.96-25.48-18.76-34.45c0.47,1.09,0.93,2.18,1.4,3.26
		c6.44,15.1,6.35,30.11-1.7,44.5c-4.46,7.97-9.83,15.45-15.05,22.97c-6.79,9.78-13.27,19.66-16.26,31.39
		c-3.39,13.35,0.17,23.97,10.64,30.14c3.37,1.99,7.23,3.48,11.06,4.35c14.9,3.4,29.34,1.02,43.43-4.26c2.39-0.89,4.7-2,7.03-3.07
		L138.48,168.51z"/>
	<path class="st24" d="M73.64,180.11c-0.56,0.24-0.92-0.16-1.29-0.53c-12.84-12.9-21.86-27.95-25.74-45.88
		c-0.16-0.73-0.18-1.48-0.27-2.23c-0.08-0.48-0.16-0.96-0.24-1.43c0.64-1.04,0.35-1.95-0.39-2.8c-0.05-0.7-0.09-1.4-0.14-2.1
		c-0.04-0.45-0.09-0.91-0.14-1.37c-0.78-10.42,1.91-19.87,7.97-28.37c0.65-0.92,1.14-2.12,2.51-2.31c0.17-0.86,0.53-1.59,1.13-2.25
		c5.43-5.99,10.84-12,17-17.29c3.23-3.44,6.58-6.78,9.67-10.35c4.26-4.93,6.49-10.6,5.38-17.26c0.16-0.09,0.33-0.18,0.49-0.26
		c8.52,8.42,10.42,22.01,4.79,34.14c-2.21,5.35-5.64,10-8.85,14.73c-5.27,7.74-11.17,15.08-14.55,24.02
		c-0.44-10.73,4.45-19.99,8.67-29.45c-0.29-0.1-0.58-0.21-0.87-0.31c-2.03,3.58-4.07,7.16-6.11,10.74
		c-4.84,9.93-8.26,20.23-8.26,31.51c-3.88-7.31-4.8-15.08-3.96-23.26c-3.66,6.96-5.03,14.48-5.53,22.22
		C55.63,148.78,63.14,165,73.64,180.11z M57.13,179.81C46.56,165,40.98,148.34,38.86,130.41c-0.74-9.1-0.2-18.08,2.51-26.86
		c2.43-5.41,5.33-10.52,9.29-14.99c3.5-3.96,7.51-7.37,11.28-11.03c4.02-3.09,7.75-6.51,11.37-10.04c4.8-4.69,9.08-9.79,11.88-15.97
		c0.74-1.61,1.31-3.24,0.92-5.93c-4.53,9.97-11.64,16.58-19.74,22.27c-2.99,2.1-5.95,4.25-8.93,6.38c-1.37,0.44-2.16,1.68-3.28,2.47
		c-8.76,6.25-16.55,13.43-20.93,23.6c-4.01,8.3-5.8,17.05-5.12,26.28c0.03,1.29-0.04,2.58,0.1,3.86
		c2.36,21.55,12.1,39.22,28.21,53.5c2.95,2.62,6.06,5.08,9.74,6.74C63.07,187.1,59.86,183.64,57.13,179.81z"/>
</g>
</svg>
