<?xml version="1.0" encoding="utf-8"?>
<!-- Generator: Adobe Illustrator 27.8.1, SVG Export Plug-In . SVG Version: 6.00 Build 0)  -->
<svg version="1.1" id="Layer_1" xmlns="http://www.w3.org/2000/svg" xmlns:xlink="http://www.w3.org/1999/xlink" x="0px" y="0px"
	 viewBox="0 0 350 230" style="enable-background:new 0 0 350 230;" xml:space="preserve">
<style type="text/css">
	.st0{fill:#A15FAC;}
	.st1{fill:#002C6B;}
	.st2{fill:#56001D;}
	.st3{fill:#8C002F;}
	.st4{fill:#043866;}
	.st5{fill:#506600;}
	.st6{fill:#604500;}
	.st7{fill-rule:evenodd;clip-rule:evenodd;fill:#C600C6;}
	.st8{fill-rule:evenodd;clip-rule:evenodd;fill:#464748;}
	.st9{fill-rule:evenodd;clip-rule:evenodd;fill:#FF838C;}
	.st10{fill-rule:evenodd;clip-rule:evenodd;fill:#005968;}
	.st11{fill:#F9C1C4;}
	.st12{fill-rule:evenodd;clip-rule:evenodd;fill:#002B26;}
	.st13{fill-rule:evenodd;clip-rule:evenodd;fill:#6D0008;}
	.st14{fill:#5B0A54;}
	.st15{fill:#FFFFFF;}
	.st16{fill-rule:evenodd;clip-rule:evenodd;fill:#C97943;}
	.st17{fill-rule:evenodd;clip-rule:evenodd;fill:#E9CEEA;}
	.st18{fill-rule:evenodd;clip-rule:evenodd;fill:#034C42;}
	.st19{fill:#026683;}
	.st20{fill:#26BCBC;}
	.st21{fill:#001F59;}
	.st22{fill:#7D1839;}
	.st23{fill:#A8007D;}
	.st24{fill:#5B2F00;}
</style>
<g>
	<path class="st1" d="M65.34,41.75c0.68,0.52,1.08,0.88,1.18,1.08c0.1,0.21,0.33,1.2,0.67,2.97c0.45,2.42,0.96,4.68,1.51,6.8
		c1.54,5.95,2.26,8.82,2.16,8.62c0.31,0.62,0.79,0.76,1.43,0.43c0.73-0.37,1.09-0.83,1.07-1.37c-0.03-0.35-0.31-1.06-0.85-2.11
		c-0.06-0.12-0.14-0.28-0.24-0.48c-0.13-0.19-0.22-0.33-0.27-0.42c-0.34-0.67-0.72-2.34-1.15-4.99c-0.61-3.89-1.18-7.09-1.72-9.61
		c2.05-1.11,2.32-3.16,0.81-6.15c-0.86-1.7-2.26-2.06-4.19-1.08c-2.25,1.14-2.82,2.82-1.69,5.05
		C64.23,40.81,64.65,41.23,65.34,41.75z M57.38,45.37c2.93,4.48,4.42,6.77,4.48,6.89l4.94,9.75c0.27,0.53,0.61,0.93,1.02,1.2
		c0.41,0.27,0.72,0.35,0.93,0.25c0.29-0.15,0.51-0.47,0.64-0.96c0.14-0.49,0.12-0.91-0.06-1.27c-0.18-0.35-0.97-1.59-2.39-3.73
		c-1.41-2.14-2.6-4.15-3.56-6.06c-2.03-4.01-3.11-6.52-3.25-7.51c-0.09-0.62-0.04-1.36,0.14-2.22c0.13-0.69,0.13-1.17-0.01-1.43
		c-0.4-0.79-1.16-1.39-2.29-1.79c-1.12-0.4-2.08-0.41-2.87-0.01c-0.73,0.37-1.22,1.11-1.48,2.21c-0.25,1.1-0.15,2.11,0.31,3.01
		C54.33,44.48,55.48,45.04,57.38,45.37z M74.58,42.67c0.56,0.42,0.93,0.8,1.11,1.15c0.09,0.18,0.09,0.93-0.01,2.27
		c-0.12,1.72-0.12,3.28,0,4.69c0.16,2.35,0.6,4.72,1.33,7.1c0.46,0.54,0.89,0.71,1.3,0.5c0.53-0.27,0.54-2.59,0.05-6.98
		c-0.49-4.39-0.41-6.74,0.23-7.07c0.15-0.07,0.43-0.14,0.86-0.21c0.43-0.07,0.74-0.15,0.95-0.26c0.7-0.36,1.13-0.92,1.29-1.7
		c0.16-0.78,0.01-1.61-0.43-2.49c-0.4-0.79-1.11-1.37-2.12-1.74c-1.01-0.37-1.9-0.36-2.66,0.02c-2.55,1.29-3.52,2.53-2.91,3.73
		C73.68,41.93,74.02,42.26,74.58,42.67z M43.87,63.32c0.89,0.49,1.58,0.61,2.08,0.35c0.26-0.13,0.59-0.38,0.98-0.74
		c0.39-0.36,0.65-0.58,0.8-0.65c0.15-0.07,0.7,0.11,1.65,0.54c2.56,1.21,4.09,2.01,4.59,2.42c0.77,0.86,1.52,1.73,2.26,2.61
		c0.9,0.98,1.64,1.32,2.23,1.02c0.56-0.28,0.66-0.76,0.32-1.43c-0.74-1.46-2.63-3.16-5.66-5.08c-1.56-0.98-3.13-1.93-4.7-2.86
		c-1.25-0.8-1.99-1.42-2.21-1.86c-0.04-0.09-0.09-0.23-0.13-0.43s-0.1-0.36-0.16-0.47c-0.43-0.85-1.14-1.02-2.14-0.52
		c-1,0.5-1.67,1.25-2.04,2.24c-0.36,0.99-0.3,1.97,0.19,2.94C42.34,62.2,42.98,62.83,43.87,63.32z M46.93,52.42
		c0.24,0.03,1.13-0.02,2.69-0.15c0.67-0.05,1.15,0.1,1.41,0.44c0.27,0.34,0.52,0.69,0.78,1.04c0.15,0.15,0.53,0.39,1.14,0.72
		c0.61,0.33,1.07,0.66,1.38,0.98c1.3,1.33,3.06,3.47,5.29,6.42c1.66,2.18,2.56,3.36,2.73,3.53c0.63,0.67,1.23,0.87,1.79,0.59
		c0.82-0.41,1.08-0.91,0.79-1.5c-0.33-0.64-4.94-5.9-13.84-15.78c-0.07-0.37-0.09-0.86-0.03-1.48c0.06-0.47,0.04-0.79-0.05-0.97
		c-0.34-0.67-0.99-1.1-1.94-1.28c-0.95-0.18-1.87-0.05-2.75,0.4c-0.73,0.37-1.2,1.1-1.4,2.2c-0.2,1.09,0.01,2.26,0.63,3.49
		C45.94,51.87,46.4,52.32,46.93,52.42z"/>
	<path class="st2" d="M124.26,160.93c3.96,4.9,5.01,10.2,2.68,13.44c0.57-9.44-6.33-13.11-13.53-12.63
		c-2.83,0.19-5.69,0.67-8.47,1.38c-12.74,3.23-25.35-2.19-32.97-11.46c11.54,8.75,23.47,9.98,32.21,3.63
		c-2.9,0.22-6.12,0.79-9.29,0.69c1.36,0.02,2.79-0.24,4.29-0.87c0.49-0.2,0.95-0.44,1.41-0.68c-7.11-0.15-10.53-2.16-11.72-3.07
		c-1.29-1.43-2.65-2.82-4.03-4.15c-9.74-9.39-13.76-20.66-15.24-33.56c-1.21-10.62,9.81-22.05,17.03-21.04
		c-11.02,9-14.02,14.53-11.35,22.25c2.93-8.95,10.19-10.51,17.56-11.42c8.28-1.03,14.18-5.11,18.09-12.35
		c0.34-0.63,1-1.09,1.92-2.05c8.92,14.13,6.65,27.81,2.51,41.58c-0.92,2.25-1.95,4.46-3.1,6.62c-0.02,0.03-0.04,0.07-0.05,0.1
		c0.35-0.14,0.71-0.29,1.05-0.46c0.92-0.47,1.69-1.12,2.56-1.62c1.89-1.79,3.7-3.64,5.32-5.64c14.07-17.35,11.06-43.38-6.63-56.14
		c-8.59-6.19-17.72-8.82-27.07-7.76l0.1-0.06l-4.86-6.83c-0.18-0.35-0.45-0.49-0.82-0.41l-1.43,1c-2.47,1.73-3.78,2.63-3.93,2.71
		c-3.25,1.65-6.33,3.15-9.25,4.52c-2.02,0.95-3.93,1.83-5.73,2.63c-1.54,0.67-2.29,0.99-2.26,0.98l-0.48,0.24
		c-1.2,0.61-1.92,1.1-2.17,1.49c-0.38,0.56-0.31,1.35,0.21,2.38c0.13,0.27,0.29,0.48,0.47,0.66l2.84,4.85
		c-5.87,5.32-9.03,9.7-10.74,12.94c-2.74,4.32-4.36,9.09-5.55,13.99c-2.98,12.28-3.57,24.66-3.24,37.07
		c0.25,9.44,1.51,18.67,4.9,27.38c3.07,7.9,7.51,14.88,15.02,19.05c13.15,7.3,26.47,6.02,39.68-2.06c0.21-0.13,0.35-0.37,0.32-0.34
		c-3.2,0.99-6.52,2.35-9.95,3.03c-11.88,2.35-21.68-0.8-28.7-10.5c-4.34-5.99-6.51-12.97-7.97-20.25c-0.16-0.8-0.27-1.6-0.4-2.41
		c1.71,2.72,3.1,5.53,4.7,8.21c3.58,5.99,7.82,11.43,13.8,15.17c8.36,5.24,17.16,4.76,26.04,0.1c3.42-1.79,6.53-4.22,9.95-6
		c2.37-1.24,4.99-2.11,7.58-2.68c2.02-0.45,3.8,0.47,4.85,2.38c1.03,1.88,0.86,3.74-0.29,5.59c-1.65,2.67-4.16,3.69-7.27,3.77
		c6.13,3.02,14.47-0.33,17.52-6.88C133.23,171.31,130.14,163.01,124.26,160.93z M94.73,155.98c-0.1,0-0.21,0-0.31-0.01
		c-0.65-0.04-1.28-0.1-1.91-0.18c-0.04-0.05-0.08-0.11-0.12-0.17C93.15,155.84,93.93,155.96,94.73,155.98z M102.61,152.21
		c-0.74,0.63-1.6,1.19-2.54,1.47c1.82-0.04,3.69-0.67,4.11-1.83c0.07-0.2,0.28-0.25,0.43-0.19c0.91-1.03,1.69-2.18,2.4-3.29
		c0.45-0.72,0.88-1.45,1.28-2.19c-0.08,0.04-0.15,0.08-0.24,0.11c-0.38,0.16-0.77,0.27-1.16,0.36
		C105.74,148.68,104.38,150.71,102.61,152.21z"/>
</g>
</svg>
