<?xml version="1.0" encoding="utf-8"?>
<!-- Generator: Adobe Illustrator 27.8.1, SVG Export Plug-In . SVG Version: 6.00 Build 0)  -->
<svg version="1.1" xmlns="http://www.w3.org/2000/svg" xmlns:xlink="http://www.w3.org/1999/xlink" x="0px" y="0px"
	 viewBox="0 0 350 230" style="enable-background:new 0 0 350 230;" xml:space="preserve">
<style type="text/css">
	.st0{fill:#FFFFFF;}
	.st1{fill:#FCBEF3;}
	.st2{fill:#007769;}
	.st3{fill:#990000;}
	.st4{fill:#EE388C;}
	.st5{fill:#4862AD;}
	.st6{fill:#EE4B9B;}
	.st7{fill:#FAEE35;}
	.st8{fill:#01A79D;}
	.st9{fill:#8FC640;}
	.st10{fill:#EC2227;}
	.st11{fill:#E7BD20;}
	.st12{fill:#DC8927;}
	.st13{fill:#2F99D5;}
	.st14{fill:#663366;}
	.st15{fill:#FFC907;}
	.st16{fill:#4B83C3;}
	.st17{fill:#F0535B;}
	.st18{fill:#A92990;}
	.st19{fill:#E16E25;}
	.st20{fill:#426CB4;}
	.st21{fill:#E9292B;}
	.st22{fill:#0F77B7;}
	.st23{fill:#EF4A6C;}
	.st24{fill:#65C5B3;}
	.st25{fill:#965724;}
	.st26{fill:#F1A422;}
	.st27{fill:#18479E;}
	.st28{fill:#64C5B2;}
	.st29{fill:#FAE072;}
	.st30{fill:#EF496E;}
	.st31{fill:#231F20;}
	.st32{fill-rule:evenodd;clip-rule:evenodd;fill:#5C493A;}
	.st33{fill-rule:evenodd;clip-rule:evenodd;fill:#F26767;}
	.st34{fill-rule:evenodd;clip-rule:evenodd;fill:#87C443;}
	.st35{fill-rule:evenodd;clip-rule:evenodd;fill:#EE3E96;}
	.st36{fill-rule:evenodd;clip-rule:evenodd;fill:#2195D2;}
	.st37{fill-rule:evenodd;clip-rule:evenodd;fill:#FFCD05;}
	.st38{fill-rule:evenodd;clip-rule:evenodd;fill:#83C341;}
	.st39{fill-rule:evenodd;clip-rule:evenodd;fill:#0F77B7;}
	.st40{fill-rule:evenodd;clip-rule:evenodd;fill:#ED8D36;}
	.st41{fill-rule:evenodd;clip-rule:evenodd;fill:#3CA356;}
	.st42{fill-rule:evenodd;clip-rule:evenodd;fill:#7F4A25;}
	.st43{fill-rule:evenodd;clip-rule:evenodd;fill:#A3B539;}
	.st44{fill-rule:evenodd;clip-rule:evenodd;fill:#FAAF37;}
	.st45{fill-rule:evenodd;clip-rule:evenodd;fill:#0BB4A1;}
	.st46{fill:#00A9CB;}
	.st47{fill:#79AA41;}
	.st48{fill:#CD8F2A;}
	.st49{fill:#0393B0;}
	.st50{fill:#E82F7B;}
	.st51{fill:#D7DF2A;}
	.st52{fill:#8DC443;}
	.st53{fill:#F0A422;}
	.st54{fill:#3A3A3B;}
	.st55{fill:#29AAE1;}
	.st56{fill:#E9246E;}
</style>
<g id="Layer_1">
</g>
<g id="Layer_2">
</g>
<g id="Layer_3">
</g>
<g id="Layer_4">
</g>
<g id="Layer_5">
</g>
<g id="Layer_6">
</g>
<g id="Layer_7">
</g>
<g id="Layer_8">
</g>
<g id="Layer_9">
</g>
<g id="Layer_10">
</g>
<g id="Layer_11">
	<g>
		<path class="st32" d="M176.22,83.71c6.32-6.65,15.51-10.82,27.61-12.44c-9.95-0.86-19.29,2.06-28.05,8.71
			c5.12-16.94,21.58-27.33,49.49-31.11c-15.6,0-29.62,4.36-42.02,13.02c-1.2-9.14-6.27-16.18-15.27-21.15
			c8.61,7.13,11.96,14.79,10.82,23.88c-3.11,6.94-7.32,13.78-13.5,19.53c-1.15-9.28-5.03-18.86-10.82-25.46
			c-2.2-2.58-4.69-4.79-7.37-8.47c-2.15-2.68-3.3-6.03-3.3-9.48c-0.96,4.83,0.24,8.18,2.35,10.91c-8.61-4.74-16.42-4.26-23.36,1.44
			c12.83-7.56,26.94-2.15,34.27,15.08c-4.83-5.74-14.45-11.39-33.07-7.32c27.52-3.06,34.94,10.05,34.6,26.94
			c-0.05,3.64-0.77,5.55-1.2,8.85c-1.24,9.72,0.19,22.25-0.53,33.5c-0.43,6.94-1.82,10.48-7.71,15.27
			c6.41-0.86,18.95-5.26,23.21,1.91c-0.14-1.39-0.34-2.73-0.67-4.12c3.59,0.24,5.84,1.2,8.04,3.45c-0.34-1.15-0.72-2.11-1.1-2.92
			c1.82-0.19,3.64-0.91,4.79-1.72c2.3-1.68,4.5-3.49,6.51-5.46c0.62,0.67,2.01,2.49,4.26,5.31l0.19-0.14l0.19,0.38
			c-0.24,0.29-0.29,0.67-0.1,1.01c0.53,1.29,7.9,1.91,8.04,0.19c0.14-1.68-3.21-0.86-3.83-2.15c-0.19-0.48-0.62-0.53-1.24-0.14
			l-0.57-0.67l0,0l0.38-0.24l-4.5-7.23c-0.29-0.38-0.62-0.72-1.01-0.96c2.92-2.82,4.79-5.07,6.56-8.61
			c0.43-0.86,0.34-1.29,0.05-2.01c-0.24-0.67-0.62-1.68-1.01-2.92c-0.1-0.14-0.24-0.14-0.43,0.05l-1.05,1.91l-1.91-2.3
			c-0.34-0.19-0.48-0.14-0.53,0.19c-0.77,2.78-1.82,5.46-3.11,8.04c-0.24,0.53-0.67,1.24,0.1,1.48c0.38,0.05,0.77,0.14,1.1,0.34
			c0.24,0.1,0.86-0.19,0.05,0.48c-0.77,0.67-1.48,0.91-2.92,1.53c-0.57-0.34-1.1-0.72-1.58-1.15c0.19-0.19,0.38-0.38,0.53-0.62
			c-1.58-1.39-2.58-2.63-3.97-3.92c-0.29-0.29-0.43-0.62-0.48-1.01c0.14-0.53-0.05-1.01,0.72-0.86c0.77,0.14,1.72,0.38,2.78,0.67
			c0.48,0.14,1.05,0,1.44-0.34c0.38-0.77,0.72-1.58,1.01-2.39c1.53-0.86,0.86-1.01,0.34-1.53c-0.38-0.43-0.67-0.91-0.77-1.48
			c0.53-1.44,0.72-2.58,0.57-3.4c1.24-0.1,1.1-1.77,0.24-2.2c-3.11-1.72-6.32-3.78-9.52-1.48c-3.21,2.3-2.01,7.71,0.19,10.43
			c-0.19,0.48-0.29,1.01-0.38,1.53c-0.38,0-0.81,0.14-1.1,0.43c-1.82,2.35-3.21,4.74-4.16,7.18
			C172.25,112.81,162.34,94.62,176.22,83.71z M183.93,130.61c1.05,0.57,2.06,1.2,3.02,1.91c-1.1,0.57-2.54,1.48-4.88,2.87
			c-0.14-0.14-0.24-0.34-0.34-0.53C182.35,133.39,183.11,132,183.93,130.61z"/>
		<path class="st33" d="M189.09,71.41c1.24-3.64,1.96-5.22,2.35-6.41c-0.38,1.2-0.77,2.87-1.91,6.56c3.3-1.1,2.78-5.03,2.2-7.56
			C189.72,65.81,187.13,68.63,189.09,71.41L189.09,71.41z M205.8,54.99c4.74,3.73,6.8,5.5,8.28,6.8c-1.63-1.15-3.88-2.63-8.76-6.13
			c-0.05,5.5,6.08,6.65,10.1,7.13C213.89,58.82,210.97,53.46,205.8,54.99z M190.91,55.52c-0.1-3.83-0.05-5.55-0.1-6.84
			c0.1,1.24,0.34,3.02,0.62,6.84c2.68-2.2,0.72-5.74-0.67-7.9C189.48,50.02,188.04,53.65,190.91,55.52z M173.83,43.36
			c1.39-3.45,2.11-5.03,2.58-6.13c-0.43,1.15-0.91,2.78-2.11,6.37c3.25-0.96,2.87-4.83,2.39-7.37
			C174.64,37.91,171.96,40.59,173.83,43.36z M152.87,55.23c1.24-5.5,1.96-7.94,2.35-9.76c-0.34,1.82-0.62,4.36-1.63,9.91
			c4.69-2.15,3.21-7.85,1.96-11.44C152.82,46.9,149.51,51.55,152.87,55.23z M127.98,48.34c-4.26-2.82-6.08-4.26-7.47-5.22
			c1.44,0.91,3.4,1.96,7.85,4.64c-0.34-4.64-5.6-5.26-9.05-5.36C120.9,45.66,123.72,49.97,127.98,48.34z M145.49,59.4
			c-3.35-3.3-4.79-4.88-5.84-5.98c1.1,1.05,2.78,2.35,6.27,5.55c0.53-4.26-4.12-5.79-7.18-6.46
			C139.56,55.71,141.38,60.11,145.49,59.4z"/>
		<path class="st34" d="M169.9,141.24c26.75,0,48.39,1.44,48.39,3.16c0,1.72-21.63,3.21-48.39,3.21s-48.34-1.44-48.34-3.21
			C121.57,142.58,143.2,141.24,169.9,141.24z M204.46,70.83c6.7-0.19,9.72-0.14,11.92-0.19c-2.2,0.14-5.17,0.57-11.87,1.1
			c3.88,4.74,10,1.29,13.69-1.2C214.03,68.25,207.71,65.86,204.46,70.83L204.46,70.83z M225.61,48.72c6.03-1.29,8.71-1.77,10.72-2.2
			c-1.96,0.53-4.55,1.44-10.58,3.02c4.31,3.59,9.24-0.48,12.2-3.35C233.84,44.85,227.72,43.7,225.61,48.72z M167.08,40.64
			c-4.69-3.97-6.6-5.93-8.14-7.23c1.58,1.2,3.83,2.78,8.66,6.6c0.34-5.55-5.89-7.08-10-7.71C159.04,36.38,161.81,41.93,167.08,40.64
			z M143.39,40.11c0.34-5.36,0.67-7.75,0.77-9.52c0,1.72,0.05,4.16-0.05,9.57c4.07-2.73,1.82-7.9,0.1-11.01
			C142.1,32.31,139.7,37.09,143.39,40.11z M122.57,53.75c-5.17,1.72-7.47,2.39-9.19,2.92c1.68-0.62,3.88-1.68,9-3.64
			c-4.16-2.73-8.04,1.29-10.34,4.16C115.73,57.96,121.18,58.39,122.57,53.75z"/>
		<path class="st35" d="M187.52,77.82c5.98,1.39,8.66,2.11,10.62,2.58c-2.01-0.34-4.74-0.67-10.77-1.77
			c2.35,5.07,8.52,3.54,12.44,2.15C196.61,77.77,191.58,74.14,187.52,77.82z M217.14,48.15c3.11-5.5,4.55-7.94,5.6-9.72
			c-0.91,1.82-2.06,4.45-4.88,10.1c5.7-0.86,5.93-7.37,5.74-11.63C219.77,39.15,214.75,43.12,217.14,48.15L217.14,48.15z
			 M177.08,59.92c-3.64-1.96-5.22-2.87-6.41-3.59c1.24,0.57,2.92,1.29,6.65,3.11c-0.62-3.73-4.88-3.78-7.66-3.59
			C171.2,58.34,173.83,61.55,177.08,59.92z M134.34,47.57c-2.63-2.54-3.73-3.73-4.55-4.55c0.91,0.77,2.2,1.77,4.88,4.21
			c0.43-3.25-3.21-4.36-5.6-4.88C129.75,44.8,131.18,48.15,134.34,47.57z M149.8,67.68c-3.3,1.2-4.79,1.63-5.89,2.06
			c1.05-0.48,2.49-1.15,5.7-2.49c-2.68-1.68-5.07,0.96-6.56,2.78C145.45,70.45,148.99,70.69,149.8,67.68z"/>
		<path class="st36" d="M198.47,73.75l6.56,2.92c-1.24-0.48-3.02-1.01-6.8-2.39c0.91,3.59,5.07,3.25,7.85,2.82
			C204.31,74.81,201.49,71.89,198.47,73.75z M215.46,52.26c3.25,1.77,4.64,2.68,5.7,3.3c-1.1-0.57-2.58-1.2-5.89-2.87
			c0.48,3.35,4.31,3.45,6.8,3.3C220.73,53.75,218.43,50.83,215.46,52.26z M197.61,52.84c1.72-6.89,2.73-9.86,3.3-12.16
			c-0.43,2.3-0.96,5.41-2.39,12.35c5.93-2.54,4.31-9.67,2.87-14.21C197.85,42.36,193.5,48.05,197.61,52.84z M173.16,49.3
			c-5.22-1.1-7.47-1.72-9.14-2.11c1.68,0.24,4.07,0.53,9.28,1.44c-2.11-4.36-7.42-2.92-10.72-1.72
			C165.31,49.39,169.71,52.46,173.16,49.3L173.16,49.3z M147.79,47.86c0.77-3.59,1.24-5.22,1.53-6.37c-0.19,1.2-0.43,2.82-1.05,6.46
			c3.06-1.44,2.11-5.17,1.24-7.47C147.7,42.41,145.54,45.47,147.79,47.86z M143.53,64.23c-4.79,2.01-6.99,2.78-8.57,3.4
			c1.53-0.72,3.59-1.82,8.28-4.07c-4.12-2.3-7.56,1.77-9.62,4.64C137.26,68.68,142.53,68.73,143.53,64.23z M136.59,58.49
			c-2.35-2.63-3.35-3.83-4.16-4.74c0.86,0.86,2.01,1.91,4.45,4.4c0.57-3.16-2.82-4.45-5.17-5.07
			C132.29,55.52,133.48,58.92,136.59,58.49z"/>
		<path class="st37" d="M178.37,83.09c4.07,0.72,5.84,1.15,7.18,1.44c-1.39-0.14-3.21-0.34-7.32-0.91c1.72,3.3,5.84,2.11,8.42,1.05
			C184.5,82.75,180.96,80.5,178.37,83.09z M197.04,69.54c2.87-5.36,4.31-7.71,5.26-9.48c-0.86,1.82-1.91,4.31-4.55,9.81
			c5.46-0.91,5.6-7.18,5.36-11.29C199.38,60.88,194.6,64.71,197.04,69.54z M209.05,49.68c0.67-4.26,1.1-6.13,1.39-7.51
			c-0.14,1.44-0.24,3.3-0.77,7.61c3.45-1.91,2.06-6.13,0.96-8.81C208.62,43.32,206.32,47,209.05,49.68z M181.01,50.64
			c2.2-5.5,3.3-7.9,4.07-9.72c-0.62,1.82-1.39,4.4-3.3,10c5.22-1.48,4.64-7.56,3.88-11.49C182.39,42.02,178.13,46.23,181.01,50.64
			L181.01,50.64z M157.94,61.74c0.72-3.69,1.15-5.26,1.44-6.46c-0.19,1.2-0.38,2.87-0.96,6.56c3.06-1.53,2.01-5.22,1.1-7.56
			C157.79,56.24,155.69,59.35,157.94,61.74z M141.86,46c-3.35-3.21-4.79-4.74-5.84-5.79c1.15,0.96,2.78,2.25,6.27,5.36
			c0.48-4.21-4.16-5.6-7.18-6.27C135.97,42.45,137.79,46.76,141.86,46z M130.42,51.83c-2.58,1.91-3.83,2.63-4.69,3.25
			c0.86-0.67,1.91-1.63,4.45-3.59c-2.82-0.86-4.36,2.11-5.17,4.12C127.31,55.38,130.42,54.66,130.42,51.83z M133.53,62.22
			c-3.35,1.53-4.88,2.11-5.98,2.58c1.1-0.57,2.54-1.39,5.79-3.02c-2.92-1.58-5.31,1.39-6.65,3.4
			C129.22,65.47,132.91,65.43,133.53,62.22z"/>
	</g>
</g>
<g id="Layer_12">
</g>
<g id="Layer_13">
</g>
<g id="Layer_14">
</g>
<g id="Layer_15">
</g>
</svg>
