<?xml version="1.0" encoding="utf-8"?>
<!-- Generator: Adobe Illustrator 27.8.1, SVG Export Plug-In . SVG Version: 6.00 Build 0)  -->
<svg version="1.1" id="Layer_1" xmlns="http://www.w3.org/2000/svg" xmlns:xlink="http://www.w3.org/1999/xlink" x="0px" y="0px"
	 viewBox="0 0 350 230" style="enable-background:new 0 0 350 230;" xml:space="preserve">
<style type="text/css">
	.st0{fill:#00585E;}
	.st1{fill:#007984;}
	.st2{fill:#00373A;}
	.st3{fill:#00FFFF;}
	.st4{fill:#663567;}
	.st5{fill:#2B002D;}
	.st6{fill:#083300;}
	.st7{fill:#58E505;}
	.st8{fill:#1734BF;}
	.st9{fill:#511404;}
	.st10{fill:#EB5CFF;}
	.st11{fill:#007C6D;}
	.st12{fill:#A38800;}
	.st13{fill:#A710C1;}
	.st14{fill:#52025B;}
	.st15{fill:#007A6E;}
	.st16{fill:#0000FF;}
	.st17{fill:#00FFD3;}
	.st18{fill:#5B0038;}
	.st19{fill:#4D2207;}
	.st20{fill:#4B4900;}
	.st21{opacity:0.5;}
	.st22{clip-path:url(#SVGID_00000034051471528272424000000016643552672284770217_);fill:#003F49;}
	.st23{fill:#00F7D9;}
	.st24{fill:#C0C900;}
	
		.st25{fill-rule:evenodd;clip-rule:evenodd;fill:url(#SVGID_00000078042767364304315650000007493761602018914201_);stroke:#ED9E00;stroke-width:0.5;stroke-miterlimit:10;}
	.st26{fill-rule:evenodd;clip-rule:evenodd;fill:#434EDD;}
	.st27{fill-rule:evenodd;clip-rule:evenodd;fill:#FFFFFF;}
	.st28{fill-rule:evenodd;clip-rule:evenodd;fill:#A5CB39;stroke:#465900;stroke-width:0.25;stroke-miterlimit:10;}
	.st29{fill-rule:evenodd;clip-rule:evenodd;fill:#94964D;}
	.st30{fill-rule:evenodd;clip-rule:evenodd;fill:#470A0A;}
	.st31{fill-rule:evenodd;clip-rule:evenodd;fill:#F200FF;}
	.st32{fill-rule:evenodd;clip-rule:evenodd;fill:#0A0089;}
	.st33{fill-rule:evenodd;clip-rule:evenodd;fill:#FF6700;}
	.st34{fill-rule:evenodd;clip-rule:evenodd;fill:#00FFF8;}
</style>
<g>
	<g>
		<path class="st0" d="M189.19,96.84c-2.86-1.12-4.91-1.93-7.06-2.77c1-2.35,1.85-4.36,2.95-6.96c-2.74,1.22-4.75,2.11-6.88,3.06
			c-0.93-2.31-1.76-4.35-2.83-7.02c-1.12,2.78-1.98,4.92-2.84,7.07c-2.33-1.05-4.29-1.95-6.97-3.17c1.28,2.93,2.16,4.95,3.09,7.11
			c-2.44,0.9-4.49,1.67-7.17,2.66c2.87,1.18,5.01,2.05,7.15,2.93c-1.05,2.36-1.92,4.34-3.03,6.87c2.85-1.18,4.89-2.02,7-2.89
			c0.96,2.4,1.76,4.41,2.82,7.06c1.09-2.87,1.87-4.95,2.72-7.16c2.39,1.02,4.38,1.88,7.02,3.01c-1.2-2.75-2.1-4.77-3.04-6.92
			C184.4,98.79,186.5,97.94,189.19,96.84z M176.98,100.86c-0.49,1.3-0.95,2.51-1.59,4.19c-0.62-1.55-1.09-2.73-1.65-4.13
			c-1.24,0.51-2.43,1.01-4.1,1.69c0.66-1.48,1.17-2.64,1.77-4.02c-1.25-0.52-2.5-1.03-4.18-1.72c1.56-0.58,2.77-1.03,4.2-1.56
			c-0.55-1.26-1.07-2.44-1.82-4.16c1.57,0.71,2.72,1.23,4.09,1.85c0.5-1.25,1-2.5,1.66-4.14c0.63,1.57,1.11,2.76,1.66,4.12
			c1.25-0.56,2.42-1.08,4.02-1.8c-0.64,1.53-1.14,2.7-1.72,4.07c1.26,0.5,2.46,0.97,4.13,1.62c-1.58,0.64-2.81,1.14-4.13,1.68
			c0.55,1.25,1.07,2.44,1.77,4.05C179.54,101.96,178.38,101.46,176.98,100.86z"/>
	</g>
	<path class="st0" d="M155.74,88.8c-2.47-0.49-4.23,0.73-4.81,3.15c-0.63,2.68,0.63,4.39,3.28,4.95c2.54,0.54,4.08-0.67,4.85-3.03
		C159.37,91.22,158.39,89.32,155.74,88.8z M148.2,81.59c-0.07-0.09-0.14-0.19-0.23-0.27c-3.32-2.93-6.53-6.03-10.07-8.67
		c-0.93-0.69-3.58-0.52-4.26,0.27c-0.74,0.86-0.36,2.96,0,4.41c0.22,0.85,1.33,1.48,2.05,2.2c-2.08,0.13-3.86-0.32-5.57-0.94
		c-1.88-0.69-2.99-0.24-3.38,1.79c-0.85,4.33-1.75,8.65-2.6,12.98c-0.46,2.36,0.24,3.66,2.96,3.5c1.62-0.09,3.26,0.29,4.89,0.46
		c0.01,0.26,0.02,0.53,0.04,0.79c-0.43,0.19-0.84,0.39-1.28,0.55c-2.14,0.79-4.27,1.83-3.31,4.59c1.02,2.95,3.43,2.38,5.72,1.59
		c3.17-1.09,6.38-2.1,9.52-3.26C148.07,99.59,151.77,86.1,148.2,81.59z M167.57,111.17c-2.39-1.18-4.51-0.89-5.89,1.43
		c-1.29,2.16-0.73,4.23,1.36,5.58c2.31,1.5,4.35,0.89,5.77-1.43C170.17,114.54,169.54,112.69,167.57,111.17z M169.33,129.19
		c-0.05-5.75-11.52-13.76-16.97-11.91c-0.12,0.04-0.23,0.07-0.33,0.13c-3.88,2.15-7.88,4.12-11.55,6.57
		c-0.97,0.65-1.69,3.19-1.18,4.1c0.56,0.99,2.67,1.33,4.15,1.48c0.87,0.09,1.83-0.76,2.75-1.18c-0.58,1.99-1.59,3.53-2.76,4.93
		c-1.28,1.54-1.23,2.73,0.55,3.78c3.79,2.26,7.56,4.55,11.36,6.81c2.07,1.23,3.52,1,4.29-1.62c0.45-1.55,1.36-2.97,2.07-4.45
		c0.25,0.08,0.51,0.15,0.76,0.23c0.03,0.46,0.08,0.92,0.09,1.38c0.03,2.29,0.3,4.64,3.22,4.66c3.12,0.02,3.4-2.42,3.43-4.85
		C169.25,135.9,169.37,132.54,169.33,129.19z M192.4,109.67c-1.62-2.02-3.58-2.06-5.67-0.71c-1.91,1.86-2.37,3.94-0.64,6.04
		c1.6,1.93,3.74,2.11,5.72,0.59C194,113.91,194.1,111.79,192.4,109.67z M213.73,116.85c-3.14-1.16-6.27-2.41-9.44-3.5
		c-5.43-1.88-16.83,6.24-16.92,11.99c0,0.12-0.01,0.25,0.01,0.36c0.72,4.37,1.24,8.8,2.31,13.08c0.28,1.12,2.44,2.67,3.47,2.49
		c1.12-0.19,2.15-2.06,2.78-3.41c0.38-0.79-0.09-1.98-0.19-3c1.69,1.22,2.78,2.69,3.71,4.26c1.02,1.72,2.16,2.07,3.75,0.75
		c3.4-2.81,6.83-5.6,10.23-8.42c1.85-1.53,2.12-2.98-0.08-4.58c-1.31-0.95-2.34-2.29-3.5-3.45c0.16-0.21,0.32-0.43,0.48-0.63
		c0.44,0.12,0.89,0.23,1.33,0.38c2.16,0.74,4.47,1.28,5.47-1.46C218.22,118.77,216.01,117.69,213.73,116.85z M199.02,87.61
		c-0.84-2.62-2.81-3.43-5.37-2.55c-2.45,0.86-3.14,2.68-2.57,5.11c1.11,2.42,2.93,3.55,5.47,2.63
		C198.91,91.93,199.79,89.98,199.02,87.61z M225.73,85c-1.51-4.15-2.99-8.31-4.5-12.45c-0.82-2.26-2.09-3-4.34-1.46
		c-1.33,0.92-2.94,1.44-4.42,2.14c-0.14-0.22-0.3-0.45-0.44-0.66c0.27-0.37,0.52-0.76,0.81-1.12c1.42-1.79,2.7-3.78,0.45-5.65
		c-2.4-1.99-4.16-0.27-5.72,1.59c-2.15,2.57-4.37,5.09-6.46,7.71c-3.59,4.49,0.22,17.95,5.6,19.96c0.12,0.04,0.22,0.09,0.35,0.12
		c4.36,0.79,8.7,1.79,13.1,2.21c1.16,0.11,3.33-1.41,3.5-2.43c0.19-1.13-1.22-2.73-2.27-3.77c-0.62-0.62-1.9-0.58-2.89-0.83
		c1.71-1.18,3.47-1.72,5.26-2.07C225.73,87.9,226.44,86.94,225.73,85z M175.09,71.42c-2.75-0.09-4.18,1.49-4.2,4.21
		c-0.02,2.6,1.47,3.86,3.94,4.14c2.66-0.23,4.33-1.56,4.31-4.27C179.13,72.98,177.58,71.5,175.09,71.42z M190.29,50.68
		c-0.99-0.56-2.97,0.24-4.31,0.87c-0.79,0.38-1.18,1.6-1.75,2.44c-0.53-2-0.45-3.84-0.18-5.65c0.3-1.98-0.37-2.96-2.43-2.95
		c-4.41,0.03-8.83,0.01-13.24,0.05c-2.4,0.02-3.53,0.97-2.83,3.6c0.41,1.56,0.37,3.25,0.53,4.88c-0.26,0.06-0.52,0.13-0.77,0.19
		c-0.27-0.38-0.55-0.74-0.79-1.14c-1.2-1.94-2.65-3.81-5.16-2.32c-2.68,1.59-1.65,3.83-0.42,5.91c1.7,2.89,3.33,5.83,5.09,8.68
		c3.02,4.89,16.98,5.82,20.69,1.42c0.08-0.09,0.16-0.18,0.22-0.28c2.21-3.84,4.61-7.6,6.48-11.6
		C191.9,53.74,191.2,51.18,190.29,50.68z"/>
</g>
</svg>
