<?xml version="1.0" encoding="utf-8"?>
<!-- Generator: Adobe Illustrator 27.8.1, SVG Export Plug-In . SVG Version: 6.00 Build 0)  -->
<svg version="1.1" id="Layer_1" xmlns="http://www.w3.org/2000/svg" xmlns:xlink="http://www.w3.org/1999/xlink" x="0px" y="0px"
	 viewBox="0 0 350 230" style="enable-background:new 0 0 350 230;" xml:space="preserve">
<style type="text/css">
	.st0{fill:#00585E;}
	.st1{fill:#007984;}
	.st2{fill:#00373A;}
	.st3{fill:#00FFFF;}
	.st4{fill:#663567;}
	.st5{fill:#2B002D;}
	.st6{fill:#083300;}
	.st7{fill:#58E505;}
	.st8{fill:#1734BF;}
	.st9{fill:#511404;}
	.st10{fill:#EB5CFF;}
	.st11{fill:#007C6D;}
	.st12{fill:#A38800;}
	.st13{fill:#A710C1;}
	.st14{fill:#52025B;}
	.st15{fill:#007A6E;}
	.st16{fill:#0000FF;}
	.st17{fill:#00FFD3;}
	.st18{fill:#5B0038;}
	.st19{fill:#4D2207;}
	.st20{fill:#4B4900;}
	.st21{opacity:0.5;}
	.st22{clip-path:url(#SVGID_00000008837533780719289580000016995043787169904778_);fill:#003F49;}
	.st23{fill:#00F7D9;}
	.st24{fill:#C0C900;}
	
		.st25{fill-rule:evenodd;clip-rule:evenodd;fill:url(#SVGID_00000000189309520478310840000017259748925343958972_);stroke:#ED9E00;stroke-width:0.5;stroke-miterlimit:10;}
	.st26{fill-rule:evenodd;clip-rule:evenodd;fill:#434EDD;}
	.st27{fill-rule:evenodd;clip-rule:evenodd;fill:#FFFFFF;}
	.st28{fill-rule:evenodd;clip-rule:evenodd;fill:#A5CB39;stroke:#465900;stroke-width:0.25;stroke-miterlimit:10;}
	.st29{fill-rule:evenodd;clip-rule:evenodd;fill:#94964D;}
	.st30{fill-rule:evenodd;clip-rule:evenodd;fill:#470A0A;}
	.st31{fill-rule:evenodd;clip-rule:evenodd;fill:#F200FF;}
	.st32{fill-rule:evenodd;clip-rule:evenodd;fill:#0A0089;}
	.st33{fill-rule:evenodd;clip-rule:evenodd;fill:#FF6700;}
	.st34{fill-rule:evenodd;clip-rule:evenodd;fill:#00FFF8;}
</style>
<g>
	<path class="st17" d="M207.25,60.57c7.19,6.87,10.38,25.23,5.87,34.76c-1.88-1.21-3.74-2.41-5.6-3.6
		c-0.09,0.12-0.18,0.24-0.28,0.36c1.31,1.05,2.55,2.18,3.94,3.12c1.57,1.06,1.79,2.26,0.86,3.82c-1.5,2.52-3.01,5.03-4.44,7.59
		c-0.89,1.59-2.01,1.69-3.54,0.95c-1.4-0.68-2.91-1.15-4.51-1.4c1.81,0.95,3.63,1.9,5.45,2.85c-10.94,15.87-45.13,18.63-60.28,0.08
		c2.98-1.51,5.9-2.98,8.83-4.46c-0.04-0.09-0.08-0.19-0.12-0.28c-2.71,1.02-5.45,1.99-8.13,3.09c-1.31,0.54-2.21,0.4-2.93-0.89
		c-1.48-2.63-2.98-5.24-4.53-7.82c-0.94-1.56-0.46-2.6,0.91-3.58c1.52-1.09,2.95-2.32,4.2-3.79c-2.01,1.29-4.02,2.59-6.04,3.89
		c-4.48-9.59-1.76-26.7,6.54-35.35c0,1.59,0.22,2.64-0.04,3.56c-1.29,4.59-2.78,9.13-4.03,13.73c-0.73,2.68-0.32,5.23,2.19,6.94
		c2.52,1.72,4.87,1.02,7.23-0.56c3.27-2.2,6.56-4.39,10.01-6.29c0.99-0.54,3.08-0.58,3.72,0.07c1.25,1.3-0.05,2.56-1.19,3.51
		c-3.87,3.23-7.76,6.42-11.6,9.68c-1.89,1.6-2.15,3.79-1.5,6c0.64,2.19,2.3,3.53,4.52,3.9c1.02,0.17,2.19-0.01,3.18-0.35
		c3.81-1.31,7.57-2.74,11.35-4.13c0.94-0.35,1.87-0.96,2.83-0.99c1.03-0.04,2.09,0.44,3.13,0.7c-0.43,1.05-0.62,2.35-1.36,3.1
		c-0.91,0.92-2.26,1.41-3.45,2.03c-2.76,1.42-5.54,2.8-8.31,4.2c-2.12,1.08-3.38,2.79-3.41,5.18c-0.03,2.45,1.37,4.15,3.48,5.12
		c9.85,4.55,19.75,4.51,29.6-0.03c2.14-0.99,3.47-2.74,3.4-5.16c-0.06-2.37-1.3-4.08-3.45-5.16c-3.23-1.61-6.44-3.26-9.64-4.93
		c-0.89-0.46-1.9-0.9-2.51-1.63c-0.55-0.66-1.14-2.09-0.83-2.49c0.53-0.67,1.77-1.11,2.68-1.06c1.12,0.06,2.21,0.73,3.31,1.13
		c3.86,1.42,7.69,2.91,11.57,4.23c2.81,0.95,5.58-0.15,6.96-2.53c1.35-2.35,0.93-5.36-1.27-7.3c-3.02-2.67-6.17-5.18-9.26-7.77
		c-1.03-0.86-2.22-1.62-2.98-2.68c-0.47-0.66-0.62-1.97-0.26-2.66c0.26-0.5,1.6-0.68,2.41-0.59c0.78,0.09,1.53,0.66,2.23,1.11
		c3.19,2.03,6.38,4.05,9.52,6.14c2.16,1.43,4.34,1.77,6.59,0.37c2.39-1.48,3.08-3.86,2.45-6.36c-1.2-4.79-2.74-9.48-4.07-14.24
		c-0.27-0.97-0.2-2.03-0.28-3.05C206.68,60.6,206.97,60.58,207.25,60.57z"/>
	<path class="st18" d="M192.37,110.13c0.03,2.47-2.15,4.68-4.63,4.71c-2.5,0.03-4.65-2.09-4.69-4.63c-0.04-2.54,2.03-4.65,4.6-4.67
		C190.2,105.53,192.34,107.61,192.37,110.13z M144.67,74.99c-2.56,0-4.66,2.06-4.66,4.6c-0.01,2.56,2.04,4.59,4.65,4.6
		c2.66,0.01,4.6-1.93,4.61-4.58C149.27,76.97,147.3,74.99,144.67,74.99z M200.81,79.47c-0.02,2.58,2,4.66,4.56,4.69
		c2.55,0.03,4.69-2.05,4.71-4.57c0.02-2.54-2.06-4.64-4.6-4.66C202.85,74.91,200.83,76.87,200.81,79.47z M196.65,90.25
		c-2.51-0.09-4.67,1.97-4.75,4.52c-0.08,2.57,1.91,4.67,4.49,4.74c2.63,0.07,4.67-1.86,4.72-4.48
		C201.17,92.42,199.22,90.34,196.65,90.25z M162.25,105.67c-2.58,0.04-4.63,2.15-4.58,4.69c0.06,2.51,2.24,4.61,4.75,4.57
		c2.54-0.04,4.58-2.18,4.53-4.74C166.89,107.55,164.9,105.63,162.25,105.67z M148.88,94.77c-0.06,2.66,1.85,4.67,4.48,4.72
		c2.55,0.05,4.71-1.99,4.78-4.51c0.07-2.46-2.08-4.71-4.55-4.78C151.1,90.13,148.94,92.22,148.88,94.77z"/>
</g>
</svg>
