<?xml version="1.0" encoding="utf-8"?>
<!-- Generator: Adobe Illustrator 27.8.1, SVG Export Plug-In . SVG Version: 6.00 Build 0)  -->
<svg version="1.1" id="Layer_1" xmlns="http://www.w3.org/2000/svg" xmlns:xlink="http://www.w3.org/1999/xlink" x="0px" y="0px"
	 viewBox="0 0 350 230" style="enable-background:new 0 0 350 230;" xml:space="preserve">
<style type="text/css">
	.st0{fill:#00585E;}
	.st1{fill:#007984;}
	.st2{fill:#00373A;}
	.st3{fill:#00FFFF;}
	.st4{fill:#663567;}
	.st5{fill:#2B002D;}
	.st6{fill:#083300;}
	.st7{fill:#58E505;}
	.st8{fill:#1734BF;}
	.st9{fill:#511404;}
	.st10{fill:#EB5CFF;}
	.st11{fill:#007C6D;}
	.st12{fill:#A38800;}
	.st13{fill:#A710C1;}
	.st14{fill:#52025B;}
	.st15{fill:#007A6E;}
	.st16{fill:#0000FF;}
	.st17{fill:#00FFD3;}
	.st18{fill:#5B0038;}
	.st19{fill:#4D2207;}
	.st20{fill:#4B4900;}
	.st21{opacity:0.5;}
	.st22{clip-path:url(#SVGID_00000142860895863340185190000016029735663465410216_);fill:#003F49;}
	.st23{fill:#00F7D9;}
	.st24{fill:#C0C900;}
	
		.st25{fill-rule:evenodd;clip-rule:evenodd;fill:url(#SVGID_00000099649299426930712980000011832419618074034331_);stroke:#ED9E00;stroke-width:0.5;stroke-miterlimit:10;}
	.st26{fill-rule:evenodd;clip-rule:evenodd;fill:#434EDD;}
	.st27{fill-rule:evenodd;clip-rule:evenodd;fill:#FFFFFF;}
	.st28{fill-rule:evenodd;clip-rule:evenodd;fill:#A5CB39;stroke:#465900;stroke-width:0.25;stroke-miterlimit:10;}
	.st29{fill-rule:evenodd;clip-rule:evenodd;fill:#94964D;}
	.st30{fill-rule:evenodd;clip-rule:evenodd;fill:#470A0A;}
	.st31{fill-rule:evenodd;clip-rule:evenodd;fill:#F200FF;}
	.st32{fill-rule:evenodd;clip-rule:evenodd;fill:#0A0089;}
	.st33{fill-rule:evenodd;clip-rule:evenodd;fill:#FF6700;}
	.st34{fill-rule:evenodd;clip-rule:evenodd;fill:#00FFF8;}
</style>
<g>
	<path class="st19" d="M176.43,65.89c2.23,1.43,4.41,2.1,6.83,1.75c2.07-0.3,3.87-1.22,5.55-2.43c3.46-2.51,6.13-5.76,8.44-9.29
		c2.07-3.17,3.92-6.48,5.87-9.73c0.11-0.18,0.22-0.37,0.5-0.52c-0.08,0.6-0.14,1.2-0.25,1.79c-0.12,0.62-0.21,1.27-0.45,1.85
		c-1.3,3.18-2.54,6.38-3.99,9.49c-1.75,3.75-3.77,7.37-5.51,11.13c-5.61,12.11-4.53,23.81,2.33,35.11c0.45,0.74,0.9,1.47,1.36,2.19
		c0.45,0.69,0.91,1.37,1.4,2.1c-4.04-1.55-12.7-11.54-16.32-18.89C178.41,82.77,176.79,74.59,176.43,65.89z M146.25,45.83
		c0.02,0.25,0.06,0.51,0.09,0.76c0.65,4.32,2.56,8.17,4.45,12.04c2.37,4.86,4.87,9.67,6.94,14.66c2.3,5.57,2.89,11.46,1.88,17.45
		c-0.86,5.13-2.85,9.83-5.49,14.27c-0.87,1.46-1.81,2.88-2.72,4.32c7.5-5.26,13.21-11.99,16.96-20.34
		c3.28-7.29,4.74-14.97,5.05-22.93c-1.17,0.49-2.19,1.04-3.28,1.34c-3.31,0.91-6.22-0.19-8.89-2.08c-3.57-2.52-6.29-5.86-8.66-9.47
		c-2.19-3.32-4.18-6.76-6.28-10.17C146.29,45.72,146.25,45.78,146.25,45.83z M158.63,57.06c0-3.33,2.68-6.05,5.97-6.05
		c3.37,0,6.09,2.71,6.08,6.06c-0.01,3.3-2.73,5.99-6.04,5.99C161.32,63.07,158.63,60.38,158.63,57.06z M185.25,51.01
		c-3.35-0.01-6.09,2.72-6.08,6.07c0.01,3.3,2.73,5.99,6.05,5.99c3.31,0.01,6.02-2.7,6.01-6.01
		C191.23,53.73,188.55,51.02,185.25,51.01z"/>
	<path class="st20" d="M154.3,77.77c0.76,11.65-7.75,28.52-16.75,33.05c0.49-0.75,0.9-1.37,1.3-2c2.52-3.96,4.41-8.17,5.08-12.87
		c0.75-5.28-0.29-10.29-2.48-15.06c-1.6-3.5-3.43-6.89-5.13-10.35c-1.17-2.38-2.19-4.81-2.61-7.45c-0.04-0.26-0.06-0.53,0.06-0.85
		c0.73,1.29,1.44,2.59,2.2,3.87c2.07,3.48,4.28,6.88,7.31,9.62c0.94,0.85,1.98,1.62,3.07,2.25C148.98,79.49,150.84,79.4,154.3,77.77
		z M212.18,110.78c-1.08-1.87-2.27-3.74-3.28-5.7c-3.2-6.22-4.13-12.72-2.2-19.53c1.05-3.7,2.82-7.08,4.51-10.51
		c1.54-3.1,2.95-6.27,4.31-9.45c0.44-1.02,0.54-2.18,0.79-3.27c-0.08-0.03-0.15-0.05-0.23-0.08c-0.13,0.21-0.26,0.41-0.38,0.62
		c-1.2,2.03-2.33,4.1-3.6,6.08c-1.82,2.85-3.86,5.55-6.54,7.68c-3.06,2.43-6.31,3.45-10.01,1.08
		C194.62,89.1,203.25,106.17,212.18,110.78z M147.68,66.26c2.55,0.01,4.6,2.06,4.61,4.61c0.01,2.54-2.08,4.62-4.61,4.61
		c-2.54-0.01-4.63-2.1-4.61-4.62C143.08,68.31,145.14,66.26,147.68,66.26z M197.57,70.99c0.05,2.48,2.13,4.51,4.63,4.5
		c2.54-0.01,4.62-2.11,4.6-4.63c-0.02-2.54-2.11-4.61-4.64-4.59C199.57,66.28,197.52,68.39,197.57,70.99z"/>
</g>
</svg>
