<?xml version="1.0" encoding="utf-8"?>
<!-- Generator: Adobe Illustrator 27.8.1, SVG Export Plug-In . SVG Version: 6.00 Build 0)  -->
<svg version="1.1" id="Layer_1" xmlns="http://www.w3.org/2000/svg" xmlns:xlink="http://www.w3.org/1999/xlink" x="0px" y="0px"
	 viewBox="0 0 350 230" style="enable-background:new 0 0 350 230;" xml:space="preserve">
<style type="text/css">
	.st0{fill:#00585E;}
	.st1{fill:#007984;}
	.st2{fill:#00373A;}
	.st3{fill:#00FFFF;}
	.st4{fill:#663567;}
	.st5{fill:#2B002D;}
	.st6{fill:#083300;}
	.st7{fill:#58E505;}
	.st8{fill:#1734BF;}
	.st9{fill:#511404;}
	.st10{fill:#EB5CFF;}
	.st11{fill:#007C6D;}
	.st12{fill:#A38800;}
	.st13{fill:#A710C1;}
	.st14{fill:#52025B;}
	.st15{fill:#007A6E;}
	.st16{fill:#0000FF;}
	.st17{fill:#00FFD3;}
	.st18{fill:#5B0038;}
	.st19{fill:#4D2207;}
	.st20{fill:#4B4900;}
	.st21{opacity:0.5;}
	.st22{clip-path:url(#SVGID_00000013876033347426893840000016364013239590248621_);fill:#003F49;}
	.st23{fill:#00F7D9;}
	.st24{fill:#C0C900;}
	
		.st25{fill-rule:evenodd;clip-rule:evenodd;fill:url(#SVGID_00000023961139769900542320000007967642537107758000_);stroke:#ED9E00;stroke-width:0.5;stroke-miterlimit:10;}
	.st26{fill-rule:evenodd;clip-rule:evenodd;fill:#434EDD;}
	.st27{fill-rule:evenodd;clip-rule:evenodd;fill:#FFFFFF;}
	.st28{fill-rule:evenodd;clip-rule:evenodd;fill:#A5CB39;stroke:#465900;stroke-width:0.25;stroke-miterlimit:10;}
	.st29{fill-rule:evenodd;clip-rule:evenodd;fill:#94964D;}
	.st30{fill-rule:evenodd;clip-rule:evenodd;fill:#470A0A;}
	.st31{fill-rule:evenodd;clip-rule:evenodd;fill:#F200FF;}
	.st32{fill-rule:evenodd;clip-rule:evenodd;fill:#0A0089;}
	.st33{fill-rule:evenodd;clip-rule:evenodd;fill:#FF6700;}
	.st34{fill-rule:evenodd;clip-rule:evenodd;fill:#00FFF8;}
</style>
<g>
	<path class="st23" d="M154.71,93.96c-3.45-7.43-11.18-6.62-8.93-21.42c-2.83,4.93-4.45,10.64-4.45,16.73
		c0,8.36,3.05,16.01,8.09,21.89c-1.4,4.91-0.85,6.89-0.85,6.89C150.81,112.59,158.77,102.71,154.71,93.96z M175,55.6
		c-8.67,0-16.62,3.23-22.54,8.67c-2.75,2.52-4.68,7.64-3.71,11.85c0.77,3.35,2.81,6.39,6.71,7.08c9.68,1.72,15.82-16.25,20.34-14.42
		c4.52,1.83-12.8,14.2-9.15,23.89c1.4,3.72,5.2,8.08,9.06,12.27c3.08-6.62,6.81-14.01,7.08-18.19c0.54-8.18-8.67-11.57-6.13-14.96
		c1.39-1.85,3.91-0.23,4.82,1.67c1.17,2.44,2.38,6.07,7.72,6.7c3.61,0.43,7.55-1.87,9.79-5.29c1.78-2.71,2.01-7.66-2.25-11.33
		C190.9,58.55,183.28,55.6,175,55.6z M158.31,79.22c-2.44,0-4.41-1.98-4.41-4.41c0-2.44,1.98-4.41,4.41-4.41
		c2.44,0,4.41,1.98,4.41,4.41C162.72,77.25,160.75,79.22,158.31,79.22z M189.5,77.07c-1.99,0-3.6-1.61-3.6-3.6s1.61-3.6,3.6-3.6
		c1.99,0,3.6,1.61,3.6,3.6C193.11,75.46,191.49,77.07,189.5,77.07z"/>
	<path class="st24" d="M167.83,107.18c-9.49-2.84-13.17,8.92-13.17,8.92c3.96,3.01,8.62,5.16,13.68,6.17
		c2.09-5.07,4.13-9.8,4.73-11.31C172.4,109.96,170.82,108.07,167.83,107.18z M172.77,122.86c0.74,0.05,1.48,0.08,2.23,0.08
		c2.41,0,4.75-0.25,7.02-0.73c0,0-4.83-6.21-5.48-7.29C176.15,115.94,174.65,119.15,172.77,122.86z M205.04,74.06
		c-0.02-3.05-0.62-6.54-2.77-9.13c0,0,4.25,8.83-4.73,17.52c-3.54,3.42-5.86,4.44-6.86,9.14c-1.47,6.9,2.02,17.04,4.31,24.75
		c8.29-6.13,13.66-15.98,13.66-27.08C208.67,83.8,207.36,78.63,205.04,74.06z M183.31,102.53c-1.54,0.93-3.25,5.29-3.74,6.6
		l8.18,11.31c0.71-0.29,1.41-0.61,2.1-0.94C187.36,111.73,185.53,101.19,183.31,102.53z M192.58,73.46c0,1.7-1.38,3.07-3.07,3.07
		s-3.07-1.38-3.07-3.07s1.38-3.07,3.07-3.07S192.58,71.77,192.58,73.46z M158.31,70.94c-2.14,0-3.87,1.73-3.87,3.87
		c0,2.14,1.73,3.87,3.87,3.87s3.87-1.73,3.87-3.87C162.18,72.67,160.45,70.94,158.31,70.94z"/>
</g>
</svg>
