<?xml version="1.0" encoding="utf-8"?>
<!-- Generator: Adobe Illustrator 27.8.1, SVG Export Plug-In . SVG Version: 6.00 Build 0)  -->
<svg version="1.1" id="Layer_1" xmlns="http://www.w3.org/2000/svg" xmlns:xlink="http://www.w3.org/1999/xlink" x="0px" y="0px"
	 viewBox="0 0 350 230" style="enable-background:new 0 0 350 230;" xml:space="preserve">
<style type="text/css">
	.st0{fill:#00585E;}
	.st1{fill:#007984;}
	.st2{fill:#00373A;}
	.st3{fill:#00FFFF;}
	.st4{fill:#663567;}
	.st5{fill:#2B002D;}
	.st6{fill:#083300;}
	.st7{fill:#58E505;}
	.st8{fill:#1734BF;}
	.st9{fill:#511404;}
	.st10{fill:#EB5CFF;}
	.st11{fill:#007C6D;}
	.st12{fill:#A38800;}
	.st13{fill:#A710C1;}
	.st14{fill:#52025B;}
	.st15{fill:#007A6E;}
	.st16{fill:#0000FF;}
	.st17{fill:#00FFD3;}
	.st18{fill:#5B0038;}
	.st19{fill:#4D2207;}
	.st20{fill:#4B4900;}
	.st21{opacity:0.5;}
	.st22{clip-path:url(#SVGID_00000116229498851846819280000015562649826815536801_);fill:#003F49;}
	.st23{fill:#00F7D9;}
	.st24{fill:#C0C900;}
	
		.st25{fill-rule:evenodd;clip-rule:evenodd;fill:url(#SVGID_00000093151728146927651430000013459474598301719991_);stroke:#ED9E00;stroke-width:0.5;stroke-miterlimit:10;}
	.st26{fill-rule:evenodd;clip-rule:evenodd;fill:#434EDD;}
	.st27{fill-rule:evenodd;clip-rule:evenodd;fill:#FFFFFF;}
	.st28{fill-rule:evenodd;clip-rule:evenodd;fill:#A5CB39;stroke:#465900;stroke-width:0.25;stroke-miterlimit:10;}
	.st29{fill-rule:evenodd;clip-rule:evenodd;fill:#94964D;}
	.st30{fill-rule:evenodd;clip-rule:evenodd;fill:#470A0A;}
	.st31{fill-rule:evenodd;clip-rule:evenodd;fill:#F200FF;}
	.st32{fill-rule:evenodd;clip-rule:evenodd;fill:#0A0089;}
	.st33{fill-rule:evenodd;clip-rule:evenodd;fill:#FF6700;}
	.st34{fill-rule:evenodd;clip-rule:evenodd;fill:#00FFF8;}
</style>
<g>
	
		<linearGradient id="SVGID_00000097467848857026015820000013958507322010315435_" gradientUnits="userSpaceOnUse" x1="162.6448" y1="-681.4431" x2="161.8231" y2="-570.2759" gradientTransform="matrix(1 0 0 -1 0 -518)">
		<stop  offset="0" style="stop-color:#F47E20"/>
		<stop  offset="1" style="stop-color:#EFAF1D"/>
	</linearGradient>
	
		<path style="fill-rule:evenodd;clip-rule:evenodd;fill:url(#SVGID_00000097467848857026015820000013958507322010315435_);stroke:#ED9E00;stroke-width:0.5;stroke-miterlimit:10;" d="
		M160.05,91.34c-3.12,3.12-8.19,3.12-11.31,0c-3.12-3.12-3.12-8.19,0-11.31c3.12-3.12,8.19-3.12,11.31,0
		C163.17,83.16,163.17,88.22,160.05,91.34L160.05,91.34z M192.43,110.3c-9.25-14.38-14.38-17.96-20.18-36.43
		c-1.99-6.34-4.48-12.64-6.5-11.45c-1.96,1.15,0.41,5.79,1,7.61c6.34,19.37-5.66,31.71-36.02,37.04c-5.12,0.9-3.15,4.56,0.22,3.92
		c16.89-3.18,28.23-1.73,35.9,2.87c5.02,3.01,7.42,6.52,8.08,10.48c0.39,2.34,0.1,5.82,0.08,8.32c6.88,0,14.23-0.48,21.06-1.63
		C198.19,123.54,196.62,117.01,192.43,110.3z"/>
	<path class="st26" d="M206.86,116.83c12.43,2.62,20.45,6.74,20.45,11.38c0,7.92-23.42,14.35-52.31,14.35s-52.31-6.42-52.31-14.35
		c0-4.63,8.01-8.75,20.45-11.38c-5.64,1.92-9.02,4.37-9.02,7.03c0,6.19,18.31,11.21,40.89,11.21s40.89-5.02,40.89-11.21
		C215.89,121.19,212.51,118.75,206.86,116.83z"/>
	<path class="st27" d="M196.06,131.04c-2.06-14.39-11.86-26.5-25.51-31.5c-3.91-1.43-7.95-2.22-11.99-2.39
		c-6.27,4.46-15.56,7.76-27.84,9.92c-5.12,0.9-3.15,4.56,0.22,3.92c16.89-3.18,28.23-1.73,35.9,2.87c5.02,3.01,7.42,6.52,8.08,10.48
		c0.39,2.34,0.1,5.82,0.08,8.32C181.88,132.67,189.23,132.19,196.06,131.04z"/>
	<path class="st28" d="M189.95,91.34c3.12,3.12,8.19,3.12,11.31,0c3.12-3.12,3.12-8.19,0-11.31c-3.12-3.12-8.19-3.12-11.31,0
		C186.82,83.16,186.82,88.22,189.95,91.34L189.95,91.34z M173.02,122.28c-2.88-5.78-8.36-9.12-16.23-10.67
		c-1.08,1.95-2.39,4.69-2.91,6.62c-1.25,4.66-1.07,8.85,0.06,12.81c1.8,0.3,3.62,0.55,5.42,0.76c4.75,0.55,9.56,0.82,14.34,0.86
		v-0.01c0.02-2.52,0.34-5.64-0.06-8.1C173.51,123.75,173.3,123,173.02,122.28L173.02,122.28z M219.28,107.07
		c5.12,0.9,3.15,4.56-0.22,3.92c-10.37-1.95-18.65-2.16-25.27-0.96c-0.09-0.14-0.18-0.28-0.27-0.43c-1.89-2.96-3.87-5.85-5.89-8.72
		c-1.64-2.33-3.31-4.65-4.87-7.04c-1.78-2.73-3.37-5.52-4.76-8.47c-0.78-1.65-1.49-3.34-2.15-5.04c2.07-7.36,5.66-19.53,8.41-17.91
		c1.96,1.15-0.41,5.79-1,7.61C176.92,89.4,188.92,101.74,219.28,107.07z M173.02,122.28c-1.4-2.81-3.42-5.05-6.03-6.78
		c-5.07,4.34-9.5,9.55-13.05,15.54c1.8,0.3,3.62,0.55,5.42,0.76c4.75,0.55,9.56,0.82,14.34,0.86v-0.01c0.02-2.52,0.34-5.64-0.06-8.1
		C173.51,123.75,173.3,123,173.02,122.28L173.02,122.28z M189.3,103.28c1.44,2.08,2.85,4.19,4.22,6.33
		c0.09,0.14,0.18,0.28,0.27,0.43c6.62-1.2,14.9-0.99,25.27,0.96c3.37,0.63,5.35-3.03,0.22-3.92c-8.22-1.44-15.09-3.4-20.62-5.87
		C195.48,101.65,192.35,102.35,189.3,103.28z"/>
</g>
</svg>
