<?xml version="1.0" encoding="utf-8"?>
<!-- Generator: Adobe Illustrator 27.8.1, SVG Export Plug-In . SVG Version: 6.00 Build 0)  -->
<svg version="1.1" id="Layer_1" xmlns="http://www.w3.org/2000/svg" xmlns:xlink="http://www.w3.org/1999/xlink" x="0px" y="0px"
	 viewBox="0 0 350 230" style="enable-background:new 0 0 350 230;" xml:space="preserve">
<style type="text/css">
	.st0{fill:#00585E;}
	.st1{fill:#007984;}
	.st2{fill:#00373A;}
	.st3{fill:#00FFFF;}
	.st4{fill:#663567;}
	.st5{fill:#2B002D;}
	.st6{fill:#083300;}
	.st7{fill:#58E505;}
	.st8{fill:#1734BF;}
	.st9{fill:#511404;}
	.st10{fill:#EB5CFF;}
	.st11{fill:#007C6D;}
	.st12{fill:#A38800;}
	.st13{fill:#A710C1;}
	.st14{fill:#52025B;}
	.st15{fill:#007A6E;}
	.st16{fill:#0000FF;}
	.st17{fill:#00FFD3;}
	.st18{fill:#5B0038;}
	.st19{fill:#4D2207;}
	.st20{fill:#4B4900;}
	.st21{opacity:0.5;}
	.st22{clip-path:url(#SVGID_00000026865684769030340010000006787658792730092956_);fill:#003F49;}
	.st23{fill:#00F7D9;}
	.st24{fill:#C0C900;}
	
		.st25{fill-rule:evenodd;clip-rule:evenodd;fill:url(#SVGID_00000142171826764256053040000006067164731333151396_);stroke:#ED9E00;stroke-width:0.5;stroke-miterlimit:10;}
	.st26{fill-rule:evenodd;clip-rule:evenodd;fill:#434EDD;}
	.st27{fill-rule:evenodd;clip-rule:evenodd;fill:#FFFFFF;}
	.st28{fill-rule:evenodd;clip-rule:evenodd;fill:#A5CB39;stroke:#465900;stroke-width:0.25;stroke-miterlimit:10;}
	.st29{fill-rule:evenodd;clip-rule:evenodd;fill:#94964D;}
	.st30{fill-rule:evenodd;clip-rule:evenodd;fill:#470A0A;}
	.st31{fill-rule:evenodd;clip-rule:evenodd;fill:#F200FF;}
	.st32{fill-rule:evenodd;clip-rule:evenodd;fill:#0A0089;}
	.st33{fill-rule:evenodd;clip-rule:evenodd;fill:#FF6700;}
	.st34{fill-rule:evenodd;clip-rule:evenodd;fill:#00FFF8;}
</style>
<g>
	<path class="st29" d="M148.86,109.23c3.03-7.64,3.33-16.35,1.15-24.43c-0.76-2.83-4.08-2.32-4.45-0.16
		c-0.1,0.57-0.2,1.45-0.31,2.63c-0.22,2.66-0.85,4.95-1.87,6.86c-1.4,2.46-3.86,3.11-7.39,1.95c-2.52-0.9-3.98-1.42-4.38-1.56
		c-1.46-0.52-2.93-0.27-3.75,1.11c-0.78,1.31-0.32,2.9,1,3.69c7.66,4.6,12.01,12.63,9.81,20.57L148.86,109.23z M136.81,85.78
		c2.42-0.64,4.93,0.73,5.59,3.05c0.67,2.32-0.76,4.73-3.18,5.36c-2.42,0.64-4.93-0.73-5.59-3.05
		C132.96,88.83,134.38,86.42,136.81,85.78"/>
	<path class="st30" d="M148.35,95.45c0.08,6.71-1.58,15.89-5.04,19.59c1.48-1.54,3.89-4.07,5.24-5.48l15.81-16.54
		c2.16-5.84,2.78-12.7,1.51-20.01c-0.62-3.56-3.62-6.61-5.28-1.35c-1.25,3.97-3.33,10.16-7.84,9.1c-2.68-0.57-6.81-3.39-12.41-8.48
		c-1.52-1.29-2.27-1.93-2.27-1.93c-0.94-0.76-2.32-0.7-3.19,0.12c-0.87,0.83-0.94,2.15-0.17,3.06
		C143.63,81.97,148.18,89.27,148.35,95.45 M150.27,68.82c-2.5,0.31-4.26,2.5-3.94,4.9c0.32,2.4,2.6,4.09,5.1,3.78
		c2.5-0.31,4.26-2.5,3.94-4.9C155.05,70.21,152.76,68.51,150.27,68.82"/>
	<path class="st31" d="M201.14,109.23c-3.03-7.64-3.33-16.35-1.15-24.43c0.76-2.83,4.08-2.32,4.45-0.16c0.1,0.57,0.2,1.45,0.31,2.63
		c0.22,2.66,0.85,4.95,1.87,6.86c1.4,2.46,3.86,3.11,7.39,1.95c2.52-0.9,3.98-1.42,4.38-1.56c1.46-0.52,2.93-0.27,3.75,1.11
		c0.78,1.31,0.32,2.9-1,3.69c-7.66,4.6-12.01,12.63-9.81,20.57L201.14,109.23z M213.19,85.78c-2.42-0.64-4.93,0.73-5.59,3.05
		c-0.67,2.32,0.76,4.73,3.18,5.36c2.42,0.64,4.93-0.73,5.59-3.05C217.04,88.83,215.62,86.42,213.19,85.78"/>
	<path class="st32" d="M201.65,95.45c-0.08,6.71,1.58,15.89,5.04,19.59c-1.8-1.89-3.99-4.17-5.24-5.48l-15.81-16.54
		c-2.16-5.84-2.78-12.7-1.51-20.01c0.62-3.56,3.62-6.61,5.28-1.35c1.25,3.97,3.33,10.16,7.84,9.1c2.68-0.57,6.82-3.39,12.41-8.48
		c1.52-1.29,2.27-1.93,2.27-1.93c0.94-0.76,2.32-0.7,3.19,0.12c0.87,0.83,0.94,2.15,0.17,3.06
		C206.37,81.97,201.82,89.27,201.65,95.45 M199.73,68.82c2.5,0.31,4.26,2.5,3.94,4.9c-0.32,2.4-2.6,4.09-5.1,3.78
		c-2.5-0.31-4.26-2.5-3.94-4.9C194.95,70.21,197.24,68.51,199.73,68.82"/>
	<path class="st33" d="M201.74,64.53c-7.71,9.07-12.85,18.81-16.11,28.48l-3.71-3.88c-1.91-1.8-4.42-2.7-6.92-2.7
		c-2.51,0-5.01,0.9-6.92,2.7l-4.16,4.35c-3.34-14.53-10.6-21.8-12.88-29.42c-1.49-4.99,2.89-8.78,7.66-4.55
		c1.65,1.46,3.13,2.82,4.43,4.06c16.42,12.96,24.5,3.69,34.21-11.57c1.92-2.67,4.09-6.07,8.14-3.82
		C211.55,51.54,204.28,61.16,201.74,64.53 M178.16,51.93c4.08,0,7.39,3.18,7.39,7.09c0,3.92-3.31,7.09-7.39,7.09
		s-7.39-3.18-7.39-7.09C170.77,55.1,174.08,51.93,178.16,51.93L178.16,51.93z"/>
	<path class="st34" d="M170.93,98.39l-27.85,30.4c-1.03,1.12-2.79,1.2-3.91,0.17c-1.12-1.03-1.2-2.79-0.17-3.91l29.6-32.27
		c1.77-1.74,4.08-2.6,6.4-2.6c2.32,0,4.63,0.87,6.4,2.6l29.6,32.27c1.03,1.12,0.95,2.88-0.17,3.91c-1.12,1.03-2.88,0.95-3.91-0.17
		l-27.85-30.4c-0.98-1.07-2.53-1.61-4.07-1.61C173.46,96.78,171.91,97.32,170.93,98.39L170.93,98.39z M180.82,116.6v5.24h-5.18
		v-5.24H180.82z M175.64,109.9h5.18v5.42h-5.18V109.9z M174.36,116.6v5.24h-5.18v-5.24H174.36z M169.18,109.9h5.18v5.42h-5.18
		L169.18,109.9L169.18,109.9z"/>
</g>
</svg>
