<?xml version="1.0" encoding="utf-8"?>
<!-- Generator: Adobe Illustrator 27.8.1, SVG Export Plug-In . SVG Version: 6.00 Build 0)  -->
<svg version="1.1" id="Layer_1" xmlns="http://www.w3.org/2000/svg" xmlns:xlink="http://www.w3.org/1999/xlink" x="0px" y="0px"
	 viewBox="0 0 350 230" style="enable-background:new 0 0 350 230;" xml:space="preserve">
<style type="text/css">
	.st0{fill:#00585E;}
	.st1{fill:#007984;}
	.st2{fill:#00373A;}
	.st3{fill:#00FFFF;}
	.st4{fill:#663567;}
	.st5{fill:#2B002D;}
	.st6{fill:#083300;}
	.st7{fill:#58E505;}
	.st8{fill:#1734BF;}
	.st9{fill:#511404;}
	.st10{fill:#EB5CFF;}
	.st11{fill:#007C6D;}
	.st12{fill:#A38800;}
	.st13{fill:#A710C1;}
	.st14{fill:#52025B;}
	.st15{fill:#007A6E;}
	.st16{fill:#0000FF;}
	.st17{fill:#00FFD3;}
	.st18{fill:#5B0038;}
	.st19{fill:#4D2207;}
	.st20{fill:#4B4900;}
	.st21{opacity:0.5;}
	.st22{clip-path:url(#SVGID_00000032631195215853760720000011930849810633876358_);fill:#003F49;}
	.st23{fill:#00F7D9;}
	.st24{fill:#C0C900;}
	
		.st25{fill-rule:evenodd;clip-rule:evenodd;fill:url(#SVGID_00000021121015561488854030000010879953046844823486_);stroke:#ED9E00;stroke-width:0.5;stroke-miterlimit:10;}
	.st26{fill-rule:evenodd;clip-rule:evenodd;fill:#434EDD;}
	.st27{fill-rule:evenodd;clip-rule:evenodd;fill:#FFFFFF;}
	.st28{fill-rule:evenodd;clip-rule:evenodd;fill:#A5CB39;stroke:#465900;stroke-width:0.25;stroke-miterlimit:10;}
	.st29{fill-rule:evenodd;clip-rule:evenodd;fill:#94964D;}
	.st30{fill-rule:evenodd;clip-rule:evenodd;fill:#470A0A;}
	.st31{fill-rule:evenodd;clip-rule:evenodd;fill:#F200FF;}
	.st32{fill-rule:evenodd;clip-rule:evenodd;fill:#0A0089;}
	.st33{fill-rule:evenodd;clip-rule:evenodd;fill:#FF6700;}
	.st34{fill-rule:evenodd;clip-rule:evenodd;fill:#00FFF8;}
</style>
<g>
	<path class="st1" d="M196.13,144.36c-10.5,1.78-18.65-6.32-16.93-16.55c2.18-12.94,8.21-23.72,18.27-32.18
		c7.91-6.66,19.17-4.37,22.91,4.6c0.18,0.44,0.26,0.93,0.39,1.39c-2.98,1.45-5.99,2.63-8.69,4.31c-2.61,1.63-4.89,3.77-7.15,5.89
		c10.17-0.2,15.05,2.73,16.21,9.87c0.96,5.93-2.63,11.53-8.45,13.19c-6.53,1.87-11.79-1.34-15.16-9.25
		c-0.24-0.05-0.48-0.09-0.71-0.14c-0.47,3.06-1.23,6.1-1.34,9.17C195.35,137.85,195.88,141.06,196.13,144.36z"/>
	<path class="st2" d="M153.53,144.2c1.39-6.46,1.53-12.74-0.96-19.67c-1.3,5.32-3.72,9.22-8.63,10.2c-2.69,0.54-5.88,0.35-8.44-0.6
		c-5.46-2.02-7.93-8.18-6.29-14.06c1.74-6.21,7.14-8.94,16.11-7.81c-4.5-5.28-9.97-8.24-16.01-10.25c0.41-4.8,5.72-9.56,11.18-10.1
		c4.23-0.42,8.01,0.52,11.38,3.27c10.66,8.68,17,19.85,18.93,33.38C172.25,138.65,163.3,146.77,153.53,144.2z"/>
	<path class="st3" d="M150.22,65.12c4.83,4.51,10.14,7.86,17.37,9.28c-3.89-3.85-6-7.93-4.32-12.64c0.92-2.58,2.72-5.22,4.85-6.93
		c4.54-3.64,11.1-2.6,15.29,1.83c4.43,4.68,4,10.72-1.58,17.83c6.84-1.15,12.19-4.32,17.02-8.46c3.91,2.82,5.26,9.82,2.92,14.78
		c-1.81,3.84-4.56,6.6-8.65,8.08c-12.92,4.68-25.76,4.38-38.37-0.91C145.36,84.04,142.99,72.19,150.22,65.12z"/>
</g>
</svg>
