<?xml version="1.0" encoding="utf-8"?>
<!-- Generator: Adobe Illustrator 27.8.1, SVG Export Plug-In . SVG Version: 6.00 Build 0)  -->
<svg version="1.1" id="Layer_1" xmlns="http://www.w3.org/2000/svg" xmlns:xlink="http://www.w3.org/1999/xlink" x="0px" y="0px"
	 viewBox="0 0 350 230" style="enable-background:new 0 0 350 230;" xml:space="preserve">
<style type="text/css">
	.st0{fill:#00585E;}
	.st1{fill:#007984;}
	.st2{fill:#00373A;}
	.st3{fill:#00FFFF;}
	.st4{fill:#663567;}
	.st5{fill:#2B002D;}
	.st6{fill:#083300;}
	.st7{fill:#58E505;}
	.st8{fill:#1734BF;}
	.st9{fill:#511404;}
	.st10{fill:#EB5CFF;}
	.st11{fill:#007C6D;}
	.st12{fill:#A38800;}
	.st13{fill:#A710C1;}
	.st14{fill:#52025B;}
	.st15{fill:#007A6E;}
	.st16{fill:#0000FF;}
	.st17{fill:#00FFD3;}
	.st18{fill:#5B0038;}
	.st19{fill:#4D2207;}
	.st20{fill:#4B4900;}
	.st21{opacity:0.5;}
	.st22{clip-path:url(#SVGID_00000143616082847355217970000012731325073157489578_);fill:#003F49;}
	.st23{fill:#00F7D9;}
	.st24{fill:#C0C900;}
	
		.st25{fill-rule:evenodd;clip-rule:evenodd;fill:url(#SVGID_00000075124374642709185410000004179887060271387292_);stroke:#ED9E00;stroke-width:0.5;stroke-miterlimit:10;}
	.st26{fill-rule:evenodd;clip-rule:evenodd;fill:#434EDD;}
	.st27{fill-rule:evenodd;clip-rule:evenodd;fill:#FFFFFF;}
	.st28{fill-rule:evenodd;clip-rule:evenodd;fill:#A5CB39;stroke:#465900;stroke-width:0.25;stroke-miterlimit:10;}
	.st29{fill-rule:evenodd;clip-rule:evenodd;fill:#94964D;}
	.st30{fill-rule:evenodd;clip-rule:evenodd;fill:#470A0A;}
	.st31{fill-rule:evenodd;clip-rule:evenodd;fill:#F200FF;}
	.st32{fill-rule:evenodd;clip-rule:evenodd;fill:#0A0089;}
	.st33{fill-rule:evenodd;clip-rule:evenodd;fill:#FF6700;}
	.st34{fill-rule:evenodd;clip-rule:evenodd;fill:#00FFF8;}
</style>
<path class="st4" d="M200.74,124.94c-5.74,1.01-10.78-0.95-15.31-3.56c-2.77,4.74-5.51,9.44-8.37,14.33
	c1.98,0.79,3.72,3.07,2.4,6.06c-0.62,1.41-2.85,2.92-4.34,2.91c-1.48-0.02-3.61-1.58-4.28-3.01c-1.36-2.91,0.57-4.96,2.34-5.86
	c-2.86-4.95-5.66-9.79-8.17-14.14c-4.89,1.37-10.38,2.9-16.12,4.5c0.08,3.56-1.57,6-4.79,5.96c-2.81-0.04-5.08-2.63-4.7-5.37
	c0.45-3.22,2.91-4.47,6.75-3.81c1.46-5.2,2.91-10.34,4.29-15.25c-3.18-1.72-6.96-3.39-10.32-5.69c-4.15-2.84-4.21-5.53-0.14-8.28
	c3.57-2.41,7.59-4.14,10.86-5.87c-1.5-5.1-3.1-10.57-4.78-16.29c-3.82,0.04-6.08-1.55-5.99-4.88c0.07-2.71,2.38-4.81,5.07-4.62
	c3.28,0.23,4.75,2.84,4.24,6.56c5.49,1.61,10.86,3.19,16.34,4.8c1.35-4.74,3.32-9.95,8.27-13.31c-3.84-3.26-4.56-6.32-2-8.69
	c1.94-1.8,5.17-1.58,6.86,0.45c2.12,2.56,1.21,5.42-1.85,7.57c2.76,4.6,5.49,9.14,8.06,13.43c4.74-1.27,10-2.69,15.52-4.17
	c0.18-4.02,1.7-6.09,4.99-5.94c2.67,0.12,4.82,2.56,4.55,5.16c-0.33,3.22-3.01,4.62-6.71,4.07c-1.58,5.39-3.12,10.68-4.55,15.54
	c4.55,2.4,9.67,5.09,15.03,7.92c2.42-2.61,5.27-3.2,7.58-0.95c1.89,1.84,1.86,5.08-0.06,6.87c-2.38,2.22-5.1,1.63-7.56-1.21
	c-5.06,2.74-9.99,5.41-15.09,8.17c2.1,4.4,5.05,9.41,3.01,15.41C201.43,124.14,201.08,124.54,200.74,124.94z M172.35,111.06
	c-0.2,3.57-5.28,5.02-3.01,9.02c1.64,2.9,3.48,5.68,5.57,9.07c1.75-2.35,3.04-3.94,4.17-5.63c1.98-2.96,3.54-5.9-0.11-8.9
	c-0.92-0.76-1.33-2.15-1.98-3.25c0.11-0.09,0.22-0.17,0.33-0.26c1.48,1.31,2.96,2.61,5.08,4.47c0.23-2.83,0.39-4.82,0.55-6.81
	c2.66,2.5-0.28,7.35,3.85,8.85c3.18,1.15,6.61,1.63,10.3,2.5c-0.17-1.85-0.23-2.69-0.32-3.53c-0.6-5.47-1.84-10.39-8.92-10.25
	c-0.32,0.01-0.65-0.46-0.98-0.71c1.86-0.16,3.58-0.31,5.85-0.5c-1.6-1.98-2.72-3.36-3.91-4.83c3.79-0.05,5.1,5.84,9.46,3.32
	c2.96-1.71,5.83-3.58,9.15-5.63c-6.27-4.83-11.44-10.35-18.73-3.48c1.03-1.24,2.07-2.48,3.37-4.04c-1.7-0.3-2.95-0.53-4.74-0.85
	c3.11-1.43,7.06-0.43,7.82-4.73c0.56-3.15,1.44-6.24,2.38-10.23c-3.69,0.74-6.39,1.27-9.08,1.83c-2.52,0.52-4.06,1.69-3.95,4.66
	c0.06,1.7-0.73,3.43-1.14,5.15c-0.13-0.03-0.26-0.07-0.4-0.1c-0.18-2.06-0.36-4.13-0.59-6.77c-1.91,1.5-3.24,2.55-4.64,3.64
	c-0.19-3.44,5.1-4.65,3-8.46c-1.56-2.83-3.42-5.48-5.45-8.7c-4.11,5.68-9.97,10.13-3.47,17.08c-1.19-0.91-2.39-1.81-3.94-2.99
	c-0.33,2.15-0.58,3.79-0.85,5.53c-2.38-2.47,0.52-7.34-4.23-8.47c-3.24-0.77-6.47-1.56-9.7-2.34c-0.32,0.33-0.64,0.66-0.97,1
	c1.05,3.66,1.47,7.7,3.38,10.82c1.11,1.81,4.63,2.14,7.13,3.16c-1.52,0.25-3.09,0.51-5.08,0.85c1.4,1.62,2.4,2.79,3.63,4.22
	c-3.48-0.27-5.3-5.31-9.26-2.69c-2.75,1.81-5.56,3.54-8.89,5.64c2.72,1.9,4.61,3.21,6.49,4.53c2.77,1.95,5.37,2.48,7.96-0.43
	c0.83-0.94,2.22-1.38,3.36-2.05c0.05,0.13,0.1,0.26,0.15,0.39c-1.23,1.5-2.46,3.01-4.09,4.99c2.74,0.18,4.65,0.3,6.7,0.43
	c-2.59,2.62-7.41-0.23-8.9,3.89c-1.13,3.11-1.65,6.45-2.62,10.4c2.68-0.36,4.45-0.55,6.2-0.85c4.27-0.73,8.13-1.89,7.85-7.46
	c-0.03-0.64,0.43-1.3,0.83-2.45c0.36,2.16,0.62,3.73,0.96,5.83C169.7,113.4,170.96,112.29,172.35,111.06z M200.06,127.38
	c-0.29,3,1.78,5.51,4.57,5.4c2.82-0.11,4.54-1.71,4.8-4.54c0.26-2.81-2.04-4.93-5.12-4.85c-0.85,0.02-1.69,0.22-2.53,0.34
	c-0.35,0.4-0.7,0.81-1.04,1.21C200.5,125.76,200.14,126.56,200.06,127.38z M131.59,101.62c2.8,0.17,4.94-1.76,4.98-4.56
	c0.04-2.94-1.63-4.49-4.37-4.85c-2.57-0.34-5,1.97-5.09,4.59C127.04,99.29,129.06,101.46,131.59,101.62z"/>
</svg>
