<?xml version="1.0" encoding="utf-8"?>
<!-- Generator: Adobe Illustrator 27.8.1, SVG Export Plug-In . SVG Version: 6.00 Build 0)  -->
<svg version="1.1" id="Layer_1" xmlns="http://www.w3.org/2000/svg" xmlns:xlink="http://www.w3.org/1999/xlink" x="0px" y="0px"
	 viewBox="0 0 350 230" style="enable-background:new 0 0 350 230;" xml:space="preserve">
<style type="text/css">
	.st0{fill:#00585E;}
	.st1{fill:#007984;}
	.st2{fill:#00373A;}
	.st3{fill:#00FFFF;}
	.st4{fill:#663567;}
	.st5{fill:#2B002D;}
	.st6{fill:#083300;}
	.st7{fill:#58E505;}
	.st8{fill:#1734BF;}
	.st9{fill:#511404;}
	.st10{fill:#EB5CFF;}
	.st11{fill:#007C6D;}
	.st12{fill:#A38800;}
	.st13{fill:#A710C1;}
	.st14{fill:#52025B;}
	.st15{fill:#007A6E;}
	.st16{fill:#0000FF;}
	.st17{fill:#00FFD3;}
	.st18{fill:#5B0038;}
	.st19{fill:#4D2207;}
	.st20{fill:#4B4900;}
	.st21{opacity:0.5;}
	.st22{clip-path:url(#SVGID_00000072259098660502437170000002052226687077505168_);fill:#003F49;}
	.st23{fill:#00F7D9;}
	.st24{fill:#C0C900;}
	
		.st25{fill-rule:evenodd;clip-rule:evenodd;fill:url(#SVGID_00000134957218176417326820000008626628272729179578_);stroke:#ED9E00;stroke-width:0.5;stroke-miterlimit:10;}
	.st26{fill-rule:evenodd;clip-rule:evenodd;fill:#434EDD;}
	.st27{fill-rule:evenodd;clip-rule:evenodd;fill:#FFFFFF;}
	.st28{fill-rule:evenodd;clip-rule:evenodd;fill:#A5CB39;stroke:#465900;stroke-width:0.25;stroke-miterlimit:10;}
	.st29{fill-rule:evenodd;clip-rule:evenodd;fill:#94964D;}
	.st30{fill-rule:evenodd;clip-rule:evenodd;fill:#470A0A;}
	.st31{fill-rule:evenodd;clip-rule:evenodd;fill:#F200FF;}
	.st32{fill-rule:evenodd;clip-rule:evenodd;fill:#0A0089;}
	.st33{fill-rule:evenodd;clip-rule:evenodd;fill:#FF6700;}
	.st34{fill-rule:evenodd;clip-rule:evenodd;fill:#00FFF8;}
</style>
<g>
	<path class="st4" d="M180.67,70.83c-4.7,1.19-8.06,4.02-10.15,8.56c-0.04-0.26-0.08-0.38-0.09-0.5c-0.14-2.5,0.1-4.93,1.28-7.19
		c1.32-2.53,3.46-4.14,6-5.27c2.38-1.06,4.91-1.61,7.45-2.14c1.8-0.37,3.59-0.81,5.37-1.25c0.47-0.12,0.91-0.37,1.52-0.63
		c-0.37,1.46-0.65,2.82-1.08,4.14c-1.13,3.5-2.85,6.7-5.2,9.54c-1.78,2.15-3.8,4.03-6.25,5.4c-1.24,0.7-2.59,0.93-3.99,0.59
		c-1.87-0.45-2.79-2-2.34-3.87c0.31-1.28,1.07-2.29,1.92-3.24c1.46-1.65,3.19-2.96,5.18-3.92C180.43,70.98,180.55,70.9,180.67,70.83
		z M173.65,54.45c-3.02,0.02-5.5,2.55-5.47,5.58c0.03,3.06,2.52,5.5,5.57,5.48c3.03-0.02,5.5-2.53,5.47-5.58
		C179.18,56.9,176.68,54.43,173.65,54.45z M169.17,78.94c-0.13-2.31,0.12-4.56,0.96-6.8c-0.63-0.21-1.2-0.39-1.77-0.58
		c0.52-0.04,1.02,0,1.51,0.08c0.33,0.06,0.52-0.03,0.68-0.35c0.22-0.45,0.47-0.88,0.76-1.29c0.36-0.52,0.77-1.02,1.19-1.57
		c-0.23-0.1-0.42-0.2-0.61-0.27c-2.29-0.9-4.71-1.01-7.12-1.02c-2.26-0.02-4.53,0.25-6.82-0.22
		C158.74,70.76,165.88,78.41,169.17,78.94z M180.3,116.06c-1.99-0.96-3.71-2.27-5.18-3.92c-0.85-0.95-1.61-1.96-1.92-3.24
		c-0.45-1.87,0.48-3.42,2.34-3.87c1.4-0.34,2.75-0.11,3.99,0.59c2.44,1.37,4.47,3.25,6.25,5.4c2.35,2.84,4.07,6.04,5.2,9.54
		c0.43,1.32,0.7,2.68,1.08,4.14c-0.61-0.26-1.05-0.52-1.52-0.63c-1.78-0.44-3.57-0.88-5.37-1.25c-2.54-0.53-5.07-1.08-7.45-2.14
		c-2.54-1.13-4.68-2.74-6-5.27c-1.18-2.26-1.42-4.69-1.28-7.19c0.01-0.12,0.04-0.25,0.09-0.5c2.09,4.53,5.44,7.37,10.15,8.56
		C180.55,116.2,180.43,116.12,180.3,116.06z M179.22,127.16c0.03-3.04-2.44-5.56-5.47-5.58c-3.05-0.02-5.53,2.43-5.57,5.48
		c-0.03,3.03,2.45,5.56,5.47,5.58C176.68,132.67,179.18,130.21,179.22,127.16z M157.94,120.19c2.29-0.47,4.56-0.2,6.82-0.22
		c2.41-0.02,4.83-0.12,7.12-1.02c0.19-0.08,0.38-0.17,0.61-0.27c-0.42-0.56-0.83-1.05-1.19-1.57c-0.28-0.41-0.54-0.85-0.76-1.29
		c-0.15-0.31-0.34-0.4-0.68-0.35c-0.49,0.08-0.99,0.13-1.51,0.08c0.57-0.19,1.14-0.37,1.77-0.58c-0.84-2.24-1.08-4.49-0.96-6.8
		C165.88,108.69,158.74,116.34,157.94,120.19z"/>
	<g>
		<path class="st5" d="M198.33,98.79c-1.19-4.7-4.02-8.06-8.56-10.15c0.26-0.04,0.38-0.08,0.5-0.09c2.5-0.14,4.93,0.1,7.19,1.28
			c2.53,1.32,4.14,3.46,5.27,6c1.06,2.38,1.61,4.91,2.14,7.45c0.37,1.8,0.81,3.59,1.25,5.37c0.12,0.47,0.37,0.91,0.63,1.52
			c-1.46-0.37-2.82-0.65-4.14-1.08c-3.5-1.13-6.7-2.85-9.54-5.2c-2.15-1.78-4.03-3.8-5.4-6.25c-0.7-1.24-0.93-2.59-0.59-3.99
			c0.45-1.87,2-2.79,3.87-2.34c1.28,0.31,2.29,1.07,3.24,1.92c1.65,1.46,2.96,3.19,3.92,5.18
			C198.18,98.55,198.26,98.67,198.33,98.79z M214.71,91.77c-0.02-3.02-2.55-5.5-5.58-5.47c-3.06,0.03-5.5,2.52-5.48,5.57
			c0.02,3.03,2.53,5.5,5.58,5.47C212.26,97.31,214.73,94.81,214.71,91.77z M190.22,87.3c2.31-0.13,4.56,0.12,6.8,0.96
			c0.21-0.63,0.39-1.2,0.58-1.77c0.04,0.52,0,1.02-0.08,1.51c-0.06,0.33,0.03,0.52,0.35,0.68c0.45,0.22,0.88,0.47,1.29,0.76
			c0.52,0.36,1.02,0.77,1.57,1.19c0.1-0.23,0.2-0.42,0.27-0.61c0.9-2.29,1.01-4.71,1.02-7.12c0.02-2.26-0.25-4.53,0.22-6.82
			C198.39,76.86,190.75,84,190.22,87.3z"/>
		<path class="st5" d="M151.67,87.45c1.19,4.7,4.02,8.06,8.56,10.15c-0.26,0.04-0.38,0.08-0.5,0.09c-2.5,0.14-4.93-0.1-7.19-1.28
			c-2.53-1.32-4.14-3.46-5.27-6c-1.06-2.38-1.61-4.91-2.14-7.45c-0.37-1.8-0.81-3.59-1.25-5.37c-0.12-0.47-0.37-0.91-0.63-1.52
			c1.46,0.37,2.82,0.65,4.14,1.08c3.5,1.13,6.7,2.85,9.54,5.2c2.15,1.78,4.03,3.8,5.4,6.25c0.7,1.24,0.93,2.59,0.59,3.99
			c-0.45,1.87-2,2.79-3.87,2.34c-1.28-0.31-2.29-1.07-3.24-1.92c-1.65-1.46-2.96-3.19-3.92-5.18
			C151.82,87.69,151.74,87.58,151.67,87.45z M135.29,94.48c0.02,3.02,2.55,5.5,5.58,5.47c3.06-0.03,5.5-2.52,5.48-5.57
			c-0.02-3.03-2.53-5.5-5.58-5.47C137.74,88.94,135.27,91.44,135.29,94.48z M159.78,98.95c-2.31,0.13-4.56-0.12-6.8-0.96
			c-0.21,0.63-0.39,1.2-0.58,1.77c-0.04-0.52,0-1.02,0.08-1.51c0.06-0.33-0.03-0.52-0.35-0.68c-0.45-0.22-0.88-0.47-1.29-0.76
			c-0.52-0.36-1.02-0.77-1.57-1.19c-0.1,0.23-0.2,0.42-0.27,0.61c-0.9,2.29-1.01,4.71-1.02,7.12c-0.02,2.26,0.25,4.53-0.22,6.82
			C151.61,109.39,159.25,102.25,159.78,98.95z"/>
	</g>
</g>
</svg>
