<?xml version="1.0" encoding="utf-8"?>
<!-- Generator: Adobe Illustrator 27.8.1, SVG Export Plug-In . SVG Version: 6.00 Build 0)  -->
<svg version="1.1" id="Layer_1" xmlns="http://www.w3.org/2000/svg" xmlns:xlink="http://www.w3.org/1999/xlink" x="0px" y="0px"
	 viewBox="0 0 350 230" style="enable-background:new 0 0 350 230;" xml:space="preserve">
<style type="text/css">
	.st0{fill:#00585E;}
	.st1{fill:#007984;}
	.st2{fill:#00373A;}
	.st3{fill:#00FFFF;}
	.st4{fill:#663567;}
	.st5{fill:#2B002D;}
	.st6{fill:#083300;}
	.st7{fill:#58E505;}
	.st8{fill:#1734BF;}
	.st9{fill:#511404;}
	.st10{fill:#EB5CFF;}
	.st11{fill:#007C6D;}
	.st12{fill:#A38800;}
	.st13{fill:#A710C1;}
	.st14{fill:#52025B;}
	.st15{fill:#007A6E;}
	.st16{fill:#0000FF;}
	.st17{fill:#00FFD3;}
	.st18{fill:#5B0038;}
	.st19{fill:#4D2207;}
	.st20{fill:#4B4900;}
	.st21{opacity:0.5;}
	.st22{clip-path:url(#SVGID_00000042697545957775549370000015124054959577404308_);fill:#003F49;}
	.st23{fill:#00F7D9;}
	.st24{fill:#C0C900;}
	
		.st25{fill-rule:evenodd;clip-rule:evenodd;fill:url(#SVGID_00000039101914738335970000000009908915107548388247_);stroke:#ED9E00;stroke-width:0.5;stroke-miterlimit:10;}
	.st26{fill-rule:evenodd;clip-rule:evenodd;fill:#434EDD;}
	.st27{fill-rule:evenodd;clip-rule:evenodd;fill:#FFFFFF;}
	.st28{fill-rule:evenodd;clip-rule:evenodd;fill:#A5CB39;stroke:#465900;stroke-width:0.25;stroke-miterlimit:10;}
	.st29{fill-rule:evenodd;clip-rule:evenodd;fill:#94964D;}
	.st30{fill-rule:evenodd;clip-rule:evenodd;fill:#470A0A;}
	.st31{fill-rule:evenodd;clip-rule:evenodd;fill:#F200FF;}
	.st32{fill-rule:evenodd;clip-rule:evenodd;fill:#0A0089;}
	.st33{fill-rule:evenodd;clip-rule:evenodd;fill:#FF6700;}
	.st34{fill-rule:evenodd;clip-rule:evenodd;fill:#00FFF8;}
</style>
<path class="st6" d="M205.23,103.22c-4.63,5.25-6.11,11.45-6.02,18.17c0.03,1.97,0.39,3.9,1.05,5.78c1.07,3.03,3.2,4.81,6.3,5.5
	c3.32,0.74,6.64,0.57,9.97,0.08c1.65-0.24,3.28-0.59,5.09-0.92c-0.33,0.33-0.55,0.57-0.78,0.79c-2.99,2.77-6.62,4.16-10.56,4.88
	c-2.67,0.49-5.37,0.63-8.08,0.44c-0.69-0.05-1.19,0.14-1.7,0.6c-3.62,3.26-7.56,6.04-12.01,8.06c-3.83,1.73-7.83,2.76-12.05,2.8
	c-3.4,0.03-6.7-0.56-9.81-2.02c-0.17-0.08-0.33-0.18-0.58-0.32c1.42,0.13,2.72,0.34,4.03,0.37c6.87,0.16,12.24-2.8,16.34-8.16
	c3.87-5.05,5.85-10.86,6.47-17.15c0.65-6.69,3.22-12.37,8.67-16.52C202.71,104.7,204,104,205.23,103.22z M133.81,140.05
	c3.14,0.22,6.01-0.63,8.73-2.16c3.61-2.03,7.48-3.12,11.65-2.83c4.59,0.32,8.12,2.41,10.41,6.47c0.18,0.33,0.36,0.66,0.53,0.99
	c0.05-0.23,0.03-0.42-0.02-0.61c-0.83-3.5-2.76-6.32-5.49-8.6c-3.16-2.63-6.86-4.18-10.82-5.13c-0.75-0.18-1.28-0.48-1.72-1.18
	c-1.66-2.63-3.71-4.91-6.52-6.36c-1.02-0.53-2.16-0.84-3.25-1.25c-0.03,0.08-0.07,0.15-0.1,0.23c0.13,0.11,0.26,0.22,0.38,0.33
	c2.1,1.95,4.03,4.02,5.27,6.66c1.06,2.27,0.82,4.38-0.86,6.22c-3.65,4.01-8.16,5.96-13.63,5.64
	C130.06,139.39,131.88,139.91,133.81,140.05z M212.58,117.43c-2.42,0.02-4.38,2.01-4.38,4.45c0,2.43,1.96,4.4,4.4,4.42
	c2.45,0.03,4.43-1.96,4.43-4.44C217.03,119.38,215.06,117.41,212.58,117.43z M138.06,126.06c-1.6-0.02-2.83,1.15-2.87,2.73
	c-0.04,1.48,1.22,2.79,2.72,2.84c1.55,0.04,2.81-1.19,2.84-2.76C140.77,127.28,139.61,126.08,138.06,126.06z M147.39,117.92
	c2.79,1.47,5.76,1.84,8.87,1.53c4.12-0.41,8.1,0.15,11.8,2.09c4.08,2.14,6.47,5.47,6.93,10.11c0.04,0.37,0.06,0.74,0.09,1.12
	c0.14-0.19,0.19-0.37,0.23-0.56c0.64-3.54,0.02-6.9-1.57-10.09c-1.84-3.68-4.6-6.58-7.84-9.05c-0.62-0.47-0.98-0.96-1.1-1.77
	c-0.46-3.08-1.43-5.99-3.41-8.44c-0.72-0.9-1.64-1.64-2.47-2.45c-0.06,0.06-0.12,0.11-0.18,0.17c0.07,0.15,0.15,0.3,0.21,0.46
	c1.14,2.63,2.08,5.3,2.14,8.22c0.06,2.51-1.01,4.34-3.29,5.35c-4.95,2.2-9.87,2.17-14.75-0.32
	C144.22,115.8,145.68,117.02,147.39,117.92z M156.9,106.81c-1.45-0.66-3.05-0.09-3.72,1.34c-0.63,1.34,0,3.05,1.35,3.69
	c1.4,0.66,3.05,0.05,3.71-1.39C158.89,109.03,158.32,107.46,156.9,106.81z M165.66,98.13c2.79,1.47,5.76,1.84,8.87,1.53
	c4.12-0.41,8.1,0.15,11.8,2.09c4.08,2.14,6.47,5.47,6.93,10.11c0.04,0.37,0.06,0.74,0.09,1.12c0.14-0.19,0.19-0.37,0.23-0.56
	c0.64-3.54,0.02-6.9-1.57-10.09c-1.84-3.68-4.6-6.58-7.84-9.05c-0.62-0.47-0.98-0.96-1.1-1.77c-0.46-3.08-1.43-5.99-3.41-8.44
	c-0.72-0.9-1.64-1.64-2.47-2.45c-0.06,0.06-0.12,0.11-0.18,0.17c0.07,0.15,0.15,0.3,0.21,0.46c1.14,2.63,2.08,5.3,2.14,8.22
	c0.06,2.51-1.01,4.34-3.29,5.35c-4.95,2.2-9.87,2.17-14.75-0.32C162.5,96.02,163.95,97.23,165.66,98.13z M175.18,87.03
	c-1.45-0.66-3.05-0.09-3.72,1.34c-0.63,1.34,0,3.05,1.35,3.69c1.4,0.66,3.05,0.05,3.71-1.39C177.17,89.24,176.6,87.67,175.18,87.03z
	"/>
</svg>
