<?xml version="1.0" encoding="utf-8"?>
<!-- Generator: Adobe Illustrator 27.8.1, SVG Export Plug-In . SVG Version: 6.00 Build 0)  -->
<svg version="1.1" id="Layer_1" xmlns="http://www.w3.org/2000/svg" xmlns:xlink="http://www.w3.org/1999/xlink" x="0px" y="0px"
	 viewBox="0 0 350 230" style="enable-background:new 0 0 350 230;" xml:space="preserve">
<style type="text/css">
	.st0{fill:#00585E;}
	.st1{fill:#007984;}
	.st2{fill:#00373A;}
	.st3{fill:#00FFFF;}
	.st4{fill:#663567;}
	.st5{fill:#2B002D;}
	.st6{fill:#083300;}
	.st7{fill:#58E505;}
	.st8{fill:#1734BF;}
	.st9{fill:#511404;}
	.st10{fill:#EB5CFF;}
	.st11{fill:#007C6D;}
	.st12{fill:#A38800;}
	.st13{fill:#A710C1;}
	.st14{fill:#52025B;}
	.st15{fill:#007A6E;}
	.st16{fill:#0000FF;}
	.st17{fill:#00FFD3;}
	.st18{fill:#5B0038;}
	.st19{fill:#4D2207;}
	.st20{fill:#4B4900;}
	.st21{opacity:0.5;}
	.st22{clip-path:url(#SVGID_00000110431025206772875840000013737574607952252817_);fill:#003F49;}
	.st23{fill:#00F7D9;}
	.st24{fill:#C0C900;}
	
		.st25{fill-rule:evenodd;clip-rule:evenodd;fill:url(#SVGID_00000142887373280792060930000002146127137702207659_);stroke:#ED9E00;stroke-width:0.5;stroke-miterlimit:10;}
	.st26{fill-rule:evenodd;clip-rule:evenodd;fill:#434EDD;}
	.st27{fill-rule:evenodd;clip-rule:evenodd;fill:#FFFFFF;}
	.st28{fill-rule:evenodd;clip-rule:evenodd;fill:#A5CB39;stroke:#465900;stroke-width:0.25;stroke-miterlimit:10;}
	.st29{fill-rule:evenodd;clip-rule:evenodd;fill:#94964D;}
	.st30{fill-rule:evenodd;clip-rule:evenodd;fill:#470A0A;}
	.st31{fill-rule:evenodd;clip-rule:evenodd;fill:#F200FF;}
	.st32{fill-rule:evenodd;clip-rule:evenodd;fill:#0A0089;}
	.st33{fill-rule:evenodd;clip-rule:evenodd;fill:#FF6700;}
	.st34{fill-rule:evenodd;clip-rule:evenodd;fill:#00FFF8;}
</style>
<g>
	<path class="st7" d="M182.6,85.27c-0.16,0.39-4.91,11.49-5.89,22.64c-0.97-0.78-2.21-1.24-3.55-1.24c-1.42,0-2.73,0.52-3.73,1.38
		c-0.5-6.73-2.01-15.68-6.11-22.79c0,0,7.91,3.95,9.65,9.84C172.96,95.1,176.82,87.59,182.6,85.27z M168.4,83.92
		c0,2.52,2.04,4.56,4.56,4.56c2.52,0,4.56-2.04,4.56-4.56c0-2.52-2.04-4.56-4.56-4.56C170.45,79.36,168.4,81.41,168.4,83.92z"/>
	<path class="st8" d="M167.41,112.43c0,1.6,0.66,3.05,1.71,4.08c-6-3.23-16.34-7.85-26.26-7.86c0,0,7.38-4.87,13.34-3.44
		c0,0-4.58-7.1-3.7-13.27c0,0,7.31,9.86,16.63,16.39C168.07,109.37,167.41,110.82,167.41,112.43z M142.12,100.8
		c0.65,2.43,3.15,3.87,5.58,3.22c2.43-0.65,3.87-3.15,3.22-5.58s-3.15-3.87-5.58-3.22C142.91,95.87,141.47,98.37,142.12,100.8z"/>
	<path class="st9" d="M203.44,107.99c0,0-14.84,1.7-25.61,7.78c-1.04,1.45-2.74,2.4-4.66,2.4c-1.58,0-3-0.63-4.04-1.67
		c-1.05-1.03-1.71-2.48-1.71-4.08c0-1.6,0.66-3.06,1.72-4.1c0.11,0.09,0.23,0.16,0.34,0.23c-0.01-0.17-0.03-0.33-0.05-0.5
		c1-0.86,2.31-1.38,3.73-1.38c1.34,0,2.58,0.46,3.55,1.24c-0.01,0.12-0.02,0.24-0.03,0.36c0.08-0.05,0.17-0.11,0.25-0.17
		c5.6-3.8,12.69-9.62,16.85-16.81c0,0,0.53,8.83-3.7,13.27C190.09,104.56,198.54,104.13,203.44,107.99z M195.22,98.97
		c0,2.52,2.04,4.56,4.56,4.56c2.52,0,4.56-2.04,4.56-4.56c0-2.52-2.04-4.56-4.56-4.56C197.26,94.41,195.22,96.45,195.22,98.97z"/>
	<path class="st10" d="M137.39,114.22c0,0,5.82,22.81,36.84,25.2c6.67,0.51,13.35-0.91,19.18-4.21
		c6.59-3.74,14.61-10.43,19.15-22.03c0.22-0.56-0.5-1.02-0.91-0.57c-5.1,5.65-19.47,20.31-28.97,17.37
		c-0.8-0.25-0.95-1.32-0.27-1.81l11.68-8.39c1-0.72,1.47-2.02,1.02-3.16c-0.44-1.12-1.7-2.01-5.04-0.96
		c-1.36,0.43-2.65,1.06-3.85,1.82c-3.24,2.06-12.6,7.73-17.39,7.77c-0.77,0.01-1.54,0.07-2.31,0.13
		C162.28,125.71,149.76,125.53,137.39,114.22z M212.46,80.42c0,0-7.46-22.33-38.57-22.46c-6.69-0.03-13.25,1.87-18.82,5.59
		c-6.3,4.21-13.82,11.46-17.51,23.36c-0.18,0.58,0.58,0.98,0.95,0.5c4.68-6.01,17.95-21.67,27.64-19.42
		c0.81,0.19,1.04,1.25,0.4,1.78l-11.05,9.22c-0.94,0.79-1.31,2.12-0.79,3.23c0.52,1.09,1.84,1.88,5.09,0.59
		c1.33-0.53,2.56-1.25,3.71-2.1c3.08-2.29,12.01-8.62,16.78-9.01c0.77-0.06,1.53-0.18,2.29-0.3
		C186.81,70.76,199.3,70.03,212.46,80.42z"/>
</g>
</svg>
