<?xml version="1.0" encoding="utf-8"?>
<!-- Generator: Adobe Illustrator 27.8.1, SVG Export Plug-In . SVG Version: 6.00 Build 0)  -->
<svg version="1.1" id="Layer_1" xmlns="http://www.w3.org/2000/svg" xmlns:xlink="http://www.w3.org/1999/xlink" x="0px" y="0px"
	 viewBox="0 0 350 230" style="enable-background:new 0 0 350 230;" xml:space="preserve">
<style type="text/css">
	.st0{fill:#00585E;}
	.st1{fill:#007984;}
	.st2{fill:#00373A;}
	.st3{fill:#00FFFF;}
	.st4{fill:#663567;}
	.st5{fill:#2B002D;}
	.st6{fill:#083300;}
	.st7{fill:#58E505;}
	.st8{fill:#1734BF;}
	.st9{fill:#511404;}
	.st10{fill:#EB5CFF;}
	.st11{fill:#007C6D;}
	.st12{fill:#A38800;}
	.st13{fill:#A710C1;}
	.st14{fill:#52025B;}
	.st15{fill:#007A6E;}
	.st16{fill:#0000FF;}
	.st17{fill:#00FFD3;}
	.st18{fill:#5B0038;}
	.st19{fill:#4D2207;}
	.st20{fill:#4B4900;}
	.st21{opacity:0.5;}
	.st22{clip-path:url(#SVGID_00000141422210798986415400000009579402900252733070_);fill:#003F49;}
	.st23{fill:#00F7D9;}
	.st24{fill:#C0C900;}
	
		.st25{fill-rule:evenodd;clip-rule:evenodd;fill:url(#SVGID_00000063603390660275920270000003524023487767115196_);stroke:#ED9E00;stroke-width:0.5;stroke-miterlimit:10;}
	.st26{fill-rule:evenodd;clip-rule:evenodd;fill:#434EDD;}
	.st27{fill-rule:evenodd;clip-rule:evenodd;fill:#FFFFFF;}
	.st28{fill-rule:evenodd;clip-rule:evenodd;fill:#A5CB39;stroke:#465900;stroke-width:0.25;stroke-miterlimit:10;}
	.st29{fill-rule:evenodd;clip-rule:evenodd;fill:#94964D;}
	.st30{fill-rule:evenodd;clip-rule:evenodd;fill:#470A0A;}
	.st31{fill-rule:evenodd;clip-rule:evenodd;fill:#F200FF;}
	.st32{fill-rule:evenodd;clip-rule:evenodd;fill:#0A0089;}
	.st33{fill-rule:evenodd;clip-rule:evenodd;fill:#FF6700;}
	.st34{fill-rule:evenodd;clip-rule:evenodd;fill:#00FFF8;}
</style>
<g>
	<path class="st13" d="M142.99,99.69c0,0,7.14,19.43,34.49,18.73c5.88-0.15,11.6-2,16.4-5.4c5.43-3.86,11.84-10.44,14.78-21
		c0.14-0.51-0.53-0.84-0.85-0.42c-3.95,5.41-15.21,19.52-23.79,17.8c-0.72-0.14-0.95-1.07-0.4-1.55l9.47-8.39
		c0.81-0.72,1.1-1.9,0.61-2.86c-0.48-0.94-1.67-1.61-4.49-0.38c-1.15,0.5-2.22,1.16-3.2,1.94c-2.65,2.09-10.33,7.89-14.51,8.36
		c-0.67,0.08-1.34,0.2-2.01,0.32C165.79,107.51,154.83,108.48,142.99,99.69z"/>
	<path class="st13" d="M207.17,68.68c0,0-6.71-19.59-34.07-19.5c-5.88,0.02-11.64,1.74-16.51,5.04
		c-5.52,3.74-12.07,10.17-15.24,20.66c-0.15,0.51,0.51,0.86,0.84,0.43c4.07-5.32,15.64-19.17,24.18-17.26
		c0.72,0.16,0.93,1.09,0.37,1.56l-9.65,8.18c-0.82,0.7-1.14,1.87-0.67,2.85c0.46,0.95,1.63,1.64,4.48,0.48
		c1.16-0.47,2.25-1.11,3.25-1.87c2.7-2.03,10.5-7.66,14.69-8.03c0.68-0.06,1.35-0.17,2.02-0.28
		C184.55,60.36,195.53,59.63,207.17,68.68z"/>
	<path class="st14" d="M189.28,81.52L189.28,81.52c-2.52-2.79-6.83-3-9.62-0.48l-3.88,3.51l-3.54-3.91c-2.52-2.79-6.83-3-9.62-0.48
		l0,0c-2.79,2.52-3,6.83-0.48,9.62l3.54,3.91l-0.03,0.03l9.14,10.1l0.03-0.03l0,0l10.1-9.14l0,0l3.88-3.51
		C191.59,88.61,191.8,84.31,189.28,81.52z"/>
	
		<ellipse transform="matrix(0.7071 -0.7071 0.7071 0.7071 0.7218 145.2651)" class="st14" cx="175.71" cy="71.76" rx="7.04" ry="7.04"/>
</g>
</svg>
