<?xml version="1.0" encoding="utf-8"?>
<!-- Generator: Adobe Illustrator 27.8.1, SVG Export Plug-In . SVG Version: 6.00 Build 0)  -->
<svg version="1.1" id="Layer_1" xmlns="http://www.w3.org/2000/svg" xmlns:xlink="http://www.w3.org/1999/xlink" x="0px" y="0px"
	 viewBox="0 0 350 230" style="enable-background:new 0 0 350 230;" xml:space="preserve">
<style type="text/css">
	.st0{fill:#00585E;}
	.st1{fill:#007984;}
	.st2{fill:#00373A;}
	.st3{fill:#00FFFF;}
	.st4{fill:#663567;}
	.st5{fill:#2B002D;}
	.st6{fill:#083300;}
	.st7{fill:#58E505;}
	.st8{fill:#1734BF;}
	.st9{fill:#511404;}
	.st10{fill:#EB5CFF;}
	.st11{fill:#007C6D;}
	.st12{fill:#A38800;}
	.st13{fill:#A710C1;}
	.st14{fill:#52025B;}
	.st15{fill:#007A6E;}
	.st16{fill:#0000FF;}
	.st17{fill:#00FFD3;}
	.st18{fill:#5B0038;}
	.st19{fill:#4D2207;}
	.st20{fill:#4B4900;}
	.st21{opacity:0.5;}
	.st22{clip-path:url(#SVGID_00000146500361575098220900000016571577930477239464_);fill:#003F49;}
	.st23{fill:#00F7D9;}
	.st24{fill:#C0C900;}
	
		.st25{fill-rule:evenodd;clip-rule:evenodd;fill:url(#SVGID_00000103245185445830473150000016886543815279985542_);stroke:#ED9E00;stroke-width:0.5;stroke-miterlimit:10;}
	.st26{fill-rule:evenodd;clip-rule:evenodd;fill:#434EDD;}
	.st27{fill-rule:evenodd;clip-rule:evenodd;fill:#FFFFFF;}
	.st28{fill-rule:evenodd;clip-rule:evenodd;fill:#A5CB39;stroke:#465900;stroke-width:0.25;stroke-miterlimit:10;}
	.st29{fill-rule:evenodd;clip-rule:evenodd;fill:#94964D;}
	.st30{fill-rule:evenodd;clip-rule:evenodd;fill:#470A0A;}
	.st31{fill-rule:evenodd;clip-rule:evenodd;fill:#F200FF;}
	.st32{fill-rule:evenodd;clip-rule:evenodd;fill:#0A0089;}
	.st33{fill-rule:evenodd;clip-rule:evenodd;fill:#FF6700;}
	.st34{fill-rule:evenodd;clip-rule:evenodd;fill:#00FFF8;}
</style>
<g>
	<g>
		<g>
			<path class="st15" d="M163.12,95.53c3.42,2.8,7.94,8.58,12.96,7.72c3.63,0.37,9.82-7.54,11.28-7.72c1.37-0.82,2.87,0.26,1.78,2.1
				c-8.61,12.83-8.84,12.12-1.72,25.69c0.54,1.83-0.83,4.24-3.09,2.05c-2.55-2.24-6.65-9.46-10.85-8.27
				c-2.88,0.23-7.28,6.74-9.51,8.68c-6.79,0.41,6.78-12.91,2.71-19.32C166.58,104.49,155.65,92.54,163.12,95.53z"/>
		</g>
		<g>
			<path class="st15" d="M168.75,93.93c-0.1,7.16,11.14,7.16,11.03,0C179.89,86.77,168.64,86.77,168.75,93.93z"/>
		</g>
	</g>
	<path class="st16" d="M207.23,77.34v50.73h-9.63V84.09C201.91,81.71,205.2,79.11,207.23,77.34z M152.4,82.88v45.18h-9.63V75.41
		C145.93,78.34,149.14,80.84,152.4,82.88z M142.77,71.08c0,0,20.63-25.15,32.23-25.55c0,0,13.95,1.57,32.23,27.51
		C207.23,73.04,176.97,105.46,142.77,71.08z"/>
</g>
</svg>
