<?xml version="1.0" encoding="utf-8"?>
<!-- Generator: Adobe Illustrator 27.8.1, SVG Export Plug-In . SVG Version: 6.00 Build 0)  -->
<svg version="1.1" xmlns="http://www.w3.org/2000/svg" xmlns:xlink="http://www.w3.org/1999/xlink" x="0px" y="0px"
	 viewBox="0 0 350 230" style="enable-background:new 0 0 350 230;" xml:space="preserve">
<style type="text/css">
	.st0{fill:#7BC7FF;}
	.st1{fill:#FFFFFF;}
	.st2{opacity:0.75;fill:#E1F3FF;enable-background:new    ;}
	.st3{fill:#DCE9F4;}
	.st4{fill:#012A5B;}
	.st5{fill:#A2BE3B;}
	.st6{fill:#0071A9;}
	.st7{fill-rule:evenodd;clip-rule:evenodd;fill:#00AEEF;}
	.st8{fill:#196AB4;}
	.st9{fill-rule:evenodd;clip-rule:evenodd;fill:#CEFF00;}
	.st10{fill-rule:evenodd;clip-rule:evenodd;fill:#00374C;}
	.st11{fill:#00CFFF;}
	.st12{fill:#00C605;}
	.st13{fill:none;}
	.st14{fill:#720041;}
	.st15{fill:#29ABE2;}
	.st16{fill:#29B574;}
	.st17{fill:#273A93;}
	.st18{fill:#7BC143;}
	.st19{fill:#019AC4;}
	.st20{fill:#A3CD39;}
	.st21{fill:#26A6D8;}
	.st22{fill:#00AEEF;}
	.st23{fill:#00B9F2;}
	.st24{fill:#8DC63F;}
	.st25{fill:#2A66B1;}
	.st26{fill:#5BC6F2;}
	.st27{fill:#4171B8;}
	.st28{fill:#4C015E;}
	.st29{fill:#00333F;}
</style>
<g id="Layer_1">
</g>
<g id="Layer_2">
</g>
<g id="Layer_3">
</g>
<g id="Layer_4">
</g>
<g id="Layer_5">
</g>
<g id="Layer_6">
</g>
<g id="Layer_7">
</g>
<g id="Layer_8">
</g>
<g id="Layer_9">
</g>
<g id="Layer_10">
</g>
<g id="Layer_11">
</g>
<g id="Layer_12">
	<g>
		<path class="st22" d="M176.18,87.9c-2.96,0.52-3.41,0.92-3.89,3.93c-0.52-3-0.92-3.41-3.93-3.93c3-0.52,3.41-0.92,3.93-3.89
			C172.78,86.98,173.22,87.38,176.18,87.9z M173.18,66.79c-0.44,2.56-0.8,2.92-3.37,3.37c2.56,0.44,2.92,0.8,3.37,3.37
			c0.44-2.56,0.76-2.92,3.37-3.37C173.94,69.71,173.62,69.35,173.18,66.79z M157.91,82.05c-0.44,2.56-0.76,2.92-3.37,3.37
			c2.6,0.44,2.92,0.76,3.37,3.37c0.44-2.6,0.8-2.92,3.37-3.37C158.71,84.98,158.35,84.62,157.91,82.05z M169.17,99.28
			c-9.19,7.93-16.63,11.63-22.32,11.1c1.16,2.32,6.33,5.25,6.33,5.25c1.84-0.24,7.41-3.12,7.73-3.33c-1.76,1.72-5.53,4.65-5.53,4.65
			c1.88,1.56,8.73,4.09,8.73,4.09c2.88-1.08,9.21-7.69,9.21-7.69c-1.92,3.49-5.93,8.93-5.93,8.93c4.01,1.64,12.78,2.36,12.78,2.36
			c3.16-2.88,4.85-11.06,4.85-11.06c0.44,4.61-1.2,11.02-1.2,11.02c3.42,0.1,6.82-0.49,10.02-1.72l1.08-5.45l0.84,4.97l3.45-1.4
			c0.08-1.12,0.16-2.24,0.2-3.33C187.56,115.1,177.06,108.53,169.17,99.28z M202.62,118.27c-0.03,0.14-0.08,0.28-0.16,0.4
			c-0.75,1.92-1.69,3.76-2.8,5.49c-5.37,8.21-14.42,13.66-24.68,13.66c-13.94,0-25.68-10.02-28.89-23.48
			c-0.57-2.36-0.85-4.78-0.84-7.21c-0.03-0.08-0.05-0.16-0.04-0.24c0.01-2.3,0.26-4.6,0.76-6.85c0.76-5.65,5.61-14.42,11.14-22.96
			c-0.52-1.68-0.96-3.37-1.32-5.13c-8.05,11.9-15.7,25-16.79,32.97c-0.61,2.79-0.92,5.64-0.92,8.49c0,21.19,16.51,38.38,36.9,38.38
			c18.59,0,33.97-14.3,36.54-32.93h-0.84C207.98,118.89,205.29,118.69,202.62,118.27z"/>
		<path class="st26" d="M172.3,79.53c-4.53,0.76-5.13,1.36-5.89,5.89c-0.76-4.53-1.4-5.13-5.89-5.89c4.49-0.76,5.13-1.4,5.89-5.89
			C167.17,78.13,167.77,78.77,172.3,79.53z M157.91,90.46c-0.68,4.01-1.2,4.57-5.21,5.21c4.01,0.68,4.53,1.24,5.21,5.25
			c0.68-4.01,1.24-4.57,5.25-5.25C159.15,95.03,158.59,94.47,157.91,90.46z M175.46,51.84v-0.2l0.08,0.12l0.08-0.12v0.2
			c1,1.28,6.41,8.33,12.26,16.95l1.48-4.97c-6.61-9.62-12.46-17.19-13.58-18.67v-0.24l-0.08,0.12l-0.12-0.12v0.24
			c-1.44,1.8-10.86,13.58-19.79,26.8c0.36,1.76,0.8,3.45,1.32,5.13C164.92,65.06,174.14,53.49,175.46,51.84z M181.19,87.62
			c-3.78,4.12-7.79,8.01-12.02,11.66c7.89,9.25,18.39,15.83,30.25,18.39c0.44-12.26-1.72-21.15-5.13-28.36l-1.52-0.2l0.36,4.69
			l-2.28-4.93l-1.32-0.16l-2.6,7.49l1-7.69L186,88.26l-3.73,3.12l2.08-3.33L181.19,87.62z M211,104.97
			c-0.96-7.21-7.09-18.63-14.02-29.61l-2.2-3.49l9.17-31.45c0.27-1.09-0.39-2.2-1.48-2.48c-0.08-0.02-0.16-0.03-0.24-0.04h-0.28
			c-0.93-0.01-1.74,0.62-1.96,1.52l-8.37,27.68l-1.52,5.05l-2.88,9.62c-2.32,0.07-4.52,1.05-6.13,2.72
			c-0.25,0.23-0.48,0.49-0.68,0.76c-0.14,0.2-0.09,0.48,0.12,0.61c0.05,0.03,0.11,0.06,0.16,0.07l15.7,1.96
			c0.22,0.04,0.43-0.1,0.47-0.32c0.02-0.08,0.01-0.17-0.03-0.24l0,0l-0.24-0.48v-0.08l-0.16-0.36c-1.06-1.82-2.72-3.22-4.69-3.97
			l1.56-5.41c0.76,1.2,1.48,2.4,2.2,3.61l0.28,0.52c1.48,2.48,2.88,4.97,4.05,7.37c2.24,4.41,3.81,8.45,4.21,11.54
			c1.31,6.07,0.83,12.38-1.36,18.19c2.66,0.44,5.36,0.65,8.05,0.64h0.84c0.24-1.81,0.36-3.63,0.36-5.45
			C211.9,110.61,211.59,107.76,211,104.97z"/>
	</g>
</g>
<g id="Layer_13">
</g>
<g id="Layer_14">
</g>
<g id="Layer_15">
</g>
</svg>
