<?xml version="1.0" encoding="utf-8"?>
<!-- Generator: Adobe Illustrator 27.8.1, SVG Export Plug-In . SVG Version: 6.00 Build 0)  -->
<svg version="1.1" xmlns="http://www.w3.org/2000/svg" xmlns:xlink="http://www.w3.org/1999/xlink" x="0px" y="0px"
	 viewBox="0 0 350 230" style="enable-background:new 0 0 350 230;" xml:space="preserve">
<style type="text/css">
	.st0{fill:#7BC7FF;}
	.st1{fill:#FFFFFF;}
	.st2{opacity:0.75;fill:#E1F3FF;enable-background:new    ;}
	.st3{fill:#DCE9F4;}
	.st4{fill:#012A5B;}
	.st5{fill:#A2BE3B;}
	.st6{fill:#0071A9;}
	.st7{fill-rule:evenodd;clip-rule:evenodd;fill:#00AEEF;}
	.st8{fill:#196AB4;}
	.st9{fill-rule:evenodd;clip-rule:evenodd;fill:#CEFF00;}
	.st10{fill-rule:evenodd;clip-rule:evenodd;fill:#00374C;}
	.st11{fill:#00CFFF;}
	.st12{fill:#00C605;}
	.st13{fill:none;}
	.st14{fill:#720041;}
	.st15{fill:#29ABE2;}
	.st16{fill:#29B574;}
	.st17{fill:#273A93;}
	.st18{fill:#7BC143;}
	.st19{fill:#019AC4;}
	.st20{fill:#A3CD39;}
	.st21{fill:#26A6D8;}
	.st22{fill:#00AEEF;}
	.st23{fill:#00B9F2;}
	.st24{fill:#8DC63F;}
	.st25{fill:#2A66B1;}
	.st26{fill:#5BC6F2;}
	.st27{fill:#4171B8;}
	.st28{fill:#4C015E;}
	.st29{fill:#00333F;}
</style>
<g id="Layer_1">
	<g>
		<path class="st0" d="M175,35.64c29.49,0,53.4,23.91,53.4,53.4s-23.91,53.4-53.4,53.4c-29.49,0-53.4-23.91-53.4-53.4
			S145.51,35.64,175,35.64z"/>
		<path class="st1" d="M145.93,44.25l-12.34,49.51l45.1,35.26l42.76-13.64c4.41-7.77,6.93-16.75,6.93-26.33
			c0-29.49-23.91-53.4-53.4-53.4C164.28,35.64,154.3,38.81,145.93,44.25z"/>
		<path class="st2" d="M175,35.64c-3.41,0-6.75,0.32-9.98,0.93l-21.62,64.84l13.95,10.9l59.57-56.36
			C207.14,43.59,192,35.64,175,35.64z M172.37,124.06l54.44-22.08c1.03-4.14,1.59-8.48,1.59-12.94c0-6.36-1.11-12.46-3.15-18.11
			l-63.2,45.06L172.37,124.06z"/>
		<path class="st3" d="M216.45,65.52c-6.74-1.11-12.02-6.39-13.13-13.13l-0.45-2.76l-0.45,2.76c-1.11,6.74-6.39,12.02-13.13,13.13
			l-2.76,0.45l2.76,0.45c6.74,1.11,12.02,6.39,13.13,13.13l0.45,2.76l0.45-2.76c1.11-6.74,6.39-12.02,13.13-13.13l2.76-0.45
			L216.45,65.52z M203.58,94.8c-4.15-0.68-7.4-3.93-8.08-8.08l-0.28-1.7l-0.28,1.7c-0.68,4.15-3.93,7.4-8.08,8.08l-1.7,0.28
			l1.7,0.28c4.15,0.68,7.4,3.93,8.08,8.08l0.28,1.7l0.28-1.7c0.68-4.15,3.93-7.4,8.08-8.08l1.7-0.28L203.58,94.8z M166.05,75.76
			c-4.15-0.68-7.4-3.93-8.08-8.08l-0.28-1.7l-0.28,1.7c-0.68,4.15-3.93,7.4-8.08,8.08l-1.7,0.28l1.7,0.28
			c4.15,0.68,7.4,3.93,8.08,8.08l0.28,1.7l0.28-1.7c0.68-4.15,3.93-7.4,8.08-8.08l1.7-0.28L166.05,75.76z"/>
		<path class="st4" d="M144.2,110.22L144.2,110.22l15.95,12.47L144.2,110.22z M144.2,110.22L144.2,110.22l15.95,12.47L144.2,110.22z
			 M133.59,93.76l-1.26,1.63l45.1,35.25l1.27-1.62L133.59,93.76z M133.59,93.76l-3.97,5.08l14.58,11.4l15.95,12.46v0.01l14.57,11.39
			l2.7-3.46l1.27-1.62L133.59,93.76z M159.54,123.47l-0.41,0.52c-0.46,0.59-1.3,0.69-1.89,0.23l-3.08-2.41l-7.68-6l-3.08-2.41
			c-0.59-0.46-0.69-1.3-0.23-1.89l0.41-0.52L159.54,123.47z M154.17,121.82l-5.22,1.74c-0.14,0.04-0.29,0.08-0.43,0.09l-0.79,1.12
			l-12.21,17.48c-0.54,0.78-1.41,1.19-2.28,1.19c-0.6,0-1.2-0.19-1.71-0.59c-1.25-0.98-1.43-2.82-0.38-4.02l14.03-16.07l0.89-1.02
			c-0.02-0.15-0.02-0.3-0.01-0.45l0.43-5.48L154.17,121.82z"/>
	</g>
</g>
<g id="Layer_2">
</g>
<g id="Layer_3">
</g>
<g id="Layer_4">
</g>
<g id="Layer_5">
</g>
<g id="Layer_6">
</g>
<g id="Layer_7">
</g>
<g id="Layer_8">
</g>
<g id="Layer_9">
</g>
<g id="Layer_10">
</g>
<g id="Layer_11">
</g>
<g id="Layer_12">
</g>
<g id="Layer_13">
</g>
<g id="Layer_14">
</g>
<g id="Layer_15">
</g>
</svg>
