<?xml version="1.0" encoding="utf-8"?>
<!-- Generator: Adobe Illustrator 27.8.1, SVG Export Plug-In . SVG Version: 6.00 Build 0)  -->
<svg version="1.1" xmlns="http://www.w3.org/2000/svg" xmlns:xlink="http://www.w3.org/1999/xlink" x="0px" y="0px"
	 viewBox="0 0 350 230" style="enable-background:new 0 0 350 230;" xml:space="preserve">
<style type="text/css">
	.st0{fill:#7BC7FF;}
	.st1{fill:#FFFFFF;}
	.st2{opacity:0.75;fill:#E1F3FF;enable-background:new    ;}
	.st3{fill:#DCE9F4;}
	.st4{fill:#012A5B;}
	.st5{fill:#A2BE3B;}
	.st6{fill:#0071A9;}
	.st7{fill-rule:evenodd;clip-rule:evenodd;fill:#00AEEF;}
	.st8{fill:#196AB4;}
	.st9{fill-rule:evenodd;clip-rule:evenodd;fill:#CEFF00;}
	.st10{fill-rule:evenodd;clip-rule:evenodd;fill:#00374C;}
	.st11{fill:#00CFFF;}
	.st12{fill:#00C605;}
	.st13{fill:none;}
	.st14{fill:#720041;}
	.st15{fill:#29ABE2;}
	.st16{fill:#29B574;}
	.st17{fill:#273A93;}
	.st18{fill:#7BC143;}
	.st19{fill:#019AC4;}
	.st20{fill:#A3CD39;}
	.st21{fill:#26A6D8;}
	.st22{fill:#00AEEF;}
	.st23{fill:#00B9F2;}
	.st24{fill:#8DC63F;}
	.st25{fill:#2A66B1;}
	.st26{fill:#5BC6F2;}
	.st27{fill:#4171B8;}
	.st28{fill:#4C015E;}
	.st29{fill:#00333F;}
</style>
<g id="Layer_1">
</g>
<g id="Layer_2">
</g>
<g id="Layer_3">
</g>
<g id="Layer_4">
</g>
<g id="Layer_5">
	<g>
		<path class="st11" d="M155.1,142.38c-0.5,0.24-1.09,0.06-1.37-0.42l-1.37-2.69c-0.21-0.48,0.01-1.04,0.49-1.25
			c0.01-0.01,0.03-0.01,0.04-0.02l6.95-3.21c0.29-0.13,0.5-0.38,0.58-0.68l-3.37-6.53l1.11-0.53l-8.69-18.22
			c-0.68-0.13-1.25-0.58-1.53-1.21l-1.53-3.26c-0.3-0.67-0.22-1.46,0.21-2.05c-1.21-2.11-2.95-4.32-5.32-5.05
			c-2.37-0.74-3.42-0.37-5.42,0.53c-1.34,0.57-2.36,1.71-2.79,3.11c-0.36,1.23-0.45,2.52-0.26,3.79
			c9.53,2.79,16.16,10.11,18.27,20.32c1.47,7.37,1.16,11.32-1.16,14.11c-1.35,1.42-3.01,2.52-4.84,3.21
			c0.63-1.46,0.8-3.08,0.47-4.63c-0.95-4.63-5.79-7.53-10.85-6.53c-0.96,0.18-1.89,0.52-2.74,1l-5.69-27.75
			c-0.06-0.22,0-0.46,0.16-0.63c0.17-0.16,0.4-0.24,0.63-0.21c1.06,0.1,2.12,0.26,3.16,0.47c-0.08-1.28,0.06-2.56,0.42-3.79
			c0.66-2.04,2.18-3.7,4.16-4.53c2.63-1.21,5.11-1.42,7.37-0.68c3.16,1.05,5.32,3.79,6.74,6.27c0.78,0.06,1.47,0.55,1.79,1.26
			l1.53,3.21c0.24,0.52,0.24,1.11,0,1.63l8.74,18.32l1.16-0.58l3.53,6.74c0.21,0.06,0.43,0.04,0.63-0.05l2.37-1.11l4.21-1.95v-20.32
			L134.3,69.83l-35.01,31.22h20.17v43.54h12.32l-0.32-0.26c-0.83-0.81-1.4-1.86-1.63-3c-0.68-3.26,1.68-6.48,5.21-7.21
			s7,1.32,7.69,4.58c0.37,2.1-0.39,4.24-2,5.63l-0.32,0.26h32.49v-10.43l-4.21,1.95L155.1,142.38z"/>
		<path class="st12" d="M230.81,83.31v-15.9h-8.85v8l-6.27-5.63l-38.65,38.7v36.07h12.79c3.37-6.95,6.74-6.06,9.06-7.58
			s3.21-9.27,3.69-10.53c0.47-1.26,1.95-1.68,1.95-1.68s8.27,3.05,10.11,3.84c1,5.26,1.21,10.63,0.63,15.95h15.53v-43.49h19.9
			L230.81,83.31z M196.32,100.47l3.32,0.26l-1.47,3.79l-2.69-1.95L196.32,100.47z M223.18,121.69l-5.74-2.32l-1.79,3.9l1.47,0.58
			l-1.53,3.95l-12-4.53l1.53-4l2,0.74l-0.26-11.48l-0.95-0.42c-3.74,5.84-10.06,9.11-13.43,9.69c-1.79,0.32-2.21,0-2.32-0.37
			c-0.17-0.56,0.15-1.14,0.71-1.31c0.01,0,0.02-0.01,0.03-0.01c5.58-2.58,9-8.64,9.74-10l-1.68-0.63l1.9-5l16.37,6.27
			c1.12,0.43,2.02,1.28,2.53,2.37c0,0,3.58,7.79,4.69,9.9C226.23,122.53,223.18,121.69,223.18,121.69L223.18,121.69z"/>
		<path class="st13" d="M180.42,51.93l1.42,0.53c1.17,0.43,2.1,1.36,2.53,2.53l0.53,1.47h0.16c0.05,0,0.11,0,0.11-0.05l0.53-1.47
			c0.45-1.16,1.37-2.08,2.53-2.53l1.47-0.53c0.06,0,0.11-0.05,0.11-0.11c0-0.11-0.05-0.16-0.11-0.16l-1.47-0.53
			c-1.16-0.45-2.08-1.37-2.53-2.53l-0.53-1.47c0-0.05-0.05-0.05-0.11-0.05h-0.16l-0.53,1.47c-0.41,1.21-1.33,2.18-2.53,2.63
			l-1.42,0.53c-0.05,0-0.11,0.05-0.11,0.16C180.32,51.88,180.37,51.93,180.42,51.93z M172.53,44.76l1.21,0.42
			c0.96,0.38,1.73,1.14,2.11,2.11l0.42,1.21h0.21l0.47-1.21c0.35-0.98,1.12-1.76,2.11-2.11l1.16-0.42l0.11-0.11
			c0-0.06-0.05-0.11-0.11-0.11l-1.16-0.47c-0.99-0.34-1.77-1.12-2.11-2.11l-0.47-1.21h-0.21l-0.42,1.21
			c-0.37,0.97-1.14,1.74-2.11,2.11l-1.21,0.47c-0.06,0-0.11,0.05-0.11,0.11L172.53,44.76z M189.58,57.72h-0.05l-0.26,0.68
			c-0.21,0.56-0.65,1-1.21,1.21l-0.68,0.26h-0.05c0,0.05,0,0.05,0.05,0.05l0.68,0.26c0.56,0.21,1,0.65,1.21,1.21l0.26,0.68h0.11
			l0.26-0.68c0.2-0.55,0.62-0.99,1.16-1.21l0.68-0.26c0.05,0,0.05,0,0.05-0.05h-0.05l-0.68-0.26c-0.54-0.22-0.96-0.66-1.16-1.21
			l-0.26-0.68H189.58z M170.89,55.82l0.84,0.32c0.71,0.26,1.27,0.82,1.53,1.53l0.32,0.9h0.16l0.32-0.9c0.28-0.7,0.83-1.25,1.53-1.53
			l0.84-0.32c0.05,0,0.05,0,0.05-0.05v-0.11l-0.84-0.32c-0.7-0.24-1.27-0.78-1.53-1.47l-0.32-0.9h-0.16l-0.32,0.9
			c-0.25,0.7-0.81,1.25-1.53,1.47l-0.84,0.32v0.11C170.84,55.82,170.84,55.82,170.89,55.82z"/>
		<path class="st14" d="M212.65,67.09L175.05,33.5l-37.65,33.59l27.27,27.27l2.21-6.06l-5.37-2c-2-0.74-3.05-2.84-2.37-4.63
			l2.42-6.53l21.27,7.85l-2.37,6.48c-0.78,1.9-2.94,2.81-4.84,2.05l-5.42-2l-2.79,7.58l7.58,7.63L212.65,67.09z M191.06,59.67
			l0.68,0.26h0.05c0,0.05,0,0.05-0.05,0.05l-0.68,0.26c-0.54,0.22-0.96,0.66-1.16,1.21l-0.26,0.68h-0.11l-0.26-0.68
			c-0.21-0.56-0.65-1-1.21-1.21l-0.68-0.26c-0.05,0-0.05,0-0.05-0.05h0.05l0.68-0.26c0.56-0.21,1-0.65,1.21-1.21l0.26-0.68h0.11
			l0.26,0.68C190.1,59,190.52,59.44,191.06,59.67z M180.42,51.66l1.42-0.53c1.17-0.43,2.1-1.36,2.53-2.53l0.53-1.47h0.16
			c0.05,0,0.11,0,0.11,0.05l0.53,1.47c0.45,1.16,1.37,2.08,2.53,2.53l1.47,0.53c0.05,0,0.11,0.05,0.11,0.16
			c0,0.06-0.05,0.11-0.11,0.11l-1.47,0.53c-1.16,0.45-2.08,1.37-2.53,2.53l-0.53,1.47c0,0.05-0.05,0.05-0.11,0.05h-0.16l-0.53-1.47
			c-0.43-1.17-1.36-2.1-2.53-2.53l-1.42-0.53c-0.06,0-0.11-0.05-0.11-0.11C180.32,51.71,180.37,51.66,180.42,51.66z M172.53,44.55
			l1.21-0.47c0.97-0.37,1.74-1.14,2.11-2.11l0.42-1.21h0.21l0.47,1.21c0.34,0.99,1.12,1.77,2.11,2.11l1.16,0.47
			c0.06,0,0.11,0.05,0.11,0.11l-0.11,0.11l-1.16,0.42c-0.98,0.35-1.76,1.12-2.11,2.11l-0.47,1.21h-0.21l-0.42-1.21
			c-0.38-0.96-1.14-1.73-2.11-2.11l-1.21-0.42l-0.11-0.11C172.42,44.6,172.47,44.55,172.53,44.55z M170.89,55.66l0.84-0.32
			c0.71-0.22,1.28-0.77,1.53-1.47l0.32-0.9h0.16l0.32,0.9c0.26,0.7,0.82,1.24,1.53,1.47l0.84,0.32v0.11c0,0.05,0,0.05-0.05,0.05
			l-0.84,0.32c-0.7,0.28-1.25,0.83-1.53,1.53l-0.32,0.9h-0.16l-0.32-0.9c-0.26-0.71-0.82-1.27-1.53-1.53l-0.84-0.32
			c-0.05,0-0.05,0-0.05-0.05L170.89,55.66z M173.16,77.62l-0.74-0.26l-10.32-3.79c0,0,3.79-9.58,3.32-15.64
			c0.37,0.16,7.32,3.37,12.22,5.21l2,0.68l-1.05,4.53l2.42-4.11l1.9,0.63l-1.79,7.85l4.16-7.06c3.16,0.95,4.05,1.05,5.79,1.74
			c-4.58,5.21-7.63,14.01-7.63,14.01L173.16,77.62z"/>
	</g>
</g>
<g id="Layer_6">
</g>
<g id="Layer_7">
</g>
<g id="Layer_8">
</g>
<g id="Layer_9">
</g>
<g id="Layer_10">
</g>
<g id="Layer_11">
</g>
<g id="Layer_12">
</g>
<g id="Layer_13">
</g>
<g id="Layer_14">
</g>
<g id="Layer_15">
</g>
</svg>
