<?xml version="1.0" encoding="utf-8"?>
<!-- Generator: Adobe Illustrator 27.8.1, SVG Export Plug-In . SVG Version: 6.00 Build 0)  -->
<svg version="1.1" xmlns="http://www.w3.org/2000/svg" xmlns:xlink="http://www.w3.org/1999/xlink" x="0px" y="0px"
	 viewBox="0 0 350 230" style="enable-background:new 0 0 350 230;" xml:space="preserve">
<style type="text/css">
	.st0{fill:#7BC7FF;}
	.st1{fill:#FFFFFF;}
	.st2{opacity:0.75;fill:#E1F3FF;enable-background:new    ;}
	.st3{fill:#DCE9F4;}
	.st4{fill:#012A5B;}
	.st5{fill:#A2BE3B;}
	.st6{fill:#0071A9;}
	.st7{fill-rule:evenodd;clip-rule:evenodd;fill:#00AEEF;}
	.st8{fill:#196AB4;}
	.st9{fill-rule:evenodd;clip-rule:evenodd;fill:#CEFF00;}
	.st10{fill-rule:evenodd;clip-rule:evenodd;fill:#00374C;}
	.st11{fill:#00CFFF;}
	.st12{fill:#00C605;}
	.st13{fill:none;}
	.st14{fill:#720041;}
	.st15{fill:#29ABE2;}
	.st16{fill:#29B574;}
	.st17{fill:#273A93;}
	.st18{fill:#7BC143;}
	.st19{fill:#019AC4;}
	.st20{fill:#A3CD39;}
	.st21{fill:#26A6D8;}
	.st22{fill:#00AEEF;}
	.st23{fill:#00B9F2;}
	.st24{fill:#8DC63F;}
	.st25{fill:#2A66B1;}
	.st26{fill:#5BC6F2;}
	.st27{fill:#4171B8;}
	.st28{fill:#4C015E;}
	.st29{fill:#00333F;}
</style>
<g id="Layer_1">
</g>
<g id="Layer_2">
</g>
<g id="Layer_3">
	<g>
		<path class="st7" d="M139.64,102.87c-30.37,27.41,10.31,40.12,87.09,22.47c-0.42,0.49-0.92,0.91-1.48,1.23
			c-0.35,0.28-0.63,0.64-0.8,1.05C141.31,152.06,90.7,132.13,139.64,102.87z M136.31,99.04c-116.78,54.56,9.75,83.39,104.81,32.65
			c-0.24-0.09-0.47-0.21-0.68-0.37l-0.43,0.12c-0.74,0.25-1.55,0.11-2.16-0.37l-0.25-0.25l-1.05,0.43l0,0
			c-0.7,0.26-1.48,0.16-2.1-0.25l-0.12-0.12c-1.06,0.54-2.35,0.13-2.9-0.93C145.88,158.79,75.39,135.4,136.31,99.04L136.31,99.04z"
			/>
		<path class="st8" d="M193.78,34.73l-3.95-0.62l3.95-0.62l0.62-4.01l0.62,4.01l3.95,0.62l-3.95,0.62l-0.62,3.95L193.78,34.73z
			 M238.77,78.55l0.99-6.6l6.6-1.05l-6.54-0.99l-1.05-6.6l-1.05,6.54l-6.6,1.05l6.6,0.99L238.77,78.55z M160.82,43.55l1.23-8.21
			l8.33-1.3l-8.27-1.3l-1.3-8.27l-1.3,8.21l-8.27,1.36l8.27,1.23L160.82,43.55z M241.12,99.04l17.59,3.64
			c-0.86-4.01-2.16-8.09-5.93-9.63l0,0c4.38-21.05,7.04-36.23,7.04-36.23c0.99-3.64-3.39-4.57-3.89-0.68
			c-3.09,21.05-5.99,36.29-5.99,36.29C245.5,92.44,243.15,95.52,241.12,99.04z M244.2,77.44l-0.62,3.83l-3.83,0.62l3.83,0.62
			l0.62,3.83l0.56-3.83l3.89-0.62l-3.83-0.56L244.2,77.44z M258.89,103.8l-18.33-3.83c-4.63,8.58-6.97,23.58-14.13,28.39
			c5.13-0.68,9.7-3.59,12.47-7.96c-1.36,3.27-4.01,6.67-5.56,8.64c2.65-1.91,3.95-2.72,5.06-4.14c-0.72,1.56-1.61,3.03-2.65,4.38
			c5.06-2.1,6.91-3.95,8.58-5.56l-5.06,5.74c3.64-1.05,4.88-2.1,6.17-3.21c-1.09,1.28-2.33,2.42-3.7,3.39
			c1.83,0.22,3.68-0.13,5.31-0.99c1.38-0.74,2.62-1.72,3.64-2.9c-0.99,1.5-2.29,2.77-3.83,3.7c3.77,0.06,6.3-3.27,8.64-6.17
			c-1.67,2.65-3.52,4.75-5.8,5.99c1.1-0.12,2.19-0.31,3.27-0.56c5.37-1.42,7.16-5.31,7.53-10.8
			C260.87,112.44,260.31,107.13,258.89,103.8z M201.43,65.65l20.31,20.86v37.71c-38.15,8.21-66.78,8.76-81.35,3.7V86.51l20.25-20.86
			l20.43-20.86L201.43,65.65z M180.75,90.28h-11.91v8.64c0,1.6,1.3,2.9,2.9,2.9h9.01V90.28z M180.75,76.95h-9.01
			c-1.6,0-2.9,1.3-2.9,2.9l0,0v8.33h11.91V76.95z M194.76,90.28h-11.91v11.54h9.01c1.6,0,2.9-1.3,2.9-2.9V90.28z M194.76,79.85
			c0-1.6-1.3-2.9-2.9-2.9h-9.01v11.23h11.91V79.85z M124.09,90.71l-0.68,4.57l-4.63,0.74l4.57,0.68l0.74,4.63l0.68-4.57l4.63-0.74
			l-4.57-0.68L124.09,90.71z M228.65,88.55c1.01,1.04,2.66,1.07,3.7,0.06c1.04-1.01,1.07-2.66,0.06-3.7l0,0l-12.41-12.72V51.15h0.68
			c0.51,0,0.93-0.41,0.93-0.93v-0.8c0-0.51-0.41-0.93-0.93-0.93H209.7c-0.51,0-0.93,0.41-0.93,0.93v0.8c0,0.51,0.41,0.93,0.93,0.93
			h0.68v11.05c-9.14-9.38-18.27-18.76-27.47-27.96c-1.07-0.99-2.73-0.97-3.77,0.06l-49.44,50.55c-1.13,0.94-1.28,2.61-0.35,3.74
			c0.94,1.13,2.61,1.28,3.74,0.35c0.14-0.11,0.26-0.24,0.37-0.38l47.59-48.64L228.65,88.55z M120.02,91.02l0.99-6.79l6.79-1.05
			l-6.73-1.05l-1.05-6.79l-1.05,6.79l-6.79,1.05l6.73,1.05L120.02,91.02z"/>
	</g>
</g>
<g id="Layer_4">
</g>
<g id="Layer_5">
</g>
<g id="Layer_6">
</g>
<g id="Layer_7">
</g>
<g id="Layer_8">
</g>
<g id="Layer_9">
</g>
<g id="Layer_10">
</g>
<g id="Layer_11">
</g>
<g id="Layer_12">
</g>
<g id="Layer_13">
</g>
<g id="Layer_14">
</g>
<g id="Layer_15">
</g>
</svg>
