<?xml version="1.0" encoding="utf-8"?>
<!-- Generator: Adobe Illustrator 27.8.1, SVG Export Plug-In . SVG Version: 6.00 Build 0)  -->
<svg version="1.1" xmlns="http://www.w3.org/2000/svg" xmlns:xlink="http://www.w3.org/1999/xlink" x="0px" y="0px"
	 viewBox="0 0 350 230" style="enable-background:new 0 0 350 230;" xml:space="preserve">
<style type="text/css">
	.st0{fill:#7BC7FF;}
	.st1{fill:#FFFFFF;}
	.st2{opacity:0.75;fill:#E1F3FF;enable-background:new    ;}
	.st3{fill:#DCE9F4;}
	.st4{fill:#012A5B;}
	.st5{fill:#A2BE3B;}
	.st6{fill:#0071A9;}
	.st7{fill-rule:evenodd;clip-rule:evenodd;fill:#00AEEF;}
	.st8{fill:#196AB4;}
	.st9{fill-rule:evenodd;clip-rule:evenodd;fill:#CEFF00;}
	.st10{fill-rule:evenodd;clip-rule:evenodd;fill:#00374C;}
	.st11{fill:#00CFFF;}
	.st12{fill:#00C605;}
	.st13{fill:none;}
	.st14{fill:#720041;}
	.st15{fill:#29ABE2;}
	.st16{fill:#29B574;}
	.st17{fill:#273A93;}
	.st18{fill:#7BC143;}
	.st19{fill:#019AC4;}
	.st20{fill:#A3CD39;}
	.st21{fill:#26A6D8;}
	.st22{fill:#00AEEF;}
	.st23{fill:#00B9F2;}
	.st24{fill:#8DC63F;}
	.st25{fill:#2A66B1;}
	.st26{fill:#5BC6F2;}
	.st27{fill:#4171B8;}
	.st28{fill:#4C015E;}
	.st29{fill:#00333F;}
</style>
<g id="Layer_1">
</g>
<g id="Layer_2">
</g>
<g id="Layer_3">
</g>
<g id="Layer_4">
</g>
<g id="Layer_5">
</g>
<g id="Layer_6">
</g>
<g id="Layer_7">
</g>
<g id="Layer_8">
</g>
<g id="Layer_9">
</g>
<g id="Layer_10">
</g>
<g id="Layer_11">
</g>
<g id="Layer_12">
</g>
<g id="Layer_13">
</g>
<g id="Layer_14">
	<path class="st28" d="M131,132.69c-4.38,0.98-7.8,4.4-8.77,8.77c-0.97-4.36-4.37-7.78-8.73-8.77c4.35-0.99,7.74-4.38,8.73-8.73
		C123.22,128.32,126.63,131.72,131,132.69z M115.97,123.96c0.69-3.13,3.13-5.58,6.25-6.3c-3.12-0.7-5.55-3.13-6.25-6.25
		c-0.7,3.12-3.13,5.55-6.25,6.25C112.84,118.38,115.28,120.83,115.97,123.96z M196.74,136.7c-2.29,7.56-3.41,16.61-3.97,23.1
		c0.84,0.23,4.11,1.63,6.3,2.1l-1.17-6.81C197.12,149.53,196.51,142.86,196.74,136.7z M140.98,75.39l16.89-16.89l21.84-21.84
		l29.44,29.44l3.08-7.05l-32.52-32.52l-21.84,21.84v-9.61h-16.89v26.55l-21.84,21.84h10.08L140.98,75.39z M218.3,75.25l-1.63,3.69
		l8.26,8.21v67.94h-16.38c0.79,4.81,1.54,8.07,1.54,8.07l-2.71-0.37c-0.79-3.69-4.85-23.89-2.47-36.91l0.19-1.82
		c0,0,0.14-1.21,0.33-3.13c-2.57,0-7.65-1.45-13.21-3.87c-5.55-2.43-9.19-4.67-11.25-6.53l-1.91,2.15l-1.17,1.35
		c-8.82,11.71-29.77,22.54-29.77,22.54c3.55,1.26,6.63,2.43,9.29,3.5c4.9-3.22,10.92-7.51,15.77-12.09
		c-3.22,5.01-6.88,9.72-10.92,14.09c7.28,3.22,10.78,5.79,14.05,9.1c1.49-4.71,3.36-10.27,5.65-15.68
		c-1.54,5.84-2.79,11.76-3.73,17.73c1.45,1.63,3.45,2.75,7.33,5.13l-8.07-3.27H134.5V87.15l45.22-45.17l27.81,27.81l-10.78,24.68
		c-1.77,0.75-3.45,2.19-4.9,3.83c-2.29,2.52-5.97,6.63-9.01,10.08c3.31,2.32,6.86,4.28,10.59,5.83c4.85,2.15,9.38,3.55,12.32,3.97
		c0.42-4.53,0.98-9.94,1.26-13.21s0.09-5.27-0.98-7.33l20.58-47.04l0.19-0.33c1.07-2.49-0.08-5.37-2.56-6.44c0,0,0,0,0,0
		c-0.35-0.17-0.73-0.28-1.12-0.33c1.19-0.48,2.52-0.45,3.69,0.09c2.46,1.06,3.6,3.91,2.55,6.37c-0.01,0.02-0.02,0.05-0.03,0.07
		l-0.14,0.33l-7.79,17.83l18.9,18.94H230.2L218.3,75.25z M143.18,100.16c0.67-2.95,2.97-5.26,5.93-5.93
		c-2.96-0.68-5.27-3.01-5.93-5.97c-0.66,2.97-2.96,5.29-5.93,5.97C140.2,94.9,142.51,97.21,143.18,100.16L143.18,100.16z
		 M154.24,110.38c-3.22-0.73-5.73-3.26-6.44-6.49c-0.75,3.22-3.26,5.74-6.49,6.49c3.23,0.71,5.75,3.22,6.49,6.44
		C148.5,113.6,151.02,111.09,154.24,110.38L154.24,110.38z M170.61,100.16c-4.84-1.09-8.62-4.87-9.71-9.71
		c-1.06,4.84-4.83,8.62-9.66,9.71c4.83,1.08,8.6,4.87,9.66,9.71C162,105.03,165.77,101.25,170.61,100.16L170.61,100.16z"/>
</g>
<g id="Layer_15">
</g>
</svg>
