<?xml version="1.0" encoding="utf-8"?>
<!-- Generator: Adobe Illustrator 27.8.1, SVG Export Plug-In . SVG Version: 6.00 Build 0)  -->
<svg version="1.1" xmlns="http://www.w3.org/2000/svg" xmlns:xlink="http://www.w3.org/1999/xlink" x="0px" y="0px"
	 viewBox="0 0 350 230" style="enable-background:new 0 0 350 230;" xml:space="preserve">
<style type="text/css">
	.st0{fill:#7BC7FF;}
	.st1{fill:#FFFFFF;}
	.st2{opacity:0.75;fill:#E1F3FF;enable-background:new    ;}
	.st3{fill:#DCE9F4;}
	.st4{fill:#012A5B;}
	.st5{fill:#A2BE3B;}
	.st6{fill:#0071A9;}
	.st7{fill-rule:evenodd;clip-rule:evenodd;fill:#00AEEF;}
	.st8{fill:#196AB4;}
	.st9{fill-rule:evenodd;clip-rule:evenodd;fill:#CEFF00;}
	.st10{fill-rule:evenodd;clip-rule:evenodd;fill:#00374C;}
	.st11{fill:#00CFFF;}
	.st12{fill:#00C605;}
	.st13{fill:none;}
	.st14{fill:#720041;}
	.st15{fill:#29ABE2;}
	.st16{fill:#29B574;}
	.st17{fill:#273A93;}
	.st18{fill:#7BC143;}
	.st19{fill:#019AC4;}
	.st20{fill:#A3CD39;}
	.st21{fill:#26A6D8;}
	.st22{fill:#00AEEF;}
	.st23{fill:#00B9F2;}
	.st24{fill:#8DC63F;}
	.st25{fill:#2A66B1;}
	.st26{fill:#5BC6F2;}
	.st27{fill:#4171B8;}
	.st28{fill:#4C015E;}
	.st29{fill:#00333F;}
</style>
<g id="Layer_1">
</g>
<g id="Layer_2">
</g>
<g id="Layer_3">
</g>
<g id="Layer_4">
</g>
<g id="Layer_5">
</g>
<g id="Layer_6">
</g>
<g id="Layer_7">
</g>
<g id="Layer_8">
</g>
<g id="Layer_9">
</g>
<g id="Layer_10">
</g>
<g id="Layer_11">
	<g>
		<path class="st25" d="M219.65,126.53h-3.4l-3.4-0.12c-2.16-0.12-4.32-0.37-6.42-0.62c-18.15-2.53-32.91-10.56-51.87-13.83
			c17.04,4.14,32.17,13.03,49.52,16.36l0,0c-6.14,6.23-14.53,9.75-23.28,9.76c-16.18,0-29.76-11.92-32.91-27.79
			c-0.28-1.28-0.46-2.58-0.56-3.89c22.04,4.32,39.46,13.89,61.5,16.05c4,0.38,8.03,0.49,12.04,0.31c3.18-0.06,6.36-0.33,9.51-0.8
			c7.16-0.99,25.01-5.8,35.14-15.62c-15.38,6.73-29.45,8.15-43.04,7.04c-3.09-0.31-6.11-0.68-9.14-1.17
			c-21.67-3.46-42.48-11.98-65.83-14.14c-2.22-0.25-4.51-0.37-6.73-0.43c-16.92-0.62-35.32,2.47-56.32,13.4
			c22.35-7.04,39.83-7.9,54.9-5.93c-0.12,1.17-0.25,2.41-0.31,3.7v1.67c0,23.96,18.71,43.41,41.74,43.41
			c16.49,0,30.69-9.88,37.54-24.27l0,0c2.58-0.06,5.16-0.27,7.72-0.62c6.11-0.8,21.43-5,30.07-13.34
			c-9.39,6.48-23.16,9.45-27.91,10.13C225.38,126.19,222.52,126.43,219.65,126.53z"/>
		<path class="st21" d="M202.91,51.2l-1.36-7.1l-7.1-1.54l7.1-1.36l1.54-7.1l1.36,7.16l7.04,1.48l-7.1,1.36L202.91,51.2z
			 M208.34,53.42l4.75-0.86l-4.69-1.05l-0.93-4.69l-0.99,4.69l-4.75,0.93l4.69,0.99l0.93,4.75L208.34,53.42z M211.49,36.5l4.75-0.93
			l-4.69-0.99l-0.93-4.75l-0.99,4.69l-4.75,0.93l4.69,0.99l0.93,4.75L211.49,36.5z M222.61,109.74c-0.06-2.95-0.42-5.89-1.05-8.77
			c-2.47-19.02-36.74-63.73-39.83-67.74v-0.25l-0.12,0.12l-0.12-0.12v0.25c-2.78,3.52-31.55,39.58-39.52,60.76
			c2.1,0.12,4.14,0.25,6.17,0.49c3.03-15.81,30.75-50.57,33.22-53.66v-0.25l0.12,0.12v0.12c2.53,3.27,30.13,39.27,32.11,54.59
			c0.55,2.54,0.82,5.12,0.8,7.72c0,1.86-0.12,3.72-0.37,5.56C216.87,109.12,219.71,109.49,222.61,109.74z M172.1,77.5h8.52v-8.46
			h-8.52V77.5z M183.95,77.5h8.46v-8.46h-8.46V77.5z M172.1,89.36h8.52v-8.52h-8.52V89.36z M183.95,89.36h8.46v-8.52h-8.46V89.36z"
			/>
	</g>
</g>
<g id="Layer_12">
</g>
<g id="Layer_13">
</g>
<g id="Layer_14">
</g>
<g id="Layer_15">
</g>
</svg>
