<?xml version="1.0" encoding="utf-8"?>
<!-- Generator: Adobe Illustrator 27.8.1, SVG Export Plug-In . SVG Version: 6.00 Build 0)  -->
<svg version="1.1" xmlns="http://www.w3.org/2000/svg" xmlns:xlink="http://www.w3.org/1999/xlink" x="0px" y="0px"
	 viewBox="0 0 350 230" style="enable-background:new 0 0 350 230;" xml:space="preserve">
<style type="text/css">
	.st0{fill:#7BC7FF;}
	.st1{fill:#FFFFFF;}
	.st2{opacity:0.75;fill:#E1F3FF;enable-background:new    ;}
	.st3{fill:#DCE9F4;}
	.st4{fill:#012A5B;}
	.st5{fill:#A2BE3B;}
	.st6{fill:#0071A9;}
	.st7{fill-rule:evenodd;clip-rule:evenodd;fill:#00AEEF;}
	.st8{fill:#196AB4;}
	.st9{fill-rule:evenodd;clip-rule:evenodd;fill:#CEFF00;}
	.st10{fill-rule:evenodd;clip-rule:evenodd;fill:#00374C;}
	.st11{fill:#00CFFF;}
	.st12{fill:#00C605;}
	.st13{fill:none;}
	.st14{fill:#720041;}
	.st15{fill:#29ABE2;}
	.st16{fill:#29B574;}
	.st17{fill:#273A93;}
	.st18{fill:#7BC143;}
	.st19{fill:#019AC4;}
	.st20{fill:#A3CD39;}
	.st21{fill:#26A6D8;}
	.st22{fill:#00AEEF;}
	.st23{fill:#00B9F2;}
	.st24{fill:#8DC63F;}
	.st25{fill:#2A66B1;}
	.st26{fill:#5BC6F2;}
	.st27{fill:#4171B8;}
	.st28{fill:#4C015E;}
	.st29{fill:#00333F;}
</style>
<g id="Layer_1">
</g>
<g id="Layer_2">
</g>
<g id="Layer_3">
</g>
<g id="Layer_4">
</g>
<g id="Layer_5">
</g>
<g id="Layer_6">
</g>
<g id="Layer_7">
</g>
<g id="Layer_8">
</g>
<g id="Layer_9">
</g>
<g id="Layer_10">
</g>
<g id="Layer_11">
</g>
<g id="Layer_12">
</g>
<g id="Layer_13">
	<g>
		<path class="st27" d="M76.36,118.19c0.23-3.28,1.4-8.42,2.28-12.05c-1.58,2.87-3.33,7.55-4.33,10.53
			c-7.31-4.85-12.05-5.38-17.14-11.11c3.83-2.52,7.41-5.4,10.7-8.6c-4.16,2.38-8.55,4.33-13.1,5.85c-1.81-2.11-3.04-3.8-3.04-3.8
			s12.81-3.8,19.24-9.07l0.82-0.64l1.4-0.99c0.76,1.29,2.87,3.33,5.62,5.44c1.93,1.53,4.05,2.79,6.32,3.74
			c-0.35,0.94-0.53,1.52-0.53,1.52l-0.35,0.94c-3.33,7.6-3.63,21.88-3.63,21.88C79.05,120.41,77.58,119.24,76.36,118.19z
			 M102.03,58.47L84.55,81.57c-1.4,0.16-2.73,0.68-3.86,1.52l-6.2,4.27c1.59,1.86,3.4,3.53,5.38,4.97c1.8,1.4,3.74,2.61,5.79,3.63
			c0.88-2.46,1.87-5.38,2.46-7.19c0.41-1.12,0.61-2.31,0.58-3.51l17.84-23.63c0.92-1.21,0.69-2.94-0.53-3.86
			c-1.21-0.92-2.94-0.69-3.86,0.53C102.09,58.35,102.03,58.41,102.03,58.47z M147.48,158.26c-0.67,3.02-3.01,5.39-6.02,6.08
			c3.03,0.67,5.39,3.05,6.02,6.08c0.69-3.03,3.05-5.4,6.08-6.08C150.55,163.63,148.2,161.28,147.48,158.26z M135.73,152
			c-0.42,1.78-1.8,3.18-3.57,3.63c1.78,0.4,3.16,1.79,3.57,3.57c0.41-1.79,1.83-3.18,3.63-3.57
			C137.55,155.21,136.15,153.8,135.73,152z M158.36,152.64c-0.53,2.39-2.4,4.26-4.8,4.8c2.39,0.53,4.26,2.4,4.8,4.8
			c0.53-2.39,2.4-4.26,4.8-4.8C160.77,156.91,158.9,155.04,158.36,152.64L158.36,152.64z"/>
		<path class="st22" d="M69.75,133.11c2.36-0.53,4.21-2.38,4.74-4.74c0.53,2.36,2.38,4.21,4.74,4.74c-2.36,0.54-4.2,2.38-4.74,4.74
			C73.94,135.49,72.1,133.65,69.75,133.11z M61.44,139.43c1.64,0.37,2.93,1.64,3.33,3.28c0.35-1.64,1.63-2.92,3.28-3.28
			c-1.64-0.35-2.92-1.63-3.28-3.28C64.37,137.78,63.08,139.05,61.44,139.43z M197.09,161.65c-16.96-10.76-26.38-15.56-42.58-18.78
			c-30.53-5.97-56.39,14.39-75.81,19.65c-62.71,17.02-9.07-47.26-9.07-47.26s-34.34,44.98,8.89,36.91
			c22.75-4.27,47.56-22.75,76.86-15.15C157.43,137.55,175.33,140.36,197.09,161.65z M64.48,158.26c-2.57-0.57-4.58-2.58-5.15-5.15
			c-0.57,2.57-2.58,4.58-5.15,5.15c2.57,0.57,4.58,2.58,5.15,5.15C59.91,160.84,61.91,158.83,64.48,158.26z M73.2,141.36
			c-0.47,2.13-2.14,3.8-4.27,4.27c2.13,0.47,3.8,2.14,4.27,4.27c0.48-2.13,2.14-3.79,4.27-4.27
			C75.34,145.14,73.68,143.48,73.2,141.36z M73.61,167.62l-4.85,1.52c-76.8,20.82-16.96-53.87-11.93-60.01l-0.35,0.47
			c-1.99,2.75-8.07,11.41-12.05,20.59C33.13,153.11,31.08,175.69,73.61,167.62z M145.09,144.98c-15.85-1.17-43.11,9.59-54.46,16.9
			c22.52-9.01,32-13.45,52.29-13.45c18.78,0,41.24,8.72,56.68,17.9C185.27,156.21,165.85,145.51,145.09,144.98z"/>
	</g>
</g>
<g id="Layer_14">
</g>
<g id="Layer_15">
</g>
</svg>
