<?xml version="1.0" encoding="utf-8"?>
<!-- Generator: Adobe Illustrator 27.8.1, SVG Export Plug-In . SVG Version: 6.00 Build 0)  -->
<svg version="1.1" xmlns="http://www.w3.org/2000/svg" xmlns:xlink="http://www.w3.org/1999/xlink" x="0px" y="0px"
	 viewBox="0 0 350 230" style="enable-background:new 0 0 350 230;" xml:space="preserve">
<style type="text/css">
	.st0{fill:#7BC7FF;}
	.st1{fill:#FFFFFF;}
	.st2{opacity:0.75;fill:#E1F3FF;enable-background:new    ;}
	.st3{fill:#DCE9F4;}
	.st4{fill:#012A5B;}
	.st5{fill:#A2BE3B;}
	.st6{fill:#0071A9;}
	.st7{fill-rule:evenodd;clip-rule:evenodd;fill:#00AEEF;}
	.st8{fill:#196AB4;}
	.st9{fill-rule:evenodd;clip-rule:evenodd;fill:#CEFF00;}
	.st10{fill-rule:evenodd;clip-rule:evenodd;fill:#00374C;}
	.st11{fill:#00CFFF;}
	.st12{fill:#00C605;}
	.st13{fill:none;}
	.st14{fill:#720041;}
	.st15{fill:#29ABE2;}
	.st16{fill:#29B574;}
	.st17{fill:#273A93;}
	.st18{fill:#7BC143;}
	.st19{fill:#019AC4;}
	.st20{fill:#A3CD39;}
	.st21{fill:#26A6D8;}
	.st22{fill:#00AEEF;}
	.st23{fill:#00B9F2;}
	.st24{fill:#8DC63F;}
	.st25{fill:#2A66B1;}
	.st26{fill:#5BC6F2;}
	.st27{fill:#4171B8;}
	.st28{fill:#4C015E;}
	.st29{fill:#00333F;}
</style>
<g id="Layer_1">
</g>
<g id="Layer_2">
</g>
<g id="Layer_3">
</g>
<g id="Layer_4">
</g>
<g id="Layer_5">
</g>
<g id="Layer_6">
</g>
<g id="Layer_7">
</g>
<g id="Layer_8">
	<path class="st21" d="M235.31,129.38c-18.79,31.97-59.94,42.66-91.9,23.87s-42.66-59.94-23.87-91.9s59.94-42.66,91.9-23.87
		c9.86,5.79,18.07,14.01,23.87,23.87c-18.79-28.97-57.51-37.23-86.48-18.44s-37.23,57.51-18.44,86.48s57.51,37.23,86.48,18.44
		C224.25,143.04,230.53,136.76,235.31,129.38z M177.55,41.79c29.59,0.01,53.57,24,53.56,53.58s-24,53.57-53.58,53.56
		c-18.14,0-35.05-9.19-44.92-24.41c16.11,27.39,51.37,36.53,78.75,20.42c27.39-16.11,36.53-51.37,20.42-78.75
		s-51.37-36.53-78.75-20.42c-8.43,4.96-15.46,11.99-20.42,20.42C142.47,50.97,159.39,41.78,177.55,41.79z M161.95,104.6
		c-1.34,1.17-1.57,3.18-0.52,4.62c1.12,1.54,3.27,1.87,4.81,0.75c0,0,0,0,0,0c1.54-1.12,1.87-3.27,0.75-4.81c0,0,0,0,0,0
		c-1.06-1.44-3.03-1.84-4.57-0.94c1.32-0.76,3-0.41,3.91,0.8c0.98,1.32,0.7,3.18-0.61,4.15c-1.32,0.98-3.18,0.7-4.15-0.61
		C160.66,107.34,160.82,105.63,161.95,104.6L161.95,104.6z M162.85,89c-1.64,1.42-1.91,3.87-0.61,5.61
		c1.35,1.86,3.96,2.27,5.82,0.92c1.86-1.35,2.27-3.96,0.92-5.82c-1.25-1.78-3.67-2.27-5.51-1.13c1.59-0.93,3.63-0.5,4.71,0.99
		c1.19,1.61,0.84,3.88-0.77,5.07c-1.61,1.19-3.88,0.84-5.07-0.77C161.22,92.36,161.44,90.25,162.85,89L162.85,89z M170.39,76
		c-2.37,2.22-2.5,5.95-0.27,8.32c2.22,2.37,5.95,2.5,8.32,0.27c2.37-2.22,2.5-5.95,0.27-8.32c-1.94-2.07-5.09-2.47-7.48-0.93
		c2.53-1.59,5.88-0.83,7.47,1.7c1.59,2.53,0.83,5.88-1.7,7.47c-2.53,1.59-5.88,0.83-7.47-1.7C168.16,80.63,168.52,77.78,170.39,76z
		 M215.76,127.59c0,0.42-4.29,2.45-4.76,2.69c-2.13,1.04-4.33,1.93-6.6,2.64c-2.93,0.89-5.95,1.46-9,1.7
		c-5.01,3.18-10.83,4.87-16.77,4.85c-17.86,0-32.37-15.03-32.37-33.55c0.01-2.49,0.27-4.97,0.8-7.4
		c1.93-13.71,25.58-44.01,30.34-49.94l1.23-1.55l1.27,1.55c2.4,3.02,9.75,12.39,16.63,22.66l1.98-12.44
		c0.33-2.14,2.17-3.72,4.33-3.72c1.26-0.02,2.46,0.52,3.3,1.46c0.83,0.94,1.23,2.19,1.08,3.44l-3.39,23.04
		c3.35,5.89,5.8,11.45,6.41,15.5c0.28,1.34,0.48,2.69,0.61,4.05c2.73,6.78,4.29,14.51,4.81,23.56L215.76,127.59z M196.16,88.11
		c-2.7,0.45-5.07,2.07-6.46,4.43c-0.1,0.21-0.02,0.46,0.19,0.57c0.06,0.03,0.12,0.04,0.19,0.04h16.11c0.23,0,0.42-0.19,0.42-0.43
		c0-0.06-0.02-0.13-0.04-0.19c-1.25-2.17-3.35-3.73-5.8-4.29l4.15-28.55c0.16-1.13-0.64-2.18-1.77-2.34c-0.1-0.01-0.2-0.02-0.3-0.02
		l0,0c-1.03,0.01-1.89,0.77-2.03,1.79L196.16,88.11z M187.77,134.75c-9.05-0.52-18.56-3.11-26.29-7.68
		c-3.02-1.74-4.81-4.05-6.69-6.93l4.1-0.14c4.99-0.19,14.09-4.81,29.21-25.35l-0.38-0.57c-0.52-0.84-0.52-1.9,0-2.73
		c1.43-2.41,3.69-4.22,6.36-5.09l1.7-10.37c-5.14-7.92-11.36-16.4-17.15-23.75c-12.53,15.97-27.09,37.22-28.41,46.88v0.09
		c-0.47,2.23-0.71,4.5-0.71,6.78c0,16.73,13.1,30.34,29.17,30.34C181.77,136.27,184.84,135.76,187.77,134.75L187.77,134.75z
		 M213.4,126.27c-0.85-14.32-4.33-23.98-9.09-31.43h-1.55l0.9,4.71l-2.92-4.71h-1.32l-1.7,7.92v-7.92h-1.98l-3.35,3.63l1.7-3.63
		h-3.25c-13.04,18-23.65,27.16-31.85,27.47c1.46,2.17,7.11,4.48,7.11,4.48c1.84-0.52,7.4-4.38,7.4-4.38
		c-1.55,1.98-4.99,5.42-4.99,5.42c2.07,1.37,9.33,3.02,9.33,3.02c2.78-1.46,8.34-8.95,8.34-8.95c-1.51,3.77-4.85,9.8-4.85,9.8
		c4.29,1.18,13.29,0.75,13.29,0.75c2.78-3.35,3.44-11.83,3.44-11.83c1.04,4.62,0.19,11.31,0.19,11.31c3.48-0.35,6.86-1.39,9.94-3.06
		l0.42-5.61l1.46,4.9L213.4,126.27z M135.61,78.4l7.26-1.41l-7.21-1.55l-1.41-7.26l-1.55,7.21l-7.26,1.41l7.26,1.55l1.37,7.26
		L135.61,78.4z M139.66,87.92l4.81-0.9l-4.81-1.04l-0.9-4.85l-1.04,4.81l-4.85,0.94l4.81,1.04l0.94,4.81L139.66,87.92z
		 M142.87,70.58l4.81-0.9l-4.81-1.04l-0.9-4.85l-1.04,4.81l-4.85,0.94l4.81,1.04l0.94,4.81L142.87,70.58z"/>
</g>
<g id="Layer_9">
</g>
<g id="Layer_10">
</g>
<g id="Layer_11">
</g>
<g id="Layer_12">
</g>
<g id="Layer_13">
</g>
<g id="Layer_14">
</g>
<g id="Layer_15">
</g>
</svg>
