<?xml version="1.0" encoding="utf-8"?>
<!-- Generator: Adobe Illustrator 27.8.1, SVG Export Plug-In . SVG Version: 6.00 Build 0)  -->
<svg version="1.1" xmlns="http://www.w3.org/2000/svg" xmlns:xlink="http://www.w3.org/1999/xlink" x="0px" y="0px"
	 viewBox="0 0 350 230" style="enable-background:new 0 0 350 230;" xml:space="preserve">
<style type="text/css">
	.st0{fill:#7BC7FF;}
	.st1{fill:#FFFFFF;}
	.st2{opacity:0.75;fill:#E1F3FF;enable-background:new    ;}
	.st3{fill:#DCE9F4;}
	.st4{fill:#012A5B;}
	.st5{fill:#A2BE3B;}
	.st6{fill:#0071A9;}
	.st7{fill-rule:evenodd;clip-rule:evenodd;fill:#00AEEF;}
	.st8{fill:#196AB4;}
	.st9{fill-rule:evenodd;clip-rule:evenodd;fill:#CEFF00;}
	.st10{fill-rule:evenodd;clip-rule:evenodd;fill:#00374C;}
	.st11{fill:#00CFFF;}
	.st12{fill:#00C605;}
	.st13{fill:none;}
	.st14{fill:#720041;}
	.st15{fill:#29ABE2;}
	.st16{fill:#29B574;}
	.st17{fill:#273A93;}
	.st18{fill:#7BC143;}
	.st19{fill:#019AC4;}
	.st20{fill:#A3CD39;}
	.st21{fill:#26A6D8;}
	.st22{fill:#00AEEF;}
	.st23{fill:#00B9F2;}
	.st24{fill:#8DC63F;}
	.st25{fill:#2A66B1;}
	.st26{fill:#5BC6F2;}
	.st27{fill:#4171B8;}
	.st28{fill:#4C015E;}
	.st29{fill:#00333F;}
</style>
<g id="Layer_1">
</g>
<g id="Layer_2">
</g>
<g id="Layer_3">
</g>
<g id="Layer_4">
</g>
<g id="Layer_5">
</g>
<g id="Layer_6">
</g>
<g id="Layer_7">
	<g>
		<path class="st17" d="M212.39,39.82l10.39,2.85l-10.68,1.68l-2.9,10.39l-1.63-10.68l-10.39-2.9l10.68-1.63l2.9-10.39L212.39,39.82
			z M158.68,49.69c-24.45,2.09-54.58,21.19-50.75,56.38c3.25,29.55,38.03,38.15,38.03,38.15c-19.68-7.03-42.04-43.37-20.09-70.61
			s65.44-25.49,92.15,3.02l-0.75-1.05C209.72,65.71,186.09,47.42,158.68,49.69z"/>
		<path class="st18" d="M168.26,58.86c-34.43-0.12-46.57,26.19-45.64,36.93c0,0,15.85-35.83,55.92-28.63
			c35.01,6.33,44.65,41.46,35.19,65.96c1.46-2.38,2.74-4.86,3.83-7.43C232.19,91.96,207.81,58.92,168.26,58.86z"/>
		<path class="st19" d="M137.26,97.36l-0.7,0.23c-0.71,0.3-1.53-0.03-1.83-0.74c-0.01-0.03-0.02-0.05-0.03-0.08l-0.23-0.7
			c-0.27-0.75,0.12-1.59,0.87-1.86l0.64-0.23c0.75-0.27,1.59,0.12,1.86,0.87l0.23,0.64c0.3,0.71-0.03,1.53-0.74,1.83
			C137.31,97.34,137.28,97.35,137.26,97.36z M141.26,96.72c8.83-2.09,14.57,6.04,14.57,6.04l11.09-4.06
			c-0.58-1.61-0.41-3.4,0.46-4.88l2.09-3.54c0.42-0.68,0.21-1.58-0.48-2c-0.11-0.06-0.22-0.12-0.34-0.15l-9.87-3.37
			c-0.53-0.17-1.1-0.17-1.63,0l-17.71,6.56c-0.73,0.24-1.13,1.03-0.88,1.76c0,0.01,0.01,0.03,0.01,0.04l0.99,2.67
			C139.83,96.48,140.55,96.88,141.26,96.72L141.26,96.72z M150.21,99.39c-3.31-2.67-8.48-1.74-8.48-1.74
			c-0.17,1.68,4.24,7.14,1.74,11.44c5.69-0.93,4.18-8.01,4.18-8.01S149.97,100.49,150.21,99.39z M217.27,75.58
			c-7.55-9.87-31.18-28.16-58.59-25.9c-24.45,2.09-54.58,21.19-50.75,56.38c3.25,29.55,38.03,38.15,38.03,38.15
			c-38.32-2.26-60.56-39.89-43.49-70.61S179.35,24.2,217.27,75.58z M115.31,72.45l-4.82-1.22l-0.41-4.99l-1.22,4.88l-5.05,0.35
			l4.88,1.28l0.41,4.99l1.22-4.88L115.31,72.45z"/>
		<path class="st20" d="M245.08,123.02l14.17,3.95l-14.52,2.21l-3.95,14.17l-2.26-14.52l-14.11-3.95l14.52-2.21l3.95-14.17
			L245.08,123.02z M99.86,130.51l-1.92,7.03l-7.2,1.05l7.03,1.97l1.05,7.14l1.97-6.97l7.14-1.1l-6.97-1.92L99.86,130.51z
			 M178.54,67.16c-40.06-7.2-55.92,28.63-55.92,28.63c11.79-21.89,56.15-34.2,75.31-2.09c10.57,17.65,3.19,34.08-5.34,44.07
			l-6.21-16.9c-1.97-5.34-7.22-8.74-12.89-8.36c-0.93-2.44-2.21-6.04-2.9-8.13c-0.29-0.85-1.21-1.31-2.06-1.02
			c-0.03,0.01-0.06,0.02-0.09,0.03l-9.7,3.54c-0.86,0.33-1.3,1.28-0.99,2.15l3.14,8.42c-3.99,3.49-5.42,9.07-3.6,14.05l9.46,25.72
			c0,0,30.66,1.86,46.97-24.15C223.19,108.62,213.55,73.49,178.54,67.16z M196.37,83.89l-1.39,5.28l-0.41-5.46l-5.28-1.34l5.46-0.46
			l1.34-5.28l0.41,5.46l5.28,1.34L196.37,83.89z M173.66,136.2l-2.44,9.46l-0.7-9.7l-9.46-2.44l9.7-0.75l2.44-9.41l0.75,9.7
			l9.41,2.38L173.66,136.2z"/>
	</g>
</g>
<g id="Layer_8">
</g>
<g id="Layer_9">
</g>
<g id="Layer_10">
</g>
<g id="Layer_11">
</g>
<g id="Layer_12">
</g>
<g id="Layer_13">
</g>
<g id="Layer_14">
</g>
<g id="Layer_15">
</g>
</svg>
