<?xml version="1.0" encoding="utf-8"?>
<!-- Generator: Adobe Illustrator 27.8.1, SVG Export Plug-In . SVG Version: 6.00 Build 0)  -->
<svg version="1.1" xmlns="http://www.w3.org/2000/svg" xmlns:xlink="http://www.w3.org/1999/xlink" x="0px" y="0px"
	 viewBox="0 0 350 230" style="enable-background:new 0 0 350 230;" xml:space="preserve">
<style type="text/css">
	.st0{fill:#7BC7FF;}
	.st1{fill:#FFFFFF;}
	.st2{opacity:0.75;fill:#E1F3FF;enable-background:new    ;}
	.st3{fill:#DCE9F4;}
	.st4{fill:#012A5B;}
	.st5{fill:#A2BE3B;}
	.st6{fill:#0071A9;}
	.st7{fill-rule:evenodd;clip-rule:evenodd;fill:#00AEEF;}
	.st8{fill:#196AB4;}
	.st9{fill-rule:evenodd;clip-rule:evenodd;fill:#CEFF00;}
	.st10{fill-rule:evenodd;clip-rule:evenodd;fill:#00374C;}
	.st11{fill:#00CFFF;}
	.st12{fill:#00C605;}
	.st13{fill:none;}
	.st14{fill:#720041;}
	.st15{fill:#29ABE2;}
	.st16{fill:#29B574;}
	.st17{fill:#273A93;}
	.st18{fill:#7BC143;}
	.st19{fill:#019AC4;}
	.st20{fill:#A3CD39;}
	.st21{fill:#26A6D8;}
	.st22{fill:#00AEEF;}
	.st23{fill:#00B9F2;}
	.st24{fill:#8DC63F;}
	.st25{fill:#2A66B1;}
	.st26{fill:#5BC6F2;}
	.st27{fill:#4171B8;}
	.st28{fill:#4C015E;}
	.st29{fill:#00333F;}
</style>
<g id="Layer_1">
</g>
<g id="Layer_2">
</g>
<g id="Layer_3">
</g>
<g id="Layer_4">
	<g>
		<path class="st9" d="M141.14,83.86l-9.29,7.13v41.67h0.05l15.55-8.98V78.99L161,89.45v26.38l3.95-2.26l1.28,0.72V55.74
			l-25.09,19.29V83.86z M161.15,83.86l0.72-0.67l0.46-2.62l0.31,2.67l0.67,0.67l2.62,0.46l-2.67,0.36l-0.67,0.62l-0.46,2.67
			l-0.31-2.67l-0.67-0.67l-2.67-0.46L161.15,83.86z M247.82,94.38l-25.25,14.57c-0.36,0.2-0.81,0.09-1.03-0.26l-1.54-2.67
			c-0.21-0.34-0.1-0.78,0.24-0.99c0.02-0.01,0.05-0.03,0.07-0.04l11.65-6.77l-6-10.37c-0.06-0.1-0.06-0.21,0-0.31l-10.52-18.17
			l1.69-0.97l10.47,18.22l0.31,0.15l5.95,10.37l11.65-6.72c0.36-0.23,0.83-0.12,1.06,0.23c0,0.01,0.01,0.02,0.01,0.02l1.54,2.67
			C248.32,93.72,248.19,94.18,247.82,94.38z M140.52,62.62l-2.31-0.41l2.36-0.31l0.56-0.56l0.41-2.31l0.31,2.31l0.56,0.62l2.31,0.41
			l-2.31,0.31l-0.62,0.56l-0.41,2.31l-0.26-2.31L140.52,62.62z"/>
		<path class="st10" d="M154.02,108.39l-0.36-2.67l-0.67-0.72l-2.62-0.46l2.67-0.31l0.67-0.67l0.46-2.62l0.31,2.62l0.67,0.72
			l2.67,0.46l-2.67,0.31l-0.72,0.67L154.02,108.39z M191.79,132.66c-1.28,0.51-2.62,0.97-3.9,1.39l-22.94-13.19l-27.2,15.7
			l-4.31-1.18l31.51-18.22L191.79,132.66z M185.07,117.37l-6.72,3.9l3.18,1.8l3.54-2l14.32,8.26l3.28-1.74L185.07,117.37z
			 M162.18,129.43v2.31h2.31v-2.31H162.18z M165.46,129.43v2.31h2.26v-2.31H165.46z M167.72,132.71h-2.26v2.31h2.26V132.71z
			 M164.49,132.71h-2.31v2.31h2.31L164.49,132.71z M210.98,94.94l1.18-1.08l4.46-0.56l-4.46-0.77l-1.13-1.18l-0.51-4.52l-0.77,4.46
			l-1.18,1.13l-4.52,0.56l4.46,0.77l1.13,1.18l0.51,4.52L210.98,94.94z M201.33,71.9l0.87-0.82l3.34-0.41l-3.34-0.56l-0.82-0.87
			l-0.41-3.39l-0.56,3.34l-0.87,0.82l-3.39,0.41l3.34,0.56l0.82,0.92l0.41,3.34L201.33,71.9z M125.54,122.5l0.92-0.82l3.44-0.41
			l-3.44-0.62l-0.82-0.87l-0.41-3.44l-0.62,3.39l-0.87,0.87l-3.44,0.41l3.39,0.56l0.87,0.92l0.41,3.44L125.54,122.5z M133.85,148.26
			l0.72-0.62l2.67-0.36l-2.67-0.46l-0.67-0.67l-0.31-2.67l-0.46,2.62l-0.67,0.67l-2.67,0.36l2.62,0.46l0.67,0.67l0.36,2.67
			L133.85,148.26z M206.82,83.3v43.05l-17.6-10.16V69.75l-11.24,8.62v39.46l-2.77,1.64l-3.8-2.21V74.11l0.15,1.28l0.46-2.62
			l0.72-0.67l2.67-0.36l-2.67-0.46l-0.67-0.67l-0.31-2.67l-0.36,2V36.14L161,44.19v12.98l-4,3.08V42.45l14.42-11.14l26.89,20.68
			v24.73L206.82,83.3z M183.06,53.84l-6.26-4.82v6.21l6.26,4.82V53.84z M183.06,46.3l-6.26-4.82v6.21l6.26,4.82V46.3z M189.17,58.56
			l-5.29-4.11v6.21l5.29,4.11V58.56z M189.17,51.02l-5.29-4.11v6.21l5.29,4.11V51.02z M196.2,96.23V91.4l-3.9-2.98v4.82L196.2,96.23
			z M192.3,94.64v4.21l3.9,2.98v-4.21L192.3,94.64z M196.2,90.07V85.2l-3.9-2.98v4.87L196.2,90.07z M196.2,83.86V79.4l-3.9-2.98
			v4.46L196.2,83.86z M189.99,57.84l4.41,3.39v-6.16l-4.41-3.44V57.84z M189.99,65.39l4.41,3.39v-6.16l-4.41-3.44V65.39z
			 M197.89,114.8l-2.62-0.46l-0.67-0.67l-0.31-2.67l-0.46,2.62l-0.72,0.67l-2.67,0.36l2.67,0.41l0.67,0.72l0.31,2.67l0.46-2.67
			l0.72-0.67L197.89,114.8z M200.2,100.69l-3.13-2.41v4.21l3.13,2.41L200.2,100.69z M200.2,94.48l-3.13-2.41v4.82l3.13,2.46V94.48z
			 M200.2,88.33l-3.13-2.46v4.87l3.13,2.41V88.33z M200.2,82.48l-3.13-2.41v4.46l3.13,2.41V82.48z M204.41,103.92l-3.34-2.57v4.21
			l3.34,2.57V103.92z M204.41,97.72l-3.34-2.57v4.87l3.34,2.57V97.72z M204.41,91.56l-3.34-2.57v4.82l3.34,2.57V91.56z
			 M204.41,85.71l-3.34-2.57v4.46l3.34,2.57V85.71z M200.46,131.74l0.1-0.56c-0.97,0.56-2.05,1.03-3.08,1.54l2.31-0.31
			L200.46,131.74z M186.76,145.13l-2.57-0.46l-0.67-0.67l-0.31-2.67l-0.46,2.62l-0.67,0.67l-2.67,0.36l2.62,0.46l0.36,0.31
			c-28.02,3.49-59.22-3.13-80.61-26.17c27.04,25.91,67.48,25.97,95.55,13.19l2.41,0.41l0.67,0.72l0.36,2.67l0.46-2.67l0.67-0.67
			l2.67-0.31l-2.62-0.46l-0.67-0.67l-0.1-0.87c10.83-5.7,19.5-13.34,24.17-22.17l21.19-12.21
			C248.08,119.68,220.32,139.64,186.76,145.13z M226.32,126.76l-2.62-0.46l-0.67-0.72l-0.36-2.62l-0.46,2.62l-0.67,0.67l-2.67,0.31
			l2.67,0.46l0.62,0.72l0.36,2.67l0.46-2.67l0.67-0.67L226.32,126.76z M239.87,114.44l-2.62-0.46l-0.67-0.67l-0.36-2.67l-0.41,2.62
			l-0.72,0.67l-2.67,0.36l2.67,0.41l0.62,0.72l0.36,2.67l0.46-2.67l0.67-0.67L239.87,114.44z M184.14,145.54l2.05-0.31l-2,0.26
			L184.14,145.54z M236.74,84.84l0.87-0.82l3.34-0.41l-3.34-0.56l-0.82-0.87l-0.41-3.34l-0.56,3.28l-0.87,0.87l-3.34,0.41l3.28,0.56
			l0.87,0.87l0.41,3.34L236.74,84.84z"/>
	</g>
</g>
<g id="Layer_5">
</g>
<g id="Layer_6">
</g>
<g id="Layer_7">
</g>
<g id="Layer_8">
</g>
<g id="Layer_9">
</g>
<g id="Layer_10">
</g>
<g id="Layer_11">
</g>
<g id="Layer_12">
</g>
<g id="Layer_13">
</g>
<g id="Layer_14">
</g>
<g id="Layer_15">
</g>
</svg>
