<?xml version="1.0" encoding="utf-8"?>
<!-- Generator: Adobe Illustrator 27.8.1, SVG Export Plug-In . SVG Version: 6.00 Build 0)  -->
<svg version="1.1" xmlns="http://www.w3.org/2000/svg" xmlns:xlink="http://www.w3.org/1999/xlink" x="0px" y="0px"
	 viewBox="0 0 350 230" style="enable-background:new 0 0 350 230;" xml:space="preserve">
<style type="text/css">
	.st0{fill:#7BC7FF;}
	.st1{fill:#FFFFFF;}
	.st2{opacity:0.75;fill:#E1F3FF;enable-background:new    ;}
	.st3{fill:#DCE9F4;}
	.st4{fill:#012A5B;}
	.st5{fill:#A2BE3B;}
	.st6{fill:#0071A9;}
	.st7{fill-rule:evenodd;clip-rule:evenodd;fill:#00AEEF;}
	.st8{fill:#196AB4;}
	.st9{fill-rule:evenodd;clip-rule:evenodd;fill:#CEFF00;}
	.st10{fill-rule:evenodd;clip-rule:evenodd;fill:#00374C;}
	.st11{fill:#00CFFF;}
	.st12{fill:#00C605;}
	.st13{fill:none;}
	.st14{fill:#720041;}
	.st15{fill:#29ABE2;}
	.st16{fill:#29B574;}
	.st17{fill:#273A93;}
	.st18{fill:#7BC143;}
	.st19{fill:#019AC4;}
	.st20{fill:#A3CD39;}
	.st21{fill:#26A6D8;}
	.st22{fill:#00AEEF;}
	.st23{fill:#00B9F2;}
	.st24{fill:#8DC63F;}
	.st25{fill:#2A66B1;}
	.st26{fill:#5BC6F2;}
	.st27{fill:#4171B8;}
	.st28{fill:#4C015E;}
	.st29{fill:#00333F;}
</style>
<g id="Layer_1">
</g>
<g id="Layer_2">
</g>
<g id="Layer_3">
</g>
<g id="Layer_4">
</g>
<g id="Layer_5">
</g>
<g id="Layer_6">
</g>
<g id="Layer_7">
</g>
<g id="Layer_8">
</g>
<g id="Layer_9">
</g>
<g id="Layer_10">
</g>
<g id="Layer_11">
</g>
<g id="Layer_12">
</g>
<g id="Layer_13">
</g>
<g id="Layer_14">
</g>
<g id="Layer_15">
	<path class="st29" d="M131.34,106.2c3.67,0.03,6.68-2.92,6.71-6.59c0.03-3.67-2.92-6.68-6.59-6.71c-3.62-0.03-6.6,2.84-6.71,6.46
		h-0.07c-2.92-0.01-5.29,2.35-5.3,5.27c-0.01,2.92,2.35,5.29,5.27,5.3c2.4,0.01,4.5-1.6,5.12-3.91
		C130.29,106.13,130.82,106.2,131.34,106.2z M121.04,106v0.26c-0.26-0.53-0.39-1.11-0.39-1.7c0-2.24,1.8-4.07,4.04-4.11h0.07
		c0.04,0.08,0.07,0.17,0.07,0.26C122.57,101.5,121.05,103.62,121.04,106L121.04,106z M126.71,101.31v0.33
		c-0.34-0.67-0.52-1.4-0.52-2.15c0-2.81,2.28-5.09,5.09-5.09c0.02,0,0.04,0,0.07,0l1.04,0.13C129.1,95.1,126.7,97.97,126.71,101.31z
		 M137.15,89.63c2.63,0,4.76-2.13,4.76-4.76c0-2.63-2.13-4.76-4.76-4.76s-4.76,2.13-4.76,4.76
		C132.39,87.5,134.52,89.63,137.15,89.63L137.15,89.63z M137.15,81.16h0.78c-2.38,0.41-4.11,2.48-4.11,4.89v0.26
		c-0.2-0.5-0.31-1.03-0.33-1.57C133.53,82.75,135.16,81.16,137.15,81.16z M172.82,100.72c-0.03-2.19,1.55-4.08,3.72-4.43l-0.72-0.13
		c-1.84,0-3.33,1.49-3.33,3.33c0,0.02,0,0.04,0,0.07c0.01,0.47,0.12,0.94,0.33,1.37V100.72z M200.35,148.59
		c-0.46,2.09-2.22,16.7-2.09,24.39c-2.74-1.24-3.46-1.57-9.91-3.33c3.72,2.15,11.54,5.41,11.67,6.2c0.07-4.37,0.13-13.83,0.72-19.11
		c3.98,13.24,4.37,13.37,6.39,15.91c2.41-1.5,10.43-3.85,13.83-6.59c-3.26,1.37-10.83,3.13-12.85,4.43
		C204.52,164.57,200.41,151.98,200.35,148.59z M183.98,166.85c-2.93-0.98-9.85-3.98-14.35-8.67c9-5.28,12.39-9.39,16.04-16.89
		c-4.04,6.72-13.3,14.41-18.07,14.28c-3.78-3.33-4.43-5.74-6.78-10.89c14.74-0.2,19.3-5.87,20.61-10.11
		c-4.3,6.78-16.37,8.28-22.11,6.85c-1.43-3.46-1.96-8.8-2.48-12.59c10.5,2.28,21.52,3.33,27.72-3.07c5.09,4.17,18.78,8.09,24.65,7.5
		c0.13,3.2,0.33,5.61,3.65,9.39l0.39-4.63l3.72-40.83c1.31-0.17,2.6-0.47,3.85-0.91h0.13l0.52-0.26c1.66-1.09,2.12-3.31,1.03-4.97
		c-0.27-0.41-0.62-0.76-1.03-1.03l-0.52-0.33h-0.13c-1.74-0.55-3.53-0.92-5.35-1.11c-0.52-0.13,7.76-27.07,7.76-27.07
		c0-0.12,0.05-0.24,0.13-0.33c1.07-2.83-0.36-5.99-3.19-7.06c-0.04-0.02-0.09-0.03-0.14-0.05c-2.15-0.69-4.51,0.1-5.8,1.96
		c0.86-0.43,1.79-0.71,2.74-0.85c3.2-0.33,5.74,2.02,4.96,5.22L207,110.63c1.3,1.83,1.76,4.37,1.83,7.04
		c0.07,2.67,0.26,8.09,0.39,12.46c-5.74,0.52-18.52-3.13-23.15-6.91l7.04-10.17c1.5-2.22,3.26-4.04,5.35-4.96l6.13-20.67h-1.17
		c-6.2-0.39-13.63-0.59-21.59-0.59c-6.65,0-12.98,0.13-18.46,0.39c-3.13-18-6.39-35.61-8.93-48.52
		c-2.54-12.91-6.59-20.15-9.65-19.57s-4.3,7.37-1.43,21.72c2.54,12.65,6.13,29.61,9.98,47.09c-5.15,0.46-8.87,1.04-10.5,1.7h-0.13
		l-0.52,0.33c-1.66,1.09-2.12,3.31-1.03,4.97c0.27,0.41,0.62,0.76,1.03,1.03l0.52,0.26h0.13c1.22,0.44,2.49,0.75,3.78,0.91
		l5.8,63.13c0,2.22,10.04,4.04,23.41,4.43c2.74,1.57,8.74,4.57,9.78,4.5c0.72-5.61,5.61-22.04,7.43-27.72
		C188.74,149.11,186.39,160.79,183.98,166.85z M175.82,95.24c2.41-0.04,4.4,1.89,4.43,4.3c0.04,2.41-1.89,4.4-4.3,4.43
		c-2.41,0.04-4.4-1.89-4.43-4.3c0-0.02,0-0.04,0-0.06c-0.04-2.38,1.86-4.33,4.24-4.37C175.78,95.24,175.8,95.24,175.82,95.24z
		 M173.34,106.98c3.78-0.04,6.88,3,6.91,6.78c0.04,3.78-3,6.88-6.78,6.91c-3.78,0.04-6.88-3-6.91-6.78c0-0.04,0-0.09,0-0.13
		c-0.04-3.71,2.94-6.75,6.65-6.78C173.26,106.98,173.3,106.98,173.34,106.98z M151.95,103.92c-0.04-4.47,3.56-8.12,8.02-8.15
		c4.47-0.04,8.12,3.56,8.15,8.02s-3.56,8.12-8.02,8.15c-0.02,0-0.04,0-0.06,0C155.6,111.94,151.99,108.36,151.95,103.92z
		 M223.37,162.48c-5.67-3.2-17.15-11.87-19.76-22.76c2.61,14.02,10.89,19.57,20.15,24.85c2.57-3.1,4.86-6.41,6.85-9.91
		C227.61,157.79,225.91,160.13,223.37,162.48z M161.34,97.72l-1.3-0.13c-3.42-0.04-6.22,2.71-6.26,6.13c0,0.02,0,0.04,0,0.07
		c0.02,0.9,0.22,1.79,0.59,2.61v-0.33C154.37,101.96,157.3,98.45,161.34,97.72z M137.93,108.81c-4.75,0-8.61,3.85-8.61,8.61
		s3.85,8.61,8.61,8.61s8.61-3.85,8.61-8.61l0,0C146.54,112.66,142.69,108.81,137.93,108.81z M131.93,119.7v0.39
		c-0.39-0.88-0.59-1.84-0.59-2.8c0-3.65,2.94-6.62,6.59-6.65l1.43,0.13C135.07,111.58,131.95,115.32,131.93,119.7L131.93,119.7z
		 M168.58,115.92v-0.33c0.01-3.45,2.47-6.42,5.87-7.04l-1.11-0.13c-2.88-0.04-5.25,2.27-5.29,5.15
		C168.05,114.38,168.23,115.18,168.58,115.92z"/>
</g>
</svg>
