<?xml version="1.0" encoding="utf-8"?>
<!-- Generator: Adobe Illustrator 27.8.1, SVG Export Plug-In . SVG Version: 6.00 Build 0)  -->
<svg version="1.1" xmlns="http://www.w3.org/2000/svg" xmlns:xlink="http://www.w3.org/1999/xlink" x="0px" y="0px"
	 viewBox="0 0 350 230" style="enable-background:new 0 0 350 230;" xml:space="preserve">
<style type="text/css">
	.st0{fill:#7BC7FF;}
	.st1{fill:#FFFFFF;}
	.st2{opacity:0.75;fill:#E1F3FF;enable-background:new    ;}
	.st3{fill:#DCE9F4;}
	.st4{fill:#012A5B;}
	.st5{fill:#A2BE3B;}
	.st6{fill:#0071A9;}
	.st7{fill-rule:evenodd;clip-rule:evenodd;fill:#00AEEF;}
	.st8{fill:#196AB4;}
	.st9{fill-rule:evenodd;clip-rule:evenodd;fill:#CEFF00;}
	.st10{fill-rule:evenodd;clip-rule:evenodd;fill:#00374C;}
	.st11{fill:#00CFFF;}
	.st12{fill:#00C605;}
	.st13{fill:none;}
	.st14{fill:#720041;}
	.st15{fill:#29ABE2;}
	.st16{fill:#29B574;}
	.st17{fill:#273A93;}
	.st18{fill:#7BC143;}
	.st19{fill:#019AC4;}
	.st20{fill:#A3CD39;}
	.st21{fill:#26A6D8;}
	.st22{fill:#00AEEF;}
	.st23{fill:#00B9F2;}
	.st24{fill:#8DC63F;}
	.st25{fill:#2A66B1;}
	.st26{fill:#5BC6F2;}
	.st27{fill:#4171B8;}
	.st28{fill:#4C015E;}
	.st29{fill:#00333F;}
</style>
<g id="Layer_1">
</g>
<g id="Layer_2">
	<g>
		<path class="st5" d="M220.77,72.46v45.6l-3.12-3.12l-9.74-9.65V80.93l2.79,0.45l0.9,0.99l0.49,3.74l0.62-3.7l0.99-0.94l3.74-0.45
			l-3.7-0.66l-0.94-0.94l-0.45-3.74l-0.66,3.7l-0.94,0.94l-2.83,0.33V66.55L220.77,72.46z M187.32,63.71v21.03l-2.3-2.3l-0.82-0.82
			l-0.82,0.82l-0.99,0.94V66.96l-12.16-5.63v33.89l-22.68,22.14V66.3l5.59-2.59l17.09-7.93L187.32,63.71z M160.17,80.52l2.22-0.29
			l-2.18-0.37l-0.53-0.58l-0.29-2.22l-0.37,2.18l-0.58,0.58l-2.22,0.25l2.18,0.41l0.58,0.58l0.25,2.18l0.37-2.18L160.17,80.52z
			 M167.61,90.46l-2.18-0.37l-0.53-0.58l-0.29-2.18l-0.37,2.18l-0.58,0.53l-2.18,0.29l2.18,0.37l0.53,0.58l0.29,2.18l0.37-2.18
			l0.58-0.53L167.61,90.46z M137.98,116.05c-1.4-4.72-3.04-9-5.14-10.11c0.77-9.71,2.31-19.34,4.6-28.8
			c0.21-0.45,0.01-0.99-0.45-1.2s-0.99-0.01-1.2,0.45c-0.05,0.11-0.08,0.22-0.08,0.34c-2.31,9.56-3.85,19.28-4.6,29.09
			c-2.26,0.74-4.52,4.89-6.2,9.86L137.98,116.05z M124.47,117.04c-1.2,3.98-2.03,8.07-2.51,12.2l3.78-0.16
			c0.58-2.22,1.15-4.4,1.81-6.57c-0.33,2.14-0.58,4.35-0.82,6.53l2.75-0.12c0.21-2.22,0.41-4.48,0.7-6.7
			c0.03,2.22,0.11,4.44,0.25,6.66l3.08-0.12c-0.37-3-0.62-6-0.82-9.04c0.66,3.04,1.36,6.04,2.14,9l2.01-0.08
			c-0.25-2.18-0.45-4.31-0.62-6.49c0.49,2.18,1.03,4.31,1.6,6.45l3.33-0.16c-0.62-2.92-1.64-7.11-2.79-11.13L124.47,117.04z"/>
		<path class="st6" d="M194.14,91.48l-2.59-2.55v-1.77l2.59,1.52l4.03,2.38v4.4L194.14,91.48z M204.87,81.91l-11.22-6.61l-2.1-1.23
			V85.4l7.48,4.44h5.83V81.91z M191.56,61.04V72.3l10.27,6.08l3.04,1.77V68.93l-11.13-6.61L191.56,61.04z M179.03,38.24h12.53v7.85
			l11.34,6.7l1.97,1.19V43.54l-13.31-7.85v-0.08h-15.2v19.76l2.67,1.23V38.24z M220.77,119.71l-12.86-12.78l-1.89-1.93
			c-0.58,1.44-1.07-9.9-1.07-14.01h-5.59v7.35c-1.44-1.44-4.56-4.56-7.81-7.72l-4.23-4.23c-1.15-1.15-2.26-2.22-3.12-3.12
			l-1.81,1.77l-12.16,11.87l-22.68,22.1c-4.03,3.86-7.03,6.82-8.13,7.89c0.94-0.82,4.03-3.12,8.13-6.2l3.37-2.55l10.52-7.85
			l8.79-6.49l12.16-8.96l1.81-1.36l3.12,2.3l11.26,8.38l6.29,4.72l3.04,2.26l12.86,9.57c2.18,1.64,3.57,2.67,3.82,2.79
			L220.77,119.71z M178.41,116.71v4.48h4.48v-4.48H178.41L178.41,116.71z M184.86,122.91v4.48h4.48v-4.48H184.86z M178.41,122.91
			v4.48h4.48v-4.48H178.41z M187,116.71h-2.14v4.48h4.48v-4.48H187z M204.33,62.64l-0.74,0.7l-0.49,2.71l-0.33-2.75l-0.7-0.74
			l-2.71-0.45l2.75-0.33l0.74-0.7l0.45-2.75l0.33,2.75l0.7,0.74l0.53,0.08v-6.2l-10.19-6l-3.12-1.85v11.46l10.39,6.08l2.92,1.77
			v-4.6L204.33,62.64z M140.94,105.17l0.74-0.7l2.83-0.33l-2.79-0.49l-0.7-0.74l-0.37-2.83l-0.45,2.79l-0.78,0.74l-2.83,0.33
			l2.83,0.49l0.7,0.74l0.37,2.83L140.94,105.17z M154.38,56.15l0.49-0.49l1.93-0.25l-1.89-0.33l-0.49-0.49l-0.25-1.93l-0.33,1.93
			l-0.49,0.49l-1.93,0.21l1.93,0.33l0.45,0.49l0.25,1.93L154.38,56.15z M167.61,127.39c-0.29,4.64-0.58,4.93-5.22,5.22
			c4.64,0.33,4.93,0.62,5.22,5.26c0.33-4.64,0.62-4.93,5.26-5.26C168.22,132.32,167.93,132.03,167.61,127.39z M212.22,137.25
			c-0.21,2.75-0.37,2.92-3.12,3.12c2.75,0.16,2.92,0.33,3.12,3.08c0.16-2.75,0.33-2.92,3.08-3.08
			C212.55,140.17,212.39,140,212.22,137.25z M198.17,145.14c-0.21,2.75-0.37,2.92-3.12,3.08c2.75,0.21,2.92,0.37,3.12,3.12
			c0.16-2.75,0.33-2.92,3.12-3.12C198.5,148.06,198.34,147.89,198.17,145.14L198.17,145.14z M215.3,123.78
			c-0.16,2.75-0.33,2.92-3.08,3.12c2.75,0.16,2.92,0.33,3.08,3.08c0.21-2.75,0.37-2.92,3.12-3.08
			C215.67,126.69,215.51,126.53,215.3,123.78z M228.04,116.13c-22.64,46.46-98.23,44.99-105.34,14.42l17.87-0.82
			C158.9,148.18,208.69,150.52,228.04,116.13L228.04,116.13z M137.78,141.52c-2.75-0.21-2.92-0.33-3.12-3.12
			c-0.16,2.79-0.33,2.92-3.08,3.12c2.75,0.21,2.92,0.33,3.08,3.12C134.86,141.85,135.03,141.73,137.78,141.52z M150.64,140.37
			c-2.75-0.21-2.92-0.37-3.08-3.12c-0.21,2.75-0.37,2.92-3.12,3.12c2.75,0.16,2.92,0.33,3.12,3.08
			C147.72,140.7,147.89,140.54,150.64,140.37L150.64,140.37z M154.54,148.22c-2.75-0.16-2.92-0.33-3.12-3.08
			c-0.16,2.75-0.33,2.92-3.08,3.08c2.75,0.21,2.92,0.37,3.08,3.12C151.62,148.59,151.79,148.43,154.54,148.22L154.54,148.22z
			 M165.55,146.58c-2.79-0.21-2.92-0.33-3.12-3.12c-0.21,2.79-0.37,2.92-3.12,3.12c2.75,0.21,2.92,0.37,3.12,3.12
			C162.63,146.95,162.76,146.78,165.55,146.58L165.55,146.58z M179.48,147.77c-2.75-0.21-2.92-0.37-3.12-3.12
			c-0.16,2.75-0.33,2.92-3.08,3.12c2.75,0.16,2.92,0.33,3.08,3.08C176.56,148.1,176.73,147.93,179.48,147.77L179.48,147.77z"/>
	</g>
</g>
<g id="Layer_3">
</g>
<g id="Layer_4">
</g>
<g id="Layer_5">
</g>
<g id="Layer_6">
</g>
<g id="Layer_7">
</g>
<g id="Layer_8">
</g>
<g id="Layer_9">
</g>
<g id="Layer_10">
</g>
<g id="Layer_11">
</g>
<g id="Layer_12">
</g>
<g id="Layer_13">
</g>
<g id="Layer_14">
</g>
<g id="Layer_15">
</g>
</svg>
