<?xml version="1.0" encoding="utf-8"?>
<!-- Generator: Adobe Illustrator 27.8.1, SVG Export Plug-In . SVG Version: 6.00 Build 0)  -->
<svg version="1.1" xmlns="http://www.w3.org/2000/svg" xmlns:xlink="http://www.w3.org/1999/xlink" x="0px" y="0px"
	 viewBox="0 0 350 230" style="enable-background:new 0 0 350 230;" xml:space="preserve">
<style type="text/css">
	.st0{fill:#7BC7FF;}
	.st1{fill:#FFFFFF;}
	.st2{opacity:0.75;fill:#E1F3FF;enable-background:new    ;}
	.st3{fill:#DCE9F4;}
	.st4{fill:#012A5B;}
	.st5{fill:#A2BE3B;}
	.st6{fill:#0071A9;}
	.st7{fill-rule:evenodd;clip-rule:evenodd;fill:#00AEEF;}
	.st8{fill:#196AB4;}
	.st9{fill-rule:evenodd;clip-rule:evenodd;fill:#CEFF00;}
	.st10{fill-rule:evenodd;clip-rule:evenodd;fill:#00374C;}
	.st11{fill:#00CFFF;}
	.st12{fill:#00C605;}
	.st13{fill:none;}
	.st14{fill:#720041;}
	.st15{fill:#29ABE2;}
	.st16{fill:#29B574;}
	.st17{fill:#273A93;}
	.st18{fill:#7BC143;}
	.st19{fill:#019AC4;}
	.st20{fill:#A3CD39;}
	.st21{fill:#26A6D8;}
	.st22{fill:#00AEEF;}
	.st23{fill:#00B9F2;}
	.st24{fill:#8DC63F;}
	.st25{fill:#2A66B1;}
	.st26{fill:#5BC6F2;}
	.st27{fill:#4171B8;}
	.st28{fill:#4C015E;}
	.st29{fill:#00333F;}
</style>
<g id="Layer_1">
</g>
<g id="Layer_2">
</g>
<g id="Layer_3">
</g>
<g id="Layer_4">
</g>
<g id="Layer_5">
</g>
<g id="Layer_6">
</g>
<g id="Layer_7">
</g>
<g id="Layer_8">
</g>
<g id="Layer_9">
	<path class="st22" d="M213.51,60.66l-10.1,20.7c3.25,1.91,5.58,5.07,6.44,8.74c0.11,0.31-0.06,0.64-0.36,0.75
		c-0.14,0.05-0.29,0.04-0.42-0.01l-23.19-7.08c-0.34-0.08-0.55-0.42-0.47-0.76c0.03-0.12,0.09-0.23,0.18-0.31
		c3.02-2.8,7.15-4.1,11.23-3.51l28.26-54.18L201.5,52.46c-28.55-14.63-63.55-3.35-78.19,25.19s-3.35,63.55,25.19,78.19
		c28.55,14.63,63.55,3.35,78.19-25.19C238.79,107.04,233.37,78.24,213.51,60.66L213.51,60.66z M172.17,80.67
		c-1.94-1.63-4.83-1.39-6.47,0.55c-1.45,1.72-1.44,4.24,0.02,5.94c1.68,1.64,4.32,1.77,6.15,0.29c-2.11,1.77-5.22,1.65-7.18-0.29
		c-2.08-2.04-2.1-5.38-0.06-7.46c0,0,0.01-0.01,0.01-0.01c1.95-2.17,5.3-2.34,7.47-0.39s2.34,5.3,0.39,7.47
		C173.98,84.95,173.84,82.31,172.17,80.67z M161.48,60.41c2.66-2.75,7.05-2.83,9.8-0.17c2.63,2.55,2.83,6.7,0.45,9.49
		c2.06-2.56,1.66-6.31-0.9-8.37c-2.56-2.06-6.31-1.66-8.37,0.9c-1.91,2.37-1.72,5.81,0.44,7.96c2.16,2.15,5.61,2.3,7.96,0.34
		c-2.73,2.31-6.77,2.16-9.32-0.34C158.83,67.52,158.8,63.15,161.48,60.41z M141.27,83.99c3.61-3.98,9.76-4.27,13.74-0.66
		c3.98,3.61,4.27,9.76,0.66,13.74l0,0c2.94-3.62,2.4-8.94-1.22-11.88c-3.62-2.94-8.94-2.4-11.88,1.22
		c-2.94,3.62-2.4,8.94,1.22,11.88c3.1,2.53,7.56,2.53,10.66,0c-3.95,3.64-10.1,3.39-13.74-0.56
		C137.07,93.78,137.32,87.63,141.27,83.99z M204.77,141.54l-5.61,1.22v-7.71l-3.08,7.91c0,0-6.74,1.71-15.57,0
		c0,0,4.15-9.23,4.64-16.3c0,0-4.59,11.91-10.1,15.42c0,0-13.08-3.32-18.74-6.88c0,0,7.47-7.22,11.28-11.96
		c0,0-11.28,8.4-15.91,9.23c0,0-9.71-5.56-12.11-8.44c0,0,6.49-3.42,9.62-5.61c0,0-9.66,3.12-12.59,3.08c0,0-7.08-5.81-8.2-9.62
		c11.85,3.19,31.11-5.27,57.79-25.38l4.64,1.42l-4,4.49l6.39-3.76l2.88,0.88l-3.47,11.37l5.91-10.64l1.95,0.59l2.1,8.05l0.73-7.18
		l2.25,0.68C209.12,105.17,209.95,120.6,204.77,141.54z M179.19,39.91c1.9-2.28,1.59-5.66-0.68-7.56c-2.28-1.9-5.66-1.59-7.56,0.68
		c-1.9,2.28-1.59,5.66,0.68,7.56c1.99,1.66,4.89,1.66,6.88,0c-2.05,1.49-4.92,1.04-6.41-1c-1.27-1.74-1.16-4.12,0.26-5.73
		c1.86-1.72,4.77-1.59,6.48,0.27C180.32,35.73,180.46,38.15,179.19,39.91z M194.23,34.4c1.74-2.09,1.45-5.2-0.64-6.94
		s-5.2-1.45-6.94,0.64c-1.63,1.96-1.49,4.84,0.31,6.64c1.83,1.78,4.71,1.91,6.69,0.29c-1.74,1.58-4.43,1.45-6-0.29
		c-1.58-1.74-1.45-4.43,0.29-6c1.61-1.67,4.26-1.72,5.94-0.12c0.02,0.02,0.05,0.04,0.07,0.07C195.49,30.23,195.62,32.7,194.23,34.4z
		"/>
</g>
<g id="Layer_10">
</g>
<g id="Layer_11">
</g>
<g id="Layer_12">
</g>
<g id="Layer_13">
</g>
<g id="Layer_14">
</g>
<g id="Layer_15">
</g>
</svg>
