<?xml version="1.0" encoding="utf-8"?>
<!-- Generator: Adobe Illustrator 27.8.1, SVG Export Plug-In . SVG Version: 6.00 Build 0)  -->
<svg version="1.1" xmlns="http://www.w3.org/2000/svg" xmlns:xlink="http://www.w3.org/1999/xlink" x="0px" y="0px"
	 viewBox="0 0 350 230" style="enable-background:new 0 0 350 230;" xml:space="preserve">
<style type="text/css">
	.st0{fill:#7BC7FF;}
	.st1{fill:#FFFFFF;}
	.st2{opacity:0.75;fill:#E1F3FF;enable-background:new    ;}
	.st3{fill:#DCE9F4;}
	.st4{fill:#012A5B;}
	.st5{fill:#A2BE3B;}
	.st6{fill:#0071A9;}
	.st7{fill-rule:evenodd;clip-rule:evenodd;fill:#00AEEF;}
	.st8{fill:#196AB4;}
	.st9{fill-rule:evenodd;clip-rule:evenodd;fill:#CEFF00;}
	.st10{fill-rule:evenodd;clip-rule:evenodd;fill:#00374C;}
	.st11{fill:#00CFFF;}
	.st12{fill:#00C605;}
	.st13{fill:none;}
	.st14{fill:#720041;}
	.st15{fill:#29ABE2;}
	.st16{fill:#29B574;}
	.st17{fill:#273A93;}
	.st18{fill:#7BC143;}
	.st19{fill:#019AC4;}
	.st20{fill:#A3CD39;}
	.st21{fill:#26A6D8;}
	.st22{fill:#00AEEF;}
	.st23{fill:#00B9F2;}
	.st24{fill:#8DC63F;}
	.st25{fill:#2A66B1;}
	.st26{fill:#5BC6F2;}
	.st27{fill:#4171B8;}
	.st28{fill:#4C015E;}
	.st29{fill:#00333F;}
</style>
<g id="Layer_1">
</g>
<g id="Layer_2">
</g>
<g id="Layer_3">
</g>
<g id="Layer_4">
</g>
<g id="Layer_5">
</g>
<g id="Layer_6">
</g>
<g id="Layer_7">
</g>
<g id="Layer_8">
</g>
<g id="Layer_9">
</g>
<g id="Layer_10">
	<g>
		<path class="st23" d="M217.81,54.06V33.41h-15.13v9.94l-25.85-18.28l-28.66,20.27l-35.5,25.12l-0.63,0.44l1.79,0.87l8.44,3.93
			v2.96c1.45,0.97,2.91,1.84,4.46,2.72v-3.59l5.43,2.52v4.02l6.98,3.44c9.21,4.46,18.77,9.12,25.7,16.05
			c5.38,5.38,9.12,11.64,10.43,18.96c8.73-7.47,21.39-7.76,32.3-8.05c4.85-0.1,9.55-0.24,13.92-0.87V80.3l5.38-2.52v34.96
			c1.48-0.42,2.92-0.96,4.32-1.6l0.19-0.1V75.69l10.23-4.8L217.81,54.06z M174.6,94.31h-9.7v-9.65h9.7V94.31z M174.6,80.15h-9.7
			V70.5h9.7V80.15z M188.76,94.31h-9.7v-9.65h9.7V94.31z M188.76,80.15h-9.7V70.5h9.7V80.15z M205.15,97.22l-2.38,7.86l-2.33-7.86
			l-7.86-2.38l7.86-2.33l2.33-7.86l2.38,7.86l7.86,2.33L205.15,97.22z M209.28,75.01l-1.12,3.73l-1.12-3.73l-3.73-1.12l3.73-1.12
			l1.12-3.69l1.12,3.69l3.73,1.12L209.28,75.01z M229.01,71.86l-23.52-16.63l-28.66-20.32l-28.66,20.32l-23.57,16.63l-3.73-1.75
			l27.3-19.3l28.66-20.27l28.66,20.27l1.65,1.16V37.87h6.21v18.52l19.4,13.72L229.01,71.86z"/>
		<polygon class="st1" points="191.24,98.63 192.79,103.87 198.03,105.42 192.79,107.02 191.24,112.21 189.64,107.02 184.45,105.42 
			189.64,103.87 		"/>
		<path class="st24" d="M232.75,114.39c-12.17,46.6-50,25.36-64.16,48.59c1.75-17.41,13.43-30.55,44.42-35.45
			c-17.55,0.34-30.89,4.02-44.03,20.71c-0.24,0.82-0.48,1.65-0.78,2.52l-0.29-1.21c-0.1,0.17-0.21,0.34-0.34,0.48
			c0.05-0.44,0.15-0.87,0.19-1.26c-6.55-27.79-20.51-39.62-41.61-49.71c34.38,22.79,41.22,44.91,33.75,66.63
			c-4.27-35.5-61.05-30.75-50.14-93.11c19.2,22.84,65.27,21.48,61.93,61.68C183.24,109.83,213.06,123.75,232.75,114.39z"/>
	</g>
</g>
<g id="Layer_11">
</g>
<g id="Layer_12">
</g>
<g id="Layer_13">
</g>
<g id="Layer_14">
</g>
<g id="Layer_15">
</g>
</svg>
