<?xml version="1.0" encoding="utf-8"?>
<!-- Generator: Adobe Illustrator 27.8.1, SVG Export Plug-In . SVG Version: 6.00 Build 0)  -->
<svg version="1.1" xmlns="http://www.w3.org/2000/svg" xmlns:xlink="http://www.w3.org/1999/xlink" x="0px" y="0px"
	 viewBox="0 0 350 230" style="enable-background:new 0 0 350 230;" xml:space="preserve">
<style type="text/css">
	.st0{fill:#B50004;}
	.st1{fill:#00A651;}
	.st2{fill:#18466B;}
	.st3{fill:#FFFFFF;}
	.st4{fill:#26AFDF;}
	.st5{fill:#767676;}
	.st6{fill:#00184F;}
	.st7{fill:#009CC6;}
	.st8{fill:#A97C50;}
	.st9{fill:#603913;}
	.st10{fill:#00183A;}
	.st11{fill:#5B5B5B;}
	.st12{fill:#E50000;}
	.st13{fill:#163A7A;}
	.st14{fill:#683600;}
	.st15{fill:#02025E;}
	.st16{fill:#F7941D;}
	.st17{fill:#245EB2;}
	.st18{fill:#00187C;}
	.st19{fill:#0099A5;}
	.st20{fill:#4F2400;}
	.st21{fill:#002F33;}
	.st22{display:none;fill:#4F2400;}
	.st23{font-family:'GramophoneNF';}
	.st24{font-size:25px;}
	.st25{fill:#809103;}
	.st26{fill:#7C2600;}
	.st27{fill:#FAD974;}
	.st28{fill:#E65100;}
	.st29{fill:#29ABE2;}
	.st30{fill:#0071BC;}
	.st31{fill:#0C2E3A;}
</style>
<g id="Logo1">
</g>
<g id="Logo2">
</g>
<g id="Logo3">
</g>
<g id="Logo4">
</g>
<g id="Logo5">
</g>
<g id="Logo6">
</g>
<g id="Logo7">
</g>
<g id="Logo8">
</g>
<g id="Logo9">
</g>
<g id="Logo10">
</g>
<g id="Logo11">
</g>
<g id="Logo12">
	<g>
		<path class="st20" d="M190.76,88.39v59.18h63.27V88.39H190.76z M202.67,122.97h-9.94v-9.82h9.94V122.97z M240.92,58.8h11.18v15.63
			L267.3,84h-76.58V35.97l50.2,31.44V58.8z"/>
		<path class="st21" d="M267.9,160.48c-25.8,0-51.32,0-77.08,0c0-1.54,0-2.96,0-4.68c24.03,0,47.91,0,72.21,0
			c0-23.67,0-43.59,0-67.28c1.82,0,3.23,0,4.87,0C267.9,113.51,267.9,135.07,267.9,160.48z M211.83,154.38
			c-2.64-0.38-5.29-0.74-7.93-1.07c-37.84-4.79-75.66-4.87-113.72-0.48c-2.69,0.32-5.39,0.65-8.09,1.01
			c1.49-0.33,2.96-0.67,4.45-1.02c4.22-0.98,8.43-1.98,12.69-2.75c5.77-1.03,11.62-1.64,17.82-2.48V84.12h19.41V40.39
			c0,0,19.84,15.64,19.86,15.64c0.01,0.01,0.02,0.02,0.03,0.03c0.05,0.07,0.1,0.14,0.17,0.2c0.03,0.03,0.06,0.06,0.08,0.1
			c1.74,2.63,0.56,5.89,0.93,8.8c0.07,0.52,0.19,1.03,0.37,1.52c0.49,1.31,1.6,3.5,4,5.51c0.15,0.13,0.32,0.26,0.49,0.4l0.39,0.3
			l7.38,5.66l0.05,0.04l3.77,2.89c0,0,0.01,0.01,0.03,0.02c0.46,0.32,0.85,0.64,1.19,0.98c0.08,0.08,0.15,0.16,0.24,0.25
			c0.65,0.78,1.33,1.95,1.59,3.62c0.08,0.55,0.1,1.12,0.1,1.74v0.09c-0.09,18.5-0.05,37-0.05,55.49v3.9
			c10.88,1.6,21.65,2.35,31.83,5.75C209.91,153.65,210.87,154,211.83,154.38z M136.44,85.6h-17.32v60.81
			c6.05-0.65,11.83-1.09,17.32-1.35V85.6z M155.84,91.39c-0.01-10.51-0.01-21.01-0.03-31.52c0-0.95-0.28-2.24-0.93-2.78
			c-5.28-4.42-10.68-8.7-16.5-13.38v101.27c6.16-0.26,11.97-0.31,17.4-0.17c0.02-0.22,0.03-0.43,0.03-0.64
			c0.01-17.58,0.02-35.17,0.02-52.75V91.39z M175.32,90.28c0.05-4.06-0.89-6.85-4.39-9.2c-4.43-2.98-8.43-6.59-13.01-10.24v74.03
			c6.29,0.19,12.08,0.6,17.31,1.15v-3.53C175.23,125.09,175.1,107.68,175.32,90.28z"/>
		<path class="st3" d="M155.84,91.39v0.03c0,17.58-0.01,35.17-0.02,52.75c0,0.21-0.01,0.42-0.03,0.64
			c-5.43-0.13-11.24-0.09-17.4,0.17V43.71c5.82,4.68,11.22,8.96,16.5,13.38c0.65,0.54,0.93,1.83,0.93,2.78
			C155.83,70.38,155.84,80.88,155.84,91.39z M175.32,90.28c0.05-4.06-0.89-6.85-4.39-9.2c-4.43-2.98-8.43-6.59-13.01-10.24v74.03
			c6.29,0.19,12.08,0.6,17.31,1.15v-3.53C175.23,125.09,175.1,107.68,175.32,90.28z M119.12,85.6v60.81
			c6.05-0.65,11.83-1.09,17.32-1.35V85.6H119.12z M202.67,122.97c0-3.45,0-6.6,0-9.82c-3.42,0-6.58,0-9.94,0c0,3.38,0,6.54,0,9.82
			C196.19,122.97,199.42,122.97,202.67,122.97z M202.67,111.87c0-3.45,0-6.6,0-9.82c-3.42,0-6.58,0-9.94,0c0,3.38,0,6.54,0,9.82
			C196.19,111.87,199.42,111.87,202.67,111.87z"/>
	</g>
	<text transform="matrix(1 0 0 1 23.8149 186.4824)" class="st22 st23 st24">Construction &amp; Handyman</text>
</g>
<g id="Logo13">
</g>
<g id="Layer_14">
</g>
<g id="Layer_15">
</g>
</svg>
