<?xml version="1.0" encoding="utf-8"?>
<!-- Generator: Adobe Illustrator 27.8.1, SVG Export Plug-In . SVG Version: 6.00 Build 0)  -->
<svg version="1.1" xmlns="http://www.w3.org/2000/svg" xmlns:xlink="http://www.w3.org/1999/xlink" x="0px" y="0px"
	 viewBox="0 0 350 230" style="enable-background:new 0 0 350 230;" xml:space="preserve">
<style type="text/css">
	.st0{fill:#B50004;}
	.st1{fill:#00A651;}
	.st2{display:none;fill:#B50004;}
	.st3{font-family:'PlayfairDisplay-Regular';}
	.st4{font-size:20px;}
	.st5{fill:#18466B;}
	.st6{fill:#FFFFFF;}
	.st7{fill:#26AFDF;}
	.st8{fill:#767676;}
	.st9{fill:#00184F;}
	.st10{fill:#009CC6;}
	.st11{fill:#A97C50;}
	.st12{fill:#603913;}
	.st13{fill:#00183A;}
	.st14{fill:#5B5B5B;}
	.st15{fill:#E50000;}
	.st16{fill:#163A7A;}
	.st17{fill:#683600;}
	.st18{fill:#02025E;}
	.st19{fill:#F7941D;}
	.st20{fill:#245EB2;}
	.st21{fill:#00187C;}
	.st22{fill:#0099A5;}
	.st23{fill:#4F2400;}
	.st24{fill:#002F33;}
	.st25{fill:#809103;}
	.st26{fill:#7C2600;}
	.st27{fill:#FAD974;}
	.st28{fill:#E65100;}
	.st29{fill:#29ABE2;}
	.st30{fill:#0071BC;}
	.st31{fill:#0C2E3A;}
</style>
<g id="Logo1">
	<path class="st0" d="M157.13,142.47c0-3.19,0-6.29,0-9.62c3.3,0,6.38,0,9.67,0c0,3.17,0,6.16,0,9.62
		C163.79,142.47,160.67,142.47,157.13,142.47z M166.84,154.34c0-3.35,0-6.45,0-9.79c-3.27,0-6.37,0-9.7,0c0,3.28,0,6.39,0,9.79
		C160.33,154.34,163.51,154.34,166.84,154.34z M178.33,144.63c-3.45,0-6.54,0-9.59,0c0,3.41,0,6.51,0,9.75c3.37,0,6.46,0,9.59,0
		C178.33,150.94,178.33,147.78,178.33,144.63z M178.49,132.94c-3.41,0-6.6,0-9.76,0c0,3.42,0,6.52,0,9.8c3.26,0,6.26,0,9.76,0
		C178.49,139.32,178.49,136.21,178.49,132.94z M144.65,93.37V69.61l-31.22,6.22v47.28L144.65,93.37z M219.94,123.11V75.83
		l-31.22-6.22v23.76L219.94,123.11z M151.17,85.77l15.67-14.9l16.03,14.9V68.93h-31.71V85.77z"/>
	<path class="st1" d="M250.96,77.77c-5.57-8.16-13.51-13.42-22.16-17.66c-16.15-7.91-33.42-11.45-51.25-12.54
		c-23.18-1.41-45.82,1.16-67.43,10.09c-10.94,4.52-21.13,10.34-27.87,20.58c-4.96,7.52-5.82,15.6-1.05,23.45
		c6.26,10.3,16.69,14.71,27.84,18.13c-0.39-1.5-1.12-2.76-2.19-3.51c-4.28-2.97-9.01-5.38-12.94-8.74
		c-12.17-10.4-11.26-21.83,2.71-29.72c6.58-3.71,13.81-6.76,21.12-8.6c31.41-7.93,63.06-7.9,94.65-0.88
		c10.48,2.34,20.7,5.71,29.06,12.91c7.96,6.85,8.81,15.13,1.44,22.56c-4.75,4.8-10.87,8.23-16.31,12.36
		c-1.06,0.81-1.82,2.02-2.73,3.05c0.39,0.35,0.77,0.71,1.15,1.06c8.92-3.14,17.43-7.04,24.03-14.14
		C256.72,97.9,257.37,87.16,250.96,77.77z M169.56,103.25c-0.81-0.8-1.68-1.54-2.87-2.63l-55.86,54.14l-3.19-0.01h-1l-0.09-0.01
		c-4.9-0.22-9.82-0.05-16-0.05c25.77-25.04,50.73-49.29,76.12-73.96c25.41,24.64,50.42,48.91,76.23,73.93h-20.96l-12.28-12.56
		L169.56,103.25z"/>
	<text transform="matrix(1 0 0 1 53.1299 177.9678)" class="st2 st3 st4">Construction &amp; Handyman</text>
</g>
<g id="Logo2">
</g>
<g id="Logo3">
</g>
<g id="Logo4">
</g>
<g id="Logo5">
</g>
<g id="Logo6">
</g>
<g id="Logo7">
</g>
<g id="Logo8">
</g>
<g id="Logo9">
</g>
<g id="Logo10">
</g>
<g id="Logo11">
</g>
<g id="Logo12">
</g>
<g id="Logo13">
</g>
<g id="Layer_14">
</g>
<g id="Layer_15">
</g>
</svg>
