<?xml version="1.0" encoding="utf-8"?>
<!-- Generator: Adobe Illustrator 27.8.1, SVG Export Plug-In . SVG Version: 6.00 Build 0)  -->
<svg version="1.1" xmlns="http://www.w3.org/2000/svg" xmlns:xlink="http://www.w3.org/1999/xlink" x="0px" y="0px"
	 viewBox="0 0 350 230" style="enable-background:new 0 0 350 230;" xml:space="preserve">
<style type="text/css">
	.st0{fill:#B50004;}
	.st1{fill:#00A651;}
	.st2{fill:#18466B;}
	.st3{fill:#FFFFFF;}
	.st4{fill:#26AFDF;}
	.st5{fill:#767676;}
	.st6{display:none;fill:#26AFDF;}
	.st7{font-family:'VintageCulture-Regular';}
	.st8{font-size:20px;}
	.st9{fill:#00184F;}
	.st10{fill:#009CC6;}
	.st11{fill:#A97C50;}
	.st12{fill:#603913;}
	.st13{fill:#00183A;}
	.st14{fill:#5B5B5B;}
	.st15{fill:#E50000;}
	.st16{fill:#163A7A;}
	.st17{fill:#683600;}
	.st18{fill:#02025E;}
	.st19{fill:#F7941D;}
	.st20{fill:#245EB2;}
	.st21{fill:#00187C;}
	.st22{fill:#0099A5;}
	.st23{fill:#4F2400;}
	.st24{fill:#002F33;}
	.st25{fill:#809103;}
	.st26{fill:#7C2600;}
	.st27{fill:#FAD974;}
	.st28{fill:#E65100;}
	.st29{fill:#29ABE2;}
	.st30{fill:#0071BC;}
	.st31{fill:#0C2E3A;}
</style>
<g id="Logo1">
</g>
<g id="Logo2">
</g>
<g id="Logo3">
	<g>
		<path class="st2" d="M186.48,165.79c-1.81,4.64-5.81,5.72-11.48,3.09c-1.23,4.93-3.27,5.89-7.99,3.91
			c-9.55-3.99-17.27-10.84-25.87-16.31c-6.1-3.88-8.27-8.39-7.7-15.53c0.69-8.69,0.21-17.47,0.13-26.22
			c-0.02-1.85,0.24-2.79,2.42-3.08c4.93-0.66,9.07-3.34,13.21-5.9c0.9-0.55,1.89-1.6,2.9-0.54c1.11,1.17-0.33,1.95-0.88,2.73
			c-2.81,3.97-5.64,7.92-8.6,11.78c-1.13,1.47-0.83,2.22,0.47,3.38c6.73,5.92,12.95,5.96,19.54-0.13c0.7-0.65,1.4-1.09,2.3-1.22
			c2.2-0.3,4.24-1.08,6.18-2.08c1.82-0.94,2.45-0.76,3.23,1.43c2.05,5.77,6.11,9.94,11.91,12.13c1.67,0.63,2.92,1.55,4.03,2.88
			c5.04,6,10.14,11.95,15.19,17.94c1.3,1.54,3.34,2.97,2.13,5.38c-1.17,2.32-3.47,3.57-5.9,3.33c-2.96-0.29-5.01-0.4-7,2.68
			C192.88,168.26,189.97,167.9,186.48,165.79z M241.58,145.11v-25.4c0-6.54-5.35-11.9-11.9-11.9h0c-6.54,0-11.9,5.35-11.9,11.9v25.4
			c0,6.54,5.35,11.9,11.9,11.9h0C236.23,157,241.58,151.65,241.58,145.11z"/>
		<path class="st0" d="M215.71,131.78c0,5.66,0,11.32,0,16.99c0,2.1-3.74,6.1-5.77,6.15c-1.1,0.03-1.4-0.99-1.95-1.64
			c-5.6-6.57-11.17-13.17-16.76-19.76c-0.83-0.98-1.7-1.78-3.05-2.21c-6.98-2.2-11.16-7.02-12.31-14.23
			c-0.33-2.04-0.79-2.4-2.48-1.32c-3.04,1.94-6.28,3.42-9.92,3.75c-1.28,0.12-1.83,1.01-2.56,1.8c-4.19,4.53-10.03,5.02-14.68,1.37
			c-1.28-1.01-1.54-1.75-0.49-3.11c1.94-2.51,4.06-4.98,5.48-7.78c3.53-6.96,10.47-8.06,16.73-10.56
			c7.35-2.94,14.13-1.93,20.81,1.88c3.53,2.01,7.15,3.89,10.82,5.64c3.99,1.89,8.22,2.96,12.68,2.78c2.57-0.1,3.65,0.7,3.52,3.56
			C215.53,120.65,215.71,126.22,215.71,131.78z M132.21,145.11v-25.4c0-6.54-5.35-11.9-11.9-11.9h0c-6.54,0-11.9,5.35-11.9,11.9
			v25.4c0,6.54,5.35,11.9,11.9,11.9h0C126.86,157,132.21,151.65,132.21,145.11z"/>
		<path class="st4" d="M162.56,91.95c0-1.01,0-1.98,0-2.94c0-17.5,0.04-34.99-0.04-52.49c-0.01-2,0.56-3.27,2.21-4.42
			c6.91-4.86,13.72-9.85,20.57-14.78c0.47-0.34,1.01-0.59,1.79-1.05c0,25.31,0,50.37,0,75.69
			C179.02,91.95,170.95,91.95,162.56,91.95z M193.12,52.28c-0.61,0.45-0.85,1.74-0.86,2.64c-0.06,11.83,0,23.65-0.09,35.48
			c-0.02,2.13,0.9,2.71,2.78,2.87c2.56,0.23,5.13,0.58,7.66,1.06c4.61,0.89,9.2,1.91,13.96,2.91c0-20.63,0-40.99,0-61.97
			C208.49,41.1,200.76,46.63,193.12,52.28z M133.44,97.15c7.49-1.39,14.78-2.76,22.07-4.1c1.51-0.28,2.1-1.01,2.09-2.63
			c-0.07-8.14,0.03-16.28-0.06-24.42c-0.01-1.05-0.5-2.48-1.27-3.06c-7.42-5.63-14.96-11.12-22.82-16.92
			C133.44,63.44,133.44,80.42,133.44,97.15z"/>
	</g>
	<text transform="matrix(1 0 0 1 26.6917 192.1246)" class="st6 st7 st8">Construction &amp; Handyman</text>
</g>
<g id="Logo4">
</g>
<g id="Logo5">
</g>
<g id="Logo6">
</g>
<g id="Logo7">
</g>
<g id="Logo8">
</g>
<g id="Logo9">
</g>
<g id="Logo10">
</g>
<g id="Logo11">
</g>
<g id="Logo12">
</g>
<g id="Logo13">
</g>
<g id="Layer_14">
</g>
<g id="Layer_15">
</g>
</svg>
