<?xml version="1.0" encoding="utf-8"?>
<!-- Generator: Adobe Illustrator 27.8.1, SVG Export Plug-In . SVG Version: 6.00 Build 0)  -->
<svg version="1.1" xmlns="http://www.w3.org/2000/svg" xmlns:xlink="http://www.w3.org/1999/xlink" x="0px" y="0px"
	 viewBox="0 0 350 230" style="enable-background:new 0 0 350 230;" xml:space="preserve">
<style type="text/css">
	.st0{fill:#B50004;}
	.st1{fill:#00A651;}
	.st2{fill:#18466B;}
	.st3{fill:#FFFFFF;}
	.st4{fill:#26AFDF;}
	.st5{fill:#767676;}
	.st6{display:none;fill:#18466B;}
	.st7{font-family:'VintageCulture-Regular';}
	.st8{font-size:20px;}
	.st9{fill:#00184F;}
	.st10{fill:#009CC6;}
	.st11{fill:#A97C50;}
	.st12{fill:#603913;}
	.st13{fill:#00183A;}
	.st14{fill:#5B5B5B;}
	.st15{fill:#E50000;}
	.st16{fill:#163A7A;}
	.st17{fill:#683600;}
	.st18{fill:#02025E;}
	.st19{fill:#F7941D;}
	.st20{fill:#245EB2;}
	.st21{fill:#00187C;}
	.st22{fill:#0099A5;}
	.st23{fill:#4F2400;}
	.st24{fill:#002F33;}
	.st25{fill:#809103;}
	.st26{fill:#7C2600;}
	.st27{fill:#FAD974;}
	.st28{fill:#E65100;}
	.st29{fill:#29ABE2;}
	.st30{fill:#0071BC;}
	.st31{fill:#0C2E3A;}
</style>
<g id="Logo1">
</g>
<g id="Logo2">
	<g>
		<path class="st2" d="M203.39,168.7c-6.92,0-13.14,0-19.94,0c2.23-4.66,4.28-8.93,6.32-13.19c-0.25-0.39-0.51-0.79-0.76-1.18
			c-1.07,0.7-2.57,1.16-3.15,2.16c-1.8,3.1-3.34,6.37-4.83,9.64c-1.4,3.06-3.55,4.6-7.02,4.5c-5.1-0.15-10.21,0.19-15.29-0.17
			c-1.79-0.13-4.35-1.28-4.98-2.68c-0.61-1.35,0.67-3.67,1.39-5.46c0.6-1.47,1.47-2.88,2.45-4.14c0.87-1.12,2.04-2,3.08-2.98
			c0.11,1.42,0.23,2.85,0.34,4.27c0.02,0.29,0.03,0.58,0.06,0.87c7.93,1.56,9.54,0.74,12.47-6.29c1.33-3.18,2.56-6.41,4.1-9.48
			c2.28-4.53,6.01-7.04,11.21-6.78c5.41,0.27,9.45,3.09,10.75,8.64C201.25,153.54,202.09,160.85,203.39,168.7z"/>
		<path class="st0" d="M167.58,127.78c-2.03,0.17-3.61,0.3-4.49,0.37c0.56-3.28,1.29-5.92,1.4-8.59c0.24-5.75,3.17-10.16,8.41-12.01
			c4.88-1.72,10.11-0.14,13.64,4.14c1.4,1.7,2.82,3.38,4.11,5.16c0.38,0.53,0.64,1.85,0.42,1.99c-3.15,2.08-1.4,4.97-1.48,7.6
			c-0.13,4.67-3.85,8.99-8.31,9.98c-5.03,1.12-9.79-0.95-12.2-5.35C168.52,130.05,168.1,128.94,167.58,127.78z M168.61,124.22
			c6.21-1.99,12.18-3.9,18.19-5.83c-2.92-7.24-7.99-10.15-13.3-8.12C168.32,112.25,166.24,117.62,168.61,124.22z"/>
		<path class="st3" d="M168.61,124.22c-2.38-6.6-0.3-11.97,4.89-13.95c5.31-2.03,10.38,0.88,13.3,8.12
			C180.79,120.32,174.82,122.23,168.61,124.22z"/>
		<path class="st4" d="M235.29,121.8V74.35l-16.31-12.57V36.36h-25.69v6.67l-18.18-12.19L175,30.76v10.65l49.79,36.8v43.59h-5.2
			v48.55h20.75V121.8H235.29z M225.1,167.29c-1.58,0-2.86-1.28-2.86-2.86c0-1.58,1.28-2.86,2.86-2.86s2.86,1.28,2.86,2.86
			C227.96,166.01,226.68,167.29,225.1,167.29z M151.24,161.42l-7.54-11.87l19.03-8.44l8.08,13.09l-1.95,0.97l-7.15-10.83
			l-14.22,6.29l6.19,9.52L151.24,161.42z"/>
		<path class="st5" d="M175,41.41V30.76l-0.11,0.08l-18.18,12.19l-25.69,18.75l-16.31,12.57v47.46h-5.05v48.55h20.75V121.8h-5.2
			V78.21L175,41.41z M127.75,164.44c0,1.58-1.28,2.86-2.86,2.86c-1.58,0-2.86-1.28-2.86-2.86c0-1.58,1.28-2.86,2.86-2.86
			C126.47,161.58,127.75,162.86,127.75,164.44z M173.68,84.45h-11.43V73.02h11.43V84.45z M187.01,84.45h-11.43V73.02h11.43V84.45z
			 M173.68,97.78h-11.43V86.35h11.43V97.78z M187.01,97.78h-11.43V86.35h11.43V97.78z"/>
	</g>
	<text transform="matrix(1 0 0 1 26.6919 192.1247)" class="st6 st7 st8">Construction &amp; Handyman</text>
</g>
<g id="Logo3">
</g>
<g id="Logo4">
</g>
<g id="Logo5">
</g>
<g id="Logo6">
</g>
<g id="Logo7">
</g>
<g id="Logo8">
</g>
<g id="Logo9">
</g>
<g id="Logo10">
</g>
<g id="Logo11">
</g>
<g id="Logo12">
</g>
<g id="Logo13">
</g>
<g id="Layer_14">
</g>
<g id="Layer_15">
</g>
</svg>
