<?xml version="1.0" encoding="utf-8"?>
<!-- Generator: Adobe Illustrator 27.8.1, SVG Export Plug-In . SVG Version: 6.00 Build 0)  -->
<svg version="1.1" xmlns="http://www.w3.org/2000/svg" xmlns:xlink="http://www.w3.org/1999/xlink" x="0px" y="0px"
	 viewBox="0 0 350 230" style="enable-background:new 0 0 350 230;" xml:space="preserve">
<style type="text/css">
	.st0{fill:#B50004;}
	.st1{fill:#00A651;}
	.st2{fill:#18466B;}
	.st3{fill:#FFFFFF;}
	.st4{fill:#26AFDF;}
	.st5{fill:#767676;}
	.st6{fill:#00184F;}
	.st7{fill:#009CC6;}
	.st8{fill:#A97C50;}
	.st9{fill:#603913;}
	.st10{font-family:'MagicalMysteryTour';}
	.st11{font-size:25px;}
	.st12{display:none;}
	.st13{display:inline;fill:#603913;}
	.st14{font-family:'MagicalMysteryTourOutlineShadow';}
	.st15{fill:#00183A;}
	.st16{fill:#5B5B5B;}
	.st17{fill:#E50000;}
	.st18{fill:#163A7A;}
	.st19{fill:#683600;}
	.st20{fill:#02025E;}
	.st21{fill:#F7941D;}
	.st22{fill:#245EB2;}
	.st23{fill:#00187C;}
	.st24{fill:#0099A5;}
	.st25{fill:#4F2400;}
	.st26{fill:#002F33;}
	.st27{fill:#809103;}
	.st28{fill:#7C2600;}
	.st29{fill:#FAD974;}
	.st30{fill:#E65100;}
	.st31{fill:#29ABE2;}
	.st32{fill:#0071BC;}
	.st33{fill:#0C2E3A;}
</style>
<g id="Logo1">
</g>
<g id="Logo2">
</g>
<g id="Logo3">
</g>
<g id="Logo4">
</g>
<g id="Logo5">
</g>
<g id="Logo6">
	<g>
		<path class="st8" d="M142.15,111.61c-3.53,0-6.39,0.26-9.17-0.12c-1.21-0.17-2.31-1.58-3.33-2.56c-2.08-2.01-4.06-4.12-6.09-6.18
			c-3.26-3.31-6.5-6.63-9.78-9.91c-2.69-2.69-5.45-5.3-8.13-7.99c-2.26-2.26-4.44-4.59-6.68-6.87c-2.83-2.88-5.6-5.82-8.57-8.56
			c-2.26-2.09-2.37-1.95-4.62,0.3c-5.75,5.77-11.51,11.53-17.27,17.29c-8.86,8.86-17.74,17.7-26.55,26.61
			c-0.67,0.67-1.14,1.86-1.14,2.82c-0.06,22.49-0.03,44.99-0.09,67.48c-0.01,1.97,0.86,2.33,2.5,2.32
			c7.16-0.03,14.33-0.02,21.49-0.02c21.34,0,42.67,0.01,64.01,0.01c3.05,0,3.05,0.01,2.85,3.07c-0.26,4.05-0.26,4.05-4.4,4.05
			c-30.35,0-60.69-0.02-91.04,0.03c-1.88,0-2.58-0.51-2.57-2.46c0.06-25.73,0.03-51.46,0.13-77.19c0-1.13,0.7-2.49,1.5-3.34
			c4.15-4.38,8.4-8.67,12.68-12.91c4.38-4.33,8.89-8.53,13.26-12.88c3.97-3.96,7.8-8.06,11.72-12.07c4.14-4.22,8.3-8.4,12.49-12.57
			c2.47-2.45,2.9-2.43,5.35,0.03c13.46,13.49,26.9,27,40.37,40.48c2.99,2.99,6.05,5.9,9.07,8.87
			C140.67,109.91,141.15,110.5,142.15,111.61z"/>
		<path class="st9" d="M163.83,112.16c-3.62,0-6.69,0.1-9.76-0.07c-0.84-0.05-1.8-0.73-2.45-1.38
			c-20.66-20.61-41.3-41.25-61.94-61.89c-0.48-0.48-0.99-0.94-1.93-1.82c-2.4,2.56-4.68,5.14-7.11,7.57
			c-18.71,18.76-37.44,37.5-56.21,56.18c-0.76,0.76-2.07,1.26-3.16,1.33c-2.81,0.19-5.64,0.06-8.31,0.06
			C38.11,87.01,63.22,61.9,88.53,36.58c5.82,5.93,11.93,12.16,18.04,18.4c0.2-0.08,0.4-0.16,0.59-0.24c0-4,0-8.01,0-12.12
			c5.93,0,11.52,0,17.45,0c0,0.87,0,1.68,0,2.49c0,8.4,0.06,16.79-0.04,25.19c-0.02,1.86,0.59,3.12,1.89,4.4
			c12.03,11.93,23.99,23.92,35.97,35.89C162.8,110.96,163.12,111.36,163.83,112.16z"/>
		<path d="M131.04,147.2c-1.35,0-2.38,0.01-3.41-0.01c-0.27,0-0.54-0.09-0.89-0.16c-0.07-0.84-0.13-1.63-0.2-2.55
			c-1.27,0-2.51,0-3.97,0c0,2.05,0,4.14,0,6.37c-1.51,0-2.8,0-4.32,0c0-3.62,0-7.25,0-10.96c-4.59,1.94-4.68,5.65-4.12,9.71
			c-1.5,0-2.78,0-4.31,0c0-0.96,0.21-1.98-0.05-2.86c-0.35-1.15-0.82-2.57-2.44-2.41c-1.49,0.15-2.07,1.38-2.19,2.66
			c-0.14,1.54-0.03,3.1-0.03,4.85c-1.55,0-3.01,0-4.36,0c-0.49,0.89-0.75,1.69-1.27,2.23c-1.2,1.24-3.22,0.81-4.09-0.72
			c-0.28-0.49-0.72-0.89-1.09-1.33c-0.45,0.48-1.03,0.89-1.32,1.45c-1.83,3.52-4.09,6.69-7.36,9.01c-13,9.22-31.08,1.45-33.42-14.34
			c-1.77-11.94,5.1-22.72,16.31-25.59c9.27-2.37,19.45,2.29,23.76,10.86c0.23,0.46,0.38,0.99,0.7,1.38
			c0.37,0.46,0.84,0.93,1.36,1.12c0.18,0.06,0.62-0.78,1.02-1.1c0.76-0.61,1.54-1.52,2.37-1.59c0.75-0.07,1.96,0.64,2.29,1.33
			c0.52,1.05,1.16,1.04,2.05,1.04c18.32-0.01,36.65-0.01,54.97-0.01c0.52,0,1.04,0,1.56,0c4.79,0.02,6.65,2.21,5.95,7.15
			c-1.21,0-2.45,0-3.73,0c-0.23-0.73-0.41-1.57-0.77-2.32c-0.36-0.77-0.9-1.46-1.37-2.2c-1.67,1.47-2.08,2.52-2.43,6.25
			c-1.27,0-2.56,0-4.01,0c-0.07-0.8-0.14-1.63-0.21-2.56c-1.31,0-2.56,0-4.03,0c0,1.68,0,3.37,0,5.15c-1.54,0-2.84,0-4.36,0
			c0-2.12,0.01-4.18,0-6.24c-0.01-1.37-1.22-3.02-2.15-2.73c-1.2,0.38-2.12,1.14-2.07,2.69c0.08,2.87,0.02,5.75,0.02,8.74
			c-1.43,0-2.72,0-4.27,0c0.25-3.75,0.2-7.45-2.15-10.89C131.75,141.35,130.5,143.91,131.04,147.2z M60.87,139.32
			c-2.73,0.02-4.91,2.22-4.93,4.97c-0.01,2.79,2.29,5.07,5.07,5.02c2.74-0.05,4.93-2.26,4.96-4.98
			C66,141.56,63.7,139.3,60.87,139.32z"/>
	</g>
	<text transform="matrix(1 0 0 1 214.4209 131.0645)" class="st10 st11"> </text>
	<text transform="matrix(1 0 0 1 170.8229 103.4375)" class="st12"><tspan x="0" y="0" class="st13 st14 st11">Construction</tspan><tspan x="0" y="30" class="st13 st14 st11">&amp; Handyman</tspan></text>
</g>
<g id="Logo7">
</g>
<g id="Logo8">
</g>
<g id="Logo9">
</g>
<g id="Logo10">
</g>
<g id="Logo11">
</g>
<g id="Logo12">
</g>
<g id="Logo13">
</g>
<g id="Layer_14">
</g>
<g id="Layer_15">
</g>
</svg>
