<?xml version="1.0" encoding="utf-8"?>
<!-- Generator: Adobe Illustrator 27.8.1, SVG Export Plug-In . SVG Version: 6.00 Build 0)  -->
<svg version="1.1" xmlns="http://www.w3.org/2000/svg" xmlns:xlink="http://www.w3.org/1999/xlink" x="0px" y="0px"
	 viewBox="0 0 350 230" style="enable-background:new 0 0 350 230;" xml:space="preserve">
<style type="text/css">
	.st0{fill:#B50004;}
	.st1{fill:#00A651;}
	.st2{fill:#18466B;}
	.st3{fill:#FFFFFF;}
	.st4{fill:#26AFDF;}
	.st5{fill:#767676;}
	.st6{fill:#00184F;}
	.st7{fill:#009CC6;}
	.st8{fill:#A97C50;}
	.st9{fill:#603913;}
	.st10{fill:#00183A;}
	.st11{fill:#5B5B5B;}
	.st12{fill:#E50000;}
	.st13{fill:#163A7A;}
	.st14{display:none;}
	.st15{display:inline;fill:#163A7A;}
	.st16{font-family:'NofexRegular';}
	.st17{font-size:22px;}
	.st18{fill:#683600;}
	.st19{fill:#02025E;}
	.st20{fill:#F7941D;}
	.st21{fill:#245EB2;}
	.st22{fill:#00187C;}
	.st23{fill:#0099A5;}
	.st24{fill:#4F2400;}
	.st25{fill:#002F33;}
	.st26{fill:#809103;}
	.st27{fill:#7C2600;}
	.st28{fill:#FAD974;}
	.st29{fill:#E65100;}
	.st30{fill:#29ABE2;}
	.st31{fill:#0071BC;}
	.st32{fill:#0C2E3A;}
</style>
<g id="Logo1">
</g>
<g id="Logo2">
</g>
<g id="Logo3">
</g>
<g id="Logo4">
</g>
<g id="Logo5">
</g>
<g id="Logo6">
</g>
<g id="Logo7">
</g>
<g id="Logo8">
	<g>
		<path class="st0" d="M122.44,187.9c-2.97,0-5.64,0-8.51,0c0-0.75,0-1.41,0-2.06c0-11.79-0.03-23.58,0.04-35.37
			c0.01-1.51-0.5-2.27-1.77-3.02c-9.87-5.8-19.69-11.68-29.52-17.54c-0.56-0.33-1.13-0.65-1.98-1.14c0,19.87,0,39.42,0,59.1
			c-2.91,0-5.62,0-8.44,0c0-24.66,0-49.26,0-74.15c3.02,1.79,5.84,3.47,8.67,5.15c13.31,7.92,26.61,15.85,39.94,23.74
			c1.14,0.67,1.61,1.39,1.61,2.76c-0.05,13.53-0.03,27.06-0.02,40.59C122.44,186.57,122.44,187.17,122.44,187.9z M62.47,57.82
			c9.98,5.94,19.94,11.92,29.96,17.79c1.56,0.92,2.08,1.9,2.07,3.7c-0.08,14.6-0.05,29.2-0.03,43.79c0,0.57,0.05,1.44,0.4,1.67
			c2.6,1.68,5.29,3.23,8.12,4.93c0.03-0.69,0.07-1.02,0.07-1.35c0-18.3-0.01-36.61,0.03-54.91c0-1.13-0.42-1.69-1.34-2.24
			c-13.71-8.12-27.4-16.28-41.09-24.43c-2.58-1.54-5.16-3.07-7.85-4.67c0,18.36,0,36.49,0,54.83c2.5-1.48,4.78-2.91,7.13-4.2
			c1.02-0.56,1.37-1.21,1.37-2.38c-0.05-10.33-0.03-20.66-0.03-30.99c0-0.61,0-1.22,0-2.14C61.9,57.53,62.2,57.66,62.47,57.82z"/>
		<path class="st13" d="M80.51,116.29c-2.69-1.6-5.21-3.04-7.65-4.61c-0.42-0.27-0.67-1.1-0.68-1.67
			c-0.06-3.48-0.03-6.96-0.03-10.44c0-0.6,0-1.19,0-2.01c-0.58,0.25-0.94,0.36-1.25,0.55c-13.11,7.8-26.22,15.62-39.35,23.4
			c-0.94,0.56-1.32,1.15-1.3,2.25c0.07,4.49-0.01,8.98,0.05,13.47c0.02,1.14-0.28,1.83-1.32,2.41c-2.36,1.29-4.64,2.73-7.13,4.22
			c-0.07-0.56-0.16-0.96-0.16-1.37c-0.01-7.92-0.03-15.83,0.03-23.75c0.01-0.64,0.43-1.55,0.95-1.86
			c19.01-11.39,38.06-22.72,57.1-34.05c0.18-0.11,0.39-0.18,0.74-0.33C80.51,93.76,80.51,104.89,80.51,116.29z M27.8,148.53
			c-4.87,0-8.82,3.95-8.82,8.82c0,4.87,3.95,8.82,8.82,8.82s8.82-3.95,8.82-8.82C36.62,152.48,32.67,148.53,27.8,148.53z
			 M27.8,170.08c-4.87,0-8.82,3.95-8.82,8.82c0,4.87,3.95,8.82,8.82,8.82s8.82-3.95,8.82-8.82
			C36.62,174.03,32.67,170.08,27.8,170.08z"/>
	</g>
	<text transform="matrix(1 0 0 1 121.9069 108.3778)" class="st14"><tspan x="0" y="0" class="st15 st16 st17">Construction</tspan><tspan x="12.09" y="26.4" class="st15 st16 st17">&amp; Handyman</tspan></text>
</g>
<g id="Logo9">
</g>
<g id="Logo10">
</g>
<g id="Logo11">
</g>
<g id="Logo12">
</g>
<g id="Logo13">
</g>
<g id="Layer_14">
</g>
<g id="Layer_15">
</g>
</svg>
