<?xml version="1.0" encoding="utf-8"?>
<!-- Generator: Adobe Illustrator 27.8.1, SVG Export Plug-In . SVG Version: 6.00 Build 0)  -->
<svg version="1.1" xmlns="http://www.w3.org/2000/svg" xmlns:xlink="http://www.w3.org/1999/xlink" x="0px" y="0px"
	 viewBox="0 0 350 230" style="enable-background:new 0 0 350 230;" xml:space="preserve">
<style type="text/css">
	.st0{fill:#B50004;}
	.st1{fill:#00A651;}
	.st2{fill:#18466B;}
	.st3{fill:#FFFFFF;}
	.st4{fill:#26AFDF;}
	.st5{fill:#767676;}
	.st6{fill:#00184F;}
	.st7{fill:#009CC6;}
	.st8{fill:#A97C50;}
	.st9{fill:#603913;}
	.st10{fill:#00183A;}
	.st11{fill:#5B5B5B;}
	.st12{fill:#E50000;}
	.st13{display:none;}
	.st14{display:inline;fill:#00183A;}
	.st15{font-family:'MagicalMysteryTourOutlineShadow';}
	.st16{font-size:25px;}
	.st17{fill:#163A7A;}
	.st18{fill:#683600;}
	.st19{fill:#02025E;}
	.st20{fill:#F7941D;}
	.st21{fill:#245EB2;}
	.st22{fill:#00187C;}
	.st23{fill:#0099A5;}
	.st24{fill:#4F2400;}
	.st25{fill:#002F33;}
	.st26{fill:#809103;}
	.st27{fill:#7C2600;}
	.st28{fill:#FAD974;}
	.st29{fill:#E65100;}
	.st30{fill:#29ABE2;}
	.st31{fill:#0071BC;}
	.st32{fill:#0C2E3A;}
</style>
<g id="Logo1">
</g>
<g id="Logo2">
</g>
<g id="Logo3">
</g>
<g id="Logo4">
</g>
<g id="Logo5">
</g>
<g id="Logo6">
</g>
<g id="Logo7">
	<g>
		<path class="st10" d="M258.54,34.09c0,1.09,0,1.74,0,2.4c0,45-0.01,90.01,0.01,135.01c0,1.41,0.1,2.59-1.95,2.59
			c-2.77-0.01-2.88,0.04-2.88-2.74c-0.01-24.57-0.03-49.14,0.04-73.7c0.01-2.02-0.65-3.19-2.34-4.25c-4.8-3.02-9.47-6.26-14.24-9.34
			c-1.1-0.71-1.61-1.47-1.6-2.83c0.06-8.26-0.01-16.53,0.07-24.79c0.01-0.91,0.41-2.08,1.05-2.67c6.81-6.32,13.7-12.56,20.57-18.81
			C257.52,34.72,257.85,34.55,258.54,34.09z"/>
		<path class="st11" d="M167.4,188.76c6.16-2.6,12.32-5.22,18.5-7.76c0.6-0.25,1.43-0.09,2.12,0.06c19.89,4.31,40,6.61,60.37,6.13
			c15.69-0.37,31.16-2.28,46.09-7.44c7.49-2.59,14.51-6.1,20.98-10.72c-3.65,4.35-7.99,7.9-12.73,10.97
			c-11.14,7.23-23.52,11.12-36.5,13.33c-18.53,3.16-37.17,3.16-55.8,1.41c-14.36-1.35-28.67-3.31-43-5.01
			C167.43,189.41,167.41,189.08,167.4,188.76z M311.37,143.61c2.83,5.77,2.65,11.47-1.69,16.28c-2.71,3-6.02,5.72-9.55,7.68
			c-10.92,6.05-23.02,8.02-35.27,9.03c-16.49,1.35-32.89,0.3-49.05-3.05c-6.22-1.29-11.82-1.24-17.33,2.02
			c-1.65,0.98-3.54,1.57-5.31,2.34c0.01,0.25,0.02,0.5,0.03,0.76c8.2,1.35,16.37,2.98,24.61,3.98c13.73,1.67,27.51,1.54,41.27,0.08
			c13.02-1.38,25.79-3.89,37.93-8.95c6.64-2.77,12.96-6.11,17.54-11.92c2.88-3.66,3.83-7.79,2.36-12.27
			c-1.35-4.1-4.13-7.2-7.61-9.62C309.99,141.18,310.76,142.36,311.37,143.61z"/>
		<path class="st12" d="M268.61,172.85c0-42.62,0-85.09,0-127.58c3,0.81,3.62,1.56,3.62,4.28c0,40.21,0,80.42-0.01,120.63
			C272.23,173.19,272.09,173.29,268.61,172.85z M262.36,173.85c1.02-0.14,1.87-0.26,2.93-0.4c0-1,0-1.88,0-2.75
			c0-41.9-0.02-83.8,0.04-125.7c0-2.22-0.78-3.43-2.98-4.04C262.36,85.32,262.36,129.47,262.36,173.85z M275.65,171.97
			c2.71,0.55,2.92-0.93,2.92-2.89c-0.03-38.49-0.05-76.97,0.02-115.46c0-2.29-1.02-3.3-2.94-4
			C275.65,90.48,275.65,131.25,275.65,171.97z M230.8,171.18c0-25.93,0-51.78,0-77.64c3,0.49,3.62,0.95,3.62,2.6
			c0,24.47,0,48.94-0.01,73.41C234.42,171.38,234.28,171.45,230.8,171.18z M224.55,171.78c1.02-0.09,1.87-0.16,2.93-0.25
			c0-0.61,0-1.14,0-1.67c0-25.5-0.02-51,0.04-76.49c0-1.35-0.78-2.08-2.98-2.46C224.55,117.91,224.55,144.78,224.55,171.78z
			 M237.85,170.64c2.71,0.34,2.92-0.56,2.92-1.76c-0.03-23.42-0.05-46.84,0.02-70.26c0-1.39-1.02-2.01-2.94-2.44
			C237.85,121.05,237.85,145.86,237.85,170.64z"/>
	</g>
	<text transform="matrix(1 0 0 1 32.5111 103.4373)" class="st13"><tspan x="0" y="0" class="st14 st15 st16">Construction</tspan><tspan x="0" y="30" class="st14 st15 st16">&amp; Handyman</tspan></text>
</g>
<g id="Logo8">
</g>
<g id="Logo9">
</g>
<g id="Logo10">
</g>
<g id="Logo11">
</g>
<g id="Logo12">
</g>
<g id="Logo13">
</g>
<g id="Layer_14">
</g>
<g id="Layer_15">
</g>
</svg>
