<?xml version="1.0" encoding="utf-8"?>
<!-- Generator: Adobe Illustrator 27.8.1, SVG Export Plug-In . SVG Version: 6.00 Build 0)  -->
<svg version="1.1" xmlns="http://www.w3.org/2000/svg" xmlns:xlink="http://www.w3.org/1999/xlink" x="0px" y="0px"
	 viewBox="0 0 350 230" style="enable-background:new 0 0 350 230;" xml:space="preserve">
<style type="text/css">
	.st0{fill:#B50004;}
	.st1{fill:#00A651;}
	.st2{fill:#18466B;}
	.st3{fill:#FFFFFF;}
	.st4{fill:#26AFDF;}
	.st5{fill:#767676;}
	.st6{fill:#00184F;}
	.st7{fill:#009CC6;}
	.st8{fill:#A97C50;}
	.st9{fill:#603913;}
	.st10{fill:#00183A;}
	.st11{fill:#5B5B5B;}
	.st12{fill:#E50000;}
	.st13{fill:#163A7A;}
	.st14{fill:#683600;}
	.st15{fill:#02025E;}
	.st16{fill:#F7941D;}
	.st17{fill:#245EB2;}
	.st18{fill:#00187C;}
	.st19{fill:#0099A5;}
	.st20{display:none;fill:#00187C;}
	.st21{font-family:'HelloBalgetia';}
	.st22{font-size:30px;}
	.st23{fill:#4F2400;}
	.st24{fill:#002F33;}
	.st25{fill:#809103;}
	.st26{fill:#7C2600;}
	.st27{fill:#FAD974;}
	.st28{fill:#E65100;}
	.st29{fill:#29ABE2;}
	.st30{fill:#0071BC;}
	.st31{fill:#0C2E3A;}
</style>
<g id="Logo1">
</g>
<g id="Logo2">
</g>
<g id="Logo3">
</g>
<g id="Logo4">
</g>
<g id="Logo5">
</g>
<g id="Logo6">
</g>
<g id="Logo7">
</g>
<g id="Logo8">
</g>
<g id="Logo9">
</g>
<g id="Logo10">
</g>
<g id="Logo11">
	<g>
		<path class="st18" d="M173.37,92.01c-2.94,0-5.7,0-8.7,0c0-2.93,0-5.7,0-8.76c2.81,0,5.58,0,8.7,0
			C173.37,86.06,173.37,88.91,173.37,92.01z M173.43,104.24c0-3.11,0-5.88,0-8.74c-3.06,0-5.84,0-8.77,0c0,3.05,0,5.82,0,8.74
			C167.75,104.24,170.62,104.24,173.43,104.24z M185.34,104.24c0-3.11,0-5.88,0-8.74c-3.06,0-5.84,0-8.77,0c0,3.05,0,5.82,0,8.74
			C179.65,104.24,182.52,104.24,185.34,104.24z M185.13,83.19c-2.9,0-5.51,0-8.45,0c0,3.06,0,5.91,0,8.89c2.77,0,5.41,0,8.45,0
			C185.13,88.89,185.13,86.15,185.13,83.19z"/>
		<path class="st19" d="M241.36,48.02c0.02,7.42-5.7,13.23-12.99,13.18c-7-0.05-12.61-5.86-12.69-13.13
			c-0.08-6.97,6.26-13.23,13.24-13.1C235.53,35.11,241.34,41.2,241.36,48.02z M122.63,35.05c-6.97-0.03-12.88,5.88-12.92,12.93
			c-0.05,7.41,5.62,13.22,12.9,13.2c6.98-0.01,12.74-5.87,12.81-13C135.48,41.29,129.43,35.08,122.63,35.05z M270.04,143.22
			c-12.1-6.56-25.12-10.72-38.49-13.74c-2.74-0.62-3.48-1.76-3.36-4.37c0.19-4.06,0.06-8.14,0.06-12.22V91.68
			c7.86,4.61,15.11,8.88,22.82,13.4c0-5.58-0.18-10.33,0.07-15.07c0.15-2.75-0.93-4.04-3.25-5.31c-8.27-4.52-16.75-8.76-24.43-14.14
			c-9.49-6.65-18.38-14.19-27.3-21.63c-5.85-4.88-11.29-10.26-16.77-15.3c0.11,0.52,0.27,1.29,0.48,2.06
			c0.24,0.9,0.48,1.81,0.78,2.69c4.95,14.92,15.07,26.11,26.22,36.63c1.35,1.27,2.37,3.57,2.42,5.42
			c0.31,13.15,0.35,26.31,0.42,39.47c0.01,1.69-0.25,3.38-0.41,5.28c-22.76-3.1-45.12-3.21-67.54-0.77
			c-0.22-1.05-0.41-1.57-0.41-2.09c-0.04-14.25-0.12-28.49,0.04-42.74c0.01-1.45,1.36-3.07,2.44-4.31
			c6.53-7.57,13.52-14.79,19.66-22.67c2.03-2.6,3.72-5.47,5.04-8.5c1.35-3.09,2.3-6.35,2.91-9.67c0.08-0.42,0.25-0.89,0.21-1.31
			c-0.35,0-0.87,0.47-1.14,0.69c-0.43,0.34-0.77,0.76-1.14,1.16c-0.47,0.49-0.95,0.97-1.42,1.45c-1.2,1.22-2.41,2.43-3.62,3.63
			c-2.42,2.4-4.88,4.76-7.37,7.09c-2.49,2.32-5.01,4.59-7.57,6.82c-2.56,2.22-5.16,4.4-7.8,6.52c-2.64,2.12-5.33,4.18-8.06,6.17
			c-2.74,2-5.52,3.93-8.35,5.79c-2.84,1.86-5.74,3.66-8.68,5.36c-2.96,1.72-5.97,3.36-9.03,4.9c-1.83,0.93-3.68,1.82-5.55,2.68
			c-0.79,0.36-1.73,1.48-1.75,2.27c-0.15,5.59-0.07,11.18-0.07,17.46c7.83-4.67,14.98-8.93,22.4-13.35
			c0.21,0.97,0.41,1.47,0.41,1.96c0.01,10.45-0.08,20.9,0.04,31.34c0.03,2.6-1.37,2.88-3.36,3.55c-0.33,0.11-0.65,0.22-0.98,0.33
			c-5.36,1.81-10.75,3.57-16.11,5.41c-18.33,7.6-31.89,16.2-36.14,19.02c-0.72,0.48-1.18,0.8-1.34,0.91
			c0.72-0.43,1.93-0.97,3.5-1.58c34.72-10.89,69.43-21.42,106.49-20.77c37.93,0.66,74.12,9.48,110.01,20.98
			C280.15,149.4,275.25,146.04,270.04,143.22z"/>
	</g>
	<text transform="matrix(1 0 0 1 37.6869 182.7935)" class="st20 st21 st22">Construction &amp; Handyman</text>
</g>
<g id="Logo12">
</g>
<g id="Logo13">
</g>
<g id="Layer_14">
</g>
<g id="Layer_15">
</g>
</svg>
