<?xml version="1.0" encoding="utf-8"?>
<!-- Generator: Adobe Illustrator 27.8.1, SVG Export Plug-In . SVG Version: 6.00 Build 0)  -->
<svg version="1.1" xmlns="http://www.w3.org/2000/svg" xmlns:xlink="http://www.w3.org/1999/xlink" x="0px" y="0px"
	 viewBox="0 0 350 230" style="enable-background:new 0 0 350 230;" xml:space="preserve">
<style type="text/css">
	.st0{fill:#B50004;}
	.st1{fill:#00A651;}
	.st2{fill:#18466B;}
	.st3{fill:#FFFFFF;}
	.st4{fill:#26AFDF;}
	.st5{fill:#767676;}
	.st6{fill:#00184F;}
	.st7{fill:#009CC6;}
	.st8{fill:#A97C50;}
	.st9{fill:#603913;}
	.st10{fill:#00183A;}
	.st11{fill:#5B5B5B;}
	.st12{fill:#E50000;}
	.st13{fill:#163A7A;}
	.st14{fill:#683600;}
	.st15{fill:#02025E;}
	.st16{fill:#F7941D;}
	.st17{fill:#245EB2;}
	.st18{display:none;fill:#B50004;}
	.st19{font-family:'Impact';}
	.st20{font-size:30px;}
	.st21{fill:#00187C;}
	.st22{fill:#0099A5;}
	.st23{fill:#4F2400;}
	.st24{fill:#002F33;}
	.st25{fill:#809103;}
	.st26{fill:#7C2600;}
	.st27{fill:#FAD974;}
	.st28{fill:#E65100;}
	.st29{fill:#29ABE2;}
	.st30{fill:#0071BC;}
	.st31{fill:#0C2E3A;}
</style>
<g id="Logo1">
</g>
<g id="Logo2">
</g>
<g id="Logo3">
</g>
<g id="Logo4">
</g>
<g id="Logo5">
</g>
<g id="Logo6">
</g>
<g id="Logo7">
</g>
<g id="Logo8">
</g>
<g id="Logo9">
</g>
<g id="Logo10">
	<g>
		<path class="st16" d="M146.31,18.67c-3.72,4.99-7.42,10-11.2,14.94c-0.48,0.63-1.39,1.03-2.18,1.33
			C83.67,53.38,56.37,89.89,46.1,140.43c-0.29,1.4-0.45,2.83-0.71,4.49c-1.69-10.74,4.74-40.62,12.13-56.71
			c8.3-18.08,20.4-33.15,36.18-45.25C109.37,30.93,126.86,22.73,146.31,18.67z M203.69,18.67c3.72,4.99,7.42,10,11.2,14.94
			c0.48,0.63,1.39,1.03,2.18,1.33c49.26,18.44,76.57,54.96,86.84,105.49c0.29,1.4,0.45,2.83,0.71,4.49
			c1.69-10.74-4.74-40.62-12.13-56.71c-8.3-18.08-20.4-33.15-36.18-45.25C240.63,30.93,223.14,22.73,203.69,18.67z"/>
		<path class="st17" d="M199.54,138.23c-2.45,0-4.74,0-7.23,0c0-2.43,0-4.76,0-7.25c2.41,0,4.75,0,7.23,0
			C199.54,133.37,199.54,135.65,199.54,138.23z M199.57,148.58c0-2.45,0-4.75,0-7.13c-2.5,0-4.91,0-7.38,0c0,2.44,0,4.67,0,7.13
			C194.78,148.58,197.13,148.58,199.57,148.58z M181.87,131.04c0,2.49,0,4.77,0,7.15c2.45,0,4.78,0,7.2,0c0-2.45,0-4.73,0-7.15
			C186.5,131.04,184.17,131.04,181.87,131.04z M181.89,141.35c0,2.46,0,4.8,0,7.22c2.47,0,4.79,0,7.19,0c0-2.46,0-4.74,0-7.22
			C186.51,141.35,184.24,141.35,181.89,141.35z M128.03,154.2c2.16,0,4.13,0,6.21,0c0-2.21,0-4.3,0-6.43c-2.17,0-4.14,0-6.21,0
			C128.03,149.97,128.03,152.08,128.03,154.2z M134.26,156.99c-2.2,0-4.21,0-6.19,0c0,2.25,0,4.32,0,6.37c2.19,0,4.14,0,6.19,0
			C134.26,161.15,134.26,159.07,134.26,156.99z M137.2,147.82c0,2.18,0,4.2,0,6.34c2.16,0,4.18,0,6.3,0c0-2.14,0-4.11,0-6.34
			C141.3,147.82,139.28,147.82,137.2,147.82z M143.43,157.02c-2.21,0-4.23,0-6.19,0c0,2.22,0,4.26,0,6.35c2.15,0,4.1,0,6.19,0
			C143.43,161.16,143.43,159.08,143.43,157.02z"/>
		<path class="st13" d="M153.57,129.97c9.35-5.08,18.26-9.92,27.17-14.77c2.95-1.6,5.94-3.13,8.83-4.85
			c1.49-0.89,2.63-0.84,4.13,0.05c19.21,11.32,38.47,22.58,57.72,33.85c14,8.2,28.01,16.4,42.01,24.6c0.53,0.31,1.03,0.65,2.13,1.34
			c-7.01,0-13.36,0.02-19.71-0.04c-0.66-0.01-1.34-0.48-1.95-0.83c-26.62-15.12-53.26-30.21-79.83-45.43
			c-2.43-1.39-4.19-1.57-6.66-0.07c-6.9,4.19-14.03,7.99-21,12.07c-1.55,0.91-2.63,0.85-4.06-0.17
			C159.62,133.79,156.75,132.04,153.57,129.97z M58.46,170.24c5.36,0,10.71,0.07,16.07-0.05c1.37-0.03,2.86-0.42,4.07-1.07
			c18.34-9.93,36.65-19.92,54.93-29.96c1.59-0.87,2.81-0.91,4.4-0.02c18.1,10.05,36.23,20.02,54.36,30.01
			c0.7,0.38,1.43,0.96,2.16,0.97c6.11,0.08,12.22,0.04,18.98,0.04c-1.13-0.73-1.7-1.13-2.29-1.46
			c-24.39-13.85-48.8-27.67-73.16-41.57c-1.73-0.99-2.98-0.84-4.6,0.09c-15.61,8.92-31.26,17.78-46.89,26.66
			c-9.37,5.32-18.74,10.63-28.12,15.95C58.38,169.96,58.42,170.1,58.46,170.24z M95.22,143.17l6.13-3.5V85.35l-6.13,3.5V143.17z
			 M84.7,149.23l7.01-4.38v-44.68l-7.01,2.47V149.23z M220,82.38v37.07l38.77,23.26v-36.4L220,82.38z"/>
		<path class="st0" d="M202.35,36.45c0,1.8-1.27,3.28-2.82,3.28l-10.12,0.01c-1.55,0-2.82-1.47-2.82-3.28v-2.33h-1.69v1.92
			c0,1.8-1.26,3.29-2.82,3.29h-2.91c0.07,0.28,0.11,0.57,0.11,0.87l0.01,16.58h0.01l0.03,47.99c0,2.05-1.68,3.73-3.73,3.74h-4.36
			c-2.06,0-3.74-1.68-3.74-3.74l-0.03-46.71h-0.01l-0.01-17.86c0-0.3,0.04-0.59,0.11-0.86h-2.85c-1.56,0-2.83-1.48-2.83-3.29v-9.23
			c-11.38,1.23-14.35,5.27-14.35,5.27c-0.01-16.54,22.34-14.08,22.34-14.08l12.2-0.01c1.55,0,2.82,1.47,2.82,3.28l0.01,1.92h1.68
			v-1.51c0-1.8,1.27-3.28,2.82-3.29h10.12c1.55,0,2.82,1.47,2.82,3.28L202.35,36.45z"/>
	</g>
	<text transform="matrix(1 0 0 1 15.5883 202.1853)" class="st18 st19 st20">Construction &amp; Handyman</text>
</g>
<g id="Logo11">
</g>
<g id="Logo12">
</g>
<g id="Logo13">
</g>
<g id="Layer_14">
</g>
<g id="Layer_15">
</g>
</svg>
