<?xml version="1.0" encoding="utf-8"?>
<!-- Generator: Adobe Illustrator 27.8.1, SVG Export Plug-In . SVG Version: 6.00 Build 0)  -->
<svg version="1.1" xmlns="http://www.w3.org/2000/svg" xmlns:xlink="http://www.w3.org/1999/xlink" x="0px" y="0px"
	 viewBox="0 0 350 230" style="enable-background:new 0 0 350 230;" xml:space="preserve">
<style type="text/css">
	.st0{fill:#B50004;}
	.st1{fill:#00A651;}
	.st2{fill:#18466B;}
	.st3{fill:#FFFFFF;}
	.st4{fill:#26AFDF;}
	.st5{fill:#767676;}
	.st6{fill:#00184F;}
	.st7{fill:#009CC6;}
	.st8{fill:#A97C50;}
	.st9{fill:#603913;}
	.st10{fill:#00183A;}
	.st11{fill:#5B5B5B;}
	.st12{fill:#E50000;}
	.st13{fill:#163A7A;}
	.st14{fill:#683600;}
	.st15{fill:#02025E;}
	.st16{display:none;fill:#02025E;}
	.st17{font-family:'MagicalMysteryTour';}
	.st18{font-size:25px;}
	.st19{fill:#F7941D;}
	.st20{fill:#245EB2;}
	.st21{fill:#00187C;}
	.st22{fill:#0099A5;}
	.st23{fill:#4F2400;}
	.st24{fill:#002F33;}
	.st25{fill:#809103;}
	.st26{fill:#7C2600;}
	.st27{fill:#FAD974;}
	.st28{fill:#E65100;}
	.st29{fill:#29ABE2;}
	.st30{fill:#0071BC;}
	.st31{fill:#0C2E3A;}
</style>
<g id="Logo1">
</g>
<g id="Logo2">
</g>
<g id="Logo3">
</g>
<g id="Logo4">
</g>
<g id="Logo5">
</g>
<g id="Logo6">
</g>
<g id="Logo7">
</g>
<g id="Logo8">
</g>
<g id="Logo9">
	<g>
		<path class="st14" d="M258.23,59.97c-1.81,6.33-5.17,11.85-9.02,17.09c-7.98,10.84-17.68,20.02-28.17,28.36
			c-25,19.85-52.48,35.24-82.83,45.32c-10.14,3.37-20.51,5.82-31.22,6.56c-5.87,0.4-11.7,0.21-17.36-1.6
			c-9.02-2.89-12.87-9.72-10.78-18.99c1.28-5.69,3.97-10.73,7.18-15.52c7.57-11.3,17.3-20.58,27.58-29.32
			c0.17,0.09,0.33,0.2,0.5,0.29c-0.38,0.72-0.62,1.61-1.18,2.14c-6.49,6.19-12.6,12.71-17.44,20.31c-2.63,4.13-4.86,8.46-5.68,13.36
			c-1.27,7.56,1.94,13,9.21,15.55c5.25,1.83,10.68,1.98,16.15,1.54c14.1-1.13,27.4-5.38,40.38-10.73c5.24-2.16,10.32-4.72,15.5-7.01
			c1.42-0.62,1.87-1.45,1.86-2.99c-0.05-25.82-0.03-51.63-0.04-77.45V43.4c9.49,5.33,18.65,10.49,28.12,15.81v-5.16h10.39
			c0,2.77,0.17,5.57-0.05,8.34c-0.16,2.1,0.61,3.2,2.45,4.09c2.62,1.27,5.09,2.87,7.67,4.24c0.94,0.49,1.28,1.07,1.27,2.13
			c-0.05,5.68-0.03,11.36-0.03,17.04v1.96c0.15,0.07,0.3,0.13,0.45,0.19c2.18-2.16,4.41-4.26,6.53-6.49
			c5.75-6.05,11.14-12.41,14.57-20.09c1.34-2.99,2.33-6.28,2.68-9.52c0.67-6.27-2.41-10.76-8.27-13.19c-4.39-1.81-9-2.16-13.68-2.08
			c-11.49,0.21-22.42,3.18-33.22,6.77c-0.52,0.18-1.05,0.34-1.73,0.2c0.34-0.18,0.66-0.39,1.01-0.52
			c11.82-4.36,23.85-7.84,36.42-9.19c6.24-0.66,12.48-0.73,18.63,0.84C256.96,41.56,261.32,49.16,258.23,59.97z"/>
		<path class="st15" d="M118.17,120.01c0-0.82,0-1.31,0-1.81c0-15.08,0.01-30.16-0.03-45.24c0-1.13,0.34-1.73,1.33-2.28
			c15.59-8.74,31.16-17.52,46.74-26.29c0.44-0.25,0.91-0.47,1.68-0.86c0,1.61,0.11,3.02-0.06,4.4c-0.06,0.46-0.75,0.94-1.26,1.23
			c-12.41,7.03-24.84,14.03-37.27,21.04c-1.9,1.07-3.82,2.09-5.67,3.24c-0.48,0.3-1,1.02-1,1.54c-0.06,9.98-0.04,19.95-0.03,29.93
			c0,0.21,0.09,0.41,0.19,0.88c0.51-0.46,0.88-0.77,1.21-1.11c6.14-6.34,12.3-12.67,18.39-19.06c1.09-1.15,1.99-2.52,2.8-3.89
			c1.02-1.72,0.64-2.86-1.13-3.82c-2.97-1.6-6.25-1.74-9.52-1.92c-0.95-0.05-1.9-0.01-2.84-0.01c-0.03-0.21-0.05-0.42-0.08-0.64
			c2.3-0.45,4.59-1.06,6.92-1.3c5.69-0.58,10.91,0.81,15.62,4.09c1.78,1.24,3.18,2.72,3.68,4.97c0.43,1.96,1.81,3.19,3.59,4.13
			c1.37,0.73,2.56,1.78,3.94,2.77c-1.71,1.67-3.13,3.06-4.87,4.75c-0.96-1.22-2.17-2.31-2.81-3.67c-1.86-3.97-5.14-5.01-8.62-2.31
			c-1.8,1.39-3.39,3.08-4.99,4.72c-8.2,8.42-16.37,16.86-24.56,25.29C119.17,119.14,118.79,119.45,118.17,120.01z M180.98,137.5
			c14.19,0,27.84,0,41.59,0c0-8.97,0-17.84,0-27.07C209.51,120.72,195.81,129.51,180.98,137.5z M153.63,125.65
			c4.88-4.26,9.56-8.34,14.33-12.51c-2.86-3.28-5.55-6.36-8.26-9.47c-2.09,1.28-4,2.45-5.9,3.62c-0.08-0.11-0.16-0.22-0.24-0.32
			c1.49-1.71,2.97-3.43,4.52-5.21c-1.2-1.37-2.33-2.64-3.49-3.96c-0.89,0.51-1.69,0.97-2.49,1.43c-0.06-0.08-0.11-0.16-0.17-0.24
			c0.55-0.76,1.11-1.52,1.75-2.41c-0.48-0.52-0.89-0.96-1.35-1.45c-4.87,4.24-9.53,8.3-14.39,12.53
			C143.24,113.73,148.41,119.66,153.63,125.65z M137.19,108.47c-2.79,2-2.83,2-2.77,5.04c0.13,6.22-2.2,11.14-7.49,14.55
			c-0.54,0.35-1.09,0.71-1.63,1.06c-1.51,0.98-3.02,1.96-4.53,2.94c-0.45,0.29-1.03,0.54-1.36,0.97c-0.3,0.39-0.53,0.85-0.68,1.32
			c-0.3,0.93-0.35,2.05,0.23,2.88c0.51,0.74,1.48,1.02,2.38,1.04c0.36,0.01,0.73-0.01,1.08-0.06c3.83-0.44,7.17-2.89,10.05-5.3
			c1.3-1.09,2.56-2.24,4.05-3.07c3.26-1.82,7.1-2.1,10.71-1.35c2.56,0.53,3.98-0.44,5.46-2.25
			C147.54,120.35,142.39,114.44,137.19,108.47z"/>
		<path class="st3" d="M182.93,82.94c3.61,0,7.02,0,10.56,0c0,3.54,0,6.99,0,10.57c-3.53,0-6.98,0-10.56,0
			C182.93,90,182.93,86.55,182.93,82.94z M182.93,105.13c3.58,0,7.03,0,10.56,0c0-3.58,0-7.03,0-10.57c-3.53,0-6.94,0-10.56,0
			C182.93,98.17,182.93,101.62,182.93,105.13z M194.67,93.51c3.58,0,7.03,0,10.56,0c0-3.58,0-7.03,0-10.57c-3.53,0-6.94,0-10.56,0
			C194.67,86.55,194.67,90,194.67,93.51z M194.67,105.13c3.58,0,7.03,0,10.56,0c0-3.58,0-7.03,0-10.57c-3.53,0-6.94,0-10.56,0
			C194.67,98.17,194.67,101.62,194.67,105.13z"/>
	</g>
	<text transform="matrix(1 0 0 1 11.8773 182.2495)" class="st16 st17 st18">Construction &amp; Handyman</text>
</g>
<g id="Logo10">
</g>
<g id="Logo11">
</g>
<g id="Logo12">
</g>
<g id="Logo13">
</g>
<g id="Layer_14">
</g>
<g id="Layer_15">
</g>
</svg>
