<?xml version="1.0" encoding="utf-8"?>
<!-- Generator: Adobe Illustrator 27.8.1, SVG Export Plug-In . SVG Version: 6.00 Build 0)  -->
<svg version="1.1" xmlns="http://www.w3.org/2000/svg" xmlns:xlink="http://www.w3.org/1999/xlink" x="0px" y="0px"
	 viewBox="0 0 350 230" style="enable-background:new 0 0 350 230;" xml:space="preserve">
<style type="text/css">
	.st0{fill:#B50004;}
	.st1{fill:#00A651;}
	.st2{fill:#18466B;}
	.st3{fill:#FFFFFF;}
	.st4{fill:#26AFDF;}
	.st5{fill:#767676;}
	.st6{fill:#00184F;}
	.st7{fill:#009CC6;}
	.st8{fill:#A97C50;}
	.st9{fill:#603913;}
	.st10{fill:#00183A;}
	.st11{fill:#5B5B5B;}
	.st12{fill:#E50000;}
	.st13{fill:#163A7A;}
	.st14{fill:#683600;}
	.st15{fill:#02025E;}
	.st16{fill:#F7941D;}
	.st17{fill:#245EB2;}
	.st18{fill:#00187C;}
	.st19{fill:#0099A5;}
	.st20{fill:#4F2400;}
	.st21{fill:#002F33;}
	.st22{fill:#809103;}
	.st23{fill:#7C2600;}
	.st24{display:none;fill:#E65100;}
	.st25{font-family:'MagicalMysteryTour';}
	.st26{font-size:25px;}
	.st27{fill:#FAD974;}
	.st28{fill:#E65100;}
	.st29{fill:#29ABE2;}
	.st30{fill:#0071BC;}
	.st31{fill:#0C2E3A;}
</style>
<g id="Logo1">
</g>
<g id="Logo2">
</g>
<g id="Logo3">
</g>
<g id="Logo4">
</g>
<g id="Logo5">
</g>
<g id="Logo6">
</g>
<g id="Logo7">
</g>
<g id="Logo8">
</g>
<g id="Logo9">
</g>
<g id="Logo10">
</g>
<g id="Logo11">
</g>
<g id="Logo12">
</g>
<g id="Logo13">
</g>
<g id="Layer_14">
	<text transform="matrix(1 0 0 1 11.8773 194.1861)" class="st24 st25 st26">Construction &amp; Handyman</text>
	<g>
		<path class="st27" d="M245.84,96.4c0,14.94-4.62,28.81-12.54,40.23c-1.44,2.09-2.99,4.1-4.66,6.02c-0.25,0.29-0.5,0.58-0.76,0.86
			c-0.45,0.51-0.91,1.02-1.38,1.52c-12.92,13.67-31.21,22.2-51.5,22.2c-23.42,0-44.19-11.37-57.08-28.89
			c-2.03-2.75-3.86-5.66-5.47-8.69c-5.29-9.92-8.28-21.24-8.28-33.26c0-39.12,31.72-70.84,70.84-70.84S245.84,57.28,245.84,96.4z"/>
		<path class="st28" d="M232.59,79.82c-2.09-3.01-7.88-3.23-11.72-5.28c-7.1-3.79-14-4.45-21.08-0.2c-0.51,0.3-1.18,0.31-2.19,0.55
			c0-7.9-0.07-15.51,0.04-23.1c0.03-2.11-0.56-3.3-2.63-4.06c-6.19-2.28-12.28-4.81-18.47-7.06c-1.2-0.44-2.83-0.45-4.03-0.02
			c-6.08,2.18-12.04,4.7-18.13,6.85c-2.54,0.89-3.24,2.33-3.22,4.9c0.12,12.55,0.05,25.11,0.05,38.89
			c-6.68-5.74-12.51-2.04-18.44,0.19c-3.38,1.27-6.71,2.73-10.16,3.82c-2.41,0.76-3.06,2.1-2.99,4.53
			c0.18,6.09,0.06,12.17,0.06,18.26v11.19c-2.45,0.13-4.86,0.26-7.24,0.4c1.61,3.03,3.44,5.94,5.47,8.69
			c3.74-0.3,7.48-0.57,11.23-0.79c31.82-1.91,63.34,0.74,94.58,6.92c0.92,0.19,1.85,0.37,2.77,0.56c0.47-0.5,0.93-1,1.38-1.52
			c-5.05-1.22-9.77-2.31-14.42-3.61c-0.56-0.16-1.06-1.66-1.06-2.53c-0.05-20.03-0.05-40.05-0.05-60.87
			c5.29,2.01,10.11,3.76,14.85,5.72c0.68,0.28,1.38,1.53,1.38,2.34c0.08,19.16,0.06,38.32,0.06,58.08c1.66-1.92,3.22-3.93,4.66-6.02
			c0.13-14.66,0.06-29.33,0.03-43.99C233.32,88.26,234.68,82.82,232.59,79.82z M140.47,129.63h-15.95V99.8
			c5.29-2.01,10.55-4.01,15.95-6.06V129.63z M161.69,131.36c-5.63-0.43-10.74-0.82-16.06-1.22V93.77c5.11,1.95,10.09,3.8,15,5.81
			c0.56,0.23,1.02,1.41,1.03,2.16C161.71,111.42,161.69,121.09,161.69,131.36z M172.02,132.47c-1.94-0.21-3.64-0.4-5.61-0.61
			c0-10.77-0.1-21.25,0.07-31.72c0.04-2.76-0.74-4.06-3.44-4.99c-7.53-2.57-7.45-2.71-7.41-10.69c0.03-9.71,0.07-19.43-0.06-29.14
			c-0.03-2.56,0.66-4,3.26-4.83c4.27-1.36,8.42-3.14,13.2-4.97V132.47z M186.59,83.45c0.15,16.83,0.07,33.65,0.07,51.12
			c-3.53-0.51-6.57-0.95-9.78-1.41V45.46c5.35,2.05,10.27,3.85,15.11,5.88c0.64,0.26,1.18,1.58,1.2,2.42
			c0.14,7.12,0.26,14.24,0.06,21.36c-0.03,0.99-1.73,2.53-2.89,2.79C187.15,78.64,186.56,80.43,186.59,83.45z M207.53,138.54
			c-5.42-1.06-10.62-2.07-16.16-3.15v-9.06c0-13.44,0.07-26.89-0.06-40.34c-0.02-2.48,0.71-3.65,3.09-4.43
			c4.27-1.39,8.41-3.17,13.13-4.98V138.54z"/>
	</g>
</g>
<g id="Layer_15">
</g>
</svg>
