<?xml version="1.0" encoding="utf-8"?>
<!-- Generator: Adobe Illustrator 27.8.1, SVG Export Plug-In . SVG Version: 6.00 Build 0)  -->
<svg version="1.1" xmlns="http://www.w3.org/2000/svg" xmlns:xlink="http://www.w3.org/1999/xlink" x="0px" y="0px"
	 viewBox="0 0 350 230" style="enable-background:new 0 0 350 230;" xml:space="preserve">
<style type="text/css">
	.st0{fill:#B50004;}
	.st1{fill:#00A651;}
	.st2{fill:#18466B;}
	.st3{fill:#FFFFFF;}
	.st4{fill:#26AFDF;}
	.st5{fill:#767676;}
	.st6{fill:#00184F;}
	.st7{fill:#009CC6;}
	.st8{display:none;fill:#18466B;}
	.st9{font-family:'MagicalMysteryTour';}
	.st10{font-size:25px;}
	.st11{fill:#A97C50;}
	.st12{fill:#603913;}
	.st13{fill:#00183A;}
	.st14{fill:#5B5B5B;}
	.st15{fill:#E50000;}
	.st16{fill:#163A7A;}
	.st17{fill:#683600;}
	.st18{fill:#02025E;}
	.st19{fill:#F7941D;}
	.st20{fill:#245EB2;}
	.st21{fill:#00187C;}
	.st22{fill:#0099A5;}
	.st23{fill:#4F2400;}
	.st24{fill:#002F33;}
	.st25{fill:#809103;}
	.st26{fill:#7C2600;}
	.st27{fill:#FAD974;}
	.st28{fill:#E65100;}
	.st29{fill:#29ABE2;}
	.st30{fill:#0071BC;}
	.st31{fill:#0C2E3A;}
</style>
<g id="Logo1">
</g>
<g id="Logo2">
</g>
<g id="Logo3">
</g>
<g id="Logo4">
</g>
<g id="Logo5">
	<path class="st2" d="M161.3,87.99c8.5,4.47,17.06,8.85,25.43,13.56c0.91,0.51,1.06,2.9,1.07,4.41c0.08,16.5,0.11,33.01,0,49.51
		c-0.01,1.63-0.53,4.05-1.66,4.76c-7.58,4.76-15.38,9.16-24.16,14.3c0-12.4,0.06-23.46-0.01-34.52c-0.12-17.41-0.33-34.83-0.5-52.24
		L161.3,87.99z M211.29,87.66c1.41-0.88,2.67-3.22,2.7-4.91c0.21-14.4,0.17-28.81,0.04-43.22c-0.01-1.37-0.78-3.33-1.84-3.99
		c-7.57-4.68-15.31-9.08-23.56-13.91c0,26.78,0,52.28,0,79.21C196.95,96.06,204.24,92.06,211.29,87.66z M237.63,126.77
		c1.41-0.88,2.67-3.22,2.7-4.91c0.21-14.4,0.17-2.32,0.04-16.72c-0.01-1.37-0.78-3.33-1.84-3.99c-7.57-4.68-15.31-9.08-23.56-13.91
		c0,26.78,0,25.78,0,52.72C223.29,135.17,230.58,131.16,237.63,126.77z M132.25,146.12c1.62-1.05,2.68-4.1,2.73-6.25
		c0.27-11.12,0.21-22.25,0.06-33.38c-0.03-1.87-0.48-4.64-1.73-5.43c-7.52-4.77-15.34-9.09-23.8-13.99c0,24.46,0,47.76,0,72.4
		C117.6,154.8,125.12,150.75,132.25,146.12z M161.31,87.98c0.03-8.13,0.16-16.26-0.02-24.38c-0.04-1.87-0.58-4.62-1.87-5.43
		c-7.51-4.76-15.3-9.06-23.41-13.75c0,19.12,0,37.11,0,56.31c3.7-2.08,6.58-3.86,9.6-5.36c5.24-2.62,10.56-5.07,15.85-7.6
		C161.46,87.78,161.3,87.99,161.31,87.98z"/>
	<text transform="matrix(1 0 0 1 11.8771 198.1193)" class="st8 st9 st10">Construction &amp; Handyman</text>
</g>
<g id="Logo6">
</g>
<g id="Logo7">
</g>
<g id="Logo8">
</g>
<g id="Logo9">
</g>
<g id="Logo10">
</g>
<g id="Logo11">
</g>
<g id="Logo12">
</g>
<g id="Logo13">
</g>
<g id="Layer_14">
</g>
<g id="Layer_15">
</g>
</svg>
