<?xml version="1.0" encoding="utf-8"?>
<!-- Generator: Adobe Illustrator 27.8.1, SVG Export Plug-In . SVG Version: 6.00 Build 0)  -->
<svg version="1.1" xmlns="http://www.w3.org/2000/svg" xmlns:xlink="http://www.w3.org/1999/xlink" x="0px" y="0px"
	 viewBox="0 0 350 230" style="enable-background:new 0 0 350 230;" xml:space="preserve">
<style type="text/css">
	.st0{fill:#B50004;}
	.st1{fill:#00A651;}
	.st2{fill:#18466B;}
	.st3{fill:#FFFFFF;}
	.st4{fill:#26AFDF;}
	.st5{fill:#767676;}
	.st6{fill:#00184F;}
	.st7{fill:#009CC6;}
	.st8{display:none;fill:#00184F;}
	.st9{font-family:'Magnolia-Script';}
	.st10{font-size:25px;}
	.st11{fill:#A97C50;}
	.st12{fill:#603913;}
	.st13{fill:#00183A;}
	.st14{fill:#5B5B5B;}
	.st15{fill:#E50000;}
	.st16{fill:#163A7A;}
	.st17{fill:#683600;}
	.st18{fill:#02025E;}
	.st19{fill:#F7941D;}
	.st20{fill:#245EB2;}
	.st21{fill:#00187C;}
	.st22{fill:#0099A5;}
	.st23{fill:#4F2400;}
	.st24{fill:#002F33;}
	.st25{fill:#809103;}
	.st26{fill:#7C2600;}
	.st27{fill:#FAD974;}
	.st28{fill:#E65100;}
	.st29{fill:#29ABE2;}
	.st30{fill:#0071BC;}
	.st31{fill:#0C2E3A;}
</style>
<g id="Logo1">
</g>
<g id="Logo2">
</g>
<g id="Logo3">
</g>
<g id="Logo4">
	<path class="st6" d="M148.89,145.1c-14.42-6.48-28.74-9.79-43.71-2.76c-0.1-0.32-0.2-0.63-0.3-0.95c2.94-1.5,5.8-3.24,8.85-4.45
		c3.09-1.22,6.38-1.93,9.87-2.95c0-8.47,0.15-16.98-0.08-25.48c-0.08-2.95,0.88-4.32,3.63-5.11c2.95-0.85,5.78-2.15,9.57-3.61
		c-2.01-0.29-3.09-0.44-4.51-0.64c0-7.23-0.06-14.4,0.09-21.56c0.01-0.71,1.16-1.68,1.99-2.04c3.28-1.42,6.64-2.64,11-4.33
		c-2.07-0.29-3.14-0.44-4.57-0.64c0-4.71-0.26-9.5,0.15-14.23c0.14-1.62,1.89-3.17,3.05-4.63c1.41-1.77,2.98-3.4,4.97-5.64
		C148.89,79.37,148.89,111.97,148.89,145.1z M140.12,152.82c7.27,3.38,14.4,7.11,21.73,10.36c14.06,6.24,28.71,9.21,44.13,7.11
		c2.65-0.36,5.27-1,7.9-1.51c-1.9-0.38-3.67-0.12-5.45,0.02c-16.65,1.29-31.9-3.39-46.77-10.43c-10.03-4.75-20.33-9.04-30.79-12.7
		c-6.68-2.34-13.85-1.91-20.68,0.49C120.88,145.46,130.67,148.43,140.12,152.82z"/>
	<path class="st7" d="M152.98,126.44c-0.01,0.65-0.03,1.3-0.04,1.94C152.91,127.64,152.93,126.99,152.98,126.44z M190.74,158.45
		c-1.97-0.5-2.59-1.61-2.57-3.61c0.1-8.39,0.05-16.78,0.05-25.18c0-1.86,0-3.73,0-5.62c-3.91,0-7.3,0-10.96,0
		c0,10.97-0.03,21.62,0.07,32.28c0.01,0.8,0.85,2.06,1.57,2.31c9.57,3.3,19.4,4.92,29.24,4.35
		C202.51,161.5,196.63,159.93,190.74,158.45z M171.85,154.53c0.01,0.97,1.86,1.91,2.85,2.87c0.38-0.25,0.76-0.5,1.13-0.75
		c0-11.44,0-22.88,0-34.39c2.41-0.12,4.4-0.22,6.59-0.33c0-3,0-5.81,0-8.85c-3.55,0-6.95,0-10.7,0
		C171.72,127.03,171.66,140.78,171.85,154.53z M201.56,155.56c0.08-19.13,0.1-43.22,0-62.34c-0.01-2.47,0.72-3.65,3.12-4.31
		c4.27-1.17,8.46-2.66,13.29-4.22c0.07,1.62,0.18,2.77,0.18,3.92c0.01,20.66,0.01,46.29,0.01,66.94H201.56z M225.53,41.17v114.38
		h-4.84c0-21.83,0-48.61,0-70.44c0-1.16-0.09-2.32-0.17-3.93c-6.28,2.02-12.15,4.08-18.12,5.76c-2.69,0.77-3.46,2.03-3.44,4.78
		c0.12,19.62,0.03,44.21,0.12,63.83h-4.88c-0.01-30.73,0.03-66.43-0.07-97.15c-0.01-2.67,0.72-4.02,3.23-5.06
		C206.55,49.54,215.62,45.48,225.53,41.17z M241.26,155.56h-14.22V72.31c4.8,2.62,9.05,4.76,13.05,7.28
		c0.85,0.53,1.12,2.47,1.12,3.76C241.28,105.77,241.26,133.14,241.26,155.56z M245.12,155.56h-2.71c0-22.64-0.04-50.25,0.05-72.89
		c0-2.51-0.78-3.83-3.01-5c-9.05-4.78-9-4.85-8.35-15.04c0.01-0.2,0.21-0.4,0.52-0.99c4.25,2.67,8.55,5.22,12.62,8.08
		c0.76,0.54,0.85,2.34,0.85,3.57C245.12,99.04,245.12,129.79,245.12,155.56z M167.12,46.14c0-1.17,0.09-2.67-0.55-3.45
		c-4.64-5.55-9.47-10.96-14.66-16.9v120.44c0,0.04,0.08,0.05,0.18,0.05h0.81v-2.16c0-0.38-0.01-0.75-0.01-1.12
		c0.02-4.87-0.04-9.75,0.03-14.62c0.02-1.56-0.12-3.52,0.95-4.79c0.43-0.51,0.95-0.56,1.54-0.75c0.09-0.03,0.17-0.06,0.26-0.09
		c2.37-0.89,2.69-2.67,2.69-2.67v-8.27c0-0.28,0-0.56-0.01-0.85c-0.05-2.16-0.12-4.35,1.23-6.16c1.09-1.47,2.76-2.45,4.45-3.05
		c2.43-0.87,3.24-2.56,3.22-5.24C167.12,79.72,167.17,62.93,167.12,46.14z M170.14,101.22c-0.7,0.29-1.39,0.57-2.08,0.87
		c-0.77,0.33-1.54,0.67-2.3,1.05c-0.61,0.3-1.21,0.62-1.79,0.99c-0.47,0.3-0.93,0.63-1.34,1.02c-0.36,0.34-0.69,0.72-0.96,1.13
		c-0.27,0.42-0.48,0.87-0.64,1.34c-0.18,0.53-0.3,1.08-0.39,1.63c-0.1,0.67-0.16,1.34-0.2,2.01c-0.05,0.9-0.07,1.8-0.07,2.7
		c-0.02,1.31-0.06,2.63,0,3.94c0.03,0.66,0.05,1.33-0.01,1.99c-0.1,1.16-0.42,2.37-1.23,3.24c-0.11,0.08-0.21,0.16-0.33,0.23
		c-0.09,0.07-0.19,0.13-0.29,0.18c-0.12,0.07-0.25,0.13-0.38,0.19c-2.12,1.05-3.24,1.54-3.38,4.59c0,0.02,0,0.05,0,0.08v0.06
		c-0.16,5.77-0.1,11.55-0.04,17.33c0,0.63,0.11,1.46,0.51,1.97c0.37,0.48,0.95,0.75,1.48,1.02c4.43,2.31,8.94,4.46,13.42,6.68
		c0-13.82,0-26.89,0-39.95c0-0.75-0.01-1.5,0.02-2.24V101.22z"/>
	<text transform="matrix(1 0 0 1 28.59 195.4528)" class="st8 st9 st10">Construction &amp; Handyman</text>
</g>
<g id="Logo5">
</g>
<g id="Logo6">
</g>
<g id="Logo7">
</g>
<g id="Logo8">
</g>
<g id="Logo9">
</g>
<g id="Logo10">
</g>
<g id="Logo11">
</g>
<g id="Logo12">
</g>
<g id="Logo13">
</g>
<g id="Layer_14">
</g>
<g id="Layer_15">
</g>
</svg>
