<?xml version="1.0" encoding="utf-8"?>
<!-- Generator: Adobe Illustrator 27.8.1, SVG Export Plug-In . SVG Version: 6.00 Build 0)  -->
<svg version="1.1" xmlns="http://www.w3.org/2000/svg" xmlns:xlink="http://www.w3.org/1999/xlink" x="0px" y="0px"
	 viewBox="0 0 350 230" style="enable-background:new 0 0 350 230;" xml:space="preserve">
<style type="text/css">
	.st0{fill:#B50004;}
	.st1{fill:#00A651;}
	.st2{fill:#18466B;}
	.st3{fill:#FFFFFF;}
	.st4{fill:#26AFDF;}
	.st5{fill:#767676;}
	.st6{fill:#00184F;}
	.st7{fill:#009CC6;}
	.st8{fill:#A97C50;}
	.st9{fill:#603913;}
	.st10{fill:#00183A;}
	.st11{fill:#5B5B5B;}
	.st12{fill:#E50000;}
	.st13{fill:#163A7A;}
	.st14{fill:#683600;}
	.st15{fill:#02025E;}
	.st16{fill:#F7941D;}
	.st17{fill:#245EB2;}
	.st18{fill:#00187C;}
	.st19{fill:#0099A5;}
	.st20{fill:#4F2400;}
	.st21{fill:#002F33;}
	.st22{fill:#809103;}
	.st23{fill:#7C2600;}
	.st24{fill:#FAD974;}
	.st25{fill:#E65100;}
	.st26{fill:#29ABE2;}
	.st27{fill:#0071BC;}
	.st28{fill:#0C2E3A;}
	.st29{display:none;fill:#29ABE2;}
	.st30{font-family:'Magnolia-Script';}
	.st31{font-size:25px;}
</style>
<g id="Logo1">
</g>
<g id="Logo2">
</g>
<g id="Logo3">
</g>
<g id="Logo4">
</g>
<g id="Logo5">
</g>
<g id="Logo6">
</g>
<g id="Logo7">
</g>
<g id="Logo8">
</g>
<g id="Logo9">
</g>
<g id="Logo10">
</g>
<g id="Logo11">
</g>
<g id="Logo12">
</g>
<g id="Logo13">
</g>
<g id="Layer_14">
</g>
<g id="Layer_15">
	<g>
		<path class="st26" d="M152.68,64.06c-0.46,0.44-0.83,0.79-1.2,1.14c-6.57,6.1-13.13,12.21-19.7,18.32
			c-5.74,5.33-11.49,10.64-17.22,15.97c-3.26,3.03-6.53,6.06-9.79,9.1c-0.9,0.83-1.8,1.67-2.7,2.52h7.56
			c0.85-0.84,1.69-1.68,2.54-2.52c6.45-6.42,12.91-12.85,19.35-19.27c1.09-1.08,2.13-2.21,3.23-3.27c1.06-1.03,2.58-0.69,3.13,0.65
			c0.34,0.83,0.04,1.5-0.54,2.08c-1.63,1.66-3.28,3.31-4.92,4.95c-4.97,4.96-9.94,9.91-14.91,14.86c-0.84,0.84-1.69,1.68-2.53,2.52
			h29.18c0.65-0.84,1.29-1.68,1.93-2.52c4.83-6.29,9.66-12.59,14.49-18.88c2.57-3.35,5.14-6.71,7.66-10.01
			C163.08,74.51,157.9,69.3,152.68,64.06z M140.56,81.27c0.86-0.94,1.79-1.82,2.68-2.72c0.49-0.5,1.12-0.56,1.63-0.22
			c0.47,0.32,0.78,0.87,1.18,1.34c-0.29,0.51-0.42,0.9-0.68,1.17c-0.83,0.89-1.69,1.75-2.57,2.59c-0.77,0.74-1.52,0.72-2.23,0.02
			C139.91,82.8,139.87,82.02,140.56,81.27z M198.4,48.2c-0.75-0.85-1.57-1.64-2.38-2.44c-5.21-5.21-10.43-10.44-15.67-15.62
			c-0.57-0.56-1.29-1.07-2.03-1.34c-1.85-0.66-3.49-0.17-4.89,1.22c-6.79,6.81-13.6,13.61-20.38,20.43
			c-0.46,0.46-0.86,1.09-1.05,1.71c-0.6,1.9-0.26,3.62,1.21,5.07c2.33,2.29,4.63,4.6,6.95,6.9c3.78,3.75,7.58,7.5,11.36,11.26
			c0.93,0.92,1.99,1.5,3.2,1.48c1.6,0.02,2.6-0.39,3.69-1.5c1.68-1.73,3.35-3.47,5.03-5.19c4.95-5.05,9.92-10.07,14.85-15.13
			C200.18,53.1,200.2,50.26,198.4,48.2z M173.25,65.66c-0.36,0.77-0.97,1.15-1.89,1.3c-0.46-0.23-1.03-0.36-1.38-0.71
			c-2.61-2.55-5.2-5.13-7.76-7.73c-0.86-0.87-0.8-1.94,0.02-2.79c0.74-0.77,1.93-0.84,2.75-0.03c2.66,2.59,5.28,5.22,7.9,7.85
			C173.48,64.15,173.62,64.88,173.25,65.66z M185.05,54.27c-0.75,0.8-2.11,0.91-2.92,0.17c-0.88-0.8-1.69-1.68-2.54-2.52
			c-1.94-1.91-3.89-3.81-5.82-5.73c-0.43-0.44-0.91-0.92-1.11-1.47c-0.45-1.25,0.6-2.53,2.04-2.68c0.48,0.26,1.05,0.44,1.43,0.8
			c2.96,2.9,5.9,5.82,8.82,8.75C185.73,52.37,185.73,53.54,185.05,54.27z M188.83,47.77c-0.66,0.72-1.71,0.82-2.44,0.13
			c-1.25-1.18-2.46-2.42-3.66-3.67c-0.44-0.46-0.6-1.03-0.28-1.64c0.35-0.65,0.9-1,1.84-1.05c0.24,0.14,0.67,0.32,0.98,0.61
			c1.15,1.1,2.27,2.22,3.38,3.35C189.39,46.25,189.44,47.1,188.83,47.77z M170.77,25.36c-2.86-0.58-5.69-1.33-8.57-1.69
			c-6.54-0.82-12.95,0.04-19.21,2.02c-5.05,1.59-9.66,4.06-13.94,7.14c-1.6,1.16-3.13,2.44-4.56,3.8c-0.95,0.9-0.98,2.16-0.4,3.14
			c0.54,0.9,1.61,1.22,2.92,1.03c3.05-0.46,6.1-1.03,9.17-1.24c6.09-0.43,11.99,0.52,17.65,2.87c0.49,0.21,0.81,0.12,1.18-0.26
			c5.43-5.55,10.87-11.08,16.32-16.62C171.14,25.47,170.96,25.39,170.77,25.36z M218.93,74.34c-1.68-1.72-3.38-3.43-5.09-5.13
			c-1.78-1.77-3.37-1.79-5.16-0.03c-2.88,2.85-5.74,5.74-8.6,8.6c-2.65,2.65-5.32,5.28-7.94,7.95c-1.3,1.32-1.3,3.1,0,4.41
			c2.06,2.07,4.14,4.12,6.26,6.14c1.33,1.27,3.26,1.38,4.75,0.34c0.4-0.27,0.76-0.59,1.1-0.93c4.87-4.92,9.73-9.85,14.6-14.77
			c0.9-0.92,1.53-1.97,1.48-3.35C220.41,76.28,219.81,75.24,218.93,74.34z M196.74,60.74c-4.11,4.05-8.3,8.18-12.5,12.32
			c2.48,2.46,4.93,4.9,7.29,7.24c4.15-4.13,8.3-8.27,12.57-12.52C201.6,65.39,199.1,62.99,196.74,60.74z"/>
		<path class="st27" d="M111.58,122.67c-1.5,0.02-2.83,1.34-2.8,2.76c0.04,1.67,1.29,2.91,2.92,2.9c1.6-0.01,2.81-1.23,2.79-2.82
			C114.47,123.96,113.12,122.65,111.58,122.67z M111.58,122.67c-1.5,0.02-2.83,1.34-2.8,2.76c0.04,1.67,1.29,2.91,2.92,2.9
			c1.6-0.01,2.81-1.23,2.79-2.82C114.47,123.96,113.12,122.65,111.58,122.67z M74.61,108.59v58.03h200.78v-58.03H74.61z
			 M243.27,149.33c-7.13,0-12.92-5.79-12.92-12.92s5.79-12.91,12.92-12.91s12.91,5.78,12.91,12.91S250.4,149.33,243.27,149.33z
			 M109.63,111.11c-1.85,1.85-3.71,3.7-5.56,5.54c-1.31,1.31-2.61,2.61-3.91,3.92c-0.6,0.62-0.69,1.36-0.34,2.12
			c0.32,0.71,0.89,1.08,1.79,1.2c0.47-0.27,0.99-0.48,1.41-0.81c0.48-0.39,0.86-0.9,1.3-1.34c3.55-3.54,7.11-7.08,10.66-10.63h29.18
			c-2.19,2.85-4.38,5.71-6.57,8.57c-5.18,6.75-10.34,13.51-15.48,20.28c-1.46,1.92-3.25,3.22-5.67,3.56
			c-2.35,0.33-4.43-0.32-6.1-1.95c-4.98-4.89-9.92-9.82-14.84-14.77c-2.77-2.8-2.7-7.02,0.18-9.73c2.13-1.99,4.26-3.98,6.39-5.96
			H109.63z M111.7,128.33c1.6-0.01,2.81-1.23,2.79-2.82c-0.02-1.55-1.37-2.86-2.91-2.84c-1.5,0.02-2.83,1.34-2.8,2.76
			C108.82,127.1,110.07,128.34,111.7,128.33z"/>
		<path class="st28" d="M111.58,122.67c-1.5,0.02-2.83,1.34-2.8,2.76c0.04,1.67,1.29,2.91,2.92,2.9c1.6-0.01,2.81-1.23,2.79-2.82
			C114.47,123.96,113.12,122.65,111.58,122.67z M109.63,111.11c-1.85,1.85-3.71,3.7-5.56,5.54c-1.31,1.31-2.61,2.61-3.91,3.92
			c-0.6,0.62-0.69,1.36-0.34,2.12c0.32,0.71,0.89,1.08,1.79,1.2c0.47-0.27,0.99-0.48,1.41-0.81c0.48-0.39,0.86-0.9,1.3-1.34
			c3.55-3.54,7.11-7.08,10.66-10.63H109.63z M144.16,111.11c-2.19,2.85-4.38,5.71-6.57,8.57c-5.18,6.75-10.34,13.51-15.48,20.28
			c-1.46,1.92-3.25,3.22-5.67,3.56c-2.35,0.33-4.43-0.32-6.1-1.95c-4.98-4.89-9.92-9.82-14.84-14.77c-2.77-2.8-2.7-7.02,0.18-9.73
			c2.13-1.99,4.26-3.98,6.39-5.96H76.6v52.99h196.12v-52.99H144.16z M243.27,149.33c-7.13,0-12.92-5.79-12.92-12.92
			s5.79-12.91,12.92-12.91s12.91,5.78,12.91,12.91S250.4,149.33,243.27,149.33z"/>
	</g>
	<text transform="matrix(1 0 0 1 28.5898 197.8841)" class="st29 st30 st31">Construction &amp; Handyman</text>
</g>
</svg>
