<?xml version="1.0" encoding="utf-8"?>
<!-- Generator: Adobe Illustrator 27.8.1, SVG Export Plug-In . SVG Version: 6.00 Build 0)  -->
<svg version="1.1" xmlns="http://www.w3.org/2000/svg" xmlns:xlink="http://www.w3.org/1999/xlink" x="0px" y="0px"
	 viewBox="0 0 350 230" style="enable-background:new 0 0 350 230;" xml:space="preserve">
<style type="text/css">
	.st0{fill:#B50004;}
	.st1{fill:#00A651;}
	.st2{fill:#18466B;}
	.st3{fill:#FFFFFF;}
	.st4{fill:#26AFDF;}
	.st5{fill:#767676;}
	.st6{fill:#00184F;}
	.st7{fill:#009CC6;}
	.st8{fill:#A97C50;}
	.st9{fill:#603913;}
	.st10{fill:#00183A;}
	.st11{fill:#5B5B5B;}
	.st12{fill:#E50000;}
	.st13{fill:#163A7A;}
	.st14{fill:#683600;}
	.st15{fill:#02025E;}
	.st16{fill:#F7941D;}
	.st17{fill:#245EB2;}
	.st18{fill:#00187C;}
	.st19{fill:#0099A5;}
	.st20{fill:#4F2400;}
	.st21{fill:#002F33;}
	.st22{fill:#809103;}
	.st23{fill:#7C2600;}
	.st24{display:none;fill:#7C2600;}
	.st25{font-family:'MyriadPro-Regular';}
	.st26{font-size:30px;}
	.st27{fill:#FAD974;}
	.st28{fill:#E65100;}
	.st29{fill:#29ABE2;}
	.st30{fill:#0071BC;}
	.st31{fill:#0C2E3A;}
</style>
<g id="Logo1">
</g>
<g id="Logo2">
</g>
<g id="Logo3">
</g>
<g id="Logo4">
</g>
<g id="Logo5">
</g>
<g id="Logo6">
</g>
<g id="Logo7">
</g>
<g id="Logo8">
</g>
<g id="Logo9">
</g>
<g id="Logo10">
</g>
<g id="Logo11">
</g>
<g id="Logo12">
</g>
<g id="Logo13">
	<g>
		<path class="st22" d="M225.48,121.13l-1.82,7.87h-20.32c-3.91,0-3.68,3.68-3.68,3.68v19.02h-84.19V71.9h10.94l-1.25-4.52h-10.34
			c-4.92,0-4.52,4.52-4.52,4.52v78.71c0,6.39,5.72,5.73,5.72,5.73h82.49c4.03-0.04,5.48-1.26,5.48-1.26l23.34-21.11
			C232.83,127.34,225.48,121.13,225.48,121.13z M203.6,149.7c0-17.02,1.22-17.63,18.84-17.02
			C216.83,137.83,208.74,144.96,203.6,149.7z M229.36,94.3l0-22.4c0,0,0.4-4.52-4.52-4.52l-10.34,0l-1.25,4.52h10.94l0,22.05
			 M192.05,142.4h-69.29v-3.65h69.29V142.4z M192.05,136.32h-69.29v-3.65h69.29V136.32z"/>
		<path class="st23" d="M147.48,110.53c-2.67,1.8-5.38,5.09-7.99,5.01c-2.91-0.09-5.73-3.24-8.59-5.05
			c0.36-0.69,0.71-1.37,1.07-2.06c4.79,0,9.57,0,14.36,0C146.71,109.13,147.1,109.83,147.48,110.53z M146.47,65.82h-14.59v41.33
			h14.59V65.82z M139.17,49.41c-4.2,0-7.6,3.4-7.6,7.6s3.4,7.6,7.6,7.6s7.6-3.4,7.6-7.6S143.37,49.41,139.17,49.41z M239.71,118.71
			l-70.95,0.01c-2.3,0-4.46-1.23-5.52-3.28c-2.33-4.47-1.93-10.11-1.93-10.11V95l-3.89-2.84l3.92-3.97l-3.92-4.02l3.65-3.95
			l-3.4-4.18l3.63-3.5l-3.87-3.96l3.96-3.76l-3.95-4.28l4.03-3.52c-4.04-3.32-4.06-9.3-4.06-9.41V35.61L239.71,118.71z
			 M182.27,105.33c8.45,0,25.47,0,25.47,0l-33.93-30.33v22.49C173.82,97.48,173.82,105.33,182.27,105.33z"/>
	</g>
	<text transform="matrix(1 0 0 1 9.5224 186.8888)" class="st24 st25 st26">Construction &amp; Handyman</text>
</g>
<g id="Layer_14">
</g>
<g id="Layer_15">
</g>
</svg>
