<?xml version="1.0" encoding="utf-8"?>
<!-- Generator: Adobe Illustrator 27.8.1, SVG Export Plug-In . SVG Version: 6.00 Build 0)  -->
<svg version="1.1" xmlns="http://www.w3.org/2000/svg" xmlns:xlink="http://www.w3.org/1999/xlink" x="0px" y="0px"
	 viewBox="0 0 350 230" style="enable-background:new 0 0 350 230;" xml:space="preserve">
<style type="text/css">
	.st0{fill:#FFFFFF;}
	.st1{fill:#FCBEF3;}
	.st2{fill:#007769;}
	.st3{fill:#990000;}
	.st4{fill:#EE388C;}
	.st5{fill:#4862AD;}
	.st6{fill:#EE4B9B;}
	.st7{fill:#FAEE35;}
	.st8{fill:#01A79D;}
	.st9{fill:#8FC640;}
	.st10{fill:#EC2227;}
	.st11{fill:#E7BD20;}
	.st12{fill:#DC8927;}
	.st13{fill:#2F99D5;}
	.st14{fill:#663366;}
	.st15{fill:#FFC907;}
	.st16{fill:#4B83C3;}
	.st17{fill:#F0535B;}
	.st18{fill:#A92990;}
	.st19{fill:#E16E25;}
	.st20{fill:#426CB4;}
	.st21{fill:#E9292B;}
	.st22{fill:#0F77B7;}
	.st23{fill:#EF4A6C;}
	.st24{fill:#65C5B3;}
	.st25{fill:#965724;}
	.st26{fill:#F1A422;}
	.st27{fill:#18479E;}
	.st28{fill:#64C5B2;}
	.st29{fill:#FAE072;}
	.st30{fill:#EF496E;}
	.st31{fill:#231F20;}
	.st32{fill-rule:evenodd;clip-rule:evenodd;fill:#5C493A;}
	.st33{fill-rule:evenodd;clip-rule:evenodd;fill:#F26767;}
	.st34{fill-rule:evenodd;clip-rule:evenodd;fill:#87C443;}
	.st35{fill-rule:evenodd;clip-rule:evenodd;fill:#EE3E96;}
	.st36{fill-rule:evenodd;clip-rule:evenodd;fill:#2195D2;}
	.st37{fill-rule:evenodd;clip-rule:evenodd;fill:#FFCD05;}
	.st38{fill-rule:evenodd;clip-rule:evenodd;fill:#83C341;}
	.st39{fill-rule:evenodd;clip-rule:evenodd;fill:#0F77B7;}
	.st40{fill-rule:evenodd;clip-rule:evenodd;fill:#ED8D36;}
	.st41{fill-rule:evenodd;clip-rule:evenodd;fill:#3CA356;}
	.st42{fill-rule:evenodd;clip-rule:evenodd;fill:#7F4A25;}
	.st43{fill-rule:evenodd;clip-rule:evenodd;fill:#A3B539;}
	.st44{fill-rule:evenodd;clip-rule:evenodd;fill:#FAAF37;}
	.st45{fill-rule:evenodd;clip-rule:evenodd;fill:#0BB4A1;}
	.st46{fill:#00A9CB;}
	.st47{fill:#79AA41;}
	.st48{fill:#CD8F2A;}
	.st49{fill:#0393B0;}
	.st50{fill:#E82F7B;}
	.st51{fill:#D7DF2A;}
	.st52{fill:#8DC443;}
	.st53{fill:#F0A422;}
	.st54{fill:#3A3A3B;}
	.st55{fill:#29AAE1;}
	.st56{fill:#E9246E;}
</style>
<g id="Layer_1">
</g>
<g id="Layer_2">
</g>
<g id="Layer_3">
</g>
<g id="Layer_4">
</g>
<g id="Layer_5">
</g>
<g id="Layer_6">
</g>
<g id="Layer_7">
</g>
<g id="Layer_8">
</g>
<g id="Layer_9">
	<g>
		<path class="st23" d="M51.87,108.1c5.88,0,10.6-5.02,10.6-11.27c0-6.26-4.73-11.23-10.6-11.23s-10.6,5.02-10.6,11.23
			S46,108.1,51.87,108.1z M50.78,125.01c0.43-7.02,6.5-12.32,13.47-11.89c0.24,0,0.48,0.05,0.72,0.05
			c6.35,0.62,12.47,2.82,17.82,6.31c0,0-10.32-10.27-33.29-9.7c-1.82-0.05-5.83,0.38-5.73,0.48c-21.64,5.45,23.02,54.02,23.02,54.02
			C54.02,144.83,50.35,132.65,50.78,125.01z"/>
		<path class="st24" d="M67.83,145.5c0.29-5.16,4.73-9.12,9.89-8.79c0.19,0,0.43,0.05,0.62,0.05c4.68,0.53,9.17,2.1,13.14,4.68
			c0,0-7.55-7.55-24.6-7.21c-1.34-0.05-4.25,0.24-4.2,0.38c-16,4.01,17,39.93,17,39.93C70.22,160.16,67.49,151.14,67.83,145.5z
			 M68.59,133.03c4.3,0,7.83-3.73,7.83-8.31c0-4.59-3.53-8.31-7.83-8.31s-7.83,3.73-7.83,8.31
			C60.76,129.31,64.29,133.03,68.59,133.03z"/>
		<path class="st25" d="M81.78,146.74c-2.2-0.29-3.77-2.29-3.49-4.49c0.24-1.82,1.67-3.3,3.49-3.49c2.2,0.29,3.77,2.29,3.49,4.49
			C85.07,145.07,83.59,146.5,81.78,146.74z M82.16,152.81c-0.1-2.48-2.2-4.39-4.68-4.3c-0.1,0-0.24,0-0.33,0.05
			c-2.25,0.24-4.44,1.05-6.35,2.29c0,0,3.68-3.68,11.85-3.49l2.05,0.19c7.69,1.91-8.22,19.25-8.22,19.25
			C81.01,159.88,82.25,155.48,82.16,152.81z"/>
		<path class="st26" d="M33.96,106.9c0-28.04,21.21-50.82,47.34-50.82s47.34,22.78,47.34,50.82c0.05,11.75-3.82,23.17-10.99,32.48
			c9.12-10.32,14.09-23.64,14.04-37.4c0-29.85-22.59-54.07-50.39-54.07S30.9,72.13,30.9,101.98c-0.1,13.76,4.92,27.08,14.04,37.4
			C37.74,130.07,33.87,118.65,33.96,106.9z M96.87,123c-3.58,0-6.54-3.1-6.54-6.97c0-3.87,2.91-6.97,6.54-6.97
			c3.58,0,6.54,3.1,6.54,6.97C103.41,119.9,100.5,123,96.87,123z M97.54,133.37c-0.24-4.25-3.87-7.55-8.12-7.31
			c-0.19,0-0.43,0.05-0.62,0.05c-3.92,0.38-7.69,1.72-10.99,3.92c0,0,6.31-6.35,20.49-6.02c1.1-0.05,3.53,0.19,3.53,0.29
			c13.37,3.34-14.19,33.29-14.19,33.29C95.58,145.69,97.78,138.09,97.54,133.37z"/>
		<path class="st27" d="M98.54,90.23c6.64,0,11.99-5.88,11.99-13.14s-5.35-13.09-11.99-13.09c-6.64,0-11.94,5.88-11.94,13.09
			C86.6,84.31,91.95,90.23,98.54,90.23z M122.38,98.93c-0.48-2.29-1.24-4.63-2.87-6.26c-1.62-1.62-4.97-2.77-7.79-2.67
			c-5.68,0.14-10.99,3.06-15,7.07c-4.01,4.01-11.61,14.38-14.28,19.35c3.44-4.63,9.84-10.99,14.76-13.95
			c2.05-1.24,4.3-2.34,6.64-2.2c3.53,0.19,6.4,3.25,7.55,6.59c1.15,3.34,0.72,7.07,0.19,10.56c-3.49,22.98-13.9,44.33-29.81,61.28
			c-14.04-8.26-34.87-35.92-34.87-35.92c7.5,11.7,17.48,22.59,24.89,29.9l-0.91-0.72l3.34,3.2c4.49,4.3,7.5,6.88,7.5,6.88v-0.14
			l0.19,0.19c0,0,11.46-10.65,15.43-15.91c7.5-9.89,15-19.82,20.16-31.1C122.62,123.77,125.19,110.96,122.38,98.93z"/>
	</g>
</g>
<g id="Layer_10">
</g>
<g id="Layer_11">
</g>
<g id="Layer_12">
</g>
<g id="Layer_13">
</g>
<g id="Layer_14">
</g>
<g id="Layer_15">
</g>
</svg>
