<?xml version="1.0" encoding="utf-8"?>
<!-- Generator: Adobe Illustrator 27.8.1, SVG Export Plug-In . SVG Version: 6.00 Build 0)  -->
<svg version="1.1" xmlns="http://www.w3.org/2000/svg" xmlns:xlink="http://www.w3.org/1999/xlink" x="0px" y="0px"
	 viewBox="0 0 350 230" style="enable-background:new 0 0 350 230;" xml:space="preserve">
<style type="text/css">
	.st0{fill:#FFFFFF;}
	.st1{fill:#FCBEF3;}
	.st2{fill:#007769;}
	.st3{fill:#990000;}
	.st4{fill:#EE388C;}
	.st5{fill:#4862AD;}
	.st6{fill:#EE4B9B;}
	.st7{fill:#FAEE35;}
	.st8{fill:#01A79D;}
	.st9{fill:#8FC640;}
	.st10{fill:#EC2227;}
	.st11{fill:#E7BD20;}
	.st12{fill:#DC8927;}
	.st13{fill:#2F99D5;}
	.st14{fill:#663366;}
	.st15{fill:#FFC907;}
	.st16{fill:#4B83C3;}
	.st17{fill:#F0535B;}
	.st18{fill:#A92990;}
	.st19{fill:#E16E25;}
	.st20{fill:#426CB4;}
	.st21{fill:#E9292B;}
	.st22{fill:#0F77B7;}
	.st23{fill:#EF4A6C;}
	.st24{fill:#65C5B3;}
	.st25{fill:#965724;}
	.st26{fill:#F1A422;}
	.st27{fill:#18479E;}
	.st28{fill:#64C5B2;}
	.st29{fill:#FAE072;}
	.st30{fill:#EF496E;}
	.st31{fill:#231F20;}
	.st32{fill-rule:evenodd;clip-rule:evenodd;fill:#5C493A;}
	.st33{fill-rule:evenodd;clip-rule:evenodd;fill:#F26767;}
	.st34{fill-rule:evenodd;clip-rule:evenodd;fill:#87C443;}
	.st35{fill-rule:evenodd;clip-rule:evenodd;fill:#EE3E96;}
	.st36{fill-rule:evenodd;clip-rule:evenodd;fill:#2195D2;}
	.st37{fill-rule:evenodd;clip-rule:evenodd;fill:#FFCD05;}
	.st38{fill-rule:evenodd;clip-rule:evenodd;fill:#83C341;}
	.st39{fill-rule:evenodd;clip-rule:evenodd;fill:#0F77B7;}
	.st40{fill-rule:evenodd;clip-rule:evenodd;fill:#ED8D36;}
	.st41{fill-rule:evenodd;clip-rule:evenodd;fill:#3CA356;}
	.st42{fill-rule:evenodd;clip-rule:evenodd;fill:#7F4A25;}
	.st43{fill-rule:evenodd;clip-rule:evenodd;fill:#A3B539;}
	.st44{fill-rule:evenodd;clip-rule:evenodd;fill:#FAAF37;}
	.st45{fill-rule:evenodd;clip-rule:evenodd;fill:#0BB4A1;}
	.st46{fill:#00A9CB;}
	.st47{fill:#79AA41;}
	.st48{fill:#CD8F2A;}
	.st49{fill:#0393B0;}
	.st50{fill:#E82F7B;}
	.st51{fill:#D7DF2A;}
	.st52{fill:#8DC443;}
	.st53{fill:#F0A422;}
	.st54{fill:#3A3A3B;}
	.st55{fill:#29AAE1;}
	.st56{fill:#E9246E;}
</style>
<g id="Layer_1">
</g>
<g id="Layer_2">
</g>
<g id="Layer_3">
</g>
<g id="Layer_4">
</g>
<g id="Layer_5">
</g>
<g id="Layer_6">
</g>
<g id="Layer_7">
</g>
<g id="Layer_8">
</g>
<g id="Layer_9">
</g>
<g id="Layer_10">
</g>
<g id="Layer_11">
</g>
<g id="Layer_12">
	<g>
		<g>
			<path class="st38" d="M92.07,57.9c11.18-0.05,22.16,3.31,31.38,9.63c-7.92-4.61-16.89-7.07-26.02-7.02
				c-28.62,0.05-51.83,23.26-51.78,51.88c0,22.61,14.69,42.61,36.29,49.38c0.5,0.15,1.1-0.05,1.85-0.25
				c15.09-1,23.16-14.49,34.49-11.33c-1.85,5.06-8.72,3.26-9.78,7.47c-1.7,7.17,9.22,2.26,11.03,1.45
				c9.78-4.21,19.05-15.54,22.86-10.38c-5.46,9.07-21.16,17.8-31.33,21.51c-9.02,3.26-19.95,1.8-28.52-1.15v-0.1
				c-30.48-5.16-50.93-34.09-45.77-64.52C41.39,77.55,64.75,57.85,92.07,57.9z M121.14,156.66L121.14,156.66
				c3.31-0.15,5.16-5.87,7.02-12.23C123.9,145.28,122.4,147.69,121.14,156.66z M134.68,148.24L134.68,148.24l1.4-6.42
				c-7.17,0-6.97,6.22-10.03,11.58C128.11,153.05,132.67,149.44,134.68,148.24z"/>
			<path class="st39" d="M108.01,147.13c5.41-21.21,30.23-32.79,47.87-38.15c3.41-1,15.84-5.11,18.7-5.06
				c-13.18-0.9-38.05,7.17-50.63,11.88c-12.58,4.71-15.24-2.51-14.04-14.79c1.2-12.28,5.92-20.15,9.73-31.83
				c-9.02,8.47-16.09,29.18-17.29,40.96c-0.75,6.47-0.6,12.98,0.45,19.4C103.55,134,105.6,143.88,108.01,147.13z M126.66,92.69
				c-11.33-1.1-18.15,20.85-6.02,19.9c3.06-0.25,9.12-3.81,11.28-7.92C134.73,99.51,132.98,93.34,126.66,92.69z"/>
			<path class="st40" d="M38.63,87.53c0.95,1.2,12.43,4.01,15.39,4.81c9.88,2.66,23.66,9.52,30.63,17.5
				c3.96,4.61,4.86,7.57,6.82,12.48c5.41-11.58,5.41-24.36,3.76-33.89c-1.1-6.47-6.87-23.66-12.88-27.82
				C83.1,63.97,97.43,95.6,84,97.91c-3.81,0.6-17.8-5.26-23.26-6.62C53.47,89.43,46.1,88.23,38.63,87.53z M84.05,94.05
				c6.42-9.32-5.31-19.05-10.88-15.34C65.35,84.02,74.57,95.45,84.05,94.05z"/>
			<path class="st41" d="M58.38,108.48c6.62,3.91,12.78,7.42,17.8,12.43c5.06,5.01,9.12,12.08,0.15,14.79
				c-8.97,2.71-25.62,8.07-32.58,14.69c3.51-2.66,19-7.37,24.36-8.47c10.08-2.06,17.9-2.96,29.28,4.16
				c-1.1-6.92-6.12-16.19-12.43-22.56c-3.36-3.46-7.17-6.47-11.28-8.92C67.56,111.04,62.79,110.54,58.38,108.48z M78.58,129.29
				c-1.75-2.96-2.56-5.11-6.92-6.32c-4.36-1.2-7.42-0.25-8.52,4.21C61.59,133.55,74.57,137.71,78.58,129.29z"/>
		</g>
	</g>
</g>
<g id="Layer_13">
</g>
<g id="Layer_14">
</g>
<g id="Layer_15">
</g>
</svg>
