<?xml version="1.0" encoding="utf-8"?>
<!-- Generator: Adobe Illustrator 27.8.1, SVG Export Plug-In . SVG Version: 6.00 Build 0)  -->
<svg version="1.1" xmlns="http://www.w3.org/2000/svg" xmlns:xlink="http://www.w3.org/1999/xlink" x="0px" y="0px"
	 viewBox="0 0 350 230" style="enable-background:new 0 0 350 230;" xml:space="preserve">
<style type="text/css">
	.st0{fill:#FFFFFF;}
	.st1{fill:#FCBEF3;}
	.st2{fill:#007769;}
	.st3{fill:#990000;}
	.st4{fill:#EE388C;}
	.st5{fill:#4862AD;}
	.st6{fill:#EE4B9B;}
	.st7{fill:#FAEE35;}
	.st8{fill:#01A79D;}
	.st9{fill:#8FC640;}
	.st10{fill:#EC2227;}
	.st11{fill:#E7BD20;}
	.st12{fill:#DC8927;}
	.st13{fill:#2F99D5;}
	.st14{fill:#663366;}
	.st15{fill:#FFC907;}
	.st16{fill:#4B83C3;}
	.st17{fill:#F0535B;}
	.st18{fill:#A92990;}
	.st19{fill:#E16E25;}
	.st20{fill:#426CB4;}
	.st21{fill:#E9292B;}
	.st22{fill:#0F77B7;}
	.st23{fill:#EF4A6C;}
	.st24{fill:#65C5B3;}
	.st25{fill:#965724;}
	.st26{fill:#F1A422;}
	.st27{fill:#18479E;}
	.st28{fill:#64C5B2;}
	.st29{fill:#FAE072;}
	.st30{fill:#EF496E;}
	.st31{fill:#231F20;}
	.st32{fill-rule:evenodd;clip-rule:evenodd;fill:#5C493A;}
	.st33{fill-rule:evenodd;clip-rule:evenodd;fill:#F26767;}
	.st34{fill-rule:evenodd;clip-rule:evenodd;fill:#87C443;}
	.st35{fill-rule:evenodd;clip-rule:evenodd;fill:#EE3E96;}
	.st36{fill-rule:evenodd;clip-rule:evenodd;fill:#2195D2;}
	.st37{fill-rule:evenodd;clip-rule:evenodd;fill:#FFCD05;}
	.st38{fill-rule:evenodd;clip-rule:evenodd;fill:#83C341;}
	.st39{fill-rule:evenodd;clip-rule:evenodd;fill:#0F77B7;}
	.st40{fill-rule:evenodd;clip-rule:evenodd;fill:#ED8D36;}
	.st41{fill-rule:evenodd;clip-rule:evenodd;fill:#3CA356;}
	.st42{fill-rule:evenodd;clip-rule:evenodd;fill:#7F4A25;}
	.st43{fill-rule:evenodd;clip-rule:evenodd;fill:#A3B539;}
	.st44{fill-rule:evenodd;clip-rule:evenodd;fill:#FAAF37;}
	.st45{fill-rule:evenodd;clip-rule:evenodd;fill:#0BB4A1;}
	.st46{fill:#00A9CB;}
	.st47{fill:#79AA41;}
	.st48{fill:#CD8F2A;}
	.st49{fill:#0393B0;}
	.st50{fill:#E82F7B;}
	.st51{fill:#D7DF2A;}
	.st52{fill:#8DC443;}
	.st53{fill:#F0A422;}
	.st54{fill:#3A3A3B;}
	.st55{fill:#29AAE1;}
	.st56{fill:#E9246E;}
</style>
<g id="Layer_1">
</g>
<g id="Layer_2">
</g>
<g id="Layer_3">
</g>
<g id="Layer_4">
	<g>
		<path class="st8" d="M76.88,119.18c-1.03-1.03-1.65-2.42-1.72-3.92c-0.04-0.4,0-0.81,0.07-1.21c0.07-0.55,0.26-1.1,0.48-1.57
			l-20.22-9.41l6.74-7.32L35.27,68.34l7.84,48.31L61.9,133.9l7.32,6.7l9.41-20.25C77.94,120.09,77.35,119.69,76.88,119.18z"/>
		<path class="st9" d="M79.44,76.95L62.19,95.74l-6.74,7.32l20.22,9.41c0.29-0.66,0.73-1.25,1.21-1.76
			c1.03-1.03,2.42-1.68,3.96-1.76c0.4,0,0.77,0,1.17,0.07c0.59,0.07,1.14,0.26,1.61,0.51l9.41-20.18l7.32,6.7l27.39-26.95
			L79.44,76.95z"/>
		<path class="st10" d="M86.55,117.53c-0.29,0.66-0.73,1.25-1.25,1.72c-1.03,0.99-2.42,1.61-3.92,1.68c-0.37,0-0.73,0-1.14-0.07
			h-0.04c-0.59-0.07-1.1-0.26-1.61-0.48l-9.41,20.25l-7.32-6.7L34.5,160.85l48.27-7.76l17.29-18.79l6.74-7.32L86.55,117.53z"/>
		<path class="st11" d="M41.86,125.47c3.88,0,7.03,3.15,7.03,7.03s-3.15,7.03-7.03,7.03s-7.03-3.15-7.03-7.03
			S37.98,125.47,41.86,125.47z M62.85,69.48c3.88,0,7.03,3.15,7.03,7.03c0,3.88-3.15,7.03-7.03,7.03s-7.03-3.15-7.03-7.03
			C55.82,72.63,58.97,69.48,62.85,69.48z M121.15,89.88c3.88,0,7.03,3.15,7.03,7.03c0,3.88-3.15,7.03-7.03,7.03
			c-3.88,0-7.03-3.15-7.03-7.03C114.12,93.02,117.27,89.88,121.15,89.88z M100.75,144.15c3.88,0,7.03,3.15,7.03,7.03
			s-3.15,7.03-7.03,7.03s-7.03-3.15-7.03-7.03S96.87,144.15,100.75,144.15z M100.35,96.07l-7.32-6.7l-9.38,20.18
			c0.66,0.29,1.25,0.73,1.76,1.25c1.03,1.06,1.65,2.45,1.72,3.96c0,0.37,0,0.73-0.07,1.14c-0.07,0.59-0.26,1.14-0.51,1.65
			l20.25,9.41l-6.74,7.32l26.95,27.39l-7.84-48.31L100.35,96.07z"/>
	</g>
</g>
<g id="Layer_5">
</g>
<g id="Layer_6">
</g>
<g id="Layer_7">
</g>
<g id="Layer_8">
</g>
<g id="Layer_9">
</g>
<g id="Layer_10">
</g>
<g id="Layer_11">
</g>
<g id="Layer_12">
</g>
<g id="Layer_13">
</g>
<g id="Layer_14">
</g>
<g id="Layer_15">
</g>
</svg>
