<?xml version="1.0" encoding="utf-8"?>
<!-- Generator: Adobe Illustrator 27.8.1, SVG Export Plug-In . SVG Version: 6.00 Build 0)  -->
<svg version="1.1" xmlns="http://www.w3.org/2000/svg" xmlns:xlink="http://www.w3.org/1999/xlink" x="0px" y="0px"
	 viewBox="0 0 350 230" style="enable-background:new 0 0 350 230;" xml:space="preserve">
<style type="text/css">
	.st0{fill:#FFFFFF;}
	.st1{fill:#FCBEF3;}
	.st2{fill:#007769;}
	.st3{fill:#990000;}
	.st4{fill:#EE388C;}
	.st5{fill:#4862AD;}
	.st6{fill:#EE4B9B;}
	.st7{fill:#FAEE35;}
	.st8{fill:#01A79D;}
	.st9{fill:#8FC640;}
	.st10{fill:#EC2227;}
	.st11{fill:#E7BD20;}
	.st12{fill:#DC8927;}
	.st13{fill:#2F99D5;}
	.st14{fill:#663366;}
	.st15{fill:#FFC907;}
	.st16{fill:#4B83C3;}
	.st17{fill:#F0535B;}
	.st18{fill:#A92990;}
	.st19{fill:#E16E25;}
	.st20{fill:#426CB4;}
	.st21{fill:#E9292B;}
	.st22{fill:#0F77B7;}
	.st23{fill:#EF4A6C;}
	.st24{fill:#65C5B3;}
	.st25{fill:#965724;}
	.st26{fill:#F1A422;}
	.st27{fill:#18479E;}
	.st28{fill:#64C5B2;}
	.st29{fill:#FAE072;}
	.st30{fill:#EF496E;}
	.st31{fill:#231F20;}
	.st32{fill-rule:evenodd;clip-rule:evenodd;fill:#5C493A;}
	.st33{fill-rule:evenodd;clip-rule:evenodd;fill:#F26767;}
	.st34{fill-rule:evenodd;clip-rule:evenodd;fill:#87C443;}
	.st35{fill-rule:evenodd;clip-rule:evenodd;fill:#EE3E96;}
	.st36{fill-rule:evenodd;clip-rule:evenodd;fill:#2195D2;}
	.st37{fill-rule:evenodd;clip-rule:evenodd;fill:#FFCD05;}
	.st38{fill-rule:evenodd;clip-rule:evenodd;fill:#83C341;}
	.st39{fill-rule:evenodd;clip-rule:evenodd;fill:#0F77B7;}
	.st40{fill-rule:evenodd;clip-rule:evenodd;fill:#ED8D36;}
	.st41{fill-rule:evenodd;clip-rule:evenodd;fill:#3CA356;}
	.st42{fill-rule:evenodd;clip-rule:evenodd;fill:#7F4A25;}
	.st43{fill-rule:evenodd;clip-rule:evenodd;fill:#A3B539;}
	.st44{fill-rule:evenodd;clip-rule:evenodd;fill:#FAAF37;}
	.st45{fill-rule:evenodd;clip-rule:evenodd;fill:#0BB4A1;}
	.st46{fill:#00A9CB;}
	.st47{fill:#79AA41;}
	.st48{fill:#CD8F2A;}
	.st49{fill:#0393B0;}
	.st50{fill:#E82F7B;}
	.st51{fill:#D7DF2A;}
	.st52{fill:#8DC443;}
	.st53{fill:#F0A422;}
	.st54{fill:#3A3A3B;}
	.st55{fill:#29AAE1;}
	.st56{fill:#E9246E;}
</style>
<g id="Layer_1">
</g>
<g id="Layer_2">
	<path class="st4" d="M75.81,151.37c-1.04-4.66,0.15-10.05,3.66-13.33c1.35-1.23,2.93-2.23,4.62-2.89c0.27-1.85,0.62-3.66,1.04-5.47
		c-4.54-2.43-6.28-8.09-3.85-12.67c1.62-3,4.7-4.89,8.09-4.93l-1.43-2.7c-2.62-4.74-5.78-9.28-9.98-12.71s-9.36-5.66-14.71-5.47
		c-6.78,0.31-13.02,4.74-16.45,10.71c-3.43,5.97-4.2,13.29-3,20.11c1.19,6.82,4.16,13.25,7.82,19.14s9.28,12.56,15.56,17.06
		c6.28,4.51,13.75,7.47,21.38,7.66h0.89c-2.04-0.31-4.04-1.46-5.66-2.73C79.97,160.19,76.89,156.11,75.81,151.37z M39.07,72.6
		c2.7-6.86,10.4-10.25,17.29-7.59c6.89,2.66,10.25,10.4,7.55,17.25c-2.7,6.86-10.4,10.25-17.29,7.59
		C39.72,87.2,36.37,79.46,39.07,72.6z M117.72,91.21c-5.32-0.19-10.55,2.04-14.75,5.47c-4.2,3.43-7.32,7.97-9.94,12.71
		c-0.54,0.96-1.04,1.89-1.54,2.89c5.05,0.96,8.36,5.85,7.36,10.9c-0.42,2.16-1.58,4.12-3.31,5.51c0.58,2.2,1.04,4.47,1.43,6.74
		c1.23,0.62,2.31,1.46,3.27,2.46c3.04,3.35,4.08,8.24,3.35,12.71c-0.73,4.47-3.16,8.51-6.32,11.82c-1.54,1.58-3.31,3.08-5.51,3.47
		h0.62c7.66-0.19,15.14-3.16,21.38-7.66c6.24-4.51,11.4-10.51,15.56-17.06c4.16-6.59,6.74-12.29,7.9-19.14
		c1.16-6.82,0.42-14.14-3-20.11C130.77,95.87,124.53,91.52,117.72,91.21z M131.66,64.36c-7.24-1.19-14.06,3.74-15.25,10.98
		c-1.19,7.24,3.74,14.06,10.98,15.25c7.24,1.19,14.06-3.74,15.25-10.94C143.87,72.41,138.94,65.56,131.66,64.36
		C131.7,64.36,131.7,64.36,131.66,64.36z"/>
</g>
<g id="Layer_3">
</g>
<g id="Layer_4">
</g>
<g id="Layer_5">
</g>
<g id="Layer_6">
</g>
<g id="Layer_7">
</g>
<g id="Layer_8">
</g>
<g id="Layer_9">
</g>
<g id="Layer_10">
</g>
<g id="Layer_11">
</g>
<g id="Layer_12">
</g>
<g id="Layer_13">
</g>
<g id="Layer_14">
</g>
<g id="Layer_15">
</g>
</svg>
