<?xml version="1.0" encoding="utf-8"?>
<!-- Generator: Adobe Illustrator 27.8.1, SVG Export Plug-In . SVG Version: 6.00 Build 0)  -->
<svg version="1.1" xmlns="http://www.w3.org/2000/svg" xmlns:xlink="http://www.w3.org/1999/xlink" x="0px" y="0px"
	 viewBox="0 0 350 230" style="enable-background:new 0 0 350 230;" xml:space="preserve">
<style type="text/css">
	.st0{fill:#FFFFFF;}
	.st1{fill:#FCBEF3;}
	.st2{fill:#007769;}
	.st3{fill:#990000;}
	.st4{fill:#EE388C;}
	.st5{fill:#4862AD;}
	.st6{fill:#EE4B9B;}
	.st7{fill:#FAEE35;}
	.st8{fill:#01A79D;}
	.st9{fill:#8FC640;}
	.st10{fill:#EC2227;}
	.st11{fill:#E7BD20;}
	.st12{fill:#DC8927;}
	.st13{fill:#2F99D5;}
	.st14{fill:#663366;}
	.st15{fill:#FFC907;}
	.st16{fill:#4B83C3;}
	.st17{fill:#F0535B;}
	.st18{fill:#A92990;}
	.st19{fill:#E16E25;}
	.st20{fill:#426CB4;}
	.st21{fill:#E9292B;}
	.st22{fill:#0F77B7;}
	.st23{fill:#EF4A6C;}
	.st24{fill:#65C5B3;}
	.st25{fill:#965724;}
	.st26{fill:#F1A422;}
	.st27{fill:#18479E;}
	.st28{fill:#64C5B2;}
	.st29{fill:#FAE072;}
	.st30{fill:#EF496E;}
	.st31{fill:#231F20;}
	.st32{fill-rule:evenodd;clip-rule:evenodd;fill:#5C493A;}
	.st33{fill-rule:evenodd;clip-rule:evenodd;fill:#F26767;}
	.st34{fill-rule:evenodd;clip-rule:evenodd;fill:#87C443;}
	.st35{fill-rule:evenodd;clip-rule:evenodd;fill:#EE3E96;}
	.st36{fill-rule:evenodd;clip-rule:evenodd;fill:#2195D2;}
	.st37{fill-rule:evenodd;clip-rule:evenodd;fill:#FFCD05;}
	.st38{fill-rule:evenodd;clip-rule:evenodd;fill:#83C341;}
	.st39{fill-rule:evenodd;clip-rule:evenodd;fill:#0F77B7;}
	.st40{fill-rule:evenodd;clip-rule:evenodd;fill:#ED8D36;}
	.st41{fill-rule:evenodd;clip-rule:evenodd;fill:#3CA356;}
	.st42{fill-rule:evenodd;clip-rule:evenodd;fill:#7F4A25;}
	.st43{fill-rule:evenodd;clip-rule:evenodd;fill:#A3B539;}
	.st44{fill-rule:evenodd;clip-rule:evenodd;fill:#FAAF37;}
	.st45{fill-rule:evenodd;clip-rule:evenodd;fill:#0BB4A1;}
	.st46{fill:#00A9CB;}
	.st47{fill:#79AA41;}
	.st48{fill:#CD8F2A;}
	.st49{fill:#0393B0;}
	.st50{fill:#E82F7B;}
	.st51{fill:#D7DF2A;}
	.st52{fill:#8DC443;}
	.st53{fill:#F0A422;}
	.st54{fill:#3A3A3B;}
	.st55{fill:#29AAE1;}
	.st56{fill:#E9246E;}
</style>
<g id="Layer_1">
</g>
<g id="Layer_2">
</g>
<g id="Layer_3">
	<g>
		<path class="st5" d="M67.79,97.72c8.91,0,25.64,11.87,25.64,20.78s-16.73,11.46-25.64,11.46c-8.91-0.5-15.69-8.14-15.19-17
			C53.02,104.73,59.56,98.18,67.79,97.72z M38.47,106.23c4.23,0.05,7.59,3.46,7.59,7.68c-0.05,4.23-3.46,7.59-7.68,7.59
			c-4.18-0.05-7.59-3.46-7.59-7.64c0-4.23,3.41-7.64,7.64-7.64C38.42,106.23,38.47,106.23,38.47,106.23z M119.26,97.72
			c-8.91,0-25.87,11.87-25.87,20.78s16.96,11.46,25.87,11.46c8.91-0.5,15.69-8.14,15.19-17C134.04,104.73,127.49,98.18,119.26,97.72
			z M148.63,106.23c-4.23,0-7.64,3.41-7.64,7.64s3.41,7.64,7.64,7.64c4.23,0,7.64-3.41,7.64-7.64l0,0
			C156.22,109.64,152.86,106.23,148.63,106.23z"/>
		<path class="st6" d="M123.76,171.28c-3-3-2.96-7.82,0.05-10.82s7.82-2.96,10.82,0.05c3,3,2.96,7.82-0.05,10.82
			C131.58,174.29,126.72,174.29,123.76,171.28z M119.85,133.73c-6.32-6.27-20.1-21.5-26.41-15.28c-6.27-6.27-21.87,9-28.19,15.28
			c-6.27,6.27-6.32,16.46-0.05,22.73l0.05,0.05c6.32,6.32,17,6.77,22.78,0c2.05-2.36,3.73-4.82,5.09-7.23
			c1.09,3.14,2.41,5.73,3.91,7.23l0,0c6.18,5.73,15.78,5.73,21.96,0C125.53,150.46,125.9,140.28,119.85,133.73z M55.88,158.28
			c4.23,0,7.64,3.41,7.64,7.64s-3.41,7.64-7.64,7.64s-7.64-3.41-7.64-7.64S51.65,158.28,55.88,158.28z"/>
		<path class="st7" d="M109.48,93.45c0,8.91-8.27,28.64-17.19,28.64s-15-19.73-15-28.64c-0.5-8.91,6.32-16.5,15.19-17
			s16.5,6.27,17,15.19C109.53,92.22,109.53,92.86,109.48,93.45z M101.07,64.08c0,4.23-3.41,7.64-7.64,7.64s-7.64-3.41-7.64-7.64
			s3.41-7.64,7.64-7.64C97.62,56.49,101.03,59.9,101.07,64.08z"/>
	</g>
</g>
<g id="Layer_4">
</g>
<g id="Layer_5">
</g>
<g id="Layer_6">
</g>
<g id="Layer_7">
</g>
<g id="Layer_8">
</g>
<g id="Layer_9">
</g>
<g id="Layer_10">
</g>
<g id="Layer_11">
</g>
<g id="Layer_12">
</g>
<g id="Layer_13">
</g>
<g id="Layer_14">
</g>
<g id="Layer_15">
</g>
</svg>
