<?xml version="1.0" encoding="utf-8"?>
<!-- Generator: Adobe Illustrator 27.8.1, SVG Export Plug-In . SVG Version: 6.00 Build 0)  -->
<svg version="1.1" xmlns="http://www.w3.org/2000/svg" xmlns:xlink="http://www.w3.org/1999/xlink" x="0px" y="0px"
	 viewBox="0 0 350 230" style="enable-background:new 0 0 350 230;" xml:space="preserve">
<style type="text/css">
	.st0{fill:#FFFFFF;}
	.st1{fill:#FCBEF3;}
	.st2{fill:#007769;}
	.st3{fill:#990000;}
	.st4{fill:#EE388C;}
	.st5{fill:#4862AD;}
	.st6{fill:#EE4B9B;}
	.st7{fill:#FAEE35;}
	.st8{fill:#01A79D;}
	.st9{fill:#8FC640;}
	.st10{fill:#EC2227;}
	.st11{fill:#E7BD20;}
	.st12{fill:#DC8927;}
	.st13{fill:#2F99D5;}
	.st14{fill:#663366;}
	.st15{fill:#FFC907;}
	.st16{fill:#4B83C3;}
	.st17{fill:#F0535B;}
	.st18{fill:#A92990;}
	.st19{fill:#E16E25;}
	.st20{fill:#426CB4;}
	.st21{fill:#E9292B;}
	.st22{fill:#0F77B7;}
	.st23{fill:#EF4A6C;}
	.st24{fill:#65C5B3;}
	.st25{fill:#965724;}
	.st26{fill:#F1A422;}
	.st27{fill:#18479E;}
	.st28{fill:#64C5B2;}
	.st29{fill:#FAE072;}
	.st30{fill:#EF496E;}
	.st31{fill:#231F20;}
	.st32{fill-rule:evenodd;clip-rule:evenodd;fill:#5C493A;}
	.st33{fill-rule:evenodd;clip-rule:evenodd;fill:#F26767;}
	.st34{fill-rule:evenodd;clip-rule:evenodd;fill:#87C443;}
	.st35{fill-rule:evenodd;clip-rule:evenodd;fill:#EE3E96;}
	.st36{fill-rule:evenodd;clip-rule:evenodd;fill:#2195D2;}
	.st37{fill-rule:evenodd;clip-rule:evenodd;fill:#FFCD05;}
	.st38{fill-rule:evenodd;clip-rule:evenodd;fill:#83C341;}
	.st39{fill-rule:evenodd;clip-rule:evenodd;fill:#0F77B7;}
	.st40{fill-rule:evenodd;clip-rule:evenodd;fill:#ED8D36;}
	.st41{fill-rule:evenodd;clip-rule:evenodd;fill:#3CA356;}
	.st42{fill-rule:evenodd;clip-rule:evenodd;fill:#7F4A25;}
	.st43{fill-rule:evenodd;clip-rule:evenodd;fill:#A3B539;}
	.st44{fill-rule:evenodd;clip-rule:evenodd;fill:#FAAF37;}
	.st45{fill-rule:evenodd;clip-rule:evenodd;fill:#0BB4A1;}
	.st46{fill:#00A9CB;}
	.st47{fill:#79AA41;}
	.st48{fill:#CD8F2A;}
	.st49{fill:#0393B0;}
	.st50{fill:#E82F7B;}
	.st51{fill:#D7DF2A;}
	.st52{fill:#8DC443;}
	.st53{fill:#F0A422;}
	.st54{fill:#3A3A3B;}
	.st55{fill:#29AAE1;}
	.st56{fill:#E9246E;}
</style>
<g id="Layer_1">
</g>
<g id="Layer_2">
</g>
<g id="Layer_3">
</g>
<g id="Layer_4">
</g>
<g id="Layer_5">
	<g>
		<path class="st12" d="M178.97,153.92c2.15,7.33-11.26,11.62-13.2,18.3c-2.59,8.87,9.48,17.13,15.87,11.18
			c3.12-2.83,4.66-7.09,11.54-12.43C245.06,130.96,165.85,109.74,178.97,153.92z M197.48,124.28c-1.7,2.79-5.31,3.64-8.1,1.98
			c-2.79-1.7-3.64-5.31-1.98-8.1c1.7-2.79,5.31-3.64,8.1-1.98C198.25,117.92,199.14,121.52,197.48,124.28z M203.51,120.51
			c2.15,0,3.85,1.74,3.85,3.85c0,2.15-1.74,3.85-3.85,3.85c-2.15,0-3.85-1.74-3.85-3.85C199.66,122.25,201.4,120.51,203.51,120.51z
			 M213.19,132.17c-0.89,1.5-2.79,1.98-4.29,1.09c0,0-0.04,0-0.04-0.04c-1.46-0.89-1.94-2.83-1.05-4.33s2.83-1.94,4.33-1.05
			C213.63,128.73,214.08,130.67,213.19,132.17z M216.55,138.41c-0.81,1.3-2.51,1.7-3.81,0.89c-1.3-0.81-1.7-2.51-0.89-3.81
			c0.81-1.3,2.47-1.7,3.77-0.89C216.91,135.41,217.32,137.11,216.55,138.41z M216.51,144.85c-0.61,1.09-1.98,1.46-3.08,0.85
			c-0.04,0-0.08-0.04-0.08-0.04c-1.09-0.65-1.46-2.07-0.81-3.16c0.69-1.09,2.11-1.46,3.24-0.81
			C216.83,142.3,217.16,143.75,216.51,144.85z"/>
		<path class="st13" d="M229.79,111.92c-12.8-25.15-44.59-12.47-52.93-2.79c-17.66-15.35-34.26-15.79-44.79-8.18
			c-8.95,6.48-13.57,18.71-10.73,32.44c-1.42-3.2-2.67-6.44-3.69-9.8c-3,15.96,6.84,26.2,6.84,26.2c-3.28,0.57-6.64-2.63-6.64-2.63
			c6.44,16.64,16.73,18.14,16.73,18.14c-3.32,2.07-7.01,0.65-7.01,0.65c3.93,6.48,15.02,7.17,19.24,6.56
			c2.35-0.32,5.87,1.05,8.54,2.35c0-0.04-0.04-0.04-0.04-0.04l0,0c0.08,0.04,0.12,0.04,0.04,0.04l3.73,1.98
			c-65.48-46.98-24.34-98.17,16.93-57.06l0,0l0.28,0.24l0,0c42.36-40.54,83.22,11.83,16.52,57.22
			C215.7,165.7,242.06,139.62,229.79,111.92z M150.01,141.49c2.39,7.78-0.04,12.07-0.04,12.07c0.24-1.13-1.01-5.71-1.38-7.13
			c-1.21-4.05-3.89-7.49-7.53-9.68c-10.49-6.36-14.82-13.53-9.11-24.42c0,0-21.38,24.7,30.09,64.76
			C162.04,177.08,162.69,147.93,150.01,141.49z"/>
	</g>
</g>
<g id="Layer_6">
</g>
<g id="Layer_7">
</g>
<g id="Layer_8">
</g>
<g id="Layer_9">
</g>
<g id="Layer_10">
</g>
<g id="Layer_11">
</g>
<g id="Layer_12">
</g>
<g id="Layer_13">
</g>
<g id="Layer_14">
</g>
<g id="Layer_15">
</g>
</svg>
