<?xml version="1.0" encoding="utf-8"?>
<!-- Generator: Adobe Illustrator 27.8.1, SVG Export Plug-In . SVG Version: 6.00 Build 0)  -->
<svg version="1.1" xmlns="http://www.w3.org/2000/svg" xmlns:xlink="http://www.w3.org/1999/xlink" x="0px" y="0px"
	 viewBox="0 0 350 230" style="enable-background:new 0 0 350 230;" xml:space="preserve">
<style type="text/css">
	.st0{fill:#FFFFFF;}
	.st1{fill:#FCBEF3;}
	.st2{fill:#007769;}
	.st3{fill:#990000;}
	.st4{fill:#EE388C;}
	.st5{fill:#4862AD;}
	.st6{fill:#EE4B9B;}
	.st7{fill:#FAEE35;}
	.st8{fill:#01A79D;}
	.st9{fill:#8FC640;}
	.st10{fill:#EC2227;}
	.st11{fill:#E7BD20;}
	.st12{fill:#DC8927;}
	.st13{fill:#2F99D5;}
	.st14{fill:#663366;}
	.st15{fill:#FFC907;}
	.st16{fill:#4B83C3;}
	.st17{fill:#F0535B;}
	.st18{fill:#A92990;}
	.st19{fill:#E16E25;}
	.st20{fill:#426CB4;}
	.st21{fill:#E9292B;}
	.st22{fill:#0F77B7;}
	.st23{fill:#EF4A6C;}
	.st24{fill:#65C5B3;}
	.st25{fill:#965724;}
	.st26{fill:#F1A422;}
	.st27{fill:#18479E;}
	.st28{fill:#64C5B2;}
	.st29{fill:#FAE072;}
	.st30{fill:#EF496E;}
	.st31{fill:#231F20;}
	.st32{fill-rule:evenodd;clip-rule:evenodd;fill:#5C493A;}
	.st33{fill-rule:evenodd;clip-rule:evenodd;fill:#F26767;}
	.st34{fill-rule:evenodd;clip-rule:evenodd;fill:#87C443;}
	.st35{fill-rule:evenodd;clip-rule:evenodd;fill:#EE3E96;}
	.st36{fill-rule:evenodd;clip-rule:evenodd;fill:#2195D2;}
	.st37{fill-rule:evenodd;clip-rule:evenodd;fill:#FFCD05;}
	.st38{fill-rule:evenodd;clip-rule:evenodd;fill:#83C341;}
	.st39{fill-rule:evenodd;clip-rule:evenodd;fill:#0F77B7;}
	.st40{fill-rule:evenodd;clip-rule:evenodd;fill:#ED8D36;}
	.st41{fill-rule:evenodd;clip-rule:evenodd;fill:#3CA356;}
	.st42{fill-rule:evenodd;clip-rule:evenodd;fill:#7F4A25;}
	.st43{fill-rule:evenodd;clip-rule:evenodd;fill:#A3B539;}
	.st44{fill-rule:evenodd;clip-rule:evenodd;fill:#FAAF37;}
	.st45{fill-rule:evenodd;clip-rule:evenodd;fill:#0BB4A1;}
	.st46{fill:#00A9CB;}
	.st47{fill:#79AA41;}
	.st48{fill:#CD8F2A;}
	.st49{fill:#0393B0;}
	.st50{fill:#E82F7B;}
	.st51{fill:#D7DF2A;}
	.st52{fill:#8DC443;}
	.st53{fill:#F0A422;}
	.st54{fill:#3A3A3B;}
	.st55{fill:#29AAE1;}
	.st56{fill:#E9246E;}
</style>
<g id="Layer_1">
</g>
<g id="Layer_2">
</g>
<g id="Layer_3">
</g>
<g id="Layer_4">
</g>
<g id="Layer_5">
</g>
<g id="Layer_6">
</g>
<g id="Layer_7">
</g>
<g id="Layer_8">
	<g>
		<path class="st21" d="M226.22,59.99c-2.94-10.38-13.89-13.73-13.89-13.73s9.38,4.46,9.23,16.94
			c-0.19,15.98-8.32,24.15-28.95,32.92c-16.78,7.17-17.66,17.85-17.66,17.85s-0.88-10.68-17.66-17.85
			c-20.6-8.77-29.94-19.11-28.91-32.92c0.88-12.44,9.23-16.94,9.23-16.94s-10.95,3.36-13.85,13.73c-2.9,10.38-0.88,21.4,13.85,32.92
			c12.21,9.61,33.49,12.32,37.08,42c0.08,0.15,0.27,0.27,0.42,0.19c0.08-0.04,0.15-0.11,0.19-0.19c3.55-29.72,24.79-32.42,37.08-42
			C227.1,81.39,229.16,70.29,226.22,59.99z"/>
		<path class="st22" d="M174.95,99.85c-1.41-4.01-5-8.81-13.5-13.24c-25.44-13.27-22.7-23.54-19.34-28.99
			c2.78-4.54,9.16-6.26,14.84-4.77c6.94,1.87,13.24,5.72,18.04,11.1c0,0-8.35-13.81-20.83-16.33c4.01-2.9,4.92-8.51,2.02-12.51
			c-2.9-4.01-8.51-4.92-12.51-2.02c-4.01,2.9-4.92,8.51-2.02,12.51c0.76,1.03,1.72,1.91,2.78,2.52l-1.07,0.38
			c-10.03,3.7-15.3,18.16-5.95,28.99c3.55,4.16,10.76,9.46,16.97,12.17c13.62,5.91,18.27,11.6,19.87,15.14
			C174.15,103.13,174.42,101.45,174.95,99.85z M206.61,48.51l-0.23-0.08c4.46-2.17,6.29-7.51,4.12-11.98
			c-2.17-4.46-7.51-6.29-11.98-4.12c-3.09,1.49-5.04,4.65-5.04,8.09c0,2.75,1.26,5.34,3.39,7.06c-13.08,1.83-21.9,16.44-21.9,16.44
			c4.81-5.34,11.06-9.19,18-11.1c5.68-1.49,12.02,0.23,14.84,4.77c3.36,5.45,6.14,15.72-19.3,28.99
			c-8.54,4.42-12.17,9.23-13.58,13.24c-0.57,1.6-0.8,3.28-0.76,5c0.34,0.72,0.57,1.49,0.69,2.29c0,0.08,0.08,0.08,0.15,0
			c0.11-0.8,0.34-1.56,0.69-2.29c1.53-3.55,6.22-9.23,19.87-15.14c6.14-2.71,13.39-8.01,16.97-12.17
			C221.87,66.62,216.65,52.17,206.61,48.51z"/>
	</g>
</g>
<g id="Layer_9">
</g>
<g id="Layer_10">
</g>
<g id="Layer_11">
</g>
<g id="Layer_12">
</g>
<g id="Layer_13">
</g>
<g id="Layer_14">
</g>
<g id="Layer_15">
</g>
</svg>
