<?xml version="1.0" encoding="utf-8"?>
<!-- Generator: Adobe Illustrator 27.8.1, SVG Export Plug-In . SVG Version: 6.00 Build 0)  -->
<svg version="1.1" xmlns="http://www.w3.org/2000/svg" xmlns:xlink="http://www.w3.org/1999/xlink" x="0px" y="0px"
	 viewBox="0 0 350 230" style="enable-background:new 0 0 350 230;" xml:space="preserve">
<style type="text/css">
	.st0{fill:#FFFFFF;}
	.st1{fill:#FCBEF3;}
	.st2{fill:#007769;}
	.st3{fill:#990000;}
	.st4{fill:#EE388C;}
	.st5{fill:#4862AD;}
	.st6{fill:#EE4B9B;}
	.st7{fill:#FAEE35;}
	.st8{fill:#01A79D;}
	.st9{fill:#8FC640;}
	.st10{fill:#EC2227;}
	.st11{fill:#E7BD20;}
	.st12{fill:#DC8927;}
	.st13{fill:#2F99D5;}
	.st14{fill:#663366;}
	.st15{fill:#FFC907;}
	.st16{fill:#4B83C3;}
	.st17{fill:#F0535B;}
	.st18{fill:#A92990;}
	.st19{fill:#E16E25;}
	.st20{fill:#426CB4;}
	.st21{fill:#E9292B;}
	.st22{fill:#0F77B7;}
	.st23{fill:#EF4A6C;}
	.st24{fill:#65C5B3;}
	.st25{fill:#965724;}
	.st26{fill:#F1A422;}
	.st27{fill:#18479E;}
	.st28{fill:#64C5B2;}
	.st29{fill:#FAE072;}
	.st30{fill:#EF496E;}
	.st31{fill:#231F20;}
	.st32{fill-rule:evenodd;clip-rule:evenodd;fill:#5C493A;}
	.st33{fill-rule:evenodd;clip-rule:evenodd;fill:#F26767;}
	.st34{fill-rule:evenodd;clip-rule:evenodd;fill:#87C443;}
	.st35{fill-rule:evenodd;clip-rule:evenodd;fill:#EE3E96;}
	.st36{fill-rule:evenodd;clip-rule:evenodd;fill:#2195D2;}
	.st37{fill-rule:evenodd;clip-rule:evenodd;fill:#FFCD05;}
	.st38{fill-rule:evenodd;clip-rule:evenodd;fill:#83C341;}
	.st39{fill-rule:evenodd;clip-rule:evenodd;fill:#0F77B7;}
	.st40{fill-rule:evenodd;clip-rule:evenodd;fill:#ED8D36;}
	.st41{fill-rule:evenodd;clip-rule:evenodd;fill:#3CA356;}
	.st42{fill-rule:evenodd;clip-rule:evenodd;fill:#7F4A25;}
	.st43{fill-rule:evenodd;clip-rule:evenodd;fill:#A3B539;}
	.st44{fill-rule:evenodd;clip-rule:evenodd;fill:#FAAF37;}
	.st45{fill-rule:evenodd;clip-rule:evenodd;fill:#0BB4A1;}
	.st46{fill:#00A9CB;}
	.st47{fill:#79AA41;}
	.st48{fill:#CD8F2A;}
	.st49{fill:#0393B0;}
	.st50{fill:#E82F7B;}
	.st51{fill:#D7DF2A;}
	.st52{fill:#8DC443;}
	.st53{fill:#F0A422;}
	.st54{fill:#3A3A3B;}
	.st55{fill:#29AAE1;}
	.st56{fill:#E9246E;}
</style>
<g id="Layer_1">
</g>
<g id="Layer_2">
</g>
<g id="Layer_3">
</g>
<g id="Layer_4">
</g>
<g id="Layer_5">
</g>
<g id="Layer_6">
</g>
<g id="Layer_7">
	<g>
		<path class="st19" d="M122.36,63.6c27.32-18.83,52.65,13.71,52.65,13.71s25.37-32.5,52.65-13.71c15.17,10.49,9.12,33.52-5.86,54.7
			c21.52-24.64,32.45-53.87,13.13-67.19c-31.08-21.47-59.97,15.52-59.97,15.52s-28.79-36.98-59.92-15.52
			c-19.27,13.32-8.34,42.55,13.17,67.19C113.28,97.12,107.23,74.09,122.36,63.6z"/>
		<path class="st20" d="M207.75,85.17c-13.52-6.05-29.62,9.71-20.4,26.45c3.71,6.78,0.34,7.56-3.12,8.98
			c-12,4.98-9.08,17.52-2.83,20.35C198.67,148.84,239.7,99.66,207.75,85.17z M188.23,74.58c0.68-3.66,4.2-6.1,7.86-5.42
			s6.1,4.2,5.42,7.86c-0.68,3.66-4.2,6.1-7.86,5.42C189.99,81.75,187.59,78.29,188.23,74.58z M204.62,74.67
			c1.17-2.2,3.85-3.03,6.05-1.85s3.03,3.85,1.85,6.05c-1.17,2.2-3.85,3.03-6.05,1.85C204.28,79.55,203.45,76.87,204.62,74.67z
			 M221.07,83.8c-0.88,1.81-3.03,2.59-4.88,1.76c-1.81-0.83-2.59-2.93-1.81-4.73c0,0,0-0.05,0.05-0.05
			c0.88-1.81,3.03-2.59,4.88-1.76c1.81,0.83,2.59,2.93,1.81,4.73C221.07,83.75,221.07,83.8,221.07,83.8z M225.6,90.53
			c-0.73,1.56-2.59,2.24-4.2,1.56c-1.56-0.78-2.24-2.63-1.56-4.24c0.73-1.56,2.63-2.24,4.24-1.51S226.38,88.92,225.6,90.53
			L225.6,90.53L225.6,90.53z M226.43,97.95c-0.63,1.32-2.24,1.9-3.61,1.32c-1.37-0.59-2-2.2-1.37-3.56c0.59-1.37,2.2-2,3.56-1.37
			c0,0,0.05,0,0.05,0.05C226.48,94.97,227.07,96.58,226.43,97.95z M142.32,85.17c13.52-6.05,29.57,9.71,20.35,26.45
			c-3.76,6.78-0.39,7.56,3.12,8.98c12,4.98,9.08,17.52,2.83,20.35C151.39,148.84,110.36,99.66,142.32,85.17z M149.2,71.55
			c2.24-2.98,6.54-3.56,9.51-1.32s3.56,6.54,1.32,9.51c-2.24,2.98-6.54,3.56-9.51,1.32S146.9,74.53,149.2,71.55z M137.49,78.72
			c1.07,2.24,3.71,3.17,5.95,2.15c2.24-1.07,3.17-3.71,2.15-5.95c-1.07-2.24-3.71-3.17-5.95-2.15
			C137.39,73.85,136.46,76.48,137.49,78.72z M129.04,83.8c0.88,1.81,3.03,2.59,4.88,1.76c1.81-0.83,2.59-2.93,1.81-4.73
			c0,0,0-0.05-0.05-0.05c-0.88-1.81-3.03-2.59-4.88-1.76c-1.81,0.83-2.59,2.93-1.81,4.73C129,83.75,129,83.8,129.04,83.8z
			 M124.46,90.53c0.73,1.56,2.59,2.24,4.2,1.56c1.51-0.88,2.05-2.83,1.17-4.39c-0.78-1.32-2.34-1.9-3.81-1.41
			C124.41,87.02,123.68,88.92,124.46,90.53z M123.63,97.95c0.59,1.37,2.2,2,3.56,1.37c1.37-0.59,2-2.2,1.37-3.56
			c0,0,0-0.05-0.05-0.05c-0.63-1.37-2.24-1.9-3.61-1.27C123.58,95.02,123.04,96.58,123.63,97.95z M180.37,40.67
			c0,7.27-5.37,13.17-5.37,13.17s-5.32-5.9-5.32-13.17s5.32-13.17,5.32-13.17S180.37,33.4,180.37,40.67z M162.17,37.59
			c5.17,5.17,5.56,13.13,5.56,13.13s-7.95-0.44-13.08-5.56s-5.56-13.08-5.56-13.08S157.05,32.47,162.17,37.59z M187.89,37.59
			c-5.17,5.17-5.56,13.13-5.56,13.13s7.95-0.44,13.08-5.56s5.56-13.08,5.56-13.08S193.01,32.47,187.89,37.59z"/>
	</g>
</g>
<g id="Layer_8">
</g>
<g id="Layer_9">
</g>
<g id="Layer_10">
</g>
<g id="Layer_11">
</g>
<g id="Layer_12">
</g>
<g id="Layer_13">
</g>
<g id="Layer_14">
</g>
<g id="Layer_15">
</g>
</svg>
