<?xml version="1.0" encoding="utf-8"?>
<!-- Generator: Adobe Illustrator 27.8.1, SVG Export Plug-In . SVG Version: 6.00 Build 0)  -->
<svg version="1.1" xmlns="http://www.w3.org/2000/svg" xmlns:xlink="http://www.w3.org/1999/xlink" x="0px" y="0px"
	 viewBox="0 0 350 230" style="enable-background:new 0 0 350 230;" xml:space="preserve">
<style type="text/css">
	.st0{fill:#FFFFFF;}
	.st1{fill:#FCBEF3;}
	.st2{fill:#007769;}
	.st3{fill:#990000;}
	.st4{fill:#EE388C;}
	.st5{fill:#4862AD;}
	.st6{fill:#EE4B9B;}
	.st7{fill:#FAEE35;}
	.st8{fill:#01A79D;}
	.st9{fill:#8FC640;}
	.st10{fill:#EC2227;}
	.st11{fill:#E7BD20;}
	.st12{fill:#DC8927;}
	.st13{fill:#2F99D5;}
	.st14{fill:#663366;}
	.st15{fill:#FFC907;}
	.st16{fill:#4B83C3;}
	.st17{fill:#F0535B;}
	.st18{fill:#A92990;}
	.st19{fill:#E16E25;}
	.st20{fill:#426CB4;}
	.st21{fill:#E9292B;}
	.st22{fill:#0F77B7;}
	.st23{fill:#EF4A6C;}
	.st24{fill:#65C5B3;}
	.st25{fill:#965724;}
	.st26{fill:#F1A422;}
	.st27{fill:#18479E;}
	.st28{fill:#64C5B2;}
	.st29{fill:#FAE072;}
	.st30{fill:#EF496E;}
	.st31{fill:#231F20;}
	.st32{fill-rule:evenodd;clip-rule:evenodd;fill:#5C493A;}
	.st33{fill-rule:evenodd;clip-rule:evenodd;fill:#F26767;}
	.st34{fill-rule:evenodd;clip-rule:evenodd;fill:#87C443;}
	.st35{fill-rule:evenodd;clip-rule:evenodd;fill:#EE3E96;}
	.st36{fill-rule:evenodd;clip-rule:evenodd;fill:#2195D2;}
	.st37{fill-rule:evenodd;clip-rule:evenodd;fill:#FFCD05;}
	.st38{fill-rule:evenodd;clip-rule:evenodd;fill:#83C341;}
	.st39{fill-rule:evenodd;clip-rule:evenodd;fill:#0F77B7;}
	.st40{fill-rule:evenodd;clip-rule:evenodd;fill:#ED8D36;}
	.st41{fill-rule:evenodd;clip-rule:evenodd;fill:#3CA356;}
	.st42{fill-rule:evenodd;clip-rule:evenodd;fill:#7F4A25;}
	.st43{fill-rule:evenodd;clip-rule:evenodd;fill:#A3B539;}
	.st44{fill-rule:evenodd;clip-rule:evenodd;fill:#FAAF37;}
	.st45{fill-rule:evenodd;clip-rule:evenodd;fill:#0BB4A1;}
	.st46{fill:#00A9CB;}
	.st47{fill:#79AA41;}
	.st48{fill:#CD8F2A;}
	.st49{fill:#0393B0;}
	.st50{fill:#E82F7B;}
	.st51{fill:#D7DF2A;}
	.st52{fill:#8DC443;}
	.st53{fill:#F0A422;}
	.st54{fill:#3A3A3B;}
	.st55{fill:#29AAE1;}
	.st56{fill:#E9246E;}
</style>
<g id="Layer_1">
</g>
<g id="Layer_2">
</g>
<g id="Layer_3">
</g>
<g id="Layer_4">
</g>
<g id="Layer_5">
</g>
<g id="Layer_6">
	<g>
		<path class="st14" d="M171.43,92.82c-0.24-2.08,1.29-3.96,3.37-4.19h0.04c2.12-0.31,4.08,1.18,4.35,3.29
			c0.31,2.12-1.18,4.08-3.29,4.35c-0.12,0-0.24,0.04-0.35,0.04C173.51,96.51,171.67,94.94,171.43,92.82L171.43,92.82z M191.34,45.71
			c5.53-1.57,11.29,1.61,12.89,7.13s-1.61,11.29-7.13,12.89c-5.53,1.57-11.29-1.61-12.89-7.13S185.81,47.32,191.34,45.71z
			 M219.68,67.62h-1.72c0.94-0.31,1.84-0.71,2.74-1.14c0.82-0.43,0.31-1.14-0.43-0.98l-2.59,0.59c0,0,2.39-1.53,3.02-2.08
			c0.63-0.55,0.12-1.57-0.86-1.06l-3.29,1.65c0.9-0.71,1.76-1.45,2.55-2.27c0.82-0.9-0.12-1.57-0.86-1.1
			c-0.74,0.47-3.21,2.47-3.21,2.47c0.98-1.33,0.39-2.27-0.12-2.08c-0.51,0.16-1.45,2.7-2.7,3.25l-11.09,2.16
			c-2.08,0.39-4.08,1.18-6.19,1.33c-3.1,0.27-6.35-0.43-8.62-2.55c-2.31-2.12-3.17-4.51-4.04-7.13c-0.86-2.63-2.08-5.8-3.17-8.7
			c-0.39-1.14-0.82-2.31-1.25-3.49s1.37-3.41,1.25-4c-0.12-0.55-1.21-0.59-1.8,0.98c0,0,0.35-3.17,0.35-4.04s-1.1-1.29-1.37-0.12
			c-0.27,1.1-0.43,2.23-0.51,3.37c0,0-0.27-2.55-0.39-3.68c-0.12-1.14-1.21-0.98-1.33-0.12c-0.12,0.86-0.08,3.64-0.08,3.64
			s-0.67-1.88-0.9-2.51c-0.27-0.67-1.18-0.71-1.1,0.24c0.12,0.98,0.31,1.96,0.55,2.9c0,0-0.55-0.86-0.98-1.45
			c-0.43-0.55-0.98-0.35-0.82,0.31s0.94,3.57,1.33,5.96l2.9,31.24c0.51,4.51,4.62,7.76,9.13,7.21c1.06-0.12,2.12-0.47,3.06-0.98
			l26.92-14.89h0.16c2.19-0.98,5.13-1.92,5.72-2.12C220.46,68.33,220.46,67.66,219.68,67.62z"/>
		<path class="st15" d="M210.5,91.84c4.55-3.14,10.78-2,13.95,2.55c3.14,4.55,2,10.78-2.55,13.95c-4.55,3.14-10.78,2-13.95-2.55
			C204.82,101.25,205.96,94.98,210.5,91.84z M212.31,126.92c-0.12-0.71-0.43-1.65-0.43-1.65s1.18,1.61,1.76,2.27
			c0.59,0.67,1.14-0.08,0.82-0.71c-0.31-0.59-1.25-2.27-1.25-2.27s2.04,1.8,2.74,2.27c0.71,0.43,1.49-0.35,0.74-1.14l-2.47-2.55
			c0.9,0.63,1.84,1.21,2.82,1.72c1.06,0.51,1.45-0.55,0.78-1.14c-0.67-0.55-3.21-2.27-3.21-2.27c1.57,0.55,2.19-0.27,1.92-0.71
			c-0.31-0.43-2.86-0.55-3.76-1.61l-5.06-9.64c-0.94-1.8-2.19-3.49-2.98-5.41c-1.06-2.74-1.29-5.96,0-8.66
			c1.29-2.74,3.29-4.15,5.41-5.64c2.12-1.49,4.82-3.57,7.21-5.37l2.86-2.12c1.21-0.55,3.61,0.35,4.08,0.04
			c0.47-0.31,0.16-1.25-1.49-1.37c0,0,3.1-0.55,3.88-0.82c0.78-0.27,0.9-1.33-0.27-1.29c-1.1,0.08-2.19,0.24-3.25,0.47l3.25-1.37
			c0.98-0.43,0.59-1.37-0.24-1.29c-1.18,0.24-2.31,0.55-3.41,0.94l2.08-1.57c0.51-0.43,0.35-1.25-0.47-0.94
			c-0.86,0.39-1.72,0.82-2.55,1.29c0.39-0.43,0.74-0.86,1.1-1.29c0.43-0.59,0.04-0.98-0.51-0.67c-0.55,0.31-3.02,1.88-5.17,2.9
			l-28.06,11.29c-4.08,1.76-5.92,6.51-4.15,10.58c0.39,0.94,0.98,1.76,1.72,2.47L208,122.45l0.08,0.16c1.53,1.72,3.17,4.15,3.57,4.7
			C211.95,127.82,212.46,127.66,212.31,126.92z"/>
		<path class="st16" d="M172.68,126.57c3.33-4.35,9.56-5.17,13.91-1.84s5.17,9.56,1.84,13.91s-9.56,5.17-13.91,1.84
			S169.35,130.92,172.68,126.57z M154.07,136.84c0.59-0.35,1.37-0.9,1.37-0.9c-0.55,0.74-1.1,1.53-1.57,2.35
			c-0.39,0.78,0.35,1.06,0.86,0.55c0.51-0.47,1.72-1.88,1.72-1.88c-0.47,1.06-0.9,2.16-1.25,3.29c-0.24,0.78,0.71,1.29,1.25,0.35
			c0.55-0.94,1.69-3.1,1.69-3.1c-0.35,1.02-0.63,2.08-0.82,3.17c-0.16,1.14,0.94,1.18,1.29,0.39c0.35-0.78,1.18-3.68,1.18-3.68
			c-0.04,1.61,0.9,2.04,1.25,1.57s-0.31-2.86,0.39-4l7.64-7.68c1.45-1.45,2.59-3.14,4.19-4.43c2.31-1.8,5.25-2.98,8.19-2.55
			c2.94,0.43,4.9,1.88,6.98,3.49c2.08,1.61,4.78,3.49,7.17,5.21l2.9,2.08c0.86,0.98,0.71,3.49,1.14,3.88
			c0.43,0.39,1.29-0.24,0.9-1.76c0,0,1.45,2.7,1.92,3.37c0.47,0.71,1.57,0.43,1.18-0.67c-0.39-1.02-0.9-2-1.45-2.94l2.31,2.7
			c0.71,0.82,1.49,0.16,1.14-0.59c-0.35-0.78-1.88-2.94-1.88-2.94s1.49,1.18,2.08,1.53s1.25-0.04,0.74-0.74
			c-0.63-0.71-1.29-1.37-2-2l1.53,0.59c0.74,0.24,0.98-0.27,0.51-0.71c-0.47-0.43-2.7-2.31-4.31-4.04l-19.01-23.2
			c-2.86-3.33-7.88-3.68-11.21-0.78c-0.78,0.67-1.41,1.45-1.84,2.35l-13.36,26.26l-0.12,0.12c-1.06,1.65-2.19,3.25-3.41,4.78
			C153.05,136.76,153.4,137.19,154.07,136.84z"/>
		<path class="st17" d="M130.01,109.21c0.67-5.45,5.6-9.33,11.05-8.7c5.45,0.67,9.33,5.6,8.7,11.05c-0.67,5.45-5.6,9.33-11.05,8.7
			C133.26,119.59,129.34,114.65,130.01,109.21z M126.09,87.26l1.33,0.94c-0.9-0.24-1.84-0.43-2.78-0.55
			c-0.86-0.08-0.82,0.74-0.16,0.98c0.67,0.24,2.39,0.94,2.39,0.94s-2.74-0.08-3.53,0c-0.78,0.08-0.94,1.18,0.12,1.29l3.49,0.47
			c-1.06,0.08-2.16,0.2-3.21,0.39c-1.18,0.27-0.74,1.33,0.08,1.33c0.82,0,3.88-0.27,3.88-0.27c-1.53,0.55-1.57,1.61-0.98,1.72
			c0.55,0.12,2.55-1.33,3.88-1.14l9.88,4.35c1.88,0.82,3.92,1.29,5.68,2.31c2.55,1.45,4.78,3.76,5.41,6.66
			c0.67,2.9,0.08,5.25-0.59,7.72c-0.71,2.47-1.49,5.76-2.19,8.62c-0.31,1.14-0.55,2.31-0.86,3.41c-0.31,1.1-2.94,1.96-3.17,2.47
			c-0.24,0.51,0.67,1.14,2,0.24c0,0-2,2.35-2.47,2.98c-0.47,0.67,0.16,1.65,1.1,0.86c0.78-0.74,1.49-1.57,2.16-2.43
			c0,0-1.14,2.19-1.65,3.14c-0.51,0.9,0.43,1.45,0.98,0.86c0.55-0.59,2.04-2.86,2.04-2.86s-0.51,1.8-0.59,2.47
			c-0.08,0.67,0.51,1.21,0.94,0.43c0.43-0.86,0.78-1.72,1.14-2.59c0,0-0.04,0.98,0,1.69c0.04,0.71,0.59,0.78,0.82,0.16
			c0.63-1.84,1.33-3.64,2.12-5.41l14.54-26.26c2.04-3.84,0.55-8.62-3.33-10.66c-0.94-0.47-1.92-0.78-2.98-0.86l-29.32-2.74h-0.16
			c-2.27-0.39-5.02-1.25-5.68-1.37C125.73,86.4,125.5,86.79,126.09,87.26z"/>
		<path class="st18" d="M143.41,55.98c5.09-1.65,10.58,1.14,12.23,6.27c1.65,5.13-1.14,10.58-6.27,12.23
			c-5.13,1.65-10.58-1.14-12.23-6.27S138.31,57.63,143.41,55.98z M163.71,45.4c-0.27,0.67-0.51,1.57-0.51,1.57
			c-0.04-0.9-0.12-1.84-0.27-2.74c-0.24-0.86-0.94-0.55-1.06,0.08c-0.08,0.67-0.12,2.51-0.12,2.51s-0.74-2.55-1.1-3.25
			c-0.35-0.71-1.37-0.51-1.18,0.51c0.2,1.02,0.67,3.37,0.67,3.37c-0.39-0.98-0.86-1.96-1.37-2.9c-0.55-0.94-1.45-0.27-1.21,0.51
			s1.45,3.53,1.45,3.53c-0.98-1.25-1.96-0.94-1.92-0.39c0.04,0.55,2.04,1.96,2.19,3.21l-0.9,10.54c-0.24,2,0,4.04-0.43,6
			c-0.55,2.78-2.04,5.57-4.51,7.05c-2.47,1.53-4.86,1.65-7.41,1.76s-5.76,0.35-8.66,0.55l-3.41,0.24c-1.29-0.16-2.74-2.12-3.29-2.16
			c-0.55-0.04-0.82,0.94,0.43,1.92c0,0-2.78-1.14-3.57-1.33c-0.78-0.24-1.45,0.67-0.43,1.21c0.94,0.51,1.92,0.94,2.9,1.29
			l-3.41-0.55c-1.06-0.16-1.21,0.82-0.47,1.18c1.06,0.39,2.16,0.74,3.25,1.06l-2.47,0.16c-0.71,0.08-0.94,0.82-0.12,0.98
			c0.9,0.12,1.84,0.24,2.78,0.27c0,0-0.9,0.27-1.57,0.51c-0.67,0.27-0.55,0.78,0.08,0.82c0.67,0.04,3.49,0.04,5.68,0.35l28.81,5.53
			c4.23,0.71,8.23-2.16,8.94-6.39c0.16-0.98,0.12-2-0.08-2.98L165,51.36V51.2c-0.31-2.27-0.35-5.06-0.39-5.68
			C164.49,44.89,163.94,44.77,163.71,45.4z"/>
	</g>
</g>
<g id="Layer_7">
</g>
<g id="Layer_8">
</g>
<g id="Layer_9">
</g>
<g id="Layer_10">
</g>
<g id="Layer_11">
</g>
<g id="Layer_12">
</g>
<g id="Layer_13">
</g>
<g id="Layer_14">
</g>
<g id="Layer_15">
</g>
</svg>
