<?xml version="1.0" encoding="utf-8"?>
<!-- Generator: Adobe Illustrator 27.8.1, SVG Export Plug-In . SVG Version: 6.00 Build 0)  -->
<svg version="1.1" xmlns="http://www.w3.org/2000/svg" xmlns:xlink="http://www.w3.org/1999/xlink" x="0px" y="0px"
	 viewBox="0 0 350 230" style="enable-background:new 0 0 350 230;" xml:space="preserve">
<style type="text/css">
	.st0{fill:#FFFFFF;}
	.st1{fill:#FCBEF3;}
	.st2{fill:#007769;}
	.st3{fill:#990000;}
	.st4{fill:#EE388C;}
	.st5{fill:#4862AD;}
	.st6{fill:#EE4B9B;}
	.st7{fill:#FAEE35;}
	.st8{fill:#01A79D;}
	.st9{fill:#8FC640;}
	.st10{fill:#EC2227;}
	.st11{fill:#E7BD20;}
	.st12{fill:#DC8927;}
	.st13{fill:#2F99D5;}
	.st14{fill:#663366;}
	.st15{fill:#FFC907;}
	.st16{fill:#4B83C3;}
	.st17{fill:#F0535B;}
	.st18{fill:#A92990;}
	.st19{fill:#E16E25;}
	.st20{fill:#426CB4;}
	.st21{fill:#E9292B;}
	.st22{fill:#0F77B7;}
	.st23{fill:#EF4A6C;}
	.st24{fill:#65C5B3;}
	.st25{fill:#965724;}
	.st26{fill:#F1A422;}
	.st27{fill:#18479E;}
	.st28{fill:#64C5B2;}
	.st29{fill:#FAE072;}
	.st30{fill:#EF496E;}
	.st31{fill:#231F20;}
	.st32{fill-rule:evenodd;clip-rule:evenodd;fill:#5C493A;}
	.st33{fill-rule:evenodd;clip-rule:evenodd;fill:#F26767;}
	.st34{fill-rule:evenodd;clip-rule:evenodd;fill:#87C443;}
	.st35{fill-rule:evenodd;clip-rule:evenodd;fill:#EE3E96;}
	.st36{fill-rule:evenodd;clip-rule:evenodd;fill:#2195D2;}
	.st37{fill-rule:evenodd;clip-rule:evenodd;fill:#FFCD05;}
	.st38{fill-rule:evenodd;clip-rule:evenodd;fill:#83C341;}
	.st39{fill-rule:evenodd;clip-rule:evenodd;fill:#0F77B7;}
	.st40{fill-rule:evenodd;clip-rule:evenodd;fill:#ED8D36;}
	.st41{fill-rule:evenodd;clip-rule:evenodd;fill:#3CA356;}
	.st42{fill-rule:evenodd;clip-rule:evenodd;fill:#7F4A25;}
	.st43{fill-rule:evenodd;clip-rule:evenodd;fill:#A3B539;}
	.st44{fill-rule:evenodd;clip-rule:evenodd;fill:#FAAF37;}
	.st45{fill-rule:evenodd;clip-rule:evenodd;fill:#0BB4A1;}
	.st46{fill:#00A9CB;}
	.st47{fill:#79AA41;}
	.st48{fill:#CD8F2A;}
	.st49{fill:#0393B0;}
	.st50{fill:#E82F7B;}
	.st51{fill:#D7DF2A;}
	.st52{fill:#8DC443;}
	.st53{fill:#F0A422;}
	.st54{fill:#3A3A3B;}
	.st55{fill:#29AAE1;}
	.st56{fill:#E9246E;}
</style>
<g id="Layer_1">
</g>
<g id="Layer_2">
</g>
<g id="Layer_3">
</g>
<g id="Layer_4">
</g>
<g id="Layer_5">
</g>
<g id="Layer_6">
</g>
<g id="Layer_7">
</g>
<g id="Layer_8">
</g>
<g id="Layer_9">
</g>
<g id="Layer_10">
	<g>
		<path class="st28" d="M177.26,81.34c5.4,0,9.79-4.9,9.79-10.86c0-5.96-4.39-10.86-9.79-10.86c-5.4,0-9.73,4.83-9.73,10.86
			C167.53,76.51,171.92,81.34,177.26,81.34z M196.78,89.82c-27.43,3.64-45.2-16.45-48.34-20.34c45.7,57.63,21.28,76.46,21.28,76.46
			C199.23,124.91,196.78,89.82,196.78,89.82z"/>
		<path class="st29" d="M212.66,105.64c3.08,1.38,6.84-0.25,8.41-3.7c1.57-3.45,0.31-7.47-2.82-8.85c-3.14-1.38-6.91,0.25-8.47,3.7
			C208.21,100.24,209.53,104.19,212.66,105.64z M232.5,106.26l0.44-0.25L232.5,106.26z M199.17,105.45c0,0-10.55,19.77,1.07,39.55
			c0,0-9.23-17.26,32.33-38.73C229.61,107.71,214.05,114.74,199.17,105.45z M212.66,105.64c3.08,1.38,6.84-0.25,8.41-3.7
			c1.57-3.45,0.31-7.47-2.82-8.85c-3.14-1.38-6.91,0.25-8.47,3.7C208.21,100.24,209.53,104.19,212.66,105.64z M232.5,106.26
			l0.44-0.25L232.5,106.26z M199.17,105.45c0,0-10.55,19.77,1.07,39.55c0,0-9.23-17.26,32.33-38.73
			C229.61,107.71,214.05,114.74,199.17,105.45z"/>
		<path class="st30" d="M151.65,106.83c3.14-1.38,4.39-5.34,2.89-8.85c-1.51-3.52-5.34-5.08-8.47-3.7
			c-3.14,1.38-4.39,5.34-2.89,8.85C144.68,106.64,148.51,108.21,151.65,106.83z M131.81,107.46l-0.44-0.19L131.81,107.46z
			 M165.14,106.64c-14.94,9.23-30.45,2.2-33.27,0.82c41.56,21.53,32.27,38.79,32.27,38.79
			C175.69,126.35,165.14,106.64,165.14,106.64z M151.65,106.83c3.14-1.38,4.39-5.34,2.89-8.85c-1.51-3.52-5.34-5.08-8.47-3.7
			c-3.14,1.38-4.39,5.34-2.89,8.85C144.68,106.64,148.51,108.21,151.65,106.83z M131.81,107.46l-0.44-0.19L131.81,107.46z
			 M165.14,106.64c-14.94,9.23-30.45,2.2-33.27,0.82c41.56,21.53,32.27,38.79,32.27,38.79
			C175.69,126.35,165.14,106.64,165.14,106.64z"/>
		<path class="st31" d="M86.8,81.66l-1.26-2.76l85.81-40.43l3.64-1.76l3.58,1.76l85.81,40.43l-1.32,2.82L175,40.16L86.8,81.66z
			 M248.07,77.33h-0.06l-69.43-32.71L175,42.93l-3.64,1.69L85.55,85.05l1.32,2.82l16.7-7.91v68.67h0.31v0.06h51.16v-3.08h-48.4
			V78.52L175,46.31l69.99,32.96v69.36h3.08V80.78l15.07,7.09l1.32-2.82l-16.38-7.66L248.07,77.33L248.07,77.33z"/>
	</g>
</g>
<g id="Layer_11">
</g>
<g id="Layer_12">
</g>
<g id="Layer_13">
</g>
<g id="Layer_14">
</g>
<g id="Layer_15">
</g>
</svg>
