<?xml version="1.0" encoding="utf-8"?>
<!-- Generator: Adobe Illustrator 27.8.1, SVG Export Plug-In . SVG Version: 6.00 Build 0)  -->
<svg version="1.1" xmlns="http://www.w3.org/2000/svg" xmlns:xlink="http://www.w3.org/1999/xlink" x="0px" y="0px"
	 viewBox="0 0 350 230" style="enable-background:new 0 0 350 230;" xml:space="preserve">
<style type="text/css">
	.st0{fill:#FFFFFF;}
	.st1{fill:#FCBEF3;}
	.st2{fill:#007769;}
	.st3{fill:#990000;}
	.st4{fill:#EE388C;}
	.st5{fill:#4862AD;}
	.st6{fill:#EE4B9B;}
	.st7{fill:#FAEE35;}
	.st8{fill:#01A79D;}
	.st9{fill:#8FC640;}
	.st10{fill:#EC2227;}
	.st11{fill:#E7BD20;}
	.st12{fill:#DC8927;}
	.st13{fill:#2F99D5;}
	.st14{fill:#663366;}
	.st15{fill:#FFC907;}
	.st16{fill:#4B83C3;}
	.st17{fill:#F0535B;}
	.st18{fill:#A92990;}
	.st19{fill:#E16E25;}
	.st20{fill:#426CB4;}
	.st21{fill:#E9292B;}
	.st22{fill:#0F77B7;}
	.st23{fill:#EF4A6C;}
	.st24{fill:#65C5B3;}
	.st25{fill:#965724;}
	.st26{fill:#F1A422;}
	.st27{fill:#18479E;}
	.st28{fill:#64C5B2;}
	.st29{fill:#FAE072;}
	.st30{fill:#EF496E;}
	.st31{fill:#231F20;}
	.st32{fill-rule:evenodd;clip-rule:evenodd;fill:#5C493A;}
	.st33{fill-rule:evenodd;clip-rule:evenodd;fill:#F26767;}
	.st34{fill-rule:evenodd;clip-rule:evenodd;fill:#87C443;}
	.st35{fill-rule:evenodd;clip-rule:evenodd;fill:#EE3E96;}
	.st36{fill-rule:evenodd;clip-rule:evenodd;fill:#2195D2;}
	.st37{fill-rule:evenodd;clip-rule:evenodd;fill:#FFCD05;}
	.st38{fill-rule:evenodd;clip-rule:evenodd;fill:#83C341;}
	.st39{fill-rule:evenodd;clip-rule:evenodd;fill:#0F77B7;}
	.st40{fill-rule:evenodd;clip-rule:evenodd;fill:#ED8D36;}
	.st41{fill-rule:evenodd;clip-rule:evenodd;fill:#3CA356;}
	.st42{fill-rule:evenodd;clip-rule:evenodd;fill:#7F4A25;}
	.st43{fill-rule:evenodd;clip-rule:evenodd;fill:#A3B539;}
	.st44{fill-rule:evenodd;clip-rule:evenodd;fill:#FAAF37;}
	.st45{fill-rule:evenodd;clip-rule:evenodd;fill:#0BB4A1;}
	.st46{fill:#00A9CB;}
	.st47{fill:#79AA41;}
	.st48{fill:#CD8F2A;}
	.st49{fill:#0393B0;}
	.st50{fill:#E82F7B;}
	.st51{fill:#D7DF2A;}
	.st52{fill:#8DC443;}
	.st53{fill:#F0A422;}
	.st54{fill:#3A3A3B;}
	.st55{fill:#29AAE1;}
	.st56{fill:#E9246E;}
</style>
<g id="Layer_1">
</g>
<g id="Layer_2">
</g>
<g id="Layer_3">
</g>
<g id="Layer_4">
</g>
<g id="Layer_5">
</g>
<g id="Layer_6">
</g>
<g id="Layer_7">
</g>
<g id="Layer_8">
</g>
<g id="Layer_9">
</g>
<g id="Layer_10">
</g>
<g id="Layer_11">
</g>
<g id="Layer_12">
</g>
<g id="Layer_13">
</g>
<g id="Layer_14">
</g>
<g id="Layer_15">
	<g>
		<path class="st54" d="M262.11,108.58c0.24-2.87-0.37-5.75-1.65-8.32c-1.35-2.57-3.06-4.83-5.08-6.85
			c-4.04-4.1-8.87-7.34-13.82-10.15c-5.08-2.75-10.33-5.14-15.71-7.09c-5.38-2.02-10.88-3.73-16.45-5.14
			c-11.19-2.87-22.56-4.77-34-5.75c-11.5-0.92-22.99-0.98-34.36,0.49c-2.81,0.31-5.63,0.79-8.38,1.35c-2.75,0.49-5.5,1.22-8.19,2.08
			c-2.75,0.86-5.5,1.9-8.01,3.18c-1.1-1.53-2.75-2.63-4.65-3.36c0.86-0.49,1.71-0.98,2.63-1.41c0.67-0.12,1.35-0.43,1.9-0.92
			c2.14-0.98,4.34-1.83,6.6-2.57c2.87-0.86,5.75-1.59,8.74-2.26c2.93-0.67,5.81-1.1,8.8-1.47c5.87-0.67,11.86-1.04,17.79-0.98
			c5.93,0,11.8,0.31,17.73,0.86c5.81,0.61,11.68,1.47,17.43,2.63l4.34,0.86l4.28,0.92l8.5,2.32c11.31,3.36,22.32,7.77,32.41,14.06
			c4.95,3.18,9.72,6.79,13.64,11.31c1.96,2.26,3.49,4.77,4.71,7.52C262.29,102.71,262.6,105.71,262.11,108.58z M109.68,104.18
			c0.61,0.55,1.16,1.04,1.77,1.53c2.32,1.9,4.83,3.67,7.4,5.26c2.51,1.53,5.14,2.93,7.77,4.22c5.32,2.57,10.82,4.77,16.45,6.6
			c11.13,3.55,22.62,5.93,34.3,7.09c-11.37-2.26-22.56-5.44-33.39-9.6c-0.73-0.31-1.47-0.61-2.2-0.86c-2.14,0-4.16-0.67-5.81-2.08
			c-0.24-0.24-0.49-0.49-0.73-0.73c-2.38-1.1-4.71-2.26-7.03-3.49c-2.51-1.41-4.95-2.81-7.34-4.4c-1.77-1.16-3.55-2.45-5.2-3.79
			C113.89,104.61,111.82,104.67,109.68,104.18z"/>
		<g>
			<path class="st55" d="M137.07,98.8c0.43-0.79,0.61-1.77,0.49-2.69l-0.79-1.59l0,0c-0.79-2.08-0.86-4.34-0.12-6.42
				c2.08-5.44,9.6-7.64,16.75-4.89c4.71,1.83,8.13,5.32,9.23,8.99h0.06c0.06,0.06,0.06,0.18,0.06,0.24
				c0.55,1.83,0.49,3.79-0.18,5.56c-0.24,0.67-0.61,1.35-0.98,1.96c-1.9,5.75-5.44,10.76-10.21,14.49l-0.98,0.79l-0.12,0.12l0,0
				c-4.77,3.55-10.58,4.1-14.31,0.92C132.24,113.11,132.05,104.61,137.07,98.8z M135.3,75.81c0.73,3.55,3.3,6.05,5.75,5.5
				c2.51-0.55,3.85-3.73,3.18-7.34c-0.67-3.55-3.3-5.99-5.75-5.5C135.97,68.96,134.62,72.26,135.3,75.81z M145.69,74.4
				c-0.43,2.32,0.49,4.52,1.96,4.77c1.47,0.24,3-1.47,3.42-3.85c0.43-2.32-0.49-4.52-1.96-4.77
				C147.65,70.3,146.06,72.02,145.69,74.4z M152.17,76.72c-0.67,2.08-0.12,4.04,1.22,4.4c1.35,0.43,2.81-0.92,3.42-3
				c0.61-2.08,0.12-4.04-1.22-4.4C154.25,73.3,152.78,74.65,152.17,76.72z M158.41,79.78c-0.92,1.53-0.92,3.36,0.12,3.97
				c1.1,0.61,2.57-0.18,3.55-1.83c0.98-1.59,0.86-3.42-0.12-4.04S159.39,78.13,158.41,79.78z M163.18,84.43
				c-0.86,1.16-1.1,2.51-0.43,3.06c0.67,0.61,2.02,0.12,2.93-0.92c0.92-1.1,1.1-2.51,0.43-3.06
				C165.44,82.9,164.09,83.39,163.18,84.43z"/>
			<path class="st56" d="M117.07,85.04c-0.43-0.79-0.61-1.77-0.55-2.69c0.31-0.49,0.61-1.04,0.79-1.59l0,0
				c0.86-2.08,0.92-4.4,0.12-6.48c-2.08-5.44-9.6-7.64-16.69-4.89c-4.77,1.83-8.13,5.32-9.23,8.99h-0.12v0.24
				c-0.55,1.83-0.49,3.79,0.12,5.56c0.31,0.67,0.61,1.35,1.1,1.96c1.35,4.28,4.22,9.66,10.15,14.49l1.1,0.86h0.06
				c4.83,3.55,10.64,4.1,14.37,0.92C122.03,99.23,122.15,90.85,117.07,85.04z M118.91,62.05c-0.73,3.55-3.3,6.05-5.75,5.5
				c-2.45-0.55-3.85-3.73-3.18-7.22c0.67-3.49,3.3-6.05,5.75-5.56C118.17,55.26,119.58,58.5,118.91,62.05z M108.51,60.64
				c0.43,2.38-0.49,4.52-1.96,4.77c-1.47,0.24-3-1.41-3.49-3.85c-0.49-2.45,0.49-4.52,2.02-4.77
				C106.62,56.55,108.09,58.32,108.51,60.64z M102.03,62.97c0.67,2.08,0.12,4.04-1.22,4.4c-1.35,0.43-2.81-0.92-3.49-2.93
				c-0.67-2.02-0.06-4.1,1.28-4.52C99.95,59.54,101.42,60.95,102.03,62.97z M95.8,66.02c0.92,1.59,0.86,3.36-0.12,3.97
				c-0.98,0.61-2.63-0.18-3.55-1.83s-0.92-3.36,0.12-3.97C93.29,63.58,94.76,64.37,95.8,66.02z M90.97,70.79
				c0.92,1.1,1.16,2.38,0.49,3c-0.67,0.61-2.02,0.12-2.93-0.92c-0.92-1.1-1.16-2.51-0.43-3C88.76,69.26,90.05,69.63,90.97,70.79z"/>
		</g>
	</g>
</g>
</svg>
