<?xml version="1.0" encoding="utf-8"?>
<!-- Generator: Adobe Illustrator 27.8.1, SVG Export Plug-In . SVG Version: 6.00 Build 0)  -->
<svg version="1.1" xmlns="http://www.w3.org/2000/svg" xmlns:xlink="http://www.w3.org/1999/xlink" x="0px" y="0px"
	 viewBox="0 0 350 230" style="enable-background:new 0 0 350 230;" xml:space="preserve">
<style type="text/css">
	.st0{fill:#FFFFFF;}
	.st1{fill:#FCBEF3;}
	.st2{fill:#007769;}
	.st3{fill:#990000;}
	.st4{fill:#EE388C;}
	.st5{fill:#4862AD;}
	.st6{fill:#EE4B9B;}
	.st7{fill:#FAEE35;}
	.st8{fill:#01A79D;}
	.st9{fill:#8FC640;}
	.st10{fill:#EC2227;}
	.st11{fill:#E7BD20;}
	.st12{fill:#DC8927;}
	.st13{fill:#2F99D5;}
	.st14{fill:#663366;}
	.st15{fill:#FFC907;}
	.st16{fill:#4B83C3;}
	.st17{fill:#F0535B;}
	.st18{fill:#A92990;}
	.st19{fill:#E16E25;}
	.st20{fill:#426CB4;}
	.st21{fill:#E9292B;}
	.st22{fill:#0F77B7;}
	.st23{fill:#EF4A6C;}
	.st24{fill:#65C5B3;}
	.st25{fill:#965724;}
	.st26{fill:#F1A422;}
	.st27{fill:#18479E;}
	.st28{fill:#64C5B2;}
	.st29{fill:#FAE072;}
	.st30{fill:#EF496E;}
	.st31{fill:#231F20;}
	.st32{fill-rule:evenodd;clip-rule:evenodd;fill:#5C493A;}
	.st33{fill-rule:evenodd;clip-rule:evenodd;fill:#F26767;}
	.st34{fill-rule:evenodd;clip-rule:evenodd;fill:#87C443;}
	.st35{fill-rule:evenodd;clip-rule:evenodd;fill:#EE3E96;}
	.st36{fill-rule:evenodd;clip-rule:evenodd;fill:#2195D2;}
	.st37{fill-rule:evenodd;clip-rule:evenodd;fill:#FFCD05;}
	.st38{fill-rule:evenodd;clip-rule:evenodd;fill:#83C341;}
	.st39{fill-rule:evenodd;clip-rule:evenodd;fill:#0F77B7;}
	.st40{fill-rule:evenodd;clip-rule:evenodd;fill:#ED8D36;}
	.st41{fill-rule:evenodd;clip-rule:evenodd;fill:#3CA356;}
	.st42{fill-rule:evenodd;clip-rule:evenodd;fill:#7F4A25;}
	.st43{fill-rule:evenodd;clip-rule:evenodd;fill:#A3B539;}
	.st44{fill-rule:evenodd;clip-rule:evenodd;fill:#FAAF37;}
	.st45{fill-rule:evenodd;clip-rule:evenodd;fill:#0BB4A1;}
	.st46{fill:#00A9CB;}
	.st47{fill:#79AA41;}
	.st48{fill:#CD8F2A;}
	.st49{fill:#0393B0;}
	.st50{fill:#E82F7B;}
	.st51{fill:#D7DF2A;}
	.st52{fill:#8DC443;}
	.st53{fill:#F0A422;}
	.st54{fill:#3A3A3B;}
	.st55{fill:#29AAE1;}
	.st56{fill:#E9246E;}
</style>
<g id="Layer_1">
</g>
<g id="Layer_2">
</g>
<g id="Layer_3">
</g>
<g id="Layer_4">
</g>
<g id="Layer_5">
</g>
<g id="Layer_6">
</g>
<g id="Layer_7">
</g>
<g id="Layer_8">
</g>
<g id="Layer_9">
</g>
<g id="Layer_10">
</g>
<g id="Layer_11">
</g>
<g id="Layer_12">
</g>
<g id="Layer_13">
</g>
<g id="Layer_14">
	<g>
		<g>
			<path class="st46" d="M201.99,90.62c3.76,0,6.83,3.06,6.83,6.83s-3.06,6.83-6.83,6.83s-6.83-3.06-6.83-6.83
				C195.17,93.64,198.23,90.62,201.99,90.62z M207.9,118.14c12.47-12.73,9.58-18.86,9.58-18.86c-19.82,21.39-30.01-1.84-30.01-1.84
				c-0.35,2.32-0.61,4.59-0.79,6.78C194.82,106.98,202.12,111.79,207.9,118.14z"/>
			<path class="st47" d="M180.77,120.28c-5.43-2.41-9.23-10.06-6.04-18.64c-1.53-0.17-3.11-0.26-4.68-0.26
				c-2.32,0-4.59,0.18-6.87,0.48C167.26,121.77,180.77,120.28,180.77,120.28z"/>
			<path class="st48" d="M135.23,141.28c0,0,22.27,2.41,21.04-37.93c-6.74,1.93-13.04,5.16-18.51,9.58
				C147.7,125.27,142.84,137.87,135.23,141.28z"/>
			<path class="st49" d="M207.29,149.99c-8.23-3.63-13.21-17.94,0-31.19l0.61-0.66c-5.78-6.34-13.08-11.16-21.22-13.96
				C182.17,152.7,207.29,149.99,207.29,149.99z"/>
			<path class="st50" d="M175,47.7c29.66,0,55.3,20.74,61.47,49.74c-2.14-33.95-31.41-59.76-65.36-57.58
				c-30.98,1.93-55.65,26.6-57.58,57.58C119.7,68.44,145.34,47.7,175,47.7z"/>
			<path class="st51" d="M158.9,54.87l1.58,3.24l3.5,0.52l-2.49,2.49l0.52,3.5l-3.11-1.62l-3.19,1.62l0.61-3.5l-2.58-2.49l3.54-0.52
				L158.9,54.87z"/>
			<path class="st52" d="M170.1,72.94c0.39-3.28,3.41-5.64,6.69-5.25c3.28,0.39,5.64,3.41,5.25,6.69c-0.39,3.28-3.41,5.64-6.69,5.25
				C172.07,79.24,169.71,76.27,170.1,72.94z M174.74,101.69c1.36-3.37,3.41-6.43,6.04-8.97c11.68-11.68,9.1-17.33,9.1-17.33
				c-17.59,18.94-26.64-1.62-26.64-1.62c-1.66,12.34-1.4,21.44-0.04,28.18c2.28-0.31,4.59-0.48,6.87-0.48
				C171.63,101.42,173.21,101.51,174.74,101.69z M137.55,69.71l1.09,2.14l2.32,0.31l-1.71,1.71l0.44,2.32l-2.14-1.09l-2.1,1.09
				l0.35-2.32l-1.71-1.71l2.41-0.31L137.55,69.71z"/>
			<path class="st21" d="M200.46,75.35l1.09,2.14l2.36,0.31l-1.75,1.75l0.44,2.32l-2.14-1.09l-2.1,1.09l0.35-2.32l-1.71-1.75
				l2.41-0.31L200.46,75.35z"/>
			<path class="st53" d="M139.91,81.87c3.76-0.39,7.09,2.36,7.48,6.13s-2.36,7.09-6.13,7.48s-7.09-2.36-7.48-6.13
				C133.39,85.59,136.19,82.22,139.91,81.87z M155.01,88.69c0,0-10.28,23.19-30.06,1.79c0,0-2.93,6.39,10.28,19.6
				c0.88,0.88,1.75,1.84,2.54,2.84c5.47-4.42,11.77-7.7,18.51-9.58C156.1,98.45,155.71,93.55,155.01,88.69z M184.97,56.84l1.05,2.14
				l2.41,0.35L186.72,61l0.44,2.41l-2.14-1.18l-2.14,1.18l0.44-2.41l-1.71-1.66l2.41-0.35L184.97,56.84z M206.28,62.27l1.23,2.45
				l2.71,0.35l-1.97,1.93l0.48,2.71l-2.45-1.31l-2.41,1.31l0.48-2.71l-1.97-1.93l2.71-0.35L206.28,62.27z M172.77,56.84l0.48,0.96
				l1.05,0.13l-0.74,0.79l0.18,1.05l-0.96-0.48l-0.96,0.48l0.17-1.05l-0.74-0.79l1.05-0.13L172.77,56.84z"/>
		</g>
	</g>
</g>
<g id="Layer_15">
</g>
</svg>
