<?xml version="1.0" encoding="utf-8"?>
<!-- Generator: Adobe Illustrator 27.8.1, SVG Export Plug-In . SVG Version: 6.00 Build 0)  -->
<svg version="1.1" xmlns="http://www.w3.org/2000/svg" xmlns:xlink="http://www.w3.org/1999/xlink" x="0px" y="0px"
	 viewBox="0 0 350 230" style="enable-background:new 0 0 350 230;" xml:space="preserve">
<style type="text/css">
	.st0{fill:#FFFFFF;}
	.st1{fill:#FCBEF3;}
	.st2{fill:#007769;}
	.st3{fill:#990000;}
	.st4{fill:#EE388C;}
	.st5{fill:#4862AD;}
	.st6{fill:#EE4B9B;}
	.st7{fill:#FAEE35;}
	.st8{fill:#01A79D;}
	.st9{fill:#8FC640;}
	.st10{fill:#EC2227;}
	.st11{fill:#E7BD20;}
	.st12{fill:#DC8927;}
	.st13{fill:#2F99D5;}
	.st14{fill:#663366;}
	.st15{fill:#FFC907;}
	.st16{fill:#4B83C3;}
	.st17{fill:#F0535B;}
	.st18{fill:#A92990;}
	.st19{fill:#E16E25;}
	.st20{fill:#426CB4;}
	.st21{fill:#E9292B;}
	.st22{fill:#0F77B7;}
	.st23{fill:#EF4A6C;}
	.st24{fill:#65C5B3;}
	.st25{fill:#965724;}
	.st26{fill:#F1A422;}
	.st27{fill:#18479E;}
	.st28{fill:#64C5B2;}
	.st29{fill:#FAE072;}
	.st30{fill:#EF496E;}
	.st31{fill:#231F20;}
	.st32{fill-rule:evenodd;clip-rule:evenodd;fill:#5C493A;}
	.st33{fill-rule:evenodd;clip-rule:evenodd;fill:#F26767;}
	.st34{fill-rule:evenodd;clip-rule:evenodd;fill:#87C443;}
	.st35{fill-rule:evenodd;clip-rule:evenodd;fill:#EE3E96;}
	.st36{fill-rule:evenodd;clip-rule:evenodd;fill:#2195D2;}
	.st37{fill-rule:evenodd;clip-rule:evenodd;fill:#FFCD05;}
	.st38{fill-rule:evenodd;clip-rule:evenodd;fill:#83C341;}
	.st39{fill-rule:evenodd;clip-rule:evenodd;fill:#0F77B7;}
	.st40{fill-rule:evenodd;clip-rule:evenodd;fill:#ED8D36;}
	.st41{fill-rule:evenodd;clip-rule:evenodd;fill:#3CA356;}
	.st42{fill-rule:evenodd;clip-rule:evenodd;fill:#7F4A25;}
	.st43{fill-rule:evenodd;clip-rule:evenodd;fill:#A3B539;}
	.st44{fill-rule:evenodd;clip-rule:evenodd;fill:#FAAF37;}
	.st45{fill-rule:evenodd;clip-rule:evenodd;fill:#0BB4A1;}
	.st46{fill:#00A9CB;}
	.st47{fill:#79AA41;}
	.st48{fill:#CD8F2A;}
	.st49{fill:#0393B0;}
	.st50{fill:#E82F7B;}
	.st51{fill:#D7DF2A;}
	.st52{fill:#8DC443;}
	.st53{fill:#F0A422;}
	.st54{fill:#3A3A3B;}
	.st55{fill:#29AAE1;}
	.st56{fill:#E9246E;}
</style>
<g id="Layer_1">
</g>
<g id="Layer_2">
</g>
<g id="Layer_3">
</g>
<g id="Layer_4">
</g>
<g id="Layer_5">
</g>
<g id="Layer_6">
</g>
<g id="Layer_7">
</g>
<g id="Layer_8">
</g>
<g id="Layer_9">
</g>
<g id="Layer_10">
</g>
<g id="Layer_11">
</g>
<g id="Layer_12">
</g>
<g id="Layer_13">
	<g>
		<path class="st42" d="M248.16,72.07c-5.71,7.33-13.6,4.2-21.05,2.18c-4.03-1.23-8.23-1.9-12.43-1.9
			c-5.32,0.06-10.64,0.56-16.07,0.06h-0.22c-5.88-2.13-12.04-3.19-18.25-3.25c-1.79,0-3.58,0.11-5.37,0.28l3.64-2.07
			c4.48-2.52,9.29-4.37,14.27-5.6c5.65-1.29,19.87-3.41,18.47-11.87c-0.11-0.73-1.29-0.56-1.29,0.11c0.28,4.48-5.09,5.93-8.51,6.72
			s-8.51,1.4-12.82,2.07c-4.31,0.67-10.02,3.41-14.55,5.99c-3.19,1.74-6.27,3.69-9.24,5.82c-0.9,0.62-2.24,1.4-3.41,2.35
			c-5.54,2.35-10.69,5.54-15.28,9.4c-5.32,4.31-9.96,9.35-13.83,15c0.39-2.35,0.73-4.59,1.23-6.83c1.68-7.89,4.09-16.18,10.3-21.66
			c5.21-4.53,11.2-7.84,17.02-11.48c4.42-2.69,9.68-6.16,10.02-11.81c0-0.67-1.12-0.84-1.23-0.17c-1.06,6.55-9.12,9.01-14.27,11.53
			c-5.15,2.52-12.2,6.33-16.91,10.97c-5.65,5.6-8,13.77-9.52,21.38c-0.73,3.97-1.23,7.95-1.46,11.98c-0.11,1.74-0.17,3.41-0.22,5.15
			c-1.23,2.69-2.24,5.49-2.91,8.4c-2.46,9.29-2.8,19.37-0.39,28.66c-3.86-4.59-7.33-10.47-9.4-21.55
			c-1.46-7.72-0.78-11.14,0.78-17.58c1.57-6.44,1.29-12.37-2.57-17.8c-0.45-0.62-1.18-0.39-0.9,0.5c0.95,3.47,1.68,6.83,1.18,10.52
			c-0.5,3.69-2.24,7.72-2.8,11.7c-0.62,4.03-0.78,8.17-0.5,12.26c0.67,8.96,3.3,17.63,7.84,25.36c-0.06,0-0.11,0.06-0.11,0.11
			l-1.18-0.28c-0.22,0-0.45,0.17-0.45,0.45c0,0.11,0.06,0.22,0.11,0.34c0.28,0.22,0.56,0.39,0.84,0.56
			c0.11,0.06,0.22,0.06,0.28,0.17c0.06,0.06,0.17,0.11,0.22,0.11h-0.11c-0.06-0.06-0.06-0.11-0.11-0.11
			c-0.11-0.06-0.17-0.11-0.28-0.17s-0.22-0.06-0.34,0v0.17h-0.17l-0.56-0.22c-0.28-0.11-0.17-0.5-0.39-0.67
			c-0.17-0.17-0.17-0.17-0.22-0.11c-0.06,0.06-0.28,0.11-0.28,0.22c0,0.11-0.06,1.18-0.11,1.51l-0.73,1.18
			c-0.11-1.12-0.78-2.07-0.73-3.19s-0.9-0.78-0.95-0.17c-0.06,0.39,0,0.78,0.06,1.18c-0.56-0.45-1.18-0.84-1.85-1.12
			c-0.28-0.11-0.78,0.11-0.67,0.5c0.11,0.39,0.17,0.67,0.22,0.95c-0.34-0.39-0.78-0.67-1.29-0.84c-0.22-0.06-0.45,0.11-0.5,0.34
			c0,0.11,0,0.22,0.06,0.34c0.73,0.62,1.23,1.29,1.9,1.85h-0.11c0.11,0.34,0.22,0.67,0.28,1.06l-0.39-0.11
			c-0.06-0.17-0.06-0.28-0.11-0.5c0-0.11,0.06-0.22,0.06-0.28l-0.28-0.17c-0.11-0.22-0.28-0.39-0.5-0.5c0-0.11,0-0.17-0.06-0.22
			s-0.22-0.17-0.28-0.11l-0.22,0.11h-0.39c-0.17-0.39,0.17-0.9-0.39-1.23c-0.22,0-0.39,0.17-0.45,0.39c-0.17,0.45-0.17,0.95,0,1.4
			l-0.39-0.17c-0.06-0.28-0.11-0.5-0.06-0.78c0-0.62-0.9-0.78-0.95-0.11c0-0.28,0.06-0.56,0.11-0.78c0-0.22-0.17-0.39-0.39-0.45
			c-0.11,0-0.45,0.06-0.5,0.17c-0.17,0.45-0.28,0.9-0.28,1.4h-0.06l-0.67-0.28h-0.28c-0.73-0.39-1.57-0.67-2.41-0.78
			c-0.22,0-0.45,0.17-0.45,0.45c0,0.11,0.06,0.22,0.11,0.34l1.06,0.67c-0.11,0-0.22,0.11-0.28,0.22c-0.22-0.11-0.5-0.22-0.73-0.22
			c-0.45,0-0.5,0.67-0.11,0.84h0.06c-0.06,0-0.06,0-0.06,0.06c-0.06,0.17-0.06,0.39-0.11,0.56l-0.39-0.11
			c0.06,0.22,0.22,0.45,0.45,0.56c0,0.17,0.06,0.28,0.06,0.45l-0.5-0.22l-0.95-0.39c0.06-0.5,0.11-0.9,0.17-1.29
			c0.06-0.17,0-0.34-0.17-0.39c-0.06,0-0.11-0.06-0.17,0c-0.17,0-0.45,0.06-0.5,0.17c-0.22,0.45-0.39,0.9-0.39,1.4
			c-0.06-0.06-0.17,0-0.17,0.11c-0.95-0.67-2.07-1.12-3.25-1.29c-0.17-0.11-0.39,0-0.5,0.17s0,0.39,0.17,0.5
			c0.73,0.5,1.46,0.95,2.24,1.34l-0.11,0.17c0.06,0.11,0.06,0.22,0.06,0.39l-0.9-0.67c-0.34-0.28-0.84-0.5-1.29-0.5
			s-0.5,0.67-0.11,0.78c0.39,0.11,1.85,1.79,2.91,1.29c0.22-0.11,0.34-0.39,0.22-0.62c-0.17-0.22-0.34-0.45-0.45-0.67
			c0.56,0.34,1.12,0.73,1.57,1.18c0.28,0.39,1.06,0.22,0.9-0.39c-0.11-0.39-0.34-0.78-0.62-1.12l1.18,0.78
			c0.5,0.45,0.95,0.9,1.4,1.4c0.56-0.28,0.73-0.56,0.5-0.9c-0.34-0.5-0.78-0.9-1.29-1.23l0.45-0.11c0.5-0.06,0.9,0.28,1.06,0.73
			c0.11,0.45,0.17,0.9,0.11,1.34c-0.06,0.11,0,0.28-0.06,0.62l1.12-0.56c0.5,0.06,0.9,0.78,1.68,0.17
			c-0.73-0.28-1.06-1.06-1.74-1.12c-0.06-0.5-0.34-0.95-0.67-1.34h0.39c0.45,0.45,1.01,0.73,1.57,0.9c0.39,0.06,0.73-0.17,0.78-0.56
			c0-0.11,0-0.22-0.06-0.39h0.22c0.17,0.34,0.28,0.67,0.39,1.06c0.17,0.39,0.56,0.56,0.95,0.45c0.06-0.06,0.17-0.06,0.22-0.11h0.11
			l0.39-0.62l0.28,0.28c0.45,0.39,0.5,0.39,0.84-0.06c0.06-0.06,0.11-0.11,0.11-0.11c0-0.06,0.11-0.17,0,0l0,0l0.22-0.11h0.17
			c-0.28,0.11-0.45,0.5-0.39,0.78h0.45l1.06-0.5l0.17-0.17c0.28,0,0.56-0.06,0.73-0.22c-0.17,0-0.28-0.11-0.39-0.22
			c0-0.28-0.11-0.5-0.22-0.73l-0.22-0.62l0.39,0.11c0.62,0.17,0.95-0.62,0.67-1.06c-0.28-0.39-0.56-0.78-0.78-1.23
			c0.73,0.62,1.29,1.46,1.51,2.41c0,0.11,0.11,0.22,0.22,0.39c-0.5,0.28-1.01,0.5-1.51,0.67l0.95,0.39v0.11
			c0.11,0.62,0.22,1.34,0.78,1.68c0.45,0.28,1.01,0.22,1.34-0.17c0.22-0.22,0.34-0.45,0.5-0.67c0.67,0.17,1.34,0.17,2.02,0.06
			l-0.5,0.45c-0.17,0.17,0.06,0.62,0.28,0.56c0.78-0.22,1.51-0.67,2.02-1.29l0.22-0.11l0.22-0.22c0.11,0.11,0.34,0.17,0.5,0.17
			c0.17,0.06,0.34-0.06,0.39-0.22l0,0l0.22,0.22c0.17,0.22,0.56,0.28,0.78,0.06c0.11-0.11,0.22-0.28,0.22-0.45
			c-0.06-0.17-0.11-0.39-0.22-0.56h0.28l0.45,0.28c0.06,0.11,0.17,0.22,0.28,0.28c0.06,0.11,0.17,0.22,0.28,0.22
			c0.11,0.06,0.17,0.17,0.22,0.22l-0.9-0.22c0.22,0.5,0.67,0.78,1.23,0.78h0.22c0.17-0.06,0.39-0.22,0.5-0.39l0.28,0.17v0.56
			l0.95-0.45h0.06c0.5,0.06,0.84,0.78,1.68,0.11c-0.67-0.22-0.95-0.84-1.51-1.06c-0.11-0.11-0.17-0.22-0.17-0.39
			c0.56,0.34,1.06,0.73,1.51,1.18c0.17,0.22,0.56,0.28,0.78,0.11c0.11-0.11,0.17-0.22,0.22-0.39l0.78-0.17
			c0.39,0.34,0.78,0.73,1.12,1.12c0.56-0.28,0.73-0.56,0.5-0.9l-0.39-0.5l0.56-0.11c0.17,0.45,0.22,0.9,0.11,1.34
			c-0.06,0.11,0,0.28,0,0.62l1.06-0.56c0.5,0.06,0.9,0.78,1.68,0.17c-0.67-0.39-1.06-1.06-1.74-1.12c-0.67-0.06-0.06-0.22-0.11-0.39
			c0.56,0.45,0.9,0.11,1.29-0.06h0.56l0.84,0.45v-0.11c0.22,0.62,0.9,1.01,1.57,0.78c0.17-0.06,0.28-0.11,0.39-0.22l0.39-0.5
			c0.11,0.06,0.22,0,0.45-0.11h0.5c-0.06,0.11-0.06,0.22-0.06,0.28h0.45l0.67-0.28h0.22c-0.17,0.11-0.28,0.28-0.45,0.45
			c-0.22,0.17,0,0.56,0.28,0.56c0.73-0.17,1.34-0.62,1.79-1.18c0,0.56,0.28,1.12,0.73,1.46c0.45,0.28,1.01,0.17,1.34-0.17
			c0.22-0.17,0.39-0.45,0.56-0.67c0.62,0.17,1.29,0.17,1.96,0.06l-0.45,0.45c-0.22,0.17,0,0.62,0.22,0.56
			c0.22-0.06,1.74-0.9,2.35-1.74l0.9,0.95c0.56-0.28,0.73-0.56,0.5-0.9c-0.22-0.34-0.5-0.67-0.78-0.9l0.17-0.39
			c0.39,0.06,0.73,0.34,0.78,0.73c0.06,0.45,0.28,0.84,0.11,1.29v0.11c0,0.17,0,0.34-0.06,0.5l0.28-0.11
			c0.22,0.28,0.56,0.39,0.9,0.45c0.17,0.06,0.45,0.11,0.5-0.28l-0.95-0.28l0.39-0.17c0.17,0,0.39,0.11,0.5,0.22
			c0.62,0.45,1.18,0.78,1.9,0.45c0.22-0.11,0.28-0.34,0.22-0.56c-0.17-0.22-0.34-0.45-0.45-0.67c0.56,0.28,1.06,0.67,1.51,1.18
			c0.17,0.22,0.56,0.28,0.78,0.06c0.11-0.11,0.22-0.28,0.22-0.45c-0.11-0.39-0.34-0.78-0.62-1.12l1.12,0.78
			c0.5,0.39,1.01,0.9,1.4,1.4c0.62-0.28,0.73-0.56,0.5-0.9c-0.28-0.45-0.73-0.84-1.18-1.18h0.06l0.39-0.17
			c0.45,0,0.84,0.28,0.9,0.73c0.17,0.39,0.22,0.84,0.11,1.29v0.67l1.06-0.56c0.56,0.06,0.9,0.78,1.74,0.17
			c-0.73-0.39-1.06-1.06-1.79-1.12c-0.28-1.06-0.56-1.51-1.23-1.68l0.28-0.28h0.06c0.34,0.45,0.78,0.84,1.23,1.18
			c0.11,0.28,0.28,0.5,0.56,0.67c0.45,0.22,0.95,0.17,1.34-0.17l0.28-0.28c0.06,0.11,0.06,0.22,0.11,0.39
			c0.06,0.11,0.84,0.67,1.12,0.28h0.11l0.39-0.56h0.06c-0.22,0.17,0,0.56,0.22,0.56l0.39-0.11c0.11,0,0.22,0,0.28-0.11h0.45
			c-0.06,0.17-0.06,0.28,0,0.45h0.39l1.06-0.5h0.11c0.28,0.39,1.12,0.22,0.95-0.39c0-0.06,0-0.11-0.06-0.11l0.5,0.17v0.11
			c0.06,0.62,0.17,1.34,0.78,1.68c0.39,0.22,0.95,0.17,1.29-0.17l0.17-0.17l0.84-0.39h0.62c0.17,0.17,0.34,0.22,0.56,0.22
			l-0.11,0.11c-0.22,0.17,0,0.62,0.28,0.56c0.28-0.06,1.68-0.9,2.24-1.74l0.28-0.17l0.11-0.11l0.39-0.5c0.5,0.67,1.23,1.18,2.07,1.4
			c0.17,0.11,0.34,0.06,0.45-0.11c0.11-0.17,0.06-0.34-0.11-0.45l-0.28-0.22l0.17-0.11c0.56,0.06,1.12,0.06,1.68-0.06l0.56,0.67
			l0.22,0.17c0.11,0.11,0.22,0.28,0.45,0.39c0.45,0.22,0.95,0.17,1.34-0.17c0.22-0.22,0.34-0.45,0.5-0.67
			c0.67,0.17,1.34,0.17,2.02,0.06c-0.17,0.11-0.34,0.28-0.5,0.45c-0.17,0.17,0,0.56,0.28,0.56c0.28,0,1.74-0.95,2.41-1.85
			c0,0.06,0,0.11,0.06,0.11c0,0.06,0.06,0.06,0.11,0.06c0.22,0.28,0.56,0.34,0.84,0.11c0.17-0.11,0.22-0.28,0.22-0.45
			c0.28-0.9,0.78-1.74,1.51-2.41c-0.22,0.45-0.5,0.84-0.78,1.23c-0.28,0.45,0.06,1.23,0.67,1.06c0.62-0.17,1.96-1.51,3.02-2.41
			c1.06-0.84,0-0.78-0.45-0.67c-0.45,0.22-0.9,0.5-1.29,0.84c0.11-0.34,0.22-0.67,0.22-0.95c0.11-0.39-0.39-0.62-0.67-0.5
			c-0.67,0.28-1.29,0.62-1.85,1.12c0.06-0.39,0.11-0.78,0.06-1.18c-0.06-0.62-0.95-0.45-0.95,0.17c-0.06,0.84-0.22,1.62-0.56,2.41
			l-0.45,0.45l-0.5-0.73c-0.06-0.5-0.06-1.06-0.06-1.57l-0.28-0.22l-0.28,0.11c-0.17,0.17-0.06,0.56-0.39,0.67l-0.56,0.22
			c0.11,0.34,0.22,0.73,0.28,1.12c0,0.28-0.28,0.62-0.11,0.9c0.17,0.28-0.62-0.22-0.73-0.56c-0.11-0.28,0.28-0.95,0.5-1.51
			c0.17-0.56-0.67,0.06-0.78,0.28l-0.11,0.17c-0.06-0.11-0.06-0.22-0.11-0.39c-0.06-0.11-0.17-0.17-0.22-0.17
			c-0.06,0-0.39,0.11-0.39,0.22v1.12c0.06,0.11,0.06,0.22,0.06,0.28l-0.17-0.62c-0.06-0.11-0.22-0.17-0.39-0.11l-0.67,0.17
			l-0.39-0.28c0.17-0.17,0.34-0.28,0.56-0.39c0.39-0.17,0.28-0.84-0.11-0.84c-0.45,0.06-0.9,0.22-1.23,0.5l-0.67,0.5
			c-0.06-0.06-0.17-0.06-0.22,0v-0.17c0-0.06-0.06-0.11-0.11-0.17c0.84-0.34,1.57-0.78,2.24-1.34c0.17-0.11,0.28-0.28,0.17-0.5
			c-0.11-0.17-0.28-0.28-0.5-0.17c-1.12,0.17-2.24,0.62-3.19,1.29c0.34-0.17,0.62-0.39,0.84-0.62c0.17-0.11,0.28-0.28,0.17-0.5
			c-0.11-0.17-0.28-0.28-0.5-0.17c-0.34,0-0.62,0.06-0.9,0.17l-0.17-0.45c-0.06-0.11-0.39-0.17-0.5-0.17
			c-0.22,0.06-0.39,0.22-0.39,0.45c0.06,0.17,0.06,0.28,0.11,0.5l-1.29,0.67c0-0.22-0.06-0.45-0.11-0.67
			c-0.06-0.17-0.11-0.28-0.28-0.39l-0.17-0.45c-0.11-0.11-0.34-0.17-0.5-0.11h-0.39c-0.45,0.22-0.9,0.45-1.29,0.78
			c0.11-0.28,0.17-0.62,0.22-0.9c0.11-0.45-0.39-0.62-0.67-0.5c-0.67,0.28-1.29,0.62-1.85,1.12c0.06-0.39,0.11-0.78,0.06-1.18
			c-0.06-0.62-0.84-0.5-0.95,0.06c-0.56,0.22-1.06,0.56-1.51,0.9c0-0.11,0-0.22-0.06-0.28c0-0.06,0-0.06-0.06-0.11
			c0.06-0.22,0.06-0.39,0-0.62c-0.06-0.62-0.95-0.45-0.95,0.17c0.06,0.39-0.06,0.84-0.17,1.23l-0.22,0.11
			c0.06,0.11,0.06,0.22,0.11,0.39c-0.17,0.39-0.34,0.84-0.39,1.29c-0.06,0.06-0.06,0.06-0.06,0.11l-0.11-0.11
			c-0.06-0.06-0.11-0.17-0.11-0.22c0.11-0.5,0.28-0.95,0.45-1.51c-0.28-0.11-0.62,0.06-0.73,0.39c-0.11,0.06-0.11,0.22-0.17,0.39
			c-0.06-0.5-0.06-0.95-0.06-1.46l-0.28-0.22c-0.11,0-0.28,0.06-0.28,0.17c-0.17,0.17-0.06,0.5-0.39,0.62l-0.56,0.22
			c0.11,0.34,0.22,0.73,0.28,1.12v0.17c-0.22-0.06-0.5-0.22-0.67-0.39l0.39-0.95c-0.5-0.11-0.67,0.06-0.78,0.28l-0.17,0.39
			c-0.11,0-0.17,0-0.22,0.11c-0.06,0.11-0.11,0.17-0.11,0.28c-0.06,0-0.06,0-0.06,0.06c-0.11-0.17-0.34-0.28-0.56-0.28
			c0.06-0.11-0.06-0.28-0.17-0.28c-0.11-0.06-0.28,0.06-0.28,0.17l-0.17,0.5c0-0.06,0-0.11,0.06-0.17v-1.18l-0.39-0.17
			c-0.06-0.06-0.22,0.06-0.22,0.11l-0.17,0.62c-0.39,0.11-0.78,0.28-1.12,0.5h-0.11v-0.17c0.06-0.06,0-0.11,0-0.17
			c0.5-0.22,0.95-0.56,1.4-0.9c0.17-0.11,0.28-0.28,0.17-0.5c-0.11-0.17-0.28-0.28-0.5-0.17c-0.73,0.11-1.4,0.28-2.02,0.62h-0.06
			l-0.22,0.11c-0.28,0.17-0.62,0.34-0.84,0.56c-0.06-0.11-0.17-0.17-0.22-0.11c0-0.5-0.11-1.01-0.39-1.4
			c-0.06-0.11-0.28-0.17-0.5-0.17c-0.17,0-0.28,0.17-0.28,0.45s0.11,0.78,0.17,1.29l-0.9,0.39l-0.56,0.22
			c0.11-0.34,0.11-0.73,0.06-1.12c0.28-0.34,0.5-0.67,0.67-1.06c0.11-0.11,0.06-0.28-0.06-0.39c-0.11-0.11-0.28-0.06-0.39,0.06
			c-0.28,0.17-0.5,0.39-0.67,0.67h-0.11c-0.17,0.06-0.28,0.22-0.22,0.39l-0.11,0.11h-0.11c-0.17,0-0.34,0.11-0.39,0.22l-0.45,0.11
			l0.84-0.78c0.17-0.11,0.22-0.34,0.11-0.5c-0.11-0.17-0.34-0.22-0.5-0.11c-0.5,0.17-0.9,0.5-1.29,0.84
			c0.06-0.39,0.17-0.67,0.22-0.95c0-0.28-0.17-0.5-0.45-0.5c-0.06,0-0.17,0-0.22,0.06h-0.06l-0.17-0.67c0-0.06-0.17-0.17-0.22-0.11
			l-0.39,0.17v0.95c-0.06,0-0.06,0-0.06,0.06c0-0.06-0.06-0.11-0.06-0.17c-0.06-0.11-0.17-0.22-0.28-0.17
			c-0.11,0.06-0.22,0.17-0.17,0.28v0.39l-0.39,0.28c0.06-0.34,0.11-0.73,0.06-1.12c-0.06-0.28-0.28-0.45-0.56-0.45
			c-0.28,0.06-0.45,0.28-0.45,0.56v0.22c-0.06,0-0.11,0-0.11,0.06c-0.39,0.39-0.9,0.67-1.4,0.78c0-0.17-0.06-0.39-0.06-0.56
			c0-0.17-0.17-0.22-0.28-0.28l-0.22,0.17h-0.06c-0.06-0.17-0.17-0.39-0.28-0.56c-0.11-0.28-0.45-0.45-0.73-0.39
			c0.11,0.56,0.28,1.06,0.45,1.57v0.11l-0.17,0.11l-0.17,0.11v-0.28h-0.5c0-0.17-0.11-0.39-0.11-0.56c0-0.17,0.17-0.62,0.28-1.06
			l-0.56-0.22c-0.28-0.11-0.17-0.5-0.39-0.67c-0.17-0.17-0.17-0.17-0.28-0.11c-0.11,0.06-0.22,0.11-0.22,0.22s-0.06,1.12-0.11,1.51
			l-0.73,1.18c-0.11-1.12-0.78-2.07-0.73-3.19c0.06-1.12-0.9-0.78-0.95-0.17c-0.06,0.39,0,0.78,0.06,1.18
			c-0.56-0.45-1.18-0.84-1.85-1.12c-0.28-0.11-0.78,0.06-0.67,0.5c0.06,0.34,0.11,0.67,0.22,0.95c-0.39-0.34-0.78-0.67-1.29-0.84
			c-0.22-0.06-0.45,0.11-0.5,0.34c0,0.11,0,0.22,0.06,0.34c0.73,0.62,1.23,1.34,1.96,1.9v0.17h-0.5c-0.11-0.28-0.28-0.5-0.5-0.67
			v-0.11c-0.06-0.06-0.17-0.17-0.22-0.11h-0.9c-0.17-0.39,0.17-0.9-0.39-1.23c-0.22,0-0.39,0.17-0.45,0.39
			c-0.17,0.45-0.17,0.95,0,1.4l-0.56-0.22v-0.84c0-0.28-0.22-0.56-0.56-0.56c-0.17,0-0.28,0.06-0.39,0.17l0.17-0.78
			c0-0.22-0.17-0.39-0.39-0.45c-0.11,0-0.45,0.06-0.5,0.17c-0.11,0.34-0.22,0.67-0.28,0.95c-0.45-1.01-0.78-2.07-1.12-3.13
			c-0.73-2.41-1.29-4.87-1.57-7.39c1.74-2.63,3.25-5.43,4.81-8.06c2.63-4.42,4.87-9.07,6.66-13.88
			c3.69-8.96,12.87-16.18,22.61-16.79c0.28,0,0.28-0.45,0-0.5c-9.68-1.18-19.48,5.21-24.57,13.21c-3.02,4.76-4.81,10.19-7.78,15
			c-0.67,1.12-1.46,2.24-2.18,3.36c0.39-17.74,10.36-34.76,25.02-45.06l0.5,0.11c1.34,0.56,2.63,1.23,3.86,2.02
			c2.57,1.51,5.04,2.52,8,2.57c4.59,0.17,9.18-0.5,13.77-1.01c-0.17,5.93-0.5,18.86-0.56,20.04c0,0.17,0,0.28,0,0.45
			c-0.62,0.28-1.01,0.84-1.06,1.51c-6.66,0.62-11.87,6.21-11.87,13.04c0,3.64,1.46,6.94,3.86,9.29c2.35,2.41,5.65,3.86,9.29,3.86
			c7.22,0,13.1-5.88,13.1-13.1c0-3.36-1.29-6.44-3.36-8.73c-0.06-0.11-0.17-0.17-0.22-0.28c-0.17-0.17-0.34-0.34-0.5-0.5
			c-0.17-0.17-0.34-0.34-0.56-0.5c-0.06-0.06-0.17-0.17-0.22-0.22c-1.74-1.4-3.81-2.41-6.1-2.8c-0.06-0.62-0.39-1.18-0.95-1.46
			c-0.11-0.06-0.22-0.11-0.34-0.17c0-0.17,0-0.34,0-0.5c0.06-1.12,0.45-14.22,0.62-20.15c0.84-0.11,1.74-0.17,2.57-0.28
			c8.56-0.62,21.33-1.51,26.03,7.56c0.11,0.28,0.45,0.34,0.67,0.22c0.28-0.11,0.34-0.45,0.22-0.67
			c-3.36-10.19-16.18-10.58-25.13-10.41c-6.33,0.11-12.93,1.34-19.14,0.62c-3.13-0.39-5.09-2.18-7.61-3.64
			c0.5-0.34,1.01-0.62,1.51-0.84c11.87-6.27,24.91-6.1,37.56-2.35c12.65,3.81,24.13,11.53,30.62,23.4c0.17,0.39,0.78,0.11,0.67-0.22
			c-2.91-7.11-7.72-13.32-13.83-18.02c-2.57-1.96-5.26-3.75-8.12-5.26c3.36-0.28,6.77-0.34,10.19-0.22
			c4.42,0.28,8.51,1.85,12.87,2.52c7,1.06,14.78,0.84,17.91-6.55C248.55,72.07,248.33,71.85,248.16,72.07z M101.89,150.89h-0.06
			c-0.06-0.11-0.06-0.22-0.06-0.39l0.67,0.5L101.89,150.89z M105.81,148.98c0.06-0.17,0.06-0.28,0.11-0.5
			c-0.06,0.17-0.06,0.34-0.06,0.5H105.81z M107.55,151.89c0-0.28-0.06-0.62-0.17-0.84l0.5,0.45L107.55,151.89z M108.39,150.44
			c-0.28-0.34-0.56-0.56-0.9-0.78l0.45-0.11l0.56,0.11C108.39,149.94,108.33,150.22,108.39,150.44z M109.79,152.01v-0.11l0.28-0.11
			h0.06L109.79,152.01z M113.93,152.62l-0.39,0.22h-0.06c-0.28-0.06-0.56-0.67-0.62-0.9l0.9-0.67c0.17-0.11,0.22-0.34,0.11-0.56
			c0.11-0.17,0.22-0.34,0.28-0.5l0.39,0.22v0.11C114.66,151.33,114.43,152.06,113.93,152.62z M115.94,149.1l0.17,0.06
			c-0.11,0.17-0.11,0.39,0,0.5c0,0,0,0,0.06,0.06H116c-0.06-0.17-0.11-0.34-0.11-0.5C115.94,149.26,115.94,149.15,115.94,149.1z
			 M115.1,152.51c0.22-0.56,0.28-1.18,0.06-1.79h0.06v0.11c0.06,0.34,0.11,0.73,0.22,1.06l0.17,0.11c0.11,0.34,0.39,0.56,0.73,0.62
			C115.94,152.62,115.5,152.57,115.1,152.51z M117.23,152.34l-1.29-0.45c0.06-0.06,0.06-0.11,0.06-0.17
			c0.06-0.17,0.06-0.34,0.06-0.5l1.4,0.95L117.23,152.34z M117.4,150.94l-0.62-0.28l0.22-0.17h0.11c0.06,0,0.06,0,0.06,0.06
			c0.22,0.34,0.5,0.62,0.78,0.84L117.4,150.94z M183.06,151.61h0.22c0.17,0,0.22,0.11,0.39,0.22l0.17,0.22l-0.39,0.17
			C183.51,152.01,183.34,151.73,183.06,151.61z M181.21,151.28l0.06,0.06c0.06,0.17,0.06,0.39,0.11,0.5
			c0.06,0.11,0.22,0.17,0.39,0.17l0.17-0.11H182l1.06,0.5h0.06c-0.67,0.17-1.34,0.22-2.02,0.11
			C181.21,152.12,181.27,151.67,181.21,151.28z M180.54,150.72v0.17h-0.11L180.54,150.72z M179.93,151.56
			c-0.06,0.39-0.28,0.73-0.62,0.95h-0.11l-0.22-0.17c-0.06-0.11-0.06-0.22-0.11-0.39c0.28-0.17,0.56-0.39,0.78-0.62L179.93,151.56z
			 M178.86,150.78h0.06l-0.62,0.45c0-0.06,0-0.11-0.06-0.11C178.53,151.05,178.69,150.94,178.86,150.78z M177.29,151.5
			c0.06,0,0.06,0,0.06-0.06s0.06-0.17,0.06-0.22h0.11v0.28l-0.17,0.11l0.22,0.11c0,0.17,0.06,0.28,0.11,0.45l-0.78,0.06
			C177.24,152.01,177.35,151.73,177.29,151.5z M175.9,151.05l0.17-0.17l0.17-0.11l0.22,0.67c-0.17,0.28-0.5,0.45-0.78,0.56
			c0.06-0.28,0.06-0.56-0.06-0.78L175.9,151.05z M175.5,149.6l-0.11,0.17l-0.06-0.06h-0.06L175.5,149.6z M173.88,150.83
			L173.88,150.83l0.5-0.45v0.39l-0.22,0.28C174.05,150.94,173.99,150.89,173.88,150.83L173.88,150.83L173.88,150.83z M172.65,148.26
			v0.06c0-0.06,0-0.06-0.06-0.06H172.65z M171.87,149.04v0.17h-0.06l-0.22,0.11L171.87,149.04z M170.13,152.4v-0.39h0.17l0.62,0.28
			c0.34,0.06,0.67-0.11,0.73-0.45l0.56,0.28v-0.17c0.06,0.11,0.06,0.28,0.11,0.39c0,0.06,0,0.11,0.06,0.17c-0.06,0-0.06,0-0.06,0.06
			c-0.5,0.28-1.06,0.5-1.68,0.56c-0.28-0.28-0.62-0.5-1.06-0.56h0.22C169.96,152.68,170.13,152.57,170.13,152.4z M169.18,149.04
			c0.11-0.11,0.22-0.22,0.34-0.34c0.17-0.17,0.34-0.34,0.5-0.5l-0.17,0.28c-0.11,0.06-0.22,0.11-0.28,0.17
			c-0.06,0.11-0.11,0.17-0.06,0.34l0,0l-0.11,0.17l-0.22,0.22h-0.11L169.18,149.04z M168.56,150.44L168.56,150.44h0.11
			c-0.06,0.06-0.06,0.06-0.06,0.11h-0.17C168.45,150.55,168.51,150.5,168.56,150.44z M167.89,152.06c0.06-0.06,0.11-0.11,0.11-0.17
			l0.28-0.11c0.17,0.11,0.22,0.28,0.22,0.5h0.06c-0.06,0.17-0.11,0.34-0.22,0.5l0,0c-0.17-0.28-0.39-0.5-0.62-0.67h0.17V152.06z
			 M167.55,153.52v0.06c-0.22-0.06-0.5-0.56-0.62-0.84c0.28,0.22,0.56,0.5,0.78,0.78H167.55z M167.44,148.03
			c-0.22,0.39-0.45,0.73-0.67,1.12l-0.17-0.17C166.83,148.59,167.11,148.26,167.44,148.03z M165.93,150.55
			c0.22,0.22,0.39,0.17,0.73-0.11l0.17-0.17h0.11c-0.11,0.39-0.11,0.84,0.06,1.23l-0.56-0.22l-0.9-0.28
			C165.71,150.83,165.82,150.66,165.93,150.55z M166.1,152.06l-0.28,0.11c-0.11-0.22-0.22-0.45-0.45-0.67
			C165.6,151.67,165.88,151.84,166.1,152.06z M163.92,152.68v-0.11l0.28-0.22c0.06,0,0.11,0.06,0.11,0.11L163.92,152.68z
			 M164.03,150.33h0.11l0.39,0.17c-0.17-0.06-0.28-0.06-0.45,0v0.17l-0.39-0.22L164.03,150.33z M162.35,151.33h0.06v0.11
			c0,0.06-0.06,0.11-0.11,0.17h-0.11L162.35,151.33z M159.61,151.39l0.22,0.28c-0.06,0.06-0.11,0.11-0.11,0.17l-0.22-0.28
			L159.61,151.39z M158.77,149.54c0-0.06,0-0.06-0.06-0.06C158.77,149.49,158.77,149.49,158.77,149.54z M157.09,148.82h0.06
			c-0.06,0.17-0.11,0.34-0.11,0.56h-0.06C157.03,149.15,157.03,148.98,157.09,148.82z M155.86,151.22v-0.11h0.11L155.86,151.22z
			 M155.35,149.77c0.06-0.06,0.11-0.06,0.11,0c0.11,0.22,0.28,0.45,0.5,0.67v0.17h-0.22l-0.22-0.17c-0.11-0.06-0.22-0.06-0.28,0.06
			l0.17-0.62C155.35,149.88,155.35,149.82,155.35,149.77z M154.79,151.73h0.06l0.17,0.11c0,0.06-0.06,0.11-0.06,0.22l-0.39-0.17
			L154.79,151.73z M154.01,149.26c0,0.17-0.06,0.45-0.06,0.62l0,0l0,0l0,0l-0.28-0.39L154.01,149.26z M153,149.99l0.06-0.06
			c0,0.06-0.06,0.06-0.06,0.11V149.99z M151.21,150.22l0.5,0.84l-0.39-0.11c0-0.11,0-0.22-0.06-0.28c-0.06,0-0.06,0-0.06-0.06
			C151.15,150.5,151.15,150.33,151.21,150.22z M149.36,151.33c0.56,0.39,1.18,0.73,1.79,1.06l-0.06,0.06c0,0.11,0,0.22,0.06,0.39
			c-0.34-0.17-0.67-0.39-0.95-0.62s-0.62-0.39-0.95-0.45l-0.17-0.45L149.36,151.33L149.36,151.33z M147.63,149.71
			c0-0.11,0-0.17,0.06-0.22h0.11l1.06,1.12c-0.06,0.11-0.06,0.22,0,0.28c-0.39-0.39-0.9-0.56-1.4-0.56c0-0.11-0.06-0.22-0.06-0.28
			C147.46,149.99,147.57,149.88,147.63,149.71z M146.73,147.58h0.11c0,0.06-0.06,0.11-0.11,0.17V147.58z M146.56,150.05
			c-0.06,0.28,0,0.62,0.11,0.84l-0.56-0.22l-0.17-0.11l0.5-0.56l0.06,0.06H146.56z M145.61,147.36l0.56,0.28
			c0.06,0.39,0.17,0.78,0.28,1.18l-0.17,0.17l-0.67-0.95V147.36z M145.28,151.22l0.73,0.56l-0.22,0.17l-0.17,0.06
			c-0.06-0.28-0.17-0.56-0.39-0.78H145.28z M143.48,148.42h0.11l0.67-0.28v0.22c0.06,0.28-0.22,0.62-0.06,0.95
			c-0.28-0.17-0.5-0.34-0.73-0.5C143.48,148.82,143.48,148.42,143.48,148.42z M144.16,150.16l-0.17,0.11h-0.06l-0.45-0.22
			c-0.06-0.06-0.06-0.17-0.06-0.22L144.16,150.16z M143.2,152.57h0.06c0.22-0.06,0.34-0.22,0.28-0.45c0-0.06,0-0.06-0.06-0.11
			l0.11-0.17v-0.11c0.39,0.22,0.67,0.5,0.95,0.84C144.16,152.62,143.65,152.62,143.2,152.57L143.2,152.57z M142.7,149.26
			c0.06,0.06,0.11,0.11,0.11,0.17c0,0.06,0.06,0.06,0.06,0.11l-0.11,0.11c0-0.06,0-0.06-0.06-0.06V149.26z M142.64,148.2v0.39
			c-0.06-0.11-0.06-0.22-0.11-0.39H142.64z M141.13,152.85h-0.06c-0.11-0.06-0.22-0.17-0.28-0.28h0.28
			c0.11,0.06,0.28,0.06,0.39-0.06L141.13,152.85z M141.92,149.38l-0.11-0.11h0.17C141.97,149.32,141.97,149.38,141.92,149.38z
			 M142.14,151.11c0,0.06,0,0.06-0.06,0.06C142.09,151.17,142.14,151.11,142.14,151.11z M141.81,147.75l0.17,0.06l-0.28,0.28h-0.11
			L141.81,147.75z M140.8,151.56h0.17l0.73,0.56l-0.22,0.28l0,0c0.06-0.06,0.06-0.11,0.06-0.17l-1.12-0.39L140.8,151.56z
			 M138.84,151.67c0.06-0.06,0.06-0.06,0.06-0.11h0.17L138.84,151.67z M140.13,147.98h-0.06v0.11l-0.5,0.45l-0.17,0.11
			c-0.06-0.22-0.06-0.5,0-0.73c0-0.06,0-0.11-0.06-0.17c0.28-0.22,0.28-0.62,0.11-0.9l-0.78-1.23
			C139.4,146.18,139.96,147.02,140.13,147.98z M138.73,148.14c0-0.11,0-0.17,0.06-0.22h0.11c-0.17,0.28-0.22,0.62-0.22,0.9
			c0-0.06,0-0.11-0.06-0.11C138.67,148.54,138.73,148.31,138.73,148.14z M139.01,150.33c-0.06,0.17-0.22,0.39-0.28,0.56
			c-0.06-0.06-0.06-0.17-0.11-0.22L139.01,150.33z M137.33,151.56h0.17c0.11-0.17,0.28-0.28,0.45-0.45l0.11,0.28
			c-0.11,0.22-0.5,0.39-0.73,0.56C137.38,151.84,137.38,151.73,137.33,151.56z M135.2,151.89c-0.06-0.06-0.06-0.17-0.06-0.22
			l0.56-0.56L135.2,151.89z M135.42,147.02c0.17,0,0.28,0.06,0.45,0.11v0.28l-0.28,0.11l-0.56-0.45L135.42,147.02z M133.35,147.19
			c0,0.06,0,0.06,0.06,0.11l-0.17-0.17L133.35,147.19z M181.27,115.73c-0.06,0.17-0.17,0.28-0.28,0.34h-0.17
			c-0.06-0.11-0.11-0.28-0.11-0.39C180.88,115.68,181.05,115.68,181.27,115.73z M179.65,115.68c0,0.34,0.11,0.73,0.34,1.01
			c0.34,0.39,0.9,0.56,1.34,0.28c0.45-0.17,0.73-0.5,0.9-0.9c1.85,0.9,3.13,3.02,3.13,5.49c0,0.22,0,0.39,0,0.62l0,0
			c-0.17,1.79-1.01,3.36-2.24,4.31l-0.06,0.06c-0.06,0.06-0.17,0.11-0.22,0.17c-0.67,0.45-1.4,0.73-2.18,0.78h0.34
			c-0.22,0.06-0.45,0.06-0.67,0.06c-2.8,0-5.15-2.74-5.15-5.99C175.11,118.59,177.07,116.01,179.65,115.68z M179.98,108.01
			c0,0.17,0.06,0.28,0.06,0.45c-0.11,0-0.22,0-0.34,0C179.7,108.29,179.81,108.12,179.98,108.01z M181.44,108.57
			c-0.11,0-0.22,0-0.34,0c-0.06-0.22-0.06-0.45-0.11-0.62C181.21,108.06,181.38,108.29,181.44,108.57z M198.12,151.45
			c-0.9,0.39-2.69,1.34-2.91,1.23c-0.22-0.11-0.28-0.28-0.22-0.56c0.06-0.22,0.28-0.45,0.39-0.67c-0.56,0.34-1.06,0.73-1.51,1.18
			c-0.28,0.39-1.06,0.17-0.95-0.39c0.11-0.45,0.34-0.78,0.67-1.12c-0.39,0.22-0.78,0.5-1.18,0.78c-0.5,0.39-1.01,0.9-1.4,1.4
			c-0.62-0.28-0.73-0.62-0.5-0.95c0.34-0.5,0.73-0.9,1.23-1.18c-0.11-0.11-0.28-0.17-0.45-0.17c-0.45,0-0.84,0.28-0.95,0.73
			c-0.17,0.45-0.22,0.9-0.11,1.34c0.06,0.22,0.06,0.39,0,0.62l-1.06-0.5c-0.56,0.06-0.9,0.73-1.68,0.11
			c0.67-0.28,0.95-0.95,1.74-1.12c0.39-1.34,0.73-1.74,1.9-1.74c0.11-0.39,0.06-1.23,0.28-1.23s0.39,0.17,0.5,0.45
			c0.17,0.45,0.17,0.95-0.06,1.34l0.56-0.22l0.95-0.39c-0.11-0.45-0.17-0.84-0.17-1.29v-0.06c0-0.17,0.17-0.28,0.34-0.28
			c0.17-0.06,0.34,0,0.5,0.11c0.17,0.45,0.28,0.9,0.28,1.4c0.11,0,0.17,0.06,0.22,0.11c0.95-0.67,2.02-1.12,3.19-1.29
			c0.11,0,0.22,0.06,0.34,0.11c0.17,0.17,0.17,0.45,0,0.62c-0.67,0.5-1.4,0.95-2.18,1.29c0.06,0.06,0.06,0.11,0.06,0.17
			c0.06,0.06-0.45,0.56-0.06,0.39c0.39-0.17,0.67-0.5,0.95-0.67c0.34-0.28,0.78-0.39,1.23-0.45
			C198.4,150.61,199.01,151.05,198.12,151.45z M196.89,152.4l1.68-0.5c-0.17,0.5-0.62,0.84-1.18,0.84
			C197.17,152.79,196.94,152.85,196.89,152.4z M94.22,152.29l1.74,0.5c-0.06,0.45-0.28,0.39-0.56,0.28
			C94.9,153.07,94.39,152.79,94.22,152.29z"/>
		<path class="st43" d="M255.78,73.47c-0.39,2.13-2.02,10.52-9.01,6.44l-3.25,0.28c4.7-0.67,7.84-2.46,9.4-4.31
			c-2.02,1.51-4.31,2.52-6.77,3.02C246.54,74.14,251.8,75.37,255.78,73.47 M243.46,66.3c0.22,1.9,1.18,9.35-5.77,7.89l-2.63,1.12
			c3.75-1.85,5.88-4.2,6.66-6.16c-1.23,1.79-2.91,3.3-4.81,4.37C235.96,69.38,240.66,68.94,243.46,66.3 M245.81,56.28
			c0.5,1.79,2.41,9.07-4.65,8.56l-2.46,1.46c3.41-2.35,5.21-4.98,5.77-7.05c-1.01,1.96-2.41,3.64-4.14,4.98
			C238.7,60.37,243.35,59.31,245.81,56.28 M239.32,88.75c0.45-1.57,2.24-7.95-3.92-7.67l-2.13-1.29c3.02,2.07,4.53,4.42,4.98,6.27
			c-0.84-1.74-2.07-3.25-3.64-4.48C233.1,85,237.25,86.06,239.32,88.75 M223.59,104.37c1.29-0.95,6.61-4.98,1.46-8.45l-0.9-2.35
			c1.12,3.47,0.9,6.27,0.17,7.95c0.39-1.9,0.28-3.81-0.17-5.71C220.9,97.71,223.53,100.96,223.59,104.37 M235.01,92.56
			c-0.17,1.12-1.12,5.65-4.87,3.47l-1.74,0.11c2.52-0.39,4.2-1.34,5.09-2.35c-1.06,0.84-2.35,1.34-3.69,1.57
			C230.03,92.84,232.88,93.51,235.01,92.56 M219.28,97.76c1.12-0.73,5.37-3.81,1.34-6.66l-0.67-1.85c0.84,2.74,0.62,4.98,0,6.33
			c0.34-1.51,0.28-3.02-0.06-4.53C217.32,92.45,219.33,95.08,219.28,97.76 M239.15,95.69c-0.45,0.95-2.02,4.81-4.98,2.18l-1.57-0.17
			c2.35,0.11,3.97-0.45,4.87-1.12c-1.12,0.5-2.3,0.73-3.47,0.73C234.62,95.08,236.97,96.14,239.15,95.69 M181.16,44.87
			c0,2.8-0.17,14.16-10.24,10.52l-4.09,1.12c5.93-1.96,9.57-5.04,11.2-7.78c-2.3,2.41-5.04,4.31-8.12,5.49
			C169.29,47.94,176.46,48.22,181.16,44.87 M105.08,84.95c1.68-0.06,8.45-0.17,6.49,5.88l0.73,2.46c-1.29-3.47-3.19-5.65-4.87-6.55
			c1.51,1.29,2.69,2.91,3.41,4.76C107.1,92,107.16,87.69,105.08,84.95 M122.55,90.77c-1.34-0.06-6.72-0.28-5.26,4.53l-0.67,1.96
			c1.12-2.8,2.69-4.42,4.03-5.15c-1.23,1.01-2.18,2.3-2.8,3.75C120.81,96.31,120.87,92.89,122.55,90.77 M172.31,90.88
			c-0.39,1.57-1.85,8.06-7.17,4.76l-2.46,0.11c3.64-0.39,6.05-1.74,7.33-3.13c-1.57,1.12-3.41,1.9-5.32,2.18
			C165.15,91.21,169.23,92.22,172.31,90.88 M154.96,90.49c0.56,1.23,2.85,5.93-2.02,6.49l-1.51,1.34c2.07-2.02,2.91-4.09,3.08-5.6
			c-0.45,1.46-1.18,2.85-2.18,3.97C150.65,94.18,153.67,92.84,154.96,90.49 M162.85,102.19c-0.22-1.06-1.06-5.15-4.48-3.13
			l-1.57-0.11c2.35,0.28,3.86,1.18,4.65,2.07c-1.01-0.73-2.13-1.23-3.36-1.46C158.32,101.85,160.89,101.23,162.85,102.19
			 M171.31,101.85c0.11-1.06,0.56-5.21-3.3-4.37l-1.46-0.56c2.07,0.95,3.3,2.24,3.81,3.36c-0.73-1.01-1.68-1.79-2.74-2.41
			C167.05,100.23,169.68,100.4,171.31,101.85 M155.07,88.53c-0.95,0-4.76-0.06-3.64,3.36l-0.45,1.34c0.73-1.96,1.79-3.19,2.69-3.75
			c-0.84,0.73-1.46,1.68-1.9,2.69C153.95,92.5,153.9,90.04,155.07,88.53 M157.42,86.74c0.5,0.73,2.35,3.64-0.84,4.37l-0.84,0.95
			c0.95-1.06,1.51-2.41,1.57-3.86c-0.22,1.01-0.62,1.9-1.18,2.74C154.9,89.48,156.81,88.42,157.42,86.74 M122.1,104.82
			c-1.57-0.06-7.95-0.28-6.33,5.43l-0.73,2.24c1.29-3.25,3.19-5.21,4.76-6.05c-1.46,1.18-2.57,2.69-3.36,4.42
			C119.97,111.42,119.97,107.39,122.1,104.82 M157.53,49.68c0.56,1.18,2.8,5.77-1.96,6.38l-1.4,1.29c1.96-2.02,2.8-4.03,2.91-5.43
			c-0.45,1.4-1.18,2.74-2.13,3.86C153.34,53.37,156.3,52.03,157.53,49.68 M158.15,68.71c-0.95-1.18-5.04-5.93-8-0.9l-2.13,0.95
			c3.19-1.23,5.82-1.18,7.45-0.62c-1.79-0.22-3.64-0.06-5.32,0.56C151.99,71.62,154.96,68.99,158.15,68.71 M145.72,54.27
			c0.73,1.46,3.69,7.45-2.57,8.28l-1.9,1.74c2.63-2.63,3.75-5.26,3.86-7.17c-0.56,1.9-1.51,3.64-2.8,5.15
			C140.18,59.08,144.1,57.29,145.72,54.27 M189.05,48.95l-0.78,1.9l-2.02,0.11l1.51,1.34l-0.45,1.96l1.74-1.06l1.74,1.06l-0.45-1.96
			l1.51-1.34l-2.02-0.11L189.05,48.95z M122.94,61.04c2.57,0.5,12.87,2.24,8.06,10.92l0.39,3.92c-0.9-5.71-3.19-9.52-5.43-11.36
			c1.9,2.41,3.19,5.21,3.81,8.23C123.89,72.35,125.24,65.86,122.94,61.04 M238.53,56.51c-0.39,2.07-2.02,10.47-9.01,6.44l-3.25,0.22
			c4.7-0.62,7.84-2.46,9.4-4.2c-2.02,1.46-4.37,2.46-6.77,2.91C229.3,57.12,234.56,58.36,238.53,56.51 M215.92,64.68
			c0.17,1.46,0.9,7.22-4.42,6.1l-2.02,0.84c2.85-1.46,4.48-3.25,5.15-4.76c-1.01,1.4-2.24,2.52-3.75,3.36
			C210.1,67.09,213.79,66.75,215.92,64.68 M153.17,73.3c-1.06-1.18-5.04-5.93-8.06-0.9l-2.13,0.95c3.25-1.23,5.88-1.18,7.56-0.56
			c-1.79-0.28-3.64-0.11-5.37,0.5C147.07,76.21,149.92,73.58,153.17,73.3"/>
		<path class="st44" d="M255.33,60.09c0.28,2.63,1.57,12.99-8,10.97l-3.64,1.51c5.15-2.57,8.06-5.82,9.24-8.56
			c-1.79,2.52-4.09,4.59-6.72,6.05C244.8,64.4,251.41,63.79,255.33,60.09 M237.86,65.91c-0.45,2.07-2.07,10.47-9.07,6.44l-3.19,0.28
			c4.65-0.67,7.78-2.46,9.35-4.31c-2.02,1.46-4.31,2.46-6.72,2.91C228.57,66.53,233.89,67.76,237.86,65.91 M234.73,105.77
			c0.45-1.57,2.24-7.89-3.92-7.61l-2.13-1.34c3.02,2.13,4.53,4.48,4.98,6.33c-0.84-1.74-2.07-3.25-3.64-4.48
			C228.57,102.07,232.66,103.08,234.73,105.77 M231.93,89.59c-0.22,1.06-1.06,5.15-4.42,3.19l-1.57,0.11
			c1.74-0.17,3.36-0.9,4.59-2.07c-0.95,0.73-2.13,1.23-3.3,1.4C227.39,89.93,229.97,90.54,231.93,89.59 M206.29,46.49
			c0.84,0.95,4.37,5.09-0.28,6.94l-1.18,1.74c1.51-2.57,1.85-4.81,1.51-6.33c-0.06,1.57-0.45,3.13-1.12,4.53
			C202.99,51.36,205.68,49.23,206.29,46.49 M218.49,51.69c-1.23-0.62-6.05-2.91-6.66,2.07l-1.29,1.51c2.07-2.13,4.14-3.02,5.71-3.13
			c-1.51,0.45-2.91,1.23-4.09,2.24C214.69,56.12,216.03,52.98,218.49,51.69 M210.1,62.44c-0.67-1.18-3.47-5.71-6.66-1.85l-1.96,0.56
			c2.85-0.62,5.15-0.22,6.44,0.5c-1.51-0.45-3.08-0.56-4.59-0.28C204.56,64.07,207.41,62.16,210.1,62.44 M222.47,43.47
			c0.73,1.4,3.47,7-2.35,7.78l-1.79,1.57c2.46-2.52,3.41-4.98,3.53-6.72c-0.5,1.79-1.4,3.41-2.63,4.76
			C217.37,47.94,221.01,46.26,222.47,43.47 M202.37,50.41c0.22,1.34,1.34,6.61-3.69,5.93l-1.79,0.95c2.52-1.51,3.92-3.36,4.42-4.76
			c-0.84,1.34-1.9,2.52-3.25,3.36C197.17,53.15,200.53,52.53,202.37,50.41 M217.88,62.11c-0.62-0.84-3.19-4.31-5.43-0.9l-1.46,0.56
			c2.18-0.67,4.03-0.62,5.15-0.11c-1.23-0.22-2.52-0.17-3.75,0.17C213.62,63.84,215.7,62.11,217.88,62.11 M165.48,39.6
			c1.18,1.23,5.82,6.1,0.06,8.73l-1.34,2.18c1.74-3.3,2.02-6.1,1.51-8c0.06,1.96-0.34,3.97-1.18,5.77
			C161.68,45.93,164.87,43.02,165.48,39.6 M171.53,60.65c-1.23-1.4-5.99-7.11-9.63-1.12l-2.57,1.18c3.86-1.46,7-1.4,9.01-0.73
			c-2.18-0.28-4.37-0.06-6.44,0.62C164.2,64.07,167.67,60.88,171.53,60.65 M108.39,92.84c1.23,0.39,6.1,1.85,3.3,5.77v1.9
			c-0.11-2.8-1.06-4.76-2.02-5.82c0.78,1.29,1.23,2.74,1.34,4.2C108.16,98.44,109.23,95.36,108.39,92.84 M206.46,97.32
			c0.9-0.95,4.42-5.09-0.28-6.94l-1.12-1.74c1.51,2.57,1.85,4.81,1.51,6.33c-0.06-1.57-0.45-3.13-1.18-4.53
			C203.21,92.56,205.84,94.63,206.46,97.32 M216.59,91.21c-1.23,0.62-6.05,2.91-6.61-2.07l-1.34-1.51c2.07,2.07,4.14,3.02,5.71,3.13
			c-1.51-0.45-2.91-1.23-4.09-2.24C212.78,86.79,214.13,89.93,216.59,91.21 M212.95,84.16c-0.84,1.06-4.09,5.32-6.94,1.12
			l-1.85-0.73c2.8,0.9,5.09,0.78,6.49,0.17c-1.57,0.34-3.13,0.22-4.65-0.17C207.47,81.98,210.15,84.11,212.95,84.16 M200.19,78.62
			c-0.28,1.23-1.4,6.16-5.43,3.64l-1.9,0.11c2.74-0.28,4.65-1.29,5.65-2.35c-1.23,0.84-2.57,1.34-4.03,1.57
			C194.76,78.79,197.78,79.63,200.19,78.62 M198.9,91.72c0.06-1.18,0.17-5.93-4.09-4.59l-1.68-0.5c2.46,0.9,3.92,2.24,4.53,3.41
			c-0.9-1.06-2.02-1.9-3.3-2.46C194.03,90.21,197,90.21,198.9,91.72 M121.21,111.31c-1.85,0.39-9.24,2.02-5.49,8.06l-0.17,2.85
			c0.5-4.14,2.02-7,3.64-8.45c-1.29,1.79-2.13,3.86-2.52,6.05C120.87,119.48,119.64,114.84,121.21,111.31 M226.33,81.25l-0.78,1.9
			l-2.02,0.11l1.51,1.34l-0.45,1.96l1.74-1.06l1.74,1.06l-0.45-1.96l1.51-1.34l-2.02-0.11L226.33,81.25z M142.76,74.31l-0.73,1.85
			l-2.02,0.17l1.51,1.34l-0.5,1.96l1.74-1.06l1.79,1.06l-0.5-1.96l1.51-1.34l-2.02-0.17L142.76,74.31z M137.22,59.48
			c0.67,1.4,3.53,7.17-2.46,7.89l-1.79,1.57c2.46-2.52,3.47-4.98,3.64-6.77c-0.5,1.79-1.4,3.41-2.63,4.81
			C132.01,64.01,135.65,62.39,137.22,59.48 M114.26,72.46c2.24,0,11.36-0.17,8.73,7.95l0.95,3.3c-1.74-4.7-4.31-7.61-6.55-8.79
			c1.96,1.74,3.53,3.92,4.59,6.38C117.01,81.98,117.06,76.21,114.26,72.46 M224.37,57.68c0.5,1.85,2.46,9.12-4.59,8.62l-2.46,1.4
			c3.41-2.35,5.21-4.98,5.77-7c-1.01,1.96-2.46,3.64-4.2,4.98C217.32,61.77,221.97,60.65,224.37,57.68 M195.54,66.75
			c-0.73-1.12-3.47-5.71-6.72-1.79l-1.96,0.56c2.91-0.67,5.15-0.28,6.49,0.45c-1.51-0.45-3.08-0.5-4.65-0.22
			C189.95,68.43,192.8,66.58,195.54,66.75 M203.88,67.65c-0.95-0.45-4.81-2.24-5.26,1.74l-1.06,1.23c1.68-1.74,3.3-2.41,4.48-2.52
			c-1.18,0.39-2.24,1.01-3.19,1.85C200.86,71.17,201.98,68.66,203.88,67.65 M204.05,40.56c0.9,1.06,4.42,5.09-0.28,7l-1.12,1.74
			c1.46-2.57,1.85-4.81,1.51-6.33c-0.06,1.57-0.45,3.08-1.18,4.48C200.81,45.43,203.44,43.24,204.05,40.56 M198.12,44.98
			c0.84,1.06,4.37,5.09-0.28,7l-1.18,1.68c1.51-2.57,1.85-4.76,1.51-6.33c-0.06,1.57-0.39,3.13-1.12,4.53
			C194.82,49.85,197.5,47.66,198.12,44.98 M193.7,77.61c-0.22,1.23-1.4,6.1-5.43,3.64h-1.9c2.8-0.28,4.65-1.29,5.65-2.35
			c-1.23,0.84-2.57,1.4-4.03,1.68c0.28-2.8,3.41-2.02,5.77-3.02 M171.03,77c-0.28,1.4-1.68,7.05-6.33,4.14h-2.13
			c3.19-0.28,5.32-1.46,6.49-2.69c-1.4,1.01-3.02,1.62-4.7,1.9c0.39-3.25,3.92-2.24,6.66-3.41 M175.62,78.06
			c0.17,1.18,0.84,5.77-3.47,4.98l-1.57,0.73c2.24-1.23,3.53-2.69,4.03-3.92c-0.73,1.18-1.74,2.13-2.91,2.74
			C170.97,80.08,173.94,79.74,175.62,78.06 M163.8,64.91c0.56,1.23,2.69,6.1-2.35,6.55l-1.57,1.29c2.18-2.02,3.19-4.03,3.3-5.6
			c-0.5,1.51-1.29,2.85-2.41,3.97C159.27,68.54,162.4,67.26,163.8,64.91"/>
		<path class="st45" d="M245.25,88.08c0.5-1.57,2.35-7.95-3.92-7.67l-2.13-1.29c3.02,2.07,4.53,4.42,4.98,6.27
			c-0.84-1.74-2.07-3.25-3.64-4.42C239.15,84.33,243.18,85.39,245.25,88.08 M207.91,38.76c1.96,0.84,9.85,4.14,4.48,10.19
			l-0.45,3.19c0.39-4.7-0.78-8.12-2.24-10.02c1.06,2.24,1.62,4.7,1.51,7.22C206.63,47.94,208.87,43.02,207.91,38.76 M215.47,58.8
			c-0.84-1.12-4.09-5.37-6.94-1.18l-1.85,0.73c2.8-0.9,5.09-0.78,6.49-0.17c-1.57-0.34-3.13-0.22-4.65,0.17
			C210.04,60.99,212.73,58.8,215.47,58.8 M223.03,56.56c-0.78-1.06-4.03-5.32-6.83-1.18l-1.9,0.73c2.8-0.9,5.09-0.73,6.49-0.11
			c-1.57-0.34-3.13-0.22-4.65,0.17C217.65,58.75,220.29,56.62,223.03,56.56 M171.25,31.71c1.96,1.74,9.91,8.51,1.4,13.49l-1.68,3.53
			c2.07-5.32,2.07-9.74,1.12-12.54c0.39,3.02,0.06,6.1-0.9,9.01C166.32,41.9,170.8,37.03,171.25,31.71 M162.63,46.99
			c0.56,1.18,2.8,5.77-1.96,6.38l-1.4,1.29c1.96-2.02,2.8-3.97,2.85-5.43c-0.39,1.46-1.12,2.8-2.13,3.86
			C158.43,50.69,161.4,49.34,162.63,46.99 M103.18,75.37c2.57-0.28,12.99-1.51,10.86,8.06l1.46,3.69c-2.46-5.21-5.77-8.23-8.45-9.35
			c2.52,1.79,4.53,4.09,5.99,6.77C107.32,85.9,106.76,79.29,103.18,75.37 M116.67,83.38c1.12,0.78,5.49,3.86,1.4,6.83l-0.73,1.9
			c0.84-2.85,0.62-5.09,0-6.49c0.34,1.51,0.28,3.13-0.06,4.65C114.66,88.86,116.73,86.12,116.67,83.38 M163.58,88.64
			c0.17,1.68,0.84,8.23-5.21,6.77l-2.35,0.9c3.3-1.51,5.21-3.53,5.99-5.26c-1.18,1.57-2.63,2.8-4.37,3.75
			C156.92,91.21,161.06,90.88,163.58,88.64 M167.27,101.85c-0.11-1.18-0.5-5.77-4.48-4.03l-1.74-0.28c2.46,0.62,4.03,1.79,4.76,2.85
			c-1.01-0.95-2.18-1.62-3.47-2.02C162.29,100.96,165.26,100.62,167.27,101.85 M149.36,92.61c0.73,1.06,3.86,5.26-0.84,6.72
			l-1.23,1.57c1.68-2.41,2.13-4.59,1.96-6.05c-0.17,1.51-0.62,3.02-1.4,4.37C145.84,97.09,148.58,95.19,149.36,92.61 M211.27,105.32
			c1.57-1.46,7.89-7.17,0.84-11.08l-1.46-2.85c1.9,4.37,1.96,7.95,1.23,10.3c0.22-2.46-0.11-4.98-0.95-7.33
			C207.08,97.09,210.77,101.01,211.27,105.32 M207.3,80.24c-0.5,1.29-2.41,6.33-6.33,3.02l-2.02-0.17c3.02,0.11,5.15-0.67,6.33-1.57
			c-1.4,0.67-2.97,1.06-4.53,1.12C201.48,79.63,204.61,80.97,207.3,80.24 M203.44,94.46c0.5-1.29,2.35-6.33-2.69-6.44l-1.68-1.23
			c2.35,1.9,3.36,3.92,3.64,5.37c-0.56-1.46-1.46-2.74-2.63-3.81C198.73,91.05,201.93,92.11,203.44,94.46 M123.28,96.64
			c-1.57-0.06-7.95-0.28-6.27,5.43l-0.78,2.24c1.34-3.25,3.19-5.21,4.76-6.05c-1.4,1.23-2.57,2.69-3.36,4.42
			C121.21,103.25,121.26,99.22,123.28,96.64 M105.81,99.16c1.46,0.45,7.28,2.13,3.97,6.77v2.35c-0.17-3.36-1.23-5.71-2.46-6.94
			c0.95,1.51,1.51,3.19,1.68,4.98C105.64,105.77,106.82,102.07,105.81,99.16 M103.12,107.62c1.51,0.06,7.61,0.45,5.43,5.71l0.5,2.24
			c-0.9-3.25-2.52-5.26-3.92-6.27c1.23,1.29,2.13,2.8,2.74,4.48C104.52,114.05,104.8,110.19,103.12,107.62 M162.68,63.95
			c-0.84-1.06-4.31-5.15-6.94-0.78l-1.85,0.84c2.74-1.06,5.04-1.06,6.49-0.5c-1.57-0.22-3.13-0.06-4.65,0.45
			C157.42,66.47,159.89,64.12,162.68,63.95 M152.16,50.52c0.73,1.51,3.69,7.56-2.57,8.34l-1.9,1.74c2.63-2.69,3.75-5.26,3.86-7.17
			c-0.56,1.85-1.51,3.58-2.8,5.09C146.62,55.28,150.54,53.54,152.16,50.52 M180.99,76.44l-0.78,1.85l-2.02,0.17l1.51,1.29
			l-0.45,2.02l1.74-1.06l1.74,1.06l-0.45-2.02l1.51-1.29l-2.02-0.17L180.99,76.44z M125.63,74.09c1.4,0.73,7.05,3.81,2.63,7.89
			l-0.5,2.35c0.56-3.47-0.06-6.1-1.06-7.67c0.62,1.74,0.9,3.64,0.67,5.49C124.12,80.8,126.13,77.33,125.63,74.09 M120.53,83.43
			c1.85,0.39,9.24,2.02,5.49,8.06l0.11,2.85c-0.45-4.14-1.96-7-3.53-8.4c1.23,1.85,2.13,3.86,2.52,6.05
			C120.93,91.61,122.1,86.96,120.53,83.43 M116.34,64.35c1.57,0.06,8,0.22,5.88,5.88l0.56,2.35c-1.06-3.36-2.74-5.43-4.31-6.44
			c1.34,1.29,2.35,2.91,3.02,4.65C117.9,71.06,118.18,67.03,116.34,64.35 M227,64.51c0.17,1.57,1.06,7.89-4.87,6.66l-2.18,0.95
			c3.19-1.57,4.98-3.64,5.71-5.26c-1.12,1.51-2.52,2.8-4.14,3.75C220.57,67.14,224.6,66.75,227,64.51 M204.05,65.3
			c-0.73-1.12-3.53-5.71-6.72-1.79l-1.96,0.5c2.85-0.62,5.15-0.22,6.49,0.5c-1.51-0.45-3.08-0.5-4.65-0.22
			C198.4,66.98,201.31,65.13,204.05,65.3 M209.43,64.57c0.17,1.46,0.9,7.22-4.42,6.1l-2.02,0.84c2.85-1.46,4.48-3.3,5.15-4.76
			c-1.01,1.34-2.3,2.52-3.75,3.36C203.6,66.98,207.3,66.64,209.43,64.57 M183.96,50.41c0.73,1.46,3.86,7.56-2.46,8.45l-1.85,1.79
			c2.57-2.74,3.64-5.37,3.69-7.33c-0.5,1.9-1.4,3.69-2.69,5.21C178.53,55.39,182.39,53.54,183.96,50.41 M174.55,58.75
			c0.45,1.29,2.02,6.44-3.08,6.27l-1.74,1.12c2.41-1.79,3.64-3.69,3.92-5.15c-0.62,1.4-1.62,2.63-2.8,3.64
			C169.63,61.88,172.87,60.99,174.55,58.75"/>
	</g>
</g>
<g id="Layer_14">
</g>
<g id="Layer_15">
</g>
</svg>
