<?xml version="1.0" encoding="utf-8"?>
<!-- Generator: Adobe Illustrator 27.8.1, SVG Export Plug-In . SVG Version: 6.00 Build 0)  -->
<svg version="1.1" xmlns="http://www.w3.org/2000/svg" xmlns:xlink="http://www.w3.org/1999/xlink" x="0px" y="0px"
	 viewBox="0 0 350 230" style="enable-background:new 0 0 350 230;" xml:space="preserve">
<style type="text/css">
	.st0{fill:#FFFFFF;}
	.st1{fill:#FCBEF3;}
	.st2{fill:#007769;}
	.st3{fill:#990000;}
	.st4{fill:#EE388C;}
	.st5{fill:#4862AD;}
	.st6{fill:#EE4B9B;}
	.st7{fill:#FAEE35;}
	.st8{fill:#01A79D;}
	.st9{fill:#8FC640;}
	.st10{fill:#EC2227;}
	.st11{fill:#E7BD20;}
	.st12{fill:#DC8927;}
	.st13{fill:#2F99D5;}
	.st14{fill:#663366;}
	.st15{fill:#FFC907;}
	.st16{fill:#4B83C3;}
	.st17{fill:#F0535B;}
	.st18{fill:#A92990;}
	.st19{fill:#E16E25;}
	.st20{fill:#426CB4;}
	.st21{fill:#E9292B;}
	.st22{fill:#0F77B7;}
	.st23{fill:#EF4A6C;}
	.st24{fill:#65C5B3;}
	.st25{fill:#965724;}
	.st26{fill:#F1A422;}
	.st27{fill:#18479E;}
	.st28{fill:#64C5B2;}
	.st29{fill:#FAE072;}
	.st30{fill:#EF496E;}
	.st31{fill:#231F20;}
	.st32{fill-rule:evenodd;clip-rule:evenodd;fill:#5C493A;}
	.st33{fill-rule:evenodd;clip-rule:evenodd;fill:#F26767;}
	.st34{fill-rule:evenodd;clip-rule:evenodd;fill:#87C443;}
	.st35{fill-rule:evenodd;clip-rule:evenodd;fill:#EE3E96;}
	.st36{fill-rule:evenodd;clip-rule:evenodd;fill:#2195D2;}
	.st37{fill-rule:evenodd;clip-rule:evenodd;fill:#FFCD05;}
	.st38{fill-rule:evenodd;clip-rule:evenodd;fill:#83C341;}
	.st39{fill-rule:evenodd;clip-rule:evenodd;fill:#0F77B7;}
	.st40{fill-rule:evenodd;clip-rule:evenodd;fill:#ED8D36;}
	.st41{fill-rule:evenodd;clip-rule:evenodd;fill:#3CA356;}
	.st42{fill-rule:evenodd;clip-rule:evenodd;fill:#7F4A25;}
	.st43{fill-rule:evenodd;clip-rule:evenodd;fill:#A3B539;}
	.st44{fill-rule:evenodd;clip-rule:evenodd;fill:#FAAF37;}
	.st45{fill-rule:evenodd;clip-rule:evenodd;fill:#0BB4A1;}
	.st46{fill:#00A9CB;}
	.st47{fill:#79AA41;}
	.st48{fill:#CD8F2A;}
	.st49{fill:#0393B0;}
	.st50{fill:#E82F7B;}
	.st51{fill:#D7DF2A;}
	.st52{fill:#8DC443;}
	.st53{fill:#F0A422;}
	.st54{fill:#3A3A3B;}
	.st55{fill:#29AAE1;}
	.st56{fill:#E9246E;}
</style>
<g id="Layer_1">
	<path class="st0" d="M93.33,143.42c0.81,0.36,1.64,0.7,2.47,1.01c-0.83-0.31-1.66-0.64-2.47-0.99
		C93.33,143.43,93.33,143.43,93.33,143.42z"/>
	<g>
		<path class="st1" d="M179.02,106.09c1.32,1.25,2.68,2.49,4.02,3.76c-2.86,4.89-6.79,9.03-11.47,12.08l-0.08-0.43
			c-2.61-12.52-5.55-19.48-5.55-19.48c-1.96-4.86-6.97-4.79-6.97-4.79c-10.99-0.54-13.16,1.96-13.16,1.96
			c-5.61,3.5-6.97,22.55-7.17,25.6c-12.86-5.54-21.9-18.61-21.9-33.84c0-20.27,15.98-36.7,35.7-36.7
			c15.94,0,29.44,10.74,34.02,25.57c-1.07-0.81-2.25-1.54-3.39-1.9c-0.89-0.28-1.82-0.41-2.75-0.41c-2.96,0-5.94,1.35-7.9,3.53
			c-2.57,2.87-3.44,6.92-2.79,10.66C170.62,97.39,174.75,102.05,179.02,106.09z"/>
		<path class="st2" d="M233.26,90.94c0,21.17-17.16,38.34-38.34,38.34c-7.14,0-13.83-1.96-19.56-5.36c4.15-3.04,7.7-6.88,10.44-11.3
			c1.8,1.91,3.41,3.94,4.62,6.24c2.66-5.02,7.23-8.82,11.41-12.78c4.26-4.04,8.4-8.71,9.39-14.39c0.65-3.73-0.22-7.79-2.79-10.66
			c-1.96-2.18-4.94-3.53-7.9-3.53c-0.93,0-1.86,0.13-2.75,0.41c-2.59,0.82-5.38,3.5-6.65,4.83c-2.04-10.17-7.81-18.96-15.78-24.79
			c5.73-3.41,12.42-5.37,19.57-5.37C216.1,52.6,233.26,69.77,233.26,90.94z"/>
		<path class="st3" d="M188.13,90.96c0,6.07-1.43,11.78-3.97,16.82c-0.57-0.54-1.15-1.08-1.72-1.61c-0.61-0.57-1.24-1.15-1.85-1.73
			c-3.81-3.6-7.82-7.99-8.71-13.13c-0.28-1.57-0.22-3.2,0.15-4.7c0.38-1.54,1.1-2.94,2.09-4.03c1.54-1.72,3.91-2.78,6.2-2.78
			c0.72,0,1.41,0.1,2.06,0.31c1.09,0.35,2.55,1.31,4.1,2.7c0.35,0.31,0.67,0.62,0.96,0.9C187.89,86.05,188.13,88.47,188.13,90.96z
			 M190.42,114.59c2.29-3.14,5.17-5.81,7.97-8.42c0.62-0.57,1.25-1.15,1.86-1.73c3.81-3.6,7.82-7.99,8.71-13.13
			c0.28-1.57,0.22-3.2-0.15-4.7c-0.38-1.54-1.1-2.94-2.09-4.03c-1.54-1.72-3.91-2.78-6.2-2.78c-0.72,0-1.41,0.1-2.06,0.31
			c-2.34,0.75-5.42,3.88-6.31,4.91l-0.55,0.64c0.22,1.73,0.34,3.51,0.34,5.3c0,7.1-1.8,13.79-4.94,19.61
			C188.21,111.83,189.38,113.17,190.42,114.59z M140.7,90.97c6.69,6.69,17.55,6.69,24.24,0c6.69-6.69,6.69-17.55,0-24.24
			s-17.55-6.69-24.24,0S134,84.27,140.7,90.97z"/>
	</g>
</g>
<g id="Layer_2">
</g>
<g id="Layer_3">
</g>
<g id="Layer_4">
</g>
<g id="Layer_5">
</g>
<g id="Layer_6">
</g>
<g id="Layer_7">
</g>
<g id="Layer_8">
</g>
<g id="Layer_9">
</g>
<g id="Layer_10">
</g>
<g id="Layer_11">
</g>
<g id="Layer_12">
</g>
<g id="Layer_13">
</g>
<g id="Layer_14">
</g>
<g id="Layer_15">
</g>
</svg>
