<?xml version="1.0" encoding="utf-8"?>
<!-- Generator: Adobe Illustrator 27.8.1, SVG Export Plug-In . SVG Version: 6.00 Build 0)  -->
<svg version="1.1" xmlns="http://www.w3.org/2000/svg" xmlns:xlink="http://www.w3.org/1999/xlink" x="0px" y="0px"
	 viewBox="0 0 350 230" style="enable-background:new 0 0 350 230;" xml:space="preserve">
<style type="text/css">
	.st0{fill:#E6007E;}
	.st1{fill:#FFED00;}
	.st2{fill:#009FE3;}
	.st3{fill:#A6A6ED;}
	.st4{fill:#F7595F;}
	.st5{fill:#F2BD65;}
	.st6{fill:#560033;}
	.st7{fill:#FFFFFF;}
	.st8{fill:#062BB5;}
	.st9{fill:#006D6D;}
	.st10{fill:#00B1FF;}
	.st11{fill:#2A8E00;}
	.st12{fill:#A09002;}
	.st13{fill:#FFCE00;}
	.st14{fill:#23D513;}
	.st15{fill:#E33056;}
	.st16{fill:#4399DE;}
	.st17{fill:none;stroke:#1D1D1B;stroke-width:1.6634;stroke-miterlimit:10;}
	.st18{fill:none;stroke:#1D1D1B;stroke-width:1.2062;stroke-miterlimit:10;}
	.st19{fill:none;stroke:#1D1D1B;stroke-width:1.6634;stroke-linecap:round;stroke-linejoin:round;stroke-miterlimit:10;}
	.st20{fill:#23D513;stroke:#FFFFFF;stroke-width:1.5;stroke-miterlimit:10;}
	.st21{fill:#FFCE00;stroke:#FFFFFF;stroke-width:1.5;stroke-miterlimit:10;}
	.st22{fill:#4399DE;stroke:#FFFFFF;stroke-width:1.5;stroke-miterlimit:10;}
	.st23{fill:#E33056;stroke:#FFFFFF;stroke-width:1.5;stroke-miterlimit:10;}
	.st24{fill:#005D72;}
</style>
<g id="Layer_1">
</g>
<g id="Layer_2">
</g>
<g id="Layer_3">
</g>
<g id="Layer_4">
</g>
<g id="Layer_5">
</g>
<g id="Layer_6">
</g>
<g id="Layer_7">
</g>
<g id="Layer_8">
	<path class="st9" d="M200.1,98.37c0-14.01-11.4-25.4-25.4-25.4c-14.01,0-25.4,11.39-25.4,25.4c0,14,11.39,25.39,25.4,25.39
		C188.71,123.76,200.1,112.37,200.1,98.37z M193.19,110.12c-1.23-0.46-2.58-0.87-4.01-1.22c0.85-2.83,1.36-5.95,1.47-9.23h5.93
		C196.34,103.5,195.14,107.06,193.19,110.12z M192.93,86.2c2.11,3.14,3.4,6.87,3.64,10.87h-5.93c-0.11-3.48-0.68-6.76-1.62-9.71
		C190.42,87.02,191.73,86.63,192.93,86.2z M191.24,84c-0.96,0.32-2.02,0.6-3.11,0.87c-0.95-2.29-2.13-4.33-3.5-6.02
		C187.15,80.12,189.39,81.88,191.24,84z M181.57,97.07c-0.03-2.49-0.18-5.44-0.5-8.42c1.91-0.18,3.73-0.43,5.44-0.75
		c0.88,2.76,1.42,5.87,1.53,9.17H181.57z M188.05,99.67c-0.11,3.11-0.59,6.04-1.39,8.68c-1.74-0.33-3.59-0.6-5.53-0.78
		c0.27-2.8,0.41-5.55,0.44-7.9H188.05z M185.59,85.41c-1.51,0.27-3.13,0.5-4.83,0.66c-0.49-3.49-1.23-6.78-2.29-9.15
		C181.37,78.35,183.87,81.38,185.59,85.41z M170.44,97.07c0.04-3.07,0.2-5.83,0.45-8.24c1.24,0.07,2.51,0.11,3.81,0.11
		c1.3,0,2.57-0.04,3.81-0.11c0.25,2.41,0.42,5.16,0.46,8.24H170.44z M178.97,99.67c-0.03,2.85-0.18,5.43-0.4,7.71
		c-1.26-0.07-2.55-0.12-3.86-0.12c-1.32,0-2.6,0.05-3.86,0.12c-0.22-2.28-0.37-4.86-0.4-7.71H178.97z M174.07,76.47
		c0.21,0,0.42-0.03,0.63-0.03c0.21,0,0.42,0.03,0.63,0.03c0.89,1.14,2.08,4.42,2.86,9.78c-1.14,0.06-2.29,0.1-3.49,0.1
		c-1.2,0-2.35-0.04-3.49-0.1C171.99,80.89,173.18,77.61,174.07,76.47z M170.95,76.92c-1.06,2.36-1.81,5.66-2.29,9.15
		c-1.7-0.16-3.32-0.38-4.83-0.66C165.54,81.38,168.04,78.34,170.95,76.92z M167.84,97.07h-6.48c0.12-3.3,0.65-6.41,1.53-9.17
		c1.72,0.32,3.53,0.57,5.44,0.75C168.02,91.63,167.87,94.58,167.84,97.07z M168.28,107.57c-1.95,0.18-3.79,0.45-5.54,0.78
		c-0.79-2.64-1.28-5.57-1.38-8.68h6.48C167.87,102.02,168.01,104.77,168.28,107.57z M164.78,78.84c-1.36,1.7-2.55,3.73-3.5,6.03
		c-1.09-0.26-2.15-0.55-3.11-0.87C160.02,81.88,162.26,80.12,164.78,78.84z M156.47,86.2c1.21,0.43,2.52,0.82,3.92,1.16
		c-0.94,2.96-1.51,6.24-1.62,9.71h-5.93C153.08,93.07,154.36,89.34,156.47,86.2z M156.22,110.12c-1.95-3.06-3.15-6.62-3.38-10.45
		h5.93c0.1,3.28,0.62,6.4,1.47,9.23C158.8,109.26,157.45,109.66,156.22,110.12z M157.82,112.34c1.01-0.35,2.12-0.66,3.28-0.94
		c0.98,2.49,2.23,4.69,3.68,6.5C162.1,116.53,159.72,114.64,157.82,112.34z M163.61,110.85c1.56-0.29,3.21-0.53,4.97-0.7
		c0.48,3.69,1.25,7.19,2.37,9.66C167.92,118.33,165.34,115.12,163.61,110.85z M175.34,120.27c-0.21,0.01-0.42,0.03-0.63,0.03
		c-0.21,0-0.42-0.02-0.63-0.03c-0.92-1.17-2.16-4.62-2.93-10.3c1.16-0.06,2.34-0.1,3.56-0.1c1.23,0,2.4,0.04,3.57,0.1
		C177.5,115.65,176.26,119.1,175.34,120.27z M178.47,119.82c1.12-2.47,1.88-5.97,2.37-9.66c1.75,0.17,3.41,0.4,4.97,0.7
		C184.07,115.12,181.49,118.33,178.47,119.82z M184.62,117.9c1.46-1.81,2.71-4.01,3.69-6.5c1.16,0.29,2.27,0.6,3.28,0.95
		C189.69,114.64,187.31,116.53,184.62,117.9z M214.63,103.98l6.09,2.27l-2.74,9.63l-6.18-1.24c-1.22,2.9-2.82,5.69-4.76,8.3
		l4.02,4.71l-7.09,7.08l-4.58-3.91c-2.61,2.05-5.41,3.71-8.35,5.03l1.16,5.79l-9.64,2.74l-2.02-5.45c-1.46,0.22-2.92,0.33-4.39,0.39
		v-8.18c16.96-0.74,30.57-14.36,31.32-31.32l7.42,0C214.88,101.22,214.8,102.6,214.63,103.98z M173.25,131.15v8.2
		c-1.47-0.04-2.95-0.14-4.41-0.35l-2,5.38l-9.63-2.74l1.12-5.59c-2.99-1.31-5.86-2.99-8.53-5.05l-4.36,3.72l-7.08-7.08l3.77-4.42
		c-0.52-0.69-1.01-1.39-1.48-2.1h-25.99c-0.35,1.26-1.5,2.2-2.88,2.2c-1.66,0-3-1.34-3-3c0-1.66,1.34-3,3-3
		c1.38,0,2.52,0.93,2.88,2.2h24.99c-0.93-1.55-1.75-3.15-2.45-4.8l-5.75,1.15l-1.28-4.51h-7.11c-0.35,1.26-1.5,2.2-2.88,2.2
		c-1.66,0-3-1.34-3-3c0-1.66,1.34-3,3-3c1.38,0,2.52,0.93,2.88,2.2h6.66l-1-3.52l5.65-2.1c-0.18-1.44-0.27-2.88-0.3-4.32h7.89
		C142.66,116.79,156.28,130.41,173.25,131.15z M111.66,96.1c0-1.66,1.34-3,3-3c1.38,0,2.52,0.93,2.88,2.2h16.65
		c0.07-0.88,0.16-1.77,0.3-2.64l-5.8-2.16l2.74-9.63l6.22,1.25c1.29-2.84,2.92-5.56,4.9-8.09l-4.21-4.93l7.08-7.08l5.06,4.32
		c2.54-1.87,5.23-3.43,8.04-4.63l-1.32-6.61l9.63-2.74l2.39,6.44c1.33-0.17,2.67-0.26,4.01-0.29v7.09
		c-16.96,0.75-30.57,14.36-31.32,31.32h-2.46h-5.39h-16.54c-0.35,1.26-1.5,2.2-2.88,2.2C113,99.1,111.66,97.76,111.66,96.1z
		 M241.24,77.34c-0.01,1.66-1.36,2.99-3.01,2.98c-1.38-0.01-2.52-0.94-2.87-2.21l-26.24-0.12c0.82,1.37,1.57,2.77,2.22,4.21
		l6.65-1.33l1.02,3.59l6.96,0.03c0.36-1.26,1.51-2.19,2.89-2.18c1.66,0.01,2.99,1.36,2.99,3.01c-0.01,1.66-1.36,2.99-3.01,2.98
		c-1.38-0.01-2.52-0.94-2.87-2.21l-6.5-0.03l1.26,4.43l-6.24,2.32c0.13,0.83,0.21,1.66,0.28,2.49h16.93c0.35-1.26,1.5-2.2,2.88-2.2
		c1.66,0,3,1.34,3,3c0,1.66-1.34,3-3,3c-1.38,0-2.52-0.93-2.88-2.2h-16.82c0,0,0,0,0,0l-7.38,0c-0.74-16.97-14.36-30.58-31.32-31.32
		l0-7.07c1.33,0.05,2.67,0.15,4,0.34l2.42-6.5l9.63,2.74l-1.36,6.8c2.75,1.22,5.38,2.76,7.86,4.61l5.27-4.5l7.09,7.09l-4.46,5.22
		c0.52,0.68,1,1.36,1.47,2.06l27.28,0.13c0.36-1.26,1.51-2.19,2.89-2.18C239.9,74.33,241.24,75.68,241.24,77.34z"/>
</g>
<g id="Layer_9">
</g>
<g id="Layer_10">
</g>
<g id="Layer_11">
</g>
<g id="Layer_12">
</g>
<g id="Layer_13">
</g>
<g id="Layer_14">
</g>
<g id="Layer_15">
</g>
</svg>
