<?xml version="1.0" encoding="utf-8"?>
<!-- Generator: Adobe Illustrator 27.8.1, SVG Export Plug-In . SVG Version: 6.00 Build 0)  -->
<svg version="1.1" xmlns="http://www.w3.org/2000/svg" xmlns:xlink="http://www.w3.org/1999/xlink" x="0px" y="0px"
	 viewBox="0 0 350 230" style="enable-background:new 0 0 350 230;" xml:space="preserve">
<style type="text/css">
	.st0{fill:#E6007E;}
	.st1{fill:#FFED00;}
	.st2{fill:#009FE3;}
	.st3{fill:#A6A6ED;}
	.st4{fill:#F7595F;}
	.st5{fill:#F2BD65;}
	.st6{fill:#560033;}
	.st7{fill:#FFFFFF;}
	.st8{fill:#062BB5;}
	.st9{fill:#006D6D;}
	.st10{fill:#00B1FF;}
	.st11{fill:#2A8E00;}
	.st12{fill:#A09002;}
	.st13{fill:#FFCE00;}
	.st14{fill:#23D513;}
	.st15{fill:#E33056;}
	.st16{fill:#4399DE;}
	.st17{fill:none;stroke:#1D1D1B;stroke-width:1.6634;stroke-miterlimit:10;}
	.st18{fill:none;stroke:#1D1D1B;stroke-width:1.2062;stroke-miterlimit:10;}
	.st19{fill:none;stroke:#1D1D1B;stroke-width:1.6634;stroke-linecap:round;stroke-linejoin:round;stroke-miterlimit:10;}
	.st20{fill:#23D513;stroke:#FFFFFF;stroke-width:1.5;stroke-miterlimit:10;}
	.st21{fill:#FFCE00;stroke:#FFFFFF;stroke-width:1.5;stroke-miterlimit:10;}
	.st22{fill:#4399DE;stroke:#FFFFFF;stroke-width:1.5;stroke-miterlimit:10;}
	.st23{fill:#E33056;stroke:#FFFFFF;stroke-width:1.5;stroke-miterlimit:10;}
	.st24{fill:#005D72;}
</style>
<g id="Layer_1">
</g>
<g id="Layer_2">
</g>
<g id="Layer_3">
</g>
<g id="Layer_4">
</g>
<g id="Layer_5">
</g>
<g id="Layer_6">
</g>
<g id="Layer_7">
</g>
<g id="Layer_8">
</g>
<g id="Layer_9">
</g>
<g id="Layer_10">
</g>
<g id="Layer_11">
</g>
<g id="Layer_12">
</g>
<g id="Layer_13">
</g>
<g id="Layer_14">
	<g>
		<path class="st20" d="M187.22,128.69c-1.89,5.17-6.85,8.86-12.67,8.86c-5.82,0-10.78-3.69-12.67-8.86
			c-0.41-1.14-0.67-2.34-0.76-3.59c-0.03-0.34-0.04-0.68-0.04-1.03c0-1.62,0.29-3.18,0.82-4.63v-0.01c0.17-0.31,0.31-0.64,0.42-0.98
			c0-0.01,0-0.01,0.01-0.02c0-0.01,0-0.01,0.01-0.02c0-0.01,0.01-0.01,0.01-0.02s0.01-0.01,0.01-0.02c0,0,0,0,0-0.01
			c0.19-0.6,0.29-1.24,0.29-1.91c0-3.54-2.88-6.42-6.42-6.42c-0.67,0-1.3,0.1-1.91,0.29c1.75-0.82,3.3-2,4.54-3.45
			c0.8-0.92,1.46-1.96,1.98-3.08c3.73,1.36,6.69,4.32,8.06,8.05c0.41,1.13,0.67,2.34,0.76,3.59c0.03,0.34,0.04,0.68,0.04,1.03
			c0,1.63-0.29,3.19-0.82,4.64c-0.17,0.33-0.32,0.67-0.43,1.02c0,0.01-0.01,0.03-0.01,0.05c-0.19,0.6-0.29,1.24-0.29,1.91
			c0,3.54,2.88,6.42,6.42,6.42c3.55,0,6.43-2.88,6.43-6.42c0-0.67-0.1-1.3-0.29-1.91c0.82,1.75,2,3.29,3.45,4.53
			C185.06,127.49,186.1,128.17,187.22,128.69z M194.82,85.89c-1.75,0.82-3.29,2-4.54,3.45c-0.8,0.92-1.47,1.96-1.99,3.09
			c-3.73-1.37-6.68-4.32-8.05-8.05c-0.41-1.13-0.67-2.34-0.76-3.59c-0.03-0.34-0.04-0.69-0.04-1.03c0-1.62,0.29-3.18,0.81-4.62
			c0.01-0.01,0.01-0.01,0.01-0.02c0.17-0.33,0.32-0.67,0.43-1.02c0-0.01,0.01-0.03,0.01-0.04c0.19-0.6,0.29-1.24,0.29-1.91
			c0-3.54-2.88-6.42-6.43-6.42c-3.54,0-6.42,2.88-6.42,6.42c0,0.67,0.1,1.3,0.29,1.91c-0.82-1.75-2-3.29-3.45-4.54
			c-0.92-0.8-1.96-1.47-3.09-1.99c1.89-5.17,6.86-8.86,12.67-8.86c5.82,0,10.79,3.69,12.67,8.87c0.41,1.13,0.67,2.34,0.76,3.59
			c0.03,0.34,0.04,0.68,0.04,1.03c0,1.63-0.29,3.19-0.82,4.64c-0.01,0.01-0.01,0.02-0.01,0.03c-0.16,0.31-0.29,0.63-0.4,0.96
			c-0.01,0.01-0.01,0.02-0.01,0.03c-0.2,0.61-0.3,1.27-0.3,1.95c0,3.55,2.87,6.43,6.42,6.43C193.57,86.18,194.21,86.07,194.82,85.89
			z M175,44.8c2.89,0,5.24,2.34,5.24,5.24s-2.34,5.24-5.24,5.24s-5.24-2.34-5.24-5.24S172.11,44.8,175,44.8z M175,140.94
			c2.89,0,5.24,2.34,5.24,5.24s-2.34,5.24-5.24,5.24s-5.24-2.34-5.24-5.24S172.11,140.94,175,140.94z"/>
		<path class="st21" d="M206.39,79.75c0,2.04-0.45,3.96-1.26,5.69c-0.52,1.12-1.19,2.16-1.99,3.09c-1.26,1.47-2.84,2.66-4.62,3.47
			h-0.01c-0.01,0.01-0.02,0.01-0.03,0.01c-0.32,0.1-0.62,0.23-0.92,0.39c-0.01,0-0.02,0.01-0.03,0.01
			c-2.05,1.07-3.45,3.22-3.45,5.69c0,2.47,1.4,4.62,3.45,5.69c-1.44-0.53-3-0.82-4.63-0.82c-0.35,0-0.69,0.01-1.03,0.05
			c-1.25,0.09-2.46,0.35-3.59,0.76c-0.81-1.73-1.26-3.65-1.26-5.69c0-2.04,0.45-3.96,1.26-5.69c0.52-1.12,1.19-2.16,1.99-3.09
			c1.24-1.45,2.79-2.63,4.54-3.45c0.01-0.01,0.03-0.01,0.04-0.01c0.35-0.11,0.69-0.26,1.02-0.43c0.01,0,0.01,0,0.02-0.01
			c2.04-1.07,3.43-3.22,3.43-5.69c0-3.54-2.88-6.42-6.42-6.42c-2.48,0-4.62,1.4-5.69,3.45c0.53-1.44,0.82-3,0.82-4.64
			c0-0.35-0.01-0.69-0.04-1.03c-0.09-1.25-0.35-2.46-0.76-3.59c1.73-0.81,3.65-1.26,5.69-1.26
			C200.36,66.28,206.39,72.31,206.39,79.75z M161.88,119.44c-0.53,1.44-0.82,3-0.82,4.63c0,0.35,0.01,0.69,0.04,1.03
			c0.09,1.25,0.35,2.46,0.76,3.59c-1.73,0.8-3.65,1.25-5.68,1.25c-7.45,0-13.48-6.03-13.48-13.48c0-2.03,0.45-3.95,1.26-5.68
			c0.52-1.12,1.19-2.16,1.99-3.09c1.25-1.46,2.81-2.65,4.58-3.47c0.01-0.01,0.02-0.01,0.03-0.01c0.32-0.1,0.62-0.22,0.9-0.37
			l0.01-0.01c0.01,0,0.01-0.01,0.01-0.01s0.01-0.01,0.01-0.01s0.01-0.01,0.01-0.01c2.07-1.06,3.5-3.22,3.5-5.71
			c0-2.49-1.43-4.65-3.5-5.71c1.46,0.54,3.04,0.83,4.68,0.83c0.35,0,0.69-0.01,1.03-0.05c1.25-0.09,2.46-0.35,3.59-0.76
			c0.81,1.73,1.26,3.65,1.26,5.69c0,2.04-0.45,3.96-1.26,5.69c-0.52,1.12-1.19,2.16-1.98,3.08c-1.24,1.45-2.79,2.64-4.54,3.45
			c-0.01,0.01-0.01,0.01-0.02,0.01c-0.36,0.12-0.71,0.26-1.04,0.44h-0.01c-2.05,1.07-3.45,3.22-3.45,5.69
			c0,3.55,2.88,6.43,6.43,6.43C158.67,122.89,160.81,121.49,161.88,119.44z M208.99,58.88c2.89,0,5.24,2.34,5.24,5.24
			s-2.34,5.24-5.24,5.24s-5.24-2.34-5.24-5.24S206.1,58.88,208.99,58.88z M141.01,126.86c2.89,0,5.24,2.34,5.24,5.24
			s-2.34,5.24-5.24,5.24s-5.24-2.34-5.24-5.24S138.12,126.86,141.01,126.86z"/>
		<path class="st22" d="M168.87,84.37c-1.37,3.73-4.33,6.69-8.06,8.05c-1.13,0.41-2.34,0.67-3.59,0.76
			c-0.34,0.03-0.68,0.05-1.03,0.05c-1.64,0-3.22-0.3-4.68-0.83c-0.01,0-0.01-0.01-0.01-0.01s-0.01-0.01-0.01-0.01
			c-0.29-0.15-0.6-0.28-0.92-0.38c-0.01-0.01-0.02-0.01-0.03-0.01c-0.62-0.2-1.27-0.3-1.95-0.3c-3.54,0-6.42,2.88-6.42,6.42
			s2.88,6.42,6.42,6.42c0.68,0,1.34-0.1,1.95-0.3c-1.76,0.82-3.32,2-4.58,3.47c-0.8,0.92-1.47,1.96-1.99,3.09
			c-5.17-1.89-8.86-6.85-8.86-12.67c0-5.82,3.7-10.79,8.86-12.67c1.14-0.41,2.34-0.67,3.59-0.76c0.34-0.03,0.68-0.05,1.03-0.05
			c1.62,0,3.18,0.29,4.63,0.82h0.01c0.33,0.18,0.68,0.32,1.04,0.44c0.01,0,0.01,0,0.02,0.01c0.61,0.19,1.24,0.29,1.91,0.29
			c3.54,0,6.42-2.88,6.42-6.43c0-0.67-0.1-1.3-0.29-1.91c0.82,1.75,2,3.29,3.45,4.54C166.7,83.18,167.74,83.85,168.87,84.37z
			 M213.99,98.11c0,5.82-3.69,10.78-8.86,12.67c-1.13,0.41-2.34,0.67-3.59,0.76c-0.34,0.03-0.69,0.05-1.03,0.05
			c-1.62,0-3.17-0.29-4.62-0.81c-0.01-0.01-0.01-0.01-0.02-0.01c-0.33-0.17-0.67-0.32-1.02-0.43c-0.01,0-0.03-0.01-0.04-0.01
			c-0.6-0.19-1.24-0.29-1.91-0.29c-3.55,0-6.42,2.88-6.42,6.42c0,0.69,0.11,1.36,0.32,1.98c-0.82-1.78-2.01-3.35-3.48-4.6
			c-0.92-0.8-1.96-1.47-3.09-1.99c1.37-3.73,4.32-6.68,8.05-8.05c1.13-0.41,2.34-0.67,3.59-0.76c0.34-0.03,0.69-0.05,1.03-0.05
			c1.63,0,3.19,0.29,4.63,0.82c0.01,0.01,0.03,0.01,0.03,0.01c0.3,0.16,0.62,0.3,0.95,0.4c0.62,0.2,1.29,0.32,1.98,0.32
			c3.55,0,6.43-2.88,6.43-6.42s-2.88-6.42-6.43-6.42c-0.69,0-1.36,0.11-1.98,0.32c1.78-0.82,3.35-2,4.62-3.47
			c0.8-0.93,1.47-1.97,1.99-3.09C210.3,87.33,213.99,92.29,213.99,98.11z M223.07,92.87c2.89,0,5.24,2.34,5.24,5.24
			s-2.34,5.24-5.24,5.24s-5.24-2.34-5.24-5.24S220.18,92.87,223.07,92.87z M126.93,92.87c2.89,0,5.24,2.34,5.24,5.24
			s-2.34,5.24-5.24,5.24s-5.24-2.34-5.24-5.24S124.04,92.87,126.93,92.87z"/>
		<path class="st23" d="M179.47,80.78c0.09,1.25,0.35,2.46,0.76,3.59c-1.73,0.81-3.65,1.26-5.69,1.26c-2.03,0-3.95-0.45-5.68-1.26
			c-1.12-0.52-2.17-1.19-3.09-1.99c-1.45-1.24-2.63-2.79-3.45-4.54c0-0.01,0-0.01,0-0.01c0-0.01-0.01-0.01-0.01-0.02
			s-0.01-0.01-0.01-0.02c-0.01-0.01-0.01-0.01-0.01-0.02c-0.01-0.01-0.01-0.01-0.01-0.02c-0.01-0.01-0.01-0.01-0.01-0.02
			c-0.1-0.33-0.24-0.65-0.4-0.96c0-0.01,0-0.01-0.01-0.02c-1.07-2.04-3.22-3.43-5.68-3.43c-3.55,0-6.43,2.88-6.43,6.42
			c0,2.47,1.4,4.62,3.45,5.69c-1.44-0.53-3-0.82-4.63-0.82c-0.35,0-0.69,0.01-1.03,0.05c-1.25,0.09-2.45,0.35-3.59,0.76
			c-0.81-1.73-1.26-3.65-1.26-5.69c0-7.44,6.03-13.48,13.48-13.48c2.03,0,3.95,0.45,5.68,1.25c1.12,0.52,2.16,1.19,3.09,1.99
			c1.45,1.24,2.63,2.79,3.45,4.54c0.01,0.01,0.01,0.03,0.01,0.04c0.11,0.35,0.26,0.69,0.43,1.02c0,0.01,0,0.01,0.01,0.02
			c1.07,2.04,3.22,3.43,5.68,3.43c2.47,0,4.62-1.39,5.69-3.43c-0.52,1.44-0.81,2.99-0.81,4.62
			C179.43,80.1,179.44,80.44,179.47,80.78z M206.39,116.46c0,7.45-6.03,13.48-13.48,13.48c-2.04,0-3.96-0.45-5.69-1.26
			c-1.12-0.52-2.16-1.19-3.09-1.99c-1.45-1.24-2.63-2.79-3.45-4.53c-0.01-0.01-0.01-0.03-0.01-0.05c-0.01-0.01-0.01-0.02-0.01-0.03
			c-0.11-0.35-0.25-0.68-0.42-0.99c-1.07-2.05-3.22-3.45-5.69-3.45c-2.47,0-4.62,1.4-5.69,3.45c0.53-1.44,0.82-3,0.82-4.64
			c0-0.35-0.01-0.69-0.04-1.03c-0.09-1.25-0.35-2.46-0.76-3.59c1.73-0.81,3.65-1.26,5.68-1.26c2.04,0,3.96,0.45,5.69,1.26
			c1.12,0.52,2.16,1.19,3.09,1.99c1.47,1.26,2.66,2.83,3.48,4.6c0.01,0.02,0.01,0.03,0.02,0.05c0.1,0.32,0.22,0.62,0.37,0.9
			l0.01,0.01c1.06,2.07,3.21,3.49,5.71,3.49c3.54,0,6.42-2.88,6.42-6.43c0-2.46-1.39-4.61-3.43-5.68c1.44,0.52,3,0.81,4.62,0.81
			c0.35,0,0.69-0.01,1.03-0.05c1.25-0.09,2.46-0.35,3.59-0.76C205.94,112.51,206.39,114.44,206.39,116.46z M208.99,126.86
			c2.89,0,5.24,2.34,5.24,5.24s-2.34,5.24-5.24,5.24s-5.24-2.34-5.24-5.24S206.1,126.86,208.99,126.86z M141.01,58.88
			c2.89,0,5.24,2.34,5.24,5.24s-2.34,5.24-5.24,5.24s-5.24-2.34-5.24-5.24S138.12,58.88,141.01,58.88z"/>
	</g>
</g>
<g id="Layer_15">
</g>
</svg>
