<?xml version="1.0" encoding="utf-8"?>
<!-- Generator: Adobe Illustrator 27.8.1, SVG Export Plug-In . SVG Version: 6.00 Build 0)  -->
<svg version="1.1" xmlns="http://www.w3.org/2000/svg" xmlns:xlink="http://www.w3.org/1999/xlink" x="0px" y="0px"
	 viewBox="0 0 350 230" style="enable-background:new 0 0 350 230;" xml:space="preserve">
<style type="text/css">
	.st0{fill:#E6007E;}
	.st1{fill:#FFED00;}
	.st2{fill:#009FE3;}
	.st3{fill:#A6A6ED;}
	.st4{fill:#F7595F;}
	.st5{fill:#F2BD65;}
	.st6{fill:#560033;}
	.st7{fill:#FFFFFF;}
	.st8{fill:#062BB5;}
	.st9{fill:#006D6D;}
	.st10{fill:#00B1FF;}
	.st11{fill:#2A8E00;}
	.st12{fill:#A09002;}
	.st13{fill:#FFCE00;}
	.st14{fill:#23D513;}
	.st15{fill:#E33056;}
	.st16{fill:#4399DE;}
	.st17{fill:none;stroke:#1D1D1B;stroke-width:1.6634;stroke-miterlimit:10;}
	.st18{fill:none;stroke:#1D1D1B;stroke-width:1.2062;stroke-miterlimit:10;}
	.st19{fill:none;stroke:#1D1D1B;stroke-width:1.6634;stroke-linecap:round;stroke-linejoin:round;stroke-miterlimit:10;}
	.st20{fill:#23D513;stroke:#FFFFFF;stroke-width:1.5;stroke-miterlimit:10;}
	.st21{fill:#FFCE00;stroke:#FFFFFF;stroke-width:1.5;stroke-miterlimit:10;}
	.st22{fill:#4399DE;stroke:#FFFFFF;stroke-width:1.5;stroke-miterlimit:10;}
	.st23{fill:#E33056;stroke:#FFFFFF;stroke-width:1.5;stroke-miterlimit:10;}
	.st24{fill:#005D72;}
</style>
<g id="Layer_1">
</g>
<g id="Layer_2">
</g>
<g id="Layer_3">
</g>
<g id="Layer_4">
</g>
<g id="Layer_5">
</g>
<g id="Layer_6">
</g>
<g id="Layer_7">
</g>
<g id="Layer_8">
</g>
<g id="Layer_9">
</g>
<g id="Layer_10">
</g>
<g id="Layer_11">
</g>
<g id="Layer_12">
</g>
<g id="Layer_13">
</g>
<g id="Layer_14">
</g>
<g id="Layer_15">
	<g>
		<path class="st24" d="M186.57,86.67c2.14,0,3.87,1.73,3.87,3.87s-1.73,3.87-3.87,3.87s-3.87-1.73-3.87-3.87
			S184.43,86.67,186.57,86.67z M199.27,50.66c2.14,0,3.87,1.73,3.87,3.87s-1.73,3.87-3.87,3.87s-3.87-1.73-3.87-3.87
			S197.14,50.66,199.27,50.66z M174.17,59.72c2.14,0,3.87,1.73,3.87,3.87c0,2.14-1.73,3.87-3.87,3.87s-3.87-1.73-3.87-3.87
			C170.3,61.45,172.03,59.72,174.17,59.72z M160.74,102.58c2.14,0,3.87,1.73,3.87,3.87s-1.73,3.87-3.87,3.87s-3.87-1.73-3.87-3.87
			S158.6,102.58,160.74,102.58z"/>
		<path class="st13" d="M197.44,45.17c0,0-13.31,19.98-18.26,46.66c-6.27,33.82,0.63,54.18,0.63,54.18h-10.32
			c0,0-10.76-49.07,24.64-100.83L197.44,45.17L197.44,45.17z M177.01,130.1c0.28-14.19,16.86-34.3,32.51-37.17v-2.39
			c0,0-20.72,1.05-32.63,19.78C176.89,110.32,173.97,123.05,177.01,130.1z M168.79,141.59c-0.28-14.19-8.78-22.11-28.69-26.99v-2.79
			c0,0,15.92,0.62,27.96,10.43 M172.09,94.75c0,0,1.76-20.91-19.73-27.88l1.39-2.88c0,0,17.04,4.17,22.1,17.9
			C175.86,81.89,174.77,89.69,172.09,94.75z M180.92,83.28c0,0,10.38-18.53,28.98-21.78v-1.99c0,0-12.44,0.48-24.62,10.58
			C185.27,70.09,181.32,76.64,180.92,83.28z"/>
	</g>
</g>
</svg>
