<?xml version="1.0" encoding="utf-8"?>
<!-- Generator: Adobe Illustrator 27.8.1, SVG Export Plug-In . SVG Version: 6.00 Build 0)  -->
<svg version="1.1" xmlns="http://www.w3.org/2000/svg" xmlns:xlink="http://www.w3.org/1999/xlink" x="0px" y="0px"
	 viewBox="0 0 350 230" style="enable-background:new 0 0 350 230;" xml:space="preserve">
<style type="text/css">
	.st0{fill:#E6007E;}
	.st1{fill:#FFED00;}
	.st2{fill:#009FE3;}
	.st3{fill:#A6A6ED;}
	.st4{fill:#F7595F;}
	.st5{fill:#F2BD65;}
	.st6{fill:#560033;}
	.st7{fill:#FFFFFF;}
	.st8{fill:#062BB5;}
	.st9{fill:#006D6D;}
	.st10{fill:#00B1FF;}
	.st11{fill:#2A8E00;}
	.st12{fill:#A09002;}
	.st13{fill:#FFCE00;}
	.st14{fill:#23D513;}
	.st15{fill:#E33056;}
	.st16{fill:#4399DE;}
	.st17{fill:none;stroke:#1D1D1B;stroke-width:1.6634;stroke-miterlimit:10;}
	.st18{fill:none;stroke:#1D1D1B;stroke-width:1.2062;stroke-miterlimit:10;}
	.st19{fill:none;stroke:#1D1D1B;stroke-width:1.6634;stroke-linecap:round;stroke-linejoin:round;stroke-miterlimit:10;}
	.st20{fill:#23D513;stroke:#FFFFFF;stroke-width:1.5;stroke-miterlimit:10;}
	.st21{fill:#FFCE00;stroke:#FFFFFF;stroke-width:1.5;stroke-miterlimit:10;}
	.st22{fill:#4399DE;stroke:#FFFFFF;stroke-width:1.5;stroke-miterlimit:10;}
	.st23{fill:#E33056;stroke:#FFFFFF;stroke-width:1.5;stroke-miterlimit:10;}
	.st24{fill:#005D72;}
</style>
<g id="Layer_1">
</g>
<g id="Layer_2">
</g>
<g id="Layer_3">
</g>
<g id="Layer_4">
</g>
<g id="Layer_5">
</g>
<g id="Layer_6">
</g>
<g id="Layer_7">
	<g id="OBJECTS">
		<g>
			<path class="st5" d="M146.01,110.18V91.31c0-1.72-1.39-3.11-3.11-3.11h-5.89c-1.72,0-3.11,1.39-3.11,3.11v6.62l-5.43,2.81
				l5.43,2.81v6.62c0,1.72,1.39,3.11,3.11,3.11h5.89C144.62,113.3,146.01,111.9,146.01,110.18z M203.99,91.31v18.87
				c0,1.72,1.39,3.11,3.11,3.11h5.89c1.72,0,3.11-1.39,3.11-3.11v-6.62l5.44-2.81l-5.44-2.81v-6.62c0-1.72-1.39-3.11-3.11-3.11
				h-5.89C205.38,88.2,203.99,89.59,203.99,91.31z M196.21,105.8c-2.79,0-5.05-2.26-5.05-5.05c0-2.79,2.26-5.05,5.05-5.05
				s5.05,2.26,5.05,5.05S199,105.8,196.21,105.8z M153.79,105.8c-2.79,0-5.05-2.26-5.05-5.05c0-2.79,2.26-5.05,5.05-5.05
				s5.05,2.26,5.05,5.05C158.84,103.54,156.58,105.8,153.79,105.8z M184.44,129.73h-18.87c-1.72,0-3.11,1.39-3.11,3.11v5.89
				c0,1.72,1.39,3.11,3.11,3.11h6.62l2.81,5.44l2.81-5.44h6.62c1.72,0,3.11-1.39,3.11-3.11v-5.89
				C187.55,131.13,186.16,129.73,184.44,129.73z M180.05,121.95c0,2.79-2.26,5.05-5.05,5.05s-5.05-2.26-5.05-5.05
				s2.26-5.05,5.05-5.05C177.79,116.9,180.05,119.16,180.05,121.95z M188.82,73.58l13.35,13.35c1.22,1.22,3.19,1.22,4.4,0l4.17-4.17
				c1.22-1.22,1.22-3.19,0-4.4l-4.68-4.68l1.85-5.83l-5.83,1.85l-4.68-4.68c-1.22-1.22-3.19-1.22-4.4,0l-4.17,4.17
				C187.61,70.39,187.61,72.36,188.82,73.58z M193.57,89.32c-1.97,1.97-5.17,1.97-7.14,0c-1.97-1.97-1.97-5.17,0-7.14
				c1.97-1.97,5.17-1.97,7.14,0C195.54,84.15,195.54,87.35,193.57,89.32z"/>
			<path class="st3" d="M165.56,71.76h18.87c1.72,0,3.11-1.39,3.11-3.11v-5.89c0-1.72-1.39-3.11-3.11-3.11h-6.62L175,54.21
				l-2.81,5.43h-6.62c-1.72,0-3.11,1.39-3.11,3.11v5.89C162.45,70.37,163.84,71.76,165.56,71.76z M180.05,79.54
				c0,2.79-2.26,5.05-5.05,5.05s-5.05-2.26-5.05-5.05s2.26-5.05,5.05-5.05C177.79,74.49,180.05,76.75,180.05,79.54z M161.18,127.92
				l-13.35-13.35c-1.22-1.22-3.19-1.22-4.4,0l-4.17,4.17c-1.22,1.22-1.22,3.19,0,4.4l4.68,4.68l-1.85,5.83l5.83-1.85l4.68,4.68
				c1.22,1.22,3.19,1.22,4.4,0l4.17-4.17C162.39,131.1,162.39,129.13,161.18,127.92z M163.58,119.31c-1.97,1.97-5.17,1.97-7.14,0
				c-1.97-1.97-1.97-5.17,0-7.14c1.97-1.97,5.17-1.97,7.14,0C165.55,114.14,165.55,117.34,163.58,119.31z"/>
			<path class="st9" d="M182.27,104.16c-0.28,1.13-0.74,2.05-1.4,2.76s-1.45,1.22-2.38,1.54c-0.93,0.32-1.96,0.48-3.09,0.48
				c-1.57,0-2.93-0.31-4.08-0.94c-1.15-0.62-2.03-1.52-2.65-2.7c-0.62-1.17-0.92-2.58-0.92-4.24c0-1.65,0.31-3.06,0.92-4.24
				c0.62-1.17,1.5-2.07,2.65-2.7c1.15-0.63,2.5-0.94,4.06-0.94c1.11,0,2.13,0.15,3.07,0.46c0.93,0.31,1.72,0.79,2.37,1.43
				s1.09,1.49,1.32,2.52l-4.1,1.64c-0.17-0.99-0.47-1.64-0.89-1.97c-0.42-0.32-0.97-0.49-1.63-0.49c-0.62,0-1.15,0.16-1.59,0.47
				c-0.44,0.32-0.77,0.79-0.99,1.41c-0.22,0.62-0.34,1.42-0.34,2.37c0,0.94,0.1,1.73,0.31,2.36c0.21,0.63,0.53,1.11,0.97,1.42
				c0.44,0.32,1.01,0.47,1.73,0.47c0.63,0,1.17-0.18,1.6-0.56c0.43-0.37,0.72-0.95,0.86-1.74L182.27,104.16z M147.83,86.92
				l13.35-13.35c1.22-1.22,1.22-3.19,0-4.4l-4.17-4.17c-1.22-1.22-3.19-1.22-4.4,0l-4.68,4.68l-5.83-1.85l1.85,5.83l-4.68,4.68
				c-1.22,1.22-1.22,3.19,0,4.4l4.17,4.17C144.64,88.14,146.62,88.14,147.83,86.92z M202.17,114.57l-13.35,13.35
				c-1.22,1.22-1.22,3.19,0,4.4l4.17,4.17c1.22,1.22,3.19,1.22,4.4,0l4.68-4.68l5.83,1.85l-1.85-5.83l4.68-4.68
				c1.22-1.22,1.22-3.19,0-4.4l-4.17-4.17C205.36,113.35,203.38,113.35,202.17,114.57z M190,110.69c2.79,0,5.05,2.26,5.05,5.05
				s-2.26,5.05-5.05,5.05s-5.05-2.26-5.05-5.05S187.21,110.69,190,110.69z M156.43,89.32c-1.97-1.97-1.97-5.17,0-7.14
				c1.97-1.97,5.17-1.97,7.14,0c1.97,1.97,1.97,5.17,0,7.14C161.6,91.3,158.41,91.3,156.43,89.32z"/>
		</g>
	</g>
</g>
<g id="Layer_8">
</g>
<g id="Layer_9">
</g>
<g id="Layer_10">
</g>
<g id="Layer_11">
</g>
<g id="Layer_12">
</g>
<g id="Layer_13">
</g>
<g id="Layer_14">
</g>
<g id="Layer_15">
</g>
</svg>
