<?xml version="1.0" encoding="utf-8"?>
<!-- Generator: Adobe Illustrator 27.8.1, SVG Export Plug-In . SVG Version: 6.00 Build 0)  -->
<svg version="1.1" xmlns="http://www.w3.org/2000/svg" xmlns:xlink="http://www.w3.org/1999/xlink" x="0px" y="0px"
	 viewBox="0 0 350 230" style="enable-background:new 0 0 350 230;" xml:space="preserve">
<style type="text/css">
	.st0{fill:#E6007E;}
	.st1{fill:#FFED00;}
	.st2{fill:#009FE3;}
	.st3{fill:#A6A6ED;}
	.st4{fill:#F7595F;}
	.st5{fill:#F2BD65;}
	.st6{fill:#560033;}
	.st7{fill:#FFFFFF;}
	.st8{fill:#062BB5;}
	.st9{fill:#006D6D;}
	.st10{fill:#00B1FF;}
	.st11{fill:#2A8E00;}
	.st12{fill:#A09002;}
	.st13{fill:#FFCE00;}
	.st14{fill:#23D513;}
	.st15{fill:#E33056;}
	.st16{fill:#4399DE;}
	.st17{fill:none;stroke:#1D1D1B;stroke-width:1.6634;stroke-miterlimit:10;}
	.st18{fill:none;stroke:#1D1D1B;stroke-width:1.2062;stroke-miterlimit:10;}
	.st19{fill:none;stroke:#1D1D1B;stroke-width:1.6634;stroke-linecap:round;stroke-linejoin:round;stroke-miterlimit:10;}
	.st20{fill:#23D513;stroke:#FFFFFF;stroke-width:1.5;stroke-miterlimit:10;}
	.st21{fill:#FFCE00;stroke:#FFFFFF;stroke-width:1.5;stroke-miterlimit:10;}
	.st22{fill:#4399DE;stroke:#FFFFFF;stroke-width:1.5;stroke-miterlimit:10;}
	.st23{fill:#E33056;stroke:#FFFFFF;stroke-width:1.5;stroke-miterlimit:10;}
	.st24{fill:#005D72;}
</style>
<g id="Layer_1">
</g>
<g id="Layer_2">
	<g>
		<g>
			<path class="st2" d="M200.76,76.15l-24.79,14.31l3.78,55.96l-12.5-50.79l0.11-0.07l-20.59,11.61
				c-6.11,3.62-14.01,0.95-16.67-5.63l-15.05-37.27c-2.45-6.07,0.6-12.96,6.74-15.23l59.93-19.21c3.97-1.47,8.39,0.54,9.9,4.49
				l12.41,32.41C205.39,70.25,204,74.22,200.76,76.15z"/>
			<path class="st1" d="M240.32,82.47l-15.11,27.46c-1.25,2.28-4.01,3.27-6.42,2.31l-18.39-7.19l-20.64,41.37l15.04-43.59
				l-11.79-4.6c-2.35-0.93-3.68-3.44-3.13-5.91l7.53-33.87c0.72-3.23,4.24-4.95,7.23-3.55L238,75.32
				C240.69,76.58,241.75,79.86,240.32,82.47z"/>
			<path class="st0" d="M156.42,121.43l-23.26,11.78c-2.33,1.18-5.17,0.43-6.62-1.73l-16.63-24.89c-1.73-2.59-0.79-6.1,2-7.48
				l34.7-17.2c2.77-1.37,6.11-0.02,7.15,2.89l9.92,27.91c1.58,4.1-2.49,6.26-2.49,6.26l18.59,27.43L156.42,121.43z"/>
		</g>
	</g>
</g>
<g id="Layer_3">
</g>
<g id="Layer_4">
</g>
<g id="Layer_5">
</g>
<g id="Layer_6">
</g>
<g id="Layer_7">
</g>
<g id="Layer_8">
</g>
<g id="Layer_9">
</g>
<g id="Layer_10">
</g>
<g id="Layer_11">
</g>
<g id="Layer_12">
</g>
<g id="Layer_13">
</g>
<g id="Layer_14">
</g>
<g id="Layer_15">
</g>
</svg>
