<?xml version="1.0" encoding="utf-8"?>
<!-- Generator: Adobe Illustrator 27.8.1, SVG Export Plug-In . SVG Version: 6.00 Build 0)  -->
<svg version="1.1" xmlns="http://www.w3.org/2000/svg" xmlns:xlink="http://www.w3.org/1999/xlink" x="0px" y="0px"
	 viewBox="0 0 350 230" style="enable-background:new 0 0 350 230;" xml:space="preserve">
<style type="text/css">
	.st0{fill:#E6007E;}
	.st1{fill:#FFED00;}
	.st2{fill:#009FE3;}
	.st3{fill:#A6A6ED;}
	.st4{fill:#F7595F;}
	.st5{fill:#F2BD65;}
	.st6{fill:#560033;}
	.st7{fill:#FFFFFF;}
	.st8{fill:#062BB5;}
	.st9{fill:#006D6D;}
	.st10{fill:#00B1FF;}
	.st11{fill:#2A8E00;}
	.st12{fill:#A09002;}
	.st13{fill:#FFCE00;}
	.st14{fill:#23D513;}
	.st15{fill:#E33056;}
	.st16{fill:#4399DE;}
	.st17{fill:none;stroke:#1D1D1B;stroke-width:1.6634;stroke-miterlimit:10;}
	.st18{fill:none;stroke:#1D1D1B;stroke-width:1.2062;stroke-miterlimit:10;}
	.st19{fill:none;stroke:#1D1D1B;stroke-width:1.6634;stroke-linecap:round;stroke-linejoin:round;stroke-miterlimit:10;}
	.st20{fill:#23D513;stroke:#FFFFFF;stroke-width:1.5;stroke-miterlimit:10;}
	.st21{fill:#FFCE00;stroke:#FFFFFF;stroke-width:1.5;stroke-miterlimit:10;}
	.st22{fill:#4399DE;stroke:#FFFFFF;stroke-width:1.5;stroke-miterlimit:10;}
	.st23{fill:#E33056;stroke:#FFFFFF;stroke-width:1.5;stroke-miterlimit:10;}
	.st24{fill:#005D72;}
</style>
<g id="Layer_1">
</g>
<g id="Layer_2">
</g>
<g id="Layer_3">
</g>
<g id="Layer_4">
	<g>
		<path class="st3" d="M184.81,68.25h-19.62c-1.11,0-2.02-0.9-2.02-2.02V53.92c0-1.11,0.9-2.02,2.02-2.02h19.62
			c1.11,0,2.02,0.9,2.02,2.02v12.32C186.83,67.35,185.92,68.25,184.81,68.25z M173.18,68.25h5.18v5.01L173.18,68.25z M165.19,119.46
			h19.62c1.11,0,2.02,0.9,2.02,2.02v12.32c0,1.11-0.9,2.02-2.02,2.02h-19.62c-1.11,0-2.02-0.9-2.02-2.02v-12.32
			C163.17,120.37,164.08,119.46,165.19,119.46z M176.82,119.46h-5.18v-5.01L176.82,119.46z"/>
		<path class="st4" d="M200.61,103.67V84.05c0-1.11,0.9-2.02,2.02-2.02h12.32c1.11,0,2.02,0.9,2.02,2.02v19.62
			c0,1.11-0.9,2.02-2.02,2.02h-12.32C201.51,105.68,200.61,104.78,200.61,103.67z M200.61,92.04v5.18h-5.01L200.61,92.04z
			 M149.39,84.05v19.62c0,1.11-0.9,2.02-2.02,2.02h-12.32c-1.11,0-2.02-0.9-2.02-2.02V84.05c0-1.11,0.9-2.02,2.02-2.02h12.32
			C148.49,82.03,149.39,82.93,149.39,84.05z M149.39,95.68V90.5h5.01L149.39,95.68z"/>
		<path class="st5" d="M200.04,82.69l-13.87-13.87c-0.79-0.79-0.79-2.07,0-2.85l8.71-8.71c0.79-0.79,2.07-0.79,2.85,0l13.87,13.87
			c0.79,0.79,0.79,2.07,0,2.85l-8.71,8.71C202.11,83.48,200.83,83.48,200.04,82.69z M191.82,74.46l3.66,3.66l-3.54,3.54
			L191.82,74.46z M149.96,105.03l13.87,13.87c0.79,0.79,0.79,2.07,0,2.85l-8.71,8.71c-0.79,0.79-2.07,0.79-2.85,0l-13.87-13.87
			c-0.79-0.79-0.79-2.07,0-2.85l8.71-8.71C147.89,104.24,149.17,104.24,149.96,105.03z M158.18,113.25l-3.66-3.66l3.54-3.54
			L158.18,113.25z"/>
		<path class="st6" d="M186.17,118.9l13.87-13.87c0.79-0.79,2.07-0.79,2.85,0l8.71,8.71c0.79,0.79,0.79,2.07,0,2.85l-13.87,13.87
			c-0.79,0.79-2.07,0.79-2.85,0l-8.71-8.71C185.38,120.97,185.38,119.69,186.17,118.9z M194.4,110.68l-3.66,3.66l-3.54-3.54
			L194.4,110.68z M163.83,68.82l-13.87,13.87c-0.79,0.79-2.07,0.79-2.85,0l-8.71-8.71c-0.79-0.79-0.79-2.07,0-2.85l13.87-13.87
			c0.79-0.79,2.07-0.79,2.85,0l8.71,8.71C164.62,66.75,164.62,68.03,163.83,68.82z M155.6,77.04l3.66-3.66l3.54,3.54L155.6,77.04z
			 M185,98.12c-0.38,1.55-1.02,2.81-1.93,3.79c-0.9,0.98-2,1.68-3.28,2.12c-1.28,0.44-2.7,0.65-4.25,0.65
			c-2.17,0-4.04-0.43-5.62-1.29c-1.58-0.86-2.8-2.1-3.65-3.71c-0.85-1.61-1.27-3.56-1.27-5.83c0-2.27,0.42-4.21,1.27-5.83
			c0.85-1.61,2.07-2.85,3.65-3.71c1.58-0.86,3.44-1.29,5.59-1.29c1.53,0,2.93,0.21,4.22,0.64c1.29,0.43,2.37,1.08,3.26,1.97
			c0.89,0.89,1.5,2.05,1.82,3.47l-5.64,2.26c-0.23-1.36-0.64-2.26-1.23-2.71c-0.58-0.45-1.33-0.67-2.24-0.67
			c-0.85,0-1.58,0.22-2.18,0.65c-0.61,0.44-1.06,1.08-1.37,1.94c-0.31,0.86-0.46,1.95-0.46,3.26c0,1.29,0.14,2.38,0.43,3.25
			c0.29,0.87,0.73,1.52,1.34,1.96s1.4,0.65,2.37,0.65c0.87,0,1.6-0.25,2.2-0.76c0.59-0.51,0.99-1.31,1.18-2.39L185,98.12z"/>
	</g>
</g>
<g id="Layer_5">
</g>
<g id="Layer_6">
</g>
<g id="Layer_7">
</g>
<g id="Layer_8">
</g>
<g id="Layer_9">
</g>
<g id="Layer_10">
</g>
<g id="Layer_11">
</g>
<g id="Layer_12">
</g>
<g id="Layer_13">
</g>
<g id="Layer_14">
</g>
<g id="Layer_15">
</g>
</svg>
