<?xml version="1.0" encoding="utf-8"?>
<!-- Generator: Adobe Illustrator 27.8.1, SVG Export Plug-In . SVG Version: 6.00 Build 0)  -->
<svg version="1.1" xmlns="http://www.w3.org/2000/svg" xmlns:xlink="http://www.w3.org/1999/xlink" x="0px" y="0px"
	 viewBox="0 0 350 230" style="enable-background:new 0 0 350 230;" xml:space="preserve">
<style type="text/css">
	.st0{fill:#E6007E;}
	.st1{fill:#FFED00;}
	.st2{fill:#009FE3;}
	.st3{fill:#A6A6ED;}
	.st4{fill:#F7595F;}
	.st5{fill:#F2BD65;}
	.st6{fill:#560033;}
	.st7{fill:#FFFFFF;}
	.st8{fill:#062BB5;}
	.st9{fill:#006D6D;}
	.st10{fill:#00B1FF;}
	.st11{fill:#2A8E00;}
	.st12{fill:#A09002;}
	.st13{fill:#FFCE00;}
	.st14{fill:#23D513;}
	.st15{fill:#E33056;}
	.st16{fill:#4399DE;}
	.st17{fill:none;stroke:#1D1D1B;stroke-width:1.6634;stroke-miterlimit:10;}
	.st18{fill:none;stroke:#1D1D1B;stroke-width:1.2062;stroke-miterlimit:10;}
	.st19{fill:none;stroke:#1D1D1B;stroke-width:1.6634;stroke-linecap:round;stroke-linejoin:round;stroke-miterlimit:10;}
	.st20{fill:#23D513;stroke:#FFFFFF;stroke-width:1.5;stroke-miterlimit:10;}
	.st21{fill:#FFCE00;stroke:#FFFFFF;stroke-width:1.5;stroke-miterlimit:10;}
	.st22{fill:#4399DE;stroke:#FFFFFF;stroke-width:1.5;stroke-miterlimit:10;}
	.st23{fill:#E33056;stroke:#FFFFFF;stroke-width:1.5;stroke-miterlimit:10;}
	.st24{fill:#005D72;}
</style>
<g id="Layer_1">
</g>
<g id="Layer_2">
</g>
<g id="Layer_3">
</g>
<g id="Layer_4">
</g>
<g id="Layer_5">
</g>
<g id="Layer_6">
</g>
<g id="Layer_7">
</g>
<g id="Layer_8">
</g>
<g id="Layer_9">
</g>
<g id="Layer_10">
</g>
<g id="Layer_11">
</g>
<g id="Layer_12">
	<g>
		<path class="st13" d="M202.95,92.01h-15.5c0-12.23-9.15-22.15-20.43-22.15v-16.8C186.86,53.06,202.95,70.5,202.95,92.01z
			 M201.44,46.05c4.41,0,7.98,3.87,7.98,8.65s-3.57,8.65-7.98,8.65s-7.98-3.87-7.98-8.65S197.04,46.05,201.44,46.05z"/>
		<path class="st14" d="M167.02,70.37v16.8c-11.28,0-20.43,9.92-20.43,22.15h-15.5C131.09,87.81,147.18,70.37,167.02,70.37z
			 M132.59,63.35c4.41,0,7.98,3.87,7.98,8.65c0,4.78-3.57,8.65-7.98,8.65c-4.41,0-7.98-3.87-7.98-8.65
			C124.61,67.22,128.19,63.35,132.59,63.35z"/>
		<path class="st15" d="M147.05,109.32h15.5c0,12.23,9.15,22.15,20.43,22.15v16.8C163.14,148.27,147.05,130.83,147.05,109.32z
			 M148.55,137.98c4.41,0,7.98,3.87,7.98,8.65c0,4.78-3.57,8.65-7.98,8.65s-7.98-3.87-7.98-8.65
			C140.57,141.86,144.15,137.98,148.55,137.98z"/>
		<path class="st16" d="M182.98,130.96v-16.8c11.28,0,20.43-9.92,20.43-22.15h15.5C218.91,113.52,202.82,130.96,182.98,130.96z
			 M217.41,120.68c4.41,0,7.98,3.87,7.98,8.65c0,4.78-3.57,8.65-7.98,8.65s-7.98-3.87-7.98-8.65
			C209.43,124.55,213,120.68,217.41,120.68z"/>
	</g>
</g>
<g id="Layer_13">
</g>
<g id="Layer_14">
</g>
<g id="Layer_15">
</g>
</svg>
