<?xml version="1.0" encoding="utf-8"?>
<!-- Generator: Adobe Illustrator 27.8.1, SVG Export Plug-In . SVG Version: 6.00 Build 0)  -->
<svg version="1.1" xmlns="http://www.w3.org/2000/svg" xmlns:xlink="http://www.w3.org/1999/xlink" x="0px" y="0px"
	 viewBox="0 0 350 230" style="enable-background:new 0 0 350 230;" xml:space="preserve">
<style type="text/css">
	.st0{fill:#E6007E;}
	.st1{fill:#FFED00;}
	.st2{fill:#009FE3;}
	.st3{fill:#A6A6ED;}
	.st4{fill:#F7595F;}
	.st5{fill:#F2BD65;}
	.st6{fill:#560033;}
	.st7{fill:#FFFFFF;}
	.st8{fill:#062BB5;}
	.st9{fill:#006D6D;}
	.st10{fill:#00B1FF;}
	.st11{fill:#2A8E00;}
	.st12{fill:#A09002;}
	.st13{fill:#FFCE00;}
	.st14{fill:#23D513;}
	.st15{fill:#E33056;}
	.st16{fill:#4399DE;}
	.st17{fill:none;stroke:#1D1D1B;stroke-width:1.6634;stroke-miterlimit:10;}
	.st18{fill:none;stroke:#1D1D1B;stroke-width:1.2062;stroke-miterlimit:10;}
	.st19{fill:none;stroke:#1D1D1B;stroke-width:1.6634;stroke-linecap:round;stroke-linejoin:round;stroke-miterlimit:10;}
	.st20{fill:#23D513;stroke:#FFFFFF;stroke-width:1.5;stroke-miterlimit:10;}
	.st21{fill:#FFCE00;stroke:#FFFFFF;stroke-width:1.5;stroke-miterlimit:10;}
	.st22{fill:#4399DE;stroke:#FFFFFF;stroke-width:1.5;stroke-miterlimit:10;}
	.st23{fill:#E33056;stroke:#FFFFFF;stroke-width:1.5;stroke-miterlimit:10;}
	.st24{fill:#005D72;}
</style>
<g id="Layer_1">
</g>
<g id="Layer_2">
</g>
<g id="Layer_3">
</g>
<g id="Layer_4">
</g>
<g id="Layer_5">
</g>
<g id="Layer_6">
</g>
<g id="Layer_7">
</g>
<g id="Layer_8">
</g>
<g id="Layer_9">
</g>
<g id="Layer_10">
</g>
<g id="Layer_11">
	<g>
		<path class="st11" d="M203.97,70.14c0,10.76-8.73,19.43-19.49,19.49c-1.03,0.01-6.54-0.61-6.55-0.6c-1.39,0-9.98-1-18.34,7.37
			c-8.36,8.36-6.86,17.76-6.86,17.76l-0.03,0.01c0.11,3.57-1.17,7.17-3.89,9.9c-5.24,5.24-13.74,5.24-18.98,0
			c-5.24-5.24-5.24-13.74,0-18.98c2.73-2.73,6.33-4,9.9-3.89v-0.03c0,0,9.4,1.51,17.76-6.86c8.37-8.36,7.51-17.11,7.5-18.5
			c0-0.01-0.03-7.76,0.3-9.03c1.6-9.16,9.57-16.13,19.18-16.13C195.24,50.65,203.97,59.38,203.97,70.14z M223.39,117.09
			c-2.03-5.75-7.89-9.04-13.7-8.06c-0.83,0.07-5.46,1.73-5.46,1.73c-0.83,0.3-5.88,2.66-12.66-0.57c-6.77-3.23-7.86-9.17-7.86-9.17
			l-0.02,0.01c-0.69-2.16-2.21-4.05-4.42-5.1c-4.24-2.03-9.33-0.23-11.35,4.02c-2.02,4.25-0.23,9.33,4.02,11.36
			c2.21,1.05,4.63,1.06,6.74,0.23l0.01,0.01c0,0,5.3-2.89,12.07,0.34c6.78,3.23,8,8.58,8.29,9.41c0,0,0.8,3.43,1.02,4.05
			c2.32,6.42,9.35,9.81,15.79,7.53C222.3,130.59,225.67,123.53,223.39,117.09z M168.26,119.09c-4.7,0-8.52,3.81-8.52,8.52
			c0,4.7,3.81,8.52,8.52,8.52c4.7,0,8.52-3.81,8.52-8.52C176.77,122.9,172.96,119.09,168.26,119.09z"/>
		<path class="st12" d="M221.42,105.63c-0.03,0-0.06,0-0.09,0c-1.46-0.05-2.61-1.27-2.56-2.73c0.34-10.3-3.09-20.35-9.64-28.29
			c-0.93-1.13-0.77-2.79,0.36-3.72c1.13-0.93,2.79-0.77,3.72,0.36c7.37,8.93,11.22,20.23,10.85,31.83
			C224.01,104.5,222.84,105.63,221.42,105.63z M135.52,91.1c3.26-12.86,12.53-23.57,24.83-28.67c1.35-0.56,1.99-2.11,1.43-3.46
			c-0.56-1.35-2.1-1.99-3.46-1.43c-13.83,5.73-24.27,17.79-27.93,32.26c-0.36,1.42,0.5,2.85,1.92,3.21
			c0.22,0.05,0.44,0.08,0.65,0.08C134.14,93.1,135.21,92.3,135.52,91.1z M200.43,142.64c1.26-0.74,1.69-2.36,0.95-3.62
			c-0.74-1.26-2.35-1.69-3.62-0.95c-6.85,3.99-14.68,5.97-22.64,5.71c-9.69-0.32-18.7-3.81-26.06-10.09
			c-1.11-0.95-2.78-0.82-3.73,0.29c-0.95,1.11-0.82,2.78,0.29,3.73c8.16,6.97,18.58,11.01,29.33,11.36
			c0.52,0.02,1.04,0.03,1.57,0.03C184.94,149.09,193.17,146.88,200.43,142.64z"/>
	</g>
</g>
<g id="Layer_12">
</g>
<g id="Layer_13">
</g>
<g id="Layer_14">
</g>
<g id="Layer_15">
</g>
</svg>
