<?xml version="1.0" encoding="utf-8"?>
<!-- Generator: Adobe Illustrator 27.8.1, SVG Export Plug-In . SVG Version: 6.00 Build 0)  -->
<svg version="1.1" xmlns="http://www.w3.org/2000/svg" xmlns:xlink="http://www.w3.org/1999/xlink" x="0px" y="0px"
	 viewBox="0 0 350 230" style="enable-background:new 0 0 350 230;" xml:space="preserve">
<style type="text/css">
	.st0{fill:#E6007E;}
	.st1{fill:#FFED00;}
	.st2{fill:#009FE3;}
	.st3{fill:#A6A6ED;}
	.st4{fill:#F7595F;}
	.st5{fill:#F2BD65;}
	.st6{fill:#560033;}
	.st7{fill:#FFFFFF;}
	.st8{fill:#062BB5;}
	.st9{fill:#006D6D;}
	.st10{fill:#00B1FF;}
	.st11{fill:#2A8E00;}
	.st12{fill:#A09002;}
	.st13{fill:#FFCE00;}
	.st14{fill:#23D513;}
	.st15{fill:#E33056;}
	.st16{fill:#4399DE;}
	.st17{fill:none;stroke:#1D1D1B;stroke-width:1.6634;stroke-miterlimit:10;}
	.st18{fill:none;stroke:#1D1D1B;stroke-width:1.2062;stroke-miterlimit:10;}
	.st19{fill:none;stroke:#1D1D1B;stroke-width:1.6634;stroke-linecap:round;stroke-linejoin:round;stroke-miterlimit:10;}
	.st20{fill:#23D513;stroke:#FFFFFF;stroke-width:1.5;stroke-miterlimit:10;}
	.st21{fill:#FFCE00;stroke:#FFFFFF;stroke-width:1.5;stroke-miterlimit:10;}
	.st22{fill:#4399DE;stroke:#FFFFFF;stroke-width:1.5;stroke-miterlimit:10;}
	.st23{fill:#E33056;stroke:#FFFFFF;stroke-width:1.5;stroke-miterlimit:10;}
	.st24{fill:#005D72;}
</style>
<g id="Layer_1">
</g>
<g id="Layer_2">
</g>
<g id="Layer_3">
</g>
<g id="Layer_4">
</g>
<g id="Layer_5">
</g>
<g id="Layer_6">
</g>
<g id="Layer_7">
</g>
<g id="Layer_8">
</g>
<g id="Layer_9">
</g>
<g id="Layer_10">
</g>
<g id="Layer_11">
</g>
<g id="Layer_12">
</g>
<g id="Layer_13">
	<g>
		<path class="st0" d="M162.83,65.07c-1.1,0-2-0.9-2-2V49.41c0-1.1,0.9-2,2-2h24.52c1.1,0,2,0.9,2,2v13.65c0,1.1-0.9,2-2,2H162.83z"
			/>
		<path class="st1" d="M214.69,79.73c-0.36,0-0.71-0.1-1.03-0.28l-17.56-10.4c0.84-1.32,1.29-2.85,1.29-4.45v-9.75l1.41-2.38
			c0.36-0.61,1.02-0.98,1.73-0.98c0.36,0,0.71,0.1,1.02,0.28l21.1,12.48c0.46,0.27,0.79,0.7,0.92,1.21
			c0.14,0.52,0.06,1.06-0.22,1.52l-6.95,11.76C216.05,79.36,215.41,79.73,214.69,79.73z"/>
		<path class="st17" d="M174.38,83.03c20.44,0,37,16.57,37,37s-16.57,37-37,37s-37-16.57-37-37S153.94,83.03,174.38,83.03z"/>
		<path class="st2" d="M174.38,88.8c17.25,0,31.23,13.98,31.23,31.23s-13.98,31.23-31.23,31.23s-31.23-13.98-31.23-31.23
			S157.13,88.8,174.38,88.8z M135.31,79.73c-0.71,0-1.36-0.37-1.72-0.98l-6.95-11.75c-0.28-0.46-0.35-1.01-0.22-1.53
			c0.13-0.51,0.46-0.94,0.91-1.21l21.11-12.49c0.31-0.18,0.66-0.28,1.02-0.28c0.71,0,1.37,0.38,1.73,0.98l1.41,2.38v9.75
			c0,1.6,0.45,3.13,1.29,4.45l-17.56,10.4C136.02,79.63,135.67,79.73,135.31,79.73C135.31,79.73,135.31,79.73,135.31,79.73z"/>
		<path class="st18" d="M174.38,83.03c20.44,0,37,16.57,37,37s-16.57,37-37,37s-37-16.57-37-37S153.94,83.03,174.38,83.03z
			 M141.11,103.82c0.06,9.04,4.52,21.1,19.72,24.13c32.43,6.46,46.81-24.13,46.81-24.13c-1.75,27.11-40.12,51.53-64.8,35.54
			 M207.64,103.82c3.75,28.1-16.02,53.21-46.34,50.82 M177.85,83.19c0,0-22.74,3.04-27.57,31.82
			c-4.97,29.62,19.88,47.09,35.13,40.34 M180.62,83.56c25.84,8.1,33.21,56.49,4.79,71.79"/>
		<path class="st19" d="M193.25,47.88V64.6c0,2.29-1.85,4.14-4.14,4.14h-10.62l-3.37,8.33l-3.37-8.33h-10.62
			c-2.29,0-4.14-1.85-4.14-4.14V47.88c0-2.28,1.85-4.14,4.14-4.14h27.98C191.4,43.73,193.25,45.6,193.25,47.88z M153.07,48.33
			c-1.31-1.32-3.39-1.64-5.06-0.64l-24.05,14.3c-1.97,1.17-2.61,3.72-1.44,5.68l8.55,14.37c1.17,1.97,3.71,2.62,5.68,1.44l9.13-5.43
			l7.15,5.44l-1.36-8.88l5.52-3.28 M196.93,48.33c1.31-1.32,3.39-1.64,5.06-0.64l24.05,14.3c1.97,1.17,2.61,3.72,1.44,5.68
			l-8.55,14.37c-1.17,1.97-3.71,2.62-5.68,1.44l-9.13-5.43l-7.15,5.44l1.36-8.88l-5.52-3.28"/>
	</g>
</g>
<g id="Layer_14">
</g>
<g id="Layer_15">
</g>
</svg>
