<?xml version="1.0" encoding="utf-8"?>
<!-- Generator: Adobe Illustrator 27.8.1, SVG Export Plug-In . SVG Version: 6.00 Build 0)  -->
<svg version="1.1" xmlns="http://www.w3.org/2000/svg" xmlns:xlink="http://www.w3.org/1999/xlink" x="0px" y="0px"
	 viewBox="0 0 350 230" style="enable-background:new 0 0 350 230;" xml:space="preserve">
<style type="text/css">
	.st0{fill:#E6007E;}
	.st1{fill:#FFED00;}
	.st2{fill:#009FE3;}
	.st3{fill:#A6A6ED;}
	.st4{fill:#F7595F;}
	.st5{fill:#F2BD65;}
	.st6{fill:#560033;}
	.st7{fill:#FFFFFF;}
	.st8{fill:#062BB5;}
	.st9{fill:#006D6D;}
	.st10{fill:#00B1FF;}
	.st11{fill:#2A8E00;}
	.st12{fill:#A09002;}
	.st13{fill:#FFCE00;}
	.st14{fill:#23D513;}
	.st15{fill:#E33056;}
	.st16{fill:#4399DE;}
	.st17{fill:none;stroke:#1D1D1B;stroke-width:1.6634;stroke-miterlimit:10;}
	.st18{fill:none;stroke:#1D1D1B;stroke-width:1.2062;stroke-miterlimit:10;}
	.st19{fill:none;stroke:#1D1D1B;stroke-width:1.6634;stroke-linecap:round;stroke-linejoin:round;stroke-miterlimit:10;}
	.st20{fill:#23D513;stroke:#FFFFFF;stroke-width:1.5;stroke-miterlimit:10;}
	.st21{fill:#FFCE00;stroke:#FFFFFF;stroke-width:1.5;stroke-miterlimit:10;}
	.st22{fill:#4399DE;stroke:#FFFFFF;stroke-width:1.5;stroke-miterlimit:10;}
	.st23{fill:#E33056;stroke:#FFFFFF;stroke-width:1.5;stroke-miterlimit:10;}
	.st24{fill:#005D72;}
</style>
<g id="Layer_1">
</g>
<g id="Layer_2">
</g>
<g id="Layer_3">
</g>
<g id="Layer_4">
</g>
<g id="Layer_5">
</g>
<g id="Layer_6">
</g>
<g id="Layer_7">
</g>
<g id="Layer_8">
</g>
<g id="Layer_9">
</g>
<g id="Layer_10">
	<path class="st0" d="M126.03,134.79c-1.8-1.31-3.51-2.77-5.12-4.37c-8.15-8.12-12.65-18.93-12.67-30.43
		c-0.02-11.5,4.44-22.33,12.56-30.48s18.93-12.65,30.43-12.67c11.5-0.02,22.33,4.44,30.48,12.56c1.77,1.76,1.78,4.63,0.01,6.4
		c-1.76,1.77-4.62,1.76-6.4,0.01c-6.43-6.42-14.98-9.94-24.07-9.93c-9.09,0.02-17.62,3.57-24.03,10.01
		c-6.41,6.43-9.94,14.98-9.92,24.07c0.01,9.09,3.57,17.63,10.01,24.04c6.43,6.42,14.98,9.94,24.07,9.92
		c9.09-0.02,17.63-3.57,24.04-10.01c1.76-1.77,4.62-1.77,6.4-0.01c1.77,1.77,1.77,4.63,0.01,6.4c-8.12,8.15-18.93,12.65-30.43,12.67
		C142.15,143,133.35,140.13,126.03,134.79z M136.53,120.22c-1.04-0.76-2.03-1.6-2.96-2.52c-9.74-9.7-9.76-25.51-0.06-35.25
		c4.7-4.72,10.95-7.32,17.61-7.33c6.66-0.01,12.92,2.58,17.64,7.27c1.8,1.79,1.8,4.71,0.01,6.5c-1.8,1.8-4.7,1.79-6.5,0.01
		c-2.97-2.97-6.93-4.59-11.13-4.59c-4.2,0.01-8.15,1.65-11.11,4.63c-6.12,6.14-6.11,16.12,0.04,22.24c2.97,2.97,6.93,4.6,11.13,4.59
		c4.2-0.01,8.15-1.65,11.11-4.62c1.79-1.8,4.69-1.79,6.5-0.01c1.8,1.79,1.81,4.71,0.01,6.51c-4.7,4.71-10.96,7.31-17.61,7.33
		C145.86,124.97,140.77,123.31,136.53,120.22z M211.2,140.22v-13.49h-10.27l-5.71-5.61l-0.02-18.35h8.28c0.62,0,1.2-0.24,1.64-0.68
		l13.29-13.26h9.85v4.54h13.48V79.88h-13.48v4.29h-10.82c-0.61,0-1.19,0.23-1.65,0.68l-13.29,13.26h-16.07l11.94-11.96
		c0.43-0.43,0.67-1.01,0.68-1.65l-0.08-9.72h4.32V61.29h-13.48v13.49h4.51l0.07,8.77l-14.53,14.56h-22.96
		c-0.95-2.56-3.39-4.39-6.29-4.39c-3.71,0-6.72,3.01-6.72,6.72c0,3.71,3,6.72,6.72,6.72c2.9,0,5.34-1.84,6.29-4.39h33.63l0.02,19.33
		c0,0.61,0.24,1.19,0.69,1.65l6.46,6.36v10.12L211.2,140.22L211.2,140.22z"/>
</g>
<g id="Layer_11">
</g>
<g id="Layer_12">
</g>
<g id="Layer_13">
</g>
<g id="Layer_14">
</g>
<g id="Layer_15">
</g>
</svg>
