<?xml version="1.0" encoding="utf-8"?>
<!-- Generator: Adobe Illustrator 27.8.1, SVG Export Plug-In . SVG Version: 6.00 Build 0)  -->
<svg version="1.1" xmlns="http://www.w3.org/2000/svg" xmlns:xlink="http://www.w3.org/1999/xlink" x="0px" y="0px"
	 viewBox="0 0 350 230" style="enable-background:new 0 0 350 230;" xml:space="preserve">
<style type="text/css">
	.st0{fill:#E6007E;}
	.st1{fill:#FFED00;}
	.st2{fill:#009FE3;}
	.st3{fill:#A6A6ED;}
	.st4{fill:#F7595F;}
	.st5{fill:#F2BD65;}
	.st6{fill:#560033;}
	.st7{fill:#FFFFFF;}
	.st8{fill:#062BB5;}
	.st9{fill:#006D6D;}
	.st10{fill:#00B1FF;}
	.st11{fill:#2A8E00;}
	.st12{fill:#A09002;}
	.st13{fill:#FFCE00;}
	.st14{fill:#23D513;}
	.st15{fill:#E33056;}
	.st16{fill:#4399DE;}
	.st17{fill:none;stroke:#1D1D1B;stroke-width:1.6634;stroke-miterlimit:10;}
	.st18{fill:none;stroke:#1D1D1B;stroke-width:1.2062;stroke-miterlimit:10;}
	.st19{fill:none;stroke:#1D1D1B;stroke-width:1.6634;stroke-linecap:round;stroke-linejoin:round;stroke-miterlimit:10;}
	.st20{fill:#23D513;stroke:#FFFFFF;stroke-width:1.5;stroke-miterlimit:10;}
	.st21{fill:#FFCE00;stroke:#FFFFFF;stroke-width:1.5;stroke-miterlimit:10;}
	.st22{fill:#4399DE;stroke:#FFFFFF;stroke-width:1.5;stroke-miterlimit:10;}
	.st23{fill:#E33056;stroke:#FFFFFF;stroke-width:1.5;stroke-miterlimit:10;}
	.st24{fill:#005D72;}
</style>
<g id="Layer_1">
</g>
<g id="Layer_2">
</g>
<g id="Layer_3">
</g>
<g id="Layer_4">
</g>
<g id="Layer_5">
</g>
<g id="Layer_6">
</g>
<g id="Layer_7">
</g>
<g id="Layer_8">
</g>
<g id="Layer_9">
	<path class="st10" d="M210.06,90.55l-6.14-10.63l6.14-10.63h12.28l6.14,10.63l-6.14,10.63H210.06z M174.06,66.46l4.98-8.63
		l-4.98-8.63h-9.96l-4.99,8.63l4.99,8.63H174.06z M229.81,51.86l2.63-4.55l-2.63-4.54h-5.25l-2.62,4.54l2.62,4.55H229.81z
		 M208.93,57.79l4.22-7.29l-4.22-7.3h-8.42l-4.21,7.3l4.21,7.29H208.93z M181.51,92.33c0-1.36-1.11-2.48-2.48-2.48
		c-1.36,0-2.47,1.11-2.47,2.48c0,1.36,1.11,2.47,2.47,2.47C180.4,94.81,181.51,93.7,181.51,92.33z M188.74,117.78l9.02,14.81
		l5.99,1.65l15.11-26.17l-5.4-9.36h-8.83l-10.93-18.94l4.42-7.65l-4.57-7.91h-8.49l-6.03,10.44h-19.87l-6.02-10.44h-10.23
		l-8.77,15.19l11.52,17.88c0.1,0,0.19-0.03,0.3-0.03c3.41,0,6.19,2.77,6.19,6.19c0,3.41-2.78,6.19-6.19,6.19
		c-3.41,0-6.19-2.77-6.19-6.19c0-1.5,0.56-2.85,1.44-3.92l-9.86-15.28l-13.76,23.84l13.29,23.01l27.9-18.35l3.49-12.7l0.82-0.51
		c0,0,9.59-5.95,9.9-6.15c-0.06-0.34-0.11-0.68-0.11-1.04c0-3.41,2.78-6.19,6.18-6.19c3.41,0,6.19,2.77,6.19,6.19
		c0,3.41-2.78,6.19-6.19,6.19c-1.27,0-2.45-0.39-3.43-1.04c-0.37,0.3-0.75,0.55-1.07,0.74l-8.04,4.99l-3.49,12.68l-29.68,19.49
		l6.89,11.93l23.6-14.92c0-0.1-0.03-0.19-0.03-0.28c0-3.41,2.78-6.19,6.18-6.19c3.41,0,6.19,2.78,6.19,6.19
		c0,3.41-2.78,6.18-6.19,6.18c-1.5,0-2.86-0.56-3.93-1.45L142.7,151.6l0.19,0.33h50.65l7.65-13.26l-6.6-1.82l-0.51-0.82
		c0,0-9.99-16.37-10.18-16.67c-0.34,0.06-0.68,0.11-1.04,0.11c-3.41,0-6.18-2.78-6.18-6.19c0-3.41,2.78-6.19,6.18-6.19
		c3.41,0,6.19,2.77,6.19,6.19c0,1.27-0.38,2.44-1.04,3.43C188.29,117.08,188.54,117.47,188.74,117.78z M172.46,132.11
		c0-1.36-1.11-2.48-2.47-2.48c-1.36,0-2.47,1.11-2.47,2.48c0,1.36,1.11,2.47,2.47,2.47C171.35,134.58,172.46,133.47,172.46,132.11z
		 M148.4,103.44c0-1.36-1.11-2.47-2.47-2.47c-1.37,0-2.48,1.11-2.48,2.47c0,1.37,1.11,2.48,2.48,2.48
		C147.29,105.91,148.4,104.8,148.4,103.44z M180.38,113.29c0,1.36,1.11,2.47,2.47,2.47c1.37,0,2.48-1.11,2.48-2.47
		c0-1.36-1.11-2.47-2.48-2.47C181.49,110.81,180.38,111.92,180.38,113.29z"/>
</g>
<g id="Layer_10">
</g>
<g id="Layer_11">
</g>
<g id="Layer_12">
</g>
<g id="Layer_13">
</g>
<g id="Layer_14">
</g>
<g id="Layer_15">
</g>
</svg>
