<?xml version="1.0" encoding="utf-8"?>
<!-- Generator: Adobe Illustrator 27.8.1, SVG Export Plug-In . SVG Version: 6.00 Build 0)  -->
<svg version="1.1" xmlns="http://www.w3.org/2000/svg" xmlns:xlink="http://www.w3.org/1999/xlink" x="0px" y="0px"
	 viewBox="0 0 350 230" style="enable-background:new 0 0 350 230;" xml:space="preserve">
<style type="text/css">
	.st0{fill:#E6007E;}
	.st1{fill:#FFED00;}
	.st2{fill:#009FE3;}
	.st3{fill:#A6A6ED;}
	.st4{fill:#F7595F;}
	.st5{fill:#F2BD65;}
	.st6{fill:#560033;}
	.st7{fill:#FFFFFF;}
	.st8{fill:#062BB5;}
	.st9{fill:#006D6D;}
	.st10{fill:#00B1FF;}
	.st11{fill:#2A8E00;}
	.st12{fill:#A09002;}
	.st13{fill:#FFCE00;}
	.st14{fill:#23D513;}
	.st15{fill:#E33056;}
	.st16{fill:#4399DE;}
	.st17{fill:none;stroke:#1D1D1B;stroke-width:1.6634;stroke-miterlimit:10;}
	.st18{fill:none;stroke:#1D1D1B;stroke-width:1.2062;stroke-miterlimit:10;}
	.st19{fill:none;stroke:#1D1D1B;stroke-width:1.6634;stroke-linecap:round;stroke-linejoin:round;stroke-miterlimit:10;}
	.st20{fill:#23D513;stroke:#FFFFFF;stroke-width:1.5;stroke-miterlimit:10;}
	.st21{fill:#FFCE00;stroke:#FFFFFF;stroke-width:1.5;stroke-miterlimit:10;}
	.st22{fill:#4399DE;stroke:#FFFFFF;stroke-width:1.5;stroke-miterlimit:10;}
	.st23{fill:#E33056;stroke:#FFFFFF;stroke-width:1.5;stroke-miterlimit:10;}
	.st24{fill:#005D72;}
</style>
<g id="Layer_1">
</g>
<g id="Layer_2">
</g>
<g id="Layer_3">
</g>
<g id="Layer_4">
</g>
<g id="Layer_5">
	<g>
		<path class="st3" d="M198.82,48.64h-72.08c-4.09,0-7.41,3.32-7.41,7.41v45.26c0,4.09,3.32,7.41,7.41,7.41h29.34l6.7,12.94
			l6.7-12.94h29.34c4.09,0,7.41-3.32,7.41-7.41V56.05C206.23,51.96,202.91,48.64,198.82,48.64z"/>
		<path class="st5" d="M222.38,72.7H150.3c-4.09,0-7.41,3.32-7.41,7.41v45.26c0,4.09,3.32,7.41,7.41,7.41h29.34l13.54,12.94
			l-0.15-12.94h29.34c4.09,0,7.41-3.32,7.41-7.41V80.11C229.79,76.02,226.47,72.7,222.38,72.7z"/>
		<path class="st4" d="M206.23,72.69v28.62c0,4.09-3.32,7.41-7.41,7.41h-29.34l-13.35,12.94l-0.04-12.94h-13.2V80.11
			c0-4.09,3.32-7.41,7.41-7.41H206.23z"/>
		<path class="st7" d="M164.81,90.77c0,2.67-2.17,4.84-4.84,4.84c-2.67,0-4.84-2.17-4.84-4.84s2.17-4.84,4.84-4.84
			C162.64,85.93,164.81,88.09,164.81,90.77z M179.4,90.77c0,2.67-2.17,4.84-4.84,4.84c-2.67,0-4.84-2.17-4.84-4.84
			s2.17-4.84,4.84-4.84C177.23,85.93,179.4,88.09,179.4,90.77z M193.99,90.77c0,2.67-2.17,4.84-4.84,4.84
			c-2.67,0-4.84-2.17-4.84-4.84s2.17-4.84,4.84-4.84C191.82,85.93,193.99,88.09,193.99,90.77z"/>
	</g>
</g>
<g id="Layer_6">
</g>
<g id="Layer_7">
</g>
<g id="Layer_8">
</g>
<g id="Layer_9">
</g>
<g id="Layer_10">
</g>
<g id="Layer_11">
</g>
<g id="Layer_12">
</g>
<g id="Layer_13">
</g>
<g id="Layer_14">
</g>
<g id="Layer_15">
</g>
</svg>
