<?xml version="1.0" encoding="utf-8"?>
<!-- Generator: Adobe Illustrator 27.8.1, SVG Export Plug-In . SVG Version: 6.00 Build 0)  -->
<svg version="1.1" xmlns="http://www.w3.org/2000/svg" xmlns:xlink="http://www.w3.org/1999/xlink" x="0px" y="0px"
	 viewBox="0 0 350 230" style="enable-background:new 0 0 350 230;" xml:space="preserve">
<style type="text/css">
	.st0{fill:#E6007E;}
	.st1{fill:#FFED00;}
	.st2{fill:#009FE3;}
	.st3{fill:#A6A6ED;}
	.st4{fill:#F7595F;}
	.st5{fill:#F2BD65;}
	.st6{fill:#560033;}
	.st7{fill:#FFFFFF;}
	.st8{fill:#062BB5;}
	.st9{fill:#006D6D;}
	.st10{fill:#00B1FF;}
	.st11{fill:#2A8E00;}
	.st12{fill:#A09002;}
	.st13{fill:#FFCE00;}
	.st14{fill:#23D513;}
	.st15{fill:#E33056;}
	.st16{fill:#4399DE;}
	.st17{fill:none;stroke:#1D1D1B;stroke-width:1.6634;stroke-miterlimit:10;}
	.st18{fill:none;stroke:#1D1D1B;stroke-width:1.2062;stroke-miterlimit:10;}
	.st19{fill:none;stroke:#1D1D1B;stroke-width:1.6634;stroke-linecap:round;stroke-linejoin:round;stroke-miterlimit:10;}
	.st20{fill:#23D513;stroke:#FFFFFF;stroke-width:1.5;stroke-miterlimit:10;}
	.st21{fill:#FFCE00;stroke:#FFFFFF;stroke-width:1.5;stroke-miterlimit:10;}
	.st22{fill:#4399DE;stroke:#FFFFFF;stroke-width:1.5;stroke-miterlimit:10;}
	.st23{fill:#E33056;stroke:#FFFFFF;stroke-width:1.5;stroke-miterlimit:10;}
	.st24{fill:#005D72;}
</style>
<g id="Layer_1">
	<g>
		<path class="st0" d="M222.75,97.36c-0.02-1.67-1.37-3.02-3.05-3.02c-1.67,0-3.03,1.35-3.05,3.01c0-9.88-6.62-18.72-16.1-21.5
			l-2.15-0.63l-0.03-1.7c-0.22-12.27-10.43-22.71-22.69-22.56c-11.99,0.14-21.69,9.57-22.12,21.58l-0.09,2.39l-2.33,0.49
			c-4.18,0.88-7.91,2.92-10.85,5.75c-0.03,0.03-0.06,0.05-0.08,0.08c-0.55,0.54-1.3,0.88-2.15,0.88c-1.68,0-3.05-1.36-3.05-3.05
			c0-0.84,0.34-1.6,0.9-2.15c0.06-0.07,0.14-0.14,0.22-0.2c3.2-3.07,7.12-5.41,11.51-6.71c1.65-14.29,13.67-25.17,28.32-25.17
			c14.71,0,27.01,11.41,28.38,25.84C215.28,74.85,222.75,85.51,222.75,97.36z"/>
		<path class="st1" d="M155.76,122.63c0,1.7-1.37,3.06-3.02,3.06c-0.12,0-0.25,0-0.37-0.02c-14.13-1.68-25.12-13.74-25.12-28.31
			c0-7.89,3.28-15.2,8.66-20.43c-0.56,0.55-0.9,1.31-0.9,2.15c0,1.69,1.37,3.05,3.05,3.05c0.85,0,1.6-0.34,2.15-0.88
			c-4.26,4.12-6.86,9.89-6.86,16.11c0,11.45,8.64,20.93,19.75,22.25C154.62,119.8,155.76,121.1,155.76,122.63z"/>
		<path d="M161.32,93.85c0,1.94-1.57,3.52-3.52,3.52c-1.94,0-3.52-1.57-3.52-3.52s1.57-3.52,3.52-3.52
			C159.74,90.33,161.32,91.91,161.32,93.85z M175,90.33c-1.94,0-3.52,1.57-3.52,3.52s1.57,3.52,3.52,3.52
			c1.94,0,3.52-1.57,3.52-3.52S176.94,90.33,175,90.33z M192.2,90.33c-1.94,0-3.52,1.57-3.52,3.52s1.57,3.52,3.52,3.52
			c1.94,0,3.52-1.57,3.52-3.52S194.14,90.33,192.2,90.33z"/>
		<path class="st2" d="M222.75,97.36v0.04c-0.02,15.09-11.6,27.39-26.56,28.4l-35.08,23.59c-2.55,1.72-5.76-1-4.47-3.8l9.79-21.27
			c0.7-1.53,2.52-2.2,4.05-1.5c1.12,0.52,1.77,1.62,1.77,2.77c0,0.43-0.09,0.87-0.28,1.28l-3.73,8.11
			c-0.43,0.93,0.64,1.84,1.49,1.27l24.48-16.47l0.32-0.01c10.18-0.37,19.14-7.3,21.5-17.2c0.42-1.74,0.62-3.47,0.62-5.18v-0.04
			c0.02-1.66,1.38-3.01,3.05-3.01C221.38,94.34,222.73,95.69,222.75,97.36z"/>
	</g>
</g>
<g id="Layer_2">
</g>
<g id="Layer_3">
</g>
<g id="Layer_4">
</g>
<g id="Layer_5">
</g>
<g id="Layer_6">
</g>
<g id="Layer_7">
</g>
<g id="Layer_8">
</g>
<g id="Layer_9">
</g>
<g id="Layer_10">
</g>
<g id="Layer_11">
</g>
<g id="Layer_12">
</g>
<g id="Layer_13">
</g>
<g id="Layer_14">
</g>
<g id="Layer_15">
</g>
</svg>
