<?xml version="1.0" encoding="utf-8"?>
<!-- Generator: Adobe Illustrator 27.8.1, SVG Export Plug-In . SVG Version: 6.00 Build 0)  -->
<svg version="1.1" id="Layer_1" xmlns="http://www.w3.org/2000/svg" xmlns:xlink="http://www.w3.org/1999/xlink" x="0px" y="0px"
	 viewBox="0 0 350 230" style="enable-background:new 0 0 350 230;" xml:space="preserve">
<style type="text/css">
	.st0{fill:#00C5D1;}
	.st1{fill:url(#XMLID_00000039124786429219449770000011281223679160232069_);}
	.st2{fill-rule:evenodd;clip-rule:evenodd;fill:#330068;}
	.st3{fill-rule:evenodd;clip-rule:evenodd;fill:#8800FF;}
	.st4{fill:#001A9C;}
	.st5{fill:#01FFF8;}
	.st6{fill:#83D110;}
	.st7{fill:#00FFE6;}
	.st8{fill:#4E007A;}
	.st9{fill:#FFC000;}
	.st10{fill:#FF0600;}
	.st11{fill:#190056;}
	.st12{fill:#4A00FF;}
	.st13{fill:#6A037F;}
	.st14{fill:#FBE800;}
	.st15{fill:#2D0087;}
	.st16{fill:#00F7D9;}
	.st17{fill:#AD6400;}
	.st18{fill:#001E68;}
	.st19{fill:#67501C;}
	.st20{fill:#677E00;}
	.st21{fill:#11E6CE;}
	.st22{fill:#004263;}
	.st23{fill:#FF6700;}
</style>
<g>
	<path class="st0" d="M218.44,81.72c-0.15-0.97-0.33-1.93-0.55-2.87c-3.64-16.17-16.19-28.95-32.22-32.94
		c-1.97-0.5-3.99-0.85-6.05-1.07c-1.52-0.16-3.06-0.24-4.62-0.24c-0.49,0-0.99,0.01-1.47,0.02c-1.95,0.06-3.86,0.25-5.73,0.56
		c-17.2,2.84-31.03,15.65-35.36,32.3c-0.24,0.89-0.44,1.79-0.62,2.71c-0.53,2.71-0.8,5.52-0.8,8.39c0,2.09,0.15,4.15,0.43,6.16
		c0.12,0.87,0.27,1.72,0.44,2.57c3.48,17.3,17.11,30.92,34.42,34.38c1.8,0.37,3.63,0.62,5.5,0.75c0.01,0,0.02,0,0.02,0
		c1.04,0.08,2.1,0.12,3.17,0.12c1.16,0,2.3-0.04,3.43-0.13c0.01,0,0.02,0,0.04-0.01c1.65-0.13,3.28-0.35,4.87-0.66
		c16.92-3.24,30.39-16.19,34.4-32.83c0.22-0.89,0.41-1.8,0.57-2.71c0.44-2.48,0.67-5.03,0.67-7.64
		C218.98,86.25,218.8,83.96,218.44,81.72z M214.75,101.4c-0.22,0.74-0.7,1.5-1.26,2.03c-3.09,2.93-6.76,4.63-11.04,4.85
		c-1.99,0.1-3.99,0.07-5.98,0.12c-2.53,0.06-2.5,0.07-2.56,2.55c-0.11,4-0.13,8.03-2.26,11.61c-0.87,1.45-1.87,2.85-2.99,4.11
		c-1.76,1.98-4.12,2.08-5.94,0.52c-1.39-1.19-1.76-4.58-0.23-6.23c3.73-4.03,3.94-9.29,0.93-13.55c-3.76-5.34-10.63-6.31-15.55-2.39
		c-4.9,3.89-5.61,10.76-1.58,15.66c1.76,2.13,1.6,4.55-0.41,6.2c-1.77,1.46-4.18,1.11-5.91-0.87c-2.91-3.36-4.5-7.24-4.58-11.71
		c-0.02-1.47-0.11-2.95,0.05-4.4c0.21-1.87-0.65-2.32-2.31-2.31c-2.05,0-4.11-0.16-6.15-0.32c-4.15-0.32-7.66-2.08-10.68-4.88
		c-2.04-1.89-2.27-4.27-0.63-6.04c1.67-1.81,4.24-1.82,6.26-0.02c5.56,4.96,14.45,2.97,17.36-3.88c1.96-4.61,0.6-9.59-3.46-12.72
		c-4.21-3.25-9.09-3.28-13.3-0.03c-1.27,0.98-2.48,1.69-4.18,1.25c-1.63-0.42-2.73-1.33-3.21-2.92c-0.49-1.63,0.06-3.02,1.27-4.14
		c3.22-2.96,7.03-4.65,11.42-4.83c2.16-0.09,4.34,0.06,6.5,0.24c1.45,0.13,2-0.37,2.03-1.83c0.06-2.69,0.06-5.4,0.43-8.06
		c0.49-3.54,2.38-6.47,4.81-9.03c1.81-1.9,4.08-1.97,5.92-0.27c1.8,1.67,1.84,3.94,0.09,5.94c-5.07,5.82-3.36,14.44,3.46,17.44
		c4.72,2.06,9.79,0.77,12.92-3.29c3.28-4.27,3.23-9.28,0.08-13.51c-0.73-0.98-1.1-2.4-1.19-3.66c-0.13-1.68,0.91-2.84,2.5-3.43
		c1.65-0.61,3.11-0.31,4.36,0.95c3.51,3.57,5.01,7.88,4.95,14.36c0,1.18,0.05,2.36-0.02,3.53c-0.07,1.23,0.44,1.61,1.65,1.63
		c2.86,0.04,5.75,0.04,8.59,0.39c3.75,0.46,6.79,2.49,9.4,5.13c1.45,1.48,1.4,3.92,0,5.44c-1.44,1.57-4.28,1.83-5.92,0.42
		c-2.11-1.82-4.41-3.09-7.26-3.14c-4.88-0.08-9.47,3.22-10.95,7.89c-1.4,4.41,0.45,9.29,4.6,12.11c3.86,2.63,9.15,2.32,12.94-0.75
		c1.88-1.52,3.47-1.74,5.15-0.71C214.41,97.81,215.27,99.7,214.75,101.4z"/>
	<path d="M153.8,82.78c-1.47-1.18-3.1-1.78-4.69-1.78c-1.54,0-3.04,0.55-4.36,1.65c-2.38,1.96-4.86,2.55-7.59,1.82
		c-1.9-0.52-3.4-1.56-4.53-3.15c-0.4,2.36-0.61,4.8-0.61,7.26c0,1.95,0.13,3.92,0.4,5.88c0.02,0.03,0.03,0.07,0.05,0.1
		c2.08-2.31,3.9-3.45,5.92-3.45c1.88,0,3.92,0.98,6.49,2.9c1.65,1.23,3.82,1.66,5.94,1.17s3.88-1.81,4.82-3.64
		C157.2,88.51,156.44,84.9,153.8,82.78z M181.38,59.44c-1.89-1.93-2.7-4.67-2.17-7.34c0.43-2.14,1.69-4,3.53-5.29
		c-1.12-0.44-2.23-0.77-3.32-0.99c-1.81-0.18-3.87-0.24-5.81-0.2c-1.46,0.2-2.9,0.58-4.37,1.14c1.85,1.47,2.96,3.23,3.24,5.17
		c0.33,2.26-0.48,4.64-2.35,6.88c-0.74,0.89-1.33,2.22-1.63,3.65c-0.68,3.2,1.09,6.33,4.41,7.78c2.76,1.21,6.31,0.19,8.26-2.36
		C183.25,65.15,183.34,61.44,181.38,59.44z M217.57,82.67c-1.68,2.02-3.33,3.12-5.09,3.41c-2.17,0.35-4.52-0.5-7.42-2.67
		c-1.23-0.92-2.7-1.39-4.19-1.39s-3.01,0.47-4.33,1.39c-2.49,1.74-3.63,4.91-2.77,7.71c0.74,2.46,2.51,4.27,4.83,4.97
		c2.35,0.71,4.85,0.16,6.86-1.49c2.68-2.21,5.33-2.72,7.89-1.51c1.29,0.61,2.4,1.58,3.48,2.51c0.16,0.14,0.32,0.28,0.48,0.42
		c0.01-0.02,0.02-0.05,0.03-0.07c0.43-2.42,0.64-4.9,0.64-7.37C217.98,86.59,217.84,84.6,217.57,82.67z M177.74,125.29
		c-0.35-2.23,0.48-4.58,2.63-7.42c0.91-1.2,1.38-2.64,1.38-4.11c0-1.35-0.4-2.74-1.19-3.99c-1.61-2.56-4.58-3.88-7.4-3.26
		c-2.56,0.55-4.58,2.34-5.4,4.77c-0.82,2.45-0.29,5.12,1.43,7.13c2.91,3.41,2.73,7.76-0.47,10.82c-0.34,0.33-0.71,0.63-1.08,0.91
		c1.16,0.6,2.65,1.05,4.31,1.31c2.27,0.16,4.36,0.14,6.32-0.01l0.03-0.01c1.1-0.18,2.1-0.47,2.97-0.85
		C179.17,128.87,178.04,127.17,177.74,125.29z M177.74,125.29c-0.35-2.23,0.48-4.58,2.63-7.42c0.91-1.2,1.38-2.64,1.38-4.11
		c0-1.35-0.4-2.74-1.19-3.99c-1.61-2.56-4.58-3.88-7.4-3.26c-2.56,0.55-4.58,2.34-5.4,4.77c-0.82,2.45-0.29,5.12,1.43,7.13
		c2.91,3.41,2.73,7.76-0.47,10.82c-0.34,0.33-0.71,0.63-1.08,0.91c1.16,0.6,2.65,1.05,4.31,1.31c2.27,0.16,4.36,0.14,6.32-0.01
		l0.03-0.01c1.1-0.18,2.1-0.47,2.97-0.85C179.17,128.87,178.04,127.17,177.74,125.29z M183.69,129.9c-2.45-1.7-3.71-3.27-3.98-4.92
		c-0.03-0.22-0.05-0.44-0.05-0.66c0-1.49,0.75-3.18,2.31-5.24c2.27-2.98,2.38-7.05,0.29-10.37c-2.06-3.28-5.89-4.95-9.52-4.16
		c-3.26,0.71-5.82,2.99-6.87,6.09c-1.05,3.13-0.38,6.51,1.8,9.07c2.21,2.59,2.08,5.76-0.34,8.08c-0.4,0.39-0.87,0.74-1.37,1.1
		c-0.24,0.18-0.48,0.35-0.71,0.53l-1.03,0.79l1.03,0.8c0.32,0.24,0.68,0.47,1.06,0.68c1.8,0.37,3.63,0.62,5.5,0.75
		c-2.37-0.37-4.52-1.14-5.95-2.23c0.74-0.57,1.52-1.07,2.17-1.7c2.82-2.7,2.97-6.44,0.4-9.45c-4.14-4.85-1.69-12.18,4.52-13.53
		c3.23-0.7,6.62,0.78,8.46,3.71c1.86,2.95,1.77,6.6-0.24,9.24c-3.85,5.07-3.32,8.58,1.95,12.24c-1.27,0.84-2.89,1.4-4.65,1.7
		c1.65-0.13,3.28-0.35,4.87-0.66l0.33-0.21l1.23-0.81L183.69,129.9z M177.74,125.29c-0.35-2.23,0.48-4.58,2.63-7.42
		c0.91-1.2,1.38-2.64,1.38-4.11c0-1.35-0.4-2.74-1.19-3.99c-1.61-2.56-4.58-3.88-7.4-3.26c-2.56,0.55-4.58,2.34-5.4,4.77
		c-0.82,2.45-0.29,5.12,1.43,7.13c2.91,3.41,2.73,7.76-0.47,10.82c-0.34,0.33-0.71,0.63-1.08,0.91c1.16,0.6,2.65,1.05,4.31,1.31
		c2.27,0.16,4.36,0.14,6.32-0.01l0.03-0.01c1.1-0.18,2.1-0.47,2.97-0.85C179.17,128.87,178.04,127.17,177.74,125.29z M217.57,82.67
		c-1.68,2.02-3.33,3.12-5.09,3.41c-2.17,0.35-4.52-0.5-7.42-2.67c-1.23-0.92-2.7-1.39-4.19-1.39s-3.01,0.47-4.33,1.39
		c-2.49,1.74-3.63,4.91-2.77,7.71c0.74,2.46,2.51,4.27,4.83,4.97c2.35,0.71,4.85,0.16,6.86-1.49c2.68-2.21,5.33-2.72,7.89-1.51
		c1.29,0.61,2.4,1.58,3.48,2.51c0.16,0.14,0.32,0.28,0.48,0.42c0.01-0.02,0.02-0.05,0.03-0.07c0.43-2.42,0.64-4.9,0.64-7.37
		C217.98,86.59,217.84,84.6,217.57,82.67z M217.57,82.67c-1.68,2.02-3.33,3.12-5.09,3.41c-2.17,0.35-4.52-0.5-7.42-2.67
		c-1.23-0.92-2.7-1.39-4.19-1.39s-3.01,0.47-4.33,1.39c-2.49,1.74-3.63,4.91-2.77,7.71c0.74,2.46,2.51,4.27,4.83,4.97
		c2.35,0.71,4.85,0.16,6.86-1.49c2.68-2.21,5.33-2.72,7.89-1.51c1.29,0.61,2.4,1.58,3.48,2.51c0.16,0.14,0.32,0.28,0.48,0.42
		c0.01-0.02,0.02-0.05,0.03-0.07c0.43-2.42,0.64-4.9,0.64-7.37C217.98,86.59,217.84,84.6,217.57,82.67z M212.92,93.99
		c-2.43-1.15-4.75-0.33-6.82,1.38c-4.76,3.92-11.51,1.89-13.29-3.96c-0.98-3.2,0.31-6.83,3.16-8.82c3-2.1,6.87-2.1,9.69,0.02
		c5.22,3.91,8.5,3.39,12.3-2.11c0.18,0.41,0.34,0.81,0.48,1.22c-0.15-0.97-0.33-1.93-0.55-2.87l-0.75,1.08
		c-1.79,2.58-3.37,3.91-4.99,4.17c-1.58,0.26-3.46-0.47-5.89-2.29c-3.15-2.37-7.52-2.38-10.86-0.04c-3.2,2.23-4.65,6.32-3.55,9.93
		c0.95,3.11,3.2,5.41,6.18,6.3c2.99,0.91,6.17,0.23,8.71-1.86c2.05-1.7,3.93-2.11,5.75-1.25c1.05,0.5,2.01,1.33,3.03,2.22
		c0.5,0.43,1,0.87,1.54,1.3l0.68,0.52c0.22-0.89,0.41-1.8,0.57-2.71c-0.18,0.47-0.4,0.94-0.63,1.4
		C216.01,96.31,214.63,94.8,212.92,93.99z M217.57,82.67c-1.68,2.02-3.33,3.12-5.09,3.41c-2.17,0.35-4.52-0.5-7.42-2.67
		c-1.23-0.92-2.7-1.39-4.19-1.39s-3.01,0.47-4.33,1.39c-2.49,1.74-3.63,4.91-2.77,7.71c0.74,2.46,2.51,4.27,4.83,4.97
		c2.35,0.71,4.85,0.16,6.86-1.49c2.68-2.21,5.33-2.72,7.89-1.51c1.29,0.61,2.4,1.58,3.48,2.51c0.16,0.14,0.32,0.28,0.48,0.42
		c0.01-0.02,0.02-0.05,0.03-0.07c0.43-2.42,0.64-4.9,0.64-7.37C217.98,86.59,217.84,84.6,217.57,82.67z M217.57,82.67
		c-1.68,2.02-3.33,3.12-5.09,3.41c-2.17,0.35-4.52-0.5-7.42-2.67c-1.23-0.92-2.7-1.39-4.19-1.39s-3.01,0.47-4.33,1.39
		c-2.49,1.74-3.63,4.91-2.77,7.71c0.74,2.46,2.51,4.27,4.83,4.97c2.35,0.71,4.85,0.16,6.86-1.49c2.68-2.21,5.33-2.72,7.89-1.51
		c1.29,0.61,2.4,1.58,3.48,2.51c0.16,0.14,0.32,0.28,0.48,0.42c0.01-0.02,0.02-0.05,0.03-0.07c0.43-2.42,0.64-4.9,0.64-7.37
		C217.98,86.59,217.84,84.6,217.57,82.67z M153.8,82.78c-1.47-1.18-3.1-1.78-4.69-1.78c-1.54,0-3.04,0.55-4.36,1.65
		c-2.38,1.96-4.86,2.55-7.59,1.82c-1.9-0.52-3.4-1.56-4.53-3.15c-0.4,2.36-0.61,4.8-0.61,7.26c0,1.95,0.13,3.92,0.4,5.88
		c0.02,0.03,0.03,0.07,0.05,0.1c2.08-2.31,3.9-3.45,5.92-3.45c1.88,0,3.92,0.98,6.49,2.9c1.65,1.23,3.82,1.66,5.94,1.17
		s3.88-1.81,4.82-3.64C157.2,88.51,156.44,84.9,153.8,82.78z M153.8,82.78c-1.47-1.18-3.1-1.78-4.69-1.78
		c-1.54,0-3.04,0.55-4.36,1.65c-2.38,1.96-4.86,2.55-7.59,1.82c-1.9-0.52-3.4-1.56-4.53-3.15c-0.4,2.36-0.61,4.8-0.61,7.26
		c0,1.95,0.13,3.92,0.4,5.88c0.02,0.03,0.03,0.07,0.05,0.1c2.08-2.31,3.9-3.45,5.92-3.45c1.88,0,3.92,0.98,6.49,2.9
		c1.65,1.23,3.82,1.66,5.94,1.17s3.88-1.81,4.82-3.64C157.2,88.51,156.44,84.9,153.8,82.78z M153.8,82.78
		c-1.47-1.18-3.1-1.78-4.69-1.78c-1.54,0-3.04,0.55-4.36,1.65c-2.38,1.96-4.86,2.55-7.59,1.82c-1.9-0.52-3.4-1.56-4.53-3.15
		c-0.4,2.36-0.61,4.8-0.61,7.26c0,1.95,0.13,3.92,0.4,5.88c0.02,0.03,0.03,0.07,0.05,0.1c2.08-2.31,3.9-3.45,5.92-3.45
		c1.88,0,3.92,0.98,6.49,2.9c1.65,1.23,3.82,1.66,5.94,1.17s3.88-1.81,4.82-3.64C157.2,88.51,156.44,84.9,153.8,82.78z M153.8,82.78
		c-1.47-1.18-3.1-1.78-4.69-1.78c-1.54,0-3.04,0.55-4.36,1.65c-2.38,1.96-4.86,2.55-7.59,1.82c-1.9-0.52-3.4-1.56-4.53-3.15
		c-0.4,2.36-0.61,4.8-0.61,7.26c0,1.95,0.13,3.92,0.4,5.88c0.02,0.03,0.03,0.07,0.05,0.1c2.08-2.31,3.9-3.45,5.92-3.45
		c1.88,0,3.92,0.98,6.49,2.9c1.65,1.23,3.82,1.66,5.94,1.17s3.88-1.81,4.82-3.64C157.2,88.51,156.44,84.9,153.8,82.78z
		 M155.06,81.22c-3.63-2.91-8.18-2.95-11.59-0.11c-1.86,1.53-3.7,1.99-5.79,1.43c-1.96-0.54-3.32-1.77-4.26-3.87l-0.7-1.56
		l-0.28,0.37c-0.24,0.89-0.44,1.79-0.62,2.71c0.21-0.4,0.44-0.77,0.69-1.11c1,2.23,2.53,3.77,4.91,4.42
		c2.56,0.69,4.7,0.02,6.69-1.62c3.06-2.55,7.09-2.47,10.32,0.12c3.01,2.42,3.87,6.55,2.1,10c-2.26,4.38-8.29,5.77-12.25,2.81
		c-5.27-3.93-7.82-3.62-11.94,1.45c-0.34-0.44-0.63-0.95-0.89-1.52c0.12,0.87,0.27,1.72,0.44,2.57l0.43,0.56l0.8-0.98
		c3.76-4.64,5.74-4.88,10.56-1.28c2.13,1.59,4.89,2.14,7.59,1.52c2.7-0.62,4.94-2.32,6.15-4.67c0.69-1.35,1.03-2.8,1.03-4.21
		C158.45,85.58,157.27,83,155.06,81.22z M132.47,94.56c2.08-2.31,3.9-3.45,5.92-3.45c1.88,0,3.92,0.98,6.49,2.9
		c1.65,1.23,3.82,1.66,5.94,1.17s3.88-1.81,4.82-3.64c1.56-3.03,0.8-6.64-1.84-8.76c-1.47-1.18-3.1-1.78-4.69-1.78
		c-1.54,0-3.04,0.55-4.36,1.65c-2.38,1.96-4.86,2.55-7.59,1.82c-1.9-0.52-3.4-1.56-4.53-3.15c-0.4,2.36-0.61,4.8-0.61,7.26
		c0,1.95,0.13,3.92,0.4,5.88C132.44,94.49,132.45,94.53,132.47,94.56z M153.8,82.78c-1.47-1.18-3.1-1.78-4.69-1.78
		c-1.54,0-3.04,0.55-4.36,1.65c-2.38,1.96-4.86,2.55-7.59,1.82c-1.9-0.52-3.4-1.56-4.53-3.15c-0.4,2.36-0.61,4.8-0.61,7.26
		c0,1.95,0.13,3.92,0.4,5.88c0.02,0.03,0.03,0.07,0.05,0.1c2.08-2.31,3.9-3.45,5.92-3.45c1.88,0,3.92,0.98,6.49,2.9
		c1.65,1.23,3.82,1.66,5.94,1.17s3.88-1.81,4.82-3.64C157.2,88.51,156.44,84.9,153.8,82.78z M153.8,82.78
		c-1.47-1.18-3.1-1.78-4.69-1.78c-1.54,0-3.04,0.55-4.36,1.65c-2.38,1.96-4.86,2.55-7.59,1.82c-1.9-0.52-3.4-1.56-4.53-3.15
		c-0.4,2.36-0.61,4.8-0.61,7.26c0,1.95,0.13,3.92,0.4,5.88c0.02,0.03,0.03,0.07,0.05,0.1c2.08-2.31,3.9-3.45,5.92-3.45
		c1.88,0,3.92,0.98,6.49,2.9c1.65,1.23,3.82,1.66,5.94,1.17s3.88-1.81,4.82-3.64C157.2,88.51,156.44,84.9,153.8,82.78z M153.8,82.78
		c-1.47-1.18-3.1-1.78-4.69-1.78c-1.54,0-3.04,0.55-4.36,1.65c-2.38,1.96-4.86,2.55-7.59,1.82c-1.9-0.52-3.4-1.56-4.53-3.15
		c-0.4,2.36-0.61,4.8-0.61,7.26c0,1.95,0.13,3.92,0.4,5.88c0.02,0.03,0.03,0.07,0.05,0.1c2.08-2.31,3.9-3.45,5.92-3.45
		c1.88,0,3.92,0.98,6.49,2.9c1.65,1.23,3.82,1.66,5.94,1.17s3.88-1.81,4.82-3.64C157.2,88.51,156.44,84.9,153.8,82.78z
		 M181.38,59.44c-1.89-1.93-2.7-4.67-2.17-7.34c0.43-2.14,1.69-4,3.53-5.29c-1.12-0.44-2.23-0.77-3.32-0.99
		c-1.81-0.18-3.87-0.24-5.81-0.2c-1.46,0.2-2.9,0.58-4.37,1.14c1.85,1.47,2.96,3.23,3.24,5.17c0.33,2.26-0.48,4.64-2.35,6.88
		c-0.74,0.89-1.33,2.22-1.63,3.65c-0.68,3.2,1.09,6.33,4.41,7.78c2.76,1.21,6.31,0.19,8.26-2.36
		C183.25,65.15,183.34,61.44,181.38,59.44z M181.38,59.44c-1.89-1.93-2.7-4.67-2.17-7.34c0.43-2.14,1.69-4,3.53-5.29
		c-1.12-0.44-2.23-0.77-3.32-0.99c-1.81-0.18-3.87-0.24-5.81-0.2c-1.46,0.2-2.9,0.58-4.37,1.14c1.85,1.47,2.96,3.23,3.24,5.17
		c0.33,2.26-0.48,4.64-2.35,6.88c-0.74,0.89-1.33,2.22-1.63,3.65c-0.68,3.2,1.09,6.33,4.41,7.78c2.76,1.21,6.31,0.19,8.26-2.36
		C183.25,65.15,183.34,61.44,181.38,59.44z M181.38,59.44c-1.89-1.93-2.7-4.67-2.17-7.34c0.43-2.14,1.69-4,3.53-5.29
		c-1.12-0.44-2.23-0.77-3.32-0.99c-1.81-0.18-3.87-0.24-5.81-0.2c-1.46,0.2-2.9,0.58-4.37,1.14c1.85,1.47,2.96,3.23,3.24,5.17
		c0.33,2.26-0.48,4.64-2.35,6.88c-0.74,0.89-1.33,2.22-1.63,3.65c-0.68,3.2,1.09,6.33,4.41,7.78c2.76,1.21,6.31,0.19,8.26-2.36
		C183.25,65.15,183.34,61.44,181.38,59.44z M185.39,47.62l2.03-0.86l-1.75-0.85c-1.97-0.5-3.99-0.85-6.05-1.07
		c1.77,0.36,3.56,0.98,5.38,1.86c-5.54,2.34-6.31,8.57-2.91,12.04c2.43,2.47,2.15,6.76-0.13,9.75c-2.23,2.92-6.27,4.06-9.45,2.67
		c-3.66-1.6-5.78-5.19-4.99-8.91c0.3-1.43,0.92-2.97,1.84-4.08c3.36-4.03,2.86-8.28-1.53-11.2c-0.14-0.09-0.27-0.21-0.57-0.45
		c2.11-0.99,4.19-1.62,6.27-1.9c-1.95,0.06-3.86,0.25-5.73,0.56c-0.32,0.14-0.65,0.28-0.97,0.43l-1.45,0.69l1.5,1.2
		c0.17,0.14,0.29,0.23,0.4,0.3c1.87,1.25,2.98,2.77,3.22,4.42c0.25,1.68-0.41,3.52-1.91,5.31c-1.28,1.55-1.83,3.49-2.05,4.51
		c-0.87,4.1,1.42,8.22,5.57,10.04c1.03,0.45,2.14,0.66,3.26,0.66c2.78,0,5.61-1.32,7.39-3.64c2.72-3.57,2.74-8.32,0.04-11.06
		c-1.42-1.46-2.03-3.53-1.63-5.54C181.6,50.35,183.14,48.57,185.39,47.62z M181.38,59.44c-1.89-1.93-2.7-4.67-2.17-7.34
		c0.43-2.14,1.69-4,3.53-5.29c-1.12-0.44-2.23-0.77-3.32-0.99c-1.81-0.18-3.87-0.24-5.81-0.2c-1.46,0.2-2.9,0.58-4.37,1.14
		c1.85,1.47,2.96,3.23,3.24,5.17c0.33,2.26-0.48,4.64-2.35,6.88c-0.74,0.89-1.33,2.22-1.63,3.65c-0.68,3.2,1.09,6.33,4.41,7.78
		c2.76,1.21,6.31,0.19,8.26-2.36C183.25,65.15,183.34,61.44,181.38,59.44z M181.38,59.44c-1.89-1.93-2.7-4.67-2.17-7.34
		c0.43-2.14,1.69-4,3.53-5.29c-1.12-0.44-2.23-0.77-3.32-0.99c-1.81-0.18-3.87-0.24-5.81-0.2c-1.46,0.2-2.9,0.58-4.37,1.14
		c1.85,1.47,2.96,3.23,3.24,5.17c0.33,2.26-0.48,4.64-2.35,6.88c-0.74,0.89-1.33,2.22-1.63,3.65c-0.68,3.2,1.09,6.33,4.41,7.78
		c2.76,1.21,6.31,0.19,8.26-2.36C183.25,65.15,183.34,61.44,181.38,59.44z M181.38,59.44c-1.89-1.93-2.7-4.67-2.17-7.34
		c0.43-2.14,1.69-4,3.53-5.29c-1.12-0.44-2.23-0.77-3.32-0.99c-1.81-0.18-3.87-0.24-5.81-0.2c-1.46,0.2-2.9,0.58-4.37,1.14
		c1.85,1.47,2.96,3.23,3.24,5.17c0.33,2.26-0.48,4.64-2.35,6.88c-0.74,0.89-1.33,2.22-1.63,3.65c-0.68,3.2,1.09,6.33,4.41,7.78
		c2.76,1.21,6.31,0.19,8.26-2.36C183.25,65.15,183.34,61.44,181.38,59.44z"/>
</g>
</svg>
