<?xml version="1.0" encoding="utf-8"?>
<!-- Generator: Adobe Illustrator 27.8.1, SVG Export Plug-In . SVG Version: 6.00 Build 0)  -->
<svg version="1.1" id="Layer_1" xmlns="http://www.w3.org/2000/svg" xmlns:xlink="http://www.w3.org/1999/xlink" x="0px" y="0px"
	 viewBox="0 0 350 230" style="enable-background:new 0 0 350 230;" xml:space="preserve">
<style type="text/css">
	.st0{fill:#00C5D1;}
	.st1{fill:url(#XMLID_00000179643277919242757380000017273610779036946578_);}
	.st2{fill-rule:evenodd;clip-rule:evenodd;fill:#330068;}
	.st3{fill-rule:evenodd;clip-rule:evenodd;fill:#8800FF;}
	.st4{fill:#001A9C;}
	.st5{fill:#01FFF8;}
	.st6{fill:#83D110;}
	.st7{fill:#00FFE6;}
	.st8{fill:#4E007A;}
	.st9{fill:#FFC000;}
	.st10{fill:#FF0600;}
	.st11{fill:#190056;}
	.st12{fill:#4A00FF;}
	.st13{fill:#6A037F;}
	.st14{fill:#FBE800;}
	.st15{fill:#2D0087;}
	.st16{fill:#00F7D9;}
	.st17{fill:#AD6400;}
	.st18{fill:#001E68;}
	.st19{fill:#67501C;}
	.st20{fill:#677E00;}
	.st21{fill:#11E6CE;}
	.st22{fill:#004263;}
	.st23{fill:#FF6700;}
</style>
<g>
	<path class="st13" d="M210.61,64.69l2.09-9.53c0,0-1.76,2.63-4.54,6.53c-8.21,11.52-25.39,34.17-32.86,33.33
		c-11.45-1.29-31.51-16.82-31.51-16.82s6.02-8.06,15.61-2.66c10.47,5.9,13.77,9.74,21.3,3.46c4.84-4.04,13.38-12.53,21.87-22.56
		c4.05-4.78,8.08-9.92,11.69-15.08c-0.26,0.23-8,6.87-15.19,12.61c-6.66-4.23-14.56-6.67-23.03-6.67
		c-23.77,0-43.03,19.27-43.03,43.03c0,5.02,0.86,9.84,2.44,14.32c0.31,0.89,0.65,1.76,1.03,2.62c0.23,0.53,0.46,1.05,0.71,1.57
		c-2.13,4.22-3.1,7.58-2.67,9.43c0.14,0.59,0.39,0.9,0.96,1.17c0.5,0.24,1.57,0.37,3.78-0.48c0,0-2.39-0.03-1.15-3.67
		c0.33-0.98,0.75-1.83,1.2-2.56c1.23,2.02,2.62,3.93,4.16,5.71c-3.56,2-6.69,3.12-8.56,2.23c-0.94-0.45-1.46-1.09-1.69-2.08
		c-0.54-2.33,0.62-5.96,2.49-9.78c-0.4-0.85-0.76-1.72-1.1-2.6c-3.5,6.54-5.86,13.91-0.63,16.41c2.74,1.31,6.61-0.02,10.99-2.53
		c3.95-2.27,8.33-5.51,12.65-8.66c8.82-6.43,14.79-11.92,17.62-11.09c6.8,2.02,26.08,14.19,26.08,14.19s-5.16,8.44-13.86,4.53
		c-9.87-4.43-12.55-5.71-12.55-5.71s-9.74,9.14-20.29,14.3c-6.63,3.24-13.58,4.92-18.65,1.77c0,0,6.56,9.42,22.89,0.37
		c5.27,2.31,11.09,3.58,17.21,3.58c23.77,0,43.03-19.27,43.03-43.03C219.08,80.72,215.94,71.85,210.61,64.69z M173.12,59.54
		c4.13,0,7.48,3.34,7.48,7.47c0,4.13-3.35,7.48-7.48,7.48c-4.13,0-7.48-3.34-7.48-7.48C165.65,62.88,169,59.54,173.12,59.54z"/>
</g>
</svg>
