<?xml version="1.0" encoding="utf-8"?>
<!-- Generator: Adobe Illustrator 27.8.1, SVG Export Plug-In . SVG Version: 6.00 Build 0)  -->
<svg version="1.1" id="Layer_1" xmlns="http://www.w3.org/2000/svg" xmlns:xlink="http://www.w3.org/1999/xlink" x="0px" y="0px"
	 viewBox="0 0 350 230" style="enable-background:new 0 0 350 230;" xml:space="preserve">
<style type="text/css">
	.st0{fill:#00C5D1;}
	.st1{fill:url(#XMLID_00000108309299259361716570000015244671556054856884_);}
	.st2{fill-rule:evenodd;clip-rule:evenodd;fill:#330068;}
	.st3{fill-rule:evenodd;clip-rule:evenodd;fill:#8800FF;}
	.st4{fill:#001A9C;}
	.st5{fill:#01FFF8;}
	.st6{fill:#83D110;}
	.st7{fill:#00FFE6;}
	.st8{fill:#4E007A;}
	.st9{fill:#FFC000;}
	.st10{fill:#FF0600;}
	.st11{fill:#190056;}
	.st12{fill:#4A00FF;}
	.st13{fill:#6A037F;}
	.st14{fill:#FBE800;}
	.st15{fill:#2D0087;}
	.st16{fill:#00F7D9;}
	.st17{fill:#AD6400;}
	.st18{fill:#001E68;}
	.st19{fill:#67501C;}
	.st20{fill:#677E00;}
	.st21{fill:#11E6CE;}
	.st22{fill:#004263;}
	.st23{fill:#FF6700;}
</style>
<path class="st14" d="M159.81,129.16c-3.73,0.3-6.79-0.95-8.86-4.11c-2.08-3.18-2.2-6.57-0.22-9.82
	c10.45-17.14,20.98-34.24,31.42-51.39c1.28-2.11,2.74-3.88,5.07-4.82c3.66-1.48,7.9-0.45,10.46,2.56c2.61,3.06,2.97,7.4,0.88,10.8
	c-10.47,17.1-20.96,34.18-31.38,51.31c-1.45,2.38-3.14,4.3-5.86,5.12C160.83,128.95,160.32,129.04,159.81,129.16z M214.81,42.09
	c-0.6-5.07-5.17-8.72-10.19-8.14c-5.13,0.6-8.76,5.14-8.17,10.23c0.59,5.11,5.15,8.72,10.26,8.12
	C211.76,51.71,215.4,47.12,214.81,42.09z"/>
<path class="st15" d="M178.93,141.81c-2.23,0.18-4.07-0.57-5.31-2.46c-1.25-1.9-1.32-3.94-0.13-5.88
	c6.26-10.26,12.56-20.5,18.81-30.77c0.77-1.26,1.64-2.32,3.03-2.89c2.19-0.89,4.73-0.27,6.26,1.53c1.56,1.83,1.78,4.43,0.53,6.46
	c-6.27,10.24-12.55,20.47-18.79,30.72c-0.87,1.42-1.88,2.57-3.51,3.07C179.54,141.69,179.23,141.74,178.93,141.81z M211.85,89.69
	c-0.36-3.03-3.1-5.22-6.1-4.87c-3.07,0.36-5.24,3.08-4.89,6.12c0.35,3.06,3.08,5.22,6.15,4.86
	C210.03,95.45,212.21,92.7,211.85,89.69z"/>
<path class="st15" d="M135.62,115.86c-2.23,0.18-4.07-0.57-5.31-2.46c-1.25-1.9-1.32-3.94-0.13-5.88
	c6.26-10.26,12.56-20.5,18.81-30.77c0.77-1.26,1.64-2.32,3.03-2.89c2.19-0.89,4.73-0.27,6.26,1.53c1.56,1.83,1.78,4.43,0.53,6.46
	c-6.27,10.24-12.55,20.47-18.79,30.72c-0.87,1.42-1.88,2.57-3.51,3.07C136.23,115.74,135.93,115.79,135.62,115.86z M168.55,63.74
	c-0.36-3.03-3.1-5.22-6.1-4.87c-3.07,0.36-5.24,3.08-4.89,6.12c0.35,3.06,3.08,5.22,6.15,4.86
	C166.73,69.5,168.91,66.75,168.55,63.74z"/>
</svg>
