<?xml version="1.0" encoding="utf-8"?>
<!-- Generator: Adobe Illustrator 27.8.1, SVG Export Plug-In . SVG Version: 6.00 Build 0)  -->
<svg version="1.1" id="Layer_1" xmlns="http://www.w3.org/2000/svg" xmlns:xlink="http://www.w3.org/1999/xlink" x="0px" y="0px"
	 viewBox="0 0 350 230" style="enable-background:new 0 0 350 230;" xml:space="preserve">
<style type="text/css">
	.st0{fill:#00C5D1;}
	.st1{fill:url(#XMLID_00000075880454156869340850000013893864330031635584_);}
	.st2{fill-rule:evenodd;clip-rule:evenodd;fill:#330068;}
	.st3{fill-rule:evenodd;clip-rule:evenodd;fill:#8800FF;}
	.st4{fill:#001A9C;}
	.st5{fill:#01FFF8;}
	.st6{fill:#83D110;}
	.st7{fill:#00FFE6;}
	.st8{fill:#4E007A;}
	.st9{fill:#FFC000;}
	.st10{fill:#FF0600;}
	.st11{fill:#190056;}
	.st12{fill:#4A00FF;}
	.st13{fill:#6A037F;}
	.st14{fill:#FBE800;}
	.st15{fill:#2D0087;}
	.st16{fill:#00F7D9;}
	.st17{fill:#AD6400;}
	.st18{fill:#001E68;}
	.st19{fill:#67501C;}
	.st20{fill:#677E00;}
	.st21{fill:#11E6CE;}
	.st22{fill:#004263;}
	.st23{fill:#FF6700;}
</style>
<g>
	<path class="st18" d="M189.95,49.24c4.93,0,9.8,0,14.7,0c0,11.67,0,23.29,0,34.96c-4.05,0.79-8.02,2.09-12.22,1.28
		c-0.74-0.14-1.46-0.35-2.18-0.58c-0.15-0.05-0.31-0.3-0.33-0.48c-0.05-0.43-0.01-0.88-0.01-1.32c0-11.15,0-22.29,0-33.44
		C189.91,49.54,189.93,49.42,189.95,49.24z M185.69,59.88c-4.93,0-9.8,0-14.7,0c0,8.3,0,16.57,0,24.87c1.07-0.34,2.09-0.71,3.14-1
		c2.37-0.66,4.76-0.87,7.07,0.2c1.46,0.68,2.94,0.63,4.49,0.38C185.69,76.15,185.69,68.01,185.69,59.88z M151.97,69.29
		c0,4.13,0.01,8.25-0.01,12.38c0,0.39,0.17,0.54,0.48,0.68c2.8,1.27,5.62,2.51,8.38,3.86c1.69,0.82,3.4,0.91,5.2,0.67
		c0.56-0.07,0.75-0.28,0.75-0.87c-0.02-5.51-0.01-11.02-0.02-16.52c0-0.22-0.02-0.44-0.03-0.68c-4.93,0-9.78,0-14.72,0
		C151.99,69.01,151.97,69.15,151.97,69.29z"/>
	<path class="st19" d="M185.75,107.14c1.85,2.02,3.68,4.02,5.5,6.01c0.62,0.68,1.25,1.35,1.87,2.04c1.08,1.21,1.16,2.71,0.24,3.9
		c-0.92,1.18-2.37,1.51-3.77,0.68c-0.89-0.53-1.66-1.26-2.42-1.97c-1.44-1.34-2.83-2.74-4.27-4.08c-0.18-0.17-0.52-0.16-0.79-0.23
		c0.07,0.25,0.07,0.57,0.24,0.74c1.74,1.78,3.51,3.54,5.27,5.31c0.8,0.8,0.91,1.85,0.3,2.86c-0.54,0.89-1.69,1.32-2.68,0.95
		c-0.38-0.15-0.77-0.36-1.07-0.63c-1.83-1.66-3.63-3.36-5.45-5.03c-0.34-0.31-0.7-0.6-1.09-0.84c-0.13-0.08-0.36,0.02-0.55,0.03
		c0.03,0.19,0.03,0.39,0.11,0.56c0.07,0.14,0.22,0.24,0.35,0.36c1.75,1.62,3.51,3.24,5.26,4.86c0.74,0.68,0.65,1.34-0.26,1.73
		c-0.96,0.41-1.95,0.61-2.98,0.34c0.08-0.62,0.22-1.2,0.22-1.77c0-2.16-1.35-3.74-3.47-4.12c-0.17-0.03-0.39-0.22-0.44-0.38
		c-0.63-1.88-3.36-3.81-5.58-3.2c-0.17,0.05-0.51-0.01-0.58-0.13c-0.91-1.68-2.47-2.16-4.2-2.32c-0.52-0.05-1.05-0.02-1.57,0
		c-0.53,0.02-0.87-0.13-1.12-0.67c-1.15-2.54-4.38-3.29-6.65-1.55c-0.38,0.29-0.63,0.29-1.04,0.08c-4.67-2.45-9.36-4.88-14.04-7.31
		c-0.14-0.07-0.29-0.13-0.61-0.28c0.5,1.02,0.9,1.91,1.36,2.76c4.07,7.67,9.97,13.49,17.71,17.45c15.78,8.06,34.07,5.22,47.02-6.73
		c2.62-2.42,4.8-5.2,6.75-8.17c0.11-0.17,0.3-0.36,0.49-0.41c2.26-0.53,4.52-1.04,6.89-1.58c-4.33,8.43-10.2,15.35-18.34,20.16
		c-11.58,6.84-23.95,8.58-36.86,4.9c-23.65-6.74-38.63-31.18-32.65-55.9c0.08,0.02,0.16,0.03,0.23,0.06
		c7.26,3.31,14.52,6.62,21.77,9.93c1.91,0.87,3.78,1.8,5.72,2.59c2.54,1.03,5.13,1,7.63-0.14c2.58-1.18,5.15-2.36,7.98-2.77
		c1.25-0.18,2.5-0.2,3.89,0.26c-0.48,0.15-0.83,0.25-1.18,0.36c-2.26,0.74-4.56,1.4-6.78,2.26c-1.9,0.73-3.4,2.05-4.48,3.8
		c-1.12,1.81-2.25,3.63-3.28,5.49c-0.49,0.89-0.64,1.9-0.19,2.91c0.74,1.61,2.19,2,3.74,2.07c2.75,0.11,5.03-1.05,7.07-2.79
		c0.32-0.27,0.66-0.52,0.94-0.84c1.79-2.01,4.16-2.13,6.59-2.03c0.79,0.03,1.4,0.41,1.93,1.03c1.11,1.31,2.26,2.59,3.44,3.83
		c3.56,3.73,7.15,7.43,10.71,11.15c1.17,1.22,1.26,2.21,0.37,3.24c-0.59,0.69-1.48,0.99-2.32,0.61c-0.65-0.29-1.3-0.7-1.8-1.21
		c-2.59-2.66-5.12-5.37-7.68-8.05C186.55,106.69,186.28,106.66,185.75,107.14z M206.33,49.07c0,0.2,0,0.41,0,0.61
		c0,1.68,0.04,3.35-0.01,5.03c-0.03,0.92,0.2,1.55,0.91,2.25c7.08,7.01,11.18,15.47,12.21,25.41c0.05,0.44-0.07,0.57-0.49,0.65
		c-5.36,1.07-10.71,2.18-16.07,3.24c-2.22,0.44-4.44,0.86-6.68,1.12c-1.9,0.22-3.83,0.16-5.65-0.54c-1.7-0.66-3.45-0.9-5.24-0.72
		c-4.61,0.48-8.92,2.05-13.14,3.88c-1.09,0.47-1.97,1.28-2.64,2.27c-0.9,1.33-1.81,2.67-2.62,4.06c-0.46,0.78-0.84,1.64-1.09,2.52
		c-0.23,0.81,0.17,1.3,0.99,1.54c1.15,0.33,2.29,0.21,3.41-0.12c1.48-0.44,2.73-1.24,3.84-2.31c1.22-1.19,2.44-2.43,4.17-2.81
		c1.66-0.36,3.36-0.52,5.05-0.19c1.05,0.2,1.91,0.7,2.54,1.6c0.29,0.41,0.62,0.8,0.96,1.16c2.99,3.22,5.99,6.45,9,9.66
		c1.36,1.45,2.75,2.87,4.14,4.32c0.33-0.25,0.61-0.45,0.89-0.67c2.51-1.96,5.25-3.43,8.42-4.03c1.96-0.37,3.9-0.78,5.85-1.22
		c1.98-0.45,3.95-0.97,5.93-1.41c0.47-0.11,0.7-0.33,0.87-0.76c1.52-3.84,2.52-7.81,2.97-11.91c1.06-9.87-0.69-19.19-5.47-27.91
		c-2.66-4.85-6.23-8.97-10.25-12.72c-0.81-0.75-1.72-1.39-2.58-2.08C206.44,49.01,206.39,49.04,206.33,49.07z M204.04,47.3
		c-13.48-8.29-27.72-10.1-42.67-4.52c-15,5.59-25.47,19.71-28.1,31.03c0.82,0.38,1.66,0.77,2.49,1.16c0.83,0.39,1.66,0.77,2.53,1.18
		c0.08-0.26,0.14-0.48,0.21-0.69c3.01-9.96,8.5-18.12,17.41-23.73c9.92-6.25,20.61-8.24,32.09-5.46c3.3,1.47,6.81,1.33,10.3,1.27
		c1.9-0.03,3.81-0.01,5.71-0.01C204.02,47.44,204.03,47.37,204.04,47.3z M169.26,123.98c-0.37-0.05-0.75-0.07-1.12-0.15
		c-1.43-0.31-2.2-1.78-1.53-3.09c0.82-1.6,2.03-2.88,3.71-3.61c1.27-0.56,3.54,0.5,3.97,1.8c0.18,0.55,0.04,1.04-0.33,1.46
		c-0.77,0.88-1.57,1.74-2.35,2.62C170.99,123.73,170.2,124,169.26,123.98z M161.96,115.56c-1.13,0.91-1.46,2.14-1.18,3.5
		c0.23,1.13,1.26,1.41,2.22,1.69c0.16,0.05,0.33,0.06,0.49,0.1c1.09,0.25,1.99-0.08,2.68-0.94c0.61-0.77,1.21-1.55,1.73-2.38
		c0.54-0.84,0.31-1.86-0.57-2.33c-0.68-0.36-1.47-0.52-2.21-0.78C163.93,114.58,162.87,114.83,161.96,115.56z M161.64,114.28
		c-0.01-1.47-1.35-2.95-2.69-2.96c-1.7-0.02-3.21,1.37-3.23,2.96c-0.01,1.39,1.15,2.51,2.59,2.52
		C160.03,116.8,161.65,115.57,161.64,114.28z M174.72,121.09c-0.79,0.72-1.53,1.49-2.27,2.26c-0.19,0.19-0.35,0.42-0.48,0.65
		c-0.24,0.43-0.14,0.77,0.27,1.09c1.63,1.26,3.86,1.08,5.21-0.47c0.71-0.82,0.86-1.76,0.41-2.75c-0.38-0.84-1.05-1.28-2.06-1.4
		C175.44,120.66,175.02,120.81,174.72,121.09z"/>
</g>
</svg>
