<?xml version="1.0" encoding="utf-8"?>
<!-- Generator: Adobe Illustrator 27.8.1, SVG Export Plug-In . SVG Version: 6.00 Build 0)  -->
<svg version="1.1" id="Layer_1" xmlns="http://www.w3.org/2000/svg" xmlns:xlink="http://www.w3.org/1999/xlink" x="0px" y="0px"
	 viewBox="0 0 350 230" style="enable-background:new 0 0 350 230;" xml:space="preserve">
<style type="text/css">
	.st0{fill:#00C5D1;}
	.st1{fill:url(#XMLID_00000098220275891613063680000011443006274714943147_);}
	.st2{fill-rule:evenodd;clip-rule:evenodd;fill:#330068;}
	.st3{fill-rule:evenodd;clip-rule:evenodd;fill:#8800FF;}
	.st4{fill:#001A9C;}
	.st5{fill:#01FFF8;}
	.st6{fill:#83D110;}
	.st7{fill:#00FFE6;}
	.st8{fill:#4E007A;}
	.st9{fill:#FFC000;}
	.st10{fill:#FF0600;}
	.st11{fill:#190056;}
	.st12{fill:#4A00FF;}
	.st13{fill:#6A037F;}
	.st14{fill:#FBE800;}
	.st15{fill:#2D0087;}
	.st16{fill:#00F7D9;}
	.st17{fill:#AD6400;}
	.st18{fill:#001E68;}
	.st19{fill:#67501C;}
	.st20{fill:#677E00;}
	.st21{fill:#11E6CE;}
	.st22{fill:#004263;}
	.st23{fill:#FF6700;}
</style>
<g>
	<path class="st16" d="M114.13,60.02c-1.42,1.04-2.87,2.06-4.27,3.12c-13.14,10-25.01,21.27-34.82,34.61
		c-4.6,6.26-8.55,12.91-11.15,20.27c-1.8,5.09-2.82,10.31-2.45,15.75c0.38,5.46,2.19,10.37,5.39,14.79c0.13,0.18,0.26,0.36,0.3,0.68
		c-0.22-0.14-0.45-0.25-0.65-0.41c-6.36-5.06-10.55-11.44-11.76-19.57c-0.81-5.46-0.12-10.81,1.55-16.04
		c2.7-8.46,7.36-15.82,13.05-22.54c10.14-11.97,22.32-21.3,36.61-27.8c2.62-1.19,5.36-2.14,8.04-3.2
		C114.03,59.79,114.08,59.91,114.13,60.02z"/>
	<path class="st17" d="M81.77,94.17c1.79,3.13,3.68,6.2,5.34,9.4c3.53,6.78,6.2,13.88,7.76,21.38c1.52,7.31,1.88,14.65,0.05,21.96
		c-2.68,10.72-9.38,17.99-19.41,22.35c-0.87,0.38-1.76,0.71-2.64,1.06c-0.04-0.07-0.08-0.15-0.12-0.22c0.8-0.62,1.6-1.25,2.41-1.86
		c9.03-6.76,13.1-15.9,12.98-27.05c-0.09-7.7-1.95-15.06-4.51-22.26c-2-5.63-4.46-11.06-7.51-16.2c-0.3-0.51-0.35-0.87,0.02-1.37
		c1.76-2.38,3.48-4.79,5.22-7.19C81.5,94.17,81.64,94.17,81.77,94.17z M65.27,91.34c1.81-2.39,3.55-4.69,5.43-7.19
		c-0.24-0.15-0.47-0.26-0.68-0.42c-2.97-2.32-5.84-4.78-8.93-6.92c-2.85-1.98-5.93-3.62-8.92-5.4c-0.37-0.22-0.73-0.43-1.06,0.1
		c-1.42,2.26-2.85,4.52-4.34,6.87C53.77,81.65,59.63,86.31,65.27,91.34z M68.82,64.26c-3.3,2.56-3.85,7-1.27,10.11
		c3.05,3.68,8.85,4.1,12.38,0.86c1.76-1.62,2.68-3.65,2.36-6.06c-0.51-3.93-3.92-6.72-7.24-6.73C72.2,62.43,70.4,63.04,68.82,64.26z
		"/>
</g>
</svg>
