<?xml version="1.0" encoding="utf-8"?>
<!-- Generator: Adobe Illustrator 27.8.1, SVG Export Plug-In . SVG Version: 6.00 Build 0)  -->
<svg version="1.1" id="Layer_1" xmlns="http://www.w3.org/2000/svg" xmlns:xlink="http://www.w3.org/1999/xlink" x="0px" y="0px"
	 viewBox="0 0 350 230" style="enable-background:new 0 0 350 230;" xml:space="preserve">
<style type="text/css">
	.st0{fill:#00C5D1;}
	.st1{fill:url(#XMLID_00000178197493477790697440000013126061699235034036_);}
	.st2{fill-rule:evenodd;clip-rule:evenodd;fill:#330068;}
	.st3{fill-rule:evenodd;clip-rule:evenodd;fill:#8800FF;}
	.st4{fill:#001A9C;}
	.st5{fill:#01FFF8;}
	.st6{fill:#83D110;}
	.st7{fill:#00FFE6;}
	.st8{fill:#4E007A;}
	.st9{fill:#FFC000;}
	.st10{fill:#FF0600;}
	.st11{fill:#190056;}
	.st12{fill:#4A00FF;}
	.st13{fill:#6A037F;}
	.st14{fill:#FBE800;}
	.st15{fill:#2D0087;}
	.st16{fill:#00F7D9;}
	.st17{fill:#AD6400;}
	.st18{fill:#001E68;}
	.st19{fill:#67501C;}
	.st20{fill:#677E00;}
	.st21{fill:#11E6CE;}
	.st22{fill:#004263;}
	.st23{fill:#FF6700;}
</style>
<g>
	<path class="st22" d="M218.63,75.68c-0.55-0.48-1.1-0.97-1.69-1.49c7.61-4.35,10.3-10.61,7.6-17.36
		c-2.38-5.92-9.02-9.26-15.25-7.66c-3.17,0.82-5.71,2.6-7.52,5.29c-3.01,4.49-2.88,9.23-0.52,14.16c-7.9-0.27-14.57,2.43-20.89,6.13
		c-3.78,2.22-7.45,4.64-11.1,7.07c-6.25,4.17-12.47,8.38-20.08,10.79c0.94,0.89,1.55,1.65,2.32,2.18c4.62,3.19,9.51,3.59,14.33,0.7
		c4.72-2.82,9.11-6.18,13.85-8.96c4.55-2.66,9.14-5.51,14.08-7.18c13.66-4.59,27.77,7.08,25.95,22.3
		c-1.45,12.1-11.82,17.93-23.17,13.44c-1.23-0.49-2.39-1.14-3.65-1.55c-4.45-1.46-8.67-1.1-12.62,1.68
		c2.79,3.61,8.41,7.35,13.88,9.33c15.27,5.53,30.94-2.55,34.51-18.16C231.43,94.32,227.95,83.97,218.63,75.68z M212.89,63.68
		c-2.54,0-4.6-2.06-4.6-4.6c0-2.54,2.06-4.6,4.6-4.6c2.54,0,4.59,2.06,4.59,4.6C217.48,61.62,215.43,63.68,212.89,63.68z"/>
	<path class="st23" d="M197.12,98.71c-4.38-2.41-8.85-2.44-13.11,0.2c-6.68,4.15-13.2,8.56-19.9,12.68
		c-3.57,2.2-7.44,3.81-11.69,4.25c-13.43,1.4-24.55-10.91-22.02-24.34c1.78-9.38,8.83-14.74,18.18-13.5c2.49,0.34,4.93,1.4,7.3,2.38
		c4.95,2.05,10.83,1.48,13.75-1.61c-3.43-3.54-7.39-6.27-11.92-8.23c-4.51-1.95-9.24-2.67-14.31-2.37
		c3.88-5.84,4.06-11.21,0.71-15.59c-3.25-4.25-8.67-5.91-13.63-4.18c-4.94,1.72-8.17,6.29-8.13,11.49
		c0.06,5.73,3.42,9.82,10.12,12.03c-6.94,4.79-10.69,11.19-11.78,19.21c-2.91,21.59,17.51,40.18,38.96,33.05
		c8.04-2.67,14.81-7.62,21.86-12.1c5.21-3.31,10.72-6.17,16.11-9.19c0.88-0.49,1.88-0.75,3.3-1.31
		C199.41,100.42,198.36,99.39,197.12,98.71z M129.32,59.08c0-2.54,2.06-4.6,4.6-4.6c2.54,0,4.6,2.06,4.6,4.6
		c0,2.54-2.06,4.6-4.6,4.6C131.38,63.68,129.32,61.62,129.32,59.08z"/>
</g>
</svg>
