<?xml version="1.0" encoding="utf-8"?>
<!-- Generator: Adobe Illustrator 27.8.1, SVG Export Plug-In . SVG Version: 6.00 Build 0)  -->
<svg version="1.1" id="Layer_1" xmlns="http://www.w3.org/2000/svg" xmlns:xlink="http://www.w3.org/1999/xlink" x="0px" y="0px"
	 viewBox="0 0 350 230" style="enable-background:new 0 0 350 230;" xml:space="preserve">
<style type="text/css">
	.st0{fill:#00C5D1;}
	.st1{fill:url(#XMLID_00000011031858292643366160000014649448032888129172_);}
	.st2{fill-rule:evenodd;clip-rule:evenodd;fill:#330068;}
	.st3{fill-rule:evenodd;clip-rule:evenodd;fill:#8800FF;}
	.st4{fill:#001A9C;}
	.st5{fill:#01FFF8;}
	.st6{fill:#83D110;}
	.st7{fill:#00FFE6;}
	.st8{fill:#4E007A;}
	.st9{fill:#FFC000;}
	.st10{fill:#FF0600;}
	.st11{fill:#190056;}
	.st12{fill:#4A00FF;}
	.st13{fill:#6A037F;}
	.st14{fill:#FBE800;}
	.st15{fill:#2D0087;}
	.st16{fill:#00F7D9;}
	.st17{fill:#AD6400;}
	.st18{fill:#001E68;}
	.st19{fill:#67501C;}
	.st20{fill:#677E00;}
	.st21{fill:#11E6CE;}
	.st22{fill:#004263;}
	.st23{fill:#FF6700;}
</style>
<g>
	
		<linearGradient id="XMLID_00000085246754225013214840000012939663286534700715_" gradientUnits="userSpaceOnUse" x1="145.2493" y1="89.8565" x2="204.7511" y2="89.8565">
		<stop  offset="0" style="stop-color:#1273FF"/>
		<stop  offset="0.4231" style="stop-color:#7C86FF"/>
		<stop  offset="0.8219" style="stop-color:#DA97FF"/>
		<stop  offset="1" style="stop-color:#FF9EFF"/>
	</linearGradient>
	<path id="XMLID_1614_" style="fill:url(#XMLID_00000085246754225013214840000012939663286534700715_);" d="M188.36,118.28
		c-2.61,1.22-5.46,1.83-8.55,1.83c-2.91,0-5.58-0.47-8.02-1.43c-2.44-0.95-4.54-2.32-6.32-4.1c-1.78-1.78-3.16-3.89-4.14-6.32
		c-0.98-2.43-1.47-5.14-1.47-8.11c0-2.97,0.49-5.67,1.47-8.11c0.98-2.43,2.36-4.54,4.14-6.32c1.78-1.78,3.89-3.15,6.32-4.1
		c2.43-0.95,5.11-1.43,8.02-1.43c3.09,0,5.94,0.61,8.55,1.83c2.61,1.22,4.99,3.04,7.13,5.48l9.26-8.55c-2.97-3.62-6.64-6.37-11-8.24
		c-4.36-1.87-9.25-2.81-14.65-2.81c-4.87,0-9.35,0.79-13.45,2.36c-4.1,1.57-7.68,3.82-10.73,6.73c-3.06,2.91-5.43,6.32-7.13,10.24
		c-1.69,3.92-2.54,8.23-2.54,12.92c0,4.69,0.85,9,2.54,12.92c1.64,3.81,3.92,7.14,6.82,9.99l-2.99,19.17l17.59-11.05
		c3.09,0.81,6.36,1.21,9.8,1.21c5.46,0,10.38-0.95,14.74-2.85c4.36-1.9,8.03-4.66,11-8.28l-9.26-8.55
		C193.35,115.2,190.97,117.06,188.36,118.28z M175,37.48c4.88,0,8.84,3.96,8.84,8.84s-3.96,8.84-8.84,8.84s-8.84-3.96-8.84-8.84
		S170.12,37.48,175,37.48z"/>
	<path d="M166.42,122.88c1.89,1.15,0.24,4.05-1.69,2.98c-3.78-2.11-6.59-5.05-8.55-7.69c-8.69-11.7-6.71-30.71,4.09-39.11
		c18.95-14.75,40.81,2.91,41.02,3.08l-1.16,1.07c-0.2-0.17-20.95-17.09-39.03-3.02c-9.95,7.75-11.9,25.88-4.03,36.83
		c0.14,0.19,0.32,0.36,0.52,0.48L166.42,122.88z M174.9,41.83c-2.48,0-4.49,2.01-4.49,4.49c0,2.48,2.01,4.49,4.49,4.49
		c2.48,0,4.49-2.01,4.49-4.49C179.4,43.84,177.39,41.83,174.9,41.83z"/>
</g>
</svg>
