<?xml version="1.0" encoding="utf-8"?>
<!-- Generator: Adobe Illustrator 27.8.1, SVG Export Plug-In . SVG Version: 6.00 Build 0)  -->
<svg version="1.1" id="Layer_1" xmlns="http://www.w3.org/2000/svg" xmlns:xlink="http://www.w3.org/1999/xlink" x="0px" y="0px"
	 viewBox="0 0 350 230" style="enable-background:new 0 0 350 230;" xml:space="preserve">
<style type="text/css">
	.st0{fill:#00C5D1;}
	.st1{fill:url(#XMLID_00000170966382562935118590000016245637996154806935_);}
	.st2{fill-rule:evenodd;clip-rule:evenodd;fill:#330068;}
	.st3{fill-rule:evenodd;clip-rule:evenodd;fill:#8800FF;}
	.st4{fill:#001A9C;}
	.st5{fill:#01FFF8;}
	.st6{fill:#83D110;}
	.st7{fill:#00FFE6;}
	.st8{fill:#4E007A;}
	.st9{fill:#FFC000;}
	.st10{fill:#FF0600;}
	.st11{fill:#190056;}
	.st12{fill:#4A00FF;}
	.st13{fill:#6A037F;}
	.st14{fill:#FBE800;}
	.st15{fill:#2D0087;}
	.st16{fill:#00F7D9;}
	.st17{fill:#AD6400;}
	.st18{fill:#001E68;}
	.st19{fill:#67501C;}
	.st20{fill:#677E00;}
	.st21{fill:#11E6CE;}
	.st22{fill:#004263;}
	.st23{fill:#FF6700;}
</style>
<g>
	<path class="st2" d="M197.49,58.83c-1.4-0.4-2.87-0.61-4.39-0.61h-45.95v31.09c0,5.94,1.69,11.51,4.61,16.24
		c-9.36-5.37-15.7-15.48-15.7-26.99V47.48h45.95C189.24,47.48,195.4,52.27,197.49,58.83"/>
	<path class="st3" d="M199.43,62.63h14.51v45.95c0,8.93-7.3,16.23-16.23,16.23h-45.95v-19.25c2.76,1.77,5.82,3.11,9.07,3.94V83.36
		c0-0.01,0-0.01,0-0.02c0-1.02,0.78-1.86,1.8-1.86h12.6v28.96h4.95V73.97c0-0.01,0-0.01,0-0.02c0-1.02,0.78-1.86,1.8-1.86h12.6
		v38.36h4.95V64.5C199.54,63.87,199.5,63.24,199.43,62.63 M168.22,63.54c-0.64-2.03-2.55-3.51-4.78-3.51h-14.19v9.6
		c0,3.55,1.96,6.67,4.85,8.33c-0.9-1.46-1.42-3.18-1.42-5.02v-9.6h14.19C167.34,63.36,167.79,63.42,168.22,63.54"/>
</g>
</svg>
