<?xml version="1.0" encoding="utf-8"?>
<!-- Generator: Adobe Illustrator 27.8.1, SVG Export Plug-In . SVG Version: 6.00 Build 0)  -->
<svg version="1.1" id="Layer_1" xmlns="http://www.w3.org/2000/svg" xmlns:xlink="http://www.w3.org/1999/xlink" x="0px" y="0px"
	 viewBox="0 0 350 230" style="enable-background:new 0 0 350 230;" xml:space="preserve">
<style type="text/css">
	.st0{fill:#00C5D1;}
	.st1{fill:url(#XMLID_00000146464439846929599990000002978055614529155726_);}
	.st2{fill-rule:evenodd;clip-rule:evenodd;fill:#330068;}
	.st3{fill-rule:evenodd;clip-rule:evenodd;fill:#8800FF;}
	.st4{fill:#001A9C;}
	.st5{fill:#01FFF8;}
	.st6{fill:#83D110;}
	.st7{fill:#00FFE6;}
	.st8{fill:#4E007A;}
	.st9{fill:#FFC000;}
	.st10{fill:#FF0600;}
	.st11{fill:#190056;}
	.st12{fill:#4A00FF;}
	.st13{fill:#6A037F;}
	.st14{fill:#FBE800;}
	.st15{fill:#2D0087;}
	.st16{fill:#00F7D9;}
	.st17{fill:#AD6400;}
	.st18{fill:#001E68;}
	.st19{fill:#67501C;}
	.st20{fill:#677E00;}
	.st21{fill:#11E6CE;}
	.st22{fill:#004263;}
	.st23{fill:#FF6700;}
</style>
<g>
	<path class="st4" d="M85.68,124.62c12.36-1.24,24.6-2.79,36.51-6.23c3.84-1.11,7.7-2.21,11.12-4.4c8.1-5.18,13.57-16.24,9.74-27.78
		c-4.42-13.34-9.2-26.52-14.53-39.51c-0.07-0.17-0.13-0.34,0-0.63c0.44,0.72,0.89,1.42,1.31,2.15c6.17,10.79,12.3,21.6,18.53,32.36
		c4.82,8.32,9.59,16.68,14.73,24.81c1.79,2.83,4.41,5.21,6.98,7.42c2.73,2.35,6.43,1.71,8.86-1.02c1.99-2.24,4.16-4.33,6-6.68
		c1.37-1.74,2.37-3.77,3.49-5.7c8.56-14.74,17.11-29.48,25.66-44.23c1.27-2.19,2.53-4.39,4-6.49c-0.2,0.41-0.39,0.83-0.59,1.24
		c-4.95,10.56-9.34,21.34-12.21,32.68c-1.02,4.02-2.1,8.06-1.89,12.26c0.5,9.76,6.92,18.64,15.71,21.37
		c3.91,1.22,7.97,2.03,12.01,2.76c8.85,1.6,17.72,3.04,26.59,4.52c2.19,0.37,4.4,0.64,6.6,1.08
		C204.77,124.62,145.23,124.62,85.68,124.62z"/>
	<path class="st5" d="M139.22,98.04c-0.14,6.5-5.38,11.43-11.99,11.27c-6.36-0.15-11.46-5.59-11.3-12.06
		c0.15-6.17,5.52-11.29,11.71-11.14C134.19,86.27,139.36,91.59,139.22,98.04z M220.61,86.52c-6.5-0.07-11.81,5.13-11.86,11.61
		c-0.05,6.34,5.1,11.49,11.52,11.5c6.51,0.01,11.7-5.09,11.74-11.56C232.05,91.6,227.11,86.59,220.61,86.52z"/>
</g>
</svg>
