<?xml version="1.0" encoding="utf-8"?>
<!-- Generator: Adobe Illustrator 27.8.1, SVG Export Plug-In . SVG Version: 6.00 Build 0)  -->
<svg version="1.1" id="Layer_1" xmlns="http://www.w3.org/2000/svg" xmlns:xlink="http://www.w3.org/1999/xlink" x="0px" y="0px"
	 viewBox="0 0 350 230" style="enable-background:new 0 0 350 230;" xml:space="preserve">
<style type="text/css">
	.st0{fill:#00C5D1;}
	.st1{fill:url(#XMLID_00000126310738865422839440000016338977329166255010_);}
	.st2{fill-rule:evenodd;clip-rule:evenodd;fill:#330068;}
	.st3{fill-rule:evenodd;clip-rule:evenodd;fill:#8800FF;}
	.st4{fill:#001A9C;}
	.st5{fill:#01FFF8;}
	.st6{fill:#83D110;}
	.st7{fill:#00FFE6;}
	.st8{fill:#4E007A;}
	.st9{fill:#FFC000;}
	.st10{fill:#FF0600;}
	.st11{fill:#190056;}
	.st12{fill:#4A00FF;}
	.st13{fill:#6A037F;}
	.st14{fill:#FBE800;}
	.st15{fill:#2D0087;}
	.st16{fill:#00F7D9;}
	.st17{fill:#AD6400;}
	.st18{fill:#001E68;}
	.st19{fill:#67501C;}
	.st20{fill:#677E00;}
	.st21{fill:#11E6CE;}
	.st22{fill:#004263;}
	.st23{fill:#FF6700;}
</style>
<g>
	<path class="st6" d="M132.41,137.28c0-1.89,0-3.76,0-5.75c11.13,0,22.19,0,33.38,0c0.03-0.58,0.07-1.04,0.07-1.49
		c0-12.07,0.15-24.14-0.05-36.21c-0.11-6.25-2.67-11.78-6.64-16.56c-6.8-8.17-15.61-11.88-26.22-11.33
		c-0.27,0.01-0.54,0.03-0.95,0.05c-0.11-0.95-0.23-1.87-0.33-2.79c-0.1-0.93-0.18-1.87-0.28-2.92c0.55-0.08,1.04-0.18,1.53-0.21
		c19.39-1.26,36.43,12.89,38.75,32.18c0.05,0.43,0.07,0.86,0.07,1.29c0,14.23,0,28.46,0,42.7c0,0.31,0,0.62,0,1.04
		C158.61,137.28,145.55,137.28,132.41,137.28z M184.19,130.19c0-12.15,0-24.3,0-36.45c0-0.43,0.02-0.87,0.07-1.29
		c1.71-13.63,13.17-24.94,26.79-26.34c2.28-0.23,4.61-0.03,7-0.03c0.21-2.06,0.41-3.91,0.61-5.83c-0.7-0.07-1.24-0.17-1.78-0.19
		c-12.02-0.44-22.14,3.72-29.99,12.85c-5.65,6.56-8.6,14.25-8.57,23.01c0.04,13.37,0.01,26.73,0.01,40.1c0,0.42,0.04,0.83,0.05,1.26
		c13.15,0,26.18,0,39.23,0c0-1.95,0-3.81,0-5.77c-11.13,0-22.16,0-33.36,0C184.23,130.96,184.19,130.58,184.19,130.19z"/>
	<path d="M174.83,33c9.91-0.18,18.15,7.87,18.3,17.87c0.15,9.83-7.87,18.15-17.63,18.31c-10.15,0.16-18.4-7.7-18.59-17.7
		C156.73,41.39,164.68,33.18,174.83,33z M130.75,81.25c-0.18-1.93-0.36-3.75-0.57-5.93c2.02,0.11,3.94,0.06,5.8,0.36
		c10.4,1.64,18.31,9.87,19.62,20.29c0.03,0.23,0.04,0.47,0.04,0.71c0,8.06,0,16.11,0,24.17c0,0.27-0.03,0.54-0.05,0.9
		c-1.91,0-3.77,0-5.83,0c0-0.49,0-0.99,0-1.48c0-7.23-0.16-14.47,0.05-21.69c0.18-6.37-4.13-13.69-11.36-16.17
		c-2.01-0.69-4.21-0.79-6.33-1.14C131.7,81.19,131.27,81.25,130.75,81.25z M200.29,120.4c0-7.63,0-15.25,0-22.88
		c0-0.47-0.01-0.95,0.05-1.41c1.03-7.07,6.59-13.03,13.59-14.44c1.71-0.35,3.49-0.4,5.36-0.61c0.16-1.77,0.34-3.62,0.52-5.54
		c-2.73-0.3-5.25-0.04-7.74,0.56c-10.32,2.5-17.66,11.83-17.65,22.42c0,7.31,0,14.62,0,21.93c0,0.42,0,0.84,0,1.32
		c1.98,0,3.82,0,5.87,0C200.29,121.25,200.29,120.82,200.29,120.4z"/>
</g>
</svg>
