<?xml version="1.0" encoding="utf-8"?>
<!-- Generator: Adobe Illustrator 27.8.1, SVG Export Plug-In . SVG Version: 6.00 Build 0)  -->
<svg version="1.1" id="Layer_1" xmlns="http://www.w3.org/2000/svg" xmlns:xlink="http://www.w3.org/1999/xlink" x="0px" y="0px"
	 viewBox="0 0 350 230" style="enable-background:new 0 0 350 230;" xml:space="preserve">
<style type="text/css">
	.st0{fill:#00C5D1;}
	.st1{fill:url(#XMLID_00000052788000605424331520000001409918063985802892_);}
	.st2{fill-rule:evenodd;clip-rule:evenodd;fill:#330068;}
	.st3{fill-rule:evenodd;clip-rule:evenodd;fill:#8800FF;}
	.st4{fill:#001A9C;}
	.st5{fill:#01FFF8;}
	.st6{fill:#83D110;}
	.st7{fill:#00FFE6;}
	.st8{fill:#4E007A;}
	.st9{fill:#FFC000;}
	.st10{fill:#FF0600;}
	.st11{fill:#190056;}
	.st12{fill:#4A00FF;}
	.st13{fill:#6A037F;}
	.st14{fill:#FBE800;}
	.st15{fill:#2D0087;}
	.st16{fill:#00F7D9;}
	.st17{fill:#AD6400;}
	.st18{fill:#001E68;}
	.st19{fill:#67501C;}
	.st20{fill:#677E00;}
	.st21{fill:#11E6CE;}
	.st22{fill:#004263;}
	.st23{fill:#FF6700;}
</style>
<g>
	<path class="st7" d="M225.56,39.26v1.12c0,14.75,0.01,29.5,0,44.25c-0.01,13.19-7.97,24.58-20.35,29.12
		c-0.2,0.07-0.39,0.16-0.63,0.26c-0.2,0.08-0.29,0.31-0.2,0.5c2.72,6.25,5.43,12.45,8.26,18.92c0.14,0.32-0.19,0.65-0.51,0.5
		c-1.57-0.7-2.97-1.33-4.37-1.97c-11.76-5.39-23.52-10.79-35.28-16.15c-0.51-0.23-1.14-0.29-1.71-0.29
		c-5.59-0.03-11.19,0.05-16.78-0.04c-5.27-0.09-10.15-1.64-14.67-4.34h-0.01c-0.19-0.12-0.23-0.37-0.1-0.55
		c1.1-1.42,2.14-2.89,3.27-4.28c0.11-0.15,0.32-0.19,0.48-0.1c4.07,2.26,8.42,3.32,13.11,3.25c5.28-0.08,10.56-0.04,15.84,0.01
		c0.86,0.01,1.79,0.2,2.58,0.56c8.51,3.85,16.99,7.75,25.49,11.63c0.04,0.02,0.08,0.04,0.12,0.06c0.32,0.13,0.64-0.19,0.51-0.51
		c-1.65-3.78-3.21-7.36-4.79-10.99c-0.1-0.23,0.03-0.48,0.27-0.53c1.74-0.36,3.44-0.64,5.07-1.12c9.97-2.95,15.94-9.58,17.92-19.77
		c0.3-1.52,0.39-3.1,0.4-4.66c0.03-12.64,0.01-25.27,0.05-37.91c0.01-1.11-0.38-1.38-1.43-1.38c-21.83,0.03-43.66,0.03-65.49,0
		c-0.97,0-1.27,0.28-1.26,1.26c0.03,11.19,0.03,22.38-0.01,33.57c0,1.1,0.4,1.29,1.36,1.29c5.17-0.02,10.33,0.02,15.49,0.04
		c0.07,0,0.14,0,0.22,0.01c0.21,0.02,0.37,0.2,0.35,0.41c-0.29,3.67-0.59,7.32-0.9,11.18c-0.02,0.31,0.31,0.52,0.57,0.37
		c0.24-0.13,0.43-0.24,0.62-0.37c5.45-3.72,10.91-7.45,16.38-11.16c0.39-0.26,0.91-0.48,1.37-0.48c9.16-0.02,18.31,0,27.47,0
		c1.76,0,1.76,0,1.76,1.81v3.84c0,0.22-0.18,0.39-0.4,0.39c-1.21-0.03-2.36,0.12-3.52,0.02c-1.14-0.1-2.29-0.11-3.43-0.03
		c-0.08,0.01-0.16,0.01-0.24,0.01c-6.38,0.03-12.76,0-19.13,0.05c-0.76,0.01-1.62,0.29-2.25,0.71c-8.58,5.81-17.13,11.66-25.69,17.5
		c0,0-0.01,0.01-0.02,0.01c-0.27,0.18-0.62-0.03-0.59-0.35c0.46-5.85,0.92-11.59,1.39-17.43c0.01-0.22-0.15-0.41-0.37-0.42
		c-0.37-0.02-0.68-0.04-0.99-0.04c-4.73,0-9.47-0.02-14.2,0.02c-0.94,0.01-1.3-0.22-1.29-1.23c0.02-11.7,0-23.39,0.03-35.09
		c0-0.36,0.08-4.8,0.07-5.9v-5.58c0-0.22,0.18-0.39,0.39-0.39h79.39C225.39,38.87,225.56,39.04,225.56,39.26z"/>
	<path class="st8" d="M134.79,107.88c-7.53-6.97-11.17-15.6-10.2-25.87c1.05-11.11,6.86-19.19,16.69-24.64
		c0.26-0.14,0.57,0.05,0.57,0.34c0,2.12,0.02,4.06-0.04,6c-0.01,0.32-0.43,0.69-0.75,0.93c-6.91,5.06-10.55,11.87-10.54,20.43
		c0.01,7.22,2.96,13.24,8.25,18.13c0.03,0.03,0.06,0.05,0.09,0.08c0.15,0.14,0.17,0.37,0.04,0.53c-1.14,1.4-2.32,2.75-3.57,4.05
		C135.19,108.01,134.94,108.02,134.79,107.88z M154.61,48.81v28.26h13.94L154.61,48.81z"/>
</g>
</svg>
