<?xml version="1.0" encoding="utf-8"?>
<!-- Generator: Adobe Illustrator 27.8.1, SVG Export Plug-In . SVG Version: 6.00 Build 0)  -->
<svg version="1.1" id="Layer_1" xmlns="http://www.w3.org/2000/svg" xmlns:xlink="http://www.w3.org/1999/xlink" x="0px" y="0px"
	 viewBox="0 0 350 230" style="enable-background:new 0 0 350 230;" xml:space="preserve">
<style type="text/css">
	.st0{fill:#00C5D1;}
	.st1{fill:url(#XMLID_00000057852167712265384440000011754358478868459926_);}
	.st2{fill-rule:evenodd;clip-rule:evenodd;fill:#330068;}
	.st3{fill-rule:evenodd;clip-rule:evenodd;fill:#8800FF;}
	.st4{fill:#001A9C;}
	.st5{fill:#01FFF8;}
	.st6{fill:#83D110;}
	.st7{fill:#00FFE6;}
	.st8{fill:#4E007A;}
	.st9{fill:#FFC000;}
	.st10{fill:#FF0600;}
	.st11{fill:#190056;}
	.st12{fill:#4A00FF;}
	.st13{fill:#6A037F;}
	.st14{fill:#FBE800;}
	.st15{fill:#2D0087;}
	.st16{fill:#00F7D9;}
	.st17{fill:#AD6400;}
	.st18{fill:#001E68;}
	.st19{fill:#67501C;}
	.st20{fill:#677E00;}
	.st21{fill:#11E6CE;}
	.st22{fill:#004263;}
	.st23{fill:#FF6700;}
</style>
<g>
	<path d="M217.22,78.66c-0.48,5.93-2.43,11.32-6.09,16.04c-3.82,4.94-8.73,8.23-14.98,9.16c-6.79,1.01-12.81-0.87-18.03-5.31
		c-3.4-2.9-5.81-6.5-7.5-10.61c-0.04-0.1-0.08-0.2-0.12-0.34c-2.26-2.67-5.05-4.56-8.52-5.31c-5.24-1.13-9.77,0.37-13.6,4
		c-3.9,3.7-5.75,8.38-6.02,13.68c-0.26,5.1,1.03,9.78,4.19,13.85c2.86,3.68,6.6,5.92,11.31,6.24c3.74,0.25,7.07-0.92,10.02-3.24
		c2.52-1.97,4.33-4.48,5.59-7.39c0.19-0.43,0.41-0.6,0.89-0.59c2.05,0.03,4.1,0.01,6.41,0.01c-0.74,1.83-1.33,3.54-2.12,5.15
		c-2.73,5.61-6.75,10-12.49,12.64c-5.68,2.61-11.44,2.64-17.22,0.3c-4.31-1.75-7.77-4.63-10.47-8.38
		c-4.59-6.38-6.25-13.57-5.63-21.34c0.48-5.92,2.43-11.32,6.09-16.04c3.82-4.94,8.73-8.22,14.98-9.15
		c6.79-1.01,12.81,0.87,18.03,5.31c3.4,2.89,5.81,6.5,7.5,10.6c0.04,0.1,0.08,0.2,0.12,0.34c2.26,2.67,5.05,4.56,8.52,5.31
		c5.24,1.13,9.77-0.37,13.6-4c3.9-3.7,5.75-8.38,6.02-13.68c0.26-5.1-1.03-9.78-4.19-13.85c-2.86-3.68-6.6-5.92-11.31-6.23
		c-3.74-0.26-7.07,0.92-10.02,3.23c-2.51,1.98-4.33,4.48-5.58,7.4c-0.19,0.43-0.41,0.6-0.89,0.59c-2.05-0.03-4.1-0.01-6.41-0.01
		c0.74-1.83,1.33-3.54,2.12-5.15c2.73-5.61,6.75-10,12.49-12.64c5.68-2.61,11.44-2.65,17.22-0.3c4.31,1.75,7.77,4.63,10.47,8.38
		C216.19,63.71,217.85,70.9,217.22,78.66z"/>
	<path class="st9" d="M210.82,53.61c1.01,0.9,2.08,1.74,3.03,2.7c4.13,4.16,6.64,9.2,7.77,14.91c1.32,6.67,0.75,13.19-1.97,19.46
		c-0.58,1.34-0.54,2.56,0.04,3.86c1.77,3.94,3.51,7.9,5.25,11.86c0.11,0.24,0.09,0.54,0.13,0.81c-0.28,0.01-0.57,0.07-0.83,0.01
		c-4.76-1.06-9.52-2.12-14.28-3.21c-1.08-0.25-2.1-0.17-3.12,0.29c-4.43,2-9.03,2.5-13.79,1.5c-0.06-0.01-0.12-0.04-0.18-0.06
		c1.34-0.14,2.68-0.21,4-0.44c5.28-0.93,9.71-3.45,13.41-7.28c4.67-4.83,7.3-10.66,8.28-17.26c0.83-5.57,0.35-11.04-1.5-16.36
		c-1.38-3.98-3.48-7.56-6.37-10.65C210.72,53.7,210.77,53.66,210.82,53.61z M139.33,78.01c-2.89,3.09-4.98,6.67-6.37,10.65
		c-1.85,5.33-2.33,10.79-1.5,16.36c0.98,6.6,3.61,12.43,8.28,17.26c3.7,3.83,8.14,6.35,13.41,7.28c1.31,0.23,2.66,0.3,4,0.44
		c-0.06,0.02-0.12,0.04-0.18,0.06c-4.76,1-9.36,0.51-13.79-1.5c-1.03-0.46-2.04-0.54-3.12-0.29c-4.76,1.08-9.52,2.15-14.28,3.21
		c-0.26,0.06-0.56,0-0.83-0.01c0.04-0.27,0.03-0.57,0.13-0.81c1.74-3.96,3.48-7.92,5.25-11.86c0.58-1.3,0.62-2.52,0.04-3.86
		c-2.72-6.27-3.29-12.79-1.97-19.46c1.13-5.71,3.64-10.75,7.77-14.91c0.95-0.96,2.02-1.81,3.03-2.7
		C139.23,77.91,139.28,77.96,139.33,78.01z"/>
</g>
</svg>
