<?xml version="1.0" encoding="utf-8"?>
<!-- Generator: Adobe Illustrator 27.8.1, SVG Export Plug-In . SVG Version: 6.00 Build 0)  -->
<svg version="1.1" id="Layer_1" xmlns="http://www.w3.org/2000/svg" xmlns:xlink="http://www.w3.org/1999/xlink" x="0px" y="0px"
	 viewBox="0 0 350 230" style="enable-background:new 0 0 350 230;" xml:space="preserve">
<style type="text/css">
	.st0{fill:#00C5D1;}
	.st1{fill:url(#XMLID_00000015323524381507781230000016482727210167127711_);}
	.st2{fill-rule:evenodd;clip-rule:evenodd;fill:#330068;}
	.st3{fill-rule:evenodd;clip-rule:evenodd;fill:#8800FF;}
	.st4{fill:#001A9C;}
	.st5{fill:#01FFF8;}
	.st6{fill:#83D110;}
	.st7{fill:#00FFE6;}
	.st8{fill:#4E007A;}
	.st9{fill:#FFC000;}
	.st10{fill:#FF0600;}
	.st11{fill:#190056;}
	.st12{fill:#4A00FF;}
	.st13{fill:#6A037F;}
	.st14{fill:#FBE800;}
	.st15{fill:#2D0087;}
	.st16{fill:#00F7D9;}
	.st17{fill:#AD6400;}
	.st18{fill:#001E68;}
	.st19{fill:#67501C;}
	.st20{fill:#677E00;}
	.st21{fill:#11E6CE;}
	.st22{fill:#004263;}
	.st23{fill:#FF6700;}
</style>
<g>
	<path d="M43.31,161.32c1.12-3.1,2.13-5.91,3.14-8.73c1.74-4.85,3.5-9.7,5.19-14.57c0.17-0.5,0.24-1.27-0.03-1.65
		c-5.43-7.61-7.02-16.2-6.7-25.33c0.74-20.85,16.17-38.66,36.84-41.78c17.69-2.67,32.08,3.49,43.06,17.62
		c0.39,0.5,1.12,0.99,1.72,1.03c10.43,0.67,20.85,1.3,31.29,1.89c11.12,0.63,22.24,1.22,33.35,1.92c-4.92,0-9.85,0-14.77,0
		c-18.5,0-36.99,0-55.49,0.04c-1.17,0-1.82-0.39-2.48-1.32c-14.36-20.22-45.35-17.48-55.63,5.12c-5.4,11.87-3.85,23.32,4.11,33.75
		c0.62,0.81,0.68,1.37,0.27,2.27c-1.68,3.67-3.26,7.37-5.02,11.4c0.72-0.34,1.16-0.54,1.59-0.76c3.44-1.76,6.87-3.56,10.34-5.27
		c0.43-0.21,1.17-0.19,1.58,0.05c11.7,6.75,25.8,5.78,36.46-2.49c0.52-0.41,1.31-0.68,1.97-0.68c13.33-0.02,26.67,0,40,0.02
		c11.01,0.01,22.02,0.01,33.03,0.01c0.82,0,1.63,0,2.45,0.11c-4.98,0.29-9.97,0.58-14.95,0.87c-13.09,0.76-26.18,1.52-39.27,2.28
		c-2.96,0.17-5.93,0.3-8.88,0.55c-0.58,0.05-1.29,0.46-1.64,0.93c-7.41,9.92-17.17,16.06-29.43,17.8
		c-9.15,1.3-18.12,0.59-26.39-4.18c-0.45-0.26-1.25-0.16-1.78,0.05c-7.52,2.83-15.02,5.71-22.53,8.57
		C44.37,160.97,44,161.09,43.31,161.32z"/>
	<path class="st10" d="M35.21,161.34c1.3-3.6,2.5-6.9,3.68-10.2c1.57-4.37,3.11-8.74,4.7-13.1c0.3-0.81,0.2-1.38-0.31-2.1
		c-5.07-7.19-6.68-15.34-6.52-23.96C37.14,92.15,50.66,74.99,69.84,70c0.16-0.04,0.33-0.05,0.33-0.05
		c-2.57,1.53-5.39,2.95-7.91,4.78c-11.14,8.03-17.79,18.84-19.43,32.53c-1,8.41-0.27,16.66,3.36,24.46
		c0.76,1.63,1.78,3.14,2.59,4.75c0.25,0.5,0.4,1.24,0.23,1.74c-2.3,6.52-4.64,13.03-7.05,19.52c-0.23,0.62-0.89,1.25-1.51,1.54
		C38.86,160.01,37.19,160.57,35.21,161.34z"/>
</g>
</svg>
