<?xml version="1.0" encoding="utf-8"?>
<!-- Generator: Adobe Illustrator 27.8.1, SVG Export Plug-In . SVG Version: 6.00 Build 0)  -->
<svg version="1.1" id="Layer_1" xmlns="http://www.w3.org/2000/svg" xmlns:xlink="http://www.w3.org/1999/xlink" x="0px" y="0px"
	 viewBox="0 0 350 230" style="enable-background:new 0 0 350 230;" xml:space="preserve">
<style type="text/css">
	.st0{fill:#00C5D1;}
	.st1{fill:url(#XMLID_00000119112031395459874110000011350385341769430431_);}
	.st2{fill-rule:evenodd;clip-rule:evenodd;fill:#330068;}
	.st3{fill-rule:evenodd;clip-rule:evenodd;fill:#8800FF;}
	.st4{fill:#001A9C;}
	.st5{fill:#01FFF8;}
	.st6{fill:#83D110;}
	.st7{fill:#00FFE6;}
	.st8{fill:#4E007A;}
	.st9{fill:#FFC000;}
	.st10{fill:#FF0600;}
	.st11{fill:#190056;}
	.st12{fill:#4A00FF;}
	.st13{fill:#6A037F;}
	.st14{fill:#FBE800;}
	.st15{fill:#2D0087;}
	.st16{fill:#00F7D9;}
	.st17{fill:#AD6400;}
	.st18{fill:#001E68;}
	.st19{fill:#67501C;}
	.st20{fill:#677E00;}
	.st21{fill:#11E6CE;}
	.st22{fill:#004263;}
	.st23{fill:#FF6700;}
</style>
<g>
	<path class="st11" d="M199.45,89.32l18.48,14.14c-2.44,6.08-6.14,11.52-10.77,15.99c0.55-1.11,0.86-2.37,0.86-3.69
		c0-4.63-3.76-8.39-8.39-8.39c-4.64,0-8.4,3.76-8.4,8.39c0,4.64,3.76,8.4,8.4,8.4c0.79,0,1.55-0.1,2.28-0.32
		c-7.57,5.42-16.87,8.61-26.91,8.61c-6.61,0-12.9-1.38-18.58-3.88L199.45,89.32z M193.6,43.8c-5.69-2.51-11.99-3.9-18.6-3.9
		c-10.02,0-19.3,3.2-26.88,8.61c0.72-0.22,1.48-0.32,2.26-0.32c4.63,0,8.4,3.76,8.4,8.4c0,4.63-3.77,8.4-8.4,8.4
		c-4.64,0-8.4-3.77-8.4-8.4c0-1.32,0.3-2.56,0.85-3.68c-4.62,4.47-8.31,9.9-10.76,15.96l18.49,14.15L193.6,43.8z"/>
	<path class="st12" d="M221.27,86.17c0,1.75-0.09,3.46-0.29,5.16L198.8,74.36l-52.65,48.01l-15.86,14.46l10.32-19.68
		c-7.39-8.21-11.88-19.07-11.88-30.97c0-1.75,0.09-3.46,0.29-5.16L151.21,98l52.64-48.01l15.86-14.47l-10.33,19.69
		C216.77,63.41,221.27,74.27,221.27,86.17z"/>
</g>
</svg>
