<?xml version="1.0" encoding="utf-8"?>
<!-- Generator: Adobe Illustrator 27.8.1, SVG Export Plug-In . SVG Version: 6.00 Build 0)  -->
<svg version="1.1" xmlns="http://www.w3.org/2000/svg" xmlns:xlink="http://www.w3.org/1999/xlink" x="0px" y="0px"
	 viewBox="0 0 350 230" style="enable-background:new 0 0 350 230;" xml:space="preserve">
<style type="text/css">
	.st0{fill:#FF9D00;}
	.st1{fill:url(#SVGID_1_);}
	.st2{opacity:0.22;fill:url(#SVGID_00000081626499618852663400000017716132019745475234_);}
	.st3{fill:#FFC200;}
	.st4{fill:#778718;}
	.st5{fill:#E0B017;}
	.st6{fill:#664407;}
	.st7{fill:#9E690A;}
	.st8{fill:#7F1105;}
	.st9{fill:#191933;}
	.st10{fill:#FCEBD4;}
	.st11{fill:#E3DFD6;}
	.st12{fill:#FFB000;}
	.st13{fill:#AA210E;}
	.st14{fill:#FFF0A6;}
	.st15{fill:#FFDA00;}
	.st16{fill:#F4F4F4;}
	.st17{fill:#DC5C28;}
	.st18{fill:#FF8440;}
	.st19{fill:#C45224;}
	.st20{fill:#2C4369;}
	.st21{fill:#2A72DB;}
	.st22{fill:#C65500;}
	.st23{fill:#C15746;}
	.st24{fill:#FF8C00;}
	.st25{fill:#FFEA2C;}
	.st26{fill:#F7FF57;}
	.st27{fill:#FFFFFF;}
	.st28{fill:#D64949;}
	.st29{fill:#353535;}
	.st30{fill:#FFC783;}
	.st31{fill:#3F7F91;}
	.st32{fill:#25BDE5;}
	.st33{fill:#8CDD00;}
	.st34{fill:#D1FF88;}
	.st35{fill:#333333;}
	.st36{fill:#FF9000;}
	.st37{fill:#A1A813;}
	.st38{fill:#B3C40E;}
	.st39{fill:#CACE72;}
	.st40{fill:url(#SVGID_00000125579837475132073400000003875023243829914551_);}
	.st41{fill:#93E800;}
	.st42{fill:#3CB7D3;}
	.st43{fill:#FF7631;}
	.st44{fill:#E6873C;}
	.st45{fill:#30657F;}
	.st46{fill:#FF7A40;}
	.st47{fill:#FFAD4A;}
	.st48{fill:#BC8E3B;}
	.st49{fill:#E2E2E2;}
	.st50{fill:#F2B844;}
	.st51{fill:#AF3838;}
	.st52{fill:#17B5C1;}
	.st53{fill:#A88643;}
	.st54{fill-rule:evenodd;clip-rule:evenodd;fill:#DD7928;}
	.st55{fill:#E6E7E8;stroke:#CFCFCF;stroke-width:0.1061;}
	.st56{fill-rule:evenodd;clip-rule:evenodd;fill:#204F7A;}
	.st57{fill-rule:evenodd;clip-rule:evenodd;fill:#50A4FF;}
	.st58{fill:#002649;}
</style>
<g id="Layer_1">
</g>
<g id="Layer_12">
</g>
<g id="Layer_13">
</g>
<g id="Layer_14">
</g>
<g id="Layer_15">
</g>
<g id="Layer_11">
</g>
<g id="Layer_8">
</g>
<g id="Layer_10">
</g>
<g id="Layer_9">
</g>
<g id="Layer_2">
</g>
<g id="Layer_3">
</g>
<g id="Layer_4">
</g>
<g id="Layer_5">
	<path class="st51" d="M167.8,81.1c-16.6,5.9-31.6,14.2-43.5,23.3c0.5-2.4,1.4-4.8,2.5-7.1l19.3-38.6c5.2-10.5,18-14.7,28.5-9.5
		L206.3,65c3.2,1.6,5.8,3.9,7.7,6.5C200.5,72,184.5,75.2,167.8,81.1z M165.2,97.3c-16,5.5-30,12.9-40.8,20.7
		c0.2,0.9,0.4,1.7,0.7,2.6c1,3.3,2.7,6.4,4.8,9.2l2.3,3c4.9-2.8,13.7-2.7,17.4-1.7c14,3.8,15.5,18,15.5,18l3.5,0
		c11.8,0.1,22.6-6.5,27.9-17l1.6-3.2c-1.8-3-2.9-6.6-3-10.4c-0.2-11,8.1-20.1,18.8-21.2l0.6-1.3l1.3-2.6c0.8-1.6,1.4-3.3,1.8-5
		C204.2,87.5,185.7,90.2,165.2,97.3z"/>
	<path class="st52" d="M237,119.5c0.2,11.6-9,21.1-20.6,21.3c-11.6,0.2-21.1-9-21.3-20.6c-0.2-11.6,9-21.1,20.6-21.3
		C227.3,98.8,236.8,108,237,119.5z"/>
	<path class="st53" d="M253.8,94.7c0.1,6.2-2.6,13.8-7.7,20.7v0c0,0-0.1,0.1-0.1,0.1l0.1-1.6c0-0.8-0.1-2-0.3-3.2
		c-0.7-4.3-2.8-10.7-9.2-15.8c-0.6-0.5-1.3-1-2-1.5c-0.7-0.5-1.5-1-2.3-1.4c0,0,0,0,0,0c-3.7-1.9-8.6-3-14.5-3.5
		c-13.4-1-31.9,1.7-52.4,8.8c-16,5.5-30,12.9-40.8,20.7c-15.3,11.1-24,23.1-21.9,32.6c1.5,6.9,11.9,12.2,23.1,14
		c0.5,0.1,1.1,0.2,1.6,0.2c0.2,0,0.4,0,0.6,0.1c0.2,0,0.4,0,0.6,0.1c-1.2-0.1-2.3-0.1-3.4-0.2c-0.5,0-1-0.1-1.5-0.1
		c-0.5,0-0.9-0.1-1.4-0.2c-14-1.8-23.5-7.3-25.5-16.4c-0.3-1.4-0.4-2.8-0.4-4.4c0.9-19.2,31.5-46.3,71.5-60.2
		c43.1-15,81.5-11.5,85.8,7.7C253.7,92.3,253.8,93.4,253.8,94.7z M149.6,131.1c-3.7-1-12.5-1-17.4,1.7l2,2.6
		c0.4,0.5,0.8,1.1,1.1,1.6c0.1,0.2,0.2,0.4,0.3,0.6c0.3,0.6,0.6,1.2,0.8,1.8c1,2.5,1.3,5.2,0.9,7.9c0,0.3-0.1,0.7-0.2,1
		c0,0.1,0,0.1,0,0.1c-0.1,0.3-0.1,0.6-0.2,1c0,0,0,0.1,0,0.1v0l-9.6,19.2c-0.4,0.8-1,1.5-1.8,2l-0.3,0.2c-0.8,0.5-1.4,1.2-1.8,2
		c-1.2,2.5-0.2,5.5,2.2,6.7l5.9,3c2.5,1.2,5.5,0.2,6.7-2.2c0.4-0.8,0.6-1.7,0.5-2.6l0-0.4c-0.1-0.9,0.1-1.8,0.5-2.6l9.7-19.4l0-0.1
		c0,0,0.1-0.1,0.1-0.1c0.2-0.3,0.5-0.6,0.7-0.8c0.2-0.3,0.5-0.5,0.8-0.8c0.3-0.3,0.5-0.5,0.8-0.7c0.2-0.2,0.5-0.4,0.8-0.6
		c0.1-0.1,0.2-0.1,0.3-0.2c0.2-0.2,0.5-0.3,0.7-0.5c0.3-0.2,0.6-0.3,0.9-0.5c0,0,0.1,0,0.1-0.1c0.2-0.1,0.5-0.2,0.7-0.3
		c0.1-0.1,0.2-0.1,0.4-0.2c0.3-0.1,0.6-0.2,0.9-0.4c0.3-0.1,0.6-0.2,1-0.3c0.3-0.1,0.6-0.2,1-0.2c0.1,0,0.2,0,0.3-0.1
		c0.2-0.1,0.5-0.1,0.7-0.1c0.1,0,0.2,0,0.3,0c0.2,0,0.4,0,0.6-0.1c0.2,0,0.3,0,0.5,0c0.4,0,0.8,0,1.1,0l3.5,0
		C165.1,149.1,163.6,134.9,149.6,131.1z"/>
</g>
<g id="Layer_6">
</g>
<g id="Layer_7">
</g>
</svg>
