<?xml version="1.0" encoding="utf-8"?>
<!-- Generator: Adobe Illustrator 27.8.1, SVG Export Plug-In . SVG Version: 6.00 Build 0)  -->
<svg version="1.1" xmlns="http://www.w3.org/2000/svg" xmlns:xlink="http://www.w3.org/1999/xlink" x="0px" y="0px"
	 viewBox="0 0 350 230" style="enable-background:new 0 0 350 230;" xml:space="preserve">
<style type="text/css">
	.st0{fill:#FF9D00;}
	.st1{fill:url(#SVGID_1_);}
	.st2{opacity:0.22;fill:url(#SVGID_00000133501198597904001970000017797566776297558174_);}
	.st3{fill:#FFC200;}
	.st4{fill:#778718;}
	.st5{fill:#E0B017;}
	.st6{fill:#664407;}
	.st7{fill:#9E690A;}
	.st8{fill:#7F1105;}
	.st9{fill:#191933;}
	.st10{fill:#FCEBD4;}
	.st11{fill:#E3DFD6;}
	.st12{fill:#FFB000;}
	.st13{fill:#AA210E;}
	.st14{fill:#FFF0A6;}
	.st15{fill:#FFDA00;}
	.st16{fill:#F4F4F4;}
	.st17{fill:#DC5C28;}
	.st18{fill:#FF8440;}
	.st19{fill:#C45224;}
	.st20{fill:#2C4369;}
	.st21{fill:#2A72DB;}
	.st22{fill:#C65500;}
	.st23{fill:#C15746;}
	.st24{fill:#FF8C00;}
	.st25{fill:#FFEA2C;}
	.st26{fill:#F7FF57;}
	.st27{fill:#FFFFFF;}
	.st28{fill:#D64949;}
	.st29{fill:#353535;}
	.st30{fill:#FFC783;}
	.st31{fill:#3F7F91;}
	.st32{fill:#25BDE5;}
	.st33{fill:#8CDD00;}
	.st34{fill:#D1FF88;}
	.st35{fill:#333333;}
	.st36{fill:#FF9000;}
	.st37{fill:#A1A813;}
	.st38{fill:#B3C40E;}
	.st39{fill:#CACE72;}
	.st40{fill:url(#SVGID_00000164507681848714865430000002784408803553131417_);}
	.st41{fill:#93E800;}
	.st42{fill:#3CB7D3;}
	.st43{fill:#FF7631;}
	.st44{fill:#E6873C;}
	.st45{fill:#30657F;}
	.st46{fill:#FF7A40;}
	.st47{fill:#FFAD4A;}
	.st48{fill:#BC8E3B;}
	.st49{fill:#E2E2E2;}
	.st50{fill:#F2B844;}
	.st51{fill:#AF3838;}
	.st52{fill:#17B5C1;}
	.st53{fill:#A88643;}
	.st54{fill-rule:evenodd;clip-rule:evenodd;fill:#DD7928;}
	.st55{fill:#E6E7E8;stroke:#CFCFCF;stroke-width:0.1061;}
	.st56{fill-rule:evenodd;clip-rule:evenodd;fill:#204F7A;}
	.st57{fill-rule:evenodd;clip-rule:evenodd;fill:#50A4FF;}
	.st58{fill:#002649;}
</style>
<g id="Layer_1">
</g>
<g id="Layer_12">
</g>
<g id="Layer_13">
</g>
<g id="Layer_14">
</g>
<g id="Layer_15">
</g>
<g id="Layer_11">
</g>
<g id="Layer_8">
</g>
<g id="Layer_10">
	<path class="st31" d="M182.1,37.8c-0.2-1.9-0.3-9.2-1.3-13c-1.2-1.4-3.8-2.1-3.8-2.1c1.4,0.1,2.3,0.3,2.9,0.5
		c-0.8-0.7-2.1-1.3-4.2-0.8c-3.5,0.8-3.6,3.7-3.5,5.4c0.1,2.7,0.4,6.9,0.5,8.5c0.2,2.4,0.2,7.1,2.1,8.5c1.3,1,2.9,1.1,3.8,1
		c-1.2-1.5-1.6-3.1-1.5-4.4C177.4,39.9,179.4,38.7,182.1,37.8z M193,29.7c0.4-2.6-2.6-4.5-3.8-4.9c-1.5-0.5-4.8-0.6-5.9,2.7
		c-0.1,3,0.3,8,0.6,9.7c0.9-0.3,1.4-0.4,2.3-0.6c2.3-0.6,4.3-1.1,6.3-1.2c0-0.7,0-2.6,0-4.3c0-2.2-1.4-3.7-1.6-3.9
		C192,28,192.7,29,193,29.7z M182.1,37.8c-0.2-1.9-0.3-9.2-1.3-13c-1.2-1.4-3.8-2.1-3.8-2.1c1.4,0.1,2.3,0.3,2.9,0.5
		c-0.8-0.7-2.1-1.3-4.2-0.8c-3.5,0.8-3.6,3.7-3.5,5.4c0.1,2.7,0.4,6.9,0.5,8.5c0.2,2.4,0.2,7.1,2.1,8.5c1.3,1,2.9,1.1,3.8,1
		c-1.2-1.5-1.6-3.1-1.5-4.4C177.4,39.9,179.4,38.7,182.1,37.8z M193,29.7c0.4-2.6-2.6-4.5-3.8-4.9c-1.5-0.5-4.8-0.6-5.9,2.7
		c-0.1,3,0.3,8,0.6,9.7c0.9-0.3,1.4-0.4,2.3-0.6c2.3-0.6,4.3-1.1,6.3-1.2c0-0.7,0-2.6,0-4.3c0-2.2-1.4-3.7-1.6-3.9
		C192,28,192.7,29,193,29.7z M182.1,37.8c-0.2-1.9-0.3-9.2-1.3-13c-1.2-1.4-3.8-2.1-3.8-2.1c1.4,0.1,2.3,0.3,2.9,0.5
		c-0.8-0.7-2.1-1.3-4.2-0.8c-3.5,0.8-3.6,3.7-3.5,5.4c0.1,2.7,0.4,6.9,0.5,8.5c0.2,2.4,0.2,7.1,2.1,8.5c1.3,1,2.9,1.1,3.8,1
		c-1.2-1.5-1.6-3.1-1.5-4.4C177.4,39.9,179.4,38.7,182.1,37.8z M193,29.7c0.4-2.6-2.6-4.5-3.8-4.9c-1.5-0.5-4.8-0.6-5.9,2.7
		c-0.1,3,0.3,8,0.6,9.7c0.9-0.3,1.4-0.4,2.3-0.6c2.3-0.6,4.3-1.1,6.3-1.2c0-0.7,0-2.6,0-4.3c0-2.2-1.4-3.7-1.6-3.9
		C192,28,192.7,29,193,29.7z M182.1,37.8c-0.2-1.9-0.3-9.2-1.3-13c-1.2-1.4-3.8-2.1-3.8-2.1c1.4,0.1,2.3,0.3,2.9,0.5
		c-0.8-0.7-2.1-1.3-4.2-0.8c-3.5,0.8-3.6,3.7-3.5,5.4c0.1,2.7,0.4,6.9,0.5,8.5c0.2,2.4,0.2,7.1,2.1,8.5c1.3,1,2.9,1.1,3.8,1
		c-1.2-1.5-1.6-3.1-1.5-4.4C177.4,39.9,179.4,38.7,182.1,37.8z M193,29.7c0.4-2.6-2.6-4.5-3.8-4.9c-1.5-0.5-4.8-0.6-5.9,2.7
		c-0.1,3,0.3,8,0.6,9.7c0.9-0.3,1.4-0.4,2.3-0.6c2.3-0.6,4.3-1.1,6.3-1.2c0-0.7,0-2.6,0-4.3c0-2.2-1.4-3.7-1.6-3.9
		C192,28,192.7,29,193,29.7z M241,31.1h-4.1V19.6c0-2.2-1.8-4-4-4h-1.9c-2.2,0-4,1.8-4,4v11.4h-0.4V14.6c0-2.2-1.8-4-4-4h-1.9
		c-2.2,0-4,1.8-4,4v16.5h-0.3V10c0-2.2-1.8-4-4-4h-1.9c-2.2,0-4,1.8-4,4v21.1h-9.6c0,0,0-0.1,0-0.1c-1.4-4.7-3.2-6.9-6.4-8.5
		c-3.8-1.8-7.1,0.1-7.1,0.1s-1.9-3.2-6.1-3.5c-4.1-0.3-6.9,2.9-6.9,2.9s-2.9-2-6.1-1.7c-3.2,0.3-5.7,3.1-5.7,3.1s-4.4-1.3-7.6-0.1
		c-2.5,0.9-3.7,3.6-3.9,5.2c-0.1,0.6-0.2,1.5-0.3,2.5h-3V10c0-2.2-1.8-4-4-4h-1.9c-2.2,0-4,1.8-4,4v21.1h-0.4V14.6c0-2.2-1.8-4-4-4
		h-1.9c-2.2,0-4,1.8-4,4v16.5h-0.4V19.6c0-2.2-1.8-4-4-4h-1.9c-2.2,0-4,1.8-4,4v11.4h-4c-0.8,0-1.4,0.6-1.4,1.4v7.6
		c0,0.8,0.6,1.4,1.4,1.4h4v11.4c0,2.2,1.8,4,4,4h1.9c2.2,0,4-1.8,4-4V41.4h0.4v16.5c0,2.2,1.8,4,4,4h1.9c2.2,0,4-1.8,4-4V41.4h0.4
		v21.1c0,2.2,1.8,4,4,4h1.9c2.2,0,4-1.8,4-4V41.4h2.1c0,3.4,0.1,11.8,1.1,18.6c1.3,8.8,5.7,11.2,5.7,11.2l-1.4,23.5h1.4l1.4-23.9
		c-1.2-0.9-2.3-1.9-3.1-3.3c-4.7-8.4-3.7-26-3.7-26h1.8c0,0-0.1,1.4-0.1,3.6c0.5-0.6,1.1-1,1.6-1.2c-0.1-0.3-0.2-0.7-0.4-1
		c-1.6-5-1.9-11.7-1.8-13.1c0.1-1.4,0.9-4.4,4.3-5.2c3.4-0.8,6.6,0.4,6.6,0.4s1.7-2.8,5.3-3.1c3.7-0.3,6.2,2.2,6.2,2.2
		c1.4-2.7,4.6-3.6,7.3-3.2c4.3,0.5,4.4,4.7,4.4,4.7s1.3-2.7,4.9-2.4c2.7,0.2,7,2.1,7.7,7.9h-1.3c0,1.7-0.1,3.5-0.1,4.2
		c0.8,0,1.5,0.1,2,0.3c1,0.4,1.8,1.1,2.5,2.1c0.7,0.9,1.2,2.1,1.6,3.2c0,0,2.9,7,3.5,9.6c0.4,1.5,1.1,3.3,0.7,5.1
		c-0.2,1.3-1.2,2.6-2.7,4.6c-2.2,2.7-4.9,5.6-7.5,8c-4.5,4-6.8,5.7-6.8,5.7l1.2,20.8h1.6l-1.3-20.3c7.5-5.4,14.1-13.5,14.7-14.2
		c1.3-1.5,3-4.4,1.7-8.5c-1.1-3.2-2-6.5-3.1-9.3c-0.1-0.3-0.2-0.6-0.4-0.9h4.8v21.1c0,2.2,1.8,4,4,4h1.9c2.2,0,4-1.8,4-4V41.4h0.3
		v16.5c0,2.2,1.8,4,4,4h1.9c2.2,0,4-1.8,4-4V41.4h0.4v11.4c0,2.2,1.8,4,4,4h1.9c2.2,0,4-1.8,4-4V41.4h4.1c0.8,0,1.4-0.6,1.4-1.4
		v-7.6C242.3,31.7,241.7,31.1,241,31.1z M113.3,32.9h-4.2c0,0,0,0,0-0.1c0-0.2,0.1-0.9,0.9-0.9h3.3V32.9z M115.9,20.8l-1,10.2V20.4
		c0-3.3,3.5-3.4,3.5-3.4C116,17.7,115.9,20.8,115.9,20.8z M126.2,15.7l-1,15.3V15.3c0-3.3,3.4-3.4,3.4-3.4
		C126.3,12.6,126.2,15.7,126.2,15.7z M136.3,11.1l-1,20V10.6c0-3.3,3.5-3.4,3.5-3.4C136.4,7.9,136.3,11.1,136.3,11.1z M143.8,32.9
		V32h2.9c0,0.3,0.1,0.9,0.1,0.9H143.8z M206.4,32.9H195c0,0,0-0.6,0.1-0.9h11.3V32.9z M208.9,11.1l-1,20V10.6c0-3.3,3.4-3.4,3.4-3.4
		C208.9,7.9,208.9,11.1,208.9,11.1z M219,15.7l-1,15.3V15.3c0-3.3,3.4-3.4,3.4-3.4C219.1,12.6,219,15.7,219,15.7z M229.2,20.8
		l-1,10.2V20.4c0-3.3,3.5-3.4,3.5-3.4C229.3,17.7,229.2,20.8,229.2,20.8z M241.1,32.9h-4.2V32h3.3C241,32,241.1,32.6,241.1,32.9
		C241.1,32.9,241.1,32.9,241.1,32.9z M193,29.7c0.4-2.6-2.6-4.5-3.8-4.9c-1.5-0.5-4.8-0.6-5.9,2.7c-0.1,3,0.3,8,0.6,9.7
		c0.9-0.3,1.4-0.4,2.3-0.6c2.3-0.6,4.3-1.1,6.3-1.2c0-0.7,0-2.6,0-4.3c0-2.2-1.4-3.7-1.6-3.9C192,28,192.7,29,193,29.7z M182.1,37.8
		c-0.2-1.9-0.3-9.2-1.3-13c-1.2-1.4-3.8-2.1-3.8-2.1c1.4,0.1,2.3,0.3,2.9,0.5c-0.8-0.7-2.1-1.3-4.2-0.8c-3.5,0.8-3.6,3.7-3.5,5.4
		c0.1,2.7,0.4,6.9,0.5,8.5c0.2,2.4,0.2,7.1,2.1,8.5c1.3,1,2.9,1.1,3.8,1c-1.2-1.5-1.6-3.1-1.5-4.4C177.4,39.9,179.4,38.7,182.1,37.8
		z M193,29.7c0.4-2.6-2.6-4.5-3.8-4.9c-1.5-0.5-4.8-0.6-5.9,2.7c-0.1,3,0.3,8,0.6,9.7c0.9-0.3,1.4-0.4,2.3-0.6
		c2.3-0.6,4.3-1.1,6.3-1.2c0-0.7,0-2.6,0-4.3c0-2.2-1.4-3.7-1.6-3.9C192,28,192.7,29,193,29.7z M182.1,37.8c-0.2-1.9-0.3-9.2-1.3-13
		c-1.2-1.4-3.8-2.1-3.8-2.1c1.4,0.1,2.3,0.3,2.9,0.5c-0.8-0.7-2.1-1.3-4.2-0.8c-3.5,0.8-3.6,3.7-3.5,5.4c0.1,2.7,0.4,6.9,0.5,8.5
		c0.2,2.4,0.2,7.1,2.1,8.5c1.3,1,2.9,1.1,3.8,1c-1.2-1.5-1.6-3.1-1.5-4.4C177.4,39.9,179.4,38.7,182.1,37.8z M193,29.7
		c0.4-2.6-2.6-4.5-3.8-4.9c-1.5-0.5-4.8-0.6-5.9,2.7c-0.1,3,0.3,8,0.6,9.7c0.9-0.3,1.4-0.4,2.3-0.6c2.3-0.6,4.3-1.1,6.3-1.2
		c0-0.7,0-2.6,0-4.3c0-2.2-1.4-3.7-1.6-3.9C192,28,192.7,29,193,29.7z M182.1,37.8c-0.2-1.9-0.3-9.2-1.3-13
		c-1.2-1.4-3.8-2.1-3.8-2.1c1.4,0.1,2.3,0.3,2.9,0.5c-0.8-0.7-2.1-1.3-4.2-0.8c-3.5,0.8-3.6,3.7-3.5,5.4c0.1,2.7,0.4,6.9,0.5,8.5
		c0.2,2.4,0.2,7.1,2.1,8.5c1.3,1,2.9,1.1,3.8,1c-1.2-1.5-1.6-3.1-1.5-4.4C177.4,39.9,179.4,38.7,182.1,37.8z M195.3,37.1
		c-1.1-0.6-4.6-0.1-8,0.7c2,1.8,2,4,2,4.1c-0.1-0.3-0.3-0.6-0.5-0.9c-1.2-1.9-3.7-2.7-5.8-2c-0.7,0.2-1.4,0.5-1.9,0.7
		c-1.5,0.6-2.4,1.6-2.3,2.4c0,0.1,0,0.1,0,0.2c0.3,0.6,1.1,1.2,2.8,1.5c3.6,0.8,6-0.6,6.2-0.8c-0.2,0.2-2.2,1.9-6.2,1.3
		c-1.2-0.2-1.9-0.5-2.4-0.9c1.3,3.6,5.1,4.7,8.8,4.5c1.8-0.1,4.4-1,5.8-2.1c0.9-0.7,1.7-1.7,2.1-2.9c0,0-0.1,2-1.4,3.6
		c1.4-0.1,2.2-0.7,2.3-0.7c-0.1,0.2-1.6,3.1-9.1,3.3c-1.5,0-2.9-0.1-4-0.4c-11.5,2.1-13.8,14.9-13.8,14.9c0.1-10.9,8.4-15,11-16.1
		c-0.3-0.2-0.5-0.3-0.8-0.5c0,0-0.6-0.6-0.9-0.8c0,0-3.9,1.6-6.3-2c-0.3,0.4-0.9,0.9-2.2,1.2c-2.1,0.6-3.6-0.4-3.6-0.4
		c3.4,0.8,5.2-2,5.2-2h0c-0.2-0.4-0.4-0.9-0.5-1.4c-1-3.2-1.2-12.1-1.3-15.1c-1.5-1.4-3.4-2-3.4-2c2,0.1,3.1,0.8,3.4,1
		c-0.4-0.4-2.9-2.6-5.8-2c0,0-0.1,0-0.1,0c-2.3,0.5-3.9,2.7-3.7,5.1c0.2,2.8,0.6,7.6,1,10.1c0.5,3.6,1.2,6.7,4.3,8
		c3,1.2,6.2-1.3,6.6-1.6c-0.2,0.3-2.4,3.8-6.6,3.1c-1.6-0.3-3.1-1.2-4.1-3c-0.4,0.3-0.9,0.7-1.9,1c-2.1,0.6-3.6-0.4-3.6-0.4
		c2.7,0.6,4.4-1,4.9-1.7c-0.1-0.3-0.2-0.5-0.3-0.8c-0.9-2.7-1.9-12.9-2.2-15.6c-1.6-0.7-3.7-0.9-3.7-0.9c1.2-0.4,3.4,0.1,3.6,0.2
		c-0.3-0.2-3.6-1.8-6.6-0.3c-3.1,1.6-2.2,7.2-1.7,10.2c0.6,3.7,1.9,9.4,4.9,10.4c2.8,1,6.1-1,6.4-1.2c-0.2,0.3-1.9,3.1-5.5,2.8
		c-2.1-0.1-3.9-0.9-5.4-4.5c-1.7,1.4-1.7,3.9-1.7,4v0c1.1-1.1,2.5-1.5,2.7-1.6c-2.6,1.6-2.4,6.4-2.3,6.6c0.5,4.5,1.6,9.4,3.6,13
		c2.6,4.4,10.6,7.4,10.6,7.4s-2.3-0.1-5.1-1l-1.5,13.9l-0.1-14.5c-0.3-0.1-0.6-0.3-0.9-0.4l-1.7,22.7h32.1l-1.9-20.1
		c-1,0.3-4.4,0.5-6,0.6l-0.7,16.8l-1.2-16.7c-2,0.1-3.9,0.1-4.7-0.1c1.4-0.1,3.8-0.4,6.6-1.1c-5.1,0.5-9.9,0.1-9.9,0.1
		c8.1-0.6,13-1.2,15.7-2.2c1.9-0.7,3.7-2,5.6-3.4c7.7-6,11.9-12.1,12.3-13.3C203.2,52.9,198.1,38.6,195.3,37.1z M168.8,65.2
		c0,0-1-3.9,0.2-7.8c-0.2-1.3-0.9-2.3-1-2.4c0.6,0.4,1.1,1.1,1.3,1.5c0.6-1.4,1.6-2.9,3.1-4.1C172,52.9,168.5,57.1,168.8,65.2z
		 M189.4,49.4c0.2,0.1,4.3,2.9,7.9,2.3C197.2,51.7,191.9,54,189.4,49.4z M193,29.7c0.4-2.6-2.6-4.5-3.8-4.9
		c-1.5-0.5-4.8-0.6-5.9,2.7c-0.1,3,0.3,8,0.6,9.7c0.9-0.3,1.4-0.4,2.3-0.6c2.3-0.6,4.3-1.1,6.3-1.2c0-0.7,0-2.6,0-4.3
		c0-2.2-1.4-3.7-1.6-3.9C192,28,192.7,29,193,29.7z M182.1,37.8c-0.2-1.9-0.3-9.2-1.3-13c-1.2-1.4-3.8-2.1-3.8-2.1
		c1.4,0.1,2.3,0.3,2.9,0.5c-0.8-0.7-2.1-1.3-4.2-0.8c-3.5,0.8-3.6,3.7-3.5,5.4c0.1,2.7,0.4,6.9,0.5,8.5c0.2,2.4,0.2,7.1,2.1,8.5
		c1.3,1,2.9,1.1,3.8,1c-1.2-1.5-1.6-3.1-1.5-4.4C177.4,39.9,179.4,38.7,182.1,37.8z"/>
	<path class="st32" d="M263.7,103c-0.1,0.7-0.2,1.4-0.4,2.1H86.7c-0.1-0.7-0.3-1.4-0.4-2.1H263.7z M97.1,143.1
		c0.3,0.7,0.6,1.4,0.8,2.1h154.3c0.3-0.7,0.6-1.4,0.8-2.1H97.1z M175.3,225.7l-0.3-0.1l-0.3,0.1H175.3z M250.9,148.2l-0.3,0.7
		c-15.4,36.6-40.3,63.2-73.9,79.3L175,229l-1.6-0.8c-33.7-16.1-58.5-42.8-73.9-79.3l-0.3-0.7h17.4l-4.5,3.3
		c1.9,4.1,9.2,19.1,22.1,34c7.3,8.4,22.2,23.6,40.9,31.4c18.7-7.8,33.7-23,40.9-31.4c12.9-14.9,20.3-30,22.1-34l-4.4-3.2H250.9z
		 M109.6,153.2c14.3,30.4,36.3,53,65.4,67.4c29.2-14.4,51.2-37,65.4-67.5l-0.8-0.6c-2.1,4.6-9.5,19.4-22.3,34.1
		c-7.4,8.6-22.8,24.2-42,32.1l-0.4,0.1l-0.4-0.1c-19.3-7.9-34.6-23.5-42-32.1c-12.7-14.6-20.1-29.4-22.2-34.1L109.6,153.2z
		 M247.6,150.1c-0.9,2.1-1.8,4.1-2.8,6.1c-1,2-2,4-3.1,6c-1.1,2-2.2,3.9-3.4,5.8c-1.2,1.9-2.4,3.8-3.6,5.7c-1.2,1.9-2.5,3.7-3.8,5.5
		c-1.3,1.8-2.6,3.6-4,5.4c-1.4,1.8-2.8,3.5-4.2,5.2l-2.2,2.5l-2.3,2.5c-0.7,0.8-1.5,1.6-2.3,2.4c-0.8,0.8-1.6,1.6-2.4,2.4l-2.4,2.3
		l-2.5,2.3c-0.8,0.8-1.7,1.5-2.5,2.2c-0.9,0.7-1.7,1.5-2.6,2.1l-2.6,2.1c-0.9,0.7-1.8,1.3-2.7,2c-1.8,1.4-3.7,2.5-5.5,3.8l-2.9,1.8
		l-1.4,0.9l-1.5,0.8l-2.9,1.6l-3,1.5l-1.5,0.7l-1.5,0.7l-2.8,1.2l-2.8-1.2l-1.5-0.7l-1.5-0.7l-3-1.5l-2.9-1.6l-1.5-0.8l-1.4-0.9
		l-2.9-1.8c-1.8-1.3-3.8-2.4-5.5-3.8c-0.9-0.7-1.8-1.3-2.7-2l-2.6-2.1c-0.9-0.7-1.7-1.4-2.6-2.1c-0.9-0.7-1.7-1.4-2.5-2.2l-2.5-2.2
		l-2.4-2.3c-0.8-0.8-1.6-1.6-2.4-2.4c-0.8-0.8-1.6-1.6-2.3-2.4l-2.3-2.5l-2.2-2.5c-1.4-1.7-2.9-3.4-4.2-5.2c-1.4-1.8-2.7-3.6-4-5.4
		c-1.3-1.8-2.6-3.7-3.8-5.5c-1.2-1.9-2.5-3.8-3.6-5.7c-1.2-1.9-2.3-3.9-3.4-5.8c-1.1-2-2.1-4-3.1-6c-1-2-2-4-2.8-6.1
		c0.8,2.1,1.7,4.2,2.7,6.2c1,2,1.9,4.1,3,6.1c1,2,2.1,4,3.2,5.9c1.1,1.9,2.3,3.9,3.5,5.8c1.2,1.9,2.5,3.8,3.8,5.6
		c1.3,1.8,2.6,3.7,4,5.5c1.4,1.8,2.8,3.6,4.2,5.3l2.2,2.6l2.2,2.5c0.7,0.9,1.5,1.7,2.3,2.5c0.8,0.8,1.6,1.7,2.4,2.4l2.4,2.4l2.5,2.3
		c0.8,0.8,1.7,1.5,2.5,2.2c0.9,0.7,1.7,1.5,2.6,2.2l2.7,2.1c0.9,0.7,1.8,1.3,2.7,2c1.8,1.4,3.7,2.6,5.6,3.9l2.9,1.8l1.4,0.9l1.5,0.8
		l3,1.7l3,1.5l1.5,0.8l1.6,0.7l3.1,1.4l0.3,0.1l0.3-0.1l3.1-1.4l1.5-0.7l1.5-0.8l3-1.5l3-1.7l1.5-0.8l1.4-0.9l2.9-1.8
		c1.9-1.3,3.8-2.5,5.6-3.9c0.9-0.7,1.8-1.3,2.7-2l2.7-2.1c0.9-0.7,1.7-1.4,2.6-2.2c0.9-0.7,1.7-1.4,2.5-2.2l2.5-2.3l2.4-2.4
		c0.8-0.8,1.6-1.6,2.4-2.4c0.8-0.8,1.6-1.6,2.3-2.5l2.3-2.5l2.2-2.6c1.4-1.7,2.8-3.5,4.2-5.3c1.4-1.8,2.7-3.6,4-5.5
		c1.3-1.9,2.5-3.7,3.7-5.6c1.2-1.9,2.4-3.8,3.5-5.8c1.1-2,2.2-3.9,3.2-5.9c1-2,2-4,3-6C245.9,154.3,246.8,152.2,247.6,150.1z
		 M264.2,99.6l-0.1,0.4H85.9l-0.1-0.4c-3.8-24.7-2.4-42.5-2.4-42.7l0.2-2.5l2.3-0.8c5-1.8,10.1-3.4,15.1-5l1.1-9.9l4.7,16.1
		l-0.5,0.1c-5.1,1.5-10.3,3.2-15.4,4.9c-0.2,5.4-0.3,18.2,1.9,34.7h1.9c-1.7-10.6-1.9-33.2-1.9-33.4v-0.4l14.6-4.3l0.3,1l-13.8,4.1
		c0,3.1,0.4,23.4,1.9,33h157.9c1.6-9.7,1.9-29.9,1.9-33l-13.3-4l0.3-1l14.1,4.2l0,0.4c0,0.2-0.2,22.8-1.9,33.4h2.4
		c2.2-16.5,2.1-29.4,1.9-34.7c-5.1-1.8-10.2-3.4-15.4-4.9l-0.5-0.1l4.7-16.1l1.1,9.9c4.9,1.5,10,3.2,15.1,5l2.3,0.8l0.2,2.5
		C266.6,57.6,267.9,75.2,264.2,99.6z M88.4,96.6c-0.1-0.9-0.1-1.7-0.2-2.5c-0.1-0.8-0.1-1.7-0.2-2.5c-0.1-1.7-0.2-3.4-0.3-5.1
		c-0.1-1.7-0.2-3.4-0.2-5.1c-0.1-1.7-0.1-3.4-0.2-5.1l-0.1-5.1L87,66.2c0-3.2,0-6.5,0-9.8c2.3-0.9,4.7-1.8,7-2.7l3.7-1.4
		c1.2-0.5,2.4-1,3.6-1.5c-1.3,0.4-2.5,0.7-3.8,1.1l-3.8,1.2c-2.5,0.8-5,1.6-7.5,2.4l-0.4,0.1l0,0.4c-0.1,1.7-0.1,3.4-0.2,5.1
		c-0.1,1.7-0.1,3.4-0.1,5.1c0,3.4,0.1,6.8,0.3,10.2c0.1,1.7,0.2,3.4,0.4,5.1c0.1,1.7,0.3,3.4,0.5,5.1l0.3,2.5
		c0.1,0.9,0.3,1.7,0.4,2.5C87.7,93.3,88.1,95,88.4,96.6z M265.3,66.2c0-1.7,0-3.4-0.1-5.1c0-1.7-0.1-3.4-0.2-5.1l0-0.4l-0.4-0.1
		c-2.5-0.8-5-1.6-7.5-2.4l-3.8-1.2c-1.3-0.4-2.5-0.8-3.8-1.1c1.2,0.5,2.4,1,3.6,1.5l3.7,1.4c2.3,0.9,4.7,1.8,7,2.7
		c0,3.2,0,6.5,0,9.8l-0.1,5.1l-0.1,5.1c-0.1,1.7-0.1,3.4-0.2,5.1c0,1.7-0.2,3.4-0.2,5.1c-0.1,1.7-0.2,3.4-0.3,5.1
		c-0.1,0.8-0.1,1.7-0.2,2.5c-0.1,0.8-0.1,1.7-0.2,2.5c0.4-1.7,0.7-3.3,0.9-5c0.1-0.8,0.3-1.7,0.4-2.5l0.3-2.5
		c0.2-1.7,0.4-3.4,0.5-5.1c0.2-1.7,0.2-3.4,0.3-5.1C265.2,73,265.3,69.6,265.3,66.2z"/>
</g>
<g id="Layer_9">
</g>
<g id="Layer_2">
</g>
<g id="Layer_3">
</g>
<g id="Layer_4">
</g>
<g id="Layer_5">
</g>
<g id="Layer_6">
</g>
<g id="Layer_7">
</g>
</svg>
