<?xml version="1.0" encoding="utf-8"?>
<!-- Generator: Adobe Illustrator 27.8.1, SVG Export Plug-In . SVG Version: 6.00 Build 0)  -->
<svg version="1.1" xmlns="http://www.w3.org/2000/svg" xmlns:xlink="http://www.w3.org/1999/xlink" x="0px" y="0px"
	 viewBox="0 0 350 230" style="enable-background:new 0 0 350 230;" xml:space="preserve">
<style type="text/css">
	.st0{fill:#FF9D00;}
	.st1{fill:url(#SVGID_1_);}
	.st2{opacity:0.22;fill:url(#SVGID_00000060715291075896444470000007228956058530517634_);}
	.st3{fill:#FFC200;}
	.st4{fill:#778718;}
	.st5{fill:#E0B017;}
	.st6{fill:#664407;}
	.st7{fill:#9E690A;}
	.st8{fill:#7F1105;}
	.st9{fill:#191933;}
	.st10{fill:#FCEBD4;}
	.st11{fill:#E3DFD6;}
	.st12{fill:#FFB000;}
	.st13{fill:#AA210E;}
	.st14{fill:#FFF0A6;}
	.st15{fill:#FFDA00;}
	.st16{fill:#F4F4F4;}
	.st17{fill:#DC5C28;}
	.st18{fill:#FF8440;}
	.st19{fill:#C45224;}
	.st20{fill:#2C4369;}
	.st21{fill:#2A72DB;}
	.st22{fill:#C65500;}
	.st23{fill:#C15746;}
	.st24{fill:#FF8C00;}
	.st25{fill:#FFEA2C;}
	.st26{fill:#F7FF57;}
	.st27{fill:#FFFFFF;}
	.st28{fill:#D64949;}
	.st29{fill:#353535;}
	.st30{fill:#FFC783;}
	.st31{fill:#3F7F91;}
	.st32{fill:#25BDE5;}
	.st33{fill:#8CDD00;}
	.st34{fill:#D1FF88;}
	.st35{fill:#333333;}
	.st36{fill:#FF9000;}
	.st37{fill:#A1A813;}
	.st38{fill:#B3C40E;}
	.st39{fill:#CACE72;}
	.st40{fill:url(#SVGID_00000160899269172470849660000016218803757692386964_);}
	.st41{fill:#93E800;}
	.st42{fill:#3CB7D3;}
	.st43{fill:#FF7631;}
	.st44{fill:#E6873C;}
	.st45{fill:#30657F;}
	.st46{fill:#FF7A40;}
	.st47{fill:#FFAD4A;}
	.st48{fill:#BC8E3B;}
	.st49{fill:#E2E2E2;}
	.st50{fill:#F2B844;}
	.st51{fill:#AF3838;}
	.st52{fill:#17B5C1;}
	.st53{fill:#A88643;}
	.st54{fill-rule:evenodd;clip-rule:evenodd;fill:#DD7928;}
	.st55{fill:#E6E7E8;stroke:#CFCFCF;stroke-width:0.1061;}
	.st56{fill-rule:evenodd;clip-rule:evenodd;fill:#204F7A;}
	.st57{fill-rule:evenodd;clip-rule:evenodd;fill:#50A4FF;}
	.st58{fill:#002649;}
</style>
<g id="Layer_1">
</g>
<g id="Layer_12">
</g>
<g id="Layer_13">
</g>
<g id="Layer_14">
</g>
<g id="Layer_15">
</g>
<g id="Layer_11">
</g>
<g id="Layer_8">
	<path class="st25" d="M175,48.5c-36.7,0-66.5,29.8-66.5,66.5c0,6.9,1.1,13.6,3.1,19.9c1.4-0.7,2.8-1.5,4.3-2.2
		c-1.7-5.6-2.6-11.6-2.6-17.7c0-34,27.7-61.7,61.7-61.7c20.5,0,38.6,10,49.9,25.4c1.6-0.8,3-1.5,4.4-2.1
		C217.1,59.6,197.3,48.5,175,48.5z M240.4,103.2c-1.4,0.5-3,1-4.6,1.6c0.6,3.3,0.9,6.7,0.9,10.2c0,34-27.7,61.7-61.7,61.7
		c-23.6,0-44.1-13.3-54.5-32.8c-1.6,0.5-3.1,1-4.6,1.5c11.1,21.4,33.4,36.1,59.1,36.1c36.7,0,66.5-29.8,66.5-66.5
		C241.5,111,241.1,107,240.4,103.2z"/>
	<path class="st26" d="M175,56.5c-32.3,0-58.5,26.3-58.5,58.5c0,5.6,0.8,11.1,2.3,16.2c4.1-2.1,8.5-4.3,13-6.6
		c-0.7-3.1-1.1-6.3-1.1-9.6c0-24.4,19.9-44.3,44.3-44.3c13.6,0,25.7,6.1,33.8,15.7c4.8-2.3,9.2-4.5,13.1-6.4
		C211.3,65.8,194.2,56.5,175,56.5z M233.5,115c0,32.3-26.3,58.5-58.5,58.5c-22.2,0-41.5-12.4-51.4-30.6c1.5-0.5,3.1-1,4.7-1.5
		c1.5-0.5,3.1-1,4.7-1.5c1.5-0.5,3-1,4.5-1.5c7.8,12.5,21.7,20.9,37.6,20.9c24.4,0,44.3-19.8,44.3-44.3c0-1.5-0.1-3-0.2-4.4
		c5-1.7,9.7-3.3,13.8-4.8C233.3,108.8,233.5,111.9,233.5,115z"/>
	<path class="st27" d="M151.8,114.5c-0.5,0.2-0.9,0.5-1.4,0.7c0-0.2-0.1-0.5-0.1-0.7L151.8,114.5z M150.5,139.9
		c-0.7-0.1-1.2-0.7-1.2-1.5c0.1-0.7,0.7-1.2,1.5-1.2l2,0.2c-0.1-1.1-0.2-2.3-0.4-3.5l-2.3,0.3c-0.1,0-0.1,0-0.2,0
		c-0.1,0-0.2,0-0.3,0h0c-3.1,1-6.2,2.1-9.2,3.1c2.8,4.3,6.3,8,10.4,11c0.3-0.7,0.5-1.3,0.8-2l-2.3-0.8c-0.7-0.2-1.1-1-0.8-1.7
		c0.2-0.7,1-1.1,1.7-0.8l2.2,0.8c0.3-1.2,0.4-2.4,0.5-3.6v0L150.5,139.9z M197.7,117.9l1.2,0.3c0-0.1,0-0.1,0-0.2
		c0.1-0.2,0.1-0.4,0.1-0.6C198.6,117.6,198.2,117.8,197.7,117.9z M215.9,111.7c-4.4,1.5-9.1,3.1-13.9,4.8c-0.1,0.8-0.3,1.5-0.5,2.3
		l2.3,0.5c0.7,0.2,1.2,0.9,1,1.6c-0.1,0.6-0.7,1.1-1.3,1.1c-0.1,0-0.2,0-0.3,0l-2.5-0.5c-0.2,0.6-0.4,1.2-0.5,1.8
		c-0.2,0.7-0.4,1.4-0.6,2.1l2.4,0.6c0.7,0.2,1.1,0.9,1,1.6c-0.2,0.6-0.7,1-1.3,1c-0.1,0-0.2,0-0.3,0l-2.4-0.6
		c-0.4,1.2-0.7,2.4-0.9,3.6l2.1,0.3c0.7,0.1,1.2,0.8,1.2,1.5c-0.1,0.7-0.7,1.2-1.3,1.2c-0.1,0-0.1,0-0.2,0l-2.3-0.3
		c-0.2,1.2-0.3,2.3-0.4,3.5l2-0.2c0.7-0.1,1.4,0.4,1.5,1.2c0.1,0.7-0.4,1.4-1.2,1.5l-2.4,0.3v0c0.1,1.2,0.2,2.4,0.5,3.6l2.2-0.8
		c0.7-0.2,1.5,0.1,1.7,0.8c0.2,0.7-0.1,1.4-0.8,1.7l-2.3,0.8c0.2,0.6,0.5,1.3,0.8,2c10.3-7.5,17-19.6,17-33.3
		C216.1,113.9,216,112.8,215.9,111.7z M188.2,94l-1,2.1c-0.2,0.5-0.7,0.8-1.2,0.8c-0.2,0-0.4,0-0.6-0.1c-0.7-0.3-0.9-1.1-0.6-1.8
		l1-2.2c-1.1-0.5-2.3-1-3.5-1.4l-0.7,2.3c-0.2,0.6-0.7,0.9-1.3,0.9c-0.1,0-0.3,0-0.4-0.1c-0.7-0.2-1.1-1-0.9-1.7l0.7-2.2
		c-1.2-0.2-2.3-0.4-3.5-0.4v2.3c0,0.7-0.6,1.3-1.3,1.3c-0.7,0-1.3-0.6-1.3-1.3v-2.3c-1.2,0.1-2.4,0.2-3.5,0.4l0.7,2.2
		c0.2,0.7-0.2,1.4-0.9,1.7c-0.1,0-0.3,0.1-0.4,0.1c-0.6,0-1.1-0.4-1.3-0.9l-0.7-2.3c-1.2,0.4-2.3,0.8-3.5,1.4l1,2.2
		c0.3,0.7,0,1.4-0.6,1.8c-0.2,0.1-0.4,0.1-0.6,0.1c-0.5,0-1-0.3-1.2-0.8l-1-2.1c-1,0.6-1.9,1.3-2.8,2l1.6,1.7
		c0.5,0.5,0.5,1.4-0.1,1.9c-0.3,0.3-0.6,0.4-0.9,0.4c-0.4,0-0.7-0.1-1-0.4l-1.7-1.8c-0.8,0.8-1.5,1.7-2.2,2.6c0,0-0.1,0.1-0.1,0.1
		l2,1.2c0.6,0.4,0.8,1.2,0.5,1.8c-0.3,0.4-0.7,0.7-1.1,0.7c-0.2,0-0.5-0.1-0.7-0.2l-2.1-1.2c-0.6,1-1.1,2.1-1.5,3.2l2.4,0.7
		c0.7,0.2,1.1,0.9,0.9,1.6c-0.2,0.6-0.7,1-1.3,1c-0.1,0-0.2,0-0.4-0.1l-2.4-0.7c-0.3,1.2-0.5,2.3-0.5,3.5l2.3,0c0,0,0,0,0,0
		c0.7,0,1.3,0.6,1.3,1.3c0,0.1,0,0.2,0,0.3c7-3.5,14.1-7,21-10.4c5.3-2.6,10.4-5.1,15.4-7.6C189.7,95,189,94.5,188.2,94z M175,73.9
		c-22.6,0-41.1,18.4-41.1,41.1c0,2.8,0.3,5.5,0.8,8.1c4.3-2.2,8.7-4.4,13.2-6.6c-0.1-0.6-0.2-1.3-0.2-1.9l-2.6,0c0,0,0,0,0,0
		c-0.7,0-1.3-0.6-1.3-1.3c0-0.7,0.6-1.3,1.3-1.3l2.5,0c0.1-1.4,0.3-2.9,0.6-4.3l-2.2-0.7c-0.7-0.2-1.1-0.9-0.9-1.6
		c0.2-0.7,0.9-1.1,1.6-0.9l2.3,0.7c0.5-1.3,1.1-2.6,1.8-3.8l-2.1-1.2c-0.6-0.4-0.8-1.2-0.5-1.8c0.4-0.6,1.2-0.8,1.8-0.5l2.1,1.3
		c0.1-0.1,0.2-0.2,0.3-0.4c0.8-1,1.6-2,2.5-2.9l-1.7-1.7c-0.5-0.5-0.5-1.4,0.1-1.9c0.5-0.5,1.4-0.5,1.9,0l1.7,1.8
		c1.1-0.9,2.3-1.8,3.5-2.5l-1.1-2.3c-0.3-0.7,0-1.5,0.6-1.8c0.7-0.3,1.5,0,1.8,0.6l1,2.1c1.2-0.6,2.5-1.1,3.8-1.5l-0.7-2.3
		c-0.2-0.7,0.2-1.4,0.9-1.7c0.7-0.2,1.4,0.2,1.7,0.9l0.7,2.4c1.4-0.3,2.9-0.5,4.3-0.6v-2.5c0-0.7,0.6-1.3,1.3-1.3
		c0.7,0,1.3,0.6,1.3,1.3v2.5c1.5,0.1,2.9,0.3,4.3,0.6h0l0.7-2.4c0.2-0.7,1-1.1,1.7-0.9c0.7,0.2,1.1,1,0.9,1.7l-0.7,2.3
		c1.3,0.4,2.6,0.9,3.8,1.5l1-2.1c0.3-0.7,1.1-1,1.8-0.6c0.7,0.3,0.9,1.1,0.6,1.8l-1.1,2.3c1.2,0.7,2.4,1.6,3.5,2.5l1.7-1.8
		c0.5-0.5,1.3-0.6,1.9,0c0.1,0.1,0.1,0.1,0.2,0.2c3.2-1.6,6.3-3.1,9.2-4.5C198.3,79.4,187.3,73.9,175,73.9z M198.2,120.8
		c-0.2,0.6-0.3,1.1-0.5,1.6c-0.2,0.7-0.4,1.4-0.6,2.2l-2.3-0.6c-0.7-0.2-1.4,0.2-1.6,0.9c-0.2,0.7,0.2,1.4,1,1.6l2.2,0.6
		c-0.4,1.4-0.7,2.7-1,4l-2.6-0.3c-0.7-0.1-1.4,0.4-1.5,1.2c-0.1,0.7,0.4,1.4,1.2,1.5l2.5,0.3c-0.2,1.4-0.4,2.8-0.5,4.1l-2.7,0.3
		c-0.7,0.1-1.2,0.7-1.2,1.5c0.1,0.7,0.7,1.2,1.3,1.2c0.1,0,0.1,0,0.2,0l2.4-0.3c0.1,1.4,0.3,2.8,0.6,4.2v0l-2.4,0.8
		c-0.7,0.2-1.1,1-0.8,1.7c0.2,0.5,0.7,0.9,1.3,0.9c0.1,0,0.3,0,0.4-0.1l2.2-0.8c0.3,0.9,0.6,1.7,1,2.6c-6.3,4-13.8,6.3-21.8,6.3
		c-8,0-15.5-2.3-21.8-6.3c0.4-0.9,0.8-1.7,1-2.6l2.2,0.8c0.1,0.1,0.3,0.1,0.4,0.1c0.6,0,1.1-0.3,1.3-0.9c0.2-0.7-0.1-1.4-0.8-1.7
		l-2.4-0.8c0.3-1.4,0.5-2.8,0.6-4.2l2.4,0.3c0.1,0,0.1,0,0.2,0c0.7,0,1.2-0.5,1.3-1.2c0.1-0.7-0.4-1.4-1.2-1.5l-2.7-0.3
		c-0.1-1.4-0.2-2.7-0.5-4.1l2.5-0.3c0.7-0.1,1.2-0.8,1.2-1.5c0-0.2-0.1-0.4-0.2-0.6c5.5-1.8,11-3.7,16.5-5.6
		c6.8-2.3,13.5-4.6,20-6.8c-0.1,0.7,0.4,1.3,1,1.4L198.2,120.8z M177.9,141.9l4.3-3.3l-5.4-0.1l-1.8-5.1l-1.8,5.1l-5.4,0.1l4.3,3.3
		l-1.6,5.2l4.4-3.1l4.4,3.1L177.9,141.9z"/>
	<path class="st28" d="M159.4,139.6c-0.1,0.7-0.7,1.2-1.3,1.2c-0.1,0-0.1,0-0.2,0l-2.4-0.3c-0.1,1.4-0.3,2.8-0.6,4.2l2.4,0.8
		c0.7,0.2,1.1,1,0.8,1.7c-0.2,0.5-0.7,0.9-1.3,0.9c-0.1,0-0.3,0-0.4-0.1l-2.2-0.8c-0.3,0.9-0.6,1.7-1,2.6c-0.8-0.5-1.5-1-2.2-1.5
		c0.3-0.7,0.5-1.3,0.8-2l-2.3-0.8c-0.7-0.2-1.1-1-0.8-1.7c0.2-0.7,1-1.1,1.7-0.8l2.2,0.8c0.3-1.2,0.4-2.4,0.5-3.6v0l-2.4-0.3
		c-0.7-0.1-1.2-0.7-1.2-1.5c0.1-0.7,0.7-1.2,1.5-1.2l2,0.2c-0.1-1.1-0.2-2.3-0.4-3.5l-2.3,0.3c-0.1,0-0.1,0-0.2,0
		c-0.1,0-0.2,0-0.3,0c0.9-0.3,1.8-0.6,2.6-0.9h0c0.8-0.3,1.7-0.6,2.5-0.9c1.2-0.4,2.4-0.8,3.6-1.2c0.1,0.2,0.2,0.4,0.2,0.6
		c0.1,0.7-0.4,1.4-1.2,1.5l-2.5,0.3c0.2,1.4,0.4,2.8,0.5,4.1l2.7,0.3C159,138.2,159.5,138.8,159.4,139.6z M196.5,92.3
		c-0.5-0.5-1.4-0.5-1.9,0l-1.7,1.8c-1.1-0.9-2.3-1.8-3.5-2.5l1.1-2.3c0.3-0.7,0-1.5-0.6-1.8c-0.7-0.3-1.5,0-1.8,0.6l-1,2.1
		c-1.2-0.6-2.5-1.1-3.8-1.5l0.7-2.3c0.2-0.7-0.2-1.4-0.9-1.7c-0.7-0.2-1.4,0.2-1.7,0.9l-0.7,2.4h0c-1.4-0.3-2.9-0.5-4.3-0.6v-2.5
		c0-0.7-0.6-1.3-1.3-1.3c-0.7,0-1.3,0.6-1.3,1.3v2.5c-1.5,0.1-2.9,0.3-4.3,0.6l-0.7-2.4c-0.2-0.7-1-1.1-1.7-0.9
		c-0.7,0.2-1.1,1-0.9,1.7l0.7,2.3c-1.3,0.4-2.6,0.9-3.8,1.5l-1-2.1c-0.3-0.7-1.1-1-1.8-0.6c-0.7,0.3-1,1.1-0.6,1.8l1.1,2.3
		c-1.2,0.7-2.4,1.6-3.5,2.5l-1.7-1.8c-0.5-0.5-1.3-0.6-1.9,0c-0.5,0.5-0.6,1.3-0.1,1.9l1.7,1.7c-0.9,0.9-1.7,1.9-2.5,2.9
		c-0.1,0.1-0.2,0.2-0.3,0.4l-2.1-1.3c-0.6-0.4-1.4-0.2-1.8,0.5c-0.4,0.6-0.2,1.4,0.5,1.8l2.1,1.2c-0.7,1.2-1.3,2.5-1.8,3.8l-2.3-0.7
		c-0.7-0.2-1.4,0.2-1.6,0.9c-0.2,0.7,0.2,1.4,0.9,1.6l2.2,0.7c-0.4,1.4-0.6,2.8-0.6,4.3l-2.5,0c-0.7,0-1.3,0.6-1.3,1.3
		c0,0.7,0.6,1.3,1.3,1.3c0,0,0,0,0,0l2.6,0c0,0.6,0.1,1.3,0.2,1.9c0.8-0.4,1.7-0.8,2.5-1.2c0-0.2-0.1-0.5-0.1-0.7l1.5,0
		c0.7-0.4,1.4-0.7,2.1-1.1c0-0.1,0-0.2,0-0.3c0-0.7-0.6-1.3-1.3-1.3c0,0,0,0,0,0l-2.3,0c0.1-1.2,0.2-2.3,0.5-3.5l2.4,0.7
		c0.1,0,0.3,0.1,0.4,0.1c0.6,0,1.1-0.4,1.3-1c0.2-0.7-0.2-1.4-0.9-1.6l-2.4-0.7c0.4-1.1,0.9-2.1,1.5-3.2l2.1,1.2
		c0.2,0.1,0.4,0.2,0.7,0.2c0.5,0,0.9-0.2,1.1-0.7c0.4-0.6,0.2-1.4-0.5-1.8l-2-1.2c0,0,0.1-0.1,0.1-0.1c0.7-0.9,1.4-1.8,2.2-2.6
		l1.7,1.8c0.3,0.3,0.6,0.4,1,0.4c0.3,0,0.7-0.1,0.9-0.4c0.5-0.5,0.6-1.3,0.1-1.9l-1.6-1.7c0.9-0.7,1.8-1.4,2.8-2l1,2.1
		c0.2,0.5,0.7,0.8,1.2,0.8c0.2,0,0.4,0,0.6-0.1c0.7-0.3,0.9-1.1,0.6-1.8l-1-2.2c1.1-0.5,2.3-1,3.5-1.4l0.7,2.3
		c0.2,0.6,0.7,0.9,1.3,0.9c0.1,0,0.3,0,0.4-0.1c0.7-0.2,1.1-1,0.9-1.7l-0.7-2.2c1.2-0.2,2.3-0.4,3.5-0.4v2.3c0,0.7,0.6,1.3,1.3,1.3
		c0.7,0,1.3-0.6,1.3-1.3v-2.3c1.2,0.1,2.4,0.2,3.5,0.4l-0.7,2.2c-0.2,0.7,0.2,1.4,0.9,1.7c0.1,0,0.3,0.1,0.4,0.1
		c0.6,0,1.1-0.4,1.3-0.9l0.7-2.3c1.2,0.4,2.3,0.8,3.5,1.4l-1,2.2c-0.3,0.7,0,1.4,0.6,1.8c0.2,0.1,0.4,0.1,0.6,0.1
		c0.5,0,1-0.3,1.2-0.8l1-2.1c0.8,0.5,1.5,1,2.2,1.5c0.7-0.4,1.4-0.7,2.2-1.1c0.2-0.1,0.3-0.2,0.5-0.2c1.2-0.6,2.4-1.2,3.6-1.8
		C196.6,92.4,196.5,92.3,196.5,92.3z M203.9,119.2l-2.3-0.5c0.2-0.8,0.4-1.5,0.5-2.3c-1,0.3-1.9,0.7-2.9,1c0,0.2-0.1,0.4-0.1,0.6
		c0,0.1,0,0.1,0,0.2l-1.2-0.3c-0.9,0.3-1.8,0.6-2.8,1c-0.1,0.7,0.4,1.3,1,1.4l2.2,0.5c-0.2,0.6-0.3,1.1-0.5,1.6
		c-0.2,0.7-0.4,1.4-0.6,2.2l-2.3-0.6c-0.7-0.2-1.4,0.2-1.6,0.9c-0.2,0.7,0.2,1.4,1,1.6l2.2,0.6c-0.4,1.4-0.7,2.7-1,4l-2.6-0.3
		c-0.7-0.1-1.4,0.4-1.5,1.2c-0.1,0.7,0.4,1.4,1.2,1.5l2.5,0.3c-0.2,1.4-0.4,2.8-0.5,4.1l-2.7,0.3c-0.7,0.1-1.2,0.7-1.2,1.5
		c0.1,0.7,0.7,1.2,1.3,1.2c0.1,0,0.1,0,0.2,0l2.4-0.3c0.1,1.4,0.3,2.8,0.6,4.2v0l-2.4,0.8c-0.7,0.2-1.1,1-0.8,1.7
		c0.2,0.5,0.7,0.9,1.3,0.9c0.1,0,0.3,0,0.4-0.1l2.2-0.8c0.3,0.9,0.6,1.7,1,2.6c0.8-0.5,1.5-1,2.2-1.5c-0.3-0.7-0.5-1.3-0.8-2
		l2.3-0.8c0.7-0.2,1.1-1,0.8-1.7c-0.2-0.7-1-1.1-1.7-0.8l-2.2,0.8c-0.3-1.2-0.4-2.4-0.5-3.6v0l2.4-0.3c0.7-0.1,1.2-0.7,1.2-1.5
		c-0.1-0.7-0.7-1.2-1.5-1.2l-2,0.2c0.1-1.1,0.2-2.3,0.4-3.5l2.3,0.3c0.1,0,0.1,0,0.2,0c0.7,0,1.2-0.5,1.3-1.2
		c0.1-0.7-0.4-1.4-1.2-1.5l-2.1-0.3c0.3-1.2,0.6-2.4,0.9-3.6l2.4,0.6c0.1,0,0.2,0,0.3,0c0.6,0,1.1-0.4,1.3-1c0.2-0.7-0.2-1.4-1-1.6
		l-2.4-0.6c0.2-0.7,0.4-1.4,0.6-2.1c0.2-0.6,0.4-1.2,0.5-1.8l2.5,0.5c0.1,0,0.2,0,0.3,0c0.6,0,1.2-0.4,1.3-1.1
		C205,120.1,204.6,119.4,203.9,119.2z"/>
	<path class="st29" d="M249.5,83.8c-1.5-3.7-4.5-6.6-8.2-8c-2.9-1.1-6-1.3-9-0.4c-12.6-18.1-33.6-30-57.3-30
		c-38.4,0-69.7,31.3-69.7,69.7c0,6,0.8,11.8,2.2,17.3c-0.3-0.2-0.6-0.4-1-0.6c-1.3-0.5-2.7-0.5-3.9,0c-2.6,1.1-3.9,4.1-2.8,6.7
		l5.3,12.7c0.8,2,2.7,3.2,4.7,3.2c0.7,0,1.3-0.1,2-0.4c1.7-0.7,2.8-2.1,3.1-3.8c12.1,20.6,34.5,34.5,60.1,34.5
		c38.4,0,69.7-31.3,69.7-69.7c0-4.5-0.4-8.9-1.3-13.2c2.6-1.5,4.6-3.8,5.9-6.6C251,91.6,251,87.5,249.5,83.8z M175,48.5
		c22.3,0,42.2,11.1,54.2,28c-1.4,0.7-2.8,1.4-4.4,2.1c-11.2-15.4-29.4-25.4-49.9-25.4c-34,0-61.7,27.7-61.7,61.7
		c0,6.1,0.9,12.1,2.6,17.7c-1.5,0.8-2.9,1.5-4.3,2.2c-2-6.3-3.1-13-3.1-19.9C108.5,78.3,138.3,48.5,175,48.5z M175,70.7
		c-24.4,0-44.3,19.8-44.3,44.3c0,3.3,0.4,6.5,1.1,9.6c-4.5,2.3-8.9,4.5-13,6.6c-1.5-5.1-2.3-10.6-2.3-16.2
		c0-32.3,26.3-58.5,58.5-58.5c19.2,0,36.3,9.3,46.9,23.6c-3.9,1.9-8.3,4.1-13.1,6.4C200.7,76.9,188.5,70.7,175,70.7z M205.8,87.9
		c-3,1.4-6,3-9.2,4.5c-1.2,0.6-2.4,1.2-3.6,1.8c-0.2,0.1-0.3,0.2-0.5,0.2c-0.7,0.4-1.4,0.7-2.2,1.1c-5,2.4-10.2,5-15.4,7.6
		c-7,3.4-14,6.9-21,10.4c-0.7,0.4-1.4,0.7-2.1,1.1c-0.5,0.2-0.9,0.5-1.4,0.7c-0.8,0.4-1.7,0.8-2.5,1.2c-4.5,2.2-8.9,4.5-13.2,6.6
		c-0.5-2.6-0.8-5.3-0.8-8.1c0-22.6,18.4-41.1,41.1-41.1C187.3,73.9,198.3,79.4,205.8,87.9z M111.6,150c-0.2,0.5-0.6,0.9-1.1,1.1
		c-1,0.4-2.1-0.1-2.5-1.1l-2.5-6.1v0l-2.7-6.6c-0.2-0.5-0.2-1,0-1.5c0.2-0.5,0.6-0.9,1.1-1.1c0.2-0.1,0.5-0.1,0.7-0.1
		c0.8,0,1.5,0.5,1.8,1.2l0.9,2.2l0.8,2v0l0.9,2.1l0,0.1l0.9,2.1l0,0l0.8,2l0.9,2.2C111.8,149,111.8,149.5,111.6,150z M175,181.5
		c-25.7,0-48.1-14.7-59.1-36.1c1.5-0.5,3.1-1,4.6-1.5c10.4,19.5,30.9,32.8,54.5,32.8c34,0,61.7-27.7,61.7-61.7
		c0-3.5-0.3-6.9-0.9-10.2c1.6-0.6,3.2-1.1,4.6-1.6c0.7,3.8,1.1,7.8,1.1,11.8C241.5,151.7,211.6,181.5,175,181.5z M175,159.3
		c24.4,0,44.3-19.8,44.3-44.3c0-1.5-0.1-3-0.2-4.4c5-1.7,9.7-3.3,13.8-4.8c0.5,3,0.7,6.1,0.7,9.2c0,32.3-26.3,58.5-58.5,58.5
		c-22.2,0-41.5-12.4-51.4-30.6c1.5-0.5,3.1-1,4.7-1.5c1.5-0.5,3.1-1,4.7-1.5c1.5-0.5,3-1,4.5-1.5C145.2,150.9,159.2,159.3,175,159.3
		z M140.5,137.3c3-1,6.1-2,9.2-3.1h0c0.9-0.3,1.8-0.6,2.6-0.9h0c0.8-0.3,1.7-0.6,2.5-0.9c1.2-0.4,2.4-0.8,3.6-1.2
		c5.5-1.8,11-3.7,16.5-5.6c6.8-2.3,13.5-4.6,20-6.8c0.9-0.3,1.9-0.6,2.8-1c0.5-0.2,0.9-0.3,1.4-0.5c1-0.3,2-0.7,2.9-1
		c4.8-1.7,9.5-3.3,13.9-4.8c0.1,1.1,0.1,2.2,0.1,3.3c0,13.7-6.7,25.8-17,33.3c-0.7,0.5-1.5,1-2.2,1.5c-6.3,4-13.8,6.3-21.8,6.3
		c-8,0-15.5-2.3-21.8-6.3c-0.8-0.5-1.5-1-2.2-1.5C146.8,145.3,143.3,141.6,140.5,137.3z M246.4,94c-0.8,1.9-2.1,3.4-3.7,4.6
		c-0.5,0.3-0.9,0.6-1.4,0.9c-0.5,0.2-1,0.5-1.5,0.6c0,0,0,0,0,0c-1.4,0.5-2.9,1-4.5,1.6c-0.5,0.2-1,0.4-1.5,0.5
		c-0.5,0.2-1,0.3-1.5,0.5c-4.1,1.4-8.6,3-13.6,4.7c-0.5,0.2-1,0.4-1.5,0.5c-0.5,0.2-1,0.3-1.5,0.5c-3.3,1.1-6.8,2.3-10.3,3.6
		c-1,0.3-1.9,0.7-2.9,1c-0.9,0.3-1.8,0.6-2.7,0.9c-0.6,0.2-1.2,0.4-1.8,0.6h0c-7.3,2.5-15.1,5.2-22.9,7.8c-6.9,2.3-13.9,4.7-20.8,7
		c-0.8,0.3-1.7,0.6-2.5,0.8c-4.4,1.5-8.7,2.9-12.8,4.3c-0.5,0.2-1,0.3-1.5,0.5c-0.5,0.2-1,0.3-1.5,0.5c-4.8,1.6-9.3,3.1-13.7,4.5
		c-0.5,0.2-1,0.3-1.5,0.5c-0.2,0.1-0.3,0.1-0.4,0.1c-0.4,0.1-0.7,0.2-1.1,0.4c-1.6,0.5-3.1,1-4.6,1.5c-0.5,0.2-1,0.3-1.5,0.5
		c0,0-0.1,0-0.1,0l-0.9-2.1l-0.4-0.9l-0.5-1.2c0,0,0.1,0,0.1-0.1c0.5-0.2,0.9-0.5,1.4-0.7c1.4-0.7,2.8-1.5,4.3-2.2
		c0.5-0.2,0.9-0.5,1.4-0.7c0.5-0.2,0.9-0.5,1.4-0.7c4.1-2.1,8.4-4.3,12.9-6.5c0.5-0.2,1-0.5,1.4-0.7c0.5-0.2,1-0.5,1.4-0.7
		c3.2-1.6,6.5-3.3,9.8-4.9c1.1-0.6,2.2-1.1,3.4-1.7c0.8-0.4,1.6-0.8,2.4-1.2c0.3-0.2,0.6-0.3,0.9-0.5c0,0,0,0,0,0
		c7.6-3.8,15.3-7.6,22.9-11.3c4.9-2.4,9.7-4.8,14.4-7.1c1.2-0.6,2.4-1.2,3.6-1.8c0,0,0.1,0,0.1-0.1c0.8-0.4,1.6-0.8,2.4-1.2
		c4.3-2.1,8.5-4.1,12.4-6.1c0.5-0.2,1-0.5,1.5-0.7h0c0.5-0.2,1-0.5,1.4-0.7c4.7-2.3,9.1-4.4,13-6.3c0.5-0.2,1-0.5,1.4-0.7
		c0.5-0.2,1-0.5,1.4-0.7c1.5-0.7,3-1.5,4.3-2.1c0.1,0,0.1,0,0.1-0.1c0.5-0.2,0.9-0.4,1.4-0.6c0.5-0.2,1.1-0.3,1.6-0.4
		c0.6-0.1,1.3-0.2,1.9-0.2c0.4,0,0.8,0,1.2,0.1h0c0.9,0.1,1.8,0.3,2.8,0.7c0.9,0.3,1.7,0.8,2.5,1.3c1.7,1.2,3.1,2.9,4,4.9
		C247.7,87.9,247.7,91.1,246.4,94z"/>
	<path class="st30" d="M246.4,94c-0.8,1.9-2.1,3.4-3.7,4.6c-0.5,0.3-0.9,0.6-1.4,0.9c-0.5,0.2-1,0.5-1.5,0.6c0,0,0,0,0,0
		c-1.4,0.5-2.9,1-4.5,1.6c-0.5,0.2-1,0.4-1.5,0.5c-0.5,0.2-1,0.3-1.5,0.5c-4.1,1.4-8.6,3-13.6,4.7c-0.5,0.2-1,0.4-1.5,0.5
		c-0.5,0.2-1,0.3-1.5,0.5c-3.3,1.1-6.8,2.3-10.3,3.6c-1,0.3-1.9,0.7-2.9,1c-0.9,0.3-1.8,0.6-2.7,0.9c-0.6,0.2-1.2,0.4-1.8,0.6h0
		c-7.3,2.5-15.1,5.2-22.9,7.8c-6.9,2.3-13.9,4.7-20.8,7c-0.8,0.3-1.7,0.6-2.5,0.8c-4.4,1.5-8.7,2.9-12.8,4.3c-0.5,0.2-1,0.3-1.5,0.5
		c-0.5,0.2-1,0.3-1.5,0.5c-4.8,1.6-9.3,3.1-13.7,4.5c-0.5,0.2-1,0.3-1.5,0.5c-0.2,0.1-0.3,0.1-0.4,0.1c-0.4,0.1-0.7,0.2-1.1,0.4
		c-1.6,0.5-3.1,1-4.6,1.5c-0.5,0.2-1,0.3-1.5,0.5c0,0-0.1,0-0.1,0l-0.9-2.1l-0.4-0.9l-0.5-1.2c0,0,0.1,0,0.1-0.1
		c0.5-0.2,0.9-0.5,1.4-0.7c1.4-0.7,2.8-1.5,4.3-2.2c0.5-0.2,0.9-0.5,1.4-0.7c0.5-0.2,0.9-0.5,1.4-0.7c4.1-2.1,8.4-4.3,12.9-6.5
		c0.5-0.2,1-0.5,1.4-0.7c0.5-0.2,1-0.5,1.4-0.7c3.2-1.6,6.5-3.3,9.8-4.9c1.1-0.6,2.2-1.1,3.4-1.7c0.8-0.4,1.6-0.8,2.4-1.2
		c0.3-0.2,0.6-0.3,0.9-0.5c0,0,0,0,0,0c7.6-3.8,15.3-7.6,22.9-11.3c4.9-2.4,9.7-4.8,14.4-7.1c1.2-0.6,2.4-1.2,3.6-1.8c0,0,0,0,0,0
		l0.1-0.1c0.8-0.4,1.6-0.8,2.4-1.2c4.3-2.1,8.5-4.1,12.4-6.1c0.5-0.2,1-0.5,1.5-0.7h0c0.5-0.2,1-0.5,1.4-0.7c4.7-2.3,9.1-4.4,13-6.3
		c0.5-0.2,1-0.5,1.4-0.7c0.5-0.2,1-0.5,1.4-0.7c1.5-0.7,3-1.5,4.3-2.1c0.1,0,0.1,0,0.1-0.1c0.5-0.2,0.9-0.4,1.4-0.6
		c0.5-0.2,1.1-0.3,1.6-0.4c0.6-0.1,1.3-0.2,1.9-0.2c0.4,0,0.8,0,1.2,0.1h0c0.9,0.1,1.8,0.3,2.8,0.7c0.9,0.3,1.7,0.8,2.5,1.3
		c1.7,1.2,3.1,2.9,4,4.9C247.7,87.9,247.7,91.1,246.4,94z M111.6,148.5l-0.9-2.2l-0.8-2l0,0l-0.9-2.1l0-0.1l-0.9-2.1v0l-0.8-2
		l-0.9-2.2c-0.3-0.7-1-1.2-1.8-1.2c-0.3,0-0.5,0-0.7,0.1c-0.5,0.2-0.9,0.6-1.1,1.1c-0.2,0.5-0.2,1,0,1.5l2.7,6.6v0l2.5,6.1
		c0.4,1,1.6,1.5,2.5,1.1c0.5-0.2,0.9-0.6,1.1-1.1C111.8,149.5,111.8,149,111.6,148.5z"/>
</g>
<g id="Layer_10">
</g>
<g id="Layer_9">
</g>
<g id="Layer_2">
</g>
<g id="Layer_3">
</g>
<g id="Layer_4">
</g>
<g id="Layer_5">
</g>
<g id="Layer_6">
</g>
<g id="Layer_7">
</g>
</svg>
