<?xml version="1.0" encoding="utf-8"?>
<!-- Generator: Adobe Illustrator 27.8.1, SVG Export Plug-In . SVG Version: 6.00 Build 0)  -->
<svg version="1.1" xmlns="http://www.w3.org/2000/svg" xmlns:xlink="http://www.w3.org/1999/xlink" x="0px" y="0px"
	 viewBox="0 0 350 230" style="enable-background:new 0 0 350 230;" xml:space="preserve">
<style type="text/css">
	.st0{fill:#FF9D00;}
	.st1{fill:url(#SVGID_1_);}
	.st2{opacity:0.22;fill:url(#SVGID_00000044136558960356556730000011274737792473130670_);}
	.st3{fill:#FFC200;}
	.st4{fill:#778718;}
	.st5{fill:#E0B017;}
	.st6{fill:#664407;}
	.st7{fill:#9E690A;}
	.st8{fill:#7F1105;}
	.st9{fill:#191933;}
	.st10{fill:#FCEBD4;}
	.st11{fill:#E3DFD6;}
	.st12{fill:#FFB000;}
	.st13{fill:#AA210E;}
	.st14{fill:#FFF0A6;}
	.st15{fill:#FFDA00;}
	.st16{fill:#F4F4F4;}
	.st17{fill:#DC5C28;}
	.st18{fill:#FF8440;}
	.st19{fill:#C45224;}
	.st20{fill:#2C4369;}
	.st21{fill:#2A72DB;}
	.st22{fill:#C65500;}
	.st23{fill:#C15746;}
	.st24{fill:#FF8C00;}
	.st25{fill:#FFEA2C;}
	.st26{fill:#F7FF57;}
	.st27{fill:#FFFFFF;}
	.st28{fill:#D64949;}
	.st29{fill:#353535;}
	.st30{fill:#FFC783;}
	.st31{fill:#3F7F91;}
	.st32{fill:#25BDE5;}
	.st33{fill:#8CDD00;}
	.st34{fill:#D1FF88;}
	.st35{fill:#333333;}
	.st36{fill:#FF9000;}
	.st37{fill:#A1A813;}
	.st38{fill:#B3C40E;}
	.st39{fill:#CACE72;}
	.st40{fill:url(#SVGID_00000150088418261537742600000018088127321778521009_);}
	.st41{fill:#93E800;}
	.st42{fill:#3CB7D3;}
	.st43{fill:#FF7631;}
	.st44{fill:#E6873C;}
	.st45{fill:#30657F;}
	.st46{fill:#FF7A40;}
	.st47{fill:#FFAD4A;}
	.st48{fill:#BC8E3B;}
	.st49{fill:#E2E2E2;}
	.st50{fill:#F2B844;}
	.st51{fill:#AF3838;}
	.st52{fill:#17B5C1;}
	.st53{fill:#A88643;}
	.st54{fill-rule:evenodd;clip-rule:evenodd;fill:#DD7928;}
	.st55{fill:#E6E7E8;stroke:#CFCFCF;stroke-width:0.1061;}
	.st56{fill-rule:evenodd;clip-rule:evenodd;fill:#204F7A;}
	.st57{fill-rule:evenodd;clip-rule:evenodd;fill:#50A4FF;}
	.st58{fill:#002649;}
</style>
<g id="Layer_1">
</g>
<g id="Layer_12">
</g>
<g id="Layer_13">
</g>
<g id="Layer_14">
</g>
<g id="Layer_15">
</g>
<g id="Layer_11">
</g>
<g id="Layer_8">
</g>
<g id="Layer_10">
</g>
<g id="Layer_9">
	<path class="st33" d="M227.8,126C227.8,126,227.8,126,227.8,126c-0.6,0-1.1,0-1.6,0c-5,23.6-26.1,41.4-51.1,41.4
		c-25.1,0-46.1-17.8-51.1-41.4c-0.5,0-1.1,0-1.6,0c0,0,0,0,0,0c-0.9,0-1.8,0-2.7-0.1c5.1,26,28,45.6,55.5,45.6
		c27.4,0,50.4-19.7,55.4-45.6C229.6,125.9,228.7,126,227.8,126z M175,58.5c-18.2,0-34.4,8.6-44.7,22c1.5,0.4,2.9,0.8,4.2,1.4
		c9.6-11.7,24.2-19.2,40.5-19.2c16.3,0,30.9,7.5,40.5,19.2c1.4-0.6,2.8-1.1,4.2-1.4C209.4,67.1,193.2,58.5,175,58.5z"/>
	<path class="st29" d="M147.3,100.3c0,0.1,0,0.1-0.1,0.2l0,0L147.3,100.3L147.3,100.3z"/>
	<path class="st34" d="M212.9,83.3c-2.1,1.3-4,2.8-5.6,4.7c-2.5,2.9-4.3,5.4-5.4,7c-6-8.5-15.8-14-27-14c-11.1,0-21,5.5-27,14
		c-1.1-1.6-2.9-4.1-5.4-7c-1.1-1.2-2.2-2.3-3.5-3.2v0c-0.7-0.5-1.4-1-2.1-1.4c9.1-10.8,22.7-17.7,37.9-17.7c7.9,0,15.3,1.8,21.9,5.1
		c0,0,0,0,0,0c0,0,0,0,0,0C203.1,73.8,208.6,78.1,212.9,83.3z M223.3,125.7c-4.9,22.2-24.7,38.8-48.3,38.8
		c-19.4,0-36.2-11.2-44.3-27.5c0,0,0,0,0,0c-1.8-3.6-3.1-7.3-4-11.3c0.3,0,0.6-0.1,0.8-0.1c5.2-0.8,10.2-2.9,14.9-6.1
		C145,135,158.7,147,175,147c16.3,0,30-12,32.5-27.6C212.6,122.8,217.8,124.9,223.3,125.7z M162.7,155.5c0-1.2-1-2.2-2.2-2.2
		c-1.2,0-2.2,1-2.2,2.2c0,1.2,1,2.2,2.2,2.2C161.7,157.7,162.7,156.7,162.7,155.5z M177.2,156.8c0-1.2-1-2.2-2.2-2.2
		c-1.2,0-2.2,1-2.2,2.2c0,1.2,1,2.2,2.2,2.2C176.2,159,177.2,158,177.2,156.8z M191.7,155.5c0-1.2-1-2.2-2.2-2.2
		c-1.2,0-2.2,1-2.2,2.2c0,1.2,1,2.2,2.2,2.2C190.7,157.7,191.7,156.7,191.7,155.5z"/>
	<path class="st35" d="M162.7,155.5c0,1.2-1,2.2-2.2,2.2c-1.2,0-2.2-1-2.2-2.2c0-1.2,1-2.2,2.2-2.2
		C161.7,153.3,162.7,154.3,162.7,155.5z M189.5,153.3c-1.2,0-2.2,1-2.2,2.2c0,1.2,1,2.2,2.2,2.2c1.2,0,2.2-1,2.2-2.2
		C191.7,154.3,190.7,153.3,189.5,153.3z M268.7,94.6l-0.5,1.2c-1.5,3.7-4.1,6.4-7.7,7.9c-1.3,0.5-2.7,0.9-4.1,1.1
		c1.3,0.6,2.5,1.2,3.7,1.7l1.6,0.8l-1.2,1.4c-3.4,4-7.7,6.1-11.9,7h0l-1,1.7c-0.2,0.3-3.9,6.4-14.3,8c-5,27.7-29.3,48.8-58.4,48.8
		c-29.1,0-53.4-21.1-58.4-48.8c-10.5-1.7-14.2-7.7-14.3-8l-1-1.7l0,0c-4.2-0.9-8.5-3-11.9-7l-1.2-1.4l1.6-0.8
		c1.2-0.6,2.4-1.2,3.7-1.7c-1.4-0.2-2.8-0.6-4.1-1.1c-3.6-1.5-6.3-4.2-7.7-7.9l-0.5-1.2l1.2-0.6c14.5-6.9,27.6-11.1,36.1-13.4
		c2.8-0.8,5.7-1,8.6-0.7C138,65.3,155.4,55.7,175,55.7c19.6,0,37,9.6,47.8,24.3c2.8-0.3,5.7-0.1,8.6,0.7c8.5,2.3,21.6,6.5,36.1,13.4
		L268.7,94.6z M130.3,80.5c1.5,0.4,2.9,0.8,4.2,1.4c9.6-11.7,24.2-19.2,40.5-19.2c16.3,0,30.9,7.5,40.5,19.2
		c1.4-0.6,2.8-1.1,4.2-1.4c-10.3-13.4-26.5-22-44.7-22C156.8,58.5,140.6,67.1,130.3,80.5z M204.7,108.8L204.7,108.8
		c-0.1-0.5-0.2-0.9-0.3-1.4c-0.1-0.6-0.3-1.2-0.5-1.8c0-0.1-0.1-0.3-0.1-0.4c-0.1-0.5-0.3-0.9-0.5-1.4c-0.2-0.5-0.3-0.9-0.5-1.4
		c-0.1-0.1-0.1-0.3-0.2-0.4c-0.6-1.4-1.3-2.7-2.1-4c0,0,0,0,0,0c-2.5-3.9-5.8-7.3-9.7-9.7c-0.5-0.3-1-0.6-1.5-0.9
		c-1.3-0.7-2.6-1.3-3.9-1.8c0,0,0,0,0,0c-3.1-1.2-6.5-1.8-10-1.9c-0.2,0-0.3,0-0.5,0c-0.2,0-0.3,0-0.5,0c-5,0.1-9.8,1.4-13.9,3.7
		c-0.5,0.3-1,0.6-1.5,0.9c-3.9,2.4-7.3,5.8-9.7,9.7v0c0,0,0,0,0,0c-0.8,1.3-1.5,2.6-2.1,4c-0.1,0.1-0.1,0.3-0.2,0.4
		c-0.2,0.5-0.4,0.9-0.5,1.4c-0.2,0.5-0.3,0.9-0.5,1.4c0,0.1-0.1,0.3-0.1,0.4c-0.2,0.6-0.3,1.2-0.5,1.8c-0.1,0.5-0.2,0.9-0.3,1.4
		c-0.1,0.5-0.2,0.9-0.2,1.4c-0.2,1.2-0.2,2.5-0.2,3.8c0,0.6,0,1.2,0.1,1.8c0,0.6,0.1,1.1,0.2,1.7c0.1,0.8,0.2,1.6,0.4,2.4
		c0.3,1.6,0.7,3.1,1.3,4.5c0.6,1.7,1.4,3.4,2.3,4.9c1.5,2.5,3.4,4.8,5.5,6.8c0.7,0.6,1.4,1.2,2.1,1.8c5,3.8,11.2,6.1,17.9,6.2
		c0.2,0,0.3,0,0.5,0c0.2,0,0.3,0,0.5,0c6.7-0.1,12.9-2.4,17.9-6.2l0,0c0.7-0.6,1.4-1.2,2.1-1.8l0,0c3.5-3.2,6.2-7.2,7.9-11.7
		c0.5-1.5,1-3,1.3-4.5c0.2-0.8,0.3-1.6,0.4-2.4c0.1-0.6,0.1-1.1,0.2-1.7c0-0.6,0.1-1.2,0.1-1.8c0-1.3-0.1-2.6-0.2-3.8
		C204.9,109.7,204.8,109.3,204.7,108.8z M175,147c-16.4,0-30-12-32.6-27.6c-4.8,3.3-9.8,5.3-14.9,6.1c-0.3,0-0.6,0.1-0.8,0.1
		c0.9,4,2.2,7.8,4,11.3c0,0,0,0,0,0c8.1,16.3,24.9,27.5,44.3,27.5c23.6,0,43.4-16.6,48.3-38.8c-5.5-0.7-10.7-2.8-15.8-6.3
		C205,135,191.3,147,175,147z M207.3,88c1.6-1.9,3.5-3.4,5.6-4.7c-4.4-5.2-9.8-9.5-15.9-12.6c0,0,0,0,0,0c0,0,0,0,0,0
		c-6.6-3.3-14.1-5.1-21.9-5.1c-15.2,0-28.9,6.9-37.9,17.7c0.7,0.4,1.4,0.9,2.1,1.4v0c1.3,0.9,2.4,2,3.5,3.2c2.5,2.9,4.3,5.4,5.4,7
		c6-8.5,15.8-14,27-14c11.1,0,21,5.5,27,14C203,93.4,204.8,90.9,207.3,88z M94.7,102.2c2.7,0.3,5.6-0.2,8.3-1.3c0,0,0,0,0,0l7.7-3
		c1.3-0.5,2.7-1,4-1.5c1.4-0.5,2.7-1,4.1-1.4c0.1,0,0.2-0.1,0.4-0.1c0.3-0.1,0.5-0.2,0.8-0.3c0.3-0.1,0.6-0.2,0.9-0.2
		c0.6-0.1,1.1-0.3,1.7-0.4c0.1,0,0.3-0.1,0.4-0.1c0.3,0,0.6-0.1,0.8-0.1c0.7-0.1,1.3-0.1,2-0.2c0.5,0,1,0,1.5,0h0.1
		c0.2,0,0.3,0,0.5,0c0.2,0,0.3,0,0.4,0c0.2,0,0.3,0,0.5,0c0.5,0,1,0.1,1.5,0.2l0.1,0c0.2,0,0.4,0.1,0.6,0.1c0.3,0.1,0.6,0.1,0.9,0.2
		c0.2,0,0.4,0.1,0.6,0.1c0.1,0,0.1,0,0.2,0c0.3,0.1,0.6,0.2,0.9,0.3c0.2,0.1,0.4,0.1,0.6,0.2l0.3,0.1c0.1,0,0.3,0.1,0.4,0.1
		c0.1,0,0.3,0.1,0.4,0.2c0.2,0.1,0.4,0.2,0.6,0.2c0.3,0.1,0.5,0.2,0.8,0.3c0.5,0.2,0.9,0.4,1.4,0.7c0.1,0.1,0.3,0.2,0.4,0.2
		c0.4,0.2,0.9,0.5,1.3,0.8c0.4,0.3,0.9,0.6,1.3,0.8c0.1,0.1,0.2,0.1,0.2,0.2c0.2,0.1,0.3,0.2,0.5,0.3c0.4,0.3,0.8,0.5,1.2,0.8
		c0.5,0.3,0.9,0.6,1.3,0.9c0.1,0.1,0.3,0.2,0.4,0.3c0.2-0.5,0.5-1,0.7-1.5c0.3-0.6,0.6-1.1,0.9-1.6v0c-0.8-1.3-2.8-4.2-5.8-7.8
		c-0.9-1.1-2-2.1-3.1-2.9c-0.7-0.5-1.4-1-2.1-1.4c-0.4-0.2-0.8-0.5-1.3-0.7c-0.4-0.2-0.9-0.4-1.3-0.6c-1.4-0.6-2.8-1-4.3-1.3
		c-0.5-0.1-1-0.2-1.6-0.2c-0.5-0.1-1.1-0.1-1.6-0.1c-2-0.1-4,0.2-6,0.7C111.2,85.6,98.7,89.5,85,96c1.2,2.3,3.2,4.1,5.6,5.2
		C91.9,101.7,93.3,102,94.7,102.2z M112.5,113c0.8-0.2,1.6-0.5,2.3-0.7l0.5-0.1c0.2,0,0.3-0.1,0.5-0.1c0.1,0,0.2,0,0.2-0.1
		c0.4-0.1,0.7-0.2,1.1-0.3l1.6-0.5l0.9-0.3c0.6-0.2,1.2-0.4,1.7-0.6c0.6-0.2,1.2-0.4,1.7-0.6c0.5-0.2,1-0.4,1.5-0.6
		c0.5-0.2,1-0.4,1.5-0.6c0.7-0.3,1.3-0.5,1.9-0.8c0,0,0.1,0,0.1,0c0.2-0.1,0.5-0.2,0.7-0.3c0.2-0.1,0.4-0.1,0.6-0.2c0,0,0,0,0,0
		c0.1,0,0.2-0.1,0.3-0.1c0.3-0.1,0.5-0.2,0.8-0.2c0.2-0.1,0.5-0.1,0.7-0.2c0.1,0,0.2,0,0.2,0c0.2,0,0.4-0.1,0.5-0.1c0,0,0.1,0,0.1,0
		c0.1,0,0.2,0,0.4-0.1c0.3,0,0.5-0.1,0.7-0.1c0.3,0,0.5,0,0.7-0.1c0.1,0,0.1,0,0.2,0c0.3,0,0.5,0,0.8,0c0,0,0,0,0,0
		c0.6,0,1.3,0,1.9,0.1c0.6,0.1,1.2,0.1,1.8,0.2c0.3,0,0.6,0.1,0.9,0.1c0.3,0,0.7,0.1,1,0.1c0.3,0,0.6,0.1,1,0.1c0.2,0,0.4,0,0.5,0.1
		c0.3,0,0.5,0.1,0.7,0.1c0,0,0,0,0,0c0,0,0,0,0,0c0.1-0.6,0.3-1.2,0.4-1.8c0.2-0.6,0.3-1.2,0.5-1.8c0,0,0,0,0,0
		c-0.1,0-0.1-0.1-0.2-0.1c-0.9-0.7-2.1-1.5-3.4-2.3c-0.2-0.1-0.4-0.3-0.6-0.4c-0.4-0.3-0.8-0.5-1.2-0.8c-0.3-0.2-0.6-0.4-0.9-0.5
		c-0.2-0.1-0.3-0.2-0.5-0.3c-0.3-0.2-0.7-0.4-1-0.5c-0.2-0.1-0.3-0.2-0.5-0.2c-0.2-0.1-0.3-0.2-0.5-0.2c-0.3-0.1-0.6-0.2-0.8-0.3
		c-0.2-0.1-0.4-0.2-0.7-0.2c-0.7-0.2-1.4-0.4-2-0.6c-0.8-0.2-1.5-0.3-2.3-0.4c-0.5-0.1-1-0.1-1.5-0.1c-0.5,0-1,0-1.5,0
		c-0.1,0-0.3,0-0.4,0c-0.7,0-1.4,0.1-2.1,0.2c-0.2,0-0.3,0-0.5,0.1c-0.4,0.1-0.8,0.1-1.2,0.2c-0.2,0-0.4,0.1-0.6,0.1
		c-0.6,0.1-1.1,0.3-1.6,0.5h0c-0.6,0.2-1.1,0.4-1.6,0.6c-2.3,0.8-4.6,1.6-6.8,2.5c-0.5,0.2-1,0.4-1.6,0.6c-1.9,0.7-3.8,1.5-5.7,2.2
		c-4.1,1.6-7.8,3.2-11.2,4.8c3.3,3.2,7.3,4.6,11.1,5.1h0C107.2,113.8,110.4,113.5,112.5,113z M119.1,123c1,0.1,2,0.1,3.2,0.1
		c0,0,0,0,0,0c0.4,0,0.7,0,1.1,0c0.5,0,0.9,0,1.4-0.1c0.5,0,0.9-0.1,1.4-0.1c0.3,0,0.7-0.1,1-0.2c5.2-0.8,10.2-3,14.9-6.5
		c-0.1-0.7-0.1-1.5-0.1-2.2c0-1.4,0.1-2.8,0.3-4.2c-0.2,0-0.4-0.1-0.7-0.1c-0.3,0-0.7-0.1-1.1-0.1c-0.4,0-0.7-0.1-1.1-0.1
		c-0.7-0.1-1.3-0.2-2-0.2c-0.3,0-0.6-0.1-0.9-0.1c-2.5-0.3-5.1,0.1-7.5,1.1c-0.5,0.2-1,0.4-1.5,0.6c-0.6,0.2-1.1,0.5-1.8,0.7
		c-0.5,0.2-0.9,0.4-1.4,0.6c-0.5,0.2-0.9,0.3-1.4,0.5c-0.5,0.2-1,0.4-1.6,0.6c-0.3,0.1-0.7,0.2-1.1,0.4c-0.5,0.2-1.1,0.4-1.6,0.6
		c-0.5,0.2-0.9,0.3-1.4,0.5c-0.5,0.2-0.9,0.3-1.4,0.4c-0.8,0.2-1.6,0.5-2.5,0.7c-0.8,0.2-2,0.6-3.3,0.9c-1.3,0.4-2.7,0.7-3.9,1
		c1.6,1.6,4.7,3.9,10.2,5c0.5,0.1,0.9,0.2,1.5,0.2C118.1,122.9,118.6,123,119.1,123z M230.4,125.9c-0.9,0.1-1.7,0.1-2.7,0.1
		c0,0,0,0,0,0c-0.5,0-1.1,0-1.6,0c-5,23.6-26.1,41.4-51.1,41.4c-25.1,0-46.1-17.8-51.1-41.4c-0.5,0-1.1,0-1.6,0c0,0,0,0,0,0
		c-0.9,0-1.8,0-2.7-0.1c5.1,26,28,45.6,55.5,45.6C202.4,171.5,225.4,151.8,230.4,125.9z M244,117.6c-2.5-0.6-5.5-1.5-7.2-1.9
		c0,0,0,0,0,0l-1.2-0.4c-0.4-0.1-0.8-0.2-1.2-0.4c0,0,0,0,0,0c0,0,0,0,0,0c0,0,0,0-0.1,0l0,0c-0.1,0-0.1,0-0.2-0.1c0,0,0,0-0.1,0h0
		c0,0,0,0,0,0c0,0-0.1,0-0.1,0l0,0c0,0,0,0,0,0c0,0,0,0,0,0c0,0,0,0-0.1,0c-0.1,0-0.2,0-0.2-0.1c0,0,0,0,0,0c0,0-0.1,0-0.1,0
		l-0.4-0.1c-0.5-0.2-0.9-0.3-1.4-0.5c-0.2-0.1-0.4-0.1-0.5-0.2c-0.4-0.1-0.7-0.2-1.1-0.4l-2.1-0.7c-0.2-0.1-0.4-0.1-0.6-0.2
		c-0.5-0.2-1-0.4-1.4-0.5c-0.5-0.2-1-0.4-1.5-0.6v0c-1.2-0.5-2.3-0.9-3.3-1.3c-2.4-1-4.9-1.4-7.5-1.1c-0.3,0-0.6,0.1-0.9,0.1
		c-0.7,0.1-1.4,0.2-2.1,0.2c-0.4,0-0.7,0.1-1.1,0.1c-0.2,0-0.4,0-0.5,0.1c-0.4,0-0.7,0.1-1,0.1c-0.1,0-0.1,0-0.2,0
		c0.2,1.4,0.3,2.8,0.3,4.2c0,0.7,0,1.5-0.1,2.2c5.1,3.7,10.4,6,15.9,6.7c0.5,0.1,0.9,0.1,1.4,0.1c0.5,0,0.9,0.1,1.4,0.1
		c0.4,0,0.7,0,1.1,0c0,0,0,0,0,0c1.1,0,2.2,0,3.2-0.1c0.5,0,1-0.1,1.5-0.2c0.5-0.1,1-0.2,1.4-0.2C239.3,121.6,242.4,119.2,244,117.6
		z M246.2,103.6c0,0-0.1,0-0.1-0.1c0,0,0,0-0.1,0c0,0,0,0,0,0c-0.4-0.2-0.9-0.4-1.3-0.5c-0.5-0.2-0.9-0.4-1.4-0.5
		c-0.9-0.4-1.9-0.7-2.9-1.1c0,0,0,0-0.1,0c-0.5-0.2-1-0.4-1.5-0.5c-0.3-0.1-0.5-0.2-0.8-0.3c-0.2-0.1-0.4-0.1-0.6-0.2
		c-0.3-0.1-0.6-0.2-0.9-0.3c-0.6-0.2-1.3-0.5-1.9-0.7c-0.3-0.1-0.7-0.2-1-0.4c-0.2-0.1-0.5-0.2-0.7-0.3c-0.3-0.1-0.6-0.2-1-0.3
		c-0.5-0.2-1.1-0.4-1.6-0.6h0c-0.5-0.2-1.1-0.3-1.6-0.5c-0.2-0.1-0.4-0.1-0.6-0.1c-0.4-0.1-0.8-0.2-1.2-0.2c-0.1,0-0.3,0-0.4-0.1
		c0,0,0,0-0.1,0c-0.5-0.1-0.9-0.1-1.4-0.2c-0.2,0-0.4,0-0.6,0h0c-0.1,0-0.3,0-0.4,0c-0.5,0-1,0-1.5,0c-0.5,0-1,0.1-1.5,0.1
		c-0.2,0-0.4,0-0.6,0.1c-0.2,0-0.4,0.1-0.6,0.1c-0.2,0-0.4,0.1-0.6,0.1c-0.1,0-0.3,0.1-0.4,0.1c-0.2,0-0.3,0.1-0.5,0.1
		c-0.2,0-0.4,0.1-0.6,0.2c-0.3,0.1-0.6,0.2-0.9,0.3c-0.2,0.1-0.4,0.1-0.6,0.2c-0.2,0.1-0.5,0.2-0.7,0.3c-0.2,0.1-0.4,0.2-0.6,0.2
		c-0.5,0.2-1,0.5-1.5,0.7c-0.2,0.1-0.4,0.2-0.6,0.3c-0.1,0.1-0.3,0.2-0.4,0.2c-0.2,0.1-0.5,0.3-0.7,0.4c-0.6,0.4-1.2,0.8-1.8,1.1
		c-0.4,0.2-0.7,0.5-1.1,0.7c-0.7,0.5-1.3,0.9-1.9,1.3c-0.1,0.1-0.3,0.2-0.4,0.3c-0.1,0-0.1,0.1-0.2,0.1c0,0,0,0,0,0
		c0.2,0.6,0.4,1.2,0.5,1.8c0.2,0.6,0.3,1.2,0.4,1.8c0,0,0,0,0,0c0,0,0,0,0,0c0.1,0,0.1,0,0.2,0c0.3,0,0.7-0.1,1-0.1
		c0.3,0,0.6-0.1,1-0.1c0.3,0,0.7-0.1,1-0.1c0.3,0,0.6-0.1,0.9-0.1c0.6-0.1,1.2-0.1,1.8-0.2c0.6-0.1,1.3-0.1,1.9-0.1
		c2.4,0,4.8,0.5,7,1.4c0.6,0.2,1.2,0.5,1.9,0.8c0.5,0.2,1,0.4,1.5,0.6c0.5,0.2,1,0.4,1.5,0.6c1.3,0.5,2.8,1,4.4,1.5
		c0.5,0.2,1,0.3,1.4,0.5c0.5,0.2,0.9,0.3,1.4,0.5c0.5,0.2,1.1,0.3,1.6,0.5c0.6,0.2,1.1,0.3,1.7,0.5c2.1,0.5,5.2,0.9,8.6,0.4
		c3.8-0.5,7.8-1.9,11.1-5.1C253.9,106.8,250.2,105.2,246.2,103.6z M265,96c-13.8-6.5-26.2-10.4-34.4-12.6c-2-0.5-4-0.8-6-0.7
		c-0.5,0-1.1,0-1.6,0.1c-0.5,0.1-1.1,0.1-1.6,0.2c-1.5,0.3-2.9,0.7-4.3,1.3c-0.4,0.2-0.9,0.4-1.3,0.6c-0.4,0.2-0.9,0.4-1.3,0.7
		c-1.9,1.1-3.7,2.6-5.2,4.3c-3.1,3.6-5,6.5-5.8,7.8c0.3,0.5,0.6,1.1,0.9,1.6c0.2,0.5,0.5,1,0.7,1.5c0.9-0.7,2.1-1.4,3.4-2.3
		c0.5-0.3,1-0.6,1.5-1c0.3-0.2,0.5-0.3,0.8-0.5c0.2-0.1,0.5-0.3,0.7-0.4c0.3-0.2,0.6-0.3,0.8-0.4c0.2-0.1,0.5-0.2,0.7-0.3
		c0.2-0.1,0.4-0.2,0.6-0.3c0,0,0,0,0.1,0c0.2-0.1,0.3-0.1,0.5-0.2c0.3-0.1,0.6-0.3,1-0.4c0,0,0.1,0,0.1-0.1c0.3-0.1,0.6-0.2,0.9-0.3
		c0.3-0.1,0.6-0.2,0.9-0.3c0.6-0.1,1.1-0.3,1.7-0.4c0.3,0,0.5-0.1,0.8-0.1c0.5-0.1,1-0.1,1.5-0.2c0,0,0,0,0,0c0.2,0,0.3,0,0.5,0h0
		c0.1,0,0.3,0,0.4,0c0.2,0,0.4,0,0.5,0h0c0.5,0,1,0,1.5,0c0.7,0,1.3,0.1,2,0.2c0.3,0,0.6,0.1,0.8,0.1c0.1,0,0.3,0,0.4,0.1
		c0.6,0.1,1.1,0.2,1.7,0.4c0.3,0.1,0.6,0.2,0.9,0.2c0.3,0.1,0.5,0.2,0.8,0.3c0.1,0,0.2,0.1,0.4,0.1c5.6,1.9,10.9,3.9,15.9,5.9
		c2.7,1.1,5.6,1.6,8.3,1.3c1.4-0.1,2.8-0.5,4.1-1C261.9,100.1,263.8,98.3,265,96z M175,154.6c-1.2,0-2.2,1-2.2,2.2
		c0,1.2,1,2.2,2.2,2.2c1.2,0,2.2-1,2.2-2.2C177.2,155.5,176.2,154.6,175,154.6z"/>
	<path class="st36" d="M167.4,93.4c-7,1.7-13.2,5.8-17.2,11.6c-1.2,1.7-2.1,3.5-2.9,5.3v0l0,0c0,0.1,0,0.1-0.1,0.2
		c-0.3,0.8-0.6,1.6-0.8,2.5c-0.4,1.3-0.7,2.7-0.8,4c-0.1,0.9-0.2,1.9-0.2,2.8c-0.2-0.8-0.3-1.6-0.4-2.4c-0.1-0.6-0.1-1.1-0.2-1.7
		c0-0.6-0.1-1.2-0.1-1.8c0-1.3,0.1-2.6,0.2-3.8c0.1-0.5,0.1-0.9,0.2-1.4c0.1-0.5,0.2-0.9,0.3-1.4c0.1-0.6,0.3-1.2,0.5-1.8
		c0-0.1,0.1-0.3,0.1-0.4c0.1-0.5,0.3-0.9,0.5-1.4c0.2-0.5,0.3-0.9,0.5-1.4c0,0,0.1,0,0.1,0.1l0.1-0.4c0.6-1.4,1.3-2.7,2.1-4
		c0,0,0,0,0,0v0c2.4-3.9,5.8-7.3,9.7-9.7c1-0.1,2.2,0,3.4,0.3C164.5,89.3,166.5,90.6,167.4,93.4z M167.7,94.4
		c-6.8,1.7-12.8,5.6-16.7,11.2c-2.9,4.1-4.4,8.8-4.6,13.6c-0.1,1.8,0,3.5,0.3,5.3c0.6,1.7,1.4,3.4,2.3,4.9c1.5,2.5,3.4,4.8,5.5,6.8
		c-2.9-6.1-2.5-14.3,0.4-20.1c1.7-3.2,4.1-6,6.4-8.8C165.3,102.8,168.6,98.9,167.7,94.4z M160.6,87.5c1,0.1,2,0.3,3,0.6
		c2,0.7,3.8,2.2,4.7,5.1c2-0.4,4.1-0.7,6.2-0.7v-8.7C169.5,83.9,164.7,85.2,160.6,87.5z M168.6,94.1c1.1,5-2.6,9.3-6.5,13.8
		c-2.3,2.7-4.7,5.5-6.3,8.6c-3.2,6.2-3.3,15.5,0.9,21.4c5,3.8,11.2,6.1,17.9,6.2V93.5C172.5,93.5,170.5,93.7,168.6,94.1z
		 M204.9,110.2c-0.1-0.5-0.1-0.9-0.2-1.4c0,0,0,0,0,0c0,0,0,0,0,0c-0.1-0.5-0.2-0.9-0.3-1.4c-0.1-0.6-0.3-1.2-0.5-1.8
		c0-0.1-0.1-0.3-0.1-0.4c-0.1-0.5-0.3-0.9-0.5-1.4c-0.2-0.5-0.3-0.9-0.5-1.4c-0.1-0.1-0.1-0.3-0.2-0.4c-0.6-1.4-1.3-2.7-2.1-4
		c0,0,0,0,0,0c-2.5-3.9-5.8-7.3-9.7-9.7c-2.6-0.1-6.8,0.5-8.3,5.1c7,1.7,13.2,5.8,17.2,11.6c1.2,1.7,2.1,3.5,2.9,5.3c0,0,0,0,0,0v0
		c0,0,0,0,0,0c0,0.1,0,0.1,0.1,0.2c0.8,2.1,1.4,4.3,1.7,6.5c0.1,0.9,0.2,1.9,0.2,2.8c0.2-0.8,0.3-1.6,0.4-2.4
		c0.1-0.6,0.1-1.1,0.2-1.7c0-0.6,0.1-1.2,0.1-1.8C205.2,112.7,205.1,111.4,204.9,110.2z M185.5,85.7
		C185.5,85.7,185.4,85.7,185.5,85.7c-3.1-1.2-6.5-1.8-10-1.9v8.7c2.1,0,4.2,0.3,6.2,0.7c1.4-4.4,4.9-5.6,7.7-5.8
		C188.1,86.8,186.8,86.2,185.5,85.7z M194.2,116.5c-1.6-3.1-4-5.9-6.3-8.6c-3.9-4.5-7.5-8.8-6.5-13.8c-1.9-0.4-3.9-0.6-5.9-0.7v50.7
		c6.7-0.1,12.9-2.4,17.9-6.2l0,0C197.5,132,197.4,122.7,194.2,116.5z M199,105.6c-3.9-5.6-9.9-9.6-16.7-11.2c-1,4.5,2.4,8.5,6.3,13
		c2.3,2.7,4.8,5.5,6.4,8.8c3,5.7,3.4,13.9,0.4,20.1c3.5-3.2,6.2-7.2,7.9-11.7C204.4,117.8,202.9,111.2,199,105.6z"/>
	<path class="st27" d="M146.4,97.6L146.4,97.6c-0.3,0.6-0.6,1.1-0.9,1.6c-0.2,0.5-0.5,1-0.7,1.5c-0.1-0.1-0.3-0.2-0.4-0.3
		c-0.4-0.3-0.9-0.6-1.3-0.9c-0.4-0.3-0.8-0.5-1.2-0.8c-0.2-0.1-0.3-0.2-0.5-0.3c-0.1-0.1-0.2-0.1-0.2-0.2c-0.4-0.3-0.8-0.5-1.3-0.8
		c-0.4-0.3-0.9-0.5-1.3-0.8c-0.1-0.1-0.3-0.2-0.4-0.2c-0.5-0.2-0.9-0.5-1.4-0.7c-0.3-0.1-0.5-0.2-0.8-0.3c-0.2-0.1-0.4-0.2-0.6-0.2
		c-0.1-0.1-0.3-0.1-0.4-0.2c-0.1-0.1-0.3-0.1-0.4-0.1l-0.3-0.1c-0.2-0.1-0.4-0.1-0.6-0.2c-0.3-0.1-0.6-0.2-0.9-0.3
		c-0.1,0-0.1,0-0.2,0c-0.2-0.1-0.4-0.1-0.6-0.1c-0.3-0.1-0.6-0.1-0.9-0.2c-0.2,0-0.4-0.1-0.6-0.1l-0.1,0c-0.5-0.1-1-0.1-1.5-0.2
		c-0.2,0-0.3,0-0.5,0c-0.1,0-0.3,0-0.4,0c-0.2,0-0.3,0-0.5,0h-0.1c-0.5,0-1,0-1.5,0c-0.7,0-1.3,0.1-2,0.2c-0.3,0-0.6,0.1-0.8,0.1
		c-0.1,0-0.3,0-0.4,0.1c-0.6,0.1-1.1,0.2-1.7,0.4c-0.3,0.1-0.6,0.1-0.9,0.2c-0.3,0.1-0.5,0.2-0.8,0.3c-0.1,0-0.2,0.1-0.4,0.1
		c-1.4,0.5-2.8,1-4.1,1.4c-1.4,0.5-2.7,1-4,1.5c-2.6,1-5.2,2-7.7,3c0,0,0,0,0,0c-2.7,1.1-5.6,1.5-8.3,1.3c-1.4-0.1-2.8-0.5-4.1-1
		c-2.5-1-4.4-2.8-5.6-5.2c13.8-6.5,26.2-10.4,34.4-12.6c2-0.5,4-0.8,6-0.7c0.5,0,1.1,0,1.6,0.1c0.5,0.1,1.1,0.1,1.6,0.2
		c1.5,0.3,2.9,0.7,4.3,1.3c0.4,0.2,0.9,0.4,1.3,0.6c0.4,0.2,0.8,0.4,1.3,0.7c0.7,0.4,1.4,0.9,2.1,1.4c1.1,0.8,2.2,1.8,3.1,2.9
		C143.6,93.4,145.6,96.3,146.4,97.6z M143.5,103.3c-0.9-0.7-2.1-1.5-3.4-2.3c-0.2-0.1-0.4-0.3-0.6-0.4c-0.4-0.3-0.8-0.5-1.2-0.8
		c-0.3-0.2-0.6-0.4-0.9-0.5c-0.2-0.1-0.3-0.2-0.5-0.3c-0.3-0.2-0.7-0.4-1-0.5c-0.2-0.1-0.3-0.2-0.5-0.2c-0.2-0.1-0.3-0.2-0.5-0.2
		c-0.3-0.1-0.6-0.2-0.8-0.3c-0.2-0.1-0.4-0.2-0.7-0.2c-0.7-0.2-1.4-0.4-2-0.6c-0.8-0.2-1.5-0.3-2.3-0.4c-0.5-0.1-1-0.1-1.5-0.1
		c-0.5,0-1,0-1.5,0c-0.1,0-0.3,0-0.4,0c-0.7,0-1.4,0.1-2.1,0.2c-0.2,0-0.3,0-0.5,0.1c-0.4,0.1-0.8,0.1-1.2,0.2
		c-0.2,0-0.4,0.1-0.6,0.1c-0.6,0.1-1.1,0.3-1.6,0.5h0c-0.6,0.2-1.1,0.4-1.6,0.6c-2.3,0.8-4.6,1.6-6.8,2.5c-0.5,0.2-1,0.4-1.6,0.6
		c-1.9,0.7-3.8,1.5-5.7,2.2c-4.1,1.6-7.8,3.2-11.2,4.8c3.3,3.2,7.3,4.6,11.1,5.1h0c3.4,0.4,6.5,0.1,8.6-0.5c0.8-0.2,1.6-0.5,2.3-0.7
		l0.5-0.1c0.2-0.1,0.3-0.1,0.5-0.1c0.1,0,0.2,0,0.2-0.1c0.4-0.1,0.7-0.2,1.1-0.3l1.6-0.5l0.9-0.3c0.6-0.2,1.2-0.4,1.7-0.6
		c0.6-0.2,1.2-0.4,1.7-0.6c0.5-0.2,1-0.4,1.5-0.6c0.5-0.2,1-0.4,1.5-0.6c0.7-0.3,1.3-0.5,1.9-0.8c0,0,0.1,0,0.1,0
		c0.2-0.1,0.5-0.2,0.7-0.3c0.2-0.1,0.4-0.1,0.6-0.2c0,0,0,0,0,0c0.1,0,0.2-0.1,0.3-0.1c0.3-0.1,0.5-0.2,0.8-0.2
		c0.2-0.1,0.5-0.1,0.7-0.2c0.1,0,0.2,0,0.2,0c0.2,0,0.4-0.1,0.5-0.1c0,0,0.1,0,0.1,0c0.1,0,0.2,0,0.4-0.1c0.3,0,0.5-0.1,0.7-0.1
		c0.3,0,0.5,0,0.7-0.1c0.1,0,0.1,0,0.2,0c0.3,0,0.5,0,0.8,0c0,0,0,0,0,0c0.6,0,1.3,0,1.9,0.1c0.6,0.1,1.2,0.1,1.8,0.2
		c0.3,0,0.6,0.1,0.9,0.1c0.3,0,0.7,0.1,1,0.1c0.3,0,0.6,0.1,1,0.1c0.2,0,0.4,0,0.5,0.1c0.3,0,0.5,0.1,0.7,0.1h0
		c0.1-0.6,0.3-1.2,0.4-1.8c0.2-0.6,0.3-1.2,0.5-1.8C143.7,103.4,143.6,103.4,143.5,103.3z M142.3,109.8c-0.2,0-0.4-0.1-0.7-0.1
		c-0.3,0-0.7-0.1-1.1-0.1c-0.4,0-0.7-0.1-1.1-0.1c-0.7-0.1-1.3-0.2-2-0.2c-0.3,0-0.6-0.1-0.9-0.1c-2.5-0.3-5.1,0.1-7.5,1.1
		c-0.5,0.2-1,0.4-1.5,0.6c-0.6,0.2-1.1,0.5-1.8,0.7c-0.5,0.2-0.9,0.4-1.4,0.6c-0.5,0.2-0.9,0.3-1.4,0.5c-0.5,0.2-1,0.4-1.6,0.6
		c-0.3,0.1-0.7,0.2-1.1,0.4c-0.5,0.2-1.1,0.4-1.6,0.6c-0.5,0.2-0.9,0.3-1.4,0.5c-0.5,0.2-0.9,0.3-1.4,0.4c-0.8,0.2-1.6,0.5-2.5,0.7
		c-0.8,0.2-2,0.6-3.3,0.9c-1.3,0.4-2.7,0.7-3.9,1c1.6,1.6,4.7,3.9,10.2,5c0.5,0.1,0.9,0.2,1.5,0.2c0.5,0.1,1,0.1,1.5,0.2
		c1,0.1,2,0.1,3.2,0.1c0,0,0,0,0,0c0.4,0,0.7,0,1.1,0c0.5,0,0.9,0,1.4-0.1c0.5,0,0.9-0.1,1.4-0.1c0.3,0,0.7-0.1,1-0.2
		c5.2-0.8,10.2-3,14.9-6.5c-0.1-0.7-0.1-1.5-0.1-2.2C142,112.6,142.1,111.2,142.3,109.8z M236.8,115.7
		C236.8,115.7,236.8,115.7,236.8,115.7l-1.3-0.4c-0.4-0.1-0.8-0.2-1.2-0.4c0,0-0.1,0-0.1,0c-0.1,0-0.1,0-0.2-0.1c0,0,0,0-0.1,0h0
		c0,0,0,0,0,0c0,0-0.1,0-0.1,0l0,0c0,0,0,0,0,0c0,0,0,0,0,0c0,0,0,0-0.1,0c-0.1,0-0.2,0-0.2-0.1c0,0,0,0,0,0c0,0-0.1,0-0.1,0
		l-0.4-0.1c-0.5-0.1-0.9-0.3-1.4-0.5c-0.2-0.1-0.4-0.1-0.5-0.2c-0.4-0.1-0.7-0.2-1.1-0.4l-2.1-0.7c-0.2-0.1-0.4-0.1-0.6-0.2
		c-0.5-0.2-1-0.4-1.4-0.5c-0.5-0.2-1-0.4-1.5-0.6v0c-1.2-0.5-2.3-0.9-3.3-1.3c-2.4-1-4.9-1.4-7.5-1.1c-0.3,0-0.6,0.1-0.9,0.1
		c-0.7,0.1-1.4,0.2-2.1,0.2c-0.4,0-0.7,0.1-1.1,0.1c-0.2,0-0.4,0-0.5,0.1c-0.4,0-0.7,0.1-1,0.1c-0.1,0-0.1,0-0.2,0
		c0.2,1.4,0.3,2.8,0.3,4.2c0,0.7,0,1.5-0.1,2.2c5.1,3.7,10.4,6,15.9,6.7c0.5,0.1,0.9,0.1,1.4,0.1c0.5,0,0.9,0.1,1.4,0.1
		c0.4,0,0.7,0,1.1,0c0,0,0,0,0,0c1.1,0,2.2,0,3.2-0.1c0.5,0,1-0.1,1.5-0.2c0.5-0.1,1-0.2,1.4-0.2c5.4-1,8.6-3.4,10.2-5
		C241.5,117,238.5,116.2,236.8,115.7z M230.7,83.4c-2-0.5-4-0.8-6-0.7c-0.5,0-1.1,0-1.6,0.1c-0.5,0.1-1.1,0.1-1.6,0.2
		c-1.5,0.3-2.9,0.7-4.3,1.3c-0.4,0.2-0.9,0.4-1.3,0.6c-0.4,0.2-0.9,0.4-1.3,0.7c-1.9,1.1-3.7,2.6-5.2,4.3c-3.1,3.6-5,6.5-5.8,7.8
		c0.3,0.5,0.6,1.1,0.9,1.6c0.2,0.5,0.5,1,0.7,1.5c0.9-0.7,2.1-1.4,3.4-2.3c0.5-0.3,1-0.6,1.5-1c0.3-0.2,0.5-0.3,0.8-0.5
		c0.2-0.1,0.5-0.3,0.7-0.4c0.3-0.2,0.6-0.3,0.8-0.4c0.2-0.1,0.5-0.2,0.7-0.3c0.2-0.1,0.4-0.2,0.6-0.3c0,0,0,0,0.1,0
		c0.2-0.1,0.3-0.1,0.5-0.2c0.3-0.1,0.6-0.3,1-0.4c0,0,0.1,0,0.1-0.1c0.3-0.1,0.6-0.2,0.9-0.3c0.3-0.1,0.6-0.2,0.9-0.3
		c0.6-0.1,1.1-0.3,1.7-0.4c0.3,0,0.5-0.1,0.8-0.1c0.5-0.1,1-0.1,1.5-0.2c0,0,0,0,0,0c0.2,0,0.3,0,0.5,0h0c0.1,0,0.3,0,0.4,0
		c0.2,0,0.4,0,0.5,0h0c0.5,0,1,0,1.5,0c0.7,0,1.3,0.1,2,0.2c0.3,0,0.6,0.1,0.8,0.1c0.1,0,0.3,0,0.4,0.1c0.6,0.1,1.1,0.2,1.7,0.4
		c0.3,0.1,0.6,0.2,0.9,0.2c0.3,0.1,0.5,0.2,0.8,0.3c0.1,0,0.2,0.1,0.4,0.1c5.6,1.9,10.9,3.9,15.9,5.9c2.7,1.1,5.6,1.6,8.3,1.3
		c1.4-0.1,2.8-0.5,4.1-1c2.5-1,4.4-2.8,5.6-5.2C251.3,89.5,238.8,85.6,230.7,83.4z M246.2,103.6c0,0-0.1,0-0.1-0.1c0,0,0,0-0.1,0
		c0,0,0,0,0,0c-0.4-0.2-0.9-0.4-1.3-0.5c-0.5-0.2-0.9-0.4-1.4-0.5c-0.9-0.4-1.9-0.7-2.9-1.1c0,0,0,0-0.1,0c-0.5-0.2-1-0.4-1.5-0.5
		c-0.3-0.1-0.5-0.2-0.8-0.3c-0.2-0.1-0.4-0.1-0.6-0.2c-0.3-0.1-0.6-0.2-0.9-0.3c-0.6-0.2-1.3-0.5-1.9-0.7c-0.3-0.1-0.7-0.2-1-0.4
		c-0.2-0.1-0.5-0.2-0.7-0.3c-0.3-0.1-0.6-0.2-1-0.3c-0.5-0.2-1.1-0.4-1.6-0.6h0c-0.5-0.2-1.1-0.3-1.6-0.5c-0.2-0.1-0.4-0.1-0.6-0.1
		c-0.4-0.1-0.8-0.2-1.2-0.2c-0.1,0-0.3,0-0.4-0.1c0,0,0,0-0.1,0c-0.5-0.1-0.9-0.1-1.4-0.2c-0.2,0-0.4,0-0.6,0h0c-0.1,0-0.3,0-0.4,0
		c-0.5,0-1,0-1.5,0c-0.5,0-1,0.1-1.5,0.1c-0.2,0-0.4,0-0.6,0.1c-0.2,0-0.4,0.1-0.6,0.1c-0.2,0-0.4,0.1-0.6,0.1
		c-0.1,0-0.3,0.1-0.4,0.1c-0.2,0-0.3,0.1-0.5,0.1c-0.2,0-0.4,0.1-0.6,0.2c-0.3,0.1-0.6,0.2-0.9,0.3c-0.2,0.1-0.4,0.1-0.6,0.2
		c-0.2,0.1-0.5,0.2-0.7,0.3c-0.2,0.1-0.4,0.2-0.6,0.2c-0.5,0.2-1,0.5-1.5,0.7c-0.2,0.1-0.4,0.2-0.6,0.3c-0.1,0.1-0.3,0.2-0.4,0.2
		c-0.2,0.1-0.5,0.3-0.7,0.4c-0.6,0.4-1.2,0.8-1.8,1.1c-0.4,0.2-0.7,0.5-1.1,0.7c-0.7,0.5-1.3,0.9-1.9,1.3c-0.1,0.1-0.3,0.2-0.4,0.3
		c-0.1,0-0.1,0.1-0.2,0.1c0.2,0.6,0.4,1.2,0.5,1.8c0.2,0.6,0.3,1.2,0.4,1.8h0c0.1,0,0.1,0,0.2,0c0.3,0,0.7-0.1,1-0.1
		c0.3,0,0.6-0.1,1-0.1c0.3,0,0.7-0.1,1-0.1c0.3,0,0.6-0.1,0.9-0.1c0.6-0.1,1.2-0.1,1.8-0.2c0.6-0.1,1.3-0.1,1.9-0.1
		c2.4,0,4.8,0.5,7,1.4c0.6,0.2,1.2,0.5,1.9,0.8c0.5,0.2,1,0.4,1.5,0.6c0.5,0.2,1,0.4,1.5,0.6c1.3,0.5,2.8,1,4.4,1.5
		c0.5,0.2,1,0.3,1.4,0.5c0.5,0.2,0.9,0.3,1.4,0.5c0.5,0.2,1.1,0.3,1.6,0.5c0.6,0.2,1.1,0.3,1.7,0.5c2.1,0.5,5.2,0.9,8.6,0.4
		c3.8-0.5,7.8-1.9,11.1-5.1C253.9,106.8,250.2,105.2,246.2,103.6z M204.6,119.9c0-1-0.1-1.9-0.2-2.8c-0.3-2.2-0.8-4.4-1.7-6.5l0,0h0
		l0-0.2v0c0,0,0,0,0,0c-0.7-1.8-1.7-3.6-2.9-5.3c-4-5.8-10.2-9.9-17.2-11.6c1.5-4.6,5.7-5.2,8.3-5.1c-0.5-0.3-1-0.6-1.5-0.9
		c-2.8,0.2-6.4,1.4-7.7,5.8c-2-0.4-4.1-0.7-6.2-0.7v-8.7c-0.2,0-0.3,0-0.5,0c-0.2,0-0.3,0-0.5,0v8.7c-2.1,0-4.2,0.3-6.2,0.7
		c-0.9-2.9-2.8-4.4-4.7-5.1c-1-0.4-2.1-0.6-3-0.6c-0.5,0.3-1,0.6-1.5,0.9c1-0.1,2.2,0,3.4,0.3c2,0.6,4,1.9,4.9,4.7
		c-7,1.7-13.2,5.8-17.2,11.6c-1.2,1.7-2.1,3.5-2.9,5.3v0l0,0.2l0,0c-0.3,0.8-0.6,1.6-0.8,2.5c-0.4,1.3-0.7,2.7-0.8,4
		c-0.1,0.9-0.2,1.9-0.2,2.8c0.3,1.6,0.7,3.1,1.3,4.5c-0.3-1.8-0.4-3.5-0.3-5.3c0.2-4.8,1.8-9.5,4.6-13.6c3.9-5.6,9.9-9.6,16.7-11.2
		c1,4.5-2.4,8.5-6.3,13c-2.3,2.7-4.8,5.5-6.4,8.8c-3,5.7-3.4,13.9-0.4,20.1c0.7,0.6,1.4,1.2,2.1,1.8c-4.2-5.9-4.1-15.2-0.9-21.4
		c1.6-3.1,4-5.9,6.3-8.6c3.9-4.5,7.5-8.8,6.5-13.8c1.9-0.4,3.9-0.6,5.9-0.7v50.7c0.2,0,0.3,0,0.5,0c0.2,0,0.3,0,0.5,0V93.5
		c2,0,4,0.3,5.9,0.7c-1.1,5,2.6,9.3,6.5,13.8c2.3,2.7,4.7,5.5,6.3,8.6c3.2,6.2,3.3,15.5-0.9,21.4c0.7-0.6,1.4-1.2,2.1-1.8l0,0
		c2.9-6.1,2.5-14.3-0.4-20.1c-1.7-3.2-4.1-6-6.4-8.8c-3.9-4.5-7.2-8.4-6.3-13c6.8,1.7,12.8,5.6,16.7,11.2c3.9,5.6,5.4,12.3,4.3,18.9
		C203.9,123,204.3,121.5,204.6,119.9z M147.3,110.3c0,0.1,0,0.1-0.1,0.2l0,0L147.3,110.3L147.3,110.3z M202.7,110.4
		C202.7,110.4,202.7,110.4,202.7,110.4l0,0.2h0l0,0C202.7,110.5,202.7,110.4,202.7,110.4z"/>
</g>
<g id="Layer_2">
</g>
<g id="Layer_3">
</g>
<g id="Layer_4">
</g>
<g id="Layer_5">
</g>
<g id="Layer_6">
</g>
<g id="Layer_7">
</g>
</svg>
