<?xml version="1.0" encoding="utf-8"?>
<!-- Generator: Adobe Illustrator 27.8.1, SVG Export Plug-In . SVG Version: 6.00 Build 0)  -->
<svg version="1.1" xmlns="http://www.w3.org/2000/svg" xmlns:xlink="http://www.w3.org/1999/xlink" x="0px" y="0px"
	 viewBox="0 0 350 230" style="enable-background:new 0 0 350 230;" xml:space="preserve">
<style type="text/css">
	.st0{fill:#FF9D00;}
	.st1{fill:url(#SVGID_1_);}
	.st2{opacity:0.22;fill:url(#SVGID_00000049207776411515347050000009491244617188126908_);}
	.st3{fill:#FFC200;}
	.st4{fill:#778718;}
	.st5{fill:#E0B017;}
	.st6{fill:#664407;}
	.st7{fill:#9E690A;}
	.st8{fill:#7F1105;}
	.st9{fill:#191933;}
	.st10{fill:#FCEBD4;}
	.st11{fill:#E3DFD6;}
	.st12{fill:#FFB000;}
	.st13{fill:#AA210E;}
	.st14{fill:#FFF0A6;}
	.st15{fill:#FFDA00;}
	.st16{fill:#F4F4F4;}
	.st17{fill:#DC5C28;}
	.st18{fill:#FF8440;}
	.st19{fill:#C45224;}
	.st20{fill:#2C4369;}
	.st21{fill:#2A72DB;}
	.st22{fill:#C65500;}
	.st23{fill:#C15746;}
	.st24{fill:#FF8C00;}
	.st25{fill:#FFEA2C;}
	.st26{fill:#F7FF57;}
	.st27{fill:#FFFFFF;}
	.st28{fill:#D64949;}
	.st29{fill:#353535;}
	.st30{fill:#FFC783;}
	.st31{fill:#3F7F91;}
	.st32{fill:#25BDE5;}
	.st33{fill:#8CDD00;}
	.st34{fill:#D1FF88;}
	.st35{fill:#333333;}
	.st36{fill:#FF9000;}
	.st37{fill:#A1A813;}
	.st38{fill:#B3C40E;}
	.st39{fill:#CACE72;}
	.st40{fill:url(#SVGID_00000001647772654733878540000016681127071033422506_);}
	.st41{fill:#93E800;}
	.st42{fill:#3CB7D3;}
	.st43{fill:#FF7631;}
	.st44{fill:#E6873C;}
	.st45{fill:#30657F;}
	.st46{fill:#FF7A40;}
	.st47{fill:#FFAD4A;}
	.st48{fill:#BC8E3B;}
	.st49{fill:#E2E2E2;}
	.st50{fill:#F2B844;}
	.st51{fill:#AF3838;}
	.st52{fill:#17B5C1;}
	.st53{fill:#A88643;}
	.st54{fill-rule:evenodd;clip-rule:evenodd;fill:#DD7928;}
	.st55{fill:#E6E7E8;stroke:#CFCFCF;stroke-width:0.1061;}
	.st56{fill-rule:evenodd;clip-rule:evenodd;fill:#204F7A;}
	.st57{fill-rule:evenodd;clip-rule:evenodd;fill:#50A4FF;}
	.st58{fill:#002649;}
</style>
<g id="Layer_1">
</g>
<g id="Layer_12">
</g>
<g id="Layer_13">
</g>
<g id="Layer_14">
</g>
<g id="Layer_15">
</g>
<g id="Layer_11">
	<g>
		<g>
			<rect x="64" y="93.8" class="st22" width="12.3" height="42.4"/>
			<rect x="79" y="85.6" class="st22" width="12.3" height="58.8"/>
			<rect x="95.7" y="77.9" class="st22" width="12.3" height="74.2"/>
			<path class="st22" d="M215.3,125.8c-4.8,17.8-21,31-40.3,31c-19.1,0-35.2-12.9-40.2-30.4c-0.3-0.9-0.5-1.8-0.7-2.7
				c-0.2-0.9-0.4-1.8-0.5-2.7c-0.3-1.9-0.4-3.9-0.4-5.9c0-1.8,0.1-3.6,0.3-5.3c0.1-0.9,0.3-1.8,0.4-2.7l-7.9,0.1H123h-12.7v16.8
				l12.8-0.1c0.2,0.9,0.3,1.8,0.5,2.7c5.2,23.5,26.3,41.2,51.4,41.2c25.4,0,46.6-18,51.6-41.9L215.3,125.8z"/>
		</g>
	</g>
	<path class="st23" d="M286,93.8v42.4h-12.3V93.8H286z M258.7,144.4H271V85.6h-12.3V144.4z M242,152.1h12.3V77.9H242V152.1z
		 M226.4,103.6C221.2,80,200.1,62.4,175,62.4c-25.4,0-46.6,18-51.5,41.9h2.7l8.5-0.1c4.8-17.8,21-31,40.3-31
		c19.1,0,35.2,12.9,40.2,30.4c0.3,0.9,0.5,1.8,0.7,2.7c0.2,0.9,0.4,1.8,0.5,2.7c0.3,1.9,0.4,3.9,0.4,5.9c0,1.8-0.1,3.6-0.3,5.3
		c-0.1,0.9-0.3,1.8-0.4,2.7L227,123l12.7-0.1v-16.7l-12.8,0.1C226.8,105.4,226.6,104.5,226.4,103.6z"/>
	<path class="st24" d="M190.8,103.9c5.1-6.5,6.6-11.9,4.5-16.1c-3.3-6.6-13.8-6.6-15.2-6.5h-0.4h-7.8h-0.4c-1.4,0-11.9,0-15.2,6.5
		c-2,4-0.7,9.2,3.9,15.3c-6,4.5-9.8,11.6-9.8,19.7c0,13.6,11,24.7,24.7,24.7c13.6,0,24.7-11,24.7-24.7
		C199.7,115.2,196.2,108.4,190.8,103.9z M164.9,100.3c-3.4-4.5-4.8-8-3.8-10.1c1.4-2.8,7.4-3.5,10.2-3.5h0.6v0h8.2l0.1,0
		c2.7-0.1,8.8,0.7,10.2,3.5c1,2.1-0.4,5.9-4.2,10.6c-3.4-1.7-7.2-2.7-11.2-2.7C171.4,98.1,168,98.9,164.9,100.3z"/>
</g>
<g id="Layer_8">
</g>
<g id="Layer_10">
</g>
<g id="Layer_9">
</g>
<g id="Layer_2">
</g>
<g id="Layer_3">
</g>
<g id="Layer_4">
</g>
<g id="Layer_5">
</g>
<g id="Layer_6">
</g>
<g id="Layer_7">
</g>
</svg>
