<?xml version="1.0" encoding="utf-8"?>
<!-- Generator: Adobe Illustrator 27.8.1, SVG Export Plug-In . SVG Version: 6.00 Build 0)  -->
<svg version="1.1" xmlns="http://www.w3.org/2000/svg" xmlns:xlink="http://www.w3.org/1999/xlink" x="0px" y="0px"
	 viewBox="0 0 350 230" style="enable-background:new 0 0 350 230;" xml:space="preserve">
<style type="text/css">
	.st0{fill:#FF9D00;}
	.st1{fill:url(#SVGID_1_);}
	.st2{opacity:0.22;fill:url(#SVGID_00000000182691347439265010000012337228809021247110_);}
	.st3{fill:#FFC200;}
	.st4{fill:#778718;}
	.st5{fill:#E0B017;}
	.st6{fill:#664407;}
	.st7{fill:#9E690A;}
	.st8{fill:#7F1105;}
	.st9{fill:#191933;}
	.st10{fill:#FCEBD4;}
	.st11{fill:#E3DFD6;}
	.st12{fill:#FFB000;}
	.st13{fill:#AA210E;}
	.st14{fill:#FFF0A6;}
	.st15{fill:#FFDA00;}
	.st16{fill:#F4F4F4;}
	.st17{fill:#DC5C28;}
	.st18{fill:#FF8440;}
	.st19{fill:#C45224;}
	.st20{fill:#2C4369;}
	.st21{fill:#2A72DB;}
	.st22{fill:#C65500;}
	.st23{fill:#C15746;}
	.st24{fill:#FF8C00;}
	.st25{fill:#FFEA2C;}
	.st26{fill:#F7FF57;}
	.st27{fill:#FFFFFF;}
	.st28{fill:#D64949;}
	.st29{fill:#353535;}
	.st30{fill:#FFC783;}
	.st31{fill:#3F7F91;}
	.st32{fill:#25BDE5;}
	.st33{fill:#8CDD00;}
	.st34{fill:#D1FF88;}
	.st35{fill:#333333;}
	.st36{fill:#FF9000;}
	.st37{fill:#A1A813;}
	.st38{fill:#B3C40E;}
	.st39{fill:#CACE72;}
	.st40{fill:url(#SVGID_00000049223614332452646170000014892361289646022039_);}
	.st41{fill:#93E800;}
	.st42{fill:#3CB7D3;}
	.st43{fill:#FF7631;}
	.st44{fill:#E6873C;}
	.st45{fill:#30657F;}
	.st46{fill:#FF7A40;}
	.st47{fill:#FFAD4A;}
	.st48{fill:#BC8E3B;}
	.st49{fill:#E2E2E2;}
	.st50{fill:#F2B844;}
	.st51{fill:#AF3838;}
	.st52{fill:#17B5C1;}
	.st53{fill:#A88643;}
	.st54{fill-rule:evenodd;clip-rule:evenodd;fill:#DD7928;}
	.st55{fill:#E6E7E8;stroke:#CFCFCF;stroke-width:0.1061;}
	.st56{fill-rule:evenodd;clip-rule:evenodd;fill:#204F7A;}
	.st57{fill-rule:evenodd;clip-rule:evenodd;fill:#50A4FF;}
	.st58{fill:#002649;}
</style>
<g id="Layer_1">
</g>
<g id="Layer_12">
</g>
<g id="Layer_13">
</g>
<g id="Layer_14">
</g>
<g id="Layer_15">
</g>
<g id="Layer_11">
</g>
<g id="Layer_8">
</g>
<g id="Layer_10">
</g>
<g id="Layer_9">
</g>
<g id="Layer_2">
</g>
<g id="Layer_3">
</g>
<g id="Layer_4">
</g>
<g id="Layer_5">
</g>
<g id="Layer_6">
</g>
<g id="Layer_7">
	<path class="st56" d="M143,74c-1.3-0.7-2.7-0.8-4-0.6c-2.1,0.3-4.3,1.3-6.1,2.2c-6.7,3.3-13.1,7-19.4,11
		c-5.1,3.2-10.1,6.6-15.3,9.6c-5.8,3.4-11.8,6.1-18.3,8c-5.4,1.6-10.9,2.7-16.6,3.5c13.5,8.3,27.5,1.5,43.6-9.4
		c4.7-3.2,9.3-6.6,14.1-9.7c3.7-2.4,7.4-4.8,11.2-6.9c1.7-0.9,3.4-1.7,5.1-2.5c1.4-0.6,3-1.1,4.5-1.4c1.3-0.2,2.7-0.4,4.1-0.5
		C145.3,76,144.3,74.7,143,74z M270.1,104.2c-6.5-2-12.4-4.6-18.3-8c-5.2-3-10.2-6.4-15.3-9.6c-6.3-4-12.7-7.7-19.4-11
		c-1.9-0.9-4-1.9-6.1-2.2c-1.3-0.2-2.7-0.1-4,0.6c-1.3,0.7-2.3,2-3.1,3.3c1.4,0.1,2.8,0.3,4.1,0.5c1.6,0.3,3.1,0.8,4.5,1.4
		c1.8,0.7,3.5,1.6,5.1,2.5c3.8,2.1,7.6,4.5,11.2,6.9c4.7,3.2,9.4,6.5,14.1,9.7c16.2,11,30.1,17.8,43.6,9.4
		C281,106.9,275.4,105.8,270.1,104.2z M202,77.3c-1,1.8-1.9,3.7-2.7,5.7l1.6,0.6c0.6-1.5,1.3-2.9,2-4.3c1.6,0.1,3.2,0.2,4.7,0.5
		c1.5,0.2,2.9,0.7,4.2,1.3c1.7,0.7,3.4,1.5,5,2.4c3.8,2.1,7.5,4.4,11.1,6.9c4.7,3.2,9.4,6.5,14.1,9.7c9,6.1,18.6,10.9,28.3,15.6
		c-10.7,4.4-20.7-1.6-33.9-12.5c-5.1-4.2-10.3-8.1-16.2-11.2c-2.6-1.4-5.3-2.5-8.1-3.5v2.2c2.4,0.9,4.8,1.9,7.2,3.2
		c10.9,5.7,19.3,14.4,29.1,21.8c2.1,1.6,4.3,3.2,6.6,4.6c-14.4,2.8-24.1-17.6-42.9-23.6c0,0.7,0,1.5-0.1,2.2
		c10.4,3.8,22,13.9,31.5,22.8c-12.7,0.6-18.1-9.9-31.6-16.5c0,0.7,0,1.5,0,2.2c6.9,3.4,13,8.1,18.3,14c-10.4-1.2-8.9-2.6-16.6-8.3
		c-0.6-0.4-1.2-0.9-1.8-1.3c0,0.8-0.1,1.6-0.1,2.4c0.3,0.2,0.5,0.4,0.8,0.6c1.7,1.3,3.4,2.6,5,4c-2-0.6-4-1.2-6-1.9
		c-1,13-4.1,22.9-13.7,32.8c-2.5,2.6-5.4,5.1-9.1,8c-3.2,2.5-6.8,5.1-11.3,8.1l-1.9,1.3l-1.9-1.3c-4.4-3-8-5.6-11.2-8.1
		c-3.6-2.8-6.5-5.4-9-8c-9.7-10-12.7-20-13.7-33.2c-2.3,0.9-4.6,1.6-6.9,2.3c1.6-1.4,3.3-2.8,5-4c0.6-0.4,1.2-0.9,1.8-1.3
		c0-0.8-0.1-1.6-0.1-2.4c-0.9,0.6-1.9,1.3-2.8,2c-7.7,5.7-6.2,7.1-16.6,8.3c5.5-6.1,11.9-11.1,19.2-14.5c0-0.7,0-1.5,0-2.2
		c-14.2,6.5-19.6,17.6-32.6,16.9c9.7-9.2,21.8-19.7,32.5-23.2c0-0.7,0-1.4,0-2.2c-19.5,5.6-29.3,26.8-44,23.9c2.2-1.4,4.4-3,6.6-4.6
		c9.7-7.4,18.2-16.2,29.1-21.8c2.7-1.4,5.5-2.6,8.3-3.6V88c-3.2,1-6.2,2.3-9.2,3.9c-5.9,3-11,7-16.2,11.2
		C100.5,114,90.4,120,79.7,115.6c9.8-4.6,19.3-9.5,28.3-15.6c4.7-3.2,9.3-6.5,14.1-9.7c3.6-2.4,7.3-4.8,11.1-6.9
		c1.6-0.9,3.3-1.7,5-2.4c1.3-0.5,2.8-1,4.2-1.3c1.5-0.3,3.1-0.4,4.7-0.5c0.8,1.5,1.5,3.1,2.1,4.7l1.6-0.6c-0.9-2.1-1.8-4.2-2.9-6
		c-1.1-2-2.6-4-4.5-5.1c-1.7-1-3.4-1.1-5.1-0.8c-2.3,0.3-4.5,1.3-6.5,2.3c-6.7,3.3-13.2,6.9-19.6,11C97.3,94.3,67,112.2,52.7,101
		c29,1.2,59.6-22.9,75.9-31c17.4-8.7,19.8-1.4,25.7,12l21.2-8.1l20.3,7.8c5.8-13.1,8.4-20.2,25.6-11.6c16.3,8.2,47,32.2,75.9,31
		c-14.3,11.1-44.7-6.8-59.7-16.4c-6.3-4-12.8-7.7-19.6-11c-2-1-4.3-2-6.5-2.3c-1.7-0.2-3.4-0.1-5.1,0.8
		C204.5,73.3,203.1,75.3,202,77.3z"/>
	<path id="XMLID_26_" class="st57" d="M175.4,77.4l-33,12.7c0,4.2,0,8.3,0.1,12.5c0.3,19.8,1.2,32.3,13.2,44.7
		c2.7,2.8,5.7,5.3,8.7,7.7c3.6,2.8,7.3,5.4,11,8c3.7-2.5,7.4-5.1,11-8c3-2.3,5.9-4.9,8.7-7.7c12-12.4,13-24.9,13.2-44.7
		c0.1-4.2,0.1-8.3,0.1-12.5L175.4,77.4z"/>
	<path class="st58" d="M175.4,162l-0.4-0.3c-3.9-2.7-7.2-5-10.1-7.3c-3.5-2.7-6.2-5.1-8.6-7.6c-12-12.4-12.8-24.8-13-44.2
		c0-3.5,0-7,0-11.4v-0.5l32.1-12.4l32.1,12.4v0.5c0,4.4,0.1,7.9,0.1,11.4c-0.2,19.3-1,31.8-13,44.2c-2.4,2.5-5.1,4.9-8.6,7.6
		c-3,2.3-6.2,4.7-10.1,7.3L175.4,162z M144.7,91.8c0,4.2,0,7.5,0.1,10.8c0.2,18.9,1,31.1,12.6,43.1c2.4,2.4,5,4.8,8.4,7.5
		c2.8,2.2,5.9,4.4,9.6,7c3.7-2.5,6.8-4.8,9.6-7c3.4-2.7,6.1-5.1,8.4-7.5c11.6-12,12.3-24.2,12.6-43.1c0-3.4,0.1-6.7,0.1-10.8
		l-30.7-11.8L144.7,91.8z M174.2,67l-4.4,0l3.6,2.5l-1.4,4l3.6-2.5l3.6,2.5l-1.4-4l3.6-2.5l-4.4,0l-1.4-4L174.2,67z M161,70.2
		l-4.4,0l3.6,2.5l-1.4,4l3.6-2.5l3.6,2.5l-1.4-4l3.6-2.5l-4.4,0l-1.4-4L161,70.2z M187.6,70.2l-4.4,0l3.6,2.5l-1.4,4l3.6-2.5
		l3.6,2.5l-1.4-4l3.6-2.5l-4.4,0l-1.4-4L187.6,70.2z"/>
	<path class="st55" d="M160.5,101.5C160.5,101.5,160.5,101.6,160.5,101.5c0.1,0,0.3-0.2,0.5-0.4
		C160.9,101.3,160.7,101.4,160.5,101.5z M179.4,114.7c-0.6-0.5-2.8-2.2-4.2-3.2c-1.3-1-3.5-2.5-4.2-3c-0.4,0.1-1.6,0.3-2.2,0.5
		c-0.7,0.3-3.9,1.5-5.2,2.2c-1.3,0.7-2.1,1.2-2.3,1.4c-0.2,0.2-0.5,0.4-0.7,0.5c-0.3,1.2-1.2,5.1-1.2,7.2c0,1.8,0.1,2.7,0.1,3.2v0
		c0.1,0.2,0.3,0.5,0.6,0.9c0.5,0.6,2.5,2.3,3.7,3.2c1.2,0.9,2.9,2.1,3.6,2.5c0.4,0.3,0.9,0.4,1.1,0.5c1-0.5,4.1-1.6,5.7-2.3
		c1.4-0.6,2.8-1.3,3.5-1.7h0c0.2-0.2,0.5-0.7,0.7-1.8c0.3-1.4,0.7-5,0.8-6.1c0.1-1.1,0.4-2.4,0.2-3.1
		C179.3,115.3,179.3,114.9,179.4,114.7z M183.6,142L183.6,142c-0.1,0-0.6-0.1-1.1-0.4c-0.5-0.4-1.2-0.9-1.5-1.1
		c-0.4-0.2-1-0.2-1.1-0.3c0,0,0.4-0.1,0.7-0.3c-0.6,0.1-2.5,0.4-4.4,0.2c-1.8-0.2-4.7-0.7-5.6-0.9c0.2,0.1,0.5,0.2,0.3,0.1
		c-0.4,0-0.9,0-1.1,0c-0.1,0-1.5,0.5-3,0.8c-1.4,0.3-3.2,0.4-3.2,0.4s2-0.3,3-0.5c1.1-0.2,2.7-0.8,3-0.9c0.3-0.1,0.4-0.4,0.4-0.6
		c-0.4-1.1-1.3-3.9-1.5-5.1c-0.2-1.1-0.4-1.8-0.4-2.2c-0.7-0.5-4.1-2.8-5.5-4.2c-1.5-1.3-3.2-2.8-3.5-3c-0.7,0.3-2,0.8-2.8,1.1
		c-0.7,0.3-1.3,0.6-1.7,0.9c0,0.3-0.1,2.9,0.4,4.6c0.5,1.6,1.4,3.4,1.5,3.7c-0.2-0.4-1.4-2.7-1.7-3.6c-0.3-1.1-0.7-3.2-0.8-3.6
		c-0.1-0.4-0.1-1.1-0.1-1.1l0.2,0.2c-0.2-0.3-1.2-1.3-1.7-4.3c-0.6-3.4-0.6-4.1-0.5-4.1c0,0,0,0,0-0.1c0,0.1-0.2,0.2-0.2,0.4
		c-0.5,5.7,1.1,11.5,4.5,16.2c0.1,0.1,0.3,0.1,0.3,0.2c0,0,0,0,0,0c0.1,0.1,0,0.3,0.1,0.4c1.4,1.8,3.1,3.4,5.1,4.8
		c6.3,4.4,13.9,5.4,20.7,3.3c-0.2,0-0.2,0-0.3,0c0.1,0,1-0.5,1.1-0.6C183.5,142.1,183.6,142,183.6,142z M196.4,130.5
		c0,0.1,0,0.2-0.1,0.2c-0.1,0.2-0.1,1-0.4,1.5c-0.3,0.6-0.3,0.4-0.3,0.4s0.3-0.8,0.4-1.2c0.1-0.3,0.1-0.8,0.2-1
		c-0.1-0.2-0.3-0.7-0.7-1.1c-0.3-0.3-0.8-0.7-1.1-1c-0.2,0-0.5-0.1-0.6,0c-0.2,0.1-2.9,1.9-3.6,2.3c-0.7,0.4-3.6,1.7-3.8,1.9
		c-0.2,0.2-0.6,0.3-0.8,0.4c-0.2,0.5-0.7,1.5-1.9,3.2c-1.2,1.8-2,2.8-2.5,3.3c0.1,0,0.1,0,0.1,0s-0.5,0.4-0.2,0.7
		c0.2,0.3,1.2,1,1.7,1.3c0.4,0.2,0.8,0.4,1,0.4c0,0,0.1,0,0.1,0c0.1,0,0.2,0.1,0.5,0c0.3-0.1,1.9-0.7,2.8-1.3
		c0.8-0.5,1.6-0.9,1.7-0.9c0,0,0,0,0,0c2.3-1.5,4.4-3.6,6.1-6c0.9-1.2,1.6-2.5,2.2-3.9C196.8,130.2,196.5,130.4,196.4,130.5z
		 M195.5,118c0-0.1-0.1-0.2,0-0.3c-0.3-0.4-2.1-2.4-3.5-3.7c-1.6-1.4-2.9-2.4-3.2-2.4c-0.2,0-0.6-0.1-0.7-0.2
		c-1.1,0.5-7.7,3.5-8.3,3.6c-0.1,0.2-0.2,0.5-0.2,0.6c0,0.2-0.6,7.1-0.8,8.2c-0.2,1-0.5,2.2-0.3,2.5c0.1,0.2,0.1,0.4,0.1,0.6
		c0.8,0.6,2.4,2,3.7,3c1.3,1,2.7,2,3.2,2.5c0.2,0.1,0.6,0.1,0.9,0c0.5-0.1,2.4-1,4.5-2.2c2.1-1.2,2.6-1.6,2.7-1.8
		c0.1-0.1,0.4-0.4,0.5-0.5c0.2-0.7,1-3.8,1.2-4.9C195.4,121.7,195.6,118.2,195.5,118z M172.4,98.9c-0.8-0.5-2.5-1-2.8-1.1
		c-0.1,0-0.1,0-0.2,0c0,0-0.6,0.1-2.4,0.5c-0.8,0.2-2.3,0.7-3.7,1.4c-1.2,0.6-2.5,1.6-2.9,1.9c-0.1,0.1-0.1,0.4-0.2,0.5
		c-0.1,0.1-0.3,0.1-0.4,0.1c-0.9,0.8-1.8,1.7-2.6,2.6l0,0c0,0,0,0,0,0c0,0,0,0,0,0c0,0,0,0,0,0c0,0.1-0.5,1.8-0.6,2.3
		c-0.1,0.4-0.4,1.3-0.5,1.7c0,0.2,0.2,0.6,1.2,1.3c1,0.7,2.5,1.7,3.1,2.2c0,0,0,0,0,0c0.2,0.1,0.6,0.1,1-0.2c0.7-0.4,2-1.4,3.9-2.1
		c1.7-0.7,5-1.9,5.6-2.2c0.2-0.6,0.8-2.3,1.8-4.1c1-1.9,1.6-2.9,1.9-3.2C174.3,100.3,173.2,99.3,172.4,98.9z M171,108.2
		c-0.1-0.1-0.1-0.2,0-0.2c0,0,0,0,0,0c0,0.2-0.1,0.2-0.1,0.3c0,0,0.1,0.1,0.2,0.2c0.1,0,0.1,0,0.1,0
		C171.2,108.5,171.2,108.4,171,108.2z M155.9,106.6c-2.2,3.2-3.6,6.8-4,10.4c0,0.1,0.1,0.3,0.1,0.4c0.2-0.7,0.9-3.7,1.9-5.3
		c0.9-1.4,1.6-2.5,1.9-3v0c0-0.1,0.4-1.3,0.5-1.6c0.1-0.3,0.6-2.1,0.6-2.1l0-0.3C156.7,105.6,156.3,106.1,155.9,106.6z M156.1,109.1
		C156.1,109.1,156.2,109.1,156.1,109.1C156.1,109.1,156.1,109.1,156.1,109.1z M188.9,100.9c-5.2-3.7-11.4-5-17.2-4.2c0,0,0,0,0,0
		c0,0,0,0,0,0c0,0,0,0,0,0c-0.3,0.1-1.2,0.3-1.6,0.7c-0.1,0.1-0.2,0.2-0.2,0.2c0.4,0.1,2,0.7,2.6,1.1c0.7,0.4,2.2,1.5,2.5,1.9h0
		c0.6-0.1,4.8,0.2,6.4,0.4c1.5,0.2,3.6,0.9,3.9,1.1c0.2-0.3,0.6-0.8,0.7-1.2c0.2-0.5,0.4-1.6,0.4-1.6s0.1,0.1,0.1,0.1
		c0.1,0-0.1,1.1-0.4,1.5c-0.2,0.4-0.6,1.1-0.8,1.2c0.4,0.5,1.9,3.5,2.5,6.1c0.3,1.5,0.5,2.2,0.5,2.6c0,0,0,0,0.1,0
		c0.1,0,2.4,1.6,3.6,2.7c1.2,1.1,2.3,2.4,2.7,3c0.1,0.2,0.8,0.6,1,0.9c0.3-0.1,1.2-0.6,1.6-1c0.4-0.3,1-0.9,1.2-1.1
		C197.3,109.7,194,104.5,188.9,100.9z"/>
	<path class="st35" d="M200.1,115.2c-1.3-6.1-4.8-11.7-10.3-15.6c-5.7-4-12.6-5.4-19.1-4.3c-10.5,1.9-19.1,10.7-20.4,21.4
		c0,0.2,0.1,0.3,0.1,0.4c-0.1,0.1-0.2,0.3-0.2,0.5c-0.3,3.5,0.1,7,1.2,10.3c1.7,5.1,5.2,9.8,9.6,12.8c6.7,4.7,14.8,5.7,22,3.5
		c0.3-0.1,0.9-0.2,1.8-0.6c0.6-0.3,1.7-0.7,2.6-1.2c0.5-0.3,1-0.6,1.4-0.8c2.8-1.7,5.3-4.1,7.3-6.9c1.3-1.8,2.2-3.7,3-5.6
		c0.4-1.1,1-2.8,1.4-5.4C201.1,120.2,200.4,116.1,200.1,115.2z M157.2,104.9C157.2,104.9,157.2,104.9,157.2,104.9
		C157.2,104.9,157.3,104.9,157.2,104.9c0.9-1,1.8-1.9,2.7-2.7c0.1-0.1,0.3-0.1,0.4-0.1c0.1-0.1,0.1-0.3,0.2-0.5c0,0,0,0-0.1,0
		c0,0,0,0,0.1-0.1c0,0,0-0.1,0-0.1c0.2-0.1,0.3-0.3,0.5-0.4c-0.3,0.2-0.4,0.4-0.6,0.5c0,0,0,0,0,0c0.4-0.3,1.7-1.2,2.9-1.9
		c1.3-0.7,2.9-1.2,3.7-1.4c1.7-0.4,2.4-0.5,2.4-0.5c0.1,0,0.1,0,0.2,0c0.4,0.1,2,0.7,2.8,1.1c0.8,0.4,1.9,1.4,2.3,1.8
		c-0.3,0.3-0.9,1.3-1.9,3.2c-1,1.8-1.6,3.5-1.8,4.1c-0.6,0.3-3.9,1.5-5.6,2.2c-1.8,0.8-3.2,1.7-3.9,2.1c-0.4,0.3-0.8,0.2-1,0.2
		c0,0,0,0,0,0c-0.7-0.5-2.1-1.5-3.1-2.2c-1-0.7-1.1-1.1-1.2-1.3c0.1-0.4,0.3-1.2,0.5-1.7C156.8,106.8,157.3,105.1,157.2,104.9
		C157.2,105,157.2,105,157.2,104.9C157.2,104.9,157.2,104.9,157.2,104.9z M179.5,115.5c0-0.1,0.1-0.5,0.2-0.6
		c0.6-0.1,7.2-3.1,8.3-3.6c0.1,0.1,0.5,0.2,0.7,0.2c0.3,0.1,1.6,1,3.2,2.4c1.4,1.3,3.2,3.3,3.5,3.7c0,0.1,0,0.2,0,0.3
		c0.1,0.3-0.1,3.7-0.2,4.9c-0.1,1.1-1,4.2-1.2,4.9c-0.2,0.1-0.4,0.4-0.5,0.5c-0.1,0.2-0.6,0.6-2.7,1.8c-2.1,1.2-4.1,2.1-4.5,2.2
		c-0.3,0.1-0.7,0-0.9,0c-0.6-0.5-1.9-1.5-3.2-2.5c-1.3-1-3-2.4-3.7-3c0-0.2,0-0.4-0.1-0.6c-0.1-0.2,0.2-1.5,0.3-2.5
		C178.9,122.7,179.6,115.7,179.5,115.5z M179.4,115.8c0.1,0.6-0.2,2-0.2,3.1c-0.1,1.1-0.5,4.6-0.8,6.1c-0.2,1-0.5,1.5-0.7,1.8h0
		c-0.7,0.3-2.1,1-3.5,1.7c-1.6,0.7-4.7,1.9-5.7,2.3c-0.2-0.1-0.7-0.2-1.1-0.5c-0.7-0.4-2.4-1.6-3.6-2.5c-1.2-0.9-3.2-2.6-3.7-3.2
		c-0.3-0.4-0.5-0.7-0.6-0.9v0c0-0.4-0.1-1.4-0.1-3.2c0-2.1,0.9-6,1.2-7.2c0.2-0.1,0.5-0.3,0.7-0.5c0.2-0.2,1-0.7,2.3-1.4
		c1.3-0.7,4.6-2,5.2-2.2c0.5-0.2,1.7-0.4,2.2-0.5c0.7,0.5,2.8,2,4.2,3c1.4,1.1,3.5,2.7,4.2,3.2C179.3,114.9,179.3,115.3,179.4,115.8
		z M155.9,106.6c0.4-0.5,0.7-1,1.1-1.5l0,0.3c0,0-0.5,1.8-0.6,2.1c-0.1,0.2-0.5,1.4-0.5,1.6v0c-0.4,0.5-1.1,1.7-1.9,3
		c-1,1.6-1.7,4.6-1.9,5.3c0-0.1-0.2-0.3-0.1-0.4C152.4,113.3,153.7,109.8,155.9,106.6z M156.1,109.1
		C156.1,109.1,156.1,109.1,156.1,109.1C156.2,109.1,156.1,109.1,156.1,109.1z M183.5,142.2c-0.1,0.2-1,0.6-1.1,0.6c0,0,0.1,0,0.3,0
		c-6.8,2.1-14.4,1.1-20.7-3.3c-2-1.4-3.7-3-5.1-4.8c-0.1-0.1,0-0.3-0.1-0.4c0,0,0,0,0,0c-0.1-0.1-0.3-0.1-0.3-0.2
		c-3.5-4.7-5.1-10.5-4.5-16.2c0-0.1,0.2-0.3,0.2-0.4c0,0.1,0,0.1,0,0.1c-0.1,0.1-0.1,0.8,0.5,4.1c0.6,3,1.5,4,1.7,4.3l-0.2-0.2
		c0,0,0,0.7,0.1,1.1c0.1,0.4,0.5,2.5,0.8,3.6c0.3,1,1.5,3.2,1.7,3.6c-0.2-0.4-1-2.1-1.5-3.7c-0.5-1.7-0.5-4.3-0.4-4.6
		c0.4-0.2,1-0.6,1.7-0.9c0.8-0.3,2.1-0.8,2.8-1.1c0.4,0.3,2.1,1.7,3.5,3c1.5,1.3,4.8,3.7,5.5,4.2c0.1,0.4,0.3,1.2,0.4,2.2
		c0.2,1.3,1.1,4,1.5,5.1c-0.1,0.2-0.2,0.6-0.4,0.6c-0.3,0.1-2,0.7-3,0.9c-1,0.2-2.7,0.4-3,0.5c0.3,0,1.9-0.2,3.2-0.4
		c1.4-0.3,2.9-0.8,3-0.8c0.2-0.1,0.7,0,1.1,0c0.1,0-0.1-0.1-0.3-0.1c1,0.3,3.8,0.7,5.5,0.9c1.9,0.2,3.8-0.1,4.4-0.2
		c-0.3,0.2-0.7,0.3-0.7,0.3c0.1,0.2,0.7,0.2,1.1,0.3c0.4,0.2,1,0.7,1.5,1.1c0.5,0.4,1.1,0.5,1.1,0.5l0.1,0
		C183.6,142,183.5,142.1,183.5,142.2z M194.9,133.8c-1.7,2.4-3.8,4.5-6.1,6c0,0,0,0,0,0c-0.1,0-0.9,0.4-1.7,0.9
		c-0.9,0.5-2.5,1.2-2.8,1.3c-0.3,0.1-0.4,0-0.5,0c-0.1,0-0.1,0-0.1,0c-0.1,0-0.6-0.2-1-0.4c-0.5-0.3-1.5-1-1.7-1.3
		c-0.2-0.3,0.2-0.7,0.2-0.7s0,0-0.1,0c0.5-0.5,1.2-1.5,2.5-3.3c1.1-1.6,1.7-2.6,1.9-3.2c0.2-0.1,0.6-0.3,0.8-0.4
		c0.3-0.2,3.1-1.5,3.8-1.9c0.7-0.4,3.4-2.2,3.6-2.3c0.1-0.1,0.4,0,0.6,0c0.3,0.3,0.8,0.7,1.1,1c0.4,0.4,0.6,0.9,0.7,1.1
		c-0.1,0.2-0.2,0.7-0.2,1c-0.1,0.4-0.4,1.2-0.4,1.2s0,0.2,0.3-0.4c0.3-0.5,0.3-1.3,0.4-1.5c0-0.1,0.1-0.2,0.1-0.3
		c0.2-0.1,0.4-0.3,0.7-0.5C196.5,131.3,195.7,132.6,194.9,133.8z M197.3,116.4c-0.4,0.4-1.3,0.9-1.6,1c-0.3-0.3-0.9-0.7-1-0.9
		c-0.4-0.6-1.6-1.8-2.7-3c-1.2-1.2-3.4-2.7-3.6-2.7c0,0,0,0-0.1,0c0-0.3-0.2-1-0.5-2.6c-0.6-2.6-2.2-5.6-2.5-6.1
		c0.1-0.1,0.6-0.9,0.8-1.2c0.3-0.4,0.4-1.5,0.3-1.5c-0.1,0-0.1-0.1-0.1-0.1s-0.1,1-0.4,1.6c-0.2,0.4-0.5,0.9-0.7,1.2
		c-0.4-0.2-2.4-0.9-3.9-1.1c-1.5-0.2-5.8-0.5-6.4-0.4c-0.2-0.2-0.6-0.5-1.1-0.9c-0.5-0.4-1-0.8-1.4-1c-0.6-0.4-2.2-1-2.6-1.1
		c0.1-0.1,0.1-0.1,0.2-0.2c0.4-0.4,1.3-0.6,1.6-0.7c0,0,0,0,0.1,0c0,0,0,0,0,0c0,0,0,0,0,0c5.8-0.8,11.9,0.6,17.2,4.2
		c5.1,3.6,8.4,8.8,9.6,14.4C198.3,115.5,197.7,116.1,197.3,116.4z"/>
</g>
</svg>
