<?xml version="1.0" encoding="utf-8"?>
<!-- Generator: Adobe Illustrator 27.8.1, SVG Export Plug-In . SVG Version: 6.00 Build 0)  -->
<svg version="1.1" xmlns="http://www.w3.org/2000/svg" xmlns:xlink="http://www.w3.org/1999/xlink" x="0px" y="0px"
	 viewBox="0 0 350 230" style="enable-background:new 0 0 350 230;" xml:space="preserve">
<style type="text/css">
	.st0{fill:#FF9D00;}
	.st1{fill:url(#SVGID_1_);}
	.st2{opacity:0.22;fill:url(#SVGID_00000017494877943463793010000005297483096038440609_);}
	.st3{fill:#FFC200;}
	.st4{fill:#778718;}
	.st5{fill:#E0B017;}
	.st6{fill:#664407;}
	.st7{fill:#9E690A;}
	.st8{fill:#7F1105;}
	.st9{fill:#191933;}
	.st10{fill:#FCEBD4;}
	.st11{fill:#E3DFD6;}
	.st12{fill:#FFB000;}
	.st13{fill:#AA210E;}
	.st14{fill:#FFF0A6;}
	.st15{fill:#FFDA00;}
	.st16{fill:#F4F4F4;}
	.st17{fill:#DC5C28;}
	.st18{fill:#FF8440;}
	.st19{fill:#C45224;}
	.st20{fill:#2C4369;}
	.st21{fill:#2A72DB;}
	.st22{fill:#C65500;}
	.st23{fill:#C15746;}
	.st24{fill:#FF8C00;}
	.st25{fill:#FFEA2C;}
	.st26{fill:#F7FF57;}
	.st27{fill:#FFFFFF;}
	.st28{fill:#D64949;}
	.st29{fill:#353535;}
	.st30{fill:#FFC783;}
	.st31{fill:#3F7F91;}
	.st32{fill:#25BDE5;}
	.st33{fill:#8CDD00;}
	.st34{fill:#D1FF88;}
	.st35{fill:#333333;}
	.st36{fill:#FF9000;}
	.st37{fill:#A1A813;}
	.st38{fill:#B3C40E;}
	.st39{fill:#CACE72;}
	.st40{fill:url(#SVGID_00000125564202093606316050000006251255764803043727_);}
	.st41{fill:#93E800;}
	.st42{fill:#3CB7D3;}
	.st43{fill:#FF7631;}
	.st44{fill:#E6873C;}
	.st45{fill:#30657F;}
	.st46{fill:#FF7A40;}
	.st47{fill:#FFAD4A;}
	.st48{fill:#BC8E3B;}
	.st49{fill:#E2E2E2;}
	.st50{fill:#F2B844;}
	.st51{fill:#AF3838;}
	.st52{fill:#17B5C1;}
	.st53{fill:#A88643;}
	.st54{fill-rule:evenodd;clip-rule:evenodd;fill:#DD7928;}
	.st55{fill:#E6E7E8;stroke:#CFCFCF;stroke-width:0.1061;}
	.st56{fill-rule:evenodd;clip-rule:evenodd;fill:#204F7A;}
	.st57{fill-rule:evenodd;clip-rule:evenodd;fill:#50A4FF;}
	.st58{fill:#002649;}
</style>
<g id="Layer_1">
</g>
<g id="Layer_12">
</g>
<g id="Layer_13">
</g>
<g id="Layer_14">
</g>
<g id="Layer_15">
</g>
<g id="Layer_11">
</g>
<g id="Layer_8">
</g>
<g id="Layer_10">
</g>
<g id="Layer_9">
</g>
<g id="Layer_2">
</g>
<g id="Layer_3">
</g>
<g id="Layer_4">
</g>
<g id="Layer_5">
</g>
<g id="Layer_6">
	<path class="st35" d="M68.2,104.5C68.2,104.6,68.2,104.6,68.2,104.5C68.2,104.6,68.2,104.5,68.2,104.5z"/>
	<path class="st35" d="M70.5,96.2l-0.1,0.1l-0.1,0C70.3,96.3,70.4,96.2,70.5,96.2C70.4,96.2,70.5,96.2,70.5,96.2z"/>
	<path class="st35" d="M68.2,104.5C68.2,104.6,68.2,104.6,68.2,104.5C68.2,104.6,68.2,104.5,68.2,104.5z"/>
	<path class="st35" d="M76.7,89.9C76.7,89.9,76.7,89.9,76.7,89.9c-0.1,0.1-0.1,0.1-0.1,0.1C76.6,90,76.7,89.9,76.7,89.9z"/>
	<path class="st54" d="M226.7,102c0.9,12.6,24.9-3.3,24.1-2.4c-25.6,31-40.1,6.1-63.4,24.4c-15,11.8-1.5,17.9,8.7,10.5
		c6.5-4.7,13.6-15.4,28.5-10.4c-15.8-0.1-19.2,18.5-29.6,23.3c-11.8,5.5-31.4-7.2-39.7,1.3c-4,4.1-3.6,10.1,7.2,10.9
		c10.8,0.8,25.2-4.1,25.2-4.1s-7.8,7.6-18.9,10.6c-9,2.4-17.2-0.1-25.8-2.2c-5.6,5.6-12.5,9.9-20.1,12.5l-2.8,0.9
		c-4.7,1.4-9.8,2.1-14.9,2.1c-29.6,0-53.8-24.2-53.8-53.8c0-29.6,24.2-53.8,53.8-53.8c3.8,0,7.5,0.4,11,1.1c2.3-4,5.4-7.7,10.4-9.8
		c21.4-9,27.5,4.2,50.2-10.9c0,0-1.9,3.3-8.9,8.8c-18.4,14.6-30.2,2.6-31.2,18.6c-0.3,5,17.1,0.1,21.9-5.3
		c9.3-10.6,11.6-9.9,26.2-9.5c10.3,0.3,30.2-6.2,36.6-14.3c-11.6,26.1-45.4,15.6-38.2,28c6.7,11.7,17.6,5.3,26.5-5.6
		c9.2-11.3,25.8-12.5,36.6-6.4c-24.1,1.4-27,11.5-19.1,15.7c4.7,2.5,8.4-5.6,25-2.6c14,2.5,25-5.2,46.2-17.3
		c-26.9,26.2-30.1,30.4-49.7,28.4C236.4,89.5,226.3,95.5,226.7,102z"/>
	<path class="st55" d="M97.3,102.4c0,0-0.1,0-0.1,0C97.3,102.3,97.5,102.2,97.3,102.4z"/>
	<path class="st55" d="M76.8,89.8c0,0-0.1,0.1-0.1,0.1c0.2-0.2,0.6-0.5,1.1-0.9C77.5,89.2,77.1,89.5,76.8,89.8z M113.7,115.5
		c-1.3-0.9-5.4-4.2-8.1-6.3c-2.6-2-6.9-4.8-8.2-5.8c-0.8,0.2-3.2,0.6-4.2,1c-1.3,0.5-7.6,3-10.2,4.3c-2.6,1.3-4.2,2.3-4.6,2.7
		c-0.3,0.3-1,0.8-1.3,1c-0.6,2.4-2.3,10-2.4,14.1c-0.1,3.5,0.1,5.3,0.1,6.2v0c0.2,0.3,0.5,1,1.1,1.8c0.9,1.2,4.9,4.5,7.2,6.3
		c2.4,1.8,5.6,4.1,7,4.9c0.9,0.5,1.7,0.8,2.1,0.9c2-0.9,8-3.2,11.1-4.6c2.7-1.2,5.5-2.6,6.8-3.2h0c0.3-0.4,0.9-1.4,1.3-3.4
		c0.5-2.8,1.3-9.7,1.5-11.9c0.2-2.1,0.7-4.8,0.5-6C113.3,116.6,113.4,115.9,113.7,115.5z M121.8,168.7l-0.1,0c0,0-1.1-0.2-2.1-0.9
		c-1-0.7-2.3-1.7-3-2.1c-0.7-0.3-1.9-0.4-2.1-0.7c0,0,0.8-0.2,1.4-0.6c-1.1,0.2-4.9,0.8-8.6,0.4c-3.5-0.4-9.2-1.3-10.9-1.8
		c0.4,0.2,0.9,0.3,0.7,0.3c-0.8,0-1.8-0.1-2.2,0c-0.2,0-3,1-5.8,1.6c-2.8,0.6-6.3,0.8-6.3,0.8s3.8-0.6,5.9-0.9
		c2.1-0.4,5.3-1.5,5.9-1.7c0.5-0.1,0.7-0.8,0.8-1.2c-0.8-2.2-2.5-7.5-2.9-10c-0.3-2.1-0.7-3.5-0.9-4.3c-1.4-1-7.9-5.5-10.8-8.1
		c-2.9-2.6-6.2-5.4-6.9-5.9c-1.3,0.5-3.9,1.5-5.5,2.1c-1.3,0.5-2.5,1.3-3.2,1.7c0,0.6-0.2,5.6,0.9,8.9c1,3.1,2.7,6.6,3,7.3
		c-0.4-0.8-2.8-5.2-3.3-7.1c-0.6-2.1-1.4-6.2-1.6-7.1c-0.2-0.8-0.1-2.2-0.1-2.2l0.3,0.3c-0.5-0.6-2.3-2.6-3.4-8.4
		c-1.3-6.6-1.1-7.9-1-8.1c0,0,0-0.1,0.1-0.2c-0.1,0.2-0.4,0.5-0.4,0.7c-1,11.1,2.1,22.5,8.9,31.7c0.1,0.2,0.5,0.2,0.6,0.4
		c0,0,0,0,0,0c0.1,0.2,0.1,0.5,0.2,0.7c2.8,3.5,6.1,6.7,10,9.4c12.3,8.6,27.2,10.4,40.3,6.4c-0.3,0.1-0.5,0.1-0.5,0.1
		c0.2-0.1,2-0.9,2.2-1.2C121.7,168.9,121.7,168.8,121.8,168.7z M146.6,146.2c0,0.1-0.1,0.3-0.1,0.5c-0.2,0.4-0.2,1.9-0.9,3
		c-0.7,1.1-0.6,0.7-0.6,0.7s0.6-1.6,0.8-2.3c0.1-0.6,0.3-1.5,0.4-1.9c-0.2-0.3-0.6-1.3-1.3-2.1c-0.5-0.6-1.5-1.3-2.1-1.9
		c-0.4-0.1-1-0.2-1.2,0c-0.4,0.2-5.6,3.7-7.1,4.5c-1.5,0.8-6.9,3.3-7.5,3.8c-0.4,0.3-1.1,0.7-1.5,0.8c-0.5,1.1-1.4,3-3.7,6.2
		c-2.4,3.5-4,5.5-4.9,6.4c0.1,0,0.2,0.1,0.2,0.1s-0.9,0.8-0.4,1.4c0.4,0.6,2.3,2,3.3,2.6c0.8,0.5,1.6,0.7,1.9,0.8
		c0.1,0,0.1-0.1,0.2,0c0.2,0.1,0.4,0.2,0.9,0.1c0.5-0.2,3.8-1.5,5.5-2.5c1.6-0.9,3.1-1.7,3.3-1.8c0,0,0,0-0.1,0.1
		c4.6-3,8.7-6.9,12-11.7c1.7-2.4,3.1-4.9,4.3-7.5C147.5,145.7,147,146.1,146.6,146.2z M145,121.8c-0.1-0.2-0.1-0.5-0.1-0.6
		c-0.6-0.8-4-4.8-6.8-7.3c-3.1-2.8-5.6-4.6-6.3-4.7c-0.5-0.1-1.2-0.3-1.4-0.4c-2.1,1-15,6.9-16.2,7c-0.1,0.4-0.4,1-0.3,1.2
		c0.1,0.4-1.1,13.9-1.5,15.9c-0.3,2-1,4.4-0.7,4.8c0.2,0.3,0.2,0.8,0.2,1.1c1.5,1.1,4.7,3.8,7.2,5.9c2.5,2,5.2,3.9,6.3,4.8
		c0.4,0.1,1.2,0.2,1.8,0.1c0.9-0.2,4.8-1.9,8.8-4.3c4.1-2.4,5-3.1,5.3-3.5c0.2-0.3,0.7-0.7,1-0.9c0.3-1.3,2-7.4,2.3-9.5
		C144.8,129.1,145.1,122.3,145,121.8z M99.9,84.6c-1.6-0.9-4.8-2-5.5-2.2c-0.1,0-0.2,0-0.3,0c0,0-1.2,0.2-4.6,1
		c-1.5,0.3-4.5,1.4-7.1,2.8c-2.4,1.3-4.8,3.1-5.6,3.7c-0.1,0.3-0.3,0.8-0.4,0.9c-0.2,0.2-0.6,0.1-0.8,0.3c-1.8,1.6-3.5,3.3-5.1,5.1
		l-0.1,0.1c0,0,0,0.1-0.1,0.1c0,0,0,0,0,0c0,0,0,0,0,0.1c0.1,0.2-0.9,3.5-1.2,4.6c-0.2,0.8-0.7,2.5-0.9,3.2c0.1,0.4,0.3,1.2,2.3,2.5
		c2,1.4,4.8,3.4,6.1,4.3c0,0,0,0,0,0c0.4,0.1,1.1,0.2,1.9-0.3c1.3-0.8,4-2.6,7.6-4.1c3.3-1.4,9.7-3.8,11-4.3c0.4-1.3,1.6-4.4,3.6-8
		c2-3.7,3.1-5.6,3.7-6.3C103.6,87.4,101.4,85.5,99.9,84.6z M97.2,102.8c-0.2-0.2-0.1-0.3,0-0.4c0,0-0.1,0-0.1,0
		c-0.1,0.3-0.1,0.5-0.1,0.6c0,0.1,0.1,0.2,0.4,0.4c0.2,0,0.3,0,0.3,0C97.6,103.3,97.6,103.2,97.2,102.8z M67.8,99.6
		c-4.4,6.2-6.9,13.2-7.8,20.2c0,0.3,0.3,0.5,0.3,0.8c0.4-1.4,1.7-7.1,3.7-10.3c1.7-2.6,3.1-5,3.8-5.9v0c0.1-0.3,0.9-2.6,1-3
		c0.2-0.5,1.2-4,1.2-4l0-0.6C69.2,97.7,68.5,98.6,67.8,99.6z M68.2,104.6C68.2,104.6,68.2,104.6,68.2,104.6
		C68.2,104.5,68.2,104.6,68.2,104.6z M132.1,88.6c-10.2-7.1-22.2-9.8-33.5-8.2c0,0,0,0,0,0s0,0-0.1,0c0,0-0.1,0-0.1,0
		c-0.6,0.1-2.4,0.6-3.1,1.3c-0.2,0.2-0.3,0.3-0.4,0.4c0.9,0.2,3.9,1.3,5.1,2.2c1.3,0.9,4.2,3,4.8,3.6h0c1.1-0.1,9.4,0.4,12.4,0.8
		c3,0.4,7,1.7,7.7,2.1c0.4-0.6,1.1-1.6,1.4-2.3c0.5-1,0.7-3.1,0.7-3.1s0.2,0.2,0.3,0.2s-0.2,2.2-0.7,3c-0.4,0.7-1.2,2.1-1.5,2.3
		c0.7,0.9,3.8,6.8,4.9,11.9c0.7,3,0.9,4.3,1,5c0,0,0.1,0,0.1,0c0.3,0,4.7,3.1,7,5.3c2.3,2.2,4.5,4.7,5.3,5.8c0.3,0.3,1.5,1.2,2,1.7
		c0.6-0.3,2.3-1.3,3.1-1.9c0.7-0.6,1.9-1.8,2.4-2.1C148.5,105.8,142.1,95.6,132.1,88.6z"/>
	<path class="st35" d="M154,116.4c-2.5-11.8-9.4-22.8-20.1-30.4c-11.1-7.8-24.6-10.5-37.2-8.3c-20.5,3.6-37.2,20.9-39.8,41.6
		c0,0.3,0.3,0.6,0.2,0.9c-0.1,0.3-0.4,0.6-0.4,0.9c-0.6,6.8,0.2,13.6,2.4,20.1c3.3,9.9,10.2,19,18.8,25c13,9.1,28.9,11.1,42.9,6.8
		c0.6-0.1,1.7-0.4,3.6-1.2c1.2-0.5,3.3-1.3,5-2.2c1-0.6,2-1.2,2.7-1.6c5.5-3.4,10.4-7.9,14.3-13.5c2.4-3.5,4.3-7.2,5.8-11
		c0.8-2.1,1.9-5.6,2.7-10.5C155.9,126.2,154.5,118.2,154,116.4z M70.3,96.4C70.3,96.4,70.3,96.3,70.3,96.4c0-0.1,0.1-0.1,0.1-0.2
		c1.6-1.9,3.3-3.6,5.1-5.1c0.2-0.1,0.6-0.1,0.8-0.3c0.1-0.1,0.3-0.7,0.4-0.9c0,0-0.1,0.1-0.1,0.1c0,0,0.1-0.1,0.1-0.1
		c0-0.1,0.1-0.1,0.1-0.1c0.3-0.3,0.7-0.5,1-0.8c-0.5,0.4-0.9,0.7-1.1,0.9c0,0,0,0,0,0c0.8-0.6,3.2-2.4,5.6-3.7
		c2.6-1.4,5.6-2.4,7.1-2.8c3.4-0.8,4.6-1,4.6-1c0.1,0,0.2,0,0.3,0c0.7,0.2,3.9,1.3,5.5,2.2c1.5,0.8,3.7,2.8,4.5,3.5
		c-0.6,0.6-1.7,2.6-3.7,6.3c-2,3.6-3.2,6.7-3.6,8c-1.2,0.5-7.6,2.9-10.9,4.3c-3.6,1.5-6.2,3.3-7.6,4.1c-0.9,0.5-1.5,0.4-1.9,0.3
		c0,0,0,0,0,0c-1.3-0.9-4.1-2.9-6.1-4.3c-2-1.4-2.2-2.1-2.3-2.6c0.2-0.7,0.7-2.4,0.9-3.2C69.4,100,70.4,96.7,70.3,96.4
		C70.3,96.5,70.3,96.4,70.3,96.4C70.3,96.4,70.3,96.4,70.3,96.4z M113.8,117c0-0.3,0.2-0.9,0.3-1.2c1.2-0.1,14.1-6,16.2-7
		c0.2,0.2,1,0.4,1.4,0.4c0.7,0.1,3.2,2,6.3,4.7c2.8,2.5,6.2,6.5,6.8,7.3c0,0.2,0,0.4,0.1,0.6c0.1,0.5-0.1,7.2-0.4,9.6
		c-0.2,2.2-2,8.2-2.3,9.5c-0.3,0.3-0.8,0.7-1,0.9c-0.3,0.4-1.2,1.1-5.3,3.5c-4.1,2.4-7.9,4.1-8.8,4.3c-0.6,0.2-1.4,0-1.8-0.1
		c-1.1-0.9-3.8-2.9-6.3-4.8c-2.5-2-5.8-4.8-7.2-5.9c0-0.3,0-0.8-0.1-1.1c-0.3-0.5,0.3-2.9,0.7-4.8C112.7,131,113.9,117.4,113.8,117z
		 M113.5,117.5c0.2,1.2-0.3,3.8-0.5,6c-0.2,2.1-1,9.1-1.5,11.9c-0.4,2-1,3-1.3,3.4h0c-1.3,0.6-4,2-6.8,3.2
		c-3.1,1.4-9.2,3.7-11.1,4.6c-0.5-0.1-1.3-0.4-2.1-0.9c-1.4-0.8-4.6-3.1-7-4.9c-2.4-1.8-6.3-5.1-7.2-6.3c-0.6-0.8-1-1.4-1.1-1.8v0
		c0-0.8-0.2-2.7-0.1-6.2c0.1-4.1,1.8-11.7,2.4-14.1c0.3-0.2,1-0.7,1.3-1c0.4-0.4,2-1.4,4.6-2.7c2.5-1.3,8.9-3.8,10.1-4.3
		c1.1-0.4,3.4-0.8,4.2-1c1.3,1.1,5.5,3.9,8.2,5.8c2.7,2,6.9,5.3,8.1,6.3C113.5,115.9,113.3,116.6,113.5,117.5z M67.8,99.6
		c0.7-1,1.4-2,2.2-2.9L70,97.3c0,0-1,3.5-1.2,4c-0.2,0.5-1,2.8-1,3.1v0c-0.7,1-2.1,3.3-3.8,5.9c-2,3.2-3.4,8.9-3.7,10.3
		c0-0.3-0.3-0.5-0.3-0.8C60.9,112.8,63.5,105.8,67.8,99.6z M68.2,104.6C68.2,104.6,68.2,104.5,68.2,104.6
		C68.2,104.6,68.2,104.6,68.2,104.6z M121.5,169c-0.3,0.3-2,1.1-2.2,1.2c0.1,0,0.2,0,0.5-0.1c-13.2,4.1-28.1,2.2-40.3-6.4
		c-3.9-2.7-7.2-5.9-10-9.4c-0.2-0.2-0.1-0.5-0.2-0.7c0,0,0,0,0,0c-0.1-0.2-0.5-0.2-0.6-0.4c-6.8-9.2-9.9-20.5-8.9-31.7
		c0-0.2,0.3-0.5,0.4-0.7c0,0.1,0,0.2-0.1,0.2c-0.1,0.2-0.2,1.5,1,8.1c1.1,5.8,2.9,7.8,3.4,8.4l-0.3-0.3c0,0-0.1,1.4,0.1,2.2
		c0.2,0.8,1,5,1.6,7.1c0.5,1.9,2.9,6.3,3.3,7.1c-0.3-0.7-2-4.2-3-7.3c-1-3.3-0.9-8.3-0.9-8.9c0.7-0.4,1.9-1.1,3.2-1.7
		c1.5-0.6,4.2-1.6,5.5-2.1c0.7,0.6,4,3.3,6.9,5.9c2.8,2.6,9.4,7.2,10.8,8.1c0.1,0.8,0.5,2.3,0.9,4.3c0.4,2.5,2.1,7.8,2.9,10
		c-0.1,0.4-0.3,1.1-0.8,1.2c-0.6,0.2-3.8,1.3-5.9,1.7c-1.9,0.3-5.2,0.8-5.8,0.9c0.6,0,3.7-0.3,6.2-0.8c2.8-0.6,5.6-1.5,5.8-1.6
		c0.4-0.1,1.4,0,2.2,0c0.2,0-0.1-0.1-0.5-0.2c1.9,0.5,7.4,1.4,10.8,1.8c3.7,0.4,7.5-0.3,8.6-0.4c-0.6,0.5-1.4,0.6-1.4,0.6
		c0.2,0.3,1.4,0.3,2.1,0.7c0.7,0.3,2,1.3,3,2c1,0.7,2.1,0.9,2.1,0.9l0.1,0C121.8,168.8,121.7,168.9,121.5,169z M143.7,152.7
		c-3.3,4.8-7.4,8.7-12,11.7c0,0,0.1-0.1,0.1-0.1c-0.2,0.1-1.7,0.8-3.3,1.8c-1.7,1-4.9,2.3-5.5,2.5c-0.5,0.2-0.7,0-0.9-0.1
		c-0.1,0-0.2,0-0.2,0c-0.3-0.1-1.1-0.3-1.9-0.8c-1-0.6-2.8-2-3.3-2.6c-0.4-0.6,0.4-1.4,0.4-1.4s-0.1,0-0.2-0.1
		c0.9-0.9,2.4-3,4.8-6.4c2.2-3.2,3.2-5.2,3.7-6.2c0.4-0.2,1.2-0.5,1.5-0.8c0.6-0.5,6-3,7.5-3.8c1.5-0.8,6.7-4.2,7.1-4.5
		c0.3-0.2,0.9,0,1.2,0c0.6,0.6,1.5,1.4,2.1,1.9c0.7,0.8,1.1,1.8,1.3,2.1c-0.2,0.5-0.3,1.4-0.5,2c-0.1,0.7-0.8,2.3-0.8,2.3
		s-0.1,0.4,0.6-0.7c0.6-1.1,0.7-2.6,0.9-3c0.1-0.2,0.1-0.3,0.1-0.5c0.3-0.1,0.9-0.5,1.4-1C146.8,147.8,145.4,150.3,143.7,152.7z
		 M148.5,118.8c-0.8,0.7-2.5,1.7-3.1,2c-0.5-0.5-1.7-1.4-2-1.7c-0.8-1.1-3-3.6-5.3-5.8c-2.3-2.2-6.7-5.3-7-5.3c0,0-0.1,0-0.1,0
		c0-0.6-0.3-2-1-5c-1.1-5.1-4.2-11-4.9-11.9c0.3-0.3,1.1-1.7,1.5-2.3c0.5-0.8,0.8-3,0.7-3c-0.1,0-0.3-0.2-0.3-0.2s-0.2,2-0.7,3.1
		c-0.3,0.7-1,1.7-1.4,2.3c-0.7-0.4-4.7-1.7-7.7-2.1c-3-0.4-11.3-1-12.4-0.8c-0.3-0.3-1.2-1-2.1-1.7c-1-0.7-2-1.5-2.7-1.9
		c-1.2-0.8-4.3-1.9-5.1-2.1c0.1-0.1,0.3-0.2,0.5-0.4c0.7-0.7,2.6-1.2,3.1-1.3c0,0,0.1,0,0.1,0c0,0,0,0,0.1,0c0,0,0,0,0,0
		c11.3-1.6,23.3,1.1,33.5,8.2c10,7,16.4,17.2,18.8,28.1C150.4,117,149.2,118.2,148.5,118.8z"/>
</g>
<g id="Layer_7">
</g>
</svg>
