<?xml version="1.0" encoding="utf-8"?>
<!-- Generator: Adobe Illustrator 27.8.1, SVG Export Plug-In . SVG Version: 6.00 Build 0)  -->
<svg version="1.1" xmlns="http://www.w3.org/2000/svg" xmlns:xlink="http://www.w3.org/1999/xlink" x="0px" y="0px"
	 viewBox="0 0 350 230" style="enable-background:new 0 0 350 230;" xml:space="preserve">
<style type="text/css">
	.st0{fill:#FF9D00;}
	.st1{fill:url(#SVGID_1_);}
	.st2{opacity:0.22;fill:url(#SVGID_00000134226164693927610150000009121518238466460838_);}
	.st3{fill:#FFC200;}
	.st4{fill:#778718;}
	.st5{fill:#E0B017;}
	.st6{fill:#664407;}
	.st7{fill:#9E690A;}
	.st8{fill:#7F1105;}
	.st9{fill:#191933;}
	.st10{fill:#FCEBD4;}
	.st11{fill:#E3DFD6;}
	.st12{fill:#FFB000;}
	.st13{fill:#AA210E;}
	.st14{fill:#FFF0A6;}
	.st15{fill:#FFDA00;}
	.st16{fill:#F4F4F4;}
	.st17{fill:#DC5C28;}
	.st18{fill:#FF8440;}
	.st19{fill:#C45224;}
	.st20{fill:#2C4369;}
	.st21{fill:#2A72DB;}
	.st22{fill:#C65500;}
	.st23{fill:#C15746;}
	.st24{fill:#FF8C00;}
	.st25{fill:#FFEA2C;}
	.st26{fill:#F7FF57;}
	.st27{fill:#FFFFFF;}
	.st28{fill:#D64949;}
	.st29{fill:#353535;}
	.st30{fill:#FFC783;}
	.st31{fill:#3F7F91;}
	.st32{fill:#25BDE5;}
	.st33{fill:#8CDD00;}
	.st34{fill:#D1FF88;}
	.st35{fill:#333333;}
	.st36{fill:#FF9000;}
	.st37{fill:#A1A813;}
	.st38{fill:#B3C40E;}
	.st39{fill:#CACE72;}
	.st40{fill:url(#SVGID_00000102533983959506797230000012979769235505182850_);}
	.st41{fill:#93E800;}
	.st42{fill:#3CB7D3;}
	.st43{fill:#FF7631;}
	.st44{fill:#E6873C;}
	.st45{fill:#30657F;}
	.st46{fill:#FF7A40;}
	.st47{fill:#FFAD4A;}
	.st48{fill:#BC8E3B;}
	.st49{fill:#E2E2E2;}
	.st50{fill:#F2B844;}
	.st51{fill:#AF3838;}
	.st52{fill:#17B5C1;}
	.st53{fill:#A88643;}
	.st54{fill-rule:evenodd;clip-rule:evenodd;fill:#DD7928;}
	.st55{fill:#E6E7E8;stroke:#CFCFCF;stroke-width:0.1061;}
	.st56{fill-rule:evenodd;clip-rule:evenodd;fill:#204F7A;}
	.st57{fill-rule:evenodd;clip-rule:evenodd;fill:#50A4FF;}
	.st58{fill:#002649;}
</style>
<g id="Layer_1">
</g>
<g id="Layer_12">
</g>
<g id="Layer_13">
</g>
<g id="Layer_14">
</g>
<g id="Layer_15">
</g>
<g id="Layer_11">
</g>
<g id="Layer_8">
</g>
<g id="Layer_10">
</g>
<g id="Layer_9">
</g>
<g id="Layer_2">
</g>
<g id="Layer_3">
	<path class="st42" d="M174.9,191.9c-47.4-27.1-40-78.7-40-78.7s10.9-13.8,40.2-13.7c29.3,0.1,40.1,13.9,40.1,13.9
		S222.3,165,174.9,191.9z"/>
	<path class="st43" d="M213.7,107.4c-5.9-4.6-18.1-11.2-38.7-11.3c-20.7,0-32.8,6.6-38.8,11.2c0-0.1,0-0.2,0-0.3
		c0.9-7.5,3.9-17.8,12.3-29.7c-0.3,0.5-0.5,1-0.8,1.5c-0.4,0.8-0.7,1.8-0.5,2.7c0.1,0.3,0.3,0.7,0.6,0.9c3.2,1.7,7.6-7.4,11.6-12.2
		c2.6-3.2,5.6-6.2,8.9-8.8c1.6-1.3,3.2-2.7,4.8-4.1c1.5-1.4,3.1-2.7,4.3-4.3c1.6-2.1,2.6-4.7,3.6-7.1c0.9-2.3,1.7-4.7,2.3-7.1
		c0,0.5,0.1,0.9,0.1,1.4c0.1,2.4-0.5,4.7-1.3,6.9c-1.2,3.1-2.8,6.1-4.1,9.2c-0.6,1.3-1.1,2.7-1.5,4.1c-0.2,0.9-0.5,1.8-0.3,2.8
		c0.2,1.5,1.7,1,2.5,0.3c1.5-1.1,2.5-2.8,3.3-4.5c0.8-1.7,1.4-3.5,2-5.3c1-3.2,2.2-6.4,2.4-9.8c0.2-3.7-0.5-7.3-1.2-10.9
		c0.7,1.3,1.3,2.5,1.7,3.9c0.5,2.1,0.7,4.3,0.9,6.5c0.2,3.3,0.1,6.6-0.5,9.9c-0.2,1.1-0.4,2.2-0.4,3.4c0,0.5,0.1,1.5,0.8,1.6
		c0.7,0.1,1.4-0.7,1.9-1.2c0.7-0.7,1.3-1.5,1.9-2.2c0.5-0.6,1.1-1.1,1.8-1.4c0.6-0.3,1.4-0.5,2.1-0.7c-1.1,0.9-2,1.8-2.8,2.9
		c-0.9,1.3-1.7,2.7-2.3,4.2c-1.2,2.8-1.9,5.8-1.9,8.8c0,1.2,0,2.8,0.8,3.8c0.6,0.8,1.2,0.2,1.5-0.5c0.6-1.2,0.7-2.7,0.9-4
		c0.2-1.5,0.4-3,0.9-4.5c0.7-2.4,2.1-4.3,3.7-6.1c-0.4,0.6-4.6,10.6-0.6,20.9c-0.1-0.4-0.7-5.4,4.9-11.5c-0.3,0.6-3.6,9.9,3.4,19.3
		h0C209.2,91.7,212.7,99.3,213.7,107.4z M162.2,64.9c4-3.5,4.5-7.8,4.5-7.8c-2.7,4.8-7.7,6.4-7.7,6.4c2.9-3.8,4.7-3.3,7.1-8.5
		c2.4-5.2-0.3-11.5-0.3-11.5c2.1,10-7.8,15-11.6,20.7c-3.7,5.7-3.1,12.6-3.1,12.6C152.1,73.1,158.2,68.4,162.2,64.9z M175,112.2
		c-15.4,0-27.9,12.5-27.9,27.9c0,15.4,12.5,27.9,27.9,27.9s27.9-12.5,27.9-27.9C202.9,124.7,190.4,112.2,175,112.2z"/>
	<path class="st44" d="M198.8,134.8c0,11.2-9.1,20.4-20.4,20.4s-20.4-9.1-20.4-20.4s9.1-20.4,20.4-20.4S198.8,123.6,198.8,134.8z"/>
	<path class="st27" d="M175.8,121.9c-2.4-1.6-5.4-2.3-8.9-2.3c-1,0-2.1,0.1-3.3,0.2c-3.4,0.4-6.5,1.3-8.6,2c0.3-0.3,0.6-0.6,0.9-0.9
		c1.9-0.6,4.4-1.3,7.1-1.6C168.4,118.7,172.6,119.5,175.8,121.9z M179.8,126.8c-6.3,1.1-12.2,3.4-17.7,6.9
		c-6.9,4.4-11.4,9.5-13.5,12.5c0.1,0.3,0.1,0.6,0.2,0.8c1.3-1.9,5.8-7.8,14-12.9c5.4-3.3,11.2-5.6,17.2-6.7
		C179.9,127.2,179.9,127,179.8,126.8z M186.3,124.7c-1.6,0.1-3.2,0.3-4.8,0.5c-1.9-3.2-4.6-5.4-8.1-6.6c-1.9-0.6-4.2-1-6.6-1
		c-1.1,0-2.3,0.1-3.5,0.2c-1.7,0.2-3.4,0.5-5.1,1c0,0-0.1,0.1-0.1,0.1c1.5-0.4,3.1-0.7,4.7-0.9c3.7-0.4,7-0.2,9.7,0.8
		c3.4,1.2,6.1,3.4,7.9,6.6c1.9-0.3,3.9-0.5,5.9-0.6C186.3,124.8,186.3,124.8,186.3,124.7z M187.2,126.6c-0.1-0.2-0.2-0.3-0.2-0.5
		c-2,0.1-4,0.2-5.9,0.5c1.3,3.2,1,7.2-1,11.9c-1.7,4.1-4.7,8.7-8.7,13.8c-3.5,4.4-7.3,8.3-10.2,11.1c0.2,0.1,0.5,0.3,0.7,0.4
		c2.9-2.7,6.8-6.7,10.4-11.2c4.2-5.1,7.2-9.7,8.9-13.8c2-4.6,2.3-8.6,1.1-11.8C183.9,126.8,185.6,126.6,187.2,126.6z M192,124.7
		c-0.7,0-1.5,0-2.2,0h-0.9c-2-3.8-4.4-7.2-7-9.7c-0.5-0.5-1-1-1.6-1.4c-0.5-0.1-1-0.2-1.4-0.2c0.6,0.5,1.3,1.1,1.9,1.7
		c2.6,2.5,5,5.9,6.9,9.8c1.4,0,2.9,0,4.3,0.1C192,124.8,192,124.7,192,124.7z M190.3,127.6c-0.2-0.4-0.3-0.8-0.5-1.2c1,0,2,0,3,0.1
		c-0.1-0.1-0.1-0.3-0.2-0.4c-1.4-0.1-2.9-0.1-4.3-0.1c0.2,0.5,0.5,1.1,0.7,1.6c4.5,10.8,5.8,25.5-2.4,37c0.8-0.4,1.6-0.8,2.3-1.2
		c1.3-2,2.3-4.2,3.2-6.5c1.1-3.2,1.7-6.5,1.9-10.1C194.3,138.8,192.1,132,190.3,127.6z M197.6,125.1c-1-0.1-1.9-0.2-2.9-0.3
		c-0.7-1.7-1.3-3.3-1.6-4.8v0c-0.5-0.4-1-0.9-1.5-1.3c0.2,2,0.8,4.1,1.8,6.3c1.5,0.1,2.9,0.3,4.4,0.5
		C197.8,125.4,197.7,125.3,197.6,125.1z M202,137.2c-0.9-1.6-1.9-3.1-2.8-4.6c-1.2-1.9-2.5-3.8-3.5-5.8c1.1,0.1,2.1,0.2,3.2,0.4
		c-0.1-0.1-0.1-0.2-0.2-0.3c-1.6-0.3-3.1-0.5-4.6-0.6c0.1,0.2,0.2,0.3,0.3,0.5c1,2,2.3,4,3.5,5.9c1.2,1.9,2.4,3.9,3.5,5.9
		c0.3,0.6,0.6,1.2,0.9,1.8c0-0.1,0-0.2,0-0.3C202.1,139.1,202.1,138.2,202,137.2z"/>
	<path class="st45" d="M219.2,114l-0.2-1.3l-0.8-1.1c-0.2-0.2-1.6-2-4.5-4.2c-5.9-4.6-18.1-11.2-38.7-11.3
		c-20.7,0-32.8,6.6-38.8,11.2c-2.9,2.2-4.3,3.9-4.5,4.1l-0.8,1.1l-0.2,1.3c-0.1,0.6-1.9,13.8,2.3,30.5c2.5,9.8,6.5,18.8,12,26.8
		c6.9,10,16.1,18.3,27.3,24.7l2.5,1.4l2.5-1.4c11.3-6.4,20.5-14.7,27.4-24.6c5.5-8,9.6-17,12.1-26.8
		C221.1,127.7,219.3,114.5,219.2,114z M174.9,194.8c-49.4-28.3-41.7-82.1-41.7-82.1s0.9-1.2,2.9-2.8c5.1-4.2,17.1-11.6,39-11.5
		c21.9,0,33.9,7.4,38.9,11.6c2,1.7,2.9,2.8,2.9,2.8S224.4,166.7,174.9,194.8z M201.7,128.9c-1.5-3.4-3.5-6.5-6.2-9.2
		c-2.7-2.7-5.7-4.7-9.2-6.2c-3.6-1.5-7.3-2.3-11.3-2.3c-3.9,0-7.7,0.8-11.3,2.3c-3.4,1.5-6.5,3.5-9.2,6.2c-2.7,2.7-4.7,5.7-6.2,9.2
		c-1.5,3.6-2.3,7.4-2.3,11.3c0,3.9,0.8,7.7,2.3,11.3c1.5,3.4,3.5,6.5,6.2,9.2c2.7,2.7,5.7,4.7,9.2,6.2c3.6,1.5,7.3,2.3,11.3,2.3
		c3.9,0,7.7-0.8,11.3-2.3c3.4-1.5,6.5-3.5,9.2-6.2c2.7-2.7,4.7-5.7,6.2-9.2c1.5-3.6,2.3-7.4,2.3-11.3
		C203.9,136.2,203.2,132.4,201.7,128.9z M193.2,120L193.2,120c1.7,1.5,3.2,3.3,4.4,5.2c0.1,0.1,0.2,0.2,0.2,0.4
		c-1.5-0.2-3-0.4-4.4-0.5c-1-2.2-1.6-4.3-1.8-6.3C192.2,119.1,192.7,119.6,193.2,120z M180.4,113.5c3.6,0.7,7,2.2,9.9,4.2
		c0.1,2.2,0.7,4.5,1.7,6.9c0,0.1,0.1,0.1,0.1,0.2c-1.5-0.1-2.9-0.1-4.3-0.1c-1.9-3.8-4.3-7.3-6.9-9.8c-0.6-0.6-1.3-1.2-1.9-1.7
		C179.4,113.4,179.9,113.4,180.4,113.5z M158.2,118.9c4.6-3.7,10.5-5.9,16.8-5.9c0.4,0,0.8,0,1.2,0h0.2c0.3,0.2,0.7,0.4,1,0.6
		c0.1,0.1,0.2,0.2,0.4,0.3c0.7,0.6,1.5,1.2,2.3,2c2.3,2.3,4.5,5.4,6.3,8.8c0,0,0,0.1,0.1,0.1c-2,0.1-3.9,0.3-5.9,0.6
		c-1.8-3.2-4.5-5.4-7.9-6.6c-2.8-0.9-6.1-1.2-9.7-0.8c-1.7,0.2-3.3,0.5-4.7,0.9C158.1,118.9,158.1,118.9,158.2,118.9z M148.2,144.5
		c-0.2-1.4-0.4-2.9-0.4-4.4c0-7,2.7-13.5,7.1-18.3c0,0,0,0,0,0c0.3-0.3,0.6-0.6,0.9-0.9c1.9-0.6,4.4-1.3,7.1-1.6
		c5.4-0.6,9.7,0.2,12.8,2.6c0,0,0,0,0,0c1.3,1,2.4,2.2,3.3,3.7c-0.2,0-0.4,0.1-0.6,0.1c-0.2,0-0.4,0.1-0.7,0.1
		c-5.8,1.2-11.4,3.5-16.5,6.7c-3.8,2.4-7.5,5.5-10.5,8.7C149.8,142.5,148.9,143.6,148.2,144.5z M148.8,147c-0.1-0.3-0.1-0.6-0.2-0.8
		c2.1-3,6.6-8.1,13.5-12.5c5.5-3.5,11.4-5.8,17.7-6.9c0.1,0.2,0.2,0.4,0.2,0.6c1.1,2.8,0.7,6.4-1.1,10.7c-1.7,4-4.5,8.5-8.6,13.4
		c-3.6,4.4-7.4,8.4-10.3,11.2C154.6,159.1,150.5,153.5,148.8,147z M184.3,165.6L184.3,165.6c-2.9,1.1-6.1,1.6-9.3,1.6
		c-4.8,0-9.3-1.2-13.2-3.4c-0.2-0.1-0.5-0.3-0.7-0.4c2.9-2.8,6.7-6.8,10.2-11.1c4.1-5.1,7-9.7,8.7-13.8c2-4.7,2.3-8.7,1-11.9
		c1.9-0.3,3.9-0.5,5.9-0.5c0.1,0.2,0.2,0.3,0.2,0.5c0.2,0.5,0.5,1,0.7,1.6C192.5,139.2,193.6,154.3,184.3,165.6z M188.9,163.4
		c-0.7,0.4-1.5,0.9-2.3,1.2c8.2-11.5,6.9-26.1,2.4-37c-0.2-0.5-0.5-1.1-0.7-1.6c1.4,0,2.8,0,4.3,0.1c0.1,0.1,0.1,0.3,0.2,0.4
		c0.1,0.3,0.3,0.5,0.4,0.8c1.1,2.1,2.3,4,3.5,6c1.2,1.9,2.4,3.8,3.4,5.8c0.7,1.4,1.3,2.8,1.8,4.2C200.9,151.9,196,159.2,188.9,163.4
		z M201.3,138.6c-1.1-2-2.3-4-3.5-5.9c-1.2-1.9-2.4-3.9-3.5-5.9c-0.1-0.2-0.2-0.3-0.3-0.5c1.5,0.1,3.1,0.4,4.6,0.6
		c0.1,0.1,0.1,0.2,0.2,0.3c1.7,3,2.7,6.4,3.1,10c0.1,1,0.2,1.9,0.2,2.9c0,0.1,0,0.2,0,0.3C201.9,139.8,201.6,139.2,201.3,138.6z"/>
</g>
<g id="Layer_4">
</g>
<g id="Layer_5">
</g>
<g id="Layer_6">
</g>
<g id="Layer_7">
</g>
</svg>
