<?xml version="1.0" encoding="utf-8"?>
<!-- Generator: Adobe Illustrator 27.8.1, SVG Export Plug-In . SVG Version: 6.00 Build 0)  -->
<svg version="1.1" xmlns="http://www.w3.org/2000/svg" xmlns:xlink="http://www.w3.org/1999/xlink" x="0px" y="0px"
	 viewBox="0 0 350 230" style="enable-background:new 0 0 350 230;" xml:space="preserve">
<style type="text/css">
	.st0{fill:#FF9D00;}
	.st1{fill:url(#SVGID_1_);}
	.st2{opacity:0.22;fill:url(#SVGID_00000045602995869037172490000007243241617095954357_);}
	.st3{fill:#FFC200;}
	.st4{fill:#778718;}
	.st5{fill:#E0B017;}
	.st6{fill:#664407;}
	.st7{fill:#9E690A;}
	.st8{fill:#7F1105;}
	.st9{fill:#191933;}
	.st10{fill:#FCEBD4;}
	.st11{fill:#E3DFD6;}
	.st12{fill:#FFB000;}
	.st13{fill:#AA210E;}
	.st14{fill:#FFF0A6;}
	.st15{fill:#FFDA00;}
	.st16{fill:#F4F4F4;}
	.st17{fill:#DC5C28;}
	.st18{fill:#FF8440;}
	.st19{fill:#C45224;}
	.st20{fill:#2C4369;}
	.st21{fill:#2A72DB;}
	.st22{fill:#C65500;}
	.st23{fill:#C15746;}
	.st24{fill:#FF8C00;}
	.st25{fill:#FFEA2C;}
	.st26{fill:#F7FF57;}
	.st27{fill:#FFFFFF;}
	.st28{fill:#D64949;}
	.st29{fill:#353535;}
	.st30{fill:#FFC783;}
	.st31{fill:#3F7F91;}
	.st32{fill:#25BDE5;}
	.st33{fill:#8CDD00;}
	.st34{fill:#D1FF88;}
	.st35{fill:#333333;}
	.st36{fill:#FF9000;}
	.st37{fill:#A1A813;}
	.st38{fill:#B3C40E;}
	.st39{fill:#CACE72;}
	.st40{fill:url(#SVGID_00000170993588048302957180000003948413927198725038_);}
	.st41{fill:#93E800;}
	.st42{fill:#3CB7D3;}
	.st43{fill:#FF7631;}
	.st44{fill:#E6873C;}
	.st45{fill:#30657F;}
	.st46{fill:#FF7A40;}
	.st47{fill:#FFAD4A;}
	.st48{fill:#BC8E3B;}
	.st49{fill:#E2E2E2;}
	.st50{fill:#F2B844;}
	.st51{fill:#AF3838;}
	.st52{fill:#17B5C1;}
	.st53{fill:#A88643;}
	.st54{fill-rule:evenodd;clip-rule:evenodd;fill:#DD7928;}
	.st55{fill:#E6E7E8;stroke:#CFCFCF;stroke-width:0.1061;}
	.st56{fill-rule:evenodd;clip-rule:evenodd;fill:#204F7A;}
	.st57{fill-rule:evenodd;clip-rule:evenodd;fill:#50A4FF;}
	.st58{fill:#002649;}
</style>
<g id="Layer_1">
	<path class="st0" d="M137.8,77.4c0,0-7.6,11.2-2.3,17.3c7.1,8.2,42.7-4.7,66-21.8c0,0-17,18.2-20.1,28.5
		c-3.2,10.4,2.1,32.1-28.6,58.7c0,0,18-39.8,10.5-46.6c-8.3-7.7-27.7-1.9-33.2-9.9C122.2,91.8,137.8,77.4,137.8,77.4z M164,64.9
		c-4.3,0-7.9,4.8-7.9,10.7c0,5.9,3.5,10.7,7.9,10.7c4.3,0,7.9-4.8,7.9-10.7C171.9,69.7,168.3,64.9,164,64.9z M183.3,151.4
		c1.3-14-2.5-28-2.5-28c-2.4,11.4-7,16-7,16c2.1,4.9,3,9.7,3.2,14c1-0.3,2.1-0.7,3.2-1.1C181.3,152.1,182.3,151.8,183.3,151.4z
		 M194.3,104.6c2.7-0.2,5.4-0.4,8.2-0.5c5.4-0.1,10.9,0,16.1,0.9c2.6,0.4,5.2,1,7.6,1.9c1.2,0.4,2.3,0.9,3.4,1.5
		c1.1,0.6,2,1.3,2.8,2c1.6,1.5,2.6,3.3,2.7,5.2c0.1,1.9-0.6,4.1-1.7,6.2c-1.1,2.1-2.7,4.1-4.4,5.9c-1.7,1.9-3.6,3.6-5.7,5.3
		c-4,3.3-8.5,6.3-13,8.9c-4.6,2.6-9.4,5.1-14.3,7.2c-4.9,2.2-9.9,4.2-15,5.9c-5.1,1.7-10.2,3.3-15.4,4.5c-5.2,1.3-10.4,2.3-15.7,3
		c-5.3,0.7-10.6,1-15.7,0.8c-2.6-0.1-5.2-0.4-7.6-0.8c-2.5-0.5-4.8-1.2-6.9-2.2c-0.5-0.2-1-0.6-1.4-0.8c-0.2-0.1-0.4-0.3-0.6-0.5
		l-0.3-0.2c-0.1-0.1-0.2-0.2-0.3-0.3c-0.8-0.7-1.4-1.5-1.8-2.3c-0.9-1.7-0.9-3.8-0.3-6c0.6-2.2,1.8-4.5,3.3-6.6c1.4-2.1,3.2-4.1,5-6
		c3.7-3.8,7.9-7.3,12.3-10.5c2.2-1.6,4.5-3.1,6.8-4.6c2.3-1.5,4.7-2.9,7-4.3c-2.6,1-5.1,2.1-7.6,3.2c-2.5,1.2-5,2.4-7.4,3.8
		c-4.9,2.7-9.5,5.8-13.9,9.4c-2.2,1.8-4.2,3.8-6.1,6.1c-1.9,2.3-3.5,4.8-4.6,7.8c-0.5,1.5-0.9,3.1-1,4.9c0,1.7,0.2,3.5,0.9,5.2
		c0.7,1.7,1.7,3.2,2.9,4.4c0.1,0.2,0.3,0.3,0.4,0.5l0.5,0.4c0.3,0.3,0.6,0.6,1,0.8c0.7,0.5,1.3,1,2,1.4c2.8,1.6,5.7,2.6,8.6,3.3
		c2.9,0.7,5.8,1.1,8.7,1.4c5.8,0.5,11.5,0.2,17.1-0.3c5.6-0.6,11.2-1.6,16.7-2.8c5.5-1.3,10.9-2.9,16.2-4.6
		c5.3-1.8,10.5-3.9,15.6-6.3c1.3-0.6,2.5-1.2,3.8-1.8c1.3-0.6,2.5-1.3,3.8-1.9c2.5-1.3,4.9-2.7,7.4-4.2c2.4-1.5,4.8-3.1,7.1-4.7
		c2.3-1.7,4.5-3.5,6.7-5.4c2.1-1.9,4.2-4,6.1-6.2c1.9-2.3,3.6-4.7,5-7.6c0.4-0.7,0.6-1.5,0.9-2.2c0.2-0.4,0.2-0.8,0.4-1.2
		c0.1-0.4,0.2-0.8,0.3-1.2l0.2-1.2c0.1-0.4,0.1-0.9,0.1-1.3c0-0.4,0-0.9,0-1.3c0-0.4,0-0.9-0.1-1.3c-0.1-0.4-0.1-0.9-0.2-1.3
		l-0.4-1.3c-0.3-0.8-0.7-1.6-1.1-2.4c-0.9-1.5-2.1-2.8-3.4-3.8c-2.6-2-5.5-3.1-8.3-3.9c-2.9-0.8-5.7-1.1-8.5-1.3
		c-5.7-0.3-11.3,0.1-16.8,0.9c-2.7,0.4-5.5,0.9-8.2,1.5c-2.7,0.6-5.4,1.3-8,2.1C188.9,105.1,191.6,104.8,194.3,104.6z M129.6,176.5
		c1.3,0.3,2.6,0.7,4,0.9c2.7,0.6,5.4,1,8.1,1.4c5.4,0.7,10.9,0.9,16.4,0.8c11-0.3,22-2.2,32.5-5.8c10.5-3.6,20.4-8.8,29.2-15.6
		c4.3-3.4,8.4-7.2,11.9-11.4c1.8-2.1,3.5-4.3,4.9-6.6c1.5-2.3,2.9-4.7,3.9-7.2c-3.4,4.2-7.2,7.9-11.3,11.4c-4,3.4-8.3,6.5-12.7,9.3
		c-8.8,5.6-18.4,10-28.3,13.4c-4.9,1.7-10,3.1-15.1,4.2c-5.1,1.2-10.3,2-15.5,2.7c-5.2,0.6-10.5,1.1-15.8,1.3
		c-5.3,0.2-10.7,0.3-16.1,0C127,175.8,128.3,176.1,129.6,176.5z M211.5,50.4c0,0-1,5.1-6.3,5.5c5.3,0.5,6.3,5.5,6.3,5.5
		s1-5.1,6.3-5.5C212.5,55.5,211.5,50.4,211.5,50.4z M197,54.2c0,0-0.7,3.3-4.1,3.6c3.5,0.3,4.1,3.6,4.1,3.6s0.7-3.3,4.1-3.6
		C197.6,57.5,197,54.2,197,54.2z M205.2,58.7c0,0-0.5,2.5-3.1,2.8c2.6,0.2,3.1,2.8,3.1,2.8s0.5-2.5,3.1-2.8
		C205.7,61.2,205.2,58.7,205.2,58.7z"/>
	<linearGradient id="SVGID_1_" gradientUnits="userSpaceOnUse" x1="137.7191" y1="77.3932" x2="137.732" y2="77.4283">
		<stop  offset="0" style="stop-color:#FFFF00"/>
		<stop  offset="1" style="stop-color:#FF66FF"/>
	</linearGradient>
	<path class="st1" d="M137.7,77.4C137.7,77.4,137.7,77.4,137.7,77.4C137.7,77.4,137.7,77.4,137.7,77.4
		C137.7,77.4,137.7,77.4,137.7,77.4z"/>
	
		<linearGradient id="SVGID_00000078753347543934684950000011494784849917360256_" gradientUnits="userSpaceOnUse" x1="137.7261" y1="77.4311" x2="137.7251" y2="77.3974">
		<stop  offset="0" style="stop-color:#000000"/>
		<stop  offset="0.9912" style="stop-color:#000000;stop-opacity:0"/>
	</linearGradient>
	<path style="opacity:0.22;fill:url(#SVGID_00000078753347543934684950000011494784849917360256_);" d="M137.7,77.4
		C137.7,77.4,137.7,77.4,137.7,77.4C137.7,77.4,137.7,77.4,137.7,77.4C137.7,77.4,137.7,77.4,137.7,77.4z"/>
	<path class="st3" d="M164,86.4c-4.3,0-7.9-4.8-7.9-10.7c0-2.1,0.5-4.1,1.2-5.8c-1.2,5.8,1,8.2,6.6,7.2c5.6-1,8.6,1.3,5.5,6.3
		C168,85.2,166.1,86.4,164,86.4z M167.3,111.9c-5.3-13.2-26.1-1.7-35-10.9c-8.9-9.2,5.5-23.6,5.5-23.6s-15.6,14.4-7.6,26.2
		c5.4,8,24.8,2.3,33.2,9.9c7.5,6.9-10.5,46.6-10.5,46.6C157,153.3,172.6,125,167.3,111.9z M118.3,143.4c1.4-2.1,3.2-4.1,5-6
		c3.7-3.8,7.9-7.3,12.3-10.5c2.2-1.6,4.5-3.1,6.8-4.6c2.3-1.5,4.7-2.9,7-4.3c0,0-44,21.6-37.4,37.9s45.7,12.1,70,3.4
		s61.8-30,55.3-46c-6.3-15.3-41.8-10.4-50.1-8.2c-0.3,0.1-0.7,0.2-1,0.3c2.7-0.3,5.5-0.7,8.2-0.9c2.7-0.2,5.4-0.4,8.2-0.5
		c5.4-0.1,10.9,0,16.1,0.9c2.6,0.4,5.2,1,7.6,1.9c1.2,0.4,2.3,0.9,3.4,1.5c1.1,0.6,2,1.3,2.8,2c1.6,1.5,2.6,3.3,2.7,5.2
		c0.1,1.9-0.6,4.1-1.7,6.2c-1.1,2.1-2.7,4.1-4.4,5.9c-1.7,1.9-3.6,3.6-5.7,5.3c-4,3.3-8.5,6.3-13,8.9c-4.6,2.6-9.4,5.1-14.3,7.2
		c-4.9,2.2-9.9,4.2-15,5.9c-5.1,1.7-10.2,3.3-15.4,4.5c-5.2,1.3-10.4,2.3-15.7,3c-5.3,0.7-10.6,1-15.7,0.8c-2.6-0.1-5.2-0.4-7.6-0.8
		c-2.5-0.5-4.8-1.2-6.9-2.2c-0.5-0.2-1-0.6-1.4-0.8c-0.2-0.1-0.4-0.3-0.6-0.5l-0.3-0.2c-0.1-0.1-0.2-0.2-0.3-0.3
		c-0.8-0.7-1.4-1.5-1.8-2.3c-0.9-1.7-0.9-3.8-0.3-6C115.6,147.8,116.8,145.5,118.3,143.4z M185.9,171.8
		c34.6-9.1,54.6-38.8,54.6-38.8c-3.4,4.2-7.2,7.9-11.3,11.4c-4,3.4-8.3,6.5-12.7,9.3c-8.8,5.6-18.4,10-28.3,13.4
		c-4.9,1.7-10,3.1-15.1,4.2c-5.1,1.2-10.3,2-15.5,2.7c-5.2,0.6-10.5,1.1-15.8,1.3c-5.3,0.2-10.7,0.3-16.1,0
		C125.7,175.3,151.2,180.8,185.9,171.8z"/>
</g>
<g id="Layer_12">
</g>
<g id="Layer_13">
</g>
<g id="Layer_14">
</g>
<g id="Layer_15">
</g>
<g id="Layer_11">
</g>
<g id="Layer_8">
</g>
<g id="Layer_10">
</g>
<g id="Layer_9">
</g>
<g id="Layer_2">
</g>
<g id="Layer_3">
</g>
<g id="Layer_4">
</g>
<g id="Layer_5">
</g>
<g id="Layer_6">
</g>
<g id="Layer_7">
</g>
</svg>
