<?xml version="1.0" encoding="utf-8"?>
<!-- Generator: Adobe Illustrator 27.8.1, SVG Export Plug-In . SVG Version: 6.00 Build 0)  -->
<svg version="1.1" xmlns="http://www.w3.org/2000/svg" xmlns:xlink="http://www.w3.org/1999/xlink" x="0px" y="0px"
	 viewBox="0 0 350 230" style="enable-background:new 0 0 350 230;" xml:space="preserve">
<style type="text/css">
	.st0{fill:#FF9D00;}
	.st1{fill:url(#SVGID_1_);}
	.st2{opacity:0.22;fill:url(#SVGID_00000122683132008583784140000015764555819703108532_);}
	.st3{fill:#FFC200;}
	.st4{fill:#778718;}
	.st5{fill:#E0B017;}
	.st6{fill:#664407;}
	.st7{fill:#9E690A;}
	.st8{fill:#7F1105;}
	.st9{fill:#191933;}
	.st10{fill:#FCEBD4;}
	.st11{fill:#E3DFD6;}
	.st12{fill:#FFB000;}
	.st13{fill:#AA210E;}
	.st14{fill:#FFF0A6;}
	.st15{fill:#FFDA00;}
	.st16{fill:#F4F4F4;}
	.st17{fill:#DC5C28;}
	.st18{fill:#FF8440;}
	.st19{fill:#C45224;}
	.st20{fill:#2C4369;}
	.st21{fill:#2A72DB;}
	.st22{fill:#C65500;}
	.st23{fill:#C15746;}
	.st24{fill:#FF8C00;}
	.st25{fill:#FFEA2C;}
	.st26{fill:#F7FF57;}
	.st27{fill:#FFFFFF;}
	.st28{fill:#D64949;}
	.st29{fill:#353535;}
	.st30{fill:#FFC783;}
	.st31{fill:#3F7F91;}
	.st32{fill:#25BDE5;}
	.st33{fill:#8CDD00;}
	.st34{fill:#D1FF88;}
	.st35{fill:#333333;}
	.st36{fill:#FF9000;}
	.st37{fill:#A1A813;}
	.st38{fill:#B3C40E;}
	.st39{fill:#CACE72;}
	.st40{fill:url(#SVGID_00000160896884958758637260000007036113265618876305_);}
	.st41{fill:#93E800;}
	.st42{fill:#3CB7D3;}
	.st43{fill:#FF7631;}
	.st44{fill:#E6873C;}
	.st45{fill:#30657F;}
	.st46{fill:#FF7A40;}
	.st47{fill:#FFAD4A;}
	.st48{fill:#BC8E3B;}
	.st49{fill:#E2E2E2;}
	.st50{fill:#F2B844;}
	.st51{fill:#AF3838;}
	.st52{fill:#17B5C1;}
	.st53{fill:#A88643;}
	.st54{fill-rule:evenodd;clip-rule:evenodd;fill:#DD7928;}
	.st55{fill:#E6E7E8;stroke:#CFCFCF;stroke-width:0.1061;}
	.st56{fill-rule:evenodd;clip-rule:evenodd;fill:#204F7A;}
	.st57{fill-rule:evenodd;clip-rule:evenodd;fill:#50A4FF;}
	.st58{fill:#002649;}
</style>
<g id="Layer_1">
</g>
<g id="Layer_12">
</g>
<g id="Layer_13">
</g>
<g id="Layer_14">
</g>
<g id="Layer_15">
</g>
<g id="Layer_11">
</g>
<g id="Layer_8">
</g>
<g id="Layer_10">
</g>
<g id="Layer_9">
</g>
<g id="Layer_2">
	<path d="M177.2,64.4c-2.5-5.8-10.5-8-18-4.9c-4.7,2-8.1,5.6-9.3,9.5c0,0,0,0,0,0c-1.8,3.7-3.4,6.1-7,7.6c-0.6,0.3-2.1,0.9-3.8,1.6
		c-2.8,1.2-6.3,2.6-7.7,3.2c-0.3,0.4-0.4,1.1,0,2.2c0.4,1,1,1.5,1.5,1.5c1.2-0.5,3.9-1.6,6.4-2.7h0c2.2-0.9,4.3-1.8,5.1-2.1
		c3.5-1.5,6.3-1,10.3,0.3c0,0,0,0,0,0c3.6,1.8,8.6,2,13.3,0C175.6,77.6,179.6,70.3,177.2,64.4z M167.3,78.9
		c-6.2,2.6-12.8,0.8-14.9-4c-2-4.8,1.3-10.9,7.5-13.5c6.2-2.6,12.8-0.8,14.9,4C176.9,70.3,173.5,76.3,167.3,78.9z"/>
	<path class="st37" d="M154.6,143.8c0.4,0.1,0.7,0.1,1.1,0.1l0,6.5l0,4.2c-0.1,0-0.2-0.1-0.3-0.1c-0.5-0.1-0.9-0.3-1.4-0.4
		c0,0,0,0,0,0c-0.6-0.2-1.1-0.4-1.7-0.5l-2.3-0.8c-0.8-0.3-1.5-0.6-2.3-0.9c-1.5-0.6-3-1.3-4.4-2c-2.9-1.5-5.6-3.2-8.2-5.2
		c-5.1-4-9.3-8.9-12.2-14.4c-0.3-0.6-0.6-1.2-0.9-1.9c-0.2-0.4-0.3-0.7-0.5-1.1c-0.8-1.8-1.5-3.7-2-5.6c-0.8-2.9-1.4-5.9-1.4-8.9
		c1.3,5.8,4.1,11.2,7.7,15.7c3.6,4.5,8.1,8.1,13,10.6c2.5,1.3,5.1,2.2,7.7,3c1.3,0.3,2.6,0.7,4,1c0.7,0.1,1.3,0.3,2,0.4L154.6,143.8
		z M216.8,108.1c0-0.1,0-0.2,0-0.3c-1.5,3.2-3.1,6-4.7,8.6c-5.7,9.4-11.3,14.9-15.1,17.9c-0.3,1.5-0.7,2.9-1.1,4.4
		c-0.6,2-1.4,4-2.3,5.9c-0.2,0.5-0.5,0.9-0.7,1.4c-0.2,0.5-0.5,0.9-0.8,1.4l-0.8,1.4l-0.9,1.4c-0.6,0.9-1.3,1.8-1.9,2.7
		c-0.3,0.4-0.7,0.8-1,1.3c-0.3,0.4-0.7,0.8-1.1,1.2c-5.8,6.5-13.8,11.4-22.6,14.5c-4.4,1.6-9,2.8-13.8,3.6
		c-4.7,0.8-9.5,1.3-14.4,1.4c4.8,0.9,9.7,1.2,14.6,1.3c4.9,0,9.9-0.3,14.9-1.1c2.5-0.4,5-0.9,7.4-1.6c1.2-0.3,2.5-0.7,3.7-1.1
		c1.2-0.4,2.4-0.8,3.6-1.3c2.4-0.9,4.8-2.1,7.1-3.4c1.1-0.7,2.3-1.3,3.4-2.1c0.5-0.4,1.1-0.7,1.7-1.1l1.6-1.2
		c0.6-0.4,1.1-0.8,1.6-1.3c0.5-0.4,1-0.9,1.5-1.3c1-0.9,2-1.8,2.9-2.8l1.4-1.5l1.3-1.5c0.5-0.5,0.9-1,1.3-1.6
		c0.4-0.5,0.8-1.1,1.2-1.6c1.6-2.2,3.1-4.6,4.4-7c1.3-2.4,2.4-5,3.4-7.6c1.9-5.2,3.2-10.7,3.8-16.2c0.3-2.8,0.5-5.6,0.5-8.4
		C217,110.9,216.9,109.5,216.8,108.1z M231.8,96.4l-0.2-3.5l-0.3-3.5c-0.1-0.6-0.1-1.2-0.2-1.8c-0.1-1.2-0.3-2.3-0.5-3.5
		c-0.1-0.6-0.2-1.2-0.3-1.7c-0.2-1.2-0.4-2.3-0.6-3.5c-0.5-2.3-1-4.6-1.5-6.9c-0.6-2.5-1.3-4.9-2.1-7.3c-0.2,4.8-0.6,10.7-1.6,16.9
		c-0.8,5.3-2,10.9-3.8,16.3l0.3,1.4l0.2,1.6l0.4,3.1c0.4,4.2,0.6,8.4,0.4,12.6c-0.5,8.4-2.4,16.9-5.9,24.8c-1.8,4-3.9,7.8-6.5,11.4
		c-2.6,3.6-5.4,7-8.8,9.9c3.8-2.4,7.2-5.4,10.3-8.6c0.9-1,1.8-2,2.7-3c0,0,0,0.1-0.1,0.1c0.5-0.6,1-1.2,1.5-1.9
		c0.3-0.3,0.5-0.6,0.7-0.9c0.2-0.3,0.5-0.6,0.7-0.9c0,0,0,0,0-0.1c0.4-0.6,0.9-1.2,1.3-1.8c0.1-0.1,0.1-0.2,0.2-0.3
		c0.2-0.2,0.3-0.4,0.4-0.6c0.3-0.4,0.5-0.8,0.8-1.2c5-7.7,8.5-16.5,10.4-25.7c0.9-4.6,1.5-9.3,1.7-14l0-3.5l0-1.8L231.8,96.4z
		 M166.4,166.6c-0.7-9.4-1.8-20.4-1.9-23.1c-0.2-12-3.2-15.3-14.6-20.5c0,0,0,0,0,0c-0.7-0.2-1.5-0.4-2.2-0.6
		c-0.7-0.2-1.4-0.5-2.1-0.8c-0.2-0.1-0.4-0.2-0.6-0.3c-1.6-0.7-3-1.6-4.3-2.6c-0.2-0.1-0.4-0.3-0.6-0.5c-0.2-0.1-0.4-0.3-0.5-0.5
		c-0.1-0.1-0.3-0.3-0.4-0.4c-0.2-0.2-0.4-0.4-0.6-0.6c-0.2-0.2-0.3-0.3-0.5-0.5c-0.1-0.1-0.3-0.3-0.4-0.4c-0.1-0.1-0.1-0.1-0.2-0.2
		c-0.1-0.2-0.3-0.3-0.4-0.5c-0.1-0.2-0.3-0.4-0.4-0.6c-0.1-0.2-0.3-0.4-0.4-0.6c-0.1-0.2-0.3-0.4-0.4-0.5c0,0,0-0.1-0.1-0.1
		c-0.1-0.2-0.2-0.4-0.4-0.6c-0.1-0.2-0.3-0.4-0.4-0.6c-0.1-0.2-0.2-0.4-0.3-0.5c-0.1-0.2-0.2-0.4-0.3-0.6c-0.1-0.1-0.1-0.3-0.2-0.4
		c-0.2-0.3-0.3-0.7-0.5-1c-0.2-0.5-0.4-0.9-0.5-1.4c-2.7-8.5-0.5-18.3,5.7-25c0.2-0.2,0.3-0.4,0.5-0.6c0.4-0.6,0.6-1.2,0.6-1.9
		c0-0.6-0.2-1.3-0.6-1.9c-0.1-0.1-0.2-0.3-0.3-0.4c-1.1-1.3-3-1.5-4.5-0.6c-3.4,2.3-6.3,5.3-8.6,8.8c-9.8,15.4-5.5,35.8,9.5,46.1
		c6.7,4.7,14.8,6.5,22.9,7.1c0.2,1.9,0.5,4.8,0.5,8.5c0,1.9,0.1,13.9-0.1,21.1C161.4,168.6,163.9,167.7,166.4,166.6z M217.3,63.4
		c-1.4,3.9-2.6,7.8-4,11.7c-4,11.3-8.5,22.5-16.2,31.8c-0.3,0.4-0.6,0.7-0.9,1.1l0,0c-3.5,9.6-6.2,16.8-4.8,25.4
		c3.1-2,6-4.3,8.5-6.9c15.7-16.4,22.7-39.5,24.2-61.7C224.3,60.8,218.7,59.6,217.3,63.4z M172,96.1c-6.3-0.8-12,3.7-12.8,9.9
		c-0.8,6.3,3.7,12,10,12.8c6.3,0.8,12-3.7,12.8-9.9C182.8,102.6,178.3,96.9,172,96.1z"/>
	<g>
		<g>
			<path class="st38" d="M191.4,133.4c0.3,2,0.6,5,0.8,8.8c-4.8,11-14.1,19.2-25.9,24.4c-0.7-9.4-1.8-20.4-1.9-23.1
				c-0.2-12-3.2-15.3-14.6-20.5c0.4,0.1,0.8,0.2,1.2,0.2c7,1.2,14.1,1.4,21.1,0c7-1.4,13-4.6,18.3-9.3c2-1.8,3.9-3.8,5.7-5.9
				C192.6,117.6,189.9,124.8,191.4,133.4z"/>
		</g>
	</g>
	<g>
		<g>
			<path class="st39" d="M121.3,126.5c0.3,0.6,0.5,1.3,0.8,1.9c0.3,0.6,0.6,1.3,0.9,1.9c2.9,5.5,7.1,10.5,12.2,14.4
				c2.5,2,5.3,3.7,8.2,5.2c1.5,0.7,2.9,1.4,4.4,2c0.7,0.3,1.5,0.6,2.3,0.9l2.3,0.8c0.6,0.2,1.1,0.4,1.7,0.5c0,0,0,0,0,0
				c0.5,0.1,0.9,0.3,1.4,0.4c0.1,0,0.2,0.1,0.3,0.1v0l0-4.2C142.5,147.7,127.6,138.6,121.3,126.5z M217,112.3c0,2.8-0.2,5.6-0.5,8.4
				c-0.6,5.5-1.9,11-3.8,16.2c-1,2.6-2.1,5.1-3.4,7.6c-1.3,2.4-2.8,4.8-4.4,7c-0.4,0.6-0.8,1.1-1.2,1.6c-0.4,0.5-0.8,1.1-1.3,1.6
				l-1.3,1.5l-1.4,1.5c-0.9,1-1.9,1.9-2.9,2.8c-0.5,0.4-1,0.9-1.5,1.3c-0.5,0.4-1,0.9-1.6,1.3l-1.6,1.2c-0.5,0.4-1.1,0.8-1.7,1.1
				c-1.1,0.8-2.3,1.4-3.4,2.1c-2.3,1.3-4.7,2.4-7.1,3.4c-1.2,0.5-2.4,0.9-3.6,1.3c-1.2,0.4-2.4,0.8-3.7,1.1
				c-2.5,0.7-4.9,1.2-7.4,1.6c-5,0.8-9.9,1.2-14.9,1.1c-4.9-0.1-9.8-0.4-14.6-1.3c46.4,6.6,72.3-14.8,76.5-58.4
				c1.6-2.6,3.1-5.4,4.7-8.6c0,0.1,0,0.2,0,0.3C216.9,109.5,217,110.9,217,112.3z M231.9,98.2l0,1.8l0,3.5c-0.2,4.7-0.8,9.4-1.7,14
				c-1.9,9.2-5.4,18-10.4,25.7c-0.3,0.4-0.5,0.8-0.8,1.2c-0.1,0.2-0.3,0.4-0.4,0.6c-0.1,0.1-0.1,0.2-0.2,0.3
				c-0.4,0.6-0.8,1.2-1.3,1.8c0,0,0,0,0,0.1c-0.2,0.3-0.5,0.6-0.7,0.9c-0.2,0.3-0.5,0.6-0.7,0.9c-0.5,0.6-1,1.3-1.5,1.9
				c16-21.3,14.5-56.2,10.6-69.4c1-6.2,1.4-12,1.6-16.9c0.8,2.4,1.4,4.9,2.1,7.3c0.6,2.3,1.1,4.6,1.5,6.9c0.2,1.2,0.4,2.3,0.6,3.5
				c0.1,0.6,0.2,1.2,0.3,1.7c0.2,1.2,0.3,2.3,0.5,3.5c0.1,0.6,0.1,1.2,0.2,1.8l0.3,3.5l0.2,3.5L231.9,98.2z"/>
		</g>
	</g>
	<linearGradient id="SVGID_1_" gradientUnits="userSpaceOnUse" x1="195.7067" y1="108.6254" x2="195.6955" y2="108.5978">
		<stop  offset="0" style="stop-color:#FFBD00"/>
		<stop  offset="1" style="stop-color:#FF9A00"/>
	</linearGradient>
	<path class="st1" d="M195.7,108.6C195.7,108.6,195.7,108.6,195.7,108.6L195.7,108.6C195.7,108.6,195.7,108.6,195.7,108.6
		C195.7,108.6,195.7,108.6,195.7,108.6z"/>
	<g>
		<path class="st27" d="M195.7,108.6C195.7,108.6,195.7,108.6,195.7,108.6L195.7,108.6C195.7,108.6,195.7,108.6,195.7,108.6
			C195.7,108.6,195.7,108.6,195.7,108.6z"/>
	</g>
	<g>
		<path class="st41" d="M204.4,59.7c-0.4,2.8-2.9,4.8-5.7,4.5c-2.8-0.4-4.8-2.9-4.5-5.7c0.4-2.8,2.9-4.8,5.7-4.5
			C202.7,54.3,204.7,56.9,204.4,59.7z"/>
	</g>
</g>
<g id="Layer_3">
</g>
<g id="Layer_4">
</g>
<g id="Layer_5">
</g>
<g id="Layer_6">
</g>
<g id="Layer_7">
</g>
</svg>
