<?xml version="1.0" encoding="utf-8"?>
<!-- Generator: Adobe Illustrator 27.8.1, SVG Export Plug-In . SVG Version: 6.00 Build 0)  -->
<svg version="1.1" xmlns="http://www.w3.org/2000/svg" xmlns:xlink="http://www.w3.org/1999/xlink" x="0px" y="0px"
	 viewBox="0 0 350 230" style="enable-background:new 0 0 350 230;" xml:space="preserve">
<style type="text/css">
	.st0{fill:#ED1C24;}
	.st1{fill:#11A5A5;}
	.st2{fill:#AD0015;}
	.st3{fill:#C8161D;}
	.st4{fill:#C93540;}
	.st5{fill:#C14851;}
	.st6{fill:#003644;}
	.st7{fill:#FF395A;}
	.st8{fill:#030089;}
	.st9{fill:#F36C21;}
	.st10{fill:#FF0098;}
	.st11{fill:none;}
	.st12{fill-rule:evenodd;clip-rule:evenodd;}
	.st13{opacity:0.39;fill:#C9C9C9;enable-background:new    ;}
	.st14{opacity:0.23;fill:#00567A;enable-background:new    ;}
	.st15{fill:#005968;}
	.st16{opacity:0.13;fill:#00567A;enable-background:new    ;}
	.st17{opacity:0.16;fill:#C9C9C9;enable-background:new    ;}
	.st18{fill:#00BDFF;}
	.st19{fill:#0055FF;}
	.st20{fill:#E50055;}
	.st21{fill:#B60C44;}
	.st22{fill:#EC6A84;}
	.st23{fill:#936500;}
	.st24{fill:#894E00;}
	.st25{fill:#ED73A4;}
	.st26{fill:#3A001A;}
</style>
<g id="Layer_1">
</g>
<g id="Layer_2">
</g>
<g id="Layer_3">
</g>
<g id="Layer_4">
</g>
<g id="Layer_5">
</g>
<g id="Layer_6">
</g>
<g id="Layer_7">
</g>
<g id="Layer_8">
</g>
<g id="Layer_9">
</g>
<g id="Layer_10">
</g>
<g id="Layer_11">
</g>
<g id="Layer_12">
	<g>
		<path class="st17" d="M242.43,151.14c0,3.05-30.19,5.52-67.43,5.52s-67.43-2.47-67.43-5.52c0-3.05,30.19-5.52,67.43-5.52
			S242.43,148.09,242.43,151.14z"/>
		<path class="st18" d="M177.17,96.75c-0.68,1.04-1.42,1.98-2.23,2.84l26.31,26.3l0.14-1.27l2.98-0.67L177.17,96.75z M166.47,91.12
			c-1.98,1.58-4.78,2.89-8.95,4.13c-14.89,4.44-26.64,8.1-25.34,27.95c1.31,19.85,4.96,23.51,0.26,25.86
			c-4.7,2.36-4.62,3.75-1.83,3.92c5.22,0.32,13.06-4.96,10.97-15.67c-2.09-10.71-3.4-22.47,9.67-26.64
			c9.03-2.89,17.94-4.9,23.7-11.06L166.47,91.12z M225.68,55.29c-2.08,3.13-9.4,2.09-20.11-0.52c-10.71-2.61-24.81-0.52-30.3,15.15
			c-3.18,9.07-3.64,14.64-6.35,18.59l8.25,8.25c1.46-2.27,2.6-4.99,3.32-8.29c3.39-15.67,7.83-24.55,22.46-24.81
			c14.63-0.26,20.37,2.88,25.6-7.05C233.77,46.67,227.77,52.15,225.68,55.29z M177.17,96.75c-0.68,1.04-1.42,1.98-2.23,2.84
			l-32.97-32.97l2.54-2.54l24.41,24.41L177.17,96.75z M229.87,135.51l-13.04,2.98l-2.34,14.83l-14.63-14.58l1.39-12.85l0.14-1.27
			l2.98-0.67l10-2.24L229.87,135.51z"/>
		<path class="st19" d="M139.95,147.68l-0.81-2.37c44.78-15.08,83.3-74.13,82.9-84.39l2.52-0.1c0.27,6.76-10.91,25.39-25.45,42.4
			C188.12,116.09,165.82,138.97,139.95,147.68z M151.13,75.78l2.53-2.53l-9.15-9.15l-2.53,2.53L151.13,75.78z M227,59.14
			c-4.88,6.79-10.84,4.27-24.04,4.5c-14.63,0.26-19.07,9.14-22.46,24.81c-3.4,15.67-16.19,18.02-29.25,22.2
			c-13.06,4.18-11.75,15.93-9.66,26.64c2.09,10.71-5.75,15.99-10.97,15.67c-2.8-0.17-2.87-1.57,1.83-3.92s1.04-6.01-0.26-25.86
			c-0.4-6.12,0.44-10.7,2.23-14.24c3.29,1.65,8.3,1.23,15.22-1.32c13.62-5.03,23.98-4.44,26.95-20.43
			c2.96-15.99,10.36-28.13,28.72-26.06C215.47,62.29,222.36,61.89,227,59.14z M201.52,124.6l15.35,13.89l-0.04,0.01l-2.34,14.83
			l-14.63-14.58l1.53-14.12L201.52,124.6z"/>
		<path class="st20" d="M142.8,81.68c3.86-4.05,4.33-10.1,1.5-14.64c4.67,2.61,10.69,1.86,14.55-2.2c4.58-4.81,4.4-12.42-0.41-17
			c-13.94-13.29-36.27-1.9-36.27-1.9s-8.78,24.32,3.62,36.14C130.6,86.66,138.22,86.48,142.8,81.68z"/>
		<path class="st21" d="M121.12,49.45c-1.89,7.16-4.83,23.56,4.68,32.63c4.81,4.58,12.42,4.4,17-0.41c3.86-4.05,4.33-10.1,1.5-14.64
			c4.67,2.61,10.69,1.86,14.55-2.2c2.85-2.98,3.85-7.05,3.06-10.8C155.13,68.68,126.66,66.33,121.12,49.45z"/>
		<path class="st22" d="M152.11,45.59c0,1.56-5.14,2.83-11.48,2.83c-6.34,0-11.48-1.27-11.48-2.83s5.14-2.83,11.48-2.83
			C146.97,42.76,152.11,44.03,152.11,45.59z"/>
	</g>
</g>
<g id="Layer_13">
</g>
<g id="Layer_14">
</g>
<g id="Layer_15">
</g>
</svg>
