<?xml version="1.0" encoding="utf-8"?>
<!-- Generator: Adobe Illustrator 27.8.1, SVG Export Plug-In . SVG Version: 6.00 Build 0)  -->
<svg version="1.1" xmlns="http://www.w3.org/2000/svg" xmlns:xlink="http://www.w3.org/1999/xlink" x="0px" y="0px"
	 viewBox="0 0 350 230" style="enable-background:new 0 0 350 230;" xml:space="preserve">
<style type="text/css">
	.st0{fill:#ED1C24;}
	.st1{fill:#11A5A5;}
	.st2{fill:#AD0015;}
	.st3{fill:#C8161D;}
	.st4{fill:#C93540;}
	.st5{fill:#C14851;}
	.st6{fill:#003644;}
	.st7{fill:#FF395A;}
	.st8{fill:#030089;}
	.st9{fill:#F36C21;}
	.st10{fill:#FF0098;}
	.st11{fill:none;}
	.st12{fill-rule:evenodd;clip-rule:evenodd;}
	.st13{opacity:0.39;fill:#C9C9C9;enable-background:new    ;}
	.st14{opacity:0.23;fill:#00567A;enable-background:new    ;}
	.st15{fill:#005968;}
	.st16{opacity:0.13;fill:#00567A;enable-background:new    ;}
	.st17{opacity:0.16;fill:#C9C9C9;enable-background:new    ;}
	.st18{fill:#00BDFF;}
	.st19{fill:#0055FF;}
	.st20{fill:#E50055;}
	.st21{fill:#B60C44;}
	.st22{fill:#EC6A84;}
	.st23{fill:#936500;}
	.st24{fill:#894E00;}
	.st25{fill:#ED73A4;}
	.st26{fill:#3A001A;}
</style>
<g id="Layer_1">
</g>
<g id="Layer_2">
	<g>
		<path class="st2" d="M189.02,81.07c0-15.64-12.68-28.31-28.31-28.31c-8.07,0-15.35,3.37-20.51,8.79
			c-5.16-5.41-12.44-8.79-20.5-8.79c-15.64,0-28.31,12.68-28.31,28.31c0,2.02,0.21,4,0.62,5.9h-0.05
			c5.02,29.1,48.33,59.18,48.33,59.18s39.86-27.89,47.23-55.94C188.49,87.34,189.02,84.27,189.02,81.07z"/>
		<path d="M254.56,81.07c0-15.64-12.68-28.31-28.31-28.31c-8.07,0-15.35,3.37-20.5,8.79c-5.16-5.41-12.44-8.79-20.5-8.79
			c-15.64,0-28.31,12.68-28.31,28.31c0,2.02,0.21,4,0.62,5.9h-0.05c5.02,29.1,48.33,59.18,48.33,59.18s39.86-27.89,47.23-55.94
			C254.03,87.34,254.56,84.27,254.56,81.07z M111.69,108.78c-0.28-0.95-0.89-1.71-1.67-2.19c1.68-0.75,2.63-2.61,2.17-4.46
			c-0.52-2.06-2.61-3.31-4.67-2.8l-0.41,0.1c0.53-0.82,0.75-1.84,0.54-2.87c-0.43-2.08-2.47-3.42-4.55-2.99l-3.36,0.69
			c0.35-0.77,0.45-1.66,0.21-2.55c-0.53-2.06-2.64-3.29-4.7-2.76l-0.99,0.26c-2.06,0.53-3.29,2.64-2.76,4.69
			c0.26,1.01,0.9,1.82,1.72,2.32c0.22,0.13,0.45,0.24,0.69,0.33c-0.57,0.83-0.82,1.89-0.6,2.96c0.22,1.09,0.89,1.98,1.77,2.51
			c0.66,0.4,1.45,0.6,2.26,0.55c-0.81,0.92-1.17,2.21-0.85,3.49c0.26,1.02,0.9,1.84,1.73,2.35c0.85,0.52,1.9,0.71,2.94,0.45
			l0.53-0.13c-0.54,0.89-0.72,2-0.4,3.08c0.28,0.96,0.9,1.73,1.69,2.21c0.89,0.54,2,0.72,3.08,0.41l3-0.88
			C111.11,112.96,112.28,110.82,111.69,108.78z"/>
		<path class="st2" d="M238.31,108.78c0.28-0.95,0.89-1.71,1.67-2.19c-1.68-0.75-2.63-2.61-2.17-4.46c0.52-2.06,2.61-3.31,4.67-2.8
			l0.41,0.1c-0.53-0.82-0.75-1.84-0.54-2.87c0.43-2.08,2.47-3.42,4.55-2.99l3.36,0.69c-0.35-0.77-0.45-1.66-0.22-2.55
			c0.53-2.06,2.64-3.29,4.69-2.76l0.99,0.26c2.06,0.53,3.29,2.64,2.76,4.69c-0.26,1.01-0.9,1.82-1.72,2.32
			c-0.22,0.13-0.45,0.24-0.69,0.33c0.57,0.83,0.82,1.89,0.6,2.96c-0.22,1.09-0.89,1.98-1.77,2.51c-0.66,0.4-1.45,0.6-2.26,0.55
			c0.81,0.92,1.17,2.21,0.85,3.49c-0.26,1.02-0.9,1.84-1.73,2.35c-0.85,0.52-1.9,0.71-2.94,0.45l-0.53-0.13
			c0.54,0.89,0.72,2,0.41,3.08c-0.28,0.96-0.9,1.73-1.69,2.21c-0.89,0.54-2,0.72-3.08,0.41l-2.99-0.88
			C238.89,112.96,237.72,110.82,238.31,108.78z"/>
	</g>
</g>
<g id="Layer_3">
</g>
<g id="Layer_4">
</g>
<g id="Layer_5">
</g>
<g id="Layer_6">
</g>
<g id="Layer_7">
</g>
<g id="Layer_8">
</g>
<g id="Layer_9">
</g>
<g id="Layer_10">
</g>
<g id="Layer_11">
</g>
<g id="Layer_12">
</g>
<g id="Layer_13">
</g>
<g id="Layer_14">
</g>
<g id="Layer_15">
</g>
</svg>
