<?xml version="1.0" encoding="utf-8"?>
<!-- Generator: Adobe Illustrator 27.8.1, SVG Export Plug-In . SVG Version: 6.00 Build 0)  -->
<svg version="1.1" xmlns="http://www.w3.org/2000/svg" xmlns:xlink="http://www.w3.org/1999/xlink" x="0px" y="0px"
	 viewBox="0 0 350 230" style="enable-background:new 0 0 350 230;" xml:space="preserve">
<style type="text/css">
	.st0{fill:#ED1C24;}
	.st1{fill:#11A5A5;}
	.st2{fill:#AD0015;}
	.st3{fill:#C8161D;}
	.st4{fill:#C93540;}
	.st5{fill:#C14851;}
	.st6{fill:#003644;}
	.st7{fill:#FF395A;}
	.st8{fill:#030089;}
	.st9{fill:#F36C21;}
	.st10{fill:#FF0098;}
	.st11{fill:none;}
	.st12{fill-rule:evenodd;clip-rule:evenodd;}
	.st13{opacity:0.39;fill:#C9C9C9;enable-background:new    ;}
	.st14{opacity:0.23;fill:#00567A;enable-background:new    ;}
	.st15{fill:#005968;}
	.st16{opacity:0.13;fill:#00567A;enable-background:new    ;}
	.st17{opacity:0.16;fill:#C9C9C9;enable-background:new    ;}
	.st18{fill:#00BDFF;}
	.st19{fill:#0055FF;}
	.st20{fill:#E50055;}
	.st21{fill:#B60C44;}
	.st22{fill:#EC6A84;}
	.st23{fill:#936500;}
	.st24{fill:#894E00;}
	.st25{fill:#ED73A4;}
	.st26{fill:#3A001A;}
</style>
<g id="Layer_1">
	<g>
		<path class="st0" d="M198.14,89.17c-9.28,0-17.1-6.96-18.19-16.19c-0.29-2.46-0.09-4.9,0.6-7.26c0.66-2.28,1.75-4.38,3.22-6.25
			c1.47-1.87,3.27-3.41,5.33-4.58c2.13-1.22,4.46-1.98,6.92-2.27c0.72-0.08,1.45-0.13,2.16-0.13c9.28,0,17.1,6.96,18.19,16.19
			c0.29,2.46,0.09,4.9-0.6,7.26c-0.66,2.28-1.74,4.38-3.22,6.25c-1.47,1.87-3.27,3.41-5.33,4.58c-2.13,1.21-4.46,1.98-6.92,2.27
			C199.59,89.13,198.86,89.17,198.14,89.17z M198.18,58.94c-0.47,0-0.94,0.03-1.41,0.08c-6.51,0.77-11.18,6.69-10.42,13.2
			c0.7,5.99,5.77,10.5,11.79,10.5c0.47,0,0.94-0.03,1.41-0.08c6.51-0.77,11.18-6.69,10.42-13.2
			C209.26,63.46,204.2,58.94,198.18,58.94z M209.47,160.63l-1.98-1.06c-0.34-0.18-8.48-4.54-17.46-11.44
			c-5.32-4.08-9.82-8.21-13.39-12.28c-4.6-5.23-7.45-10.43-8.92-15.4l-1.09-3.67l0,0c-0.05-0.3-0.09-0.6-0.12-0.9
			c-0.36-3.09-0.11-6.15,0.75-9.12c0.83-2.86,2.19-5.5,4.04-7.85c1.85-2.35,4.1-4.28,6.69-5.76c2.68-1.53,5.61-2.48,8.69-2.85
			c0.9-0.11,1.82-0.16,2.72-0.16c4.28,0,8.49,1.21,12.11,3.46c1.4-1.42,2.99-2.65,4.72-3.67c2.75-1.61,5.76-2.62,8.94-2.99
			c0.9-0.11,1.82-0.16,2.72-0.16c5.51,0,10.85,1.99,15.04,5.61c4.21,3.64,6.96,8.68,7.74,14.19c0.03,0.18,0.05,0.36,0.07,0.54
			c0.29,2.49,0.18,4.98-0.32,7.41c-0.83,5.72-3.37,12.06-7.56,18.86c-3.11,5.05-7.1,10.32-11.86,15.67c-5.34,6-9.68,9.89-9.86,10.05
			L209.47,160.63z M174.47,120.92c2.84,6.85,9.49,14.41,19.4,22.04c6.01,4.62,11.74,8.12,14.65,9.8c1.7-1.62,4.51-4.42,7.66-7.96
			c7.3-8.21,16.32-20.29,17.86-31.27l0.02-0.11l0.02-0.11c0.38-1.77,0.46-3.6,0.25-5.42c-0.02-0.13-0.03-0.26-0.05-0.39
			c-1.15-8.13-8.2-14.26-16.4-14.26c-0.65,0-1.31,0.04-1.96,0.12c-4.55,0.54-8.58,2.85-11.33,6.52l-2.03,2.71l-2.6-2.16
			c-2.97-2.47-6.73-3.82-10.57-3.82c-0.65,0-1.31,0.04-1.97,0.12c-4.4,0.52-8.34,2.72-11.08,6.2c-2.74,3.48-3.97,7.82-3.45,12.22
			c0.14,1.16,0.39,2.3,0.76,3.4L174.47,120.92z"/>
		<path class="st1" d="M154.89,80.96c-0.65,0-1.32-0.03-1.97-0.09c-2.77-0.26-5.4-1.06-7.83-2.37c-2.34-1.27-4.4-2.95-6.1-5.01
			c-1.7-2.06-2.97-4.4-3.77-6.94c-0.83-2.63-1.12-5.37-0.85-8.14c0.49-5.14,2.86-9.87,6.69-13.33c3.8-3.43,8.7-5.33,13.8-5.33
			c0.65,0,1.32,0.03,1.97,0.09c2.77,0.26,5.4,1.06,7.83,2.37c2.34,1.27,4.4,2.95,6.1,5.01c1.7,2.06,2.97,4.39,3.77,6.94
			c0.83,2.63,1.12,5.37,0.85,8.14c-0.49,5.13-2.86,9.87-6.69,13.33C164.9,79.07,160,80.96,154.89,80.96z M154.85,47
			c-6.92,0-12.63,5.2-13.28,12.1c-0.34,3.55,0.73,7.02,3,9.78c2.27,2.75,5.48,4.45,9.04,4.79c0.43,0.04,0.86,0.06,1.29,0.06
			c6.92,0,12.63-5.2,13.28-12.1c0.7-7.33-4.7-13.87-12.04-14.57C155.71,47.02,155.28,47,154.85,47z M146.05,161.68l-1.93-1.63
			c-0.33-0.28-8.24-7-16.47-16.7c-4.88-5.74-8.85-11.35-11.81-16.65c-3.81-6.84-5.97-13.25-6.41-19.06l-0.33-4.29l0.26,0.02
			c0.02-0.34,0.04-0.68,0.08-1.02c0.61-6.45,3.6-12.4,8.4-16.74c4.77-4.32,10.93-6.69,17.34-6.69c0.82,0,1.66,0.04,2.48,0.12
			c3.59,0.34,6.99,1.4,10.12,3.14c1.98,1.1,3.79,2.44,5.4,4c4.18-2.73,9.08-4.2,14.1-4.2c0.82,0,1.66,0.04,2.48,0.12
			c3.43,0.33,6.69,1.31,9.71,2.91c2.91,1.55,5.47,3.62,7.61,6.15c2.13,2.53,3.75,5.39,4.79,8.52c1.08,3.23,1.5,6.61,1.26,10.03
			c-0.01,0.2-0.03,0.41-0.05,0.61c-0.27,2.8-0.98,5.51-2.11,8.06c-2.26,6.08-6.55,12.45-12.76,18.94
			c-4.61,4.81-10.24,9.66-16.73,14.41c-7.29,5.33-12.97,8.57-13.21,8.7L146.05,161.68z M117,109.78c1.5,8.19,7.02,18.08,16.1,28.8
			c5.51,6.5,10.98,11.69,13.78,14.24c2.25-1.38,6.01-3.79,10.3-6.93c9.96-7.29,22.73-18.43,27.02-30.12l0.04-0.12l0.05-0.12
			c0.84-1.86,1.36-3.84,1.56-5.89c0.01-0.15,0.03-0.3,0.04-0.44c0.72-10.01-6.83-18.93-16.83-19.88c-0.6-0.06-1.2-0.09-1.79-0.09
			c-4.47,0-8.8,1.62-12.2,4.57l-2.87,2.49l-2.35-2.99c-3.18-4.05-7.76-6.55-12.89-7.04c-0.6-0.06-1.2-0.09-1.79-0.09
			c-9.65,0-17.61,7.26-18.53,16.88c-0.12,1.3-0.11,2.62,0.04,3.91L117,109.78z"/>
		<path class="st0" d="M187.07,91.16c-0.23-0.27-0.47-0.54-0.71-0.81c-2.81,0.37-5.48,1.24-7.96,2.58c1.81,1.36,3.37,3.04,4.59,4.94
			c1.4-0.58,2.9-0.97,4.44-1.16c0.65-0.08,1.31-0.12,1.97-0.12c0.41,0,0.82,0.02,1.23,0.05C189.68,94.68,188.49,92.85,187.07,91.16z
			"/>
	</g>
</g>
<g id="Layer_2">
</g>
<g id="Layer_3">
</g>
<g id="Layer_4">
</g>
<g id="Layer_5">
</g>
<g id="Layer_6">
</g>
<g id="Layer_7">
</g>
<g id="Layer_8">
</g>
<g id="Layer_9">
</g>
<g id="Layer_10">
</g>
<g id="Layer_11">
</g>
<g id="Layer_12">
</g>
<g id="Layer_13">
</g>
<g id="Layer_14">
</g>
<g id="Layer_15">
</g>
</svg>
