<?xml version="1.0" encoding="utf-8"?>
<!-- Generator: Adobe Illustrator 27.8.1, SVG Export Plug-In . SVG Version: 6.00 Build 0)  -->
<svg version="1.1" xmlns="http://www.w3.org/2000/svg" xmlns:xlink="http://www.w3.org/1999/xlink" x="0px" y="0px"
	 viewBox="0 0 350 230" style="enable-background:new 0 0 350 230;" xml:space="preserve">
<style type="text/css">
	.st0{fill:#ED1C24;}
	.st1{fill:#11A5A5;}
	.st2{fill:#AD0015;}
	.st3{fill:#C8161D;}
	.st4{fill:#C93540;}
	.st5{fill:#C14851;}
	.st6{fill:#003644;}
	.st7{fill:#FF395A;}
	.st8{fill:#030089;}
	.st9{fill:#F36C21;}
	.st10{fill:#FF0098;}
	.st11{fill:none;}
	.st12{fill-rule:evenodd;clip-rule:evenodd;}
	.st13{opacity:0.39;fill:#C9C9C9;enable-background:new    ;}
	.st14{opacity:0.23;fill:#00567A;enable-background:new    ;}
	.st15{fill:#005968;}
	.st16{opacity:0.13;fill:#00567A;enable-background:new    ;}
	.st17{opacity:0.16;fill:#C9C9C9;enable-background:new    ;}
	.st18{fill:#00BDFF;}
	.st19{fill:#0055FF;}
	.st20{fill:#E50055;}
	.st21{fill:#B60C44;}
	.st22{fill:#EC6A84;}
	.st23{fill:#936500;}
	.st24{fill:#894E00;}
	.st25{fill:#ED73A4;}
	.st26{fill:#3A001A;}
</style>
<g id="Layer_1">
</g>
<g id="Layer_2">
</g>
<g id="Layer_3">
</g>
<g id="Layer_4">
</g>
<g id="Layer_5">
</g>
<g id="Layer_6">
</g>
<g id="Layer_7">
</g>
<g id="Layer_8">
</g>
<g id="Layer_9">
</g>
<g id="Layer_10">
</g>
<g id="Layer_11">
</g>
<g id="Layer_12">
</g>
<g id="Layer_13">
	<g>
		<ellipse class="st17" cx="175" cy="165.57" rx="60.62" ry="6.67"/>
		<path class="st23" d="M180.58,72.89H169.3c-1.02,0-1.84-0.82-1.84-1.84s0.82-1.84,1.84-1.84h11.28c1.02,0,1.84,0.82,1.84,1.84
			S181.6,72.89,180.58,72.89z M173.93,167.99c-26.32,0-47.73-21.41-47.73-47.73s21.41-47.73,47.73-47.73s47.73,21.41,47.73,47.73
			C221.66,146.58,200.25,167.99,173.93,167.99z M173.93,82.24c-20.97,0-38.02,17.06-38.02,38.02s17.06,38.02,38.02,38.02
			s38.02-17.06,38.02-38.02C211.95,99.3,194.9,82.24,173.93,82.24z"/>
		<path class="st24" d="M173.95,78.59c-22.98,0-41.68,18.7-41.68,41.68c0,22.98,18.7,41.68,41.68,41.68s41.68-18.7,41.68-41.68
			C215.63,97.29,196.93,78.59,173.95,78.59z M173.95,158.29c-20.97,0-38.02-17.06-38.02-38.02c0-20.97,17.06-38.02,38.02-38.02
			s38.02,17.06,38.02,38.02C211.97,141.23,194.92,158.29,173.95,158.29z M169.68,69.21h-0.38c-1.02,0-1.84,0.82-1.84,1.84
			s0.82,1.84,1.84,1.84h11.28c1.02,0,1.84-0.82,1.84-1.84c0-0.29-0.07-0.55-0.19-0.8C176.78,72.96,170.4,71.62,169.68,69.21z"/>
		<path class="st20" d="M183.55,42.71c-4.06,0-7.45,2.78-8.42,6.53c-0.97-3.75-4.37-6.53-8.42-6.53c-4.81,0-8.71,3.9-8.71,8.71
			c0,13.95,17.13,19.96,17.13,19.96s17.13-7.55,17.13-19.96C192.26,46.61,188.36,42.71,183.55,42.71z M152.43,47.62
			c-0.38,0-0.77-0.11-1.11-0.34l-8.67-5.82c-0.92-0.62-1.16-1.86-0.55-2.78c0.62-0.92,1.86-1.16,2.78-0.55l8.67,5.82
			c0.92,0.62,1.16,1.86,0.55,2.78C153.7,47.31,153.07,47.62,152.43,47.62z M166.61,38.37c1.04-0.36,1.6-1.5,1.23-2.55l-3.43-9.86
			c-0.36-1.04-1.5-1.6-2.55-1.23c-1.04,0.36-1.6,1.5-1.23,2.55l3.43,9.86c0.29,0.83,1.06,1.34,1.89,1.34
			C166.17,38.48,166.39,38.45,166.61,38.37z M185.31,35.94l3.01-10c0.32-1.06-0.28-2.17-1.34-2.49c-1.06-0.32-2.17,0.28-2.49,1.34
			l-3.01,10c-0.32,1.06,0.28,2.17,1.34,2.49c0.19,0.06,0.39,0.09,0.58,0.09C184.26,37.36,185.05,36.8,185.31,35.94z M198.23,43.39
			l7.49-7.28c0.79-0.77,0.81-2.04,0.04-2.83c-0.77-0.79-2.04-0.81-2.83-0.04l-7.49,7.28c-0.79,0.77-0.81,2.04-0.04,2.83
			c0.39,0.4,0.91,0.61,1.43,0.61C197.34,43.96,197.84,43.77,198.23,43.39z"/>
		<path class="st21" d="M165.56,42.8c-4.27,0.56-7.56,4.2-7.56,8.62c0,13.95,17.13,19.96,17.13,19.96s12.73-5.62,16.24-15.13
			C175.84,75.89,161.38,57.38,165.56,42.8z"/>
		<path class="st22" d="M190.24,49.41c-0.62,1.06-2.81,0.93-4.88-0.29c-2.07-1.22-3.25-3.07-2.63-4.12
			c0.62-1.06,2.81-0.93,4.88,0.29S190.87,48.35,190.24,49.41z"/>
	</g>
</g>
<g id="Layer_14">
</g>
<g id="Layer_15">
</g>
</svg>
