<?xml version="1.0" encoding="utf-8"?>
<!-- Generator: Adobe Illustrator 27.8.1, SVG Export Plug-In . SVG Version: 6.00 Build 0)  -->
<svg version="1.1" xmlns="http://www.w3.org/2000/svg" xmlns:xlink="http://www.w3.org/1999/xlink" x="0px" y="0px"
	 viewBox="0 0 350 230" style="enable-background:new 0 0 350 230;" xml:space="preserve">
<style type="text/css">
	.st0{fill:#ED1C24;}
	.st1{fill:#11A5A5;}
	.st2{fill:#AD0015;}
	.st3{fill:#C8161D;}
	.st4{fill:#C93540;}
	.st5{fill:#C14851;}
	.st6{fill:#003644;}
	.st7{fill:#FF395A;}
	.st8{fill:#030089;}
	.st9{fill:#F36C21;}
	.st10{fill:#FF0098;}
	.st11{fill:none;}
	.st12{fill-rule:evenodd;clip-rule:evenodd;}
	.st13{opacity:0.39;fill:#C9C9C9;enable-background:new    ;}
	.st14{opacity:0.23;fill:#00567A;enable-background:new    ;}
	.st15{fill:#005968;}
	.st16{opacity:0.13;fill:#00567A;enable-background:new    ;}
	.st17{opacity:0.16;fill:#C9C9C9;enable-background:new    ;}
	.st18{fill:#00BDFF;}
	.st19{fill:#0055FF;}
	.st20{fill:#E50055;}
	.st21{fill:#B60C44;}
	.st22{fill:#EC6A84;}
	.st23{fill:#936500;}
	.st24{fill:#894E00;}
	.st25{fill:#ED73A4;}
	.st26{fill:#3A001A;}
</style>
<g id="Layer_1">
</g>
<g id="Layer_2">
</g>
<g id="Layer_3">
</g>
<g id="Layer_4">
</g>
<g id="Layer_5">
</g>
<g id="Layer_6">
</g>
<g id="Layer_7">
</g>
<g id="Layer_8">
</g>
<g id="Layer_9">
</g>
<g id="Layer_10">
	<g>
		<g>
			<path class="st0" d="M104.28,135.06c-0.76-7.79-12.74-17.04-14.51-17.62c-0.02-0.01-0.03-0.01-0.04-0.02
				c-0.24-0.06,5.35,8.06,4.37,16.71c-0.44,4.44-3.79,8.99-5.83,10.39c-0.06,0.04-0.13,0.09-0.19,0.13
				c-4.22,2.85-7.94,4.55-12.46,5.17c-0.01,0-0.02,0.01-0.03,0c-2.66,0.2-15.7,0.74-24.91-6.94c-5.47-4.56-9.68-11.86-12.65-17.99
				c4-9.96,10.92-16.72,22.64-18.4c-1.88-0.27-3.88-0.41-6.01-0.41c-1.63,0-3.2,0.06-4.72,0.18c3.57-0.52,6.86-1.92,9.65-3.97
				c5.37-3.95,8.86-10.31,8.86-17.49s-3.49-13.54-8.86-17.48c-3.59-2.64-8.02-4.2-12.83-4.2c-11.98,0-21.68,9.71-21.68,21.68
				s9.71,21.68,21.68,21.68c0.33,0,0.66-0.01,0.99-0.02c-8.47,0.99-14.88,3.83-19.16,7.86c-3.57,3.35-5.66,7.52-6.25,12.13
				c0,0,0,0.01,0,0.01c-1.53,8.07-1.43,26.72-1.43,36.53c0,3.49-0.01,8.25-0.03,12.45c-0.3,8.31,7,9.59,7,9.59h12.45
				c-1.58-0.13-7.42-1.06-7.45-7.83c0.02-4.58,0.04-10.23,0.04-14.22c0-5.26,0.13-10.35,0.5-15.19c1.94,2.18,4.07,4.27,6.34,6.15
				c10.4,8.66,25.37,10.38,34.56,9.73c0.48-0.03,0.91-0.1,1.31-0.2c2.51-0.2,7.3-1.02,13.24-4.11c2.4-1.25,4.99-2.87,7.69-4.97
				c0.08-0.06,0.16-0.12,0.24-0.19c4.73-3.67,6.9-10.1,7.31-11.86C104.77,139.69,104.39,136.25,104.28,135.06z M49.94,106.27
				c-0.71,0.11-1.43,0.18-2.16,0.21C48.48,106.39,49.2,106.32,49.94,106.27z"/>
			<path class="st0" d="M49.94,106.27c-0.71,0.11-1.43,0.18-2.16,0.21C48.48,106.39,49.2,106.32,49.94,106.27z"/>
			<path class="st0" d="M88.9,163.01c0,7.81-0.33,15.26-1.27,22.04h-47.3c-1.58-0.13-7.42-1.06-7.45-7.83
				c0.02-4.58,0.04-10.23,0.04-14.22c0-5.26,0.13-10.35,0.5-15.19c1.94,2.18,4.07,4.27,6.34,6.15c10.4,8.66,25.37,10.38,34.56,9.73
				c0.48-0.03,0.91-0.1,1.31-0.2c2.51-0.2,7.3-1.02,13.24-4.11C88.89,160.59,88.9,161.79,88.9,163.01z"/>
			<path d="M72.51,106.5h-0.09c-1.37,0-2.72-0.13-4.02-0.37C69.84,106.18,71.21,106.3,72.51,106.5z"/>
			<path d="M96.63,163.83v13.9c-0.25,6.04-6.29,7.46-6.29,7.46l-49.61-0.12c0,0-0.14,0-0.39-0.02c-1.58-0.13-7.42-1.06-7.45-7.83
				c0.02-4.58,0.04-10.23,0.04-14.22c0-5.26,0.13-10.35,0.5-15.19c1.94,2.18,4.07,4.27,6.34,6.15c10.4,8.66,25.37,10.38,34.56,9.73
				c0.48-0.03,0.91-0.1,1.31-0.2c2.51-0.2,7.3-1.02,13.24-4.11c2.4-1.25,4.99-2.87,7.69-4.97
				C96.62,157.49,96.63,160.63,96.63,163.83z"/>
			<g>
				<path class="st0" d="M28.6,114.33c-3.57,3.35-5.66,7.52-6.25,12.13c0,0,0,0.01,0,0.01c-0.02-0.47-0.02-0.91,0-1.35
					C22.78,120.36,25.43,116.86,28.6,114.33z"/>
			</g>
			<path d="M89.73,117.43c0.01,0,0.03,0.01,0.04,0.02c-3.57-5.83-9-9.73-17.24-10.94c11.93-0.06,21.57-9.75,21.57-21.68
				c0-11.98-9.71-21.68-21.68-21.68c-4.8,0-9.23,1.56-12.82,4.2c5.37,3.95,8.86,10.31,8.86,17.48s-3.49,13.54-8.86,17.49
				c2.56,1.88,5.55,3.21,8.79,3.82c-0.56-0.02-1.13-0.03-1.72-0.03c-2.13,0-4.13,0.14-6,0.41c-11.73,1.68-18.65,8.44-22.64,18.4
				c2.97,6.13,7.18,13.43,12.65,17.99c9.22,7.68,22.25,7.14,24.91,6.94c0.01,0,0.02,0,0.03,0c4.52-0.62,8.24-2.32,12.46-5.17
				c0.06-0.04,0.12-0.09,0.19-0.13c2.04-1.39,5.39-5.94,5.83-10.39C95.08,125.49,89.49,117.36,89.73,117.43z M72.51,106.5h-0.09
				c-1.37,0-2.72-0.13-4.02-0.37C69.84,106.18,71.21,106.3,72.51,106.5z"/>
			<path d="M72.51,106.5h-0.09c-1.37,0-2.72-0.13-4.02-0.37C69.84,106.18,71.21,106.3,72.51,106.5z"/>
			<path class="st0" d="M49.94,106.27c-0.71,0.11-1.43,0.18-2.16,0.21C48.48,106.39,49.2,106.32,49.94,106.27z"/>
		</g>
		<g>
			<g>
				<g>
					<path class="st0" d="M65.43,50.67c-1.1,0-2.03-0.83-2.16-1.92c-0.03-0.29-0.01-0.58,0.07-0.86c0.08-0.27,0.21-0.52,0.38-0.74
						c0.18-0.22,0.39-0.41,0.63-0.54c0.25-0.14,0.53-0.23,0.82-0.27c0.09-0.01,0.17-0.02,0.26-0.02c1.1,0,2.03,0.83,2.16,1.92
						c0.03,0.29,0.01,0.58-0.07,0.86c-0.08,0.27-0.21,0.52-0.38,0.74c-0.18,0.22-0.39,0.41-0.63,0.54
						c-0.25,0.14-0.53,0.23-0.82,0.27C65.61,50.67,65.52,50.67,65.43,50.67z"/>
					<g>
						<g>
							<path class="st0" d="M61.67,53.23c-0.01,0.11-0.02,0.21-0.01,0.32C61.66,53.44,61.66,53.34,61.67,53.23z"/>
							<path class="st0" d="M64.77,53.55c-0.04,0.2-0.11,0.4-0.19,0.59c-0.27,0.72-0.78,1.48-1.52,2.25c0,0-0.01,0.01-0.01,0.01
								c-0.06-0.06-0.11-0.13-0.17-0.19c-0.55-0.62-0.91-1.24-1.09-1.83l-0.13-0.44l0.03,0c-0.01-0.03-0.01-0.07-0.01-0.11
								c-0.01-0.1-0.02-0.2-0.02-0.29H64.77z"/>
						</g>
					</g>
				</g>
				<g>
					<path d="M60.3,49.7c-0.08,0-0.16,0-0.23-0.01c-0.33-0.03-0.64-0.13-0.93-0.28c-0.28-0.15-0.52-0.35-0.72-0.6
						s-0.35-0.52-0.45-0.82c-0.1-0.31-0.13-0.64-0.1-0.97c0.06-0.61,0.34-1.17,0.79-1.58c0.45-0.41,1.03-0.63,1.64-0.63
						c0.08,0,0.16,0,0.23,0.01c0.33,0.03,0.64,0.13,0.93,0.28c0.28,0.15,0.52,0.35,0.72,0.6c0.2,0.24,0.35,0.52,0.45,0.82
						c0.1,0.31,0.13,0.64,0.1,0.97c-0.06,0.61-0.34,1.17-0.79,1.58C61.49,49.47,60.9,49.7,60.3,49.7z"/>
					<g>
						<g>
							<path d="M64.77,53.55c-0.04,0.2-0.11,0.4-0.19,0.59c-0.27,0.72-0.78,1.48-1.52,2.25c0,0-0.01,0.01-0.01,0.01
								c-0.54,0.57-1.21,1.14-1.97,1.7c-0.87,0.63-1.54,1.02-1.57,1.03l-0.26,0.15l-0.23-0.19c-0.04-0.03-0.98-0.83-1.96-1.98
								c-0.58-0.68-1.05-1.35-1.4-1.98c-0.45-0.81-0.71-1.57-0.76-2.26l-0.04-0.51l0.03,0c0-0.04,0.01-0.08,0.01-0.12
								c0.07-0.77,0.43-1.47,1-1.99c0.57-0.51,1.3-0.79,2.06-0.79c0.1,0,0.2,0,0.3,0.01c0.43,0.04,0.83,0.17,1.2,0.37
								c0.24,0.13,0.45,0.29,0.64,0.48c0.5-0.32,1.08-0.5,1.68-0.5c0.1,0,0.2,0,0.29,0.01c0.41,0.04,0.8,0.16,1.15,0.35
								c0.31,0.16,0.58,0.38,0.82,0.63c-0.01,0-0.02,0-0.03,0c-0.03,0-0.06,0.01-0.09,0.01c-0.19,0.03-0.38,0.09-0.56,0.16
								c-0.03,0.01-0.05,0.02-0.08,0.03c-0.08,0.03-0.16,0.07-0.24,0.12c-0.31,0.17-0.58,0.41-0.79,0.68
								c-0.22,0.28-0.38,0.59-0.48,0.93c-0.03,0.09-0.05,0.19-0.07,0.28c-0.01,0.06-0.02,0.13-0.03,0.19
								c-0.01,0.11-0.02,0.21-0.01,0.32H64.77z"/>
						</g>
					</g>
				</g>
			</g>
			<path class="st0" d="M70.46,53.69c-0.1,0.68-0.4,1.43-0.9,2.24c-0.37,0.6-0.84,1.23-1.41,1.86c-0.63,0.71-1.15,1.17-1.17,1.19
				l-0.2,0.18l-0.24-0.13c-0.04-0.02-1.01-0.54-2.07-1.36c-0.55-0.42-1.03-0.85-1.42-1.27c0,0,0.01-0.01,0.01-0.01
				c0.74-0.77,1.25-1.53,1.52-2.25c0.08-0.19,0.15-0.39,0.19-0.59h-3.12c0-0.11,0-0.21,0.01-0.32c0.01-0.06,0.02-0.13,0.03-0.19
				c0.02-0.09,0.04-0.19,0.07-0.28c0.1-0.34,0.26-0.65,0.48-0.93c0.22-0.28,0.49-0.51,0.79-0.68c0.08-0.04,0.16-0.08,0.24-0.12
				c0.03-0.01,0.05-0.02,0.08-0.03c0.18-0.07,0.37-0.13,0.56-0.16c0.03,0,0.06-0.01,0.09-0.01c0.01,0,0.02,0,0.03,0
				c0.01,0,0.03,0,0.04,0c0.11-0.01,0.21-0.02,0.32-0.02c0.51,0,1.01,0.14,1.44,0.41c0.17-0.17,0.35-0.31,0.56-0.44
				c0.33-0.19,0.68-0.31,1.06-0.36c0.11-0.01,0.22-0.02,0.32-0.02c0.65,0,1.29,0.24,1.79,0.67c0.5,0.43,0.83,1.03,0.92,1.69
				c0,0.02,0,0.04,0.01,0.06C70.53,53.1,70.52,53.4,70.46,53.69z"/>
		</g>
	</g>
</g>
<g id="Layer_11">
</g>
<g id="Layer_12">
</g>
<g id="Layer_13">
</g>
<g id="Layer_14">
</g>
<g id="Layer_15">
</g>
</svg>
