<?xml version="1.0" encoding="utf-8"?>
<!-- Generator: Adobe Illustrator 27.8.1, SVG Export Plug-In . SVG Version: 6.00 Build 0)  -->
<svg version="1.1" id="Layer_1" xmlns="http://www.w3.org/2000/svg" xmlns:xlink="http://www.w3.org/1999/xlink" x="0px" y="0px"
	 viewBox="0 0 350 230" style="enable-background:new 0 0 350 230;" xml:space="preserve">
<style type="text/css">
	.st0{fill:#C8161D;}
	.st1{opacity:0.39;fill:#C9C9C9;enable-background:new    ;}
	.st2{opacity:0.23;fill:#00567A;enable-background:new    ;}
	.st3{fill:#ED1C24;}
	.st4{fill:#005968;}
	.st5{opacity:0.13;fill:#00567A;enable-background:new    ;}
</style>
<g>
	<path d="M215.58,74.93c0.37,1.81,1.09,4.57,1.49,6.36c0.88,3.94,0.33,7.4-0.29,9.88c0,0,0.39-3.41-1.58-6.85
		c-0.81-1.42-2.6-5.12-2.45-8.17c0.02-3.15,2.77-4.99,2.77-4.99S215.22,73.12,215.58,74.93z M211.94,77.61
		c0.21,1.12,0.52,2.93,1.43,4.88c0.91,1.94,1.42,2.84,1.91,3.91c0.49,1.07,0.86,2.7,0.84,3.16c0,0-0.36-1.84-2.69-4.83
		c-1.15-1.69-2.46-2.31-2.99-4.62c-0.56-2.87,1.71-4.88,1.71-4.88S211.73,76.49,211.94,77.61z M181,113.67
		c1.81-2.63,5.74-8.69,14.92-13.16c0,0,3.71-1.41,6.12-3.06c4.21-3.1,5.91-7.57,7.76-10.06c0.6-0.81,2.47,0.15,3.39,2.44
		c1.06,2.34-0.89,7.77-4.06,11.97c0,0-3.98,5.39-7.66,7.91c3.76-2.2,12.23-8.02,15.51-17.21c3.03-8.51-0.28-15.65-0.33-16.87
		c-0.75-3.41-0.46-6.69,1.96-7.84c0.67-0.18,1.17,0.07,1.62,0.72c2.63,3.77,8.06,14,3.31,28.71c-1.9,5.87-7.82,16.02-15.81,23.81
		c-9.75,9.51-20.94,12.06-24.87,26.21c0,0-2.11,6.84,6.77,13.21c0,0-9.38-1.85-13.97-18.4C175.64,142.04,172.26,126.4,181,113.67z
		 M134.42,74.93c-0.36,1.81-1.09,4.57-1.49,6.36c-0.88,3.94-0.33,7.4,0.29,9.88c0,0-0.39-3.41,1.58-6.85
		c0.81-1.42,2.6-5.12,2.45-8.17c-0.02-3.15-2.77-4.99-2.77-4.99S134.78,73.12,134.42,74.93z M138.06,77.61
		c-0.21,1.12-0.52,2.93-1.43,4.88c-0.91,1.94-1.42,2.84-1.91,3.91c-0.49,1.07-0.86,2.7-0.84,3.16c0,0,0.36-1.84,2.69-4.83
		c1.15-1.69,2.46-2.31,2.99-4.62c0.56-2.87-1.71-4.88-1.71-4.88S138.26,76.49,138.06,77.61z M169,113.67
		c-1.81-2.63-5.74-8.69-14.92-13.16c0,0-3.71-1.41-6.12-3.06c-4.21-3.1-5.91-7.57-7.76-10.06c-0.6-0.81-2.47,0.15-3.39,2.44
		c-1.06,2.34,0.89,7.77,4.06,11.97c0,0,3.98,5.39,7.66,7.91c-3.76-2.2-12.23-8.02-15.51-17.21c-3.03-8.51,0.28-15.65,0.33-16.87
		c0.75-3.41,0.46-6.69-1.96-7.84c-0.67-0.18-1.17,0.07-1.62,0.72c-2.63,3.77-8.06,14-3.31,28.71c1.9,5.87,7.82,16.02,15.81,23.81
		c9.75,9.51,20.94,12.06,24.87,26.21c0,0,2.11,6.84-6.77,13.21c0,0,9.38-1.85,13.97-18.4C174.36,142.04,177.74,126.4,169,113.67z"/>
	<path class="st0" d="M206.4,61.34c0,1.38-0.15,2.73-0.44,4.02c-0.14,0.63-0.32,1.25-0.52,1.86c-4.74,18.04-30.38,35.98-30.38,35.98
		s-27.72-19.25-31.06-37.93c-0.01-0.05-0.02-0.09-0.02-0.14H144c-0.26-1.22-0.4-2.49-0.4-3.8c0-10.06,8.15-18.21,18.21-18.21
		c5.19,0,9.87,2.17,13.19,5.65c3.32-3.48,8-5.65,13.19-5.65C198.25,43.13,206.4,51.28,206.4,61.34z"/>
</g>
</svg>
