<?xml version="1.0" encoding="utf-8"?>
<!-- Generator: Adobe Illustrator 27.8.1, SVG Export Plug-In . SVG Version: 6.00 Build 0)  -->
<svg version="1.1" id="Layer_1" xmlns="http://www.w3.org/2000/svg" xmlns:xlink="http://www.w3.org/1999/xlink" x="0px" y="0px"
	 viewBox="0 0 350 230" style="enable-background:new 0 0 350 230;" xml:space="preserve">
<style type="text/css">
	.st0{fill:#C8161D;}
	.st1{opacity:0.39;fill:#C9C9C9;enable-background:new    ;}
	.st2{opacity:0.23;fill:#00567A;enable-background:new    ;}
	.st3{fill:#ED1C24;}
	.st4{fill:#005968;}
	.st5{opacity:0.13;fill:#00567A;enable-background:new    ;}
</style>
<g>
	<path class="st1" d="M241.51,156.19c0,3.69-27.14,6.68-60.62,6.68s-60.62-2.99-60.62-6.68c0-3.68,27.14-6.67,60.62-6.67
		c10.99,0,21.3,0.32,30.19,0.89h0.01l2.16,2.14c0.17,0.17,0.34,0.32,0.52,0.47c0.11,0.09,0.23,0.18,0.34,0.26
		c0.18,0.12,0.36,0.23,0.54,0.34c0.06,0.03,0.12,0.07,0.19,0.1c0.01,0.01,0.03,0.02,0.05,0.03c0.04,0.02,0.08,0.04,0.12,0.06
		c0.23,0.13,0.47,0.22,0.71,0.31c0.07,0.03,0.15,0.06,0.22,0.08c0.15,0.05,0.29,0.09,0.44,0.13c0.13,0.03,0.27,0.06,0.4,0.09
		c1.09,0.21,2.21,0.15,3.27-0.16c1.07-0.32,2.07-0.9,2.91-1.75l1-1.01C234.8,152.7,241.51,154.36,241.51,156.19z"/>
	<g>
		<path class="st2" d="M196.3,80.4c0,0.42-0.01,0.83-0.02,1.25c0,0.06,0,0.12-0.01,0.18c-0.01,0.36-0.03,0.73-0.05,1.09
			c-0.06,0.97-0.16,1.93-0.29,2.88c-0.05,0.35-0.1,0.7-0.16,1.05c-0.07,0.42-0.14,0.84-0.23,1.26c-0.06,0.3-0.12,0.6-0.19,0.9
			c-0.16,0.73-0.34,1.45-0.55,2.16c-0.09,0.32-0.18,0.63-0.28,0.93c-0.09,0.3-0.18,0.59-0.28,0.87c-0.06,0.18-0.12,0.36-0.19,0.54
			c-0.04,0.14-0.09,0.28-0.15,0.42c-0.11,0.31-0.22,0.61-0.34,0.9c-1.01,2.57-2.28,5-3.78,7.26c-0.18,0.27-0.36,0.53-0.54,0.79
			c-0.22,0.32-0.45,0.63-0.67,0.94c-1.36,1.83-2.86,3.53-4.51,5.09c-0.23,0.22-0.46,0.44-0.69,0.65c-1.12,1.02-2.31,1.98-3.55,2.87
			c-0.33,0.24-0.67,0.47-1.01,0.7c-0.34,0.23-0.68,0.46-1.03,0.67c-0.01,0-0.01,0-0.01,0c-0.38,0.25-0.76,0.48-1.14,0.69
			c-0.38,0.23-0.77,0.45-1.17,0.66c-0.4,0.21-0.8,0.42-1.2,0.62c-0.4,0.2-0.81,0.39-1.22,0.57c-0.41,0.19-0.83,0.37-1.25,0.54
			c-0.42,0.17-0.84,0.34-1.26,0.49c-0.03,0.02-0.07,0.03-0.1,0.04c-0.79,0.29-1.59,0.56-2.4,0.79c-0.05,0.02-0.09,0.03-0.13,0.04
			c-0.86,0.26-1.74,0.48-2.63,0.67c-0.45,0.1-0.9,0.19-1.36,0.27c-0.02,0.01-0.03,0.01-0.05,0.01c-0.4,0.07-0.81,0.14-1.21,0.2
			c-0.5,0.07-1.01,0.14-1.51,0.19c-0.32,0.04-0.64,0.07-0.96,0.09c-0.09,0.01-0.17,0.02-0.26,0.02c-0.18,0.02-0.36,0.03-0.54,0.04
			c-0.35,0.02-0.71,0.04-1.06,0.05c-0.48,0.02-0.95,0.03-1.43,0.03c-21.73,0-39.4-17.68-39.4-39.41c0-1.14,0.05-2.27,0.15-3.39
			c0.02-0.28,0.05-0.57,0.08-0.85c0.02-0.26,0.05-0.52,0.09-0.77c0.02-0.17,0.04-0.35,0.07-0.53c0.03-0.26,0.07-0.52,0.12-0.77
			c0.03-0.22,0.07-0.44,0.11-0.66c0.04-0.24,0.09-0.49,0.14-0.73c0.11-0.58,0.24-1.15,0.38-1.72c0.07-0.31,0.15-0.61,0.24-0.92
			c0.09-0.36,0.2-0.72,0.31-1.08c0.09-0.29,0.18-0.59,0.28-0.88c0.1-0.32,0.21-0.64,0.33-0.96c0.08-0.24,0.17-0.49,0.27-0.73
			c0.38-1.02,0.81-2.02,1.29-3c0.07-0.16,0.15-0.32,0.23-0.47c0.17-0.35,0.34-0.69,0.52-1.03c0.21-0.39,0.43-0.78,0.66-1.17
			c0.16-0.29,0.33-0.58,0.51-0.86c0.23-0.39,0.48-0.77,0.73-1.15c0.11-0.18,0.23-0.35,0.36-0.53c0.37-0.55,0.76-1.09,1.17-1.62
			c0.2-0.26,0.4-0.52,0.61-0.78s0.42-0.52,0.64-0.77c0.21-0.26,0.43-0.51,0.65-0.76c0.22-0.25,0.44-0.49,0.67-0.73
			c0.45-0.49,0.92-0.97,1.4-1.43c0.23-0.23,0.48-0.45,0.72-0.68c0,0,0-0.01,0.01-0.01c0.44-0.4,0.88-0.79,1.33-1.17
			c0.46-0.39,0.92-0.77,1.4-1.12c0.47-0.37,0.96-0.72,1.45-1.06c0.41-0.29,0.83-0.57,1.26-0.85c0.1-0.07,0.2-0.14,0.31-0.2
			c0.97-0.61,1.96-1.18,2.99-1.7c0.02-0.01,0.04-0.02,0.06-0.03c0.49-0.25,0.98-0.49,1.48-0.72c0.11-0.05,0.22-0.1,0.33-0.15
			c0.45-0.2,0.9-0.39,1.36-0.58c0.33-0.13,0.65-0.26,0.98-0.38c0.29-0.11,0.57-0.21,0.86-0.31c0.29-0.1,0.58-0.2,0.87-0.29
			c0.58-0.19,1.17-0.36,1.76-0.51c0.3-0.09,0.59-0.16,0.89-0.23c0.3-0.08,0.6-0.15,0.9-0.21c0.69-0.15,1.39-0.29,2.1-0.4
			c0.21-0.04,0.43-0.07,0.65-0.1c0.22-0.03,0.45-0.06,0.67-0.09c0.28-0.04,0.55-0.07,0.83-0.1c0.12-0.01,0.25-0.03,0.37-0.04
			c0.48-0.04,0.97-0.08,1.45-0.11c0.15-0.01,0.3-0.02,0.44-0.02c0.64-0.03,1.28-0.05,1.92-0.05C178.62,41,196.3,58.67,196.3,80.4z"
			/>
		<path class="st3" d="M164.7,54.74c-6.47,2.01-10.51,8.13-10.19,14.59c-3.41-5.51-10.2-8.25-16.67-6.23
			c-7.67,2.39-11.95,10.54-9.56,18.21c6.92,22.24,37.22,23.32,37.22,23.32s23.57-20.54,17.41-40.33
			C180.52,56.63,172.37,52.35,164.7,54.74z"/>
		<path class="st4" d="M231.36,134.28l-19.03-18.87l0.39-0.41c2.12-2.21,2.04-5.7-0.16-7.81c-2.2-2.12-5.69-2.04-7.81,0.16
			l-3.67,3.83l-3.95-3.91c5.16-7.69,8.17-16.94,8.17-26.87c0-26.69-21.72-48.4-48.41-48.4s-48.4,21.71-48.4,48.4
			s21.71,48.41,48.4,48.41c10.59,0,20.4-3.42,28.37-9.22l3.97,3.93l-3.77,3.93c-2.11,2.2-2.04,5.7,0.16,7.81
			c1.07,1.03,2.45,1.54,3.82,1.54c1.45,0,2.9-0.57,3.99-1.7l1.08-1.13l16.57,16.44h0.01l2.16,2.14c0.17,0.17,0.34,0.32,0.52,0.47
			c0.11,0.09,0.23,0.18,0.34,0.26c0.18,0.12,0.36,0.23,0.54,0.34c0.06,0.03,0.12,0.07,0.19,0.1c0.01,0.01,0.03,0.02,0.05,0.03
			c0.04,0.02,0.08,0.04,0.12,0.06c0.04,0.03,0.09,0.05,0.13,0.06c0.15,0.07,0.3,0.14,0.45,0.2c0.02,0.01,0.04,0.02,0.05,0.02
			c0.1,0.04,0.2,0.08,0.3,0.11c0.15,0.05,0.29,0.09,0.44,0.13c0.13,0.03,0.27,0.06,0.4,0.09c1.09,0.21,2.21,0.15,3.27-0.16
			c1.07-0.32,2.07-0.9,2.91-1.75l1-1.01l2.97-3l4.47-4.51C234.07,141.3,234.06,136.95,231.36,134.28z M196.28,81.65
			c0,0.06,0,0.12-0.01,0.18c-0.01,0.36-0.03,0.73-0.05,1.09c-0.06,0.97-0.16,1.93-0.29,2.88c-0.05,0.35-0.1,0.7-0.16,1.05
			c-0.07,0.42-0.14,0.84-0.23,1.26c-0.06,0.3-0.12,0.6-0.19,0.9c-0.16,0.73-0.34,1.45-0.55,2.16c-0.08,0.31-0.18,0.62-0.28,0.93
			c-0.09,0.3-0.18,0.59-0.28,0.87c-0.06,0.18-0.12,0.36-0.19,0.54c-0.04,0.14-0.09,0.28-0.15,0.42c-0.1,0.3-0.22,0.6-0.34,0.9
			c-1.01,2.57-2.28,5-3.78,7.26c-0.18,0.27-0.36,0.53-0.54,0.79c-0.22,0.32-0.45,0.63-0.67,0.94c-1.36,1.83-2.86,3.53-4.51,5.09
			c-0.23,0.22-0.46,0.44-0.69,0.65c-1.12,1.02-2.31,1.98-3.55,2.87c-0.33,0.24-0.67,0.48-1.01,0.7c-0.34,0.23-0.68,0.46-1.03,0.67
			c-0.01,0-0.01,0-0.01,0c-0.38,0.25-0.76,0.48-1.14,0.69c-0.38,0.23-0.77,0.45-1.17,0.66c-0.39,0.22-0.79,0.42-1.2,0.62
			c-0.4,0.2-0.81,0.39-1.22,0.57c-0.42,0.2-0.83,0.37-1.25,0.54c-0.42,0.18-0.84,0.34-1.26,0.49c-0.03,0.02-0.07,0.03-0.1,0.04
			c-0.79,0.29-1.59,0.56-2.4,0.79c-0.05,0.02-0.09,0.03-0.13,0.04c-0.86,0.26-1.74,0.48-2.63,0.67c-0.45,0.1-0.9,0.19-1.36,0.27
			c-0.02,0.01-0.03,0.01-0.05,0.01c-0.4,0.08-0.81,0.14-1.21,0.2c-0.5,0.07-1.01,0.14-1.51,0.19c-0.32,0.04-0.64,0.07-0.96,0.09
			c-0.09,0.01-0.17,0.02-0.26,0.02c-0.18,0.02-0.36,0.03-0.54,0.04c-0.35,0.02-0.71,0.04-1.06,0.05c-0.48,0.02-0.95,0.03-1.43,0.03
			c-21.73,0-39.4-17.68-39.4-39.41c0-1.14,0.05-2.27,0.15-3.39c0.02-0.28,0.05-0.57,0.08-0.85c0.02-0.26,0.05-0.52,0.09-0.77
			c0.02-0.17,0.04-0.35,0.07-0.53c0.03-0.26,0.07-0.52,0.12-0.77c0.03-0.22,0.07-0.44,0.11-0.66c0.04-0.24,0.09-0.49,0.14-0.73
			c0.11-0.58,0.24-1.15,0.38-1.72c0.07-0.31,0.15-0.61,0.24-0.92c0.09-0.36,0.2-0.72,0.31-1.08c0.09-0.29,0.18-0.59,0.28-0.88
			c0.1-0.32,0.21-0.64,0.33-0.96c0.08-0.24,0.17-0.49,0.27-0.73c0.38-1.02,0.81-2.02,1.29-3c0.07-0.16,0.15-0.32,0.23-0.47
			c0.17-0.35,0.34-0.69,0.52-1.03c0.21-0.39,0.43-0.78,0.66-1.17c0.16-0.29,0.33-0.58,0.51-0.86c0.23-0.39,0.48-0.77,0.73-1.15
			c0.11-0.18,0.23-0.35,0.36-0.53c0.37-0.55,0.76-1.09,1.17-1.62c0.19-0.26,0.39-0.52,0.61-0.78c0.2-0.26,0.41-0.52,0.64-0.77
			c0.2-0.26,0.42-0.51,0.65-0.76c0.21-0.25,0.43-0.49,0.67-0.73c0.45-0.49,0.92-0.97,1.4-1.43c0.23-0.24,0.47-0.47,0.72-0.68
			c0,0,0-0.01,0.01-0.01c0.43-0.41,0.88-0.8,1.33-1.17c0.46-0.39,0.92-0.77,1.4-1.12c0.47-0.38,0.96-0.73,1.45-1.06
			c0.41-0.3,0.83-0.58,1.26-0.85c0.1-0.07,0.2-0.14,0.31-0.2c0.97-0.61,1.96-1.18,2.99-1.7c0.02-0.01,0.04-0.02,0.06-0.03
			c0.48-0.25,0.98-0.49,1.48-0.72c0.11-0.05,0.22-0.1,0.33-0.15c0.45-0.2,0.9-0.4,1.36-0.58c0.33-0.13,0.65-0.26,0.98-0.38
			c0.29-0.11,0.57-0.21,0.86-0.31c0.29-0.1,0.58-0.2,0.87-0.29c0.58-0.19,1.17-0.36,1.76-0.51c0.3-0.09,0.59-0.16,0.89-0.23
			c0.3-0.08,0.6-0.15,0.9-0.21c0.69-0.15,1.39-0.29,2.1-0.4c0.21-0.04,0.43-0.07,0.65-0.1c0.22-0.03,0.45-0.06,0.67-0.09
			c0.28-0.04,0.55-0.07,0.83-0.1c0.12-0.01,0.25-0.03,0.37-0.04c0.48-0.04,0.97-0.08,1.45-0.11c0.15-0.01,0.3-0.02,0.44-0.02
			c0.64-0.03,1.28-0.05,1.92-0.05c21.73,0,39.41,17.67,39.41,39.4C196.3,80.82,196.29,81.23,196.28,81.65z"/>
		<path class="st5" d="M177.77,113.8c-0.38,0.25-0.76,0.48-1.14,0.69c-0.38,0.23-0.77,0.45-1.17,0.66c-0.4,0.21-0.8,0.42-1.2,0.62
			c-0.4,0.2-0.81,0.39-1.22,0.57c-0.41,0.19-0.83,0.37-1.25,0.54c-0.42,0.17-0.84,0.34-1.26,0.49c-0.03,0.02-0.07,0.03-0.1,0.04
			c-0.79,0.29-1.59,0.56-2.4,0.79c-0.05,0.02-0.09,0.03-0.13,0.04c-0.86,0.26-1.74,0.48-2.63,0.67c-0.45,0.1-0.9,0.19-1.36,0.27
			c-0.02,0.01-0.03,0.01-0.05,0.01c-0.4,0.07-0.81,0.14-1.21,0.2c-0.5,0.07-1.01,0.14-1.51,0.19c-0.32,0.04-0.64,0.07-0.96,0.09
			c-0.09,0.01-0.17,0.02-0.26,0.02c-0.18,0.02-0.36,0.03-0.54,0.04c-0.35,0.02-0.71,0.04-1.06,0.05c-0.48,0.02-0.95,0.03-1.43,0.03
			c-21.73,0-39.4-17.68-39.4-39.41c0-1.14,0.05-2.27,0.15-3.39c0.02-0.28,0.05-0.57,0.08-0.85c0.02-0.26,0.05-0.52,0.09-0.77
			c0.02-0.17,0.04-0.35,0.07-0.53c0.03-0.26,0.07-0.52,0.12-0.77c0.03-0.22,0.07-0.44,0.11-0.66c0.04-0.24,0.09-0.49,0.14-0.73
			c0.11-0.58,0.24-1.15,0.38-1.72c0.07-0.31,0.15-0.61,0.24-0.92c0.09-0.36,0.2-0.72,0.31-1.08c0.09-0.29,0.18-0.59,0.28-0.88
			c0.1-0.32,0.21-0.64,0.33-0.96c0.08-0.24,0.17-0.49,0.27-0.73c0.38-1.02,0.81-2.02,1.29-3c0.07-0.16,0.15-0.32,0.23-0.47
			c0.17-0.35,0.34-0.69,0.52-1.03c0.21-0.39,0.43-0.78,0.66-1.17c0.16-0.29,0.33-0.58,0.51-0.86c0.23-0.39,0.48-0.77,0.73-1.15
			c0.11-0.18,0.23-0.35,0.36-0.53c0.37-0.55,0.76-1.09,1.17-1.62c0.2-0.26,0.4-0.52,0.61-0.78s0.42-0.52,0.64-0.77
			c0.21-0.26,0.43-0.51,0.65-0.76c0.22-0.25,0.44-0.49,0.67-0.73c0.45-0.49,0.92-0.97,1.4-1.43c0.23-0.23,0.48-0.45,0.72-0.68
			c-4.81,6.72-7.63,14.94-7.63,23.83c0,22.67,18.37,41.05,41.04,41.05C168.6,116.31,173.36,115.42,177.77,113.8z M174.91,50.56
			c-8.6-5.33-17.02-7.31-18.82-4.41s3.71,9.57,12.31,14.9c8.6,5.33,17.02,7.31,18.82,4.41S183.51,55.89,174.91,50.56z"/>
	</g>
</g>
</svg>
