<?xml version="1.0" encoding="utf-8"?>
<!-- Generator: Adobe Illustrator 27.8.1, SVG Export Plug-In . SVG Version: 6.00 Build 0)  -->
<svg version="1.1" xmlns="http://www.w3.org/2000/svg" xmlns:xlink="http://www.w3.org/1999/xlink" x="0px" y="0px"
	 viewBox="0 0 350 230" style="enable-background:new 0 0 350 230;" xml:space="preserve">
<style type="text/css">
	.st0{fill:#ED1C24;}
	.st1{fill:#11A5A5;}
	.st2{fill:#AD0015;}
	.st3{fill:#C8161D;}
	.st4{fill:#C93540;}
	.st5{fill:#C14851;}
	.st6{fill:#003644;}
	.st7{fill:#FF395A;}
	.st8{fill:#030089;}
	.st9{fill:#F36C21;}
	.st10{fill:#FF0098;}
	.st11{fill:none;}
	.st12{fill-rule:evenodd;clip-rule:evenodd;}
	.st13{opacity:0.39;fill:#C9C9C9;enable-background:new    ;}
	.st14{opacity:0.23;fill:#00567A;enable-background:new    ;}
	.st15{fill:#005968;}
	.st16{opacity:0.13;fill:#00567A;enable-background:new    ;}
	.st17{opacity:0.16;fill:#C9C9C9;enable-background:new    ;}
	.st18{fill:#00BDFF;}
	.st19{fill:#0055FF;}
	.st20{fill:#E50055;}
	.st21{fill:#B60C44;}
	.st22{fill:#EC6A84;}
	.st23{fill:#936500;}
	.st24{fill:#894E00;}
	.st25{fill:#ED73A4;}
	.st26{fill:#3A001A;}
</style>
<g id="Layer_1">
</g>
<g id="Layer_2">
</g>
<g id="Layer_3">
</g>
<g id="Layer_4">
</g>
<g id="Layer_5">
</g>
<g id="Layer_6">
</g>
<g id="Layer_7">
</g>
<g id="Layer_8">
</g>
<g id="Layer_9">
</g>
<g id="Layer_10">
</g>
<g id="Layer_11">
</g>
<g id="Layer_12">
</g>
<g id="Layer_13">
</g>
<g id="Layer_14">
</g>
<g id="Layer_15">
	<g>
		<path d="M218.76,107.14c-1.5,3.27-3.42,6.76-5.9,10.35c-7.05,10.24-18.59,21.33-37.61,30.76c0,0,21.42-19.57,31.66-38.89
			c6.42-12.13,8.27-24.99,0.28-31.34c-2.98-2.37-7.34-3.83-13.34-4c-0.86-0.02-1.74,0.01-2.63,0.1c-9,0.88-18.74,6.9-18.74,6.9
			s8.62-8.76,20.85-12.21c7.91-2.49,14.34-2.04,18.59-0.92c2.54,0.67,4.3,1.58,5.14,2.25C220.38,72.78,231.15,81.38,218.76,107.14z
			 M207.19,78.02c-3.16-1.03-7.13-1.21-12.01-0.28c-9.45,1.8-19.36,11.43-19.36,11.43s5.63-8.97,15.4-15.06
			c0.89-0.09,1.77-0.12,2.63-0.1C199.85,74.19,204.21,75.65,207.19,78.02z M227.49,55.08c0.69,5.82-2.03,13.55-7.86,14.24
			c-5.82,0.69-12.54-5.91-13.23-11.74c-0.69-5.82,3.47-11.11,9.29-11.8C221.52,45.1,226.8,49.26,227.49,55.08z"/>
		<path class="st0" d="M131.76,106.48c1.45,3.3,3.32,6.81,5.74,10.44c6.9,10.35,18.26,21.61,37.14,31.33
			c0,0-21.12-19.89-31.06-39.37c-6.24-12.22-7.89-25.12,0.2-31.34c3.02-2.32,7.4-3.72,13.4-3.8c0.86-0.01,1.74,0.04,2.63,0.14
			c8.98,1.01,18.63,7.19,18.63,7.19s-8.49-8.89-20.66-12.53c-7.88-2.61-14.3-2.26-18.57-1.2c-2.55,0.63-4.33,1.52-5.18,2.18
			C130.68,72.1,119.77,80.53,131.76,106.48z M143.78,77.54c3.18-0.98,7.15-1.1,12.02-0.09c9.42,1.95,19.18,11.73,19.18,11.73
			s-5.5-9.06-15.17-15.29c-0.89-0.1-1.76-0.15-2.63-0.14C151.18,73.82,146.8,75.21,143.78,77.54z M122.54,55.21
			c-0.78,5.81,1.83,13.58,7.64,14.36c5.81,0.78,12.63-5.72,13.41-11.54c0.78-5.81-3.3-11.16-9.11-11.94
			C128.66,45.31,123.32,49.39,122.54,55.21z"/>
	</g>
</g>
</svg>
