<?xml version="1.0" encoding="utf-8"?>
<!-- Generator: Adobe Illustrator 27.8.1, SVG Export Plug-In . SVG Version: 6.00 Build 0)  -->
<svg version="1.1" xmlns="http://www.w3.org/2000/svg" xmlns:xlink="http://www.w3.org/1999/xlink" x="0px" y="0px"
	 viewBox="0 0 350 230" style="enable-background:new 0 0 350 230;" xml:space="preserve">
<style type="text/css">
	.st0{fill:#ED1C24;}
	.st1{fill:#11A5A5;}
	.st2{fill:#AD0015;}
	.st3{fill:#C8161D;}
	.st4{fill:#C93540;}
	.st5{fill:#C14851;}
	.st6{fill:#003644;}
	.st7{fill:#FF395A;}
	.st8{fill:#030089;}
	.st9{fill:#F36C21;}
	.st10{fill:#FF0098;}
	.st11{fill:none;}
	.st12{fill-rule:evenodd;clip-rule:evenodd;}
	.st13{opacity:0.39;fill:#C9C9C9;enable-background:new    ;}
	.st14{opacity:0.23;fill:#00567A;enable-background:new    ;}
	.st15{fill:#005968;}
	.st16{opacity:0.13;fill:#00567A;enable-background:new    ;}
	.st17{opacity:0.16;fill:#C9C9C9;enable-background:new    ;}
	.st18{fill:#00BDFF;}
	.st19{fill:#0055FF;}
	.st20{fill:#E50055;}
	.st21{fill:#B60C44;}
	.st22{fill:#EC6A84;}
	.st23{fill:#936500;}
	.st24{fill:#894E00;}
	.st25{fill:#ED73A4;}
	.st26{fill:#3A001A;}
</style>
<g id="Layer_1">
</g>
<g id="Layer_2">
</g>
<g id="Layer_3">
</g>
<g id="Layer_4">
</g>
<g id="Layer_5">
</g>
<g id="Layer_6">
</g>
<g id="Layer_7">
</g>
<g id="Layer_8">
</g>
<g id="Layer_9">
</g>
<g id="Layer_10">
</g>
<g id="Layer_11">
</g>
<g id="Layer_12">
</g>
<g id="Layer_13">
</g>
<g id="Layer_14">
	<g>
		<ellipse class="st17" cx="177.7" cy="139.71" rx="80.35" ry="6.58"/>
		<g>
			<path class="st25" d="M117.14,87.94c-0.21-0.09-0.44-0.19-0.74-0.28c0.33,0.24,0.67,0.46,0.99,0.67
				c0.25-0.04,0.38-0.07,0.38-0.07S117.54,88.13,117.14,87.94z M108.65,76.9c0,0.01-0.01,0.02-0.02,0.03
				c0.06,0.02,0.13,0.04,0.2,0.05C108.8,76.97,108.74,76.94,108.65,76.9z M117.14,87.94c-0.21-0.09-0.44-0.19-0.74-0.28
				c0.33,0.24,0.67,0.46,0.99,0.67c0.25-0.04,0.38-0.07,0.38-0.07S117.54,88.13,117.14,87.94z M117.14,87.94
				c-0.21-0.09-0.44-0.19-0.74-0.28c0.33,0.24,0.67,0.46,0.99,0.67c0.25-0.04,0.38-0.07,0.38-0.07S117.54,88.13,117.14,87.94z
				 M241.35,76.9c-0.09,0.04-0.15,0.07-0.18,0.08c0.06-0.01,0.13-0.03,0.19-0.05C241.36,76.92,241.36,76.91,241.35,76.9z"/>
			<path class="st26" d="M139.54,75.11c0,0-0.11-0.05-0.31-0.16c-0.07-0.03-0.15-0.07-0.25-0.12c-0.08-0.04-0.17-0.08-0.26-0.13
				c-0.11-0.05-0.23-0.11-0.36-0.18c-0.51-0.26-1.17-0.59-1.98-0.99c-0.33-0.16-0.66-0.33-1.02-0.5c-0.6-0.3-1.27-0.62-1.99-0.98
				c-11.83-5.79-38.03-18.37-54.58-24.51c-3.6,13.16,27.13,28.04,29.86,29.34c0.08-0.16,0.18-0.32,0.3-0.45
				c0.52-0.63,1.22-0.89,1.76-0.99c1.12-0.24,2.08-0.09,2.96,0.06c0.88,0.14,1.67,0.39,2.38,0.62c0.71,0.24,1.35,0.49,1.9,0.74
				c0.56,0.23,1.03,0.48,1.43,0.67c0.76,0.4,1.19,0.65,1.19,0.65s-0.49-0.07-1.34-0.24c-0.42-0.08-0.94-0.17-1.52-0.28
				c-0.58-0.09-1.24-0.2-1.96-0.31c-0.71-0.09-1.48-0.19-2.28-0.22c-0.78-0.04-1.64-0.01-2.3,0.19c-0.35,0.08-0.55,0.26-0.61,0.36
				c-0.05,0.1-0.07,0.23-0.03,0.53c0.14,0.62,0.61,1.41,1.15,2.12c0.51,0.73,1.14,1.44,1.77,2.12c0.65,0.66,1.27,1.35,1.93,1.97
				c1.28,1.25,2.53,2.41,3.6,3.41c1.07,1.01,1.96,1.85,2.58,2.44c0.54,0.52,0.88,0.87,0.95,0.96c-0.1-0.05-0.53-0.25-1.2-0.59
				c-0.77-0.4-1.86-1-3.1-1.79c-0.27-0.17-0.55-0.34-0.84-0.54c-0.09,0.01-0.2,0.03-0.32,0.04c-0.22,0.04-0.47,0.08-0.78,0.12
				c-0.29,0.05-0.61,0.12-0.94,0.21c-0.32,0.09-0.65,0.22-0.82,0.36c-0.1,0.07-0.09,0.15-0.08,0.16c0.04,0,0.05,0,0.08,0.07
				c0.06,0.15,0.25,0.46,0.49,0.76c0.26,0.31,0.55,0.63,0.9,0.93c0.64,0.62,1.38,1.22,2.07,1.79c0.68,0.58,1.35,1.1,1.91,1.6
				c0.56,0.47,1.03,0.91,1.36,1.21c0.33,0.31,0.5,0.5,0.5,0.5s-1.05-0.1-2.5-0.61c-1.44-0.5-3.3-1.4-4.88-2.88
				c-0.38-0.36-0.76-0.78-1.08-1.26c-0.33-0.47-0.64-1.01-0.72-1.78c-0.03-0.39,0.03-0.87,0.3-1.25c0.27-0.36,0.6-0.59,0.9-0.7
				c0.59-0.24,1.07-0.2,1.5-0.17c0.43,0.05,0.81,0.14,1.12,0.24c-0.75-0.52-1.53-1.11-2.31-1.75c-0.72-0.6-1.47-1.22-2.16-1.94
				c-0.7-0.71-1.4-1.45-2.03-2.3c-0.6-0.87-1.2-1.77-1.48-3.04c-0.09-0.49-0.06-1.14,0.21-1.7c-23-6.12-28.51,6.35-2.92,15.09
				c-13.75-1.41-15.33,3.08-8.43,8.41c1.11,0.86,2.44,1.74,3.98,2.62c0.29,0.17,0.57,0.34,0.88,0.49c0.3,0.17,0.61,0.34,0.93,0.49
				c2.78,1.46,6.12,2.9,9.92,4.22c0.43,0.16,0.89,0.31,1.34,0.45c0.43,0.15,0.87,0.29,1.31,0.42c0.05,0.02,0.1,0.03,0.15,0.05
				c0.44,0.14,0.88,0.28,1.33,0.4c0.47,0.15,0.96,0.29,1.45,0.42c-16.75,2.83,1.77,13.69,43.53,18.34
				C136.41,98.91,139.54,75.11,139.54,75.11z M127.27,114c-0.59-0.14-1.44-0.35-2.43-0.69c-1-0.33-2.14-0.78-3.32-1.39
				c-1.19-0.6-2.41-1.35-3.49-2.44c-0.44-0.49-0.92-1.08-1.05-1.93c-0.02-0.12-0.04-0.24-0.04-0.36c-0.02-0.53,0.26-1.05,0.58-1.38
				c0.34-0.34,0.71-0.51,1.06-0.67c0.7-0.29,1.38-0.34,2-0.38c0.63-0.05,1.21,0,1.74,0.05c1.06,0.11,1.91,0.33,2.51,0.48
				c0.58,0.18,0.92,0.29,0.92,0.29s-0.35,0-0.97,0.01c-0.6,0.01-1.47,0-2.48,0.07c-0.5,0.05-1.04,0.1-1.6,0.2
				c-0.55,0.1-1.12,0.25-1.61,0.48c-0.23,0.13-0.46,0.26-0.57,0.41c-0.12,0.16-0.17,0.29-0.17,0.44c0.01,0.19,0.1,0.42,0.27,0.68
				c0.12,0.21,0.29,0.41,0.48,0.61c0.41,0.44,0.92,0.86,1.44,1.24c0.53,0.36,1.06,0.75,1.61,1.07c1.07,0.66,2.12,1.24,3.02,1.74
				c0.91,0.49,1.67,0.91,2.2,1.19c0.53,0.3,0.84,0.47,0.84,0.47S127.88,114.14,127.27,114z M232.04,76.88
				c0.56-0.25,1.2-0.5,1.91-0.74c0.72-0.23,1.51-0.48,2.38-0.62c0.88-0.14,1.82-0.3,2.96-0.06c0.54,0.1,1.23,0.35,1.76,0.99
				c0.12,0.14,0.22,0.3,0.3,0.45c2.73-1.3,33.46-16.18,29.86-29.34c-16.55,6.15-42.75,18.72-54.58,24.51
				c-0.72,0.35-1.39,0.68-1.99,0.98c-0.36,0.18-0.7,0.34-1.02,0.5c-0.81,0.39-1.47,0.73-1.98,0.99c-0.14,0.07-0.26,0.13-0.36,0.18
				c-0.09,0.05-0.18,0.09-0.26,0.13c-0.1,0.05-0.18,0.09-0.25,0.12c-0.2,0.11-0.31,0.16-0.31,0.16s3.13,23.79-22.55,53.23
				c41.76-4.65,60.28-15.51,43.53-18.34c0.49-0.14,0.98-0.28,1.45-0.42c0.45-0.13,0.89-0.27,1.33-0.4c0.05-0.02,0.1-0.03,0.15-0.05
				c0.44-0.14,0.88-0.28,1.31-0.42c0.45-0.15,0.91-0.3,1.34-0.45c3.8-1.32,7.14-2.76,9.92-4.22c0.32-0.16,0.63-0.33,0.93-0.49
				c0.31-0.16,0.59-0.33,0.88-0.49c1.54-0.88,2.87-1.76,3.98-2.62c6.9-5.33,5.32-9.82-8.43-8.41c25.6-8.74,20.07-21.21-2.93-15.09
				c0.28,0.57,0.3,1.21,0.21,1.7c-0.27,1.27-0.87,2.18-1.47,3.04c-0.63,0.85-1.33,1.59-2.03,2.31c-0.69,0.71-1.44,1.33-2.16,1.93
				c-0.79,0.64-1.57,1.23-2.32,1.76c0.32-0.11,0.7-0.2,1.13-0.25c0.42-0.03,0.91-0.07,1.5,0.17c0.29,0.11,0.63,0.34,0.9,0.7
				c0.26,0.38,0.33,0.86,0.3,1.25c-0.08,0.77-0.39,1.31-0.72,1.78c-0.33,0.48-0.7,0.9-1.09,1.26c-1.57,1.48-3.43,2.37-4.88,2.88
				c-1.44,0.51-2.49,0.61-2.49,0.61s0.18-0.2,0.5-0.5c0.33-0.31,0.79-0.74,1.36-1.21c0.56-0.49,1.23-1.01,1.91-1.6
				c0.69-0.57,1.43-1.17,2.07-1.79c0.33-0.3,0.63-0.62,0.89-0.93c0.26-0.3,0.44-0.61,0.5-0.76c0.02-0.07,0.04-0.07,0.08-0.07
				c0.01-0.01,0.02-0.09-0.08-0.16c-0.17-0.15-0.5-0.28-0.82-0.36c-0.33-0.08-0.65-0.16-0.94-0.21c-0.31-0.04-0.56-0.08-0.78-0.12
				c-0.12-0.01-0.23-0.03-0.32-0.04c-0.29,0.2-0.57,0.37-0.84,0.54c-1.25,0.8-2.34,1.4-3.1,1.79c-0.67,0.34-1.1,0.54-1.2,0.59
				c0.07-0.09,0.4-0.43,0.95-0.96c0.62-0.58,1.51-1.43,2.58-2.44c1.06-1,2.31-2.15,3.6-3.41c0.65-0.62,1.28-1.31,1.93-1.97
				c0.63-0.68,1.25-1.39,1.77-2.12c0.54-0.71,1-1.5,1.15-2.12c0.04-0.31,0.02-0.43-0.03-0.53c-0.06-0.1-0.27-0.29-0.61-0.36
				c-0.66-0.2-1.52-0.23-2.3-0.19c-0.8,0.04-1.57,0.13-2.29,0.22c-0.71,0.11-1.37,0.22-1.95,0.31c-0.59,0.11-1.09,0.2-1.52,0.28
				c-0.85,0.17-1.34,0.24-1.34,0.24s0.43-0.25,1.19-0.65C231.01,77.36,231.48,77.11,232.04,76.88z M231.97,109.48
				c-1.07,1.09-2.3,1.84-3.49,2.44c-1.18,0.61-2.33,1.05-3.32,1.39c-1,0.34-1.84,0.55-2.43,0.69c-0.6,0.14-0.95,0.2-0.95,0.2
				s0.31-0.18,0.84-0.47c0.53-0.29,1.29-0.7,2.2-1.19c0.91-0.5,1.95-1.07,3.02-1.74c0.54-0.33,1.07-0.7,1.61-1.07
				c0.52-0.38,1.02-0.8,1.44-1.24c0.2-0.2,0.36-0.4,0.48-0.61c0.53-0.09,1.08-0.2,1.66-0.32
				C232.88,108.4,232.41,108.99,231.97,109.48z"/>
			<path class="st20" d="M195.95,68.73c-10.04,0-18.46,6.88-20.85,16.17c-2.4-9.29-10.81-16.17-20.85-16.17
				c-11.91,0-21.56,9.65-21.56,21.56c0,34.53,42.42,49.42,42.42,49.42s42.42-18.7,42.42-49.42
				C217.51,78.38,207.86,68.73,195.95,68.73z"/>
			<path class="st21" d="M151.41,68.93c-10.56,1.39-18.73,10.41-18.73,21.35c0,34.53,42.42,49.42,42.42,49.42
				s31.53-13.92,40.21-37.46C176.85,150.89,141.05,105.05,151.41,68.93z"/>
			<path class="st22" d="M212.53,85.3c-1.54,2.62-6.95,2.3-12.09-0.72c-5.13-3.02-8.05-7.59-6.5-10.21
				c1.54-2.62,6.95-2.3,12.09,0.72C211.16,78.11,214.07,82.68,212.53,85.3z"/>
		</g>
	</g>
</g>
<g id="Layer_15">
</g>
</svg>
