<?xml version="1.0" encoding="utf-8"?>
<!-- Generator: Adobe Illustrator 27.8.1, SVG Export Plug-In . SVG Version: 6.00 Build 0)  -->
<svg version="1.1" xmlns="http://www.w3.org/2000/svg" xmlns:xlink="http://www.w3.org/1999/xlink" x="0px" y="0px"
	 viewBox="0 0 350 230" style="enable-background:new 0 0 350 230;" xml:space="preserve">
<style type="text/css">
	.st0{fill:#ED1C24;}
	.st1{fill:#11A5A5;}
	.st2{fill:#AD0015;}
	.st3{fill:#C8161D;}
	.st4{fill:#C93540;}
	.st5{fill:#C14851;}
	.st6{fill:#003644;}
	.st7{fill:#FF395A;}
	.st8{fill:#030089;}
	.st9{fill:#F36C21;}
	.st10{fill:#FF0098;}
	.st11{fill:none;}
	.st12{fill-rule:evenodd;clip-rule:evenodd;}
	.st13{opacity:0.39;fill:#C9C9C9;enable-background:new    ;}
	.st14{opacity:0.23;fill:#00567A;enable-background:new    ;}
	.st15{fill:#005968;}
	.st16{opacity:0.13;fill:#00567A;enable-background:new    ;}
	.st17{opacity:0.16;fill:#C9C9C9;enable-background:new    ;}
	.st18{fill:#00BDFF;}
	.st19{fill:#0055FF;}
	.st20{fill:#E50055;}
	.st21{fill:#B60C44;}
	.st22{fill:#EC6A84;}
	.st23{fill:#936500;}
	.st24{fill:#894E00;}
	.st25{fill:#ED73A4;}
	.st26{fill:#3A001A;}
</style>
<g id="Layer_1">
</g>
<g id="Layer_2">
</g>
<g id="Layer_3">
</g>
<g id="Layer_4">
</g>
<g id="Layer_5">
</g>
<g id="Layer_6">
</g>
<g id="Layer_7">
</g>
<g id="Layer_8">
	<g>
		<path d="M174.08,87.71c2.83,3.13,4.32,7.3,3.4,12.25c-0.68,3.61,0.86,12.63,0.27,21.06c-0.55,7.89-0.65,14-1.01,15.91
			c-2.08,15.02-11.19,14.43-11.19,14.43l-15.86-0.08c0,0-10.67,0.39-10.27-10.95c-0.22-6.56-0.06-13.43,0.44-19.31
			c-4.74,0.08-10.96-3.09-10.28-8.91c0.77-6.55,12.31-21.82,14.59-24.76c0.24-0.32,0.38-0.5,0.38-0.5c3.54-4.4,9.54-6.15,15.51-5.57
			c-1.85-2.67-2.95-5.96-2.95-9.53c0-8.87,6.79-16.07,15.16-16.07s15.15,7.2,15.15,16.07C187.42,79.98,181.6,86.77,174.08,87.71z"/>
		<path class="st0" d="M220.45,116.19c-0.3,4.53-3.78,6.71-7.29,7.03c0,4.77,0,10.3-0.01,16.91c-0.02,11.38-9.34,12.01-9.34,12.01
			h-17.72c0,0-9.32-0.63-9.34-12.01c-0.04-19.15,0-29.19-0.01-38.19c-5.33,3.65-11.05,7.4-13.3,8.31
			c-4.67,1.89-24.57-13.6-24.57-13.6c-1.63-1.08-1.3-3.85-0.68-5.1c0.62-1.24,3.07-3.35,4.36-2.44c0,0,17.1,12.52,20.89,10.62
			c2.22-1.11,9.39-6.67,14.95-11.08c3.02-5.63,9.74-8.48,16.56-8.41c0.33,0,0.65,0,0.98,0.02c-7.8-2.91-11.66-11.97-8.62-20.27
			c3.05-8.34,11.9-12.76,19.76-9.88c7.86,2.87,11.75,11.96,8.7,20.3c-2.33,6.37-8.05,10.46-14.13,10.74c5.42,1.6,9.9,5.3,11.16,11
			c0.04-0.13,0.06-0.19,0.06-0.19S220.93,108.89,220.45,116.19z"/>
	</g>
</g>
<g id="Layer_9">
</g>
<g id="Layer_10">
</g>
<g id="Layer_11">
</g>
<g id="Layer_12">
</g>
<g id="Layer_13">
</g>
<g id="Layer_14">
</g>
<g id="Layer_15">
</g>
</svg>
