<?xml version="1.0" encoding="utf-8"?>
<!-- Generator: Adobe Illustrator 27.8.1, SVG Export Plug-In . SVG Version: 6.00 Build 0)  -->
<svg version="1.1" xmlns="http://www.w3.org/2000/svg" xmlns:xlink="http://www.w3.org/1999/xlink" x="0px" y="0px"
	 viewBox="0 0 350 230" style="enable-background:new 0 0 350 230;" xml:space="preserve">
<style type="text/css">
	.st0{fill:#ED1C24;}
	.st1{fill:#11A5A5;}
	.st2{fill:#AD0015;}
	.st3{fill:#C8161D;}
	.st4{fill:#C93540;}
	.st5{fill:#C14851;}
	.st6{fill:#003644;}
	.st7{fill:#FF395A;}
	.st8{fill:#030089;}
	.st9{fill:#F36C21;}
	.st10{fill:#FF0098;}
	.st11{fill:none;}
	.st12{fill-rule:evenodd;clip-rule:evenodd;}
	.st13{opacity:0.39;fill:#C9C9C9;enable-background:new    ;}
	.st14{opacity:0.23;fill:#00567A;enable-background:new    ;}
	.st15{fill:#005968;}
	.st16{opacity:0.13;fill:#00567A;enable-background:new    ;}
	.st17{opacity:0.16;fill:#C9C9C9;enable-background:new    ;}
	.st18{fill:#00BDFF;}
	.st19{fill:#0055FF;}
	.st20{fill:#E50055;}
	.st21{fill:#B60C44;}
	.st22{fill:#EC6A84;}
	.st23{fill:#936500;}
	.st24{fill:#894E00;}
	.st25{fill:#ED73A4;}
	.st26{fill:#3A001A;}
</style>
<g id="Layer_1">
</g>
<g id="Layer_2">
</g>
<g id="Layer_3">
</g>
<g id="Layer_4">
</g>
<g id="Layer_5">
</g>
<g id="Layer_6">
</g>
<g id="Layer_7">
</g>
<g id="Layer_8">
</g>
<g id="Layer_9">
	<g>
		<path class="st12" d="M180.69,51.21c0,2.94-2.38,5.32-5.32,5.32c-2.94,0-5.32-2.38-5.32-5.32c0-2.94,2.38-5.32,5.32-5.32
			C178.31,45.89,180.69,48.27,180.69,51.21z M204.39,28.04c0,0-1.39,6.85-8.47,14.66c-4.55,5.02-11.69,10.49-16.31,13.53
			c-1.22,0.81-2.43,1.59-4.46,1.59c-2.04,0-3.19-0.76-4.11-1.36c-4.6-2.99-11.99-8.61-16.66-13.76c-7.08-7.81-8.47-14.66-8.47-14.66
			s-0.8,7.97,7.21,17.69c4.81,5.84,11.35,11.89,14.83,19.95c2.91,6.76,7.15,34.01,7.2,33.66c0.05,0.35,4.29-26.9,7.2-33.66
			c3.47-8.06,10.02-14.12,14.83-19.95C205.19,36,204.39,28.04,204.39,28.04z M123.46,97.06c2.94,0,5.32,2.38,5.32,5.32
			c0,2.94-2.38,5.32-5.32,5.32s-5.32-2.38-5.32-5.32C118.14,99.44,120.52,97.06,123.46,97.06z M100.29,73.36
			c0,0,6.85,1.39,14.66,8.47c5.02,4.55,10.49,11.69,13.53,16.31c0.81,1.22,1.59,2.43,1.59,4.46c0,2.04-0.76,3.19-1.36,4.11
			c-2.99,4.6-8.61,11.99-13.76,16.66c-7.81,7.08-14.66,8.47-14.66,8.47s7.97,0.8,17.69-7.21c5.84-4.81,11.89-11.35,19.95-14.83
			c6.76-2.91,34.01-7.15,33.66-7.2c0.35-0.05-26.9-4.29-33.66-7.2c-8.06-3.47-14.12-10.02-19.95-14.83
			C108.26,72.55,100.29,73.36,100.29,73.36z M169.31,154.28c0-2.94,2.38-5.32,5.32-5.32c2.94,0,5.32,2.38,5.32,5.32
			s-2.38,5.32-5.32,5.32C171.69,159.6,169.31,157.22,169.31,154.28z M145.61,177.46c0,0,1.39-6.85,8.47-14.66
			c4.55-5.02,11.69-10.49,16.31-13.53c1.22-0.81,2.43-1.59,4.46-1.59c2.03,0,3.19,0.76,4.11,1.36c4.6,2.99,11.99,8.61,16.66,13.76
			c7.08,7.81,8.47,14.66,8.47,14.66s0.8-7.97-7.21-17.69c-4.81-5.84-11.35-11.89-14.83-19.95c-2.91-6.76-7.15-34.01-7.2-33.66
			c-0.05-0.35-4.29,26.9-7.2,33.66c-3.47,8.06-10.02,14.12-14.83,19.95C144.81,169.49,145.61,177.46,145.61,177.46z M226.54,108.44
			c-2.94,0-5.32-2.38-5.32-5.32c0-2.94,2.38-5.32,5.32-5.32s5.32,2.38,5.32,5.32S229.48,108.44,226.54,108.44z M249.71,132.14
			c0,0-6.85-1.39-14.66-8.47c-5.02-4.55-10.49-11.69-13.53-16.31c-0.81-1.22-1.59-2.43-1.59-4.46c0-2.03,0.76-3.19,1.36-4.11
			c2.99-4.6,8.61-11.99,13.76-16.66c7.81-7.08,14.66-8.47,14.66-8.47s-7.97-0.8-17.69,7.21c-5.84,4.81-11.89,11.35-19.95,14.83
			c-6.76,2.91-34.01,7.15-33.66,7.2c-0.35,0.05,26.9,4.29,33.66,7.2c8.06,3.47,14.12,10.02,19.95,14.83
			C241.74,132.94,249.71,132.14,249.71,132.14z"/>
		<path class="st3" d="M160.13,61.74c-4.16-4.16-10.9-4.16-15.06,0c-2.15,2.15-3.19,4.98-3.12,7.79c-2.81-0.07-5.65,0.97-7.79,3.12
			c-4.16,4.16-4.16,10.9,0,15.06c0.54,0.54,1.12,1.01,1.73,1.41l-0.01,0.01c9.08,6.41,28.6,2.89,28.6,2.89s3.18-18.02-2.32-27.45
			C161.66,63.55,160.98,62.59,160.13,61.74z M134.15,116.72c-4.16,4.16-4.16,10.9,0,15.06c2.15,2.15,4.98,3.19,7.79,3.12
			c-0.07,2.81,0.97,5.65,3.12,7.79c4.16,4.16,10.9,4.16,15.06,0c0.54-0.54,1.01-1.12,1.41-1.73l0.01,0.01
			c6.41-9.08,2.89-28.6,2.89-28.6s-18.02-3.18-27.45,2.32C135.96,115.19,135,115.87,134.15,116.72z M189.13,142.7
			c4.16,4.16,10.9,4.16,15.06,0c2.15-2.15,3.19-4.98,3.12-7.79c2.81,0.07,5.65-0.97,7.79-3.12c4.16-4.16,4.16-10.9,0-15.06
			c-0.54-0.54-1.12-1.01-1.73-1.41l0.01-0.01c-9.08-6.41-28.6-2.89-28.6-2.89s-3.18,18.02,2.32,27.45
			C187.6,140.89,188.28,141.85,189.13,142.7z M215.11,87.72c4.16-4.16,4.16-10.9,0-15.06c-2.15-2.15-4.98-3.19-7.79-3.12
			c0.07-2.81-0.97-5.65-3.12-7.79c-4.16-4.16-10.9-4.16-15.06,0c-0.54,0.54-1.01,1.12-1.41,1.73l-0.01-0.01
			c-6.41,9.08-2.89,28.6-2.89,28.6s18.02,3.18,27.45-2.32C213.3,89.25,214.26,88.57,215.11,87.72z"/>
	</g>
</g>
<g id="Layer_10">
</g>
<g id="Layer_11">
</g>
<g id="Layer_12">
</g>
<g id="Layer_13">
</g>
<g id="Layer_14">
</g>
<g id="Layer_15">
</g>
</svg>
