<?xml version="1.0" encoding="utf-8"?>
<!-- Generator: Adobe Illustrator 27.8.1, SVG Export Plug-In . SVG Version: 6.00 Build 0)  -->
<svg version="1.1" xmlns="http://www.w3.org/2000/svg" xmlns:xlink="http://www.w3.org/1999/xlink" x="0px" y="0px"
	 viewBox="0 0 350 230" style="enable-background:new 0 0 350 230;" xml:space="preserve">
<style type="text/css">
	.st0{fill:#ED1C24;}
	.st1{fill:#11A5A5;}
	.st2{fill:#AD0015;}
	.st3{fill:#C8161D;}
	.st4{fill:#C93540;}
	.st5{fill:#C14851;}
	.st6{fill:#003644;}
	.st7{fill:#FF395A;}
	.st8{fill:#030089;}
	.st9{fill:#F36C21;}
	.st10{fill:#FF0098;}
	.st11{fill:none;}
	.st12{fill-rule:evenodd;clip-rule:evenodd;}
	.st13{opacity:0.39;fill:#C9C9C9;enable-background:new    ;}
	.st14{opacity:0.23;fill:#00567A;enable-background:new    ;}
	.st15{fill:#005968;}
	.st16{opacity:0.13;fill:#00567A;enable-background:new    ;}
	.st17{opacity:0.16;fill:#C9C9C9;enable-background:new    ;}
	.st18{fill:#00BDFF;}
	.st19{fill:#0055FF;}
	.st20{fill:#E50055;}
	.st21{fill:#B60C44;}
	.st22{fill:#EC6A84;}
	.st23{fill:#936500;}
	.st24{fill:#894E00;}
	.st25{fill:#ED73A4;}
	.st26{fill:#3A001A;}
</style>
<g id="Layer_1">
</g>
<g id="Layer_2">
</g>
<g id="Layer_3">
</g>
<g id="Layer_4">
	<g>
		<path class="st4" d="M190.37,50.95c0-5.03-4.08-9.11-9.11-9.11c-2.6,0-4.94,1.09-6.6,2.83c-1.66-1.74-4-2.83-6.6-2.83
			c-5.03,0-9.11,4.08-9.11,9.11c0,0.65,0.07,1.29,0.2,1.9h-0.02c1.62,9.36,15.55,19.04,15.55,19.04s12.83-8.98,15.2-18
			C190.2,52.97,190.37,51.98,190.37,50.95z"/>
		<path class="st5" d="M162.48,50.36c-2.62-4.3-8.22-5.66-12.52-3.04c-2.22,1.35-3.65,3.5-4.16,5.85c-2.32-0.62-4.89-0.33-7.11,1.02
			c-4.3,2.62-5.66,8.22-3.04,12.52c0.34,0.56,0.73,1.06,1.16,1.52l-0.01,0.01c6.25,7.16,23.19,8.17,23.19,8.17
			s6.28-14.34,3.61-23.28C163.39,52.18,163.02,51.24,162.48,50.36z"/>
		<path class="st3" d="M187.52,50.36c2.62-4.3,8.22-5.66,12.52-3.04c2.22,1.35,3.65,3.5,4.16,5.85c2.32-0.62,4.89-0.33,7.11,1.02
			c4.3,2.62,5.66,8.22,3.04,12.52c-0.34,0.56-0.73,1.06-1.16,1.52l0.01,0.01c-6.25,7.16-23.19,8.17-23.19,8.17
			s-6.28-14.34-3.61-23.28C186.61,52.18,186.98,51.24,187.52,50.36z"/>
		<path class="st6" d="M181.43,96.23c0,3.26-2.65,5.91-5.91,5.91c-3.26,0-5.91-2.65-5.91-5.91c0-3.26,2.65-5.91,5.91-5.91
			C178.78,90.32,181.43,92.97,181.43,96.23z M215.6,64.15c0,0-1.91,9.44-11.68,20.21c-6.28,6.92-16.12,14.46-22.49,18.66
			c-1.68,1.11-3.35,2.19-6.15,2.19c-2.81,0-4.4-1.04-5.67-1.87c-6.34-4.13-16.53-11.87-22.97-18.98
			c-9.77-10.77-11.68-20.21-11.68-20.21s-1.11,10.99,9.94,24.4c6.63,8.05,15.66,16.39,20.45,27.51c4.02,9.32,9.86,46.9,9.93,46.42
			c0.07,0.48,5.92-37.1,9.93-46.42c4.79-11.12,13.82-19.46,20.45-27.51C216.7,75.14,215.6,64.15,215.6,64.15z"/>
	</g>
</g>
<g id="Layer_5">
</g>
<g id="Layer_6">
</g>
<g id="Layer_7">
</g>
<g id="Layer_8">
</g>
<g id="Layer_9">
</g>
<g id="Layer_10">
</g>
<g id="Layer_11">
</g>
<g id="Layer_12">
</g>
<g id="Layer_13">
</g>
<g id="Layer_14">
</g>
<g id="Layer_15">
</g>
</svg>
