<?xml version="1.0" encoding="utf-8"?>
<!-- Generator: Adobe Illustrator 27.8.1, SVG Export Plug-In . SVG Version: 6.00 Build 0)  -->
<svg version="1.1" xmlns="http://www.w3.org/2000/svg" xmlns:xlink="http://www.w3.org/1999/xlink" x="0px" y="0px"
	 viewBox="0 0 350 230" style="enable-background:new 0 0 350 230;" xml:space="preserve">
<style type="text/css">
	.st0{fill:#ED1C24;}
	.st1{fill:#11A5A5;}
	.st2{fill:#AD0015;}
	.st3{fill:#C8161D;}
	.st4{fill:#C93540;}
	.st5{fill:#C14851;}
	.st6{fill:#003644;}
	.st7{fill:#FF395A;}
	.st8{fill:#030089;}
	.st9{fill:#F36C21;}
	.st10{fill:#FF0098;}
	.st11{fill:none;}
	.st12{fill-rule:evenodd;clip-rule:evenodd;}
	.st13{opacity:0.39;fill:#C9C9C9;enable-background:new    ;}
	.st14{opacity:0.23;fill:#00567A;enable-background:new    ;}
	.st15{fill:#005968;}
	.st16{opacity:0.13;fill:#00567A;enable-background:new    ;}
	.st17{opacity:0.16;fill:#C9C9C9;enable-background:new    ;}
	.st18{fill:#00BDFF;}
	.st19{fill:#0055FF;}
	.st20{fill:#E50055;}
	.st21{fill:#B60C44;}
	.st22{fill:#EC6A84;}
	.st23{fill:#936500;}
	.st24{fill:#894E00;}
	.st25{fill:#ED73A4;}
	.st26{fill:#3A001A;}
</style>
<g id="Layer_1">
</g>
<g id="Layer_2">
</g>
<g id="Layer_3">
	<g>
		<path d="M170.45,91.65L170.45,91.65c-3.48,3.49-8.11,5.4-13.04,5.4c-4.93,0-9.56-1.92-13.04-5.4c-3.49-3.48-5.4-8.11-5.4-13.03
			c0-4.92,1.92-9.55,5.4-13.03c3.48-3.48,8.11-5.4,13.04-5.4c4.93,0,9.56,1.92,13.04,5.4l0.42,0.42l0.03,0.11
			c0.63,0.75,1.18,1.29,1.66,1.69c-4.61-8.79-13.83-14.78-24.44-14.78c-7.86,0-14.95,3.29-19.98,8.56
			c-5.02-5.28-12.12-8.56-19.98-8.56c-15.23,0-27.58,12.35-27.58,27.58c0,1.97,0.21,3.9,0.6,5.75h-0.05
			c4.89,28.35,47.09,57.66,47.09,57.66s38.84-27.18,46.02-54.51c0.1-0.3,0.2-0.6,0.29-0.91C173.92,88.76,172.6,89.36,170.45,91.65z"
			/>
		<path class="st3" d="M241.83,52.02c-7.86,0-14.95,3.29-19.98,8.56c-5.02-5.28-12.12-8.56-19.98-8.56
			c-11.8,0-21.86,7.41-25.81,17.82c-0.13,0.25-0.24,0.68-0.33,1.25c-1.58,0.6-3.84,0.01-6.96-3.81l0-0.01
			c-2.91-2.91-6.94-4.71-11.38-4.71c-4.45,0-8.47,1.8-11.38,4.71c-2.91,2.91-4.72,6.93-4.72,11.37c0,4.44,1.8,8.46,4.72,11.37
			c2.91,2.91,6.94,4.71,11.38,4.71c4.45,0,8.47-1.8,11.38-4.71l-0.06,0.06c3.12-3.33,5.3-4.08,6.8-3.76
			c0.13,1.93,0.3,3.39,0.52,3.91c0.12,0.37,0.24,0.74,0.36,1.11l0,0c9.06,26.35,45.53,51.68,45.53,51.68s38.84-27.18,46.02-54.51
			c0.95-2.79,1.47-5.79,1.47-8.9C269.41,64.37,257.06,52.02,241.83,52.02z"/>
	</g>
</g>
<g id="Layer_4">
</g>
<g id="Layer_5">
</g>
<g id="Layer_6">
</g>
<g id="Layer_7">
</g>
<g id="Layer_8">
</g>
<g id="Layer_9">
</g>
<g id="Layer_10">
</g>
<g id="Layer_11">
</g>
<g id="Layer_12">
</g>
<g id="Layer_13">
</g>
<g id="Layer_14">
</g>
<g id="Layer_15">
</g>
</svg>
