<?xml version="1.0" encoding="utf-8"?>
<!-- Generator: Adobe Illustrator 27.8.1, SVG Export Plug-In . SVG Version: 6.00 Build 0)  -->
<svg version="1.1" xmlns="http://www.w3.org/2000/svg" xmlns:xlink="http://www.w3.org/1999/xlink" x="0px" y="0px"
	 viewBox="0 0 350 230" style="enable-background:new 0 0 350 230;" xml:space="preserve">
<style type="text/css">
	.st0{fill:#ED1C24;}
	.st1{fill:#11A5A5;}
	.st2{fill:#AD0015;}
	.st3{fill:#C8161D;}
	.st4{fill:#C93540;}
	.st5{fill:#C14851;}
	.st6{fill:#003644;}
	.st7{fill:#FF395A;}
	.st8{fill:#030089;}
	.st9{fill:#F36C21;}
	.st10{fill:#FF0098;}
	.st11{fill:none;}
	.st12{fill-rule:evenodd;clip-rule:evenodd;}
	.st13{opacity:0.39;fill:#C9C9C9;enable-background:new    ;}
	.st14{opacity:0.23;fill:#00567A;enable-background:new    ;}
	.st15{fill:#005968;}
	.st16{opacity:0.13;fill:#00567A;enable-background:new    ;}
	.st17{opacity:0.16;fill:#C9C9C9;enable-background:new    ;}
	.st18{fill:#00BDFF;}
	.st19{fill:#0055FF;}
	.st20{fill:#E50055;}
	.st21{fill:#B60C44;}
	.st22{fill:#EC6A84;}
	.st23{fill:#936500;}
	.st24{fill:#894E00;}
	.st25{fill:#ED73A4;}
	.st26{fill:#3A001A;}
</style>
<g id="Layer_1">
</g>
<g id="Layer_2">
</g>
<g id="Layer_3">
</g>
<g id="Layer_4">
</g>
<g id="Layer_5">
	<g>
		<path class="st7" d="M215.65,70.75c0,1.79-0.2,3.53-0.58,5.2c-0.18,0.82-0.41,1.62-0.68,2.4c-6.14,23.36-39.33,46.58-39.33,46.58
			s-35.89-24.92-40.21-49.09c-0.01-0.06-0.02-0.12-0.03-0.18h0.04c-0.34-1.59-0.51-3.23-0.51-4.91c0-13.02,10.55-23.57,23.57-23.57
			c6.72,0,12.78,2.81,17.07,7.32c4.29-4.51,10.36-7.32,17.07-7.32C205.09,47.17,215.65,57.73,215.65,70.75z"/>
		<path class="st8" d="M207.48,92.52c0,0-19.09,12.08-32.72,11.52c-13.63-0.56-32.29-11.52-32.29-11.52s3.68,9.7,24.93,32.14
			c-9.14,8.3-18.06,24.56-15.55,28.59c3.29,5.29,12.18-11.93,22.08-12.49c9.9-0.56,17.07,16.93,20.89,12.49
			c2.5-2.9-3.09-20.37-10.88-29.28C205.79,102.22,207.48,92.52,207.48,92.52z M175.95,102.22c4.72,0.02,8.53-4.25,8.55-8.97
			c0.02-4.72-3.79-8.57-8.52-8.59c-4.72-0.02-8.57,3.79-8.59,8.52C167.38,97.89,171.23,102.2,175.95,102.22z"/>
	</g>
</g>
<g id="Layer_6">
</g>
<g id="Layer_7">
</g>
<g id="Layer_8">
</g>
<g id="Layer_9">
</g>
<g id="Layer_10">
</g>
<g id="Layer_11">
</g>
<g id="Layer_12">
</g>
<g id="Layer_13">
</g>
<g id="Layer_14">
</g>
<g id="Layer_15">
</g>
</svg>
