<?xml version="1.0" encoding="utf-8"?>
<!-- Generator: Adobe Illustrator 27.8.1, SVG Export Plug-In . SVG Version: 6.00 Build 0)  -->
<svg version="1.1" xmlns="http://www.w3.org/2000/svg" xmlns:xlink="http://www.w3.org/1999/xlink" x="0px" y="0px"
	 viewBox="0 0 350 230" style="enable-background:new 0 0 350 230;" xml:space="preserve">
<style type="text/css">
	.st0{fill:#FF7F00;}
	.st1{fill:#893700;}
	.st2{fill:#29ABE2;}
	.st3{fill:#F2C0AA;}
	.st4{fill:#1C75BC;}
	.st5{fill:#FFC200;}
	.st6{display:none;fill:#1C75BC;}
	.st7{font-family:'KlemerDisplayDEMO-Regular';}
	.st8{font-size:50px;}
	.st9{fill:#911717;}
	.st10{fill:#C1272D;}
	.st11{fill:#F7931E;}
	.st12{fill:#2D828E;}
	.st13{fill:#93BC20;}
	.st14{fill:#CC781D;}
	.st15{fill:#FF5500;}
	.st16{fill:#C4C400;}
	.st17{fill:#017F6A;}
	.st18{fill:#0092FF;}
	.st19{fill:#09578C;}
	.st20{fill:#3B9FE2;}
	.st21{fill:#BE1E2D;}
	.st22{fill:#231F20;}
	.st23{fill:#FF9D00;}
	.st24{fill:#F15A29;}
	.st25{fill:#00406B;}
</style>
<g id="Logo1">
</g>
<g id="Logo2">
</g>
<g id="Logo3">
	<g>
		<path class="st4" d="M279.52,117.24c0,2.61-0.09,5.18-0.28,7.74c-0.52-7.03-1.73-13.86-3.57-20.44c-0.26-0.96-0.55-1.91-0.85-2.86
			C261.6,59.11,221.92,28.2,175,28.2c-40.69,0-75.96,23.26-93.22,57.22c-0.76,1.49-1.49,2.99-2.16,4.53
			c-4.87,10.82-7.94,22.63-8.85,35.04c-0.19-2.56-0.28-5.13-0.28-7.74c0-10.46,1.54-20.55,4.4-30.08c0.06-0.2,0.12-0.39,0.18-0.6
			C88.16,43.8,127.95,12.72,175,12.72c52.88,0,96.58,39.26,103.54,90.22c0.05,0.28,0.09,0.57,0.12,0.86
			C279.23,108.2,279.52,112.68,279.52,117.24z"/>
		<path class="st5" d="M240.62,111.78c0.03,5.15,0,10.31-0.02,15.46c-0.01,0.6-0.01,1.11,0.71,1.35c0.25,0.08,0.58,0.39,0.6,0.63
			c0.16,1.59,0.77,3.17-0.43,4.69c-1.07,1.35-0.46,2.88-0.08,4.33c0.28,1.05,0.8,2.05,0.97,3.1c0.99,6.26,1.88,12.51,2.88,18.76
			c0.19,1.16-0.22,1.72-1.2,2.07c-2.84,1.03-5.8,1.07-8.75,0.78c-1.37-0.14-2.74-0.55-4.07-0.92c-0.84-0.23-1.11-0.83-0.97-1.76
			c1.07-6.69,2.07-13.4,3.11-20.1c0.07-0.44,0.22-0.89,0.41-1.28c0.93-1.88,1.17-3.69-0.05-5.58c-0.88-1.36-0.34-3.93,0.84-4.9
			c0.2-0.17,0.33-0.58,0.33-0.87c0.02-5.91,0.04-11.82,0.03-17.73c0-1.53-0.65-2.2-2.25-2.48c-7.26-1.2-14.5-2.38-21.76-3.57
			c-12.89-2.11-25.8-4.21-38.69-6.32c-1.46-0.24-2.91-0.5-4.38-0.73c-0.4-0.06-0.89-0.16-1.23,0c-0.54,0.25-1.25,0.62-1.4,1.1
			c-0.15,0.46,0.11,1.4,0.52,1.67c0.92,0.6,1.99,1.13,3.07,1.31c11.54,1.93,23.1,3.78,34.65,5.66c8.41,1.37,16.83,2.74,25.23,4.11
			c0.97,0.15,1.87,0.38,2.02,1.7c-0.34,0.1-0.66,0.22-0.97,0.27c-18.03,3.13-36.06,6.26-54.07,9.39
			c-7.09,1.23-14.19,2.44-21.27,3.72c-3.55,0.64-6.77,0.21-10.07-1.54c-21.53-11.47-43.13-22.8-64.7-34.17
			c0.68-1.54,1.4-3.04,2.16-4.53c12.32-1.06,24.65-2.08,36.97-3.12c11.21-0.95,22.42-1.92,33.63-2.87
			c9.45-0.8,18.89-1.58,28.33-2.36c0.64-0.06,1.29-0.07,1.92-0.2c5.37-1.09,10.25,0.89,15.22,2.33
			c25.67,7.48,51.33,14.97,76.98,22.48c0.3,0.95,0.59,1.9,0.85,2.86c-11.29,1.99-22.57,3.95-33.86,5.89
			C240.93,110.58,240.61,110.86,240.62,111.78z M121.63,118.53c0,7.31,0.09,14.63-0.03,21.94c-0.05,3.02,1.11,5.31,3.55,6.79
			c2.38,1.44,4.9,2.77,7.52,3.67c9.18,3.15,18.77,4.07,28.39,4.6c9.59,0.52,19.16,0.27,28.71-0.84c6.33-0.73,12.6-1.77,18.65-3.88
			c2.87-1,5.64-2.22,7.97-4.26c1.75-1.54,2.62-3.41,2.6-5.79c-0.06-6.82-0.03-13.64-0.03-20.46c0-0.4,0-0.8,0-1.34
			c-2.74,0.48-5.3,0.92-7.86,1.37c-18.61,3.24-37.23,6.46-55.84,9.74c-4.6,0.81-8.86,0.42-13.04-1.94
			c-6.13-3.47-12.44-6.62-18.67-9.91c-0.56-0.29-1.12-0.58-1.91-0.98C121.63,117.85,121.63,118.19,121.63,118.53z"/>
	</g>
	<text transform="matrix(1 0 0 1 45.9014 202.3303)" class="st6 st7 st8">Education</text>
</g>
<g id="Logo4">
</g>
<g id="Logo5">
</g>
<g id="Logo6">
</g>
<g id="Logo7">
</g>
<g id="Logo8">
</g>
<g id="Logo9">
</g>
<g id="Logo10">
</g>
<g id="Logo11">
</g>
<g id="Logo12">
</g>
<g id="Layer_13">
</g>
<g id="Layer_14">
</g>
<g id="Layer_15">
</g>
</svg>
