<?xml version="1.0" encoding="utf-8"?>
<!-- Generator: Adobe Illustrator 27.8.1, SVG Export Plug-In . SVG Version: 6.00 Build 0)  -->
<svg version="1.1" xmlns="http://www.w3.org/2000/svg" xmlns:xlink="http://www.w3.org/1999/xlink" x="0px" y="0px"
	 viewBox="0 0 350 230" style="enable-background:new 0 0 350 230;" xml:space="preserve">
<style type="text/css">
	.st0{fill:#FF7F00;}
	.st1{fill:#893700;}
	.st2{display:none;fill:#893700;}
	.st3{font-family:'Magnolia-Script';}
	.st4{font-size:45px;}
	.st5{fill:#29ABE2;}
	.st6{fill:#F2C0AA;}
	.st7{fill:#1C75BC;}
	.st8{fill:#FFC200;}
	.st9{fill:#911717;}
	.st10{fill:#C1272D;}
	.st11{fill:#F7931E;}
	.st12{fill:#2D828E;}
	.st13{fill:#93BC20;}
	.st14{fill:#CC781D;}
	.st15{fill:#FF5500;}
	.st16{fill:#C4C400;}
	.st17{fill:#017F6A;}
	.st18{fill:#0092FF;}
	.st19{fill:#09578C;}
	.st20{fill:#3B9FE2;}
	.st21{fill:#BE1E2D;}
	.st22{fill:#231F20;}
	.st23{fill:#FF9D00;}
	.st24{fill:#F15A29;}
	.st25{fill:#00406B;}
</style>
<g id="Logo1">
	<path class="st0" d="M77.87,107.73c3.7-7.14,4.43-13.7,1.75-20.51c-1.07-2.72-2.78-4.55-5.88-4.5c-2.92,0.05-4.48,1.83-5.53,4.4
		c-2.77,6.8-2,13.36,1.59,20.67c-2.56-0.79-4.57-1.19-6.39-2.01c-14.43-6.47-19.19-23.85-10.44-38.79
		c2.22-3.79,5.11-7.22,7.86-10.68c7.19-9.02,11.65-19.18,13.23-30.59c10.25,4.27,15.7,27.02,11.33,45.64
		c1.97-3.36,3.95-6.71,6.12-10.41c6.85,9.51,9.93,19.64,5.85,30.95C94.22,100.64,87.63,105.69,77.87,107.73z"/>
	<path class="st1" d="M97.39,112.86c-0.14,1.02,0.05,2.11-0.41,2.67c-7.03,8.55-8.39,19.18-10.18,29.41
		c-3.5,20.05-6.2,40.23-9,58.85c0-29.14,0-59.87,0-90.93C84.18,112.86,90.55,112.86,97.39,112.86z M69.77,112.69
		c-6.56,0-12.84,0-19.71,0c0.49,1.41,0.75,2.54,1.27,3.54c1.5,2.89,3.76,5.56,4.55,8.61c2.69,10.38,5.38,20.81,7.14,31.37
		c2.67,16.05,4.57,32.24,6.76,48.07C69.77,174.01,69.77,143.41,69.77,112.69z"/>
	<text transform="matrix(1 0 0 1 104.6326 126.8124)" class="st2 st3 st4">Education</text>
</g>
<g id="Logo2">
</g>
<g id="Logo3">
</g>
<g id="Logo4">
</g>
<g id="Logo5">
</g>
<g id="Logo6">
</g>
<g id="Logo7">
</g>
<g id="Logo8">
</g>
<g id="Logo9">
</g>
<g id="Logo10">
</g>
<g id="Logo11">
</g>
<g id="Logo12">
</g>
<g id="Layer_13">
</g>
<g id="Layer_14">
</g>
<g id="Layer_15">
</g>
</svg>
