<?xml version="1.0" encoding="utf-8"?>
<!-- Generator: Adobe Illustrator 27.8.1, SVG Export Plug-In . SVG Version: 6.00 Build 0)  -->
<svg version="1.1" xmlns="http://www.w3.org/2000/svg" xmlns:xlink="http://www.w3.org/1999/xlink" x="0px" y="0px"
	 viewBox="0 0 350 230" style="enable-background:new 0 0 350 230;" xml:space="preserve">
<style type="text/css">
	.st0{fill:#FF7F00;}
	.st1{fill:#893700;}
	.st2{fill:#29ABE2;}
	.st3{fill:#F2C0AA;}
	.st4{fill:#1C75BC;}
	.st5{fill:#FFC200;}
	.st6{fill:#911717;}
	.st7{fill:#C1272D;}
	.st8{fill:#F7931E;}
	.st9{fill:#2D828E;}
	.st10{fill:#93BC20;}
	.st11{fill:#CC781D;}
	.st12{fill:#FF5500;}
	.st13{display:none;fill:#CC781D;}
	.st14{font-family:'NofexRegular';}
	.st15{font-size:32px;}
	.st16{fill:#C4C400;}
	.st17{fill:#017F6A;}
	.st18{fill:#0092FF;}
	.st19{fill:#09578C;}
	.st20{fill:#3B9FE2;}
	.st21{fill:#BE1E2D;}
	.st22{fill:#231F20;}
	.st23{fill:#FF9D00;}
	.st24{fill:#F15A29;}
	.st25{fill:#00406B;}
</style>
<g id="Logo1">
</g>
<g id="Logo2">
</g>
<g id="Logo3">
</g>
<g id="Logo4">
</g>
<g id="Logo5">
</g>
<g id="Logo6">
</g>
<g id="Logo7">
	<g>
		<g>
			<path class="st11" d="M37.4,186.11c2.07-4.03,4.59-7.91,6.14-12.15c4.17-11.38,2.48-22.65-2.5-33.28
				c-3.71-7.92-8.51-15.32-12.85-22.94c-3.37-5.93-7.29-11.59-8.64-18.47c-1.18-6.04-0.62-11.87,2.12-17.52
				c-1.15,12.8,6.52,21.6,13.63,30.69c5.45,6.97,11.21,13.76,15.94,21.2c5.47,8.61,7.88,18.21,5.36,28.54
				c-2.33,9.53-8.45,16.24-16.12,21.81C39.42,184.76,38.33,185.48,37.4,186.11z M38.3,104.36c-0.06,7.68,5.7,13.62,13.18,13.59
				c7.32-0.04,13.03-5.85,13.03-13.26c0-7.47-5.67-13.31-12.94-13.33C44.19,91.34,38.36,97.04,38.3,104.36z"/>
			<path class="st5" d="M27.23,72.34l-5.98-1.64l-4.74,4l-0.29-6.19l-5.26-3.27l5.8-2.19l1.48-6.02l3.87,4.84l6.18-0.45l-3.4,5.18
				L27.23,72.34z"/>
			<path class="st12" d="M97.89,49.04l38.5,40.23l-53.64-5.74L44.89,43.89L97.89,49.04z M80.35,86.99L57.91,62.85L45.99,83.63
				c19.01,2.31,26.2,18.72,26.2,18.72c15.62-5.21,30.6,8.21,30.6,8.21L113.91,90L80.35,86.99z"/>
		</g>
		<text transform="matrix(1 0 0 1 116.384 124.5679)" class="st13 st14 st15">Education</text>
	</g>
</g>
<g id="Logo8">
</g>
<g id="Logo9">
</g>
<g id="Logo10">
</g>
<g id="Logo11">
</g>
<g id="Logo12">
</g>
<g id="Layer_13">
</g>
<g id="Layer_14">
</g>
<g id="Layer_15">
</g>
</svg>
