<?xml version="1.0" encoding="utf-8"?>
<!-- Generator: Adobe Illustrator 27.8.1, SVG Export Plug-In . SVG Version: 6.00 Build 0)  -->
<svg version="1.1" xmlns="http://www.w3.org/2000/svg" xmlns:xlink="http://www.w3.org/1999/xlink" x="0px" y="0px"
	 viewBox="0 0 350 230" style="enable-background:new 0 0 350 230;" xml:space="preserve">
<style type="text/css">
	.st0{fill:#FF7F00;}
	.st1{fill:#893700;}
	.st2{fill:#29ABE2;}
	.st3{fill:#F2C0AA;}
	.st4{fill:#1C75BC;}
	.st5{fill:#FFC200;}
	.st6{fill:#911717;}
	.st7{fill:#C1272D;}
	.st8{fill:#F7931E;}
	.st9{fill:#2D828E;}
	.st10{fill:#93BC20;}
	.st11{display:none;fill:#2D828E;}
	.st12{font-family:'NofexRegular';}
	.st13{font-size:32px;}
	.st14{fill:#CC781D;}
	.st15{fill:#FF5500;}
	.st16{fill:#C4C400;}
	.st17{fill:#017F6A;}
	.st18{fill:#0092FF;}
	.st19{fill:#09578C;}
	.st20{fill:#3B9FE2;}
	.st21{fill:#BE1E2D;}
	.st22{fill:#231F20;}
	.st23{fill:#FF9D00;}
	.st24{fill:#F15A29;}
	.st25{fill:#00406B;}
</style>
<g id="Logo1">
</g>
<g id="Logo2">
</g>
<g id="Logo3">
</g>
<g id="Logo4">
</g>
<g id="Logo5">
</g>
<g id="Logo6">
	<g>
		<g>
			<path class="st9" d="M103.26,196.12c-1.56,0.63-3.19,1.95-4.67,1.8c-24.59-2.47-47.41-23.7-53.47-49.53
				c-5.99-25.51,5.05-54.29,25.91-67.53c0.15-0.1,0.38-0.07,0.66-0.12c1.29,3.14,2.06,6.71,4.05,9.36c2.03,2.71,5.26,4.52,8.3,7
				c-19.5,16.41-27.81,37.3-20.14,62.63c5.61,18.51,18.21,30.96,36.91,36.81C101.63,196.39,102.45,196.26,103.26,196.12z
				 M87.54,69.34c-6.27,0.21-11.7,5.68-11.74,11.82c-0.04,6.6,5.38,11.98,12.05,11.96c6.74-0.02,12.03-5.32,11.98-12
				C99.78,74.62,94.03,69.12,87.54,69.34z"/>
			<path class="st10" d="M88.12,197.95c-29.78,3.15-66.04-25.55-75.94-60.1c-10.01-34.94,6.07-78.62,34.36-92.23
				c0.42,10.63,5.83,17.58,16.03,20.88C12.59,102.72,25.62,180.89,88.12,197.95z M111.42,198.61
				c-27.47-12.08-34.86-45.97-10.83-66.69c-2.76-3.58-5.48-7.12-8.23-10.68c-24.54,16.07-23.87,54.41,1.69,70.7
				c2.3,1.47,4.52,3.05,6.78,4.59c0.81-0.14,1.63-0.27,2.44-0.41C105.98,196.95,108.7,197.78,111.42,198.61z M66.27,31.39
				c-8.37,0.02-15.5,7.14-15.54,15.52c-0.04,8.51,6.76,15.4,15.37,15.57c8.57,0.17,15.58-6.59,15.69-15.12
				C81.91,38.43,75.05,31.37,66.27,31.39z M103.87,113.19c-4.43-0.08-8.27,3.9-8.06,8.35c0.2,4.22,4.01,7.78,8.17,7.65
				c4.26-0.14,7.85-3.83,7.8-8.03C111.73,116.98,108.04,113.26,103.87,113.19z"/>
		</g>
		<text transform="matrix(1 0 0 1 118.154 125.4648)" class="st11 st12 st13">Education</text>
	</g>
</g>
<g id="Logo7">
</g>
<g id="Logo8">
</g>
<g id="Logo9">
</g>
<g id="Logo10">
</g>
<g id="Logo11">
</g>
<g id="Logo12">
</g>
<g id="Layer_13">
</g>
<g id="Layer_14">
</g>
<g id="Layer_15">
</g>
</svg>
