<?xml version="1.0" encoding="utf-8"?>
<!-- Generator: Adobe Illustrator 27.8.1, SVG Export Plug-In . SVG Version: 6.00 Build 0)  -->
<svg version="1.1" xmlns="http://www.w3.org/2000/svg" xmlns:xlink="http://www.w3.org/1999/xlink" x="0px" y="0px"
	 viewBox="0 0 350 230" style="enable-background:new 0 0 350 230;" xml:space="preserve">
<style type="text/css">
	.st0{fill:#FF7F00;}
	.st1{fill:#893700;}
	.st2{fill:#29ABE2;}
	.st3{fill:#F2C0AA;}
	.st4{fill:#1C75BC;}
	.st5{fill:#FFC200;}
	.st6{fill:#911717;}
	.st7{fill:#C1272D;}
	.st8{fill:#F7931E;}
	.st9{fill:#2D828E;}
	.st10{fill:#93BC20;}
	.st11{fill:#CC781D;}
	.st12{fill:#FF5500;}
	.st13{fill:#C4C400;}
	.st14{fill:#017F6A;}
	.st15{fill:#0092FF;}
	.st16{fill:#09578C;}
	.st17{fill:#3B9FE2;}
	.st18{fill:#BE1E2D;}
	.st19{fill:#231F20;}
	.st20{fill:#FF9D00;}
	.st21{fill:#F15A29;}
	.st22{display:none;fill:#F15A29;}
	.st23{font-family:'NofexRegular';}
	.st24{font-size:30px;}
	.st25{fill:#00406B;}
</style>
<g id="Logo1">
</g>
<g id="Logo2">
</g>
<g id="Logo3">
</g>
<g id="Logo4">
</g>
<g id="Logo5">
</g>
<g id="Logo6">
</g>
<g id="Logo7">
</g>
<g id="Logo8">
</g>
<g id="Logo9">
</g>
<g id="Logo10">
</g>
<g id="Logo11">
</g>
<g id="Logo12">
</g>
<g id="Layer_13">
</g>
<g id="Layer_14">
	<g>
		<g>
			<path class="st21" d="M13.56,77.98c4.01-0.96,8.02-1.93,12.04-2.89c16.37-3.93,32.75-7.87,49.13-11.78
				c0.66-0.16,1.42-0.15,2.07,0.01c20.14,4.81,40.28,9.65,60.42,14.49c0.25,0.06,0.49,0.14,1.02,0.28
				c-0.96,0.25-1.65,0.44-2.35,0.61c-19.64,4.72-39.27,9.44-58.91,14.12c-0.8,0.19-1.74,0.17-2.54-0.03
				c-15.97-3.8-31.94-7.65-47.9-11.48c-0.31-0.07-0.62-0.13-1.04-0.22c-0.02,0.37-0.06,0.68-0.06,0.98
				c0,15.65-0.01,31.31,0.02,46.96c0,0.38,0.19,0.91,0.48,1.1c3.17,2.1,3.1,5.88-0.18,7.76c-0.08,0.05-0.15,0.11-0.31,0.24
				c1.12,3.72,2.25,7.46,3.45,11.45c-3.38-2.1-6.56-2.42-9.91-0.01c0.16-0.56,0.25-0.89,0.35-1.21c0.95-3.15,1.88-6.31,2.86-9.45
				c0.18-0.59,0.13-0.88-0.44-1.23c-2.88-1.74-2.85-5.67,0.05-7.41c0.5-0.3,0.63-0.62,0.63-1.15c-0.01-15.98-0.01-31.95,0.01-47.93
				c0-0.71-0.26-0.94-0.89-1.08c-2.39-0.54-4.77-1.13-7.15-1.71c-0.28-0.07-0.55-0.15-0.82-0.23C13.56,78.1,13.56,78.04,13.56,77.98
				z"/>
			<path class="st20" d="M39.31,91.27c1.77,0.42,3.46,0.83,5.14,1.23c5.05,1.21,10.1,2.44,15.15,3.62c0.67,0.16,0.86,0.42,0.86,1.09
				c-0.02,19.4-0.02,38.8-0.01,58.19c0,0.54-0.08,0.87-0.69,1.05c-7.25,2.16-13.87,5.58-19.96,10.05c-0.13,0.09-0.27,0.16-0.5,0.3
				C39.31,141.62,39.31,116.54,39.31,91.27z M111.62,91.39c-6.62,1.59-13.23,3.19-19.86,4.75c-0.7,0.17-0.73,0.54-0.73,1.1
				c0.01,19.37,0.01,38.73-0.01,58.1c0,0.65,0.16,0.96,0.82,1.15c7.12,2.13,13.63,5.49,19.63,9.85c0.2,0.14,0.42,0.25,0.69,0.41
				c0-25.2,0-50.29,0-75.42C111.94,91.36,111.78,91.36,111.62,91.39z M86.39,97.49c-0.35,0.07-0.63,0.12-0.91,0.18
				c-2.92,0.7-5.83,1.42-8.76,2.07c-0.63,0.14-1.35,0.14-1.98,0c-2.9-0.64-5.78-1.36-8.66-2.05c-0.3-0.07-0.6-0.12-0.97-0.19
				c0,19.24,0,38.36,0,57.63c7.11-1.41,14.16-1.4,21.28,0C86.39,135.82,86.39,116.69,86.39,97.49z"/>
		</g>
		<text transform="matrix(1 0 0 1 127.7065 123.97)" class="st22 st23 st24">education</text>
	</g>
</g>
<g id="Layer_15">
</g>
</svg>
