<?xml version="1.0" encoding="utf-8"?>
<!-- Generator: Adobe Illustrator 27.8.1, SVG Export Plug-In . SVG Version: 6.00 Build 0)  -->
<svg version="1.1" xmlns="http://www.w3.org/2000/svg" xmlns:xlink="http://www.w3.org/1999/xlink" x="0px" y="0px"
	 viewBox="0 0 350 230" style="enable-background:new 0 0 350 230;" xml:space="preserve">
<style type="text/css">
	.st0{fill:#FF7F00;}
	.st1{fill:#893700;}
	.st2{fill:#29ABE2;}
	.st3{fill:#F2C0AA;}
	.st4{fill:#1C75BC;}
	.st5{fill:#FFC200;}
	.st6{fill:#911717;}
	.st7{fill:#C1272D;}
	.st8{fill:#F7931E;}
	.st9{display:none;fill:#C1272D;}
	.st10{font-family:'NofexRegular';}
	.st11{font-size:35px;}
	.st12{fill:#2D828E;}
	.st13{fill:#93BC20;}
	.st14{fill:#CC781D;}
	.st15{fill:#FF5500;}
	.st16{fill:#C4C400;}
	.st17{fill:#017F6A;}
	.st18{fill:#0092FF;}
	.st19{fill:#09578C;}
	.st20{fill:#3B9FE2;}
	.st21{fill:#BE1E2D;}
	.st22{fill:#231F20;}
	.st23{fill:#FF9D00;}
	.st24{fill:#F15A29;}
	.st25{fill:#00406B;}
</style>
<g id="Logo1">
</g>
<g id="Logo2">
</g>
<g id="Logo3">
</g>
<g id="Logo4">
</g>
<g id="Logo5">
	<g>
		<g>
			<path class="st7" d="M196.02,49.55c0,0-9.32,4.97-12.44,17.17c-0.22-5.88-2.14-12.02-7.29-17.38c0,0-5.19,5.09-6.71,14.01
				c-1.72-5.02-4.91-9.84-10.48-13.45c0,0-12.34,19.41,9.91,39.96c0,0,1.55-4.43,2.13-10.54c1.2,3.48,3.06,7.22,5.75,11.18
				c0,0,3.83-6.05,5.7-14.19c0.14,3.82,0.86,8.12,2.4,12.9C184.98,89.22,206.76,70.13,196.02,49.55z M168.91,89.62
				c-11.65-10.76-5.19-20.93-5.19-20.93C173.91,75.31,168.91,89.62,168.91,89.62z M176.85,90.25c-8.9-13.12-0.32-21.55-0.32-21.55
				C184.97,77.44,176.85,90.25,176.85,90.25z M185.02,88.95c-4.84-15.1,5.78-20.77,5.78-20.77
				C196.42,78.96,185.02,88.95,185.02,88.95z"/>
			<path class="st8" d="M176.53,68.7c8.44,8.74,0.32,21.55,0.32,21.55C167.94,77.13,176.53,68.7,176.53,68.7z M190.8,68.19
				c0,0-10.62,5.67-5.78,20.77C185.02,88.95,196.42,78.96,190.8,68.19z M163.72,68.69c0,0-6.46,10.17,5.19,20.93
				C168.91,89.62,173.91,75.31,163.72,68.69z"/>
			<path class="st2" d="M317.79,97.01c-40.54,4.46-80.57,13.59-119.04,27.17c35.98-20.38,76.8-32.14,118.11-34.02
				c-4.9-5.96-5.24-16.13-12.47-18.82c-2.67-0.99-5.63-0.6-8.44-0.14c-37.64,6.11-73.8,21.19-104.63,43.65
				c-2.19,1.6-4.68,3.32-7.37,2.93c12.65-16.2,30.3-27.95,49.13-36.2s38.9-13.22,58.94-17.76c-3.11-3.74-6.22-7.7-7.34-12.43
				c-1.12-4.73,0.36-10.42,4.63-12.74c-47.68,10.96-90.22,42.61-114.43,85.12c-23.75-42.81-66.38-74.7-114.16-85.39
				c4.64,2.15,6.22,8.33,4.77,13.24c-1.45,4.9-5.13,8.79-8.77,12.38c20.38,4.55,40.9,9.17,60.06,17.49s37.08,20.66,48.79,37.96
				C131.66,93.82,91.32,76.8,49.31,70.37c-1.75-0.27-3.65-0.5-5.21,0.35c-1.49,0.8-2.33,2.4-3.1,3.9C38.37,79.81,35.74,85,33.1,90.2
				c41.29,1.93,82.1,13.66,118.12,33.95c-38.47-13.77-78.6-22.89-119.24-27.11c-1.74-0.18-4.22-0.18-5.46,1.29
				c-0.79,0.94-0.51,1.89-0.26,2.98c0.27,1.17,0.6,2.34,0.99,3.48c1.56,4.56,4.07,8.8,7.31,12.37c2.17,2.4,4.66,4.5,7.41,6.2
				c9.99-4.57,21.44-4.45,32.38-3.43c28.27,2.63,56.02,10.71,81.29,23.67c6.23,3.19,12.68,6.78,19.68,6.63
				c6.23-0.13,11.96-3.21,17.52-6.01c21.75-10.95,45.07-18.76,69.03-23.11c15.62-2.84,32.4-4.08,46.77,2.66
				c7-5.49,12.28-13.13,14.94-21.61c0.41-1.32,0.74-2.86-0.04-4c-0.98-1.45-3.08-1.42-4.82-1.24
				C318.4,96.95,318.1,96.98,317.79,97.01z M41.59,105.04l-0.02,0.47C40.23,105.76,41.59,105.04,41.59,105.04z"/>
		</g>
		<text transform="matrix(1 0 0 1 53.2358 182.8176)" class="st9 st10 st11">Education</text>
	</g>
</g>
<g id="Logo6">
</g>
<g id="Logo7">
</g>
<g id="Logo8">
</g>
<g id="Logo9">
</g>
<g id="Logo10">
</g>
<g id="Logo11">
</g>
<g id="Logo12">
</g>
<g id="Layer_13">
</g>
<g id="Layer_14">
</g>
<g id="Layer_15">
</g>
</svg>
