<?xml version="1.0" encoding="utf-8"?>
<!-- Generator: Adobe Illustrator 27.8.1, SVG Export Plug-In . SVG Version: 6.00 Build 0)  -->
<svg version="1.1" xmlns="http://www.w3.org/2000/svg" xmlns:xlink="http://www.w3.org/1999/xlink" x="0px" y="0px"
	 viewBox="0 0 350 230" style="enable-background:new 0 0 350 230;" xml:space="preserve">
<style type="text/css">
	.st0{fill:#FF7F00;}
	.st1{fill:#893700;}
	.st2{fill:#29ABE2;}
	.st3{fill:#F2C0AA;}
	.st4{fill:#1C75BC;}
	.st5{fill:#FFC200;}
	.st6{fill:#911717;}
	.st7{fill:#C1272D;}
	.st8{fill:#F7931E;}
	.st9{fill:#2D828E;}
	.st10{fill:#93BC20;}
	.st11{fill:#CC781D;}
	.st12{fill:#FF5500;}
	.st13{fill:#C4C400;}
	.st14{fill:#017F6A;}
	.st15{fill:#0092FF;}
	.st16{fill:#09578C;}
	.st17{fill:#3B9FE2;}
	.st18{display:none;fill:#09578C;}
	.st19{font-family:'NofexRegular';}
	.st20{font-size:35px;}
	.st21{fill:#BE1E2D;}
	.st22{fill:#231F20;}
	.st23{fill:#FF9D00;}
	.st24{fill:#F15A29;}
	.st25{fill:#00406B;}
</style>
<g id="Logo1">
</g>
<g id="Logo2">
</g>
<g id="Logo3">
</g>
<g id="Logo4">
</g>
<g id="Logo5">
</g>
<g id="Logo6">
</g>
<g id="Logo7">
</g>
<g id="Logo8">
</g>
<g id="Logo9">
</g>
<g id="Logo10">
	<g>
		<g>
			<path class="st4" d="M242.15,143.78c-0.02-0.04-0.39-0.02-0.44-0.03c-0.15-0.01-0.31-0.02-0.46-0.03
				c-0.31-0.02-0.62-0.03-0.93-0.05c-0.62-0.03-1.23-0.06-1.85-0.08c-1.23-0.05-2.45-0.08-3.68-0.1c-1.22-0.02-2.44-0.02-3.66-0.02
				c-1.22,0.01-2.43,0.03-3.65,0.06c-1.21,0.03-2.42,0.08-3.63,0.14c-1.21,0.06-2.41,0.13-3.62,0.21c-1.2,0.08-2.4,0.17-3.6,0.28
				c-1.2,0.1-2.39,0.22-3.59,0.34c-1.19,0.12-2.39,0.26-3.58,0.4c-1.19,0.14-2.38,0.3-3.57,0.46c-1.19,0.16-2.37,0.34-3.56,0.52
				c-1.18,0.18-2.37,0.37-3.55,0.57c-1.18,0.2-2.36,0.4-3.54,0.62c-1.18,0.21-2.36,0.43-3.53,0.66c-1.18,0.23-2.35,0.46-3.53,0.71
				c-1.18,0.24-2.35,0.49-3.52,0.74c-0.53,0.1-1.07,0.21-1.58,0.4c-0.49,0.18-0.96,0.43-1.44,0.65c-0.96,0.45-1.93,0.91-2.89,1.36
				c-0.32,0.15-0.64,0.3-0.96,0.45c0-8.55-0.79-16.47,0.17-24.18c1.82-14.56,10.94-23.84,23.73-30.33
				c5.89-2.99,11.6-6.74,16.54-11.1c5.85-5.17,7.94-12.22,7.31-19.5c-12.12,2.54-23.68,6.04-32.65,15.15
				c-8.8,8.94-11.23,20.9-14.8,32.32c-0.46-16.16-2.63-32.79,10.85-45.35c12.41-11.56,27.92-14.31,44.75-14.88v65.47
				c-20.75,1.87-40.75,5.64-52.41,25.97c8.7-6.26,17.37-12.71,28.14-14.88c9-1.82,18.11-3.01,28.23-4.65
				c-0.79-16.71-1.61-34.04-2.43-51.36c0.27-0.02,0.55-0.04,0.82-0.06c1.97,19.82,3.94,39.63,5.99,60.31
				c-21.44-1.58-41.93,0.4-59.55,13.92c0,0,0.35,0.3,0.35,0.3c0.06,0.05,0.32-0.12,0.38-0.15c0.13-0.05,0.25-0.11,0.37-0.17
				c0.27-0.12,0.54-0.24,0.81-0.36c0.54-0.23,1.08-0.47,1.62-0.69c1.08-0.45,2.16-0.88,3.25-1.29c1.08-0.41,2.17-0.8,3.27-1.17
				c1.09-0.37,2.19-0.72,3.29-1.05c1.1-0.33,2.2-0.64,3.31-0.93c1.1-0.29,2.21-0.56,3.33-0.81c1.11-0.25,2.23-0.49,3.35-0.7
				c1.12-0.22,2.24-0.41,3.36-0.59c1.12-0.18,2.25-0.34,3.38-0.48c1.13-0.14,2.26-0.27,3.4-0.38c1.14-0.11,2.27-0.2,3.41-0.28
				c1.14-0.08,2.28-0.13,3.43-0.18c1.15-0.04,2.3-0.07,3.44-0.08c1.15-0.01,2.31,0,3.46,0.02c1.16,0.02,2.32,0.06,3.47,0.11
				c1.16,0.05,2.32,0.12,3.49,0.2c0.48,0.03,0.96,0.07,1.43,0.11C239.65,140.45,241.09,142.01,242.15,143.78z"/>
			<path class="st16" d="M111.91,140.33c0.48-0.04,0.96-0.07,1.43-0.11c1.16-0.08,2.32-0.15,3.49-0.2c1.16-0.05,2.31-0.09,3.47-0.11
				c1.15-0.02,2.31-0.03,3.46-0.02c1.15,0.01,2.3,0.04,3.44,0.08c1.14,0.04,2.29,0.1,3.43,0.18c1.14,0.08,2.28,0.17,3.41,0.28
				c1.13,0.11,2.27,0.24,3.4,0.38c1.13,0.14,2.26,0.31,3.38,0.48c1.12,0.18,2.25,0.38,3.36,0.59c1.12,0.22,2.23,0.45,3.35,0.7
				c1.11,0.25,2.22,0.52,3.33,0.81c1.11,0.29,2.21,0.6,3.31,0.93c1.1,0.33,2.2,0.68,3.29,1.05c1.1,0.37,2.19,0.76,3.27,1.17
				c1.09,0.41,2.18,0.84,3.25,1.29c0.54,0.23,1.08,0.46,1.62,0.69c0.27,0.12,0.54,0.24,0.81,0.36c0.12,0.06,0.25,0.11,0.37,0.17
				c0.06,0.03,0.32,0.2,0.38,0.15c0,0,0.35-0.3,0.35-0.3c-17.62-13.52-38.11-15.5-59.55-13.92c2.05-20.68,4.02-40.49,5.99-60.31
				c0.27,0.02,0.55,0.04,0.82,0.06c-0.82,17.32-1.64,34.65-2.43,51.36c10.12,1.64,19.24,2.83,28.23,4.65
				c10.77,2.18,19.44,8.63,28.14,14.88c-11.66-20.33-31.66-24.11-52.41-25.97V54.18c16.83,0.58,32.34,3.33,44.75,14.88
				c13.48,12.56,11.31,29.19,10.85,45.35c-3.57-11.42-6-23.38-14.8-32.32c-8.97-9.11-20.53-12.61-32.65-15.15
				c-0.63,7.28,1.46,14.32,7.31,19.5c4.94,4.36,10.65,8.11,16.54,11.1c12.78,6.49,21.91,15.77,23.73,30.33
				c0.96,7.7,0.17,15.62,0.17,24.18c-0.32-0.15-0.64-0.3-0.96-0.45c-0.96-0.45-1.93-0.91-2.89-1.36c-0.48-0.22-0.94-0.47-1.44-0.65
				c-0.51-0.19-1.05-0.3-1.58-0.4c-1.17-0.25-2.35-0.5-3.52-0.74c-1.17-0.24-2.35-0.48-3.53-0.71c-1.18-0.23-2.35-0.45-3.53-0.66
				c-1.18-0.21-2.36-0.42-3.54-0.62c-1.18-0.2-2.36-0.39-3.55-0.57c-1.18-0.18-2.37-0.35-3.56-0.52c-1.19-0.16-2.38-0.32-3.57-0.46
				c-1.19-0.14-2.38-0.28-3.58-0.4c-1.2-0.12-2.39-0.24-3.59-0.34c-1.2-0.1-2.4-0.2-3.6-0.28c-1.2-0.08-2.41-0.15-3.62-0.21
				c-1.21-0.06-2.42-0.1-3.63-0.14c-1.21-0.03-2.43-0.05-3.65-0.06c-1.22-0.01-2.44,0-3.66,0.02c-1.23,0.02-2.45,0.05-3.68,0.1
				c-0.62,0.02-1.23,0.05-1.85,0.08c-0.31,0.02-0.62,0.03-0.93,0.05c-0.15,0.01-0.31,0.02-0.46,0.03c-0.06,0-0.42-0.01-0.44,0.03
				C108.91,142.01,110.35,140.45,111.91,140.33z"/>
			<path class="st17" d="M159.47,50.05c-0.09-8.32,6.88-15.41,15.26-15.5c8.45-0.09,15.59,6.7,15.8,15.02
				c0.21,8.39-7.23,16.01-15.59,15.96C166.76,65.49,159.56,58.28,159.47,50.05z"/>
		</g>
		<text transform="matrix(1 0 0 1 53.2361 186.63)" class="st18 st19 st20">education</text>
	</g>
</g>
<g id="Logo11">
</g>
<g id="Logo12">
</g>
<g id="Layer_13">
</g>
<g id="Layer_14">
</g>
<g id="Layer_15">
</g>
</svg>
