<?xml version="1.0" encoding="utf-8"?>
<!-- Generator: Adobe Illustrator 27.8.1, SVG Export Plug-In . SVG Version: 6.00 Build 0)  -->
<svg version="1.1" xmlns="http://www.w3.org/2000/svg" xmlns:xlink="http://www.w3.org/1999/xlink" x="0px" y="0px"
	 viewBox="0 0 350 230" style="enable-background:new 0 0 350 230;" xml:space="preserve">
<style type="text/css">
	.st0{fill:#FF7F00;}
	.st1{fill:#893700;}
	.st2{fill:#29ABE2;}
	.st3{fill:#F2C0AA;}
	.st4{display:none;fill:#29ABE2;}
	.st5{font-family:'Magnolia-Script';}
	.st6{font-size:45.0433px;}
	.st7{fill:#1C75BC;}
	.st8{fill:#FFC200;}
	.st9{fill:#911717;}
	.st10{fill:#C1272D;}
	.st11{fill:#F7931E;}
	.st12{fill:#2D828E;}
	.st13{fill:#93BC20;}
	.st14{fill:#CC781D;}
	.st15{fill:#FF5500;}
	.st16{fill:#C4C400;}
	.st17{fill:#017F6A;}
	.st18{fill:#0092FF;}
	.st19{fill:#09578C;}
	.st20{fill:#3B9FE2;}
	.st21{fill:#BE1E2D;}
	.st22{fill:#231F20;}
	.st23{fill:#FF9D00;}
	.st24{fill:#F15A29;}
	.st25{fill:#00406B;}
</style>
<g id="Logo1">
</g>
<g id="Logo2">
	<g>
		<g>
			<path class="st2" d="M174.9,130c14.18-24.67,35.1-39.53,62.17-46.36c-1.59,2.11-4.19,3.76-2.74,6.78c1.13,2.34,2.66,4.49,4.19,7
				c-2.84,0.7-5.82,1.44-8.8,2.17c-13.91,3.43-27.53,7.61-39.02,16.6c-3.93,3.08-7.28,6.9-10.9,10.38c0.21,0.27,0.43,0.55,0.64,0.82
				c0.31-0.1,0.67-0.13,0.91-0.32c16.63-13.25,35.73-20.94,56.39-25.18c8.39-1.72,8.38-1.78,12.34,5.84
				c0.58,1.12,1.15,2.24,1.96,3.82c-22.78,2.14-44.58,6.61-64.12,18.7c5.95-1.89,11.88-3.86,17.85-5.67
				c15.28-4.62,30.95-7.28,46.76-9.17c3.03-0.36,3.75,0.43,2.96,3.46c-1.18,4.54-4.44,7.62-7.92,11.16
				c-0.87-1.4-1.49-2.44-2.13-3.45c-3.23-5.09-8.38-5.62-12.91-1.73c-1.83,1.57-4.24,2.95-6.58,3.36
				c-15.53,2.78-30.81,6.17-44.53,14.53c-4.14,2.52-8.64,2.62-12.83,0.07c-13.71-8.35-28.93-11.94-44.5-14.6
				c-2.15-0.37-4.45-1.51-6.07-2.97c-5.29-4.74-11.72-3.56-14.51,2.95c-0.18,0.43-0.33,0.87-0.66,1.75
				c-3.99-3.2-7.37-6.43-8.44-11.39c-0.59-2.73,0.07-3.41,2.82-3.12c21.83,2.3,43.15,6.84,63.74,14.58c0.35,0.13,0.7,0.24,1.12,0.15
				c-19.54-11.81-41.18-16.49-64.15-18.59c1.88-3.58,3.56-7.05,5.57-10.31c0.36-0.58,2.14-0.57,3.19-0.39
				c22.55,3.9,43.5,11.63,61.64,26c0.38,0.3,0.8,0.54,1.26,0.84c-1.02-3.06-4.77-7.39-9.2-10.79
				c-10.66-8.19-22.99-12.68-35.77-16.15c-4.52-1.22-9.09-2.21-13.82-3.35c2.91-4.15,9.21-7.9,2.13-13.8
				c13.25,2.52,25.03,8.36,35.75,16.37C159.51,108.07,168.72,117.66,174.9,130z"/>
			<path class="st3" d="M135.84,155.52c-5.24-2.91-10.19-5.2-14.62-8.26c-3.73-2.57-7.14-5.77-10.11-9.2
				c-1.5-1.74-2.23-4.56-2.38-6.95c-0.2-3.07,2.81-4.26,5.35-2.42c0.47,0.34,0.92,0.74,1.29,1.19c4.44,5.24,10.42,7.32,16.96,8.29
				c6.9,1.03,13.6,2.62,19.46,6.7c7.21,5.02,11.56,12.08,12.99,20.48c1.55,9.1,2.03,18.39,2.92,27.6c0.1,1.04-0.14,2.11-0.25,3.59
				c-4.3-3.15-8.11-6.32-12.29-8.92c-9.18-5.72-18.46-11.27-27.87-16.6c-2.75-1.56-5.97-2.49-9.1-3.1
				c-11.42-2.24-19.42-8.81-25.36-18.6c-7.17-11.8-12.01-24.27-12.38-38.21c-0.05-2.03,0.31-4.08,0.66-6.1
				c0.32-1.84,1.13-3.42,3.43-3.19c2.2,0.22,2.91,1.79,3.03,3.68c0.25,3.99,0.17,8.02,0.69,11.98c0.39,2.96,1.26,5.91,2.32,8.71
				c1.81,4.75,5.35,7.54,10.48,8.27c0.95,0.14,2.35,0.54,2.66,1.22c4.45,9.77,13.3,13.88,22.45,17.49
				C129.07,154.33,132.3,154.69,135.84,155.52z M156.03,159.49c-0.05-6.8-7.22-16.06-12.9-16.97c2.36,2.47,5.05,4.85,7.19,7.66
				C152.48,153,154.08,156.25,156.03,159.49z M214.58,155.57c12.84-2.75,24.85-6.87,31.82-19.54c0.42-0.75,1.55-1.46,2.43-1.56
				c6.38-0.72,10.11-4.5,11.62-10.39c1-3.93,1.33-8.04,1.83-12.09c0.29-2.32,0.01-4.75,0.57-6.98c0.3-1.22,1.74-2.9,2.79-2.99
				c0.99-0.09,2.9,1.48,3.09,2.56c0.6,3.33,1.08,6.82,0.69,10.15c-2,17.02-8.07,32.38-20.35,44.64c-3.12,3.11-7.45,5.84-11.68,6.85
				c-15.47,3.69-28.67,11.59-41.34,20.67c-4.35,3.12-8.63,6.34-13.03,9.58c-0.18-0.28-0.44-0.5-0.44-0.72
				c-0.22-10.68,0.54-21.26,3.16-31.67c3.7-14.7,13.61-22.43,27.98-25.24c2.3-0.45,4.6-0.87,6.91-1.24
				c5.19-0.82,9.59-3.17,13.33-6.81c0.7-0.68,1.32-1.56,2.16-1.95c1.06-0.48,2.61-1.1,3.41-0.66c0.96,0.52,2.07,2.25,1.86,3.17
				c-0.61,2.67-1.24,5.73-2.96,7.69c-6.13,7.01-13.75,12.05-22.61,15.1c-0.37,0.13-0.74,0.24-1.1,0.39
				c-0.16,0.07-0.28,0.24-0.42,0.36C214.4,155.12,214.49,155.35,214.58,155.57z M207.59,142.71c-7.09,1.74-13.92,10.58-13.09,17.08
				C197.41,152.74,201.6,147.03,207.59,142.71z"/>
		</g>
		<text transform="matrix(1 0 0 1 76.5146 75.5273)" class="st4 st5 st6">Education</text>
	</g>
</g>
<g id="Logo3">
</g>
<g id="Logo4">
</g>
<g id="Logo5">
</g>
<g id="Logo6">
</g>
<g id="Logo7">
</g>
<g id="Logo8">
</g>
<g id="Logo9">
</g>
<g id="Logo10">
</g>
<g id="Logo11">
</g>
<g id="Logo12">
</g>
<g id="Layer_13">
</g>
<g id="Layer_14">
</g>
<g id="Layer_15">
</g>
</svg>
