<?xml version="1.0" encoding="utf-8"?>
<!-- Generator: Adobe Illustrator 27.8.1, SVG Export Plug-In . SVG Version: 6.00 Build 0)  -->
<svg version="1.1" xmlns="http://www.w3.org/2000/svg" xmlns:xlink="http://www.w3.org/1999/xlink" x="0px" y="0px"
	 viewBox="0 0 350 230" style="enable-background:new 0 0 350 230;" xml:space="preserve">
<style type="text/css">
	.st0{fill:#FF7F00;}
	.st1{fill:#893700;}
	.st2{fill:#29ABE2;}
	.st3{fill:#F2C0AA;}
	.st4{fill:#1C75BC;}
	.st5{fill:#FFC200;}
	.st6{fill:#911717;}
	.st7{fill:#C1272D;}
	.st8{fill:#F7931E;}
	.st9{fill:#2D828E;}
	.st10{fill:#93BC20;}
	.st11{fill:#CC781D;}
	.st12{fill:#FF5500;}
	.st13{fill:#C4C400;}
	.st14{fill:#017F6A;}
	.st15{fill:#0092FF;}
	.st16{fill:#09578C;}
	.st17{fill:#3B9FE2;}
	.st18{fill:#BE1E2D;}
	.st19{fill:#231F20;}
	.st20{fill:#FF9D00;}
	.st21{fill:#F15A29;}
	.st22{fill:#00406B;}
	.st23{display:none;}
	.st24{font-family:'NofexRegular';}
	.st25{font-size:30px;}
</style>
<g id="Logo1">
</g>
<g id="Logo2">
</g>
<g id="Logo3">
</g>
<g id="Logo4">
</g>
<g id="Logo5">
</g>
<g id="Logo6">
</g>
<g id="Logo7">
</g>
<g id="Logo8">
</g>
<g id="Logo9">
</g>
<g id="Logo10">
</g>
<g id="Logo11">
</g>
<g id="Logo12">
</g>
<g id="Layer_13">
</g>
<g id="Layer_14">
</g>
<g id="Layer_15">
	<g>
		<g>
			<path class="st22" d="M245.5,153.86c-47.02,0-94.04,0-141.05,0c-0.17-0.53-0.34-1.06-0.5-1.59c2.38-0.78,4.74-2.11,7.16-2.26
				c18.29-1.07,36.59-1.91,54.88-2.82c0.09-0.48,0.18-0.96,0.26-1.44c-3.55-0.87-7.13-2.56-10.65-2.44
				c-9.36,0.33-18.69,1.5-28.04,2.21c-5.03,0.38-10.09,0.51-15.16,0.05c16.98-2.86,33.96-5.73,50.59-8.53
				c-4.97-4.17-11.87-4.29-18.65-2.84c-8.36,1.78-16.53,4.43-24.8,6.68c-0.9,0.24-1.86,0.25-2.9-0.01
				c9.79-3.53,19.39-7.83,29.44-10.37c10.71-2.71,20.94-0.5,29,8.18c12.23-11.79,25.87-10.76,40.04-4.95
				c5.07,2.08,10.1,4.28,14.92,7.25c-4.64-1.38-9.33-2.65-13.93-4.18c-7.8-2.58-15.63-4.63-23.83-2.13
				c-2.01,0.61-3.85,1.78-5.09,2.37c16.81,2.82,33.86,5.68,51.41,8.62c-18.31,2.75-36.27-7.26-53.99,0.1
				c-0.01,0.46-0.02,0.92-0.04,1.38c11.31,0.62,22.62,1.26,33.93,1.84c7.33,0.37,14.67,0.51,21.98,1.06
				c1.9,0.14,3.71,1.46,5.57,2.23C245.87,152.8,245.69,153.33,245.5,153.86z"/>
			<path class="st4" d="M225.34,91.44c-4.77-0.1-8.86-4.42-8.75-9.25c0.11-4.88,4.29-8.93,9.15-8.86c4.72,0.07,8.93,4.49,8.81,9.26
				C234.43,87.41,230.13,91.54,225.34,91.44z M240.06,95.51c-1.64-0.15-3.37,0.15-4.99,0.57c-10.65,2.75-18.18-0.01-24.55-9
				c-1.46-2.06-2.92-4.23-4.83-5.82c-0.7-0.58-1.56-0.99-2.42-1.26c-0.71-0.22-1.69-0.47-2.39-0.07c-1.56,0.9-2.33,3.03-2.46,4.73
				c-0.14,1.91,0.3,3.81,0.63,5.68c0.21,1.18,0.6,2.33,0.65,3.54c0.04,1.19-0.16,2.39-0.44,3.52c-0.47,1.94-1.05,3.84-1.75,5.71
				c-0.01,0.04-0.03,0.08-0.04,0.12c-0.37,0.99-0.8,2-1.29,3c-0.8,1.77-1.75,3.48-3.03,4.95c-1.08,1.24-2.24,2.46-2.95,3.97
				c-1.39,2.95-1.28,6.89,1.75,8.78c0.63,0.39,1.36,0.67,2.19,0.82c1.1,0.2,2.22,0.18,3.29-0.12c15.39-4.27,29.79-10.73,43.09-19.57
				c1.08-0.72,2.04-1.81,2.72-2.93C245.15,98.95,243.67,95.84,240.06,95.51z M114.88,80.93c-4.77,0.05-9.05,4.41-8.96,9.12
				c0.1,4.85,4.29,8.89,9.17,8.84c4.83-0.06,9-4.29,8.94-9.06C123.97,85.04,119.7,80.88,114.88,80.93z M127.6,74.98
				c-0.09,1.64,0.27,3.37,0.74,4.96c3.11,10.55,0.61,18.17-8.15,24.85c-2.01,1.53-4.13,3.06-5.65,5.02
				c-0.55,0.72-0.93,1.59-1.17,2.46c-0.2,0.71-0.41,1.71,0.01,2.39c0.95,1.52,3.11,2.23,4.81,2.3c1.92,0.08,3.8-0.43,5.66-0.82
				c1.18-0.25,2.31-0.68,3.51-0.77c1.18-0.09,2.39,0.08,3.53,0.31c1.95,0.4,3.87,0.92,5.76,1.55c0.04,0.01,0.08,0.03,0.12,0.04
				c1,0.34,2.03,0.73,3.04,1.18c1.79,0.74,3.54,1.63,5.05,2.85c1.28,1.04,2.53,2.16,4.06,2.82c3,1.29,6.93,1.04,8.71-2.05
				c0.37-0.64,0.63-1.38,0.75-2.22c0.16-1.1,0.1-2.22-0.23-3.28c-4.79-15.23-11.74-29.4-21.04-42.4c-0.76-1.06-1.88-1.98-3.03-2.61
				C130.87,69.77,127.81,71.36,127.6,74.98z M166.35,60.57c5.04,3.09,12.18,1.34,15.31-3.75c3.16-5.15,1.52-12.17-3.57-15.35
				c-4.95-3.09-12.3-1.31-15.38,3.73C159.59,50.28,161.3,57.46,166.35,60.57z M140.56,59.66c-0.05,1.62,0.21,3.4,0.86,4.87
				c7.91,18.13,18.56,34.5,31.71,49.26c0.91,1.03,2.06,1.8,3.34,2.33c0.96,0.4,1.91,0.6,2.83,0.61c4.41,0.07,7.18-3.96,7.71-7.96
				c0.27-2.05-0.12-4.09-0.41-6.11c-0.34-2.38-0.18-4.8,0.17-7.18c0.17-1.37,0.4-2.71,0.67-3.99c0.01-0.05,0.02-0.1,0.03-0.15
				c0.53-2.41,1.2-4.78,2.01-7.11c0.47-1.36,1.07-2.75,1.91-3.95c0.86-1.23,2.04-2.15,3.05-3.24c1.6-1.73,3.33-3.4,4.47-5.49
				c1.01-1.85,1.62-4.59,0.61-6.57c-0.45-0.88-1.65-1.28-2.53-1.53c-1.08-0.3-2.25-0.45-3.36-0.32c-3.05,0.37-6.03,1.65-8.93,2.82
				c-12.65,5.07-22.34,2.89-31.58-7.11c-1.4-1.51-3.01-2.99-4.81-3.93C144.32,52.85,140.7,55.1,140.56,59.66z"/>
		</g>
		<text transform="matrix(1 0 0 1 70.6309 182.5073)" class="st23 st24 st25">education</text>
	</g>
</g>
</svg>
