<?xml version="1.0" encoding="utf-8"?>
<!-- Generator: Adobe Illustrator 27.8.1, SVG Export Plug-In . SVG Version: 6.00 Build 0)  -->
<svg version="1.1" xmlns="http://www.w3.org/2000/svg" xmlns:xlink="http://www.w3.org/1999/xlink" x="0px" y="0px"
	 viewBox="0 0 350 230" style="enable-background:new 0 0 350 230;" xml:space="preserve">
<style type="text/css">
	.st0{fill:#FF7F00;}
	.st1{fill:#893700;}
	.st2{fill:#29ABE2;}
	.st3{fill:#F2C0AA;}
	.st4{fill:#1C75BC;}
	.st5{fill:#FFC200;}
	.st6{fill:#911717;}
	.st7{fill:#C1272D;}
	.st8{fill:#F7931E;}
	.st9{fill:#2D828E;}
	.st10{fill:#93BC20;}
	.st11{fill:#CC781D;}
	.st12{fill:#FF5500;}
	.st13{fill:#C4C400;}
	.st14{fill:#017F6A;}
	.st15{fill:#0092FF;}
	.st16{fill:#09578C;}
	.st17{fill:#3B9FE2;}
	.st18{fill:#BE1E2D;}
	.st19{fill:#231F20;}
	.st20{display:none;fill:#1C75BC;}
	.st21{font-family:'NofexRegular';}
	.st22{font-size:35px;}
	.st23{fill:#FF9D00;}
	.st24{fill:#F15A29;}
	.st25{fill:#00406B;}
</style>
<g id="Logo1">
</g>
<g id="Logo2">
</g>
<g id="Logo3">
</g>
<g id="Logo4">
</g>
<g id="Logo5">
</g>
<g id="Logo6">
</g>
<g id="Logo7">
</g>
<g id="Logo8">
</g>
<g id="Logo9">
</g>
<g id="Logo10">
</g>
<g id="Logo11">
</g>
<g id="Logo12">
	<g>
		<path class="st4" d="M139.78,46.83c12.14-0.2,26.8,3.71,34.03,16.44c7.68-13.13,20.35-15.86,33.97-16.65
			c-23.3,7.03-28.86,32.04-33.96,52.37C168.71,79.3,162.63,52.96,139.78,46.83z M174.25,29.67c-11.63-0.29-11.82,17.78-0.24,17.66
			C185.75,47.64,185.7,29.65,174.25,29.67z"/>
		<path class="st19" d="M110.81,65.23c2.54,0.46,3.44,1.68,3.42,4.12c-0.11,12.85-0.03,25.59-0.04,38.45c40.47,0,80.7,0,121.33,0
			c0.34-12.68,0.14-25.41,0.08-38.1c-0.03-2.58,0.92-3.82,3.55-4.49c0.47,16.84,0.04,33.65,0.18,50.49c0,7.87-3.65,11.52-11.5,11.52
			c-35.36,0-70.72-0.01-106.08-0.02c-7.57,0-11.09-3.54-11.1-11.14C110.76,99.1,110.41,82.17,110.81,65.23z M174.64,147.61
			c16.09-0.51,14.65,3.62,14.61-13.46c0.07-2.37-0.89-3.54-3.27-3.54c-7.42,0-14.84,0-22.26,0c-2.2,0-3.24,1.13-3.23,3.31
			c-0.11,16.33-1.64,13.51,14.16,13.69C174.64,147.61,174.64,147.61,174.64,147.61z M157.27,151.16c-1.73-0.01-3.34,0.27-3.44,2.28
			c-0.1,2,1.45,2.59,3.2,2.59c11.9,0.01,23.8,0.07,35.7-0.1c1.12-0.02,2.99-1.45,3.15-2.45c0.31-1.96-1.48-2.34-3.22-2.33
			c-5.85,0.04-11.69,0.02-17.54,0.02C169.17,151.17,163.22,151.2,157.27,151.16z"/>
	</g>
	<text transform="matrix(1 0 0 1 53.2363 191.5103)" class="st20 st21 st22">education</text>
</g>
<g id="Layer_13">
</g>
<g id="Layer_14">
</g>
<g id="Layer_15">
</g>
</svg>
