<?xml version="1.0" encoding="utf-8"?>
<!-- Generator: Adobe Illustrator 27.8.1, SVG Export Plug-In . SVG Version: 6.00 Build 0)  -->
<svg version="1.1" xmlns="http://www.w3.org/2000/svg" xmlns:xlink="http://www.w3.org/1999/xlink" x="0px" y="0px"
	 viewBox="0 0 350 230" style="enable-background:new 0 0 350 230;" xml:space="preserve">
<style type="text/css">
	.st0{fill:#FF7F00;}
	.st1{fill:#893700;}
	.st2{fill:#29ABE2;}
	.st3{fill:#F2C0AA;}
	.st4{fill:#1C75BC;}
	.st5{fill:#FFC200;}
	.st6{fill:#911717;}
	.st7{display:none;fill:#FFC200;}
	.st8{font-family:'NofexRegular';}
	.st9{font-size:35px;}
	.st10{fill:#C1272D;}
	.st11{fill:#F7931E;}
	.st12{fill:#2D828E;}
	.st13{fill:#93BC20;}
	.st14{fill:#CC781D;}
	.st15{fill:#FF5500;}
	.st16{fill:#C4C400;}
	.st17{fill:#017F6A;}
	.st18{fill:#0092FF;}
	.st19{fill:#09578C;}
	.st20{fill:#3B9FE2;}
	.st21{fill:#BE1E2D;}
	.st22{fill:#231F20;}
	.st23{fill:#FF9D00;}
	.st24{fill:#F15A29;}
	.st25{fill:#00406B;}
</style>
<g id="Logo1">
</g>
<g id="Logo2">
</g>
<g id="Logo3">
</g>
<g id="Logo4">
	<g>
		<g>
			<path class="st5" d="M110.36,138.24c-10.55-19.21-0.71-55.01,18.94-72.08c23.53-20.45,60.52-23.9,87.39-3.07
				c27.87,21.6,31.14,54.49,23.01,74.91c-0.28-1.44-0.32-2.84-0.86-4.02c-0.55-1.2-1.47-2.97-2.43-3.12
				c-3.25-0.5-2.48-2.46-2.26-4.49c2.22-19.98-3.74-37.09-18.39-50.92c-34.32-32.37-86.71-14.07-98.55,27.66
				c-2.27,7.98-2.59,16.12-1.45,24.31c0.24,1.73,0.05,2.68-1.94,3.21C111.19,131.35,110.29,133.59,110.36,138.24z"/>
			<path class="st6" d="M175.04,171.37c-2.17-2.95-3.94-6.23-6.5-8.68c-5.4-5.18-11.12-10.05-16.92-14.79
				c-1.6-1.31-2.16-2.34-1.33-4.11c2.05-4.34,4.09-8.69,6.21-12.99c0.43-0.87,1.2-1.56,2.09-2.68c3.98,6.19,9.12,9.74,16.42,9.62
				c7.26-0.12,12.54-3.39,16.28-9.8c4.23,5.24,6.94,10.97,8.51,17.21c0.18,0.71-0.94,2.08-1.78,2.66
				c-7.48,5.13-14.28,10.96-19.56,18.41C177.27,167.88,176.19,169.61,175.04,171.37z M139.37,86.41c0.94,0.35,1.87,0.74,2.82,1.06
				c9.5,3.18,19.05,6.24,28.5,9.59c2.82,1,5.26,0.98,8.03-0.04c8.37-3.06,16.81-5.91,25.23-8.82c0.94-0.32,1.9-0.56,3.23-0.95
				c0,2.76-0.11,5.16,0.03,7.54c0.12,2.01-0.36,3.42-2.09,4.75c-1.02,0.78-1.66,2.66-1.66,4.04c0.01,2.36,0.78,4.71,1,7.08
				c0.29,3.07,1.18,4.24,3.64,4.27c2.71,0.03,3.86-1.36,4.11-4.47c0.17-2.17,0.87-4.31,0.98-6.48c0.07-1.36-0.07-3.26-0.92-4.02
				c-1.7-1.52-2-3.19-1.93-5.2c0.07-2.04-0.11-4.11,0.14-6.13c0.24-1.96-0.45-2.85-2.28-3.43c-10.61-3.37-21.19-6.83-31.8-10.21
				c-0.91-0.29-2.06-0.42-2.94-0.15c-11.42,3.59-22.8,7.28-34.2,10.94C139.3,86,139.34,86.2,139.37,86.41z M158.55,110.4
				c1.83,8.06,10.09,13.8,17.9,12.61c9.54-1.46,15.81-8.62,15.19-17.19c-0.15-2.06-0.73-2.58-2.75-1.76
				c-3.77,1.55-7.59,3.01-11.49,4.2c-1.55,0.47-3.48,0.51-5.03,0.03c-4.59-1.41-9.06-3.17-14.55-5.15
				C158.1,106.11,158.07,108.31,158.55,110.4z M158.04,99.28c4.9,1.7,9.75,3.58,14.66,5.24c1.07,0.36,2.45,0.45,3.5,0.1
				c5.19-1.72,10.32-3.64,15.47-5.46c1.53-0.54,2.07-1.39,0.97-3.18c-3.82,1.4-7.69,2.64-11.42,4.23
				c-4.47,1.91-8.73,1.88-13.18-0.06c-3.63-1.59-7.43-2.79-11.32-4.22C155.82,98.05,156.54,98.76,158.04,99.28z M174.2,19.32
				c-0.16,0.9-0.46,1.8-0.46,2.7c-0.01,6.11,0.03,12.21,0.06,18.32c0,0.37-0.08,0.81,0.08,1.09c0.28,0.49,0.73,0.89,1.11,1.32
				c0.34-0.43,0.91-0.84,0.98-1.31c0.19-1.37,0.26-2.77,0.24-4.15c-0.09-5.99-0.22-11.98-0.34-17.98
				C175.31,19.32,174.76,19.32,174.2,19.32z M271.87,121.46c-4.5,0.19-9,0.48-13.5,0.53c-2.58,0.03-5.18-0.25-7.75-0.53
				c-0.57-0.06-1.07-0.71-1.6-1.09c0.47-0.33,0.94-0.95,1.41-0.95c6.57-0.02,13.15,0.03,19.72,0.13c0.58,0.01,1.14,0.52,1.71,0.79
				C271.87,120.72,271.87,121.09,271.87,121.46z M111.48,77.99c-0.72,0.08-1.59,0.48-2.12,0.2c-5.99-3.09-11.95-6.25-17.85-9.5
				c-0.64-0.35-0.92-1.37-1.37-2.09c0.89-0.04,1.97-0.42,2.66-0.07c5.82,3.02,11.58,6.16,17.34,9.3c0.57,0.31,1.01,0.88,1.51,1.33
				C111.58,77.45,111.53,77.72,111.48,77.99z M259.83,67.3c-0.45,0.42-0.83,0.96-1.35,1.24c-5.79,3.12-11.6,6.23-17.44,9.24
				c-0.66,0.34-1.63,0.09-2.46,0.11c0.49-0.75,0.79-1.82,1.49-2.21c5.58-3.13,11.22-6.16,16.89-9.12c0.75-0.39,1.81-0.17,2.72-0.23
				C259.72,66.65,259.77,66.97,259.83,67.3z M89.77,119.51c3.06,0,6.11-0.05,9.17,0.04c0.6,0.02,1.18,0.57,1.78,0.87
				c-0.6,0.38-1.18,1.07-1.79,1.1c-6.19,0.25-12.39,0.45-18.59,0.5c-0.73,0.01-1.47-0.89-2.21-1.38c0.73-0.38,1.45-1.05,2.2-1.08
				C83.47,119.44,86.62,119.51,89.77,119.51z M127.24,31.93c0.35,0.53,0.73,1.05,1.06,1.59c3.27,5.37,6.57,10.73,9.74,16.16
				c0.4,0.68,0.09,1.76,0.11,2.66c-0.67-0.48-1.56-0.83-1.98-1.47c-3.34-5.22-6.63-10.47-9.81-15.78c-0.43-0.72-0.17-1.85-0.23-2.79
				C126.49,32.17,126.87,32.05,127.24,31.93z M224.34,33.43c-0.4,0.86-0.66,1.56-1.04,2.19c-3.13,5.14-6.25,10.29-9.46,15.39
				c-0.4,0.64-1.33,0.95-2.01,1.41c0.05-0.82-0.16-1.8,0.2-2.45c3.12-5.48,6.31-10.91,9.57-16.31c0.37-0.61,1.19-0.98,1.88-1.31
				C223.56,32.3,224.06,33.08,224.34,33.43z M148.58,24.66c0.48-0.61,0.88-1.11,1.27-1.61c0.43,0.41,1.11,0.75,1.25,1.24
				c1.81,6.3,3.57,12.63,5.26,18.97c0.15,0.56-0.31,1.29-0.49,1.94c-0.43-0.24-1.13-0.39-1.24-0.73
				C152.59,37.94,150.62,31.4,148.58,24.66z M194,45.57c-0.1-0.84-0.45-1.75-0.25-2.52c1.6-6.19,3.28-12.36,5.02-18.51
				c0.18-0.63,1-1.08,1.52-1.61c0.27,0.63,0.9,1.34,0.76,1.86c-1.84,6.94-3.79,13.86-5.71,20.78
				C194.89,45.57,194.44,45.57,194,45.57z M98.81,102.05c-5.28-0.58-10.71-1.13-16.12-1.82c-0.63-0.08-1.16-0.86-1.74-1.32
				c0.63-0.33,1.3-1,1.88-0.93c5.7,0.64,11.39,1.36,17.06,2.16c0.72,0.1,1.37,0.78,2.05,1.2c-0.71,0.24-1.42,0.5-2.14,0.71
				C99.54,102.11,99.24,102.05,98.81,102.05z M247.73,100.97c0.65-0.27,1.27-0.71,1.95-0.8c5.5-0.76,11-1.5,16.51-2.12
				c0.85-0.1,1.78,0.48,2.67,0.75c-0.84,0.5-1.63,1.34-2.52,1.46c-5.04,0.68-10.1,1.2-15.16,1.73c-1.06,0.11-2.13,0.02-3.2,0.02
				C247.89,101.66,247.81,101.31,247.73,100.97z M245.79,89.89c-0.47-0.22-0.92-0.44-1.38-0.66c0.3-0.49,0.49-1.25,0.91-1.41
				c4.51-1.69,9.04-3.31,13.6-4.85c0.41-0.14,1.06,0.44,1.6,0.68c-0.24,0.44-0.39,1.15-0.74,1.28
				C255.17,86.62,250.53,88.22,245.79,89.89z M105.83,89.44c-0.83,0.13-1.39,0.4-1.82,0.26c-4.58-1.5-9.15-3.03-13.69-4.66
				c-0.49-0.18-0.73-1.06-1.08-1.62c0.56-0.18,1.23-0.65,1.68-0.5c4.64,1.61,9.24,3.31,13.83,5.05
				C105.14,88.13,105.35,88.77,105.83,89.44z M181.1,43.74c-0.28-1.32-0.64-2.09-0.56-2.81c0.41-3.95,0.89-7.89,1.43-11.83
				c0.07-0.5,0.67-0.93,1.02-1.39c0.36,0.44,1.08,0.93,1.04,1.33c-0.45,4.5-1.02,8.99-1.6,13.47
				C182.4,42.78,181.94,42.98,181.1,43.74z M167.35,27.69c0.26,0.45,0.7,0.88,0.75,1.35c0.44,4.06,0.85,8.12,1.16,12.18
				c0.04,0.58-0.5,1.2-0.77,1.81c-0.4-0.52-1.07-0.99-1.15-1.55c-0.54-3.86-0.99-7.73-1.36-11.6c-0.07-0.71,0.37-1.46,0.57-2.19
				C166.82,27.69,167.08,27.69,167.35,27.69z M204.75,32.56c2.16,2.38-2.17,13.94-5.51,14.95
				C201.21,42.16,202.98,37.36,204.75,32.56z M118.69,47.92c0.65,0.39,1.43,0.65,1.92,1.18c2.37,2.62,4.7,5.27,6.93,8
				c0.42,0.51,0.34,1.42,0.5,2.15c-0.69-0.22-1.59-0.23-2.02-0.69c-2.37-2.49-4.66-5.05-6.9-7.66c-0.54-0.63-0.8-1.51-1.18-2.28
				C118.18,48.39,118.43,48.15,118.69,47.92z M132.44,56.43c-3.08-4.09-5.96-7.88-8.78-11.72c-0.17-0.24-0.03-0.97,0.21-1.18
				c0.26-0.22,1.07-0.28,1.21-0.09c2.81,3.76,5.58,7.55,8.29,11.38C133.47,54.96,132.97,55.53,132.44,56.43z M247.51,132.11
				c1.03,0.05,2.09-0.03,3.09,0.18c3.71,0.78,7.4,1.62,11.07,2.53c0.47,0.12,0.81,0.8,1.21,1.22c-0.49,0.31-1.06,0.98-1.45,0.89
				c-4.5-1.02-8.98-2.15-13.45-3.3c-0.27-0.07-0.45-0.51-0.67-0.78C247.38,132.61,247.44,132.36,247.51,132.11z M102.49,132.78
				c-0.6,0.45-1.14,1.13-1.81,1.31c-3.76,0.98-7.54,1.88-11.34,2.68c-0.66,0.14-1.44-0.33-2.16-0.52c0.51-0.51,0.95-1.32,1.55-1.47
				c4.42-1.09,8.88-2.05,13.33-3.06C102.2,132.07,102.35,132.43,102.49,132.78z M122.43,64.04c-2.99-2.86-6.01-5.68-8.92-8.62
				c-0.33-0.34-0.06-1.28-0.07-1.94c0.57,0.13,1.33,0.07,1.7,0.42c2.63,2.48,5.22,5,7.7,7.62c0.42,0.44,0.27,1.43,0.38,2.16
				C122.95,63.8,122.69,63.92,122.43,64.04z M217.38,55.91c-0.23-0.46-0.75-1.11-0.62-1.29c2.67-3.75,5.4-7.46,8.17-11.13
				c0.15-0.2,0.93-0.17,1.2,0.03c0.27,0.2,0.51,0.94,0.36,1.14c-2.69,3.63-5.44,7.21-8.19,10.79
				C218.14,55.64,217.81,55.69,217.38,55.91z M191.68,29.47c-0.33,2.03-0.63,4.06-1.01,6.08c-0.44,2.36-0.89,4.71-1.49,7.03
				c-0.13,0.52-0.91,0.88-1.39,1.31c-0.23-0.54-0.74-1.13-0.65-1.61c0.71-3.9,1.49-7.79,2.36-11.66c0.13-0.58,0.86-1.03,1.31-1.54
				C191.1,29.21,191.39,29.34,191.68,29.47z M221.85,59.65c0.2-0.77,0.17-1.73,0.63-2.28c2.36-2.86,4.82-5.65,7.33-8.38
				c0.37-0.4,1.22-0.37,1.84-0.54c-0.06,0.65,0.13,1.51-0.22,1.92c-2.81,3.3-5.71,6.51-8.59,9.75
				C222.51,59.96,222.18,59.8,221.85,59.65z M149.69,47.54c-0.55-0.51-1.07-0.78-1.25-1.2c-1.62-3.75-3.22-7.5-4.72-11.3
				c-0.2-0.51,0.22-1.26,0.35-1.9c0.47,0.17,1.26,0.23,1.38,0.54c1.63,4.3,3.18,8.64,4.72,12.98
				C150.21,46.78,150.01,46.98,149.69,47.54z M143.85,49.46c-0.26-0.02-0.69,0.04-0.76-0.08c-2.06-3.91-4.1-7.82-6.08-11.77
				c-0.13-0.25,0.18-0.96,0.47-1.11c0.29-0.15,1.05,0.02,1.17,0.26c2.08,4.03,4.09,8.1,6.12,12.16
				C144.46,49.11,144.15,49.28,143.85,49.46z M159.35,28.75c0.67,0.86,1.24,1.27,1.34,1.78c0.77,3.89,1.47,7.79,2.11,11.7
				c0.08,0.49-0.38,1.07-0.59,1.61c-0.46-0.34-1.24-0.61-1.33-1.02c-0.82-3.97-1.56-7.96-2.23-11.95
				C158.56,30.36,158.99,29.78,159.35,28.75z M226.59,63.56c0.3-0.71,0.42-1.58,0.91-2.1c2.34-2.48,4.73-4.91,7.21-7.26
				c0.46-0.43,1.39-0.37,2.1-0.53c-0.17,0.7-0.12,1.63-0.55,2.07c-2.53,2.55-5.18,4.99-7.8,7.45c-0.32,0.3-0.71,0.51-1.07,0.76
				C227.12,63.82,226.86,63.69,226.59,63.56z M242.41,60.3c-3.5,2.76-7.01,5.53-10.61,8.37c-0.77-2.18-0.83-2.36,3.18-5.3
				c2.16-1.59,3.81-4.48,6.89-4.33C242.05,59.46,242.23,59.88,242.41,60.3z M213.02,36.13c-0.05,0.85,0.15,1.81-0.18,2.53
				c-1.5,3.27-3.11,6.5-4.79,9.68c-0.3,0.57-1.16,0.86-1.76,1.28c-0.08-0.71-0.45-1.55-0.2-2.1c1.84-3.89,3.8-7.72,5.73-11.57
				C212.22,36.01,212.62,36.07,213.02,36.13z M119.35,67.81c-0.96,0.07-1.73,0.38-2.08,0.12c-3.01-2.27-5.98-4.61-8.88-7.03
				c-0.31-0.26-0.13-1.13-0.17-1.71c0.5,0,1.16-0.2,1.47,0.05c2.96,2.35,5.86,4.76,8.76,7.18C118.71,66.63,118.84,67,119.35,67.81z
				 M235.07,72.93c0.42-2.18,8.09-7.86,10.97-8.31C246.16,66.9,239.06,72.39,235.07,72.93z M114.86,72.7
				c-0.49,0.06-1.13,0.36-1.44,0.15c-3.18-2.07-6.33-4.2-9.43-6.39c-0.34-0.24-0.36-0.93-0.53-1.41c0.57-0.13,1.35-0.57,1.68-0.34
				c3.41,2.31,6.75,4.73,10.11,7.12C115.12,72.11,114.99,72.41,114.86,72.7z M253.66,78.54c-0.48,0.54-0.87,1.3-1.47,1.58
				c-2.78,1.26-5.59,2.43-8.44,3.5c-0.53,0.2-1.28-0.15-1.93-0.25c0.38-0.53,0.64-1.3,1.15-1.54c3.28-1.53,6.61-2.95,9.93-4.4
				C253.15,77.81,253.41,78.18,253.66,78.54z M103.43,96.18c-4.37-1.1-8.42-2.11-12.95-3.25C93.07,90.58,102.62,93.1,103.43,96.18z
				 M108.4,83.42c-0.59,0.25-1.16,0.72-1.48,0.59c-3.24-1.31-6.45-2.69-9.62-4.15c-0.4-0.19-0.52-1-0.77-1.52
				c0.47-0.15,1.06-0.57,1.4-0.42c3.28,1.42,6.53,2.93,9.76,4.45C107.97,82.5,108.09,82.94,108.4,83.42z M245.8,94.37
				c3.98-1.03,7.66-2.01,11.37-2.91c0.28-0.07,0.91,0.36,1,0.66c0.1,0.32-0.19,1.08-0.43,1.13c-3.67,0.83-7.36,1.59-11.05,2.32
				C246.58,95.6,246.39,95.18,245.8,94.37z M254.93,114.89c-1.39,0-2.79,0.09-4.17-0.05c-0.5-0.05-0.95-0.61-1.43-0.94
				c0.42-0.38,0.84-1.06,1.28-1.08c2.87-0.12,5.75-0.14,8.62-0.06c0.44,0.01,0.87,0.7,1.3,1.07c-0.48,0.34-0.93,0.92-1.44,0.97
				c-1.38,0.14-2.78,0.05-4.17,0.05C254.93,114.86,254.93,114.87,254.93,114.89z M94.69,114.85c-1.39,0-2.78,0.09-4.15-0.05
				c-0.46-0.05-0.86-0.67-1.28-1.03c0.44-0.35,0.88-1.01,1.33-1.01c2.95-0.04,5.91,0.03,8.87,0.16c0.37,0.02,0.71,0.61,1.07,0.94
				c-0.37,0.33-0.72,0.93-1.12,0.96C97.84,114.92,96.26,114.86,94.69,114.85z M260.29,128.07c-1.72,1.66-9.22,0.81-11.76-1.14
				C249.81,125.76,256.77,126.4,260.29,128.07z M89.31,106.55c0.44-0.23,0.89-0.68,1.32-0.66c3.04,0.1,6.08,0.26,9.12,0.5
				c0.43,0.03,0.82,0.56,1.23,0.86c-0.32,0.39-0.66,1.14-0.96,1.13c-3.56-0.14-7.12-0.4-10.68-0.63
				C89.33,107.35,89.32,106.95,89.31,106.55z M89.61,127.66c3.73-0.61,7.46-1.21,12.1-1.96c-0.76,1.14-1,1.94-1.4,2.02
				c-3.51,0.77-7.02,2.06-10.64,1.25C89.65,128.54,89.63,128.1,89.61,127.66z M260.42,107.62c-3.59,0.3-7.01,0.6-10.45,0.82
				c-0.32,0.02-0.77-0.43-0.97-0.78c-0.09-0.16,0.25-0.85,0.41-0.86c3.58-0.12,7.17-0.17,10.75-0.23
				C260.18,106.58,260.2,106.74,260.42,107.62z"/>
		</g>
		<text transform="matrix(1 0 0 1 53.2358 201.8593)" class="st7 st8 st9">Education</text>
	</g>
</g>
<g id="Logo5">
</g>
<g id="Logo6">
</g>
<g id="Logo7">
</g>
<g id="Logo8">
</g>
<g id="Logo9">
</g>
<g id="Logo10">
</g>
<g id="Logo11">
</g>
<g id="Logo12">
</g>
<g id="Layer_13">
</g>
<g id="Layer_14">
</g>
<g id="Layer_15">
</g>
</svg>
