<?xml version="1.0" encoding="utf-8"?>
<!-- Generator: Adobe Illustrator 27.8.1, SVG Export Plug-In . SVG Version: 6.00 Build 0)  -->
<svg version="1.1" xmlns="http://www.w3.org/2000/svg" xmlns:xlink="http://www.w3.org/1999/xlink" x="0px" y="0px"
	 viewBox="0 0 350 230" style="enable-background:new 0 0 350 230;" xml:space="preserve">
<style type="text/css">
	.st0{fill:#FF7F00;}
	.st1{fill:#893700;}
	.st2{fill:#29ABE2;}
	.st3{fill:#F2C0AA;}
	.st4{fill:#1C75BC;}
	.st5{fill:#FFC200;}
	.st6{fill:#911717;}
	.st7{fill:#C1272D;}
	.st8{fill:#F7931E;}
	.st9{fill:#2D828E;}
	.st10{fill:#93BC20;}
	.st11{fill:#CC781D;}
	.st12{fill:#FF5500;}
	.st13{fill:#C4C400;}
	.st14{fill:#017F6A;}
	.st15{fill:#0092FF;}
	.st16{fill:#09578C;}
	.st17{fill:#3B9FE2;}
	.st18{fill:#BE1E2D;}
	.st19{fill:#231F20;}
	.st20{fill:#FF9D00;}
	.st21{display:none;fill:#BE1E2D;}
	.st22{font-family:'NofexRegular';}
	.st23{font-size:35px;}
	.st24{fill:#F15A29;}
	.st25{fill:#00406B;}
</style>
<g id="Logo1">
</g>
<g id="Logo2">
</g>
<g id="Logo3">
</g>
<g id="Logo4">
</g>
<g id="Logo5">
</g>
<g id="Logo6">
</g>
<g id="Logo7">
</g>
<g id="Logo8">
</g>
<g id="Logo9">
</g>
<g id="Logo10">
</g>
<g id="Logo11">
</g>
<g id="Logo12">
</g>
<g id="Layer_13">
	<g>
		<g>
			<path class="st20" d="M259.12,88.77c1.76-4.34,1.95-7.74-3.44-9.77c5.19,0.64,8.06-0.99,8.33-6.37c1.02,4.7,3.09,7.42,8.47,6.18
				c-4.38,2.46-5.71,5.51-2.91,10.09C266.01,85.26,262.67,84.63,259.12,88.77z"/>
			<path class="st4" d="M197.63,123.98c-0.24-0.06-0.52-0.74-0.52-1.15c-0.01-1.77-0.01-3.57-0.01-5.36
				c-2.83,1.33-5.67,2.62-8.53,3.88c0-11.42,0.03-22.82-0.01-34.22c-0.01-4.72-3.2-7.87-7.94-7.88c-12.57-0.03-25.14-0.03-37.7,0
				c-4.86,0-8.02,3.23-8.04,8.12v35.54c3.29-0.24,6.35-0.54,9.4-0.67c1.33-0.06,1.67-0.52,1.66-1.8
				c-0.06-6.89-0.03-13.79-0.03-20.68v-2.21h2.04v24.22h27.59V97.56h2v6.58c0,5.53-0.01,11.04,0,16.55c0,0.65-0.18,1.42,0.91,1.49
				c2.32,0.16,4.66,0.33,7.06,0.51c-10.69,4.63-21.57,8.87-32.68,12.6c-17.02,5.68-34.27,10.49-52.59,9.07
				c-9.93-0.77-17.86-5.82-20.28-13.83c-0.85-2.85-1.03-5.91-1.53-8.89c-0.74,5.57-1.26,11.25-0.62,16.78
				c1.19,10.43,6.67,18.03,16.71,21.88c7.06,2.71,14.44,2.92,21.84,2.15c16-1.67,30.78-7.33,45.21-14.02
				c14.57-6.76,28.4-14.78,41.76-23.55C201.37,124.6,199.5,124.32,197.63,123.98z M230.43,105.09c-0.27,0.43-0.58,0.81-0.77,1.26
				c-0.01,0.01-0.01,0.04-0.03,0.07h0.01c0.38-0.28,0.77-0.57,1.15-0.86C230.68,105.4,230.55,105.26,230.43,105.09z M251.78,89.71
				c-0.18-0.24-0.37-0.47-0.55-0.69c-0.52,0.27-1.03,0.55-1.54,0.85c-3.22,1.86-6.45,3.67-9.68,5.48c0.09,0.41,0.11,0.82,0.11,1.26
				v1.93C244,95.59,247.88,92.63,251.78,89.71z"/>
			<path class="st18" d="M126.34,97.28c0-4.35-2.41-6.8-6.79-6.8c-9.85-0.01-19.71-0.01-29.58,0c-4.24,0-6.67,2.48-6.67,6.75
				c-0.01,11.66-0.01,23.33,0,34.99c0,0.5,0.04,1.01,0.09,1.67c2.55-0.79,4.89-1.6,7.28-2.25c1.12-0.31,1.49-0.82,1.49-2
				c-0.06-7.57-0.03-15.15-0.03-22.73c0-0.57,0.06-1.13,0.07-1.66c1.57-0.5,1.59,0.38,1.59,1.39c-0.01,7.37-0.01,14.74-0.01,22.11
				v1.74c0.43-0.03,0.64,0,0.84-0.06c6.72-1.53,13.42-3.12,20.14-4.61c1.12-0.24,1.13-0.85,1.12-1.7v-18.81
				c1.57-0.6,1.7,0.18,1.7,1.26c-0.01,6.14-0.01,12.29-0.01,18.71c2.54-0.38,4.82-0.84,7.13-1.05c1.39-0.13,1.7-0.68,1.69-1.98
				C126.32,113.92,126.34,105.6,126.34,97.28z M229.64,106.43c-2.88,2.13-5.74,4.24-8.66,6.32c-4.44,3.17-8.91,6.28-13.43,9.32
				c0,0.61,0,1.23-0.01,1.86c-0.01,1.23,0.33,1.73,1.59,2c6.42,1.39,12.8,2.92,19.2,4.38c0.38,0.09,0.78,0.1,1.32,0.17v-23.2
				C229.64,107,229.57,106.69,229.64,106.43z M234.12,90.49c-10.35-0.07-20.68-0.06-31.01,0c-3.37,0.03-5.97,2.54-5.99,5.8
				c-0.06,7.07-0.06,14.13-0.03,21.19c2.93-1.36,5.87-2.75,8.79-4.18c0-2.22,0-4.46,0.01-6.69c0-0.6-0.34-1.5,0.82-1.5
				c1.16,0,0.82,0.91,0.84,1.5c0,1.96,0.01,3.88,0.01,5.85c10.97-5.39,21.75-11.12,32.44-17.11
				C239.48,92.52,237.19,90.52,234.12,90.49z M205.88,125.27v-2.08c-0.85,0.58-1.7,1.15-2.57,1.7
				C204.15,125.01,205,125.14,205.88,125.27z M240.11,98.54c-3.1,2.35-6.18,4.7-9.31,7.01c0.18,0.23,0.35,0.45,0.47,0.71
				c0.14,0.31,0.03,0.74,0.03,1.11c0,7.41-0.01,14.84,0.03,22.26c0.01,0.58,0.3,1.52,0.68,1.66c2.58,0.94,5.22,1.7,8.05,2.59
				c0.03-0.5,0.07-0.75,0.07-1.02C240.13,121.43,240.14,109.98,240.11,98.54z"/>
			<path d="M183.48,46.36c-1.83,0.89-3.4,1.61-4.91,2.44c-0.32,0.18-0.6,0.79-0.58,1.18c0.1,1.54-0.93,1.92-2.08,2.32
				c-8.01,2.74-16.13,2.71-24.32,1.01c-1.86-0.39-3.71-0.87-5.54-1.41c-0.38-0.11-0.91-0.68-0.89-1.01c0.06-1.1-0.6-1.45-1.41-1.84
				c-2.8-1.37-5.58-2.78-8.61-4.3c0.93-0.56,1.63-1,2.35-1.41c7.57-4.38,15.15-8.73,22.7-13.14c0.92-0.54,1.63-0.6,2.6-0.03
				c7.64,4.47,15.32,8.87,22.98,13.3c0.44,0.25,0.85,0.54,1.34,0.86c-2.86,2.02-2.86,2.02-2.86,5.62c0,1.33-0.08,2.66,0.03,3.97
				c0.05,0.67,0.45,1.31,0.67,1.97c0.17,0.53,0.59,1.28,0.38,1.57c-1.05,1.44-0.32,2.86-0.16,4.28c0.08,0.68,0.3,1.36,0.32,2.04
				c0.01,0.61-0.08,1.7-0.3,1.75c-0.88,0.19-1.84,0.1-2.75-0.01c-0.14-0.02-0.33-0.71-0.28-1.06c0.18-1.31,0.46-2.61,0.69-3.91
				c0.18-0.97,0.46-1.9-0.34-2.83c-0.26-0.3,0.05-1.15,0.2-1.72c0.2-0.76,0.7-1.49,0.74-2.25
				C183.55,51.39,183.48,49.02,183.48,46.36z M152.68,73.7c6.56,4.26,15.16,3.33,20.74-2.14c5.07-4.97,5.96-13.14,3.73-17.09
				c-10.29,3.81-20.66,2.98-31.08,0.1C143.5,61.43,146.41,69.63,152.68,73.7z M235.22,71.94c-0.07,0.19-0.16,0.48-0.07,0.61
				c1.18,1.75,0.06,3.47-0.03,5.21c-0.03,0.52,0.03,1.4,0.29,1.5c0.58,0.22,1.37,0.22,1.96-0.01c0.27-0.1,0.35-0.96,0.33-1.47
				c-0.06-1.74-1.09-3.46-0.08-5.24c0.12-0.21-0.2-0.66-0.31-1c-0.2-0.62-0.52-1.24-0.57-1.87c-0.09-1.21,0.08-2.45-0.05-3.65
				c-0.18-1.72,0.23-2.99,2.01-3.54c0.06-0.02,0.08-0.17,0.16-0.36c-0.1-0.07-0.22-0.17-0.36-0.24c-6.42-3.71-12.84-7.44-19.29-11.1
				c-0.45-0.25-1.33-0.12-1.83,0.16c-3.98,2.22-7.92,4.52-11.86,6.8c-2.65,1.53-5.29,3.07-8.27,4.8c2.33,1.17,4.35,2.16,6.35,3.19
				c0.82,0.42,1.82,0.69,1.72,1.98c-0.02,0.2,0.45,0.57,0.76,0.66c7.84,2.22,15.71,3.02,23.63,0.38c1.1-0.37,2.14-0.68,1.99-2.19
				c-0.02-0.24,0.25-0.62,0.48-0.74c1.2-0.64,2.43-1.21,3.7-1.83C236.36,66.86,236.1,69.69,235.22,71.94z M121.46,71.94
				c-0.11,0.15-0.15,0.47-0.06,0.61c1.11,1.76,0.04,3.47-0.05,5.2c-0.03,0.52,0.02,1.39,0.27,1.49c0.58,0.23,1.37,0.24,1.95,0.01
				c0.28-0.11,0.38-0.96,0.36-1.47c-0.06-1.74-1.16-3.45-0.07-5.24c0.12-0.2-0.19-0.67-0.31-1.01c-0.2-0.57-0.51-1.12-0.57-1.7
				c-0.09-1-0.04-2.01-0.03-3.02c0.02-1.84-0.6-3.98,2.32-4.39c-0.3-0.33-0.39-0.48-0.51-0.55c-6.42-3.71-12.83-7.44-19.29-11.09
				c-0.46-0.26-1.34-0.18-1.84,0.1c-3.93,2.19-7.82,4.46-11.72,6.72c-2.74,1.58-5.47,3.18-8.44,4.9c2.11,1.07,3.95,1.98,5.77,2.94
				c1.01,0.53,2.43,0.69,2.34,2.38c-0.01,0.17,0.53,0.46,0.86,0.55c7.73,2.21,15.5,2.94,23.31,0.38c1.1-0.36,2.32-0.58,2.19-2.23
				c-0.02-0.28,0.42-0.72,0.75-0.9c1.07-0.58,2.18-1.08,3.77-1.85C121.86,66.76,123.27,69.49,121.46,71.94z M211.3,86.02
				c5.01,3.33,11.97,2.76,16.33-1.33c3.95-3.71,5.56-10.36,3.33-14.08c-8.23,3.03-16.52,2.37-24.89,0.08
				C203.95,76.13,206.23,82.66,211.3,86.02z M97.57,86.05c5.17,3.43,12.2,2.64,16.66-1.7c4.01-3.91,4.85-10.74,2.92-13.71
				c-8.22,3.01-16.5,2.35-24.84,0.06C90.15,76.09,92.49,82.68,97.57,86.05z"/>
		</g>
		<text transform="matrix(1 0 0 1 53.236 191.4114)" class="st21 st22 st23">education</text>
	</g>
</g>
<g id="Layer_14">
</g>
<g id="Layer_15">
</g>
</svg>
