<?xml version="1.0" encoding="utf-8"?>
<!-- Generator: Adobe Illustrator 27.8.1, SVG Export Plug-In . SVG Version: 6.00 Build 0)  -->
<svg version="1.1" id="Layer_1" xmlns="http://www.w3.org/2000/svg" xmlns:xlink="http://www.w3.org/1999/xlink" x="0px" y="0px"
	 viewBox="0 0 350 230" style="enable-background:new 0 0 350 230;" xml:space="preserve">
<style type="text/css">
	.st0{fill:#FFFFFF;}
	.st1{fill:#0B4EA8;}
	.st2{fill:#651500;}
	.st3{fill:#AAAAAA;}
	.st4{fill:#B2930F;}
	.st5{fill:none;stroke:#F6F4E8;stroke-miterlimit:10;stroke-dasharray:2.0034,2.0034;}
	.st6{fill:#9B0000;}
	.st7{fill:#BAB500;}
	.st8{fill:#243506;}
	.st9{fill:#F4551E;}
	.st10{fill:#20F298;}
	.st11{fill:#611D5C;}
	.st12{fill:#698C14;}
	.st13{fill:#DCC900;}
	.st14{fill:#52221F;}
	.st15{fill:#8A8AFF;stroke:#8A8AFF;stroke-width:2;stroke-linecap:round;stroke-linejoin:round;stroke-miterlimit:10;}
	.st16{fill:#550968;}
	.st17{fill:#000042;}
	.st18{fill:#873A06;}
	.st19{fill:#F90606;}
	.st20{fill:#006A72;}
	.st21{fill:#FF0000;}
	.st22{fill:#8A8AFF;}
	.st23{fill:#69A6FF;}
	.st24{fill:#FEBA2B;}
	.st25{fill:#00F47F;}
	.st26{fill:#756400;}
	.st27{fill:#FF9700;}
	.st28{fill:#FF5B00;}
	.st29{fill:#FC9500;}
	.st30{fill:#999999;}
	.st31{fill:#BCBCBC;}
	.st32{fill:#FFBD47;}
	.st33{fill:#F99300;}
	.st34{fill:#008480;}
	.st35{fill-rule:evenodd;clip-rule:evenodd;fill:#1B5376;}
	.st36{fill-rule:evenodd;clip-rule:evenodd;fill:#E2310E;}
	.st37{fill:#00393F;}
	.st38{fill:url(#SVGID_00000119112630070729377050000015774436351242862503_);}
	.st39{fill:#7F0000;}
</style>
<g id="OBJECTS">
	<path class="st23" d="M238,27.71c-0.11-0.04-0.2-0.08-0.31-0.12c-1.17-0.45-2.35-0.86-3.56-1.23c-5.07-1.63-10.4-2.71-15.9-3.17
		c-2.05-0.18-4.12-0.27-6.22-0.27c-7.47,0-14.69,1.13-21.48,3.22v-0.05l-78.39,9.56l50.93,6.21c-1.87,1.69-3.64,3.48-5.33,5.36v0.01
		l-77.94,9.5l66.32,8.09c-1.13,2.4-2.13,4.88-2.99,7.41l-77.86,9.5l74.18,9.04c-0.12,1.6-0.17,3.22-0.17,4.86
		c0,1.51,0.05,3.01,0.14,4.5l-43.42,8.75l46.89,9.45v0.01c6.41,19.52,20.85,35.38,39.42,43.68c0.02,0.01,0.04,0.02,0.06,0.02
		c1.13,0.51,2.28,0.99,3.44,1.43c0.04,0.01,0.08,0.04,0.13,0.05c0.04,0.01,0.08,0.04,0.13,0.05c4.53,1.74,9.28,3.03,14.2,3.82
		c3.82,0.61,7.74,0.94,11.73,0.94c40.15,0,72.71-32.55,72.71-72.71C284.72,64.63,265.33,38.17,238,27.71z M265.09,86.63
		c-0.4,2.71-1.11,5.34-2.11,7.87c-1.84,4.73-4.64,9.14-8.14,13.18c-6.62,7.69-15.74,14.04-25.51,18.7
		c-3.99,1.87-8.02,3.81-11.95,5.91c-9.84,5.22-19.07,11.37-25.69,19.44c-0.64,0.82-1.27,1.66-1.84,2.53
		c-0.1,0.13-0.19,0.27-0.28,0.4c-3.7,5.23-3.92,8.52-3.92,8.52s-0.46-3.01-0.23-7.63l15.47-32.96c4.88-4.21,11.27-7.85,19.61-10.4
		c25.17-7.7,36.3-16.5,41.11-22.11c2.84-3.3,3.5-5.48,3.56-5.67c0.01,0.11,0.04,0.77-0.05,1.88
		C265.12,86.41,265.11,86.52,265.09,86.63z"/>
	<path class="st24" d="M265.26,88.22v-3.81h-0.08c0.01,0.11,0.04,0.77-0.05,1.88c0,0.12-0.01,0.23-0.04,0.34
		c-0.4,2.71-1.11,5.34-2.11,7.87c-1.84,4.73-4.64,9.14-8.14,13.18l0.77,0.08l2.3,0.28l1.76,0.19l5.62,0.65L265.26,88.22z
		 M216.92,84.41l20.77-56.82l3-8.22l-6.56,6.99l-75.38,80.35h49.58l-2.29,4.87l-5.15,11.01c4.88-4.21,11.27-7.85,19.61-10.4
		c25.17-7.7,36.3-16.5,41.11-22.11c2.84-3.3,3.5-5.48,3.56-5.67H216.92z M191.7,151.72c-0.64,0.82-1.27,1.66-1.84,2.53
		c-0.1,0.13-0.19,0.27-0.28,0.4c-3.7,5.23-3.92,8.52-3.92,8.52s-0.46-3.01-0.23-7.63l-3.05,6.51l-4.62,9.85l39.62-39.62
		C207.55,137.5,198.32,143.65,191.7,151.72z"/>
	<path class="st25" d="M200.86,122.61c-12.16,10.45-14.96,24.27-15.42,32.78c0,0.05,0,0.11-0.01,0.16l15.47-32.96
		C200.89,122.59,200.87,122.6,200.86,122.61z M185.66,163.18c0,0,0.07,0.01,0.2,0.04c0.46-3.03,1.9-5.88,3.71-8.56
		C185.88,159.89,185.66,163.18,185.66,163.18z M185.66,163.18c0,0,0.07,0.01,0.2,0.04c0.46-3.03,1.9-5.88,3.71-8.56
		C185.88,159.89,185.66,163.18,185.66,163.18z M185.87,163.21c-0.02,0.08-0.04,0.18-0.05,0.28c-0.02,0.13-0.04,0.27-0.05,0.41
		c-0.01,0.11-0.02,0.23-0.04,0.34c0.04-0.14,0.08-0.29,0.13-0.43c0.02-0.08,0.05-0.18,0.08-0.27c0.02-0.1,0.06-0.2,0.11-0.3
		C185.98,163.22,185.92,163.21,185.87,163.21z M255.01,143.37c-0.95,1.1-1.93,2.15-2.94,3.13c-1.53,1.48-3.12,2.86-4.76,4.11
		c-0.55,0.42-1.11,0.83-1.66,1.22c-0.42,0.3-0.84,0.58-1.28,0.87c-0.86,0.57-1.72,1.1-2.59,1.62c-0.45,0.25-0.88,0.51-1.33,0.75
		c-1.17,0.65-2.36,1.25-3.58,1.82c-1.21,0.57-2.42,1.08-3.64,1.57c-1.84,0.74-3.7,1.37-5.54,1.93c-1.24,0.37-2.48,0.71-3.71,1.02
		c-7.21,1.8-14.3,2.52-20.37,2.7c-8.56,0.27-15.12-0.52-17.21-0.82c-0.13-0.01-0.24-0.04-0.33-0.05c-0.08-0.01-0.14-0.02-0.19-0.02
		c0.46-3.03,1.9-5.88,3.71-8.56c0.08-0.13,0.18-0.27,0.28-0.4c0.58-0.87,1.21-1.71,1.84-2.53c6.62-8.08,15.85-14.22,25.69-19.44
		c3.93-2.1,7.96-4.04,11.95-5.91c9.76-4.65,18.89-11.01,25.51-18.7c3.5-4.04,6.29-8.45,8.14-13.18c1-2.53,1.71-5.16,2.11-7.87
		c0.02-0.11,0.04-0.22,0.04-0.34c0.08-1.11,0.06-1.77,0.05-1.88h0.01c0,0.01,0.02,0.1,0.07,0.22
		C266.34,87.58,276.76,118.06,255.01,143.37z"/>
</g>
</svg>
