<?xml version="1.0" encoding="utf-8"?>
<!-- Generator: Adobe Illustrator 27.8.1, SVG Export Plug-In . SVG Version: 6.00 Build 0)  -->
<svg version="1.1" id="Layer_1" xmlns="http://www.w3.org/2000/svg" xmlns:xlink="http://www.w3.org/1999/xlink" x="0px" y="0px"
	 viewBox="0 0 350 230" style="enable-background:new 0 0 350 230;" xml:space="preserve">
<style type="text/css">
	.st0{fill:#FFFFFF;}
	.st1{fill:#0B4EA8;}
	.st2{fill:#651500;}
	.st3{fill:#AAAAAA;}
	.st4{fill:#B2930F;}
	.st5{fill:none;stroke:#F6F4E8;stroke-miterlimit:10;stroke-dasharray:2.0034,2.0034;}
	.st6{fill:#9B0000;}
	.st7{fill:#BAB500;}
	.st8{fill:#243506;}
	.st9{fill:#F4551E;}
	.st10{fill:#20F298;}
	.st11{fill:#611D5C;}
	.st12{fill:#698C14;}
	.st13{fill:#DCC900;}
	.st14{fill:#52221F;}
	.st15{fill:#8A8AFF;stroke:#8A8AFF;stroke-width:2;stroke-linecap:round;stroke-linejoin:round;stroke-miterlimit:10;}
	.st16{fill:#550968;}
	.st17{fill:#000042;}
	.st18{fill:#873A06;}
	.st19{fill:#F90606;}
	.st20{fill:#006A72;}
	.st21{fill:#FF0000;}
	.st22{fill:#8A8AFF;}
	.st23{fill:#69A6FF;}
	.st24{fill:#FEBA2B;}
	.st25{fill:#00F47F;}
	.st26{fill:#756400;}
	.st27{fill:#FF9700;}
	.st28{fill:#FF5B00;}
	.st29{fill:#FC9500;}
	.st30{fill:#999999;}
	.st31{fill:#BCBCBC;}
	.st32{fill:#FFBD47;}
	.st33{fill:#F99300;}
	.st34{fill:#008480;}
	.st35{fill-rule:evenodd;clip-rule:evenodd;fill:#1B5376;}
	.st36{fill-rule:evenodd;clip-rule:evenodd;fill:#E2310E;}
	.st37{fill:#00393F;}
	.st38{fill:url(#SVGID_00000121985024333409696690000007319831135647295622_);}
	.st39{fill:#7F0000;}
</style>
<g id="OBJECTS_00000101793525983869932430000010486535360780737187_">
	<path class="st26" d="M233.13,19.37h-29.2l-6.48,17.76l-7.5,20.48l-9.52,26.09h53.23l-18.05,18.05l-34.67,34.67l-2.5,2.5
		l-6.85,6.85l-11.17,11.17l-10.61,10.61c7.71,2.76,15.99,4.3,24.62,4.35c42.1,0.31,76.34-33.73,76.34-75.76V37.02
		C250.76,27.27,242.88,19.37,233.13,19.37z M116.87,19.37c-9.75,0-17.63,7.9-17.63,17.65V95.2c0,31,18.4,58.07,44.97,70.1
		l5.59-11.92l9.24-19.73l11.9-25.38h-54.6l18.23-19.43l30.88-32.93l6.12-6.52l6.85-7.31l7.64-8.13l13.68-14.59H116.87z"/>
	<path class="st27" d="M122.97,60.58l18.96,10.94c5.66-7.69,13.93-13.32,23.52-15.61l6.12-6.52V33.09
		C151.35,34.17,133.69,44.81,122.97,60.58z M116.35,108.27l18.23-19.43c0.68-4.05,1.97-7.92,3.77-11.46l-18.91-10.91
		c-4.63,8.76-7.27,18.75-7.27,29.36c0,9.82,2.25,19.14,6.29,27.42l18.96-10.94c-0.58-1.31-1.08-2.66-1.54-4.04H116.35z"/>
	<path class="st28" d="M160.41,156.94c3.62,0.87,7.34,1.42,11.17,1.63v-12.79L160.41,156.94z M140.69,118.34l-18.89,10.91
		c6.68,10.61,16.43,19.07,28,24.13l9.24-19.73C151.53,130.46,145.13,125.1,140.69,118.34z M209.31,118.34
		c-6.31,9.59-16.53,16.38-28.38,18.09l-2.5,2.5v19.64c20.99-1.14,39.22-12.57,49.77-29.33L209.31,118.34z M230.56,66.47
		l-18.91,10.91c1.01,2.03,1.87,4.12,2.55,6.33h19.45l-18.05,18.05c-0.52,3.7-1.57,7.24-3.02,10.56l18.96,10.94
		c4.04-8.28,6.29-17.6,6.29-27.42C237.83,85.22,235.19,75.22,230.56,66.47z M178.43,33.09v9l7.64-8.13
		C183.56,33.52,181.01,33.23,178.43,33.09z M197.44,37.12l-7.5,20.48c7.29,2.85,13.56,7.71,18.12,13.91l18.96-10.94
		C219.84,50.02,209.55,41.75,197.44,37.12z"/>
</g>
</svg>
