<?xml version="1.0" encoding="utf-8"?>
<!-- Generator: Adobe Illustrator 27.8.1, SVG Export Plug-In . SVG Version: 6.00 Build 0)  -->
<svg version="1.1" id="Layer_1" xmlns="http://www.w3.org/2000/svg" xmlns:xlink="http://www.w3.org/1999/xlink" x="0px" y="0px"
	 viewBox="0 0 350 230" style="enable-background:new 0 0 350 230;" xml:space="preserve">
<style type="text/css">
	.st0{fill:#FFFFFF;}
	.st1{fill:#0B4EA8;}
	.st2{fill:#651500;}
	.st3{fill:#AAAAAA;}
	.st4{fill:#B2930F;}
	.st5{fill:none;stroke:#F6F4E8;stroke-miterlimit:10;stroke-dasharray:2.0034,2.0034;}
	.st6{fill:#9B0000;}
	.st7{fill:#BAB500;}
	.st8{fill:#243506;}
	.st9{fill:#F4551E;}
	.st10{fill:#20F298;}
	.st11{fill:#611D5C;}
	.st12{fill:#698C14;}
	.st13{fill:#DCC900;}
	.st14{fill:#52221F;}
	.st15{fill:#8A8AFF;stroke:#8A8AFF;stroke-width:2;stroke-linecap:round;stroke-linejoin:round;stroke-miterlimit:10;}
	.st16{fill:#550968;}
	.st17{fill:#000042;}
	.st18{fill:#873A06;}
	.st19{fill:#F90606;}
	.st20{fill:#006A72;}
	.st21{fill:#FF0000;}
	.st22{fill:#8A8AFF;}
	.st23{fill:#69A6FF;}
	.st24{fill:#FEBA2B;}
	.st25{fill:#00F47F;}
	.st26{fill:#756400;}
	.st27{fill:#FF9700;}
	.st28{fill:#FF5B00;}
	.st29{fill:#FC9500;}
	.st30{fill:#999999;}
	.st31{fill:#BCBCBC;}
	.st32{fill:#FFBD47;}
	.st33{fill:#F99300;}
	.st34{fill:#008480;}
	.st35{fill-rule:evenodd;clip-rule:evenodd;fill:#1B5376;}
	.st36{fill-rule:evenodd;clip-rule:evenodd;fill:#E2310E;}
	.st37{fill:#00393F;}
	.st38{fill:url(#SVGID_00000075153915226344867190000009904026879436726699_);}
	.st39{fill:#7F0000;}
</style>
<g>
	<path class="st33" d="M146.13,53.14l4.43,6.75l-0.77,0.51l-4.57-6.65C145.52,53.54,145.83,53.34,146.13,53.14z M152.02,49.79
		l3.52,7.26c0.28-0.13,0.55-0.26,0.83-0.39l-3.36-7.34C152.68,49.48,152.35,49.63,152.02,49.79z M148.56,51.64l4.05,6.98l0.82-0.46
		l-3.93-7.05L148.56,51.64z M142.07,56.09l5.05,6.3l0.73-0.57l-4.91-6.4C142.64,55.64,142.35,55.86,142.07,56.09z M170.93,44.69
		l0.61,8.05l0.92-0.06l-0.45-8.06C171.65,44.63,171.29,44.66,170.93,44.69z M167.02,45.13l1.21,7.98l0.93-0.13l-1.06-8L167.02,45.13
		z M175,52.6l0.81,0.01l0.14-8.07l-1.08-0.01L175,52.6z M163.14,45.87l1.82,7.86c0.3-0.07,0.6-0.13,0.9-0.2l-1.65-7.9
		C163.85,45.71,163.49,45.79,163.14,45.87z M155.62,48.21l2.97,7.5c0.28-0.11,0.57-0.22,0.85-0.33l-2.79-7.57
		C156.31,47.94,155.96,48.08,155.62,48.21z M159.34,46.9l2.39,7.71l0.9-0.27l-2.25-7.75L159.34,46.9z M133.76,80.14l-7.45-3.1
		c-0.14,0.34-0.28,0.68-0.41,1.02l7.52,2.94C133.52,80.71,133.64,80.43,133.76,80.14z M135.16,77.09l-7.21-3.62l-0.48,0.97l7.27,3.5
		L135.16,77.09z M132.6,83.27l-7.67-2.52c-0.11,0.35-0.22,0.69-0.33,1.04l7.71,2.37L132.6,83.27z M178.22,52.72l0.93,0.07l0.73-8.04
		c-0.36-0.03-0.73-0.06-1.09-0.09L178.22,52.72z M131.68,86.48l-7.83-1.94c-0.09,0.35-0.17,0.71-0.25,1.07l7.87,1.77
		C131.53,87.08,131.6,86.78,131.68,86.48z M136.78,74.18l-6.91-4.17c-0.19,0.31-0.37,0.63-0.56,0.94l6.99,4.03L136.78,74.18z
		 M136.31,61.45l5.93,5.48c0.21-0.22,0.42-0.45,0.63-0.67l-5.8-5.61C136.81,60.92,136.56,61.18,136.31,61.45z M133.74,64.44
		l6.32,5.02c0.19-0.24,0.38-0.48,0.58-0.71l-6.2-5.16C134.2,63.87,133.97,64.15,133.74,64.44z M139.09,58.66l5.5,5.9l0.69-0.63
		l-5.39-6C139.62,58.17,139.35,58.42,139.09,58.66z M138.61,71.39l-6.58-4.67c-0.21,0.3-0.42,0.59-0.62,0.89l6.67,4.55L138.61,71.39
		z M219.24,91.32l8-1.04c-0.05-0.37-0.1-0.73-0.16-1.1l-7.97,1.23C219.16,90.72,219.2,91.02,219.24,91.32z M214.05,75.61l7.05-3.93
		c-0.18-0.32-0.35-0.63-0.54-0.95l-6.97,4.06L214.05,75.61z M215.55,78.56l7.34-3.36c-0.15-0.33-0.31-0.66-0.46-0.99l-7.27,3.51
		L215.55,78.56z M216.83,81.65l7.56-2.82c-0.13-0.34-0.26-0.68-0.39-1.02l-7.5,2.97L216.83,81.65z M209.82,69.31
		c0.19,0.24,0.38,0.48,0.57,0.72l6.4-4.91c-0.22-0.29-0.45-0.58-0.68-0.87L209.82,69.31z M212.33,72.75l6.74-4.43
		c-0.2-0.31-0.41-0.61-0.61-0.91l-6.64,4.58C211.99,72.25,212.16,72.5,212.33,72.75z M217.88,84.82l7.75-2.27l-0.31-1.04l-7.7,2.41
		L217.88,84.82z M219.56,94.69l8.05-0.52l-0.07-1.06l-8.05,0.61L219.56,94.69z M131,89.74l-7.96-1.35
		c-0.06,0.36-0.12,0.72-0.17,1.08l7.98,1.18L131,89.74z M218.68,88.05l7.9-1.65l-0.23-1.06l-7.87,1.79L218.68,88.05z M197.74,49.68
		l-3.48,7.28c0.27,0.13,0.55,0.26,0.81,0.4l3.66-7.19C198.41,50,198.07,49.84,197.74,49.68z M190.39,46.81l-2.35,7.72l0.88,0.28
		l2.52-7.67C191.09,47.03,190.74,46.92,190.39,46.81z M194.12,48.11l-2.94,7.52l0.87,0.35l3.07-7.46L194.12,48.11z M181.53,53.08
		l0.92,0.14l1.33-7.96l-1.07-0.17L181.53,53.08z M184.81,53.68l0.9,0.21l1.93-7.83c-0.35-0.09-0.71-0.17-1.07-0.25L184.81,53.68z
		 M201.23,51.52l-4.01,7c0.26,0.15,0.53,0.31,0.79,0.46l4.18-6.9C201.87,51.89,201.55,51.7,201.23,51.52z M207.75,55.94l-5.02,6.32
		l0.73,0.59l5.14-6.22C208.32,56.4,208.04,56.17,207.75,55.94z M213.53,61.28l-5.89,5.51c0.21,0.22,0.42,0.45,0.62,0.68l6.02-5.38
		C214.03,61.82,213.78,61.55,213.53,61.28z M210.74,58.5l-5.46,5.94c0.22,0.21,0.45,0.42,0.67,0.63l5.6-5.81
		C211.28,59,211.01,58.75,210.74,58.5z M204.57,53.61l-4.52,6.68c0.25,0.17,0.5,0.34,0.74,0.52l4.7-6.56
		C205.19,54.03,204.88,53.81,204.57,53.61z M219.43,101.49l8.03,0.76l0.09-1.08l-8.05-0.61L219.43,101.49z M130.57,93.04l-8.04-0.73
		l-0.09,1.08l8.05,0.59L130.57,93.04z M217.38,111.27l7.66,2.54c0.11-0.35,0.22-0.69,0.33-1.04l-7.71-2.39L217.38,111.27z
		 M218.99,104.79l7.95,1.37c0.06-0.36,0.12-0.73,0.18-1.09l-7.98-1.18C219.09,104.19,219.04,104.49,218.99,104.79z M219.62,98.17
		l8.07,0.14l0.01-1.26l-8.07,0.18L219.62,98.17z M216.21,114.39l7.45,3.11c0.14-0.34,0.28-0.68,0.41-1.02l-7.51-2.96L216.21,114.39z
		 M218.3,108.07l7.83,1.94c0.09-0.35,0.17-0.7,0.25-1.06l-7.87-1.79L218.3,108.07z M211.34,123.14l6.57,4.68l0.62-0.89l-6.65-4.56
		L211.34,123.14z M209.3,125.78l6.21,5.15l0.68-0.83l-6.3-5.05L209.3,125.78z M213.19,120.34l6.89,4.2
		c0.19-0.31,0.38-0.63,0.56-0.95l-6.98-4.04C213.5,119.81,213.35,120.08,213.19,120.34z M214.81,117.43l7.19,3.66
		c0.17-0.32,0.33-0.65,0.48-0.98l-7.26-3.52L214.81,117.43z M134.41,115.81l-7.33,3.38l0.46,0.97l7.27-3.5L134.41,115.81z
		 M133.14,112.74l-7.57,2.8c0.13,0.34,0.26,0.68,0.39,1.02l7.51-2.95L133.14,112.74z M132.1,109.58l-7.76,2.22
		c0.1,0.35,0.21,0.7,0.31,1.05l7.71-2.39C132.27,110.17,132.19,109.87,132.1,109.58z M135.91,118.79l-7.06,3.9
		c0.18,0.32,0.36,0.64,0.54,0.95l6.98-4.05L135.91,118.79z M137.64,121.64l-6.76,4.41c0.2,0.31,0.4,0.61,0.61,0.91l6.66-4.56
		C137.97,122.15,137.8,121.9,137.64,121.64z M130.38,96.39l-8.07-0.16l-0.01,1.09l8.07-0.09L130.38,96.39z M130.44,99.72l-8.06,0.45
		c0.02,0.37,0.04,0.73,0.07,1.09l8.05-0.61L130.44,99.72z M133.16,129.27c0.22,0.29,0.44,0.57,0.67,0.85l6.31-5.03l-0.58-0.74
		L133.16,129.27z M130.75,103.05l-8,1.04c0.05,0.36,0.1,0.72,0.15,1.08l7.98-1.2L130.75,103.05z M131.3,106.33l-7.9,1.64
		c0.07,0.36,0.15,0.71,0.23,1.06l7.87-1.79L131.3,106.33z"/>
	<path class="st34" d="M245.47,108.92c0.63-3.81,0.97-7.71,0.97-11.69c0-3.98-0.34-7.89-0.97-11.69l8.42-2.74
		c-0.66-3.46-1.51-6.91-2.63-10.35c-1.12-3.44-2.46-6.73-3.95-9.92l-8.42,2.74c-3.53-7.05-8.19-13.44-13.75-18.92l5.21-7.17
		c-2.57-2.41-5.29-4.7-8.21-6.83c-2.92-2.12-5.94-4-9.03-5.7l-5.21,7.17c-6.84-3.56-14.33-6.05-22.24-7.24v-8.85
		c-3.49-0.44-7.04-0.7-10.66-0.7s-7.16,0.25-10.66,0.7v8.85c-7.92,1.18-15.4,3.68-22.24,7.24l-5.21-7.17
		c-3.09,1.69-6.11,3.58-9.03,5.7c-2.92,2.12-5.65,4.42-8.21,6.83l5.21,7.17c-5.56,5.48-10.22,11.87-13.75,18.92l-8.42-2.74
		c-1.5,3.18-2.84,6.48-3.95,9.92c-1.12,3.44-1.97,6.89-2.63,10.35l8.42,2.74c-0.63,3.81-0.97,7.71-0.97,11.69
		c0,3.98,0.34,7.89,0.97,11.69l-8.42,2.74c0.66,3.46,1.51,6.91,2.63,10.35c1.12,3.44,2.45,6.73,3.95,9.92l8.42-2.74
		c3.53,7.05,8.19,13.44,13.75,18.92l-5.21,7.17c2.57,2.41,5.29,4.7,8.21,6.83c2.92,2.12,5.94,4.01,9.03,5.7l5.21-7.17
		c5.81,3.02,12.08,5.26,18.68,6.6v-19.4c-2.76-0.78-4.78-3.31-4.78-6.32c0-3.62,2.95-6.57,6.57-6.57c3.62,0,6.57,2.95,6.57,6.57
		c0,3-2.03,5.54-4.78,6.32v28.88c2.91,0.37,5.87,0.6,8.86,0.66v-56.71c-2.76-0.78-4.79-3.31-4.79-6.32c0-3.62,2.95-6.57,6.57-6.57
		c3.62,0,6.57,2.95,6.57,6.57c0,3-2.03,5.54-4.78,6.32v56.71c2.99-0.07,5.94-0.29,8.84-0.66v-40.05c-2.76-0.78-4.78-3.31-4.78-6.32
		c0-3.62,2.95-6.57,6.57-6.57s6.57,2.95,6.57,6.57c0,3-2.03,5.54-4.78,6.32v30.56c6.61-1.34,12.89-3.58,18.7-6.6l5.21,7.17
		c3.09-1.69,6.11-3.58,9.03-5.7c2.92-2.12,5.65-4.42,8.21-6.83l-5.21-7.17c5.56-5.48,10.22-11.86,13.75-18.91l8.42,2.74
		c1.5-3.18,2.84-6.48,3.95-9.92c1.12-3.44,1.97-6.89,2.63-10.35L245.47,108.92z M202.57,148.47v-58.6l-12.72,4.41V67.15h-4.23v28.59
		l-5.3,1.84V67.15h-4.23v22.72l-29.67,10.28v47.76c-17.67-9.99-29.6-28.93-29.6-50.67c0-32.13,26.05-58.18,58.18-58.18
		c32.13,0,58.18,26.05,58.18,58.18C233.18,119.39,220.8,138.65,202.57,148.47z"/>
	<path class="st33" d="M162.57,144.53c-1.65,0-3-1.35-3-3c0-1.65,1.35-3,3-3c1.65,0,3,1.35,3,3
		C165.57,143.18,164.22,144.53,162.57,144.53z M178,114.36c0-1.65-1.35-3-3-3c-1.66,0-3,1.35-3,3s1.35,3,3,3
		C176.65,117.36,178,116.01,178,114.36z M190.41,130.36c0-1.65-1.35-3-3-3c-1.65,0-3,1.35-3,3s1.35,3,3,3
		C189.07,133.36,190.41,132.02,190.41,130.36z"/>
</g>
</svg>
