<?xml version="1.0" encoding="utf-8"?>
<!-- Generator: Adobe Illustrator 27.8.1, SVG Export Plug-In . SVG Version: 6.00 Build 0)  -->
<svg version="1.1" id="Layer_1" xmlns="http://www.w3.org/2000/svg" xmlns:xlink="http://www.w3.org/1999/xlink" x="0px" y="0px"
	 viewBox="0 0 350 230" style="enable-background:new 0 0 350 230;" xml:space="preserve">
<style type="text/css">
	.st0{fill:#FFFFFF;}
	.st1{fill:#0B4EA8;}
	.st2{fill:#651500;}
	.st3{fill:#AAAAAA;}
	.st4{fill:#B2930F;}
	.st5{fill:none;stroke:#F6F4E8;stroke-miterlimit:10;stroke-dasharray:2.0034,2.0034;}
	.st6{fill:#9B0000;}
	.st7{fill:#BAB500;}
	.st8{fill:#243506;}
	.st9{fill:#F4551E;}
	.st10{fill:#20F298;}
	.st11{fill:#611D5C;}
	.st12{fill:#698C14;}
	.st13{fill:#DCC900;}
	.st14{fill:#52221F;}
	.st15{fill:#8A8AFF;stroke:#8A8AFF;stroke-width:2;stroke-linecap:round;stroke-linejoin:round;stroke-miterlimit:10;}
	.st16{fill:#550968;}
	.st17{fill:#000042;}
	.st18{fill:#873A06;}
	.st19{fill:#F90606;}
	.st20{fill:#006A72;}
	.st21{fill:#FF0000;}
	.st22{fill:#8A8AFF;}
	.st23{fill:#69A6FF;}
	.st24{fill:#FEBA2B;}
	.st25{fill:#00F47F;}
	.st26{fill:#756400;}
	.st27{fill:#FF9700;}
	.st28{fill:#FF5B00;}
	.st29{fill:#FC9500;}
	.st30{fill:#999999;}
	.st31{fill:#BCBCBC;}
	.st32{fill:#FFBD47;}
	.st33{fill:#F99300;}
	.st34{fill:#008480;}
	.st35{fill-rule:evenodd;clip-rule:evenodd;fill:#1B5376;}
	.st36{fill-rule:evenodd;clip-rule:evenodd;fill:#E2310E;}
	.st37{fill:#00393F;}
	.st38{fill:url(#SVGID_00000023986094586746767560000015373882246723091355_);}
	.st39{fill:#7F0000;}
</style>
<g id="XMLID_7416_">
	<path class="st17" d="M230.6,84.21c0-3.66,5.75-7.18,10.59-8.63c-1.11-6.3-3.1-12.3-5.84-17.86c-4.78,1.7-11.82,2.48-13.76-0.88
		c-1.83-3.16,1.38-9.09,4.84-12.76c-4.05-4.8-8.76-9.04-13.99-12.55c-3.3,3.86-8.99,8.05-12.36,6.11c-1.04-0.6-1.76-1.73-2.21-3.16
		l-7.39,10.86c7.67,2.83,14.36,7.7,19.4,13.95h1.03l-0.54,0.61c5.9,7.58,9.41,17.11,9.41,27.47c0,24.73-20.05,44.77-44.77,44.77
		c-0.46,0-0.91-0.01-1.37-0.02l3.12-5.33c20.98-0.92,37.72-18.21,37.72-39.42c0-8.78-2.87-16.88-7.71-23.44l-1.98,2.22
		c4.28,5.99,6.8,13.32,6.8,21.22c0,18.98-14.54,34.63-33.06,36.4l18.55-31.7l-25.25,31.73c-0.03,0-0.07,0-0.1-0.01l-2.09,2.67
		c0.02,0,0.04,0.01,0.06,0.01l-18.63,23.4l1.03,0.7c5.8,2.1,11.98,3.43,18.4,3.86c0.93-4.99,3.76-11.47,7.64-11.47
		c3.66,0,7.18,5.75,8.63,10.59c6.3-1.11,12.3-3.1,17.87-5.84c-1.7-4.78-2.48-11.82,0.88-13.76c3.16-1.83,9.08,1.38,12.76,4.85
		c4.81-4.04,9.04-8.76,12.55-13.99c-3.86-3.3-8.05-9-6.11-12.36c1.83-3.17,8.58-3.34,13.49-2.18c2.1-5.8,3.43-11.98,3.86-18.4
		C237.08,90.93,230.6,88.09,230.6,84.21z"/>
	<path id="XMLID_7417_" class="st18" d="M175.46,60.46l29.69-43.66h-31.44l-6.04,12.65c-1.95-2.12-3.58-5.36-4.45-8.28
		c-6.3,1.11-12.3,3.1-17.87,5.84c1.7,4.79,2.48,11.82-0.88,13.76c-3.16,1.83-9.08-1.38-12.76-4.84c-4.8,4.04-9.04,8.75-12.55,13.98
		c3.86,3.3,8.05,9,6.11,12.36c-1.83,3.17-8.57,3.34-13.49,2.18c-2.1,5.8-3.43,11.98-3.86,18.4c4.99,0.92,11.46,3.76,11.46,7.64
		c0,3.66-5.75,7.18-10.59,8.63c1.11,6.3,3.1,12.3,5.84,17.86c4.78-1.7,11.82-2.48,13.76,0.88c1.83,3.16-1.38,9.08-4.84,12.76
		c4.05,4.81,8.76,9.04,13.99,12.55c2.41-2.81,6.08-5.8,9.2-6.46l-14.97,32.02l57.44-73.55h-15.33l31.05-34.74L175.46,60.46
		L175.46,60.46z M130.23,87.35c0-19.54,12.52-36.16,29.98-42.27l-3.48,7.28c-12.6,6.59-21.19,19.78-21.19,34.99
		c0,14.15,7.45,26.56,18.64,33.52l-2.26,4.84C138.92,117.88,130.23,103.63,130.23,87.35z M158.19,112.27l-2.78,5.95
		c-10.2-6.5-16.99-17.91-16.99-30.87c0-12.56,6.37-23.66,16.04-30.25l-9.66,20.24h24.26l-19.79,34.93L158.19,112.27L158.19,112.27z"
		/>
</g>
</svg>
