<?xml version="1.0" encoding="utf-8"?>
<!-- Generator: Adobe Illustrator 27.8.1, SVG Export Plug-In . SVG Version: 6.00 Build 0)  -->
<svg version="1.1" id="Layer_1" xmlns="http://www.w3.org/2000/svg" xmlns:xlink="http://www.w3.org/1999/xlink" x="0px" y="0px"
	 viewBox="0 0 350 230" style="enable-background:new 0 0 350 230;" xml:space="preserve">
<style type="text/css">
	.st0{fill:#FFFFFF;}
	.st1{fill:#0B4EA8;}
	.st2{fill:#651500;}
	.st3{fill:#AAAAAA;}
	.st4{fill:#B2930F;}
	.st5{fill:none;stroke:#F6F4E8;stroke-miterlimit:10;stroke-dasharray:2.0034,2.0034;}
	.st6{fill:#9B0000;}
	.st7{fill:#BAB500;}
	.st8{fill:#243506;}
	.st9{fill:#F4551E;}
	.st10{fill:#20F298;}
	.st11{fill:#611D5C;}
	.st12{fill:#698C14;}
	.st13{fill:#DCC900;}
	.st14{fill:#52221F;}
	.st15{fill:#8A8AFF;stroke:#8A8AFF;stroke-width:2;stroke-linecap:round;stroke-linejoin:round;stroke-miterlimit:10;}
	.st16{fill:#550968;}
	.st17{fill:#000042;}
	.st18{fill:#873A06;}
	.st19{fill:#F90606;}
	.st20{fill:#006A72;}
	.st21{fill:#FF0000;}
	.st22{fill:#8A8AFF;}
	.st23{fill:#69A6FF;}
	.st24{fill:#FEBA2B;}
	.st25{fill:#00F47F;}
	.st26{fill:#756400;}
	.st27{fill:#FF9700;}
	.st28{fill:#FF5B00;}
	.st29{fill:#FC9500;}
	.st30{fill:#999999;}
	.st31{fill:#BCBCBC;}
	.st32{fill:#FFBD47;}
	.st33{fill:#F99300;}
	.st34{fill:#008480;}
	.st35{fill-rule:evenodd;clip-rule:evenodd;fill:#1B5376;}
	.st36{fill-rule:evenodd;clip-rule:evenodd;fill:#E2310E;}
	.st37{fill:#00393F;}
	.st38{fill:url(#SVGID_00000003071653953715439790000005611530153200332167_);}
	.st39{fill:#7F0000;}
</style>
<g>
	<g>
		<path class="st1" d="M308.59,128.5c0,3.34,0.3,6.52-0.06,9.62c-0.69,5.97-6.09,11.1-12.16,11.57c-3.22,0.25-5.33,1.2-6.31,4.58
			c-0.78,2.7-3.01,4.4-5.55,5.68c-0.64,0.32-1.28,1.34-1.32,2.07c-0.16,2.7-0.06,5.41-0.06,8.36c0.94,0.05,1.72,0.11,2.49,0.11
			c10.73,0.01,21.46,0.01,32.18,0.01c12.98-0.01,23.8,9.62,24.85,22.14c1.13,13.44-7.4,25.07-20.67,26.79
			c-9.53,1.23-19.28,1.48-28.09-3.8c-10.67-6.4-16.26-15.81-16.56-28.29c-0.07-3.08-0.07-6.17,0.01-9.26
			c0.04-1.36-0.47-1.78-1.79-1.78c-9.77,0.04-19.55,0.04-29.32,0c-1.3-0.01-1.7,0.58-2.1,1.7c-1.99,5.57-7.15,9.21-12.43,8.8
			c-0.08-0.97-0.17-1.96-0.28-3.23c-3.22,0-6.36,0-9.49,0c-0.73,0-1.47,0.03-2.2-0.01c-1.99-0.11-3.14-1.2-3.16-2.94
			c-0.01-1.75,1.13-2.93,3.11-2.98c3.08-0.08,6.17-0.02,9.26-0.03c0.79,0,1.57,0,2.5,0c0-2.86,0-5.47,0-8.43c-3.04,0-6.03,0-9.01,0
			c-0.96,0-1.91,0.02-2.87-0.02c-1.81-0.07-2.9-0.98-2.98-2.84c-0.08-1.79,1.05-2.94,3.05-2.99c3.23-0.07,6.47-0.02,9.7-0.03
			c0.65,0,1.29-0.07,2.06-0.12c0.12-0.95,0.22-1.8,0.36-2.94c3.81-0.01,6.99,1.41,9.47,4.18c1.19,1.34,1.87,3.13,2.94,4.6
			c0.46,0.64,1.31,1.4,1.98,1.41c9.92,0.09,19.84,0.06,29.76,0.05c0.36,0,0.72-0.08,1.4-0.15c0-3.07,0.05-6.13-0.06-9.18
			c-0.02-0.44-0.76-0.99-1.28-1.24c-3.04-1.42-5.07-3.66-6.06-6.88c-0.61-1.97-1.98-2.96-4.06-3.15
			c-9.19-0.82-14.14-6.27-14.14-15.51c0-1.9,0-3.8,0-5.88C270.76,128.5,289.6,128.5,308.59,128.5z M301.92,176.32
			C301.92,176.32,301.92,176.32,301.92,176.32c-5.65,0.01-11.31,0.04-16.96-0.02c-1.33-0.01-1.83,0.39-1.8,1.75
			c0.07,3.08-0.07,6.17,0.03,9.25c0.34,10.38,4.98,18.32,14.05,23.35c8.28,4.59,17.37,4.49,26.16,2.42
			c9.4-2.21,14.83-11.76,13.18-21.29c-1.55-8.94-9.36-15.32-19.03-15.45C312.35,176.26,307.14,176.32,301.92,176.32z M287.3,142.4
			c-0.02-3.9-3.34-7.15-7.21-7.08c-3.8,0.07-6.91,3.29-6.9,7.15c0,3.84,3.13,7.01,6.98,7.05
			C284.06,149.57,287.32,146.31,287.3,142.4z"/>
		<path d="M280.18,118.12c-9.41,0-18.82,0.01-28.22-0.01c-2.85-0.01-4.44-1.08-5.09-3.3c-0.8-2.75,1.04-5.45,3.88-5.71
			c0.44-0.04,0.88-0.03,1.32-0.03c18.82,0,37.63-0.01,56.45,0c3.31,0,5.35,1.79,5.29,4.55c-0.07,2.81-2.05,4.5-5.4,4.5
			c-9.41,0.02-18.82,0.01-28.22,0.01C280.18,118.13,280.18,118.13,280.18,118.12z"/>
		<path class="st2" d="M299.05,9.99c-2.48,6.73-4.96,13.46-7.44,20.19c-1.35,3.65-2.63,7.33-4.09,10.94
			c-0.34,0.83-1.16,1.68-1.97,2.06c-3.08,1.46-6.25,2.74-9.28,4.56c10.06,0,20.12,0,30.72,0c-12.89,17.08-25.46,33.75-38.41,50.91
			c2.15-11.6,4.15-22.56,6.26-33.51c0.14-0.75,0.93-1.62,1.64-1.98c3.46-1.75,7-3.34,10.46-5.43c-10.95,0-21.91,0-33.49,0
			c15.42-16.29,30.38-32.1,45.34-47.9C298.88,9.89,298.96,9.94,299.05,9.99z M278.13,142.42c0.86-1.3,1.52-3.14,2.16-3.13
			c1.97,0.02,1.08,1.89,1.29,3.05c0.01,0.07,0.02,0.15,0,0.22c-0.27,1.14,0.7,3.05-1.31,3.05
			C279.63,145.61,278.98,143.75,278.13,142.42z"/>
	</g>
</g>
</svg>
