<?xml version="1.0" encoding="utf-8"?>
<!-- Generator: Adobe Illustrator 27.8.1, SVG Export Plug-In . SVG Version: 6.00 Build 0)  -->
<svg version="1.1" id="Layer_1" xmlns="http://www.w3.org/2000/svg" xmlns:xlink="http://www.w3.org/1999/xlink" x="0px" y="0px"
	 viewBox="0 0 350 230" style="enable-background:new 0 0 350 230;" xml:space="preserve">
<style type="text/css">
	.st0{fill:#FFFFFF;}
	.st1{fill:#0B4EA8;}
	.st2{fill:#651500;}
	.st3{fill:#AAAAAA;}
	.st4{fill:#B2930F;}
	.st5{fill:none;stroke:#F6F4E8;stroke-miterlimit:10;stroke-dasharray:2.0034,2.0034;}
	.st6{fill:#9B0000;}
	.st7{fill:#BAB500;}
	.st8{fill:#243506;}
	.st9{fill:#F4551E;}
	.st10{fill:#20F298;}
	.st11{fill:#611D5C;}
	.st12{fill:#698C14;}
	.st13{fill:#DCC900;}
	.st14{fill:#52221F;}
	.st15{fill:#8A8AFF;stroke:#8A8AFF;stroke-width:2;stroke-linecap:round;stroke-linejoin:round;stroke-miterlimit:10;}
	.st16{fill:#550968;}
	.st17{fill:#000042;}
	.st18{fill:#873A06;}
	.st19{fill:#F90606;}
	.st20{fill:#006A72;}
	.st21{fill:#FF0000;}
	.st22{fill:#8A8AFF;}
	.st23{fill:#69A6FF;}
	.st24{fill:#FEBA2B;}
	.st25{fill:#00F47F;}
	.st26{fill:#756400;}
	.st27{fill:#FF9700;}
	.st28{fill:#FF5B00;}
	.st29{fill:#FC9500;}
	.st30{fill:#999999;}
	.st31{fill:#BCBCBC;}
	.st32{fill:#FFBD47;}
	.st33{fill:#F99300;}
	.st34{fill:#008480;}
	.st35{fill-rule:evenodd;clip-rule:evenodd;fill:#1B5376;}
	.st36{fill-rule:evenodd;clip-rule:evenodd;fill:#E2310E;}
	.st37{fill:#00393F;}
	.st38{fill:url(#SVGID_00000138540108493591182740000008783557924675900838_);}
	.st39{fill:#7F0000;}
</style>
<g>
	<g>
		<g>
			<path class="st7" d="M164.26,170.73c-0.88-3.86-1.77-7.56-2.56-11.28c-0.67-3.17-2.53-5.04-5.58-6.09
				c-3.04-1.05-6.05-2.27-8.93-3.69c-3.06-1.51-5.83-1.45-8.68,0.45c-3.08,2.05-6.25,3.97-9.27,5.88
				c-5.09-5.11-10.08-10.13-15.25-15.32c1.74-2.78,3.53-5.89,5.58-8.83c2.19-3.13,2.31-6.11,0.51-9.5c-1.43-2.69-2.53-5.6-3.48-8.5
				c-1.05-3.21-3.07-5.03-6.36-5.69c-3.63-0.73-7.22-1.62-10.89-2.46c-0.03-0.57-0.08-1.04-0.08-1.51
				c-0.01-6.14,0.01-12.29-0.03-18.43c-0.01-1.14,0.29-1.67,1.49-1.9c3.12-0.6,6.2-1.39,9.31-2.04c3.35-0.7,5.5-2.57,6.63-5.88
				c1.1-3.19,2.47-6.3,3.89-9.36c1.22-2.64,1.2-5.08-0.37-7.53c-2.13-3.34-4.23-6.69-6.26-9.89c5.13-5.16,10.13-10.18,15.23-15.31
				c2.97,1.88,6.07,3.71,9.03,5.75c3.09,2.12,6.03,2.22,9.37,0.46c2.79-1.47,5.81-2.54,8.81-3.58c2.88-0.99,4.64-2.82,5.31-5.76
				c0.86-3.81,1.72-7.62,2.58-11.46c7.23,0,14.31,0,21.5,0c0.79,3.46,1.68,6.83,2.3,10.26c0.7,3.85,2.71,6.18,6.56,7.27
				c2.88,0.82,5.64,2.13,8.32,3.49c2.95,1.49,5.64,1.41,8.39-0.39c3.14-2.06,6.34-4.04,9.4-5.98c5.1,5.13,10.13,10.17,15.28,15.35
				c-1.8,2.86-3.66,6-5.72,9.01c-2.05,2.99-2.16,5.84-0.46,9.07c1.42,2.7,2.57,5.58,3.51,8.49c1.07,3.34,3.2,5.23,6.55,5.95
				c3.21,0.69,6.39,1.49,9.61,2.15c0.98,0.2,1.28,0.62,1.27,1.58c-0.04,6.25-0.06,12.5,0,18.75c0.01,1.17-0.46,1.53-1.49,1.75
				c-3.26,0.69-6.5,1.5-9.76,2.19c-3.15,0.67-5.06,2.5-6.09,5.57c-1.01,3-2.15,5.99-3.61,8.8c-1.68,3.23-1.56,6.08,0.5,9.07
				c2.04,2.96,3.86,6.08,5.69,8.99c-5.11,5.09-10.15,10.11-15.35,15.29c-2.96-1.87-6.2-3.86-9.38-5.95
				c-2.64-1.74-5.26-1.81-8.11-0.49c-3.16,1.46-6.4,2.78-9.66,3.99c-2.78,1.03-4.51,2.84-5.16,5.72c-0.76,3.41-1.51,6.82-2.36,10.21
				c-0.13,0.5-0.77,1.25-1.18,1.26C178.04,170.75,171.27,170.73,164.26,170.73z M223.14,94.73c0-26.28-21.64-47.88-48-47.9
				c-26.56-0.02-48.25,21.44-48.28,47.78c-0.04,26.81,21.45,48.49,48.08,48.52C201.59,143.15,223.14,121.51,223.14,94.73z"/>
		</g>
		<g>
			<path class="st8" d="M172.48,87.95c-5.19,13.93-10.21,27.45-15.22,40.93c-12.19-6.39-20.5-19.17-20.5-33.89
				c0-20.71,16.46-37.57,37.01-38.22c-1.68,0.1-1.36,0.83-2.49,4.73c-2.49,8.64-4.83,17.32-7.36,26.45H172.48z"/>
			<path class="st9" d="M213.24,94.99c0,21.12-17.12,38.25-38.24,38.25c-5.73,0-11.16-1.26-16.03-3.52
				c11.24-15.32,22.52-30.68,34.15-46.53h-12.6c3.98-7.66,7.75-14.92,11.63-22.38C204.66,67.08,213.24,80.04,213.24,94.99z"/>
		</g>
	</g>
</g>
</svg>
