<?xml version="1.0" encoding="utf-8"?>
<!-- Generator: Adobe Illustrator 27.8.1, SVG Export Plug-In . SVG Version: 6.00 Build 0)  -->
<svg version="1.1" id="Layer_1" xmlns="http://www.w3.org/2000/svg" xmlns:xlink="http://www.w3.org/1999/xlink" x="0px" y="0px"
	 viewBox="0 0 350 230" style="enable-background:new 0 0 350 230;" xml:space="preserve">
<style type="text/css">
	.st0{fill:#FFFFFF;}
	.st1{fill:#0B4EA8;}
	.st2{fill:#651500;}
	.st3{fill:#AAAAAA;}
	.st4{fill:#B2930F;}
	.st5{fill:none;stroke:#F6F4E8;stroke-miterlimit:10;stroke-dasharray:2.0034,2.0034;}
	.st6{fill:#9B0000;}
	.st7{fill:#BAB500;}
	.st8{fill:#243506;}
	.st9{fill:#F4551E;}
	.st10{fill:#20F298;}
	.st11{fill:#611D5C;}
	.st12{fill:#698C14;}
	.st13{fill:#DCC900;}
	.st14{fill:#52221F;}
	.st15{fill:#8A8AFF;stroke:#8A8AFF;stroke-width:2;stroke-linecap:round;stroke-linejoin:round;stroke-miterlimit:10;}
	.st16{fill:#550968;}
	.st17{fill:#000042;}
	.st18{fill:#873A06;}
	.st19{fill:#F90606;}
	.st20{fill:#006A72;}
	.st21{fill:#FF0000;}
	.st22{fill:#8A8AFF;}
	.st23{fill:#69A6FF;}
	.st24{fill:#FEBA2B;}
	.st25{fill:#00F47F;}
	.st26{fill:#756400;}
	.st27{fill:#FF9700;}
	.st28{fill:#FF5B00;}
	.st29{fill:#FC9500;}
	.st30{fill:#999999;}
	.st31{fill:#BCBCBC;}
	.st32{fill:#FFBD47;}
	.st33{fill:#F99300;}
	.st34{fill:#008480;}
	.st35{fill-rule:evenodd;clip-rule:evenodd;fill:#1B5376;}
	.st36{fill-rule:evenodd;clip-rule:evenodd;fill:#E2310E;}
	.st37{fill:#00393F;}
	.st38{fill:url(#SVGID_00000083048453502175778620000006220063417406945157_);}
	.st39{fill:#7F0000;}
</style>
<g>
	<g>
		<path class="st10" d="M133.4,63.71c0,7.19-5.78,13.01-12.93,13.01c-7.15-0.02-12.91-5.84-12.91-13.03
			c0.02-7.08,5.84-12.84,12.97-12.84C127.6,50.87,133.4,56.67,133.4,63.71z"/>
		<path class="st10" d="M258.48,51.87c0-1.45-0.33-4-1.02-4.19c-11.21-3.06-5.67-12.08-6.11-18.36c-0.48-6.65-1.33-11.97-8.04-14.56
			c-13.21,7.69-3.61,21.42-8.28,30.76h-3c-1.95,3.78-3.85,7.47-5.87,11.34c2.85,0.24,5.04,0.43,8.23,0.7
			c-7.95,10.82-15.49,21.1-23.05,31.4c-0.32-0.15-0.63-0.28-0.96-0.43c3.34-9.02,6.67-18.03,10.19-27.51
			c-1.76-0.41-3.28-0.74-4.97-1.15c-0.06-0.44-0.26-1-0.15-1.46c0.7-2.76,1.44-5.5,2.2-8.24c0.5-1.8,0.93-3.33,1.33-4.65h-1.32
			c-2.08-26.05-2.08-26.05-8.39-30.89c-13.06,7.49-3.82,21.03-8.17,30.77c-2.95,0.8-5.8,1.54-8.28,2.2v53.62h29.7
			c-0.54,12.49,0.17,24.62-1.89,36.26c-2.76,15.6-13.34,25.75-28.64,29.5c-15.99,3.93-30.18-0.5-40.63-13.58
			c-10.06-12.6-11.71-27.14-5.45-41.76c9.84-22.9,7.41-44.06-7.69-63.49c-9.95-12.8-23.25-20.27-39.98-19.32
			c-2.46,0.13-6.82,3.74-6.76,5.67c0.65,29.9,8.5,56.95,34.44,75.07c7.11,4.97,9.91,9.89,9.91,18.64
			c-0.02,26.92,20.92,47.49,46.69,47.15c26.11-0.33,45.95-20.86,46.17-47.84c0.06-8.54,0-17.08,0-26.31h29.85
			C258.53,83.89,258.55,67.88,258.48,51.87z M140.82,66.29c0,0.31-0.13,0.41-0.41,0.46c-0.87,0.19-1.74,0.41-2.61,0.59
			c-0.85,0.17-1.37,0.67-1.65,1.5c-0.26,0.8-0.57,1.59-0.96,2.35c-0.44,0.87-0.41,1.63,0.13,2.43c0.56,0.8,1.04,1.63,1.54,2.43
			c-1.37,1.35-2.72,2.7-4.13,4.09c-0.78-0.5-1.65-1.04-2.5-1.59c-0.72-0.46-1.43-0.48-2.19-0.13c-0.85,0.39-1.72,0.74-2.59,1.07
			c-0.74,0.28-1.2,0.76-1.39,1.54c-0.2,0.91-0.39,1.82-0.63,2.74c-0.04,0.13-0.2,0.33-0.31,0.33c-1.82,0.02-3.63,0.02-5.52,0.02
			c-0.22-1.04-0.46-2.04-0.69-3.04c-0.17-0.85-0.67-1.35-1.5-1.63c-0.82-0.28-1.61-0.61-2.39-1c-0.82-0.41-1.56-0.39-2.33,0.13
			c-0.82,0.56-1.67,1.06-2.48,1.57c-1.37-1.37-2.7-2.72-4.09-4.11c0.46-0.74,0.94-1.57,1.5-2.37c0.59-0.83,0.61-1.63,0.13-2.54
			c-0.39-0.72-0.69-1.5-0.93-2.3c-0.3-0.85-0.83-1.33-1.7-1.52c-0.98-0.2-1.95-0.43-2.93-0.67c-0.02-0.15-0.02-0.28-0.02-0.39
			c-0.02-1.65,0-3.3-0.02-4.95c0-0.32,0.07-0.46,0.41-0.52c0.83-0.17,1.67-0.37,2.5-0.54c0.89-0.2,1.46-0.7,1.78-1.59
			c0.3-0.85,0.65-1.69,1.04-2.5c0.33-0.7,0.32-1.37-0.09-2.02c-0.57-0.91-1.15-1.8-1.69-2.67c1.37-1.39,2.72-2.72,4.09-4.11
			c0.8,0.52,1.63,1,2.43,1.56c0.82,0.56,1.61,0.59,2.5,0.11c0.76-0.39,1.56-0.69,2.37-0.94c0.76-0.28,1.24-0.76,1.43-1.56
			c0.22-1.02,0.46-2.04,0.69-3.08h5.78c0.2,0.93,0.44,1.83,0.61,2.76c0.19,1.04,0.72,1.65,1.76,1.95c0.78,0.22,1.52,0.57,2.24,0.94
			c0.78,0.39,1.5,0.37,2.24-0.11c0.85-0.56,1.7-1.07,2.52-1.61c1.37,1.39,2.72,2.74,4.11,4.13c-0.48,0.76-0.98,1.61-1.54,2.41
			c-0.56,0.82-0.57,1.57-0.13,2.45c0.39,0.72,0.7,1.5,0.94,2.28c0.3,0.89,0.85,1.41,1.76,1.59c0.85,0.19,1.72,0.41,2.58,0.57
			c0.26,0.06,0.35,0.17,0.35,0.43C140.81,62.94,140.81,64.6,140.82,66.29z"/>
	</g>
</g>
</svg>
