<?xml version="1.0" encoding="utf-8"?>
<!-- Generator: Adobe Illustrator 27.8.1, SVG Export Plug-In . SVG Version: 6.00 Build 0)  -->
<svg version="1.1" id="Layer_1" xmlns="http://www.w3.org/2000/svg" xmlns:xlink="http://www.w3.org/1999/xlink" x="0px" y="0px"
	 viewBox="0 0 350 230" style="enable-background:new 0 0 350 230;" xml:space="preserve">
<style type="text/css">
	.st0{fill:#FFFFFF;}
	.st1{fill:#0B4EA8;}
	.st2{fill:#651500;}
	.st3{fill:#AAAAAA;}
	.st4{fill:#B2930F;}
	.st5{fill:none;stroke:#F6F4E8;stroke-miterlimit:10;stroke-dasharray:2.0034,2.0034;}
	.st6{fill:#9B0000;}
	.st7{fill:#BAB500;}
	.st8{fill:#243506;}
	.st9{fill:#F4551E;}
	.st10{fill:#20F298;}
	.st11{fill:#611D5C;}
	.st12{fill:#698C14;}
	.st13{fill:#DCC900;}
	.st14{fill:#52221F;}
	.st15{fill:#8A8AFF;stroke:#8A8AFF;stroke-width:2;stroke-linecap:round;stroke-linejoin:round;stroke-miterlimit:10;}
	.st16{fill:#550968;}
	.st17{fill:#000042;}
	.st18{fill:#873A06;}
	.st19{fill:#F90606;}
	.st20{fill:#006A72;}
	.st21{fill:#FF0000;}
	.st22{fill:#8A8AFF;}
	.st23{fill:#69A6FF;}
	.st24{fill:#FEBA2B;}
	.st25{fill:#00F47F;}
	.st26{fill:#756400;}
	.st27{fill:#FF9700;}
	.st28{fill:#FF5B00;}
	.st29{fill:#FC9500;}
	.st30{fill:#999999;}
	.st31{fill:#BCBCBC;}
	.st32{fill:#FFBD47;}
	.st33{fill:#F99300;}
	.st34{fill:#008480;}
	.st35{fill-rule:evenodd;clip-rule:evenodd;fill:#1B5376;}
	.st36{fill-rule:evenodd;clip-rule:evenodd;fill:#E2310E;}
	.st37{fill:#00393F;}
	.st38{fill:url(#SVGID_00000145045565988795624950000010183352521341949886_);}
	.st39{fill:#7F0000;}
</style>
<g>
	<path class="st14" d="M175.61,73.22c-0.02,3.76-0.02,7.43,0.03,11.1c0,0.44,0.4,1.04,0.79,1.26c2.16,1.26,4.38,2.42,6.74,3.71
		c0.2-1.31,0.37-2.39,0.59-3.79c2.86,1.46,5.35,2.74,7.97,4.09c0.16-1.21,0.28-2.16,0.33-2.49c0.7,0.62,1.41,1.24,2.13,1.88
		C192.47,80.18,184.85,73.5,175.61,73.22z M193.77,94.1c-0.12,1.66-0.22,3.03-0.34,4.82c-2.32-1.18-4.23-2.16-6.34-3.25
		c-0.16,2.08-0.3,3.92-0.47,6.14c-3.95-2.08-7.32-3.85-10.86-5.72v16.21c9.98-0.36,18.03-8.21,18.74-18.07
		C194.27,94.18,194.02,94.15,193.77,94.1z"/>
	<path class="st15" d="M127.37,69.21c-5.64,6.28-16.8,8.03-29,5.72c-1.97,5.28-2.64,11.89-2.64,17.84c0,5.95,0.67,12.56,1.99,17.84
		c12.63-2.41,24.18-0.44,29.62,6.43c-2.05-4.09-3.57-8.45-4.51-13.05C120.33,91.74,122.19,79.62,127.37,69.21z M129.75,121.39
		c3.05,8.36-0.48,19.16-9.57,28.84c8.59,8.59,19.81,14.55,31.7,18.51c3.7-11.08,9.91-19.19,17.31-22.02
		C152.7,144.75,138.23,135.14,129.75,121.39z M151.88,16.79c-11.89,3.96-22.46,9.91-31.05,18.51c8.78,9.36,12.37,20.25,9.87,28.13
		c7.68-11.59,19.8-20.25,34.59-23.19c1.91-0.37,3.79-0.67,5.66-0.85C162.79,37.24,155.85,28.73,151.88,16.79z M175.61,73.22
		c-0.02,3.76-0.02,7.43,0.03,11.1c0,0.44,0.4,1.04,0.79,1.26c2.16,1.26,4.38,2.42,6.74,3.71c0.2-1.31,0.37-2.39,0.59-3.79
		c2.86,1.46,5.35,2.74,7.97,4.09c0.16-1.21,0.28-2.16,0.33-2.49c0.7,0.62,1.41,1.24,2.13,1.88
		C192.47,80.18,184.85,73.5,175.61,73.22z M193.77,94.1c-0.12,1.66-0.22,3.03-0.34,4.82c-2.32-1.18-4.23-2.16-6.34-3.25
		c-0.16,2.08-0.3,3.92-0.47,6.14c-3.95-2.08-7.32-3.85-10.86-5.72v16.21c9.98-0.36,18.03-8.21,18.74-18.07
		C194.27,94.18,194.02,94.15,193.77,94.1z M219.35,124.87c-8.98,12.43-22.95,20.4-38.23,21.96c7.27,2.92,13.36,10.99,17,21.91
		c11.89-3.31,22.46-9.91,31.72-18.51C222.06,141.94,218.34,132.41,219.35,124.87z M229.84,35.3c-8.59-8.59-19.83-14.55-31.72-18.51
		c-3.87,11.64-10.54,20.02-18.45,22.42c10.6,0.62,20.48,4.51,29.43,11.62c4.1,3.26,7.57,6.84,10.43,10.72
		C217.98,53.64,221.67,44.02,229.84,35.3z M252.3,74.93c-11.1,2.11-21.32,0.85-27.35-4.13c3.03,6.79,4.62,14.3,4.76,22.49
		c0.03,2.28-0.96,2.87-2.95,2.87c-6.15,0.02-12.32,0.08-18.48,0.12h-3.09c0,4.1,0.05,7.74-0.02,11.36
		c-0.05,3.09-1.66,5.17-4.74,5.53c-8.14,0.92-16.3,1.63-24.66,2.44v-3.31c-0.25,0.03-0.51,0.03-0.76,0.03
		c-0.7,0-1.38-0.03-2.05-0.11v4.49c0,2.74-1.2,4.26-3.29,4.3c-2.21,0.05-3.51-1.52-3.51-4.34V69.57c0.02-2.83,1.1-4.21,3.29-4.26
		c2.3-0.05,3.5,1.4,3.51,4.29v3.71c0.67-0.08,1.35-0.11,2.05-0.11c0.2,0,0.4,0,0.61,0.02v-2.53c8.59,0.81,16.92,1.54,25.22,2.42
		c2.55,0.26,4.27,2.61,4.32,5.45c0.06,3.76,0.02,7.54,0.02,11.5h18.37c0.02-4.48-0.92-8.69-2.46-12.7
		c-6.6-17.39-19.07-28.13-37.33-31.61c-25.98-4.97-51.92,14.2-55.59,40.47c-3.56,25.41,13.32,49.04,38.55,54.17
		c23.42,4.76,47.51-9.65,54.7-32.49c0.25-0.82,0.53-1.65,0.78-2.47c0.48-1.68,1.59-2.63,3.33-2.28c1.82,0.34,2.77,1.77,2.24,3.48
		c-0.82,2.67-1.62,5.38-2.64,7.97c6.05-4.86,16.19-6.09,27.18-3.99c1.32-5.95,1.97-11.89,1.97-17.84
		C254.27,86.81,253.62,80.21,252.3,74.93z M146.65,83.61c0.34-1.1,1.66-2.6,2.66-2.66c3.36-0.22,6.74-0.19,10.21-0.14
		c1.23,0,2.46,0.02,3.7,0.02v5.5c-2.25,0-4.49,0.03-6.7,0.03c-2.67,0-5.31-0.02-7.96-0.16C147.84,86.18,146.45,84.25,146.65,83.61z
		 M163.25,105.26c-1.1,0-2.21,0-3.29,0.02c-3.82,0.02-7.58,0.05-11.36-0.14c-0.75-0.03-1.86-1.71-1.97-2.7
		c-0.17-1.57,0.99-2.64,2.67-2.67c2.46-0.03,4.91-0.03,7.41-0.03c2.13,0,4.3,0.02,6.54,0.02V105.26z"/>
	<path class="st16" d="M166.14,75.32v34.9c-2.38-1.21-4.49-2.91-6.19-4.94c1.09-0.02,2.19-0.02,3.29-0.02v-5.52
		c-2.24,0-4.41-0.02-6.54-0.02c-0.82-2.16-1.27-4.51-1.27-6.96c0-2.24,0.37-4.4,1.09-6.4c2.21,0,4.44-0.03,6.7-0.03v-5.5
		c-1.24,0-2.47-0.02-3.7-0.02C161.28,78.53,163.55,76.64,166.14,75.32z M175.61,73.22c-0.02,3.76-0.02,7.43,0.03,11.1
		c0,0.44,0.4,1.04,0.79,1.26c2.16,1.26,4.38,2.42,6.74,3.71c0.2-1.31,0.37-2.39,0.59-3.79c2.86,1.46,5.35,2.74,7.97,4.09
		c0.16-1.21,0.28-2.16,0.33-2.49c0.7,0.62,1.41,1.24,2.13,1.88C192.47,80.18,184.85,73.5,175.61,73.22z M193.77,94.1
		c-0.12,1.66-0.22,3.03-0.34,4.82c-2.32-1.18-4.23-2.16-6.34-3.25c-0.16,2.08-0.3,3.92-0.47,6.14c-3.95-2.08-7.32-3.85-10.86-5.72
		v16.21c9.98-0.36,18.03-8.21,18.74-18.07C194.27,94.18,194.02,94.15,193.77,94.1z"/>
</g>
</svg>
