<?xml version="1.0" encoding="utf-8"?>
<!-- Generator: Adobe Illustrator 27.8.1, SVG Export Plug-In . SVG Version: 6.00 Build 0)  -->
<svg version="1.1" id="Layer_1" xmlns="http://www.w3.org/2000/svg" xmlns:xlink="http://www.w3.org/1999/xlink" x="0px" y="0px"
	 viewBox="0 0 350 230" style="enable-background:new 0 0 350 230;" xml:space="preserve">
<style type="text/css">
	.st0{fill:#FFFFFF;}
	.st1{fill:#0B4EA8;}
	.st2{fill:#651500;}
	.st3{fill:#AAAAAA;}
	.st4{fill:#B2930F;}
	.st5{fill:none;stroke:#F6F4E8;stroke-miterlimit:10;stroke-dasharray:2.0034,2.0034;}
	.st6{fill:#9B0000;}
	.st7{fill:#BAB500;}
	.st8{fill:#243506;}
	.st9{fill:#F4551E;}
	.st10{fill:#20F298;}
	.st11{fill:#611D5C;}
	.st12{fill:#698C14;}
	.st13{fill:#DCC900;}
	.st14{fill:#52221F;}
	.st15{fill:#8A8AFF;stroke:#8A8AFF;stroke-width:2;stroke-linecap:round;stroke-linejoin:round;stroke-miterlimit:10;}
	.st16{fill:#550968;}
	.st17{fill:#000042;}
	.st18{fill:#873A06;}
	.st19{fill:#F90606;}
	.st20{fill:#006A72;}
	.st21{fill:#FF0000;}
	.st22{fill:#8A8AFF;}
	.st23{fill:#69A6FF;}
	.st24{fill:#FEBA2B;}
	.st25{fill:#00F47F;}
	.st26{fill:#756400;}
	.st27{fill:#FF9700;}
	.st28{fill:#FF5B00;}
	.st29{fill:#FC9500;}
	.st30{fill:#999999;}
	.st31{fill:#BCBCBC;}
	.st32{fill:#FFBD47;}
	.st33{fill:#F99300;}
	.st34{fill:#008480;}
	.st35{fill-rule:evenodd;clip-rule:evenodd;fill:#1B5376;}
	.st36{fill-rule:evenodd;clip-rule:evenodd;fill:#E2310E;}
	.st37{fill:#00393F;}
	.st38{fill:url(#SVGID_00000137095861063205589900000011979996324019761832_);}
	.st39{fill:#7F0000;}
</style>
<g id="XMLID_7642_">
	<path class="st19" d="M176.34,77.46l15.5-56.43l-48.37,75.04h30.39l-19.22,59.53l52.09-78.14H176.34z"/>
	<path class="st20" d="M252.29,73.07h-0.06h-0.06h-0.06h-0.06h-0.06h-0.06h-0.06h-0.06h-0.06h-0.06h-0.06h-0.06h-0.06h-0.06h-0.06
		h-0.06h-0.06h-0.06h-0.06h-0.06h-0.06h-0.06h-0.06h-0.06h-0.06h-0.06h-0.06h-0.06h-0.06h-0.06h-0.06h-0.06h-0.06h-0.06h-0.06h-0.06
		h-0.06h-0.06h-0.06h-0.06h-0.06h-0.06h-0.06h-0.06h-0.06h-0.06h-0.06h-0.06h-0.06h-0.06h-0.06h-0.06h-0.06h-0.05h-0.05h-0.05h-0.05
		h-0.05h-0.05h-0.05h-0.05h-0.05h-0.05h-0.05h-0.05h-0.05h-0.05h-0.05h-0.05h-0.05h-0.05h-0.05h-0.05h-0.05h-0.05h-0.05h-0.05h-0.05
		h-0.05h-0.05h-0.05h-0.05h-0.05h-0.05h-0.05h-0.05l-0.46-0.46h-13.4l-4.87,4.87h-1.74c-2.07-10-7-19.2-14.39-26.59
		c-4.86-4.86-10.49-8.65-16.62-11.27l-0.58-22.84l-7.19,26.96c19.28,5.64,33.4,23.48,33.4,44.56c0,24.28-18.73,44.26-42.5,46.25
		l21.17-38.88l-28.28,38.93c-0.12-0.01-0.23-0.01-0.35-0.02l-4.06,6.09c2.5,0.36,5.03,0.54,7.6,0.54c14.13,0,27.42-5.5,37.42-15.5
		c7.42-7.42,12.36-16.66,14.42-26.71h4.31l4.55,4.55h5.65v1.8h0.07h0.05h0.05h0.05h0.05h0.05h0.05h0.05h0.05h0.05h0.05h0.05h0.05
		h0.05h0.05h0.05h0.05h0.05h0.05h0.05h0.05h0.05h0.05h0.05h0.05h0.05h0.05h0.05h0.05h0.05h0.05h0.05h0.05h0.05h0.05h0.05h0.05h0.05
		h0.05h0.05h0.05h0.05h0.05h0.05h0.05h0.05h0.05h0.05h0.05h0.05h0.05h0.05h0.05h0.05h0.05h0.05h0.05h0.05h0.05h0.05h0.05h0.05h0.05
		h0.06h0.06h0.06h0.06H245h0.06h0.06h0.06h0.06h0.06h0.06h0.06h0.06h0.06h0.06h0.06h0.06h0.06h0.06h0.06h0.06h0.06h0.06h0.06h0.06
		h0.06h0.06h0.06h0.06h0.06h0.06h0.06h0.06h0.06h0.06h0.06h0.06H247h0.06h0.06h0.06h0.06h0.06h0.06h0.06h0.06h0.06h0.06h0.06h0.06
		h0.06h0.06h0.06h0.04v-6.49h-0.04h-0.06h-0.06h-0.06h-0.06h-0.06h-0.06h-0.06h-0.06h-0.06h-0.06h-0.06h-0.06h-0.06h-0.06H247h-0.06
		h-0.06h-0.06h-0.06h-0.06h-0.06h-0.06h-0.06h-0.06h-0.06h-0.06h-0.06h-0.06h-0.06h-0.06h-0.06h-0.06h-0.06h-0.06h-0.06h-0.06h-0.06
		h-0.06h-0.06h-0.06h-0.06h-0.06h-0.06h-0.06h-0.06h-0.06h-0.06H245h-0.06h-0.06h-0.06h-0.06h-0.06h-0.05h-0.05h-0.05h-0.05h-0.05
		h-0.05h-0.05h-0.05h-0.05h-0.05h-0.05h-0.05h-0.05h-0.05h-0.05h-0.05h-0.05h-0.05h-0.05h-0.05h-0.05h-0.05h-0.05h-0.05h-0.05h-0.05
		h-0.05h-0.05h-0.05h-0.05h-0.05h-0.05h-0.05h-0.05h-0.05h-0.05h-0.05h-0.05h-0.05h-0.05h-0.05h-0.05h-0.05h-0.05h-0.05h-0.05h-0.05
		h-0.05h-0.05h-0.05h-0.05h-0.05h-0.05h-0.05h-0.05h-0.05h-0.05h-0.05h-0.05h-0.05h-0.05h-0.05h-0.07v1.34h-4.26l-4.55-4.55h-5.13
		c0.14-1.04,0.26-2.09,0.34-3.14h14.57v1.65h0.07h0.05h0.05h0.05h0.05h0.05h0.05h0.05h0.05h0.05h0.05h0.05h0.05h0.05h0.05h0.05h0.05
		h0.05h0.05h0.05h0.05h0.05h0.05h0.05h0.05h0.05h0.05h0.05h0.05h0.05h0.05h0.05h0.05h0.05h0.05h0.05h0.05h0.05h0.05h0.05h0.05h0.05
		h0.05h0.05h0.05h0.05h0.05h0.05h0.05h0.05h0.05h0.05h0.05h0.05h0.05h0.05h0.05h0.05h0.05h0.05h0.05h0.05h0.05h0.06h0.06h0.06h0.06
		h0.06h0.06h0.06h0.06h0.06h0.06h0.06h0.06h0.06h0.06h0.06h0.06h0.06h0.06h0.06h0.06h0.06H247h0.06h0.06h0.06h0.06h0.06h0.06h0.06
		h0.06h0.06h0.06h0.06h0.06h0.06h0.06h0.06h0.06h0.06h0.06h0.06h0.06h0.06h0.06h0.06h0.06h0.06h0.06h0.06h0.06h0.06h0.06h0.06h0.04
		v-6.49h-0.04h-0.06h-0.06h-0.06h-0.06h-0.06h-0.06h-0.06h-0.06h-0.06h-0.06h-0.06h-0.06h-0.06h-0.06h-0.06h-0.06h-0.06h-0.06h-0.06
		h-0.06h-0.06h-0.06h-0.06h-0.06h-0.06h-0.06h-0.06h-0.06h-0.06h-0.06H247h-0.06h-0.06h-0.06h-0.06h-0.06h-0.06h-0.06h-0.06h-0.06
		h-0.06h-0.06h-0.06h-0.06h-0.06h-0.06h-0.06h-0.06h-0.06h-0.06h-0.06h-0.06h-0.06h-0.05h-0.05h-0.05h-0.05h-0.05h-0.05h-0.05h-0.05
		h-0.05h-0.05h-0.05h-0.05h-0.05h-0.05h-0.05h-0.05h-0.05h-0.05h-0.05h-0.05h-0.05h-0.05h-0.05h-0.05h-0.05h-0.05h-0.05h-0.05h-0.05
		h-0.05h-0.05h-0.05h-0.05h-0.05h-0.05h-0.05h-0.05h-0.05h-0.05h-0.05h-0.05h-0.05h-0.05h-0.05h-0.05h-0.05h-0.05h-0.05h-0.05h-0.05
		h-0.05h-0.05h-0.05h-0.05h-0.05h-0.05h-0.06h-0.05h-0.05h-0.05h-0.05h-0.05h-0.07v1.49h-14.41c0-0.29,0.01-0.57,0.01-0.86
		c0-0.33-0.01-0.66-0.01-0.98h4.63l4.55-4.55h3.04v1.9h0.07h0.05h0.05h0.05h0.05h0.05h0.05h0.05h0.05h0.05h0.05h0.05h0.05h0.05h0.05
		h0.05h0.05h0.05h0.05h0.05h0.05h0.05h0.05h0.05h0.05h0.05h0.05h0.05h0.05h0.05h0.05h0.05h0.05h0.05h0.05h0.05h0.05h0.05h0.05h0.05
		h0.05h0.05h0.05h0.05h0.05h0.05h0.05h0.05h0.05h0.05h0.05h0.05h0.05h0.05h0.05h0.05h0.05h0.05h0.05h0.05h0.05h0.05h0.05h0.06h0.06
		h0.06h0.06h0.06h0.06h0.06h0.06h0.06h0.06h0.06h0.06h0.06h0.06h0.06h0.06h0.06h0.06h0.06h0.06h0.06h0.06h0.06h0.06h0.06h0.06h0.06
		h0.06h0.06h0.06h0.06h0.06h0.06h0.06h0.06h0.06h0.06h0.06h0.06h0.06h0.06h0.06h0.06h0.06h0.06h0.06h0.06h0.06h0.06h0.06h0.06h0.06
		h0.06h0.04v-5.11h0.05h0.05h0.05h0.05h0.05h0.05h0.05h0.05h0.05h0.05h0.05h0.05h0.05h0.05h0.05h0.05h0.05h0.05h0.05h0.05h0.05h0.05
		h0.05h0.05h0.05h0.05h0.05h0.05h0.05h0.05h0.05h0.05h0.05h0.05h0.05h0.05h0.05h0.05h0.05h0.05h0.05h0.05h0.05h0.05h0.05h0.05h0.06
		h0.06h0.06h0.06h0.06h0.06h0.06h0.06h0.06h0.06h0.06h0.06h0.06h0.06h0.06h0.06h0.06h0.06h0.06h0.06h0.06h0.06h0.06h0.06h0.06h0.06
		h0.06h0.06h0.06h0.06h0.06H251h0.06h0.06h0.06h0.06h0.06h0.06h0.06h0.06h0.06h0.07h0.06h0.06h0.06h0.06h0.06h0.06h0.06h0.06h0.06
		h0.06h0.06h0.04v-6.49L252.29,73.07L252.29,73.07z M245.83,78.18h-0.05h-0.06h-0.06h-0.06h-0.06h-0.06h-0.06h-0.06h-0.06h-0.06
		h-0.06h-0.06h-0.06h-0.06h-0.06h-0.06h-0.06h-0.06h-0.06h-0.06h-0.06h-0.06h-0.06h-0.06h-0.06h-0.06h-0.06h-0.06h-0.06h-0.06h-0.06
		h-0.06h-0.06h-0.06h-0.06h-0.06h-0.06h-0.06h-0.06h-0.05h-0.05h-0.05h-0.05h-0.05h-0.05h-0.05h-0.05h-0.05h-0.05h-0.05h-0.05h-0.05
		h-0.05h-0.05h-0.05h-0.05h-0.05h-0.05h-0.05h-0.05h-0.05h-0.05h-0.05h-0.05h-0.05h-0.05h-0.05H242h-0.05h-0.05h-0.05h-0.05h-0.05
		h-0.05h-0.05h-0.05h-0.05h-0.05h-0.05h-0.05h-0.05h-0.05h-0.05h-0.05h-0.05h-0.05h-0.05h-0.05h-0.05h-0.05h-0.05h-0.05h-0.05h-0.05
		h-0.05h-0.05h-0.05h-0.05h-0.05h-0.05h-0.05h-0.07v1.25h-4.43l-4.55,4.55h-3.41c-0.08-1.05-0.2-2.1-0.35-3.14h2.55l4.87-4.87h10.63
		l0.29,0.29L245.83,78.18L245.83,78.18z M175.1,35.4c-14.13,0-27.42,5.5-37.42,15.5c-7.39,7.39-12.32,16.58-14.39,26.59h-1.95
		l-4.87-4.87h-13.4l-0.46,0.46h-0.05h-0.05h-0.05h-0.05h-0.05h-0.05h-0.05h-0.05h-0.05h-0.05h-0.05h-0.05h-0.05h-0.05h-0.05h-0.05
		h-0.05h-0.05h-0.05h-0.05h-0.05h-0.05h-0.05h-0.05h-0.05h-0.05h-0.05h-0.05h-0.05h-0.05h-0.05h-0.05h-0.05h-0.06h-0.06h-0.06h-0.06
		h-0.06h-0.06h-0.06h-0.06h-0.06h-0.06h-0.06h-0.06h-0.06h-0.06h-0.06h-0.06h-0.06h-0.06h-0.06h-0.06h-0.06h-0.06h-0.06h-0.06h-0.06
		h-0.06h-0.06h-0.06h-0.06h-0.06h-0.06h-0.06h-0.06h-0.06H98.8h-0.06h-0.06h-0.06h-0.06H98.5h-0.06h-0.06h-0.06h-0.06H98.2h-0.06
		h-0.06h-0.06h-0.06H97.9h-0.06h-0.06h-0.06h-0.04v6.49h0.04h0.06h0.06h0.06h0.06h0.06h0.06h0.06h0.06h0.06h0.06h0.06h0.06h0.06
		h0.06h0.06h0.06h0.06h0.06h0.06h0.06h0.06h0.06h0.06h0.06h0.06h0.06h0.06h0.06h0.06h0.06h0.06h0.06h0.06h0.06h0.06h0.06h0.06h0.06
		h0.06h0.06h0.06h0.06h0.06h0.06h0.06h0.06h0.06h0.06h0.06h0.06h0.06h0.06h0.06h0.05h0.05h0.05h0.05h0.05h0.05h0.05h0.05h0.05h0.05
		h0.05h0.05h0.05h0.05h0.05h0.05h0.05h0.05h0.05h0.05h0.05h0.05h0.05h0.05h0.05h0.05h0.05h0.05h0.05h0.05h0.05h0.05h0.05h0.05h0.05
		h0.05h0.05h0.05h0.05h0.05h0.05h0.05h0.05h0.05h0.05h0.05v5.11h0.04h0.06h0.06h0.06h0.06h0.06h0.06h0.06h0.06h0.06h0.06h0.06h0.06
		h0.06h0.06h0.06h0.06h0.06h0.06h0.06h0.06h0.06h0.06h0.06h0.06h0.06h0.06h0.06H105h0.06h0.06h0.06h0.06h0.06h0.06h0.06h0.06h0.06
		h0.06h0.06h0.06h0.06h0.06h0.06h0.06h0.06h0.06h0.06h0.06h0.06h0.06h0.06h0.06h0.06h0.05h0.05h0.05h0.05h0.05h0.05h0.05h0.05h0.05
		h0.05h0.05h0.05h0.05h0.05h0.05h0.05h0.05h0.05h0.05h0.05h0.05h0.05h0.05h0.05h0.05h0.05h0.05h0.05H108h0.05h0.05h0.05h0.05h0.05
		h0.05h0.05h0.05h0.05h0.05h0.05h0.05h0.05h0.05h0.05h0.05h0.05h0.05h0.05h0.05h0.05h0.05h0.05h0.05h0.05h0.05h0.05h0.05h0.05h0.05
		h0.05h0.05h0.05h0.07v-1.9h3.04l4.55,4.55h4.85c-0.01,0.33-0.01,0.66-0.01,0.98c0,0.29,0.01,0.57,0.01,0.86h-14.62v-1.49h-0.07
		h-0.05h-0.05h-0.05h-0.05h-0.05h-0.05h-0.05h-0.05h-0.05h-0.05h-0.05h-0.05h-0.05h-0.05h-0.05h-0.05h-0.05h-0.05h-0.05h-0.05h-0.05
		h-0.05h-0.05h-0.05h-0.05h-0.05h-0.05h-0.05h-0.05h-0.05h-0.05h-0.05h-0.05h-0.05h-0.05h-0.05h-0.05h-0.05h-0.05h-0.05h-0.05h-0.05
		h-0.05h-0.05h-0.05h-0.05h-0.05h-0.05h-0.05h-0.05h-0.05h-0.05h-0.05h-0.05h-0.05h-0.05h-0.05h-0.05h-0.05h-0.05h-0.05h-0.05h-0.06
		h-0.06h-0.05h-0.06h-0.06h-0.06h-0.06h-0.06h-0.06h-0.06h-0.06h-0.06h-0.06h-0.06h-0.06h-0.06h-0.06h-0.06h-0.06h-0.06h-0.06H103
		h-0.06h-0.06h-0.06h-0.06h-0.06h-0.06h-0.06h-0.06h-0.06h-0.06h-0.06h-0.06h-0.06h-0.06h-0.06h-0.06h-0.06h-0.06h-0.06h-0.06h-0.06
		h-0.06h-0.06h-0.06h-0.06h-0.06h-0.06h-0.06h-0.06h-0.06h-0.06h-0.04v6.49h0.04h0.06h0.06h0.06h0.06h0.06h0.06h0.06h0.06h0.06h0.06
		h0.06h0.06h0.06h0.06h0.06h0.06h0.06h0.06h0.06h0.06h0.06h0.06h0.06h0.06h0.06h0.06h0.06h0.06h0.06h0.06H103h0.06h0.06h0.06h0.06
		h0.06h0.06h0.06h0.06h0.06h0.06h0.06h0.06h0.06h0.06h0.06h0.06h0.06h0.06h0.06h0.06h0.06h0.06h0.05h0.05h0.05h0.05h0.05h0.05h0.05
		h0.05h0.05h0.05h0.05h0.05h0.05h0.05h0.05h0.05h0.05h0.05h0.05h0.05h0.05h0.05h0.05h0.05h0.05h0.05h0.05h0.05h0.05h0.05h0.05h0.05
		h0.05h0.05h0.05h0.05h0.05h0.05h0.05h0.05h0.05h0.05h0.05h0.05h0.05h0.05h0.05h0.05h0.05h0.05h0.05h0.05h0.05h0.05h0.05h0.05h0.05
		h0.05h0.05h0.05h0.05h0.05h0.07v-1.65h14.78c0.08,1.05,0.2,2.1,0.34,3.14h-5.34l-4.55,4.55h-4.26v-1.34h-0.07h-0.05h-0.05h-0.05
		h-0.05h-0.05h-0.05h-0.05h-0.05h-0.05h-0.05h-0.05h-0.05h-0.05h-0.05h-0.05h-0.05h-0.05h-0.05h-0.05h-0.05h-0.05h-0.05h-0.05h-0.05
		h-0.05h-0.05h-0.05h-0.05h-0.05h-0.05h-0.05h-0.05h-0.05h-0.05h-0.05h-0.05h-0.05h-0.05h-0.05h-0.05h-0.05h-0.05h-0.05h-0.05h-0.05
		h-0.05h-0.05h-0.05h-0.05h-0.05h-0.05h-0.05h-0.05h-0.05h-0.05h-0.05h-0.05h-0.05h-0.05h-0.05h-0.05h-0.05h-0.06h-0.06h-0.06h-0.06
		H105h-0.06h-0.06h-0.06h-0.06h-0.06h-0.06h-0.06h-0.06h-0.06h-0.06h-0.06h-0.06h-0.06h-0.06h-0.06h-0.06h-0.06h-0.06h-0.06h-0.06
		h-0.06h-0.06h-0.06h-0.06h-0.06h-0.06h-0.06h-0.06h-0.06h-0.06h-0.06h-0.06H103h-0.06h-0.06h-0.06h-0.06h-0.06h-0.06h-0.06h-0.06
		h-0.06h-0.06h-0.06h-0.06h-0.06h-0.06h-0.06h-0.04v6.49h0.04h0.06h0.06h0.06h0.06h0.06h0.06h0.06h0.06h0.06h0.06h0.06h0.06h0.06
		h0.06H103h0.06h0.06h0.06h0.06h0.06h0.06h0.06h0.06h0.06h0.06h0.06h0.06h0.06h0.06h0.06h0.06h0.06h0.06h0.06h0.06h0.06h0.06h0.06
		h0.06h0.06h0.06h0.06h0.06h0.06h0.06h0.06h0.06H105h0.06h0.06h0.06h0.06h0.06h0.05h0.05h0.05h0.05h0.05h0.05h0.05h0.05h0.05h0.05
		h0.05h0.05h0.05h0.05h0.05h0.05h0.05h0.05h0.05h0.05h0.05h0.05h0.05h0.05h0.05h0.05h0.05h0.05h0.05h0.05h0.05h0.05h0.05h0.05h0.05
		h0.05h0.05h0.05h0.05h0.05h0.05h0.05h0.05h0.05h0.05h0.05h0.05h0.05h0.05h0.05h0.05h0.05h0.05h0.05h0.05h0.05h0.05h0.05h0.05h0.05
		h0.05h0.05h0.07v-1.8h5.65l4.55-4.55h4.53c2.05,10.05,7,19.29,14.42,26.71c4.24,4.24,9.08,7.67,14.32,10.22l-5.14,32.8l10.66-30.5
		c0.05,0.02,0.1,0.04,0.15,0.05l2-6.2c-18.03-6.38-30.99-23.59-30.99-43.78c0-22.91,16.68-41.99,38.53-45.75L145.4,88.38
		l30.08-46.49c0.01,0,0.01,0,0.02,0l4.07-6.31C178.09,35.46,176.6,35.4,175.1,35.4z M118.74,83.98l-4.55-4.55h-4.43v-1.25h-0.07
		h-0.05h-0.05h-0.05h-0.05h-0.05h-0.05h-0.05h-0.05h-0.05h-0.05h-0.05h-0.05h-0.05h-0.05h-0.05h-0.05h-0.05h-0.05h-0.05h-0.05h-0.05
		h-0.05h-0.05h-0.05h-0.05h-0.05h-0.05h-0.05h-0.05h-0.05h-0.05h-0.05h-0.05h-0.05h-0.05h-0.05h-0.05h-0.05h-0.05h-0.05h-0.05h-0.05
		h-0.05h-0.05h-0.05h-0.05h-0.05h-0.05h-0.05h-0.05h-0.05h-0.05h-0.05h-0.05h-0.05h-0.05h-0.05h-0.05h-0.05h-0.05h-0.05h-0.05h-0.06
		h-0.06h-0.06h-0.06h-0.06h-0.06h-0.06h-0.06h-0.06h-0.06h-0.06h-0.06h-0.06h-0.06h-0.06h-0.06h-0.06h-0.06h-0.06h-0.06h-0.06h-0.06
		h-0.06h-0.06h-0.06h-0.06h-0.06h-0.06h-0.06h-0.06h-0.06h-0.06h-0.06h-0.06h-0.06h-0.06h-0.06h-0.06h-0.05v-1.93l0.29-0.29h10.63
		l4.87,4.87h2.76c-0.15,1.04-0.26,2.09-0.35,3.14H118.74z"/>
</g>
</svg>
