<?xml version="1.0" encoding="utf-8"?>
<!-- Generator: Adobe Illustrator 27.8.1, SVG Export Plug-In . SVG Version: 6.00 Build 0)  -->
<svg version="1.1" id="Layer_1" xmlns="http://www.w3.org/2000/svg" xmlns:xlink="http://www.w3.org/1999/xlink" x="0px" y="0px"
	 viewBox="0 0 350 230" style="enable-background:new 0 0 350 230;" xml:space="preserve">
<style type="text/css">
	.st0{fill:#FFFFFF;}
	.st1{fill:#0B4EA8;}
	.st2{fill:#651500;}
	.st3{fill:#AAAAAA;}
	.st4{fill:#B2930F;}
	.st5{fill:none;stroke:#F6F4E8;stroke-miterlimit:10;stroke-dasharray:2.0034,2.0034;}
	.st6{fill:#9B0000;}
	.st7{fill:#BAB500;}
	.st8{fill:#243506;}
	.st9{fill:#F4551E;}
	.st10{fill:#20F298;}
	.st11{fill:#611D5C;}
	.st12{fill:#698C14;}
	.st13{fill:#DCC900;}
	.st14{fill:#52221F;}
	.st15{fill:#8A8AFF;stroke:#8A8AFF;stroke-width:2;stroke-linecap:round;stroke-linejoin:round;stroke-miterlimit:10;}
	.st16{fill:#550968;}
	.st17{fill:#000042;}
	.st18{fill:#873A06;}
	.st19{fill:#F90606;}
	.st20{fill:#006A72;}
	.st21{fill:#FF0000;}
	.st22{fill:#8A8AFF;}
	.st23{fill:#69A6FF;}
	.st24{fill:#FEBA2B;}
	.st25{fill:#00F47F;}
	.st26{fill:#756400;}
	.st27{fill:#FF9700;}
	.st28{fill:#FF5B00;}
	.st29{fill:#FC9500;}
	.st30{fill:#999999;}
	.st31{fill:#BCBCBC;}
	.st32{fill:#FFBD47;}
	.st33{fill:#F99300;}
	.st34{fill:#008480;}
	.st35{fill-rule:evenodd;clip-rule:evenodd;fill:#1B5376;}
	.st36{fill-rule:evenodd;clip-rule:evenodd;fill:#E2310E;}
	.st37{fill:#00393F;}
	.st38{fill:url(#SVGID_00000036948255633855960170000015839790023712347547_);}
	.st39{fill:#7F0000;}
</style>
<g>
	<path class="st21" d="M143.5,65.18c-1.49-4.83-5.99-8.36-11.31-8.36c-6.53,0-11.84,5.31-11.84,11.83c0,6.53,5.31,11.83,11.84,11.83
		c5.31,0,9.82-3.52,11.31-8.36h62.1c0.95-2.01,2.07-4.36,3.3-6.94H143.5z M132.2,73.55c-2.7,0-4.9-2.2-4.9-4.9
		c0-2.69,2.2-4.89,4.9-4.89c2.69,0,4.89,2.2,4.89,4.89C137.09,71.35,134.89,73.55,132.2,73.55z M234.48,65.18
		c-4.87,2.11-10.71,4.62-16.05,6.94h18.63c1.91-2.66,3.59-5.01,4.98-6.94H234.48z M127.73,88.85c-1.49-4.85-5.99-8.37-11.31-8.37
		c-6.53,0-11.83,5.31-11.83,11.83c0,6.53,5.3,11.83,11.83,11.83c5.31,0,9.82-3.52,11.31-8.36h92.37c1.71-2.38,3.36-4.7,4.98-6.93
		H127.73z M116.43,97.21c-2.7,0-4.9-2.2-4.9-4.9c0-2.69,2.2-4.89,4.9-4.89c2.69,0,4.89,2.2,4.89,4.89
		C121.32,95.01,119.12,97.21,116.43,97.21z M127.73,136.17c-1.49-4.84-5.99-8.36-11.31-8.36c-6.53,0-11.83,5.3-11.83,11.83
		s5.3,11.83,11.83,11.83c5.31,0,9.82-3.52,11.31-8.36h58.44c1.61-2.25,3.28-4.56,4.98-6.94H127.73z M116.43,144.54
		c-2.7,0-4.9-2.2-4.9-4.9c0-2.69,2.2-4.89,4.9-4.89c2.69,0,4.89,2.2,4.89,4.89C121.32,142.34,119.12,144.54,116.43,144.54z"/>
	<path class="st21" d="M143.5,112.5c-1.49-4.83-5.99-8.36-11.31-8.36c-6.53,0-11.84,5.31-11.84,11.83c0,6.53,5.31,11.83,11.84,11.83
		c5.31,0,9.82-3.52,11.31-8.36h59.63c1.66-2.31,3.32-4.63,4.98-6.94H143.5z M132.2,120.87c-2.7,0-4.9-2.2-4.9-4.9
		c0-2.7,2.2-4.9,4.9-4.9c2.69,0,4.89,2.2,4.89,4.9C137.09,118.68,134.89,120.87,132.2,120.87z"/>
	<path class="st21" d="M127.73,41.52c-1.49-4.84-5.99-8.37-11.31-8.37c-6.53,0-11.83,5.31-11.83,11.83c0,6.53,5.3,11.83,11.83,11.83
		c5.31,0,9.82-3.52,11.31-8.36h89.26c1.14-2.34,2.28-4.67,3.38-6.93H127.73z M116.43,49.88c-2.7,0-4.9-2.2-4.9-4.9
		s2.2-4.89,4.9-4.89c2.69,0,4.89,2.19,4.89,4.89S119.12,49.88,116.43,49.88z"/>
	<path class="st22" d="M179.1,147.37l-13.56,24.53c2.19-3.06,8.97-12.51,17.73-24.74L179.1,147.37z M192.61,122.92l-7.32,13.25
		h-7.91l-2.3,6.94h11.09c1.61-2.25,3.28-4.56,4.98-6.94c3.15-4.39,6.43-8.97,9.75-13.6L192.61,122.92z M206.13,98.46l-7.76,14.04
		h-13.15l-2.31,6.94h20.22c1.66-2.31,3.32-4.63,4.98-6.94c3.55-4.96,7.09-9.9,10.5-14.65L206.13,98.46z M192.7,52.06l-4.45,13.12
		h-21.19l-2.18,6.94h40.73c0.95-2.01,2.07-4.36,3.3-6.94c2.07-4.31,4.45-9.25,6.88-14.24L192.7,52.06z M203.79,19.37l-7.51,22.16
		H174.5l-2.19,6.93h44.67c1.14-2.34,2.28-4.67,3.38-6.93c5.82-11.94,10.82-22.09,10.82-22.09C230.2,19.43,216.55,19.38,203.79,19.37
		z M211.86,74.99h-0.01c-5.22,2.29-9.04,4-9.37,4.25c-0.18,0.13,0.45-1.34,1.62-3.9l-19.61,0.91l-4.27,12.59h-20.6l-2.19,6.93h62.67
		c1.71-2.38,3.36-4.7,4.98-6.93c3.96-5.54,7.61-10.63,10.73-14.98L211.86,74.99z M234.48,65.18c-4.87,2.11-10.71,4.62-16.05,6.94
		h18.63c1.91-2.66,3.59-5.01,4.98-6.94c1.46-2.03,2.6-3.63,3.36-4.69C245.19,60.58,240.6,62.55,234.48,65.18z M177.38,136.17
		l-2.3,6.94h6.38l3.84-6.94H177.38z M185.22,112.5l-2.31,6.94h11.62l3.84-6.94H185.22z M167.05,65.18l-2.18,6.94h21.01l2.36-6.94
		H167.05z M174.5,41.52l-2.19,6.93h21.61l2.36-6.93H174.5z M203.67,88.85l-25.76,6.78l2.3-6.78h-20.6l-2.19,6.93h50.19l3.84-6.93
		l1.33-2.4L203.67,88.85z"/>
</g>
</svg>
