<?xml version="1.0" encoding="utf-8"?>
<!-- Generator: Adobe Illustrator 27.8.1, SVG Export Plug-In . SVG Version: 6.00 Build 0)  -->
<svg version="1.1" xmlns="http://www.w3.org/2000/svg" xmlns:xlink="http://www.w3.org/1999/xlink" x="0px" y="0px"
	 viewBox="0 0 350 230" style="enable-background:new 0 0 350 230;" xml:space="preserve">
<style type="text/css">
	.st0{fill:#0E045F;}
	.st1{fill:#CD00FF;}
	.st2{fill:#8CC63F;}
	.st3{fill:#39B54A;}
	.st4{fill:#00770B;}
	.st5{fill:#040051;}
	.st6{fill:#005B59;}
	.st7{fill:#00EDFF;}
	.st8{fill:#006359;}
	.st9{fill:#00006D;}
	.st10{fill:#29004C;}
	.st11{fill:#EB900C;}
	.st12{fill:#DB6E28;}
	.st13{fill:#FFFFFF;}
	.st14{fill:#2D000F;}
	.st15{fill:#660061;}
	.st16{fill:#660061;stroke:#2D002D;stroke-miterlimit:10;}
	.st17{fill:#00AFC6;}
	.st18{fill:#003F39;}
	.st19{fill:#00DCC8;}
	.st20{fill:#FD1F00;}
	.st21{fill:#07186D;}
	.st22{fill:#005C7C;}
	.st23{fill:#8C4B03;}
	.st24{fill:#A38B00;}
	.st25{fill:#20008F;}
	.st26{fill:#003A1D;}
	.st27{fill:#284200;}
	.st28{fill:#00CED8;}
</style>
<g id="Layer_1">
	<g>
		<path class="st0" d="M202.37,60.93c2.51-2.53,5-5.03,7.51-7.56c1.99,2.41,3.69,4.95,5.16,7.65c0.23,0.42-0.01,0.58-0.24,0.81
			c-2.35,2.35-4.69,4.71-7.06,7.04c-0.35,0.34-0.42,0.61-0.23,1.08c2.29,5.63,3.18,11.5,2.58,17.54
			c-1.03,10.35-5.56,18.91-13.54,25.6c-3.99,3.34-8.51,5.7-13.51,7.13c-0.52,0.15-0.48,0.46-0.48,0.83c0,5,0.02,9.99,0,14.99
			c-0.02,4.76-3.06,8.66-7.58,9.8c-6.32,1.59-12.35-3.18-12.39-9.83c-0.03-4.97-0.01-9.95,0.01-14.92c0-0.53-0.14-0.74-0.66-0.91
			c-14.1-4.62-23.17-14.09-26.19-28.62c-2.79-13.44,1.1-25.2,10.94-34.82c5.85-5.72,12.95-9.11,21.07-10.02
			c13.77-1.54,25.18,3.1,34.15,13.68C202.04,60.55,202.17,60.7,202.37,60.93z M171.75,91.43c7.73-7.68,15.39-15.3,23.03-22.9
			c-7.5-10.94-22.89-15.36-35.71-7.99c-12.94,7.44-17.44,23.73-10.11,36.79c7.24,12.91,23.46,17.72,36.62,10.5
			c12.71-6.97,15.9-20.92,13.27-30.12c-9.05,9.05-18.05,18.07-27.07,27.09c-0.11-0.09-0.18-0.14-0.25-0.21
			c-6.67-6.67-13.34-13.35-19.99-20.03c-0.2-0.2-0.31-0.57-0.31-0.86c-0.02-2.18,0.35-4.31,1.05-6.36c0.43-1.26,1.01-2.47,1.57-3.82
			C159.91,79.59,165.82,85.5,171.75,91.43z"/>
		<path class="st1" d="M163.6,73.89c0.06-4.69,3.73-8.18,8.53-8.12c4.26,0.05,7.94,3.92,7.85,8.26c-0.1,4.63-3.79,8.17-8.44,8.09
			C167.14,82.05,163.54,78.31,163.6,73.89z"/>
	</g>
</g>
<g id="Layer_2">
</g>
<g id="Layer_3">
</g>
<g id="Layer_4">
</g>
<g id="Layer_5">
</g>
<g id="Layer_6">
</g>
<g id="Layer_7">
</g>
<g id="Layer_8">
</g>
<g id="Layer_9">
</g>
<g id="Layer_10">
</g>
<g id="Layer_11">
</g>
<g id="Layer_12">
</g>
<g id="Layer_13">
</g>
<g id="Layer_14">
</g>
<g id="Layer_15">
</g>
</svg>
