<?xml version="1.0" encoding="utf-8"?>
<!-- Generator: Adobe Illustrator 27.8.1, SVG Export Plug-In . SVG Version: 6.00 Build 0)  -->
<svg version="1.1" xmlns="http://www.w3.org/2000/svg" xmlns:xlink="http://www.w3.org/1999/xlink" x="0px" y="0px"
	 viewBox="0 0 350 230" style="enable-background:new 0 0 350 230;" xml:space="preserve">
<style type="text/css">
	.st0{fill:#0E045F;}
	.st1{fill:#CD00FF;}
	.st2{fill:#8CC63F;}
	.st3{fill:#39B54A;}
	.st4{fill:#00770B;}
	.st5{fill:#040051;}
	.st6{fill:#005B59;}
	.st7{fill:#00EDFF;}
	.st8{fill:#006359;}
	.st9{fill:#00006D;}
	.st10{fill:#29004C;}
	.st11{fill:#EB900C;}
	.st12{fill:#DB6E28;}
	.st13{fill:#FFFFFF;}
	.st14{fill:#2D000F;}
	.st15{fill:#660061;}
	.st16{fill:#660061;stroke:#2D002D;stroke-miterlimit:10;}
	.st17{fill:#00AFC6;}
	.st18{fill:#003F39;}
	.st19{fill:#00DCC8;}
	.st20{fill:#FD1F00;}
	.st21{fill:#07186D;}
	.st22{fill:#005C7C;}
	.st23{fill:#8C4B03;}
	.st24{fill:#A38B00;}
	.st25{fill:#20008F;}
	.st26{fill:#003A1D;}
	.st27{fill:#284200;}
	.st28{fill:#00CED8;}
</style>
<g id="Layer_1">
</g>
<g id="Layer_2">
</g>
<g id="Layer_3">
</g>
<g id="Layer_4">
</g>
<g id="Layer_5">
</g>
<g id="Layer_6">
</g>
<g id="Layer_7">
</g>
<g id="Layer_8">
</g>
<g id="Layer_9">
</g>
<g id="Layer_10">
	<g id="design_00000002376732524457810480000011227164259431900338_">
		<g>
			<path class="st9" d="M171.73,96.23v4.21h-3.87v-4.21h-2.93v10.79h2.93v-4.21h3.87v4.21h2.93V96.23H171.73z M182.88,102.99
				c0.56-0.27,1-0.65,1.32-1.14c0.34-0.53,0.51-1.18,0.51-1.95c0-0.77-0.17-1.42-0.5-1.97c-0.33-0.55-0.8-0.97-1.4-1.26
				c-0.6-0.3-1.3-0.44-2.1-0.44h-4.66v10.79h2.93v-3.56h1.01l1.9,3.56h3.18L182.88,102.99z M178.98,98.56h1.03
				c0.35,0,0.64,0.05,0.89,0.14c0.24,0.1,0.43,0.24,0.56,0.43c0.13,0.19,0.2,0.45,0.2,0.76c0,0.3-0.07,0.55-0.2,0.74
				c-0.13,0.19-0.32,0.33-0.56,0.41c-0.25,0.09-0.54,0.13-0.89,0.13h-1.03V98.56z"/>
			<path class="st18" d="M175.73,59.44l0.78-1.31c0.34-0.57-0.07-1.29-0.73-1.29h-1.57c-0.66,0-1.07,0.72-0.73,1.29l0.78,1.31
				C174.6,60,175.4,60,175.73,59.44z M176.51,67.06L175,68.71l-1.51-1.64l0.19-1.7l0.66-5.79l0.23-2c0.06-0.5,0.8-0.5,0.86,0l0.23,2
				l0.66,5.79L176.51,67.06z M181.33,59.59l-2.78,3.48l1.14,0.54l-3.18,3.45L175,68.71l-1.51-1.64l-3.18-3.45l1.14-0.54l-2.78-3.48
				c-0.01-0.01-0.01-0.01-0.02-0.02c0.48-0.64,1.08-1.19,1.77-1.63l3.26,7.42l1.32,2.99l1.32-2.99l3.26-7.42
				c0.68,0.44,1.28,0.99,1.77,1.63C181.34,59.58,181.33,59.58,181.33,59.59z M181.46,59.73L178.85,63l1.16,0.55l-4.93,5.36
				c0,0,0,0,0,0c0,0,0,0,0,0c0,0,0,0,0,0c0,0,0,0-0.01,0c0,0-0.01,0-0.01,0.01c0,0,0,0-0.01,0c0,0-0.01,0-0.01,0c0,0,0,0-0.01,0
				c-0.01,0-0.01,0-0.02,0l0,0l0,0c-0.01,0-0.01,0-0.02,0c0,0,0,0-0.01,0c0,0-0.01,0-0.01,0c0,0,0,0-0.01,0c0,0-0.01,0-0.01-0.01
				c0,0,0,0-0.01,0c0,0,0,0,0,0c0,0,0,0,0,0c0,0,0,0,0,0L170,63.55l1.16-0.55l-2.62-3.28c-0.77,1.08-1.22,2.38-1.22,3.79v10.33
				h15.36V63.51C182.68,62.11,182.23,60.8,181.46,59.73z M175,47.84c2.26,0,4.09,1.77,4.09,3.96c0,2.19-1.83,3.96-4.09,3.96
				c-2.26,0-4.09-1.77-4.09-3.96C170.91,49.61,172.74,47.84,175,47.84z M174.27,143.78l-0.78,1.31c-0.34,0.57,0.07,1.29,0.73,1.29
				h1.57c0.66,0,1.07-0.72,0.73-1.29l-0.78-1.31C175.4,143.22,174.6,143.22,174.27,143.78z M173.49,136.16l1.51-1.64l1.51,1.64
				l-0.19,1.7l-0.66,5.79l-0.23,2c-0.06,0.5-0.8,0.5-0.86,0l-0.23-2l-0.66-5.79L173.49,136.16z M168.67,143.63l2.78-3.48l-1.14-0.54
				l3.18-3.45l1.51-1.64l1.51,1.64l3.18,3.45l-1.14,0.54l2.78,3.48c0.01,0.01,0.01,0.01,0.02,0.02c-0.48,0.64-1.08,1.19-1.77,1.63
				l-3.26-7.42l-1.32-2.99l-1.32,2.99l-3.26,7.42c-0.68-0.44-1.28-0.99-1.77-1.63C168.66,143.64,168.67,143.64,168.67,143.63z
				 M168.54,143.49l2.62-3.28l-1.16-0.55l4.93-5.36c0,0,0,0,0,0c0,0,0,0,0,0c0,0,0,0,0,0c0,0,0,0,0.01,0c0,0,0.01,0,0.01-0.01
				c0,0,0,0,0.01,0c0,0,0.01,0,0.01,0c0,0,0,0,0.01,0c0.01,0,0.01,0,0.02,0l0,0l0,0c0.01,0,0.01,0,0.02,0c0,0,0,0,0.01,0
				c0,0,0.01,0,0.01,0c0,0,0,0,0.01,0c0,0,0.01,0,0.01,0.01c0,0,0,0,0.01,0c0,0,0,0,0,0c0,0,0,0,0,0c0,0,0,0,0,0l4.93,5.36
				l-1.16,0.55l2.62,3.28c0.77-1.08,1.22-2.38,1.22-3.79v-10.33h-15.36v10.33C167.32,141.11,167.77,142.42,168.54,143.49z
				 M175,147.46c2.26,0,4.09,1.77,4.09,3.96s-1.83,3.96-4.09,3.96c-2.26,0-4.09-1.77-4.09-3.96S172.74,147.46,175,147.46z
				 M207.11,94.73l-0.16-0.77h-5.7c-0.55-1.9-1.32-3.74-2.27-5.47l4.03-4.03l-0.43-0.66c-2.5-3.87-5.88-7.24-9.75-9.75l-0.66-0.43
				l-4.03,4.03c-1.73-0.95-3.56-1.71-5.46-2.27v-5.7l-0.77-0.16c-4.5-0.96-9.3-0.96-13.8,0l-0.77,0.16v5.7
				c-1.9,0.55-3.73,1.31-5.46,2.27l-4.03-4.03l-0.66,0.43c-3.88,2.51-7.25,5.88-9.75,9.75L147,84.46l4.03,4.03
				c-0.95,1.73-1.71,3.57-2.27,5.47h-5.7l-0.16,0.77c-0.48,2.25-0.73,4.57-0.73,6.89c0,2.33,0.25,4.65,0.73,6.9l0.16,0.77h5.7
				c0.55,1.9,1.31,3.74,2.27,5.47l-4.03,4.03l0.43,0.66c2.51,3.88,5.88,7.25,9.75,9.75l0.66,0.43l4.03-4.03
				c1.74,0.95,3.57,1.71,5.46,2.27v5.7l0.77,0.16c2.25,0.48,4.57,0.73,6.9,0.73c2.33,0,4.64-0.25,6.89-0.73l0.77-0.16v-5.7
				c1.9-0.56,3.74-1.32,5.46-2.27l4.03,4.03l0.66-0.43c3.87-2.5,7.24-5.87,9.75-9.75l0.43-0.66l-4.03-4.03
				c0.95-1.73,1.71-3.56,2.27-5.47h5.7l0.16-0.77c0.48-2.25,0.73-4.57,0.73-6.9C207.83,99.29,207.59,96.97,207.11,94.73z
				 M181.27,114.47c-0.53,0.26-1.07,0.48-1.61,0.67c-1.5,0.51-3.06,0.78-4.65,0.78c-1.6,0-3.16-0.26-4.66-0.78
				c-0.54-0.19-1.08-0.41-1.61-0.67c-2.85-1.4-5.19-3.74-6.58-6.58c-0.26-0.53-0.48-1.07-0.67-1.61c-0.51-1.49-0.78-3.06-0.78-4.65
				c0-1.6,0.26-3.16,0.78-4.66c0.19-0.53,0.41-1.07,0.67-1.61c1.39-2.85,3.73-5.19,6.58-6.59c0.53-0.26,1.07-0.48,1.61-0.67
				c1.49-0.52,3.06-0.78,4.66-0.78c1.59,0,3.16,0.26,4.65,0.78c0.54,0.19,1.08,0.41,1.61,0.67c2.85,1.4,5.19,3.73,6.58,6.58
				c0.26,0.54,0.48,1.08,0.67,1.61c0.52,1.5,0.78,3.06,0.78,4.66c0,1.59-0.26,3.16-0.78,4.65c-0.19,0.54-0.41,1.08-0.67,1.61
				C186.46,110.73,184.12,113.07,181.27,114.47z"/>
			<path class="st18" d="M205.33,72.31l1.48-0.38c0.64-0.16,0.86-0.96,0.39-1.43l-1.11-1.11c-0.47-0.47-1.26-0.25-1.43,0.39
				l-0.38,1.48C204.14,71.9,204.71,72.47,205.33,72.31z M200.5,78.25l-2.23,0.09l0.09-2.23l1.34-1.07l4.56-3.63l1.58-1.25
				c0.39-0.31,0.92,0.22,0.61,0.61l-1.25,1.58l-3.63,4.56L200.5,78.25z M209.19,76.37l-4.43,0.5l0.43,1.19l-4.69,0.19l-2.23,0.09
				l0.09-2.23l0.19-4.69l1.19,0.43l0.5-4.43c0-0.01,0-0.02,0-0.03c0.79-0.11,1.61-0.08,2.4,0.1l-2.94,7.55l-1.18,3.05l3.05-1.18
				l7.55-2.94c0.17,0.79,0.21,1.61,0.1,2.4C209.2,76.37,209.2,76.37,209.19,76.37z M209.18,76.56l-4.17,0.47l0.43,1.2l-7.28,0.3
				c0,0,0,0,0,0c0,0,0,0-0.01,0c0,0,0,0-0.01,0c0,0-0.01,0-0.01,0c0,0-0.01,0-0.01,0c0,0,0,0-0.01,0c0,0-0.01,0-0.01-0.01
				c0,0,0,0,0,0c-0.01,0-0.01-0.01-0.01-0.01l0,0l0,0c0,0-0.01-0.01-0.01-0.01c0,0,0,0,0,0c0,0,0-0.01-0.01-0.01c0,0,0,0,0-0.01
				c0,0,0-0.01,0-0.01c0,0,0-0.01,0-0.01c0,0,0,0,0-0.01c0,0,0,0,0-0.01c0,0,0,0,0-0.01l0.3-7.28l1.2,0.43l0.47-4.17
				c-1.3,0.22-2.54,0.82-3.54,1.82l-7.3,7.3l10.86,10.86l7.3-7.3C208.36,79.11,208.97,77.87,209.18,76.56z M207.33,63.5
				c1.55-1.55,4.09-1.51,5.69,0.09c1.6,1.6,1.64,4.14,0.09,5.69s-4.09,1.51-5.69-0.09C205.82,67.59,205.78,65.04,207.33,63.5z
				 M144.67,130.91l-1.48,0.38c-0.64,0.16-0.86,0.96-0.39,1.43l1.11,1.11c0.47,0.47,1.26,0.25,1.43-0.39l0.38-1.48
				C145.86,131.32,145.29,130.75,144.67,130.91z M149.5,124.97l2.23-0.09l-0.09,2.23l-1.34,1.07l-4.56,3.63l-1.58,1.25
				c-0.39,0.31-0.92-0.22-0.61-0.61l1.25-1.58l3.63-4.56L149.5,124.97z M140.81,126.85l4.43-0.5l-0.43-1.19l4.69-0.19l2.23-0.09
				l-0.09,2.23l-0.19,4.69l-1.19-0.43l-0.5,4.43c0,0.01,0,0.02,0,0.03c-0.79,0.11-1.61,0.08-2.4-0.1l2.94-7.55l1.18-3.05l-3.05,1.18
				l-7.55,2.94c-0.17-0.79-0.21-1.61-0.1-2.4C140.79,126.85,140.8,126.85,140.81,126.85z M140.82,126.66l4.17-0.47l-0.43-1.2
				l7.28-0.3c0,0,0,0,0,0c0,0,0,0,0.01,0c0,0,0,0,0.01,0c0,0,0.01,0,0.01,0c0,0,0.01,0,0.01,0c0,0,0,0,0.01,0c0,0,0.01,0,0.01,0.01
				c0,0,0,0,0,0c0.01,0,0.01,0.01,0.01,0.01l0,0l0,0c0,0,0.01,0.01,0.01,0.01c0,0,0,0,0,0c0,0,0,0.01,0.01,0.01c0,0,0,0,0,0.01
				c0,0,0,0.01,0,0.01c0,0,0,0.01,0,0.01c0,0,0,0,0,0.01c0,0,0,0,0,0.01c0,0,0,0,0,0.01l-0.3,7.28l-1.2-0.43l-0.47,4.17
				c1.3-0.22,2.54-0.82,3.54-1.82l7.3-7.3l-10.86-10.86l-7.3,7.3C141.64,124.11,141.03,125.35,140.82,126.66z M136.89,133.94
				c1.55-1.55,4.09-1.51,5.69,0.09c1.6,1.6,1.64,4.14,0.09,5.69s-4.09,1.51-5.69-0.09C135.38,138.04,135.34,135.49,136.89,133.94z
				 M217.17,102.34l1.31,0.78c0.57,0.34,1.29-0.07,1.29-0.73v-1.57c0-0.66-0.72-1.07-1.29-0.73l-1.31,0.78
				C216.61,101.21,216.61,102.01,217.17,102.34z M209.55,103.12l-1.64-1.51l1.64-1.51l1.7,0.19l5.79,0.66l2,0.23
				c0.5,0.06,0.5,0.8,0,0.86l-2,0.23l-5.79,0.66L209.55,103.12z M217.02,107.94l-3.48-2.78L213,106.3l-3.45-3.18l-1.64-1.51
				l1.64-1.51l3.45-3.18l0.54,1.14l3.48-2.78c0.01-0.01,0.01-0.01,0.02-0.02c0.64,0.48,1.19,1.08,1.63,1.77l-7.42,3.26l-2.99,1.32
				l2.99,1.32l7.42,3.26c-0.44,0.68-0.99,1.28-1.63,1.77C217.03,107.95,217.03,107.94,217.02,107.94z M216.88,108.07l-3.28-2.62
				l-0.55,1.16l-5.36-4.93c0,0,0,0,0,0c0,0,0,0,0,0c0,0,0,0,0,0c0,0,0,0,0-0.01c0,0,0-0.01-0.01-0.01c0,0,0,0,0-0.01
				c0,0,0-0.01,0-0.01c0,0,0,0,0-0.01c0-0.01,0-0.01,0-0.02l0,0l0,0c0-0.01,0-0.01,0-0.02c0,0,0,0,0-0.01c0,0,0-0.01,0-0.01
				c0,0,0,0,0-0.01c0,0,0-0.01,0.01-0.01c0,0,0,0,0-0.01c0,0,0,0,0,0c0,0,0,0,0,0c0,0,0,0,0,0l5.36-4.93l0.55,1.16l3.28-2.62
				c-1.08-0.77-2.38-1.22-3.79-1.22h-10.33v15.36h10.33C214.5,109.29,215.81,108.84,216.88,108.07z M224.81,97.52
				c2.19,0,3.96,1.83,3.96,4.09c0,2.26-1.77,4.09-3.96,4.09s-3.96-1.83-3.96-4.09C220.85,99.35,222.62,97.52,224.81,97.52z
				 M132.83,100.88l-1.31-0.78c-0.57-0.34-1.29,0.07-1.29,0.73v1.57c0,0.66,0.72,1.07,1.29,0.73l1.31-0.78
				C133.39,102.01,133.39,101.21,132.83,100.88z M140.45,100.1l1.64,1.51l-1.64,1.51l-1.7-0.19l-5.79-0.66l-2-0.23
				c-0.5-0.06-0.5-0.8,0-0.86l2-0.23l5.79-0.66L140.45,100.1z M132.98,95.28l3.48,2.78l0.54-1.14l3.45,3.18l1.64,1.51l-1.64,1.51
				L137,106.3l-0.54-1.14l-3.48,2.78c-0.01,0.01-0.01,0.01-0.02,0.02c-0.64-0.48-1.19-1.08-1.63-1.77l7.42-3.26l2.99-1.32
				l-2.99-1.32l-7.42-3.26c0.44-0.68,0.99-1.28,1.63-1.77C132.97,95.27,132.97,95.28,132.98,95.28z M133.12,95.15l3.28,2.62
				l0.55-1.16l5.36,4.93c0,0,0,0,0,0c0,0,0,0,0,0c0,0,0,0,0,0c0,0,0,0,0,0.01c0,0,0,0.01,0.01,0.01c0,0,0,0,0,0.01
				c0,0,0,0.01,0,0.01c0,0,0,0,0,0.01c0,0.01,0,0.01,0,0.02l0,0l0,0c0,0.01,0,0.01,0,0.02c0,0,0,0,0,0.01c0,0,0,0.01,0,0.01
				c0,0,0,0,0,0.01c0,0,0,0.01-0.01,0.01c0,0,0,0,0,0.01c0,0,0,0,0,0s0,0,0,0c0,0,0,0,0,0l-5.36,4.93l-0.55-1.16l-3.28,2.62
				c1.08,0.77,2.38,1.22,3.79,1.22h10.33V93.93H136.9C135.5,93.93,134.19,94.38,133.12,95.15z M125.19,97.52
				c2.19,0,3.96,1.83,3.96,4.09c0,2.26-1.77,4.09-3.96,4.09s-3.96-1.83-3.96-4.09C121.23,99.35,123,97.52,125.19,97.52z
				 M204.3,131.94l0.38,1.48c0.16,0.64,0.96,0.86,1.43,0.39l1.11-1.11c0.47-0.47,0.25-1.26-0.39-1.43l-1.48-0.38
				C204.71,130.75,204.14,131.32,204.3,131.94z M198.36,127.11l-0.09-2.23l2.23,0.09l1.07,1.34l3.63,4.56l1.25,1.58
				c0.31,0.39-0.22,0.92-0.61,0.61l-1.58-1.25l-4.56-3.63L198.36,127.11z M200.24,135.8l-0.5-4.43l-1.19,0.43l-0.19-4.69l-0.09-2.23
				l2.23,0.09l4.69,0.19l-0.43,1.19l4.43,0.5c0.01,0,0.02,0,0.03,0c0.11,0.79,0.08,1.61-0.1,2.4l-7.55-2.94l-3.05-1.18l1.18,3.05
				l2.94,7.55c-0.79,0.17-1.61,0.21-2.4,0.1C200.24,135.82,200.24,135.81,200.24,135.8z M200.05,135.79l-0.47-4.17l-1.2,0.43
				l-0.3-7.28c0,0,0,0,0,0c0,0,0,0,0-0.01c0,0,0,0,0-0.01c0,0,0-0.01,0-0.01c0,0,0-0.01,0-0.01c0,0,0,0,0-0.01c0,0,0-0.01,0.01-0.01
				c0,0,0,0,0,0c0-0.01,0.01-0.01,0.01-0.01l0,0l0,0c0,0,0.01-0.01,0.01-0.01c0,0,0,0,0,0c0,0,0.01,0,0.01-0.01c0,0,0,0,0.01,0
				c0,0,0.01,0,0.01,0c0,0,0.01,0,0.01,0c0,0,0,0,0.01,0c0,0,0,0,0.01,0c0,0,0,0,0.01,0l7.28,0.3l-0.43,1.2l4.17,0.47
				c-0.22-1.3-0.82-2.54-1.82-3.54l-7.3-7.3l-10.86,10.86l7.3,7.3C197.5,134.97,198.74,135.58,200.05,135.79z M207.42,134.03
				c1.6-1.6,4.14-1.64,5.69-0.09s1.51,4.09-0.09,5.69c-1.6,1.6-4.14,1.64-5.69,0.09S205.82,135.63,207.42,134.03z M145.7,71.28
				l-0.38-1.48c-0.16-0.64-0.96-0.86-1.43-0.39l-1.11,1.11c-0.47,0.47-0.25,1.26,0.39,1.43l1.48,0.38
				C145.29,72.47,145.86,71.9,145.7,71.28z M151.64,76.11l0.09,2.23l-2.23-0.09l-1.07-1.34l-3.63-4.56l-1.25-1.58
				c-0.31-0.39,0.22-0.92,0.61-0.61l1.58,1.25l4.56,3.63L151.64,76.11z M149.76,67.42l0.5,4.43l1.19-0.43l0.19,4.69l0.09,2.23
				l-2.23-0.09l-4.69-0.19l0.43-1.19l-4.43-0.5c-0.01,0-0.02,0-0.03,0c-0.11-0.79-0.08-1.61,0.1-2.4l7.55,2.94l3.05,1.18l-1.18-3.05
				l-2.94-7.55c0.79-0.17,1.61-0.21,2.4-0.1C149.76,67.41,149.76,67.41,149.76,67.42z M149.95,67.43l0.47,4.17l1.2-0.43l0.3,7.28
				c0,0,0,0,0,0c0,0,0,0,0,0.01c0,0,0,0,0,0.01c0,0,0,0.01,0,0.01c0,0,0,0.01,0,0.01c0,0,0,0,0,0.01c0,0,0,0.01-0.01,0.01
				c0,0,0,0,0,0c0,0.01-0.01,0.01-0.01,0.01l0,0l0,0c0,0-0.01,0.01-0.01,0.01c0,0,0,0,0,0c0,0-0.01,0-0.01,0.01c0,0,0,0-0.01,0
				c0,0-0.01,0-0.01,0c0,0-0.01,0-0.01,0c0,0,0,0-0.01,0c0,0,0,0-0.01,0c0,0,0,0-0.01,0l-7.28-0.3l0.43-1.2l-4.17-0.47
				c0.22,1.3,0.82,2.54,1.82,3.54l7.3,7.3l10.86-10.86l-7.3-7.3C152.5,68.25,151.26,67.64,149.95,67.43z M136.98,63.59
				c1.6-1.6,4.14-1.64,5.69-0.09s1.51,4.09-0.09,5.69c-1.6,1.6-4.14,1.64-5.69,0.09C135.34,67.73,135.38,65.18,136.98,63.59z"/>
		</g>
	</g>
</g>
<g id="Layer_11">
</g>
<g id="Layer_12">
</g>
<g id="Layer_13">
</g>
<g id="Layer_14">
</g>
<g id="Layer_15">
</g>
</svg>
