<?xml version="1.0" encoding="utf-8"?>
<!-- Generator: Adobe Illustrator 27.8.1, SVG Export Plug-In . SVG Version: 6.00 Build 0)  -->
<svg version="1.1" xmlns="http://www.w3.org/2000/svg" xmlns:xlink="http://www.w3.org/1999/xlink" x="0px" y="0px"
	 viewBox="0 0 350 230" style="enable-background:new 0 0 350 230;" xml:space="preserve">
<style type="text/css">
	.st0{fill:#0E045F;}
	.st1{fill:#CD00FF;}
	.st2{fill:#8CC63F;}
	.st3{fill:#39B54A;}
	.st4{fill:#00770B;}
	.st5{fill:#040051;}
	.st6{fill:#005B59;}
	.st7{fill:#00EDFF;}
	.st8{fill:#006359;}
	.st9{fill:#00006D;}
	.st10{fill:#29004C;}
	.st11{fill:#EB900C;}
	.st12{fill:#DB6E28;}
	.st13{fill:#FFFFFF;}
	.st14{fill:#2D000F;}
	.st15{fill:#660061;}
	.st16{fill:#660061;stroke:#2D002D;stroke-miterlimit:10;}
	.st17{fill:#00AFC6;}
	.st18{fill:#003F39;}
	.st19{fill:#00DCC8;}
	.st20{fill:#FD1F00;}
	.st21{fill:#07186D;}
	.st22{fill:#005C7C;}
	.st23{fill:#8C4B03;}
	.st24{fill:#A38B00;}
	.st25{fill:#20008F;}
	.st26{fill:#003A1D;}
	.st27{fill:#284200;}
	.st28{fill:#00CED8;}
</style>
<g id="Layer_1">
</g>
<g id="Layer_2">
</g>
<g id="Layer_3">
</g>
<g id="Layer_4">
</g>
<g id="Layer_5">
</g>
<g id="Layer_6">
</g>
<g id="Layer_7">
</g>
<g id="Layer_8">
</g>
<g id="Layer_9">
</g>
<g id="Layer_10">
</g>
<g id="Layer_11">
</g>
<g id="Layer_12">
	<g id="Isolation_Mode">
		<g>
			<path class="st21" d="M193.61,132.2c0.11-0.04,0.22-0.09,0.33-0.13c0.06-0.02,0.11-0.04,0.17-0.07c0.06-0.02,0.11-0.04,0.17-0.06
				c0.11-0.04,0.22-0.08,0.33-0.13c0.44-0.16,0.87-0.32,1.29-0.46c0.42-0.14,0.84-0.27,1.24-0.4c0.2-0.06,0.4-0.12,0.6-0.18
				c0.1-0.03,0.19-0.06,0.29-0.08c0.1-0.03,0.19-0.05,0.29-0.08c0.09-0.03,0.19-0.05,0.28-0.08c0.09-0.02,0.18-0.05,0.28-0.07
				c0.18-0.05,0.36-0.09,0.53-0.13c0.35-0.09,0.68-0.16,0.99-0.23c0.62-0.13,1.17-0.24,1.63-0.31c0.45-0.08,0.81-0.13,1.06-0.16
				c0.12-0.02,0.22-0.03,0.28-0.03c0.06-0.01,0.1-0.01,0.1-0.01s-0.03,0-0.1-0.01c-0.06,0-0.16-0.01-0.28-0.01
				c-0.25-0.01-0.61-0.02-1.07-0.01c-0.46,0-1.03,0.02-1.67,0.05c-0.32,0.02-0.67,0.04-1.03,0.07c-0.18,0.01-0.37,0.03-0.56,0.05
				c-0.1,0.01-0.19,0.02-0.29,0.03c-0.1,0.01-0.2,0.02-0.29,0.03c-0.1,0.01-0.2,0.02-0.3,0.03c-0.1,0.01-0.2,0.02-0.31,0.04
				c-0.21,0.02-0.42,0.05-0.63,0.08c-0.43,0.06-0.87,0.12-1.32,0.2c-0.45,0.07-0.92,0.16-1.39,0.26c-0.12,0.02-0.24,0.05-0.36,0.07
				c-0.06,0.01-0.12,0.02-0.18,0.04c-0.06,0.01-0.12,0.03-0.18,0.04c-0.12,0.03-0.24,0.05-0.36,0.08c-0.12,0.03-0.24,0.06-0.37,0.09
				c-0.16,0.04-0.33,0.08-0.49,0.12c0.34-0.15,0.68-0.3,1.02-0.44c0.11-0.05,0.22-0.09,0.33-0.14c0.11-0.04,0.22-0.09,0.33-0.13
				c0.06-0.02,0.11-0.04,0.17-0.07c0.06-0.02,0.11-0.04,0.17-0.06c0.11-0.04,0.22-0.08,0.33-0.13c0.44-0.16,0.87-0.32,1.29-0.46
				c0.42-0.14,0.84-0.27,1.24-0.4c0.2-0.06,0.4-0.12,0.6-0.18c0.1-0.03,0.19-0.06,0.29-0.08c0.1-0.03,0.19-0.05,0.29-0.08
				c0.09-0.03,0.19-0.05,0.28-0.08c0.09-0.02,0.18-0.05,0.28-0.07c0.18-0.05,0.36-0.09,0.53-0.13c0.35-0.09,0.68-0.16,0.99-0.23
				c0.62-0.13,1.17-0.24,1.63-0.31c0.45-0.08,0.81-0.13,1.06-0.16c0.12-0.02,0.22-0.03,0.28-0.03c0.06-0.01,0.1-0.01,0.1-0.01
				s-0.03,0-0.1-0.01c-0.06,0-0.16-0.01-0.28-0.01c-0.25-0.01-0.61-0.02-1.07-0.01c-0.46,0-1.03,0.02-1.67,0.05
				c-0.32,0.02-0.67,0.04-1.03,0.07c-0.18,0.01-0.37,0.03-0.56,0.05c-0.1,0.01-0.19,0.02-0.29,0.03c-0.1,0.01-0.2,0.02-0.29,0.03
				c-0.1,0.01-0.2,0.02-0.3,0.03c-0.1,0.01-0.2,0.02-0.31,0.04c-0.21,0.02-0.42,0.05-0.63,0.08c-0.43,0.06-0.87,0.12-1.32,0.2
				c-0.45,0.07-0.92,0.16-1.39,0.26c-0.12,0.02-0.24,0.05-0.36,0.07c-0.06,0.01-0.12,0.03-0.18,0.04c-0.06,0.01-0.12,0.03-0.18,0.04
				c-0.12,0.03-0.24,0.05-0.36,0.08c-0.12,0.03-0.24,0.06-0.37,0.09c-0.98,0.23-1.99,0.51-3.01,0.84c-0.06,0.02-0.13,0.04-0.19,0.06
				c-0.06,0.02-0.13,0.04-0.19,0.06c-0.13,0.04-0.25,0.09-0.38,0.13c-0.06,0.02-0.13,0.04-0.19,0.07c-0.06,0.02-0.13,0.04-0.19,0.07
				c-0.06,0.02-0.13,0.05-0.19,0.07c-0.06,0.02-0.13,0.04-0.19,0.07c-0.13,0.05-0.25,0.1-0.38,0.14l-0.19,0.07l-0.19,0.07
				c-0.13,0.05-0.25,0.1-0.38,0.15c-0.13,0.05-0.25,0.1-0.38,0.16l-0.19,0.08c-0.06,0.03-0.13,0.05-0.19,0.08
				c-0.13,0.05-0.25,0.11-0.38,0.16l-0.19,0.08c-0.06,0.03-0.12,0.06-0.19,0.09c-0.12,0.06-0.25,0.11-0.37,0.17
				c-0.13,0.06-0.25,0.12-0.37,0.18c-0.12,0.06-0.25,0.12-0.37,0.18c-0.12,0.06-0.24,0.12-0.36,0.19c-0.06,0.03-0.12,0.06-0.18,0.09
				c-0.06,0.03-0.12,0.06-0.18,0.09c-0.96,0.51-1.89,1.05-2.77,1.62c-0.88,0.57-1.7,1.17-2.46,1.76c-0.09,0.08-0.19,0.15-0.28,0.23
				c-0.05,0.04-0.09,0.07-0.14,0.11c-0.05,0.04-0.09,0.07-0.14,0.11c-0.18,0.15-0.36,0.3-0.53,0.45c-0.04,0.04-0.09,0.07-0.13,0.11
				c-0.04,0.04-0.08,0.07-0.13,0.11c-0.08,0.07-0.17,0.15-0.25,0.22c-0.17,0.15-0.32,0.29-0.48,0.44c-0.31,0.29-0.6,0.58-0.88,0.85
				c-0.03,0.03-0.07,0.07-0.1,0.1c-0.03,0.03-0.07,0.07-0.1,0.1c-0.03,0.03-0.06,0.06-0.09,0.09c-0.03-0.03-0.06-0.06-0.09-0.09
				c-0.03-0.03-0.07-0.07-0.1-0.1c-0.03-0.03-0.07-0.07-0.1-0.1c-0.28-0.27-0.56-0.56-0.88-0.85c-0.16-0.14-0.31-0.29-0.48-0.44
				c-0.08-0.07-0.17-0.15-0.25-0.22c-0.04-0.04-0.08-0.07-0.13-0.11c-0.04-0.04-0.08-0.08-0.13-0.11c-0.17-0.15-0.35-0.3-0.53-0.45
				c-0.04-0.04-0.09-0.07-0.14-0.11c-0.05-0.04-0.09-0.07-0.14-0.11c-0.09-0.07-0.19-0.15-0.28-0.23c-0.76-0.6-1.59-1.19-2.46-1.76
				c-0.88-0.57-1.81-1.12-2.77-1.62c-0.06-0.03-0.12-0.06-0.18-0.09c-0.06-0.03-0.12-0.06-0.18-0.09c-0.12-0.06-0.24-0.12-0.36-0.19
				c-0.12-0.06-0.25-0.12-0.37-0.18c-0.12-0.06-0.25-0.12-0.37-0.18c-0.12-0.06-0.25-0.11-0.37-0.17c-0.06-0.03-0.12-0.06-0.19-0.09
				l-0.19-0.08c-0.13-0.05-0.25-0.11-0.38-0.16c-0.06-0.03-0.13-0.05-0.19-0.08l-0.19-0.08c-0.13-0.05-0.25-0.11-0.38-0.16
				c-0.13-0.05-0.25-0.1-0.38-0.15l-0.19-0.07l-0.19-0.07c-0.13-0.05-0.25-0.1-0.38-0.14c-0.06-0.02-0.13-0.05-0.19-0.07
				c-0.06-0.02-0.13-0.05-0.19-0.07c-0.06-0.02-0.13-0.05-0.19-0.07c-0.06-0.02-0.13-0.05-0.19-0.07c-0.13-0.04-0.26-0.09-0.38-0.13
				c-0.06-0.02-0.13-0.04-0.19-0.06c-0.06-0.02-0.13-0.04-0.19-0.06c-1.02-0.32-2.03-0.6-3.01-0.84c-0.12-0.03-0.25-0.06-0.37-0.09
				c-0.12-0.03-0.24-0.05-0.36-0.08c-0.06-0.01-0.12-0.03-0.18-0.04c-0.06-0.01-0.12-0.03-0.18-0.04c-0.12-0.02-0.24-0.05-0.36-0.07
				c-0.48-0.09-0.94-0.18-1.39-0.26c-0.45-0.08-0.9-0.14-1.32-0.2c-0.21-0.03-0.42-0.06-0.63-0.08c-0.1-0.01-0.21-0.02-0.31-0.04
				c-0.1-0.01-0.2-0.02-0.3-0.03c-0.1-0.01-0.2-0.02-0.29-0.03c-0.1-0.01-0.19-0.02-0.29-0.03c-0.19-0.02-0.38-0.03-0.56-0.05
				c-0.36-0.03-0.71-0.05-1.03-0.07c-0.65-0.03-1.21-0.05-1.67-0.05c-0.46,0-0.83,0-1.07,0.01c-0.12,0-0.22,0.01-0.28,0.01
				c-0.06,0-0.1,0.01-0.1,0.01s0.03,0,0.1,0.01c0.06,0.01,0.16,0.02,0.28,0.03c0.24,0.03,0.6,0.08,1.06,0.16
				c0.45,0.08,1,0.18,1.63,0.31c0.31,0.07,0.64,0.14,0.99,0.23c0.17,0.04,0.35,0.09,0.53,0.13c0.09,0.02,0.18,0.05,0.28,0.07
				c0.09,0.02,0.19,0.05,0.28,0.08c0.09,0.03,0.19,0.05,0.29,0.08c0.1,0.03,0.19,0.06,0.29,0.08c0.2,0.06,0.39,0.12,0.6,0.18
				c0.4,0.12,0.82,0.25,1.24,0.4c0.42,0.14,0.86,0.3,1.29,0.46c0.11,0.04,0.22,0.08,0.33,0.13c0.06,0.02,0.11,0.04,0.17,0.06
				c0.06,0.02,0.11,0.04,0.17,0.07c0.11,0.04,0.22,0.09,0.33,0.13c0.11,0.05,0.22,0.09,0.33,0.14c0.34,0.14,0.68,0.29,1.02,0.44
				c-0.17-0.04-0.33-0.08-0.49-0.12c-0.12-0.03-0.25-0.06-0.37-0.09c-0.12-0.03-0.24-0.05-0.36-0.08c-0.06-0.01-0.12-0.03-0.18-0.04
				c-0.06-0.01-0.12-0.03-0.18-0.04c-0.12-0.02-0.24-0.05-0.36-0.07c-0.48-0.09-0.94-0.18-1.39-0.26c-0.45-0.08-0.9-0.14-1.32-0.2
				c-0.21-0.03-0.42-0.06-0.63-0.08c-0.1-0.01-0.21-0.02-0.31-0.04c-0.1-0.01-0.2-0.02-0.3-0.03c-0.1-0.01-0.2-0.02-0.29-0.03
				c-0.1-0.01-0.19-0.02-0.29-0.03c-0.19-0.02-0.38-0.03-0.56-0.05c-0.36-0.03-0.71-0.05-1.03-0.07c-0.65-0.03-1.21-0.05-1.67-0.05
				c-0.46,0-0.83,0-1.07,0.01c-0.12,0-0.22,0.01-0.28,0.01c-0.06,0-0.1,0.01-0.1,0.01s0.03,0,0.1,0.01
				c0.06,0.01,0.16,0.02,0.28,0.03c0.24,0.03,0.6,0.08,1.06,0.16c0.45,0.08,1,0.18,1.63,0.31c0.31,0.07,0.64,0.14,0.99,0.23
				c0.17,0.04,0.35,0.09,0.53,0.13c0.09,0.02,0.18,0.05,0.28,0.07c0.09,0.02,0.19,0.05,0.28,0.08c0.09,0.03,0.19,0.05,0.29,0.08
				c0.1,0.03,0.19,0.06,0.29,0.08c0.2,0.06,0.39,0.12,0.6,0.18c0.4,0.12,0.82,0.25,1.24,0.4c0.42,0.14,0.86,0.3,1.29,0.46
				c0.11,0.04,0.22,0.08,0.33,0.13c0.06,0.02,0.11,0.04,0.17,0.06c0.06,0.02,0.11,0.04,0.17,0.07c0.11,0.04,0.22,0.09,0.33,0.13
				c0.11,0.05,0.22,0.09,0.33,0.14c0.11,0.04,0.21,0.09,0.32,0.13c-0.05-0.01-0.1-0.02-0.16-0.04c-0.12-0.03-0.24-0.05-0.36-0.08
				c-0.06-0.01-0.12-0.03-0.18-0.04c-0.06-0.01-0.12-0.03-0.18-0.04c-0.12-0.02-0.24-0.05-0.36-0.07c-0.48-0.09-0.94-0.18-1.39-0.25
				c-0.45-0.08-0.9-0.14-1.32-0.2c-0.21-0.03-0.42-0.06-0.63-0.08c-0.1-0.01-0.21-0.02-0.31-0.04c-0.1-0.01-0.2-0.02-0.3-0.03
				c-0.1-0.01-0.2-0.02-0.29-0.03c-0.1-0.01-0.19-0.02-0.29-0.03c-0.19-0.02-0.38-0.03-0.56-0.05c-0.36-0.03-0.71-0.05-1.03-0.07
				c-0.65-0.03-1.21-0.05-1.67-0.05c-0.46,0-0.83,0-1.07,0.01c-0.12,0-0.22,0.01-0.28,0.01c-0.06,0-0.1,0.01-0.1,0.01
				s0.03,0,0.1,0.01c0.06,0.01,0.16,0.02,0.28,0.03c0.24,0.03,0.6,0.08,1.06,0.16c0.45,0.08,1,0.18,1.63,0.31
				c0.31,0.07,0.64,0.14,0.99,0.23c0.17,0.04,0.35,0.09,0.53,0.13c0.09,0.02,0.18,0.05,0.28,0.07c0.09,0.02,0.19,0.05,0.28,0.08
				c0.09,0.03,0.19,0.05,0.29,0.08c0.1,0.03,0.19,0.06,0.29,0.08c0.2,0.06,0.39,0.12,0.6,0.18c0.4,0.12,0.82,0.25,1.24,0.4
				c0.42,0.14,0.86,0.3,1.29,0.46c0.11,0.04,0.22,0.08,0.33,0.13c0.06,0.02,0.11,0.04,0.17,0.06c0.06,0.02,0.11,0.04,0.17,0.07
				c0.11,0.04,0.22,0.09,0.33,0.13c0.11,0.05,0.22,0.09,0.33,0.14c0.9,0.37,1.8,0.79,2.7,1.24c0.06,0.03,0.11,0.06,0.17,0.09
				c0.06,0.03,0.11,0.06,0.17,0.09c0.11,0.06,0.22,0.12,0.34,0.18c0.06,0.03,0.11,0.06,0.17,0.09c0.06,0.03,0.11,0.06,0.17,0.09
				c0.06,0.03,0.11,0.06,0.17,0.09c0.06,0.03,0.11,0.06,0.17,0.09c0.11,0.06,0.22,0.13,0.33,0.19l0.17,0.09l0.16,0.1
				c0.11,0.06,0.22,0.13,0.33,0.19c0.11,0.07,0.22,0.13,0.32,0.2l0.16,0.1c0.05,0.03,0.11,0.07,0.16,0.1
				c0.11,0.07,0.21,0.14,0.32,0.21l0.16,0.1c0.05,0.03,0.11,0.07,0.16,0.11c0.1,0.07,0.21,0.14,0.31,0.21
				c0.11,0.07,0.21,0.14,0.31,0.21c0.1,0.07,0.21,0.14,0.31,0.22c0.1,0.07,0.2,0.15,0.3,0.22c0.05,0.04,0.1,0.07,0.15,0.11
				c0.05,0.04,0.1,0.07,0.15,0.11c0.79,0.6,1.54,1.21,2.23,1.84c0.69,0.63,1.32,1.26,1.9,1.89c0.07,0.08,0.14,0.16,0.21,0.23
				c0.03,0.04,0.07,0.08,0.1,0.12c0.03,0.04,0.07,0.08,0.1,0.12c0.13,0.16,0.26,0.31,0.39,0.46c0.03,0.04,0.06,0.08,0.09,0.11
				c0.03,0.04,0.06,0.08,0.09,0.11c0.06,0.08,0.12,0.15,0.18,0.22c0.12,0.15,0.23,0.3,0.35,0.44c0.23,0.29,0.43,0.57,0.63,0.84
				c0.02,0.03,0.05,0.07,0.07,0.1c0.02,0.03,0.05,0.07,0.07,0.1c0.05,0.07,0.09,0.13,0.14,0.2c0.04,0.06,0.09,0.13,0.13,0.19
				c0.01,0.02,0.02,0.03,0.03,0.05c0.01,0.02,0.02,0.03,0.03,0.05c0.02,0.03,0.04,0.06,0.06,0.09c0.16,0.25,0.32,0.48,0.45,0.7
				c0.07,0.11,0.13,0.21,0.19,0.31c0.02,0.02,0.03,0.05,0.05,0.07c0.01,0.01,0.01,0.02,0.02,0.04c0.01,0.01,0.01,0.02,0.02,0.03
				c0.03,0.05,0.05,0.09,0.08,0.13c0.1,0.17,0.19,0.33,0.27,0.47c0.09,0.16,0.16,0.29,0.22,0.4c0.12,0.22,0.18,0.33,0.18,0.33
				l1.9,3.43l1.9-3.43c0,0,0.06-0.12,0.18-0.33c0.06-0.11,0.13-0.24,0.22-0.4c0.08-0.14,0.17-0.29,0.27-0.47
				c0.02-0.04,0.05-0.09,0.08-0.13c0.01-0.01,0.01-0.02,0.02-0.03c0.01-0.01,0.01-0.02,0.02-0.04c0.01-0.02,0.03-0.05,0.05-0.07
				c0.06-0.1,0.13-0.2,0.19-0.31c0.13-0.22,0.29-0.45,0.45-0.7c0.02-0.03,0.04-0.06,0.06-0.09c0.01-0.02,0.02-0.03,0.03-0.05
				c0.01-0.02,0.02-0.03,0.03-0.05c0.04-0.06,0.09-0.13,0.13-0.19c0.04-0.06,0.09-0.13,0.14-0.2c0.02-0.03,0.05-0.07,0.07-0.1
				c0.02-0.03,0.05-0.07,0.07-0.1c0.2-0.27,0.4-0.55,0.63-0.84c0.11-0.14,0.22-0.29,0.35-0.44c0.06-0.07,0.12-0.15,0.18-0.22
				c0.03-0.04,0.06-0.08,0.09-0.11c0.03-0.04,0.06-0.08,0.09-0.11c0.13-0.15,0.26-0.3,0.39-0.46c0.03-0.04,0.07-0.08,0.1-0.12
				c0.03-0.04,0.07-0.08,0.1-0.12c0.07-0.08,0.14-0.16,0.21-0.23c0.57-0.62,1.21-1.26,1.9-1.89c0.69-0.63,1.44-1.25,2.23-1.84
				c0.05-0.04,0.1-0.07,0.15-0.11c0.05-0.04,0.1-0.07,0.15-0.11c0.1-0.07,0.2-0.15,0.3-0.22c0.1-0.07,0.2-0.14,0.31-0.22
				c0.1-0.07,0.2-0.15,0.31-0.21c0.1-0.07,0.21-0.14,0.31-0.21c0.05-0.04,0.1-0.07,0.16-0.11l0.16-0.1
				c0.11-0.07,0.21-0.14,0.32-0.21c0.05-0.03,0.11-0.07,0.16-0.1l0.16-0.1c0.11-0.07,0.22-0.13,0.32-0.2
				c0.11-0.06,0.22-0.13,0.33-0.19l0.16-0.1l0.17-0.09c0.11-0.06,0.22-0.13,0.33-0.19c0.06-0.03,0.11-0.06,0.17-0.09
				c0.06-0.03,0.11-0.06,0.17-0.09c0.06-0.03,0.11-0.06,0.17-0.09c0.06-0.03,0.11-0.06,0.17-0.09c0.11-0.06,0.22-0.12,0.34-0.18
				c0.06-0.03,0.11-0.06,0.17-0.09c0.06-0.03,0.11-0.06,0.17-0.09c0.9-0.46,1.81-0.87,2.7-1.24c0.11-0.05,0.22-0.09,0.33-0.14
				c0.11-0.04,0.22-0.09,0.33-0.13c0.06-0.02,0.11-0.04,0.17-0.07c0.06-0.02,0.11-0.04,0.17-0.06c0.11-0.04,0.22-0.08,0.33-0.13
				c0.44-0.16,0.87-0.32,1.29-0.46c0.42-0.14,0.84-0.27,1.24-0.4c0.2-0.06,0.4-0.12,0.6-0.18c0.1-0.03,0.19-0.06,0.29-0.08
				c0.1-0.03,0.19-0.05,0.29-0.08c0.09-0.03,0.19-0.05,0.28-0.08c0.09-0.02,0.18-0.05,0.28-0.07c0.18-0.05,0.36-0.09,0.53-0.13
				c0.35-0.09,0.68-0.16,0.99-0.23c0.62-0.13,1.17-0.24,1.63-0.31c0.45-0.08,0.81-0.13,1.06-0.16c0.12-0.02,0.22-0.03,0.28-0.03
				c0.06-0.01,0.1-0.01,0.1-0.01s-0.03,0-0.1-0.01c-0.06,0-0.16-0.01-0.28-0.01c-0.25-0.01-0.61-0.02-1.07-0.01
				c-0.46,0-1.03,0.02-1.67,0.05c-0.32,0.02-0.67,0.04-1.03,0.07c-0.18,0.01-0.37,0.03-0.56,0.05c-0.1,0.01-0.19,0.02-0.29,0.03
				c-0.1,0.01-0.2,0.02-0.29,0.03c-0.1,0.01-0.2,0.02-0.3,0.03c-0.1,0.01-0.2,0.02-0.31,0.04c-0.21,0.02-0.42,0.05-0.63,0.08
				c-0.43,0.06-0.87,0.12-1.32,0.2c-0.45,0.07-0.92,0.16-1.39,0.25c-0.12,0.02-0.24,0.05-0.36,0.07c-0.06,0.01-0.12,0.02-0.18,0.04
				c-0.06,0.01-0.12,0.03-0.18,0.04c-0.12,0.03-0.24,0.05-0.36,0.08c-0.05,0.01-0.1,0.02-0.16,0.04c0.11-0.04,0.21-0.09,0.32-0.13
				C193.39,132.29,193.5,132.24,193.61,132.2z M171.65,125.96c1.99-1.99,5.21-1.99,7.19,0s1.99,5.21,0,7.19s-5.21,1.99-7.19,0
				S169.66,127.95,171.65,125.96z"/>
			<path class="st22" d="M208.2,80.56c-0.04-0.11-0.09-0.22-0.13-0.33c-0.02-0.06-0.04-0.11-0.07-0.17
				c-0.02-0.06-0.04-0.11-0.06-0.17c-0.04-0.11-0.08-0.22-0.13-0.33c-0.16-0.44-0.32-0.87-0.46-1.29c-0.14-0.42-0.27-0.84-0.4-1.24
				c-0.06-0.2-0.12-0.4-0.18-0.6c-0.03-0.1-0.06-0.19-0.08-0.29c-0.03-0.1-0.05-0.19-0.08-0.29c-0.03-0.09-0.05-0.19-0.08-0.28
				c-0.02-0.09-0.05-0.18-0.07-0.28c-0.05-0.18-0.09-0.36-0.13-0.53c-0.09-0.35-0.16-0.68-0.23-0.99c-0.13-0.62-0.24-1.17-0.31-1.63
				c-0.08-0.45-0.13-0.81-0.16-1.06c-0.02-0.12-0.03-0.22-0.03-0.28c-0.01-0.06-0.01-0.1-0.01-0.1s0,0.03-0.01,0.1
				c0,0.06-0.01,0.16-0.01,0.28c-0.01,0.25-0.02,0.61-0.01,1.07c0,0.46,0.02,1.03,0.05,1.67c0.02,0.32,0.04,0.67,0.07,1.03
				c0.01,0.18,0.03,0.37,0.05,0.56c0.01,0.1,0.02,0.19,0.03,0.29c0.01,0.1,0.02,0.2,0.03,0.29c0.01,0.1,0.02,0.2,0.03,0.3
				c0.01,0.1,0.02,0.2,0.04,0.31c0.02,0.21,0.05,0.42,0.08,0.63c0.06,0.43,0.12,0.87,0.2,1.32c0.07,0.45,0.16,0.92,0.26,1.39
				c0.02,0.12,0.05,0.24,0.07,0.36c0.01,0.06,0.02,0.12,0.04,0.18c0.01,0.06,0.03,0.12,0.04,0.18c0.03,0.12,0.05,0.24,0.08,0.36
				c0.03,0.12,0.06,0.24,0.09,0.37c0.04,0.16,0.08,0.33,0.12,0.49c-0.15-0.34-0.3-0.68-0.44-1.02c-0.05-0.11-0.09-0.22-0.14-0.33
				c-0.04-0.11-0.09-0.22-0.13-0.33c-0.02-0.06-0.04-0.11-0.07-0.17c-0.02-0.06-0.04-0.11-0.06-0.17c-0.04-0.11-0.08-0.22-0.13-0.33
				c-0.16-0.44-0.32-0.87-0.46-1.29c-0.14-0.42-0.27-0.84-0.4-1.24c-0.06-0.2-0.12-0.4-0.18-0.6c-0.03-0.1-0.06-0.19-0.08-0.29
				c-0.03-0.1-0.05-0.19-0.08-0.29c-0.03-0.09-0.05-0.19-0.08-0.28s-0.05-0.18-0.07-0.28c-0.05-0.18-0.09-0.36-0.13-0.53
				c-0.09-0.35-0.16-0.68-0.23-0.99c-0.13-0.62-0.24-1.17-0.31-1.63c-0.08-0.45-0.13-0.81-0.16-1.06c-0.02-0.12-0.03-0.22-0.03-0.28
				c-0.01-0.06-0.01-0.1-0.01-0.1s0,0.03-0.01,0.1c0,0.06-0.01,0.16-0.01,0.28c-0.01,0.25-0.02,0.61-0.01,1.07
				c0,0.46,0.02,1.03,0.05,1.67c0.02,0.32,0.04,0.67,0.07,1.03c0.01,0.18,0.03,0.37,0.05,0.56c0.01,0.1,0.02,0.19,0.03,0.29
				c0.01,0.1,0.02,0.2,0.03,0.29c0.01,0.1,0.02,0.2,0.03,0.3c0.01,0.1,0.02,0.2,0.04,0.31c0.02,0.21,0.05,0.42,0.08,0.63
				c0.06,0.43,0.12,0.87,0.2,1.32c0.07,0.45,0.16,0.92,0.25,1.39c0.02,0.12,0.05,0.24,0.07,0.36c0.01,0.06,0.03,0.12,0.04,0.18
				c0.01,0.06,0.03,0.12,0.04,0.18c0.03,0.12,0.05,0.24,0.08,0.36c0.03,0.12,0.06,0.24,0.09,0.37c0.23,0.98,0.51,1.99,0.84,3.01
				c0.02,0.06,0.04,0.13,0.06,0.19c0.02,0.06,0.04,0.13,0.06,0.19c0.04,0.13,0.09,0.25,0.13,0.38c0.02,0.06,0.04,0.13,0.07,0.19
				c0.02,0.06,0.04,0.13,0.07,0.19c0.02,0.06,0.05,0.13,0.07,0.19c0.02,0.06,0.04,0.13,0.07,0.19c0.05,0.13,0.09,0.25,0.14,0.38
				l0.07,0.19l0.07,0.19c0.05,0.13,0.1,0.25,0.15,0.38c0.05,0.13,0.1,0.25,0.16,0.38l0.08,0.19c0.03,0.06,0.05,0.13,0.08,0.19
				c0.05,0.13,0.11,0.25,0.16,0.38l0.08,0.19c0.03,0.06,0.06,0.12,0.09,0.19c0.06,0.12,0.11,0.25,0.17,0.37
				c0.06,0.13,0.12,0.25,0.18,0.37c0.06,0.12,0.12,0.25,0.18,0.37c0.06,0.12,0.12,0.24,0.19,0.36c0.03,0.06,0.06,0.12,0.09,0.18
				c0.03,0.06,0.06,0.12,0.09,0.18c0.51,0.96,1.05,1.89,1.62,2.77c0.57,0.88,1.17,1.7,1.76,2.46c0.08,0.09,0.15,0.19,0.23,0.28
				c0.04,0.05,0.07,0.09,0.11,0.14c0.04,0.05,0.07,0.09,0.11,0.14c0.15,0.18,0.3,0.36,0.45,0.53c0.04,0.04,0.07,0.09,0.11,0.13
				c0.04,0.04,0.07,0.08,0.11,0.13c0.07,0.08,0.15,0.17,0.22,0.25c0.15,0.17,0.29,0.32,0.44,0.48c0.29,0.31,0.58,0.6,0.85,0.88
				c0.03,0.03,0.07,0.07,0.1,0.1c0.03,0.03,0.07,0.07,0.1,0.1c0.03,0.03,0.06,0.06,0.09,0.09c-0.03,0.03-0.06,0.06-0.09,0.09
				c-0.03,0.03-0.07,0.07-0.1,0.1c-0.03,0.03-0.07,0.07-0.1,0.1c-0.27,0.28-0.56,0.56-0.85,0.88c-0.14,0.16-0.29,0.31-0.44,0.48
				c-0.07,0.08-0.15,0.17-0.22,0.25c-0.04,0.04-0.07,0.08-0.11,0.13c-0.04,0.04-0.08,0.08-0.11,0.13c-0.15,0.17-0.3,0.35-0.45,0.53
				c-0.04,0.04-0.07,0.09-0.11,0.14c-0.04,0.05-0.07,0.09-0.11,0.14c-0.07,0.09-0.15,0.19-0.23,0.28c-0.6,0.76-1.19,1.59-1.76,2.46
				c-0.57,0.88-1.12,1.81-1.62,2.77c-0.03,0.06-0.06,0.12-0.09,0.18c-0.03,0.06-0.06,0.12-0.09,0.18c-0.06,0.12-0.12,0.24-0.19,0.36
				c-0.06,0.12-0.12,0.25-0.18,0.37c-0.06,0.12-0.12,0.25-0.18,0.37c-0.06,0.12-0.11,0.25-0.17,0.37c-0.03,0.06-0.06,0.12-0.09,0.19
				l-0.08,0.19c-0.05,0.13-0.11,0.25-0.16,0.38c-0.03,0.06-0.05,0.13-0.08,0.19l-0.08,0.19c-0.05,0.13-0.11,0.25-0.16,0.38
				c-0.05,0.13-0.1,0.25-0.15,0.38l-0.07,0.19l-0.07,0.19c-0.05,0.13-0.1,0.25-0.14,0.38c-0.02,0.06-0.05,0.13-0.07,0.19
				c-0.02,0.06-0.05,0.13-0.07,0.19c-0.02,0.06-0.04,0.13-0.07,0.19c-0.02,0.06-0.05,0.13-0.07,0.19c-0.04,0.13-0.09,0.26-0.13,0.38
				c-0.02,0.06-0.04,0.13-0.06,0.19c-0.02,0.06-0.04,0.13-0.06,0.19c-0.32,1.02-0.6,2.03-0.84,3.01c-0.03,0.12-0.06,0.25-0.09,0.37
				c-0.03,0.12-0.05,0.24-0.08,0.36c-0.01,0.06-0.03,0.12-0.04,0.18c-0.01,0.06-0.03,0.12-0.04,0.18c-0.02,0.12-0.05,0.24-0.07,0.36
				c-0.09,0.48-0.18,0.94-0.25,1.39c-0.08,0.45-0.14,0.9-0.2,1.32c-0.03,0.21-0.06,0.42-0.08,0.63c-0.01,0.1-0.02,0.21-0.04,0.31
				c-0.01,0.1-0.02,0.2-0.03,0.3c-0.01,0.1-0.02,0.2-0.03,0.29s-0.02,0.19-0.03,0.29c-0.02,0.19-0.03,0.38-0.05,0.56
				c-0.03,0.36-0.05,0.71-0.07,1.03c-0.03,0.65-0.05,1.21-0.05,1.67c0,0.46,0,0.83,0.01,1.07c0,0.12,0.01,0.22,0.01,0.28
				c0,0.06,0.01,0.1,0.01,0.1s0-0.03,0.01-0.1c0.01-0.06,0.02-0.16,0.03-0.28c0.03-0.24,0.08-0.6,0.16-1.06
				c0.08-0.45,0.18-1,0.31-1.63c0.07-0.31,0.14-0.64,0.23-0.99c0.04-0.17,0.09-0.35,0.13-0.53c0.02-0.09,0.05-0.18,0.07-0.28
				c0.02-0.09,0.05-0.19,0.08-0.28c0.03-0.09,0.05-0.19,0.08-0.29c0.03-0.1,0.06-0.19,0.08-0.29c0.06-0.2,0.12-0.39,0.18-0.6
				c0.12-0.4,0.25-0.82,0.4-1.24c0.14-0.42,0.3-0.86,0.46-1.29c0.04-0.11,0.08-0.22,0.13-0.33c0.02-0.06,0.04-0.11,0.06-0.17
				c0.02-0.06,0.04-0.11,0.07-0.17c0.04-0.11,0.09-0.22,0.13-0.33c0.05-0.11,0.09-0.22,0.14-0.33c0.14-0.34,0.29-0.68,0.44-1.02
				c-0.04,0.17-0.08,0.33-0.12,0.49c-0.03,0.12-0.06,0.25-0.09,0.37c-0.03,0.12-0.05,0.24-0.08,0.36c-0.01,0.06-0.03,0.12-0.04,0.18
				c-0.01,0.06-0.02,0.12-0.04,0.18c-0.02,0.12-0.05,0.24-0.07,0.36c-0.09,0.48-0.18,0.94-0.26,1.39c-0.08,0.45-0.14,0.9-0.2,1.32
				c-0.03,0.21-0.06,0.42-0.08,0.63c-0.01,0.1-0.02,0.21-0.04,0.31c-0.01,0.1-0.02,0.2-0.03,0.3c-0.01,0.1-0.02,0.2-0.03,0.29
				c-0.01,0.1-0.02,0.19-0.03,0.29c-0.02,0.19-0.03,0.38-0.05,0.56c-0.03,0.36-0.05,0.71-0.07,1.03c-0.03,0.65-0.05,1.21-0.05,1.67
				c0,0.46,0,0.83,0.01,1.07c0,0.12,0.01,0.22,0.01,0.28c0,0.06,0.01,0.1,0.01,0.1s0-0.03,0.01-0.1c0.01-0.06,0.02-0.16,0.03-0.28
				c0.03-0.24,0.08-0.6,0.16-1.06c0.08-0.45,0.18-1,0.31-1.63c0.07-0.31,0.14-0.64,0.23-0.99c0.04-0.17,0.09-0.35,0.13-0.53
				c0.02-0.09,0.05-0.18,0.07-0.28c0.02-0.09,0.05-0.19,0.08-0.28c0.03-0.09,0.05-0.19,0.08-0.29c0.03-0.1,0.06-0.19,0.08-0.29
				c0.06-0.2,0.12-0.39,0.18-0.6c0.12-0.4,0.25-0.82,0.4-1.24c0.14-0.42,0.3-0.86,0.46-1.29c0.04-0.11,0.08-0.22,0.13-0.33
				c0.02-0.06,0.04-0.11,0.06-0.17c0.02-0.06,0.04-0.11,0.07-0.17c0.04-0.11,0.09-0.22,0.13-0.33c0.05-0.11,0.09-0.22,0.14-0.33
				c0.04-0.11,0.09-0.21,0.13-0.32c-0.01,0.05-0.02,0.1-0.04,0.16c-0.03,0.12-0.05,0.24-0.08,0.36c-0.01,0.06-0.03,0.12-0.04,0.18
				c-0.01,0.06-0.03,0.12-0.04,0.18c-0.02,0.12-0.05,0.24-0.07,0.36c-0.09,0.48-0.18,0.94-0.25,1.39c-0.08,0.45-0.14,0.9-0.2,1.32
				c-0.03,0.21-0.06,0.42-0.08,0.63c-0.01,0.1-0.02,0.21-0.04,0.31c-0.01,0.1-0.02,0.2-0.03,0.3c-0.01,0.1-0.02,0.2-0.03,0.29
				c-0.01,0.1-0.02,0.19-0.03,0.29c-0.02,0.19-0.03,0.38-0.05,0.56c-0.03,0.36-0.05,0.71-0.07,1.03c-0.03,0.65-0.05,1.21-0.05,1.67
				c0,0.46,0,0.83,0.01,1.07c0,0.12,0.01,0.22,0.01,0.28c0,0.06,0.01,0.1,0.01,0.1s0-0.03,0.01-0.1c0.01-0.06,0.02-0.16,0.03-0.28
				c0.03-0.24,0.08-0.6,0.16-1.06c0.08-0.45,0.18-1,0.31-1.63c0.07-0.31,0.14-0.64,0.23-0.99c0.04-0.17,0.09-0.35,0.13-0.53
				c0.02-0.09,0.05-0.18,0.07-0.28c0.02-0.09,0.05-0.19,0.08-0.28c0.03-0.09,0.05-0.19,0.08-0.29c0.03-0.1,0.06-0.19,0.08-0.29
				c0.05-0.2,0.12-0.39,0.18-0.6c0.12-0.4,0.25-0.82,0.4-1.24c0.14-0.42,0.3-0.86,0.46-1.29c0.04-0.11,0.08-0.22,0.13-0.33
				c0.02-0.06,0.04-0.11,0.06-0.17c0.02-0.06,0.04-0.11,0.07-0.17c0.04-0.11,0.09-0.22,0.13-0.33c0.05-0.11,0.09-0.22,0.14-0.33
				c0.37-0.9,0.79-1.8,1.24-2.7c0.03-0.06,0.06-0.11,0.09-0.17c0.03-0.06,0.06-0.11,0.09-0.17c0.06-0.11,0.12-0.22,0.18-0.34
				c0.03-0.06,0.06-0.11,0.09-0.17c0.03-0.06,0.06-0.11,0.09-0.17c0.03-0.06,0.06-0.11,0.09-0.17c0.03-0.06,0.06-0.11,0.09-0.17
				c0.06-0.11,0.13-0.22,0.19-0.33l0.09-0.17l0.1-0.16c0.06-0.11,0.13-0.22,0.19-0.33c0.06-0.11,0.13-0.22,0.2-0.32l0.1-0.16
				c0.03-0.05,0.07-0.11,0.1-0.16c0.07-0.11,0.14-0.21,0.21-0.32l0.1-0.16c0.03-0.05,0.07-0.11,0.11-0.16
				c0.07-0.1,0.14-0.21,0.21-0.31c0.07-0.11,0.14-0.21,0.21-0.31c0.07-0.1,0.14-0.21,0.22-0.31c0.07-0.1,0.15-0.2,0.22-0.3
				c0.04-0.05,0.07-0.1,0.11-0.15c0.04-0.05,0.07-0.1,0.11-0.15c0.6-0.79,1.21-1.54,1.84-2.23c0.63-0.69,1.26-1.32,1.89-1.9
				c0.08-0.07,0.16-0.14,0.23-0.21c0.04-0.03,0.08-0.07,0.12-0.1c0.04-0.03,0.08-0.07,0.12-0.1c0.16-0.13,0.31-0.26,0.46-0.39
				c0.04-0.03,0.08-0.06,0.11-0.09c0.04-0.03,0.08-0.06,0.11-0.09c0.08-0.06,0.15-0.12,0.22-0.18c0.15-0.12,0.3-0.23,0.44-0.35
				c0.29-0.23,0.57-0.43,0.84-0.63c0.03-0.02,0.07-0.05,0.1-0.07c0.03-0.02,0.07-0.05,0.1-0.07c0.07-0.05,0.13-0.09,0.2-0.14
				c0.06-0.04,0.13-0.09,0.19-0.13c0.02-0.01,0.03-0.02,0.05-0.03c0.02-0.01,0.03-0.02,0.05-0.03c0.03-0.02,0.06-0.04,0.09-0.06
				c0.25-0.16,0.48-0.32,0.7-0.45c0.11-0.07,0.21-0.13,0.31-0.19c0.02-0.02,0.05-0.03,0.07-0.05c0.01-0.01,0.02-0.01,0.04-0.02
				c0.01-0.01,0.02-0.01,0.03-0.02c0.05-0.03,0.09-0.05,0.13-0.08c0.17-0.1,0.33-0.19,0.47-0.27c0.16-0.09,0.29-0.16,0.4-0.22
				c0.22-0.12,0.33-0.18,0.33-0.18l3.43-1.9l-3.43-1.9c0,0-0.12-0.06-0.33-0.18c-0.11-0.06-0.24-0.13-0.4-0.22
				c-0.14-0.08-0.29-0.17-0.47-0.27c-0.04-0.03-0.09-0.05-0.13-0.08c-0.01-0.01-0.02-0.01-0.03-0.02c-0.01-0.01-0.02-0.01-0.04-0.02
				c-0.02-0.01-0.05-0.03-0.07-0.05c-0.1-0.06-0.2-0.13-0.31-0.19c-0.22-0.13-0.45-0.29-0.7-0.45c-0.03-0.02-0.06-0.04-0.09-0.06
				c-0.02-0.01-0.03-0.02-0.05-0.03c-0.02-0.01-0.03-0.02-0.05-0.03c-0.06-0.04-0.13-0.09-0.19-0.13c-0.06-0.04-0.13-0.09-0.2-0.14
				c-0.03-0.02-0.07-0.05-0.1-0.07c-0.03-0.02-0.07-0.05-0.1-0.07c-0.27-0.2-0.55-0.4-0.84-0.63c-0.14-0.11-0.29-0.22-0.44-0.35
				c-0.07-0.06-0.15-0.12-0.22-0.18c-0.04-0.03-0.08-0.06-0.11-0.09c-0.04-0.03-0.08-0.06-0.11-0.09c-0.15-0.13-0.3-0.26-0.46-0.39
				c-0.04-0.03-0.08-0.07-0.12-0.1c-0.04-0.03-0.08-0.07-0.12-0.1c-0.08-0.07-0.16-0.14-0.23-0.21c-0.62-0.57-1.26-1.21-1.89-1.9
				c-0.63-0.69-1.25-1.44-1.84-2.23c-0.04-0.05-0.07-0.1-0.11-0.15c-0.04-0.05-0.07-0.1-0.11-0.15c-0.07-0.1-0.15-0.2-0.22-0.3
				c-0.07-0.1-0.14-0.2-0.22-0.31c-0.07-0.1-0.15-0.2-0.21-0.31c-0.07-0.1-0.14-0.21-0.21-0.31c-0.04-0.05-0.07-0.1-0.11-0.16
				l-0.1-0.16c-0.07-0.11-0.14-0.21-0.21-0.32c-0.03-0.05-0.07-0.11-0.1-0.16l-0.1-0.16c-0.07-0.11-0.13-0.22-0.2-0.32
				c-0.06-0.11-0.13-0.22-0.19-0.33l-0.1-0.16l-0.09-0.17c-0.06-0.11-0.13-0.22-0.19-0.33c-0.03-0.06-0.06-0.11-0.09-0.17
				c-0.03-0.06-0.06-0.11-0.09-0.17c-0.03-0.06-0.06-0.11-0.09-0.17c-0.03-0.06-0.06-0.11-0.09-0.17c-0.06-0.11-0.12-0.22-0.18-0.34
				c-0.03-0.06-0.06-0.11-0.09-0.17c-0.03-0.06-0.06-0.11-0.09-0.17c-0.46-0.9-0.87-1.81-1.24-2.7c-0.05-0.11-0.09-0.22-0.14-0.33
				c-0.04-0.11-0.09-0.22-0.13-0.33c-0.02-0.06-0.04-0.11-0.07-0.17c-0.02-0.06-0.04-0.11-0.06-0.17c-0.04-0.11-0.08-0.22-0.13-0.33
				c-0.16-0.44-0.32-0.87-0.46-1.29c-0.14-0.42-0.27-0.84-0.4-1.24c-0.06-0.2-0.12-0.4-0.18-0.6c-0.03-0.1-0.06-0.19-0.08-0.29
				c-0.03-0.1-0.05-0.19-0.08-0.29c-0.03-0.09-0.05-0.19-0.08-0.28s-0.05-0.18-0.07-0.28c-0.05-0.18-0.09-0.36-0.13-0.53
				c-0.09-0.35-0.16-0.68-0.23-0.99c-0.13-0.62-0.24-1.17-0.31-1.63c-0.08-0.45-0.13-0.81-0.16-1.06c-0.02-0.12-0.03-0.22-0.03-0.28
				c-0.01-0.06-0.01-0.1-0.01-0.1s0,0.03-0.01,0.1c0,0.06-0.01,0.16-0.01,0.28c-0.01,0.25-0.02,0.61-0.01,1.07
				c0,0.46,0.02,1.03,0.05,1.67c0.02,0.32,0.04,0.67,0.07,1.03c0.01,0.18,0.03,0.37,0.05,0.56c0.01,0.1,0.02,0.19,0.03,0.29
				c0.01,0.1,0.02,0.2,0.03,0.29c0.01,0.1,0.02,0.2,0.03,0.3c0.01,0.1,0.02,0.2,0.04,0.31c0.02,0.21,0.05,0.42,0.08,0.63
				c0.06,0.43,0.12,0.87,0.2,1.32c0.07,0.45,0.16,0.92,0.25,1.39c0.02,0.12,0.05,0.24,0.07,0.36c0.01,0.06,0.02,0.12,0.04,0.18
				c0.01,0.06,0.03,0.12,0.04,0.18c0.03,0.12,0.05,0.24,0.08,0.36c0.01,0.05,0.02,0.1,0.04,0.16c-0.04-0.11-0.09-0.21-0.13-0.32
				C208.29,80.78,208.24,80.67,208.2,80.56z M210.64,98.92c0-2.81-2.28-5.08-5.08-5.08s-5.08,2.28-5.08,5.08
				c0,2.81,2.28,5.08,5.08,5.08S210.64,101.73,210.64,98.92z"/>
			<path class="st23" d="M156.84,66.28c-0.11,0.04-0.22,0.09-0.33,0.13c-0.06,0.02-0.11,0.04-0.17,0.07
				c-0.06,0.02-0.11,0.04-0.17,0.06c-0.11,0.04-0.22,0.08-0.33,0.13c-0.44,0.16-0.87,0.32-1.29,0.46c-0.42,0.14-0.84,0.27-1.24,0.4
				c-0.2,0.06-0.4,0.12-0.6,0.18c-0.1,0.03-0.19,0.06-0.29,0.08c-0.1,0.03-0.19,0.05-0.29,0.08c-0.09,0.03-0.19,0.05-0.28,0.08
				c-0.09,0.02-0.18,0.05-0.28,0.07c-0.18,0.05-0.36,0.09-0.53,0.13c-0.35,0.09-0.68,0.16-0.99,0.23c-0.62,0.13-1.17,0.24-1.63,0.31
				c-0.45,0.08-0.81,0.13-1.06,0.16c-0.12,0.02-0.22,0.03-0.28,0.03c-0.06,0.01-0.1,0.01-0.1,0.01s0.03,0,0.1,0.01
				c0.06,0,0.16,0.01,0.28,0.01c0.25,0.01,0.61,0.02,1.07,0.01c0.46,0,1.03-0.02,1.67-0.05c0.32-0.02,0.67-0.04,1.03-0.07
				c0.18-0.01,0.37-0.03,0.56-0.05c0.1-0.01,0.19-0.02,0.29-0.03c0.1-0.01,0.2-0.02,0.29-0.03c0.1-0.01,0.2-0.02,0.3-0.03
				c0.1-0.01,0.2-0.02,0.31-0.04c0.21-0.02,0.42-0.05,0.63-0.08c0.43-0.06,0.87-0.12,1.32-0.2c0.45-0.07,0.92-0.16,1.39-0.26
				c0.12-0.02,0.24-0.05,0.36-0.07c0.06-0.01,0.12-0.03,0.18-0.04c0.06-0.01,0.12-0.03,0.18-0.04c0.12-0.03,0.24-0.05,0.36-0.08
				c0.12-0.03,0.24-0.06,0.37-0.09c0.16-0.04,0.33-0.08,0.49-0.12c-0.34,0.15-0.68,0.3-1.02,0.44c-0.11,0.05-0.22,0.09-0.33,0.14
				c-0.11,0.04-0.22,0.09-0.33,0.13c-0.06,0.02-0.11,0.04-0.17,0.07c-0.06,0.02-0.11,0.04-0.17,0.06c-0.11,0.04-0.22,0.08-0.33,0.13
				c-0.44,0.16-0.87,0.32-1.29,0.46c-0.42,0.14-0.84,0.27-1.24,0.4c-0.2,0.06-0.4,0.12-0.6,0.18c-0.1,0.03-0.19,0.06-0.29,0.08
				c-0.1,0.03-0.19,0.05-0.29,0.08c-0.09,0.03-0.19,0.05-0.28,0.08c-0.09,0.02-0.18,0.05-0.28,0.07c-0.18,0.05-0.36,0.09-0.53,0.13
				c-0.35,0.09-0.68,0.16-0.99,0.23c-0.62,0.13-1.17,0.24-1.63,0.31c-0.45,0.08-0.81,0.13-1.06,0.16c-0.12,0.02-0.22,0.03-0.28,0.03
				c-0.06,0.01-0.1,0.01-0.1,0.01s0.03,0,0.1,0.01c0.06,0,0.16,0.01,0.28,0.01c0.25,0.01,0.61,0.02,1.07,0.01
				c0.46,0,1.03-0.02,1.67-0.05c0.32-0.02,0.67-0.04,1.03-0.07c0.18-0.01,0.37-0.03,0.56-0.05c0.1-0.01,0.19-0.02,0.29-0.03
				c0.1-0.01,0.2-0.02,0.29-0.03c0.1-0.01,0.2-0.02,0.3-0.03c0.1-0.01,0.2-0.02,0.31-0.04c0.21-0.02,0.42-0.05,0.63-0.08
				c0.43-0.06,0.87-0.12,1.32-0.2c0.45-0.07,0.92-0.16,1.39-0.25c0.12-0.02,0.24-0.05,0.36-0.07c0.06-0.01,0.12-0.03,0.18-0.04
				c0.06-0.01,0.12-0.03,0.18-0.04c0.12-0.03,0.24-0.05,0.36-0.08c0.12-0.03,0.24-0.06,0.37-0.09c0.98-0.23,1.99-0.51,3.01-0.84
				c0.06-0.02,0.13-0.04,0.19-0.06c0.06-0.02,0.13-0.04,0.19-0.06c0.13-0.04,0.25-0.09,0.38-0.13c0.06-0.02,0.13-0.04,0.19-0.07
				s0.13-0.04,0.19-0.07c0.06-0.02,0.13-0.05,0.19-0.07c0.06-0.02,0.13-0.04,0.19-0.07c0.13-0.05,0.25-0.09,0.38-0.14l0.19-0.07
				l0.19-0.07c0.13-0.05,0.25-0.1,0.38-0.15c0.13-0.05,0.25-0.1,0.38-0.16l0.19-0.08c0.06-0.03,0.13-0.05,0.19-0.08
				c0.13-0.05,0.25-0.11,0.38-0.16l0.19-0.08c0.06-0.03,0.12-0.06,0.19-0.09c0.12-0.06,0.25-0.11,0.37-0.17
				c0.13-0.06,0.25-0.12,0.37-0.18c0.12-0.06,0.25-0.12,0.37-0.18c0.12-0.06,0.24-0.12,0.36-0.19c0.06-0.03,0.12-0.06,0.18-0.09
				c0.06-0.03,0.12-0.06,0.18-0.09c0.96-0.51,1.89-1.05,2.77-1.62c0.88-0.57,1.7-1.17,2.46-1.76c0.09-0.08,0.19-0.15,0.28-0.23
				c0.05-0.04,0.09-0.07,0.14-0.11c0.05-0.04,0.09-0.07,0.14-0.11c0.18-0.15,0.36-0.3,0.53-0.45c0.04-0.04,0.09-0.07,0.13-0.11
				c0.04-0.04,0.08-0.07,0.13-0.11c0.08-0.07,0.17-0.15,0.25-0.22c0.17-0.15,0.32-0.29,0.48-0.44c0.31-0.29,0.6-0.58,0.88-0.85
				c0.03-0.03,0.07-0.07,0.1-0.1c0.03-0.03,0.07-0.07,0.1-0.1c0.03-0.03,0.06-0.06,0.09-0.09c0.03,0.03,0.06,0.06,0.09,0.09
				c0.03,0.03,0.07,0.07,0.1,0.1c0.03,0.03,0.07,0.07,0.1,0.1c0.28,0.27,0.56,0.56,0.88,0.85c0.16,0.14,0.31,0.29,0.48,0.44
				c0.08,0.07,0.17,0.15,0.25,0.22c0.04,0.04,0.08,0.07,0.13,0.11c0.04,0.04,0.08,0.08,0.13,0.11c0.17,0.15,0.35,0.3,0.53,0.45
				c0.04,0.04,0.09,0.07,0.14,0.11c0.05,0.04,0.09,0.07,0.14,0.11c0.09,0.07,0.19,0.15,0.28,0.23c0.76,0.6,1.59,1.19,2.46,1.76
				c0.88,0.57,1.81,1.12,2.77,1.62c0.06,0.03,0.12,0.06,0.18,0.09c0.06,0.03,0.12,0.06,0.18,0.09c0.12,0.06,0.24,0.12,0.36,0.19
				c0.12,0.06,0.25,0.12,0.37,0.18c0.12,0.06,0.25,0.12,0.37,0.18c0.12,0.06,0.25,0.11,0.37,0.17c0.06,0.03,0.12,0.06,0.19,0.09
				l0.19,0.08c0.13,0.05,0.25,0.11,0.38,0.16c0.06,0.03,0.13,0.05,0.19,0.08l0.19,0.08c0.13,0.05,0.25,0.11,0.38,0.16
				c0.13,0.05,0.25,0.1,0.38,0.15l0.19,0.07l0.19,0.07c0.13,0.05,0.25,0.1,0.38,0.14c0.06,0.02,0.13,0.05,0.19,0.07
				c0.06,0.02,0.13,0.05,0.19,0.07c0.06,0.02,0.13,0.04,0.19,0.07c0.06,0.02,0.13,0.05,0.19,0.07c0.13,0.04,0.26,0.09,0.38,0.13
				c0.06,0.02,0.13,0.04,0.19,0.06c0.06,0.02,0.13,0.04,0.19,0.06c1.02,0.32,2.03,0.6,3.01,0.84c0.12,0.03,0.25,0.06,0.37,0.09
				c0.12,0.03,0.24,0.05,0.36,0.08c0.06,0.01,0.12,0.03,0.18,0.04c0.06,0.01,0.12,0.03,0.18,0.04c0.12,0.02,0.24,0.05,0.36,0.07
				c0.48,0.09,0.94,0.18,1.39,0.25c0.45,0.08,0.9,0.14,1.32,0.2c0.21,0.03,0.42,0.06,0.63,0.08c0.1,0.01,0.21,0.02,0.31,0.04
				c0.1,0.01,0.2,0.02,0.3,0.03c0.1,0.01,0.2,0.02,0.29,0.03c0.1,0.01,0.19,0.02,0.29,0.03c0.19,0.02,0.38,0.03,0.56,0.05
				c0.36,0.03,0.71,0.05,1.03,0.07c0.65,0.03,1.21,0.05,1.67,0.05c0.46,0,0.83,0,1.07-0.01c0.12,0,0.22-0.01,0.28-0.01
				c0.06,0,0.1-0.01,0.1-0.01s-0.03,0-0.1-0.01c-0.06-0.01-0.16-0.02-0.28-0.03c-0.24-0.03-0.6-0.08-1.06-0.16
				c-0.45-0.08-1-0.18-1.63-0.31c-0.31-0.07-0.64-0.14-0.99-0.23c-0.17-0.04-0.35-0.09-0.53-0.13c-0.09-0.02-0.18-0.05-0.28-0.07
				c-0.09-0.02-0.19-0.05-0.28-0.08c-0.09-0.03-0.19-0.05-0.29-0.08c-0.1-0.03-0.19-0.06-0.29-0.08c-0.2-0.06-0.39-0.12-0.6-0.18
				c-0.4-0.12-0.82-0.25-1.24-0.4c-0.42-0.14-0.86-0.3-1.29-0.46c-0.11-0.04-0.22-0.08-0.33-0.13c-0.06-0.02-0.11-0.04-0.17-0.06
				c-0.06-0.02-0.11-0.04-0.17-0.07c-0.11-0.04-0.22-0.09-0.33-0.13c-0.11-0.05-0.22-0.09-0.33-0.14c-0.34-0.14-0.68-0.29-1.02-0.44
				c0.17,0.04,0.33,0.08,0.49,0.12c0.12,0.03,0.25,0.06,0.37,0.09c0.12,0.03,0.24,0.05,0.36,0.08c0.06,0.01,0.12,0.03,0.18,0.04
				c0.06,0.01,0.12,0.03,0.18,0.04c0.12,0.02,0.24,0.05,0.36,0.07c0.48,0.09,0.94,0.18,1.39,0.26c0.45,0.08,0.9,0.14,1.32,0.2
				c0.21,0.03,0.42,0.06,0.63,0.08c0.1,0.01,0.21,0.02,0.31,0.04c0.1,0.01,0.2,0.02,0.3,0.03c0.1,0.01,0.2,0.02,0.29,0.03
				c0.1,0.01,0.19,0.02,0.29,0.03c0.19,0.02,0.38,0.03,0.56,0.05c0.36,0.03,0.71,0.05,1.03,0.07c0.65,0.03,1.21,0.05,1.67,0.05
				c0.46,0,0.83,0,1.07-0.01c0.12,0,0.22-0.01,0.28-0.01c0.06,0,0.1-0.01,0.1-0.01s-0.03,0-0.1-0.01c-0.06-0.01-0.16-0.02-0.28-0.03
				c-0.24-0.03-0.6-0.08-1.06-0.16c-0.45-0.08-1-0.18-1.63-0.31c-0.31-0.07-0.64-0.14-0.99-0.23c-0.17-0.04-0.35-0.09-0.53-0.13
				c-0.09-0.02-0.18-0.05-0.28-0.07c-0.09-0.02-0.19-0.05-0.28-0.08c-0.09-0.03-0.19-0.05-0.29-0.08c-0.1-0.03-0.19-0.06-0.29-0.08
				c-0.2-0.06-0.39-0.12-0.6-0.18c-0.4-0.12-0.82-0.25-1.24-0.4c-0.42-0.14-0.86-0.3-1.29-0.46c-0.11-0.04-0.22-0.08-0.33-0.13
				c-0.06-0.02-0.11-0.04-0.17-0.06c-0.06-0.02-0.11-0.04-0.17-0.07c-0.11-0.04-0.22-0.09-0.33-0.13c-0.11-0.05-0.22-0.09-0.33-0.14
				c-0.11-0.04-0.21-0.09-0.32-0.13c0.05,0.01,0.1,0.02,0.16,0.04c0.12,0.03,0.24,0.05,0.36,0.08c0.06,0.01,0.12,0.03,0.18,0.04
				c0.06,0.01,0.12,0.03,0.18,0.04c0.12,0.02,0.24,0.05,0.36,0.07c0.48,0.09,0.94,0.18,1.39,0.25c0.45,0.08,0.9,0.14,1.32,0.2
				c0.21,0.03,0.42,0.06,0.63,0.08c0.1,0.01,0.21,0.02,0.31,0.04c0.1,0.01,0.2,0.02,0.3,0.03c0.1,0.01,0.2,0.02,0.29,0.03
				c0.1,0.01,0.19,0.02,0.29,0.03c0.19,0.02,0.38,0.03,0.56,0.05c0.36,0.03,0.71,0.05,1.03,0.07c0.65,0.03,1.21,0.05,1.67,0.05
				c0.46,0,0.83,0,1.07-0.01c0.12,0,0.22-0.01,0.28-0.01c0.06,0,0.1-0.01,0.1-0.01s-0.03,0-0.1-0.01c-0.06-0.01-0.16-0.02-0.28-0.03
				c-0.24-0.03-0.6-0.08-1.06-0.16c-0.45-0.08-1-0.18-1.63-0.31c-0.31-0.07-0.64-0.14-0.99-0.23c-0.17-0.04-0.35-0.09-0.53-0.13
				c-0.09-0.02-0.18-0.05-0.28-0.07c-0.09-0.02-0.19-0.05-0.28-0.08c-0.09-0.03-0.19-0.05-0.29-0.08c-0.1-0.03-0.19-0.06-0.29-0.08
				c-0.2-0.05-0.39-0.12-0.6-0.18c-0.4-0.12-0.82-0.25-1.24-0.4c-0.42-0.14-0.86-0.3-1.29-0.46c-0.11-0.04-0.22-0.08-0.33-0.13
				c-0.06-0.02-0.11-0.04-0.17-0.06c-0.06-0.02-0.11-0.04-0.17-0.07c-0.11-0.04-0.22-0.09-0.33-0.13c-0.11-0.05-0.22-0.09-0.33-0.14
				c-0.9-0.37-1.8-0.79-2.7-1.24c-0.06-0.03-0.11-0.06-0.17-0.09c-0.06-0.03-0.11-0.06-0.17-0.09c-0.11-0.06-0.22-0.12-0.34-0.18
				c-0.06-0.03-0.11-0.06-0.17-0.09c-0.06-0.03-0.11-0.06-0.17-0.09c-0.06-0.03-0.11-0.06-0.17-0.09c-0.06-0.03-0.11-0.06-0.17-0.09
				c-0.11-0.06-0.22-0.13-0.33-0.19l-0.17-0.09l-0.16-0.1c-0.11-0.06-0.22-0.13-0.33-0.19c-0.11-0.06-0.22-0.13-0.32-0.2l-0.16-0.1
				c-0.05-0.03-0.11-0.07-0.16-0.1c-0.11-0.07-0.21-0.14-0.32-0.21l-0.16-0.1c-0.05-0.03-0.11-0.07-0.16-0.11
				c-0.1-0.07-0.21-0.14-0.31-0.21c-0.11-0.07-0.21-0.14-0.31-0.21c-0.1-0.07-0.21-0.14-0.31-0.22c-0.1-0.07-0.2-0.15-0.3-0.22
				c-0.05-0.04-0.1-0.07-0.15-0.11c-0.05-0.04-0.1-0.07-0.15-0.11c-0.79-0.6-1.54-1.21-2.23-1.84c-0.69-0.63-1.32-1.26-1.9-1.89
				c-0.07-0.08-0.14-0.16-0.21-0.23c-0.03-0.04-0.07-0.08-0.1-0.12c-0.03-0.04-0.07-0.08-0.1-0.12c-0.13-0.16-0.26-0.31-0.39-0.46
				c-0.03-0.04-0.06-0.08-0.09-0.11c-0.03-0.04-0.06-0.08-0.09-0.11c-0.06-0.08-0.12-0.15-0.18-0.22c-0.12-0.15-0.23-0.3-0.35-0.44
				c-0.23-0.29-0.43-0.57-0.63-0.84c-0.02-0.03-0.05-0.07-0.07-0.1c-0.02-0.03-0.05-0.07-0.07-0.1c-0.05-0.07-0.09-0.13-0.14-0.2
				c-0.04-0.06-0.09-0.13-0.13-0.19c-0.01-0.02-0.02-0.03-0.03-0.05c-0.01-0.02-0.02-0.03-0.03-0.05c-0.02-0.03-0.04-0.06-0.06-0.09
				c-0.16-0.25-0.32-0.48-0.45-0.7c-0.07-0.11-0.13-0.21-0.19-0.31c-0.02-0.02-0.03-0.05-0.05-0.07c-0.01-0.01-0.01-0.02-0.02-0.04
				c-0.01-0.01-0.01-0.02-0.02-0.03c-0.03-0.05-0.05-0.09-0.08-0.13c-0.1-0.17-0.19-0.33-0.27-0.47c-0.09-0.16-0.16-0.29-0.22-0.4
				c-0.12-0.22-0.18-0.33-0.18-0.33l-1.9-3.43l-1.9,3.43c0,0-0.06,0.12-0.18,0.33c-0.06,0.11-0.13,0.24-0.22,0.4
				c-0.08,0.14-0.17,0.29-0.27,0.47c-0.03,0.04-0.05,0.09-0.08,0.13c-0.01,0.01-0.01,0.02-0.02,0.03c-0.01,0.01-0.01,0.02-0.02,0.04
				c-0.01,0.02-0.03,0.05-0.05,0.07c-0.06,0.1-0.13,0.2-0.19,0.31c-0.13,0.22-0.29,0.45-0.45,0.7c-0.02,0.03-0.04,0.06-0.06,0.09
				c-0.01,0.02-0.02,0.03-0.03,0.05c-0.01,0.02-0.02,0.03-0.03,0.05c-0.04,0.06-0.09,0.13-0.13,0.19c-0.04,0.06-0.09,0.13-0.14,0.2
				c-0.02,0.03-0.05,0.07-0.07,0.1c-0.02,0.03-0.05,0.07-0.07,0.1c-0.2,0.27-0.4,0.55-0.63,0.84c-0.11,0.14-0.22,0.29-0.35,0.44
				c-0.06,0.07-0.12,0.15-0.18,0.22c-0.03,0.04-0.06,0.08-0.09,0.11c-0.03,0.04-0.06,0.08-0.09,0.11c-0.13,0.15-0.26,0.3-0.39,0.46
				c-0.03,0.04-0.07,0.08-0.1,0.12c-0.03,0.04-0.07,0.08-0.1,0.12c-0.07,0.08-0.14,0.16-0.21,0.23c-0.57,0.62-1.21,1.26-1.9,1.89
				c-0.69,0.63-1.44,1.25-2.23,1.84c-0.05,0.04-0.1,0.07-0.15,0.11c-0.05,0.04-0.1,0.07-0.15,0.11c-0.1,0.07-0.2,0.15-0.3,0.22
				c-0.1,0.07-0.2,0.14-0.31,0.22c-0.1,0.07-0.2,0.15-0.31,0.21c-0.1,0.07-0.21,0.14-0.31,0.21c-0.05,0.04-0.1,0.07-0.16,0.11
				l-0.16,0.1c-0.11,0.07-0.21,0.14-0.32,0.21c-0.05,0.03-0.11,0.07-0.16,0.1l-0.16,0.1c-0.11,0.07-0.22,0.13-0.32,0.2
				c-0.11,0.06-0.22,0.13-0.33,0.19l-0.16,0.1l-0.17,0.09c-0.11,0.06-0.22,0.13-0.33,0.19c-0.06,0.03-0.11,0.06-0.17,0.09
				c-0.06,0.03-0.11,0.06-0.17,0.09c-0.06,0.03-0.11,0.06-0.17,0.09c-0.06,0.03-0.11,0.06-0.17,0.09c-0.11,0.06-0.22,0.12-0.34,0.18
				c-0.06,0.03-0.11,0.06-0.17,0.09c-0.06,0.03-0.11,0.06-0.17,0.09c-0.9,0.46-1.81,0.87-2.7,1.24c-0.11,0.05-0.22,0.09-0.33,0.14
				c-0.11,0.04-0.22,0.09-0.33,0.13c-0.06,0.02-0.11,0.04-0.17,0.07c-0.06,0.02-0.11,0.04-0.17,0.06c-0.11,0.04-0.22,0.08-0.33,0.13
				c-0.44,0.16-0.87,0.32-1.29,0.46c-0.42,0.14-0.84,0.27-1.24,0.4c-0.2,0.06-0.4,0.12-0.6,0.18c-0.1,0.03-0.19,0.06-0.29,0.08
				c-0.1,0.03-0.19,0.05-0.29,0.08c-0.09,0.03-0.19,0.05-0.28,0.08s-0.18,0.05-0.28,0.07c-0.18,0.05-0.36,0.09-0.53,0.13
				c-0.35,0.09-0.68,0.16-0.99,0.23c-0.62,0.13-1.17,0.24-1.63,0.31c-0.45,0.08-0.81,0.13-1.06,0.16c-0.12,0.02-0.22,0.03-0.28,0.03
				c-0.06,0.01-0.1,0.01-0.1,0.01s0.03,0,0.1,0.01c0.06,0,0.16,0.01,0.28,0.01c0.25,0.01,0.61,0.02,1.07,0.01
				c0.46,0,1.03-0.02,1.67-0.05c0.32-0.02,0.67-0.04,1.03-0.07c0.18-0.01,0.37-0.03,0.56-0.05c0.1-0.01,0.19-0.02,0.29-0.03
				c0.1-0.01,0.2-0.02,0.29-0.03c0.1-0.01,0.2-0.02,0.3-0.03c0.1-0.01,0.2-0.02,0.31-0.04c0.21-0.02,0.42-0.05,0.63-0.08
				c0.43-0.06,0.87-0.12,1.32-0.2c0.45-0.07,0.92-0.16,1.39-0.25c0.12-0.02,0.24-0.05,0.36-0.07c0.06-0.01,0.12-0.02,0.18-0.04
				c0.06-0.01,0.12-0.03,0.18-0.04c0.12-0.03,0.24-0.05,0.36-0.08c0.05-0.01,0.1-0.02,0.16-0.04c-0.11,0.04-0.21,0.09-0.32,0.13
				C157.06,66.19,156.95,66.24,156.84,66.28z M170.18,68.23c0.38-2.78,2.95-4.73,5.73-4.34s4.73,2.95,4.34,5.73
				c-0.38,2.78-2.95,4.73-5.73,4.34S169.79,71.01,170.18,68.23z"/>
			<path class="st24" d="M141.8,117.61c0.04,0.11,0.09,0.22,0.13,0.33c0.02,0.06,0.04,0.11,0.07,0.17c0.02,0.06,0.04,0.11,0.06,0.17
				c0.04,0.11,0.08,0.22,0.13,0.33c0.16,0.44,0.32,0.87,0.46,1.29c0.14,0.42,0.27,0.84,0.4,1.24c0.06,0.2,0.12,0.4,0.18,0.6
				c0.03,0.1,0.06,0.19,0.08,0.29c0.03,0.1,0.05,0.19,0.08,0.29c0.03,0.09,0.05,0.19,0.08,0.28c0.02,0.09,0.05,0.18,0.07,0.28
				c0.05,0.18,0.09,0.36,0.13,0.53c0.09,0.35,0.16,0.68,0.23,0.99c0.13,0.62,0.24,1.17,0.31,1.63c0.08,0.45,0.13,0.81,0.16,1.06
				c0.02,0.12,0.03,0.22,0.03,0.28c0.01,0.06,0.01,0.1,0.01,0.1s0-0.03,0.01-0.1c0-0.06,0.01-0.16,0.01-0.28
				c0.01-0.25,0.02-0.61,0.01-1.07c0-0.46-0.02-1.03-0.05-1.67c-0.02-0.32-0.04-0.67-0.07-1.03c-0.01-0.18-0.03-0.37-0.05-0.56
				c-0.01-0.1-0.02-0.19-0.03-0.29c-0.01-0.1-0.02-0.2-0.03-0.29c-0.01-0.1-0.02-0.2-0.03-0.3c-0.01-0.1-0.02-0.2-0.04-0.31
				c-0.02-0.21-0.05-0.42-0.08-0.63c-0.06-0.43-0.12-0.87-0.2-1.32c-0.07-0.45-0.16-0.92-0.26-1.39c-0.02-0.12-0.05-0.24-0.07-0.36
				c-0.01-0.06-0.03-0.12-0.04-0.18c-0.01-0.06-0.03-0.12-0.04-0.18c-0.03-0.12-0.05-0.24-0.08-0.36c-0.03-0.12-0.06-0.24-0.09-0.37
				c-0.04-0.16-0.08-0.33-0.12-0.49c0.15,0.34,0.3,0.68,0.44,1.02c0.05,0.11,0.09,0.22,0.14,0.33c0.04,0.11,0.09,0.22,0.13,0.33
				c0.02,0.06,0.04,0.11,0.07,0.17c0.02,0.06,0.04,0.11,0.06,0.17c0.04,0.11,0.08,0.22,0.13,0.33c0.16,0.44,0.32,0.87,0.46,1.29
				c0.14,0.42,0.27,0.84,0.4,1.24c0.06,0.2,0.12,0.4,0.18,0.6c0.03,0.1,0.06,0.19,0.08,0.29c0.03,0.1,0.05,0.19,0.08,0.29
				c0.03,0.09,0.05,0.19,0.08,0.28c0.02,0.09,0.05,0.18,0.07,0.28c0.05,0.18,0.09,0.36,0.13,0.53c0.09,0.35,0.16,0.68,0.23,0.99
				c0.13,0.62,0.24,1.17,0.31,1.63c0.08,0.45,0.13,0.81,0.16,1.06c0.02,0.12,0.03,0.22,0.03,0.28c0.01,0.06,0.01,0.1,0.01,0.1
				s0-0.03,0.01-0.1c0-0.06,0.01-0.16,0.01-0.28c0.01-0.25,0.02-0.61,0.01-1.07c0-0.46-0.02-1.03-0.05-1.67
				c-0.02-0.32-0.04-0.67-0.07-1.03c-0.01-0.18-0.03-0.37-0.05-0.56c-0.01-0.1-0.02-0.19-0.03-0.29c-0.01-0.1-0.02-0.2-0.03-0.29
				c-0.01-0.1-0.02-0.2-0.03-0.3c-0.01-0.1-0.02-0.2-0.04-0.31c-0.02-0.21-0.05-0.42-0.08-0.63c-0.06-0.43-0.12-0.87-0.2-1.32
				c-0.07-0.45-0.16-0.92-0.25-1.39c-0.02-0.12-0.05-0.24-0.07-0.36c-0.01-0.06-0.03-0.12-0.04-0.18c-0.01-0.06-0.03-0.12-0.04-0.18
				c-0.03-0.12-0.05-0.24-0.08-0.36c-0.03-0.12-0.06-0.24-0.09-0.37c-0.23-0.98-0.51-1.99-0.84-3.01c-0.02-0.06-0.04-0.13-0.06-0.19
				c-0.02-0.06-0.04-0.13-0.06-0.19c-0.04-0.13-0.09-0.25-0.13-0.38c-0.02-0.06-0.04-0.13-0.07-0.19c-0.02-0.06-0.04-0.13-0.07-0.19
				c-0.02-0.06-0.05-0.13-0.07-0.19c-0.02-0.06-0.04-0.13-0.07-0.19c-0.05-0.13-0.09-0.25-0.14-0.38l-0.07-0.19l-0.07-0.19
				c-0.05-0.13-0.1-0.25-0.15-0.38c-0.05-0.13-0.1-0.25-0.16-0.38l-0.08-0.19c-0.03-0.06-0.05-0.13-0.08-0.19
				c-0.05-0.13-0.11-0.25-0.16-0.38l-0.08-0.19c-0.03-0.06-0.06-0.12-0.09-0.19c-0.06-0.12-0.11-0.25-0.17-0.37
				c-0.06-0.13-0.12-0.25-0.18-0.37c-0.06-0.12-0.12-0.25-0.18-0.37c-0.06-0.12-0.12-0.24-0.19-0.36c-0.03-0.06-0.06-0.12-0.09-0.18
				c-0.03-0.06-0.06-0.12-0.09-0.18c-0.51-0.96-1.05-1.89-1.62-2.77c-0.57-0.88-1.17-1.7-1.76-2.46c-0.08-0.09-0.15-0.19-0.23-0.28
				c-0.04-0.05-0.07-0.09-0.11-0.14c-0.04-0.05-0.07-0.09-0.11-0.14c-0.15-0.18-0.3-0.36-0.45-0.53c-0.04-0.04-0.07-0.09-0.11-0.13
				c-0.04-0.04-0.07-0.08-0.11-0.13c-0.07-0.08-0.15-0.17-0.22-0.25c-0.15-0.17-0.29-0.32-0.44-0.48c-0.29-0.31-0.58-0.6-0.85-0.88
				c-0.03-0.03-0.07-0.07-0.1-0.1c-0.03-0.03-0.07-0.07-0.1-0.1c-0.03-0.03-0.06-0.06-0.09-0.09c0.03-0.03,0.06-0.06,0.09-0.09
				c0.03-0.03,0.07-0.07,0.1-0.1c0.03-0.03,0.07-0.07,0.1-0.1c0.27-0.28,0.56-0.56,0.85-0.88c0.14-0.16,0.29-0.31,0.44-0.48
				c0.07-0.08,0.15-0.17,0.22-0.25c0.04-0.04,0.07-0.08,0.11-0.13c0.04-0.04,0.08-0.08,0.11-0.13c0.15-0.17,0.3-0.35,0.45-0.53
				c0.04-0.04,0.07-0.09,0.11-0.14c0.04-0.05,0.07-0.09,0.11-0.14c0.07-0.09,0.15-0.19,0.23-0.28c0.6-0.76,1.19-1.59,1.76-2.46
				c0.57-0.88,1.12-1.81,1.62-2.77c0.03-0.06,0.06-0.12,0.09-0.18c0.03-0.06,0.06-0.12,0.09-0.18c0.06-0.12,0.12-0.24,0.19-0.36
				c0.06-0.12,0.12-0.25,0.18-0.37c0.06-0.12,0.12-0.25,0.18-0.37c0.06-0.12,0.11-0.25,0.17-0.37c0.03-0.06,0.06-0.12,0.09-0.19
				l0.08-0.19c0.05-0.13,0.11-0.25,0.16-0.38c0.03-0.06,0.05-0.13,0.08-0.19l0.08-0.19c0.05-0.13,0.11-0.25,0.16-0.38
				c0.05-0.13,0.1-0.25,0.15-0.38l0.07-0.19l0.07-0.19c0.05-0.13,0.1-0.25,0.14-0.38c0.02-0.06,0.05-0.13,0.07-0.19
				c0.02-0.06,0.05-0.13,0.07-0.19c0.02-0.06,0.04-0.13,0.07-0.19c0.02-0.06,0.05-0.13,0.07-0.19c0.04-0.13,0.09-0.26,0.13-0.38
				c0.02-0.06,0.04-0.13,0.06-0.19c0.02-0.06,0.04-0.13,0.06-0.19c0.32-1.02,0.6-2.03,0.84-3.01c0.03-0.12,0.06-0.25,0.09-0.37
				c0.03-0.12,0.05-0.24,0.08-0.36c0.01-0.06,0.03-0.12,0.04-0.18c0.01-0.06,0.03-0.12,0.04-0.18c0.02-0.12,0.05-0.24,0.07-0.36
				c0.09-0.48,0.18-0.94,0.25-1.39c0.08-0.45,0.14-0.9,0.2-1.32c0.03-0.21,0.06-0.42,0.08-0.63c0.01-0.1,0.02-0.21,0.04-0.31
				c0.01-0.1,0.02-0.2,0.03-0.3c0.01-0.1,0.02-0.2,0.03-0.29c0.01-0.1,0.02-0.19,0.03-0.29c0.02-0.19,0.03-0.38,0.05-0.56
				c0.03-0.36,0.05-0.71,0.07-1.03c0.03-0.65,0.05-1.21,0.05-1.67c0-0.46,0-0.83-0.01-1.07c0-0.12-0.01-0.22-0.01-0.28
				c0-0.06-0.01-0.1-0.01-0.1s0,0.03-0.01,0.1c-0.01,0.06-0.02,0.16-0.03,0.28c-0.03,0.24-0.08,0.6-0.16,1.06
				c-0.08,0.45-0.18,1-0.31,1.63c-0.07,0.31-0.14,0.64-0.23,0.99c-0.04,0.17-0.09,0.35-0.13,0.53c-0.02,0.09-0.05,0.18-0.07,0.28
				c-0.02,0.09-0.05,0.19-0.08,0.28c-0.03,0.09-0.05,0.19-0.08,0.29c-0.03,0.1-0.06,0.19-0.08,0.29c-0.06,0.2-0.12,0.39-0.18,0.6
				c-0.12,0.4-0.25,0.82-0.4,1.24c-0.14,0.42-0.3,0.86-0.46,1.29c-0.04,0.11-0.08,0.22-0.13,0.33c-0.02,0.06-0.04,0.11-0.06,0.17
				c-0.02,0.06-0.04,0.11-0.07,0.17c-0.04,0.11-0.09,0.22-0.13,0.33c-0.05,0.11-0.09,0.22-0.14,0.33c-0.14,0.34-0.29,0.68-0.44,1.02
				c0.04-0.17,0.08-0.33,0.12-0.49c0.03-0.12,0.06-0.25,0.09-0.37c0.03-0.12,0.05-0.24,0.08-0.36c0.01-0.06,0.03-0.12,0.04-0.18
				c0.01-0.06,0.03-0.12,0.04-0.18c0.02-0.12,0.05-0.24,0.07-0.36c0.09-0.48,0.18-0.94,0.26-1.39c0.08-0.45,0.14-0.9,0.2-1.32
				c0.03-0.21,0.06-0.42,0.08-0.63c0.01-0.1,0.02-0.21,0.04-0.31c0.01-0.1,0.02-0.2,0.03-0.3c0.01-0.1,0.02-0.2,0.03-0.29
				c0.01-0.1,0.02-0.19,0.03-0.29c0.02-0.19,0.03-0.38,0.05-0.56c0.03-0.36,0.05-0.71,0.07-1.03c0.03-0.65,0.05-1.21,0.05-1.67
				c0-0.46,0-0.83-0.01-1.07c0-0.12-0.01-0.22-0.01-0.28c0-0.06-0.01-0.1-0.01-0.1s0,0.03-0.01,0.1c-0.01,0.06-0.02,0.16-0.03,0.28
				c-0.03,0.24-0.08,0.6-0.16,1.06c-0.08,0.45-0.18,1-0.31,1.63c-0.07,0.31-0.14,0.64-0.23,0.99c-0.04,0.17-0.09,0.35-0.13,0.53
				c-0.02,0.09-0.05,0.18-0.07,0.28c-0.02,0.09-0.05,0.19-0.08,0.28c-0.03,0.09-0.05,0.19-0.08,0.29c-0.03,0.1-0.06,0.19-0.08,0.29
				c-0.06,0.2-0.12,0.39-0.18,0.6c-0.12,0.4-0.25,0.82-0.4,1.24c-0.14,0.42-0.3,0.86-0.46,1.29c-0.04,0.11-0.08,0.22-0.13,0.33
				c-0.02,0.06-0.04,0.11-0.06,0.17c-0.02,0.06-0.04,0.11-0.07,0.17c-0.04,0.11-0.09,0.22-0.13,0.33c-0.05,0.11-0.09,0.22-0.14,0.33
				c-0.04,0.11-0.09,0.21-0.13,0.32c0.01-0.05,0.02-0.1,0.04-0.16c0.03-0.12,0.05-0.24,0.08-0.36c0.01-0.06,0.03-0.12,0.04-0.18
				c0.01-0.06,0.03-0.12,0.04-0.18c0.02-0.12,0.05-0.24,0.07-0.36c0.09-0.48,0.18-0.94,0.25-1.39c0.08-0.45,0.14-0.9,0.2-1.32
				c0.03-0.21,0.06-0.42,0.08-0.63c0.01-0.1,0.02-0.21,0.04-0.31c0.01-0.1,0.02-0.2,0.03-0.3c0.01-0.1,0.02-0.2,0.03-0.29
				c0.01-0.1,0.02-0.19,0.03-0.29c0.02-0.19,0.03-0.38,0.05-0.56c0.03-0.36,0.05-0.71,0.07-1.03c0.03-0.65,0.05-1.21,0.05-1.67
				c0-0.46,0-0.83-0.01-1.07c0-0.12-0.01-0.22-0.01-0.28c0-0.06-0.01-0.1-0.01-0.1s0,0.03-0.01,0.1c-0.01,0.06-0.02,0.16-0.03,0.28
				c-0.03,0.24-0.08,0.6-0.16,1.06c-0.08,0.45-0.18,1-0.31,1.63c-0.07,0.31-0.14,0.64-0.23,0.99c-0.04,0.17-0.09,0.35-0.13,0.53
				c-0.02,0.09-0.05,0.18-0.07,0.28c-0.02,0.09-0.05,0.19-0.08,0.28c-0.03,0.09-0.05,0.19-0.08,0.29c-0.03,0.1-0.06,0.19-0.08,0.29
				c-0.05,0.2-0.12,0.39-0.18,0.6c-0.12,0.4-0.25,0.82-0.4,1.24c-0.14,0.42-0.3,0.86-0.46,1.29c-0.04,0.11-0.08,0.22-0.13,0.33
				c-0.02,0.06-0.04,0.11-0.06,0.17c-0.02,0.06-0.04,0.11-0.07,0.17c-0.04,0.11-0.09,0.22-0.13,0.33c-0.05,0.11-0.09,0.22-0.14,0.33
				c-0.37,0.9-0.79,1.8-1.24,2.7c-0.03,0.06-0.06,0.11-0.09,0.17c-0.03,0.06-0.06,0.11-0.09,0.17c-0.06,0.11-0.12,0.22-0.18,0.34
				c-0.03,0.06-0.06,0.11-0.09,0.17c-0.03,0.06-0.06,0.11-0.09,0.17c-0.03,0.06-0.06,0.11-0.09,0.17c-0.03,0.06-0.06,0.11-0.09,0.17
				c-0.06,0.11-0.13,0.22-0.19,0.33l-0.09,0.17l-0.1,0.16c-0.06,0.11-0.13,0.22-0.19,0.33c-0.07,0.11-0.13,0.22-0.2,0.32l-0.1,0.16
				c-0.03,0.05-0.07,0.11-0.1,0.16c-0.07,0.11-0.14,0.21-0.21,0.32l-0.1,0.16c-0.03,0.05-0.07,0.11-0.11,0.16
				c-0.07,0.1-0.14,0.21-0.21,0.31c-0.07,0.11-0.14,0.21-0.21,0.31c-0.07,0.1-0.14,0.21-0.22,0.31c-0.07,0.1-0.15,0.2-0.22,0.3
				c-0.04,0.05-0.07,0.1-0.11,0.15c-0.04,0.05-0.07,0.1-0.11,0.15c-0.6,0.79-1.21,1.54-1.84,2.23c-0.63,0.69-1.26,1.32-1.89,1.9
				c-0.08,0.07-0.16,0.14-0.23,0.21c-0.04,0.03-0.08,0.07-0.12,0.1c-0.04,0.03-0.08,0.07-0.12,0.1c-0.16,0.13-0.31,0.26-0.46,0.39
				c-0.04,0.03-0.08,0.06-0.11,0.09c-0.04,0.03-0.08,0.06-0.11,0.09c-0.08,0.06-0.15,0.12-0.22,0.18c-0.15,0.12-0.3,0.23-0.44,0.35
				c-0.29,0.23-0.57,0.43-0.84,0.63c-0.03,0.02-0.07,0.05-0.1,0.07c-0.03,0.02-0.07,0.05-0.1,0.07c-0.07,0.05-0.13,0.09-0.2,0.14
				c-0.06,0.04-0.13,0.09-0.19,0.13c-0.02,0.01-0.03,0.02-0.05,0.03c-0.02,0.01-0.03,0.02-0.05,0.03c-0.03,0.02-0.06,0.04-0.09,0.06
				c-0.25,0.16-0.48,0.32-0.7,0.45c-0.11,0.07-0.21,0.13-0.31,0.19c-0.02,0.02-0.05,0.03-0.07,0.05c-0.01,0.01-0.02,0.01-0.04,0.02
				c-0.01,0.01-0.02,0.01-0.03,0.02c-0.05,0.03-0.09,0.05-0.13,0.08c-0.17,0.1-0.33,0.19-0.47,0.27c-0.16,0.09-0.29,0.16-0.4,0.22
				c-0.22,0.12-0.33,0.18-0.33,0.18l-3.43,1.9l3.43,1.9c0,0,0.12,0.06,0.33,0.18c0.11,0.06,0.24,0.13,0.4,0.22
				c0.14,0.08,0.29,0.17,0.47,0.27c0.04,0.03,0.09,0.05,0.13,0.08c0.01,0.01,0.02,0.01,0.03,0.02c0.01,0.01,0.02,0.01,0.04,0.02
				c0.02,0.01,0.05,0.03,0.07,0.05c0.1,0.06,0.2,0.13,0.31,0.19c0.22,0.13,0.45,0.29,0.7,0.45c0.03,0.02,0.06,0.04,0.09,0.06
				c0.02,0.01,0.03,0.02,0.05,0.03c0.02,0.01,0.03,0.02,0.05,0.03c0.06,0.04,0.13,0.09,0.19,0.13c0.06,0.04,0.13,0.09,0.2,0.14
				c0.03,0.02,0.07,0.05,0.1,0.07c0.03,0.02,0.07,0.05,0.1,0.07c0.27,0.2,0.55,0.4,0.84,0.63c0.14,0.11,0.29,0.22,0.44,0.35
				c0.07,0.06,0.15,0.12,0.22,0.18c0.04,0.03,0.08,0.06,0.11,0.09s0.08,0.06,0.11,0.09c0.15,0.13,0.3,0.26,0.46,0.39
				c0.04,0.03,0.08,0.07,0.12,0.1c0.04,0.03,0.08,0.07,0.12,0.1c0.08,0.07,0.16,0.14,0.23,0.21c0.62,0.57,1.26,1.21,1.89,1.9
				c0.63,0.69,1.25,1.44,1.84,2.23c0.04,0.05,0.07,0.1,0.11,0.15c0.04,0.05,0.07,0.1,0.11,0.15c0.07,0.1,0.15,0.2,0.22,0.3
				c0.07,0.1,0.14,0.2,0.22,0.31c0.07,0.1,0.15,0.2,0.21,0.31c0.07,0.1,0.14,0.21,0.21,0.31c0.04,0.05,0.07,0.1,0.11,0.16l0.1,0.16
				c0.07,0.11,0.14,0.21,0.21,0.32c0.03,0.05,0.07,0.11,0.1,0.16l0.1,0.16c0.07,0.11,0.13,0.22,0.2,0.32
				c0.06,0.11,0.13,0.22,0.19,0.33l0.1,0.16l0.09,0.17c0.06,0.11,0.13,0.22,0.19,0.33c0.03,0.06,0.06,0.11,0.09,0.17
				c0.03,0.06,0.06,0.11,0.09,0.17c0.03,0.06,0.06,0.11,0.09,0.17c0.03,0.06,0.06,0.11,0.09,0.17c0.06,0.11,0.12,0.22,0.18,0.34
				c0.03,0.06,0.06,0.11,0.09,0.17c0.03,0.06,0.06,0.11,0.09,0.17c0.46,0.9,0.87,1.81,1.24,2.7c0.05,0.11,0.09,0.22,0.14,0.33
				c0.04,0.11,0.09,0.22,0.13,0.33c0.02,0.06,0.04,0.11,0.07,0.17c0.02,0.06,0.04,0.11,0.06,0.17c0.04,0.11,0.08,0.22,0.13,0.33
				c0.16,0.44,0.32,0.87,0.46,1.29c0.14,0.42,0.27,0.84,0.4,1.24c0.06,0.2,0.12,0.4,0.18,0.6c0.03,0.1,0.06,0.19,0.08,0.29
				c0.03,0.1,0.05,0.19,0.08,0.29c0.03,0.09,0.05,0.19,0.08,0.28c0.02,0.09,0.05,0.18,0.07,0.28c0.05,0.18,0.09,0.36,0.13,0.53
				c0.09,0.35,0.16,0.68,0.23,0.99c0.13,0.62,0.24,1.17,0.31,1.63c0.08,0.45,0.13,0.81,0.16,1.06c0.02,0.12,0.03,0.22,0.03,0.28
				c0.01,0.06,0.01,0.1,0.01,0.1s0-0.03,0.01-0.1c0-0.06,0.01-0.16,0.01-0.28c0.01-0.25,0.02-0.61,0.01-1.07
				c0-0.46-0.02-1.03-0.05-1.67c-0.02-0.32-0.04-0.67-0.07-1.03c-0.01-0.18-0.03-0.37-0.05-0.56c-0.01-0.1-0.02-0.19-0.03-0.29
				c-0.01-0.1-0.02-0.2-0.03-0.29c-0.01-0.1-0.02-0.2-0.03-0.3c-0.01-0.1-0.02-0.2-0.04-0.31c-0.02-0.21-0.05-0.42-0.08-0.63
				c-0.06-0.43-0.12-0.87-0.2-1.32c-0.07-0.45-0.16-0.92-0.25-1.39c-0.02-0.12-0.05-0.24-0.07-0.36c-0.01-0.06-0.02-0.12-0.04-0.18
				c-0.01-0.06-0.03-0.12-0.04-0.18c-0.03-0.12-0.05-0.24-0.08-0.36c-0.01-0.05-0.02-0.1-0.04-0.16c0.04,0.11,0.09,0.21,0.13,0.32
				C141.71,117.39,141.76,117.5,141.8,117.61z M139.36,99.24c0,2.81,2.28,5.08,5.08,5.08s5.08-2.28,5.08-5.08
				c0-2.81-2.28-5.08-5.08-5.08S139.36,96.43,139.36,99.24z"/>
		</g>
	</g>
</g>
<g id="Layer_13">
</g>
<g id="Layer_14">
</g>
<g id="Layer_15">
</g>
</svg>
