<?xml version="1.0" encoding="utf-8"?>
<!-- Generator: Adobe Illustrator 27.8.1, SVG Export Plug-In . SVG Version: 6.00 Build 0)  -->
<svg version="1.1" xmlns="http://www.w3.org/2000/svg" xmlns:xlink="http://www.w3.org/1999/xlink" x="0px" y="0px"
	 viewBox="0 0 350 230" style="enable-background:new 0 0 350 230;" xml:space="preserve">
<style type="text/css">
	.st0{fill:#0E045F;}
	.st1{fill:#CD00FF;}
	.st2{fill:#8CC63F;}
	.st3{fill:#39B54A;}
	.st4{fill:#00770B;}
	.st5{fill:#040051;}
	.st6{fill:#005B59;}
	.st7{fill:#00EDFF;}
	.st8{fill:#006359;}
	.st9{fill:#00006D;}
	.st10{fill:#29004C;}
	.st11{fill:#EB900C;}
	.st12{fill:#DB6E28;}
	.st13{fill:#FFFFFF;}
	.st14{fill:#2D000F;}
	.st15{fill:#660061;}
	.st16{fill:#660061;stroke:#2D002D;stroke-miterlimit:10;}
	.st17{fill:#00AFC6;}
	.st18{fill:#003F39;}
	.st19{fill:#00DCC8;}
	.st20{fill:#FD1F00;}
	.st21{fill:#07186D;}
	.st22{fill:#005C7C;}
	.st23{fill:#8C4B03;}
	.st24{fill:#A38B00;}
	.st25{fill:#20008F;}
	.st26{fill:#003A1D;}
	.st27{fill:#284200;}
	.st28{fill:#00CED8;}
</style>
<g id="Layer_1">
</g>
<g id="Layer_2">
</g>
<g id="Layer_3">
</g>
<g id="Layer_4">
</g>
<g id="Layer_5">
</g>
<g id="Layer_6">
</g>
<g id="Layer_7">
</g>
<g id="Layer_8">
</g>
<g id="Layer_9">
</g>
<g id="Layer_10">
</g>
<g id="Layer_11">
</g>
<g id="Layer_12">
</g>
<g id="Layer_13">
	<path class="st25" d="M160.44,76.7c1.5,0,3.01,0.02,4.51-0.02c0.34-0.01,0.75-0.17,0.98-0.41c2.07-2.02,4.11-4.08,6.15-6.13
		c1.73-1.74,4.06-1.76,5.8-0.03c2.04,2.02,4.07,4.05,6.09,6.1c0.34,0.35,0.68,0.5,1.17,0.5c2.85-0.02,5.7-0.01,8.55-0.01
		c2.5,0,4.08,1.58,4.09,4.07c0,2.87-0.02,5.74,0.02,8.62c0,0.35,0.18,0.79,0.43,1.04c1.99,2.04,4.01,4.04,6.03,6.06
		c1.84,1.84,1.86,4.09,0.03,5.94c-2.02,2.04-4.07,4.05-6.08,6.11c-0.23,0.24-0.4,0.65-0.41,0.99c-0.03,2.89-0.02,5.79-0.02,8.68
		c0,2.45-1.59,4.05-4.04,4.06c-2.83,0.01-5.65,0.01-8.48-0.01c-0.55,0-0.96,0.14-1.36,0.54c-1.99,2.04-4.02,4.04-6.04,6.05
		c-1.69,1.68-4,1.7-5.69,0.03c-2.07-2.05-4.12-4.13-6.21-6.17c-0.25-0.25-0.69-0.43-1.04-0.43c-2.85-0.03-5.7-0.02-8.55-0.02
		c-2.58,0-4.16-1.56-4.16-4.14c-0.01-2.85,0.01-5.7-0.02-8.55c0-0.36-0.18-0.79-0.42-1.05c-1.94-1.99-3.92-3.95-5.89-5.91
		c-2.06-2.04-2.05-4.21,0.02-6.27c1.97-1.96,3.94-3.92,5.89-5.91c0.23-0.24,0.4-0.65,0.41-0.99c0.03-2.87,0.01-5.74,0.02-8.62
		c0-2.54,1.58-4.11,4.12-4.11C157.7,76.7,159.07,76.7,160.44,76.7z M159.92,99.47c0,1.91-0.01,3.81,0.01,5.72
		c0,0.28,0.12,0.63,0.31,0.82c2.71,2.74,5.44,5.47,8.18,8.18c0.21,0.21,0.58,0.35,0.87,0.35c3.79,0.02,7.58,0.02,11.37,0
		c0.3,0,0.67-0.14,0.88-0.34c2.73-2.69,5.44-5.4,8.14-8.13c0.22-0.22,0.37-0.62,0.37-0.93c0.02-3.74,0.01-7.49,0.02-11.24
		c0-0.46-0.13-0.79-0.46-1.12c-2.66-2.64-5.31-5.28-7.94-7.94c-0.33-0.33-0.66-0.45-1.12-0.44c-3.72,0.02-7.45,0-11.17,0.03
		c-0.35,0-0.79,0.18-1.04,0.43c-2.69,2.64-5.35,5.31-7.99,7.99c-0.25,0.25-0.41,0.69-0.42,1.04
		C159.9,95.74,159.92,97.61,159.92,99.47z M174.95,143.97c3.17,0.04,5.82-2.54,5.84-5.71c0.03-3.27-2.54-5.89-5.78-5.91
		c-3.21-0.01-5.79,2.57-5.81,5.81C169.19,141.34,171.75,143.93,174.95,143.97z M153.44,126.82c0-3.19-2.58-5.78-5.76-5.79
		c-3.27-0.01-5.85,2.57-5.83,5.84c0.02,3.2,2.58,5.75,5.79,5.75C150.88,132.62,153.45,130.05,153.44,126.82z M175.01,54.97
		c-3.15-0.01-5.77,2.56-5.8,5.68c-0.03,3.29,2.51,5.92,5.75,5.94c3.22,0.02,5.82-2.55,5.84-5.78
		C180.82,57.6,178.23,54.98,175.01,54.97z M202.39,121.03c-3.24,0-5.83,2.57-5.83,5.78c0,3.24,2.57,5.81,5.8,5.81
		c3.24,0,5.8-2.57,5.79-5.81C208.15,123.62,205.58,121.04,202.39,121.03z M147.58,77.92c3.23,0.02,5.85-2.54,5.86-5.75
		c0.02-3.23-2.54-5.82-5.77-5.84c-3.23-0.02-5.8,2.54-5.82,5.79C141.83,75.3,144.39,77.89,147.58,77.92z M207.88,99.49
		c0,3.19,2.58,5.76,5.77,5.78c3.23,0.02,5.84-2.56,5.84-5.78c0.01-3.23-2.58-5.81-5.8-5.81C210.47,93.68,207.88,96.27,207.88,99.49z
		 M130.5,99.45c-0.02,3.21,2.57,5.82,5.8,5.82c3.2,0,5.79-2.54,5.82-5.73c0.03-3.22-2.56-5.84-5.76-5.85
		C133.11,93.67,130.53,96.22,130.5,99.45z M202.31,66.32c-3.2,0.03-5.76,2.6-5.75,5.79c0,3.22,2.59,5.81,5.81,5.81
		c3.22,0,5.79-2.6,5.78-5.83C208.15,68.87,205.54,66.29,202.31,66.32z"/>
</g>
<g id="Layer_14">
</g>
<g id="Layer_15">
</g>
</svg>
