<?xml version="1.0" encoding="utf-8"?>
<!-- Generator: Adobe Illustrator 27.8.1, SVG Export Plug-In . SVG Version: 6.00 Build 0)  -->
<svg version="1.1" xmlns="http://www.w3.org/2000/svg" xmlns:xlink="http://www.w3.org/1999/xlink" x="0px" y="0px"
	 viewBox="0 0 350 230" style="enable-background:new 0 0 350 230;" xml:space="preserve">
<style type="text/css">
	.st0{fill:#0E045F;}
	.st1{fill:#CD00FF;}
	.st2{fill:#8CC63F;}
	.st3{fill:#39B54A;}
	.st4{fill:#00770B;}
	.st5{fill:#040051;}
	.st6{fill:#005B59;}
	.st7{fill:#00EDFF;}
	.st8{fill:#006359;}
	.st9{fill:#00006D;}
	.st10{fill:#29004C;}
	.st11{fill:#EB900C;}
	.st12{fill:#DB6E28;}
	.st13{fill:#FFFFFF;}
	.st14{fill:#2D000F;}
	.st15{fill:#660061;}
	.st16{fill:#660061;stroke:#2D002D;stroke-miterlimit:10;}
	.st17{fill:#00AFC6;}
	.st18{fill:#003F39;}
	.st19{fill:#00DCC8;}
	.st20{fill:#FD1F00;}
	.st21{fill:#07186D;}
	.st22{fill:#005C7C;}
	.st23{fill:#8C4B03;}
	.st24{fill:#A38B00;}
	.st25{fill:#20008F;}
	.st26{fill:#003A1D;}
	.st27{fill:#284200;}
	.st28{fill:#00CED8;}
</style>
<g id="Layer_1">
</g>
<g id="Layer_2">
</g>
<g id="Layer_3">
</g>
<g id="Layer_4">
</g>
<g id="Layer_5">
</g>
<g id="Layer_6">
</g>
<g id="Layer_7">
</g>
<g id="Layer_8">
</g>
<g id="Layer_9">
</g>
<g id="Layer_10">
</g>
<g id="Layer_11">
</g>
<g id="Layer_12">
</g>
<g id="Layer_13">
</g>
<g id="Layer_14">
	<g>
		<path class="st26" d="M264.1,111.73c-1.81-49.21-43.17-87.64-92.38-85.83c-49.2,1.81-87.63,43.16-85.82,92.37
			c1.8,49.21,43.16,87.64,92.37,85.83C227.48,202.29,265.9,160.94,264.1,111.73z M205.41,87.82c0.1-0.63,0.15-1.27,0.13-1.9
			c1.31-4.55,5.5-7.88,10.47-7.88c6.02,0,10.91,4.88,10.91,10.9c0,6.03-4.89,10.91-10.91,10.91c-5.82,0-10.57-4.56-10.88-10.3
			L205.41,87.82z M175,56.13c8.33,0,15.09,6.76,15.09,15.1c0,8.33-6.76,15.09-15.09,15.09c-8.34,0-15.1-6.76-15.1-15.09
			C159.9,62.89,166.66,56.13,175,56.13z M133.98,78.04c4.97,0,9.17,3.33,10.48,7.88c-0.02,0.63,0.02,1.27,0.12,1.9l0.29,1.73
			c-0.32,5.74-5.07,10.3-10.89,10.3c-6.02,0-10.9-4.88-10.9-10.9C123.08,82.92,127.96,78.04,133.98,78.04z M149.7,119.28v0.03
			c-0.08,0.44-0.46,0.76-0.9,0.76h-29.64c-0.44,0-0.82-0.32-0.9-0.76l-3.1-18.9c-0.39-2.38,1.45-4.55,3.87-4.55h2.67
			c0.62,1.1,1.4,2.13,2.32,3.05c2.66,2.66,6.19,4.12,9.95,4.12c3.46,0,6.81-1.27,9.39-3.57c1.03-0.93,1.91-1.98,2.62-3.13
			l3.72,22.65C149.72,119.08,149.72,119.18,149.7,119.28z M194.87,120.07h-39.75c-0.44,0-0.82-0.32-0.9-0.76l-5.28-32.2
			c-0.55-3.31,2-6.31,5.35-6.31h3.7c0.86,1.53,1.94,2.95,3.21,4.22c3.69,3.69,8.58,5.72,13.8,5.72c5.21,0,10.11-2.03,13.79-5.72
			c1.28-1.27,2.35-2.69,3.21-4.22h3.7c3.35,0,5.9,3,5.36,6.31l-5.29,32.2C195.7,119.75,195.32,120.07,194.87,120.07z M234.83,100.41
			l-3.1,18.9c-0.07,0.44-0.45,0.76-0.9,0.76H201.2c-0.45,0-0.83-0.32-0.9-0.76l-0.01-0.03c-0.01-0.1-0.01-0.2,0-0.3l3.72-22.65
			c0.57,0.93,1.25,1.79,2.04,2.58c2.69,2.69,6.28,4.16,10.09,4.12c3.77-0.03,7.4-1.59,10.02-4.31c0.84-0.87,1.55-1.83,2.13-2.86
			h2.68C233.38,95.86,235.22,98.03,234.83,100.41z"/>
	</g>
</g>
<g id="Layer_15">
</g>
</svg>
