<?xml version="1.0" encoding="utf-8"?>
<!-- Generator: Adobe Illustrator 27.8.1, SVG Export Plug-In . SVG Version: 6.00 Build 0)  -->
<svg version="1.1" xmlns="http://www.w3.org/2000/svg" xmlns:xlink="http://www.w3.org/1999/xlink" x="0px" y="0px"
	 viewBox="0 0 350 230" style="enable-background:new 0 0 350 230;" xml:space="preserve">
<style type="text/css">
	.st0{fill:#0E045F;}
	.st1{fill:#CD00FF;}
	.st2{fill:#8CC63F;}
	.st3{fill:#39B54A;}
	.st4{fill:#00770B;}
	.st5{fill:#040051;}
	.st6{fill:#005B59;}
	.st7{fill:#00EDFF;}
	.st8{fill:#006359;}
	.st9{fill:#00006D;}
	.st10{fill:#29004C;}
	.st11{fill:#EB900C;}
	.st12{fill:#DB6E28;}
	.st13{fill:#FFFFFF;}
	.st14{fill:#2D000F;}
	.st15{fill:#660061;}
	.st16{fill:#660061;stroke:#2D002D;stroke-miterlimit:10;}
	.st17{fill:#00AFC6;}
	.st18{fill:#003F39;}
	.st19{fill:#00DCC8;}
	.st20{fill:#FD1F00;}
	.st21{fill:#07186D;}
	.st22{fill:#005C7C;}
	.st23{fill:#8C4B03;}
	.st24{fill:#A38B00;}
	.st25{fill:#20008F;}
	.st26{fill:#003A1D;}
	.st27{fill:#284200;}
	.st28{fill:#00CED8;}
</style>
<g id="Layer_1">
</g>
<g id="Layer_2">
</g>
<g id="Layer_3">
</g>
<g id="Layer_4">
</g>
<g id="Layer_5">
</g>
<g id="Layer_6">
</g>
<g id="Layer_7">
</g>
<g id="Layer_8">
</g>
<g id="Layer_9">
</g>
<g id="Layer_10">
</g>
<g id="Layer_11">
</g>
<g id="Layer_12">
</g>
<g id="Layer_13">
</g>
<g id="Layer_14">
</g>
<g id="Layer_15">
	<g>
		<g>
			<path class="st27" d="M106.99,112.17v21.47c-2.05,0.74-4.17,1.34-6.32,1.76c-2.41,0.47-4.85,0.71-7.25,0.71
				c-6.72,0-12.96-1.86-18.2-5.13v-18.81c0-8.09,6.04-14.76,13.86-15.75l1.07,1.63l-4.48,27.51l5.29,4.89l0.14,0.13l0.14-0.13
				l5.29-4.89l-4.48-27.51l1.07-1.63C100.95,97.41,106.99,104.08,106.99,112.17z M91.11,72.92c-5.56,0-10.07,4.51-10.07,10.07
				c0,5.56,4.51,10.07,10.07,10.07c5.56,0,10.07-4.51,10.07-10.07C101.18,77.43,96.68,72.92,91.11,72.92z M101.14,137.74
				c-21.25,4.17-40.66-9.28-43.36-30.04c-2.69-20.76,12.35-40.97,33.6-45.13c6.52-1.28,12.87-0.89,18.61,0.85
				c-7.08-2.97-15.19-3.94-23.54-2.36c-22.84,4.33-38.81,26.12-35.68,48.66c3.14,22.55,24.19,37.32,47.03,32.99
				c15.95-3.02,29.87-14.45,34.95-28.82C127.31,125.78,114.86,135.05,101.14,137.74z"/>
			<path class="st28" d="M72.78,114.41v14.87c-3.98-3.02-7.24-6.92-9.48-11.46v-3.41c0-2.42,1.8-4.4,4.14-4.7l0.32,0.49l-1.34,8.21
				l1.58,1.46l0.04,0.04l0.04-0.04l1.58-1.46l-1.34-8.21l0.32-0.49C70.97,110.01,72.78,112,72.78,114.41z M68.02,108.17
				c1.44,0,2.6-1.16,2.6-2.6c0-1.44-1.16-2.6-2.6-2.6c-1.44,0-2.6,1.16-2.6,2.6C65.42,107,66.58,108.17,68.02,108.17z M117.87,98.5
				l-0.69,1.05l2.9,17.79l-3.42,3.17l-0.09,0.08l-0.09-0.08l-3.42-3.17l2.9-17.79l-0.69-1.05c-3.08,0.39-5.75,2.15-7.35,4.65
				c1.51,2.74,2.37,5.88,2.37,9.23v15.27c0.12,0.02,0.13,0.04,0,0.03v4.61c6.62-3.01,12.43-7.61,16.55-13.13v-10.49
				C126.83,103.46,122.92,99.15,117.87,98.5z M116.57,96.33c3.6,0,6.51-2.92,6.51-6.51c0-3.6-2.92-6.51-6.51-6.51
				c-3.6,0-6.51,2.92-6.51,6.51C110.06,93.41,112.97,96.33,116.57,96.33z M139.14,97.65c-1.58-11.59-7.47-21.35-15.86-28.04
				c6.2,5.85,10.4,13.67,11.55,22.76c2.87,22.89-14.83,45.07-39.51,49.56c-24.69,4.49-47.03-10.43-49.9-33.31
				c-0.04-0.29-0.07-0.6-0.1-0.89c-0.07,2.44,0.07,4.9,0.4,7.38c1.48,10.86,6.73,20.11,14.29,26.74l-3.57,3.43l-1.45-1.31
				l-21.01,20.23l6.09,5.52l21.01-20.23l-1.45-1.31l3.79-3.63c9.64,6.89,22.18,9.93,35.26,7.49
				C124.45,147.2,142.58,122.86,139.14,97.65z"/>
		</g>
	</g>
</g>
</svg>
