<?xml version="1.0" encoding="utf-8"?>
<!-- Generator: Adobe Illustrator 27.8.1, SVG Export Plug-In . SVG Version: 6.00 Build 0)  -->
<svg version="1.1" xmlns="http://www.w3.org/2000/svg" xmlns:xlink="http://www.w3.org/1999/xlink" x="0px" y="0px"
	 viewBox="0 0 350 230" style="enable-background:new 0 0 350 230;" xml:space="preserve">
<style type="text/css">
	.st0{fill:#0E045F;}
	.st1{fill:#CD00FF;}
	.st2{fill:#8CC63F;}
	.st3{fill:#39B54A;}
	.st4{fill:#00770B;}
	.st5{fill:#040051;}
	.st6{fill:#005B59;}
	.st7{fill:#00EDFF;}
	.st8{fill:#006359;}
	.st9{fill:#00006D;}
	.st10{fill:#29004C;}
	.st11{fill:#EB900C;}
	.st12{fill:#DB6E28;}
	.st13{fill:#FFFFFF;}
	.st14{fill:#2D000F;}
	.st15{fill:#660061;}
	.st16{fill:#660061;stroke:#2D002D;stroke-miterlimit:10;}
	.st17{fill:#00AFC6;}
	.st18{fill:#003F39;}
	.st19{fill:#00DCC8;}
	.st20{fill:#FD1F00;}
	.st21{fill:#07186D;}
	.st22{fill:#005C7C;}
	.st23{fill:#8C4B03;}
	.st24{fill:#A38B00;}
	.st25{fill:#20008F;}
	.st26{fill:#003A1D;}
	.st27{fill:#284200;}
	.st28{fill:#00CED8;}
</style>
<g id="Layer_1">
</g>
<g id="Layer_2">
</g>
<g id="Layer_3">
</g>
<g id="Layer_4">
</g>
<g id="Layer_5">
</g>
<g id="Layer_6">
</g>
<g id="Layer_7">
</g>
<g id="Layer_8">
</g>
<g id="Layer_9">
</g>
<g id="Layer_10">
</g>
<g id="Layer_11">
	<g>
		<path d="M41.86,62.33c0.01,0,0.01,0.01,0.02,0.02c0-0.04,0.01-0.07,0.01-0.11C41.88,62.27,41.87,62.3,41.86,62.33z"/>
		<path class="st19" d="M40.5,68.46c-0.14,0.94-0.2,1.9-0.15,2.85c0.58,11.47,11.27,20.19,23.44,18.25
			c9.33-1.48,16.48-9.82,16.62-19.38c0.14-9.99-6.69-18.3-16.6-20.18c-9.18-1.74-18.65,3.55-21.98,12.28l0.04,0.04
			c0.01-0.03,0.02-0.06,0.03-0.09c0,0.04-0.01,0.07-0.01,0.11c-0.01,0-0.01-0.01-0.02-0.02c-0.5,1.54-1.13,2.72-1.22,4.67
			C40.62,67.49,40.57,67.98,40.5,68.46L40.5,68.46z M60.03,81.08c-6.21-0.09-11.18-5.23-11.09-11.48
			c0.09-6.21,5.24-11.21,11.46-11.11c6.2,0.09,11.19,5.26,11.1,11.49C71.4,76.19,66.27,81.16,60.03,81.08z"/>
		<path class="st20" d="M76.77,88.34c1.32-1.42,2.63-2.83,3.95-4.24c9.58,5.15,17.54,18.03,15.9,32.37
			c-1.78,15.64-13.91,28.22-28.82,30.12c-16.47,2.09-31.07-6.36-37-21.43c-5.49-13.94-0.75-30.79,11.15-39.41
			c1.41,1.27,2.83,2.56,4.38,3.97c-8.05,6.11-12.32,14.18-11.96,24.3c0.28,7.89,3.55,14.58,9.48,19.86
			c11.73,10.46,29.67,9.18,40.04-2.7C94.11,119.45,93.5,98.8,76.77,88.34z M129.41,174.47c-10.62-9.28-21.29-18.52-31.95-27.75
			c-1.89-1.63-3.45-1.57-4.9,0.1c-1.36,1.57-1.1,3.25,0.75,4.86c5.63,4.92,11.27,9.83,16.89,14.76c4.99,4.37,9.92,8.81,14.99,13.08
			c0.79,0.66,2.41,1.02,3.31,0.67c1.08-0.43,1.8-1.77,2.85-2.91C130.54,176.08,130.13,175.1,129.41,174.47z"/>
	</g>
</g>
<g id="Layer_12">
</g>
<g id="Layer_13">
</g>
<g id="Layer_14">
</g>
<g id="Layer_15">
</g>
</svg>
