<?xml version="1.0" encoding="utf-8"?>
<!-- Generator: Adobe Illustrator 27.8.1, SVG Export Plug-In . SVG Version: 6.00 Build 0)  -->
<svg version="1.1" xmlns="http://www.w3.org/2000/svg" xmlns:xlink="http://www.w3.org/1999/xlink" x="0px" y="0px"
	 viewBox="0 0 350 230" style="enable-background:new 0 0 350 230;" xml:space="preserve">
<style type="text/css">
	.st0{fill:#0E045F;}
	.st1{fill:#CD00FF;}
	.st2{fill:#8CC63F;}
	.st3{fill:#39B54A;}
	.st4{fill:#00770B;}
	.st5{fill:#040051;}
	.st6{fill:#005B59;}
	.st7{fill:#00EDFF;}
	.st8{fill:#006359;}
	.st9{fill:#00006D;}
	.st10{fill:#29004C;}
	.st11{fill:#EB900C;}
	.st12{fill:#DB6E28;}
	.st13{fill:#FFFFFF;}
	.st14{fill:#2D000F;}
	.st15{fill:#660061;}
	.st16{fill:#660061;stroke:#2D002D;stroke-miterlimit:10;}
	.st17{fill:#00AFC6;}
	.st18{fill:#003F39;}
	.st19{fill:#00DCC8;}
	.st20{fill:#FD1F00;}
	.st21{fill:#07186D;}
	.st22{fill:#005C7C;}
	.st23{fill:#8C4B03;}
	.st24{fill:#A38B00;}
	.st25{fill:#20008F;}
	.st26{fill:#003A1D;}
	.st27{fill:#284200;}
	.st28{fill:#00CED8;}
</style>
<g id="Layer_1">
</g>
<g id="Layer_2">
	<g id="design">
		<path d="M121.49,70.69L121.49,70.69c-4.65,0-8.41,3.77-8.41,8.41v27.64v7.7v36.05h16.83v-36.05h13.8c2.13,0,3.85-1.72,3.85-3.85
			l0,0c0-2.13-1.72-3.85-3.85-3.85h-13.8V79.1C129.9,74.45,126.14,70.69,121.49,70.69z M121.55,49.56c4.68,0,8.48,3.8,8.48,8.48
			s-3.8,8.48-8.48,8.48c-4.68,0-8.48-3.8-8.48-8.48S116.87,49.56,121.55,49.56z M167.3,106.74h-13.8c-2.13,0-3.85,1.72-3.85,3.85
			l0,0c0,2.13,1.72,3.85,3.85,3.85h13.8v36.05h16.83v-36.05v-7.7V79.1c0-4.65-3.77-8.41-8.41-8.41l0,0c-4.65,0-8.41,3.77-8.41,8.41
			L167.3,106.74L167.3,106.74z M169.66,52.04c3.31-3.31,8.68-3.31,11.99,0s3.31,8.68,0,11.99s-8.68,3.31-11.99,0
			S166.35,55.35,169.66,52.04z"/>
		<path class="st2" d="M217.12,92.57c0-12.08-9.8-21.88-21.88-21.88h-8.73v16.76h8.73c2.83,0,5.12,2.29,5.12,5.12
			c0,1.95-1.09,3.64-2.69,4.5c-0.72,0.39-1.55,0.61-2.43,0.61h-8.73v14.95l13.78,37.86h16.83l-13.7-37.63
			C211.45,109.62,217.12,101.76,217.12,92.57z"/>
		<path class="st3" d="M200.29,150.5l36.63-38.34l-19.8,38.34H200.29z"/>
	</g>
</g>
<g id="Layer_3">
</g>
<g id="Layer_4">
</g>
<g id="Layer_5">
</g>
<g id="Layer_6">
</g>
<g id="Layer_7">
</g>
<g id="Layer_8">
</g>
<g id="Layer_9">
</g>
<g id="Layer_10">
</g>
<g id="Layer_11">
</g>
<g id="Layer_12">
</g>
<g id="Layer_13">
</g>
<g id="Layer_14">
</g>
<g id="Layer_15">
</g>
</svg>
