<?xml version="1.0" encoding="utf-8"?>
<!-- Generator: Adobe Illustrator 27.8.1, SVG Export Plug-In . SVG Version: 6.00 Build 0)  -->
<svg version="1.1" xmlns="http://www.w3.org/2000/svg" xmlns:xlink="http://www.w3.org/1999/xlink" x="0px" y="0px"
	 viewBox="0 0 350 230" style="enable-background:new 0 0 350 230;" xml:space="preserve">
<style type="text/css">
	.st0{fill:#0E045F;}
	.st1{fill:#CD00FF;}
	.st2{fill:#8CC63F;}
	.st3{fill:#39B54A;}
	.st4{fill:#00770B;}
	.st5{fill:#040051;}
	.st6{fill:#005B59;}
	.st7{fill:#00EDFF;}
	.st8{fill:#006359;}
	.st9{fill:#00006D;}
	.st10{fill:#29004C;}
	.st11{fill:#EB900C;}
	.st12{fill:#DB6E28;}
	.st13{fill:#FFFFFF;}
	.st14{fill:#2D000F;}
	.st15{fill:#660061;}
	.st16{fill:#660061;stroke:#2D002D;stroke-miterlimit:10;}
	.st17{fill:#00AFC6;}
	.st18{fill:#003F39;}
	.st19{fill:#00DCC8;}
	.st20{fill:#FD1F00;}
	.st21{fill:#07186D;}
	.st22{fill:#005C7C;}
	.st23{fill:#8C4B03;}
	.st24{fill:#A38B00;}
	.st25{fill:#20008F;}
	.st26{fill:#003A1D;}
	.st27{fill:#284200;}
	.st28{fill:#00CED8;}
</style>
<g id="Layer_1">
</g>
<g id="Layer_2">
</g>
<g id="Layer_3">
	<g id="design_00000091694685016951414470000004293928728731820931_">
		<g>
			<path class="st4" d="M197.31,71.33c-1.5-0.57-3.31-0.86-5.42-0.86h-6.34v16.05h6.34c2.11,0,3.92-0.26,5.42-0.79
				c1.5-0.53,2.65-1.38,3.46-2.54c0.81-1.16,1.21-2.69,1.21-4.56c0-1.9-0.4-3.45-1.21-4.64C199.96,72.79,198.81,71.91,197.31,71.33z
				"/>
			<path class="st5" d="M185.55,100.5v21.85h17.85l-11.63-21.85H185.55z M196.16,56.11c4.92,0,9.22,0.9,12.91,2.69
				c3.69,1.79,6.56,4.37,8.61,7.73c2.05,3.37,3.07,7.4,3.07,12.1c0,4.75-1.05,8.75-3.15,12c-1.96,3.04-4.67,5.39-8.1,7.04
				l13.44,24.68h0.56V56.11H196.16z M168.3,81.99h-23.81V56.11H126.5v66.26h17.99V96.49h23.81V81.99z"/>
		</g>
	</g>
</g>
<g id="Layer_4">
</g>
<g id="Layer_5">
</g>
<g id="Layer_6">
</g>
<g id="Layer_7">
</g>
<g id="Layer_8">
</g>
<g id="Layer_9">
</g>
<g id="Layer_10">
</g>
<g id="Layer_11">
</g>
<g id="Layer_12">
</g>
<g id="Layer_13">
</g>
<g id="Layer_14">
</g>
<g id="Layer_15">
</g>
</svg>
