<?xml version="1.0" encoding="utf-8"?>
<!-- Generator: Adobe Illustrator 27.8.1, SVG Export Plug-In . SVG Version: 6.00 Build 0)  -->
<svg version="1.1" xmlns="http://www.w3.org/2000/svg" xmlns:xlink="http://www.w3.org/1999/xlink" x="0px" y="0px"
	 viewBox="0 0 350 230" style="enable-background:new 0 0 350 230;" xml:space="preserve">
<style type="text/css">
	.st0{fill:#0E045F;}
	.st1{fill:#CD00FF;}
	.st2{fill:#8CC63F;}
	.st3{fill:#39B54A;}
	.st4{fill:#00770B;}
	.st5{fill:#040051;}
	.st6{fill:#005B59;}
	.st7{fill:#00EDFF;}
	.st8{fill:#006359;}
	.st9{fill:#00006D;}
	.st10{fill:#29004C;}
	.st11{fill:#EB900C;}
	.st12{fill:#DB6E28;}
	.st13{fill:#FFFFFF;}
	.st14{fill:#2D000F;}
	.st15{fill:#660061;}
	.st16{fill:#660061;stroke:#2D002D;stroke-miterlimit:10;}
	.st17{fill:#00AFC6;}
	.st18{fill:#003F39;}
	.st19{fill:#00DCC8;}
	.st20{fill:#FD1F00;}
	.st21{fill:#07186D;}
	.st22{fill:#005C7C;}
	.st23{fill:#8C4B03;}
	.st24{fill:#A38B00;}
	.st25{fill:#20008F;}
	.st26{fill:#003A1D;}
	.st27{fill:#284200;}
	.st28{fill:#00CED8;}
</style>
<g id="Layer_1">
</g>
<g id="Layer_2">
</g>
<g id="Layer_3">
</g>
<g id="Layer_4">
</g>
<g id="Layer_5">
	<g>
		<path class="st8" d="M196.88,65.8l-5.41,5.19l-14.78,14.17c-0.7,0.67-1.6,1.01-2.5,1.01c-0.93,0-1.86-0.35-2.57-1.05l-8.71-8.71
			l5.12-5.12l6.2,6.21l12.83-12.3l5.24-5.02C194.09,61.81,195.63,63.71,196.88,65.8z M135.01,82.73c8.65,0,15.67,7.01,15.67,15.67
			s-7.01,15.67-15.67,15.67c-8.65,0-15.66-7.01-15.66-15.67S126.35,82.73,135.01,82.73z M135.01,82.73
			c8.65,0,15.67,7.01,15.67,15.67s-7.01,15.67-15.67,15.67c-8.65,0-15.66-7.01-15.66-15.67S126.35,82.73,135.01,82.73z
			 M214.99,82.73c8.65,0,15.66,7.01,15.66,15.67s-7.01,15.67-15.66,15.67s-15.66-7.01-15.66-15.67S206.34,82.73,214.99,82.73z
			 M214.99,82.73c8.65,0,15.66,7.01,15.66,15.67s-7.01,15.67-15.66,15.67s-15.66-7.01-15.66-15.67S206.34,82.73,214.99,82.73z"/>
		<path class="st9" d="M146.32,119.41c-2.32-1.36-5.01-2.16-7.9-2.16h-6.84c-8.63,0-15.65,7.02-15.65,15.65v7.14h28.05v-9.81
			C143.99,126.37,144.83,122.71,146.32,119.41z M203.68,119.41c2.32-1.36,5.01-2.16,7.9-2.16h6.84c8.63,0,15.65,7.02,15.65,15.65
			v7.14h-28.05v-9.81C206.02,126.37,205.17,122.71,203.68,119.41z M201.19,140.04h-52.38v-9.81c0-11.85,9.64-21.49,21.49-21.49h9.4
			c11.85,0,21.49,9.64,21.49,21.49L201.19,140.04L201.19,140.04z M156.05,132.81h37.91v-2.58c0-7.86-6.4-14.26-14.26-14.26h-9.4
			c-7.86,0-14.26,6.39-14.26,14.26L156.05,132.81L156.05,132.81z M191.22,121.87c1.71,2.35,2.73,5.24,2.73,8.36v2.58h-37.91v-2.58
			c0-3.12,1.02-6.01,2.73-8.36c-2.31-0.78-4.57-1.73-6.78-2.85c-2.01,3.27-3.19,7.1-3.19,11.21v9.81h52.38v-9.81
			c0-4.11-1.18-7.94-3.19-11.21C195.8,120.14,193.53,121.09,191.22,121.87z M201.19,140.04h-52.38v-9.81
			c0-11.85,9.64-21.49,21.49-21.49h9.4c11.85,0,21.49,9.64,21.49,21.49L201.19,140.04L201.19,140.04z M156.05,132.81h37.91v-2.58
			c0-7.86-6.4-14.26-14.26-14.26h-9.4c-7.86,0-14.26,6.39-14.26,14.26L156.05,132.81L156.05,132.81z M198.41,68.79l-5.74,5.5
			c0.38,1.46,0.58,2.98,0.58,4.56c0,10.06-8.19,18.25-18.25,18.25c-10.06,0-18.25-8.19-18.25-18.25S164.94,60.6,175,60.6
			c3.46,0,6.69,0.97,9.45,2.64l5.35-5.12c-4.18-2.99-9.28-4.75-14.79-4.75c-14.05,0-25.48,11.43-25.48,25.48
			s11.43,25.48,25.48,25.48c14.05,0,25.48-11.43,25.48-25.48C200.48,75.28,199.74,71.88,198.41,68.79z M198.41,68.79l-5.74,5.5
			c0.38,1.46,0.58,2.98,0.58,4.56c0,10.06-8.19,18.25-18.25,18.25c-10.06,0-18.25-8.19-18.25-18.25S164.94,60.6,175,60.6
			c3.46,0,6.69,0.97,9.45,2.64l5.35-5.12c-4.18-2.99-9.28-4.75-14.79-4.75c-14.05,0-25.48,11.43-25.48,25.48
			s11.43,25.48,25.48,25.48c14.05,0,25.48-11.43,25.48-25.48C200.48,75.28,199.74,71.88,198.41,68.79z"/>
	</g>
</g>
<g id="Layer_6">
</g>
<g id="Layer_7">
</g>
<g id="Layer_8">
</g>
<g id="Layer_9">
</g>
<g id="Layer_10">
</g>
<g id="Layer_11">
</g>
<g id="Layer_12">
</g>
<g id="Layer_13">
</g>
<g id="Layer_14">
</g>
<g id="Layer_15">
</g>
</svg>
