<?xml version="1.0" encoding="utf-8"?>
<!-- Generator: Adobe Illustrator 27.8.1, SVG Export Plug-In . SVG Version: 6.00 Build 0)  -->
<svg version="1.1" xmlns="http://www.w3.org/2000/svg" xmlns:xlink="http://www.w3.org/1999/xlink" x="0px" y="0px"
	 viewBox="0 0 350 230" style="enable-background:new 0 0 350 230;" xml:space="preserve">
<style type="text/css">
	.st0{fill:#0E045F;}
	.st1{fill:#CD00FF;}
	.st2{fill:#8CC63F;}
	.st3{fill:#39B54A;}
	.st4{fill:#00770B;}
	.st5{fill:#040051;}
	.st6{fill:#005B59;}
	.st7{fill:#00EDFF;}
	.st8{fill:#006359;}
	.st9{fill:#00006D;}
	.st10{fill:#29004C;}
	.st11{fill:#EB900C;}
	.st12{fill:#DB6E28;}
	.st13{fill:#FFFFFF;}
	.st14{fill:#2D000F;}
	.st15{fill:#660061;}
	.st16{fill:#660061;stroke:#2D002D;stroke-miterlimit:10;}
	.st17{fill:#00AFC6;}
	.st18{fill:#003F39;}
	.st19{fill:#00DCC8;}
	.st20{fill:#FD1F00;}
	.st21{fill:#07186D;}
	.st22{fill:#005C7C;}
	.st23{fill:#8C4B03;}
	.st24{fill:#A38B00;}
	.st25{fill:#20008F;}
	.st26{fill:#003A1D;}
	.st27{fill:#284200;}
	.st28{fill:#00CED8;}
</style>
<g id="Layer_1">
</g>
<g id="Layer_2">
</g>
<g id="Layer_3">
</g>
<g id="Layer_4">
</g>
<g id="Layer_5">
</g>
<g id="Layer_6">
	<g>
		<path class="st10" d="M175,44.8c-20.71,0-37.54,16.84-37.54,37.54c0,6.97,1.92,13.74,5.55,19.63c0.17,0.28,0.34,0.56,0.53,0.84
			l17.15,26.62l5.88,9.14l1.45,2.24l0.09,0.14h13.79l0.09-0.14l1.45-2.24l5.88-9.13v-0.01l17.13-26.59
			c0.19-0.29,0.37-0.59,0.55-0.88c3.64-5.92,5.55-12.68,5.55-19.63C212.54,61.65,195.71,44.8,175,44.8z M178.17,134.14h-6.34
			l-20.72-32.16l-1.85-2.86c-3.26-5-4.98-10.79-4.98-16.77c0-16.94,13.78-30.72,30.72-30.72c16.94,0,30.72,13.78,30.72,30.72
			c0,5.98-1.72,11.78-5,16.79l-1.83,2.84L178.17,134.14z M198.9,101.98l-20.72,32.17h-6.35l-20.72-32.17H143
			c0.17,0.28,0.35,0.56,0.53,0.84l24.57,38.14h13.79l24.55-38.11c0.19-0.29,0.37-0.58,0.55-0.87L198.9,101.98L198.9,101.98z
			 M181.04,149.03h-12.08c-4.57,0-8.28-3.71-8.28-8.28v-11.3l5.89,9.13h16.86l5.89-9.13v11.3
			C189.32,145.32,185.61,149.03,181.04,149.03z M160.68,138.58h28.63v2.24h-28.63V138.58z"/>
		<path class="st11" d="M174.99,101.98c-6.81,0-12.99,2.74-17.5,7.17l3.2,4.95l11.92,18.5h4.79l11.92-18.5l3.2-4.96
			C187.99,104.72,181.82,101.98,174.99,101.98z M186.58,94.8c-1.42,1.42-3.03,2.51-4.75,3.31c-4.33,1.99-9.34,1.99-13.67,0
			c-1.72-0.78-3.33-1.89-4.76-3.31c-3.9-3.9-5.42-9.26-4.57-14.31c0.54-3.25,2.06-6.36,4.57-8.86c6.4-6.4,16.78-6.4,23.18,0
			c2.5,2.5,4.02,5.61,4.57,8.85C192.01,85.54,190.49,90.91,186.58,94.8z M174.99,100.03c-2.39,0-4.78-0.51-7.01-1.54
			c-1.8-0.82-3.44-1.96-4.88-3.39c-3.84-3.84-5.59-9.33-4.69-14.69c0.57-3.46,2.19-6.6,4.69-9.09c6.56-6.56,17.22-6.56,23.78,0
			c2.49,2.49,4.11,5.63,4.69,9.08c0.91,5.37-0.85,10.86-4.69,14.69c-1.41,1.41-3.05,2.56-4.87,3.39
			C179.78,99.52,177.39,100.03,174.99,100.03z M175,67.27c-4.09,0-8.18,1.56-11.29,4.67c-2.37,2.36-3.91,5.34-4.45,8.63
			c-0.86,5.09,0.81,10.3,4.45,13.94c1.37,1.36,2.93,2.44,4.63,3.22c4.22,1.95,9.08,1.95,13.32,0c1.73-0.79,3.28-1.88,4.62-3.22l0,0
			c3.65-3.64,5.31-8.85,4.45-13.95c-0.55-3.28-2.09-6.26-4.45-8.62C183.17,68.82,179.08,67.27,175,67.27z"/>
		<path class="st12" d="M163.41,94.8c-3.9-3.9-5.42-9.26-4.57-14.31c-5.46,0.52-9.73,5.12-9.73,10.72c0,5.95,4.82,10.78,10.78,10.78
			c3.32,0,6.29-1.5,8.28-3.87C166.44,97.33,164.83,96.22,163.41,94.8z M191.15,80.48c0.85,5.06-0.66,10.43-4.57,14.32
			c-1.42,1.42-3.03,2.51-4.75,3.31c1.99,2.37,4.95,3.87,8.28,3.87c5.95,0,10.78-4.82,10.78-10.78
			C200.89,85.6,196.62,81,191.15,80.48z M179.06,119.16L179.06,119.16c-2.69,0.51-5.43,0.51-8.11,0h-0.01
			c-3.71-0.71-7.25-2.4-10.26-5.06l11.92,18.5v0.01h4.79v-0.01l11.92-18.5C186.31,116.76,182.77,118.45,179.06,119.16z"/>
		<path class="st13" d="M177.31,104.53H175h-2.31c-0.56,0-0.98,0.53-0.84,1.07l0.66,2.69c0.1,0.39,0.44,0.66,0.84,0.66H175h1.65
			c0.4,0,0.75-0.27,0.84-0.66l0.66-2.69C178.29,105.06,177.88,104.53,177.31,104.53z M177.03,110.43h-4.06l-2.03,8.74l4.06,5.04
			l4.06-5.04L177.03,110.43z"/>
	</g>
</g>
<g id="Layer_7">
</g>
<g id="Layer_8">
</g>
<g id="Layer_9">
</g>
<g id="Layer_10">
</g>
<g id="Layer_11">
</g>
<g id="Layer_12">
</g>
<g id="Layer_13">
</g>
<g id="Layer_14">
</g>
<g id="Layer_15">
</g>
</svg>
