<?xml version="1.0" encoding="utf-8"?>
<!-- Generator: Adobe Illustrator 27.8.1, SVG Export Plug-In . SVG Version: 6.00 Build 0)  -->
<svg version="1.1" xmlns="http://www.w3.org/2000/svg" xmlns:xlink="http://www.w3.org/1999/xlink" x="0px" y="0px"
	 viewBox="0 0 350 230" style="enable-background:new 0 0 350 230;" xml:space="preserve">
<style type="text/css">
	.st0{fill:#0E045F;}
	.st1{fill:#CD00FF;}
	.st2{fill:#8CC63F;}
	.st3{fill:#39B54A;}
	.st4{fill:#00770B;}
	.st5{fill:#040051;}
	.st6{fill:#005B59;}
	.st7{fill:#00EDFF;}
	.st8{fill:#006359;}
	.st9{fill:#00006D;}
	.st10{fill:#29004C;}
	.st11{fill:#EB900C;}
	.st12{fill:#DB6E28;}
	.st13{fill:#FFFFFF;}
	.st14{fill:#2D000F;}
	.st15{fill:#660061;}
	.st16{fill:#660061;stroke:#2D002D;stroke-miterlimit:10;}
	.st17{fill:#00AFC6;}
	.st18{fill:#003F39;}
	.st19{fill:#00DCC8;}
	.st20{fill:#FD1F00;}
	.st21{fill:#07186D;}
	.st22{fill:#005C7C;}
	.st23{fill:#8C4B03;}
	.st24{fill:#A38B00;}
	.st25{fill:#20008F;}
	.st26{fill:#003A1D;}
	.st27{fill:#284200;}
	.st28{fill:#00CED8;}
</style>
<g id="Layer_1">
</g>
<g id="Layer_2">
</g>
<g id="Layer_3">
</g>
<g id="Layer_4">
</g>
<g id="Layer_5">
</g>
<g id="Layer_6">
</g>
<g id="Layer_7">
	<g>
		<path class="st14" d="M175,76.46c-10.64,0-19.26,8.62-19.26,19.26s8.62,19.26,19.26,19.26s19.26-8.62,19.26-19.26
			S185.64,76.46,175,76.46z M175,76.46c-10.64,0-19.26,8.62-19.26,19.26s8.62,19.26,19.26,19.26s19.26-8.62,19.26-19.26
			S185.64,76.46,175,76.46z M191.61,157.41h-33.23c-0.56,0-1.11-0.08-1.61-0.25c-0.34-0.1-0.66-0.24-0.97-0.41
			c-0.15-0.09-0.3-0.18-0.43-0.28c-0.29-0.19-0.55-0.42-0.79-0.66c-1.2-1.22-1.81-3-1.43-4.85l2.35-11.33l1.32-6.36
			c1.87-8.54,9.44-14.64,18.18-14.64s16.32,6.09,18.19,14.64l1.31,6.36l2.35,11.33C197.53,154.3,195,157.41,191.61,157.41z"/>
		<path class="st15" d="M225.97,95.73c0,16.42-7.99,31.93-21.36,41.49c-0.33,0.24-0.66,0.47-1,0.69l-0.13-9.32l-6.47,0.05v-0.01
			c0.33-0.22,0.67-0.42,1-0.66c10.39-7.43,16.6-19.48,16.6-32.25c0-21.84-17.78-39.61-39.62-39.61s-39.62,17.77-39.62,39.61
			c0,11.14,4.62,21.21,12.04,28.41c1.14,1.11,2.35,2.15,3.61,3.11c0.64,0.49,1.28,0.95,1.95,1.39l-6.48-0.05l-0.12,9.27
			c-13.48-9.16-22.36-24.63-22.36-42.14c0-28.11,22.86-50.97,50.97-50.97S225.97,67.62,225.97,95.73z"/>
	</g>
</g>
<g id="Layer_8">
</g>
<g id="Layer_9">
</g>
<g id="Layer_10">
</g>
<g id="Layer_11">
</g>
<g id="Layer_12">
</g>
<g id="Layer_13">
</g>
<g id="Layer_14">
</g>
<g id="Layer_15">
</g>
</svg>
