<?xml version="1.0" encoding="utf-8"?>
<!-- Generator: Adobe Illustrator 27.8.1, SVG Export Plug-In . SVG Version: 6.00 Build 0)  -->
<svg version="1.1" xmlns="http://www.w3.org/2000/svg" xmlns:xlink="http://www.w3.org/1999/xlink" x="0px" y="0px"
	 viewBox="0 0 350 230" style="enable-background:new 0 0 350 230;" xml:space="preserve">
<style type="text/css">
	.st0{fill:#0E045F;}
	.st1{fill:#CD00FF;}
	.st2{fill:#8CC63F;}
	.st3{fill:#39B54A;}
	.st4{fill:#00770B;}
	.st5{fill:#040051;}
	.st6{fill:#005B59;}
	.st7{fill:#00EDFF;}
	.st8{fill:#006359;}
	.st9{fill:#00006D;}
	.st10{fill:#29004C;}
	.st11{fill:#EB900C;}
	.st12{fill:#DB6E28;}
	.st13{fill:#FFFFFF;}
	.st14{fill:#2D000F;}
	.st15{fill:#660061;}
	.st16{fill:#660061;stroke:#2D002D;stroke-miterlimit:10;}
	.st17{fill:#00AFC6;}
	.st18{fill:#003F39;}
	.st19{fill:#00DCC8;}
	.st20{fill:#FD1F00;}
	.st21{fill:#07186D;}
	.st22{fill:#005C7C;}
	.st23{fill:#8C4B03;}
	.st24{fill:#A38B00;}
	.st25{fill:#20008F;}
	.st26{fill:#003A1D;}
	.st27{fill:#284200;}
	.st28{fill:#00CED8;}
</style>
<g id="Layer_1">
</g>
<g id="Layer_2">
</g>
<g id="Layer_3">
</g>
<g id="Layer_4">
</g>
<g id="Layer_5">
</g>
<g id="Layer_6">
</g>
<g id="Layer_7">
</g>
<g id="Layer_8">
	<g>
		<path class="st16" d="M175,54.53c-27.81,0-50.44,22.62-50.44,50.43c0,2.98,0.28,5.9,0.78,8.75h7.29
			c-0.58-2.82-0.89-5.75-0.89-8.75c0-23.85,19.41-43.26,43.26-43.26s43.26,19.41,43.26,43.26c0,3-0.31,5.93-0.89,8.75h7.29
			c0.5-2.85,0.78-5.77,0.78-8.75C225.44,77.15,202.81,54.53,175,54.53z"/>
		<path class="st11" d="M190.48,114.64l-6.4-3.51c-0.25-0.14-0.56-0.16-0.83-0.04l-8.15,3.53c-0.06,0.03-0.14,0.03-0.2,0l-8.15-3.53
			c-0.27-0.12-0.57-0.1-0.83,0.04l-6.4,3.51c-3.04,1.67-4.93,4.85-4.93,8.32v16.19c3.32,1.99,6.88,3.48,10.61,4.42
			c6.38,1.62,13.2,1.63,19.6,0c3.73-0.95,7.29-2.43,10.61-4.42v-16.19C195.41,119.49,193.52,116.31,190.48,114.64z M172.35,117.47
			h5.3c0.65,0,1.12,0.61,0.97,1.23l-0.76,3.08c-0.11,0.45-0.51,0.76-0.97,0.76h-3.78c-0.46,0-0.86-0.31-0.97-0.76l-0.76-3.08
			C171.23,118.08,171.7,117.47,172.35,117.47z M179.52,137.71l-4.14,5.14c-0.2,0.24-0.57,0.24-0.76,0l-4.14-5.14
			c-0.09-0.1-0.12-0.25-0.1-0.39l1.39-7.96l0.9-5.13h4.66l0.9,5.13l1.39,7.96C179.64,137.46,179.6,137.61,179.52,137.71z
			 M194.5,117.88c-0.89-1.51-2.18-2.78-3.78-3.66l-6.41-3.52c-0.38-0.21-0.85-0.23-1.25-0.05l-8.06,3.49l-8.06-3.49
			c-0.41-0.18-0.86-0.16-1.25,0.05l-6.41,3.52c-3.19,1.75-5.17,5.1-5.17,8.74v16.33c0,0.08,0.04,0.16,0.12,0.21
			c3.38,2.04,7.04,3.57,10.85,4.54c3.23,0.82,6.57,1.24,9.92,1.24s6.69-0.42,9.92-1.24c3.82-0.97,7.47-2.5,10.86-4.54
			c0.07-0.05,0.11-0.13,0.11-0.21v-16.33C195.89,121.14,195.4,119.39,194.5,117.88z M171.77,129.36l0.9-5.13h4.66l0.9,5.13
			l1.39,7.96c0.02,0.14-0.02,0.29-0.1,0.39l-4.14,5.14c-0.2,0.24-0.57,0.24-0.76,0l-4.14-5.14c-0.09-0.1-0.12-0.25-0.1-0.39
			L171.77,129.36z M172.35,117.47h5.3c0.65,0,1.12,0.61,0.97,1.23l-0.76,3.08c-0.11,0.45-0.51,0.76-0.97,0.76h-3.78
			c-0.46,0-0.86-0.31-0.97-0.76l-0.76-3.08C171.23,118.08,171.7,117.47,172.35,117.47z M195.65,127.05
			c-0.08,0.02-0.16,0.04-0.24,0.06v-4.15c0-3.47-1.89-6.65-4.93-8.32l-6.4-3.51c-0.25-0.14-0.56-0.16-0.83-0.04l-8.15,3.53
			c-0.06,0.03-0.14,0.03-0.2,0l-8.15-3.53c-0.27-0.12-0.57-0.1-0.83,0.04l-6.4,3.51c-3.04,1.67-4.93,4.85-4.93,8.32v4.15
			c-0.08-0.02-0.16-0.04-0.24-0.06v-4.09c0-3.55,1.94-6.82,5.05-8.53l6.4-3.51c0.33-0.18,0.71-0.2,1.04-0.05l8.16,3.53l8.16-3.53
			c0.33-0.15,0.72-0.13,1.04,0.05l6.4,3.51c3.11,1.71,5.05,4.98,5.05,8.53V127.05z M195.41,127.11v-4.15c0-3.47-1.89-6.65-4.93-8.32
			l-6.4-3.51c-0.25-0.14-0.56-0.16-0.83-0.04l-8.15,3.53c-0.06,0.03-0.14,0.03-0.2,0l-8.15-3.53c-0.27-0.12-0.57-0.1-0.83,0.04
			l-6.4,3.51c-3.04,1.67-4.93,4.85-4.93,8.32v4.15c-0.08-0.02-0.16-0.04-0.24-0.06v12.24c3.31,2,6.94,3.54,10.79,4.52
			c3.15,0.8,6.46,1.23,9.86,1.23s6.71-0.43,9.86-1.23c3.85-0.98,7.47-2.52,10.79-4.52v-12.24
			C195.57,127.07,195.49,127.09,195.41,127.11z M172.35,117.47h5.3c0.65,0,1.12,0.61,0.97,1.23l-0.76,3.08
			c-0.11,0.45-0.51,0.76-0.97,0.76h-3.78c-0.46,0-0.86-0.31-0.97-0.76l-0.76-3.08C171.23,118.08,171.7,117.47,172.35,117.47z
			 M171.77,129.36l0.9-5.13h4.66l0.9,5.13l1.39,7.96c0.02,0.14-0.02,0.29-0.1,0.39l-4.14,5.14c-0.2,0.24-0.57,0.24-0.76,0
			l-4.14-5.14c-0.09-0.1-0.12-0.25-0.1-0.39L171.77,129.36z M195.41,127.11v-4.15c0-3.47-1.89-6.65-4.93-8.32l-6.4-3.51
			c-0.25-0.14-0.56-0.16-0.83-0.04l-8.15,3.53c-0.06,0.03-0.14,0.03-0.2,0l-8.15-3.53c-0.27-0.12-0.57-0.1-0.83,0.04l-6.4,3.51
			c-3.04,1.67-4.93,4.85-4.93,8.32v4.15c-0.08-0.02-0.16-0.04-0.24-0.06v12.24c3.31,2,6.94,3.54,10.79,4.52
			c3.15,0.8,6.46,1.23,9.86,1.23s6.71-0.43,9.86-1.23c3.85-0.98,7.47-2.52,10.79-4.52v-12.24
			C195.57,127.07,195.49,127.09,195.41,127.11z M172.35,117.47h5.3c0.65,0,1.12,0.61,0.97,1.23l-0.76,3.08
			c-0.11,0.45-0.51,0.76-0.97,0.76h-3.78c-0.46,0-0.86-0.31-0.97-0.76l-0.76-3.08C171.23,118.08,171.7,117.47,172.35,117.47z
			 M171.77,129.36l0.9-5.13h4.66l0.9,5.13l1.39,7.96c0.02,0.14-0.02,0.29-0.1,0.39l-4.14,5.14c-0.2,0.24-0.57,0.24-0.76,0
			l-4.14-5.14c-0.09-0.1-0.12-0.25-0.1-0.39L171.77,129.36z"/>
		<path class="st17" d="M202.27,87.45c-6.5,0-11.79,5.29-11.79,11.78c0,6.5,5.29,11.79,11.79,11.79c6.49,0,11.78-5.29,11.78-11.79
			C214.05,92.74,208.76,87.45,202.27,87.45z M202.27,86.97c-6.77,0-12.27,5.5-12.27,12.26c0,6.77,5.5,12.27,12.27,12.27
			c6.76,0,12.27-5.5,12.27-12.27C214.54,92.47,209.03,86.97,202.27,86.97z M202.27,87.21c-6.65,0-12.03,5.38-12.03,12.02
			c0,6.65,5.38,12.03,12.03,12.03c6.64,0,12.02-5.38,12.02-12.03C214.29,92.59,208.91,87.21,202.27,87.21z M205.07,113.71h-9.1
			c-0.67,0-1.34,0.17-1.93,0.49c1.2,1.12,2.16,2.46,2.82,3.95c0.66,1.49,1.01,3.13,1.01,4.81v14.89
			c7.49-5.23,13.13-12.96,15.68-21.97C210.95,114.45,208.03,113.71,205.07,113.71z M147.73,87.45c-6.5,0-11.78,5.29-11.78,11.78
			c0,6.5,5.28,11.79,11.78,11.79s11.79-5.29,11.79-11.79C159.52,92.74,154.23,87.45,147.73,87.45z M147.73,86.97
			c-6.76,0-12.27,5.5-12.27,12.26c0,6.77,5.51,12.27,12.27,12.27c6.77,0,12.27-5.5,12.27-12.27C160,92.47,154.5,86.97,147.73,86.97z
			 M147.73,87.21c-6.64,0-12.02,5.38-12.02,12.02c0,6.65,5.38,12.03,12.02,12.03c6.65,0,12.03-5.38,12.03-12.03
			C159.76,92.59,154.38,87.21,147.73,87.21z M154.03,113.71h-9.1c-2.96,0-5.88,0.74-8.48,2.17c1.27,4.5,3.32,8.69,5.98,12.4
			c2.67,3.72,5.95,6.96,9.7,9.57v-14.89c0-3.37,1.42-6.53,3.83-8.76C155.37,113.88,154.7,113.71,154.03,113.71z"/>
		<path class="st11" d="M184.61,83.86c-2.57-2.57-5.98-3.98-9.61-3.98s-7.04,1.41-9.61,3.98s-3.98,5.98-3.98,9.61
			c0,3.63,1.41,7.04,3.98,9.61c2.57,2.56,5.98,3.98,9.61,3.98s7.04-1.42,9.61-3.98c2.56-2.57,3.98-5.98,3.98-9.61
			C188.59,89.84,187.17,86.43,184.61,83.86z M174.6,97.64c-0.35,0.35-0.81,0.53-1.27,0.53c-0.46,0-0.92-0.18-1.27-0.53L168,93.59
			l2.54-2.54l2.79,2.79l6.13-6.13l2.54,2.54L174.6,97.64z M184.95,83.52c-2.66-2.66-6.19-4.12-9.95-4.12s-7.29,1.46-9.95,4.12
			c-2.66,2.66-4.12,6.19-4.12,9.95c0,3.76,1.46,7.29,4.12,9.95c2.66,2.66,6.19,4.12,9.95,4.12s7.29-1.46,9.95-4.12
			c2.66-2.66,4.12-6.19,4.12-9.95C189.07,89.71,187.61,86.18,184.95,83.52z M170.54,91.05l2.79,2.79l6.13-6.13l2.54,2.54l-7.4,7.39
			c-0.35,0.35-0.81,0.53-1.27,0.53c-0.46,0-0.92-0.18-1.27-0.53L168,93.59L170.54,91.05z M184.78,83.69c-5.4-5.4-14.16-5.4-19.56,0
			c-5.4,5.4-5.4,14.16,0,19.56c5.4,5.4,14.16,5.4,19.56,0C190.18,97.85,190.18,89.09,184.78,83.69z M173.33,98.17
			c-0.46,0-0.92-0.18-1.27-0.53L168,93.59l2.54-2.54l2.79,2.79l6.13-6.13l2.54,2.54l-7.4,7.39
			C174.25,97.99,173.79,98.17,173.33,98.17z"/>
	</g>
</g>
<g id="Layer_9">
</g>
<g id="Layer_10">
</g>
<g id="Layer_11">
</g>
<g id="Layer_12">
</g>
<g id="Layer_13">
</g>
<g id="Layer_14">
</g>
<g id="Layer_15">
</g>
</svg>
