<?xml version="1.0" encoding="utf-8"?>
<!-- Generator: Adobe Illustrator 27.8.1, SVG Export Plug-In . SVG Version: 6.00 Build 0)  -->
<svg version="1.1" xmlns="http://www.w3.org/2000/svg" xmlns:xlink="http://www.w3.org/1999/xlink" x="0px" y="0px"
	 viewBox="0 0 350 230" style="enable-background:new 0 0 350 230;" xml:space="preserve">
<style type="text/css">
	.st0{fill:#0E045F;}
	.st1{fill:#CD00FF;}
	.st2{fill:#8CC63F;}
	.st3{fill:#39B54A;}
	.st4{fill:#00770B;}
	.st5{fill:#040051;}
	.st6{fill:#005B59;}
	.st7{fill:#00EDFF;}
	.st8{fill:#006359;}
	.st9{fill:#00006D;}
	.st10{fill:#29004C;}
	.st11{fill:#EB900C;}
	.st12{fill:#DB6E28;}
	.st13{fill:#FFFFFF;}
	.st14{fill:#2D000F;}
	.st15{fill:#660061;}
	.st16{fill:#660061;stroke:#2D002D;stroke-miterlimit:10;}
	.st17{fill:#00AFC6;}
	.st18{fill:#003F39;}
	.st19{fill:#00DCC8;}
	.st20{fill:#FD1F00;}
	.st21{fill:#07186D;}
	.st22{fill:#005C7C;}
	.st23{fill:#8C4B03;}
	.st24{fill:#A38B00;}
	.st25{fill:#20008F;}
	.st26{fill:#003A1D;}
	.st27{fill:#284200;}
	.st28{fill:#00CED8;}
</style>
<g id="Layer_1">
</g>
<g id="Layer_2">
</g>
<g id="Layer_3">
</g>
<g id="Layer_4">
</g>
<g id="Layer_5">
</g>
<g id="Layer_6">
</g>
<g id="Layer_7">
</g>
<g id="Layer_8">
</g>
<g id="Layer_9">
	<g>
		<path d="M231.93,130.78c2.02-0.97,3.62-2.35,4.77-4.15c1.23-1.92,1.86-4.28,1.86-7.07c0-2.78-0.6-5.15-1.81-7.13
			c-1.21-1.98-2.9-3.5-5.07-4.56c-2.18-1.05-4.71-1.58-7.61-1.58h-16.85v39.04h10.6v-12.89h3.67l6.85,12.89h11.52L231.93,130.78z
			 M226.78,122.25c-0.48,0.68-1.16,1.18-2.04,1.49s-1.94,0.47-3.19,0.47h-3.73v-9.46h3.73c1.25,0,2.31,0.17,3.19,0.5
			c0.88,0.34,1.57,0.86,2.04,1.57c0.48,0.71,0.71,1.62,0.71,2.74C227.5,120.66,227.26,121.56,226.78,122.25z M134.78,106.29v15.26
			h-14.03v-15.26h-10.6v39.04h10.6v-15.25h14.03v15.25h10.6v-39.04H134.78z M196.1,100.78l-8.02,10.36l3.55,1.73l-15.11,16.95
			c-0.01,0.01-0.01,0.01-0.01,0.01c0,0-0.01,0.01-0.01,0.01c0,0.01-0.01,0.01-0.01,0.01c-0.01,0.01-0.01,0.01-0.02,0.01
			s-0.02,0.01-0.03,0.01c-0.01,0.01-0.01,0.01-0.02,0.01c-0.01,0.01-0.02,0.01-0.04,0.01c-0.01,0-0.01,0.01-0.01,0.01
			c-0.02,0-0.04,0.01-0.06,0.01c-0.02,0-0.04-0.01-0.06-0.01c0,0-0.01-0.01-0.01-0.01c-0.01,0-0.02-0.01-0.04-0.01
			c-0.01,0-0.01,0-0.02-0.01c-0.01-0.01-0.02-0.01-0.03-0.01s-0.01-0.01-0.02-0.01c0-0.01-0.01-0.01-0.01-0.01
			c-0.01,0-0.01-0.01-0.01-0.01c-0.01-0.01-0.01-0.01-0.01-0.01l-15.11-16.95l3.55-1.73l-8.02-10.36c-2.35,3.4-3.73,7.53-3.73,11.97
			v32.68h47.07v-32.68C199.83,108.31,198.45,104.18,196.1,100.78z M195.75,100.29c-1.48-2.03-3.32-3.77-5.42-5.16l-10,23.47
			l-4.04,9.47l-4.04-9.47l-10.01-23.47c-2.09,1.39-3.93,3.13-5.41,5.16c0.02,0.01,0.04,0.03,0.06,0.05l8.52,11.02l-3.5,1.7
			l9.74,10.93l4.63,5.2l4.63-5.19l9.74-10.93l-3.5-1.7l8.52-11.02C195.71,100.32,195.73,100.31,195.75,100.29z M180.33,118.6
			l-4.04,9.47l-4.04-9.47l-0.59,5.38l4.63,5.2l4.63-5.19L180.33,118.6z M181.5,91.66h-10.41c-0.79,0-1.29,0.85-0.89,1.54l4.08,7.07
			l0.7-6.33c0.17-1.57,2.45-1.57,2.63,0l0.7,6.33l4.08-7.07C182.79,92.52,182.29,91.66,181.5,91.66z"/>
		<path d="M180.33,118.6l-4.04,9.47l-4.04-9.47l2.03-18.32l0.7-6.33c0.17-1.57,2.45-1.57,2.63,0l0.7,6.33L180.33,118.6z"/>
		<path class="st3" d="M191.07,69.85l-0.08-0.36h-2.62c-0.25-0.87-0.61-1.72-1.04-2.52l1.85-1.85l-0.2-0.31
			c-1.15-1.78-2.7-3.33-4.49-4.49l-0.3-0.2l-1.85,1.85c-0.8-0.44-1.64-0.79-2.51-1.04v-2.62l-0.36-0.08c-2.07-0.44-4.28-0.44-6.35,0
			l-0.35,0.08v2.62c-0.87,0.25-1.72,0.6-2.51,1.04l-1.85-1.85l-0.3,0.2c-1.78,1.15-3.34,2.7-4.49,4.49l-0.2,0.31l1.85,1.85
			c-0.44,0.8-0.79,1.64-1.04,2.52h-2.62l-0.08,0.36c-0.22,1.04-0.34,2.1-0.34,3.17s0.11,2.14,0.34,3.17l0.08,0.35h2.62
			c0.25,0.87,0.6,1.72,1.04,2.52l-1.85,1.85l0.2,0.3c1.15,1.78,2.7,3.33,4.49,4.49l0.3,0.2l1.86-1.85c0.8,0.44,1.64,0.79,2.51,1.04
			v2.62l0.35,0.08c1.04,0.22,2.1,0.34,3.18,0.34c1.07,0,2.14-0.11,3.17-0.34l0.36-0.08V85.1c0.88-0.26,1.72-0.61,2.51-1.04
			l1.85,1.85l0.31-0.2c1.78-1.15,3.33-2.7,4.49-4.49l0.2-0.3l-1.85-1.85c0.44-0.8,0.79-1.64,1.04-2.52h2.62l0.08-0.35
			c0.22-1.04,0.33-2.1,0.33-3.17S191.29,70.88,191.07,69.85z M179.18,78.93c-0.24,0.12-0.49,0.22-0.74,0.31
			c-0.69,0.24-1.41,0.36-2.14,0.36c-0.73,0-1.46-0.12-2.14-0.36c-0.25-0.09-0.5-0.19-0.74-0.31c-1.31-0.64-2.39-1.72-3.03-3.03
			c-0.12-0.24-0.22-0.49-0.31-0.74c-0.24-0.69-0.36-1.41-0.36-2.14c0-0.73,0.12-1.45,0.36-2.14c0.09-0.24,0.19-0.49,0.31-0.74
			c0.64-1.31,1.72-2.39,3.03-3.03c0.24-0.12,0.49-0.22,0.74-0.31c0.69-0.24,1.41-0.36,2.14-0.36c0.73,0,1.45,0.12,2.14,0.36
			c0.25,0.09,0.5,0.19,0.74,0.31c1.31,0.64,2.39,1.72,3.03,3.03c0.12,0.25,0.22,0.5,0.31,0.74c0.24,0.69,0.36,1.41,0.36,2.14
			c0,0.73-0.12,1.45-0.36,2.14c-0.09,0.25-0.19,0.5-0.31,0.74C181.57,77.21,180.49,78.29,179.18,78.93z"/>
	</g>
</g>
<g id="Layer_10">
</g>
<g id="Layer_11">
</g>
<g id="Layer_12">
</g>
<g id="Layer_13">
</g>
<g id="Layer_14">
</g>
<g id="Layer_15">
</g>
</svg>
