<?xml version="1.0" encoding="utf-8"?>
<!-- Generator: Adobe Illustrator 27.8.1, SVG Export Plug-In . SVG Version: 6.00 Build 0)  -->
<svg version="1.1" id="Layer_1" xmlns="http://www.w3.org/2000/svg" xmlns:xlink="http://www.w3.org/1999/xlink" x="0px" y="0px"
	 viewBox="0 0 350 230" style="enable-background:new 0 0 350 230;" xml:space="preserve">
<style type="text/css">
	.st0{fill:#F5F5F5;stroke:#404040;stroke-width:2;stroke-miterlimit:10;}
	.st1{fill:#49BDC9;}
	.st2{fill:none;stroke:#404040;stroke-miterlimit:10;}
	.st3{fill:#F5F5F5;}
	.st4{fill:none;stroke:#FFFFFF;stroke-miterlimit:10;}
	.st5{fill:#2F2F3F;}
	.st6{fill:#02028C;}
	.st7{fill:#FFFFFF;}
	.st8{fill:#023C44;}
	.st9{fill:#022231;}
	.st10{fill:#53C2BB;}
	.st11{fill:#FF680D;}
	.st12{fill:#00EDFF;}
	.st13{fill:#213000;}
	.st14{fill:#FFB034;}
	.st15{fill:#00556A;}
	.st16{fill:#380C00;}
	.st17{fill:#00556A;stroke:#FFFFFF;stroke-width:0.5;stroke-miterlimit:10;}
	.st18{fill:#750000;}
	.st19{fill:#D40B00;}
	.st20{fill:#8E0073;}
	.st21{fill:#494949;}
	.st22{fill:#259AAB;}
	.st23{fill:#3DAEB7;}
	.st24{fill:#065652;}
	.st25{fill:#A8C6E9;}
	.st26{fill:#3F0101;}
	.st27{fill:#80C445;}
	.st28{fill:#F4D4AE;}
	.st29{fill:#E95454;}
	.st30{fill:#760689;}
	.st31{fill:#DEBFFF;}
	.st32{fill:url(#SVGID_1_);}
	.st33{fill:url(#SVGID_00000011011505198668541140000009346306087864101819_);}
	.st34{fill:url(#_x3C_Compound_Path_x3E__Music_Icon_00000176002530663759419470000003857891347991666603_);}
	.st35{opacity:0.3;fill:url(#_x3C_Compound_Path_x3E__Music_Shades_00000090292993787515719250000004997047503600687010_);}
	.st36{opacity:0.8;fill:#FFFFFF;}
	.st37{fill:#590068;}
	.st38{fill:#293767;}
	.st39{fill:#008294;}
	.st40{fill:url(#SVGID_00000031181037975491566880000016456420926718217360_);}
	.st41{fill:#F5F5F6;}
	.st42{fill:#021284;}
	.st43{fill:#751616;}
	.st44{fill:url(#SVGID_00000100384830849223775360000011691829607484490403_);}
	.st45{fill:#0000A2;}
	.st46{fill:#00833F;}
	.st47{fill:#6B1800;}
	.st48{fill:#54004C;}
	.st49{fill:#C10073;}
	.st50{fill:#7A0334;}
	.st51{fill:#002066;}
	.st52{fill:#5E5700;}
	.st53{fill:#350033;}
	.st54{fill:#FFB000;}
	.st55{fill:#490000;}
	.st56{fill:#875F74;}
	.st57{fill:#003035;}
	.st58{fill:#3659FF;}
	.st59{fill:#9B8F00;}
	.st60{fill:#4C1200;}
	.st61{fill:#016A72;}
	.st62{fill:#FF0000;}
	.st63{fill:#005C68;}
	.st64{fill:#4A0075;}
	.st65{fill:url(#SVGID_00000038413001353935260140000013160432650022523536_);}
	.st66{fill:#020242;}
	.st67{fill:#228DC9;}
	.st68{fill:#551700;}
	.st69{fill:#00C2E0;}
	.st70{fill:#012F4C;}
	.st71{fill:#300018;}
	.st72{fill-rule:evenodd;clip-rule:evenodd;fill:#6D3C5B;}
	.st73{fill-rule:evenodd;clip-rule:evenodd;fill:#020242;}
	.st74{fill:#9B001E;}
	.st75{fill:#00E1FF;}
	.st76{fill:#680040;}
	.st77{fill:#8E8700;}
	.st78{fill:#220247;}
	.st79{fill:#0086FF;}
	.st80{fill:#7C4F00;}
	.st81{fill:#520000;}
	.st82{fill:#04A8CB;}
	.st83{fill:#18618B;}
	.st84{fill:#958C00;}
	.st85{fill:#B0261C;}
	.st86{fill:#013147;}
	.st87{fill:#CD11A1;}
	.st88{fill:#296262;}
	.st89{fill:#5C5E00;}
	.st90{fill:#55B1C8;}
	.st91{fill:#918C34;}
	.st92{fill:#F94351;}
	.st93{fill:#9B001A;}
	.st94{fill:#000066;}
	.st95{fill:#636568;}
	.st96{fill:#002544;}
	.st97{fill:#723300;}
	.st98{fill:url(#SVGID_00000163075162934175721800000002532847765364372870_);}
	.st99{fill:#F393BD;}
	.st100{fill:url(#SVGID_00000070820503334704182200000015494964432616652717_);}
	.st101{fill:#011354;}
	.st102{fill:#38011B;}
	.st103{fill-rule:evenodd;clip-rule:evenodd;fill:#2365A6;}
	.st104{fill:#351B01;}
	.st105{fill-rule:evenodd;clip-rule:evenodd;fill:#351B01;}
	.st106{fill:#02484C;}
	.st107{fill:none;stroke:#02484C;stroke-width:4;stroke-miterlimit:10;}
</style>
<g>
	<g>
		<path class="st75" d="M146.74,42.94c-2.14-1.36-4.11-2.99-6.15-4.49c-0.27-0.2-0.55-0.39-0.98-0.69v16.71
			c-0.59-0.21-1.01-0.39-1.45-0.52c-2.13-0.6-4.03-0.19-5.59,1.4c-1.55,1.59-1.95,3.51-1.25,5.62c0.84,2.54,3.33,4,6.01,3.61
			c2.73-0.4,4.63-2.6,4.67-5.53c0.05-4.05,0.01-8.1,0.01-12.16c0-0.48,0.04-0.97,0.07-1.54c2.23,0.48,3.98,1.4,5.36,2.98
			c1.43,1.64,1.69,3.63,1.49,6C151.41,50.56,150.16,45.13,146.74,42.94z M134.74,63.45c-1.55-0.69-2.53-2.28-2.44-3.91
			c0.1-1.7,1.12-3.13,2.6-3.59c0.06,0.15,0.12,0.3,0.19,0.45c-2.12,1.07-2.81,3.37-1.58,5.25c1.02,1.56,3.29,2.15,5.15,0.63
			c0.12,0.13,0.24,0.26,0.37,0.39C137.94,63.79,136.2,64.09,134.74,63.45z M64.66,41.02H43.21c-2.78,0-5.09,2.28-5.09,5.09
			c0,2.82,2.28,5.09,5.09,5.09h21.45c2.82,0,5.09-2.28,5.09-5.09S67.48,41.02,64.66,41.02z M64.66,57.16H43.21
			c-2.82,0-5.09,2.28-5.09,5.09c0,2.82,2.28,5.09,5.09,5.09h21.45c2.82,0,5.09-2.28,5.09-5.09C69.76,59.44,67.48,57.16,64.66,57.16z
			"/>
		<path class="st76" d="M119.85,37.27c-5.42-5.81-13.36-9.14-21.7-9.14c-3.03,0-6.03,0.43-8.85,1.26v-1.01
			c0-2.82-2.28-5.09-5.09-5.09H44.48C21.73,23.29,3.2,41.6,3.2,64.06v55.54c0,2.82,2.28,5.09,5.09,5.09h9.24v76.92
			c0,2.82,2.28,5.09,5.09,5.09s5.09-2.28,5.09-5.09V124.7h11.85c2.82,0,5.09-2.28,5.09-5.09V89.81c0-2.64,2.2-4.77,4.88-4.77H84.2
			c2.82,0.04,5.09-2.24,5.09-5.06v-1.01c2.82,0.83,5.81,1.26,8.85,1.26c8.38,0,16.29-3.32,21.7-9.14c0.87-0.94,1.37-2.2,1.37-3.47
			v-26.9C121.22,39.43,120.71,38.21,119.85,37.27z M79.11,74.9H49.53c-8.31,0-15.1,6.72-15.1,14.95v24.7H13.38V64.06
			c0-16.86,13.94-30.59,31.09-30.59h34.63L79.11,74.9L79.11,74.9z M111.03,65.47c-3.43,2.93-8.02,4.59-12.89,4.59
			c-3.14,0-6.14-0.69-8.85-1.95V40.3C92,39,95,38.35,98.14,38.35c4.88,0,9.46,1.66,12.89,4.59V65.47z M139.67,45.58
			c-1.53-0.98-2.94-2.14-4.41-3.22c-0.19-0.14-0.4-0.28-0.7-0.49v11.97c-0.42-0.15-0.73-0.28-1.04-0.37c-1.52-0.43-2.89-0.14-4,1.01
			c-1.11,1.14-1.4,2.52-0.9,4.03c0.6,1.82,2.39,2.87,4.31,2.59c1.95-0.29,3.32-1.86,3.34-3.96c0.03-2.9,0.01-5.81,0.01-8.71
			c0-0.35,0.03-0.7,0.05-1.1c1.6,0.34,2.86,1,3.84,2.14c1.02,1.17,1.21,2.6,1.07,4.3C143.01,51.05,142.12,47.15,139.67,45.58z
			 M131.06,60.28c-1.11-0.49-1.81-1.63-1.75-2.8c0.07-1.22,0.81-2.24,1.86-2.57c0.04,0.11,0.09,0.21,0.13,0.32
			c-1.52,0.76-2.01,2.41-1.14,3.76c0.73,1.12,2.35,1.54,3.69,0.45c0.09,0.09,0.17,0.19,0.26,0.28
			C133.36,60.52,132.11,60.74,131.06,60.28z"/>
	</g>
</g>
</svg>
