<?xml version="1.0" encoding="utf-8"?>
<!-- Generator: Adobe Illustrator 27.8.1, SVG Export Plug-In . SVG Version: 6.00 Build 0)  -->
<svg version="1.1" id="Layer_1" xmlns="http://www.w3.org/2000/svg" xmlns:xlink="http://www.w3.org/1999/xlink" x="0px" y="0px"
	 viewBox="0 0 350 230" style="enable-background:new 0 0 350 230;" xml:space="preserve">
<style type="text/css">
	.st0{fill:#F5F5F5;stroke:#404040;stroke-width:2;stroke-miterlimit:10;}
	.st1{fill:#49BDC9;}
	.st2{fill:none;stroke:#404040;stroke-miterlimit:10;}
	.st3{fill:#F5F5F5;}
	.st4{fill:none;stroke:#FFFFFF;stroke-miterlimit:10;}
	.st5{fill:#2F2F3F;}
	.st6{fill:#02028C;}
	.st7{fill:#FFFFFF;}
	.st8{fill:#023C44;}
	.st9{fill:#022231;}
	.st10{fill:#53C2BB;}
	.st11{fill:#FF680D;}
	.st12{fill:#00EDFF;}
	.st13{fill:#213000;}
	.st14{fill:#FFB034;}
	.st15{fill:#00556A;}
	.st16{fill:#380C00;}
	.st17{fill:#00556A;stroke:#FFFFFF;stroke-width:0.5;stroke-miterlimit:10;}
	.st18{fill:#750000;}
	.st19{fill:#D40B00;}
	.st20{fill:#8E0073;}
	.st21{fill:#494949;}
	.st22{fill:#259AAB;}
	.st23{fill:#3DAEB7;}
	.st24{fill:#065652;}
	.st25{fill:#A8C6E9;}
	.st26{fill:#3F0101;}
	.st27{fill:#80C445;}
	.st28{fill:#F4D4AE;}
	.st29{fill:#E95454;}
	.st30{fill:#760689;}
	.st31{fill:#DEBFFF;}
	.st32{fill:url(#SVGID_1_);}
	.st33{fill:url(#SVGID_00000019637935605976503440000001629002196045988518_);}
	.st34{fill:url(#_x3C_Compound_Path_x3E__Music_Icon_00000160168105946520183840000017205139746388512680_);}
	.st35{opacity:0.3;fill:url(#_x3C_Compound_Path_x3E__Music_Shades_00000024687782322561950520000006588960498568741785_);}
	.st36{opacity:0.8;fill:#FFFFFF;}
	.st37{fill:#590068;}
	.st38{fill:#293767;}
	.st39{fill:#008294;}
	.st40{fill:url(#SVGID_00000000945454720083041250000011245297340276938393_);}
	.st41{fill:#F5F5F6;}
	.st42{fill:#021284;}
	.st43{fill:#751616;}
	.st44{fill:url(#SVGID_00000021081202724086294530000009206291100091687311_);}
	.st45{fill:#0000A2;}
	.st46{fill:#00833F;}
	.st47{fill:#6B1800;}
	.st48{fill:#54004C;}
	.st49{fill:#C10073;}
	.st50{fill:#7A0334;}
	.st51{fill:#002066;}
	.st52{fill:#5E5700;}
	.st53{fill:#350033;}
	.st54{fill:#FFB000;}
	.st55{fill:#490000;}
	.st56{fill:#875F74;}
	.st57{fill:#003035;}
	.st58{fill:#3659FF;}
	.st59{fill:#9B8F00;}
	.st60{fill:#4C1200;}
	.st61{fill:#016A72;}
	.st62{fill:#FF0000;}
	.st63{fill:#005C68;}
	.st64{fill:#4A0075;}
	.st65{fill:url(#SVGID_00000106119894537692339100000003497616246774733483_);}
	.st66{fill:#020242;}
	.st67{fill:#228DC9;}
	.st68{fill:#551700;}
	.st69{fill:#00C2E0;}
	.st70{fill:#012F4C;}
	.st71{fill:#300018;}
	.st72{fill-rule:evenodd;clip-rule:evenodd;fill:#6D3C5B;}
	.st73{fill-rule:evenodd;clip-rule:evenodd;fill:#020242;}
	.st74{fill:#9B001E;}
	.st75{fill:#00E1FF;}
	.st76{fill:#680040;}
	.st77{fill:#8E8700;}
	.st78{fill:#220247;}
	.st79{fill:#0086FF;}
	.st80{fill:#7C4F00;}
	.st81{fill:#520000;}
	.st82{fill:#04A8CB;}
	.st83{fill:#18618B;}
	.st84{fill:#958C00;}
	.st85{fill:#B0261C;}
	.st86{fill:#013147;}
	.st87{fill:#CD11A1;}
	.st88{fill:#296262;}
	.st89{fill:#5C5E00;}
	.st90{fill:#55B1C8;}
	.st91{fill:#918C34;}
	.st92{fill:#F94351;}
	.st93{fill:#9B001A;}
	.st94{fill:#000066;}
	.st95{fill:#636568;}
	.st96{fill:#002544;}
	.st97{fill:#723300;}
	.st98{fill:url(#SVGID_00000168799469267695141030000013346853986214595507_);}
	.st99{fill:#F393BD;}
	.st100{fill:url(#SVGID_00000038402108141652803200000012152063555846525631_);}
	.st101{fill:#011354;}
	.st102{fill:#38011B;}
	.st103{fill-rule:evenodd;clip-rule:evenodd;fill:#2365A6;}
	.st104{fill:#351B01;}
	.st105{fill-rule:evenodd;clip-rule:evenodd;fill:#351B01;}
	.st106{fill:#02484C;}
	.st107{fill:none;stroke:#02484C;stroke-width:4;stroke-miterlimit:10;}
</style>
<g>
	<g>
		<g>
			<path class="st15" d="M50.49,115.94c-1.61,0.56-2.82-1.49-1.56-2.64c9.51-8.65,28.02-26.26,35.92-39.23
				c1.89-3.11,1.89-6.99,0-10.1c-7.9-12.98-26.41-30.58-35.92-39.23c-1.26-1.15-0.05-3.2,1.56-2.64
				c25.17,8.78,105.58,36.82,105.58,36.82c0.78,3.33,2.55,3.78,2.55,3.78l3.11,6.33l-3.11,6.33c0,0-1.78,0.44-2.55,3.77
				C156.07,79.12,75.66,107.16,50.49,115.94z M102.46,68.75L85.49,53.31c-0.31-0.28-0.77,0.11-0.54,0.46l10.01,15.05
				c0.08,0.12,0.08,0.28,0,0.4L84.96,84.26c-0.23,0.35,0.23,0.75,0.54,0.46l16.97-15.44C102.62,69.14,102.62,68.9,102.46,68.75z
				 M269.35,59.5c0.04-0.45-0.15-1.67-1.37-2.06c-1.22-0.4-2.09,0.48-2.32,0.86c-0.23,0.39-0.8,1.27,1.4,1.98
				C269.25,60.99,269.31,59.94,269.35,59.5z M267.77,61.56v-1.86h-1.54v1.86H267.77z M274.95,61.23c0.04-0.45-0.15-1.67-1.37-2.06
				c-1.22-0.4-2.09,0.48-2.32,0.86c-0.23,0.39-0.8,1.27,1.39,1.98C274.85,62.73,274.91,61.68,274.95,61.23z M273.37,63.3v-1.86
				h-1.54v1.86H273.37z M280.76,63.06c0.04-0.45-0.15-1.66-1.37-2.06c-1.23-0.4-2.09,0.48-2.32,0.87c-0.23,0.39-0.8,1.27,1.4,1.98
				C280.66,64.55,280.71,63.51,280.76,63.06z M279.18,65.13v-1.86h-1.54v1.86H279.18z M109.54,78.55c0.64,0,1.17-0.52,1.17-1.17
				v-16.4c0-0.64-0.52-1.17-1.17-1.17l0,0c-0.64,0-1.17,0.52-1.17,1.17v16.4C108.37,78.03,108.9,78.55,109.54,78.55L109.54,78.55z
				 M124.25,79.23c0.28,0,0.5-0.22,0.5-0.5V60.04c0-0.28-0.22-0.5-0.5-0.5h-9.03c-0.28,0-0.5,0.22-0.5,0.5v18.69
				c0,0.28,0.22,0.5,0.5,0.5H124.25z M123.98,76.75V62.01c0-0.28-0.22-0.5-0.5-0.5h-7.49c-0.27,0-0.5,0.23-0.5,0.5v14.74
				c0,0.28,0.22,0.5,0.5,0.5h7.49C123.75,77.25,123.98,77.03,123.98,76.75z M124.31,60.34c0-0.25-0.2-0.45-0.45-0.45
				c-0.25,0-0.45,0.2-0.45,0.45c0,0.25,0.2,0.45,0.45,0.45C124.11,60.8,124.31,60.59,124.31,60.34z M120.29,60.51
				c0-0.31-0.25-0.56-0.56-0.56c-0.31,0-0.56,0.25-0.56,0.56c0,0.31,0.25,0.56,0.56,0.56C120.04,61.07,120.29,60.82,120.29,60.51z
				 M116.08,60.34c0-0.25-0.2-0.45-0.45-0.45c-0.25,0-0.45,0.2-0.45,0.45c0,0.25,0.2,0.45,0.45,0.45
				C115.88,60.8,116.08,60.59,116.08,60.34z M123.86,77.97c-0.25,0-0.45,0.2-0.45,0.45c0,0.25,0.2,0.45,0.45,0.45
				c0.25,0,0.45-0.2,0.45-0.45C124.31,78.17,124.11,77.97,123.86,77.97z M119.73,77.69c-0.31,0-0.56,0.25-0.56,0.56
				c0,0.31,0.25,0.56,0.56,0.56c0.31,0,0.56-0.25,0.56-0.56C120.29,77.94,120.04,77.69,119.73,77.69z M115.63,77.97
				c-0.25,0-0.45,0.2-0.45,0.45c0,0.25,0.2,0.45,0.45,0.45c0.25,0,0.45-0.2,0.45-0.45C116.08,78.17,115.88,77.97,115.63,77.97z
				 M144.47,79.23c0.27,0,0.5-0.22,0.5-0.5V60.04c0-0.28-0.22-0.5-0.5-0.5h-9.03c-0.27,0-0.5,0.22-0.5,0.5v18.69
				c0,0.28,0.22,0.5,0.5,0.5H144.47z M144.2,76.75V62.01c0-0.28-0.22-0.5-0.5-0.5h-7.49c-0.28,0-0.5,0.23-0.5,0.5v14.74
				c0,0.28,0.22,0.5,0.5,0.5h7.49C143.98,77.25,144.2,77.03,144.2,76.75z M144.54,60.34c0-0.25-0.2-0.45-0.45-0.45
				c-0.25,0-0.45,0.2-0.45,0.45c0,0.25,0.2,0.45,0.45,0.45C144.34,60.8,144.54,60.59,144.54,60.34z M140.52,60.51
				c0-0.31-0.25-0.56-0.56-0.56c-0.31,0-0.56,0.25-0.56,0.56c0,0.31,0.25,0.56,0.56,0.56C140.27,61.07,140.52,60.82,140.52,60.51z
				 M136.31,60.34c0-0.25-0.2-0.45-0.45-0.45c-0.25,0-0.45,0.2-0.45,0.45c0,0.25,0.2,0.45,0.45,0.45
				C136.11,60.8,136.31,60.59,136.31,60.34z M144.09,77.97c-0.25,0-0.45,0.2-0.45,0.45c0,0.25,0.2,0.45,0.45,0.45
				c0.25,0,0.45-0.2,0.45-0.45C144.54,78.17,144.34,77.97,144.09,77.97z M139.96,77.69c-0.31,0-0.56,0.25-0.56,0.56
				c0,0.31,0.25,0.56,0.56,0.56c0.31,0,0.56-0.25,0.56-0.56C140.52,77.94,140.27,77.69,139.96,77.69z M135.86,77.97
				c-0.25,0-0.45,0.2-0.45,0.45c0,0.25,0.2,0.45,0.45,0.45c0.25,0,0.45-0.2,0.45-0.45C136.31,78.17,136.11,77.97,135.86,77.97z
				 M97.77,67.45c0-0.23-0.18-0.41-0.41-0.41c-0.23,0-0.41,0.18-0.41,0.41c0,0.23,0.19,0.41,0.41,0.41
				C97.58,67.86,97.77,67.68,97.77,67.45z M101.41,69.02c0-0.43-0.35-0.77-0.77-0.77c-0.43,0-0.77,0.34-0.77,0.77
				c0,0.43,0.34,0.77,0.77,0.77C101.06,69.79,101.41,69.44,101.41,69.02z M95.89,65.43c0-0.23-0.18-0.41-0.41-0.41
				c-0.23,0-0.41,0.18-0.41,0.41c0,0.23,0.19,0.41,0.41,0.41C95.71,65.85,95.89,65.66,95.89,65.43z M93.88,63.3
				c0-0.23-0.18-0.41-0.41-0.41c-0.23,0-0.41,0.19-0.41,0.41c0,0.23,0.18,0.41,0.41,0.41C93.69,63.71,93.88,63.53,93.88,63.3z
				 M110.11,60.98c0-0.31-0.26-0.57-0.57-0.57c-0.31,0-0.57,0.26-0.57,0.57s0.26,0.57,0.57,0.57
				C109.86,61.55,110.11,61.3,110.11,60.98z M110.11,77.25c0-0.31-0.26-0.57-0.57-0.57c-0.31,0-0.57,0.26-0.57,0.57
				c0,0.32,0.26,0.57,0.57,0.57C109.86,77.82,110.11,77.57,110.11,77.25z M97.36,70.17c-0.23,0-0.41,0.19-0.41,0.41
				c0,0.23,0.19,0.41,0.41,0.41c0.23,0,0.41-0.19,0.41-0.41C97.77,70.36,97.58,70.17,97.36,70.17z M95.48,72.19
				c-0.23,0-0.41,0.19-0.41,0.41c0,0.23,0.19,0.41,0.41,0.41c0.23,0,0.41-0.19,0.41-0.41C95.89,72.37,95.71,72.19,95.48,72.19z
				 M93.47,74.32c-0.23,0-0.41,0.19-0.41,0.41c0,0.23,0.18,0.41,0.41,0.41c0.23,0,0.41-0.19,0.41-0.41
				C93.88,74.51,93.69,74.32,93.47,74.32z M101.41,69.02c0-0.43-0.35-0.77-0.77-0.77c-0.43,0-0.77,0.34-0.77,0.77
				c0,0.43,0.34,0.77,0.77,0.77C101.06,69.79,101.41,69.44,101.41,69.02z M257.62,73.79v-4.77v-4.33l-111.9-1.75v6.08v6.52
				L257.62,73.79z M257.62,74.21c7.3-0.06,11.82,4.05,11.82,4.05c11.74-3.17,24.98-0.75,24.98-0.75c2.66-3.66,7.16-5.83,7.16-5.83
				l-38.05-11.41c-2.08,3.33-5.91,4-5.91,4V74.21z M268.31,63.91c0-0.85-0.69-1.54-1.54-1.54c-0.85,0-1.54,0.69-1.54,1.54
				c0,0.85,0.69,1.54,1.54,1.54C267.62,65.45,268.31,64.76,268.31,63.91z M275.03,66.16c0-1.02-0.83-1.84-1.86-1.84
				c-1.03,0-1.86,0.82-1.86,1.84c0,1.01,0.83,1.84,1.86,1.84C274.2,68,275.03,67.17,275.03,66.16z M279.6,66.99
				c0-0.85-0.69-1.54-1.54-1.54c-0.85,0-1.54,0.69-1.54,1.54c0,0.85,0.69,1.54,1.54,1.54C278.91,68.52,279.6,67.83,279.6,66.99z
				 M285.95,64.56c0.04-0.45-0.15-1.67-1.37-2.06c-1.22-0.4-2.09,0.48-2.32,0.86c-0.23,0.39-0.8,1.27,1.4,1.98
				C285.85,66.05,285.91,65,285.95,64.56z M284.37,66.62v-1.86h-1.54v1.86H284.37z M291.55,66.29c0.04-0.45-0.15-1.67-1.37-2.06
				c-1.22-0.4-2.09,0.48-2.32,0.86c-0.23,0.39-0.8,1.27,1.39,1.98C291.45,67.79,291.51,66.74,291.55,66.29z M289.97,68.36V66.5
				h-1.54v1.86H289.97z M297.36,68.12c0.04-0.45-0.15-1.66-1.37-2.06c-1.23-0.4-2.09,0.48-2.32,0.87c-0.23,0.39-0.8,1.27,1.4,1.98
				C297.26,69.61,297.32,68.57,297.36,68.12z M295.78,70.19v-1.86h-1.54v1.86H295.78z M284.91,68.97c0-0.85-0.69-1.54-1.54-1.54
				c-0.85,0-1.54,0.69-1.54,1.54c0,0.85,0.69,1.54,1.54,1.54C284.22,70.51,284.91,69.82,284.91,68.97z M290.56,70.51
				c0-0.85-0.69-1.54-1.54-1.54c-0.85,0-1.54,0.69-1.54,1.54c0,0.85,0.69,1.54,1.54,1.54C289.87,72.04,290.56,71.36,290.56,70.51z
				 M296.2,72.04c0-0.85-0.69-1.54-1.54-1.54c-0.85,0-1.54,0.69-1.54,1.54c0,0.85,0.69,1.54,1.54,1.54
				C295.51,73.58,296.2,72.89,296.2,72.04z M249.73,73.92v-9.35h-0.37v9.35H249.73z M241.91,74.04v-9.6h-0.37v9.6H241.91z
				 M234.63,74.16v-9.83h-0.38v9.83H234.63z M227.64,74.26V64.22h-0.38v10.04H227.64z M220.98,74.37V64.11h-0.37v10.26H220.98z
				 M214.82,74.46V64.01h-0.38v10.45H214.82z M208.93,74.56V63.93h-0.37v10.63H208.93z M203.49,74.73v-10.9h-0.37v10.9H203.49z
				 M198.22,74.73V63.76h-0.38v10.98H198.22z M193.45,74.8V63.68h-0.37V74.8H193.45z M189.06,74.87V63.61h-0.37v11.25H189.06z
				 M184.29,74.94v-11.4h-0.37v11.4H184.29z M180.51,75V63.48h-0.37V75H180.51z M176.57,75V63.48h-0.37V75H176.57z M172.97,75.12
				V63.3h-0.37v11.82H172.97z M169.3,75.18V63.31h-0.37v11.87H169.3z M165.86,75.23V63.25h-0.37v11.98H165.86z M162.81,75.28V63.2
				h-0.37v12.07H162.81z M159.81,75.32V63.16h-0.37v12.16H159.81z M157.26,75.36V63.12h-0.38v12.24H157.26z M154.59,75.41V63.08
				h-0.37v12.33H154.59z M152.2,75.41V63.04h-0.37v12.37H152.2z M150.1,75.54v-12.5h-0.37v12.5H150.1z M147.71,75.54v-12.6h-0.37
				v12.6H147.71z M103.22,86.31c0-1.19-0.97-2.16-2.16-2.16c-1.19,0-2.16,0.97-2.16,2.16c0,1.19,0.97,2.16,2.16,2.16
				C102.25,88.47,103.22,87.5,103.22,86.31z M115.18,86.08c0-1.19-0.96-2.16-2.16-2.16c-1.19,0-2.16,0.97-2.16,2.16
				c0,1.19,0.96,2.16,2.16,2.16C114.22,88.23,115.18,87.27,115.18,86.08z M87.55,95.72c0-1.19-0.97-2.16-2.16-2.16
				c-1.19,0-2.16,0.97-2.16,2.16c0,1.19,0.97,2.16,2.16,2.16C86.58,97.88,87.55,96.91,87.55,95.72z M97.34,92.27
				c0-0.8-0.65-1.45-1.45-1.45c-0.8,0-1.45,0.65-1.45,1.45c0,0.8,0.65,1.45,1.45,1.45C96.7,93.73,97.34,93.08,97.34,92.27z
				 M257.95,74.21v-9.94h-0.67v9.94H257.95z M266.07,64.81l-0.04-0.37l-8.42,0.77L93.83,63.12c0.03,0.05,0.05,0.12,0.05,0.18
				c0,0.07-0.02,0.14-0.05,0.19l163.79,2.09h0.01L266.07,64.81z M95.86,65.27c0.02,0.05,0.03,0.1,0.03,0.16
				c0,0.06-0.01,0.12-0.04,0.17l161.77,1.55l14.26-0.72l-0.02-0.33l-14.25,0.71L95.86,65.27z M97.75,67.33
				c0.01,0.04,0.02,0.08,0.02,0.12c0,0.04-0.01,0.09-0.02,0.13l159.88,1.07l19.94-0.67l-0.01-0.25l-19.94,0.67L97.75,67.33z
				 M97.77,70.59c0,0.04-0.01,0.07-0.02,0.1l159.87-0.49l25.28-0.61l-0.01-0.21L257.62,70L97.75,70.48
				C97.76,70.51,97.77,70.55,97.77,70.59z M95.89,72.6c0,0.03,0,0.05-0.01,0.08l161.74-0.92l30.86-0.64l0-0.17l-30.86,0.64
				L95.89,72.52C95.89,72.54,95.89,72.57,95.89,72.6z M93.88,74.73c0,0.02,0,0.04-0.01,0.06l163.75-1.59l36.55-0.23v-0.13
				l-36.55,0.24L93.87,74.67C93.88,74.69,93.88,74.71,93.88,74.73z"/>
			<g>
				<path class="st16" d="M131.64,47.1l-24.97-8.71c10.87-19.87,31.96-33.34,56.2-33.34c32.82,0,59.86,24.7,63.58,56.52l-26.29-0.41
					c-3.65-17.28-18.97-30.24-37.34-30.24C149.93,30.92,138.54,37.32,131.64,47.1z M200.06,77.45c-3.81,17.05-19.03,29.8-37.23,29.8
					c-12.89,0-24.28-6.4-31.19-16.19l-24.97,8.71c10.87,19.87,31.96,33.34,56.2,33.34c32.67,0,59.6-24.47,63.52-56.08L200.06,77.45z
					 M119.94,100.62l1.01-3.97l3.85-1.42l-1.82-1.15l-9.47,3.3l-0.19,0.29l4.09-0.27L119.94,100.62z"/>
				<path class="st17" d="M162.83,21.17l-3.63,1.91l0.69-4.04l-2.94-2.86l4.06-0.59l1.81-3.68l1.81,3.68l4.06,0.59l-2.94,2.86
					l0.69,4.04L162.83,21.17z M159.2,115.09l0.69,4.04l-2.94,2.86l4.06,0.59l1.81,3.68l1.81-3.68l4.06-0.59l-2.94-2.86l0.69-4.04
					l-3.63,1.91L159.2,115.09z M142.96,27.42l-2.62-3.15l1.11-3.95l-3.81,1.52l-3.41-2.28l0.27,4.09l-3.22,2.54l3.97,1.01l1.42,3.85
					l2.19-3.47L142.96,27.42z M182.69,110.74l2.62,3.15l-1.11,3.95l3.81-1.52l3.41,2.28l-0.27-4.09l3.22-2.54l-3.97-1.01l-1.42-3.85
					l-2.19,3.47L182.69,110.74z M200.76,91.61l2.62,3.15l-1.11,3.95l3.81-1.52l3.41,2.28l-0.27-4.09l3.22-2.54l-3.97-1.01
					l-1.42-3.85l-2.19,3.47L200.76,91.61z M204.49,49.22l3.15-2.62l3.95,1.11l-1.52-3.81l2.28-3.41l-4.09,0.27l-2.54-3.22
					l-1.01,3.97l-3.85,1.42l3.47,2.19L204.49,49.22z M136.68,107.12l-1.42,3.85l-3.97,1.01l3.22,2.54l-0.27,4.09l3.41-2.28
					l3.81,1.52l-1.11-3.95l2.62-3.15l-4.1-0.16L136.68,107.12z M188.97,31.05l1.42-3.85l3.97-1.01l-3.22-2.54l0.27-4.09L188,21.84
					l-3.81-1.52l1.11,3.95l-2.62,3.15l4.1,0.16L188.97,31.05z"/>
			</g>
		</g>
	</g>
</g>
</svg>
