<?xml version="1.0" encoding="utf-8"?>
<!-- Generator: Adobe Illustrator 27.8.1, SVG Export Plug-In . SVG Version: 6.00 Build 0)  -->
<svg version="1.1" xmlns="http://www.w3.org/2000/svg" xmlns:xlink="http://www.w3.org/1999/xlink" x="0px" y="0px"
	 viewBox="0 0 350 230" style="enable-background:new 0 0 350 230;" xml:space="preserve">
<style type="text/css">
	.st0{fill:#FF7F00;}
	.st1{fill:#893700;}
	.st2{fill:#29ABE2;}
	.st3{fill:#F2C0AA;}
	.st4{fill:#1C75BC;}
	.st5{fill:#FFC200;}
	.st6{fill:#911717;}
	.st7{fill:#C1272D;}
	.st8{fill:#F7931E;}
	.st9{fill:#2D828E;}
	.st10{fill:#93BC20;}
	.st11{fill:#CC781D;}
	.st12{fill:#FF5500;}
	.st13{fill:#C4C400;}
	.st14{fill:#017F6A;}
	.st15{fill:#0092FF;}
	.st16{display:none;fill:#0092FF;}
	.st17{font-family:'NofexRegular';}
	.st18{font-size:35px;}
	.st19{fill:#09578C;}
	.st20{fill:#3B9FE2;}
	.st21{fill:#BE1E2D;}
	.st22{fill:#231F20;}
	.st23{fill:#FF9D00;}
	.st24{fill:#F15A29;}
	.st25{fill:#00406B;}
</style>
<g id="Logo1">
</g>
<g id="Logo2">
</g>
<g id="Logo3">
</g>
<g id="Logo4">
</g>
<g id="Logo5">
</g>
<g id="Logo6">
</g>
<g id="Logo7">
</g>
<g id="Logo8">
</g>
<g id="Logo9">
	<g>
		<g>
			<path class="st14" d="M280.58,48.86c-0.97,9.42-2,18.83-2.87,28.25c-1.84,19.86-3.69,39.73-5.29,59.61
				c-0.31,3.81-2.49,3.37-5.01,3.59c-14.73,1.32-29.53,2.16-44.14,4.34c-11.01,1.64-21.11,6.12-30.74,12.72
				c-1.79,1.23-4.26-0.03-4.27-2.2c0-0.01,0-0.03,0-0.04c-0.03-28.44,0.05-56.89-0.11-85.33c-0.02-3.89,1.26-6.05,4.68-7.83
				c17.61-9.15,36.54-13.84,55.95-16.85c8.19-1.27,16.47-1.96,24.73-2.69c0.4-0.04,0.8-0.05,1.2-0.05
				C277.12,45.03,278.17,46.19,280.58,48.86z M69.42,49.13c2.55,28.68,5.17,57.36,7.44,86.07c0.34,4.31,1.8,5.13,5.76,5.23
				c10.76,0.27,21.59,0.45,32.24,1.83c14.69,1.9,28.76,5.96,41.71,14.87c1.87,1.29,4.42-0.03,4.42-2.3c0-0.39,0-0.77,0-1.15
				c0.01-26.88-0.28-53.76,0.22-80.62c0.13-6.78-2.19-10.14-7.95-12.95c-22.14-10.81-44.34-15.19-68.58-17.18
				c-3.95-0.32-6.45,0.01-10.43,0.1L69.42,49.13z M167.98,103.71c-0.01,10.27-0.06,20.62,0.04,30.96c0.04,4.3,3.41,5.43,6.64,4.92
				c2.3-0.36,6.11-2.42,6.17-3.85c0.47-10.67,0.31-21.38,0.29-32.03c0-1.51-1.22-2.73-2.73-2.73h-7.67
				C169.2,100.99,167.98,102.21,167.98,103.71z M168.1,148.77c-0.03,4.74-0.12,9.72,0.07,14.68c0.14,3.63,2.79,5.66,6.06,4.97
				c2.46-0.52,6.28-2.52,6.52-4.27c0.69-5.08,0.43-10.29,0.34-15.42c-0.03-1.49-1.24-2.68-2.73-2.68h-7.52
				C169.33,146.06,168.11,147.27,168.1,148.77z M168.06,89.22c0.57,1.94,1.14,3.65,2.28,4.22c2.43,1.22,6.53,1.15,8.87-0.18
				c1.08-0.62,1.48-2.41,1.82-4.31c0.31-1.68-0.98-3.23-2.69-3.23h-7.67C168.85,85.72,167.54,87.47,168.06,89.22z M168.19,74.28
				c0.41,1.61,0.92,3.05,1.9,3.51c2.59,1.22,6.54,1.03,9.27-0.1c0.83-0.35,1.22-1.77,1.51-3.28c0.31-1.63-0.91-3.15-2.56-3.23
				c-2.52-0.12-4.87-0.23-7.35-0.34C169.11,70.76,167.73,72.49,168.19,74.28z"/>
			<path class="st15" d="M86.09,20.89c20.25,6.03,40.2,11.84,60.05,17.94c10.64,3.27,19.17,9.46,24.57,19.76
				c-8.5-4.08-16.5-8.97-25.17-11.86c-15.85-5.3-32.09-9.41-48.17-14.04c-2.2-0.63-4.37-1.36-6.56-2.04
				C83.95,28.52,83.82,28.27,86.09,20.89z M239.94,28.2c-14.15,4.34-28.46,8.2-42.48,12.92c-8.68,2.92-15.29,8.86-19.65,17.5
				c9.18-4.3,17.59-9.28,26.66-12.27c17.4-5.74,35.19-10.32,52.79-15.46c7.14-2.08,7.11-2.18,5.22-10.04
				C254.96,23.32,247.49,25.89,239.94,28.2z M87.18,32.87c-3.53-1.37-6.71-2.61-10-3.88C76.71,33.98,78.95,34.81,87.18,32.87z
				 M277.47,28.99c-3.29,1.28-6.47,2.51-10,3.88C275.69,34.81,277.93,33.98,277.47,28.99z"/>
		</g>
		<text transform="matrix(1 0 0 1 53.2358 200.3208)" class="st16 st17 st18">education</text>
	</g>
</g>
<g id="Logo10">
</g>
<g id="Logo11">
</g>
<g id="Logo12">
</g>
<g id="Layer_13">
</g>
<g id="Layer_14">
</g>
<g id="Layer_15">
</g>
</svg>
