<?xml version="1.0" encoding="utf-8"?>
<!-- Generator: Adobe Illustrator 27.8.1, SVG Export Plug-In . SVG Version: 6.00 Build 0)  -->
<svg version="1.1" id="Layer_1" xmlns="http://www.w3.org/2000/svg" xmlns:xlink="http://www.w3.org/1999/xlink" x="0px" y="0px"
	 viewBox="0 0 350 230" style="enable-background:new 0 0 350 230;" xml:space="preserve">
<style type="text/css">
	.st0{fill:#F5F5F5;stroke:#404040;stroke-width:2;stroke-miterlimit:10;}
	.st1{fill:#49BDC9;}
	.st2{fill:none;stroke:#404040;stroke-miterlimit:10;}
	.st3{fill:#F5F5F5;}
	.st4{fill:none;stroke:#FFFFFF;stroke-miterlimit:10;}
	.st5{fill:#2F2F3F;}
	.st6{fill:#02028C;}
	.st7{fill:#FFFFFF;}
	.st8{fill:#023C44;}
	.st9{fill:#022231;}
	.st10{fill:#53C2BB;}
	.st11{fill:#FF680D;}
	.st12{fill:#00EDFF;}
	.st13{fill:#213000;}
	.st14{fill:#FFB034;}
	.st15{fill:#00556A;}
	.st16{fill:#380C00;}
	.st17{fill:#00556A;stroke:#FFFFFF;stroke-width:0.5;stroke-miterlimit:10;}
	.st18{fill:#750000;}
	.st19{fill:#D40B00;}
	.st20{fill:#8E0073;}
	.st21{fill:#494949;}
	.st22{fill:#259AAB;}
	.st23{fill:#3DAEB7;}
	.st24{fill:#065652;}
	.st25{fill:#A8C6E9;}
	.st26{fill:#3F0101;}
	.st27{fill:#80C445;}
	.st28{fill:#F4D4AE;}
	.st29{fill:#E95454;}
	.st30{fill:#760689;}
	.st31{fill:#DEBFFF;}
	.st32{fill:url(#SVGID_1_);}
	.st33{fill:url(#SVGID_00000087381989907992592060000006370455729188389296_);}
	.st34{fill:url(#_x3C_Compound_Path_x3E__Music_Icon_00000160158572271257130290000007232339788022067360_);}
	.st35{opacity:0.3;fill:url(#_x3C_Compound_Path_x3E__Music_Shades_00000008148044665432966820000014955894732928888462_);}
	.st36{opacity:0.8;fill:#FFFFFF;}
	.st37{fill:#590068;}
	.st38{fill:#293767;}
	.st39{fill:#008294;}
	.st40{fill:url(#SVGID_00000056392115243254706240000010203695153607402393_);}
	.st41{fill:#F5F5F6;}
	.st42{fill:#021284;}
	.st43{fill:#751616;}
	.st44{fill:url(#SVGID_00000072250915795605873760000013138085820585691294_);}
	.st45{fill:#0000A2;}
	.st46{fill:#00833F;}
	.st47{fill:#6B1800;}
	.st48{fill:#54004C;}
	.st49{fill:#C10073;}
	.st50{fill:#7A0334;}
	.st51{fill:#002066;}
	.st52{fill:#5E5700;}
	.st53{fill:#350033;}
	.st54{fill:#FFB000;}
	.st55{fill:#490000;}
	.st56{fill:#875F74;}
	.st57{fill:#003035;}
	.st58{fill:#3659FF;}
	.st59{fill:#9B8F00;}
	.st60{fill:#4C1200;}
	.st61{fill:#016A72;}
	.st62{fill:#FF0000;}
	.st63{fill:#005C68;}
	.st64{fill:#4A0075;}
	.st65{fill:url(#SVGID_00000088843575593750351930000002797824202914654854_);}
	.st66{fill:#020242;}
	.st67{fill:#228DC9;}
	.st68{fill:#551700;}
	.st69{fill:#00C2E0;}
	.st70{fill:#012F4C;}
	.st71{fill:#300018;}
	.st72{fill-rule:evenodd;clip-rule:evenodd;fill:#6D3C5B;}
	.st73{fill-rule:evenodd;clip-rule:evenodd;fill:#020242;}
	.st74{fill:#9B001E;}
	.st75{fill:#00E1FF;}
	.st76{fill:#680040;}
	.st77{fill:#8E8700;}
	.st78{fill:#220247;}
	.st79{fill:#0086FF;}
	.st80{fill:#7C4F00;}
	.st81{fill:#520000;}
	.st82{fill:#04A8CB;}
	.st83{fill:#18618B;}
	.st84{fill:#958C00;}
	.st85{fill:#B0261C;}
	.st86{fill:#013147;}
	.st87{fill:#CD11A1;}
	.st88{fill:#296262;}
	.st89{fill:#5C5E00;}
	.st90{fill:#55B1C8;}
	.st91{fill:#918C34;}
	.st92{fill:#F94351;}
	.st93{fill:#9B001A;}
	.st94{fill:#000066;}
	.st95{fill:#636568;}
	.st96{fill:#002544;}
	.st97{fill:#723300;}
	.st98{fill:url(#SVGID_00000139290266149194190180000003452194489845289377_);}
	.st99{fill:#F393BD;}
	.st100{fill:url(#SVGID_00000129921031057743743920000000570752164013425853_);}
	.st101{fill:#011354;}
	.st102{fill:#38011B;}
	.st103{fill-rule:evenodd;clip-rule:evenodd;fill:#2365A6;}
	.st104{fill:#351B01;}
	.st105{fill-rule:evenodd;clip-rule:evenodd;fill:#351B01;}
	.st106{fill:#02484C;}
	.st107{fill:none;stroke:#02484C;stroke-width:4;stroke-miterlimit:10;}
</style>
<g>
	<g>
		<path class="st72" d="M216.15,9.58c-5.84-6.27-15.22-6.27-33.99-6.27c-18.78,0-28.16,0-34,6.27c-5.83,6.27-5.83,16.37-5.83,36.54
			v57.08c0,20.17,0,30.27,5.83,36.54c5.84,6.27,15.22,6.27,34,6.27c18.76,0,28.14,0,33.99-6.27c5.83-6.27,5.83-16.37,5.83-36.54
			V46.12C221.98,25.95,221.98,15.85,216.15,9.58z M216.05,54.77c0,1.16,0,2.38-0.22,3.57c-0.59,3.01-2.25,5.7-4.68,7.56
			c-0.95,0.73-2.06,1.28-3.08,1.79l-0.26,0.13l-9.51,4.76c-1.45,0.73-2.72,1.37-3.77,1.82c-1.09,0.47-2.36,0.95-3.77,1.12
			c-1.1,0.13-2.17,0.12-3.23-0.03v20.58c0,10.83-8.78,19.61-19.61,19.61c-10.83,0-19.63-8.78-19.63-19.61s8.79-19.63,19.63-19.63
			c3.2,0,6.24,0.78,8.91,2.14v-19.7c0-1.15,0-2.38,0.22-3.55c0.57-3.02,2.25-5.71,4.68-7.58c0.95-0.73,2.06-1.28,3.08-1.79
			l0.26-0.13l9.51-4.76c1.45-0.72,2.72-1.37,3.77-1.82c1.09-0.47,2.35-0.95,3.77-1.12c5.76-0.68,11.22,2.7,13.18,8.15
			c0.48,1.34,0.62,2.7,0.69,3.88c0.06,1.15,0.06,2.57,0.06,4.18V54.77z M133.2,128.12c-0.22-1.72-0.37-3.54-0.48-5.46
			c-0.34-5.45-0.34-11.75-0.34-18.75V45.42c0-7,0-13.3,0.34-18.75c0.12-1.94,0.26-3.74,0.48-5.46c0.09-0.76,0.21-1.53,0.32-2.29
			c0.26-1.54-0.94-3-2.5-2.85c-3.07,0.26-5.84,0.84-8.44,2.26c-4.05,2.22-7.36,5.77-9.43,10.13c-1.32,2.79-1.85,5.77-2.11,9.07
			c-0.23,3.2-0.23,7.14-0.23,11.94v50.39c0,4.8,0,8.74,0.23,11.92c0.26,3.32,0.79,6.3,2.11,9.09c2.07,4.36,5.37,7.91,9.43,10.13
			c2.6,1.42,5.37,2,8.44,2.26c1.56,0.15,2.76-1.31,2.5-2.85C133.41,129.64,133.29,128.88,133.2,128.12z M253.27,37.53
			c-0.25-3.3-0.79-6.28-2.11-9.07c-2.07-4.36-5.37-7.91-9.43-10.13c-2.6-1.42-5.37-2-8.44-2.26c-1.56-0.15-2.75,1.31-2.5,2.85
			c0.12,0.76,0.23,1.53,0.32,2.29c0.22,1.72,0.38,3.52,0.48,5.46c0.34,5.45,0.34,11.75,0.34,18.75v58.49c0,7,0,13.3-0.34,18.75
			c-0.1,1.92-0.26,3.74-0.48,5.46c-0.09,0.76-0.21,1.53-0.32,2.29c-0.25,1.54,0.94,3,2.5,2.85c3.07-0.26,5.84-0.84,8.44-2.26
			c4.05-2.22,7.36-5.77,9.43-10.13c1.32-2.79,1.86-5.77,2.11-9.09c0.23-3.19,0.23-7.12,0.23-11.92V49.47
			C253.5,44.67,253.5,40.73,253.27,37.53z"/>
		<path class="st73" d="M167.89,87.14c-4.93,0-8.93,3.99-8.93,8.93c0,4.92,3.99,8.91,8.93,8.91c4.92,0,8.91-3.99,8.91-8.91
			C176.81,91.14,172.81,87.14,167.89,87.14z M205.3,50.72c-0.03-0.54-0.07-0.78-0.09-0.84c-0.28-0.73-1.03-1.19-1.81-1.12
			c-0.06,0.01-0.29,0.07-0.79,0.29c-0.76,0.34-1.78,0.85-3.38,1.64l-9.4,4.7c-0.69,0.34-1.07,0.54-1.37,0.69
			c-0.18,0.1-0.25,0.15-0.28,0.16c-0.34,0.26-0.57,0.65-0.66,1.07c0,0.03-0.01,0.12-0.01,0.32c-0.01,0.32-0.01,0.76-0.01,1.53
			c0,1.79,0,2.92,0.04,3.77c0.03,0.53,0.07,0.78,0.09,0.84c0.28,0.72,1.01,1.17,1.81,1.12c0.06-0.01,0.28-0.09,0.78-0.31
			c0.78-0.34,1.79-0.84,3.39-1.64l9.4-4.7c0.69-0.34,1.07-0.53,1.37-0.69c0.18-0.1,0.25-0.15,0.26-0.16
			c0.35-0.26,0.59-0.65,0.68-1.07c0-0.03,0.01-0.1,0.01-0.32c0.01-0.32,0.01-0.76,0.01-1.53C205.35,52.68,205.35,51.55,205.3,50.72z
			 M167.89,87.14c-4.93,0-8.93,3.99-8.93,8.93c0,4.92,3.99,8.91,8.93,8.91c4.92,0,8.91-3.99,8.91-8.91
			C176.81,91.14,172.81,87.14,167.89,87.14z M205.3,50.72c-0.03-0.54-0.07-0.78-0.09-0.84c-0.28-0.73-1.03-1.19-1.81-1.12
			c-0.06,0.01-0.29,0.07-0.79,0.29c-0.76,0.34-1.78,0.85-3.38,1.64l-9.4,4.7c-0.69,0.34-1.07,0.54-1.37,0.69
			c-0.18,0.1-0.25,0.15-0.28,0.16c-0.34,0.26-0.57,0.65-0.66,1.07c0,0.03-0.01,0.12-0.01,0.32c-0.01,0.32-0.01,0.76-0.01,1.53
			c0,1.79,0,2.92,0.04,3.77c0.03,0.53,0.07,0.78,0.09,0.84c0.28,0.72,1.01,1.17,1.81,1.12c0.06-0.01,0.28-0.09,0.78-0.31
			c0.78-0.34,1.79-0.84,3.39-1.64l9.4-4.7c0.69-0.34,1.07-0.53,1.37-0.69c0.18-0.1,0.25-0.15,0.26-0.16
			c0.35-0.26,0.59-0.65,0.68-1.07c0-0.03,0.01-0.1,0.01-0.32c0.01-0.32,0.01-0.76,0.01-1.53C205.35,52.68,205.35,51.55,205.3,50.72z
			 M205.3,50.72c-0.03-0.54-0.07-0.78-0.09-0.84c-0.28-0.73-1.03-1.19-1.81-1.12c-0.06,0.01-0.29,0.07-0.79,0.29
			c-0.76,0.34-1.78,0.85-3.38,1.64l-9.4,4.7c-0.69,0.34-1.07,0.54-1.37,0.69c-0.18,0.1-0.25,0.15-0.28,0.16
			c-0.34,0.26-0.57,0.65-0.66,1.07c0,0.03-0.01,0.12-0.01,0.32c-0.01,0.32-0.01,0.76-0.01,1.53c0,1.79,0,2.92,0.04,3.77
			c0.03,0.53,0.07,0.78,0.09,0.84c0.28,0.72,1.01,1.17,1.81,1.12c0.06-0.01,0.28-0.09,0.78-0.31c0.78-0.34,1.79-0.84,3.39-1.64
			l9.4-4.7c0.69-0.34,1.07-0.53,1.37-0.69c0.18-0.1,0.25-0.15,0.26-0.16c0.35-0.26,0.59-0.65,0.68-1.07c0-0.03,0.01-0.1,0.01-0.32
			c0.01-0.32,0.01-0.76,0.01-1.53C205.35,52.68,205.35,51.55,205.3,50.72z M167.89,87.14c-4.93,0-8.93,3.99-8.93,8.93
			c0,4.92,3.99,8.91,8.93,8.91c4.92,0,8.91-3.99,8.91-8.91C176.81,91.14,172.81,87.14,167.89,87.14z"/>
	</g>
</g>
</svg>
