<?xml version="1.0" encoding="utf-8"?>
<!-- Generator: Adobe Illustrator 27.8.1, SVG Export Plug-In . SVG Version: 6.00 Build 0)  -->
<svg version="1.1" id="Layer_1" xmlns="http://www.w3.org/2000/svg" xmlns:xlink="http://www.w3.org/1999/xlink" x="0px" y="0px"
	 viewBox="0 0 350 230" style="enable-background:new 0 0 350 230;" xml:space="preserve">
<style type="text/css">
	.st0{fill:#F5F5F5;stroke:#404040;stroke-width:2;stroke-miterlimit:10;}
	.st1{fill:#49BDC9;}
	.st2{fill:none;stroke:#404040;stroke-miterlimit:10;}
	.st3{fill:#F5F5F5;}
	.st4{fill:none;stroke:#FFFFFF;stroke-miterlimit:10;}
	.st5{fill:#2F2F3F;}
	.st6{fill:#02028C;}
	.st7{fill:#FFFFFF;}
	.st8{fill:#023C44;}
	.st9{fill:#022231;}
	.st10{fill:#53C2BB;}
	.st11{fill:#FF680D;}
	.st12{fill:#00EDFF;}
	.st13{fill:#213000;}
	.st14{fill:#FFB034;}
	.st15{fill:#00556A;}
	.st16{fill:#380C00;}
	.st17{fill:#00556A;stroke:#FFFFFF;stroke-width:0.5;stroke-miterlimit:10;}
	.st18{fill:#750000;}
	.st19{fill:#D40B00;}
	.st20{fill:#8E0073;}
	.st21{fill:#494949;}
	.st22{fill:#259AAB;}
	.st23{fill:#3DAEB7;}
	.st24{fill:#065652;}
	.st25{fill:#A8C6E9;}
	.st26{fill:#3F0101;}
	.st27{fill:#80C445;}
	.st28{fill:#F4D4AE;}
	.st29{fill:#E95454;}
	.st30{fill:#760689;}
	.st31{fill:#DEBFFF;}
	.st32{fill:url(#SVGID_1_);}
	.st33{fill:url(#SVGID_00000183220425008740777260000001236915989564861854_);}
	.st34{fill:url(#_x3C_Compound_Path_x3E__Music_Icon_00000165229608190799958100000018032171012117137540_);}
	.st35{opacity:0.3;fill:url(#_x3C_Compound_Path_x3E__Music_Shades_00000096020909160469781640000005016332613484683195_);}
	.st36{opacity:0.8;fill:#FFFFFF;}
	.st37{fill:#590068;}
	.st38{fill:#293767;}
	.st39{fill:#008294;}
	.st40{fill:url(#SVGID_00000052787564081245089110000001115188384603761298_);}
	.st41{fill:#F5F5F6;}
	.st42{fill:#021284;}
	.st43{fill:#751616;}
	.st44{fill:url(#SVGID_00000100345491747703454720000003852927951685139076_);}
	.st45{fill:#0000A2;}
	.st46{fill:#00833F;}
	.st47{fill:#6B1800;}
	.st48{fill:#54004C;}
	.st49{fill:#C10073;}
	.st50{fill:#7A0334;}
	.st51{fill:#002066;}
	.st52{fill:#5E5700;}
	.st53{fill:#350033;}
	.st54{fill:#FFB000;}
	.st55{fill:#490000;}
	.st56{fill:#875F74;}
	.st57{fill:#003035;}
	.st58{fill:#3659FF;}
	.st59{fill:#9B8F00;}
	.st60{fill:#4C1200;}
	.st61{fill:#016A72;}
	.st62{fill:#FF0000;}
	.st63{fill:#005C68;}
	.st64{fill:#4A0075;}
	.st65{fill:url(#SVGID_00000079486536332410732990000017258947246552258997_);}
	.st66{fill:#020242;}
	.st67{fill:#228DC9;}
	.st68{fill:#551700;}
	.st69{fill:#00C2E0;}
	.st70{fill:#012F4C;}
	.st71{fill:#300018;}
	.st72{fill-rule:evenodd;clip-rule:evenodd;fill:#6D3C5B;}
	.st73{fill-rule:evenodd;clip-rule:evenodd;fill:#020242;}
	.st74{fill:#9B001E;}
	.st75{fill:#00E1FF;}
	.st76{fill:#680040;}
	.st77{fill:#8E8700;}
	.st78{fill:#220247;}
	.st79{fill:#0086FF;}
	.st80{fill:#7C4F00;}
	.st81{fill:#520000;}
	.st82{fill:#04A8CB;}
	.st83{fill:#18618B;}
	.st84{fill:#958C00;}
	.st85{fill:#B0261C;}
	.st86{fill:#013147;}
	.st87{fill:#CD11A1;}
	.st88{fill:#296262;}
	.st89{fill:#5C5E00;}
	.st90{fill:#55B1C8;}
	.st91{fill:#918C34;}
	.st92{fill:#F94351;}
	.st93{fill:#9B001A;}
	.st94{fill:#000066;}
	.st95{fill:#636568;}
	.st96{fill:#002544;}
	.st97{fill:#723300;}
	.st98{fill:url(#SVGID_00000025423570372786418550000002857607472246641570_);}
	.st99{fill:#F393BD;}
	.st100{fill:url(#SVGID_00000056411332639510408770000005397561650149814455_);}
	.st101{fill:#011354;}
	.st102{fill:#38011B;}
	.st103{fill-rule:evenodd;clip-rule:evenodd;fill:#2365A6;}
	.st104{fill:#351B01;}
	.st105{fill-rule:evenodd;clip-rule:evenodd;fill:#351B01;}
	.st106{fill:#02484C;}
	.st107{fill:none;stroke:#02484C;stroke-width:4;stroke-miterlimit:10;}
</style>
<g>
	<g>
		<g>
			<path class="st21" d="M181.01,53.26l-0.44-0.2c-0.51-0.26-1.13-0.02-1.37,0.49l-2.33,5.03l-0.46,0.93
				c-0.24,0.51-0.04,1.11,0.49,1.37l0.44,0.18c0.51,0.25,1.13,0.04,1.37-0.49l0.93-1.95l1.86-3.99
				C181.73,54.12,181.52,53.5,181.01,53.26z M186.82,37.77l-21.56,20.61l-0.2,0.18l5.63,0.04l0.11-0.13l18.57-20.7H186.82z
				 M221.39,47.41c0,0-4.46-7.73-13.05,11.7l13.76,0.24l0.58-0.35L221.39,47.41z"/>
			<path class="st22" d="M316.82,81.27c-0.02-0.24-0.04-0.47-0.07-0.69c0-0.13-0.02-0.26-0.05-0.36c-0.04-0.26-0.09-0.47-0.15-0.69
				c-0.55-2.57-1.82-4.25-1.82-4.25c-24.87-25.68-76.13-25.57-76.13-25.57L222.68,59l-0.58,0.35l-13.76-0.24l-28.7-0.49l-2.77-0.04
				l-6.07-0.11l-5.54-0.09h-0.2l-7.27-0.13l-54.67-0.95c-17.38,0-31.22,2.61-41.69,5.85c-3.06,0.95-5.85,1.95-8.33,2.93
				c-0.84,0.33-1.62,0.67-2.41,1c-3.08,1.33-5.65,2.64-7.73,3.81c-4.5,2.51-6.69,4.37-6.69,4.37c-1.95,3.44-2.9,6.36-3.06,8.86
				c-0.04,0.35-0.05,0.69-0.05,1.02c0,0.27,0.02,0.53,0.05,0.8c-0.02,0.05-0.02,0.13,0,0.16c0.04,0.47,0.13,0.89,0.22,1.31
				c0.05,0.26,0.13,0.49,0.2,0.75c0.6,1.77,1.66,3.23,3.04,4.43c5.54,4.79,16.31,5.65,22.6,5.7V92c0-7.91,5.59-14.12,13.52-14.12
				h16.91c9.26,0,19.43,6.34,19.43,14.27l0.02,0.46l0.31,14.52l0.98,0.18l1.26-3.55l124.61-0.24l2.02,3.79c0.22,0,0.42,0,0.62-0.02
				V92c0-7.91,5.61-14.12,13.52-14.12h16.89c9.28,0,19.44,6.34,19.44,14.27v0.46l0.11,6.87c-0.02,0-0.05,0.02-0.07,0.02
				c0,0.02,0.02,0.02,0.02,0.04c11.75-3.08,19.77-5.92,19.77-5.92c0.55-0.33,1.06-0.64,1.53-1c4.66-3.26,6.31-6.71,6.61-9.66
				c0.02-0.09,0.02-0.18,0.02-0.26c0.02-0.02,0.02-0.02,0.02-0.04C316.84,82.12,316.84,81.67,316.82,81.27z M59.81,64.39
				c0.33,1.37-1.73,3.63-4.85,5.21c-3.3,1.68-6.52,1.95-7.2,0.6c-0.11-0.2-0.15-0.46-0.11-0.73C50.39,67.95,54.43,66.05,59.81,64.39
				z"/>
			<path class="st23" d="M222.1,59.35l0.58-0.35l15.91-9.29c0,0,51.26-0.11,76.13,25.57c-31.47-12.5-68.74-15.2-84.7-15.76
				c-0.75-0.04-1.44-0.05-2.1-0.07C224.21,59.33,222.1,59.35,222.1,59.35z M316.82,81.27c-0.07-0.73-0.2-1.44-0.38-2.06
				c-0.02-0.09-0.05-0.22-0.09-0.31c-0.62-2.06-1.62-3.37-1.62-3.37c-0.07-0.05-0.13-0.18-0.2-0.18h-278
				c-0.16,0-0.24,0.18-0.24,0.18c-1.88,3.33-2.84,6.16-3.06,8.6c-0.04,0.35-0.05,0.69-0.05,1.02c0,0.27,0.02,0.53,0.05,0.8
				c-0.02,0.05-0.02,0.13,0,0.16c0.04,0.47,0.13,0.89,0.22,1.31c0.05,0.26,0.13,0.49,0.2,0.75c0.51,1.71,1.46,3.19,2.77,4.43h22.87
				V92c0-7.91,5.59-14.12,13.52-14.12h16.91c9.26,0,19.43,6.34,19.43,14.27l0.02,0.46h129.8V92c0-7.91,5.61-14.12,13.52-14.12h16.89
				c9.28,0,19.44,6.34,19.44,14.27v0.46h21.74c4.46-3.32,6.03-6.74,6.25-9.66c0-0.09,0.02-0.2,0.02-0.29
				C316.84,82.12,316.84,81.67,316.82,81.27z"/>
			<path class="st21" d="M272.9,92.61c-2.33-2.61-5.7-4.25-9.48-4.25c-3.77,0-7.14,1.64-9.48,4.25c-1.99,2.24-3.19,5.19-3.19,8.42
				c0,1.97,0.44,3.83,1.24,5.49c2.06,4.25,6.4,7.18,11.43,7.18c6.45,0,11.81-4.83,12.57-11.1c0.07-0.51,0.09-1.04,0.09-1.57
				C276.09,97.81,274.9,94.85,272.9,92.61z M268.11,92.61l2.75,1.37l-5.76,3.81l-0.31-5.18l-0.11-1.71L268.11,92.61z M263.42,99.66
				c0.77,0,1.38,0.62,1.38,1.37c0,0.75-0.62,1.38-1.38,1.38c-0.75,0-1.37-0.64-1.37-1.38C262.06,100.28,262.68,99.66,263.42,99.66z
				 M257.94,92.61l0.13-0.16l0.07,0.16l2.31,6.32l-6.82-1.18L257.94,92.61z M254.62,106.22l-0.04,0.02l-0.2,0.18l-0.04-0.16
				l-1.09-6.65l6.47,2.44L254.62,106.22z M260.16,111.38l3.46-5.98l3.46,5.98H260.16z M273.14,103.2l-0.82,3.59l-3.01-2.82v-0.02
				l-2.04-1.89l6.61-1.99L273.14,103.2z M285.55,100.39c0,0,0-0.02,0-0.04c-0.07-2.73-0.66-5.34-1.64-7.74
				c-3.3-8.05-11.24-13.72-20.48-13.72c-9.24,0-17.17,5.67-20.48,13.72c-1.08,2.59-1.66,5.43-1.66,8.42c0,2.15,0.31,4.21,0.89,6.18
				c0,0,0,0,0,0.02c2.66,9.2,11.17,15.94,21.25,15.94c12.23,0,22.14-9.91,22.14-22.14C285.56,100.81,285.56,100.61,285.55,100.39z
				 M281.26,101.41c-0.66,0.16-1.31,0.31-1.97,0.46c0.02-0.27,0.02-0.57,0.02-0.84c0-3.1-0.89-5.98-2.42-8.42
				c-2.81-4.48-7.8-7.45-13.47-7.45c-5.67,0-10.64,2.97-13.45,7.45c-1.55,2.44-2.42,5.32-2.42,8.42c0,2.04,0.38,3.99,1.09,5.79
				c2.31,5.9,8.05,10.08,14.78,10.08c8.49,0,15.42-6.65,15.87-15.02c0.66-0.15,1.31-0.29,1.97-0.46
				c-0.22,9.66-8.13,17.44-17.84,17.44c-7.74,0-14.36-4.96-16.8-11.88c0.33-0.02,0.67-0.04,1-0.07c-0.35,0.02-0.67,0.04-1.02,0.05
				c-0.66-1.84-1-3.85-1-5.94c0-3.04,0.77-5.92,2.11-8.42c3.01-5.59,8.91-9.4,15.71-9.4c6.8,0,12.7,3.81,15.73,9.4
				c1.33,2.5,2.11,5.38,2.11,8.42V101.41z M267.27,102.05l6.61-1.99l-0.75,3.13l-0.82,3.59l-3.01-2.82v-0.02L267.27,102.05z
				 M253.64,97.75l4.3-5.14l0.13-0.16l0.07,0.16l2.31,6.32L253.64,97.75z M259.72,102.05l-5.1,4.17l-0.04,0.02l-0.2,0.18l-0.04-0.16
				l-1.09-6.65L259.72,102.05z M263.62,105.4l3.46,5.98h-6.92L263.62,105.4z M262.06,101.03c0-0.75,0.62-1.37,1.37-1.37
				c0.77,0,1.38,0.62,1.38,1.37c0,0.75-0.62,1.38-1.38,1.38C262.68,102.42,262.06,101.78,262.06,101.03z M265.1,97.79l-0.31-5.18
				l-0.11-1.71l3.43,1.71l2.75,1.37L265.1,97.79z M93.17,92.6c-2.31-2.61-5.69-4.25-9.46-4.25c-3.75,0-7.14,1.64-9.44,4.25
				c-1.69,1.88-2.82,4.28-3.13,6.94c-0.05,0.49-0.09,0.98-0.09,1.48c0,7,5.69,12.66,12.66,12.66c5.81,0,10.7-3.9,12.19-9.24
				c0.31-1.09,0.47-2.24,0.47-3.43C96.38,97.8,95.18,94.84,93.17,92.6z M88.4,92.6l2.75,1.37l-5.76,3.81l-0.33-5.18l-0.09-1.71
				L88.4,92.6z M82.35,101.02c0-0.75,0.6-1.37,1.37-1.37c0.77,0,1.37,0.62,1.37,1.37c0,0.49-0.24,0.91-0.64,1.17c0,0,0,0-0.02,0
				c-0.2,0.13-0.46,0.22-0.71,0.22c-0.47,0-0.87-0.24-1.11-0.6C82.44,101.59,82.35,101.31,82.35,101.02z M78.21,92.6l0.15-0.16
				l0.05,0.16l2.33,6.32l-6.8-1.18L78.21,92.6z M74.66,106.42l-1.04-6.38l-0.07-0.44l2.37,0.89h0.02l4.06,1.55L74.66,106.42z
				 M80.47,111.37l3.43-5.98l3.46,5.98H80.47z M92.59,106.78l-3.99-3.77h-0.02l-1.02-0.97l6.61-1.99l-0.91,3.86L92.59,106.78z
				 M97.18,92.6c-2.82-4.48-7.78-7.45-13.47-7.45s-10.66,2.97-13.47,7.45c-1.18,1.86-1.99,4.01-2.28,6.32
				c-0.09,0.69-0.15,1.38-0.15,2.1c0,8.77,7.13,15.87,15.89,15.87c7.36,0,13.56-5.01,15.36-11.83c0.33-1.29,0.51-2.66,0.51-4.05
				C99.59,97.92,98.71,95.04,97.18,92.6z M93.26,103.92l-0.67,2.86l-3.99-3.77h-0.02l-1.02-0.97l6.61-1.99L93.26,103.92z
				 M73.62,100.04l-0.07-0.44l2.37,0.89h0.02l4.06,1.55l-5.34,4.37L73.62,100.04z M78.36,92.44l0.05,0.16l2.33,6.32l-6.8-1.18
				l4.26-5.14L78.36,92.44z M84.97,90.89l3.43,1.71l2.75,1.37l-5.76,3.81l-0.33-5.18L84.97,90.89z M82.35,101.02
				c0-0.75,0.6-1.37,1.37-1.37c0.77,0,1.37,0.62,1.37,1.37c0,0.49-0.24,0.91-0.64,1.17c0,0,0,0-0.02,0
				c-0.2,0.13-0.46,0.22-0.71,0.22c-0.47,0-0.87-0.24-1.11-0.6C82.44,101.59,82.35,101.31,82.35,101.02z M83.9,105.39l3.46,5.98
				h-6.89L83.9,105.39z M97.18,92.6c-2.82-4.48-7.78-7.45-13.47-7.45s-10.66,2.97-13.47,7.45c-1.18,1.86-1.99,4.01-2.28,6.32
				c-0.09,0.69-0.15,1.38-0.15,2.1c0,8.77,7.13,15.87,15.89,15.87c7.36,0,13.56-5.01,15.36-11.83c0.33-1.29,0.51-2.66,0.51-4.05
				C99.59,97.92,98.71,95.04,97.18,92.6z M93.26,103.92l-0.67,2.86l-3.99-3.77h-0.02l-1.02-0.97l6.61-1.99L93.26,103.92z
				 M73.62,100.04l-0.07-0.44l2.37,0.89h0.02l4.06,1.55l-5.34,4.37L73.62,100.04z M78.36,92.44l0.05,0.16l2.33,6.32l-6.8-1.18
				l4.26-5.14L78.36,92.44z M84.97,90.89l3.43,1.71l2.75,1.37l-5.76,3.81l-0.33-5.18L84.97,90.89z M82.35,101.02
				c0-0.75,0.6-1.37,1.37-1.37c0.77,0,1.37,0.62,1.37,1.37c0,0.49-0.24,0.91-0.64,1.17c0,0,0,0-0.02,0
				c-0.2,0.13-0.46,0.22-0.71,0.22c-0.47,0-0.87-0.24-1.11-0.6C82.44,101.59,82.35,101.31,82.35,101.02z M83.9,105.39l3.46,5.98
				h-6.89L83.9,105.39z M97.18,92.6c-2.82-4.48-7.78-7.45-13.47-7.45s-10.66,2.97-13.47,7.45c-1.18,1.86-1.99,4.01-2.28,6.32
				c-0.09,0.69-0.15,1.38-0.15,2.1c0,8.77,7.13,15.87,15.89,15.87c7.36,0,13.56-5.01,15.36-11.83c0.33-1.29,0.51-2.66,0.51-4.05
				C99.59,97.92,98.71,95.04,97.18,92.6z M93.26,103.92l-0.67,2.86l-3.99-3.77h-0.02l-1.02-0.97l6.61-1.99L93.26,103.92z
				 M73.62,100.04l-0.07-0.44l2.37,0.89h0.02l4.06,1.55l-5.34,4.37L73.62,100.04z M78.36,92.44l0.05,0.16l2.33,6.32l-6.8-1.18
				l4.26-5.14L78.36,92.44z M84.97,90.89l3.43,1.71l2.75,1.37l-5.76,3.81l-0.33-5.18L84.97,90.89z M82.35,101.02
				c0-0.75,0.6-1.37,1.37-1.37c0.77,0,1.37,0.62,1.37,1.37c0,0.49-0.24,0.91-0.64,1.17c0,0,0,0-0.02,0
				c-0.2,0.13-0.46,0.22-0.71,0.22c-0.47,0-0.87-0.24-1.11-0.6C82.44,101.59,82.35,101.31,82.35,101.02z M83.9,105.39l3.46,5.98
				h-6.89L83.9,105.39z M97.18,92.6c-2.82-4.48-7.78-7.45-13.47-7.45s-10.66,2.97-13.47,7.45c-1.18,1.86-1.99,4.01-2.28,6.32
				c-0.09,0.69-0.15,1.38-0.15,2.1c0,8.77,7.13,15.87,15.89,15.87c7.36,0,13.56-5.01,15.36-11.83c0.33-1.29,0.51-2.66,0.51-4.05
				C99.59,97.92,98.71,95.04,97.18,92.6z M93.26,103.92l-0.67,2.86l-3.99-3.77h-0.02l-1.02-0.97l6.61-1.99L93.26,103.92z
				 M73.62,100.04l-0.07-0.44l2.37,0.89h0.02l4.06,1.55l-5.34,4.37L73.62,100.04z M78.36,92.44l0.05,0.16l2.33,6.32l-6.8-1.18
				l4.26-5.14L78.36,92.44z M84.97,90.89l3.43,1.71l2.75,1.37l-5.76,3.81l-0.33-5.18L84.97,90.89z M82.35,101.02
				c0-0.75,0.6-1.37,1.37-1.37c0.77,0,1.37,0.62,1.37,1.37c0,0.49-0.24,0.91-0.64,1.17c0,0,0,0-0.02,0
				c-0.2,0.13-0.46,0.22-0.71,0.22c-0.47,0-0.87-0.24-1.11-0.6C82.44,101.59,82.35,101.31,82.35,101.02z M83.9,105.39l3.46,5.98
				h-6.89L83.9,105.39z M97.18,92.6c-2.82-4.48-7.78-7.45-13.47-7.45s-10.66,2.97-13.47,7.45c-1.18,1.86-1.99,4.01-2.28,6.32
				c-0.09,0.69-0.15,1.38-0.15,2.1c0,8.77,7.13,15.87,15.89,15.87c7.36,0,13.56-5.01,15.36-11.83c0.33-1.29,0.51-2.66,0.51-4.05
				C99.59,97.92,98.71,95.04,97.18,92.6z M93.26,103.92l-0.67,2.86l-3.99-3.77h-0.02l-1.02-0.97l6.61-1.99L93.26,103.92z
				 M73.62,100.04l-0.07-0.44l2.37,0.89h0.02l4.06,1.55l-5.34,4.37L73.62,100.04z M78.36,92.44l0.05,0.16l2.33,6.32l-6.8-1.18
				l4.26-5.14L78.36,92.44z M84.97,90.89l3.43,1.71l2.75,1.37l-5.76,3.81l-0.33-5.18L84.97,90.89z M82.35,101.02
				c0-0.75,0.6-1.37,1.37-1.37c0.77,0,1.37,0.62,1.37,1.37c0,0.49-0.24,0.91-0.64,1.17c0,0,0,0-0.02,0
				c-0.2,0.13-0.46,0.22-0.71,0.22c-0.47,0-0.87-0.24-1.11-0.6C82.44,101.59,82.35,101.31,82.35,101.02z M83.9,105.39l3.46,5.98
				h-6.89L83.9,105.39z M97.18,92.6c-2.82-4.48-7.78-7.45-13.47-7.45s-10.66,2.97-13.47,7.45c-1.18,1.86-1.99,4.01-2.28,6.32
				c-0.09,0.69-0.15,1.38-0.15,2.1c0,8.77,7.13,15.87,15.89,15.87c7.36,0,13.56-5.01,15.36-11.83c0.33-1.29,0.51-2.66,0.51-4.05
				C99.59,97.92,98.71,95.04,97.18,92.6z M93.26,103.92l-0.67,2.86l-3.99-3.77h-0.02l-1.02-0.97l6.61-1.99L93.26,103.92z
				 M73.62,100.04l-0.07-0.44l2.37,0.89h0.02l4.06,1.55l-5.34,4.37L73.62,100.04z M78.36,92.44l0.05,0.16l2.33,6.32l-6.8-1.18
				l4.26-5.14L78.36,92.44z M84.97,90.89l3.43,1.71l2.75,1.37l-5.76,3.81l-0.33-5.18L84.97,90.89z M82.35,101.02
				c0-0.75,0.6-1.37,1.37-1.37c0.77,0,1.37,0.62,1.37,1.37c0,0.49-0.24,0.91-0.64,1.17c0,0,0,0-0.02,0
				c-0.2,0.13-0.46,0.22-0.71,0.22c-0.47,0-0.87-0.24-1.11-0.6C82.44,101.59,82.35,101.31,82.35,101.02z M83.9,105.39l3.46,5.98
				h-6.89L83.9,105.39z M97.18,92.6c-2.82-4.48-7.78-7.45-13.47-7.45s-10.66,2.97-13.47,7.45c-1.18,1.86-1.99,4.01-2.28,6.32
				c-0.09,0.69-0.15,1.38-0.15,2.1c0,8.77,7.13,15.87,15.89,15.87c7.36,0,13.56-5.01,15.36-11.83c0.33-1.29,0.51-2.66,0.51-4.05
				C99.59,97.92,98.71,95.04,97.18,92.6z M93.26,103.92l-0.67,2.86l-3.99-3.77h-0.02l-1.02-0.97l6.61-1.99L93.26,103.92z
				 M73.62,100.04l-0.07-0.44l2.37,0.89h0.02l4.06,1.55l-5.34,4.37L73.62,100.04z M78.36,92.44l0.05,0.16l2.33,6.32l-6.8-1.18
				l4.26-5.14L78.36,92.44z M84.97,90.89l3.43,1.71l2.75,1.37l-5.76,3.81l-0.33-5.18L84.97,90.89z M82.35,101.02
				c0-0.75,0.6-1.37,1.37-1.37c0.77,0,1.37,0.62,1.37,1.37c0,0.49-0.24,0.91-0.64,1.17c0,0,0,0-0.02,0
				c-0.2,0.13-0.46,0.22-0.71,0.22c-0.47,0-0.87-0.24-1.11-0.6C82.44,101.59,82.35,101.31,82.35,101.02z M83.9,105.39l3.46,5.98
				h-6.89L83.9,105.39z M97.18,92.6c-2.82-4.48-7.78-7.45-13.47-7.45s-10.66,2.97-13.47,7.45c-1.18,1.86-1.99,4.01-2.28,6.32
				c-0.09,0.69-0.15,1.38-0.15,2.1c0,8.77,7.13,15.87,15.89,15.87c7.36,0,13.56-5.01,15.36-11.83c0.33-1.29,0.51-2.66,0.51-4.05
				C99.59,97.92,98.71,95.04,97.18,92.6z M93.26,103.92l-0.67,2.86l-3.99-3.77h-0.02l-1.02-0.97l6.61-1.99L93.26,103.92z
				 M73.62,100.04l-0.07-0.44l2.37,0.89h0.02l4.06,1.55l-5.34,4.37L73.62,100.04z M78.36,92.44l0.05,0.16l2.33,6.32l-6.8-1.18
				l4.26-5.14L78.36,92.44z M84.97,90.89l3.43,1.71l2.75,1.37l-5.76,3.81l-0.33-5.18L84.97,90.89z M82.35,101.02
				c0-0.75,0.6-1.37,1.37-1.37c0.77,0,1.37,0.62,1.37,1.37c0,0.49-0.24,0.91-0.64,1.17c0,0,0,0-0.02,0
				c-0.2,0.13-0.46,0.22-0.71,0.22c-0.47,0-0.87-0.24-1.11-0.6C82.44,101.59,82.35,101.31,82.35,101.02z M83.9,105.39l3.46,5.98
				h-6.89L83.9,105.39z M97.18,92.6c-2.82-4.48-7.78-7.45-13.47-7.45s-10.66,2.97-13.47,7.45c-1.18,1.86-1.99,4.01-2.28,6.32
				c-0.09,0.69-0.15,1.38-0.15,2.1c0,8.77,7.13,15.87,15.89,15.87c7.36,0,13.56-5.01,15.36-11.83c0.33-1.29,0.51-2.66,0.51-4.05
				C99.59,97.92,98.71,95.04,97.18,92.6z M93.26,103.92l-0.67,2.86l-3.99-3.77h-0.02l-1.02-0.97l6.61-1.99L93.26,103.92z
				 M73.62,100.04l-0.07-0.44l2.37,0.89h0.02l4.06,1.55l-5.34,4.37L73.62,100.04z M78.36,92.44l0.05,0.16l2.33,6.32l-6.8-1.18
				l4.26-5.14L78.36,92.44z M84.97,90.89l3.43,1.71l2.75,1.37l-5.76,3.81l-0.33-5.18L84.97,90.89z M82.35,101.02
				c0-0.75,0.6-1.37,1.37-1.37c0.77,0,1.37,0.62,1.37,1.37c0,0.49-0.24,0.91-0.64,1.17c0,0,0,0-0.02,0
				c-0.2,0.13-0.46,0.22-0.71,0.22c-0.47,0-0.87-0.24-1.11-0.6C82.44,101.59,82.35,101.31,82.35,101.02z M83.9,105.39l3.46,5.98
				h-6.89L83.9,105.39z M97.18,92.6c-2.82-4.48-7.78-7.45-13.47-7.45s-10.66,2.97-13.47,7.45c-1.18,1.86-1.99,4.01-2.28,6.32
				c-0.09,0.69-0.15,1.38-0.15,2.1c0,8.77,7.13,15.87,15.89,15.87c7.36,0,13.56-5.01,15.36-11.83c0.33-1.29,0.51-2.66,0.51-4.05
				C99.59,97.92,98.71,95.04,97.18,92.6z M93.26,103.92l-0.67,2.86l-3.99-3.77h-0.02l-1.02-0.97l6.61-1.99L93.26,103.92z
				 M73.62,100.04l-0.07-0.44l2.37,0.89h0.02l4.06,1.55l-5.34,4.37L73.62,100.04z M78.36,92.44l0.05,0.16l2.33,6.32l-6.8-1.18
				l4.26-5.14L78.36,92.44z M84.97,90.89l3.43,1.71l2.75,1.37l-5.76,3.81l-0.33-5.18L84.97,90.89z M82.35,101.02
				c0-0.75,0.6-1.37,1.37-1.37c0.77,0,1.37,0.62,1.37,1.37c0,0.49-0.24,0.91-0.64,1.17c0,0,0,0-0.02,0
				c-0.2,0.13-0.46,0.22-0.71,0.22c-0.47,0-0.87-0.24-1.11-0.6C82.44,101.59,82.35,101.31,82.35,101.02z M83.9,105.39l3.46,5.98
				h-6.89L83.9,105.39z M97.18,92.6c-2.82-4.48-7.78-7.45-13.47-7.45s-10.66,2.97-13.47,7.45c-1.18,1.86-1.99,4.01-2.28,6.32
				c-0.09,0.69-0.15,1.38-0.15,2.1c0,8.77,7.13,15.87,15.89,15.87c7.36,0,13.56-5.01,15.36-11.83c0.33-1.29,0.51-2.66,0.51-4.05
				C99.59,97.92,98.71,95.04,97.18,92.6z M93.26,103.92l-0.67,2.86l-3.99-3.77h-0.02l-1.02-0.97l6.61-1.99L93.26,103.92z
				 M73.62,100.04l-0.07-0.44l2.37,0.89h0.02l4.06,1.55l-5.34,4.37L73.62,100.04z M78.36,92.44l0.05,0.16l2.33,6.32l-6.8-1.18
				l4.26-5.14L78.36,92.44z M84.97,90.89l3.43,1.71l2.75,1.37l-5.76,3.81l-0.33-5.18L84.97,90.89z M82.35,101.02
				c0-0.75,0.6-1.37,1.37-1.37c0.77,0,1.37,0.62,1.37,1.37c0,0.49-0.24,0.91-0.64,1.17c0,0,0,0-0.02,0
				c-0.2,0.13-0.46,0.22-0.71,0.22c-0.47,0-0.87-0.24-1.11-0.6C82.44,101.59,82.35,101.31,82.35,101.02z M83.9,105.39l3.46,5.98
				h-6.89L83.9,105.39z M97.18,92.6c-2.82-4.48-7.78-7.45-13.47-7.45s-10.66,2.97-13.47,7.45c-1.18,1.86-1.99,4.01-2.28,6.32
				c-0.09,0.69-0.15,1.38-0.15,2.1c0,8.77,7.13,15.87,15.89,15.87c7.36,0,13.56-5.01,15.36-11.83c0.33-1.29,0.51-2.66,0.51-4.05
				C99.59,97.92,98.71,95.04,97.18,92.6z M93.26,103.92l-0.67,2.86l-3.99-3.77h-0.02l-1.02-0.97l6.61-1.99L93.26,103.92z
				 M73.62,100.04l-0.07-0.44l2.37,0.89h0.02l4.06,1.55l-5.34,4.37L73.62,100.04z M78.36,92.44l0.05,0.16l2.33,6.32l-6.8-1.18
				l4.26-5.14L78.36,92.44z M84.97,90.89l3.43,1.71l2.75,1.37l-5.76,3.81l-0.33-5.18L84.97,90.89z M82.35,101.02
				c0-0.75,0.6-1.37,1.37-1.37c0.77,0,1.37,0.62,1.37,1.37c0,0.49-0.24,0.91-0.64,1.17c0,0,0,0-0.02,0
				c-0.2,0.13-0.46,0.22-0.71,0.22c-0.47,0-0.87-0.24-1.11-0.6C82.44,101.59,82.35,101.31,82.35,101.02z M83.9,105.39l3.46,5.98
				h-6.89L83.9,105.39z M97.18,92.6c-2.82-4.48-7.78-7.45-13.47-7.45s-10.66,2.97-13.47,7.45c-1.18,1.86-1.99,4.01-2.28,6.32
				c-0.09,0.69-0.15,1.38-0.15,2.1c0,8.77,7.13,15.87,15.89,15.87c7.36,0,13.56-5.01,15.36-11.83c0.33-1.29,0.51-2.66,0.51-4.05
				C99.59,97.92,98.71,95.04,97.18,92.6z M93.26,103.92l-0.67,2.86l-3.99-3.77h-0.02l-1.02-0.97l6.61-1.99L93.26,103.92z
				 M73.62,100.04l-0.07-0.44l2.37,0.89h0.02l4.06,1.55l-5.34,4.37L73.62,100.04z M78.36,92.44l0.05,0.16l2.33,6.32l-6.8-1.18
				l4.26-5.14L78.36,92.44z M84.97,90.89l3.43,1.71l2.75,1.37l-5.76,3.81l-0.33-5.18L84.97,90.89z M82.35,101.02
				c0-0.75,0.6-1.37,1.37-1.37c0.77,0,1.37,0.62,1.37,1.37c0,0.49-0.24,0.91-0.64,1.17c0,0,0,0-0.02,0
				c-0.2,0.13-0.46,0.22-0.71,0.22c-0.47,0-0.87-0.24-1.11-0.6C82.44,101.59,82.35,101.31,82.35,101.02z M83.9,105.39l3.46,5.98
				h-6.89L83.9,105.39z M97.18,92.6c-2.82-4.48-7.78-7.45-13.47-7.45s-10.66,2.97-13.47,7.45c-1.18,1.86-1.99,4.01-2.28,6.32
				c-0.09,0.69-0.15,1.38-0.15,2.1c0,8.77,7.13,15.87,15.89,15.87c7.36,0,13.56-5.01,15.36-11.83c0.33-1.29,0.51-2.66,0.51-4.05
				C99.59,97.92,98.71,95.04,97.18,92.6z M93.26,103.92l-0.67,2.86l-3.99-3.77h-0.02l-1.02-0.97l6.61-1.99L93.26,103.92z
				 M73.62,100.04l-0.07-0.44l2.37,0.89h0.02l4.06,1.55l-5.34,4.37L73.62,100.04z M78.36,92.44l0.05,0.16l2.33,6.32l-6.8-1.18
				l4.26-5.14L78.36,92.44z M84.97,90.89l3.43,1.71l2.75,1.37l-5.76,3.81l-0.33-5.18L84.97,90.89z M82.35,101.02
				c0-0.75,0.6-1.37,1.37-1.37c0.77,0,1.37,0.62,1.37,1.37c0,0.49-0.24,0.91-0.64,1.17c0,0,0,0-0.02,0
				c-0.2,0.13-0.46,0.22-0.71,0.22c-0.47,0-0.87-0.24-1.11-0.6C82.44,101.59,82.35,101.31,82.35,101.02z M83.9,105.39l3.46,5.98
				h-6.89L83.9,105.39z M97.18,92.6c-2.82-4.48-7.78-7.45-13.47-7.45s-10.66,2.97-13.47,7.45c-1.18,1.86-1.99,4.01-2.28,6.32
				c-0.09,0.69-0.15,1.38-0.15,2.1c0,8.77,7.13,15.87,15.89,15.87c7.36,0,13.56-5.01,15.36-11.83c0.33-1.29,0.51-2.66,0.51-4.05
				C99.59,97.92,98.71,95.04,97.18,92.6z M93.26,103.92l-0.67,2.86l-3.99-3.77h-0.02l-1.02-0.97l6.61-1.99L93.26,103.92z
				 M73.62,100.04l-0.07-0.44l2.37,0.89h0.02l4.06,1.55l-5.34,4.37L73.62,100.04z M78.36,92.44l0.05,0.16l2.33,6.32l-6.8-1.18
				l4.26-5.14L78.36,92.44z M84.97,90.89l3.43,1.71l2.75,1.37l-5.76,3.81l-0.33-5.18L84.97,90.89z M82.35,101.02
				c0-0.75,0.6-1.37,1.37-1.37c0.77,0,1.37,0.62,1.37,1.37c0,0.49-0.24,0.91-0.64,1.17c0,0,0,0-0.02,0
				c-0.2,0.13-0.46,0.22-0.71,0.22c-0.47,0-0.87-0.24-1.11-0.6C82.44,101.59,82.35,101.31,82.35,101.02z M83.9,105.39l3.46,5.98
				h-6.89L83.9,105.39z M97.18,92.6c-2.82-4.48-7.78-7.45-13.47-7.45s-10.66,2.97-13.47,7.45c-1.18,1.86-1.99,4.01-2.28,6.32
				c-0.09,0.69-0.15,1.38-0.15,2.1c0,8.77,7.13,15.87,15.89,15.87c7.36,0,13.56-5.01,15.36-11.83c0.33-1.29,0.51-2.66,0.51-4.05
				C99.59,97.92,98.71,95.04,97.18,92.6z M93.26,103.92l-0.67,2.86l-3.99-3.77h-0.02l-1.02-0.97l6.61-1.99L93.26,103.92z
				 M73.62,100.04l-0.07-0.44l2.37,0.89h0.02l4.06,1.55l-5.34,4.37L73.62,100.04z M78.36,92.44l0.05,0.16l2.33,6.32l-6.8-1.18
				l4.26-5.14L78.36,92.44z M84.97,90.89l3.43,1.71l2.75,1.37l-5.76,3.81l-0.33-5.18L84.97,90.89z M82.35,101.02
				c0-0.75,0.6-1.37,1.37-1.37c0.77,0,1.37,0.62,1.37,1.37c0,0.49-0.24,0.91-0.64,1.17c0,0,0,0-0.02,0
				c-0.2,0.13-0.46,0.22-0.71,0.22c-0.47,0-0.87-0.24-1.11-0.6C82.44,101.59,82.35,101.31,82.35,101.02z M83.9,105.39l3.46,5.98
				h-6.89L83.9,105.39z M97.18,92.6c-2.82-4.48-7.78-7.45-13.47-7.45s-10.66,2.97-13.47,7.45c-1.18,1.86-1.99,4.01-2.28,6.32
				c-0.09,0.69-0.15,1.38-0.15,2.1c0,8.77,7.13,15.87,15.89,15.87c7.36,0,13.56-5.01,15.36-11.83c0.33-1.29,0.51-2.66,0.51-4.05
				C99.59,97.92,98.71,95.04,97.18,92.6z M93.26,103.92l-0.67,2.86l-3.99-3.77h-0.02l-1.02-0.97l6.61-1.99L93.26,103.92z
				 M73.62,100.04l-0.07-0.44l2.37,0.89h0.02l4.06,1.55l-5.34,4.37L73.62,100.04z M78.36,92.44l0.05,0.16l2.33,6.32l-6.8-1.18
				l4.26-5.14L78.36,92.44z M84.97,90.89l3.43,1.71l2.75,1.37l-5.76,3.81l-0.33-5.18L84.97,90.89z M82.35,101.02
				c0-0.75,0.6-1.37,1.37-1.37c0.77,0,1.37,0.62,1.37,1.37c0,0.49-0.24,0.91-0.64,1.17c0,0,0,0-0.02,0
				c-0.2,0.13-0.46,0.22-0.71,0.22c-0.47,0-0.87-0.24-1.11-0.6C82.44,101.59,82.35,101.31,82.35,101.02z M83.9,105.39l3.46,5.98
				h-6.89L83.9,105.39z M97.18,92.6c-2.82-4.48-7.78-7.45-13.47-7.45s-10.66,2.97-13.47,7.45c-1.18,1.86-1.99,4.01-2.28,6.32
				c-0.09,0.69-0.15,1.38-0.15,2.1c0,8.77,7.13,15.87,15.89,15.87c7.36,0,13.56-5.01,15.36-11.83c0.33-1.29,0.51-2.66,0.51-4.05
				C99.59,97.92,98.71,95.04,97.18,92.6z M93.26,103.92l-0.67,2.86l-3.99-3.77h-0.02l-1.02-0.97l6.61-1.99L93.26,103.92z
				 M73.62,100.04l-0.07-0.44l2.37,0.89h0.02l4.06,1.55l-5.34,4.37L73.62,100.04z M78.36,92.44l0.05,0.16l2.33,6.32l-6.8-1.18
				l4.26-5.14L78.36,92.44z M84.97,90.89l3.43,1.71l2.75,1.37l-5.76,3.81l-0.33-5.18L84.97,90.89z M82.35,101.02
				c0-0.75,0.6-1.37,1.37-1.37c0.77,0,1.37,0.62,1.37,1.37c0,0.49-0.24,0.91-0.64,1.17c0,0,0,0-0.02,0
				c-0.2,0.13-0.46,0.22-0.71,0.22c-0.47,0-0.87-0.24-1.11-0.6C82.44,101.59,82.35,101.31,82.35,101.02z M83.9,105.39l3.46,5.98
				h-6.89L83.9,105.39z M97.18,92.6c-2.82-4.48-7.78-7.45-13.47-7.45s-10.66,2.97-13.47,7.45c-1.18,1.86-1.99,4.01-2.28,6.32
				c-0.09,0.69-0.15,1.38-0.15,2.1c0,8.77,7.13,15.87,15.89,15.87c7.36,0,13.56-5.01,15.36-11.83c0.33-1.29,0.51-2.66,0.51-4.05
				C99.59,97.92,98.71,95.04,97.18,92.6z M93.26,103.92l-0.67,2.86l-3.99-3.77h-0.02l-1.02-0.97l6.61-1.99L93.26,103.92z
				 M73.62,100.04l-0.07-0.44l2.37,0.89h0.02l4.06,1.55l-5.34,4.37L73.62,100.04z M78.36,92.44l0.05,0.16l2.33,6.32l-6.8-1.18
				l4.26-5.14L78.36,92.44z M84.97,90.89l3.43,1.71l2.75,1.37l-5.76,3.81l-0.33-5.18L84.97,90.89z M82.35,101.02
				c0-0.75,0.6-1.37,1.37-1.37c0.77,0,1.37,0.62,1.37,1.37c0,0.49-0.24,0.91-0.64,1.17c0,0,0,0-0.02,0
				c-0.2,0.13-0.46,0.22-0.71,0.22c-0.47,0-0.87-0.24-1.11-0.6C82.44,101.59,82.35,101.31,82.35,101.02z M83.9,105.39l3.46,5.98
				h-6.89L83.9,105.39z M97.18,92.6c-2.82-4.48-7.78-7.45-13.47-7.45s-10.66,2.97-13.47,7.45c-1.18,1.86-1.99,4.01-2.28,6.32
				c-0.09,0.69-0.15,1.38-0.15,2.1c0,8.77,7.13,15.87,15.89,15.87c7.36,0,13.56-5.01,15.36-11.83c0.33-1.29,0.51-2.66,0.51-4.05
				C99.59,97.92,98.71,95.04,97.18,92.6z M93.26,103.92l-0.67,2.86l-3.99-3.77h-0.02l-1.02-0.97l6.61-1.99L93.26,103.92z
				 M73.62,100.04l-0.07-0.44l2.37,0.89h0.02l4.06,1.55l-5.34,4.37L73.62,100.04z M78.36,92.44l0.05,0.16l2.33,6.32l-6.8-1.18
				l4.26-5.14L78.36,92.44z M84.97,90.89l3.43,1.71l2.75,1.37l-5.76,3.81l-0.33-5.18L84.97,90.89z M82.35,101.02
				c0-0.75,0.6-1.37,1.37-1.37c0.77,0,1.37,0.62,1.37,1.37c0,0.49-0.24,0.91-0.64,1.17c0,0,0,0-0.02,0
				c-0.2,0.13-0.46,0.22-0.71,0.22c-0.47,0-0.87-0.24-1.11-0.6C82.44,101.59,82.35,101.31,82.35,101.02z M83.9,105.39l3.46,5.98
				h-6.89L83.9,105.39z M97.18,92.6c-2.82-4.48-7.78-7.45-13.47-7.45s-10.66,2.97-13.47,7.45c-1.18,1.86-1.99,4.01-2.28,6.32
				c-0.09,0.69-0.15,1.38-0.15,2.1c0,8.77,7.13,15.87,15.89,15.87c7.36,0,13.56-5.01,15.36-11.83c0.33-1.29,0.51-2.66,0.51-4.05
				C99.59,97.92,98.71,95.04,97.18,92.6z M93.26,103.92l-0.67,2.86l-3.99-3.77h-0.02l-1.02-0.97l6.61-1.99L93.26,103.92z
				 M73.62,100.04l-0.07-0.44l2.37,0.89h0.02l4.06,1.55l-5.34,4.37L73.62,100.04z M78.36,92.44l0.05,0.16l2.33,6.32l-6.8-1.18
				l4.26-5.14L78.36,92.44z M84.97,90.89l3.43,1.71l2.75,1.37l-5.76,3.81l-0.33-5.18L84.97,90.89z M82.35,101.02
				c0-0.75,0.6-1.37,1.37-1.37c0.77,0,1.37,0.62,1.37,1.37c0,0.49-0.24,0.91-0.64,1.17c0,0,0,0-0.02,0
				c-0.2,0.13-0.46,0.22-0.71,0.22c-0.47,0-0.87-0.24-1.11-0.6C82.44,101.59,82.35,101.31,82.35,101.02z M83.9,105.39l3.46,5.98
				h-6.89L83.9,105.39z M97.18,92.6c-2.82-4.48-7.78-7.45-13.47-7.45s-10.66,2.97-13.47,7.45c-1.18,1.86-1.99,4.01-2.28,6.32
				c-0.09,0.69-0.15,1.38-0.15,2.1c0,8.77,7.13,15.87,15.89,15.87c7.36,0,13.56-5.01,15.36-11.83c0.33-1.29,0.51-2.66,0.51-4.05
				C99.59,97.92,98.71,95.04,97.18,92.6z M93.26,103.92l-0.67,2.86l-3.99-3.77h-0.02l-1.02-0.97l6.61-1.99L93.26,103.92z
				 M73.62,100.04l-0.07-0.44l2.37,0.89h0.02l4.06,1.55l-5.34,4.37L73.62,100.04z M78.36,92.44l0.05,0.16l2.33,6.32l-6.8-1.18
				l4.26-5.14L78.36,92.44z M84.97,90.89l3.43,1.71l2.75,1.37l-5.76,3.81l-0.33-5.18L84.97,90.89z M82.35,101.02
				c0-0.75,0.6-1.37,1.37-1.37c0.77,0,1.37,0.62,1.37,1.37c0,0.49-0.24,0.91-0.64,1.17c0,0,0,0-0.02,0
				c-0.2,0.13-0.46,0.22-0.71,0.22c-0.47,0-0.87-0.24-1.11-0.6C82.44,101.59,82.35,101.31,82.35,101.02z M83.9,105.39l3.46,5.98
				h-6.89L83.9,105.39z M97.18,92.6c-2.82-4.48-7.78-7.45-13.47-7.45s-10.66,2.97-13.47,7.45c-1.18,1.86-1.99,4.01-2.28,6.32
				c-0.09,0.69-0.15,1.38-0.15,2.1c0,8.77,7.13,15.87,15.89,15.87c7.36,0,13.56-5.01,15.36-11.83c0.33-1.29,0.51-2.66,0.51-4.05
				C99.59,97.92,98.71,95.04,97.18,92.6z M93.26,103.92l-0.67,2.86l-3.99-3.77h-0.02l-1.02-0.97l6.61-1.99L93.26,103.92z
				 M73.62,100.04l-0.07-0.44l2.37,0.89h0.02l4.06,1.55l-5.34,4.37L73.62,100.04z M78.36,92.44l0.05,0.16l2.33,6.32l-6.8-1.18
				l4.26-5.14L78.36,92.44z M84.97,90.89l3.43,1.71l2.75,1.37l-5.76,3.81l-0.33-5.18L84.97,90.89z M82.35,101.02
				c0-0.75,0.6-1.37,1.37-1.37c0.77,0,1.37,0.62,1.37,1.37c0,0.49-0.24,0.91-0.64,1.17c0,0,0,0-0.02,0
				c-0.2,0.13-0.46,0.22-0.71,0.22c-0.47,0-0.87-0.24-1.11-0.6C82.44,101.59,82.35,101.31,82.35,101.02z M83.9,105.39l3.46,5.98
				h-6.89L83.9,105.39z M97.18,92.6c-2.82-4.48-7.78-7.45-13.47-7.45s-10.66,2.97-13.47,7.45c-1.18,1.86-1.99,4.01-2.28,6.32
				c-0.09,0.69-0.15,1.38-0.15,2.1c0,8.77,7.13,15.87,15.89,15.87c7.36,0,13.56-5.01,15.36-11.83c0.33-1.29,0.51-2.66,0.51-4.05
				C99.59,97.92,98.71,95.04,97.18,92.6z M93.26,103.92l-0.67,2.86l-3.99-3.77h-0.02l-1.02-0.97l6.61-1.99L93.26,103.92z
				 M73.62,100.04l-0.07-0.44l2.37,0.89h0.02l4.06,1.55l-5.34,4.37L73.62,100.04z M78.36,92.44l0.05,0.16l2.33,6.32l-6.8-1.18
				l4.26-5.14L78.36,92.44z M84.97,90.89l3.43,1.71l2.75,1.37l-5.76,3.81l-0.33-5.18L84.97,90.89z M82.35,101.02
				c0-0.75,0.6-1.37,1.37-1.37c0.77,0,1.37,0.62,1.37,1.37c0,0.49-0.24,0.91-0.64,1.17c0,0,0,0-0.02,0
				c-0.2,0.13-0.46,0.22-0.71,0.22c-0.47,0-0.87-0.24-1.11-0.6C82.44,101.59,82.35,101.31,82.35,101.02z M83.9,105.39l3.46,5.98
				h-6.89L83.9,105.39z M97.18,92.6c-2.82-4.48-7.78-7.45-13.47-7.45s-10.66,2.97-13.47,7.45c-1.18,1.86-1.99,4.01-2.28,6.32
				c-0.09,0.69-0.15,1.38-0.15,2.1c0,8.77,7.13,15.87,15.89,15.87c7.36,0,13.56-5.01,15.36-11.83c0.33-1.29,0.51-2.66,0.51-4.05
				C99.59,97.92,98.71,95.04,97.18,92.6z M93.26,103.92l-0.67,2.86l-3.99-3.77h-0.02l-1.02-0.97l6.61-1.99L93.26,103.92z
				 M73.62,100.04l-0.07-0.44l2.37,0.89h0.02l4.06,1.55l-5.34,4.37L73.62,100.04z M78.36,92.44l0.05,0.16l2.33,6.32l-6.8-1.18
				l4.26-5.14L78.36,92.44z M84.97,90.89l3.43,1.71l2.75,1.37l-5.76,3.81l-0.33-5.18L84.97,90.89z M82.35,101.02
				c0-0.75,0.6-1.37,1.37-1.37c0.77,0,1.37,0.62,1.37,1.37c0,0.49-0.24,0.91-0.64,1.17c0,0,0,0-0.02,0
				c-0.2,0.13-0.46,0.22-0.71,0.22c-0.47,0-0.87-0.24-1.11-0.6C82.44,101.59,82.35,101.31,82.35,101.02z M83.9,105.39l3.46,5.98
				h-6.89L83.9,105.39z M97.18,92.6c-2.82-4.48-7.78-7.45-13.47-7.45s-10.66,2.97-13.47,7.45c-1.18,1.86-1.99,4.01-2.28,6.32
				c-0.09,0.69-0.15,1.38-0.15,2.1c0,8.77,7.13,15.87,15.89,15.87c7.36,0,13.56-5.01,15.36-11.83c0.33-1.29,0.51-2.66,0.51-4.05
				C99.59,97.92,98.71,95.04,97.18,92.6z M93.26,103.92l-0.67,2.86l-3.99-3.77h-0.02l-1.02-0.97l6.61-1.99L93.26,103.92z
				 M73.62,100.04l-0.07-0.44l2.37,0.89h0.02l4.06,1.55l-5.34,4.37L73.62,100.04z M78.36,92.44l0.05,0.16l2.33,6.32l-6.8-1.18
				l4.26-5.14L78.36,92.44z M84.97,90.89l3.43,1.71l2.75,1.37l-5.76,3.81l-0.33-5.18L84.97,90.89z M82.35,101.02
				c0-0.75,0.6-1.37,1.37-1.37c0.77,0,1.37,0.62,1.37,1.37c0,0.49-0.24,0.91-0.64,1.17c0,0,0,0-0.02,0
				c-0.2,0.13-0.46,0.22-0.71,0.22c-0.47,0-0.87-0.24-1.11-0.6C82.44,101.59,82.35,101.31,82.35,101.02z M83.9,105.39l3.46,5.98
				h-6.89L83.9,105.39z M97.18,92.6c-2.82-4.48-7.78-7.45-13.47-7.45s-10.66,2.97-13.47,7.45c-1.18,1.86-1.99,4.01-2.28,6.32
				c-0.09,0.69-0.15,1.38-0.15,2.1c0,8.77,7.13,15.87,15.89,15.87c7.36,0,13.56-5.01,15.36-11.83c0.33-1.29,0.51-2.66,0.51-4.05
				C99.59,97.92,98.71,95.04,97.18,92.6z M93.26,103.92l-0.67,2.86l-3.99-3.77h-0.02l-1.02-0.97l6.61-1.99L93.26,103.92z
				 M73.62,100.04l-0.07-0.44l2.37,0.89h0.02l4.06,1.55l-5.34,4.37L73.62,100.04z M78.36,92.44l0.05,0.16l2.33,6.32l-6.8-1.18
				l4.26-5.14L78.36,92.44z M84.97,90.89l3.43,1.71l2.75,1.37l-5.76,3.81l-0.33-5.18L84.97,90.89z M82.35,101.02
				c0-0.75,0.6-1.37,1.37-1.37c0.77,0,1.37,0.62,1.37,1.37c0,0.49-0.24,0.91-0.64,1.17c0,0,0,0-0.02,0
				c-0.2,0.13-0.46,0.22-0.71,0.22c-0.47,0-0.87-0.24-1.11-0.6C82.44,101.59,82.35,101.31,82.35,101.02z M83.9,105.39l3.46,5.98
				h-6.89L83.9,105.39z M97.18,92.6c-2.82-4.48-7.78-7.45-13.47-7.45s-10.66,2.97-13.47,7.45c-1.18,1.86-1.99,4.01-2.28,6.32
				c-0.09,0.69-0.15,1.38-0.15,2.1c0,8.77,7.13,15.87,15.89,15.87c7.36,0,13.56-5.01,15.36-11.83c0.33-1.29,0.51-2.66,0.51-4.05
				C99.59,97.92,98.71,95.04,97.18,92.6z M93.26,103.92l-0.67,2.86l-3.99-3.77h-0.02l-1.02-0.97l6.61-1.99L93.26,103.92z
				 M73.62,100.04l-0.07-0.44l2.37,0.89h0.02l4.06,1.55l-5.34,4.37L73.62,100.04z M78.36,92.44l0.05,0.16l2.33,6.32l-6.8-1.18
				l4.26-5.14L78.36,92.44z M84.97,90.89l3.43,1.71l2.75,1.37l-5.76,3.81l-0.33-5.18L84.97,90.89z M82.35,101.02
				c0-0.75,0.6-1.37,1.37-1.37c0.77,0,1.37,0.62,1.37,1.37c0,0.49-0.24,0.91-0.64,1.17c0,0,0,0-0.02,0
				c-0.2,0.13-0.46,0.22-0.71,0.22c-0.47,0-0.87-0.24-1.11-0.6C82.44,101.59,82.35,101.31,82.35,101.02z M83.9,105.39l3.46,5.98
				h-6.89L83.9,105.39z M97.18,92.6c-2.82-4.48-7.78-7.45-13.47-7.45s-10.66,2.97-13.47,7.45c-1.18,1.86-1.99,4.01-2.28,6.32
				c-0.09,0.69-0.15,1.38-0.15,2.1c0,8.77,7.13,15.87,15.89,15.87c7.36,0,13.56-5.01,15.36-11.83c0.33-1.29,0.51-2.66,0.51-4.05
				C99.59,97.92,98.71,95.04,97.18,92.6z M93.26,103.92l-0.67,2.86l-3.99-3.77h-0.02l-1.02-0.97l6.61-1.99L93.26,103.92z
				 M73.62,100.04l-0.07-0.44l2.37,0.89h0.02l4.06,1.55l-5.34,4.37L73.62,100.04z M78.36,92.44l0.05,0.16l2.33,6.32l-6.8-1.18
				l4.26-5.14L78.36,92.44z M84.97,90.89l3.43,1.71l2.75,1.37l-5.76,3.81l-0.33-5.18L84.97,90.89z M82.35,101.02
				c0-0.75,0.6-1.37,1.37-1.37c0.77,0,1.37,0.62,1.37,1.37c0,0.49-0.24,0.91-0.64,1.17c0,0,0,0-0.02,0
				c-0.2,0.13-0.46,0.22-0.71,0.22c-0.47,0-0.87-0.24-1.11-0.6C82.44,101.59,82.35,101.31,82.35,101.02z M83.9,105.39l3.46,5.98
				h-6.89L83.9,105.39z M97.18,92.6c-2.82-4.48-7.78-7.45-13.47-7.45s-10.66,2.97-13.47,7.45c-1.18,1.86-1.99,4.01-2.28,6.32
				c-0.09,0.69-0.15,1.38-0.15,2.1c0,8.77,7.13,15.87,15.89,15.87c7.36,0,13.56-5.01,15.36-11.83c0.33-1.29,0.51-2.66,0.51-4.05
				C99.59,97.92,98.71,95.04,97.18,92.6z M93.26,103.92l-0.67,2.86l-3.99-3.77h-0.02l-1.02-0.97l6.61-1.99L93.26,103.92z
				 M73.62,100.04l-0.07-0.44l2.37,0.89h0.02l4.06,1.55l-5.34,4.37L73.62,100.04z M78.36,92.44l0.05,0.16l2.33,6.32l-6.8-1.18
				l4.26-5.14L78.36,92.44z M84.97,90.89l3.43,1.71l2.75,1.37l-5.76,3.81l-0.33-5.18L84.97,90.89z M82.35,101.02
				c0-0.75,0.6-1.37,1.37-1.37c0.77,0,1.37,0.62,1.37,1.37c0,0.49-0.24,0.91-0.64,1.17c0,0,0,0-0.02,0
				c-0.2,0.13-0.46,0.22-0.71,0.22c-0.47,0-0.87-0.24-1.11-0.6C82.44,101.59,82.35,101.31,82.35,101.02z M83.9,105.39l3.46,5.98
				h-6.89L83.9,105.39z M97.18,92.6c-2.82-4.48-7.78-7.45-13.47-7.45s-10.66,2.97-13.47,7.45c-1.18,1.86-1.99,4.01-2.28,6.32
				c-0.09,0.69-0.15,1.38-0.15,2.1c0,8.77,7.13,15.87,15.89,15.87c7.36,0,13.56-5.01,15.36-11.83c0.33-1.29,0.51-2.66,0.51-4.05
				C99.59,97.92,98.71,95.04,97.18,92.6z M93.26,103.92l-0.67,2.86l-3.99-3.77h-0.02l-1.02-0.97l6.61-1.99L93.26,103.92z
				 M73.62,100.04l-0.07-0.44l2.37,0.89h0.02l4.06,1.55l-5.34,4.37L73.62,100.04z M78.36,92.44l0.05,0.16l2.33,6.32l-6.8-1.18
				l4.26-5.14L78.36,92.44z M84.97,90.89l3.43,1.71l2.75,1.37l-5.76,3.81l-0.33-5.18L84.97,90.89z M82.35,101.02
				c0-0.75,0.6-1.37,1.37-1.37c0.77,0,1.37,0.62,1.37,1.37c0,0.49-0.24,0.91-0.64,1.17c0,0,0,0-0.02,0
				c-0.2,0.13-0.46,0.22-0.71,0.22c-0.47,0-0.87-0.24-1.11-0.6C82.44,101.59,82.35,101.31,82.35,101.02z M83.9,105.39l3.46,5.98
				h-6.89L83.9,105.39z M97.18,92.6c-2.82-4.48-7.78-7.45-13.47-7.45s-10.66,2.97-13.47,7.45c-1.18,1.86-1.99,4.01-2.28,6.32
				c-0.09,0.69-0.15,1.38-0.15,2.1c0,8.77,7.13,15.87,15.89,15.87c7.36,0,13.56-5.01,15.36-11.83c0.33-1.29,0.51-2.66,0.51-4.05
				C99.59,97.92,98.71,95.04,97.18,92.6z M93.26,103.92l-0.67,2.86l-3.99-3.77h-0.02l-1.02-0.97l6.61-1.99L93.26,103.92z
				 M73.62,100.04l-0.07-0.44l2.37,0.89h0.02l4.06,1.55l-5.34,4.37L73.62,100.04z M78.36,92.44l0.05,0.16l2.33,6.32l-6.8-1.18
				l4.26-5.14L78.36,92.44z M84.97,90.89l3.43,1.71l2.75,1.37l-5.76,3.81l-0.33-5.18L84.97,90.89z M82.35,101.02
				c0-0.75,0.6-1.37,1.37-1.37c0.77,0,1.37,0.62,1.37,1.37c0,0.49-0.24,0.91-0.64,1.17c0,0,0,0-0.02,0
				c-0.2,0.13-0.46,0.22-0.71,0.22c-0.47,0-0.87-0.24-1.11-0.6C82.44,101.59,82.35,101.31,82.35,101.02z M83.9,105.39l3.46,5.98
				h-6.89L83.9,105.39z M97.18,92.6c-2.82-4.48-7.78-7.45-13.47-7.45s-10.66,2.97-13.47,7.45c-1.18,1.86-1.99,4.01-2.28,6.32
				c-0.09,0.69-0.15,1.38-0.15,2.1c0,8.77,7.13,15.87,15.89,15.87c7.36,0,13.56-5.01,15.36-11.83c0.33-1.29,0.51-2.66,0.51-4.05
				C99.59,97.92,98.71,95.04,97.18,92.6z M93.26,103.92l-0.67,2.86l-3.99-3.77h-0.02l-1.02-0.97l6.61-1.99L93.26,103.92z
				 M73.62,100.04l-0.07-0.44l2.37,0.89h0.02l4.06,1.55l-5.34,4.37L73.62,100.04z M78.36,92.44l0.05,0.16l2.33,6.32l-6.8-1.18
				l4.26-5.14L78.36,92.44z M84.97,90.89l3.43,1.71l2.75,1.37l-5.76,3.81l-0.33-5.18L84.97,90.89z M82.35,101.02
				c0-0.75,0.6-1.37,1.37-1.37c0.77,0,1.37,0.62,1.37,1.37c0,0.49-0.24,0.91-0.64,1.17c0,0,0,0-0.02,0
				c-0.2,0.13-0.46,0.22-0.71,0.22c-0.47,0-0.87-0.24-1.11-0.6C82.44,101.59,82.35,101.31,82.35,101.02z M83.9,105.39l3.46,5.98
				h-6.89L83.9,105.39z M97.18,92.6c-2.82-4.48-7.78-7.45-13.47-7.45s-10.66,2.97-13.47,7.45c-1.18,1.86-1.99,4.01-2.28,6.32
				c-0.09,0.69-0.15,1.38-0.15,2.1c0,8.77,7.13,15.87,15.89,15.87c7.36,0,13.56-5.01,15.36-11.83c0.33-1.29,0.51-2.66,0.51-4.05
				C99.59,97.92,98.71,95.04,97.18,92.6z M93.26,103.92l-0.67,2.86l-3.99-3.77h-0.02l-1.02-0.97l6.61-1.99L93.26,103.92z
				 M73.62,100.04l-0.07-0.44l2.37,0.89h0.02l4.06,1.55l-5.34,4.37L73.62,100.04z M78.36,92.44l0.05,0.16l2.33,6.32l-6.8-1.18
				l4.26-5.14L78.36,92.44z M84.97,90.89l3.43,1.71l2.75,1.37l-5.76,3.81l-0.33-5.18L84.97,90.89z M82.35,101.02
				c0-0.75,0.6-1.37,1.37-1.37c0.77,0,1.37,0.62,1.37,1.37c0,0.49-0.24,0.91-0.64,1.17c0,0,0,0-0.02,0
				c-0.2,0.13-0.46,0.22-0.71,0.22c-0.47,0-0.87-0.24-1.11-0.6C82.44,101.59,82.35,101.31,82.35,101.02z M83.9,105.39l3.46,5.98
				h-6.89L83.9,105.39z M97.18,92.6c-2.82-4.48-7.78-7.45-13.47-7.45s-10.66,2.97-13.47,7.45c-1.18,1.86-1.99,4.01-2.28,6.32
				c-0.09,0.69-0.15,1.38-0.15,2.1c0,8.77,7.13,15.87,15.89,15.87c7.36,0,13.56-5.01,15.36-11.83c0.33-1.29,0.51-2.66,0.51-4.05
				C99.59,97.92,98.71,95.04,97.18,92.6z M93.26,103.92l-0.67,2.86l-3.99-3.77h-0.02l-1.02-0.97l6.61-1.99L93.26,103.92z
				 M73.62,100.04l-0.07-0.44l2.37,0.89h0.02l4.06,1.55l-5.34,4.37L73.62,100.04z M78.36,92.44l0.05,0.16l2.33,6.32l-6.8-1.18
				l4.26-5.14L78.36,92.44z M84.97,90.89l3.43,1.71l2.75,1.37l-5.76,3.81l-0.33-5.18L84.97,90.89z M82.35,101.02
				c0-0.75,0.6-1.37,1.37-1.37c0.77,0,1.37,0.62,1.37,1.37c0,0.49-0.24,0.91-0.64,1.17c0,0,0,0-0.02,0
				c-0.2,0.13-0.46,0.22-0.71,0.22c-0.47,0-0.87-0.24-1.11-0.6C82.44,101.59,82.35,101.31,82.35,101.02z M83.9,105.39l3.46,5.98
				h-6.89L83.9,105.39z M97.18,92.6c-2.82-4.48-7.78-7.45-13.47-7.45s-10.66,2.97-13.47,7.45c-1.18,1.86-1.99,4.01-2.28,6.32
				c-0.09,0.69-0.15,1.38-0.15,2.1c0,8.77,7.13,15.87,15.89,15.87c7.36,0,13.56-5.01,15.36-11.83c0.33-1.29,0.51-2.66,0.51-4.05
				C99.59,97.92,98.71,95.04,97.18,92.6z M93.26,103.92l-0.67,2.86l-3.99-3.77h-0.02l-1.02-0.97l6.61-1.99L93.26,103.92z
				 M73.62,100.04l-0.07-0.44l2.37,0.89h0.02l4.06,1.55l-5.34,4.37L73.62,100.04z M78.36,92.44l0.05,0.16l2.33,6.32l-6.8-1.18
				l4.26-5.14L78.36,92.44z M84.97,90.89l3.43,1.71l2.75,1.37l-5.76,3.81l-0.33-5.18L84.97,90.89z M82.35,101.02
				c0-0.75,0.6-1.37,1.37-1.37c0.77,0,1.37,0.62,1.37,1.37c0,0.49-0.24,0.91-0.64,1.17c0,0,0,0-0.02,0
				c-0.2,0.13-0.46,0.22-0.71,0.22c-0.47,0-0.87-0.24-1.11-0.6C82.44,101.59,82.35,101.31,82.35,101.02z M83.9,105.39l3.46,5.98
				h-6.89L83.9,105.39z M97.18,92.6c-2.82-4.48-7.78-7.45-13.47-7.45s-10.66,2.97-13.47,7.45c-1.18,1.86-1.99,4.01-2.28,6.32
				c-0.09,0.69-0.15,1.38-0.15,2.1c0,8.77,7.13,15.87,15.89,15.87c7.36,0,13.56-5.01,15.36-11.83c0.33-1.29,0.51-2.66,0.51-4.05
				C99.59,97.92,98.71,95.04,97.18,92.6z M93.26,103.92l-0.67,2.86l-3.99-3.77h-0.02l-1.02-0.97l6.61-1.99L93.26,103.92z
				 M73.62,100.04l-0.07-0.44l2.37,0.89h0.02l4.06,1.55l-5.34,4.37L73.62,100.04z M78.36,92.44l0.05,0.16l2.33,6.32l-6.8-1.18
				l4.26-5.14L78.36,92.44z M84.97,90.89l3.43,1.71l2.75,1.37l-5.76,3.81l-0.33-5.18L84.97,90.89z M82.35,101.02
				c0-0.75,0.6-1.37,1.37-1.37c0.77,0,1.37,0.62,1.37,1.37c0,0.49-0.24,0.91-0.64,1.17c0,0,0,0-0.02,0
				c-0.2,0.13-0.46,0.22-0.71,0.22c-0.47,0-0.87-0.24-1.11-0.6C82.44,101.59,82.35,101.31,82.35,101.02z M83.9,105.39l3.46,5.98
				h-6.89L83.9,105.39z M97.18,92.6c-2.82-4.48-7.78-7.45-13.47-7.45s-10.66,2.97-13.47,7.45c-1.18,1.86-1.99,4.01-2.28,6.32
				c-0.09,0.69-0.15,1.38-0.15,2.1c0,8.77,7.13,15.87,15.89,15.87c7.36,0,13.56-5.01,15.36-11.83c0.33-1.29,0.51-2.66,0.51-4.05
				C99.59,97.92,98.71,95.04,97.18,92.6z M93.26,103.92l-0.67,2.86l-3.99-3.77h-0.02l-1.02-0.97l6.61-1.99L93.26,103.92z
				 M73.62,100.04l-0.07-0.44l2.37,0.89h0.02l4.06,1.55l-5.34,4.37L73.62,100.04z M78.36,92.44l0.05,0.16l2.33,6.32l-6.8-1.18
				l4.26-5.14L78.36,92.44z M84.97,90.89l3.43,1.71l2.75,1.37l-5.76,3.81l-0.33-5.18L84.97,90.89z M82.35,101.02
				c0-0.75,0.6-1.37,1.37-1.37c0.77,0,1.37,0.62,1.37,1.37c0,0.49-0.24,0.91-0.64,1.17c0,0,0,0-0.02,0
				c-0.2,0.13-0.46,0.22-0.71,0.22c-0.47,0-0.87-0.24-1.11-0.6C82.44,101.59,82.35,101.31,82.35,101.02z M83.9,105.39l3.46,5.98
				h-6.89L83.9,105.39z M97.18,92.6c-2.82-4.48-7.78-7.45-13.47-7.45s-10.66,2.97-13.47,7.45c-1.18,1.86-1.99,4.01-2.28,6.32
				c-0.09,0.69-0.15,1.38-0.15,2.1c0,8.77,7.13,15.87,15.89,15.87c7.36,0,13.56-5.01,15.36-11.83c0.33-1.29,0.51-2.66,0.51-4.05
				C99.59,97.92,98.71,95.04,97.18,92.6z M93.26,103.92l-0.67,2.86l-3.99-3.77h-0.02l-1.02-0.97l6.61-1.99L93.26,103.92z
				 M73.62,100.04l-0.07-0.44l2.37,0.89h0.02l4.06,1.55l-5.34,4.37L73.62,100.04z M78.36,92.44l0.05,0.16l2.33,6.32l-6.8-1.18
				l4.26-5.14L78.36,92.44z M84.97,90.89l3.43,1.71l2.75,1.37l-5.76,3.81l-0.33-5.18L84.97,90.89z M82.35,101.02
				c0-0.75,0.6-1.37,1.37-1.37c0.77,0,1.37,0.62,1.37,1.37c0,0.49-0.24,0.91-0.64,1.17c0,0,0,0-0.02,0
				c-0.2,0.13-0.46,0.22-0.71,0.22c-0.47,0-0.87-0.24-1.11-0.6C82.44,101.59,82.35,101.31,82.35,101.02z M83.9,105.39l3.46,5.98
				h-6.89L83.9,105.39z M97.18,92.6c-2.82-4.48-7.78-7.45-13.47-7.45s-10.66,2.97-13.47,7.45c-1.18,1.86-1.99,4.01-2.28,6.32
				c-0.09,0.69-0.15,1.38-0.15,2.1c0,8.77,7.13,15.87,15.89,15.87c7.36,0,13.56-5.01,15.36-11.83c0.33-1.29,0.51-2.66,0.51-4.05
				C99.59,97.92,98.71,95.04,97.18,92.6z M93.26,103.92l-0.67,2.86l-3.99-3.77h-0.02l-1.02-0.97l6.61-1.99L93.26,103.92z
				 M73.62,100.04l-0.07-0.44l2.37,0.89h0.02l4.06,1.55l-5.34,4.37L73.62,100.04z M78.36,92.44l0.05,0.16l2.33,6.32l-6.8-1.18
				l4.26-5.14L78.36,92.44z M84.97,90.89l3.43,1.71l2.75,1.37l-5.76,3.81l-0.33-5.18L84.97,90.89z M82.35,101.02
				c0-0.75,0.6-1.37,1.37-1.37c0.77,0,1.37,0.62,1.37,1.37c0,0.49-0.24,0.91-0.64,1.17c0,0,0,0-0.02,0
				c-0.2,0.13-0.46,0.22-0.71,0.22c-0.47,0-0.87-0.24-1.11-0.6C82.44,101.59,82.35,101.31,82.35,101.02z M83.9,105.39l3.46,5.98
				h-6.89L83.9,105.39z M97.18,92.6c-2.82-4.48-7.78-7.45-13.47-7.45s-10.66,2.97-13.47,7.45c-1.18,1.86-1.99,4.01-2.28,6.32
				c-0.09,0.69-0.15,1.38-0.15,2.1c0,8.77,7.13,15.87,15.89,15.87c7.36,0,13.56-5.01,15.36-11.83c0.33-1.29,0.51-2.66,0.51-4.05
				C99.59,97.92,98.71,95.04,97.18,92.6z M93.26,103.92l-0.67,2.86l-3.99-3.77h-0.02l-1.02-0.97l6.61-1.99L93.26,103.92z
				 M73.62,100.04l-0.07-0.44l2.37,0.89h0.02l4.06,1.55l-5.34,4.37L73.62,100.04z M78.36,92.44l0.05,0.16l2.33,6.32l-6.8-1.18
				l4.26-5.14L78.36,92.44z M84.97,90.89l3.43,1.71l2.75,1.37l-5.76,3.81l-0.33-5.18L84.97,90.89z M82.35,101.02
				c0-0.75,0.6-1.37,1.37-1.37c0.77,0,1.37,0.62,1.37,1.37c0,0.49-0.24,0.91-0.64,1.17c0,0,0,0-0.02,0
				c-0.2,0.13-0.46,0.22-0.71,0.22c-0.47,0-0.87-0.24-1.11-0.6C82.44,101.59,82.35,101.31,82.35,101.02z M83.9,105.39l3.46,5.98
				h-6.89L83.9,105.39z M97.18,92.6c-2.82-4.48-7.78-7.45-13.47-7.45s-10.66,2.97-13.47,7.45c-1.18,1.86-1.99,4.01-2.28,6.32
				c-0.09,0.69-0.15,1.38-0.15,2.1c0,8.77,7.13,15.87,15.89,15.87c7.36,0,13.56-5.01,15.36-11.83c0.33-1.29,0.51-2.66,0.51-4.05
				C99.59,97.92,98.71,95.04,97.18,92.6z M93.26,103.92l-0.67,2.86l-3.99-3.77h-0.02l-1.02-0.97l6.61-1.99L93.26,103.92z
				 M73.62,100.04l-0.07-0.44l2.37,0.89h0.02l4.06,1.55l-5.34,4.37L73.62,100.04z M78.36,92.44l0.05,0.16l2.33,6.32l-6.8-1.18
				l4.26-5.14L78.36,92.44z M84.97,90.89l3.43,1.71l2.75,1.37l-5.76,3.81l-0.33-5.18L84.97,90.89z M82.35,101.02
				c0-0.75,0.6-1.37,1.37-1.37c0.77,0,1.37,0.62,1.37,1.37c0,0.49-0.24,0.91-0.64,1.17c0,0,0,0-0.02,0
				c-0.2,0.13-0.46,0.22-0.71,0.22c-0.47,0-0.87-0.24-1.11-0.6C82.44,101.59,82.35,101.31,82.35,101.02z M83.9,105.39l3.46,5.98
				h-6.89L83.9,105.39z M97.18,92.6c-2.82-4.48-7.78-7.45-13.47-7.45s-10.66,2.97-13.47,7.45c-1.18,1.86-1.99,4.01-2.28,6.32
				c-0.09,0.69-0.15,1.38-0.15,2.1c0,8.77,7.13,15.87,15.89,15.87c7.36,0,13.56-5.01,15.36-11.83c0.33-1.29,0.51-2.66,0.51-4.05
				C99.59,97.92,98.71,95.04,97.18,92.6z M93.26,103.92l-0.67,2.86l-3.99-3.77h-0.02l-1.02-0.97l6.61-1.99L93.26,103.92z
				 M73.62,100.04l-0.07-0.44l2.37,0.89h0.02l4.06,1.55l-5.34,4.37L73.62,100.04z M78.36,92.44l0.05,0.16l2.33,6.32l-6.8-1.18
				l4.26-5.14L78.36,92.44z M84.97,90.89l3.43,1.71l2.75,1.37l-5.76,3.81l-0.33-5.18L84.97,90.89z M82.35,101.02
				c0-0.75,0.6-1.37,1.37-1.37c0.77,0,1.37,0.62,1.37,1.37c0,0.49-0.24,0.91-0.64,1.17c0,0,0,0-0.02,0
				c-0.2,0.13-0.46,0.22-0.71,0.22c-0.47,0-0.87-0.24-1.11-0.6C82.44,101.59,82.35,101.31,82.35,101.02z M83.9,105.39l3.46,5.98
				h-6.89L83.9,105.39z M97.18,92.6c-2.82-4.48-7.78-7.45-13.47-7.45s-10.66,2.97-13.47,7.45c-1.18,1.86-1.99,4.01-2.28,6.32
				c-0.09,0.69-0.15,1.38-0.15,2.1c0,8.77,7.13,15.87,15.89,15.87c7.36,0,13.56-5.01,15.36-11.83c0.33-1.29,0.51-2.66,0.51-4.05
				C99.59,97.92,98.71,95.04,97.18,92.6z M93.26,103.92l-0.67,2.86l-3.99-3.77h-0.02l-1.02-0.97l6.61-1.99L93.26,103.92z
				 M73.62,100.04l-0.07-0.44l2.37,0.89h0.02l4.06,1.55l-5.34,4.37L73.62,100.04z M78.36,92.44l0.05,0.16l2.33,6.32l-6.8-1.18
				l4.26-5.14L78.36,92.44z M84.97,90.89l3.43,1.71l2.75,1.37l-5.76,3.81l-0.33-5.18L84.97,90.89z M82.35,101.02
				c0-0.75,0.6-1.37,1.37-1.37c0.77,0,1.37,0.62,1.37,1.37c0,0.49-0.24,0.91-0.64,1.17c0,0,0,0-0.02,0
				c-0.2,0.13-0.46,0.22-0.71,0.22c-0.47,0-0.87-0.24-1.11-0.6C82.44,101.59,82.35,101.31,82.35,101.02z M83.9,105.39l3.46,5.98
				h-6.89L83.9,105.39z M104.2,92.6c-3.32-8.05-11.24-13.72-20.48-13.72c-9.26,0-17.18,5.67-20.5,13.72
				c-0.73,1.79-1.24,3.7-1.46,5.69c-0.15,0.89-0.18,1.8-0.18,2.73c0,12.23,9.91,22.14,22.14,22.14c10.41,0,19.13-7.18,21.52-16.86
				v-0.02c0.4-1.69,0.62-3.44,0.62-5.27C105.86,98.03,105.25,95.19,104.2,92.6z M83.72,118.84c-9.84,0-17.82-7.98-17.82-17.82
				c0-0.84,0.07-1.68,0.18-2.48c0.29-2.13,0.97-4.12,1.93-5.94c3.02-5.59,8.91-9.4,15.71-9.4c6.8,0,12.7,3.81,15.71,9.4
				c1.35,2.5,2.11,5.38,2.11,8.42c0,1.53-0.2,3.01-0.55,4.43C99.02,113.14,92.04,118.84,83.72,118.84z M83.72,85.15
				c-5.69,0-10.66,2.97-13.47,7.45c-1.18,1.86-1.99,4.01-2.28,6.32c-0.09,0.69-0.15,1.38-0.15,2.1c0,8.77,7.13,15.87,15.89,15.87
				c7.36,0,13.56-5.01,15.36-11.83c0.33-1.29,0.51-2.66,0.51-4.05c0-3.1-0.87-5.98-2.41-8.42C94.36,88.12,89.4,85.15,83.72,85.15z
				 M93.26,103.92l-0.67,2.86l-3.99-3.77h-0.02l-1.02-0.97l6.61-1.99L93.26,103.92z M73.62,100.04l-0.07-0.44l2.37,0.89h0.02
				l4.06,1.55l-5.34,4.37L73.62,100.04z M78.36,92.44l0.05,0.16l2.33,6.32l-6.8-1.18l4.26-5.14L78.36,92.44z M84.97,90.89l3.43,1.71
				l2.75,1.37l-5.76,3.81l-0.33-5.18L84.97,90.89z M82.35,101.02c0-0.75,0.6-1.37,1.37-1.37c0.77,0,1.37,0.62,1.37,1.37
				c0,0.49-0.24,0.91-0.64,1.17c0,0,0,0-0.02,0c-0.2,0.13-0.46,0.22-0.71,0.22c-0.47,0-0.87-0.24-1.11-0.6
				C82.44,101.59,82.35,101.31,82.35,101.02z M83.9,105.39l3.46,5.98h-6.89L83.9,105.39z M97.18,92.6
				c-2.82-4.48-7.78-7.45-13.47-7.45s-10.66,2.97-13.47,7.45c-1.18,1.86-1.99,4.01-2.28,6.32c-0.09,0.69-0.15,1.38-0.15,2.1
				c0,8.77,7.13,15.87,15.89,15.87c7.36,0,13.56-5.01,15.36-11.83c0.33-1.29,0.51-2.66,0.51-4.05
				C99.59,97.92,98.71,95.04,97.18,92.6z M93.26,103.92l-0.67,2.86l-3.99-3.77h-0.02l-1.02-0.97l6.61-1.99L93.26,103.92z
				 M73.62,100.04l-0.07-0.44l2.37,0.89h0.02l4.06,1.55l-5.34,4.37L73.62,100.04z M78.36,92.44l0.05,0.16l2.33,6.32l-6.8-1.18
				l4.26-5.14L78.36,92.44z M84.97,90.89l3.43,1.71l2.75,1.37l-5.76,3.81l-0.33-5.18L84.97,90.89z M82.35,101.02
				c0-0.75,0.6-1.37,1.37-1.37c0.77,0,1.37,0.62,1.37,1.37c0,0.49-0.24,0.91-0.64,1.17c0,0,0,0-0.02,0
				c-0.2,0.13-0.46,0.22-0.71,0.22c-0.47,0-0.87-0.24-1.11-0.6C82.44,101.59,82.35,101.31,82.35,101.02z M83.9,105.39l3.46,5.98
				h-6.89L83.9,105.39z M97.18,92.6c-2.82-4.48-7.78-7.45-13.47-7.45s-10.66,2.97-13.47,7.45c-1.18,1.86-1.99,4.01-2.28,6.32
				c-0.09,0.69-0.15,1.38-0.15,2.1c0,8.77,7.13,15.87,15.89,15.87c7.36,0,13.56-5.01,15.36-11.83c0.33-1.29,0.51-2.66,0.51-4.05
				C99.59,97.92,98.71,95.04,97.18,92.6z M93.26,103.92l-0.67,2.86l-3.99-3.77h-0.02l-1.02-0.97l6.61-1.99L93.26,103.92z
				 M73.62,100.04l-0.07-0.44l2.37,0.89h0.02l4.06,1.55l-5.34,4.37L73.62,100.04z M78.36,92.44l0.05,0.16l2.33,6.32l-6.8-1.18
				l4.26-5.14L78.36,92.44z M84.97,90.89l3.43,1.71l2.75,1.37l-5.76,3.81l-0.33-5.18L84.97,90.89z M82.35,101.02
				c0-0.75,0.6-1.37,1.37-1.37c0.77,0,1.37,0.62,1.37,1.37c0,0.49-0.24,0.91-0.64,1.17c0,0,0,0-0.02,0
				c-0.2,0.13-0.46,0.22-0.71,0.22c-0.47,0-0.87-0.24-1.11-0.6C82.44,101.59,82.35,101.31,82.35,101.02z M83.9,105.39l3.46,5.98
				h-6.89L83.9,105.39z M97.18,92.6c-2.82-4.48-7.78-7.45-13.47-7.45s-10.66,2.97-13.47,7.45c-1.18,1.86-1.99,4.01-2.28,6.32
				c-0.09,0.69-0.15,1.38-0.15,2.1c0,8.77,7.13,15.87,15.89,15.87c7.36,0,13.56-5.01,15.36-11.83c0.33-1.29,0.51-2.66,0.51-4.05
				C99.59,97.92,98.71,95.04,97.18,92.6z M93.26,103.92l-0.67,2.86l-3.99-3.77h-0.02l-1.02-0.97l6.61-1.99L93.26,103.92z
				 M73.62,100.04l-0.07-0.44l2.37,0.89h0.02l4.06,1.55l-5.34,4.37L73.62,100.04z M78.36,92.44l0.05,0.16l2.33,6.32l-6.8-1.18
				l4.26-5.14L78.36,92.44z M84.97,90.89l3.43,1.71l2.75,1.37l-5.76,3.81l-0.33-5.18L84.97,90.89z M82.35,101.02
				c0-0.75,0.6-1.37,1.37-1.37c0.77,0,1.37,0.62,1.37,1.37c0,0.49-0.24,0.91-0.64,1.17c0,0,0,0-0.02,0
				c-0.2,0.13-0.46,0.22-0.71,0.22c-0.47,0-0.87-0.24-1.11-0.6C82.44,101.59,82.35,101.31,82.35,101.02z M83.9,105.39l3.46,5.98
				h-6.89L83.9,105.39z M97.18,92.6c-2.82-4.48-7.78-7.45-13.47-7.45s-10.66,2.97-13.47,7.45c-1.18,1.86-1.99,4.01-2.28,6.32
				c-0.09,0.69-0.15,1.38-0.15,2.1c0,8.77,7.13,15.87,15.89,15.87c7.36,0,13.56-5.01,15.36-11.83c0.33-1.29,0.51-2.66,0.51-4.05
				C99.59,97.92,98.71,95.04,97.18,92.6z M93.26,103.92l-0.67,2.86l-3.99-3.77h-0.02l-1.02-0.97l6.61-1.99L93.26,103.92z
				 M73.62,100.04l-0.07-0.44l2.37,0.89h0.02l4.06,1.55l-5.34,4.37L73.62,100.04z M78.36,92.44l0.05,0.16l2.33,6.32l-6.8-1.18
				l4.26-5.14L78.36,92.44z M84.97,90.89l3.43,1.71l2.75,1.37l-5.76,3.81l-0.33-5.18L84.97,90.89z M82.35,101.02
				c0-0.75,0.6-1.37,1.37-1.37c0.77,0,1.37,0.62,1.37,1.37c0,0.49-0.24,0.91-0.64,1.17c0,0,0,0-0.02,0
				c-0.2,0.13-0.46,0.22-0.71,0.22c-0.47,0-0.87-0.24-1.11-0.6C82.44,101.59,82.35,101.31,82.35,101.02z M83.9,105.39l3.46,5.98
				h-6.89L83.9,105.39z M97.18,92.6c-2.82-4.48-7.78-7.45-13.47-7.45s-10.66,2.97-13.47,7.45c-1.18,1.86-1.99,4.01-2.28,6.32
				c-0.09,0.69-0.15,1.38-0.15,2.1c0,8.77,7.13,15.87,15.89,15.87c7.36,0,13.56-5.01,15.36-11.83c0.33-1.29,0.51-2.66,0.51-4.05
				C99.59,97.92,98.71,95.04,97.18,92.6z M93.26,103.92l-0.67,2.86l-3.99-3.77h-0.02l-1.02-0.97l6.61-1.99L93.26,103.92z
				 M73.62,100.04l-0.07-0.44l2.37,0.89h0.02l4.06,1.55l-5.34,4.37L73.62,100.04z M78.36,92.44l0.05,0.16l2.33,6.32l-6.8-1.18
				l4.26-5.14L78.36,92.44z M84.97,90.89l3.43,1.71l2.75,1.37l-5.76,3.81l-0.33-5.18L84.97,90.89z M82.35,101.02
				c0-0.75,0.6-1.37,1.37-1.37c0.77,0,1.37,0.62,1.37,1.37c0,0.49-0.24,0.91-0.64,1.17c0,0,0,0-0.02,0
				c-0.2,0.13-0.46,0.22-0.71,0.22c-0.47,0-0.87-0.24-1.11-0.6C82.44,101.59,82.35,101.31,82.35,101.02z M83.9,105.39l3.46,5.98
				h-6.89L83.9,105.39z M97.18,92.6c-2.82-4.48-7.78-7.45-13.47-7.45s-10.66,2.97-13.47,7.45c-1.18,1.86-1.99,4.01-2.28,6.32
				c-0.09,0.69-0.15,1.38-0.15,2.1c0,8.77,7.13,15.87,15.89,15.87c7.36,0,13.56-5.01,15.36-11.83c0.33-1.29,0.51-2.66,0.51-4.05
				C99.59,97.92,98.71,95.04,97.18,92.6z M93.26,103.92l-0.67,2.86l-3.99-3.77h-0.02l-1.02-0.97l6.61-1.99L93.26,103.92z
				 M73.62,100.04l-0.07-0.44l2.37,0.89h0.02l4.06,1.55l-5.34,4.37L73.62,100.04z M78.36,92.44l0.05,0.16l2.33,6.32l-6.8-1.18
				l4.26-5.14L78.36,92.44z M84.97,90.89l3.43,1.71l2.75,1.37l-5.76,3.81l-0.33-5.18L84.97,90.89z M82.35,101.02
				c0-0.75,0.6-1.37,1.37-1.37c0.77,0,1.37,0.62,1.37,1.37c0,0.49-0.24,0.91-0.64,1.17c0,0,0,0-0.02,0
				c-0.2,0.13-0.46,0.22-0.71,0.22c-0.47,0-0.87-0.24-1.11-0.6C82.44,101.59,82.35,101.31,82.35,101.02z M83.9,105.39l3.46,5.98
				h-6.89L83.9,105.39z M97.18,92.6c-2.82-4.48-7.78-7.45-13.47-7.45s-10.66,2.97-13.47,7.45c-1.18,1.86-1.99,4.01-2.28,6.32
				c-0.09,0.69-0.15,1.38-0.15,2.1c0,8.77,7.13,15.87,15.89,15.87c7.36,0,13.56-5.01,15.36-11.83c0.33-1.29,0.51-2.66,0.51-4.05
				C99.59,97.92,98.71,95.04,97.18,92.6z M93.26,103.92l-0.67,2.86l-3.99-3.77h-0.02l-1.02-0.97l6.61-1.99L93.26,103.92z
				 M73.62,100.04l-0.07-0.44l2.37,0.89h0.02l4.06,1.55l-5.34,4.37L73.62,100.04z M78.36,92.44l0.05,0.16l2.33,6.32l-6.8-1.18
				l4.26-5.14L78.36,92.44z M84.97,90.89l3.43,1.71l2.75,1.37l-5.76,3.81l-0.33-5.18L84.97,90.89z M82.35,101.02
				c0-0.75,0.6-1.37,1.37-1.37c0.77,0,1.37,0.62,1.37,1.37c0,0.49-0.24,0.91-0.64,1.17c0,0,0,0-0.02,0
				c-0.2,0.13-0.46,0.22-0.71,0.22c-0.47,0-0.87-0.24-1.11-0.6C82.44,101.59,82.35,101.31,82.35,101.02z M83.9,105.39l3.46,5.98
				h-6.89L83.9,105.39z M97.18,92.6c-2.82-4.48-7.78-7.45-13.47-7.45s-10.66,2.97-13.47,7.45c-1.18,1.86-1.99,4.01-2.28,6.32
				c-0.09,0.69-0.15,1.38-0.15,2.1c0,8.77,7.13,15.87,15.89,15.87c7.36,0,13.56-5.01,15.36-11.83c0.33-1.29,0.51-2.66,0.51-4.05
				C99.59,97.92,98.71,95.04,97.18,92.6z M93.26,103.92l-0.67,2.86l-3.99-3.77h-0.02l-1.02-0.97l6.61-1.99L93.26,103.92z
				 M73.62,100.04l-0.07-0.44l2.37,0.89h0.02l4.06,1.55l-5.34,4.37L73.62,100.04z M78.36,92.44l0.05,0.16l2.33,6.32l-6.8-1.18
				l4.26-5.14L78.36,92.44z M84.97,90.89l3.43,1.71l2.75,1.37l-5.76,3.81l-0.33-5.18L84.97,90.89z M82.35,101.02
				c0-0.75,0.6-1.37,1.37-1.37c0.77,0,1.37,0.62,1.37,1.37c0,0.49-0.24,0.91-0.64,1.17c0,0,0,0-0.02,0
				c-0.2,0.13-0.46,0.22-0.71,0.22c-0.47,0-0.87-0.24-1.11-0.6C82.44,101.59,82.35,101.31,82.35,101.02z M83.9,105.39l3.46,5.98
				h-6.89L83.9,105.39z M97.18,92.6c-2.82-4.48-7.78-7.45-13.47-7.45s-10.66,2.97-13.47,7.45c-1.18,1.86-1.99,4.01-2.28,6.32
				c-0.09,0.69-0.15,1.38-0.15,2.1c0,8.77,7.13,15.87,15.89,15.87c7.36,0,13.56-5.01,15.36-11.83c0.33-1.29,0.51-2.66,0.51-4.05
				C99.59,97.92,98.71,95.04,97.18,92.6z M93.26,103.92l-0.67,2.86l-3.99-3.77h-0.02l-1.02-0.97l6.61-1.99L93.26,103.92z
				 M73.62,100.04l-0.07-0.44l2.37,0.89h0.02l4.06,1.55l-5.34,4.37L73.62,100.04z M78.36,92.44l0.05,0.16l2.33,6.32l-6.8-1.18
				l4.26-5.14L78.36,92.44z M84.97,90.89l3.43,1.71l2.75,1.37l-5.76,3.81l-0.33-5.18L84.97,90.89z M82.35,101.02
				c0-0.75,0.6-1.37,1.37-1.37c0.77,0,1.37,0.62,1.37,1.37c0,0.49-0.24,0.91-0.64,1.17c0,0,0,0-0.02,0
				c-0.2,0.13-0.46,0.22-0.71,0.22c-0.47,0-0.87-0.24-1.11-0.6C82.44,101.59,82.35,101.31,82.35,101.02z M83.9,105.39l3.46,5.98
				h-6.89L83.9,105.39z M97.18,92.6c-2.82-4.48-7.78-7.45-13.47-7.45s-10.66,2.97-13.47,7.45c-1.18,1.86-1.99,4.01-2.28,6.32
				c-0.09,0.69-0.15,1.38-0.15,2.1c0,8.77,7.13,15.87,15.89,15.87c7.36,0,13.56-5.01,15.36-11.83c0.33-1.29,0.51-2.66,0.51-4.05
				C99.59,97.92,98.71,95.04,97.18,92.6z M93.26,103.92l-0.67,2.86l-3.99-3.77h-0.02l-1.02-0.97l6.61-1.99L93.26,103.92z
				 M73.62,100.04l-0.07-0.44l2.37,0.89h0.02l4.06,1.55l-5.34,4.37L73.62,100.04z M78.36,92.44l0.05,0.16l2.33,6.32l-6.8-1.18
				l4.26-5.14L78.36,92.44z M84.97,90.89l3.43,1.71l2.75,1.37l-5.76,3.81l-0.33-5.18L84.97,90.89z M82.35,101.02
				c0-0.75,0.6-1.37,1.37-1.37c0.77,0,1.37,0.62,1.37,1.37c0,0.49-0.24,0.91-0.64,1.17c0,0,0,0-0.02,0
				c-0.2,0.13-0.46,0.22-0.71,0.22c-0.47,0-0.87-0.24-1.11-0.6C82.44,101.59,82.35,101.31,82.35,101.02z M83.9,105.39l3.46,5.98
				h-6.89L83.9,105.39z M97.18,92.6c-2.82-4.48-7.78-7.45-13.47-7.45s-10.66,2.97-13.47,7.45c-1.18,1.86-1.99,4.01-2.28,6.32
				c-0.09,0.69-0.15,1.38-0.15,2.1c0,8.77,7.13,15.87,15.89,15.87c7.36,0,13.56-5.01,15.36-11.83c0.33-1.29,0.51-2.66,0.51-4.05
				C99.59,97.92,98.71,95.04,97.18,92.6z M93.26,103.92l-0.67,2.86l-3.99-3.77h-0.02l-1.02-0.97l6.61-1.99L93.26,103.92z
				 M73.62,100.04l-0.07-0.44l2.37,0.89h0.02l4.06,1.55l-5.34,4.37L73.62,100.04z M78.36,92.44l0.05,0.16l2.33,6.32l-6.8-1.18
				l4.26-5.14L78.36,92.44z M84.97,90.89l3.43,1.71l2.75,1.37l-5.76,3.81l-0.33-5.18L84.97,90.89z M82.35,101.02
				c0-0.75,0.6-1.37,1.37-1.37c0.77,0,1.37,0.62,1.37,1.37c0,0.49-0.24,0.91-0.64,1.17c0,0,0,0-0.02,0
				c-0.2,0.13-0.46,0.22-0.71,0.22c-0.47,0-0.87-0.24-1.11-0.6C82.44,101.59,82.35,101.31,82.35,101.02z M83.9,105.39l3.46,5.98
				h-6.89L83.9,105.39z M97.18,92.6c-2.82-4.48-7.78-7.45-13.47-7.45s-10.66,2.97-13.47,7.45c-1.18,1.86-1.99,4.01-2.28,6.32
				c-0.09,0.69-0.15,1.38-0.15,2.1c0,8.77,7.13,15.87,15.89,15.87c7.36,0,13.56-5.01,15.36-11.83c0.33-1.29,0.51-2.66,0.51-4.05
				C99.59,97.92,98.71,95.04,97.18,92.6z M93.26,103.92l-0.67,2.86l-3.99-3.77h-0.02l-1.02-0.97l6.61-1.99L93.26,103.92z
				 M73.62,100.04l-0.07-0.44l2.37,0.89h0.02l4.06,1.55l-5.34,4.37L73.62,100.04z M78.36,92.44l0.05,0.16l2.33,6.32l-6.8-1.18
				l4.26-5.14L78.36,92.44z M84.97,90.89l3.43,1.71l2.75,1.37l-5.76,3.81l-0.33-5.18L84.97,90.89z M82.35,101.02
				c0-0.75,0.6-1.37,1.37-1.37c0.77,0,1.37,0.62,1.37,1.37c0,0.49-0.24,0.91-0.64,1.17c0,0,0,0-0.02,0
				c-0.2,0.13-0.46,0.22-0.71,0.22c-0.47,0-0.87-0.24-1.11-0.6C82.44,101.59,82.35,101.31,82.35,101.02z M83.9,105.39l3.46,5.98
				h-6.89L83.9,105.39z M97.18,92.6c-2.82-4.48-7.78-7.45-13.47-7.45s-10.66,2.97-13.47,7.45c-1.18,1.86-1.99,4.01-2.28,6.32
				c-0.09,0.69-0.15,1.38-0.15,2.1c0,8.77,7.13,15.87,15.89,15.87c7.36,0,13.56-5.01,15.36-11.83c0.33-1.29,0.51-2.66,0.51-4.05
				C99.59,97.92,98.71,95.04,97.18,92.6z M93.26,103.92l-0.67,2.86l-3.99-3.77h-0.02l-1.02-0.97l6.61-1.99L93.26,103.92z
				 M73.62,100.04l-0.07-0.44l2.37,0.89h0.02l4.06,1.55l-5.34,4.37L73.62,100.04z M78.36,92.44l0.05,0.16l2.33,6.32l-6.8-1.18
				l4.26-5.14L78.36,92.44z M84.97,90.89l3.43,1.71l2.75,1.37l-5.76,3.81l-0.33-5.18L84.97,90.89z M82.35,101.02
				c0-0.75,0.6-1.37,1.37-1.37c0.77,0,1.37,0.62,1.37,1.37c0,0.49-0.24,0.91-0.64,1.17c0,0,0,0-0.02,0
				c-0.2,0.13-0.46,0.22-0.71,0.22c-0.47,0-0.87-0.24-1.11-0.6C82.44,101.59,82.35,101.31,82.35,101.02z M83.9,105.39l3.46,5.98
				h-6.89L83.9,105.39z M97.18,92.6c-2.82-4.48-7.78-7.45-13.47-7.45s-10.66,2.97-13.47,7.45c-1.18,1.86-1.99,4.01-2.28,6.32
				c-0.09,0.69-0.15,1.38-0.15,2.1c0,8.77,7.13,15.87,15.89,15.87c7.36,0,13.56-5.01,15.36-11.83c0.33-1.29,0.51-2.66,0.51-4.05
				C99.59,97.92,98.71,95.04,97.18,92.6z M93.26,103.92l-0.67,2.86l-3.99-3.77h-0.02l-1.02-0.97l6.61-1.99L93.26,103.92z
				 M73.62,100.04l-0.07-0.44l2.37,0.89h0.02l4.06,1.55l-5.34,4.37L73.62,100.04z M78.36,92.44l0.05,0.16l2.33,6.32l-6.8-1.18
				l4.26-5.14L78.36,92.44z M84.97,90.89l3.43,1.71l2.75,1.37l-5.76,3.81l-0.33-5.18L84.97,90.89z M82.35,101.02
				c0-0.75,0.6-1.37,1.37-1.37c0.77,0,1.37,0.62,1.37,1.37c0,0.49-0.24,0.91-0.64,1.17c0,0,0,0-0.02,0
				c-0.2,0.13-0.46,0.22-0.71,0.22c-0.47,0-0.87-0.24-1.11-0.6C82.44,101.59,82.35,101.31,82.35,101.02z M83.9,105.39l3.46,5.98
				h-6.89L83.9,105.39z M97.18,92.6c-2.82-4.48-7.78-7.45-13.47-7.45s-10.66,2.97-13.47,7.45c-1.18,1.86-1.99,4.01-2.28,6.32
				c-0.09,0.69-0.15,1.38-0.15,2.1c0,8.77,7.13,15.87,15.89,15.87c7.36,0,13.56-5.01,15.36-11.83c0.33-1.29,0.51-2.66,0.51-4.05
				C99.59,97.92,98.71,95.04,97.18,92.6z M93.26,103.92l-0.67,2.86l-3.99-3.77h-0.02l-1.02-0.97l6.61-1.99L93.26,103.92z
				 M73.62,100.04l-0.07-0.44l2.37,0.89h0.02l4.06,1.55l-5.34,4.37L73.62,100.04z M78.36,92.44l0.05,0.16l2.33,6.32l-6.8-1.18
				l4.26-5.14L78.36,92.44z M84.97,90.89l3.43,1.71l2.75,1.37l-5.76,3.81l-0.33-5.18L84.97,90.89z M82.35,101.02
				c0-0.75,0.6-1.37,1.37-1.37c0.77,0,1.37,0.62,1.37,1.37c0,0.49-0.24,0.91-0.64,1.17c0,0,0,0-0.02,0
				c-0.2,0.13-0.46,0.22-0.71,0.22c-0.47,0-0.87-0.24-1.11-0.6C82.44,101.59,82.35,101.31,82.35,101.02z M83.9,105.39l3.46,5.98
				h-6.89L83.9,105.39z M97.18,92.6c-2.82-4.48-7.78-7.45-13.47-7.45s-10.66,2.97-13.47,7.45c-1.18,1.86-1.99,4.01-2.28,6.32
				c-0.09,0.69-0.15,1.38-0.15,2.1c0,8.77,7.13,15.87,15.89,15.87c7.36,0,13.56-5.01,15.36-11.83c0.33-1.29,0.51-2.66,0.51-4.05
				C99.59,97.92,98.71,95.04,97.18,92.6z M93.26,103.92l-0.67,2.86l-3.99-3.77h-0.02l-1.02-0.97l6.61-1.99L93.26,103.92z
				 M73.62,100.04l-0.07-0.44l2.37,0.89h0.02l4.06,1.55l-5.34,4.37L73.62,100.04z M78.36,92.44l0.05,0.16l2.33,6.32l-6.8-1.18
				l4.26-5.14L78.36,92.44z M84.97,90.89l3.43,1.71l2.75,1.37l-5.76,3.81l-0.33-5.18L84.97,90.89z M82.35,101.02
				c0-0.75,0.6-1.37,1.37-1.37c0.77,0,1.37,0.62,1.37,1.37c0,0.49-0.24,0.91-0.64,1.17c0,0,0,0-0.02,0
				c-0.2,0.13-0.46,0.22-0.71,0.22c-0.47,0-0.87-0.24-1.11-0.6C82.44,101.59,82.35,101.31,82.35,101.02z M83.9,105.39l3.46,5.98
				h-6.89L83.9,105.39z M97.18,92.6c-2.82-4.48-7.78-7.45-13.47-7.45s-10.66,2.97-13.47,7.45c-1.18,1.86-1.99,4.01-2.28,6.32
				c-0.09,0.69-0.15,1.38-0.15,2.1c0,8.77,7.13,15.87,15.89,15.87c7.36,0,13.56-5.01,15.36-11.83c0.33-1.29,0.51-2.66,0.51-4.05
				C99.59,97.92,98.71,95.04,97.18,92.6z M93.26,103.92l-0.67,2.86l-3.99-3.77h-0.02l-1.02-0.97l6.61-1.99L93.26,103.92z
				 M73.62,100.04l-0.07-0.44l2.37,0.89h0.02l4.06,1.55l-5.34,4.37L73.62,100.04z M78.36,92.44l0.05,0.16l2.33,6.32l-6.8-1.18
				l4.26-5.14L78.36,92.44z M84.97,90.89l3.43,1.71l2.75,1.37l-5.76,3.81l-0.33-5.18L84.97,90.89z M82.35,101.02
				c0-0.75,0.6-1.37,1.37-1.37c0.77,0,1.37,0.62,1.37,1.37c0,0.49-0.24,0.91-0.64,1.17c0,0,0,0-0.02,0
				c-0.2,0.13-0.46,0.22-0.71,0.22c-0.47,0-0.87-0.24-1.11-0.6C82.44,101.59,82.35,101.31,82.35,101.02z M83.9,105.39l3.46,5.98
				h-6.89L83.9,105.39z M97.18,92.6c-2.82-4.48-7.78-7.45-13.47-7.45s-10.66,2.97-13.47,7.45c-1.18,1.86-1.99,4.01-2.28,6.32
				c-0.09,0.69-0.15,1.38-0.15,2.1c0,8.77,7.13,15.87,15.89,15.87c7.36,0,13.56-5.01,15.36-11.83c0.33-1.29,0.51-2.66,0.51-4.05
				C99.59,97.92,98.71,95.04,97.18,92.6z M93.26,103.92l-0.67,2.86l-3.99-3.77h-0.02l-1.02-0.97l6.61-1.99L93.26,103.92z
				 M73.62,100.04l-0.07-0.44l2.37,0.89h0.02l4.06,1.55l-5.34,4.37L73.62,100.04z M78.36,92.44l0.05,0.16l2.33,6.32l-6.8-1.18
				l4.26-5.14L78.36,92.44z M84.97,90.89l3.43,1.71l2.75,1.37l-5.76,3.81l-0.33-5.18L84.97,90.89z M82.35,101.02
				c0-0.75,0.6-1.37,1.37-1.37c0.77,0,1.37,0.62,1.37,1.37c0,0.49-0.24,0.91-0.64,1.17c0,0,0,0-0.02,0
				c-0.2,0.13-0.46,0.22-0.71,0.22c-0.47,0-0.87-0.24-1.11-0.6C82.44,101.59,82.35,101.31,82.35,101.02z M83.9,105.39l3.46,5.98
				h-6.89L83.9,105.39z M97.18,92.6c-2.82-4.48-7.78-7.45-13.47-7.45s-10.66,2.97-13.47,7.45c-1.18,1.86-1.99,4.01-2.28,6.32
				c-0.09,0.69-0.15,1.38-0.15,2.1c0,8.77,7.13,15.87,15.89,15.87c7.36,0,13.56-5.01,15.36-11.83c0.33-1.29,0.51-2.66,0.51-4.05
				C99.59,97.92,98.71,95.04,97.18,92.6z M93.26,103.92l-0.67,2.86l-3.99-3.77h-0.02l-1.02-0.97l6.61-1.99L93.26,103.92z
				 M73.62,100.04l-0.07-0.44l2.37,0.89h0.02l4.06,1.55l-5.34,4.37L73.62,100.04z M78.36,92.44l0.05,0.16l2.33,6.32l-6.8-1.18
				l4.26-5.14L78.36,92.44z M84.97,90.89l3.43,1.71l2.75,1.37l-5.76,3.81l-0.33-5.18L84.97,90.89z M82.35,101.02
				c0-0.75,0.6-1.37,1.37-1.37c0.77,0,1.37,0.62,1.37,1.37c0,0.49-0.24,0.91-0.64,1.17c0,0,0,0-0.02,0
				c-0.2,0.13-0.46,0.22-0.71,0.22c-0.47,0-0.87-0.24-1.11-0.6C82.44,101.59,82.35,101.31,82.35,101.02z M83.9,105.39l3.46,5.98
				h-6.89L83.9,105.39z M97.18,92.6c-2.82-4.48-7.78-7.45-13.47-7.45s-10.66,2.97-13.47,7.45c-1.18,1.86-1.99,4.01-2.28,6.32
				c-0.09,0.69-0.15,1.38-0.15,2.1c0,8.77,7.13,15.87,15.89,15.87c7.36,0,13.56-5.01,15.36-11.83c0.33-1.29,0.51-2.66,0.51-4.05
				C99.59,97.92,98.71,95.04,97.18,92.6z M93.26,103.92l-0.67,2.86l-3.99-3.77h-0.02l-1.02-0.97l6.61-1.99L93.26,103.92z
				 M73.62,100.04l-0.07-0.44l2.37,0.89h0.02l4.06,1.55l-5.34,4.37L73.62,100.04z M78.36,92.44l0.05,0.16l2.33,6.32l-6.8-1.18
				l4.26-5.14L78.36,92.44z M84.97,90.89l3.43,1.71l2.75,1.37l-5.76,3.81l-0.33-5.18L84.97,90.89z M82.35,101.02
				c0-0.75,0.6-1.37,1.37-1.37c0.77,0,1.37,0.62,1.37,1.37c0,0.49-0.24,0.91-0.64,1.17c0,0,0,0-0.02,0
				c-0.2,0.13-0.46,0.22-0.71,0.22c-0.47,0-0.87-0.24-1.11-0.6C82.44,101.59,82.35,101.31,82.35,101.02z M83.9,105.39l3.46,5.98
				h-6.89L83.9,105.39z M97.18,92.6c-2.82-4.48-7.78-7.45-13.47-7.45s-10.66,2.97-13.47,7.45c-1.18,1.86-1.99,4.01-2.28,6.32
				c-0.09,0.69-0.15,1.38-0.15,2.1c0,8.77,7.13,15.87,15.89,15.87c7.36,0,13.56-5.01,15.36-11.83c0.33-1.29,0.51-2.66,0.51-4.05
				C99.59,97.92,98.71,95.04,97.18,92.6z M93.26,103.92l-0.67,2.86l-3.99-3.77h-0.02l-1.02-0.97l6.61-1.99L93.26,103.92z
				 M73.62,100.04l-0.07-0.44l2.37,0.89h0.02l4.06,1.55l-5.34,4.37L73.62,100.04z M78.36,92.44l0.05,0.16l2.33,6.32l-6.8-1.18
				l4.26-5.14L78.36,92.44z M84.97,90.89l3.43,1.71l2.75,1.37l-5.76,3.81l-0.33-5.18L84.97,90.89z M82.35,101.02
				c0-0.75,0.6-1.37,1.37-1.37c0.77,0,1.37,0.62,1.37,1.37c0,0.49-0.24,0.91-0.64,1.17c0,0,0,0-0.02,0
				c-0.2,0.13-0.46,0.22-0.71,0.22c-0.47,0-0.87-0.24-1.11-0.6C82.44,101.59,82.35,101.31,82.35,101.02z M83.9,105.39l3.46,5.98
				h-6.89L83.9,105.39z M97.18,92.6c-2.82-4.48-7.78-7.45-13.47-7.45s-10.66,2.97-13.47,7.45c-1.18,1.86-1.99,4.01-2.28,6.32
				c-0.09,0.69-0.15,1.38-0.15,2.1c0,8.77,7.13,15.87,15.89,15.87c7.36,0,13.56-5.01,15.36-11.83c0.33-1.29,0.51-2.66,0.51-4.05
				C99.59,97.92,98.71,95.04,97.18,92.6z M93.26,103.92l-0.67,2.86l-3.99-3.77h-0.02l-1.02-0.97l6.61-1.99L93.26,103.92z
				 M73.62,100.04l-0.07-0.44l2.37,0.89h0.02l4.06,1.55l-5.34,4.37L73.62,100.04z M78.36,92.44l0.05,0.16l2.33,6.32l-6.8-1.18
				l4.26-5.14L78.36,92.44z M84.97,90.89l3.43,1.71l2.75,1.37l-5.76,3.81l-0.33-5.18L84.97,90.89z M82.35,101.02
				c0-0.75,0.6-1.37,1.37-1.37c0.77,0,1.37,0.62,1.37,1.37c0,0.49-0.24,0.91-0.64,1.17c0,0,0,0-0.02,0
				c-0.2,0.13-0.46,0.22-0.71,0.22c-0.47,0-0.87-0.24-1.11-0.6C82.44,101.59,82.35,101.31,82.35,101.02z M83.9,105.39l3.46,5.98
				h-6.89L83.9,105.39z M97.18,92.6c-2.82-4.48-7.78-7.45-13.47-7.45s-10.66,2.97-13.47,7.45c-1.18,1.86-1.99,4.01-2.28,6.32
				c-0.09,0.69-0.15,1.38-0.15,2.1c0,8.77,7.13,15.87,15.89,15.87c7.36,0,13.56-5.01,15.36-11.83c0.33-1.29,0.51-2.66,0.51-4.05
				C99.59,97.92,98.71,95.04,97.18,92.6z M93.26,103.92l-0.67,2.86l-3.99-3.77h-0.02l-1.02-0.97l6.61-1.99L93.26,103.92z
				 M73.62,100.04l-0.07-0.44l2.37,0.89h0.02l4.06,1.55l-5.34,4.37L73.62,100.04z M78.36,92.44l0.05,0.16l2.33,6.32l-6.8-1.18
				l4.26-5.14L78.36,92.44z M84.97,90.89l3.43,1.71l2.75,1.37l-5.76,3.81l-0.33-5.18L84.97,90.89z M82.35,101.02
				c0-0.75,0.6-1.37,1.37-1.37c0.77,0,1.37,0.62,1.37,1.37c0,0.49-0.24,0.91-0.64,1.17c0,0,0,0-0.02,0
				c-0.2,0.13-0.46,0.22-0.71,0.22c-0.47,0-0.87-0.24-1.11-0.6C82.44,101.59,82.35,101.31,82.35,101.02z M83.9,105.39l3.46,5.98
				h-6.89L83.9,105.39z M97.18,92.6c-2.82-4.48-7.78-7.45-13.47-7.45s-10.66,2.97-13.47,7.45c-1.18,1.86-1.99,4.01-2.28,6.32
				c-0.09,0.69-0.15,1.38-0.15,2.1c0,8.77,7.13,15.87,15.89,15.87c7.36,0,13.56-5.01,15.36-11.83c0.33-1.29,0.51-2.66,0.51-4.05
				C99.59,97.92,98.71,95.04,97.18,92.6z M93.26,103.92l-0.67,2.86l-3.99-3.77h-0.02l-1.02-0.97l6.61-1.99L93.26,103.92z
				 M73.62,100.04l-0.07-0.44l2.37,0.89h0.02l4.06,1.55l-5.34,4.37L73.62,100.04z M78.36,92.44l0.05,0.16l2.33,6.32l-6.8-1.18
				l4.26-5.14L78.36,92.44z M84.97,90.89l3.43,1.71l2.75,1.37l-5.76,3.81l-0.33-5.18L84.97,90.89z M82.35,101.02
				c0-0.75,0.6-1.37,1.37-1.37c0.77,0,1.37,0.62,1.37,1.37c0,0.49-0.24,0.91-0.64,1.17c0,0,0,0-0.02,0
				c-0.2,0.13-0.46,0.22-0.71,0.22c-0.47,0-0.87-0.24-1.11-0.6C82.44,101.59,82.35,101.31,82.35,101.02z M83.9,105.39l3.46,5.98
				h-6.89L83.9,105.39z M97.18,92.6c-2.82-4.48-7.78-7.45-13.47-7.45s-10.66,2.97-13.47,7.45c-1.18,1.86-1.99,4.01-2.28,6.32
				c-0.09,0.69-0.15,1.38-0.15,2.1c0,8.77,7.13,15.87,15.89,15.87c7.36,0,13.56-5.01,15.36-11.83c0.33-1.29,0.51-2.66,0.51-4.05
				C99.59,97.92,98.71,95.04,97.18,92.6z M93.26,103.92l-0.67,2.86l-3.99-3.77h-0.02l-1.02-0.97l6.61-1.99L93.26,103.92z
				 M73.62,100.04l-0.07-0.44l2.37,0.89h0.02l4.06,1.55l-5.34,4.37L73.62,100.04z M78.36,92.44l0.05,0.16l2.33,6.32l-6.8-1.18
				l4.26-5.14L78.36,92.44z M84.97,90.89l3.43,1.71l2.75,1.37l-5.76,3.81l-0.33-5.18L84.97,90.89z M82.35,101.02
				c0-0.75,0.6-1.37,1.37-1.37c0.77,0,1.37,0.62,1.37,1.37c0,0.49-0.24,0.91-0.64,1.17c0,0,0,0-0.02,0
				c-0.2,0.13-0.46,0.22-0.71,0.22c-0.47,0-0.87-0.24-1.11-0.6C82.44,101.59,82.35,101.31,82.35,101.02z M83.9,105.39l3.46,5.98
				h-6.89L83.9,105.39z M97.18,92.6c-2.82-4.48-7.78-7.45-13.47-7.45s-10.66,2.97-13.47,7.45c-1.18,1.86-1.99,4.01-2.28,6.32
				c-0.09,0.69-0.15,1.38-0.15,2.1c0,8.77,7.13,15.87,15.89,15.87c7.36,0,13.56-5.01,15.36-11.83c0.33-1.29,0.51-2.66,0.51-4.05
				C99.59,97.92,98.71,95.04,97.18,92.6z M93.26,103.92l-0.67,2.86l-3.99-3.77h-0.02l-1.02-0.97l6.61-1.99L93.26,103.92z
				 M73.62,100.04l-0.07-0.44l2.37,0.89h0.02l4.06,1.55l-5.34,4.37L73.62,100.04z M78.36,92.44l0.05,0.16l2.33,6.32l-6.8-1.18
				l4.26-5.14L78.36,92.44z M84.97,90.89l3.43,1.71l2.75,1.37l-5.76,3.81l-0.33-5.18L84.97,90.89z M82.35,101.02
				c0-0.75,0.6-1.37,1.37-1.37c0.77,0,1.37,0.62,1.37,1.37c0,0.49-0.24,0.91-0.64,1.17c0,0,0,0-0.02,0
				c-0.2,0.13-0.46,0.22-0.71,0.22c-0.47,0-0.87-0.24-1.11-0.6C82.44,101.59,82.35,101.31,82.35,101.02z M83.9,105.39l3.46,5.98
				h-6.89L83.9,105.39z M97.18,92.6c-2.82-4.48-7.78-7.45-13.47-7.45s-10.66,2.97-13.47,7.45c-1.18,1.86-1.99,4.01-2.28,6.32
				c-0.09,0.69-0.15,1.38-0.15,2.1c0,8.77,7.13,15.87,15.89,15.87c7.36,0,13.56-5.01,15.36-11.83c0.33-1.29,0.51-2.66,0.51-4.05
				C99.59,97.92,98.71,95.04,97.18,92.6z M93.26,103.92l-0.67,2.86l-3.99-3.77h-0.02l-1.02-0.97l6.61-1.99L93.26,103.92z
				 M73.62,100.04l-0.07-0.44l2.37,0.89h0.02l4.06,1.55l-5.34,4.37L73.62,100.04z M78.36,92.44l0.05,0.16l2.33,6.32l-6.8-1.18
				l4.26-5.14L78.36,92.44z M84.97,90.89l3.43,1.71l2.75,1.37l-5.76,3.81l-0.33-5.18L84.97,90.89z M82.35,101.02
				c0-0.75,0.6-1.37,1.37-1.37c0.77,0,1.37,0.62,1.37,1.37c0,0.49-0.24,0.91-0.64,1.17c0,0,0,0-0.02,0
				c-0.2,0.13-0.46,0.22-0.71,0.22c-0.47,0-0.87-0.24-1.11-0.6C82.44,101.59,82.35,101.31,82.35,101.02z M83.9,105.39l3.46,5.98
				h-6.89L83.9,105.39z M97.18,92.6c-2.82-4.48-7.78-7.45-13.47-7.45s-10.66,2.97-13.47,7.45c-1.18,1.86-1.99,4.01-2.28,6.32
				c-0.09,0.69-0.15,1.38-0.15,2.1c0,8.77,7.13,15.87,15.89,15.87c7.36,0,13.56-5.01,15.36-11.83c0.33-1.29,0.51-2.66,0.51-4.05
				C99.59,97.92,98.71,95.04,97.18,92.6z M93.26,103.92l-0.67,2.86l-3.99-3.77h-0.02l-1.02-0.97l6.61-1.99L93.26,103.92z
				 M73.62,100.04l-0.07-0.44l2.37,0.89h0.02l4.06,1.55l-5.34,4.37L73.62,100.04z M78.36,92.44l0.05,0.16l2.33,6.32l-6.8-1.18
				l4.26-5.14L78.36,92.44z M84.97,90.89l3.43,1.71l2.75,1.37l-5.76,3.81l-0.33-5.18L84.97,90.89z M82.35,101.02
				c0-0.75,0.6-1.37,1.37-1.37c0.77,0,1.37,0.62,1.37,1.37c0,0.49-0.24,0.91-0.64,1.17c0,0,0,0-0.02,0
				c-0.2,0.13-0.46,0.22-0.71,0.22c-0.47,0-0.87-0.24-1.11-0.6C82.44,101.59,82.35,101.31,82.35,101.02z M83.9,105.39l3.46,5.98
				h-6.89L83.9,105.39z M97.18,92.6c-2.82-4.48-7.78-7.45-13.47-7.45s-10.66,2.97-13.47,7.45c-1.18,1.86-1.99,4.01-2.28,6.32
				c-0.09,0.69-0.15,1.38-0.15,2.1c0,8.77,7.13,15.87,15.89,15.87c7.36,0,13.56-5.01,15.36-11.83c0.33-1.29,0.51-2.66,0.51-4.05
				C99.59,97.92,98.71,95.04,97.18,92.6z M93.26,103.92l-0.67,2.86l-3.99-3.77h-0.02l-1.02-0.97l6.61-1.99L93.26,103.92z
				 M73.62,100.04l-0.07-0.44l2.37,0.89h0.02l4.06,1.55l-5.34,4.37L73.62,100.04z M78.36,92.44l0.05,0.16l2.33,6.32l-6.8-1.18
				l4.26-5.14L78.36,92.44z M84.97,90.89l3.43,1.71l2.75,1.37l-5.76,3.81l-0.33-5.18L84.97,90.89z M82.35,101.02
				c0-0.75,0.6-1.37,1.37-1.37c0.77,0,1.37,0.62,1.37,1.37c0,0.49-0.24,0.91-0.64,1.17c0,0,0,0-0.02,0
				c-0.2,0.13-0.46,0.22-0.71,0.22c-0.47,0-0.87-0.24-1.11-0.6C82.44,101.59,82.35,101.31,82.35,101.02z M83.9,105.39l3.46,5.98
				h-6.89L83.9,105.39z M97.18,92.6c-2.82-4.48-7.78-7.45-13.47-7.45s-10.66,2.97-13.47,7.45c-1.18,1.86-1.99,4.01-2.28,6.32
				c-0.09,0.69-0.15,1.38-0.15,2.1c0,8.77,7.13,15.87,15.89,15.87c7.36,0,13.56-5.01,15.36-11.83c0.33-1.29,0.51-2.66,0.51-4.05
				C99.59,97.92,98.71,95.04,97.18,92.6z M93.26,103.92l-0.67,2.86l-3.99-3.77h-0.02l-1.02-0.97l6.61-1.99L93.26,103.92z
				 M73.62,100.04l-0.07-0.44l2.37,0.89h0.02l4.06,1.55l-5.34,4.37L73.62,100.04z M78.36,92.44l0.05,0.16l2.33,6.32l-6.8-1.18
				l4.26-5.14L78.36,92.44z M84.97,90.89l3.43,1.71l2.75,1.37l-5.76,3.81l-0.33-5.18L84.97,90.89z M82.35,101.02
				c0-0.75,0.6-1.37,1.37-1.37c0.77,0,1.37,0.62,1.37,1.37c0,0.49-0.24,0.91-0.64,1.17c0,0,0,0-0.02,0
				c-0.2,0.13-0.46,0.22-0.71,0.22c-0.47,0-0.87-0.24-1.11-0.6C82.44,101.59,82.35,101.31,82.35,101.02z M83.9,105.39l3.46,5.98
				h-6.89L83.9,105.39z M97.18,92.6c-2.82-4.48-7.78-7.45-13.47-7.45s-10.66,2.97-13.47,7.45c-1.18,1.86-1.99,4.01-2.28,6.32
				c-0.09,0.69-0.15,1.38-0.15,2.1c0,8.77,7.13,15.87,15.89,15.87c7.36,0,13.56-5.01,15.36-11.83c0.33-1.29,0.51-2.66,0.51-4.05
				C99.59,97.92,98.71,95.04,97.18,92.6z M93.26,103.92l-0.67,2.86l-3.99-3.77h-0.02l-1.02-0.97l6.61-1.99L93.26,103.92z
				 M73.62,100.04l-0.07-0.44l2.37,0.89h0.02l4.06,1.55l-5.34,4.37L73.62,100.04z M78.36,92.44l0.05,0.16l2.33,6.32l-6.8-1.18
				l4.26-5.14L78.36,92.44z M84.97,90.89l3.43,1.71l2.75,1.37l-5.76,3.81l-0.33-5.18L84.97,90.89z M82.35,101.02
				c0-0.75,0.6-1.37,1.37-1.37c0.77,0,1.37,0.62,1.37,1.37c0,0.49-0.24,0.91-0.64,1.17c0,0,0,0-0.02,0
				c-0.2,0.13-0.46,0.22-0.71,0.22c-0.47,0-0.87-0.24-1.11-0.6C82.44,101.59,82.35,101.31,82.35,101.02z M83.9,105.39l3.46,5.98
				h-6.89L83.9,105.39z M97.18,92.6c-2.82-4.48-7.78-7.45-13.47-7.45s-10.66,2.97-13.47,7.45c-1.18,1.86-1.99,4.01-2.28,6.32
				c-0.09,0.69-0.15,1.38-0.15,2.1c0,8.77,7.13,15.87,15.89,15.87c7.36,0,13.56-5.01,15.36-11.83c0.33-1.29,0.51-2.66,0.51-4.05
				C99.59,97.92,98.71,95.04,97.18,92.6z M93.26,103.92l-0.67,2.86l-3.99-3.77h-0.02l-1.02-0.97l6.61-1.99L93.26,103.92z
				 M73.62,100.04l-0.07-0.44l2.37,0.89h0.02l4.06,1.55l-5.34,4.37L73.62,100.04z M78.36,92.44l0.05,0.16l2.33,6.32l-6.8-1.18
				l4.26-5.14L78.36,92.44z M84.97,90.89l3.43,1.71l2.75,1.37l-5.76,3.81l-0.33-5.18L84.97,90.89z M82.35,101.02
				c0-0.75,0.6-1.37,1.37-1.37c0.77,0,1.37,0.62,1.37,1.37c0,0.49-0.24,0.91-0.64,1.17c0,0,0,0-0.02,0
				c-0.2,0.13-0.46,0.22-0.71,0.22c-0.47,0-0.87-0.24-1.11-0.6C82.44,101.59,82.35,101.31,82.35,101.02z M83.9,105.39l3.46,5.98
				h-6.89L83.9,105.39z M97.18,92.6c-2.82-4.48-7.78-7.45-13.47-7.45s-10.66,2.97-13.47,7.45c-1.18,1.86-1.99,4.01-2.28,6.32
				c-0.09,0.69-0.15,1.38-0.15,2.1c0,8.77,7.13,15.87,15.89,15.87c7.36,0,13.56-5.01,15.36-11.83c0.33-1.29,0.51-2.66,0.51-4.05
				C99.59,97.92,98.71,95.04,97.18,92.6z M93.26,103.92l-0.67,2.86l-3.99-3.77h-0.02l-1.02-0.97l6.61-1.99L93.26,103.92z
				 M73.62,100.04l-0.07-0.44l2.37,0.89h0.02l4.06,1.55l-5.34,4.37L73.62,100.04z M78.36,92.44l0.05,0.16l2.33,6.32l-6.8-1.18
				l4.26-5.14L78.36,92.44z M84.97,90.89l3.43,1.71l2.75,1.37l-5.76,3.81l-0.33-5.18L84.97,90.89z M82.35,101.02
				c0-0.75,0.6-1.37,1.37-1.37c0.77,0,1.37,0.62,1.37,1.37c0,0.49-0.24,0.91-0.64,1.17c0,0,0,0-0.02,0
				c-0.2,0.13-0.46,0.22-0.71,0.22c-0.47,0-0.87-0.24-1.11-0.6C82.44,101.59,82.35,101.31,82.35,101.02z M83.9,105.39l3.46,5.98
				h-6.89L83.9,105.39z M97.18,92.6c-2.82-4.48-7.78-7.45-13.47-7.45s-10.66,2.97-13.47,7.45c-1.18,1.86-1.99,4.01-2.28,6.32
				c-0.09,0.69-0.15,1.38-0.15,2.1c0,8.77,7.13,15.87,15.89,15.87c7.36,0,13.56-5.01,15.36-11.83c0.33-1.29,0.51-2.66,0.51-4.05
				C99.59,97.92,98.71,95.04,97.18,92.6z M93.26,103.92l-0.67,2.86l-3.99-3.77h-0.02l-1.02-0.97l6.61-1.99L93.26,103.92z
				 M73.62,100.04l-0.07-0.44l2.37,0.89h0.02l4.06,1.55l-5.34,4.37L73.62,100.04z M78.36,92.44l0.05,0.16l2.33,6.32l-6.8-1.18
				l4.26-5.14L78.36,92.44z M84.97,90.89l3.43,1.71l2.75,1.37l-5.76,3.81l-0.33-5.18L84.97,90.89z M82.35,101.02
				c0-0.75,0.6-1.37,1.37-1.37c0.77,0,1.37,0.62,1.37,1.37c0,0.49-0.24,0.91-0.64,1.17c0,0,0,0-0.02,0
				c-0.2,0.13-0.46,0.22-0.71,0.22c-0.47,0-0.87-0.24-1.11-0.6C82.44,101.59,82.35,101.31,82.35,101.02z M83.9,105.39l3.46,5.98
				h-6.89L83.9,105.39z M97.18,92.6c-2.82-4.48-7.78-7.45-13.47-7.45s-10.66,2.97-13.47,7.45c-1.18,1.86-1.99,4.01-2.28,6.32
				c-0.09,0.69-0.15,1.38-0.15,2.1c0,8.77,7.13,15.87,15.89,15.87c7.36,0,13.56-5.01,15.36-11.83c0.33-1.29,0.51-2.66,0.51-4.05
				C99.59,97.92,98.71,95.04,97.18,92.6z M93.26,103.92l-0.67,2.86l-3.99-3.77h-0.02l-1.02-0.97l6.61-1.99L93.26,103.92z
				 M73.62,100.04l-0.07-0.44l2.37,0.89h0.02l4.06,1.55l-5.34,4.37L73.62,100.04z M78.36,92.44l0.05,0.16l2.33,6.32l-6.8-1.18
				l4.26-5.14L78.36,92.44z M84.97,90.89l3.43,1.71l2.75,1.37l-5.76,3.81l-0.33-5.18L84.97,90.89z M82.35,101.02
				c0-0.75,0.6-1.37,1.37-1.37c0.77,0,1.37,0.62,1.37,1.37c0,0.49-0.24,0.91-0.64,1.17c0,0,0,0-0.02,0
				c-0.2,0.13-0.46,0.22-0.71,0.22c-0.47,0-0.87-0.24-1.11-0.6C82.44,101.59,82.35,101.31,82.35,101.02z M83.9,105.39l3.46,5.98
				h-6.89L83.9,105.39z M97.18,92.6c-2.82-4.48-7.78-7.45-13.47-7.45s-10.66,2.97-13.47,7.45c-1.18,1.86-1.99,4.01-2.28,6.32
				c-0.09,0.69-0.15,1.38-0.15,2.1c0,8.77,7.13,15.87,15.89,15.87c7.36,0,13.56-5.01,15.36-11.83c0.33-1.29,0.51-2.66,0.51-4.05
				C99.59,97.92,98.71,95.04,97.18,92.6z M93.26,103.92l-0.67,2.86l-3.99-3.77h-0.02l-1.02-0.97l6.61-1.99L93.26,103.92z
				 M73.62,100.04l-0.07-0.44l2.37,0.89h0.02l4.06,1.55l-5.34,4.37L73.62,100.04z M78.36,92.44l0.05,0.16l2.33,6.32l-6.8-1.18
				l4.26-5.14L78.36,92.44z M84.97,90.89l3.43,1.71l2.75,1.37l-5.76,3.81l-0.33-5.18L84.97,90.89z M82.35,101.02
				c0-0.75,0.6-1.37,1.37-1.37c0.77,0,1.37,0.62,1.37,1.37c0,0.49-0.24,0.91-0.64,1.17c0,0,0,0-0.02,0
				c-0.2,0.13-0.46,0.22-0.71,0.22c-0.47,0-0.87-0.24-1.11-0.6C82.44,101.59,82.35,101.31,82.35,101.02z M83.9,105.39l3.46,5.98
				h-6.89L83.9,105.39z M97.18,92.6c-2.82-4.48-7.78-7.45-13.47-7.45s-10.66,2.97-13.47,7.45c-1.18,1.86-1.99,4.01-2.28,6.32
				c-0.09,0.69-0.15,1.38-0.15,2.1c0,8.77,7.13,15.87,15.89,15.87c7.36,0,13.56-5.01,15.36-11.83c0.33-1.29,0.51-2.66,0.51-4.05
				C99.59,97.92,98.71,95.04,97.18,92.6z M93.26,103.92l-0.67,2.86l-3.99-3.77h-0.02l-1.02-0.97l6.61-1.99L93.26,103.92z
				 M73.62,100.04l-0.07-0.44l2.37,0.89h0.02l4.06,1.55l-5.34,4.37L73.62,100.04z M78.36,92.44l0.05,0.16l2.33,6.32l-6.8-1.18
				l4.26-5.14L78.36,92.44z M84.97,90.89l3.43,1.71l2.75,1.37l-5.76,3.81l-0.33-5.18L84.97,90.89z M82.35,101.02
				c0-0.75,0.6-1.37,1.37-1.37c0.77,0,1.37,0.62,1.37,1.37c0,0.49-0.24,0.91-0.64,1.17c0,0,0,0-0.02,0
				c-0.2,0.13-0.46,0.22-0.71,0.22c-0.47,0-0.87-0.24-1.11-0.6C82.44,101.59,82.35,101.31,82.35,101.02z M83.9,105.39l3.46,5.98
				h-6.89L83.9,105.39z M97.18,92.6c-2.82-4.48-7.78-7.45-13.47-7.45s-10.66,2.97-13.47,7.45c-1.18,1.86-1.99,4.01-2.28,6.32
				c-0.09,0.69-0.15,1.38-0.15,2.1c0,8.77,7.13,15.87,15.89,15.87c7.36,0,13.56-5.01,15.36-11.83c0.33-1.29,0.51-2.66,0.51-4.05
				C99.59,97.92,98.71,95.04,97.18,92.6z M93.26,103.92l-0.67,2.86l-3.99-3.77h-0.02l-1.02-0.97l6.61-1.99L93.26,103.92z
				 M73.62,100.04l-0.07-0.44l2.37,0.89h0.02l4.06,1.55l-5.34,4.37L73.62,100.04z M78.36,92.44l0.05,0.16l2.33,6.32l-6.8-1.18
				l4.26-5.14L78.36,92.44z M84.97,90.89l3.43,1.71l2.75,1.37l-5.76,3.81l-0.33-5.18L84.97,90.89z M82.35,101.02
				c0-0.75,0.6-1.37,1.37-1.37c0.77,0,1.37,0.62,1.37,1.37c0,0.49-0.24,0.91-0.64,1.17c0,0,0,0-0.02,0
				c-0.2,0.13-0.46,0.22-0.71,0.22c-0.47,0-0.87-0.24-1.11-0.6C82.44,101.59,82.35,101.31,82.35,101.02z M83.9,105.39l3.46,5.98
				h-6.89L83.9,105.39z M97.18,92.6c-2.82-4.48-7.78-7.45-13.47-7.45s-10.66,2.97-13.47,7.45c-1.18,1.86-1.99,4.01-2.28,6.32
				c-0.09,0.69-0.15,1.38-0.15,2.1c0,8.77,7.13,15.87,15.89,15.87c7.36,0,13.56-5.01,15.36-11.83c0.33-1.29,0.51-2.66,0.51-4.05
				C99.59,97.92,98.71,95.04,97.18,92.6z M93.26,103.92l-0.67,2.86l-3.99-3.77h-0.02l-1.02-0.97l6.61-1.99L93.26,103.92z
				 M73.62,100.04l-0.07-0.44l2.37,0.89h0.02l4.06,1.55l-5.34,4.37L73.62,100.04z M78.36,92.44l0.05,0.16l2.33,6.32l-6.8-1.18
				l4.26-5.14L78.36,92.44z M84.97,90.89l3.43,1.71l2.75,1.37l-5.76,3.81l-0.33-5.18L84.97,90.89z M82.35,101.02
				c0-0.75,0.6-1.37,1.37-1.37c0.77,0,1.37,0.62,1.37,1.37c0,0.49-0.24,0.91-0.64,1.17c0,0,0,0-0.02,0
				c-0.2,0.13-0.46,0.22-0.71,0.22c-0.47,0-0.87-0.24-1.11-0.6C82.44,101.59,82.35,101.31,82.35,101.02z M83.9,105.39l3.46,5.98
				h-6.89L83.9,105.39z M97.18,92.6c-2.82-4.48-7.78-7.45-13.47-7.45s-10.66,2.97-13.47,7.45c-1.18,1.86-1.99,4.01-2.28,6.32
				c-0.09,0.69-0.15,1.38-0.15,2.1c0,8.77,7.13,15.87,15.89,15.87c7.36,0,13.56-5.01,15.36-11.83c0.33-1.29,0.51-2.66,0.51-4.05
				C99.59,97.92,98.71,95.04,97.18,92.6z M93.26,103.92l-0.67,2.86l-3.99-3.77h-0.02l-1.02-0.97l6.61-1.99L93.26,103.92z
				 M73.62,100.04l-0.07-0.44l2.37,0.89h0.02l4.06,1.55l-5.34,4.37L73.62,100.04z M78.36,92.44l0.05,0.16l2.33,6.32l-6.8-1.18
				l4.26-5.14L78.36,92.44z M84.97,90.89l3.43,1.71l2.75,1.37l-5.76,3.81l-0.33-5.18L84.97,90.89z M82.35,101.02
				c0-0.75,0.6-1.37,1.37-1.37c0.77,0,1.37,0.62,1.37,1.37c0,0.49-0.24,0.91-0.64,1.17c0,0,0,0-0.02,0
				c-0.2,0.13-0.46,0.22-0.71,0.22c-0.47,0-0.87-0.24-1.11-0.6C82.44,101.59,82.35,101.31,82.35,101.02z M83.9,105.39l3.46,5.98
				h-6.89L83.9,105.39z M97.18,92.6c-2.82-4.48-7.78-7.45-13.47-7.45s-10.66,2.97-13.47,7.45c-1.18,1.86-1.99,4.01-2.28,6.32
				c-0.09,0.69-0.15,1.38-0.15,2.1c0,8.77,7.13,15.87,15.89,15.87c7.36,0,13.56-5.01,15.36-11.83c0.33-1.29,0.51-2.66,0.51-4.05
				C99.59,97.92,98.71,95.04,97.18,92.6z M93.26,103.92l-0.67,2.86l-3.99-3.77h-0.02l-1.02-0.97l6.61-1.99L93.26,103.92z
				 M73.62,100.04l-0.07-0.44l2.37,0.89h0.02l4.06,1.55l-5.34,4.37L73.62,100.04z M78.36,92.44l0.05,0.16l2.33,6.32l-6.8-1.18
				l4.26-5.14L78.36,92.44z M84.97,90.89l3.43,1.71l2.75,1.37l-5.76,3.81l-0.33-5.18L84.97,90.89z M82.35,101.02
				c0-0.75,0.6-1.37,1.37-1.37c0.77,0,1.37,0.62,1.37,1.37c0,0.49-0.24,0.91-0.64,1.17c0,0,0,0-0.02,0
				c-0.2,0.13-0.46,0.22-0.71,0.22c-0.47,0-0.87-0.24-1.11-0.6C82.44,101.59,82.35,101.31,82.35,101.02z M83.9,105.39l3.46,5.98
				h-6.89L83.9,105.39z M97.18,92.6c-2.82-4.48-7.78-7.45-13.47-7.45s-10.66,2.97-13.47,7.45c-1.18,1.86-1.99,4.01-2.28,6.32
				c-0.09,0.69-0.15,1.38-0.15,2.1c0,8.77,7.13,15.87,15.89,15.87c7.36,0,13.56-5.01,15.36-11.83c0.33-1.29,0.51-2.66,0.51-4.05
				C99.59,97.92,98.71,95.04,97.18,92.6z M93.26,103.92l-0.67,2.86l-3.99-3.77h-0.02l-1.02-0.97l6.61-1.99L93.26,103.92z
				 M73.62,100.04l-0.07-0.44l2.37,0.89h0.02l4.06,1.55l-5.34,4.37L73.62,100.04z M78.36,92.44l0.05,0.16l2.33,6.32l-6.8-1.18
				l4.26-5.14L78.36,92.44z M84.97,90.89l3.43,1.71l2.75,1.37l-5.76,3.81l-0.33-5.18L84.97,90.89z M82.35,101.02
				c0-0.75,0.6-1.37,1.37-1.37c0.77,0,1.37,0.62,1.37,1.37c0,0.49-0.24,0.91-0.64,1.17c0,0,0,0-0.02,0
				c-0.2,0.13-0.46,0.22-0.71,0.22c-0.47,0-0.87-0.24-1.11-0.6C82.44,101.59,82.35,101.31,82.35,101.02z M83.9,105.39l3.46,5.98
				h-6.89L83.9,105.39z"/>
			<path class="st7" d="M61.43,63.15c-3.06,0.95-5.85,1.95-8.33,2.93c-0.84,0.33-1.62,0.67-2.41,1c-3.08,1.33-5.65,2.64-7.73,3.81
				c-0.05,0.4,0,0.78,0.16,1.13c1.04,2.04,5.92,1.6,10.95-0.93C58.82,68.69,61.96,65.25,61.43,63.15z M54.96,69.61
				c-3.3,1.68-6.52,1.95-7.2,0.6c-0.11-0.2-0.15-0.46-0.11-0.73c2.73-1.53,6.78-3.43,12.15-5.08
				C60.14,65.76,58.08,68.02,54.96,69.61z"/>
			<path class="st24" d="M53.68,79.39v1.51h6.1v-1.51H53.68z M316.82,81.27c-0.02-0.24-0.04-0.47-0.07-0.69
				c0-0.13-0.02-0.26-0.05-0.36c-0.04-0.26-0.09-0.47-0.15-0.69c-0.04-0.09-0.07-0.22-0.11-0.31c-0.02-0.09-0.05-0.22-0.09-0.31
				h-7.85v4.05h8.31v-0.26c0.02-0.02,0.02-0.02,0.02-0.04C316.84,82.12,316.84,81.67,316.82,81.27z"/>
			<path class="st25" d="M157.79,58.25l7.27,0.13l21.76-20.86L157.79,58.25z M103.18,59.47c-21.03-0.13-38.01,5.56-39.03,5.92
				c25.53-5.23,62.9-5.28,62.9-5.28L103.18,59.47z M227.97,59.42l-0.04,0.02l-4.15,2.37l-24.49-0.64l24.6,2.81l6.14-4.46l7.71-5.61
				L227.97,59.42z"/>
		</g>
		<path class="st24" d="M153.41,19.66c-1.36-1-2.76-2.23-3.75-3.71l-0.87-1.3c-0.18-0.28-0.53-0.4-0.85-0.3
			c-0.32,0.1-0.54,0.39-0.54,0.72v11.84c-0.45-0.26-0.96-0.42-1.51-0.42c-1.66,0-3.02,1.35-3.02,3.02c0,1.66,1.35,3.02,3.02,3.02
			c1.66,0,3.02-1.35,3.02-3.02V17.54c1.07,1.35,2.4,2.46,3.6,3.34c0.59,0.43,0.93,1.1,0.93,1.83c0,1.25-1.02,2.26-2.26,2.26
			c-0.42,0-0.75,0.34-0.75,0.75c0,0.42,0.34,0.75,0.75,0.75c2.08,0,3.77-1.69,3.77-3.77C154.95,21.51,154.37,20.37,153.41,19.66z
			 M167.3,23.15l-10.66,3.02c-0.32,0.09-0.55,0.39-0.55,0.73v10.23c-0.45-0.26-0.96-0.42-1.51-0.42c-1.66,0-3.02,1.35-3.02,3.02
			s1.35,3.02,3.02,3.02s3.02-1.35,3.02-3.02c0-0.17,0-9.24,0-9.24l9.15-2.59v6.21c-0.45-0.26-0.96-0.42-1.51-0.42
			c-1.66,0-3.02,1.35-3.02,3.02s1.35,3.02,3.02,3.02c1.66,0,3.02-1.35,3.02-3.02c0-0.17,0-12.82,0-12.82
			C168.26,23.38,167.78,23.01,167.3,23.15z M171.16,9.44c-1.36-1-2.76-2.23-3.75-3.71l-0.87-1.3c-0.18-0.28-0.53-0.4-0.85-0.3
			c-0.32,0.1-0.54,0.39-0.54,0.72v11.84c-0.45-0.26-0.96-0.42-1.51-0.42c-1.66,0-3.02,1.35-3.02,3.02c0,1.66,1.35,3.02,3.02,3.02
			c1.66,0,3.02-1.35,3.02-3.02V7.31c1.07,1.35,2.4,2.46,3.6,3.34c0.59,0.43,0.93,1.1,0.93,1.83c0,1.25-1.02,2.26-2.26,2.26
			c-0.42,0-0.75,0.34-0.75,0.75c0,0.42,0.34,0.75,0.75,0.75c2.08,0,3.77-1.69,3.77-3.77C172.7,11.28,172.12,10.15,171.16,9.44z"/>
	</g>
</g>
</svg>
