<?xml version="1.0" encoding="utf-8"?>
<!-- Generator: Adobe Illustrator 27.8.1, SVG Export Plug-In . SVG Version: 6.00 Build 0)  -->
<svg version="1.1" id="Layer_1" xmlns="http://www.w3.org/2000/svg" xmlns:xlink="http://www.w3.org/1999/xlink" x="0px" y="0px"
	 viewBox="0 0 350 230" style="enable-background:new 0 0 350 230;" xml:space="preserve">
<style type="text/css">
	.st0{fill:#F5F5F5;stroke:#404040;stroke-width:2;stroke-miterlimit:10;}
	.st1{fill:#49BDC9;}
	.st2{fill:none;stroke:#404040;stroke-miterlimit:10;}
	.st3{fill:#F5F5F5;}
	.st4{fill:none;stroke:#FFFFFF;stroke-miterlimit:10;}
	.st5{fill:#2F2F3F;}
	.st6{fill:#02028C;}
	.st7{fill:#FFFFFF;}
	.st8{fill:#023C44;}
	.st9{fill:#022231;}
	.st10{fill:#53C2BB;}
	.st11{fill:#FF680D;}
	.st12{fill:#00EDFF;}
	.st13{fill:#213000;}
	.st14{fill:#FFB034;}
	.st15{fill:#00556A;}
	.st16{fill:#380C00;}
	.st17{fill:#00556A;stroke:#FFFFFF;stroke-width:0.5;stroke-miterlimit:10;}
	.st18{fill:#750000;}
	.st19{fill:#D40B00;}
	.st20{fill:#8E0073;}
	.st21{fill:#494949;}
	.st22{fill:#259AAB;}
	.st23{fill:#3DAEB7;}
	.st24{fill:#065652;}
	.st25{fill:#A8C6E9;}
	.st26{fill:#3F0101;}
	.st27{fill:#80C445;}
	.st28{fill:#F4D4AE;}
	.st29{fill:#E95454;}
	.st30{fill:#760689;}
	.st31{fill:#DEBFFF;}
	.st32{fill:url(#SVGID_1_);}
	.st33{fill:url(#SVGID_00000089572587404358470840000013496956014064010897_);}
	.st34{fill:url(#_x3C_Compound_Path_x3E__Music_Icon_00000025429306798574785570000017893378017490452135_);}
	.st35{opacity:0.3;fill:url(#_x3C_Compound_Path_x3E__Music_Shades_00000145765384814694042140000013041477628987877027_);}
	.st36{opacity:0.8;fill:#FFFFFF;}
	.st37{fill:#590068;}
	.st38{fill:#293767;}
	.st39{fill:#008294;}
	.st40{fill:url(#SVGID_00000057132921496175152430000006944840914896858790_);}
	.st41{fill:#F5F5F6;}
	.st42{fill:#021284;}
	.st43{fill:#751616;}
	.st44{fill:url(#SVGID_00000123427072071400617370000017001028740740704655_);}
	.st45{fill:#0000A2;}
	.st46{fill:#00833F;}
	.st47{fill:#6B1800;}
	.st48{fill:#54004C;}
	.st49{fill:#C10073;}
	.st50{fill:#7A0334;}
	.st51{fill:#002066;}
	.st52{fill:#5E5700;}
	.st53{fill:#350033;}
	.st54{fill:#FFB000;}
	.st55{fill:#490000;}
	.st56{fill:#875F74;}
	.st57{fill:#003035;}
	.st58{fill:#3659FF;}
	.st59{fill:#9B8F00;}
	.st60{fill:#4C1200;}
	.st61{fill:#016A72;}
	.st62{fill:#FF0000;}
	.st63{fill:#005C68;}
	.st64{fill:#4A0075;}
	.st65{fill:url(#SVGID_00000164499707502694605920000003732966232106889915_);}
	.st66{fill:#020242;}
	.st67{fill:#228DC9;}
	.st68{fill:#551700;}
	.st69{fill:#00C2E0;}
	.st70{fill:#012F4C;}
	.st71{fill:#300018;}
	.st72{fill-rule:evenodd;clip-rule:evenodd;fill:#6D3C5B;}
	.st73{fill-rule:evenodd;clip-rule:evenodd;fill:#020242;}
	.st74{fill:#9B001E;}
	.st75{fill:#00E1FF;}
	.st76{fill:#680040;}
	.st77{fill:#8E8700;}
	.st78{fill:#220247;}
	.st79{fill:#0086FF;}
	.st80{fill:#7C4F00;}
	.st81{fill:#520000;}
	.st82{fill:#04A8CB;}
	.st83{fill:#18618B;}
	.st84{fill:#958C00;}
	.st85{fill:#B0261C;}
	.st86{fill:#013147;}
	.st87{fill:#CD11A1;}
	.st88{fill:#296262;}
	.st89{fill:#5C5E00;}
	.st90{fill:#55B1C8;}
	.st91{fill:#918C34;}
	.st92{fill:#F94351;}
	.st93{fill:#9B001A;}
	.st94{fill:#000066;}
	.st95{fill:#636568;}
	.st96{fill:#002544;}
	.st97{fill:#723300;}
	.st98{fill:url(#SVGID_00000021818949190283386960000008962532634180887224_);}
	.st99{fill:#F393BD;}
	.st100{fill:url(#SVGID_00000104692859337655786570000017384136247316557201_);}
	.st101{fill:#011354;}
	.st102{fill:#38011B;}
	.st103{fill-rule:evenodd;clip-rule:evenodd;fill:#2365A6;}
	.st104{fill:#351B01;}
	.st105{fill-rule:evenodd;clip-rule:evenodd;fill:#351B01;}
	.st106{fill:#02484C;}
	.st107{fill:none;stroke:#02484C;stroke-width:4;stroke-miterlimit:10;}
</style>
<g>
	<g>
		<path class="st19" d="M192.98,106.46c-0.87,0-1.57-0.7-1.57-1.57c0-0.87,0.7-1.57,1.57-1.57h11.69v-6.27h-11.69
			c-0.87,0-1.57-0.7-1.57-1.57c0-0.87,0.7-1.57,1.57-1.57h11.69v-6.28h-11.69c-0.87,0-1.57-0.7-1.57-1.57c0-0.87,0.7-1.57,1.57-1.57
			h11.69v-6.28h-11.69c-0.87,0-1.57-0.7-1.57-1.57c0-0.87,0.7-1.57,1.57-1.57h11.69c0-6.24-5.06-11.3-11.3-11.3h-18.2
			c-6.24,0-11.3,5.06-11.3,11.3h11.69c0.87,0,1.57,0.7,1.57,1.57c0,0.87-0.7,1.57-1.57,1.57h-11.69v6.28h11.69
			c0.87,0,1.57,0.7,1.57,1.57c0,0.87-0.7,1.57-1.57,1.57h-11.69v6.28h11.69c0.87,0,1.57,0.7,1.57,1.57c0,0.87-0.7,1.57-1.57,1.57
			h-11.69v6.27h11.69c0.87,0,1.57,0.7,1.57,1.57c0,0.87-0.7,1.57-1.57,1.57h-11.69v4.08c0,6.24,5.06,11.3,11.3,11.3h18.2
			c6.24,0,11.3-5.06,11.3-11.3v-4.08L192.98,106.46L192.98,106.46z M212.56,93.26c-1.63,0-2.95,1.32-2.95,2.95v17.09
			c0,6.45-5.93,11.69-13.22,11.69h-24.25c-7.29,0-13.22-5.24-13.22-11.69V96.21c0-1.63-1.32-2.95-2.95-2.95s-2.95,1.32-2.95,2.95
			v17.09c0,9.7,8.57,17.59,19.11,17.59h1.62c-0.05,0.25-0.08,0.5-0.08,0.76c0,2.05,1.66,3.71,3.71,3.71h3.79v11.75H162.8
			c-1.01,0-1.83,1.02-1.83,2.28c0,1.26,0.82,2.28,1.83,2.28h42.95c1.01,0,1.83-1.02,1.83-2.28c0-1.26-0.82-2.28-1.83-2.28h-18.39
			v-11.75h3.79c2.05,0,3.71-1.66,3.71-3.71c0-0.26-0.03-0.52-0.08-0.76h1.62c10.54,0,19.11-7.89,19.11-17.59V96.21
			C215.51,94.58,214.19,93.26,212.56,93.26z"/>
		<path class="st15" d="M151.5,131.22l-8.45,4.84l-8.48,4.78l-1.11,0.63l0.19-1.3l3.37-23.51l3.54-23.48l0.51,1.56l-17.24-16.33
			c-5.76-5.43-11.45-10.93-17.17-16.4l-3.45-3.3l4.75-0.72c7.82-1.19,15.64-2.44,23.47-3.58l23.49-3.48l-1.96,1.42
			c3.47-7.12,6.99-14.2,10.52-21.29l10.57-21.26l2.29-4.61l2.23,4.61l10.33,21.38c3.45,7.12,6.88,14.26,10.27,21.41l-1.55-1.12
			l23.44,3.78c7.81,1.31,15.62,2.55,23.42,3.92l2.32,0.41l-1.66,1.58l-14,13.33l-7.01,6.66l-7.07,6.6l6.56-7.11l6.61-7.05
			l13.24-14.09l0.66,1.99c-7.87-0.9-15.71-1.94-23.57-2.91l-23.55-3.05l-1.04-0.14l-0.51-0.99c-3.62-7.04-7.2-14.1-10.75-21.17
			l-10.68-21.2h4.52l-10.45,21.32c-3.48,7.11-6.96,14.22-10.5,21.3L157,55.88l-1.34,0.19l-23.51,3.35
			c-7.83,1.13-15.68,2.16-23.52,3.24l1.31-4.02c5.61,5.58,11.26,11.13,16.83,16.75l16.76,16.82l0.68,0.68l-0.17,0.88l-4.48,23.32
			l-4.65,23.29l-0.93-0.67l8.74-4.28L151.5,131.22z"/>
	</g>
</g>
</svg>
