<?xml version="1.0" encoding="utf-8"?>
<!-- Generator: Adobe Illustrator 27.8.1, SVG Export Plug-In . SVG Version: 6.00 Build 0)  -->
<svg version="1.1" xmlns="http://www.w3.org/2000/svg" xmlns:xlink="http://www.w3.org/1999/xlink" x="0px" y="0px"
	 viewBox="0 0 350 230" style="enable-background:new 0 0 350 230;" xml:space="preserve">
<style type="text/css">
	.st0{fill:#FF7F00;}
	.st1{fill:#893700;}
	.st2{fill:#29ABE2;}
	.st3{fill:#F2C0AA;}
	.st4{fill:#1C75BC;}
	.st5{fill:#FFC200;}
	.st6{fill:#911717;}
	.st7{fill:#C1272D;}
	.st8{fill:#F7931E;}
	.st9{fill:#2D828E;}
	.st10{fill:#93BC20;}
	.st11{fill:#CC781D;}
	.st12{fill:#FF5500;}
	.st13{fill:#C4C400;}
	.st14{display:none;fill:#C4C400;}
	.st15{font-family:'NofexRegular';}
	.st16{font-size:30px;}
	.st17{fill:#017F6A;}
	.st18{fill:#0092FF;}
	.st19{fill:#09578C;}
	.st20{fill:#3B9FE2;}
	.st21{fill:#BE1E2D;}
	.st22{fill:#231F20;}
	.st23{fill:#FF9D00;}
	.st24{fill:#F15A29;}
	.st25{fill:#00406B;}
</style>
<g id="Logo1">
</g>
<g id="Logo2">
</g>
<g id="Logo3">
</g>
<g id="Logo4">
</g>
<g id="Logo5">
</g>
<g id="Logo6">
</g>
<g id="Logo7">
</g>
<g id="Logo8">
	<path class="st13" d="M221.22,146.32c-2.41-5.97-2.61-11.59-1.08-17.27c0.94-3.52,2.9-5.56,6.93-5.32
		c4.2,0.25,8.43,0.06,13.06,0.06c0-13.53,0-26.8,0-40.25c22.11-3.45,43.9-4.27,65.79-1.9c-22.48-5.47-45.06-4.22-67.96-1.28
		c0,4.65,0,8.96,0,13.89c-7.99-3.28-15.53-6.38-23.68-9.73c8.34-3.48,16.15-6.77,23.97-10.01c12.52-5.18,25.04-10.38,37.61-15.43
		c1.45-0.58,3.49-0.87,4.86-0.31c20.29,8.22,40.5,16.6,60.73,24.95c0.34,0.14,0.63,0.39,0.97,0.6c-0.1,0.2-0.15,0.49-0.27,0.52
		c-4.09,1-5.07,3.57-4.84,7.64c0.39,7.09,0.09,14.21,0.12,21.32c0.01,3.02,0.67,5.75,1.75,8.72c1.36,3.72,0.33,8.32,0.33,12.79
		c-3.44,0-6.58,0-10.1,0c0-4.59-1.57-9.95,0.36-13.28c3.15-5.45,1.17-10.62,1.68-15.83c0.53-5.39,0.12-10.88,0.12-16.81
		c-4.59,1.88-8.75,3.46-12.78,5.34c-0.78,0.37-1.4,1.92-1.42,2.94c-0.11,8.47-0.06,16.95-0.06,25.67c1.18,0.27,2.32,0.53,3.57,0.81
		c0,1.51,0,2.97,0,4.99c-1.46,0-2.9,0-4.34,0c-28.3,0-56.6,0-84.9-0.02c-2.4,0-4.75-0.25-5.85,2.74c-1.16,3.16-0.86,8.8,1.16,10.26
		c1.07,0.78,2.74,1.02,4.14,1.02c28.43,0.06,56.85,0.05,85.28,0.05c1.36,0,2.72,0,4.09,0c0.31,0.26,0.62,0.53,0.93,0.79
		c-0.82,1.09-1.43,2.77-2.5,3.14c-2.4,0.82-5.02,1.22-7.57,1.34c-4.09,0.21-8.2,0.06-12.64,0.06c0.38,3.24-1.36,3.57-3.97,3.56
		c-28.67-0.09-57.35-0.05-86.02-0.06c-2.25,0-4.53-0.34-5.57,2.5c-1.13,3.07-0.78,9.03,1.12,10.3c1.11,0.74,2.78,0.87,4.2,0.88
		c21.07,0.04,42.14,0.01,63.21,0c0.6,0,1.2,0,1.8,0c0.08,0.36,0.16,0.72,0.24,1.08c-6.28,1.54-12.52,4.16-18.85,4.4
		c-16.43,0.62-32.91,0.21-49.36,0.19c-5.28,0-7.64-1.42-8.25-6.56c-0.53-4.47-0.16-9.15,0.55-13.62c0.54-3.37,3.1-5.08,6.86-4.93
		C209.97,146.48,215.33,146.32,221.22,146.32z M320.21,135.69c-30.45,0-60.91,0-91.36,0c0,0.3,0,0.61,0,0.91
		c30.45,0,60.91,0,91.36,0C320.21,136.3,320.21,135.99,320.21,135.69z M293.27,157.73c-14.57,0-29.13-0.07-43.7,0.02
		c-14.47,0.09-28.96-0.4-43.45,1.01c1.36,0.89,2.75,1.22,4.14,1.22c25.53-0.03,51.05-0.07,76.58-0.21c2.16-0.01,4.31-0.71,6.47-1.1
		C293.3,158.36,293.29,158.05,293.27,157.73z"/>
	<text transform="matrix(1 0 0 1 7.5792 123.9697)" class="st14 st15 st16">education</text>
</g>
<g id="Logo9">
</g>
<g id="Logo10">
</g>
<g id="Logo11">
</g>
<g id="Logo12">
</g>
<g id="Layer_13">
</g>
<g id="Layer_14">
</g>
<g id="Layer_15">
</g>
</svg>
