<?xml version="1.0" encoding="utf-8"?>
<!-- Generator: Adobe Illustrator 27.8.1, SVG Export Plug-In . SVG Version: 6.00 Build 0)  -->
<svg version="1.1" id="Layer_1" xmlns="http://www.w3.org/2000/svg" xmlns:xlink="http://www.w3.org/1999/xlink" x="0px" y="0px"
	 viewBox="0 0 350 230" style="enable-background:new 0 0 350 230;" xml:space="preserve">
<style type="text/css">
	.st0{fill:#F5F5F5;stroke:#404040;stroke-width:2;stroke-miterlimit:10;}
	.st1{fill:#49BDC9;}
	.st2{fill:none;stroke:#404040;stroke-miterlimit:10;}
	.st3{fill:#F5F5F5;}
	.st4{fill:none;stroke:#FFFFFF;stroke-miterlimit:10;}
	.st5{fill:#2F2F3F;}
	.st6{fill:#02028C;}
	.st7{fill:#FFFFFF;}
	.st8{fill:#023C44;}
	.st9{fill:#022231;}
	.st10{fill:#53C2BB;}
	.st11{fill:#FF680D;}
	.st12{fill:#00EDFF;}
	.st13{fill:#213000;}
	.st14{fill:#FFB034;}
	.st15{fill:#00556A;}
	.st16{fill:#380C00;}
	.st17{fill:#00556A;stroke:#FFFFFF;stroke-width:0.5;stroke-miterlimit:10;}
	.st18{fill:#750000;}
	.st19{fill:#D40B00;}
	.st20{fill:#8E0073;}
	.st21{fill:#494949;}
	.st22{fill:#259AAB;}
	.st23{fill:#3DAEB7;}
	.st24{fill:#065652;}
	.st25{fill:#A8C6E9;}
	.st26{fill:#3F0101;}
	.st27{fill:#80C445;}
	.st28{fill:#F4D4AE;}
	.st29{fill:#E95454;}
	.st30{fill:#760689;}
	.st31{fill:#DEBFFF;}
	.st32{fill:url(#SVGID_1_);}
	.st33{fill:url(#SVGID_00000012446623951651198120000004300553457273567125_);}
	.st34{fill:url(#_x3C_Compound_Path_x3E__Music_Icon_00000098216822093298702390000004229720242676272283_);}
	.st35{opacity:0.3;fill:url(#_x3C_Compound_Path_x3E__Music_Shades_00000174593864791052681530000011921411491501918636_);}
	.st36{opacity:0.8;fill:#FFFFFF;}
	.st37{fill:#590068;}
	.st38{fill:#293767;}
	.st39{fill:#008294;}
	.st40{fill:url(#SVGID_00000009573394667056176190000014204419541048030377_);}
	.st41{fill:#F5F5F6;}
	.st42{fill:#021284;}
	.st43{fill:#751616;}
	.st44{fill:url(#SVGID_00000181084263338832378180000010599544511589623961_);}
	.st45{fill:#0000A2;}
	.st46{fill:#00833F;}
	.st47{fill:#6B1800;}
	.st48{fill:#54004C;}
	.st49{fill:#C10073;}
	.st50{fill:#7A0334;}
	.st51{fill:#002066;}
	.st52{fill:#5E5700;}
	.st53{fill:#350033;}
	.st54{fill:#FFB000;}
	.st55{fill:#490000;}
	.st56{fill:#875F74;}
	.st57{fill:#003035;}
	.st58{fill:#3659FF;}
	.st59{fill:#9B8F00;}
	.st60{fill:#4C1200;}
	.st61{fill:#016A72;}
	.st62{fill:#FF0000;}
	.st63{fill:#005C68;}
	.st64{fill:#4A0075;}
	.st65{fill:url(#SVGID_00000041269751165974080910000007551076416911025793_);}
	.st66{fill:#020242;}
	.st67{fill:#228DC9;}
	.st68{fill:#551700;}
	.st69{fill:#00C2E0;}
	.st70{fill:#012F4C;}
	.st71{fill:#300018;}
	.st72{fill-rule:evenodd;clip-rule:evenodd;fill:#6D3C5B;}
	.st73{fill-rule:evenodd;clip-rule:evenodd;fill:#020242;}
	.st74{fill:#9B001E;}
	.st75{fill:#00E1FF;}
	.st76{fill:#680040;}
	.st77{fill:#8E8700;}
	.st78{fill:#220247;}
	.st79{fill:#0086FF;}
	.st80{fill:#7C4F00;}
	.st81{fill:#520000;}
	.st82{fill:#04A8CB;}
	.st83{fill:#18618B;}
	.st84{fill:#958C00;}
	.st85{fill:#B0261C;}
	.st86{fill:#013147;}
	.st87{fill:#CD11A1;}
	.st88{fill:#296262;}
	.st89{fill:#5C5E00;}
	.st90{fill:#55B1C8;}
	.st91{fill:#918C34;}
	.st92{fill:#F94351;}
	.st93{fill:#9B001A;}
	.st94{fill:#000066;}
	.st95{fill:#636568;}
	.st96{fill:#002544;}
	.st97{fill:#723300;}
	.st98{fill:url(#SVGID_00000108305871100155366650000006976664641891417228_);}
	.st99{fill:#F393BD;}
	.st100{fill:url(#SVGID_00000063593967868819086860000007906831759939175320_);}
	.st101{fill:#011354;}
	.st102{fill:#38011B;}
	.st103{fill-rule:evenodd;clip-rule:evenodd;fill:#2365A6;}
	.st104{fill:#351B01;}
	.st105{fill-rule:evenodd;clip-rule:evenodd;fill:#351B01;}
	.st106{fill:#02484C;}
	.st107{fill:none;stroke:#02484C;stroke-width:4;stroke-miterlimit:10;}
</style>
<g id="Logo19">
	<g id="Logo_00000181085292320212816380000016305692111746900146_">
		<g id="Multimedia-_x28_Color_x29_" transform="translate(-98.000000, -703.000000)">
			<g id="_x33_1-multimeda-music-collection" transform="translate(100.000000, 705.000000)">
				<polygon class="st103" points="226.6,16.91 226.6,3.51 106,3.51 106,124.11 119.4,124.11 119.4,16.91 				"/>
				<path class="st103" d="M119.4,16.91H240v120.61H119.4V16.91z"/>
				<path class="st104" d="M119.4,126.46H106c-1.3,0-2.35-1.05-2.35-2.35V3.51c0-1.3,1.05-2.35,2.35-2.35H226.6
					c1.3,0,2.35,1.05,2.35,2.35v13.4c0,1.3-1.05,2.35-2.35,2.35H121.74v104.86C121.74,125.41,120.69,126.46,119.4,126.46z
					 M108.34,121.77h8.71V16.91c0-1.3,1.05-2.35,2.35-2.35h104.86V5.85H108.34V121.77z M240,139.86H119.4
					c-1.3,0-2.35-1.05-2.35-2.35V16.91c0-1.3,1.05-2.35,2.35-2.35H240c1.3,0,2.35,1.05,2.35,2.35v120.61
					C242.35,138.81,241.3,139.86,240,139.86z M121.74,135.17h115.92V19.25H121.74V135.17z"/>
				<g>
					<path class="st104" d="M162.46,67.72c-0.55,0-1.09-0.19-1.51-0.55c-0.53-0.45-0.83-1.1-0.83-1.79V44.73
						c0-1.14,0.83-2.12,1.96-2.31l48.68-8.2c0.68-0.11,1.38,0.08,1.9,0.52c0.53,0.45,0.83,1.1,0.83,1.79v20.67
						c0,1.15-0.83,2.12-1.96,2.31l-48.68,8.16C162.72,67.7,162.59,67.72,162.46,67.72z M164.81,46.71V62.6l43.99-7.38V39.31
						L164.81,46.71z"/>
					<path class="st104" d="M152.32,119.76c-3.24,0-6.3-1.02-8.63-2.86c-2.49-1.97-3.86-4.64-3.86-7.52s1.37-5.55,3.86-7.52
						c2.33-1.85,5.39-2.86,8.63-2.86c3.24,0,6.3,1.02,8.63,2.86c2.49,1.97,3.86,4.64,3.86,7.52s-1.37,5.55-3.86,7.52
						C158.62,118.74,155.56,119.76,152.32,119.76z M152.32,103.68c-4.23,0-7.8,2.61-7.8,5.7c0,3.09,3.57,5.7,7.8,5.7
						c4.23,0,7.8-2.61,7.8-5.7C160.12,106.28,156.55,103.68,152.32,103.68z M201,111.72c-3.24,0-6.3-1.02-8.63-2.86
						c-2.49-1.97-3.86-4.64-3.86-7.52c0-2.88,1.37-5.55,3.86-7.52c2.33-1.85,5.39-2.86,8.63-2.86c3.24,0,6.3,1.02,8.63,2.86
						c2.49,1.97,3.86,4.64,3.86,7.52c0,2.88-1.37,5.55-3.86,7.52C207.3,110.7,204.24,111.72,201,111.72z M201,95.64
						c-4.23,0-7.8,2.61-7.8,5.7c0,3.09,3.57,5.7,7.8,5.7c4.23,0,7.8-2.61,7.8-5.7C208.8,98.24,205.23,95.64,201,95.64z"/>
					<path class="st105" d="M162.46,65.82v41.93 M164.81,107.75V65.82c0-1.3-1.05-2.35-2.35-2.35c-1.3,0-2.35,1.05-2.35,2.35v41.93
						c0,1.3,1.05,2.35,2.35,2.35C163.76,110.09,164.81,109.04,164.81,107.75z M211.14,57.78v42.88 M213.49,100.66V57.78
						c0-1.3-1.05-2.35-2.35-2.35s-2.35,1.05-2.35,2.35v42.88c0,1.3,1.05,2.35,2.35,2.35S213.49,101.96,213.49,100.66z"/>
				</g>
			</g>
		</g>
	</g>
</g>
</svg>
