<?xml version="1.0" encoding="utf-8"?>
<!-- Generator: Adobe Illustrator 27.8.1, SVG Export Plug-In . SVG Version: 6.00 Build 0)  -->
<svg version="1.1" id="Layer_1" xmlns="http://www.w3.org/2000/svg" xmlns:xlink="http://www.w3.org/1999/xlink" x="0px" y="0px"
	 viewBox="0 0 350 230" style="enable-background:new 0 0 350 230;" xml:space="preserve">
<style type="text/css">
	.st0{fill:#F5F5F5;stroke:#404040;stroke-width:2;stroke-miterlimit:10;}
	.st1{fill:#49BDC9;}
	.st2{fill:none;stroke:#404040;stroke-miterlimit:10;}
	.st3{fill:#F5F5F5;}
	.st4{fill:none;stroke:#FFFFFF;stroke-miterlimit:10;}
	.st5{fill:#2F2F3F;}
	.st6{fill:#02028C;}
	.st7{fill:#FFFFFF;}
	.st8{fill:#023C44;}
	.st9{fill:#022231;}
	.st10{fill:#53C2BB;}
	.st11{fill:#FF680D;}
	.st12{fill:#00EDFF;}
	.st13{fill:#213000;}
	.st14{fill:#FFB034;}
	.st15{fill:#00556A;}
	.st16{fill:#380C00;}
	.st17{fill:#00556A;stroke:#FFFFFF;stroke-width:0.5;stroke-miterlimit:10;}
	.st18{fill:#750000;}
	.st19{fill:#D40B00;}
	.st20{fill:#8E0073;}
	.st21{fill:#494949;}
	.st22{fill:#259AAB;}
	.st23{fill:#3DAEB7;}
	.st24{fill:#065652;}
	.st25{fill:#A8C6E9;}
	.st26{fill:#3F0101;}
	.st27{fill:#80C445;}
	.st28{fill:#F4D4AE;}
	.st29{fill:#E95454;}
	.st30{fill:#760689;}
	.st31{fill:#DEBFFF;}
	.st32{fill:url(#SVGID_1_);}
	.st33{fill:url(#SVGID_00000049205292222950962370000001678378182360196230_);}
	.st34{fill:url(#_x3C_Compound_Path_x3E__Music_Icon_00000083804677972996285980000005759114026478029754_);}
	.st35{opacity:0.3;fill:url(#_x3C_Compound_Path_x3E__Music_Shades_00000047059245149611762350000011254503659157162932_);}
	.st36{opacity:0.8;fill:#FFFFFF;}
	.st37{fill:#590068;}
	.st38{fill:#293767;}
	.st39{fill:#008294;}
	.st40{fill:url(#SVGID_00000035508465573127428670000001207492135672349105_);}
	.st41{fill:#F5F5F6;}
	.st42{fill:#021284;}
	.st43{fill:#751616;}
	.st44{fill:url(#SVGID_00000111154296367039959110000017026765937718421916_);}
	.st45{fill:#0000A2;}
	.st46{fill:#00833F;}
	.st47{fill:#6B1800;}
	.st48{fill:#54004C;}
	.st49{fill:#C10073;}
	.st50{fill:#7A0334;}
	.st51{fill:#002066;}
	.st52{fill:#5E5700;}
	.st53{fill:#350033;}
	.st54{fill:#FFB000;}
	.st55{fill:#490000;}
	.st56{fill:#875F74;}
	.st57{fill:#003035;}
	.st58{fill:#3659FF;}
	.st59{fill:#9B8F00;}
	.st60{fill:#4C1200;}
	.st61{fill:#016A72;}
	.st62{fill:#FF0000;}
	.st63{fill:#005C68;}
	.st64{fill:#4A0075;}
	.st65{fill:url(#SVGID_00000062192383376430047110000006894403845273830811_);}
	.st66{fill:#020242;}
	.st67{fill:#228DC9;}
	.st68{fill:#551700;}
	.st69{fill:#00C2E0;}
	.st70{fill:#012F4C;}
	.st71{fill:#300018;}
	.st72{fill-rule:evenodd;clip-rule:evenodd;fill:#6D3C5B;}
	.st73{fill-rule:evenodd;clip-rule:evenodd;fill:#020242;}
	.st74{fill:#9B001E;}
	.st75{fill:#00E1FF;}
	.st76{fill:#680040;}
	.st77{fill:#8E8700;}
	.st78{fill:#220247;}
	.st79{fill:#0086FF;}
	.st80{fill:#7C4F00;}
	.st81{fill:#520000;}
	.st82{fill:#04A8CB;}
	.st83{fill:#18618B;}
	.st84{fill:#958C00;}
	.st85{fill:#B0261C;}
	.st86{fill:#013147;}
	.st87{fill:#CD11A1;}
	.st88{fill:#296262;}
	.st89{fill:#5C5E00;}
	.st90{fill:#55B1C8;}
	.st91{fill:#918C34;}
	.st92{fill:#F94351;}
	.st93{fill:#9B001A;}
	.st94{fill:#000066;}
	.st95{fill:#636568;}
	.st96{fill:#002544;}
	.st97{fill:#723300;}
	.st98{fill:url(#SVGID_00000026158452146531854990000001361424536981921459_);}
	.st99{fill:#F393BD;}
	.st100{fill:url(#SVGID_00000130646944657086999890000015606919244886236039_);}
	.st101{fill:#011354;}
	.st102{fill:#38011B;}
	.st103{fill-rule:evenodd;clip-rule:evenodd;fill:#2365A6;}
	.st104{fill:#351B01;}
	.st105{fill-rule:evenodd;clip-rule:evenodd;fill:#351B01;}
	.st106{fill:#02484C;}
	.st107{fill:none;stroke:#02484C;stroke-width:4;stroke-miterlimit:10;}
</style>
<g id="Logo14_00000097502486092409105090000005213691060670311328_">
	<g>
		<g>
			<path class="st96" d="M223.53,133.74c0,6.35-5.15,11.49-11.49,11.49h-71.15c-6.35,0-11.5-5.14-11.5-11.49V15.78
				c0-6.35,5.15-11.5,11.5-11.5h71.15c6.35,0,11.49,5.15,11.49,11.5V133.74z"/>
			<path class="st97" d="M212.03,146.61h-71.15c-7.1,0-12.87-5.77-12.87-12.87V15.78c0-7.1,5.77-12.87,12.87-12.87h71.15
				c7.09,0,12.86,5.77,12.86,12.87v117.96C224.9,140.84,219.13,146.61,212.03,146.61z M140.88,5.65c-5.58,0-10.13,4.54-10.13,10.13
				v117.96c0,5.58,4.54,10.12,10.13,10.12h71.15c5.58,0,10.12-4.54,10.12-10.12V15.78c0-5.58-4.54-10.13-10.12-10.13H140.88z"/>
		</g>
		<path class="st97" d="M136.4,24.45c-0.76,0-1.37-0.61-1.37-1.37c0-7.09,5.77-12.87,12.87-12.87c0.76,0,1.37,0.61,1.37,1.37
			c0,0.76-0.61,1.37-1.37,1.37c-5.59,0-10.13,4.54-10.13,10.12C137.77,23.83,137.16,24.45,136.4,24.45z M217.88,23.08
			c0-7.09-5.77-12.87-12.86-12.87c-0.76,0-1.37,0.61-1.37,1.37c0,0.76,0.61,1.37,1.37,1.37c5.58,0,10.12,4.54,10.12,10.12
			c0,0.76,0.61,1.37,1.37,1.37S217.88,23.83,217.88,23.08z M217.88,126.45c0-0.76-0.61-1.37-1.37-1.37s-1.37,0.61-1.37,1.37
			c0,5.58-4.54,10.13-10.12,10.13c-0.76,0-1.37,0.61-1.37,1.37s0.61,1.37,1.37,1.37C212.11,139.32,217.88,133.54,217.88,126.45z
			 M149.27,137.94c0-0.76-0.61-1.37-1.37-1.37c-5.59,0-10.13-4.54-10.13-10.13c0-0.76-0.61-1.37-1.37-1.37
			c-0.76,0-1.37,0.61-1.37,1.37c0,7.1,5.77,12.87,12.87,12.87C148.66,139.32,149.27,138.7,149.27,137.94z"/>
		<g>
			<g>
				<radialGradient id="SVGID_1_" cx="176.4559" cy="101.0329" r="30.2782" gradientUnits="userSpaceOnUse">
					<stop  offset="0" style="stop-color:#FFFFFF"/>
					<stop  offset="1" style="stop-color:#00113A"/>
				</radialGradient>
				<path class="st32" d="M206.73,101.04c0,16.72-13.56,30.28-30.27,30.28c-16.72,0-30.28-13.56-30.28-30.28
					c0-16.72,13.56-30.28,30.28-30.28C193.18,70.75,206.73,84.31,206.73,101.04z"/>
				<path class="st97" d="M176.46,132.68c-17.45,0-31.65-14.2-31.65-31.65c0-17.45,14.2-31.65,31.65-31.65
					c17.45,0,31.65,14.2,31.65,31.65C208.1,118.49,193.91,132.68,176.46,132.68z M176.46,72.12c-15.94,0-28.91,12.97-28.91,28.91
					c0,15.94,12.97,28.9,28.91,28.9c15.94,0,28.9-12.97,28.9-28.9C205.36,85.09,192.4,72.12,176.46,72.12z"/>
			</g>
			<g>
				<path class="st99" d="M188.29,101.04c0,6.53-5.3,11.83-11.83,11.83c-6.54,0-11.84-5.3-11.84-11.83c0-6.54,5.3-11.84,11.84-11.84
					C182.99,89.2,188.29,94.5,188.29,101.04z"/>
				<path class="st97" d="M176.46,114.24c-7.28,0-13.21-5.92-13.21-13.2c0-7.28,5.93-13.21,13.21-13.21c7.28,0,13.2,5.93,13.2,13.21
					C189.66,108.32,183.74,114.24,176.46,114.24z M176.46,90.57c-5.77,0-10.47,4.7-10.47,10.47c0,5.77,4.7,10.46,10.47,10.46
					c5.77,0,10.46-4.69,10.46-10.46C186.92,95.26,182.23,90.57,176.46,90.57z"/>
			</g>
			<g>
				
					<radialGradient id="SVGID_00000050643231254359196320000002312425092252577187_" cx="176.4575" cy="41.4144" r="23.2016" gradientUnits="userSpaceOnUse">
					<stop  offset="0" style="stop-color:#FFFFFF"/>
					<stop  offset="1" style="stop-color:#00113A"/>
				</radialGradient>
				<path style="fill:url(#SVGID_00000050643231254359196320000002312425092252577187_);" d="M199.66,41.41
					c0,12.82-10.39,23.2-23.2,23.2c-12.82,0-23.2-10.39-23.2-23.2c0-12.81,10.38-23.2,23.2-23.2
					C189.27,18.21,199.66,28.6,199.66,41.41z"/>
				<path class="st97" d="M176.46,65.99c-13.55,0-24.58-11.02-24.58-24.57c0-13.55,11.02-24.57,24.58-24.57
					c13.55,0,24.57,11.02,24.57,24.57C201.03,54.96,190.01,65.99,176.46,65.99z M176.46,19.59c-12.04,0-21.83,9.79-21.83,21.83
					c0,12.04,9.79,21.83,21.83,21.83c12.04,0,21.83-9.79,21.83-21.83C198.29,29.38,188.5,19.59,176.46,19.59z"/>
			</g>
			<g>
				<path class="st99" d="M185.95,41.41c0,5.25-4.25,9.5-9.5,9.5c-5.25,0-9.51-4.25-9.51-9.5c0-5.24,4.26-9.5,9.51-9.5
					C181.71,31.91,185.95,36.17,185.95,41.41z"/>
				<path class="st97" d="M176.46,52.28c-6,0-10.88-4.88-10.88-10.87c0-5.99,4.88-10.87,10.88-10.87c5.99,0,10.87,4.88,10.87,10.87
					C187.33,47.41,182.45,52.28,176.46,52.28z M176.46,33.28c-4.49,0-8.13,3.65-8.13,8.13c0,4.48,3.65,8.13,8.13,8.13
					c4.48,0,8.12-3.65,8.12-8.13C184.58,36.93,180.94,33.28,176.46,33.28z"/>
			</g>
		</g>
	</g>
</g>
</svg>
