<?xml version="1.0" encoding="utf-8"?>
<!-- Generator: Adobe Illustrator 27.8.1, SVG Export Plug-In . SVG Version: 6.00 Build 0)  -->
<svg version="1.1" id="Layer_1" xmlns="http://www.w3.org/2000/svg" xmlns:xlink="http://www.w3.org/1999/xlink" x="0px" y="0px"
	 viewBox="0 0 350 230" style="enable-background:new 0 0 350 230;" xml:space="preserve">
<style type="text/css">
	.st0{fill:#F5F5F5;stroke:#404040;stroke-width:2;stroke-miterlimit:10;}
	.st1{fill:#49BDC9;}
	.st2{fill:none;stroke:#404040;stroke-miterlimit:10;}
	.st3{fill:#F5F5F5;}
	.st4{fill:none;stroke:#FFFFFF;stroke-miterlimit:10;}
	.st5{fill:#2F2F3F;}
	.st6{fill:#02028C;}
	.st7{fill:#FFFFFF;}
	.st8{fill:#023C44;}
	.st9{fill:#022231;}
	.st10{fill:#53C2BB;}
	.st11{fill:#FF680D;}
	.st12{fill:#00EDFF;}
	.st13{fill:#213000;}
	.st14{fill:#FFB034;}
	.st15{fill:#00556A;}
	.st16{fill:#380C00;}
	.st17{fill:#00556A;stroke:#FFFFFF;stroke-width:0.5;stroke-miterlimit:10;}
	.st18{fill:#750000;}
	.st19{fill:#D40B00;}
	.st20{fill:#8E0073;}
	.st21{fill:#494949;}
	.st22{fill:#259AAB;}
	.st23{fill:#3DAEB7;}
	.st24{fill:#065652;}
	.st25{fill:#A8C6E9;}
	.st26{fill:#3F0101;}
	.st27{fill:#80C445;}
	.st28{fill:#F4D4AE;}
	.st29{fill:#E95454;}
	.st30{fill:#760689;}
	.st31{fill:#DEBFFF;}
	.st32{fill:url(#SVGID_1_);}
	.st33{fill:url(#SVGID_00000045615300679188048580000007536538909422089373_);}
	.st34{fill:url(#_x3C_Compound_Path_x3E__Music_Icon_00000148654144743247646140000008245621106189627526_);}
	.st35{opacity:0.3;fill:url(#_x3C_Compound_Path_x3E__Music_Shades_00000170244623543449190320000009484269870185851783_);}
	.st36{opacity:0.8;fill:#FFFFFF;}
	.st37{fill:#590068;}
	.st38{fill:#293767;}
	.st39{fill:#008294;}
	.st40{fill:url(#SVGID_00000152983230674786799850000010384978447020109744_);}
	.st41{fill:#F5F5F6;}
	.st42{fill:#021284;}
	.st43{fill:#751616;}
	.st44{fill:url(#SVGID_00000127028137733792612640000014221020876973734819_);}
	.st45{fill:#0000A2;}
	.st46{fill:#00833F;}
	.st47{fill:#6B1800;}
	.st48{fill:#54004C;}
	.st49{fill:#C10073;}
	.st50{fill:#7A0334;}
	.st51{fill:#002066;}
	.st52{fill:#5E5700;}
	.st53{fill:#350033;}
	.st54{fill:#FFB000;}
	.st55{fill:#490000;}
	.st56{fill:#875F74;}
	.st57{fill:#003035;}
	.st58{fill:#3659FF;}
	.st59{fill:#9B8F00;}
	.st60{fill:#4C1200;}
	.st61{fill:#016A72;}
	.st62{fill:#FF0000;}
	.st63{fill:#005C68;}
	.st64{fill:#4A0075;}
	.st65{fill:url(#SVGID_00000062155411836204720810000014080322987519475131_);}
	.st66{fill:#020242;}
	.st67{fill:#228DC9;}
	.st68{fill:#551700;}
	.st69{fill:#00C2E0;}
	.st70{fill:#012F4C;}
	.st71{fill:#300018;}
	.st72{fill-rule:evenodd;clip-rule:evenodd;fill:#6D3C5B;}
	.st73{fill-rule:evenodd;clip-rule:evenodd;fill:#020242;}
	.st74{fill:#9B001E;}
	.st75{fill:#00E1FF;}
	.st76{fill:#680040;}
	.st77{fill:#8E8700;}
	.st78{fill:#220247;}
	.st79{fill:#0086FF;}
	.st80{fill:#7C4F00;}
	.st81{fill:#520000;}
	.st82{fill:#04A8CB;}
	.st83{fill:#18618B;}
	.st84{fill:#958C00;}
	.st85{fill:#B0261C;}
	.st86{fill:#013147;}
	.st87{fill:#CD11A1;}
	.st88{fill:#296262;}
	.st89{fill:#5C5E00;}
	.st90{fill:#55B1C8;}
	.st91{fill:#918C34;}
	.st92{fill:#F94351;}
	.st93{fill:#9B001A;}
	.st94{fill:#000066;}
	.st95{fill:#636568;}
	.st96{fill:#002544;}
	.st97{fill:#723300;}
	.st98{fill:url(#SVGID_00000039855414998233200930000007880749564688330384_);}
	.st99{fill:#F393BD;}
	.st100{fill:url(#SVGID_00000060746861909202842840000001168210692671336105_);}
	.st101{fill:#011354;}
	.st102{fill:#38011B;}
	.st103{fill-rule:evenodd;clip-rule:evenodd;fill:#2365A6;}
	.st104{fill:#351B01;}
	.st105{fill-rule:evenodd;clip-rule:evenodd;fill:#351B01;}
	.st106{fill:#02484C;}
	.st107{fill:none;stroke:#02484C;stroke-width:4;stroke-miterlimit:10;}
</style>
<g>
	<g>
		<path class="st77" d="M128.99,128.29c3.27,0,5.92,2.65,5.92,5.92c0,3.27-2.65,5.92-5.92,5.92c-3.27,0-5.92-2.65-5.92-5.92
			C123.07,130.95,125.72,128.29,128.99,128.29z M186.62,128.29c3.27,0,5.92,2.65,5.92,5.92c0,3.27-2.65,5.92-5.92,5.92
			c-3.27,0-5.92-2.65-5.92-5.92C180.7,130.95,183.35,128.29,186.62,128.29z M129.01,109.9c3.27,0,5.92,2.65,5.92,5.92
			c0,3.27-2.65,5.92-5.92,5.92c-3.27,0-5.92-2.65-5.92-5.92C123.09,112.55,125.74,109.9,129.01,109.9z M186.65,109.9
			c3.27,0,5.92,2.65,5.92,5.92c0,3.27-2.65,5.92-5.92,5.92c-3.27,0-5.92-2.65-5.92-5.92C180.72,112.55,183.37,109.9,186.65,109.9z
			 M129.01,93.33c3.27,0,5.92,2.65,5.92,5.92c0,3.27-2.65,5.92-5.92,5.92c-3.27,0-5.92-2.65-5.92-5.92
			C123.09,95.98,125.74,93.33,129.01,93.33z M186.65,93.33c3.27,0,5.92,2.65,5.92,5.92c0,3.27-2.65,5.92-5.92,5.92
			c-3.27,0-5.92-2.65-5.92-5.92C180.72,95.98,183.37,93.33,186.65,93.33z"/>
		<path class="st78" d="M217.87,125.15c5.01,0,9.07,4.06,9.07,9.07c0,5.01-4.06,9.07-9.07,9.07s-9.07-4.06-9.07-9.07
			C208.8,129.21,212.86,125.15,217.87,125.15z M217.87,100.83c5.01,0,9.07,4.06,9.07,9.07s-4.06,9.07-9.07,9.07
			s-9.07-4.06-9.07-9.07S212.86,100.83,217.87,100.83z M217.87,76.51c5.01,0,9.07,4.06,9.07,9.07s-4.06,9.07-9.07,9.07
			s-9.07-4.06-9.07-9.07S212.86,76.51,217.87,76.51z M217.87,52.19c5.01,0,9.07,4.06,9.07,9.07s-4.06,9.07-9.07,9.07
			s-9.07-4.06-9.07-9.07S212.86,52.19,217.87,52.19z M217.87,27.87c5.01,0,9.07,4.06,9.07,9.07s-4.06,9.07-9.07,9.07
			s-9.07-4.06-9.07-9.07S212.86,27.87,217.87,27.87z M217.87,3.55c5.01,0,9.07,4.06,9.07,9.07s-4.06,9.07-9.07,9.07
			s-9.07-4.06-9.07-9.07S212.86,3.55,217.87,3.55z M157.83,125.15c5.01,0,9.07,4.06,9.07,9.07c0,5.01-4.06,9.07-9.07,9.07
			c-5.01,0-9.07-4.06-9.07-9.07C148.76,129.21,152.82,125.15,157.83,125.15z M157.83,100.83c5.01,0,9.07,4.06,9.07,9.07
			s-4.06,9.07-9.07,9.07c-5.01,0-9.07-4.06-9.07-9.07S152.82,100.83,157.83,100.83z M157.83,76.51c5.01,0,9.07,4.06,9.07,9.07
			s-4.06,9.07-9.07,9.07c-5.01,0-9.07-4.06-9.07-9.07S152.82,76.51,157.83,76.51z M157.83,52.19c5.01,0,9.07,4.06,9.07,9.07
			s-4.06,9.07-9.07,9.07c-5.01,0-9.07-4.06-9.07-9.07S152.82,52.19,157.83,52.19z M157.83,27.87c5.01,0,9.07,4.06,9.07,9.07
			s-4.06,9.07-9.07,9.07c-5.01,0-9.07-4.06-9.07-9.07S152.82,27.87,157.83,27.87z"/>
	</g>
</g>
</svg>
