<?xml version="1.0" encoding="utf-8"?>
<!-- Generator: Adobe Illustrator 27.8.1, SVG Export Plug-In . SVG Version: 6.00 Build 0)  -->
<svg version="1.1" id="Layer_1" xmlns="http://www.w3.org/2000/svg" xmlns:xlink="http://www.w3.org/1999/xlink" x="0px" y="0px"
	 viewBox="0 0 350 230" style="enable-background:new 0 0 350 230;" xml:space="preserve">
<style type="text/css">
	.st0{fill:#F5F5F5;stroke:#404040;stroke-width:2;stroke-miterlimit:10;}
	.st1{fill:#49BDC9;}
	.st2{fill:none;stroke:#404040;stroke-miterlimit:10;}
	.st3{fill:#F5F5F5;}
	.st4{fill:none;stroke:#FFFFFF;stroke-miterlimit:10;}
	.st5{fill:#2F2F3F;}
	.st6{fill:#02028C;}
	.st7{fill:#FFFFFF;}
	.st8{fill:#023C44;}
	.st9{fill:#022231;}
	.st10{fill:#53C2BB;}
	.st11{fill:#FF680D;}
	.st12{fill:#00EDFF;}
	.st13{fill:#213000;}
	.st14{fill:#FFB034;}
	.st15{fill:#00556A;}
	.st16{fill:#380C00;}
	.st17{fill:#00556A;stroke:#FFFFFF;stroke-width:0.5;stroke-miterlimit:10;}
	.st18{fill:#750000;}
	.st19{fill:#D40B00;}
	.st20{fill:#8E0073;}
	.st21{fill:#494949;}
	.st22{fill:#259AAB;}
	.st23{fill:#3DAEB7;}
	.st24{fill:#065652;}
	.st25{fill:#A8C6E9;}
	.st26{fill:#3F0101;}
	.st27{fill:#80C445;}
	.st28{fill:#F4D4AE;}
	.st29{fill:#E95454;}
	.st30{fill:#760689;}
	.st31{fill:#DEBFFF;}
	.st32{fill:url(#SVGID_1_);}
	.st33{fill:url(#SVGID_00000180359444150649608670000001373189454461915523_);}
	.st34{fill:url(#_x3C_Compound_Path_x3E__Music_Icon_00000135658341431040189780000003647755163038369669_);}
	.st35{opacity:0.3;fill:url(#_x3C_Compound_Path_x3E__Music_Shades_00000157989350986574543680000008402074169062081692_);}
	.st36{opacity:0.8;fill:#FFFFFF;}
	.st37{fill:#590068;}
	.st38{fill:#293767;}
	.st39{fill:#008294;}
	.st40{fill:url(#SVGID_00000083075115743032796710000015181319998661044151_);}
	.st41{fill:#F5F5F6;}
	.st42{fill:#021284;}
	.st43{fill:#751616;}
	.st44{fill:url(#SVGID_00000088815921521485877820000006679774776589563816_);}
	.st45{fill:#0000A2;}
	.st46{fill:#00833F;}
	.st47{fill:#6B1800;}
	.st48{fill:#54004C;}
	.st49{fill:#C10073;}
	.st50{fill:#7A0334;}
	.st51{fill:#002066;}
	.st52{fill:#5E5700;}
	.st53{fill:#350033;}
	.st54{fill:#FFB000;}
	.st55{fill:#490000;}
	.st56{fill:#875F74;}
	.st57{fill:#003035;}
	.st58{fill:#3659FF;}
	.st59{fill:#9B8F00;}
	.st60{fill:#4C1200;}
	.st61{fill:#016A72;}
	.st62{fill:#FF0000;}
	.st63{fill:#005C68;}
	.st64{fill:#4A0075;}
	.st65{fill:url(#SVGID_00000111186348357228016570000012684625477105829309_);}
	.st66{fill:#020242;}
	.st67{fill:#228DC9;}
	.st68{fill:#551700;}
	.st69{fill:#00C2E0;}
	.st70{fill:#012F4C;}
	.st71{fill:#300018;}
	.st72{fill-rule:evenodd;clip-rule:evenodd;fill:#6D3C5B;}
	.st73{fill-rule:evenodd;clip-rule:evenodd;fill:#020242;}
	.st74{fill:#9B001E;}
	.st75{fill:#00E1FF;}
	.st76{fill:#680040;}
	.st77{fill:#8E8700;}
	.st78{fill:#220247;}
	.st79{fill:#0086FF;}
	.st80{fill:#7C4F00;}
	.st81{fill:#520000;}
	.st82{fill:#04A8CB;}
	.st83{fill:#18618B;}
	.st84{fill:#958C00;}
	.st85{fill:#B0261C;}
	.st86{fill:#013147;}
	.st87{fill:#CD11A1;}
	.st88{fill:#296262;}
	.st89{fill:#5C5E00;}
	.st90{fill:#55B1C8;}
	.st91{fill:#918C34;}
	.st92{fill:#F94351;}
	.st93{fill:#9B001A;}
	.st94{fill:#000066;}
	.st95{fill:#636568;}
	.st96{fill:#002544;}
	.st97{fill:#723300;}
	.st98{fill:url(#SVGID_00000105418901123339440040000015647063454055703226_);}
	.st99{fill:#F393BD;}
	.st100{fill:url(#SVGID_00000005946771642035286120000015193308919357613184_);}
	.st101{fill:#011354;}
	.st102{fill:#38011B;}
	.st103{fill-rule:evenodd;clip-rule:evenodd;fill:#2365A6;}
	.st104{fill:#351B01;}
	.st105{fill-rule:evenodd;clip-rule:evenodd;fill:#351B01;}
	.st106{fill:#02484C;}
	.st107{fill:none;stroke:#02484C;stroke-width:4;stroke-miterlimit:10;}
</style>
<g>
	<g>
		<path class="st56" d="M203.12,76.6c0-2.39,1.94-4.33,4.33-4.33c2.39,0,4.33,1.94,4.33,4.33c0,2.39-1.94,4.33-4.33,4.33
			C205.06,80.92,203.12,78.98,203.12,76.6z M142.55,80.92c2.39,0,4.33-1.94,4.33-4.33c0-2.39-1.94-4.33-4.33-4.33
			c-2.39,0-4.33,1.94-4.33,4.33C138.22,78.98,140.16,80.92,142.55,80.92z M103.61,3.05H90.63v8.65h12.98V3.05z M142.55,11.7h-12.98
			V3.05h12.98V11.7z M181.49,11.7h-12.98V3.05h12.98V11.7z M220.42,11.7h-12.98V3.05h12.98V11.7z M259.36,11.7h-12.98V3.05h12.98
			V11.7z"/>
		<path class="st57" d="M73.33,106.88c0,4.77,3.88,8.65,8.65,8.65h186.03c4.77,0,8.65-3.88,8.65-8.65V37.66H73.33V106.88z
			 M99.29,63.62c0-2.39,1.94-4.33,4.33-4.33h8.65c4.78,0,8.65-3.87,8.65-8.65c0-2.39,1.94-4.33,4.33-4.33h99.51
			c2.39,0,4.33,1.94,4.33,4.33c0,4.78,3.87,8.65,8.65,8.65h8.65c2.39,0,4.33,1.94,4.33,4.33v25.96c0,2.39-1.94,4.33-4.33,4.33h-8.65
			c-4.77,0-8.65,3.88-8.65,8.65c0,2.39-1.94,4.33-4.33,4.33h-99.51c-2.39,0-4.33-1.94-4.33-4.33c0-4.77-3.88-8.65-8.65-8.65h-8.65
			c-2.39,0-4.33-1.94-4.33-4.33V63.62z M129.02,98.23h91.95c1.93-7.46,8.71-12.98,16.76-12.98h4.33V67.95h-4.33
			c-8.25,0-14.9-5.7-16.76-12.98h-91.94c-1.87,7.27-8.52,12.98-16.76,12.98h-4.33v17.31h4.33C120.31,85.25,127.1,90.77,129.02,98.23
			z M207.45,63.62c7.16,0,12.98,5.82,12.98,12.98c0,7.16-5.82,12.98-12.98,12.98c-7.16,0-12.98-5.82-12.98-12.98
			C194.47,69.44,200.29,63.62,207.45,63.62z M142.55,63.62c7.16,0,12.98,5.82,12.98,12.98c0,7.16-5.82,12.98-12.98,12.98
			s-12.98-5.82-12.98-12.98C129.57,69.44,135.39,63.62,142.55,63.62z M276.67,11.7v17.31H73.33V11.7c0-4.77,3.88-8.65,8.65-8.65
			v12.98c0,2.39,1.94,4.33,4.33,4.33h21.63c2.39,0,4.33-1.94,4.33-4.33V3.05h8.65v12.98c0,2.39,1.94,4.33,4.33,4.33h21.63
			c2.39,0,4.33-1.94,4.33-4.33V3.05h8.65v12.98c0,2.39,1.94,4.33,4.33,4.33h21.63c2.39,0,4.33-1.94,4.33-4.33V3.05h8.65v12.98
			c0,2.39,1.94,4.33,4.33,4.33h21.63c2.39,0,4.33-1.94,4.33-4.33V3.05h8.65v12.98c0,2.39,1.94,4.33,4.33,4.33h21.63
			c2.39,0,4.33-1.94,4.33-4.33V3.05C272.79,3.05,276.67,6.93,276.67,11.7z"/>
	</g>
</g>
</svg>
