<?xml version="1.0" encoding="utf-8"?>
<!-- Generator: Adobe Illustrator 27.8.1, SVG Export Plug-In . SVG Version: 6.00 Build 0)  -->
<svg version="1.1" id="Layer_1" xmlns="http://www.w3.org/2000/svg" xmlns:xlink="http://www.w3.org/1999/xlink" x="0px" y="0px"
	 viewBox="0 0 350 230" style="enable-background:new 0 0 350 230;" xml:space="preserve">
<style type="text/css">
	.st0{fill:#F5F5F5;stroke:#404040;stroke-width:2;stroke-miterlimit:10;}
	.st1{fill:#49BDC9;}
	.st2{fill:none;stroke:#404040;stroke-miterlimit:10;}
	.st3{fill:#F5F5F5;}
	.st4{fill:none;stroke:#FFFFFF;stroke-miterlimit:10;}
	.st5{fill:#2F2F3F;}
	.st6{fill:#02028C;}
	.st7{fill:#FFFFFF;}
	.st8{fill:#023C44;}
	.st9{fill:#022231;}
	.st10{fill:#53C2BB;}
	.st11{fill:#FF680D;}
	.st12{fill:#00EDFF;}
	.st13{fill:#213000;}
	.st14{fill:#FFB034;}
	.st15{fill:#00556A;}
	.st16{fill:#380C00;}
	.st17{fill:#00556A;stroke:#FFFFFF;stroke-width:0.5;stroke-miterlimit:10;}
	.st18{fill:#750000;}
	.st19{fill:#D40B00;}
	.st20{fill:#8E0073;}
	.st21{fill:#494949;}
	.st22{fill:#259AAB;}
	.st23{fill:#3DAEB7;}
	.st24{fill:#065652;}
	.st25{fill:#A8C6E9;}
	.st26{fill:#3F0101;}
	.st27{fill:#80C445;}
	.st28{fill:#F4D4AE;}
	.st29{fill:#E95454;}
	.st30{fill:#760689;}
	.st31{fill:#DEBFFF;}
	.st32{fill:url(#SVGID_1_);}
	.st33{fill:url(#SVGID_00000033353558289612185190000005101577458951607473_);}
	.st34{fill:url(#_x3C_Compound_Path_x3E__Music_Icon_00000095338834397812568830000003585111796856864691_);}
	.st35{opacity:0.3;fill:url(#_x3C_Compound_Path_x3E__Music_Shades_00000173853245020999627290000008202937472885768102_);}
	.st36{opacity:0.8;fill:#FFFFFF;}
	.st37{fill:#590068;}
	.st38{fill:#293767;}
	.st39{fill:#008294;}
	.st40{fill:url(#SVGID_00000041975404071412226070000012902763642680829871_);}
	.st41{fill:#F5F5F6;}
	.st42{fill:#021284;}
	.st43{fill:#751616;}
	.st44{fill:url(#SVGID_00000155847752061216518570000012940744127019778946_);}
	.st45{fill:#0000A2;}
	.st46{fill:#00833F;}
	.st47{fill:#6B1800;}
	.st48{fill:#54004C;}
	.st49{fill:#C10073;}
	.st50{fill:#7A0334;}
	.st51{fill:#002066;}
	.st52{fill:#5E5700;}
	.st53{fill:#350033;}
	.st54{fill:#FFB000;}
	.st55{fill:#490000;}
	.st56{fill:#875F74;}
	.st57{fill:#003035;}
	.st58{fill:#3659FF;}
	.st59{fill:#9B8F00;}
	.st60{fill:#4C1200;}
	.st61{fill:#016A72;}
	.st62{fill:#FF0000;}
	.st63{fill:#005C68;}
	.st64{fill:#4A0075;}
	.st65{fill:url(#SVGID_00000025423861419033121910000014268997680011878581_);}
	.st66{fill:#020242;}
	.st67{fill:#228DC9;}
	.st68{fill:#551700;}
	.st69{fill:#00C2E0;}
	.st70{fill:#012F4C;}
	.st71{fill:#300018;}
	.st72{fill-rule:evenodd;clip-rule:evenodd;fill:#6D3C5B;}
	.st73{fill-rule:evenodd;clip-rule:evenodd;fill:#020242;}
	.st74{fill:#9B001E;}
	.st75{fill:#00E1FF;}
	.st76{fill:#680040;}
	.st77{fill:#8E8700;}
	.st78{fill:#220247;}
	.st79{fill:#0086FF;}
	.st80{fill:#7C4F00;}
	.st81{fill:#520000;}
	.st82{fill:#04A8CB;}
	.st83{fill:#18618B;}
	.st84{fill:#958C00;}
	.st85{fill:#B0261C;}
	.st86{fill:#013147;}
	.st87{fill:#CD11A1;}
	.st88{fill:#296262;}
	.st89{fill:#5C5E00;}
	.st90{fill:#55B1C8;}
	.st91{fill:#918C34;}
	.st92{fill:#F94351;}
	.st93{fill:#9B001A;}
	.st94{fill:#000066;}
	.st95{fill:#636568;}
	.st96{fill:#002544;}
	.st97{fill:#723300;}
	.st98{fill:url(#SVGID_00000045618690141231683890000000587057543628372132_);}
	.st99{fill:#F393BD;}
	.st100{fill:url(#SVGID_00000159446914028939959180000010446381856665287334_);}
	.st101{fill:#011354;}
	.st102{fill:#38011B;}
	.st103{fill-rule:evenodd;clip-rule:evenodd;fill:#2365A6;}
	.st104{fill:#351B01;}
	.st105{fill-rule:evenodd;clip-rule:evenodd;fill:#351B01;}
	.st106{fill:#02484C;}
	.st107{fill:none;stroke:#02484C;stroke-width:4;stroke-miterlimit:10;}
</style>
<g>
	<g id="Logo_00000127029772117918290240000017436589891859584958_">
		<path d="M220.95,29.11c-11-9.17-29.7-23.23-33.1-27.75h-6.44v88.86c-2.04-0.58-4.19-0.91-6.41-0.91
			c-12.92,0-23.39,10.47-23.39,23.39c0,12.91,10.47,23.39,23.39,23.39c12.92,0,23.39-10.47,23.39-23.39c0,0,0-69.58,0-72.86
			c0-3.29,1.69-11.41,16.97,3.88c9.05,9.05-5.71,14.74-4.8,29.4l2.16-0.31c2.64-7.6,12.94-13.2,17.4-18.02
			C237.45,46.84,231.95,38.28,220.95,29.11z"/>
		<path class="st11" d="M133.98,96.77l-11.1-4.85c-2.64,6.61-3.98,13.59-3.98,20.77c0,7.56,1.48,14.9,4.41,21.83
			c0.03,0.08,0.06,0.15,0.1,0.22l11.09-4.84c-2.32-5.43-3.5-11.21-3.5-17.21C131,107.18,132.01,101.83,133.98,96.77z M216.02,96.77
			c1.97,5.05,2.97,10.4,2.98,15.92c0,5.93-1.16,11.69-3.46,17.14c-0.01,0.02-0.02,0.05-0.03,0.08l11.08,4.84
			c2.99-6.97,4.51-14.38,4.51-22.05c0-7.19-1.33-14.18-3.97-20.78L216.02,96.77z M229.93,91.35c2.61,6.7,3.95,13.8,3.95,21.14
			c0,7.88-1.54,15.52-4.59,22.75c-0.01,0.03-0.03,0.07-0.04,0.1l14.71,6.42c3.98-9.25,5.99-19.09,5.99-29.27
			c0-9.55-1.77-18.82-5.27-27.59L229.93,91.35z M105.46,84.9c-3.5,8.77-5.27,18.04-5.27,27.59c0,10.18,2.01,20.03,5.99,29.27
			l14.71-6.42c-0.02-0.04-0.03-0.07-0.04-0.1c-3.05-7.23-4.59-14.87-4.59-22.75c0.01-7.34,1.34-14.44,3.95-21.14L105.46,84.9z
			 M102.37,82.98l-11.09-4.84c-4.54,10.97-6.84,22.59-6.84,34.56c0,12.22,2.4,24.08,7.2,35.44l0.18,0.4l11.09-4.84
			c-4.22-9.79-6.36-20.21-6.37-31C96.55,102.41,98.51,92.41,102.37,82.98z M258.72,78.13l-11.1,4.85c3.86,9.41,5.82,19.4,5.82,29.72
			c0,10.59-2.07,20.86-6.17,30.54c-0.06,0.15-0.13,0.31-0.19,0.46l11.08,4.83c4.9-11.33,7.38-23.38,7.38-35.83
			C265.55,100.72,263.25,89.09,258.72,78.13z"/>
	</g>
</g>
</svg>
