<?xml version="1.0" encoding="utf-8"?>
<!-- Generator: Adobe Illustrator 27.8.1, SVG Export Plug-In . SVG Version: 6.00 Build 0)  -->
<svg version="1.1" id="Layer_1" xmlns="http://www.w3.org/2000/svg" xmlns:xlink="http://www.w3.org/1999/xlink" x="0px" y="0px"
	 viewBox="0 0 350 230" style="enable-background:new 0 0 350 230;" xml:space="preserve">
<style type="text/css">
	.st0{fill:#F5F5F5;stroke:#404040;stroke-width:2;stroke-miterlimit:10;}
	.st1{fill:#49BDC9;}
	.st2{fill:none;stroke:#404040;stroke-miterlimit:10;}
	.st3{fill:#F5F5F5;}
	.st4{fill:none;stroke:#FFFFFF;stroke-miterlimit:10;}
	.st5{fill:#2F2F3F;}
	.st6{fill:#02028C;}
	.st7{fill:#FFFFFF;}
	.st8{fill:#023C44;}
	.st9{fill:#022231;}
	.st10{fill:#53C2BB;}
	.st11{fill:#FF680D;}
	.st12{fill:#00EDFF;}
	.st13{fill:#213000;}
	.st14{fill:#FFB034;}
	.st15{fill:#00556A;}
	.st16{fill:#380C00;}
	.st17{fill:#00556A;stroke:#FFFFFF;stroke-width:0.5;stroke-miterlimit:10;}
	.st18{fill:#750000;}
	.st19{fill:#D40B00;}
	.st20{fill:#8E0073;}
	.st21{fill:#494949;}
	.st22{fill:#259AAB;}
	.st23{fill:#3DAEB7;}
	.st24{fill:#065652;}
	.st25{fill:#A8C6E9;}
	.st26{fill:#3F0101;}
	.st27{fill:#80C445;}
	.st28{fill:#F4D4AE;}
	.st29{fill:#E95454;}
	.st30{fill:#760689;}
	.st31{fill:#DEBFFF;}
	.st32{fill:url(#SVGID_1_);}
	.st33{fill:url(#SVGID_00000174591248072614694420000013368852208543462045_);}
	.st34{fill:url(#_x3C_Compound_Path_x3E__Music_Icon_00000157283385167585004290000011537538983202497948_);}
	.st35{opacity:0.3;fill:url(#_x3C_Compound_Path_x3E__Music_Shades_00000112601467992363519270000010484319990006448278_);}
	.st36{opacity:0.8;fill:#FFFFFF;}
	.st37{fill:#590068;}
	.st38{fill:#293767;}
	.st39{fill:#008294;}
	.st40{fill:url(#SVGID_00000027602452080367059220000001212747415500656575_);}
	.st41{fill:#F5F5F6;}
	.st42{fill:#021284;}
	.st43{fill:#751616;}
	.st44{fill:url(#SVGID_00000079459238059155330590000001167635226332576896_);}
	.st45{fill:#0000A2;}
	.st46{fill:#00833F;}
	.st47{fill:#6B1800;}
	.st48{fill:#54004C;}
	.st49{fill:#C10073;}
	.st50{fill:#7A0334;}
	.st51{fill:#002066;}
	.st52{fill:#5E5700;}
	.st53{fill:#350033;}
	.st54{fill:#FFB000;}
	.st55{fill:#490000;}
	.st56{fill:#875F74;}
	.st57{fill:#003035;}
	.st58{fill:#3659FF;}
	.st59{fill:#9B8F00;}
	.st60{fill:#4C1200;}
	.st61{fill:#016A72;}
	.st62{fill:#FF0000;}
	.st63{fill:#005C68;}
	.st64{fill:#4A0075;}
	.st65{fill:url(#SVGID_00000178187428897813416610000006243473141079974065_);}
	.st66{fill:#020242;}
	.st67{fill:#228DC9;}
	.st68{fill:#551700;}
	.st69{fill:#00C2E0;}
	.st70{fill:#012F4C;}
	.st71{fill:#300018;}
	.st72{fill-rule:evenodd;clip-rule:evenodd;fill:#6D3C5B;}
	.st73{fill-rule:evenodd;clip-rule:evenodd;fill:#020242;}
	.st74{fill:#9B001E;}
	.st75{fill:#00E1FF;}
	.st76{fill:#680040;}
	.st77{fill:#8E8700;}
	.st78{fill:#220247;}
	.st79{fill:#0086FF;}
	.st80{fill:#7C4F00;}
	.st81{fill:#520000;}
	.st82{fill:#04A8CB;}
	.st83{fill:#18618B;}
	.st84{fill:#958C00;}
	.st85{fill:#B0261C;}
	.st86{fill:#013147;}
	.st87{fill:#CD11A1;}
	.st88{fill:#296262;}
	.st89{fill:#5C5E00;}
	.st90{fill:#55B1C8;}
	.st91{fill:#918C34;}
	.st92{fill:#F94351;}
	.st93{fill:#9B001A;}
	.st94{fill:#000066;}
	.st95{fill:#636568;}
	.st96{fill:#002544;}
	.st97{fill:#723300;}
	.st98{fill:url(#SVGID_00000115499501803301213880000011766505885880060826_);}
	.st99{fill:#F393BD;}
	.st100{fill:url(#SVGID_00000176037221922836083340000004112336150432108201_);}
	.st101{fill:#011354;}
	.st102{fill:#38011B;}
	.st103{fill-rule:evenodd;clip-rule:evenodd;fill:#2365A6;}
	.st104{fill:#351B01;}
	.st105{fill-rule:evenodd;clip-rule:evenodd;fill:#351B01;}
	.st106{fill:#02484C;}
	.st107{fill:none;stroke:#02484C;stroke-width:4;stroke-miterlimit:10;}
</style>
<g id="Logo15">
	<g>
		<g>
			<path class="st7" d="M215.13,53.03v18.49c0,22.16-17.97,40.13-40.13,40.13l0,0c-22.16,0-40.13-17.97-40.13-40.13V53.03H215.13z"
				/>
			<path class="st101" d="M215.14,51.5h-80.27c-0.84,0-1.53,0.68-1.53,1.53v18.49c0,20.53,14.93,37.65,34.51,41.04
				c0.5,0.1,1,0.17,1.53,0.23c0.5,0.09,1.02,0.15,1.53,0.19c1.34,0.13,2.71,0.2,4.09,0.2c1.56,0,3.09-0.09,4.6-0.26
				c0.83-0.09,1.63-0.19,2.43-0.35c0.51-0.07,1.02-0.16,1.53-0.28c18.87-3.96,33.1-20.74,33.1-40.78V53.03
				C216.67,52.18,215.98,51.5,215.14,51.5z M213.59,71.52c0,19.81-14.99,36.17-34.19,38.34c-1.44,0.17-2.91,0.26-4.4,0.26
				c-1.49,0-2.96-0.09-4.4-0.26c-19.22-2.17-34.21-18.54-34.21-38.34V54.56h77.2V71.52z"/>
		</g>
		<g>
			<g>
				<path class="st95" d="M206.06,70.02c0,17.17-13.92,31.09-31.09,31.09l0,0c-17.17,0-31.09-13.92-31.09-31.09V35.78
					c0-17.17,13.92-31.1,31.09-31.1l0,0c17.17,0,31.09,13.92,31.09,31.1V70.02z"/>
				<path class="st101" d="M203.6,20.19c0-0.01-0.01-0.03-0.01-0.04c-0.13-0.25-0.28-0.5-0.41-0.73c0-0.01,0-0.01-0.01-0.01
					c-5.65-9.71-16.18-16.25-28.19-16.25c-12.1,0-22.69,6.61-28.31,16.43c-0.07,0.12-0.15,0.23-0.2,0.36
					c-2.64,4.69-4.12,10.09-4.12,15.84v34.24c0,17.99,14.64,32.62,32.64,32.62c17.99,0,32.61-14.64,32.61-32.62V35.78
					C207.58,30.13,206.14,24.82,203.6,20.19z M204.52,70.02c0,0.2,0,0.41-0.01,0.61c-0.09,4.73-1.31,9.2-3.38,13.14
					c-0.57,1.06-1.18,2.08-1.86,3.06c-5.33,7.7-14.23,12.76-24.29,12.76c-10.06,0-18.98-5.05-24.31-12.76
					c-0.68-0.98-1.31-2-1.86-3.06c-2.08-3.93-3.31-8.4-3.39-13.14c-0.01-0.2-0.01-0.41-0.01-0.61V35.78c0-0.2,0-0.41,0.01-0.61
					c0.09-4.75,1.31-9.22,3.41-13.15c0.54-1.06,1.16-2.08,1.85-3.06c5.33-7.7,14.24-12.76,24.31-12.76
					c10.06,0,18.95,5.05,24.29,12.76c0.67,0.98,1.3,2,1.85,3.06c2.08,3.93,3.31,8.4,3.39,13.15c0.01,0.2,0.01,0.41,0.01,0.61V70.02z
					"/>
			</g>
		</g>
		<g>
			<g>
				<g>
					<path class="st101" d="M167.58,22.02h-19.69c-0.84,0-1.53-0.68-1.53-1.53c0-0.84,0.68-1.53,1.53-1.53h19.69
						c0.84,0,1.53,0.68,1.53,1.53C169.11,21.34,168.43,22.02,167.58,22.02z"/>
				</g>
				<g>
					<path class="st101" d="M167.58,38.23h-23.71c-0.84,0-1.53-0.68-1.53-1.53s0.68-1.53,1.53-1.53h23.71
						c0.84,0,1.53,0.68,1.53,1.53S168.43,38.23,167.58,38.23z"/>
				</g>
				<g>
					<path class="st101" d="M167.58,54.42h-23.71c-0.84,0-1.53-0.68-1.53-1.53s0.68-1.53,1.53-1.53h23.71
						c0.84,0,1.53,0.68,1.53,1.53S168.43,54.42,167.58,54.42z"/>
				</g>
				<g>
					<path class="st101" d="M167.58,70.63h-23.71c-0.84,0-1.53-0.68-1.53-1.53c0-0.84,0.68-1.53,1.53-1.53h23.71
						c0.84,0,1.53,0.68,1.53,1.53C169.11,69.94,168.43,70.63,167.58,70.63z"/>
				</g>
				<g>
					<path class="st101" d="M167.58,86.83h-19.49c-0.84,0-1.53-0.68-1.53-1.53s0.68-1.53,1.53-1.53h19.49
						c0.84,0,1.53,0.68,1.53,1.53S168.43,86.83,167.58,86.83z"/>
				</g>
			</g>
			<g>
				<g>
					<path class="st101" d="M202.1,22.02h-19.7c-0.84,0-1.53-0.68-1.53-1.53c0-0.84,0.68-1.53,1.53-1.53h19.7
						c0.84,0,1.53,0.68,1.53,1.53C203.63,21.34,202.94,22.02,202.1,22.02z"/>
				</g>
				<g>
					<path class="st101" d="M206.12,38.23H182.4c-0.84,0-1.53-0.68-1.53-1.53s0.68-1.53,1.53-1.53h23.71c0.84,0,1.53,0.68,1.53,1.53
						S206.96,38.23,206.12,38.23z"/>
				</g>
				<g>
					<path class="st101" d="M206.12,54.42H182.4c-0.84,0-1.53-0.68-1.53-1.53s0.68-1.53,1.53-1.53h23.71c0.84,0,1.53,0.68,1.53,1.53
						S206.96,54.42,206.12,54.42z"/>
				</g>
				<g>
					<path class="st101" d="M206.12,70.63H182.4c-0.84,0-1.53-0.68-1.53-1.53c0-0.84,0.68-1.53,1.53-1.53h23.71
						c0.84,0,1.53,0.68,1.53,1.53C207.64,69.94,206.96,70.63,206.12,70.63z"/>
				</g>
				<g>
					<path class="st101" d="M201.9,86.83H182.4c-0.84,0-1.53-0.68-1.53-1.53s0.68-1.53,1.53-1.53h19.49c0.84,0,1.53,0.68,1.53,1.53
						S202.74,86.83,201.9,86.83z"/>
				</g>
			</g>
		</g>
		<g>
			<g>
				<rect x="170.91" y="151.12" class="st102" width="9.6" height="4.57"/>
				<polygon class="st102" points="198.62,149.59 198.62,162.23 152.78,162.23 152.78,149.59 170.91,149.59 170.91,151.12 
					169.38,151.12 169.38,157.22 182.03,157.22 182.03,151.12 180.51,151.12 180.51,149.59 				"/>
			</g>
		</g>
		<path class="st102" d="M170.91,151.12v4.57h9.6v-4.57H170.91z M169.38,111.39v39.73h1.53v-3.06h9.6v3.06h1.53v-39.73H169.38z
			 M170.91,155.7h9.6v-4.57h-9.6V155.7z"/>
		<path class="st101" d="M183.43,110.77c-0.25-0.54-0.77-0.9-1.4-0.9h-12.66c-0.71,0-1.31,0.48-1.47,1.15
			c-0.04,0.12-0.06,0.25-0.06,0.38v45.83c0,0.84,0.68,1.53,1.53,1.53h12.66c0.84,0,1.53-0.68,1.53-1.53v-45.83
			C183.56,111.18,183.52,110.96,183.43,110.77z M182.03,157.22h-12.66v-6.1h1.53v-38.2h9.6v38.2h1.53V157.22z"/>
		<path class="st101" d="M198.62,148.06h-18.12v3.06h16.59v9.58h-42.77v-9.58h16.59v-3.06h-18.12c-0.86,0-1.54,0.68-1.54,1.53v12.64
			c0,0.84,0.68,1.53,1.54,1.53h45.83c0.84,0,1.53-0.68,1.53-1.53v-12.64C200.15,148.75,199.47,148.06,198.62,148.06z"/>
	</g>
</g>
</svg>
