<?xml version="1.0" encoding="utf-8"?>
<!-- Generator: Adobe Illustrator 27.8.1, SVG Export Plug-In . SVG Version: 6.00 Build 0)  -->
<svg version="1.1" id="Layer_1" xmlns="http://www.w3.org/2000/svg" xmlns:xlink="http://www.w3.org/1999/xlink" x="0px" y="0px"
	 viewBox="0 0 350 230" style="enable-background:new 0 0 350 230;" xml:space="preserve">
<style type="text/css">
	.st0{fill:#F5F5F5;stroke:#404040;stroke-width:2;stroke-miterlimit:10;}
	.st1{fill:#49BDC9;}
	.st2{fill:none;stroke:#404040;stroke-miterlimit:10;}
	.st3{fill:#F5F5F5;}
	.st4{fill:none;stroke:#FFFFFF;stroke-miterlimit:10;}
	.st5{fill:#2F2F3F;}
	.st6{fill:#02028C;}
	.st7{fill:#FFFFFF;}
	.st8{fill:#023C44;}
	.st9{fill:#022231;}
	.st10{fill:#53C2BB;}
	.st11{fill:#FF680D;}
	.st12{fill:#00EDFF;}
	.st13{fill:#213000;}
	.st14{fill:#FFB034;}
	.st15{fill:#00556A;}
	.st16{fill:#380C00;}
	.st17{fill:#00556A;stroke:#FFFFFF;stroke-width:0.5;stroke-miterlimit:10;}
	.st18{fill:#750000;}
	.st19{fill:#D40B00;}
	.st20{fill:#8E0073;}
	.st21{fill:#494949;}
	.st22{fill:#259AAB;}
	.st23{fill:#3DAEB7;}
	.st24{fill:#065652;}
	.st25{fill:#A8C6E9;}
	.st26{fill:#3F0101;}
	.st27{fill:#80C445;}
	.st28{fill:#F4D4AE;}
	.st29{fill:#E95454;}
	.st30{fill:#760689;}
	.st31{fill:#DEBFFF;}
	.st32{fill:url(#SVGID_1_);}
	.st33{fill:url(#SVGID_00000065063360488653609020000008907082365565030543_);}
	.st34{fill:url(#_x3C_Compound_Path_x3E__Music_Icon_00000031174916247042425580000018155145382259028874_);}
	.st35{opacity:0.3;fill:url(#_x3C_Compound_Path_x3E__Music_Shades_00000101096035192017689480000014700033121419926675_);}
	.st36{opacity:0.8;fill:#FFFFFF;}
	.st37{fill:#590068;}
	.st38{fill:#293767;}
	.st39{fill:#008294;}
	.st40{fill:url(#SVGID_00000136394264420518164110000010083090167734069946_);}
	.st41{fill:#F5F5F6;}
	.st42{fill:#021284;}
	.st43{fill:#751616;}
	.st44{fill:url(#SVGID_00000024692591269727991370000017064043332774423742_);}
	.st45{fill:#0000A2;}
	.st46{fill:#00833F;}
	.st47{fill:#6B1800;}
	.st48{fill:#54004C;}
	.st49{fill:#C10073;}
	.st50{fill:#7A0334;}
	.st51{fill:#002066;}
	.st52{fill:#5E5700;}
	.st53{fill:#350033;}
	.st54{fill:#FFB000;}
	.st55{fill:#490000;}
	.st56{fill:#875F74;}
	.st57{fill:#003035;}
	.st58{fill:#3659FF;}
	.st59{fill:#9B8F00;}
	.st60{fill:#4C1200;}
	.st61{fill:#016A72;}
	.st62{fill:#FF0000;}
	.st63{fill:#005C68;}
	.st64{fill:#4A0075;}
	.st65{fill:url(#SVGID_00000002342287380853853770000007647324328817228710_);}
	.st66{fill:#020242;}
	.st67{fill:#228DC9;}
	.st68{fill:#551700;}
	.st69{fill:#00C2E0;}
	.st70{fill:#012F4C;}
	.st71{fill:#300018;}
	.st72{fill-rule:evenodd;clip-rule:evenodd;fill:#6D3C5B;}
	.st73{fill-rule:evenodd;clip-rule:evenodd;fill:#020242;}
	.st74{fill:#9B001E;}
	.st75{fill:#00E1FF;}
	.st76{fill:#680040;}
	.st77{fill:#8E8700;}
	.st78{fill:#220247;}
	.st79{fill:#0086FF;}
	.st80{fill:#7C4F00;}
	.st81{fill:#520000;}
	.st82{fill:#04A8CB;}
	.st83{fill:#18618B;}
	.st84{fill:#958C00;}
	.st85{fill:#B0261C;}
	.st86{fill:#013147;}
	.st87{fill:#CD11A1;}
	.st88{fill:#296262;}
	.st89{fill:#5C5E00;}
	.st90{fill:#55B1C8;}
	.st91{fill:#918C34;}
	.st92{fill:#F94351;}
	.st93{fill:#9B001A;}
	.st94{fill:#000066;}
	.st95{fill:#636568;}
	.st96{fill:#002544;}
	.st97{fill:#723300;}
	.st98{fill:url(#SVGID_00000123425759375014174470000009126533249989933219_);}
	.st99{fill:#F393BD;}
	.st100{fill:url(#SVGID_00000137091740225701625020000002768994158145480595_);}
	.st101{fill:#011354;}
	.st102{fill:#38011B;}
	.st103{fill-rule:evenodd;clip-rule:evenodd;fill:#2365A6;}
	.st104{fill:#351B01;}
	.st105{fill-rule:evenodd;clip-rule:evenodd;fill:#351B01;}
	.st106{fill:#02484C;}
	.st107{fill:none;stroke:#02484C;stroke-width:4;stroke-miterlimit:10;}
</style>
<g>
	<g>
		<path class="st31" d="M225.86,138.56c-9.8,8.27-22.4,13.51-36.68,15.39c-0.87,0.11-1.74,0.22-2.62,0.3
			c-1.55,0.16-3.12,0.28-4.71,0.36c-1.5,0.07-3.01,0.11-4.54,0.12c-2.18,0.01-4.4-0.06-6.64-0.2c-1-0.06-2-0.14-3.01-0.23
			c-1.31-0.12-2.62-0.26-3.94-0.43c-1.22-0.16-2.45-0.33-3.69-0.53c-10.55-1.69-21.52-4.95-32.58-9.87
			c-60.6-26.96,6.22-39.22-5.51-65.72c-27.52-62.16-4.63-84,16.44-67.99c59.86,45.51,39.83-17.53,78.5-4.09
			C255.56,19.11,258.56,110.98,225.86,138.56z"/>
		<g id="_x32_">
			<ellipse cx="186.11" cy="88.12" rx="8.8" ry="10.49"/>
			<path d="M186.57,81.08v73.18c-1.55,0.16-3.12,0.28-4.71,0.36c-1.5,0.07-3.01,0.11-4.54,0.12V81.08H186.57z"/>
			<path d="M186.11,68.26c0,0,5.78,13.36,6.38,18.52c0.59,5.16-0.32,10.74-5.74,11.8c0,0,4.64-3.75,3.2-9.97
				c-0.57-1.48-4.99,0.21-4.99,2.07s0.83,11.31-7.45,10.48l-5.32-31.37L186.11,68.26z"/>
			<polygon points="173.23,69.78 181.13,87.35 162.42,94.64 156.46,77.23 			"/>
			<ellipse cx="173.23" cy="91.98" rx="8.8" ry="10.49"/>
			<ellipse cx="171" cy="92.37" rx="8.8" ry="10.49"/>
		</g>
		<g id="_x31_">
			<linearGradient id="SVGID_1_" gradientUnits="userSpaceOnUse" x1="184.0007" y1="18.9521" x2="128.2047" y2="84.6831">
				<stop  offset="0" style="stop-color:#FAC727"/>
				<stop  offset="1" style="stop-color:#EF5139"/>
			</linearGradient>
			<path class="st32" d="M171,71.73c0,0-10.74,7.19-12.18,8.12c-1.44,0.93-5.92,3.64-12.94-4.06c-1.52-1.69,2.11-4.4,6.6-7.87
				c3.04-2.45,1.61-3.98,0-6.01s-11.16,6.43-8.63,10.07c0,0-5.41-6.17-2.45-9.81c2.96-3.64,9.64-4.48,8.12-7.78
				c-1.52-3.3-1.95-6.43-6.17-2.28c-4.23,4.14-5.33,6.94-4.99,8.04c0,0-3.72-5.5-1.01-8.04c2.71-2.54,5.24-5.07,7.19-6.6
				c1.95-1.52,0.25-3.64-0.68-4.74c-0.93-1.1-10.23,4.31-9.13,10.32c0,0-5.24-6.17-1.95-8.88c3.3-2.71,5.5-4.91,6.6-6.01
				c1.1-1.1,0.93-2.71-0.59-5.33s-8.63,4.4-8.63,10.15c0,0-4.23-4.74-0.93-11.33c3.3-6.6,9.05-14.72,15.22-15.56
				c1.18,0,2.51,1.05,3.19,3.61c0.72,2.71,4.54,0.25,4.2-0.85c-0.34-1.1-1.39-3.27-3.41-3.61c0,0,8.05-3.78,7.02,1.52
				c1.01,1.95,2.2,1.69,3.38,1.27c1.18-0.42,1.55-2.28-1.66-4.91c0,0,10.47-2.85,7.25,2.62c0.51,1.35,4.65,1.44,2.96-1.35
				c-1.01-1.46-1.95-1.92-2.96-2.35c0,0,6.85-3.06,11.76,4.89c0.76,1.35-1.42,1.43-4.97,1.68c-3.55,0.25,1.07,6.94,3.79,5.68
				c4.96-2.31,4.75-0.21,5.24,1.18c1.42,4.04,1.29,3.38-2.91,3.98c-4.2,0.59-0.26,6.33,2.23,5.58c5.75-1.72,5.12-0.14,5.98,2.1
				c1.08,2.82,2.47,3.88-3.19,3.57c-3.64-0.2-0.8,6.54,2.62,5.75c5.64-1.3,4.83-0.07,5.36,3.43c0.37,2.39-2.33,0.91-4.62,1.63
				c-1.93,0.61-0.84,6.44,2.62,5.69c5.04-1.1,5.67-0.92,5.78,2.96c0.12,4.06-1.81,9.42-7.1,10.83c0,0-12.2,1.52-13.76,1.78
				C171.68,71.05,171.67,71.29,171,71.73z"/>
			
				<linearGradient id="SVGID_00000054266307763522634330000007194709410684800918_" gradientUnits="userSpaceOnUse" x1="176.8664" y1="22.0963" x2="161.4033" y2="46.4122">
				<stop  offset="0" style="stop-color:#1E130D"/>
				<stop  offset="1" style="stop-color:#35251D"/>
			</linearGradient>
			<path style="fill:url(#SVGID_00000054266307763522634330000007194709410684800918_);" d="M167.04,20.47
				c-0.59-0.62-2-1.61-4.89-1.15c-0.56,0.09-1.22,0.18-1.92,0.27c-5.2,0.71-13.91,1.89-18.4,6.75c-0.81,0.87-0.15,2.61,0.94,3.62
				c0.64,0.59,1.35,0.9,2.04,0.9c0.47,0,0.93-0.14,1.35-0.42c2.09-1.39,8.85-3.5,19.23-5.07c1.05-0.16,1.88-0.78,2.26-1.71
				C168.1,22.58,167.86,21.33,167.04,20.47z M172.39,34.23c-0.39,0.97-1.21,1.62-2.26,1.79c-10.38,1.64-17.14,3.84-19.23,5.29
				c-0.42,0.3-0.89,0.44-1.35,0.44c-0.69,0-1.4-0.32-2.04-0.94c-1.09-1.06-1.75-2.88-0.94-3.79c4.49-5.07,13.2-6.31,18.4-7.05
				c0.7-0.1,1.36-0.19,1.92-0.29c2.89-0.47,4.3,0.55,4.89,1.21C172.59,31.81,172.83,33.11,172.39,34.23z M177.5,44.88
				c-0.39,0.94-1.21,1.57-2.26,1.73c-10.38,1.58-17.14,3.71-19.23,5.12c-0.42,0.29-0.89,0.43-1.35,0.43c-0.69,0-1.4-0.31-2.04-0.91
				c-1.09-1.03-1.75-2.78-0.94-3.66c4.49-4.91,13.2-6.1,18.4-6.82c0.7-0.1,1.37-0.19,1.92-0.28c2.89-0.46,4.3,0.54,4.89,1.17
				C177.7,42.54,177.94,43.8,177.5,44.88z M181.73,55.05c-0.39,0.97-1.21,1.62-2.26,1.78c-10.38,1.63-17.14,3.82-19.23,5.27
				c-0.42,0.29-0.89,0.44-1.35,0.44c-0.69,0-1.4-0.32-2.04-0.93c-1.09-1.06-1.75-2.86-0.94-3.77c4.49-5.04,13.2-6.28,18.4-7.01
				c0.7-0.1,1.37-0.19,1.92-0.28c2.89-0.47,4.3,0.55,4.89,1.2C181.93,52.64,182.17,53.94,181.73,55.05z M151.09,69.33
				c-1.75,1.23-3.73,2.62-4.76,4.5c-0.07,0.13-0.17,0.23-0.3,0.29c-0.13,0.07-0.27,0.1-0.44,0.1c-0.22,0-0.47-0.06-0.72-0.19
				c-1.04-0.53-2.53-2.5-0.77-6.12c1.43-2.94,3.7-5.04,6.76-6.25c0.08-0.03,0.15-0.06,0.19-0.08c0.25-0.11,0.57-0.08,0.93,0.09
				c0.8,0.38,1.85,1.48,2.4,3.46C154.84,66.7,153.1,67.92,151.09,69.33z M146.2,58.92c-1.75,1.23-3.77,2.05-4.8,3.93
				c-0.07,0.13-0.17,0.23-0.3,0.29c-0.13,0.07-0.27,0.1-0.44,0.1c-0.22,0-0.47-0.06-0.72-0.19c-1.04-0.53-2.53-2.5-0.77-6.12
				c1.43-2.94,3.8-5.91,6.86-7.12c0.08-0.03,0.15-0.06,0.19-0.08c0.25-0.11,0.57-0.08,0.93,0.09c0.8,0.38,2.03,3.44,2.59,5.42
				C150.18,56.81,148.21,57.51,146.2,58.92z M141.93,48.55c-1.75,1.23-3.73,2.62-4.76,4.5c-0.07,0.13-0.17,0.23-0.3,0.29
				c-0.13,0.07-0.27,0.1-0.44,0.1c-0.22,0-0.47-0.06-0.72-0.19c-1.04-0.53-2.53-2.5-0.77-6.12c1.43-2.94,3.7-5.04,6.76-6.25
				c0.08-0.03,1.11-0.42,1.16-0.44c0.25-0.11,0.57-0.08,0.93,0.09c0.8,0.37,1.85,1.48,2.4,3.46
				C146.64,45.56,143.94,47.14,141.93,48.55z M137.26,38.83c-1.75,1.23-3.99,2.46-5.02,4.34c-0.07,0.13-0.17,0.23-0.3,0.29
				c-0.13,0.07-0.27,0.1-0.44,0.1c-0.22,0-0.47-0.06-0.72-0.19c-1.04-0.53-2.53-2.5-0.77-6.12c1.43-2.94,4.18-5.7,7.24-6.91
				c0.08-0.03,0.15-0.06,0.19-0.08c0.25-0.11,0.57-0.08,0.93,0.09c0.8,0.38,1.85,1.48,2.4,3.46
				C141.21,35.38,139.27,37.42,137.26,38.83z M193.3,54.95l-0.47,0.01c-0.92,0.02-3.89,0.13-4.78,0.32l-0.1,0.02
				c-0.16,0.03-0.32,0.06-0.47,0.07c-0.95,0.06-1.94,0.07-3.09-3.56c-0.12-0.39,0.17-1.37,0.43-1.68c0.95-1.14,4.4-1.16,5.07-1.08
				c0.36,0.04,0.9,0.42,2.07,2.86c0.63,1.3,1.15,2.6,1.16,2.61L193.3,54.95z M189.56,44.43h-0.47c-0.92,0-3.89,0.05-4.79,0.22
				l-0.1,0.02c-0.16,0.03-0.32,0.05-0.47,0.06c-0.95,0.04-2.34-0.84-3.41-4.49c-0.11-0.39-0.04-0.76,0.23-1.06
				c0.97-1.12,5.06-0.81,5.73-0.72c0.36,0.05,0.89,0.44,2.01,2.9c0.6,1.31,1.1,2.62,1.1,2.64L189.56,44.43z M184.35,32.65
				l-0.47,0.03c-0.92,0.05-3.88,0.28-4.77,0.49l-0.1,0.02c-0.16,0.04-0.31,0.07-0.46,0.09c-0.95,0.1-2.08-0.29-3.36-3.87
				c-0.14-0.38-0.08-0.76,0.17-1.07c0.91-1.18,4.7-1.52,5.37-1.46c0.37,0.03,0.91,0.39,2.18,2.78c0.67,1.28,1.25,2.56,1.25,2.57
				L184.35,32.65z M179.54,21.8l-0.47,0.03c-0.92,0.05-3.86,0.48-4.74,0.69l-0.1,0.02c-0.16,0.04-0.32,0.07-0.46,0.09
				c-0.95,0.1-2.96-0.82-4.24-4.41c-0.14-0.38-0.08-0.76,0.16-1.07c0.91-1.18,5.56-1.18,6.23-1.12c0.37,0.03,0.91,0.39,2.18,2.78
				c0.67,1.28,1.25,2.56,1.25,2.57L179.54,21.8z M151.73,18.15c-0.02,0.01-1.59,1.17-2.72,1.17c-0.3,0-0.59-0.05-0.83-0.17
				c-0.33-0.17-0.53-0.46-0.58-0.85c-0.11-0.81-1.14-2.44-1.89-3.12c-0.23-0.21-0.43-0.38-0.57-0.53c-0.12-0.12-0.4-0.41-0.19-0.69
				c0.38-0.51,2.31-0.99,3.23-0.99c0.1,0,0.19,0.01,0.27,0.02c2.35,0.41,3.66,2.11,3.88,3.51
				C152.44,17.28,152.22,17.89,151.73,18.15z M159.85,16.6c-0.02,0.01-1.44,0.52-2.55,0.4c-0.3-0.03-0.64-0.09-0.86-0.24
				c-0.31-0.2-0.85-0.66-0.87-1.05c-0.02-0.82-0.72-1.94-1.39-2.69c-0.21-0.23-0.39-0.43-0.51-0.58c-0.11-0.14-0.35-0.45-0.12-0.7
				c0.44-0.47,2.41-0.74,3.32-0.64c0.1,0.01,0.19,0.03,0.27,0.05c2.29,0.65,3.41,2.48,3.48,3.9
				C160.66,15.81,160.37,16.39,159.85,16.6z M167.37,15.06c-0.59,0.09-1.23,0.01-2.23-0.09c-0.27-0.03-0.53-0.1-0.73-0.24
				c-0.28-0.19-0.43-0.49-0.44-0.87c-0.02-0.79-1.1-1.49-1.7-2.2c-0.19-0.22-0.35-0.41-0.46-0.56c-0.1-0.13-0.32-0.43-0.1-0.67
				c0.4-0.45,2.18-0.72,3-0.64c0.09,0.01,0.17,0.02,0.24,0.04c2.07,0.61,3.07,2.36,3.12,3.72C168.1,14.3,167.87,14.98,167.37,15.06z
				"/>
		</g>
		
			<linearGradient id="_x3C_Compound_Path_x3E__Music_Icon_00000168075891667085746300000017878243186776721299_" gradientUnits="userSpaceOnUse" x1="193.5731" y1="51.7732" x2="233.4368" y2="51.7732">
			<stop  offset="0" style="stop-color:#4E1F88"/>
			<stop  offset="1" style="stop-color:#9D42B3"/>
		</linearGradient>
		
			<path id="_x3C_Compound_Path_x3E__Music_Icon" style="fill:url(#_x3C_Compound_Path_x3E__Music_Icon_00000168075891667085746300000017878243186776721299_);" d="
			M221.53,73.94c-0.32,0.3-1.29,1.36-1.88,1.19c-0.45-0.14-0.54-0.54-0.38-0.96c0.57-1.54,1.76-2.78,2.31-4.34
			c0.53-1.49,0.8-3.94,0.01-5.6c-0.84-1.76-2.62-3.73-4.57-4.45l-2.13,11.92c-0.27,1.52-0.5,3.06-0.82,4.57
			c-0.5,2.31-2.41,3.84-4.6,4.38c-1.05,0.27-2.2,0.29-3.29,0.07c-1.38-0.27-2.67-0.93-3.61-1.95c-1.57-1.71-1.6-4.32-0.63-6.36
			c1.3-2.76,4.92-3.26,7.63-2.11c0.78,0.33,1.49,0.8,2.04,1.39c1.17-6.63,2.34-13.26,3.51-19.89c0.01-0.06,0.03-0.12,0.06-0.17
			c0.03-0.05,0.07-0.1,0.12-0.13c0,0,0,0,0,0l0.03-0.02c0.05-0.03,0.1-0.06,0.16-0.07c0.06-0.01,0.12-0.01,0.18,0
			c0.55,0.1,1.29,0.09,1.8,0.34c0.3,0.15,0.53,0.67,0.71,0.93c1.54,2.21,3.13,4.39,4.67,6.59l0,0
			C226.18,64.03,225.85,69.93,221.53,73.94z M232.22,26.98L232.22,26.98c-0.84-1.2-1.71-2.38-2.54-3.59
			c-0.1-0.14-0.22-0.42-0.39-0.51c-0.28-0.13-0.68-0.13-0.98-0.18c-0.03-0.01-0.06-0.01-0.1,0c-0.03,0.01-0.06,0.02-0.09,0.04
			l-0.01,0.01c0,0,0,0,0,0c-0.03,0.02-0.05,0.04-0.07,0.07c-0.02,0.03-0.03,0.06-0.03,0.09c-0.64,3.61-1.27,7.22-1.91,10.83
			c-0.3-0.32-0.69-0.58-1.11-0.76c-1.48-0.63-3.44-0.35-4.15,1.15c-0.53,1.11-0.51,2.53,0.34,3.46c0.51,0.56,1.22,0.91,1.97,1.06
			c0.6,0.12,1.22,0.11,1.79-0.04c1.19-0.3,2.23-1.13,2.5-2.39c0.18-0.82,0.3-1.66,0.45-2.49l1.16-6.49c1.06,0.4,2.03,1.47,2.49,2.42
			c0.43,0.9,0.28,2.24-0.01,3.05c-0.3,0.84-0.95,1.52-1.26,2.36c-0.09,0.23-0.04,0.45,0.21,0.52c0.32,0.09,0.85-0.49,1.02-0.65
			C233.85,32.78,234.03,29.56,232.22,26.98z M206.7,27.31L206.7,27.31c-1.27-1.35-2.56-2.67-3.82-4.02
			c-0.15-0.16-0.35-0.49-0.58-0.56c-0.37-0.12-0.87-0.04-1.26-0.05c-0.04,0-0.08,0-0.12,0.02c-0.04,0.01-0.07,0.04-0.1,0.06
			l-0.02,0.01c0,0,0,0,0,0c-0.03,0.03-0.05,0.06-0.07,0.1c-0.02,0.04-0.03,0.08-0.03,0.12c-0.14,4.62-0.29,9.23-0.43,13.85
			c-0.44-0.35-0.96-0.6-1.53-0.74c-1.95-0.51-4.36,0.18-4.97,2.18c-0.45,1.48-0.18,3.25,1.06,4.26c0.74,0.6,1.69,0.92,2.65,0.97
			c0.76,0.04,1.54-0.09,2.23-0.37c1.43-0.59,2.58-1.81,2.69-3.43c0.07-1.06,0.07-2.13,0.11-3.19l0.28-8.31
			c1.39,0.3,2.8,1.46,3.54,2.58c0.7,1.05,0.75,2.74,0.54,3.81c-0.22,1.11-0.9,2.07-1.14,3.17c-0.07,0.3,0.03,0.56,0.35,0.61
			c0.42,0.06,0.97-0.76,1.16-0.99C209.78,34.24,209.42,30.2,206.7,27.31z"/>
		
			<linearGradient id="_x3C_Compound_Path_x3E__Music_Shades_00000101104817785855781760000010468794344907931023_" gradientUnits="userSpaceOnUse" x1="206.1965" y1="33.5844" x2="217.3265" y2="67.3007">
			<stop  offset="0" style="stop-color:#FFFFFF"/>
			<stop  offset="1" style="stop-color:#FFFFFF"/>
		</linearGradient>
		
			<path id="_x3C_Compound_Path_x3E__Music_Shades" style="opacity:0.3;fill:url(#_x3C_Compound_Path_x3E__Music_Shades_00000101104817785855781760000010468794344907931023_);" d="
			M204.69,72.64c-0.77,1.2-1.54,4.37,1.5,8.1c-1.38-0.27-2.67-0.93-3.61-1.95c-1.57-1.71-1.6-4.32-0.63-6.36
			c1.3-2.76,4.92-3.26,7.63-2.11C207.26,70.15,205.58,71.25,204.69,72.64z M224.98,32.98c-1.48-0.63-3.44-0.35-4.15,1.15
			c-0.53,1.11-0.51,2.53,0.34,3.46c0.51,0.56,1.22,0.91,1.97,1.06c-1.65-2.03-1.23-3.75-0.81-4.41
			C222.81,33.49,223.73,32.9,224.98,32.98z M198.75,36.1c-1.95-0.51-4.36,0.18-4.97,2.18c-0.45,1.48-0.18,3.25,1.06,4.26
			c0.74,0.6,1.69,0.92,2.65,0.97c-2.43-2.23-2.22-4.46-1.81-5.35C196.14,37.13,197.17,36.22,198.75,36.1z"/>
		<path id="_x3C_Compound_Path_x3E__Stars" class="st36" d="M140.84,101.27c-2.79,0.24-3.05,4.78-3.05,4.78
			c-0.17-4.2-3.37-4.71-3.37-4.71c3.2-0.17,3.2-5.05,3.2-5.05C137.56,100.78,140.84,101.27,140.84,101.27z M124.77,12.16
			c0,0,0,4.88-3.2,5.05c0,0,3.2,0.51,3.37,4.71c0,0,0.26-4.54,3.05-4.78C127.99,17.15,124.71,16.66,124.77,12.16z M157.57,120.86
			c0,0,0,8.39-5.5,8.69c0,0,5.5,0.88,5.8,8.1c0,0,0.44-7.81,5.24-8.22C163.1,129.44,157.47,128.59,157.57,120.86z M163.81,108.87
			c0,0,0,4.19-2.75,4.34c0,0,2.75,0.44,2.9,4.04c0,0,0.22-3.9,2.62-4.1C166.57,113.15,163.76,112.73,163.81,108.87z M225.99,101.68
			c0,0,0,10.71-7.02,11.08c0,0,7.02,1.13,7.4,10.33c0,0,0.56-9.96,6.68-10.48C233.04,112.61,225.86,111.53,225.99,101.68z
			 M224.89,103.99c0,0,0,2.24-1.47,2.32c0,0,1.47,0.24,1.55,2.16c0,0,0.12-2.08,1.4-2.19C226.36,106.27,224.86,106.05,224.89,103.99
			z M213.17,14.47c0,0,0,4.88-3.2,5.05c0,0,3.2,0.51,3.37,4.71c0,0,0.26-4.54,3.05-4.78C216.39,19.46,213.11,18.97,213.17,14.47z"/>
	</g>
</g>
</svg>
