<?xml version="1.0" encoding="utf-8"?>
<!-- Generator: Adobe Illustrator 27.8.1, SVG Export Plug-In . SVG Version: 6.00 Build 0)  -->
<svg version="1.1" id="Layer_1" xmlns="http://www.w3.org/2000/svg" xmlns:xlink="http://www.w3.org/1999/xlink" x="0px" y="0px"
	 viewBox="0 0 350 230" style="enable-background:new 0 0 350 230;" xml:space="preserve">
<style type="text/css">
	.st0{fill:#F5F5F5;stroke:#404040;stroke-width:2;stroke-miterlimit:10;}
	.st1{fill:#49BDC9;}
	.st2{fill:none;stroke:#404040;stroke-miterlimit:10;}
	.st3{fill:#F5F5F5;}
	.st4{fill:none;stroke:#FFFFFF;stroke-miterlimit:10;}
	.st5{fill:#2F2F3F;}
	.st6{fill:#02028C;}
	.st7{fill:#FFFFFF;}
	.st8{fill:#023C44;}
	.st9{fill:#022231;}
	.st10{fill:#53C2BB;}
	.st11{fill:#FF680D;}
	.st12{fill:#00EDFF;}
	.st13{fill:#213000;}
	.st14{fill:#FFB034;}
	.st15{fill:#00556A;}
	.st16{fill:#380C00;}
	.st17{fill:#00556A;stroke:#FFFFFF;stroke-width:0.5;stroke-miterlimit:10;}
	.st18{fill:#750000;}
	.st19{fill:#D40B00;}
	.st20{fill:#8E0073;}
	.st21{fill:#494949;}
	.st22{fill:#259AAB;}
	.st23{fill:#3DAEB7;}
	.st24{fill:#065652;}
	.st25{fill:#A8C6E9;}
	.st26{fill:#3F0101;}
	.st27{fill:#80C445;}
	.st28{fill:#F4D4AE;}
	.st29{fill:#E95454;}
	.st30{fill:#760689;}
	.st31{fill:#DEBFFF;}
	.st32{fill:url(#SVGID_1_);}
	.st33{fill:url(#SVGID_00000143586031855090299990000007166446882881383869_);}
	.st34{fill:url(#_x3C_Compound_Path_x3E__Music_Icon_00000105419777404418061630000010682155127852293034_);}
	.st35{opacity:0.3;fill:url(#_x3C_Compound_Path_x3E__Music_Shades_00000013167017333382690220000010994529792002141317_);}
	.st36{opacity:0.8;fill:#FFFFFF;}
	.st37{fill:#590068;}
	.st38{fill:#293767;}
	.st39{fill:#008294;}
	.st40{fill:url(#SVGID_00000014628479296892673730000005498656056951966599_);}
	.st41{fill:#F5F5F6;}
	.st42{fill:#021284;}
	.st43{fill:#751616;}
	.st44{fill:url(#SVGID_00000075140220624988694980000015398849491167554971_);}
	.st45{fill:#0000A2;}
	.st46{fill:#00833F;}
	.st47{fill:#6B1800;}
	.st48{fill:#54004C;}
	.st49{fill:#C10073;}
	.st50{fill:#7A0334;}
	.st51{fill:#002066;}
	.st52{fill:#5E5700;}
	.st53{fill:#350033;}
	.st54{fill:#FFB000;}
	.st55{fill:#490000;}
	.st56{fill:#875F74;}
	.st57{fill:#003035;}
	.st58{fill:#3659FF;}
	.st59{fill:#9B8F00;}
	.st60{fill:#4C1200;}
	.st61{fill:#016A72;}
	.st62{fill:#FF0000;}
	.st63{fill:#005C68;}
	.st64{fill:#4A0075;}
	.st65{fill:url(#SVGID_00000024700628437931846070000008550821746275125147_);}
	.st66{fill:#020242;}
	.st67{fill:#228DC9;}
	.st68{fill:#551700;}
	.st69{fill:#00C2E0;}
	.st70{fill:#012F4C;}
	.st71{fill:#300018;}
	.st72{fill-rule:evenodd;clip-rule:evenodd;fill:#6D3C5B;}
	.st73{fill-rule:evenodd;clip-rule:evenodd;fill:#020242;}
	.st74{fill:#9B001E;}
	.st75{fill:#00E1FF;}
	.st76{fill:#680040;}
	.st77{fill:#8E8700;}
	.st78{fill:#220247;}
	.st79{fill:#0086FF;}
	.st80{fill:#7C4F00;}
	.st81{fill:#520000;}
	.st82{fill:#04A8CB;}
	.st83{fill:#18618B;}
	.st84{fill:#958C00;}
	.st85{fill:#B0261C;}
	.st86{fill:#013147;}
	.st87{fill:#CD11A1;}
	.st88{fill:#296262;}
	.st89{fill:#5C5E00;}
	.st90{fill:#55B1C8;}
	.st91{fill:#918C34;}
	.st92{fill:#F94351;}
	.st93{fill:#9B001A;}
	.st94{fill:#000066;}
	.st95{fill:#636568;}
	.st96{fill:#002544;}
	.st97{fill:#723300;}
	.st98{fill:url(#SVGID_00000170957522900900065870000005568043906054345107_);}
	.st99{fill:#F393BD;}
	.st100{fill:url(#SVGID_00000100342409944616848710000017452523302206155673_);}
	.st101{fill:#011354;}
	.st102{fill:#38011B;}
	.st103{fill-rule:evenodd;clip-rule:evenodd;fill:#2365A6;}
	.st104{fill:#351B01;}
	.st105{fill-rule:evenodd;clip-rule:evenodd;fill:#351B01;}
	.st106{fill:#02484C;}
	.st107{fill:none;stroke:#02484C;stroke-width:4;stroke-miterlimit:10;}
</style>
<g>
	<g>
		<path class="st31" d="M175.73,140.31c0,0.4-0.33,0.73-0.73,0.73c-34.75,0-63.03-28.27-63.03-63.03
			c0-34.75,28.27-63.03,63.03-63.03c23.84,0,45.38,13.21,56.21,34.48c0.18,0.36,0.04,0.8-0.32,0.98c-0.35,0.18-0.8,0.04-0.98-0.32
			c-10.57-20.77-31.61-33.68-54.9-33.68c-33.95,0-61.57,27.62-61.57,61.57s27.62,61.57,61.57,61.57
			C175.4,139.58,175.73,139.91,175.73,140.31z M175,23.53c-0.4,0-0.73,0.33-0.73,0.73c0,0.4,0.33,0.73,0.73,0.73
			c29.24,0,53.03,23.79,53.03,53.03c0,29.24-23.79,53.03-53.03,53.03c-29.24,0-53.03-23.79-53.03-53.03c0-0.4-0.33-0.73-0.73-0.73
			s-0.73,0.33-0.73,0.73c0,30.05,24.44,54.49,54.49,54.49c30.05,0,54.49-24.44,54.49-54.49C229.49,47.97,205.04,23.53,175,23.53z
			 M131.39,91.59c-0.12-0.38-0.52-0.6-0.92-0.48c-0.39,0.12-0.6,0.53-0.48,0.91c6.16,19.81,24.24,33.11,45,33.11
			c25.98,0,47.12-21.14,47.12-47.12c0-19.96-12.64-37.82-31.45-44.45c-0.38-0.13-0.8,0.07-0.93,0.45c-0.13,0.38,0.07,0.8,0.45,0.93
			c18.23,6.42,30.48,23.73,30.48,43.07c0,25.18-20.48,45.66-45.66,45.66C154.88,123.67,137.36,110.78,131.39,91.59z M141.2,55.23
			c-4.56,6.74-6.96,14.62-6.96,22.79c0,22.48,18.28,40.76,40.76,40.76c7.26,0,14.39-1.93,20.61-5.59c0.35-0.2,0.47-0.65,0.26-1
			c-0.21-0.35-0.66-0.46-1-0.26c-6,3.52-12.87,5.39-19.87,5.39c-21.67,0-39.3-17.63-39.3-39.3c0-7.88,2.32-15.47,6.71-21.97
			c7.33-10.85,19.51-17.33,32.59-17.33c21.67,0,39.3,17.63,39.3,39.3c0,10.51-4.1,20.39-11.54,27.82c-0.29,0.29-0.29,0.75,0,1.03
			c0.29,0.29,0.75,0.29,1.03,0c7.72-7.7,11.97-17.95,11.97-28.86c0-22.48-18.29-40.76-40.76-40.76
			C161.44,37.26,148.8,43.97,141.2,55.23z M200.06,108.29c-0.64,0.53-1.29,1.03-1.96,1.52c-0.33,0.24-0.4,0.69-0.16,1.02
			c0.14,0.2,0.37,0.3,0.59,0.3c0.15,0,0.3-0.05,0.43-0.14c0.69-0.5,1.37-1.03,2.03-1.58c0.31-0.26,0.35-0.72,0.1-1.03
			C200.83,108.08,200.37,108.04,200.06,108.29z M175,42.74c-19.45,0-35.27,15.82-35.27,35.27c0,19.45,15.82,35.27,35.27,35.27
			c0.4,0,0.73-0.33,0.73-0.73s-0.33-0.73-0.73-0.73c-18.64,0-33.81-15.17-33.81-33.81c0-18.64,15.17-33.81,33.81-33.81
			c0.4,0,0.73-0.33,0.73-0.73S175.4,42.74,175,42.74z M175,47.44c-0.4,0-0.73,0.33-0.73,0.73c0,0.4,0.33,0.73,0.73,0.73
			c6.9,0,13.6,2.46,18.85,6.92c0.14,0.12,0.31,0.17,0.47,0.17c0.21,0,0.41-0.09,0.56-0.26c0.26-0.31,0.22-0.77-0.08-1.03
			C189.28,50.02,182.25,47.44,175,47.44z M198.66,60.55c0.16,0,0.31-0.05,0.45-0.15c0.32-0.25,0.38-0.71,0.13-1.02
			c-0.37-0.48-0.75-0.94-1.14-1.39c-0.27-0.3-0.73-0.34-1.03-0.07c-0.3,0.26-0.34,0.73-0.07,1.03c0.38,0.43,0.74,0.87,1.09,1.33
			C198.23,60.46,198.44,60.55,198.66,60.55z M205.58,78.02c0-5.38-1.41-10.66-4.09-15.29c-0.2-0.35-0.65-0.47-1-0.27
			c-0.35,0.2-0.47,0.65-0.27,1c2.55,4.4,3.89,9.44,3.89,14.56c0,16.05-13.06,29.11-29.11,29.11c-16.05,0-29.11-13.06-29.11-29.11
			c0-0.4-0.33-0.73-0.73-0.73c-0.4,0-0.73,0.33-0.73,0.73c0,16.86,13.72,30.58,30.58,30.58C191.86,108.59,205.58,94.88,205.58,78.02
			z"/>
		<path class="st41" d="M196.14,78.02c0-11.66-9.48-21.14-21.14-21.14s-21.14,9.48-21.14,21.14c0,11.65,9.48,21.14,21.14,21.14
			S196.14,89.67,196.14,78.02z M175,82.34c-2.38,0-4.32-1.94-4.32-4.32c0-2.38,1.94-4.32,4.32-4.32c2.38,0,4.32,1.94,4.32,4.32
			C179.32,80.4,177.38,82.34,175,82.34z"/>
		<path class="st42" d="M243.91,78.02c0-38-30.91-68.91-68.91-68.91c-38,0-68.91,30.91-68.91,68.91c0,38,30.91,68.91,68.91,68.91
			C213,146.92,243.91,116.01,243.91,78.02z M175,141.04c-34.75,0-63.03-28.27-63.03-63.03c0-34.75,28.27-63.03,63.03-63.03
			c23.84,0,45.38,13.21,56.21,34.48c0.18,0.36,0.04,0.8-0.32,0.98c-0.35,0.18-0.8,0.04-0.98-0.32
			c-10.57-20.77-31.61-33.68-54.9-33.68c-33.95,0-61.57,27.62-61.57,61.57s27.62,61.57,61.57,61.57c0.4,0,0.73,0.33,0.73,0.73
			C175.73,140.72,175.4,141.04,175,141.04z M200.52,78.02c0,14.07-11.45,25.52-25.52,25.52s-25.52-11.45-25.52-25.52
			c0-14.07,11.45-25.52,25.52-25.52S200.52,63.94,200.52,78.02z M197.07,57.91c0.31-0.27,0.77-0.23,1.03,0.07
			c0.39,0.45,0.77,0.92,1.14,1.39c0.25,0.32,0.19,0.78-0.13,1.02c-0.13,0.1-0.29,0.15-0.45,0.15c-0.22,0-0.44-0.1-0.58-0.28
			c-0.35-0.45-0.71-0.9-1.09-1.33C196.73,58.64,196.76,58.17,197.07,57.91z M194.87,55.74c-0.14,0.17-0.35,0.26-0.56,0.26
			c-0.17,0-0.34-0.06-0.47-0.17c-5.25-4.46-11.94-6.92-18.85-6.92c-0.4,0-0.73-0.33-0.73-0.73c0-0.4,0.33-0.73,0.73-0.73
			c7.25,0,14.28,2.58,19.79,7.27C195.1,54.97,195.14,55.43,194.87,55.74z M175,44.2c-18.64,0-33.81,15.17-33.81,33.81
			c0,18.64,15.17,33.81,33.81,33.81c0.4,0,0.73,0.33,0.73,0.73s-0.33,0.73-0.73,0.73c-19.45,0-35.27-15.82-35.27-35.27
			c0-19.45,15.82-35.27,35.27-35.27c0.4,0,0.73,0.33,0.73,0.73S175.4,44.2,175,44.2z M175,108.59c-16.86,0-30.58-13.72-30.58-30.58
			c0-0.4,0.33-0.73,0.73-0.73c0.4,0,0.73,0.33,0.73,0.73c0,16.05,13.06,29.11,29.11,29.11c16.05,0,29.11-13.06,29.11-29.11
			c0-5.12-1.35-10.15-3.89-14.56c-0.2-0.35-0.08-0.8,0.27-1c0.34-0.2,0.79-0.08,1,0.27c2.68,4.63,4.09,9.91,4.09,15.29
			C205.58,94.88,191.86,108.59,175,108.59z M200.99,109.42c-0.66,0.55-1.34,1.07-2.03,1.58c-0.13,0.09-0.28,0.14-0.43,0.14
			c-0.23,0-0.45-0.1-0.59-0.3c-0.24-0.33-0.17-0.78,0.16-1.02c0.67-0.49,1.32-0.99,1.96-1.52c0.31-0.26,0.77-0.21,1.03,0.1
			C201.34,108.7,201.3,109.16,200.99,109.42z M220.66,78.02c0-19.34-12.25-36.65-30.48-43.07c-0.38-0.13-0.58-0.55-0.45-0.93
			c0.13-0.38,0.55-0.58,0.93-0.45c18.81,6.63,31.45,24.5,31.45,44.45c0,25.98-21.14,47.12-47.12,47.12
			c-20.76,0-38.84-13.31-45-33.11c-0.12-0.39,0.1-0.8,0.48-0.91c0.39-0.12,0.8,0.1,0.92,0.48c5.97,19.19,23.49,32.08,43.61,32.08
			C200.18,123.67,220.66,103.19,220.66,78.02z M215.76,78.02c0,10.9-4.25,21.15-11.97,28.86c-0.29,0.28-0.75,0.29-1.03,0
			c-0.29-0.29-0.29-0.75,0-1.03c7.44-7.43,11.54-17.31,11.54-27.82c0-21.67-17.63-39.3-39.3-39.3c-13.07,0-25.26,6.48-32.59,17.33
			c-4.39,6.5-6.71,14.1-6.71,21.97c0,21.67,17.63,39.3,39.3,39.3c7,0,13.87-1.86,19.87-5.39c0.34-0.2,0.79-0.09,1,0.26
			c0.2,0.35,0.09,0.8-0.26,1c-6.22,3.65-13.35,5.59-20.61,5.59c-22.48,0-40.76-18.29-40.76-40.76c0-8.17,2.41-16.05,6.96-22.79
			c7.6-11.25,20.24-17.97,33.8-17.97C197.47,37.26,215.76,55.54,215.76,78.02z M175,132.5c-30.04,0-54.49-24.44-54.49-54.49
			c0-0.4,0.33-0.73,0.73-0.73s0.73,0.33,0.73,0.73c0,29.24,23.79,53.03,53.03,53.03c29.24,0,53.03-23.79,53.03-53.03
			c0-29.24-23.79-53.03-53.03-53.03c-0.4,0-0.73-0.33-0.73-0.73c0-0.4,0.33-0.73,0.73-0.73c30.05,0,54.49,24.44,54.49,54.49
			C229.49,108.06,205.04,132.5,175,132.5z M175,4.72c-40.41,0-73.29,32.88-73.29,73.29c0,40.41,32.88,73.29,73.29,73.29
			c40.42,0,73.29-32.88,73.29-73.29C248.29,37.6,215.41,4.72,175,4.72z M106.09,78.02c0-38,30.91-68.91,68.91-68.91
			c38,0,68.91,30.91,68.91,68.91c0,38-30.91,68.91-68.91,68.91C137,146.92,106.09,116.01,106.09,78.02z M175,52.49
			c-14.07,0-25.52,11.45-25.52,25.52c0,14.07,11.45,25.52,25.52,25.52s25.52-11.45,25.52-25.52C200.52,63.94,189.07,52.49,175,52.49
			z M153.86,78.02c0-11.66,9.48-21.14,21.14-21.14s21.14,9.48,21.14,21.14c0,11.65-9.48,21.14-21.14,21.14
			S153.86,89.67,153.86,78.02z M179.32,78.02c0,2.38-1.94,4.32-4.32,4.32c-2.38,0-4.32-1.94-4.32-4.32c0-2.38,1.94-4.32,4.32-4.32
			C177.38,73.7,179.32,75.63,179.32,78.02z"/>
	</g>
</g>
</svg>
