<?xml version="1.0" encoding="utf-8"?>
<!-- Generator: Adobe Illustrator 27.8.1, SVG Export Plug-In . SVG Version: 6.00 Build 0)  -->
<svg version="1.1" id="Layer_1" xmlns="http://www.w3.org/2000/svg" xmlns:xlink="http://www.w3.org/1999/xlink" x="0px" y="0px"
	 viewBox="0 0 350 230" style="enable-background:new 0 0 350 230;" xml:space="preserve">
<style type="text/css">
	.st0{fill:#F5F5F5;stroke:#404040;stroke-width:2;stroke-miterlimit:10;}
	.st1{fill:#49BDC9;}
	.st2{fill:none;stroke:#404040;stroke-miterlimit:10;}
	.st3{fill:#F5F5F5;}
	.st4{fill:none;stroke:#FFFFFF;stroke-miterlimit:10;}
	.st5{fill:#2F2F3F;}
	.st6{fill:#02028C;}
	.st7{fill:#FFFFFF;}
	.st8{fill:#023C44;}
	.st9{fill:#022231;}
	.st10{fill:#53C2BB;}
	.st11{fill:#FF680D;}
	.st12{fill:#00EDFF;}
	.st13{fill:#213000;}
	.st14{fill:#FFB034;}
	.st15{fill:#00556A;}
	.st16{fill:#380C00;}
	.st17{fill:#00556A;stroke:#FFFFFF;stroke-width:0.5;stroke-miterlimit:10;}
	.st18{fill:#750000;}
	.st19{fill:#D40B00;}
	.st20{fill:#8E0073;}
	.st21{fill:#494949;}
	.st22{fill:#259AAB;}
	.st23{fill:#3DAEB7;}
	.st24{fill:#065652;}
	.st25{fill:#A8C6E9;}
	.st26{fill:#3F0101;}
	.st27{fill:#80C445;}
	.st28{fill:#F4D4AE;}
	.st29{fill:#E95454;}
	.st30{fill:#760689;}
	.st31{fill:#DEBFFF;}
	.st32{fill:url(#SVGID_1_);}
	.st33{fill:url(#SVGID_00000130604577914596724530000001670717060537342358_);}
	.st34{fill:url(#_x3C_Compound_Path_x3E__Music_Icon_00000029040123643093462990000014906709861121226387_);}
	.st35{opacity:0.3;fill:url(#_x3C_Compound_Path_x3E__Music_Shades_00000000201130524830852410000018158734089561225648_);}
	.st36{opacity:0.8;fill:#FFFFFF;}
	.st37{fill:#590068;}
	.st38{fill:#293767;}
	.st39{fill:#008294;}
	.st40{fill:url(#SVGID_00000154396993342917588850000002681728111081587621_);}
	.st41{fill:#F5F5F6;}
	.st42{fill:#021284;}
	.st43{fill:#751616;}
	.st44{fill:url(#SVGID_00000029012036692076647460000003441889283412109203_);}
	.st45{fill:#0000A2;}
	.st46{fill:#00833F;}
	.st47{fill:#6B1800;}
	.st48{fill:#54004C;}
	.st49{fill:#C10073;}
	.st50{fill:#7A0334;}
	.st51{fill:#002066;}
	.st52{fill:#5E5700;}
	.st53{fill:#350033;}
	.st54{fill:#FFB000;}
	.st55{fill:#490000;}
	.st56{fill:#875F74;}
	.st57{fill:#003035;}
	.st58{fill:#3659FF;}
	.st59{fill:#9B8F00;}
	.st60{fill:#4C1200;}
	.st61{fill:#016A72;}
	.st62{fill:#FF0000;}
	.st63{fill:#005C68;}
	.st64{fill:#4A0075;}
	.st65{fill:url(#SVGID_00000179618738144308738050000003322979845099037569_);}
	.st66{fill:#020242;}
	.st67{fill:#228DC9;}
	.st68{fill:#551700;}
	.st69{fill:#00C2E0;}
	.st70{fill:#012F4C;}
	.st71{fill:#300018;}
	.st72{fill-rule:evenodd;clip-rule:evenodd;fill:#6D3C5B;}
	.st73{fill-rule:evenodd;clip-rule:evenodd;fill:#020242;}
	.st74{fill:#9B001E;}
	.st75{fill:#00E1FF;}
	.st76{fill:#680040;}
	.st77{fill:#8E8700;}
	.st78{fill:#220247;}
	.st79{fill:#0086FF;}
	.st80{fill:#7C4F00;}
	.st81{fill:#520000;}
	.st82{fill:#04A8CB;}
	.st83{fill:#18618B;}
	.st84{fill:#958C00;}
	.st85{fill:#B0261C;}
	.st86{fill:#013147;}
	.st87{fill:#CD11A1;}
	.st88{fill:#296262;}
	.st89{fill:#5C5E00;}
	.st90{fill:#55B1C8;}
	.st91{fill:#918C34;}
	.st92{fill:#F94351;}
	.st93{fill:#9B001A;}
	.st94{fill:#000066;}
	.st95{fill:#636568;}
	.st96{fill:#002544;}
	.st97{fill:#723300;}
	.st98{fill:url(#SVGID_00000171697475531802335900000018436801749184438449_);}
	.st99{fill:#F393BD;}
	.st100{fill:url(#SVGID_00000098199350754133204390000017248531521401311380_);}
	.st101{fill:#011354;}
	.st102{fill:#38011B;}
	.st103{fill-rule:evenodd;clip-rule:evenodd;fill:#2365A6;}
	.st104{fill:#351B01;}
	.st105{fill-rule:evenodd;clip-rule:evenodd;fill:#351B01;}
	.st106{fill:#02484C;}
	.st107{fill:none;stroke:#02484C;stroke-width:4;stroke-miterlimit:10;}
</style>
<g>
	<g>
		<path class="st31" d="M70.49,108.58h11.98V47.34c0-6.5,5.29-11.79,11.79-11.79h165.16c6.5,0,11.79,5.29,11.79,11.79v61.25h8.31
			V9.29H70.49V108.58z M83.36,18.01h25.4c1.48,0,2.68,1.2,2.68,2.68c0,1.48-1.2,2.68-2.68,2.68h-25.4c-1.48,0-2.68-1.2-2.68-2.68
			C80.68,19.21,81.88,18.01,83.36,18.01z M269.42,110.37h-6.09V45.49c0-1.48-1.2-2.68-2.68-2.68h-19.29h-4.74h-4.74h-14.55h-4.74
			h-4.74h-14.55h-4.74h-4.74h-19.29h-19.29h-4.74h-4.74h-14.55h-4.74h-4.74H92.44c-1.48,0-2.68,1.2-2.68,2.68v64.88h-5.5V47.34
			c0-5.51,4.49-10,10-10h165.16c5.51,0,10,4.49,10,10V110.37z"/>
		<path class="st41" d="M113.78,116.48H95.12v-68.3h13.92v43.63c0,1.48,1.2,2.68,2.68,2.68h2.06V116.48z M137.81,94.49h-2.06
			c-1.48,0-2.68-1.2-2.68-2.68V48.17h-9.18v43.63c0,1.48-1.2,2.68-2.68,2.68h-2.06v21.99h18.66V94.49z M161.84,48.17h-13.92v43.63
			c0,1.48-1.2,2.68-2.68,2.68h-2.06v21.99h18.67V48.17z M185.87,94.49h-2.06c-1.48,0-2.68-1.2-2.68-2.68V48.17h-13.92v68.3h18.66
			V94.49z M209.9,94.49h-2.06c-1.48,0-2.68-1.2-2.68-2.68V48.17h-9.18v43.63c0,1.48-1.2,2.68-2.68,2.68h-2.06v21.99h18.66V94.49z
			 M233.93,94.49h-2.06c-1.48,0-2.68-1.2-2.68-2.68V48.17h-9.18v43.63c0,1.48-1.2,2.68-2.68,2.68h-2.06v21.99h18.67V94.49z
			 M257.96,48.17h-13.92v43.63c0,1.48-1.2,2.68-2.68,2.68h-2.06v21.99h18.66V48.17z"/>
		<path class="st38" d="M282.2,3.93H67.8c-1.48,0-2.68,1.2-2.68,2.68v104.66c0,1.48,1.2,2.68,2.68,2.68h21.95v5.21
			c0,1.48,1.2,2.68,2.68,2.68h24.03h24.03h24.03h24.03h24.03h24.03h24.03c1.48,0,2.68-1.2,2.68-2.68v-5.21h18.87
			c1.48,0,2.68-1.2,2.68-2.68V6.61C284.88,5.13,283.68,3.93,282.2,3.93z M95.12,48.17h13.92v43.63c0,1.48,1.2,2.68,2.68,2.68h2.06
			v21.99H95.12V48.17z M119.15,94.49h2.06c1.48,0,2.68-1.2,2.68-2.68V48.17h9.18v43.63c0,1.48,1.2,2.68,2.68,2.68h2.06v21.99h-18.66
			V94.49z M143.18,94.49h2.06c1.48,0,2.68-1.2,2.68-2.68V48.17h13.92v68.3h-18.67V94.49z M167.21,48.17h13.92v43.63
			c0,1.48,1.2,2.68,2.68,2.68h2.06v21.99h-18.66V48.17z M191.24,94.49h2.06c1.48,0,2.68-1.2,2.68-2.68V48.17h9.18v43.63
			c0,1.48,1.2,2.68,2.68,2.68h2.06v21.99h-18.66V94.49z M215.27,94.49h2.06c1.48,0,2.68-1.2,2.68-2.68V48.17h9.18v43.63
			c0,1.48,1.2,2.68,2.68,2.68h2.06v21.99h-18.67V94.49z M263.33,45.49c0-1.48-1.2-2.68-2.68-2.68h-19.29h-4.74h-4.74h-14.55h-4.74
			h-4.74h-14.55h-4.74h-4.74h-19.29h-19.29h-4.74h-4.74h-14.55h-4.74h-4.74H92.44c-1.48,0-2.68,1.2-2.68,2.68v64.88h-5.5V47.34
			c0-5.51,4.49-10,10-10h165.16c5.51,0,10,4.49,10,10v63.04h-6.09V45.49z M239.3,116.48V94.49h2.06c1.48,0,2.68-1.2,2.68-2.68V48.17
			h13.92v68.3H239.3z M279.52,108.58h-8.31V47.34c0-6.5-5.29-11.79-11.79-11.79H94.25c-6.5,0-11.79,5.29-11.79,11.79v61.25H70.49
			V9.29h209.03V108.58z M80.68,20.69c0-1.48,1.2-2.68,2.68-2.68h25.4c1.48,0,2.68,1.2,2.68,2.68c0,1.48-1.2,2.68-2.68,2.68h-25.4
			C81.88,23.37,80.68,22.17,80.68,20.69z"/>
	</g>
</g>
</svg>
