<?xml version="1.0" encoding="utf-8"?>
<!-- Generator: Adobe Illustrator 27.8.1, SVG Export Plug-In . SVG Version: 6.00 Build 0)  -->
<svg version="1.1" id="Layer_1" xmlns="http://www.w3.org/2000/svg" xmlns:xlink="http://www.w3.org/1999/xlink" x="0px" y="0px"
	 viewBox="0 0 350 230" style="enable-background:new 0 0 350 230;" xml:space="preserve">
<style type="text/css">
	.st0{fill:#F5F5F5;stroke:#404040;stroke-width:2;stroke-miterlimit:10;}
	.st1{fill:#49BDC9;}
	.st2{fill:none;stroke:#404040;stroke-miterlimit:10;}
	.st3{fill:#F5F5F5;}
	.st4{fill:none;stroke:#FFFFFF;stroke-miterlimit:10;}
	.st5{fill:#2F2F3F;}
	.st6{fill:#02028C;}
	.st7{fill:#FFFFFF;}
	.st8{fill:#023C44;}
	.st9{fill:#022231;}
	.st10{fill:#53C2BB;}
	.st11{fill:#FF680D;}
	.st12{fill:#00EDFF;}
	.st13{fill:#213000;}
	.st14{fill:#FFB034;}
	.st15{fill:#00556A;}
	.st16{fill:#380C00;}
	.st17{fill:#00556A;stroke:#FFFFFF;stroke-width:0.5;stroke-miterlimit:10;}
	.st18{fill:#750000;}
	.st19{fill:#D40B00;}
	.st20{fill:#8E0073;}
	.st21{fill:#494949;}
	.st22{fill:#259AAB;}
	.st23{fill:#3DAEB7;}
	.st24{fill:#065652;}
	.st25{fill:#A8C6E9;}
	.st26{fill:#3F0101;}
	.st27{fill:#80C445;}
	.st28{fill:#F4D4AE;}
	.st29{fill:#E95454;}
	.st30{fill:#760689;}
	.st31{fill:#DEBFFF;}
	.st32{fill:url(#SVGID_1_);}
	.st33{fill:url(#SVGID_00000078737290133929486690000002359188651235834502_);}
	.st34{fill:url(#_x3C_Compound_Path_x3E__Music_Icon_00000070802818804512456730000011529248064297722556_);}
	.st35{opacity:0.3;fill:url(#_x3C_Compound_Path_x3E__Music_Shades_00000163070337293009945580000004945004759875150234_);}
	.st36{opacity:0.8;fill:#FFFFFF;}
	.st37{fill:#590068;}
	.st38{fill:#293767;}
	.st39{fill:#008294;}
	.st40{fill:url(#SVGID_00000075128793592814364630000010584827084688188838_);}
	.st41{fill:#F5F5F6;}
	.st42{fill:#021284;}
	.st43{fill:#751616;}
	.st44{fill:url(#SVGID_00000016048249235050575670000015811222182975048635_);}
	.st45{fill:#0000A2;}
	.st46{fill:#00833F;}
	.st47{fill:#6B1800;}
	.st48{fill:#54004C;}
	.st49{fill:#C10073;}
	.st50{fill:#7A0334;}
	.st51{fill:#002066;}
	.st52{fill:#5E5700;}
	.st53{fill:#350033;}
	.st54{fill:#FFB000;}
	.st55{fill:#490000;}
	.st56{fill:#875F74;}
	.st57{fill:#003035;}
	.st58{fill:#3659FF;}
	.st59{fill:#9B8F00;}
	.st60{fill:#4C1200;}
	.st61{fill:#016A72;}
	.st62{fill:#FF0000;}
	.st63{fill:#005C68;}
	.st64{fill:#4A0075;}
	.st65{fill:url(#SVGID_00000178923060087056285430000017210007708419747730_);}
	.st66{fill:#020242;}
	.st67{fill:#228DC9;}
	.st68{fill:#551700;}
	.st69{fill:#00C2E0;}
	.st70{fill:#012F4C;}
	.st71{fill:#300018;}
	.st72{fill-rule:evenodd;clip-rule:evenodd;fill:#6D3C5B;}
	.st73{fill-rule:evenodd;clip-rule:evenodd;fill:#020242;}
	.st74{fill:#9B001E;}
	.st75{fill:#00E1FF;}
	.st76{fill:#680040;}
	.st77{fill:#8E8700;}
	.st78{fill:#220247;}
	.st79{fill:#0086FF;}
	.st80{fill:#7C4F00;}
	.st81{fill:#520000;}
	.st82{fill:#04A8CB;}
	.st83{fill:#18618B;}
	.st84{fill:#958C00;}
	.st85{fill:#B0261C;}
	.st86{fill:#013147;}
	.st87{fill:#CD11A1;}
	.st88{fill:#296262;}
	.st89{fill:#5C5E00;}
	.st90{fill:#55B1C8;}
	.st91{fill:#918C34;}
	.st92{fill:#F94351;}
	.st93{fill:#9B001A;}
	.st94{fill:#000066;}
	.st95{fill:#636568;}
	.st96{fill:#002544;}
	.st97{fill:#723300;}
	.st98{fill:url(#SVGID_00000083772154444282923810000000620996571805342607_);}
	.st99{fill:#F393BD;}
	.st100{fill:url(#SVGID_00000178909693670586873860000016682381308757070735_);}
	.st101{fill:#011354;}
	.st102{fill:#38011B;}
	.st103{fill-rule:evenodd;clip-rule:evenodd;fill:#2365A6;}
	.st104{fill:#351B01;}
	.st105{fill-rule:evenodd;clip-rule:evenodd;fill:#351B01;}
	.st106{fill:#02484C;}
	.st107{fill:none;stroke:#02484C;stroke-width:4;stroke-miterlimit:10;}
</style>
<g>
	<g>
		<linearGradient id="SVGID_1_" gradientUnits="userSpaceOnUse" x1="101.5099" y1="87.752" x2="238.2991" y2="87.752">
			<stop  offset="0" style="stop-color:#4E1F88"/>
			<stop  offset="1" style="stop-color:#9D42B3"/>
		</linearGradient>
		<path class="st32" d="M237.36,131.9c-4.04-4.05-34.8-34.8-38.51-38.51l6.8-6.8c8.62-8.64,10.44-21.04,6.32-31.25l-23.33,23.31
			c-1.24,1.25-3.28,1.25-4.52,0l-11.34-11.32c-1.25-1.25-1.25-3.28,0-4.53l23.33-23.33c-10.6-4.31-22.95-1.96-31.25,6.34l-6.8,6.79
			l-26.09-26.08c-1.68-1.7-4.55-1.01-5.31,1.25l-2.65,7.95c-1.55,4.64-0.36,9.65,3.09,13.11l24.7,24.7
			c-2.2,11.17-16.13,15.6-24.34,7.39l-5.65-5.67l-9.07,9.07c-12.23,12.23-14.48,30.73-6.75,45.26l22.74-22.74
			c1.25-1.24,3.28-1.25,4.53,0l11.32,11.34c1.25,1.25,1.25,3.28,0,4.53l-22.74,22.73c14.55,7.73,33.03,5.5,45.26-6.75l9.07-9.05
			l-5.67-5.67c-8.18-8.18-3.83-22.11,7.39-24.34l24.7,24.7c3.47,3.47,8.5,4.64,13.12,3.11l6.06-2.03l11.03,11.01
			c1.25,1.25,3.28,1.25,4.53,0C238.61,135.18,238.61,133.16,237.36,131.9z M149,61.66l-17.35-17.35c-1.73-1.73-2.32-4.24-1.55-6.56
			l1.01-3.04l22.42,22.42L149,61.66z M158.19,118.18c-1.24,1.25-3.28,1.25-4.52,0l-20.39-20.39c-1.25-1.25-1.25-3.28,0-4.54
			c1.24-1.25,3.28-1.25,4.52,0l20.39,20.39C159.44,114.9,159.44,116.92,158.19,118.18z M213.7,121.36
			c-2.32,0.77-4.84,0.17-6.56-1.55l-17.37-17.37l4.53-4.53l22.43,22.43L213.7,121.36z"/>
		<path class="st11" d="M247.92,23.07l-2.39-2.37l2.28-2.94L233.7,3.62l-2.94,2.28l-2.39-2.37c-0.77-0.77-2.01-0.77-2.78,0
			c-0.77,0.77-0.77,2.01,0,2.78l2.03,2.04l-3.14,2.44l-1.68-1.68c-0.77-0.77-2.01-0.77-2.78,0c-0.77,0.77-0.77,2.01,0,2.78
			l1.32,1.34l-2.94,2.28c16.49,16.49,8.61,8.61,17.54,17.52l2.28-2.94l1.32,1.32c0.77,0.77,2.03,0.77,2.8,0
			c0.76-0.76,0.76-2.01,0-2.78l-1.68-1.68l2.44-3.14l2.03,2.04c0.77,0.76,2.03,0.76,2.8,0C248.68,25.09,248.68,23.84,247.92,23.07z
			 M240.06,29.39c-0.36,0.36-0.84,0.53-1.32,0.53c-0.5,0-0.98-0.17-1.34-0.55L222.26,14.1c-0.74-0.74-0.72-1.94,0.02-2.66
			c0.36-0.36,0.84-0.55,1.32-0.55c0.48,0,0.98,0.19,1.34,0.57l15.13,15.27C240.81,27.46,240.81,28.65,240.06,29.39z M244.87,23.19
			c-0.34,0.34-0.79,0.52-1.25,0.52c-0.45,0-0.91-0.17-1.25-0.53L228.13,8.69c-0.7-0.7-0.69-1.82,0.02-2.53
			c0.34-0.34,0.79-0.52,1.24-0.52c0.46,0,0.93,0.19,1.27,0.53l14.22,14.48C245.57,21.36,245.57,22.5,244.87,23.19z M131.01,113.64
			l-21.44,21.44c1.92,2.49,4.21,4.79,6.79,6.8l21.44-21.44L131.01,113.64z M219.24,25.42l-39.65,39.65l6.79,6.8l39.66-39.66
			L219.24,25.42z"/>
	</g>
</g>
</svg>
