<?xml version="1.0" encoding="utf-8"?>
<!-- Generator: Adobe Illustrator 27.8.1, SVG Export Plug-In . SVG Version: 6.00 Build 0)  -->
<svg version="1.1" id="Layer_1" xmlns="http://www.w3.org/2000/svg" xmlns:xlink="http://www.w3.org/1999/xlink" x="0px" y="0px"
	 viewBox="0 0 350 230" style="enable-background:new 0 0 350 230;" xml:space="preserve">
<style type="text/css">
	.st0{fill:#F5F5F5;stroke:#404040;stroke-width:2;stroke-miterlimit:10;}
	.st1{fill:#49BDC9;}
	.st2{fill:none;stroke:#404040;stroke-miterlimit:10;}
	.st3{fill:#F5F5F5;}
	.st4{fill:none;stroke:#FFFFFF;stroke-miterlimit:10;}
	.st5{fill:#2F2F3F;}
	.st6{fill:#02028C;}
	.st7{fill:#FFFFFF;}
	.st8{fill:#023C44;}
	.st9{fill:#022231;}
	.st10{fill:#53C2BB;}
	.st11{fill:#FF680D;}
	.st12{fill:#00EDFF;}
	.st13{fill:#213000;}
	.st14{fill:#FFB034;}
	.st15{fill:#00556A;}
	.st16{fill:#380C00;}
	.st17{fill:#00556A;stroke:#FFFFFF;stroke-width:0.5;stroke-miterlimit:10;}
	.st18{fill:#750000;}
	.st19{fill:#D40B00;}
	.st20{fill:#8E0073;}
	.st21{fill:#494949;}
	.st22{fill:#259AAB;}
	.st23{fill:#3DAEB7;}
	.st24{fill:#065652;}
	.st25{fill:#A8C6E9;}
	.st26{fill:#3F0101;}
	.st27{fill:#80C445;}
	.st28{fill:#F4D4AE;}
	.st29{fill:#E95454;}
	.st30{fill:#760689;}
	.st31{fill:#DEBFFF;}
	.st32{fill:url(#SVGID_1_);}
	.st33{fill:url(#SVGID_00000062183277150158373970000004942412253727079085_);}
	.st34{fill:url(#_x3C_Compound_Path_x3E__Music_Icon_00000098918650535875702040000007807762611918243772_);}
	.st35{opacity:0.3;fill:url(#_x3C_Compound_Path_x3E__Music_Shades_00000005988677779358967870000002606614729197020844_);}
	.st36{opacity:0.8;fill:#FFFFFF;}
	.st37{fill:#590068;}
	.st38{fill:#293767;}
	.st39{fill:#008294;}
	.st40{fill:url(#SVGID_00000160190741313936209670000012846177075889742499_);}
	.st41{fill:#F5F5F6;}
	.st42{fill:#021284;}
	.st43{fill:#751616;}
	.st44{fill:url(#SVGID_00000077304947055596967030000008186663138851063733_);}
	.st45{fill:#0000A2;}
	.st46{fill:#00833F;}
	.st47{fill:#6B1800;}
	.st48{fill:#54004C;}
	.st49{fill:#C10073;}
	.st50{fill:#7A0334;}
	.st51{fill:#002066;}
	.st52{fill:#5E5700;}
	.st53{fill:#350033;}
	.st54{fill:#FFB000;}
	.st55{fill:#490000;}
	.st56{fill:#875F74;}
	.st57{fill:#003035;}
	.st58{fill:#3659FF;}
	.st59{fill:#9B8F00;}
	.st60{fill:#4C1200;}
	.st61{fill:#016A72;}
	.st62{fill:#FF0000;}
	.st63{fill:#005C68;}
	.st64{fill:#4A0075;}
	.st65{fill:url(#SVGID_00000023263466462256515020000015450744708865683638_);}
	.st66{fill:#020242;}
	.st67{fill:#228DC9;}
	.st68{fill:#551700;}
	.st69{fill:#00C2E0;}
	.st70{fill:#012F4C;}
	.st71{fill:#300018;}
	.st72{fill-rule:evenodd;clip-rule:evenodd;fill:#6D3C5B;}
	.st73{fill-rule:evenodd;clip-rule:evenodd;fill:#020242;}
	.st74{fill:#9B001E;}
	.st75{fill:#00E1FF;}
	.st76{fill:#680040;}
	.st77{fill:#8E8700;}
	.st78{fill:#220247;}
	.st79{fill:#0086FF;}
	.st80{fill:#7C4F00;}
	.st81{fill:#520000;}
	.st82{fill:#04A8CB;}
	.st83{fill:#18618B;}
	.st84{fill:#958C00;}
	.st85{fill:#B0261C;}
	.st86{fill:#013147;}
	.st87{fill:#CD11A1;}
	.st88{fill:#296262;}
	.st89{fill:#5C5E00;}
	.st90{fill:#55B1C8;}
	.st91{fill:#918C34;}
	.st92{fill:#F94351;}
	.st93{fill:#9B001A;}
	.st94{fill:#000066;}
	.st95{fill:#636568;}
	.st96{fill:#002544;}
	.st97{fill:#723300;}
	.st98{fill:url(#SVGID_00000112608566132792760800000000512056810632169617_);}
	.st99{fill:#F393BD;}
	.st100{fill:url(#SVGID_00000075883243918584536660000007287238296191699856_);}
	.st101{fill:#011354;}
	.st102{fill:#38011B;}
	.st103{fill-rule:evenodd;clip-rule:evenodd;fill:#2365A6;}
	.st104{fill:#351B01;}
	.st105{fill-rule:evenodd;clip-rule:evenodd;fill:#351B01;}
	.st106{fill:#02484C;}
	.st107{fill:none;stroke:#02484C;stroke-width:4;stroke-miterlimit:10;}
</style>
<g>
	<g>
		<path class="st92" d="M141.31,135.29c0,3.15-2.58,5.73-5.73,5.73h-11.01c-3.15,0-5.73-2.58-5.73-5.73V48.47
			c0-3.15,2.58-5.73,5.73-5.73h11.01c3.15,0,5.73,2.58,5.73,5.73V135.29z M171.06,141.25c0,3.15-2.58,5.73-5.73,5.73h-11.01
			c-3.15,0-5.73-2.58-5.73-5.73V54.44c0-3.15,2.58-5.73,5.73-5.73h11.01c3.15,0,5.73,2.58,5.73,5.73V141.25z M199.8,135.29
			c0,3.15-2.58,5.73-5.73,5.73h-11.01c-3.15,0-5.73-2.58-5.73-5.73V48.47c0-3.15,2.58-5.73,5.73-5.73h11.01
			c3.15,0,5.73,2.58,5.73,5.73V135.29z M228.22,141.25c0,3.15-2.58,5.73-5.73,5.73h-11.01c-3.15,0-5.73-2.58-5.73-5.73V54.44
			c0-3.15,2.58-5.73,5.73-5.73h11.01c3.15,0,5.73,2.58,5.73,5.73V141.25z M109.53,99.64c0.26-0.69-0.1-1.46-0.79-1.71
			c-0.69-0.26-1.46,0.1-1.71,0.79l-5.83,15.81c-0.72-0.88-1.71-1.6-2.9-2.04c-3.16-1.17-6.53,0.1-7.54,2.83
			c-1.01,2.73,0.74,5.89,3.89,7.05c3.16,1.17,6.53-0.1,7.54-2.83C102.29,119.26,109.53,99.64,109.53,99.64z M144.88,5.13
			c-0.41-0.44-1.1-0.47-1.54-0.06c-0.45,0.41-0.47,1.1-0.06,1.55l9.37,10.16c-0.91,0.2-1.81,0.65-2.58,1.35
			c-2.03,1.87-2.36,4.81-0.74,6.56c1.62,1.75,4.57,1.66,6.6-0.21c2.03-1.87,2.36-4.81,0.74-6.56
			C156.51,17.73,144.88,5.13,144.88,5.13z M265.31,44.68c0.28-0.75-0.11-1.58-0.85-1.86c-0.75-0.28-1.58,0.11-1.86,0.86l-6.32,17.13
			c-0.78-0.95-1.85-1.74-3.14-2.22c-3.42-1.26-7.08,0.11-8.18,3.07c-1.09,2.96,0.8,6.38,4.22,7.64c3.42,1.26,7.08-0.11,8.17-3.07
			C257.46,65.95,265.31,44.68,265.31,44.68z M273.51,94.81c0.12-0.62-0.28-1.22-0.9-1.34c-0.04-0.01-0.08,0-0.12,0v-0.02
			l-23.22-1.57l0,0.02c-0.57-0.05-1.1,0.32-1.21,0.9l-2.77,14.12c-0.73-0.64-1.66-1.12-2.72-1.33c-2.82-0.55-5.49,0.97-5.97,3.41
			c-0.48,2.44,1.42,4.86,4.24,5.41c2.82,0.55,5.49-0.97,5.97-3.41c0.05-0.24,2.45-12.5,2.45-12.5l20.93,1.42l-1.68,8.57
			c-0.72-0.64-1.66-1.12-2.72-1.33c-2.82-0.55-5.49,0.97-5.97,3.41c-0.48,2.44,1.42,4.86,4.24,5.41c2.82,0.55,5.5-0.97,5.97-3.41
			C270.07,112.33,273.51,94.81,273.51,94.81z M249.63,96.57l0.53-2.68l20.93,1.42l-0.52,2.68L249.63,96.57z M223.53,10.78
			c-0.1-0.45-0.55-0.73-0.99-0.63c-0.03,0.01-0.05,0.03-0.08,0.03l-0.01-0.02l-16,5.77l0.01,0.02c-0.4,0.14-0.64,0.54-0.55,0.96
			l2.29,10.26c-0.67-0.22-1.44-0.26-2.21-0.09c-2.05,0.46-3.39,2.27-3,4.04c0.4,1.77,2.38,2.84,4.43,2.38
			c2.05-0.46,3.39-2.27,2.99-4.04c-0.04-0.18-2.03-9.09-2.03-9.09l14.42-5.2l1.39,6.23c-0.67-0.22-1.44-0.26-2.21-0.09
			c-2.05,0.46-3.39,2.26-2.99,4.04c0.39,1.77,2.38,2.84,4.43,2.38c2.05-0.46,3.39-2.27,3-4.04
			C226.38,23.52,223.53,10.78,223.53,10.78z M208.07,18.97l-0.44-1.95l14.43-5.2l0.43,1.94L208.07,18.97z M98.74,43.41
			c-0.2-0.54-0.81-0.82-1.35-0.61c-0.04,0.01-0.06,0.04-0.09,0.06l-0.01-0.02L78.33,52.87l0.01,0.02c-0.47,0.24-0.71,0.79-0.51,1.29
			l4.68,12.4c-0.88-0.15-1.84-0.08-2.78,0.28c-2.48,0.93-3.83,3.43-3.02,5.57c0.81,2.14,3.47,3.12,5.95,2.19s3.83-3.43,3.02-5.57
			c-0.08-0.21-4.14-10.98-4.14-10.98l17.08-9.04l2.84,7.53c-0.88-0.15-1.84-0.07-2.78,0.28c-2.47,0.93-3.83,3.43-3.02,5.57
			c0.81,2.14,3.47,3.12,5.95,2.19c2.48-0.93,3.83-3.43,3.03-5.57C104.55,58.81,98.74,43.41,98.74,43.41z M80.89,56.37l-0.89-2.35
			l17.09-9.04l0.89,2.35L80.89,56.37z"/>
		<path class="st7" d="M139,105.35h13.88v48.25H139V105.35z M166.1,105.35h13.88v48.25H166.1V105.35z M194.85,105.35h13.88v48.25
			h-13.88V105.35z"/>
	</g>
</g>
</svg>
