<?xml version="1.0" encoding="utf-8"?>
<!-- Generator: Adobe Illustrator 27.8.1, SVG Export Plug-In . SVG Version: 6.00 Build 0)  -->
<svg version="1.1" id="Layer_1" xmlns="http://www.w3.org/2000/svg" xmlns:xlink="http://www.w3.org/1999/xlink" x="0px" y="0px"
	 viewBox="0 0 350 230" style="enable-background:new 0 0 350 230;" xml:space="preserve">
<style type="text/css">
	.st0{fill:#F5F5F5;stroke:#404040;stroke-width:2;stroke-miterlimit:10;}
	.st1{fill:#49BDC9;}
	.st2{fill:none;stroke:#404040;stroke-miterlimit:10;}
	.st3{fill:#F5F5F5;}
	.st4{fill:none;stroke:#FFFFFF;stroke-miterlimit:10;}
	.st5{fill:#2F2F3F;}
	.st6{fill:#02028C;}
	.st7{fill:#FFFFFF;}
	.st8{fill:#023C44;}
	.st9{fill:#022231;}
	.st10{fill:#53C2BB;}
	.st11{fill:#FF680D;}
	.st12{fill:#00EDFF;}
	.st13{fill:#213000;}
	.st14{fill:#FFB034;}
	.st15{fill:#00556A;}
	.st16{fill:#380C00;}
	.st17{fill:#00556A;stroke:#FFFFFF;stroke-width:0.5;stroke-miterlimit:10;}
	.st18{fill:#750000;}
	.st19{fill:#D40B00;}
	.st20{fill:#8E0073;}
	.st21{fill:#494949;}
	.st22{fill:#259AAB;}
	.st23{fill:#3DAEB7;}
	.st24{fill:#065652;}
	.st25{fill:#A8C6E9;}
	.st26{fill:#3F0101;}
	.st27{fill:#80C445;}
	.st28{fill:#F4D4AE;}
	.st29{fill:#E95454;}
	.st30{fill:#760689;}
	.st31{fill:#DEBFFF;}
	.st32{fill:url(#SVGID_1_);}
	.st33{fill:url(#SVGID_00000119840436148351360080000013893862777404969380_);}
	.st34{fill:url(#_x3C_Compound_Path_x3E__Music_Icon_00000149379412210956762640000006947708048416023978_);}
	.st35{opacity:0.3;fill:url(#_x3C_Compound_Path_x3E__Music_Shades_00000029014706489232020310000013762637234607195055_);}
	.st36{opacity:0.8;fill:#FFFFFF;}
	.st37{fill:#590068;}
	.st38{fill:#293767;}
	.st39{fill:#008294;}
	.st40{fill:url(#SVGID_00000113330383794330750340000013655342519317250186_);}
	.st41{fill:#F5F5F6;}
	.st42{fill:#021284;}
	.st43{fill:#751616;}
	.st44{fill:url(#SVGID_00000151505471331515538650000017869936984855388093_);}
	.st45{fill:#0000A2;}
	.st46{fill:#00833F;}
	.st47{fill:#6B1800;}
	.st48{fill:#54004C;}
	.st49{fill:#C10073;}
	.st50{fill:#7A0334;}
	.st51{fill:#002066;}
	.st52{fill:#5E5700;}
	.st53{fill:#350033;}
	.st54{fill:#FFB000;}
	.st55{fill:#490000;}
	.st56{fill:#875F74;}
	.st57{fill:#003035;}
	.st58{fill:#3659FF;}
	.st59{fill:#9B8F00;}
	.st60{fill:#4C1200;}
	.st61{fill:#016A72;}
	.st62{fill:#FF0000;}
	.st63{fill:#005C68;}
	.st64{fill:#4A0075;}
	.st65{fill:url(#SVGID_00000048480978432198572440000015560998246964254363_);}
	.st66{fill:#020242;}
	.st67{fill:#228DC9;}
	.st68{fill:#551700;}
	.st69{fill:#00C2E0;}
	.st70{fill:#012F4C;}
	.st71{fill:#300018;}
	.st72{fill-rule:evenodd;clip-rule:evenodd;fill:#6D3C5B;}
	.st73{fill-rule:evenodd;clip-rule:evenodd;fill:#020242;}
	.st74{fill:#9B001E;}
	.st75{fill:#00E1FF;}
	.st76{fill:#680040;}
	.st77{fill:#8E8700;}
	.st78{fill:#220247;}
	.st79{fill:#0086FF;}
	.st80{fill:#7C4F00;}
	.st81{fill:#520000;}
	.st82{fill:#04A8CB;}
	.st83{fill:#18618B;}
	.st84{fill:#958C00;}
	.st85{fill:#B0261C;}
	.st86{fill:#013147;}
	.st87{fill:#CD11A1;}
	.st88{fill:#296262;}
	.st89{fill:#5C5E00;}
	.st90{fill:#55B1C8;}
	.st91{fill:#918C34;}
	.st92{fill:#F94351;}
	.st93{fill:#9B001A;}
	.st94{fill:#000066;}
	.st95{fill:#636568;}
	.st96{fill:#002544;}
	.st97{fill:#723300;}
	.st98{fill:url(#SVGID_00000176740446209798082260000015946423927722332571_);}
	.st99{fill:#F393BD;}
	.st100{fill:url(#SVGID_00000114768646823079255410000004300733035349533852_);}
	.st101{fill:#011354;}
	.st102{fill:#38011B;}
	.st103{fill-rule:evenodd;clip-rule:evenodd;fill:#2365A6;}
	.st104{fill:#351B01;}
	.st105{fill-rule:evenodd;clip-rule:evenodd;fill:#351B01;}
	.st106{fill:#02484C;}
	.st107{fill:none;stroke:#02484C;stroke-width:4;stroke-miterlimit:10;}
</style>
<g>
	<path class="st9" d="M130.6,36.31c27.33-27.33,71.64-27.33,98.97,0s27.33,71.64,0,98.97s-71.64,27.33-98.97,0
		S103.27,63.64,130.6,36.31z"/>
	<path class="st7" d="M180.09,65.61c11.15,0,20.19,9.04,20.19,20.19s-9.04,20.19-20.19,20.19c-11.15,0-20.19-9.04-20.19-20.19
		S168.94,65.61,180.09,65.61z M101.31,85.8h-4.15c0-45.73,37.2-82.93,82.93-82.93c29.51,0,57.04,15.89,71.83,41.46l0.8,1.38
		l-23.46,23.46h-22.25v-4.15h20.53l19.98-19.98c-14.23-23.49-39.92-38.02-67.43-38.02C136.65,7.02,101.31,42.36,101.31,85.8z
		 M199.06,71.24h16c1.19,0,2.16-0.97,2.16-2.16v-3.97c0-1.19-0.97-2.16-2.16-2.16h-16c-1.19,0-2.16,0.97-2.16,2.16v3.97
		C196.9,70.27,197.86,71.24,199.06,71.24z M199.7,69.22h8.23c0.61,0,1.11-0.5,1.11-1.11v-2.04c0-0.61-0.5-1.11-1.11-1.11h-8.23
		c-0.61,0-1.11,0.5-1.11,1.11v2.04C198.58,68.73,199.08,69.22,199.7,69.22z M180.09,148.58c-34.53,0-62.62-28.09-62.62-62.62
		s28.09-62.62,62.62-62.62c1.06,0,1.91,0.86,1.91,1.91c0,1.06-0.86,1.91-1.91,1.91c-32.42,0-58.8,26.38-58.8,58.8
		s26.38,58.8,58.8,58.8s58.8-26.38,58.8-58.8c0-1.06,0.86-1.91,1.91-1.91s1.91,0.86,1.91,1.91
		C242.7,120.49,214.61,148.58,180.09,148.58z M232.59,85.96c0-1.06-0.86-1.91-1.91-1.91s-1.91,0.86-1.91,1.91
		c0,26.84-21.84,48.68-48.68,48.68s-48.68-21.84-48.68-48.68s21.84-48.68,48.68-48.68c1.06,0,1.91-0.86,1.91-1.91
		c0-1.06-0.86-1.91-1.91-1.91c-28.95,0-52.5,23.55-52.5,52.5s23.55,52.5,52.5,52.5S232.59,114.91,232.59,85.96z M222.47,85.96
		c0-1.06-0.86-1.91-1.91-1.91s-1.91,0.86-1.91,1.91c0,21.26-17.3,38.56-38.56,38.56s-38.56-17.3-38.56-38.56s17.3-38.56,38.56-38.56
		c1.06,0,1.91-0.86,1.91-1.91s-0.86-1.91-1.91-1.91c-23.37,0-42.38,19.01-42.38,42.38c0,23.37,19.01,42.38,42.38,42.38
		S222.47,109.33,222.47,85.96z M212.35,85.96c0-1.06-0.86-1.91-1.91-1.91s-1.91,0.86-1.91,1.91c0,15.68-12.76,28.44-28.44,28.44
		s-28.44-12.76-28.44-28.44s12.76-28.44,28.44-28.44c1.06,0,1.91-0.86,1.91-1.91c0-1.06-0.86-1.91-1.91-1.91
		c-17.79,0-32.26,14.47-32.26,32.26c0,17.79,14.47,32.26,32.26,32.26C197.88,118.23,212.35,103.75,212.35,85.96z M172,79.42v13.81
		c0,1,1.01,1.68,1.94,1.32l17.46-6.9c1.19-0.47,1.19-2.16,0-2.63l-17.46-6.9C173.01,77.73,172,78.42,172,79.42z"/>
	<path class="st10" d="M180.09,149.06c-34.79,0-63.09-28.3-63.09-63.09s28.3-63.09,63.09-63.09c1.32,0,2.39,1.07,2.39,2.39
		s-1.07,2.39-2.39,2.39c-32.16,0-58.32,26.16-58.32,58.32s26.16,58.32,58.32,58.32s58.32-26.16,58.32-58.32
		c0-1.32,1.07-2.39,2.39-2.39s2.39,1.07,2.39,2.39C243.18,120.75,214.88,149.06,180.09,149.06z M180.09,23.82
		c-34.26,0-62.14,27.88-62.14,62.14s27.88,62.14,62.14,62.14s62.14-27.88,62.14-62.14c0-0.79-0.64-1.43-1.43-1.43
		s-1.43,0.64-1.43,1.43c0,32.68-26.59,59.27-59.27,59.27s-59.27-26.59-59.27-59.27s26.59-59.27,59.27-59.27
		c0.79,0,1.43-0.64,1.43-1.43S180.88,23.82,180.09,23.82z M180.09,138.94c-29.21,0-52.98-23.77-52.98-52.98s23.77-52.98,52.98-52.98
		c1.32,0,2.39,1.07,2.39,2.39c0,1.32-1.07,2.39-2.39,2.39c-26.58,0-48.2,21.62-48.2,48.2s21.62,48.2,48.2,48.2s48.2-21.62,48.2-48.2
		c0-1.32,1.07-2.39,2.39-2.39c1.32,0,2.39,1.07,2.39,2.39C233.06,115.17,209.3,138.94,180.09,138.94z M180.09,33.94
		c-28.68,0-52.02,23.34-52.02,52.02s23.34,52.02,52.02,52.02s52.02-23.34,52.02-52.02c0-0.79-0.64-1.43-1.43-1.43
		c-0.79,0-1.43,0.64-1.43,1.43c0,27.1-22.05,49.16-49.16,49.16s-49.16-22.05-49.16-49.16s22.05-49.16,49.16-49.16
		c0.79,0,1.43-0.64,1.43-1.43C181.52,34.58,180.88,33.94,180.09,33.94z M180.09,128.82c-23.63,0-42.86-19.23-42.86-42.86
		c0-23.63,19.23-42.86,42.86-42.86c1.32,0,2.39,1.07,2.39,2.39s-1.07,2.39-2.39,2.39c-21,0-38.08,17.08-38.08,38.08
		c0,21,17.08,38.08,38.08,38.08s38.08-17.08,38.08-38.08c0-1.32,1.07-2.39,2.39-2.39c1.32,0,2.39,1.07,2.39,2.39
		C222.95,109.6,203.72,128.82,180.09,128.82z M180.09,44.06c-23.11,0-41.9,18.8-41.9,41.9s18.8,41.9,41.9,41.9s41.9-18.8,41.9-41.9
		c0-0.79-0.64-1.43-1.43-1.43c-0.79,0-1.43,0.64-1.43,1.43c0,21.53-17.51,39.04-39.04,39.04s-39.04-17.51-39.04-39.04
		s17.51-39.04,39.04-39.04c0.79,0,1.43-0.64,1.43-1.43C181.52,44.7,180.88,44.06,180.09,44.06z M180.09,118.7
		c-18.05,0-32.74-14.69-32.74-32.74c0-18.05,14.69-32.74,32.74-32.74c1.32,0,2.39,1.07,2.39,2.39c0,1.32-1.07,2.39-2.39,2.39
		c-15.42,0-27.96,12.54-27.96,27.96c0,15.42,12.54,27.97,27.96,27.97c15.42,0,27.97-12.54,27.97-27.97c0-1.32,1.07-2.39,2.39-2.39
		s2.39,1.07,2.39,2.39C212.83,104.02,198.14,118.7,180.09,118.7z M180.09,54.18c-17.53,0-31.79,14.26-31.79,31.79
		s14.26,31.79,31.79,31.79s31.79-14.26,31.79-31.79c0-0.79-0.64-1.43-1.43-1.43s-1.43,0.64-1.43,1.43
		c0,15.95-12.97,28.92-28.92,28.92s-28.92-12.97-28.92-28.92s12.97-28.92,28.92-28.92c0.79,0,1.43-0.64,1.43-1.43
		C181.52,54.82,180.88,54.18,180.09,54.18z M180.09,106.46c-11.4,0-20.67-9.27-20.67-20.67s9.27-20.67,20.67-20.67
		s20.67,9.27,20.67,20.67S191.48,106.46,180.09,106.46z M180.09,66.09c-10.87,0-19.71,8.84-19.71,19.71s8.84,19.71,19.71,19.71
		s19.71-8.84,19.71-19.71S190.95,66.09,180.09,66.09z M173.42,95.12c-0.38,0-0.75-0.11-1.06-0.33c-0.52-0.35-0.83-0.94-0.83-1.57
		V79.42c0-0.63,0.31-1.21,0.83-1.57c0.52-0.35,1.18-0.43,1.76-0.19l17.46,6.9c0.74,0.29,1.2,0.97,1.2,1.76s-0.46,1.47-1.2,1.76
		l-17.46,6.9C173.89,95.07,173.65,95.12,173.42,95.12z M173.41,78.48c-0.18,0-0.36,0.06-0.53,0.16c-0.26,0.18-0.41,0.46-0.41,0.78
		v13.81c0,0.32,0.15,0.6,0.41,0.78c0.26,0.18,0.58,0.21,0.87,0.1l17.46-6.9c0.44-0.17,0.59-0.56,0.59-0.87
		c0-0.31-0.16-0.7-0.59-0.87l-17.46-6.9C173.65,78.5,173.53,78.48,173.41,78.48z M101.79,86.28h-5.11V85.8
		c0-45.99,37.42-83.4,83.4-83.4c29.68,0,57.37,15.98,72.25,41.7l0.98,1.7l-23.86,23.86h-11.82c-0.26,1.18-1.32,2.06-2.58,2.06h-16
		c-1.45,0-2.64-1.18-2.64-2.64v-3.97c0-1.46,1.18-2.64,2.64-2.64h16c1.26,0,2.32,0.89,2.58,2.08h9.7l19.57-19.57
		C232.75,21.85,207.18,7.5,180.09,7.5c-43.17,0-78.3,35.12-78.3,78.3V86.28z M97.64,85.32h3.2c0.26-43.48,35.71-78.77,79.25-78.77
		c27.55,0,53.54,14.66,67.83,38.25l0.19,0.32L227.74,65.5H217.7v3.2h11.36l23.06-23.06l-0.61-1.06
		C236.8,19.15,209.43,3.35,180.09,3.35C134.78,3.35,97.9,40.08,97.64,85.32z M199.06,63.42c-0.93,0-1.68,0.76-1.68,1.68v3.97
		c0,0.93,0.76,1.68,1.68,1.68h16c0.73,0,1.35-0.46,1.58-1.11h-8.31c-0.13,0.03-0.26,0.05-0.4,0.05h-8.23
		c-0.88,0-1.59-0.71-1.59-1.59v-2.04c0-0.88,0.71-1.59,1.59-1.59h8.23c0.16,0,0.31,0.02,0.45,0.06h8.27
		c-0.23-0.65-0.86-1.12-1.59-1.12H199.06z M199.7,65.43c-0.35,0-0.64,0.28-0.64,0.64v2.04c0,0.35,0.29,0.64,0.64,0.64h6.84v-3.31
		H199.7z M209.41,68.7h7.33v-3.2h-7.33c0.07,0.18,0.11,0.37,0.11,0.57v2.04C209.52,68.32,209.48,68.52,209.41,68.7z M207.49,68.7
		h0.69c0.23-0.1,0.39-0.32,0.39-0.58v-2.04c0-0.25-0.15-0.47-0.36-0.57h-0.72V68.7z"/>
</g>
</svg>
