<?xml version="1.0" encoding="utf-8"?>
<!-- Generator: Adobe Illustrator 27.8.1, SVG Export Plug-In . SVG Version: 6.00 Build 0)  -->
<svg version="1.1" id="Layer_1" xmlns="http://www.w3.org/2000/svg" xmlns:xlink="http://www.w3.org/1999/xlink" x="0px" y="0px"
	 viewBox="0 0 350 230" style="enable-background:new 0 0 350 230;" xml:space="preserve">
<style type="text/css">
	.st0{fill:#F5F5F5;stroke:#404040;stroke-width:2;stroke-miterlimit:10;}
	.st1{fill:#49BDC9;}
	.st2{fill:none;stroke:#404040;stroke-miterlimit:10;}
	.st3{fill:#F5F5F5;}
	.st4{fill:none;stroke:#FFFFFF;stroke-miterlimit:10;}
	.st5{fill:#2F2F3F;}
	.st6{fill:#02028C;}
	.st7{fill:#FFFFFF;}
	.st8{fill:#023C44;}
	.st9{fill:#022231;}
	.st10{fill:#53C2BB;}
	.st11{fill:#FF680D;}
	.st12{fill:#00EDFF;}
	.st13{fill:#213000;}
	.st14{fill:#FFB034;}
	.st15{fill:#00556A;}
	.st16{fill:#380C00;}
	.st17{fill:#00556A;stroke:#FFFFFF;stroke-width:0.5;stroke-miterlimit:10;}
	.st18{fill:#750000;}
	.st19{fill:#D40B00;}
	.st20{fill:#8E0073;}
	.st21{fill:#494949;}
	.st22{fill:#259AAB;}
	.st23{fill:#3DAEB7;}
	.st24{fill:#065652;}
	.st25{fill:#A8C6E9;}
	.st26{fill:#3F0101;}
	.st27{fill:#80C445;}
	.st28{fill:#F4D4AE;}
	.st29{fill:#E95454;}
	.st30{fill:#760689;}
	.st31{fill:#DEBFFF;}
	.st32{fill:url(#SVGID_1_);}
	.st33{fill:url(#SVGID_00000067231949217200742850000002448605052096214152_);}
	.st34{fill:url(#_x3C_Compound_Path_x3E__Music_Icon_00000000185345390622978290000004719011487828880269_);}
	.st35{opacity:0.3;fill:url(#_x3C_Compound_Path_x3E__Music_Shades_00000155118845326627876050000001764634659942200208_);}
	.st36{opacity:0.8;fill:#FFFFFF;}
	.st37{fill:#590068;}
	.st38{fill:#293767;}
	.st39{fill:#008294;}
	.st40{fill:url(#SVGID_00000055679585353980294470000000643555664979041198_);}
	.st41{fill:#F5F5F6;}
	.st42{fill:#021284;}
	.st43{fill:#751616;}
	.st44{fill:url(#SVGID_00000132089936134729523500000001273876627899114897_);}
	.st45{fill:#0000A2;}
	.st46{fill:#00833F;}
	.st47{fill:#6B1800;}
	.st48{fill:#54004C;}
	.st49{fill:#C10073;}
	.st50{fill:#7A0334;}
	.st51{fill:#002066;}
	.st52{fill:#5E5700;}
	.st53{fill:#350033;}
	.st54{fill:#FFB000;}
	.st55{fill:#490000;}
	.st56{fill:#875F74;}
	.st57{fill:#003035;}
	.st58{fill:#3659FF;}
	.st59{fill:#9B8F00;}
	.st60{fill:#4C1200;}
	.st61{fill:#016A72;}
	.st62{fill:#FF0000;}
	.st63{fill:#005C68;}
	.st64{fill:#4A0075;}
	.st65{fill:url(#SVGID_00000133514840957113609320000016468522315636167298_);}
	.st66{fill:#020242;}
	.st67{fill:#228DC9;}
	.st68{fill:#551700;}
	.st69{fill:#00C2E0;}
	.st70{fill:#012F4C;}
	.st71{fill:#300018;}
	.st72{fill-rule:evenodd;clip-rule:evenodd;fill:#6D3C5B;}
	.st73{fill-rule:evenodd;clip-rule:evenodd;fill:#020242;}
	.st74{fill:#9B001E;}
	.st75{fill:#00E1FF;}
	.st76{fill:#680040;}
	.st77{fill:#8E8700;}
	.st78{fill:#220247;}
	.st79{fill:#0086FF;}
	.st80{fill:#7C4F00;}
	.st81{fill:#520000;}
	.st82{fill:#04A8CB;}
	.st83{fill:#18618B;}
	.st84{fill:#958C00;}
	.st85{fill:#B0261C;}
	.st86{fill:#013147;}
	.st87{fill:#CD11A1;}
	.st88{fill:#296262;}
	.st89{fill:#5C5E00;}
	.st90{fill:#55B1C8;}
	.st91{fill:#918C34;}
	.st92{fill:#F94351;}
	.st93{fill:#9B001A;}
	.st94{fill:#000066;}
	.st95{fill:#636568;}
	.st96{fill:#002544;}
	.st97{fill:#723300;}
	.st98{fill:url(#SVGID_00000050633191697491796260000017202550873104577173_);}
	.st99{fill:#F393BD;}
	.st100{fill:url(#SVGID_00000027593388662620914360000015066596053238695857_);}
	.st101{fill:#011354;}
	.st102{fill:#38011B;}
	.st103{fill-rule:evenodd;clip-rule:evenodd;fill:#2365A6;}
	.st104{fill:#351B01;}
	.st105{fill-rule:evenodd;clip-rule:evenodd;fill:#351B01;}
	.st106{fill:#02484C;}
	.st107{fill:none;stroke:#02484C;stroke-width:4;stroke-miterlimit:10;}
</style>
<g>
	<g>
		<path class="st30" d="M229.48,26.47c4.2,27.46-18.99,34.34-24.92,35.64l-34.44,5.2c-0.6-3.15-3.02-5.37-5.54-4.98
			c-2.51,0.38-4.16,3.22-3.79,6.41l-9.22,1.41c-0.6-3.15-3.02-5.36-5.54-4.98c-2.51,0.38-4.16,3.22-3.79,6.41l-9.03,1.38
			c-0.6-3.15-3.02-5.37-5.54-4.98c-2.51,0.38-4.16,3.22-3.8,6.41l-22.09,3.38l-0.15-0.97l-4.49,0.69c0,0-9.99,1-11.43-8.4
			l-3.76,0.58l4.34,28.37l3.76-0.57c-1.44-9.4,8.4-11.44,8.4-11.44l4.49-0.69l-0.11-0.74l9.18-1.41c-2.5,3.95-3.66,8.76-2.9,13.73
			l0.28,1.82c1.57,10.25,10.69,17.52,20.84,16.99c0.71,2.96,3.04,5,5.45,4.63c2.39-0.37,3.99-2.96,3.83-5.95l9.1-1.4
			c0.74,2.91,3.04,4.9,5.43,4.54c2.39-0.36,3.99-2.96,3.83-5.95l9.29-1.42c0.74,2.91,3.04,4.9,5.43,4.54
			c2.42-0.37,4.03-3.01,3.82-6.05c9.84-2.53,16.37-12.19,14.81-22.45l-0.28-1.82c-0.76-4.97-3.3-9.22-6.87-12.24l20.59-3.25
			c3.78-0.47,30.89-2.77,35.36,26.46l4.05-0.62l-10.55-68.91L229.48,26.47z M129.13,108.85c-6.34-0.04-11.91-4.67-12.9-11.14
			l-0.28-1.82c-0.99-6.46,2.94-12.55,8.97-14.48L129.13,108.85z M147.51,106.22l-8.98,1.37l-4.25-27.8l8.98-1.37L147.51,106.22z
			 M166.06,103.38l-9.17,1.4l-4.25-27.8l9.17-1.41L166.06,103.38z M184.39,87.28c0.99,6.46-2.94,12.55-8.98,14.48l-4.2-27.44
			c6.34,0.04,11.91,4.68,12.9,11.14L184.39,87.28z"/>
		<path class="st19" d="M135.86,65.16l-47.3-24.97L136.6,63.7L135.86,65.16z M112.4,68.87l-25.97-5.81l26.28,4.2L112.4,68.87z
			 M143.9,63.73l-38.27-40.81l39.45,39.67L143.9,63.73z M149.27,62.7l-26.36-52.01l27.81,51.25L149.27,62.7z M171.87,58.29
			l38.78-36.83l-37.63,38L171.87,58.29z M195.73,54.52l23.81-11.89l-23.03,13.33L195.73,54.52z M163.46,59.78l25.73-49.68
			l-24.27,50.41L163.46,59.78z M157.88,60.84l11.16-57.23l-9.54,57.52L157.88,60.84z M152.49,61.94l-8.32-59.58l9.94,59.33
			L152.49,61.94z M270.19,26.55c0.2-0.55-0.08-1.17-0.63-1.37c-0.56-0.21-1.17,0.08-1.38,0.63l-4.69,12.71
			c-0.58-0.71-1.37-1.29-2.33-1.64c-2.54-0.94-5.25,0.08-6.06,2.28c-0.81,2.19,0.59,4.73,3.13,5.67c2.54,0.94,5.25-0.08,6.06-2.28
			C264.37,42.33,270.19,26.55,270.19,26.55z M278.99,44.31c-0.31-0.35-0.85-0.38-1.2-0.07c-0.35,0.31-0.38,0.85-0.07,1.2l7.17,8.02
			c-0.71,0.14-1.42,0.48-2.02,1.02c-1.6,1.43-1.9,3.72-0.66,5.1c1.24,1.39,3.54,1.35,5.14-0.09c1.6-1.43,1.9-3.72,0.66-5.1
			C287.89,54.27,278.99,44.31,278.99,44.31z M274.7,66.33c0.09-0.46-0.21-0.9-0.67-0.99c-0.03-0.01-0.06,0-0.09,0v-0.02l-17.22-1.17
			v0.02c-0.42-0.04-0.82,0.24-0.9,0.66l-2.05,10.47c-0.54-0.48-1.23-0.83-2.02-0.99c-2.09-0.41-4.08,0.72-4.43,2.53
			c-0.36,1.81,1.05,3.6,3.14,4.01c2.09,0.41,4.08-0.72,4.43-2.53c0.04-0.18,1.82-9.27,1.82-9.27l15.52,1.05l-1.25,6.35
			c-0.54-0.48-1.23-0.83-2.02-0.99c-2.09-0.41-4.07,0.72-4.43,2.53c-0.35,1.81,1.05,3.61,3.14,4.02c2.09,0.41,4.08-0.72,4.43-2.53
			C272.15,79.33,274.7,66.33,274.7,66.33z M256.99,67.64l0.39-1.98l15.52,1.05l-0.39,1.99L256.99,67.64z"/>
	</g>
</g>
</svg>
