<?xml version="1.0" encoding="utf-8"?>
<!-- Generator: Adobe Illustrator 27.8.1, SVG Export Plug-In . SVG Version: 6.00 Build 0)  -->
<svg version="1.1" id="Layer_1" xmlns="http://www.w3.org/2000/svg" xmlns:xlink="http://www.w3.org/1999/xlink" x="0px" y="0px"
	 viewBox="0 0 350 230" style="enable-background:new 0 0 350 230;" xml:space="preserve">
<style type="text/css">
	.st0{fill:#F5F5F5;stroke:#404040;stroke-width:2;stroke-miterlimit:10;}
	.st1{fill:#49BDC9;}
	.st2{fill:none;stroke:#404040;stroke-miterlimit:10;}
	.st3{fill:#F5F5F5;}
	.st4{fill:none;stroke:#FFFFFF;stroke-miterlimit:10;}
	.st5{fill:#2F2F3F;}
	.st6{fill:#02028C;}
	.st7{fill:#FFFFFF;}
	.st8{fill:#023C44;}
	.st9{fill:#022231;}
	.st10{fill:#53C2BB;}
	.st11{fill:#FF680D;}
	.st12{fill:#00EDFF;}
	.st13{fill:#213000;}
	.st14{fill:#FFB034;}
	.st15{fill:#00556A;}
	.st16{fill:#380C00;}
	.st17{fill:#00556A;stroke:#FFFFFF;stroke-width:0.5;stroke-miterlimit:10;}
	.st18{fill:#750000;}
	.st19{fill:#D40B00;}
	.st20{fill:#8E0073;}
	.st21{fill:#494949;}
	.st22{fill:#259AAB;}
	.st23{fill:#3DAEB7;}
	.st24{fill:#065652;}
	.st25{fill:#A8C6E9;}
	.st26{fill:#3F0101;}
	.st27{fill:#80C445;}
	.st28{fill:#F4D4AE;}
	.st29{fill:#E95454;}
	.st30{fill:#760689;}
	.st31{fill:#DEBFFF;}
	.st32{fill:url(#SVGID_1_);}
	.st33{fill:url(#SVGID_00000161591953589731389530000007281213277860986532_);}
	.st34{fill:url(#_x3C_Compound_Path_x3E__Music_Icon_00000003089320553311353700000014472605295125719716_);}
	.st35{opacity:0.3;fill:url(#_x3C_Compound_Path_x3E__Music_Shades_00000161593207567914374380000016099649017059797178_);}
	.st36{opacity:0.8;fill:#FFFFFF;}
	.st37{fill:#590068;}
	.st38{fill:#293767;}
	.st39{fill:#008294;}
	.st40{fill:url(#SVGID_00000021110825812087735660000000138720281673500601_);}
	.st41{fill:#F5F5F6;}
	.st42{fill:#021284;}
	.st43{fill:#751616;}
	.st44{fill:url(#SVGID_00000024722039099976246160000003014599341692536961_);}
	.st45{fill:#0000A2;}
	.st46{fill:#00833F;}
	.st47{fill:#6B1800;}
	.st48{fill:#54004C;}
	.st49{fill:#C10073;}
	.st50{fill:#7A0334;}
	.st51{fill:#002066;}
	.st52{fill:#5E5700;}
	.st53{fill:#350033;}
	.st54{fill:#FFB000;}
	.st55{fill:#490000;}
	.st56{fill:#875F74;}
	.st57{fill:#003035;}
	.st58{fill:#3659FF;}
	.st59{fill:#9B8F00;}
	.st60{fill:#4C1200;}
	.st61{fill:#016A72;}
	.st62{fill:#FF0000;}
	.st63{fill:#005C68;}
	.st64{fill:#4A0075;}
	.st65{fill:url(#SVGID_00000090262621190534966950000001189903171605015445_);}
	.st66{fill:#020242;}
	.st67{fill:#228DC9;}
	.st68{fill:#551700;}
	.st69{fill:#00C2E0;}
	.st70{fill:#012F4C;}
	.st71{fill:#300018;}
	.st72{fill-rule:evenodd;clip-rule:evenodd;fill:#6D3C5B;}
	.st73{fill-rule:evenodd;clip-rule:evenodd;fill:#020242;}
	.st74{fill:#9B001E;}
	.st75{fill:#00E1FF;}
	.st76{fill:#680040;}
	.st77{fill:#8E8700;}
	.st78{fill:#220247;}
	.st79{fill:#0086FF;}
	.st80{fill:#7C4F00;}
	.st81{fill:#520000;}
	.st82{fill:#04A8CB;}
	.st83{fill:#18618B;}
	.st84{fill:#958C00;}
	.st85{fill:#B0261C;}
	.st86{fill:#013147;}
	.st87{fill:#CD11A1;}
	.st88{fill:#296262;}
	.st89{fill:#5C5E00;}
	.st90{fill:#55B1C8;}
	.st91{fill:#918C34;}
	.st92{fill:#F94351;}
	.st93{fill:#9B001A;}
	.st94{fill:#000066;}
	.st95{fill:#636568;}
	.st96{fill:#002544;}
	.st97{fill:#723300;}
	.st98{fill:url(#SVGID_00000028310454184445324910000014442347496744342949_);}
	.st99{fill:#F393BD;}
	.st100{fill:url(#SVGID_00000060733607024629453990000007104679185960874884_);}
	.st101{fill:#011354;}
	.st102{fill:#38011B;}
	.st103{fill-rule:evenodd;clip-rule:evenodd;fill:#2365A6;}
	.st104{fill:#351B01;}
	.st105{fill-rule:evenodd;clip-rule:evenodd;fill:#351B01;}
	.st106{fill:#02484C;}
	.st107{fill:none;stroke:#02484C;stroke-width:4;stroke-miterlimit:10;}
</style>
<g>
	<g>
		<path class="st13" d="M215.09,154.5c-0.91-0.88-2.36-0.88-3.24,0c-0.88,0.88-0.88,2.33,0,3.24c0.83,0.84,2.16,0.88,3.07,0.12h0.02
			c0.05-0.02,0.1-0.07,0.15-0.12c0.25-0.27,0.44-0.59,0.54-0.91v-0.02C215.9,156.03,215.72,155.12,215.09,154.5z M89.8,6.7
			c-0.27-0.12-0.49-0.27-0.66-0.39L88.5,6.94l-0.2,0.2l1.15,1.15L90,7.75l0.69-0.69C90.44,6.99,90.15,6.87,89.8,6.7z M91.25,3.87
			c-1.23-0.61-2.28,0.15-2.58,0.52c-0.27,0.32-0.88,1.01,0.47,1.92l0.56-0.56l1.15,1.15l-0.17,0.17c1.38,0.42,1.55-0.42,1.65-0.81
			C92.46,5.79,92.46,4.49,91.25,3.87z M95.53,9.69c-0.27-0.15-0.49-0.27-0.69-0.39l-0.69,0.69l1.15,1.15l1.11-1.11
			C96.16,9.99,95.87,9.87,95.53,9.69z M96.98,6.85c-1.23-0.61-2.26,0.17-2.58,0.54c-0.25,0.29-0.88,0.98,0.44,1.92l0.71-0.71
			l1.15,1.15l-0.29,0.29c1.38,0.44,1.57-0.39,1.65-0.79C98.18,8.79,98.18,7.48,96.98,6.85z M101.15,12.45
			c-0.27-0.12-0.49-0.27-0.66-0.39l-0.84,0.84l0.15,0.15l1.01,1.01l1.23-1.23C101.79,12.74,101.49,12.62,101.15,12.45z M102.6,9.62
			c-1.2-0.61-2.26,0.15-2.58,0.52c-0.27,0.32-0.86,1.01,0.47,1.92l0.56-0.56l1.15,1.15l-0.17,0.17c1.38,0.44,1.57-0.42,1.67-0.81
			C103.8,11.56,103.83,10.24,102.6,9.62z M120.87,30.5c-0.47-0.91-1.13-2.53-1.18-4.45c0-0.69,0.05-1.42,0.22-2.19l-2.6-1.4
			l-1.01-0.54l-4.47-2.41l-1.18-0.64l-4.47-2.41l-1.5-0.81l-3.59-1.92l-1.3-0.71l-4.15-2.24l-1.5-0.81L90,7.75l-1.5-0.81L82.83,3.9
			c0,0,1.74,4.99,1.01,9.73c0,0,11.74,8.13,18.17,19.3c0,0,2.6,0.12,5.87,1.62c1.25,0.59,2.63,1.35,3.98,2.41
			c0.69,0.52,1.38,1.13,2.04,1.82l7.47-7.47C121.36,31.31,121.17,31.01,120.87,30.5z M87.94,11.02c-0.91,0-1.62-0.74-1.62-1.62
			c0-0.91,0.71-1.65,1.62-1.65s1.65,0.74,1.65,1.65C89.58,10.28,88.85,11.02,87.94,11.02z M94.3,13.6c-0.64,0.64-1.67,0.64-2.31,0
			c-0.64-0.64-0.64-1.67,0-2.31c0.64-0.64,1.67-0.64,2.31,0C94.94,11.93,94.94,12.96,94.3,13.6z M99.68,16.67
			c-0.64,0.64-1.67,0.64-2.31,0c-0.64-0.64-0.64-1.67,0-2.31c0.64-0.64,1.67-0.64,2.31,0C100.32,15,100.32,16.03,99.68,16.67z
			 M105.15,19.18c-0.64,0.64-1.67,0.64-2.31,0c-0.64-0.64-0.64-1.67,0-2.31c0.64-0.64,1.67-0.64,2.31,0
			C105.79,17.51,105.79,18.54,105.15,19.18z M113.63,23.03c0.64-0.64,1.67-0.64,2.31,0c0.61,0.64,0.61,1.67,0,2.31
			c-0.64,0.64-1.69,0.64-2.31,0C112.99,24.7,112.99,23.67,113.63,23.03z M108.22,19.94c0.64-0.64,1.67-0.64,2.31,0
			c0.64,0.64,0.64,1.67,0,2.31c-0.64,0.64-1.67,0.64-2.31,0C107.59,21.61,107.59,20.58,108.22,19.94z M229.67,135.47l-0.74-0.74
			l-4.89-4.86c-0.22-0.22-0.54-0.22-0.76,0l-11.05,11.05c-0.2,0.2-0.2,0.54,0,0.74l5.62,5.62c0.22,0.2,0.54,0.2,0.76,0l7.44-7.44
			l3.61-3.61C229.87,136.03,229.87,135.69,229.67,135.47z M231.74,134.58l-6.78-6.78c-0.22-0.22-0.54-0.22-0.76,0l-14.02,14.02
			c-0.2,0.2-0.2,0.54,0,0.74l6.78,6.78c0.22,0.2,0.54,0.2,0.76,0l14.02-14.02C231.93,135.12,231.93,134.78,231.74,134.58z
			 M235.77,139.03c-0.25-0.22-0.54-0.34-0.86-0.34c-0.1,0-0.2,0-0.27,0.05c-0.22,0.02-0.44,0.15-0.61,0.29l-12.3,12.3
			c-0.49,0.49-0.49,1.28,0,1.74c0.15,0.15,0.32,0.25,0.52,0.29c0.42,0.15,0.91,0.05,1.23-0.29l7-6.98l5.31-5.31
			C236.26,140.31,236.26,139.52,235.77,139.03z M106.19,15.22c-0.27-0.15-0.49-0.27-0.69-0.39l-0.81,0.84l1.15,1.15l1.23-1.23
			C106.82,15.52,106.53,15.39,106.19,15.22z M107.61,12.4c-1.2-0.61-2.26,0.15-2.55,0.52c-0.27,0.34-0.88,1.01,0.44,1.92l0.56-0.56
			l1.18,1.15l-0.17,0.17c1.35,0.44,1.55-0.39,1.65-0.79C108.84,14.34,108.84,13.04,107.61,12.4z M111.91,18.22
			c-0.27-0.12-0.49-0.27-0.66-0.39l-0.84,0.81l1.15,1.15l0.27-0.27l0.96-0.93C112.55,18.51,112.25,18.39,111.91,18.22z
			 M113.36,15.39c-1.23-0.64-2.28,0.15-2.58,0.52c-0.27,0.32-0.88,1.01,0.47,1.92l0.56-0.56l1.15,1.15l-0.17,0.17
			c1.38,0.42,1.55-0.42,1.65-0.81C114.56,17.31,114.56,16.01,113.36,15.39z M117.41,21.12c-0.27-0.12-0.49-0.27-0.66-0.39
			l-0.83,0.81l0.39,0.39l0.76,0.76l0.25-0.22l0.98-0.98C118.05,21.41,117.75,21.29,117.41,21.12z M118.86,18.29
			c-1.23-0.61-2.28,0.15-2.58,0.52c-0.27,0.32-0.88,1.01,0.47,1.92l0.56-0.56l1.15,1.15l-0.17,0.17c1.38,0.42,1.55-0.42,1.65-0.81
			C120.06,20.21,120.06,18.91,118.86,18.29z M308.34,155.04c-12.5-6.07-38.54-18.62-61.77-29.84c-1.33-0.64-2.65-1.28-3.95-1.92
			c-1.01-0.47-1.99-0.96-2.97-1.42c-1.11-0.54-2.21-1.06-3.29-1.6c-19.45-9.38-34.8-16.8-34.8-16.8c-3.09,1.92-4.74,0.91-4.74,0.91
			l-7.1,2.41l-2.41,7.1c0,0,1.01,1.65-0.91,4.74c0,0,6.14,12.72,14.32,29.67c1.13,2.36,2.31,4.79,3.51,7.29
			c1.65,3.36,3.32,6.83,5.01,10.39c0.61,1.25,1.23,2.51,1.82,3.76c0.54,1.11,1.08,2.23,1.62,3.34c0.74,1.5,1.45,3,2.16,4.47
			c9.21,19.03,18.27,37.82,23.14,47.87c0.79,1.65,3.22,1.01,3.14-0.81c-0.66-13.61-1.33-40.7,2.48-56.37
			c0.91-3.73,3.83-6.66,7.56-7.56c15.67-3.81,42.76-3.14,56.37-2.48C309.35,158.26,309.99,155.83,308.34,155.04z M258.75,152.96
			l-18.81,3.76c-0.15,0.05-0.25,0.15-0.29,0.32l-3.78,18.79c-0.07,0.42-0.71,0.37-0.74-0.07l-1.15-24.31c0-0.22,0.17-0.39,0.39-0.39
			l24.31,1.15C259.12,152.22,259.17,152.86,258.75,152.96z M261.5,6.94l-0.64-0.64c-0.17,0.12-0.39,0.27-0.66,0.39
			c-0.34,0.17-0.64,0.29-0.88,0.37l0.69,0.69l0.54,0.54l1.15-1.15L261.5,6.94z M261.33,4.39c-0.32-0.37-1.35-1.13-2.58-0.52
			c-1.2,0.61-1.2,1.92-1.08,2.38c0.07,0.39,0.27,1.23,1.62,0.81l-0.15-0.17l1.15-1.15l0.56,0.56C262.19,5.4,261.6,4.71,261.33,4.39z
			 M255.17,9.3c-0.2,0.12-0.42,0.25-0.69,0.39c-0.34,0.17-0.64,0.29-0.88,0.34l1.23,1.23l1.15-1.15L255.17,9.3z M255.61,7.39
			c-0.32-0.37-1.38-1.15-2.58-0.54c-1.23,0.64-1.2,1.94-1.11,2.41c0.1,0.39,0.29,1.23,1.67,0.79l-0.17-0.17l1.15-1.15l0.59,0.59
			C256.47,8.37,255.86,7.68,255.61,7.39z M249.67,12.2c-0.2,0.12-0.42,0.25-0.69,0.39c-0.34,0.17-0.64,0.29-0.88,0.37l0.79,0.79
			l0.42,0.42l1.18-1.15L249.67,12.2z M250.11,10.28c-0.32-0.37-1.38-1.15-2.58-0.54c-1.23,0.64-1.2,1.94-1.11,2.41
			c0.1,0.39,0.29,1.23,1.67,0.81l-0.17-0.2l1.15-1.15l0.59,0.59C250.97,11.27,250.35,10.6,250.11,10.28z M267.18,3.9l-5.67,3.05
			l-1.5,0.81l-4.15,2.24l-1.5,0.81l-3.95,2.14l-1.52,0.81l-3.56,1.92l-1.5,0.81l-4.18,2.24l-1.5,0.81l-3.95,2.14l-1.5,0.81
			l-2.63,1.4c0.17,0.76,0.25,1.5,0.22,2.19c-0.05,1.94-0.71,3.54-1.18,4.45c-0.27,0.52-0.47,0.81-0.47,0.81l7.44,7.47
			c0.66-0.69,1.35-1.3,2.06-1.82c1.35-1.06,2.73-1.84,3.98-2.41c3.29-1.5,5.87-1.62,5.87-1.62c6.43-11.17,18.17-19.3,18.17-19.3
			C265.41,8.88,267.18,3.9,267.18,3.9z M236.38,23.03c0.64,0.64,0.64,1.67,0,2.31c-0.64,0.64-1.67,0.64-2.31,0
			c-0.64-0.64-0.64-1.67,0-2.31C234.71,22.39,235.74,22.39,236.38,23.03z M241.76,22.25c-0.61,0.64-1.67,0.64-2.28,0
			c-0.64-0.64-0.64-1.67,0-2.31c0.64-0.64,1.67-0.64,2.31,0C242.4,20.58,242.4,21.61,241.76,22.25z M247.16,19.18
			c-0.64,0.64-1.67,0.64-2.31,0c-0.64-0.64-0.64-1.67,0-2.31c0.64-0.64,1.67-0.64,2.31,0C247.8,17.51,247.8,18.54,247.16,19.18z
			 M252.64,16.67c-0.64,0.64-1.67,0.64-2.31,0s-0.64-1.67,0-2.31s1.67-0.64,2.31,0C253.28,15,253.28,16.03,252.64,16.67z
			 M258.02,13.6c-0.64,0.64-1.67,0.64-2.31,0c-0.64-0.64-0.64-1.67,0-2.31c0.64-0.64,1.67-0.64,2.31,0
			C258.66,11.93,258.66,12.96,258.02,13.6z M263.4,10.51c-0.61,0.64-1.67,0.64-2.31,0c-0.61-0.64-0.61-1.67,0.02-2.31
			c0.61-0.64,1.65-0.64,2.28,0S264.03,9.87,263.4,10.51z M137.75,140.92l-11.05-11.05c-0.2-0.22-0.54-0.22-0.74,0l-4.89,4.86
			l-0.74,0.74c-0.2,0.22-0.2,0.56,0,0.76l11.05,11.05l6.36-5.62C137.97,141.46,137.97,141.12,137.75,140.92z M137.75,140.92
			l-11.05-11.05c-0.2-0.22-0.54-0.22-0.74,0l-4.89,4.86l-0.74,0.74c-0.2,0.22-0.2,0.56,0,0.76l11.05,11.05l6.36-5.62
			C137.97,141.46,137.97,141.12,137.75,140.92z M245.32,15.66l-0.69-0.69c-0.2,0.12-0.42,0.25-0.69,0.39
			c-0.34,0.17-0.61,0.29-0.86,0.37l1.2,1.2l1.15-1.15L245.32,15.66z M245.07,13.06c-0.29-0.37-1.35-1.15-2.55-0.54
			c-1.23,0.64-1.23,1.94-1.11,2.41c0.1,0.39,0.27,1.23,1.65,0.81l-0.17-0.2l1.15-1.15l0.59,0.59
			C245.96,14.04,245.34,13.38,245.07,13.06z M239.65,18.71l-0.76-0.76c-0.17,0.12-0.39,0.27-0.66,0.39
			c-0.34,0.17-0.64,0.29-0.88,0.37l0.81,0.81l0.42,0.42l1.15-1.15L239.65,18.71z M239.35,16.03c-0.29-0.37-1.35-1.13-2.58-0.52
			c-1.2,0.61-1.2,1.92-1.08,2.38c0.1,0.39,0.27,1.23,1.65,0.81l-0.17-0.17l1.15-1.15l0.56,0.56
			C240.24,17.04,239.62,16.35,239.35,16.03z M234.19,21.66l-0.81-0.81c-0.17,0.12-0.39,0.27-0.66,0.39
			c-0.34,0.17-0.64,0.29-0.88,0.37l0.86,0.86l0.37,0.37l1.15-1.15L234.19,21.66z M233.85,18.93c-0.29-0.37-1.35-1.13-2.58-0.52
			c-1.2,0.61-1.2,1.92-1.08,2.38c0.1,0.39,0.27,1.23,1.65,0.81l-0.17-0.17l1.15-1.15l0.56,0.56
			C234.73,19.94,234.12,19.25,233.85,18.93z M137.75,140.92l-11.05-11.05c-0.2-0.22-0.54-0.22-0.74,0l-4.89,4.86l-0.74,0.74
			c-0.2,0.22-0.2,0.56,0,0.76l11.05,11.05l6.36-5.62C137.97,141.46,137.97,141.12,137.75,140.92z M137.75,140.92l-11.05-11.05
			c-0.2-0.22-0.54-0.22-0.74,0l-4.89,4.86l-0.74,0.74c-0.2,0.22-0.2,0.56,0,0.76l11.05,11.05l6.36-5.62
			C137.97,141.46,137.97,141.12,137.75,140.92z M137.75,140.92l-11.05-11.05c-0.2-0.22-0.54-0.22-0.74,0l-4.89,4.86l-0.74,0.74
			c-0.2,0.22-0.2,0.56,0,0.76l11.05,11.05l6.36-5.62C137.97,141.46,137.97,141.12,137.75,140.92z M137.75,140.92l-11.05-11.05
			c-0.2-0.22-0.54-0.22-0.74,0l-4.89,4.86l-0.74,0.74c-0.2,0.22-0.2,0.56,0,0.76l11.05,11.05l6.36-5.62
			C137.97,141.46,137.97,141.12,137.75,140.92z M137.75,140.92l-11.05-11.05c-0.2-0.22-0.54-0.22-0.74,0l-4.89,4.86l-0.74,0.74
			c-0.2,0.22-0.2,0.56,0,0.76l11.05,11.05l6.36-5.62C137.97,141.46,137.97,141.12,137.75,140.92z M137.75,140.92l-11.05-11.05
			c-0.2-0.22-0.54-0.22-0.74,0l-4.89,4.86l-0.74,0.74c-0.2,0.22-0.2,0.56,0,0.76l11.05,11.05l6.36-5.62
			C137.97,141.46,137.97,141.12,137.75,140.92z M137.75,140.92l-11.05-11.05c-0.2-0.22-0.54-0.22-0.74,0l-4.89,4.86l-0.74,0.74
			c-0.2,0.22-0.2,0.56,0,0.76l11.05,11.05l6.36-5.62C137.97,141.46,137.97,141.12,137.75,140.92z M137.75,140.92l-11.05-11.05
			c-0.2-0.22-0.54-0.22-0.74,0l-4.89,4.86l-0.74,0.74c-0.2,0.22-0.2,0.56,0,0.76l11.05,11.05l6.36-5.62
			C137.97,141.46,137.97,141.12,137.75,140.92z M137.75,140.92l-11.05-11.05c-0.2-0.22-0.54-0.22-0.74,0l-4.89,4.86l-0.74,0.74
			c-0.2,0.22-0.2,0.56,0,0.76l11.05,11.05l6.36-5.62C137.97,141.46,137.97,141.12,137.75,140.92z M137.75,140.92l-11.05-11.05
			c-0.2-0.22-0.54-0.22-0.74,0l-4.89,4.86l-0.74,0.74c-0.2,0.22-0.2,0.56,0,0.76l11.05,11.05l6.36-5.62
			C137.97,141.46,137.97,141.12,137.75,140.92z M137.75,140.92l-11.05-11.05c-0.2-0.22-0.54-0.22-0.74,0l-4.89,4.86l-0.74,0.74
			c-0.2,0.22-0.2,0.56,0,0.76l11.05,11.05l6.36-5.62C137.97,141.46,137.97,141.12,137.75,140.92z M137.75,140.92l-11.05-11.05
			c-0.2-0.22-0.54-0.22-0.74,0l-4.89,4.86l-0.74,0.74c-0.2,0.22-0.2,0.56,0,0.76l11.05,11.05l6.36-5.62
			C137.97,141.46,137.97,141.12,137.75,140.92z M137.75,140.92l-11.05-11.05c-0.2-0.22-0.54-0.22-0.74,0l-4.89,4.86l-0.74,0.74
			c-0.2,0.22-0.2,0.56,0,0.76l11.05,11.05l6.36-5.62C137.97,141.46,137.97,141.12,137.75,140.92z M137.75,140.92l-11.05-11.05
			c-0.2-0.22-0.54-0.22-0.74,0l-4.89,4.86l-0.74,0.74c-0.2,0.22-0.2,0.56,0,0.76l11.05,11.05l6.36-5.62
			C137.97,141.46,137.97,141.12,137.75,140.92z M137.75,140.92l-11.05-11.05c-0.2-0.22-0.54-0.22-0.74,0l-4.89,4.86l-0.74,0.74
			c-0.2,0.22-0.2,0.56,0,0.76l11.05,11.05l6.36-5.62C137.97,141.46,137.97,141.12,137.75,140.92z M137.75,140.92l-11.05-11.05
			c-0.2-0.22-0.54-0.22-0.74,0l-4.89,4.86l-0.74,0.74c-0.2,0.22-0.2,0.56,0,0.76l11.05,11.05l6.36-5.62
			C137.97,141.46,137.97,141.12,137.75,140.92z M137.75,140.92l-11.05-11.05c-0.2-0.22-0.54-0.22-0.74,0l-4.89,4.86l-0.74,0.74
			c-0.2,0.22-0.2,0.56,0,0.76l11.05,11.05l6.36-5.62C137.97,141.46,137.97,141.12,137.75,140.92z M137.75,140.92l-11.05-11.05
			c-0.2-0.22-0.54-0.22-0.74,0l-4.89,4.86l-0.74,0.74c-0.2,0.22-0.2,0.56,0,0.76l11.05,11.05l6.36-5.62
			C137.97,141.46,137.97,141.12,137.75,140.92z M137.75,140.92l-11.05-11.05c-0.2-0.22-0.54-0.22-0.74,0l-4.89,4.86l-0.74,0.74
			c-0.2,0.22-0.2,0.56,0,0.76l11.05,11.05l6.36-5.62C137.97,141.46,137.97,141.12,137.75,140.92z M137.75,140.92l-11.05-11.05
			c-0.2-0.22-0.54-0.22-0.74,0l-4.89,4.86l-0.74,0.74c-0.2,0.22-0.2,0.56,0,0.76l11.05,11.05l6.36-5.62
			C137.97,141.46,137.97,141.12,137.75,140.92z M137.75,140.92l-11.05-11.05c-0.2-0.22-0.54-0.22-0.74,0l-4.89,4.86l-0.74,0.74
			c-0.2,0.22-0.2,0.56,0,0.76l11.05,11.05l6.36-5.62C137.97,141.46,137.97,141.12,137.75,140.92z M137.75,140.92l-11.05-11.05
			c-0.2-0.22-0.54-0.22-0.74,0l-4.89,4.86l-0.74,0.74c-0.2,0.22-0.2,0.56,0,0.76l11.05,11.05l6.36-5.62
			C137.97,141.46,137.97,141.12,137.75,140.92z M137.75,140.92l-11.05-11.05c-0.2-0.22-0.54-0.22-0.74,0l-4.89,4.86l-0.74,0.74
			c-0.2,0.22-0.2,0.56,0,0.76l11.05,11.05l6.36-5.62C137.97,141.46,137.97,141.12,137.75,140.92z M137.75,140.92l-11.05-11.05
			c-0.2-0.22-0.54-0.22-0.74,0l-4.89,4.86l-0.74,0.74c-0.2,0.22-0.2,0.56,0,0.76l11.05,11.05l6.36-5.62
			C137.97,141.46,137.97,141.12,137.75,140.92z M162.7,113.88l-2.43-7.1l-7.07-2.41c0,0-1.67,1.01-4.74-0.91
			c0,0-15.35,7.42-34.83,16.8c-1.08,0.54-2.16,1.06-3.27,1.57c-0.98,0.49-1.96,0.96-2.97,1.45c-1.3,0.64-2.6,1.28-3.95,1.92
			c-23.21,11.22-49.27,23.77-61.79,29.84c-1.62,0.79-0.98,3.22,0.81,3.14c13.63-0.66,40.72-1.33,56.37,2.48
			c3.76,0.91,6.68,3.83,7.59,7.56c3.81,15.67,3.12,42.76,2.48,56.37c-0.1,1.82,2.36,2.46,3.14,0.81
			c4.86-10.05,13.93-28.83,23.14-47.87c0.71-1.47,1.42-2.97,2.16-4.47c0.54-1.11,1.08-2.23,1.62-3.34c0.59-1.25,1.2-2.51,1.82-3.73
			c1.5-3.19,3.02-6.34,4.49-9.38c1.52-3.14,3-6.21,4.42-9.14c7.98-16.55,13.93-28.86,13.93-28.86
			C161.69,115.53,162.7,113.88,162.7,113.88z M125.05,127.81c0.2-0.22,0.54-0.22,0.76,0l14,14.02c0.22,0.2,0.22,0.54,0,0.74
			l-6.75,6.78c-0.22,0.2-0.56,0.2-0.76,0l-14.02-14.02c-0.2-0.2-0.2-0.54,0-0.74L125.05,127.81z M114.88,175.75
			c-0.02,0.44-0.66,0.49-0.76,0.07l-3.78-18.79c-0.02-0.17-0.15-0.27-0.29-0.32l-18.79-3.76c-0.44-0.1-0.39-0.74,0.07-0.76
			l24.29-1.15c0.22,0,0.42,0.17,0.39,0.39L114.88,175.75z M126.52,153.08l-12.28-12.28c-0.25-0.25-0.37-0.56-0.37-0.88
			c0-0.32,0.12-0.64,0.37-0.88c0.29-0.29,0.74-0.42,1.13-0.29c0.22,0.02,0.44,0.15,0.61,0.29l12.3,12.3c0.47,0.49,0.47,1.28,0,1.74
			c-0.15,0.15-0.32,0.25-0.52,0.29C127.36,153.52,126.87,153.42,126.52,153.08z M134.92,157.74c-0.25-0.25-0.42-0.54-0.52-0.84
			v-0.02c-0.32-0.81-0.15-1.74,0.52-2.38c0.88-0.88,2.33-0.88,3.24,0c0.88,0.88,0.88,2.33,0,3.24c-0.86,0.86-2.24,0.88-3.12,0.1
			C134.99,157.82,134.97,157.77,134.92,157.74z M131.38,147.28l6.36-5.62c0.22-0.2,0.22-0.54,0-0.74l-11.05-11.05
			c-0.2-0.22-0.54-0.22-0.74,0l-4.89,4.86l-0.74,0.74c-0.2,0.22-0.2,0.56,0,0.76L131.38,147.28z M137.75,140.92l-11.05-11.05
			c-0.2-0.22-0.54-0.22-0.74,0l-4.89,4.86l-0.74,0.74c-0.2,0.22-0.2,0.56,0,0.76l11.05,11.05l6.36-5.62
			C137.97,141.46,137.97,141.12,137.75,140.92z M137.75,140.92l-11.05-11.05c-0.2-0.22-0.54-0.22-0.74,0l-4.89,4.86l-0.74,0.74
			c-0.2,0.22-0.2,0.56,0,0.76l11.05,11.05l6.36-5.62C137.97,141.46,137.97,141.12,137.75,140.92z M137.75,140.92l-11.05-11.05
			c-0.2-0.22-0.54-0.22-0.74,0l-4.89,4.86l-0.74,0.74c-0.2,0.22-0.2,0.56,0,0.76l11.05,11.05l6.36-5.62
			C137.97,141.46,137.97,141.12,137.75,140.92z M137.75,140.92l-11.05-11.05c-0.2-0.22-0.54-0.22-0.74,0l-4.89,4.86l-0.74,0.74
			c-0.2,0.22-0.2,0.56,0,0.76l11.05,11.05l6.36-5.62C137.97,141.46,137.97,141.12,137.75,140.92z M137.75,140.92l-11.05-11.05
			c-0.2-0.22-0.54-0.22-0.74,0l-4.89,4.86l-0.74,0.74c-0.2,0.22-0.2,0.56,0,0.76l11.05,11.05l6.36-5.62
			C137.97,141.46,137.97,141.12,137.75,140.92z M137.75,140.92l-11.05-11.05c-0.2-0.22-0.54-0.22-0.74,0l-4.89,4.86l-0.74,0.74
			c-0.2,0.22-0.2,0.56,0,0.76l11.05,11.05l6.36-5.62C137.97,141.46,137.97,141.12,137.75,140.92z M137.75,140.92l-11.05-11.05
			c-0.2-0.22-0.54-0.22-0.74,0l-4.89,4.86l-0.74,0.74c-0.2,0.22-0.2,0.56,0,0.76l11.05,11.05l6.36-5.62
			C137.97,141.46,137.97,141.12,137.75,140.92z M137.75,140.92l-11.05-11.05c-0.2-0.22-0.54-0.22-0.74,0l-4.89,4.86l-0.74,0.74
			c-0.2,0.22-0.2,0.56,0,0.76l11.05,11.05l6.36-5.62C137.97,141.46,137.97,141.12,137.75,140.92z M137.75,140.92l-11.05-11.05
			c-0.2-0.22-0.54-0.22-0.74,0l-4.89,4.86l-0.74,0.74c-0.2,0.22-0.2,0.56,0,0.76l11.05,11.05l6.36-5.62
			C137.97,141.46,137.97,141.12,137.75,140.92z M137.75,140.92l-11.05-11.05c-0.2-0.22-0.54-0.22-0.74,0l-4.89,4.86l-0.74,0.74
			c-0.2,0.22-0.2,0.56,0,0.76l11.05,11.05l6.36-5.62C137.97,141.46,137.97,141.12,137.75,140.92z M137.75,140.92l-11.05-11.05
			c-0.2-0.22-0.54-0.22-0.74,0l-4.89,4.86l-0.74,0.74c-0.2,0.22-0.2,0.56,0,0.76l11.05,11.05l6.36-5.62
			C137.97,141.46,137.97,141.12,137.75,140.92z M137.75,140.92l-11.05-11.05c-0.2-0.22-0.54-0.22-0.74,0l-4.89,4.86l-0.74,0.74
			c-0.2,0.22-0.2,0.56,0,0.76l11.05,11.05l6.36-5.62C137.97,141.46,137.97,141.12,137.75,140.92z M137.75,140.92l-11.05-11.05
			c-0.2-0.22-0.54-0.22-0.74,0l-4.89,4.86l-0.74,0.74c-0.2,0.22-0.2,0.56,0,0.76l11.05,11.05l6.36-5.62
			C137.97,141.46,137.97,141.12,137.75,140.92z M137.75,140.92l-11.05-11.05c-0.2-0.22-0.54-0.22-0.74,0l-4.89,4.86l-0.74,0.74
			c-0.2,0.22-0.2,0.56,0,0.76l11.05,11.05l6.36-5.62C137.97,141.46,137.97,141.12,137.75,140.92z M137.75,140.92l-11.05-11.05
			c-0.2-0.22-0.54-0.22-0.74,0l-4.89,4.86l-0.74,0.74c-0.2,0.22-0.2,0.56,0,0.76l11.05,11.05l6.36-5.62
			C137.97,141.46,137.97,141.12,137.75,140.92z M137.75,140.92l-11.05-11.05c-0.2-0.22-0.54-0.22-0.74,0l-4.89,4.86l-0.74,0.74
			c-0.2,0.22-0.2,0.56,0,0.76l11.05,11.05l6.36-5.62C137.97,141.46,137.97,141.12,137.75,140.92z M137.75,140.92l-11.05-11.05
			c-0.2-0.22-0.54-0.22-0.74,0l-4.89,4.86l-0.74,0.74c-0.2,0.22-0.2,0.56,0,0.76l11.05,11.05l6.36-5.62
			C137.97,141.46,137.97,141.12,137.75,140.92z M137.75,140.92l-11.05-11.05c-0.2-0.22-0.54-0.22-0.74,0l-4.89,4.86l-0.74,0.74
			c-0.2,0.22-0.2,0.56,0,0.76l11.05,11.05l6.36-5.62C137.97,141.46,137.97,141.12,137.75,140.92z M137.75,140.92l-11.05-11.05
			c-0.2-0.22-0.54-0.22-0.74,0l-4.89,4.86l-0.74,0.74c-0.2,0.22-0.2,0.56,0,0.76l11.05,11.05l6.36-5.62
			C137.97,141.46,137.97,141.12,137.75,140.92z M137.75,140.92l-11.05-11.05c-0.2-0.22-0.54-0.22-0.74,0l-4.89,4.86l-0.74,0.74
			c-0.2,0.22-0.2,0.56,0,0.76l11.05,11.05l6.36-5.62C137.97,141.46,137.97,141.12,137.75,140.92z M137.75,140.92l-11.05-11.05
			c-0.2-0.22-0.54-0.22-0.74,0l-4.89,4.86l-0.74,0.74c-0.2,0.22-0.2,0.56,0,0.76l11.05,11.05l6.36-5.62
			C137.97,141.46,137.97,141.12,137.75,140.92z M137.75,140.92l-11.05-11.05c-0.2-0.22-0.54-0.22-0.74,0l-4.89,4.86l-0.74,0.74
			c-0.2,0.22-0.2,0.56,0,0.76l11.05,11.05l6.36-5.62C137.97,141.46,137.97,141.12,137.75,140.92z M137.75,140.92l-11.05-11.05
			c-0.2-0.22-0.54-0.22-0.74,0l-4.89,4.86l-0.74,0.74c-0.2,0.22-0.2,0.56,0,0.76l11.05,11.05l6.36-5.62
			C137.97,141.46,137.97,141.12,137.75,140.92z M137.75,140.92l-11.05-11.05c-0.2-0.22-0.54-0.22-0.74,0l-4.89,4.86l-0.74,0.74
			c-0.2,0.22-0.2,0.56,0,0.76l11.05,11.05l6.36-5.62C137.97,141.46,137.97,141.12,137.75,140.92z"/>
		<g>
			<path class="st7" d="M175,206.54c-20.14,0-42.24-29.79-57.23-54.78c-15-25-30.14-58.1-30.14-75.68
				c0-25.31,23.27-62.97,87.37-62.97s87.37,37.66,87.37,62.97c0,17.58-15.14,50.68-30.14,75.68
				C217.24,176.75,195.14,206.54,175,206.54z"/>
			<path class="st13" d="M238.15,36.96c-2.7-2.28-5.7-4.47-9.04-6.46c-12.89-7.76-30.63-12.97-54.11-12.97
				c-23.5,0-41.24,5.21-54.13,12.97c-3.32,2.01-6.31,4.18-9.01,6.46C97.88,48.82,92.04,63.97,92.04,76.08
				c0,9.95,5.89,27.61,15.35,47.2c2.43,5.06,5.11,10.24,7.98,15.45c1.35,2.46,2.75,4.94,4.2,7.39c0.66,1.13,1.33,2.23,1.99,3.36
				c4.13,6.88,9.58,15.4,15.77,23.58c11.45,15.13,25.32,29.05,37.68,29.05c12.35,0,26.23-13.93,37.68-29.05
				c6.19-8.18,11.64-16.7,15.77-23.58c0.69-1.13,1.35-2.26,2.01-3.39c1.42-2.46,2.82-4.91,4.18-7.37
				c2.87-5.21,5.55-10.39,7.98-15.45c9.46-19.6,15.35-37.26,15.35-47.2C257.97,63.97,252.12,48.82,238.15,36.96z M239.65,121.86
				c-3.93,8.15-8.47,16.65-13.41,24.95c-0.2,0.32-0.39,0.66-0.59,0.98c-0.98,1.65-2.14,3.54-3.41,5.58
				c-3.07,4.84-6.9,10.59-11.17,16.36c-10.81,14.54-24.51,29.1-36.05,29.1c-11.54,0-25.25-14.56-36.05-29.1
				c-4.27-5.77-8.1-11.52-11.17-16.36c-1.28-2.04-2.43-3.93-3.41-5.58c-0.2-0.32-0.39-0.66-0.59-0.98
				c-4.94-8.33-9.48-16.8-13.41-24.98c-9.19-19.08-15.06-36.4-15.06-45.76c0-22.23,21.22-55.29,79.7-55.29
				c58.45,0,79.67,33.06,79.67,55.29C254.68,85.44,248.83,102.78,239.65,121.86z"/>
			<path class="st14" d="M175,25.27c-58.76,0-75.51,34.16-75.51,51.9c0,26.62,49.17,117.2,75.51,117.2s75.51-90.58,75.51-117.2
				C250.51,59.43,233.76,25.27,175,25.27z"/>
		</g>
	</g>
	<path class="st13" d="M178.79,157.35l0.74-4.3l-3.86,2.04l-3.88-2.04l0.74,4.3l-3.12,3.05l4.32,0.61l1.94,3.91l1.92-3.91l4.32-0.61
		L178.79,157.35z M154.54,148.44l-4.37-0.17l-0.49-0.79l-1.82-2.9l-1.52,4.08l-4.22,1.08l3.44,2.7l-0.29,4.18v0.17l3.64-2.43
		l4.03,1.62l-1.18-4.2L154.54,148.44z M209.19,149.74l-4.22-1.08l-1.52-4.08l-2.31,3.68l-0.42,0.02l-3.95,0.15l2.8,3.34l-1.18,4.2
		l4.03-1.62l1.82,1.23l1.82,1.2l-0.27-4.35L209.19,149.74z M129.94,62.57l2.26-8.01l-7.76,3.07l-6.93-4.62l0.54,8.33l-6.53,5.16
		l8.08,2.04l2.87,7.83l4.47-7.05l8.33-0.34L129.94,62.57z M187.6,46.12l-8.25-1.2l-3.68-7.47l-3.71,7.47l-8.25,1.2l5.97,5.82
		l-1.4,8.2l7.39-3.88l7.37,3.88l-1.4-8.2L187.6,46.12z M233.26,61.35l0.54-8.33l-6.93,4.62l-7.76-3.07l2.26,8.01l-5.33,6.41
		l8.35,0.34l4.45,7.05l2.87-7.83l8.08-2.04L233.26,61.35z"/>
</g>
</svg>
