<?xml version="1.0" encoding="utf-8"?>
<!-- Generator: Adobe Illustrator 27.8.1, SVG Export Plug-In . SVG Version: 6.00 Build 0)  -->
<svg version="1.1" id="Layer_1" xmlns="http://www.w3.org/2000/svg" xmlns:xlink="http://www.w3.org/1999/xlink" x="0px" y="0px"
	 viewBox="0 0 350 230" style="enable-background:new 0 0 350 230;" xml:space="preserve">
<style type="text/css">
	.st0{fill:#F5F5F5;stroke:#404040;stroke-width:2;stroke-miterlimit:10;}
	.st1{fill:#49BDC9;}
	.st2{fill:none;stroke:#404040;stroke-miterlimit:10;}
	.st3{fill:#F5F5F5;}
	.st4{fill:none;stroke:#FFFFFF;stroke-miterlimit:10;}
	.st5{fill:#2F2F3F;}
	.st6{fill:#02028C;}
	.st7{fill:#FFFFFF;}
	.st8{fill:#023C44;}
	.st9{fill:#022231;}
	.st10{fill:#53C2BB;}
	.st11{fill:#FF680D;}
	.st12{fill:#00EDFF;}
	.st13{fill:#213000;}
	.st14{fill:#FFB034;}
	.st15{fill:#00556A;}
	.st16{fill:#380C00;}
	.st17{fill:#00556A;stroke:#FFFFFF;stroke-width:0.5;stroke-miterlimit:10;}
	.st18{fill:#750000;}
	.st19{fill:#D40B00;}
	.st20{fill:#8E0073;}
	.st21{fill:#494949;}
	.st22{fill:#259AAB;}
	.st23{fill:#3DAEB7;}
	.st24{fill:#065652;}
	.st25{fill:#A8C6E9;}
	.st26{fill:#3F0101;}
	.st27{fill:#80C445;}
	.st28{fill:#F4D4AE;}
	.st29{fill:#E95454;}
	.st30{fill:#760689;}
	.st31{fill:#DEBFFF;}
	.st32{fill:url(#SVGID_1_);}
	.st33{fill:url(#SVGID_00000048498094680956238440000000189227892537302688_);}
	.st34{fill:url(#_x3C_Compound_Path_x3E__Music_Icon_00000049223875032430150780000006781693221650855340_);}
	.st35{opacity:0.3;fill:url(#_x3C_Compound_Path_x3E__Music_Shades_00000028287707180491852440000007970684868333898411_);}
	.st36{opacity:0.8;fill:#FFFFFF;}
	.st37{fill:#590068;}
	.st38{fill:#293767;}
	.st39{fill:#008294;}
	.st40{fill:url(#SVGID_00000165946287989178850490000006094951692276000952_);}
	.st41{fill:#F5F5F6;}
	.st42{fill:#021284;}
	.st43{fill:#751616;}
	.st44{fill:url(#SVGID_00000129889386254941647040000009790249940867315073_);}
	.st45{fill:#0000A2;}
	.st46{fill:#00833F;}
	.st47{fill:#6B1800;}
	.st48{fill:#54004C;}
	.st49{fill:#C10073;}
	.st50{fill:#7A0334;}
	.st51{fill:#002066;}
	.st52{fill:#5E5700;}
	.st53{fill:#350033;}
	.st54{fill:#FFB000;}
	.st55{fill:#490000;}
	.st56{fill:#875F74;}
	.st57{fill:#003035;}
	.st58{fill:#3659FF;}
	.st59{fill:#9B8F00;}
	.st60{fill:#4C1200;}
	.st61{fill:#016A72;}
	.st62{fill:#FF0000;}
	.st63{fill:#005C68;}
	.st64{fill:#4A0075;}
	.st65{fill:url(#SVGID_00000036220464461905170650000010858333591448852145_);}
	.st66{fill:#020242;}
	.st67{fill:#228DC9;}
	.st68{fill:#551700;}
	.st69{fill:#00C2E0;}
	.st70{fill:#012F4C;}
	.st71{fill:#300018;}
	.st72{fill-rule:evenodd;clip-rule:evenodd;fill:#6D3C5B;}
	.st73{fill-rule:evenodd;clip-rule:evenodd;fill:#020242;}
	.st74{fill:#9B001E;}
	.st75{fill:#00E1FF;}
	.st76{fill:#680040;}
	.st77{fill:#8E8700;}
	.st78{fill:#220247;}
	.st79{fill:#0086FF;}
	.st80{fill:#7C4F00;}
	.st81{fill:#520000;}
	.st82{fill:#04A8CB;}
	.st83{fill:#18618B;}
	.st84{fill:#958C00;}
	.st85{fill:#B0261C;}
	.st86{fill:#013147;}
	.st87{fill:#CD11A1;}
	.st88{fill:#296262;}
	.st89{fill:#5C5E00;}
	.st90{fill:#55B1C8;}
	.st91{fill:#918C34;}
	.st92{fill:#F94351;}
	.st93{fill:#9B001A;}
	.st94{fill:#000066;}
	.st95{fill:#636568;}
	.st96{fill:#002544;}
	.st97{fill:#723300;}
	.st98{fill:url(#SVGID_00000100384556331267915780000000827363748840309677_);}
	.st99{fill:#F393BD;}
	.st100{fill:url(#SVGID_00000095330154095918038110000001047021898085005185_);}
	.st101{fill:#011354;}
	.st102{fill:#38011B;}
	.st103{fill-rule:evenodd;clip-rule:evenodd;fill:#2365A6;}
	.st104{fill:#351B01;}
	.st105{fill-rule:evenodd;clip-rule:evenodd;fill:#351B01;}
	.st106{fill:#02484C;}
	.st107{fill:none;stroke:#02484C;stroke-width:4;stroke-miterlimit:10;}
</style>
<g>
	<path id="Logo_00000064342290818276934210000007721674645939705771_" class="st12" d="M88.5,61.43c-1.47,0-2.65-1.19-2.65-2.65
		V40.13c0-1.47,1.19-2.65,2.65-2.65s2.65,1.19,2.65,2.65v18.65C91.16,60.24,89.97,61.43,88.5,61.43z M147.49,100.95l0.84-60.22
		c0.04-2.77,2.13-5.03,4.66-5.03c1.27,0,2.55,0.56,3.52,1.53c0.99,0.99,1.53,2.27,1.52,3.61l-0.17,30.1
		c-0.03,5.53,4.13,10.13,9.36,10.46c0.14,0.03,0.29,0.04,0.44,0.04c2.67,0.04,5.22-0.98,7.2-2.9c2.02-1.96,3.16-4.58,3.19-7.37
		l0.39-30.43c0.04-2.78,2.12-5.04,4.66-5.04h0.39c1.17,0,2.29,0.48,3.15,1.35c0.97,0.98,1.52,2.37,1.51,3.8l-0.8,59.85
		c-0.03,2.85,1.08,5.62,3.04,7.6c1.87,1.88,4.33,2.92,6.92,2.92c5.41,0,9.88-4.6,9.96-10.26c0-0.01,0-0.02,0-0.03l0.13-43.81
		c0.05-2.76,2.13-5.01,4.67-5.01c0.01,0,0.02,0,0.03,0c1.29,0,2.49,0.5,3.41,1.4c0.92,0.91,1.43,2.13,1.43,3.43l0,9.81
		c0,0.71,0.28,1.38,0.78,1.88c0.5,0.5,1.18,0.77,1.89,0.77l14.2-0.08c2.68-0.01,5.27-0.83,7.48-2.35c0.21-0.15,0.4-0.32,0.57-0.53
		l16.94-21.12l-0.38,48.49l-18.94-19.96c-1.01-1.06-2.69-1.11-3.75-0.1c-1.06,1.01-1.11,2.69-0.1,3.75l23.47,24.74
		c0.75,0.79,1.89,1.04,2.9,0.64c1.01-0.4,1.67-1.37,1.68-2.45l0.5-62.72c0.01-1.13-0.7-2.14-1.76-2.52
		c-1.06-0.38-2.25-0.04-2.96,0.84l-21.47,26.76c-1.26,0.79-2.7,1.2-4.19,1.21l-11.53,0.06l0-7.14c0-2.72-1.06-5.28-3-7.2
		c-1.92-1.9-4.45-2.95-7.13-2.95c-0.02,0-0.05,0-0.07,0c-5.41,0-9.88,4.6-9.96,10.26c0,0.01,0,0.02,0,0.03l-0.13,43.81
		c-0.05,2.76-2.13,5.01-4.66,5.01c-1.17,0-2.29-0.48-3.15-1.35c-0.97-0.98-1.52-2.37-1.51-3.8l0.8-59.85
		c0.03-2.85-1.08-5.62-3.04-7.6c-1.87-1.88-4.33-2.92-6.92-2.92h-0.39c-5.42,0-9.89,4.61-9.96,10.28l-0.39,30.43
		c-0.02,1.37-0.58,2.66-1.58,3.63c-0.87,0.84-1.99,1.34-3.12,1.4c-0.1-0.01-0.19-0.02-0.29-0.02c-2.54-0.04-4.6-2.35-4.58-5.14
		l0.17-30.1c0.02-2.76-1.07-5.38-3.06-7.38c-1.96-1.97-4.61-3.1-7.28-3.1c-5.42,0-9.89,4.6-9.96,10.27l-0.84,60.22
		c-0.04,2.77-2.13,5.03-4.66,5.03h-1.21c-0.99,0-1.44-0.34-1.69-0.59c-0.76-0.77-1.19-2.44-1.17-4.58l0.43-43.61
		c0.03-2.85-1.08-5.62-3.04-7.6c-1.87-1.89-4.33-2.92-6.92-2.92H88.5c-1.47,0-2.65,1.19-2.65,2.65s1.19,2.65,2.65,2.65h35.42
		c1.17,0,2.29,0.48,3.15,1.35c0.97,0.98,1.52,2.37,1.5,3.81l-0.43,43.61c-0.04,3.65,0.9,6.54,2.71,8.36
		c1.4,1.41,3.29,2.16,5.46,2.16h1.21C142.94,111.22,147.41,106.61,147.49,100.95z M160.2,15.11c0-1.47-1.19-2.65-2.65-2.65H148
		c-1.47,0-2.65,1.19-2.65,2.65s1.19,2.65,2.65,2.65h9.54C159.01,17.76,160.2,16.58,160.2,15.11z M191.13,15.11
		c0-1.47-1.19-2.65-2.65-2.65h-9.54c-1.47,0-2.65,1.19-2.65,2.65s1.19,2.65,2.65,2.65h9.54C189.94,17.76,191.13,16.58,191.13,15.11z
		 M219.76,33.04c0-1.47-1.19-2.65-2.65-2.65h-9.54c-1.47,0-2.65,1.19-2.65,2.65c0,1.47,1.19,2.65,2.65,2.65h9.54
		C218.57,35.7,219.76,34.51,219.76,33.04z M155.42,33.04V15.11c0-1.47-1.19-2.65-2.65-2.65c-1.47,0-2.65,1.19-2.65,2.65v17.94
		c0,1.47,1.19,2.65,2.65,2.65C154.24,35.7,155.42,34.51,155.42,33.04z M186.35,33.04V15.11c0-1.47-1.19-2.65-2.65-2.65
		c-1.47,0-2.65,1.19-2.65,2.65v17.94c0,1.47,1.19,2.65,2.65,2.65C185.17,35.7,186.35,34.51,186.35,33.04z M214.99,49.45V35.93
		c0-1.47-1.19-2.65-2.65-2.65c-1.47,0-2.65,1.19-2.65,2.65v13.52c0,1.47,1.19,2.65,2.65,2.65C213.8,52.11,214.99,50.92,214.99,49.45
		z"/>
</g>
</svg>
