<?xml version="1.0" encoding="utf-8"?>
<!-- Generator: Adobe Illustrator 27.8.1, SVG Export Plug-In . SVG Version: 6.00 Build 0)  -->
<svg version="1.1" xmlns="http://www.w3.org/2000/svg" xmlns:xlink="http://www.w3.org/1999/xlink" x="0px" y="0px"
	 viewBox="0 0 350 230" style="enable-background:new 0 0 350 230;" xml:space="preserve">
<style type="text/css">
	.st0{fill:#FF7F00;}
	.st1{fill:#893700;}
	.st2{fill:#29ABE2;}
	.st3{fill:#F2C0AA;}
	.st4{fill:#1C75BC;}
	.st5{fill:#FFC200;}
	.st6{fill:#911717;}
	.st7{fill:#C1272D;}
	.st8{fill:#F7931E;}
	.st9{fill:#2D828E;}
	.st10{fill:#93BC20;}
	.st11{fill:#CC781D;}
	.st12{fill:#FF5500;}
	.st13{fill:#C4C400;}
	.st14{fill:#017F6A;}
	.st15{fill:#0092FF;}
	.st16{fill:#09578C;}
	.st17{fill:#3B9FE2;}
	.st18{fill:#BE1E2D;}
	.st19{display:none;fill:#BE1E2D;}
	.st20{font-family:'NofexRegular';}
	.st21{font-size:35px;}
	.st22{fill:#231F20;}
	.st23{fill:#FF9D00;}
	.st24{fill:#F15A29;}
	.st25{fill:#00406B;}
</style>
<g id="Logo1">
</g>
<g id="Logo2">
</g>
<g id="Logo3">
</g>
<g id="Logo4">
</g>
<g id="Logo5">
</g>
<g id="Logo6">
</g>
<g id="Logo7">
</g>
<g id="Logo8">
</g>
<g id="Logo9">
</g>
<g id="Logo10">
</g>
<g id="Logo11">
	<g>
		<path class="st4" d="M139.69,72.54c13.76-4.86,28.36,3,34.93,18.37c8.13-10.8,18.64-17.27,32.69-19.02
			c-5.37,3.92-10.43,7.09-14.87,10.97c-12.15,10.62-17.51,24.8-19.21,40.34c-1.27,11.59-1.43,23.31-2.1,35.32
			c-6.56-13.79-7.28-28.32-6.09-43.24c-15.53,7.3-25.61,6.82-33.75-1.84c10.66,3.36,20,1.75,28.28-5.34
			c7.24-6.2,8.35-14.25,2.94-22.02C157.13,78.32,149.42,74.4,139.69,72.54z"/>
		<path d="M226.61,90.07c-2.63,0-5.39,0-9.23,0c6.79-17.17,3.39-34.67,3.56-52.45c-11.13,3.49-22.38,6.36-33.1,10.59
			c-9.64,3.81-18.45,3.91-28.16,0.17c-11.56-4.44-23.67-7.49-36.3-11.37c1.46-0.62,2.28-1.1,3.17-1.33
			c14.89-3.85,29.79-7.69,44.7-11.45c1.43-0.36,3.09-0.59,4.49-0.25c14.93,3.64,29.81,7.47,44.75,11.07
			c3.23,0.78,4.21,2.41,4.03,5.56c-0.5,9.18-1.32,18.4-1.01,27.56C223.74,75.34,225.47,82.44,226.61,90.07z M200,46.86
			c-6.84,2.69-13.71,5.11-20.33,8.09c-4.11,1.85-7.64,1.94-11.8,0.03c-6.66-3.06-13.62-5.46-20.9-8.32c0,2.32,0.01,3.88,0,5.44
			c-0.01,9.39,2.48,13.04,11.52,16.04c3.31,1.1,6.65,1.83,9.99,2.18c0-0.01,0-0.01,0-0.02c0.01-4.98,4.25-9.29,9.17-9.33
			c4.38-0.03,8.46,3.57,9.31,7.8C198.98,65.48,201.92,60.31,200,46.86z"/>
		<path class="st18" d="M187.1,70.66c-0.18,4.92-4.56,9-9.58,8.91c-5.19-0.08-9.05-4.02-9.05-9.25c5.87,0.66,11.79,0.19,17.67-1.33
			c0.27-0.08,0.54-0.14,0.81-0.22C187.07,69.39,187.12,70.02,187.1,70.66z"/>
		<text transform="matrix(1 0 0 1 53.2358 197.3629)" class="st19 st20 st21">education</text>
	</g>
</g>
<g id="Logo12">
</g>
<g id="Layer_13">
</g>
<g id="Layer_14">
</g>
<g id="Layer_15">
</g>
</svg>
