<?xml version="1.0" encoding="utf-8"?>
<!-- Generator: Adobe Illustrator 27.8.1, SVG Export Plug-In . SVG Version: 6.00 Build 0)  -->
<svg version="1.1" id="Layer_1" xmlns="http://www.w3.org/2000/svg" xmlns:xlink="http://www.w3.org/1999/xlink" x="0px" y="0px"
	 viewBox="0 0 350 230" style="enable-background:new 0 0 350 230;" xml:space="preserve">
<style type="text/css">
	.st0{fill:#F5F5F5;stroke:#404040;stroke-width:2;stroke-miterlimit:10;}
	.st1{fill:#49BDC9;}
	.st2{fill:none;stroke:#404040;stroke-miterlimit:10;}
	.st3{fill:#F5F5F5;}
	.st4{fill:none;stroke:#FFFFFF;stroke-miterlimit:10;}
	.st5{fill:#2F2F3F;}
	.st6{fill:#02028C;}
	.st7{fill:#FFFFFF;}
	.st8{fill:#023C44;}
	.st9{fill:#022231;}
	.st10{fill:#53C2BB;}
	.st11{fill:#FF680D;}
	.st12{fill:#00EDFF;}
	.st13{fill:#213000;}
	.st14{fill:#FFB034;}
	.st15{fill:#00556A;}
	.st16{fill:#380C00;}
	.st17{fill:#00556A;stroke:#FFFFFF;stroke-width:0.5;stroke-miterlimit:10;}
	.st18{fill:#750000;}
	.st19{fill:#D40B00;}
	.st20{fill:#8E0073;}
	.st21{fill:#494949;}
	.st22{fill:#259AAB;}
	.st23{fill:#3DAEB7;}
	.st24{fill:#065652;}
	.st25{fill:#A8C6E9;}
	.st26{fill:#3F0101;}
	.st27{fill:#80C445;}
	.st28{fill:#F4D4AE;}
	.st29{fill:#E95454;}
	.st30{fill:#760689;}
	.st31{fill:#DEBFFF;}
	.st32{fill:url(#SVGID_1_);}
	.st33{fill:url(#SVGID_00000116951496829399263460000003244908180147627185_);}
	.st34{fill:url(#_x3C_Compound_Path_x3E__Music_Icon_00000054234491136706043530000010760802437060069509_);}
	.st35{opacity:0.3;fill:url(#_x3C_Compound_Path_x3E__Music_Shades_00000118355316375935509510000013292230589873291193_);}
	.st36{opacity:0.8;fill:#FFFFFF;}
	.st37{fill:#590068;}
	.st38{fill:#293767;}
	.st39{fill:#008294;}
	.st40{fill:url(#SVGID_00000040532581887804181680000009301654378088029076_);}
	.st41{fill:#F5F5F6;}
	.st42{fill:#021284;}
	.st43{fill:#751616;}
	.st44{fill:url(#SVGID_00000011032120456247550040000013535434117147909302_);}
	.st45{fill:#0000A2;}
	.st46{fill:#00833F;}
	.st47{fill:#6B1800;}
	.st48{fill:#54004C;}
	.st49{fill:#C10073;}
	.st50{fill:#7A0334;}
	.st51{fill:#002066;}
	.st52{fill:#5E5700;}
	.st53{fill:#350033;}
	.st54{fill:#FFB000;}
	.st55{fill:#490000;}
	.st56{fill:#875F74;}
	.st57{fill:#003035;}
	.st58{fill:#3659FF;}
	.st59{fill:#9B8F00;}
	.st60{fill:#4C1200;}
	.st61{fill:#016A72;}
	.st62{fill:#FF0000;}
	.st63{fill:#005C68;}
	.st64{fill:#4A0075;}
	.st65{fill:url(#SVGID_00000179614053148058667260000004842022747460848781_);}
	.st66{fill:#020242;}
	.st67{fill:#228DC9;}
	.st68{fill:#551700;}
	.st69{fill:#00C2E0;}
	.st70{fill:#012F4C;}
	.st71{fill:#300018;}
	.st72{fill-rule:evenodd;clip-rule:evenodd;fill:#6D3C5B;}
	.st73{fill-rule:evenodd;clip-rule:evenodd;fill:#020242;}
	.st74{fill:#9B001E;}
	.st75{fill:#00E1FF;}
	.st76{fill:#680040;}
	.st77{fill:#8E8700;}
	.st78{fill:#220247;}
	.st79{fill:#0086FF;}
	.st80{fill:#7C4F00;}
	.st81{fill:#520000;}
	.st82{fill:#04A8CB;}
	.st83{fill:#18618B;}
	.st84{fill:#958C00;}
	.st85{fill:#B0261C;}
	.st86{fill:#013147;}
	.st87{fill:#CD11A1;}
	.st88{fill:#296262;}
	.st89{fill:#5C5E00;}
	.st90{fill:#55B1C8;}
	.st91{fill:#918C34;}
	.st92{fill:#F94351;}
	.st93{fill:#9B001A;}
	.st94{fill:#000066;}
	.st95{fill:#636568;}
	.st96{fill:#002544;}
	.st97{fill:#723300;}
	.st98{fill:url(#SVGID_00000169547201074237255780000012000100023353073829_);}
	.st99{fill:#F393BD;}
	.st100{fill:url(#SVGID_00000113354597235812428780000017231350175153669292_);}
	.st101{fill:#011354;}
	.st102{fill:#38011B;}
	.st103{fill-rule:evenodd;clip-rule:evenodd;fill:#2365A6;}
	.st104{fill:#351B01;}
	.st105{fill-rule:evenodd;clip-rule:evenodd;fill:#351B01;}
	.st106{fill:#02484C;}
	.st107{fill:none;stroke:#02484C;stroke-width:4;stroke-miterlimit:10;}
</style>
<g>
	<g>
		<g>
			<g>
				<path class="st70" d="M240.12,51.84v30.24c0,0.8-0.32,1.57-0.89,2.14l-11.47,11.47l3.21,3.21c1.18,1.18,1.18,3.1,0,4.28
					l-12.85,12.85c-1.18,1.18-3.1,1.18-4.28,0l-3.21-3.21l-2.14,2.14c-1.18,1.18-3.1,1.18-4.28,0c-1.18-1.18-1.18-3.1,0-4.28
					l2.14-2.14l-3.21-3.21c-1.18-1.18-1.18-3.1,0-4.28l12.85-12.85c1.18-1.18,3.1-1.18,4.28,0l3.21,3.21l10.58-10.58V40.87
					c-12.8-18.99-34.5-31.5-59.07-31.5c-39.25,0-71.19,31.93-71.19,71.19s31.93,71.19,71.19,71.19s71.19-31.93,71.19-71.19
					C246.18,70.34,244.02,60.63,240.12,51.84z M175,107.82c-15.03,0-27.26-12.23-27.26-27.26c0-15.03,12.23-27.26,27.26-27.26
					c15.03,0,27.26,12.23,27.26,27.26C202.26,95.59,190.03,107.82,175,107.82z"/>
				<path class="st71" d="M218.13,94.61l6.43,6.43l-8.57,8.57c-0.73-0.73-4.64-4.64-6.43-6.43L218.13,94.61z M240.12,6.34
					c0-1.67-1.36-3.03-3.03-3.03s-3.03,1.36-3.03,3.03v34.53c2.33,3.45,4.36,7.12,6.06,10.96V6.34z M196.2,80.56
					c0,11.69-9.51,21.2-21.2,21.2c-11.69,0-21.2-9.51-21.2-21.2s9.51-21.2,21.2-21.2C186.69,59.35,196.2,68.86,196.2,80.56z
					 M185.77,80.56c0-5.94-4.83-10.77-10.77-10.77c-5.94,0-10.77,4.83-10.77,10.77c0,5.94,4.83,10.77,10.77,10.77
					C180.94,91.33,185.77,86.5,185.77,80.56z"/>
			</g>
		</g>
		<path class="st7" d="M202.01,112.09c0.3,1.34,0.49,2.47,1.02,3.24c0.6,0.96,1.63,1.26,2.71,1.8
			C202.47,118.72,199.88,114.74,202.01,112.09L202.01,112.09z M199.25,112.55c-3.08,3.9,0.77,9.68,5.51,7.3
			c-1.57-0.77-3.09-1.2-3.98-2.59C200,116.15,199.71,114.5,199.25,112.55L199.25,112.55z"/>
	</g>
</g>
</svg>
