<?xml version="1.0" encoding="utf-8"?>
<!-- Generator: Adobe Illustrator 27.8.1, SVG Export Plug-In . SVG Version: 6.00 Build 0)  -->
<svg version="1.1" xmlns="http://www.w3.org/2000/svg" xmlns:xlink="http://www.w3.org/1999/xlink" x="0px" y="0px"
	 viewBox="0 0 350 230" style="enable-background:new 0 0 350 230;" xml:space="preserve">
<style type="text/css">
	.st0{fill:#023883;}
	.st1{fill:#FF0043;}
	.st2{fill-rule:evenodd;clip-rule:evenodd;fill:#00C3FF;}
	.st3{fill-rule:evenodd;clip-rule:evenodd;}
	.st4{fill:#BDD87C;}
	.st5{fill:#FCD35D;}
	.st6{fill:#F77552;}
	.st7{fill:#7BDBC2;}
	.st8{fill:#000077;}
	.st9{fill:#F200FF;}
	.st10{fill:#005B41;}
	.st11{fill:#FFFFFF;}
	.st12{fill:#00422F;}
	.st13{fill:#113500;}
	.st14{fill:#00005B;}
	.st15{fill:#2B0049;}
	.st16{fill:#DA0678;}
	.st17{fill:#4D84DC;}
	.st18{fill:#E58E21;}
	.st19{fill:#51097E;}
	.st20{fill:#6D003E;}
	.st21{fill:#FFCE88;}
	.st22{fill:#00D9FF;}
	.st23{fill:#7616C3;}
	.st24{fill:#004EFD;}
	.st25{fill:#C6C900;}
	.st26{fill:#00D3C7;}
	.st27{fill:#93C900;}
	.st28{fill:#009FFB;}
	.st29{fill:#710B0A;}
	.st30{fill:#FFD700;}
	.st31{fill:#7F0C06;}
	.st32{fill:#00FFE9;}
	.st33{fill:#FF0000;}
	.st34{fill:#B96508;}
	.st35{fill:#006E60;}
</style>
<g id="Layer_1">
</g>
<g id="Layer_2">
</g>
<g id="Layer_3">
</g>
<g id="Layer_4">
</g>
<g id="Layer_5">
</g>
<g id="Layer_6">
</g>
<g id="Layer_7">
</g>
<g id="Layer_8">
</g>
<g id="Layer_9">
</g>
<g id="Layer_10">
</g>
<g id="Layer_11">
</g>
<g id="Layer_12">
</g>
<g id="Layer_13">
</g>
<g id="Layer_14">
	<g>
		<path class="st32" d="M123.2,101.21c-0.01-28.5,23.18-51.74,51.6-51.8c28.69-0.06,51.99,23.09,52.01,51.74
			c0.02,28.69-23.17,51.89-51.81,51.88C146.37,153.02,123.21,129.85,123.2,101.21z M175,101.22c-16.52,0-33.04,0-49.64,0
			c0.28,14.11,5.27,26.16,15.44,35.89c9.52,9.1,21,13.53,34.2,13.75c0-0.24,0-0.4,0-0.55c0-16.22,0-32.44,0-48.66
			c0-0.15-0.01-0.29-0.02-0.44c0.15,0,0.29,0.01,0.44,0.01c16.24,0,32.47,0,48.71,0c0.15,0,0.31-0.01,0.54-0.03
			c-0.38-15.39-6.2-28.18-17.96-38.09c-9.12-7.68-19.77-11.37-31.7-11.51c0,0.25,0,0.41,0,0.57c0,16.07,0,32.15,0,48.22
			C175.01,100.67,175,100.95,175,101.22z M196.63,114.48c-0.09-0.15-0.14-0.24-0.2-0.32c-1.54-2.21-3.69-3.23-6.33-2.91
			c-2.61,0.32-4.45,1.84-5.36,4.32c-0.81,2.23-0.38,4.4,0.64,6.48c1.03,2.11,2.61,3.79,4.34,5.32c1.97,1.74,3.97,3.43,5.96,5.14
			c0.6,0.51,1.36,0.47,1.98-0.07c1.25-1.09,2.51-2.18,3.78-3.25c1.9-1.6,3.79-3.2,5.27-5.22c1.48-2.04,2.39-4.26,2.17-6.84
			c-0.33-3.87-4.18-6.66-7.95-5.77C199.09,111.78,197.65,112.79,196.63,114.48z M152.72,84.83c-0.18,1.74-0.81,3.18-1.89,4.43
			c-0.36,0.42-0.79,0.73-1.34,0.86c-0.34,0.08-0.55,0.28-0.5,0.65c0.05,0.38,0.32,0.48,0.66,0.48c2.48,0,4.96,0,7.44,0
			c0.34,0,0.62-0.09,0.67-0.47c0.06-0.39-0.19-0.54-0.52-0.69c-0.43-0.19-0.88-0.41-1.2-0.74c-0.91-0.92-1.48-2.05-1.79-3.31
			c-0.09-0.37-0.15-0.76-0.24-1.24c2.37,2.02,4.88,2.46,7.51,0.94c2.17-1.25,3.21-3.26,2.97-5.77c-0.31-3.08-2.18-4.84-5.11-5.56
			c0.75-4.08-2.24-7.25-5.67-7.42c-1.76-0.08-3.31,0.47-4.58,1.71c-1.61,1.58-2.14,3.52-1.75,5.71c-2.86,0.69-4.71,2.38-5.1,5.32
			c-0.34,2.6,0.69,4.71,2.97,6.01C147.88,87.27,150.38,86.82,152.72,84.83z"/>
		<path class="st33" d="M153.1,134.14c-0.5,0-0.88-0.23-1.2-0.61c-2.61-3.12-5.22-6.23-7.84-9.35c-0.28-0.34-0.56-0.67-0.84-1.01
			c-0.71-0.83-0.71-1.46-0.02-2.29c2.79-3.33,5.62-6.63,8.35-10c1.04-1.28,2.06-1.25,3.08-0.01c2.75,3.38,5.58,6.69,8.38,10.03
			c0.66,0.79,0.65,1.43-0.01,2.22c-2.89,3.45-5.79,6.9-8.68,10.36C154,133.88,153.62,134.14,153.1,134.14z M197.44,84.71
			c0.08,0.11,0.14,0.23,0.23,0.32c2.42,2.3,6.15,2.23,8.45-0.18c1.72-1.8,2-3.95,1.4-6.27c-0.54-2.08-1.71-3.81-3.25-5.25
			c-2.21-2.07-4.53-4.03-6.81-6.03c-0.49-0.43-1.19-0.4-1.69,0.03c-1.76,1.51-3.53,3.01-5.27,4.54c-1.46,1.28-2.81,2.68-3.78,4.39
			c-1.04,1.82-1.57,3.75-1.08,5.83c0.53,2.24,1.98,3.72,4.16,4.38c2.16,0.64,4.08,0.06,5.76-1.4c0.11-0.1,0.21-0.2,0.36-0.34
			c0.02,1.45-0.72,3.23-1.83,4.52c-0.37,0.43-0.8,0.76-1.37,0.89c-0.35,0.08-0.54,0.29-0.49,0.66c0.05,0.35,0.29,0.48,0.62,0.48
			c2.52,0,5.05,0,7.57,0c0.34,0,0.56-0.15,0.6-0.5c0.04-0.35-0.16-0.53-0.47-0.64c-0.3-0.11-0.64-0.19-0.87-0.39
			c-1.48-1.31-2.2-3-2.4-4.93C197.34,84.77,197.39,84.74,197.44,84.71z"/>
	</g>
</g>
<g id="Layer_15">
</g>
</svg>
