<?xml version="1.0" encoding="utf-8"?>
<!-- Generator: Adobe Illustrator 27.8.1, SVG Export Plug-In . SVG Version: 6.00 Build 0)  -->
<svg version="1.1" xmlns="http://www.w3.org/2000/svg" xmlns:xlink="http://www.w3.org/1999/xlink" x="0px" y="0px"
	 viewBox="0 0 350 230" style="enable-background:new 0 0 350 230;" xml:space="preserve">
<style type="text/css">
	.st0{fill:#023883;}
	.st1{fill:#FF0043;}
	.st2{fill-rule:evenodd;clip-rule:evenodd;fill:#00C3FF;}
	.st3{fill-rule:evenodd;clip-rule:evenodd;}
	.st4{fill:#BDD87C;}
	.st5{fill:#FCD35D;}
	.st6{fill:#F77552;}
	.st7{fill:#7BDBC2;}
	.st8{fill:#000077;}
	.st9{fill:#F200FF;}
	.st10{fill:#005B41;}
	.st11{fill:#FFFFFF;}
	.st12{fill:#00422F;}
	.st13{fill:#113500;}
	.st14{fill:#00005B;}
	.st15{fill:#2B0049;}
	.st16{fill:#DA0678;}
	.st17{fill:#4D84DC;}
	.st18{fill:#E58E21;}
	.st19{fill:#51097E;}
	.st20{fill:#6D003E;}
	.st21{fill:#FFCE88;}
	.st22{fill:#00D9FF;}
	.st23{fill:#7616C3;}
	.st24{fill:#004EFD;}
	.st25{fill:#C6C900;}
	.st26{fill:#00D3C7;}
	.st27{fill:#93C900;}
	.st28{fill:#009FFB;}
	.st29{fill:#710B0A;}
	.st30{fill:#FFD700;}
	.st31{fill:#7F0C06;}
	.st32{fill:#00FFE9;}
	.st33{fill:#FF0000;}
	.st34{fill:#B96508;}
	.st35{fill:#006E60;}
</style>
<g id="Layer_1">
</g>
<g id="Layer_2">
</g>
<g id="Layer_3">
</g>
<g id="Layer_4">
</g>
<g id="Layer_5">
</g>
<g id="Layer_6">
</g>
<g id="Layer_7">
</g>
<g id="Layer_8">
</g>
<g id="Layer_9">
</g>
<g id="Layer_10">
</g>
<g id="Layer_11">
</g>
<g id="Layer_12">
</g>
<g id="Layer_13">
</g>
<g id="Layer_14">
</g>
<g id="Layer_15">
	<g>
		<path class="st34" d="M185.64,104.08c8.43-7.26,7.67-18.55,1.59-24.85c-6.37-6.59-16.5-7.01-23.38-1.1
			c-6.38,5.49-8.94,17.41,0.36,25.93c-5.38-1.62-10.34-1.16-14.91,1.78c-3.25,2.09-5.51,5.02-6.8,8.67
			c-2.51,7.14,0.19,15.25,6.5,19.49c3.78,2.54,7.95,3.45,12.44,2.66c4.48-0.79,8.02-3.15,10.86-6.68c-0.56,5.19-3.03,9.2-7.26,12.13
			c-7.03,4.87-16.27,4.15-22.22-1.98c-12.53-12.91-16.75-28.29-11.65-45.48c5.15-17.38,17.18-28.27,34.94-32
			c25.72-5.41,50.83,12.55,54.27,38.6c2.02,15.3-2.55,28.58-13.69,39.34c-4.77,4.61-10.68,5.75-17,3.74
			c-6.31-2.01-10.26-6.35-11.74-12.86c-0.1-0.45-0.14-0.92-0.25-1.59c7.09,8.75,17.09,8.23,23.04,4.32
			c6.86-4.51,9.53-13.1,6.38-20.73C203.74,105.3,196.04,101.92,185.64,104.08z"/>
		<path class="st35" d="M126.77,125.02c-9.47-16.97-8.78-45.06,11.69-63.98c19.69-18.19,50.1-19.07,70.86-1.96
			c21.53,17.75,24.5,46.49,13.73,66.51c0.74-3,1.79-6.26,2.3-9.6c0.52-3.44,0.79-6.97,0.66-10.44c-0.13-3.43-0.62-6.9-1.45-10.23
			c-0.84-3.37-2.05-6.7-3.56-9.83c-1.49-3.09-3.32-6.08-5.41-8.81c-2.11-2.76-4.54-5.34-7.16-7.63c-2.59-2.26-5.45-4.28-8.43-5.99
			c-17.66-10.11-39.99-8.8-55.96,3.99C124.82,82.45,120.1,102.44,126.77,125.02z M195.99,150.49c-9.12,0-16.1-3.85-20.96-11.62
			c-4.8,7.74-11.73,11.55-20.93,11.73C164.63,156.26,188.34,156.15,195.99,150.49z"/>
	</g>
</g>
</svg>
