<?xml version="1.0" encoding="utf-8"?>
<!-- Generator: Adobe Illustrator 27.8.1, SVG Export Plug-In . SVG Version: 6.00 Build 0)  -->
<svg version="1.1" xmlns="http://www.w3.org/2000/svg" xmlns:xlink="http://www.w3.org/1999/xlink" x="0px" y="0px"
	 viewBox="0 0 350 230" style="enable-background:new 0 0 350 230;" xml:space="preserve">
<style type="text/css">
	.st0{fill:#023883;}
	.st1{fill:#FF0043;}
	.st2{fill-rule:evenodd;clip-rule:evenodd;fill:#00C3FF;}
	.st3{fill-rule:evenodd;clip-rule:evenodd;}
	.st4{fill:#BDD87C;}
	.st5{fill:#FCD35D;}
	.st6{fill:#F77552;}
	.st7{fill:#7BDBC2;}
	.st8{fill:#000077;}
	.st9{fill:#F200FF;}
	.st10{fill:#005B41;}
	.st11{fill:#FFFFFF;}
	.st12{fill:#00422F;}
	.st13{fill:#113500;}
	.st14{fill:#00005B;}
	.st15{fill:#2B0049;}
	.st16{fill:#DA0678;}
	.st17{fill:#4D84DC;}
	.st18{fill:#E58E21;}
	.st19{fill:#51097E;}
	.st20{fill:#6D003E;}
	.st21{fill:#FFCE88;}
	.st22{fill:#00D9FF;}
	.st23{fill:#7616C3;}
	.st24{fill:#004EFD;}
	.st25{fill:#C6C900;}
	.st26{fill:#00D3C7;}
	.st27{fill:#93C900;}
	.st28{fill:#009FFB;}
	.st29{fill:#710B0A;}
	.st30{fill:#FFD700;}
	.st31{fill:#7F0C06;}
	.st32{fill:#00FFE9;}
	.st33{fill:#FF0000;}
	.st34{fill:#B96508;}
	.st35{fill:#006E60;}
</style>
<g id="Layer_1">
</g>
<g id="Layer_2">
</g>
<g id="Layer_3">
	<g>
		<g>
			<g>
				<path class="st4" d="M210.78,91.73c0,1.93-1.56,3.49-3.49,3.49c-1.93,0-3.49-1.56-3.49-3.49c0-1.93,1.56-3.49,3.49-3.49
					C209.21,88.24,210.78,89.8,210.78,91.73z"/>
				<path class="st5" d="M210.78,106.85c0,1.93-1.56,3.49-3.49,3.49c-1.93,0-3.49-1.56-3.49-3.49c0-1.93,1.56-3.49,3.49-3.49
					C209.21,103.36,210.78,104.92,210.78,106.85z"/>
				<path class="st6" d="M214.84,102.78c-1.93,0-3.49-1.56-3.49-3.49s1.56-3.49,3.49-3.49c1.93,0,3.49,1.56,3.49,3.49
					C218.33,101.22,216.77,102.78,214.84,102.78z"/>
				<path class="st7" d="M199.72,102.78c-1.93,0-3.49-1.56-3.49-3.49s1.56-3.49,3.49-3.49s3.49,1.56,3.49,3.49
					C203.22,101.22,201.65,102.78,199.72,102.78z"/>
			</g>
			<path class="st8" d="M176.02,62.34c0-1.52,0.32-2.17,0.76-3.08c0.52-1.07,1.17-2.39,1.17-4.83h-4c0,1.52-0.32,2.17-0.76,3.08
				c-0.52,1.07-1.17,2.39-1.17,4.83s0.65,3.77,1.17,4.83c0.44,0.91,0.76,1.57,0.76,3.08c0,1.52-0.32,2.18-0.76,3.08
				c-0.37,0.77-0.82,1.68-1.03,3.03h4.08c0.14-0.45,0.33-0.84,0.54-1.28c0.52-1.06,1.17-2.39,1.17-4.83c0-2.43-0.65-3.76-1.17-4.83
				C176.34,64.52,176.02,63.86,176.02,62.34z M135.78,95.11h-4.5c-1.06,0-1.93,0.87-1.93,1.93v4.5c0,1.05,0.87,1.92,1.93,1.92h4.5
				c1.06,0,1.92-0.87,1.92-1.92v-4.5C137.7,95.98,136.84,95.11,135.78,95.11z M134.81,101.38l-2.56-2.09l2.56-2.09V101.38z
				 M154.05,95.11h-4.51c-1.05,0-1.92,0.87-1.92,1.93v4.5c0,1.05,0.87,1.92,1.92,1.92h4.51c1.05,0,1.92-0.87,1.92-1.92v-4.5
				C155.97,95.98,155.1,95.11,154.05,95.11z M150.51,101.38V97.2l2.57,2.09L150.51,101.38z M144.91,102.32h-4.5
				c-1.06,0-1.92,0.87-1.92,1.93v4.5c0,1.06,0.86,1.92,1.92,1.92h4.5c1.06,0,1.93-0.86,1.93-1.92v-4.5
				C146.84,103.19,145.97,102.32,144.91,102.32z M142.66,107.78l-2.09-2.56h4.18L142.66,107.78z M144.91,87.9h-4.5
				c-1.06,0-1.92,0.87-1.92,1.93v4.5c0,1.05,0.86,1.92,1.92,1.92h4.5c1.06,0,1.93-0.87,1.93-1.92v-4.5
				C146.84,88.77,145.97,87.9,144.91,87.9z M140.57,93.36l2.09-2.57l2.09,2.57H140.57z M154.05,95.11h-4.51
				c-1.05,0-1.92,0.87-1.92,1.93v4.5c0,1.05,0.87,1.92,1.92,1.92h4.51c1.05,0,1.92-0.87,1.92-1.92v-4.5
				C155.97,95.98,155.1,95.11,154.05,95.11z M150.51,101.38V97.2l2.57,2.09L150.51,101.38z M144.91,102.32h-4.5
				c-1.06,0-1.92,0.87-1.92,1.93v4.5c0,1.06,0.86,1.92,1.92,1.92h4.5c1.06,0,1.93-0.86,1.93-1.92v-4.5
				C146.84,103.19,145.97,102.32,144.91,102.32z M142.66,107.78l-2.09-2.56h4.18L142.66,107.78z M144.91,87.9h-4.5
				c-1.06,0-1.92,0.87-1.92,1.93v4.5c0,1.05,0.86,1.92,1.92,1.92h4.5c1.06,0,1.93-0.87,1.93-1.92v-4.5
				C146.84,88.77,145.97,87.9,144.91,87.9z M140.57,93.36l2.09-2.57l2.09,2.57H140.57z M135.78,95.11h-4.5
				c-1.06,0-1.93,0.87-1.93,1.93v4.5c0,1.05,0.87,1.92,1.93,1.92h4.5c1.06,0,1.92-0.87,1.92-1.92v-4.5
				C137.7,95.98,136.84,95.11,135.78,95.11z M134.81,101.38l-2.56-2.09l2.56-2.09V101.38z M154.05,95.11h-4.51
				c-1.05,0-1.92,0.87-1.92,1.93v4.5c0,1.05,0.87,1.92,1.92,1.92h4.51c1.05,0,1.92-0.87,1.92-1.92v-4.5
				C155.97,95.98,155.1,95.11,154.05,95.11z M150.51,101.38V97.2l2.57,2.09L150.51,101.38z M144.91,102.32h-4.5
				c-1.06,0-1.92,0.87-1.92,1.93v4.5c0,1.06,0.86,1.92,1.92,1.92h4.5c1.06,0,1.93-0.86,1.93-1.92v-4.5
				C146.84,103.19,145.97,102.32,144.91,102.32z M142.66,107.78l-2.09-2.56h4.18L142.66,107.78z M144.91,87.9h-4.5
				c-1.06,0-1.92,0.87-1.92,1.93v4.5c0,1.05,0.86,1.92,1.92,1.92h4.5c1.06,0,1.93-0.87,1.93-1.92v-4.5
				C146.84,88.77,145.97,87.9,144.91,87.9z M140.57,93.36l2.09-2.57l2.09,2.57H140.57z M135.78,95.11h-4.5
				c-1.06,0-1.93,0.87-1.93,1.93v4.5c0,1.05,0.87,1.92,1.93,1.92h4.5c1.06,0,1.92-0.87,1.92-1.92v-4.5
				C137.7,95.98,136.84,95.11,135.78,95.11z M134.81,101.38l-2.56-2.09l2.56-2.09V101.38z"/>
			<path class="st8" d="M233.51,102.2c-0.26-9.75-5.32-18.19-13.88-22.91c-4.78-2.63-10.02-2.93-15.31-2.93h-41.56
				c-10.77,0-23.73-1.86-33.51,3.53c-8.57,4.73-13.05,14.36-12.74,23.88c0.18,5.66,2.77,11.87,4.31,17.27
				c1.89,6.64,3.78,13.28,5.67,19.91c0.22,0.78,0.94,1.33,1.74,1.33h15.39c0.6,0,1.27-0.34,1.55-0.9
				c2.72-5.28,5.43-10.57,8.14-15.86c6.05-3.01,10.41-7.8,12.99-13.97h17.34c1.51,3.66,3.62,6.82,6.5,9.62
				c2.42,2.35,5.98,3,7.44,5.83c2.46,4.79,4.93,9.59,7.4,14.38c0.28,0.56,0.95,0.9,1.55,0.9h15.39c0.81,0,1.52-0.55,1.74-1.33
				c2.92-10.24,5.83-20.48,8.75-30.73c0.09-0.3,0.08-0.57,0.04-0.82C233.08,107.02,233.43,104.69,233.51,102.2z M228.72,109.36
				c-0.09,0.3-0.08,0.56-0.04,0.81c-2.71,9.5-5.42,19-8.12,28.5h-12.93c-0.61-1.18-1.22-2.37-1.83-3.55
				c-1.93-3.75-3.85-7.5-5.78-11.25c-0.85-1.64-2.98-2.13-4.49-3.05c-4.27-2.6-7.26-6.93-8.94-11.55c-0.27-0.76-0.89-1.32-1.74-1.32
				h-19.74c-0.85,0-1.46,0.56-1.74,1.32c-2.23,6.12-6.47,10.59-12.32,13.38c-0.34,0.16-0.57,0.45-0.72,0.79
				c-2.6,5.08-5.21,10.15-7.81,15.23h-12.93c-2.79-9.8-5.58-19.6-8.38-29.4c-3.66-12.86,3.31-25.58,16.41-28.81
				c3.89-0.96,8.51-0.49,12.49-0.49h57.11c10.29,0,18.91,6.51,21.89,16.32c0.58,1.92,0.74,3.92,0.8,5.91
				C229.82,104.68,229.43,106.99,228.72,109.36z"/>
		</g>
	</g>
</g>
<g id="Layer_4">
</g>
<g id="Layer_5">
</g>
<g id="Layer_6">
</g>
<g id="Layer_7">
</g>
<g id="Layer_8">
</g>
<g id="Layer_9">
</g>
<g id="Layer_10">
</g>
<g id="Layer_11">
</g>
<g id="Layer_12">
</g>
<g id="Layer_13">
</g>
<g id="Layer_14">
</g>
<g id="Layer_15">
</g>
</svg>
