<?xml version="1.0" encoding="utf-8"?>
<!-- Generator: Adobe Illustrator 27.8.1, SVG Export Plug-In . SVG Version: 6.00 Build 0)  -->
<svg version="1.1" xmlns="http://www.w3.org/2000/svg" xmlns:xlink="http://www.w3.org/1999/xlink" x="0px" y="0px"
	 viewBox="0 0 350 230" style="enable-background:new 0 0 350 230;" xml:space="preserve">
<style type="text/css">
	.st0{fill:#023883;}
	.st1{fill:#FF0043;}
	.st2{fill-rule:evenodd;clip-rule:evenodd;fill:#00C3FF;}
	.st3{fill-rule:evenodd;clip-rule:evenodd;}
	.st4{fill:#BDD87C;}
	.st5{fill:#FCD35D;}
	.st6{fill:#F77552;}
	.st7{fill:#7BDBC2;}
	.st8{fill:#000077;}
	.st9{fill:#F200FF;}
	.st10{fill:#005B41;}
	.st11{fill:#FFFFFF;}
	.st12{fill:#00422F;}
	.st13{fill:#113500;}
	.st14{fill:#00005B;}
	.st15{fill:#2B0049;}
	.st16{fill:#DA0678;}
	.st17{fill:#4D84DC;}
	.st18{fill:#E58E21;}
	.st19{fill:#51097E;}
	.st20{fill:#6D003E;}
	.st21{fill:#FFCE88;}
	.st22{fill:#00D9FF;}
	.st23{fill:#7616C3;}
	.st24{fill:#004EFD;}
	.st25{fill:#C6C900;}
	.st26{fill:#00D3C7;}
	.st27{fill:#93C900;}
	.st28{fill:#009FFB;}
	.st29{fill:#710B0A;}
	.st30{fill:#FFD700;}
	.st31{fill:#7F0C06;}
	.st32{fill:#00FFE9;}
	.st33{fill:#FF0000;}
	.st34{fill:#B96508;}
	.st35{fill:#006E60;}
</style>
<g id="Layer_1">
</g>
<g id="Layer_2">
</g>
<g id="Layer_3">
</g>
<g id="Layer_4">
</g>
<g id="Layer_5">
</g>
<g id="Layer_6">
</g>
<g id="Layer_7">
</g>
<g id="Layer_8">
	<g>
		<path class="st22" d="M224.9,100.62c-0.04,5.85-4.71,10.44-10.58,10.39c-5.75-0.05-10.32-4.74-10.3-10.56
			c0.02-5.93,4.64-10.45,10.65-10.41C220.4,90.07,224.94,94.77,224.9,100.62z M217.72,100.5c0.02-1.76-1.44-3.2-3.23-3.21
			c-1.82-0.01-3.24,1.36-3.28,3.17c-0.04,1.76,1.39,3.24,3.17,3.28C216.21,103.78,217.7,102.33,217.72,100.5z M133.85,61.22
			c2.4,0,4.8-0.01,7.2,0c1.96,0.01,2.89,0.9,2.91,2.89c0.03,2.99,0.01,5.98,0.01,8.97c0.01,2.32,0.9,3.22,3.21,3.23
			c2.99,0.01,5.98-0.01,8.97,0.01c1.96,0.01,2.81,0.84,2.82,2.8c0.01,4.92,0.01,9.84-0.01,14.76c-0.01,1.85-0.91,2.71-2.78,2.72
			c-2.95,0.01-5.9,0-8.86,0.01c-2.55,0-3.36,0.84-3.36,3.42c0,2.83,0.01,5.67,0,8.5c-0.01,2.27-0.89,3.16-3.13,3.16
			c-4.76,0.01-9.53,0.01-14.29,0c-2.05,0-2.95-0.9-2.96-2.94c-0.01-2.99,0-5.98-0.01-8.97c-0.01-2.25-0.92-3.16-3.15-3.17
			c-3.03-0.01-6.06,0-9.09-0.01c-1.88-0.01-2.87-0.95-2.87-2.81c-0.02-4.84-0.03-9.68,0-14.52c0.01-2.05,0.95-2.95,2.97-2.95
			c2.99-0.01,5.98,0.01,8.97-0.01c2.23-0.01,3.17-0.95,3.17-3.17c0.01-2.99-0.01-5.98,0-8.97c0.01-2.08,0.88-2.95,2.94-2.95
			C128.97,61.22,131.41,61.22,133.85,61.22C133.85,61.22,133.85,61.22,133.85,61.22z M159.48,136.09c2.75,0,5.51-0.01,8.26,0
			c1.25,0.01,2.23-0.52,2.9-1.53c0.98-1.48,1.14-3.08,0.34-4.7c-0.78-1.58-2.12-2.23-3.85-2.2c-2.24,0.03-4.48,0.01-6.73,0.01
			c-2.95,0-5.9-0.06-8.85,0.03c-2.5,0.07-3.97,1.79-3.93,4.35c0.04,2.46,1.6,4.03,4.07,4.05
			C154.29,136.11,156.89,136.1,159.48,136.09C159.48,136.1,159.48,136.1,159.48,136.09z"/>
		<path class="st23" d="M220.59,83.98c-0.05-5.84,4.48-10.45,10.32-10.52c5.82-0.06,10.63,4.61,10.65,10.35
			c0.02,5.83-4.64,10.59-10.42,10.62C225.3,94.46,220.63,89.83,220.59,83.98z M227.89,83.9c0,1.87,1.35,3.26,3.17,3.24
			c1.7-0.01,3.16-1.46,3.19-3.17c0.03-1.76-1.44-3.22-3.23-3.2C229.23,80.79,227.9,82.12,227.89,83.9z M188.07,136.09
			c2.75,0,5.5,0,8.26,0c1.31,0,2.26-0.62,2.93-1.68c0.93-1.48,1-3.05,0.21-4.6c-0.77-1.53-2.08-2.15-3.77-2.14
			c-5.03,0.02-10.06,0-15.1,0.01c-0.35,0-0.71,0.03-1.06,0.08c-2.27,0.34-3.56,2.1-3.38,4.6c0.16,2.25,1.67,3.72,3.88,3.74
			C182.72,136.12,185.4,136.1,188.07,136.09C188.07,136.1,188.07,136.1,188.07,136.09z M208.32,83.91c0,5.85-4.67,10.55-10.46,10.52
			c-5.84-0.03-10.54-4.8-10.5-10.67c0.04-5.67,4.81-10.32,10.59-10.3C203.76,73.48,208.32,78.07,208.32,83.91z M189.38,83.85
			c-0.02,4.82,3.61,8.55,8.32,8.57c5,0.03,8.71-3.61,8.72-8.55c0.01-4.67-3.76-8.45-8.47-8.49
			C193.14,75.35,189.4,79.04,189.38,83.85z M224.89,67.32c0.04,5.92-4.55,10.5-10.55,10.51c-5.7,0.01-10.3-4.68-10.32-10.52
			c-0.02-5.76,4.66-10.48,10.39-10.48C220.25,56.84,224.85,61.43,224.89,67.32z M214.42,75.88c4.75,0.03,8.54-3.66,8.58-8.35
			c0.04-4.92-3.59-8.69-8.43-8.74c-4.78-0.05-8.64,3.7-8.67,8.42C205.88,72.09,209.57,75.85,214.42,75.88z"/>
	</g>
</g>
<g id="Layer_9">
</g>
<g id="Layer_10">
</g>
<g id="Layer_11">
</g>
<g id="Layer_12">
</g>
<g id="Layer_13">
</g>
<g id="Layer_14">
</g>
<g id="Layer_15">
</g>
</svg>
