<?xml version="1.0" encoding="utf-8"?>
<!-- Generator: Adobe Illustrator 27.8.1, SVG Export Plug-In . SVG Version: 6.00 Build 0)  -->
<svg version="1.1" xmlns="http://www.w3.org/2000/svg" xmlns:xlink="http://www.w3.org/1999/xlink" x="0px" y="0px"
	 viewBox="0 0 350 230" style="enable-background:new 0 0 350 230;" xml:space="preserve">
<style type="text/css">
	.st0{fill:#023883;}
	.st1{fill:#FF0043;}
	.st2{fill-rule:evenodd;clip-rule:evenodd;fill:#00C3FF;}
	.st3{fill-rule:evenodd;clip-rule:evenodd;}
	.st4{fill:#BDD87C;}
	.st5{fill:#FCD35D;}
	.st6{fill:#F77552;}
	.st7{fill:#7BDBC2;}
	.st8{fill:#000077;}
	.st9{fill:#F200FF;}
	.st10{fill:#005B41;}
	.st11{fill:#FFFFFF;}
	.st12{fill:#00422F;}
	.st13{fill:#113500;}
	.st14{fill:#00005B;}
	.st15{fill:#2B0049;}
	.st16{fill:#DA0678;}
	.st17{fill:#4D84DC;}
	.st18{fill:#E58E21;}
	.st19{fill:#51097E;}
	.st20{fill:#6D003E;}
	.st21{fill:#FFCE88;}
	.st22{fill:#00D9FF;}
	.st23{fill:#7616C3;}
	.st24{fill:#004EFD;}
	.st25{fill:#C6C900;}
	.st26{fill:#00D3C7;}
	.st27{fill:#93C900;}
	.st28{fill:#009FFB;}
	.st29{fill:#710B0A;}
	.st30{fill:#FFD700;}
	.st31{fill:#7F0C06;}
	.st32{fill:#00FFE9;}
	.st33{fill:#FF0000;}
	.st34{fill:#B96508;}
	.st35{fill:#006E60;}
</style>
<g id="Layer_1">
</g>
<g id="Layer_2">
</g>
<g id="Layer_3">
</g>
<g id="Layer_4">
</g>
<g id="Layer_5">
</g>
<g id="Layer_6">
</g>
<g id="Layer_7">
	<g>
		<path class="st15" d="M224.72,86.56l-54.13-31.25c-4.04-2.34-9.09,0.58-9.09,5.25v14.46h20.96c9.63,0,17.45,8.18,17.45,17.81
			s-7.81,17.81-17.45,17.81c-6.27,0-11.76-3.71-14.83-8.01h-6.12v20.45c0,4.67,5.05,7.58,9.09,5.25l54.13-31.26
			C228.75,94.72,228.75,88.89,224.72,86.56z M191.9,92.76c0-1.41-1.14-2.54-2.54-2.54c-1.41,0-2.54,1.13-2.54,2.54
			c0,1.4,1.13,2.54,2.54,2.54C190.76,95.3,191.9,94.16,191.9,92.76z M186.11,86.97c0-1.4-1.13-2.54-2.54-2.54
			c-1.4,0-2.54,1.14-2.54,2.54c0,1.41,1.13,2.54,2.54,2.54C184.97,89.51,186.11,88.38,186.11,86.97z M183.56,101.1
			c1.41,0,2.54-1.14,2.54-2.54c0-1.41-1.13-2.54-2.54-2.54c-1.4,0-2.54,1.13-2.54,2.54C181.02,99.96,182.16,101.1,183.56,101.1z
			 M180.31,92.76c0-1.41-1.13-2.54-2.54-2.54c-1.4,0-2.54,1.13-2.54,2.54c0,1.4,1.14,2.54,2.54,2.54
			C179.18,95.3,180.31,94.16,180.31,92.76z"/>
		<path class="st16" d="M189.36,90.22c-1.41,0-2.54,1.13-2.54,2.54c0,1.4,1.13,2.54,2.54,2.54c1.4,0,2.54-1.14,2.54-2.54
			C191.9,91.36,190.76,90.22,189.36,90.22z"/>
		<path class="st17" d="M183.56,84.43c-1.4,0-2.54,1.14-2.54,2.54c0,1.41,1.13,2.54,2.54,2.54c1.41,0,2.54-1.13,2.54-2.54
			C186.11,85.57,184.97,84.43,183.56,84.43z"/>
		<path class="st18" d="M183.56,96.01c-1.4,0-2.54,1.13-2.54,2.54c0,1.4,1.13,2.54,2.54,2.54c1.41,0,2.54-1.14,2.54-2.54
			C186.11,97.15,184.97,96.01,183.56,96.01z"/>
		<path class="st19" d="M177.77,90.22c-1.4,0-2.54,1.13-2.54,2.54c0,1.4,1.14,2.54,2.54,2.54c1.41,0,2.54-1.14,2.54-2.54
			C180.31,91.36,179.18,90.22,177.77,90.22z"/>
		<path class="st20" d="M140.4,75.02c-9.63,0-17.44,8.04-17.44,17.68c0,4.43,1.66,8.57,4.39,11.73v-8.8c0-2.11,1.71-3.82,3.82-3.82
			h0.69c2.11,0,3.82,1.71,3.82,3.82v12.1c2.05-1.05,4.37-1.63,6.83-1.63c2.55,0,4.96,0.63,7.07,1.75c2.29-1.4,4.23-3.23,5.65-5.23
			h6.25v-27.6H140.4z"/>
		<g>
			<path class="st21" d="M157.68,121.25v18.52h-30.33v-8.06c-2.95-0.95-5.09-3.72-5.09-6.99s2.14-6.05,5.1-7V95.63
				c0-2.11,1.71-3.82,3.82-3.82h0.69c2.11,0,3.82,1.71,3.82,3.82v12.1c2.05-1.05,4.37-1.63,6.83-1.63c2.55,0,4.96,0.63,7.07,1.75
				C154.4,110.38,157.68,115.43,157.68,121.25z"/>
		</g>
	</g>
</g>
<g id="Layer_8">
</g>
<g id="Layer_9">
</g>
<g id="Layer_10">
</g>
<g id="Layer_11">
</g>
<g id="Layer_12">
</g>
<g id="Layer_13">
</g>
<g id="Layer_14">
</g>
<g id="Layer_15">
</g>
</svg>
