<?xml version="1.0" encoding="utf-8"?>
<!-- Generator: Adobe Illustrator 27.8.1, SVG Export Plug-In . SVG Version: 6.00 Build 0)  -->
<svg version="1.1" xmlns="http://www.w3.org/2000/svg" xmlns:xlink="http://www.w3.org/1999/xlink" x="0px" y="0px"
	 viewBox="0 0 350 230" style="enable-background:new 0 0 350 230;" xml:space="preserve">
<style type="text/css">
	.st0{fill:#023883;}
	.st1{fill:#FF0043;}
	.st2{fill-rule:evenodd;clip-rule:evenodd;fill:#00C3FF;}
	.st3{fill-rule:evenodd;clip-rule:evenodd;}
	.st4{fill:#BDD87C;}
	.st5{fill:#FCD35D;}
	.st6{fill:#F77552;}
	.st7{fill:#7BDBC2;}
	.st8{fill:#000077;}
	.st9{fill:#F200FF;}
	.st10{fill:#005B41;}
	.st11{fill:#FFFFFF;}
	.st12{fill:#00422F;}
	.st13{fill:#113500;}
	.st14{fill:#00005B;}
	.st15{fill:#2B0049;}
	.st16{fill:#DA0678;}
	.st17{fill:#4D84DC;}
	.st18{fill:#E58E21;}
	.st19{fill:#51097E;}
	.st20{fill:#6D003E;}
	.st21{fill:#FFCE88;}
	.st22{fill:#00D9FF;}
	.st23{fill:#7616C3;}
	.st24{fill:#004EFD;}
	.st25{fill:#C6C900;}
	.st26{fill:#00D3C7;}
	.st27{fill:#93C900;}
	.st28{fill:#009FFB;}
	.st29{fill:#710B0A;}
	.st30{fill:#FFD700;}
	.st31{fill:#7F0C06;}
	.st32{fill:#00FFE9;}
	.st33{fill:#FF0000;}
	.st34{fill:#B96508;}
	.st35{fill:#006E60;}
</style>
<g id="Layer_1">
</g>
<g id="Layer_2">
</g>
<g id="Layer_3">
</g>
<g id="Layer_4">
</g>
<g id="Layer_5">
</g>
<g id="Layer_6">
</g>
<g id="Layer_7">
</g>
<g id="Layer_8">
</g>
<g id="Layer_9">
</g>
<g id="Layer_10">
</g>
<g id="Layer_11">
</g>
<g id="Layer_12">
	<g>
		<path class="st29" d="M175.01,59.22c22.46,0.03,40.48,18.11,40.47,40.6c-0.01,22.27-18.2,40.41-40.49,40.36
			c-22.42-0.04-40.51-18.14-40.47-40.49C134.56,77.27,152.65,59.19,175.01,59.22z M175.01,76.79c-12.57-0.01-22.9,10.23-22.93,22.72
			c-0.03,12.76,10.23,23.12,22.9,23.13c12.71,0,22.93-10.33,22.94-23.21C197.94,87.08,187.54,76.8,175.01,76.79z M139.25,89.56
			c0.37,0.28,0.72,0.71,1.16,0.83c2.65,0.76,5.32,1.42,7.97,2.17c0.87,0.25,1.25-0.05,1.5-0.85c1.16-3.65,3.02-6.91,5.62-9.73
			c0.69-0.74,0.56-1.25-0.1-1.9c-1.9-1.84-3.78-3.7-5.6-5.61c-0.77-0.81-1.31-0.73-2.03,0.06c-2.9,3.19-5.24,6.73-6.9,10.71
			C140.33,86.58,139.86,87.94,139.25,89.56z M210.7,89.6c-0.29-0.87-0.5-1.51-0.72-2.15c-1.71-4.88-4.34-9.2-7.85-12.99
			c-0.53-0.58-1.02-0.87-1.7-0.19c-2.02,2.04-4.05,4.06-6.08,6.09c-0.45,0.45-0.5,0.9-0.06,1.39c2.72,2.97,4.68,6.37,5.93,10.2
			c0.1,0.32,0.77,0.73,1.06,0.66c2.86-0.7,5.7-1.47,8.53-2.28C210.17,90.23,210.44,89.82,210.7,89.6z M200.87,106.68
			c-0.21,0.28-0.61,0.61-0.75,1.03c-1.22,3.63-3.06,6.9-5.65,9.71c-0.63,0.68-0.6,1.17,0.06,1.81c1.92,1.87,3.84,3.75,5.68,5.69
			c0.79,0.83,1.32,0.7,2.02-0.08c3.79-4.17,6.55-8.93,8.22-14.32c0.28-0.92,0-1.32-0.88-1.55c-2.67-0.69-5.32-1.43-7.98-2.14
			C201.45,106.79,201.3,106.77,200.87,106.68z M149.17,106.71c-0.31,0.03-0.35,0.03-0.39,0.04c-2.92,0.78-5.84,1.53-8.74,2.37
			c-0.28,0.08-0.64,0.81-0.55,1.12c1.65,5.64,4.52,10.6,8.55,14.88c0.47,0.5,0.93,0.59,1.45,0.06c2.05-2.06,4.13-4.09,6.14-6.2
			c0.23-0.25,0.25-1.07,0.03-1.33c-2.65-2.98-4.63-6.33-5.83-10.13C149.72,107.17,149.33,106.9,149.17,106.71z M174.99,62.42
			c-2.76,0.38-5.48,0.76-8.2,1.13c-1.01,0.14-1.34,0.63-1.05,1.64c0.73,2.58,1.42,5.16,2.08,7.76c0.23,0.91,0.64,1.22,1.61,1
			c3.7-0.81,7.42-0.81,11.12,0c0.98,0.22,1.37-0.11,1.6-1.02c0.66-2.59,1.36-5.18,2.09-7.76c0.29-1.02-0.06-1.5-1.06-1.64
			C180.47,63.18,177.75,62.8,174.99,62.42z M175.01,137c2.76-0.39,5.48-0.78,8.21-1.16c1.04-0.14,1.31-0.68,1.03-1.67
			c-0.72-2.55-1.41-5.1-2.05-7.66c-0.24-0.98-0.69-1.29-1.69-1.07c-3.67,0.83-7.35,0.79-11.02,0c-0.92-0.2-1.4,0.02-1.64,0.98
			c-0.65,2.6-1.35,5.19-2.08,7.77c-0.29,1.01,0.03,1.51,1.05,1.65C169.53,136.22,172.25,136.61,175.01,137z"/>
		<path class="st30" d="M184.46,97.98c2.69,0,5.37,0.05,8.06-0.02c1.01-0.03,1.29,0.32,1.31,1.29c0.23,9.62-7.04,18.04-16.51,19.11
			c-9.93,1.12-18.82-5.28-20.73-14.94c-1.59-8.02,1.97-15.92,9.02-20.03c6.83-3.99,15.65-3.12,21.72,2.06
			c0.88,0.75,0.83,1.2,0.03,1.93c-1.42,1.32-1.38,1.36-2.91,0.19c-5.18-3.98-12.06-4.36-17.54-0.95c-5.4,3.35-8.25,9.78-7.03,15.91
			c1.27,6.41,6.26,11.3,12.65,12.37c8.16,1.37,16.12-4.24,17.62-12.38c0.19-1.02-0.27-1.15-1.09-1.15
			c-4.27,0.02-8.55-0.02-12.82,0.03c-1.02,0.01-1.3-0.3-1.27-1.29c0.09-2.39-0.29-2.11,2.12-2.12
			C179.55,97.97,182.01,97.98,184.46,97.98z"/>
	</g>
</g>
<g id="Layer_13">
</g>
<g id="Layer_14">
</g>
<g id="Layer_15">
</g>
</svg>
