<?xml version="1.0" encoding="utf-8"?>
<!-- Generator: Adobe Illustrator 27.8.1, SVG Export Plug-In . SVG Version: 6.00 Build 0)  -->
<svg version="1.1" xmlns="http://www.w3.org/2000/svg" xmlns:xlink="http://www.w3.org/1999/xlink" x="0px" y="0px"
	 viewBox="0 0 350 230" style="enable-background:new 0 0 350 230;" xml:space="preserve">
<style type="text/css">
	.st0{fill:#023883;}
	.st1{fill:#FF0043;}
	.st2{fill-rule:evenodd;clip-rule:evenodd;fill:#00C3FF;}
	.st3{fill-rule:evenodd;clip-rule:evenodd;}
	.st4{fill:#BDD87C;}
	.st5{fill:#FCD35D;}
	.st6{fill:#F77552;}
	.st7{fill:#7BDBC2;}
	.st8{fill:#000077;}
	.st9{fill:#F200FF;}
	.st10{fill:#005B41;}
	.st11{fill:#FFFFFF;}
	.st12{fill:#00422F;}
	.st13{fill:#113500;}
	.st14{fill:#00005B;}
	.st15{fill:#2B0049;}
	.st16{fill:#DA0678;}
	.st17{fill:#4D84DC;}
	.st18{fill:#E58E21;}
	.st19{fill:#51097E;}
	.st20{fill:#6D003E;}
	.st21{fill:#FFCE88;}
	.st22{fill:#00D9FF;}
	.st23{fill:#7616C3;}
	.st24{fill:#004EFD;}
	.st25{fill:#C6C900;}
	.st26{fill:#00D3C7;}
	.st27{fill:#93C900;}
	.st28{fill:#009FFB;}
	.st29{fill:#710B0A;}
	.st30{fill:#FFD700;}
	.st31{fill:#7F0C06;}
	.st32{fill:#00FFE9;}
	.st33{fill:#FF0000;}
	.st34{fill:#B96508;}
	.st35{fill:#006E60;}
</style>
<g id="Layer_1">
</g>
<g id="Layer_2">
</g>
<g id="Layer_3">
</g>
<g id="Layer_4">
</g>
<g id="Layer_5">
</g>
<g id="Layer_6">
</g>
<g id="Layer_7">
</g>
<g id="Layer_8">
</g>
<g id="Layer_9">
</g>
<g id="Layer_10">
	<path class="st26" d="M165.64,125.06c-3.33,2.11-6.83,3.85-10.64,4.91c-5.7,1.58-11.37,1.68-16.84-0.81
		c-7.25-3.3-11.11-9.27-12.54-16.89c-1.4-7.46,0.02-14.61,2.89-21.52c3.49-8.39,8.85-15.51,15.2-21.91
		c7.76-7.83,16.62-14.2,26.13-19.72c1.45-0.84,2.89-1.7,4.38-2.46c0.4-0.2,1.08-0.26,1.46-0.05c12.3,6.72,23.74,14.61,33.24,25.03
		c5.91,6.49,10.77,13.65,13.65,22.02c2.37,6.88,3.21,13.89,1.23,21.01c-3.29,11.8-13.73,18.24-25.81,16
		c-4.62-0.86-8.85-2.66-12.84-5.1c-0.45-0.28-0.9-0.55-1.35-0.83c-0.11,0.05-0.22,0.09-0.33,0.14c0.16,0.51,0.22,1.07,0.49,1.51
		c2.36,3.94,4.76,7.87,7.15,11.79c0.18,0.3,0.37,0.61,0.54,0.92c0.51,0.95,0.39,1.26-0.62,1.71c-6.77,3.05-12.06,7.64-15.14,14.54
		c-0.15,0.34-0.56,0.76-0.87,0.77c-0.29,0.01-0.73-0.4-0.88-0.73c-3.01-6.8-8.18-11.37-14.83-14.41c-1.5-0.69-1.57-0.82-0.74-2.29
		c2.29-4.07,4.59-8.13,6.88-12.2c0.22-0.39,0.34-0.85,0.51-1.27C165.86,125.17,165.75,125.12,165.64,125.06z M183.3,89.38
		c-1.01,0.18-2.01,0.66-2.79,0.43c-1.03-0.31-1.87-0.05-2.77,0.17c-1.14,0.28-2.27,0.61-3.39,0.98c-2.54,0.85-5.17,1.67-7.09,3.6
		c-2.48,2.5-4.73,5.23-7.06,7.88c-1.25,1.42-1.45,2.94-0.58,4.72c1.92,3.94,3.74,7.93,5.55,11.91c1.08,2.38,2.66,4.58,2.69,7.36
		c0,0.22,0.24,0.52,0.45,0.65c3.89,2.3,8.66,2.67,12.67,0.12c0.34-0.22,0.65-0.77,0.66-1.18c0.04-1.53,0.02-3.07-0.09-4.59
		c-0.28-3.59-0.64-7.17-0.93-10.76c-0.04-0.46,0.08-0.99,0.3-1.4c0.75-1.37,1.61-2.68,2.34-4.06c0.31-0.59,0.68-0.85,1.34-0.82
		c0.49,0.03,0.99-0.07,1.49-0.07c0.94,0,1.88,0.05,2.82,0.02c0.44-0.01,0.88-0.15,1.46-0.25c-1.1-1.09-2.04-1.84-3.39-1.97
		c-1.24-0.12-2.46-0.41-3.68-0.65c-0.69-0.13-1.23,0-1.71,0.55c-1.04,1.17-2.11,2.32-3.2,3.45c-0.89,0.93-1.76,1.87-2.74,2.69
		c-0.26,0.22-0.87,0.01-1.32,0c0.03-0.45-0.11-1.06,0.13-1.32c1.94-2.13,3.97-4.19,5.95-6.29c0.81-0.86,1.74-1.17,2.89-0.95
		c1.82,0.35,3.64,0.69,5.47,1c0.44,0.07,0.94,0.11,1.35-0.02c0.25-0.08,0.49-0.48,0.55-0.78c0.03-0.13-0.36-0.45-0.6-0.53
		c-1-0.31-2.13-0.3-2.76-1.39c-0.1-0.18-0.51-0.24-0.79-0.26c-2.41-0.17-4.83-0.33-7.25-0.47c-1.22-0.07-2.17,0.41-2.99,1.35
		c-1.56,1.81-3.17,3.57-4.83,5.29c-0.71,0.74-1.54,1.39-2.41,1.93c-0.29,0.18-0.86-0.09-1.31-0.16c0.09-0.44,0.03-1.01,0.29-1.28
		c2.09-2.18,4.37-4.2,6.32-6.49c1.57-1.83,3.39-2.64,5.7-2.5c2.13,0.12,4.26,0.31,6.4,0.44c1.53,0.1,2.85-1.3,2.61-2.74
		c-0.1,0.01-0.2,0-0.3,0.02c-1.2,0.33-2.38,1.11-3.61,0.05c-0.1-0.08-0.34-0.01-0.52,0.02c-2.78,0.45-5.55,0.88-8.33,1.36
		c-1.69,0.29-3.32,0.7-4.6,2.03c-2.03,2.1-4.15,4.12-6.25,6.14c-0.38,0.36-0.85,0.77-1.33,0.85c-0.41,0.07-0.89-0.31-1.33-0.49
		c0.19-0.4,0.28-0.9,0.58-1.19c0.52-0.51,1.22-0.85,1.75-1.36c1.82-1.76,3.52-3.64,5.41-5.32c0.93-0.83,2.08-1.56,3.25-1.91
		c1.72-0.51,3.57-0.59,5.35-0.96c1.1-0.23,2.19-0.57,3.22-1.03C183.02,90.92,183.53,90.31,183.3,89.38z M185.47,90.9
		c0.74-0.17,1.55-0.41,2.38-0.52c0.78-0.1,1.26-0.46,1.65-1.15c1.1-1.96,2.27-3.88,3.4-5.81c0.71-1.22,1.42-2.45,2.16-3.74
		c-1-0.61-1.89-1.15-2.81-1.7c0.78-1.39,1.81-2.24,3.14-2.8c0.33-0.14,0.73-0.58,0.74-0.89c0.01-0.31-0.36-0.8-0.67-0.93
		c-2.49-0.99-3.65-2.96-4.13-5.45c-0.12-0.62-0.2-1.28-0.98-1.3c-0.87-0.02-0.92,0.69-1.06,1.34c-0.51,2.33-1.5,4.33-3.89,5.24
		c-0.42,0.16-1.04,0.08-1.47-0.1c-0.9-0.38-1.75-0.91-2.72-1.43c-3.4,6.09-6.75,12.08-10.11,18.08c0.49,0.11,0.75,0.05,1.02-0.02
		c3.58-0.94,7.17-1.87,10.74-2.84c1.04-0.28,1.71,0.09,1.99,1.04C185.13,88.84,185.25,89.82,185.47,90.9z M137.91,81.7
		c-0.2,0.19-0.62,0.46-0.87,0.84c-4.09,6.2-7.08,12.86-7.94,20.31c-1.05,9.05,1.74,16.58,9.13,22.18c0.6,0.46,1.31,1.23,2.01,0.33
		c0.72-0.93-0.25-1.36-0.85-1.82c-6.44-4.9-9.19-11.43-8.51-19.43c0.62-7.28,3.42-13.77,7.32-19.85c0.25-0.39,0.56-0.75,0.75-1.16
		C139.28,82.4,138.9,81.75,137.91,81.7z M163.62,74.42c-1.95,0.87-3.65,1.67-5.38,2.4c-0.75,0.31-0.81,0.67-0.5,1.38
		c2.15,4.97,4.26,9.95,6.39,14.93c0.14,0.33,0.32,0.64,0.49,0.96c0.09-0.03,0.17-0.06,0.26-0.09
		C164.47,87.55,164.05,81.1,163.62,74.42z M169.29,87.01c0.08,0.02,0.16,0.05,0.25,0.07c2.69-4.82,5.39-9.65,8.19-14.66
		c-1.85-0.28-3.49-0.54-5.14-0.74c-0.17-0.02-0.51,0.33-0.56,0.56c-0.23,0.97-0.38,1.95-0.56,2.93
		C170.74,79.13,170.02,83.07,169.29,87.01z M196.44,91.04c0.41-0.57,0.78-0.88,0.87-1.25c0.32-1.28,0.85-2.3,2.15-2.86
		c0.81-0.35,0.83-1.32,0.04-1.66c-1.3-0.56-1.85-1.55-2.18-2.83c-0.1-0.37-0.62-0.63-0.94-0.93c-0.31,0.33-0.79,0.61-0.9,0.99
		c-0.33,1.24-0.88,2.2-2.13,2.75c-0.8,0.35-0.82,1.33-0.04,1.66c1.34,0.57,1.89,1.62,2.2,2.94C195.6,90.22,196,90.5,196.44,91.04z
		 M166.1,71.71c0.27,4.25,0.53,8.36,0.79,12.47c0.08,0,0.16,0.01,0.24,0.01c0.76-4.17,1.53-8.33,2.33-12.69
		C168.25,71.58,167.24,71.64,166.1,71.71z M182.96,63.86c-0.42,0.41-0.7,0.64-0.92,0.92c-0.42,0.53-0.75,1.14-1.22,1.62
		c-0.53,0.54-0.52,1.1,0.05,1.63c0.44,0.41,0.73,0.98,1.13,1.43c0.28,0.31,0.63,0.72,0.98,0.75c0.26,0.03,0.61-0.45,0.86-0.75
		c0.39-0.46,0.68-1.03,1.12-1.43c0.59-0.56,0.58-1.13-0.04-1.69c-0.42-0.38-0.71-0.9-1.06-1.36
		C183.6,64.65,183.34,64.33,182.96,63.86z M146.23,73.3c-0.24-0.31-0.4-0.73-0.65-0.8c-0.35-0.08-0.91-0.03-1.13,0.2
		c-1.3,1.35-2.54,2.77-3.79,4.18c-0.45,0.5-0.68,1.08-0.08,1.58c0.66,0.55,1.13,0.12,1.6-0.42c1.13-1.32,2.31-2.6,3.46-3.9
		C145.83,73.91,145.99,73.64,146.23,73.3z M146.65,128.17c0.02,0.06,0.05,0.12,0.07,0.18c1.25-0.35,2.52-0.63,3.73-1.09
		c0.28-0.11,0.5-0.83,0.43-1.21c-0.04-0.23-0.82-0.57-1.08-0.45c-1.64,0.75-3.29,0.72-5.01,0.46c-0.37-0.05-0.82,0.44-1.23,0.68
		c0.29,0.37,0.52,0.93,0.9,1.07C145.14,128.06,145.92,128.06,146.65,128.17z"/>
</g>
<g id="Layer_11">
</g>
<g id="Layer_12">
</g>
<g id="Layer_13">
</g>
<g id="Layer_14">
</g>
<g id="Layer_15">
</g>
</svg>
