<?xml version="1.0" encoding="utf-8"?>
<!-- Generator: Adobe Illustrator 27.8.1, SVG Export Plug-In . SVG Version: 6.00 Build 0)  -->
<svg version="1.1" xmlns="http://www.w3.org/2000/svg" xmlns:xlink="http://www.w3.org/1999/xlink" x="0px" y="0px"
	 viewBox="0 0 350 230" style="enable-background:new 0 0 350 230;" xml:space="preserve">
<style type="text/css">
	.st0{fill:#023883;}
	.st1{fill:#FF0043;}
	.st2{fill-rule:evenodd;clip-rule:evenodd;fill:#00C3FF;}
	.st3{fill-rule:evenodd;clip-rule:evenodd;}
	.st4{fill:#BDD87C;}
	.st5{fill:#FCD35D;}
	.st6{fill:#F77552;}
	.st7{fill:#7BDBC2;}
	.st8{fill:#000077;}
	.st9{fill:#F200FF;}
	.st10{fill:#005B41;}
	.st11{fill:#FFFFFF;}
	.st12{fill:#00422F;}
	.st13{fill:#113500;}
	.st14{fill:#00005B;}
	.st15{fill:#2B0049;}
	.st16{fill:#DA0678;}
	.st17{fill:#4D84DC;}
	.st18{fill:#E58E21;}
	.st19{fill:#51097E;}
	.st20{fill:#6D003E;}
	.st21{fill:#FFCE88;}
	.st22{fill:#00D9FF;}
	.st23{fill:#7616C3;}
	.st24{fill:#004EFD;}
	.st25{fill:#C6C900;}
	.st26{fill:#00D3C7;}
	.st27{fill:#93C900;}
	.st28{fill:#009FFB;}
	.st29{fill:#710B0A;}
	.st30{fill:#FFD700;}
	.st31{fill:#7F0C06;}
	.st32{fill:#00FFE9;}
	.st33{fill:#FF0000;}
	.st34{fill:#B96508;}
	.st35{fill:#006E60;}
</style>
<g id="Layer_1">
</g>
<g id="Layer_2">
	<g>
		<path class="st2" d="M127.06,54.2h37.4c2.16,0,3.93,1.78,3.94,3.94v82.67c0,2.16-1.78,3.93-3.94,3.93h-37.4
			c-2.16,0-3.93-1.77-3.94-3.93l0.01-82.67C123.13,55.98,124.9,54.2,127.06,54.2L127.06,54.2z M156.34,105.59
			c3.26,0,5.91,2.66,5.92,5.93c0,3.26-2.66,5.92-5.93,5.92c-3.25,0-5.91-2.66-5.91-5.93C150.42,108.25,153.08,105.59,156.34,105.59
			L156.34,105.59z M145.76,58.6c-0.74,0-1.34,0.39-1.64,1.06L140.31,68c-0.27,0.59-0.79,0.98-1.44,1.05l-9.1,1.04
			c-0.75,0.09-1.29,0.54-1.52,1.25c-0.23,0.7-0.04,1.39,0.5,1.89l6.75,6.19c0.48,0.45,0.68,1.06,0.55,1.7l-1.82,8.99
			c-0.15,0.72,0.11,1.39,0.71,1.82c0.6,0.44,1.31,0.48,1.95,0.11l7.99-4.51c0.57-0.32,1.21-0.32,1.78,0l7.99,4.51
			c0.64,0.36,1.35,0.33,1.95-0.11c0.61-0.43,0.86-1.1,0.71-1.82l-1.82-8.99c-0.13-0.64,0.06-1.25,0.55-1.7l6.76-6.19
			c0.55-0.5,0.72-1.19,0.49-1.89c-0.23-0.71-0.77-1.16-1.51-1.25l-9.11-1.04c-0.65-0.07-1.17-0.46-1.44-1.05l-3.8-8.34
			C147.1,58.98,146.5,58.6,145.76,58.6L145.76,58.6z M128.79,97.45h33.93c1.11,0,2.02,0.91,2.02,2.02c0,1.12-0.91,2.02-2.02,2.02
			h-33.93c-1.12,0-2.02-0.91-2.02-2.02C126.77,98.36,127.68,97.45,128.79,97.45L128.79,97.45z M156.34,126.75
			c3.26,0,5.92,2.66,5.92,5.92c0,3.26-2.66,5.92-5.92,5.92c-3.26,0-5.93-2.66-5.92-5.92C150.42,129.41,153.08,126.75,156.34,126.75
			L156.34,126.75z M135.18,126.75c3.26,0,5.92,2.66,5.92,5.92c0,3.26-2.66,5.92-5.92,5.92s-5.91-2.66-5.91-5.92
			C129.26,129.41,131.92,126.75,135.18,126.75L135.18,126.75z M145.76,116.17c3.26,0,5.92,2.66,5.92,5.92
			c0,3.26-2.66,5.92-5.92,5.92c-3.26,0-5.92-2.65-5.92-5.92C139.84,118.83,142.5,116.17,145.76,116.17L145.76,116.17z M135.18,105.6
			c3.26,0,5.92,2.65,5.92,5.92c0,3.26-2.66,5.92-5.92,5.92s-5.92-2.66-5.92-5.93C129.26,108.25,131.92,105.6,135.18,105.6
			L135.18,105.6z M235.11,65.18c-0.38,0-0.68,0.19-0.84,0.54l-1.92,4.2c-0.13,0.3-0.4,0.49-0.72,0.53l-4.59,0.53
			c-0.38,0.04-0.65,0.26-0.77,0.62c-0.11,0.35-0.03,0.7,0.25,0.95l3.4,3.12c0.25,0.23,0.34,0.54,0.28,0.85l-0.92,4.53
			c-0.07,0.37,0.06,0.7,0.36,0.92c0.3,0.22,0.66,0.24,0.99,0.05l4.03-2.27c0.28-0.17,0.61-0.17,0.9,0l4.02,2.27
			c0.33,0.18,0.69,0.17,0.99-0.05c0.3-0.22,0.43-0.55,0.36-0.92L240,76.53c-0.06-0.32,0.04-0.62,0.28-0.85l3.4-3.12
			c0.27-0.25,0.37-0.6,0.25-0.95c-0.11-0.36-0.39-0.59-0.77-0.62l-4.58-0.53c-0.33-0.04-0.59-0.23-0.73-0.53l-1.92-4.2
			C235.78,65.38,235.48,65.18,235.11,65.18L235.11,65.18z"/>
		<path class="st3" d="M173.15,63.14l10.02-10.02c1.53-1.53,4.04-1.53,5.57,0l58.45,58.45c1.53,1.53,1.53,4.04,0,5.57l-26.45,26.45
			c-1.53,1.53-4.04,1.53-5.57,0l-42.02-42.03V63.14z M213.77,95.21c2.3-2.31,6.06-2.3,8.36,0c2.31,2.3,2.31,6.06,0,8.37
			c-2.3,2.3-6.06,2.3-8.37-0.01C211.45,101.27,211.45,97.52,213.77,95.21L213.77,95.21z M190.14,71.59c2.31-2.3,2.3-6.06,0-8.36
			c-2.3-2.31-6.06-2.31-8.36,0c-2.31,2.3-2.31,6.06,0,8.37C184.08,73.9,187.84,73.9,190.14,71.59L190.14,71.59z M190.14,86.55
			c2.31-2.3,2.31-6.06,0-8.36c-2.3-2.31-6.06-2.31-8.37-0.01c-2.3,2.31-2.3,6.07,0,8.37C184.08,88.86,187.84,88.86,190.14,86.55
			L190.14,86.55z M190.14,101.51c2.31-2.3,2.31-6.06,0-8.37c-2.3-2.3-6.06-2.3-8.36,0.01c-2.31,2.3-2.31,6.06,0,8.36
			C184.08,103.82,187.84,103.81,190.14,101.51L190.14,101.51z M188.52,108.92l23.99-23.98c0.79-0.79,2.08-0.79,2.86-0.01
			c0.79,0.79,0.79,2.08,0.01,2.87l-23.99,23.99c-0.79,0.78-2.08,0.78-2.87-0.01C187.73,111,187.74,109.72,188.52,108.92
			L188.52,108.92z M228.72,110.17c2.31-2.3,6.07-2.3,8.37,0c2.31,2.3,2.3,6.06,0,8.36c-2.3,2.31-6.06,2.31-8.37,0.01
			C226.41,116.23,226.41,112.48,228.72,110.17L228.72,110.17z M213.76,125.13c2.31-2.31,6.07-2.31,8.37,0c2.31,2.3,2.31,6.06,0,8.37
			c-2.3,2.3-6.06,2.3-8.36-0.01C211.45,131.19,211.45,127.44,213.76,125.13L213.76,125.13z M213.77,110.17c2.3-2.3,6.06-2.31,8.36,0
			c2.31,2.3,2.31,6.06,0,8.37c-2.3,2.3-6.06,2.3-8.36,0C211.45,116.23,211.45,112.48,213.77,110.17L213.77,110.17z M198.81,110.17
			c2.3-2.3,6.06-2.3,8.37,0c2.3,2.3,2.3,6.06-0.01,8.37c-2.3,2.3-6.06,2.3-8.37-0.01C196.49,116.23,196.5,112.48,198.81,110.17
			L198.81,110.17z M185.92,129.67c-0.26,0-0.46,0.13-0.57,0.37l-1.3,2.87c-0.1,0.2-0.27,0.33-0.5,0.36l-3.13,0.36
			c-0.26,0.03-0.44,0.18-0.52,0.42c-0.08,0.25-0.02,0.48,0.17,0.65l2.33,2.13c0.16,0.16,0.23,0.37,0.18,0.59l-0.62,3.09
			c-0.05,0.25,0.04,0.48,0.25,0.62c0.2,0.15,0.45,0.17,0.67,0.04l2.74-1.56c0.19-0.11,0.42-0.11,0.62,0l2.74,1.56
			c0.22,0.12,0.47,0.11,0.67-0.04c0.21-0.15,0.3-0.38,0.25-0.62l-0.62-3.09c-0.04-0.22,0.03-0.43,0.18-0.59l2.33-2.13
			c0.18-0.17,0.25-0.4,0.17-0.65c-0.08-0.25-0.26-0.4-0.52-0.42l-3.13-0.36c-0.23-0.03-0.4-0.16-0.5-0.36l-1.31-2.87
			C186.38,129.8,186.18,129.67,185.92,129.67L185.92,129.67z M212.32,52.99c-0.18,0-0.32,0.09-0.4,0.26l-0.9,1.96
			c-0.06,0.14-0.18,0.24-0.33,0.26l-2.15,0.25c-0.18,0.02-0.31,0.12-0.36,0.29c-0.05,0.17-0.01,0.33,0.12,0.45l1.59,1.46
			c0.11,0.11,0.16,0.26,0.13,0.4l-0.43,2.12c-0.04,0.17,0.03,0.33,0.17,0.43c0.14,0.11,0.31,0.11,0.46,0.03l1.89-1.06
			c0.13-0.08,0.28-0.08,0.42,0l1.88,1.06c0.15,0.09,0.32,0.08,0.47-0.03c0.14-0.11,0.2-0.26,0.17-0.43l-0.43-2.12
			c-0.04-0.15,0.01-0.3,0.12-0.4l1.6-1.46c0.13-0.12,0.17-0.28,0.11-0.45c-0.05-0.17-0.18-0.27-0.36-0.29l-2.15-0.25
			c-0.16-0.02-0.28-0.11-0.34-0.26l-0.9-1.96C212.64,53.08,212.5,52.99,212.32,52.99L212.32,52.99z M107.73,95.93
			c-0.26,0-0.47,0.13-0.57,0.37l-1.31,2.87c-0.09,0.2-0.27,0.33-0.49,0.36l-3.13,0.36c-0.26,0.03-0.45,0.18-0.53,0.42
			c-0.08,0.25-0.01,0.48,0.18,0.65l2.32,2.14c0.17,0.15,0.24,0.36,0.19,0.58l-0.63,3.09c-0.04,0.26,0.04,0.48,0.25,0.63
			c0.2,0.15,0.45,0.16,0.68,0.04l2.74-1.55c0.19-0.11,0.41-0.11,0.61,0l2.74,1.55c0.23,0.12,0.47,0.11,0.68-0.04
			c0.2-0.16,0.29-0.38,0.25-0.63l-0.63-3.09c-0.04-0.22,0.03-0.43,0.19-0.58l2.32-2.14c0.18-0.17,0.26-0.4,0.18-0.65
			c-0.08-0.24-0.27-0.4-0.53-0.42l-3.13-0.36c-0.22-0.03-0.4-0.16-0.49-0.36l-1.31-2.87C108.19,96.06,107.99,95.93,107.73,95.93
			L107.73,95.93z"/>
	</g>
</g>
<g id="Layer_3">
</g>
<g id="Layer_4">
</g>
<g id="Layer_5">
</g>
<g id="Layer_6">
</g>
<g id="Layer_7">
</g>
<g id="Layer_8">
</g>
<g id="Layer_9">
</g>
<g id="Layer_10">
</g>
<g id="Layer_11">
</g>
<g id="Layer_12">
</g>
<g id="Layer_13">
</g>
<g id="Layer_14">
</g>
<g id="Layer_15">
</g>
</svg>
