<?xml version="1.0" encoding="utf-8"?>
<!-- Generator: Adobe Illustrator 27.8.1, SVG Export Plug-In . SVG Version: 6.00 Build 0)  -->
<svg version="1.1" xmlns="http://www.w3.org/2000/svg" xmlns:xlink="http://www.w3.org/1999/xlink" x="0px" y="0px"
	 viewBox="0 0 350 230" style="enable-background:new 0 0 350 230;" xml:space="preserve">
<style type="text/css">
	.st0{fill:#023883;}
	.st1{fill:#FF0043;}
	.st2{fill-rule:evenodd;clip-rule:evenodd;fill:#00C3FF;}
	.st3{fill-rule:evenodd;clip-rule:evenodd;}
	.st4{fill:#BDD87C;}
	.st5{fill:#FCD35D;}
	.st6{fill:#F77552;}
	.st7{fill:#7BDBC2;}
	.st8{fill:#000077;}
	.st9{fill:#F200FF;}
	.st10{fill:#005B41;}
	.st11{fill:#FFFFFF;}
	.st12{fill:#00422F;}
	.st13{fill:#113500;}
	.st14{fill:#00005B;}
	.st15{fill:#2B0049;}
	.st16{fill:#DA0678;}
	.st17{fill:#4D84DC;}
	.st18{fill:#E58E21;}
	.st19{fill:#51097E;}
	.st20{fill:#6D003E;}
	.st21{fill:#FFCE88;}
	.st22{fill:#00D9FF;}
	.st23{fill:#7616C3;}
	.st24{fill:#004EFD;}
	.st25{fill:#C6C900;}
	.st26{fill:#00D3C7;}
	.st27{fill:#93C900;}
	.st28{fill:#009FFB;}
	.st29{fill:#710B0A;}
	.st30{fill:#FFD700;}
	.st31{fill:#7F0C06;}
	.st32{fill:#00FFE9;}
	.st33{fill:#FF0000;}
	.st34{fill:#B96508;}
	.st35{fill:#006E60;}
</style>
<g id="Layer_1">
</g>
<g id="Layer_2">
</g>
<g id="Layer_3">
</g>
<g id="Layer_4">
</g>
<g id="Layer_5">
	<g>
		<g>
			<g>
				<path class="st4" d="M200.65,106.94c0,2.94-2.39,5.33-5.33,5.33c-2.95,0-5.33-2.39-5.33-5.33c0-2.94,2.38-5.33,5.33-5.33
					C198.27,101.61,200.65,104,200.65,106.94z"/>
				<path class="st12" d="M150.97,61.29h47.68v27.85h-47.68V61.29z M183.79,123.8c-2.94,0-5.33-2.38-5.33-5.33
					c0-2.94,2.39-5.33,5.33-5.33c2.94,0,5.33,2.39,5.33,5.33C189.12,121.42,186.73,123.8,183.79,123.8z"/>
				<path class="st5" d="M170.38,108.67h-5.76v-5.76c0-1.79-1.37-3.14-3.19-3.14s-3.19,1.35-3.19,3.14v5.76h-5.76
					c-1.79,0-3.14,1.37-3.14,3.19c0,1.82,1.35,3.19,3.14,3.19h5.76v5.76c0,1.79,1.37,3.14,3.19,3.14s3.19-1.35,3.19-3.14v-5.76h5.76
					c1.79,0,3.13-1.37,3.13-3.19C173.51,110.04,172.17,108.67,170.38,108.67z"/>
			</g>
			<path class="st12" d="M152.65,48.77c3.36,0,3.36-5.22,0-5.22c-4.41,0-8.81,0-13.22,0c-1.42,0-2.61,1.19-2.61,2.61c0,32,0,64,0,96
				c0,1.42,1.19,2.61,2.61,2.61c4.41,0,8.81,0,13.22,0c3.36,0,3.36-5.22,0-5.22c-3.54,0-7.07,0-10.61,0c0-30.26,0-60.52,0-90.79
				C145.58,48.77,149.12,48.77,152.65,48.77z M210.57,43.55c-4.41,0-8.81,0-13.22,0c-3.36,0-3.36,5.22,0,5.22c3.54,0,7.07,0,10.61,0
				c0,30.26,0,60.52,0,90.79c-3.54,0-7.07,0-10.61,0c-3.36,0-3.36,5.22,0,5.22c4.41,0,8.81,0,13.22,0c1.42,0,2.61-1.19,2.61-2.61
				c0-32,0-64,0-96C213.17,44.73,211.99,43.55,210.57,43.55z"/>
		</g>
	</g>
</g>
<g id="Layer_6">
</g>
<g id="Layer_7">
</g>
<g id="Layer_8">
</g>
<g id="Layer_9">
</g>
<g id="Layer_10">
</g>
<g id="Layer_11">
</g>
<g id="Layer_12">
</g>
<g id="Layer_13">
</g>
<g id="Layer_14">
</g>
<g id="Layer_15">
</g>
</svg>
