<?xml version="1.0" encoding="utf-8"?>
<!-- Generator: Adobe Illustrator 27.8.1, SVG Export Plug-In . SVG Version: 6.00 Build 0)  -->
<svg version="1.1" xmlns="http://www.w3.org/2000/svg" xmlns:xlink="http://www.w3.org/1999/xlink" x="0px" y="0px"
	 viewBox="0 0 350 230" style="enable-background:new 0 0 350 230;" xml:space="preserve">
<style type="text/css">
	.st0{fill:#023883;}
	.st1{fill:#FF0043;}
	.st2{fill-rule:evenodd;clip-rule:evenodd;fill:#00C3FF;}
	.st3{fill-rule:evenodd;clip-rule:evenodd;}
	.st4{fill:#BDD87C;}
	.st5{fill:#FCD35D;}
	.st6{fill:#F77552;}
	.st7{fill:#7BDBC2;}
	.st8{fill:#000077;}
	.st9{fill:#F200FF;}
	.st10{fill:#005B41;}
	.st11{fill:#FFFFFF;}
	.st12{fill:#00422F;}
	.st13{fill:#113500;}
	.st14{fill:#00005B;}
	.st15{fill:#2B0049;}
	.st16{fill:#DA0678;}
	.st17{fill:#4D84DC;}
	.st18{fill:#E58E21;}
	.st19{fill:#51097E;}
	.st20{fill:#6D003E;}
	.st21{fill:#FFCE88;}
	.st22{fill:#00D9FF;}
	.st23{fill:#7616C3;}
	.st24{fill:#004EFD;}
	.st25{fill:#C6C900;}
	.st26{fill:#00D3C7;}
	.st27{fill:#93C900;}
	.st28{fill:#009FFB;}
	.st29{fill:#710B0A;}
	.st30{fill:#FFD700;}
	.st31{fill:#7F0C06;}
	.st32{fill:#00FFE9;}
	.st33{fill:#FF0000;}
	.st34{fill:#B96508;}
	.st35{fill:#006E60;}
</style>
<g id="Layer_1">
	<g>
		<path class="st0" d="M142.23,76.95c-0.63-6.37-0.26-7.04,4.27-7.89c7.43,23.37,14.87,46.76,22.37,70.37
			c16.95-5.39,33.81-10.74,50.66-16.09c1.47,3-0.48,6.94-4.02,8.16c-4.62,1.61-9.27,3.15-13.91,4.73
			c-10.65,3.61-21.28,7.25-31.95,10.79c-1.1,0.37-2.44,0.43-3.57,0.18c-0.92-0.2-2.07-0.91-2.45-1.7c-0.7-1.49-1.75-1.52-3.07-1.53
			c-3.08,0-6.17-0.1-9.25-0.16c-2.11-0.05-3.31-1.13-3.31-2.96c0-1.83,1.23-2.95,3.31-2.97c2.4-0.02,4.81,0,7.21-0.01
			c2.17-0.01,3.56-1.21,3.61-3.05c0.04-1.86-1.41-3.17-3.63-3.17c-5.44-0.02-10.89-0.01-16.33-0.01c-2.7,0-4.06-0.96-4.11-2.89
			c-0.05-1.97,1.39-3.05,4.11-3.05c3.67,0,7.35,0,11.02,0c1.9,0,2.92-0.97,3.03-2.87c0.1-1.69-1.09-3.12-2.76-3.3
			c-0.45-0.05-0.91-0.03-1.36-0.03c-6.22,0-12.43,0-18.65-0.01c-1.84,0-3.04-0.88-3.35-2.38c-0.4-1.96,1-3.54,3.22-3.55
			c5.76-0.02,11.52-0.01,17.29-0.01c0.32,0,0.64,0.02,0.95,0c1.89-0.12,3.25-1.48,3.22-3.19c-0.04-1.75-1.4-3.04-3.33-3.05
			c-3.63-0.03-7.26,0-10.89-0.02c-1.71-0.01-2.9-0.98-3.11-2.45c-0.28-1.88,0.98-3.41,2.92-3.45c2.45-0.05,4.9,0,7.35-0.02
			c2.19-0.01,3.65-1.32,3.62-3.19c-0.03-1.85-1.41-3.08-3.58-3.08c-8.39-0.02-16.79,0-25.18-0.01c-1.95,0-3.14-0.89-3.38-2.46
			c-0.29-1.95,1.06-3.43,3.23-3.45c3.13-0.03,6.26-0.01,9.39-0.01c4.17,0,8.35,0.01,12.52,0c2.1-0.01,3.5-1.31,3.47-3.17
			c-0.04-1.8-1.39-3.01-3.47-3.02c-3.4-0.02-6.81,0-10.21-0.01c-0.45,0-0.91,0.01-1.36-0.05c-1.67-0.23-2.73-1.46-2.67-3.06
			c0.06-1.59,1.23-2.76,2.93-2.79c2.54-0.05,5.08-0.01,7.62-0.02C141.18,77.03,141.7,76.98,142.23,76.95z M174.37,133.37
			c11.79-3.75,23.59-7.5,35.38-11.25c6.44-2.05,12.87-4.09,19.31-6.13c1.74-0.55,2.1-1.23,1.56-2.93c-0.22-0.69-0.45-1.38-0.67-2.07
			c-7.3-22.98-14.59-45.97-21.89-68.95c-0.62-1.95-1.18-2.24-3.11-1.63c-18.32,5.82-36.64,11.64-54.95,17.46
			c-2.06,0.66-2.34,1.22-1.68,3.31c5.18,16.29,10.35,32.57,15.53,48.86c2.33,7.34,4.68,14.68,7,22.03c0.3,0.93,0.68,1.69,2.01,1.72
			C173.24,133.69,173.81,133.55,174.37,133.37z M227.03,113.04c-17.77,5.65-35.46,11.27-53.27,16.93
			c-7.33-23.07-14.62-46.03-21.95-69.09c17.76-5.65,35.41-11.26,53.26-16.93C212.42,67.06,219.71,89.98,227.03,113.04z
			 M128.07,107.31c0.59,0,1.18,0.06,1.76-0.01c1.44-0.18,2.44-1.3,2.52-2.75c0.07-1.37-0.75-2.73-2.11-2.92
			c-1.41-0.2-2.89-0.2-4.29,0.02c-1.34,0.2-2.17,1.62-2.08,2.95c0.11,1.44,1.14,2.55,2.57,2.72
			C126.98,107.37,127.53,107.32,128.07,107.31C128.07,107.31,128.07,107.31,128.07,107.31z M140.36,143.79
			c1.73-0.09,2.93-1.28,2.95-2.92c0.02-1.54-1.15-2.84-2.77-2.97c-1.03-0.08-2.09-0.09-3.12,0.01c-1.52,0.15-2.65,1.5-2.61,2.98
			c0.03,1.58,1.22,2.8,2.83,2.9c0.45,0.03,0.9,0,1.36,0C139.45,143.8,139.91,143.82,140.36,143.79z M131.35,131.6
			c1.58-0.2,2.58-1.37,2.58-2.96c0-1.49-1.01-2.7-2.53-2.85c-1.16-0.11-2.35-0.11-3.51,0.03c-1.49,0.18-2.45,1.48-2.4,2.98
			c0.05,1.42,1.05,2.56,2.48,2.78c0.58,0.09,1.17,0.08,1.67,0.1C130.27,131.65,130.82,131.66,131.35,131.6z"/>
		<path class="st1" d="M185.11,73.37c2.67,2.32,5.16,4.48,7.65,6.65c1.4,1.22,2.84,2.41,4.19,3.68c0.33,0.31,0.64,0.95,0.55,1.35
			c-1.18,5.03-2.43,10.04-3.67,15.05c-0.02,0.08-0.09,0.16-0.2,0.34c-2.2-1.9-4.39-3.79-6.57-5.68c-1.75-1.52-3.5-3.02-5.21-4.58
			c-0.31-0.28-0.61-0.87-0.52-1.22C182.53,83.85,183.79,78.75,185.11,73.37z M182.37,114.53c0.07-0.29-0.03-0.77-0.23-0.95
			c-1.94-1.76-3.91-3.48-6.06-5.36c-0.67,2.77-1.3,5.31-1.88,7.86c-0.06,0.28,0.09,0.75,0.3,0.94c1.92,1.72,3.88,3.39,6.05,5.27
			C181.21,119.54,181.81,117.04,182.37,114.53z M196.38,59.59c-0.05,0.21,0.06,0.56,0.22,0.71c1.98,1.76,3.99,3.5,6.17,5.4
			c0.68-2.8,1.31-5.38,1.91-7.97c0.05-0.22-0.05-0.57-0.21-0.71c-1.98-1.76-3.99-3.49-6.15-5.37
			C197.63,54.45,196.98,57.02,196.38,59.59z"/>
	</g>
</g>
<g id="Layer_2">
</g>
<g id="Layer_3">
</g>
<g id="Layer_4">
</g>
<g id="Layer_5">
</g>
<g id="Layer_6">
</g>
<g id="Layer_7">
</g>
<g id="Layer_8">
</g>
<g id="Layer_9">
</g>
<g id="Layer_10">
</g>
<g id="Layer_11">
</g>
<g id="Layer_12">
</g>
<g id="Layer_13">
</g>
<g id="Layer_14">
</g>
<g id="Layer_15">
</g>
</svg>
