<?xml version="1.0" encoding="utf-8"?>
<!-- Generator: Adobe Illustrator 27.8.1, SVG Export Plug-In . SVG Version: 6.00 Build 0)  -->
<svg version="1.1" xmlns="http://www.w3.org/2000/svg" xmlns:xlink="http://www.w3.org/1999/xlink" x="0px" y="0px"
	 viewBox="0 0 350 230" style="enable-background:new 0 0 350 230;" xml:space="preserve">
<style type="text/css">
	.st0{fill:#023883;}
	.st1{fill:#FF0043;}
	.st2{fill-rule:evenodd;clip-rule:evenodd;fill:#00C3FF;}
	.st3{fill-rule:evenodd;clip-rule:evenodd;}
	.st4{fill:#BDD87C;}
	.st5{fill:#FCD35D;}
	.st6{fill:#F77552;}
	.st7{fill:#7BDBC2;}
	.st8{fill:#000077;}
	.st9{fill:#F200FF;}
	.st10{fill:#005B41;}
	.st11{fill:#FFFFFF;}
	.st12{fill:#00422F;}
	.st13{fill:#113500;}
	.st14{fill:#00005B;}
	.st15{fill:#2B0049;}
	.st16{fill:#DA0678;}
	.st17{fill:#4D84DC;}
	.st18{fill:#E58E21;}
	.st19{fill:#51097E;}
	.st20{fill:#6D003E;}
	.st21{fill:#FFCE88;}
	.st22{fill:#00D9FF;}
	.st23{fill:#7616C3;}
	.st24{fill:#004EFD;}
	.st25{fill:#C6C900;}
	.st26{fill:#00D3C7;}
	.st27{fill:#93C900;}
	.st28{fill:#009FFB;}
	.st29{fill:#710B0A;}
	.st30{fill:#FFD700;}
	.st31{fill:#7F0C06;}
	.st32{fill:#00FFE9;}
	.st33{fill:#FF0000;}
	.st34{fill:#B96508;}
	.st35{fill:#006E60;}
</style>
<g id="Layer_1">
</g>
<g id="Layer_2">
</g>
<g id="Layer_3">
</g>
<g id="Layer_4">
	<path class="st9" d="M139.74,75.56c-11.92,0-21.59,9.67-21.59,21.59c0,11.93,9.67,21.6,21.59,21.6c2.62,0,5.14-0.47,7.46-1.33
		c1.68-0.61,3.25-1.43,4.7-2.42c2.38-1.62,4.41-3.69,5.96-6.11c0.97-1.47,1.75-3.07,2.32-4.77c0.75-2.18,1.16-4.53,1.16-6.97
		C161.34,85.23,151.67,75.56,139.74,75.56z M143.52,102.45v3.49c0,0.84-0.68,1.52-1.52,1.52h-4.51c-0.84,0-1.52-0.68-1.52-1.52
		v-3.49c0-0.84-0.68-1.52-1.52-1.52h-3.5c-0.83,0-1.52-0.68-1.52-1.52V94.9c0-0.84,0.69-1.52,1.52-1.52h3.5
		c0.84,0,1.52-0.68,1.52-1.52v-3.5c0-0.83,0.68-1.51,1.52-1.51H142c0.84,0,1.52,0.68,1.52,1.51v3.5c0,0.84,0.68,1.52,1.52,1.52h3.5
		c0.83,0,1.51,0.68,1.51,1.52v4.51c0,0.83-0.68,1.52-1.51,1.52h-3.5C144.2,100.93,143.52,101.61,143.52,102.45z M210.25,75.56
		c-11.92,0-21.59,9.67-21.59,21.59c0,2.44,0.41,4.79,1.16,6.97c0.57,1.7,1.35,3.3,2.32,4.77c1.55,2.42,3.58,4.49,5.95,6.11
		c1.45,0.99,3.03,1.81,4.71,2.43c2.32,0.85,4.83,1.32,7.45,1.32c11.93,0,21.6-9.67,21.6-21.6
		C231.85,85.23,222.18,75.56,210.25,75.56z M203.29,100.37c-1.78,0-3.23-1.44-3.23-3.22s1.45-3.22,3.23-3.22
		c1.77,0,3.22,1.44,3.22,3.22S205.06,100.37,203.29,100.37z M210.25,107.34c-1.77,0-3.21-1.44-3.21-3.22c0-1.77,1.43-3.22,3.21-3.22
		s3.23,1.45,3.23,3.22C213.48,105.9,212.03,107.34,210.25,107.34z M210.25,93.41c-1.77,0-3.21-1.45-3.21-3.22
		c0-1.78,1.43-3.23,3.21-3.23c1.78,0.01,3.23,1.45,3.23,3.23C213.48,91.96,212.03,93.41,210.25,93.41z M217.23,100.37
		c-1.79,0-3.23-1.44-3.23-3.22s1.44-3.22,3.23-3.22c1.77,0,3.21,1.44,3.21,3.22S219,100.37,217.23,100.37z"/>
	<path class="st10" d="M210.69,67.3c-9.45,0-18.29,4.53-23.84,12.15h-23.7c-5.55-7.62-14.39-12.15-23.84-12.15
		c-16.25,0-29.47,13.22-29.47,29.47s13.22,29.47,29.47,29.47c4.52,0,8.9-1.02,12.88-2.96c2.24-1.09,4.34-2.47,6.27-4.13
		c0.01,0,0.01-0.01,0.01-0.01c0.21-0.16,0.42-0.35,0.62-0.53h31.82c0.2,0.18,0.41,0.36,0.61,0.53c1.93,1.66,4.05,3.05,6.29,4.14
		c3.97,1.94,8.36,2.96,12.88,2.96c16.25,0,29.47-13.22,29.47-29.47S226.94,67.3,210.69,67.3z M210.69,122.99
		c-3.47,0-6.86-0.68-9.99-1.97c-1.68-0.7-3.29-1.57-4.8-2.61c-1.14-0.77-2.22-1.64-3.23-2.6l-0.47-0.45h-34.4l-0.47,0.45
		c-1.02,0.96-2.1,1.83-3.23,2.61c-1.51,1.04-3.12,1.91-4.8,2.6c-3.13,1.29-6.52,1.97-9.99,1.97c-14.46,0-26.22-11.76-26.22-26.22
		s11.76-26.22,26.22-26.22c8.66,0,16.76,4.28,21.66,11.44l0.48,0.71h27.1l0.48-0.71c4.9-7.16,13-11.44,21.66-11.44
		c14.46,0,26.22,11.76,26.22,26.22S225.15,122.99,210.69,122.99z M160.18,104.12c-0.98-0.31-2.02-0.47-3.1-0.47
		c-5.76,0-10.43,4.67-10.43,10.43c0,1.17,0.19,2.29,0.55,3.34c0.45,1.35,1.17,2.57,2.1,3.6c0.82,0.92,1.79,1.68,2.89,2.26
		c1.46,0.78,3.12,1.22,4.89,1.22c4.13,0,7.7-2.4,9.38-5.89c0.49-1,0.82-2.1,0.96-3.25c0.05-0.42,0.08-0.85,0.08-1.28
		C167.5,109.4,164.42,105.44,160.18,104.12z M192.92,103.65c-1.08,0-2.12,0.16-3.1,0.47c-4.24,1.32-7.32,5.28-7.32,9.96
		c0,0.43,0.03,0.86,0.08,1.28h9.62l0.47,0.45c1.01,0.96,2.09,1.83,3.23,2.6c1.51,1.04,3.12,1.91,4.8,2.61
		c0.93-1.03,1.65-2.25,2.1-3.59c0.36-1.05,0.55-2.18,0.55-3.35C203.35,108.32,198.68,103.65,192.92,103.65z M192.92,103.65
		c-1.08,0-2.12,0.16-3.1,0.47c-4.24,1.32-7.32,5.28-7.32,9.96c0,0.43,0.03,0.86,0.08,1.28h9.62l0.47,0.45
		c1.01,0.96,2.09,1.83,3.23,2.6c1.51,1.04,3.12,1.91,4.8,2.61c0.93-1.03,1.65-2.25,2.1-3.59c0.36-1.05,0.55-2.18,0.55-3.35
		C203.35,108.32,198.68,103.65,192.92,103.65z M191.52,119.14c-0.2-0.17-0.41-0.35-0.61-0.53h-7.38c1.69,3.49,5.25,5.89,9.39,5.89
		c1.77,0,3.43-0.44,4.89-1.22C195.57,122.19,193.45,120.8,191.52,119.14z M192.92,103.65c-1.08,0-2.12,0.16-3.1,0.47
		c-4.24,1.32-7.32,5.28-7.32,9.96c0,0.43,0.03,0.86,0.08,1.28h9.62l0.47,0.45c1.01,0.96,2.09,1.83,3.23,2.6
		c1.51,1.04,3.12,1.91,4.8,2.61c0.93-1.03,1.65-2.25,2.1-3.59c0.36-1.05,0.55-2.18,0.55-3.35
		C203.35,108.32,198.68,103.65,192.92,103.65z"/>
	<path class="st11" d="M162.34,114.08c0,2.9-2.36,5.26-5.26,5.26c-2.91,0-5.26-2.35-5.26-5.26c0-2.9,2.36-5.26,5.26-5.26
		C159.98,108.82,162.34,111.18,162.34,114.08z M187.66,114.08c0,2.9,2.36,5.26,5.26,5.26c2.91,0,5.26-2.35,5.26-5.26
		c0-2.9-2.36-5.26-5.26-5.26C190.02,108.82,187.66,111.18,187.66,114.08z"/>
</g>
<g id="Layer_5">
</g>
<g id="Layer_6">
</g>
<g id="Layer_7">
</g>
<g id="Layer_8">
</g>
<g id="Layer_9">
</g>
<g id="Layer_10">
</g>
<g id="Layer_11">
</g>
<g id="Layer_12">
</g>
<g id="Layer_13">
</g>
<g id="Layer_14">
</g>
<g id="Layer_15">
</g>
</svg>
