<?xml version="1.0" encoding="utf-8"?>
<!-- Generator: Adobe Illustrator 27.8.1, SVG Export Plug-In . SVG Version: 6.00 Build 0)  -->
<svg version="1.1" xmlns="http://www.w3.org/2000/svg" xmlns:xlink="http://www.w3.org/1999/xlink" x="0px" y="0px"
	 viewBox="0 0 350 230" style="enable-background:new 0 0 350 230;" xml:space="preserve">
<style type="text/css">
	.st0{fill:#023883;}
	.st1{fill:#FF0043;}
	.st2{fill-rule:evenodd;clip-rule:evenodd;fill:#00C3FF;}
	.st3{fill-rule:evenodd;clip-rule:evenodd;}
	.st4{fill:#BDD87C;}
	.st5{fill:#FCD35D;}
	.st6{fill:#F77552;}
	.st7{fill:#7BDBC2;}
	.st8{fill:#000077;}
	.st9{fill:#F200FF;}
	.st10{fill:#005B41;}
	.st11{fill:#FFFFFF;}
	.st12{fill:#00422F;}
	.st13{fill:#113500;}
	.st14{fill:#00005B;}
	.st15{fill:#2B0049;}
	.st16{fill:#DA0678;}
	.st17{fill:#4D84DC;}
	.st18{fill:#E58E21;}
	.st19{fill:#51097E;}
	.st20{fill:#6D003E;}
	.st21{fill:#FFCE88;}
	.st22{fill:#00D9FF;}
	.st23{fill:#7616C3;}
	.st24{fill:#004EFD;}
	.st25{fill:#C6C900;}
	.st26{fill:#00D3C7;}
	.st27{fill:#93C900;}
	.st28{fill:#009FFB;}
	.st29{fill:#710B0A;}
	.st30{fill:#FFD700;}
	.st31{fill:#7F0C06;}
	.st32{fill:#00FFE9;}
	.st33{fill:#FF0000;}
	.st34{fill:#B96508;}
	.st35{fill:#006E60;}
</style>
<g id="Layer_1">
</g>
<g id="Layer_2">
</g>
<g id="Layer_3">
</g>
<g id="Layer_4">
</g>
<g id="Layer_5">
</g>
<g id="Layer_6">
</g>
<g id="Layer_7">
</g>
<g id="Layer_8">
</g>
<g id="Layer_9">
	<g>
		<path class="st24" d="M198.9,122.89c1.06,14.52-10.22,26.08-23.74,26.14c-12.81,0.06-24.98-10.89-23.9-26.14
			c-0.88,0-1.76,0.03-2.63-0.01c-10.29-0.47-17.8-5.32-21.69-14.84c-3.85-9.42-2.03-18.29,4.98-25.58
			c10.79-11.21,21.96-22.07,32.96-33.07c0.09-0.09,0.21-0.16,0.26-0.19c2.45,2.49,4.89,4.95,7.35,7.45
			c-5.26,5.19-10.68,10.55-16.01,15.81c6.44,6.42,12.6,12.55,18.69,18.62c5.97-5.96,12.09-12.08,18.34-18.32
			c-5.37-5.29-10.8-10.64-16.16-15.92c2.66-2.68,5.11-5.15,7.62-7.67c0.17,0.15,0.45,0.35,0.69,0.6
			c10.72,10.72,21.47,21.42,32.16,32.18c5.54,5.58,8.03,12.35,6.98,20.17c-1.67,12.43-11.82,20.98-24.36,20.77
			C199.97,122.88,199.49,122.89,198.9,122.89z M182.68,99.22c3.08,3.04,6.1,6.03,9.13,9c5.32,5.23,13.62,5.25,18.82,0.05
			c5.07-5.08,4.99-13.31-0.21-18.6c-2.35-2.39-4.76-4.73-7.1-7.13c-0.65-0.67-1.19-1.45-1.74-2.13
			C195.14,86.82,189,92.93,182.68,99.22z M148.7,80.58c-2.63,2.68-5.33,5.41-8.01,8.15c-0.72,0.73-1.47,1.44-2.1,2.25
			c-4.04,5.25-3.5,13.02,1.17,17.51c4.73,4.54,12.66,4.97,17.52,0.65c3.5-3.11,6.67-6.59,9.98-9.91c0.05-0.05,0.03-0.16,0.01-0.03
			C161.07,92.98,154.96,86.86,148.7,80.58z M174.99,107.01c-3.28,3.21-6.9,6.32-9.97,9.89c-3.53,4.1-4.18,8.99-1.74,13.91
			c2.48,5,6.71,7.73,12.31,7.5c5.41-0.22,9.38-3.12,11.57-8.07c2.13-4.84,1.26-9.53-2.12-13.41
			C181.96,113.31,178.35,110.26,174.99,107.01z"/>
		<path class="st25" d="M182.33,46.84c-2.36,2.36-4.85,4.84-7.31,7.3c-2.41-2.42-4.88-4.91-7.31-7.35c2.44-2.43,4.92-4.91,7.36-7.34
			C177.43,41.87,179.89,44.37,182.33,46.84z"/>
	</g>
</g>
<g id="Layer_10">
</g>
<g id="Layer_11">
</g>
<g id="Layer_12">
</g>
<g id="Layer_13">
</g>
<g id="Layer_14">
</g>
<g id="Layer_15">
</g>
</svg>
