<?xml version="1.0" encoding="utf-8"?>
<!-- Generator: Adobe Illustrator 27.8.1, SVG Export Plug-In . SVG Version: 6.00 Build 0)  -->
<svg version="1.1" xmlns="http://www.w3.org/2000/svg" xmlns:xlink="http://www.w3.org/1999/xlink" x="0px" y="0px"
	 viewBox="0 0 350 230" style="enable-background:new 0 0 350 230;" xml:space="preserve">
<style type="text/css">
	.st0{fill:#023883;}
	.st1{fill:#FF0043;}
	.st2{fill-rule:evenodd;clip-rule:evenodd;fill:#00C3FF;}
	.st3{fill-rule:evenodd;clip-rule:evenodd;}
	.st4{fill:#BDD87C;}
	.st5{fill:#FCD35D;}
	.st6{fill:#F77552;}
	.st7{fill:#7BDBC2;}
	.st8{fill:#000077;}
	.st9{fill:#F200FF;}
	.st10{fill:#005B41;}
	.st11{fill:#FFFFFF;}
	.st12{fill:#00422F;}
	.st13{fill:#113500;}
	.st14{fill:#00005B;}
	.st15{fill:#2B0049;}
	.st16{fill:#DA0678;}
	.st17{fill:#4D84DC;}
	.st18{fill:#E58E21;}
	.st19{fill:#51097E;}
	.st20{fill:#6D003E;}
	.st21{fill:#FFCE88;}
	.st22{fill:#00D9FF;}
	.st23{fill:#7616C3;}
	.st24{fill:#004EFD;}
	.st25{fill:#C6C900;}
	.st26{fill:#00D3C7;}
	.st27{fill:#93C900;}
	.st28{fill:#009FFB;}
	.st29{fill:#710B0A;}
	.st30{fill:#FFD700;}
	.st31{fill:#7F0C06;}
	.st32{fill:#00FFE9;}
	.st33{fill:#FF0000;}
	.st34{fill:#B96508;}
	.st35{fill:#006E60;}
</style>
<g id="Layer_1">
</g>
<g id="Layer_2">
</g>
<g id="Layer_3">
</g>
<g id="Layer_4">
</g>
<g id="Layer_5">
</g>
<g id="Layer_6">
</g>
<g id="Layer_7">
</g>
<g id="Layer_8">
</g>
<g id="Layer_9">
</g>
<g id="Layer_10">
</g>
<g id="Layer_11">
	<g>
		<path class="st27" d="M128.45,67.69c0,5.53,0.05,11.05-0.06,16.57c-0.01,0.68-0.77,1.5-1.4,1.98c-6.09,4.71-8.44,11.93-6.11,19
			c2.28,6.9,8.74,11.59,15.98,11.59c7.31,0,13.76-4.56,16.13-11.41c2.39-6.93,0.01-14.41-5.89-19.13c-0.86-0.69-1.58-2.08-1.62-3.17
			c-0.17-5.15-0.07-10.31-0.07-15.49c13.82,1,26.06,18.12,25.22,34.77c-0.9,17.88-16.5,31.69-35.28,31.22
			c-17.62-0.44-32.09-15.54-32.24-33.63C102.98,84.92,116.09,68.05,128.45,67.69z"/>
		<path class="st28" d="M167.1,129.48c13.34-19.94,26.5-39.62,39.88-59.62c13.35,19.94,26.52,39.62,39.91,59.62
			C220.25,129.48,193.95,129.48,167.1,129.48z M215.39,112.74c-2.94-4.38-5.58-8.32-8.4-12.52c-2.85,4.28-5.47,8.22-8.33,12.52
			C204.41,112.74,209.55,112.74,215.39,112.74z"/>
	</g>
</g>
<g id="Layer_12">
</g>
<g id="Layer_13">
</g>
<g id="Layer_14">
</g>
<g id="Layer_15">
</g>
</svg>
