<?xml version="1.0" encoding="utf-8"?>
<!-- Generator: Adobe Illustrator 27.8.1, SVG Export Plug-In . SVG Version: 6.00 Build 0)  -->
<svg version="1.1" xmlns="http://www.w3.org/2000/svg" xmlns:xlink="http://www.w3.org/1999/xlink" x="0px" y="0px"
	 viewBox="0 0 350 230" style="enable-background:new 0 0 350 230;" xml:space="preserve">
<style type="text/css">
	.st0{fill:#783232;}
	.st1{fill:#00E9FF;}
	.st2{fill:#0C1E8C;}
	.st3{fill:#FFC100;}
	.st4{fill:#0C6C00;}
	.st5{fill:#23605B;}
	.st6{fill:#FF7E30;}
	.st7{fill:#00D7FD;}
	.st8{fill:#5C00A2;}
	.st9{fill-rule:evenodd;clip-rule:evenodd;}
	.st10{fill:#20B700;}
	.st11{fill:none;}
	.st12{fill:#FFFFFF;}
	.st13{fill:#B000AB;}
	.st14{fill:#FA9720;}
	.st15{fill:#DA1300;}
	.st16{fill:#00F2FF;}
	.st17{fill:#00416A;}
	.st18{fill:#00FFE9;}
	.st19{fill:#017F2E;}
	.st20{fill:#0D302D;}
	.st21{fill:#00FFF2;}
	.st22{fill:#003CAC;}
	.st23{fill:#396D7A;}
	.st24{fill:#440044;}
	.st25{fill:#003D36;}
	.st26{fill:#00B6BF;}
	.st27{fill:#CBA400;}
</style>
<g id="Layer_1">
</g>
<g id="Layer_2">
</g>
<g id="Layer_3">
</g>
<g id="Layer_4">
</g>
<g id="Layer_5">
</g>
<g id="Layer_6">
</g>
<g id="Layer_7">
</g>
<g id="Layer_8">
</g>
<g id="Layer_9">
</g>
<g id="Layer_10">
</g>
<g id="Layer_11">
</g>
<g id="Layer_12">
</g>
<g id="Layer_13">
</g>
<g id="Layer_14">
</g>
<g id="Layer_15">
	<g>
		<path class="st27" d="M161.95,94.12c0-2.69,0-5.25,0-7.87c2.87,0,5.56,0,8.4,0c0,2,0,3.99,0,5.97c0.09,0.04,0.18,0.09,0.26,0.13
			c12.33-11.07,24.65-22.15,37.07-33.3c3.93,5.24,7.81,10.43,11.78,15.73c-0.9,0.68-1.75,1.32-2.69,2.03
			c-3.05-4.1-6.07-8.15-9.22-12.38c-13.45,18.23-26.82,36.36-40.26,54.57c-12.23-9.13-24.38-18.21-36.6-27.34
			c-1.51,1.58-2.97,3.1-4.42,4.64c-10.12,10.69-20.25,21.39-30.35,32.09c-0.47,0.5-0.94,0.72-1.62,0.7
			c-1.3-0.05-2.61-0.01-4.18-0.01c1.19-1.28,2.19-2.37,3.21-3.44c6.19-6.58,12.38-13.14,18.54-19.74c0.33-0.36,0.55-0.97,0.55-1.47
			c0.05-3.23,0.02-6.46,0.02-9.85c1.64,0,3.22-0.02,4.8,0.04c0.16,0.01,0.43,0.49,0.44,0.77c0.06,0.97,0.02,1.94,0.03,2.92
			c0,0.33,0.04,0.66,0.09,1.27c1.64-1.73,3.1-3.25,4.54-4.79c2.17-2.3,4.35-4.59,6.48-6.92c0.52-0.56,1-0.68,1.74-0.52
			c10,2.2,20.01,4.37,30.01,6.54C160.93,93.95,161.31,94,161.95,94.12z"/>
		<path class="st27" d="M214.38,78.54c-0.92,0.69-1.74,1.31-2.63,1.98c-1.38-1.87-2.72-3.68-4.2-5.68
			c-13.34,18.1-26.59,36.08-39.9,54.14c-12.28-9.17-24.49-18.29-36.77-27.46c-1.42,1.49-2.81,2.94-4.18,4.4
			c-6.98,7.4-13.97,14.8-20.93,22.23c-0.59,0.63-1.18,0.97-2.07,0.9c-1-0.08-2.01-0.02-3.32-0.02
			c10.12-10.73,20.08-21.29,30.1-31.91c1.48,1.1,2.9,2.15,4.31,3.2c10.46,7.81,20.92,15.63,31.37,23.46
			c0.61,0.46,0.91,0.45,1.39-0.19c13.09-17.79,26.2-35.56,39.31-53.33c0.2-0.27,0.41-0.54,0.7-0.91
			C209.83,72.42,212.06,75.42,214.38,78.54z"/>
		<path class="st27" d="M226.47,96.38c0.85-0.65,1.59-1.22,2.45-1.88c-0.79-1.09-1.55-2.15-2.41-3.32c2.57-1.94,5.14-3.86,7.8-5.87
			c-1.28-1.71-2.52-3.36-3.8-5.08c-0.75,0.58-1.4,1.07-2.09,1.6c0.61,1.03,1.17,1.98,1.77,3.01c-5.03,3.79-10.02,7.54-15.1,11.36
			c-1.91-1.89-3.62-3.87-4.71-6.31c-0.1-0.23,0.07-0.76,0.29-0.92c4.59-3.49,9.2-6.95,13.83-10.38c0.22-0.17,0.79-0.13,1.03,0.04
			c0.72,0.53,1.36,1.18,2.15,1.89c0.91-0.66,1.96-1.43,3.15-2.29c1.82,2.43,3.64,4.86,5.51,7.36c-2.63,1.97-5.18,3.89-7.83,5.87
			c0.54,0.74,1.04,1.42,1.59,2.17c0.79-0.57,1.51-1.09,2.29-1.66c9.14,12.33,18.23,24.6,27.49,37.08c-1.11,0-1.99,0-2.87,0
			c-1.77,0-3.54-0.04-5.31,0.02c-0.75,0.02-1.19-0.23-1.63-0.82c-7.37-9.97-14.76-19.93-22.14-29.89
			C227.47,97.73,227,97.09,226.47,96.38z"/>
		<path class="st27" d="M143.48,79.42c1.56-2.48,3.56-4.54,5.83-6.33c1.06-0.84,2.19-1.59,3.32-2.33c1.99-1.3,4.19-2.01,6.58-2.03
			c2.74-0.02,5.49-0.04,8.23,0c1.25,0.02,2.32,0.4,2.66,1.85c0.06,0.27,0.58,0.56,0.91,0.6c0.75,0.09,1.52,0.01,2.29,0.04
			c0.78,0.03,1.36-0.23,1.65-0.99c0.36-0.94,1.09-1.32,2.03-1.33c1.28-0.02,2.57-0.03,3.85,0.03c1.15,0.05,1.87,0.78,1.88,1.94
			c0.02,2.6-0.01,5.21-0.03,7.81c-0.01,0.97-0.49,1.46-1.49,1.47c-1.39,0.01-2.78,0.03-4.17,0.07c-0.93,0.03-1.47-0.35-1.73-1.28
			c-0.47-1.67-0.73-1.81-2.42-1.73c-0.31,0.02-0.62,0.03-0.94,0.02c-1.53-0.06-1.62,0.02-1.62,1.59c0,1.52,0,3.05,0,4.66
			c-2.74,0-5.46,0-8.32,0c0-0.66-0.01-1.34,0-2.01c0.07-4.04-1.02-5.08-5.07-5.15c-4.36-0.08-8.47,0.84-12.4,2.68
			C144.19,79.17,143.83,79.29,143.48,79.42z"/>
		<path class="st27" d="M215.8,101.63c0,2.35,0,4.6,0,6.91c-2.31,0-4.58,0-6.91,0c0-2.33,0-4.6,0-6.91
			C211.2,101.63,213.44,101.63,215.8,101.63z"/>
		<path class="st27" d="M208.89,117.41c0-2.31,0-4.58,0-6.93c2.33,0,4.59,0,6.91,0c0,2.32,0,4.59,0,6.93
			C213.47,117.41,211.21,117.41,208.89,117.41z"/>
		<path class="st27" d="M200.01,110.47c2.33,0,4.57,0,6.88,0c0,2.33,0,4.6,0,6.94c-2.27,0-4.54,0-6.88,0
			C200.01,115.11,200.01,112.85,200.01,110.47z"/>
		<path class="st27" d="M200.01,108.54c0-2.3,0-4.55,0-6.88c2.28,0,4.54,0,6.88,0c0,2.27,0,4.54,0,6.88
			C204.6,108.54,202.33,108.54,200.01,108.54z"/>
		<path class="st27" d="M130.29,117.83c-1.55,0-2.98,0-4.48,0c0-1.5,0-2.94,0-4.46c1.49,0,2.95,0,4.48,0
			C130.29,114.85,130.29,116.29,130.29,117.83z"/>
		<path class="st27" d="M131.65,117.81c0-1.53,0-2.94,0-4.43c1.5,0,2.96,0,4.49,0c0,1.47,0,2.91,0,4.43
			C134.67,117.81,133.2,117.81,131.65,117.81z"/>
		<path class="st27" d="M131.65,123.67c0-1.51,0-2.93,0-4.43c1.49,0,2.96,0,4.49,0c0,1.46,0,2.9,0,4.43
			C134.67,123.67,133.21,123.67,131.65,123.67z"/>
		<path class="st27" d="M130.3,119.22c0,1.5,0,2.94,0,4.46c-1.47,0-2.91,0-4.45,0c0-1.45,0-2.92,0-4.46
			C127.28,119.22,128.72,119.22,130.3,119.22z"/>
	</g>
</g>
</svg>
