<?xml version="1.0" encoding="utf-8"?>
<!-- Generator: Adobe Illustrator 27.8.1, SVG Export Plug-In . SVG Version: 6.00 Build 0)  -->
<svg version="1.1" xmlns="http://www.w3.org/2000/svg" xmlns:xlink="http://www.w3.org/1999/xlink" x="0px" y="0px"
	 viewBox="0 0 350 230" style="enable-background:new 0 0 350 230;" xml:space="preserve">
<style type="text/css">
	.st0{fill:#783232;}
	.st1{fill:#00E9FF;}
	.st2{fill:#0C1E8C;}
	.st3{fill:#FFC100;}
	.st4{fill:#0C6C00;}
	.st5{fill:#23605B;}
	.st6{fill:#FF7E30;}
	.st7{fill:#00D7FD;}
	.st8{fill:#5C00A2;}
	.st9{fill-rule:evenodd;clip-rule:evenodd;}
	.st10{fill:#20B700;}
	.st11{fill:none;}
	.st12{fill:#FFFFFF;}
	.st13{fill:#B000AB;}
	.st14{fill:#FA9720;}
	.st15{fill:#DA1300;}
	.st16{fill:#00F2FF;}
	.st17{fill:#00416A;}
	.st18{fill:#00FFE9;}
	.st19{fill:#017F2E;}
	.st20{fill:#0D302D;}
	.st21{fill:#00FFF2;}
	.st22{fill:#003CAC;}
	.st23{fill:#396D7A;}
	.st24{fill:#440044;}
	.st25{fill:#003D36;}
	.st26{fill:#00B6BF;}
	.st27{fill:#CBA400;}
</style>
<g id="Layer_1">
</g>
<g id="Layer_2">
</g>
<g id="Layer_3">
</g>
<g id="Layer_4">
</g>
<g id="Layer_5">
</g>
<g id="Layer_6">
</g>
<g id="Layer_7">
</g>
<g id="Layer_8">
</g>
<g id="Layer_9">
	<g>
		<path class="st17" d="M153.29,78.87c-1.14,1.97-2.21,3.81-3.27,5.64c-4.35,7.52-8.7,15.04-13.04,22.56
			c-1.69,2.93-3.37,5.87-5.09,8.79c-0.15,0.25-0.54,0.51-0.82,0.51c-6.83,0.03-13.65,0.02-20.48,0.02c-0.15,0-0.3-0.02-0.57-0.05
			c0.22-0.39,0.38-0.7,0.56-1.01c10.51-18.21,21.02-36.41,31.52-54.63c0.26-0.45,0.54-0.61,1.05-0.6c6.75,0.02,13.5,0.02,20.25,0
			c0.54,0,0.85,0.18,1.12,0.64c8.78,15.24,17.57,30.47,26.36,45.7c5.37,9.3,10.73,18.59,16.1,27.89c0.13,0.22,0.24,0.45,0.43,0.79
			c-0.36,0.02-0.63,0.05-0.91,0.05c-6.62,0-13.23-0.01-19.85,0.02c-0.61,0-0.93-0.19-1.23-0.72c-8.89-15.44-17.81-30.88-26.71-46.31
			c-1.65-2.86-3.31-5.73-4.96-8.59C153.63,79.38,153.5,79.19,153.29,78.87z"/>
		<path class="st18" d="M239.98,116.4c-1.51,0-2.85,0-4.19,0c-5.54,0-11.08-0.01-16.62,0.02c-0.61,0-0.92-0.2-1.22-0.72
			c-7.51-13.05-15.03-26.1-22.56-39.14c-2.99-5.18-6-10.35-8.99-15.53c-0.14-0.24-0.27-0.5-0.46-0.84c0.34-0.02,0.59-0.06,0.83-0.06
			c6.62,0,13.23,0.01,19.85-0.02c0.67,0,1.02,0.21,1.35,0.79c10.12,17.57,20.27,35.13,30.41,52.7
			C238.89,114.47,239.39,115.36,239.98,116.4z M164.08,135.15c-3.61-6.25-7.16-12.4-10.78-18.66c-3.62,6.26-7.17,12.4-10.78,18.66
			C149.78,135.15,156.85,135.15,164.08,135.15z"/>
	</g>
</g>
<g id="Layer_10">
</g>
<g id="Layer_11">
</g>
<g id="Layer_12">
</g>
<g id="Layer_13">
</g>
<g id="Layer_14">
</g>
<g id="Layer_15">
</g>
</svg>
