<?xml version="1.0" encoding="utf-8"?>
<!-- Generator: Adobe Illustrator 27.8.1, SVG Export Plug-In . SVG Version: 6.00 Build 0)  -->
<svg version="1.1" xmlns="http://www.w3.org/2000/svg" xmlns:xlink="http://www.w3.org/1999/xlink" x="0px" y="0px"
	 viewBox="0 0 350 230" style="enable-background:new 0 0 350 230;" xml:space="preserve">
<style type="text/css">
	.st0{fill:#783232;}
	.st1{fill:#00E9FF;}
	.st2{fill:#0C1E8C;}
	.st3{fill:#FFC100;}
	.st4{fill:#0C6C00;}
	.st5{fill:#23605B;}
	.st6{fill:#FF7E30;}
	.st7{fill:#00D7FD;}
	.st8{fill:#5C00A2;}
	.st9{fill-rule:evenodd;clip-rule:evenodd;}
	.st10{fill:#20B700;}
	.st11{fill:none;}
	.st12{fill:#FFFFFF;}
	.st13{fill:#B000AB;}
	.st14{fill:#FA9720;}
	.st15{fill:#DA1300;}
	.st16{fill:#00F2FF;}
	.st17{fill:#00416A;}
	.st18{fill:#00FFE9;}
	.st19{fill:#017F2E;}
	.st20{fill:#0D302D;}
	.st21{fill:#00FFF2;}
	.st22{fill:#003CAC;}
	.st23{fill:#396D7A;}
	.st24{fill:#440044;}
	.st25{fill:#003D36;}
	.st26{fill:#00B6BF;}
	.st27{fill:#CBA400;}
</style>
<g id="Layer_1">
</g>
<g id="Layer_2">
</g>
<g id="Layer_3">
</g>
<g id="Layer_4">
</g>
<g id="Layer_5">
</g>
<g id="Layer_6">
	<g>
		<path class="st9" d="M213.29,113.11c2.63-8.93,2.61-17.49,0.89-22.01c-0.8-2.09-2.68-9.99-5.24-11.72l5.54-0.5
			c12.67,8.37,12.02,32.02,12.28,42.45c0.27,10.78-3.2,14.85-5.1,15.41c-1.9,0.55-3.88-0.32-3.88-0.32
			c-0.98,1.89-2.94,1.9-3.72,1.19c-0.78-0.71-1.21-1.37-1.21-1.37c-0.34,0.35-2.29,1.07-3.48,0.63c-1.19-0.44-2.1-2.53-2.1-2.53
			c-2.31,0-4.37-1.08-4.18-2.71c0.19-1.64,1.86-5.56,1.86-5.56c-3.02-2.49,0.11-8.34,1.92-9.73
			C208.68,114.94,213.29,113.11,213.29,113.11L213.29,113.11z M136.71,113.11c-2.63-8.93-2.61-17.49-0.89-22.01
			c0.8-2.09,2.68-9.93,5.24-11.67l-5.54-0.56c-12.67,8.37-12.02,32.02-12.28,42.45c-0.27,10.78,3.2,14.85,5.1,15.41
			c1.9,0.55,3.88-0.32,3.88-0.32c0.98,1.89,2.94,1.9,3.72,1.19c0.78-0.71,1.21-1.37,1.21-1.37c0.34,0.35,2.29,1.07,3.48,0.63
			c1.19-0.44,2.1-2.53,2.1-2.53c2.31,0,4.37-1.08,4.18-2.71c-0.19-1.64-1.86-5.56-1.86-5.56c3.02-2.49-0.11-8.34-1.92-9.73
			C141.32,114.94,136.71,113.11,136.71,113.11L136.71,113.11z"/>
		<path class="st10" d="M174.94,89.08v13.05h13.76V89.08H174.94z M161.31,89.08v13.05h12.34V89.08H161.31z M174.94,103.43v13.05
			h13.76v-13.05H174.94z M161.31,116.47h12.34v-13.05h-12.34V116.47z M175,51.8l48.52,28.01c9.55,5.51,19.09,11.02,28.64,16.53
			l-4.53,5.56l-18.6-10.74l-3.82-2.21l0,0c0,0,0,0-0.01,0l-0.01,0l-15.94-9.21L175,59.99l-34.24,19.77l-15.95,9.21c0,0,0,0-0.01,0
			l0,0l-3.82,2.21l-18.6,10.74l-4.53-5.56c9.55-5.51,19.09-11.02,28.64-16.53L175,51.8"/>
		<polygon class="st11" points="173.64,116.47 173.64,103.43 161.31,103.43 161.31,102.13 173.64,102.13 173.64,89.08 174.94,89.08 
			174.94,102.13 188.7,102.13 188.7,103.43 174.94,103.43 174.94,116.47 		"/>
		<g>
			<rect x="161.3" y="102.13" class="st12" width="0.01" height="1.29"/>
		</g>
	</g>
</g>
<g id="Layer_7">
</g>
<g id="Layer_8">
</g>
<g id="Layer_9">
</g>
<g id="Layer_10">
</g>
<g id="Layer_11">
</g>
<g id="Layer_12">
</g>
<g id="Layer_13">
</g>
<g id="Layer_14">
</g>
<g id="Layer_15">
</g>
</svg>
