<?xml version="1.0" encoding="utf-8"?>
<!-- Generator: Adobe Illustrator 27.8.1, SVG Export Plug-In . SVG Version: 6.00 Build 0)  -->
<svg version="1.1" xmlns="http://www.w3.org/2000/svg" xmlns:xlink="http://www.w3.org/1999/xlink" x="0px" y="0px"
	 viewBox="0 0 350 230" style="enable-background:new 0 0 350 230;" xml:space="preserve">
<style type="text/css">
	.st0{fill:#783232;}
	.st1{fill:#00E9FF;}
	.st2{fill:#0C1E8C;}
	.st3{fill:#FFC100;}
	.st4{fill:#0C6C00;}
	.st5{fill:#23605B;}
	.st6{fill:#FF7E30;}
	.st7{fill:#00D7FD;}
	.st8{fill:#5C00A2;}
	.st9{fill-rule:evenodd;clip-rule:evenodd;}
	.st10{fill:#20B700;}
	.st11{fill:none;}
	.st12{fill:#FFFFFF;}
	.st13{fill:#B000AB;}
	.st14{fill:#FA9720;}
	.st15{fill:#DA1300;}
	.st16{fill:#00F2FF;}
	.st17{fill:#00416A;}
	.st18{fill:#00FFE9;}
	.st19{fill:#017F2E;}
	.st20{fill:#0D302D;}
	.st21{fill:#00FFF2;}
	.st22{fill:#003CAC;}
	.st23{fill:#396D7A;}
	.st24{fill:#440044;}
	.st25{fill:#003D36;}
	.st26{fill:#00B6BF;}
	.st27{fill:#CBA400;}
</style>
<g id="Layer_1">
	<g>
		<path class="st0" d="M201.39,120.72c0-1.76-0.03-3.49,0.01-5.22c0.02-0.78-0.2-1.39-0.66-2.02
			c-8.42-11.54-16.83-23.09-25.23-34.64c-0.17-0.24-0.36-0.46-0.6-0.78c-1.12,1.53-2.19,2.99-3.25,4.45
			c-7.59,10.43-15.18,20.85-22.75,31.29c-0.26,0.36-0.41,0.88-0.42,1.34c-0.05,1.84-0.02,3.69-0.02,5.59c-3.83,0-7.58,0-11.44,0
			c3.04-4.18,6.03-8.29,9.14-12.56c-6.57,0-12.99,0-19.51,0c0.13-0.36,0.21-0.58,0.3-0.8c4.07-9.05,8.14-18.11,12.19-27.17
			c0.24-0.53,0.53-0.63,1.05-0.63c8.63,0.01,17.26,0,25.88,0.02c0.63,0,1.03-0.17,1.41-0.7c2.28-3.19,4.6-6.34,6.91-9.51
			c0.16-0.21,0.33-0.41,0.55-0.7c1,1.37,1.96,2.68,2.92,3.99c1.52,2.09,3.06,4.17,4.55,6.28c0.34,0.48,0.7,0.64,1.28,0.64
			c8.66-0.02,17.31-0.01,25.97-0.02c0.52,0,0.82,0.1,1.05,0.63c4.05,9.06,8.12,18.11,12.19,27.17c0.1,0.22,0.17,0.45,0.29,0.76
			c-6.49,0-12.89,0-19.52,0c3.11,4.27,6.1,8.39,9.15,12.59C209,120.72,205.25,120.72,201.39,120.72z M151.3,63.41
			c0.53,0.54,1.15,1.07,1.84,1.36c0.47,0.2,0.75,0.39,0.97,0.83c1.9,3.88,3.83,7.76,5.72,11.65c0.26,0.54,0.55,0.76,1.16,0.74
			c1.44-0.05,2.88-0.01,4.33-0.01c1.33,0,1.47-0.23,0.88-1.43c-2.26-4.59-4.53-9.17-6.76-13.77c-0.16-0.33-0.06-0.8-0.08-1.2
			c-0.04-0.74-0.01-1.5-0.15-2.22c-0.09-0.49-0.42-0.93-0.65-1.41c0.88-0.46,1.71-0.89,2.58-1.33c-0.51-1.06-0.98-2.03-1.48-3.06
			c2.61-1.2,5.16-1.77,7.83-0.45c0.19,0.09,0.48,0.15,0.67,0.07c0.62-0.26,1.21-0.58,1.81-0.88c-0.67-1.65-2.03-3.42-3.47-4.42
			c-3.17-2.2-6.56-2.16-9.94-0.66c-3.06,1.35-6.02,2.93-9.02,4.4c-1.48,0.73-2.96,1.46-4.46,2.19c0.54,1.12,1.05,2.17,1.58,3.27
			c-0.85,0.41-1.62,0.79-2.44,1.19c-0.21-0.39-0.38-0.72-0.56-1.05c-0.7-1.32-1.89-1.74-3.22-1.12c-0.91,0.42-1.82,0.86-2.71,1.32
			c-1.26,0.65-1.73,1.9-1.13,3.16c0.83,1.77,1.7,3.53,2.59,5.27c0.6,1.18,1.84,1.61,3.05,1.07c0.99-0.44,1.97-0.92,2.93-1.43
			c1.16-0.61,1.57-1.87,1.05-3.07c-0.14-0.32-0.29-0.64-0.47-1.04c0.82-0.41,1.61-0.79,2.44-1.2c0.54,1.07,1.04,2.05,1.54,3.06
			c0.95-0.46,1.83-0.89,2.77-1.35C150.79,62.47,150.94,63.04,151.3,63.41z M206.63,49.73c-0.77,1.47-1.52,2.95-2.3,4.41
			c-0.57,1.05-1.58,1.4-2.63,0.89c-1.15-0.56-2.28-1.15-3.4-1.77c-0.93-0.52-1.22-1.56-0.77-2.54c0.17-0.37,0.38-0.72,0.56-1.09
			c0.71-1.37,1.42-2.74,2.16-4.19c-0.43,0-0.75-0.03-1.07,0c-6.43,0.64-9.99,7.75-6.62,13.26c0.36,0.58,0.32,0.98,0.03,1.54
			c-2.93,5.59-5.83,11.18-8.73,16.78c-0.13,0.25-0.22,0.52-0.38,0.89c0.4,0.02,0.67,0.04,0.93,0.04c2.23,0,4.46-0.02,6.69,0.02
			c0.6,0.01,0.91-0.18,1.19-0.72c2.35-4.57,4.74-9.12,7.1-13.68c0.23-0.45,0.47-0.67,1.03-0.71c3.37-0.19,5.88-1.82,7.43-4.81
			c1.5-2.91,1.12-6.82-0.83-9.04C206.88,49.27,206.75,49.5,206.63,49.73z"/>
		<path class="st1" d="M100.72,152.61c2.97-2.45,6.24-4.42,9.68-6.14c8.35-4.18,17.19-6.93,26.28-8.92
			c10.53-2.31,21.2-3.5,31.96-3.83c15.27-0.46,30.4,0.66,45.33,4.01c9.91,2.22,19.53,5.31,28.43,10.33
			c2.36,1.33,4.59,2.88,6.88,4.33c-0.04,0.07-0.08,0.15-0.12,0.22c-1.42-0.49-2.84-1-4.26-1.48c-8.75-2.96-17.71-5.12-26.8-6.73
			c-7.45-1.32-14.95-2.25-22.5-2.85c-10.1-0.81-20.22-0.99-30.35-0.63c-10.95,0.38-21.82,1.46-32.62,3.33
			c-10.77,1.87-21.34,4.48-31.6,8.28C100.93,152.56,100.82,152.58,100.72,152.61z M183.68,102.59c0.01-0.54-0.14-0.79-0.73-0.78
			c-1.96,0.03-3.91,0.02-5.87,0c-0.47,0-0.7,0.14-0.7,0.65c0.01,2.58,0.01,5.17,0,7.75c0,0.54,0.22,0.71,0.74,0.7
			c1.93-0.02,3.86-0.03,5.79,0c0.62,0.01,0.79-0.23,0.78-0.82c-0.03-1.25-0.01-2.5-0.01-3.75
			C183.67,105.09,183.66,103.84,183.68,102.59z M183.68,117.48c0,1.25-0.02,2.5,0.01,3.75c0.01,0.56-0.18,0.76-0.76,0.75
			c-1.93-0.03-3.86-0.03-5.79,0c-0.58,0.01-0.76-0.21-0.76-0.76c0.01-2.53,0.01-5.05,0-7.58c0-0.56,0.2-0.76,0.77-0.76
			c1.93,0.03,3.86,0.02,5.79,0c0.56-0.01,0.77,0.19,0.75,0.76C183.65,114.93,183.68,116.21,183.68,117.48z M166.18,106.35
			c0-1.22,0.02-2.45-0.01-3.67c-0.01-0.6,0.14-0.88,0.82-0.87c1.87,0.04,3.75,0.04,5.63,0c0.63-0.01,0.87,0.17,0.86,0.82
			c-0.03,2.47-0.02,4.95,0,7.42c0,0.6-0.16,0.88-0.83,0.87c-1.9-0.04-3.81-0.03-5.71,0c-0.63,0.01-0.79-0.23-0.77-0.82
			C166.2,108.85,166.18,107.6,166.18,106.35C166.18,106.35,166.18,106.35,166.18,106.35z M173.47,117.5c0,1.22-0.02,2.45,0.01,3.67
			c0.01,0.56-0.13,0.83-0.78,0.82c-1.93-0.04-3.86-0.03-5.79,0c-0.6,0.01-0.74-0.23-0.74-0.77c0.01-2.53,0.02-5.05-0.01-7.58
			c-0.01-0.58,0.22-0.75,0.77-0.74c1.93,0.02,3.86,0.02,5.79,0c0.58-0.01,0.76,0.22,0.75,0.77
			C173.46,114.94,173.47,116.22,173.47,117.5C173.47,117.5,173.47,117.5,173.47,117.5z"/>
	</g>
</g>
<g id="Layer_2">
</g>
<g id="Layer_3">
</g>
<g id="Layer_4">
</g>
<g id="Layer_5">
</g>
<g id="Layer_6">
</g>
<g id="Layer_7">
</g>
<g id="Layer_8">
</g>
<g id="Layer_9">
</g>
<g id="Layer_10">
</g>
<g id="Layer_11">
</g>
<g id="Layer_12">
</g>
<g id="Layer_13">
</g>
<g id="Layer_14">
</g>
<g id="Layer_15">
</g>
</svg>
