<?xml version="1.0" encoding="utf-8"?>
<!-- Generator: Adobe Illustrator 27.8.1, SVG Export Plug-In . SVG Version: 6.00 Build 0)  -->
<svg version="1.1" xmlns="http://www.w3.org/2000/svg" xmlns:xlink="http://www.w3.org/1999/xlink" x="0px" y="0px"
	 viewBox="0 0 350 230" style="enable-background:new 0 0 350 230;" xml:space="preserve">
<style type="text/css">
	.st0{fill:#783232;}
	.st1{fill:#00E9FF;}
	.st2{fill:#0C1E8C;}
	.st3{fill:#FFC100;}
	.st4{fill:#0C6C00;}
	.st5{fill:#23605B;}
	.st6{fill:#FF7E30;}
	.st7{fill:#00D7FD;}
	.st8{fill:#5C00A2;}
	.st9{fill-rule:evenodd;clip-rule:evenodd;}
	.st10{fill:#20B700;}
	.st11{fill:none;}
	.st12{fill:#FFFFFF;}
	.st13{fill:#B000AB;}
	.st14{fill:#FA9720;}
	.st15{fill:#DA1300;}
	.st16{fill:#00F2FF;}
	.st17{fill:#00416A;}
	.st18{fill:#00FFE9;}
	.st19{fill:#017F2E;}
	.st20{fill:#0D302D;}
	.st21{fill:#00FFF2;}
	.st22{fill:#003CAC;}
	.st23{fill:#396D7A;}
	.st24{fill:#440044;}
	.st25{fill:#003D36;}
	.st26{fill:#00B6BF;}
	.st27{fill:#CBA400;}
</style>
<g id="Layer_1">
</g>
<g id="Layer_2">
	<g>
		<path class="st2" d="M148.39,129.76c0,2.24,0,4.32,0,6.51c0.93,0,1.81,0,2.7,0c1.29,0.01,1.78,0.49,1.78,1.75
			c0,6.26,0,12.51,0,18.77c0,1.88-1.19,3.08-3.09,3.08c-3.02,0.01-6.03,0.01-9.05,0c-1.92-0.01-3.1-1.17-3.1-3.08
			c-0.01-6.26-0.01-12.51,0-18.77c0-1.27,0.5-1.75,1.8-1.76c0.92-0.01,1.84,0,2.82,0c0-2.16,0-4.26,0-6.51c-0.33,0-0.68,0-1.03,0
			c-6.62,0-13.24-0.08-19.86,0.04c-3.55,0.07-5.2-2.78-5.4-5.13c-0.13-1.49,0.23-2.85,0.95-4.17c8.14-14.98,16.25-29.98,24.41-44.95
			c0.48-0.88,1.17-1.75,1.98-2.31c2.17-1.5,4.91-0.6,6.29,1.9c0.9,1.64,1.79,3.28,2.69,4.92c7.36,13.56,14.72,27.13,22.07,40.69
			c1.17,2.15,1.18,4.34,0.01,6.49c-0.89,1.64-2.28,2.54-4.22,2.53c-6.9-0.01-13.8-0.01-20.7-0.01
			C149.1,129.76,148.77,129.76,148.39,129.76z"/>
		<path class="st3" d="M234.08,109.93c-4.99,0-9.81,0-14.73,0c0-1.8-0.12-3.56,0.03-5.3c0.17-2.02-0.49-3.58-1.68-5.19
			c-8.98-12.22-17.87-24.5-26.79-36.76c-1.84-2.52-3.69-5.04-5.62-7.67c-7.7,10.57-15.34,21.07-23.07,31.68
			c-0.75-1.37-1.35-2.69-2.14-3.87c-1.32-1.97-1.65-4.07-1.62-6.41c0.11-7.07,0.04-14.14,0.04-21.21c0-0.33,0-0.66,0-1.04
			c3.83,0,7.59,0,11.45,0c0,3.18,0,6.35,0,9.51c0.07,0.02,0.13,0.04,0.2,0.07c5.03-6.91,10.06-13.82,15.15-20.81
			C201.56,65.26,217.77,87.53,234.08,109.93z M175.73,89.97c0,0.16,0.33,0.44,0.51,0.44c2.29,0.03,4.57,0.03,6.86-0.01
			c0.19,0,0.54-0.34,0.54-0.53c0.03-2.96,0.03-5.91,0-8.87c0-0.18-0.3-0.51-0.46-0.51c-2.45-0.03-4.9-0.02-7.47-0.02
			C175.7,83.73,175.7,86.85,175.73,89.97z M186.9,89.7c-0.01,0.52,0.14,0.75,0.71,0.74c2.2-0.02,4.41-0.01,6.61,0.01
			c0.51,0,0.68-0.2,0.68-0.69c-0.01-2.84-0.02-5.69,0-8.53c0-0.6-0.23-0.75-0.79-0.75c-2.15,0.02-4.29,0.02-6.44-0.01
			c-0.6-0.01-0.78,0.21-0.76,0.78c0.03,1.39,0.01,2.79,0.01,4.18C186.9,86.85,186.92,88.27,186.9,89.7z M183.18,102.51
			c0.17,0,0.47-0.38,0.47-0.59c0.03-2.9,0.02-5.8,0.03-8.7c0-0.46-0.18-0.65-0.65-0.65c-2.23,0.01-4.46,0.01-6.7,0
			c-0.46,0-0.66,0.16-0.64,0.64c0.02,0.81,0.01,1.62,0.01,2.43c0,2.26,0,4.51,0,6.9C178.28,102.53,180.73,102.55,183.18,102.51z
			 M194.89,97.59c0-1.4-0.02-2.79,0.01-4.19c0.01-0.58-0.13-0.86-0.79-0.85c-2.15,0.04-4.3,0.03-6.45,0
			c-0.61-0.01-0.76,0.23-0.76,0.79c0.02,2.82,0.02,5.64,0.01,8.46c0,0.52,0.13,0.76,0.7,0.76c2.2-0.02,4.41-0.02,6.61,0
			c0.51,0,0.68-0.2,0.67-0.7C194.87,100.44,194.89,99.01,194.89,97.59C194.89,97.59,194.89,97.59,194.89,97.59z"/>
	</g>
</g>
<g id="Layer_3">
</g>
<g id="Layer_4">
</g>
<g id="Layer_5">
</g>
<g id="Layer_6">
</g>
<g id="Layer_7">
</g>
<g id="Layer_8">
</g>
<g id="Layer_9">
</g>
<g id="Layer_10">
</g>
<g id="Layer_11">
</g>
<g id="Layer_12">
</g>
<g id="Layer_13">
</g>
<g id="Layer_14">
</g>
<g id="Layer_15">
</g>
</svg>
