<?xml version="1.0" encoding="utf-8"?>
<!-- Generator: Adobe Illustrator 27.8.1, SVG Export Plug-In . SVG Version: 6.00 Build 0)  -->
<svg version="1.1" xmlns="http://www.w3.org/2000/svg" xmlns:xlink="http://www.w3.org/1999/xlink" x="0px" y="0px"
	 viewBox="0 0 350 230" style="enable-background:new 0 0 350 230;" xml:space="preserve">
<style type="text/css">
	.st0{fill:#783232;}
	.st1{fill:#00E9FF;}
	.st2{fill:#0C1E8C;}
	.st3{fill:#FFC100;}
	.st4{fill:#0C6C00;}
	.st5{fill:#23605B;}
	.st6{fill:#FF7E30;}
	.st7{fill:#00D7FD;}
	.st8{fill:#5C00A2;}
	.st9{fill-rule:evenodd;clip-rule:evenodd;}
	.st10{fill:#20B700;}
	.st11{fill:none;}
	.st12{fill:#FFFFFF;}
	.st13{fill:#B000AB;}
	.st14{fill:#FA9720;}
	.st15{fill:#DA1300;}
	.st16{fill:#00F2FF;}
	.st17{fill:#00416A;}
	.st18{fill:#00FFE9;}
	.st19{fill:#017F2E;}
	.st20{fill:#0D302D;}
	.st21{fill:#00FFF2;}
	.st22{fill:#003CAC;}
	.st23{fill:#396D7A;}
	.st24{fill:#440044;}
	.st25{fill:#003D36;}
	.st26{fill:#00B6BF;}
	.st27{fill:#CBA400;}
</style>
<g id="Layer_1">
</g>
<g id="Layer_2">
</g>
<g id="Layer_3">
</g>
<g id="Layer_4">
	<g>
		<path class="st5" d="M161.52,95.75c-1.5-3.05-2.98-6.05-4.46-9.06c-1.68-3.4-3.34-6.81-5.05-10.19c-0.14-0.28-0.5-0.57-0.8-0.62
			c-1.77-0.26-2.98-1.22-3.73-2.81c-0.31-0.65-0.63-1.29-1-2.03c-1.52,0.73-2.99,1.44-4.53,2.18c-0.83-1.67-1.64-3.29-2.47-4.96
			c-1.34,0.66-2.6,1.28-3.96,1.95c0.24,0.51,0.45,0.98,0.67,1.45c1.01,2.15,0.31,4.23-1.82,5.3c-1.45,0.73-2.91,1.46-4.38,2.16
			c-2.01,0.97-4.17,0.26-5.18-1.75c-1.41-2.8-2.79-5.61-4.14-8.43c-0.96-2.01-0.24-4.09,1.73-5.11c1.5-0.77,3.02-1.52,4.55-2.24
			c2.01-0.95,4.07-0.26,5.12,1.7c0.31,0.58,0.58,1.17,0.93,1.87c0.7-0.34,1.36-0.66,2.02-0.99c0.64-0.32,1.28-0.63,1.97-0.98
			c-0.87-1.77-1.7-3.48-2.58-5.28c1.31-0.65,2.55-1.28,3.81-1.9c5.9-2.91,11.78-5.86,17.72-8.69c5.59-2.67,12.66-2.65,17.69,1.96
			c1.88,1.72,3.29,3.76,4.46,6.14c-1.12,0.55-2.19,1.1-3.29,1.61c-0.13,0.06-0.37,0.02-0.51-0.06c-3.4-1.96-6.91-1.67-10.45-0.52
			c-0.83,0.27-1.62,0.65-2.56,1.03c0.82,1.69,1.61,3.31,2.44,5.02c-1.4,0.7-2.76,1.38-4.23,2.11c0.3,0.6,0.56,1.19,0.86,1.76
			c0.82,1.53,0.97,3.07,0.25,4.7c-0.14,0.31,0.03,0.84,0.21,1.2c3.04,6.22,6.1,12.43,9.16,18.64c0.1,0.19,0.17,0.4,0.29,0.66
			c-1.61,0.28-2.82,1.08-3.62,2.48c-0.1,0.18-0.38,0.31-0.61,0.37C164.59,94.88,163.12,95.29,161.52,95.75z M251.37,149.11
			c-1.45-0.99-2.86-2.04-4.35-2.96c-8.83-5.4-18.48-8.76-28.46-11.24c-14.25-3.54-28.76-5.04-43.4-4.98
			c-6.79,0.02-13.59,0.46-20.36,1.04c-11.18,0.96-22.14,3.14-32.81,6.63c-8.07,2.64-15.81,6.01-22.74,11.03
			c-0.27,0.2-0.53,0.41-0.8,0.62c0.32,0.09,0.52,0.03,0.72-0.04c2.88-0.95,5.75-1.97,8.66-2.85c12.61-3.79,25.5-6.16,38.58-7.58
			c11.7-1.26,23.43-1.71,35.2-1.44c11.76,0.27,23.46,1.3,35.07,3.2c10.03,1.64,19.91,3.9,29.57,7.1c1.74,0.58,3.48,1.18,5.34,1.81
			C251.45,149.26,251.43,149.16,251.37,149.11z M190.68,52.53c-3.1,4.81-3.11,9.87-0.36,14.88c0.34,0.61,0.33,1.01-0.02,1.59
			c-4.24,7.18-8.45,14.37-12.66,21.56c-0.18,0.3-0.33,0.61-0.55,1.01c0.41,0,0.63,0.01,0.85,0c2.11-0.13,3.82,0.53,4.92,2.44
			c0.1,0.17,0.3,0.33,0.49,0.38c1.77,0.52,3.54,1.03,5.35,1.55c0.16-0.24,0.32-0.47,0.46-0.7c3.87-6.59,7.75-13.18,11.58-19.8
			c0.46-0.79,0.94-1.03,1.84-1.03c6.47,0.03,12.14-4.37,13.72-10.65c1.01-4.03,0.35-7.8-1.93-11.42c-0.28,0.47-0.51,0.83-0.73,1.21
			c-1.37,2.32-2.71,4.66-4.1,6.97c-1.05,1.75-2.74,2.18-4.51,1.17c-1.66-0.95-3.31-1.92-4.95-2.9c-1.72-1.03-2.17-2.79-1.17-4.52
			c0.88-1.52,1.78-3.03,2.66-4.54c0.68-1.15,1.35-2.31,2.13-3.65C198.04,45.93,193.63,47.94,190.68,52.53z"/>
		<path class="st6" d="M136.07,131.08c0.36-0.44,0-6.19,0-6.19s-0.22-1.02,1.17-1.09c1.38-0.07,2.62,0,2.62,0l2.48-10.78
			c0,0,0.29-0.8,1.31-0.95s1.82,0,1.82,0s0.29-5.9,5.97-9.9c5.68-4.01,16.46-6.04,16.46-6.04s0-2.26,2.4-2.4c2.4-0.15,4.71,0,4.71,0
			h0c0,0,2.3-0.15,4.7,0c2.4,0.15,2.4,2.4,2.4,2.4s10.78,2.04,16.46,6.04c5.68,4.01,5.97,9.9,5.97,9.9s0.8-0.15,1.82,0
			s1.31,0.95,1.31,0.95l2.48,10.78c0,0,1.24-0.07,2.62,0c1.38,0.07,1.17,1.09,1.17,1.09s-0.36,5.75,0,6.19l-15.86-1.28
			c-15.36-1.24-30.79-1.24-46.15,0L136.07,131.08z"/>
	</g>
</g>
<g id="Layer_5">
</g>
<g id="Layer_6">
</g>
<g id="Layer_7">
</g>
<g id="Layer_8">
</g>
<g id="Layer_9">
</g>
<g id="Layer_10">
</g>
<g id="Layer_11">
</g>
<g id="Layer_12">
</g>
<g id="Layer_13">
</g>
<g id="Layer_14">
</g>
<g id="Layer_15">
</g>
</svg>
