<?xml version="1.0" encoding="utf-8"?>
<!-- Generator: Adobe Illustrator 27.8.1, SVG Export Plug-In . SVG Version: 6.00 Build 0)  -->
<svg version="1.1" xmlns="http://www.w3.org/2000/svg" xmlns:xlink="http://www.w3.org/1999/xlink" x="0px" y="0px"
	 viewBox="0 0 350 230" style="enable-background:new 0 0 350 230;" xml:space="preserve">
<style type="text/css">
	.st0{fill:#783232;}
	.st1{fill:#00E9FF;}
	.st2{fill:#0C1E8C;}
	.st3{fill:#FFC100;}
	.st4{fill:#0C6C00;}
	.st5{fill:#23605B;}
	.st6{fill:#FF7E30;}
	.st7{fill:#00D7FD;}
	.st8{fill:#5C00A2;}
	.st9{fill-rule:evenodd;clip-rule:evenodd;}
	.st10{fill:#20B700;}
	.st11{fill:none;}
	.st12{fill:#FFFFFF;}
	.st13{fill:#B000AB;}
	.st14{fill:#FA9720;}
	.st15{fill:#DA1300;}
	.st16{fill:#00F2FF;}
	.st17{fill:#00416A;}
	.st18{fill:#00FFE9;}
	.st19{fill:#017F2E;}
	.st20{fill:#0D302D;}
	.st21{fill:#00FFF2;}
	.st22{fill:#003CAC;}
	.st23{fill:#396D7A;}
	.st24{fill:#440044;}
	.st25{fill:#003D36;}
	.st26{fill:#00B6BF;}
	.st27{fill:#CBA400;}
</style>
<g id="Layer_1">
</g>
<g id="Layer_2">
</g>
<g id="Layer_3">
</g>
<g id="Layer_4">
</g>
<g id="Layer_5">
</g>
<g id="Layer_6">
</g>
<g id="Layer_7">
</g>
<g id="Layer_8">
</g>
<g id="Layer_9">
</g>
<g id="Layer_10">
</g>
<g id="Layer_11">
</g>
<g id="Layer_12">
</g>
<g id="Layer_13">
</g>
<g id="Layer_14">
	<g>
		<path class="st26" d="M182.18,62.61c0,1.31,0,2.57,0,3.89c-1.01,0-2,0-3.04,0c0-1.28,0-2.56,0-3.89
			C180.16,62.61,181.15,62.61,182.18,62.61z M199.84,87.04c1.05,0,2.05,0,3.03,0c0-1.34,0-2.63,0-3.93c-1.03,0-2,0-3.03,0
			C199.84,84.48,199.84,85.74,199.84,87.04z M202.88,91.87c0-1.32,0-2.61,0-3.93c-1.03,0-2.01,0-3.04,0c0,1.31,0,2.57,0,3.93
			C200.88,91.87,201.86,91.87,202.88,91.87z M140.57,75.64c-1.04,0-2.02,0-3.04,0c0,1.34,0,2.62,0,3.94c1.01,0,1.98,0,3.04,0
			C140.57,78.22,140.57,76.93,140.57,75.64z M182.18,57.87c-1.05,0-2.05,0-3.02,0c0,1.35,0,2.63,0,3.93c1.03,0,1.99,0,3.02,0
			C182.18,60.43,182.18,59.15,182.18,57.87z M140.58,80.49c-1.05,0-2.05,0-3.04,0c0,1.35,0,2.63,0,3.91c1.04,0,2.02,0,3.04,0
			C140.58,83.07,140.58,81.79,140.58,80.49z M133.53,79.58c1.03,0,1.99,0,2.98,0c0-1.34,0-2.64,0-3.95c-1.03,0-1.99,0-2.98,0
			C133.53,76.98,133.53,78.28,133.53,79.58z M136.53,80.49c-1.03,0-2.01,0-3.01,0c0,1.34,0,2.62,0,3.93c1.02,0,1.97,0,3.01,0
			C136.53,83.07,136.53,81.78,136.53,80.49z M203.89,91.86c1.03,0,2.01,0,2.99,0c0-1.33,0-2.62,0-3.92c-1.02,0-1.98,0-2.99,0
			C203.89,89.31,203.89,90.57,203.89,91.86z M206.89,87.05c0-1.33,0-2.62,0-3.89c-1.04,0-2.02,0-2.99,0c0,1.33,0,2.6,0,3.89
			C204.93,87.05,205.91,87.05,206.89,87.05z M175.11,62.63c0,1.32,0,2.59,0,3.87c1.03,0,2,0,3.02,0c0-1.3,0-2.54,0-3.87
			C177.08,62.63,176.1,62.63,175.11,62.63z M178.11,57.85c-1.03,0-2,0-3,0c0,1.34,0,2.62,0,3.94c1.01,0,1.96,0,3,0
			C178.11,60.44,178.11,59.16,178.11,57.85z"/>
		<path d="M165.78,89.81c-0.33,0.07-0.76,0.32-0.96,0.19c-0.76-0.46-1.05,0.06-1.39,0.53c-1.01,1.39-1.94,2.84-3.04,4.14
			c-1.38,1.62-2.92,3.1-4.36,4.68c-0.54,0.59-0.97,1.27-1.43,1.92c-0.47,0.65-0.86,1.36-1.41,1.94c-0.28,0.29-0.82,0.32-1.22,0.52
			c-1.99,1.04-3.99,2.06-5.94,3.17c-0.55,0.32-0.99,0.88-1.41,1.39c-1.03,1.26-2.19,2.37-3.73,2.97c-0.79,0.31-1.01,0.85-1.07,1.66
			c-0.24,3.32-0.56,6.63-0.84,9.94c-0.11,1.24-0.16,2.48-0.31,3.71c-0.05,0.39-0.26,0.81-0.52,1.11c-0.81,0.91-1.07,1.97-1.04,3.15
			c0.08,3.08,0.15,6.15,0.19,9.23c0.02,1.66-0.02,3.33-0.06,4.99c0,0.19-0.18,0.39-0.27,0.58c-0.1-0.19-0.27-0.38-0.27-0.57
			c-0.02-1.47-0.01-2.93-0.01-4.57c-2.72,0-5.42,0-8.18,0c-0.15-1.45-0.29-2.74-0.44-4.23c2.91-0.21,5.71-0.4,8.51-0.6
			c0-1.12,0.04-2.22-0.03-3.31c-0.01-0.19-0.45-0.44-0.73-0.52c-0.57-0.15-1.18-0.2-1.75-0.48c0.78,0.04,1.56,0.07,2.34,0.11
			c0.19-1.16,0.38-2.32,0.59-3.58c-0.02-0.01-0.21-0.1-0.4-0.17c-4.52-1.73-7.31-5.15-9.19-9.44c-0.29-0.65-0.4-1.43-1.54-1.23
			c0.6-1.53,1.12-2.89,1.65-4.25c1.03-2.6,2.12-5.18,3.11-7.8c0.63-1.66,1.53-3.13,2.67-4.47c0.14-0.16,0.26-0.34,0.38-0.51
			c-0.47-0.19-0.89-0.37-1.39-0.57c-1.83,1.87-3.76,3.74-4.61,6.46c-1.07,3.43-2.32,6.82-3.49,10.22c-0.08,0.23-0.16,0.47-0.25,0.74
			c-0.61,0-1.21,0-1.94,0c-0.14-5.44-0.29-10.85-0.43-16.36c-0.59,0.05-1.16,0.1-1.69,0.14c0,5.46,0,10.86,0,16.35
			c-1.02-0.29-1.06,0.6-1.32,1.26c-0.95,2.52-1.88,5.04-3.79,7.05c-0.11,0.11-0.16,0.35-0.13,0.51c0.07,0.52,0.19,1.03,0.33,1.75
			c1.22,0,2.46-0.01,3.7,0.01c0.69,0.01,1.5,0.32,2.03,0.05c0.42-0.21,0.51-1.09,0.84-1.89c0,0.77,0,1.32,0,1.95
			c0.48,0.03,0.92,0.06,1.37,0.09c0.22-1.32,0.42-2.58,0.63-3.85c0.05,0,0.09,0.01,0.14,0.01c0,1.27,0,2.54,0,4
			c0.9-0.09,1.73-0.16,2.56-0.26c0.83-0.1,1.66-0.23,2.52-0.18c-0.52,0.13-1.04,0.25-1.56,0.38c0,0.06,0,0.12,0.01,0.18
			c0.86,0.11,1.71,0.22,2.57,0.32c0.12,0.01,0.28-0.04,0.38-0.12c1.3-0.95,2.66-0.53,4.01-0.31c0.01,0.07,0.01,0.14,0.02,0.21
			c-1.01,0.07-2.01,0.13-3.02,0.2c0,0.05,0,0.11,0,0.16c0.87,0.18,1.74,0.36,2.62,0.53c-0.01,0.11-0.02,0.22-0.04,0.33
			c-3.36-0.33-6.72-0.67-10.12-1c-0.16,0.79-0.3,1.45-0.45,2.18c0.51,0.11,0.97,0.21,1.42,0.31c0,0.08,0,0.16-0.01,0.25
			c-0.47,0.06-0.94,0.11-1.47,0.18c-0.14,0.47-0.28,0.98-0.43,1.48c-0.08-0.01-0.16-0.02-0.23-0.03c0-0.46,0-0.92,0-1.49
			c-0.3-0.01-0.54-0.03-0.78-0.04c-0.02,0.5-0.04,0.91-0.06,1.32c-0.09,0.04-0.17,0.07-0.26,0.11c-0.29-0.71-0.26-1.53-1.45-1.54
			c-1.21-0.02-1.21,0.86-1.61,1.5c-0.1-0.02-0.19-0.05-0.29-0.07c0.03-0.42,0.06-0.84,0.09-1.38c-1.21,0-2.43-0.02-3.64,0.02
			c-0.19,0.01-0.47,0.28-0.53,0.49c-1.06,3.44-2.11,6.89-3.13,10.34c-0.07,0.22,0.03,0.54,0.15,0.75c0.24,0.45,0.55,0.86,0.94,1.44
			c-1.37-0.69-1.85-1.64-1.49-2.85c1.17-3.93,2.36-7.85,3.56-11.77c0.37-1.2,0.39-2.39,0.09-3.61c-0.09-0.37,0.03-0.8,0.06-1.45
			c-0.39-0.62-0.96-1.51-1.67-2.63c-0.2,1.03-0.5,1.93-0.52,2.82c-0.04,2.3-0.68,4.36-2.05,6.2c-0.53,0.71-1.03,1.51-2.22,1.16
			c-0.01,1.76-0.45,3.39,0.36,5c0.25,0.49,0.29,1.12,0.31,1.68c0.04,1.54,0.01,3.09,0.01,4.75c-0.57-0.06-0.93-0.1-1.23-0.13
			c-0.06,0.67-0.13,1.43-0.21,2.35c-0.9-0.46-1.59-0.76-2.22-1.15c-1.3-0.82-1.94-1.98-2.03-3.58c-0.16-2.64,0.52-5.17,0.76-7.76
			c0.01-0.08,0.01-0.17,0.03-0.25c0.28-1.16,0.25-2.2-0.91-2.95c-0.66-0.43-0.66-1.1-0.15-1.65c1.2-1.29,1.46-2.84,1.66-4.53
			c0.17-1.46,0.83-2.86,1.33-4.27c1.17-3.29,2.46-6.54,3.54-9.85c0.98-3.01,2.71-5.45,4.84-7.73c1.09-1.17,2.23-1.78,3.8-1.75
			c0.77,0.01,1.55-0.19,2.32-0.14c1.36,0.08,2.39-0.6,3.42-1.31c0.62-0.43,0.83-1.08,0.63-1.83c-0.19-0.7-0.74-0.68-1.31-0.77
			c-0.65-0.1-1.3-0.27-1.91-0.51c-0.72-0.28-1.15-0.86-1.29-1.62c-0.5-2.74-0.14-5.36,1.19-7.81c0.26-0.48,0.61-0.96,1.04-1.28
			c2.32-1.73,4.94-2.59,7.85-2.41c0.57,0.04,1.17,0.33,1.66,0.66c0.89,0.61,1.68,1.36,2.56,1.98c0.6,0.42,1.27,0.74,1.93,1.04
			c0.76,0.34,1.57,0.54,2.31,0.91c0.69,0.35,0.74,0.87,0.14,1.39c-0.58,0.5-1.25,0.91-1.93,1.4c0.47,0.57,0.93,1.14,1.17,1.43
			c-0.15,1.08-0.25,1.89-0.36,2.69c-0.02,0.14,0.01,0.29-0.05,0.41c-0.66,1.3-0.29,2.44,0.52,3.51c0.14,0.19,0.46,0.42,0.65,0.38
			c2.84-0.46,5.69-0.92,8.51-1.47c0.59-0.11,1.16-0.52,1.64-0.91c1.62-1.32,3.35-2.43,5.22-3.38c2.34-1.19,4.36-2.83,6.09-4.83
			c0.43-0.5,0.96-0.91,1.44-1.37c-0.03-0.08-0.05-0.15-0.08-0.23c-0.28,0-0.56,0-0.84,0c-3.16,0-6.32-0.02-9.49,0.02
			c-0.61,0.01-0.93-0.18-1.22-0.72c-3.67-6.87-7.37-13.72-11.06-20.57c-0.16-0.29-0.32-0.58-0.56-1.01c-0.21,0.4-0.38,0.7-0.53,1
			c-2.6,5.23-5.21,10.46-7.8,15.71c-0.25,0.52-0.52,0.7-1.12,0.68c-2.77-0.09-5.31,0.66-7.58,2.42c-3.48-5.4-6.92-10.76-10.43-16.21
			c1.93-0.52,3.79-1.01,5.66-1.51c7.23-1.92,14.46-3.84,21.69-5.74c1.49-0.39,1.12-0.6,1.87,0.77c3.86,7.11,7.71,14.22,11.55,21.35
			c0.28,0.52,0.6,0.74,1.2,0.8c3.45,0.34,6.9,0.68,10.33,1.12c1,0.13,1.52-0.49,2.19-0.9c-0.01-0.08,0-0.14-0.03-0.18
			c-0.3-0.54-1.4-0.71-0.83-1.64c0.34-0.56,0.47-1.23,1.23-1.58c0.5-0.23,0.76-0.98,1.1-1.51c0.69-1.06,0.69-1.06,1.77-0.34
			c2.22,1.46,4.45,2.92,6.67,4.38c0.98,0.64,1.04,0.8,0.17,1.61c-0.98,0.92-1.4,2.29-2.62,3.04c-0.64,0.39-1.08,0.54-1.69,0.06
			c-0.32-0.26-0.7-0.44-1.19-0.73c-0.63,1.77-1.64,3.11-3.62,3.33c0.09-0.15,0.19-0.3,0.42-0.66c-0.61,0.09-1.05,0.16-1.49,0.23
			c0.01,0.1,0.01,0.19,0.02,0.29C165.06,89.73,165.42,89.77,165.78,89.81z M139.5,111.41c2.15-0.99,3.98-2.37,5.38-4.3
			c0.17-0.24,0.41-0.47,0.67-0.61c2.12-1.14,4.21-2.35,6.4-3.34c0.73-0.33,1.28-0.72,1.65-1.35c0.85-1.44,2-2.72,1.54-4.67
			c-0.33-1.42-0.51-2.85-1.32-4.17c-0.18,0.22-0.32,0.46-0.29,0.68c0.06,0.38,0.27,0.73,0.35,1.1c0.45,2.11,1.15,4.19-0.49,6.21
			c-0.72,0.89-1.23,1.8-2.4,2.29c-1.75,0.73-3.36,1.81-5.07,2.64c-0.98,0.47-1.75,1.13-2.43,1.95c-0.92,1.11-1.89,2.17-3.26,2.77
			c-0.3,0.13-0.48,0.55-0.71,0.83c-0.66,0.39-1.03,0.93-1.03,1.75c0,0.69-0.07,1.39-0.21,2.06c-0.08,0.41-0.25,0.88-0.54,1.15
			c-1.4,1.26-2.85,2.46-4.28,3.67c-0.14,0.12-0.3,0.22-0.45,0.34c2.42-0.83,4.1-2.61,5.8-4.35c0.17-0.17,0.19-0.51,0.23-0.77
			C139.2,113.99,139.35,112.7,139.5,111.41z M107.5,131.37c-0.25-0.42-0.48-0.85-0.76-1.25c-0.5-0.72-1.22-0.48-1.9-0.41
			c-0.67,0.08-0.51,0.65-0.56,1.03c-0.2,1.45-0.32,2.92-0.53,4.37c-0.3,2.11-0.74,4.2-0.41,6.35c0.24,1.57,1.33,2.77,2.83,3.09
			c0.1-0.33,0.19-0.65,0.29-0.97c-0.94-1.09-0.45-2.44-0.61-3.71c0.78,0.09,1.08,0.46,1.02,1.18c-0.05,0.68,0.01,1.36,0.97,1.89
			c0-1.52,0.01-2.86-0.01-4.21c0-0.38,0.01-0.81-0.16-1.13c-0.81-1.52-0.68-3.09-0.42-4.69c0.09-0.52,0.14-1.04,0.22-1.56
			c0.24,0.08,0.48,0.15,0.75,0.24c-0.11-1.58-0.76-2.46-1.71-2.44C107.11,129.77,107.65,130.42,107.5,131.37z M170.81,83
			c-0.03-0.1-0.05-0.19-0.08-0.29c-0.34,0.04-0.69,0.07-1.03,0.13c-1.33,0.27-2.66,0.55-3.98,0.84c-0.29,0.06-0.61,0.16-0.83,0.34
			c-1.78,1.49-3.67,2.88-5.28,4.54c-1.41,1.44-2.78,2.86-4.62,3.72c-0.45,0.21-0.47,0.45-0.34,0.92c0.42,1.51,0.75,3.05,1.12,4.57
			c0.06,0.25,0.08,0.51,0.13,0.86c0.23-0.18,0.41-0.27,0.53-0.41c2.06-2.46,4.24-4.83,6.11-7.43c1.13-1.57,2.36-2.19,4.18-1.91
			c0.67,0.1,0.97-0.26,0.78-0.94c-0.12-0.42-0.26-0.83-0.4-1.24c0.19,0.05,0.25,0.18,0.36,0.23c0.28,0.16,0.58,0.29,0.88,0.43
			c-0.08-0.32-0.1-0.67-0.24-0.96c-0.18-0.36-0.46-0.67-0.7-1.01c0.05-0.04,0.11-0.08,0.16-0.13c0.42,0.38,0.84,0.77,1.27,1.16
			c0.4-0.84,0.4-0.84-2.4-2.1C168.12,84.3,169.56,83.9,170.81,83z M128.87,93.78c0.17,0.21,0.31,0.39,0.52,0.66
			c-0.4,0-0.69,0-0.96,0c-0.71,1.54-0.11,3.32,1.73,3.19c1.02-0.07,2.02,0.26,2.62,1.28c0.12,0.2,0.47,0.42,0.67,0.39
			c1.18-0.19,2.35-0.45,3.64-0.71c-0.3-0.53-0.44-0.96-0.72-1.23c-0.6-0.58-0.53-1.22-0.36-1.92c0.12-0.51,0.23-1.02,0.31-1.53
			c0.11-0.74,0.19-1.48,0.28-2.22c0.08,0,0.16-0.01,0.24-0.01c-0.35-0.45-0.71-0.89-1.09-1.37c-0.14,0.17-0.24,0.27-0.32,0.38
			c-0.61,0.94-1.41,1.4-2.58,1.23C131.18,91.67,129.95,92.53,128.87,93.78z M167.11,78.22c-0.55,0.86-1.04,1.62-1.54,2.39
			c0.31,0.24,0.57,0.4,0.78,0.61c1.07,1.06,2.27,1.57,3.79,1.01c0.44-0.16,0.99-0.24,1.2,0.37c0.21,0.58-0.17,0.96-0.64,1.2
			c-0.6,0.3-1.24,0.54-1.98,0.86c0.87,0.87,1.67,1.68,2.47,2.48c0.37-0.25,0.59-0.35,0.73-0.5c0.82-0.91,1.62-1.84,2.42-2.76
			c0.16-0.18,0.29-0.38,0.46-0.6C172.22,81.58,169.7,79.93,167.11,78.22z M118.86,129.4c0.09,0.07,0.18,0.14,0.27,0.21
			c0,0.31,0,0.62,0,0.89c0.62,0,1.13,0,1.67,0c0-0.76,0-1.46,0-2.23c-1.99-0.12-3.93-0.23-5.82-0.34c-0.23,0.94-0.43,1.76-0.64,2.63
			c0.85,0,1.65,0.01,2.44,0C117.63,130.54,118.67,130.92,118.86,129.4z M107.84,127.11c-0.82-0.54-1.64-1.03-2.41-1.6
			c-0.19-0.14-0.34-0.51-0.31-0.75c0.08-0.71,0.18-1.44,0.42-2.1c1.86-5.15,3.75-10.29,5.62-15.45c0.12-0.32,0.1-0.69,0.14-1.03
			c-0.08-0.01-0.17-0.03-0.25-0.04c-0.16,0.35-0.34,0.69-0.48,1.04c-0.72,1.83-1.46,3.65-2.13,5.5c-1.27,3.54-2.53,7.09-3.71,10.66
			c-0.21,0.62-0.33,1.55-0.02,2.02C105.4,126.4,106.6,126.82,107.84,127.11z M114.7,124.32c0.08-0.02,0.16-0.04,0.24-0.05
			c-0.04-0.2-0.02-0.44-0.14-0.59c-0.92-1.16-1.12-2.5-1.04-3.92c0.18-3.57,0.38-7.14,0.52-10.71c0.04-0.91-0.09-1.83-0.14-2.75
			c-0.07,0-0.15,0-0.22,0c-0.03,0.2-0.09,0.4-0.1,0.61c-0.24,4.43-0.47,8.85-0.72,13.28C113.02,121.81,113.67,123.14,114.7,124.32z
			 M131.26,84.13c-0.15-0.17-0.18-0.24-0.22-0.25c-0.11-0.03-0.22-0.04-0.33-0.04c-2.26,0.13-4.36,0.73-6.2,2.09
			c-1.28,0.95-2.33,2.09-2.55,3.74c-0.16,1.15-0.18,2.31-0.23,3.47c-0.01,0.2,0.17,0.4,0.26,0.6c0.1-0.01,0.2-0.02,0.29-0.02
			c0.02-2.5-0.15-5.05,1.99-6.91C126.25,85.08,128.58,84.27,131.26,84.13z M138.84,117.09c-0.08-0.04-0.17-0.07-0.25-0.11
			c-0.19,0.41-0.47,0.8-0.55,1.23c-0.13,0.73-0.09,1.5-0.21,2.23c-0.4,2.33,0.29,4.77-0.74,7.11c0.29-0.05,0.6-0.13,0.69-0.31
			c0.23-0.47,0.45-0.97,0.5-1.47c0.11-0.99,0.09-1.99,0.15-2.98C138.56,120.89,138.71,118.99,138.84,117.09z M134.91,89.76
			c-0.05-0.11-0.09-0.23-0.14-0.34c-0.13,0.02-0.26,0.02-0.38,0.06c-1.02,0.29-2.07,0.52-3.06,0.89c-0.99,0.37-2.09,0.7-2.86,1.37
			c-1.84,1.6-3.76,2.81-6.33,2.63c0.32,0.13,0.63,0.22,0.95,0.24c1.87,0.1,3.54-0.54,4.85-1.79c1.5-1.43,3.18-2.22,5.22-2.4
			C133.76,90.36,134.33,89.98,134.91,89.76z M134.86,99.79c-0.27,0.24-0.48,0.34-0.52,0.49c-0.84,2.86-2.2,5.48-3.69,8.05
			C132.97,106,134.42,103.25,134.86,99.79z M136.43,139.87c0.09,0,0.18,0,0.26,0c0-1.17,0-2.35,0-3.56
			c-2.81,0.12-5.55,0.23-8.34,0.35c0.08,0.17,0.12,0.3,0.15,0.3c2.61,0.01,5.22,0.01,7.93,0.01
			C136.43,137.86,136.43,138.87,136.43,139.87z M142.93,98.38c-0.07-0.04-0.15-0.07-0.22-0.11c-0.12,0.27-0.34,0.54-0.35,0.81
			c-0.07,1.62-0.42,3.17-1.1,4.64c-0.32,0.69-0.61,1.39-0.91,2.09C142.23,103.68,143.29,101.27,142.93,98.38z M139.15,110.4
			c-1.23,0.99-2.38,2.1-3.71,2.93c-1.35,0.85-2.86,1.44-4.19,2.09C133.38,115.44,138.47,112.36,139.15,110.4z M127.75,97.34
			c-0.11-0.66-0.23-1.33-0.33-1.95c-0.85,0.41-1.74,0.83-2.61,1.27c-0.13,0.07-0.23,0.28-0.25,0.43c-0.01,0.06,0.23,0.23,0.35,0.23
			C125.87,97.35,126.83,97.34,127.75,97.34z M116.07,101.09c-0.06-0.06-0.11-0.12-0.17-0.19c-0.25,0.18-0.54,0.33-0.75,0.55
			c-0.93,0.99-1.85,1.98-2.75,3c-0.95,1.08-0.94,1.76,0.15,3.16c-0.06-0.51-0.05-0.86-0.14-1.18c-0.21-0.73-0.08-1.3,0.48-1.87
			C114,103.44,115.02,102.25,116.07,101.09z M167.78,82.59c-0.99-0.62-1.87-1.17-2.8-1.75c-0.23,0.42-0.43,0.77-0.6,1.07
			C165.22,83.41,166.4,83.1,167.78,82.59z M128.85,87.82c-1.91,0.37-3.12,2.8-2.46,4.76c0.26-0.82,0.28-1.74,0.65-2.49
			C127.43,89.3,128.15,88.67,128.85,87.82z M145.9,104.5c0.11,0.06,0.23,0.11,0.34,0.17c0.64-1.23,1.28-2.45,1.89-3.69
			c0.05-0.11-0.03-0.35-0.13-0.45c-0.39-0.38-0.81-0.74-1.22-1.1c-0.07,0.04-0.14,0.08-0.21,0.12c1.13,0.99,0.88,1.99,0.21,3.06
			C146.43,103.19,146.2,103.87,145.9,104.5z M121.47,130.78c0.51-0.23,1.02-0.3,1.12-0.53c0.22-0.54,0.24-1.16,0.36-1.82
			c-0.52-0.03-0.96-0.06-1.48-0.09C121.47,129.11,121.47,129.79,121.47,130.78z M104.63,126.12c-0.56,0.81-1.05,1.52-1.54,2.24
			c-0.64,0.94-0.47,1.42,0.7,1.83c-0.05-0.16-0.04-0.34-0.12-0.39c-0.6-0.43-0.4-0.85-0.04-1.31c0.39-0.5,0.75-1.03,1.14-1.53
			C105.08,126.53,104.99,126.26,104.63,126.12z M135.13,126.74c0.86-1.41,1.28-3.23,1.01-4.25c-0.45,1.2-0.89,2.32-1.27,3.45
			C134.81,126.11,135,126.37,135.13,126.74z M149.43,95.81c-0.03,0.1-0.07,0.19-0.1,0.29c0.36,0.24,0.69,0.53,1.08,0.69
			c0.53,0.22,1.32,0.17,1.59,0.54c0.3,0.41,0.13,1.15,0.17,1.75c0,0.04,0.05,0.07,0.12,0.17c0.09-0.74,0.18-1.4,0.25-2
			C151.48,96.76,150.46,96.29,149.43,95.81z M120.65,95.12c0.07-0.04,0.14-0.08,0.21-0.12c-0.24-0.52-0.48-1.04-0.72-1.56
			c-0.11,0.06-0.22,0.12-0.34,0.18C120.08,94.13,120.37,94.62,120.65,95.12z M178.11,42.51c1.17,2.2,2.23,4.21,3.29,6.22
			c2.91,5.51,5.82,11.03,8.73,16.54c0.16,0.3,0.4,0.78,0.63,0.8c1.16,0.08,2.34,0.04,3.58,0.04c-0.14-0.33-0.2-0.52-0.29-0.69
			c-4.58-8.58-9.18-17.16-13.74-25.75c-0.33-0.63-0.68-0.7-1.32-0.54c-11.54,2.87-23.08,5.72-34.62,8.56
			c-10.82,2.67-21.63,5.32-32.45,7.98c-1.29,0.32-2.58,0.65-4.04,1.02c2.26,1.33,4.33,2.56,6.42,3.75c0.25,0.14,0.64,0.13,0.93,0.06
			c7.74-1.95,15.47-3.92,23.21-5.89c1.2-0.31,1.19-0.32,1.76,0.75c4.29,8.17,8.58,16.34,12.85,24.52c0.31,0.59,0.67,0.84,1.33,0.86
			c2.27,0.08,4.54,0.21,6.97,0.33c-0.61-0.26-1.08-0.47-1.67-0.72C165.83,67.73,171.93,55.2,178.11,42.51z M203.54,70.37
			c4.05,7.51,8.11,15.02,12.13,22.55c0.36,0.67,0.75,0.92,1.52,0.92c9.9-0.03,19.8-0.02,29.71-0.02c0.36,0,0.72,0,1.07,0
			c-3.53-0.52-7.06-0.88-10.59-1.26c-6.06-0.65-12.13-1.32-18.19-1.92c-0.88-0.09-1.37-0.4-1.78-1.17
			c-3.39-6.33-6.81-12.64-10.23-18.95c-0.93-1.72-1.87-3.45-2.82-5.19c-12.1,3.23-24.12,6.44-36.35,9.71
			c0.45,0.31,0.64,0.46,0.85,0.59c3.21,2.13,6.43,4.25,9.63,6.39c0.33,0.22,0.65,0.53,0.87,0.86c2.1,3.23,4.17,6.48,6.28,9.7
			c0.19,0.28,0.64,0.54,0.98,0.55c1.33,0.06,2.66,0,3.99,0.04c0.58,0.02,0.88-0.19,1.14-0.72c2.82-5.72,5.66-11.42,8.5-17.13
			c0.92-1.85,1.84-3.7,2.84-5.71C203.32,70,203.44,70.18,203.54,70.37z M120.03,138.93c-0.59,1.9-1.31,3.77-0.94,5.93
			C117.9,144,118.5,140.39,120.03,138.93z M129.16,95.2c-0.25,0.17-0.65,0.3-0.72,0.53c-0.21,0.63,0.8,1.54,1.43,1.32
			c0.11-0.04,0.27-0.19,0.26-0.26c-0.02-0.12-0.15-0.32-0.25-0.33c-0.71-0.09-0.85-0.45-0.52-1.09
			C129.29,95.31,129.22,95.26,129.16,95.2z"/>
	</g>
</g>
<g id="Layer_15">
</g>
</svg>
