<?xml version="1.0" encoding="utf-8"?>
<!-- Generator: Adobe Illustrator 27.8.1, SVG Export Plug-In . SVG Version: 6.00 Build 0)  -->
<svg version="1.1" xmlns="http://www.w3.org/2000/svg" xmlns:xlink="http://www.w3.org/1999/xlink" x="0px" y="0px"
	 viewBox="0 0 350 230" style="enable-background:new 0 0 350 230;" xml:space="preserve">
<style type="text/css">
	.st0{fill:#783232;}
	.st1{fill:#00E9FF;}
	.st2{fill:#0C1E8C;}
	.st3{fill:#FFC100;}
	.st4{fill:#0C6C00;}
	.st5{fill:#23605B;}
	.st6{fill:#FF7E30;}
	.st7{fill:#00D7FD;}
	.st8{fill:#5C00A2;}
	.st9{fill-rule:evenodd;clip-rule:evenodd;}
	.st10{fill:#20B700;}
	.st11{fill:none;}
	.st12{fill:#FFFFFF;}
	.st13{fill:#B000AB;}
	.st14{fill:#FA9720;}
	.st15{fill:#DA1300;}
	.st16{fill:#00F2FF;}
	.st17{fill:#00416A;}
	.st18{fill:#00FFE9;}
	.st19{fill:#017F2E;}
	.st20{fill:#0D302D;}
	.st21{fill:#00FFF2;}
	.st22{fill:#003CAC;}
	.st23{fill:#396D7A;}
	.st24{fill:#440044;}
	.st25{fill:#003D36;}
	.st26{fill:#00B6BF;}
	.st27{fill:#CBA400;}
</style>
<g id="Layer_1">
</g>
<g id="Layer_2">
</g>
<g id="Layer_3">
</g>
<g id="Layer_4">
</g>
<g id="Layer_5">
</g>
<g id="Layer_6">
</g>
<g id="Layer_7">
</g>
<g id="Layer_8">
</g>
<g id="Layer_9">
</g>
<g id="Layer_10">
</g>
<g id="Layer_11">
</g>
<g id="Layer_12">
	<path class="st24" d="M136.85,142.63c1.6-1.5,3.21-2.98,4.77-4.52c0.41-0.4,0.88-0.99,0.89-1.5c0.06-5.3,0.04-10.6,0.04-16.02
		c-1.46-0.07-2.37-0.56-1.72-2.28c3.61,0,7.29,0,11.13,0c0,0.6,0,1.23,0,1.94c-0.5,0.1-1.02,0.2-1.65,0.33c0,2.82,0,5.65,0,8.69
		c8.4-8.45,16.66-16.77,24.96-25.11c8.8,8.83,17.32,17.38,26.15,26.23c0.07-0.87,0.13-1.26,0.13-1.64c0-9.95,0.02-19.91-0.05-29.86
		c-0.01-0.87-0.39-1.93-0.96-2.58c-7.8-8.99-15.66-17.93-23.55-26.85c-0.39-0.44-1.11-0.8-1.68-0.81
		c-9.71-0.05-19.42-0.03-29.13-0.02c-0.17,0-0.35,0.08-0.78,0.18c0,2.62,0.18,5.29-0.04,7.93c-0.34,4.06,0.47,7.67,2.93,10.98
		c1.3,1.75,2.37,3.71,3.34,5.68c0.73,1.47,1.67,2.13,3.29,1.86c0.4-0.07,0.84,0.04,1.41,0.09c0,2.45,0,4.85,0,7.47
		c-0.57,0.03-1.15,0.08-1.74,0.08c-6.96,0.01-13.92-0.03-20.88,0.03c-1.39,0.01-2.02-0.3-1.89-1.82c0.13-1.45,0.08-2.93,0.01-4.39
		c-0.05-1.09,0.32-1.69,1.45-1.46c2.15,0.44,3.25-0.68,4-2.49c0.33-0.78,0.73-1.58,1.27-2.22c5.45-6.42,4.92-14.05,4.38-21.87
		c-2.11,0-4.28,0-6.61,0c0-2.54,0-4.89,0-7.45c14.09,0,28.22,0,42.62,0c0-4.92,0-9.63,0-14.44c13.24,0,26.21,0,39.29,0
		c0,7.25,0,14.37,0,21.76c-2.98,0-5.93,0-9.08,0c0,1.05,0,1.82,0,2.6c0,21.55,0.02,43.11-0.04,64.66c0,1.56,0.43,2.64,1.57,3.63
		c1.19,1.03,2.26,2.2,3.3,3.81c-0.97,0-1.96-0.14-2.9,0.02c-5.23,0.88-8.93-1.18-12.5-5.06c-6.94-7.55-14.42-14.59-21.66-21.85
		c-0.43-0.43-0.72-0.98-1.2-1.64c-4.69,4.71-9.06,9.13-13.45,13.53c-4.61,4.63-9.2,9.27-13.89,13.83c-0.65,0.64-1.76,1.07-2.68,1.12
		c-2.84,0.14-5.68,0.05-8.53,0.05C137.05,143.05,136.95,142.84,136.85,142.63z M201.35,92.95c0.57-2.18-0.13-3.6-1.42-5.03
		c-5.34-5.94-10.62-11.93-15.81-17.99c-1.14-1.34-2.29-1.45-4-1.14C187.27,76.92,194.25,84.86,201.35,92.95z M144.2,85.25
		c-1.97,3.45-3.77,6.6-5.63,9.87c3.91,0,7.57,0,11.43,0C148.04,91.79,146.2,88.66,144.2,85.25z M193.15,68.73
		c2.81,3.2,5.41,6.17,8.26,9.41c0-3.4,0-6.35,0-9.41C198.71,68.73,196.13,68.73,193.15,68.73z M184.98,56.3c0,1.7,0,3.24,0,4.68
		c1.68,0,3.11,0,4.54,0c0-1.62,0-3.1,0-4.68C187.96,56.3,186.53,56.3,184.98,56.3z M196.79,60.99c1.66,0,3.09,0,4.58,0
		c0-1.6,0-3.09,0-4.67c-1.59,0-3.07,0-4.58,0C196.79,57.94,196.79,59.43,196.79,60.99z M209.13,61c1.76,0,3.19,0,4.72,0
		c0-1.6,0-3.08,0-4.68c-1.58,0-3.06,0-4.72,0c0,0.77,0,1.43,0,2.08C209.13,59.23,209.13,60.07,209.13,61z M174.67,140.26
		c0.02-2.43-0.01-2.28-3.43-2.47c-2.32-0.13-2,1.26-1.99,2.65c0.03,3.18-0.17,2.75,2.71,2.77
		C175.03,143.19,174.65,143.49,174.67,140.26z M176.56,138c0,1.75,0,3.36,0,4.95c4.77,1.02,5.29,0.62,5.16-3.91
		c-0.01-0.24-0.03-0.48-0.08-1.03C179.91,138,178.26,138,176.56,138z M169.49,135.9c1.84,0,3.43,0,5.01,0
		c0.66-5.15,0.28-5.55-4.63-5.11c-0.11,0.01-0.22,0.09-0.37,0.16C169.49,132.61,169.49,134.29,169.49,135.9z M176.56,135.96
		c1.72,0,3.32,0,5.01,0c0-1.76,0-3.41,0-5.14c-1.71,0-3.27,0-5.01,0C176.56,132.63,176.56,134.24,176.56,135.96z"/>
</g>
<g id="Layer_13">
</g>
<g id="Layer_14">
</g>
<g id="Layer_15">
</g>
</svg>
