<?xml version="1.0" encoding="utf-8"?>
<!-- Generator: Adobe Illustrator 27.8.1, SVG Export Plug-In . SVG Version: 6.00 Build 0)  -->
<svg version="1.1" xmlns="http://www.w3.org/2000/svg" xmlns:xlink="http://www.w3.org/1999/xlink" x="0px" y="0px"
	 viewBox="0 0 350 230" style="enable-background:new 0 0 350 230;" xml:space="preserve">
<style type="text/css">
	.st0{fill:#783232;}
	.st1{fill:#00E9FF;}
	.st2{fill:#0C1E8C;}
	.st3{fill:#FFC100;}
	.st4{fill:#0C6C00;}
	.st5{fill:#23605B;}
	.st6{fill:#FF7E30;}
	.st7{fill:#00D7FD;}
	.st8{fill:#5C00A2;}
	.st9{fill-rule:evenodd;clip-rule:evenodd;}
	.st10{fill:#20B700;}
	.st11{fill:none;}
	.st12{fill:#FFFFFF;}
	.st13{fill:#B000AB;}
	.st14{fill:#FA9720;}
	.st15{fill:#DA1300;}
	.st16{fill:#00F2FF;}
	.st17{fill:#00416A;}
	.st18{fill:#00FFE9;}
	.st19{fill:#017F2E;}
	.st20{fill:#0D302D;}
	.st21{fill:#00FFF2;}
	.st22{fill:#003CAC;}
	.st23{fill:#396D7A;}
	.st24{fill:#440044;}
	.st25{fill:#003D36;}
	.st26{fill:#00B6BF;}
	.st27{fill:#CBA400;}
</style>
<g id="Layer_1">
</g>
<g id="Layer_2">
</g>
<g id="Layer_3">
</g>
<g id="Layer_4">
</g>
<g id="Layer_5">
</g>
<g id="Layer_6">
</g>
<g id="Layer_7">
</g>
<g id="Layer_8">
</g>
<g id="Layer_9">
</g>
<g id="Layer_10">
	<g>
		<path class="st19" d="M226.79,88.87c-5.44-4.94-10.86-9.91-16.34-14.8c-7.66-6.84-15.39-13.6-23.07-20.41
			c-3.97-3.52-7.91-7.07-11.85-10.62c-0.47-0.43-0.81-0.74-1.45-0.15c-3.79,3.47-7.62,6.9-11.44,10.33
			c-4.76,4.27-9.54,8.51-14.3,12.78c-3.39,3.03-6.77,6.07-10.14,9.13c-1.9,1.73-3.71,3.55-5.63,5.27c-2.17,1.94-4.41,3.79-6.6,5.7
			c-1.08,0.94-2.12,1.9-3.18,2.86c0.52,0.27,0.92,0.27,1.32,0.27c3.93,0,7.86,0.01,11.79,0c2.58,0,2.58-0.01,2.57,2.58
			c0,1.31,0,2.62-0.01,3.93h72.61V89.4h16.15C226.99,89.11,226.91,88.97,226.79,88.87z M132.76,88.9h-5.9v-0.12h5.9V88.9z"/>
		<path class="st20" d="M226.79,94.42c-5.44-4.94-10.86-9.91-16.34-14.8c-7.66-6.84-15.39-13.6-23.07-20.41
			c-3.97-3.52-7.91-7.07-11.85-10.62c-0.47-0.43-0.81-0.74-1.45-0.15c-3.79,3.47-7.62,6.9-11.44,10.33
			c-4.76,4.27-9.54,8.51-14.3,12.78c-3.39,3.03-6.77,6.07-10.14,9.13c-1.9,1.73-3.71,3.55-5.63,5.27c-2.17,1.94-4.41,3.79-6.6,5.7
			c-1.08,0.94-2.12,1.9-3.18,2.86c0.52,0.27,0.92,0.27,1.32,0.27c3.93,0,7.86,0.01,11.79,0c2.58,0,2.58-0.01,2.57,2.58
			c0,1.31,0,2.62-0.01,3.93h72.61v-6.33h16.15C226.99,94.66,226.91,94.52,226.79,94.42z M132.76,94.46h-5.9v-0.12h5.9V94.46z"/>
		<path class="st21" d="M226.79,99.01c-5.44-4.94-10.86-9.91-16.34-14.8c-7.66-6.84-15.39-13.6-23.07-20.41
			c-3.97-3.52-7.91-7.07-11.85-10.62c-0.47-0.43-0.81-0.74-1.45-0.15c-3.79,3.47-7.62,6.9-11.44,10.33
			c-4.76,4.27-9.54,8.51-14.3,12.78c-3.39,3.03-6.77,6.07-10.14,9.13c-1.9,1.73-3.71,3.55-5.63,5.27c-2.17,1.94-4.41,3.79-6.6,5.7
			c-1.08,0.94-2.12,1.9-3.18,2.86c0.52,0.27,0.92,0.27,1.32,0.27c3.93,0,7.86,0.01,11.79,0c2.58,0,2.58-0.01,2.57,2.58
			c0,1.31,0,2.62-0.01,3.93h72.61v-6.33h16.15C226.99,99.25,226.91,99.12,226.79,99.01z M132.76,99.05h-5.9v-0.12h5.9V99.05z"/>
		<path class="st22" d="M138.42,151.44c0-0.54,0-0.95,0-1.36c0.02-14.38,0.03-28.76,0.05-43.15c0-2.59,0.01-2.59-2.58-2.58
			c-3.93,0-7.86,0-11.79,0c-0.4,0-0.8,0-1.32-0.27c1.06-0.95,2.11-1.92,3.18-2.86c2.2-1.91,4.44-3.76,6.6-5.7
			c1.91-1.71,3.73-3.54,5.63-5.27c3.36-3.06,6.75-6.1,10.14-9.14c4.76-4.26,9.54-8.51,14.3-12.78c3.83-3.43,7.65-6.86,11.44-10.33
			c0.64-0.58,0.98-0.27,1.45,0.15c3.94,3.55,7.88,7.1,11.85,10.62c7.68,6.81,15.41,13.58,23.07,20.41
			c5.49,4.89,10.9,9.86,16.34,14.8c0.11,0.1,0.2,0.24,0.43,0.53c-5.46,0-10.73,0-16.15,0c0,15.7,0,31.27,0,46.9
			C186.83,151.44,162.72,151.44,138.42,151.44z M162.37,126.81c3.76,0,7.4,0,11.16,0c0-3.53,0.02-6.96-0.04-10.38
			c0-0.25-0.56-0.7-0.86-0.7c-3.13-0.06-6.27-0.06-9.4-0.02c-0.29,0-0.82,0.4-0.82,0.62C162.35,119.79,162.37,123.26,162.37,126.81z
			 M187.09,126.92c0-3.65,0.02-7.08-0.04-10.5c0-0.25-0.64-0.69-0.98-0.7c-3.01-0.06-6.02-0.01-9.03-0.05
			c-0.88-0.01-1.16,0.31-1.14,1.17c0.05,2.34,0.02,4.68,0.02,7.02c0,3.05,0,3.05,2.99,3.05
			C181.57,126.92,184.24,126.92,187.09,126.92z M162.36,134.86c0,1.54,0.03,3.09-0.01,4.63c-0.02,0.77,0.27,1.02,1.01,1.02
			c3.05-0.03,6.1-0.03,9.14-0.01c0.72,0.01,1.06-0.19,1.05-0.99c-0.03-3.09-0.04-6.18-0.01-9.27c0.01-0.77-0.28-1.02-1.02-1.02
			c-3.05,0.02-6.1,0.03-9.14-0.01c-0.85-0.01-1.06,0.35-1.04,1.13C162.39,131.86,162.36,133.36,162.36,134.86z M187.1,129.47
			c-0.26-0.1-0.38-0.18-0.49-0.18c-3.3-0.02-6.59-0.02-9.89-0.04c-0.81,0-0.8,0.53-0.8,1.1c0,3.01,0.02,6.01-0.02,9.01
			c-0.01,0.88,0.29,1.16,1.16,1.15c2.84-0.04,5.68-0.09,8.51,0.02c1.33,0.05,1.67-0.41,1.55-1.63c-0.1-0.99-0.02-2-0.02-3
			C187.1,133.74,187.1,131.58,187.1,129.47z M132.77,104.05c0-0.04,0-0.08,0-0.12c-1.97,0-3.94,0-5.9,0c0,0.04,0,0.08,0,0.12
			C128.83,104.05,130.8,104.05,132.77,104.05z"/>
	</g>
</g>
<g id="Layer_11">
</g>
<g id="Layer_12">
</g>
<g id="Layer_13">
</g>
<g id="Layer_14">
</g>
<g id="Layer_15">
</g>
</svg>
