<?xml version="1.0" encoding="utf-8"?>
<!-- Generator: Adobe Illustrator 27.8.1, SVG Export Plug-In . SVG Version: 6.00 Build 0)  -->
<svg version="1.1" xmlns="http://www.w3.org/2000/svg" xmlns:xlink="http://www.w3.org/1999/xlink" x="0px" y="0px"
	 viewBox="0 0 350 230" style="enable-background:new 0 0 350 230;" xml:space="preserve">
<style type="text/css">
	.st0{fill:#783232;}
	.st1{fill:#00E9FF;}
	.st2{fill:#0C1E8C;}
	.st3{fill:#FFC100;}
	.st4{fill:#0C6C00;}
	.st5{fill:#23605B;}
	.st6{fill:#FF7E30;}
	.st7{fill:#00D7FD;}
	.st8{fill:#5C00A2;}
	.st9{fill-rule:evenodd;clip-rule:evenodd;}
	.st10{fill:#20B700;}
	.st11{fill:none;}
	.st12{fill:#FFFFFF;}
	.st13{fill:#B000AB;}
	.st14{fill:#FA9720;}
	.st15{fill:#DA1300;}
	.st16{fill:#00F2FF;}
	.st17{fill:#00416A;}
	.st18{fill:#00FFE9;}
	.st19{fill:#017F2E;}
	.st20{fill:#0D302D;}
	.st21{fill:#00FFF2;}
	.st22{fill:#003CAC;}
	.st23{fill:#396D7A;}
	.st24{fill:#440044;}
	.st25{fill:#003D36;}
	.st26{fill:#00B6BF;}
	.st27{fill:#CBA400;}
</style>
<g id="Layer_1">
</g>
<g id="Layer_2">
</g>
<g id="Layer_3">
</g>
<g id="Layer_4">
</g>
<g id="Layer_5">
</g>
<g id="Layer_6">
</g>
<g id="Layer_7">
</g>
<g id="Layer_8">
	<g>
		<path class="st15" d="M241.61,112.77c-4.99,5.23-11.15,8.57-17.96,10.77c-15.61,5.06-31.13,3.81-46.49-1.06
			c-8.68-2.75-17.35-5.23-26.56-4.98c-15.59,0.43-28.59,6.9-39.95,17.14c-1.95,1.76-3.68,3.78-6.07,5.29
			c0.47-0.81,0.91-1.64,1.41-2.43c14.91-23.58,42.99-32.97,69.32-23.27c13.99,5.16,28.35,7.88,43.33,5.93
			c7.17-0.93,14-2.99,20.47-6.23C239.94,113.54,240.78,113.16,241.61,112.77z M244.4,130.75c-12.94,5.07-26.18,5.85-39.76,3.11
			c-10.18-2.05-19.44-6.49-28.93-10.44c-20.08-8.36-39.24-6.6-57.06,6.26c-4.81,3.47-8.94,7.67-12.6,12.64
			c0.52,0,0.73,0.07,0.83-0.01c0.61-0.45,1.19-0.93,1.77-1.4c21.24-17.16,44.14-20.82,69.14-8.76c10.9,5.26,22.43,8.32,34.65,8.4
			c12,0.07,23.13-2.73,32.98-10.11C245.07,130.55,244.73,130.62,244.4,130.75z M231.14,101.57c-0.65,0.19-1.32,0.35-1.95,0.59
			c-2.61,0.99-5.18,2.1-7.83,2.99c-11.48,3.86-23.25,4.71-35.17,2.85c-7.72-1.2-15.32-3.16-23.06-4.16
			c-21.77-2.8-39.3,4.97-52.84,22.05c-0.97,1.23-1.64,2.69-2.46,4.04c0.2,0.13,0.4,0.27,0.6,0.4c0.69-0.61,1.43-1.17,2.06-1.83
			c5.25-5.45,10.96-10.49,17.99-13.3c6.06-2.42,12.49-4.16,18.91-5.42c10.16-1.99,20.02,1.15,29.89,2.95
			c15.03,2.74,29.68,2.15,43.76-4.21c3.68-1.66,7.05-4.01,10.56-6.04C231.45,102.19,231.29,101.88,231.14,101.57z"/>
		<path class="st16" d="M132.26,105.02c9.85-13.75,21.64-25.74,34.15-37.48c-2.76-3.51-5.5-7-8.23-10.49
			c0.17-0.18,0.35-0.35,0.52-0.53c3.46,2.81,6.92,5.61,10.44,8.47c3.58-2.91,7.12-5.79,10.66-8.67c0.17,0.16,0.34,0.31,0.5,0.47
			c-2.76,3.49-5.52,6.99-7.74,9.8c3.65,4.14,7.23,8.2,10.81,12.27c0.23-0.1,0.47-0.21,0.7-0.31c0-2.67,0-5.34,0-8.15
			c2.97,0,5.57,0,8.59,0c0,5.02,0.08,9.99-0.04,14.96c-0.05,2.11,0.53,3.7,1.96,5.31c3.94,4.43,7.67,9.05,11.17,13.9
			c-6.98-4.59-12.99-10.28-19.08-15.89c-6.11-5.63-12.33-11.14-18.68-16.87C157.64,82.98,145.89,95,132.26,105.02z M168.7,78.45
			c-2.49,0.03-4.47,2.01-4.52,4.51c-0.05,2.56,2.11,4.73,4.65,4.69c2.39-0.04,4.52-2.15,4.56-4.54
			C173.43,80.58,171.25,78.42,168.7,78.45z"/>
	</g>
</g>
<g id="Layer_9">
</g>
<g id="Layer_10">
</g>
<g id="Layer_11">
</g>
<g id="Layer_12">
</g>
<g id="Layer_13">
</g>
<g id="Layer_14">
</g>
<g id="Layer_15">
</g>
</svg>
