<?xml version="1.0" encoding="utf-8"?>
<!-- Generator: Adobe Illustrator 27.8.1, SVG Export Plug-In . SVG Version: 6.00 Build 0)  -->
<svg version="1.1" xmlns="http://www.w3.org/2000/svg" xmlns:xlink="http://www.w3.org/1999/xlink" x="0px" y="0px"
	 viewBox="0 0 350 230" style="enable-background:new 0 0 350 230;" xml:space="preserve">
<style type="text/css">
	.st0{fill:#783232;}
	.st1{fill:#00E9FF;}
	.st2{fill:#0C1E8C;}
	.st3{fill:#FFC100;}
	.st4{fill:#0C6C00;}
	.st5{fill:#23605B;}
	.st6{fill:#FF7E30;}
	.st7{fill:#00D7FD;}
	.st8{fill:#5C00A2;}
	.st9{fill-rule:evenodd;clip-rule:evenodd;}
	.st10{fill:#20B700;}
	.st11{fill:none;}
	.st12{fill:#FFFFFF;}
	.st13{fill:#B000AB;}
	.st14{fill:#FA9720;}
	.st15{fill:#DA1300;}
	.st16{fill:#00F2FF;}
	.st17{fill:#00416A;}
	.st18{fill:#00FFE9;}
	.st19{fill:#017F2E;}
	.st20{fill:#0D302D;}
	.st21{fill:#00FFF2;}
	.st22{fill:#003CAC;}
	.st23{fill:#396D7A;}
	.st24{fill:#440044;}
	.st25{fill:#003D36;}
	.st26{fill:#00B6BF;}
	.st27{fill:#CBA400;}
</style>
<g id="Layer_1">
</g>
<g id="Layer_2">
</g>
<g id="Layer_3">
</g>
<g id="Layer_4">
</g>
<g id="Layer_5">
</g>
<g id="Layer_6">
</g>
<g id="Layer_7">
</g>
<g id="Layer_8">
</g>
<g id="Layer_9">
</g>
<g id="Layer_10">
</g>
<g id="Layer_11">
</g>
<g id="Layer_12">
</g>
<g id="Layer_13">
	<path class="st25" d="M118.73,74.26c-0.44,0.71-0.77,1.53-1.34,2.11c-4.69,4.73-6.08,10.76-6.85,17.06
		c-0.23,1.93,0.48,3.18,2.49,3.39c6.13,0.65,12.27,1.76,18.41,1.8c38.43,0.22,76.87,0.19,115.3,0.25c4.78,0.01,4.85,0.09,4.84,4.99
		c0,1.92-0.07,3.84,0.01,5.75c0.1,2.31-0.87,3.31-3.22,3.26c-4.64-0.09-9.28-0.04-13.92-0.04c-36.32-0.05-72.63-0.15-108.95-0.05
		c-3.87,0.01-7.77,1.06-11.57,2c-1.09,0.27-2.67,1.87-2.64,2.81c0.11,3.95,0.78,7.88,1.18,11.82c0.22,2.16,0.42,4.34,0.39,6.5
		c-0.01,0.43-1.1,1.11-1.76,1.2c-1.79,0.24-3.61,0.33-5.42,0.3c-5.41-0.07-7.06-3.2-4.53-8.24c2-3.99,1.72-8.21,0.75-12.41
		c-0.12-0.54-0.55-1.2-1.02-1.44c-2.59-1.29-2.59-3.55-2.42-5.93c0.91-13.29,6.03-24.54,16.23-33.29c0.76-0.65,1.6-1.22,2.43-1.8
		c0.32-0.22,0.69-0.37,1.03-0.55C118.34,73.91,118.53,74.09,118.73,74.26z M249.48,102.05c0.05-0.43,0.11-0.87,0.16-1.3
		c-42.4-0.06-84.8-0.14-127.37-0.19c0,2.41,0,4.47,0,6.98c0.45-2.17,0.82-3.89,1.15-5.49C165.62,102.05,207.55,102.05,249.48,102.05
		z M103.51,129.53c0.3-1.17,0.64-1.94,0.68-2.73c0.28-4.93,1.8-10.11-2.97-14.05c-0.58-0.48-0.62-1.84-0.6-2.8
		c0.07-6.14,1.56-11.97,4.15-17.52c1.04-2.24,2.2-4.42,3.3-6.63c-5.72,7.74-8.59,16.4-8.36,26.02c0.01,0.6,0.42,1.43,0.9,1.73
		c2.28,1.39,2.99,3.58,2.95,5.95c-0.06,3.56-0.45,7.12-0.71,10.88c0.8-0.05,2.08-0.13,3.35-0.21c0.01-0.09,0.01-0.18,0.02-0.27
		C105.36,129.78,104.51,129.66,103.51,129.53z M131.97,95.07c2.13-2.13,3.86-3.91,5.63-5.64c5.33-5.23,10.71-10.4,15.99-15.68
		c1.16-1.16,2.14-1.72,3.6-0.66c0.4,0.29,0.91,0.43,1.37,0.63c2.65,1.17,5.52,3.58,7.88,3.15c2.41-0.44,4.32-3.66,6.41-5.69
		c4.49-4.35,8.96-8.73,13.44-13.09c0.13-0.13,0.36-0.15,0.79-0.32c5.97,5.83,12.09,11.67,18.02,17.69c1.62,1.64,2.83,1.94,4.88,0.81
		c2.71-1.5,5.82-3.85,8.42-3.48c2.45,0.35,4.48,3.74,6.64,5.85c4.92,4.78,9.81,9.59,14.7,14.4c0.54,0.53,1.03,1.11,1.88,2.03
		C204.95,95.07,168.8,95.07,131.97,95.07z M186.93,60.39c-3.72,3.91-7.13,7.47-10.99,11.52c3.92-3.4,7.35-6.37,10.87-9.42
		c3.44,2.97,6.64,5.73,9.83,8.48c0.02-0.04,0.04-0.08,0.05-0.12C193.51,67.45,190.33,64.03,186.93,60.39z M180.86,80.92
		c0,1.87,0,3.42,0,5.05c1.74,0,3.28,0,4.91,0c0-1.78,0-3.39,0-5.05C184.03,80.92,182.56,80.92,180.86,80.92z M187.75,85.95
		c1.87,0,3.42,0,5.07,0c0-1.73,0-3.27,0-4.9c-1.78,0-3.39,0-5.07,0C187.75,82.77,187.75,84.24,187.75,85.95z M187.71,78.93
		c1.87,0,3.47,0,5.09,0c-0.6-4.08-1.99-5.51-5.09-5.37C187.71,75.24,187.71,76.93,187.71,78.93z M185.85,73.38
		c-3.4,0.38-4.74,1.97-4.86,5.54c1.62,0,3.25,0,4.86,0C185.85,76.9,185.85,75.15,185.85,73.38z M194.03,88.47
		c0-0.13-0.01-0.25-0.01-0.38c-4.84,0-9.68,0-14.52,0c0,0.13,0,0.25,0,0.38C184.34,88.47,189.18,88.47,194.03,88.47z"/>
</g>
<g id="Layer_14">
</g>
<g id="Layer_15">
</g>
</svg>
