<?xml version="1.0" encoding="utf-8"?>
<!-- Generator: Adobe Illustrator 27.8.1, SVG Export Plug-In . SVG Version: 6.00 Build 0)  -->
<svg version="1.1" xmlns="http://www.w3.org/2000/svg" xmlns:xlink="http://www.w3.org/1999/xlink" x="0px" y="0px"
	 viewBox="0 0 350 230" style="enable-background:new 0 0 350 230;" xml:space="preserve">
<style type="text/css">
	.st0{fill:#783232;}
	.st1{fill:#00E9FF;}
	.st2{fill:#0C1E8C;}
	.st3{fill:#FFC100;}
	.st4{fill:#0C6C00;}
	.st5{fill:#23605B;}
	.st6{fill:#FF7E30;}
	.st7{fill:#00D7FD;}
	.st8{fill:#5C00A2;}
	.st9{fill-rule:evenodd;clip-rule:evenodd;}
	.st10{fill:#20B700;}
	.st11{fill:none;}
	.st12{fill:#FFFFFF;}
	.st13{fill:#B000AB;}
	.st14{fill:#FA9720;}
	.st15{fill:#DA1300;}
	.st16{fill:#00F2FF;}
	.st17{fill:#00416A;}
	.st18{fill:#00FFE9;}
	.st19{fill:#017F2E;}
	.st20{fill:#0D302D;}
	.st21{fill:#00FFF2;}
	.st22{fill:#003CAC;}
	.st23{fill:#396D7A;}
	.st24{fill:#440044;}
	.st25{fill:#003D36;}
	.st26{fill:#00B6BF;}
	.st27{fill:#CBA400;}
</style>
<g id="Layer_1">
</g>
<g id="Layer_2">
</g>
<g id="Layer_3">
</g>
<g id="Layer_4">
</g>
<g id="Layer_5">
	<g>
		<path class="st7" d="M217.36,86.97c-0.73,0.29-1.42,0.59-2.13,0.85c-0.44,0.16-0.61,0.4-0.6,0.9c0.03,1.72,0.03,3.44,0,5.16
			c-0.01,0.45,0.1,0.73,0.54,0.86c0.19,0.06,0.38,0.14,0.57,0.22c1.64,0.67,1.63,0.67,1.34,2.39c-0.2,1.17-0.43,2.34-0.6,3.52
			c-0.1,0.65-0.34,1.03-1.07,0.93c-0.27-0.04-0.56,0-0.83,0c-1.23,0-1.2,0.01-1.6,1.14c-0.5,1.43-1.02,2.86-1.58,4.27
			c-0.19,0.47-0.23,0.81,0.23,1.1c0.11,0.07,0.19,0.17,0.28,0.26c1.43,1.29,1.43,1.29,0.45,2.98c-0.6,1.03-1.23,2.04-1.77,3.1
			c-0.27,0.51-0.57,0.56-1.03,0.37c-0.52-0.2-1.05-0.36-1.57-0.56c-0.39-0.15-0.64-0.07-0.91,0.26c-1.1,1.35-2.22,2.7-3.37,4.01
			c-0.37,0.42-0.15,0.66,0.08,0.97c2.06,2.82,4.12,5.65,6.17,8.47c0.14,0.2,0.28,0.41,0.46,0.69c-3.59,0-7.09,0-10.69,0
			c0-1.27-0.08-2.53,0.02-3.78c0.13-1.53-0.36-2.72-1.27-3.95c-7.66-10.43-15.25-20.91-22.87-31.37c-0.16-0.22-0.33-0.44-0.55-0.73
			c-0.17,0.19-0.32,0.35-0.44,0.52c-7.99,10.97-15.97,21.95-23.95,32.93c-0.19,0.26-0.3,0.64-0.31,0.97
			c-0.03,1.52-0.01,3.04-0.01,4.56c0,0.27,0,0.55,0,0.86c-3.59,0-7.09,0-10.72,0c2.39-3.29,4.71-6.49,7.02-9.66
			c-1.29-1.58-2.53-3.11-3.8-4.61c-0.13-0.16-0.48-0.24-0.71-0.2c-0.42,0.07-0.82,0.26-1.23,0.39c-1.13,0.38-1.13,0.38-1.71-0.62
			c-0.75-1.29-1.48-2.6-2.24-3.88c-0.22-0.37-0.21-0.63,0.13-0.91c0.47-0.38,0.96-0.76,1.36-1.21c0.18-0.21,0.29-0.64,0.2-0.9
			c-0.55-1.65-1.18-3.28-1.75-4.93c-0.16-0.45-0.36-0.68-0.86-0.65c-0.56,0.03-1.12-0.02-1.67,0c-0.43,0.02-0.65-0.12-0.73-0.56
			c-0.28-1.7-0.57-3.39-0.88-5.08c-0.08-0.42,0.08-0.6,0.44-0.73c0.57-0.2,1.13-0.45,1.7-0.65c0.4-0.14,0.52-0.38,0.51-0.8
			c-0.02-1.75-0.03-3.49,0-5.24c0.01-0.45-0.12-0.71-0.55-0.85c-0.57-0.2-1.15-0.4-1.69-0.67c-0.19-0.1-0.41-0.45-0.38-0.65
			c0.26-1.7,0.58-3.39,0.86-5.09c0.07-0.43,0.26-0.58,0.7-0.59c0.77-0.01,1.76,0.18,2.27-0.22c0.52-0.4,0.56-1.41,0.83-2.14
			c0.39-1.04,0.79-2.08,1.22-3.11c0.19-0.46,0.22-0.81-0.25-1.11c-0.19-0.12-0.34-0.3-0.51-0.45c-1.21-1.07-1.21-1.07-0.41-2.44
			c0.66-1.14,1.34-2.27,1.97-3.42c0.24-0.44,0.53-0.56,0.99-0.37c0.3,0.13,0.62,0.22,0.93,0.32c1.44,0.46,1.06,0.59,2.03-0.59
			c0.93-1.14,1.87-2.26,2.86-3.35c0.39-0.43,0.51-0.78,0.15-1.25c-0.05-0.06-0.07-0.13-0.11-0.2c-0.94-1.76-0.94-1.76,0.57-3.03
			c0.93-0.78,1.88-1.54,2.8-2.34c0.33-0.28,0.57-0.32,0.91-0.02c0.45,0.41,0.91,0.82,1.43,1.13c0.24,0.14,0.69,0.17,0.92,0.04
			c1.58-0.86,3.13-1.77,4.67-2.69c0.19-0.11,0.26-0.42,0.38-0.64c0.02-0.04-0.02-0.1-0.02-0.15c-0.08-0.77-0.48-1.74-0.16-2.26
			c0.33-0.53,1.36-0.64,2.1-0.91c0.97-0.36,1.96-0.69,2.92-1.07c0.47-0.19,0.78-0.09,0.99,0.36c0.01,0.02,0.03,0.04,0.04,0.06
			c0.39,0.59,0.65,1.45,1.19,1.7c0.53,0.24,1.35-0.16,2.04-0.27c1.22-0.2,2.45-0.41,3.67-0.57c0.42-0.05,0.63-0.2,0.7-0.62
			c0.1-0.6,0.2-1.21,0.39-1.77c0.08-0.24,0.41-0.54,0.64-0.55c1.7-0.05,3.39-0.02,5.09-0.03c0.44,0,0.65,0.2,0.72,0.61
			c0.1,0.55,0.24,1.09,0.3,1.64c0.06,0.49,0.3,0.69,0.77,0.76c1.72,0.28,3.44,0.57,5.15,0.9c0.45,0.09,0.71-0.02,0.92-0.42
			c0.26-0.49,0.58-0.95,0.85-1.44c0.22-0.4,0.47-0.53,0.92-0.35c1.56,0.59,3.13,1.17,4.71,1.72c0.45,0.16,0.57,0.4,0.5,0.85
			c-0.12,0.75-0.47,1.63-0.2,2.21c0.25,0.54,1.19,0.75,1.82,1.12c1,0.59,2.02,1.16,2.98,1.81c0.48,0.32,0.8,0.29,1.2-0.07
			c0.31-0.29,0.7-0.51,0.99-0.82c0.5-0.53,0.89-0.52,1.45-0.01c1.16,1.06,2.37,2.05,3.59,3.04c0.36,0.3,0.44,0.53,0.2,0.95
			c-0.38,0.68-1.01,1.42-0.95,2.07c0.06,0.62,0.9,1.15,1.38,1.73c0.72,0.88,1.46,1.75,2.13,2.67c0.32,0.43,0.62,0.51,1.09,0.32
			c0.54-0.22,1.09-0.42,1.66-0.54c0.22-0.05,0.61,0.07,0.72,0.24c0.89,1.47,1.73,2.98,2.6,4.46c0.23,0.39,0.18,0.71-0.18,0.91
			c-1.78,0.95-1.75,2.22-0.88,3.84c0.53,0.99,0.78,2.13,1.13,3.22c0.13,0.42,0.31,0.66,0.8,0.6c0.3-0.04,0.6,0.04,0.91,0.04
			c1.73,0.05,1.4-0.12,1.71,1.51C216.86,83.86,217.09,85.39,217.36,86.97z M195.29,108.07c8.04-9.19,8.97-25.31-1.97-35.87
			c-10.9-10.53-28.34-9.73-38.29,1.75c-9.66,11.15-7.4,26.31-0.35,34.02c6.75-8.81,13.5-17.63,20.32-26.52
			C181.78,90.35,188.52,99.19,195.29,108.07z M200.1,114.67c11.95-12.49,13.13-33.88-0.86-47.77
			c-14.35-14.24-37.27-13.27-50.37,2.04c-12.6,14.73-9.59,34.97,1.06,45.69c0.62-0.86,1.24-1.7,1.85-2.53
			c-11.45-12.97-10.15-32.01,1.57-43.3c11.55-11.12,29.6-11.72,41.87-1.28c6.1,5.19,9.72,11.82,10.69,19.77
			c1.15,9.36-1.52,17.62-7.68,24.8C198.85,112.95,199.46,113.78,200.1,114.67z"/>
		<path class="st8" d="M244.34,152c-1.21-0.42-2.42-0.85-3.63-1.27c-9.64-3.28-19.52-5.52-29.57-7.1
			c-7.61-1.2-15.27-1.97-22.96-2.38c-7.74-0.42-15.49-0.48-23.24-0.15c-17.21,0.74-34.17,3.1-50.71,8.06
			c-2.66,0.8-5.28,1.75-7.92,2.63c-0.21,0.07-0.41,0.14-0.7,0.06c1.38-0.93,2.73-1.91,4.14-2.79c6.28-3.91,13.09-6.61,20.15-8.72
			c9.4-2.81,19.01-4.46,28.76-5.35c9.25-0.84,18.51-0.98,27.77-0.39c12.12,0.77,24.05,2.65,35.64,6.35c7.29,2.33,14.28,5.3,20.6,9.7
			c0.58,0.4,1.14,0.83,1.71,1.25C244.37,151.93,244.36,151.96,244.34,152z M166.85,125.64c0,1.24,0.01,2.48-0.01,3.72
			c-0.01,0.45,0.17,0.64,0.62,0.63c1.85-0.01,3.69-0.01,5.54,0c0.44,0,0.64-0.17,0.64-0.62c-0.01-2.4-0.01-4.8,0.01-7.2
			c0-0.49-0.2-0.66-0.68-0.65c-1.82,0.02-3.64,0.02-5.46,0c-0.55-0.01-0.69,0.22-0.68,0.72
			C166.86,123.37,166.85,124.51,166.85,125.64C166.85,125.64,166.85,125.64,166.85,125.64z M173.65,115.44c0-1.19-0.01-2.38,0-3.57
			c0-0.44-0.09-0.71-0.63-0.7c-1.87,0.02-3.74,0.01-5.61,0c-0.43,0-0.57,0.17-0.57,0.59c0.01,2.4,0.02,4.8,0,7.21
			c0,0.49,0.16,0.68,0.66,0.68c1.82-0.01,3.64-0.02,5.46,0.01c0.54,0.01,0.71-0.21,0.7-0.72
			C173.64,117.76,173.65,116.6,173.65,115.44C173.65,115.44,173.65,115.44,173.65,115.44z M176.36,115.38
			c0,1.14,0.02,2.28-0.01,3.41c-0.02,0.6,0.15,0.87,0.8,0.85c1.74-0.03,3.49-0.02,5.23,0c0.58,0.01,0.8-0.18,0.79-0.79
			c-0.03-2.33-0.02-4.65,0-6.98c0-0.5-0.12-0.73-0.67-0.72c-1.82,0.03-3.64,0.02-5.46,0c-0.49-0.01-0.68,0.16-0.67,0.65
			C176.38,113,176.37,114.19,176.36,115.38C176.36,115.38,176.36,115.38,176.36,115.38z M183.17,122.24
			c0.01-0.5-0.12-0.74-0.68-0.73c-1.82,0.02-3.64,0.02-5.46,0c-0.49-0.01-0.68,0.18-0.68,0.66c0.01,2.38,0.02,4.75,0,7.13
			c0,0.54,0.22,0.7,0.73,0.7c1.79-0.02,3.59-0.02,5.38,0c0.52,0.01,0.71-0.18,0.7-0.71c-0.03-1.16-0.01-2.33-0.01-3.49
			C183.16,124.61,183.15,123.42,183.17,122.24z M192.8,102.25c-1.74-2.29-3.38-4.44-5.13-6.73c1.4,0,2.67,0,3.98,0
			c0.02-0.35,0.03-0.6,0.05-0.99c-0.73,0-1.43,0-2.13,0c-0.2,0-0.41-0.04-0.61,0.01c-1.92,0.45-2.84-0.72-3.65-2.27
			c2.12,0,4.2,0,6.33,0c0-0.38,0-0.67,0-1.09c-0.38,0-0.75,0-1.12,0c-1.77,0-3.55-0.03-5.32,0.01c-0.62,0.01-1.05-0.15-1.38-0.7
			c-0.27-0.44-0.62-0.84-1.03-1.38c3.04,0,5.91,0,8.83,0c0-0.39,0-0.69,0-1.05c-2.99,0-5.94,0-8.96,0
			c-0.05,0.16-0.11,0.36-0.19,0.64c-0.86-1.13-1.68-2.18-2.46-3.26c-0.13-0.18-0.17-0.47-0.17-0.71c-0.02-1.04-0.01-2.08-0.01-3.12
			c0-0.58-0.2-1.04-0.83-1.05c-0.68-0.01-0.89,0.45-0.86,1.07c0.02,0.38,0,0.75,0,1.37c-1.11-1.45-2.09-2.73-3.14-4.11
			c-0.91,1.17-1.76,2.28-2.74,3.54c-0.02-0.51,0.06-0.88-0.07-1.12c-0.17-0.31-0.49-0.67-0.8-0.73c-0.46-0.09-0.82,0.24-0.83,0.76
			c-0.02,0.71-0.06,1.42,0.01,2.13c0.08,0.87-0.21,1.54-0.76,2.2c-0.88,1.06-1.69,2.18-2.68,3.46c0-1.79,0-3.35,0-4.9
			c0-0.86-0.01-1.72,0-2.58c0.01-0.54-0.29-0.72-0.76-0.71c-0.45,0.01-0.66,0.24-0.66,0.73c0.02,2.76-0.02,5.52,0.03,8.28
			c0.01,0.83-0.19,1.48-0.96,2.12c0-0.36,0-0.62,0-0.87c0-3.12-0.01-6.23,0.01-9.35c0-0.53-0.1-0.9-0.72-0.91
			c-0.63-0.01-0.72,0.37-0.72,0.9c0.01,3.75-0.02,7.5,0.02,11.25c0.01,0.83-0.24,1.46-0.92,2.05c-0.01-0.26-0.03-0.47-0.03-0.68
			c0-4.2-0.01-8.41,0-12.61c0-0.48-0.06-0.88-0.65-0.9c-0.46-0.02-0.77,0.12-0.77,0.69c0.01,4.43,0.02,8.87,0,13.3
			c0,0.75,0.49,0.75,1.13,0.73c-1.66,2.17-3.24,4.23-4.91,6.41c0-7.79,0-15.44,0-23.21c3.7,0,7.43,0,11.24,0
			c0-1.73-0.01-3.35,0-4.96c0.01-0.78-0.21-1.73,0.15-2.29c0.34-0.52,1.32-0.64,2.02-0.92c3.51-1.38,7.02-2.74,10.54-4.11
			c0.23-0.09,0.46-0.16,0.77-0.26c0,2.63,0,5.18,0,7.81c3.63,0,7.21,0,10.85,0C192.8,83.51,192.8,92.78,192.8,102.25z M158.64,88.3
			C158.64,88.3,158.64,88.3,158.64,88.3c0,2.18,0.01,4.35,0,6.53c0,0.5,0.1,0.84,0.69,0.85c0.56,0,0.74-0.28,0.74-0.81
			c-0.01-4.35-0.01-8.7,0-13.06c0-0.51-0.14-0.84-0.71-0.85c-0.62-0.01-0.73,0.35-0.73,0.89C158.65,84,158.64,86.15,158.64,88.3z
			 M191.63,76.79c-3.01,0-6,0-9,0c0,0.35,0,0.64,0,1.03c0.31,0,0.58,0,0.85,0c2.45,0,4.9-0.03,7.35,0.02
			C191.6,77.85,191.84,77.6,191.63,76.79z M191.61,80.87c0.15-1.03,0.15-1.03-0.74-1.04c-2.5,0-5,0-7.5,0
			c-0.24,0-0.49,0.02-0.75,0.04c0,0.37,0,0.66,0,1C185.63,80.87,188.6,80.87,191.61,80.87z M191.7,83.3c-3.08,0-6.07,0-9.06,0
			c0,0.32,0,0.58,0,0.87c3.02,0,5.99,0,9.01,0C191.67,83.88,191.68,83.64,191.7,83.3z M176.03,77.54c0-1.37,0.04-2.7-0.04-4.03
			c-0.02-0.25-0.51-0.63-0.82-0.66c-0.24-0.03-0.74,0.38-0.76,0.61c-0.07,1.35-0.04,2.7-0.04,4.07
			C174.96,77.54,175.45,77.54,176.03,77.54z M170.56,77.59c0.49,0,0.87,0.03,1.24-0.01c0.15-0.02,0.4-0.2,0.4-0.31
			c0.02-1.28,0.04-2.57-0.04-3.85c-0.01-0.22-0.55-0.6-0.8-0.57c-0.29,0.04-0.75,0.44-0.76,0.71
			C170.52,74.87,170.56,76.18,170.56,77.59z M179.84,77.56c0-1.37,0.02-2.65-0.01-3.93c-0.01-0.53-0.35-0.84-0.9-0.81
			c-0.5,0.03-0.77,0.34-0.78,0.85c-0.01,0.68,0,1.36,0,2.04c0,0.62,0,1.23,0,1.85C178.78,77.56,179.25,77.56,179.84,77.56z"/>
	</g>
</g>
<g id="Layer_6">
</g>
<g id="Layer_7">
</g>
<g id="Layer_8">
</g>
<g id="Layer_9">
</g>
<g id="Layer_10">
</g>
<g id="Layer_11">
</g>
<g id="Layer_12">
</g>
<g id="Layer_13">
</g>
<g id="Layer_14">
</g>
<g id="Layer_15">
</g>
</svg>
