<?xml version="1.0" encoding="utf-8"?>
<!-- Generator: Adobe Illustrator 27.8.1, SVG Export Plug-In . SVG Version: 6.00 Build 0)  -->
<svg version="1.1" xmlns="http://www.w3.org/2000/svg" xmlns:xlink="http://www.w3.org/1999/xlink" x="0px" y="0px"
	 viewBox="0 0 350 230" style="enable-background:new 0 0 350 230;" xml:space="preserve">
<style type="text/css">
	.st0{fill:#9E0021;}
	.st1{fill:#001E91;}
	.st2{fill:#009E1A;}
	.st3{fill:#8E0073;}
	.st4{fill:#9E9700;}
	.st5{fill:#006B65;}
	.st6{fill:#FF00D1;}
	.st7{fill:#550000;}
	.st8{fill:url(#SVGID_1_);}
	.st9{fill:#163800;enable-background:new    ;}
	.st10{fill:#00E7FF;enable-background:new    ;}
	.st11{fill:#663000;}
	.st12{fill:#00E7FF;}
	.st13{fill:#595700;}
	.st14{fill:#A06433;}
	.st15{fill:#006AC3;}
	.st16{fill:#FF7F00;}
	.st17{fill:#DFC900;}
	.st18{fill:#FF3200;}
	.st19{fill:#3200FF;}
	.st20{fill:#00FFCC;}
	.st21{fill:#4E0017;}
	.st22{fill:#7E00FF;}
	.st23{fill-rule:evenodd;clip-rule:evenodd;fill:#5700FF;}
	.st24{fill-rule:evenodd;clip-rule:evenodd;fill:#840036;}
	.st25{fill:#2B00A0;}
	.st26{fill:#46FF2C;}
	.st27{fill:#002A33;}
	.st28{fill:#007FFF;}
</style>
<g id="Layer_1">
	<g>
		<path class="st0" d="M170.98,154.18c-8.93,0-17.73,0-26.75,0c0.18-1.69,0.24-3.36,0.55-4.97c0.38-1.94-0.04-3.49-1.21-5.13
			c-4.92-6.84-9.71-13.76-14.5-20.69c-0.32-0.47-0.52-1.37-0.29-1.83c6.52-12.95,13.1-25.87,19.67-38.8
			c0.07-0.13,0.19-0.25,0.33-0.43c1.92,1.3,2.73,3.21,3.06,5.35c0.49,3.25-0.05,6.39-1.16,9.45c-2.59,7.15-5.16,14.3-7.8,21.43
			c-0.34,0.93-0.25,1.61,0.31,2.39c1.17,1.63,2.2,3.37,3.39,4.98c3.44,4.66,6.35,9.59,8,15.19c0.08,0.28,0.25,0.54,0.6,0.76
			c-0.32-3.22-0.62-6.44-0.98-9.65c-0.06-0.51-0.4-1-0.68-1.46c-2.21-3.61-4.47-7.2-6.62-10.85c-0.35-0.59-0.46-1.54-0.26-2.19
			c0.84-2.62,1.84-5.2,2.84-7.94c0.42,0.36,0.72,0.57,0.97,0.82c6.26,6.35,12.53,12.7,18.77,19.08c0.39,0.4,0.82,0.96,0.85,1.47
			C170.4,138.77,170.68,146.37,170.98,154.18z M205.72,154.16c-0.24-2.21-0.56-4.3-0.65-6.41c-0.04-0.89,0.2-1.95,0.7-2.67
			c4.95-7.21,9.97-14.37,15.03-21.5c0.63-0.89,0.69-1.52,0.2-2.47c-4-7.78-7.94-15.58-11.9-23.38c-2.6-5.12-5.21-10.25-7.81-15.38
			c-1.77,1.12-2.78,2.77-3.17,5.14c-0.54,3.31-0.01,6.5,1.12,9.61c2.53,6.99,5.06,13.99,7.65,20.96c0.46,1.24,0.38,2.15-0.39,3.27
			c-4.39,6.45-9.3,12.61-11.37,20.36c-0.02,0.07-0.15,0.11-0.34,0.26c0.05-0.77,0.11-1.44,0.14-2.12c0.18-5.07,1.08-9.88,4.46-13.95
			c0.89-1.08,1.37-2.5,2.28-3.56c1.96-2.29,2.14-4.58,0.76-7.23c-0.84-1.63-1.33-3.45-2.05-5.41c-6.83,6.96-13.43,13.66-20,20.39
			c-0.27,0.28-0.49,0.74-0.51,1.12c-0.33,7.6-0.62,15.21-0.93,22.98C187.92,154.16,196.76,154.16,205.72,154.16z"/>
		<path class="st1" d="M142.34,40.54c1.68,1.23,3.56,2.27,5.01,3.74c3.86,3.9,7.54,7.98,11.28,11.99c3.7,3.98,7.31,8.03,12.15,10.75
			c2.07,1.16,4.03,1.34,5.91-0.05c2.78-2.06,5.69-4.05,8.11-6.49c4.47-4.51,8.57-9.39,12.96-13.99c1.71-1.79,3.77-3.26,5.72-4.81
			c0.56-0.45,1.28-0.69,1.96-1.06c-9.87,12.22-16.27,25.95-20.09,40.96c-1.21,4.76-0.33,9.52,0.28,14.26
			c0.45,3.5,1.19,6.95,1.72,10.44c0.09,0.62,0.01,1.5-0.37,1.92c-4.33,4.8-8.74,9.54-13.25,14.43c-0.74-0.8-1.43-1.54-2.12-2.29
			c-3.64-3.96-7.31-7.9-10.89-11.92c-0.44-0.5-0.67-1.44-0.58-2.13c0.76-6.19,1.9-12.36,2.32-18.57c0.22-3.22-0.4-6.63-1.31-9.75
			c-3.45-11.86-8.63-22.94-15.79-33.04c-1-1.41-2.2-2.68-3.31-4.02C142.15,40.78,142.24,40.66,142.34,40.54z M164.83,53.8
			c0.04,4.84,4,8.81,8.83,8.83c5.04,0.02,8.96-3.96,8.91-9.04c-0.05-4.91-3.93-8.71-8.88-8.69
			C168.68,44.92,164.79,48.82,164.83,53.8z"/>
	</g>
</g>
<g id="Layer_2">
</g>
<g id="Layer_3">
</g>
<g id="Layer_4">
</g>
<g id="Layer_5">
</g>
<g id="Layer_6">
</g>
<g id="Layer_7">
</g>
<g id="Layer_8">
</g>
<g id="Layer_9">
</g>
<g id="Layer_10">
</g>
<g id="Layer_11">
</g>
<g id="Layer_12">
</g>
<g id="Layer_13">
</g>
<g id="Layer_14">
</g>
<g id="Layer_15">
</g>
</svg>
