<?xml version="1.0" encoding="utf-8"?>
<!-- Generator: Adobe Illustrator 27.8.1, SVG Export Plug-In . SVG Version: 6.00 Build 0)  -->
<svg version="1.1" xmlns="http://www.w3.org/2000/svg" xmlns:xlink="http://www.w3.org/1999/xlink" x="0px" y="0px"
	 viewBox="0 0 350 230" style="enable-background:new 0 0 350 230;" xml:space="preserve">
<style type="text/css">
	.st0{fill:#9E0021;}
	.st1{fill:#001E91;}
	.st2{fill:#009E1A;}
	.st3{fill:#8E0073;}
	.st4{fill:#9E9700;}
	.st5{fill:#006B65;}
	.st6{fill:#FF00D1;}
	.st7{fill:#550000;}
	.st8{fill:url(#SVGID_1_);}
	.st9{fill:#163800;enable-background:new    ;}
	.st10{fill:#00E7FF;enable-background:new    ;}
	.st11{fill:#663000;}
	.st12{fill:#00E7FF;}
	.st13{fill:#595700;}
	.st14{fill:#A06433;}
	.st15{fill:#006AC3;}
	.st16{fill:#FF7F00;}
	.st17{fill:#DFC900;}
	.st18{fill:#FF3200;}
	.st19{fill:#3200FF;}
	.st20{fill:#00FFCC;}
	.st21{fill:#4E0017;}
	.st22{fill:#7E00FF;}
	.st23{fill-rule:evenodd;clip-rule:evenodd;fill:#5700FF;}
	.st24{fill-rule:evenodd;clip-rule:evenodd;fill:#840036;}
	.st25{fill:#2B00A0;}
	.st26{fill:#46FF2C;}
	.st27{fill:#002A33;}
	.st28{fill:#007FFF;}
</style>
<g id="Layer_1">
</g>
<g id="Layer_2">
</g>
<g id="Layer_3">
</g>
<g id="Layer_4">
</g>
<g id="Layer_5">
</g>
<g id="Layer_6">
</g>
<g id="Layer_7">
</g>
<g id="Layer_8">
</g>
<g id="Layer_9">
</g>
<g id="Layer_10">
	<g>
		<path class="st18" d="M125.74,109.06c-1.62-6.93-1.97-13.55-0.13-20.14c2.03-7.26,5.83-13.21,13.37-15.71
			c6.6-2.19,12.81-1.01,18.48,3.02c0.14,0.1,0.25,0.26,0.5,0.54c-8.79,1.94-15.63,6.72-21.13,13.63c16.91-14.59,35-15.72,54.3-4.89
			c0.21-1.51,0.37-2.96,0.61-4.4c0.89-5.3,2.6-10.27,6.19-14.39c3.27-3.75,7.35-6.06,12.36-6.6c0.33-0.04,0.66-0.17,0.95-0.39
			c-5.12-1.07-9.35,1.11-13.5,3.78c0.58-6.07,5.62-10.74,11.78-11.08c8.27-0.46,13.14,4.13,15.54,11.73
			c0.25,0.79,0.41,1.61,0.52,2.42c0.08,0.63,0.02,1.27,0.02,1.63c-1.46-1.29-2.89-2.95-4.67-4.05c-7.06-4.37-15.18-3.57-19.57,5.53
			c-1.79,3.7-2.46,7.65-1.82,11.7c0.96,5.99,2.14,11.94,3.22,17.92c1.47,8.2,2.26,16.4,0.76,24.71c-1.42,7.87-6.5,13.31-14.16,14.92
			c-8.25,1.73-17.01-3.42-19.51-11.45c-2.44-7.86,0.44-16.01,7.57-21.28c1.74-1.29,3.6-2.4,5.35-3.67c3.47-2.51,4.08-5.27,1.87-8.96
			c-2.76-4.61-7.08-7.16-12.08-8.58c-9.47-2.69-18.22-0.57-26.43,4.4c-7.77,4.69-13.96,11.09-19.33,18.32
			C126.51,108.09,126.2,108.47,125.74,109.06z"/>
		<path class="st19" d="M183.02,61.79c4.25,0,7.66,3.37,7.67,7.59c0.01,4.25-3.48,7.79-7.73,7.72c-4.55-0.08-7.76-3.74-7.62-7.92
			C175.47,65.04,178.73,61.8,183.02,61.79z"/>
	</g>
</g>
<g id="Layer_11">
</g>
<g id="Layer_12">
</g>
<g id="Layer_13">
</g>
<g id="Layer_14">
</g>
<g id="Layer_15">
</g>
</svg>
