<?xml version="1.0" encoding="utf-8"?>
<!-- Generator: Adobe Illustrator 27.8.1, SVG Export Plug-In . SVG Version: 6.00 Build 0)  -->
<svg version="1.1" xmlns="http://www.w3.org/2000/svg" xmlns:xlink="http://www.w3.org/1999/xlink" x="0px" y="0px"
	 viewBox="0 0 350 230" style="enable-background:new 0 0 350 230;" xml:space="preserve">
<style type="text/css">
	.st0{fill:#9E0021;}
	.st1{fill:#001E91;}
	.st2{fill:#009E1A;}
	.st3{fill:#8E0073;}
	.st4{fill:#9E9700;}
	.st5{fill:#006B65;}
	.st6{fill:#FF00D1;}
	.st7{fill:#550000;}
	.st8{fill:url(#SVGID_1_);}
	.st9{fill:#163800;enable-background:new    ;}
	.st10{fill:#00E7FF;enable-background:new    ;}
	.st11{fill:#663000;}
	.st12{fill:#00E7FF;}
	.st13{fill:#595700;}
	.st14{fill:#A06433;}
	.st15{fill:#006AC3;}
	.st16{fill:#FF7F00;}
	.st17{fill:#DFC900;}
	.st18{fill:#FF3200;}
	.st19{fill:#3200FF;}
	.st20{fill:#00FFCC;}
	.st21{fill:#4E0017;}
	.st22{fill:#7E00FF;}
	.st23{fill-rule:evenodd;clip-rule:evenodd;fill:#5700FF;}
	.st24{fill-rule:evenodd;clip-rule:evenodd;fill:#840036;}
	.st25{fill:#2B00A0;}
	.st26{fill:#46FF2C;}
	.st27{fill:#002A33;}
	.st28{fill:#007FFF;}
</style>
<g id="Layer_1">
</g>
<g id="Layer_2">
</g>
<g id="Layer_3">
</g>
<g id="Layer_4">
</g>
<g id="Layer_5">
</g>
<g id="Layer_6">
</g>
<g id="Layer_7">
</g>
<g id="Layer_8">
</g>
<g id="Layer_9">
</g>
<g id="Layer_10">
</g>
<g id="Layer_11">
	<path class="st20" d="M175.08,140.73c0.73-0.54,1.6-1.04,2.25-1.75c0.37-0.4,0.54-1.14,0.54-1.73c0.03-11.45,0.01-22.91,0.02-34.36
		c0-5.57,3.4-9.83,8.68-10.92c6.35-1.32,12.61,3.56,12.72,10.04c0.1,6.01,0.04,12.02,0.02,18.03c-0.01,1.99-1.37,3.36-3.22,3.35
		c-1.83-0.01-3.18-1.36-3.19-3.38c-0.04-5.68,0-11.36-0.03-17.04c-0.01-2.48-1.41-4.28-3.49-4.6c-2.81-0.44-5.01,1.49-5.02,4.47
		c-0.02,7.6-0.01,15.21-0.01,22.81c0,2.95,0,5.89,0,9.14c2.99-1.63,5.79-3.1,8.53-4.67c5.63-3.22,10.75-7.04,14.38-12.56
		c3.59-5.48,5.45-11.57,5.68-18.03c0.33-9.38,0.23-18.77,0.32-28.15c0.02-2.12,1.14-3.44,2.98-3.55c2.03-0.12,3.42,1.18,3.47,3.36
		c0.06,2.53,0.04,5.07,0.02,7.6c-0.05,6.81,0.12,13.62-0.25,20.41c-0.58,10.94-4.21,20.72-12.27,28.49
		c-4.53,4.37-9.93,7.49-15.41,10.5c-3.86,2.12-7.63,4.4-11.37,6.71c-1.1,0.68-1.99,1.71-2.93,2.62c-1.38,1.34-3.43,1.61-4.68,0.27
		c-3.61-3.86-8.29-6.06-12.73-8.66c-4.73-2.76-9.56-5.42-13.95-8.66c-8.34-6.16-13.11-14.7-14.79-24.86
		c-0.67-4.01-0.97-8.11-1.03-12.17c-0.14-10.28-0.05-20.56-0.05-30.84c0-3,1.03-4.08,4.01-4.15c12.16-0.3,23.38-4.06,34.17-9.34
		c1.47-0.72,2.93-1.49,4.33-2.33c1.48-0.89,2.83-0.89,4.35-0.03c9.25,5.24,19.03,9.07,29.54,10.83c3.13,0.53,6.34,0.64,9.51,0.87
		c2.56,0.19,4.02,1.96,3.35,4.21c-0.44,1.49-1.52,2.23-3.32,2.24c-6.43,0.05-12.69-1.05-18.87-2.73c-7.45-2.03-14.55-4.93-21.34-8.6
		c-0.75-0.4-1.29-0.4-2.04,0c-9.1,4.89-18.68,8.47-28.87,10.3c-2.71,0.49-5.46,0.75-8.36,1.14c0,0.48,0,0.99,0,1.49
		c0,9.48-0.08,18.97,0.02,28.45c0.09,8.33,1.47,16.4,6.52,23.31c1.86,2.55,4.31,4.66,6.51,6.96c0.17,0.18,0.44,0.27,0.88,0.53
		c0-0.71,0-1.21,0-1.71c0-7.14-0.02-14.27,0.02-21.4c0.04-6.17,4.6-10.8,10.58-10.83c6.08-0.03,10.78,4.57,10.83,10.76
		c0.06,8.64,0.03,17.27,0.01,25.91c0,2.2-1.33,3.67-3.21,3.69c-1.97,0.02-3.24-1.44-3.25-3.76c-0.01-8.5,0.01-16.99-0.01-25.49
		c0-2.82-1.93-4.76-4.53-4.61c-1.9,0.11-3.48,1.45-3.85,3.32c-0.12,0.59-0.14,1.21-0.15,1.82c-0.01,8.4,0.02,16.81-0.04,25.21
		c-0.01,1.16,0.4,1.76,1.38,2.28c3.8,2.04,7.59,4.1,11.32,6.26C171.61,138.22,173.28,139.51,175.08,140.73z M150.7,77.84
		c-0.24,6.11,4.02,10.91,10.05,11.32c2.08,0.14,3.66-1.02,3.85-2.83c0.21-1.95-1.05-3.35-3.24-3.59c-1.37-0.15-2.55-0.63-3.38-1.77
		c-1.11-1.52-1.11-3.46-0.03-4.99c0.99-1.4,2.77-2.05,4.46-1.61c1.85,0.48,3.03,1.92,3.24,3.96c0.23,2.25,1.56,3.54,3.48,3.38
		c1.94-0.17,3.16-1.83,2.96-4.03c-0.52-5.72-4.99-9.88-10.65-9.91C155.67,67.74,150.92,72.19,150.7,77.84z M178.13,80.8
		c1.06,4.76,5.31,8.26,10.18,8.38c1.97,0.05,3.42-1.17,3.56-3.02c0.14-1.82-1.13-3.19-3.14-3.42c-0.42-0.05-0.84-0.11-1.24-0.22
		c-3.15-0.88-4.16-4.77-1.82-7.05c1.21-1.18,2.65-1.59,4.26-1.03c1.95,0.68,2.79,2.18,2.99,4.18c0.2,1.99,1.65,3.25,3.46,3.09
		c1.76-0.15,2.95-1.55,2.94-3.48c-0.01-5.78-4.77-10.44-10.65-10.45C181.74,67.77,176.64,74.08,178.13,80.8z"/>
</g>
<g id="Layer_12">
</g>
<g id="Layer_13">
</g>
<g id="Layer_14">
</g>
<g id="Layer_15">
</g>
</svg>
