<?xml version="1.0" encoding="utf-8"?>
<!-- Generator: Adobe Illustrator 27.8.1, SVG Export Plug-In . SVG Version: 6.00 Build 0)  -->
<svg version="1.1" xmlns="http://www.w3.org/2000/svg" xmlns:xlink="http://www.w3.org/1999/xlink" x="0px" y="0px"
	 viewBox="0 0 350 230" style="enable-background:new 0 0 350 230;" xml:space="preserve">
<style type="text/css">
	.st0{fill:#9E0021;}
	.st1{fill:#001E91;}
	.st2{fill:#009E1A;}
	.st3{fill:#8E0073;}
	.st4{fill:#9E9700;}
	.st5{fill:#006B65;}
	.st6{fill:#FF00D1;}
	.st7{fill:#550000;}
	.st8{fill:url(#SVGID_1_);}
	.st9{fill:#163800;enable-background:new    ;}
	.st10{fill:#00E7FF;enable-background:new    ;}
	.st11{fill:#663000;}
	.st12{fill:#00E7FF;}
	.st13{fill:#595700;}
	.st14{fill:#A06433;}
	.st15{fill:#006AC3;}
	.st16{fill:#FF7F00;}
	.st17{fill:#DFC900;}
	.st18{fill:#FF3200;}
	.st19{fill:#3200FF;}
	.st20{fill:#00FFCC;}
	.st21{fill:#4E0017;}
	.st22{fill:#7E00FF;}
	.st23{fill-rule:evenodd;clip-rule:evenodd;fill:#5700FF;}
	.st24{fill-rule:evenodd;clip-rule:evenodd;fill:#840036;}
	.st25{fill:#2B00A0;}
	.st26{fill:#46FF2C;}
	.st27{fill:#002A33;}
	.st28{fill:#007FFF;}
</style>
<g id="Layer_1">
</g>
<g id="Layer_2">
</g>
<g id="Layer_3">
</g>
<g id="Layer_4">
</g>
<g id="Layer_5">
</g>
<g id="Layer_6">
</g>
<g id="Layer_7">
</g>
<g id="Layer_8">
</g>
<g id="Layer_9">
</g>
<g id="Layer_10">
</g>
<g id="Layer_11">
</g>
<g id="Layer_12">
	<g>
		<path class="st21" d="M183.97,66.2c0-4.62,3.62-8.3,8.17-8.31c4.79-0.01,8.43,3.56,8.43,8.25c0,4.64-3.78,8.42-8.38,8.38
			C187.66,74.48,183.98,70.74,183.97,66.2z M173.7,134.71c-0.11,0.04-0.21,0.08-0.32,0.13c-13.95-24.16-27.9-48.32-41.85-72.48
			c0.87,0.16,1.39,0.65,1.97,1.04c3.42,2.3,6.69,4.9,10.32,6.8c6.25,3.27,12.88,4.6,19.79,1.95c4.27-1.64,7.34-4.74,10.09-8.87
			C173.7,87.44,173.7,111.08,173.7,134.71z"/>
		<path class="st22" d="M176.3,71.42c2.75,4.13,5.82,7.23,10.09,8.87c6.91,2.65,13.54,1.32,19.79-1.95c3.63-1.9,6.9-4.5,10.32-6.8
			c0.58-0.39,1.1-0.88,1.97-1.04c-13.95,24.16-27.9,48.32-41.85,72.48c-0.11-0.04-0.21-0.08-0.32-0.13
			C176.3,119.22,176.3,95.58,176.3,71.42z M157.8,66.38c-4.6,0.04-8.38-3.74-8.38-8.38c0-4.69,3.65-8.26,8.43-8.25
			c4.56,0.01,8.18,3.69,8.17,8.31C166.02,62.6,162.33,66.34,157.8,66.38z"/>
	</g>
</g>
<g id="Layer_13">
</g>
<g id="Layer_14">
</g>
<g id="Layer_15">
</g>
</svg>
