<?xml version="1.0" encoding="utf-8"?>
<!-- Generator: Adobe Illustrator 27.8.1, SVG Export Plug-In . SVG Version: 6.00 Build 0)  -->
<svg version="1.1" xmlns="http://www.w3.org/2000/svg" xmlns:xlink="http://www.w3.org/1999/xlink" x="0px" y="0px"
	 viewBox="0 0 350 230" style="enable-background:new 0 0 350 230;" xml:space="preserve">
<style type="text/css">
	.st0{fill:#9E0021;}
	.st1{fill:#001E91;}
	.st2{fill:#009E1A;}
	.st3{fill:#8E0073;}
	.st4{fill:#9E9700;}
	.st5{fill:#006B65;}
	.st6{fill:#FF00D1;}
	.st7{fill:#550000;}
	.st8{fill:url(#SVGID_1_);}
	.st9{fill:#163800;enable-background:new    ;}
	.st10{fill:#00E7FF;enable-background:new    ;}
	.st11{fill:#663000;}
	.st12{fill:#00E7FF;}
	.st13{fill:#595700;}
	.st14{fill:#A06433;}
	.st15{fill:#006AC3;}
	.st16{fill:#FF7F00;}
	.st17{fill:#DFC900;}
	.st18{fill:#FF3200;}
	.st19{fill:#3200FF;}
	.st20{fill:#00FFCC;}
	.st21{fill:#4E0017;}
	.st22{fill:#7E00FF;}
	.st23{fill-rule:evenodd;clip-rule:evenodd;fill:#5700FF;}
	.st24{fill-rule:evenodd;clip-rule:evenodd;fill:#840036;}
	.st25{fill:#2B00A0;}
	.st26{fill:#46FF2C;}
	.st27{fill:#002A33;}
	.st28{fill:#007FFF;}
</style>
<g id="Layer_1">
</g>
<g id="Layer_2">
</g>
<g id="Layer_3">
</g>
<g id="Layer_4">
</g>
<g id="Layer_5">
</g>
<g id="Layer_6">
</g>
<g id="Layer_7">
</g>
<g id="Layer_8">
</g>
<g id="Layer_9">
</g>
<g id="Layer_10">
</g>
<g id="Layer_11">
</g>
<g id="Layer_12">
</g>
<g id="Layer_13">
</g>
<g id="Layer_14">
	<g>
		<path class="st25" d="M225.68,79.09c-0.02-0.24-0.04-0.48-0.07-0.72c-0.08-0.91-0.21-1.82-0.37-2.72
			c-0.37-2.05-0.94-3.99-1.69-5.8c-0.3-0.73-0.62-1.43-0.97-2.11c-0.35-0.68-0.73-1.34-1.13-1.98c-0.4-0.64-0.82-1.26-1.27-1.85
			c-0.45-0.59-0.92-1.16-1.4-1.7c-0.24-0.27-0.48-0.53-0.75-0.8c-0.51-0.52-1.03-1.01-1.57-1.49c-0.01-0.01-0.01,0-0.01,0
			c-0.54-0.47-1.11-0.91-1.68-1.33c-1.16-0.83-2.37-1.56-3.63-2.18c-0.32-0.16-0.64-0.3-0.96-0.44c-0.64-0.28-1.29-0.53-1.95-0.75
			c-3.43-1.14-7.09-1.48-10.74-0.89c-0.09,0.01-0.18,0.03-0.26,0.05c-0.87,0.15-1.73,0.35-2.59,0.61c-0.31,0.09-0.61,0.18-0.91,0.29
			c-13.47,4.66-18.72,13.71-18.72,13.71s-5.26-9.05-18.73-13.71c-0.38-0.13-0.77-0.26-1.16-0.36c-0.76-0.23-1.53-0.4-2.3-0.54
			c-0.39-0.07-0.79-0.13-1.19-0.17c-0.56-0.07-1.12-0.11-1.68-0.14c-1.02-0.05-2.04-0.02-3.05,0.08c-0.35,0.03-0.7,0.07-1.04,0.12
			c-1.27,0.17-2.53,0.46-3.77,0.86c-0.22,0.07-0.44,0.14-0.66,0.22c-0.21,0.07-0.42,0.15-0.62,0.23c-0.29,0.11-0.58,0.22-0.86,0.34
			c-0.24,0.11-0.49,0.22-0.73,0.33c-0.22,0.11-0.45,0.21-0.66,0.33c-0.24,0.11-0.48,0.24-0.72,0.38c-0.2,0.1-0.41,0.22-0.61,0.34
			c-1.08,0.63-2.11,1.34-3.09,2.14c-4.64,3.77-8.13,9.35-9.37,16.21c-2.13,11.81,1.91,24.7,10.49,36.09c1.81,0.6,3.7,1.06,5.71,1.32
			c12.01,1.58,16.33-1.63,21.41-3.78c3.37-1.43,5.91,0.19,5.79,1.33c-0.2,1.76-6.84,4.77-5.42,5.4c5.63,2.49,12.56,2.51,17.78-1.94
			c6.49-5.54,8.91-1.76,8.91-1.76s-3.22,8.22-12.92,12.3c-8.09,3.41-16.58,4.25-24.33,3.37c6.69,4.73,14.36,8.69,22.82,11.52
			c15.5-5.19,28.41-14.18,37.32-24.74c0.95-1.1,1.84-2.22,2.67-3.36c0.86-1.13,1.66-2.28,2.4-3.45c1.01-1.55,1.94-3.13,2.76-4.72
			c0.21-0.4,0.41-0.8,0.61-1.2c0.2-0.4,0.39-0.8,0.58-1.2c0.37-0.8,0.73-1.61,1.05-2.41c0.16-0.39,0.31-0.78,0.46-1.17
			c0.16-0.42,0.31-0.84,0.46-1.26c-4.26-4.21-9.49-6.82-15.73-7.76c-11.98-1.82-16.37,1.31-21.48,3.36
			c-3.4,1.36-5.91-0.31-5.76-1.44c0.02-0.15,0.08-0.31,0.19-0.47c0.07-0.11,0.15-0.22,0.25-0.33c0.05-0.06,0.1-0.11,0.16-0.17
			l0.18-0.18c0.13-0.12,0.26-0.24,0.41-0.35c0.07-0.07,0.15-0.13,0.23-0.18c0.46-0.36,0.99-0.73,1.51-1.08
			c0.09-0.07,0.18-0.13,0.27-0.18c0.26-0.17,0.51-0.34,0.76-0.51c0.24-0.17,0.47-0.33,0.68-0.48c0.07-0.05,0.14-0.1,0.21-0.15
			c0.19-0.15,0.36-0.29,0.5-0.42c0.38-0.36,0.5-0.64,0.17-0.8c-5.58-2.6-12.51-2.76-17.81,1.6c-6.6,5.41-8.95,1.57-8.95,1.57
			s3.38-8.15,13.16-12.04c10.97-4.36,22.56-4.08,32.07-1.27c0.68,0.2,1.35,0.42,2.01,0.65c1.31,0.45,2.59,0.95,3.8,1.5
			c0.92,0.41,1.8,0.84,2.65,1.29c0.56,0.3,1.11,0.62,1.65,0.94c1.07,0.64,2.07,1.32,3,2.02c0.94,0.71,1.8,1.44,2.58,2.2
			c0.25,0.24,0.49,0.48,0.73,0.72c1.67,1.69,3.12,3.39,4.38,5.08c0.05-0.3,0.1-0.6,0.15-0.9c0.1-0.59,0.18-1.19,0.25-1.78
			c0,0,0,0,0-0.01c0.11-0.88,0.18-1.77,0.22-2.66c0.02-0.63,0.04-1.26,0.04-1.89C225.8,80.94,225.76,80.01,225.68,79.09z
			 M172.34,98.51v-4.66h5.33v4.66h4.66v5.33h-4.66v4.65h-5.33v-4.65h-4.65v-5.33H172.34z M201.44,69.21
			c-7.95-1.67-14.24-0.89-21.42,0.62c4.17-5.25,17.3-15.2,30.02-8.8c4.55,2.28,11.89,9.55,12.82,21.18
			C217.61,75.93,213.21,71.69,201.44,69.21z"/>
		<path class="st26" d="M225.68,79.09c-0.02-0.24-0.04-0.48-0.07-0.72c-0.08-0.91-0.21-1.82-0.37-2.72
			c-0.37-2.05-0.94-3.99-1.69-5.8c-0.29-0.73-0.62-1.43-0.97-2.11c-0.35-0.69-0.73-1.35-1.13-1.98c-0.4-0.64-0.82-1.26-1.27-1.85
			c-0.44-0.59-0.91-1.16-1.4-1.7c-0.24-0.27-0.48-0.53-0.75-0.8c-0.5-0.52-1.03-1.02-1.57-1.49c-0.01-0.01-0.01,0-0.01,0
			c-0.55-0.48-1.1-0.92-1.68-1.33c-1.15-0.84-2.37-1.57-3.63-2.18c-0.32-0.16-0.64-0.3-0.96-0.44c-0.64-0.29-1.29-0.53-1.95-0.75
			c-2.15-0.71-4.38-1.11-6.65-1.17c-1.36-0.03-2.73,0.06-4.09,0.28c-0.09,0.01-0.18,0.03-0.26,0.05c-0.87,0.14-1.73,0.35-2.59,0.61
			c-0.31,0.09-0.61,0.18-0.91,0.29c-13.47,4.66-18.72,13.71-18.72,13.71s-5.26-9.05-18.73-13.71c-0.38-0.13-0.77-0.26-1.16-0.36
			c-0.76-0.23-1.53-0.4-2.3-0.54c-0.39-0.07-0.79-0.13-1.19-0.17c-0.56-0.07-1.12-0.11-1.68-0.14c-1.02-0.05-2.04-0.02-3.05,0.08
			c-0.35,0.03-0.7,0.07-1.04,0.12c-1.27,0.17-2.53,0.46-3.77,0.86c-0.22,0.07-0.44,0.14-0.66,0.22c-0.21,0.07-0.42,0.15-0.62,0.23
			c-0.29,0.11-0.58,0.22-0.86,0.34c-0.24,0.11-0.49,0.22-0.73,0.33c-0.22,0.11-0.45,0.21-0.66,0.33c-0.24,0.11-0.48,0.24-0.72,0.38
			c-0.2,0.1-0.41,0.22-0.61,0.34c-1.08,0.63-2.11,1.34-3.09,2.14c2.91,6.22,6.31,12.03,16,23.71c7.88,9.51,17.55,15.36,17.55,15.36
			h4.65v-4.66h5.33v4.66h4.66v5.33h-4.63c6.87,3.47,19.48,8.63,34.63,10.92c0.93-1.11,1.82-2.23,2.67-3.36
			c0.84-1.14,1.64-2.29,2.4-3.45c1.01-1.56,1.93-3.13,2.76-4.72c0.21-0.4,0.41-0.8,0.61-1.2c0.2-0.4,0.39-0.8,0.58-1.2
			c0.37-0.8,0.73-1.61,1.05-2.41c0.16-0.39,0.31-0.78,0.46-1.17c0.16-0.42,0.31-0.84,0.46-1.26c-4.26-4.21-9.49-6.82-15.73-7.76
			c-11.98-1.82-16.37,1.31-21.48,3.36c-3.4,1.36-5.91-0.31-5.76-1.44c0.02-0.15,0.08-0.31,0.19-0.47c0.07-0.11,0.15-0.22,0.25-0.33
			c0.05-0.06,0.1-0.11,0.16-0.17c0.05-0.06,0.11-0.12,0.18-0.18c0.13-0.12,0.26-0.24,0.41-0.35c0.07-0.07,0.15-0.13,0.23-0.18
			c0.46-0.37,0.99-0.73,1.51-1.08c0.09-0.07,0.18-0.13,0.27-0.18c0.26-0.18,0.51-0.35,0.76-0.51c0.24-0.17,0.47-0.33,0.68-0.48
			c0.07-0.05,0.14-0.1,0.21-0.15c0.19-0.15,0.36-0.29,0.5-0.42c0.38-0.36,0.5-0.64,0.17-0.8c-5.58-2.6-12.51-2.76-17.81,1.6
			c-6.6,5.41-8.95,1.57-8.95,1.57s3.38-8.15,13.16-12.04c10.97-4.36,22.56-4.08,32.07-1.27c0.68,0.2,1.35,0.42,2.01,0.65
			c1.31,0.45,2.59,0.95,3.8,1.5c0.92,0.4,1.8,0.84,2.65,1.29c0.56,0.3,1.11,0.62,1.65,0.94c1.07,0.64,2.07,1.31,3,2.02
			c0.94,0.7,1.8,1.44,2.58,2.19c0.25,0.24,0.5,0.49,0.73,0.73c1.67,1.69,3.12,3.39,4.38,5.08c0.05-0.3,0.1-0.6,0.15-0.9
			c0.1-0.59,0.18-1.18,0.25-1.78c0,0,0,0,0-0.01c0.1-0.89,0.17-1.77,0.22-2.66c0.02-0.63,0.04-1.26,0.04-1.89
			C225.8,80.94,225.76,80.01,225.68,79.09z M201.44,69.21c-7.95-1.67-14.24-0.89-21.42,0.62c4.17-5.25,17.3-15.2,30.02-8.8
			c4.55,2.28,11.89,9.55,12.82,21.18C217.61,75.93,213.21,71.69,201.44,69.21z"/>
	</g>
</g>
<g id="Layer_15">
</g>
</svg>
