<?xml version="1.0" encoding="utf-8"?>
<!-- Generator: Adobe Illustrator 27.8.1, SVG Export Plug-In . SVG Version: 6.00 Build 0)  -->
<svg version="1.1" xmlns="http://www.w3.org/2000/svg" xmlns:xlink="http://www.w3.org/1999/xlink" x="0px" y="0px"
	 viewBox="0 0 350 230" style="enable-background:new 0 0 350 230;" xml:space="preserve">
<style type="text/css">
	.st0{fill:#9E0021;}
	.st1{fill:#001E91;}
	.st2{fill:#009E1A;}
	.st3{fill:#8E0073;}
	.st4{fill:#9E9700;}
	.st5{fill:#006B65;}
	.st6{fill:#FF00D1;}
	.st7{fill:#550000;}
	.st8{fill:url(#SVGID_1_);}
	.st9{fill:#163800;enable-background:new    ;}
	.st10{fill:#00E7FF;enable-background:new    ;}
	.st11{fill:#663000;}
	.st12{fill:#00E7FF;}
	.st13{fill:#595700;}
	.st14{fill:#A06433;}
	.st15{fill:#006AC3;}
	.st16{fill:#FF7F00;}
	.st17{fill:#DFC900;}
	.st18{fill:#FF3200;}
	.st19{fill:#3200FF;}
	.st20{fill:#00FFCC;}
	.st21{fill:#4E0017;}
	.st22{fill:#7E00FF;}
	.st23{fill-rule:evenodd;clip-rule:evenodd;fill:#5700FF;}
	.st24{fill-rule:evenodd;clip-rule:evenodd;fill:#840036;}
	.st25{fill:#2B00A0;}
	.st26{fill:#46FF2C;}
	.st27{fill:#002A33;}
	.st28{fill:#007FFF;}
</style>
<g id="Layer_1">
</g>
<g id="Layer_2">
</g>
<g id="Layer_3">
</g>
<g id="Layer_4">
</g>
<g id="Layer_5">
</g>
<g id="Layer_6">
</g>
<g id="Layer_7">
</g>
<g id="Layer_8">
</g>
<g id="Layer_9">
</g>
<g id="Layer_10">
</g>
<g id="Layer_11">
</g>
<g id="Layer_12">
</g>
<g id="Layer_13">
	<g>
		<path class="st23" d="M166.6,89.24c1.72-1.72,4.54-1.72,6.26,0l0.98,0.98l0.98-0.98c1.72-1.72,4.54-1.72,6.26,0
			c1.72,1.72,1.72,4.54,0,6.26l-0.98,0.98l-6.26,6.26l-6.26-6.26l-0.98-0.98C164.88,93.78,164.88,90.96,166.6,89.24 M164.9,64.82
			c0,4.94,4,8.94,8.94,8.94c4.94,0,8.94-4,8.94-8.94c0-4.94-4-8.94-8.94-8.94C168.9,55.88,164.9,59.88,164.9,64.82z M173.83,81.46
			c-6.34,0-12.67-5.65-30.96-16.96c19.61,23.87,21.2,41.19,30.96,70.5c9.77-29.31,11.36-46.63,30.96-70.5
			C186.51,75.8,180.17,81.46,173.83,81.46z"/>
		<path class="st24" d="M183,108.89c1.09-1.09,2.87-1.09,3.95,0l0.62,0.62l0.62-0.62c1.09-1.09,2.87-1.09,3.95,0
			c1.09,1.09,1.09,2.87,0,3.95l-0.62,0.62l-3.96,3.95l-3.95-3.95l-0.62-0.62C181.91,111.76,181.91,109.98,183,108.89 M181.92,93.46
			c0,3.12,2.53,5.65,5.65,5.65c3.12,0,5.65-2.53,5.65-5.65c0-3.12-2.53-5.65-5.65-5.65C184.45,87.82,181.92,90.34,181.92,93.46z
			 M187.57,103.97c-4,0-8.01-3.57-19.56-10.71c12.38,15.08,13.39,26.02,19.56,44.53c6.17-18.51,7.17-29.46,19.56-44.53
			C195.57,100.4,191.57,103.97,187.57,103.97z"/>
	</g>
</g>
<g id="Layer_14">
</g>
<g id="Layer_15">
</g>
</svg>
