<?xml version="1.0" encoding="utf-8"?>
<!-- Generator: Adobe Illustrator 27.8.1, SVG Export Plug-In . SVG Version: 6.00 Build 0)  -->
<svg version="1.1" xmlns="http://www.w3.org/2000/svg" xmlns:xlink="http://www.w3.org/1999/xlink" x="0px" y="0px"
	 viewBox="0 0 350 230" style="enable-background:new 0 0 350 230;" xml:space="preserve">
<style type="text/css">
	.st0{fill:#9E0021;}
	.st1{fill:#001E91;}
	.st2{fill:#009E1A;}
	.st3{fill:#8E0073;}
	.st4{fill:#9E9700;}
	.st5{fill:#006B65;}
	.st6{fill:#FF00D1;}
	.st7{fill:#550000;}
	.st8{fill:url(#SVGID_1_);}
	.st9{fill:#163800;enable-background:new    ;}
	.st10{fill:#00E7FF;enable-background:new    ;}
	.st11{fill:#663000;}
	.st12{fill:#00E7FF;}
	.st13{fill:#595700;}
	.st14{fill:#A06433;}
	.st15{fill:#006AC3;}
	.st16{fill:#FF7F00;}
	.st17{fill:#DFC900;}
	.st18{fill:#FF3200;}
	.st19{fill:#3200FF;}
	.st20{fill:#00FFCC;}
	.st21{fill:#4E0017;}
	.st22{fill:#7E00FF;}
	.st23{fill-rule:evenodd;clip-rule:evenodd;fill:#5700FF;}
	.st24{fill-rule:evenodd;clip-rule:evenodd;fill:#840036;}
	.st25{fill:#2B00A0;}
	.st26{fill:#46FF2C;}
	.st27{fill:#002A33;}
	.st28{fill:#007FFF;}
</style>
<g id="Layer_1">
</g>
<g id="Layer_2">
</g>
<g id="Layer_3">
</g>
<g id="Layer_4">
</g>
<g id="Layer_5">
</g>
<g id="Layer_6">
</g>
<g id="Layer_7">
</g>
<g id="Layer_8">
</g>
<g id="Layer_9">
</g>
<g id="Layer_10">
</g>
<g id="Layer_11">
</g>
<g id="Layer_12">
</g>
<g id="Layer_13">
</g>
<g id="Layer_14">
</g>
<g id="Layer_15">
	<g>
		<path class="st27" d="M138.09,48.44c-0.55,5.13,0.09,9.8,2.43,14.13c2.43,4.49,5.56,5.9,10.48,4.49c3.04-0.87,6.03-2.04,8.91-3.36
			c6.56-3.03,13.4-4.61,20.62-4.25c18.06,0.91,33.63,12.58,38.76,29.94c4.98,16.87,0.99,31.71-11.58,43.98
			c-6.75,6.6-15.09,10.26-24.54,11.19c-16.19,1.6-29.04-4.87-39.57-16.63c-7.52-8.4-12.01-18.33-13.94-29.41
			c-1.39-8-1.36-16.02-0.16-24.06c1.33-8.9,3.99-17.34,8.16-25.31C137.76,48.99,137.86,48.83,138.09,48.44z M141.18,102.27
			c0.18,21.03,17.06,37.39,37.45,37.34c21.24-0.06,38.06-17.59,37.28-38.78c-0.73-19.78-16.82-36.02-37.48-35.96
			C157.54,64.94,141.3,81.85,141.18,102.27z M150.96,63.06c4.43,0.04,8.06-3.52,8.03-7.94c-0.03-4.84-3.96-8.08-8.12-7.95
			c-4.38,0.14-7.73,3.38-7.74,7.82C143.11,59.55,146.48,63.02,150.96,63.06z"/>
		<path class="st28" d="M178.5,136.23c-18.47,0.21-34.13-15.18-33.96-34.26c0.17-18.8,15.41-33.91,34.33-33.8
			c18.63,0.1,33.85,15.46,33.79,34.11C212.6,121.17,197.39,136.29,178.5,136.23z M166.87,72.17c0.15,0.53,0.25,0.9,0.37,1.26
			c1.68,5.02,1.82,9.66-2.96,13.29c-1.49,1.13-2.02,2.91-2.03,4.78c-0.01,1.21,0.11,2.41,0.14,3.62c0.04,2.08,0.15,4.15,0.06,6.23
			c-0.07,1.56-0.95,1.97-2.23,1.07c-0.94-0.66-1.75-1.51-2.57-2.33c-1.58-1.58-3.41-2.7-5.65-2.99c-1.85-0.23-3.73,0.11-5,1.38
			c-0.68,0.68-0.56,2.21-0.71,3.36c-0.09,0.71-0.06,1.45,0.02,2.17c0.15,1.46,0.36,2.92,0.56,4.5c0.76-0.21,1.27-0.35,1.77-0.49
			c4.46-1.25,8.81-1.22,12.8,1.46c1.92,1.29,3.76,2.72,5.54,4.2c5.46,4.52,6.48,10.56,5.64,17.16c-0.12,0.97-0.57,1.9-0.92,2.99
			c10.15,1.92,19.12-0.21,27.07-6.52c-3.98,0.68-5.18,0.01-5.67-3.26c-0.68-4.55-1.24-4.98-5.75-3.82
			c-2.55,0.65-4.76,0.15-6.84-1.33c-2.9-2.06-4.92-4.85-6.66-7.91c-2.74-4.82-1.74-8.39,1.78-12.71c1.12-1.37,2.53-1.33,3.7,0.03
			c0.72,0.84,1.29,1.8,1.93,2.71c1.74,2.44,2.76,2.6,5.26,0.97c2.95-1.92,6.2-2.36,9.58-1.62c0.71,0.15,1.5,0.75,1.84,1.38
			c0.17,0.31-0.51,1.24-0.99,1.69c-1.85,1.74-2.06,2.68-0.81,4.94c1.11,2.03,2.4,3.98,3.35,6.08c1.58,3.51,3.23,7.09,1.01,11.17
			c8.97-5.86,13.84-27.99,7.87-35.06c-1.12,0.69-1.35,1.79-1.43,2.98c-0.1,1.59-0.13,3.19-0.38,4.75c-0.22,1.38-0.95,1.73-2.18,1
			c-1.41-0.82-2.74-1.8-3.99-2.85c-1.86-1.56-3.88-2.85-6.29-3.04c-2.59-0.21-5.2-0.02-7.81-0.04c-2.12-0.02-4.29,0.21-6.34-0.18
			c-4.45-0.85-8.82-5.07-5.72-11.26c0.8-1.59,1.78-3.09,2.68-4.63c1.31-2.23,1.6-4.66,1.55-7.27
			C174.38,69.89,170.65,70.69,166.87,72.17z"/>
	</g>
</g>
</svg>
