<?xml version="1.0" encoding="utf-8"?>
<!-- Generator: Adobe Illustrator 27.8.1, SVG Export Plug-In . SVG Version: 6.00 Build 0)  -->
<svg version="1.1" xmlns="http://www.w3.org/2000/svg" xmlns:xlink="http://www.w3.org/1999/xlink" x="0px" y="0px"
	 viewBox="0 0 350 230" style="enable-background:new 0 0 350 230;" xml:space="preserve">
<style type="text/css">
	.st0{fill:#9E0021;}
	.st1{fill:#001E91;}
	.st2{fill:#009E1A;}
	.st3{fill:#8E0073;}
	.st4{fill:#9E9700;}
	.st5{fill:#006B65;}
	.st6{fill:#FF00D1;}
	.st7{fill:#550000;}
	.st8{fill:url(#SVGID_1_);}
	.st9{fill:#163800;enable-background:new    ;}
	.st10{fill:#00E7FF;enable-background:new    ;}
	.st11{fill:#663000;}
	.st12{fill:#00E7FF;}
	.st13{fill:#595700;}
	.st14{fill:#A06433;}
	.st15{fill:#006AC3;}
	.st16{fill:#FF7F00;}
	.st17{fill:#DFC900;}
	.st18{fill:#FF3200;}
	.st19{fill:#3200FF;}
	.st20{fill:#00FFCC;}
	.st21{fill:#4E0017;}
	.st22{fill:#7E00FF;}
	.st23{fill-rule:evenodd;clip-rule:evenodd;fill:#5700FF;}
	.st24{fill-rule:evenodd;clip-rule:evenodd;fill:#840036;}
	.st25{fill:#2B00A0;}
	.st26{fill:#46FF2C;}
	.st27{fill:#002A33;}
	.st28{fill:#007FFF;}
</style>
<g id="Layer_1">
</g>
<g id="Layer_2">
	<g>
		<path class="st2" d="M177.74,139.15c3.83-3.96,8.07-8.16,12.08-12.56c5.13-5.64,9.86-11.61,12.6-18.85
			c1.59-4.21,2.15-8.46-0.56-12.49c-3.44-5.12-8.71-7.17-14.62-4.85c-4.62,1.82-8.84,4.62-13.16,7.48c0.2-0.5,0.35-1.02,0.6-1.49
			c5.61-10.8,14.85-16.19,26.65-17.38c4.76-0.48,9.61-0.45,14.4-0.19c11.57,0.64,21.66-5.74,26.98-17.39
			c0.35-0.76,0.68-1.53,1.11-2.5c-0.01,13.49-6.27,34.3-20.5,50.55C209.89,124.82,189.31,136.16,177.74,139.15z M219.35,57.76
			c-3.74-2.33-7.95-1.02-9.65,3.03c-1.58,3.76-0.89,7.33,1.49,10.53c2.22,2.97,5.5,4.11,8.37,3.12c2.82-0.98,4.61-3.96,4.6-8.32
			C224.06,62.98,222.66,59.82,219.35,57.76z"/>
		<path class="st3" d="M172.83,97.38c-4.73-1.8-8.64-3.72-12.77-4.73c-2.92-0.71-6.22-0.63-9.21-0.12
			c-7.02,1.19-10.3,6.48-8.78,13.55c1.53,7.14,5.53,12.84,11.07,17.33c6.26,5.07,12.87,9.72,19.33,14.55
			c0.54,0.4,1.1,0.78,1.58,1.32c-7.61-1.39-14.84-3.81-21.69-7.33c-13.45-6.9-24.8-16.27-32.77-29.24c-1.97-3.2-3.25-7.08-3.84-10.8
			c-0.75-4.75,1.84-8.33,6.06-10.59c4.83-2.58,10.08-3.14,15.39-2.6c10.42,1.07,19.86,4.86,28.15,11.26
			C167.95,92.01,170.09,94.65,172.83,97.38z M117.3,64.87c-3.95-3.41-9.23-1.92-10.7,3.06c-0.83,2.79-0.39,5.51,0.99,8.08
			c1.76,3.26,5.2,5.14,8.19,4.48c3.12-0.7,5.07-3.6,5.15-7.66C120.91,69.63,119.72,66.96,117.3,64.87z"/>
	</g>
</g>
<g id="Layer_3">
</g>
<g id="Layer_4">
</g>
<g id="Layer_5">
</g>
<g id="Layer_6">
</g>
<g id="Layer_7">
</g>
<g id="Layer_8">
</g>
<g id="Layer_9">
</g>
<g id="Layer_10">
</g>
<g id="Layer_11">
</g>
<g id="Layer_12">
</g>
<g id="Layer_13">
</g>
<g id="Layer_14">
</g>
<g id="Layer_15">
</g>
</svg>
