<?xml version="1.0" encoding="utf-8"?>
<!-- Generator: Adobe Illustrator 27.8.1, SVG Export Plug-In . SVG Version: 6.00 Build 0)  -->
<svg version="1.1" xmlns="http://www.w3.org/2000/svg" xmlns:xlink="http://www.w3.org/1999/xlink" x="0px" y="0px"
	 viewBox="0 0 350 230" style="enable-background:new 0 0 350 230;" xml:space="preserve">
<style type="text/css">
	.st0{fill:#ADDAD0;}
	.st1{fill:#8DFFE9;}
	.st2{fill:#76DAC8;}
	.st3{fill:#006432;}
	.st4{fill:#0025FF;}
	.st5{fill:#00FF4E;}
	.st6{fill:#00FF85;}
	.st7{fill:#1E0D63;}
	.st8{fill:#FF4848;}
	.st9{fill:#00997C;}
	.st10{fill:#FF00C9;}
	.st11{fill:#00FF5B;}
	.st12{fill:#020044;}
	.st13{fill:#00FFCE;}
	.st14{fill:#00F3FF;}
	.st15{fill:#004437;}
	.st16{fill:#0019FF;}
	.st17{fill:#0031FF;}
	.st18{fill:#00D6AD;}
	.st19{fill:#9FDDFF;}
	.st20{fill:#720021;}
	.st21{fill:#CE7000;}
	.st22{fill:#205104;}
	.st23{fill:#004787;}
	.st24{fill:#FFFFFF;}
	.st25{fill:#EEB0F7;}
	.st26{fill:#004B96;}
	.st27{fill:#701000;}
	.st28{fill-rule:evenodd;clip-rule:evenodd;fill:#FFFF00;}
	.st29{fill-rule:evenodd;clip-rule:evenodd;fill:#68C7FC;}
	.st30{filter:url(#Adobe_OpacityMaskFilter);}
	.st31{fill-rule:evenodd;clip-rule:evenodd;fill:#FFFFFF;}
	
		.st32{mask:url(#earthglobe-b_00000087385483975625957440000004491752639183121025_);fill-rule:evenodd;clip-rule:evenodd;fill:#033D2B;}
	.st33{fill:#00FCFF;}
	.st34{fill:#003EF9;}
	.st35{fill:#001535;}
	.st36{fill:#003A55;}
</style>
<g id="Layer_1">
</g>
<g id="Layer_2">
</g>
<g id="Layer_3">
	<g>
		<path class="st7" d="M176.36,44c-0.75-0.75-1.97-0.75-2.73,0l-7.71,7.71l2.73,2.73l4.42-4.42v8.84h3.86v-8.84l4.42,4.42l2.73-2.73
			L176.36,44z M148.29,60.28h6.25v-3.86h-10.91c-1.06,0-1.93,0.86-1.93,1.93v10.91h3.86v-6.25l6.26,6.26l2.73-2.73L148.29,60.28z
			 M144.14,87.79h-8.84l4.42-4.42l-2.73-2.73l-7.71,7.71c-0.75,0.75-0.75,1.97,0,2.73l7.71,7.71l2.73-2.73l-4.42-4.42h8.84
			L144.14,87.79L144.14,87.79z M154.56,112.89l-2.73-2.73l-6.26,6.26v-6.25h-3.86v10.91c0,1.07,0.86,1.93,1.93,1.93h10.91v-3.86
			h-6.25L154.56,112.89z M181.35,125l-4.42,4.42v-8.84h-3.86v8.84l-4.42-4.42l-2.73,2.73l7.71,7.71c0.38,0.38,0.87,0.57,1.36,0.57
			c0.49,0,0.99-0.19,1.36-0.57l7.71-7.71L181.35,125z M204.44,110.17v6.25l-6.26-6.26l-2.73,2.73l6.26,6.26h-6.25v3.86h10.91
			c1.06,0,1.93-0.86,1.93-1.93v-10.91L204.44,110.17L204.44,110.17z M220.72,88.36L213,80.64l-2.73,2.73l4.42,4.42h-8.84v3.86h8.84
			l-4.42,4.42L213,98.8l7.71-7.71C221.47,90.33,221.47,89.11,220.72,88.36z M206.36,56.43h-10.91v3.86h6.25l-6.26,6.26l2.73,2.73
			l6.26-6.26v6.25h3.86V58.36C208.29,57.29,207.43,56.43,206.36,56.43z"/>
		<path class="st8" d="M161.99,91.65c0.13,3.69,0.64,7.2,1.45,10.37c3.04-1.23,6.29-1.94,9.64-2.15v-8.22L161.99,91.65L161.99,91.65
			z M163.45,77.36c-0.82,3.18-1.33,6.72-1.46,10.43h11.09V79.5C169.73,79.3,166.49,78.58,163.45,77.36z M184.95,64.64
			c1.52,1.99,2.85,4.43,3.92,7.23c1.28-0.77,2.51-1.65,3.67-2.64C190.3,67.31,187.74,65.76,184.95,64.64z M164.6,73.66
			c2.67,1.12,5.53,1.77,8.47,1.98V63.06C169.65,64.16,166.63,68.11,164.6,73.66z M157.46,69.24c1.16,0.99,2.38,1.87,3.67,2.64
			c1.07-2.8,2.4-5.24,3.92-7.23C162.26,65.76,159.7,67.31,157.46,69.24z M154.72,71.95c-3.77,4.3-6.19,9.79-6.62,15.84h10.03
			c0.14-4.38,0.76-8.49,1.77-12.16C158.07,74.6,156.33,73.37,154.72,71.95z M158.13,91.65H148.1c0.43,6.03,2.84,11.51,6.59,15.8
			c1.62-1.42,3.36-2.66,5.2-3.7C158.88,100.09,158.27,96.01,158.13,91.65z M161.1,107.51c-1.29,0.78-2.52,1.66-3.68,2.66
			c2.25,1.94,4.82,3.51,7.63,4.63C163.52,112.79,162.18,110.33,161.1,107.51z M164.58,105.71c2.03,5.59,5.07,9.56,8.5,10.66v-12.65
			C170.12,103.93,167.25,104.59,164.58,105.71z M188.9,107.51c-1.08,2.83-2.41,5.28-3.95,7.29c2.81-1.12,5.38-2.69,7.63-4.63
			C191.42,109.17,190.19,108.29,188.9,107.51z M191.87,91.65c-0.14,4.36-0.75,8.44-1.75,12.1c1.84,1.04,3.58,2.28,5.2,3.7
			c3.75-4.29,6.16-9.77,6.59-15.8H191.87L191.87,91.65z M176.93,63.06v12.58c2.95-0.21,5.8-0.86,8.47-1.98
			C183.37,68.11,180.35,64.16,176.93,63.06z M195.28,71.95c-1.61,1.41-3.34,2.65-5.18,3.68c1.01,3.67,1.63,7.77,1.77,12.16h10.03
			C201.47,81.74,199.05,76.25,195.28,71.95z M186.55,77.36c-3.04,1.23-6.28,1.94-9.62,2.14v8.29h11.09
			C187.88,84.07,187.37,80.54,186.55,77.36z M176.93,103.72v12.65c3.43-1.11,6.46-5.07,8.5-10.66
			C182.75,104.59,179.88,103.93,176.93,103.72z M176.93,91.65v8.22c3.35,0.21,6.59,0.92,9.64,2.15c0.81-3.17,1.31-6.68,1.45-10.37
			L176.93,91.65L176.93,91.65z"/>
	</g>
</g>
<g id="Layer_4">
</g>
<g id="Layer_5">
</g>
<g id="Layer_6">
</g>
<g id="Layer_7">
</g>
<g id="Layer_8">
</g>
<g id="Layer_9">
</g>
<g id="Layer_10">
</g>
<g id="Layer_11">
</g>
<g id="Layer_12">
</g>
<g id="Layer_13">
</g>
<g id="Layer_14">
</g>
<g id="Layer_15">
</g>
</svg>
