<?xml version="1.0" encoding="utf-8"?>
<!-- Generator: Adobe Illustrator 27.8.1, SVG Export Plug-In . SVG Version: 6.00 Build 0)  -->
<svg version="1.1" xmlns="http://www.w3.org/2000/svg" xmlns:xlink="http://www.w3.org/1999/xlink" x="0px" y="0px"
	 viewBox="0 0 350 230" style="enable-background:new 0 0 350 230;" xml:space="preserve">
<style type="text/css">
	.st0{fill:#9E0021;}
	.st1{fill:#001E91;}
	.st2{fill:#009E1A;}
	.st3{fill:#8E0073;}
	.st4{fill:#9E9700;}
	.st5{fill:#006B65;}
	.st6{fill:#FF00D1;}
	.st7{fill:#550000;}
	.st8{fill:url(#SVGID_1_);}
	.st9{fill:#163800;enable-background:new    ;}
	.st10{fill:#00E7FF;enable-background:new    ;}
	.st11{fill:#663000;}
	.st12{fill:#00E7FF;}
	.st13{fill:#595700;}
	.st14{fill:#A06433;}
	.st15{fill:#006AC3;}
	.st16{fill:#FF7F00;}
	.st17{fill:#DFC900;}
	.st18{fill:#FF3200;}
	.st19{fill:#3200FF;}
	.st20{fill:#00FFCC;}
	.st21{fill:#4E0017;}
	.st22{fill:#7E00FF;}
	.st23{fill-rule:evenodd;clip-rule:evenodd;fill:#5700FF;}
	.st24{fill-rule:evenodd;clip-rule:evenodd;fill:#840036;}
	.st25{fill:#2B00A0;}
	.st26{fill:#46FF2C;}
	.st27{fill:#002A33;}
	.st28{fill:#007FFF;}
</style>
<g id="Layer_1">
</g>
<g id="Layer_2">
</g>
<g id="Layer_3">
	<g>
		<path class="st4" d="M131.6,55.54c3.47,2.1,7.24,2.64,11.03,2.73c8.09,0.18,16.02-0.96,23.49-4.19c3.13-1.35,6.05-3.19,9.22-4.88
			c7.65,5.9,16.93,8.18,26.75,8.95c3.76,0.29,7.5,0.23,11.17-0.62c1.78-0.41,3.49-1.14,5.35-1.77c1.25,11.31,0.26,22.52-2.86,33.16
			c-2.68-2.5-5.43-5.04-8.12-7.64c-0.26-0.25-0.28-0.86-0.23-1.29c0.41-3.41,0.88-6.81,1.31-10.22c0.06-0.47,0.01-0.96,0.01-1.65
			c-0.7,0-1.35-0.01-1.99,0c-9.45,0.09-18.6-1.48-27.35-5.12c-1.5-0.62-2.96-1.83-4.44-1.83c-1.43,0-2.85,1.25-4.31,1.86
			c-8.96,3.76-18.33,5.25-28.01,5.08c-0.86-0.02-1.4,0-1.32,1.16c0.63,9.36,2.59,18.42,6.65,26.9c2.01,4.19,4.48,8.15,6.81,12.33
			c-2.21,2.07-4.65,4.35-7.09,6.63C136.39,103.95,128.35,74.19,131.6,55.54z"/>
		<path class="st5" d="M206.85,94.3c2.52,2.49,4.99,4.93,7.45,7.35c-13.61,13.56-27.19,27.1-40.71,40.58
			c-6.75-6.72-13.66-13.59-20.68-20.57c2.48-2.33,4.99-4.69,7.94-7.47c0.69,0.85,1.51,2.01,2.49,3.02c3,3.1,6.09,6.12,9.09,9.23
			c0.88,0.92,1.41,0.86,2.3-0.04c10.38-10.45,20.8-20.85,31.21-31.26C206.24,94.85,206.57,94.56,206.85,94.3z"/>
	</g>
</g>
<g id="Layer_4">
</g>
<g id="Layer_5">
</g>
<g id="Layer_6">
</g>
<g id="Layer_7">
</g>
<g id="Layer_8">
</g>
<g id="Layer_9">
</g>
<g id="Layer_10">
</g>
<g id="Layer_11">
</g>
<g id="Layer_12">
</g>
<g id="Layer_13">
</g>
<g id="Layer_14">
</g>
<g id="Layer_15">
</g>
</svg>
