<?xml version="1.0" encoding="utf-8"?>
<!-- Generator: Adobe Illustrator 27.8.1, SVG Export Plug-In . SVG Version: 6.00 Build 0)  -->
<svg version="1.1" xmlns="http://www.w3.org/2000/svg" xmlns:xlink="http://www.w3.org/1999/xlink" x="0px" y="0px"
	 viewBox="0 0 350 230" style="enable-background:new 0 0 350 230;" xml:space="preserve">
<style type="text/css">
	.st0{fill:#9E0021;}
	.st1{fill:#001E91;}
	.st2{fill:#009E1A;}
	.st3{fill:#8E0073;}
	.st4{fill:#9E9700;}
	.st5{fill:#006B65;}
	.st6{fill:#FF00D1;}
	.st7{fill:#550000;}
	.st8{fill:url(#SVGID_1_);}
	.st9{fill:#163800;enable-background:new    ;}
	.st10{fill:#00E7FF;enable-background:new    ;}
	.st11{fill:#663000;}
	.st12{fill:#00E7FF;}
	.st13{fill:#595700;}
	.st14{fill:#A06433;}
	.st15{fill:#006AC3;}
	.st16{fill:#FF7F00;}
	.st17{fill:#DFC900;}
	.st18{fill:#FF3200;}
	.st19{fill:#3200FF;}
	.st20{fill:#00FFCC;}
	.st21{fill:#4E0017;}
	.st22{fill:#7E00FF;}
	.st23{fill-rule:evenodd;clip-rule:evenodd;fill:#5700FF;}
	.st24{fill-rule:evenodd;clip-rule:evenodd;fill:#840036;}
	.st25{fill:#2B00A0;}
	.st26{fill:#46FF2C;}
	.st27{fill:#002A33;}
	.st28{fill:#007FFF;}
</style>
<g id="Layer_1">
</g>
<g id="Layer_2">
</g>
<g id="Layer_3">
</g>
<g id="Layer_4">
	<g>
		<path class="st6" d="M148.23,100.14c1.11,4.79,2.35,9.4,5.52,13.21c5.85,7.03,13.72,7.65,22.01,6.73
			c8.23-0.91,14.78-5.61,21.46-9.86c4.08-2.6,7.78-5.79,11.88-8.89c-1.89-1.76-3.34-3.11-5.09-4.74
			c7.63-5.57,15.17-11.08,22.99-16.78c0,11.49,0,22.62,0,34.18c-2.38-1.64-4.49-3.1-6.59-4.55c-3.77,3.27-7.35,6.71-11.27,9.72
			c-9.45,7.27-19.89,12.46-32.01,13.08c-7.57,0.39-15.07-0.35-21.32-5.47c-4.94-4.04-6.9-9.59-7.5-15.64
			C147.94,107.49,148.23,103.8,148.23,100.14z"/>
		<path class="st7" d="M157.1,48.74c-8.33,4.43-14.97,10.58-19.74,18.71c-17.18,29.24,1.94,67.24,35.62,70.62
			c7.3,0.73,14.2-1.33,20.87-4.14c7.29-3.08,13.98-7.17,20.02-12.48c-7.78,13.42-27.28,26.93-50.13,22.82
			c-22.37-4.02-39.49-23.4-40.65-45.3C121.68,72.52,139.29,53.78,157.1,48.74z M162.34,95.54c-3.22,0.7-2.66-2.96-3.96-4.46
			c-5.53,0.83-7.05,2.53-7.06,7.78c0,1.22-0.06,2.45,0.02,3.67c0.51,7.07,4.45,12.21,10.57,14.74c3.88,1.6,8.69,0.94,13.56,1.33
			c-1.4-6.72-0.6-13.03-3.39-19.01c3.79-1.54,1.94-4.48,1.82-6.79c-2.76-0.38-5.29-0.73-7.26-1
			C164.96,93.33,163.82,95.22,162.34,95.54z M200.48,96.95c-1.05,1.25-1.96,3.08-3.31,3.53c-1.94,0.65-2.45-1.62-3.45-2.9
			c-0.85-1.09-2.04-2.14-3.3-2.61c-2.16-0.81-4.49-1.15-6.76-1.7c-1.12,1.46-2.64,3.43-4.13,5.4c-0.31,0.4-0.79,0.85-0.8,1.28
			c-0.05,5.54-0.04,11.08-0.04,16.77c11.51-1.77,18.82-9.76,27.41-16.09c-1.08-0.91-2.01-1.57-2.77-2.38
			c-0.75-0.79-1.34-1.74-2.12-2.79C200.92,96.06,200.79,96.58,200.48,96.95z M178.63,78.33c-3.15,0.03-5.57,2.8-5.15,6.84
			c0.34,3.26,1.33,6.53,2.52,9.61c0.94,2.43,4.33,2.38,5.35-0.05c1.25-2.98,2-6.17,2.63-8.2C184.04,81.15,181.86,78.3,178.63,78.33z
			 M197.01,84.83c-2.44-0.1-4.31,2.05-3.99,5.33c0.24,2.44,1.02,4.89,1.93,7.19c0.72,1.84,3.11,1.83,3.86,0.01
			c0.94-2.29,1.51-4.73,1.94-6.16C200.77,86.84,199.42,84.93,197.01,84.83z M160.51,93.2c0.68,1.68,2.71,1.7,3.37-0.01
			c0.81-2.07,1.46-4.28,1.68-6.48c0.27-2.74-1.18-4.47-3.22-4.55c-2.13-0.09-3.53,1.71-3.56,5.47
			C159.18,88.95,159.68,91.14,160.51,93.2z"/>
	</g>
</g>
<g id="Layer_5">
</g>
<g id="Layer_6">
</g>
<g id="Layer_7">
</g>
<g id="Layer_8">
</g>
<g id="Layer_9">
</g>
<g id="Layer_10">
</g>
<g id="Layer_11">
</g>
<g id="Layer_12">
</g>
<g id="Layer_13">
</g>
<g id="Layer_14">
</g>
<g id="Layer_15">
</g>
</svg>
