<?xml version="1.0" encoding="utf-8"?>
<!-- Generator: Adobe Illustrator 27.8.1, SVG Export Plug-In . SVG Version: 6.00 Build 0)  -->
<svg version="1.1" xmlns="http://www.w3.org/2000/svg" xmlns:xlink="http://www.w3.org/1999/xlink" x="0px" y="0px"
	 viewBox="0 0 350 230" style="enable-background:new 0 0 350 230;" xml:space="preserve">
<style type="text/css">
	.st0{fill:#9E0021;}
	.st1{fill:#001E91;}
	.st2{fill:#009E1A;}
	.st3{fill:#8E0073;}
	.st4{fill:#9E9700;}
	.st5{fill:#006B65;}
	.st6{fill:#FF00D1;}
	.st7{fill:#550000;}
	.st8{fill:url(#SVGID_1_);}
	.st9{fill:#163800;enable-background:new    ;}
	.st10{fill:#00E7FF;enable-background:new    ;}
	.st11{fill:#663000;}
	.st12{fill:#00E7FF;}
	.st13{fill:#595700;}
	.st14{fill:#A06433;}
	.st15{fill:#006AC3;}
	.st16{fill:#FF7F00;}
	.st17{fill:#DFC900;}
	.st18{fill:#FF3200;}
	.st19{fill:#3200FF;}
	.st20{fill:#00FFCC;}
	.st21{fill:#4E0017;}
	.st22{fill:#7E00FF;}
	.st23{fill-rule:evenodd;clip-rule:evenodd;fill:#5700FF;}
	.st24{fill-rule:evenodd;clip-rule:evenodd;fill:#840036;}
	.st25{fill:#2B00A0;}
	.st26{fill:#46FF2C;}
	.st27{fill:#002A33;}
	.st28{fill:#007FFF;}
</style>
<g id="Layer_1">
</g>
<g id="Layer_2">
</g>
<g id="Layer_3">
</g>
<g id="Layer_4">
</g>
<g id="Layer_5">
	<g>
		<g>
			
				<linearGradient id="SVGID_1_" gradientUnits="userSpaceOnUse" x1="169.6045" y1="402.2399" x2="169.6045" y2="414.6599" gradientTransform="matrix(1 0 0 -1 0 482)">
				<stop  offset="0" style="stop-color:#00A482"/>
				<stop  offset="1" style="stop-color:#79DD83"/>
			</linearGradient>
			<path class="st8" d="M147.56,79.76c0.09-1.88,0.28-3.74,0.63-5.51C147.83,76.02,147.63,77.87,147.56,79.76z M188.16,76.87h0.01
				l3.48-9.53L188.16,76.87z"/>
			<path class="st9" d="M221.7,114.19c-22.58,29.2-61.12,35.22-89.4,26.93c5.41,0.6,10.87,0.7,16.27,0.34
				c35.35-2.25,68.12-23.62,68-47.85c-0.08-16.77-20.75-15.51-20.75-15.51c0.08-0.02,0.16-0.04,0.24-0.06
				c0.17-0.04,0.33-0.09,0.49-0.12c0.06-0.02,0.12-0.04,0.18-0.04c0.01,0,0.02-0.01,0.03-0.01
				C228.35,70.08,241.25,88.92,221.7,114.19z M132.3,141.12c5.41,0.6,10.87,0.7,16.27,0.34C143.2,141.72,137.75,141.62,132.3,141.12
				z M196.06,78.04c0.12-0.03,0.29-0.07,0.49-0.12C196.39,77.95,196.23,78,196.06,78.04z M159.58,115.13L154.2,114l-8.9,3.65
				c2.27,3.22,6.13,8.21,8.32,9.95c2.97-0.28,6.03-1.08,6.03-1.08s-0.49,1.8-1.23,3.48c0.61,0.01,1.21,0.02,1.83,0.02
				c2.36,0,4.67-0.07,6.86-0.17C161.37,122.5,159.58,115.13,159.58,115.13z M143.06,118.52l-10.37,4.85
				c2.74,3.4,9.53,5.61,19.52,6.36C149.18,126.41,146.06,122.66,143.06,118.52z M188.16,114l-5.38,1.13c0,0-0.17,0.72-0.59,1.93
				c-0.87,2.56-2.82,7.32-6.46,12.17c3.2-0.31,5.6-0.63,6.74-0.79c0.13-0.02,0.27-0.03,0.4-0.03c0.15,0,0.31,0.02,0.46,0.04
				c-0.39-1.08-0.62-1.93-0.62-1.93s2.37,0.62,4.97,0.96c1-0.55,1.99-1.12,2.95-1.7c0.74-0.79,1.53-1.73,2.33-2.71
				c1.49-1.84,2.99-3.84,4.1-5.42L188.16,114z"/>
			<path class="st10" d="M182.87,131.26c-0.31,0.1-0.62,0.21-0.94,0.31c-16.25,5.37-45.14,11.75-58.07,1.18
				c-10.88-8.91-1.88-25.48,12.8-31.74c0.89-0.39,1.82-0.74,2.79-1.05c0.38-0.12,0.75-0.23,1.13-0.34c0,0-15.1,9.1-11.87,22.09
				C132.26,136.01,169.14,133.2,182.87,131.26z M177.93,113.43c5.76-0.8,14.36-3,22.41-8.95c0,0-7.17-4.05-6.01-14.44
				c0.9-8.01,0.96-16.49-2.68-22.7l-3.48,9.53h-0.01l-2.65-0.95c-0.12-0.05-6.44-2.25-14.33-2.25c-7.93,0-14.27,2.22-14.33,2.25
				l-2.66,0.94l-0.97-2.64l-2.52-6.88c-1.22,2.08-2.02,4.42-2.51,6.91c-0.35,1.77-0.54,3.63-0.63,5.51
				c-0.02,0.65-0.04,1.3-0.04,1.96c0,0.01,0,0.01,0.01,0.01c-0.01,2.75,0.19,5.56,0.49,8.31c1.16,10.39-6,14.44-6,14.44
				c8.05,5.95,16.65,8.15,22.41,8.95c-1.77-1.5-3.74-3.81-5.69-7.38c-1.62-2.96-2.54-7.57-3.05-11.75
				c-0.04-0.32-0.08-0.63-0.11-0.94c-0.04-0.28-0.07-0.55-0.09-0.82c-0.06-0.56-0.11-1.1-0.15-1.62c-0.03-0.33-0.06-0.66-0.08-0.98
				c-0.02-0.3-0.04-0.6-0.06-0.88c-0.02-0.26-0.04-0.5-0.05-0.74c-0.12-2.13-0.14-3.53-0.14-3.53s17.08,2.35,25.56-8.08
				c3.39,6.78,6.78,8.08,6.78,8.08s-0.15,14.7-3.73,21.25C181.66,109.62,179.7,111.93,177.93,113.43z M192.28,57.37l-4.81,13.15
				l-1,2.72c0,0-6.72-2.41-15.29-2.41c-8.57,0-15.29,2.41-15.29,2.41l-5.81-15.87c0,0,2.94-2.48,7.81-4.55
				c0.96-0.41,2-0.81,3.11-1.18c0.39-0.12,0.78-0.24,1.19-0.36c0.13-0.04,0.27-0.08,0.4-0.11c0.17-0.05,0.35-0.1,0.53-0.14
				c0.17-0.05,0.35-0.09,0.53-0.13c0.31-0.08,0.63-0.15,0.96-0.22c0.35-0.07,0.71-0.14,1.07-0.2c0.34-0.07,0.69-0.12,1.05-0.17
				c0.22-0.03,0.45-0.06,0.68-0.09c0.24-0.03,0.48-0.06,0.73-0.08c0.32-0.03,0.66-0.06,0.99-0.08c0.34-0.02,0.68-0.04,1.02-0.05
				c0.34-0.01,0.68-0.02,1.03-0.02C183.52,49.99,192.28,57.37,192.28,57.37z M173.84,63.81h4.71v-5.33h-4.71v-4.71h-5.33v4.71h-4.7
				v5.33h4.7v4.71h5.33V63.81z"/>
		</g>
	</g>
</g>
<g id="Layer_6">
</g>
<g id="Layer_7">
</g>
<g id="Layer_8">
</g>
<g id="Layer_9">
</g>
<g id="Layer_10">
</g>
<g id="Layer_11">
</g>
<g id="Layer_12">
</g>
<g id="Layer_13">
</g>
<g id="Layer_14">
</g>
<g id="Layer_15">
</g>
</svg>
