<?xml version="1.0" encoding="utf-8"?>
<!-- Generator: Adobe Illustrator 27.8.1, SVG Export Plug-In . SVG Version: 6.00 Build 0)  -->
<svg version="1.1" xmlns="http://www.w3.org/2000/svg" xmlns:xlink="http://www.w3.org/1999/xlink" x="0px" y="0px"
	 viewBox="0 0 350 230" style="enable-background:new 0 0 350 230;" xml:space="preserve">
<style type="text/css">
	.st0{fill:#9E0021;}
	.st1{fill:#001E91;}
	.st2{fill:#009E1A;}
	.st3{fill:#8E0073;}
	.st4{fill:#9E9700;}
	.st5{fill:#006B65;}
	.st6{fill:#FF00D1;}
	.st7{fill:#550000;}
	.st8{fill:url(#SVGID_1_);}
	.st9{fill:#163800;enable-background:new    ;}
	.st10{fill:#00E7FF;enable-background:new    ;}
	.st11{fill:#663000;}
	.st12{fill:#00E7FF;}
	.st13{fill:#595700;}
	.st14{fill:#A06433;}
	.st15{fill:#006AC3;}
	.st16{fill:#FF7F00;}
	.st17{fill:#DFC900;}
	.st18{fill:#FF3200;}
	.st19{fill:#3200FF;}
	.st20{fill:#00FFCC;}
	.st21{fill:#4E0017;}
	.st22{fill:#7E00FF;}
	.st23{fill-rule:evenodd;clip-rule:evenodd;fill:#5700FF;}
	.st24{fill-rule:evenodd;clip-rule:evenodd;fill:#840036;}
	.st25{fill:#2B00A0;}
	.st26{fill:#46FF2C;}
	.st27{fill:#002A33;}
	.st28{fill:#007FFF;}
</style>
<g id="Layer_1">
</g>
<g id="Layer_2">
</g>
<g id="Layer_3">
</g>
<g id="Layer_4">
</g>
<g id="Layer_5">
</g>
<g id="Layer_6">
	<g>
		<g>
			<path class="st11" d="M191.78,90.42v9.92h-9.77v9.77h-9.92v-9.77h-9.78v-9.92h9.78v-9.77h9.92v9.77H191.78z"/>
			<path class="st12" d="M210.54,111.46c-9.65,9.08-16.24,13.99-24.5,12.31c-1.52-0.3-6.14-1.12-8.11-3.14
				c-0.08-0.09-0.16-0.17-0.23-0.25c-0.46-0.58-0.72-1.24-0.65-2.01c0-0.04,0.02-0.08,0.04-0.11c0.02-0.04,0.06-0.07,0.1-0.1
				c0.04-0.03,0.09-0.06,0.15-0.09c0.12-0.06,0.28-0.1,0.47-0.14c0.09-0.02,0.19-0.04,0.3-0.06c2.79-0.45,10.26,0.1,12.06-0.78
				c1.69-0.83,5.39-3.84,4.68-5.86c-0.48-1.37-4.3-2.59-3.18-4.33c1.86-2.87,8.22,0.89,11.09,1.98c6.66-8.24,9.89-17.74,8.32-26.42
				c-2.02-11.13-12.52-17.45-21.95-14.19c-5.51,1.91-9.04,4.88-11.02,7c-1.09,1.17-2.93,1.17-4.02,0c-1.13-1.21-2.76-2.7-4.98-4.11
				c-0.48-0.3-0.99-0.6-1.53-0.89c-0.6-0.34-1.24-0.66-1.92-0.96c-0.27-0.13-0.55-0.25-0.83-0.36c-0.57-0.24-1.15-0.47-1.77-0.68
				c-9.42-3.26-19.93,3.06-21.94,14.19c-2.45,13.57,6.78,29.2,22.66,38.78c3.76,2.27,0.76-9.11,5.19-7.63
				c1.84-0.61,1.07,6.72,4.87,12.3c2.35,3.44,6.88,4.69,13.75,5.16c7.33,0.49,17.11-9.74,21.21-5.65c0.03,0.03,0.06,0.07,0.08,0.12
				c0,0.01,0.01,0.03,0.01,0.04c0.7,2.12-13.58,13.33-19.31,15.01c-9.04,2.66-26.98-3.9-32.86-7.53
				c-23.5-14.51-37.12-37.83-33.46-58.1c3.05-16.83,18.92-26.36,33.15-21.43c9.31,3.22,14.89,8.44,17.62,11.64
				c1.09,1.28,3.05,1.28,4.14,0c1.34-1.57,3.36-3.63,6.17-5.69h0.01c0.41-0.31,0.84-0.61,1.29-0.91c0.19-0.13,0.39-0.26,0.59-0.39
				c0.2-0.13,0.4-0.26,0.61-0.39c0.62-0.4,1.27-0.78,1.96-1.16c0.44-0.24,0.9-0.48,1.36-0.73c0.48-0.24,0.96-0.47,1.46-0.7
				c0.34-0.16,0.7-0.31,1.06-0.47c0.45-0.19,0.91-0.38,1.38-0.56c0.01-0.01,0.02-0.01,0.03-0.01c0.55-0.22,1.12-0.43,1.7-0.63
				c14.23-4.93,30.22,4.12,31.47,21.93C228.15,88.09,220.51,102.09,210.54,111.46z M167.58,70.27c-0.6-0.34-1.24-0.66-1.92-0.96
				C166.34,69.62,166.97,69.94,167.58,70.27z M169.11,71.16c-0.17-0.11-0.36-0.21-0.54-0.32c0.24,0.15,0.48,0.29,0.71,0.45
				C169.22,71.25,169.17,71.21,169.11,71.16z M168.57,70.85c-0.32-0.19-0.64-0.39-0.99-0.57C167.92,70.46,168.25,70.65,168.57,70.85
				z"/>
		</g>
	</g>
</g>
<g id="Layer_7">
</g>
<g id="Layer_8">
</g>
<g id="Layer_9">
</g>
<g id="Layer_10">
</g>
<g id="Layer_11">
</g>
<g id="Layer_12">
</g>
<g id="Layer_13">
</g>
<g id="Layer_14">
</g>
<g id="Layer_15">
</g>
</svg>
