<?xml version="1.0" encoding="utf-8"?>
<!-- Generator: Adobe Illustrator 27.8.1, SVG Export Plug-In . SVG Version: 6.00 Build 0)  -->
<svg version="1.1" xmlns="http://www.w3.org/2000/svg" xmlns:xlink="http://www.w3.org/1999/xlink" x="0px" y="0px"
	 viewBox="0 0 350 230" style="enable-background:new 0 0 350 230;" xml:space="preserve">
<style type="text/css">
	.st0{fill:#9E0021;}
	.st1{fill:#001E91;}
	.st2{fill:#009E1A;}
	.st3{fill:#8E0073;}
	.st4{fill:#9E9700;}
	.st5{fill:#006B65;}
	.st6{fill:#FF00D1;}
	.st7{fill:#550000;}
	.st8{fill:url(#SVGID_1_);}
	.st9{fill:#163800;enable-background:new    ;}
	.st10{fill:#00E7FF;enable-background:new    ;}
	.st11{fill:#663000;}
	.st12{fill:#00E7FF;}
	.st13{fill:#595700;}
	.st14{fill:#A06433;}
	.st15{fill:#006AC3;}
	.st16{fill:#FF7F00;}
	.st17{fill:#DFC900;}
	.st18{fill:#FF3200;}
	.st19{fill:#3200FF;}
	.st20{fill:#00FFCC;}
	.st21{fill:#4E0017;}
	.st22{fill:#7E00FF;}
	.st23{fill-rule:evenodd;clip-rule:evenodd;fill:#5700FF;}
	.st24{fill-rule:evenodd;clip-rule:evenodd;fill:#840036;}
	.st25{fill:#2B00A0;}
	.st26{fill:#46FF2C;}
	.st27{fill:#002A33;}
	.st28{fill:#007FFF;}
</style>
<g id="Layer_1">
</g>
<g id="Layer_2">
</g>
<g id="Layer_3">
</g>
<g id="Layer_4">
</g>
<g id="Layer_5">
</g>
<g id="Layer_6">
</g>
<g id="Layer_7">
	<g>
		<g>
			<path class="st13" d="M193.24,78.04v-2.33c-5.13,3.81-5.4,7.47-6.77,9.43c-2.41,3.46-4.57,3.01-4.97,1.76
				c-0.62-1.94,0.22-7.05-1.58-7.05c-7.09,0.01-12.74,0.32-17.28,9.04s-7.76,5.16-7.76,5.16s5.83-14.26,10.2-19.07
				c3.3-3.63,11.29-4.83,17.89-6.36c3.9-0.9,7.3-2.3,10.26-3.86V50.28h-36.48v27.76H129v36.48h27.76v4.49
				c5.52-3.92,5.78-7.72,7.17-9.72c2.41-3.46,4.57-3.01,4.97-1.76c0.62,1.94-0.22,7.05,1.58,7.05c7.09-0.01,12.74-0.32,17.28-9.04
				s7.76-5.16,7.76-5.16s-5.83,14.26-10.2,19.07c-3.3,3.63-11.29,4.83-17.89,6.36c-4.09,0.95-7.61,2.43-10.67,4.08v12.39h36.48
				v-27.76H221V78.04L193.24,78.04L193.24,78.04z M175,105.49c-5.65-1.89-9.27-6.75-8.53-10.84c0.49-2.72,3.05-4.26,5.35-3.46
				c2.29,0.79,3.18,2.33,3.18,2.33s0.89-1.54,3.18-2.33c2.3-0.8,4.86,0.74,5.35,3.46C184.27,98.74,180.65,103.6,175,105.49z"/>
			<path class="st14" d="M221,78.04v36.49h-19.73c-3.38-1.55-6.67-3.31-9.83-5.16c2.32-4.67,4.08-8.98,4.08-8.98
				s-3.22-3.56-7.76,5.16c-0.22,0.42-0.44,0.81-0.66,1.2c-0.88-0.55-1.74-1.1-2.6-1.65c-1.39-0.9-2.77-1.84-4.12-2.8
				c2.37-2.24,3.61-5.1,3.15-7.66c-0.49-2.71-3.05-4.25-5.35-3.46c-2.29,0.79-3.18,2.33-3.18,2.33s-0.89-1.54-3.18-2.33
				c-1.35-0.47-2.79-0.12-3.85,0.79c-1.53-1.51-3.01-3.07-4.42-4.69c4.38-7.15,9.75-7.42,16.38-7.43c1.79-0.01,0.95,5.1,1.58,7.04
				c0.4,1.26,2.55,1.71,4.97-1.75c1.36-1.95,1.63-5.62,6.76-9.43v2.33H221z M156.76,50.28v27.76h-0.15
				c1.08,1.68,2.22,3.32,3.43,4.91c1.64-3.15,3.44-6.2,5.05-7.97c3.3-3.63,11.29-4.83,17.89-6.36c3.9-0.9,7.3-2.3,10.26-3.86V50.28
				H156.76z"/>
		</g>
	</g>
</g>
<g id="Layer_8">
</g>
<g id="Layer_9">
</g>
<g id="Layer_10">
</g>
<g id="Layer_11">
</g>
<g id="Layer_12">
</g>
<g id="Layer_13">
</g>
<g id="Layer_14">
</g>
<g id="Layer_15">
</g>
</svg>
