<?xml version="1.0" encoding="utf-8"?>
<!-- Generator: Adobe Illustrator 27.8.1, SVG Export Plug-In . SVG Version: 6.00 Build 0)  -->
<svg version="1.1" xmlns="http://www.w3.org/2000/svg" xmlns:xlink="http://www.w3.org/1999/xlink" x="0px" y="0px"
	 viewBox="0 0 350 230" style="enable-background:new 0 0 350 230;" xml:space="preserve">
<style type="text/css">
	.st0{fill:#9E0021;}
	.st1{fill:#001E91;}
	.st2{fill:#009E1A;}
	.st3{fill:#8E0073;}
	.st4{fill:#9E9700;}
	.st5{fill:#006B65;}
	.st6{fill:#FF00D1;}
	.st7{fill:#550000;}
	.st8{fill:url(#SVGID_1_);}
	.st9{fill:#163800;enable-background:new    ;}
	.st10{fill:#00E7FF;enable-background:new    ;}
	.st11{fill:#663000;}
	.st12{fill:#00E7FF;}
	.st13{fill:#595700;}
	.st14{fill:#A06433;}
	.st15{fill:#006AC3;}
	.st16{fill:#FF7F00;}
	.st17{fill:#DFC900;}
	.st18{fill:#FF3200;}
	.st19{fill:#3200FF;}
	.st20{fill:#00FFCC;}
	.st21{fill:#4E0017;}
	.st22{fill:#7E00FF;}
	.st23{fill-rule:evenodd;clip-rule:evenodd;fill:#5700FF;}
	.st24{fill-rule:evenodd;clip-rule:evenodd;fill:#840036;}
	.st25{fill:#2B00A0;}
	.st26{fill:#46FF2C;}
	.st27{fill:#002A33;}
	.st28{fill:#007FFF;}
</style>
<g id="Layer_1">
</g>
<g id="Layer_2">
</g>
<g id="Layer_3">
</g>
<g id="Layer_4">
</g>
<g id="Layer_5">
</g>
<g id="Layer_6">
</g>
<g id="Layer_7">
</g>
<g id="Layer_8">
	<g>
		<g>
			<path class="st15" d="M142.95,49.18c0.36,3.07,0.71,6.19,1.1,9.31c0.07,0.56,0.29,1.11,0.48,1.65c2.66,7.39,6.68,9.39,14.07,6.77
				c4.23-1.5,8.3-3.42,12.52-4.94c10.12-3.65,19.62-2.7,28.05,4.38c5.29,4.44,8.86,10.16,11.03,16.66
				c6.38,19.1,2.88,36.16-11.28,50.62c-5.99,6.12-13.48,9.58-22.16,10.02c-7.66,0.38-14.38-2.21-20.29-6.94
				c-11.88-9.51-19.07-21.9-21.68-36.81c-2.99-17.1-0.26-33.46,7.27-49.06C142.36,50.23,142.7,49.64,142.95,49.18z M204.34,97.25
				c-0.53-2.47-0.95-6.53-2.27-10.28c-5.8-16.51-23.14-21.14-35.98-9.49c-10.83,9.82-14.66,22.27-12.14,36.61
				c1.11,6.3,4.02,11.77,9.1,15.83c7.42,5.95,17.2,6.03,25.64,0C199.3,122.34,203.58,111.46,204.34,97.25z"/>
			<path class="st16" d="M164.55,55.46c-0.03,4.58-3.55,8.11-8.1,8.11c-4.48,0.01-8.14-3.61-8.18-8.1
				c-0.04-4.54,3.66-8.21,8.25-8.19C161.06,47.31,164.58,50.89,164.55,55.46z"/>
		</g>
	</g>
</g>
<g id="Layer_9">
</g>
<g id="Layer_10">
</g>
<g id="Layer_11">
</g>
<g id="Layer_12">
</g>
<g id="Layer_13">
</g>
<g id="Layer_14">
</g>
<g id="Layer_15">
</g>
</svg>
