<?xml version="1.0" encoding="utf-8"?>
<!-- Generator: Adobe Illustrator 27.8.1, SVG Export Plug-In . SVG Version: 6.00 Build 0)  -->
<svg version="1.1" xmlns="http://www.w3.org/2000/svg" xmlns:xlink="http://www.w3.org/1999/xlink" x="0px" y="0px"
	 viewBox="0 0 350 230" style="enable-background:new 0 0 350 230;" xml:space="preserve">
<style type="text/css">
	.st0{fill:#9E0021;}
	.st1{fill:#001E91;}
	.st2{fill:#009E1A;}
	.st3{fill:#8E0073;}
	.st4{fill:#9E9700;}
	.st5{fill:#006B65;}
	.st6{fill:#FF00D1;}
	.st7{fill:#550000;}
	.st8{fill:url(#SVGID_1_);}
	.st9{fill:#163800;enable-background:new    ;}
	.st10{fill:#00E7FF;enable-background:new    ;}
	.st11{fill:#663000;}
	.st12{fill:#00E7FF;}
	.st13{fill:#595700;}
	.st14{fill:#A06433;}
	.st15{fill:#006AC3;}
	.st16{fill:#FF7F00;}
	.st17{fill:#DFC900;}
	.st18{fill:#FF3200;}
	.st19{fill:#3200FF;}
	.st20{fill:#00FFCC;}
	.st21{fill:#4E0017;}
	.st22{fill:#7E00FF;}
	.st23{fill-rule:evenodd;clip-rule:evenodd;fill:#5700FF;}
	.st24{fill-rule:evenodd;clip-rule:evenodd;fill:#840036;}
	.st25{fill:#2B00A0;}
	.st26{fill:#46FF2C;}
	.st27{fill:#002A33;}
	.st28{fill:#007FFF;}
</style>
<g id="Layer_1">
</g>
<g id="Layer_2">
</g>
<g id="Layer_3">
</g>
<g id="Layer_4">
</g>
<g id="Layer_5">
</g>
<g id="Layer_6">
</g>
<g id="Layer_7">
</g>
<g id="Layer_8">
</g>
<g id="Layer_9">
	<path class="st17" d="M126.54,97.2c3.51,0.76,6.96,1.79,10.47,2.16c2.4,0.25,3.56,1.21,4.63,3.26c2.84,5.47,5.89,10.88,9.94,15.56
		c0.52,0.6,1.31,1.06,1.62,1.8c4.32,8.47,8.64,15.73,15.12,22.12c0.11,0.11,0.24,0.2,0.53,0.43c-0.96-1.87-1.92-3.52-2.69-5.25
		c-2.88-6.41-3.66-13.2-3.08-20.12c1.72-20.45,10.22-37.93,23.69-53.14c7.61-8.59,16.6-15.39,27.18-19.98
		c0.49-0.21,0.99-0.4,1.49-0.59c0.07-0.03,0.15,0-0.05,0c-1.03,1.14-2.19,2.43-3.35,3.71c-6.26,6.9-10.26,15.04-12.75,23.91
		c-2.92,10.38-5.5,20.86-8.44,31.24c-2.57,9.09-5.82,17.96-10.28,26.32c-1.11,2.08-2.58,3.97-3.89,5.97c1-0.74,2.05-1.52,3.1-2.28
		c8.8-6.39,16.33-13.97,22-23.33c4.44-7.34,7.6-15.14,8.74-23.71c0-0.01,0-0.02,0-0.03c0.36-5.66,1.1-3.88-2.78-7.77
		c-1.3-1.3-2.82-2.39-4.17-3.65c-0.3-0.28-0.55-0.92-0.44-1.28c1-3.38,2.09-6.73,3.28-10.52c3.41,2.57,6.68,4.81,9.69,7.36
		c2.43,2.06,4.59,4.46,6.8,6.78c0.39,0.41,0.59,1.16,0.57,1.75c-0.64,18.24-7.6,33.99-19,47.98c-8.33,10.22-18.72,17.87-30.09,24.34
		c-0.6,0.34-1.1,0.51-1.8,0.12c-10-5.55-19.35-11.93-27.1-20.47C136.79,120.32,130.61,109.32,126.54,97.2z M192.27,52.77
		c-9.47-3.21-19.12-4.27-29-2.37c-11.16,2.15-20.87,7.2-29.29,14.78c-0.69,0.62-1.18,0.72-2,0.27c-1.57-0.86-3.22-1.57-4.84-2.34
		c-0.06,0.1-0.12,0.2-0.19,0.3c4.76,4.01,9.51,8.01,14.27,12.02c0.46-0.43,0.74-0.68,1-0.94c10.18-10,22.5-13.85,36.49-12.18
		c3.08,0.37,5.02-0.13,6.98-2.53c2.03-2.48,4.61-4.51,6.99-6.78C192.55,52.92,192.42,52.82,192.27,52.77z"/>
</g>
<g id="Layer_10">
</g>
<g id="Layer_11">
</g>
<g id="Layer_12">
</g>
<g id="Layer_13">
</g>
<g id="Layer_14">
</g>
<g id="Layer_15">
</g>
</svg>
