<?xml version="1.0" encoding="utf-8"?>
<!-- Generator: Adobe Illustrator 27.8.1, SVG Export Plug-In . SVG Version: 6.00 Build 0)  -->
<svg version="1.1" id="Layer_1" xmlns="http://www.w3.org/2000/svg" xmlns:xlink="http://www.w3.org/1999/xlink" x="0px" y="0px"
	 viewBox="0 0 350 230" style="enable-background:new 0 0 350 230;" xml:space="preserve">
<style type="text/css">
	.st0{fill:#005066;}
	.st1{fill:#008EAF;}
	.st2{fill:#B8FF66;}
	.st3{fill:#00A4FF;}
	.st4{fill:#315103;}
	.st5{fill:#036AFF;}
	.st6{fill:#F033FF;}
	.st7{fill:#0768AA;}
	.st8{fill:#5000FF;}
	.st9{fill:#116F8C;}
	.st10{fill:#490000;}
	.st11{fill:#0F343A;}
	.st12{fill:#97A50E;}
	.st13{fill:#1893B1;}
	.st14{fill:#8F00FF;}
	.st15{fill:#8D7200;}
	.st16{fill:#005042;}
	.st17{fill:#00DEFF;}
	.st18{fill-rule:evenodd;clip-rule:evenodd;fill:#00C3FF;}
	.st19{fill-rule:evenodd;clip-rule:evenodd;fill:#005B59;}
	.st20{fill:#AF412B;}
	.st21{fill:#4D0F00;}
	.st22{fill:#295FA6;}
	.st23{fill:#595959;}
	.st24{fill:#BF0413;}
	.st25{fill:#2A95BF;}
	.st26{fill-rule:evenodd;clip-rule:evenodd;fill:#4DBC06;}
	.st27{fill:#491D00;}
</style>
<g>
	<path class="st22" d="M108.83,107.62c27.78-0.28,52.35-9.06,73.91-26.38c-1.96,5.02-15.74,20.09-25.74,27.95
		c-10.12,7.96-21.35,13.92-33.52,18.11c-12.16,4.19-24.68,6.24-37.64,6.27c0-38.81,0-77.51,0-116.29c37.49,0,74.9,0,112.47,0
		c-2.71,9.39-6.83,18.02-12.26,26.03c-5.43,8.01-11.96,15-19.65,20.92c4.21-7.52,7.52-15.37,9.68-23.86
		c-0.56-0.03-0.98-0.07-1.4-0.07c-21.49,0-42.98,0.01-64.47,0.01c-1.38,0-1.38,0-1.38,1.44c0,20.84,0,41.68,0,62.53
		C108.83,105.35,108.83,106.42,108.83,107.62z"/>
	<path class="st23" d="M224.81,68.07c-27.78,0.5-52.28,9.49-73.69,26.98c1.92-5.04,15.58-20.22,25.51-28.17
		C186.69,58.85,197.87,52.8,210,48.5c12.13-4.29,24.63-6.45,37.58-6.58c0.32,38.81,0.64,77.51,0.96,116.28
		c-37.49,0.31-74.9,0.62-112.46,0.92c2.63-9.41,6.68-18.07,12.05-26.13c5.37-8.05,11.83-15.09,19.47-21.08
		c-4.15,7.55-7.4,15.43-9.49,23.94c0.56,0.03,0.98,0.07,1.4,0.06c21.49-0.18,42.98-0.36,64.47-0.54c1.38-0.01,1.38-0.01,1.37-1.45
		c-0.17-20.84-0.34-41.68-0.51-62.52C224.83,70.34,224.82,69.27,224.81,68.07z"/>
</g>
</svg>
