<?xml version="1.0" encoding="utf-8"?>
<!-- Generator: Adobe Illustrator 27.8.1, SVG Export Plug-In . SVG Version: 6.00 Build 0)  -->
<svg version="1.1" id="Layer_1" xmlns="http://www.w3.org/2000/svg" xmlns:xlink="http://www.w3.org/1999/xlink" x="0px" y="0px"
	 viewBox="0 0 350 230" style="enable-background:new 0 0 350 230;" xml:space="preserve">
<style type="text/css">
	.st0{fill:#005066;}
	.st1{fill:#008EAF;}
	.st2{fill:#B8FF66;}
	.st3{fill:#00A4FF;}
	.st4{fill:#315103;}
	.st5{fill:#036AFF;}
	.st6{fill:#F033FF;}
	.st7{fill:#0768AA;}
	.st8{fill:#5000FF;}
	.st9{fill:#116F8C;}
	.st10{fill:#490000;}
	.st11{fill:#0F343A;}
	.st12{fill:#97A50E;}
	.st13{fill:#1893B1;}
	.st14{fill:#8F00FF;}
	.st15{fill:#8D7200;}
	.st16{fill:#005042;}
	.st17{fill:#00DEFF;}
	.st18{fill-rule:evenodd;clip-rule:evenodd;fill:#00C3FF;}
	.st19{fill-rule:evenodd;clip-rule:evenodd;fill:#005B59;}
	.st20{fill:#AF412B;}
	.st21{fill:#4D0F00;}
	.st22{fill:#295FA6;}
	.st23{fill:#595959;}
	.st24{fill:#BF0413;}
	.st25{fill:#2A95BF;}
	.st26{fill-rule:evenodd;clip-rule:evenodd;fill:#4DBC06;}
	.st27{fill:#491D00;}
</style>
<g>
	<g>
		<path class="st26" d="M263.82,57.68l10.05,46.49c4.87,22.47,10.03,22.77-10.93,18.3l-37.42-7.51c-11.62-2.52-11.84-1.17-0.58-5.93
			l8.65-3.63C157.77,21.67,84.9,18.62,72.26,54.04l0,0c16.72-29.63,61.89-28.43,140.94,53.59l-8.09,3.29
			c-10.33,4.43-10.11,3.08,0.6,5.48l62.8,15.64c17.6,3.73,20.4,2.03,16.48-13.5c-7.48-29.27-12.68-52.18-22.87-81.22l-10.58,20.42
			c-21.62-20.8-31.11-26.78-57.79-45.22c21.83,16.77,41.2,39.61,59.12,59.2l5.2-14.47C262.29,45.94,261.27,46.05,263.82,57.68
			L263.82,57.68z"/>
		<path class="st18" d="M86.13,136.88l-9.95-46.49c-4.97-22.34-10.04-22.77,10.93-18.3l37.31,7.52c11.73,2.51,11.83,1.17,0.6,5.93
			l-8.66,3.63c75.81,83.73,148.78,86.89,161.43,51.34h-0.12c-16.61,29.76-61.89,28.43-140.83-53.59l7.97-3.29
			c10.34-4.3,10.24-3.08-0.59-5.49L81.54,62.5c-17.7-3.71-20.5-2.02-16.47,13.63c7.48,29.27,12.57,52.07,22.76,81.22l10.69-20.53
			c21.51,20.79,31,26.78,57.69,45.22c-21.72-16.77-41.1-39.61-59.12-59.2l-5.21,14.46C87.66,148.74,88.79,148.49,86.13,136.88
			L86.13,136.88z"/>
	</g>
</g>
</svg>
