<?xml version="1.0" encoding="utf-8"?>
<!-- Generator: Adobe Illustrator 27.8.1, SVG Export Plug-In . SVG Version: 6.00 Build 0)  -->
<svg version="1.1" id="Layer_1" xmlns="http://www.w3.org/2000/svg" xmlns:xlink="http://www.w3.org/1999/xlink" x="0px" y="0px"
	 viewBox="0 0 350 230" style="enable-background:new 0 0 350 230;" xml:space="preserve">
<style type="text/css">
	.st0{fill:#005066;}
	.st1{fill:#008EAF;}
	.st2{fill:#B8FF66;}
	.st3{fill:#00A4FF;}
	.st4{fill:#315103;}
	.st5{fill:#036AFF;}
	.st6{fill:#F033FF;}
	.st7{fill:#0768AA;}
	.st8{fill:#5000FF;}
	.st9{fill:#116F8C;}
	.st10{fill:#490000;}
	.st11{fill:#0F343A;}
	.st12{fill:#97A50E;}
	.st13{fill:#1893B1;}
	.st14{fill:#8F00FF;}
	.st15{fill:#8D7200;}
	.st16{fill:#005042;}
	.st17{fill:#00DEFF;}
	.st18{fill-rule:evenodd;clip-rule:evenodd;fill:#00C3FF;}
	.st19{fill-rule:evenodd;clip-rule:evenodd;fill:#005B59;}
	.st20{fill:#AF412B;}
	.st21{fill:#4D0F00;}
	.st22{fill:#295FA6;}
	.st23{fill:#595959;}
	.st24{fill:#BF0413;}
	.st25{fill:#2A95BF;}
	.st26{fill-rule:evenodd;clip-rule:evenodd;fill:#4DBC06;}
	.st27{fill:#491D00;}
</style>
<g>
	<polygon class="st0" points="206.36,45.61 206.36,73.81 189.34,53.66 189.34,53.53 137.18,77.78 137.18,107.28 120.16,85.82 
		120.16,85.7 68,109.96 68,148.12 120.16,148.12 120.16,126.39 137.18,148.12 137.18,148.12 137.18,148.12 189.34,148.12 
		189.34,126.39 206.36,147.23 206.36,148.12 258.51,148.12 258.51,21.35 	"/>
	<g>
		<path class="st1" d="M137.18,153.97l-17.02-21.73V91.67l17.02,21.73V153.97z M207.08,153.97l-17.75-21.73V59.51l17.75,21.01
			V153.97z"/>
		<path class="st0" d="M68,115.8v38.16h52.16V91.55L68,115.8z M137.18,83.63v70.34h52.16V59.37L137.18,83.63z M206.36,51.46v102.51
			h52.16V27.2L206.36,51.46z"/>
	</g>
</g>
</svg>
