<?xml version="1.0" encoding="utf-8"?>
<!-- Generator: Adobe Illustrator 27.8.1, SVG Export Plug-In . SVG Version: 6.00 Build 0)  -->
<svg version="1.1" id="Layer_1" xmlns="http://www.w3.org/2000/svg" xmlns:xlink="http://www.w3.org/1999/xlink" x="0px" y="0px"
	 viewBox="0 0 350 230" style="enable-background:new 0 0 350 230;" xml:space="preserve">
<style type="text/css">
	.st0{fill:#005066;}
	.st1{fill:#008EAF;}
	.st2{fill:#B8FF66;}
	.st3{fill:#00A4FF;}
	.st4{fill:#315103;}
	.st5{fill:#036AFF;}
	.st6{fill:#F033FF;}
	.st7{fill:#0768AA;}
	.st8{fill:#5000FF;}
	.st9{fill:#116F8C;}
	.st10{fill:#490000;}
	.st11{fill:#0F343A;}
	.st12{fill:#97A50E;}
	.st13{fill:#1893B1;}
	.st14{fill:#8F00FF;}
	.st15{fill:#8D7200;}
	.st16{fill:#005042;}
	.st17{fill:#00DEFF;}
	.st18{fill-rule:evenodd;clip-rule:evenodd;fill:#00C3FF;}
	.st19{fill-rule:evenodd;clip-rule:evenodd;fill:#005B59;}
	.st20{fill:#AF412B;}
	.st21{fill:#4D0F00;}
	.st22{fill:#295FA6;}
	.st23{fill:#595959;}
	.st24{fill:#BF0413;}
	.st25{fill:#2A95BF;}
	.st26{fill-rule:evenodd;clip-rule:evenodd;fill:#4DBC06;}
	.st27{fill:#491D00;}
</style>
<g>
	<path class="st24" d="M223.58,32.05c-1.4-2.56-2.7-4.94-4.33-7.91c9.79,0.47,19.1,0.92,28.96,1.39
		c-4.54,8.8-8.85,17.15-13.31,25.81c-1.63-2.74-3.08-5.17-4.71-7.91c-7.71,4.43-15.19,8.7-22.66,13.01
		c-27.85,16.09-55.69,32.19-83.54,48.28c-1.71,0.99-3.4,1.59-2.55,4.36c6.73,21.94,19.7,38.36,41.43,46.99
		c1.8,0.71,4.4,0.61,6.22-0.12c23.59-9.43,36.4-27.83,42.49-51.68c3.56-13.95,4.77-28.21,4.96-42.54c0.05-3.48,1.21-5.62,4.34-7.05
		c2.48-1.13,4.78-2.65,7.58-4.24c0.47,1.37,1.14,2.41,1.13,3.44c-0.25,24.52-1.7,48.86-11.63,71.8
		c-9.67,22.34-26.63,36.67-49.42,44.38c-1.79,0.61-4.18,0.38-6.02-0.25c-28.99-9.93-46.39-30.46-54.18-59.67
		c-2.63-9.85-2.58-9.85,6.37-15.02c35.13-20.28,70.26-40.56,105.38-60.85C221.19,33.62,222.26,32.89,223.58,32.05z M114.75,89.21
		c1.1-0.77,2.04-2.65,2-3.99c-0.1-4.32-0.93-8.62-1.05-12.95c-0.19-7.3-0.05-14.6-0.05-22.3c1.35,0,2.76,0,4.18,0
		c14.58,0,29.2-0.66,43.73,0.2c13.11,0.78,24.88-1.43,35.37-9.53c1.73-1.34,3.74-2.31,6.26-3.83c-34.97,0-68.96,0-103.34,0
		c-0.21,19.44,0.08,38.66,3.08,58.12C108.48,92.9,111.78,91.29,114.75,89.21z"/>
	<path class="st25" d="M174.37,81.51c0,21.03,0.02,41.26-0.02,61.49c-0.01,3.3-6.67,7.1-10.13,5.87c-6.65-2.36-6.83-2.62-6.83-9.81
		c0-14.85,0.06-29.69-0.06-44.54c-0.02-2.43,0.75-3.83,2.86-4.96C164.79,87.09,169.27,84.42,174.37,81.51z M201.51,110.51
		c1.6-14.62,0.4-29.55,0.4-44.95c-5.53,3.2-10.64,6.07-15.64,9.12c-0.7,0.42-1.27,1.67-1.27,2.54c-0.07,19.82-0.05,39.63-0.05,60.52
		C193.39,129.61,200.38,120.92,201.51,110.51z M132.45,105.56c-2.49,1.29-3.14,3.14-2.44,5.44c3.1,10.15,8.56,18.83,16.68,26.64
		c0-13.68,0-26.61,0-40.18C141.54,100.42,137.09,103.17,132.45,105.56z M174.37,53.48h-55.22v29.53L174.37,53.48z"/>
</g>
</svg>
