<?xml version="1.0" encoding="utf-8"?>
<!-- Generator: Adobe Illustrator 27.8.1, SVG Export Plug-In . SVG Version: 6.00 Build 0)  -->
<svg version="1.1" id="Layer_1" xmlns="http://www.w3.org/2000/svg" xmlns:xlink="http://www.w3.org/1999/xlink" x="0px" y="0px"
	 viewBox="0 0 350 230" style="enable-background:new 0 0 350 230;" xml:space="preserve">
<style type="text/css">
	.st0{fill:#005066;}
	.st1{fill:#008EAF;}
	.st2{fill:#B8FF66;}
	.st3{fill:#00A4FF;}
	.st4{fill:#315103;}
	.st5{fill:#036AFF;}
	.st6{fill:#F033FF;}
	.st7{fill:#0768AA;}
	.st8{fill:#5000FF;}
	.st9{fill:#116F8C;}
	.st10{fill:#490000;}
	.st11{fill:#0F343A;}
	.st12{fill:#97A50E;}
	.st13{fill:#1893B1;}
	.st14{fill:#8F00FF;}
	.st15{fill:#8D7200;}
	.st16{fill:#005042;}
	.st17{fill:#00DEFF;}
	.st18{fill-rule:evenodd;clip-rule:evenodd;fill:#00C3FF;}
	.st19{fill-rule:evenodd;clip-rule:evenodd;fill:#005B59;}
	.st20{fill:#AF412B;}
	.st21{fill:#4D0F00;}
	.st22{fill:#295FA6;}
	.st23{fill:#595959;}
	.st24{fill:#BF0413;}
	.st25{fill:#2A95BF;}
	.st26{fill-rule:evenodd;clip-rule:evenodd;fill:#4DBC06;}
	.st27{fill:#491D00;}
</style>
<g>
	<path class="st23" d="M164.72,49.37l17.78,30.79c2.01-0.04,4.02-0.05,6.05-0.05c5.2,0,10.34,0.12,15.39,0.34l-39.22-67.93
		l-43.09,74.64c7.48-1.71,15.42-3.14,23.72-4.25L164.72,49.37z M132.81,79.13l31.91-55.27l29.22,50.62c-1.8-0.03-3.6-0.04-5.4-0.04
		c-0.93,0-1.86,0-2.8,0.01l-16.12-27.92l-4.91-8.5l-4.91,8.5l-17.98,31.15C138.78,78.12,135.77,78.61,132.81,79.13z"/>
	<path class="st27" d="M269.43,90.82C269.43,90.82,269.43,90.82,269.43,90.82c-18.76-4.19-40.35-6.58-63.32-6.61h-0.41
		c-5.22,0-10.38,0.12-15.45,0.37c-1.7,0.07-3.38,0.17-5.05,0.27c-8,0.51-15.76,1.29-23.22,2.34c-7.46,1.06-14.6,2.38-21.38,3.93
		c-1.17,0.27-2.33,0.54-3.47,0.83c-8.03,1.97-15.49,4.29-22.25,6.88c-24.96,9.58-40.49,23.07-40.49,38.02
		c0,19.19,25.62,35.98,63.9,45.18c-22.23-9.77-35.81-22.84-35.81-37.2c0-4.78,1.51-9.42,4.33-13.84h126.3L210.1,91.14
		c8.76-0.73,17.82-1.11,27.11-1.11c12.5,0,24.61,0.68,36.1,1.99c0.77,0.08,1.54,0.17,2.3,0.26
		C273.59,91.78,271.53,91.28,269.43,90.82z M128.28,112.57c15.45-8.62,36.92-15.33,61.9-19.11l11.03,19.11H128.28z M94.57,153.21
		c5.42,7.16,12.21,13.15,19.19,18.75c-7.09-5.51-13.99-11.37-19.55-18.47c-44.39-57.95,112.6-66.02,144.21-66.32
		C207.85,88.48,51.11,96.36,94.57,153.21z"/>
</g>
</svg>
