<?xml version="1.0" encoding="utf-8"?>
<!-- Generator: Adobe Illustrator 27.8.1, SVG Export Plug-In . SVG Version: 6.00 Build 0)  -->
<svg version="1.1" id="Layer_1" xmlns="http://www.w3.org/2000/svg" xmlns:xlink="http://www.w3.org/1999/xlink" x="0px" y="0px"
	 viewBox="0 0 350 230" style="enable-background:new 0 0 350 230;" xml:space="preserve">
<style type="text/css">
	.st0{fill:#005066;}
	.st1{fill:#008EAF;}
	.st2{fill:#B8FF66;}
	.st3{fill:#00A4FF;}
	.st4{fill:#315103;}
	.st5{fill:#036AFF;}
	.st6{fill:#F033FF;}
	.st7{fill:#0768AA;}
	.st8{fill:#5000FF;}
	.st9{fill:#116F8C;}
	.st10{fill:#490000;}
	.st11{fill:#0F343A;}
	.st12{fill:#97A50E;}
	.st13{fill:#1893B1;}
	.st14{fill:#8F00FF;}
	.st15{fill:#8D7200;}
	.st16{fill:#005042;}
	.st17{fill:#00DEFF;}
	.st18{fill-rule:evenodd;clip-rule:evenodd;fill:#00C3FF;}
	.st19{fill-rule:evenodd;clip-rule:evenodd;fill:#005B59;}
	.st20{fill:#AF412B;}
	.st21{fill:#4D0F00;}
	.st22{fill:#295FA6;}
	.st23{fill:#595959;}
	.st24{fill:#BF0413;}
	.st25{fill:#2A95BF;}
	.st26{fill-rule:evenodd;clip-rule:evenodd;fill:#4DBC06;}
	.st27{fill:#491D00;}
</style>
<g>
	<path class="st20" d="M166.9,143.06c0-0.86,0-1.38,0-1.89c0-7.09-0.02-14.19,0.03-21.28c0.01-0.91-0.29-1.44-1.05-1.89
		c-1.13-0.67-2.22-1.41-3.25-2.22c-0.33-0.26-0.63-0.86-0.59-1.27c0.77-8.19,1.59-16.38,2.4-24.57c0.05-0.55,0.08-1.1-0.16-1.72
		c-0.45,1.25-0.91,2.5-1.34,3.76c-1.17,3.39-2.32,6.79-3.53,10.17c-0.19,0.53-0.58,1.12-1.04,1.4c-5.35,3.24-10.74,6.43-16.12,9.63
		c-0.22,0.13-0.46,0.24-0.98,0.5c11.25-29.91,22.42-59.57,33.58-89.23c0.11-0.02,0.22-0.04,0.32-0.07
		c11.17,29.67,22.34,59.34,33.51,89.01c-0.07,0.06-0.14,0.13-0.21,0.19c-1.63-0.97-3.26-1.94-4.88-2.91
		c-3.83-2.29-7.69-4.54-11.48-6.89c-0.64-0.39-1.24-1.12-1.49-1.82c-1.47-4.03-2.84-8.09-4.24-12.14c-0.18-0.52-0.38-1.04-0.88-1.5
		c0.22,2.36,0.43,4.72,0.66,7.07c0.62,6.36,1.27,12.72,1.85,19.08c0.04,0.44-0.41,0.92-0.64,1.38c-0.02,0.03-0.07,0.05-0.1,0.08
		c-1.34,0.97-3.2,1.68-3.88,2.99c-0.68,1.32-0.21,3.25-0.21,4.91c-0.01,11.12-0.02,22.24,0.02,33.36c0.01,1.25-0.36,1.58-1.59,1.67
		c-12.56,0.94-24.78-0.65-36.43-5.46c-24.16-9.97-40.81-27.36-47.9-52.52c-9-31.96-0.84-59.8,22.94-83.01
		c0.12-0.12,0.27-0.2,0.49-0.24c-11.28,12.43-18.12,26.87-19.79,43.62c-1.68,16.77,1.75,32.47,10.73,46.72
		C124.4,128.25,142.91,139.71,166.9,143.06z"/>
	<path class="st21" d="M229.48,17.3c23.14,22.72,31.95,49.91,23.92,81.66c-7.84,30.98-32.43,49.95-53.66,56.19
		c-0.03-0.49-0.09-0.94-0.1-1.39c-0.01-4.38,0.03-8.76-0.03-13.13c-0.01-1.05,0.33-1.51,1.31-1.89
		c18.99-7.27,33.04-20.03,41.64-38.44c8.56-18.33,9.29-37.23,2.71-56.35c-3.35-9.73-8.69-18.31-15.69-25.85
		c-0.18-0.19-0.35-0.39-0.52-0.58C229.2,17.44,229.34,17.37,229.48,17.3z"/>
	<path class="st21" d="M228.73,51.46c11.67,11.46,16.12,25.17,12.06,41.19c-3.95,15.63-16.36,25.2-27.07,28.34
		c-0.02-0.24-0.05-0.47-0.05-0.7c0-2.21,0.02-4.42-0.01-6.62c-0.01-0.53,0.16-0.76,0.66-0.95c9.58-3.67,16.66-10.1,21-19.39
		c4.32-9.25,4.68-18.78,1.37-28.42c-1.69-4.91-4.38-9.23-7.91-13.04c-0.09-0.1-0.17-0.2-0.26-0.29
		C228.59,51.53,228.66,51.49,228.73,51.46z"/>
	<path class="st21" d="M223.62,60.48c7.72,7.58,10.66,16.64,7.98,27.23c-2.61,10.33-10.81,16.66-17.9,18.74
		c-0.01-0.16-0.03-0.31-0.03-0.46c0-1.46,0.01-2.92-0.01-4.38c0-0.35,0.11-0.5,0.44-0.63c6.33-2.43,11.02-6.68,13.89-12.82
		c2.86-6.11,3.1-12.42,0.9-18.79c-1.12-3.25-2.9-6.11-5.23-8.62c-0.06-0.06-0.12-0.13-0.17-0.19
		C223.53,60.52,223.58,60.5,223.62,60.48z"/>
</g>
</svg>
