<?xml version="1.0" encoding="utf-8"?>
<!-- Generator: Adobe Illustrator 27.8.1, SVG Export Plug-In . SVG Version: 6.00 Build 0)  -->
<svg version="1.1" id="Layer_1" xmlns="http://www.w3.org/2000/svg" xmlns:xlink="http://www.w3.org/1999/xlink" x="0px" y="0px"
	 viewBox="0 0 350 230" style="enable-background:new 0 0 350 230;" xml:space="preserve">
<style type="text/css">
	.st0{fill:#005066;}
	.st1{fill:#008EAF;}
	.st2{fill:#B8FF66;}
	.st3{fill:#00A4FF;}
	.st4{fill:#315103;}
	.st5{fill:#036AFF;}
	.st6{fill:#F033FF;}
	.st7{fill:#0768AA;}
	.st8{fill:#5000FF;}
	.st9{fill:#116F8C;}
	.st10{fill:#490000;}
	.st11{fill:#0F343A;}
	.st12{fill:#97A50E;}
	.st13{fill:#1893B1;}
	.st14{fill:#8F00FF;}
	.st15{fill:#8D7200;}
	.st16{fill:#005042;}
	.st17{fill:#00DEFF;}
	.st18{fill-rule:evenodd;clip-rule:evenodd;fill:#00C3FF;}
	.st19{fill-rule:evenodd;clip-rule:evenodd;fill:#005B59;}
	.st20{fill:#AF412B;}
	.st21{fill:#4D0F00;}
	.st22{fill:#295FA6;}
	.st23{fill:#595959;}
	.st24{fill:#BF0413;}
	.st25{fill:#2A95BF;}
	.st26{fill-rule:evenodd;clip-rule:evenodd;fill:#4DBC06;}
	.st27{fill:#491D00;}
</style>
<g>
	<path class="st2" d="M247.11,89.09c0,40.67-32.97,73.65-73.65,73.65s-73.65-32.97-73.65-73.65s32.97-73.65,73.65-73.65
		S247.11,48.42,247.11,89.09z"/>
	<g>
		<path class="st3" d="M115.23,129.03l-2.94-3.64c-0.16-0.2-0.13-0.48,0.07-0.64l22.24-18.01c0.08-0.07,0.18-0.1,0.29-0.1h9.89
			c0.11,0,0.22-0.04,0.3-0.12l26.23-23.33c0.08-0.07,0.19-0.12,0.3-0.12h25.36c0.15,0,0.29-0.07,0.37-0.19l18-25.27
			c0.09-0.12,0.22-0.19,0.37-0.19h7.5c0.25,0,0.46-0.2,0.46-0.46v-7.52c0-0.39,0.45-0.6,0.75-0.35l12.76,10.77
			c0.22,0.18,0.22,0.52,0,0.7L224.4,71.35c-0.3,0.25-0.75,0.04-0.75-0.35v-7.52c0-0.25-0.2-0.46-0.46-0.46h-4.62
			c-0.15,0-0.29,0.07-0.37,0.19l-18,25.27c-0.09,0.12-0.22,0.19-0.37,0.19h-26.12c-0.11,0-0.22,0.04-0.3,0.12l-26.23,23.33
			c-0.08,0.07-0.19,0.12-0.3,0.12h-10.03c-0.1,0-0.21,0.04-0.29,0.1l-20.7,16.76C115.67,129.25,115.39,129.22,115.23,129.03z"/>
		<path class="st4" d="M144.5,104.91l2.8-2.57V83.98h-22.48v28.65l9.17-7.71H144.5z M124.82,124.48v4.46h22.48v-15.08h-9.85
			L124.82,124.48z M170.25,94.6c3.08,1.81,6.17,3.48,9.23,4.99v-8.75l-5.04-0.02L170.25,94.6z M170.41,81.15l9.08,0v-12.4H157v16.88
			c1.51,1.18,3.06,2.32,4.63,3.42L170.41,81.15z M199.17,76.83c-0.51-0.28-1.02-0.54-1.52-0.83c-2.91-1.68-5.72-3.53-8.46-5.49
			V51.05l0,0v30.1l6.88,0L199.17,76.83z M201.14,90.9l-11.95-0.04v38.08l0,0v-21.15c7.31,2.64,14.84,4.72,22.48,6.13V82.64
			c-1.19-0.46-2.37-0.94-3.55-1.44L201.14,90.9z M157,85.62v7.59l4.63-4.17C160.07,87.94,158.52,86.81,157,85.62z M157,106.53v22.42
			h22.48V99.58c-3.06-1.51-6.16-3.18-9.23-4.99L157,106.53z M208.12,81.2c1.18,0.5,2.36,0.98,3.55,1.44v-6.37L208.12,81.2z
			 M197.65,76c0.5,0.29,1.01,0.55,1.52,0.83l12.49-17.37v-8.41h-22.48v19.46C191.93,72.47,194.74,74.32,197.65,76z M189.19,128.94
			h22.48v-15.03c-7.64-1.41-15.17-3.49-22.48-6.13V128.94z"/>
	</g>
</g>
</svg>
