<?xml version="1.0" encoding="utf-8"?>
<!-- Generator: Adobe Illustrator 27.8.1, SVG Export Plug-In . SVG Version: 6.00 Build 0)  -->
<svg version="1.1" id="Layer_1" xmlns="http://www.w3.org/2000/svg" xmlns:xlink="http://www.w3.org/1999/xlink" x="0px" y="0px"
	 viewBox="0 0 350 230" style="enable-background:new 0 0 350 230;" xml:space="preserve">
<style type="text/css">
	.st0{fill:#005066;}
	.st1{fill:#008EAF;}
	.st2{fill:#B8FF66;}
	.st3{fill:#00A4FF;}
	.st4{fill:#315103;}
	.st5{fill:#036AFF;}
	.st6{fill:#F033FF;}
	.st7{fill:#0768AA;}
	.st8{fill:#5000FF;}
	.st9{fill:#116F8C;}
	.st10{fill:#490000;}
	.st11{fill:#0F343A;}
	.st12{fill:#97A50E;}
	.st13{fill:#1893B1;}
	.st14{fill:#8F00FF;}
	.st15{fill:#8D7200;}
	.st16{fill:#005042;}
	.st17{fill:#00DEFF;}
	.st18{fill-rule:evenodd;clip-rule:evenodd;fill:#00C3FF;}
	.st19{fill-rule:evenodd;clip-rule:evenodd;fill:#005B59;}
	.st20{fill:#AF412B;}
	.st21{fill:#4D0F00;}
	.st22{fill:#295FA6;}
	.st23{fill:#595959;}
	.st24{fill:#BF0413;}
	.st25{fill:#2A95BF;}
	.st26{fill-rule:evenodd;clip-rule:evenodd;fill:#4DBC06;}
	.st27{fill:#491D00;}
</style>
<g>
	<g>
		<path class="st5" d="M222.35,93.42l-3.27-37.01c-0.05-0.61-0.67-1-1.24-0.78L183.02,68.6c-0.72,0.27-0.82,1.24-0.17,1.65
			l11.97,7.55l-49.16,76.17h19.97l43.35-67.23l11.96,7.55C221.59,94.69,222.42,94.18,222.35,93.42z"/>
		<path class="st6" d="M172.15,61.56l-3.05-36.39c-0.06-0.69-0.75-1.13-1.4-0.89l-34.49,12.68c-0.81,0.3-0.93,1.4-0.2,1.86
			l11.75,7.42L76.4,153.97h19.85l62.67-98.78l11.64,7.35C171.29,62.99,172.23,62.42,172.15,61.56z M273.59,126.15l-3.31-37.72
			c-0.04-0.47-0.52-0.77-0.96-0.61l-35.49,13.2c-0.55,0.21-0.63,0.95-0.13,1.27l12.32,7.79l-27.49,43.88h19.8l21.84-34.94
			l12.32,7.79C273,127.13,273.64,126.74,273.59,126.15z"/>
	</g>
	<g>
		<path class="st6" d="M218.54,87.6l-2.35-26.57c-0.04-0.44-0.48-0.72-0.89-0.56l-25,9.32c-0.51,0.19-0.59,0.89-0.12,1.18l8.59,5.42
			l-35.29,54.68h14.34l31.12-48.27l8.59,5.42C217.99,88.51,218.59,88.15,218.54,87.6z"/>
		<path class="st5" d="M167.74,56.4l-2.19-26.12c-0.04-0.49-0.54-0.81-1-0.64l-24.76,9.11c-0.58,0.21-0.67,1-0.14,1.34l8.44,5.33
			L99,122.74h14.25l44.99-70.92l8.36,5.27C167.12,57.43,167.79,57.02,167.74,56.4z M269.71,120.52l-2.37-27.08
			c-0.03-0.34-0.37-0.55-0.69-0.43l-25.48,9.48c-0.4,0.15-0.45,0.69-0.09,0.91l8.85,5.59l-19.74,31.5h14.22l15.68-25.08l8.85,5.59
			C269.29,121.23,269.75,120.95,269.71,120.52z"/>
	</g>
</g>
</svg>
