<?xml version="1.0" encoding="utf-8"?>
<!-- Generator: Adobe Illustrator 27.8.1, SVG Export Plug-In . SVG Version: 6.00 Build 0)  -->
<svg version="1.1" id="Layer_1" xmlns="http://www.w3.org/2000/svg" xmlns:xlink="http://www.w3.org/1999/xlink" x="0px" y="0px"
	 viewBox="0 0 350 230" style="enable-background:new 0 0 350 230;" xml:space="preserve">
<style type="text/css">
	.st0{fill:#005066;}
	.st1{fill:#008EAF;}
	.st2{fill:#B8FF66;}
	.st3{fill:#00A4FF;}
	.st4{fill:#315103;}
	.st5{fill:#036AFF;}
	.st6{fill:#F033FF;}
	.st7{fill:#0768AA;}
	.st8{fill:#5000FF;}
	.st9{fill:#116F8C;}
	.st10{fill:#490000;}
	.st11{fill:#0F343A;}
	.st12{fill:#97A50E;}
	.st13{fill:#1893B1;}
	.st14{fill:#8F00FF;}
	.st15{fill:#8D7200;}
	.st16{fill:#005042;}
	.st17{fill:#00DEFF;}
	.st18{fill-rule:evenodd;clip-rule:evenodd;fill:#00C3FF;}
	.st19{fill-rule:evenodd;clip-rule:evenodd;fill:#005B59;}
	.st20{fill:#AF412B;}
	.st21{fill:#4D0F00;}
	.st22{fill:#295FA6;}
	.st23{fill:#595959;}
	.st24{fill:#BF0413;}
	.st25{fill:#2A95BF;}
	.st26{fill-rule:evenodd;clip-rule:evenodd;fill:#4DBC06;}
	.st27{fill:#491D00;}
</style>
<g id="XMLID_4373_">
	<path class="st7" d="M188.45,125.6c-3.16,0-5.72-2.56-5.72-5.72c0-3.16,2.56-5.72,5.72-5.72h31.69l-47.84-82.87l-27,46.76h31.72
		c3.16,0,5.72,2.56,5.72,5.72s-2.56,5.72-5.72,5.72h-38.32l-33.6,58.19h64.02v-19.79c-3.61-0.74-6.33-3.94-6.33-7.77
		c0-4.38,3.55-7.94,7.94-7.94s7.94,3.55,7.94,7.94c0,3.76-2.62,6.91-6.13,7.73v19.84h66.96l-12.75-22.08L188.45,125.6L188.45,125.6z
		"/>
	<path class="st8" d="M175.18,120.12c0-2.46-2-4.47-4.47-4.47s-4.47,2-4.47,4.47c0,2.46,2,4.47,4.47,4.47
		C173.18,124.58,175.18,122.58,175.18,120.12z M250.69,146.87c-4.38,0-7.94,3.55-7.94,7.94c0,4.38,3.55,7.94,7.94,7.94
		c4.38,0,7.94-3.55,7.94-7.94C258.63,150.42,255.08,146.87,250.69,146.87z M250.69,159.27c-2.46,0-4.47-2-4.47-4.47
		c0-2.46,2-4.47,4.47-4.47s4.47,2,4.47,4.47C255.16,157.27,253.16,159.27,250.69,159.27z M169.11,152.2H97.28l75.01-129.93
		l73.11,126.63c0.85-0.76,1.85-1.34,2.97-1.68L172.29,15.45L91.37,155.61h81.15v-8.74h-3.41L169.11,152.2L169.11,152.2z"/>
</g>
</svg>
