<?xml version="1.0" encoding="utf-8"?>
<!-- Generator: Adobe Illustrator 27.8.1, SVG Export Plug-In . SVG Version: 6.00 Build 0)  -->
<svg version="1.1" id="Layer_1" xmlns="http://www.w3.org/2000/svg" xmlns:xlink="http://www.w3.org/1999/xlink" x="0px" y="0px"
	 viewBox="0 0 350 230" style="enable-background:new 0 0 350 230;" xml:space="preserve">
<style type="text/css">
	.st0{fill:#005066;}
	.st1{fill:#008EAF;}
	.st2{fill:#B8FF66;}
	.st3{fill:#00A4FF;}
	.st4{fill:#315103;}
	.st5{fill:#036AFF;}
	.st6{fill:#F033FF;}
	.st7{fill:#0768AA;}
	.st8{fill:#5000FF;}
	.st9{fill:#116F8C;}
	.st10{fill:#490000;}
	.st11{fill:#0F343A;}
	.st12{fill:#97A50E;}
	.st13{fill:#1893B1;}
	.st14{fill:#8F00FF;}
	.st15{fill:#8D7200;}
	.st16{fill:#005042;}
	.st17{fill:#00DEFF;}
	.st18{fill-rule:evenodd;clip-rule:evenodd;fill:#00C3FF;}
	.st19{fill-rule:evenodd;clip-rule:evenodd;fill:#005B59;}
	.st20{fill:#AF412B;}
	.st21{fill:#4D0F00;}
	.st22{fill:#295FA6;}
	.st23{fill:#595959;}
	.st24{fill:#BF0413;}
	.st25{fill:#2A95BF;}
	.st26{fill-rule:evenodd;clip-rule:evenodd;fill:#4DBC06;}
	.st27{fill:#491D00;}
</style>
<g>
	<path class="st15" d="M113.6,151.57c15.68-35.87,31.31-71.62,47.07-107.65c-3.1,0-5.86,0-8.62,0c-0.03-0.11-0.06-0.21-0.1-0.32
		c12.31-10.34,24.62-20.69,37.16-31.22c2.97,10.59,5.86,20.9,8.85,31.54c-1.09,0-1.95,0-2.81,0c-1.64,0-3.29,0.04-4.93-0.01
		c-0.84-0.03-1.27,0.3-1.57,1.08c-3.47,9.08-6.98,18.14-10.46,27.21c-5.22,13.58-10.44,27.17-15.66,40.75
		c-4.84,12.59-9.68,25.17-14.51,37.77c-0.24,0.62-0.48,1.05-1.28,1.04c-10.84-0.03-21.68-0.03-32.51-0.05
		C114.1,151.72,113.97,151.66,113.6,151.57z"/>
	<path class="st16" d="M158.54,134.43c1.09-2.87,2.12-5.6,3.17-8.33c1.91-4.97,3.86-9.93,5.73-14.92c0.32-0.85,0.72-1.15,1.63-1.14
		c4.18,0.05,8.35,0.02,12.53,0.02c0.44,0,0.87,0,1.53,0c-0.19-0.56-0.32-0.97-0.47-1.36c-2.26-5.84-4.53-11.67-6.75-17.52
		c-0.19-0.49-0.28-1.16-0.1-1.63c4.76-12.48,9.57-24.95,14.37-37.42c0.02-0.06,0.12-0.1,0.31-0.24
		c14.55,33.29,29.09,66.54,43.7,99.96c-0.54,0.04-0.95,0.09-1.37,0.09c-10.75,0-21.5-0.02-32.25,0.03c-1.02,0-1.47-0.3-1.82-1.24
		c-1.88-5.03-3.86-10.02-5.74-15.06c-0.35-0.94-0.79-1.27-1.8-1.26c-10.39,0.04-20.79,0.02-31.18,0.02
		C159.58,134.43,159.15,134.43,158.54,134.43z"/>
</g>
</svg>
