<?xml version="1.0" encoding="utf-8"?>
<!-- Generator: Adobe Illustrator 27.8.1, SVG Export Plug-In . SVG Version: 6.00 Build 0)  -->
<svg version="1.1" id="Layer_1" xmlns="http://www.w3.org/2000/svg" xmlns:xlink="http://www.w3.org/1999/xlink" x="0px" y="0px"
	 viewBox="0 0 350 230" style="enable-background:new 0 0 350 230;" xml:space="preserve">
<style type="text/css">
	.st0{fill:#005066;}
	.st1{fill:#008EAF;}
	.st2{fill:#B8FF66;}
	.st3{fill:#00A4FF;}
	.st4{fill:#315103;}
	.st5{fill:#036AFF;}
	.st6{fill:#F033FF;}
	.st7{fill:#0768AA;}
	.st8{fill:#5000FF;}
	.st9{fill:#116F8C;}
	.st10{fill:#490000;}
	.st11{fill:#0F343A;}
	.st12{fill:#97A50E;}
	.st13{fill:#1893B1;}
	.st14{fill:#8F00FF;}
	.st15{fill:#8D7200;}
	.st16{fill:#005042;}
	.st17{fill:#00DEFF;}
	.st18{fill-rule:evenodd;clip-rule:evenodd;fill:#00C3FF;}
	.st19{fill-rule:evenodd;clip-rule:evenodd;fill:#005B59;}
	.st20{fill:#AF412B;}
	.st21{fill:#4D0F00;}
	.st22{fill:#295FA6;}
	.st23{fill:#595959;}
	.st24{fill:#BF0413;}
	.st25{fill:#2A95BF;}
	.st26{fill-rule:evenodd;clip-rule:evenodd;fill:#4DBC06;}
	.st27{fill:#491D00;}
</style>
<g>
	<path class="st17" d="M241.45,158.93c-0.07,0.07-0.14,0.13-0.22,0.2c-1.65-1.31-3.31-2.61-4.95-3.92
		c-8.39-6.67-16.78-13.33-25.14-20.03c-0.79-0.64-1.5-1.46-2.01-2.33c-11.15-19.25-22.26-38.52-33.39-57.78
		c-0.18-0.31-0.39-0.61-0.68-1.05c-0.27,0.34-0.51,0.58-0.67,0.87c-9.32,16.11-18.62,32.23-27.95,48.34
		c-0.47,0.82-0.35,1.24,0.43,1.73c10.15,6.39,21.2,9.05,33.14,7.96c6.12-0.55,11.93-2.21,17.67-4.86c1.9,3.27,3.79,6.51,5.74,9.87
		c-0.44,0.25-0.81,0.49-1.2,0.67c-20.01,8.91-39.64,8.21-58.88-2.35c-1.11-0.61-2.25-1.76-3.31-1.68c-1.06,0.08-2.05,1.36-3.04,2.14
		c-9.03,7.18-18.05,14.37-27.08,21.55c-0.38,0.3-0.78,0.57-1.37,0.7c22.11-38.29,44.22-76.59,66.46-115.1
		c13.55,23.47,26.94,46.65,40.47,70.08c0.84-1.11,1.56-2.02,2.23-2.97c22.09-31.25,3.49-75.4-34.31-81.44
		c-29.19-4.67-56.47,15.67-60.13,44.91c-1.39,11.14,0.6,21.7,5.99,31.58c0.45,0.82,0.47,1.42-0.01,2.22
		c-1.95,3.27-3.83,6.58-5.76,9.91c-14.85-19.06-18.56-52.93,2.97-78.33c21.96-25.89,60.68-30.07,87.24-9.37
		c14.74,11.48,23.15,26.61,24.72,45.25c1.56,18.63-4.33,34.87-16.82,48.83C228.22,136.01,234.84,147.47,241.45,158.93z"/>
</g>
</svg>
