<?xml version="1.0" encoding="utf-8"?>
<!-- Generator: Adobe Illustrator 27.8.1, SVG Export Plug-In . SVG Version: 6.00 Build 0)  -->
<svg version="1.1" xmlns="http://www.w3.org/2000/svg" xmlns:xlink="http://www.w3.org/1999/xlink" x="0px" y="0px"
	 viewBox="0 0 350 230" style="enable-background:new 0 0 350 230;" xml:space="preserve">
<style type="text/css">
	.st0{fill:#ADDAD0;}
	.st1{fill:#8DFFE9;}
	.st2{fill:#76DAC8;}
	.st3{fill:#006432;}
	.st4{fill:#0025FF;}
	.st5{fill:#00FF4E;}
	.st6{fill:#00FF85;}
	.st7{fill:#1E0D63;}
	.st8{fill:#FF4848;}
	.st9{fill:#00997C;}
	.st10{fill:#FF00C9;}
	.st11{fill:#00FF5B;}
	.st12{fill:#020044;}
	.st13{fill:#00FFCE;}
	.st14{fill:#00F3FF;}
	.st15{fill:#004437;}
	.st16{fill:#0019FF;}
	.st17{fill:#0031FF;}
	.st18{fill:#00D6AD;}
	.st19{fill:#9FDDFF;}
	.st20{fill:#720021;}
	.st21{fill:#CE7000;}
	.st22{fill:#205104;}
	.st23{fill:#004787;}
	.st24{fill:#FFFFFF;}
	.st25{fill:#EEB0F7;}
	.st26{fill:#004B96;}
	.st27{fill:#701000;}
	.st28{fill-rule:evenodd;clip-rule:evenodd;fill:#FFFF00;}
	.st29{fill-rule:evenodd;clip-rule:evenodd;fill:#68C7FC;}
	.st30{filter:url(#Adobe_OpacityMaskFilter);}
	.st31{fill-rule:evenodd;clip-rule:evenodd;fill:#FFFFFF;}
	
		.st32{mask:url(#earthglobe-b_00000087385483975625957440000004491752639183121025_);fill-rule:evenodd;clip-rule:evenodd;fill:#033D2B;}
	.st33{fill:#00FCFF;}
	.st34{fill:#003EF9;}
	.st35{fill:#001535;}
	.st36{fill:#003A55;}
</style>
<g id="Layer_1">
</g>
<g id="Layer_2">
</g>
<g id="Layer_3">
</g>
<g id="Layer_4">
</g>
<g id="Layer_5">
</g>
<g id="Layer_6">
</g>
<g id="Layer_7">
</g>
<g id="Layer_8">
</g>
<g id="Layer_9">
</g>
<g id="Layer_10">
</g>
<g id="Layer_11">
</g>
<g id="Layer_12">
</g>
<g id="Layer_13">
	<g>
		<g>
			<path class="st27" d="M160.38,127.52c-6.9,0-12.52-5.62-12.52-12.52c0-6.9,5.62-12.52,12.52-12.52c6.9,0,12.52,5.62,12.52,12.52
				C172.89,121.9,167.28,127.52,160.38,127.52z M160.38,107.49c-4.14,0-7.51,3.37-7.51,7.51c0,4.14,3.37,7.51,7.51,7.51
				c4.14,0,7.51-3.37,7.51-7.51C167.89,110.86,164.52,107.49,160.38,107.49z M35.2,127.52c-6.9,0-12.52-5.62-12.52-12.52
				c0-6.9,5.62-12.52,12.52-12.52S47.71,108.1,47.71,115C47.71,121.9,42.1,127.52,35.2,127.52z M35.2,107.49
				c-4.14,0-7.51,3.37-7.51,7.51c0,4.14,3.37,7.51,7.51,7.51s7.51-3.37,7.51-7.51C42.71,110.86,39.34,107.49,35.2,107.49z"/>
		</g>
		<path class="st28" d="M97.79,39.89c6.91,0,12.52,5.6,12.52,12.52s-5.6,12.52-12.52,12.52s-12.52-5.6-12.52-12.52
			S90.87,39.89,97.79,39.89z M97.79,165.07c6.91,0,12.52,5.6,12.52,12.52c0,6.91-5.6,12.52-12.52,12.52s-12.52-5.6-12.52-12.52
			C85.27,170.68,90.87,165.07,97.79,165.07z"/>
		<g transform="translate(14 14)">
			<path class="st29" d="M128.85,101c0,24.89-20.18,45.07-45.07,45.07c-24.89,0-45.07-20.18-45.07-45.07c0-3.38,0.37-6.68,1.08-9.85
				c2.34-10.51,8.35-19.63,16.62-25.96c7.59-5.81,17.07-9.26,27.36-9.26c16.42,0,30.8,8.79,38.67,21.92
				c2.05,3.42,3.66,7.13,4.75,11.06C128.28,92.76,128.85,96.81,128.85,101z"/>
			<defs>
				<filter id="Adobe_OpacityMaskFilter" filterUnits="userSpaceOnUse" x="39.8" y="65.19" width="87.41" height="65.27">
					<feColorMatrix  type="matrix" values="1 0 0 0 0  0 1 0 0 0  0 0 1 0 0  0 0 0 1 0"/>
				</filter>
			</defs>
			
				<mask maskUnits="userSpaceOnUse" x="39.8" y="65.19" width="87.41" height="65.27" id="earthglobe-b_00000087385483975625957440000004491752639183121025_">
				<g class="st30">
					<circle id="earthglobe-a_00000183230934634366213290000008308117041584054674_" class="st31" cx="83.79" cy="101" r="45.07"/>
				</g>
			</mask>
			<path class="st32" d="M127.21,88.91c-1.09-3.93-2.7-7.64-4.75-11.06l-10.87-3.52l-2.01-9.01L96.5,69.03l-1.18,9.83l10.04,3.33
				l2.21,5.68c0,0-10.94-4.46-14.2-2.23c-3.26,2.23-1.52,12.78-1.52,12.78s-4.86,6.96-2.43,10.62c2.43,3.66,9.18,2.4,12.97,5.63
				c3.79,3.23,2.22,9.03,2.22,9.03l-0.92,6.77c0,0,10.15-4.55,13.08-11.1c2.93-6.56,1.98-16.83,1.98-16.83l5.93-5.37L127.21,88.91z
				 M66.97,67.78l-10.55-2.59c-8.27,6.33-14.28,15.45-16.62,25.96c4.12-0.23,16.78,0.41,20.15-4.47c3.9-5.66,7.15-13.14,7.15-13.14
				L66.97,67.78z"/>
		</g>
	</g>
</g>
<g id="Layer_14">
</g>
<g id="Layer_15">
</g>
</svg>
