<?xml version="1.0" encoding="utf-8"?>
<!-- Generator: Adobe Illustrator 27.8.1, SVG Export Plug-In . SVG Version: 6.00 Build 0)  -->
<svg version="1.1" xmlns="http://www.w3.org/2000/svg" xmlns:xlink="http://www.w3.org/1999/xlink" x="0px" y="0px"
	 viewBox="0 0 350 230" style="enable-background:new 0 0 350 230;" xml:space="preserve">
<style type="text/css">
	.st0{fill:#ADDAD0;}
	.st1{fill:#8DFFE9;}
	.st2{fill:#76DAC8;}
	.st3{fill:#006432;}
	.st4{fill:#0025FF;}
	.st5{fill:#00FF4E;}
	.st6{fill:#00FF85;}
	.st7{fill:#1E0D63;}
	.st8{fill:#FF4848;}
	.st9{fill:#00997C;}
	.st10{fill:#FF00C9;}
	.st11{fill:#00FF5B;}
	.st12{fill:#020044;}
	.st13{fill:#00FFCE;}
	.st14{fill:#00F3FF;}
	.st15{fill:#004437;}
	.st16{fill:#0019FF;}
	.st17{fill:#0031FF;}
	.st18{fill:#00D6AD;}
	.st19{fill:#9FDDFF;}
	.st20{fill:#720021;}
	.st21{fill:#CE7000;}
	.st22{fill:#205104;}
	.st23{fill:#004787;}
	.st24{fill:#FFFFFF;}
	.st25{fill:#EEB0F7;}
	.st26{fill:#004B96;}
	.st27{fill:#701000;}
	.st28{fill-rule:evenodd;clip-rule:evenodd;fill:#FFFF00;}
	.st29{fill-rule:evenodd;clip-rule:evenodd;fill:#68C7FC;}
	.st30{filter:url(#Adobe_OpacityMaskFilter);}
	.st31{fill-rule:evenodd;clip-rule:evenodd;fill:#FFFFFF;}
	
		.st32{mask:url(#earthglobe-b_00000087385483975625957440000004491752639183121025_);fill-rule:evenodd;clip-rule:evenodd;fill:#033D2B;}
	.st33{fill:#00FCFF;}
	.st34{fill:#003EF9;}
	.st35{fill:#001535;}
	.st36{fill:#003A55;}
</style>
<g id="Layer_1">
</g>
<g id="Layer_2">
</g>
<g id="Layer_3">
</g>
<g id="Layer_4">
</g>
<g id="Layer_5">
</g>
<g id="Layer_6">
</g>
<g id="Layer_7">
</g>
<g id="Layer_8">
</g>
<g id="Layer_9">
</g>
<g id="Layer_10">
</g>
<g id="Layer_11">
</g>
<g id="Layer_12">
</g>
<g id="Layer_13">
</g>
<g id="Layer_14">
	<g>
		<path class="st33" d="M243.56,87.67c-3.82-1.04-7.75-2.84-10.78-5.33c-18.87-15.43-40.27-23.6-62.18-23.84
			c-22.02,0.02-40.06,5.22-56.27,15.95c-6.39,4.23-12.11,9.52-17.83,14.68c-4.31,3.88-6.35,9.46-0.81,13
			c2.78,1.76,8.27-0.39,12.42-1.27c1.29-0.27,2.24-2.18,3.42-3.28c29.59-27.89,75.47-30.25,106.83-5.06
			c2.86,2.3,4.93,7.03,5.22,10.8c0.75,10.16,6.99,17.73,16.38,18.14c8.61,0.37,16.38-6.14,17.54-14.72
			C258.72,97.69,253,90.3,243.56,87.67z M241.59,112.82c-4.42,0-8.04-3.59-8.04-8.04c0-4.42,3.61-8.04,8.04-8.04
			c4.44,0,8.05,3.61,8.05,8.04C249.64,109.23,246.03,112.82,241.59,112.82z M190.15,112.31c-0.84-0.23-1.71-0.63-2.38-1.18
			c-4.17-3.41-8.9-5.22-13.74-5.27c-4.87,0-8.85,1.15-12.43,3.53c-1.41,0.93-2.68,2.1-3.94,3.24c-0.95,0.86-1.4,2.09-0.18,2.87
			c0.61,0.39,1.83-0.09,2.74-0.28c0.29-0.06,0.5-0.48,0.76-0.73c6.54-6.16,16.67-6.68,23.6-1.12c0.63,0.51,1.09,1.55,1.15,2.39
			c0.17,2.24,1.54,3.92,3.62,4.01c1.9,0.08,3.62-1.36,3.87-3.25C193.5,114.52,192.23,112.89,190.15,112.31z M189.71,117.86
			c-0.98,0-1.78-0.79-1.78-1.78c0-0.98,0.8-1.78,1.78-1.78c0.98,0,1.78,0.8,1.78,1.78C191.49,117.07,190.69,117.86,189.71,117.86z"
			/>
		<path class="st34" d="M131.27,110.48c0.54,4.03,4.19,7.09,8.24,6.92c4.41-0.19,7.35-3.75,7.7-8.53c0.14-1.77,1.11-3.99,2.45-5.08
			c14.74-11.84,36.31-10.73,50.22,2.38c0.55,0.52,1,1.42,1.61,1.54c1.95,0.42,4.53,1.43,5.84,0.6c2.61-1.66,1.64-4.29-0.38-6.11
			c-2.69-2.42-5.37-4.91-8.38-6.9c-7.62-5.05-16.1-7.49-26.45-7.5c-10.3,0.11-20.36,3.95-29.23,11.2c-1.43,1.17-3.27,2.02-5.07,2.51
			C133.38,102.75,130.69,106.23,131.27,110.48z M134.96,109.56c0-2.08,1.7-3.78,3.79-3.78c2.08,0,3.78,1.7,3.78,3.78
			c0,2.09-1.7,3.78-3.78,3.78C136.66,113.34,134.96,111.65,134.96,109.56z"/>
	</g>
</g>
<g id="Layer_15">
</g>
</svg>
