<?xml version="1.0" encoding="utf-8"?>
<!-- Generator: Adobe Illustrator 27.8.1, SVG Export Plug-In . SVG Version: 6.00 Build 0)  -->
<svg version="1.1" xmlns="http://www.w3.org/2000/svg" xmlns:xlink="http://www.w3.org/1999/xlink" x="0px" y="0px"
	 viewBox="0 0 350 230" style="enable-background:new 0 0 350 230;" xml:space="preserve">
<style type="text/css">
	.st0{fill:#ADDAD0;}
	.st1{fill:#8DFFE9;}
	.st2{fill:#76DAC8;}
	.st3{fill:#006432;}
	.st4{fill:#0025FF;}
	.st5{fill:#00FF4E;}
	.st6{fill:#00FF85;}
	.st7{fill:#1E0D63;}
	.st8{fill:#FF4848;}
	.st9{fill:#00997C;}
	.st10{fill:#FF00C9;}
	.st11{fill:#00FF5B;}
	.st12{fill:#020044;}
	.st13{fill:#00FFCE;}
	.st14{fill:#00F3FF;}
	.st15{fill:#004437;}
	.st16{fill:#0019FF;}
	.st17{fill:#0031FF;}
	.st18{fill:#00D6AD;}
	.st19{fill:#9FDDFF;}
	.st20{fill:#720021;}
	.st21{fill:#CE7000;}
	.st22{fill:#205104;}
	.st23{fill:#004787;}
	.st24{fill:#FFFFFF;}
	.st25{fill:#EEB0F7;}
	.st26{fill:#004B96;}
	.st27{fill:#701000;}
	.st28{fill-rule:evenodd;clip-rule:evenodd;fill:#FFFF00;}
	.st29{fill-rule:evenodd;clip-rule:evenodd;fill:#68C7FC;}
	.st30{filter:url(#Adobe_OpacityMaskFilter);}
	.st31{fill-rule:evenodd;clip-rule:evenodd;fill:#FFFFFF;}
	
		.st32{mask:url(#earthglobe-b_00000087385483975625957440000004491752639183121025_);fill-rule:evenodd;clip-rule:evenodd;fill:#033D2B;}
	.st33{fill:#00FCFF;}
	.st34{fill:#003EF9;}
	.st35{fill:#001535;}
	.st36{fill:#003A55;}
</style>
<g id="Layer_1">
</g>
<g id="Layer_2">
</g>
<g id="Layer_3">
</g>
<g id="Layer_4">
</g>
<g id="Layer_5">
</g>
<g id="Layer_6">
</g>
<g id="Layer_7">
</g>
<g id="Layer_8">
</g>
<g id="Layer_9">
</g>
<g id="Layer_10">
</g>
<g id="Layer_11">
</g>
<g id="Layer_12">
	<g>
		<path class="st25" d="M240.36,77.42c20.76,0,37.58,16.83,37.58,37.58s-16.83,37.58-37.58,37.58s-37.58-16.83-37.58-37.58
			S219.6,77.42,240.36,77.42z M277.94,115h-75.17c0-20.76,16.83-37.58,37.58-37.58S277.94,94.24,277.94,115z M240.36,50.08
			c6.04,0,10.93,4.9,10.93,10.93s-4.9,10.93-10.93,10.93c-6.04,0-10.93-4.9-10.93-10.93S234.32,50.08,240.36,50.08z M240.36,158.05
			c6.04,0,10.93,4.9,10.93,10.93c0,6.04-4.9,10.93-10.93,10.93c-6.04,0-10.93-4.9-10.93-10.93
			C229.42,162.95,234.32,158.05,240.36,158.05z"/>
		<path class="st26" d="M240.36,154.63L240.36,154.63L240.36,154.63C240.36,154.63,240.36,154.63,240.36,154.63
			c21.85,0,39.63-17.78,39.63-39.63s-17.78-39.63-39.63-39.63l0,0l0,0l0,0c-21.85,0-39.63,17.78-39.63,39.63c0,0,0,0,0,0.01
			c0,0,0,0,0,0.01C200.73,136.86,218.51,154.63,240.36,154.63z M206.11,124.49c3.96,3.16,9.94,5.7,17.47,7.29
			c0.56,2.67,1.26,5.2,2.09,7.54c1.44,4.08,3.22,7.43,5.23,9.94C218.91,145.94,209.44,136.48,206.11,124.49z M221.93,117.05
			c0.08,3.55,0.38,7.01,0.87,10.35c-9.37-2.23-15.94-6.13-17.58-10.35H221.93z M227.09,128.26c-0.61-3.58-0.97-7.34-1.06-11.21
			h12.27v12.27c-1.48-0.04-2.95-0.11-4.4-0.22C231.57,128.92,229.29,128.64,227.09,128.26z M233.59,133.19
			c1.55,0.12,3.13,0.2,4.72,0.23v16.7c-3.29-1.3-6.46-5.65-8.77-12.18c-0.6-1.69-1.12-3.5-1.58-5.4
			C229.8,132.82,231.68,133.04,233.59,133.19z M242.41,117.05h12.27c-0.09,3.87-0.45,7.63-1.06,11.22
			c-3.58,0.61-7.34,0.97-11.22,1.06L242.41,117.05L242.41,117.05z M242.41,100.68c3.87,0.09,7.63,0.45,11.21,1.06
			c0.37,2.2,0.66,4.48,0.84,6.81c0.11,1.45,0.18,2.92,0.22,4.4h-12.27L242.41,100.68L242.41,100.68z M258.78,117.05h16.7
			c-1.3,3.29-5.64,6.46-12.18,8.77c-1.69,0.6-3.49,1.12-5.39,1.58C258.41,124.06,258.7,120.6,258.78,117.05z M258.78,112.95
			c-0.04-1.59-0.11-3.17-0.23-4.72c-0.15-1.91-0.37-3.79-0.64-5.63c1.9,0.45,3.71,0.98,5.4,1.58c6.53,2.3,10.88,5.48,12.17,8.77
			H258.78L258.78,112.95z M242.41,96.57V79.87c4.22,1.64,8.11,8.21,10.35,17.58C249.42,96.95,245.96,96.65,242.41,96.57z
			 M238.31,79.87v16.71c-1.59,0.04-3.17,0.11-4.72,0.23l0.32,4.09c1.45-0.11,2.92-0.18,4.4-0.22v12.27h-12.27
			c0.04-1.48,0.11-2.95,0.22-4.4c0.22-2.82,0.58-5.58,1.08-8.2C229.41,89.45,233.66,81.67,238.31,79.87z M222.17,108.23
			c-0.12,1.55-0.2,3.13-0.23,4.72h-16.71c1.64-4.22,8.21-8.11,17.58-10.35C222.53,104.44,222.32,106.32,222.17,108.23z
			 M249.82,149.25c2.01-2.52,3.79-5.86,5.23-9.94l-3.87-1.36c-2.31,6.53-5.48,10.88-8.77,12.18v-16.7
			c4.63-0.11,9.12-0.57,13.37-1.38c3.18-0.6,6.18-1.4,8.9-2.36c4.08-1.44,7.42-3.21,9.94-5.23
			C271.29,136.46,261.82,145.94,249.82,149.25z M274.61,105.54c-2.52-2.01-5.86-3.79-9.94-5.22c-2.33-0.83-4.86-1.53-7.54-2.09
			c-1.58-7.53-4.13-13.51-7.29-17.47C261.84,84.08,271.3,93.55,274.61,105.54z M230.87,80.76c-3.16,3.96-5.7,9.94-7.28,17.47
			c-7.53,1.58-13.51,4.13-17.47,7.28C209.44,93.53,218.89,84.08,230.87,80.76z M286.36,77.6c-8.63-9.83-20.36-16.37-33.16-18.52
			c-0.94-6.24-6.34-11.04-12.84-11.04c-7.16,0-12.98,5.82-12.98,12.98S233.2,74,240.36,74c6.41,0,11.74-4.66,12.79-10.77
			c11.63,2.11,22.26,8.12,30.13,17.07c8.42,9.59,13.06,21.92,13.06,34.7s-4.64,25.1-13.06,34.7c-7.87,8.96-18.5,14.97-30.13,17.07
			c-1.05-6.11-6.39-10.77-12.79-10.77c-7.16,0-12.98,5.82-12.98,12.98s5.82,12.98,12.98,12.98c6.5,0,11.9-4.8,12.84-11.04
			c12.81-2.16,24.53-8.69,33.16-18.52c9.08-10.34,14.08-23.63,14.08-37.4S295.44,87.94,286.36,77.6z M240.36,69.9
			c-4.9,0-8.88-3.99-8.88-8.88c0-4.9,3.99-8.88,8.88-8.88s8.88,3.99,8.88,8.88C249.24,65.91,245.26,69.9,240.36,69.9z
			 M240.36,177.87c-4.9,0-8.88-3.99-8.88-8.88c0-4.9,3.99-8.88,8.88-8.88s8.88,3.99,8.88,8.88
			C249.24,173.88,245.26,177.87,240.36,177.87z"/>
		<g>
			<circle class="st24" cx="240.36" cy="61.02" r="4.1"/>
			<circle class="st24" cx="240.36" cy="168.98" r="4.1"/>
		</g>
	</g>
</g>
<g id="Layer_13">
</g>
<g id="Layer_14">
</g>
<g id="Layer_15">
</g>
</svg>
