<?xml version="1.0" encoding="utf-8"?>
<!-- Generator: Adobe Illustrator 27.8.1, SVG Export Plug-In . SVG Version: 6.00 Build 0)  -->
<svg version="1.1" xmlns="http://www.w3.org/2000/svg" xmlns:xlink="http://www.w3.org/1999/xlink" x="0px" y="0px"
	 viewBox="0 0 350 230" style="enable-background:new 0 0 350 230;" xml:space="preserve">
<style type="text/css">
	.st0{fill:#ADDAD0;}
	.st1{fill:#8DFFE9;}
	.st2{fill:#76DAC8;}
	.st3{fill:#006432;}
	.st4{fill:#0025FF;}
	.st5{fill:#00FF4E;}
	.st6{fill:#00FF85;}
	.st7{fill:#1E0D63;}
	.st8{fill:#FF4848;}
	.st9{fill:#00997C;}
	.st10{fill:#FF00C9;}
	.st11{fill:#00FF5B;}
	.st12{fill:#020044;}
	.st13{fill:#00FFCE;}
	.st14{fill:#00F3FF;}
	.st15{fill:#004437;}
	.st16{fill:#0019FF;}
	.st17{fill:#0031FF;}
	.st18{fill:#00D6AD;}
	.st19{fill:#9FDDFF;}
	.st20{fill:#720021;}
	.st21{fill:#CE7000;}
	.st22{fill:#205104;}
	.st23{fill:#004787;}
	.st24{fill:#FFFFFF;}
	.st25{fill:#EEB0F7;}
	.st26{fill:#004B96;}
	.st27{fill:#701000;}
	.st28{fill-rule:evenodd;clip-rule:evenodd;fill:#FFFF00;}
	.st29{fill-rule:evenodd;clip-rule:evenodd;fill:#68C7FC;}
	.st30{filter:url(#Adobe_OpacityMaskFilter);}
	.st31{fill-rule:evenodd;clip-rule:evenodd;fill:#FFFFFF;}
	
		.st32{mask:url(#earthglobe-b_00000087385483975625957440000004491752639183121025_);fill-rule:evenodd;clip-rule:evenodd;fill:#033D2B;}
	.st33{fill:#00FCFF;}
	.st34{fill:#003EF9;}
	.st35{fill:#001535;}
	.st36{fill:#003A55;}
</style>
<g id="Layer_1">
</g>
<g id="Layer_2">
</g>
<g id="Layer_3">
</g>
<g id="Layer_4">
</g>
<g id="Layer_5">
</g>
<g id="Layer_6">
</g>
<g id="Layer_7">
</g>
<g id="Layer_8">
</g>
<g id="Layer_9">
</g>
<g id="Layer_10">
</g>
<g id="Layer_11">
	<g>
		<path class="st21" d="M216.67,75.35c-0.32-0.79-1.22-1.18-2.01-0.87c-0.79,0.32-1.18,1.21-0.87,2.01
			c1.76,4.43,2.74,9.08,2.91,13.84h-40.16V50.16c3.94,0.14,7.82,0.85,11.57,2.09c0.81,0.27,1.69-0.17,1.95-0.98
			c0.27-0.81-0.17-1.68-0.98-1.95c-4.56-1.51-9.29-2.27-14.09-2.27c-12.72,0-24.21,5.32-32.38,13.86c-0.08,0.08-0.16,0.17-0.24,0.25
			c-7.57,8.03-12.21,18.84-12.21,30.72c0,5.16,0.88,10.23,2.6,15.06c0.22,0.63,0.82,1.03,1.45,1.03c0.17,0,0.35-0.03,0.52-0.09
			c0.8-0.29,1.22-1.17,0.93-1.98c-1.43-4.02-2.24-8.21-2.39-12.48h40.16v40.16c-1.93-0.07-3.88-0.29-5.83-0.63
			c-0.84-0.15-1.65,0.41-1.8,1.25c-0.15,0.84,0.41,1.64,1.25,1.8c2.65,0.47,5.31,0.71,7.92,0.71c13.17,0,25.03-5.71,33.24-14.78
			c0.1-0.11,0.19-0.21,0.29-0.32c0,0,0,0,0,0c7.03-7.92,11.3-18.33,11.3-29.72C219.83,86.18,218.76,80.62,216.67,75.35z
			 M176.55,93.42h18.53c-0.17,6.2-1.4,12.23-3.57,17.88c-4.82-1.45-9.84-2.26-14.96-2.4V93.42z M176.55,111.99
			c4.71,0.13,9.32,0.87,13.76,2.18c-3.16,6.99-7.82,13.3-13.76,18.48V111.99z M173.45,51.1v19.11c-4.48-0.13-8.88-0.8-13.12-1.99
			C163.47,61.77,167.9,55.94,173.45,51.1z M169.53,50.49c-5.11,4.86-9.22,10.56-12.19,16.79c-3.94-1.36-7.73-3.19-11.3-5.45
			C152.32,55.79,160.47,51.68,169.53,50.49z M133.29,90.32c0.37-10.05,4.3-19.2,10.57-26.22c3.85,2.5,7.95,4.52,12.22,6.01
			c-2.61,6.34-4.07,13.17-4.26,20.21H133.29z M154.93,90.32c0.19-6.71,1.61-13.22,4.12-19.26c4.65,1.35,9.49,2.11,14.41,2.24v17.02
			H154.93z M180.46,133.25c5.47-5.21,9.79-11.37,12.8-18.12c4.07,1.46,7.96,3.42,11.62,5.85C198.5,127.53,189.98,132,180.46,133.25z
			 M206.98,118.66c-3.93-2.66-8.14-4.8-12.53-6.39c2.27-5.95,3.55-12.31,3.72-18.85h18.54C216.36,103,212.76,111.78,206.98,118.66z"
			/>
		<path class="st22" d="M200.51,47.04c-10.67,0-19.32,7.85-19.32,17.54c0,3.57,1.18,6.89,3.2,9.66c-0.26,3.2-1.03,7.71-3.2,9.9
			c0,0,6.63-0.94,11.11-3.69c2.49,1.06,5.28,1.66,8.21,1.66c10.67,0,19.32-7.85,19.32-17.54C219.83,54.89,211.18,47.04,200.51,47.04
			"/>
		<path class="st23" d="M149.49,99.6c10.67,0,19.32,7.85,19.32,17.54c0,3.57-1.18,6.89-3.2,9.66c0.26,3.2,1.03,7.71,3.2,9.9
			c0,0-6.63-0.94-11.11-3.69c-2.49,1.06-5.28,1.66-8.21,1.66c-10.67,0-19.32-7.85-19.32-17.54
			C130.17,107.45,138.82,99.6,149.49,99.6"/>
		<path class="st24" d="M204.37,59.41h-10.82c-0.85,0-1.55-0.69-1.55-1.55c0-0.85,0.69-1.55,1.55-1.55h10.82
			c0.85,0,1.55,0.69,1.55,1.55C205.92,58.72,205.22,59.41,204.37,59.41 M209.01,71.77h-15.46c-0.85,0-1.55-0.69-1.55-1.55
			s0.69-1.55,1.55-1.55h15.46c0.85,0,1.55,0.69,1.55,1.55S209.86,71.77,209.01,71.77 M212.1,65.59h-18.55
			c-0.85,0-1.55-0.69-1.55-1.55c0-0.85,0.69-1.55,1.55-1.55h18.55c0.85,0,1.55,0.69,1.55,1.55C213.64,64.9,212.95,65.59,212.1,65.59
			 M151.81,111.96h-10.82c-0.85,0-1.55-0.69-1.55-1.55s0.69-1.55,1.55-1.55h10.82c0.85,0,1.55,0.69,1.55,1.55
			S152.67,111.96,151.81,111.96 M156.45,124.33h-15.46c-0.85,0-1.55-0.69-1.55-1.55s0.69-1.55,1.55-1.55h15.46
			c0.85,0,1.55,0.69,1.55,1.55C158,123.64,157.31,124.33,156.45,124.33 M159.54,118.15h-18.55c-0.85,0-1.55-0.69-1.55-1.55
			c0-0.85,0.69-1.55,1.55-1.55h18.55c0.85,0,1.55,0.69,1.55,1.55C161.09,117.45,160.4,118.15,159.54,118.15"/>
	</g>
</g>
<g id="Layer_12">
</g>
<g id="Layer_13">
</g>
<g id="Layer_14">
</g>
<g id="Layer_15">
</g>
</svg>
