<?xml version="1.0" encoding="utf-8"?>
<!-- Generator: Adobe Illustrator 27.8.1, SVG Export Plug-In . SVG Version: 6.00 Build 0)  -->
<svg version="1.1" xmlns="http://www.w3.org/2000/svg" xmlns:xlink="http://www.w3.org/1999/xlink" x="0px" y="0px"
	 viewBox="0 0 350 230" style="enable-background:new 0 0 350 230;" xml:space="preserve">
<style type="text/css">
	.st0{fill:#ADDAD0;}
	.st1{fill:#8DFFE9;}
	.st2{fill:#76DAC8;}
	.st3{fill:#006432;}
	.st4{fill:#0025FF;}
	.st5{fill:#00FF4E;}
	.st6{fill:#00FF85;}
	.st7{fill:#1E0D63;}
	.st8{fill:#FF4848;}
	.st9{fill:#00997C;}
	.st10{fill:#FF00C9;}
	.st11{fill:#00FF5B;}
	.st12{fill:#020044;}
	.st13{fill:#00FFCE;}
	.st14{fill:#00F3FF;}
	.st15{fill:#004437;}
	.st16{fill:#0019FF;}
	.st17{fill:#0031FF;}
	.st18{fill:#00D6AD;}
	.st19{fill:#9FDDFF;}
	.st20{fill:#720021;}
	.st21{fill:#CE7000;}
	.st22{fill:#205104;}
	.st23{fill:#004787;}
	.st24{fill:#FFFFFF;}
	.st25{fill:#EEB0F7;}
	.st26{fill:#004B96;}
	.st27{fill:#701000;}
	.st28{fill-rule:evenodd;clip-rule:evenodd;fill:#FFFF00;}
	.st29{fill-rule:evenodd;clip-rule:evenodd;fill:#68C7FC;}
	.st30{filter:url(#Adobe_OpacityMaskFilter);}
	.st31{fill-rule:evenodd;clip-rule:evenodd;fill:#FFFFFF;}
	
		.st32{mask:url(#earthglobe-b_00000087385483975625957440000004491752639183121025_);fill-rule:evenodd;clip-rule:evenodd;fill:#033D2B;}
	.st33{fill:#00FCFF;}
	.st34{fill:#003EF9;}
	.st35{fill:#001535;}
	.st36{fill:#003A55;}
</style>
<g id="Layer_1">
	<g>
		<path class="st0" d="M174.74,60.94c0-1.51,0-2.97,0-4.62c-17.71,0.43-31.95,7.57-42.95,21.25c-1.29-1.3-2.61-2.63-3.93-3.96
			c22.27-29.42,68.48-31.34,94.29-0.64c-2.42,2.4-4.83,4.8-7.27,7.22C204.49,67.84,191.11,61.35,174.74,60.94z"/>
		<path class="st1" d="M147.24,93.11c-2.48-2.48-4.9-4.89-7.32-7.3c16.07-21.77,51.39-24.18,68.85,0.58
			c-1.34,1.36-2.68,2.72-4.02,4.07c-7.3-10.31-17.24-15.78-30.05-16.17c0,1.59,0,3.07,0,4.66c-5.53,0.04-10.68,1.28-15.52,3.79
			C154.38,85.25,150.41,88.74,147.24,93.11z"/>
		<path class="st2" d="M189.1,106.17c-3-5.86-7.74-8.97-14.37-9.33c0-1.47,0-2.96,0-4.44c-4.4-0.43-13.08,2.19-16.95,11.45
			c-0.68-0.7-1.31-1.37-1.96-2.02c-0.62-0.63-1.23-1.26-1.88-1.86c-0.37-0.34-0.43-0.61-0.17-1.06c3.85-6.65,9.49-10.94,17.1-12.02
			c10.65-1.5,19.13,2.48,25.44,11.15c0.11,0.15,0.2,0.3,0.29,0.46c0.03,0.04,0.03,0.1,0.03,0.1
			C194.13,101.13,191.63,103.64,189.1,106.17z"/>
		<path class="st3" d="M149.89,118.12c-0.69,0.57-1.3,0.97-1.79,1.49c-0.72,0.77-0.74,1.63,0.01,2.35c0.64,0.61,1.4,1.15,2.2,1.54
			c2.58,1.27,5.38,1.84,8.18,2.31c6.17,1.03,12.39,1.36,18.63,1.23c6.45-0.14,12.87-0.58,19.13-2.32c1.48-0.41,2.88-1.11,4.32-1.69
			c0.17-0.07,0.32-0.18,0.46-0.28c1.78-1.26,1.78-2.62,0.01-3.89c-0.29-0.21-0.61-0.38-0.89-0.62c1.76,0.6,3.49,1.26,4.83,2.63
			c1.07,1.1,1.08,2.55-0.17,3.53c-1.1,0.86-2.35,1.61-3.65,2.15c-3.7,1.55-7.64,2.22-11.59,2.75c-5.27,0.71-10.56,0.99-15.87,0.92
			c-6.71-0.09-13.4-0.55-19.93-2.15c-2.27-0.56-4.47-1.42-6.65-2.29c-0.83-0.33-1.58-0.98-2.23-1.63c-0.94-0.94-0.99-2.22-0.01-3.11
			c0.92-0.84,2.04-1.47,3.11-2.12C148.54,118.58,149.18,118.41,149.89,118.12z M166.64,112.68c0.01,4.45,3.6,8.03,8.06,8.02
			c4.45-0.01,8.04-3.6,8.03-8.04c0-4.44-3.61-8.03-8.06-8.01C170.21,104.65,166.63,108.23,166.64,112.68z"/>
	</g>
</g>
<g id="Layer_2">
</g>
<g id="Layer_3">
</g>
<g id="Layer_4">
</g>
<g id="Layer_5">
</g>
<g id="Layer_6">
</g>
<g id="Layer_7">
</g>
<g id="Layer_8">
</g>
<g id="Layer_9">
</g>
<g id="Layer_10">
</g>
<g id="Layer_11">
</g>
<g id="Layer_12">
</g>
<g id="Layer_13">
</g>
<g id="Layer_14">
</g>
<g id="Layer_15">
</g>
</svg>
