<?xml version="1.0" encoding="utf-8"?>
<!-- Generator: Adobe Illustrator 27.8.1, SVG Export Plug-In . SVG Version: 6.00 Build 0)  -->
<svg version="1.1" xmlns="http://www.w3.org/2000/svg" xmlns:xlink="http://www.w3.org/1999/xlink" x="0px" y="0px"
	 viewBox="0 0 350 230" style="enable-background:new 0 0 350 230;" xml:space="preserve">
<style type="text/css">
	.st0{fill:#ADDAD0;}
	.st1{fill:#8DFFE9;}
	.st2{fill:#76DAC8;}
	.st3{fill:#006432;}
	.st4{fill:#0025FF;}
	.st5{fill:#00FF4E;}
	.st6{fill:#00FF85;}
	.st7{fill:#1E0D63;}
	.st8{fill:#FF4848;}
	.st9{fill:#00997C;}
	.st10{fill:#FF00C9;}
	.st11{fill:#00FF5B;}
	.st12{fill:#020044;}
	.st13{fill:#00FFCE;}
	.st14{fill:#00F3FF;}
	.st15{fill:#004437;}
	.st16{fill:#0019FF;}
	.st17{fill:#0031FF;}
	.st18{fill:#00D6AD;}
	.st19{fill:#9FDDFF;}
	.st20{fill:#720021;}
	.st21{fill:#CE7000;}
	.st22{fill:#205104;}
	.st23{fill:#004787;}
	.st24{fill:#FFFFFF;}
	.st25{fill:#EEB0F7;}
	.st26{fill:#004B96;}
	.st27{fill:#701000;}
	.st28{fill-rule:evenodd;clip-rule:evenodd;fill:#FFFF00;}
	.st29{fill-rule:evenodd;clip-rule:evenodd;fill:#68C7FC;}
	.st30{filter:url(#Adobe_OpacityMaskFilter);}
	.st31{fill-rule:evenodd;clip-rule:evenodd;fill:#FFFFFF;}
	
		.st32{mask:url(#earthglobe-b_00000087385483975625957440000004491752639183121025_);fill-rule:evenodd;clip-rule:evenodd;fill:#033D2B;}
	.st33{fill:#00FCFF;}
	.st34{fill:#003EF9;}
	.st35{fill:#001535;}
	.st36{fill:#003A55;}
</style>
<g id="Layer_1">
</g>
<g id="Layer_2">
</g>
<g id="Layer_3">
</g>
<g id="Layer_4">
</g>
<g id="Layer_5">
</g>
<g id="Layer_6">
</g>
<g id="Layer_7">
</g>
<g id="Layer_8">
</g>
<g id="Layer_9">
</g>
<g id="Layer_10">
</g>
<g id="Layer_11">
</g>
<g id="Layer_12">
</g>
<g id="Layer_13">
</g>
<g id="Layer_14">
	<g>
		<path class="st35" d="M174.98,78.71c7.47,0.02,14.51,1.88,21.21,5.07c5.53,2.64,10.5,6.1,14.92,10.34c0.98,0.95,1,1.58,0.09,2.59
			c-3.58,4.01-7.16,8.02-10.74,12.03c-0.93,1.04-1.64,1.06-2.66,0.07c-2.91-2.81-5.97-5.42-9.51-7.42
			c-4.86-2.75-10.08-3.75-15.63-3.39c-6.56,0.43-12.08,3.14-16.92,7.43c-1.14,1.01-2.25,2.07-3.35,3.14
			c-0.95,0.92-1.64,0.94-2.54,0.01c-3.65-3.75-7.28-7.52-10.95-11.24c-0.95-0.96-0.92-1.85,0.05-2.79
			c6.93-6.74,14.93-11.65,24.29-14.22C167.07,79.27,170.99,78.69,174.98,78.71z"/>
		<path class="st36" d="M175.26,47.26c16.05,0.07,30.94,4.23,44.6,12.7c4.99,3.09,9.58,6.71,13.81,10.78
			c0.29,0.28,0.6,0.59,0.79,0.94c0.31,0.56,0.11,1.19-0.47,1.77c-3.57,3.57-7.14,7.14-10.7,10.71c-0.83,0.83-1.66,1.67-2.5,2.5
			c-0.94,0.93-1.59,0.95-2.54,0.03c-4.27-4.09-9.01-7.52-14.25-10.25c-6.72-3.5-13.85-5.68-21.38-6.57
			c-4.93-0.58-9.86-0.58-14.79,0.04c-10.76,1.36-20.56,5.19-29.23,11.72c-2.44,1.83-4.66,3.96-6.95,5.98
			c-0.8,0.7-1.62,0.73-2.33-0.06c-4.47-4.94-8.94-9.87-13.4-14.81c-0.73-0.81-0.7-1.54,0.1-2.33c6.14-6.12,13.14-11,20.95-14.73
			c7.96-3.81,16.34-6.24,25.08-7.48C166.42,47.59,170.84,47.32,175.26,47.26z M175.04,106.08c-7.66-0.01-14,6.24-14.01,13.8
			c-0.01,7.87,6.18,14.1,14.01,14.09c7.67-0.01,13.89-6.22,13.89-13.88C188.93,112.33,182.74,106.09,175.04,106.08z M174.93,112.23
			c4.34-0.01,7.87,3.49,7.89,7.81c0.01,4.23-3.52,7.79-7.77,7.82c-4.29,0.03-7.85-3.54-7.85-7.86
			C167.19,115.79,170.72,112.24,174.93,112.23z"/>
	</g>
</g>
<g id="Layer_15">
</g>
</svg>
