<?xml version="1.0" encoding="utf-8"?>
<!-- Generator: Adobe Illustrator 27.8.1, SVG Export Plug-In . SVG Version: 6.00 Build 0)  -->
<svg version="1.1" xmlns="http://www.w3.org/2000/svg" xmlns:xlink="http://www.w3.org/1999/xlink" x="0px" y="0px"
	 viewBox="0 0 350 230" style="enable-background:new 0 0 350 230;" xml:space="preserve">
<style type="text/css">
	.st0{fill:#ADDAD0;}
	.st1{fill:#8DFFE9;}
	.st2{fill:#76DAC8;}
	.st3{fill:#006432;}
	.st4{fill:#0025FF;}
	.st5{fill:#00FF4E;}
	.st6{fill:#00FF85;}
	.st7{fill:#1E0D63;}
	.st8{fill:#FF4848;}
	.st9{fill:#00997C;}
	.st10{fill:#FF00C9;}
	.st11{fill:#00FF5B;}
	.st12{fill:#020044;}
	.st13{fill:#00FFCE;}
	.st14{fill:#00F3FF;}
	.st15{fill:#004437;}
	.st16{fill:#0019FF;}
	.st17{fill:#0031FF;}
	.st18{fill:#00D6AD;}
	.st19{fill:#9FDDFF;}
	.st20{fill:#720021;}
	.st21{fill:#CE7000;}
	.st22{fill:#205104;}
	.st23{fill:#004787;}
	.st24{fill:#FFFFFF;}
	.st25{fill:#EEB0F7;}
	.st26{fill:#004B96;}
	.st27{fill:#701000;}
	.st28{fill-rule:evenodd;clip-rule:evenodd;fill:#FFFF00;}
	.st29{fill-rule:evenodd;clip-rule:evenodd;fill:#68C7FC;}
	.st30{filter:url(#Adobe_OpacityMaskFilter);}
	.st31{fill-rule:evenodd;clip-rule:evenodd;fill:#FFFFFF;}
	
		.st32{mask:url(#earthglobe-b_00000087385483975625957440000004491752639183121025_);fill-rule:evenodd;clip-rule:evenodd;fill:#033D2B;}
	.st33{fill:#00FCFF;}
	.st34{fill:#003EF9;}
	.st35{fill:#001535;}
	.st36{fill:#003A55;}
</style>
<g id="Layer_1">
</g>
<g id="Layer_2">
</g>
<g id="Layer_3">
</g>
<g id="Layer_4">
</g>
<g id="Layer_5">
</g>
<g id="Layer_6">
</g>
<g id="Layer_7">
</g>
<g id="Layer_8">
	<g>
		<path class="st15" d="M114.3,62.72c-8.25-8.43-19.29-13.07-31.08-13.07s-22.84,4.64-31.08,13.07
			c-8.06,8.18-12.49,19.01-12.49,30.5c0,11.49,4.44,22.33,12.49,30.5c7.61,7.78,17.6,12.28,28.36,12.94v0.04
			c0.07,0,0.13-0.01,0.2-0.01c0.11,0,0.22,0.01,0.32,0.02h4.38c0.1-0.01,0.21-0.02,0.32-0.02c0.06,0,0.12,0,0.18,0.01
			c0.02,0,0.03-0.01,0.05-0.01v-0.03c10.76-0.66,20.75-5.16,28.35-12.93c8.06-8.18,12.49-19.01,12.49-30.5
			C126.78,81.72,122.35,70.89,114.3,62.72z M68.69,57.96c-2.21,2.86-4.14,6.34-5.69,10.35c-1.72-1.09-3.37-2.31-4.92-3.69
			C61.27,61.8,64.84,59.55,68.69,57.96z M54.26,68.5c2.18,1.96,4.52,3.67,7,5.13c-1.42,5.1-2.28,10.8-2.48,16.87H45.22
			C45.8,82.34,48.94,74.7,54.26,68.5z M45.22,95.94h13.56c0.2,6.07,1.07,11.76,2.48,16.87c-2.48,1.46-4.82,3.17-7,5.13
			C48.94,111.74,45.8,104.09,45.22,95.94z M58.08,121.81c1.55-1.37,3.19-2.6,4.92-3.68c1.55,4.01,3.48,7.49,5.69,10.35
			C64.84,126.88,61.27,124.63,58.08,121.81z M80.49,130.88c-5.11-1.54-9.62-7.29-12.6-15.38c3.95-1.74,8.2-2.78,12.6-3.09V130.88z
			 M80.49,106.96c-4.96,0.3-9.76,1.39-14.24,3.28c-1.13-4.38-1.84-9.22-2.03-14.31h16.27V106.96z M80.49,90.49H64.22
			c0.19-5.09,0.9-9.92,2.03-14.31c4.47,1.89,9.28,2.98,14.24,3.28V90.49z M80.49,74.02c-4.4-0.31-8.65-1.35-12.6-3.09
			c2.98-8.1,7.49-13.84,12.6-15.38V74.02z M121.21,90.49h-13.56c-0.2-6.07-1.07-11.76-2.48-16.87c2.48-1.46,4.82-3.17,7-5.13
			C117.49,74.69,120.63,82.34,121.21,90.49z M108.35,64.62c-1.55,1.37-3.19,2.6-4.92,3.69c-1.55-4.01-3.48-7.49-5.69-10.35
			C101.59,59.55,105.16,61.8,108.35,64.62z M85.94,55.55c5.11,1.54,9.62,7.29,12.6,15.38c-3.95,1.74-8.2,2.78-12.6,3.09V55.55z
			 M85.94,79.47c4.96-0.3,9.76-1.39,14.24-3.28c1.13,4.38,1.84,9.22,2.03,14.31H85.94V79.47z M85.94,95.94h16.27
			c-0.19,5.09-0.9,9.92-2.03,14.31c-4.47-1.89-9.28-2.98-14.24-3.28V95.94z M85.94,130.88v-18.47c4.4,0.31,8.65,1.35,12.6,3.09
			C95.56,123.6,91.05,129.34,85.94,130.88z M97.74,128.47c2.21-2.86,4.14-6.34,5.69-10.35c1.72,1.09,3.37,2.31,4.92,3.69
			C105.16,124.63,101.6,126.88,97.74,128.47z M112.17,117.93c-2.18-1.96-4.52-3.67-7-5.13c1.42-5.1,2.28-10.8,2.48-16.87h13.56
			C120.63,104.09,117.49,111.73,112.17,117.93z"/>
		<path class="st16" d="M154.02,131.56v-9.75c0-8.26-6.72-14.98-14.98-14.98c-8.26,0-14.98,6.72-14.98,14.98v20.42
			c0,10.51-8.55,19.06-19.06,19.06c-10.51,0-19.06-8.55-19.06-19.06v-0.34h-5.45v0.34c0,13.51,10.99,24.51,24.51,24.51
			c13.51,0,24.51-10.99,24.51-24.51v-20.42c0-5.25,4.28-9.53,9.53-9.53c5.25,0,9.53,4.28,9.53,9.53v9.75
			c-9.22,1.33-16.34,9.26-16.34,18.84v10.89c0,10.51,8.55,19.06,19.06,19.06c10.51,0,19.06-8.55,19.06-19.06V150.4
			C170.35,140.82,163.24,132.88,154.02,131.56z M164.91,161.29c0,7.51-6.11,13.62-13.62,13.62s-13.62-6.11-13.62-13.62V150.4
			c0-7.51,6.11-13.62,13.62-13.62s13.62,6.11,13.62,13.62V161.29z M148.57,142.23h5.45v8.17h-5.45V142.23z"/>
	</g>
</g>
<g id="Layer_9">
</g>
<g id="Layer_10">
</g>
<g id="Layer_11">
</g>
<g id="Layer_12">
</g>
<g id="Layer_13">
</g>
<g id="Layer_14">
</g>
<g id="Layer_15">
</g>
</svg>
