<?xml version="1.0" encoding="utf-8"?>
<!-- Generator: Adobe Illustrator 27.8.1, SVG Export Plug-In . SVG Version: 6.00 Build 0)  -->
<svg version="1.1" xmlns="http://www.w3.org/2000/svg" xmlns:xlink="http://www.w3.org/1999/xlink" x="0px" y="0px"
	 viewBox="0 0 350 230" style="enable-background:new 0 0 350 230;" xml:space="preserve">
<style type="text/css">
	.st0{fill:#ADDAD0;}
	.st1{fill:#8DFFE9;}
	.st2{fill:#76DAC8;}
	.st3{fill:#006432;}
	.st4{fill:#0025FF;}
	.st5{fill:#00FF4E;}
	.st6{fill:#00FF85;}
	.st7{fill:#1E0D63;}
	.st8{fill:#FF4848;}
	.st9{fill:#00997C;}
	.st10{fill:#FF00C9;}
	.st11{fill:#00FF5B;}
	.st12{fill:#020044;}
	.st13{fill:#00FFCE;}
	.st14{fill:#00F3FF;}
	.st15{fill:#004437;}
	.st16{fill:#0019FF;}
	.st17{fill:#0031FF;}
	.st18{fill:#00D6AD;}
	.st19{fill:#9FDDFF;}
	.st20{fill:#720021;}
	.st21{fill:#CE7000;}
	.st22{fill:#205104;}
	.st23{fill:#004787;}
	.st24{fill:#FFFFFF;}
	.st25{fill:#EEB0F7;}
	.st26{fill:#004B96;}
	.st27{fill:#701000;}
	.st28{fill-rule:evenodd;clip-rule:evenodd;fill:#FFFF00;}
	.st29{fill-rule:evenodd;clip-rule:evenodd;fill:#68C7FC;}
	.st30{filter:url(#Adobe_OpacityMaskFilter);}
	.st31{fill-rule:evenodd;clip-rule:evenodd;fill:#FFFFFF;}
	
		.st32{mask:url(#earthglobe-b_00000087385483975625957440000004491752639183121025_);fill-rule:evenodd;clip-rule:evenodd;fill:#033D2B;}
	.st33{fill:#00FCFF;}
	.st34{fill:#003EF9;}
	.st35{fill:#001535;}
	.st36{fill:#003A55;}
</style>
<g id="Layer_1">
</g>
<g id="Layer_2">
	<g>
		<g>
			<path class="st4" d="M184.39,85.19c0-5.19-4.21-9.39-9.39-9.39c-5.19,0-9.39,4.21-9.39,9.39c0,3.94,2.43,7.31,5.87,8.71v39.08
				h7.05V93.9C181.96,92.5,184.39,89.13,184.39,85.19z"/>
			<path class="st5" d="M163.5,109.86c-0.66,0-1.34-0.14-1.98-0.44c-9.5-4.41-15.64-14.03-15.64-24.5c0-10.47,6.14-20.09,15.64-24.5
				c2.35-1.09,5.15-0.07,6.24,2.28s0.07,5.15-2.28,6.24c-6.2,2.88-10.21,9.15-10.21,15.98c0,6.83,4.01,13.1,10.21,15.98
				c2.35,1.09,3.37,3.89,2.28,6.24C166.97,108.85,165.27,109.86,163.5,109.86z M186.57,109.83c-1.77,0-3.46-1-4.26-2.7
				c-1.1-2.35-0.09-5.15,2.26-6.25c6.17-2.89,10.15-9.15,10.15-15.96c0-6.8-3.98-13.07-10.15-15.96c-2.35-1.1-3.36-3.9-2.26-6.25
				c1.1-2.35,3.9-3.36,6.25-2.26c9.45,4.43,15.56,14.03,15.56,24.46c0,10.43-6.11,20.03-15.56,24.46
				C187.92,109.68,187.24,109.83,186.57,109.83z"/>
			<path class="st6" d="M153.84,121.58c-0.66,0-1.34-0.14-1.98-0.44c-6.81-3.16-12.57-8.16-16.68-14.46
				c-4.22-6.47-6.45-14-6.45-21.75s2.23-15.28,6.45-21.75c4.1-6.3,9.87-11.3,16.68-14.46c2.35-1.09,5.15-0.07,6.24,2.28
				c1.09,2.35,0.07,5.15-2.28,6.24c-10.75,4.99-17.69,15.86-17.69,27.7c0,11.83,6.94,22.71,17.69,27.7
				c2.35,1.09,3.37,3.89,2.28,6.24C157.3,120.57,155.61,121.58,153.84,121.58z M196.27,121.53c-1.77,0-3.46-1-4.26-2.7
				c-1.1-2.35-0.09-5.15,2.26-6.25c10.69-5.01,17.6-15.87,17.6-27.66s-6.91-22.65-17.6-27.66c-2.35-1.1-3.36-3.9-2.26-6.25
				c1.1-2.35,3.9-3.36,6.25-2.26c6.77,3.18,12.51,8.18,16.59,14.46c4.19,6.46,6.41,13.97,6.41,21.7s-2.22,15.24-6.41,21.7
				c-4.08,6.29-9.82,11.29-16.59,14.46C197.62,121.38,196.94,121.53,196.27,121.53z"/>
		</g>
	</g>
</g>
<g id="Layer_3">
</g>
<g id="Layer_4">
</g>
<g id="Layer_5">
</g>
<g id="Layer_6">
</g>
<g id="Layer_7">
</g>
<g id="Layer_8">
</g>
<g id="Layer_9">
</g>
<g id="Layer_10">
</g>
<g id="Layer_11">
</g>
<g id="Layer_12">
</g>
<g id="Layer_13">
</g>
<g id="Layer_14">
</g>
<g id="Layer_15">
</g>
</svg>
