<?xml version="1.0" encoding="utf-8"?>
<!-- Generator: Adobe Illustrator 27.8.1, SVG Export Plug-In . SVG Version: 6.00 Build 0)  -->
<svg version="1.1" xmlns="http://www.w3.org/2000/svg" xmlns:xlink="http://www.w3.org/1999/xlink" x="0px" y="0px"
	 viewBox="0 0 350 230" style="enable-background:new 0 0 350 230;" xml:space="preserve">
<style type="text/css">
	.st0{fill:#ADDAD0;}
	.st1{fill:#8DFFE9;}
	.st2{fill:#76DAC8;}
	.st3{fill:#006432;}
	.st4{fill:#0025FF;}
	.st5{fill:#00FF4E;}
	.st6{fill:#00FF85;}
	.st7{fill:#1E0D63;}
	.st8{fill:#FF4848;}
	.st9{fill:#00997C;}
	.st10{fill:#FF00C9;}
	.st11{fill:#00FF5B;}
	.st12{fill:#020044;}
	.st13{fill:#00FFCE;}
	.st14{fill:#00F3FF;}
	.st15{fill:#004437;}
	.st16{fill:#0019FF;}
	.st17{fill:#0031FF;}
	.st18{fill:#00D6AD;}
	.st19{fill:#9FDDFF;}
	.st20{fill:#720021;}
	.st21{fill:#CE7000;}
	.st22{fill:#205104;}
	.st23{fill:#004787;}
	.st24{fill:#FFFFFF;}
	.st25{fill:#EEB0F7;}
	.st26{fill:#004B96;}
	.st27{fill:#701000;}
	.st28{fill-rule:evenodd;clip-rule:evenodd;fill:#FFFF00;}
	.st29{fill-rule:evenodd;clip-rule:evenodd;fill:#68C7FC;}
	.st30{filter:url(#Adobe_OpacityMaskFilter);}
	.st31{fill-rule:evenodd;clip-rule:evenodd;fill:#FFFFFF;}
	
		.st32{mask:url(#earthglobe-b_00000087385483975625957440000004491752639183121025_);fill-rule:evenodd;clip-rule:evenodd;fill:#033D2B;}
	.st33{fill:#00FCFF;}
	.st34{fill:#003EF9;}
	.st35{fill:#001535;}
	.st36{fill:#003A55;}
</style>
<g id="Layer_1">
</g>
<g id="Layer_2">
</g>
<g id="Layer_3">
</g>
<g id="Layer_4">
</g>
<g id="Layer_5">
	<g>
		<path class="st10" d="M219.4,97.2V83.01l-10.37-1.73c-0.81-3.12-2.05-6.1-3.7-8.9l6.12-8.56l-10.03-10.04l-8.56,6.12
			c-2.8-1.65-5.78-2.89-8.9-3.7l-1.73-10.37h-14.19l-1.73,10.37c-3.12,0.81-6.1,2.05-8.9,3.7l-8.56-6.12l-10.03,10.04l6.12,8.56
			c-1.65,2.8-2.89,5.78-3.7,8.9l-10.37,1.73V97.2l10.37,1.73c0.81,3.12,2.05,6.1,3.7,8.9l-6.12,8.56l10.03,10.04l8.56-6.12
			c2.8,1.65,5.78,2.89,8.9,3.7l1.73,10.37h14.19l1.73-10.37c3.12-0.81,6.1-2.05,8.9-3.7l8.56,6.12l10.03-10.04l-6.12-8.56
			c1.65-2.8,2.89-5.78,3.7-8.9L219.4,97.2z M205.72,96.91c-0.78,3.54-2.18,6.91-4.16,10l-0.67,1.05l5.73,8.03l-5.62,5.62l-8.02-5.73
			l-1.05,0.67c-3.1,1.97-6.46,3.37-10,4.15l-1.22,0.27l-1.62,9.72h-7.94l-1.62-9.72l-1.22-0.27c-3.54-0.78-6.91-2.18-10-4.15
			l-1.05-0.67l-8.02,5.73l-5.62-5.62l5.73-8.03l-0.67-1.05c-1.97-3.09-3.37-6.46-4.15-10l-0.27-1.22l-9.72-1.62v-7.94l9.72-1.62
			l0.27-1.22c0.78-3.54,2.18-6.91,4.16-10l0.67-1.05l-5.73-8.03l5.62-5.62l8.02,5.73l1.05-0.67c3.1-1.97,6.46-3.37,10-4.15
			l1.22-0.27l1.62-9.72h7.94l1.62,9.72l1.22,0.27c3.54,0.78,6.91,2.18,10,4.15l1.05,0.67l8.02-5.73l5.62,5.62l-5.73,8.03l0.67,1.05
			c1.97,3.1,3.37,6.46,4.16,10l0.27,1.22l9.72,1.62v7.94l-9.72,1.62L205.72,96.91z"/>
		<path class="st11" d="M175.13,64.28c-14.24,0-25.82,11.58-25.82,25.82s11.58,25.82,25.82,25.82c14.24,0,25.82-11.58,25.82-25.82
			S189.37,64.28,175.13,64.28z M166.17,69.89c-1.01,1.46-1.9,3.17-2.65,5.07c-0.89-0.55-1.75-1.15-2.56-1.83
			C162.53,71.82,164.28,70.73,166.17,69.89z M158.34,75.73c1.25,1.08,2.59,2.02,4,2.82c-0.8,2.95-1.29,6.22-1.43,9.71h-7.82
			C153.49,83.5,155.4,79.16,158.34,75.73z M153.09,91.95h7.82c0.13,3.47,0.62,6.73,1.41,9.66c-1.41,0.81-2.76,1.76-4.01,2.84
			C155.38,101.03,153.49,96.7,153.09,91.95z M160.93,107.06c0.82-0.69,1.68-1.3,2.57-1.85c0.76,1.93,1.65,3.65,2.67,5.12
			C164.27,109.48,162.5,108.38,160.93,107.06z M173.29,111.87c-2.61-1.01-4.91-4.08-6.5-8.36c2.06-0.84,4.24-1.35,6.5-1.54V111.87
			L173.29,111.87z M173.29,98.28c-2.63,0.18-5.17,0.75-7.57,1.7c-0.61-2.47-1-5.18-1.12-8.03h8.69V98.28L173.29,98.28z
			 M173.29,88.26h-8.69c0.12-2.87,0.52-5.6,1.13-8.08c2.4,0.94,4.94,1.51,7.56,1.69V88.26z M173.29,78.18
			c-2.25-0.18-4.43-0.7-6.48-1.53c1.59-4.25,3.88-7.3,6.48-8.31V78.18z M197.17,88.26h-7.82c-0.13-3.49-0.63-6.77-1.43-9.71
			c1.41-0.81,2.75-1.75,4-2.82C194.87,79.16,196.78,83.5,197.17,88.26z M189.31,73.13c-0.81,0.68-1.67,1.28-2.56,1.83
			c-0.75-1.91-1.64-3.62-2.65-5.07C185.98,70.73,187.74,71.82,189.31,73.13z M176.98,68.35c2.6,1,4.89,4.06,6.48,8.31
			c-2.05,0.83-4.23,1.34-6.48,1.53V68.35L176.98,68.35z M176.98,81.87c2.62-0.18,5.16-0.75,7.56-1.69c0.61,2.48,1.01,5.21,1.13,8.08
			h-8.69V81.87z M176.98,91.95h8.69c-0.12,2.85-0.51,5.56-1.12,8.03c-2.4-0.94-4.95-1.51-7.57-1.7V91.95L176.98,91.95z
			 M176.98,111.87v-9.89c2.25,0.18,4.44,0.7,6.5,1.54C181.88,107.78,179.58,110.86,176.98,111.87z M184.09,110.33
			c1.02-1.47,1.92-3.2,2.67-5.12c0.89,0.56,1.76,1.16,2.57,1.85C187.76,108.38,186,109.48,184.09,110.33z M191.95,104.45
			c-1.26-1.08-2.6-2.03-4.01-2.84c0.79-2.93,1.28-6.19,1.41-9.66h7.82C196.78,96.7,194.88,101.03,191.95,104.45z"/>
	</g>
</g>
<g id="Layer_6">
</g>
<g id="Layer_7">
</g>
<g id="Layer_8">
</g>
<g id="Layer_9">
</g>
<g id="Layer_10">
</g>
<g id="Layer_11">
</g>
<g id="Layer_12">
</g>
<g id="Layer_13">
</g>
<g id="Layer_14">
</g>
<g id="Layer_15">
</g>
</svg>
