<?xml version="1.0" encoding="utf-8"?>
<!-- Generator: Adobe Illustrator 27.8.1, SVG Export Plug-In . SVG Version: 6.00 Build 0)  -->
<svg version="1.1" xmlns="http://www.w3.org/2000/svg" xmlns:xlink="http://www.w3.org/1999/xlink" x="0px" y="0px"
	 viewBox="0 0 350 230" style="enable-background:new 0 0 350 230;" xml:space="preserve">
<style type="text/css">
	.st0{fill:#ADDAD0;}
	.st1{fill:#8DFFE9;}
	.st2{fill:#76DAC8;}
	.st3{fill:#006432;}
	.st4{fill:#0025FF;}
	.st5{fill:#00FF4E;}
	.st6{fill:#00FF85;}
	.st7{fill:#1E0D63;}
	.st8{fill:#FF4848;}
	.st9{fill:#00997C;}
	.st10{fill:#FF00C9;}
	.st11{fill:#00FF5B;}
	.st12{fill:#020044;}
	.st13{fill:#00FFCE;}
	.st14{fill:#00F3FF;}
	.st15{fill:#004437;}
	.st16{fill:#0019FF;}
	.st17{fill:#0031FF;}
	.st18{fill:#00D6AD;}
	.st19{fill:#9FDDFF;}
	.st20{fill:#720021;}
	.st21{fill:#CE7000;}
	.st22{fill:#205104;}
	.st23{fill:#004787;}
	.st24{fill:#FFFFFF;}
	.st25{fill:#EEB0F7;}
	.st26{fill:#004B96;}
	.st27{fill:#701000;}
	.st28{fill-rule:evenodd;clip-rule:evenodd;fill:#FFFF00;}
	.st29{fill-rule:evenodd;clip-rule:evenodd;fill:#68C7FC;}
	.st30{filter:url(#Adobe_OpacityMaskFilter);}
	.st31{fill-rule:evenodd;clip-rule:evenodd;fill:#FFFFFF;}
	
		.st32{mask:url(#earthglobe-b_00000087385483975625957440000004491752639183121025_);fill-rule:evenodd;clip-rule:evenodd;fill:#033D2B;}
	.st33{fill:#00FCFF;}
	.st34{fill:#003EF9;}
	.st35{fill:#001535;}
	.st36{fill:#003A55;}
</style>
<g id="Layer_1">
</g>
<g id="Layer_2">
</g>
<g id="Layer_3">
</g>
<g id="Layer_4">
</g>
<g id="Layer_5">
</g>
<g id="Layer_6">
	<g>
		<path class="st12" d="M216.43,103.11c3.67-2.16,4.9-6.88,2.75-10.56c-9.16-15.59-26.07-25.28-44.13-25.28
			c-18.12,0-35.05,9.73-44.2,25.39c-2.15,3.68-0.91,8.4,2.77,10.55c1.22,0.71,2.56,1.05,3.88,1.05c2.65,0,5.23-1.37,6.67-3.83
			c6.39-10.95,18.22-17.74,30.88-17.74c12.62,0,24.43,6.77,30.83,17.67C208.03,104.04,212.76,105.27,216.43,103.11z M111.48,87.21
			c-1.73,3.89,0.02,8.45,3.91,10.18c1.02,0.45,2.08,0.67,3.13,0.67c2.95,0,5.77-1.71,7.05-4.58c8.68-19.52,28.08-32.13,49.44-32.13
			c21.33,0,40.72,12.59,49.41,32.08c1.73,3.89,6.29,5.64,10.18,3.91c3.89-1.73,5.64-6.29,3.91-10.18
			c-11.16-25.04-36.09-41.23-63.5-41.23C147.57,45.92,122.63,62.13,111.48,87.21z"/>
		<path class="st13" d="M175.02,89.12c-13.36,0-25.42,8.42-30.02,20.96c-1.47,4,0.59,8.43,4.59,9.89c2.85,1.04,5.91,0.27,7.97-1.69
			c1.37,8.41,8.66,14.84,17.46,14.84c8.79,0,16.06-6.41,17.45-14.81c1.42,1.36,3.33,2.13,5.32,2.13c0.88,0,1.78-0.15,2.65-0.47
			c4-1.47,6.05-5.89,4.59-9.89C200.43,97.54,188.37,89.12,175.02,89.12z M181.46,121.94c-1.83,1.62-3.98,2.44-6.4,2.44
			c-2.45,0-4.62-0.81-6.45-2.4c-1.92-1.67-2.9-3.98-2.9-6.86c0-2.55,0.91-4.74,2.7-6.52c1.78-1.78,3.99-2.69,6.57-2.69
			c2.56,0,4.78,0.9,6.59,2.68c1.83,1.78,2.75,3.98,2.75,6.54C184.32,117.96,183.36,120.26,181.46,121.94z"/>
	</g>
</g>
<g id="Layer_7">
</g>
<g id="Layer_8">
</g>
<g id="Layer_9">
</g>
<g id="Layer_10">
</g>
<g id="Layer_11">
</g>
<g id="Layer_12">
</g>
<g id="Layer_13">
</g>
<g id="Layer_14">
</g>
<g id="Layer_15">
</g>
</svg>
