<?xml version="1.0" encoding="utf-8"?>
<!-- Generator: Adobe Illustrator 27.8.1, SVG Export Plug-In . SVG Version: 6.00 Build 0)  -->
<svg version="1.1" xmlns="http://www.w3.org/2000/svg" xmlns:xlink="http://www.w3.org/1999/xlink" x="0px" y="0px"
	 viewBox="0 0 350 230" style="enable-background:new 0 0 350 230;" xml:space="preserve">
<style type="text/css">
	.st0{fill:#ADDAD0;}
	.st1{fill:#8DFFE9;}
	.st2{fill:#76DAC8;}
	.st3{fill:#006432;}
	.st4{fill:#0025FF;}
	.st5{fill:#00FF4E;}
	.st6{fill:#00FF85;}
	.st7{fill:#1E0D63;}
	.st8{fill:#FF4848;}
	.st9{fill:#00997C;}
	.st10{fill:#FF00C9;}
	.st11{fill:#00FF5B;}
	.st12{fill:#020044;}
	.st13{fill:#00FFCE;}
	.st14{fill:#00F3FF;}
	.st15{fill:#004437;}
	.st16{fill:#0019FF;}
	.st17{fill:#0031FF;}
	.st18{fill:#00D6AD;}
	.st19{fill:#9FDDFF;}
	.st20{fill:#720021;}
	.st21{fill:#CE7000;}
	.st22{fill:#205104;}
	.st23{fill:#004787;}
	.st24{fill:#FFFFFF;}
	.st25{fill:#EEB0F7;}
	.st26{fill:#004B96;}
	.st27{fill:#701000;}
	.st28{fill-rule:evenodd;clip-rule:evenodd;fill:#FFFF00;}
	.st29{fill-rule:evenodd;clip-rule:evenodd;fill:#68C7FC;}
	.st30{filter:url(#Adobe_OpacityMaskFilter);}
	.st31{fill-rule:evenodd;clip-rule:evenodd;fill:#FFFFFF;}
	
		.st32{mask:url(#earthglobe-b_00000087385483975625957440000004491752639183121025_);fill-rule:evenodd;clip-rule:evenodd;fill:#033D2B;}
	.st33{fill:#00FCFF;}
	.st34{fill:#003EF9;}
	.st35{fill:#001535;}
	.st36{fill:#003A55;}
</style>
<g id="Layer_1">
</g>
<g id="Layer_2">
</g>
<g id="Layer_3">
</g>
<g id="Layer_4">
</g>
<g id="Layer_5">
</g>
<g id="Layer_6">
</g>
<g id="Layer_7">
	<g>
		<path d="M156.33,82.55l-2.94,10.01l-1.6-5.09l-3.94,0l-1.6,5.09l-2.94-10.01l-3.96,1.17l4.85,16.52l3.95,0.04l1.67-5.31l1.67,5.31
			l3.95-0.04l4.85-16.52L156.33,82.55z M181.51,82.55l-2.94,10.01l-1.6-5.09h-3.94l-1.6,5.09l-2.94-10.01l-3.96,1.17l4.85,16.52
			l3.95,0.04l1.67-5.31l1.67,5.31l3.95-0.04l4.85-16.52L181.51,82.55z M206.7,82.55l-2.94,10.01l-1.6-5.09l-3.94,0l-1.6,5.09
			l-2.94-10.01l-3.96,1.17l4.85,16.52l3.95,0.04l1.67-5.31l1.67,5.31l3.95-0.04l4.85-16.52L206.7,82.55z"/>
		<path class="st14" d="M222.38,76.94c-2.32-7.58-6.44-14.56-12.03-20.23c-9.38-9.59-21.93-14.87-35.35-14.87
			c-13.42,0-25.97,5.28-35.34,14.86c-5.59,5.68-9.72,12.65-12.03,20.24h-2.17v28.9h2.17c2.32,7.58,6.44,14.56,12.03,20.23
			c9.38,9.59,21.93,14.86,35.35,14.86s25.97-5.28,35.34-14.86c5.59-5.68,9.72-12.66,12.03-20.24h2.17v-28.9H222.38z M218.06,76.94
			H201.2c-0.51-3.08-1.18-6.02-1.99-8.79c3.43-1.93,6.65-4.28,9.58-7.04C212.93,65.7,216.09,71.1,218.06,76.94z M205.84,58.15
			c-2.45,2.29-5.11,4.28-7.94,5.94c-2.47-6.78-5.82-12.33-9.74-16.19C194.71,49.88,200.72,53.38,205.84,58.15z M177.06,46.16
			c7.01,1.24,13.3,8.69,17.18,19.86c-5.34,2.51-11.14,3.94-17.18,4.21V46.16z M177.06,74.41c6.46-0.26,12.68-1.76,18.41-4.37
			c0.6,2.19,1.12,4.49,1.54,6.9h-19.95V74.41z M172.94,46.16v24.07c-6.04-0.27-11.84-1.7-17.18-4.21
			C159.64,54.85,165.93,47.4,172.94,46.16z M172.94,74.41v2.53h-19.95c0.42-2.4,0.93-4.7,1.54-6.9
			C160.26,72.65,166.48,74.15,172.94,74.41z M161.84,47.91c-3.91,3.86-7.27,9.41-9.74,16.19c-2.83-1.67-5.49-3.65-7.94-5.94
			C149.28,53.38,155.29,49.88,161.84,47.91z M141.21,61.11c2.94,2.76,6.15,5.11,9.58,7.04c-0.81,2.77-1.47,5.71-1.99,8.79h-16.86
			C133.9,71.1,137.07,65.71,141.21,61.11z M131.94,105.84h16.86c0.51,3.08,1.18,6.02,1.99,8.79c-3.43,1.93-6.65,4.28-9.58,7.04
			C137.07,117.07,133.9,111.68,131.94,105.84z M144.16,124.63c2.45-2.29,5.11-4.28,7.94-5.94c2.47,6.78,5.82,12.33,9.74,16.19
			C155.29,132.9,149.28,129.4,144.16,124.63z M172.94,136.62c-7.01-1.24-13.3-8.69-17.18-19.86c5.34-2.51,11.14-3.94,17.18-4.21
			V136.62z M172.94,108.37c-6.46,0.26-12.68,1.76-18.41,4.37c-0.6-2.19-1.12-4.49-1.54-6.9h19.95V108.37z M177.06,136.62v-24.07
			c6.04,0.27,11.84,1.7,17.18,4.21C190.36,127.92,184.07,135.38,177.06,136.62z M177.06,108.37v-2.53h19.95
			c-0.42,2.4-0.93,4.7-1.54,6.9C189.74,110.13,183.52,108.63,177.06,108.37z M188.16,134.87c3.91-3.86,7.27-9.41,9.74-16.19
			c2.83,1.67,5.49,3.65,7.94,5.94C200.72,129.4,194.71,132.9,188.16,134.87z M208.79,121.67c-2.94-2.76-6.15-5.11-9.58-7.04
			c0.81-2.77,1.47-5.71,1.99-8.79h16.86C216.1,111.67,212.93,117.07,208.79,121.67z M220.42,101.71h-90.84V81.07h90.84V101.71z"/>
	</g>
</g>
<g id="Layer_8">
</g>
<g id="Layer_9">
</g>
<g id="Layer_10">
</g>
<g id="Layer_11">
</g>
<g id="Layer_12">
</g>
<g id="Layer_13">
</g>
<g id="Layer_14">
</g>
<g id="Layer_15">
</g>
</svg>
