<?xml version="1.0" encoding="utf-8"?>
<!-- Generator: Adobe Illustrator 27.8.1, SVG Export Plug-In . SVG Version: 6.00 Build 0)  -->
<svg version="1.1" xmlns="http://www.w3.org/2000/svg" xmlns:xlink="http://www.w3.org/1999/xlink" x="0px" y="0px"
	 viewBox="0 0 350 230" style="enable-background:new 0 0 350 230;" xml:space="preserve">
<style type="text/css">
	.st0{fill:#ADDAD0;}
	.st1{fill:#8DFFE9;}
	.st2{fill:#76DAC8;}
	.st3{fill:#006432;}
	.st4{fill:#0025FF;}
	.st5{fill:#00FF4E;}
	.st6{fill:#00FF85;}
	.st7{fill:#1E0D63;}
	.st8{fill:#FF4848;}
	.st9{fill:#00997C;}
	.st10{fill:#FF00C9;}
	.st11{fill:#00FF5B;}
	.st12{fill:#020044;}
	.st13{fill:#00FFCE;}
	.st14{fill:#00F3FF;}
	.st15{fill:#004437;}
	.st16{fill:#0019FF;}
	.st17{fill:#0031FF;}
	.st18{fill:#00D6AD;}
	.st19{fill:#9FDDFF;}
	.st20{fill:#720021;}
	.st21{fill:#CE7000;}
	.st22{fill:#205104;}
	.st23{fill:#004787;}
	.st24{fill:#FFFFFF;}
	.st25{fill:#EEB0F7;}
	.st26{fill:#004B96;}
	.st27{fill:#701000;}
	.st28{fill-rule:evenodd;clip-rule:evenodd;fill:#FFFF00;}
	.st29{fill-rule:evenodd;clip-rule:evenodd;fill:#68C7FC;}
	.st30{filter:url(#Adobe_OpacityMaskFilter);}
	.st31{fill-rule:evenodd;clip-rule:evenodd;fill:#FFFFFF;}
	
		.st32{mask:url(#earthglobe-b_00000087385483975625957440000004491752639183121025_);fill-rule:evenodd;clip-rule:evenodd;fill:#033D2B;}
	.st33{fill:#00FCFF;}
	.st34{fill:#003EF9;}
	.st35{fill:#001535;}
	.st36{fill:#003A55;}
</style>
<g id="Layer_1">
</g>
<g id="Layer_2">
</g>
<g id="Layer_3">
</g>
<g id="Layer_4">
</g>
<g id="Layer_5">
</g>
<g id="Layer_6">
</g>
<g id="Layer_7">
</g>
<g id="Layer_8">
</g>
<g id="Layer_9">
	<g>
		<path d="M176.84,89.44v3.68h40.45v-3.68H176.84z M132.71,93.12h40.45v-3.68h-40.45V93.12z M176.84,106.41v3.69
			c4.04,0.17,8.06,0.95,11.86,2.33l1.25-3.46C185.75,107.45,181.31,106.59,176.84,106.41z M160.05,108.97l1.25,3.46
			c3.8-1.38,7.82-2.16,11.86-2.33v-3.69C168.69,106.59,164.25,107.45,160.05,108.97z M149.85,114.24c-2.22,1.53-4.35,3.33-6.34,5.36
			l2.63,2.57c1.82-1.86,3.77-3.51,5.8-4.9L149.85,114.24z M200.15,114.24l-2.09,3.03c2.03,1.39,3.98,3.04,5.8,4.9l2.63-2.57
			C204.5,117.57,202.37,115.77,200.15,114.24z M203.86,60.39c-1.82,1.86-3.77,3.51-5.8,4.91l2.09,3.02
			c2.22-1.53,4.35-3.33,6.34-5.35L203.86,60.39z M146.14,60.39l-2.62,2.58c1.98,2.02,4.11,3.82,6.33,5.35l2.09-3.02
			C149.92,63.9,147.97,62.25,146.14,60.39z M188.7,70.14c-3.8,1.37-7.82,2.16-11.86,2.33v3.69c4.5-0.18,8.9-1.05,13.11-2.57
			L188.7,70.14z M161.3,70.14l-1.25,3.45c4.21,1.52,8.61,2.39,13.11,2.57v-3.69C169.12,72.3,165.1,71.51,161.3,70.14z"/>
		<rect x="173.16" y="48.99" width="3.68" height="84.58"/>
		<path class="st17" d="M206.49,60.39c-8.36-8.54-19.54-13.24-31.49-13.24c-11.95,0-23.13,4.7-31.48,13.24
			c-8.15,8.28-12.65,19.25-12.65,30.89c0,11.65,4.49,22.62,12.64,30.89c8.36,8.54,19.54,13.24,31.49,13.24s23.13-4.7,31.48-13.24
			c8.16-8.27,12.65-19.25,12.65-30.89C219.13,79.63,214.64,68.66,206.49,60.39z M203.86,119.6c-7.66,7.83-17.91,12.14-28.86,12.14
			s-21.2-4.31-28.86-12.14c-7.47-7.58-11.59-17.64-11.59-28.31s4.12-20.73,11.59-28.32c7.66-7.83,17.91-12.14,28.86-12.14
			s21.2,4.31,28.86,12.14c0,0,0,0,0.01,0c7.47,7.58,11.59,17.64,11.59,28.31S211.34,112.01,203.86,119.6z M155.62,105.55
			c-0.65,0-1.31,0.09-1.93,0.26c-3.2,0.85-5.43,3.76-5.43,7.09c0,1.34,0.36,2.65,1.06,3.81c1.35,2.22,3.71,3.55,6.3,3.55
			c0.9,0,1.78-0.17,2.57-0.48c2.86-1.06,4.79-3.82,4.79-6.87c0-1.01-0.21-2-0.61-2.94C161.2,107.28,158.55,105.55,155.62,105.55z
			 M156.87,116.34c-1.6,0.64-3.5-0.05-4.4-1.54c-0.35-0.57-0.53-1.23-0.53-1.9c0-1.66,1.11-3.11,2.72-3.54
			c0.31-0.09,0.64-0.13,0.96-0.13c1.47,0,2.79,0.86,3.37,2.2c0.21,0.48,0.31,0.96,0.31,1.48
			C159.3,114.45,158.36,115.79,156.87,116.34z M158.23,62.8c-0.84-0.33-1.71-0.49-2.61-0.49c-2.59,0-4.94,1.33-6.3,3.56
			c-0.69,1.15-1.05,2.46-1.05,3.8c0,3.33,2.23,6.24,5.4,7.08c0.64,0.18,1.3,0.27,1.95,0.27c2.93,0,5.58-1.73,6.74-4.42
			c0.4-0.94,0.61-1.93,0.61-2.94C162.98,66.6,161.05,63.84,158.23,62.8z M158.99,71.13c-0.71,1.63-2.43,2.6-4.35,2.06
			c-1.59-0.42-2.7-1.88-2.7-3.54c0-0.67,0.18-1.33,0.52-1.89c0.68-1.12,1.86-1.78,3.16-1.78c0.44,0,0.85,0.08,1.3,0.25
			c1.45,0.53,2.38,1.88,2.38,3.42C159.3,70.17,159.2,70.65,158.99,71.13z M196.33,105.82c-3.52-0.99-7.27,0.86-8.7,4.15
			c-0.41,0.94-0.61,1.93-0.61,2.94c0,3.06,1.93,5.82,4.75,6.86c0.83,0.33,1.71,0.5,2.61,0.5c2.59,0,4.94-1.33,6.3-3.56
			c0.69-1.15,1.05-2.46,1.05-3.8C201.74,109.58,199.5,106.66,196.33,105.82z M197.54,114.8c-0.91,1.49-2.68,2.23-4.45,1.53
			c-1.45-0.53-2.38-1.88-2.38-3.42c0-0.51,0.1-1,0.31-1.47c0.58-1.34,1.9-2.2,3.37-2.2c0.31,0,0.64,0.05,0.98,0.14
			c1.59,0.42,2.7,1.88,2.7,3.54C198.06,113.57,197.88,114.23,197.54,114.8z M194.38,62.3c-0.89,0-1.77,0.17-2.57,0.48
			c-2.86,1.06-4.79,3.82-4.79,6.87c0,1.01,0.2,2,0.61,2.94c1.16,2.68,3.81,4.42,6.74,4.42c0.65,0,1.31-0.09,1.93-0.26
			c3.2-0.85,5.43-3.76,5.43-7.09c0-1.33-0.36-2.65-1.06-3.81C199.32,63.63,196.97,62.3,194.38,62.3z M195.34,73.2
			c-1.78,0.51-3.62-0.44-4.32-2.07c-0.21-0.48-0.31-0.96-0.31-1.48c0-1.55,0.93-2.89,2.42-3.44c0.41-0.16,0.82-0.24,1.26-0.24
			c1.29,0,2.47,0.67,3.15,1.77c0.35,0.58,0.53,1.24,0.53,1.91C198.06,71.32,196.95,72.77,195.34,73.2z"/>
		<path class="st18" d="M197.63,74.58c-0.11-0.49-0.42-0.92-0.85-1.18s-0.96-0.33-1.44-0.19c-1.78,0.5-3.62-0.45-4.32-2.06
			c-0.21-0.48-0.31-0.97-0.31-1.48c0-1.54,0.94-2.89,2.38-3.42c0.47-0.18,0.86-0.54,1.06-1c0.2-0.47,0.2-0.99-0.01-1.46
			c-4.62-10.56-11.59-16.62-19.14-16.62s-14.52,6.06-19.14,16.62c-0.2,0.47-0.2,0.99-0.01,1.46c0.2,0.47,0.58,0.83,1.06,1
			c1.45,0.53,2.38,1.88,2.38,3.42c0,0.51-0.1,1-0.31,1.47c-0.71,1.62-2.56,2.57-4.33,2.07c-0.49-0.13-1.01-0.07-1.44,0.19
			c-0.43,0.26-0.74,0.69-0.85,1.18c-1.17,5.35-1.77,10.97-1.77,16.7c0,5.74,0.6,11.36,1.77,16.7c0.11,0.49,0.42,0.92,0.85,1.18
			c0.43,0.26,0.96,0.33,1.44,0.19c1.78-0.5,3.62,0.44,4.32,2.06c0.21,0.48,0.31,0.97,0.31,1.48c0,1.54-0.94,2.89-2.38,3.42
			c-0.47,0.18-0.86,0.54-1.06,1c-0.2,0.47-0.2,0.99,0.01,1.46c4.62,10.56,11.59,16.62,19.13,16.62c7.54,0,14.52-6.06,19.14-16.62
			c0.2-0.47,0.2-0.99,0.01-1.46c-0.2-0.47-0.58-0.83-1.06-1c-1.45-0.53-2.38-1.88-2.38-3.42c0-0.51,0.1-1,0.31-1.47
			c0.7-1.62,2.54-2.57,4.32-2.07c0.49,0.14,1.01,0.07,1.44-0.19c0.43-0.26,0.74-0.69,0.85-1.18c1.17-5.35,1.77-10.97,1.77-16.7
			C199.4,85.54,198.8,79.92,197.63,74.58z M194.38,105.55c-2.93,0-5.58,1.73-6.74,4.42c-0.4,0.94-0.61,1.93-0.61,2.94
			c0,2.38,1.17,4.58,3.04,5.94c-3.96,8.22-9.39,12.89-15.06,12.89s-11.11-4.67-15.06-12.89c1.87-1.36,3.04-3.56,3.04-5.94
			c0-1.01-0.21-2-0.61-2.94c-1.17-2.68-3.81-4.41-6.74-4.41c-0.89-4.59-1.34-9.38-1.34-14.27c0-4.88,0.45-9.68,1.34-14.27
			c2.93,0,5.57-1.73,6.74-4.42c0.4-0.94,0.61-1.93,0.61-2.94c0-2.38-1.17-4.58-3.04-5.94c3.96-8.22,9.39-12.89,15.06-12.89
			s11.11,4.67,15.06,12.89c-1.87,1.36-3.04,3.56-3.04,5.94c0,1.01,0.21,2,0.61,2.94c1.16,2.68,3.81,4.41,6.74,4.41
			c0.89,4.59,1.34,9.38,1.34,14.27C195.72,96.16,195.27,100.96,194.38,105.55z"/>
	</g>
</g>
<g id="Layer_10">
</g>
<g id="Layer_11">
</g>
<g id="Layer_12">
</g>
<g id="Layer_13">
</g>
<g id="Layer_14">
</g>
<g id="Layer_15">
</g>
</svg>
