<?xml version="1.0" encoding="utf-8"?>
<!-- Generator: Adobe Illustrator 27.8.1, SVG Export Plug-In . SVG Version: 6.00 Build 0)  -->
<svg version="1.1" xmlns="http://www.w3.org/2000/svg" xmlns:xlink="http://www.w3.org/1999/xlink" x="0px" y="0px"
	 viewBox="0 0 350 230" style="enable-background:new 0 0 350 230;" xml:space="preserve">
<style type="text/css">
	.st0{fill:#ADDAD0;}
	.st1{fill:#8DFFE9;}
	.st2{fill:#76DAC8;}
	.st3{fill:#006432;}
	.st4{fill:#0025FF;}
	.st5{fill:#00FF4E;}
	.st6{fill:#00FF85;}
	.st7{fill:#1E0D63;}
	.st8{fill:#FF4848;}
	.st9{fill:#00997C;}
	.st10{fill:#FF00C9;}
	.st11{fill:#00FF5B;}
	.st12{fill:#020044;}
	.st13{fill:#00FFCE;}
	.st14{fill:#00F3FF;}
	.st15{fill:#004437;}
	.st16{fill:#0019FF;}
	.st17{fill:#0031FF;}
	.st18{fill:#00D6AD;}
	.st19{fill:#9FDDFF;}
	.st20{fill:#720021;}
	.st21{fill:#CE7000;}
	.st22{fill:#205104;}
	.st23{fill:#004787;}
	.st24{fill:#FFFFFF;}
	.st25{fill:#EEB0F7;}
	.st26{fill:#004B96;}
	.st27{fill:#701000;}
	.st28{fill-rule:evenodd;clip-rule:evenodd;fill:#FFFF00;}
	.st29{fill-rule:evenodd;clip-rule:evenodd;fill:#68C7FC;}
	.st30{filter:url(#Adobe_OpacityMaskFilter);}
	.st31{fill-rule:evenodd;clip-rule:evenodd;fill:#FFFFFF;}
	
		.st32{mask:url(#earthglobe-b_00000087385483975625957440000004491752639183121025_);fill-rule:evenodd;clip-rule:evenodd;fill:#033D2B;}
	.st33{fill:#00FCFF;}
	.st34{fill:#003EF9;}
	.st35{fill:#001535;}
	.st36{fill:#003A55;}
</style>
<g id="Layer_1">
</g>
<g id="Layer_2">
</g>
<g id="Layer_3">
</g>
<g id="Layer_4">
</g>
<g id="Layer_5">
</g>
<g id="Layer_6">
</g>
<g id="Layer_7">
</g>
<g id="Layer_8">
</g>
<g id="Layer_9">
</g>
<g id="Layer_10">
	<g>
		<path class="st19" d="M206.28,91.53c0,8.32-3.25,15.89-8.56,21.49c-5.7,6.02-13.77,9.78-22.72,9.78c-8.97,0-17.05-3.77-22.75-9.81
			c-5.29-5.6-8.53-13.15-8.53-21.46s3.24-15.86,8.53-21.46c5.7-6.04,13.78-9.81,22.75-9.81c8.95,0,17.02,3.76,22.72,9.78
			C203.02,75.64,206.28,83.21,206.28,91.53z"/>
		<g>
			<path class="st20" d="M199.23,114.46c5.89-6.22,9.13-14.36,9.13-22.93c0-8.56-3.24-16.71-9.13-22.93
				c-6.37-6.73-14.97-10.43-24.23-10.43c-9.28,0-17.9,3.72-24.27,10.47c-5.86,6.21-9.09,14.34-9.09,22.89s3.23,16.68,9.09,22.89
				c6.37,6.75,14.99,10.47,24.27,10.47C184.26,124.89,192.87,121.19,199.23,114.46z M145.88,93.62h11.45
				c0.15,4.8,0.81,9.29,1.9,13.3c-2.35,0.91-4.57,2.02-6.63,3.33C148.66,105.54,146.32,99.74,145.88,93.62z M152.6,72.82
				c2.06,1.31,4.28,2.42,6.63,3.33c-1.08,4-1.75,8.5-1.9,13.3h-11.45C146.32,83.32,148.66,77.53,152.6,72.82z M204.12,89.45h-11.45
				c-0.15-4.81-0.82-9.31-1.9-13.32c2.34-0.91,4.56-2.03,6.61-3.34C201.33,77.51,203.68,83.31,204.12,89.45z M197.37,110.28
				c-2.05-1.31-4.27-2.43-6.61-3.34c1.08-4.01,1.75-8.51,1.9-13.32h11.45C203.68,99.76,201.33,105.56,197.37,110.28z M177.05,104.09
				V93.62h11.44c-0.14,4.26-0.72,8.33-1.69,12.01C183.67,104.77,180.4,104.25,177.05,104.09z M185.53,109.6
				c-0.41,1.09-0.86,2.13-1.35,3.11c-2.01,4.03-4.53,6.7-7.13,7.63v-12.08C179.96,108.41,182.81,108.86,185.53,109.6z M177.05,89.45
				V78.97c3.35-0.15,6.63-0.67,9.75-1.54c0.97,3.68,1.55,7.75,1.69,12.01L177.05,89.45L177.05,89.45z M177.05,74.8V62.72
				c2.6,0.93,5.11,3.6,7.13,7.63c0.49,0.98,0.94,2.02,1.35,3.11C182.81,74.2,179.96,74.65,177.05,74.8z M172.88,74.8
				c-2.89-0.15-5.72-0.59-8.41-1.32c0.41-1.1,0.86-2.14,1.36-3.13c1.99-3.99,4.48-6.65,7.05-7.61V74.8z M172.88,78.97v10.47h-11.37
				c0.14-4.25,0.72-8.32,1.69-11.99C166.3,78.31,169.55,78.82,172.88,78.97z M172.88,93.62v10.47c-3.32,0.15-6.58,0.67-9.68,1.52
				c-0.97-3.67-1.55-7.74-1.69-11.99L172.88,93.62L172.88,93.62z M172.88,108.27v12.06c-2.57-0.96-5.06-3.61-7.05-7.61
				c-0.49-0.99-0.94-2.04-1.36-3.13C167.16,108.86,169.99,108.41,172.88,108.27z M189.49,110.92c1.72,0.69,3.37,1.49,4.91,2.42
				c-2.72,2.43-5.81,4.3-9.15,5.55C186.9,116.71,188.33,114.02,189.49,110.92z M189.49,72.14c-1.16-3.1-2.59-5.79-4.24-7.97
				c3.34,1.25,6.43,3.12,9.15,5.54C192.86,70.65,191.21,71.46,189.49,72.14z M160.5,72.17c-1.73-0.68-3.38-1.49-4.93-2.42
				c2.72-2.44,5.83-4.32,9.18-5.57C163.1,66.36,161.66,69.06,160.5,72.17z M160.5,110.9c1.16,3.11,2.6,5.81,4.25,7.99
				c-3.35-1.25-6.45-3.13-9.18-5.57C157.12,112.39,158.77,111.58,160.5,110.9z"/>
			<path class="st19" d="M211.98,62.67c-0.71-0.91-2.02-1.07-2.93-0.36c-0.91,0.71-1.07,2.02-0.36,2.93c0.15,0.2,0.31,0.4,0.46,0.6
				c0.41,0.54,1.03,0.83,1.67,0.83c0.44,0,0.88-0.14,1.25-0.42c0.92-0.69,1.1-2,0.41-2.92C212.32,63.11,212.15,62.89,211.98,62.67z
				 M217.5,71.64c-0.49-1.04-1.73-1.49-2.77-1c-1.04,0.49-1.49,1.73-1,2.77c2.67,5.69,4.02,11.79,4.02,18.12
				c0,3.25-0.37,6.5-1.09,9.64c-0.26,1.12,0.44,2.24,1.56,2.5c0.16,0.04,0.32,0.05,0.47,0.05c0.95,0,1.81-0.65,2.03-1.62
				c0.79-3.45,1.2-7.01,1.2-10.58C221.91,84.58,220.43,77.89,217.5,71.64z M147.09,123.91c-0.42-0.36-0.84-0.74-1.25-1.13
				c-0.84-0.79-2.16-0.74-2.95,0.1c-0.79,0.84-0.74,2.16,0.1,2.95c0.45,0.42,0.91,0.84,1.38,1.24c0.39,0.34,0.88,0.51,1.36,0.51
				c0.59,0,1.17-0.25,1.58-0.72C148.06,125.98,147.97,124.66,147.09,123.91z M132.26,91.53c0-3.25,0.37-6.5,1.09-9.64
				c0.26-1.12-0.44-2.24-1.56-2.5c-1.12-0.26-2.24,0.44-2.5,1.56c-0.79,3.45-1.2,7.01-1.2,10.58c0,8.21,2.15,16.3,6.23,23.38
				c0.39,0.67,1.09,1.04,1.81,1.04c0.35,0,0.71-0.09,1.04-0.28c1-0.57,1.34-1.85,0.77-2.85C134.22,106.38,132.26,99.02,132.26,91.53
				z M207.35,120.89l-7.78-0.12c-1.15-0.01-2.1,0.9-2.12,2.05c-0.02,1.15,0.9,2.1,2.05,2.12l2.11,0.03
				c-7.55,6.02-16.88,9.3-26.61,9.3c-5.94,0-11.68-1.19-17.08-3.55c-1.06-0.46-2.28,0.02-2.74,1.08c-0.46,1.06,0.02,2.28,1.08,2.74
				c5.92,2.59,12.23,3.9,18.75,3.9c10.66,0,20.88-3.58,29.15-10.16l-0.38,1.93c-0.22,1.13,0.51,2.23,1.64,2.45
				c0.14,0.03,0.27,0.04,0.4,0.04c0.98,0,1.85-0.69,2.04-1.68l1.5-7.64c0.12-0.61-0.04-1.23-0.43-1.71
				C208.55,121.18,207.97,120.9,207.35,120.89z M150.51,62.43c0.01,0,0.02,0,0.03,0c1.14,0,2.07-0.91,2.08-2.05
				c0.02-1.15-0.9-2.1-2.05-2.12l-2.36-0.04c7.58-6.1,16.97-9.43,26.78-9.43c9.85,0,19.47,3.43,27.08,9.67
				c0.89,0.73,2.2,0.6,2.93-0.29c0.73-0.89,0.6-2.2-0.29-2.93c-8.35-6.84-18.9-10.61-29.72-10.61c-10.61,0-20.77,3.55-29.02,10.06
				l0.33-1.69c0.22-1.13-0.51-2.23-1.64-2.45c-1.13-0.22-2.23,0.51-2.45,1.64l-1.5,7.64c-0.12,0.61,0.04,1.23,0.43,1.71
				c0.39,0.48,0.97,0.76,1.59,0.77L150.51,62.43z"/>
		</g>
	</g>
</g>
<g id="Layer_11">
</g>
<g id="Layer_12">
</g>
<g id="Layer_13">
</g>
<g id="Layer_14">
</g>
<g id="Layer_15">
</g>
</svg>
