<?xml version="1.0" encoding="utf-8"?>
<!-- Generator: Adobe Illustrator 27.8.1, SVG Export Plug-In . SVG Version: 6.00 Build 0)  -->
<svg version="1.1" xmlns="http://www.w3.org/2000/svg" xmlns:xlink="http://www.w3.org/1999/xlink" x="0px" y="0px"
	 viewBox="0 0 350 230" style="enable-background:new 0 0 350 230;" xml:space="preserve">
<style type="text/css">
	.st0{fill:#00A3F4;}
	.st1{fill:#460048;}
	.st2{fill:#00DBFF;}
	.st3{fill:#0B5F78;}
	.st4{fill:#BF0080;}
	.st5{fill:#FF1400;}
	.st6{fill:#008DFF;}
	.st7{fill:#C900FF;}
	.st8{fill:#FB9824;}
	.st9{fill:#600463;}
	.st10{fill:#62FF00;}
	.st11{fill:#005FFF;}
	.st12{fill:#FFCE00;}
	.st13{fill:#A58DF3;}
	.st14{fill:#F383FF;}
	.st15{fill:#FF9269;}
	.st16{fill:#32897F;}
</style>
<g id="Layer_1">
	<path class="st0" d="M69.63,76.5c-0.07,0.19-0.1,0.39-0.1,0.6c0,0.22,0.04,0.44,0.11,0.63L69.63,76.5z M69.53,152.9
		c0,0.21,0.03,0.42,0.1,0.61l0.01-1.25C69.57,152.46,69.53,152.67,69.53,152.9z M84.56,88.05c-0.57,0-1.11-0.11-1.61-0.32v16.4
		H65.84c-0.86,0-1.55,0.7-1.55,1.55c0,0.86,0.69,1.55,1.55,1.55H84.5c0.86,0,1.55-0.69,1.55-1.55V87.77
		C85.59,87.95,85.08,88.05,84.56,88.05z M104.13,105.22c-0.46,0.17-0.96,0.27-1.48,0.27c-0.55,0-1.08-0.11-1.56-0.3
		c-0.02,0.1-0.04,0.21-0.04,0.32v5.8H60.14c-0.86,0-1.55,0.7-1.55,1.55s0.7,1.55,1.55,1.55h42.46c0.86,0,1.55-0.7,1.55-1.55v-7.36
		C104.15,105.42,104.15,105.32,104.13,105.22z M100.76,118.51H59.3c-0.86,0-1.55,0.7-1.55,1.55c0,0.86,0.7,1.55,1.55,1.55h41.34
		c-0.16-0.44-0.24-0.91-0.24-1.41C100.4,119.6,100.53,119.02,100.76,118.51z M91.91,137.44c0-0.46,0.08-0.9,0.21-1.32H88.1v-8.57
		c0-0.86-0.7-1.55-1.55-1.55H65.42c-0.86,0-1.55,0.7-1.55,1.55s0.7,1.55,1.55,1.55H85v8.57c0,0.86,0.7,1.55,1.55,1.55h5.76
		C92.05,138.68,91.91,138.08,91.91,137.44z M69.53,152.9c0,0.21,0.03,0.42,0.1,0.61l0.01-1.25
		C69.57,152.46,69.53,152.67,69.53,152.9z M71.42,152.56c-0.19,0-0.34,0.16-0.34,0.34c0,0.19,0.16,0.35,0.34,0.35
		c0.19,0,0.35-0.16,0.35-0.35C71.77,152.71,71.62,152.56,71.42,152.56z M69.53,152.9c0,0.21,0.03,0.42,0.1,0.61l0.01-1.25
		C69.57,152.46,69.53,152.67,69.53,152.9z M71.42,152.56c-0.19,0-0.34,0.16-0.34,0.34c0,0.19,0.16,0.35,0.34,0.35
		c0.19,0,0.35-0.16,0.35-0.35C71.77,152.71,71.62,152.56,71.42,152.56z M71.42,152.56c-0.19,0-0.34,0.16-0.34,0.34
		c0,0.19,0.16,0.35,0.34,0.35c0.19,0,0.35-0.16,0.35-0.35C71.77,152.71,71.62,152.56,71.42,152.56z M71.42,152.56
		c-0.19,0-0.34,0.16-0.34,0.34c0,0.19,0.16,0.35,0.34,0.35c0.19,0,0.35-0.16,0.35-0.35C71.77,152.71,71.62,152.56,71.42,152.56z
		 M71.42,149.46c-1.4,0-2.61,0.84-3.14,2.04c0.46,0.02,0.91,0.04,1.37,0.04l-0.01,0.71c0.26-0.73,0.96-1.25,1.78-1.25
		c1.05,0,1.9,0.85,1.9,1.89c0,1.05-0.85,1.9-1.9,1.9c-0.84,0-1.54-0.54-1.79-1.29l-0.01,1.14c-0.39,0-0.79-0.01-1.18-0.03
		c0.59,1.04,1.71,1.74,2.99,1.74c1.9,0,3.45-1.55,3.45-3.45C74.87,151,73.33,149.46,71.42,149.46z M71.77,152.9
		c0-0.19-0.16-0.34-0.35-0.34c-0.19,0-0.34,0.16-0.34,0.34c0,0.19,0.16,0.35,0.34,0.35C71.62,153.25,71.77,153.09,71.77,152.9z
		 M71.42,152.56c-0.19,0-0.34,0.16-0.34,0.34c0,0.19,0.16,0.35,0.34,0.35c0.19,0,0.35-0.16,0.35-0.35
		C71.77,152.71,71.62,152.56,71.42,152.56z M71.42,152.56c-0.19,0-0.34,0.16-0.34,0.34c0,0.19,0.16,0.35,0.34,0.35
		c0.19,0,0.35-0.16,0.35-0.35C71.77,152.71,71.62,152.56,71.42,152.56z M71.42,152.56c-0.19,0-0.34,0.16-0.34,0.34
		c0,0.19,0.16,0.35,0.34,0.35c0.19,0,0.35-0.16,0.35-0.35C71.77,152.71,71.62,152.56,71.42,152.56z M71.42,76.75
		c-0.19,0-0.34,0.16-0.34,0.35c0,0.19,0.16,0.34,0.34,0.34c0.19,0,0.35-0.16,0.35-0.34C71.77,76.91,71.62,76.75,71.42,76.75z
		 M69.63,76.5c-0.07,0.19-0.1,0.39-0.1,0.6c0,0.22,0.04,0.44,0.11,0.63L69.63,76.5z M69.63,76.5c-0.07,0.19-0.1,0.39-0.1,0.6
		c0,0.22,0.04,0.44,0.11,0.63L69.63,76.5z M71.42,76.75c-0.19,0-0.34,0.16-0.34,0.35c0,0.19,0.16,0.34,0.34,0.34
		c0.19,0,0.35-0.16,0.35-0.34C71.77,76.91,71.62,76.75,71.42,76.75z M69.63,76.5c-0.07,0.19-0.1,0.39-0.1,0.6
		c0,0.22,0.04,0.44,0.11,0.63L69.63,76.5z M71.42,76.75c-0.19,0-0.34,0.16-0.34,0.35c0,0.19,0.16,0.34,0.34,0.34
		c0.19,0,0.35-0.16,0.35-0.34C71.77,76.91,71.62,76.75,71.42,76.75z M71.42,73.65c-1.41,0-2.61,0.85-3.15,2.05
		c0.45-0.02,0.89-0.04,1.34-0.04l0.01,0.84c0.25-0.75,0.96-1.3,1.8-1.3c1.05,0,1.9,0.85,1.9,1.9c0,1.05-0.85,1.89-1.9,1.89
		c-0.83,0-1.52-0.53-1.78-1.26l0.01,1.03c-0.41,0-0.81,0.01-1.22,0.04c0.59,1.04,1.71,1.74,2.99,1.74c1.9,0,3.45-1.55,3.45-3.45
		C74.87,75.2,73.33,73.65,71.42,73.65z M71.42,77.44c0.19,0,0.35-0.16,0.35-0.34c0-0.19-0.16-0.35-0.35-0.35
		c-0.19,0-0.34,0.16-0.34,0.35C71.08,77.29,71.24,77.44,71.42,77.44z M69.53,77.1c0,0.22,0.04,0.44,0.11,0.63l-0.01-1.24
		C69.56,76.69,69.53,76.89,69.53,77.1z M71.42,76.75c-0.19,0-0.34,0.16-0.34,0.35c0,0.19,0.16,0.34,0.34,0.34
		c0.19,0,0.35-0.16,0.35-0.34C71.77,76.91,71.62,76.75,71.42,76.75z M69.63,76.5c-0.07,0.19-0.1,0.39-0.1,0.6
		c0,0.22,0.04,0.44,0.11,0.63L69.63,76.5z M71.42,76.75c-0.19,0-0.34,0.16-0.34,0.35c0,0.19,0.16,0.34,0.34,0.34
		c0.19,0,0.35-0.16,0.35-0.34C71.77,76.91,71.62,76.75,71.42,76.75z M69.63,76.5c-0.07,0.19-0.1,0.39-0.1,0.6
		c0,0.22,0.04,0.44,0.11,0.63L69.63,76.5z M71.42,76.75c-0.19,0-0.34,0.16-0.34,0.35c0,0.19,0.16,0.34,0.34,0.34
		c0.19,0,0.35-0.16,0.35-0.34C71.77,76.91,71.62,76.75,71.42,76.75z M62.32,81.4c-0.86,0-1.55,0.7-1.55,1.55v5.07
		c0,0.86,0.7,1.55,1.55,1.55c0.86,0,1.55-0.69,1.55-1.55v-5.07C63.87,82.1,63.17,81.4,62.32,81.4z M66.71,81.4
		c-0.86,0-1.55,0.7-1.55,1.55v7.4c0,0.86,0.7,1.55,1.55,1.55c0.86,0,1.55-0.7,1.55-1.55v-7.4C68.26,82.1,67.57,81.4,66.71,81.4z
		 M71.32,81.4c-0.86,0-1.55,0.7-1.55,1.55v11.37c0,0.86,0.7,1.55,1.55,1.55s1.55-0.69,1.55-1.55V82.96
		C72.87,82.1,72.18,81.4,71.32,81.4z M68.51,138h-7.37c-0.86,0-1.55,0.69-1.55,1.55c0,0.86,0.7,1.55,1.55,1.55h7.37
		c0.86,0,1.55-0.7,1.55-1.55C70.06,138.69,69.37,138,68.51,138z M72.2,142.12h-6.15c-0.86,0-1.55,0.69-1.55,1.55
		c0,0.86,0.7,1.55,1.55,1.55h6.15c0.86,0,1.55-0.7,1.55-1.55C73.76,142.81,73.06,142.12,72.2,142.12z M68.07,146.24h-6.15
		c-0.86,0-1.55,0.7-1.55,1.55s0.7,1.55,1.55,1.55h6.15c0.86,0,1.55-0.7,1.55-1.55S68.93,146.24,68.07,146.24z M84.56,79.6
		c-2.33,0-4.23,1.89-4.23,4.23c0,1.76,1.09,3.27,2.62,3.91v-0.07c0-0.86,0.69-1.55,1.55-1.55c0.86,0,1.55,0.7,1.55,1.55v0.11
		c1.59-0.6,2.73-2.15,2.73-3.95C88.78,81.49,86.89,79.6,84.56,79.6z M84.56,85.36c-0.85,0-1.54-0.69-1.54-1.54s0.69-1.54,1.54-1.54
		s1.54,0.69,1.54,1.54S85.41,85.36,84.56,85.36z M102.65,97.05c-2.33,0-4.22,1.89-4.22,4.22c0,1.78,1.1,3.3,2.66,3.92
		c0.15-0.7,0.77-1.23,1.51-1.23c0.76,0,1.39,0.54,1.52,1.26c1.6-0.6,2.75-2.14,2.75-3.96C106.88,98.94,104.98,97.05,102.65,97.05z
		 M102.65,102.81c-0.85,0-1.54-0.69-1.54-1.54s0.69-1.54,1.54-1.54c0.85,0,1.54,0.69,1.54,1.54S103.5,102.81,102.65,102.81z
		 M104.62,115.98c-1.72,0-3.21,1.04-3.87,2.53h0.7c0.86,0,1.55,0.7,1.55,1.55c0,0.86-0.7,1.55-1.55,1.55h-0.81
		c0.57,1.64,2.14,2.82,3.98,2.82c2.33,0,4.22-1.89,4.22-4.23C108.85,117.88,106.95,115.98,104.62,115.98z M104.62,121.74
		c-0.85,0-1.54-0.69-1.54-1.54s0.69-1.54,1.54-1.54c0.85,0,1.54,0.69,1.54,1.54S105.48,121.74,104.62,121.74z M96.14,133.21
		c-1.87,0-3.46,1.22-4.01,2.91h0.77c0.86,0,1.55,0.7,1.55,1.55c0,0.86-0.7,1.55-1.55,1.55h-0.58c0.67,1.44,2.13,2.44,3.83,2.44
		c2.33,0,4.23-1.89,4.23-4.23C100.36,135.11,98.46,133.21,96.14,133.21z M96.14,138.98c-0.85,0-1.54-0.69-1.54-1.54
		c0-0.85,0.69-1.54,1.54-1.54c0.85,0,1.54,0.69,1.54,1.54C97.68,138.29,96.99,138.98,96.14,138.98z M71.88,133.57
		c-1.06-0.63-2.34-0.72-3.59-0.83c-0.94-0.08-1.92-0.15-2.74-0.45c-2.15-0.78-3.76-2.78-5.17-4.54c-1.49-1.85-2.77-3.43-4.61-3.37
		c-2.44,0.09-3.34,2.53-4.06,4.5c-0.38,1.02-0.77,2.08-1.26,2.65c-0.47,0.54-1.1,0.99-1.84,1.5c-1.54,1.08-3.45,2.42-4.69,5.35
		c-0.22,0.53-0.37,1.05-0.45,1.55c0.05,0.05,0.09,0.1,0.14,0.15c-0.05-0.04-0.1-0.08-0.15-0.11c0-0.01,0-0.02,0-0.03
		c-6.09-6.51-9.82-15.25-9.82-24.79c0-1.68,0.12-3.33,0.34-4.95c0.21,0.07,0.41,0.12,0.62,0.18c2.09,0.6,2.9,0.94,3.11,2.15
		c0.55,3.15,5.29,9.37,10.12,11.06c0.88,0.31,1.68,0.44,2.39,0.44c1.63,0,2.8-0.67,3.58-1.36c2.3-2.03,0.05-5.14-2.12-8.15
		c-0.87-1.2-2.45-3.39-2.52-4.22c0.03-0.01,0.07-0.03,0.11-0.04c1.49-0.48,2.33-0.43,3.06-0.38c2.14,0.14,3.22-0.38,5.37-3.74
		c1.4-2.19,4.31-2.84,6.87-3.41c2.51-0.57,5.37-1.21,5.37-3.87c0-1.96-1.39-4.07-3.62-5.51c-2.56-1.65-5.49-2-7.85-0.93
		c-1.55,0.7-2.56,0.35-2.83,0.23c-0.32-0.15-0.42-0.31-0.43-0.31c0-0.03,0.08-0.17,0.32-0.35c1.93-1.45,4.07-4.65,3.07-6.9
		c-0.37-0.82-1.41-2.11-4.31-1.54c-0.85,0.17-1.72,0.24-2.58,0.22c4.96-2.92,10.66-4.7,16.75-4.96c-0.29-0.5-0.46-1.08-0.46-1.7
		c0-0.5,0.1-0.97,0.3-1.4c-9.96,0.43-19.26,4.54-26.31,11.66c-7.37,7.44-11.43,17.31-11.43,27.79s4.06,20.35,11.43,27.79
		c1.25,1.26,2.57,2.43,3.95,3.49c-0.12-0.11-0.23-0.23-0.35-0.35c0.48,0.39,1.02,0.81,1.16,0.95l0.12,0.1
		c6.27,4.57,13.72,7.17,21.59,7.48c-0.29-0.5-0.46-1.09-0.46-1.71c0-0.5,0.11-0.97,0.3-1.4c-7.57-0.36-14.55-3.06-20.23-7.4
		c0.28,0.28,0.39,0.41,0.28,0.32c-0.01,0-0.27-0.21-0.6-0.56c0.11,0.08,0.21,0.16,0.32,0.24c-0.16-0.16-0.36-0.35-0.61-0.59
		c-0.67-0.86-1.37-2.27-0.68-3.91c0.89-2.11,2.22-3.04,3.61-4.02c0.83-0.58,1.68-1.18,2.4-2.01c0.87-1,1.36-2.33,1.83-3.61
		c0.27-0.73,0.91-2.46,1.22-2.48c0.43,0.11,1.45,1.38,2.13,2.23c1.58,1.97,3.56,4.43,6.53,5.5c1.21,0.44,2.46,0.55,3.56,0.63
		c0.89,0.08,1.81,0.15,2.26,0.4c0.74,0.44,1.69,0.19,2.12-0.55C72.86,134.96,72.61,134.01,71.88,133.57z M47.99,86.26
		c2.1,0.68,4.56,0.8,6.89,0.33c0.42-0.08,0.69-0.09,0.85-0.08c-0.08,0.64-0.86,2.08-2.08,2.99c-1.79,1.33-1.85,3.18-1.12,4.4
		c1.04,1.76,3.92,2.83,7.21,1.34c1.64-0.74,3.6-0.12,4.89,0.71c1.26,0.81,2.15,1.97,2.19,2.84c-0.38,0.33-1.91,0.67-2.94,0.91
		c-2.83,0.63-6.71,1.51-8.8,4.77c-1.52,2.38-1.74,2.36-2.56,2.31c-0.86-0.06-2.16-0.14-4.22,0.53c-1.36,0.44-1.89,1.3-2.1,1.94
		c-0.67,2.05,1.01,4.38,2.96,7.08c0.9,1.25,2.39,3.31,2.47,4.11c-0.48,0.38-1.28,0.75-2.77,0.22c-3.77-1.33-7.74-6.62-8.09-8.66
		c-0.55-3.23-3.3-4.02-5.31-4.6c-0.31-0.09-0.62-0.18-0.91-0.27C36.46,98.71,41.32,91.36,47.99,86.26z M48.33,144.42
		c-0.01,0-0.27-0.21-0.6-0.56c0.11,0.08,0.21,0.16,0.32,0.24C48.33,144.37,48.45,144.51,48.33,144.42z"/>
</g>
<g id="Layer_2">
</g>
<g id="Layer_3">
</g>
<g id="Layer_4">
</g>
<g id="Layer_5">
</g>
<g id="Layer_6">
</g>
<g id="Layer_7">
</g>
<g id="Layer_8">
</g>
<g id="Layer_9">
</g>
<g id="Layer_10">
</g>
<g id="Layer_11">
</g>
<g id="Layer_12">
</g>
<g id="Layer_13">
</g>
<g id="Layer_14">
</g>
<g id="Layer_15">
</g>
</svg>
