<?xml version="1.0" encoding="utf-8"?>
<!-- Generator: Adobe Illustrator 27.8.1, SVG Export Plug-In . SVG Version: 6.00 Build 0)  -->
<svg version="1.1" xmlns="http://www.w3.org/2000/svg" xmlns:xlink="http://www.w3.org/1999/xlink" x="0px" y="0px"
	 viewBox="0 0 350 230" style="enable-background:new 0 0 350 230;" xml:space="preserve">
<style type="text/css">
	.st0{fill:#00A3F4;}
	.st1{fill:#460048;}
	.st2{fill:#00DBFF;}
	.st3{fill:#0B5F78;}
	.st4{fill:#BF0080;}
	.st5{fill:#FF1400;}
	.st6{fill:#008DFF;}
	.st7{fill:#C900FF;}
	.st8{fill:#FB9824;}
	.st9{fill:#600463;}
	.st10{fill:#62FF00;}
	.st11{fill:#005FFF;}
	.st12{fill:#FFCE00;}
	.st13{fill:#A58DF3;}
	.st14{fill:#F383FF;}
	.st15{fill:#FF9269;}
	.st16{fill:#32897F;}
</style>
<g id="Layer_1">
</g>
<g id="Layer_2">
</g>
<g id="Layer_3">
</g>
<g id="Layer_4">
</g>
<g id="Layer_5">
</g>
<g id="Layer_6">
</g>
<g id="Layer_7">
</g>
<g id="Layer_8">
</g>
<g id="Layer_9">
</g>
<g id="Layer_10">
</g>
<g id="Layer_11">
	<path class="st13" d="M166.54,106.91c-2.11,0-4.18,0-6.25,0c-0.38,0-0.81,0.11-1.13-0.03c-0.53-0.22-1.22-0.49-1.42-0.93
		c-0.18-0.39,0.06-1.19,0.39-1.55c1.4-1.53,2.91-2.96,4.38-4.43c1.44-1.44,2.88-2.9,4.33-4.33c0.94-0.93,1.62-0.92,2.57,0.02
		c0.86,0.85,1.72,1.71,2.57,2.57c0.86,0.88,0.99,1.71,0.37,2.35c-0.68,0.7-1.45,0.59-2.41-0.38c-0.58-0.59-1.12-1.21-1.63-1.78
		c-1.94,1.95-3.73,3.75-5.63,5.67c1.56,0,3.05,0,4.55,0c1.9,0,2.22,0.32,2.22,2.25c0,3.53,0.01,7.06,0,10.6
		c-0.01,4.39-2.75,7.15-7.13,7.15c-9.04,0.01-18.08,0.02-27.11,0c-15-0.04-27.29-10.84-29.27-25.69
		c-1.82-13.62,6.43-26.8,19.66-31.38c0.59-0.2,0.96-0.41,1.1-1.14c2.24-12.45,14.93-19.37,26.58-14.51
		c0.63,0.26,1.01,0.23,1.55-0.22c12.74-10.77,31.56-9.24,42.37,3.45c0.41,0.48,0.75,0.73,1.46,0.65c1.9-0.21,3.66,0.98,4.31,2.76
		c0.67,1.83,0.04,3.85-1.54,4.98c-1.5,1.07-3.69,1-5.13-0.16c-1.48-1.19-2.06-3.25-1.24-4.96c0.38-0.78,0.21-1.21-0.31-1.79
		c-9.5-10.77-25.7-12.39-36.97-3.68c-0.32,0.25-0.63,0.52-0.95,0.78c0.47,0.7,0.96,0.83,1.72,0.56c2.5-0.87,5.17,0.13,6.49,2.35
		c1.31,2.22,0.9,5.12-0.99,6.85c-1.88,1.73-4.84,1.92-6.91,0.45c-2.1-1.49-2.88-4.22-1.83-6.66c0.26-0.6,0.19-0.89-0.34-1.26
		c-9.21-6.5-22.69-1.38-25.23,9.61c-0.05,0.23-0.07,0.46-0.12,0.79c1.12-0.12,2.17-0.26,3.23-0.33c9.72-0.59,17.83,2.75,24.36,9.97
		c0.27,0.3,0.79,0.51,1.19,0.5c1.91-0.04,3.68,1.1,4.29,2.85c0.64,1.85-0.01,3.87-1.61,4.96c-1.59,1.09-3.77,0.97-5.2-0.28
		c-1.47-1.28-1.93-3.34-1.03-5.1c0.32-0.63,0.27-1-0.2-1.52c-7.44-8.26-19.39-10.94-29.76-6.63c-10.3,4.27-16.91,14.73-16.3,25.78
		c0.78,14.07,12.29,25.08,26.39,25.16c9.14,0.05,18.28,0.02,27.43,0.01c2.66,0,4.22-1.52,4.26-4.16c0.04-3.08,0.01-6.16,0.01-9.25
		C166.63,107.57,166.58,107.3,166.54,106.91z M162.82,58.85c-0.02-1.4-1.21-2.53-2.62-2.49c-1.37,0.04-2.46,1.17-2.46,2.55
		c0,1.41,1.15,2.56,2.57,2.54C161.71,61.44,162.84,60.27,162.82,58.85z M183.51,138.35c2.36,0,4.64,0.01,6.93,0
		c0.8,0,1.55,0.04,1.9,0.92c0.33,0.83-0.15,1.36-0.69,1.9c-2.92,2.91-5.83,5.83-8.74,8.74c-1.03,1.03-1.68,1.03-2.71,0
		c-1.37-1.37-2.74-2.74-4.11-4.12c-0.79-0.8-0.87-1.65-0.23-2.26c0.62-0.59,1.43-0.52,2.2,0.23c1.15,1.1,2.28,2.22,3.41,3.33
		c0.02,0.02,0.06,0.02,0.07,0.02c1.91-1.92,3.8-3.83,5.77-5.82c-0.25-0.03-0.5-0.09-0.74-0.09c-1.49-0.01-2.98,0-4.47-0.01
		c-0.96-0.01-1.51-0.52-1.51-1.48c-0.01-4.16-0.08-8.31,0.05-12.46c0.1-3.36,3.05-5.98,6.52-5.99c5.75-0.02,11.5-0.01,17.25-0.01
		c6.13,0,12.26,0.09,18.39-0.02c7.41-0.13,13.09-3.47,16.53-10.02c3.41-6.49,3.03-13.06-1.16-19.08c-4.46-6.4-10.79-8.92-18.53-7.84
		c-0.74,0.1-1.18,0.32-1.34,1.21c-0.34,1.94-1.98,3.26-3.85,3.34c-2,0.09-3.67-0.99-4.31-2.77c-0.64-1.8-0.04-3.79,1.49-4.91
		c1.56-1.14,3.7-1.14,5.2,0.14c0.55,0.47,1.02,0.46,1.68,0.38c2.22-0.27,4.45-0.42,6.81-0.63c-2.17-5.98-6.27-10.09-12.48-12
		c-6.78-2.09-14.62,0.16-18.97,5.38c0.14,0.24,0.29,0.49,0.44,0.75c1.34,2.28,0.97,5.06-0.92,6.85c-1.85,1.75-4.67,1.99-6.81,0.58
		c-2.12-1.4-3-4.1-2.1-6.5c0.89-2.4,3.27-3.87,5.85-3.48c0.87,0.13,1.35-0.1,1.94-0.7c11.44-11.7,31.16-6.86,35.85,8.8
		c0.27,0.91,0.71,1.31,1.59,1.6c9.73,3.22,15.79,13.01,14.4,23.18c-1.37,10.1-9.69,17.86-19.87,18.46c-2.62,0.15-5.26,0.1-7.89,0.1
		c-9.59,0.01-19.19,0-28.78,0c-2.54,0-4.12,1.38-4.18,3.88c-0.08,3.29-0.02,6.58-0.02,9.87
		C183.41,137.96,183.46,138.09,183.51,138.35z M189.7,80.57c1.41-0.02,2.55-1.21,2.51-2.61c-0.05-1.37-1.17-2.46-2.56-2.46
		c-1.41,0-2.59,1.17-2.57,2.56C187.1,79.46,188.28,80.59,189.7,80.57z"/>
</g>
<g id="Layer_12">
</g>
<g id="Layer_13">
</g>
<g id="Layer_14">
</g>
<g id="Layer_15">
</g>
</svg>
