<?xml version="1.0" encoding="utf-8"?>
<!-- Generator: Adobe Illustrator 27.8.1, SVG Export Plug-In . SVG Version: 6.00 Build 0)  -->
<svg version="1.1" xmlns="http://www.w3.org/2000/svg" xmlns:xlink="http://www.w3.org/1999/xlink" x="0px" y="0px"
	 viewBox="0 0 350 230" style="enable-background:new 0 0 350 230;" xml:space="preserve">
<style type="text/css">
	.st0{fill:#00A3F4;}
	.st1{fill:#460048;}
	.st2{fill:#00DBFF;}
	.st3{fill:#0B5F78;}
	.st4{fill:#BF0080;}
	.st5{fill:#FF1400;}
	.st6{fill:#008DFF;}
	.st7{fill:#C900FF;}
	.st8{fill:#FB9824;}
	.st9{fill:#600463;}
	.st10{fill:#62FF00;}
	.st11{fill:#005FFF;}
	.st12{fill:#FFCE00;}
	.st13{fill:#A58DF3;}
	.st14{fill:#F383FF;}
	.st15{fill:#FF9269;}
	.st16{fill:#32897F;}
</style>
<g id="Layer_1">
</g>
<g id="Layer_2">
</g>
<g id="Layer_3">
</g>
<g id="Layer_4">
</g>
<g id="Layer_5">
</g>
<g id="Layer_6">
</g>
<g id="Layer_7">
</g>
<g id="Layer_8">
</g>
<g id="Layer_9">
</g>
<g id="Layer_10">
</g>
<g id="Layer_11">
</g>
<g id="Layer_12">
	<path class="st14" d="M198.62,97.01c-3.66,3.6-7.08,6.88-10.38,10.28c-0.65,0.67-1.15,1.81-1.16,2.75
		c-0.09,7.36-0.04,14.73-0.07,22.09c0,0.96,0.19,1.6,1.1,2.18c2.37,1.53,2.78,5.04,0.98,7.21c-1.7,2.05-5.26,2.17-7.17,0.26
		c-2-2-1.89-5.53,0.43-7.23c1.12-0.82,1.4-1.66,1.39-2.94c-0.05-7.72-0.06-15.44,0.03-23.16c0.01-0.93,0.52-2.05,1.17-2.74
		c2.72-2.9,5.57-5.67,8.55-8.65c-2.71-2.69-5.34-5.4-8.09-7.98c-1.21-1.14-1.75-2.3-1.73-4.01c0.1-7.6,0.03-15.2,0.06-22.8
		c0-1.09-0.22-1.8-1.22-2.47c-1.82-1.2-2.42-3.55-1.71-5.55c0.67-1.87,2.69-3.28,4.68-3.26c1.91,0.02,3.9,1.47,4.49,3.26
		c0.71,2.14-0.05,4.33-1.79,5.73c-0.54,0.44-1.07,1.26-1.08,1.92c-0.07,7.54-0.08,15.08,0,22.62c0.01,0.76,0.48,1.7,1.04,2.25
		C191.52,90.19,194.99,93.5,198.62,97.01z M185.42,140.43c1.33-0.2,2.13-0.95,2.06-2.25c-0.06-1.19-0.85-1.98-2.09-1.97
		c-1.32,0.01-2.11,0.81-2.12,2.12C183.27,139.68,184.18,140.28,185.42,140.43z M185.39,53.77c-1.22,0.22-2.3,0.9-2.05,2.15
		c0.16,0.81,1.14,1.86,1.93,2.05c1.21,0.29,2.14-0.69,2.21-1.96C187.56,54.69,186.62,54.05,185.39,53.77z M151.57,97.11
		c3.53-3.51,6.96-6.87,10.3-10.32c0.58-0.6,1.04-1.61,1.04-2.44c0.08-7.42,0.03-14.84,0.06-22.27c0-0.95-0.17-1.59-1.09-2.16
		c-1.91-1.19-2.56-3.49-1.85-5.66c0.59-1.81,2.44-3.14,4.5-3.24c1.93-0.09,4.03,1.35,4.68,3.23c0.71,2.04,0.13,4.35-1.71,5.55
		c-1.09,0.71-1.26,1.5-1.26,2.64c0.04,7.78,0.06,15.56-0.03,23.34c-0.01,0.93-0.52,2.06-1.16,2.74c-2.72,2.89-5.59,5.65-8.58,8.64
		c2.83,2.81,5.57,5.59,8.39,8.27c1.03,0.97,1.46,1.96,1.44,3.4c-0.08,7.66-0.02,15.32-0.06,22.98c0,1.13,0.19,1.94,1.26,2.65
		c1.85,1.23,2.4,3.44,1.68,5.54c-0.64,1.87-2.69,3.27-4.69,3.2c-2.04-0.07-3.9-1.42-4.48-3.24c-0.68-2.15-0.01-4.49,1.87-5.66
		c0.94-0.58,1.09-1.24,1.08-2.19c-0.02-7.48,0.01-14.96-0.07-22.45c-0.01-0.77-0.48-1.7-1.04-2.26
		C158.53,103.97,155.1,100.61,151.57,97.11z M166.84,55.29c-0.64-0.41-1.52-1.43-2.32-1.37c-0.73,0.06-1.79,1.2-1.94,2.01
		c-0.23,1.22,0.79,2.11,2.07,2.1C165.93,58.03,166.63,57.16,166.84,55.29z M164.46,136.15c-1.08,0.26-2,0.85-1.95,2.21
		c0.04,1.22,0.81,2.01,2.04,2.03c1.3,0.02,2.16-0.73,2.17-2.06C166.74,137.01,165.9,136.33,164.46,136.15z M164.94,96.92
		c3.44,3.42,6.9,6.86,10.1,10.04c3.28-3.23,6.72-6.61,9.98-9.82c-3.29-3.34-6.65-6.75-10.06-10.21
		C171.5,90.37,168.11,93.76,164.94,96.92z M138.3,96.95c7.25,7.24,14.52,14.51,21.73,21.71c0.34-2.3,0.29-4.53-2.05-6.38
		c-2.22-1.76-4.07-3.98-6.09-5.99c-3.02-3.01-6.04-6.03-9.15-9.12c0.5-0.53,0.89-0.96,1.3-1.37c4.61-4.62,9.1-9.37,13.9-13.79
		c2.15-1.98,2.5-4.06,2.04-6.61C152.64,82.7,145.34,89.96,138.3,96.95z M192.25,82.09c2.82,2.81,5.61,5.64,8.46,8.41
		c2.2,2.14,4.46,4.21,6.83,6.44c-5.66,5.63-10.97,10.89-16.27,16.17c-1.54,1.54-1.92,3.69-1.18,5.49
		c7.18-7.16,14.47-14.43,21.6-21.55c-7.13-7.14-14.38-14.4-21.7-21.73C189.55,79.4,189.55,79.4,192.25,82.09z M176.71,80.22
		c-1.21,0-2.21,0-3.42,0c0-0.7,0-1.33,0-1.97c0-9.38,0-18.77,0.03-28.15c0-1.07-0.22-1.8-1.2-2.49c-2.38-1.68-2.63-5.12-0.68-7.21
		c1.92-2.07,5.21-2.07,7.15,0c1.93,2.06,1.68,5.54-0.7,7.22c-0.99,0.7-1.19,1.43-1.18,2.5c0.03,9.32,0.01,18.65,0.01,27.97
		C176.71,78.74,176.71,79.38,176.71,80.22z M177.12,43.65c-0.12-1.16-0.81-2.02-2.11-2.01c-1.28,0.01-2.09,0.76-2.1,2.13
		c0,1.3,0.81,2.01,1.98,2.07C176.17,45.89,176.98,45.15,177.12,43.65z M173.28,114.07c1.21,0,2.2,0,3.43,0c0,0.74,0,1.43,0,2.13
		c0,9.31,0.01,18.63-0.02,27.94c0,1.08,0.23,1.8,1.19,2.48c2.34,1.66,2.62,5.18,0.72,7.21c-1.89,2.02-5.25,2.03-7.16,0.02
		c-1.94-2.04-1.72-5.55,0.65-7.2c1.07-0.75,1.22-1.54,1.21-2.66c-0.03-9.19-0.02-18.39-0.02-27.58
		C173.28,115.7,173.28,115,173.28,114.07z M177.13,150.41c-0.2-1.19-0.85-2.06-2.18-2.02c-1.31,0.04-2.06,0.86-2.03,2.18
		c0.03,1.24,0.81,1.97,2.03,2C176.28,152.59,176.96,151.78,177.13,150.41z"/>
</g>
<g id="Layer_13">
</g>
<g id="Layer_14">
</g>
<g id="Layer_15">
</g>
</svg>
