<?xml version="1.0" encoding="utf-8"?>
<!-- Generator: Adobe Illustrator 27.8.1, SVG Export Plug-In . SVG Version: 6.00 Build 0)  -->
<svg version="1.1" xmlns="http://www.w3.org/2000/svg" xmlns:xlink="http://www.w3.org/1999/xlink" x="0px" y="0px"
	 viewBox="0 0 350 230" style="enable-background:new 0 0 350 230;" xml:space="preserve">
<style type="text/css">
	.st0{fill:#00A3F4;}
	.st1{fill:#460048;}
	.st2{fill:#00DBFF;}
	.st3{fill:#0B5F78;}
	.st4{fill:#BF0080;}
	.st5{fill:#FF1400;}
	.st6{fill:#008DFF;}
	.st7{fill:#C900FF;}
	.st8{fill:#FB9824;}
	.st9{fill:#600463;}
	.st10{fill:#62FF00;}
	.st11{fill:#005FFF;}
	.st12{fill:#FFCE00;}
	.st13{fill:#A58DF3;}
	.st14{fill:#F383FF;}
	.st15{fill:#FF9269;}
	.st16{fill:#32897F;}
</style>
<g id="Layer_1">
</g>
<g id="Layer_2">
</g>
<g id="Layer_3">
</g>
<g id="Layer_4">
</g>
<g id="Layer_5">
</g>
<g id="Layer_6">
</g>
<g id="Layer_7">
</g>
<g id="Layer_8">
</g>
<g id="Layer_9">
</g>
<g id="Layer_10">
</g>
<g id="Layer_11">
</g>
<g id="Layer_12">
</g>
<g id="Layer_13">
	<g>
		<path class="st11" d="M200.65,126.71c1.41-0.86,2.47-1.71,4.36-0.97c3.72,1.45,7.92-0.51,9.68-4.11
			c1.73-3.52,0.62-7.89-2.59-10.16c-3.25-2.31-7.92-2.02-10.47,1.02c-1.28,1.53-2.61,1.44-4.59,1.31c1.13-1.55,2.09-2.88,3.14-4.32
			c-2.32-3.98-4.71-8.07-7.09-12.16c-5.12-8.79-10.25-17.58-15.35-26.39c-0.66-1.14-1.46-1.76-2.83-1.89
			c-2.99-0.27-5.24-2.96-5.19-5.96c0.05-2.93,2.28-5.47,5.1-5.8c3.13-0.37,6.15,1.49,6.55,4.53c0.3,2.24,1.43,3.33,3.25,4.34
			c5.65,3.15,11.22,6.43,16.8,9.71c1.22,0.72,2.29,0.85,3.63,0.21c2.63-1.27,5.95-0.12,7.42,2.41c1.49,2.56,0.91,5.94-1.52,7.65
			c-1.3,0.91-1.72,1.99-1.71,3.49c0.05,5.4,0.05,10.79,0,16.19c-0.01,1.07,0.28,1.52,1.36,1.87c4.27,1.4,6.91,4.39,7.54,8.85
			c0.63,4.44-0.97,8.12-4.72,10.63c-3.79,2.53-7.77,2.51-11.74,0.29C201.35,127.24,201.06,126.99,200.65,126.71z M181.18,68.57
			c-0.08,0.06-0.15,0.12-0.23,0.18c7.55,12.98,15.09,25.96,22.67,39c0.65-0.2,1.22-0.36,1.82-0.54c0-6.34,0.04-12.59-0.06-18.85
			c-0.01-0.65-0.68-1.45-1.27-1.91c-1.32-1.04-2.48-2.27-2.52-3.9c-0.05-2.03-1.09-3.05-2.72-3.8c-0.39-0.18-0.75-0.42-1.13-0.63
			C192.23,74.94,186.7,71.76,181.18,68.57z"/>
		<path class="st11" d="M169.73,135.17c-4.34-2.51-8.74-5.05-13.14-7.6c-1.05-0.6-2.13-1.16-3.12-1.84
			c-0.78-0.54-1.25-0.45-1.95,0.22c-6.02,5.7-15.87,2.92-18-5.03c-1.26-4.69,0.65-9.56,4.77-12.12c0.39-0.24,0.82-0.43,1.36-0.7
			c0.22,1.6,0.34,2.8-1.12,3.96c-3.12,2.47-3.63,7.02-1.45,10.42c2.16,3.38,6.39,4.65,10.13,3.04c3.61-1.56,5.73-5.61,4.54-9.38
			c-0.58-1.82-0.24-3.12,1.12-4.69c0.58,1.3,1.19,2.45,1.6,3.67c0.27,0.79,0.63,1.05,1.46,1.04c14.93-0.07,29.87-0.11,44.8-0.14
			c0.72,0,1.13-0.19,1.52-0.86c1.72-2.96,5.32-3.87,8.17-2.14c2.75,1.67,3.68,5.28,2.05,8.03c-1.71,2.89-5.3,3.81-8.2,2.03
			c-0.65-0.4-1.08-0.4-1.73-0.02c-6.63,3.87-13.27,7.71-19.92,11.53c-0.68,0.39-1.03,0.75-1,1.67c0.12,3.29-2.65,6.08-5.92,6.1
			c-3.27,0.02-5.97-2.72-5.97-6.05C169.73,135.96,169.73,135.62,169.73,135.17z M199.94,120.14c-0.04-0.1-0.07-0.19-0.11-0.29
			c-0.34,0-0.68,0-1.02,0c-8.29,0.02-16.57,0.04-24.86,0.06c-6.04,0.02-12.09,0.05-18.13,0.04c-0.82,0-1.26,0.29-1.28,1.05
			c-0.01,0.41,0.16,1.03,0.45,1.2c5.35,3.14,10.73,6.24,16.13,9.31c0.29,0.16,0.84,0.16,1.11-0.01c2.54-1.6,4.97-1.38,7.39,0.36
			C186.39,127.95,193.17,124.05,199.94,120.14z"/>
		<path class="st11" d="M171.86,73.61c-3.67,6.4-7.33,12.79-11,19.19c-3.84,6.69-7.67,13.4-11.55,20.07
			c-0.53,0.9-0.65,1.58-0.11,2.58c1.54,2.86,0.34,6.36-2.53,7.85c-2.8,1.46-6.3,0.39-7.83-2.39c-1.56-2.84-0.59-6.34,2.29-7.93
			c0.75-0.42,1.02-0.87,1.01-1.72c-0.03-7.68-0.03-15.37,0-23.05c0-0.78-0.21-1.22-0.94-1.61c-2.94-1.58-3.94-5.15-2.33-8.01
			c1.61-2.86,5.2-3.88,8.06-2.18c0.78,0.46,1.3,0.45,2.07-0.01c4.94-2.92,9.9-5.8,14.88-8.63c1.04-0.59,1.31-1.25,1.09-2.41
			c-1.18-6.1,2.67-11.87,8.59-12.99c6.12-1.16,11.81,2.8,12.96,9.01c0.19,1.02,0.15,1.95-1.06,2.28c-0.98,0.27-1.62-0.38-1.85-1.78
			c-0.68-4.15-4.2-6.98-8.45-6.79c-3.96,0.18-7.2,3.37-7.52,7.39c-0.33,4.17,2.32,7.7,6.46,8.57c0.34,0.07,0.8,0.04,0.98,0.25
			c0.38,0.44,0.91,1.06,0.84,1.52c-0.07,0.45-0.77,1.1-1.25,1.14C173.81,74.06,172.9,73.77,171.86,73.61z M145.87,110.64
			c0.1,0.02,0.21,0.04,0.31,0.06c0.12-0.17,0.25-0.33,0.35-0.51c7.12-12.46,14.24-24.91,21.32-37.4c0.26-0.46,0.23-1.51-0.09-1.78
			c-0.37-0.3-1.33-0.26-1.82,0.02c-5.11,2.87-10.17,5.82-15.26,8.72c-0.64,0.36-0.88,0.76-0.84,1.53c0.1,2.37-0.95,4.21-3.02,5.31
			c-0.81,0.43-0.95,0.9-0.95,1.7c0.02,7.03,0.01,14.06,0.01,21.1C145.87,109.8,145.87,110.22,145.87,110.64z"/>
	</g>
</g>
<g id="Layer_14">
</g>
<g id="Layer_15">
</g>
</svg>
