<?xml version="1.0" encoding="utf-8"?>
<!-- Generator: Adobe Illustrator 27.8.1, SVG Export Plug-In . SVG Version: 6.00 Build 0)  -->
<svg version="1.1" xmlns="http://www.w3.org/2000/svg" xmlns:xlink="http://www.w3.org/1999/xlink" x="0px" y="0px"
	 viewBox="0 0 350 230" style="enable-background:new 0 0 350 230;" xml:space="preserve">
<style type="text/css">
	.st0{fill:#00A3F4;}
	.st1{fill:#460048;}
	.st2{fill:#00DBFF;}
	.st3{fill:#0B5F78;}
	.st4{fill:#BF0080;}
	.st5{fill:#FF1400;}
	.st6{fill:#008DFF;}
	.st7{fill:#C900FF;}
	.st8{fill:#FB9824;}
	.st9{fill:#600463;}
	.st10{fill:#62FF00;}
	.st11{fill:#005FFF;}
	.st12{fill:#FFCE00;}
	.st13{fill:#A58DF3;}
	.st14{fill:#F383FF;}
	.st15{fill:#FF9269;}
	.st16{fill:#32897F;}
</style>
<g id="Layer_1">
</g>
<g id="Layer_2">
</g>
<g id="Layer_3">
</g>
<g id="Layer_4">
</g>
<g id="Layer_5">
</g>
<g id="Layer_6">
</g>
<g id="Layer_7">
</g>
<g id="Layer_8">
</g>
<g id="Layer_9">
</g>
<g id="Layer_10">
</g>
<g id="Layer_11">
</g>
<g id="Layer_12">
</g>
<g id="Layer_13">
</g>
<g id="Layer_14">
	<path class="st15" d="M123.5,94.69c6.97-18.38,29.76-27.54,48.39-15.56c3.16-6.88,6.09-8.45,13.29-7.01
		c0.3-0.6,0.65-1.24,0.97-1.91c5.53-11.4,18.83-17.1,30.82-13.22c12.17,3.94,19.61,16.06,17.46,28.59c-0.25,1.44-0.01,2.19,1.33,2.9
		c2.31,1.23,3.55,3.37,3.83,5.94c0.13,1.21,0.62,1.63,1.73,1.97c8.45,2.59,13.68,10.48,12.55,18.77
		c-1.24,9.03-8.28,15.34-17.44,15.48c-6.59,0.1-13.18-0.02-19.77,0.04c-1.91,0.02-2.55-0.75-2.53-2.61
		c0.06-9.2,0.01-18.39,0.05-27.59c0-1.29-0.13-2.22-1.45-3.01c-2.05-1.22-2.74-3.69-2.04-5.84c0.72-2.2,2.74-3.63,5.07-3.6
		c2.3,0.04,4.25,1.54,4.91,3.8c0.64,2.21-0.23,4.32-2.19,5.83c-0.62,0.48-1.34,1.34-1.34,2.03c-0.09,8.97-0.05,17.93-0.04,26.9
		c0,0.29,0.1,0.58,0.2,1.1c4.01,0,7.98,0,11.94,0c2.61,0,5.21,0.06,7.82-0.03c7.32-0.26,13.36-5.97,13.94-13.1
		c0.62-7.66-4.12-14.18-11.58-15.62c-2.09-0.4-3.06-0.98-2.74-3.38c0.34-2.53-1.29-4.59-3.88-5.23c-1.79-0.44-2.13-1.2-1.71-2.93
		c2.97-12.35-3.47-24.07-15.14-27.72c-11.64-3.63-23.74,2.47-28.17,14.28c-0.7,1.86-1.43,2.39-3.35,1.33
		c-3.98-2.19-8.58,0.04-9.42,4.38c-0.59,3.04-2.29,3.73-4.97,1.97c-4.24-2.79-8.85-4.48-13.94-4.88
		c-13.19-1.03-25.33,6.79-29.81,19.25c-1.09,3.03-1.12,3.04-3.96,1.58c-5.21-2.66-11.47,0.42-12.24,6.2
		c-0.26,1.98-0.82,2.82-2.95,3.18c-5.53,0.93-8.61,5.43-8.12,11.26c0.46,5.41,4.36,9.3,9.79,9.39c7.59,0.13,15.18,0.04,22.76,0.04
		c0.36,0,0.73-0.08,1.36-0.16c0-3.67,0.05-7.25-0.06-10.83c-0.01-0.49-0.74-1.04-1.25-1.41c-2.09-1.53-2.92-3.76-2.16-6.02
		c0.75-2.23,2.76-3.66,5.06-3.62c2.19,0.04,4.16,1.5,4.85,3.61c0.74,2.25-0.16,4.46-2.13,6.08c-0.69,0.56-1.28,1.65-1.32,2.52
		c-0.15,3.44-0.11,6.9-0.04,10.34c0.04,1.76-0.61,2.5-2.41,2.49c-8.12-0.05-16.25,0.07-24.37-0.08
		c-7.15-0.13-12.02-4.71-12.98-11.85c-0.89-6.61,2.85-12.33,9.41-14.46c0.62-0.2,1.4-0.71,1.61-1.26
		C110.29,94.75,114.81,92.39,123.5,94.69z M137.06,111.35c0-0.33-0.01-0.66-0.01-0.99c-0.91-0.59-1.83-1.66-2.72-1.62
		c-0.76,0.03-2.14,1.42-2.05,2.03c0.13,0.89,1.27,2.15,2.1,2.26C135.19,113.12,136.16,111.95,137.06,111.35z M215.01,95.82
		c0.36,0.02,0.73,0.03,1.09,0.05c0.61-0.88,1.77-1.82,1.67-2.61c-0.11-0.86-1.3-2.04-2.18-2.2c-0.61-0.11-2.01,1.23-2.09,2.02
		C213.41,93.94,214.46,94.91,215.01,95.82z M140.92,120.27c0,4.67,0,9.34,0,14.01c0,1.53-0.15,3.08,0.06,4.58
		c0.11,0.8,0.84,1.52,1.3,2.28c0.5-0.79,1.06-1.55,1.46-2.39c0.18-0.37,0.03-0.9,0.03-1.36c0-10.1,0.19-20.21-0.1-30.31
		c-0.11-3.93,0.72-6.94,3.92-9.31c1.05-0.78,1.75-1.54,3.34-1.26c2.49,0.44,4.64-1.66,4.75-4.17c0.11-2.53-1.82-4.63-4.31-4.7
		c-2.6-0.07-4.74,2.02-4.45,4.71c0.16,1.49-0.25,2.45-1.3,3.37c-1.03,0.91-1.89,2.01-2.95,2.89c-1.35,1.13-1.79,2.45-1.76,4.21
		c0.1,5.82,0.04,11.63,0.04,17.45C140.93,120.27,140.92,120.27,140.92,120.27z M179.98,112.82c0-4.9-0.1-9.81,0.07-14.7
		c0.04-1.22,0.74-2.54,1.47-3.59c0.82-1.18,1.97-2.13,3.05-3.11c1.48-1.36,2.52-2.59,2.08-5.02c-0.54-2.97,2.23-5.38,5.28-5.26
		c2.99,0.11,5.33,2.8,4.99,5.71c-0.35,3-3.1,5.26-6.01,4.57c-1.55-0.36-2.28,0.27-3.37,1.07c-3.95,2.91-5.1,6.62-4.82,11.48
		c0.43,7.48,0.11,15,0.11,22.51c0,0.54,0.15,1.13-0.03,1.6c-0.34,0.87-0.82,2.34-1.34,2.38c-1.65,0.14-1.47-1.35-1.48-2.48
		c-0.01-3.83-0.01-7.66-0.01-11.49c0-1.23,0-2.45,0-3.68C179.97,112.82,179.97,112.82,179.98,112.82z M194.36,86.79
		c-0.02-0.37-0.03-0.74-0.05-1.11c-0.92-0.54-1.95-1.62-2.72-1.47c-0.85,0.17-1.9,1.44-2.02,2.34c-0.07,0.57,1.38,1.87,2.18,1.89
		C192.6,88.47,193.48,87.39,194.36,86.79z M206.54,133.62c0,1.92-0.12,3.84,0.06,5.74c0.06,0.63,0.87,1.2,1.34,1.79
		c0.5-0.57,1.11-1.08,1.45-1.73c0.22-0.42,0.05-1.05,0.05-1.59c0-10.65-0.04-21.31,0.03-31.96c0.01-1.75-0.36-3.11-1.77-4.21
		c-1.28-1-2.09-2.1-1.85-4.05c0.32-2.54-1.9-4.53-4.43-4.49c-2.48,0.04-4.44,2.16-4.33,4.69c0.11,2.51,2.24,4.4,4.77,4.24
		c2.67-0.17,4.66,1.69,4.67,4.43c0.01,5.29,0,10.58,0,15.86C206.54,126.11,206.54,129.87,206.54,133.62z M169.95,138.1
		c0,0.54-0.17,1.17,0.06,1.58c0.32,0.58,0.94,0.99,1.44,1.47c0.44-0.46,1.05-0.84,1.26-1.38c0.23-0.61,0.09-1.36,0.09-2.05
		c0-11.02-0.03-22.04,0.06-33.07c0.01-0.96,0.59-2.14,1.29-2.82c1.96-1.93,2.28-4.62,0.53-6.55c-1.71-1.89-4.81-1.92-6.55-0.06
		c-1.78,1.89-1.5,4.65,0.43,6.56c0.7,0.69,1.32,1.84,1.34,2.8c0.12,5.58,0.06,11.17,0.06,16.76
		C169.95,126.92,169.95,132.51,169.95,138.1z M160.64,122.24c0-3.6,0.03-7.2-0.01-10.81c-0.02-2.63-1.41-3.76-4.02-3.39
		c-2.34,0.33-4.5-0.8-5.5-2.89c-0.95-1.98-0.55-4.44,0.97-5.96c1.56-1.56,3.99-1.97,5.95-1.01c2.11,1.03,3.41,3.21,2.83,5.48
		c-0.39,1.53,0.2,2.32,1.07,3.39c0.78,0.97,1.48,2.34,1.5,3.55c0.14,7.35,0.07,14.71,0.07,22.07c0,0.23,0.08,0.5-0.01,0.68
		c-0.42,0.77-0.81,2.1-1.35,2.17c-1.51,0.19-1.47-1.17-1.48-2.26c-0.02-2.53-0.01-5.06-0.01-7.59
		C160.64,124.54,160.64,123.39,160.64,122.24z M156.39,100.26c-0.35-0.01-0.69-0.02-1.04-0.04c-0.63,0.88-1.82,1.81-1.73,2.61
		c0.09,0.84,1.32,2,2.21,2.15c0.6,0.11,2.02-1.22,2.08-1.99C157.98,102.14,156.95,101.18,156.39,100.26z M191.21,113.78
		c0.03-0.96,0.61-2.12,1.32-2.81c1.96-1.91,2.28-4.64,0.52-6.56c-1.74-1.89-4.82-1.91-6.56-0.03c-1.79,1.93-1.51,4.62,0.45,6.57
		c0.7,0.7,1.31,1.85,1.32,2.81c0.1,8.35,0.01,16.71,0.12,25.06c0.01,0.79,0.96,1.56,1.47,2.34c0.44-0.77,1.22-1.53,1.25-2.32
		c0.12-4.21,0.06-8.43,0.06-12.64C191.15,122.05,191.07,117.91,191.21,113.78z M198.01,125.21c0-0.92-0.05-1.84,0.01-2.75
		c0.09-1.24-0.22-2.05-1.42-2.77c-2.16-1.3-2.84-3.71-2.06-6c0.7-2.06,2.7-3.5,4.89-3.51c2.28-0.01,4.32,1.49,4.99,3.68
		c0.69,2.24,0.02,4.54-2.06,5.8c-1.27,0.77-1.56,1.65-1.51,2.98c0.08,2.06,0.12,4.13-0.05,6.18c-0.05,0.63-0.85,1.19-1.31,1.79
		c-0.49-0.57-1.28-1.08-1.4-1.73C197.86,127.69,198.02,126.43,198.01,125.21C198.02,125.21,198.02,125.21,198.01,125.21z
		 M200.02,112.78c-0.36,0-0.71,0-1.07,0c-0.6,0.89-1.76,1.87-1.64,2.65c0.13,0.85,1.38,1.96,2.28,2.11c0.59,0.1,1.95-1.29,2-2.07
		C201.65,114.61,200.59,113.68,200.02,112.78z M150.66,128.44c0.16,0.78,0.92,1.43,1.42,2.14c0.44-0.68,1.21-1.34,1.26-2.05
		c0.17-2.29-0.05-4.6,0.12-6.88c0.07-0.91,0.56-2,1.22-2.62c2.1-1.97,2.4-4.75,0.53-6.71c-1.71-1.78-4.68-1.81-6.39-0.05
		c-1.9,1.95-1.64,4.79,0.43,6.72c0.67,0.63,1.1,1.66,1.29,2.58c0.22,1.03,0.05,2.13,0.05,3.21
		C150.6,126.01,150.42,127.27,150.66,128.44z"/>
</g>
<g id="Layer_15">
</g>
</svg>
