<?xml version="1.0" encoding="utf-8"?>
<!-- Generator: Adobe Illustrator 27.8.1, SVG Export Plug-In . SVG Version: 6.00 Build 0)  -->
<svg version="1.1" xmlns="http://www.w3.org/2000/svg" xmlns:xlink="http://www.w3.org/1999/xlink" x="0px" y="0px"
	 viewBox="0 0 350 230" style="enable-background:new 0 0 350 230;" xml:space="preserve">
<style type="text/css">
	.st0{fill:#00A3F4;}
	.st1{fill:#460048;}
	.st2{fill:#00DBFF;}
	.st3{fill:#0B5F78;}
	.st4{fill:#BF0080;}
	.st5{fill:#FF1400;}
	.st6{fill:#008DFF;}
	.st7{fill:#C900FF;}
	.st8{fill:#FB9824;}
	.st9{fill:#600463;}
	.st10{fill:#62FF00;}
	.st11{fill:#005FFF;}
	.st12{fill:#FFCE00;}
	.st13{fill:#A58DF3;}
	.st14{fill:#F383FF;}
	.st15{fill:#FF9269;}
	.st16{fill:#32897F;}
</style>
<g id="Layer_1">
</g>
<g id="Layer_2">
</g>
<g id="Layer_3">
</g>
<g id="Layer_4">
</g>
<g id="Layer_5">
</g>
<g id="Layer_6">
</g>
<g id="Layer_7">
</g>
<g id="Layer_8">
</g>
<g id="Layer_9">
</g>
<g id="Layer_10">
</g>
<g id="Layer_11">
</g>
<g id="Layer_12">
</g>
<g id="Layer_13">
</g>
<g id="Layer_14">
</g>
<g id="Layer_15">
	<path class="st16" d="M137.14,108.78c6.27-5.48,13.34-8.8,20.97-11.05c12.84-3.78,26.08-4.12,39.3-4.63
		c2.77-0.11,5.45,0.07,8.01-1.69c2.2-1.51,5.9-0.55,7.74,1.36c1.82,1.89,2.19,4.77,0.91,7.05c-1.35,2.39-4.35,3.96-7.23,2.98
		c-5.27-1.79-10.59-1.05-15.86-0.81c-11.13,0.51-22.17,1.77-32.8,5.46c-6.23,2.16-11.89,5.15-16.47,10.93
		C140.09,115,138.63,111.92,137.14,108.78z M208.27,101.22c2.3,0.03,4.36-1.84,4.4-4c0.05-2.22-1.84-4.15-4.16-4.24
		c-2.42-0.1-4.52,1.82-4.54,4.14C203.94,99.27,205.97,101.2,208.27,101.22z M135.98,101.61c-0.17-0.38-0.22-0.45-0.23-0.53
		c-1.3-9.18-1.01-9.74,7.3-13.84c10.83-5.34,22.4-7.89,34.35-8.96c1.51-0.14,3.07-0.55,4.46-1.18c4.68-2.14,10.43,0.22,11.15,4.71
		c0.82,5.06-4.28,9.55-9.35,7.47c-4.54-1.86-8.73-0.98-13.05-0.37C158.24,90.63,146.52,94.22,135.98,101.61z M190.65,82.95
		c-0.05-2.48-2.22-4.38-4.97-4.35c-2.71,0.03-4.89,2.03-4.86,4.49c0.03,2.42,2.27,4.38,5,4.36
		C188.55,87.43,190.7,85.43,190.65,82.95z M136.98,85.37c0.93-6.2,4.03-10.16,9.38-12.71c6.91-3.3,14.25-4.68,21.69-5.88
		c1.31-0.21,2.61-0.81,3.78-1.47c2.4-1.34,5.96-1.11,7.81,0.79c1.71,1.76,2.05,3.81,0.84,6.01c-1.41,2.57-5.05,3.43-8.13,2.26
		c-1.36-0.52-2.99-0.79-4.43-0.6C156.87,75.26,146.41,78.45,136.98,85.37z M175.21,73.14c2.2,0,4.08-1.69,4.02-3.62
		c-0.05-1.77-1.98-3.47-3.97-3.48c-2.1-0.01-4.02,1.78-3.96,3.7C171.36,71.7,173.02,73.14,175.21,73.14z M153.07,130.66
		c-1.9-1.57-3.78-3.12-5.78-4.78c3.35-5.24,7.95-8.38,13.44-10.32c2.14-0.76,4.36-1.32,6.58-1.82c2.27-0.52,4.45-0.82,6.24-2.78
		c1.76-1.92,5.41-1.62,7.54,0.03c2.01,1.55,2.41,3.62,1.69,5.89c-0.72,2.29-3.38,3.51-6.24,3.36c-9.28-0.47-17.17,2.34-22.92,10
		C153.57,130.31,153.48,130.35,153.07,130.66z M177.49,111.77c-2.06-0.03-3.9,1.57-3.95,3.44c-0.06,1.83,1.74,3.57,3.78,3.66
		c2.13,0.09,4.13-1.65,4.11-3.58C181.4,113.49,179.51,111.8,177.49,111.77z M172.87,137.98c-3.46-0.71-6.49-1.34-9.83-2.03
		c1.34-4.5,3.72-7.76,7.64-9.19c3.89-1.42,8.08-2.02,12.14-2.97c1.26-0.3,2.51-0.67,3.79-0.84c1.18-0.16,2.61-0.53,3.53-0.05
		c1.15,0.6,2.65,2.01,2.62,3.01c-0.05,1.2-1.39,2.58-2.5,3.44c-0.68,0.52-2.1,0.52-3.03,0.23c-4.05-1.24-7.58,0.29-11.06,1.91
		C173.77,132.59,172.3,134.48,172.87,137.98z M188.73,129.97c1.36-1.68,2.77-2.67,2.81-3.72c0.03-0.76-1.8-2.29-2.7-2.22
		c-1.12,0.08-2.14,1.46-3.21,2.28C186.49,127.32,187.33,128.32,188.73,129.97z M145.72,68.64c2.89-3.86,6.86-6.32,11.28-8.11
		c6.72-2.72,13.8-3.77,20.99-4.32c1.88-0.14,3.77-0.97,5.59-0.81c2.13,0.19,4.51,0.68,6.22,1.86c1.99,1.38,1.08,3.92-1.36,4.42
		c-0.92,0.19-1.98,0.3-2.86,0.05c-8.79-2.56-17.34-0.67-25.77,1.63C154.99,64.67,150.42,66.85,145.72,68.64z M186.37,61.81
		c1.28-1.27,2.43-1.92,2.75-2.85c0.44-1.27-1.86-3.16-3.66-2.8c-1,0.2-1.8,1.38-2.69,2.12C183.84,59.34,184.92,60.39,186.37,61.81z"
		/>
</g>
</svg>
