<?xml version="1.0" encoding="utf-8"?>
<!-- Generator: Adobe Illustrator 27.8.1, SVG Export Plug-In . SVG Version: 6.00 Build 0)  -->
<svg version="1.1" xmlns="http://www.w3.org/2000/svg" xmlns:xlink="http://www.w3.org/1999/xlink" x="0px" y="0px"
	 viewBox="0 0 350 230" style="enable-background:new 0 0 350 230;" xml:space="preserve">
<style type="text/css">
	.st0{fill:#00A3F4;}
	.st1{fill:#460048;}
	.st2{fill:#00DBFF;}
	.st3{fill:#0B5F78;}
	.st4{fill:#BF0080;}
	.st5{fill:#FF1400;}
	.st6{fill:#008DFF;}
	.st7{fill:#C900FF;}
	.st8{fill:#FB9824;}
	.st9{fill:#600463;}
	.st10{fill:#62FF00;}
	.st11{fill:#005FFF;}
	.st12{fill:#FFCE00;}
	.st13{fill:#A58DF3;}
	.st14{fill:#F383FF;}
	.st15{fill:#FF9269;}
	.st16{fill:#32897F;}
</style>
<g id="Layer_1">
</g>
<g id="Layer_2">
	<g>
		<path class="st1" d="M174.66,96.39c0.7-3.03,1.66-5.84,2.95-8.53c4.86-10.21,12.47-17.61,22.82-22.16
			c3.26-1.43,6.67-2.45,10.2-2.98c0.64-0.1,0.95-0.34,1.17-0.99c1.59-4.58,5.75-7.19,10.72-6.81c4.36,0.34,8.08,3.8,8.93,8.31
			c0.89,4.73-1.83,9.61-6.3,11.28c-4.78,1.79-10.01,0.03-12.46-4.29c-0.47-0.83-0.94-0.95-1.77-0.77
			c-11.87,2.56-20.75,9.12-26.46,19.85c-1.07,2.01-1.79,4.2-2.6,6.33c-0.2,0.53-0.39,0.77-0.99,0.76
			C178.82,96.36,176.78,96.39,174.66,96.39z M217.98,65.01c-0.02,1.87,1.58,3.49,3.44,3.48c1.84,0,3.4-1.54,3.44-3.38
			c0.04-1.92-1.47-3.48-3.38-3.5C219.57,61.59,217.99,63.12,217.98,65.01z M141.61,123.78c0-1.66,0-3.18,0-4.73
			c5.84-1.14,10.74-3.9,14.74-8.24c3.46-3.75,5.57-8.18,6.48-13.19c0.04-0.24-0.28-0.67-0.55-0.83c-2.56-1.58-3.9-4.42-3.41-7.33
			c0.49-2.93,2.59-5.15,5.49-5.79c3.62-0.81,7.24,1.29,8.32,4.82c1.11,3.65-0.69,7.42-4.24,8.78c-0.57,0.22-0.87,0.47-0.98,1.09
			c-2.1,12.53-11.68,22.44-24.27,25.14C142.71,123.61,142.2,123.68,141.61,123.78z M165.99,88.23c-1.34-0.04-2.46,0.99-2.5,2.31
			c-0.04,1.33,1.09,2.52,2.41,2.53c1.25,0,2.43-1.18,2.43-2.44C168.34,89.36,167.26,88.26,165.99,88.23z"/>
		<path class="st2" d="M178.02,104.28c-0.97,2.95-2.19,5.66-3.72,8.23c-5.78,9.72-14.04,16.39-24.76,19.97
			c-3.38,1.13-6.86,1.83-10.43,2.03c-0.64,0.04-0.98,0.25-1.26,0.87c-2,4.41-6.38,6.63-11.3,5.79c-4.31-0.74-7.7-4.53-8.13-9.1
			c-0.46-4.79,2.71-9.4,7.31-10.66c4.92-1.35,9.97,0.89,12.01,5.41c0.39,0.87,0.85,1.03,1.7,0.93c12.06-1.46,21.5-7.18,28.18-17.34
			c1.25-1.9,2.17-4.02,3.17-6.07c0.25-0.51,0.45-0.73,1.05-0.66C173.87,103.92,175.91,104.09,178.02,104.28z M132,131.55
			c0.19-1.86-1.26-3.62-3.1-3.78c-1.83-0.17-3.53,1.22-3.73,3.05c-0.21,1.9,1.14,3.6,3.04,3.8
			C130.1,134.81,131.81,133.42,132,131.55z M213.45,80.04c-0.15,1.65-0.29,3.17-0.43,4.71c-5.92,0.6-11.05,2.9-15.44,6.85
			c-3.79,3.42-6.3,7.64-7.66,12.54c-0.07,0.24,0.22,0.69,0.47,0.88c2.4,1.81,3.48,4.76,2.72,7.61c-0.76,2.87-3.06,4.89-6,5.26
			c-3.68,0.47-7.09-1.95-7.84-5.56c-0.77-3.73,1.37-7.33,5.03-8.35c0.58-0.16,0.91-0.39,1.07-1c3.25-12.29,13.69-21.28,26.47-22.8
			C212.34,80.11,212.85,80.09,213.45,80.04z M185.91,113.21c1.33,0.16,2.54-0.76,2.7-2.07c0.16-1.33-0.86-2.61-2.17-2.74
			c-1.25-0.12-2.53,0.95-2.65,2.21C183.67,111.86,184.64,113.05,185.91,113.21z"/>
	</g>
</g>
<g id="Layer_3">
</g>
<g id="Layer_4">
</g>
<g id="Layer_5">
</g>
<g id="Layer_6">
</g>
<g id="Layer_7">
</g>
<g id="Layer_8">
</g>
<g id="Layer_9">
</g>
<g id="Layer_10">
</g>
<g id="Layer_11">
</g>
<g id="Layer_12">
</g>
<g id="Layer_13">
</g>
<g id="Layer_14">
</g>
<g id="Layer_15">
</g>
</svg>
