<?xml version="1.0" encoding="utf-8"?>
<!-- Generator: Adobe Illustrator 27.8.1, SVG Export Plug-In . SVG Version: 6.00 Build 0)  -->
<svg version="1.1" xmlns="http://www.w3.org/2000/svg" xmlns:xlink="http://www.w3.org/1999/xlink" x="0px" y="0px"
	 viewBox="0 0 350 230" style="enable-background:new 0 0 350 230;" xml:space="preserve">
<style type="text/css">
	.st0{fill:#00A3F4;}
	.st1{fill:#460048;}
	.st2{fill:#00DBFF;}
	.st3{fill:#0B5F78;}
	.st4{fill:#BF0080;}
	.st5{fill:#FF1400;}
	.st6{fill:#008DFF;}
	.st7{fill:#C900FF;}
	.st8{fill:#FB9824;}
	.st9{fill:#600463;}
	.st10{fill:#62FF00;}
	.st11{fill:#005FFF;}
	.st12{fill:#FFCE00;}
	.st13{fill:#A58DF3;}
	.st14{fill:#F383FF;}
	.st15{fill:#FF9269;}
	.st16{fill:#32897F;}
</style>
<g id="Layer_1">
</g>
<g id="Layer_2">
</g>
<g id="Layer_3">
	<g>
		<path class="st3" d="M219.69,94.4c-0.14,6.44-5.44,11.3-12.81,11.1c-5.88-0.16-10.86,1.57-14.96,5.6
			c-4.02,3.93-5.6,8.87-5.39,14.52c0.29,7.48-4.65,13.02-11.35,13.05c-6.25,0.03-11.46-5.06-11.63-11.35
			c-0.18-6.73,5.18-11.79,12.66-11.94c13.44-0.27,20.05-6.9,20.29-20.34c0.13-7.32,5.07-12.68,11.46-12.44
			C214.69,82.84,219.83,88.02,219.69,94.4z"/>
		<path class="st3" d="M186.12,61.03c-0.06,6.73-4.67,11.21-11.84,11.49c-14.61,0.58-20.48,6.51-21.07,21.29
			c-0.28,7.04-4.89,11.62-11.71,11.64c-5.67,0.01-10.78-4.96-11.07-10.78c-0.34-6.86,4.04-11.78,10.97-12.31
			c16.18-1.22,21-6.02,22.06-21.95c0.44-6.63,5.33-11.29,11.71-11.15C181.49,49.41,186.18,54.44,186.12,61.03z"/>
		<path class="st3" d="M144.47,115.48c11.27,0.03,18.95-8.02,18.98-19.9c0.03-8.57,5.33-13.98,12.73-12.96
			c6.33,0.87,10.25,5.71,9.91,12.23c-0.33,6.25-4.87,10.72-11.51,10.65c-5.17-0.06-9.92,0.61-14.04,4
			c-5.6,4.6-7.53,10.58-7.45,17.68c0.07,6.4-4.37,10.97-10.27,11.45c-5.65,0.46-11.11-3.43-12.21-8.94
			C129.02,121.7,134.61,114.51,144.47,115.48z"/>
		<path class="st3" d="M208.6,138.65c-6.04,0.12-11.61-5.11-11.9-11.15c-0.29-6.17,5.22-12,11.49-12.13
			c6.07-0.13,11.52,5.14,11.67,11.27C220.03,133.4,215.22,138.52,208.6,138.65z"/>
		<path class="st3" d="M196.43,61.21c-0.04-6.67,4.97-11.85,11.48-11.87c6.12-0.02,11.26,5.22,11.34,11.55
			c0.08,6.62-4.91,11.71-11.53,11.77C201.5,72.71,196.46,67.61,196.43,61.21z"/>
		<path class="st3" d="M152.89,61.35c-0.06,6.74-4.64,11.43-11.18,11.44c-6.88,0.02-11.61-4.71-11.58-11.57
			c0.02-6.54,4.73-11.12,11.47-11.14C148.24,50.06,152.95,54.76,152.89,61.35z"/>
	</g>
</g>
<g id="Layer_4">
</g>
<g id="Layer_5">
</g>
<g id="Layer_6">
</g>
<g id="Layer_7">
</g>
<g id="Layer_8">
</g>
<g id="Layer_9">
</g>
<g id="Layer_10">
</g>
<g id="Layer_11">
</g>
<g id="Layer_12">
</g>
<g id="Layer_13">
</g>
<g id="Layer_14">
</g>
<g id="Layer_15">
</g>
</svg>
