<?xml version="1.0" encoding="utf-8"?>
<!-- Generator: Adobe Illustrator 27.8.1, SVG Export Plug-In . SVG Version: 6.00 Build 0)  -->
<svg version="1.1" xmlns="http://www.w3.org/2000/svg" xmlns:xlink="http://www.w3.org/1999/xlink" x="0px" y="0px"
	 viewBox="0 0 350 230" style="enable-background:new 0 0 350 230;" xml:space="preserve">
<style type="text/css">
	.st0{fill:#00A3F4;}
	.st1{fill:#460048;}
	.st2{fill:#00DBFF;}
	.st3{fill:#0B5F78;}
	.st4{fill:#BF0080;}
	.st5{fill:#FF1400;}
	.st6{fill:#008DFF;}
	.st7{fill:#C900FF;}
	.st8{fill:#FB9824;}
	.st9{fill:#600463;}
	.st10{fill:#62FF00;}
	.st11{fill:#005FFF;}
	.st12{fill:#FFCE00;}
	.st13{fill:#A58DF3;}
	.st14{fill:#F383FF;}
	.st15{fill:#FF9269;}
	.st16{fill:#32897F;}
</style>
<g id="Layer_1">
</g>
<g id="Layer_2">
</g>
<g id="Layer_3">
</g>
<g id="Layer_4">
	<path class="st4" d="M177.18,69.99c6.23-0.03,11.88,1.8,16.94,5.4c2.21,1.57,2.81,3.52,1.67,5.14c-1.12,1.59-3.06,1.58-5.4-0.01
		c-7.38-5.01-15.19-5.84-23.16-1.8c-7.73,3.91-11.92,10.47-12.44,19.13c-0.53,8.98,4.87,17.56,13.14,21.38
		c8.34,3.85,18.16,2.19,24.95-4.23c0.39-0.37,0.73-0.77,1.12-1.14c1.52-1.47,3.19-1.7,4.69-0.15c1.4,1.45,1.09,3.1-0.21,4.52
		c-4.82,5.25-10.82,8.3-17.87,9.08c-17.18,1.9-31.91-11.17-32.18-28.46C148.18,83.16,161.24,70.06,177.18,69.99z M217.65,109.97
		c0.19-0.68,0.57-1.56,0.31-2.04c-0.61-1.13-1.43-2.71-2.4-2.91c-1.02-0.2-2.44,0.85-3.44,1.65c-0.51,0.4-0.49,1.47-0.72,2.23
		c-4.58,15.28-18.68,25.73-34.45,25.55c-15.85-0.18-29.7-10.86-33.97-26.2c-0.19-0.68-0.19-1.67-0.65-1.97
		c-1.07-0.72-2.44-1.65-3.53-1.47c-0.89,0.15-1.8,1.68-2.19,2.77c-0.28,0.79,0.19,1.9,0.46,2.82c5.21,17.95,21.2,30.05,39.91,30.24
		C195.89,140.84,212.64,128.21,217.65,109.97z M216.32,83.51c-6.1-16.16-22.14-26.89-39.85-26.69
		c-17.1,0.19-32.78,11.37-38.49,27.46c-0.27,0.75-0.81,1.65-0.6,2.27c0.41,1.22,1.04,2.91,1.99,3.25c0.95,0.34,2.51-0.58,3.59-1.27
		c0.54-0.34,0.62-1.41,0.92-2.15c5.63-13.69,15.73-21.8,30.51-22.99c14.66-1.18,25.94,5.08,33.67,17.57
		c1.2,1.94,1.74,4.31,3.03,6.18c0.7,1.01,2.35,1.9,3.54,1.86c0.96-0.03,1.87-1.54,2.66-2.26C216.83,85.19,216.63,84.33,216.32,83.51
		z M175.78,89.66c-3.59,4.36-3.07,10.65,1.14,14.35c4.21,3.7,10.51,3.49,14.37-0.71c2.41-2.62,5.16-3.84,8.69-3.69
		c3.1,0.13,6.21,0.15,9.31-0.01c4.05-0.21,7.34,0.87,10.17,4.03c3.09,3.45,8.15,3.88,12.24,1.63c3.98-2.19,6.04-6.79,4.98-11.31
		c-0.96-4.07-3.55-6.79-7.57-7.74c-4.21-0.99-8.08,0.1-10.64,3.72c-2.57,3.63-5.93,5.13-10.2,5.11c-2.13-0.01-4.26,0.01-6.38,0
		c-4.05-0.03-7.39-1.39-9.77-4.89c-1.92-2.81-4.74-4.17-8.78-4.24C180.63,85.87,177.88,87.11,175.78,89.66z M189.47,96.44
		c-0.12,3.02-2.72,5.57-5.68,5.55c-3.11-0.02-5.78-2.71-5.74-5.79c0.04-3.15,2.67-5.69,5.83-5.63
		C187.05,90.64,189.59,93.3,189.47,96.44z M226.66,90.58c3.04,0.01,5.6,2.49,5.69,5.51c0.09,3.08-2.52,5.82-5.63,5.9
		c-3.09,0.08-5.76-2.55-5.78-5.69C220.93,93.11,223.47,90.57,226.66,90.58z M140.7,100.29c1.81-0.06,4.19,0.4,4.15-2.37
		c-0.03-2.56-2.28-2.27-4.02-2.21c-3.79,0.14-6.66-1.37-8.79-4.48c-1.98-2.89-4.75-4.48-8.26-4.61c-4.78-0.19-9.06,2.98-10.36,7.55
		c-1.25,4.42,0.77,9.49,4.68,11.74c4.23,2.43,9.48,1.77,12.89-1.92c2.39-2.59,5.06-4.1,8.27-3.69
		C139.99,100.29,140.34,100.3,140.7,100.29z M123.46,91.23c3.07,0.03,5.76,2.8,5.69,5.85c-0.08,3-2.65,5.54-5.65,5.59
		c-3.16,0.05-5.76-2.53-5.76-5.69C117.73,93.84,120.35,91.21,123.46,91.23z"/>
</g>
<g id="Layer_5">
</g>
<g id="Layer_6">
</g>
<g id="Layer_7">
</g>
<g id="Layer_8">
</g>
<g id="Layer_9">
</g>
<g id="Layer_10">
</g>
<g id="Layer_11">
</g>
<g id="Layer_12">
</g>
<g id="Layer_13">
</g>
<g id="Layer_14">
</g>
<g id="Layer_15">
</g>
</svg>
