<?xml version="1.0" encoding="utf-8"?>
<!-- Generator: Adobe Illustrator 27.8.1, SVG Export Plug-In . SVG Version: 6.00 Build 0)  -->
<svg version="1.1" xmlns="http://www.w3.org/2000/svg" xmlns:xlink="http://www.w3.org/1999/xlink" x="0px" y="0px"
	 viewBox="0 0 350 230" style="enable-background:new 0 0 350 230;" xml:space="preserve">
<style type="text/css">
	.st0{fill:#00A3F4;}
	.st1{fill:#460048;}
	.st2{fill:#00DBFF;}
	.st3{fill:#0B5F78;}
	.st4{fill:#BF0080;}
	.st5{fill:#FF1400;}
	.st6{fill:#008DFF;}
	.st7{fill:#C900FF;}
	.st8{fill:#FB9824;}
	.st9{fill:#600463;}
	.st10{fill:#62FF00;}
	.st11{fill:#005FFF;}
	.st12{fill:#FFCE00;}
	.st13{fill:#A58DF3;}
	.st14{fill:#F383FF;}
	.st15{fill:#FF9269;}
	.st16{fill:#32897F;}
</style>
<g id="Layer_1">
</g>
<g id="Layer_2">
</g>
<g id="Layer_3">
</g>
<g id="Layer_4">
</g>
<g id="Layer_5">
	<g>
		<path class="st5" d="M141.55,98.27c-2.61,0-5.14,0-7.85,0c0.25-1.27,0.42-2.5,0.74-3.68c5.52-20.54,18.6-33.41,39.28-38.42
			c1.95-0.47,3.2-0.97,4.13-3.04c2.3-5.11,8.14-7.49,13.52-5.98c5.19,1.46,8.86,6.51,8.52,11.75c-0.37,5.8-4.45,10.31-10.08,11.12
			c-4.76,0.68-9.47-1.65-11.85-5.93c-0.36-0.64-0.71-0.78-1.39-0.65C159.15,66.65,145.43,80,141.8,97.27
			C141.73,97.58,141.65,97.88,141.55,98.27z M192.11,58.54c0.06-2.21-1.69-4.03-3.89-4.06c-2.09-0.03-3.9,1.69-3.97,3.78
			c-0.07,2.21,1.66,4.06,3.84,4.12C190.24,62.43,192.06,60.69,192.11,58.54z M208.54,85.41c2.55-0.57,5.02-1.13,7.66-1.72
			c0.03,1.3,0.14,2.53,0.09,3.76c-0.89,21.25-10.83,36.67-29.91,46.09c-1.8,0.89-2.91,1.65-3.36,3.88
			c-1.12,5.49-6.3,9.09-11.88,8.79c-5.39-0.29-10.07-4.41-10.89-9.6c-0.91-5.74,2.09-11.03,7.4-13.06c4.49-1.71,9.6-0.47,12.86,3.19
			c0.49,0.55,0.87,0.6,1.5,0.33c16.29-6.94,26.76-22.97,26.52-40.62C208.52,86.13,208.53,85.81,208.54,85.41z M167.91,135.25
			c0.43,2.17,2.53,3.56,4.68,3.11c2.05-0.43,3.43-2.5,3.04-4.55c-0.42-2.17-2.51-3.6-4.65-3.17
			C168.89,131.05,167.49,133.15,167.91,135.25z"/>
		<path class="st6" d="M161.62,83.65c-0.75-0.79-1.44-1.51-2.33-2.44c0.22-0.14,0.52-0.28,0.76-0.49
			c6.54-5.58,13.96-7.11,21.95-4.05c8.01,3.06,12.6,9.15,13.54,17.7c1.29,11.82-7.38,22.26-19.19,23.33
			c-5.12,0.46-9.81-0.77-14.05-3.66c-0.44-0.3-0.77-0.36-1.28-0.14c-2.03,0.84-4.25,0.27-5.63-1.38c-1.31-1.56-1.44-3.96-0.33-5.73
			c1.11-1.77,3.22-2.57,5.34-2.03c2.05,0.52,3.46,2.23,3.61,4.43c0.02,0.29,0.04,0.62-0.06,0.88c-0.38,0.93,0.11,1.35,0.83,1.81
			c11.41,7.13,26.47-0.36,27.61-13.75c0.95-11.07-8.04-20.34-19.13-19.68c-4.06,0.24-7.65,1.73-10.73,4.39
			C162.26,83.08,161.97,83.34,161.62,83.65z M160.82,109.42c0-0.91-0.81-1.69-1.73-1.66c-0.84,0.02-1.56,0.76-1.57,1.61
			c-0.01,0.92,0.79,1.74,1.67,1.72C160.07,111.07,160.82,110.3,160.82,109.42z"/>
	</g>
</g>
<g id="Layer_6">
</g>
<g id="Layer_7">
</g>
<g id="Layer_8">
</g>
<g id="Layer_9">
</g>
<g id="Layer_10">
</g>
<g id="Layer_11">
</g>
<g id="Layer_12">
</g>
<g id="Layer_13">
</g>
<g id="Layer_14">
</g>
<g id="Layer_15">
</g>
</svg>
