<?xml version="1.0" encoding="utf-8"?>
<!-- Generator: Adobe Illustrator 27.8.1, SVG Export Plug-In . SVG Version: 6.00 Build 0)  -->
<svg version="1.1" xmlns="http://www.w3.org/2000/svg" xmlns:xlink="http://www.w3.org/1999/xlink" x="0px" y="0px"
	 viewBox="0 0 350 230" style="enable-background:new 0 0 350 230;" xml:space="preserve">
<style type="text/css">
	.st0{fill:#00A3F4;}
	.st1{fill:#460048;}
	.st2{fill:#00DBFF;}
	.st3{fill:#0B5F78;}
	.st4{fill:#BF0080;}
	.st5{fill:#FF1400;}
	.st6{fill:#008DFF;}
	.st7{fill:#C900FF;}
	.st8{fill:#FB9824;}
	.st9{fill:#600463;}
	.st10{fill:#62FF00;}
	.st11{fill:#005FFF;}
	.st12{fill:#FFCE00;}
	.st13{fill:#A58DF3;}
	.st14{fill:#F383FF;}
	.st15{fill:#FF9269;}
	.st16{fill:#32897F;}
</style>
<g id="Layer_1">
</g>
<g id="Layer_2">
</g>
<g id="Layer_3">
</g>
<g id="Layer_4">
</g>
<g id="Layer_5">
</g>
<g id="Layer_6">
</g>
<g id="Layer_7">
</g>
<g id="Layer_8">
	<path class="st9" d="M161.18,151.21c-10.56-3.81-18.53-10.27-23.89-19.81c-11.35-20.2-5.06-45.45,14.38-57.98
		c2.78-1.8,3.4-5.53,1.35-8.2c-1.61-2.09-1.83-4.76-0.59-6.94c1.23-2.16,3.71-3.26,6.34-2.81c2.28,0.38,4.41,2.17,4.59,4.56
		c0.12,1.62-0.6,3.31-1.03,4.95c-0.32,1.24-1.11,2.45-1.11,3.67c-0.06,26.99-0.04,53.99-0.04,80.98
		C161.18,150.01,161.18,150.41,161.18,151.21z M153.89,139.04c0-19.6,0-38.57,0-58.12c-9.96,8.09-15.07,17.93-14.66,30.32
		C139.6,122.65,144.59,131.73,153.89,139.04z M161.28,61.26c-0.03-2.01-1.67-3.66-3.65-3.66c-1.99,0-3.66,1.65-3.68,3.64
		c-0.03,2.06,1.77,3.86,3.78,3.79C159.68,64.96,161.31,63.23,161.28,61.26z M171.47,74.23c-2.22,0.36-4.22,0.69-6.34,1.04
		c-0.04-0.79-0.09-1.5-0.1-2.2c-0.04-5.2-0.03-5.16,5.1-6.23c0.59-0.12,1.43-1.05,1.45-1.62c0.12-4.38,0.11-8.76,0.03-13.14
		c-0.01-0.7-0.46-1.48-0.91-2.07c-2.09-2.76-1.99-6.26,0.33-8.44c2.27-2.13,5.98-2.13,8.25,0.01c2.33,2.21,2.37,5.63,0.33,8.45
		c-0.63,0.87-0.96,2.15-0.96,3.24c-0.04,32.19-0.03,64.37-0.02,96.56c0,1.1,0,2.2,0,3.96c-4.39-0.44-8.47-0.82-12.53-1.31
		c-0.4-0.05-0.99-0.8-1.01-1.25c-0.11-2.13-0.05-4.27-0.05-6.47c2.24,0.38,4.24,0.71,6.44,1.08
		C171.47,121.86,171.47,98.18,171.47,74.23z M175.22,49.66c1.87-0.07,3.66-1.88,3.66-3.71c0-1.95-1.9-3.83-3.84-3.78
		c-1.92,0.05-3.79,2.07-3.66,3.95C171.52,47.98,173.41,49.73,175.22,49.66z M189.45,68.42c-0.42-1.25-0.61-2.64-1.29-3.74
		c-1.56-2.52-1.48-5.67,0.46-7.4c2.22-1.99,5.49-2.19,7.66-0.46c2.34,1.87,2.97,5.21,1.06,7.7c-1.19,1.55-1.37,3.08-1.37,4.86
		c0.02,25.26-0.02,50.52,0.06,75.77c0.01,2.18-0.6,3.41-2.68,4.06c-2.95,0.92-5.86,2-8.79,3c-1.48,0.5-2.1-0.11-2.02-1.61
		c0.03-0.64,0.1-1.29-0.01-1.91c-0.46-2.52,0.84-3.5,3.09-4.07c3.64-0.91,3.62-1.01,3.62-4.61c0-20.08-0.07-40.16,0.08-60.24
		c0.02-2.64-0.97-3.7-3.22-4.34c-1.18-0.34-3.01-0.75-3.25-1.53c-0.53-1.67-0.28-3.61-0.17-5.42c0.02-0.26,1.09-0.71,1.62-0.64
		c1.48,0.21,2.93,0.65,4.39,1.01C188.92,68.71,189.19,68.56,189.45,68.42z M192.68,65.23c2.01-0.02,4-2.04,3.98-4.02
		c-0.02-1.97-2.13-3.96-4.13-3.9c-1.96,0.06-3.7,1.91-3.71,3.94C188.81,63.51,190.51,65.26,192.68,65.23z M200.93,144.77
		c11.9-9.29,18.01-21.62,17.37-36.72c-0.58-13.58-6.63-24.66-18.14-33.26c0,2.41,0.1,4.15-0.02,5.88c-0.14,2.02,0.45,3.53,1.84,5.11
		c12.87,14.69,12.5,35.1-0.74,49.4c-0.46,0.5-0.97,1.18-0.99,1.8c-0.11,2.52-0.05,5.05-0.05,7.57
		C200.43,144.62,200.68,144.7,200.93,144.77z"/>
</g>
<g id="Layer_9">
</g>
<g id="Layer_10">
</g>
<g id="Layer_11">
</g>
<g id="Layer_12">
</g>
<g id="Layer_13">
</g>
<g id="Layer_14">
</g>
<g id="Layer_15">
</g>
</svg>
