<?xml version="1.0" encoding="utf-8"?>
<!-- Generator: Adobe Illustrator 27.8.1, SVG Export Plug-In . SVG Version: 6.00 Build 0)  -->
<svg version="1.1" xmlns="http://www.w3.org/2000/svg" xmlns:xlink="http://www.w3.org/1999/xlink" x="0px" y="0px"
	 viewBox="0 0 350 230" style="enable-background:new 0 0 350 230;" xml:space="preserve">
<style type="text/css">
	.st0{fill:#00A3F4;}
	.st1{fill:#460048;}
	.st2{fill:#00DBFF;}
	.st3{fill:#0B5F78;}
	.st4{fill:#BF0080;}
	.st5{fill:#FF1400;}
	.st6{fill:#008DFF;}
	.st7{fill:#C900FF;}
	.st8{fill:#FB9824;}
	.st9{fill:#600463;}
	.st10{fill:#62FF00;}
	.st11{fill:#005FFF;}
	.st12{fill:#FFCE00;}
	.st13{fill:#A58DF3;}
	.st14{fill:#F383FF;}
	.st15{fill:#FF9269;}
	.st16{fill:#32897F;}
</style>
<g id="Layer_1">
</g>
<g id="Layer_2">
</g>
<g id="Layer_3">
</g>
<g id="Layer_4">
</g>
<g id="Layer_5">
</g>
<g id="Layer_6">
</g>
<g id="Layer_7">
</g>
<g id="Layer_8">
</g>
<g id="Layer_9">
	<g>
		<path class="st10" d="M44.71,114.98c0.23-7.84,1.33-15.34,3.5-22.69c0.12-0.41,0.61-0.9,1.02-1.02
			c7.34-2.13,14.84-3.26,22.62-3.49c0,9.1,0,18.07,0,27.2C62.9,114.98,53.94,114.98,44.71,114.98z M37.66,115.02
			c0.91-6.91,1.81-13.69,2.73-20.67c-9.26,4.53-17.83,9.65-21.12,20.67C25.67,115.02,31.74,115.02,37.66,115.02z M71.9,80.75
			c0-6.02,0-12.04,0-18.07c-7.13,0.56-16.79,10.41-20.41,20.74C58.32,82.53,65.1,81.64,71.9,80.75z M42.39,86.44
			c0.5-0.19,0.91-0.86,1.16-1.41c1.15-2.51,2.04-5.15,3.37-7.55c2.08-3.76,4.44-7.36,6.73-11.11C39.58,72.54,29.47,82.59,23.5,96.78
			C29.23,92.26,35.61,89.01,42.39,86.44z"/>
		<path class="st11" d="M71.97,115.06c9.04,0,17.94,0,27.27,0c-0.34,3.6-0.51,7.19-1.07,10.71c-0.6,3.82-1.53,7.59-2.4,11.36
			c-0.14,0.6-0.66,1.42-1.18,1.58c-7.32,2.22-14.84,3.25-22.62,3.53C71.97,133.14,71.97,124.18,71.97,115.06z M103.43,135.68
			c9.23-4.54,17.83-9.63,21.1-20.66c-6.4,0-12.47,0-18.37,0C105.24,122.02,104.35,128.76,103.43,135.68z M71.9,149.26
			c0,6,0,12.03,0,18.06c7.5-0.57,16.82-10.67,20.3-20.71C85.49,147.48,78.72,148.37,71.9,149.26z M106.59,141.26
			c-4.14,1.72-6.68,3.97-8.38,8.26c-1.96,4.97-5.16,9.45-7.72,13.97c13.77-5.99,23.85-16.08,29.88-29.9
			C115.85,136.17,111.44,139.24,106.59,141.26z"/>
	</g>
</g>
<g id="Layer_10">
</g>
<g id="Layer_11">
</g>
<g id="Layer_12">
</g>
<g id="Layer_13">
</g>
<g id="Layer_14">
</g>
<g id="Layer_15">
</g>
</svg>
