<?xml version="1.0" encoding="utf-8"?>
<!-- Generator: Adobe Illustrator 27.8.1, SVG Export Plug-In . SVG Version: 6.00 Build 0)  -->
<svg version="1.1" xmlns="http://www.w3.org/2000/svg" xmlns:xlink="http://www.w3.org/1999/xlink" x="0px" y="0px"
	 viewBox="0 0 350 230" style="enable-background:new 0 0 350 230;" xml:space="preserve">
<style type="text/css">
	.st0{fill:#A07200;}
	.st1{fill:#770071;}
	.st2{fill:#03007C;}
	.st3{fill:#F98800;}
	.st4{fill:#002D2D;}
	.st5{fill:#544E00;}
	.st6{stroke:#C2932F;stroke-width:4;stroke-miterlimit:10;}
	.st7{fill:#C2932F;}
	.st8{fill:#BA3838;}
	.st9{fill:#F99300;}
	.st10{fill:#FF0000;}
	.st11{fill:#1B0121;}
	.st12{fill:#A37E33;}
	.st13{fill:#F7E0FC;}
	.st14{fill:#F0F2F5;}
	.st15{fill:#B0CEED;}
	.st16{fill:#DDDD00;}
	.st17{fill:#9700B7;}
	.st18{fill:#9700B7;stroke:#FF0000;stroke-width:4;stroke-miterlimit:10;}
	.st19{fill:#5E43FF;}
	.st20{fill:#004947;}
	.st21{fill:#C38A43;}
	.st22{fill:#600077;}
	.st23{fill:none;stroke:#003DFF;stroke-width:3;stroke-linecap:round;stroke-linejoin:round;stroke-miterlimit:10;}
</style>
<g id="Layer_1">
</g>
<g id="Layer_2">
</g>
<g id="Layer_3">
</g>
<g id="Layer_4">
</g>
<g id="Layer_5">
</g>
<g id="Layer_6">
</g>
<g id="Layer_7">
	<g>
		<path class="st8" d="M85.19,125.08l-12.5,4.74V99.48l12.5,5.31V125.08z M111.28,77.98l0.05-17.76l-37.95,38.3l12.35,5.25
			L111.28,77.98z M85.7,126.13l-12.58,4.77l38.22,38.87l-0.06-17.63L85.7,126.13z M138.7,124.98l12.5,4.97V99.64l-12.5,5.29V124.98z
			 M138.25,103.86l12.37-5.23l-37.98-38.32l-0.05,17.67L138.25,103.86z M138.27,126.05l-25.69,26.12l0.06,17.51l38.04-38.69
			L138.27,126.05z M137.1,104.35L112.57,79.6l-0.62-0.63v0.11v-0.11l-0.63,0.64l-24.43,24.65l-0.52,0.53v0.46v19.4v0.5l0.49,0.5
			l24.45,24.86l0.36,0.37l0.29,0.29l0.28-0.29l0.33-0.33l24.56-24.98l0.42-0.42v-0.6v-19.16v-0.59L137.1,104.35z"/>
		<path class="st9" d="M112.09,171.61l-0.14-0.15l-0.04,0.05l0-0.09l-39.86-40.54l-0.1,0.04v-0.15l-0.16-0.16l0.16-0.06v-32.2
			l0.39,0.17l39.58-39.93v-0.09l0.04,0.04l0.14-0.14l0,0.29l39.59,39.95l0.28-0.12v32.18l0.06,0.02l-0.06,0.06v0.29l-0.2-0.08
			l-39.67,40.35L112.09,171.61z M74.46,131.19l36.12,36.74l-0.05-15.49L85.51,127L74.46,131.19z M113.33,152.48l0.05,15.38
			l35.97-36.59l-10.91-4.34L113.33,152.48z M87.11,124.84l24.83,25.26l0.07-0.08l24.76-25.18V105.1l-24.84-25.06L87.11,105.1V124.84
			z M139.46,124.47l11,4.38v-28.07l-11,4.66V124.47z M73.43,100.62v28.12l11-4.17v-19.27L73.43,100.62z M113.35,77.67l25.08,25.31
			l10.88-4.6l-35.92-36.25L113.35,77.67z M74.69,98.26l10.87,4.62l24.98-25.2l0.04-15.63L74.69,98.26z"/>
	</g>
</g>
<g id="Layer_8">
</g>
<g id="Layer_9">
</g>
<g id="Layer_10">
</g>
<g id="Layer_11">
</g>
<g id="Layer_12">
</g>
<g id="Layer_13">
</g>
<g id="Layer_14">
</g>
<g id="Layer_15">
</g>
</svg>
