<?xml version="1.0" encoding="utf-8"?>
<!-- Generator: Adobe Illustrator 27.8.1, SVG Export Plug-In . SVG Version: 6.00 Build 0)  -->
<svg version="1.1" xmlns="http://www.w3.org/2000/svg" xmlns:xlink="http://www.w3.org/1999/xlink" x="0px" y="0px"
	 viewBox="0 0 350 230" style="enable-background:new 0 0 350 230;" xml:space="preserve">
<style type="text/css">
	.st0{fill:#A07200;}
	.st1{fill:#770071;}
	.st2{fill:#03007C;}
	.st3{fill:#F98800;}
	.st4{fill:#002D2D;}
	.st5{fill:#544E00;}
	.st6{stroke:#C2932F;stroke-width:4;stroke-miterlimit:10;}
	.st7{fill:#C2932F;}
	.st8{fill:#BA3838;}
	.st9{fill:#F99300;}
	.st10{fill:#FF0000;}
	.st11{fill:#1B0121;}
	.st12{fill:#A37E33;}
	.st13{fill:#F7E0FC;}
	.st14{fill:#F0F2F5;}
	.st15{fill:#B0CEED;}
	.st16{fill:#DDDD00;}
	.st17{fill:#9700B7;}
	.st18{fill:#9700B7;stroke:#FF0000;stroke-width:4;stroke-miterlimit:10;}
	.st19{fill:#5E43FF;}
	.st20{fill:#004947;}
	.st21{fill:#C38A43;}
	.st22{fill:#600077;}
	.st23{fill:none;stroke:#003DFF;stroke-width:3;stroke-linecap:round;stroke-linejoin:round;stroke-miterlimit:10;}
</style>
<g id="Layer_1">
	<g>
		<path class="st0" d="M239.06,93.51c0.02-0.04,0.03-0.08,0.04-0.12c0.01-0.02,0.02-0.04,0.02-0.06c0-0.02,0-0.05,0-0.08
			c0.01-0.05,0.01-0.11,0-0.16c0-0.03,0-0.05,0-0.08c0-0.02-0.02-0.04-0.02-0.06c-0.01-0.04-0.02-0.08-0.04-0.12
			c-0.01-0.02-0.02-0.04-0.03-0.07c-0.01-0.02-0.02-0.04-0.03-0.06c0,0,0-0.01,0-0.01c-0.01-0.01-0.02-0.02-0.04-0.03
			c-0.01-0.01-0.02-0.03-0.03-0.05l-38.31-43.31c-0.16-0.18-0.38-0.28-0.62-0.28h-50.02c-0.24,0-0.46,0.1-0.62,0.28l-38.31,43.31
			c-0.01,0.01-0.02,0.03-0.03,0.05c-0.01,0.01-0.03,0.02-0.04,0.03c0,0,0,0.01,0,0.01c-0.01,0.02-0.02,0.04-0.03,0.06
			c-0.01,0.02-0.02,0.04-0.03,0.06c-0.02,0.04-0.03,0.08-0.04,0.12c-0.01,0.02-0.02,0.04-0.02,0.06c0,0.03,0,0.05,0,0.08
			c-0.01,0.05-0.01,0.11,0,0.16c0,0.03,0,0.05,0,0.08c0,0.02,0.02,0.04,0.02,0.06c0.01,0.04,0.02,0.08,0.04,0.12
			c0.01,0.02,0.02,0.04,0.03,0.06c0.01,0.02,0.02,0.04,0.03,0.06c0,0,0,0.01,0,0.01c0.01,0.01,0.02,0.02,0.03,0.03
			c0.01,0.02,0.02,0.04,0.03,0.05l38.31,43.32c0.16,0.18,0.38,0.28,0.62,0.28h50.02c0.24,0,0.46-0.1,0.62-0.28l38.31-43.32
			c0.01-0.02,0.02-0.04,0.03-0.05c0.01-0.01,0.02-0.02,0.03-0.03c0,0,0-0.01,0-0.01c0.01-0.02,0.02-0.04,0.03-0.05
			C239.04,93.55,239.05,93.53,239.06,93.51z M201.13,117.61l-23.62-23.62h20.21c0.48,1.47,2.27,2.45,3.43,3.07
			c5.12,2.59,10.51,3.67,15.71,3.67c4.06,0,7.99-0.68,11.58-1.79L201.13,117.61z M201.89,90.75c14.01-7.08,28.2-1.98,34.76,2.28
			l0.2,0.14l-0.21,0.14c-6.57,4.26-20.76,9.36-34.74,2.29c-0.87-0.47-2.67-1.44-2.67-2.36C199.23,92.92,199.49,92.04,201.89,90.75z
			 M201.14,89.29c-0.01,0-0.01,0.01-0.02,0.01c-1.85,1-2.95,2.01-3.35,3.05H176.8l23.91-23.91l27.71,18.96
			C220.23,84.85,210.26,84.67,201.14,89.29z M174.93,97.28c0.32,0,1.2,0.26,2.49,2.66c7.15,14.16,1.86,28.52-2.42,34.99
			c-4.28-6.47-9.58-20.83-2.43-34.97C173.04,99.08,174.01,97.28,174.93,97.28z M177.42,86.41c-1.3,2.4-2.17,2.66-2.49,2.66
			c-0.92,0-1.9-1.81-2.35-2.65c-7.15-14.16-1.86-28.52,2.42-34.99C179.29,57.89,184.58,72.25,177.42,86.41z M174.18,90.58v0.08
			l-0.14-0.14C174.09,90.54,174.13,90.57,174.18,90.58z M175.82,91v-0.46c1.05-0.4,2.05-1.5,3.06-3.35c0-0.01,0.01-0.01,0.01-0.02
			c6.08-12.02,3.84-25.52-1.17-34.45l21.6,14.78L175.82,91z M171.12,87.18c0.16,0.29,0.34,0.63,0.55,0.98l-20.8-20.8l21.41-14.64
			C167.27,61.64,165.04,75.14,171.12,87.18z M149.49,68.3l24.05,24.05h-21.3c-0.4-1.05-1.5-2.05-3.35-3.05
			c-0.01,0-0.01-0.01-0.02-0.01c-9.12-4.61-19.09-4.43-27.28-1.89L149.49,68.3z M113.14,93.17l0.19-0.13
			c6.56-4.26,20.76-9.37,34.78-2.29c2.4,1.3,2.66,2.17,2.66,2.49c0,0.92-1.81,1.9-2.65,2.35c-14.02,7.08-28.22,1.97-34.78-2.29
			L113.14,93.17z M133.14,100.73c5.2,0,10.6-1.08,15.73-3.68c1.14-0.61,2.93-1.59,3.41-3.06h20.54l-23.76,23.76l-27.5-18.81
			C125.16,100.05,129.09,100.73,133.14,100.73z M174.18,94.97v0.79c-1.47,0.48-2.44,2.27-3.07,3.43
			c-6.07,12.02-3.84,25.52,1.17,34.44l-21.83-14.94L174.18,94.97z M178.89,99.18c0-0.01-0.01-0.01-0.01-0.02
			c-1-1.85-2.01-2.95-3.06-3.35v-1.17l23.93,23.93l-22.03,15.07C182.73,124.7,184.97,111.2,178.89,99.18z M233.3,88.74l-55.64-38.06
			h21.98L233.3,88.74z M150.36,50.68h21.98L116.7,88.74L150.36,50.68z M116.7,97.6l55.64,38.06h-21.98L116.7,97.6z M199.64,135.67
			h-21.98l23.45-16.04c0.02,0,0.04,0.01,0.06,0.01c0.21,0,0.42-0.08,0.58-0.24c0.1-0.1,0.16-0.22,0.19-0.34L233.3,97.6
			L199.64,135.67z"/>
	</g>
</g>
<g id="Layer_2">
</g>
<g id="Layer_3">
</g>
<g id="Layer_4">
</g>
<g id="Layer_5">
</g>
<g id="Layer_6">
</g>
<g id="Layer_7">
</g>
<g id="Layer_8">
</g>
<g id="Layer_9">
</g>
<g id="Layer_10">
</g>
<g id="Layer_11">
</g>
<g id="Layer_12">
</g>
<g id="Layer_13">
</g>
<g id="Layer_14">
</g>
<g id="Layer_15">
</g>
</svg>
