<?xml version="1.0" encoding="utf-8"?>
<!-- Generator: Adobe Illustrator 27.8.1, SVG Export Plug-In . SVG Version: 6.00 Build 0)  -->
<svg version="1.1" xmlns="http://www.w3.org/2000/svg" xmlns:xlink="http://www.w3.org/1999/xlink" x="0px" y="0px"
	 viewBox="0 0 350 230" style="enable-background:new 0 0 350 230;" xml:space="preserve">
<style type="text/css">
	.st0{fill:#A07200;}
	.st1{fill:#770071;}
	.st2{fill:#03007C;}
	.st3{fill:#F98800;}
	.st4{fill:#002D2D;}
	.st5{fill:#544E00;}
	.st6{stroke:#C2932F;stroke-width:4;stroke-miterlimit:10;}
	.st7{fill:#C2932F;}
	.st8{fill:#BA3838;}
	.st9{fill:#F99300;}
	.st10{fill:#FF0000;}
	.st11{fill:#1B0121;}
	.st12{fill:#A37E33;}
	.st13{fill:#F7E0FC;}
	.st14{fill:#F0F2F5;}
	.st15{fill:#B0CEED;}
	.st16{fill:#DDDD00;}
	.st17{fill:#9700B7;}
	.st18{fill:#9700B7;stroke:#FF0000;stroke-width:4;stroke-miterlimit:10;}
	.st19{fill:#5E43FF;}
	.st20{fill:#004947;}
	.st21{fill:#C38A43;}
	.st22{fill:#600077;}
	.st23{fill:none;stroke:#003DFF;stroke-width:3;stroke-linecap:round;stroke-linejoin:round;stroke-miterlimit:10;}
</style>
<g id="Layer_1">
</g>
<g id="Layer_2">
</g>
<g id="Layer_3">
</g>
<g id="Layer_4">
</g>
<g id="Layer_5">
</g>
<g id="Layer_6">
</g>
<g id="Layer_7">
</g>
<g id="Layer_8">
</g>
<g id="Layer_9">
</g>
<g id="Layer_10">
</g>
<g id="Layer_11">
</g>
<g id="Layer_12">
	<g>
		<g>
			<g>
				<path class="st17" d="M197.59,132.54c-6.68,0-14.13-2.39-21.54-7.1c-0.7-0.44-0.91-1.37-0.46-2.07c0.45-0.7,1.38-0.91,2.07-0.46
					c11.87,7.55,23.66,8.73,31.54,3.17c12.9-9.1,11.53-33.32-3.05-53.98c-14.58-20.66-36.93-30.07-49.83-20.97
					c-7.88,5.56-10.72,17.07-7.59,30.78c0.18,0.81-0.32,1.61-1.13,1.8c-0.81,0.19-1.61-0.32-1.8-1.13
					c-3.41-14.94-0.13-27.61,8.78-33.9c14.25-10.05,38.48-0.33,54.01,21.69c15.53,22.01,16.58,48.1,2.32,58.16
					C207.12,131.21,202.57,132.54,197.59,132.54z"/>
			</g>
		</g>
		<g>
			<g>
				<path class="st17" d="M188.36,139.06c-5.51,0-11.56-1.63-17.72-4.88c-1.19-0.63-2.38-1.31-3.54-2.04
					c-0.7-0.44-0.91-1.37-0.47-2.07c0.44-0.7,1.37-0.91,2.07-0.47c1.1,0.69,2.22,1.34,3.34,1.93c10.71,5.65,20.89,6.04,27.93,1.07
					c12.9-9.1,11.53-33.32-3.04-53.98c-14.58-20.66-36.94-30.07-49.83-20.96c-7.81,5.51-10.67,16.9-7.66,30.47
					c0.18,0.81-0.33,1.61-1.14,1.79c-0.81,0.18-1.61-0.33-1.79-1.14c-3.29-14.79,0.02-27.34,8.86-33.57
					c14.25-10.05,38.48-0.33,54.02,21.69c15.53,22.01,16.57,48.1,2.32,58.16C197.9,137.72,193.35,139.06,188.36,139.06z"/>
			</g>
		</g>
		<g>
			<g>
				<g>
					<path class="st17" d="M156.97,134.74c-8.77,0-17.42-4.11-22.85-11.81c-8.87-12.58-5.86-30.02,6.71-38.9
						c6.09-4.3,13.49-5.97,20.84-4.7c7.35,1.27,13.76,5.32,18.06,11.41c4.3,6.09,5.97,13.49,4.7,20.84
						c-1.27,7.35-5.32,13.76-11.41,18.06C168.14,133.08,162.53,134.74,156.97,134.74z M156.87,81.92c-5.1,0-10.06,1.56-14.31,4.56
						c-11.22,7.92-13.91,23.49-5.99,34.72c7.92,11.22,23.49,13.91,34.72,5.99c5.44-3.84,9.05-9.56,10.19-16.12
						c1.13-6.56-0.36-13.16-4.19-18.6c-3.84-5.44-9.56-9.05-16.12-10.19C159.73,82.04,158.3,81.92,156.87,81.92z"/>
				</g>
			</g>
			<g>
				<path class="st18" d="M149.17,122.86c-0.52,0-1-0.27-1.27-0.71l-8.7-13.99c-0.28-0.46-0.3-1.03-0.05-1.5l7.76-14.53
					c0.25-0.47,0.74-0.77,1.27-0.79l16.46-0.54c0.53-0.03,1.04,0.25,1.32,0.71l8.7,13.99c0.28,0.46,0.3,1.03,0.05,1.5l-7.76,14.53
					c-0.25,0.47-0.74,0.77-1.27,0.79l-16.46,0.54C149.2,122.86,149.18,122.86,149.17,122.86z M142.2,107.32l7.79,12.52l14.73-0.48
					l6.95-13l-7.79-12.52l-14.73,0.49L142.2,107.32z"/>
			</g>
		</g>
	</g>
</g>
<g id="Layer_13">
</g>
<g id="Layer_14">
</g>
<g id="Layer_15">
</g>
</svg>
