<?xml version="1.0" encoding="utf-8"?>
<!-- Generator: Adobe Illustrator 27.8.1, SVG Export Plug-In . SVG Version: 6.00 Build 0)  -->
<svg version="1.1" xmlns="http://www.w3.org/2000/svg" xmlns:xlink="http://www.w3.org/1999/xlink" x="0px" y="0px"
	 viewBox="0 0 350 230" style="enable-background:new 0 0 350 230;" xml:space="preserve">
<style type="text/css">
	.st0{fill:#A07200;}
	.st1{fill:#770071;}
	.st2{fill:#03007C;}
	.st3{fill:#F98800;}
	.st4{fill:#002D2D;}
	.st5{fill:#544E00;}
	.st6{stroke:#C2932F;stroke-width:4;stroke-miterlimit:10;}
	.st7{fill:#C2932F;}
	.st8{fill:#BA3838;}
	.st9{fill:#F99300;}
	.st10{fill:#FF0000;}
	.st11{fill:#1B0121;}
	.st12{fill:#A37E33;}
	.st13{fill:#F7E0FC;}
	.st14{fill:#F0F2F5;}
	.st15{fill:#B0CEED;}
	.st16{fill:#DDDD00;}
	.st17{fill:#9700B7;}
	.st18{fill:#9700B7;stroke:#FF0000;stroke-width:4;stroke-miterlimit:10;}
	.st19{fill:#5E43FF;}
	.st20{fill:#004947;}
	.st21{fill:#C38A43;}
	.st22{fill:#600077;}
	.st23{fill:none;stroke:#003DFF;stroke-width:3;stroke-linecap:round;stroke-linejoin:round;stroke-miterlimit:10;}
</style>
<g id="Layer_1">
</g>
<g id="Layer_2">
</g>
<g id="Layer_3">
</g>
<g id="Layer_4">
</g>
<g id="Layer_5">
</g>
<g id="Layer_6">
</g>
<g id="Layer_7">
</g>
<g id="Layer_8">
</g>
<g id="Layer_9">
</g>
<g id="Layer_10">
</g>
<g id="Layer_11">
</g>
<g id="Layer_12">
</g>
<g id="Layer_13">
	<g>
		<path class="st19" d="M168.77,63c-0.33,0-0.66-0.11-0.94-0.33l-13.32-10.75c-0.64-0.52-0.75-1.46-0.22-2.11
			c0.52-0.64,1.46-0.75,2.11-0.22l13.32,10.75c0.64,0.52,0.75,1.46,0.22,2.11C169.64,62.81,169.2,63,168.77,63z M181.96,62.85
			l13.55-10.94c0.64-0.52,0.75-1.46,0.22-2.11c-0.52-0.64-1.46-0.75-2.11-0.22l-13.55,10.94c-0.64,0.52-0.75,1.46-0.22,2.11
			c0.3,0.37,0.73,0.56,1.17,0.56C181.35,63.18,181.68,63.08,181.96,62.85z M176.51,59.79V43.54c0-0.83-0.67-1.5-1.5-1.5
			s-1.5,0.67-1.5,1.5v16.24c0,0.83,0.67,1.5,1.5,1.5S176.51,60.61,176.51,59.79z"/>
		<g>
			<g>
				<path class="st20" d="M175.01,128.78l-17.36-10.02V98.71l17.36-10.02l17.36,10.02v20.04L175.01,128.78z M160.65,117.02
					l14.36,8.29l14.36-8.29v-16.58l-14.36-8.29l-14.36,8.29V117.02z"/>
			</g>
			<g>
				<path class="st20" d="M175.01,150.23l-35.94-20.75v-41.5l35.94-20.75l35.94,20.75v41.5L175.01,150.23z M142.07,127.75
					l32.94,19.02l32.94-19.02V89.72L175.01,70.7l-32.94,19.02V127.75z"/>
			</g>
			<g>
				
					<rect x="189.43" y="92.71" transform="matrix(0.866 -0.5001 0.5001 0.866 -20.2901 112.7147)" class="st20" width="21.45" height="3"/>
			</g>
			<g>
				<rect x="173.51" y="68.97" class="st20" width="3" height="21.45"/>
			</g>
			<g>
				<rect x="148.36" y="83.49" transform="matrix(0.5 -0.866 0.866 0.5 -6.6615 176.8897)" class="st20" width="3" height="21.45"/>
			</g>
			<g>
				
					<rect x="139.13" y="121.75" transform="matrix(0.866 -0.5001 0.5001 0.866 -41.5503 91.4557)" class="st20" width="21.45" height="3"/>
			</g>
			<g>
				<rect x="173.51" y="127.04" class="st20" width="3" height="21.45"/>
			</g>
			<g>
				
					<rect x="198.65" y="112.52" transform="matrix(0.5 -0.866 0.866 0.5 -6.6611 234.9647)" class="st20" width="3" height="21.45"/>
			</g>
			<g>
				<path class="st20" d="M142.07,115.98h-28.85c-4.08,0-7.39-3.32-7.39-7.39s3.32-7.39,7.39-7.39h28.85V115.98z M113.22,104.2
					c-2.42,0-4.39,1.97-4.39,4.39s1.97,4.39,4.39,4.39h25.85v-8.79H113.22z"/>
			</g>
			<g>
				<path class="st20" d="M236.78,115.98h-28.85V101.2h28.85c4.08,0,7.39,3.32,7.39,7.39S240.86,115.98,236.78,115.98z
					 M210.93,112.98h25.85c2.42,0,4.39-1.97,4.39-4.39s-1.97-4.39-4.39-4.39h-25.85V112.98z"/>
			</g>
		</g>
	</g>
</g>
<g id="Layer_14">
</g>
<g id="Layer_15">
</g>
</svg>
