<?xml version="1.0" encoding="utf-8"?>
<!-- Generator: Adobe Illustrator 27.8.1, SVG Export Plug-In . SVG Version: 6.00 Build 0)  -->
<svg version="1.1" xmlns="http://www.w3.org/2000/svg" xmlns:xlink="http://www.w3.org/1999/xlink" x="0px" y="0px"
	 viewBox="0 0 350 230" style="enable-background:new 0 0 350 230;" xml:space="preserve">
<style type="text/css">
	.st0{fill:#A07200;}
	.st1{fill:#770071;}
	.st2{fill:#03007C;}
	.st3{fill:#F98800;}
	.st4{fill:#002D2D;}
	.st5{fill:#544E00;}
	.st6{stroke:#C2932F;stroke-width:4;stroke-miterlimit:10;}
	.st7{fill:#C2932F;}
	.st8{fill:#BA3838;}
	.st9{fill:#F99300;}
	.st10{fill:#FF0000;}
	.st11{fill:#1B0121;}
	.st12{fill:#A37E33;}
	.st13{fill:#F7E0FC;}
	.st14{fill:#F0F2F5;}
	.st15{fill:#B0CEED;}
	.st16{fill:#DDDD00;}
	.st17{fill:#9700B7;}
	.st18{fill:#9700B7;stroke:#FF0000;stroke-width:4;stroke-miterlimit:10;}
	.st19{fill:#5E43FF;}
	.st20{fill:#004947;}
	.st21{fill:#C38A43;}
	.st22{fill:#600077;}
	.st23{fill:none;stroke:#003DFF;stroke-width:3;stroke-linecap:round;stroke-linejoin:round;stroke-miterlimit:10;}
</style>
<g id="Layer_1">
</g>
<g id="Layer_2">
</g>
<g id="Layer_3">
</g>
<g id="Layer_4">
</g>
<g id="Layer_5">
</g>
<g id="Layer_6">
</g>
<g id="Layer_7">
</g>
<g id="Layer_8">
	<g>
		<path class="st10" d="M134.06,80.98c-0.04,0-0.07,0-0.11-0.01c-0.27-0.06-0.44-0.33-0.38-0.6l3.19-14
			c0.06-0.27,0.32-0.44,0.6-0.38c0.27,0.06,0.44,0.33,0.38,0.6l-3.19,14C134.49,80.82,134.29,80.98,134.06,80.98z M126.91,80.98
			c-0.23,0-0.44-0.16-0.49-0.4l-1.94-9.44c-0.06-0.27,0.12-0.54,0.39-0.59c0.27-0.05,0.54,0.12,0.59,0.39l1.94,9.44
			c0.06,0.27-0.12,0.54-0.39,0.59C126.98,80.98,126.95,80.98,126.91,80.98z M122.31,84.34c-0.12,0-0.24-0.04-0.34-0.13l-10.53-9.76
			c-0.2-0.19-0.21-0.5-0.03-0.71c0.19-0.2,0.51-0.21,0.71-0.03l10.53,9.76c0.2,0.19,0.21,0.5,0.03,0.71
			C122.58,84.28,122.45,84.34,122.31,84.34z M142.84,89.47c-0.21,0-0.41-0.14-0.48-0.35c-0.08-0.26,0.07-0.54,0.33-0.62l13.72-4.24
			c0.26-0.08,0.54,0.07,0.62,0.33s-0.07,0.54-0.33,0.62l-13.72,4.24C142.94,89.46,142.89,89.47,142.84,89.47z M139.26,83.28
			c-0.14,0-0.27-0.06-0.37-0.17c-0.18-0.21-0.16-0.52,0.04-0.71l7.2-6.4c0.2-0.18,0.52-0.17,0.71,0.04
			c0.18,0.21,0.16,0.52-0.04,0.71l-7.2,6.4C139.5,83.24,139.38,83.28,139.26,83.28z M142.03,94.15l-1.19,4.47l-5.55,3.12l-6.93,3.9
			l-3.16-0.84l-4.08-6.82l-3.27-5.47l1.19-4.47l4.19-2.82l5.67,1.51l0.01,0.04c0.01,0.03,0.03,0.07,0.05,0.13l0.03,0.08
			c0.29,0.87,1.25,3.67,1.56,4.05c0.55-0.2,3.57-2.92,3.57-2.92l5.67,1.51L142.03,94.15z"/>
		<path class="st11" d="M140.97,110.98c-2.64-2.7-5.67-4.79-8.92-6.26l-3.56,2l-3.94-1.05l-2.09-3.49
			c-8.35-0.76-16.96,1.98-23.42,8.28c-11.7,11.42-11.94,30.23-0.52,41.93c11.42,11.71,30.23,11.94,41.93,0.52
			C152.16,141.49,152.39,122.68,140.97,110.98z M137.46,149.84c-10.01,9.77-26.1,9.57-35.87-0.45c-9.77-10.01-9.57-26.1,0.45-35.87
			c10.01-9.76,26.1-9.57,35.87,0.45C147.67,123.99,147.47,140.07,137.46,149.84z"/>
		<path class="st8" d="M148.98,164.02H90.51c-5.55,0-10.05-4.5-10.05-10.05v-2.64h78.56v2.64
			C159.03,159.52,154.53,164.02,148.98,164.02z M67.77,141.28V82.82c0-5.55,4.5-10.05,10.05-10.05h2.64v78.57h-2.64
			C72.27,151.33,67.77,146.83,67.77,141.28z"/>
	</g>
</g>
<g id="Layer_9">
</g>
<g id="Layer_10">
</g>
<g id="Layer_11">
</g>
<g id="Layer_12">
</g>
<g id="Layer_13">
</g>
<g id="Layer_14">
</g>
<g id="Layer_15">
</g>
</svg>
