<?xml version="1.0" encoding="utf-8"?>
<!-- Generator: Adobe Illustrator 27.8.1, SVG Export Plug-In . SVG Version: 6.00 Build 0)  -->
<svg version="1.1" xmlns="http://www.w3.org/2000/svg" xmlns:xlink="http://www.w3.org/1999/xlink" x="0px" y="0px"
	 viewBox="0 0 350 230" style="enable-background:new 0 0 350 230;" xml:space="preserve">
<style type="text/css">
	.st0{fill:#A07200;}
	.st1{fill:#770071;}
	.st2{fill:#03007C;}
	.st3{fill:#F98800;}
	.st4{fill:#002D2D;}
	.st5{fill:#544E00;}
	.st6{stroke:#C2932F;stroke-width:4;stroke-miterlimit:10;}
	.st7{fill:#C2932F;}
	.st8{fill:#BA3838;}
	.st9{fill:#F99300;}
	.st10{fill:#FF0000;}
	.st11{fill:#1B0121;}
	.st12{fill:#A37E33;}
	.st13{fill:#F7E0FC;}
	.st14{fill:#F0F2F5;}
	.st15{fill:#B0CEED;}
	.st16{fill:#DDDD00;}
	.st17{fill:#9700B7;}
	.st18{fill:#9700B7;stroke:#FF0000;stroke-width:4;stroke-miterlimit:10;}
	.st19{fill:#5E43FF;}
	.st20{fill:#004947;}
	.st21{fill:#C38A43;}
	.st22{fill:#600077;}
	.st23{fill:none;stroke:#003DFF;stroke-width:3;stroke-linecap:round;stroke-linejoin:round;stroke-miterlimit:10;}
</style>
<g id="Layer_1">
</g>
<g id="Layer_2">
</g>
<g id="Layer_3">
</g>
<g id="Layer_4">
</g>
<g id="Layer_5">
</g>
<g id="Layer_6">
</g>
<g id="Layer_7">
</g>
<g id="Layer_8">
</g>
<g id="Layer_9">
	<g>
		<path class="st12" d="M149.09,94.51l-3.39,1.37l-1.57,0.7l-0.46-1.65l-1.13-3.47c-8.86-3.06-18.3-2.27-26.31,1.6
			c0.26,0.15,0.53,0.28,0.79,0.43c1.47,0.88,2.84,1.85,4.12,2.9c7.12-2.61,15.24-2.5,22.65,0.95c14.76,6.88,21.18,24.49,14.29,39.26
			s-24.5,21.18-39.26,14.29c-0.33-0.16-0.66-0.32-0.98-0.49c-1.67,1.06-3.42,1.98-5.25,2.74c1.31,0.84,2.68,1.61,4.12,2.29
			c17.26,8.05,37.85,0.55,45.9-16.71C170.14,122.56,164.06,103.49,149.09,94.51z M104.53,111.64c2.3-4.93,5.8-8.92,9.98-11.81
			c-0.3-0.2-0.61-0.4-0.93-0.58c-1.29-0.77-2.64-1.41-4.03-1.95c-3.96,3.2-7.27,7.31-9.56,12.23c-6.21,13.32-3.16,28.62,6.49,38.61
			c1.8-0.46,3.54-1.11,5.2-1.93C102.18,137.75,98.88,123.74,104.53,111.64z M73.89,102.77l0.96,3.3l0.51,1.54l-1.59,0.27l-3.35,0.72
			c-6.9,14.88-1.56,32.92,12.83,41.5c15.37,9.17,35.34,4.13,44.51-11.24c9.17-15.37,4.13-35.34-11.24-44.51
			C102.12,85.77,83.71,89.64,73.89,102.77z M123.71,136.46c-7.85,13.15-24.92,17.46-38.07,9.61c-13.15-7.85-17.46-24.92-9.61-38.07
			c7.85-13.15,24.92-17.46,38.07-9.61C127.24,106.23,131.55,123.31,123.71,136.46z"/>
		<path class="st13" d="M161.3,77.74l-6.76-3.2l-6.76-3.2l-8.57,3.25l5.73,20.21l19.27-8.36L161.3,77.74z M139.21,74.58l25,11.85
			l-2.91-8.69l-13.52-6.41L139.21,74.58z M147.78,71.34l0.55,7.57l6.21-4.36L147.78,71.34z M154.54,74.54l0.55,7.57l6.21-4.36
			L154.54,74.54z M148.33,78.9l-3.39,15.89l-5.73-20.21L148.33,78.9z M155.09,82.11l-10.15,12.68l19.27-8.36L155.09,82.11z
			 M155.09,82.11l-6.76-3.2c0,0-3.81,16.07-3.39,15.89C145.36,94.61,155.09,82.11,155.09,82.11z M59.1,90.13l-3.54,5.98l-3.54,5.98
			l2.28,8.2l19.18-3.59l-6.1-18.54L59.1,90.13z M54.3,110.3l13.08-22.12l-8.28,1.96l-7.08,11.97L54.3,110.3z M52.03,102.1l7.05,0.13
			l-3.51-6.11L52.03,102.1z M55.56,96.12l7.05,0.13l-3.51-6.11L55.56,96.12z M59.08,102.23l14.41,4.48L54.3,110.3L59.08,102.23z
			 M62.61,96.25l10.87,10.47l-6.1-18.54L62.61,96.25z M62.61,96.25l-3.54,5.98c0,0,14.54,4.89,14.41,4.48
			C73.35,106.31,62.61,96.25,62.61,96.25z"/>
	</g>
</g>
<g id="Layer_10">
</g>
<g id="Layer_11">
</g>
<g id="Layer_12">
</g>
<g id="Layer_13">
</g>
<g id="Layer_14">
</g>
<g id="Layer_15">
</g>
</svg>
