<?xml version="1.0" encoding="utf-8"?>
<!-- Generator: Adobe Illustrator 27.8.1, SVG Export Plug-In . SVG Version: 6.00 Build 0)  -->
<svg version="1.1" xmlns="http://www.w3.org/2000/svg" xmlns:xlink="http://www.w3.org/1999/xlink" x="0px" y="0px"
	 viewBox="0 0 350 230" style="enable-background:new 0 0 350 230;" xml:space="preserve">
<style type="text/css">
	.st0{fill:#A07200;}
	.st1{fill:#770071;}
	.st2{fill:#03007C;}
	.st3{fill:#F98800;}
	.st4{fill:#002D2D;}
	.st5{fill:#544E00;}
	.st6{stroke:#C2932F;stroke-width:4;stroke-miterlimit:10;}
	.st7{fill:#C2932F;}
	.st8{fill:#BA3838;}
	.st9{fill:#F99300;}
	.st10{fill:#FF0000;}
	.st11{fill:#1B0121;}
	.st12{fill:#A37E33;}
	.st13{fill:#F7E0FC;}
	.st14{fill:#F0F2F5;}
	.st15{fill:#B0CEED;}
	.st16{fill:#DDDD00;}
	.st17{fill:#9700B7;}
	.st18{fill:#9700B7;stroke:#FF0000;stroke-width:4;stroke-miterlimit:10;}
	.st19{fill:#5E43FF;}
	.st20{fill:#004947;}
	.st21{fill:#C38A43;}
	.st22{fill:#600077;}
	.st23{fill:none;stroke:#003DFF;stroke-width:3;stroke-linecap:round;stroke-linejoin:round;stroke-miterlimit:10;}
</style>
<g id="Layer_1">
</g>
<g id="Layer_2">
	<path class="st1" d="M234.63,97.76c0.01-0.02,0.01-0.05,0.02-0.07c0.02-0.05,0.04-0.1,0.05-0.16c0.01-0.04,0.01-0.08,0.01-0.12
		c0-0.01,0.01-0.03,0.01-0.04s-0.01-0.03-0.01-0.04c0-0.04-0.01-0.08-0.01-0.12c-0.01-0.05-0.03-0.1-0.05-0.16
		c-0.01-0.02-0.01-0.05-0.02-0.07c0-0.01,0-0.02-0.01-0.03c-0.01-0.02-0.03-0.03-0.04-0.05c-0.01-0.02-0.01-0.04-0.03-0.06
		c-0.02-0.03-0.06-0.05-0.08-0.07c-0.03-0.03-0.04-0.06-0.07-0.08L175.53,51.1c0,0,0,0-0.01,0c0,0,0,0-0.01-0.01
		c-0.01-0.01-0.03-0.01-0.04-0.02c-0.02-0.01-0.03-0.03-0.04-0.03c-0.04-0.02-0.08-0.03-0.12-0.04c-0.03-0.01-0.06-0.04-0.1-0.05
		c-0.02,0-0.03,0-0.05-0.01c-0.02,0-0.03-0.01-0.05-0.01c-0.04-0.01-0.08,0.01-0.12,0.01c-0.04,0-0.08-0.01-0.12,0
		c-0.01,0-0.03,0.01-0.04,0.01c-0.02,0-0.04,0-0.06,0.01c-0.03,0.01-0.06,0.03-0.09,0.04c-0.04,0.02-0.08,0.02-0.12,0.05
		c-0.01,0.01-0.02,0.02-0.04,0.03c-0.01,0.01-0.03,0.01-0.05,0.02c0,0,0,0-0.01,0.01c0,0,0,0-0.01,0l-58.86,45.58
		c-0.03,0.02-0.04,0.06-0.07,0.08c-0.03,0.03-0.06,0.04-0.08,0.07c-0.01,0.02-0.02,0.04-0.03,0.06c-0.01,0.02-0.03,0.03-0.04,0.05
		c0,0.01,0,0.02-0.01,0.03c-0.01,0.02-0.01,0.05-0.02,0.07c-0.02,0.05-0.04,0.1-0.05,0.16c-0.01,0.04-0.01,0.08-0.01,0.12
		c0,0.01-0.01,0.03-0.01,0.04s0.01,0.03,0.01,0.04c0,0.04,0.01,0.08,0.01,0.12c0.01,0.05,0.03,0.1,0.05,0.16
		c0.01,0.02,0.01,0.05,0.02,0.07c0,0.01,0,0.02,0.01,0.03c0.01,0.02,0.03,0.04,0.04,0.05c0.01,0.02,0.01,0.04,0.03,0.06
		c0.02,0.03,0.05,0.03,0.07,0.06c0.03,0.03,0.05,0.07,0.08,0.1l58.86,45.58c0,0,0.01,0,0.01,0c0,0,0,0,0.01,0.01
		c0.02,0.02,0.05,0.02,0.07,0.04c0.02,0.01,0.03,0.02,0.05,0.03c0.01,0,0.01,0.01,0.02,0.01c0.01,0.01,0.03,0.01,0.05,0.01
		c0.02,0.01,0.04,0.02,0.06,0.03c0.09,0.03,0.18,0.04,0.27,0.04c0.09,0,0.18-0.02,0.27-0.04c0.02-0.01,0.04-0.02,0.06-0.03
		c0.02-0.01,0.03-0.01,0.05-0.01c0.01,0,0.01-0.01,0.02-0.01c0.02-0.01,0.03-0.02,0.05-0.03c0.02-0.01,0.05-0.02,0.07-0.04
		c0,0,0,0,0.01-0.01c0,0,0.01,0,0.01,0l58.86-45.58c0.04-0.03,0.05-0.07,0.08-0.1c0.02-0.02,0.05-0.03,0.07-0.06
		c0.01-0.02,0.02-0.04,0.03-0.06c0.01-0.02,0.03-0.03,0.04-0.05C234.62,97.78,234.62,97.77,234.63,97.76z M214.2,95.14
		c-0.01,0-0.01,0.01-0.02,0.01c-0.64,0.3-1.41,0.74-1.83,1.35h-3.01l-29.85-40.14l48.75,37.75
		C224.27,93.11,219.25,92.92,214.2,95.14z M232.09,97.37c-3.62,1.8-10.44,3.61-17.17,0.65c-0.57-0.27-0.93-0.48-1.08-0.63
		c0.11-0.11,0.38-0.35,1.07-0.67C221.65,93.76,228.47,95.57,232.09,97.37z M178.13,111.17c0-0.01-0.01-0.01-0.01-0.02
		c-0.63-1.35-1.65-3.14-3.18-3.14c-1.6,0-2.53,1.97-3.09,3.17c-3.99,9.09-3.12,18.12-1,24.75l-16.85-22.66l52.69-14.39l-27.56,37.06
		C181.26,129.29,182.13,120.26,178.13,111.17z M175,141.24c-3.12-5.7-6.71-17.61-1.56-29.35c0.83-1.78,1.28-2.15,1.5-2.15
		c0.01,0,0.61,0.02,1.6,2.13C181.71,123.63,178.12,135.55,175,141.24z M176.55,82.87c-0.99,2.11-1.59,2.13-1.6,2.13
		c-0.23,0-0.67-0.37-1.5-2.13c-5.17-11.76-1.58-23.68,1.55-29.37C178.12,59.19,181.71,71.11,176.55,82.87z M171.87,83.59
		c0.55,1.18,1.48,3.15,3.08,3.15c1.53,0,2.54-1.79,3.18-3.14c0-0.01,0.01-0.01,0.01-0.02c4-9.1,3.12-18.13,1-24.76L196,81.48
		L143.3,95.87l27.56-37.06C168.74,65.45,167.87,74.48,171.87,83.59z M207.17,96.5h-59.59l49.53-13.53L207.17,96.5z M202.42,98.24
		l-49.53,13.53l-10.06-13.53H202.42z M140.66,96.5h-3.01c-0.41-0.62-1.19-1.06-1.83-1.35c-0.01,0-0.01-0.01-0.02-0.01
		c-5.05-2.22-10.07-2.03-14.03-1.03l48.75-37.75L140.66,96.5z M136.16,97.4c-0.15,0.15-0.51,0.36-1.06,0.62
		c-6.74,2.97-13.57,1.16-17.19-0.64c3.62-1.8,10.44-3.6,17.18-0.64C135.78,97.05,136.06,97.28,136.16,97.4z M127.41,101.35
		c2.66,0,5.53-0.49,8.41-1.75c0.58-0.27,1.45-0.69,1.88-1.36h2.97l29.85,40.14l-48.75-37.75
		C123.48,101.06,125.38,101.35,127.41,101.35z M209.34,98.24h2.97c0.42,0.67,1.3,1.09,1.9,1.37c2.87,1.26,5.73,1.74,8.39,1.74
		c2.03,0,3.93-0.29,5.64-0.72l-48.75,37.75L209.34,98.24z"/>
</g>
<g id="Layer_3">
</g>
<g id="Layer_4">
</g>
<g id="Layer_5">
</g>
<g id="Layer_6">
</g>
<g id="Layer_7">
</g>
<g id="Layer_8">
</g>
<g id="Layer_9">
</g>
<g id="Layer_10">
</g>
<g id="Layer_11">
</g>
<g id="Layer_12">
</g>
<g id="Layer_13">
</g>
<g id="Layer_14">
</g>
<g id="Layer_15">
</g>
</svg>
