<?xml version="1.0" encoding="utf-8"?>
<!-- Generator: Adobe Illustrator 27.8.1, SVG Export Plug-In . SVG Version: 6.00 Build 0)  -->
<svg version="1.1" xmlns="http://www.w3.org/2000/svg" xmlns:xlink="http://www.w3.org/1999/xlink" x="0px" y="0px"
	 viewBox="0 0 350 230" style="enable-background:new 0 0 350 230;" xml:space="preserve">
<style type="text/css">
	.st0{fill:#A07200;}
	.st1{fill:#770071;}
	.st2{fill:#03007C;}
	.st3{fill:#F98800;}
	.st4{fill:#002D2D;}
	.st5{fill:#544E00;}
	.st6{stroke:#C2932F;stroke-width:4;stroke-miterlimit:10;}
	.st7{fill:#C2932F;}
	.st8{fill:#BA3838;}
	.st9{fill:#F99300;}
	.st10{fill:#FF0000;}
	.st11{fill:#1B0121;}
	.st12{fill:#A37E33;}
	.st13{fill:#F7E0FC;}
	.st14{fill:#F0F2F5;}
	.st15{fill:#B0CEED;}
	.st16{fill:#DDDD00;}
	.st17{fill:#9700B7;}
	.st18{fill:#9700B7;stroke:#FF0000;stroke-width:4;stroke-miterlimit:10;}
	.st19{fill:#5E43FF;}
	.st20{fill:#004947;}
	.st21{fill:#C38A43;}
	.st22{fill:#600077;}
	.st23{fill:none;stroke:#003DFF;stroke-width:3;stroke-linecap:round;stroke-linejoin:round;stroke-miterlimit:10;}
</style>
<g id="Layer_1">
</g>
<g id="Layer_2">
</g>
<g id="Layer_3">
	<path class="st2" d="M221.58,97.04c0.08-0.19,0.08-0.4,0-0.59l-0.1-0.23c-0.08-0.45-0.26-0.86-0.51-1.22l-12.83-30.98
		c-0.08-0.19-0.23-0.34-0.42-0.42l-31.25-12.95c-0.28-0.16-0.55-0.27-0.83-0.35l-0.35-0.14c-0.19-0.08-0.4-0.08-0.59,0l-0.24,0.1
		c-0.45,0.08-0.85,0.26-1.21,0.5l-30.98,12.83c-0.19,0.08-0.34,0.23-0.42,0.42l-12.94,31.25c-0.16,0.28-0.28,0.56-0.35,0.84
		l-0.14,0.34c-0.08,0.19-0.08,0.4,0,0.59l0.1,0.23c0.08,0.45,0.26,0.86,0.51,1.22l12.83,30.98c0.08,0.19,0.23,0.34,0.42,0.42
		l31.26,12.95c0.28,0.16,0.55,0.27,0.83,0.34l0.35,0.14c0.09,0.04,0.19,0.06,0.29,0.06s0.2-0.02,0.29-0.06l0.24-0.1
		c0.45-0.08,0.86-0.26,1.22-0.5l30.98-12.83c0.19-0.08,0.34-0.23,0.42-0.42l12.94-31.25c0.16-0.28,0.28-0.56,0.35-0.84L221.58,97.04
		z M207.16,127.83l-21.59-21.59l8.72-8.72h25.4c-0.28,0.46-0.75,0.96-1.45,1.47c-9.47,6.5-18.48,1.24-21.02-0.53
		c-0.35-0.25-0.83-0.16-1.07,0.19c-0.24,0.35-0.16,0.83,0.19,1.07c1.75,1.22,6.34,3.97,12.11,3.97c3.06,0,6.45-0.79,9.93-2.98
		L207.16,127.83z M131.61,100.71c3.28,2.06,6.7,2.94,10.01,2.94c5.55,0,10.74-2.46,14.38-5.85l8.43,8.43l-21.59,21.59L131.61,100.71
		z M142.84,65.67l21.59,21.59l-8.72,8.72h-25.4c0.28-0.46,0.75-0.96,1.45-1.47c9.47-6.5,18.48-1.24,21.02,0.53
		c0.35,0.24,0.83,0.16,1.07-0.19c0.24-0.35,0.16-0.83-0.19-1.07c-2.67-1.86-12.01-7.3-22.03-1.01L142.84,65.67z M218.4,92.8
		c-8.8-5.52-18.59-2.52-24.4,2.88l-8.43-8.43l21.59-21.59L218.4,92.8z M219.72,95.98h-23.71c4.59-3.67,13.47-7.48,22.22-1.49
		c0.51,0.38,1.04,0.79,1.39,1.24L219.72,95.98z M175,114.65l-7.64-7.64h15.28L175,114.65z M175,78.85l7.64,7.64h-15.28L175,78.85z
		 M183.72,94.9l-6.87-6.87h6.87V94.9z M183.41,96.75l-8.41,8.4l-8.4-8.4l8.4-8.41L183.41,96.75z M166.28,94.9v-6.87h6.87
		L166.28,94.9z M166.28,98.6l6.87,6.87h-6.87V98.6z M183.72,98.6v6.87h-6.87L183.72,98.6z M164.74,104.39l-7.64-7.64l7.64-7.64
		V104.39z M185.26,89.11l7.64,7.64l-7.64,7.64V89.11z M184.49,86.17l-8.73-8.72v-25.4c0.46,0.28,0.96,0.75,1.47,1.45
		c6.5,9.47,1.24,18.48-0.53,21.02c-0.24,0.35-0.16,0.83,0.19,1.07c0.35,0.24,0.83,0.16,1.07-0.19c1.86-2.67,7.31-12.01,1.01-22.03
		l27.1,11.23L184.49,86.17z M174.23,52.03v23.71c-3.67-4.59-7.48-13.47-1.49-22.22c0.38-0.52,0.8-1.05,1.25-1.39L174.23,52.03z
		 M173.93,77.75l-8.43,8.43l-21.59-21.59l27.13-11.24C165.53,62.15,168.53,71.94,173.93,77.75z M130.28,97.52h23.71
		c-4.59,3.67-13.47,7.48-22.22,1.49c-0.51-0.38-1.04-0.79-1.39-1.24L130.28,97.52z M165.51,107.33l8.72,8.72v25.4
		c-0.46-0.28-0.96-0.75-1.47-1.45c-6.5-9.47-1.24-18.48,0.53-21.02c0.24-0.35,0.16-0.83-0.19-1.07c-0.35-0.25-0.83-0.16-1.07,0.19
		c-1.86,2.67-7.31,12.01-1.01,22.03l-27.1-11.23L165.51,107.33z M175.77,141.47v-23.71c3.67,4.59,7.48,13.47,1.49,22.22
		c-0.38,0.51-0.79,1.05-1.25,1.39L175.77,141.47z M176.06,115.75l8.43-8.43l21.59,21.59l-27.13,11.24
		C184.47,131.35,181.47,121.56,176.06,115.75z"/>
</g>
<g id="Layer_4">
</g>
<g id="Layer_5">
</g>
<g id="Layer_6">
</g>
<g id="Layer_7">
</g>
<g id="Layer_8">
</g>
<g id="Layer_9">
</g>
<g id="Layer_10">
</g>
<g id="Layer_11">
</g>
<g id="Layer_12">
</g>
<g id="Layer_13">
</g>
<g id="Layer_14">
</g>
<g id="Layer_15">
</g>
</svg>
