<?xml version="1.0" encoding="utf-8"?>
<!-- Generator: Adobe Illustrator 27.8.1, SVG Export Plug-In . SVG Version: 6.00 Build 0)  -->
<svg version="1.1" xmlns="http://www.w3.org/2000/svg" xmlns:xlink="http://www.w3.org/1999/xlink" x="0px" y="0px"
	 viewBox="0 0 350 230" style="enable-background:new 0 0 350 230;" xml:space="preserve">
<style type="text/css">
	.st0{fill:#A07200;}
	.st1{fill:#770071;}
	.st2{fill:#03007C;}
	.st3{fill:#F98800;}
	.st4{fill:#002D2D;}
	.st5{fill:#544E00;}
	.st6{stroke:#C2932F;stroke-width:4;stroke-miterlimit:10;}
	.st7{fill:#C2932F;}
	.st8{fill:#BA3838;}
	.st9{fill:#F99300;}
	.st10{fill:#FF0000;}
	.st11{fill:#1B0121;}
	.st12{fill:#A37E33;}
	.st13{fill:#F7E0FC;}
	.st14{fill:#F0F2F5;}
	.st15{fill:#B0CEED;}
	.st16{fill:#DDDD00;}
	.st17{fill:#9700B7;}
	.st18{fill:#9700B7;stroke:#FF0000;stroke-width:4;stroke-miterlimit:10;}
	.st19{fill:#5E43FF;}
	.st20{fill:#004947;}
	.st21{fill:#C38A43;}
	.st22{fill:#600077;}
	.st23{fill:none;stroke:#003DFF;stroke-width:3;stroke-linecap:round;stroke-linejoin:round;stroke-miterlimit:10;}
</style>
<g id="Layer_1">
</g>
<g id="Layer_2">
</g>
<g id="Layer_3">
</g>
<g id="Layer_4">
	<path class="st3" d="M219.39,72.64c0-0.01,0.01-0.03,0-0.04c0-0.01-0.01-0.03-0.01-0.04c-0.01-0.05-0.02-0.1-0.04-0.14
		c-0.02-0.06-0.03-0.11-0.06-0.16c0,0-0.01-0.01-0.01-0.01c0,0,0,0,0,0c-0.01-0.02-0.03-0.04-0.05-0.06
		c-0.05-0.07-0.11-0.13-0.18-0.18c-0.01,0-0.01-0.01-0.02-0.02c-0.01-0.01-0.03-0.01-0.04-0.02c-0.01-0.01-0.01-0.02-0.02-0.02
		L197.2,59.37c0,0,0,0,0,0c0,0,0,0,0,0L175.42,46.8c-0.01,0-0.01,0-0.02-0.01c-0.01-0.01-0.02-0.02-0.04-0.02c0,0,0,0,0,0
		c-0.01-0.01-0.03,0-0.04-0.01c-0.02-0.01-0.03-0.02-0.05-0.02c-0.04-0.01-0.07-0.01-0.11-0.02c-0.04-0.01-0.08-0.02-0.12-0.03
		c-0.01,0-0.02,0-0.03,0c-0.01,0-0.02,0-0.03,0c-0.01,0-0.02,0-0.03,0c-0.04,0-0.07,0.02-0.11,0.02c-0.04,0.01-0.08,0.01-0.12,0.02
		c-0.02,0.01-0.03,0.02-0.05,0.02c-0.01,0.01-0.03,0-0.04,0.01c0,0,0,0-0.01,0c-0.01,0.01-0.02,0.02-0.03,0.02
		c-0.01,0-0.02,0-0.02,0.01l-21.77,12.57c0,0,0,0,0,0c0,0,0,0,0,0l-21.77,12.57c0,0,0,0,0,0c-0.11,0.06-0.2,0.15-0.27,0.26
		c-0.01,0.01-0.01,0.02-0.02,0.03c-0.03,0.06-0.06,0.13-0.08,0.19c-0.01,0.05-0.03,0.09-0.04,0.14c0,0.01-0.01,0.03-0.01,0.04
		c0,0.01,0.01,0.03,0,0.04c0,0.01-0.01,0.02-0.01,0.03v50.29c0,0.01,0.01,0.02,0.01,0.03c0,0.01-0.01,0.03,0,0.04
		c0,0.01,0.01,0.03,0.01,0.04c0.01,0.05,0.02,0.1,0.04,0.15c0.02,0.05,0.03,0.1,0.05,0.15c0.01,0.01,0.01,0.02,0.01,0.03
		c0.02,0.03,0.05,0.06,0.07,0.09c0.04,0.05,0.08,0.1,0.13,0.13c0.01,0.01,0.02,0.03,0.04,0.04c0.01,0.01,0.03,0.01,0.04,0.02
		c0.01,0,0.01,0.01,0.02,0.02l21.77,12.57c0,0,0,0,0,0c0,0,0,0,0,0l21.77,12.57c0.01,0,0.02,0,0.03,0.01
		c0.01,0.01,0.02,0.02,0.03,0.03c0,0,0.01,0,0.01,0c0.01,0.01,0.02,0.01,0.03,0.01c0.1,0.04,0.21,0.07,0.32,0.07
		c0.11,0,0.22-0.03,0.32-0.07c0.01,0,0.02-0.01,0.03-0.01c0,0,0.01,0,0.01,0c0.01-0.01,0.02-0.02,0.03-0.03c0.01,0,0.02,0,0.03-0.01
		l21.77-12.57c0,0,0,0,0,0c0,0,0,0,0,0l21.77-12.57c0.01,0,0.01-0.01,0.02-0.02c0.01-0.01,0.03-0.01,0.04-0.02
		c0.02-0.01,0.02-0.03,0.04-0.04c0.05-0.04,0.09-0.09,0.13-0.13c0.02-0.03,0.05-0.06,0.07-0.09c0.01-0.01,0.01-0.02,0.01-0.03
		c0.02-0.05,0.04-0.1,0.05-0.15c0.02-0.05,0.03-0.1,0.04-0.15c0-0.01,0.01-0.03,0.01-0.04c0-0.01-0.01-0.03,0-0.04
		c0-0.01,0.01-0.02,0.01-0.03V72.67C219.39,72.66,219.39,72.65,219.39,72.64z M197.08,134.38l-3.63-6.29l7.54-8.7
		c6.33,2.46,11.92,3.6,14.99,4.08L197.08,134.38z M134.02,123.46c3.07-0.49,8.66-1.62,14.99-4.08l7.54,8.7l-3.63,6.29L134.02,123.46
		z M152.92,61.25l3.63,6.29l-7.54,8.7c-6.33-2.46-11.92-3.6-14.99-4.08L152.92,61.25z M215.98,72.16
		c-3.07,0.49-8.66,1.62-14.99,4.08l-7.54-8.7l3.63-6.29L215.98,72.16z M186.22,98.66h30.48l-9.67,11.16
		C201.61,105.41,194.56,100.99,186.22,98.66z M142.97,109.82l-9.67-11.16h30.48C155.44,100.99,148.39,105.41,142.97,109.82z
		 M163.78,96.97H133.3l9.67-11.16C148.39,90.22,155.44,94.64,163.78,96.97z M207.03,85.81l9.67,11.16h-30.48
		C194.56,94.64,201.61,90.22,207.03,85.81z M175,95.97c-9.43-18.81-2.45-40.02,0-46.26C177.45,55.95,184.43,77.15,175,95.97z
		 M175,99.66c9.43,18.81,2.45,40.02,0,46.26C172.55,139.67,165.57,118.47,175,99.66z M217.71,95.55l-9.38-10.83
		c4.44-3.79,7.63-7.42,9.38-9.58V95.55z M176.6,96.89c11.58-17.58,33.43-22.13,40.06-23.13C212.48,79.01,197.61,95.65,176.6,96.89z
		 M181.34,88.51l11.21-19.42l6.77,7.82C193.35,79.41,186.88,83.1,181.34,88.51z M179.88,87.67c3.72-14.52,0.08-28.84-2.34-35.93
		l13.85,15.99L179.88,87.67z M170.12,87.67l-11.51-19.93l13.85-15.99C170.04,58.83,166.4,73.15,170.12,87.67z M168.66,88.51
		c-5.54-5.41-12.01-9.11-17.99-11.6l6.77-7.82L168.66,88.51z M173.4,96.89c-21.01-1.24-35.89-17.89-40.06-23.13
		C139.97,74.75,161.82,79.3,173.4,96.89z M141.67,84.72l-9.38,10.83v-20.4C134.04,77.3,137.24,80.94,141.67,84.72z M132.29,100.08
		l9.38,10.83c-4.44,3.79-7.63,7.42-9.38,9.58V100.08z M173.4,98.74c-11.58,17.58-33.43,22.13-40.06,23.13
		C137.52,116.62,152.39,99.97,173.4,98.74z M168.66,107.11l-11.21,19.42l-6.77-7.82C156.65,116.22,163.12,112.53,168.66,107.11z
		 M170.12,107.95c-3.72,14.52-0.08,28.84,2.34,35.93l-13.85-15.99L170.12,107.95z M179.88,107.95l11.51,19.93l-13.85,15.99
		C179.96,136.8,183.6,122.48,179.88,107.95z M181.34,107.11c5.54,5.41,12.01,9.11,17.99,11.6l-6.77,7.82L181.34,107.11z
		 M176.6,98.74c21.01,1.24,35.89,17.89,40.06,23.13C210.03,120.87,188.18,116.33,176.6,98.74z M208.33,110.9l9.38-10.83v20.4
		C215.96,118.32,212.76,114.69,208.33,110.9z M192.28,66.19l-13.36-15.43l16.7,9.64L192.28,66.19z M157.72,66.19l-3.34-5.79
		l16.7-9.64L157.72,66.19z M157.72,129.43l13.36,15.43l-16.7-9.64L157.72,129.43z M192.28,129.43l3.34,5.79l-16.7,9.64
		L192.28,129.43z"/>
</g>
<g id="Layer_5">
</g>
<g id="Layer_6">
</g>
<g id="Layer_7">
</g>
<g id="Layer_8">
</g>
<g id="Layer_9">
</g>
<g id="Layer_10">
</g>
<g id="Layer_11">
</g>
<g id="Layer_12">
</g>
<g id="Layer_13">
</g>
<g id="Layer_14">
</g>
<g id="Layer_15">
</g>
</svg>
