<?xml version="1.0" encoding="utf-8"?>
<!-- Generator: Adobe Illustrator 27.8.1, SVG Export Plug-In . SVG Version: 6.00 Build 0)  -->
<svg version="1.1" xmlns="http://www.w3.org/2000/svg" xmlns:xlink="http://www.w3.org/1999/xlink" x="0px" y="0px"
	 viewBox="0 0 350 230" style="enable-background:new 0 0 350 230;" xml:space="preserve">
<style type="text/css">
	.st0{fill:#A07200;}
	.st1{fill:#770071;}
	.st2{fill:#03007C;}
	.st3{fill:#F98800;}
	.st4{fill:#002D2D;}
	.st5{fill:#544E00;}
	.st6{stroke:#C2932F;stroke-width:4;stroke-miterlimit:10;}
	.st7{fill:#C2932F;}
	.st8{fill:#BA3838;}
	.st9{fill:#F99300;}
	.st10{fill:#FF0000;}
	.st11{fill:#1B0121;}
	.st12{fill:#A37E33;}
	.st13{fill:#F7E0FC;}
	.st14{fill:#F0F2F5;}
	.st15{fill:#B0CEED;}
	.st16{fill:#DDDD00;}
	.st17{fill:#9700B7;}
	.st18{fill:#9700B7;stroke:#FF0000;stroke-width:4;stroke-miterlimit:10;}
	.st19{fill:#5E43FF;}
	.st20{fill:#004947;}
	.st21{fill:#C38A43;}
	.st22{fill:#600077;}
	.st23{fill:none;stroke:#003DFF;stroke-width:3;stroke-linecap:round;stroke-linejoin:round;stroke-miterlimit:10;}
</style>
<g id="Layer_1">
</g>
<g id="Layer_2">
</g>
<g id="Layer_3">
</g>
<g id="Layer_4">
</g>
<g id="Layer_5">
	<g>
		<path class="st4" d="M247.33,166.3h-2.38c0-27.98-16.61-53.21-42.3-64.28c-2.59-1.12-5.28-2.08-7.98-2.87l0.67-2.28
			c2.8,0.82,5.57,1.82,8.25,2.97C230.16,111.28,247.33,137.37,247.33,166.3z M105.04,166.3h-2.38c0-28.81,17.07-54.85,43.49-66.35
			c3.47-1.51,7.08-2.75,10.74-3.7l0.59,2.3c-3.54,0.91-7.03,2.11-10.38,3.57C121.55,113.24,105.04,138.43,105.04,166.3z"/>
		<g>
			<polygon class="st5" points="195.43,87.76 206.67,87.76 192.06,62.46 186.44,72.19 			"/>
			<polygon class="st5" points="185.49,71.64 191.11,61.91 161.89,61.91 167.51,71.64 			"/>
			<polygon class="st5" points="166.56,72.19 160.94,62.46 146.33,87.76 157.56,87.76 			"/>
			<polygon class="st5" points="157.56,88.86 146.33,88.86 160.94,114.16 166.56,104.44 			"/>
			<polygon class="st5" points="167.51,104.98 161.89,114.71 191.11,114.71 185.49,104.98 			"/>
			<polygon class="st5" points="195.43,88.86 186.44,104.44 192.06,114.16 206.67,88.86 			"/>
			<polygon class="st5" points="167.51,72.73 158.51,88.31 167.51,103.89 185.49,103.89 194.49,88.31 185.49,72.73 			"/>
		</g>
	</g>
</g>
<g id="Layer_6">
</g>
<g id="Layer_7">
</g>
<g id="Layer_8">
</g>
<g id="Layer_9">
</g>
<g id="Layer_10">
</g>
<g id="Layer_11">
</g>
<g id="Layer_12">
</g>
<g id="Layer_13">
</g>
<g id="Layer_14">
</g>
<g id="Layer_15">
</g>
</svg>
