<?xml version="1.0" encoding="utf-8"?>
<!-- Generator: Adobe Illustrator 27.8.1, SVG Export Plug-In . SVG Version: 6.00 Build 0)  -->
<svg version="1.1" xmlns="http://www.w3.org/2000/svg" xmlns:xlink="http://www.w3.org/1999/xlink" x="0px" y="0px"
	 viewBox="0 0 350 230" style="enable-background:new 0 0 350 230;" xml:space="preserve">
<style type="text/css">
	.st0{fill:#A07200;}
	.st1{fill:#770071;}
	.st2{fill:#03007C;}
	.st3{fill:#F98800;}
	.st4{fill:#002D2D;}
	.st5{fill:#544E00;}
	.st6{stroke:#C2932F;stroke-width:4;stroke-miterlimit:10;}
	.st7{fill:#C2932F;}
	.st8{fill:#BA3838;}
	.st9{fill:#F99300;}
	.st10{fill:#FF0000;}
	.st11{fill:#1B0121;}
	.st12{fill:#A37E33;}
	.st13{fill:#F7E0FC;}
	.st14{fill:#F0F2F5;}
	.st15{fill:#B0CEED;}
	.st16{fill:#DDDD00;}
	.st17{fill:#9700B7;}
	.st18{fill:#9700B7;stroke:#FF0000;stroke-width:4;stroke-miterlimit:10;}
	.st19{fill:#5E43FF;}
	.st20{fill:#004947;}
	.st21{fill:#C38A43;}
	.st22{fill:#600077;}
	.st23{fill:none;stroke:#003DFF;stroke-width:3;stroke-linecap:round;stroke-linejoin:round;stroke-miterlimit:10;}
</style>
<g id="Layer_1">
</g>
<g id="Layer_2">
</g>
<g id="Layer_3">
</g>
<g id="Layer_4">
</g>
<g id="Layer_5">
</g>
<g id="Layer_6">
	<g>
		<path class="st6" d="M228.23,105.91c0-29.4-23.83-53.23-53.23-53.23s-53.23,23.83-53.23,53.23v27.48h106.46L228.23,105.91
			L228.23,105.91z"/>
		<path class="st7" d="M167.45,77.56l-2.93-2.4l9.21-0.05L167.45,77.56z M150.87,84.12l22.6,24.61l-14.64-22.8L150.87,84.12z
			 M166.9,77.94l-3.19-2.61l-5.29,2.82l0.85,6.83L166.9,77.94z M167.36,78.39l-7.56,6.97l14.2,0.83L167.36,78.39z M174.75,86.07
			V75.41l-6.82,2.65L174.75,86.07z M157.82,78.54l-6.98,4.91l7.81,1.77L157.82,78.54z M174.58,86.88L159.64,86l15.11,23.52V87
			c-0.05-0.02-0.1-0.05-0.13-0.09L174.58,86.88z M182.64,77.5l2.93-2.4l-9.21-0.05L182.64,77.5z M191.26,85.88l-14.64,22.8
			l22.6-24.61L191.26,85.88z M190.82,84.92l0.85-6.83l-5.29-2.82l-3.19,2.61L190.82,84.92z M176.08,86.14l14.2-0.83l-7.56-6.97
			L176.08,86.14z M182.16,78.01l-6.82-2.65v10.66L182.16,78.01z M191.44,85.17l7.81-1.77l-6.98-4.91L191.44,85.17z M175.47,86.86
			c-0.04,0.04-0.08,0.07-0.13,0.09v22.52l15.11-23.52l-14.94,0.87L175.47,86.86z M175.58,110.49l9.06,10.01l-7.46-11.64
			L175.58,110.49z M177.69,108.39l8.23,12.9l0.04-21.85C185.92,99.42,177.69,108.39,177.69,108.39z M202.44,97.64l-14.64,22.8
			l22.6-24.61L202.44,97.64z M202,96.69l0.85-6.83l-5.29-2.82l-2.85,2.94L202,96.69z M187.26,97.91l14.2-0.83l-7.29-6.64
			L187.26,97.91z M202.62,96.94l7.81-1.77l-6.98-4.91L202.62,96.94z M186.52,98.72v22.52l15.11-23.52l-14.94,0.87
			C186.68,98.59,186.57,98.7,186.52,98.72z M172.81,108.88l-7.46,11.64l9.06-10.01L172.81,108.88z M164.03,99.46l0.04,21.85
			l8.23-12.9C172.3,108.41,164.08,99.44,164.03,99.46z M139.6,95.86l22.6,24.61l-14.64-22.8L139.6,95.86z M155.29,90.01l-2.85-2.94
			l-5.29,2.82l0.85,6.83L155.29,90.01z M155.83,90.46l-7.29,6.64l14.2,0.83L155.83,90.46z M146.55,90.28l-6.98,4.91l7.81,1.77
			L146.55,90.28z M163.32,98.61l-14.94-0.87l15.11,23.52V98.74C163.43,98.72,163.32,98.61,163.32,98.61z"/>
	</g>
</g>
<g id="Layer_7">
</g>
<g id="Layer_8">
</g>
<g id="Layer_9">
</g>
<g id="Layer_10">
</g>
<g id="Layer_11">
</g>
<g id="Layer_12">
</g>
<g id="Layer_13">
</g>
<g id="Layer_14">
</g>
<g id="Layer_15">
</g>
</svg>
