<?xml version="1.0" encoding="utf-8"?>
<!-- Generator: Adobe Illustrator 27.8.1, SVG Export Plug-In . SVG Version: 6.00 Build 0)  -->
<svg version="1.1" xmlns="http://www.w3.org/2000/svg" xmlns:xlink="http://www.w3.org/1999/xlink" x="0px" y="0px"
	 viewBox="0 0 350 230" style="enable-background:new 0 0 350 230;" xml:space="preserve">
<style type="text/css">
	.st0{fill:#A07200;}
	.st1{fill:#770071;}
	.st2{fill:#03007C;}
	.st3{fill:#F98800;}
	.st4{fill:#002D2D;}
	.st5{fill:#544E00;}
	.st6{stroke:#C2932F;stroke-width:4;stroke-miterlimit:10;}
	.st7{fill:#C2932F;}
	.st8{fill:#BA3838;}
	.st9{fill:#F99300;}
	.st10{fill:#FF0000;}
	.st11{fill:#1B0121;}
	.st12{fill:#A37E33;}
	.st13{fill:#F7E0FC;}
	.st14{fill:#F0F2F5;}
	.st15{fill:#B0CEED;}
	.st16{fill:#DDDD00;}
	.st17{fill:#9700B7;}
	.st18{fill:#9700B7;stroke:#FF0000;stroke-width:4;stroke-miterlimit:10;}
	.st19{fill:#5E43FF;}
	.st20{fill:#004947;}
	.st21{fill:#C38A43;}
	.st22{fill:#600077;}
	.st23{fill:none;stroke:#003DFF;stroke-width:3;stroke-linecap:round;stroke-linejoin:round;stroke-miterlimit:10;}
</style>
<g id="Layer_1">
</g>
<g id="Layer_2">
</g>
<g id="Layer_3">
</g>
<g id="Layer_4">
</g>
<g id="Layer_5">
</g>
<g id="Layer_6">
</g>
<g id="Layer_7">
</g>
<g id="Layer_8">
</g>
<g id="Layer_9">
</g>
<g id="Layer_10">
	<g>
		<path class="st12" d="M175,74.38c-0.45,0-0.81-0.36-0.81-0.81V43.38c0-0.45,0.36-0.81,0.81-0.81c0.45,0,0.81,0.36,0.81,0.81v30.19
			C175.81,74.01,175.45,74.38,175,74.38z M156.21,77.73c-0.31,0-0.6-0.17-0.74-0.47l-8.39-18.45c-0.18-0.4,0-0.88,0.4-1.07
			c0.41-0.18,0.88,0,1.07,0.4l8.39,18.45c0.18,0.4,0,0.88-0.4,1.07C156.44,77.7,156.33,77.73,156.21,77.73z M148.35,86.75
			c-0.14,0-0.28-0.04-0.4-0.11L121.8,71.55c-0.39-0.22-0.52-0.71-0.3-1.1c0.22-0.39,0.72-0.52,1.1-0.3l26.15,15.09
			c0.39,0.22,0.52,0.71,0.3,1.1C148.9,86.61,148.63,86.75,148.35,86.75z M143.93,101.11c-0.03,0-0.05,0-0.08,0l-20.17-1.96
			c-0.44-0.04-0.77-0.44-0.72-0.88c0.04-0.44,0.43-0.75,0.88-0.73l20.17,1.96c0.44,0.04,0.77,0.44,0.72,0.88
			C144.69,100.8,144.34,101.11,143.93,101.11z M205.73,101.11c-0.41,0-0.76-0.31-0.8-0.73c-0.04-0.44,0.28-0.84,0.72-0.88
			l20.17-1.96c0.45-0.02,0.84,0.28,0.88,0.73c0.04,0.44-0.28,0.84-0.72,0.88l-20.17,1.96C205.78,101.11,205.75,101.11,205.73,101.11
			z M201.65,87.68c-0.28,0-0.55-0.15-0.7-0.4c-0.22-0.39-0.09-0.88,0.3-1.1l26.15-15.09c0.38-0.23,0.88-0.09,1.1,0.3
			c0.22,0.39,0.09,0.88-0.3,1.1l-26.15,15.1C201.93,87.65,201.79,87.68,201.65,87.68z M191.42,76.68c-0.16,0-0.33-0.05-0.47-0.15
			c-0.36-0.26-0.45-0.76-0.19-1.13l11.78-16.49c0.26-0.36,0.76-0.44,1.12-0.19c0.36,0.26,0.45,0.76,0.19,1.13l-11.78,16.49
			C191.92,76.56,191.67,76.68,191.42,76.68z"/>
		<path class="st12" d="M163.27,118.97v-5.56l0.21-0.42h-57.82c-2.9,0-5.25,2.34-5.25,5.24v1.51c0,2.89,2.35,5.24,5.25,5.24h60.64
			L163.27,118.97z M134.09,119.79l-0.84,1.68l-2.39,1.11l-2.45-1.11l-0.84-1.68v-1.54l0.84-1.66l2.42-1.07l2.42,1.07l0.84,1.66
			V119.79z"/>
		<path class="st12" d="M244.34,112.99h-40.59v9.99l-1,2h41.59c2.9,0,5.25-2.35,5.25-5.24v-1.51
			C249.59,115.33,247.24,112.99,244.34,112.99z M222.43,119.79l-0.83,1.68l-2.39,1.11l-2.45-1.11l-0.84-1.68v-1.54l0.84-1.66
			l2.42-1.07l2.42,1.07l0.83,1.66V119.79z M186.73,113.41l1.76-0.42h-1.98L186.73,113.41z"/>
		<path class="st14" d="M153.65,94.61v0.01c0.03-0.01,0.07-0.03,0.11-0.06L153.65,94.61z M166.3,124.97l8.7,4.05l0.12-0.06
			L166.3,124.97z M166.3,124.97l8.7,4.05l0.12-0.06L166.3,124.97z M186.52,112.99l0.21,0.42l1.76-0.42H186.52z M166.3,124.97
			l8.7,4.05l0.12-0.06L166.3,124.97z M166.3,124.97l8.7,4.05l0.12-0.06L166.3,124.97z M166.3,124.97l8.7,4.05l0.12-0.06
			L166.3,124.97z M166.3,124.97l8.7,4.05l0.12-0.06L166.3,124.97z M160.3,91.57c-0.81,0.37-1.6,0.72-2.32,1.05L160.3,91.57z
			 M166.3,124.97l8.7,4.05l0.12-0.06L166.3,124.97z M186.52,112.99l0.21,0.42l1.76-0.42H186.52z M128.41,121.47l2.42,1.12l0.03-0.01
			L128.41,121.47z M128.41,121.47l2.42,1.12l0.03-0.01L128.41,121.47z M128.41,121.47l2.42,1.12l0.03-0.01L128.41,121.47z
			 M216.76,121.47l2.42,1.12l0.03-0.01L216.76,121.47z M216.76,121.47l2.42,1.12l0.03-0.01L216.76,121.47z M216.76,121.47l2.42,1.12
			l0.03-0.01L216.76,121.47z"/>
		<path class="st14" d="M136.76,113.02l-0.08-0.03l-5.86-2.64c0,0-0.52,0.23-1.24,0.55l-0.47,0.21c-0.08,0.03-0.17,0.07-0.24,0.11
			l-0.57,0.26l-0.88,0.39l-1.23,0.55l-0.94,0.43l-0.26,0.12c-0.01,0-0.01,0-0.02,0.01c-0.03,0.01-0.06,0.02-0.08,0.03l-2.06,4.09
			v3.79l2.04,4.06l0.02,0.03l5.93,2.61l5.94-2.61l0.02-0.03l2.04-4.06v-3.79L136.76,113.02z M134.09,118.25v1.54l-0.84,1.68
			l-2.39,1.11l-0.03,0.01l-2.42-1.12l-0.84-1.68v-1.54l0.84-1.66l2.42-1.07l2.42,1.07L134.09,118.25z"/>
		<path class="st14" d="M203.75,109.34v3.65h-17.23l-2.82-5.58l-8.7-3.83l-8.7,3.83l-2.82,5.58h-17.24v-3.65l7.41-14.71
			c0.03-0.01,0.07-0.03,0.11-0.06c0.04-0.02,0.09-0.04,0.13-0.07c0.06-0.02,0.12-0.06,0.19-0.09l0.28-0.13l0.29-0.13l15.86-7.16
			l1-0.44l0.99-0.44l0.46-0.2l0.8-0.36l0.43-0.2c0.52-0.23,0.82-0.37,0.82-0.37l21.35,9.63L203.75,109.34z M188.49,112.99
			l-1.76,0.42v5.56l-3.03,6h19.05l1-2v-9.99H188.49z M183.7,124.97l-8.58,3.99l-0.12,0.06l-8.7-4.05l-3.03-6v-5.56l0.21-0.42h-17.24
			v9.99l1.01,2l6.4,12.73l21.35,9.39l21.35-9.39l6.4-12.73H183.7z"/>
		<path class="st14" d="M225.1,113.02l-0.08-0.03l-5.85-2.64c0,0-0.52,0.23-1.24,0.55l-0.47,0.21c-0.17,0.07-0.33,0.14-0.5,0.22
			l-0.79,0.36l-1.34,0.6l-1.09,0.49l-0.26,0.12l-0.19,0.09c-0.02,0.01-0.04,0.02-0.07,0.03l-2.06,4.09v3.79l2.04,4.06l0.02,0.03
			l5.94,2.61l5.93-2.61l0.02-0.03l2.04-4.06v-3.79L225.1,113.02z M222.43,118.25v1.54l-0.83,1.68l-2.39,1.11l-0.03,0.01l-2.42-1.12
			l-0.84-1.68v-1.54l0.84-1.66l2.42-1.07l2.42,1.07L222.43,118.25z"/>
	</g>
</g>
<g id="Layer_11">
</g>
<g id="Layer_12">
</g>
<g id="Layer_13">
</g>
<g id="Layer_14">
</g>
<g id="Layer_15">
</g>
</svg>
