<?xml version="1.0" encoding="utf-8"?>
<!-- Generator: Adobe Illustrator 27.8.1, SVG Export Plug-In . SVG Version: 6.00 Build 0)  -->
<svg version="1.1" xmlns="http://www.w3.org/2000/svg" xmlns:xlink="http://www.w3.org/1999/xlink" x="0px" y="0px"
	 viewBox="0 0 350 230" style="enable-background:new 0 0 350 230;" xml:space="preserve">
<style type="text/css">
	.st0{fill:#8DC63F;}
	.st1{fill:#02913F;}
	.st2{fill:#008713;}
	.st3{fill:#66FF74;}
	.st4{fill:#493D00;}
	.st5{fill:#005505;}
	.st6{fill:#646A07;}
	.st7{fill:#48990E;}
	.st8{fill:#896500;}
	.st9{fill:#9FE2FF;}
	.st10{fill:#754C24;}
	.st11{fill:#FFF30B;}
	.st12{fill:#7ABC50;}
	.st13{fill:#370900;}
	.st14{fill:#C8FF8D;}
	.st15{fill:#377300;}
	.st16{fill:#002F1A;}
	.st17{fill:#C19E00;}
	.st18{fill:#FFCE00;}
	.st19{fill:#583F00;}
	.st20{fill:#5B7200;}
	.st21{fill:#96FF00;}
	.st22{fill-rule:evenodd;clip-rule:evenodd;fill:#22704A;}
	.st23{fill:#A5D065;}
	.st24{fill:#8EC146;}
	.st25{fill-rule:evenodd;clip-rule:evenodd;fill:#604500;}
	.st26{fill-rule:evenodd;clip-rule:evenodd;fill:#03FCB5;}
	.st27{fill-rule:evenodd;clip-rule:evenodd;fill:#B5FF00;}
	.st28{fill:#008F09;}
	.st29{fill:#491C00;}
	.st30{fill:#CAB400;}
	.st31{fill-rule:evenodd;clip-rule:evenodd;fill:#FFBE78;}
	.st32{fill:#351700;}
</style>
<g id="Layer_1">
	<g>
		<path class="st0" d="M264.04,79.1L263,78.75l-0.91-0.69l-0.69,0.28l-0.35-0.55l-0.62,0.83l-0.28-0.76h-0.55l-0.69-0.9l-0.83,0.35
			l1.25,1.39l-1.67-0.69l-0.76,0.49l0.28-1.11l-0.8-0.07v11.31c1.03,0.58,2.06,1.08,3.09,1.48c0,0-15.25,26.29-70.82,20.02
			c-45.51-5.14-55.04-4.15-56.99-3.64c1.7-0.73,7.7-3.35,15.29-7.53V85.9l-0.55,0.28l-0.47,1.03l-0.32,1.17l-2.2-0.31L142.45,89
			l-0.71,0.4l-0.3-0.96l-2.38-0.06v-0.31l1.03-0.4l-0.95-0.55v-0.94l-1.18-1.34l1.26-0.24l-0.86-0.86l1.18-0.55l-1.34-1.65l1.8,0.54
			v-1.02l-0.23-1.1l1.49,0.4l-1.73-2.52l1.34-0.24l-0.71-1.89l0.94,0.55c0.16-1.65-0.55-2.04-0.55-2.04l1.89,0.47l-0.94-1.73
			l2.12,0.23l-1.03-0.94l-1.34-1.89l1.73,0.31l-0.4-0.94l-0.16-1.83l1.27,0.39l-0.5-1.8l0.76,0.18l-0.06-1.51l1.44,0.54l0.18-0.54
			l-0.62-1.12l0.94-0.23c0,0-0.06-0.47-0.21-0.54c-0.15-0.06-0.27-1.27-0.27-1.27l0.95-0.06l-0.32-1.26l1.15-0.28l0.59-1.41
			l0.67-0.95l0.08-0.04l0.47,1.49l1.15,0.83l-0.59,0.28l0.4,1.02l-0.08,0.47l1.49,0.55l-1.02,0.16l1.17,1.03l-0.47,0.86l2.2,0.71
			l-0.79,0.32l1.34,1.26l-1.18,0.23l1.73,0.86l-1.41,0.79l1.97,0.31l-1.41,0.4l-0.16,0.71l0.63,0.16l0.85-0.1l0.1,0.25l-0.1,0.57
			l-0.61,0.14l-0.47,0.16l-0.08,0.39h0.94l0.16,0.63h-0.71l-0.71,0.71l1.81,0.24l-0.16,0.79h-1.34l0.23,0.86l1.89,0.47l0.08,0.55
			l-1.57-0.47v0.71l1.34,0.47l-0.16,0.63l1.65,0.24l-0.11,0.61l-1.95-0.06l0.18,1.18l0.95,0.63h-1.18l0.79,0.87l2.21,0.94
			l-1.58,0.55l-0.16,1.49l1.73,0.08l-0.47,0.71l-0.32,1.02l0.95,0.32l-0.63,0.55l1.26,1.57l-1.18-0.4l-1.03-0.79l-0.79,0.32
			l-0.4-0.63l-0.71,0.94l-0.31-0.86h-0.63l-0.79-1.03l-0.95,0.4l1.41,1.57l-1.89-0.79l-0.86,0.55l0.32-1.26l-0.91-0.08V97.2
			c11.44-6.59,25.41-16.27,33.91-28.05c2.23-3.09,6.37,1.29,11.06,11.14c0,0,4.28-6.22,6.46-6.62c2.18-0.4,11.38,9.44,13.48,11.22
			c0,0,12.83-20.5,15.34-18.89c6.52,4.21,14.75,14.87,23.34,20.87v-9.76l-0.49,0.25l-0.42,0.9l-0.28,1.05l-1.95-0.28l-0.83,0.83
			l-0.62,0.35l-0.26-0.85l-2.1-0.05v-0.28l0.91-0.35l-0.83-0.49v-0.83l-1.04-1.18l1.11-0.21l-0.76-0.76l1.04-0.48l-1.18-1.46
			l1.6,0.48v-0.9l-0.21-0.98l1.32,0.35L247.1,70l1.18-0.21l-0.62-1.67l0.83,0.49c0.14-1.46-0.48-1.8-0.48-1.8l1.66,0.42l-0.83-1.53
			l1.87,0.21l-0.91-0.83l-1.18-1.66l1.53,0.28l-0.35-0.83l-0.14-1.61l1.12,0.34l-0.45-1.59l0.68,0.16l-0.06-1.32l1.28,0.47
			l0.16-0.47l-0.55-0.99l0.83-0.21c0,0-0.05-0.42-0.18-0.47c-0.13-0.05-0.23-1.12-0.23-1.12l0.83-0.06l-0.28-1.11l1-0.24l0.52-1.25
			l0.59-0.83l0.07-0.04l0.42,1.32l1,0.73l-0.52,0.25l0.35,0.9l-0.07,0.42l1.32,0.49l-0.9,0.13l1.04,0.91l-0.42,0.76l1.95,0.62
			l-0.69,0.28l1.18,1.11l-1.05,0.21l1.53,0.76l-1.25,0.69l1.73,0.28l-1.25,0.35l-0.13,0.62l0.55,0.14l0.75-0.09l0.08,0.23l-0.08,0.5
			l-0.54,0.13l-0.42,0.13l-0.07,0.35h0.83l0.13,0.56h-0.62l-0.62,0.62l1.6,0.21l-0.14,0.69h-1.18l0.21,0.76l1.67,0.42l0.07,0.48
			l-1.39-0.42v0.63l1.17,0.42l-0.13,0.55l1.46,0.21l-0.11,0.54l-1.72-0.06l0.16,1.05l0.83,0.55h-1.04l0.69,0.76l1.95,0.83
			l-1.39,0.49l-0.14,1.32l1.53,0.07l-0.42,0.62l-0.28,0.91l0.83,0.28l-0.56,0.49L264.04,79.1z M161.54,129.01
			c51.72,7.1,68.74-6.74,68.74-6.74c-21.92,9.31-70.64,0.26-70.64,0.26c-63.82-11.88-73.01,14.62-73.01,14.62
			C101.86,128.27,109.82,121.91,161.54,129.01z"/>
		<path class="st1" d="M186.05,76.1c0,0,2.91,9.85,11.95,11.46c0,0,2.74-0.81,4.2-5.65c0,0,1.78,6.62,11.79,5.97
			c0,0-6.3,13.72-30.03,14.37c-23.73,0.65-26.48-1.13-26.48-1.13s22.6-5.81,25.19-16.14C185.25,74.64,186.05,76.1,186.05,76.1z
			 M231.1,74.48c0,0-11.95,25.83-23.57,30.84c0,0,26.64,3.23,42.46-13.4c0,0-9.36,0.65-9.53-1.61c-0.16-2.26,1.29-7.75-1.45-7.91
			c-2.74-0.16-3.07-4.2-3.07-4.2L231.1,74.48z M259.35,95.15c0,0-10.01,37.78-87.83,24.22c0,0-59.41-10.33-85.57,3.87
			c0,0,20.02-20.34,82.98-12.92S241.27,108.39,259.35,95.15z"/>
	</g>
</g>
<g id="Layer_2">
</g>
<g id="Layer_3">
</g>
<g id="Layer_4">
</g>
<g id="Layer_5">
</g>
<g id="Layer_6">
</g>
<g id="Layer_7">
</g>
<g id="Layer_8">
</g>
<g id="Layer_9">
</g>
<g id="Layer_10">
</g>
<g id="Layer_11">
</g>
<g id="Layer_12">
</g>
<g id="Layer_13">
</g>
<g id="Layer_14">
</g>
<g id="Layer_15">
</g>
</svg>
