<?xml version="1.0" encoding="utf-8"?>
<!-- Generator: Adobe Illustrator 27.8.1, SVG Export Plug-In . SVG Version: 6.00 Build 0)  -->
<svg version="1.1" xmlns="http://www.w3.org/2000/svg" xmlns:xlink="http://www.w3.org/1999/xlink" x="0px" y="0px"
	 viewBox="0 0 350 230" style="enable-background:new 0 0 350 230;" xml:space="preserve">
<style type="text/css">
	.st0{fill:#8DC63F;}
	.st1{fill:#02913F;}
	.st2{fill:#008713;}
	.st3{fill:#66FF74;}
	.st4{fill:#493D00;}
	.st5{fill:#005505;}
	.st6{fill:#646A07;}
	.st7{fill:#48990E;}
	.st8{fill:#896500;}
	.st9{fill:#9FE2FF;}
	.st10{fill:#754C24;}
	.st11{fill:#FFF30B;}
	.st12{fill:#7ABC50;}
	.st13{fill:#370900;}
	.st14{fill:#C8FF8D;}
	.st15{fill:#377300;}
	.st16{fill:#002F1A;}
	.st17{fill:#C19E00;}
	.st18{fill:#FFCE00;}
	.st19{fill:#583F00;}
	.st20{fill:#5B7200;}
	.st21{fill:#96FF00;}
	.st22{fill-rule:evenodd;clip-rule:evenodd;fill:#22704A;}
	.st23{fill:#A5D065;}
	.st24{fill:#8EC146;}
	.st25{fill-rule:evenodd;clip-rule:evenodd;fill:#604500;}
	.st26{fill-rule:evenodd;clip-rule:evenodd;fill:#03FCB5;}
	.st27{fill-rule:evenodd;clip-rule:evenodd;fill:#B5FF00;}
	.st28{fill:#008F09;}
	.st29{fill:#491C00;}
	.st30{fill:#CAB400;}
	.st31{fill-rule:evenodd;clip-rule:evenodd;fill:#FFBE78;}
	.st32{fill:#351700;}
</style>
<g id="Layer_1">
</g>
<g id="Layer_2">
</g>
<g id="Layer_3">
</g>
<g id="Layer_4">
</g>
<g id="Layer_5">
</g>
<g id="Layer_6">
</g>
<g id="Layer_7">
</g>
<g id="Layer_8">
</g>
<g id="Layer_9">
</g>
<g id="Layer_10">
	<path id="logo_1_" class="st21" d="M235.66,99.94c-15.62-6.49-12.22-19.43-12.22-19.43c-15.44,14.48-45.2,21.46-45.2,21.46
		c-10.75,3.25-47.56,14.26-40.85-7.28c2.41-7.75-6.4-15.18-6.4-15.18c-24.1,23.7-61.9,30.47-62.5,30.57
		c0.62-0.14,36.94-8.34,63.09-34.49c0,0,18.06,19.88,41.39,22.72c23.08,2.81,50.93-22.18,51.53-22.72c0.01-0.01,0.01,0,0.02,0
		c0.37,0.6,16.12,25.66,57.01,34.48h-45.85C235.66,110.08,251.28,106.43,235.66,99.94z"/>
</g>
<g id="Layer_11">
</g>
<g id="Layer_12">
</g>
<g id="Layer_13">
</g>
<g id="Layer_14">
</g>
<g id="Layer_15">
</g>
</svg>
