<?xml version="1.0" encoding="utf-8"?>
<!-- Generator: Adobe Illustrator 27.8.1, SVG Export Plug-In . SVG Version: 6.00 Build 0)  -->
<svg version="1.1" xmlns="http://www.w3.org/2000/svg" xmlns:xlink="http://www.w3.org/1999/xlink" x="0px" y="0px"
	 viewBox="0 0 350 230" style="enable-background:new 0 0 350 230;" xml:space="preserve">
<style type="text/css">
	.st0{fill:#8DC63F;}
	.st1{fill:#02913F;}
	.st2{fill:#008713;}
	.st3{fill:#66FF74;}
	.st4{fill:#493D00;}
	.st5{fill:#005505;}
	.st6{fill:#646A07;}
	.st7{fill:#48990E;}
	.st8{fill:#896500;}
	.st9{fill:#9FE2FF;}
	.st10{fill:#754C24;}
	.st11{fill:#FFF30B;}
	.st12{fill:#7ABC50;}
	.st13{fill:#370900;}
	.st14{fill:#C8FF8D;}
	.st15{fill:#377300;}
	.st16{fill:#002F1A;}
	.st17{fill:#C19E00;}
	.st18{fill:#FFCE00;}
	.st19{fill:#583F00;}
	.st20{fill:#5B7200;}
	.st21{fill:#96FF00;}
	.st22{fill-rule:evenodd;clip-rule:evenodd;fill:#22704A;}
	.st23{fill:#A5D065;}
	.st24{fill:#8EC146;}
	.st25{fill-rule:evenodd;clip-rule:evenodd;fill:#604500;}
	.st26{fill-rule:evenodd;clip-rule:evenodd;fill:#03FCB5;}
	.st27{fill-rule:evenodd;clip-rule:evenodd;fill:#B5FF00;}
	.st28{fill:#008F09;}
	.st29{fill:#491C00;}
	.st30{fill:#CAB400;}
	.st31{fill-rule:evenodd;clip-rule:evenodd;fill:#FFBE78;}
	.st32{fill:#351700;}
</style>
<g id="Layer_1">
</g>
<g id="Layer_2">
</g>
<g id="Layer_3">
</g>
<g id="Layer_4">
</g>
<g id="Layer_5">
</g>
<g id="Layer_6">
</g>
<g id="Layer_7">
</g>
<g id="Layer_8">
</g>
<g id="Layer_9">
</g>
<g id="Layer_10">
</g>
<g id="Layer_11">
	<g>
		<path class="st1" d="M70.35,111.19c2.98-1.74,6.02-3.38,8.94-5.22c11.7-7.42,23.35-14.92,35.05-22.34
			c7.15-4.54,5.55-4.37,12.58-0.74c4.48,2.31,8.82,4.89,13.15,7.48c2.36,1.42,4.33,1.33,6.74-0.13c9.21-5.6,18.55-10.99,27.85-16.45
			c1.51-0.89,2.95-0.63,4.45,0.14c11.14,5.72,22.31,11.37,33.42,17.15c2.08,1.08,3.86,1.26,6.07,0.35
			c5.83-2.42,11.78-4.56,17.65-6.9c2.04-0.81,3.71-0.58,5.51,0.7c12.33,8.77,24.72,17.47,37.09,26.19c0.32,0.23,0.64,0.46,0.8,1.04
			c-0.66-0.3-1.37-0.53-1.98-0.9c-12.04-7.31-24.09-14.61-36.09-21.99c-2.03-1.25-3.87-1.49-6.04-0.45
			c-3.34,1.6-6.78,3.01-10.15,4.55c-2.9,1.33-3.37,3.49-0.72,5.21c3.61,2.34,5.88,5.65,8.1,9.12c0.61,0.95,1.63,1.64,2.32,2.55
			c0.39,0.52,0.49,1.25,0.72,1.89c-0.62,0.17-1.41,0.67-1.84,0.45c-2.51-1.28-5.09-2.51-7.34-4.18c-3.68-2.73-7.5-5.12-12.05-5.94
			c-3.13-0.56-6.32-1-9.48-1.06c-4.08-0.07-7.57-1.4-10.29-4.3c-2.69-2.87-5-6.08-7.53-9.09c-2.08-2.48-4.13-5.01-6.39-7.33
			c-1.92-1.98-3.57-2.11-5.99-0.82c-7.2,3.87-14.38,7.78-21.56,11.69c-12.27,6.68-24.53,13.38-36.8,20.07
			c-0.2,0.11-0.42,0.3-0.62,0.29c-0.63-0.05-1.24-0.18-1.87-0.28c0.2-0.64,0.2-1.59,0.64-1.88c2.61-1.73,5.33-3.28,7.98-4.94
			c1.52-0.96,3.04-1.94,4.42-3.07c2.26-1.86,2.71-4.04,0.87-6.24c-2.18-2.61-4.69-4.95-7.22-7.23c-1.21-1.09-2.86-0.84-4.3-0.16
			c-6.34,2.99-12.73,5.88-18.97,9.08c-8.41,4.31-16.68,8.86-25.02,13.3c-0.6,0.32-1.24,0.56-1.86,0.84
			C70.51,111.47,70.43,111.33,70.35,111.19z"/>
	</g>
</g>
<g id="Layer_12">
</g>
<g id="Layer_13">
</g>
<g id="Layer_14">
</g>
<g id="Layer_15">
</g>
</svg>
