<?xml version="1.0" encoding="utf-8"?>
<!-- Generator: Adobe Illustrator 27.8.1, SVG Export Plug-In . SVG Version: 6.00 Build 0)  -->
<svg version="1.1" xmlns="http://www.w3.org/2000/svg" xmlns:xlink="http://www.w3.org/1999/xlink" x="0px" y="0px"
	 viewBox="0 0 350 230" style="enable-background:new 0 0 350 230;" xml:space="preserve">
<style type="text/css">
	.st0{fill:#8DC63F;}
	.st1{fill:#02913F;}
	.st2{fill:#008713;}
	.st3{fill:#66FF74;}
	.st4{fill:#493D00;}
	.st5{fill:#005505;}
	.st6{fill:#646A07;}
	.st7{fill:#48990E;}
	.st8{fill:#896500;}
	.st9{fill:#9FE2FF;}
	.st10{fill:#754C24;}
	.st11{fill:#FFF30B;}
	.st12{fill:#7ABC50;}
	.st13{fill:#370900;}
	.st14{fill:#C8FF8D;}
	.st15{fill:#377300;}
	.st16{fill:#002F1A;}
	.st17{fill:#C19E00;}
	.st18{fill:#FFCE00;}
	.st19{fill:#583F00;}
	.st20{fill:#5B7200;}
	.st21{fill:#96FF00;}
	.st22{fill-rule:evenodd;clip-rule:evenodd;fill:#22704A;}
	.st23{fill:#A5D065;}
	.st24{fill:#8EC146;}
	.st25{fill-rule:evenodd;clip-rule:evenodd;fill:#604500;}
	.st26{fill-rule:evenodd;clip-rule:evenodd;fill:#03FCB5;}
	.st27{fill-rule:evenodd;clip-rule:evenodd;fill:#B5FF00;}
	.st28{fill:#008F09;}
	.st29{fill:#491C00;}
	.st30{fill:#CAB400;}
	.st31{fill-rule:evenodd;clip-rule:evenodd;fill:#FFBE78;}
	.st32{fill:#351700;}
</style>
<g id="Layer_1">
</g>
<g id="Layer_2">
</g>
<g id="Layer_3">
</g>
<g id="Layer_4">
</g>
<g id="Layer_5">
</g>
<g id="Layer_6">
</g>
<g id="Layer_7">
</g>
<g id="Layer_8">
</g>
<g id="Layer_9">
</g>
<g id="Layer_10">
</g>
<g id="Layer_11">
</g>
<g id="Layer_12">
</g>
<g id="Layer_13">
	<g>
		<path class="st25" d="M205.49,136.6c-8.59,6.19-19.14,9.83-30.53,9.83c-11.36,0-21.88-3.62-30.46-9.77
			c10.16-1.17,20.31-1.76,30.45-1.77C185.14,134.87,195.31,135.44,205.49,136.6 M218.94,122.49c-2.54,3.93-5.6,7.5-9.08,10.61
			c-11.63-1.49-23.25-2.23-34.88-2.21c-11.61,0.01-23.22,0.78-34.82,2.27c-3.48-3.11-6.55-6.67-9.1-10.6
			c14.65-2.41,29.29-3.63,43.91-3.65C189.63,118.89,204.28,120.07,218.94,122.49 M225.53,107.68c-1.05,3.91-2.53,7.63-4.41,11.12
			c-15.38-2.63-30.76-3.91-46.13-3.89c-15.38,0.02-30.74,1.35-46.1,3.95c-1.88-3.49-3.37-7.21-4.42-11.12
			c16.85-3.18,33.69-4.8,50.52-4.82C191.83,102.91,208.68,104.48,225.53,107.68"/>
		<path class="st26" d="M130.64,102.6c-0.52-2.75-0.8-5.59-0.8-8.49c0-12.47,5.05-23.76,13.23-31.93
			C151.24,54,162.53,48.94,175,48.94c12.47,0,23.76,5.06,31.93,13.23c8.17,8.17,13.23,19.46,13.23,31.93c0,2.88-0.27,5.7-0.79,8.43
			c2.35,0.39,4.7,0.8,7.05,1.25c0.59-3.14,0.9-6.37,0.9-9.68c0-28.9-23.43-52.32-52.32-52.32c-28.9,0-52.32,23.43-52.32,52.32
			c0,3.33,0.31,6.58,0.91,9.74C125.94,103.4,128.29,102.98,130.64,102.6L130.64,102.6z M132.7,94.11c0,2.75,0.26,5.44,0.76,8.05
			c1.97-0.3,3.95-0.58,5.92-0.84c-0.47-2.33-0.71-4.74-0.71-7.2c0-10.03,4.07-19.11,10.64-25.69c6.57-6.57,15.66-10.64,25.69-10.64
			c10.03,0,19.11,4.07,25.69,10.64c6.57,6.57,10.64,15.66,10.64,25.69c0,2.44-0.24,4.83-0.7,7.14c1.97,0.26,3.95,0.54,5.92,0.84
			c0.49-2.58,0.75-5.25,0.75-7.98c0-11.68-4.73-22.25-12.39-29.91c-7.65-7.65-18.23-12.39-29.91-12.39s-22.25,4.73-29.91,12.39
			C137.44,71.85,132.7,82.43,132.7,94.11L132.7,94.11z M141.54,94.11c0,2.34,0.24,4.63,0.7,6.84c1.99-0.24,3.98-0.46,5.97-0.66
			c-0.46-1.99-0.7-4.06-0.7-6.18c0-7.59,3.08-14.47,8.05-19.44c4.97-4.97,11.85-8.05,19.44-8.05c7.59,0,14.47,3.08,19.44,8.05
			c4.97,4.97,8.05,11.85,8.05,19.44c0,2.11-0.24,4.16-0.68,6.13c1.99,0.2,3.98,0.41,5.97,0.65c0.45-2.19,0.69-4.46,0.69-6.78
			c0-9.24-3.75-17.61-9.8-23.66c-6.06-6.05-14.42-9.8-23.66-9.8c-9.24,0-17.61,3.75-23.66,9.8
			C145.28,76.5,141.54,84.86,141.54,94.11L141.54,94.11z"/>
		<path class="st27" d="M157.6,100.1c-1.93-6.66-3.66-10.84-10.27-16.27c6.01,1.77,11.03,5.02,13.92,10.54
			c-0.56-6.32-4.07-13.09-9.75-16.89c6.67,1.12,12.99,7.78,16.06,15.07c-1.1-10.24-4.24-21.83-8.64-32.23
			c7.04,7.19,11.41,16.33,13.44,25.33c0.53-16.87-0.68-32.62-3.46-40.03c6.51,7.64,9.8,22.63,9.24,37.41l0,0.63
			c1.79-8.71,7.25-22.06,14.22-28.43c-4.96,11.37-8.37,26.77-9.47,37.01c3.07-7.29,10.72-16.04,17.38-17.16
			c-5.68,3.81-10.96,12.99-11.53,19.31c3-5.1,8.08-8.94,13.92-10.54c-6.49,5.32-8.52,10.02-10.06,16.24
			c-5.87-0.38-11.75-0.57-17.62-0.56C169.2,99.51,163.4,99.71,157.6,100.1L157.6,100.1z"/>
	</g>
</g>
<g id="Layer_14">
</g>
<g id="Layer_15">
</g>
</svg>
