<?xml version="1.0" encoding="utf-8"?>
<!-- Generator: Adobe Illustrator 27.8.1, SVG Export Plug-In . SVG Version: 6.00 Build 0)  -->
<svg version="1.1" xmlns="http://www.w3.org/2000/svg" xmlns:xlink="http://www.w3.org/1999/xlink" x="0px" y="0px"
	 viewBox="0 0 350 230" style="enable-background:new 0 0 350 230;" xml:space="preserve">
<style type="text/css">
	.st0{fill:#8DC63F;}
	.st1{fill:#02913F;}
	.st2{fill:#008713;}
	.st3{fill:#66FF74;}
	.st4{fill:#493D00;}
	.st5{fill:#005505;}
	.st6{fill:#646A07;}
	.st7{fill:#48990E;}
	.st8{fill:#896500;}
	.st9{fill:#9FE2FF;}
	.st10{fill:#754C24;}
	.st11{fill:#FFF30B;}
	.st12{fill:#7ABC50;}
	.st13{fill:#370900;}
	.st14{fill:#C8FF8D;}
	.st15{fill:#377300;}
	.st16{fill:#002F1A;}
	.st17{fill:#C19E00;}
	.st18{fill:#FFCE00;}
	.st19{fill:#583F00;}
	.st20{fill:#5B7200;}
	.st21{fill:#96FF00;}
	.st22{fill-rule:evenodd;clip-rule:evenodd;fill:#22704A;}
	.st23{fill:#A5D065;}
	.st24{fill:#8EC146;}
	.st25{fill-rule:evenodd;clip-rule:evenodd;fill:#604500;}
	.st26{fill-rule:evenodd;clip-rule:evenodd;fill:#03FCB5;}
	.st27{fill-rule:evenodd;clip-rule:evenodd;fill:#B5FF00;}
	.st28{fill:#008F09;}
	.st29{fill:#491C00;}
	.st30{fill:#CAB400;}
	.st31{fill-rule:evenodd;clip-rule:evenodd;fill:#FFBE78;}
	.st32{fill:#351700;}
</style>
<g id="Layer_1">
</g>
<g id="Layer_2">
	<g>
		<path class="st2" d="M224.77,94.36c0-8-0.01-16.01,0.01-24.02c0.01-3.07-1.27-5.41-3.89-6.95c-13.94-8.16-27.88-16.31-41.83-24.45
			c-2.49-1.45-5.05-1.46-7.55-0.04c-14.04,7.99-28.07,16-42.09,24.01c-2.57,1.47-3.9,3.7-3.91,6.68c-0.1,16.09-0.2,32.18-0.29,48.27
			c-0.02,2.97,1.24,5.29,3.79,6.78c14,8.21,28.01,16.4,42.03,24.56c2.47,1.44,5.04,1.37,7.55-0.06
			c13.89-7.93,27.78-15.87,41.69-23.78c2.82-1.61,4.24-3.95,4.23-7.2c-0.02-7.93-0.01-15.86-0.01-23.79H224.77z M223.03,117.61
			c0,3.02-1.18,5.13-3.84,6.63c-13.66,7.73-27.3,15.52-40.92,23.32c-2.39,1.37-4.68,1.38-7.05-0.01
			c-13.55-7.94-27.09-15.88-40.68-23.75c-2.65-1.53-3.79-3.59-3.74-6.64c0.11-7.7,0.04-15.41,0.04-23.12h0.16
			c0-7.85,0.05-15.71-0.02-23.57c-0.03-3.14,1.32-5.22,4.03-6.75c13.54-7.65,27.04-15.35,40.53-23.1c2.56-1.46,4.9-1.47,7.45,0.03
			c13.4,7.88,26.83,15.73,40.29,23.51c2.7,1.56,3.96,3.59,3.93,6.77C223.06,86.49,223.04,102.05,223.03,117.61z"/>
		<path class="st3" d="M158.75,78.34c2,4.79,3.78,9.05,5.67,13.58c-10.87,0-21.39,0-32.26,0c0.98-2.91,1.91-5.65,3-8.87
			c0.62,1.43,1.04,2.4,1.62,3.75c1.19-2.84,2.27-5.41,3.48-8.28c0.64,1.31,1.14,2.3,1.82,3.69c1.04-2.96,1.97-5.57,3.12-8.83
			c1.95,5.36,3.7,10.17,5.61,15.43c0.77-2.02,1.4-3.67,2.18-5.74c0.68,1.71,1.21,3.05,1.88,4.73
			C156.16,84.64,157.33,81.79,158.75,78.34z M217.82,91.84c-1.02-2.97-1.94-5.65-3.03-8.8c-0.61,1.45-1.03,2.44-1.61,3.82
			c-1.19-2.88-2.26-5.46-3.45-8.36c-0.69,1.4-1.19,2.42-1.83,3.72c-1.08-3.04-2.02-5.7-3.13-8.84c-1.94,5.35-3.68,10.16-5.62,15.5
			c-0.81-2.18-1.4-3.79-2.16-5.84c-0.71,1.82-1.22,3.11-1.87,4.77c-1.33-3.22-2.52-6.1-3.9-9.44c-1.98,4.73-3.77,9-5.65,13.47
			C196.5,91.84,207.05,91.84,217.82,91.84z"/>
		<path class="st4" d="M217.77,96.49h-85.51c-0.07,0.6-0.17,1.11-0.18,1.61c-0.03,5.52-0.05,11.03-0.06,16.55
			c0,2.56,1.12,4.57,3.28,5.84c12.04,7.07,24.1,14.12,36.17,21.14c2.19,1.27,4.49,1.25,6.7-0.01c11.94-6.8,23.86-13.63,35.8-20.42
			c2.63-1.5,3.85-3.71,3.87-6.68c0.03-5.36,0.07-10.73,0.09-16.09C217.92,97.78,217.82,97.13,217.77,96.49z M177.41,138.76
			c-1.55,0.7-4,0.56-5.57-0.19c-3.93-1.85-7.59-4.26-11.87-6.75h29.97C185.41,134.39,181.54,136.88,177.41,138.76z M193.07,68.99
			c1.21-1.05,2.21-1.92,3.42-2.97c1.63,4.34,3.17,8.45,4.72,12.56c-0.12,0.06-0.24,0.11-0.35,0.17c-1.8-3.02-3.6-6.05-5.49-9.22
			c-0.31,0.13-0.56,0.23-0.8,0.34c-4.34,2-4.31,1.97-7.43-1.82c-1.46-1.77-3.1-3.41-1.62-6.01c-4.18,0.49-4.97,1.23-5.53,5.02
			c-0.18,1.19-0.34,2.39-0.52,3.58c-0.17,1.12-0.35,2.23-0.89,3.42c-0.16-0.86-0.35-1.71-0.48-2.58c-0.52-3.36-1.88-6.88-1.29-10.03
			c0.69-3.67-1.68-5.44-2.79-8.47c-4.42,9.24-8.62,18.06-12.83,26.87c-0.32-0.04-0.64-0.09-0.96-0.13
			c-0.32-2.63-0.65-5.26-1.03-8.35c-2.12,1.59-3.94,2.94-5.75,4.29c-0.08-0.09-0.16-0.18-0.24-0.27c1.92-1.81,3.83-3.62,5.88-5.55
			c1.07,1.55,2,2.9,3.13,4.55c3.94-8.19,7.76-16.15,11.75-24.45c2.35,3.87,4.49,7.39,6.68,11.01c0.76-0.14,1.49-0.24,2.21-0.4
			c3.97-0.86,3.97-0.86,6.16,2.43C190.29,64.91,191.61,66.83,193.07,68.99z"/>
	</g>
</g>
<g id="Layer_3">
</g>
<g id="Layer_4">
</g>
<g id="Layer_5">
</g>
<g id="Layer_6">
</g>
<g id="Layer_7">
</g>
<g id="Layer_8">
</g>
<g id="Layer_9">
</g>
<g id="Layer_10">
</g>
<g id="Layer_11">
</g>
<g id="Layer_12">
</g>
<g id="Layer_13">
</g>
<g id="Layer_14">
</g>
<g id="Layer_15">
</g>
</svg>
