<?xml version="1.0" encoding="utf-8"?>
<!-- Generator: Adobe Illustrator 27.8.1, SVG Export Plug-In . SVG Version: 6.00 Build 0)  -->
<svg version="1.1" xmlns="http://www.w3.org/2000/svg" xmlns:xlink="http://www.w3.org/1999/xlink" x="0px" y="0px"
	 viewBox="0 0 350 230" style="enable-background:new 0 0 350 230;" xml:space="preserve">
<style type="text/css">
	.st0{fill:#8DC63F;}
	.st1{fill:#02913F;}
	.st2{fill:#008713;}
	.st3{fill:#66FF74;}
	.st4{fill:#493D00;}
	.st5{fill:#005505;}
	.st6{fill:#646A07;}
	.st7{fill:#48990E;}
	.st8{fill:#896500;}
	.st9{fill:#9FE2FF;}
	.st10{fill:#754C24;}
	.st11{fill:#FFF30B;}
	.st12{fill:#7ABC50;}
	.st13{fill:#370900;}
	.st14{fill:#C8FF8D;}
	.st15{fill:#377300;}
	.st16{fill:#002F1A;}
	.st17{fill:#C19E00;}
	.st18{fill:#FFCE00;}
	.st19{fill:#583F00;}
	.st20{fill:#5B7200;}
	.st21{fill:#96FF00;}
	.st22{fill-rule:evenodd;clip-rule:evenodd;fill:#22704A;}
	.st23{fill:#A5D065;}
	.st24{fill:#8EC146;}
	.st25{fill-rule:evenodd;clip-rule:evenodd;fill:#604500;}
	.st26{fill-rule:evenodd;clip-rule:evenodd;fill:#03FCB5;}
	.st27{fill-rule:evenodd;clip-rule:evenodd;fill:#B5FF00;}
	.st28{fill:#008F09;}
	.st29{fill:#491C00;}
	.st30{fill:#CAB400;}
	.st31{fill-rule:evenodd;clip-rule:evenodd;fill:#FFBE78;}
	.st32{fill:#351700;}
</style>
<g id="Layer_1">
</g>
<g id="Layer_2">
</g>
<g id="Layer_3">
	<g>
		<path class="st5" d="M127.71,88.71c2.11,0,4.22-0.1,6.32,0.03c2.07,0.12,4.13,0.46,6.37,0.73c0-3.19,0.01-6.31-0.02-9.43
			c0-0.25-0.26-0.63-0.49-0.72c-2.68-1.03-4.55-3-6.11-5.28c-3.22,1.56-5.61,1.09-6.7-1.26c-1.11-2.38,0.02-4.72,2.52-5.87
			c0.19-1.42,0.01-2.83,0.6-3.75c0.81-1.26,2.08-2.35,3.38-3.12c0.76-0.45,1.21-0.7,1.42-1.63c0.68-2.95,3.09-4.78,6.38-5.04
			c2.4-0.19,5.47,1.74,6.44,4.11c0.19,0.46,0.16,1.02,0.24,1.61c4.12,1.55,5.38,2.95,5.28,6.06c-0.55,0.09-1.12,0.18-1.69,0.27
			c2.46,0.18,4.37,1.15,4.97,3.71c0.37,1.56-0.13,2.99-1.48,3.92c-1.81,1.25-3.63,0.88-5.39-0.28c-1.72,1.55-2.96,3.67-5.47,4.25
			c-0.41,0.1-0.85,1.13-0.85,1.74c-0.05,3.46-0.02,6.92,0.1,10.38c0.02,0.51,0.55,1.22,1.03,1.44c1.18,0.55,2.45,1,3.73,1.23
			c0.73,0.14,1.73,0.02,2.32-0.4c7.15-5.14,14.62-9.75,22.52-13.6c4.38-2.14,8.94-3.89,13.44-5.78c0.75-0.31,1.71-0.22,2.35-0.65
			c0.65-0.43,1.23-1.21,1.46-1.95c0.12-0.39-0.62-1.02-0.92-1.57c-0.24-0.44-0.62-0.97-0.55-1.38c0.5-2.74,1.1-5.47,1.68-8.19
			c0.07-0.31,0.24-0.59,0.5-1.19c0.63,2.03,1.74,3.84,1.56,5.51c-0.16,1.44,0.4,2.5,0.52,3.75c0.04,0.39-0.11,1.09-0.32,1.16
			c-1.75,0.56-0.95,1.89-1.08,3.13c2.27-0.3,4.41-0.58,6.6-0.86c0-1.16,0-2.2,0-3.24c-2.78-1.18-2.97-1.63-1.88-4.66
			c0.37-1.02,0.76-2.04,1.19-3.22c-0.5-0.03-0.84-0.05-1.39-0.08c1.01-3.76,2-7.47,2.99-11.18c0.12,0,0.23,0,0.35,0
			c0.96,3.62,1.91,7.25,2.9,10.99c-0.43,0.13-0.81,0.25-1.23,0.38c0.01,0.18-0.01,0.34,0.04,0.49c0.52,1.56,1.14,3.09,1.53,4.68
			c0.26,1.04-0.09,2.08-1.36,2.19c-1.03,0.09-1.49,0.63-1.23,1.47c0.24,0.79,0.77,1.99,1.34,2.1c2.12,0.39,4.32,0.41,6.62,0.57
			c0-1.19,0-2.42,0-3.67c-2.52-0.88-2.85-1.49-2.05-4.11c0.37-1.2,0.81-2.38,1.27-3.69c-0.48-0.12-0.86-0.22-1.34-0.35
			c1.05-3.86,2.09-7.69,3.13-11.52c0.1-0.02,0.2-0.05,0.31-0.07c1.02,3.78,2.04,7.57,3.09,11.49c-1.32,0.16-1.36,0.9-0.9,1.92
			c0.38,0.85,0.63,1.75,0.96,2.63c0.98,2.66,0.62,3.28-2.18,3.68c-0.04,0.15-0.12,0.3-0.13,0.46c-0.16,3.79-0.13,3.72,3.42,5.12
			c5.42,2.14,10.17,5.37,14.53,9.21c0.16,0.14,0.31,0.31,0.47,0.46c2.4,2.17,2.4,2.17,2.53,5.53c-0.61-0.24-1.15-0.43-1.67-0.66
			c-7.17-3.34-14.57-5.84-22.53-6.28c-7.91-0.43-15.52,1.12-22.9,3.88c-7.59,2.84-14.72,6.59-21.44,11.1
			c-0.76,0.51-1.47,1.11-2.31,1.76c1.35,1.13,2.52,1.13,3.83,0.28c11.94-7.69,24.8-12.49,39.22-11.82
			c9.51,0.44,18.45,3.23,26.95,7.43c0.46,0.23,0.85,1.05,0.86,1.6c0.03,1.31-0.19,2.62-0.32,3.93c-0.01,0.09-0.12,0.17-0.36,0.49
			c-21.43-13.24-42.7-12.99-63.76,1.38c1.23,0.98,2.19,1.35,3.75,0.43c7.17-4.21,14.83-7.1,23.16-8.05
			c9.42-1.07,18.23,1.07,26.66,5.09c2.87,1.37,5.61,3,8.44,4.46c0.89,0.46,1.19,0.99,0.86,1.95c-0.63,1.86-1.19,3.74-1.84,5.78
			c-2.07-1.63-3.94-3.13-5.84-4.59c-5.79-4.43-12.04-7.95-19.38-8.9c-10.49-1.35-19.79,1.75-28.46,7.97
			c1.2,0.61,2.12,1.25,3.14,1.54c0.55,0.16,1.35-0.12,1.9-0.44c9.91-5.81,20.2-7.45,31.03-2.78c5.06,2.18,9.24,5.69,13.34,9.27
			c2.56,2.23,2.28,2.1,0.75,5.04c-1.73,3.32-4.07,3.98-7.63,3.74c-11.52-0.77-22.37-4.06-32.82-8.57
			c-9.36-4.04-18.46-8.7-27.62-13.2c-8-3.93-16.05-7.67-24.84-9.49c-1.23-0.25-2.48-0.43-3.72-0.65
			C127.75,88.97,127.73,88.84,127.71,88.71z M208.75,75.12c-0.51-0.13-1.02-0.28-1.53-0.4c-5.43-1.28-10.8-0.79-16.15,0.51
			c-9.78,2.37-18.3,7.31-26.4,13.08c-0.68,0.48-1.35,0.97-2.02,1.46c0.71,0.01,1.26-0.21,1.8-0.45c5.05-2.28,10.08-4.62,15.15-6.85
			C188.87,78.39,198.41,75.41,208.75,75.12z M135.72,72.56c0.91,2.38,2.51,3.62,4.6,4.62c0-1.88,0-3.45,0-5.16
			C138.81,72.2,137.42,72.36,135.72,72.56z M147.53,71.57c-4.46-0.48-4.73-0.22-3.7,3.59C145.6,74.5,146.82,73.37,147.53,71.57z
			 M146.2,64.13c-1.89,0.06-2.39,0.95-1.54,2.4C145.22,65.65,145.71,64.89,146.2,64.13z M137.92,64.08
			c-0.19,0.11-0.39,0.23-0.58,0.34c0.43,0.72,0.86,1.45,1.29,2.17c0.16-0.09,0.32-0.19,0.48-0.28
			C139.35,65.19,139.02,64.41,137.92,64.08z"/>
		<path class="st6" d="M208.09,135.75c-1.84,1.66-3.67,2.25-6.1,1.79c-14.42-2.75-26.82-10.07-39.34-17.14
			c-9.28-5.24-18.6-10.41-28.9-13.42c-3.46-1.01-7.04-1.62-10.61-2.22c-2.48-0.41-3.08-0.75-3.52-3.27c-0.35-2-0.68-4-0.9-6.02
			c-0.13-1.13-0.02-2.28-0.02-3.52c5.16-0.25,10.02,0.43,14.8,1.73c7.63,2.07,14.64,5.6,21.58,9.27
			c11.89,6.3,24.05,12.02,36.69,16.68c8.55,3.15,17.32,5.27,26.5,5.33c0.21,0,0.42,0.06,1.16,0.17c-2.05,2.14-3.7,4.26-5.76,5.85
			c-0.97,0.75-2.73,0.73-4.1,0.64c-5.13-0.34-10.07-1.65-14.89-3.35c-9.19-3.25-17.79-7.75-26.32-12.42
			c-6.93-3.79-13.85-7.65-21.01-10.94c-4.35-2-9.16-2.98-13.77-4.4c-0.35-0.11-0.74-0.06-1.15,0.03
			c10.03,2.58,18.26,8.56,26.86,13.88c11.07,6.85,22.43,13.22,34.69,17.72c4.14,1.52,8.58,2.23,12.88,3.32
			C207.21,135.54,207.58,135.62,208.09,135.75z M122.68,111.89c0.75,2.34,2.33,3.41,4.74,3.96c3.46,0.79,6.97,1.68,10.18,3.15
			c6.57,3.02,13.03,6.3,19.39,9.75c10.28,5.57,20.43,11.4,31.94,14.14c1.59,0.38,3.45,0.45,4.98-0.01c2.72-0.8,5.29-2.1,7.91-3.22
			c0.36-0.15,0.65-0.46,1.13-0.81c-13.73-3.65-26.39-9.31-38.84-15.47c-8.99-4.45-17.82-9.27-27.34-12.57
			c-4.98-1.72-10.06-3.02-15.65-3.53C121.69,108.99,122.21,110.43,122.68,111.89z M153.72,142.16c9.33,3.97,19.04,4.55,29.06,3.66
			c-0.13-0.26-0.15-0.41-0.22-0.43c-9.37-2.71-17.76-7.5-26.17-12.26c-7.31-4.14-14.6-8.31-22.58-11.07
			c-2.1-0.72-4.25-1.3-6.37-1.95C134.01,130.22,142.78,137.5,153.72,142.16z M176.32,42.51c-5.39-0.06-9.49,4.01-9.48,9.42
			c0.01,5.1,4.11,9.19,9.21,9.21c5.15,0.02,9.28-4.03,9.29-9.11C185.35,46.66,181.48,42.56,176.32,42.51z"/>
	</g>
</g>
<g id="Layer_4">
</g>
<g id="Layer_5">
</g>
<g id="Layer_6">
</g>
<g id="Layer_7">
</g>
<g id="Layer_8">
</g>
<g id="Layer_9">
</g>
<g id="Layer_10">
</g>
<g id="Layer_11">
</g>
<g id="Layer_12">
</g>
<g id="Layer_13">
</g>
<g id="Layer_14">
</g>
<g id="Layer_15">
</g>
</svg>
