<?xml version="1.0" encoding="utf-8"?>
<!-- Generator: Adobe Illustrator 27.8.1, SVG Export Plug-In . SVG Version: 6.00 Build 0)  -->
<svg version="1.1" xmlns="http://www.w3.org/2000/svg" xmlns:xlink="http://www.w3.org/1999/xlink" x="0px" y="0px"
	 viewBox="0 0 350 230" style="enable-background:new 0 0 350 230;" xml:space="preserve">
<style type="text/css">
	.st0{fill:#8DC63F;}
	.st1{fill:#02913F;}
	.st2{fill:#008713;}
	.st3{fill:#66FF74;}
	.st4{fill:#493D00;}
	.st5{fill:#005505;}
	.st6{fill:#646A07;}
	.st7{fill:#48990E;}
	.st8{fill:#896500;}
	.st9{fill:#9FE2FF;}
	.st10{fill:#754C24;}
	.st11{fill:#FFF30B;}
	.st12{fill:#7ABC50;}
	.st13{fill:#370900;}
	.st14{fill:#C8FF8D;}
	.st15{fill:#377300;}
	.st16{fill:#002F1A;}
	.st17{fill:#C19E00;}
	.st18{fill:#FFCE00;}
	.st19{fill:#583F00;}
	.st20{fill:#5B7200;}
	.st21{fill:#96FF00;}
	.st22{fill-rule:evenodd;clip-rule:evenodd;fill:#22704A;}
	.st23{fill:#A5D065;}
	.st24{fill:#8EC146;}
	.st25{fill-rule:evenodd;clip-rule:evenodd;fill:#604500;}
	.st26{fill-rule:evenodd;clip-rule:evenodd;fill:#03FCB5;}
	.st27{fill-rule:evenodd;clip-rule:evenodd;fill:#B5FF00;}
	.st28{fill:#008F09;}
	.st29{fill:#491C00;}
	.st30{fill:#CAB400;}
	.st31{fill-rule:evenodd;clip-rule:evenodd;fill:#FFBE78;}
	.st32{fill:#351700;}
</style>
<g id="Layer_1">
</g>
<g id="Layer_2">
</g>
<g id="Layer_3">
</g>
<g id="Layer_4">
	<g>
		<path class="st7" d="M150.4,145.87c-2.11-1.23-3.92-2.17-5.6-3.29c-2.14-1.42-4.18-2.99-6.09-4.37
			c20.66-20.66,41.22-41.21,62.16-62.14c1.72,1.84,3.74,4.1,5.87,6.25c7.43,7.49,14.88,14.96,22.37,22.38
			c0.99,0.99,1.22,1.87,0.78,3.17c-1.41,4.17-2.72,8.37-4.2,12.96c-8.67-8.74-16.88-17.03-25.06-25.28
			C183.75,112.47,167.09,129.15,150.4,145.87z M171.11,98.18C165.09,92.13,159.06,86.08,153,80c0.01-0.01-0.11,0.03-0.19,0.11
			c-10.22,10.2-20.45,20.39-30.62,30.64c-0.41,0.42-0.61,1.49-0.38,2.04c1.57,3.74,3.28,7.43,4.97,11.13
			c0.15,0.34,0.49,0.59,1.04,1.23c8.55-8.6,16.96-17.08,25.41-25.58c2.72,2.79,5.43,5.57,8.05,8.26
			C164.84,104.32,168.08,101.15,171.11,98.18z"/>
		<path class="st8" d="M120.27,106.05c-3.73-15.58,0.52-38.99,19.73-54.55c18.73-15.18,46.06-16.48,66.3-2.93
			c20.23,13.53,26.57,36.01,24.18,51.55c-0.66-0.84-1.24-1.75-1.99-2.5c-3.7-3.76-7.47-7.46-11.15-11.24
			c-0.64-0.65-1.17-1.55-1.41-2.42c-4.42-16.08-18.43-28.36-34.88-30.52c-22.01-2.88-41.84,10.68-47.12,32.28
			c-0.51,2.08-0.63,4.26-0.96,6.38c-0.09,0.57-0.14,1.29-0.49,1.65C128.47,97.86,124.4,101.91,120.27,106.05z M222.68,125.01
			c-3.37-3.35-6.7-6.66-10.01-9.96c-0.6,1-1.22,2.17-1.98,3.24c-10.73,15.25-25.29,21.51-43.76,18.62
			c-0.57-0.09-1.41-0.03-1.78,0.32c-3.49,3.36-6.9,6.79-10.39,10.26C177.81,157.15,208.48,149.07,222.68,125.01z M144.53,124.7
			c-1.48-1.83-2.99-3.7-4.38-5.42c-3.29,3.3-6.53,6.54-9.9,9.91c1.47,1.7,3.02,3.49,4.55,5.26
			C138.11,131.14,141.29,127.95,144.53,124.7z"/>
	</g>
</g>
<g id="Layer_5">
</g>
<g id="Layer_6">
</g>
<g id="Layer_7">
</g>
<g id="Layer_8">
</g>
<g id="Layer_9">
</g>
<g id="Layer_10">
</g>
<g id="Layer_11">
</g>
<g id="Layer_12">
</g>
<g id="Layer_13">
</g>
<g id="Layer_14">
</g>
<g id="Layer_15">
</g>
</svg>
