<?xml version="1.0" encoding="utf-8"?>
<!-- Generator: Adobe Illustrator 27.8.1, SVG Export Plug-In . SVG Version: 6.00 Build 0)  -->
<svg version="1.1" xmlns="http://www.w3.org/2000/svg" xmlns:xlink="http://www.w3.org/1999/xlink" x="0px" y="0px"
	 viewBox="0 0 350 230" style="enable-background:new 0 0 350 230;" xml:space="preserve">
<style type="text/css">
	.st0{fill:#8DC63F;}
	.st1{fill:#02913F;}
	.st2{fill:#008713;}
	.st3{fill:#66FF74;}
	.st4{fill:#493D00;}
	.st5{fill:#005505;}
	.st6{fill:#646A07;}
	.st7{fill:#48990E;}
	.st8{fill:#896500;}
	.st9{fill:#9FE2FF;}
	.st10{fill:#754C24;}
	.st11{fill:#FFF30B;}
	.st12{fill:#7ABC50;}
	.st13{fill:#370900;}
	.st14{fill:#C8FF8D;}
	.st15{fill:#377300;}
	.st16{fill:#002F1A;}
	.st17{fill:#C19E00;}
	.st18{fill:#FFCE00;}
	.st19{fill:#583F00;}
	.st20{fill:#5B7200;}
	.st21{fill:#96FF00;}
	.st22{fill-rule:evenodd;clip-rule:evenodd;fill:#22704A;}
	.st23{fill:#A5D065;}
	.st24{fill:#8EC146;}
	.st25{fill-rule:evenodd;clip-rule:evenodd;fill:#604500;}
	.st26{fill-rule:evenodd;clip-rule:evenodd;fill:#03FCB5;}
	.st27{fill-rule:evenodd;clip-rule:evenodd;fill:#B5FF00;}
	.st28{fill:#008F09;}
	.st29{fill:#491C00;}
	.st30{fill:#CAB400;}
	.st31{fill-rule:evenodd;clip-rule:evenodd;fill:#FFBE78;}
	.st32{fill:#351700;}
</style>
<g id="Layer_1">
</g>
<g id="Layer_2">
</g>
<g id="Layer_3">
</g>
<g id="Layer_4">
</g>
<g id="Layer_5">
	<g>
		<path class="st9" d="M207.38,50.81h-64.76c-6.58,0-11.92,5.33-11.92,11.91v31.66c0,1.08,1.32,1.6,2.06,0.81l17.58-18.7
			c1.9-2.02,5.1-2.02,6.99,0l12.92,13.74c0.92,0.98,2.49,0.9,3.31-0.16l20.51-26.43c1.6-2.05,4.68-2.06,6.29-0.02l17.58,22.36
			c0.44,0.56,1.34,0.25,1.34-0.47v-22.8C219.3,56.14,213.96,50.81,207.38,50.81z M186.11,69.31l-6.17,7.95
			c-0.31,0.4-0.8,0.64-1.31,0.64h-5.22c-2.57,0-4.65-2.08-4.65-4.65c0-2.57,2.08-4.66,4.65-4.66c0.87,0,1.67,0.24,2.37,0.65
			c0.97-2.11,3.09-3.58,5.57-3.58c1.96,0,3.7,0.93,4.82,2.36C186.47,68.4,186.41,68.93,186.11,69.31z"/>
		<path class="st10" d="M218.04,94.12l-8.38,12.41l-3.57,5.28c-0.68,1-2.14,1.05-2.88,0.09l-5.4-7.05l-4.49-5.86
			c-1.55-2.04-4.62-2.04-6.18,0l-6.42,8.45c-0.8,1.06-2.37,1.13-3.26,0.15l-13.12-14.41c-1.85-2.03-5.03-2.03-6.88,0l-10.36,11.38
			c-0.91,1-2.49,0.96-3.34-0.09l-2.74-3.34c-1.68-2.04-4.8-2.04-6.48,0l-2.46,2.99c-0.89,1.08-1.38,2.45-1.38,3.85v19.28
			c0,6.58,5.34,11.91,11.92,11.91h64.76c6.58,0,11.92-5.33,11.92-11.91V94.51C219.3,93.84,218.43,93.56,218.04,94.12z
			 M204.79,129.51h-43.36c-1.4,0-2.54-1.14-2.54-2.54c0-1.4,1.14-2.54,2.54-2.54h4.55c1.41,0,2.55-1.14,2.55-2.54
			c0-1.41-1.14-2.55-2.55-2.55h-12.81l-1.97-5.09l4.64-0.04c1.4,0,2.54-1.14,2.54-2.54c0-1.41,1.14-2.55,2.55-2.55l3.34-0.04
			l3.34,0.04c1.4,0,2.54,1.14,2.54,2.55c0,1.4,1.14,2.54,2.55,2.54h4.35c1.4,0,2.54,1.14,2.54,2.54c0,1.4,1.14,2.54,2.54,2.54
			l10.73,0.04c1.4,0,2.54,1.14,2.54,2.55c0,1.4,1.14,2.54,2.54,2.54h6.84c1.4,0,2.55,1.14,2.55,2.54
			C207.34,128.37,206.2,129.51,204.79,129.51z"/>
		<path class="st11" d="M157.33,56.62c-2.86,0-5.18,2.32-5.18,5.18c0,2.86,2.32,5.18,5.18,5.18c2.86,0,5.18-2.32,5.18-5.18
			C162.51,58.94,160.19,56.62,157.33,56.62z"/>
		<path class="st12" d="M210.25,108.37l-0.59-1.84L205.6,93.9c-0.84-1.82-3.43-1.82-4.27,0l-3.52,10.95l-1.13,3.52
			c-1,2.17,0.59,4.64,2.97,4.64h2.01v2.64c0,1,0.8,1.8,1.8,1.8s1.8-0.8,1.8-1.8v-2.64h2.01
			C209.67,113.01,211.25,110.54,210.25,108.37z M151.85,123.01l-4.65-11.85c-0.84-1.82-3.43-1.82-4.27,0l-4.65,11.85
			c-1,2.17,0.58,4.64,2.97,4.64h2.01v2.12c0,1,0.8,1.8,1.8,1.8s1.8-0.81,1.8-1.8v-2.12h2.01
			C151.26,127.65,152.85,125.18,151.85,123.01z"/>
	</g>
</g>
<g id="Layer_6">
</g>
<g id="Layer_7">
</g>
<g id="Layer_8">
</g>
<g id="Layer_9">
</g>
<g id="Layer_10">
</g>
<g id="Layer_11">
</g>
<g id="Layer_12">
</g>
<g id="Layer_13">
</g>
<g id="Layer_14">
</g>
<g id="Layer_15">
</g>
</svg>
