<?xml version="1.0" encoding="utf-8"?>
<!-- Generator: Adobe Illustrator 27.8.1, SVG Export Plug-In . SVG Version: 6.00 Build 0)  -->
<svg version="1.1" xmlns="http://www.w3.org/2000/svg" xmlns:xlink="http://www.w3.org/1999/xlink" x="0px" y="0px"
	 viewBox="0 0 350 230" style="enable-background:new 0 0 350 230;" xml:space="preserve">
<style type="text/css">
	.st0{fill:#8DC63F;}
	.st1{fill:#02913F;}
	.st2{fill:#008713;}
	.st3{fill:#66FF74;}
	.st4{fill:#493D00;}
	.st5{fill:#005505;}
	.st6{fill:#646A07;}
	.st7{fill:#48990E;}
	.st8{fill:#896500;}
	.st9{fill:#9FE2FF;}
	.st10{fill:#754C24;}
	.st11{fill:#FFF30B;}
	.st12{fill:#7ABC50;}
	.st13{fill:#370900;}
	.st14{fill:#C8FF8D;}
	.st15{fill:#377300;}
	.st16{fill:#002F1A;}
	.st17{fill:#C19E00;}
	.st18{fill:#FFCE00;}
	.st19{fill:#583F00;}
	.st20{fill:#5B7200;}
	.st21{fill:#96FF00;}
	.st22{fill-rule:evenodd;clip-rule:evenodd;fill:#22704A;}
	.st23{fill:#A5D065;}
	.st24{fill:#8EC146;}
	.st25{fill-rule:evenodd;clip-rule:evenodd;fill:#604500;}
	.st26{fill-rule:evenodd;clip-rule:evenodd;fill:#03FCB5;}
	.st27{fill-rule:evenodd;clip-rule:evenodd;fill:#B5FF00;}
	.st28{fill:#008F09;}
	.st29{fill:#491C00;}
	.st30{fill:#CAB400;}
	.st31{fill-rule:evenodd;clip-rule:evenodd;fill:#FFBE78;}
	.st32{fill:#351700;}
</style>
<g id="Layer_1">
</g>
<g id="Layer_2">
</g>
<g id="Layer_3">
</g>
<g id="Layer_4">
</g>
<g id="Layer_5">
</g>
<g id="Layer_6">
	<g>
		<path class="st13" d="M264.33,114.39c-7.71-1.04-15.41-2.13-23.12-3.11c-13.24-1.7-26.51-3.07-39.84-3.72
			c-6.06-0.3-12.13-0.56-18.19-0.74c-7.22-0.21-14.44-0.54-21.66-0.41c-9.21,0.16-18.43,0.45-27.61,1.2
			c-10.32,0.84-20.61,2.16-30.89,3.43c-5.71,0.71-11.37,1.76-17.42,2.72c0.6-0.39,0.92-0.62,1.25-0.81
			c9.01-5.3,18.18-10.27,27.81-14.35c0.6-0.25,0.87-0.54,0.8-1.22c-0.07-0.62-0.01-1.27,0.07-1.9c0.24-1.83-0.05-3.4-1.54-4.73
			c-1.09-0.97-1.5-2.38-1.42-4.27c0.83,0.58,1.48,0.97,2.05,1.45c1.73,1.43,2.18,1.42,3.89-0.01c0.58-0.49,1.24-0.89,1.98-1.23
			c-0.04,1.88-0.61,3.47-1.91,4.75c-0.98,0.97-1.5,3.82-0.79,4.97c0.15,0.24,0.83,0.36,1.16,0.24c1.27-0.45,2.51-0.99,3.73-1.56
			c5.35-2.48,10.97-4.17,16.64-5.71c7.95-2.16,15.28-5.63,21.55-11.03c3.58-3.08,8.78-3.07,12.22,1.06
			c2.31,2.78,4.65,5.54,7.15,8.13c1.49,1.54,3.32,2.75,5.14,3.96c-1.7-2.33-3.46-4.56-4.54-7.26c6.63,5.7,13.76,10.07,22.96,9.45
			c-6.31-2.39-12.03-5.65-16.78-10.89c2.84,1.24,5.46,2.38,8.07,3.52c0-0.04,0-0.08,0.01-0.12c-3.67-2.7-7.36-5.39-11.01-8.12
			c-2.12-1.59-4.15-3.32-6.28-4.9c-1.49-1.1-3.03-2.17-4.68-3c-0.97-0.49-2.2-0.47-3.37-0.45c2.22,1.93,4.44,3.86,6.66,5.79
			c-0.09,0.11-0.18,0.22-0.27,0.33c-0.97-0.51-1.91-1.07-2.9-1.51c-3.28-1.46-6.68-2.12-10.2-1.06c-1.23,0.37-2.54,0.88-3.5,1.7
			c-4.25,3.65-9.23,5.84-14.46,7.6c-6.88,2.32-13.77,4.62-20.66,6.92c-0.33,0.11-0.67,0.19-1.14,0.32
			c-0.02-0.38-0.06-0.68-0.05-0.97c0.06-1.39,0.21-2.78,0.17-4.16c-0.02-0.88,0.36-1.2,1.05-1.68c2.4-1.66,4.73-3.45,6.99-5.31
			c1.44-1.18,2.71-2.56,4.04-3.87c1.78-1.74,3.68-2.9,6.39-2.37c0.79,0.15,1.94-0.45,2.63-1.05c4.16-3.61,8.24-7.32,12.34-11.01
			c0.5-0.45,0.88-1.04,1.41-1.45c0.8-0.63,1.6-1.32,2.52-1.71c1.39-0.58,2.53-0.08,3.49,1.03c1.03,1.19,2.16,2.31,3.25,3.45
			c0.14,0.14,0.33,0.24,0.44,0.4c1.64,2.22,3.91,3.43,6.45,4.43c1.4,0.55,2.57,1.83,3.7,2.93c5.96,5.86,12.76,10.46,20.39,13.83
			c0.47,0.21,0.94,0.4,1.72,0.73c0-1.14,0-2.1,0-3.07c0.01-2.97,0-5.94,0.03-8.91c0.02-1.62-0.38-3.14-1.54-4.26
			c-2.57-2.47-5.24-4.84-7.94-7.31c-1.26,1.29-2.77,2.06-4.5,1.71c-1.16-0.23-2.39-0.71-3.3-1.44c-1.77-1.4-2.06-4.51-0.85-6.69
			c1.34-2.43,3.92-3.27,7.37-2.39c1.77-3.93,3.85-4.94,7.53-3.66c2.59-4.36,6.86-4.56,9.74-0.46c4.41-1.15,6.83,0.53,7.68,5.31
			c2.9-0.94,5.2-0.34,6.52,1.7c1.11,1.72,0.87,4.13-0.58,5.74c-1.86,2.07-4.31,2.38-7.06,0.95c-2.53,2.08-5.03,4.16-7.55,6.21
			c-1.76,1.43-2.52,3.19-2.41,5.52c0.16,3.33,0.06,6.67,0,10c-0.03,1.69,0.55,2.99,2.11,3.67c5.89,2.56,11.81,5.07,17.72,7.6
			c0.18,0.07,0.37,0.1,0.9,0.24c-0.14-2.63-0.16-5.11-0.46-7.56c-0.1-0.85-0.74-1.79-1.4-2.4c-1.88-1.76-3.9-3.37-5.87-5.03
			c-0.42-0.36-0.88-0.66-1.32-0.99c-2.31,1.74-4.34,1.83-6.2,0.31c-1.64-1.35-2.09-3.55-1.14-5.62c1.15-2.52,3.32-3.49,6.42-2.88
			c0.82-3.56,4.19-5.01,7.26-3.62c2.36-3.87,5.91-4.05,8.44-0.38c1.58-0.79,3.3-0.79,4.56,0.36c1.14,1.05,1.84,2.58,2.62,3.73
			c1.26,0.18,2.59,0.16,3.75,0.59c1.97,0.73,2.92,2.72,2.6,4.85c-0.3,1.96-2.33,4.14-4.12,4.27c-0.63,0.04-1.32-0.2-1.93-0.44
			c-1.23-0.49-2.3-0.38-3.33,0.47c-1.81,1.49-3.64,2.95-5.48,4.4c-1.44,1.13-1.95,2.5-1.79,4.37c0.2,2.36,0.05,4.74,0.05,7.17
			c-2.47-0.6-4.74-1.29-7.07-1.68c-5.76-0.97-11.23-0.28-16.19,3.09c-2.49,1.69-5.05,3.28-7.58,4.93c-1.27,0.83-2.69,0.96-4,0.39
			c-2.98-1.3-6-2.56-8.79-4.21c-4.78-2.83-9.52-5.76-14.02-9c-4.66-3.35-9.35-3.65-14.31-1.13c-4.63,2.35-9.25,4.76-13.79,7.28
			c-5,2.78-10.07,5.4-15.46,7.37c-0.14,0.05-0.25,0.17-0.42,0.29c10.62-1.15,19.99-5.2,28.41-11.58c1.39-1.05,2.87-2,4.41-2.8
			c2.26-1.17,4.54-1.11,6.6,0.54c1.27,1.01,2.47,2.11,3.64,3.24c6.76,6.53,14.59,11.1,23.95,12.57c3.74,0.59,7.59,0.54,11.39,0.77
			c0.22,0.01,0.45-0.06,0.67-0.09c0.02-0.11,0.04-0.21,0.05-0.32c-1.6-0.26-3.19-0.52-5.06-0.82c0.5-0.47,0.76-0.75,1.06-0.98
			c6.78-5.51,14.36-7.18,22.99-5.6c13.78,2.52,26.21,8.23,38.21,15.15c0.99,0.57,1.97,1.16,2.95,1.74
			C264.38,114.29,264.35,114.34,264.33,114.39z M207.1,56.66c-0.93,0.72-1.65,1.21-2.28,1.8c-0.58,0.53-1.46,1.13-1.51,1.76
			c-0.14,1.68,0.09,3.39,0.18,5.2c2.25-1.54,3.49-5.35,3.98-7.32C207.58,57.65,207.21,57.07,207.1,56.66z M230.02,74.11
			c-0.82,0.79-1.31,1.5-1.99,1.86c-1.17,0.62-1.66,1.53-1.69,2.77c-0.02,0.63-0.08,1.28-0.01,1.9c0.05,0.48,0.27,0.94,0.41,1.4
			c0.41-0.26,1.03-0.43,1.21-0.81c0.9-1.97,1.73-3.97,2.48-6C230.54,74.93,230.14,74.43,230.02,74.11z M196.8,56.38
			c-0.13,0.44-0.52,1.03-0.41,1.5c0.47,2,1.01,4.01,2.53,5.55c0.31,0.31,0.65,0.6,1.07,0.98c0.11-1.37,0.2-2.51,0.28-3.65
			c0.08-1.04-0.34-1.79-1.23-2.39C198.3,57.86,197.68,57.17,196.8,56.38z M223.8,81.65c0.07-1.17,0.16-2.3,0.17-3.43
			c0-0.41-0.09-0.94-0.35-1.22c-0.93-0.99-1.95-1.89-2.94-2.82C219.54,75.61,221.44,80.26,223.8,81.65z M231.21,79.06
			c1.06-0.75,2.04-1.38,2.93-2.11c0.29-0.24,0.59-0.88,0.46-1.14c-0.17-0.36-0.72-0.69-1.14-0.75c-0.37-0.05-1.03,0.21-1.15,0.5
			C231.86,76.62,231.59,77.76,231.21,79.06z M208.38,61.54c1.26-0.93,2.85-1.49,3.3-3.28c-0.84-0.12-1.53-0.22-2.22-0.31
			C209.08,59.23,208.73,60.38,208.38,61.54z M218.67,77.98c-0.19-3.05-0.26-3.33-2.6-2.39C217,76.44,217.83,77.21,218.67,77.98z
			 M192.47,57.3c-0.06,0.1-0.12,0.21-0.18,0.31c0.78,0.7,1.56,1.41,2.34,2.11c0.06-0.06,0.13-0.11,0.19-0.17
			c-0.11-0.64-0.22-1.28-0.33-1.93C193.77,57.51,193.12,57.41,192.47,57.3z"/>
		<path class="st14" d="M128.28,111.94c0.75,0,1.37,0.04,1.99-0.01c8.88-0.63,17.2,1.58,25.39,4.78
			c12.49,4.87,23.72,11.78,33.92,20.39c3.29,2.78,6.15,6.06,9.21,9.1c-0.07,0.13-0.13,0.26-0.2,0.39c-0.6,0-1.19-0.01-1.79,0
			c-2.66,0.03-5.32,0.07-7.98,0.09c-1.25,0.01-2.27-0.55-2.89-1.6c-1.87-3.14-4.62-5.41-7.36-7.69
			c-11.07-9.2-23.07-16.87-36.77-21.56C137.42,114.35,132.9,113.26,128.28,111.94z M165.87,111.28c0.21,0.07,0.42,0.14,0.63,0.19
			c15.05,3.85,29.2,9.71,41.93,18.75c6.14,4.36,11.91,9.11,16.7,14.97c0.81,0.99,1.78,1.54,3.09,1.48c0.83-0.04,1.67,0,2.5,0
			c1.88,0,3.76,0,5.91,0c-0.51-0.69-0.8-1.16-1.17-1.56c-1.63-1.73-3.22-3.52-4.95-5.15c-7.64-7.19-16.06-13.28-25.38-18.17
			c-10.66-5.59-21.83-9.44-33.82-10.74c-1.79-0.19-3.61-0.03-5.42-0.03C165.88,111.11,165.88,111.2,165.87,111.28z M152.23,145.26
			c-7.31-9.59-16.35-17.17-26.82-23.05c-4.91-2.76-9.93-5.37-15.49-6.64c-2.47-0.57-4.96-0.82-7.72-0.2c0.42,0.2,0.62,0.3,0.82,0.39
			c3.82,1.93,7.82,3.58,11.43,5.86c10.11,6.37,19.77,13.33,26.48,23.56c0.71,1.09,1.74,1.52,3.06,1.48c1.82-0.06,3.65,0,5.48,0
			c1.18,0,2.35,0,3.77,0C152.78,146.04,152.52,145.64,152.23,145.26z M176.08,146.37c-1.43-1.62-2.76-3.34-4.3-4.84
			c-11.62-11.23-25.04-19.57-40.41-24.65c-3.57-1.18-7.22-2.14-10.89-2.93c-1.7-0.36-3.54-0.06-5.35-0.06
			c1.26,0.4,2.52,0.72,3.74,1.18c10.94,4.11,21.28,9.34,30.7,16.31c5.47,4.05,10.59,8.45,14.86,13.8c0.54,0.68,1.53,1.36,2.35,1.4
			c3.03,0.17,6.08,0.07,9.12,0.07C175.95,146.55,176.02,146.46,176.08,146.37z M153.54,112.76c5.68,1.61,10.99,4.14,16.26,6.72
			c7.8,3.82,15.01,8.59,21.86,13.92c4.42,3.44,8.6,7.14,12.38,11.29c0.47,0.51,1.08,0.98,1.71,1.25c3.07,1.3,6.26,0.78,9.49,0.53
			c-6.95-8.5-15.69-14.8-24.83-20.56c-11.38-7.18-23.62-12.11-37.14-13.33C153.35,112.63,153.44,112.73,153.54,112.76z
			 M191.94,112.61c1.75,0.71,3.49,1.46,5.27,2.12c17.55,6.58,32.4,17.12,45.07,30.83c1.97,2.13,5.46,1.51,6.62-1.18
			c0.43-0.99,0.3-1.86-0.46-2.62c-1.13-1.11-2.2-2.3-3.43-3.3c-4.12-3.35-8.16-6.83-12.49-9.91c-9.96-7.09-20.92-12.12-32.84-14.94
			c-2.53-0.6-5.14-0.87-7.71-1.3C191.97,112.41,191.95,112.51,191.94,112.61z M256.2,129.74c-1.01-0.77-1.99-1.59-3.04-2.3
			c-12.15-8.21-25.49-13.25-40.05-15.03c-1.56-0.19-3.17-0.03-4.75-0.03c16.61,4.59,32.2,11.2,45.95,21.81
			c0.76-1.27,1.46-2.42,2.15-3.58c0.08-0.13,0.12-0.28,0.23-0.55C256.52,129.96,256.35,129.85,256.2,129.74z M107.64,144.91
			c0.75-0.07,1.51-0.11,2.26-0.1c7.94,0.05,15.88,0.1,23.82,0.16c0.29,0,0.58-0.04,0.91-0.07c-1.38-3.11-2.72-3.93-5.93-3.74
			c-0.63,0.04-1.27,0.04-1.91,0.03c-5.28-0.03-10.56-0.06-15.84-0.09c-2.97-0.01-5.94,0-9.05,0
			C103.1,144.29,104.51,145.19,107.64,144.91z M97.81,134.12c0.72,1.99,2.19,2.46,4.16,2.29c1.92-0.16,3.87-0.08,5.8-0.1
			c6.14-0.06,12.29-0.11,18.43-0.17c0.21,0,0.43-0.04,0.75-0.07c-1.44-1.98-3.04-3.38-5.54-3.23c-0.63,0.04-1.27,0.01-1.9,0.01
			c-4.64,0.02-9.27,0.04-13.91,0.05c-2.76,0.01-5.52,0-8.43,0C97.45,133.44,97.68,133.76,97.81,134.12z M93.21,126.73
			c0.62,1.31,1.66,1.83,3.07,1.79c3-0.09,6-0.15,9-0.24c1.07-0.03,2.14-0.16,3.2-0.17c2.67-0.02,5.34-0.01,8.26-0.01
			c-1.91-2-3.73-3.42-6.46-3.1c-1.41,0.16-2.85,0.04-4.28,0.04c-4.51,0-9.03,0-13.74,0C92.64,125.71,92.96,126.2,93.21,126.73z
			 M239.21,115.81c0.68,0.23,1.19,0.4,1.69,0.58c2.65,0.93,5.29,1.92,7.97,2.76c1.99,0.62,4.01,1.22,6.07,1.5
			c1.91,0.26,3.88,0.01,5.82,0.11c1.08,0.05,1.8-0.22,2.08-1.31C259.12,117.84,241.61,115.07,239.21,115.81z M87.83,118.35
			c0.37,0.56,0.79,1.04,1.04,1.59c0.51,1.14,1.38,1.25,2.49,1.23c4.01-0.06,8.02-0.02,12.03-0.02c0.7,0,1.39,0,2.21,0
			C102.08,117.56,93.56,116.89,87.83,118.35z"/>
		<path class="st15" d="M116.54,80.37c-0.88-0.59-1.89-1.21-2.83-1.92c-0.19-0.14-0.24-0.62-0.19-0.92
			c0.34-1.93,1.45-3.78,3.08-5.18c1.38,1.51,2.47,3.18,3,5.17c0.07,0.26-0.14,0.73-0.37,0.92C118.4,79.1,117.51,79.68,116.54,80.37z
			 M118.8,83.73c-2.08,1.62-2.35,1.61-4.39,0c-0.52-0.41-1.16-0.68-1.79-1.05c-0.67,2.45,0.37,3.81,3.99,5.58
			c4.32-3.15,4.55-3.47,3.94-5.74C119.88,82.97,119.32,83.32,118.8,83.73z M112.72,81.11c0.01,0.31,0.13,0.71,0.36,0.89
			c0.67,0.55,1.42,0.99,2.12,1.5c1.12,0.8,1.78,0.76,2.86-0.16c0.74-0.63,1.5-1.25,2.36-1.96c-0.11-0.61-0.26-1.38-0.45-2.4
			c-0.96,0.61-1.76,1.09-2.53,1.6c-0.61,0.4-1.1,0.51-1.79-0.03c-0.75-0.6-1.7-0.95-2.75-1.52
			C112.82,79.93,112.71,80.52,112.72,81.11z"/>
	</g>
</g>
<g id="Layer_7">
</g>
<g id="Layer_8">
</g>
<g id="Layer_9">
</g>
<g id="Layer_10">
</g>
<g id="Layer_11">
</g>
<g id="Layer_12">
</g>
<g id="Layer_13">
</g>
<g id="Layer_14">
</g>
<g id="Layer_15">
</g>
</svg>
