<?xml version="1.0" encoding="utf-8"?>
<!-- Generator: Adobe Illustrator 27.8.1, SVG Export Plug-In . SVG Version: 6.00 Build 0)  -->
<svg version="1.1" xmlns="http://www.w3.org/2000/svg" xmlns:xlink="http://www.w3.org/1999/xlink" x="0px" y="0px"
	 viewBox="0 0 350 230" style="enable-background:new 0 0 350 230;" xml:space="preserve">
<style type="text/css">
	.st0{fill:#8DC63F;}
	.st1{fill:#02913F;}
	.st2{fill:#008713;}
	.st3{fill:#66FF74;}
	.st4{fill:#493D00;}
	.st5{fill:#005505;}
	.st6{fill:#646A07;}
	.st7{fill:#48990E;}
	.st8{fill:#896500;}
	.st9{fill:#9FE2FF;}
	.st10{fill:#754C24;}
	.st11{fill:#FFF30B;}
	.st12{fill:#7ABC50;}
	.st13{fill:#370900;}
	.st14{fill:#C8FF8D;}
	.st15{fill:#377300;}
	.st16{fill:#002F1A;}
	.st17{fill:#C19E00;}
	.st18{fill:#FFCE00;}
	.st19{fill:#583F00;}
	.st20{fill:#5B7200;}
	.st21{fill:#96FF00;}
	.st22{fill-rule:evenodd;clip-rule:evenodd;fill:#22704A;}
	.st23{fill:#A5D065;}
	.st24{fill:#8EC146;}
	.st25{fill-rule:evenodd;clip-rule:evenodd;fill:#604500;}
	.st26{fill-rule:evenodd;clip-rule:evenodd;fill:#03FCB5;}
	.st27{fill-rule:evenodd;clip-rule:evenodd;fill:#B5FF00;}
	.st28{fill:#008F09;}
	.st29{fill:#491C00;}
	.st30{fill:#CAB400;}
	.st31{fill-rule:evenodd;clip-rule:evenodd;fill:#FFBE78;}
	.st32{fill:#351700;}
</style>
<g id="Layer_1">
</g>
<g id="Layer_2">
</g>
<g id="Layer_3">
</g>
<g id="Layer_4">
</g>
<g id="Layer_5">
</g>
<g id="Layer_6">
</g>
<g id="Layer_7">
	<g>
		<path class="st16" d="M125.03,112.55c-1.4-3.63-2.47-7.25-2.91-11.01c-1.45-12.37,0.63-24.02,7.51-34.56
			c7.88-12.06,18.58-20.51,32.71-23.83c14.68-3.44,28.69-1.41,41.45,7.05c10.88,7.21,18.56,16.92,22.49,29.46
			c1.13,3.62,1.67,7.35,1.91,11.14c0.86,13.85-3.25,26.08-11.92,36.86c-0.47,0.58-0.86,0.67-1.57,0.44
			c-10.39-3.28-20.22-7.74-29.47-13.56c-7.18-4.52-15.06-7.33-23.55-8.07c-2.75-0.24-5.55-0.07-8.33,0.05
			c-2.78,0.12-5.56,0.31-8.32,0.65c-6.63,0.81-13.02,2.59-19.21,5.08C125.6,112.33,125.36,112.42,125.03,112.55z M125.42,101.72
			c0.43-0.14,0.88-0.23,1.28-0.41c3.01-1.33,6.07-2.57,9.02-4.03c9.31-4.61,17.93-10.37,26.54-16.15c1.44-0.97,2.85-1.97,4.29-2.93
			c0.8-0.53,1.62-0.77,2.54-0.18c3.57,2.27,7.11,4.59,10.74,6.76c2.58,1.54,5.28,2.87,7.94,4.29c0.21,0.11,0.61,0.23,0.7,0.14
			c0.73-0.75,1.5-1.48,1.85-2.62c-0.59,0.14-1.04,0.25-1.5,0.36c0.73-0.88,1.5-1.59,1.73-2.69c-0.42,0.13-0.78,0.24-1.15,0.35
			c0.61-0.93,1.18-1.79,1.75-2.65c-0.07-0.05-0.14-0.1-0.21-0.16c-0.3,0.11-0.61,0.22-0.93,0.35c0.76-1.24,1.48-2.42,2.17-3.56
			c0.68,1.2,1.32,2.34,1.98,3.52c-0.31-0.11-0.61-0.22-0.91-0.33c-0.05,0.04-0.1,0.09-0.15,0.13c0.55,0.87,1.11,1.74,1.72,2.7
			c-0.44-0.13-0.78-0.23-1.33-0.4c0.36,0.62,0.6,1.09,0.91,1.51c0.6,0.81,1.05,0.89,1.87,0.32c1.61-1.13,2.71-2.68,3.57-4.49
			c-2.71,0.68-2.71,0.68-3.54,0.32c1.79-1.21,3.11-2.78,4.07-4.82c-1.01,0.25-1.88,0.46-2.76,0.68c1.39-1.74,2.92-3.28,3.63-5.48
			c-0.88,0.28-1.63,0.52-2.38,0.75c1.85-2.15,3.36-4.44,4.25-7.29c1.21,2.71,2.42,5.2,4.38,7.26c-0.76-0.23-1.52-0.46-2.44-0.74
			c1.03,2.1,2.03,3.95,3.83,5.23c-0.04,0.09-0.09,0.18-0.13,0.27c-0.9-0.23-1.8-0.46-2.78-0.7c0.95,2.1,2.33,3.7,4.31,4.93
			c-1.45,0.44-2.63-0.12-3.93-0.33c0.85,1.26,1.73,2.48,2.74,3.56c1.93,2.05,2.89,1.8,3.78-0.89c0.01-0.04-0.02-0.1-0.03-0.19
			c-0.32,0.11-0.63,0.22-0.9,0.32c0.72-1.28,1.43-2.53,2.1-3.72c0.69,1.21,1.4,2.46,2.13,3.74c-0.26-0.08-0.53-0.17-0.8-0.25
			c-0.06,0.06-0.13,0.12-0.19,0.18c0.59,0.86,1.18,1.73,1.84,2.68c-0.49-0.15-0.91-0.27-1.33-0.4c-0.04,0.05-0.08,0.11-0.12,0.16
			c0.67,0.87,1.35,1.74,2.12,2.74c-0.7-0.09-1.22-0.15-1.73-0.22c-0.06,0.06-0.11,0.12-0.17,0.18c0.85,1.05,1.7,2.11,2.68,3.33
			c-0.91-0.16-1.62-0.28-2.32-0.4c-0.06,0.07-0.12,0.14-0.18,0.21c1.13,1.15,2.27,2.31,3.49,3.56c-0.89,0.11-1.82,0.22-2.86,0.34
			c1.61,3.45,5.04,3.99,8.04,5.3c2.73-17.98-4.77-37.29-22.28-48.81c-18.33-12.07-40.05-9.84-55.28,0.39
			C132.14,63.44,122.1,83.85,125.42,101.72z M175.07,89.63c-9.04,0.27-16.94,3.37-24.41,7.79c0.58-0.08,1.15-0.22,1.7-0.43
			c2.04-0.77,4.05-1.61,6.11-2.32c5.42-1.89,10.98-2.85,16.74-2.46c2.47,0.17,4.89,0.57,7.22,1.52c-2,0-3.99-0.21-5.98-0.19
			c-2.02,0.02-4.04,0.25-6.05,0.39c0.01,0.09,0.01,0.19,0.02,0.28c3.43,0,6.77,0.56,10.05,1.5c4.87,1.41,9.32,3.75,13.65,6.3
			c5.18,3.05,10.65,5.47,16.25,7.61c0.95,0.36,1.99,0.5,2.98,0.74c0.02-0.08,0.04-0.15,0.07-0.23c-9.86-3.38-18.28-9.51-27.42-14.27
			c0.7,0.12,1.38,0.3,2.05,0.51c4.27,1.36,8.2,3.48,12.12,5.6c3.7,2,7.36,4.07,11.36,5.43c1.81,0.62,3.68,1.08,5.52,1.61
			c0.02-0.07,0.04-0.13,0.05-0.2c-5.59-2-16.97-7.93-17.74-9.14c7.67,3.1,15.25,6.87,23.66,8.33c-1.75-0.73-3.53-1.38-5.29-2.06
			c-1.77-0.69-3.54-1.4-5.28-2.15c-1.78-0.76-3.54-1.54-5.29-2.36c-1.69-0.79-3.35-1.62-5.03-2.44c0.05-0.12,0.09-0.23,0.14-0.35
			c4.83,2.23,9.79,4.1,14.74,5.2c-1.4-0.68-2.97-1.52-4.61-2.23c-4.69-2.01-9.41-3.97-14.12-5.94c-5.64-2.37-11.45-4.21-17.43-5.51
			c-1.47-0.32-2.93-0.93-4.24-1.69c-2.9-1.68-5.31-3.96-7.27-6.7C170.07,85.14,171.96,87.67,175.07,89.63z M127.45,104.35
			c0,0.06,0.01,0.13,0.01,0.19c0.14,0,0.27,0,0.41,0c6.97-0.2,13.88-1,20.75-2.08c6.11-0.96,12.16-2.1,18.41-1.94
			c7.16,0.18,13.55,2.37,19.28,6.53c4.13,3,8.11,6.19,12.17,9.28c0.54,0.41,1.17,0.71,1.76,1.05c-1.72-1.66-3.55-3.14-5.28-4.71
			c-1.73-1.56-3.37-3.22-5.05-4.83c7.33,4.81,14.79,9.28,23.43,11.31c-0.09-0.17-0.24-0.25-0.39-0.3c-4.7-1.63-9.04-3.98-13.09-6.83
			c-3.37-2.37-6.65-4.86-10.05-7.17c-5.75-3.9-12.08-6.23-19.04-6.76c-4.17-0.32-8.29,0.2-12.38,0.88
			c-5.94,0.99-11.84,2.15-17.77,3.19C136.24,102.92,131.84,103.62,127.45,104.35z M168.93,102.68c6.38,1.44,12.28,3.71,17.67,7.23
			C181.51,105.14,173.05,101.66,168.93,102.68z M212.37,87.02c-1.89-0.11-3.66-0.2-5.41-0.3c0.65,1.27,1.8,2.31,2.95,3.36
			c1.24,1.14,1.51,1.06,1.98-0.55c0.02-0.06-0.02-0.15-0.03-0.2c-0.49,0.09-0.96,0.17-1.44,0.25
			C211.14,88.63,211.8,87.77,212.37,87.02z M199.33,86.47c-1.91,0.68-3.68,0.68-5.46,0.16c-0.05,0.07-0.1,0.13-0.15,0.2
			c0.64,0.86,1.28,1.73,1.96,2.65c-0.52-0.06-0.97-0.11-1.67-0.2c0.59,0.55,1.01,0.93,1.45,1.33
			C197.15,89.7,198.29,88.27,199.33,86.47z M207.51,92.28c0.84,0.78,1.6,1.47,2.46,2.27c0.68-0.81,1.33-1.57,1.92-2.27
			C210.42,92.28,209.07,92.28,207.51,92.28z M212.02,132.07c-18.36,19.04-53.28,21.36-73.97-0.18c0.74-0.39,1.45-0.78,2.18-1.13
			c6.46-3.17,13.3-5.08,20.4-6.09c7.15-1.02,14.31-1.23,21.49-0.37c8.64,1.03,17.02,3.11,25.22,6c1.47,0.52,2.93,1.07,4.4,1.61
			C211.81,131.94,211.88,131.99,212.02,132.07z M201.88,136.69c-0.02-0.08-0.04-0.17-0.07-0.25c-0.2-0.08-0.39-0.18-0.59-0.25
			c-3.57-1.13-7.1-2.4-10.72-3.34c-8.18-2.12-16.48-2.97-24.9-1.61c-1.84,0.3-3.66,0.75-5.49,1.14c4.45-0.46,8.87-0.83,13.34-0.5
			c3.87,0.29,11.76,1.83,13.01,2.85c-6.44-1.13-12.61-0.15-18.6,2.26c0.26,0.04,0.51,0.01,0.75-0.04c9-2.19,17.8-1.5,26.44,1.8
			c0.76,0.29,1.81,0.35,2.56,0.08C199.08,138.28,200.46,137.42,201.88,136.69z M193.78,140.9c0.01-0.1,0.02-0.2,0.03-0.3
			c-3.48-2.71-13.89-3.62-17.83-1.54c0.1,0.01,0.18,0.03,0.27,0.03c0.25-0.01,0.51-0.02,0.76-0.04c4.97-0.5,9.84-0.12,14.57,1.64
			C192.24,140.94,193.04,140.84,193.78,140.9z M180.02,118c-0.77,0-1.54,0.02-2.31,0c-8.53-0.3-16.63,1.53-24.46,4.79
			c-5.44,2.26-10.62,5.03-15.69,8c-0.5,0.29-0.78,0.34-1.21-0.13c-4.39-4.83-8.03-10.14-10.57-16.18c-0.1-0.23-0.17-0.46-0.31-0.83
			c2.27-0.72,4.46-1.47,6.7-2.1c6.79-1.91,13.71-2.94,20.78-2.77c8.13,0.19,15.88,1.91,22.94,6.12c1.29,0.77,2.49,1.68,3.73,2.53
			c0.16,0.11,0.29,0.24,0.43,0.37C180.04,117.87,180.03,117.94,180.02,118z M169.34,114.67c-4.22-2.7-15.24-5.21-17.09-3.92
			C158.26,110.78,163.85,112.47,169.34,114.67z"/>
		<path class="st17" d="M179.93,63.22c0.13-5.69,4.7-10.31,10.1-10.21c5.57,0.1,10.07,4.98,9.92,10.76c-0.14,5.3-4.8,9.6-10.28,9.47
			C184.23,73.11,179.81,68.56,179.93,63.22z M154.74,65.81c-0.51,1.64-1.44,2.68-2.98,3.29c1.58,0.55,2.44,1.67,2.99,3.24
			c0.58-1.58,1.42-2.7,3.13-3.25C156.21,68.52,155.36,67.36,154.74,65.81z M135.33,81.83c-1.01,0-1.84,0.88-1.84,1.95
			c0,1.04,0.88,1.9,1.91,1.87c0.95-0.03,1.72-0.95,1.71-2.07C137.11,82.53,136.39,81.83,135.33,81.83z M135.79,72.15
			c0.52,0.54,1.05,1.08,1.57,1.62c-0.19-0.01-0.37-0.01-0.56-0.02c0.51-0.49,1.02-0.98,1.5-1.44c-0.3-0.33-0.81-0.89-1.31-1.44
			c0.12,0.12,0.24,0.24,0.36,0.37c-0.56,0.49-1.11,0.99-1.67,1.48C135.72,72.52,135.76,72.33,135.79,72.15z M167.23,66.2
			c0.47,0.52,0.98,1.08,1.41,1.57c0.46-0.51,0.94-1.06,1.34-1.51c-0.46-0.57-0.91-1.13-1.31-1.63
			C168.17,65.18,167.66,65.73,167.23,66.2z M162.7,54.56c-0.37-0.42-0.86-0.97-1.26-1.42c-0.52,0.54-1.06,1.1-1.59,1.66
			c0.13-0.13,0.25-0.26,0.38-0.4c0.47,0.5,0.93,1,1.27,1.37C161.75,55.51,162.26,54.99,162.7,54.56z M147.91,74.28
			c-0.45,0.51-0.95,1.06-1.45,1.62c0.11-0.12,0.23-0.25,0.34-0.37c0.47,0.49,0.94,0.98,1.41,1.48c-0.15,0.07-0.3,0.15-0.44,0.22
			c0.51-0.52,1.02-1.04,1.47-1.5C148.83,75.28,148.35,74.76,147.91,74.28z M173.4,63.47c0.2-0.36,0.54-0.71,0.55-1.07
			c0.01-0.21-0.56-0.67-0.75-0.62c-0.32,0.09-0.73,0.49-0.76,0.79c-0.03,0.28,0.39,0.6,0.62,0.91
			C173.17,63.48,173.29,63.48,173.4,63.47z M149.33,61.44c-0.29-0.22-0.6-0.63-0.86-0.6c-0.3,0.04-0.76,0.44-0.79,0.72
			c-0.03,0.27,0.38,0.8,0.65,0.83c0.3,0.04,0.66-0.35,0.99-0.55C149.32,61.7,149.32,61.57,149.33,61.44z M162.06,61.69
			c0,0.25,0.46,0.52,0.72,0.77c0.27-0.35,0.63-0.66,0.76-1.05c0.06-0.16-0.36-0.49-0.76-0.98C162.43,61,162.07,61.34,162.06,61.69z
			 M130.07,89.32c-0.52-0.05-0.92,0.31-0.81,0.82c0.06,0.28,0.52,0.68,0.77,0.66c0.31-0.02,0.58-0.43,1.08-0.84
			C130.61,89.64,130.35,89.35,130.07,89.32z M151.7,56.85c-0.01-0.23-0.56-0.68-0.73-0.63c-0.31,0.1-0.68,0.49-0.72,0.8
			c-0.03,0.24,0.39,0.54,0.79,1.04C151.37,57.51,151.71,57.18,151.7,56.85z M169.49,52.12c-0.31,0.07-0.71,0.44-0.77,0.74
			c-0.04,0.22,0.4,0.73,0.65,0.74c0.29,0.02,0.61-0.36,1.15-0.73C170.01,52.49,169.69,52.07,169.49,52.12z M139.99,64.85
			c0,0.25,0.45,0.5,0.69,0.75c0.25-0.29,0.61-0.55,0.7-0.88c0.05-0.2-0.31-0.51-0.66-1.03C140.36,64.23,139.99,64.54,139.99,64.85z
			 M165.34,73.42c0.27-0.04,0.72-0.5,0.68-0.69c-0.06-0.31-0.43-0.69-0.74-0.78c-0.18-0.05-0.51,0.4-0.97,0.79
			C164.79,73.08,165.09,73.46,165.34,73.42z M176.72,51.95c0.02,0.23,0.4,0.42,0.62,0.63c0.21-0.24,0.52-0.46,0.58-0.74
			c0.04-0.17-0.29-0.43-0.59-0.82C177.03,51.45,176.7,51.71,176.72,51.95z M161.52,75.69c0.02-0.17-0.29-0.38-0.45-0.57
			c-0.23,0.19-0.56,0.35-0.64,0.59c-0.06,0.18,0.23,0.46,0.51,0.94C161.24,76.19,161.49,75.96,161.52,75.69z M143.3,87.2
			c0.02-0.17-0.28-0.38-0.44-0.58c-0.22,0.19-0.57,0.35-0.64,0.59c-0.05,0.19,0.23,0.47,0.49,0.95
			C143.01,87.7,143.27,87.46,143.3,87.2z M174.95,72.95c-0.02,0.16,0.26,0.35,0.4,0.52c0.18-0.18,0.44-0.33,0.51-0.55
			c0.05-0.14-0.18-0.37-0.38-0.73C175.21,72.55,174.97,72.74,174.95,72.95z"/>
	</g>
</g>
<g id="Layer_8">
</g>
<g id="Layer_9">
</g>
<g id="Layer_10">
</g>
<g id="Layer_11">
</g>
<g id="Layer_12">
</g>
<g id="Layer_13">
</g>
<g id="Layer_14">
</g>
<g id="Layer_15">
</g>
</svg>
