<?xml version="1.0" encoding="utf-8"?>
<!-- Generator: Adobe Illustrator 27.8.1, SVG Export Plug-In . SVG Version: 6.00 Build 0)  -->
<svg version="1.1" xmlns="http://www.w3.org/2000/svg" xmlns:xlink="http://www.w3.org/1999/xlink" x="0px" y="0px"
	 viewBox="0 0 350 230" style="enable-background:new 0 0 350 230;" xml:space="preserve">
<style type="text/css">
	.st0{fill:#8DC63F;}
	.st1{fill:#02913F;}
	.st2{fill:#008713;}
	.st3{fill:#66FF74;}
	.st4{fill:#493D00;}
	.st5{fill:#005505;}
	.st6{fill:#646A07;}
	.st7{fill:#48990E;}
	.st8{fill:#896500;}
	.st9{fill:#9FE2FF;}
	.st10{fill:#754C24;}
	.st11{fill:#FFF30B;}
	.st12{fill:#7ABC50;}
	.st13{fill:#370900;}
	.st14{fill:#C8FF8D;}
	.st15{fill:#377300;}
	.st16{fill:#002F1A;}
	.st17{fill:#C19E00;}
	.st18{fill:#FFCE00;}
	.st19{fill:#583F00;}
	.st20{fill:#5B7200;}
	.st21{fill:#96FF00;}
	.st22{fill-rule:evenodd;clip-rule:evenodd;fill:#22704A;}
	.st23{fill:#A5D065;}
	.st24{fill:#8EC146;}
	.st25{fill-rule:evenodd;clip-rule:evenodd;fill:#604500;}
	.st26{fill-rule:evenodd;clip-rule:evenodd;fill:#03FCB5;}
	.st27{fill-rule:evenodd;clip-rule:evenodd;fill:#B5FF00;}
	.st28{fill:#008F09;}
	.st29{fill:#491C00;}
	.st30{fill:#CAB400;}
	.st31{fill-rule:evenodd;clip-rule:evenodd;fill:#FFBE78;}
	.st32{fill:#351700;}
</style>
<g id="Layer_1">
</g>
<g id="Layer_2">
</g>
<g id="Layer_3">
</g>
<g id="Layer_4">
</g>
<g id="Layer_5">
</g>
<g id="Layer_6">
</g>
<g id="Layer_7">
</g>
<g id="Layer_8">
	<g>
		<path class="st7" d="M125.21,91.97c0.49-16.05,8.78-30.59,24.75-40.68c8.31-5.25,17.49-7.6,27.33-7.13
			c9.81,0.47,18.63,3.8,26.49,9.63c10.64,7.9,17.64,18.26,20.03,31.38c2.85,15.62-0.5,29.94-10.58,42.27
			c-8.25,10.09-19.22,15.77-32.11,17.59c-18.49,2.62-38.62-7-48.32-22.97C127.91,114.01,125.23,104.4,125.21,91.97z M215.76,113.25
			c0.12-0.16,0.18-0.22,0.22-0.3c0.14-0.27,0.28-0.54,0.41-0.82c1.51-3.29,2.52-6.75,2.87-10.34c1.39-14.06-2.05-26.73-11.57-37.34
			c-10.66-11.89-24.08-16.94-39.9-14.39c-13.47,2.17-23.5,9.8-30.62,21.26c-4.26,6.85-6.29,14.46-6.74,22.49
			c-0.31,5.49,0.29,10.88,2.24,16.07c0.42,1.12,0.93,2.21,1.46,3.45c3.17-2.88,6.19-5.62,9.27-8.41c3.15,2.71,6.26,5.37,9.53,8.19
			c0-2.88,0.01-5.51-0.03-8.12c0-0.21-0.37-0.49-0.62-0.61c-4-1.85-7.36-4.48-9.89-8.1c-1.22-1.75-1.99-3.69-1.96-5.88
			c0.01-0.68,0.29-0.92,0.9-0.78c0.89,0.19,1.8,0.33,2.64,0.66c2.44,0.95,4.48,2.52,6.23,4.44c0.97,1.07,1.81,2.26,2.69,3.37
			c0-2.02,0.02-4.08-0.02-6.15c0-0.21-0.32-0.47-0.55-0.61c-1.27-0.79-2.62-1.45-3.82-2.33c-3.61-2.63-6.2-5.98-6.94-10.51
			c-0.2-1.23-0.16-2.49-0.23-3.86c2.02,0.4,3.63,1.09,5.13,2.05c3,1.93,5.04,4.66,6.46,7.9c0.06-1.66,0.07-3.31,0.04-4.95
			c0-0.2-0.24-0.4-0.38-0.59c-0.67-0.87-1.53-1.65-1.99-2.61c-2.61-5.52-1.7-10.69,1.75-15.54c0.55-0.77,1.22-1.45,1.87-2.22
			c3.61,3.71,5.23,7.97,4.67,12.95c-0.32,2.84-1.14,5.53-3.41,7.53c-0.11,0.1-0.22,0.27-0.23,0.41c-0.02,1.05-0.01,2.11-0.01,3.16
			c1.56-2.61,3.51-4.75,6-6.33c1.05-0.67,2.28-1.07,3.46-1.54c0.5-0.2,0.88,0.02,0.87,0.62c-0.01,1.02,0.12,2.08-0.11,3.05
			c-1.24,5.34-4.64,8.9-9.45,11.28c-0.27,0.13-0.67,0.38-0.68,0.58c-0.05,1.8-0.03,3.61-0.03,5.37c1.18-1.5,2.25-3.05,3.5-4.43
			c1.77-1.97,3.91-3.4,6.57-3.94c0.66-0.13,0.82,0.09,0.86,0.69c0.21,2.99-0.6,5.69-2.32,8.13c-2.05,2.92-4.84,4.98-7.94,6.64
			c-0.51,0.27-0.72,0.57-0.69,1.15c0.06,1.35,0.06,2.71,0.09,4.06c0.01,0.22,0.07,0.43,0.12,0.74c3.04-4.73,6.8-8.18,12.59-9.08
			c0,0.44,0.01,0.71,0,0.98c-0.09,1.74-0.72,3.29-1.68,4.7c-2.64,3.92-6.31,6.6-10.5,8.65c-0.23,0.11-0.46,0.23-0.78,0.39
			c1.09,1.04,2.1,2.01,3.14,3c0.12-0.1,0.27-0.21,0.41-0.34c5.2-4.84,10.41-9.67,15.59-14.54c0.58-0.55,0.91-0.52,1.47,0.01
			c3.62,3.42,7.27,6.79,10.92,10.18c1.7,1.58,3.39,3.15,4.97,4.61c1.07-1.04,2.08-2.02,3.1-3.02c-2.39-0.84-4.62-2.05-6.63-3.63
			c-3.22-2.53-5.51-5.65-6.09-9.82c-0.16-1.16-0.07-1.25,1.09-1.14c2.99,0.29,5.45,1.7,7.63,3.67c1.61,1.45,2.89,3.16,3.86,5.15
			c0.11-1.48,0.06-2.94,0.14-4.39c0.04-0.76-0.24-1.13-0.88-1.47c-2.67-1.4-5.05-3.18-6.99-5.51c-2.19-2.64-3.34-5.63-3.1-9.1
			c0.04-0.54,0.12-0.96,0.82-0.73c0.84,0.27,1.72,0.46,2.5,0.84c2.81,1.34,4.82,3.56,6.52,6.1c0.32,0.47,0.61,0.96,0.92,1.43
			c0.16-1.82,0.17-3.6,0.14-5.38c0-0.17-0.27-0.41-0.46-0.49c-3.06-1.23-5.37-3.37-7.29-5.96c-1.67-2.26-2.68-4.77-2.57-7.63
			c0.07-1.64,0.26-1.77,1.83-1.2c3.3,1.2,5.69,3.53,7.63,6.37c0.28,0.42,0.53,0.86,0.8,1.29c0.15-0.68,0.11-1.31,0.16-1.94
			c0.06-0.89-0.02-1.67-0.86-2.24c-0.37-0.25-0.63-0.7-0.87-1.1c-2.34-4.05-2.65-8.31-1.18-12.71c0.77-2.32,2.11-4.28,3.86-6.01
			c0.16,0.13,0.28,0.21,0.37,0.3c2.79,2.92,4.57,6.33,4.74,10.41c0.15,3.68-0.63,7.1-3.55,9.7c-0.16,0.14-0.29,0.42-0.29,0.64
			c-0.02,1.61-0.01,3.23-0.01,5.06c2.3-5.32,5.87-8.88,11.51-10.23c0.05,0.38,0.09,0.59,0.1,0.81c0.16,3.2-0.66,6.14-2.44,8.79
			c-2.07,3.09-4.9,5.31-8.21,6.92c-0.64,0.31-0.89,0.66-0.88,1.37c0.03,1.63-0.03,3.26-0.05,4.89c0,0.22,0.04,0.44,0.09,0.85
			c1.79-2.97,4-5.21,6.75-6.91c1.5-0.93,3.09-1.6,4.87-1.75c0.62-0.05,0.82,0.16,0.83,0.78c0.03,2.07-0.64,3.93-1.77,5.61
			c-2.52,3.78-5.96,6.49-10.07,8.37c-0.41,0.19-0.67,0.35-0.66,0.88c0.03,2.41,0.01,4.81,0.01,7.22c0,0.15,0.05,0.3,0.09,0.59
			c3.19-2.74,6.29-5.4,9.43-8.1C209.67,107.72,212.69,110.47,215.76,113.25z M188.11,121.1c-4.47-4.33-8.77-8.49-13.13-12.71
			c-4.35,4.22-8.65,8.39-13.08,12.68c0.58-0.05,0.94-0.08,1.29-0.1c-7.5,1.47-14.98,3.11-22.87,2.65c0.99,1.31,1.87,2.44,3.45,2.48
			c2.42,0.06,4.88,0.3,7.27,0.01c4.63-0.55,9.24-1.35,13.84-2.14c6.12-1.06,12.24-1.32,18.39-0.27c4.71,0.81,9.43,1.58,14.16,2.27
			c2.99,0.44,5.99,0.6,9,0.1c1.48-0.24,2.3-1.24,3.07-2.31c-2.71-0.11-5.37-0.12-8-0.36c-2.61-0.24-5.21-0.67-7.8-1.09
			c-2.58-0.42-5.14-0.92-7.71-1.39c0.01-0.04,0.02-0.09,0.02-0.13C186.65,120.9,187.28,120.99,188.11,121.1z M148.05,130.73
			c-0.02,0.08-0.04,0.16-0.06,0.25c0.91,0.62,1.82,1.23,2.72,1.85c1.12,0.77,2.34,1.11,3.69,0.89c2.18-0.36,4.36-0.74,6.54-1.09
			c3.98-0.64,7.95-1.45,11.95-1.84c5.18-0.51,10.23,0.71,15.28,1.66c2.63,0.5,5.27,0.99,7.93,1.28c2.49,0.27,4.06-1.59,5.85-2.91
			c-0.91-0.17-1.79-0.18-2.66-0.31c-5.03-0.76-10.06-1.5-15.07-2.33c-6.23-1.03-12.43-1.03-18.65,0.03c-4.49,0.76-9,1.47-13.51,2.16
			C150.75,130.55,149.39,130.6,148.05,130.73z M189.6,137.6c-4.77-1.52-9.66-2.42-14.62-2.42c-4.94,0-9.83,0.9-14.58,2.42
			C170.14,139.25,179.86,139.28,189.6,137.6z M143.58,111.19c-2.42,2.24-4.76,4.41-7.14,6.62c0.38,0.48,0.69,0.88,1.04,1.33
			c1.91-1.72,3.76-3.38,5.58-5.06c0.38-0.35,0.64-0.38,1.05-0.05c1.35,1.1,2.72,2.17,4.09,3.24c1.84,1.45,3.68,2.9,5.57,4.39
			c0.31-0.41,0.57-0.75,0.86-1.13C150.91,117.4,147.27,114.32,143.58,111.19z M213.55,117.82c-2.42-2.24-4.78-4.43-7.15-6.63
			c-3.72,3.15-7.36,6.23-11.05,9.36c0.33,0.41,0.59,0.74,0.88,1.09c0.22-0.16,0.39-0.26,0.54-0.38c2.56-2.02,5.11-4.05,7.67-6.07
			c0.65-0.51,1.34-1.37,1.98-1.34c0.65,0.03,1.27,0.95,1.88,1.5c1.4,1.25,2.79,2.51,4.22,3.8
			C212.87,118.7,213.17,118.31,213.55,117.82z"/>
		<path class="st18" d="M175.01,68.92c-2.49,0.01-3.97-1.3-3.96-3.77c0.02-3.38,1.32-6.33,3.42-8.95c0.33-0.41,0.66-0.47,1.01-0.03
			c2.13,2.66,3.49,5.66,3.43,9.1C178.86,67.71,177.43,68.92,175.01,68.92z M171.99,91.07c0.09,1.68,1.21,2.56,3.05,2.55
			c1.76-0.01,2.91-0.92,2.93-2.57c0.01-1.11-0.16-2.26-0.47-3.33c-0.47-1.61-1.2-3.13-2.57-4.49
			C173.08,85.64,171.83,88.1,171.99,91.07z M174.88,110.98c-3.4,3.29-6.71,6.48-10.02,9.68c0.01,0.07,0.03,0.14,0.04,0.21
			c6.67-1.52,13.33-1.57,20.01-0.1C181.84,117.25,178.49,114.11,174.88,110.98z"/>
	</g>
</g>
<g id="Layer_9">
</g>
<g id="Layer_10">
</g>
<g id="Layer_11">
</g>
<g id="Layer_12">
</g>
<g id="Layer_13">
</g>
<g id="Layer_14">
</g>
<g id="Layer_15">
</g>
</svg>
