<?xml version="1.0" encoding="utf-8"?>
<!-- Generator: Adobe Illustrator 27.8.1, SVG Export Plug-In . SVG Version: 6.00 Build 0)  -->
<svg version="1.1" xmlns="http://www.w3.org/2000/svg" xmlns:xlink="http://www.w3.org/1999/xlink" x="0px" y="0px"
	 viewBox="0 0 350 230" style="enable-background:new 0 0 350 230;" xml:space="preserve">
<style type="text/css">
	.st0{fill:#8DC63F;}
	.st1{fill:#02913F;}
	.st2{fill:#008713;}
	.st3{fill:#66FF74;}
	.st4{fill:#493D00;}
	.st5{fill:#005505;}
	.st6{fill:#646A07;}
	.st7{fill:#48990E;}
	.st8{fill:#896500;}
	.st9{fill:#9FE2FF;}
	.st10{fill:#754C24;}
	.st11{fill:#FFF30B;}
	.st12{fill:#7ABC50;}
	.st13{fill:#370900;}
	.st14{fill:#C8FF8D;}
	.st15{fill:#377300;}
	.st16{fill:#002F1A;}
	.st17{fill:#C19E00;}
	.st18{fill:#FFCE00;}
	.st19{fill:#583F00;}
	.st20{fill:#5B7200;}
	.st21{fill:#96FF00;}
	.st22{fill-rule:evenodd;clip-rule:evenodd;fill:#22704A;}
	.st23{fill:#A5D065;}
	.st24{fill:#8EC146;}
	.st25{fill-rule:evenodd;clip-rule:evenodd;fill:#604500;}
	.st26{fill-rule:evenodd;clip-rule:evenodd;fill:#03FCB5;}
	.st27{fill-rule:evenodd;clip-rule:evenodd;fill:#B5FF00;}
	.st28{fill:#008F09;}
	.st29{fill:#491C00;}
	.st30{fill:#CAB400;}
	.st31{fill-rule:evenodd;clip-rule:evenodd;fill:#FFBE78;}
	.st32{fill:#351700;}
</style>
<g id="Layer_1">
</g>
<g id="Layer_2">
</g>
<g id="Layer_3">
</g>
<g id="Layer_4">
</g>
<g id="Layer_5">
</g>
<g id="Layer_6">
</g>
<g id="Layer_7">
</g>
<g id="Layer_8">
</g>
<g id="Layer_9">
	<g>
		<path class="st19" d="M135.9,102.45c0.67,0.51,1.41,1.06,2.5,1.88c-1.23,0.34-2.23,0.62-2.86,0.79c-0.71-2.74-1.38-5.34-2.05-7.93
			c-0.23-0.03-0.46-0.05-0.69-0.08c-0.72,2.37-1.53,4.72-2.07,7.14c-0.1,0.44,0.94,1.14,1.61,1.9c-2.13,1.16-4.31,2.36-6.5,3.56
			c-4.9-14.29-2.29-38.07,16.8-53.65c18.2-14.85,44.35-15.37,63.23-1.18c19.31,14.5,23.23,37.86,18.78,53.14
			c-3.6-5.48-7.17-10.63-10.43-15.97c-4.22-6.92-8.21-13.99-12.26-21.02c-1.72-2.98-2.85-3.25-5.34-0.84
			c-5.73,5.54-11.58,10.97-17.03,16.78c-5.38,5.74-5.3,6.06-0.85,11.95c-1.68-1.32-3.46-2.54-5.03-3.98
			c-1.81-1.67-3.39-3.59-5.17-5.3c-1.26-1.21-2.57-2.45-4.06-3.35c-3.51-2.14-6.5-1.52-8.79,1.89c-1.73,2.57-3.11,5.37-4.71,8.02
			c-2.01,3.33-4.53,6.14-8.38,7.4c-0.34,0.11-0.79-0.14-1.19-0.23c0.15-0.31,0.31-0.62,0.67-1.35c-0.79-2.69-1.73-5.92-2.67-9.14
			c-0.22,0-0.45,0-0.67,0C137.8,96.06,136.85,99.24,135.9,102.45z M195.43,121.17c-12.24-1.84-24.47-3.17-36.84-1.52
			c-6.9,0.92-13.58,2.55-19.57,6.27c-1.16,0.72-2.19,1.67-3.28,2.51c9.52,12.13,27.09,21.12,47.04,17.97
			c16.98-2.68,29.46-11.99,37.54-27.21C212.16,122.38,203.81,122.43,195.43,121.17z"/>
		<path class="st20" d="M222.89,114.6c-0.68,1.79-2.13,2.12-3.58,2.57c-5.53,1.72-11.24,2.2-16.94,1.72
			c-9.81-0.82-19.6-2.02-29.4-3.05c-0.02-0.15-0.04-0.29-0.06-0.44c2.64-1.09,5.28-2.19,7.93-3.28c1.5-0.61,3.01-1.21,4.51-1.83
			c3.79-1.58,7.48-3.67,11.92-2.34c-2.58-2.76-5.24-5.46-7.73-8.3c-1.62-1.85-3.12-3.84-4.45-5.9c-1.77-2.74-1.53-4.19,0.7-6.61
			c6.98-7.58,17-6.59,22.11,2.33c3.67,6.41,7.83,12.4,13.27,17.44C224.67,110.18,224.58,110.15,222.89,114.6z M188.65,106.9
			c-8.58-1.85-16.94-3.82-23.38-10.73c-3.83-4.12-7.35-2.95-9.62,2.19c-0.34,0.78-0.68,1.55-1.06,2.3c-1.98,3.94-5.2,6.28-9.48,7.04
			c-2.42,0.43-4.9,0.64-7.36,0.7c-4.05,0.11-7.74,1.35-11.73,3.31c1.21,2.75,2.36,5.3,3.44,7.89c0.59,1.41,1.33,1.7,2.92,1.33
			c6.38-1.49,12.79-2.85,19.22-4.07c3.52-0.67,7.2-0.63,10.67-1.46c6.51-1.56,12.92-3.53,19.37-5.33c1.5-0.42,2.99-0.83,4.48-1.26
			c1.41-0.41,2.82-0.83,4.76-1.4C189.74,107.16,189.2,107.02,188.65,106.9z"/>
	</g>
</g>
<g id="Layer_10">
</g>
<g id="Layer_11">
</g>
<g id="Layer_12">
</g>
<g id="Layer_13">
</g>
<g id="Layer_14">
</g>
<g id="Layer_15">
</g>
</svg>
