<?xml version="1.0" encoding="utf-8"?>
<!-- Generator: Adobe Illustrator 27.8.1, SVG Export Plug-In . SVG Version: 6.00 Build 0)  -->
<svg version="1.1" xmlns="http://www.w3.org/2000/svg" xmlns:xlink="http://www.w3.org/1999/xlink" x="0px" y="0px"
	 viewBox="0 0 350 230" style="enable-background:new 0 0 350 230;" xml:space="preserve">
<style type="text/css">
	.st0{stroke:#000000;stroke-miterlimit:10;}
	.st1{stroke:#ED1C24;stroke-miterlimit:10;}
	.st2{fill:#004FFA;}
	.st3{fill:#65FF00;}
	.st4{fill:#00FFAA;}
	.st5{fill:#FF0000;}
	.st6{fill:#003DFF;}
	.st7{fill:#BC00B3;}
	.st8{fill:#9E0000;}
	.st9{fill:#FFFFFF;}
	.st10{fill:#005477;}
	.st11{fill:#590028;}
	.st12{fill:#76DFFF;}
	.st13{fill:#013300;}
	.st14{fill:#FEFEFE;}
	.st15{fill:#750000;}
	.st16{fill:#965400;}
	.st17{fill:#FF00BD;}
	.st18{fill:#00FF48;}
	.st19{fill:#777400;}
	.st20{fill:#FF00DB;}
	.st21{fill:#00B4C9;}
	.st22{fill:#FF1100;}
	.st23{fill:#00FFD1;}
	.st24{fill:#FF00FF;}
	.st25{fill:#DE1800;}
	.st26{fill:#00E1FF;}
</style>
<g id="Layer_1">
	<g>
		<path class="st0" d="M182.57,127.69c2.06,0.21,3.95,0.24,5.83-0.12c1.07-0.21,2.06-0.65,2.86-1.41c2.62-2.49,5.21-5.01,7.85-7.48
			c1.3-1.21,2.66-2.36,4.01-3.51c0.37-0.32,0.8-0.58,1.24-0.81c1.77-0.92,3.1-0.57,4.17,1.1c0.48-0.26,0.95-0.58,1.46-0.77
			c0.45-0.17,0.96-0.3,1.44-0.3c1.51-0.01,2.44,1.14,2.21,2.63c-0.25,1.62-1.1,2.93-2.16,4.11c-1.66,1.85-3.39,3.62-5.04,5.47
			c-5.22,5.8-11.51,10.22-18.2,14.11c-3.37,1.96-7.04,3.02-11,2.93c-3.09-0.08-5.98-0.93-8.81-2.08c-5.14-2.09-9.79-5.05-14.32-8.21
			c-8.74-6.09-16.31-13.39-22.66-21.94c-3.65-4.91-5.85-10.47-7.09-16.43c-1.31-6.3-1.37-12.6,0.3-18.85
			c1.7-6.33,4.99-11.63,10.4-15.46c4.46-3.16,9.43-4.81,14.93-4.72c3.73,0.06,7.13,1.22,10.35,3.05c3.12,1.78,5.93,3.98,8.8,6.11
			c1.78,1.32,3.61,2.55,5.4,3.85c0.34,0.24,0.59,0.25,0.93,0c2.75-2.01,5.53-3.99,8.28-6c2.79-2.04,5.61-4.03,8.81-5.38
			c5.49-2.31,11.02-2.13,16.49-0.03c8.44,3.24,13.65,9.47,16.15,18.04c1.65,5.63,1.77,11.37,0.87,17.13
			c-0.94,6.01-2.94,11.64-6.19,16.8c-0.11,0.18-0.24,0.34-0.48,0.45c-0.01-0.09-0.05-0.19-0.02-0.26c1.22-2.23,1.43-4.69,1.52-7.15
			c0.21-5.32-0.18-10.57-1.85-15.67c-1.7-5.19-4.36-9.76-8.55-13.34c-3.28-2.79-7.03-4.38-11.41-4.23
			c-2.55,0.09-4.78,1.14-7.04,2.19c-2.75,1.27-5.52,2.54-8.37,3.57c-3.71,1.35-7.59,1.23-11.46,0.88
			c-4.18-0.39-8.02-1.86-11.78-3.62c-2.28-1.07-4.6-2.06-7.07-2.63c-4.09-0.94-7.88-0.12-11.4,2.05c-3.96,2.45-6.75,5.96-8.93,10.02
			c-0.49,0.91-0.69,1.82-0.69,2.84c0,5.24,1.36,10.17,3.34,14.96c1.67,4.02,3.7,7.85,6.08,11.49c0.77,1.17,1.76,2.27,2.87,3.12
			c4.07,3.14,8.4,5.86,13.31,7.55c3.14,1.08,6.37,1.76,9.68,2.02c2.36,0.19,4.64-0.21,6.73-1.3c3.41-1.78,6.75-3.67,10.15-5.45
			c1.85-0.97,3.75-1.82,5.64-2.69c0.72-0.33,1.5-0.47,2.29-0.23c1.71,0.51,2.28,2.05,1.31,3.53c-2.65,4.04-6.12,7.19-10.3,9.57
			C183.22,127.32,182.97,127.46,182.57,127.69z M208.26,116.12c-0.83-1.99-2.21-2.4-4.07-1.23c-0.37,0.23-0.73,0.47-1.06,0.75
			c-1.1,0.94-2.22,1.86-3.27,2.85c-2.26,2.15-4.46,4.36-6.72,6.51c-1.38,1.31-2.75,2.71-4.77,2.94c-1.47,0.17-2.96,0.17-4.44,0.23
			c-0.74,0.03-1.48,0.05-2.22,0.05c-0.18,0-0.36-0.06-0.54-0.1c0.13-0.13,0.25-0.3,0.41-0.39c1.14-0.67,2.32-1.27,3.43-1.99
			c3.43-2.22,6.27-5.04,8.49-8.47c0.69-1.07,0.4-2.09-0.73-2.68c-0.76-0.39-1.54-0.33-2.28-0.01c-1.52,0.65-3.05,1.27-4.51,2.04
			c-2.98,1.57-5.94,3.17-8.85,4.86c-3.54,2.06-7.21,3.08-11.37,2.47c-5.78-0.85-11.15-2.69-16.07-5.82c-2-1.27-3.93-2.63-5.88-3.94
			c0.83,1.2,1.65,2.45,2.53,3.66c5.37,7.41,11.39,14.27,17.59,20.99c0.18,0.19,0.4,0.37,0.64,0.48c1.27,0.6,2.53,1.22,3.82,1.77
			c2.6,1.1,5.28,1.93,8.12,2.11c3.42,0.21,6.67-0.48,9.74-1.94c4.99-2.38,9.42-5.65,13.72-9.07c4.17-3.32,7.62-7.38,11.2-11.3
			c1.02-1.12,1.85-2.39,2.09-3.95c0.15-1.01-0.3-1.8-1.21-2.09c-0.74-0.24-1.44-0.08-2.09,0.26
			C209.37,115.42,208.82,115.78,208.26,116.12z M186.25,73.66c-1.96-0.16-3.84-0.61-5.67-1.27c-3.57-1.29-6.73-3.32-9.78-5.54
			c-3.19-2.32-6.34-4.7-9.63-6.88c-4.17-2.75-8.77-4.11-13.82-3.55c-7.62,0.85-13.68,4.43-18.12,10.64
			c-3.64,5.08-5.14,10.91-5.4,17.07c-0.3,6.95,1.05,13.6,3.84,19.96c0.44,0.99,0.94,1.95,1.41,2.93c-0.65-3.77-0.56-7.52-0.25-11.27
			c0.39-4.72,1.45-9.26,3.56-13.52c2.25-4.53,5.28-8.39,9.7-11c2.94-1.74,6.11-2.58,9.55-2.2c2.47,0.28,4.77,1.12,7.04,2.09
			c2.45,1.05,4.86,2.21,7.37,3.09c4.46,1.56,9.09,1.85,13.77,1.37C182.06,75.35,184.19,74.64,186.25,73.66z M175.49,69.41
			c0.12,0.09,0.19,0.17,0.27,0.22c2.81,1.62,5.76,2.92,9,3.38c1.19,0.17,2.41,0.44,3.59-0.14c1.06-0.52,2.12-1.02,3.2-1.5
			c1.35-0.61,2.68-1.33,4.09-1.77c4.93-1.52,9.45-0.39,13.57,2.49c4.42,3.09,7.34,7.38,9.34,12.32c2.56,6.31,3.07,12.9,2.62,19.61
			c-0.07,1-0.24,1.99-0.38,3.15c0.18-0.3,0.29-0.47,0.38-0.65c2.24-4.29,3.72-8.82,4.48-13.59c0.93-5.83,0.83-11.62-0.83-17.32
			c-1.97-6.8-5.8-12.25-11.98-15.87c-4.51-2.65-9.37-3.85-14.61-3.31c-3.67,0.38-6.96,1.82-9.96,3.85c-3.25,2.2-6.37,4.58-9.56,6.88
			C177.67,67.92,176.6,68.64,175.49,69.41z M162.65,138.38c0.03-0.05,0.07-0.09,0.1-0.14c-0.22-0.24-0.44-0.48-0.66-0.73
			c-5.9-6.51-11.69-13.11-16.75-20.31c-3.57-5.08-6.83-10.35-9.36-16.03c-2.18-4.88-3.76-9.93-3.96-15.32c-0.02-0.44,0-0.89,0-1.33
			c-0.05-0.01-0.11-0.01-0.16-0.02c-0.09,0.22-0.2,0.43-0.27,0.66c-2.3,6.59-3.05,13.35-2.18,20.27c0.26,2.11,0.98,4.06,2.32,5.8
			c3.13,4.07,6.47,7.94,10.14,11.54c4.97,4.88,10.48,9.09,16.32,12.88C159.64,136.58,161.16,137.46,162.65,138.38z"/>
		<path class="st1" d="M182.8,102.2c0,2.11,0.02,4.12,0,6.12c-0.03,3.26-3.01,5.5-6.14,4.65c-2.04-0.56-3.44-2.42-3.48-4.68
			c-0.03-1.78-0.01-3.55-0.01-5.33c0-0.22,0-0.45,0-0.73c-0.28-0.01-0.5-0.03-0.72-0.03c-1.78,0-3.56,0-5.33,0
			c-2.73-0.01-4.88-2.09-4.88-4.73c0-2.77,2.08-4.85,4.86-4.86c1.78,0,3.55,0,5.33,0c0.22,0,0.44,0,0.73,0c0-0.3,0-0.52,0-0.75
			c0-1.86-0.03-3.72,0.02-5.58c0.06-2.06,1.36-3.75,3.26-4.39c1.85-0.63,3.88-0.07,5.18,1.43c0.77,0.89,1.15,1.95,1.16,3.13
			c0.01,1.8,0,3.6,0,5.39c0,0.22,0,0.45,0,0.73c0.27,0.01,0.49,0.03,0.71,0.03c1.8,0,3.6,0,5.39,0c2.71,0.01,4.82,2.1,4.83,4.77
			c0.01,2.67-2.09,4.79-4.79,4.81c-1.8,0.01-3.6,0-5.39,0C183.33,102.2,183.1,102.2,182.8,102.2z M169.77,101.81
			C169.77,101.81,169.77,101.81,169.77,101.81c0.93,0,1.86,0,2.79,0c1,0,1,0,1,1.03c0,1.76,0,3.51,0,5.27
			c0,1.36,0.41,2.57,1.46,3.49c1.4,1.24,3.02,1.51,4.73,0.78c1.74-0.75,2.62-2.17,2.67-4.05c0.05-1.94,0.03-3.88,0-5.83
			c-0.01-0.54,0.18-0.72,0.72-0.71c1.86,0.03,3.72,0.01,5.58,0c0.37,0,0.75-0.01,1.11-0.08c2.3-0.5,3.77-2.53,3.52-4.83
			c-0.25-2.25-2.12-3.89-4.46-3.9c-1.9-0.01-3.8-0.01-5.7,0.01c-0.55,0.01-0.76-0.16-0.75-0.75c0.03-1.92,0.03-3.84,0.01-5.76
			c-0.02-1.57-0.66-2.86-1.99-3.72c-1.43-0.93-2.95-1.03-4.47-0.24c-1.55,0.81-2.34,2.14-2.39,3.86c-0.05,1.94-0.04,3.88-0.01,5.83
			c0.01,0.59-0.16,0.8-0.77,0.79c-1.94-0.03-3.88-0.03-5.83-0.01c-2.44,0.03-4.35,1.97-4.35,4.4c0,2.42,1.92,4.36,4.35,4.4
			C167.91,101.82,168.84,101.81,169.77,101.81z"/>
	</g>
</g>
<g id="Layer_2">
</g>
<g id="Layer_3">
</g>
<g id="Layer_4">
</g>
<g id="Layer_5">
</g>
<g id="Layer_6">
</g>
<g id="Layer_7">
</g>
<g id="Layer_8">
</g>
<g id="Layer_9">
</g>
<g id="Layer_10">
</g>
<g id="Layer_11">
</g>
<g id="Layer_12">
</g>
<g id="Layer_13">
</g>
<g id="Layer_14">
</g>
<g id="Layer_15">
</g>
</svg>
