<?xml version="1.0" encoding="utf-8"?>
<!-- Generator: Adobe Illustrator 27.8.1, SVG Export Plug-In . SVG Version: 6.00 Build 0)  -->
<svg version="1.1" xmlns="http://www.w3.org/2000/svg" xmlns:xlink="http://www.w3.org/1999/xlink" x="0px" y="0px"
	 viewBox="0 0 350 230" style="enable-background:new 0 0 350 230;" xml:space="preserve">
<style type="text/css">
	.st0{stroke:#000000;stroke-miterlimit:10;}
	.st1{stroke:#ED1C24;stroke-miterlimit:10;}
	.st2{fill:#004FFA;}
	.st3{fill:#65FF00;}
	.st4{fill:#00FFAA;}
	.st5{fill:#FF0000;}
	.st6{fill:#003DFF;}
	.st7{fill:#BC00B3;}
	.st8{fill:#9E0000;}
	.st9{fill:#FFFFFF;}
	.st10{fill:#005477;}
	.st11{fill:#590028;}
	.st12{fill:#76DFFF;}
	.st13{fill:#013300;}
	.st14{fill:#FEFEFE;}
	.st15{fill:#750000;}
	.st16{fill:#965400;}
	.st17{fill:#FF00BD;}
	.st18{fill:#00FF48;}
	.st19{fill:#777400;}
	.st20{fill:#FF00DB;}
	.st21{fill:#00B4C9;}
	.st22{fill:#FF1100;}
	.st23{fill:#00FFD1;}
	.st24{fill:#FF00FF;}
	.st25{fill:#DE1800;}
	.st26{fill:#00E1FF;}
</style>
<g id="Layer_1">
</g>
<g id="Layer_2">
</g>
<g id="Layer_3">
</g>
<g id="Layer_4">
</g>
<g id="Layer_5">
</g>
<g id="Layer_6">
</g>
<g id="Layer_7">
</g>
<g id="Layer_8">
</g>
<g id="Layer_9">
</g>
<g id="Layer_10">
	<path class="st19" d="M225.36,80.9h-22.61c0.05-0.5,0.1-0.99,0.1-1.49c0.1-6.62-3.76-12.16-10.07-14.46
		c-0.47-0.17-0.94-0.32-1.42-0.45v-17.6c0-0.79-0.64-1.44-1.44-1.44h-29.86c-0.79,0-1.44,0.64-1.44,1.44V59.5
		c0,0.79,0.64,1.44,1.44,1.44l0,0c0.79,0,1.44-0.64,1.44-1.44V48.35h26.99v15.62c-5.02-0.52-9.99,1.12-13.49,4.59
		c-4.5-4.46-11.44-5.92-17.79-3.6c-6.31,2.3-10.17,7.84-10.07,14.46c0.18,11.89,11.58,22.15,18.2,27.7
		c0.56,0.47,1.39,0.44,1.92-0.07l0,0c0-1.14-0.71-2.67-1.57-3.41c-6.35-5.47-15.52-14.45-15.67-24.27
		c-0.08-5.44,2.97-9.82,8.18-11.71c4.78-1.75,11.49-1.2,15.69,3.95c0.27,0.33,0.68,0.53,1.11,0.53s0.84-0.19,1.11-0.53
		c4.2-5.15,10.9-5.69,15.69-3.95c5.2,1.9,8.26,6.28,8.18,11.71c-0.15,9.6-8.93,18.41-15.25,23.9c-0.01,0.01-0.03,0.01-0.04,0.02
		c-0.14,0.13-0.28,0.25-0.42,0.37c-0.19,0.16-0.38,0.32-0.56,0.48c-8.61,7.03-23.43,6.62-23.59,6.62c-0.01,0-0.02,0-0.02,0
		c-0.01,0-0.02,0-0.03,0h-33.99V83.78h17.38c0.79,0,1.44-0.64,1.44-1.44l0,0c0-0.79-0.64-1.44-1.44-1.44h-18.82
		c-0.79,0-1.44,0.64-1.44,1.44v29.86c0,0.79,0.64,1.44,1.44,1.44h33.99v33.99c0,0.79,0.64,1.44,1.44,1.44h29.86
		c0.79,0,1.44-0.64,1.44-1.44v-33.99h33.99c0.79,0,1.44-0.64,1.44-1.44V82.34C226.79,81.55,226.15,80.9,225.36,80.9z M223.92,110.77
		h-33.99c-0.79,0-1.44,0.64-1.44,1.44v33.99H161.5v-32.55c4.17-0.06,16.14-0.84,24.01-7.26l0,0c0.01-0.01,0.03-0.02,0.04-0.04
		c0.23-0.19,0.46-0.38,0.68-0.58c5.8-5,13.86-12.85,16.04-21.99h21.65V110.77z"/>
</g>
<g id="Layer_11">
</g>
<g id="Layer_12">
</g>
<g id="Layer_13">
</g>
<g id="Layer_14">
</g>
<g id="Layer_15">
</g>
</svg>
