<?xml version="1.0" encoding="utf-8"?>
<!-- Generator: Adobe Illustrator 27.8.1, SVG Export Plug-In . SVG Version: 6.00 Build 0)  -->
<svg version="1.1" xmlns="http://www.w3.org/2000/svg" xmlns:xlink="http://www.w3.org/1999/xlink" x="0px" y="0px"
	 viewBox="0 0 350 230" style="enable-background:new 0 0 350 230;" xml:space="preserve">
<style type="text/css">
	.st0{stroke:#000000;stroke-miterlimit:10;}
	.st1{stroke:#ED1C24;stroke-miterlimit:10;}
	.st2{fill:#004FFA;}
	.st3{fill:#65FF00;}
	.st4{fill:#00FFAA;}
	.st5{fill:#FF0000;}
	.st6{fill:#003DFF;}
	.st7{fill:#BC00B3;}
	.st8{fill:#9E0000;}
	.st9{fill:#FFFFFF;}
	.st10{fill:#005477;}
	.st11{fill:#590028;}
	.st12{fill:#76DFFF;}
	.st13{fill:#013300;}
	.st14{fill:#FEFEFE;}
	.st15{fill:#750000;}
	.st16{fill:#965400;}
	.st17{fill:#FF00BD;}
	.st18{fill:#00FF48;}
	.st19{fill:#777400;}
	.st20{fill:#FF00DB;}
	.st21{fill:#00B4C9;}
	.st22{fill:#FF1100;}
	.st23{fill:#00FFD1;}
	.st24{fill:#FF00FF;}
	.st25{fill:#DE1800;}
	.st26{fill:#00E1FF;}
</style>
<g id="Layer_1">
</g>
<g id="Layer_2">
</g>
<g id="Layer_3">
</g>
<g id="Layer_4">
</g>
<g id="Layer_5">
</g>
<g id="Layer_6">
</g>
<g id="Layer_7">
</g>
<g id="Layer_8">
</g>
<g id="Layer_9">
</g>
<g id="Layer_10">
</g>
<g id="Layer_11">
	<g>
		<path class="st20" d="M257.54,99.28c-0.77-0.04-1.54-0.1-2.3-0.11c-35.04-0.01-70.08-0.01-105.13,0c-1.14,0-2.33,0.18-2.81-1.39
			c-0.75,6.96-1.49,13.92-2.24,20.88c-0.29-0.01-0.59-0.02-0.88-0.02c-0.57-8.95-1.13-17.9-1.7-26.84c-0.11,0-0.22,0-0.33-0.01
			c-0.57,6.39-1.15,12.78-1.72,19.17c-0.28,0.01-0.57,0.01-0.85,0.02c-0.44-3.37-0.88-6.73-1.32-10.1c-0.1,0-0.2,0-0.29,0
			c-0.07,0.43-0.12,0.86-0.22,1.28c-0.08,0.36-0.21,0.72-0.32,1.07c-0.17,0.03-0.35,0.07-0.52,0.1c-0.39-0.94-0.83-1.87-1.16-2.84
			c-0.32-0.95-0.84-1.35-1.91-1.35c-11.53,0.04-23.05,0.03-34.58,0.04c-0.39,0-0.78,0.08-1.66,0.17c1.98,2.44,3.64,4.71,5.53,6.77
			c5.16,5.65,11.02,10.48,17.36,14.76c0.93,0.63,1.7,0.78,2.6,0.01c4.14-3.53,8.29-7.05,12.44-10.57c0.12-0.1,0.18-0.29,0.31-0.34
			c0.34-0.13,0.7-0.2,1.05-0.3c-0.08,0.35-0.05,0.82-0.27,1.03c-1.87,1.84-3.69,3.74-5.7,5.42c-2.52,2.1-5.22,4-7.83,6.01
			c-0.78,0.6-1.48,0.68-2.37,0.09c-9.46-6.29-18.05-13.5-24.34-23.1c-2.45-3.74-4.2-7.84-3.9-12.46c0.42-6.35,4.68-11.42,10.95-13
			c5.93-1.49,11.36-0.49,15.83,3.93c1.04,1.03,1.74,2.39,2.59,3.58c4.61-9.79,17.35-10.34,23.26-5.22
			c3.54,3.07,6.52,10.21,4.71,12.17c-1.18-7.54-4.34-13.51-12.68-14.18c-7.92-0.63-13.27,3.02-15.48,11
			c-0.13-0.36-0.31-0.71-0.39-1.08c-1.1-5.43-4.76-8.24-9.86-9.4c-7.45-1.7-14.69,2.01-17.13,8.68c-1.52,4.15-0.59,8.05,1.04,11.97
			c0.92,2.22,2.11,3.09,4.67,3.05c11.27-0.19,22.54-0.08,33.81-0.11c1.28,0,2.5-0.12,3.12,1.5c0.17-1.66,0.31-3.33,0.52-4.98
			c0.05-0.38,0.37-0.73,0.56-1.09c0.21,0.36,0.55,0.69,0.6,1.07c0.39,2.88,0.72,5.78,1.44,8.68c0.64-7.26,1.28-14.52,1.92-21.77
			c0.29,0,0.58,0.01,0.88,0.01c0.76,9.28,1.13,18.59,2.15,27.9c0.59-5.57,1.17-11.14,1.76-16.72c0.25-0.02,0.49-0.05,0.74-0.07
			c0.23,0.88,0.49,1.75,0.7,2.63c0.82,3.44,0.1,2.87,3.61,2.87c34.53,0.01,69.05,0.01,103.58,0c0.72,0,1.44-0.03,2.16-0.05
			C257.54,98.45,257.54,98.86,257.54,99.28z"/>
	</g>
</g>
<g id="Layer_12">
</g>
<g id="Layer_13">
</g>
<g id="Layer_14">
</g>
<g id="Layer_15">
</g>
</svg>
