<?xml version="1.0" encoding="utf-8"?>
<!-- Generator: Adobe Illustrator 27.8.1, SVG Export Plug-In . SVG Version: 6.00 Build 0)  -->
<svg version="1.1" xmlns="http://www.w3.org/2000/svg" xmlns:xlink="http://www.w3.org/1999/xlink" x="0px" y="0px"
	 viewBox="0 0 350 230" style="enable-background:new 0 0 350 230;" xml:space="preserve">
<style type="text/css">
	.st0{stroke:#000000;stroke-miterlimit:10;}
	.st1{stroke:#ED1C24;stroke-miterlimit:10;}
	.st2{fill:#004FFA;}
	.st3{fill:#65FF00;}
	.st4{fill:#00FFAA;}
	.st5{fill:#FF0000;}
	.st6{fill:#003DFF;}
	.st7{fill:#BC00B3;}
	.st8{fill:#9E0000;}
	.st9{fill:#FFFFFF;}
	.st10{fill:#005477;}
	.st11{fill:#590028;}
	.st12{fill:#76DFFF;}
	.st13{fill:#013300;}
	.st14{fill:#FEFEFE;}
	.st15{fill:#750000;}
	.st16{fill:#965400;}
	.st17{fill:#FF00BD;}
	.st18{fill:#00FF48;}
	.st19{fill:#777400;}
	.st20{fill:#FF00DB;}
	.st21{fill:#00B4C9;}
	.st22{fill:#FF1100;}
	.st23{fill:#00FFD1;}
	.st24{fill:#FF00FF;}
	.st25{fill:#DE1800;}
	.st26{fill:#00E1FF;}
</style>
<g id="Layer_1">
</g>
<g id="Layer_2">
</g>
<g id="Layer_3">
</g>
<g id="Layer_4">
</g>
<g id="Layer_5">
</g>
<g id="Layer_6">
</g>
<g id="Layer_7">
</g>
<g id="Layer_8">
</g>
<g id="Layer_9">
</g>
<g id="Layer_10">
</g>
<g id="Layer_11">
</g>
<g id="Layer_12">
	<g>
		<path class="st21" d="M147.69,75.77c2-13.36,11.96-18.53,20.09-18.59c8.76-0.06,18.66,5.9,20.28,18.52c1.17,0,2.37,0,3.68,0
			c0,3.4,0,6.63,0,10.06c-2.69,0-5.31-0.01-7.92,0c-3.86,0.02-5.71,1.85-5.74,5.69c-0.01,1.76-0.02,3.51,0,5.27
			c0.03,3.71,1.93,5.63,5.61,5.65c2.63,0.01,5.26,0,8.12,0c0,2.65-0.01,5.2,0,7.75c0.01,4.2,1.78,5.95,5.98,5.97
			c0.59,0,1.17,0,1.76,0c3.41,0,3.41,0,3.89,3.3c0.74,5.03,1.51,10.06,2.23,15.09c0.52,3.64-1.75,6.57-5.4,7.05
			c-0.52,0.07-1.05,0.09-1.57,0.09c-20.36,0-40.73,0-61.09,0.01c-2.03,0-3.95-0.21-5.55-1.68c-1.7-1.56-2.28-3.46-1.94-5.7
			c2.9-19,5.81-38.01,8.66-57.02c0.18-1.22,0.66-1.52,1.8-1.49C142.95,75.82,145.33,75.77,147.69,75.77z M181.2,75.7
			c-0.81-7.41-7.46-12.56-14.97-11.8c-5.99,0.61-11.87,6.65-11.42,11.8C163.56,75.7,172.32,75.7,181.2,75.7z"/>
		<path class="st22" d="M193.85,100.3c-3.5,0-6.71,0.01-9.92,0c-2.98-0.01-3.78-0.78-3.8-3.7c-0.01-1.87-0.03-3.74,0.01-5.61
			c0.04-2.18,0.92-3.1,3.1-3.14c3.16-0.05,6.31-0.01,9.47-0.02c0.29,0,0.57-0.06,1.14-0.13c0-2.2,0-4.4,0-6.59
			c0-1.34-0.03-2.69,0.01-4.03c0.05-1.86,0.93-2.86,2.77-2.93c2.28-0.1,4.56-0.09,6.84,0.01c1.84,0.08,2.78,1.19,2.8,3.12
			c0.02,3.44,0.01,6.88,0.01,10.57c2.46,0,4.77,0,7.09,0c1.17,0,2.34-0.03,3.51,0.01c2.13,0.08,3.08,1.05,3.1,3.17
			c0.02,2.05,0.03,4.09,0,6.14c-0.03,2.08-1.02,3.1-3.14,3.13c-2.81,0.04-5.61,0.01-8.42,0.01c-0.63,0-1.27,0-2.14,0
			c0,3.28,0,6.42,0,9.55c0,3.44-0.74,4.17-4.23,4.17c-1.4,0-2.81,0-4.21,0c-3.24,0-3.98-0.74-3.98-4.04
			C193.85,106.84,193.85,103.7,193.85,100.3z"/>
	</g>
</g>
<g id="Layer_13">
</g>
<g id="Layer_14">
</g>
<g id="Layer_15">
</g>
</svg>
