<?xml version="1.0" encoding="utf-8"?>
<!-- Generator: Adobe Illustrator 27.8.1, SVG Export Plug-In . SVG Version: 6.00 Build 0)  -->
<svg version="1.1" xmlns="http://www.w3.org/2000/svg" xmlns:xlink="http://www.w3.org/1999/xlink" x="0px" y="0px"
	 viewBox="0 0 350 230" style="enable-background:new 0 0 350 230;" xml:space="preserve">
<style type="text/css">
	.st0{stroke:#000000;stroke-miterlimit:10;}
	.st1{stroke:#ED1C24;stroke-miterlimit:10;}
	.st2{fill:#004FFA;}
	.st3{fill:#65FF00;}
	.st4{fill:#00FFAA;}
	.st5{fill:#FF0000;}
	.st6{fill:#003DFF;}
	.st7{fill:#BC00B3;}
	.st8{fill:#9E0000;}
	.st9{fill:#FFFFFF;}
	.st10{fill:#005477;}
	.st11{fill:#590028;}
	.st12{fill:#76DFFF;}
	.st13{fill:#013300;}
	.st14{fill:#FEFEFE;}
	.st15{fill:#750000;}
	.st16{fill:#965400;}
	.st17{fill:#FF00BD;}
	.st18{fill:#00FF48;}
	.st19{fill:#777400;}
	.st20{fill:#FF00DB;}
	.st21{fill:#00B4C9;}
	.st22{fill:#FF1100;}
	.st23{fill:#00FFD1;}
	.st24{fill:#FF00FF;}
	.st25{fill:#DE1800;}
	.st26{fill:#00E1FF;}
</style>
<g id="Layer_1">
</g>
<g id="Layer_2">
</g>
<g id="Layer_3">
</g>
<g id="Layer_4">
</g>
<g id="Layer_5">
</g>
<g id="Layer_6">
</g>
<g id="Layer_7">
</g>
<g id="Layer_8">
</g>
<g id="Layer_9">
</g>
<g id="Layer_10">
</g>
<g id="Layer_11">
</g>
<g id="Layer_12">
</g>
<g id="Layer_13">
</g>
<g id="Layer_14">
	<path d="M52.35,174.88h245.29 M305.39,174.88c0-1.39-3.47-2.52-7.74-2.52H52.35c-4.28,0-7.74,1.13-7.74,2.52
		c0,1.39,3.47,2.52,7.74,2.52h245.29C301.92,177.39,305.39,176.27,305.39,174.88z M160.16,109.59c-0.42,0-0.73,0-1.05,0
		c-4.25-0.03-8.52,0.11-12.76-0.11c-6.96-0.37-12.73-6.03-13.5-12.97c-1.01-8.97,5.83-16.61,14.86-16.62c3.86,0,7.73,0,11.59,0
		c0.24,0,0.48,0,0.86,0c0-0.35,0-0.66,0-0.96c0-3.74,0-7.48,0-11.23c0-7.14,4.57-12.98,11.49-14.69c8.54-2.1,17.37,4.13,18.07,12.9
		c0.26,3.31,0.11,6.64,0.14,9.97c0.01,1.29,0,2.59,0,4c0.36,0,0.66,0,0.97,0c3.84,0,7.68,0,11.52,0c7.51,0,13.75,5.41,14.79,12.86
		c0.12,0.88,0.16,1.82,0.03,2.69c-0.24,1.57-1.8,2.71-3.35,2.58c-1.74-0.14-3.03-1.46-3.08-3.15c-0.15-4.97-3.69-8.42-8.65-8.42
		c-5.04,0-10.08,0-15.11,0c-2.38,0-3.68-1.29-3.68-3.66c0-5.11,0.01-10.22,0-15.33c-0.01-3.8-2.68-7.16-6.32-8.02
		c-5.27-1.24-10.23,2.68-10.24,8.1c-0.01,5.04,0,10.08,0,15.11c0,2.57-1.24,3.8-3.83,3.8c-5.09,0-10.17,0-15.26,0.01
		c-4.48,0.01-8.1,3.45-8.33,7.91c-0.22,4.33,3.07,8.13,7.47,8.57c1.07,0.11,2.15,0.1,3.22,0.1c4.43,0.01,8.85,0,13.28,0
		c2.11,0,3.44,1.3,3.44,3.42c0.01,5.28-0.01,10.56,0.01,15.85c0.02,5.8,5.76,9.76,11.2,7.75c3.18-1.17,5.35-4.3,5.36-7.78
		c0.01-5.18-0.01-10.37,0.02-15.55c0-0.66,0.11-1.38,0.39-1.98c0.62-1.34,2.18-1.99,3.66-1.65c1.38,0.32,2.49,1.61,2.49,3.08
		c0.02,5.58,0.13,11.15-0.02,16.73c-0.2,7.62-6.33,13.78-13.94,14.22c-7.7,0.45-14.41-4.97-15.57-12.6
		c-0.11-0.72-0.16-1.46-0.16-2.19c-0.01-3.89-0.01-7.78-0.01-11.67C160.16,110.35,160.16,110.04,160.16,109.59z"/>
	<path class="st24" d="M208.2,104.56c-3.39,2.48-11.49,1.73-11.49,1.73 M209.41,107.43c1.2-0.88,1.64-2.88,0.97-4.46
		c-0.67-1.58-2.19-2.15-3.39-1.27c-1.99,1.46-7.25,1.59-10.1,1.33l0,0c-1.38-0.12-2.56,1.24-2.66,3.04c-0.1,1.81,0.94,3.37,2.31,3.5
		c0.3,0.03,1.42,0.12,2.91,0.12C202.39,109.69,206.8,109.33,209.41,107.43z"/>
</g>
<g id="Layer_15">
</g>
</svg>
