<?xml version="1.0" encoding="utf-8"?>
<!-- Generator: Adobe Illustrator 27.8.1, SVG Export Plug-In . SVG Version: 6.00 Build 0)  -->
<svg version="1.1" xmlns="http://www.w3.org/2000/svg" xmlns:xlink="http://www.w3.org/1999/xlink" x="0px" y="0px"
	 viewBox="0 0 350 230" style="enable-background:new 0 0 350 230;" xml:space="preserve">
<style type="text/css">
	.st0{stroke:#000000;stroke-miterlimit:10;}
	.st1{stroke:#ED1C24;stroke-miterlimit:10;}
	.st2{fill:#004FFA;}
	.st3{fill:#65FF00;}
	.st4{fill:#00FFAA;}
	.st5{fill:#FF0000;}
	.st6{fill:#003DFF;}
	.st7{fill:#BC00B3;}
	.st8{fill:#9E0000;}
	.st9{fill:#FFFFFF;}
	.st10{fill:#005477;}
	.st11{fill:#590028;}
	.st12{fill:#76DFFF;}
	.st13{fill:#013300;}
	.st14{fill:#FEFEFE;}
	.st15{fill:#750000;}
	.st16{fill:#965400;}
	.st17{fill:#FF00BD;}
	.st18{fill:#00FF48;}
	.st19{fill:#777400;}
	.st20{fill:#FF00DB;}
	.st21{fill:#00B4C9;}
	.st22{fill:#FF1100;}
	.st23{fill:#00FFD1;}
	.st24{fill:#FF00FF;}
	.st25{fill:#DE1800;}
	.st26{fill:#00E1FF;}
</style>
<g id="Layer_1">
</g>
<g id="Layer_2">
</g>
<g id="Layer_3">
</g>
<g id="Layer_4">
</g>
<g id="Layer_5">
</g>
<g id="Layer_6">
</g>
<g id="Layer_7">
</g>
<g id="Layer_8">
</g>
<g id="Layer_9">
</g>
<g id="Layer_10">
</g>
<g id="Layer_11">
</g>
<g id="Layer_12">
</g>
<g id="Layer_13">
</g>
<g id="Layer_14">
</g>
<g id="Layer_15">
	<g>
		<path class="st25" d="M168.14,105.55c-6.17,0-11.98,0-17.91,0c0-4.88,0-9.39,0-14.27c5.92,0,11.72,0,17.85,0
			c0-5.14,0.15-9.93-0.06-14.7c-0.11-2.6,0.55-3.67,3.31-3.42c2.6,0.23,5.26,0.22,7.86,0.01c2.64-0.22,3.26,0.85,3.17,3.3
			c-0.17,4.79-0.05,9.58-0.05,14.72c6.07,0,11.88,0,17.85,0c0,4.86,0,9.37,0,14.26c-5.82,0-11.62,0-17.8,0c0,6.17,0,11.98,0,17.96
			c-4.87,0-9.36,0-14.23,0C168.14,117.53,168.14,111.72,168.14,105.55z M172.87,77.96c0,5.36-0.06,10.43,0.03,15.49
			c0.03,1.79-0.54,2.49-2.4,2.45c-4.2-0.1-8.4-0.02-12.6-0.03c-1.7,0-3.27-0.21-3.31,2.43c-0.05,2.59,1.36,2.5,3.15,2.48
			c4.2-0.05,8.4,0.07,12.6-0.06c1.94-0.06,2.63,0.53,2.58,2.52c-0.12,4.46,0.03,8.92-0.07,13.38c-0.04,1.83,0.6,2.42,2.42,2.44
			c1.92,0.02,2.35-0.79,2.32-2.52c-0.09-4.46,0.03-8.92-0.06-13.38c-0.04-1.79,0.5-2.48,2.38-2.43c4.55,0.11,9.1-0.03,13.65,0.07
			c1.74,0.04,2.26-0.62,2.26-2.29c-0.01-1.66-0.32-2.68-2.27-2.64c-3.41,0.07-6.82,0.01-10.24,0.01c-5.75,0-5.75,0-5.75-5.86
			c0-3.98,0-7.97,0-12.05C175.84,77.96,174.56,77.96,172.87,77.96z"/>
		<path class="st26" d="M164.05,72.6c-4.16,0-7.91,0.11-11.64-0.04c-2.24-0.09-3.19,0.58-3.05,2.95c0.17,2.96-0.11,5.95,0.09,8.91
			c0.16,2.4-0.75,2.98-3,2.89c-4.1-0.17-8.22-0.05-12.33-0.05c-4.42,0-8.92-0.46-13.42,2.81c2.8-10.15,8.16-17.25,17.47-20.26
			c4.63-1.5,6.96-3.42,8.46-8.29c2.88-9.39,10.01-14.93,20.16-17.59c-3.99,5.94-2.45,12.11-2.7,18.04
			C163.93,65.36,164.05,68.76,164.05,72.6z M218.17,109.55c-4.8,0.24-9.63,0.13-14.44,0.02c-1.99-0.05-2.84,0.47-2.73,2.62
			c0.17,3.23-0.02,6.48,0.07,9.71c0.04,1.68-0.56,2.38-2.27,2.34c-2.97-0.07-5.95-0.02-8.93-0.02c-3.48,0-3.49,0-3.49,3.36
			c0,4.73,0.18,9.46-0.06,14.18c-0.18,3.58-0.91,7.13-1.4,10.68c-0.13,0.02,0.48,0.02,1.03-0.16c8.55-2.83,15.13-8.17,17.81-16.78
			c1.51-4.86,3.68-7.01,8.55-8.56c9.17-2.93,14.59-10.02,17-18.8C225.48,108.63,221.84,109.36,218.17,109.55z"/>
	</g>
</g>
</svg>
