<?xml version="1.0" encoding="utf-8"?>
<!-- Generator: Adobe Illustrator 27.8.1, SVG Export Plug-In . SVG Version: 6.00 Build 0)  -->
<svg version="1.1" xmlns="http://www.w3.org/2000/svg" xmlns:xlink="http://www.w3.org/1999/xlink" x="0px" y="0px"
	 viewBox="0 0 350 230" style="enable-background:new 0 0 350 230;" xml:space="preserve">
<style type="text/css">
	.st0{stroke:#000000;stroke-miterlimit:10;}
	.st1{stroke:#ED1C24;stroke-miterlimit:10;}
	.st2{fill:#004FFA;}
	.st3{fill:#65FF00;}
	.st4{fill:#00FFAA;}
	.st5{fill:#FF0000;}
	.st6{fill:#003DFF;}
	.st7{fill:#BC00B3;}
	.st8{fill:#9E0000;}
	.st9{fill:#FFFFFF;}
	.st10{fill:#005477;}
	.st11{fill:#590028;}
	.st12{fill:#76DFFF;}
	.st13{fill:#013300;}
	.st14{fill:#FEFEFE;}
	.st15{fill:#750000;}
	.st16{fill:#965400;}
	.st17{fill:#FF00BD;}
	.st18{fill:#00FF48;}
	.st19{fill:#777400;}
	.st20{fill:#FF00DB;}
	.st21{fill:#00B4C9;}
	.st22{fill:#FF1100;}
	.st23{fill:#00FFD1;}
	.st24{fill:#FF00FF;}
	.st25{fill:#DE1800;}
	.st26{fill:#00E1FF;}
</style>
<g id="Layer_1">
</g>
<g id="Layer_2">
</g>
<g id="Layer_3">
	<g>
		<path class="st4" d="M167.42,65.77h5.29v-2.6c0-1.86,1.5-3.35,3.35-3.35c1.86,0,3.35,1.5,3.35,3.35v2.6h5.29
			c1.86,0,3.35,1.5,3.35,3.35s-1.5,3.35-3.35,3.35h-5.29v2.6c0,1.86-1.5,3.35-3.35,3.35c-1.86,0-3.35-1.5-3.35-3.35v-2.62h-5.29
			c-1.86,0-3.35-1.5-3.35-3.35C164.06,67.27,165.56,65.77,167.42,65.77L167.42,65.77z M210.94,129.95
			c-2.67-2.33-6.33-5.53-6.81-10.4c-2.45-24.96-12.53-28.8-25.09-29.38c-0.27-0.07-7.08-0.03-7.08-0.03
			c-12.94,0.48-23.41,3.93-25.91,29.42c-0.48,4.89-4.2,8.09-6.93,10.42c-2.13,1.82-4.31,3.71-3.27,6.52
			c1.06,2.81,2.03,3.4,17.41,3.4c4.07,0,40.33-0.07,44.43-0.07c14.44,0,15.37-0.6,16.43-3.35
			C215.2,133.66,213.04,131.77,210.94,129.95L210.94,129.95z"/>
		<path class="st5" d="M151.89,88.95c6.18-4.8,13.47-5.7,19.88-5.94c0,0,7.2-0.01,7.92,0.05c5.87,0.29,13.19,1.33,19.27,6.32
			l6.91-22.4c0.99-4.61-2.04-6.25-3.37-6.66c-17.69-5.33-36.36-5.33-54.01,0c-1.33,0.39-4.51,2.45-3.37,6.64L151.89,88.95
			L151.89,88.95z M167.47,65.63h5.29v-2.6c0-1.86,1.5-3.35,3.35-3.35s3.35,1.5,3.35,3.35v2.6h5.29c1.86,0,3.35,1.5,3.35,3.35
			s-1.5,3.35-3.35,3.35h-5.29v2.6c0,1.86-1.5,3.35-3.35,3.35s-3.35-1.5-3.35-3.35v-2.62h-5.29c-1.86,0-3.35-1.5-3.35-3.35
			C164.12,67.13,165.61,65.63,167.47,65.63L167.47,65.63z"/>
	</g>
</g>
<g id="Layer_4">
</g>
<g id="Layer_5">
</g>
<g id="Layer_6">
</g>
<g id="Layer_7">
</g>
<g id="Layer_8">
</g>
<g id="Layer_9">
</g>
<g id="Layer_10">
</g>
<g id="Layer_11">
</g>
<g id="Layer_12">
</g>
<g id="Layer_13">
</g>
<g id="Layer_14">
</g>
<g id="Layer_15">
</g>
</svg>
