<?xml version="1.0" encoding="utf-8"?>
<!-- Generator: Adobe Illustrator 27.8.1, SVG Export Plug-In . SVG Version: 6.00 Build 0)  -->
<svg version="1.1" xmlns="http://www.w3.org/2000/svg" xmlns:xlink="http://www.w3.org/1999/xlink" x="0px" y="0px"
	 viewBox="0 0 350 230" style="enable-background:new 0 0 350 230;" xml:space="preserve">
<style type="text/css">
	.st0{stroke:#000000;stroke-miterlimit:10;}
	.st1{stroke:#ED1C24;stroke-miterlimit:10;}
	.st2{fill:#004FFA;}
	.st3{fill:#65FF00;}
	.st4{fill:#00FFAA;}
	.st5{fill:#FF0000;}
	.st6{fill:#003DFF;}
	.st7{fill:#BC00B3;}
	.st8{fill:#9E0000;}
	.st9{fill:#FFFFFF;}
	.st10{fill:#005477;}
	.st11{fill:#590028;}
	.st12{fill:#76DFFF;}
	.st13{fill:#013300;}
	.st14{fill:#FEFEFE;}
	.st15{fill:#750000;}
	.st16{fill:#965400;}
	.st17{fill:#FF00BD;}
	.st18{fill:#00FF48;}
	.st19{fill:#777400;}
	.st20{fill:#FF00DB;}
	.st21{fill:#00B4C9;}
	.st22{fill:#FF1100;}
	.st23{fill:#00FFD1;}
	.st24{fill:#FF00FF;}
	.st25{fill:#DE1800;}
	.st26{fill:#00E1FF;}
</style>
<g id="Layer_1">
</g>
<g id="Layer_2">
</g>
<g id="Layer_3">
</g>
<g id="Layer_4">
	<g>
		<path class="st6" d="M201.94,101.93H183.4v18.54h-14.58v-18.54h-18.54V87.35h18.54V68.81h14.58v18.54h18.54V101.93z"/>
		<path class="st5" d="M156.15,87.35h-3.37c-0.58-3.91,1.13-7.53,3.73-9.86c3.16-2.83,7.91-4,12.31-1.99v3.81
			c-3.61-2.52-7.61-1.59-10.1,0.64C156.73,81.73,155.52,84.43,156.15,87.35z M195.92,77.74c-3.17-2.91-7.99-4.14-12.52-2.13
			c-1.53,0.68-3.02,1.72-4.41,3.19c-0.63,0.66-0.6,1.71,0.06,2.34c0.66,0.63,1.71,0.6,2.34-0.06c0.65-0.69,1.33-1.24,2.01-1.69
			c3.75-2.47,7.79-1.5,10.29,0.79c1.88,1.73,2.98,4.34,2.35,7.17c-0.31,1.39-1.04,2.84-2.31,4.26c-2.86,3.2-6.05,6.28-9.15,9.26
			c-0.36,0.35-0.73,0.7-1.09,1.06c-0.03,0.03-0.06,0.06-0.09,0.08c-1.18,1.14-2.37,2.29-3.53,3.45c-0.28,0.28-0.57,0.59-0.86,0.9
			c-1.66,1.79-2.52,2.52-3.72,2.04c-0.88-0.35-2-1.66-2.89-2.71c-0.45-0.53-0.88-1.03-1.29-1.44c-0.75-0.75-1.52-1.5-2.29-2.24
			c-0.03-0.03-0.05-0.05-0.08-0.08h-4.79c0.16,0.16,0.33,0.32,0.49,0.47c1.44,1.37,2.92,2.78,4.32,4.18
			c0.02,0.02,0.03,0.04,0.05,0.05c0.31,0.32,0.68,0.75,1.06,1.2c1.19,1.4,2.54,2.98,4.18,3.64c0.69,0.28,1.34,0.4,1.94,0.4
			c2.42,0,4.18-1.9,5.44-3.25c0.26-0.28,0.52-0.56,0.77-0.81c0.39-0.39,0.79-0.78,1.19-1.17c1.16-1.14,2.33-2.27,3.47-3.38
			c0.45-0.44,0.91-0.88,1.37-1.32c2.7-2.61,5.43-5.3,7.95-8.11c1.91-2.14,2.9-4.35,3.22-6.47C200,83.54,198.41,80.02,195.92,77.74z
			 M118.93,140.19c0-2.27-1.84-4.11-4.11-4.11c-2.27,0-4.11,1.84-4.11,4.11c0,2.27,1.84,4.11,4.11,4.11
			C117.09,144.29,118.93,142.46,118.93,140.19z M118.93,128.18c0-2.27-1.84-4.11-4.11-4.11c-2.27,0-4.11,1.84-4.11,4.11
			c0,2.27,1.84,4.11,4.11,4.11C117.09,132.28,118.93,130.45,118.93,128.18z M223.05,141.42c4.05,0,7.33-3.28,7.33-7.33
			s-3.28-7.33-7.33-7.33c-4.05,0-7.33,3.28-7.33,7.33S219,141.42,223.05,141.42z"/>
		<path class="st6" d="M223.05,132.44h-18.81c-4.28,0-12.7-0.29-22.19-2.16c2.01-0.67,4.01-1.44,5.97-2.3
			c17.71-7.76,26.7-20.53,26.7-37.94c0-21.65-17.61-39.26-39.25-39.26c-21.65,0-39.26,17.61-39.26,39.26
			c0,16.83,9.12,29.85,26.38,37.63c2.17,0.98,4.38,1.83,6.59,2.59c-8.79,1.7-16.83,2.11-21.61,2.18c-0.71-4.46-4.32-8.01-8.93-8.55
			l-20.08-2.36c-1.36-0.16-2.73,0.27-3.75,1.18c-1.03,0.91-1.61,2.22-1.61,3.59v1.85c0,0.9,0.74,1.64,1.64,1.64
			c0.9,0,1.64-0.74,1.64-1.64v-1.85c0-0.44,0.18-0.84,0.51-1.13c0.33-0.29,0.76-0.43,1.19-0.37l20.07,2.36
			c3.52,0.41,6.18,3.39,6.18,6.93c0,3.55-2.65,6.53-6.18,6.94l-20.07,2.36c-0.44,0.05-0.86-0.08-1.19-0.37
			c-0.33-0.3-0.51-0.7-0.51-1.13v-1.71c0-0.9-0.74-1.64-1.64-1.64c-0.9,0-1.64,0.74-1.64,1.64v1.71c0,1.36,0.58,2.68,1.61,3.59
			c0.89,0.78,2.03,1.21,3.19,1.21c0.19,0,0.37-0.01,0.56-0.03l20.08-2.35c4.62-0.54,8.23-4.11,8.94-8.58
			c5.94-0.07,16.79-0.67,28.04-3.52c12.05,3.12,23.38,3.54,28.64,3.54h18.81c0.91,0,1.64-0.73,1.64-1.64
			C224.69,133.18,223.96,132.44,223.05,132.44z M163.92,124.67c-16.21-7.31-24.44-18.96-24.44-34.63
			c0-19.84,16.14-35.98,35.98-35.98c19.83,0,35.97,16.14,35.97,35.98c0,15.99-8.32,27.74-24.73,34.93
			c-3.61,1.58-7.36,2.82-11.09,3.82C171.71,127.74,167.75,126.4,163.92,124.67z"/>
	</g>
</g>
<g id="Layer_5">
</g>
<g id="Layer_6">
</g>
<g id="Layer_7">
</g>
<g id="Layer_8">
</g>
<g id="Layer_9">
</g>
<g id="Layer_10">
</g>
<g id="Layer_11">
</g>
<g id="Layer_12">
</g>
<g id="Layer_13">
</g>
<g id="Layer_14">
</g>
<g id="Layer_15">
</g>
</svg>
