<?xml version="1.0" encoding="utf-8"?>
<!-- Generator: Adobe Illustrator 27.8.1, SVG Export Plug-In . SVG Version: 6.00 Build 0)  -->
<svg version="1.1" xmlns="http://www.w3.org/2000/svg" xmlns:xlink="http://www.w3.org/1999/xlink" x="0px" y="0px"
	 viewBox="0 0 350 230" style="enable-background:new 0 0 350 230;" xml:space="preserve">
<style type="text/css">
	.st0{stroke:#000000;stroke-miterlimit:10;}
	.st1{stroke:#ED1C24;stroke-miterlimit:10;}
	.st2{fill:#004FFA;}
	.st3{fill:#65FF00;}
	.st4{fill:#00FFAA;}
	.st5{fill:#FF0000;}
	.st6{fill:#003DFF;}
	.st7{fill:#BC00B3;}
	.st8{fill:#9E0000;}
	.st9{fill:#FFFFFF;}
	.st10{fill:#005477;}
	.st11{fill:#590028;}
	.st12{fill:#76DFFF;}
	.st13{fill:#013300;}
	.st14{fill:#FEFEFE;}
	.st15{fill:#750000;}
	.st16{fill:#965400;}
	.st17{fill:#FF00BD;}
	.st18{fill:#00FF48;}
	.st19{fill:#777400;}
	.st20{fill:#FF00DB;}
	.st21{fill:#00B4C9;}
	.st22{fill:#FF1100;}
	.st23{fill:#00FFD1;}
	.st24{fill:#FF00FF;}
	.st25{fill:#DE1800;}
	.st26{fill:#00E1FF;}
</style>
<g id="Layer_1">
</g>
<g id="Layer_2">
</g>
<g id="Layer_3">
</g>
<g id="Layer_4">
</g>
<g id="Layer_5">
	<g>
		<path class="st7" d="M41.72,86.07c0,2.92-2.37,5.28-5.29,5.28c-2.92,0-5.28-2.37-5.28-5.28c0-2.92,2.37-5.29,5.28-5.29
			C39.36,80.78,41.72,83.15,41.72,86.07z M53.43,80.78c-2.92,0-5.28,2.37-5.28,5.29c0,2.92,2.37,5.28,5.28,5.28
			c2.92,0,5.29-2.37,5.29-5.28C58.71,83.15,56.34,80.78,53.43,80.78z M85.6,147.16c0-5.71-4.63-10.44-10.33-10.44
			c-5.71,0-10.33,4.73-10.33,10.44s4.63,10.33,10.33,10.33C80.98,157.49,85.6,152.86,85.6,147.16z"/>
		<path class="st8" d="M63.32,109.46l-5.14,5.14l0,0l-12.46,12.46c-0.5,0.5-1.32,0.5-1.82,0l-17.6-17.6
			c-3.97-3.97-3.67-10.59,0.89-14.16c3.81-2.98,9.32-2.38,12.74,1.04l3.97,3.97c0.5,0.5,1.32,0.5,1.82,0l3.98-3.98
			c3.42-3.42,8.93-4.02,12.74-1.04C66.99,98.87,67.29,105.49,63.32,109.46z M66.71,51.73L66.71,51.73c-14.52-2.26-29.3-2.26-43.82,0
			l0,0l3.89,21.68l4.72,0.79c8.81,1.47,17.79,1.47,26.6,0l4.72-0.79L66.71,51.73z"/>
		<path class="st9" d="M44.8,69.1L44.8,69.1c-0.7,0-1.27-0.57-1.27-1.27v-9.76c0-0.7,0.57-1.27,1.27-1.27l0,0
			c0.7,0,1.27,0.57,1.27,1.27v9.76C46.07,68.53,45.5,69.1,44.8,69.1z M49.68,61.69h-9.76c-0.7,0-1.27,0.57-1.27,1.27l0,0
			c0,0.7,0.57,1.27,1.27,1.27h9.76c0.7,0,1.27-0.57,1.27-1.27l0,0C50.95,62.25,50.38,61.69,49.68,61.69z"/>
		<path class="st10" d="M60.04,179.97c-9.65,0-17.5-7.85-17.5-17.5v-21.15c-1.11-0.35-2.16-0.97-3.04-1.84L10.73,110.7
			c-3.81-3.81-5.81-9.09-5.49-14.47c0.33-5.38,2.97-10.39,7.25-13.75c7.46-5.84,18.35-4.98,25.34,2.01c0.88,0.88,0.88,2.32,0,3.2
			c-0.88,0.88-2.32,0.88-3.2,0c-5.37-5.37-13.69-6.07-19.34-1.64c-3.31,2.59-5.27,6.31-5.52,10.45c-0.25,4.09,1.27,8.1,4.17,11
			l28.77,28.77c1.12,1.12,3.08,1.12,4.2,0l28.77-28.78c2.9-2.9,4.42-6.91,4.17-11c-0.25-4.15-2.21-7.86-5.52-10.45
			c-5.66-4.43-13.97-3.73-19.34,1.64c-0.88,0.88-2.32,0.88-3.2,0c-0.88-0.88-0.88-2.32,0-3.2c6.99-6.98,17.88-7.85,25.34-2.01
			c4.28,3.35,6.93,8.36,7.25,13.75c0.33,5.39-1.67,10.66-5.49,14.48l-28.77,28.78c-0.88,0.88-1.93,1.49-3.04,1.85v21.15
			c0,7.15,5.82,12.97,12.97,12.97S73,169.62,73,162.47v-15.31c0-1.25,1.01-2.26,2.26-2.26s2.26,1.01,2.26,2.26v15.31
			C77.53,172.12,69.68,179.97,60.04,179.97z"/>
	</g>
</g>
<g id="Layer_6">
</g>
<g id="Layer_7">
</g>
<g id="Layer_8">
</g>
<g id="Layer_9">
</g>
<g id="Layer_10">
</g>
<g id="Layer_11">
</g>
<g id="Layer_12">
</g>
<g id="Layer_13">
</g>
<g id="Layer_14">
</g>
<g id="Layer_15">
</g>
</svg>
