<?xml version="1.0" encoding="utf-8"?>
<!-- Generator: Adobe Illustrator 27.8.1, SVG Export Plug-In . SVG Version: 6.00 Build 0)  -->
<svg version="1.1" xmlns="http://www.w3.org/2000/svg" xmlns:xlink="http://www.w3.org/1999/xlink" x="0px" y="0px"
	 viewBox="0 0 350 230" style="enable-background:new 0 0 350 230;" xml:space="preserve">
<style type="text/css">
	.st0{stroke:#000000;stroke-miterlimit:10;}
	.st1{stroke:#ED1C24;stroke-miterlimit:10;}
	.st2{fill:#004FFA;}
	.st3{fill:#65FF00;}
	.st4{fill:#00FFAA;}
	.st5{fill:#FF0000;}
	.st6{fill:#003DFF;}
	.st7{fill:#BC00B3;}
	.st8{fill:#9E0000;}
	.st9{fill:#FFFFFF;}
	.st10{fill:#005477;}
	.st11{fill:#590028;}
	.st12{fill:#76DFFF;}
	.st13{fill:#013300;}
	.st14{fill:#FEFEFE;}
	.st15{fill:#750000;}
	.st16{fill:#965400;}
	.st17{fill:#FF00BD;}
	.st18{fill:#00FF48;}
	.st19{fill:#777400;}
	.st20{fill:#FF00DB;}
	.st21{fill:#00B4C9;}
	.st22{fill:#FF1100;}
	.st23{fill:#00FFD1;}
	.st24{fill:#FF00FF;}
	.st25{fill:#DE1800;}
	.st26{fill:#00E1FF;}
</style>
<g id="Layer_1">
</g>
<g id="Layer_2">
</g>
<g id="Layer_3">
</g>
<g id="Layer_4">
</g>
<g id="Layer_5">
</g>
<g id="Layer_6">
	<g>
		<path class="st11" d="M210.62,96.27l-9.89,9.89l0.01,0.01l-23.97,23.97c-0.97,0.97-2.54,0.97-3.5,0l-33.86-33.86
			c-7.63-7.63-7.06-20.37,1.71-27.24c7.32-5.73,17.93-4.57,24.5,2l7.64,7.64c0.97,0.97,2.54,0.97,3.5,0l7.66-7.66
			c6.57-6.57,17.18-7.73,24.5-2C217.68,75.9,218.25,88.63,210.62,96.27z"/>
		<path class="st12" d="M197.6,70.88l-5.92,0.99c-11.05,1.84-22.32,1.84-33.36,0l-5.92-0.99l-4.87-27.19l0,0
			c18.21-2.83,36.75-2.83,54.96,0l0,0L197.6,70.88z M176.59,63.76V51.51c0-0.88-0.71-1.59-1.59-1.59l0,0
			c-0.88,0-1.59,0.71-1.59,1.59v12.24c0,0.88,0.71,1.59,1.59,1.59l0,0C175.88,65.34,176.59,64.63,176.59,63.76z M181.12,56.05
			h-12.24c-0.88,0-1.59,0.71-1.59,1.59l0,0c0,0.88,0.71,1.59,1.59,1.59h12.24c0.88,0,1.59-0.71,1.59-1.59l0,0
			C182.71,56.76,182,56.05,181.12,56.05z M111.59,115.42c-1.36-0.08-2.18,1.5-1.34,2.57l6.69,8.49c4.6,5.84,11.04,9.94,18.27,11.64
			l11.57,2.72c0.78,0.18,1.56,0.42,2.3,0.74c3.81,1.66,7.26,4.14,10.06,7.21c1.01,1.11,1.96,2.09,2.69,3.42
			c0.57,1.05,0.67,2.24,1.68,3.03c1.26,0.97,2.77,0.44,4-0.28c1.4-0.82,3.36-1.79,3.65-3.57c0.17-1.03-0.32-1.98-0.52-2.96
			c-0.21-1.02-0.28-2.1-0.39-3.13c-0.39-3.5-1.11-7.03-2.83-10.14c-1.62-2.94-3.98-5.44-6.62-7.49c-2.95-2.29-6.25-4.13-10.01-4.64
			c-1.96-0.26-3.95-0.13-5.89-0.56c-1.69-0.37-3.3-1.15-4.79-2.01c-1.45-0.84-2.85-1.82-4.3-2.83c-0.87-0.61-1.75-1.22-2.66-1.83
			c-1.35-0.89-2.77-1.68-4.2-2.12c-1.44-0.44-2.89-0.51-4.26,0.06c-0.01,0-0.02,0.01-0.03,0.01c-1.45,0.6-1.69,2.57-0.52,3.62
			c5.87,5.26,11.65,10.84,18.79,14.29c0,0-0.72-0.05-2.03-0.24c-6.8-3.5-12.39-8.88-18.07-13.95c-0.53-0.47-0.73-1.19-0.64-1.88
			c0.09-0.75,0.56-1.39,0.96-2.01c0.03-0.04,0.05-0.09,0.05-0.13c0-0.05-0.02-0.09-0.05-0.12c-0.67-1.12-1.33-2.24-1.9-3.42
			c-0.8-1.66-2.17-3-3.8-3.82c-1.33-0.68-2.75,0.8-2.09,2.14l4.25,8.64c2.02,4.12,4.9,7.87,8.4,11.01
			c-3.11-1.59-5.92-3.75-8.25-6.42l-2.78-3.17C115.65,116.55,113.67,115.54,111.59,115.42z M132.81,109.55l-1.31-3.75
			c-0.57-1.95-1.88-3.75-3.52-4.97c-0.87-0.65-2.07,0.23-1.76,1.27l2.85,9.46c0.13,0.45,0.31,0.89,0.46,1.33
			c1.43,0.43,2.85,1.23,4.2,2.12c0.91,0.6,1.79,1.22,2.66,1.83C134.91,114.5,133.69,112.06,132.81,109.55z M147.88,122.06
			c-1.05-0.17-1.63-1.61-2.18-2.52c-1.23-2.03-2.27-4.18-3.05-6.43c0,0-1.31-3.75-1.31-3.75c-0.57-1.95-1.88-3.75-3.52-4.97
			c-0.87-0.65-2.07,0.23-1.76,1.27l2.85,9.46c0.46,1.52,1.04,3.02,1.7,4.5C142.84,120.91,145.17,121.86,147.88,122.06z
			 M233.01,118.27l-2.78,3.17c-2.33,2.66-5.14,4.83-8.25,6.42c3.5-3.14,6.38-6.89,8.4-11.01l4.25-8.64
			c0.66-1.34-0.76-2.81-2.09-2.14c-1.62,0.82-3,2.17-3.8,3.82c-0.57,1.18-1.23,2.3-1.9,3.42c-0.02,0.04-0.05,0.08-0.05,0.12
			c0,0.05,0.03,0.09,0.05,0.13c0.39,0.62,0.87,1.26,0.96,2.01c0.08,0.69-0.11,1.41-0.64,1.88c-5.67,5.07-11.27,10.45-18.07,13.95
			c-1.31,0.19-2.03,0.24-2.03,0.24c7.15-3.45,12.93-9.04,18.79-14.29c1.17-1.05,0.93-3.01-0.52-3.62c-0.01,0-0.02-0.01-0.03-0.01
			c-1.38-0.56-2.82-0.5-4.26-0.06c-1.43,0.43-2.85,1.23-4.2,2.12c-0.91,0.6-1.79,1.22-2.66,1.83c-1.44,1.01-2.85,1.99-4.3,2.83
			c-1.49,0.87-3.1,1.64-4.79,2.01c-1.94,0.43-3.93,0.29-5.89,0.56c-3.75,0.51-7.05,2.35-10.01,4.64c-2.64,2.05-5,4.55-6.62,7.49
			c-1.72,3.11-2.44,6.64-2.83,10.14c-0.12,1.04-0.18,2.11-0.39,3.13c-0.2,0.98-0.69,1.93-0.52,2.96c0.29,1.78,2.25,2.74,3.65,3.57
			c1.23,0.72,2.74,1.26,4,0.28c1.01-0.78,1.11-1.98,1.68-3.03c0.73-1.34,1.68-2.31,2.69-3.42c2.8-3.07,6.25-5.55,10.06-7.21
			c0.74-0.32,1.52-0.55,2.3-0.74l11.57-2.72c7.23-1.7,13.67-5.8,18.27-11.64l6.69-8.49c0.84-1.07,0.03-2.65-1.34-2.57
			C236.33,115.54,234.35,116.55,233.01,118.27z M213.61,116.82c0.87-0.61,1.75-1.22,2.66-1.83c1.35-0.89,2.77-1.68,4.2-2.12
			c0.15-0.44,0.33-0.88,0.46-1.33l2.85-9.46c0.31-1.04-0.89-1.92-1.76-1.27c-1.64,1.23-2.95,3.03-3.52,4.97l-1.31,3.75
			C216.31,112.06,215.09,114.5,213.61,116.82z M209.39,119.62c0.66-1.48,1.24-2.98,1.7-4.5l2.85-9.46c0.31-1.04-0.89-1.92-1.76-1.27
			c-1.64,1.23-2.95,3.03-3.52,4.97c0,0-1.31,3.75-1.31,3.75c-0.78,2.24-1.82,4.4-3.05,6.43c-0.55,0.91-1.13,2.35-2.18,2.52
			C204.83,121.86,207.16,120.91,209.39,119.62z"/>
	</g>
</g>
<g id="Layer_7">
</g>
<g id="Layer_8">
</g>
<g id="Layer_9">
</g>
<g id="Layer_10">
</g>
<g id="Layer_11">
</g>
<g id="Layer_12">
</g>
<g id="Layer_13">
</g>
<g id="Layer_14">
</g>
<g id="Layer_15">
</g>
</svg>
