<?xml version="1.0" encoding="utf-8"?>
<!-- Generator: Adobe Illustrator 27.8.1, SVG Export Plug-In . SVG Version: 6.00 Build 0)  -->
<svg version="1.1" xmlns="http://www.w3.org/2000/svg" xmlns:xlink="http://www.w3.org/1999/xlink" x="0px" y="0px"
	 viewBox="0 0 350 230" style="enable-background:new 0 0 350 230;" xml:space="preserve">
<style type="text/css">
	.st0{stroke:#000000;stroke-miterlimit:10;}
	.st1{stroke:#ED1C24;stroke-miterlimit:10;}
	.st2{fill:#004FFA;}
	.st3{fill:#65FF00;}
	.st4{fill:#00FFAA;}
	.st5{fill:#FF0000;}
	.st6{fill:#003DFF;}
	.st7{fill:#BC00B3;}
	.st8{fill:#9E0000;}
	.st9{fill:#FFFFFF;}
	.st10{fill:#005477;}
	.st11{fill:#590028;}
	.st12{fill:#76DFFF;}
	.st13{fill:#013300;}
	.st14{fill:#FEFEFE;}
	.st15{fill:#750000;}
	.st16{fill:#965400;}
	.st17{fill:#FF00BD;}
	.st18{fill:#00FF48;}
	.st19{fill:#777400;}
	.st20{fill:#FF00DB;}
	.st21{fill:#00B4C9;}
	.st22{fill:#FF1100;}
	.st23{fill:#00FFD1;}
	.st24{fill:#FF00FF;}
	.st25{fill:#DE1800;}
	.st26{fill:#00E1FF;}
</style>
<g id="Layer_1">
</g>
<g id="Layer_2">
</g>
<g id="Layer_3">
</g>
<g id="Layer_4">
</g>
<g id="Layer_5">
</g>
<g id="Layer_6">
</g>
<g id="Layer_7">
	<g>
		<path class="st13" d="M202.1,62.7l-4.37,21.89c-5.3-6.34-13.46-10.41-22.62-10.41c-9.29,0-17.55,4.18-22.84,10.67L147.9,62.7
			C147.9,62.7,173.28,46.06,202.1,62.7z"/>
		<path class="st14" d="M175,70.58L175,70.58c-0.54,0-0.98-0.44-0.98-0.98v-7.55c0-0.54,0.44-0.98,0.98-0.98l0,0
			c0.54,0,0.98,0.44,0.98,0.98v7.55C175.98,70.15,175.54,70.58,175,70.58z M178.77,64.85h-7.55c-0.54,0-0.98,0.44-0.98,0.98l0,0
			c0,0.54,0.44,0.98,0.98,0.98h7.55c0.54,0,0.98-0.44,0.98-0.98l0,0C179.75,65.29,179.31,64.85,178.77,64.85z"/>
		<path class="st15" d="M202.54,105.7c0-15.21-12.33-27.54-27.55-27.54c-15.21,0-27.54,12.33-27.54,27.54
			c0,0.29,0.01,0.58,0.02,0.87h-0.02v26.63c0,3.21,2.6,5.81,5.81,5.81h43.47c3.21,0,5.81-2.6,5.81-5.81v-26.63h-0.02
			C202.53,106.28,202.54,106,202.54,105.7z M175,137.01c-11.99,0-21.93-16.5-23.77-29.5c0.07,0.47,0.14,0.95,0.23,1.43
			c1.01,0.19,2.05,0.29,3.11,0.29c6.21,0,11.63-3.37,14.54-8.37c4.83,5.09,11.66,8.26,19.23,8.26c3.73,0,7.27-0.77,10.49-2.16
			c0.08-0.61,0.13-1.2,0.17-1.79C198.13,118.43,187.72,137.01,175,137.01z M151.23,107.51 M199.06,104.19
			c0.01-0.27,0.01-0.53,0.01-0.79C199.08,103.67,199.07,103.93,199.06,104.19z M199.02,105.1c0.02-0.24,0.03-0.48,0.04-0.72
			C199.05,104.62,199.03,104.86,199.02,105.1z M175,157.78c-32.19,0-58.38-26.19-58.38-58.38S142.81,41.01,175,41.01
			s58.38,26.19,58.38,58.38S207.19,157.78,175,157.78z M175,45.01c-29.99,0-54.38,24.4-54.38,54.38s24.4,54.38,54.38,54.38
			c29.99,0,54.38-24.4,54.38-54.38S204.99,45.01,175,45.01z"/>
	</g>
</g>
<g id="Layer_8">
</g>
<g id="Layer_9">
</g>
<g id="Layer_10">
</g>
<g id="Layer_11">
</g>
<g id="Layer_12">
</g>
<g id="Layer_13">
</g>
<g id="Layer_14">
</g>
<g id="Layer_15">
</g>
</svg>
