<?xml version="1.0" encoding="utf-8"?>
<!-- Generator: Adobe Illustrator 27.8.1, SVG Export Plug-In . SVG Version: 6.00 Build 0)  -->
<svg version="1.1" xmlns="http://www.w3.org/2000/svg" xmlns:xlink="http://www.w3.org/1999/xlink" x="0px" y="0px"
	 viewBox="0 0 350 230" style="enable-background:new 0 0 350 230;" xml:space="preserve">
<style type="text/css">
	.st0{stroke:#000000;stroke-miterlimit:10;}
	.st1{stroke:#ED1C24;stroke-miterlimit:10;}
	.st2{fill:#004FFA;}
	.st3{fill:#65FF00;}
	.st4{fill:#00FFAA;}
	.st5{fill:#FF0000;}
	.st6{fill:#003DFF;}
	.st7{fill:#BC00B3;}
	.st8{fill:#9E0000;}
	.st9{fill:#FFFFFF;}
	.st10{fill:#005477;}
	.st11{fill:#590028;}
	.st12{fill:#76DFFF;}
	.st13{fill:#013300;}
	.st14{fill:#FEFEFE;}
	.st15{fill:#750000;}
	.st16{fill:#965400;}
	.st17{fill:#FF00BD;}
	.st18{fill:#00FF48;}
	.st19{fill:#777400;}
	.st20{fill:#FF00DB;}
	.st21{fill:#00B4C9;}
	.st22{fill:#FF1100;}
	.st23{fill:#00FFD1;}
	.st24{fill:#FF00FF;}
	.st25{fill:#DE1800;}
	.st26{fill:#00E1FF;}
</style>
<g id="Layer_1">
</g>
<g id="Layer_2">
</g>
<g id="Layer_3">
</g>
<g id="Layer_4">
</g>
<g id="Layer_5">
</g>
<g id="Layer_6">
</g>
<g id="Layer_7">
</g>
<g id="Layer_8">
	<g>
		<path class="st16" d="M147.44,111.85c-1.27-1.39-2.2-2.45-3.18-3.47c-7.84-8.11-9.98-21.1-5.11-31.25
			c0.16-0.34,0.27-0.8,0.54-0.96c0.54-0.31,1.17-0.43,1.77-0.64c0.2,0.64,0.71,1.36,0.56,1.89c-0.57,2.05-1.59,3.99-2.01,6.05
			c-1.87,9.19,0.42,17.22,7.11,23.9c0.08,0.08,0.18,0.13,0.23,0.22c2.25,3.68,5.47,3.82,9.24,2.8c2.82-0.76,5.75-1.14,8.66-1.52
			c5.57-0.71,10.96,0.58,16.28,1.91c3.08,0.77,5.25,2.9,5.61,6.28c0.35,3.31-2.16,6.25-5.76,6.33c-3.23,0.07-6.47-0.45-9.71-0.72
			c-0.8-0.07-1.59-0.2-2.39-0.25c-1.14-0.08-1.99,0.53-1.98,1.6c0.01,0.75,0.48,1.73,1.06,2.18c0.67,0.51,1.69,0.59,2.57,0.76
			c3.62,0.67,7.22,1.56,10.87,1.87c2.55,0.21,5.17-0.34,7.74-0.67c0.5-0.06,1-0.59,1.4-0.99c6.79-6.95,13.67-13.8,20.3-20.9
			c6.55-7.01,8.11-15.36,5.75-24.55c-0.36-1.39-0.9-1.56-2.25-1.05c-9.69,3.72-19.97-1.21-23.3-11.1c-0.15-0.44-0.34-0.87-0.65-1.67
			c-1.91,1.12-3.77,2.03-5.43,3.22c-1.55,1.11-2.9,2.5-4.32,3.8c-2.01,1.83-2.83,1.91-4.71-0.03c-3.49-3.59-7.44-6.41-12.35-7.67
			c-6.56-1.68-12.49-0.6-17.51,4.19c-0.75,0.72-1.59,1.33-2.48,0.41c-0.91-0.94-0.21-1.76,0.53-2.45c6.23-5.85,13.5-6.85,21.43-4.48
			c4.33,1.3,8,3.75,11.2,6.91c0.45,0.44,0.91,0.87,1.4,1.33c1.75-1.47,3.33-2.99,5.11-4.22c1.79-1.24,3.73-2.28,5.69-3.22
			c0.98-0.47,1.24-1.02,1.39-2.04c0.29-2.04,0.75-4.07,1.28-6.07c0.27-1,0.75-2.27,2.16-1.71c1.4,0.55,0.86,1.68,0.43,2.71
			c-3.61,8.66,1.53,18.35,10.75,20.29c6.36,1.34,13.11-1.95,16.1-7.84c3.07-6.06,1.71-13.18-3.41-17.81
			c-4.84-4.37-12.21-4.96-17.67-1.4c-0.4,0.26-0.77,0.72-1.2,0.77c-0.69,0.08-1.41-0.1-2.12-0.17c0.17-0.7,0.12-1.65,0.56-2.04
			c0.94-0.83,2.1-1.45,3.25-2c7.6-3.65,16.87-1.18,21.78,5.78c4.87,6.9,4.14,16.41-1.72,22.36c-0.22,0.23-0.42,0.5-0.69,0.67
			c-1.24,0.81-1.25,1.77-0.83,3.14c2.54,8.24,1.82,16.25-2.86,23.52c-2.17,3.36-5.19,6.19-7.97,9.13
			c-4.14,4.38-8.41,8.64-12.62,12.96c-0.21,0.22-0.38,0.47-0.89,1.1c1.17-0.18,1.92-0.26,2.65-0.41c2.61-0.54,5.2-1.18,7.83-1.63
			c1.3-0.22,2.67-0.28,3.98-0.15c4.08,0.39,6.16,4.49,4.18,8.08c-0.97,1.77-2.45,2.93-4.37,3.54c-7.46,2.4-14.92,4.82-22.4,7.18
			c-3.3,1.04-6.62,2.05-9.98,2.87c-4.4,1.07-8.55-0.41-12.71-1.56c-7.25-1.99-14.51-3.97-21.76-5.95c-0.86-0.24-1.55-0.38-2.12,0.69
			c-0.3,0.56-1.26,1.06-1.93,1.08c-3.95,0.1-7.9,0.09-11.85,0.04c-1.84-0.02-2.44-0.72-2.45-2.61c-0.02-8.27-0.02-16.55-0.01-24.82
			c0-2.05,0.64-2.66,2.71-2.67c3.74-0.02,7.47,0.02,11.21-0.01c1.17-0.01,2.08,0.28,2.59,1.45c0.12,0.27,0.54,0.62,0.78,0.59
			C143.29,112.52,145.16,112.21,147.44,111.85z M140.69,125.7c0,0-0.01,0-0.01,0c0,2.78,0.06,5.55-0.03,8.32
			c-0.04,1.3,0.4,1.86,1.68,2.2c8.66,2.3,17.31,4.65,25.93,7.07c3.82,1.07,7.57,1.1,11.34-0.11c9.55-3.06,19.11-6.08,28.63-9.22
			c1.09-0.36,2.19-1.19,2.89-2.1c1.35-1.75,0.52-3.8-1.66-4.24c-1.01-0.21-2.13-0.16-3.15,0.04c-5.5,1.06-10.97,2.25-16.47,3.29
			c-2.19,0.42-4.48,1.04-6.63,0.77c-5.18-0.64-10.32-1.65-15.42-2.72c-2.43-0.51-3.66-2.83-3.28-5.31c0.37-2.44,2.29-4.09,4.81-3.97
			c1.59,0.07,3.17,0.39,4.77,0.53c2.33,0.21,4.67,0.52,7,0.5c1.49-0.01,2.83-0.8,3.22-2.42c0.42-1.71-0.31-3.17-1.77-3.94
			c-1.43-0.75-3.04-1.28-4.63-1.57c-3.92-0.71-7.79-1.94-11.86-1.27c-8.05,1.32-16.1,2.65-24.15,3.95
			c-1.07,0.17-1.22,0.82-1.21,1.71C140.7,120.05,140.69,122.87,140.69,125.7z M137.94,125.95
			C137.94,125.95,137.94,125.95,137.94,125.95c-0.01-3.68-0.04-7.35,0.01-11.03c0.02-1.17-0.38-1.62-1.56-1.6
			c-2.61,0.05-5.22,0.06-7.83,0c-1.34-0.03-1.72,0.52-1.71,1.81c0.04,7.09,0.05,14.17-0.02,21.26c-0.01,1.37,0.38,1.92,1.79,1.89
			c2.61-0.07,5.22-0.06,7.83,0.01c1.24,0.03,1.52-0.48,1.5-1.62C137.91,133.09,137.94,129.52,137.94,125.95z"/>
		<path class="st16" d="M187.99,98.86c1.24-2.05,2.42-3.89,3.48-5.79c0.54-0.95,1.2-1.35,2.3-1.33c3.73,0.05,7.47,0.04,11.2,0.01
			c1.2-0.01,2.26,0.23,2.22,1.64c-0.04,1.39-1.15,1.6-2.32,1.59c-3.04-0.01-6.08,0.05-9.12-0.03c-1.2-0.03-1.94,0.28-2.53,1.4
			c-1.12,2.12-2.4,4.15-3.67,6.19c-1.05,1.68-2.29,1.67-3.26-0.06c-2.44-4.37-4.83-8.77-7.39-13.42c-1.27,2.19-2.43,4.2-3.59,6.21
			c-0.61,1.06-1.19,2.14-1.83,3.19c-0.99,1.64-2.24,1.65-3.3,0.02c-1.01-1.56-1.98-3.15-3.14-5c-0.84,1.35-1.62,2.52-2.3,3.74
			c-0.53,0.95-1.25,1.33-2.34,1.31c-2.72-0.05-5.44-0.03-8.16-0.01c-1.14,0.01-2.1-0.25-2.08-1.61c0.02-1.34,0.98-1.62,2.1-1.62
			c2.08,0.01,4.17-0.09,6.24,0.04c1.26,0.07,1.95-0.37,2.51-1.44c0.68-1.32,1.49-2.59,2.29-3.85c1.05-1.67,2.23-1.7,3.31-0.07
			c1.03,1.55,2,3.14,3.14,4.95c0.89-1.51,1.69-2.86,2.48-4.21c1.04-1.8,2.02-3.63,3.09-5.42c0.95-1.59,2.26-1.58,3.17,0.04
			C182.99,89.74,185.41,94.18,187.99,98.86z"/>
		<path class="st16" d="M206.67,62.74c0-1.53-0.02-2.8,0.01-4.07c0.02-1.05,0.51-1.79,1.62-1.78c1.11,0.01,1.58,0.76,1.58,1.81
			c0.01,1.27,0,2.54,0,4.05c1.4,0,2.66,0,3.92,0c1.09,0,1.94,0.39,1.92,1.62c-0.02,1.24-0.88,1.58-1.97,1.57
			c-1.22-0.01-2.43,0-3.87,0c0,1.4,0,2.66,0,3.92c0,1.11-0.42,1.96-1.62,1.95c-1.19-0.01-1.62-0.85-1.61-1.96
			c0.01-1.22,0-2.44,0-3.9c-1.36,0-2.62,0-3.87,0c-1.09,0-1.94-0.36-1.95-1.6c-0.01-1.25,0.86-1.6,1.94-1.61
			C203.99,62.73,205.22,62.74,206.67,62.74z"/>
	</g>
</g>
<g id="Layer_9">
</g>
<g id="Layer_10">
</g>
<g id="Layer_11">
</g>
<g id="Layer_12">
</g>
<g id="Layer_13">
</g>
<g id="Layer_14">
</g>
<g id="Layer_15">
</g>
</svg>
