<?xml version="1.0" encoding="utf-8"?>
<!-- Generator: Adobe Illustrator 27.8.1, SVG Export Plug-In . SVG Version: 6.00 Build 0)  -->
<svg version="1.1" xmlns="http://www.w3.org/2000/svg" xmlns:xlink="http://www.w3.org/1999/xlink" x="0px" y="0px"
	 viewBox="0 0 350 230" style="enable-background:new 0 0 350 230;" xml:space="preserve">
<style type="text/css">
	.st0{stroke:#000000;stroke-miterlimit:10;}
	.st1{stroke:#ED1C24;stroke-miterlimit:10;}
	.st2{fill:#004FFA;}
	.st3{fill:#65FF00;}
	.st4{fill:#00FFAA;}
	.st5{fill:#FF0000;}
	.st6{fill:#003DFF;}
	.st7{fill:#BC00B3;}
	.st8{fill:#9E0000;}
	.st9{fill:#FFFFFF;}
	.st10{fill:#005477;}
	.st11{fill:#590028;}
	.st12{fill:#76DFFF;}
	.st13{fill:#013300;}
	.st14{fill:#FEFEFE;}
	.st15{fill:#750000;}
	.st16{fill:#965400;}
	.st17{fill:#FF00BD;}
	.st18{fill:#00FF48;}
	.st19{fill:#777400;}
	.st20{fill:#FF00DB;}
	.st21{fill:#00B4C9;}
	.st22{fill:#FF1100;}
	.st23{fill:#00FFD1;}
	.st24{fill:#FF00FF;}
	.st25{fill:#DE1800;}
	.st26{fill:#00E1FF;}
</style>
<g id="Layer_1">
</g>
<g id="Layer_2">
</g>
<g id="Layer_3">
</g>
<g id="Layer_4">
</g>
<g id="Layer_5">
</g>
<g id="Layer_6">
</g>
<g id="Layer_7">
</g>
<g id="Layer_8">
</g>
<g id="Layer_9">
	<g>
		<path class="st17" d="M170.57,61.68c-1.92,1.24-3.95,2.47-5.85,3.86c-0.53,0.39-0.86,1.27-0.97,1.97
			c-0.08,0.53,0.29,1.16,0.58,1.69c0.95,1.73,2.76,3.47,2.7,5.14c-0.06,1.61-2.03,3.16-3.2,4.71c-1.82,2.39-3.67,4.75-5.52,7.11
			c-0.1,0.12-0.31,0.16-0.6,0.29c-2.08-2.53-3.97-5.08-3.33-8.72c1.01-5.8,1.91-11.63,2.86-17.44c1.03-6.3,5.78-8.28,11.14-9.15
			c2.28-0.37,4.79-0.06,7.07,0.49c4.55,1.09,8.05,3.49,8.81,8.62c0.95,6.35,2.03,12.68,2.9,19.05c0.15,1.11-0.21,2.53-0.84,3.46
			c-11.68,17.14-23.39,34.27-35.21,51.31c-2.26,3.25-5,6.17-7.61,9.17c-0.96,1.11-2.17,2-3.53,3.22c-3.27-3.57-6.45-6.86-9.35-10.37
			c-0.57-0.69-0.46-2.47,0.02-3.39c1.78-3.44,3.56-6.94,5.86-10.03c11.06-14.87,22.3-29.61,33.47-44.39
			c2.29-3.03,4.6-6.04,6.91-9.05c1.19-1.55,1.2-2.86-0.62-3.96C174.32,64.07,172.41,62.83,170.57,61.68z"/>
		<path class="st18" d="M219.69,127.21c-2.05-1.13-9.03,15.09-11.7,12.42s-32.48-35.31-32.48-35.31L185,93.04
			C184.8,95.29,221.74,128.34,219.69,127.21z"/>
	</g>
</g>
<g id="Layer_10">
</g>
<g id="Layer_11">
</g>
<g id="Layer_12">
</g>
<g id="Layer_13">
</g>
<g id="Layer_14">
</g>
<g id="Layer_15">
</g>
</svg>
