<?xml version="1.0" encoding="utf-8"?>
<!-- Generator: Adobe Illustrator 27.8.1, SVG Export Plug-In . SVG Version: 6.00 Build 0)  -->
<svg version="1.1" xmlns="http://www.w3.org/2000/svg" xmlns:xlink="http://www.w3.org/1999/xlink" x="0px" y="0px"
	 viewBox="0 0 350 230" style="enable-background:new 0 0 350 230;" xml:space="preserve">
<style type="text/css">
	.st0{fill:#004963;}
	.st1{fill:#FF0000;}
	.st2{fill:#3300A3;}
	.st3{fill:#089E00;}
	.st4{fill:#000A82;}
	.st5{fill:#1D0042;}
	.st6{fill:#594A02;}
	.st7{fill:#013A4C;}
	.st8{fill:#64E2FF;}
	.st9{fill:#BA00FF;}
	.st10{fill:#009CA0;}
	.st11{fill:#E097FF;}
	.st12{fill:#064F00;}
	.st13{fill:#0096C4;}
	.st14{fill:#003027;}
	.st15{fill:#557EFF;}
	.st16{fill:#66F4FF;}
	.st17{fill:#FC7E00;}
	.st18{fill:#27005E;}
	.st19{fill:#0060F9;}
	.st20{fill:#9FC6FF;}
	.st21{fill:#D7E7FF;}
	.st22{fill:#6600C9;}
	.st23{fill:#4D0089;}
	.st24{fill:#006D70;}
	.st25{fill:#00CCCC;}
	.st26{fill:#610089;}
	.st27{fill:#32004C;}
	.st28{fill:#00FF5B;}
	.st29{fill:#009632;}
	.st30{fill:#004916;}
</style>
<g id="Layer_1">
	<g>
		<path class="st0" d="M217.29,130.98c-1.51,0-2.91-0.75-3.75-2.01l-11.29-16.93c-0.67-1-0.9-2.2-0.67-3.38
			c0.24-1.18,0.92-2.19,1.92-2.86c0.74-0.5,1.6-0.76,2.49-0.76c1.51,0,2.91,0.75,3.75,2l11.29,16.93c0.67,1,0.9,2.2,0.67,3.38
			c-0.24,1.18-0.92,2.2-1.92,2.86C219.04,130.72,218.18,130.98,217.29,130.98z"/>
		<path class="st1" d="M127.27,130.98c-0.89,0-1.75-0.26-2.49-0.76c-2.06-1.38-2.63-4.18-1.25-6.24l22.5-33.76
			c0.84-1.25,2.24-2,3.74-2c1.51,0,2.91,0.75,3.74,2l17.72,26.59c0.32,0.48,0.85,0.78,1.42,0.8c0.03,0,0.05,0,0.08,0
			c0.55,0,1.06-0.25,1.41-0.68l33.82-42.28c0.61-0.76,0.5-1.87-0.24-2.5l-5.54-4.7l25.04-8.94l-4.77,26.16l-5.1-4.37
			c-0.33-0.28-0.74-0.43-1.16-0.43c-0.06,0-0.12,0-0.17,0.01c-0.48,0.05-0.93,0.29-1.23,0.67l-38.98,48.73
			c-0.86,1.07-2.15,1.69-3.53,1.69l-0.19,0c-1.42-0.06-2.75-0.81-3.54-2l-17.26-25.89c-0.33-0.5-0.9-0.8-1.5-0.8
			c-0.6,0-1.16,0.3-1.5,0.8l-17.26,25.89C130.18,130.23,128.78,130.98,127.27,130.98z"/>
	</g>
</g>
<g id="Layer_2">
</g>
<g id="Layer_3">
</g>
<g id="Layer_4">
</g>
<g id="Layer_5">
</g>
<g id="Layer_6">
</g>
<g id="Layer_7">
</g>
<g id="Layer_8">
</g>
<g id="Layer_9">
</g>
<g id="Layer_10">
</g>
<g id="Layer_11">
</g>
<g id="Layer_12">
</g>
<g id="Layer_13">
</g>
<g id="Layer_14">
</g>
<g id="Layer_15">
</g>
</svg>
