<?xml version="1.0" encoding="utf-8"?>
<!-- Generator: Adobe Illustrator 27.8.1, SVG Export Plug-In . SVG Version: 6.00 Build 0)  -->
<svg version="1.1" xmlns="http://www.w3.org/2000/svg" xmlns:xlink="http://www.w3.org/1999/xlink" x="0px" y="0px"
	 viewBox="0 0 350 230" style="enable-background:new 0 0 350 230;" xml:space="preserve">
<style type="text/css">
	.st0{fill:#004963;}
	.st1{fill:#FF0000;}
	.st2{fill:#3300A3;}
	.st3{fill:#089E00;}
	.st4{fill:#000A82;}
	.st5{fill:#1D0042;}
	.st6{fill:#594A02;}
	.st7{fill:#013A4C;}
	.st8{fill:#64E2FF;}
	.st9{fill:#BA00FF;}
	.st10{fill:#009CA0;}
	.st11{fill:#E097FF;}
	.st12{fill:#064F00;}
	.st13{fill:#0096C4;}
	.st14{fill:#003027;}
	.st15{fill:#557EFF;}
	.st16{fill:#66F4FF;}
	.st17{fill:#FC7E00;}
	.st18{fill:#27005E;}
	.st19{fill:#0060F9;}
	.st20{fill:#9FC6FF;}
	.st21{fill:#D7E7FF;}
	.st22{fill:#6600C9;}
	.st23{fill:#4D0089;}
	.st24{fill:#006D70;}
	.st25{fill:#00CCCC;}
	.st26{fill:#610089;}
	.st27{fill:#32004C;}
	.st28{fill:#00FF5B;}
	.st29{fill:#009632;}
	.st30{fill:#004916;}
</style>
<g id="Layer_1">
</g>
<g id="Layer_2">
</g>
<g id="Layer_3">
</g>
<g id="Layer_4">
</g>
<g id="Layer_5">
</g>
<g id="Layer_6">
</g>
<g id="Layer_7">
</g>
<g id="Layer_8">
</g>
<g id="Layer_9">
</g>
<g id="Layer_10">
</g>
<g id="Layer_11">
</g>
<g id="Layer_12">
	<g>
		<path class="st22" d="M202.52,61.13c-0.48-0.36-0.96-0.72-1.46-1.06c-0.47-0.33-0.96-0.66-1.45-0.97
			c-0.02-0.02-0.05-0.04-0.09-0.06c-0.3-0.19-0.6-0.38-0.91-0.55c-0.26-0.17-0.52-0.33-0.79-0.48c-0.38-0.22-0.76-0.44-1.15-0.64
			c-0.26-0.14-0.52-0.28-0.77-0.41c-0.06-0.04-0.12-0.07-0.18-0.09c-0.26-0.14-0.53-0.27-0.8-0.39c-0.07-0.04-0.14-0.08-0.21-0.11
			c-0.29-0.15-0.58-0.28-0.87-0.4c-0.19-0.1-0.37-0.18-0.56-0.26c-0.04-0.02-0.09-0.04-0.13-0.05c-0.29-0.13-0.58-0.25-0.88-0.37
			c-0.19-0.1-0.39-0.17-0.59-0.24c-0.11-0.04-0.23-0.09-0.34-0.13c-0.08-0.04-0.17-0.08-0.26-0.1c-0.14-0.06-0.27-0.11-0.41-0.15
			c-0.07-0.04-0.15-0.07-0.23-0.08c-0.12-0.06-0.24-0.1-0.36-0.14c-0.15-0.05-0.3-0.1-0.44-0.14c-0.08-0.03-0.15-0.06-0.23-0.08
			c-0.1-0.04-0.21-0.08-0.32-0.11c-0.15-0.06-0.31-0.1-0.47-0.15c-0.09-0.03-0.18-0.06-0.27-0.08c-0.43-0.14-0.87-0.27-1.31-0.39
			c-0.48-0.13-0.96-0.25-1.45-0.37c-0.04-0.01-0.08-0.02-0.13-0.03l-11.41,16.42l0.78,1.33l23.35,39.88h0.01l1.13,1.94
			c2.5,3.99,3.48,8.81,2.68,13.5h-0.01c-0.01,0.12-0.03,0.24-0.06,0.35c-0.02,0.16-0.05,0.32-0.09,0.47
			c-0.06,0.28-0.12,0.55-0.2,0.82c-0.14,0.55-0.3,1.09-0.5,1.63c-0.16,0.46-0.35,0.91-0.55,1.36c-0.06,0.14-0.12,0.27-0.18,0.4
			c-0.1,0.21-0.2,0.41-0.31,0.62c-0.13,0.26-0.27,0.52-0.42,0.77c-0.65,1.13-1.39,2.16-2.22,3.1c-0.27,0.31-0.55,0.61-0.85,0.9
			c-0.13,0.14-0.27,0.27-0.4,0.38c-0.36,0.35-0.72,0.67-1.1,0.96c-0.74,0.61-1.51,1.14-2.32,1.62c7.38-3.11,13.99-8.17,18.96-14.97
			v-0.01c0.03-0.03,0.05-0.06,0.07-0.09c0.23-0.3,0.44-0.61,0.66-0.92c0.07-0.1,0.15-0.21,0.22-0.32c0.28-0.41,0.55-0.82,0.82-1.24
			c0.34-0.54,0.68-1.09,1-1.65C226.18,100.17,220.67,74.79,202.52,61.13z M132.29,101.38c-1.73-2.99-2.56-6.26-2.58-9.48
			c-0.06,0.47-0.11,0.95-0.16,1.42c-0.04,0.47-0.08,0.95-0.11,1.42c-0.03,0.48-0.05,0.95-0.07,1.43c-0.01,0.45-0.02,0.91-0.02,1.36
			c0,0.44,0.01,0.88,0.02,1.32c0,0.04,0,0.07,0.01,0.11c0,0.29,0.01,0.58,0.03,0.87c0.02,0.37,0.04,0.74,0.07,1.1
			c0,0.06,0,0.11,0.01,0.16c0.03,0.34,0.06,0.68,0.09,1.01c0.01,0.14,0.02,0.27,0.04,0.4c0.01,0.08,0.02,0.16,0.03,0.25
			c0.05,0.43,0.1,0.85,0.17,1.27c0.04,0.28,0.08,0.56,0.13,0.83c0.06,0.35,0.12,0.7,0.18,1.04c0,0.02,0.01,0.05,0.01,0.07
			c0.02,0.09,0.03,0.19,0.06,0.28c0.05,0.32,0.12,0.64,0.19,0.96c0.02,0.08,0.03,0.15,0.05,0.23c0.03,0.12,0.05,0.24,0.09,0.36
			l5.24,0.44l0.93-1.63C134.97,105.18,133.47,103.43,132.29,101.38z M201.99,126.17c-0.01,0.12-0.03,0.24-0.06,0.35
			c0.03-0.12,0.05-0.23,0.07-0.35H201.99z"/>
		<path class="st23" d="M202.52,61.13c-0.48-0.36-0.96-0.72-1.46-1.06c-0.47-0.33-0.96-0.66-1.45-0.97
			c-0.02-0.02-0.05-0.04-0.09-0.06c-0.3-0.19-0.6-0.38-0.91-0.55c-0.26-0.17-0.52-0.33-0.79-0.48c-0.38-0.22-0.76-0.44-1.15-0.64
			c-0.26-0.14-0.52-0.28-0.77-0.41c-0.06-0.04-0.12-0.07-0.18-0.09c-0.13-0.08-0.26-0.14-0.39-0.2c-0.14-0.07-0.27-0.13-0.41-0.19
			c-0.07-0.04-0.14-0.08-0.21-0.11c-0.29-0.15-0.58-0.28-0.87-0.4c-0.23-0.11-0.46-0.21-0.69-0.31c-0.29-0.13-0.58-0.25-0.88-0.37
			c-0.19-0.1-0.39-0.17-0.59-0.24c-0.11-0.04-0.23-0.09-0.34-0.13c-0.08-0.04-0.17-0.08-0.26-0.1c-0.14-0.06-0.27-0.11-0.41-0.15
			c-0.07-0.04-0.15-0.07-0.23-0.08c-0.27-0.1-0.53-0.19-0.8-0.28c-0.08-0.03-0.15-0.06-0.23-0.08c-0.35-0.12-0.71-0.23-1.06-0.34
			l-3,4.33l0.94,1.61l24.33,41.54c2.11,3.37,3.38,8.43,3.38,13.34c0,3.62-0.69,7.14-2.25,9.86c0.03-0.03,0.05-0.06,0.07-0.09
			c0.23-0.3,0.44-0.61,0.66-0.92c0.07-0.1,0.15-0.21,0.22-0.32c0.28-0.41,0.55-0.82,0.82-1.24c0.34-0.54,0.68-1.09,1-1.65
			C226.18,100.17,220.67,74.79,202.52,61.13z M201.06,60.07c-0.47-0.33-0.96-0.66-1.45-0.97c-0.02-0.02-0.05-0.04-0.09-0.06
			c-0.3-0.19-0.6-0.38-0.91-0.55c-0.26-0.17-0.52-0.33-0.79-0.48c-0.38-0.22-0.76-0.44-1.15-0.64c-0.26-0.14-0.52-0.28-0.77-0.41
			c-0.06-0.04-0.12-0.07-0.18-0.09c-0.13-0.08-0.26-0.14-0.39-0.2c-0.2-0.11-0.41-0.21-0.62-0.3c-0.29-0.15-0.58-0.28-0.87-0.4
			c-0.19-0.1-0.37-0.18-0.56-0.26c-0.04-0.02-0.09-0.04-0.13-0.05c-0.29-0.13-0.58-0.25-0.88-0.37c-0.19-0.1-0.39-0.17-0.59-0.24
			c-0.11-0.04-0.23-0.09-0.34-0.13c-0.08-0.04-0.17-0.08-0.26-0.1c-0.14-0.06-0.27-0.11-0.41-0.15c-0.07-0.04-0.15-0.07-0.23-0.08
			c-0.12-0.06-0.24-0.1-0.36-0.14c-0.33-0.12-0.66-0.23-0.99-0.33c-0.15-0.06-0.31-0.1-0.47-0.15c-0.09-0.03-0.18-0.06-0.27-0.08
			c-0.43-0.14-0.87-0.27-1.31-0.39c-0.48-0.13-0.96-0.25-1.45-0.37c-0.04-0.01-0.08-0.02-0.13-0.03c-2.15-0.51-4.36-0.86-6.62-1.05
			c0.4,0.04,0.81,0.08,1.21,0.13c-3.7,0.01-7.78,1.63-11.33,4.01s-6.59,5.52-8.21,8.57L136.7,106.6c-1.73-1.42-3.23-3.17-4.41-5.22
			c-1.73-2.99-2.56-6.26-2.58-9.48c-0.06,0.47-0.11,0.95-0.16,1.42c-0.04,0.47-0.08,0.95-0.11,1.42c-0.03,0.48-0.05,0.95-0.07,1.43
			c-0.01,0.45-0.02,0.91-0.02,1.36c0,0.44,0.01,0.88,0.02,1.32c0,0.04,0,0.07,0.01,0.11v0.28c0.01,0.2,0.02,0.39,0.03,0.59
			c0.02,0.37,0.04,0.74,0.07,1.1c0,0.06,0,0.11,0.01,0.16c0.03,0.34,0.06,0.68,0.09,1.01c0.01,0.14,0.02,0.27,0.04,0.4
			c0.01,0.08,0.02,0.16,0.03,0.25c0.05,0.43,0.1,0.85,0.17,1.27c0.04,0.28,0.08,0.56,0.13,0.83c0.06,0.35,0.12,0.7,0.18,1.04
			c0,0.02,0.01,0.05,0.01,0.07c0.02,0.09,0.03,0.19,0.06,0.28c0.05,0.32,0.12,0.64,0.19,0.96c0.02,0.08,0.03,0.15,0.05,0.23
			c0.03,0.12,0.05,0.24,0.09,0.36c0.1,0.43,0.2,0.85,0.31,1.27c0.14,0.55,0.29,1.09,0.45,1.63l19.92,1.67l0.76-1.34l22.86-40.17
			l1.11-1.95h0.01c2.2-4.16,5.89-7.42,10.34-9.07c2.1-0.78,4.36-1.21,6.73-1.21c3.45,0,6.69,0.92,9.5,2.51
			C202.04,60.77,201.56,60.41,201.06,60.07z M199.32,112.67l-1.13-1.94h-0.01l-46.21,0.29l-2.25,0.01
			c-0.22,0.01-0.45,0.01-0.67,0.01c-4.47,0-8.87-1.55-12.35-4.44c-1.73-1.42-3.23-3.17-4.41-5.22c-1.73-2.99-2.56-6.26-2.58-9.48
			c-0.06,0.47-0.11,0.95-0.16,1.42c-0.04,0.47-0.08,0.95-0.11,1.42c-0.03,0.48-0.05,0.95-0.07,1.43c-0.01,0.45-0.02,0.91-0.02,1.36
			c0,0.44,0.01,0.88,0.02,1.32c0,0.13,0,0.26,0.01,0.39c0.01,0.2,0.02,0.39,0.03,0.59c0.02,0.37,0.04,0.74,0.07,1.1
			c0,0.06,0,0.11,0.01,0.16c0.03,0.34,0.06,0.68,0.09,1.01c0.01,0.14,0.02,0.27,0.04,0.4c0.01,0.08,0.02,0.16,0.03,0.25
			c0.05,0.43,0.1,0.85,0.17,1.27c0.04,0.28,0.08,0.56,0.13,0.83c0.06,0.35,0.12,0.7,0.18,1.04c0,0.02,0.01,0.05,0.01,0.07
			c0.02,0.09,0.03,0.19,0.06,0.28c0.05,0.32,0.12,0.64,0.19,0.96c0.02,0.08,0.03,0.15,0.05,0.23c0.03,0.12,0.05,0.24,0.09,0.36
			c0.1,0.43,0.2,0.85,0.31,1.27c0.14,0.55,0.29,1.09,0.45,1.63c0.52,1.74,1.15,3.46,1.9,5.15c3.72,6.39,13.76,10.87,20.67,10.62
			v0.01l48.13-0.3H202C202.8,121.48,201.82,116.66,199.32,112.67z"/>
	</g>
</g>
<g id="Layer_13">
</g>
<g id="Layer_14">
</g>
<g id="Layer_15">
</g>
</svg>
