<?xml version="1.0" encoding="utf-8"?>
<!-- Generator: Adobe Illustrator 27.8.1, SVG Export Plug-In . SVG Version: 6.00 Build 0)  -->
<svg version="1.1" xmlns="http://www.w3.org/2000/svg" xmlns:xlink="http://www.w3.org/1999/xlink" x="0px" y="0px"
	 viewBox="0 0 350 230" style="enable-background:new 0 0 350 230;" xml:space="preserve">
<style type="text/css">
	.st0{fill:#004963;}
	.st1{fill:#FF0000;}
	.st2{fill:#3300A3;}
	.st3{fill:#089E00;}
	.st4{fill:#000A82;}
	.st5{fill:#1D0042;}
	.st6{fill:#594A02;}
	.st7{fill:#013A4C;}
	.st8{fill:#64E2FF;}
	.st9{fill:#BA00FF;}
	.st10{fill:#009CA0;}
	.st11{fill:#E097FF;}
	.st12{fill:#064F00;}
	.st13{fill:#0096C4;}
	.st14{fill:#003027;}
	.st15{fill:#557EFF;}
	.st16{fill:#66F4FF;}
	.st17{fill:#FC7E00;}
	.st18{fill:#27005E;}
	.st19{fill:#0060F9;}
	.st20{fill:#9FC6FF;}
	.st21{fill:#D7E7FF;}
	.st22{fill:#6600C9;}
	.st23{fill:#4D0089;}
	.st24{fill:#006D70;}
	.st25{fill:#00CCCC;}
	.st26{fill:#610089;}
	.st27{fill:#32004C;}
	.st28{fill:#00FF5B;}
	.st29{fill:#009632;}
	.st30{fill:#004916;}
</style>
<g id="Layer_1">
</g>
<g id="Layer_2">
</g>
<g id="Layer_3">
</g>
<g id="Layer_4">
</g>
<g id="Layer_5">
</g>
<g id="Layer_6">
</g>
<g id="Layer_7">
</g>
<g id="Layer_8">
</g>
<g id="Layer_9">
</g>
<g id="Layer_10">
</g>
<g id="Layer_11">
</g>
<g id="Layer_12">
</g>
<g id="Layer_13">
</g>
<g id="Layer_14">
</g>
<g id="Layer_15">
	<g>
		<path class="st28" d="M81.23,68.89c1.23-0.14,2.46-0.24,3.72-0.28c0.62-0.02,1.25-0.03,1.86-0.02
			c16.97,0.12,25.29,20.78,13.29,32.78L86.47,115c0,0-0.99-1-10.11-10.11c-9.11-9.11-23.68-30.36,1.89-35.57
			c0.05-0.01,0.09-0.01,0.14-0.02L81.23,68.89z"/>
		<path class="st29" d="M78.24,69.31c-25.57,5.21-11,26.46-1.89,35.57C85.47,114,86.47,115,86.47,115l13.64,13.64
			c11.99,11.99,3.7,32.64-13.25,32.78c-0.13,0-0.26,0-0.38,0c-25.87,0-46.8-21.16-46.41-47.12C40.39,91.95,56.81,73.19,78.24,69.31z
			"/>
		<path class="st30" d="M46.47,91.55L46.47,91.55c-0.95,30.08,37.18,60.26,57.83,57.99c-2.71,6.65-9,11.82-17.45,11.88
			c-0.13,0-0.26,0-0.38,0c-25.87,0-46.8-21.17-46.41-47.12C40.18,106.03,42.51,98.26,46.47,91.55z"/>
	</g>
</g>
</svg>
