<?xml version="1.0" encoding="utf-8"?>
<!-- Generator: Adobe Illustrator 27.8.1, SVG Export Plug-In . SVG Version: 6.00 Build 0)  -->
<svg version="1.1" xmlns="http://www.w3.org/2000/svg" xmlns:xlink="http://www.w3.org/1999/xlink" x="0px" y="0px"
	 viewBox="0 0 350 230" style="enable-background:new 0 0 350 230;" xml:space="preserve">
<style type="text/css">
	.st0{fill:#004963;}
	.st1{fill:#FF0000;}
	.st2{fill:#3300A3;}
	.st3{fill:#089E00;}
	.st4{fill:#000A82;}
	.st5{fill:#1D0042;}
	.st6{fill:#594A02;}
	.st7{fill:#013A4C;}
	.st8{fill:#64E2FF;}
	.st9{fill:#BA00FF;}
	.st10{fill:#009CA0;}
	.st11{fill:#E097FF;}
	.st12{fill:#064F00;}
	.st13{fill:#0096C4;}
	.st14{fill:#003027;}
	.st15{fill:#557EFF;}
	.st16{fill:#66F4FF;}
	.st17{fill:#FC7E00;}
	.st18{fill:#27005E;}
	.st19{fill:#0060F9;}
	.st20{fill:#9FC6FF;}
	.st21{fill:#D7E7FF;}
	.st22{fill:#6600C9;}
	.st23{fill:#4D0089;}
	.st24{fill:#006D70;}
	.st25{fill:#00CCCC;}
	.st26{fill:#610089;}
	.st27{fill:#32004C;}
	.st28{fill:#00FF5B;}
	.st29{fill:#009632;}
	.st30{fill:#004916;}
</style>
<g id="Layer_1">
</g>
<g id="Layer_2">
	<g>
		<path class="st2" d="M190.63,125.72c-2.76,0-5-2.24-5-5V99.67c0-2.76,2.24-5,5-5s5,2.24,5,5v21.06
			C195.63,123.48,193.38,125.72,190.63,125.72z M209.38,125.72c-2.76,0-5-2.24-5-5V69.44c0-2.76,2.24-5,5-5s5,2.24,5,5v51.28
			C214.38,123.48,212.13,125.72,209.38,125.72z M173.01,125.72c-2.76,0-5-2.24-5-5v-6.17c0-2.76,2.24-5,5-5s5,2.24,5,5v6.17
			C178.01,123.48,175.77,125.72,173.01,125.72z"/>
		<path class="st3" d="M140.63,125.72c-2.76,0-5-2.24-5-5V71c0-0.17,0.01-0.33,0.02-0.5c0-0.01,0.06-0.43,0.07-0.49l0.12-0.46
			l0.17-0.46l0.21-0.44l0.25-0.42c0.03-0.05,0.25-0.34,0.25-0.34c0.25-0.31,0.48-0.54,0.74-0.75c0.01-0.01,0.15-0.11,0.16-0.11
			c0.12-0.09,0.18-0.14,0.23-0.18l0.41-0.25l0.45-0.21l0.46-0.17c0,0,0.41-0.11,0.47-0.12l0.49-0.07c0.14-0.01,0.28-0.02,0.42-0.02
			c0.02,0,0.13,0,0.15,0c0.11,0,0.26,0.01,0.4,0.02l0.5,0.07c0.05,0.01,0.47,0.12,0.47,0.12l0.45,0.16l0.45,0.21l0.43,0.25
			c0.06,0.04,0.11,0.08,0.17,0.12l0.17,0.13c0.18,0.14,0.31,0.25,0.42,0.37l19.91,19.91c0.39,0.39,0.9,0.59,1.41,0.59
			s1.02-0.19,1.41-0.59l19.91-19.91c0.94-0.94,2.2-1.46,3.54-1.46c1.33,0,2.59,0.52,3.54,1.46c0.94,0.94,1.46,2.2,1.46,3.54
			c0,1.34-0.52,2.59-1.46,3.54L169.02,99.4c-0.94,0.94-2.2,1.46-3.54,1.46s-2.59-0.52-3.54-1.46l-12.91-12.91
			c-0.38-0.38-0.89-0.59-1.42-0.59c-0.26,0-0.52,0.05-0.77,0.15c-0.75,0.31-1.23,1.04-1.23,1.85v32.82
			C145.63,123.48,143.38,125.72,140.63,125.72z"/>
	</g>
</g>
<g id="Layer_3">
</g>
<g id="Layer_4">
</g>
<g id="Layer_5">
</g>
<g id="Layer_6">
</g>
<g id="Layer_7">
</g>
<g id="Layer_8">
</g>
<g id="Layer_9">
</g>
<g id="Layer_10">
</g>
<g id="Layer_11">
</g>
<g id="Layer_12">
</g>
<g id="Layer_13">
</g>
<g id="Layer_14">
</g>
<g id="Layer_15">
</g>
</svg>
