<?xml version="1.0" encoding="utf-8"?>
<!-- Generator: Adobe Illustrator 27.8.1, SVG Export Plug-In . SVG Version: 6.00 Build 0)  -->
<svg version="1.1" xmlns="http://www.w3.org/2000/svg" xmlns:xlink="http://www.w3.org/1999/xlink" x="0px" y="0px"
	 viewBox="0 0 350 230" style="enable-background:new 0 0 350 230;" xml:space="preserve">
<style type="text/css">
	.st0{fill:#004963;}
	.st1{fill:#FF0000;}
	.st2{fill:#3300A3;}
	.st3{fill:#089E00;}
	.st4{fill:#000A82;}
	.st5{fill:#1D0042;}
	.st6{fill:#594A02;}
	.st7{fill:#013A4C;}
	.st8{fill:#64E2FF;}
	.st9{fill:#BA00FF;}
	.st10{fill:#009CA0;}
	.st11{fill:#E097FF;}
	.st12{fill:#064F00;}
	.st13{fill:#0096C4;}
	.st14{fill:#003027;}
	.st15{fill:#557EFF;}
	.st16{fill:#66F4FF;}
	.st17{fill:#FC7E00;}
	.st18{fill:#27005E;}
	.st19{fill:#0060F9;}
	.st20{fill:#9FC6FF;}
	.st21{fill:#D7E7FF;}
	.st22{fill:#6600C9;}
	.st23{fill:#4D0089;}
	.st24{fill:#006D70;}
	.st25{fill:#00CCCC;}
	.st26{fill:#610089;}
	.st27{fill:#32004C;}
	.st28{fill:#00FF5B;}
	.st29{fill:#009632;}
	.st30{fill:#004916;}
</style>
<g id="Layer_1">
</g>
<g id="Layer_2">
</g>
<g id="Layer_3">
	<g>
		<path class="st1" d="M152.35,133.97H129.7c-2.5,0-4.53-2.03-4.53-4.53c0-2.5,2.03-4.53,4.53-4.53h20.78l44.16-43.98
			c1.77-1.77,4.64-1.76,6.41,0.01c1.76,1.77,1.76,4.64-0.01,6.41l-45.49,45.3C154.7,133.49,153.55,133.97,152.35,133.97z"/>
		<path class="st4" d="M197.84,111.32c-2.5,0-4.53-2.03-4.53-4.53c0-2.5,2.03-4.53,4.53-4.53c9.89,0,17.93-8.13,17.93-18.12
			s-8.05-18.12-17.93-18.12h-9.45l-21.32,21.32c-1.77,1.77-4.64,1.77-6.41,0l-14.92-14.92v34.36c0,2.5-2.03,4.53-4.53,4.53
			c-2.5,0-4.53-2.03-4.53-4.53v-45.3c0-1.83,1.1-3.48,2.8-4.19c1.69-0.7,3.64-0.31,4.94,0.98l19.45,19.45l19.45-19.45
			c0.85-0.85,2-1.33,3.2-1.33h11.32c14.88,0,26.99,12.19,26.99,27.18C224.83,99.12,212.72,111.32,197.84,111.32z"/>
	</g>
</g>
<g id="Layer_4">
</g>
<g id="Layer_5">
</g>
<g id="Layer_6">
</g>
<g id="Layer_7">
</g>
<g id="Layer_8">
</g>
<g id="Layer_9">
</g>
<g id="Layer_10">
</g>
<g id="Layer_11">
</g>
<g id="Layer_12">
</g>
<g id="Layer_13">
</g>
<g id="Layer_14">
</g>
<g id="Layer_15">
</g>
</svg>
