<?xml version="1.0" encoding="utf-8"?>
<!-- Generator: Adobe Illustrator 27.8.1, SVG Export Plug-In . SVG Version: 6.00 Build 0)  -->
<svg version="1.1" xmlns="http://www.w3.org/2000/svg" xmlns:xlink="http://www.w3.org/1999/xlink" x="0px" y="0px"
	 viewBox="0 0 350 230" style="enable-background:new 0 0 350 230;" xml:space="preserve">
<style type="text/css">
	.st0{fill:#004963;}
	.st1{fill:#FF0000;}
	.st2{fill:#3300A3;}
	.st3{fill:#089E00;}
	.st4{fill:#000A82;}
	.st5{fill:#1D0042;}
	.st6{fill:#594A02;}
	.st7{fill:#013A4C;}
	.st8{fill:#64E2FF;}
	.st9{fill:#BA00FF;}
	.st10{fill:#009CA0;}
	.st11{fill:#E097FF;}
	.st12{fill:#064F00;}
	.st13{fill:#0096C4;}
	.st14{fill:#003027;}
	.st15{fill:#557EFF;}
	.st16{fill:#66F4FF;}
	.st17{fill:#FC7E00;}
	.st18{fill:#27005E;}
	.st19{fill:#0060F9;}
	.st20{fill:#9FC6FF;}
	.st21{fill:#D7E7FF;}
	.st22{fill:#6600C9;}
	.st23{fill:#4D0089;}
	.st24{fill:#006D70;}
	.st25{fill:#00CCCC;}
	.st26{fill:#610089;}
	.st27{fill:#32004C;}
	.st28{fill:#00FF5B;}
	.st29{fill:#009632;}
	.st30{fill:#004916;}
</style>
<g id="Layer_1">
</g>
<g id="Layer_2">
</g>
<g id="Layer_3">
</g>
<g id="Layer_4">
</g>
<g id="Layer_5">
	<g>
		<path class="st7" d="M222.29,71.25l-6.39,15.22l-2.76-3.25c-7.94,8.79-31.68,33.04-55.75,37c-29.5,4.85-23.55-19.91-1.21-36.43
			c0,0-21.37,28.41-3.89,28.41c16.62,0,38.07-11.19,58.29-32.01l-2.9-3.41L222.29,71.25z"/>
		<path class="st8" d="M172.6,58.85c16.88-4.72,32.96-1.32,40.38,9.99c0.68,1.04,1.27,2.12,1.78,3.24l-8.36,3.17
			c-0.57-1.92-1.41-3.74-2.52-5.44C198.25,61.24,185.89,57.31,172.6,58.85z M213.1,86.11c-2.16,2.34-5.06,5.35-8.54,8.64
			c-3.61,8.43-10.57,16.71-20.12,22.98c-19.64,12.89-42.78,12.33-51.69-1.23c-3.3-5.03-4.6-11.64-3.53-18.15
			c-2.58,8.63-1.96,17.09,2.47,23.85c10.19,15.51,36.63,16.14,59.08,1.41c13.77-9.04,22.84-21.76,25.43-33.83L213.1,86.11z
			 M187.79,94.56V72.58l-9.85,4.75v22.29c-1.25,0.58-2.46,1.11-3.63,1.6V82.87l-9.79,4.75v17.09c-1.26,0.37-2.46,0.69-3.62,0.97
			V91.68l-9.32,3.54v12.22c-0.75,0.1-1.47,0.21-2.18,0.31c1.12,1.4,5.86,1.5,10,0.8c18.43-3.11,39.11-20.37,39.75-20.91
			C195.07,90.3,191.29,92.59,187.79,94.56z"/>
	</g>
</g>
<g id="Layer_6">
</g>
<g id="Layer_7">
</g>
<g id="Layer_8">
</g>
<g id="Layer_9">
</g>
<g id="Layer_10">
</g>
<g id="Layer_11">
</g>
<g id="Layer_12">
</g>
<g id="Layer_13">
</g>
<g id="Layer_14">
</g>
<g id="Layer_15">
</g>
</svg>
