<?xml version="1.0" encoding="utf-8"?>
<!-- Generator: Adobe Illustrator 27.8.1, SVG Export Plug-In . SVG Version: 6.00 Build 0)  -->
<svg version="1.1" xmlns="http://www.w3.org/2000/svg" xmlns:xlink="http://www.w3.org/1999/xlink" x="0px" y="0px"
	 viewBox="0 0 350 230" style="enable-background:new 0 0 350 230;" xml:space="preserve">
<style type="text/css">
	.st0{fill:#004963;}
	.st1{fill:#FF0000;}
	.st2{fill:#3300A3;}
	.st3{fill:#089E00;}
	.st4{fill:#000A82;}
	.st5{fill:#1D0042;}
	.st6{fill:#594A02;}
	.st7{fill:#013A4C;}
	.st8{fill:#64E2FF;}
	.st9{fill:#BA00FF;}
	.st10{fill:#009CA0;}
	.st11{fill:#E097FF;}
	.st12{fill:#064F00;}
	.st13{fill:#0096C4;}
	.st14{fill:#003027;}
	.st15{fill:#557EFF;}
	.st16{fill:#66F4FF;}
	.st17{fill:#FC7E00;}
	.st18{fill:#27005E;}
	.st19{fill:#0060F9;}
	.st20{fill:#9FC6FF;}
	.st21{fill:#D7E7FF;}
	.st22{fill:#6600C9;}
	.st23{fill:#4D0089;}
	.st24{fill:#006D70;}
	.st25{fill:#00CCCC;}
	.st26{fill:#610089;}
	.st27{fill:#32004C;}
	.st28{fill:#00FF5B;}
	.st29{fill:#009632;}
	.st30{fill:#004916;}
</style>
<g id="Layer_1">
</g>
<g id="Layer_2">
</g>
<g id="Layer_3">
</g>
<g id="Layer_4">
	<g>
		<path class="st5" d="M146.81,82.45c1.97,0.03,3.8,1.03,4.89,2.67l22.74,34.19l38.26-32.35l-13.23-19.84
			c-4.48-6.71-13.98-7.65-19.68-1.95l-4.13,4.13c-4.99,4.99-13.09,4.99-18.08,0l-4.13-4.13c-5.71-5.7-15.2-4.77-19.68,1.95
			l-26.49,39.74c-4.61,6.91-1.44,15.73,5.39,18.78l29.15-40.68C142.98,83.35,144.86,82.42,146.81,82.45z"/>
		<path class="st6" d="M243.11,71.48l-24.85,1.69c-1.28,0.09-1.98,1.52-1.27,2.59l13.89,20.67c0.71,1.06,2.31,0.95,2.88-0.2
			l10.96-22.36C245.28,72.73,244.39,71.4,243.11,71.48z M215.33,126.73c10.21,0,16.3-11.38,10.64-19.88l-6.57-9.85l-35.15,29.73
			H215.33z M126.65,126.73h38.32L146.52,99L126.65,126.73z"/>
	</g>
</g>
<g id="Layer_5">
</g>
<g id="Layer_6">
</g>
<g id="Layer_7">
</g>
<g id="Layer_8">
</g>
<g id="Layer_9">
</g>
<g id="Layer_10">
</g>
<g id="Layer_11">
</g>
<g id="Layer_12">
</g>
<g id="Layer_13">
</g>
<g id="Layer_14">
</g>
<g id="Layer_15">
</g>
</svg>
