<?xml version="1.0" encoding="utf-8"?>
<!-- Generator: Adobe Illustrator 27.8.1, SVG Export Plug-In . SVG Version: 6.00 Build 0)  -->
<svg version="1.1" xmlns="http://www.w3.org/2000/svg" xmlns:xlink="http://www.w3.org/1999/xlink" x="0px" y="0px"
	 viewBox="0 0 350 230" style="enable-background:new 0 0 350 230;" xml:space="preserve">
<style type="text/css">
	.st0{fill:#004963;}
	.st1{fill:#FF0000;}
	.st2{fill:#3300A3;}
	.st3{fill:#089E00;}
	.st4{fill:#000A82;}
	.st5{fill:#1D0042;}
	.st6{fill:#594A02;}
	.st7{fill:#013A4C;}
	.st8{fill:#64E2FF;}
	.st9{fill:#BA00FF;}
	.st10{fill:#009CA0;}
	.st11{fill:#E097FF;}
	.st12{fill:#064F00;}
	.st13{fill:#0096C4;}
	.st14{fill:#003027;}
	.st15{fill:#557EFF;}
	.st16{fill:#66F4FF;}
	.st17{fill:#FC7E00;}
	.st18{fill:#27005E;}
	.st19{fill:#0060F9;}
	.st20{fill:#9FC6FF;}
	.st21{fill:#D7E7FF;}
	.st22{fill:#6600C9;}
	.st23{fill:#4D0089;}
	.st24{fill:#006D70;}
	.st25{fill:#00CCCC;}
	.st26{fill:#610089;}
	.st27{fill:#32004C;}
	.st28{fill:#00FF5B;}
	.st29{fill:#009632;}
	.st30{fill:#004916;}
</style>
<g id="Layer_1">
</g>
<g id="Layer_2">
</g>
<g id="Layer_3">
</g>
<g id="Layer_4">
</g>
<g id="Layer_5">
</g>
<g id="Layer_6">
	<g>
		<path class="st9" d="M226.66,90.21c0,24.95-20.23,45.17-45.18,45.17c-4.29,0-8.45-0.6-12.39-1.72l3.14-8.81l4.02-11.27
			l11.37-31.93l-30.08,7.63l-11.86,3.02l-9.17,2.32c-0.14-1.45-0.21-2.92-0.21-4.41c0-24.95,20.23-45.18,45.18-45.18
			C206.43,45.03,226.66,65.26,226.66,90.21z"/>
		<path d="M123.34,102.38l57.37-14.56l-20.08,56.37L123.34,102.38z"/>
		<path class="st10" d="M206.83,115.56c-9.38,9.38-22.65,12.47-34.6,9.29l4.02-11.27l11.37-31.93l-30.08,7.63l-11.86,3.02
			c-0.57-9.86,2.91-19.92,10.45-27.45c14-14,36.7-14,50.7,0C220.84,78.85,220.84,101.56,206.83,115.56z M180.7,87.82l-43.77,29.81
			l-1.62,18.42L180.7,87.82z M180.7,87.82l-43.77,29.81l-1.62,18.42L180.7,87.82z M180.7,87.82l-43.77,29.81l-1.62,18.42l5.77-13.76
			L180.7,87.82z"/>
		<path class="st11" d="M198.42,107.15c-6.01,6.02-14.44,8.17-22.17,6.43l11.37-31.93l-30.08,7.63c0.22-5.82,2.55-11.57,7-16.02
			c9.35-9.36,24.53-9.36,33.88,0C207.78,82.62,207.78,97.79,198.42,107.15z"/>
	</g>
</g>
<g id="Layer_7">
</g>
<g id="Layer_8">
</g>
<g id="Layer_9">
</g>
<g id="Layer_10">
</g>
<g id="Layer_11">
</g>
<g id="Layer_12">
</g>
<g id="Layer_13">
</g>
<g id="Layer_14">
</g>
<g id="Layer_15">
</g>
</svg>
