<?xml version="1.0" encoding="utf-8"?>
<!-- Generator: Adobe Illustrator 27.8.1, SVG Export Plug-In . SVG Version: 6.00 Build 0)  -->
<svg version="1.1" xmlns="http://www.w3.org/2000/svg" xmlns:xlink="http://www.w3.org/1999/xlink" x="0px" y="0px"
	 viewBox="0 0 350 230" style="enable-background:new 0 0 350 230;" xml:space="preserve">
<style type="text/css">
	.st0{fill:#004963;}
	.st1{fill:#FF0000;}
	.st2{fill:#3300A3;}
	.st3{fill:#089E00;}
	.st4{fill:#000A82;}
	.st5{fill:#1D0042;}
	.st6{fill:#594A02;}
	.st7{fill:#013A4C;}
	.st8{fill:#64E2FF;}
	.st9{fill:#BA00FF;}
	.st10{fill:#009CA0;}
	.st11{fill:#E097FF;}
	.st12{fill:#064F00;}
	.st13{fill:#0096C4;}
	.st14{fill:#003027;}
	.st15{fill:#557EFF;}
	.st16{fill:#66F4FF;}
	.st17{fill:#FC7E00;}
	.st18{fill:#27005E;}
	.st19{fill:#0060F9;}
	.st20{fill:#9FC6FF;}
	.st21{fill:#D7E7FF;}
	.st22{fill:#6600C9;}
	.st23{fill:#4D0089;}
	.st24{fill:#006D70;}
	.st25{fill:#00CCCC;}
	.st26{fill:#610089;}
	.st27{fill:#32004C;}
	.st28{fill:#00FF5B;}
	.st29{fill:#009632;}
	.st30{fill:#004916;}
</style>
<g id="Layer_1">
</g>
<g id="Layer_2">
</g>
<g id="Layer_3">
</g>
<g id="Layer_4">
</g>
<g id="Layer_5">
</g>
<g id="Layer_6">
</g>
<g id="Layer_7">
</g>
<g id="Layer_8">
	<g>
		<path class="st13" d="M132.12,92.49v44.11c-8.52,1.12-16.53,1.62-24.29,1.53l-0.06,1.14V92.49H132.12z M165.04,110.88v18.42
			c-2.67,0.87-5.36,1.68-8.07,2.41c-5.23,1.4-10.66,2.59-16.12,3.56c-0.05,0.01-0.1,0.01-0.15,0.03v-24.42L165.04,110.88
			L165.04,110.88z M197.98,77.28v36.3c-3.62,2.45-7.15,4.57-10.75,6.42c-4.74,2.49-9.2,4.53-13.6,6.23V77.28
			C173.62,77.28,197.98,77.28,197.98,77.28z M194.16,134.76c1.26-0.53,2.53-1.08,3.81-1.67v9.53h-24.35v-0.9
			c1.21-0.31,2.39-0.64,3.57-0.98C182.67,139.2,188.23,137.25,194.16,134.76z M230.89,56.78v23.06l-21.28,7.31l9.7,7.08
			c-3.85,4.73-8.12,9.06-12.77,12.95V56.78H230.89z M225.54,115.85c1.79-1.46,3.53-3.02,5.36-4.77v31.53h-24.35v-13.85
			c1.3-0.72,2.58-1.45,3.88-2.22C215.26,123.74,220.22,120.23,225.54,115.85z"/>
		<path class="st14" d="M218.72,53.14c-2.01,0-3.64,1.63-3.64,3.64s1.63,3.64,3.64,3.64s3.64-1.63,3.64-3.64
			S220.73,53.14,218.72,53.14z M218.72,53.14c-2.01,0-3.64,1.63-3.64,3.64s1.63,3.64,3.64,3.64s3.64-1.63,3.64-3.64
			S220.73,53.14,218.72,53.14z M218.72,53.14c-2.01,0-3.64,1.63-3.64,3.64s1.63,3.64,3.64,3.64s3.64-1.63,3.64-3.64
			S220.73,53.14,218.72,53.14z M218.72,53.14c-2.01,0-3.64,1.63-3.64,3.64s1.63,3.64,3.64,3.64s3.64-1.63,3.64-3.64
			S220.73,53.14,218.72,53.14z M218.72,48.41c-4.63,0-8.37,3.74-8.37,8.37s3.74,8.37,8.37,8.37c4.62,0,8.37-3.74,8.37-8.37
			S223.34,48.41,218.72,48.41z M218.72,62.7c-3.26,0-5.92-2.65-5.92-5.92c0-3.27,2.65-5.92,5.92-5.92s5.92,2.65,5.92,5.92
			C224.64,60.06,221.99,62.7,218.72,62.7z M218.72,53.14c-2.01,0-3.64,1.63-3.64,3.64s1.63,3.64,3.64,3.64s3.64-1.63,3.64-3.64
			S220.73,53.14,218.72,53.14z M218.72,53.14c-2.01,0-3.64,1.63-3.64,3.64s1.63,3.64,3.64,3.64s3.64-1.63,3.64-3.64
			S220.73,53.14,218.72,53.14z M218.72,53.14c-2.01,0-3.64,1.63-3.64,3.64s1.63,3.64,3.64,3.64s3.64-1.63,3.64-3.64
			S220.73,53.14,218.72,53.14z M152.87,107.24c-2.01,0-3.64,1.63-3.64,3.64c0,2.01,1.63,3.65,3.64,3.65c2.01,0,3.64-1.64,3.64-3.65
			C156.51,108.87,154.88,107.24,152.87,107.24z M152.87,107.24c-2.01,0-3.64,1.63-3.64,3.64c0,2.01,1.63,3.65,3.64,3.65
			c2.01,0,3.64-1.64,3.64-3.65C156.51,108.87,154.88,107.24,152.87,107.24z M152.87,102.51c-4.62,0-8.37,3.75-8.37,8.37
			c0,4.63,3.75,8.37,8.37,8.37c4.63,0,8.37-3.74,8.37-8.37C161.24,106.26,157.5,102.51,152.87,102.51z M152.87,116.8
			c-3.26,0-5.92-2.65-5.92-5.92c0-3.26,2.65-5.92,5.92-5.92c3.27,0,5.92,2.65,5.92,5.92C158.79,114.16,156.14,116.8,152.87,116.8z
			 M152.87,107.24c-2.01,0-3.64,1.63-3.64,3.64c0,2.01,1.63,3.65,3.64,3.65c2.01,0,3.64-1.64,3.64-3.65
			C156.51,108.87,154.88,107.24,152.87,107.24z M185.79,73.64c-2.01,0-3.64,1.64-3.64,3.65s1.63,3.64,3.64,3.64
			c2.01,0,3.64-1.63,3.64-3.64S187.81,73.64,185.79,73.64z M185.79,73.64c-2.01,0-3.64,1.64-3.64,3.65s1.63,3.64,3.64,3.64
			c2.01,0,3.64-1.63,3.64-3.64S187.81,73.64,185.79,73.64z M185.79,73.64c-2.01,0-3.64,1.64-3.64,3.65s1.63,3.64,3.64,3.64
			c2.01,0,3.64-1.63,3.64-3.64S187.81,73.64,185.79,73.64z M185.79,73.64c-2.01,0-3.64,1.64-3.64,3.65s1.63,3.64,3.64,3.64
			c2.01,0,3.64-1.63,3.64-3.64S187.81,73.64,185.79,73.64z M185.79,68.91c-4.62,0-8.37,3.75-8.37,8.38c0,4.62,3.75,8.37,8.37,8.37
			c4.63,0,8.37-3.75,8.37-8.37C194.16,72.66,190.42,68.91,185.79,68.91z M185.79,83.21c-3.26,0-5.92-2.65-5.92-5.92
			c0-3.27,2.65-5.92,5.92-5.92c3.27,0,5.92,2.65,5.92,5.92C191.71,80.55,189.07,83.21,185.79,83.21z M185.79,73.64
			c-2.01,0-3.64,1.64-3.64,3.65s1.63,3.64,3.64,3.64c2.01,0,3.64-1.63,3.64-3.64S187.81,73.64,185.79,73.64z M119.95,88.84
			c-2.01,0-3.64,1.64-3.64,3.65s1.63,3.64,3.64,3.64s3.65-1.63,3.65-3.64S121.96,88.84,119.95,88.84z M119.95,88.84
			c-2.01,0-3.64,1.64-3.64,3.65s1.63,3.64,3.64,3.64s3.65-1.63,3.65-3.64S121.96,88.84,119.95,88.84z M119.95,88.84
			c-2.01,0-3.64,1.64-3.64,3.65s1.63,3.64,3.64,3.64s3.65-1.63,3.65-3.64S121.96,88.84,119.95,88.84z M119.95,88.84
			c-2.01,0-3.64,1.64-3.64,3.65s1.63,3.64,3.64,3.64s3.65-1.63,3.65-3.64S121.96,88.84,119.95,88.84z M119.95,84.12
			c-4.62,0-8.37,3.74-8.37,8.37c0,4.62,3.75,8.37,8.37,8.37c4.63,0,8.38-3.75,8.38-8.37C128.33,87.87,124.58,84.12,119.95,84.12z
			 M119.95,98.41c-3.26,0-5.92-2.65-5.92-5.92c0-3.27,2.65-5.92,5.92-5.92c3.27,0,5.92,2.65,5.92,5.92
			C125.87,95.76,123.22,98.41,119.95,98.41z M119.95,88.84c-2.01,0-3.64,1.64-3.64,3.65s1.63,3.64,3.64,3.64s3.65-1.63,3.65-3.64
			S121.96,88.84,119.95,88.84z M119.95,88.84c-2.01,0-3.64,1.64-3.64,3.65s1.63,3.64,3.64,3.64s3.65-1.63,3.65-3.64
			S121.96,88.84,119.95,88.84z M119.95,88.84c-2.01,0-3.64,1.64-3.64,3.65s1.63,3.64,3.64,3.64s3.65-1.63,3.65-3.64
			S121.96,88.84,119.95,88.84z M242.23,80.71l-0.49,24.32l-6.63-4.84c-3.88,4.36-7.93,8.53-12.4,12.19
			c-4.61,3.79-9.43,7.31-14.53,10.28c-5.08,3.01-10.32,5.72-15.73,7.95c-5.39,2.26-10.88,4.24-16.47,5.81
			c-5.57,1.59-11.2,2.9-16.87,3.93c-5.68,1.01-11.38,1.75-17.09,2.26c-11.42,0.97-22.9,1.13-34.24,0.02
			c11.38,0.13,22.72-1,33.85-2.92c5.57-0.98,11.08-2.19,16.51-3.64c5.43-1.48,10.77-3.22,15.98-5.21
			c5.23-1.97,10.29-4.31,15.19-6.87c4.92-2.54,9.59-5.49,14.04-8.67c8.65-6.17,16.18-13.65,22.35-22l-6.46-4.71L242.23,80.71z"/>
	</g>
</g>
<g id="Layer_9">
</g>
<g id="Layer_10">
</g>
<g id="Layer_11">
</g>
<g id="Layer_12">
</g>
<g id="Layer_13">
</g>
<g id="Layer_14">
</g>
<g id="Layer_15">
</g>
</svg>
