<?xml version="1.0" encoding="utf-8"?>
<!-- Generator: Adobe Illustrator 27.8.1, SVG Export Plug-In . SVG Version: 6.00 Build 0)  -->
<svg version="1.1" xmlns="http://www.w3.org/2000/svg" xmlns:xlink="http://www.w3.org/1999/xlink" x="0px" y="0px"
	 viewBox="0 0 350 230" style="enable-background:new 0 0 350 230;" xml:space="preserve">
<style type="text/css">
	.st0{fill:#004963;}
	.st1{fill:#FF0000;}
	.st2{fill:#3300A3;}
	.st3{fill:#089E00;}
	.st4{fill:#000A82;}
	.st5{fill:#1D0042;}
	.st6{fill:#594A02;}
	.st7{fill:#013A4C;}
	.st8{fill:#64E2FF;}
	.st9{fill:#BA00FF;}
	.st10{fill:#009CA0;}
	.st11{fill:#E097FF;}
	.st12{fill:#064F00;}
	.st13{fill:#0096C4;}
	.st14{fill:#003027;}
	.st15{fill:#557EFF;}
	.st16{fill:#66F4FF;}
	.st17{fill:#FC7E00;}
	.st18{fill:#27005E;}
	.st19{fill:#0060F9;}
	.st20{fill:#9FC6FF;}
	.st21{fill:#D7E7FF;}
	.st22{fill:#6600C9;}
	.st23{fill:#4D0089;}
	.st24{fill:#006D70;}
	.st25{fill:#00CCCC;}
	.st26{fill:#610089;}
	.st27{fill:#32004C;}
	.st28{fill:#00FF5B;}
	.st29{fill:#009632;}
	.st30{fill:#004916;}
</style>
<g id="Layer_1">
</g>
<g id="Layer_2">
</g>
<g id="Layer_3">
</g>
<g id="Layer_4">
</g>
<g id="Layer_5">
</g>
<g id="Layer_6">
</g>
<g id="Layer_7">
</g>
<g id="Layer_8">
</g>
<g id="Layer_9">
	<g>
		<path class="st15" d="M175,44.01c-20.44,0-37.01,16.57-37.01,37.01c0,6.48,1.67,12.57,4.59,17.87
			c6.31,11.41,18.46,19.14,32.42,19.14c13.96,0,26.11-7.73,32.42-19.14c2.92-5.3,4.59-11.39,4.59-17.87
			C212.01,60.58,195.44,44.01,175,44.01z M182.29,103.79l-2.74,0.23c-1.53,0.13-3.07,0.19-4.56,0.19c-1.48,0-3.01-0.06-4.54-0.19
			l-2.75-0.23V72.41h-8.42l15.71-22.5l15.73,22.5h-8.43L182.29,103.79L182.29,103.79z M187.7,114.1H162.3v20.71
			c0,7.02,5.69,12.7,12.7,12.7l0,0c7.02,0,12.7-5.69,12.7-12.7V114.1z"/>
		<path class="st16" d="M187.26,116.36l-26.58,8.15c-1.86,0.57-2.9,2.54-2.33,4.39l0,0c0.57,1.86,2.54,2.9,4.39,2.33l26.58-8.15
			c1.86-0.57,2.9-2.54,2.33-4.39l0,0C191.08,116.83,189.11,115.79,187.26,116.36z M187.26,127.17l-26.58,8.15
			c-1.86,0.57-2.9,2.54-2.33,4.39l0,0c0.57,1.86,2.54,2.9,4.39,2.33l26.58-8.15c1.86-0.57,2.9-2.54,2.33-4.39l0,0
			C191.08,127.64,189.11,126.6,187.26,127.17z"/>
	</g>
</g>
<g id="Layer_10">
</g>
<g id="Layer_11">
</g>
<g id="Layer_12">
</g>
<g id="Layer_13">
</g>
<g id="Layer_14">
</g>
<g id="Layer_15">
</g>
</svg>
