<?xml version="1.0" encoding="utf-8"?>
<!-- Generator: Adobe Illustrator 27.8.1, SVG Export Plug-In . SVG Version: 6.00 Build 0)  -->
<svg version="1.1" xmlns="http://www.w3.org/2000/svg" xmlns:xlink="http://www.w3.org/1999/xlink" x="0px" y="0px"
	 viewBox="0 0 350 230" style="enable-background:new 0 0 350 230;" xml:space="preserve">
<style type="text/css">
	.st0{fill:#434947;}
	.st1{fill:#FFFFFF;}
	.st2{fill:#00E9E9;}
	.st3{fill:#A06EFF;}
	.st4{fill:#FF5F81;}
	.st5{fill:#192E40;}
	.st6{fill:#FFDD00;}
	.st7{fill:#FF3D9B;}
	.st8{fill:#00BAEB;}
	.st9{fill:#09093C;}
	.st10{fill:#35AF9D;}
	.st11{fill:#00BAFA;}
	.st12{fill:#FFC300;}
	.st13{fill:#064037;}
	.st14{fill:#6D919C;}
	.st15{fill:#67B8FD;}
	.st16{fill:#464758;}
	.st17{fill:url(#SVGID_1_);}
	.st18{fill:none;}
	.st19{fill:#DE3B0F;}
	.st20{fill:#E86317;}
	.st21{fill:#F09C29;}
	.st22{fill:#708D23;}
	.st23{fill:#9BC344;}
	.st24{fill:url(#SVGID_00000037656684000034734820000009824327499380232321_);}
	.st25{fill:url(#SVGID_00000025428486332768672200000005701592810869080989_);}
	.st26{fill:#4EB8FF;}
	.st27{fill:#EC008B;}
	.st28{fill:#F7C211;}
	.st29{fill:#B8E5E7;}
	.st30{fill:#232740;}
	.st31{fill:none;stroke:#232740;stroke-width:4;stroke-linecap:round;stroke-linejoin:round;stroke-miterlimit:10;}
	.st32{fill:#00B4D7;}
	.st33{fill:#FF2C3D;}
	.st34{fill:#FF8B00;}
	.st35{fill:#00B896;}
	.st36{fill:#FFC70E;}
	.st37{fill:#6A44A5;}
	.st38{fill:#232740;stroke:#232740;stroke-width:4;stroke-linecap:round;stroke-linejoin:round;stroke-miterlimit:10;}
	.st39{fill:#05ACED;}
	.st40{fill:#EA008A;}
	.st41{fill:#231F20;}
	.st42{fill:#FDF002;}
	.st43{fill:#BEC938;}
	.st44{fill:#139DD8;}
	.st45{fill:#BD2CAE;}
	.st46{fill:url(#SVGID_00000023968739758672267850000014962068026051246746_);}
	.st47{fill:#BDC938;}
	.st48{fill:#62B0D3;}
	.st49{fill:url(#SVGID_00000018921873362624214830000012449023401971895982_);}
	.st50{fill:#212121;}
	.st51{fill:#FF3927;}
	.st52{fill:#1A8DFF;}
	.st53{fill:#FFD500;}
	.st54{fill:#606060;}
	.st55{fill:#26A6DF;}
</style>
<g id="Layer_1">
</g>
<g id="Layer_2">
</g>
<g id="Layer_3">
</g>
<g id="Layer_4">
</g>
<g id="Layer_5">
	<g>
		<g>
			<path class="st14" d="M180.19,130.35c26.44,10.36,3.16,11.43-19.4,13.53c-44.08,4.94-23.73,21.12,31.88,36.39
				c-46.47-5.11-119.54-36.83-54.47-44.55c70.11-7.93-29.04-11.45-30.9-11.93l0,0C127.61,123.8,154.47,120.28,180.19,130.35z"/>
		</g>
	</g>
	<path class="st15" d="M242.62,114.09c0,0-0.69-18.93-6.09-27.12c0,0-6.65,3.56-9.24,4.47c-2.59,0.91,5.13-7.97,4.83-10.26
		c-0.31-2.29-17.99-28.83-23.31-22.75c-7.11,8.12-17.87,10.16-17.87,10.16c7.72-6.6,10.66-16.45,10.66-16.45
		c-0.93-3.15-53.72-16.35-45.19-45.29c0,0-47.46,28.2-28.63,68.65c9.54,20.51,35.49,13.15,35.49,13.15l-11.93,13.86
		c0,0,27.47,15.69,41.03,12.64c13.35-3,17.83-5.56,17.97-5.63l-10.05,12.69c0,0,20.42,4,23.92,14.57
		c4.98-16.03,1.11-26.02-11.6-35.98c-14.94-11.62-32.56-18.84-48.39-29.45c-10.59-7.15-23.3-18.16-16.45-31.99
		c-1.78,14.47,8.79,21.88,19.4,28.31c20.68,12.96,59.71,27.25,65.53,53.33c2.94,13.14-7.53,28.88-18.1,40.85
		c-1.7,1.92-4.55,2.3-6.69,0.9l-2.58-1.69c0,0-0.7,3.09-2.7,7.55c0.82,0.41,1.33,1.35,1.13,2.35c-0.17,0.85-0.86,1.54-1.71,1.69
		c-0.48,0.09-0.94,0.02-1.34-0.18c-1.3,2.42-2.95,5.04-4.99,7.67c-0.16,0.13-0.24,0.2-0.24,0.2S244.96,151.82,242.62,114.09z"/>
	<g>
		<g>
			<path class="st15" d="M228.43,88.15c1.63-2.51,3.85-5.71,3.68-6.96c-0.31-2.29-17.99-28.83-23.31-22.75
				c-2.22,2.54-4.8,4.48-7.29,5.95C212.99,71.64,221.89,80.12,228.43,88.15z"/>
			<path class="st15" d="M180.11,53.81c6.09,2.27,11.69,4.94,16.83,7.86c3.29-4.98,4.65-9.53,4.65-9.53
				c-0.93-3.15-53.72-16.35-45.19-45.29C156.4,6.86,138.38,38.25,180.11,53.81z"/>
			<path class="st15" d="M230.09,90.24c7.73,10.01,11.76,19.08,12.53,23.86c0,0-0.69-18.93-6.09-27.12
				C236.53,86.98,233.01,88.86,230.09,90.24z"/>
		</g>
	</g>
	<path class="st15" d="M127.77,75.5c9.54,20.51,35.49,13.15,35.49,13.15l-11.93,13.86c0,0,27.47,15.69,41.03,12.64
		c13.35-3,17.83-5.56,17.97-5.63l-10.05,12.69c0,0,20.42,4,23.92,14.57c4.98-16.03,1.11-26.02-11.6-35.98
		c-14.94-11.62-32.56-18.84-48.39-29.45c-10.59-7.15-23.3-18.16-16.45-31.99c-0.56-11.28,8.66-32.52,8.66-32.52
		S108.94,35.06,127.77,75.5z"/>
</g>
<g id="Layer_6">
</g>
<g id="Layer_7">
</g>
<g id="Layer_8">
</g>
<g id="Layer_9">
</g>
<g id="Layer_10">
</g>
<g id="Layer_11">
</g>
<g id="Layer_12">
</g>
<g id="Layer_13">
</g>
<g id="Layer_14">
</g>
<g id="Layer_15">
</g>
</svg>
