<?xml version="1.0" encoding="utf-8"?>
<!-- Generator: Adobe Illustrator 27.8.1, SVG Export Plug-In . SVG Version: 6.00 Build 0)  -->
<svg version="1.1" xmlns="http://www.w3.org/2000/svg" xmlns:xlink="http://www.w3.org/1999/xlink" x="0px" y="0px"
	 viewBox="0 0 350 230" style="enable-background:new 0 0 350 230;" xml:space="preserve">
<style type="text/css">
	.st0{fill:#434947;}
	.st1{fill:#FFFFFF;}
	.st2{fill:#00E9E9;}
	.st3{fill:#A06EFF;}
	.st4{fill:#FF5F81;}
	.st5{fill:#192E40;}
	.st6{fill:#FFDD00;}
	.st7{fill:#FF3D9B;}
	.st8{fill:#00BAEB;}
	.st9{fill:#09093C;}
	.st10{fill:#35AF9D;}
	.st11{fill:#00BAFA;}
	.st12{fill:#FFC300;}
	.st13{fill:#064037;}
	.st14{fill:#6D919C;}
	.st15{fill:#67B8FD;}
	.st16{fill:#464758;}
	.st17{fill:url(#SVGID_1_);}
	.st18{fill:none;}
	.st19{fill:#DE3B0F;}
	.st20{fill:#E86317;}
	.st21{fill:#F09C29;}
	.st22{fill:#708D23;}
	.st23{fill:#9BC344;}
	.st24{fill:url(#SVGID_00000139983436456912943960000017674869962606828948_);}
	.st25{fill:url(#SVGID_00000124144827065256367940000016329087685496005002_);}
	.st26{fill:#4EB8FF;}
	.st27{fill:#EC008B;}
	.st28{fill:#F7C211;}
	.st29{fill:#B8E5E7;}
	.st30{fill:#232740;}
	.st31{fill:none;stroke:#232740;stroke-width:4;stroke-linecap:round;stroke-linejoin:round;stroke-miterlimit:10;}
	.st32{fill:#00B4D7;}
	.st33{fill:#FF2C3D;}
	.st34{fill:#FF8B00;}
	.st35{fill:#00B896;}
	.st36{fill:#FFC70E;}
	.st37{fill:#6A44A5;}
	.st38{fill:#232740;stroke:#232740;stroke-width:4;stroke-linecap:round;stroke-linejoin:round;stroke-miterlimit:10;}
	.st39{fill:#05ACED;}
	.st40{fill:#EA008A;}
	.st41{fill:#231F20;}
	.st42{fill:#FDF002;}
	.st43{fill:#BEC938;}
	.st44{fill:#139DD8;}
	.st45{fill:#BD2CAE;}
	.st46{fill:url(#SVGID_00000033333614465898109500000003768851046079546279_);}
	.st47{fill:#BDC938;}
	.st48{fill:#62B0D3;}
	.st49{fill:url(#SVGID_00000003785715390158520240000009612373792947230340_);}
	.st50{fill:#212121;}
	.st51{fill:#FF3927;}
	.st52{fill:#1A8DFF;}
	.st53{fill:#FFD500;}
	.st54{fill:#606060;}
	.st55{fill:#26A6DF;}
</style>
<g id="Layer_1">
	<g>
		<path class="st0" d="M162.91,95.76c-13.48,3.34-15.87,5.73,5.85,8.95s65.18-2.34,51.19,5.97c-5.35,3.18-11.35,4.46-13.77,9.21
			c-2.79,5.48-3.97,17.85-3.35,24.5c-22.53-3.05-66.29-8.21-77.73-17.81c-4.72-3.95-0.21-22.31,3.55-24.77
			C136.36,96.76,156.82,94.45,162.91,95.76z"/>
		<path class="st0" d="M222.66,111.94c-8.86,4.64-13.12,6.44-14.75,12.14c-1.62,5.64-2.96,12.07-1.87,20.31
			c6.3-1.45,14.22-7.24,15.95-10.72C223.45,130.7,223.39,116.79,222.66,111.94z"/>
		<path class="st1" d="M138.49,124.81c7.36,3.88,41.09,10.17,46.04,10.17c1.56,0,1.65-1.12,0-1.47c-1.65-0.36-40.76-8.46-44.77-9.9
			C137.53,122.81,137.17,124.34,138.49,124.81z"/>
		<path class="st2" d="M187.18,90.1c-4.36,6.3-10.01,10.71-16.05,12.68c2.72,0.28,5.76,0.5,9.09,0.65
			c7.87-0.58,16.55-5.42,23.26-13.02c4.6-5.2,9.92-13.54,11.74-25.46c-6.02-2.4-12.24-4.14-18.53-5.23
			C195.99,71.65,192.73,82.08,187.18,90.1z"/>
		<path class="st3" d="M217.11,65.71c-1.96,12.13-7.41,20.66-12.14,26.01c-4.89,5.53-10.8,9.68-16.76,11.91
			c7.2,0.07,15.2-1.81,19.75-3.42c5.11-1.81,19.48-11,18.96-29.59C223.73,68.76,220.45,67.13,217.11,65.71z"/>
		<path class="st4" d="M165.26,101.92c13.56-0.85,27.92-15.96,29.45-42.51c-7.2-1.09-14.47-1.36-21.62-0.84
			c9.1,15.8,0.94,38.23-15.6,41.11c1.61,0.92,4.25,1.69,7.77,2.31L165.26,101.92z"/>
	</g>
</g>
<g id="Layer_2">
</g>
<g id="Layer_3">
</g>
<g id="Layer_4">
</g>
<g id="Layer_5">
</g>
<g id="Layer_6">
</g>
<g id="Layer_7">
</g>
<g id="Layer_8">
</g>
<g id="Layer_9">
</g>
<g id="Layer_10">
</g>
<g id="Layer_11">
</g>
<g id="Layer_12">
</g>
<g id="Layer_13">
</g>
<g id="Layer_14">
</g>
<g id="Layer_15">
</g>
</svg>
