<?xml version="1.0" encoding="utf-8"?>
<!-- Generator: Adobe Illustrator 27.8.1, SVG Export Plug-In . SVG Version: 6.00 Build 0)  -->
<svg version="1.1" xmlns="http://www.w3.org/2000/svg" xmlns:xlink="http://www.w3.org/1999/xlink" x="0px" y="0px"
	 viewBox="0 0 350 230" style="enable-background:new 0 0 350 230;" xml:space="preserve">
<style type="text/css">
	.st0{fill:#434947;}
	.st1{fill:#FFFFFF;}
	.st2{fill:#00E9E9;}
	.st3{fill:#A06EFF;}
	.st4{fill:#FF5F81;}
	.st5{fill:#192E40;}
	.st6{fill:#FFDD00;}
	.st7{fill:#FF3D9B;}
	.st8{fill:#00BAEB;}
	.st9{fill:#09093C;}
	.st10{fill:#35AF9D;}
	.st11{fill:#00BAFA;}
	.st12{fill:#FFC300;}
	.st13{fill:#064037;}
	.st14{fill:#6D919C;}
	.st15{fill:#67B8FD;}
	.st16{fill:#464758;}
	.st17{fill:url(#SVGID_1_);}
	.st18{fill:none;}
	.st19{fill:#DE3B0F;}
	.st20{fill:#E86317;}
	.st21{fill:#F09C29;}
	.st22{fill:#708D23;}
	.st23{fill:#9BC344;}
	.st24{fill:url(#SVGID_00000047061235294021979850000003749074809630530948_);}
	.st25{fill:url(#SVGID_00000144325208933362402380000010554342296520008581_);}
	.st26{fill:#4EB8FF;}
	.st27{fill:#EC008B;}
	.st28{fill:#F7C211;}
	.st29{fill:#B8E5E7;}
	.st30{fill:#232740;}
	.st31{fill:none;stroke:#232740;stroke-width:4;stroke-linecap:round;stroke-linejoin:round;stroke-miterlimit:10;}
	.st32{fill:#00B4D7;}
	.st33{fill:#FF2C3D;}
	.st34{fill:#FF8B00;}
	.st35{fill:#00B896;}
	.st36{fill:#FFC70E;}
	.st37{fill:#6A44A5;}
	.st38{fill:#232740;stroke:#232740;stroke-width:4;stroke-linecap:round;stroke-linejoin:round;stroke-miterlimit:10;}
	.st39{fill:#05ACED;}
	.st40{fill:#EA008A;}
	.st41{fill:#231F20;}
	.st42{fill:#FDF002;}
	.st43{fill:#BEC938;}
	.st44{fill:#139DD8;}
	.st45{fill:#BD2CAE;}
	.st46{fill:url(#SVGID_00000063619720522001551610000009692281480472223125_);}
	.st47{fill:#BDC938;}
	.st48{fill:#62B0D3;}
	.st49{fill:url(#SVGID_00000013914110733358860020000014766993785250108300_);}
	.st50{fill:#212121;}
	.st51{fill:#FF3927;}
	.st52{fill:#1A8DFF;}
	.st53{fill:#FFD500;}
	.st54{fill:#606060;}
	.st55{fill:#26A6DF;}
</style>
<g id="Layer_1">
</g>
<g id="Layer_2">
</g>
<g id="Layer_3">
</g>
<g id="Layer_4">
</g>
<g id="Layer_5">
</g>
<g id="Layer_6">
</g>
<g id="Layer_7">
</g>
<g id="Layer_8">
</g>
<g id="Layer_9">
</g>
<g id="Layer_10">
	<path class="st39" d="M171.07,63.73c-0.05-0.17-0.11-0.33-0.16-0.49c-2.22-5.56-10.83-11.27-18.6-8.29
		c-8.16,3.12-12.27,12.35-8.91,20.19c1.47,3.44,4.12,5.93,7.26,7.28c0.9,0.47,7.22,3.88,12.56,9.03c5.32,5.14,7.53,15.08,9.36,23.62
		c1.91,8.87,4.66-0.45,4.77-10C177.55,87.89,175.09,74.04,171.07,63.73z"/>
	<path class="st40" d="M189.07,97.14c0.07-0.11,0.14-0.22,0.21-0.33c2.63-3.63,9.91-6.2,15.01-2.63c5.35,3.75,6.65,11.19,2.79,16.27
		c-1.69,2.23-4.07,3.56-6.6,3.96c-0.74,0.18-5.94,1.5-10.76,4.27c-4.8,2.76-8.21,9.57-11.09,15.43c-3,6.09-3.3-1.18-1.64-8.12
		C179.97,113.49,184.28,103.89,189.07,97.14z"/>
	<path class="st41" d="M165.58,113.62c-0.04-0.1-0.09-0.21-0.14-0.31c-1.81-3.48-7.78-6.64-12.65-4.2
		c-5.11,2.56-7.19,8.83-4.5,13.73c1.18,2.15,3.07,3.6,5.2,4.27c0.62,0.25,4.95,2.06,8.77,5.07c3.8,3,5.88,9.34,7.62,14.78
		c1.82,5.65,3-0.6,2.46-6.82C171.36,128.94,168.86,120.08,165.58,113.62z"/>
	<path class="st42" d="M151.7,87.57c-0.06-0.05-0.13-0.1-0.19-0.15c-2.33-1.59-7.19-1.57-9.45,1.62c-2.38,3.36-1.57,8.04,1.8,10.23
		c1.48,0.96,3.17,1.24,4.75,0.95c0.47-0.05,3.84-0.37,7.28,0.25c3.43,0.62,6.89,3.93,9.85,6.79c3.07,2.97,1.7-1.4-0.75-5.16
		C160.56,95.33,155.97,90.56,151.7,87.57z"/>
</g>
<g id="Layer_11">
</g>
<g id="Layer_12">
</g>
<g id="Layer_13">
</g>
<g id="Layer_14">
</g>
<g id="Layer_15">
</g>
</svg>
