<?xml version="1.0" encoding="utf-8"?>
<!-- Generator: Adobe Illustrator 27.8.1, SVG Export Plug-In . SVG Version: 6.00 Build 0)  -->
<svg version="1.1" xmlns="http://www.w3.org/2000/svg" xmlns:xlink="http://www.w3.org/1999/xlink" x="0px" y="0px"
	 viewBox="0 0 350 230" style="enable-background:new 0 0 350 230;" xml:space="preserve">
<style type="text/css">
	.st0{fill:#434947;}
	.st1{fill:#FFFFFF;}
	.st2{fill:#00E9E9;}
	.st3{fill:#A06EFF;}
	.st4{fill:#FF5F81;}
	.st5{fill:#192E40;}
	.st6{fill:#FFDD00;}
	.st7{fill:#FF3D9B;}
	.st8{fill:#00BAEB;}
	.st9{fill:#09093C;}
	.st10{fill:#35AF9D;}
	.st11{fill:#00BAFA;}
	.st12{fill:#FFC300;}
	.st13{fill:#064037;}
	.st14{fill:#6D919C;}
	.st15{fill:#67B8FD;}
	.st16{fill:#464758;}
	.st17{fill:url(#SVGID_1_);}
	.st18{fill:none;}
	.st19{fill:#DE3B0F;}
	.st20{fill:#E86317;}
	.st21{fill:#F09C29;}
	.st22{fill:#708D23;}
	.st23{fill:#9BC344;}
	.st24{fill:url(#SVGID_00000005225627167729271710000003991918066583657871_);}
	.st25{fill:url(#SVGID_00000150799622580571940180000008234625684834447034_);}
	.st26{fill:#4EB8FF;}
	.st27{fill:#EC008B;}
	.st28{fill:#F7C211;}
	.st29{fill:#B8E5E7;}
	.st30{fill:#232740;}
	.st31{fill:none;stroke:#232740;stroke-width:4;stroke-linecap:round;stroke-linejoin:round;stroke-miterlimit:10;}
	.st32{fill:#00B4D7;}
	.st33{fill:#FF2C3D;}
	.st34{fill:#FF8B00;}
	.st35{fill:#00B896;}
	.st36{fill:#FFC70E;}
	.st37{fill:#6A44A5;}
	.st38{fill:#232740;stroke:#232740;stroke-width:4;stroke-linecap:round;stroke-linejoin:round;stroke-miterlimit:10;}
	.st39{fill:#05ACED;}
	.st40{fill:#EA008A;}
	.st41{fill:#231F20;}
	.st42{fill:#FDF002;}
	.st43{fill:#BEC938;}
	.st44{fill:#139DD8;}
	.st45{fill:#BD2CAE;}
	.st46{fill:url(#SVGID_00000088103439690760565750000002399775188399978678_);}
	.st47{fill:#BDC938;}
	.st48{fill:#62B0D3;}
	.st49{fill:url(#SVGID_00000156568664430446450740000000443274661005417360_);}
	.st50{fill:#212121;}
	.st51{fill:#FF3927;}
	.st52{fill:#1A8DFF;}
	.st53{fill:#FFD500;}
	.st54{fill:#606060;}
	.st55{fill:#26A6DF;}
</style>
<g id="Layer_1">
</g>
<g id="Layer_2">
</g>
<g id="Layer_3">
</g>
<g id="Layer_4">
</g>
<g id="Layer_5">
</g>
<g id="Layer_6">
</g>
<g id="Layer_7">
</g>
<g id="Layer_8">
</g>
<g id="Layer_9">
</g>
<g id="Layer_10">
</g>
<g id="Layer_11">
</g>
<g id="Layer_12">
	<g>
		<linearGradient id="SVGID_1_" gradientUnits="userSpaceOnUse" x1="174.9327" y1="54.1547" x2="174.8416" y2="54.2787">
			<stop  offset="0" style="stop-color:#D741BF"/>
			<stop  offset="1" style="stop-color:#E80D62"/>
		</linearGradient>
		<path class="st17" d="M174.88,54.13c0,0.06,0,0.13,0,0.19c0-0.01,0-0.03,0-0.04c0,0.01,0,0.03,0,0.04
			C174.89,54.25,174.88,54.19,174.88,54.13z"/>
		<path class="st40" d="M172.76,123.23c-4.22-0.76-11.9-2.75-18.3-5.14c5.28,10.61,16.43,19.51,19.58,21.88
			C173.42,134.4,173.02,128.82,172.76,123.23z"/>
		<g>
			<path class="st47" d="M163.8,78.57c1.15,1.42,4.66,5.56,8.82,8.26c0.31-9.88,0.84-19.74,1.92-29.61
				C173.25,63.36,168.59,70.75,163.8,78.57z"/>
			<path class="st48" d="M172.37,99.51c0.04-4.05,0.12-8.11,0.24-12.16c-2.42-0.63-7.39-2.22-10.89-5.35
				c-5.6,9.84-11.54,19.15-9.64,29.44c4.63,3.13,13.47,8.75,20.65,11.33C172.37,115.02,172.29,107.27,172.37,99.51z"/>
		</g>
	</g>
	
		<linearGradient id="SVGID_00000124859180874246721410000002905780941001116572_" gradientUnits="userSpaceOnUse" x1="-1911.8245" y1="54.1547" x2="-1911.9156" y2="54.2787" gradientTransform="matrix(-1 0 0 1 -1736.7572 0)">
		<stop  offset="0" style="stop-color:#D741BF"/>
		<stop  offset="1" style="stop-color:#E80D62"/>
	</linearGradient>
	<path style="fill:url(#SVGID_00000124859180874246721410000002905780941001116572_);" d="M175.12,54.13c0,0.06,0,0.13,0,0.19
		c0-0.01,0-0.03,0-0.04c0,0.01,0,0.03,0,0.04C175.11,54.25,175.12,54.19,175.12,54.13z"/>
	<path class="st40" d="M177.24,123.23c4.22-0.76,11.9-2.75,18.3-5.14c-5.28,10.61-16.43,19.51-19.58,21.88
		C176.58,134.4,176.98,128.82,177.24,123.23z"/>
	<g>
		<path class="st47" d="M186.2,78.57c-1.15,1.42-4.66,5.56-8.82,8.26c-0.31-9.88-0.84-19.74-1.92-29.61
			C176.75,63.36,181.41,70.75,186.2,78.57z"/>
		<path class="st48" d="M177.63,99.51c-0.04-4.05-0.12-8.11-0.24-12.16c2.42-0.63,7.39-2.22,10.89-5.35
			c5.6,9.84,11.54,19.15,9.64,29.44c-4.63,3.13-13.47,8.75-20.65,11.33C177.63,115.02,177.71,107.27,177.63,99.51z"/>
	</g>
	<path class="st50" d="M181.42,142.65c0-0.5-0.62-0.95-1.63-1.29c0.29,0.2,0.45,0.42,0.45,0.64c0,0.88-2.35,1.59-5.24,1.59
		c-2.9,0-5.24-0.71-5.24-1.59c0-0.23,0.16-0.45,0.45-0.64c-1.01,0.34-1.63,0.8-1.63,1.29c0,0.59,0.87,1.12,2.24,1.48
		c-0.78,0.93-2.76,3.56-2.01,5.66c0.53,1.57,6.19,1.57,6.19,1.57s5.66,0,6.19-1.57c0.75-2.1-1.23-4.74-2.01-5.66
		C180.55,143.77,181.42,143.24,181.42,142.65z"/>
</g>
<g id="Layer_13">
</g>
<g id="Layer_14">
</g>
<g id="Layer_15">
</g>
</svg>
