<?xml version="1.0" encoding="utf-8"?>
<!-- Generator: Adobe Illustrator 27.8.1, SVG Export Plug-In . SVG Version: 6.00 Build 0)  -->
<svg version="1.1" xmlns="http://www.w3.org/2000/svg" xmlns:xlink="http://www.w3.org/1999/xlink" x="0px" y="0px"
	 viewBox="0 0 350 230" style="enable-background:new 0 0 350 230;" xml:space="preserve">
<style type="text/css">
	.st0{fill:#434947;}
	.st1{fill:#FFFFFF;}
	.st2{fill:#00E9E9;}
	.st3{fill:#A06EFF;}
	.st4{fill:#FF5F81;}
	.st5{fill:#192E40;}
	.st6{fill:#FFDD00;}
	.st7{fill:#FF3D9B;}
	.st8{fill:#00BAEB;}
	.st9{fill:#09093C;}
	.st10{fill:#35AF9D;}
	.st11{fill:#00BAFA;}
	.st12{fill:#FFC300;}
	.st13{fill:#064037;}
	.st14{fill:#6D919C;}
	.st15{fill:#67B8FD;}
	.st16{fill:#464758;}
	.st17{fill:url(#SVGID_1_);}
	.st18{fill:none;}
	.st19{fill:#DE3B0F;}
	.st20{fill:#E86317;}
	.st21{fill:#F09C29;}
	.st22{fill:#708D23;}
	.st23{fill:#9BC344;}
	.st24{fill:url(#SVGID_00000072282263339035264260000006714479041366506662_);}
	.st25{fill:url(#SVGID_00000027585586780346357430000003049834521448880790_);}
	.st26{fill:#4EB8FF;}
	.st27{fill:#EC008B;}
	.st28{fill:#F7C211;}
	.st29{fill:#B8E5E7;}
	.st30{fill:#232740;}
	.st31{fill:none;stroke:#232740;stroke-width:4;stroke-linecap:round;stroke-linejoin:round;stroke-miterlimit:10;}
	.st32{fill:#00B4D7;}
	.st33{fill:#FF2C3D;}
	.st34{fill:#FF8B00;}
	.st35{fill:#00B896;}
	.st36{fill:#FFC70E;}
	.st37{fill:#6A44A5;}
	.st38{fill:#232740;stroke:#232740;stroke-width:4;stroke-linecap:round;stroke-linejoin:round;stroke-miterlimit:10;}
	.st39{fill:#05ACED;}
	.st40{fill:#EA008A;}
	.st41{fill:#231F20;}
	.st42{fill:#FDF002;}
	.st43{fill:#BEC938;}
	.st44{fill:#139DD8;}
	.st45{fill:#BD2CAE;}
	.st46{fill:url(#SVGID_00000005950567552667068510000014347722401562208678_);}
	.st47{fill:#BDC938;}
	.st48{fill:#62B0D3;}
	.st49{fill:url(#SVGID_00000084524827316778360220000009638074385743886988_);}
	.st50{fill:#212121;}
	.st51{fill:#FF3927;}
	.st52{fill:#1A8DFF;}
	.st53{fill:#FFD500;}
	.st54{fill:#606060;}
	.st55{fill:#26A6DF;}
</style>
<g id="Layer_1">
</g>
<g id="Layer_2">
</g>
<g id="Layer_3">
</g>
<g id="Layer_4">
</g>
<g id="Layer_5">
</g>
<g id="Layer_6">
</g>
<g id="Layer_7">
</g>
<g id="Layer_8">
</g>
<g id="Layer_9">
</g>
<g id="Layer_10">
</g>
<g id="Layer_11">
</g>
<g id="Layer_12">
</g>
<g id="Layer_13">
	<path class="st15" d="M131.17,139.84c-0.79-0.98-1.26-2.23-1.26-3.58V66.74c0-3.17,2.57-5.74,5.74-5.74h69.52
		c1.06,0,2.06,0.3,2.91,0.8c-18.89,0.74-32.93,18.63-32.93,18.63c0.14-1.41,3.21-8.74,3.21-8.74
		c-22.46,13.59-26.63,33.71-26.63,33.71c-0.33-0.82,0.34-5.92,0.34-5.92c-6.88,5.58-7.32,19.34-7.32,19.34s-11.35,14.02-12.9,17.95
		C131.4,137.89,131.22,138.93,131.17,139.84z M213.24,71.57c-2.65,3.99-8.98,12.38-17.14,14.72c-8.15,2.35-11.24,3.37-11.24,3.37
		s5.5-0.01,14.76-2.22c0,0-10.72,18.74-30.26,17.89c0,0-1.82,1.63,15.09-0.84c0,0-9.35,11.17-19.88,13.2
		c-10.53,2.03-11.82,1.94-13.96,3.43c0,0,18.62-29.97,41.46-43.54c0,0-24,6.43-51.5,55.45l-2.7,5.05c0,0-2.47,0.69-4.65,3.35
		c0.74,0.35,1.56,0.55,2.44,0.55h69.52c3.17,0,5.74-2.57,5.74-5.74V82.43c0,0,8.53-6.87,9.18-18.67
		C220.09,63.75,215.89,67.58,213.24,71.57z"/>
</g>
<g id="Layer_14">
</g>
<g id="Layer_15">
</g>
</svg>
