<?xml version="1.0" encoding="utf-8"?>
<!-- Generator: Adobe Illustrator 27.8.1, SVG Export Plug-In . SVG Version: 6.00 Build 0)  -->
<svg version="1.1" xmlns="http://www.w3.org/2000/svg" xmlns:xlink="http://www.w3.org/1999/xlink" x="0px" y="0px"
	 viewBox="0 0 350 230" style="enable-background:new 0 0 350 230;" xml:space="preserve">
<style type="text/css">
	.st0{fill:#434947;}
	.st1{fill:#FFFFFF;}
	.st2{fill:#00E9E9;}
	.st3{fill:#A06EFF;}
	.st4{fill:#FF5F81;}
	.st5{fill:#192E40;}
	.st6{fill:#FFDD00;}
	.st7{fill:#FF3D9B;}
	.st8{fill:#00BAEB;}
	.st9{fill:#09093C;}
	.st10{fill:#35AF9D;}
	.st11{fill:#00BAFA;}
	.st12{fill:#FFC300;}
	.st13{fill:#064037;}
	.st14{fill:#6D919C;}
	.st15{fill:#67B8FD;}
	.st16{fill:#464758;}
	.st17{fill:url(#SVGID_1_);}
	.st18{fill:none;}
	.st19{fill:#DE3B0F;}
	.st20{fill:#E86317;}
	.st21{fill:#F09C29;}
	.st22{fill:#708D23;}
	.st23{fill:#9BC344;}
	.st24{fill:url(#SVGID_00000152241696602103959560000018039750272092723868_);}
	.st25{fill:url(#SVGID_00000116194170403705723210000015143505943605150646_);}
	.st26{fill:#4EB8FF;}
	.st27{fill:#EC008B;}
	.st28{fill:#F7C211;}
	.st29{fill:#B8E5E7;}
	.st30{fill:#232740;}
	.st31{fill:none;stroke:#232740;stroke-width:4;stroke-linecap:round;stroke-linejoin:round;stroke-miterlimit:10;}
	.st32{fill:#00B4D7;}
	.st33{fill:#FF2C3D;}
	.st34{fill:#FF8B00;}
	.st35{fill:#00B896;}
	.st36{fill:#FFC70E;}
	.st37{fill:#6A44A5;}
	.st38{fill:#232740;stroke:#232740;stroke-width:4;stroke-linecap:round;stroke-linejoin:round;stroke-miterlimit:10;}
	.st39{fill:#05ACED;}
	.st40{fill:#EA008A;}
	.st41{fill:#231F20;}
	.st42{fill:#FDF002;}
	.st43{fill:#BEC938;}
	.st44{fill:#139DD8;}
	.st45{fill:#BD2CAE;}
	.st46{fill:url(#SVGID_00000015329463069253155480000002829738734075972227_);}
	.st47{fill:#BDC938;}
	.st48{fill:#62B0D3;}
	.st49{fill:url(#SVGID_00000041987343469434742740000001325979934209064849_);}
	.st50{fill:#212121;}
	.st51{fill:#FF3927;}
	.st52{fill:#1A8DFF;}
	.st53{fill:#FFD500;}
	.st54{fill:#606060;}
	.st55{fill:#26A6DF;}
</style>
<g id="Layer_1">
</g>
<g id="Layer_2">
</g>
<g id="Layer_3">
</g>
<g id="Layer_4">
</g>
<g id="Layer_5">
</g>
<g id="Layer_6">
</g>
<g id="Layer_7">
</g>
<g id="Layer_8">
</g>
<g id="Layer_9">
</g>
<g id="Layer_10">
</g>
<g id="Layer_11">
</g>
<g id="Layer_12">
</g>
<g id="Layer_13">
</g>
<g id="Layer_14">
	<path class="st51" d="M115.75,90.29c0.47-0.04,0.95-0.06,1.43-0.05c-4.88,4.7-3.64,13.51,1.35,18.11c4.99,4.6,12.43,5.58,19.13,4.5
		c6.69-1.08,12.94-3.94,19.34-6.2c15.87-5.6,33.02-7.45,49.73-5.51v5.77c-6.89,0.64-13.77,1.9-20.51,3.42
		c-14.7,3.33-29.28,7.74-44.32,8.71c-6.67,0.43-13.6,0.13-19.67-2.68c-6.07-2.81-11.12-8.58-11.46-15.26
		C110.56,97,112.6,92.82,115.75,90.29z"/>
	<path class="st52" d="M206.72,119.19v11.18c-15.09,2.34-30.18,4.67-45.27,7.01c-8.92,1.38-17.91,2.77-26.92,2.28
		c-9.01-0.48-18.15-2.98-25.2-8.62c-7.04-5.64-11.64-14.76-10.38-23.7c1.18-8.34,8.19-16.16,16.46-17.01
		c-4.48,2.46-7.83,7.2-8.62,12.33c-1.11,7.27,2.31,14.77,7.8,19.66c5.49,4.88,12.8,7.37,20.11,8.16s14.69-0.02,21.97-1.02
		C173.56,127.13,190.28,123.68,206.72,119.19z"/>
	<path class="st53" d="M115.42,90.34c0.11-0.01,0.22-0.04,0.33-0.04c-3.15,2.53-5.19,6.71-4.98,10.81
		c0.34,6.68,5.39,12.45,11.46,15.26c6.07,2.81,12.99,3.11,19.67,2.68c15.04-0.97,29.62-5.38,44.32-8.71
		c6.74-1.53,13.62-2.78,20.51-3.42v12.28c-16.44,4.49-33.16,7.95-50.05,10.27c-7.28,1-14.66,1.8-21.97,1.02s-14.61-3.27-20.11-8.16
		c-5.49-4.88-8.91-12.39-7.8-19.66C107.59,97.54,110.93,92.8,115.42,90.34z"/>
	<path class="st54" d="M232.54,120.78v1.77h-10.67V92.27h-8.68v2.68h2.09c1.67,0,3.01,1.34,3.01,3.01v35.83
		c0,1.67-1.34,3.01-3.01,3.01h-5.55c-1.67,0-3.01-1.34-3.01-3.01v-3.42v-11.18v-12.28v-5.75v-3.19c0-1.67,1.34-3.01,3.01-3.01h1.44
		V90.5h12.46v30.28H232.54z M248.42,119h-12.84c-1.42,0-2.58,1.15-2.58,2.58v0.84c0,1.42,1.15,2.58,2.58,2.58h12.84
		c1.42,0,2.58-1.15,2.58-2.58v-0.84C251,120.15,249.85,119,248.42,119z"/>
</g>
<g id="Layer_15">
</g>
</svg>
