<?xml version="1.0" encoding="utf-8"?>
<!-- Generator: Adobe Illustrator 27.8.1, SVG Export Plug-In . SVG Version: 6.00 Build 0)  -->
<svg version="1.1" xmlns="http://www.w3.org/2000/svg" xmlns:xlink="http://www.w3.org/1999/xlink" x="0px" y="0px"
	 viewBox="0 0 350 230" style="enable-background:new 0 0 350 230;" xml:space="preserve">
<style type="text/css">
	.st0{fill:#434947;}
	.st1{fill:#FFFFFF;}
	.st2{fill:#00E9E9;}
	.st3{fill:#A06EFF;}
	.st4{fill:#FF5F81;}
	.st5{fill:#192E40;}
	.st6{fill:#FFDD00;}
	.st7{fill:#FF3D9B;}
	.st8{fill:#00BAEB;}
	.st9{fill:#09093C;}
	.st10{fill:#35AF9D;}
	.st11{fill:#00BAFA;}
	.st12{fill:#FFC300;}
	.st13{fill:#064037;}
	.st14{fill:#6D919C;}
	.st15{fill:#67B8FD;}
	.st16{fill:#464758;}
	.st17{fill:url(#SVGID_1_);}
	.st18{fill:none;}
	.st19{fill:#DE3B0F;}
	.st20{fill:#E86317;}
	.st21{fill:#F09C29;}
	.st22{fill:#708D23;}
	.st23{fill:#9BC344;}
	.st24{fill:url(#SVGID_00000057835699966940059060000008941678330764492478_);}
	.st25{fill:url(#SVGID_00000023971772084576057690000005431675197859498146_);}
	.st26{fill:#4EB8FF;}
	.st27{fill:#EC008B;}
	.st28{fill:#F7C211;}
	.st29{fill:#B8E5E7;}
	.st30{fill:#232740;}
	.st31{fill:none;stroke:#232740;stroke-width:4;stroke-linecap:round;stroke-linejoin:round;stroke-miterlimit:10;}
	.st32{fill:#00B4D7;}
	.st33{fill:#FF2C3D;}
	.st34{fill:#FF8B00;}
	.st35{fill:#00B896;}
	.st36{fill:#FFC70E;}
	.st37{fill:#6A44A5;}
	.st38{fill:#232740;stroke:#232740;stroke-width:4;stroke-linecap:round;stroke-linejoin:round;stroke-miterlimit:10;}
	.st39{fill:#05ACED;}
	.st40{fill:#EA008A;}
	.st41{fill:#231F20;}
	.st42{fill:#FDF002;}
	.st43{fill:#BEC938;}
	.st44{fill:#139DD8;}
	.st45{fill:#BD2CAE;}
	.st46{fill:url(#SVGID_00000044160732998420824030000007446432865268225689_);}
	.st47{fill:#BDC938;}
	.st48{fill:#62B0D3;}
	.st49{fill:url(#SVGID_00000051384907939031540920000006177469419589449893_);}
	.st50{fill:#212121;}
	.st51{fill:#FF3927;}
	.st52{fill:#1A8DFF;}
	.st53{fill:#FFD500;}
	.st54{fill:#606060;}
	.st55{fill:#26A6DF;}
</style>
<g id="Layer_1">
</g>
<g id="Layer_2">
</g>
<g id="Layer_3">
</g>
<g id="Layer_4">
</g>
<g id="Layer_5">
</g>
<g id="Layer_6">
</g>
<g id="Layer_7">
</g>
<g id="Layer_8">
</g>
<g id="Layer_9">
</g>
<g id="Layer_10">
</g>
<g id="Layer_11">
</g>
<g id="Layer_12">
</g>
<g id="Layer_13">
</g>
<g id="Layer_14">
</g>
<g id="Layer_15">
	<path class="st1" d="M167.01,151.21c-1.92,0.21-4.56,3.3-5.48,4.44l-0.24-0.11c0.23-1.45,0.73-5.48-0.4-7.04
		c0,0,0.55-0.54,1.18-1.3l5.11,2.26C167.04,150.44,167.01,151.21,167.01,151.21z"/>
	<path class="st55" d="M171.14,99.18c0.01,0.04,0.01,0.06,0.01,0.06l0.42-1.09L171.14,99.18z"/>
	<path class="st55" d="M170.94,99.74c-1.29,3.71-1.8,8.11-1.51,12.86c-0.55-3.07-0.58-6.01-0.58-6.06c0-0.36-0.26-0.68-0.61-0.77
		c-0.03,0-0.06-0.01-0.09-0.01c-0.33-0.04-0.65,0.12-0.8,0.42c-4.17,7.98-3.47,17.72-2.47,23.56c-1.74-1.85-3.62-2.76-3.74-2.82
		c-0.08-0.03-0.16-0.06-0.25-0.07c-0.3-0.03-0.61,0.1-0.78,0.38c-0.21,0.35-0.12,0.8,0.2,1.05c2.58,1.96,3.72,4.56,4.12,7.08
		c0.02,0.1,0.03,0.19,0.05,0.29c-13.19-8.56-22.76-7.56-22.76-7.56l2.95-23.84l1.72-13.91C158.12,90.49,167.15,96.66,170.94,99.74z
		 M151.34,85.44l-0.02,0.14l-0.51,4.14c9.65-0.09,17.08,6.18,20.32,9.47l0.01-0.01l0.43-1.03l0.08-0.2
		C165.96,86.5,151.34,85.44,151.34,85.44z M159.49,82.96l-0.23,1.8l-0.2,1.63c7.73,1.52,11.26,7.3,12.79,11.16l0.36-0.68l0.17-0.31
		v-0.01C169.87,84.24,159.49,82.96,159.49,82.96z"/>
	<path class="st55" d="M190.79,77.37c-0.02,0.01-0.03,0.02-0.05,0.03l0.01-0.02L190.79,77.37z M166.78,134.18l0.24,0.65
		c-2.71-11.05-0.13-23.16,1-27.54c-0.01-0.34-0.02-0.54-0.02-0.54C162.58,117.33,165.91,131.06,166.78,134.18z M171.62,100.37
		c-1.28,4.11-1.42,8.56-1.1,12.83c0.08,1.05,0.18,2.1,0.33,3.15l0.47,2.51c-1.51-11.23,4.74-25.29,7.68-31.12
		c-1.32,2.04-2.64,4.08-3.96,6.12C173.67,95.97,172.37,97.96,171.62,100.37z M190.46,103.7L190.46,103.7
		c0.03-0.04,0.05-0.08,0.08-0.11C190.51,103.63,190.48,103.66,190.46,103.7z M190.54,103.59l0.65-0.91
		c-0.18,0.23-0.37,0.47-0.53,0.71C190.62,103.46,190.58,103.52,190.54,103.59z M198.21,80.6c0,0-0.09,0.17-0.26,0.46
		c-0.01,0.07-0.02,0.14-0.03,0.21l0.36-0.36C198.26,80.81,198.23,80.71,198.21,80.6z M198.21,80.6c0,0-0.09,0.17-0.26,0.46
		c-0.08,0.14-0.18,0.3-0.3,0.49l0.27-0.28l0.36-0.36C198.26,80.81,198.23,80.71,198.21,80.6z M190.26,77.67
		c-1.64,0.98-3.06,2.31-4.26,3.79c-2.49,3.09-4.11,6.83-5.27,10.6c-0.64,2.08-0.86,4.35-1.46,6.41l-0.08,0.6
		C179.19,99.08,185.19,82.04,190.26,77.67z M166.63,144.67l-0.14,0.34l-0.77-0.33l0.15-0.35L166.63,144.67z M190.54,103.59
		c-0.03,0.03-0.05,0.07-0.07,0.11h-0.01C190.48,103.66,190.51,103.63,190.54,103.59z M198.28,80.91l-0.36,0.36l-0.27,0.28
		c0.12-0.19,0.22-0.35,0.3-0.49c0.17-0.29,0.26-0.46,0.26-0.46C198.23,80.71,198.26,80.81,198.28,80.91z M191.19,102.68l1.83-2.56
		c-0.35,0.53-0.7,1.05-1.06,1.55C191.73,102.01,191.46,102.34,191.19,102.68z M166.63,144.67l-0.14,0.34l-0.77-0.33l0.15-0.35
		L166.63,144.67z M168.06,146.36c-0.48,0.83-0.75,2.08-0.89,3.1c-0.14,0.98-0.16,1.75-0.16,1.75c-1.92,0.21-4.56,3.3-5.48,4.44
		c-0.02,0.03-0.04,0.05-0.06,0.08l0.04-0.09l2.3-5.21c0.27,0.07,0.56-0.07,0.68-0.33c0.13-0.3,0-0.66-0.3-0.79s-0.66,0.01-0.79,0.31
		c-0.11,0.26-0.02,0.57,0.21,0.72l-2.3,5.21l-0.04,0.09c0.01-0.03,0.01-0.06,0.02-0.1c0.22-1.44,0.73-5.48-0.4-7.04
		c0,0,0.54-0.53,1.17-1.29c0.66-0.8,1.41-1.83,1.7-2.74L168.06,146.36z M166.63,144.67l-0.14,0.34l-0.77-0.33l0.15-0.35
		L166.63,144.67z M169.12,145.77l-0.4,0.88l-0.66-0.29c0.03-0.06,0.07-0.13,0.11-0.19l-4.35-1.92c-0.01,0.07-0.04,0.14-0.06,0.21
		l-0.67-0.29l0.4-0.89l1.03,0.45c-0.08,0.25-0.13,0.39-0.13,0.39l1.32,0.58l0.78,0.33l0.92,0.41c0,0,0.06-0.13,0.18-0.35
		L169.12,145.77z M190.38,103.84c0.03-0.04,0.05-0.09,0.08-0.14c0.02-0.04,0.05-0.07,0.08-0.11c0.04-0.07,0.08-0.13,0.12-0.2
		c0.16-0.24,0.35-0.48,0.53-0.71l1.83-2.56c2.99-4.55,5.68-10.11,5.68-15.6c0-0.33-0.01-0.66-0.03-0.99
		c-0.04-0.59-0.11-1.19-0.21-1.78c-0.05-0.28-0.11-0.56-0.18-0.84l-0.36,0.36l-0.27,0.28c-0.9,1.45-2.81,4.16-5.17,5.31
		c0.01-0.03,0.05-0.09,0.11-0.17c1.05-1.57,8.55-13.07,6.86-21.4c0,0-1.19,1.59-2.71,4.23c-2.25,3.9-5.21,10.11-6.12,16.94
		c0,0-2.57-2.78,0.12-9.07c-0.17,0.09-0.33,0.18-0.48,0.28c-1.64,0.98-3.06,2.31-4.26,3.79c-2.49,3.09-4.11,6.84-5.27,10.61
		c-0.64,2.08-0.86,4.35-1.46,6.41c-0.04,0.16-0.09,0.31-0.14,0.46c-0.7-1.91-0.52-4.54-0.35-6.54c0.15-1.74,0.33-4.41,1.21-6.06
		c-1.52,2.3-3.03,4.6-4.54,6.91c-1.29,1.97-2.68,3.87-3.52,6.09c-1.7,4.44-2.06,9.59-1.61,14.5c0.16,1.68,0.41,3.33,0.73,4.92
		c0.02,0.06,0.03,0.12,0.04,0.17c0,0.01,0,0.01,0,0.01c0,0.02,0.01,0.03,0.01,0.05c-3-3.32-3.05-12.44-3.05-12.44
		c-5.64,10.8-2.11,25-1.38,27.64c-1.38-4.29-5.59-6.42-5.86-6.54c6.7,5.1,4.33,14.1,3.71,16.08l1.35,0.6l0.76,0.34l0.96,0.42
		c1.02-1.78,5.99-9.7,14.32-8.26c0,0-4.59-1.81-8.8,0.17c0.06-0.03,0.13-0.06,0.2-0.1l-0.63,0.27c9.87-5.64,16.9-15.84,19.3-19.68
		c-1.52,1.33-6.96,5.84-10.77,5.9c0.74-0.45,1.47-0.94,2.18-1.46l-2.15,1.39c9.2-6.62,15.13-20.81,17.35-26.95
		c0.17-0.7,0.35-1.4,0.52-2.11c-1,1.98-2.27,3.81-3.76,5.44C194.02,101.17,192.23,103.07,190.38,103.84z"/>
</g>
</svg>
