<?xml version="1.0" encoding="utf-8"?>
<!-- Generator: Adobe Illustrator 27.8.1, SVG Export Plug-In . SVG Version: 6.00 Build 0)  -->
<svg version="1.1" xmlns="http://www.w3.org/2000/svg" xmlns:xlink="http://www.w3.org/1999/xlink" x="0px" y="0px"
	 viewBox="0 0 350 230" style="enable-background:new 0 0 350 230;" xml:space="preserve">
<style type="text/css">
	.st0{fill:#434947;}
	.st1{fill:#FFFFFF;}
	.st2{fill:#00E9E9;}
	.st3{fill:#A06EFF;}
	.st4{fill:#FF5F81;}
	.st5{fill:#192E40;}
	.st6{fill:#FFDD00;}
	.st7{fill:#FF3D9B;}
	.st8{fill:#00BAEB;}
	.st9{fill:#09093C;}
	.st10{fill:#35AF9D;}
	.st11{fill:#00BAFA;}
	.st12{fill:#FFC300;}
	.st13{fill:#064037;}
	.st14{fill:#6D919C;}
	.st15{fill:#67B8FD;}
	.st16{fill:#464758;}
	.st17{fill:url(#SVGID_1_);}
	.st18{fill:none;}
	.st19{fill:#DE3B0F;}
	.st20{fill:#E86317;}
	.st21{fill:#F09C29;}
	.st22{fill:#708D23;}
	.st23{fill:#9BC344;}
	.st24{fill:url(#SVGID_00000182504992469261654250000008594986577875821473_);}
	.st25{fill:url(#SVGID_00000148656945043160091950000001963997842992422531_);}
	.st26{fill:#4EB8FF;}
	.st27{fill:#EC008B;}
	.st28{fill:#F7C211;}
	.st29{fill:#B8E5E7;}
	.st30{fill:#232740;}
	.st31{fill:none;stroke:#232740;stroke-width:4;stroke-linecap:round;stroke-linejoin:round;stroke-miterlimit:10;}
	.st32{fill:#00B4D7;}
	.st33{fill:#FF2C3D;}
	.st34{fill:#FF8B00;}
	.st35{fill:#00B896;}
	.st36{fill:#FFC70E;}
	.st37{fill:#6A44A5;}
	.st38{fill:#232740;stroke:#232740;stroke-width:4;stroke-linecap:round;stroke-linejoin:round;stroke-miterlimit:10;}
	.st39{fill:#05ACED;}
	.st40{fill:#EA008A;}
	.st41{fill:#231F20;}
	.st42{fill:#FDF002;}
	.st43{fill:#BEC938;}
	.st44{fill:#139DD8;}
	.st45{fill:#BD2CAE;}
	.st46{fill:url(#SVGID_00000152241298331063988380000016764858198041680572_);}
	.st47{fill:#BDC938;}
	.st48{fill:#62B0D3;}
	.st49{fill:url(#SVGID_00000099621814307412919400000007102463843479247534_);}
	.st50{fill:#212121;}
	.st51{fill:#FF3927;}
	.st52{fill:#1A8DFF;}
	.st53{fill:#FFD500;}
	.st54{fill:#606060;}
	.st55{fill:#26A6DF;}
</style>
<g id="Layer_1">
</g>
<g id="Layer_2">
	<g>
		<g>
			<g>
				<path class="st5" d="M129.71,132.37c0.12,2,1.78,3.59,3.81,3.59h24.02v-3.59H129.71z"/>
				<path class="st5" d="M192.46,132.37v3.59h24.02c2.03,0,3.69-1.59,3.81-3.59H192.46z"/>
			</g>
		</g>
		<g>
			<g>
				<polygon class="st5" points="181.38,73.76 179.48,62.74 158.44,62.74 158.44,89.31 191.56,89.31 191.56,73.76 				"/>
				<polygon class="st5" points="191.48,70.95 182.19,62.75 183.53,70.86 				"/>
			</g>
		</g>
		<g>
			<g>
				<path class="st5" d="M154.82,73.59L154.82,73.59v15.72h-4.52v-11.2C150.3,75.61,152.32,73.59,154.82,73.59z"/>
				<path class="st5" d="M195.18,73.59L195.18,73.59v15.72h4.52v-11.2C199.7,75.61,197.68,73.59,195.18,73.59z"/>
			</g>
		</g>
		<path class="st5" d="M216.48,93.42h-82.97c-2.11,0-3.82,1.71-3.82,3.82v31.43h27.84v-3.9l-4.92-0.03l-9.56-0.05l7.37-6.08
			l22.46-18.5l2.23-1.83l2.2,1.86l22.28,18.82l7.28,6.15l-9.53-0.05l-4.88-0.03v3.64h27.84V97.23
			C220.3,95.13,218.59,93.42,216.48,93.42z M140.54,108.22h-3.75c-0.99,0-1.79-0.8-1.79-1.79c0-0.99,0.8-1.79,1.79-1.79h3.75
			c0.99,0,1.79,0.8,1.79,1.79C142.33,107.42,141.53,108.22,140.54,108.22z M140.54,101.41h-3.75c-0.99,0-1.79-0.8-1.79-1.79
			c0-0.99,0.8-1.79,1.79-1.79h3.75c0.99,0,1.79,0.8,1.79,1.79C142.33,100.61,141.53,101.41,140.54,101.41z"/>
		<g>
			<path class="st6" d="M181.54,108.29v36.62h-5.75v-25.04c2.25-0.38,3.96-2.33,3.96-4.68s-1.71-4.3-3.96-4.68v-7.08L181.54,108.29z
				"/>
			<polygon class="st5" points="197.28,121.59 188.92,121.55 188.92,144.91 183.11,144.91 183.11,109.62 			"/>
			<path class="st7" d="M170.26,115.19c0,2.35,1.71,4.3,3.96,4.68v25.04h-5.75v-36.62l5.75-4.86v7.08
				C171.97,110.89,170.26,112.84,170.26,115.19z"/>
			<polygon class="st8" points="166.89,109.62 166.89,144.91 161.08,144.91 161.08,121.55 152.72,121.59 			"/>
		</g>
	</g>
</g>
<g id="Layer_3">
</g>
<g id="Layer_4">
</g>
<g id="Layer_5">
</g>
<g id="Layer_6">
</g>
<g id="Layer_7">
</g>
<g id="Layer_8">
</g>
<g id="Layer_9">
</g>
<g id="Layer_10">
</g>
<g id="Layer_11">
</g>
<g id="Layer_12">
</g>
<g id="Layer_13">
</g>
<g id="Layer_14">
</g>
<g id="Layer_15">
</g>
</svg>
