<?xml version="1.0" encoding="utf-8"?>
<!-- Generator: Adobe Illustrator 27.8.1, SVG Export Plug-In . SVG Version: 6.00 Build 0)  -->
<svg version="1.1" xmlns="http://www.w3.org/2000/svg" xmlns:xlink="http://www.w3.org/1999/xlink" x="0px" y="0px"
	 viewBox="0 0 350 230" style="enable-background:new 0 0 350 230;" xml:space="preserve">
<style type="text/css">
	.st0{fill:#434947;}
	.st1{fill:#FFFFFF;}
	.st2{fill:#00E9E9;}
	.st3{fill:#A06EFF;}
	.st4{fill:#FF5F81;}
	.st5{fill:#192E40;}
	.st6{fill:#FFDD00;}
	.st7{fill:#FF3D9B;}
	.st8{fill:#00BAEB;}
	.st9{fill:#09093C;}
	.st10{fill:#35AF9D;}
	.st11{fill:#00BAFA;}
	.st12{fill:#FFC300;}
	.st13{fill:#064037;}
	.st14{fill:#6D919C;}
	.st15{fill:#67B8FD;}
	.st16{fill:#464758;}
	.st17{fill:url(#SVGID_1_);}
	.st18{fill:none;}
	.st19{fill:#DE3B0F;}
	.st20{fill:#E86317;}
	.st21{fill:#F09C29;}
	.st22{fill:#708D23;}
	.st23{fill:#9BC344;}
	.st24{fill:url(#SVGID_00000017491244960651670480000003745009453088978100_);}
	.st25{fill:url(#SVGID_00000073682680108407214240000003696026887565527462_);}
	.st26{fill:#4EB8FF;}
	.st27{fill:#EC008B;}
	.st28{fill:#F7C211;}
	.st29{fill:#B8E5E7;}
	.st30{fill:#232740;}
	.st31{fill:none;stroke:#232740;stroke-width:4;stroke-linecap:round;stroke-linejoin:round;stroke-miterlimit:10;}
	.st32{fill:#00B4D7;}
	.st33{fill:#FF2C3D;}
	.st34{fill:#FF8B00;}
	.st35{fill:#00B896;}
	.st36{fill:#FFC70E;}
	.st37{fill:#6A44A5;}
	.st38{fill:#232740;stroke:#232740;stroke-width:4;stroke-linecap:round;stroke-linejoin:round;stroke-miterlimit:10;}
	.st39{fill:#05ACED;}
	.st40{fill:#EA008A;}
	.st41{fill:#231F20;}
	.st42{fill:#FDF002;}
	.st43{fill:#BEC938;}
	.st44{fill:#139DD8;}
	.st45{fill:#BD2CAE;}
	.st46{fill:url(#SVGID_00000122685675940440379260000014172179920425074355_);}
	.st47{fill:#BDC938;}
	.st48{fill:#62B0D3;}
	.st49{fill:url(#SVGID_00000060012653934564651000000015427757905107807368_);}
	.st50{fill:#212121;}
	.st51{fill:#FF3927;}
	.st52{fill:#1A8DFF;}
	.st53{fill:#FFD500;}
	.st54{fill:#606060;}
	.st55{fill:#26A6DF;}
</style>
<g id="Layer_1">
</g>
<g id="Layer_2">
</g>
<g id="Layer_3">
	<g>
		<path class="st6" d="M199.77,97.78h-49.55V64.82c0-1.15,0.93-2.08,2.08-2.08h45.39c1.15,0,2.08,0.93,2.08,2.08V97.78z"/>
		<g>
			<path class="st9" d="M143.29,137.57h-1.75c-1.71,0-3.09-1.38-3.09-3.09v-0.52h7.93v0.52C146.38,136.19,145,137.57,143.29,137.57z
				"/>
			<path class="st9" d="M208.46,137.57h-1.75c-1.71,0-3.09-1.38-3.09-3.09v-0.52h7.93v0.52
				C211.55,136.19,210.17,137.57,208.46,137.57z"/>
		</g>
		<path class="st8" d="M211.51,89.69h-8.26v5.2h3.7v5.98h-3.7h-56.51h-3.7V94.9h3.7v-5.2h-8.26c-4.08,0-7.38,3.31-7.38,7.38v26.25
			c0,4.08,3.31,7.38,7.38,7.38h7.95v-8.85c0-2.34,1.9-4.24,4.24-4.24h48.66c2.34,0,4.24,1.9,4.24,4.24v8.85h7.95
			c4.08,0,7.38-3.31,7.38-7.38V97.08C218.9,93,215.59,89.69,211.51,89.69z M198.54,113.57c-1.88,0-3.41-1.53-3.41-3.41
			s1.53-3.41,3.41-3.41c1.88,0,3.41,1.53,3.41,3.41S200.43,113.57,198.54,113.57z M208.57,113.57c-1.88,0-3.41-1.53-3.41-3.41
			s1.53-3.41,3.41-3.41c1.88,0,3.41,1.53,3.41,3.41S210.46,113.57,208.57,113.57z"/>
		<path class="st7" d="M198.29,122.12h-46.59c-0.82,0-1.48,0.66-1.48,1.48v21.31h49.55V123.6
			C199.77,122.78,199.11,122.12,198.29,122.12z M196,135.67H154v-2.24H196V135.67z M196,130.19H154v-2.24H196V130.19z"/>
	</g>
</g>
<g id="Layer_4">
</g>
<g id="Layer_5">
</g>
<g id="Layer_6">
</g>
<g id="Layer_7">
</g>
<g id="Layer_8">
</g>
<g id="Layer_9">
</g>
<g id="Layer_10">
</g>
<g id="Layer_11">
</g>
<g id="Layer_12">
</g>
<g id="Layer_13">
</g>
<g id="Layer_14">
</g>
<g id="Layer_15">
</g>
</svg>
