<?xml version="1.0" encoding="utf-8"?>
<!-- Generator: Adobe Illustrator 27.8.1, SVG Export Plug-In . SVG Version: 6.00 Build 0)  -->
<svg version="1.1" xmlns="http://www.w3.org/2000/svg" xmlns:xlink="http://www.w3.org/1999/xlink" x="0px" y="0px"
	 viewBox="0 0 350 230" style="enable-background:new 0 0 350 230;" xml:space="preserve">
<style type="text/css">
	.st0{fill:#434947;}
	.st1{fill:#FFFFFF;}
	.st2{fill:#00E9E9;}
	.st3{fill:#A06EFF;}
	.st4{fill:#FF5F81;}
	.st5{fill:#192E40;}
	.st6{fill:#FFDD00;}
	.st7{fill:#FF3D9B;}
	.st8{fill:#00BAEB;}
	.st9{fill:#09093C;}
	.st10{fill:#35AF9D;}
	.st11{fill:#00BAFA;}
	.st12{fill:#FFC300;}
	.st13{fill:#064037;}
	.st14{fill:#6D919C;}
	.st15{fill:#67B8FD;}
	.st16{fill:#464758;}
	.st17{fill:url(#SVGID_1_);}
	.st18{fill:none;}
	.st19{fill:#DE3B0F;}
	.st20{fill:#E86317;}
	.st21{fill:#F09C29;}
	.st22{fill:#708D23;}
	.st23{fill:#9BC344;}
	.st24{fill:url(#SVGID_00000121264607389556655380000000327949161137649577_);}
	.st25{fill:url(#SVGID_00000090292152757911761840000000546861052196582528_);}
	.st26{fill:#4EB8FF;}
	.st27{fill:#EC008B;}
	.st28{fill:#F7C211;}
	.st29{fill:#B8E5E7;}
	.st30{fill:#232740;}
	.st31{fill:none;stroke:#232740;stroke-width:4;stroke-linecap:round;stroke-linejoin:round;stroke-miterlimit:10;}
	.st32{fill:#00B4D7;}
	.st33{fill:#FF2C3D;}
	.st34{fill:#FF8B00;}
	.st35{fill:#00B896;}
	.st36{fill:#FFC70E;}
	.st37{fill:#6A44A5;}
	.st38{fill:#232740;stroke:#232740;stroke-width:4;stroke-linecap:round;stroke-linejoin:round;stroke-miterlimit:10;}
	.st39{fill:#05ACED;}
	.st40{fill:#EA008A;}
	.st41{fill:#231F20;}
	.st42{fill:#FDF002;}
	.st43{fill:#BEC938;}
	.st44{fill:#139DD8;}
	.st45{fill:#BD2CAE;}
	.st46{fill:url(#SVGID_00000181807258514685023450000002776050537599071379_);}
	.st47{fill:#BDC938;}
	.st48{fill:#62B0D3;}
	.st49{fill:url(#SVGID_00000096035582688076941300000000163414917620334209_);}
	.st50{fill:#212121;}
	.st51{fill:#FF3927;}
	.st52{fill:#1A8DFF;}
	.st53{fill:#FFD500;}
	.st54{fill:#606060;}
	.st55{fill:#26A6DF;}
</style>
<g id="Layer_1">
</g>
<g id="Layer_2">
</g>
<g id="Layer_3">
</g>
<g id="Layer_4">
	<g>
		<g>
			<path class="st10" d="M137.96,119.43v11.09c0,2.27,1.84,4.12,4.12,4.12h0c2.27,0,4.12-1.84,4.12-4.12v-2.14
				c0-2.27,1.84-4.12,4.12-4.12s4.12,1.84,4.12,4.12v-8.95H137.96z"/>
			<path class="st10" d="M154.42,119.43v19.97c0,2.27,1.84,4.12,4.12,4.12h0c2.27,0,4.12-1.84,4.12-4.12v-19.97H154.42z"/>
			<path class="st11" d="M170.83,136.78v1.09c0,2.27,1.84,4.12,4.12,4.12h0c2.27,0,4.12-1.84,4.12-4.12v-1.09
				c0-2.27-1.84-4.12-4.12-4.12l0,0C172.67,132.66,170.83,134.51,170.83,136.78z"/>
			<g>
				<path class="st11" d="M162.65,125.63c0-2.27,1.84-4.12,4.12-4.12c2.27,0,4.12,1.84,4.12,4.12v-6.19h-8.23V125.63z"/>
				<path class="st11" d="M170.88,119.43v7.2c0,2.27,1.84,4.12,4.12,4.12c2.27,0,4.12-1.84,4.12-4.12v0.33
					c0-2.27,1.84-4.12,4.12-4.12c2.27,0,4.12,1.84,4.12,4.12v-7.54H170.88z"/>
			</g>
			<path class="st12" d="M187.35,119.43v14.53c0,2.27,1.84,4.12,4.12,4.12s4.12-1.84,4.12-4.12v-5.58c0-2.27,1.84-4.12,4.12-4.12
				s4.12,1.84,4.12,4.12v2.14c0,2.27,1.84,4.12,4.12,4.12s4.12-1.84,4.12-4.12v-11.09H187.35z"/>
		</g>
		<path class="st13" d="M216.78,86.71c2.09-2.46,3.36-5.64,3.36-9.12v-0.77c0-7.78-6.3-14.08-14.08-14.08h-62.12
			c-7.78,0-14.08,6.3-14.08,14.08v0.77c0,3.48,1.26,6.66,3.36,9.12c0.28,0.33,0.43,0.76,0.43,1.2v3.69c0,1.04-0.85,1.89-1.89,1.89
			v12.36h2.32v13.6h81.83v-13.6h2.32V93.49c-1.04,0-1.89-0.85-1.89-1.89v-3.69C216.35,87.47,216.5,87.04,216.78,86.71z
			 M139.84,93.53c0,0,66.92-3.2,70.93,0H139.84z M211.99,115.53h-73.98v-9.68h73.98V115.53z M216.22,77.59c0,0,0,0.01,0,0.01
			c0,0.81-0.69,1.46-1.5,1.46h-79.43c-0.81,0-1.5-0.65-1.5-1.46c0,0,0-0.01,0-0.01v-0.77c0-1.26,0.23-2.46,0.65-3.57
			c0.22-0.59,0.78-0.98,1.41-0.98h78.31c0.63,0,1.19,0.39,1.41,0.98c0.42,1.11,0.65,2.31,0.65,3.57V77.59z"/>
	</g>
</g>
<g id="Layer_5">
</g>
<g id="Layer_6">
</g>
<g id="Layer_7">
</g>
<g id="Layer_8">
</g>
<g id="Layer_9">
</g>
<g id="Layer_10">
</g>
<g id="Layer_11">
</g>
<g id="Layer_12">
</g>
<g id="Layer_13">
</g>
<g id="Layer_14">
</g>
<g id="Layer_15">
</g>
</svg>
