<?xml version="1.0" encoding="utf-8"?>
<!-- Generator: Adobe Illustrator 27.8.1, SVG Export Plug-In . SVG Version: 6.00 Build 0)  -->
<svg version="1.1" xmlns="http://www.w3.org/2000/svg" xmlns:xlink="http://www.w3.org/1999/xlink" x="0px" y="0px"
	 viewBox="0 0 350 230" style="enable-background:new 0 0 350 230;" xml:space="preserve">
<style type="text/css">
	.st0{fill:#434947;}
	.st1{fill:#FFFFFF;}
	.st2{fill:#00E9E9;}
	.st3{fill:#A06EFF;}
	.st4{fill:#FF5F81;}
	.st5{fill:#192E40;}
	.st6{fill:#FFDD00;}
	.st7{fill:#FF3D9B;}
	.st8{fill:#00BAEB;}
	.st9{fill:#09093C;}
	.st10{fill:#35AF9D;}
	.st11{fill:#00BAFA;}
	.st12{fill:#FFC300;}
	.st13{fill:#064037;}
	.st14{fill:#6D919C;}
	.st15{fill:#67B8FD;}
	.st16{fill:#464758;}
	.st17{fill:url(#SVGID_1_);}
	.st18{fill:none;}
	.st19{fill:#DE3B0F;}
	.st20{fill:#E86317;}
	.st21{fill:#F09C29;}
	.st22{fill:#708D23;}
	.st23{fill:#9BC344;}
	.st24{fill:url(#SVGID_00000183219731218534613650000012036531468178876836_);}
	.st25{fill:url(#SVGID_00000085949276164595685610000017220622836337416347_);}
	.st26{fill:#4EB8FF;}
	.st27{fill:#EC008B;}
	.st28{fill:#F7C211;}
	.st29{fill:#B8E5E7;}
	.st30{fill:#232740;}
	.st31{fill:none;stroke:#232740;stroke-width:4;stroke-linecap:round;stroke-linejoin:round;stroke-miterlimit:10;}
	.st32{fill:#00B4D7;}
	.st33{fill:#FF2C3D;}
	.st34{fill:#FF8B00;}
	.st35{fill:#00B896;}
	.st36{fill:#FFC70E;}
	.st37{fill:#6A44A5;}
	.st38{fill:#232740;stroke:#232740;stroke-width:4;stroke-linecap:round;stroke-linejoin:round;stroke-miterlimit:10;}
	.st39{fill:#05ACED;}
	.st40{fill:#EA008A;}
	.st41{fill:#231F20;}
	.st42{fill:#FDF002;}
	.st43{fill:#BEC938;}
	.st44{fill:#139DD8;}
	.st45{fill:#BD2CAE;}
	.st46{fill:url(#SVGID_00000149342344379689180090000011638541463826262186_);}
	.st47{fill:#BDC938;}
	.st48{fill:#62B0D3;}
	.st49{fill:url(#SVGID_00000061455690529367550380000002493026119353148578_);}
	.st50{fill:#212121;}
	.st51{fill:#FF3927;}
	.st52{fill:#1A8DFF;}
	.st53{fill:#FFD500;}
	.st54{fill:#606060;}
	.st55{fill:#26A6DF;}
</style>
<g id="Layer_1">
</g>
<g id="Layer_2">
</g>
<g id="Layer_3">
</g>
<g id="Layer_4">
</g>
<g id="Layer_5">
</g>
<g id="Layer_6">
	<g>
		<rect x="195.74" y="95.61" class="st16" width="22.51" height="4.72"/>
		<rect x="124.42" y="95.61" class="st16" width="22.51" height="4.72"/>
		<polygon class="st16" points="214,100.33 195.74,100.33 162.21,58.79 180.47,58.79 		"/>
		<polygon class="st16" points="128.67,100.33 146.93,100.33 180.47,58.79 162.21,58.79 		"/>
	</g>
	<path class="st18" d="M188.5,117.69c-4.41,4.36-10.47,7.05-17.16,7.05c-6.69,0-12.75-2.69-17.16-7.05
		c-4.47-4.43-7.25-10.57-7.25-17.36l0,0l24.41-30.23l24.41,30.23l0,0C195.75,107.12,192.97,113.26,188.5,117.69z"/>
	<g>
		<g id="XMLID_00000046331586603258148630000000945215692650177690_">
			<g>
				<path class="st19" d="M171.32,100.33l11.07,19.17c-2.13,1.23-4.45,2.1-6.88,2.56L171.32,100.33z"/>
				<path class="st20" d="M171.32,100.33l4.18,21.73c-1.36,0.26-2.75,0.39-4.17,0.39c-1.42,0-2.83-0.13-4.19-0.4L171.32,100.33z"/>
				<path class="st21" d="M171.32,100.33l-4.18,21.72c-2.43-0.46-4.75-1.33-6.88-2.56L171.32,100.33z"/>
			</g>
		</g>
	</g>
	<g>
		<path class="st22" d="M195.75,100.33c0,6.79-2.77,12.93-7.25,17.35c-4.41,4.36-10.47,7.05-17.16,7.05
			c-6.69,0-12.75-2.69-17.16-7.05c-4.47-4.43-7.25-10.57-7.25-17.36h-18.26c0,11.83,4.82,22.54,12.6,30.27
			c7.71,7.67,18.34,12.4,30.07,12.4s22.36-4.73,30.07-12.4c7.78-7.73,12.6-18.44,12.6-30.27H195.75z"/>
		<path class="st23" d="M204.09,100.33h-8.35c0,6.79-2.77,12.93-7.25,17.35c-4.41,4.36-10.47,7.05-17.16,7.05
			c-6.69,0-12.75-2.69-17.16-7.05c-4.47-4.43-7.25-10.57-7.25-17.36h-8.38c-0.01,5.57,1.4,11.22,4.39,16.39
			c9.05,15.68,29.1,21.05,44.78,12C198.22,122.65,204.08,111.65,204.09,100.33z"/>
		<path class="st22" d="M159.12,121.46l-9.13,15.81c-3.2-1.84-6.12-4.09-8.73-6.68c-7.78-7.73-12.6-18.43-12.6-30.27h18.26
			c0,6.79,2.77,12.93,7.24,17.36C155.65,119.15,157.31,120.41,159.12,121.46z"/>
		<path class="st22" d="M195.75,100.33h18.26c0,11.83-4.82,22.54-12.6,30.27c-2.61,2.59-5.55,4.85-8.75,6.69l-9.13-15.81
			c1.81-1.05,3.48-2.32,4.97-3.79C192.97,113.26,195.75,107.12,195.75,100.33z"/>
		<path class="st23" d="M146.93,100.33h-8.39c-0.01,5.57,1.4,11.22,4.39,16.39c2.99,5.17,7.17,9.21,12,11.99l4.19-7.26
			c-1.81-1.04-3.47-2.31-4.95-3.77C149.7,113.26,146.93,107.12,146.93,100.33z"/>
		<path class="st23" d="M204.09,100.33h-8.35c0,6.79-2.77,12.93-7.25,17.36c-1.48,1.47-3.15,2.74-4.97,3.79l4.18,7.24
			C198.22,122.65,204.08,111.65,204.09,100.33z"/>
	</g>
	<linearGradient id="SVGID_1_" gradientUnits="userSpaceOnUse" x1="167.9581" y1="91.6787" x2="173.9062" y2="91.6787">
		<stop  offset="0" style="stop-color:#464758"/>
		<stop  offset="1" style="stop-color:#090B23"/>
	</linearGradient>
	<path class="st17" d="M166.51,83.65v8.73l4.43,7.33v-7.84c-0.66-0.17-1.14-0.76-1.14-1.47c0-0.83,0.68-1.52,1.52-1.52
		c0.83,0,1.52,0.68,1.52,1.52c0,0.71-0.49,1.31-1.14,1.48v7.82l4.43-7.33v-8.72H166.51z"/>
</g>
<g id="Layer_7">
</g>
<g id="Layer_8">
</g>
<g id="Layer_9">
</g>
<g id="Layer_10">
</g>
<g id="Layer_11">
</g>
<g id="Layer_12">
</g>
<g id="Layer_13">
</g>
<g id="Layer_14">
</g>
<g id="Layer_15">
</g>
</svg>
