<?xml version="1.0" encoding="utf-8"?>
<!-- Generator: Adobe Illustrator 27.8.1, SVG Export Plug-In . SVG Version: 6.00 Build 0)  -->
<svg version="1.1" xmlns="http://www.w3.org/2000/svg" xmlns:xlink="http://www.w3.org/1999/xlink" x="0px" y="0px"
	 viewBox="0 0 350 230" style="enable-background:new 0 0 350 230;" xml:space="preserve">
<style type="text/css">
	.st0{fill:#434947;}
	.st1{fill:#FFFFFF;}
	.st2{fill:#00E9E9;}
	.st3{fill:#A06EFF;}
	.st4{fill:#FF5F81;}
	.st5{fill:#192E40;}
	.st6{fill:#FFDD00;}
	.st7{fill:#FF3D9B;}
	.st8{fill:#00BAEB;}
	.st9{fill:#09093C;}
	.st10{fill:#35AF9D;}
	.st11{fill:#00BAFA;}
	.st12{fill:#FFC300;}
	.st13{fill:#064037;}
	.st14{fill:#6D919C;}
	.st15{fill:#67B8FD;}
	.st16{fill:#464758;}
	.st17{fill:url(#SVGID_1_);}
	.st18{fill:none;}
	.st19{fill:#DE3B0F;}
	.st20{fill:#E86317;}
	.st21{fill:#F09C29;}
	.st22{fill:#708D23;}
	.st23{fill:#9BC344;}
	.st24{fill:url(#SVGID_00000038388350185546172770000008842200434117192834_);}
	.st25{fill:url(#SVGID_00000013899789534276208870000001449053963047645118_);}
	.st26{fill:#4EB8FF;}
	.st27{fill:#EC008B;}
	.st28{fill:#F7C211;}
	.st29{fill:#B8E5E7;}
	.st30{fill:#232740;}
	.st31{fill:none;stroke:#232740;stroke-width:4;stroke-linecap:round;stroke-linejoin:round;stroke-miterlimit:10;}
	.st32{fill:#00B4D7;}
	.st33{fill:#FF2C3D;}
	.st34{fill:#FF8B00;}
	.st35{fill:#00B896;}
	.st36{fill:#FFC70E;}
	.st37{fill:#6A44A5;}
	.st38{fill:#232740;stroke:#232740;stroke-width:4;stroke-linecap:round;stroke-linejoin:round;stroke-miterlimit:10;}
	.st39{fill:#05ACED;}
	.st40{fill:#EA008A;}
	.st41{fill:#231F20;}
	.st42{fill:#FDF002;}
	.st43{fill:#BEC938;}
	.st44{fill:#139DD8;}
	.st45{fill:#BD2CAE;}
	.st46{fill:url(#SVGID_00000072282544681737591030000013041380198235409594_);}
	.st47{fill:#BDC938;}
	.st48{fill:#62B0D3;}
	.st49{fill:url(#SVGID_00000164480117459151845780000006165756182895995570_);}
	.st50{fill:#212121;}
	.st51{fill:#FF3927;}
	.st52{fill:#1A8DFF;}
	.st53{fill:#FFD500;}
	.st54{fill:#606060;}
	.st55{fill:#26A6DF;}
</style>
<g id="Layer_1">
</g>
<g id="Layer_2">
</g>
<g id="Layer_3">
</g>
<g id="Layer_4">
</g>
<g id="Layer_5">
</g>
<g id="Layer_6">
</g>
<g id="Layer_7">
	<g>
		<g>
			<g>
				<path class="st6" d="M171.45,121.86c0.59-3.34,1.35-6.45,2.29-9.37c-1.11-3.31-2.43-6.27-3.95-8.95c-0.47,1-1.05,2.07-1.6,2.69
					c0.36-2.01,0.38-3.64,0.31-4.83c-4.22-6.59-9.7-11.5-16.11-16.23c-11.75-8.66-12.68-22.27-12.68-22.27s-1.13,3.51-1.46,8.88
					c1.22,3.38,3.48,8.18,7.06,10.63c-0.78,0-4.12-0.94-6.89-2.86c0.36,3.43,1.15,7.17,2.63,10.99c2.27,1.59,6.54,4.39,10.29,5.79
					c-2.3,0-5.57-0.69-8.27-1.38c0.57,1.07,1.2,2.14,1.9,3.2c8.53,13.03,20.32,20.19,26.2,25.28
					C171.26,122.93,171.35,122.4,171.45,121.86z"/>
				<linearGradient id="SVGID_1_" gradientUnits="userSpaceOnUse" x1="174.9445" y1="129.2432" x2="181.8788" y2="142.9269">
					<stop  offset="0" style="stop-color:#FBE900"/>
					<stop  offset="1" style="stop-color:#FF7127"/>
				</linearGradient>
				<path class="st17" d="M176.23,133.4c0.65,2.95,0.89,5.09,0.89,5.09l2.47,4.51c0,0,0-1.16-2.2-13.88
					C176.91,130.61,176.53,132.08,176.23,133.4z"/>
			</g>
			<path class="st7" d="M173.81,122.28c1.35-7.61,3.53-13.66,6.41-18.73c0.47,1,1.05,2.07,1.6,2.69c-0.36-2.01-0.38-3.64-0.31-4.83
				c4.22-6.59,9.7-11.5,16.11-16.23c11.75-8.66,12.68-22.27,12.68-22.27s1.13,3.51,1.46,8.88c-1.22,3.38-3.48,8.18-7.06,10.63
				c0.78,0,4.12-0.94,6.89-2.86c-0.36,3.43-1.15,7.17-2.63,10.99c-2.27,1.59-6.54,4.39-10.29,5.79c2.3,0,5.57-0.69,8.27-1.38
				c-0.57,1.07-1.2,2.14-1.9,3.2c-11.13,17-27.83,24.01-29.68,29.47c-1.86,5.46-2.47,10.85-2.47,10.85l-2.47,4.51
				C170.41,143,170.41,141.45,173.81,122.28z"/>
		</g>
		<g>
			<path class="st16" d="M174.04,93.29c-1.81-0.4-5.1-1.44-7.84-2.69c2.26,5.54,7.04,10.2,8.39,11.44
				C174.32,99.13,174.15,96.21,174.04,93.29z"/>
			<g>
				<g>
					<path class="st3" d="M170.2,69.95c0.49,0.74,2,2.9,3.78,4.32c0.13-5.17,0.36-10.32,0.82-15.47
						C174.25,62,172.25,65.86,170.2,69.95z"/>
					<path class="st3" d="M173.87,80.89c0.02-2.12,0.05-4.24,0.1-6.36c-1.04-0.33-3.17-1.16-4.66-2.8
						c-2.4,5.14-4.94,10.01-4.13,15.39c1.98,1.63,5.77,4.58,8.85,5.92C173.88,89,173.84,84.95,173.87,80.89z"/>
				</g>
			</g>
			<path class="st16" d="M175.96,93.29c1.81-0.4,5.1-1.44,7.84-2.69c-2.26,5.54-7.04,10.2-8.39,11.44
				C175.68,99.13,175.85,96.21,175.96,93.29z"/>
			<g>
				<g>
					<path class="st3" d="M179.8,69.95c-0.49,0.74-2,2.9-3.78,4.32c-0.13-5.17-0.36-10.32-0.82-15.47
						C175.75,62,177.75,65.86,179.8,69.95z"/>
					<path class="st3" d="M176.13,80.89c-0.02-2.12-0.05-4.24-0.1-6.36c1.04-0.33,3.17-1.16,4.66-2.8
						c2.4,5.14,4.94,10.01,4.13,15.39c-1.98,1.63-5.77,4.58-8.85,5.92C176.12,89,176.16,84.95,176.13,80.89z"/>
				</g>
			</g>
		</g>
	</g>
</g>
<g id="Layer_8">
</g>
<g id="Layer_9">
</g>
<g id="Layer_10">
</g>
<g id="Layer_11">
</g>
<g id="Layer_12">
</g>
<g id="Layer_13">
</g>
<g id="Layer_14">
</g>
<g id="Layer_15">
</g>
</svg>
