<?xml version="1.0" encoding="utf-8"?>
<!-- Generator: Adobe Illustrator 27.8.1, SVG Export Plug-In . SVG Version: 6.00 Build 0)  -->
<svg version="1.1" xmlns="http://www.w3.org/2000/svg" xmlns:xlink="http://www.w3.org/1999/xlink" x="0px" y="0px"
	 viewBox="0 0 350 230" style="enable-background:new 0 0 350 230;" xml:space="preserve">
<style type="text/css">
	.st0{fill:#434947;}
	.st1{fill:#FFFFFF;}
	.st2{fill:#00E9E9;}
	.st3{fill:#A06EFF;}
	.st4{fill:#FF5F81;}
	.st5{fill:#192E40;}
	.st6{fill:#FFDD00;}
	.st7{fill:#FF3D9B;}
	.st8{fill:#00BAEB;}
	.st9{fill:#09093C;}
	.st10{fill:#35AF9D;}
	.st11{fill:#00BAFA;}
	.st12{fill:#FFC300;}
	.st13{fill:#064037;}
	.st14{fill:#6D919C;}
	.st15{fill:#67B8FD;}
	.st16{fill:#464758;}
	.st17{fill:url(#SVGID_1_);}
	.st18{fill:none;}
	.st19{fill:#DE3B0F;}
	.st20{fill:#E86317;}
	.st21{fill:#F09C29;}
	.st22{fill:#708D23;}
	.st23{fill:#9BC344;}
	.st24{fill:url(#SVGID_00000075877242555058761590000014959473337031254424_);}
	.st25{fill:url(#SVGID_00000103971599153453553530000001042355394387348141_);}
	.st26{fill:#4EB8FF;}
	.st27{fill:#EC008B;}
	.st28{fill:#F7C211;}
	.st29{fill:#B8E5E7;}
	.st30{fill:#232740;}
	.st31{fill:none;stroke:#232740;stroke-width:4;stroke-linecap:round;stroke-linejoin:round;stroke-miterlimit:10;}
	.st32{fill:#00B4D7;}
	.st33{fill:#FF2C3D;}
	.st34{fill:#FF8B00;}
	.st35{fill:#00B896;}
	.st36{fill:#FFC70E;}
	.st37{fill:#6A44A5;}
	.st38{fill:#232740;stroke:#232740;stroke-width:4;stroke-linecap:round;stroke-linejoin:round;stroke-miterlimit:10;}
	.st39{fill:#05ACED;}
	.st40{fill:#EA008A;}
	.st41{fill:#231F20;}
	.st42{fill:#FDF002;}
	.st43{fill:#BEC938;}
	.st44{fill:#139DD8;}
	.st45{fill:#BD2CAE;}
	.st46{fill:url(#SVGID_00000112606254354022537650000012188715338862246073_);}
	.st47{fill:#BDC938;}
	.st48{fill:#62B0D3;}
	.st49{fill:url(#SVGID_00000176004400835854516960000005412695761746989218_);}
	.st50{fill:#212121;}
	.st51{fill:#FF3927;}
	.st52{fill:#1A8DFF;}
	.st53{fill:#FFD500;}
	.st54{fill:#606060;}
	.st55{fill:#26A6DF;}
</style>
<g id="Layer_1">
</g>
<g id="Layer_2">
</g>
<g id="Layer_3">
</g>
<g id="Layer_4">
</g>
<g id="Layer_5">
</g>
<g id="Layer_6">
</g>
<g id="Layer_7">
</g>
<g id="Layer_8">
	<g>
		<path class="st26" d="M220.41,118.78c-12.7,18.27-48.93,25.71-64.04,20.58c-1.27-0.42-2.39-0.94-3.33-1.55
			c23.07,3.08,48.26-29.4,48.58-57.36c12.64,7.45,16.83,20.53,18.19,29.31C220.62,115.06,220.41,118.78,220.41,118.78z"/>
		<path class="st26" d="M220.41,118.78c-12.7,18.27-48.93,25.71-64.04,20.58c-0.2-0.31-0.32-0.49-0.32-0.49
			c6.4,1.67,52.5-7.22,63.75-29.11C220.62,115.06,220.41,118.78,220.41,118.78z"/>
		<path d="M156.45,139.42c22.6-10.93,21.18-51.24,4.92-74.08c25.32-2.12,51.18,30.92,51.18,30.92
			C211.5,118.36,172.48,137.36,156.45,139.42z"/>
		<path class="st27" d="M151.72,140.43c8.31-5.33,13.35-14.62,15.43-25.33c3.61-18.59-1.75-41.49-14.63-55.58
			c20.5-4.25,43.27,11.36,52.78,18.89c2.9,2.3,4.57,3.84,4.57,3.84C211.32,117.59,168.3,137.61,151.72,140.43z"/>
		<path class="st27" d="M155.93,139.42c6.7-5.91,10.27-14.63,11.21-24.32c3.61-18.59-1.75-41.49-14.63-55.58
			c20.5-4.25,43.27,11.36,52.78,18.89C207.36,110.47,171.07,134.39,155.93,139.42z"/>
		<path d="M149,142.99c18.12-17.38,8.11-54.68-14.42-71.37c23.43-9.84,57.53,10.91,57.53,10.91
			C199.25,112.25,163.63,137.46,149,142.99z"/>
		<path class="st28" d="M151.66,141.61c-0.03,0.02-0.05,0.03-0.08,0.04c-0.92,0.52-1.78,0.96-2.59,1.34
			c16.73-18.72,4.31-57.91-19.43-72.82c8.79-4.52,19.38-4.59,29.04-2.99c15.18,2.51,28.05,9.15,28.05,9.15
			C196.17,105.88,166.93,133,151.66,141.61z"/>
	</g>
</g>
<g id="Layer_9">
</g>
<g id="Layer_10">
</g>
<g id="Layer_11">
</g>
<g id="Layer_12">
</g>
<g id="Layer_13">
</g>
<g id="Layer_14">
</g>
<g id="Layer_15">
</g>
</svg>
