<?xml version="1.0" encoding="utf-8"?>
<!-- Generator: Adobe Illustrator 27.8.1, SVG Export Plug-In . SVG Version: 6.00 Build 0)  -->
<svg version="1.1" xmlns="http://www.w3.org/2000/svg" xmlns:xlink="http://www.w3.org/1999/xlink" x="0px" y="0px"
	 viewBox="0 0 350 230" style="enable-background:new 0 0 350 230;" xml:space="preserve">
<style type="text/css">
	.st0{fill:#434947;}
	.st1{fill:#FFFFFF;}
	.st2{fill:#00E9E9;}
	.st3{fill:#A06EFF;}
	.st4{fill:#FF5F81;}
	.st5{fill:#192E40;}
	.st6{fill:#FFDD00;}
	.st7{fill:#FF3D9B;}
	.st8{fill:#00BAEB;}
	.st9{fill:#09093C;}
	.st10{fill:#35AF9D;}
	.st11{fill:#00BAFA;}
	.st12{fill:#FFC300;}
	.st13{fill:#064037;}
	.st14{fill:#6D919C;}
	.st15{fill:#67B8FD;}
	.st16{fill:#464758;}
	.st17{fill:url(#SVGID_1_);}
	.st18{fill:none;}
	.st19{fill:#DE3B0F;}
	.st20{fill:#E86317;}
	.st21{fill:#F09C29;}
	.st22{fill:#708D23;}
	.st23{fill:#9BC344;}
	.st24{fill:url(#SVGID_00000134956514579416454000000012654659065195427489_);}
	.st25{fill:url(#SVGID_00000021116487690625164530000007520456256305445264_);}
	.st26{fill:#4EB8FF;}
	.st27{fill:#EC008B;}
	.st28{fill:#F7C211;}
	.st29{fill:#B8E5E7;}
	.st30{fill:#232740;}
	.st31{fill:none;stroke:#232740;stroke-width:4;stroke-linecap:round;stroke-linejoin:round;stroke-miterlimit:10;}
	.st32{fill:#00B4D7;}
	.st33{fill:#FF2C3D;}
	.st34{fill:#FF8B00;}
	.st35{fill:#00B896;}
	.st36{fill:#FFC70E;}
	.st37{fill:#6A44A5;}
	.st38{fill:#232740;stroke:#232740;stroke-width:4;stroke-linecap:round;stroke-linejoin:round;stroke-miterlimit:10;}
	.st39{fill:#05ACED;}
	.st40{fill:#EA008A;}
	.st41{fill:#231F20;}
	.st42{fill:#FDF002;}
	.st43{fill:#BEC938;}
	.st44{fill:#139DD8;}
	.st45{fill:#BD2CAE;}
	.st46{fill:url(#SVGID_00000049219219208205756530000004139854693627894665_);}
	.st47{fill:#BDC938;}
	.st48{fill:#62B0D3;}
	.st49{fill:url(#SVGID_00000175293795074380423830000017466225580478302864_);}
	.st50{fill:#212121;}
	.st51{fill:#FF3927;}
	.st52{fill:#1A8DFF;}
	.st53{fill:#FFD500;}
	.st54{fill:#606060;}
	.st55{fill:#26A6DF;}
</style>
<g id="Layer_1">
</g>
<g id="Layer_2">
</g>
<g id="Layer_3">
</g>
<g id="Layer_4">
</g>
<g id="Layer_5">
</g>
<g id="Layer_6">
</g>
<g id="Layer_7">
</g>
<g id="Layer_8">
</g>
<g id="Layer_9">
	<g>
		<path class="st29" d="M131.09,94.95c-0.3,21.64,13.41,63.46,51.46,51.97c38.05-11.5,49.04-56.49,21.67-81.57
			C176.85,40.28,131.57,60.3,131.09,94.95z"/>
		<g>
			<path class="st1" d="M137.18,80.51h75.64c4.14,0,7.5,3.36,7.5,7.5v24.46c0,4.14-3.36,7.5-7.5,7.5h-75.64
				c-4.14,0-7.5-3.36-7.5-7.5V88.01C129.68,83.87,133.04,80.51,137.18,80.51z"/>
			<path class="st30" d="M216.39,80.51h-6.05v39.46h6.05c2.17,0,3.93-1.76,3.93-3.93v-31.6C220.32,82.27,218.56,80.51,216.39,80.51z
				"/>
			<path class="st31" d="M137.18,80.51h75.64c4.14,0,7.5,3.36,7.5,7.5v24.46c0,4.14-3.36,7.5-7.5,7.5h-75.64
				c-4.14,0-7.5-3.36-7.5-7.5V88.01C129.68,83.87,133.04,80.51,137.18,80.51z"/>
		</g>
		<g>
			<path class="st32" d="M174.06,108.69c0,13.04,0.14,30.52-4.2,47.88l0,0c-5.09-0.54-9.94-1.87-14.42-3.87l0,0
				c6.42-21.22,6.42-30.97,6.42-44.01H174.06z"/>
		</g>
		<g>
			<path class="st33" d="M160.22,108.69c0,12.42-2.56,28.61-10.03,41.27c-3.91-2.35-7.45-5.24-10.53-8.57l0,0
				c5.87-9.57,7.82-20.28,7.82-32.7H160.22z"/>
		</g>
		<g>
			<path class="st34" d="M145.78,108.69c0,7.39-1.7,19.16-9.29,28.91c-2.75-3.65-4.98-7.7-6.61-12.05c3.33-6.85,3.6-12.3,3.6-16.86
				H145.78z"/>
		</g>
		<g>
			<path class="st35" d="M175.94,108.69c0,13.04-0.14,30.52,4.2,47.88l0,0c5.09-0.54,9.94-1.87,14.42-3.87l0,0
				c-6.42-21.22-6.42-30.97-6.42-44.01H175.94z"/>
		</g>
		<g>
			<path class="st36" d="M189.78,108.69c0,12.42,2.56,28.61,10.03,41.27c3.91-2.35,7.45-5.24,10.53-8.57l0,0
				c-5.87-9.57-7.82-20.28-7.82-32.7H189.78z"/>
		</g>
		<g>
			<path class="st37" d="M204.22,108.69c0,7.39,1.7,19.16,9.29,28.91c2.75-3.65,4.98-7.7,6.61-12.05c-3.33-6.85-3.6-12.3-3.6-16.86
				H204.22z"/>
		</g>
		<line class="st31" x1="133.49" y1="108.69" x2="216.51" y2="108.69"/>
		<line class="st31" x1="129.68" y1="87.01" x2="220.32" y2="87.01"/>
		<g>
			<path class="st38" d="M192.99,99.22h-14.45c-0.86,0-1.55-0.69-1.55-1.55l0,0c0-0.86,0.69-1.55,1.55-1.55h14.45
				c0.86,0,1.55,0.69,1.55,1.55l0,0C194.54,98.53,193.85,99.22,192.99,99.22z"/>
			<path class="st38" d="M202.57,97.67c0-0.86-0.69-1.55-1.55-1.55c-0.86,0-1.55,0.69-1.55,1.55c0,0.86,0.69,1.55,1.55,1.55
				C201.88,99.22,202.57,98.53,202.57,97.67z"/>
		</g>
	</g>
</g>
<g id="Layer_10">
</g>
<g id="Layer_11">
</g>
<g id="Layer_12">
</g>
<g id="Layer_13">
</g>
<g id="Layer_14">
</g>
<g id="Layer_15">
</g>
</svg>
