<?xml version="1.0" encoding="utf-8"?>
<!-- Generator: Adobe Illustrator 27.8.1, SVG Export Plug-In . SVG Version: 6.00 Build 0)  -->
<svg version="1.1" xmlns="http://www.w3.org/2000/svg" xmlns:xlink="http://www.w3.org/1999/xlink" x="0px" y="0px"
	 viewBox="0 0 350 230" style="enable-background:new 0 0 350 230;" xml:space="preserve">
<style type="text/css">
	.st0{fill:#DDDDDD;}
	.st1{fill:#F7931E;}
	.st2{fill:#604F3E;}
	.st3{fill:#2C1E20;}
	.st4{fill:#F7BF0B;}
	.st5{fill:#FFCE00;}
	.st6{fill-rule:evenodd;clip-rule:evenodd;fill:#F3B03C;}
	.st7{fill:#C41621;}
	.st8{fill:#352B2F;}
	.st9{fill:#FFFFFF;}
	.st10{fill:#00FFFF;}
	.st11{fill:#29ABE2;}
	.st12{fill:#B61E5A;}
	.st13{fill:#1E2254;}
	.st14{fill:#33DDFF;}
	.st15{fill:#0065A3;}
	.st16{fill:#F6973B;}
	.st17{fill:#5A3FA8;}
	.st18{fill:#00AB91;}
	.st19{fill-rule:evenodd;clip-rule:evenodd;fill:#13A559;}
	.st20{fill:#4E17AC;}
	.st21{fill:#103747;}
	.st22{fill:#019AC2;}
	.st23{fill-rule:evenodd;clip-rule:evenodd;fill:#B825BD;}
	.st24{fill-rule:evenodd;clip-rule:evenodd;fill:#FF8788;}
	.st25{fill:#282519;}
	.st26{fill:#C71A8B;}
	.st27{fill:#F9C60B;}
	.st28{fill:#E67A7B;}
	.st29{fill:#66767A;}
</style>
<g id="Layer_1">
	<path class="st0" d="M177.96,100.37c0,2.2-1.79,3.98-3.98,3.98c-2.2,0-3.98-1.78-3.98-3.98c0-2.2,1.78-3.98,3.98-3.98
		C176.17,96.39,177.96,98.17,177.96,100.37z M177.96,105.04c-1.13,0-2.05,0.92-2.05,2.05c0,1.13,0.92,2.05,2.05,2.05
		c1.13,0,2.05-0.92,2.05-2.05C180.01,105.96,179.09,105.04,177.96,105.04z"/>
	<path class="st1" d="M161.93,87.84h-5.31c0.09-1,0.92-1.78,1.94-1.78h1.44C161.01,86.06,161.84,86.84,161.93,87.84z M164.1,85.54
		v-7.7c0-1.08,0.88-1.96,1.96-1.96h17.88c1.08,0,1.96,0.88,1.96,1.96v7.7c0,1.08-0.88,1.96-1.96,1.96h-17.88
		C164.98,87.5,164.1,86.62,164.1,85.54z M166.45,85.15h17.09v-6.92h-17.09V85.15z M167.43,81.23v2.38c1.45-1.45,2.89-2.89,4.34-4.34
		h-2.38C168.31,79.28,167.43,80.15,167.43,81.23z M197.7,94.15v21.14c0,2.81-2.28,5.09-5.09,5.09h-35.23
		c-2.81,0-5.09-2.28-5.09-5.09V94.15c0-2.81,2.28-5.09,5.09-5.09h35.23C195.42,89.06,197.7,91.34,197.7,94.15z M160.36,109.55
		c-0.5-1.51-0.77-3.13-0.77-4.81c0-5.69,3.09-10.66,7.68-13.33h-9.89c-1.51,0-2.74,1.23-2.74,2.74v15.4H160.36z M188.2,104.74
		c0-7.29-5.91-13.2-13.2-13.2c-7.29,0-13.2,5.91-13.2,13.2c0,7.29,5.91,13.2,13.2,13.2C182.29,117.94,188.2,112.03,188.2,104.74z
		 M195.35,94.15c0-1.51-1.23-2.74-2.74-2.74h-9.89c4.59,2.67,7.68,7.63,7.68,13.33c0,1.68-0.27,3.3-0.77,4.81h5.72V94.15z
		 M186.39,104.74c0,6.29-5.1,11.39-11.39,11.39c-6.29,0-11.39-5.1-11.39-11.39c0-6.29,5.1-11.39,11.39-11.39
		C181.29,93.34,186.39,98.45,186.39,104.74z M184.07,104.74c0-5.01-4.06-9.07-9.07-9.07s-9.07,4.06-9.07,9.07s4.06,9.07,9.07,9.07
		S184.07,109.75,184.07,104.74z"/>
	<path class="st2" d="M164.06,65.98v1.86h-17.22c-2.57,0-4.66,2.09-4.66,4.66v16h-1.86v-16c0-3.59,2.92-6.52,6.52-6.52H164.06z
		 M146.84,69.09c-1.88,0-3.41,1.53-3.41,3.41v16h1.86v-16c0-0.86,0.7-1.55,1.55-1.55l17.22,0v-1.86L146.84,69.09z M185.94,65.98
		v1.86h17.22c2.57,0,4.66,2.09,4.66,4.66v16h1.86l0-16c0-3.59-2.92-6.52-6.52-6.52H185.94z M185.94,69.09v1.86h17.22
		c0.86,0,1.55,0.7,1.55,1.55v16h1.86v-16c0-1.88-1.53-3.41-3.41-3.41H185.94z M146.84,132.71c-3.59,0-6.52-2.92-6.52-6.52v-16h1.86
		v16c0,2.57,2.09,4.66,4.66,4.66l17.22,0v1.86L146.84,132.71z M164.06,129.61v-1.86h-17.22c-0.86,0-1.55-0.7-1.55-1.55v-16h-1.86v16
		c0,1.88,1.53,3.41,3.41,3.41H164.06z M203.16,132.71c3.59,0,6.52-2.92,6.52-6.52l0-16h-1.86v16c0,2.57-2.09,4.66-4.66,4.66h-17.22
		v1.86H203.16z M203.16,129.61c1.88,0,3.41-1.53,3.41-3.41v-16h-1.86v16c0,0.86-0.7,1.55-1.55,1.55h-17.22v1.86H203.16z"/>
</g>
<g id="Layer_2">
</g>
<g id="Layer_3">
</g>
<g id="Layer_4">
</g>
<g id="Layer_5">
</g>
<g id="Layer_6">
</g>
<g id="Layer_7">
</g>
<g id="Layer_8">
</g>
<g id="Layer_9">
</g>
<g id="Layer_10">
</g>
<g id="Layer_11">
</g>
<g id="Layer_12">
</g>
<g id="Layer_13">
</g>
<g id="Layer_14">
</g>
<g id="Layer_15">
</g>
</svg>
