<?xml version="1.0" encoding="utf-8"?>
<!-- Generator: Adobe Illustrator 27.8.1, SVG Export Plug-In . SVG Version: 6.00 Build 0)  -->
<svg version="1.1" xmlns="http://www.w3.org/2000/svg" xmlns:xlink="http://www.w3.org/1999/xlink" x="0px" y="0px"
	 viewBox="0 0 350 230" style="enable-background:new 0 0 350 230;" xml:space="preserve">
<style type="text/css">
	.st0{fill:#DDDDDD;}
	.st1{fill:#F7931E;}
	.st2{fill:#604F3E;}
	.st3{fill:#2C1E20;}
	.st4{fill:#F7BF0B;}
	.st5{fill:#FFCE00;}
	.st6{fill-rule:evenodd;clip-rule:evenodd;fill:#F3B03C;}
	.st7{fill:#C41621;}
	.st8{fill:#352B2F;}
	.st9{fill:#FFFFFF;}
	.st10{fill:#00FFFF;}
	.st11{fill:#29ABE2;}
	.st12{fill:#B61E5A;}
	.st13{fill:#1E2254;}
	.st14{fill:#33DDFF;}
	.st15{fill:#0065A3;}
	.st16{fill:#F6973B;}
	.st17{fill:#5A3FA8;}
	.st18{fill:#00AB91;}
	.st19{fill-rule:evenodd;clip-rule:evenodd;fill:#13A559;}
	.st20{fill:#4E17AC;}
	.st21{fill:#103747;}
	.st22{fill:#019AC2;}
	.st23{fill-rule:evenodd;clip-rule:evenodd;fill:#B825BD;}
	.st24{fill-rule:evenodd;clip-rule:evenodd;fill:#FF8788;}
	.st25{fill:#282519;}
	.st26{fill:#C71A8B;}
	.st27{fill:#F9C60B;}
	.st28{fill:#E67A7B;}
	.st29{fill:#66767A;}
</style>
<g id="Layer_1">
</g>
<g id="Layer_2">
</g>
<g id="Layer_3">
</g>
<g id="Layer_4">
</g>
<g id="Layer_5">
</g>
<g id="Layer_6">
</g>
<g id="Layer_7">
</g>
<g id="Layer_8">
</g>
<g id="Layer_9">
</g>
<g id="Layer_10">
	<path class="st16" d="M193.42,111.4c0.01,4.58-1.76,9.14-4.94,12.54c-3.14,3.42-7.71,5.63-12.54,5.88
		c-2.41,0.12-4.87-0.22-7.19-1.05c-2.31-0.85-4.49-2.15-6.32-3.85c-1.83-1.71-3.31-3.81-4.32-6.12c-0.22-0.59-0.47-1.18-0.66-1.78
		c-0.16-0.61-0.35-1.22-0.48-1.84c-0.1-0.63-0.21-1.25-0.29-1.88l-0.1-1.9c0.01-2.53,0.52-5.07,1.53-7.39
		c1-2.32,2.49-4.42,4.32-6.13c1.83-1.71,4.01-3.01,6.32-3.86c2.32-0.84,4.79-1.18,7.2-1.05c4.83,0.25,9.4,2.46,12.54,5.89
		C191.67,102.26,193.44,106.82,193.42,111.4z M193.42,111.4c-0.01-2.29-0.48-4.57-1.39-6.66c-0.91-2.09-2.26-3.98-3.91-5.51
		c-1.66-1.53-3.62-2.69-5.7-3.44c-2.09-0.74-4.3-1.03-6.47-0.91c-4.34,0.26-8.4,2.26-11.19,5.33c-2.82,3.06-4.39,7.11-4.38,11.19
		c-0.01,4.09,1.55,8.14,4.38,11.2c2.8,3.08,6.86,5.07,11.2,5.33c2.17,0.12,4.38-0.17,6.47-0.91c2.08-0.75,4.05-1.91,5.7-3.45
		c1.65-1.53,3-3.42,3.91-5.51C192.95,115.97,193.41,113.69,193.42,111.4z M168.24,102.25c2.39-2.03,5.54-3.14,8.75-3.03
		c3.2,0.1,6.45,1.43,8.83,3.86c1.18,1.21,2.15,2.67,2.79,4.3c0.64,1.62,0.95,3.4,0.88,5.18c-0.07,1.78-0.51,3.56-1.3,5.18
		c-0.22,0.4-0.42,0.8-0.66,1.19c-0.26,0.37-0.5,0.76-0.78,1.11c-0.3,0.34-0.59,0.69-0.89,1.02l-0.99,0.93
		c-1.39,1.16-3.02,2.05-4.76,2.55c-1.74,0.51-3.57,0.64-5.33,0.41c-1.77-0.23-3.47-0.84-4.96-1.75c-1.49-0.91-2.77-2.12-3.76-3.49
		c-1.99-2.76-2.75-6.2-2.3-9.36C164.21,107.18,165.84,104.26,168.24,102.25z M168.24,102.25c-1.19,1.02-2.18,2.27-2.85,3.68
		c-0.68,1.4-1.05,2.94-1.1,4.47c-0.05,1.53,0.24,3.06,0.8,4.44c0.57,1.39,1.41,2.62,2.44,3.65c2.06,2.05,4.83,3.13,7.54,3.19
		c2.72,0.06,5.35-0.88,7.36-2.58c2.02-1.7,3.41-4.13,3.81-6.82c0.4-2.68-0.19-5.6-1.86-7.98c-0.84-1.18-1.91-2.23-3.18-3.02
		c-1.27-0.79-2.73-1.33-4.25-1.54c-1.52-0.22-3.1-0.11-4.6,0.32C170.85,100.49,169.45,101.25,168.24,102.25z M181.07,117.39
		c-1.61,1.37-3.74,2.12-5.9,2.04c-2.15-0.07-4.35-0.96-5.95-2.61c-0.8-0.82-1.45-1.8-1.88-2.9c-0.43-1.09-0.64-2.29-0.59-3.49
		c0.04-1.2,0.34-2.4,0.88-3.5c0.15-0.27,0.29-0.54,0.44-0.8c0.17-0.25,0.34-0.51,0.52-0.75c0.2-0.23,0.4-0.47,0.6-0.69l0.67-0.63
		c0.94-0.78,2.04-1.38,3.21-1.72c1.17-0.34,2.41-0.43,3.6-0.27c1.19,0.16,2.34,0.57,3.34,1.18c1.01,0.61,1.87,1.43,2.54,2.35
		c1.34,1.86,1.85,4.18,1.55,6.32C183.79,114.07,182.69,116.03,181.07,117.39z M181.07,117.39c0.8-0.69,1.47-1.53,1.93-2.48
		c0.46-0.95,0.71-1.98,0.74-3.02c0.03-1.03-0.16-2.06-0.54-3c-0.38-0.93-0.95-1.77-1.64-2.46c-1.39-1.38-3.26-2.11-5.08-2.15
		c-1.83-0.04-3.6,0.59-4.97,1.74c-1.36,1.15-2.3,2.78-2.57,4.6c-0.27,1.81,0.13,3.77,1.26,5.38c0.56,0.8,1.29,1.5,2.15,2.04
		c0.86,0.53,1.84,0.9,2.86,1.04c1.02,0.15,2.09,0.07,3.1-0.22C179.31,118.58,180.26,118.06,181.07,117.39z"/>
	<path class="st16" d="M143.35,82.18h-11.31c-1.26,0-2.29-1.02-2.29-2.29c0-1.26,1.02-2.29,2.29-2.29h11.31
		c1.26,0,2.29,1.02,2.29,2.29C145.64,81.16,144.61,82.18,143.35,82.18z M220.25,79.8c0-1.26-1.02-2.29-2.29-2.29h-11.31
		c-1.26,0-2.29,1.02-2.29,2.29c0,1.26,1.02,2.29,2.29,2.29h11.31C219.22,82.09,220.25,81.06,220.25,79.8z"/>
	<path class="st17" d="M228.24,94.62l-0.05,1.67l-0.09,3.34l-0.19,6.67c-0.16,4.4-0.31,8.8-0.48,13.2c-0.02,0.6-0.05,1.2-0.07,1.8
		l-1.03,10.85l-0.09-10.69l0,0c-0.02-0.58-0.05-1.16-0.07-1.73c-0.18-4.47-0.33-8.95-0.49-13.42l-0.19-6.67l-0.09-3.34l-0.05-1.67
		c-0.01-0.55-0.02-1.16-0.07-1.54c-0.11-0.85-0.44-1.65-0.93-2.33c-0.51-0.67-1.17-1.23-1.93-1.56c-0.37-0.18-0.78-0.28-1.18-0.36
		c-0.21-0.02-0.41-0.07-0.61-0.06l-0.31-0.01l-0.42,0.01l-3.34,0.07c-4.45,0.09-8.89,0.18-13.35,0.22
		c-1.62,0.02-3.26-0.64-4.43-1.78c-1.18-1.13-1.9-2.75-1.94-4.39l-0.05-3.38l-0.02-1.67l-0.04-0.63l-0.1-0.59
		c-0.36-1.55-1.41-2.92-2.81-3.65c-0.7-0.36-1.47-0.57-2.26-0.6l-0.3-0.01l-0.42,0l-0.83,0.01l-1.67,0.01L175,72.4l-13.34-0.03
		l-1.67-0.01l-0.83,0l-0.42,0l-0.3,0.01c-0.79,0.03-1.56,0.24-2.26,0.6c-1.41,0.73-2.45,2.11-2.81,3.65l-0.1,0.59l-0.04,0.63
		l-0.02,1.67l-0.04,3.38c-0.04,1.65-0.76,3.27-1.94,4.4c-1.17,1.14-2.81,1.8-4.43,1.78l-6.68-0.09l-6.67-0.13l-3.34-0.07l-0.42-0.01
		l-0.31,0.01c-0.21-0.01-0.41,0.04-0.61,0.06c-0.4,0.08-0.8,0.18-1.18,0.36c-0.76,0.33-1.42,0.89-1.92,1.56
		c-0.49,0.68-0.83,1.48-0.93,2.33c-0.04,0.37-0.06,0.99-0.07,1.53l-0.05,1.67l-0.09,3.34l-0.19,6.67
		c-0.31,8.9-0.61,17.79-1.12,26.68c-0.51-8.9-0.81-17.79-1.12-26.68l-0.19-6.67l-0.09-3.34l-0.05-1.67
		c-0.01-0.57-0.05-1.06-0.01-1.8c0.09-1.36,0.54-2.72,1.31-3.87c0.78-1.14,1.84-2.11,3.09-2.73c0.62-0.33,1.29-0.54,1.98-0.7
		c0.34-0.06,0.69-0.13,1.04-0.14l0.52-0.03l0.42-0.01l3.34-0.07l6.67-0.13l6.66-0.09c0.6-0.01,1.17-0.27,1.58-0.69
		c0.41-0.42,0.64-0.99,0.64-1.57l-0.04-3.29l-0.02-1.67c0-0.31,0.02-0.7,0.04-1.04c0.04-0.35,0.09-0.71,0.15-1.06
		c0.55-2.82,2.43-5.32,4.96-6.68c1.27-0.68,2.69-1.08,4.12-1.16l0.53-0.03l0.42,0l0.83,0l1.67-0.01L175,67.83l13.34,0.03l1.67,0.01
		l0.83,0.01l0.42,0l0.53,0.03c1.43,0.08,2.85,0.48,4.12,1.15c2.53,1.36,4.4,3.86,4.95,6.68c0.06,0.35,0.11,0.7,0.15,1.06
		c0.02,0.34,0.04,0.73,0.04,1.04l-0.02,1.67L201,82.79c0,0.58,0.23,1.15,0.64,1.57c0.41,0.43,0.98,0.68,1.59,0.69l6.66,0.09
		l6.67,0.13l3.34,0.07l0.42,0.01l0.52,0.03c0.35,0.01,0.7,0.09,1.04,0.14c0.68,0.16,1.35,0.37,1.97,0.7
		c1.25,0.62,2.31,1.58,3.09,2.72c0.77,1.15,1.22,2.5,1.31,3.87C228.29,93.56,228.25,94.05,228.24,94.62z M190.8,77.84v5.3
		c0,0.56-0.45,1-1.01,1h-29.41c-0.56,0-1-0.45-1-1v-5.3c0-0.56,0.45-1.01,1-1.01h29.41C190.35,76.84,190.8,77.29,190.8,77.84z
		 M187.41,78.29c0-0.16-0.13-0.28-0.28-0.28h-1.5c-0.16,0-0.28,0.13-0.28,0.28v1.51h-2.45v-1.51c0-0.16-0.13-0.28-0.28-0.28h-1.5
		c-0.16,0-0.28,0.13-0.28,0.28v1.51h-2.45v-1.51c0-0.16-0.13-0.28-0.28-0.28h-1.5c-0.16,0-0.28,0.13-0.28,0.28v1.51h-2.45v-1.51
		c0-0.16-0.13-0.28-0.28-0.28h-1.5c-0.16,0-0.28,0.13-0.28,0.28v1.51h-2.45v-1.51c0-0.16-0.13-0.28-0.29-0.28h-1.5
		c-0.16,0-0.28,0.13-0.28,0.28v1.51h-2.45v-1.51c0-0.16-0.13-0.28-0.28-0.28h-1.5c-0.16,0-0.29,0.13-0.29,0.28v1.51h2.07v1.1h-2.07
		v1.8c0,0.16,0.13,0.28,0.29,0.28h1.5c0.16,0,0.28-0.13,0.28-0.28v-1.8h2.45v1.8c0,0.16,0.13,0.28,0.28,0.28h1.5
		c0.16,0,0.29-0.13,0.29-0.28v-1.8h2.45v1.8c0,0.16,0.13,0.28,0.28,0.28h1.5c0.16,0,0.28-0.13,0.28-0.28v-1.8h2.45v1.8
		c0,0.16,0.13,0.28,0.28,0.28h1.5c0.16,0,0.28-0.13,0.28-0.28v-1.8h2.45v1.8c0,0.16,0.13,0.28,0.28,0.28h1.5
		c0.16,0,0.28-0.13,0.28-0.28v-1.8h2.45v1.8c0,0.16,0.13,0.28,0.28,0.28h1.5c0.16,0,0.28-0.13,0.28-0.28v-1.8h-2.07v-1.1h2.07V78.29
		z M167.28,79.8v1.1h2.07v-1.1H167.28z M171.8,79.8v1.1h2.06v-1.1H171.8z M176.31,79.8v1.1h2.07v-1.1H176.31z M180.83,79.8v1.1h2.06
		v-1.1H180.83z"/>
</g>
<g id="Layer_11">
</g>
<g id="Layer_12">
</g>
<g id="Layer_13">
</g>
<g id="Layer_14">
</g>
<g id="Layer_15">
</g>
</svg>
