<?xml version="1.0" encoding="utf-8"?>
<!-- Generator: Adobe Illustrator 27.8.1, SVG Export Plug-In . SVG Version: 6.00 Build 0)  -->
<svg version="1.1" xmlns="http://www.w3.org/2000/svg" xmlns:xlink="http://www.w3.org/1999/xlink" x="0px" y="0px"
	 viewBox="0 0 350 230" style="enable-background:new 0 0 350 230;" xml:space="preserve">
<style type="text/css">
	.st0{fill:#DDDDDD;}
	.st1{fill:#F7931E;}
	.st2{fill:#604F3E;}
	.st3{fill:#2C1E20;}
	.st4{fill:#F7BF0B;}
	.st5{fill:#FFCE00;}
	.st6{fill-rule:evenodd;clip-rule:evenodd;fill:#F3B03C;}
	.st7{fill:#C41621;}
	.st8{fill:#352B2F;}
	.st9{fill:#FFFFFF;}
	.st10{fill:#00FFFF;}
	.st11{fill:#29ABE2;}
	.st12{fill:#B61E5A;}
	.st13{fill:#1E2254;}
	.st14{fill:#33DDFF;}
	.st15{fill:#0065A3;}
	.st16{fill:#F6973B;}
	.st17{fill:#5A3FA8;}
	.st18{fill:#00AB91;}
	.st19{fill-rule:evenodd;clip-rule:evenodd;fill:#13A559;}
	.st20{fill:#4E17AC;}
	.st21{fill:#103747;}
	.st22{fill:#019AC2;}
	.st23{fill-rule:evenodd;clip-rule:evenodd;fill:#B825BD;}
	.st24{fill-rule:evenodd;clip-rule:evenodd;fill:#FF8788;}
	.st25{fill:#282519;}
	.st26{fill:#C71A8B;}
	.st27{fill:#F9C60B;}
	.st28{fill:#E67A7B;}
	.st29{fill:#66767A;}
</style>
<g id="Layer_1">
</g>
<g id="Layer_2">
</g>
<g id="Layer_3">
</g>
<g id="Layer_4">
</g>
<g id="Layer_5">
</g>
<g id="Layer_6">
</g>
<g id="Layer_7">
</g>
<g id="Layer_8">
</g>
<g id="Layer_9">
</g>
<g id="Layer_10">
</g>
<g id="Layer_11">
	<path class="st18" d="M194.06,105.95c-0.8,3.74-2.67,7.08-5.28,9.68c-3.53,3.53-8.4,5.71-13.78,5.71c-5.38,0-10.25-2.18-13.78-5.71
		c-3.53-3.53-5.71-8.4-5.71-13.78c0-5.38,2.18-10.25,5.71-13.78c2.61-2.61,5.94-4.48,9.68-5.28v5.12c-2.36,0.69-4.48,1.97-6.17,3.67
		c-2.63,2.63-4.26,6.26-4.26,10.27c0,4.01,1.63,7.64,4.26,10.27c2.63,2.63,6.26,4.26,10.27,4.26c4.01,0,7.64-1.63,10.27-4.26
		c1.7-1.7,2.97-3.81,3.67-6.17L194.06,105.95L194.06,105.95z M209.02,87.32v-4.96c-4.01,0-7.64-1.63-10.27-4.26
		c-2.63-2.63-4.26-6.26-4.26-10.27h-4.96c0,4.01-1.63,7.64-4.26,10.27c-2.63,2.63-6.26,4.26-10.27,4.26v4.96
		c4.01,0,7.64,1.63,10.27,4.26c2.63,2.63,4.26,6.26,4.26,10.27h4.96v0c0-4.01,1.63-7.64,4.26-10.27
		C201.38,88.95,205.01,87.32,209.02,87.32L209.02,87.32z M195.24,88.07c-1.26,1.26-2.35,2.69-3.23,4.26c-0.88-1.57-1.97-3-3.23-4.26
		c-1.26-1.26-2.69-2.35-4.26-3.23c1.57-0.88,3-1.97,4.26-3.23c1.26-1.26,2.35-2.69,3.23-4.26c0.88,1.57,1.97,3,3.23,4.26
		c1.26,1.26,2.69,2.35,4.26,3.23C197.93,85.72,196.5,86.81,195.24,88.07L195.24,88.07z"/>
	<path class="st19" d="M175,92.62c1.74,0,3.36,0.48,4.75,1.31c-1.79,0.49-3.11,2.14-3.11,4.09c0,2.34,1.9,4.24,4.24,4.24
		c1.32,0,2.5-0.61,3.28-1.56c0.05,0.37,0.07,0.75,0.07,1.14c0,5.1-4.13,9.23-9.23,9.23c-5.1,0-9.23-4.13-9.23-9.23
		C165.77,96.75,169.9,92.62,175,92.62L175,92.62z"/>
	<path class="st20" d="M138.5,106.25V76.33v-2.48h2.48h29.92v4.96h-27.44v27.44H138.5L138.5,106.25z M211.5,97.44h-4.96v27.44H179.1
		v4.96h29.92h2.48v-2.48V97.44L211.5,97.44z"/>
</g>
<g id="Layer_12">
</g>
<g id="Layer_13">
</g>
<g id="Layer_14">
</g>
<g id="Layer_15">
</g>
</svg>
