<?xml version="1.0" encoding="utf-8"?>
<!-- Generator: Adobe Illustrator 27.8.1, SVG Export Plug-In . SVG Version: 6.00 Build 0)  -->
<svg version="1.1" xmlns="http://www.w3.org/2000/svg" xmlns:xlink="http://www.w3.org/1999/xlink" x="0px" y="0px"
	 viewBox="0 0 350 230" style="enable-background:new 0 0 350 230;" xml:space="preserve">
<style type="text/css">
	.st0{fill:#DDDDDD;}
	.st1{fill:#F7931E;}
	.st2{fill:#604F3E;}
	.st3{fill:#2C1E20;}
	.st4{fill:#F7BF0B;}
	.st5{fill:#FFCE00;}
	.st6{fill-rule:evenodd;clip-rule:evenodd;fill:#F3B03C;}
	.st7{fill:#C41621;}
	.st8{fill:#352B2F;}
	.st9{fill:#FFFFFF;}
	.st10{fill:#00FFFF;}
	.st11{fill:#29ABE2;}
	.st12{fill:#B61E5A;}
	.st13{fill:#1E2254;}
	.st14{fill:#33DDFF;}
	.st15{fill:#0065A3;}
	.st16{fill:#F6973B;}
	.st17{fill:#5A3FA8;}
	.st18{fill:#00AB91;}
	.st19{fill-rule:evenodd;clip-rule:evenodd;fill:#13A559;}
	.st20{fill:#4E17AC;}
	.st21{fill:#103747;}
	.st22{fill:#019AC2;}
	.st23{fill-rule:evenodd;clip-rule:evenodd;fill:#B825BD;}
	.st24{fill-rule:evenodd;clip-rule:evenodd;fill:#FF8788;}
	.st25{fill:#282519;}
	.st26{fill:#C71A8B;}
	.st27{fill:#F9C60B;}
	.st28{fill:#E67A7B;}
	.st29{fill:#66767A;}
</style>
<g id="Layer_1">
</g>
<g id="Layer_2">
</g>
<g id="Layer_3">
</g>
<g id="Layer_4">
</g>
<g id="Layer_5">
</g>
<g id="Layer_6">
</g>
<g id="Layer_7">
</g>
<g id="Layer_8">
</g>
<g id="Layer_9">
</g>
<g id="Layer_10">
</g>
<g id="Layer_11">
</g>
<g id="Layer_12">
	<path class="st21" d="M160.06,67.83v6.91h-3.91v-4.78h-15.56v4.78h-2.69c-1.67,0-3.02,1.35-3.02,3.02v44.91
		c0,1.67,1.35,3.02,3.02,3.02h74.21c1.67,0,3.02-1.35,3.02-3.02V79.77v-2v-9.93H160.06z M145.7,117.56c0,1.41-1.15,2.56-2.56,2.56
		c-1.41,0-2.56-1.15-2.56-2.56v-5.12c0-1.41,1.15-2.56,2.56-2.56c1.41,0,2.56,1.15,2.56,2.56V117.56z M143.15,107.89
		c-1.41,0-2.56-1.15-2.56-2.56c0-1.41,1.15-2.56,2.56-2.56c1.41,0,2.56,1.14,2.56,2.56C145.7,106.75,144.56,107.89,143.15,107.89z
		 M163.18,101.31c0.01-0.11,0.02-0.21,0.02-0.31c0.02-0.22,0.03-0.44,0.05-0.65c0.01-0.12,0.03-0.24,0.05-0.36
		c0.02-0.2,0.05-0.4,0.08-0.59c0.02-0.13,0.04-0.25,0.07-0.37c0.03-0.19,0.07-0.38,0.11-0.57c0.03-0.13,0.06-0.25,0.09-0.37
		c0.04-0.19,0.09-0.37,0.14-0.55c0.03-0.12,0.07-0.24,0.1-0.36c0.05-0.18,0.11-0.37,0.16-0.55c0.04-0.12,0.08-0.23,0.12-0.35
		c0.06-0.18,0.13-0.36,0.2-0.55c0.04-0.11,0.09-0.22,0.13-0.33c0.07-0.18,0.15-0.36,0.23-0.54c0.05-0.1,0.09-0.21,0.14-0.31
		c0.08-0.18,0.17-0.36,0.26-0.54c0.05-0.1,0.1-0.19,0.15-0.28c0.1-0.18,0.19-0.37,0.3-0.55c0.05-0.09,0.1-0.17,0.15-0.26
		c0.11-0.19,0.22-0.37,0.33-0.55c0.05-0.08,0.1-0.15,0.15-0.23c0.12-0.19,0.25-0.37,0.38-0.55c0.05-0.07,0.09-0.14,0.14-0.2
		c0.14-0.19,0.28-0.38,0.43-0.56c0.04-0.06,0.09-0.11,0.13-0.17c0.16-0.19,0.32-0.39,0.48-0.57c0.04-0.04,0.07-0.08,0.11-0.13
		c0.18-0.2,0.36-0.4,0.55-0.59c0.02-0.02,0.05-0.05,0.07-0.08c0.21-0.22,0.43-0.43,0.65-0.63c3.31-3.05,7.73-4.92,12.58-4.92
		c4.85,0,9.27,1.86,12.58,4.91l0,0c0.23,0.21,0.45,0.42,0.66,0.64c0.02,0.02,0.03,0.03,0.05,0.05c0.2,0.2,0.39,0.41,0.58,0.62
		c0.03,0.03,0.06,0.07,0.09,0.1c0.17,0.2,0.34,0.4,0.5,0.6c0.04,0.05,0.07,0.09,0.11,0.14c0.15,0.19,0.3,0.39,0.45,0.59
		c0.04,0.06,0.09,0.12,0.13,0.18c0.13,0.19,0.27,0.38,0.39,0.58c0.05,0.07,0.09,0.14,0.14,0.21c0.12,0.19,0.23,0.38,0.35,0.57
		c0.05,0.08,0.09,0.16,0.14,0.24c0.11,0.19,0.21,0.37,0.31,0.56c0.05,0.09,0.09,0.18,0.14,0.27c0.09,0.18,0.18,0.37,0.27,0.56
		c0.04,0.1,0.09,0.19,0.13,0.29c0.08,0.18,0.16,0.37,0.23,0.56c0.04,0.1,0.08,0.21,0.12,0.32c0.07,0.18,0.14,0.37,0.2,0.56
		c0.04,0.11,0.08,0.22,0.11,0.33c0.06,0.18,0.11,0.37,0.17,0.56c0.03,0.12,0.07,0.23,0.1,0.35c0.05,0.19,0.09,0.37,0.14,0.56
		c0.03,0.12,0.06,0.24,0.08,0.37c0.04,0.19,0.07,0.38,0.11,0.57c0.02,0.12,0.05,0.25,0.07,0.37c0.03,0.2,0.06,0.4,0.08,0.6
		c0.02,0.12,0.03,0.24,0.05,0.36c0.02,0.22,0.04,0.44,0.05,0.67c0.01,0.1,0.02,0.2,0.02,0.3c0.02,0.33,0.03,0.65,0.03,0.98
		c0,10.25-8.31,18.56-18.56,18.56c-10.25,0-18.56-8.31-18.56-18.56C163.15,101.96,163.16,101.63,163.18,101.31z M209.4,122.67
		c-1.41,0-2.56-1.15-2.56-2.56s1.15-2.56,2.56-2.56c1.41,0,2.56,1.14,2.56,2.56S210.81,122.67,209.4,122.67z M212.42,80.29v0.08
		v8.27h-13.9c-3.97-4.88-10.02-8-16.8-8c-6.78,0-12.83,3.12-16.8,8h-27.33v-8.34c0-1.56,1.26-2.82,2.82-2.82h22.75v-7.51h49.27
		V80.29z"/>
	<path class="st22" d="M181.71,115.59c7.35,0,13.3-5.96,13.3-13.3c0-7.35-5.95-13.3-13.3-13.3c-7.35,0-13.3,5.96-13.3,13.3
		C168.41,109.63,174.37,115.59,181.71,115.59z M176.46,93.7c1.84,0,3.33,1.49,3.33,3.33c0,1.84-1.49,3.33-3.33,3.33
		c-1.84,0-3.33-1.49-3.33-3.33C173.12,95.19,174.61,93.7,176.46,93.7z M209.4,77.98h-12.74v-5.63h12.74V77.98z M171.47,77.98h-4.72
		v-5.63h4.72V77.98z"/>
</g>
<g id="Layer_13">
</g>
<g id="Layer_14">
</g>
<g id="Layer_15">
</g>
</svg>
