<?xml version="1.0" encoding="utf-8"?>
<!-- Generator: Adobe Illustrator 27.8.1, SVG Export Plug-In . SVG Version: 6.00 Build 0)  -->
<svg version="1.1" xmlns="http://www.w3.org/2000/svg" xmlns:xlink="http://www.w3.org/1999/xlink" x="0px" y="0px"
	 viewBox="0 0 350 230" style="enable-background:new 0 0 350 230;" xml:space="preserve">
<style type="text/css">
	.st0{fill:#DDDDDD;}
	.st1{fill:#F7931E;}
	.st2{fill:#604F3E;}
	.st3{fill:#2C1E20;}
	.st4{fill:#F7BF0B;}
	.st5{fill:#FFCE00;}
	.st6{fill-rule:evenodd;clip-rule:evenodd;fill:#F3B03C;}
	.st7{fill:#C41621;}
	.st8{fill:#352B2F;}
	.st9{fill:#FFFFFF;}
	.st10{fill:#00FFFF;}
	.st11{fill:#29ABE2;}
	.st12{fill:#B61E5A;}
	.st13{fill:#1E2254;}
	.st14{fill:#33DDFF;}
	.st15{fill:#0065A3;}
	.st16{fill:#F6973B;}
	.st17{fill:#5A3FA8;}
	.st18{fill:#00AB91;}
	.st19{fill-rule:evenodd;clip-rule:evenodd;fill:#13A559;}
	.st20{fill:#4E17AC;}
	.st21{fill:#103747;}
	.st22{fill:#019AC2;}
	.st23{fill-rule:evenodd;clip-rule:evenodd;fill:#B825BD;}
	.st24{fill-rule:evenodd;clip-rule:evenodd;fill:#FF8788;}
	.st25{fill:#282519;}
	.st26{fill:#C71A8B;}
	.st27{fill:#F9C60B;}
	.st28{fill:#E67A7B;}
	.st29{fill:#66767A;}
</style>
<g id="Layer_1">
</g>
<g id="Layer_2">
</g>
<g id="Layer_3">
</g>
<g id="Layer_4">
</g>
<g id="Layer_5">
</g>
<g id="Layer_6">
</g>
<g id="Layer_7">
</g>
<g id="Layer_8">
</g>
<g id="Layer_9">
</g>
<g id="Layer_10">
</g>
<g id="Layer_11">
</g>
<g id="Layer_12">
</g>
<g id="Layer_13">
</g>
<g id="Layer_14">
	<path class="st25" d="M205.3,71.43h-18.03c-3.74-1.64-7.86-2.56-12.2-2.56c-4.34,0-8.46,0.92-12.2,2.56H144.7
		c-4.78,0-8.66,3.88-8.66,8.66v35.86c0,4.78,3.88,8.66,8.66,8.66h13.37c4.86,3.27,10.7,5.19,16.98,5.19
		c6.28,0,12.13-1.91,16.98-5.19h13.25c4.78,0,8.66-3.88,8.66-8.66V80.08C213.95,75.3,210.08,71.43,205.3,71.43z M175.06,124.95
		c-14.13,0-25.62-11.5-25.62-25.62c0-14.13,11.5-25.62,25.62-25.62c14.13,0,25.62,11.5,25.62,25.62
		C200.69,113.46,189.19,124.95,175.06,124.95z"/>
	<path class="st26" d="M175.06,81.13c-10.05,0-18.19,8.15-18.19,18.19s8.15,18.19,18.19,18.19c10.05,0,18.19-8.15,18.19-18.19
		S185.11,81.13,175.06,81.13z M175.19,90.41c-4.99,0-9.05,4-9.05,8.92h-4.83c0-7.58,6.23-13.76,13.88-13.76V90.41z"/>
	<path class="st27" d="M179.16,113.16c-40.75,10.8-75.64,12.53-77.94,3.87c-1.75-6.62,16.02-17.38,42.67-26.91
		c-0.31,0.86-0.57,1.72-0.8,2.58c-16.69,7.05-27.16,14.77-25.75,20.06c2.09,7.87,29.6,7.41,61.45-1.04
		c31.85-8.44,55.98-21.67,53.89-29.54c-1.45-5.45-15.09-6.9-33.93-4.47c-0.69-0.6-1.41-1.18-2.17-1.72
		c28.78-5.27,50.42-4.84,52.21,1.92C251.08,86.58,219.91,102.36,179.16,113.16z"/>
</g>
<g id="Layer_15">
</g>
</svg>
