<?xml version="1.0" encoding="utf-8"?>
<!-- Generator: Adobe Illustrator 27.8.1, SVG Export Plug-In . SVG Version: 6.00 Build 0)  -->
<svg version="1.1" xmlns="http://www.w3.org/2000/svg" xmlns:xlink="http://www.w3.org/1999/xlink" x="0px" y="0px"
	 viewBox="0 0 350 230" style="enable-background:new 0 0 350 230;" xml:space="preserve">
<style type="text/css">
	.st0{fill:#DDDDDD;}
	.st1{fill:#F7931E;}
	.st2{fill:#604F3E;}
	.st3{fill:#2C1E20;}
	.st4{fill:#F7BF0B;}
	.st5{fill:#FFCE00;}
	.st6{fill-rule:evenodd;clip-rule:evenodd;fill:#F3B03C;}
	.st7{fill:#C41621;}
	.st8{fill:#352B2F;}
	.st9{fill:#FFFFFF;}
	.st10{fill:#00FFFF;}
	.st11{fill:#29ABE2;}
	.st12{fill:#B61E5A;}
	.st13{fill:#1E2254;}
	.st14{fill:#33DDFF;}
	.st15{fill:#0065A3;}
	.st16{fill:#F6973B;}
	.st17{fill:#5A3FA8;}
	.st18{fill:#00AB91;}
	.st19{fill-rule:evenodd;clip-rule:evenodd;fill:#13A559;}
	.st20{fill:#4E17AC;}
	.st21{fill:#103747;}
	.st22{fill:#019AC2;}
	.st23{fill-rule:evenodd;clip-rule:evenodd;fill:#B825BD;}
	.st24{fill-rule:evenodd;clip-rule:evenodd;fill:#FF8788;}
	.st25{fill:#282519;}
	.st26{fill:#C71A8B;}
	.st27{fill:#F9C60B;}
	.st28{fill:#E67A7B;}
	.st29{fill:#66767A;}
</style>
<g id="Layer_1">
</g>
<g id="Layer_2">
</g>
<g id="Layer_3">
</g>
<g id="Layer_4">
</g>
<g id="Layer_5">
</g>
<g id="Layer_6">
</g>
<g id="Layer_7">
</g>
<g id="Layer_8">
</g>
<g id="Layer_9">
</g>
<g id="Layer_10">
</g>
<g id="Layer_11">
</g>
<g id="Layer_12">
</g>
<g id="Layer_13">
</g>
<g id="Layer_14">
</g>
<g id="Layer_15">
	<path class="st28" d="M175,93.47c-6.77,0-12.26,5.49-12.26,12.26c0,6.77,5.49,12.26,12.26,12.26c6.77,0,12.26-5.49,12.26-12.26
		C187.26,98.95,181.77,93.47,175,93.47z M172.95,112.72c-0.28,0.51-0.81,0.8-1.35,0.8c-0.25,0-0.5-0.06-0.73-0.19
		c-1.3-0.71-2.41-1.75-3.2-3.01c-0.45-0.72-0.24-1.67,0.48-2.12c0.72-0.45,1.67-0.24,2.12,0.48c0.51,0.81,1.23,1.49,2.07,1.94
		C173.08,111.04,173.36,111.98,172.95,112.72z M175,100.14c-2.61,0-4.85,1.78-5.44,4.32c-0.16,0.71-0.8,1.19-1.5,1.19
		c-0.12,0-0.23-0.01-0.35-0.04c-0.83-0.19-1.34-1.02-1.15-1.85c0.91-3.95,4.39-6.7,8.44-6.7c0.85,0,1.54,0.69,1.54,1.54
		S175.85,100.14,175,100.14z"/>
	<path class="st29" d="M206.01,81.79h-3.74c-3.08,0-5.82-1.97-6.8-4.9l-0.78-2.35c-1.13-3.39-4.3-5.67-7.87-5.67h-23.63
		c-3.57,0-6.74,2.28-7.87,5.67l-0.78,2.35c-0.98,2.93-3.71,4.9-6.8,4.9h-3.75c-3.99,0-7.23,3.24-7.23,7.23v33.53
		c0,3.99,3.24,7.23,7.23,7.23h62.02c3.99,0,7.23-3.24,7.23-7.23V89.02C213.24,85.03,210,81.79,206.01,81.79z M175,123.08
		c-9.57,0-17.35-7.78-17.35-17.35c0-9.57,7.78-17.35,17.35-17.35c9.57,0,17.35,7.78,17.35,17.35
		C192.35,115.29,184.57,123.08,175,123.08z M192.95,117.63h-1.36c2.42-3.36,3.84-7.47,3.84-11.91c0-11.27-9.17-20.43-20.43-20.43
		c-11.27,0-20.43,9.17-20.43,20.43c0,4.44,1.43,8.55,3.84,11.91h-1.36c-3-3.85-4.8-8.7-4.8-13.96c0-6.95,3.12-13.17,8.04-17.34
		c1.79-1.52,4.08-2.31,6.42-2.31h16.56c2.35,0,4.63,0.8,6.42,2.31c4.92,4.17,8.04,10.39,8.04,17.34
		C197.74,108.94,195.95,113.78,192.95,117.63z"/>
	<path class="st28" d="M150.67,90.64c-3.02,1.42-4.93,1.42-7.96,0c0-1.54,0-2.31,0-3.85c3.02-1.42,4.93-1.42,7.96,0
		C150.67,88.33,150.67,89.1,150.67,90.64z"/>
</g>
</svg>
