<?xml version="1.0" encoding="utf-8"?>
<!-- Generator: Adobe Illustrator 27.8.1, SVG Export Plug-In . SVG Version: 6.00 Build 0)  -->
<svg version="1.1" xmlns="http://www.w3.org/2000/svg" xmlns:xlink="http://www.w3.org/1999/xlink" x="0px" y="0px"
	 viewBox="0 0 350 230" style="enable-background:new 0 0 350 230;" xml:space="preserve">
<style type="text/css">
	.st0{fill:#DDDDDD;}
	.st1{fill:#F7931E;}
	.st2{fill:#604F3E;}
	.st3{fill:#2C1E20;}
	.st4{fill:#F7BF0B;}
	.st5{fill:#FFCE00;}
	.st6{fill-rule:evenodd;clip-rule:evenodd;fill:#F3B03C;}
	.st7{fill:#C41621;}
	.st8{fill:#352B2F;}
	.st9{fill:#FFFFFF;}
	.st10{fill:#00FFFF;}
	.st11{fill:#29ABE2;}
	.st12{fill:#B61E5A;}
	.st13{fill:#1E2254;}
	.st14{fill:#33DDFF;}
	.st15{fill:#0065A3;}
	.st16{fill:#F6973B;}
	.st17{fill:#5A3FA8;}
	.st18{fill:#00AB91;}
	.st19{fill-rule:evenodd;clip-rule:evenodd;fill:#13A559;}
	.st20{fill:#4E17AC;}
	.st21{fill:#103747;}
	.st22{fill:#019AC2;}
	.st23{fill-rule:evenodd;clip-rule:evenodd;fill:#B825BD;}
	.st24{fill-rule:evenodd;clip-rule:evenodd;fill:#FF8788;}
	.st25{fill:#282519;}
	.st26{fill:#C71A8B;}
	.st27{fill:#F9C60B;}
	.st28{fill:#E67A7B;}
	.st29{fill:#66767A;}
</style>
<g id="Layer_1">
</g>
<g id="Layer_2">
	<g>
		<path class="st3" d="M209.94,78.05c-0.74-0.6-1.63-1.04-2.6-1.24c-0.4-0.09-0.83-0.13-1.26-0.13h-1.69v-2.53h-7.71v2.53h-2.59
			l-2.89-6.5c-1.14-2.56-3.67-4.2-6.46-4.2h-19.53c-1.39,0-2.71,0.41-3.84,1.14c-0.69,0.44-1.3,1.03-1.8,1.7
			c-0.31,0.43-0.59,0.87-0.81,1.36l-2.89,6.5h-2.59v-2.53h-7.71v2.53h-1.69c-3.44,0-6.24,2.8-6.24,6.23v37.24
			c0,0.64,0.13,1.26,0.31,1.86c0.5,1.57,1.58,2.86,3.01,3.63c0.14,0.07,0.29,0.16,0.44,0.23c0.13,0.06,0.29,0.1,0.43,0.14
			c0.64,0.23,1.31,0.37,2.04,0.37h12.33c0.06,0.04,0.1,0.1,0.17,0.14c0.23,0.17,0.47,0.34,0.71,0.51c0.41,0.3,0.86,0.59,1.3,0.86
			c0.2,0.13,0.4,0.27,0.6,0.39c0.61,0.37,1.24,0.71,1.87,1.03c0.23,0.11,0.46,0.23,0.69,0.34c0.59,0.27,1.19,0.54,1.79,0.79
			c0.11,0.04,0.23,0.1,0.36,0.14c0.71,0.29,1.46,0.53,2.2,0.76c0.2,0.06,0.4,0.11,0.6,0.17c0.77,0.21,1.54,0.41,2.33,0.57
			c0.01,0,0.01,0,0.03,0c0.26,0.13,0.53,0.2,0.81,0.24l1.71,0.19c0.03,0,0.06,0.01,0.09,0.01l0.77,0.09h0.17
			c0.07,0,0.16,0.01,0.23,0.01c0.19,0.01,0.34,0.01,0.51,0.03c0.64,0.04,1.24,0.07,1.8,0.07c0,0,0.01,0,0.03,0
			c0.77,0,1.54-0.04,2.31-0.1l0.56-0.04c0.7-0.06,1.41-0.14,2.11-0.26c0.06-0.01,0.1-0.01,0.16-0.03c0.77-0.13,1.54-0.29,2.3-0.47
			c0.11-0.03,0.23-0.06,0.34-0.09c0.73-0.19,1.44-0.4,2.14-0.63c0.03-0.01,0.06-0.03,0.09-0.03c0.79-0.27,1.54-0.56,2.3-0.89
			c0.01-0.01,0.04-0.03,0.06-0.03c0.76-0.33,1.49-0.69,2.21-1.07c1.47-0.79,2.89-1.69,4.21-2.7c0-0.01,0-0.01,0-0.01h12.28
			c0.43,0,0.86-0.04,1.26-0.13c0.27-0.06,0.53-0.14,0.8-0.24c0.14-0.04,0.29-0.09,0.43-0.14c0.14-0.07,0.29-0.16,0.43-0.23
			c0.33-0.19,0.66-0.39,0.94-0.63c0.97-0.77,1.69-1.8,2.07-3c0.19-0.59,0.31-1.21,0.31-1.86V82.91
			C212.33,80.94,211.39,79.19,209.94,78.05z M161.14,71.22c0.27-0.61,0.67-1.14,1.14-1.56c0.04-0.03,0.07-0.06,0.1-0.07
			c0.3-0.26,0.63-0.47,0.97-0.63c0.59-0.27,1.23-0.41,1.89-0.41h19.53c1.33,0,2.56,0.59,3.4,1.56c0.29,0.33,0.53,0.7,0.7,1.11
			l1.57,3.51l0.01,0.03c-0.21-0.13-0.44-0.24-0.66-0.36c-0.46-0.24-0.91-0.49-1.37-0.71c-0.3-0.14-0.61-0.27-0.93-0.4
			c-0.49-0.21-0.97-0.43-1.47-0.61c-0.04-0.01-0.09-0.03-0.14-0.06c-0.06-0.09-0.13-0.16-0.19-0.24c-0.14-0.19-0.29-0.39-0.47-0.56
			c-0.09-0.07-0.19-0.13-0.29-0.19c-0.19-0.16-0.37-0.3-0.6-0.41c-0.17-0.09-0.36-0.13-0.54-0.2c-0.17-0.06-0.34-0.14-0.54-0.19
			c-0.37-0.09-0.79-0.14-1.19-0.14h-5.11c-0.34-0.01-0.69-0.04-1-0.04c-0.33-0.01-0.64-0.03-0.94-0.03c-0.71,0-1.41,0.03-2.11,0.07
			h-4.94c-0.41,0-0.81,0.06-1.19,0.14c-0.2,0.04-0.37,0.13-0.56,0.19c-0.17,0.07-0.36,0.11-0.51,0.19c-0.21,0.11-0.4,0.26-0.6,0.4
			c-0.09,0.07-0.2,0.11-0.29,0.2c-0.17,0.16-0.31,0.34-0.44,0.53c-0.06,0.07-0.14,0.14-0.19,0.23h-0.01
			c-1.59,0.59-3.11,1.3-4.59,2.14L161.14,71.22z M200.37,114.64c-0.39,0.74-0.8,1.47-1.26,2.19l0.01,0.01l0.01,0.01l-0.47,0.7
			c0,0,0,0-0.01,0l-1.07,1.61l-0.04-0.06c-0.2,0.26-0.41,0.5-0.61,0.74c-0.11,0.14-0.23,0.3-0.36,0.43
			c-0.13,0.16-0.26,0.29-0.39,0.44c-1,1.11-2.09,2.14-3.24,3.07c-1.17,0.97-2.43,1.81-3.74,2.57c-4.26,2.46-9.14,3.8-14.2,3.8
			c-0.77,0-1.57-0.04-2.39-0.11l-0.01,0.03l-0.84-0.1l-1.93-0.21l0.04-0.09c-3.26-0.59-6.31-1.73-9.07-3.31
			c-1.31-0.76-2.58-1.61-3.76-2.57c-1.17-0.94-2.26-1.96-3.27-3.07c-0.11-0.14-0.23-0.3-0.36-0.44c-0.11-0.13-0.23-0.29-0.34-0.43
			c-0.8-0.96-1.54-1.96-2.21-3.01c-0.44-0.71-0.86-1.44-1.24-2.2c-2-3.9-3.13-8.31-3.13-12.97c0-4.67,1.14-9.2,3.28-13.27
			c0.34-0.64,0.7-1.27,1.1-1.9l-0.01-0.03l0.47-0.7c0-0.01,0-0.01,0-0.01l1.09-1.6l0.03,0.06c1.46-1.87,3.13-3.54,4.96-4.97
			c1.23-0.97,2.53-1.83,3.9-2.57c0.23-0.13,0.46-0.26,0.7-0.37c3.96-2.04,8.4-3.14,13-3.14c0.77,0,1.56,0.04,2.36,0.11l0.01-0.03
			l0.84,0.1l1.94,0.21l-0.06,0.09c2.8,0.5,5.46,1.4,7.88,2.64c0.24,0.11,0.47,0.26,0.71,0.39c1.37,0.76,2.68,1.6,3.91,2.57
			c3.14,2.47,5.73,5.6,7.6,9.16c2.1,3.97,3.28,8.48,3.28,13.27C203.5,106.22,202.42,110.65,200.37,114.64z"/>
		<path class="st4" d="M174.98,120.72l-1.75,3.08l-1.46,2.57l-0.46,0.81l-0.08,0.14c-1.41-0.21-2.78-0.53-4.1-0.95
			c-2-0.63-3.89-1.5-5.64-2.57c-1.47-0.9-2.84-1.93-4.09-3.08c-0.15-0.14-0.29-0.29-0.44-0.43c-0.15-0.14-0.3-0.28-0.44-0.43
			c-0.92-0.94-1.77-1.95-2.54-3.01c-0.51-0.71-0.99-1.44-1.43-2.2c-0.2-0.35-0.4-0.7-0.59-1.06h0.21h26.87l-0.6,1.06l-1.25,2.2
			l-1.09,1.92l-0.62,1.09l-0.24,0.43L174.98,120.72z M164.84,107.9l-12.29-18.83l-0.12-0.18c-2.21,3.89-3.37,8.27-3.37,12.79
			c0,3.29,0.61,6.44,1.73,9.35h0.19h15.65L164.84,107.9z M155.19,88.41l1.3,1.99l5.97,9.14l6.32-11.14l5.2-9.16l1.46-2.57l0,0
			l0.43-0.76l0.09-0.16c-0.32-0.01-0.65-0.02-0.96-0.02c-2.36,0-4.68,0.33-6.9,0.94c0,0,0,0,0,0c-2.15,0.59-4.21,1.45-6.13,2.57
			c-3.11,1.81-5.85,4.27-8.02,7.27l0,0l0.09,0.13L155.19,88.41z M170.97,89.75h9.79h17.08h0.21c-0.24-0.46-0.49-0.91-0.75-1.35
			c-2.25-3.78-5.44-6.94-9.26-9.16c-1.89-1.1-3.93-1.97-6.1-2.57c0,0,0,0,0,0c-1.03-0.28-2.09-0.51-3.17-0.66l-0.08,0.14l-0.3,0.53
			l0,0l-1.46,2.57l-5.2,9.16L170.97,89.75z M185.16,95.44l12.29,18.83l0.12,0.18c2.21-3.89,3.37-8.27,3.37-12.79
			c0-3.29-0.61-6.44-1.73-9.35h-0.19h-15.65L185.16,95.44z M193.47,119.86c0.92-0.93,1.78-1.94,2.56-3.01
			c0.01-0.01,0.01-0.02,0.02-0.02l-0.09-0.13l-1.33-2.05l-4.12-6.32l-2.96-4.53l0,0l-6.16,10.85l-1.25,2.2l-1.71,3.01l-0.24,0.43
			l-0.24,0.43l-1.75,3.08l-1.46,2.57l-0.59,1.05l-0.09,0.16c0,0,0,0,0,0c0.33,0.01,0.65,0.02,0.97,0.02c2.71,0,5.37-0.43,7.88-1.23
			c1.97-0.63,3.86-1.49,5.62-2.57c1.45-0.89,2.82-1.92,4.08-3.08c0.16-0.14,0.32-0.28,0.47-0.43
			C193.2,120.15,193.33,120.01,193.47,119.86z"/>
		<path class="st3" d="M175,94.07c-4.2,0-7.6,3.4-7.6,7.6c0,4.2,3.4,7.6,7.6,7.6c4.2,0,7.6-3.4,7.6-7.6
			C182.6,97.47,179.2,94.07,175,94.07z M177.54,99.95c-0.87,0-1.57-0.7-1.57-1.57c0-0.87,0.7-1.57,1.57-1.57
			c0.87,0,1.57,0.7,1.57,1.57C179.11,99.25,178.4,99.95,177.54,99.95z"/>
	</g>
</g>
<g id="Layer_3">
</g>
<g id="Layer_4">
</g>
<g id="Layer_5">
</g>
<g id="Layer_6">
</g>
<g id="Layer_7">
</g>
<g id="Layer_8">
</g>
<g id="Layer_9">
</g>
<g id="Layer_10">
</g>
<g id="Layer_11">
</g>
<g id="Layer_12">
</g>
<g id="Layer_13">
</g>
<g id="Layer_14">
</g>
<g id="Layer_15">
</g>
</svg>
