<?xml version="1.0" encoding="utf-8"?>
<!-- Generator: Adobe Illustrator 27.8.1, SVG Export Plug-In . SVG Version: 6.00 Build 0)  -->
<svg version="1.1" xmlns="http://www.w3.org/2000/svg" xmlns:xlink="http://www.w3.org/1999/xlink" x="0px" y="0px"
	 viewBox="0 0 350 230" style="enable-background:new 0 0 350 230;" xml:space="preserve">
<style type="text/css">
	.st0{fill:#DDDDDD;}
	.st1{fill:#F7931E;}
	.st2{fill:#604F3E;}
	.st3{fill:#2C1E20;}
	.st4{fill:#F7BF0B;}
	.st5{fill:#FFCE00;}
	.st6{fill-rule:evenodd;clip-rule:evenodd;fill:#F3B03C;}
	.st7{fill:#C41621;}
	.st8{fill:#352B2F;}
	.st9{fill:#FFFFFF;}
	.st10{fill:#00FFFF;}
	.st11{fill:#29ABE2;}
	.st12{fill:#B61E5A;}
	.st13{fill:#1E2254;}
	.st14{fill:#33DDFF;}
	.st15{fill:#0065A3;}
	.st16{fill:#F6973B;}
	.st17{fill:#5A3FA8;}
	.st18{fill:#00AB91;}
	.st19{fill-rule:evenodd;clip-rule:evenodd;fill:#13A559;}
	.st20{fill:#4E17AC;}
	.st21{fill:#103747;}
	.st22{fill:#019AC2;}
	.st23{fill-rule:evenodd;clip-rule:evenodd;fill:#B825BD;}
	.st24{fill-rule:evenodd;clip-rule:evenodd;fill:#FF8788;}
	.st25{fill:#282519;}
	.st26{fill:#C71A8B;}
	.st27{fill:#F9C60B;}
	.st28{fill:#E67A7B;}
	.st29{fill:#66767A;}
</style>
<g id="Layer_1">
</g>
<g id="Layer_2">
</g>
<g id="Layer_3">
	<g>
		<path class="st5" d="M168.13,87.85c-0.37-0.45-0.59-1.03-0.59-1.66v-3.42c0-1.46,1.19-2.65,2.65-2.65h5.67L168.13,87.85z
			 M164.97,86.37V82.6c0-2.62,2.12-4.74,4.74-4.74h10.58c2.62,0,4.74,2.12,4.74,4.74v3.77c0,2.62-2.12,4.74-4.74,4.74h-10.58
			C167.09,91.11,164.97,88.99,164.97,86.37z M166.79,86.37c0,1.61,1.31,2.92,2.92,2.92h10.58c1.61,0,2.92-1.31,2.92-2.92V82.6
			c0-1.61-1.31-2.92-2.92-2.92h-10.58c-1.61,0-2.92,1.31-2.92,2.92V86.37z M194.85,97.55v16.61c0,3.02-2.46,5.49-5.49,5.49h-28.8
			c-3.02,0-5.49-2.46-5.49-5.49V97.55c0-2.92,2.29-5.31,5.17-5.47h29.43C192.56,92.25,194.85,94.63,194.85,97.55z M193.03,112.42
			h-8.39c-2.12,3.07-5.66,5.07-9.67,5.07c-4.01,0-7.55-2.01-9.67-5.07h-8.39v1.59c0,1.92,1.49,3.51,3.4,3.65h29.31
			c1.91-0.13,3.4-1.73,3.4-3.65V112.42z M174.97,95.84c-5.47,0-9.9,4.43-9.9,9.9c0,5.47,4.43,9.9,9.9,9.9c5.47,0,9.9-4.43,9.9-9.9
			C184.87,100.28,180.44,95.84,174.97,95.84z M193.03,97.55c0-1.92-1.49-3.51-3.4-3.65h-29.31c-1.91,0.13-3.4,1.73-3.4,3.65v1.59
			h8.34c2.12-3.11,5.68-5.15,9.72-5.15c4.04,0,7.61,2.04,9.72,5.15h8.34V97.55z M169.28,105.75c0,1.44,0.54,2.75,1.42,3.75
			c2.67-2.67,5.35-5.35,8.02-8.02c-1-0.88-2.31-1.42-3.75-1.42C171.83,100.06,169.28,102.6,169.28,105.75z M183.37,105.75
			c0,4.64-3.76,8.4-8.4,8.4c-4.64,0-8.4-3.76-8.4-8.4s3.76-8.4,8.4-8.4C179.61,97.35,183.37,101.11,183.37,105.75z M181.91,105.75
			c0-3.83-3.11-6.94-6.94-6.94c-3.83,0-6.94,3.11-6.94,6.94s3.11,6.94,6.94,6.94C178.8,112.68,181.91,109.58,181.91,105.75z"/>
		<path class="st3" d="M175,70.34c-17.22,0-31.19,13.96-31.19,31.19s13.96,31.19,31.19,31.19s31.19-13.96,31.19-31.19
			S192.22,70.34,175,70.34z M175,130.87c-16.21,0-29.35-13.14-29.35-29.35S158.79,72.18,175,72.18s29.35,13.14,29.35,29.35
			S191.21,130.87,175,130.87z"/>
		<g>
			<g>
				<path class="st3" d="M197.52,76.12c-0.21,0-0.42-0.07-0.59-0.22c-6.11-5.23-13.9-8.12-21.94-8.12c-8.03,0-15.81,2.87-21.91,8.09
					c-0.38,0.32-0.95,0.28-1.27-0.1c-0.32-0.38-0.28-0.95,0.1-1.27c6.43-5.5,14.63-8.52,23.08-8.52c8.47,0,16.68,3.04,23.11,8.55
					c0.38,0.32,0.42,0.89,0.1,1.27C198.03,76.01,197.78,76.12,197.52,76.12z"/>
			</g>
		</g>
		<g>
			<g>
				<path class="st3" d="M208.74,101.53c0,5.53-1.37,10.94-3.92,15.77h2.01c2.42-4.87,3.71-10.27,3.71-15.77
					c0-6.49-1.77-12.85-5.12-18.38c-0.26-0.43-0.81-0.56-1.24-0.3c-0.42,0.26-0.56,0.81-0.3,1.24
					C207.06,89.33,208.74,95.36,208.74,101.53z"/>
			</g>
		</g>
		<g>
			<g>
				<path class="st3" d="M145.18,117.3c-2.56-4.83-3.92-10.24-3.92-15.77c0-6.18,1.69-12.23,4.88-17.48
					c0.26-0.42,0.12-0.98-0.3-1.24c-0.42-0.26-0.98-0.12-1.24,0.3c-3.36,5.54-5.14,11.91-5.14,18.42c0,5.51,1.29,10.9,3.71,15.77
					H145.18z"/>
			</g>
		</g>
	</g>
</g>
<g id="Layer_4">
</g>
<g id="Layer_5">
</g>
<g id="Layer_6">
</g>
<g id="Layer_7">
</g>
<g id="Layer_8">
</g>
<g id="Layer_9">
</g>
<g id="Layer_10">
</g>
<g id="Layer_11">
</g>
<g id="Layer_12">
</g>
<g id="Layer_13">
</g>
<g id="Layer_14">
</g>
<g id="Layer_15">
</g>
</svg>
