<?xml version="1.0" encoding="utf-8"?>
<!-- Generator: Adobe Illustrator 27.8.1, SVG Export Plug-In . SVG Version: 6.00 Build 0)  -->
<svg version="1.1" xmlns="http://www.w3.org/2000/svg" xmlns:xlink="http://www.w3.org/1999/xlink" x="0px" y="0px"
	 viewBox="0 0 350 230" style="enable-background:new 0 0 350 230;" xml:space="preserve">
<style type="text/css">
	.st0{fill:#DDDDDD;}
	.st1{fill:#F7931E;}
	.st2{fill:#604F3E;}
	.st3{fill:#2C1E20;}
	.st4{fill:#F7BF0B;}
	.st5{fill:#FFCE00;}
	.st6{fill-rule:evenodd;clip-rule:evenodd;fill:#F3B03C;}
	.st7{fill:#C41621;}
	.st8{fill:#352B2F;}
	.st9{fill:#FFFFFF;}
	.st10{fill:#00FFFF;}
	.st11{fill:#29ABE2;}
	.st12{fill:#B61E5A;}
	.st13{fill:#1E2254;}
	.st14{fill:#33DDFF;}
	.st15{fill:#0065A3;}
	.st16{fill:#F6973B;}
	.st17{fill:#5A3FA8;}
	.st18{fill:#00AB91;}
	.st19{fill-rule:evenodd;clip-rule:evenodd;fill:#13A559;}
	.st20{fill:#4E17AC;}
	.st21{fill:#103747;}
	.st22{fill:#019AC2;}
	.st23{fill-rule:evenodd;clip-rule:evenodd;fill:#B825BD;}
	.st24{fill-rule:evenodd;clip-rule:evenodd;fill:#FF8788;}
	.st25{fill:#282519;}
	.st26{fill:#C71A8B;}
	.st27{fill:#F9C60B;}
	.st28{fill:#E67A7B;}
	.st29{fill:#66767A;}
</style>
<g id="Layer_1">
</g>
<g id="Layer_2">
</g>
<g id="Layer_3">
</g>
<g id="Layer_4">
	<path class="st6" d="M118.94,76.85c-2.86,0.25-5.08,2.63-5.08,5.56v44.71c0,3.08,2.5,5.6,5.58,5.6h78.26c3.08,0,5.58-2.52,5.58-5.6
		V114.5l-3.99,2.04l-5.03-9.91l9.03-4.58V91.89l-6.51,0.36l-0.64-11.09l6.9-0.39c-0.63-2.13-2.54-3.72-4.83-3.92H177.5l-1.43-7.3
		c-0.41-2.07-2.18-3.56-4.24-3.56h-13.32h-13.22c-2.06,0-3.83,1.5-4.24,3.56l-1.43,7.3H118.94z M158.56,84.45
		c2.75,0,5.38,0.57,7.78,1.57h-0.02c2.49,1.02,4.72,2.54,6.6,4.4l0,0l0,0c1.88,1.88,3.38,4.1,4.4,6.6h0.02
		c0.97,2.4,1.54,5.01,1.54,7.76c0,2.74-0.57,5.38-1.54,7.78h-0.02c-1.02,2.47-2.52,4.72-4.4,6.58l0,0v0.02
		c-1.88,1.86-4.11,3.36-6.6,4.4h0.02c-2.41,0.99-5.04,1.54-7.78,1.54c-2.74,0-5.38-0.55-7.78-1.54l0,0
		c-2.47-1.04-4.72-2.54-6.58-4.4v-0.02l0,0c-1.88-1.86-3.38-4.11-4.4-6.58h-0.02c-0.97-2.4-1.54-5.04-1.54-7.78
		c0-2.74,0.56-5.35,1.54-7.76h0.02c1.02-2.5,2.52-4.72,4.4-6.6l0,0l0,0c1.86-1.86,4.11-3.38,6.58-4.4l0,0
		C153.18,85.01,155.82,84.45,158.56,84.45L158.56,84.45z M126.31,81.36c2.11,0,3.81,1.72,3.81,3.83c0,2.11-1.7,3.81-3.81,3.81
		c-2.11,0-3.83-1.7-3.83-3.81C122.48,83.08,124.2,81.36,126.31,81.36L126.31,81.36z M168.25,95.08c-1.27-1.27-2.79-2.29-4.45-2.99
		c-1.59-0.66-3.36-1.02-5.24-1.02c-1.88,0-3.65,0.36-5.24,1.02c-1.68,0.7-3.18,1.72-4.45,2.99c-1.27,1.27-2.29,2.79-3,4.45
		c-0.66,1.59-1.02,3.38-1.02,5.24c0,1.88,0.36,3.65,1.02,5.26c0.7,1.66,1.72,3.15,3,4.42c1.27,1.27,2.77,2.31,4.45,3
		c1.59,0.66,3.36,1.02,5.24,1.02c1.88,0,3.65-0.36,5.24-1.02c1.66-0.68,3.18-1.72,4.45-3c1.27-1.27,2.29-2.77,3-4.42
		c0.66-1.61,1.02-3.38,1.02-5.26c0-1.86-0.36-3.65-1.02-5.24C170.54,97.87,169.52,96.35,168.25,95.08L168.25,95.08z"/>
	<g>
		<g>
			<polygon class="st6" points="195.74,107.13 206.76,101.55 210.76,109.44 199.75,115.02 			"/>
			
				<rect x="197.52" y="81.86" transform="matrix(0.9984 -0.0567 0.0567 0.9984 -4.569 11.6992)" class="st6" width="12.36" height="8.86"/>
			<polygon class="st6" points="211.03,94.9 218.33,94.47 218.63,99.71 211.32,100.14 			"/>
			<polygon class="st6" points="216.9,104.95 224.18,104.54 224.5,109.76 217.19,110.19 			"/>
			<polygon class="st6" points="208.58,113.52 215.86,113.12 216.18,118.36 208.87,118.76 			"/>
			
				<rect x="219.31" y="84.93" transform="matrix(0.8809 -0.4734 0.4734 0.8809 -14.7578 115.676)" class="st6" width="6.23" height="4.45"/>
			
				<rect x="227.79" y="95.98" transform="matrix(0.2798 -0.96 0.96 0.2798 70.5144 292.1994)" class="st6" width="4.47" height="6.24"/>
			
				<rect x="225.87" y="113.02" transform="matrix(0.2808 -0.9598 0.9598 0.2808 52.5929 302.4516)" class="st6" width="4.47" height="6.22"/>
			<polygon class="st6" points="235.14,106.51 240.17,104.97 241.28,108.58 236.25,110.12 			"/>
			<polygon class="st6" points="233.64,89.62 238.68,88.05 239.79,91.68 234.75,93.23 			"/>
			
				<rect x="241.56" y="98.11" transform="matrix(0.956 -0.2933 0.2933 0.956 -18.4726 75.7853)" class="st6" width="3.87" height="2.78"/>
		</g>
	</g>
</g>
<g id="Layer_5">
</g>
<g id="Layer_6">
</g>
<g id="Layer_7">
</g>
<g id="Layer_8">
</g>
<g id="Layer_9">
</g>
<g id="Layer_10">
</g>
<g id="Layer_11">
</g>
<g id="Layer_12">
</g>
<g id="Layer_13">
</g>
<g id="Layer_14">
</g>
<g id="Layer_15">
</g>
</svg>
