<?xml version="1.0" encoding="utf-8"?>
<!-- Generator: Adobe Illustrator 27.8.1, SVG Export Plug-In . SVG Version: 6.00 Build 0)  -->
<svg version="1.1" xmlns="http://www.w3.org/2000/svg" xmlns:xlink="http://www.w3.org/1999/xlink" x="0px" y="0px"
	 viewBox="0 0 350 230" style="enable-background:new 0 0 350 230;" xml:space="preserve">
<style type="text/css">
	.st0{fill:#DDDDDD;}
	.st1{fill:#F7931E;}
	.st2{fill:#604F3E;}
	.st3{fill:#2C1E20;}
	.st4{fill:#F7BF0B;}
	.st5{fill:#FFCE00;}
	.st6{fill-rule:evenodd;clip-rule:evenodd;fill:#F3B03C;}
	.st7{fill:#C41621;}
	.st8{fill:#352B2F;}
	.st9{fill:#FFFFFF;}
	.st10{fill:#00FFFF;}
	.st11{fill:#29ABE2;}
	.st12{fill:#B61E5A;}
	.st13{fill:#1E2254;}
	.st14{fill:#33DDFF;}
	.st15{fill:#0065A3;}
	.st16{fill:#F6973B;}
	.st17{fill:#5A3FA8;}
	.st18{fill:#00AB91;}
	.st19{fill-rule:evenodd;clip-rule:evenodd;fill:#13A559;}
	.st20{fill:#4E17AC;}
	.st21{fill:#103747;}
	.st22{fill:#019AC2;}
	.st23{fill-rule:evenodd;clip-rule:evenodd;fill:#B825BD;}
	.st24{fill-rule:evenodd;clip-rule:evenodd;fill:#FF8788;}
	.st25{fill:#282519;}
	.st26{fill:#C71A8B;}
	.st27{fill:#F9C60B;}
	.st28{fill:#E67A7B;}
	.st29{fill:#66767A;}
</style>
<g id="Layer_1">
</g>
<g id="Layer_2">
</g>
<g id="Layer_3">
</g>
<g id="Layer_4">
</g>
<g id="Layer_5">
	<path class="st7" d="M148.38,81.62c-0.82,0.08-1.55,0.46-2.05,1.03c-0.53,0.59-0.86,1.34-0.86,2.2v30.04c0,0.9,0.38,1.72,0.96,2.31
		c0.57,0.58,1.38,0.94,2.28,0.94h52.6c0.88,0,1.69-0.38,2.28-0.94c0.58-0.59,0.94-1.41,0.94-2.31V84.85c0-0.86-0.31-1.61-0.84-2.2
		c-0.52-0.57-1.26-0.94-2.05-1.03h-13.91h-0.44l-0.09-0.42l-0.94-4.92c-0.13-0.57-0.42-1.05-0.84-1.4
		c-0.42-0.36-0.94-0.55-1.51-0.55h-8.96h-8.86c-0.57,0-1.11,0.19-1.51,0.55c-0.42,0.36-0.74,0.84-0.84,1.4l-0.96,4.92l-0.09,0.42
		h-0.42H148.38z M145.55,81.96c0.69-0.78,1.68-1.28,2.77-1.38h0.06h13.47l0.88-4.48c0.15-0.82,0.58-1.53,1.19-2.01
		c0.59-0.5,1.36-0.8,2.18-0.8h8.86h8.96c0.81,0,1.57,0.29,2.18,0.8c0.58,0.48,1.02,1.19,1.2,2.01l0.86,4.48h13.49h0.04
		c1.09,0.11,2.07,0.61,2.78,1.38c0.69,0.75,1.11,1.76,1.11,2.89v30.04c0,1.19-0.48,2.26-1.26,3.04c-0.78,0.77-1.84,1.26-3.02,1.26
		h-52.6c-1.19,0-2.26-0.48-3.04-1.26c-0.77-0.78-1.25-1.84-1.25-3.04V84.85C144.42,83.72,144.86,82.71,145.55,81.96L145.55,81.96z
		 M175,85.69c0.94,0,1.86,0.11,2.77,0.27c0.92,0.19,1.8,0.46,2.66,0.82l0.46,0.19l0,0c0.69,0.33,1.36,0.69,1.99,1.11
		c0.77,0.52,1.49,1.11,2.14,1.78h0.02l0,0c0.65,0.65,1.23,1.38,1.76,2.16c0.42,0.63,0.8,1.3,1.11,1.99h0.02l0.19,0.44
		c0.36,0.86,0.63,1.76,0.8,2.66c0.19,0.9,0.27,1.82,0.27,2.76c0,0.94-0.09,1.86-0.27,2.76c-0.17,0.92-0.44,1.82-0.8,2.66l-0.21,0.48
		l0,0c-0.31,0.69-0.69,1.34-1.11,1.97c-0.53,0.78-1.11,1.49-1.76,2.16l0,0h-0.02c-0.65,0.65-1.36,1.26-2.14,1.76
		c-0.63,0.42-1.3,0.8-1.99,1.11v0.02l-0.46,0.19c-0.86,0.36-1.74,0.63-2.66,0.8c-0.9,0.19-1.83,0.27-2.77,0.27
		c-0.94,0-1.86-0.08-2.77-0.27c-0.9-0.17-1.8-0.44-2.66-0.8l-0.48-0.21h0.02c-0.69-0.31-1.36-0.69-1.99-1.11
		c-0.76-0.5-1.49-1.11-2.14-1.76l0,0h-0.02c-0.65-0.67-1.24-1.38-1.76-2.16c-0.42-0.63-0.77-1.28-1.09-1.97h-0.02l-0.19-0.48
		c-0.36-0.84-0.63-1.74-0.81-2.66c-0.17-0.9-0.27-1.82-0.27-2.76c0-0.94,0.1-1.86,0.27-2.76c0.19-0.9,0.46-1.8,0.81-2.66l0.19-0.46
		l0,0c0.34-0.69,0.69-1.34,1.11-1.97c0.52-0.77,1.11-1.51,1.76-2.16h0.02l0,0c0.65-0.67,1.38-1.26,2.14-1.78
		c0.63-0.42,1.3-0.77,1.99-1.09v-0.02l0.46-0.19c0.86-0.36,1.76-0.63,2.66-0.82C173.14,85.79,174.05,85.69,175,85.69L175,85.69z
		 M177.55,86.98c-0.82-0.15-1.67-0.25-2.56-0.25s-1.74,0.11-2.56,0.25c-0.76,0.15-1.47,0.36-2.16,0.63l-0.32,0.13
		c-0.8,0.33-1.55,0.73-2.26,1.21c-0.71,0.48-1.38,1.03-1.99,1.63l0,0l0,0l0,0c-0.61,0.61-1.15,1.28-1.63,1.99
		c-0.49,0.71-0.88,1.47-1.21,2.28l-0.11,0.27c-0.27,0.69-0.5,1.42-0.65,2.18c-0.17,0.84-0.25,1.7-0.25,2.55
		c0,0.88,0.09,1.74,0.25,2.58c0.15,0.73,0.36,1.47,0.63,2.16l0.13,0.29c0.33,0.8,0.73,1.57,1.21,2.26c0.48,0.71,1.03,1.38,1.63,1.99
		l0,0v0.02l0,0c0.61,0.61,1.28,1.15,1.99,1.64c0.71,0.46,1.47,0.88,2.26,1.19l0.32,0.13c0.69,0.27,1.4,0.48,2.16,0.63
		c0.81,0.17,1.67,0.25,2.56,0.25s1.74-0.08,2.56-0.25c0.77-0.15,1.49-0.36,2.2-0.63l0.27-0.13c0.79-0.31,1.55-0.73,2.26-1.19
		c0.72-0.48,1.39-1.03,1.99-1.64l0,0l0.02-0.02l0,0c0.61-0.61,1.15-1.28,1.63-1.99c0.46-0.69,0.88-1.47,1.19-2.26l0.13-0.31
		c0.27-0.69,0.48-1.4,0.63-2.14c0.17-0.84,0.25-1.7,0.25-2.58c0-0.86-0.09-1.72-0.25-2.55c-0.15-0.76-0.36-1.49-0.63-2.18
		l-0.13-0.27c-0.31-0.82-0.73-1.57-1.19-2.28c-0.48-0.71-1.03-1.38-1.63-1.99l0,0h-0.02l0,0c-0.61-0.61-1.28-1.15-1.99-1.63
		c-0.71-0.48-1.47-0.88-2.26-1.21l-0.31-0.13C179.02,87.34,178.31,87.13,177.55,86.98L177.55,86.98z M153.32,83.61
		c0.86,0,1.62,0.36,2.18,0.92c0.57,0.54,0.9,1.32,0.9,2.18s-0.34,1.63-0.9,2.18c-0.56,0.56-1.32,0.92-2.18,0.92s-1.63-0.36-2.2-0.92
		c-0.54-0.55-0.9-1.32-0.9-2.18s0.36-1.64,0.9-2.18C151.69,83.97,152.46,83.61,153.32,83.61L153.32,83.61z M154.76,85.27
		c-0.37-0.38-0.88-0.61-1.44-0.61c-0.57,0-1.09,0.23-1.44,0.61c-0.38,0.38-0.61,0.88-0.61,1.45c0,0.56,0.23,1.07,0.61,1.45
		c0.36,0.38,0.88,0.59,1.44,0.59c0.57,0,1.07-0.21,1.44-0.59c0.36-0.38,0.59-0.88,0.59-1.45C155.35,86.15,155.12,85.64,154.76,85.27
		L154.76,85.27z M181.13,93.73c-0.4-0.4-0.84-0.78-1.32-1.09c-0.46-0.32-0.96-0.59-1.49-0.8c-0.5-0.21-1.04-0.38-1.61-0.5
		c-0.54-0.1-1.13-0.15-1.72-0.15c-0.59,0-1.15,0.04-1.7,0.17c-0.57,0.1-1.11,0.27-1.63,0.48c-0.53,0.21-1.01,0.48-1.49,0.8
		c-0.46,0.31-0.9,0.69-1.32,1.09c-0.42,0.42-0.77,0.86-1.09,1.32c-0.32,0.48-0.58,0.99-0.8,1.49c-0.21,0.52-0.38,1.07-0.5,1.63
		c-0.11,0.55-0.15,1.11-0.15,1.7c0,0.59,0.04,1.17,0.15,1.72c0.12,0.56,0.29,1.11,0.5,1.61c0.21,0.52,0.48,1.02,0.8,1.49
		c0.31,0.48,0.67,0.92,1.09,1.34c0.42,0.4,0.86,0.78,1.32,1.09c0.48,0.31,0.96,0.58,1.49,0.79c0.52,0.21,1.04,0.38,1.63,0.48
		c0.54,0.1,1.11,0.17,1.7,0.17c0.58,0,1.17-0.06,1.72-0.17c0.57-0.11,1.11-0.27,1.61-0.48c0.53-0.21,1.03-0.48,1.49-0.79
		c0.48-0.32,0.92-0.69,1.32-1.09c0.42-0.42,0.8-0.86,1.11-1.34c0.32-0.46,0.57-0.96,0.8-1.49c0.21-0.5,0.38-1.05,0.48-1.61
		c0.11-0.54,0.17-1.13,0.17-1.72c0-0.59-0.06-1.15-0.17-1.7c-0.1-0.56-0.27-1.11-0.48-1.63c-0.23-0.5-0.48-1.01-0.8-1.49
		C181.93,94.59,181.56,94.15,181.13,93.73L181.13,93.73z M180.4,91.76c0.54,0.38,1.03,0.77,1.49,1.23c0.44,0.44,0.86,0.94,1.22,1.49
		c0.36,0.52,0.65,1.07,0.9,1.65c0.23,0.59,0.42,1.19,0.54,1.82c0.13,0.63,0.19,1.26,0.19,1.91c0,0.67-0.06,1.3-0.19,1.91
		c-0.12,0.65-0.31,1.26-0.54,1.82c-0.25,0.59-0.54,1.15-0.9,1.68c-0.36,0.54-0.78,1.03-1.22,1.49c-0.46,0.46-0.94,0.86-1.49,1.21
		c-0.52,0.36-1.09,0.67-1.67,0.9c-0.59,0.25-1.2,0.42-1.82,0.54c-0.61,0.13-1.26,0.19-1.91,0.19c-0.65,0-1.3-0.06-1.91-0.19
		c-0.63-0.13-1.24-0.29-1.82-0.54c-0.58-0.23-1.15-0.54-1.68-0.9c-0.52-0.35-1.03-0.75-1.47-1.21c-0.46-0.46-0.88-0.94-1.23-1.49
		c-0.36-0.52-0.65-1.09-0.9-1.68c-0.23-0.57-0.42-1.17-0.54-1.82c-0.13-0.61-0.19-1.23-0.19-1.91c0-0.65,0.06-1.28,0.19-1.91
		c0.13-0.63,0.31-1.23,0.54-1.82c0.25-0.59,0.54-1.13,0.9-1.65c0.36-0.54,0.77-1.05,1.23-1.49c0.44-0.46,0.94-0.86,1.47-1.23
		c0.53-0.34,1.09-0.65,1.68-0.88c0.59-0.25,1.19-0.44,1.82-0.56c0.61-0.11,1.26-0.17,1.91-0.17c0.65,0,1.3,0.06,1.91,0.17
		c0.62,0.13,1.23,0.32,1.82,0.56C179.31,91.11,179.88,91.42,180.4,91.76L180.4,91.76z"/>
	<path d="M142.44,61.86h13.78v1.01h-13.78c-1.24,0-2.35,0.5-3.16,1.32c-0.82,0.82-1.32,1.95-1.32,3.16v10.12h-1V67.35
		c0-1.51,0.61-2.87,1.61-3.88C139.55,62.49,140.93,61.86,142.44,61.86L142.44,61.86z M137.95,115.02v10.1c0,1.24,0.5,2.35,1.32,3.16
		c0.81,0.82,1.93,1.32,3.16,1.32h13.78v1.01h-13.78c-1.51,0-2.89-0.61-3.88-1.61c-1-0.98-1.61-2.37-1.61-3.87v-10.1H137.95z
		 M193.78,61.86h13.79c1.51,0,2.87,0.63,3.87,1.61c0.98,1.01,1.61,2.37,1.61,3.88v10.12h-1.01V67.35c0-1.21-0.52-2.35-1.32-3.16
		c-0.82-0.82-1.95-1.32-3.16-1.32h-13.79V61.86z M213.05,115.02v10.1c0,1.51-0.63,2.89-1.61,3.87c-1.01,1.01-2.37,1.61-3.87,1.61
		h-13.79v-1.01h13.79c1.22,0,2.34-0.5,3.16-1.32c0.8-0.82,1.32-1.93,1.32-3.16v-10.1H213.05z"/>
</g>
<g id="Layer_6">
</g>
<g id="Layer_7">
</g>
<g id="Layer_8">
</g>
<g id="Layer_9">
</g>
<g id="Layer_10">
</g>
<g id="Layer_11">
</g>
<g id="Layer_12">
</g>
<g id="Layer_13">
</g>
<g id="Layer_14">
</g>
<g id="Layer_15">
</g>
</svg>
