<?xml version="1.0" encoding="utf-8"?>
<!-- Generator: Adobe Illustrator 27.8.1, SVG Export Plug-In . SVG Version: 6.00 Build 0)  -->
<svg version="1.1" xmlns="http://www.w3.org/2000/svg" xmlns:xlink="http://www.w3.org/1999/xlink" x="0px" y="0px"
	 viewBox="0 0 350 230" style="enable-background:new 0 0 350 230;" xml:space="preserve">
<style type="text/css">
	.st0{fill:#DDDDDD;}
	.st1{fill:#F7931E;}
	.st2{fill:#604F3E;}
	.st3{fill:#2C1E20;}
	.st4{fill:#F7BF0B;}
	.st5{fill:#FFCE00;}
	.st6{fill-rule:evenodd;clip-rule:evenodd;fill:#F3B03C;}
	.st7{fill:#C41621;}
	.st8{fill:#352B2F;}
	.st9{fill:#FFFFFF;}
	.st10{fill:#00FFFF;}
	.st11{fill:#29ABE2;}
	.st12{fill:#B61E5A;}
	.st13{fill:#1E2254;}
	.st14{fill:#33DDFF;}
	.st15{fill:#0065A3;}
	.st16{fill:#F6973B;}
	.st17{fill:#5A3FA8;}
	.st18{fill:#00AB91;}
	.st19{fill-rule:evenodd;clip-rule:evenodd;fill:#13A559;}
	.st20{fill:#4E17AC;}
	.st21{fill:#103747;}
	.st22{fill:#019AC2;}
	.st23{fill-rule:evenodd;clip-rule:evenodd;fill:#B825BD;}
	.st24{fill-rule:evenodd;clip-rule:evenodd;fill:#FF8788;}
	.st25{fill:#282519;}
	.st26{fill:#C71A8B;}
	.st27{fill:#F9C60B;}
	.st28{fill:#E67A7B;}
	.st29{fill:#66767A;}
</style>
<g id="Layer_1">
</g>
<g id="Layer_2">
</g>
<g id="Layer_3">
</g>
<g id="Layer_4">
</g>
<g id="Layer_5">
</g>
<g id="Layer_6">
	<path class="st8" d="M229.32,73.04l-8.7,0.33l-8.7,0.27l-0.36,0.01l-0.21-0.31l-5.05-7.62l-1.25-1.91l-0.62-0.96
		c-0.1-0.14-0.22-0.36-0.3-0.44c-0.08-0.11-0.17-0.21-0.27-0.31c-0.83-0.81-2.26-1.24-3.64-1.27l-19.38,0.32l-9.72,0.12l-4.86,0.04
		l-2.43,0.02l-1.22,0.01l-0.61,0.01c-0.17,0.01-0.32,0-0.48,0.02c-1.25,0.08-2.5,0.59-3.04,1.23c-0.08,0.09-0.1,0.13-0.19,0.26
		l-0.3,0.48l-0.61,0.96l-1.23,1.92l-4.93,7.68l-0.54,0.84l-1.07,0l-15.34,0.04l-1.92-0.01c-0.59,0.01-1.05,0.03-1.57,0.11
		c-1.01,0.16-1.98,0.51-2.84,1.02c-1.74,1.01-2.99,2.7-3.38,4.55c-0.03,0.23-0.09,0.47-0.11,0.7l-0.04,0.72l-0.01,1.76l-0.01,3.52
		l-0.07,7.03l-0.16,14.06l-0.13,7.03l-0.06,3.52l-0.03,1.76l-0.02,0.88c0,0.29,0.02,0.51,0.02,0.77c0.14,2.01,1.18,3.97,2.89,5.31
		c0.85,0.67,1.85,1.18,2.92,1.5c0.54,0.16,1.09,0.26,1.66,0.32c0.29,0.02,0.55,0.05,0.87,0.05l0.96,0.02
		c10.23,0.24,20.46,0.51,30.69,0.94c-10.23,0.44-20.46,0.7-30.69,0.94l-0.96,0.02c-0.32,0.01-0.7-0.01-1.05-0.02
		c-0.71-0.04-1.41-0.15-2.1-0.32c-1.38-0.34-2.69-0.94-3.82-1.75c-2.27-1.62-3.81-4.13-4.08-6.8c-0.02-0.33-0.05-0.68-0.06-0.98
		l-0.02-0.88l-0.03-1.76l-0.06-3.52l-0.13-7.03l-0.16-14.06l-0.07-7.03l-0.01-3.52l-0.01-1.76l0.05-1.04
		c0.03-0.35,0.1-0.69,0.16-1.04c0.56-2.76,2.4-5.27,4.97-6.8c1.28-0.77,2.73-1.3,4.24-1.55c0.74-0.13,1.56-0.17,2.24-0.18l1.92-0.01
		l15.34,0.04L148,72.16l4.99-7.65l1.25-1.91l0.63-0.95l0.32-0.48c0.13-0.19,0.32-0.46,0.51-0.66c0.77-0.84,1.71-1.38,2.66-1.74
		c0.95-0.36,1.94-0.55,2.93-0.61c0.24-0.02,0.5-0.01,0.73-0.02l0.61,0.01l1.22,0.01l2.43,0.02l4.86,0.04l9.72,0.12l9.72,0.15
		l4.86,0.08l4.92,0.11c1.83,0.14,3.72,0.71,5.09,2.12c0.17,0.18,0.32,0.37,0.46,0.58c0.15,0.23,0.21,0.34,0.32,0.52l0.58,0.98
		l1.15,1.96l4.56,7.87l-0.57-0.3l8.7,0.27L229.32,73.04z"/>
	<path class="st8" d="M192.69,78.26c2.8,1.59,5.31,3.72,7.3,6.27c2.01,2.53,3.59,5.44,4.52,8.58c0.95,3.13,1.38,6.46,1.09,9.79
		c-0.27,3.32-1.22,6.62-2.77,9.65c-3.09,6.04-8.75,10.94-15.5,12.99c-3.37,0.99-6.96,1.37-10.5,0.94
		c-3.53-0.43-6.98-1.57-10.08-3.32c-3.06-1.81-5.78-4.23-7.91-7.07c-2.12-2.85-3.6-6.15-4.42-9.56c-1.59-6.87-0.18-14.21,3.5-19.91
		c1.84-2.85,4.22-5.32,6.96-7.22c2.74-1.91,5.84-3.2,9.02-3.95c3.19-0.76,6.49-0.84,9.69-0.37
		C186.82,75.53,189.92,76.63,192.69,78.26z M192.54,78.53c-5.52-3.2-12.3-4.07-18.44-2.39c-6.15,1.64-11.56,5.81-14.71,11.33
		c-3.19,5.5-4.06,12.26-2.38,18.38c1.63,6.13,5.79,11.52,11.29,14.66c5.47,3.2,12.21,4.1,18.34,2.45
		c6.14-1.61,11.55-5.75,14.73-11.25c3.21-5.49,4.12-12.25,2.46-18.4C202.22,87.14,198.07,81.71,192.54,78.53z M180.38,80.21
		c-10.7,0-19.37,8.67-19.37,19.37s8.67,19.37,19.37,19.37s19.37-8.67,19.37-19.37S191.08,80.21,180.38,80.21z"/>
	<path class="st4" d="M191.45,99.58c0,6.11-4.95,11.07-11.07,11.07s-11.07-4.95-11.07-11.07c0-6.11,4.95-11.07,11.07-11.07
		S191.45,93.47,191.45,99.58z"/>
	<path class="st9" d="M177.98,92.85c0,2.39-1.94,4.33-4.33,4.33s-4.33-1.94-4.33-4.33s1.94-4.33,4.33-4.33
		S177.98,90.46,177.98,92.85z"/>
</g>
<g id="Layer_7">
</g>
<g id="Layer_8">
</g>
<g id="Layer_9">
</g>
<g id="Layer_10">
</g>
<g id="Layer_11">
</g>
<g id="Layer_12">
</g>
<g id="Layer_13">
</g>
<g id="Layer_14">
</g>
<g id="Layer_15">
</g>
</svg>
