<?xml version="1.0" encoding="utf-8"?>
<!-- Generator: Adobe Illustrator 27.8.1, SVG Export Plug-In . SVG Version: 6.00 Build 0)  -->
<svg version="1.1" xmlns="http://www.w3.org/2000/svg" xmlns:xlink="http://www.w3.org/1999/xlink" x="0px" y="0px"
	 viewBox="0 0 350 230" style="enable-background:new 0 0 350 230;" xml:space="preserve">
<style type="text/css">
	.st0{fill:#DDDDDD;}
	.st1{fill:#F7931E;}
	.st2{fill:#604F3E;}
	.st3{fill:#2C1E20;}
	.st4{fill:#F7BF0B;}
	.st5{fill:#FFCE00;}
	.st6{fill-rule:evenodd;clip-rule:evenodd;fill:#F3B03C;}
	.st7{fill:#C41621;}
	.st8{fill:#352B2F;}
	.st9{fill:#FFFFFF;}
	.st10{fill:#00FFFF;}
	.st11{fill:#29ABE2;}
	.st12{fill:#B61E5A;}
	.st13{fill:#1E2254;}
	.st14{fill:#33DDFF;}
	.st15{fill:#0065A3;}
	.st16{fill:#F6973B;}
	.st17{fill:#5A3FA8;}
	.st18{fill:#00AB91;}
	.st19{fill-rule:evenodd;clip-rule:evenodd;fill:#13A559;}
	.st20{fill:#4E17AC;}
	.st21{fill:#103747;}
	.st22{fill:#019AC2;}
	.st23{fill-rule:evenodd;clip-rule:evenodd;fill:#B825BD;}
	.st24{fill-rule:evenodd;clip-rule:evenodd;fill:#FF8788;}
	.st25{fill:#282519;}
	.st26{fill:#C71A8B;}
	.st27{fill:#F9C60B;}
	.st28{fill:#E67A7B;}
	.st29{fill:#66767A;}
</style>
<g id="Layer_1">
</g>
<g id="Layer_2">
</g>
<g id="Layer_3">
</g>
<g id="Layer_4">
</g>
<g id="Layer_5">
</g>
<g id="Layer_6">
</g>
<g id="Layer_7">
	<g>
		<path class="st10" d="M168.56,117.62c-8.94,0-16.22-7.28-16.22-16.22s7.28-16.22,16.22-16.22c8.94,0,16.22,7.28,16.22,16.22
			S177.5,117.62,168.56,117.62z M168.56,87.9c-7.44,0-13.5,6.06-13.5,13.5c0,7.44,6.06,13.5,13.5,13.5c7.44,0,13.5-6.06,13.5-13.5
			C182.06,93.95,176,87.9,168.56,87.9z"/>
		<path class="st11" d="M168.56,123.69c-12.29,0-22.29-10-22.29-22.29s10-22.29,22.29-22.29c12.29,0,22.29,10,22.29,22.29
			S180.85,123.69,168.56,123.69z M168.56,81.83c-10.79,0-19.57,8.78-19.57,19.57s8.78,19.57,19.57,19.57
			c10.79,0,19.57-8.78,19.57-19.57S179.35,81.83,168.56,81.83z"/>
		<path class="st11" d="M217.21,71.6c0.01-0.05,0.01-0.1,0.01-0.15v-7.64c0-4.1-3.33-6.44-7.43-6.44H198.9
			c-4.09,0-7.42,2.34-7.42,6.44v7.64c0,0.01,0,0.01,0,0.02h-51.45c-6.15,0-11.37,3.99-13.23,9.52h2.91c1.72-3.99,5.7-6.8,10.32-6.8
			h75.27c6.19,0,11.23,5.04,11.23,11.23v31.95c0,6.2-5.04,11.24-11.23,11.24h-75.27c-4.62,0-8.6-2.81-10.32-6.81h-2.91
			c1.86,5.53,7.08,9.53,13.23,9.53h75.27c7.69,0,13.95-6.26,13.95-13.96V85.42C229.25,78.38,224,72.54,217.21,71.6z M194.2,63.81
			c0-2.6,2.11-3.72,4.7-3.72h10.89c2.59,0,4.71,1.12,4.71,3.72v7.64h-20.3V63.81z"/>
		<path class="st10" d="M143.85,91.88c-0.36,0.88-0.66,1.79-0.92,2.72H126.3c-0.75,0-1.36-0.61-1.36-1.36s0.61-1.36,1.36-1.36
			H143.85z M126.3,108.2c-0.75,0-1.36,0.61-1.36,1.36s0.61,1.36,1.36,1.36h18.2c-0.42-0.88-0.8-1.79-1.12-2.72H126.3z"/>
		<path class="st1" d="M147.23,86.43h-18.96c-0.75,0-1.36-0.61-1.36-1.36c0-0.75,0.61-1.36,1.36-1.36h21.43
			C148.81,84.56,147.98,85.47,147.23,86.43z M122.11,100.04c-0.75,0-1.36,0.61-1.36,1.36c0,0.75,0.61,1.36,1.36,1.36h20.22
			c-0.13-0.89-0.21-1.8-0.23-2.72H122.11z M147.23,116.36h-19.05c-0.75,0-1.36,0.61-1.36,1.36c0,0.75,0.61,1.36,1.36,1.36h21.52
			C148.81,118.24,147.98,117.33,147.23,116.36z"/>
	</g>
</g>
<g id="Layer_8">
</g>
<g id="Layer_9">
</g>
<g id="Layer_10">
</g>
<g id="Layer_11">
</g>
<g id="Layer_12">
</g>
<g id="Layer_13">
</g>
<g id="Layer_14">
</g>
<g id="Layer_15">
</g>
</svg>
