<?xml version="1.0" encoding="utf-8"?>
<!-- Generator: Adobe Illustrator 27.8.1, SVG Export Plug-In . SVG Version: 6.00 Build 0)  -->
<svg version="1.1" xmlns="http://www.w3.org/2000/svg" xmlns:xlink="http://www.w3.org/1999/xlink" x="0px" y="0px"
	 viewBox="0 0 350 230" style="enable-background:new 0 0 350 230;" xml:space="preserve">
<style type="text/css">
	.st0{fill:#DDDDDD;}
	.st1{fill:#F7931E;}
	.st2{fill:#604F3E;}
	.st3{fill:#2C1E20;}
	.st4{fill:#F7BF0B;}
	.st5{fill:#FFCE00;}
	.st6{fill-rule:evenodd;clip-rule:evenodd;fill:#F3B03C;}
	.st7{fill:#C41621;}
	.st8{fill:#352B2F;}
	.st9{fill:#FFFFFF;}
	.st10{fill:#00FFFF;}
	.st11{fill:#29ABE2;}
	.st12{fill:#B61E5A;}
	.st13{fill:#1E2254;}
	.st14{fill:#33DDFF;}
	.st15{fill:#0065A3;}
	.st16{fill:#F6973B;}
	.st17{fill:#5A3FA8;}
	.st18{fill:#00AB91;}
	.st19{fill-rule:evenodd;clip-rule:evenodd;fill:#13A559;}
	.st20{fill:#4E17AC;}
	.st21{fill:#103747;}
	.st22{fill:#019AC2;}
	.st23{fill-rule:evenodd;clip-rule:evenodd;fill:#B825BD;}
	.st24{fill-rule:evenodd;clip-rule:evenodd;fill:#FF8788;}
	.st25{fill:#282519;}
	.st26{fill:#C71A8B;}
	.st27{fill:#F9C60B;}
	.st28{fill:#E67A7B;}
	.st29{fill:#66767A;}
</style>
<g id="Layer_1">
</g>
<g id="Layer_2">
</g>
<g id="Layer_3">
</g>
<g id="Layer_4">
</g>
<g id="Layer_5">
</g>
<g id="Layer_6">
</g>
<g id="Layer_7">
</g>
<g id="Layer_8">
	<path class="st12" d="M175.02,68.13c-18.39,0-33.29,14.92-33.29,33.31c0,18.39,14.9,33.29,33.29,33.29
		c18.41,0,33.31-14.9,33.31-33.29C208.33,83.05,193.42,68.13,175.02,68.13z M175.02,128.26c-14.81,0-26.8-12.01-26.8-26.82
		s11.99-26.82,26.8-26.82s26.82,12.01,26.82,26.82S189.83,128.26,175.02,128.26z"/>
	<path class="st13" d="M175.02,80.24c-11.71,0-21.21,9.48-21.21,21.21c0,11.71,9.5,21.2,21.21,21.2c11.73,0,21.22-9.5,21.22-21.2
		C196.24,89.72,186.74,80.24,175.02,80.24z M175.02,118.8c-9.59,0-17.36-7.79-17.36-17.38c0-0.44,0.02-0.88,0.06-1.31
		c0.02-0.3,0.06-0.61,0.09-0.91c0-0.13,0.02-0.29,0.06-0.42c0.02-0.21,0.06-0.44,0.11-0.65c0.13-0.76,0.34-1.52,0.57-2.25
		c0.15-0.42,0.3-0.82,0.48-1.22c0.88-2.07,2.13-3.94,3.71-5.5c0.09-0.09,0.19-0.21,0.3-0.3c0.34-0.34,0.72-0.67,1.1-0.97
		c0.38-0.3,0.76-0.59,1.16-0.86c0.34-0.23,0.71-0.46,1.07-0.67c0.36-0.21,0.72-0.4,1.1-0.59c0.44-0.21,0.9-0.4,1.35-0.57
		c0.17-0.08,0.34-0.13,0.51-0.19c0.7-0.25,1.43-0.46,2.17-0.59c0.23-0.06,0.46-0.1,0.69-0.11c0.27-0.06,0.55-0.09,0.84-0.11
		c0.21-0.04,0.42-0.06,0.65-0.08c0.44-0.04,0.88-0.06,1.33-0.06c0.46,0,0.9,0.02,1.33,0.06c0.23,0.02,0.46,0.04,0.67,0.08
		c0.27,0.02,0.53,0.06,0.8,0.1c0.25,0.04,0.47,0.08,0.7,0.13c0.74,0.13,1.46,0.34,2.17,0.59c0.17,0.06,0.34,0.11,0.51,0.19
		c0.46,0.17,0.91,0.36,1.35,0.57c0.38,0.19,0.74,0.38,1.1,0.59c0.36,0.21,0.72,0.44,1.07,0.67c0.48,0.3,0.93,0.65,1.35,1.01
		c0.42,0.34,0.82,0.7,1.22,1.1c0.19,0.19,0.4,0.4,0.57,0.61c0.19,0.19,0.38,0.4,0.55,0.63c0.42,0.49,0.82,1.03,1.16,1.58
		c0.21,0.3,0.38,0.59,0.55,0.89c0.19,0.32,0.36,0.67,0.53,1.01c0.17,0.34,0.32,0.69,0.46,1.05c0.15,0.34,0.29,0.71,0.4,1.07
		c0.21,0.63,0.38,1.27,0.51,1.94c0.11,0.49,0.19,1.01,0.25,1.52c0.02,0.21,0.04,0.42,0.06,0.65c0.04,0.44,0.06,0.88,0.06,1.33
		C192.4,111.02,184.61,118.8,175.02,118.8z"/>
	<path class="st13" d="M233.44,74.64v54.02c0,1.96-1.59,3.54-3.54,3.54h-26.77c8.34-7.62,13.57-18.58,13.57-30.77
		c0-11.96-5.04-22.73-13.11-30.33h26.32C231.86,71.1,233.44,72.68,233.44,74.64z M133.35,101.43c0-11.96,5.04-22.73,13.11-30.33
		H120.1c-1.96,0-3.54,1.59-3.54,3.54v54.02c0,1.96,1.59,3.54,3.54,3.54h26.81C138.58,124.58,133.35,113.61,133.35,101.43z"/>
	<path class="st12" d="M186.52,101.43c0,6.35-5.15,11.5-11.5,11.5c-6.35,0-11.49-5.15-11.49-11.5c0-0.29,0.01-0.58,0.04-0.87
		c0.01-0.2,0.04-0.4,0.06-0.61c0-0.09,0.01-0.19,0.04-0.28c0.01-0.14,0.04-0.29,0.08-0.43c0.09-0.5,0.23-1.01,0.38-1.49
		c0.1-0.28,0.2-0.54,0.32-0.81c0.58-1.37,1.41-2.61,2.46-3.64c0.06-0.06,0.13-0.14,0.2-0.2c0.23-0.23,0.48-0.44,0.73-0.64
		c0.25-0.2,0.5-0.39,0.77-0.57c0.23-0.15,0.47-0.3,0.71-0.44c0.24-0.14,0.48-0.26,0.73-0.39c0.29-0.14,0.59-0.26,0.89-0.38
		c0.11-0.05,0.23-0.09,0.34-0.13c0.47-0.16,0.94-0.3,1.44-0.39c0.15-0.04,0.3-0.06,0.45-0.08c0.18-0.04,0.37-0.06,0.55-0.08
		c0.14-0.03,0.28-0.04,0.43-0.05c0.29-0.03,0.58-0.04,0.88-0.04c0.3,0,0.59,0.01,0.88,0.04c0.15,0.01,0.3,0.03,0.44,0.05
		c0.18,0.01,0.35,0.04,0.53,0.06c0.15,0.03,0.31,0.05,0.47,0.09c0.33,0.06,0.66,0.14,0.98,0.24c-0.07,0.03-0.15,0.06-0.22,0.1
		c-0.13,0.06-0.25,0.13-0.37,0.2c-0.12,0.07-0.24,0.15-0.36,0.23c-0.14,0.09-0.26,0.19-0.39,0.29c-0.13,0.1-0.26,0.21-0.37,0.33
		c-0.04,0.03-0.07,0.07-0.1,0.1c-0.53,0.53-0.96,1.16-1.25,1.86c-0.06,0.14-0.11,0.27-0.16,0.41c-0.08,0.24-0.15,0.5-0.19,0.76
		c-0.02,0.07-0.03,0.15-0.04,0.22c-0.01,0.05-0.02,0.1-0.02,0.14c-0.01,0.1-0.03,0.21-0.03,0.31c-0.01,0.15-0.02,0.3-0.02,0.44
		c0,3.24,2.62,5.87,5.86,5.87c2.41,0,4.49-1.46,5.39-3.54c0.09,0.32,0.18,0.64,0.24,0.98c0.08,0.33,0.13,0.67,0.16,1.01
		c0.01,0.14,0.03,0.28,0.04,0.43C186.51,100.83,186.52,101.12,186.52,101.43z"/>
</g>
<g id="Layer_9">
</g>
<g id="Layer_10">
</g>
<g id="Layer_11">
</g>
<g id="Layer_12">
</g>
<g id="Layer_13">
</g>
<g id="Layer_14">
</g>
<g id="Layer_15">
</g>
</svg>
