<?xml version="1.0" encoding="utf-8"?>
<!-- Generator: Adobe Illustrator 27.8.1, SVG Export Plug-In . SVG Version: 6.00 Build 0)  -->
<svg version="1.1" xmlns="http://www.w3.org/2000/svg" xmlns:xlink="http://www.w3.org/1999/xlink" x="0px" y="0px"
	 viewBox="0 0 350 230" style="enable-background:new 0 0 350 230;" xml:space="preserve">
<style type="text/css">
	.st0{fill:#DDDDDD;}
	.st1{fill:#F7931E;}
	.st2{fill:#604F3E;}
	.st3{fill:#2C1E20;}
	.st4{fill:#F7BF0B;}
	.st5{fill:#FFCE00;}
	.st6{fill-rule:evenodd;clip-rule:evenodd;fill:#F3B03C;}
	.st7{fill:#C41621;}
	.st8{fill:#352B2F;}
	.st9{fill:#FFFFFF;}
	.st10{fill:#00FFFF;}
	.st11{fill:#29ABE2;}
	.st12{fill:#B61E5A;}
	.st13{fill:#1E2254;}
	.st14{fill:#33DDFF;}
	.st15{fill:#0065A3;}
	.st16{fill:#F6973B;}
	.st17{fill:#5A3FA8;}
	.st18{fill:#00AB91;}
	.st19{fill-rule:evenodd;clip-rule:evenodd;fill:#13A559;}
	.st20{fill:#4E17AC;}
	.st21{fill:#103747;}
	.st22{fill:#019AC2;}
	.st23{fill-rule:evenodd;clip-rule:evenodd;fill:#B825BD;}
	.st24{fill-rule:evenodd;clip-rule:evenodd;fill:#FF8788;}
	.st25{fill:#282519;}
	.st26{fill:#C71A8B;}
	.st27{fill:#F9C60B;}
	.st28{fill:#E67A7B;}
	.st29{fill:#66767A;}
</style>
<g id="Layer_1">
</g>
<g id="Layer_2">
</g>
<g id="Layer_3">
</g>
<g id="Layer_4">
</g>
<g id="Layer_5">
</g>
<g id="Layer_6">
</g>
<g id="Layer_7">
</g>
<g id="Layer_8">
</g>
<g id="Layer_9">
	<path class="st14" d="M183.72,98.44c2.36,0,4.27,1.91,4.27,4.27c0,2.36-1.91,4.27-4.27,4.27c-2.36,0-4.27-1.91-4.27-4.27
		C179.45,100.35,181.36,98.44,183.72,98.44z M181.75,98.26l-2.86-4.95L178,93.83l2.86,4.95L181.75,98.26z M179.79,99.85l-4.95-2.86
		l-0.51,0.89l4.95,2.86L179.79,99.85z M178.88,102.2h-5.71v1.03h5.71V102.2z M179.27,104.69l-4.95,2.86l0.51,0.89l4.95-2.86
		L179.27,104.69z M180.86,106.64l-2.86,4.95l0.89,0.51l2.86-4.95L180.86,106.64z M185.7,107.16l2.86,4.95l0.89-0.51l-2.86-4.95
		L185.7,107.16z M187.65,105.57l4.95,2.86l0.51-0.89l-4.95-2.86L187.65,105.57z M188.56,102.2v1.03h5.71v-1.03H188.56z
		 M188.17,100.74l4.95-2.86l-0.51-0.89l-4.95,2.86L188.17,100.74z M186.58,98.78l2.86-4.95l-0.89-0.51l-2.86,4.95L186.58,98.78z
		 M182.96,97.91l-0.74-2.76l-0.99,0.27l0.74,2.76L182.96,97.91z M180.66,98.93l-2.02-2.02l-0.72,0.72l2.02,2.02L180.66,98.93z
		 M176.42,100.22l-0.26,0.99l2.76,0.74l0.26-0.99L176.42,100.22z M176.16,104.21l0.27,0.99l2.76-0.74l-0.27-0.99L176.16,104.21z
		 M180.66,106.49l-0.72-0.73l-2.02,2.02l0.72,0.72L180.66,106.49z M181.24,110.01l0.99,0.27l0.74-2.76l-0.99-0.27L181.24,110.01z
		 M184.48,107.52l0.74,2.76l0.99-0.27l-0.74-2.76L184.48,107.52z M186.78,106.49l2.02,2.02l0.72-0.72l-2.02-2.02L186.78,106.49z
		 M191.02,105.2l0.27-0.99l-2.76-0.74l-0.27,0.99L191.02,105.2z M191.02,100.22l-2.76,0.74l0.26,0.99l2.76-0.74L191.02,100.22z
		 M186.78,98.93l0.72,0.72l2.02-2.02l-0.73-0.73L186.78,98.93z M186.21,95.41l-0.99-0.26l-0.74,2.76l0.99,0.27L186.21,95.41z
		 M184.23,92.16h-0.51v5.71h0.51V92.16z M183.72,92.16h-0.51v5.71h0.51V92.16z M183.72,113.26h0.51v-5.71h-0.51V113.26z
		 M183.21,113.26h0.51v-5.71h-0.51V113.26z"/>
	<path class="st15" d="M143.48,75.62h68.87c0.54,0,1.04-0.27,1.34-0.71l0,0c0.73-1.08-0.04-2.53-1.34-2.53h-48.02
		c0.16-0.38,0.24-0.8,0.24-1.24c0-0.91-0.37-1.74-0.97-2.33c-0.6-0.6-1.42-0.97-2.33-0.97h-9.18c-1.54,0-2.95,1.01-3.32,2.5
		c-0.18,0.72-0.1,1.43,0.15,2.04h-5.44c-4.12,0-7.46,3.34-7.46,7.46v46.4c0,4.12,3.34,7.46,7.46,7.46h29.56
		c0.54,0,1.04-0.27,1.34-0.71l0,0c0.73-1.08-0.04-2.53-1.34-2.53h-29.56c-2.33,0-4.22-1.89-4.22-4.22v-46.4
		C139.27,77.51,141.15,75.62,143.48,75.62z M175.56,91.35l-12.09,20.93c-1.38-2.9-2.15-6.15-2.15-9.58c0-4.15,1.13-8.03,3.09-11.36
		H175.56z M189.48,89.97h-24.17c4.04-5.83,10.78-9.65,18.41-9.65c0.06,0,0.13,0,0.19,0L189.48,89.97z M191.88,114.07l12.09-20.93
		c1.38,2.9,2.15,6.15,2.15,9.58c0,4.15-1.13,8.03-3.09,11.36H191.88z M197.63,101.33L185.55,80.4c7.58,0.61,14.09,5,17.65,11.28
		L197.63,101.33z M169.81,104.1l12.08,20.93c-7.58-0.61-14.09-5-17.65-11.28L169.81,104.1z M177.96,115.45h24.17
		c-4.04,5.83-10.78,9.65-18.41,9.65c-0.06,0-0.13,0-0.19,0L177.96,115.45z"/>
</g>
<g id="Layer_10">
</g>
<g id="Layer_11">
</g>
<g id="Layer_12">
</g>
<g id="Layer_13">
</g>
<g id="Layer_14">
</g>
<g id="Layer_15">
</g>
</svg>
