<?xml version="1.0" encoding="utf-8"?>
<!-- Generator: Adobe Illustrator 27.8.1, SVG Export Plug-In . SVG Version: 6.00 Build 0)  -->
<svg version="1.1" xmlns="http://www.w3.org/2000/svg" xmlns:xlink="http://www.w3.org/1999/xlink" x="0px" y="0px"
	 viewBox="0 0 350 230" style="enable-background:new 0 0 350 230;" xml:space="preserve">
<style type="text/css">
	.st0{fill:#00D19E;}
	.st1{fill:#002389;}
	.st2{fill:#00079C;}
	.st3{fill:#7F4900;}
	.st4{fill:#014742;}
	.st5{fill:#0019FF;}
	.st6{fill:#00B3F9;}
	.st7{fill:#773000;}
	.st8{fill-rule:evenodd;clip-rule:evenodd;fill:#CD00FF;}
	.st9{fill-rule:evenodd;clip-rule:evenodd;fill:#FF9700;}
	.st10{fill:#450056;}
	.st11{fill:#70B208;}
	.st12{fill-rule:evenodd;clip-rule:evenodd;fill:#005CFF;}
	.st13{fill-rule:evenodd;clip-rule:evenodd;fill:#00FF73;}
	.st14{fill-rule:evenodd;clip-rule:evenodd;fill:#014422;}
	.st15{fill-rule:evenodd;clip-rule:evenodd;fill:#A58500;}
	.st16{fill-rule:evenodd;clip-rule:evenodd;fill:#FF7300;}
	.st17{fill:#000202;}
	.st18{fill:#005454;}
	.st19{fill:#AB5FBF;}
	.st20{fill:#51531C;}
	.st21{fill:#661B00;}
	.st22{fill:#001E3F;}
	.st23{fill:#C69400;}
	.st24{fill:#009AB0;}
	.st25{fill:#7F0058;}
	.st26{fill:#006060;}
	.st27{fill:#7500FF;}
	.st28{fill:#9CFF00;}
</style>
<g id="Layer_1">
	<g>
		<path class="st0" d="M11.46,89.39C11.44,76.14,21.74,65.84,35.06,65.9c13.34,0.06,23.37,11.15,23.19,23.54
			c-0.19,12.89-10.29,23.39-22.92,23.39C21.77,112.83,11.47,102.73,11.46,89.39z M34.71,108.95c10.85,0.04,19.78-8.66,19.84-19.32
			c0.06-10.94-8.65-19.82-19.48-19.87c-11-0.04-19.9,8.63-19.93,19.42C15.1,100.09,23.84,108.91,34.71,108.95z M30.27,127.92
			c2.94,0,5.73,0,8.77,0c0.4,3.21,1.07,6.51,1.18,9.83c0.21,6.3,0.14,12.62,0.09,18.93c-0.01,1.28-0.41,2.57-0.75,3.83
			c-0.68,2.51-1.87,3.51-4.1,3.59c-2.65,0.1-4.16-0.71-4.85-3.19c-0.75-2.69-1.56-5.5-1.52-8.25c0.14-8.17,0.68-16.32,1.08-24.48
			C30.18,127.99,30.32,127.8,30.27,127.92z M31.64,157.47c0-8.99,0-17.38,0-25.98C29.86,135.06,29.75,153.09,31.64,157.47z
			 M31.31,122.72c2.32,0,4.6,0,6.87,0c-0.18-1.82-0.33-3.34-0.49-4.9c-2.03,0-3.93,0-6.15,0C31.47,119.28,31.4,120.76,31.31,122.72z
			 M30.58,123.77c-0.38,2.76-0.39,2.82,2.51,3.23c1.12,0.16,2.31,0.15,3.43-0.02c2.82-0.43,2.85-0.53,2.28-3.21
			C36.05,123.77,33.34,123.77,30.58,123.77z M37.07,116.75c-0.05-0.88-0.09-1.79-0.14-2.77c-1.59,0-2.95,0-4.43,0
			C31.96,117.13,32.54,117.47,37.07,116.75z"/>
		<path class="st1" d="M45.7,74.32c0,9.77,0.02,19.27-0.04,28.77c0,0.54-0.46,1.33-0.93,1.56c-1.27,0.63-2.65,1.03-4.17,1.59
			c0-10.8,0-21.3,0-31.92C42.24,74.32,43.85,74.32,45.7,74.32z M37.32,79.15c-1.75,0-3.36,0-4.93,0c0,9.29,0,18.4,0,27.56
			c1.72,0,3.28,0,4.93,0C37.32,97.33,37.32,88.21,37.32,79.15z M29.11,83.6c-1.74,0-3.35,0-4.92,0c-0.09,0.26-0.18,0.38-0.18,0.5
			c-0.02,5.44-0.03,10.87-0.03,16.31c0,4.37,0.24,4.66,4.62,5.57c0.13,0.03,0.27-0.01,0.51-0.03C29.11,98.43,29.11,91.03,29.11,83.6
			z"/>
	</g>
</g>
<g id="Layer_2">
</g>
<g id="Layer_3">
</g>
<g id="Layer_4">
</g>
<g id="Layer_5">
</g>
<g id="Layer_6">
</g>
<g id="Layer_7">
</g>
<g id="Layer_8">
</g>
<g id="Layer_9">
</g>
<g id="Layer_10">
</g>
<g id="Layer_11">
</g>
<g id="Layer_12">
</g>
<g id="Layer_13">
</g>
<g id="Layer_14">
</g>
<g id="Layer_15">
</g>
</svg>
