<?xml version="1.0" encoding="utf-8"?>
<!-- Generator: Adobe Illustrator 27.8.1, SVG Export Plug-In . SVG Version: 6.00 Build 0)  -->
<svg version="1.1" xmlns="http://www.w3.org/2000/svg" xmlns:xlink="http://www.w3.org/1999/xlink" x="0px" y="0px"
	 viewBox="0 0 350 230" style="enable-background:new 0 0 350 230;" xml:space="preserve">
<style type="text/css">
	.st0{fill:#00D19E;}
	.st1{fill:#002389;}
	.st2{fill:#00079C;}
	.st3{fill:#7F4900;}
	.st4{fill:#014742;}
	.st5{fill:#0019FF;}
	.st6{fill:#00B3F9;}
	.st7{fill:#773000;}
	.st8{fill-rule:evenodd;clip-rule:evenodd;fill:#CD00FF;}
	.st9{fill-rule:evenodd;clip-rule:evenodd;fill:#FF9700;}
	.st10{fill:#450056;}
	.st11{fill:#70B208;}
	.st12{fill-rule:evenodd;clip-rule:evenodd;fill:#005CFF;}
	.st13{fill-rule:evenodd;clip-rule:evenodd;fill:#00FF73;}
	.st14{fill-rule:evenodd;clip-rule:evenodd;fill:#014422;}
	.st15{fill-rule:evenodd;clip-rule:evenodd;fill:#A58500;}
	.st16{fill-rule:evenodd;clip-rule:evenodd;fill:#FF7300;}
	.st17{fill:#000202;}
	.st18{fill:#005454;}
	.st19{fill:#AB5FBF;}
	.st20{fill:#51531C;}
	.st21{fill:#661B00;}
	.st22{fill:#001E3F;}
	.st23{fill:#C69400;}
	.st24{fill:#009AB0;}
	.st25{fill:#7F0058;}
	.st26{fill:#006060;}
	.st27{fill:#7500FF;}
	.st28{fill:#9CFF00;}
</style>
<g id="Layer_1">
</g>
<g id="Layer_2">
</g>
<g id="Layer_3">
</g>
<g id="Layer_4">
</g>
<g id="Layer_5">
</g>
<g id="Layer_6">
</g>
<g id="Layer_7">
</g>
<g id="Layer_8">
</g>
<g id="Layer_9">
</g>
<g id="Layer_10">
	<g>
		<path class="st16" d="M175,102.62c6.34,0,11.48-5.14,11.48-11.48c0-2.18-0.61-4.22-1.66-5.96c-0.76,0.48-1.65,0.76-2.61,0.76
			c-2.7,0-4.89-2.19-4.89-4.89c0-0.39,0.05-0.77,0.13-1.13c-0.79-0.17-1.61-0.26-2.45-0.26c-2.1,0-4.06,0.56-5.76,1.55l-5.77-7.07
			c0.35-0.46,0.56-1.04,0.56-1.67c0-1.53-1.24-2.76-2.77-2.76c-1.53,0-2.76,1.24-2.76,2.76c0,1.53,1.24,2.76,2.76,2.76
			c0.41,0,0.79-0.09,1.14-0.25l5.7,6.98c-2.78,2.09-4.58,5.43-4.58,9.18c0,5.05,3.25,9.33,7.78,10.87l-2.12,4.61
			c-0.46-0.13-0.95-0.19-1.45-0.19c-3.04,0-5.5,2.46-5.5,5.5c0,3.04,2.46,5.5,5.5,5.5c3.04,0,5.5-2.46,5.5-5.5
			c0-2.05-1.12-3.83-2.78-4.78l2.19-4.77C173.39,102.54,174.19,102.62,175,102.62z"/>
		<path class="st17" d="M196.43,106.58c3.13-4.34,4.98-9.67,4.98-15.44c0-5.76-1.85-11.09-4.98-15.44l-4.61,4.61
			c2.01,3.12,3.18,6.84,3.18,10.82s-1.17,7.7-3.18,10.82L196.43,106.58z M153.57,75.71c-3.13,4.34-4.98,9.67-4.98,15.44
			c0,5.76,1.85,11.09,4.98,15.44l4.61-4.61c-2.01-3.12-3.18-6.84-3.18-10.82s1.17-7.7,3.18-10.82L153.57,75.71z M175,60.91
			c6.82,0,13.11,2.26,18.17,6.07l4.37-4.37c-6.19-4.9-14.02-7.82-22.53-7.82c-8.51,0-16.34,2.93-22.53,7.82l4.37,4.37
			C161.89,63.17,168.18,60.91,175,60.91z M175,121.37c-6.82,0-13.11-2.26-18.17-6.07l-4.37,4.37c6.19,4.9,14.02,7.82,22.53,7.82
			c8.51,0,16.34-2.93,22.53-7.82l-4.37-4.37C188.11,119.12,181.82,121.37,175,121.37z M162.05,126.84v6.3
			c4.02,1.53,8.39,2.38,12.95,2.38c4.56,0,8.93-0.84,12.95-2.38v-6.3c-4.02,1.53-8.39,2.38-12.95,2.38
			C170.44,129.22,166.07,128.37,162.05,126.84z M150.83,72.98l-4.37-4.37c-4.9,6.19-7.82,14.02-7.82,22.53
			c0,8.51,2.93,16.34,7.83,22.53l4.37-4.37c-3.81-5.06-6.07-11.35-6.07-18.17C144.77,84.32,147.03,78.03,150.83,72.98z
			 M203.53,68.61l-4.37,4.37c3.81,5.06,6.07,11.35,6.07,18.17c0,6.82-2.26,13.11-6.07,18.17l4.37,4.37
			c4.9-6.2,7.82-14.02,7.82-22.53C211.36,82.63,208.43,74.8,203.53,68.61z M175,137.23c-3.36,0-6.61-0.46-9.69-1.31l0,0.16
			c0,5.35,4.34,9.69,9.69,9.69c5.35,0,9.69-4.34,9.69-9.69l0-0.16C181.61,136.78,178.36,137.23,175,137.23z"/>
	</g>
</g>
<g id="Layer_11">
</g>
<g id="Layer_12">
</g>
<g id="Layer_13">
</g>
<g id="Layer_14">
</g>
<g id="Layer_15">
</g>
</svg>
