<?xml version="1.0" encoding="utf-8"?>
<!-- Generator: Adobe Illustrator 27.8.1, SVG Export Plug-In . SVG Version: 6.00 Build 0)  -->
<svg version="1.1" xmlns="http://www.w3.org/2000/svg" xmlns:xlink="http://www.w3.org/1999/xlink" x="0px" y="0px"
	 viewBox="0 0 350 230" style="enable-background:new 0 0 350 230;" xml:space="preserve">
<style type="text/css">
	.st0{fill:#00D19E;}
	.st1{fill:#002389;}
	.st2{fill:#00079C;}
	.st3{fill:#7F4900;}
	.st4{fill:#014742;}
	.st5{fill:#0019FF;}
	.st6{fill:#00B3F9;}
	.st7{fill:#773000;}
	.st8{fill-rule:evenodd;clip-rule:evenodd;fill:#CD00FF;}
	.st9{fill-rule:evenodd;clip-rule:evenodd;fill:#FF9700;}
	.st10{fill:#450056;}
	.st11{fill:#70B208;}
	.st12{fill-rule:evenodd;clip-rule:evenodd;fill:#005CFF;}
	.st13{fill-rule:evenodd;clip-rule:evenodd;fill:#00FF73;}
	.st14{fill-rule:evenodd;clip-rule:evenodd;fill:#014422;}
	.st15{fill-rule:evenodd;clip-rule:evenodd;fill:#A58500;}
	.st16{fill-rule:evenodd;clip-rule:evenodd;fill:#FF7300;}
	.st17{fill:#000202;}
	.st18{fill:#005454;}
	.st19{fill:#AB5FBF;}
	.st20{fill:#51531C;}
	.st21{fill:#661B00;}
	.st22{fill:#001E3F;}
	.st23{fill:#C69400;}
	.st24{fill:#009AB0;}
	.st25{fill:#7F0058;}
	.st26{fill:#006060;}
	.st27{fill:#7500FF;}
	.st28{fill:#9CFF00;}
</style>
<g id="Layer_1">
</g>
<g id="Layer_2">
</g>
<g id="Layer_3">
</g>
<g id="Layer_4">
</g>
<g id="Layer_5">
</g>
<g id="Layer_6">
</g>
<g id="Layer_7">
</g>
<g id="Layer_8">
</g>
<g id="Layer_9">
</g>
<g id="Layer_10">
</g>
<g id="Layer_11">
	<path class="st18" d="M210.78,92.7c-0.35,0.5-0.48,1.19-0.35,2.1c0.13,0.94,0.46,1.75,1.01,2.48c0.55,0.74,1.13,1.16,1.75,1.25
		c0.59,0.11,1.05-0.08,1.34-0.64c0.28-0.53,0.36-1.17,0.23-2.01c-0.55-3.51-3.1-8.2-5.3-10.95
		C210.61,87.26,211.26,92.02,210.78,92.7z M193.59,93.4c1.99,0.1,3.73,0.9,5.21,2.37c0.08,0.08,0.08,0.08,0.15,0.16
		c1.3,1.4,2.67,1.69,4.09,0.88c0.77-0.63,1.18-1.45,1.22-2.52c0.04-1.18-0.38-2.19-1.29-3.11c-1.31-1.44-2.11-3.09-2.35-4.87
		c-0.52-4.26-0.5-6.36-2.77-8.94c-0.51-0.05-1.05,0.04-1.46,0.37c-0.48,0.39-0.65,0.96-0.51,1.7c0.15,0.78,0.58,1.49,1.27,2.13
		c0.19,0.17,0.35,0.31,0.56,0.45c1.15,1.21,1.84,2.57,2.12,4.13c0.31,1.82-0.11,3.32-1.25,4.55c-1.24,1.33-2.88,1.94-4.94,1.79
		c-2.16-0.13-4.03-0.99-5.59-2.6c-0.78-0.68-1.69-1.03-2.71-1.05c-1.04-0.01-1.94,0.32-2.67,1c-0.75,0.69-1.1,1.55-1.08,2.6
		c0.03,1.06,0.42,1.96,1.21,2.72c0.8,0.79,1.77,1.2,2.87,1.22c1.1,0.03,2.01-0.32,2.74-1.03C189.85,93.94,191.58,93.29,193.59,93.4z
		 M219.09,112.2c-0.72,0.1-1.44-0.52-2.13-1.82c-0.66-1.22-1.05-2.63-1.17-4.24c0-0.16,0-0.29-0.01-0.45
		c-0.05-0.87-0.29-1.81-0.78-2.53c-0.45-0.69-0.97-1.06-1.56-1.13c-0.61-0.06-1.14,0.21-1.56,0.84c-0.44,0.65-0.65,1.47-0.6,2.48
		c0.01,0.15,0.02,0.29,0.03,0.43c-0.02,1.74-0.48,3.26-1.42,4.61c-1.06,1.43-2.43,2.24-4.1,2.31c-1.81,0.07-3.41-0.68-4.77-2.24
		c-1.44-1.59-2.15-3.53-2.12-5.77c-0.07-1.03-0.45-1.9-1.18-2.66c-0.73-0.75-1.59-1.14-2.59-1.18c-1.01-0.04-1.88,0.32-2.6,1.07
		c-0.73,0.77-1.09,1.69-1.07,2.79c0.01,1.12,0.41,2.11,1.17,2.89c0.75,0.8,1.64,1.19,2.66,1.2c2.04,0.02,3.72,0.79,5.06,2.26
		c1.34,1.47,2,3.26,2.02,5.35c0,0.11,0,0.11-0.01,0.22c-0.07,1.93,0.7,3.1,2.28,3.51c0.98,0.13,1.86-0.17,2.64-0.89
		c0.86-0.81,1.28-1.82,1.28-3.12c0.09-1.94,0.69-3.68,1.77-5.11c1.07-1.35,2.24-2,3.48-1.97c0.12,0,0.24-0.01,0.36-0.05
		c0.97,0.16,1.79,0.82,2.46,1.92c0.66,1.26,0.94,2.75,0.87,4.44c-0.12,1.86-0.57,3.46-1.39,4.87c-0.91,1.48-1.94,2.32-3.13,2.53
		c-0.59,0.13-1.15,0.56-1.69,1.3c-0.54,0.73-0.89,1.57-1.01,2.44c-0.13,0.87-0.01,1.58,0.34,2.11c0.34,0.49,0.81,0.65,1.4,0.49
		c0.61-0.2,1.17-0.67,1.67-1.4c0.49-0.75,0.81-1.53,0.95-2.37c0.32-1.74,0.91-3.3,1.74-4.64c0.68-1.21,1.37-1.95,2.02-2.22
		C220.24,117.71,220.43,112.25,219.09,112.2z M206.62,130.76c-0.55,0.11-1.05,0.36-1.51,0.68c-1.6,1.13-1.68,2.54-5.18,3.17
		c-1.82,0.31-3.33-0.1-4.56-1.24c-1.33-1.24-1.93-2.89-1.79-4.95c0.12-2.16,1-4.05,2.6-5.61c0.67-0.76,1.02-1.66,1.04-2.71
		c0.01-1.04-0.32-1.93-1-2.66c-0.69-0.74-1.56-1.1-2.6-1.08c-1.05,0.02-1.96,0.41-2.72,1.2c-0.79,0.82-1.2,1.77-1.22,2.88
		c-0.03,1.1,0.33,2,1.04,2.72c1.43,1.45,2.08,3.18,1.97,5.2c-0.09,1.99-0.88,3.72-2.34,5.2c-0.08,0.08-0.08,0.08-0.19,0.17
		c-0.75,0.7-1.18,1.43-1.29,2.17h7.89c4.26,0,7.91-0.64,10.91-2.49C209.95,132,208.15,130.47,206.62,130.76z M181.39,126.27
		c-1.14,0.02-2.11,0.41-2.91,1.17c-0.79,0.76-1.2,1.65-1.2,2.66c0,1.87-0.66,3.44-1.92,4.73c-0.86,0.87-1.64,0.43-2.41-0.22
		c-1.5-1.27-3.13-3.74-3.32-4.76c-0.28-1.5,0.71-2.39-1.13-4.16c-0.81-0.79-1.78-1.2-2.88-1.22c-1.1-0.02-2.01,0.32-2.74,1.04
		c-1.44,1.44-3.19,2.08-5.2,1.97c-1.99-0.09-3.72-0.88-5.2-2.33c-0.09-0.1-0.09-0.1-0.17-0.19c-1.3-1.39-2.67-1.67-4.1-0.86
		c-0.68,0.56-1.08,1.26-1.2,2.15c-3.48-3.68-5.77-8.5-6.21-13.85c-0.21,0.83-0.29,1.71-0.24,2.64c0.02,0.91-0.2,1.69-0.65,2.31
		c-0.01,0-0.01,0-0.02,0c0,0,0,0-0.01,0c-0.17,0.27-0.36,0.48-0.57,0.62c0.42-0.61,0.62-1.37,0.61-2.25
		c-0.1-1.98,0.36-3.72,1.4-5.21c1.07-1.54,2.43-2.3,4.11-2.37c1.82-0.09,3.42,0.66,4.78,2.22c1.44,1.64,2.16,3.59,2.13,5.84
		c0.06,1,0.45,1.89,1.18,2.64c0.74,0.76,1.6,1.15,2.6,1.19c1.01,0.03,1.88-0.33,2.6-1.09c0.74-0.75,1.09-1.68,1.08-2.77
		c-0.01-1.13-0.41-2.1-1.17-2.9c-0.76-0.8-1.65-1.2-2.67-1.19c-2.04-0.03-3.73-0.79-5.07-2.3c-1.34-1.47-2.01-3.26-2.02-5.36
		c0-0.11,0-0.11,0.01-0.22c0.07-1.93-0.7-3.07-2.28-3.51c-0.99-0.1-1.87,0.19-2.65,0.91c-0.86,0.8-1.29,1.84-1.28,3.1
		c-0.1,1.97-0.7,3.66-1.79,5.12l-0.14,0.18c0.2-10.09,6.91-18.57,16.1-21.44c0.68,1.07,0.98,2.35,0.88,3.85
		c-0.12,2.16-1,4.05-2.6,5.6c-0.68,0.77-1.03,1.68-1.05,2.72c-0.01,1.04,0.32,1.93,1,2.66c0.69,0.74,1.56,1.1,2.61,1.08
		c1.05-0.01,1.96-0.41,2.72-1.19c0.79-0.81,1.2-1.78,1.23-2.88c0.03-1.1-0.32-2-1.03-2.73c-1.43-1.45-2.08-3.19-1.98-5.19
		c0.1-1.99,0.9-3.73,2.36-5.2c0.08-0.08,0.08-0.08,0.16-0.15c1.42-1.31,1.71-2.69,0.88-4.1c-0.6-0.78-1.45-1.19-2.52-1.23
		c-0.84-0.03-1.6,0.18-2.3,0.63l0.03-0.03c0.93-0.91,1.95-1.33,3.14-1.29c0.32,0.01,0.61,0.06,0.89,0.13
		c1.77-2.8,4.13-5.19,6.9-6.99c2.04,1.2,4.07-0.43,7.45,1.9c1.46,1.07,2.27,2.43,2.33,4.1c0.06,1.81-0.67,3.41-2.23,4.77
		c-1.62,1.44-3.55,2.15-5.81,2.12c-1.01,0.06-1.9,0.45-2.65,1.18c-0.75,0.73-1.14,1.59-1.16,2.58c-0.04,1.01,0.32,1.88,1.06,2.61
		c0.77,0.73,1.7,1.09,2.79,1.07c1.13-0.01,2.1-0.4,2.9-1.17c0.78-0.75,1.2-1.64,1.19-2.66c0.01-2.04,0.79-3.72,2.28-5.06
		c1.48-1.34,3.27-2,5.35-2.01c0.11,0,0.11,0,0.22,0.01c1.93,0.08,3.08-0.7,3.52-2.27c0.1-0.99-0.19-1.86-0.91-2.65
		c-0.8-0.86-1.81-1.28-3.11-1.28c-1.94-0.09-3.67-0.7-5.1-1.78c-2.37-1.86-3.16-4.83-0.01-6.4c-0.52,0.44-1.17,1.17-1.03,1.89
		c1.37-1.81,12.57-8.95,12.64,1.78c0,0.63,0.54,1.19,1.28,1.74c0.72,0.55,1.53,0.89,2.43,1.02c0.91,0.14,1.62,0.02,2.15-0.33
		c0.49-0.34,0.74-0.85,0.49-1.4c-3.12-6.88-13.51-9.06-18.65-9.06c-12.24,0-22.52,8.41-25.38,19.77c0.6,0.13,1.29,0.15,2.07,0.06
		c1.5-0.22,2.88-0.79,4.14-1.71l-0.02,0.03c-1.44,1.31-3.09,2.1-4.89,2.37c-0.94,0.11-1.74,0.06-2.42-0.16
		c-2.24,0.64-4.36,1.56-6.31,2.73l-0.01,0.01l-0.29,0.18c-7.45,4.61-12.42,12.86-12.42,22.27c0,12.07,8.17,22.23,19.29,25.25
		c0.89,0.24,1.51,0.2,2.4,0.2c-0.65-1.92-0.46-4.19,0.95-5.72c1.24-1.33,2.88-1.95,4.94-1.82c2.17,0.13,4.06,1.01,5.61,2.6
		c0.77,0.68,1.68,1.03,2.72,1.05c0.73,0.01,1.9-0.37,2.52-0.13c1.81,0.71,3.74,3,4.45,4.14c0.09,0.15,0.17,0.28,0.21,0.39h1.92
		c0.29-0.32,0.48-0.54,0.81-0.81c1.57-1.28,3.43-1.92,5.53-1.89c1.03-0.07,1.9-0.45,2.65-1.18c0.76-0.74,1.15-1.6,1.19-2.6
		c0.03-1.01-0.33-1.88-1.08-2.6C183.4,126.61,182.46,126.25,181.39,126.27z M139.75,91.09c0.59-0.16,1.06,0,1.41,0.49
		c0.35,0.53,0.47,1.24,0.34,2.15c-0.11,0.87-0.47,1.71-1.03,2.43c-0.23,0.3-0.46,0.55-0.69,0.74l0.05-0.06
		c0.56-0.72,0.91-1.56,1.02-2.43c0.14-0.91,0.02-1.62-0.33-2.15c-0.34-0.49-0.81-0.65-1.39-0.49c-0.33,0.1-0.65,0.29-0.95,0.56
		C138.64,91.69,139.18,91.27,139.75,91.09z M135.05,100.52c0.32-0.5,0.66-0.93,1.02-1.27c-0.14,0.18-0.29,0.38-0.42,0.59
		c-3.54,6.12,0.11,14.65,5,10.26C135.63,116.12,131.56,106.62,135.05,100.52z"/>
</g>
<g id="Layer_12">
</g>
<g id="Layer_13">
</g>
<g id="Layer_14">
</g>
<g id="Layer_15">
</g>
</svg>
