<?xml version="1.0" encoding="utf-8"?>
<!-- Generator: Adobe Illustrator 27.8.1, SVG Export Plug-In . SVG Version: 6.00 Build 0)  -->
<svg version="1.1" xmlns="http://www.w3.org/2000/svg" xmlns:xlink="http://www.w3.org/1999/xlink" x="0px" y="0px"
	 viewBox="0 0 350 230" style="enable-background:new 0 0 350 230;" xml:space="preserve">
<style type="text/css">
	.st0{fill:#00D19E;}
	.st1{fill:#002389;}
	.st2{fill:#00079C;}
	.st3{fill:#7F4900;}
	.st4{fill:#014742;}
	.st5{fill:#0019FF;}
	.st6{fill:#00B3F9;}
	.st7{fill:#773000;}
	.st8{fill-rule:evenodd;clip-rule:evenodd;fill:#CD00FF;}
	.st9{fill-rule:evenodd;clip-rule:evenodd;fill:#FF9700;}
	.st10{fill:#450056;}
	.st11{fill:#70B208;}
	.st12{fill-rule:evenodd;clip-rule:evenodd;fill:#005CFF;}
	.st13{fill-rule:evenodd;clip-rule:evenodd;fill:#00FF73;}
	.st14{fill-rule:evenodd;clip-rule:evenodd;fill:#014422;}
	.st15{fill-rule:evenodd;clip-rule:evenodd;fill:#A58500;}
	.st16{fill-rule:evenodd;clip-rule:evenodd;fill:#FF7300;}
	.st17{fill:#000202;}
	.st18{fill:#005454;}
	.st19{fill:#AB5FBF;}
	.st20{fill:#51531C;}
	.st21{fill:#661B00;}
	.st22{fill:#001E3F;}
	.st23{fill:#C69400;}
	.st24{fill:#009AB0;}
	.st25{fill:#7F0058;}
	.st26{fill:#006060;}
	.st27{fill:#7500FF;}
	.st28{fill:#9CFF00;}
</style>
<g id="Layer_1">
</g>
<g id="Layer_2">
</g>
<g id="Layer_3">
</g>
<g id="Layer_4">
</g>
<g id="Layer_5">
</g>
<g id="Layer_6">
</g>
<g id="Layer_7">
</g>
<g id="Layer_8">
</g>
<g id="Layer_9">
</g>
<g id="Layer_10">
</g>
<g id="Layer_11">
</g>
<g id="Layer_12">
</g>
<g id="Layer_13">
	<g>
		<path class="st21" d="M200.47,63.66c-1.33-0.97-2.75-1.85-3.97-2.94c-0.97-0.87-1.59-1.99-0.52-3.32
			c0.71-0.87,1.49-1.24,2.54-0.68c2.32,1.25,4.61,2.57,6.96,3.76c1.92,0.97,3.91,1.79,5.86,2.68c0.13-0.17,0.26-0.34,0.39-0.51
			c-0.35-0.44-0.7-0.88-1.05-1.32c-0.58-0.71-1.23-1.38-1.72-2.15c-0.85-1.35-0.63-2.85,0.48-3.73c1.24-0.98,2.49-0.61,3.38,0.41
			c2.34,2.67,4.78,5.3,6.77,8.23c9.92,14.55,9.53,34.22-1.18,47.87c-8.63,10.99-20.14,16.26-34.15,15.54
			c-6.86-0.35-13.29-2.44-19.25-6.11c-2.26,2.41-4.48,4.77-6.82,7.28c0.74,0.83,1.48,1.66,2.4,2.69c-2.34,2.54-4.64,5.08-6.98,7.58
			c-4.8,5.1-9.61,10.19-14.44,15.27c-2.85,3-4.95,3.45-8.81,1.92c-4.54-1.79-7.65-6.01-7.04-10.13c0.24-1.67,0.99-3.53,2.11-4.75
			c6.78-7.34,13.73-14.51,20.63-21.74c0.15-0.16,0.36-0.26,0.63-0.46c1.18,0.8,2.36,1.61,3.15,2.15c2.51-2.28,4.92-4.48,7.38-6.71
			c-3.21-3.62-5.75-7.48-7.5-11.84c-9.74-24.22,4.33-52.78,32.78-56.19c4.87-0.58,9.75-0.37,14.48,1.18
			c1.7,0.56,2.35,1.74,1.97,3.42c-0.37,1.62-1.17,2.15-3.08,1.83c-6.59-1.12-13.12-1.26-19.6,0.75
			c-13.35,4.15-23.06,16.4-24.17,30.57c-1.15,14.68,6.41,27.97,19.41,34.43c20.4,10.14,48.89-2.76,49.81-30.01
			c0.19-5.62-0.91-10.95-3.4-16c-0.55-1.11-1.21-1.87-2.53-2c-3.81-0.39-7.61-1.17-11.42-1.22c-11.25-0.16-22.51-0.03-33.77-0.03
			c-1.92,0-2.7-0.65-2.8-2.25c-0.1-1.66,0.72-2.68,2.43-2.97c0.56-0.1,1.14-0.14,1.71-0.14C175.74,64,179.93,64,184.13,64
			c5.44,0,10.88,0,16.32,0C200.45,63.89,200.46,63.77,200.47,63.66z M187.37,81.83c-8.32,0-16.64-0.01-24.96,0.01
			c-2.33,0.01-2.96,0.56-3.17,2.88c-0.14,1.54-0.17,3.1-0.06,4.64c1.32,18.17,15.71,29.5,33.2,26.54
			c13.94-2.36,24.12-15.18,23.25-30.49c-0.17-2.89-1.07-3.71-3.98-3.72c-8.09-0.03-16.18-0.01-24.27-0.01
			C187.37,81.73,187.37,81.78,187.37,81.83z M208.49,86.59c2.01,0,2.49,0.41,2.29,2.42c-0.96,9.53-5.39,16.83-14.35,20.65
			c-8.89,3.79-17.37,2.6-24.7-3.87c-5.21-4.6-7.5-10.69-7.88-17.57c-0.09-1.58,0.86-1.6,1.97-1.59c7.17,0.01,14.34,0.01,21.51,0.01
			c0-0.01,0-0.02,0-0.04C194.38,86.59,201.43,86.59,208.49,86.59z"/>
		<path class="st22" d="M180.83,105.28c0.77-0.1,1.6-0.05,2.29-0.35c0.69-0.29,1.75-0.95,1.73-1.41c-0.03-0.74-0.65-1.77-1.31-2.09
			c-0.98-0.47-2.21-0.48-3.35-0.6c-1.54-0.17-3.09-0.23-4.63-0.39c-1.33-0.14-2.18-0.89-2.64-2.5c1.06-0.06,1.99-0.11,2.93-0.17
			c0.69-0.04,1.38-0.06,2.06-0.15c1.09-0.16,1.77-0.9,1.47-1.9c-0.19-0.63-1.03-1.47-1.64-1.52c-2.28-0.2-4.59-0.02-6.88-0.18
			c-0.79-0.06-1.81-0.5-2.26-1.1c-0.99-1.33-0.36-2.42,1.32-2.41c11.48,0.06,22.96,0,34.44-0.08c1.56-0.01,1.69,0.79,1.52,1.97
			c-1.12,7.77-7.66,14.29-15.49,15.15c-2.29,0.25-4.66-0.03-6.96-0.34c-0.96-0.13-1.84-0.94-2.75-1.45
			C180.73,105.61,180.78,105.45,180.83,105.28z M197.92,98.68c0.26-0.01,0.53-0.02,0.79-0.02c0.43-0.75,1.15-1.48,1.21-2.25
			c0.09-1.13-0.79-2.11-1.93-1.86c-0.7,0.16-1.67,1.26-1.64,1.9C196.39,97.21,197.35,97.93,197.92,98.68z M189.74,99.34
			c0.01-0.26,0.03-0.53,0.04-0.79c-0.72-0.55-1.38-1.44-2.17-1.58c-1.11-0.2-1.7,0.76-1.71,1.86c-0.01,1.12,0.62,2.01,1.72,1.88
			C188.36,100.62,189.03,99.82,189.74,99.34z"/>
	</g>
</g>
<g id="Layer_14">
</g>
<g id="Layer_15">
</g>
</svg>
