<?xml version="1.0" encoding="utf-8"?>
<!-- Generator: Adobe Illustrator 27.8.1, SVG Export Plug-In . SVG Version: 6.00 Build 0)  -->
<svg version="1.1" xmlns="http://www.w3.org/2000/svg" xmlns:xlink="http://www.w3.org/1999/xlink" x="0px" y="0px"
	 viewBox="0 0 350 230" style="enable-background:new 0 0 350 230;" xml:space="preserve">
<style type="text/css">
	.st0{fill:#00D19E;}
	.st1{fill:#002389;}
	.st2{fill:#00079C;}
	.st3{fill:#7F4900;}
	.st4{fill:#014742;}
	.st5{fill:#0019FF;}
	.st6{fill:#00B3F9;}
	.st7{fill:#773000;}
	.st8{fill-rule:evenodd;clip-rule:evenodd;fill:#CD00FF;}
	.st9{fill-rule:evenodd;clip-rule:evenodd;fill:#FF9700;}
	.st10{fill:#450056;}
	.st11{fill:#70B208;}
	.st12{fill-rule:evenodd;clip-rule:evenodd;fill:#005CFF;}
	.st13{fill-rule:evenodd;clip-rule:evenodd;fill:#00FF73;}
	.st14{fill-rule:evenodd;clip-rule:evenodd;fill:#014422;}
	.st15{fill-rule:evenodd;clip-rule:evenodd;fill:#A58500;}
	.st16{fill-rule:evenodd;clip-rule:evenodd;fill:#FF7300;}
	.st17{fill:#000202;}
	.st18{fill:#005454;}
	.st19{fill:#AB5FBF;}
	.st20{fill:#51531C;}
	.st21{fill:#661B00;}
	.st22{fill:#001E3F;}
	.st23{fill:#C69400;}
	.st24{fill:#009AB0;}
	.st25{fill:#7F0058;}
	.st26{fill:#006060;}
	.st27{fill:#7500FF;}
	.st28{fill:#9CFF00;}
</style>
<g id="Layer_1">
</g>
<g id="Layer_2">
</g>
<g id="Layer_3">
</g>
<g id="Layer_4">
</g>
<g id="Layer_5">
</g>
<g id="Layer_6">
</g>
<g id="Layer_7">
</g>
<g id="Layer_8">
</g>
<g id="Layer_9">
</g>
<g id="Layer_10">
</g>
<g id="Layer_11">
</g>
<g id="Layer_12">
</g>
<g id="Layer_13">
</g>
<g id="Layer_14">
	<g>
		<g>
			<path class="st23" d="M117.85,116.77c7.32-11.29,15.09-22.27,23-33.15c0,0,1.48-2.02,1.48-2.02s1.93,1.81,1.93,1.81
				c6.68,6.22,14.16,13.42,20.69,19.81c0,0-4.69,0.7-4.69,0.7c2.76-5.37,5.56-10.72,8.37-16.06c3.37-6.34,6.8-12.73,10.24-19.02
				c6.24,4.88,14.26,11.03,20.38,16c0,0-3.91,1.47-3.91,1.47c3.41-14.28,7.54-30.56,11.77-44.58c-1.67,14.54-4.4,31.13-6.93,45.58
				c0,0-0.65,3.74-0.65,3.74c-6.65-4.59-14.92-10.6-21.51-15.42c0,0,4.37-0.98,4.37-0.98c-5.52,10.74-11.16,21.41-16.94,32.01
				c0,0-1.93,3.55-1.93,3.55s-2.75-2.85-2.75-2.85c-6.36-6.56-13.54-14.06-19.74-20.76c0,0,3.4-0.21,3.4-0.21
				C135.8,96.73,127.03,106.93,117.85,116.77L117.85,116.77z"/>
			<path class="st24" d="M148.28,86.03c0,2.61-2.12,4.73-4.73,4.73s-4.73-2.12-4.73-4.73s2.12-4.73,4.73-4.73
				S148.28,83.42,148.28,86.03z M163.27,103.5c-2.61,0-4.73,2.12-4.73,4.73s2.12,4.73,4.73,4.73s4.73-2.12,4.73-4.73
				S165.88,103.5,163.27,103.5z M178.93,66.31c-2.61,0-4.73,2.12-4.73,4.73s2.12,4.73,4.73,4.73s4.73-2.12,4.73-4.73
				S181.55,66.31,178.93,66.31z M198.83,84.68c-2.61,0-4.73,2.12-4.73,4.73s2.12,4.73,4.73,4.73s4.73-2.12,4.73-4.73
				S201.44,84.68,198.83,84.68z"/>
		</g>
		<path class="st25" d="M203.71,88.71c-0.11,20.75-16.89,37.23-37.83,37.13c-20.42-0.1-36.91-17.03-36.77-37.77
			c0.14-20.4,17.09-37.06,37.5-36.88C187.22,51.37,203.82,68.16,203.71,88.71z M166.5,113.41c13.41,0.11,24.68-11.08,24.77-24.6
			c0.1-13.86-10.96-25.08-24.8-25.16c-13.64-0.08-24.81,10.95-24.93,24.62C141.41,102.23,152.39,113.28,166.5,113.41z
			 M200.19,137.49c6.01,6.57,12.01,13.15,18.04,19.7c2.78,3.02,6,3.13,9.04,0.39c0.85-0.77,1.7-1.54,2.54-2.31
			c2.98-2.73,3.14-6.02,0.39-9.04c-3.72-4.1-7.47-8.17-11.2-12.25c-4.54-4.97-9.09-9.93-13.57-14.84c-4.05,3.66-8,7.22-12.05,10.88
			C195.66,132.53,197.92,135.01,200.19,137.49z M201.46,118.81c-1-1.09-1.88-2.04-2.85-3.08c-2.74,2.52-5.31,4.9-7.96,7.33
			c1.02,1.11,1.86,2.03,2.81,3.06C196.17,123.63,198.77,121.26,201.46,118.81z"/>
	</g>
</g>
<g id="Layer_15">
</g>
</svg>
