<?xml version="1.0" encoding="utf-8"?>
<!-- Generator: Adobe Illustrator 27.8.1, SVG Export Plug-In . SVG Version: 6.00 Build 0)  -->
<svg version="1.1" xmlns="http://www.w3.org/2000/svg" xmlns:xlink="http://www.w3.org/1999/xlink" x="0px" y="0px"
	 viewBox="0 0 350 230" style="enable-background:new 0 0 350 230;" xml:space="preserve">
<style type="text/css">
	.st0{fill:#00D19E;}
	.st1{fill:#002389;}
	.st2{fill:#00079C;}
	.st3{fill:#7F4900;}
	.st4{fill:#014742;}
	.st5{fill:#0019FF;}
	.st6{fill:#00B3F9;}
	.st7{fill:#773000;}
	.st8{fill-rule:evenodd;clip-rule:evenodd;fill:#CD00FF;}
	.st9{fill-rule:evenodd;clip-rule:evenodd;fill:#FF9700;}
	.st10{fill:#450056;}
	.st11{fill:#70B208;}
	.st12{fill-rule:evenodd;clip-rule:evenodd;fill:#005CFF;}
	.st13{fill-rule:evenodd;clip-rule:evenodd;fill:#00FF73;}
	.st14{fill-rule:evenodd;clip-rule:evenodd;fill:#014422;}
	.st15{fill-rule:evenodd;clip-rule:evenodd;fill:#A58500;}
	.st16{fill-rule:evenodd;clip-rule:evenodd;fill:#FF7300;}
	.st17{fill:#000202;}
	.st18{fill:#005454;}
	.st19{fill:#AB5FBF;}
	.st20{fill:#51531C;}
	.st21{fill:#661B00;}
	.st22{fill:#001E3F;}
	.st23{fill:#C69400;}
	.st24{fill:#009AB0;}
	.st25{fill:#7F0058;}
	.st26{fill:#006060;}
	.st27{fill:#7500FF;}
	.st28{fill:#9CFF00;}
</style>
<g id="Layer_1">
</g>
<g id="Layer_2">
</g>
<g id="Layer_3">
</g>
<g id="Layer_4">
</g>
<g id="Layer_5">
</g>
<g id="Layer_6">
</g>
<g id="Layer_7">
</g>
<g id="Layer_8">
</g>
<g id="Layer_9">
</g>
<g id="Layer_10">
</g>
<g id="Layer_11">
</g>
<g id="Layer_12">
</g>
<g id="Layer_13">
</g>
<g id="Layer_14">
</g>
<g id="Layer_15">
	<g>
		<path class="st26" d="M155.95,52.34c9.67-0.07,17.47,7.65,17.52,17.34c0.05,9.66-7.6,17.55-17.1,17.63
			c-9.99,0.08-17.79-7.52-17.87-17.41C138.42,60.18,146.15,52.41,155.95,52.34z M163.39,69.78c-0.02-4.01-3.4-7.37-7.42-7.38
			c-3.95,0-7.43,3.49-7.41,7.43c0.02,3.94,3.55,7.44,7.46,7.39C160.04,77.17,163.41,73.77,163.39,69.78z M195.72,114.78
			c5.29,0,10.5,0,15.78,0c0-5.29,0-10.49,0-15.77c-5.32,0-10.53,0-15.78,0C195.72,104.32,195.72,109.53,195.72,114.78z"/>
		<path class="st27" d="M178.62,121.22c0,1.89,0.08,3.62-0.01,5.34c-0.38,7.18,5.34,11.87,11.53,11.63
			c6.45-0.25,12.92-0.06,19.38-0.06c0.54,0,1.08,0,1.73,0c0,3.71,0,7.32,0,11.13c-0.57,0-1.15,0-1.72,0
			c-6.78,0.01-13.56,0.03-20.34,0.05c-11.77,0.03-21.63-9.72-21.68-21.47c-0.01-2.17,0-4.35,0-6.63
			C171.23,121.22,174.84,121.22,178.62,121.22z"/>
		<path class="st28" d="M169.75,89.32c6.36-0.05,11.5,5.04,11.54,11.42c0.03,6.36-5,11.56-11.26,11.61
			c-6.58,0.05-11.71-4.95-11.77-11.46C158.21,94.48,163.29,89.36,169.75,89.32z M174.65,100.81c-0.01-2.64-2.24-4.86-4.89-4.86
			c-2.6,0-4.89,2.3-4.88,4.89c0.01,2.6,2.34,4.9,4.91,4.87C172.44,105.67,174.66,103.43,174.65,100.81z M211.5,124.19
			c-3.75,0-7.36,0-11,0c0,3.74,0,7.39,0,11.08c3.7,0,7.28,0,11,0C211.5,131.49,211.5,127.84,211.5,124.19z"/>
	</g>
</g>
</svg>
