<?xml version="1.0" encoding="utf-8"?>
<!-- Generator: Adobe Illustrator 27.8.1, SVG Export Plug-In . SVG Version: 6.00 Build 0)  -->
<svg version="1.1" xmlns="http://www.w3.org/2000/svg" xmlns:xlink="http://www.w3.org/1999/xlink" x="0px" y="0px"
	 viewBox="0 0 350 230" style="enable-background:new 0 0 350 230;" xml:space="preserve">
<style type="text/css">
	.st0{fill:#00D19E;}
	.st1{fill:#002389;}
	.st2{fill:#00079C;}
	.st3{fill:#7F4900;}
	.st4{fill:#014742;}
	.st5{fill:#0019FF;}
	.st6{fill:#00B3F9;}
	.st7{fill:#773000;}
	.st8{fill-rule:evenodd;clip-rule:evenodd;fill:#CD00FF;}
	.st9{fill-rule:evenodd;clip-rule:evenodd;fill:#FF9700;}
	.st10{fill:#450056;}
	.st11{fill:#70B208;}
	.st12{fill-rule:evenodd;clip-rule:evenodd;fill:#005CFF;}
	.st13{fill-rule:evenodd;clip-rule:evenodd;fill:#00FF73;}
	.st14{fill-rule:evenodd;clip-rule:evenodd;fill:#014422;}
	.st15{fill-rule:evenodd;clip-rule:evenodd;fill:#A58500;}
	.st16{fill-rule:evenodd;clip-rule:evenodd;fill:#FF7300;}
	.st17{fill:#000202;}
	.st18{fill:#005454;}
	.st19{fill:#AB5FBF;}
	.st20{fill:#51531C;}
	.st21{fill:#661B00;}
	.st22{fill:#001E3F;}
	.st23{fill:#C69400;}
	.st24{fill:#009AB0;}
	.st25{fill:#7F0058;}
	.st26{fill:#006060;}
	.st27{fill:#7500FF;}
	.st28{fill:#9CFF00;}
	.st29{fill:#097EAF;}
	.st30{fill-rule:evenodd;clip-rule:evenodd;fill:#097EAF;}
	.st31{fill-rule:evenodd;clip-rule:evenodd;fill:#EA0A8C;}
	.st32{fill:#F7941E;}
	.st33{fill:#8DC63F;}
	.st34{fill:#FDB913;}
	.st35{fill:#25BDBE;}
	.st36{filter:url(#Adobe_OpacityMaskFilter);}
	.st37{fill:url(#SVGID_1_);}
	.st38{mask:url(#SVGID_00000124157121671494279760000013185531945465373615_);fill-rule:evenodd;clip-rule:evenodd;fill:#FFFFFF;}
	.st39{filter:url(#Adobe_OpacityMaskFilter_00000181773929738173269400000002702090220053612206_);}
	.st40{fill:url(#SVGID_00000004511833268313276760000003304908124410963102_);}
	.st41{mask:url(#SVGID_00000106134448223629422130000016235924348400081852_);fill-rule:evenodd;clip-rule:evenodd;fill:#FFFFFF;}
	.st42{fill:#2ECED8;}
	.st43{fill:#EBA116;}
	.st44{fill:#151F28;}
	.st45{fill:#36EEE0;}
	.st46{fill:#F652A0;}
	.st47{fill:#CD1223;}
	.st48{fill:#1C1D33;}
	.st49{fill-rule:evenodd;clip-rule:evenodd;fill:#CD1223;}
	.st50{fill:#1A1A1A;}
	.st51{fill:#1AC2EA;}
	.st52{fill:#59C0E4;}
	.st53{fill:#4DB3CE;}
	.st54{fill:#EE8561;}
	.st55{fill:#EABC54;}
	.st56{fill:#1660D6;}
	.st57{fill:#FF7950;}
	.st58{fill:#FFFFFF;}
	.st59{fill:#003889;}
	.st60{fill-rule:evenodd;clip-rule:evenodd;fill:#002551;}
	.st61{fill:#41A0F4;}
	.st62{fill:#F3AF0E;}
	.st63{fill:#F66C22;}
	.st64{fill:#011C34;}
	.st65{fill:#918300;}
	.st66{fill:#A95BFE;}
	.st67{fill:#101C42;}
	.st68{fill:#F5A530;}
	.st69{fill:#00BBDD;}
	.st70{fill:#FF8E27;}
	.st71{fill:#97C213;}
	.st72{fill:#F9A609;}
	.st73{fill:#006E99;}
</style>
<g id="Layer_1">
</g>
<g id="Layer_2">
</g>
<g id="Layer_3">
</g>
<g id="Layer_4">
</g>
<g id="Layer_5">
</g>
<g id="Layer_6">
</g>
<g id="Layer_7">
</g>
<g id="Layer_8">
</g>
<g id="Layer_9">
</g>
<g id="Layer_10">
</g>
<g id="Layer_11">
</g>
<g id="Layer_12">
</g>
<g id="Layer_13">
</g>
<g id="Layer_14">
</g>
<g id="Layer_15">
	<g>
		<path class="st42" d="M268.65,77.93c-0.11-0.3-0.27-0.56-0.48-0.8c-0.21-0.23-0.47-0.41-0.76-0.54c-0.28-0.13-0.58-0.2-0.89-0.22
			c-0.32-0.01-0.63,0.04-0.93,0.15c-3.06,1.11-6.2,1.52-9.45,1.2l-16.91-21.6c0.47-3.23,1.61-6.2,3.43-8.89
			c0.18-0.26,0.3-0.54,0.37-0.86c0.06-0.31,0.06-0.62,0.01-0.93c-0.07-0.31-0.18-0.6-0.36-0.86c-0.17-0.26-0.39-0.48-0.65-0.66
			c-0.26-0.18-0.54-0.3-0.85-0.36c-0.31-0.07-0.62-0.07-0.93-0.01c-0.31,0.06-0.6,0.18-0.86,0.36c-0.26,0.17-0.48,0.38-0.65,0.65
			c-2.21,3.3-3.61,6.9-4.2,10.83c-0.31,0.54-0.41,1.13-0.26,1.75l-2.16,17.69l-18.65-2.28c-0.86-0.1-1.72-0.16-2.58-0.18
			c-0.87-0.03-1.73,0-2.59,0.06c-0.86,0.07-1.72,0.18-2.57,0.32c-0.85,0.15-1.69,0.34-2.53,0.58c-0.83,0.23-1.65,0.5-2.46,0.81
			c-0.62,0.25-1.23,0.51-1.84,0.8c-0.11-0.03-0.23-0.03-0.34-0.04c-0.31-0.02-0.62,0.03-0.91,0.14c-3.06,1.12-6.21,1.52-9.46,1.2
			l-16.91-21.6c0.48-3.23,1.62-6.19,3.45-8.89c0.17-0.25,0.3-0.54,0.36-0.85c0.06-0.31,0.07-0.62,0-0.93
			c-0.05-0.31-0.18-0.6-0.35-0.86c-0.17-0.26-0.39-0.48-0.65-0.65c-0.27-0.18-0.55-0.31-0.86-0.37c-0.31-0.06-0.62-0.07-0.94,0
			c-0.31,0.06-0.59,0.17-0.86,0.35c-0.26,0.17-0.48,0.39-0.65,0.65c-2.21,3.29-3.61,6.89-4.2,10.82c-0.32,0.54-0.41,1.13-0.25,1.75
			l-2.16,17.69l-18.65-2.28c-0.86-0.1-1.72-0.16-2.58-0.18c-0.87-0.02-1.73,0-2.59,0.06c-0.86,0.07-1.72,0.18-2.57,0.32
			c-0.86,0.15-1.7,0.35-2.53,0.58c-0.83,0.23-1.65,0.5-2.46,0.82c-0.81,0.31-1.6,0.66-2.36,1.05c-0.78,0.39-1.53,0.82-2.25,1.27
			c-0.73,0.47-1.44,0.96-2.12,1.5c-0.69,0.54-1.34,1.1-1.96,1.7c-0.63,0.59-1.22,1.22-1.78,1.88c-0.56,0.65-1.1,1.33-1.6,2.04
			c-0.49,0.71-0.95,1.45-1.38,2.19c-0.42,0.76-0.82,1.53-1.16,2.32c-0.35,0.79-0.66,1.6-0.93,2.42c-0.27,0.82-0.5,1.65-0.69,2.49
			c-0.2,0.85-0.34,1.7-0.44,2.56c-0.03,0.31-0.02,0.62,0.07,0.93c0.08,0.31,0.23,0.58,0.42,0.82c0.2,0.25,0.42,0.45,0.7,0.6
			c0.28,0.16,0.57,0.25,0.88,0.3c0.31,0.03,0.62,0.01,0.93-0.08c0.31-0.08,0.58-0.22,0.82-0.42c0.25-0.2,0.45-0.43,0.61-0.71
			c0.15-0.27,0.25-0.57,0.29-0.88c0.08-0.71,0.2-1.41,0.36-2.1c0.15-0.69,0.35-1.37,0.57-2.05c0.22-0.67,0.48-1.33,0.76-1.98
			c0.29-0.65,0.6-1.28,0.95-1.9c0.36-0.62,0.73-1.22,1.14-1.8c0.41-0.58,0.84-1.14,1.3-1.67c0.47-0.54,0.95-1.05,1.46-1.54
			c0.52-0.49,1.05-0.95,1.61-1.39c0.56-0.43,1.14-0.84,1.74-1.22c0.6-0.37,1.21-0.73,1.84-1.05c0.63-0.31,1.27-0.6,1.94-0.86
			c0.66-0.26,1.33-0.48,2.01-0.67c0.69-0.19,1.38-0.34,2.07-0.47c0.7-0.13,1.4-0.21,2.11-0.26c0.71-0.06,1.42-0.08,2.12-0.06
			c0.71,0.02,1.42,0.07,2.12,0.15l18.67,2.28l-2.28,18.66c-0.08,0.71-0.2,1.4-0.36,2.09c-0.15,0.69-0.35,1.38-0.57,2.05
			c-0.22,0.67-0.47,1.33-0.76,1.99c-0.29,0.65-0.61,1.27-0.95,1.9c-0.35,0.61-0.73,1.22-1.14,1.79c-0.41,0.59-0.84,1.14-1.31,1.67
			c-0.46,0.54-0.95,1.05-1.46,1.55c-0.51,0.48-1.05,0.95-1.61,1.39c-0.56,0.44-1.14,0.85-1.73,1.22c-0.6,0.38-1.22,0.73-1.85,1.05
			c-0.63,0.31-1.27,0.6-1.94,0.86c-0.66,0.26-1.33,0.48-2.01,0.67c-0.69,0.19-1.38,0.35-2.07,0.47c-0.71,0.12-1.4,0.21-2.11,0.26
			c-0.71,0.05-1.42,0.07-2.12,0.05c-0.71-0.01-1.42-0.07-2.12-0.15l-18.66-2.27l0.98-7.99l-4.73-0.58l-0.97,7.99l-17.72-2.17
			c-0.56-0.28-1.14-0.34-1.75-0.16c-3.94-0.37-7.79,0.12-11.51,1.48c-0.31,0.1-0.58,0.26-0.82,0.47c-0.24,0.21-0.42,0.47-0.57,0.76
			c-0.14,0.29-0.21,0.6-0.23,0.92c-0.01,0.32,0.03,0.63,0.14,0.93c0.11,0.3,0.28,0.57,0.5,0.8c0.22,0.24,0.48,0.42,0.77,0.54
			c0.3,0.14,0.6,0.2,0.93,0.21c0.32,0,0.63-0.05,0.94-0.17c3.05-1.13,6.2-1.53,9.43-1.21l16.91,21.61
			c-0.47,3.22-1.61,6.19-3.43,8.88c-0.18,0.26-0.3,0.54-0.37,0.86c-0.06,0.31-0.07,0.61,0,0.93c0.05,0.31,0.18,0.59,0.35,0.86
			c0.17,0.27,0.39,0.48,0.65,0.66c0.26,0.18,0.55,0.3,0.86,0.37c0.31,0.06,0.62,0.06,0.94,0c0.31-0.06,0.59-0.18,0.86-0.35
			c0.26-0.17,0.48-0.39,0.65-0.65c2.4-3.51,3.83-7.38,4.33-11.6l2.28-18.66l18.67,2.27c0.86,0.1,1.73,0.16,2.59,0.19
			c0.86,0.02,1.73,0,2.58-0.07c0.87-0.07,1.72-0.18,2.58-0.32c0.85-0.14,1.69-0.34,2.52-0.57c0.83-0.24,1.66-0.5,2.46-0.82
			c0.6-0.23,1.19-0.48,1.77-0.76c0.13,0.03,0.26,0.03,0.38,0.03c0.32,0.01,0.63-0.05,0.93-0.17c3.06-1.12,6.21-1.52,9.44-1.2
			l16.91,21.61c-0.47,3.22-1.61,6.18-3.43,8.88c-0.18,0.26-0.3,0.54-0.37,0.85c-0.06,0.31-0.06,0.62-0.01,0.94
			c0.07,0.31,0.18,0.59,0.36,0.86c0.17,0.26,0.39,0.48,0.65,0.66c0.25,0.18,0.54,0.3,0.85,0.37c0.31,0.06,0.62,0.06,0.94,0
			c0.31-0.06,0.59-0.18,0.86-0.35c0.26-0.18,0.48-0.39,0.66-0.65c2.38-3.52,3.83-7.38,4.33-11.6l2.27-18.67l18.67,2.28
			c0.86,0.1,1.72,0.16,2.58,0.19c0.86,0.02,1.73,0,2.59-0.07c0.86-0.07,1.72-0.18,2.57-0.32c0.85-0.15,1.69-0.34,2.52-0.57
			c0.83-0.24,1.65-0.51,2.46-0.82c0.8-0.31,1.59-0.66,2.36-1.05c0.77-0.4,1.52-0.82,2.25-1.28c0.73-0.46,1.44-0.96,2.12-1.5
			c0.68-0.54,1.33-1.1,1.96-1.69c0.62-0.6,1.22-1.23,1.78-1.89c0.57-0.65,1.1-1.33,1.59-2.04c0.5-0.71,0.96-1.44,1.39-2.19
			c0.42-0.76,0.82-1.52,1.16-2.32c0.35-0.78,0.65-1.59,0.93-2.41c0.27-0.82,0.5-1.65,0.69-2.5c0.19-0.84,0.34-1.69,0.44-2.55
			l2.27-18.65l18.67,2.27c4.21,0.51,8.31,0.03,12.29-1.42c0.3-0.11,0.57-0.27,0.8-0.48c0.23-0.21,0.42-0.46,0.54-0.75
			c0.14-0.29,0.2-0.59,0.22-0.9C268.8,78.53,268.76,78.22,268.65,77.93z M111.73,130.11l-11.11-14.19l12.65,1.54L111.73,130.11z
			 M170.46,61.27l11.1,14.19l-12.66-1.55L170.46,61.27z M179.67,131.59l-11.11-14.2l12.66,1.55L179.67,131.59z M229.29,98.21
			c-0.08,0.7-0.2,1.39-0.36,2.09c-0.16,0.69-0.34,1.37-0.56,2.05c-0.22,0.67-0.48,1.33-0.77,1.98c-0.28,0.65-0.6,1.28-0.95,1.9
			c-0.35,0.62-0.72,1.22-1.13,1.8c-0.41,0.58-0.84,1.14-1.3,1.67c-0.47,0.54-0.95,1.05-1.47,1.55c-0.51,0.48-1.05,0.94-1.61,1.39
			c-0.56,0.44-1.14,0.85-1.73,1.22c-0.6,0.38-1.22,0.73-1.85,1.05c-0.63,0.31-1.27,0.6-1.94,0.86c-0.66,0.25-1.33,0.48-2.01,0.67
			c-0.69,0.19-1.38,0.35-2.07,0.47c-0.7,0.12-1.4,0.21-2.12,0.26c-0.7,0.05-1.41,0.07-2.12,0.05c-0.71-0.02-1.42-0.07-2.12-0.15
			l-18.65-2.27l0.97-7.99l-4.73-0.58l-0.97,7.98l-17.72-2.16c-0.56-0.29-1.14-0.34-1.74-0.16c-0.97-0.09-1.94-0.13-2.89-0.11
			c0.15-0.15,0.28-0.31,0.42-0.46c0.56-0.65,1.1-1.33,1.59-2.05c0.5-0.71,0.96-1.44,1.39-2.19c0.42-0.75,0.81-1.52,1.16-2.31
			c0.35-0.79,0.65-1.6,0.93-2.41c0.27-0.82,0.5-1.66,0.69-2.51c0.19-0.84,0.33-1.69,0.44-2.55l2.27-18.65l18.67,2.28
			c1.23,0.14,2.45,0.21,3.65,0.19c-0.14,0.14-0.26,0.29-0.39,0.43c-0.56,0.65-1.1,1.33-1.59,2.04c-0.5,0.71-0.96,1.45-1.39,2.19
			c-0.42,0.76-0.82,1.52-1.16,2.32c-0.35,0.79-0.65,1.6-0.93,2.41c-0.27,0.82-0.5,1.66-0.69,2.5c-0.19,0.84-0.33,1.7-0.44,2.55
			c-0.04,0.31-0.01,0.63,0.07,0.93c0.09,0.3,0.22,0.58,0.42,0.82c0.2,0.25,0.43,0.45,0.71,0.6c0.27,0.16,0.57,0.25,0.88,0.29
			c0.31,0.04,0.62,0.02,0.93-0.07c0.31-0.09,0.58-0.22,0.83-0.42c0.25-0.2,0.45-0.43,0.6-0.71c0.15-0.27,0.25-0.57,0.29-0.88
			c0.08-0.7,0.2-1.4,0.37-2.09c0.15-0.7,0.34-1.38,0.56-2.05c0.22-0.67,0.48-1.33,0.76-1.98c0.29-0.65,0.61-1.28,0.96-1.9
			c0.34-0.61,0.72-1.22,1.13-1.79c0.41-0.58,0.84-1.14,1.3-1.67c0.47-0.54,0.95-1.05,1.47-1.54c0.51-0.49,1.05-0.95,1.61-1.39
			c0.55-0.43,1.14-0.84,1.73-1.22c0.6-0.38,1.22-0.73,1.84-1.05c0.63-0.31,1.28-0.6,1.94-0.86c0.66-0.26,1.33-0.48,2.02-0.67
			c0.68-0.2,1.37-0.35,2.07-0.47c0.7-0.13,1.4-0.21,2.11-0.26c0.71-0.06,1.41-0.08,2.12-0.06c0.71,0.02,1.41,0.07,2.12,0.15
			l18.67,2.28L229.29,98.21z M236.84,75.4l1.56-12.65l11.1,14.19L236.84,75.4z"/>
		<path d="M221.34,96.86l-9.09-11.61c-0.2-0.25-0.35-0.52-0.44-0.83c-0.09-0.31-0.12-0.62-0.08-0.94c0.04-0.31,0.13-0.61,0.29-0.89
			c0.15-0.28,0.36-0.52,0.61-0.71c0.25-0.2,0.53-0.34,0.84-0.42c0.31-0.08,0.62-0.11,0.94-0.06c0.31,0.04,0.61,0.14,0.89,0.3
			c0.27,0.16,0.51,0.37,0.7,0.62l9.09,11.61c0.3,0.38,0.46,0.81,0.5,1.29c0.04,0.48-0.07,0.93-0.3,1.35c-0.24,0.42-0.57,0.73-1,0.95
			c-0.43,0.22-0.88,0.3-1.36,0.24C222.27,97.68,221.75,97.38,221.34,96.86z M193.29,97.07c-0.25,0.19-0.45,0.43-0.6,0.7
			c-0.15,0.27-0.25,0.57-0.29,0.88c-0.04,0.31-0.01,0.62,0.07,0.93c0.08,0.3,0.23,0.58,0.42,0.83l9.09,11.61
			c0.19,0.25,0.43,0.45,0.7,0.6s0.57,0.25,0.88,0.29c0.31,0.04,0.62,0.01,0.93-0.07c0.31-0.08,0.58-0.23,0.83-0.42
			c0.25-0.19,0.45-0.43,0.61-0.7c0.15-0.28,0.25-0.57,0.29-0.89c0.04-0.31,0.02-0.62-0.07-0.93c-0.08-0.3-0.23-0.58-0.42-0.83
			l-9.09-11.61c-0.19-0.25-0.43-0.45-0.7-0.61c-0.27-0.15-0.57-0.25-0.88-0.29c-0.31-0.04-0.62-0.01-0.93,0.07
			C193.82,96.73,193.55,96.87,193.29,97.07z M199.94,85.61c-0.25,0.19-0.45,0.43-0.61,0.7c-0.15,0.27-0.25,0.57-0.29,0.88
			c-0.04,0.31-0.01,0.62,0.07,0.93c0.08,0.31,0.23,0.58,0.42,0.83l15.16,19.37c0.19,0.24,0.43,0.44,0.7,0.59
			c0.27,0.15,0.57,0.24,0.88,0.27s0.62,0.01,0.92-0.08c0.3-0.08,0.57-0.22,0.82-0.42c0.24-0.19,0.44-0.42,0.6-0.7
			c0.15-0.27,0.25-0.56,0.29-0.87c0.04-0.31,0.02-0.62-0.06-0.92c-0.08-0.3-0.21-0.58-0.4-0.83l-15.16-19.36
			c-0.19-0.25-0.43-0.45-0.7-0.61c-0.27-0.15-0.57-0.25-0.88-0.29c-0.31-0.04-0.62-0.02-0.93,0.07
			C200.47,85.28,200.19,85.42,199.94,85.61z M154.98,96.28c0.48,0.06,0.93-0.02,1.36-0.24c0.43-0.22,0.76-0.54,1-0.96
			c0.24-0.42,0.34-0.87,0.3-1.35c-0.04-0.48-0.2-0.91-0.5-1.29l-9.09-11.61c-0.19-0.25-0.43-0.46-0.7-0.62
			c-0.27-0.16-0.57-0.26-0.89-0.31c-0.31-0.04-0.63-0.02-0.93,0.07c-0.31,0.08-0.59,0.23-0.84,0.42c-0.25,0.19-0.46,0.43-0.61,0.71
			c-0.16,0.28-0.25,0.58-0.29,0.89c-0.04,0.31-0.01,0.63,0.08,0.93c0.09,0.31,0.23,0.58,0.43,0.83l9.09,11.61
			C153.8,95.9,154.33,96.2,154.98,96.28z M125.35,95.59c-0.25,0.19-0.45,0.43-0.61,0.7c-0.15,0.27-0.25,0.57-0.29,0.88
			c-0.04,0.31-0.02,0.62,0.07,0.93c0.09,0.31,0.23,0.58,0.42,0.83l9.09,11.61c0.19,0.25,0.43,0.45,0.7,0.61s0.57,0.25,0.89,0.29
			c0.31,0.04,0.62,0.02,0.93-0.07c0.3-0.08,0.58-0.22,0.83-0.42s0.45-0.43,0.6-0.7c0.16-0.27,0.25-0.57,0.29-0.88
			s0.01-0.62-0.07-0.93c-0.08-0.31-0.22-0.58-0.42-0.83L128.69,96c-0.19-0.25-0.43-0.45-0.7-0.61c-0.27-0.15-0.57-0.25-0.88-0.29
			c-0.31-0.04-0.62-0.01-0.93,0.07C125.87,95.25,125.6,95.4,125.35,95.59z M131.99,84.13c-0.25,0.19-0.45,0.43-0.61,0.7
			c-0.15,0.27-0.25,0.57-0.29,0.89c-0.04,0.31-0.01,0.62,0.07,0.93c0.08,0.3,0.22,0.58,0.42,0.83l15.16,19.36
			c0.2,0.24,0.43,0.44,0.71,0.59c0.27,0.15,0.56,0.24,0.87,0.28c0.31,0.04,0.62,0.01,0.92-0.08c0.3-0.08,0.58-0.23,0.82-0.42
			c0.25-0.19,0.45-0.42,0.6-0.7c0.15-0.27,0.25-0.56,0.29-0.87s0.02-0.62-0.06-0.92c-0.08-0.3-0.21-0.58-0.4-0.82l-15.16-19.37
			c-0.19-0.25-0.43-0.45-0.7-0.6s-0.57-0.25-0.89-0.29c-0.31-0.04-0.62-0.01-0.93,0.07C132.52,83.8,132.24,83.94,131.99,84.13z
			 M135.48,145.15h9.68v-9.68h-9.68V145.15z M204.95,62.93h9.68v-9.68h-9.68V62.93z"/>
	</g>
</g>
</svg>
