<?xml version="1.0" encoding="utf-8"?>
<!-- Generator: Adobe Illustrator 27.8.1, SVG Export Plug-In . SVG Version: 6.00 Build 0)  -->
<svg version="1.1" xmlns="http://www.w3.org/2000/svg" xmlns:xlink="http://www.w3.org/1999/xlink" x="0px" y="0px"
	 viewBox="0 0 350 230" style="enable-background:new 0 0 350 230;" xml:space="preserve">
<style type="text/css">
	.st0{fill:#00D19E;}
	.st1{fill:#002389;}
	.st2{fill:#00079C;}
	.st3{fill:#7F4900;}
	.st4{fill:#014742;}
	.st5{fill:#0019FF;}
	.st6{fill:#00B3F9;}
	.st7{fill:#773000;}
	.st8{fill-rule:evenodd;clip-rule:evenodd;fill:#CD00FF;}
	.st9{fill-rule:evenodd;clip-rule:evenodd;fill:#FF9700;}
	.st10{fill:#450056;}
	.st11{fill:#70B208;}
	.st12{fill-rule:evenodd;clip-rule:evenodd;fill:#005CFF;}
	.st13{fill-rule:evenodd;clip-rule:evenodd;fill:#00FF73;}
	.st14{fill-rule:evenodd;clip-rule:evenodd;fill:#014422;}
	.st15{fill-rule:evenodd;clip-rule:evenodd;fill:#A58500;}
	.st16{fill-rule:evenodd;clip-rule:evenodd;fill:#FF7300;}
	.st17{fill:#000202;}
	.st18{fill:#005454;}
	.st19{fill:#AB5FBF;}
	.st20{fill:#51531C;}
	.st21{fill:#661B00;}
	.st22{fill:#001E3F;}
	.st23{fill:#C69400;}
	.st24{fill:#009AB0;}
	.st25{fill:#7F0058;}
	.st26{fill:#006060;}
	.st27{fill:#7500FF;}
	.st28{fill:#9CFF00;}
</style>
<g id="Layer_1">
</g>
<g id="Layer_2">
	<g>
		<path class="st2" d="M157.49,61.53c6.5-8.24,19.31-13.25,32.03-8.77c12.04,4.24,20.19,16.42,19.36,29.03
			c-0.9,13.62-10.25,24.43-23.69,27.08c-13.09,2.58-24.56-4.23-29.78-12.74c1.88-0.45,3.76-0.92,5.65-1.33
			c0.19-0.04,0.5,0.24,0.68,0.44c4.05,4.73,9.14,7.5,15.32,8.3c11.06,1.44,22.21-5.93,25.18-16.69
			c3.82-13.81-4.69-27.39-18.76-29.73c-7.16-1.19-13.56,0.75-19.09,5.45c-0.51,0.43-0.88,0.52-1.55,0.31
			C161.08,62.34,159.27,61.97,157.49,61.53z M174.05,116.11c-1.28,0.02-1.5,0.24-1.5,1.51c0,10.94,0,21.88,0,32.83
			c0,1.05,0.28,1.38,1.34,1.39c3.93,0.02,7.87,0.02,11.8,0.01c0.82,0,1.26-0.37,1.26-1.27c-0.02-11.07-0.01-22.15,0-33.22
			c0-0.85-0.39-1.22-1.19-1.23c-0.78-0.01-1.56,0-2.47,0c0-1.8,0-3.47,0-5.09c-2.43,0-4.73,0-7.12,0c0,1.65,0,3.29,0,5.08
			C175.36,116.11,174.71,116.1,174.05,116.11z"/>
		<path class="st3" d="M183.17,72.46c-1.95,3.29-4.63,5.93-7.57,8.3c-1.62,1.3-3.31,2.53-5.1,3.58c-2.23,1.3-4.58,2.4-6.89,3.54
			c-0.29,0.14-0.81,0.14-1.07-0.02c-2.67-1.69-5.59-2.48-8.73-2.55c-0.16,0-0.32-0.05-0.55-0.09c0.21-1.7,0.41-3.36,0.63-5.02
			c0.7-5.33,1.44-10.66,2.1-16c0.1-0.79,0.39-0.99,1.12-0.98c5.54,0.05,9.54,2.67,12.33,7.31c0.63,1.04,1.12,2.16,1.75,3.38
			c3.7-4.49,8.09-7.42,14.35-6.67c-0.77,1.72-1.5,3.36-2.23,5L183.17,72.46z M189.45,94.66c1.26-7.54,2.52-15.08,3.79-22.67
			c-0.99-0.13-1.89-0.24-2.83-0.36c-1.15,6.8-2.29,13.46-3.42,20.14c-7.24-1.2-13.88-1.03-18.09,6.1
			C173.67,92.61,180.53,91.54,189.45,94.66z M187.36,76.09c-5.45,7.34-12.56,12.4-20.7,16.21c0.48,0.96,0.92,1.85,1.41,2.83
			c2.08-2.62,4.52-4.51,7.66-5.4c3.11-0.88,6.21-0.59,9.39,0.28C185.88,85.32,186.62,80.7,187.36,76.09z M160.77,91.11
			c0.93,0.49,1.77,1.13,2.49,1.9c0.47,0.5,0.92,0.99,1.32,1.51c0.69,0.9,1.23,1.9,1.81,2.81c-0.87-4.04-3.29-6.92-7.35-8.77
			c-2.56-1.16-5.27-1.67-8.22-1.97c0.84-6.84,1.67-13.57,2.5-20.34c-0.96-0.14-1.8-0.26-2.65-0.39c-0.95,7.59-1.9,15.07-2.85,22.63
			c1.17,0,2.29-0.04,3.41,0.01C154.59,88.66,157.84,89.33,160.77,91.11L160.77,91.11z"/>
		<path class="st4" d="M165.13,91.9c-0.44-0.46-0.82-0.88-1.22-1.27c-0.4-0.39-0.82-0.75-1.17-1.07c2.44-1.24,4.95-2.34,7.29-3.72
			c6.02-3.56,11.31-7.93,14.81-14.14c1.2-2.13,2-4.39,1.79-6.89c-0.19-2.28-1.29-3.98-3.22-5.17c-0.16-0.1-0.33-0.2-0.58-0.36
			c3.08,0.24,6.26,2.68,6.68,6.18c0.27,2.28-0.25,4.4-1.17,6.45c-1.47,3.31-3.67,6.11-6.2,8.66
			C177.27,85.47,171.55,89.14,165.13,91.9z M146.76,94.23c5.07,1.49,9.99,0.44,15.11-1.14c-0.88-0.56-1.57-1-2.25-1.44
			c-0.99-0.64-2.01-0.67-3.19-0.52c-2.34,0.3-4.74,0.54-7.09,0.36c-4.79-0.36-7.21-2.82-7.7-7.51
			C139.97,88.6,142.07,92.85,146.76,94.23z"/>
	</g>
</g>
<g id="Layer_3">
</g>
<g id="Layer_4">
</g>
<g id="Layer_5">
</g>
<g id="Layer_6">
</g>
<g id="Layer_7">
</g>
<g id="Layer_8">
</g>
<g id="Layer_9">
</g>
<g id="Layer_10">
</g>
<g id="Layer_11">
</g>
<g id="Layer_12">
</g>
<g id="Layer_13">
</g>
<g id="Layer_14">
</g>
<g id="Layer_15">
</g>
</svg>
