<?xml version="1.0" encoding="utf-8"?>
<!-- Generator: Adobe Illustrator 27.8.1, SVG Export Plug-In . SVG Version: 6.00 Build 0)  -->
<svg version="1.1" xmlns="http://www.w3.org/2000/svg" xmlns:xlink="http://www.w3.org/1999/xlink" x="0px" y="0px"
	 viewBox="0 0 350 230" style="enable-background:new 0 0 350 230;" xml:space="preserve">
<style type="text/css">
	.st0{fill:#00D19E;}
	.st1{fill:#002389;}
	.st2{fill:#00079C;}
	.st3{fill:#7F4900;}
	.st4{fill:#014742;}
	.st5{fill:#0019FF;}
	.st6{fill:#00B3F9;}
	.st7{fill:#773000;}
	.st8{fill-rule:evenodd;clip-rule:evenodd;fill:#CD00FF;}
	.st9{fill-rule:evenodd;clip-rule:evenodd;fill:#FF9700;}
	.st10{fill:#450056;}
	.st11{fill:#70B208;}
	.st12{fill-rule:evenodd;clip-rule:evenodd;fill:#005CFF;}
	.st13{fill-rule:evenodd;clip-rule:evenodd;fill:#00FF73;}
	.st14{fill-rule:evenodd;clip-rule:evenodd;fill:#014422;}
	.st15{fill-rule:evenodd;clip-rule:evenodd;fill:#A58500;}
	.st16{fill-rule:evenodd;clip-rule:evenodd;fill:#FF7300;}
	.st17{fill:#000202;}
	.st18{fill:#005454;}
	.st19{fill:#AB5FBF;}
	.st20{fill:#51531C;}
	.st21{fill:#661B00;}
	.st22{fill:#001E3F;}
	.st23{fill:#C69400;}
	.st24{fill:#009AB0;}
	.st25{fill:#7F0058;}
	.st26{fill:#006060;}
	.st27{fill:#7500FF;}
	.st28{fill:#9CFF00;}
</style>
<g id="Layer_1">
</g>
<g id="Layer_2">
</g>
<g id="Layer_3">
	<g>
		<path class="st3" d="M194.05,109.54c-2.15,0-3.89,1.95-3.92,4.37l-17.1,10.65l-40.03-24.93v4.97l40.03,24.95L192,117.73
			c0.6,0.42,1.3,0.65,2.05,0.65c2.16,0,3.92-1.98,3.92-4.42C197.97,111.52,196.22,109.54,194.05,109.54z M200.77,125.41
			c-2.15,0-3.9,1.96-3.92,4.38l-23.81,14.88l-40.03-25.02v4.97l40.03,25.02l25.68-16.05c0.6,0.41,1.3,0.65,2.05,0.65
			c2.16,0,3.92-1.98,3.92-4.42C204.69,127.39,202.93,125.41,200.77,125.41z"/>
		<path class="st5" d="M209.15,110.15c-2.15,0-3.89,1.95-3.92,4.37l-32.19,20.07l-40.03-24.95v4.99l40.03,24.93l34.06-21.22
			c0.6,0.41,1.3,0.65,2.05,0.65c2.16,0,3.92-1.98,3.92-4.42C213.07,112.13,211.32,110.15,209.15,110.15z M213.07,87.68
			c-2.15,0-3.9,1.96-3.92,4.38l-36.11,22.51l-36.06-22.48l39.79-25l-3.73-2.49l-40.03,25.02v4.97l40.03,24.95l37.97-23.67
			c0.6,0.42,1.3,0.66,2.05,0.66c2.16,0,3.92-1.98,3.92-4.42C216.98,89.66,215.23,87.68,213.07,87.68z M185.23,96.56l7.66-14.59
			l9.16,5.72l3.98-2.48l-11.17-6.98l5.64-10.76l-16.52-10.86l-15.27,29.09L185.23,96.56z M162.76,88l19.42,12.65l2.69-1.68
			l-19.42-12.66L162.76,88z"/>
	</g>
</g>
<g id="Layer_4">
</g>
<g id="Layer_5">
</g>
<g id="Layer_6">
</g>
<g id="Layer_7">
</g>
<g id="Layer_8">
</g>
<g id="Layer_9">
</g>
<g id="Layer_10">
</g>
<g id="Layer_11">
</g>
<g id="Layer_12">
</g>
<g id="Layer_13">
</g>
<g id="Layer_14">
</g>
<g id="Layer_15">
</g>
</svg>
