<?xml version="1.0" encoding="utf-8"?>
<!-- Generator: Adobe Illustrator 27.8.1, SVG Export Plug-In . SVG Version: 6.00 Build 0)  -->
<svg version="1.1" xmlns="http://www.w3.org/2000/svg" xmlns:xlink="http://www.w3.org/1999/xlink" x="0px" y="0px"
	 viewBox="0 0 350 230" style="enable-background:new 0 0 350 230;" xml:space="preserve">
<style type="text/css">
	.st0{fill:#00D19E;}
	.st1{fill:#002389;}
	.st2{fill:#00079C;}
	.st3{fill:#7F4900;}
	.st4{fill:#014742;}
	.st5{fill:#0019FF;}
	.st6{fill:#00B3F9;}
	.st7{fill:#773000;}
	.st8{fill-rule:evenodd;clip-rule:evenodd;fill:#CD00FF;}
	.st9{fill-rule:evenodd;clip-rule:evenodd;fill:#FF9700;}
	.st10{fill:#450056;}
	.st11{fill:#70B208;}
	.st12{fill-rule:evenodd;clip-rule:evenodd;fill:#005CFF;}
	.st13{fill-rule:evenodd;clip-rule:evenodd;fill:#00FF73;}
	.st14{fill-rule:evenodd;clip-rule:evenodd;fill:#014422;}
	.st15{fill-rule:evenodd;clip-rule:evenodd;fill:#A58500;}
	.st16{fill-rule:evenodd;clip-rule:evenodd;fill:#FF7300;}
	.st17{fill:#000202;}
	.st18{fill:#005454;}
	.st19{fill:#AB5FBF;}
	.st20{fill:#51531C;}
	.st21{fill:#661B00;}
	.st22{fill:#001E3F;}
	.st23{fill:#C69400;}
	.st24{fill:#009AB0;}
	.st25{fill:#7F0058;}
	.st26{fill:#006060;}
	.st27{fill:#7500FF;}
	.st28{fill:#9CFF00;}
</style>
<g id="Layer_1">
</g>
<g id="Layer_2">
</g>
<g id="Layer_3">
</g>
<g id="Layer_4">
</g>
<g id="Layer_5">
</g>
<g id="Layer_6">
	<g>
		<path class="st9" d="M200.81,104.61c-3.04,0-5.5,2.46-5.5,5.5c0,0.88,0.21,1.71,0.57,2.44l-3.04,1.74
			c-1.02-1.3-2.62-2.14-4.4-2.14c-3.09,0-5.6,2.51-5.6,5.6c0,3.09,2.51,5.6,5.6,5.6c0.43,0,0.84-0.05,1.24-0.14l1.81,4.25
			c-0.91,0.65-1.49,1.72-1.49,2.92c0,1.99,1.61,3.6,3.6,3.6c1.99,0,3.6-1.61,3.6-3.6c0-1.99-1.61-3.6-3.6-3.6
			c-0.15,0-0.3,0.01-0.44,0.03l-1.82-4.26c1.62-0.98,2.71-2.76,2.71-4.79c0-0.67-0.12-1.3-0.33-1.9l3.22-1.84
			c0.99,0.99,2.37,1.6,3.88,1.6c3.04,0,5.5-2.46,5.5-5.5C206.31,107.07,203.85,104.61,200.81,104.61z M161.22,112.15
			c-1.58,0-3.01,0.66-4.03,1.71l-3.19-1.83c0.22-0.6,0.35-1.25,0.35-1.92c0-3.04-2.46-5.5-5.5-5.5c-3.04,0-5.5,2.46-5.5,5.5
			c0,3.04,2.46,5.5,5.5,5.5c1.72,0,3.26-0.79,4.27-2.03l3.05,1.75c-0.35,0.73-0.55,1.55-0.55,2.42c0,1.98,1.03,3.72,2.58,4.72
			l-1.84,4.32c-0.1-0.01-0.2-0.01-0.3-0.01c-1.99,0-3.6,1.61-3.6,3.6c0,1.99,1.61,3.6,3.6,3.6s3.6-1.61,3.6-3.6
			c0-1.25-0.64-2.36-1.61-3l1.79-4.2c0.44,0.11,0.9,0.17,1.38,0.17c3.09,0,5.6-2.51,5.6-5.6
			C166.81,114.65,164.31,112.15,161.22,112.15z"/>
		<path class="st10" d="M210.92,88.47c-1.03-1.84-2.54-2.48-4.6-2.08c-16.99,3.37-26.09,10.72-30.81,27.73
			c-0.22,0.8-0.39,1.65-0.57,2.47c-0.3,1.36-0.59,2.72-0.89,4.07c-0.8,3.59-1.67,7.17-2.7,10.7c-1.15,3.95-2.73,8.75-4.95,12.23
			l-0.57-0.12c-15.85-4.16-26.91-18.53-26.91-34.91c0-5.87,1.41-11.62,4.15-16.81c0.25-0.35,0.27-0.45,0.74-0.34
			c10.6,2.41,19.56,9.54,24.36,19.27c0.6,1.23,1.62,3.62,3,4.11c0.58,0.21,1.19,0.11,1.75-0.1c2.55-0.94,0.62-4.69-0.19-6.19
			c-0.38-0.78-0.78-1.55-1.21-2.31c-6.15-11.01-15.62-17.11-27.8-19.77c-1.92-0.42-3.41-0.12-4.44,1.68
			c-3.58,6.24-5.43,13.26-5.43,20.45c0,19.24,13.38,35.99,32.16,40.17c2.1,0.52,3.65-0.21,4.68-2.05c3.92-7,5.53-12.76,7.14-20.58
			c3.71-17.99,8.55-30.82,28.35-34.73c0.36,0,0.54-0.01,0.73,0.34c2.76,5.2,4.18,10.97,4.18,16.86c0,16.4-11.08,30.77-26.95,34.91
			c-0.85,0.2-1.18-0.08-1.66-0.75c-0.55-0.76-1.02-1.5-1.43-2.34c-0.57-1.17-1.55-1.9-2.88-1.61c-1.54,0.33-2.11,1.75-1.85,3.2
			c0.08,0.45,0.29,0.89,0.52,1.29l2.44,3.53c1.37,1.92,2.53,2.44,4.94,1.89c18.67-4.26,31.93-20.96,31.93-40.11
			C216.15,101.51,214.37,94.62,210.92,88.47z M195.15,87.19c1.47-1.27,1.03-2.74-0.39-3.85c-5.65-4.44-12.58-6.82-19.76-6.82
			c-7.18,0-14.11,2.38-19.76,6.82c-1.42,1.11-1.86,2.58-0.39,3.85c1.27,1.1,3.05,0.57,4.2-0.44c4.64-3.4,10.2-5.21,15.95-5.21
			c5.76,0,11.31,1.81,15.96,5.21C192.1,87.75,193.88,88.29,195.15,87.19z M149.88,82.66c6.75-6.55,15.71-10.18,25.12-10.18
			c9.41,0,18.38,3.63,25.13,10.19c2.68,3.04,7.69,0.66,4.51-2.65c-5.81-6.04-13.25-10.1-21.32-11.76l2.37-4.11
			c1.26,0.15,2.57-0.09,3.75-0.77c2.9-1.67,3.89-5.38,2.22-8.27c-1.67-2.9-5.38-3.89-8.27-2.22c-2.9,1.67-3.89,5.38-2.22,8.27
			c0.12,0.21,0.26,0.42,0.4,0.61l-3.33,5.77c-1.08-0.08-2.16-0.13-3.25-0.13c-1.09,0-2.17,0.04-3.25,0.13l-3.33-5.77
			c0.14-0.19,0.28-0.39,0.4-0.61c1.67-2.9,0.68-6.6-2.22-8.27c-2.9-1.67-6.6-0.68-8.27,2.22c-1.67,2.9-0.68,6.6,2.22,8.27
			c1.18,0.68,2.5,0.92,3.75,0.77l2.38,4.11c-8.07,1.66-15.51,5.72-21.32,11.76C142.18,83.32,147.2,85.71,149.88,82.66z M175,85.51
			c-4.32,0-7.85,0.77-11.53,3.09c-2.66,1.54,0.27,5.84,3.38,3.88c2.52-1.29,5.31-1.94,8.15-1.94c2.84,0,5.63,0.65,8.16,1.95
			c3.1,1.96,6.03-2.34,3.37-3.88C182.85,86.28,179.32,85.51,175,85.51z"/>
	</g>
</g>
<g id="Layer_7">
</g>
<g id="Layer_8">
</g>
<g id="Layer_9">
</g>
<g id="Layer_10">
</g>
<g id="Layer_11">
</g>
<g id="Layer_12">
</g>
<g id="Layer_13">
</g>
<g id="Layer_14">
</g>
<g id="Layer_15">
</g>
</svg>
