<?xml version="1.0" encoding="utf-8"?>
<!-- Generator: Adobe Illustrator 27.8.1, SVG Export Plug-In . SVG Version: 6.00 Build 0)  -->
<svg version="1.1" xmlns="http://www.w3.org/2000/svg" xmlns:xlink="http://www.w3.org/1999/xlink" x="0px" y="0px"
	 viewBox="0 0 350 230" style="enable-background:new 0 0 350 230;" xml:space="preserve">
<style type="text/css">
	.st0{fill:#00D19E;}
	.st1{fill:#002389;}
	.st2{fill:#00079C;}
	.st3{fill:#7F4900;}
	.st4{fill:#014742;}
	.st5{fill:#0019FF;}
	.st6{fill:#00B3F9;}
	.st7{fill:#773000;}
	.st8{fill-rule:evenodd;clip-rule:evenodd;fill:#CD00FF;}
	.st9{fill-rule:evenodd;clip-rule:evenodd;fill:#FF9700;}
	.st10{fill:#450056;}
	.st11{fill:#70B208;}
	.st12{fill-rule:evenodd;clip-rule:evenodd;fill:#005CFF;}
	.st13{fill-rule:evenodd;clip-rule:evenodd;fill:#00FF73;}
	.st14{fill-rule:evenodd;clip-rule:evenodd;fill:#014422;}
	.st15{fill-rule:evenodd;clip-rule:evenodd;fill:#A58500;}
	.st16{fill-rule:evenodd;clip-rule:evenodd;fill:#FF7300;}
	.st17{fill:#000202;}
	.st18{fill:#005454;}
	.st19{fill:#AB5FBF;}
	.st20{fill:#51531C;}
	.st21{fill:#661B00;}
	.st22{fill:#001E3F;}
	.st23{fill:#C69400;}
	.st24{fill:#009AB0;}
	.st25{fill:#7F0058;}
	.st26{fill:#006060;}
	.st27{fill:#7500FF;}
	.st28{fill:#9CFF00;}
</style>
<g id="Layer_1">
</g>
<g id="Layer_2">
</g>
<g id="Layer_3">
</g>
<g id="Layer_4">
</g>
<g id="Layer_5">
</g>
<g id="Layer_6">
</g>
<g id="Layer_7">
	<g>
		<path class="st11" d="M161.63,110.37v-4.44c0-0.59-0.48-1.08-1.08-1.08h-4.44c-0.59,0-1.08,0.48-1.08,1.08v4.44
			c0,0.59,0.48,1.08,1.08,1.08h4.44C161.14,111.44,161.63,110.96,161.63,110.37z M157.11,116c-0.23,0-0.42,0.19-0.42,0.42v1.74
			c0,0.23,0.19,0.42,0.42,0.42h1.74c0.23,0,0.42-0.19,0.42-0.42v-1.74c0-0.23-0.19-0.42-0.42-0.42H157.11z M152.76,77.55h9.38
			c1.25,0,2.27-1.02,2.27-2.27V65.9c0-1.25-1.02-2.27-2.27-2.27h-9.38c-1.25,0-2.27,1.02-2.27,2.27v9.38
			C150.49,76.53,151.51,77.55,152.76,77.55z M153.18,93.28h4.44c0.59,0,1.08-0.48,1.08-1.08v-4.44c0-0.59-0.48-1.08-1.08-1.08h-4.44
			c-0.59,0-1.08,0.48-1.08,1.08v4.44C152.1,92.8,152.58,93.28,153.18,93.28z M155.01,82.83v-2.65c0-0.35-0.29-0.64-0.64-0.64h-2.65
			c-0.35,0-0.64,0.29-0.64,0.64v2.65c0,0.35,0.29,0.64,0.64,0.64h2.65C154.72,83.48,155.01,83.19,155.01,82.83z M172.04,76.74v-3.59
			c0-0.48-0.39-0.87-0.87-0.87h-3.59c-0.48,0-0.87,0.39-0.87,0.87v3.59c0,0.48,0.39,0.87,0.87,0.87h3.59
			C171.65,77.62,172.04,77.22,172.04,76.74z M166.43,61.82h2.45c0.33,0,0.59-0.27,0.59-0.59v-2.45c0-0.33-0.27-0.59-0.59-0.59h-2.45
			c-0.33,0-0.59,0.27-0.59,0.59v2.45C165.84,61.55,166.1,61.82,166.43,61.82z M161.43,83.07v3.23c0,0.43,0.35,0.78,0.78,0.78h3.23
			c0.43,0,0.78-0.35,0.78-0.78v-3.23c0-0.43-0.35-0.78-0.78-0.78h-3.23C161.78,82.28,161.43,82.64,161.43,83.07z M165.56,113.56
			c-0.46,0-0.84,0.38-0.84,0.84v3.48c0,0.46,0.38,0.84,0.84,0.84h3.48c0.46,0,0.84-0.38,0.84-0.84v-3.48c0-0.46-0.38-0.84-0.84-0.84
			H165.56z M135.95,98.91v-3.48c0-0.46-0.38-0.84-0.84-0.84h-3.48c-0.46,0-0.84,0.38-0.84,0.84v3.48c0,0.46,0.38,0.84,0.84,0.84
			h3.48C135.57,99.75,135.95,99.37,135.95,98.91z M168.11,125.46c0-1.6-1.31-2.91-2.91-2.91h-11.99c-1.6,0-2.91,1.31-2.91,2.91
			v11.99c0,1.6,1.31,2.91,2.91,2.91h11.99c1.6,0,2.91-1.31,2.91-2.91V125.46z M146.83,96.37v2.13c0,0.28,0.23,0.51,0.52,0.51h2.12
			c0.28,0,0.52-0.23,0.52-0.51v-2.13c0-0.28-0.23-0.51-0.52-0.51h-2.12C147.06,95.85,146.83,96.08,146.83,96.37z M150.83,104.94
			c0-1.6-1.31-2.91-2.91-2.91h-11.99c-1.6,0-2.91,1.31-2.91,2.91v11.99c0,1.6,1.31,2.91,2.91,2.91h11.99c1.6,0,2.91-1.31,2.91-2.91
			V104.94z M174.78,57.46v2.38h4.01c0.93,0,1.69,0.76,1.69,1.69v6.95c0,0.93-0.76,1.69-1.69,1.69h-0.01
			c0.21-0.25,0.34-0.57,0.34-0.92v-5.88c0-0.78-0.64-1.42-1.42-1.42h-5.88c-0.78,0-1.43,0.64-1.43,1.42v5.88
			c0,0.78,0.64,1.42,1.43,1.42h2.97v13.87c9.59,0,17.36,7.77,17.36,17.36c0,8.59-6.23,15.71-14.42,17.11
			c0.58,0.04,1.04,0.52,1.04,1.11v4.6c0,0.61-0.5,1.11-1.11,1.11h-0.06c0.01-0.06,0.02-0.12,0.02-0.19v-3.48
			c0-0.46-0.38-0.84-0.84-0.84h-3.48c-0.46,0-0.84,0.38-0.84,0.84v3.48c0,0.46,0.38,0.84,0.84,0.84h1.5v2.89
			c0.18-0.08,0.38-0.12,0.59-0.12h6.32c0.84,0,1.53,0.69,1.53,1.53v6.32c0,0.84-0.69,1.53-1.53,1.53h-0.83
			c0.17-0.22,0.28-0.5,0.28-0.8v-5.31c0-0.71-0.58-1.29-1.29-1.29h-5.31c-0.71,0-1.29,0.58-1.29,1.29v5.31
			c0,0.71,0.58,1.29,1.29,1.29h0.25v7.21c24.54,0,44.44-19.9,44.44-44.44C219.22,77.35,199.32,57.46,174.78,57.46z M172.47,140.61
			h-3.64c-0.49,0-0.88,0.4-0.88,0.88v3.64c0,0.49,0.4,0.88,0.88,0.88h3.64c0.49,0,0.88-0.4,0.88-0.88v-3.64
			C173.35,141.01,172.96,140.61,172.47,140.61z M141.11,77.05h2.54c0.34,0,0.61-0.28,0.61-0.61v-2.54c0-0.34-0.28-0.61-0.61-0.61
			h-2.54c-0.34,0-0.62,0.28-0.62,0.61v2.54C140.49,76.77,140.77,77.05,141.11,77.05z M136.76,93.59h8.38c1.12,0,2.03-0.91,2.03-2.03
			v-8.38c0-1.12-0.91-2.03-2.03-2.03h-8.38c-1.12,0-2.03,0.91-2.03,2.03v8.38C134.73,92.68,135.64,93.59,136.76,93.59z
			 M144.56,125.19h-3.48c-0.46,0-0.84,0.38-0.84,0.84v3.48c0,0.46,0.38,0.84,0.84,0.84h3.48c0.46,0,0.84-0.38,0.84-0.84v-3.48
			C145.4,125.57,145.02,125.19,144.56,125.19z"/>
		<path class="st12" d="M209.14,69.28c-1.38-1.37-2.37-2.37-4.49-0.29L177.67,95.5l2.6,3.48l-9.91-7.81
			c-1.61-1.27-3.01-1.06-3.98,0.07l-4.21,4.88c-1.44,1.67-2,3.11,0.27,4.95l10.96,8.87c3.01,2.65,7.73,2.08,10.09-1.1l30.75-30.27
			c2.07-2.04,1.11-3.17-0.3-4.56L209.14,69.28z"/>
	</g>
</g>
<g id="Layer_8">
</g>
<g id="Layer_9">
</g>
<g id="Layer_10">
</g>
<g id="Layer_11">
</g>
<g id="Layer_12">
</g>
<g id="Layer_13">
</g>
<g id="Layer_14">
</g>
<g id="Layer_15">
</g>
</svg>
