<?xml version="1.0" encoding="utf-8"?>
<!-- Generator: Adobe Illustrator 27.8.1, SVG Export Plug-In . SVG Version: 6.00 Build 0)  -->
<svg version="1.1" xmlns="http://www.w3.org/2000/svg" xmlns:xlink="http://www.w3.org/1999/xlink" x="0px" y="0px"
	 viewBox="0 0 350 230" style="enable-background:new 0 0 350 230;" xml:space="preserve">
<style type="text/css">
	.st0{fill:#00D19E;}
	.st1{fill:#002389;}
	.st2{fill:#00079C;}
	.st3{fill:#7F4900;}
	.st4{fill:#014742;}
	.st5{fill:#0019FF;}
	.st6{fill:#00B3F9;}
	.st7{fill:#773000;}
	.st8{fill-rule:evenodd;clip-rule:evenodd;fill:#CD00FF;}
	.st9{fill-rule:evenodd;clip-rule:evenodd;fill:#FF9700;}
	.st10{fill:#450056;}
	.st11{fill:#70B208;}
	.st12{fill-rule:evenodd;clip-rule:evenodd;fill:#005CFF;}
	.st13{fill-rule:evenodd;clip-rule:evenodd;fill:#00FF73;}
	.st14{fill-rule:evenodd;clip-rule:evenodd;fill:#014422;}
	.st15{fill-rule:evenodd;clip-rule:evenodd;fill:#A58500;}
	.st16{fill-rule:evenodd;clip-rule:evenodd;fill:#FF7300;}
	.st17{fill:#000202;}
	.st18{fill:#005454;}
	.st19{fill:#AB5FBF;}
	.st20{fill:#51531C;}
	.st21{fill:#661B00;}
	.st22{fill:#001E3F;}
	.st23{fill:#C69400;}
	.st24{fill:#009AB0;}
	.st25{fill:#7F0058;}
	.st26{fill:#006060;}
	.st27{fill:#7500FF;}
	.st28{fill:#9CFF00;}
</style>
<g id="Layer_1">
</g>
<g id="Layer_2">
</g>
<g id="Layer_3">
</g>
<g id="Layer_4">
</g>
<g id="Layer_5">
</g>
<g id="Layer_6">
</g>
<g id="Layer_7">
</g>
<g id="Layer_8">
	<g>
		<path class="st13" d="M180.99,92.7c1.25-0.6,1.25-1.59,0-2.18l-6.02-2.85l-28.75,0.11c1.64-3.83,4-7.29,6.9-10.2
			c12.65-12.65,33.11-12.64,45.76,0c0.77,0.77,1.5,1.58,2.19,2.43l9.46,0c-1.72-2.9-3.79-5.56-6.16-7.93
			c-15.66-15.66-41.1-15.66-56.76,0c-6.17,6.17-10.33,14.34-11.44,23.46l38.79,0L180.99,92.7z"/>
		<path class="st14" d="M197.04,87.78c-0.6-0.93-1.42-1.73-2.44-2.32c-3.42-1.98-7.8-0.8-9.78,2.62c-1.98,3.42-0.8,7.8,2.62,9.78
			c3.32,1.92,7.54,0.87,9.6-2.32H208c1.55,10.16-1.76,20.44-9.11,27.8c-5,5-11.62,8.37-19,9.25v-16.96c0.93-0.6,1.73-1.42,2.32-2.44
			c1.98-3.42,0.8-7.8-2.62-9.78c-3.42-1.98-7.8-0.8-9.78,2.62c-1.92,3.32-0.87,7.54,2.32,9.6l0,16.96c-7.38-0.89-14-4.26-18.99-9.26
			c-2.67-2.67-4.87-5.8-6.48-9.27c0.21-0.27,0.41-0.55,0.58-0.86c1.98-3.43,0.8-7.8-2.62-9.78c-3.43-1.98-7.8-0.8-9.78,2.62
			c-1.98,3.42-0.8,7.8,2.62,9.78c0.58,0.33,1.18,0.58,1.8,0.74c2.02,4.61,4.88,8.76,8.39,12.27c15.66,15.66,41.1,15.66,56.76,0
			c10.79-10.79,14.47-26.75,9.7-41.06L197.04,87.78L197.04,87.78z M192.71,92.64c-0.54,0.93-1.73,1.25-2.66,0.71
			c-0.93-0.54-1.25-1.73-0.71-2.66c0.54-0.93,1.73-1.25,2.66-0.71C192.93,90.52,193.25,91.71,192.71,92.64z M142.71,110.61
			c-0.54,0.93-1.73,1.25-2.66,0.71c-0.93-0.54-1.25-1.73-0.71-2.66c0.54-0.93,1.73-1.25,2.66-0.71
			C142.93,108.49,143.25,109.68,142.71,110.61z M177.69,110.6c-0.54,0.93-1.73,1.25-2.66,0.71c-0.93-0.54-1.25-1.73-0.71-2.66
			c0.54-0.93,1.73-1.25,2.66-0.71C177.91,108.48,178.23,109.67,177.69,110.6z"/>
	</g>
</g>
<g id="Layer_9">
</g>
<g id="Layer_10">
</g>
<g id="Layer_11">
</g>
<g id="Layer_12">
</g>
<g id="Layer_13">
</g>
<g id="Layer_14">
</g>
<g id="Layer_15">
</g>
</svg>
