<?xml version="1.0" encoding="utf-8"?>
<!-- Generator: Adobe Illustrator 27.8.1, SVG Export Plug-In . SVG Version: 6.00 Build 0)  -->
<svg version="1.1" xmlns="http://www.w3.org/2000/svg" xmlns:xlink="http://www.w3.org/1999/xlink" x="0px" y="0px"
	 viewBox="0 0 350 230" style="enable-background:new 0 0 350 230;" xml:space="preserve">
<style type="text/css">
	.st0{fill:#00D19E;}
	.st1{fill:#002389;}
	.st2{fill:#00079C;}
	.st3{fill:#7F4900;}
	.st4{fill:#014742;}
	.st5{fill:#0019FF;}
	.st6{fill:#00B3F9;}
	.st7{fill:#773000;}
	.st8{fill-rule:evenodd;clip-rule:evenodd;fill:#CD00FF;}
	.st9{fill-rule:evenodd;clip-rule:evenodd;fill:#FF9700;}
	.st10{fill:#450056;}
	.st11{fill:#70B208;}
	.st12{fill-rule:evenodd;clip-rule:evenodd;fill:#005CFF;}
	.st13{fill-rule:evenodd;clip-rule:evenodd;fill:#00FF73;}
	.st14{fill-rule:evenodd;clip-rule:evenodd;fill:#014422;}
	.st15{fill-rule:evenodd;clip-rule:evenodd;fill:#A58500;}
	.st16{fill-rule:evenodd;clip-rule:evenodd;fill:#FF7300;}
	.st17{fill:#000202;}
	.st18{fill:#005454;}
	.st19{fill:#AB5FBF;}
	.st20{fill:#51531C;}
	.st21{fill:#661B00;}
	.st22{fill:#001E3F;}
	.st23{fill:#C69400;}
	.st24{fill:#009AB0;}
	.st25{fill:#7F0058;}
	.st26{fill:#006060;}
	.st27{fill:#7500FF;}
	.st28{fill:#9CFF00;}
</style>
<g id="Layer_1">
</g>
<g id="Layer_2">
</g>
<g id="Layer_3">
</g>
<g id="Layer_4">
</g>
<g id="Layer_5">
</g>
<g id="Layer_6">
</g>
<g id="Layer_7">
</g>
<g id="Layer_8">
</g>
<g id="Layer_9">
	<path class="st15" d="M155.81,68.07c1.69,0,3.06,1.37,3.06,3.06c0,0.54-0.14,1.05-0.39,1.49l17.17,22.1l-6.14-22.45
		c-1.45-0.24-2.56-1.5-2.56-3.01c0-0.94,0.43-1.78,1.1-2.34l-1.99-7.28L166,59.64c-4.75,1.3-9,3.53-12.59,6.46l1.61,2.07
		C155.27,68.1,155.53,68.07,155.81,68.07z M173.05,69.25c0,1.04-0.52,1.96-1.32,2.51l5.29,19.4l3.81-21.09
		c-0.85-0.54-1.42-1.5-1.42-2.58c0-1.47,1.04-2.7,2.43-2.99l0.93-5.17c-4.64-1.09-9.56-1.21-14.49-0.22l1.94,7.1
		C171.81,66.31,173.05,67.64,173.05,69.25z M183.31,70.42l-3.66,19.05l7.58-8.98c-0.24-0.44-0.38-0.94-0.38-1.48
		c0-1.69,1.37-3.06,3.06-3.06c0.35,0,0.69,0.06,1,0.17l7.28-8.64c-3.69-3.4-8.1-5.95-12.88-7.46l-0.97,5.05
		c0.72,0.56,1.18,1.43,1.18,2.41C185.52,68.88,184.59,70.06,183.31,70.42z M192.96,79.01c0,1.69-1.37,3.06-3.06,3.06
		c-0.39,0-0.77-0.07-1.12-0.21l-5.8,6.27l16.22-4.07c0.2-1.49,1.48-2.64,3.03-2.64c1.02,0,1.92,0.5,2.48,1.26l2.81-0.7
		c-1.56-4.77-4.09-8.98-7.31-12.47l-7.56,8.17C192.85,78.08,192.96,78.53,192.96,79.01z M208.32,84.83l-3.17,0.58
		c-0.39,1.23-1.55,2.12-2.91,2.12c-0.97,0-1.83-0.45-2.39-1.15l-13.93,2.54l8.45,3.91c0.56-0.72,1.44-1.19,2.42-1.19
		c1.69,0,3.06,1.37,3.06,3.06c0,0.22-0.02,0.43-0.07,0.64l8.8,4.07C209.51,94.71,209.48,89.76,208.32,84.83z M196.78,97.74
		c-1.69,0-3.06-1.37-3.06-3.06l0-0.06l-5.78-2.97l10.45,12.44c0.24-0.06,0.5-0.1,0.76-0.1c1.69,0,3.06,1.37,3.06,3.06
		c0,0.45-0.1,0.88-0.27,1.26l2.08,2.47c1.71-2.74,3.04-5.72,3.92-8.85l-9.35-4.8C198.09,97.52,197.46,97.74,196.78,97.74z
		 M199.17,110.11c-1.69,0-3.06-1.37-3.06-3.06c0-0.62,0.18-1.19,0.5-1.67L190.07,97l8.42,20.57c1.49-1.4,2.84-2.93,4.04-4.57
		l-2.37-3.05C199.85,110.06,199.51,110.11,199.17,110.11z M180.57,121.53l-3.26-11.97c-3.75,0.56-7.34-0.15-10.78-2.11
		c-4.1-2.34-6.76-5.77-7.99-10.3c-1.24-4.54-0.68-8.84,1.66-12.91c0.66-1.15,1.4-2.18,2.23-3.1l-5.56-7.15
		c-0.33,0.12-0.69,0.19-1.07,0.19c-1.69,0-3.06-1.37-3.06-3.06c0-0.65,0.2-1.25,0.54-1.74l-1.48-1.9
		c-9.1,8.39-13.32,21.43-9.84,34.19c2.58,9.46,8.88,16.9,16.9,21.19c0.73-0.81,1.79-1.32,2.97-1.32L180.57,121.53L180.57,121.53z
		 M187.92,123.57h-26.08c-1.08,0-1.96,0.88-1.96,1.96s0.88,1.96,1.96,1.96h26.08c1.08,0,1.96-0.88,1.96-1.96
		S189,123.57,187.92,123.57z M174.89,144.85c6.44,0,11.66-4.86,11.66-10.85h-23.31C163.23,139.99,168.45,144.85,174.89,144.85z
		 M187.92,128.67h-26.08c-1.08,0-1.96,0.88-1.96,1.96c0,1.08,0.88,1.96,1.96,1.96h26.08c1.08,0,1.96-0.88,1.96-1.96
		C189.89,129.56,189,128.67,187.92,128.67z"/>
</g>
<g id="Layer_10">
</g>
<g id="Layer_11">
</g>
<g id="Layer_12">
</g>
<g id="Layer_13">
</g>
<g id="Layer_14">
</g>
<g id="Layer_15">
</g>
</svg>
