<?xml version="1.0" encoding="utf-8"?>
<!-- Generator: Adobe Illustrator 27.8.1, SVG Export Plug-In . SVG Version: 6.00 Build 0)  -->
<svg version="1.1" xmlns="http://www.w3.org/2000/svg" xmlns:xlink="http://www.w3.org/1999/xlink" x="0px" y="0px"
	 viewBox="0 0 350 230" style="enable-background:new 0 0 350 230;" xml:space="preserve">
<style type="text/css">
	.st0{fill:#1C75BC;stroke:#F1F2F2;stroke-miterlimit:10;}
	.st1{fill:#FFFFFF;stroke:#F1F2F2;stroke-miterlimit:10;}
	.st2{fill:#FFC648;stroke:#F1F2F2;stroke-miterlimit:10;}
	.st3{fill:#32D3F3;}
	.st4{fill:#825300;}
	.st5{fill:#AF2300;}
	.st6{fill:#AE6529;}
	.st7{fill:#A09F47;}
	.st8{fill:#003D50;}
	.st9{fill:#821600;}
	.st10{fill:#660C02;}
	.st11{fill:#974200;}
	.st12{fill:#725200;}
	.st13{fill:#AA5B08;}
	.st14{fill:#2B3990;}
	.st15{fill:#877F00;}
	.st16{fill:#9F00FF;}
	.st17{fill:#15FF00;}
	.st18{fill:#8D6195;}
	.st19{fill:#FFBA7B;}
	.st20{fill:#40006D;}
	.st21{fill:#074C00;}
	.st22{fill:#012A3F;}
</style>
<g id="Layer_1">
</g>
<g id="Layer_2">
</g>
<g id="Layer_3">
</g>
<g id="Layer_4">
</g>
<g id="Layer_5">
</g>
<g id="Layer_6">
</g>
<g id="Layer_7">
</g>
<g id="Layer_8">
</g>
<g id="Layer_9">
</g>
<g id="Layer_10">
	<g>
		<path class="st17" d="M174.5,104.19c-5.17-0.51-11.75-1.12-18.31-1.84c-2.48-0.27-2.64-0.85-1.37-3.03
			c4.04-6.96,5.86-14.48,5.08-22.5c-0.43-4.43-2.35-7.98-6.99-9.5c-0.63-0.21-1.36-1.31-1.36-2c0-6.49,1.05-12.81,3.77-18.74
			c0.36-0.78,1.24-1.68,2.02-1.84c11.2-2.29,22.43-3.16,33.72-0.47c1.64,0.39,2.52,1.16,3.18,2.74c2.37,5.75,3.38,11.74,3.57,17.91
			c0.04,1.32-0.36,2.17-1.72,2.58c-3.61,1.11-5.59,3.77-6.34,7.31c-1.49,7.09-0.06,13.85,2.62,20.42c0.55,1.34,1.24,2.63,1.92,3.92
			c0.88,1.68,0.76,2.27-1.1,2.75c-2.69,0.69-5.43,1.29-8.19,1.63C182.01,103.91,178.96,103.93,174.5,104.19z M174.3,54.77
			c-3.07-4.62-7.79-5.36-11.42-1.89c-3.38,3.23-3.2,8.68,0.38,10.91c2.12,1.33,5.02,0.89,6.1-1.1c0.36-0.67,0.13-1.66,0.17-2.51
			c-0.65,0.24-1.28,0.51-1.95,0.7c-0.88,0.25-1.97,0.84-2.62,0.54c-0.77-0.35-1.51-1.46-1.65-2.33c-0.32-2.07,0.58-3.8,2.35-4.97
			c2.26-1.5,4.65-0.88,5.73,1.61c0.51,1.19,0.82,2.56,0.86,3.86c0.31,11.76,0.52,23.52,0.8,35.28c0.04,1.63,0.19,3.27,0.43,4.88
			c0.06,0.4,0.66,0.71,1.01,1.06c0.28-0.4,0.64-0.77,0.8-1.22c0.13-0.38,0.02-0.84,0.02-1.26c-0.05-12.62-0.2-25.23-0.06-37.85
			c0.02-1.96,0.92-4.2,2.1-5.81c2.17-2.97,6.87-2.52,8.69,0.51c1.26,2.11,0.45,5.02-1.64,5.92c-0.95,0.41-1.64,0.39-2.25-0.7
			c-0.31-0.55-1.36-1.18-1.86-1.04c-1.1,0.32-1.17,1.35-0.79,2.41c1.01,2.76,4.37,3.59,6.98,1.69c2.58-1.88,3.7-5.2,2.77-8.24
			c-0.9-2.95-3.82-5.11-6.97-5.21C178.66,49.93,176.18,51.72,174.3,54.77z M214.82,123.43c0.03,1.08-1.11,1.21-2.2,1.46
			c-4.66,1.09-9.36,2.01-13.94,3.36c-7.49,2.21-14.43,5.68-20.89,10.07c-1.6,1.09-3.01,1.07-4.56,0.22
			c-0.96-0.52-1.92-1.06-2.79-1.7c-6.87-5.05-14.8-7.05-23.06-8.08c-4.09-0.51-8.2-0.81-12.29-1.31c-2.2-0.27-2.7-1.07-2.34-3.18
			c1.21-6.93,2.42-13.85,3.63-20.77c0.43-2.42,0.9-2.77,3.12-1.92c5.85,2.27,12.07,2.54,18.17,3.46c8.05,1.21,16.16,2.13,24.28,1.14
			c5.7-0.69,11.33-1.96,16.97-3.06c3.2-0.62,6.37-1.44,9.55-2.14c1.37-0.3,2.08,0.53,2.35,1.7c0.89,3.89,1.77,7.79,2.54,11.71
			C213.92,117.23,214.29,120.12,214.82,123.43z M174.06,119.77c1.97,2.66,2.68,3.23,5.93,4.18c4.4,1.28,8.85,1.27,12.96-0.75
			c2.44-1.2,4.79-2.9,6.64-4.88c2.03-2.19,1.09-5.45-1.59-6.71c-2.66-1.25-5.54-1.63-8.27-0.37c-1.17,0.54-2.33,1.62-2.92,2.75
			c-1.12,2.15,0.81,4.88,3.11,4.65c0.48-0.05,1.1-0.5,1.3-0.93c0.12-0.25-0.41-0.87-0.73-1.25c-0.38-0.46-1.3-1.04-1.21-1.22
			c0.3-0.66,0.86-1.58,1.43-1.66c1.58-0.23,3.24-0.29,4.81-0.03c0.87,0.14,2.12,0.96,2.27,1.66c0.18,0.85-0.56,1.95-1.05,2.86
			c-0.24,0.44-0.79,0.74-1.25,1.04c-3.74,2.42-7.84,3.62-12.28,3.05c-3.23-0.41-6.31-1.33-8.1-4.51c-0.15-0.26-1.24-0.36-1.55-0.1
			c-4.12,3.32-9.02,4.1-14.04,4.13c-2.62,0.01-5.31-0.47-7.86-1.12c-2.06-0.52-3.15-2.4-2.97-4.07c0.18-1.63,2.03-3.49,3.9-3.49
			c0.83,0,2.03,0.64,2.4,1.34c0.58,1.09-0.51,1.45-1.45,1.73c-0.44,0.13-0.79,0.6-1.17,0.92c0.41,0.4,0.85,1.16,1.24,1.14
			c1.02-0.06,2.34-0.17,2.93-0.81c0.71-0.77,1.18-2.17,1.06-3.21c-0.27-2.31-2.46-3.75-4.92-3.64c-2.69,0.12-5.34,2.14-6.13,4.69
			c-0.8,2.56-0.04,5.35,2.56,6.76c2.16,1.18,4.71,1.99,7.16,2.25C162.59,124.82,168.68,123.91,174.06,119.77z"/>
		<path d="M180.6,140.95c0.99-0.82,1.9-1.77,2.99-2.43c8.48-5.07,17.61-8.33,27.4-9.66c0.67-0.09,1.4,0.22,2.11,0.34
			c-0.66,0.34-1.3,0.89-2,0.99c-9.36,1.34-18.09,4.46-26.25,9.21c-1.27,0.74-2.59,1.39-3.88,2.09
			C180.85,141.32,180.72,141.13,180.6,140.95z M199.27,100.09c-0.31-0.67-0.61-1.35-0.95-2.01c-2.82-5.48-4.5-11.24-4.21-17.46
			c0.16-3.31,0.96-6.35,4.01-8.32c0.39-0.25,0.55-0.85,0.82-1.28c-0.55,0.04-1.2-0.09-1.64,0.15c-2.59,1.45-3.8,3.87-4.19,6.67
			c-1.04,7.61,0.55,14.68,4.65,21.18c0.3,0.47,0.71,0.88,1.06,1.32C198.98,100.27,199.13,100.18,199.27,100.09z M143.24,131.42
			c8.44,0.5,15.72,4.12,22.75,8.44C163.49,134.71,150.8,130.28,143.24,131.42z M197.49,45.11c1.35,6.26,2.71,12.57,4.04,18.77
			C202.71,59.78,199.8,46.26,197.49,45.11z M213.75,103.98c0.67,5.02,1.59,9.99,2.67,14.92c0.31-0.06,0.63-0.13,0.94-0.19
			c-0.98-4.96-1.95-9.91-2.93-14.87C214.2,103.89,213.97,103.93,213.75,103.98z"/>
	</g>
</g>
<g id="Layer_11">
</g>
<g id="Layer_12">
</g>
<g id="Layer_13">
</g>
<g id="Layer_14">
</g>
<g id="Layer_15">
</g>
</svg>
