<?xml version="1.0" encoding="utf-8"?>
<!-- Generator: Adobe Illustrator 27.8.1, SVG Export Plug-In . SVG Version: 6.00 Build 0)  -->
<svg version="1.1" xmlns="http://www.w3.org/2000/svg" xmlns:xlink="http://www.w3.org/1999/xlink" x="0px" y="0px"
	 viewBox="0 0 350 230" style="enable-background:new 0 0 350 230;" xml:space="preserve">
<style type="text/css">
	.st0{fill:#1C75BC;stroke:#F1F2F2;stroke-miterlimit:10;}
	.st1{fill:#FFFFFF;stroke:#F1F2F2;stroke-miterlimit:10;}
	.st2{fill:#FFC648;stroke:#F1F2F2;stroke-miterlimit:10;}
	.st3{fill:#32D3F3;}
	.st4{fill:#825300;}
	.st5{fill:#AF2300;}
	.st6{fill:#AE6529;}
	.st7{fill:#A09F47;}
	.st8{fill:#003D50;}
	.st9{fill:#821600;}
	.st10{fill:#660C02;}
	.st11{fill:#974200;}
	.st12{fill:#725200;}
	.st13{fill:#AA5B08;}
	.st14{fill:#2B3990;}
	.st15{fill:#877F00;}
	.st16{fill:#9F00FF;}
	.st17{fill:#15FF00;}
	.st18{fill:#8D6195;}
	.st19{fill:#FFBA7B;}
	.st20{fill:#40006D;}
	.st21{fill:#074C00;}
	.st22{fill:#012A3F;}
</style>
<g id="Layer_1">
</g>
<g id="Layer_2">
</g>
<g id="Layer_3">
</g>
<g id="Layer_4">
</g>
<g id="Layer_5">
</g>
<g id="Layer_6">
</g>
<g id="Layer_7">
</g>
<g id="Layer_8">
</g>
<g id="Layer_9">
</g>
<g id="Layer_10">
</g>
<g id="Layer_11">
	<g>
		<path class="st18" d="M166.25,55.52c5.36-1.41,10.34-3.09,14.41-6.75c2.61-2.35,5.28-2.54,7.84-0.64c2.66,1.98,2.89,4.44,1.7,7.84
			c-2.92,8.33-7.49,15.61-13.29,22.19c-0.16,0.18-0.22,0.45-0.46,0.99c3.46-0.92,6.65-1.71,9.81-2.62c2.02-0.58,3.97-0.9,5.57,0.82
			c1.76,1.91,2.28,4.41,1.08,6.53c-1.63,2.89-3.68,5.65-6.01,8.02c-2.79,2.84-6.05,5.2-9.11,7.77c-0.57,0.47-1.13,0.95-1.55,1.73
			c3.32-0.75,6.64-1.51,9.96-2.22c0.94-0.2,1.91-0.36,2.86-0.37c2.18-0.03,4.23,1.44,4.89,3.49c0.69,2.15-0.35,3.42-1.97,4.89
			c-4.37,3.99-8.45,8.3-12.63,12.5c-1.73,1.74-3.43,3.53-5.35,5.51c16.55-2.45,30.89-16.97,33.1-33.06
			c1.36-9.87-0.12-19.5-2.22-29.09c-0.33-1.52-0.68-3.04-1.1-4.93c0.56,0.33,0.92,0.41,1.02,0.62c5.34,10.83,9.67,21.95,9.6,34.28
			c-0.04,8.12-2.5,15.42-7.52,21.85c-5.04,6.46-10.71,12.21-18.04,16.24c0.44,1.5,0.85,2.87,1.25,4.25c0.96,3.31-0.61,6.38-3.69,7.2
			c-3.16,0.84-6.3-1.04-7.12-4.24c-0.22-0.85-0.54-1.68-0.77-2.39c-5.23,1.25-10.29,2.5-15.37,3.64c-2.15,0.48-4.34,0.78-6.53,1.02
			c-3.22,0.36-4.74-0.36-5.73-2.51c-1.12-2.42-0.55-5.61,1.47-7.43c5.78-5.21,11.6-10.38,17.41-15.56c0.66-0.59,1.33-1.15,1.87-2.13
			c-1.5,0.16-2.99,0.36-4.49,0.48c-4.74,0.36-9.47,0.78-14.22,0.99c-3.16,0.14-4.87-2.31-3.97-5.39c0.75-2.54,2.64-4.11,4.7-5.56
			c4.85-3.4,9.68-6.83,14.51-10.26c0.54-0.39,1.04-0.85,1.42-1.65c-2.69,0.54-5.38,1.07-8.07,1.61c-1.96,0.39-3.91,0.8-5.87,1.18
			c-2.51,0.49-4.44-0.34-5.61-2.41c-1.26-2.22-1.11-4.79,0.72-6.46c1.92-1.76,4-3.38,6.16-4.85c5.23-3.57,9.68-7.94,13.71-12.78
			c0.47-0.56,0.87-1.17,1.55-2.11c-12.76,2.86-23.74,7.78-30.81,18.91c-6.9,10.85-7.74,22.82-5.8,35.74
			c-0.58-0.63-0.83-0.77-0.89-0.98c-5.13-15.39-5.22-30.47,3.17-44.86c3.83-6.57,9.11-11.74,16.14-14.91
			c1.14-0.51,1.56-1.02,1.12-2.32c-0.75-2.21-1.28-4.5-1.9-6.75c-0.96-3.53,0.51-6.11,4.04-7.1c3.36-0.94,5.96,0.54,6.91,4
			C164.87,50.07,165.52,52.73,166.25,55.52z M194.97,132.4c0.85-0.52,1.73-0.99,2.54-1.56c9.78-6.93,16.33-16.22,19.8-27.64
			c2.09-6.87,2.08-13.83,0.07-20.75c-0.16-0.55-0.72-0.99-1.09-1.48c-0.07,0.59-0.32,1.23-0.18,1.76
			c1.53,5.68,1.77,11.38,0.62,17.16c-1.78,8.94-6.22,16.38-12.65,22.72c-3.16,3.11-6.36,6.18-9.55,9.26
			C194.68,132.05,194.83,132.22,194.97,132.4z M156.34,74.53c-11.51,5.99-21.45,24.67-17.95,37.36c0.4-3.18,0.62-6.03,1.16-8.82
			c0.53-2.76,1.18-5.53,2.15-8.16c1-2.69,2.24-5.35,3.76-7.78c1.48-2.38,3.3-4.58,5.23-6.62c1.89-2,4.1-3.69,6.17-5.52
			C156.68,74.85,156.51,74.69,156.34,74.53z M191.67,57.91c-2.97,5.58-5.93,11.16-9.14,17.2c5.25-4.95,8.3-10.51,9.75-16.93
			C192.08,58.09,191.88,58,191.67,57.91z M159.96,144.87c5.96,0.21,11.3-1.74,16.44-4.37c-0.09-0.33-0.19-0.66-0.28-0.99
			c-5.44,1.6-10.87,3.2-16.31,4.79C159.86,144.49,159.91,144.68,159.96,144.87z M209.88,63.01c1.76,4.23,3.46,8.34,5.33,12.84
			C215.52,71.81,212.24,64.01,209.88,63.01z"/>
	</g>
</g>
<g id="Layer_12">
</g>
<g id="Layer_13">
</g>
<g id="Layer_14">
</g>
<g id="Layer_15">
</g>
</svg>
