<?xml version="1.0" encoding="utf-8"?>
<!-- Generator: Adobe Illustrator 27.8.1, SVG Export Plug-In . SVG Version: 6.00 Build 0)  -->
<svg version="1.1" xmlns="http://www.w3.org/2000/svg" xmlns:xlink="http://www.w3.org/1999/xlink" x="0px" y="0px"
	 viewBox="0 0 350 230" style="enable-background:new 0 0 350 230;" xml:space="preserve">
<style type="text/css">
	.st0{fill:#1C75BC;stroke:#F1F2F2;stroke-miterlimit:10;}
	.st1{fill:#FFFFFF;stroke:#F1F2F2;stroke-miterlimit:10;}
	.st2{fill:#FFC648;stroke:#F1F2F2;stroke-miterlimit:10;}
	.st3{fill:#32D3F3;}
	.st4{fill:#825300;}
	.st5{fill:#AF2300;}
	.st6{fill:#AE6529;}
	.st7{fill:#A09F47;}
	.st8{fill:#003D50;}
	.st9{fill:#821600;}
	.st10{fill:#660C02;}
	.st11{fill:#974200;}
	.st12{fill:#725200;}
	.st13{fill:#AA5B08;}
	.st14{fill:#2B3990;}
	.st15{fill:#877F00;}
	.st16{fill:#9F00FF;}
	.st17{fill:#15FF00;}
	.st18{fill:#8D6195;}
	.st19{fill:#FFBA7B;}
	.st20{fill:#40006D;}
	.st21{fill:#074C00;}
	.st22{fill:#012A3F;}
</style>
<g id="Layer_1">
</g>
<g id="Layer_2">
</g>
<g id="Layer_3">
</g>
<g id="Layer_4">
</g>
<g id="Layer_5">
</g>
<g id="Layer_6">
</g>
<g id="Layer_7">
</g>
<g id="Layer_8">
</g>
<g id="Layer_9">
</g>
<g id="Layer_10">
</g>
<g id="Layer_11">
</g>
<g id="Layer_12">
	<path class="st19" d="M136.9,117.03c0.66-0.62,0.92-0.95,1.25-1.15c3.69-2.28,7.39-4.56,11.11-6.8c0.31-0.18,0.82-0.02,1.24-0.01
		c-0.16,0.34-0.24,0.83-0.51,0.99c-3.79,2.24-7.61,4.43-11.43,6.61C138.24,116.86,137.8,116.85,136.9,117.03z M195.59,77.21
		c-6.24-9.55-12.46-19.1-18.71-28.64c-2.13-3.24-2.79-3.25-4.96,0.05c-4.72,7.17-9.4,14.37-14.09,21.55
		c-1.87,2.87-3.74,5.74-5.67,8.72c-0.76-0.39-1.41-0.71-2.05-1.05c-5.13-2.75-10.28-5.47-15.38-8.27c-1.15-0.63-2.13-0.94-3.11,0.16
		c-1,1.13-0.94,2.17-0.08,3.45c3.77,5.67,7.39,11.43,11.19,17.08c0.89,1.32,0.73,2.19-0.08,3.4c-3.83,5.77-7.54,11.62-11.37,17.4
		c-0.85,1.28-0.45,2.35,0.46,3.06c0.6,0.47,1.88,0.63,2.57,0.32c2.61-1.2,5.1-2.66,7.64-4.02c3.38-1.82,6.75-3.64,10.18-5.48
		c0.66,1,1.21,1.81,1.74,2.63c6.18,9.44,12.34,18.89,18.54,28.31c1.59,2.41,2.5,2.38,4.13-0.07c3.82-5.78,7.62-11.57,11.41-17.37
		c2.91-4.45,5.81-8.92,8.77-13.49c0.81,0.42,1.51,0.77,2.21,1.14c5.13,2.76,10.26,5.5,15.37,8.29c1.11,0.61,2.07,0.78,2.96-0.25
		c0.89-1.03,1.05-2.02,0.2-3.3c-3.87-5.82-7.61-11.72-11.48-17.54c-0.7-1.05-0.66-1.73,0.02-2.76c3.89-5.88,7.67-11.83,11.57-17.71
		c0.84-1.27,0.44-2.2-0.36-3.12c-0.81-0.94-1.74-0.86-2.8-0.27c-2.62,1.47-5.28,2.86-7.93,4.28c-3.18,1.71-6.36,3.41-9.71,5.21
		C196.28,78.21,195.93,77.72,195.59,77.21z M181.6,95.04c-0.12,0.22-0.25,0.44-0.37,0.65c3.6,2.56,7.63,4.48,11.64,7.11
		c-6.06,9.88-12.08,19.7-18.1,29.52c-0.23,0-0.46,0-0.69,0c-6-9.79-12-19.57-18.12-29.55c4.06-2.43,7.9-4.73,11.74-7.03
		c-0.12-0.25-0.24-0.5-0.36-0.74c-4.17,1.83-8.33,3.65-12.6,5.52c-1.74-2.79-3.43-5.41-5.01-8.09c-0.19-0.33,0.01-1.04,0.25-1.45
		c1.28-2.16,2.68-4.25,3.93-6.43c0.58-1.02,1.11-1.19,2.18-0.69c3.1,1.46,6.26,2.81,9.4,4.18c0.63,0.28,1.29,0.49,1.94,0.73
		c0.1-0.21,0.21-0.42,0.31-0.63c-3.82-2.3-7.64-4.6-11.76-7.09c6.05-9.88,12.04-19.67,18.04-29.46c0.24-0.04,0.48-0.08,0.72-0.12
		c6.02,9.81,12.03,19.62,18.14,29.58c-4.07,2.44-7.89,4.74-11.72,7.03c0.12,0.24,0.25,0.49,0.37,0.73c4.13-1.81,8.25-3.61,12.56-5.5
		c1.7,2.72,3.4,5.39,5.03,8.09c0.17,0.27,0.1,0.85-0.08,1.15c-1.58,2.62-3.21,5.2-4.95,7.98C189.82,98.66,185.71,96.85,181.6,95.04z
		 M138.18,75.79c0.09-0.13,0.18-0.27,0.26-0.4c3.96,1.94,7.92,3.88,12.14,5.95c-1.35,2.09-2.62,4.05-4,6.18
		C143.7,83.48,140.94,79.64,138.18,75.79z M202.27,96.34c2.93,4.08,5.72,7.97,8.51,11.86c-0.07,0.12-0.14,0.24-0.22,0.35
		c-4.04-1.99-8.09-3.98-12.29-6.05C199.66,100.37,200.9,98.45,202.27,96.34z M146.59,96.34c1.35,2.08,2.6,4.01,3.99,6.16
		c-4.19,2.07-8.25,4.07-12.31,6.07c-0.07-0.11-0.14-0.22-0.22-0.33C140.85,104.33,143.65,100.44,146.59,96.34z M198.28,81.35
		c4.21-2.08,8.23-4.06,12.24-6.04c0.09,0.11,0.18,0.21,0.27,0.32c-2.78,3.88-5.55,7.75-8.52,11.89
		C200.89,85.39,199.65,83.47,198.28,81.35z M180.41,136.75c0.51-1,0.96-2.03,1.55-2.98c4.69-7.6,9.4-15.18,14.1-22.77
		c0.13-0.21,0.22-0.47,0.4-0.61c0.43-0.32,0.91-0.58,1.37-0.87c-0.05,0.52,0.08,1.15-0.16,1.55c-1.46,2.41-2.99,4.77-4.51,7.13
		c-3.27,5.09-6.55,10.19-9.84,15.27c-0.78,1.21-1.65,2.36-2.47,3.54C180.7,136.92,180.56,136.83,180.41,136.75z M198.51,74.74
		c-1.86-0.42-18.84-26.17-19.18-28.34c0.14-0.09,0.28-0.19,0.42-0.28C185.91,55.52,192.08,64.93,198.51,74.74z M219.19,77.11
		c-3.08,5.08-6.15,10.16-9.23,15.24c-0.25-0.15-0.49-0.29-0.74-0.44c2.99-5.13,5.97-10.26,8.96-15.39
		C218.52,76.71,218.86,76.91,219.19,77.11z M196.41,66.39c-3.32-4.8-6.64-9.6-9.97-14.4c0.15-0.1,0.29-0.2,0.44-0.31
		c3.87,4.42,7.11,9.27,10.01,14.37C196.74,66.16,196.58,66.28,196.41,66.39z"/>
</g>
<g id="Layer_13">
</g>
<g id="Layer_14">
</g>
<g id="Layer_15">
</g>
</svg>
