<?xml version="1.0" encoding="utf-8"?>
<!-- Generator: Adobe Illustrator 27.8.1, SVG Export Plug-In . SVG Version: 6.00 Build 0)  -->
<svg version="1.1" xmlns="http://www.w3.org/2000/svg" xmlns:xlink="http://www.w3.org/1999/xlink" x="0px" y="0px"
	 viewBox="0 0 350 230" style="enable-background:new 0 0 350 230;" xml:space="preserve">
<style type="text/css">
	.st0{fill:#1C75BC;stroke:#F1F2F2;stroke-miterlimit:10;}
	.st1{fill:#FFFFFF;stroke:#F1F2F2;stroke-miterlimit:10;}
	.st2{fill:#FFC648;stroke:#F1F2F2;stroke-miterlimit:10;}
	.st3{fill:#32D3F3;}
	.st4{fill:#825300;}
	.st5{fill:#AF2300;}
	.st6{fill:#AE6529;}
	.st7{fill:#A09F47;}
	.st8{fill:#003D50;}
	.st9{fill:#821600;}
	.st10{fill:#660C02;}
	.st11{fill:#974200;}
	.st12{fill:#725200;}
	.st13{fill:#AA5B08;}
	.st14{fill:#2B3990;}
	.st15{fill:#877F00;}
	.st16{fill:#9F00FF;}
	.st17{fill:#15FF00;}
	.st18{fill:#8D6195;}
	.st19{fill:#FFBA7B;}
	.st20{fill:#40006D;}
	.st21{fill:#074C00;}
	.st22{fill:#012A3F;}
</style>
<g id="Layer_1">
</g>
<g id="Layer_2">
</g>
<g id="Layer_3">
</g>
<g id="Layer_4">
</g>
<g id="Layer_5">
</g>
<g id="Layer_6">
</g>
<g id="Layer_7">
</g>
<g id="Layer_8">
</g>
<g id="Layer_9">
</g>
<g id="Layer_10">
</g>
<g id="Layer_11">
</g>
<g id="Layer_12">
</g>
<g id="Layer_13">
	<path class="st20" d="M228.54,143.57c-0.51-0.29-1.91-0.68-2.61-1.61c-0.96-1.26-2-1.46-3.37-1.4c-7.58,0.34-15.16,0.62-22.73,1
		c-0.65,0.03-1.41,0.49-1.89,0.98c-2.61,2.73-5.12,2.77-7.81,0.17c-0.53-0.51-1.44-0.87-2.18-0.87c-8.67,0.03-17.34,0.11-26.01,0.26
		c-0.75,0.01-1.61,0.44-2.2,0.93c-2.57,2.14-4.83,2.1-7.18-0.11c-0.5-0.47-1.28-0.87-1.94-0.88c-8.05-0.18-16.1-0.33-24.15-0.33
		c-0.88,0-1.86,0.81-2.62,1.46c-1.93,1.66-4.59,1.9-6.38,0.43c-1.83-1.5-2.37-4.57-0.8-6.49c0.79-0.96,2.21-1.8,3.42-1.93
		c1.34-0.13,2.04-0.47,2.69-1.62c3.88-6.87,7.87-13.68,11.71-20.58c0.43-0.77,0.47-2.01,0.19-2.89c-1.06-3.38,0.72-6.32,4.17-6.79
		c0.69-0.09,1.55-0.62,1.89-1.21c3.81-6.55,7.57-13.14,11.25-19.77c0.36-0.65,0.37-1.76,0.09-2.47c-1.52-3.74,0.37-6.91,4.35-7.26
		c0.61-0.05,1.41-0.56,1.73-1.1c4.08-6.93,8.12-13.89,12.08-20.9c0.36-0.64,0.32-1.72,0.07-2.45c-0.81-2.29-0.34-4.8,1.36-6.15
		c1.6-1.27,4.02-1.24,5.86,0.06c1.81,1.29,2.23,3.31,1.43,5.83c-0.22,0.68-0.18,1.68,0.17,2.28c4.05,6.95,8.15,13.87,12.32,20.76
		c0.37,0.62,1.21,1.12,1.94,1.33c3.58,1.03,4.74,3.09,3.7,6.63c-0.19,0.63-0.13,1.53,0.2,2.09c4.09,7.11,8.21,14.2,12.42,21.24
		c0.42,0.71,1.45,1.29,2.29,1.48c3.96,0.85,5.39,3.49,3.87,7.2c-0.24,0.58-0.18,1.5,0.13,2.04c3.79,6.66,7.61,13.29,11.55,19.86
		c0.4,0.66,1.54,1.03,2.41,1.24c3,0.72,4.51,2.46,4.28,5.15C234.01,141.63,231.91,143.51,228.54,143.57z M192.98,107.71
		c0-0.02,0-0.03,0-0.05c4.02,0,8.05,0.01,12.07-0.01c2.54-0.01,3.75-2.11,2.48-4.3c-3.92-6.76-7.85-13.51-11.8-20.25
		c-1.27-2.16-4.25-2.28-5.52-0.13c-4,6.8-7.94,13.63-11.85,20.48c-1.09,1.91,0.33,4.23,2.54,4.24
		C184.93,107.74,188.96,107.71,192.98,107.71z M175.28,139.72c0-0.11,0-0.21,0-0.32c4.17,0,8.35,0.03,12.52-0.01
		c1.75-0.02,3.13-2.63,2.18-4.13c-4.43-6.99-8.88-13.97-13.35-20.93c-0.98-1.53-3.04-1.65-3.92-0.12
		c-4.09,7.19-8.13,14.41-12.08,21.68c-0.99,1.81,0.46,3.81,2.56,3.82C167.23,139.74,171.26,139.72,175.28,139.72z M211.12,139.07
		c0-0.08,0-0.16,0-0.23c4.09-0.24,8.19-0.4,12.28-0.74c1.87-0.16,3.02-2.67,2.06-4.29c-3.81-6.47-7.63-12.92-11.48-19.37
		c-1.13-1.89-4.13-1.8-5.18,0.16c-3.62,6.75-7.21,13.51-10.78,20.29c-1.02,1.93,0.45,4.19,2.66,4.19
		C204.16,139.07,207.64,139.07,211.12,139.07z M189.56,72.73c-3.91-6.77-7.85-13.59-11.79-20.42c-1.52-2.63-4.04-2.67-5.55-0.04
		c-3.85,6.7-7.7,13.4-11.46,20.16c-0.4,0.71-0.51,1.92-0.17,2.59c0.28,0.54,1.47,0.84,2.25,0.83c7.19-0.06,14.37-0.31,21.55-0.28
		C186.71,75.58,188.78,75.78,189.56,72.73z M192.9,110.05c0,0.03,0,0.06,0,0.08c-4.18,0-8.36-0.03-12.54,0.01
		c-1.98,0.02-2.88,1.26-1.96,2.73c4.47,7.16,8.98,14.28,13.55,21.38c0.93,1.45,3.34,1.25,4.15-0.27c3.76-7.03,7.5-14.06,11.21-21.12
		c1-1.9,0.35-2.82-1.88-2.82C201.26,110.04,197.08,110.05,192.9,110.05z M176.97,78.02c0,0.13,0,0.25,0,0.38
		c-4.8,0-9.59-0.04-14.39,0.02c-2.07,0.03-3.22,1.86-2.24,3.57c3.91,6.86,7.84,13.7,11.82,20.52c1.12,1.91,3,1.8,4.07-0.07
		c3.98-6.9,7.98-13.79,11.99-20.68c1.22-2.1,0.47-3.65-1.96-3.72C183.17,77.96,180.07,78.02,176.97,78.02z M170.83,112.06
		c-0.48-1.66-1.67-2.1-3.45-2.12c-7.27-0.07-14.54-0.32-21.8-0.48c-2.44-0.06-3.7,1.86-2.65,3.99c0.51,1.04,0.98,2.1,1.55,3.11
		c3.22,5.73,6.42,11.46,9.72,17.14c1.12,1.92,3.48,2.09,4.39,0.46C162.64,126.87,166.68,119.57,170.83,112.06z M151.09,139.57
		c2.22-2.57,0.93-4.52-0.39-6.77c-3.52-5.99-6.75-12.16-10.15-18.22c-0.39-0.69-1.22-1.62-1.81-1.59c-0.75,0.03-1.74,0.76-2.16,1.47
		c-4,6.79-7.91,13.64-11.84,20.47c-1.16,2.02,0.29,4.5,2.66,4.55c0.85,0.02,1.7,0.08,2.55,0.08
		C137.03,139.58,144.14,139.57,151.09,139.57z M142.08,104.67c1.06,0.82,1.94,2.09,2.87,2.13c7.8,0.34,15.61,0.47,23.41,0.61
		c1.69,0.03,2.88-1.88,2.06-3.34c-4.11-7.34-8.27-14.65-12.67-22.42c-1.1,0.56-2.72,0.83-3.28,1.75
		C150.31,90.27,146.35,97.27,142.08,104.67z M213.35,100.04c-4.16-7.09-8.31-14.18-12.47-21.27
		C200.67,81.82,211,99.58,213.35,100.04z M218.98,111.36c3.09,7,7.34,13.3,11.47,19.67c0.34-0.2,0.67-0.4,1.01-0.6
		c-3.88-6.51-7.77-13.03-11.65-19.54C219.54,111.05,219.26,111.21,218.98,111.36z M182.18,48.49c0.78,3.21,10.79,20.19,12.79,20.68
		c-4.08-6.99-8.16-13.99-12.24-20.98C182.54,48.29,182.36,48.39,182.18,48.49z M173.86,117.6c-3.51,6.11-7.02,12.22-10.53,18.34
		c0.3,0.17,0.59,0.34,0.89,0.51c3.57-6.08,7.14-12.15,10.72-18.23C174.58,118.01,174.22,117.81,173.86,117.6z M127.34,136.24
		c3.18-2.39,11.38-16.77,11.03-19.66C134.61,123.3,131.13,129.5,127.34,136.24z M146.75,103.32c2.65-2.48,9.71-14.2,9.33-16.5
		c-3.49,5.72-6.67,10.94-9.85,16.16C146.41,103.09,146.58,103.21,146.75,103.32z"/>
</g>
<g id="Layer_14">
</g>
<g id="Layer_15">
</g>
</svg>
