<?xml version="1.0" encoding="utf-8"?>
<!-- Generator: Adobe Illustrator 27.8.1, SVG Export Plug-In . SVG Version: 6.00 Build 0)  -->
<svg version="1.1" xmlns="http://www.w3.org/2000/svg" xmlns:xlink="http://www.w3.org/1999/xlink" x="0px" y="0px"
	 viewBox="0 0 350 230" style="enable-background:new 0 0 350 230;" xml:space="preserve">
<style type="text/css">
	.st0{fill:#1C75BC;stroke:#F1F2F2;stroke-miterlimit:10;}
	.st1{fill:#FFFFFF;stroke:#F1F2F2;stroke-miterlimit:10;}
	.st2{fill:#FFC648;stroke:#F1F2F2;stroke-miterlimit:10;}
	.st3{fill:#32D3F3;}
	.st4{fill:#825300;}
	.st5{fill:#AF2300;}
	.st6{fill:#AE6529;}
	.st7{fill:#A09F47;}
	.st8{fill:#003D50;}
	.st9{fill:#821600;}
	.st10{fill:#660C02;}
	.st11{fill:#974200;}
	.st12{fill:#725200;}
	.st13{fill:#AA5B08;}
	.st14{fill:#2B3990;}
	.st15{fill:#877F00;}
	.st16{fill:#9F00FF;}
	.st17{fill:#15FF00;}
	.st18{fill:#8D6195;}
	.st19{fill:#FFBA7B;}
	.st20{fill:#40006D;}
	.st21{fill:#074C00;}
	.st22{fill:#012A3F;}
</style>
<g id="Layer_1">
</g>
<g id="Layer_2">
</g>
<g id="Layer_3">
</g>
<g id="Layer_4">
</g>
<g id="Layer_5">
</g>
<g id="Layer_6">
</g>
<g id="Layer_7">
</g>
<g id="Layer_8">
</g>
<g id="Layer_9">
</g>
<g id="Layer_10">
</g>
<g id="Layer_11">
</g>
<g id="Layer_12">
</g>
<g id="Layer_13">
</g>
<g id="Layer_14">
	<path class="st21" d="M174.63,41.68c0.99,1.37,1.98,2.53,2.72,3.83c0.57,1,1.2,1.43,2.37,1.52c19.4,1.37,35.29,15.76,38.75,35.04
		c0.23,1.3,0.67,2.63,0.58,3.91c-0.16,2.21,0.92,3.2,2.79,3.94c1.14,0.45,2.11,1.31,3.71,2.35c-1.79,1.21-3.15,2.36-4.69,3.11
		c-1.4,0.68-1.97,1.57-2.25,3.08c-3.6,19.16-18.61,33.81-37.89,37c-1.34,0.22-2.07,0.76-2.62,2.02c-0.79,1.79-1.86,3.47-3.1,5.73
		c-1.11-1.4-2.3-2.3-2.67-3.46c-1.09-3.38-3.58-3.89-6.67-4.41c-11.08-1.86-20.42-6.99-27.37-15.97c-4.64-6-7.04-12.97-7.8-20.47
		c-0.19-1.91-0.59-3.29-2.62-3.9c-0.94-0.29-1.74-1.05-2.62-1.57c-1.17-0.69-0.95-1.44-0.03-2.07c1.28-0.88,2.7-1.58,3.95-2.51
		c0.58-0.43,1.21-1.16,1.32-1.84c3.02-18.77,17.36-34.61,35.68-38.92c3.32-0.78,6.15-1.55,7.37-5.06
		C173.67,42.67,174.05,42.39,174.63,41.68z M199.35,64.03c-3.75,0.94-7.32,2.02-10.97,2.68c-3.71,0.68-7.51,0.91-11.25,1.44
		c-0.42,0.06-1.03,0.76-1.06,1.21c-0.36,4.79-0.64,9.59-0.89,14.38c-0.02,0.37,0.26,1.01,0.52,1.08c0.35,0.09,0.93-0.14,1.2-0.42
		c0.5-0.52,0.85-1.18,1.55-2.2c-0.28,1.48-0.46,2.4-0.63,3.31c0.18,0.06,0.37,0.11,0.55,0.17c1.13-1.2,2.25-2.4,3.38-3.6
		c0.15,0.12,0.3,0.25,0.44,0.37c-0.91,1.29-1.82,2.58-2.74,3.86c0.14,0.12,0.27,0.23,0.41,0.35c2.11-1.89,4.23-3.77,6.34-5.66
		c0.13,0.13,0.25,0.26,0.38,0.4c-1.96,2.06-3.91,4.12-5.87,6.18c0.1,0.11,0.19,0.21,0.29,0.32c1.31-0.88,2.62-1.76,3.93-2.63
		c0.09,0.13,0.18,0.26,0.27,0.39c-1.23,1.13-2.46,2.27-3.69,3.4c0.09,0.16,0.18,0.31,0.27,0.47c1.43-0.44,2.85-0.87,4.28-1.31
		c0.04,0.09,0.07,0.18,0.11,0.27c-1.41,0.78-2.83,1.56-4.24,2.34c0.09,0.2,0.18,0.39,0.26,0.59c1.83-0.09,3.67-0.24,5.5-0.26
		c5.47-0.07,10.94-0.13,16.41-0.11c1.52,0,2.01-0.55,1.83-2.04c-0.41-3.51-0.54-7.07-1.11-10.56
		C203.98,73.26,202.16,68.38,199.35,64.03z M149.31,120.01c7.45-2.82,14.95-4.59,22.79-4.77c0.42-0.01,1.17-0.7,1.19-1.11
		c0.32-4.78,0.53-9.58,0.8-14.8c-0.73,0.3-1.43,0.43-1.92,0.82c-0.55,0.43-0.92,1.1-1.37,1.66c-0.11-0.07-0.22-0.14-0.33-0.22
		c0.35-0.88,0.71-1.75,1.06-2.63c-0.08-0.04-0.15-0.09-0.23-0.13c-1.18,1.11-2.36,2.23-3.55,3.34c-0.09-0.08-0.17-0.16-0.26-0.25
		c1.01-1.22,2.02-2.44,3.02-3.66c-0.15-0.15-0.3-0.31-0.45-0.46c-2.25,1.69-4.49,3.38-6.74,5.08c-0.12-0.15-0.23-0.3-0.35-0.45
		c2.03-1.85,4.07-3.7,6.1-5.55c-0.14-0.2-0.27-0.41-0.41-0.61c-1.35,0.78-2.71,1.56-4.06,2.34c-0.05-0.08-0.11-0.16-0.16-0.24
		c1.23-1.09,2.47-2.19,3.7-3.28c-0.14-0.19-0.28-0.39-0.42-0.58c-1.01,0.41-2.02,0.81-3.03,1.22c-0.06-0.14-0.12-0.27-0.18-0.41
		c0.98-0.56,1.97-1.11,2.95-1.67c-1.98-0.29-3.81-0.16-5.64-0.13c-5.59,0.09-11.18,0.18-16.76,0.21c-1.28,0.01-1.71,0.5-1.64,1.71
		c0.15,2.52,0.13,5.05,0.41,7.55C144.51,108.96,146.1,114.65,149.31,120.01z M163.48,85.93c0.08-0.14,0.16-0.28,0.23-0.42
		c1.7,0.88,3.39,1.76,5.09,2.65c0.09-0.15,0.17-0.3,0.26-0.45c-2.17-2.18-4.33-4.36-6.5-6.54c0.15-0.15,0.31-0.31,0.46-0.46
		c2.21,2,4.42,4,6.63,5.99c0.07-0.07,0.13-0.13,0.2-0.2c-1.05-1.64-2.1-3.27-3.14-4.91c0.16-0.11,0.33-0.22,0.49-0.33
		c1.26,1.62,2.52,3.24,3.78,4.85c0.18-0.13,0.37-0.25,0.55-0.38c-0.49-1.19-0.97-2.39-1.46-3.58c0.13-0.07,0.27-0.14,0.4-0.21
		c0.55,0.82,1.07,1.68,1.68,2.45c0.25,0.32,0.73,0.46,1.11,0.69c0.15-0.41,0.44-0.82,0.43-1.23c-0.07-3.37-0.2-6.73-0.28-10.09
		c-0.04-1.78-0.01-3.57-0.01-5.41c-0.64-0.06-1.04-0.13-1.45-0.14c-6.77-0.12-13.42-1.07-19.92-2.96c-1.27-0.37-1.8-0.1-2.36,1.02
		c-2.46,4.88-3.95,10.06-4.82,15.42c-0.48,2.93-0.81,5.88-1.21,8.91c8.17,0.38,15.98,0.75,23.79,1.12c0.08-0.17,0.16-0.34,0.24-0.51
		c-1.28-0.62-2.55-1.24-3.83-1.86c0.02-0.1,0.03-0.19,0.05-0.29c1.35,0.23,2.7,0.45,4.06,0.68c0.06-0.16,0.13-0.33,0.19-0.49
		C166.59,88.15,165.03,87.04,163.48,85.93z M199.7,119.69c4.32-7.81,5.51-16.58,6.08-25.47c-7.76-0.48-15.25-0.94-22.74-1.37
		c-0.29-0.02-0.86,0.24-0.85,0.37c0.01,0.36,0.14,0.87,0.4,1.04c0.96,0.63,1.99,1.14,3,1.7c-0.05,0.11-0.1,0.22-0.15,0.33
		c-1.2-0.36-2.4-0.71-4.11-1.22c1.72,1.48,3.02,2.59,4.32,3.71c-0.1,0.13-0.2,0.26-0.31,0.39c-1.43-0.89-2.87-1.78-4.3-2.67
		c-0.07,0.08-0.14,0.16-0.21,0.24c1.86,1.95,3.72,3.89,5.57,5.84c-0.18,0.18-0.37,0.36-0.55,0.54c-1.79-1.56-3.58-3.13-5.4-4.66
		c-0.27-0.23-0.69-0.28-1.04-0.42c0.04,0.41-0.06,0.9,0.14,1.21c0.81,1.3,1.72,2.54,2.59,3.8c-0.1,0.08-0.21,0.16-0.31,0.24
		c-1.23-1.48-2.47-2.96-3.7-4.44c-0.12,0.1-0.24,0.2-0.36,0.31c0.33,0.72,0.65,1.43,0.98,2.15c-0.61-0.33-0.95-0.84-1.41-1.21
		c-0.36-0.29-0.87-0.39-1.32-0.57c-0.15,0.41-0.43,0.82-0.43,1.23c0.07,4.33,0.22,8.65,0.27,12.98c0.01,1.1,0.39,1.4,1.46,1.48
		c3.11,0.26,6.26,0.43,9.3,1.08C190.97,117.2,195.21,118.5,199.7,119.69z M168.98,133.11c0.25-1.32-0.05-3.03,1.92-2.7
		c1.86,0.31,0.68,1.61,0.46,2.72c0.6,0.05,1.07,0.09,1.67,0.14c0-5.63,0-11.07,0-16.59c-7.9,0.3-15.48,1.46-22.98,4.67
		C155,127.67,160.27,132.95,168.98,133.11z M198.45,62.43c-5.05-6.46-10.44-11.77-18.85-13.02c0.25,1.3,0.58,2.29,0.57,3.27
		c0,0.54-0.47,1.22-0.94,1.55c-0.3,0.21-1.2,0.06-1.42-0.23c-0.26-0.35-0.15-1.04-0.06-1.56c0.2-1.25-0.17-2.24-1.4-3.39
		c0,6.1,0,11.8,0,17.69C183.83,66.48,191.06,65.12,198.45,62.43z M176.12,116.91c0,2.5-0.01,5,0,7.5c0.01,2.46,0.01,4.93,0.11,7.39
		c0.02,0.44,0.48,0.87,0.74,1.3c0.15-0.41,0.34-0.82,0.44-1.24c0.08-0.34-0.07-0.83,0.12-1.04c0.45-0.49,1.04-0.84,1.57-1.25
		c0.33,0.5,0.77,0.96,0.97,1.51c0.16,0.45,0.03,1,0.03,1.59c8.07-0.88,14.23-4.43,18.49-11.21
		C194.79,119.16,180.07,116.22,176.12,116.91z M173.14,49.87c-0.29-0.03-0.58-0.07-0.87-0.1c-0.12,1.11-0.07,2.28-0.41,3.33
		c-0.25,0.78-1.01,1.39-1.54,2.07c-0.38-0.66-1.03-1.3-1.06-1.97c-0.05-1.03,0.33-2.08,0.53-3.14c-5.2-0.18-16.4,8.15-18.21,13.48
		c4.52,1.92,18.99,4.02,21.57,3.03C173.14,60.97,173.14,55.42,173.14,49.87z M200.73,63.38c5.08,8.49,6.55,17.77,6.64,27.2
		c3.25,0,6.24,0,9.22,0c0.02-0.22,0.04-0.44,0.06-0.66c-0.8-0.12-1.61-0.35-2.41-0.34c-1.13,0.01-2.26-0.19-2.31-1.42
		c-0.07-1.55,1.31-1.23,2.28-1.19c0.69,0.03,1.38,0.2,2.05,0.31c0.09-0.21,0.18-0.32,0.17-0.43c-0.83-9.49-4.46-17.74-10.98-24.69
		c-0.26-0.28-0.89-0.49-1.21-0.37C203.08,62.21,201.97,62.8,200.73,63.38z M145.63,62.84c-6.55,6.82-10.98,14.67-12.68,24.17
		c0.79-0.1,1.3-0.3,1.73-0.19c0.64,0.17,1.36,0.43,1.79,0.89c0.24,0.25,0.12,1.3-0.13,1.44c-0.46,0.24-1.14,0.08-1.73,0.07
		c-0.96-0.03-1.92-0.09-2.03,1.48c2.77,0,5.45-0.06,8.13,0.03c1.24,0.04,1.54-0.42,1.75-1.6c0.99-5.66,1.98-11.34,3.3-16.93
		c0.64-2.69,2.02-5.2,3.09-7.86C147.79,63.84,146.77,63.37,145.63,62.84z M132.8,97.39c-0.09,0.19-0.19,0.3-0.17,0.4
		c1.03,9.31,4.96,17.23,11.47,23.9c0.25,0.26,0.89,0.4,1.22,0.27c0.86-0.34,1.65-0.87,2.51-1.35c-4.85-8.35-5.99-17.34-5.81-26.48
		c-3.29,0-6.36,0-9.43,0c-0.02,0.24-0.03,0.47-0.05,0.71c0.87,0.09,1.73,0.28,2.6,0.26c1.16-0.02,2.18,0.29,2.25,1.51
		c0.08,1.31-1.09,1.22-1.98,1.16C134.52,97.72,133.65,97.52,132.8,97.39z M216.08,97.92c-0.69,0-1.19,0.11-1.62-0.03
		c-0.59-0.18-1.27-0.43-1.61-0.88c-0.23-0.3-0.13-1.3,0.13-1.44c0.44-0.24,1.12-0.09,1.7-0.06c1.03,0.06,1.97,0.05,1.67-1.39
		c-3.04,0-6.01,0-9.06,0c-0.8,9.2-1.82,18.2-6.23,26.44c1.04,0.5,1.73,1.32,2.82,0.22C210.2,114.44,214.37,106.96,216.08,97.92z
		 M180.19,92.41c-0.03-2.88-2.37-5.41-4.97-5.37c-2.43,0.04-5.64,3.24-5.7,5.67c-0.06,2.33,2.77,4.94,5.32,4.91
		C177.76,97.59,180.22,95.18,180.19,92.41z M191.23,52.46c2.63,2.86,5.33,5.81,8.06,8.74c0.25,0.27,0.74,0.64,0.98,0.56
		c1.09-0.36,2.13-0.86,3.39-1.4C199.72,56.8,195.62,54.18,191.23,52.46z M156.91,54.31c-3.74,2.04-7.19,4.55-10.17,7.93
		c1.19,0.32,2.78,0.79,3.31,0.24C152.5,59.92,154.65,57.06,156.91,54.31z M145.45,123.39c3.09,2.07,6.01,4.04,8.94,6
		c-1.35-2.14-2.99-3.88-4.47-5.74C148.26,121.6,148.32,121.55,145.45,123.39z M198.23,125.46c1.13-0.87,2.25-1.74,3.4-2.63
		C200.27,121.47,200.35,121.76,198.23,125.46z M181.97,138.47c1.19-0.12,2.4-0.11,3.55-0.39c17.7-4.3,29.85-14.83,35.88-32.14
		c0.74-2.14,1.11-4.42,1.58-6.64c0.08-0.36-0.25-0.8-0.39-1.21c-0.34,0.33-0.81,0.6-1,1c-0.25,0.53-0.25,1.17-0.39,1.75
		c-4.59,19.22-16.41,31.31-35.6,36.15c-1.24,0.31-2.48,0.62-3.72,0.94C181.9,138.11,181.93,138.29,181.97,138.47z M166.92,138.38
		c-2.61-0.75-5.33-1.14-7.92-1.93c-2.69-0.82-5.36-1.83-7.86-3.11c-2.55-1.31-4.99-2.92-7.27-4.66c-2.21-1.69-4.16-3.71-6.22-5.59
		C140.36,130.53,161.36,141.39,166.92,138.38z M212.3,60.72c5.03,7.35,8.52,15.32,9.97,24.19c0.43-0.71,0.59-1.37,0.52-2
		c-0.14-1.13-0.42-2.24-0.65-3.36c-1.18-5.89-3.45-11.36-6.58-16.46c-0.67-1.08-1.61-1.99-2.43-2.98
		C212.85,60.31,212.57,60.51,212.3,60.72z M210.54,57.11c-0.12-0.26-0.19-0.56-0.37-0.77c-4.85-5.65-10.94-9.26-18.15-11
		c-0.62-0.15-1.31-0.02-1.97-0.02c-0.02,0.19-0.05,0.37-0.07,0.56c0.64,0.25,1.26,0.58,1.92,0.74c6.74,1.63,12.36,5.11,17.02,10.21
		c0.32,0.35,0.86,0.51,1.3,0.76C210.33,57.43,210.44,57.27,210.54,57.11z"/>
</g>
<g id="Layer_15">
</g>
</svg>
