<?xml version="1.0" encoding="utf-8"?>
<!-- Generator: Adobe Illustrator 27.8.1, SVG Export Plug-In . SVG Version: 6.00 Build 0)  -->
<svg version="1.1" xmlns="http://www.w3.org/2000/svg" xmlns:xlink="http://www.w3.org/1999/xlink" x="0px" y="0px"
	 viewBox="0 0 350 230" style="enable-background:new 0 0 350 230;" xml:space="preserve">
<style type="text/css">
	.st0{fill:#1C75BC;stroke:#F1F2F2;stroke-miterlimit:10;}
	.st1{fill:#FFFFFF;stroke:#F1F2F2;stroke-miterlimit:10;}
	.st2{fill:#FFC648;stroke:#F1F2F2;stroke-miterlimit:10;}
	.st3{fill:#32D3F3;}
	.st4{fill:#825300;}
	.st5{fill:#AF2300;}
	.st6{fill:#AE6529;}
	.st7{fill:#A09F47;}
	.st8{fill:#003D50;}
	.st9{fill:#821600;}
	.st10{fill:#660C02;}
	.st11{fill:#974200;}
	.st12{fill:#725200;}
	.st13{fill:#AA5B08;}
	.st14{fill:#2B3990;}
	.st15{fill:#877F00;}
	.st16{fill:#9F00FF;}
	.st17{fill:#15FF00;}
	.st18{fill:#8D6195;}
	.st19{fill:#FFBA7B;}
	.st20{fill:#40006D;}
	.st21{fill:#074C00;}
	.st22{fill:#012A3F;}
</style>
<g id="Layer_1">
</g>
<g id="Layer_2">
</g>
<g id="Layer_3">
</g>
<g id="Layer_4">
</g>
<g id="Layer_5">
</g>
<g id="Layer_6">
</g>
<g id="Layer_7">
</g>
<g id="Layer_8">
</g>
<g id="Layer_9">
</g>
<g id="Layer_10">
</g>
<g id="Layer_11">
</g>
<g id="Layer_12">
</g>
<g id="Layer_13">
</g>
<g id="Layer_14">
</g>
<g id="Layer_15">
	<path class="st22" d="M176.31,94.12c3.63-1.02,6.98-1.63,10.06-2.88c11.11-4.49,18.94-12.1,21.86-24.07
		c0.37-1.5,0.52-3.06,0.67-4.6c0.21-2.18,1.24-3.34,2.91-3.05c1.94,0.33,2.12,1.72,1.93,3.37c-1.97,17.34-14.15,31.06-31.11,35
		c-1.58,0.37-3.18,0.71-4.79,0.85c-1.3,0.11-1.68,0.65-1.62,1.87c0.08,1.6,0.02,3.22,0.02,5.29c3.15-0.57,5.97-0.84,8.64-1.59
		c18.9-5.3,31.08-17.15,35.21-36.65c0.41-1.92,0.57-3.91,0.69-5.88c0.1-1.72,0.43-3.24,2.51-3.17c2.05,0.07,2.37,1.65,2.41,3.33
		c0.24,10.4-2.67,19.85-9.01,28.08c-9.4,12.2-22,18.91-37.15,21.04c-0.49,0.07-0.98,0.12-1.47,0.19c-0.42,0.07-0.83,0.16-1.38,0.27
		c0,6.33,0,12.65,0,19.12c0.47,0.05,0.94,0.14,1.41,0.15c6.14,0.09,12.29,0.19,18.43,0.24c1.59,0.01,2.9,0.37,2.97,2.22
		c0.08,1.94-1.34,2.29-2.87,2.29c-15.75,0.04-31.5,0.06-47.25,0.09c-1.63,0-2.59-0.71-2.55-2.38c0.04-1.61,1.11-2.12,2.58-2.13
		c6.57-0.03,13.14-0.15,19.71-0.09c2,0.02,2.69-0.49,2.59-2.61c-0.23-5.15-0.19-10.31-0.27-15.46c-0.01-0.41-0.1-0.82-0.13-1.05
		c-4.3-0.73-8.52-1.15-12.59-2.18c-13.02-3.3-24.02-9.82-31.65-21.17c-5.72-8.51-7.33-17.91-5.43-27.94
		c0.29-1.54,0.86-2.75,2.74-2.47c1.58,0.23,2.36,1.49,2.01,3.33c-2.63,13.86,2.56,24.66,13.25,33.1
		c8.97,7.08,19.34,10.62,30.74,11.2c0.27,0.01,0.54-0.05,0.85-0.09c0-2.16,0-4.23,0-5.93c-4.84-1.11-9.57-1.73-13.98-3.28
		c-10.85-3.81-18.95-10.76-22.82-21.94c-1.46-4.21-1.68-8.58-1.31-12.98c0.13-1.48,0.89-2.63,2.56-2.51
		c1.73,0.13,2.36,1.29,2.29,2.95c-0.58,13.36,4.92,22.32,17.17,28.02c5.36,2.49,11.79,4.01,15.75,3.69c0-1.85,0-3.7,0-5.66
		c-5.8-0.1-11.19-1.1-15.98-4.11c-7.56-4.74-11.74-11.42-11.31-20.58c0.04-0.83,0.16-1.8,0.62-2.43c0.54-0.74,1.48-1.55,2.28-1.59
		c0.52-0.03,1.44,1.19,1.61,1.98c0.52,2.33,0.63,4.76,1.15,7.1c1.75,7.84,8.35,13.36,16.93,14.31c1.4,0.15,2.8,0.24,4.4,0.37
		c0-1.72,0-3.29,0-4.97c-1.43-0.28-2.9-0.44-4.3-0.86c-6.41-1.91-9.9-6.45-11.22-12.83c-0.3-1.46-0.69-3.09,1.48-3.51
		c1.8-0.35,2.78,0.57,2.97,2.88c0.35,4.3,2.79,6.98,6.6,8.53c1.33,0.54,2.8,0.73,4.6,1.17c0-4.12-0.1-7.85,0.07-11.56
		c0.04-0.85,0.83-2.08,1.57-2.36c0.78-0.3,2.13,0.06,2.84,0.63c0.57,0.46,0.74,1.63,0.79,2.5c0.14,2.25,0.13,4.52,0.16,6.78
		c0.01,0.89,0,1.78,0,2.96c4.97-1.71,8.1-4.85,10.19-9.13c0.4-0.82,0.68-1.7,1.03-2.55c0.61-1.48,1.68-2.08,3.21-1.53
		c1.51,0.55,1.73,1.69,1.27,3.1c-2.18,6.61-6.39,11.38-12.82,14.11c-3.12,1.32-3.4,1.91-2.47,5.56
		c10.25-0.86,20.27-10.49,21.44-20.61c0.01-0.07,0.03-0.14,0.03-0.21c0.08-1.77,0.73-3.13,2.75-2.98c2.11,0.16,2.23,1.76,2.18,3.43
		c-0.12,3.84-1.21,7.38-3.24,10.61c-4.87,7.71-12.14,12.1-20.73,14.34c-2.36,0.62-2.94,1.65-2.74,3.76
		C176.39,91.43,176.31,92.48,176.31,94.12z M219.01,92.72c-0.55,0.48-1.18,0.9-1.63,1.46c-3.74,4.68-8.17,8.58-13.24,11.75
		c-6.69,4.18-13.95,6.76-21.77,7.68c-1.73,0.2-2.41,0.86-2.35,2.66c0.12,3.52,0.02,7.06,0.03,10.59c0,0.41,0.17,0.81,0.27,1.22
		c0.21-0.02,0.42-0.03,0.64-0.05c0-4.32,0-8.64,0-13.01c16.14-1.92,28.93-8.99,38.61-21.46C219.38,93.27,219.19,92.99,219.01,92.72z
		 M149.55,138.54c13.71,0,27.42,0,41.14,0c0-0.15,0-0.3,0.01-0.45c-13.71,0-27.43,0-41.14,0
		C149.56,138.25,149.56,138.39,149.55,138.54z M190.68,48.62c-0.39-0.75-1.3-1.72-1.94-1.69c-0.64,0.03-1.43,1.09-1.79,1.86
		c-0.3,0.64-0.13,1.53-0.08,2.3c0.1,1.57-0.67,3.85,1.95,3.86c2.56,0.01,1.96-2.23,2.09-4.09
		C190.86,50.28,191.04,49.31,190.68,48.62z M133.5,52.67c-0.02,1.42,0.55,2.36,2.08,2.32c1.41-0.04,1.93-1,1.95-2.28
		c0.02-1.13,0.04-2.26-0.03-3.39c-0.07-1.27-0.42-2.5-1.99-2.49c-1.52,0.01-1.98,1.1-2.02,2.45c-0.01,0.56-0.05,1.13-0.07,1.61
		C133.45,51.54,133.51,52.1,133.5,52.67z M174.93,51.14c0-0.63,0.21-1.37-0.05-1.88c-0.44-0.89-1.04-2.14-1.81-2.33
		c-1.48-0.38-2.02,0.94-2.12,2.24c-0.09,1.12-0.04,2.25-0.04,3.38c0,1.36,0.48,2.44,2,2.45c1.66,0.01,2.12-1.11,2.03-2.58
		C174.92,51.99,174.94,51.56,174.93,51.14C174.94,51.14,174.93,51.14,174.93,51.14z M147.89,51.02c-0.04-0.84,0.15-1.8-0.19-2.5
		c-0.34-0.7-1.18-1.57-1.83-1.6c-0.61-0.02-1.7,0.89-1.8,1.53c-0.27,1.64-0.29,3.38-0.03,5.03c0.09,0.59,1.25,1.43,1.89,1.41
		c0.64-0.02,1.47-0.88,1.81-1.57c0.31-0.62,0.06-1.52,0.06-2.29C147.83,51.02,147.86,51.02,147.89,51.02z M158.82,51.01
		c0-0.7,0.24-1.53-0.06-2.08c-0.43-0.81-1.24-1.43-1.88-2.12c-0.65,0.62-1.7,1.16-1.85,1.88c-0.31,1.49-0.34,3.12-0.06,4.6
		c0.13,0.68,1.3,1.62,1.97,1.6c0.65-0.02,1.43-1.04,1.83-1.79c0.29-0.55,0.06-1.38,0.06-2.08
		C158.83,51.01,158.82,51.01,158.82,51.01z M202.58,48.66c-0.38-0.74-1.27-1.73-1.9-1.7c-0.66,0.03-1.49,1.04-1.83,1.81
		c-0.32,0.71-0.17,1.66-0.11,2.5c0.1,1.51-0.55,3.66,1.95,3.68c2.6,0.02,1.98-2.19,2.14-3.98
		C202.77,50.31,202.94,49.35,202.58,48.66z M209.35,50.91c0,0.7-0.22,1.5,0.05,2.07c0.36,0.76,1.14,1.92,1.66,1.88
		c0.77-0.06,1.99-0.93,2.1-1.62c0.28-1.61,0.17-3.34-0.1-4.97c-0.1-0.57-1.18-1.43-1.72-1.37c-0.7,0.08-1.53,0.84-1.88,1.53
		c-0.34,0.69-0.16,1.64-0.2,2.48C209.29,50.91,209.32,50.91,209.35,50.91z M224.08,51.13c0-0.7,0.02-1.41,0-2.11
		c-0.05-1.31-0.71-2.38-2.02-2.1c-0.75,0.16-1.61,1.24-1.84,2.06c-0.33,1.18-0.15,2.51-0.13,3.78c0.02,1.3,0.62,2.23,2,2.22
		c1.49,0,2.1-0.93,2.01-2.37c-0.03-0.49,0-0.99,0-1.48C224.09,51.13,224.08,51.13,224.08,51.13z M122.02,50.8
		c0,0.7-0.23,1.53,0.06,2.09c0.42,0.81,1.12,1.86,1.88,2.04c1.28,0.3,2.07-0.68,2.07-2.03c0-1.48,0.11-2.99-0.2-4.41
		c-0.15-0.66-1.19-1.56-1.81-1.55c-0.65,0.01-1.48,0.88-1.86,1.58c-0.33,0.62-0.14,1.51-0.18,2.29C122,50.8,122.01,50.8,122.02,50.8
		z M151.42,110.32c-7.57-2.73-14.29-6.82-20.22-12.24C133.44,102.58,147.54,111.15,151.42,110.32z M228.74,67.39
		c-0.67,7.35-3.16,14.13-6.28,20.72C226.2,84.18,230.37,70.39,228.74,67.39z"/>
</g>
</svg>
