<?xml version="1.0" encoding="utf-8"?>
<!-- Generator: Adobe Illustrator 27.8.1, SVG Export Plug-In . SVG Version: 6.00 Build 0)  -->
<svg version="1.1" xmlns="http://www.w3.org/2000/svg" xmlns:xlink="http://www.w3.org/1999/xlink" x="0px" y="0px"
	 viewBox="0 0 350 230" style="enable-background:new 0 0 350 230;" xml:space="preserve">
<style type="text/css">
	.st0{fill:#1C75BC;stroke:#F1F2F2;stroke-miterlimit:10;}
	.st1{fill:#FFFFFF;stroke:#F1F2F2;stroke-miterlimit:10;}
	.st2{fill:#FFC648;stroke:#F1F2F2;stroke-miterlimit:10;}
	.st3{fill:#32D3F3;}
	.st4{fill:#825300;}
	.st5{fill:#AF2300;}
	.st6{fill:#AE6529;}
	.st7{fill:#A09F47;}
	.st8{fill:#003D50;}
	.st9{fill:#821600;}
	.st10{fill:#660C02;}
	.st11{fill:#974200;}
	.st12{fill:#725200;}
	.st13{fill:#AA5B08;}
	.st14{fill:#2B3990;}
	.st15{fill:#877F00;}
	.st16{fill:#9F00FF;}
	.st17{fill:#15FF00;}
	.st18{fill:#8D6195;}
	.st19{fill:#FFBA7B;}
	.st20{fill:#40006D;}
	.st21{fill:#074C00;}
	.st22{fill:#012A3F;}
</style>
<g id="Layer_1">
</g>
<g id="Layer_2">
	<g>
		<path d="M167.81,91.33c-1.87-3.22-3.72-6.2-5.36-9.28c-3.61-6.78-5.57-13.92-4.26-21.67c1.42-8.35,7.34-15,14.75-16.6
			c9.21-1.99,17.26,3.71,18.46,13.06c0.99,7.7-0.94,14.91-3.68,21.96c-1.57,4.02-3.45,7.91-5.32,12.12
			c1.56-0.11,3.01-0.18,4.45-0.33c4.88-0.49,9.77-0.97,14.64-1.53c1.21-0.14,1.57,0.35,1.59,1.41c0.05,2.71,0.11,5.43,0.18,8.14
			c0.04,1.7-1.14,2.05-2.41,2.01c-2.77-0.09-5.53-0.32-8.29-0.51c-4.08-0.29-8.16-0.6-12.49-0.91c0.11,1.44,0.17,2.73,0.3,4.02
			c1.25,12.29,2.38,24.59,3.82,36.86c0.56,4.83,0.05,5.52-4.74,5.29c-2.94-0.14-5.89,0.04-8.84-0.03c-3.15-0.07-4.33-1.6-3.99-4.68
			c0.82-7.4,1.54-14.81,2.34-22.21c0.61-5.62,1.3-11.24,1.95-16.86c0.08-0.72,0.12-1.45,0.2-2.4c-2.83,0.3-5.45,0.56-8.07,0.85
			c-4.59,0.51-9.18,1.04-13.77,1.54c-2.05,0.22-2.43-0.13-2.46-2.24c-0.04-2.89-0.08-5.77-0.08-8.66c0-2.07,0.44-2.37,2.53-2.03
			c5.52,0.88,11.05,1.72,16.58,2.57C166.44,91.3,167.06,91.29,167.81,91.33z M164.81,64.29c0.98,4.03,1.57,8.2,3.05,12.02
			c1.46,3.77,3.75,7.23,5.85,10.72c0.88,1.46,1.73,1.42,2.52,0.21c3.89-5.86,7.07-12.05,8.22-19.09c0.85-5.18,0.28-10.05-3.7-13.97
			c-4.54-4.47-11.29-3.36-13.9,2.46C165.83,58.96,165.51,61.6,164.81,64.29z"/>
		<path class="st3" d="M183.9,103.09c1.95,13.12,3.78,26.03,4.06,39.07c-0.27,0.03-0.54,0.06-0.81,0.09
			c-0.25-2.2-0.5-4.39-0.76-6.59c-1.25-10.54-2.48-21.09-3.76-31.63c-0.27-2.21-0.14-2.37,2.1-2.09c4.47,0.56,8.94,1.03,13.41,1.56
			c0.56,0.07,1.1,0.27,1.6,0.72C194.46,104.71,189.31,103.62,183.9,103.09z M194.98,57.78c-0.69,10.5-3.18,20.52-8.34,30.23
			C190.81,86.62,197.35,61.99,194.98,57.78z M174.55,41.04c0.48,0,0.97,0.01,1.45,0c8.47-0.28,13.7,3.18,16.79,11.06
			c0.14,0.36,0.52,0.62,0.79,0.93c0.11-0.43,0.39-0.9,0.3-1.28c-1.63-6.62-9.05-12.22-15.85-11.94c-1.2,0.05-2.4,0.34-3.6,0.52
			C174.48,40.56,174.52,40.8,174.55,41.04z M163.16,102.43c-4.83,0.25-9.42,0.56-13.85,2.11
			C151.85,105.03,162.48,103.43,163.16,102.43z"/>
	</g>
</g>
<g id="Layer_3">
</g>
<g id="Layer_4">
</g>
<g id="Layer_5">
</g>
<g id="Layer_6">
</g>
<g id="Layer_7">
</g>
<g id="Layer_8">
</g>
<g id="Layer_9">
</g>
<g id="Layer_10">
</g>
<g id="Layer_11">
</g>
<g id="Layer_12">
</g>
<g id="Layer_13">
</g>
<g id="Layer_14">
</g>
<g id="Layer_15">
</g>
</svg>
