<?xml version="1.0" encoding="utf-8"?>
<!-- Generator: Adobe Illustrator 27.8.1, SVG Export Plug-In . SVG Version: 6.00 Build 0)  -->
<svg version="1.1" xmlns="http://www.w3.org/2000/svg" xmlns:xlink="http://www.w3.org/1999/xlink" x="0px" y="0px"
	 viewBox="0 0 350 230" style="enable-background:new 0 0 350 230;" xml:space="preserve">
<style type="text/css">
	.st0{fill:#1C75BC;stroke:#F1F2F2;stroke-miterlimit:10;}
	.st1{fill:#FFFFFF;stroke:#F1F2F2;stroke-miterlimit:10;}
	.st2{fill:#FFC648;stroke:#F1F2F2;stroke-miterlimit:10;}
	.st3{fill:#32D3F3;}
	.st4{fill:#825300;}
	.st5{fill:#AF2300;}
	.st6{fill:#AE6529;}
	.st7{fill:#A09F47;}
	.st8{fill:#003D50;}
	.st9{fill:#821600;}
	.st10{fill:#660C02;}
	.st11{fill:#974200;}
	.st12{fill:#725200;}
	.st13{fill:#AA5B08;}
	.st14{fill:#2B3990;}
	.st15{fill:#877F00;}
	.st16{fill:#9F00FF;}
	.st17{fill:#15FF00;}
	.st18{fill:#8D6195;}
	.st19{fill:#FFBA7B;}
	.st20{fill:#40006D;}
	.st21{fill:#074C00;}
	.st22{fill:#012A3F;}
</style>
<g id="Layer_1">
</g>
<g id="Layer_2">
</g>
<g id="Layer_3">
</g>
<g id="Layer_4">
	<g>
		<path class="st6" d="M155.35,68.3c0.24-2.79,0.35-5.48,0.75-8.12c0.22-1.48,0.76-2.97,1.43-4.32c1.68-3.32,4.1-4.49,7.88-3.99
			c0.26-0.98,0.48-2,0.8-2.98c0.78-2.4,2.12-4.28,4.86-4.59c2.75-0.31,5.12,0.5,6.84,2.76c1.59,2.08,2.14,4.55,2.47,7.08
			c0.13,0.98,0.21,1.97,0.32,3.05c5.06-0.13,7.15,3.17,8.07,7.26c0.79,3.52,0.97,7.18,1.37,10.79c0.1,0.88,0.01,1.78,0.01,2.64
			c2.67-0.56,5.19-1.24,7.76-1.56c1.86-0.23,3.79-0.06,5.66,0.15c0.54,0.06,1.32,0.83,1.41,1.38c0.09,0.53-0.41,1.53-0.89,1.74
			c-4.09,1.76-5.57,5.24-6.3,9.23c-0.85,4.66-0.35,9.35-0.19,14.03c0.2,6.04,0.61,12.13,0.14,18.14
			c-0.74,9.49-6.24,15.61-15.13,18.71c-6.07,2.12-12.34,2.91-18.68,1.75c-9.64-1.77-15.07-8.01-17.56-17.17
			c-1.66-6.07-1.9-12.29-1.62-18.51c0.41-9.27,0.98-18.52,1.56-27.78c0.09-1.4,0.44-2.82,0.89-4.15
			C148.5,69.87,151.19,68.09,155.35,68.3z M179.09,87.06c-0.19,0.01-0.38,0.02-0.57,0.02c-0.1-0.48-0.26-0.96-0.28-1.44
			c-0.21-4.73-0.52-9.47-0.57-14.2c-0.05-4.79,0.25-9.59,0.25-14.38c0-2.59-0.38-5.17-1.9-7.4c-1.08-1.59-2.66-2.53-4.57-2.28
			c-1.92,0.25-2.57,1.93-2.82,3.59c-0.3,1.91-0.42,3.86-0.48,5.8c-0.15,5.37-0.17,10.75-0.35,16.12c-0.14,4.36-0.43,8.72-0.68,13.08
			c-0.02,0.39-0.28,0.76-0.43,1.15c-0.18-0.01-0.35-0.03-0.53-0.04c-0.19-1.26-0.52-2.52-0.54-3.79
			c-0.16-8.27-0.25-16.54-0.37-24.81c-0.01-0.63-0.06-1.27-0.22-1.87c-0.42-1.53-1.22-1.78-2.35-0.67
			c-1.86,1.83-3.03,4.02-3.16,6.69c-0.27,5.79-0.55,11.57-0.85,17.36c-0.23,4.36-0.47,8.73-0.75,13.09
			c-0.04,0.55-0.33,1.09-0.51,1.64c-0.17,0-0.34-0.01-0.51-0.01c-0.16-0.67-0.43-1.34-0.46-2.02c-0.14-3.1-0.22-6.21-0.29-9.31
			c-0.07-2.84-0.12-5.69-0.15-8.53c-0.01-1.04-0.5-1.49-1.51-1.61c-1.87-0.23-3.2,0.68-3.51,2.56c-0.16,0.99-0.26,1.99-0.32,2.98
			c-0.5,8.42-1.21,16.83-1.39,25.25c-0.13,5.72,0.1,11.5,0.86,17.16c1.22,9.09,6.78,14.3,15.7,16.41
			c5.39,1.28,10.66-0.03,15.86-1.54c6.98-2.03,10.79-6.78,12.1-13.77c1.1-5.87,0.6-11.76,0.13-17.64
			c-0.42-5.26-0.76-10.51,0.1-15.77c0.55-3.36,1.65-6.49,3.69-9.42c-2.33,0.47-4.54,1.08-6.68,1.89c-0.51,0.19-1.02,1-1.11,1.59
			c-0.4,2.81-0.65,5.65-0.97,8.47c-0.05,0.47-0.2,0.93-0.3,1.4c-0.18,0-0.37,0.01-0.55,0.01c-0.09-0.54-0.25-1.08-0.27-1.63
			c-0.24-7.32-0.34-14.65-0.75-21.95c-0.13-2.31-0.86-4.65-1.7-6.83c-0.72-1.87-2.29-3.09-4.65-3.13c0,4.72,0.07,9.34-0.02,13.97
			C180.61,77.9,180.25,82.54,179.09,87.06z"/>
		<path class="st7" d="M200.82,122.92c0.18-2.39,0.57-4.78,0.51-7.16c-0.13-5.15-0.5-10.3-0.76-15.45
			c-0.29-5.8,0.11-11.48,3.05-16.69c0.16-0.27,0.27-0.62,0.5-0.79c0.32-0.24,0.73-0.35,1.1-0.51c0.03,0.45,0.25,1.04,0.05,1.33
			c-2.27,3.2-3.38,6.85-3.52,10.66c-0.16,4.41,0.12,8.83,0.33,13.24c0.21,4.41,0.76,8.83-0.21,13.22c-0.17,0.77-0.49,1.51-0.75,2.26
			C201.02,122.98,200.92,122.95,200.82,122.92z M183.41,54.67c0.16,0.11,0.31,0.31,0.47,0.33c3.91,0.45,5.79,3.06,6.94,6.47
			c1.26,3.74,1.72,7.58,1.62,11.51c-0.02,0.69,0.08,1.39,0.12,2.08c0.17,0.03,0.34,0.05,0.51,0.08c0.18-0.52,0.48-1.03,0.52-1.56
			c0.31-5.19-0.57-10.18-2.81-14.88c-0.86-1.81-2.2-3.27-4.08-4c-0.98-0.38-2.13-0.35-3.2-0.51
			C183.47,54.34,183.44,54.51,183.41,54.67z M200.01,128.62c-0.49,0.3-0.94,0.68-1.18,1.16c-2.87,5.75-7.22,9.94-13.18,12.38
			c-1.79,0.73-3.68,1.2-5.86,1.89C186.7,145.28,199.89,135.18,200.01,128.62z M153.61,116.75c0.13,10.15,8.73,18.25,19.09,18.09
			c10.25-0.16,18.66-9.09,18.44-19.6c-0.2-9.69-9.03-17.64-19.4-17.47C160.93,97.51,153.5,108.06,153.61,116.75z M173.15,109.55
			c-0.39,0.04-0.8,0.11-1.21,0.12c-0.92,0.02-1.85,0.92-2.77-0.13c-1.09-1.24-1.79-2.61-1.61-4.29c0.4-3.63,0.89-4.13,4.5-3.98
			c1.91,0.08,3.8,0.5,5.7,0.77C174.73,105.19,174.67,105.27,173.15,109.55z M179.01,112.99c-1.04-0.83-2.03-1.51-2.89-2.34
			c-0.28-0.27-0.4-0.94-0.3-1.36c0.59-2.46,2.18-4.14,4.41-5.22c0.3-0.15,0.85-0.12,1.13,0.07c2.28,1.49,4.04,3.44,5.39,6.18
			C183.48,110.31,180.8,111.18,179.01,112.99z M167.73,111.38c-0.05,0.17-0.06,0.29-0.12,0.36c-0.63,0.66-1.34,1.92-1.89,1.86
			c-1.4-0.16-2.98-0.63-4.03-1.51c-1.09-0.93-1.69-2.46-2.41-3.78c-0.15-0.27-0.01-0.86,0.21-1.14c1.56-2.03,3.51-3.58,6.09-4.63
			C165.01,105.91,165.11,109,167.73,111.38z M183,119.47c0.55,0.02,1.12,0.29,1.64,0.53c2.5,1.15,2.78,1.78,1.22,3.98
			c-1.25,1.76-2.84,3.28-4.53,4.81c-0.54-3.06-1.35-5.73-4.13-7.43C178.65,118.77,180.93,119.4,183,119.47z M172.83,124.05
			c-0.08-0.97,1.38-1.49,2.37-0.92c2.07,1.19,3.37,4.22,2.75,6.57c-0.09,0.33-0.45,0.77-0.74,0.83c-2.03,0.4-4.08,0.71-6.13,1.05
			c-0.08-0.18-0.16-0.36-0.24-0.54C172.28,128.91,173.04,126.63,172.83,124.05z M165.15,115.97c0.52,1.44,0.06,2.06-1.31,2.43
			c-2.13,0.57-4.21,0.9-6.3,0.05c-0.42-0.17-0.98-0.73-0.97-1.1c0.04-2.01,0.24-4.01,0.39-6.01c0.2-0.03,0.4-0.07,0.59-0.1
			C159.31,114.11,161.8,115.82,165.15,115.97z M170.47,123.74c0.21,1.33,0.02,2.82-0.39,4.12c-0.3,0.94-1.17,1.72-1.88,2.49
			c-0.2,0.22-0.78,0.32-1.07,0.2c-1.62-0.67-3.21-1.43-4.98-2.24c1.42-0.99,2.63-1.65,3.59-2.57c0.93-0.89,1.59-2.05,2.55-3.34
			C169.03,122.81,170.38,123.18,170.47,123.74z M180.33,114.34c1.99-1.13,4.07-1.72,6.33-1.3c0.46,0.08,1.13,0.65,1.17,1.04
			c0.14,1.48,0.06,2.98,0.06,4.89c-2.76-2-5.57-2.52-8.53-1.95C178.84,115.68,179.24,114.95,180.33,114.34z M165.88,120.34
			c0.01-0.17,0.02-0.34,0.03-0.51c0.29,0.41,0.58,0.82,0.89,1.26c-1.4,2.26-3.15,4.01-5.74,4.68c-0.43,0.11-1.21-0.05-1.44-0.37
			c-0.87-1.22-1.58-2.55-2.32-3.78C160.38,121.16,163.13,120.75,165.88,120.34z"/>
	</g>
</g>
<g id="Layer_5">
</g>
<g id="Layer_6">
</g>
<g id="Layer_7">
</g>
<g id="Layer_8">
</g>
<g id="Layer_9">
</g>
<g id="Layer_10">
</g>
<g id="Layer_11">
</g>
<g id="Layer_12">
</g>
<g id="Layer_13">
</g>
<g id="Layer_14">
</g>
<g id="Layer_15">
</g>
</svg>
