<?xml version="1.0" encoding="utf-8"?>
<!-- Generator: Adobe Illustrator 27.8.1, SVG Export Plug-In . SVG Version: 6.00 Build 0)  -->
<svg version="1.1" xmlns="http://www.w3.org/2000/svg" xmlns:xlink="http://www.w3.org/1999/xlink" x="0px" y="0px"
	 viewBox="0 0 350 230" style="enable-background:new 0 0 350 230;" xml:space="preserve">
<style type="text/css">
	.st0{fill:#1C75BC;stroke:#F1F2F2;stroke-miterlimit:10;}
	.st1{fill:#FFFFFF;stroke:#F1F2F2;stroke-miterlimit:10;}
	.st2{fill:#FFC648;stroke:#F1F2F2;stroke-miterlimit:10;}
	.st3{fill:#32D3F3;}
	.st4{fill:#825300;}
	.st5{fill:#AF2300;}
	.st6{fill:#AE6529;}
	.st7{fill:#A09F47;}
	.st8{fill:#003D50;}
	.st9{fill:#821600;}
	.st10{fill:#660C02;}
	.st11{fill:#974200;}
	.st12{fill:#725200;}
	.st13{fill:#AA5B08;}
	.st14{fill:#2B3990;}
	.st15{fill:#877F00;}
	.st16{fill:#9F00FF;}
	.st17{fill:#15FF00;}
	.st18{fill:#8D6195;}
	.st19{fill:#FFBA7B;}
	.st20{fill:#40006D;}
	.st21{fill:#074C00;}
	.st22{fill:#012A3F;}
</style>
<g id="Layer_1">
</g>
<g id="Layer_2">
</g>
<g id="Layer_3">
</g>
<g id="Layer_4">
</g>
<g id="Layer_5">
	<g>
		<path class="st8" d="M129.59,96.57c0-24.72,19.62-44.94,43.31-45.45c10.72-0.23,19.89,3.92,27.44,11.34
			c10.28,10.1,15.89,22.31,14.93,36.95c-0.61,9.39-4.29,17.61-10.7,24.58c-12.18,13.23-27.15,16.88-44.07,12.01
			c-16.5-4.75-26.39-16.11-30.14-32.8C129.79,100.71,129.75,98.11,129.59,96.57z M187.23,56.5c-0.03,0.64-0.06,0.7-0.04,0.73
			c0.17,0.23,0.35,0.46,0.54,0.68c4.28,4.89,7.14,10.51,8.46,16.88c2.12,10.22-3.45,18.52-13.73,20.28
			c-4.02,0.69-8.11,0.97-12.17,1.47c-15.96,1.97-19.65,17.49-12.28,28.02c3.5,5.01,8.5,7.9,14.28,9.53
			c0.99,0.28,2.08,0.48,3.09,0.41c17.04-1.27,31.09-12.68,35-30.19c3.69-16.54-1.39-30.7-14.37-41.76
			C193.4,60.33,190.34,58.62,187.23,56.5z M185.36,77.84c-0.04-4.19-3.99-7.97-8.25-7.91c-4.45,0.07-8.24,3.62-7.92,7.82
			c0.28,3.68,3.28,8.08,8.2,7.99C181.69,85.66,185.4,81.99,185.36,77.84z"/>
		<path class="st9" d="M218.04,82.59c3.57,10.25,3.02,20.44-1.01,30.54c-3.33,8.33-11.41,18.12-15.8,18.65
			c0.85-0.97,1.35-1.68,1.98-2.23c7.55-6.56,12.66-14.6,14.8-24.42c1.39-6.38,1.22-12.75-0.26-19.11c-0.26-1.1-0.4-2.23-0.59-3.34
			C217.45,82.65,217.75,82.62,218.04,82.59z M185.99,49.97c1.18,0.57,2.36,1.17,3.56,1.7c9.7,4.31,17.27,10.93,22.25,20.41
			c0.42,0.8,1.25,1.39,1.89,2.08c-0.22-0.95-0.24-2.01-0.69-2.84c-5.1-9.41-12.62-16.21-22.37-20.56c-1.41-0.63-2.95-0.94-4.43-1.4
			C186.13,49.57,186.06,49.77,185.99,49.97z M177.11,104.95c-4.49,0.03-8.02,3.36-7.8,7.65c0.17,3.31,3.08,7.91,7.9,7.85
			c4.43-0.06,8.05-3.51,8.02-7.77C185.2,108.51,181.44,104.92,177.11,104.95z"/>
	</g>
</g>
<g id="Layer_6">
</g>
<g id="Layer_7">
</g>
<g id="Layer_8">
</g>
<g id="Layer_9">
</g>
<g id="Layer_10">
</g>
<g id="Layer_11">
</g>
<g id="Layer_12">
</g>
<g id="Layer_13">
</g>
<g id="Layer_14">
</g>
<g id="Layer_15">
</g>
</svg>
