<?xml version="1.0" encoding="utf-8"?>
<!-- Generator: Adobe Illustrator 27.8.1, SVG Export Plug-In . SVG Version: 6.00 Build 0)  -->
<svg version="1.1" xmlns="http://www.w3.org/2000/svg" xmlns:xlink="http://www.w3.org/1999/xlink" x="0px" y="0px"
	 viewBox="0 0 350 230" style="enable-background:new 0 0 350 230;" xml:space="preserve">
<style type="text/css">
	.st0{fill:#1C75BC;stroke:#F1F2F2;stroke-miterlimit:10;}
	.st1{fill:#FFFFFF;stroke:#F1F2F2;stroke-miterlimit:10;}
	.st2{fill:#FFC648;stroke:#F1F2F2;stroke-miterlimit:10;}
	.st3{fill:#32D3F3;}
	.st4{fill:#825300;}
	.st5{fill:#AF2300;}
	.st6{fill:#AE6529;}
	.st7{fill:#A09F47;}
	.st8{fill:#003D50;}
	.st9{fill:#821600;}
	.st10{fill:#660C02;}
	.st11{fill:#974200;}
	.st12{fill:#725200;}
	.st13{fill:#AA5B08;}
	.st14{fill:#2B3990;}
	.st15{fill:#877F00;}
	.st16{fill:#9F00FF;}
	.st17{fill:#15FF00;}
	.st18{fill:#8D6195;}
	.st19{fill:#FFBA7B;}
	.st20{fill:#40006D;}
	.st21{fill:#074C00;}
	.st22{fill:#012A3F;}
</style>
<g id="Layer_1">
</g>
<g id="Layer_2">
</g>
<g id="Layer_3">
</g>
<g id="Layer_4">
</g>
<g id="Layer_5">
</g>
<g id="Layer_6">
</g>
<g id="Layer_7">
	<g>
		<path class="st11" d="M191.76,116.18c1.3,0.33,2.29,0.64,3.3,0.83c6.51,1.26,11.79-0.9,15.81-6.01c4.02-5.12,5.1-11.09,4.46-17.45
			c-0.06-0.58-0.21-1.16-0.38-1.73c-1.48-4.94-5.85-6.33-9.72-2.91c-1.59,1.4-2.87,3.23-4.02,5.04
			c-4.39,6.89-10.14,12.08-18.15,14.16c-3.23,0.84-6.7,0.75-10.19,1.1c0.31,1.15,0.78,2.55,1.06,4c1.68,8.69-2.09,16.38-10.08,20.69
			c-13.24,7.16-31.16,2.63-39.39-10c-3.23-4.96-4.59-10.4-3.76-16.3c0.1-0.7,0.69-1.34,1.06-2c0.35,0.63,0.86,1.23,1.01,1.9
			c4.03,18.52,21.28,23.66,32.73,20.13c4.16-1.28,7.66-3.58,8.76-8.2c1.6-6.73-3.71-13.48-11.16-14.26c-1.5-0.16-3.06-0.01-4.49-0.4
			c-0.92-0.25-2.03-1.05-2.39-1.89c-1-2.34-1.6-4.84-2.46-7.24c-0.51-1.41-0.01-2.22,1.29-2.49c1.34-0.28,2.72-0.41,4.09-0.42
			c4.58-0.04,8.19-1.87,10.38-5.91c2.23-4.13,1.63-8.26-0.81-12.13c-1.57-2.49-4.28-2.38-6.71-2.28c-5.71,0.24-9.85,3.18-12.68,8.06
			c-0.16,0.28-0.3,0.58-0.46,0.87c-0.15,0.28-0.32,0.57-0.5,0.89c-1.82-0.22-3.62-0.44-5.44-0.66c-1.17-4.82,3.83-12.03,10.28-14.94
			c7.49-3.38,16.61-0.35,20.91,7.14c3.79,6.6,3.59,15.79-5.68,22.33c0.4,0.26,0.75,0.48,1.09,0.71c3.17,2.17,6.31,4.4,9.54,6.49
			c0.73,0.48,1.8,0.74,2.67,0.66c4.82-0.45,8.76-2.63,11.61-6.56c1.81-2.49,3.53-5.05,5.1-7.7c7.56-12.77,21.81-10.03,28.87-1.43
			c7.06,8.6,7.76,23.25,1.2,32.19c-4.06,5.54-9.58,8.39-16.56,7.08c-5.11-0.95-8.56-4.06-9.91-9.23
			C191.88,117.71,191.87,117.08,191.76,116.18z"/>
		<path class="st12" d="M168.31,68.26c0.69,0.1,1.39,0.2,2.08,0.28c10.01,1.26,18.73-1.36,25.63-8.89c1.93-2.1,3.35-4.68,4.95-7.08
			c1.28-1.91,1.88-2.1,3.8-0.76c1.72,1.2,3.32,2.57,5.05,3.75c1.25,0.85,1.37,1.67,0.57,2.94c-4.72,7.52-11.3,12.46-19.98,14.48
			c-7.29,1.7-14.19,0.6-20.72-2.98c-0.58-0.32-1.1-0.74-1.65-1.12C168.13,68.67,168.22,68.46,168.31,68.26z M213.26,130.67
			c1.33-0.37,2.78-0.52,3.98-1.14c4.87-2.49,8.26-6.38,10.23-11.47c2.18-5.65,2.5-11.52,1.55-17.42
			c-1.37-8.6-4.94-16.06-12.35-21.09c-5.42-3.68-11.36-4.96-17.74-2.63c-0.62,0.23-1.16,0.7-1.74,1.06
			c0.66,0.36,1.11,0.35,1.53,0.24c8.56-2.21,15.67,0.32,21.42,6.78c5.14,5.77,7.32,12.82,7.69,20.39
			c0.53,10.79-4.47,20.1-13.44,23.41c-0.54,0.2-1,0.65-1.49,0.98C213.03,130.07,213.15,130.37,213.26,130.67z M151.74,141.91
			c0.61,0.07,1.23,0.2,1.84,0.18c7.48-0.2,14.1-2.73,19.71-7.64c3.28-2.87,5.38-6.57,6.31-10.86c0.72-3.27,0.62-6.52-0.6-9.66
			c-0.21-0.53-0.89-0.88-1.36-1.32c-0.08,0.6-0.28,1.22-0.22,1.81c0.24,2.31,0.95,4.65,0.78,6.92c-0.34,4.29-2.28,8.01-5.28,11.14
			c-4.47,4.66-10.19,6.7-16.37,7.81c-1.63,0.29-3.25,0.68-4.87,1.02C151.71,141.51,151.73,141.71,151.74,141.91z M184.84,51.44
			c0.13-0.58-0.34-1.77-0.76-1.89c-0.64-0.19-1.72,0.08-2.19,0.56c-1.03,1.07-1.72,2.46-2.7,3.59c-1.74,1.99-3.59,3.89-5.51,5.95
			C177.68,59.81,184.04,55.1,184.84,51.44z M170.83,84.17c-0.02-2.72-0.18-5.47-2.56-7.58c2.83,7.08,1.54,13.35-3.36,19.03
			C168.27,94.22,170.87,89.05,170.83,84.17z M200.78,100.17c-1.78,2.11-4.04,3.82-6.26,5.85c4.43-0.6,11.92-9.42,11.1-13.14
			C203.93,95.47,202.59,98.02,200.78,100.17z M148.01,78.32c1.54-0.59,3.32-0.56,5.34-0.85c-3.33-2.2-9,0.08-9.86,3.7
			C145.1,80.12,146.44,78.91,148.01,78.32z M211.56,52.45c-1.57-1.23-3.14-2.46-4.71-3.68c-0.17,0.21-0.34,0.42-0.52,0.63
			c1.51,1.3,3.01,2.61,4.52,3.91C211.1,53.02,211.33,52.73,211.56,52.45z"/>
	</g>
</g>
<g id="Layer_8">
</g>
<g id="Layer_9">
</g>
<g id="Layer_10">
</g>
<g id="Layer_11">
</g>
<g id="Layer_12">
</g>
<g id="Layer_13">
</g>
<g id="Layer_14">
</g>
<g id="Layer_15">
</g>
</svg>
