<?xml version="1.0" encoding="utf-8"?>
<!-- Generator: Adobe Illustrator 27.8.1, SVG Export Plug-In . SVG Version: 6.00 Build 0)  -->
<svg version="1.1" xmlns="http://www.w3.org/2000/svg" xmlns:xlink="http://www.w3.org/1999/xlink" x="0px" y="0px"
	 viewBox="0 0 350 230" style="enable-background:new 0 0 350 230;" xml:space="preserve">
<style type="text/css">
	.st0{fill:#1C75BC;stroke:#F1F2F2;stroke-miterlimit:10;}
	.st1{fill:#FFFFFF;stroke:#F1F2F2;stroke-miterlimit:10;}
	.st2{fill:#FFC648;stroke:#F1F2F2;stroke-miterlimit:10;}
	.st3{fill:#32D3F3;}
	.st4{fill:#825300;}
	.st5{fill:#AF2300;}
	.st6{fill:#AE6529;}
	.st7{fill:#A09F47;}
	.st8{fill:#003D50;}
	.st9{fill:#821600;}
	.st10{fill:#660C02;}
	.st11{fill:#974200;}
	.st12{fill:#725200;}
	.st13{fill:#AA5B08;}
	.st14{fill:#2B3990;}
	.st15{fill:#877F00;}
	.st16{fill:#9F00FF;}
	.st17{fill:#15FF00;}
	.st18{fill:#8D6195;}
	.st19{fill:#FFBA7B;}
	.st20{fill:#40006D;}
	.st21{fill:#074C00;}
	.st22{fill:#012A3F;}
</style>
<g id="Layer_1">
</g>
<g id="Layer_2">
</g>
<g id="Layer_3">
</g>
<g id="Layer_4">
</g>
<g id="Layer_5">
</g>
<g id="Layer_6">
</g>
<g id="Layer_7">
</g>
<g id="Layer_8">
	<g>
		<path class="st13" d="M128.5,93.57c0.63-19.98,15.09-38.53,33.77-43.32c20.15-5.17,40.97,5.44,48.34,25.25
			c6.78,18.24,3.95,35.22-8.98,49.96c-6.52,7.43-15.4,10.71-25.14,11.38c-20.48,1.41-39.19-11.06-45.91-30.44
			C129.13,102.24,128.53,97.95,128.5,93.57z M175.44,130.16c1.89-0.27,3.68-0.34,5.35-0.81c9.94-2.78,16.98-9.27,22.26-17.86
			c0.85-1.38,1.29-3.09,1.6-4.71c0.63-3.28,1.07-6.6,1.55-9.91c0.37-2.57,0.34-2.68-2.16-2.68c-9.37-0.02-18.74,0.04-28.11,0.07
			c-0.21,0-0.42,0.07-0.49,0.09C175.44,106.19,175.44,117.94,175.44,130.16z M167.86,129.22c-0.38-11.66-0.75-23.23-1.14-35.25
			c-10.18,0-20.39,0-30.64,0C134.63,110.35,149.8,127.45,167.86,129.22z M173.97,56.13c0,10.79,0,21.46,0,32.35
			c10.78,0,21.38,0,32,0C204.44,69.58,189.18,56.34,173.97,56.13z M166.82,56.64c-14.15,1.8-30.91,19.79-30.32,31.97
			c10.12,0,20.23,0,30.32,0C166.82,77.7,166.82,67.23,166.82,56.64z"/>
		<path class="st14" d="M188.09,46.89c0.87,0.2,1.79,0.27,2.6,0.61c11.01,4.61,19.34,12.25,24.95,22.74
			c4.33,8.08,6.32,16.75,5.77,25.95c-0.02,0.28,0.08,0.62-0.05,0.82c-0.32,0.5-0.74,0.94-1.12,1.4c-0.28-0.5-0.79-0.98-0.81-1.49
			c-0.12-2.5,0.1-5.03-0.17-7.51c-1.87-16.87-10.32-29.49-24.87-38.1c-1.82-1.08-3.68-2.1-5.5-3.18c-0.35-0.21-0.63-0.55-0.94-0.83
			C187.99,47.17,188.04,47.03,188.09,46.89z M218.57,104.19c-0.33,0.48-0.93,0.95-0.96,1.45c-0.53,8.34-3.98,15.38-9.58,21.4
			c-5.19,5.58-11.67,9.06-18.99,11.06c-0.5,0.14-0.86,0.79-1.28,1.21c0.54,0.11,1.11,0.39,1.62,0.3c4.43-0.72,8.43-2.62,12.15-4.99
			c10.58-6.76,16.62-16.4,17.91-29.45C219.3,105.02,218.93,104.6,218.57,104.19z M142.74,82.67c0.33-0.4,0.72-0.77,0.97-1.21
			c3.58-6.18,8.23-11.36,14.15-15.4c0.34-0.23,0.39-0.89,0.58-1.35c-0.47-0.01-1.08-0.23-1.4-0.01
			c-6.13,4.12-11.06,9.34-14.32,16.02c-0.26,0.52-0.3,1.15-0.44,1.74C142.43,82.52,142.58,82.59,142.74,82.67z"/>
	</g>
</g>
<g id="Layer_9">
</g>
<g id="Layer_10">
</g>
<g id="Layer_11">
</g>
<g id="Layer_12">
</g>
<g id="Layer_13">
</g>
<g id="Layer_14">
</g>
<g id="Layer_15">
</g>
</svg>
