<?xml version="1.0" encoding="utf-8"?>
<!-- Generator: Adobe Illustrator 27.8.1, SVG Export Plug-In . SVG Version: 6.00 Build 0)  -->
<svg version="1.1" xmlns="http://www.w3.org/2000/svg" xmlns:xlink="http://www.w3.org/1999/xlink" x="0px" y="0px"
	 viewBox="0 0 350 230" style="enable-background:new 0 0 350 230;" xml:space="preserve">
<style type="text/css">
	.st0{fill:#1C75BC;stroke:#F1F2F2;stroke-miterlimit:10;}
	.st1{fill:#FFFFFF;stroke:#F1F2F2;stroke-miterlimit:10;}
	.st2{fill:#FFC648;stroke:#F1F2F2;stroke-miterlimit:10;}
	.st3{fill:#32D3F3;}
	.st4{fill:#825300;}
	.st5{fill:#AF2300;}
	.st6{fill:#AE6529;}
	.st7{fill:#A09F47;}
	.st8{fill:#003D50;}
	.st9{fill:#821600;}
	.st10{fill:#660C02;}
	.st11{fill:#974200;}
	.st12{fill:#725200;}
	.st13{fill:#AA5B08;}
	.st14{fill:#2B3990;}
	.st15{fill:#877F00;}
	.st16{fill:#9F00FF;}
	.st17{fill:#15FF00;}
	.st18{fill:#8D6195;}
	.st19{fill:#FFBA7B;}
	.st20{fill:#40006D;}
	.st21{fill:#074C00;}
	.st22{fill:#012A3F;}
</style>
<g id="Layer_1">
</g>
<g id="Layer_2">
</g>
<g id="Layer_3">
</g>
<g id="Layer_4">
</g>
<g id="Layer_5">
</g>
<g id="Layer_6">
</g>
<g id="Layer_7">
</g>
<g id="Layer_8">
</g>
<g id="Layer_9">
	<g>
		<path class="st15" d="M172.11,52.15c8.84,0.36,15.23,3.14,19.92,9.23c7.61,9.88,3.76,21.93-8.17,25.57
			c-4.77,1.45-9.55,1.52-14.18-0.6c-4.92-2.25-7.73-7.52-6.48-12.28c0.9-3.44,3.14-5.68,6.66-6.45c1.75-0.38,3.39,0.04,4.62,1.43
			c1.13,1.28,0.82,2.72,0.18,4.1c-0.69,1.5-0.54,2.85,0.65,4c1.26,1.22,2.73,1.16,4.23,0.52c2.65-1.13,4.04-4.07,3.4-7.13
			c-1.42-6.79-9.05-10.1-15.47-6.71c-8.46,4.46-10.3,18.08-3.3,24.64c2.9,2.71,6.53,3.48,10.25,2.96c4.37-0.61,8.7-1.61,12.99-2.68
			c16.92-4.24,27.85,7.86,28.51,21.97c0.25,5.4-0.73,10.58-3.45,15.32c-2.65,4.63-6.78,7.02-11.98,7.86
			c-4.64,0.75-9.09,0.53-13.17-2.02c-5.33-3.33-8.1-8.13-7.8-14.47c0.3-6.22,3.33-10.71,9.08-13.19c5.22-2.25,10.72-0.48,13.17,4.13
			c1.21,2.29,1.45,4.68,0.29,7.06c-0.8,1.65-2.04,2.79-4.06,2.83c-1.99,0.03-3.1-1.09-3.93-2.69c-0.05-0.1-0.07-0.24-0.14-0.32
			c-0.76-0.79-1.52-1.57-2.28-2.35c-0.82,0.91-2,1.69-2.4,2.76c-1.91,5.04,2.83,10.44,8.45,9.76c5.16-0.62,9.2-4.85,9.9-10.49
			c0.51-4.11-0.28-8-2.29-11.64c-1.93-3.49-4.94-5.24-8.84-5.31c-2.49-0.05-5.02,0.11-7.48,0.48c-4.58,0.69-7.95,3.31-10.04,7.38
			c-1.3,2.53-2.22,5.25-3.26,7.9c-0.81,2.06-1.49,4.17-2.3,6.23c-2.46,6.22-6.95,10.24-13.35,12.11c-6.91,2.02-13.81,2.7-20.37-1.04
			c-12.02-6.86-12.93-23.9-1.79-32.13c3.01-2.22,6.4-3.28,10.16-3.1c5.63,0.27,9.76,4,10.59,9.57c0.48,3.28-0.01,6.41-1.55,9.33
			c-1.4,2.66-3.88,4-6.42,3.65c-2.86-0.39-4.27-2.53-3.42-5.29c0.31-1,0.96-1.91,1.15-2.91c0.19-1,0.41-2.58-0.12-3.01
			c-0.84-0.69-2.37-1.07-3.46-0.84c-3.18,0.66-5.31,4.93-4.25,8.47c1.49,4.95,5.39,7.23,10.11,8c9.37,1.53,15.38-5.63,13.06-15.31
			c-0.9-3.76-2.88-6.98-5.06-10.1c-2.9-4.15-6.12-8.13-8.6-12.53c-5.1-9.04-3.73-17.3,3.61-24.47c3.39-3.32,7.38-5.74,11.95-7.01
			C168.14,52.64,170.76,52.39,172.11,52.15z"/>
		<path class="st16" d="M170.74,48.28c0.6-0.09,1.19-0.25,1.79-0.25c8.76-0.07,16.49,2.6,22.31,9.33
			c4.89,5.65,6.46,12.27,4.32,19.59c-0.1,0.33-0.16,0.72-0.37,0.97c-0.23,0.26-0.61,0.37-0.93,0.54c-0.09-0.35-0.32-0.72-0.26-1.04
			c0.27-1.36,0.8-2.7,0.94-4.07c0.97-9.46-5.08-18.67-14.69-21.95c-3.27-1.12-6.79-1.51-10.21-2.19c-0.94-0.19-1.92-0.21-2.88-0.31
			C170.75,48.69,170.75,48.48,170.74,48.28z M203.62,86.02c0.49,0.34,0.97,0.7,1.48,1.02c3.72,2.39,6.99,5.25,9.35,9.04
			c3.26,5.23,4.51,10.93,3.99,17.05c-0.04,0.47,0.31,0.98,0.48,1.47c0.28-0.35,0.78-0.67,0.82-1.04c1.4-12.06-4.42-21.84-13.1-26.78
			c-0.87-0.5-1.83-0.84-2.74-1.26C203.8,85.69,203.71,85.86,203.62,86.02z M152.13,136.23c1,0.16,2.01,0.48,3,0.44
			c8.98-0.38,16.15-4,20.84-11.9c0.29-0.49,0.16-1.22,0.22-1.84c-0.48,0.35-1.16,0.6-1.42,1.08c-3.51,6.26-8.81,9.95-15.85,11.11
			c-2.21,0.36-4.49,0.39-6.73,0.57C152.17,135.88,152.15,136.06,152.13,136.23z M202.05,137.47c4.38-0.56,8.09-2.6,11.13-5.9
			c3.28-3.56,5.28-8.69,4.24-10.5c-1.02,2.36-1.72,4.94-3.16,7.02c-1.48,2.15-3.45,4.11-5.6,5.6c-2.05,1.42-4.59,2.13-6.92,3.15
			C201.85,137.05,201.95,137.26,202.05,137.47z"/>
	</g>
</g>
<g id="Layer_10">
</g>
<g id="Layer_11">
</g>
<g id="Layer_12">
</g>
<g id="Layer_13">
</g>
<g id="Layer_14">
</g>
<g id="Layer_15">
</g>
</svg>
