<?xml version="1.0" encoding="utf-8"?>
<!-- Generator: Adobe Illustrator 27.8.1, SVG Export Plug-In . SVG Version: 6.00 Build 0)  -->
<svg version="1.1" xmlns="http://www.w3.org/2000/svg" xmlns:xlink="http://www.w3.org/1999/xlink" x="0px" y="0px"
	 viewBox="0 0 350 230" style="enable-background:new 0 0 350 230;" xml:space="preserve">
<style type="text/css">
	.st0{fill:#191919;}
	.st1{fill:#FFFFFF;}
	.st2{fill:#FFCA55;}
	.st3{fill:#006865;}
	.st4{fill:#00AEB7;}
	.st5{display:none;fill:#006865;}
	.st6{font-family:'AdobeArabic-Regular';}
	.st7{font-size:35px;}
	.st8{fill:#EDC599;}
	.st9{fill:url(#SVGID_1_);}
	.st10{fill:#250B00;}
	.st11{fill:#FFDBD4;}
	.st12{fill:#231F20;}
	.st13{fill:#7F7F7F;}
	.st14{fill:#FFD468;}
	.st15{fill:#303030;}
	.st16{fill:#007D54;}
	.st17{fill:#EE3631;}
	.st18{fill:#2B2B2B;}
	.st19{fill:#FFB000;}
	.st20{opacity:0.35;fill:#FFFFFF;}
	.st21{fill:#E09C05;}
	.st22{fill:#A8112B;}
	.st23{fill:#FCB040;}
	.st24{fill:#3DA1D8;}
	.st25{fill:#0C8EBC;}
	.st26{fill:#EFC6A3;}
	.st27{fill:#B0DFFF;}
	.st28{fill-rule:evenodd;clip-rule:evenodd;fill:#FEFEFE;}
	.st29{fill:#006284;}
	.st30{fill:#5B5B5B;}
	.st31{fill:#EACAB0;}
	.st32{fill:#442B18;}
	.st33{fill:#663412;}
	.st34{fill:#C18B63;}
	.st35{fill:#3A1801;}
	.st36{fill:#616D0B;}
	.st37{fill:#98B11F;}
	.st38{fill:#606060;}
	.st39{fill:#E0E0E0;}
	.st40{fill-rule:evenodd;clip-rule:evenodd;fill:#FFE183;}
	.st41{fill-rule:evenodd;clip-rule:evenodd;fill:#FFA617;}
	.st42{fill:#FF6745;}
	.st43{fill-rule:evenodd;clip-rule:evenodd;fill:#63A642;}
	.st44{fill-rule:evenodd;clip-rule:evenodd;fill:#925056;}
	.st45{fill-rule:evenodd;clip-rule:evenodd;fill:#2C2F38;}
	.st46{fill:#A5A5A5;}
	.st47{fill:#FFEBB8;}
	.st48{fill:#FFA617;}
	.st49{fill:#AF121A;}
	.st50{fill:#C49718;}
	.st51{fill:#FFD961;}
	.st52{fill:#F93B00;}
	.st53{fill:#FFC02E;}
	.st54{fill:#FA6500;}
	.st55{fill:#9BB200;}
	.st56{fill:#FFF7D6;}
	.st57{fill:#3E9AFF;}
	.st58{fill:#3ED698;}
	.st59{fill:#0F935A;}
</style>
<g id="Layer_1">
</g>
<g id="Layer_2">
	<g>
		<g>
			<path class="st3" d="M195.6,58.08c-0.5,0.02-1.01,0.03-1.54,0l-0.74,0.01c0.01-0.03,0-0.05-0.03-0.06
				c-1.75-0.78-20.96-9.01-36.38,0.48c-5.13-0.3-19.92-2.37-15.15-16.17c0,0,3.02-11.11,12.53-8.18c0,0,9.97-20.4,31.04-7.98
				c0,0,4.69,2.67,6.16,5.17c0,0,5.66-2.06,10.78,0.41c1.92,0.93,3.77,2.49,5.21,5.03c0.52,0.91,0.9,1.89,1.16,2.91
				c0.08,0.28,0.15,0.59,0.22,0.93C210.66,49.21,204.36,57.6,195.6,58.08z M193.3,58.03c-1.75-0.78-20.96-9.01-36.38,0.48
				c0,0,0.01,0,0.01,0.01c0.25,0.14,4.66,2.62,3.74,8.53c0.01-0.01,0.02-0.01,0.04-0.01c4.36-1.39,8.99-2.17,13.79-2.25v-0.01
				c0.1,0,0.19-0.01,0.29-0.01c5.31,0,10.42,0.86,15.19,2.46c0.08,0.03,0.16,0.06,0.24,0.08c0.59-3.14,1.8-8.59,3.08-9.18
				c0.02-0.01,0.04-0.03,0.04-0.04C193.34,58.07,193.33,58.04,193.3,58.03z M176.65,89.38c-0.5,0-0.9,0.14-0.9,0.31
				c0,0.17,0.4,0.31,0.9,0.31c0.5,0,0.9-0.14,0.9-0.31C177.55,89.52,177.15,89.38,176.65,89.38z M178.29,87.65
				c-0.5,0-0.9,0.14-0.9,0.31c0,0.17,0.41,0.31,0.9,0.31c0.5,0,0.9-0.14,0.9-0.31C179.2,87.79,178.8,87.65,178.29,87.65z
				 M181.9,123.59c-0.02-0.47-0.02-0.94-0.05-1.41c-0.08-0.94-0.13-1.88-0.26-2.81c-0.21-1.88-0.59-3.73-1.08-5.54
				c0.15,1.88,0.36,3.73,0.44,5.6c0.11,1.86,0.16,3.72,0.16,5.58c0.02,1.86-0.05,3.72-0.15,5.58c-0.1,1.87-0.24,3.73-0.45,5.59
				c0.54-1.8,0.86-3.67,1.08-5.54c0.22-1.87,0.34-3.76,0.34-5.64C181.93,124.54,181.92,124.07,181.9,123.59z M183.13,94.94
				c-0.36,0.19-0.72,0.35-1.11,0.48c-0.75,0.27-1.57,0.46-2.35,0.82c0.43,0.02,0.85-0.02,1.28-0.07c0.42-0.06,0.83-0.15,1.25-0.29
				c0.41-0.15,0.8-0.35,1.14-0.63c0.34-0.27,0.64-0.6,0.85-0.97C183.82,94.52,183.48,94.75,183.13,94.94z M190.18,116.15
				c-0.03-0.81-0.08-1.63-0.14-2.44c-0.1-0.81-0.17-1.63-0.32-2.44c-0.26-1.62-0.67-3.22-1.24-4.76c-0.28-0.77-0.63-1.52-1.01-2.25
				c-0.41-0.71-0.85-1.42-1.45-1.98c0.88,1.37,1.4,2.9,1.86,4.43c0.44,1.54,0.79,3.11,1.03,4.69c0.28,1.58,0.45,3.18,0.63,4.78
				c0.06,0.8,0.15,1.61,0.22,2.41c0.06,0.81,0.11,1.62,0.21,2.43c0.09-0.81,0.13-1.62,0.18-2.44
				C190.18,117.78,190.18,116.97,190.18,116.15z M190.18,116.15c-0.03-0.81-0.08-1.63-0.14-2.44c-0.1-0.81-0.17-1.63-0.32-2.44
				c-0.26-1.62-0.67-3.22-1.24-4.76c-0.28-0.77-0.63-1.52-1.01-2.25c-0.41-0.71-0.85-1.42-1.45-1.98c0.88,1.37,1.4,2.9,1.86,4.43
				c0.44,1.54,0.79,3.11,1.03,4.69c0.28,1.58,0.45,3.18,0.63,4.78c0.06,0.8,0.15,1.61,0.22,2.41c0.06,0.81,0.11,1.62,0.21,2.43
				c0.09-0.81,0.13-1.62,0.18-2.44C190.18,117.78,190.18,116.97,190.18,116.15z M183.13,94.94c-0.36,0.19-0.72,0.35-1.11,0.48
				c-0.75,0.27-1.57,0.46-2.35,0.82c0.43,0.02,0.85-0.02,1.28-0.07c0.42-0.06,0.83-0.15,1.25-0.29c0.41-0.15,0.8-0.35,1.14-0.63
				c0.34-0.27,0.64-0.6,0.85-0.97C183.82,94.52,183.48,94.75,183.13,94.94z M181.9,123.59c-0.02-0.47-0.02-0.94-0.05-1.41
				c-0.08-0.94-0.13-1.88-0.26-2.81c-0.21-1.88-0.59-3.73-1.08-5.54c0.15,1.88,0.36,3.73,0.44,5.6c0.11,1.86,0.16,3.72,0.16,5.58
				c0.02,1.86-0.05,3.72-0.15,5.58c-0.1,1.87-0.24,3.73-0.45,5.59c0.54-1.8,0.86-3.67,1.08-5.54c0.22-1.87,0.34-3.76,0.34-5.64
				C181.93,124.54,181.92,124.07,181.9,123.59z M178.29,87.65c-0.5,0-0.9,0.14-0.9,0.31c0,0.17,0.41,0.31,0.9,0.31
				c0.5,0,0.9-0.14,0.9-0.31C179.2,87.79,178.8,87.65,178.29,87.65z M176.65,89.38c-0.5,0-0.9,0.14-0.9,0.31
				c0,0.17,0.4,0.31,0.9,0.31c0.5,0,0.9-0.14,0.9-0.31C177.55,89.52,177.15,89.38,176.65,89.38z M176.65,89.38
				c-0.5,0-0.9,0.14-0.9,0.31c0,0.17,0.4,0.31,0.9,0.31c0.5,0,0.9-0.14,0.9-0.31C177.55,89.52,177.15,89.38,176.65,89.38z
				 M178.29,87.65c-0.5,0-0.9,0.14-0.9,0.31c0,0.17,0.41,0.31,0.9,0.31c0.5,0,0.9-0.14,0.9-0.31
				C179.2,87.79,178.8,87.65,178.29,87.65z M181.9,123.59c-0.02-0.47-0.02-0.94-0.05-1.41c-0.08-0.94-0.13-1.88-0.26-2.81
				c-0.21-1.88-0.59-3.73-1.08-5.54c0.15,1.88,0.36,3.73,0.44,5.6c0.11,1.86,0.16,3.72,0.16,5.58c0.02,1.86-0.05,3.72-0.15,5.58
				c-0.1,1.87-0.24,3.73-0.45,5.59c0.54-1.8,0.86-3.67,1.08-5.54c0.22-1.87,0.34-3.76,0.34-5.64
				C181.93,124.54,181.92,124.07,181.9,123.59z M183.13,94.94c-0.36,0.19-0.72,0.35-1.11,0.48c-0.75,0.27-1.57,0.46-2.35,0.82
				c0.43,0.02,0.85-0.02,1.28-0.07c0.42-0.06,0.83-0.15,1.25-0.29c0.41-0.15,0.8-0.35,1.14-0.63c0.34-0.27,0.64-0.6,0.85-0.97
				C183.82,94.52,183.48,94.75,183.13,94.94z M190.18,116.15c-0.03-0.81-0.08-1.63-0.14-2.44c-0.1-0.81-0.17-1.63-0.32-2.44
				c-0.26-1.62-0.67-3.22-1.24-4.76c-0.28-0.77-0.63-1.52-1.01-2.25c-0.41-0.71-0.85-1.42-1.45-1.98c0.88,1.37,1.4,2.9,1.86,4.43
				c0.44,1.54,0.79,3.11,1.03,4.69c0.28,1.58,0.45,3.18,0.63,4.78c0.06,0.8,0.15,1.61,0.22,2.41c0.06,0.81,0.11,1.62,0.21,2.43
				c0.09-0.81,0.13-1.62,0.18-2.44C190.18,117.78,190.18,116.97,190.18,116.15z M176.65,89.38c-0.5,0-0.9,0.14-0.9,0.31
				c0,0.17,0.4,0.31,0.9,0.31c0.5,0,0.9-0.14,0.9-0.31C177.55,89.52,177.15,89.38,176.65,89.38z M178.29,87.65
				c-0.5,0-0.9,0.14-0.9,0.31c0,0.17,0.41,0.31,0.9,0.31c0.5,0,0.9-0.14,0.9-0.31C179.2,87.79,178.8,87.65,178.29,87.65z
				 M181.9,123.59c-0.02-0.47-0.02-0.94-0.05-1.41c-0.08-0.94-0.13-1.88-0.26-2.81c-0.21-1.88-0.59-3.73-1.08-5.54
				c0.15,1.88,0.36,3.73,0.44,5.6c0.11,1.86,0.16,3.72,0.16,5.58c0.02,1.86-0.05,3.72-0.15,5.58c-0.1,1.87-0.24,3.73-0.45,5.59
				c0.54-1.8,0.86-3.67,1.08-5.54c0.22-1.87,0.34-3.76,0.34-5.64C181.93,124.54,181.92,124.07,181.9,123.59z M183.13,94.94
				c-0.36,0.19-0.72,0.35-1.11,0.48c-0.75,0.27-1.57,0.46-2.35,0.82c0.43,0.02,0.85-0.02,1.28-0.07c0.42-0.06,0.83-0.15,1.25-0.29
				c0.41-0.15,0.8-0.35,1.14-0.63c0.34-0.27,0.64-0.6,0.85-0.97C183.82,94.52,183.48,94.75,183.13,94.94z M190.18,116.15
				c-0.03-0.81-0.08-1.63-0.14-2.44c-0.1-0.81-0.17-1.63-0.32-2.44c-0.26-1.62-0.67-3.22-1.24-4.76c-0.28-0.77-0.63-1.52-1.01-2.25
				c-0.41-0.71-0.85-1.42-1.45-1.98c0.88,1.37,1.4,2.9,1.86,4.43c0.44,1.54,0.79,3.11,1.03,4.69c0.28,1.58,0.45,3.18,0.63,4.78
				c0.06,0.8,0.15,1.61,0.22,2.41c0.06,0.81,0.11,1.62,0.21,2.43c0.09-0.81,0.13-1.62,0.18-2.44
				C190.18,117.78,190.18,116.97,190.18,116.15z M176.65,89.38c-0.5,0-0.9,0.14-0.9,0.31c0,0.17,0.4,0.31,0.9,0.31
				c0.5,0,0.9-0.14,0.9-0.31C177.55,89.52,177.15,89.38,176.65,89.38z M178.29,87.65c-0.5,0-0.9,0.14-0.9,0.31
				c0,0.17,0.41,0.31,0.9,0.31c0.5,0,0.9-0.14,0.9-0.31C179.2,87.79,178.8,87.65,178.29,87.65z M181.9,123.59
				c-0.02-0.47-0.02-0.94-0.05-1.41c-0.08-0.94-0.13-1.88-0.26-2.81c-0.21-1.88-0.59-3.73-1.08-5.54c0.15,1.88,0.36,3.73,0.44,5.6
				c0.11,1.86,0.16,3.72,0.16,5.58c0.02,1.86-0.05,3.72-0.15,5.58c-0.1,1.87-0.24,3.73-0.45,5.59c0.54-1.8,0.86-3.67,1.08-5.54
				c0.22-1.87,0.34-3.76,0.34-5.64C181.93,124.54,181.92,124.07,181.9,123.59z M183.13,94.94c-0.36,0.19-0.72,0.35-1.11,0.48
				c-0.75,0.27-1.57,0.46-2.35,0.82c0.43,0.02,0.85-0.02,1.28-0.07c0.42-0.06,0.83-0.15,1.25-0.29c0.41-0.15,0.8-0.35,1.14-0.63
				c0.34-0.27,0.64-0.6,0.85-0.97C183.82,94.52,183.48,94.75,183.13,94.94z M190.18,116.15c-0.03-0.81-0.08-1.63-0.14-2.44
				c-0.1-0.81-0.17-1.63-0.32-2.44c-0.26-1.62-0.67-3.22-1.24-4.76c-0.28-0.77-0.63-1.52-1.01-2.25c-0.41-0.71-0.85-1.42-1.45-1.98
				c0.88,1.37,1.4,2.9,1.86,4.43c0.44,1.54,0.79,3.11,1.03,4.69c0.28,1.58,0.45,3.18,0.63,4.78c0.06,0.8,0.15,1.61,0.22,2.41
				c0.06,0.81,0.11,1.62,0.21,2.43c0.09-0.81,0.13-1.62,0.18-2.44C190.18,117.78,190.18,116.97,190.18,116.15z M176.65,89.38
				c-0.5,0-0.9,0.14-0.9,0.31c0,0.17,0.4,0.31,0.9,0.31c0.5,0,0.9-0.14,0.9-0.31C177.55,89.52,177.15,89.38,176.65,89.38z
				 M178.29,87.65c-0.5,0-0.9,0.14-0.9,0.31c0,0.17,0.41,0.31,0.9,0.31c0.5,0,0.9-0.14,0.9-0.31
				C179.2,87.79,178.8,87.65,178.29,87.65z M181.9,123.59c-0.02-0.47-0.02-0.94-0.05-1.41c-0.08-0.94-0.13-1.88-0.26-2.81
				c-0.21-1.88-0.59-3.73-1.08-5.54c0.15,1.88,0.36,3.73,0.44,5.6c0.11,1.86,0.16,3.72,0.16,5.58c0.02,1.86-0.05,3.72-0.15,5.58
				c-0.1,1.87-0.24,3.73-0.45,5.59c0.54-1.8,0.86-3.67,1.08-5.54c0.22-1.87,0.34-3.76,0.34-5.64
				C181.93,124.54,181.92,124.07,181.9,123.59z M183.13,94.94c-0.36,0.19-0.72,0.35-1.11,0.48c-0.75,0.27-1.57,0.46-2.35,0.82
				c0.43,0.02,0.85-0.02,1.28-0.07c0.42-0.06,0.83-0.15,1.25-0.29c0.41-0.15,0.8-0.35,1.14-0.63c0.34-0.27,0.64-0.6,0.85-0.97
				C183.82,94.52,183.48,94.75,183.13,94.94z M190.18,116.15c-0.03-0.81-0.08-1.63-0.14-2.44c-0.1-0.81-0.17-1.63-0.32-2.44
				c-0.26-1.62-0.67-3.22-1.24-4.76c-0.28-0.77-0.63-1.52-1.01-2.25c-0.41-0.71-0.85-1.42-1.45-1.98c0.88,1.37,1.4,2.9,1.86,4.43
				c0.44,1.54,0.79,3.11,1.03,4.69c0.28,1.58,0.45,3.18,0.63,4.78c0.06,0.8,0.15,1.61,0.22,2.41c0.06,0.81,0.11,1.62,0.21,2.43
				c0.09-0.81,0.13-1.62,0.18-2.44C190.18,117.78,190.18,116.97,190.18,116.15z M176.65,89.38c-0.5,0-0.9,0.14-0.9,0.31
				c0,0.17,0.4,0.31,0.9,0.31c0.5,0,0.9-0.14,0.9-0.31C177.55,89.52,177.15,89.38,176.65,89.38z M178.29,87.65
				c-0.5,0-0.9,0.14-0.9,0.31c0,0.17,0.41,0.31,0.9,0.31c0.5,0,0.9-0.14,0.9-0.31C179.2,87.79,178.8,87.65,178.29,87.65z
				 M181.9,123.59c-0.02-0.47-0.02-0.94-0.05-1.41c-0.08-0.94-0.13-1.88-0.26-2.81c-0.21-1.88-0.59-3.73-1.08-5.54
				c0.15,1.88,0.36,3.73,0.44,5.6c0.11,1.86,0.16,3.72,0.16,5.58c0.02,1.86-0.05,3.72-0.15,5.58c-0.1,1.87-0.24,3.73-0.45,5.59
				c0.54-1.8,0.86-3.67,1.08-5.54c0.22-1.87,0.34-3.76,0.34-5.64C181.93,124.54,181.92,124.07,181.9,123.59z M183.13,94.94
				c-0.36,0.19-0.72,0.35-1.11,0.48c-0.75,0.27-1.57,0.46-2.35,0.82c0.43,0.02,0.85-0.02,1.28-0.07c0.42-0.06,0.83-0.15,1.25-0.29
				c0.41-0.15,0.8-0.35,1.14-0.63c0.34-0.27,0.64-0.6,0.85-0.97C183.82,94.52,183.48,94.75,183.13,94.94z M190.18,116.15
				c-0.03-0.81-0.08-1.63-0.14-2.44c-0.1-0.81-0.17-1.63-0.32-2.44c-0.26-1.62-0.67-3.22-1.24-4.76c-0.28-0.77-0.63-1.52-1.01-2.25
				c-0.41-0.71-0.85-1.42-1.45-1.98c0.88,1.37,1.4,2.9,1.86,4.43c0.44,1.54,0.79,3.11,1.03,4.69c0.28,1.58,0.45,3.18,0.63,4.78
				c0.06,0.8,0.15,1.61,0.22,2.41c0.06,0.81,0.11,1.62,0.21,2.43c0.09-0.81,0.13-1.62,0.18-2.44
				C190.18,117.78,190.18,116.97,190.18,116.15z M174.48,139.02v21.44c0.15,0.01,0.3,0.01,0.45,0.01v-21.44
				C174.78,139.03,174.63,139.03,174.48,139.02z M176.65,89.38c-0.5,0-0.9,0.14-0.9,0.31c0,0.17,0.4,0.31,0.9,0.31
				c0.5,0,0.9-0.14,0.9-0.31C177.55,89.52,177.15,89.38,176.65,89.38z M178.29,87.65c-0.5,0-0.9,0.14-0.9,0.31
				c0,0.17,0.41,0.31,0.9,0.31c0.5,0,0.9-0.14,0.9-0.31C179.2,87.79,178.8,87.65,178.29,87.65z M181.9,123.59
				c-0.02-0.47-0.02-0.94-0.05-1.41c-0.08-0.94-0.13-1.88-0.26-2.81c-0.21-1.88-0.59-3.73-1.08-5.54c0.15,1.88,0.36,3.73,0.44,5.6
				c0.11,1.86,0.16,3.72,0.16,5.58c0.02,1.86-0.05,3.72-0.15,5.58c-0.1,1.87-0.24,3.73-0.45,5.59c0.54-1.8,0.86-3.67,1.08-5.54
				c0.22-1.87,0.34-3.76,0.34-5.64C181.93,124.54,181.92,124.07,181.9,123.59z M183.13,94.94c-0.36,0.19-0.72,0.35-1.11,0.48
				c-0.75,0.27-1.57,0.46-2.35,0.82c0.43,0.02,0.85-0.02,1.28-0.07c0.42-0.06,0.83-0.15,1.25-0.29c0.41-0.15,0.8-0.35,1.14-0.63
				c0.34-0.27,0.64-0.6,0.85-0.97C183.82,94.52,183.48,94.75,183.13,94.94z M190.18,116.15c-0.03-0.81-0.08-1.63-0.14-2.44
				c-0.1-0.81-0.17-1.63-0.32-2.44c-0.26-1.62-0.67-3.22-1.24-4.76c-0.28-0.77-0.63-1.52-1.01-2.25c-0.41-0.71-0.85-1.42-1.45-1.98
				c0.88,1.37,1.4,2.9,1.86,4.43c0.44,1.54,0.79,3.11,1.03,4.69c0.28,1.58,0.45,3.18,0.63,4.78c0.06,0.8,0.15,1.61,0.22,2.41
				c0.06,0.81,0.11,1.62,0.21,2.43c0.09-0.81,0.13-1.62,0.18-2.44C190.18,117.78,190.18,116.97,190.18,116.15z M190.18,116.15
				c-0.03-0.81-0.08-1.63-0.14-2.44c-0.1-0.81-0.17-1.63-0.32-2.44c-0.26-1.62-0.67-3.22-1.24-4.76c-0.28-0.77-0.63-1.52-1.01-2.25
				c-0.41-0.71-0.85-1.42-1.45-1.98c0.88,1.37,1.4,2.9,1.86,4.43c0.44,1.54,0.79,3.11,1.03,4.69c0.28,1.58,0.45,3.18,0.63,4.78
				c0.06,0.8,0.15,1.61,0.22,2.41c0.06,0.81,0.11,1.62,0.21,2.43c0.09-0.81,0.13-1.62,0.18-2.44
				C190.18,117.78,190.18,116.97,190.18,116.15z M183.13,94.94c-0.36,0.19-0.72,0.35-1.11,0.48c-0.75,0.27-1.57,0.46-2.35,0.82
				c0.43,0.02,0.85-0.02,1.28-0.07c0.42-0.06,0.83-0.15,1.25-0.29c0.41-0.15,0.8-0.35,1.14-0.63c0.34-0.27,0.64-0.6,0.85-0.97
				C183.82,94.52,183.48,94.75,183.13,94.94z M181.9,123.59c-0.02-0.47-0.02-0.94-0.05-1.41c-0.08-0.94-0.13-1.88-0.26-2.81
				c-0.21-1.88-0.59-3.73-1.08-5.54c0.15,1.88,0.36,3.73,0.44,5.6c0.11,1.86,0.16,3.72,0.16,5.58c0.02,1.86-0.05,3.72-0.15,5.58
				c-0.1,1.87-0.24,3.73-0.45,5.59c0.54-1.8,0.86-3.67,1.08-5.54c0.22-1.87,0.34-3.76,0.34-5.64
				C181.93,124.54,181.92,124.07,181.9,123.59z M178.29,87.65c-0.5,0-0.9,0.14-0.9,0.31c0,0.17,0.41,0.31,0.9,0.31
				c0.5,0,0.9-0.14,0.9-0.31C179.2,87.79,178.8,87.65,178.29,87.65z M176.65,89.38c-0.5,0-0.9,0.14-0.9,0.31
				c0,0.17,0.4,0.31,0.9,0.31c0.5,0,0.9-0.14,0.9-0.31C177.55,89.52,177.15,89.38,176.65,89.38z M190.18,116.15
				c-0.03-0.81-0.08-1.63-0.14-2.44c-0.1-0.81-0.17-1.63-0.32-2.44c-0.26-1.62-0.67-3.22-1.24-4.76c-0.28-0.77-0.63-1.52-1.01-2.25
				c-0.41-0.71-0.85-1.42-1.45-1.98c0.88,1.37,1.4,2.9,1.86,4.43c0.44,1.54,0.79,3.11,1.03,4.69c0.28,1.58,0.45,3.18,0.63,4.78
				c0.06,0.8,0.15,1.61,0.22,2.41c0.06,0.81,0.11,1.62,0.21,2.43c0.09-0.81,0.13-1.62,0.18-2.44
				C190.18,117.78,190.18,116.97,190.18,116.15z M183.13,94.94c-0.36,0.19-0.72,0.35-1.11,0.48c-0.75,0.27-1.57,0.46-2.35,0.82
				c0.43,0.02,0.85-0.02,1.28-0.07c0.42-0.06,0.83-0.15,1.25-0.29c0.41-0.15,0.8-0.35,1.14-0.63c0.34-0.27,0.64-0.6,0.85-0.97
				C183.82,94.52,183.48,94.75,183.13,94.94z M181.9,123.59c-0.02-0.47-0.02-0.94-0.05-1.41c-0.08-0.94-0.13-1.88-0.26-2.81
				c-0.21-1.88-0.59-3.73-1.08-5.54c0.15,1.88,0.36,3.73,0.44,5.6c0.11,1.86,0.16,3.72,0.16,5.58c0.02,1.86-0.05,3.72-0.15,5.58
				c-0.1,1.87-0.24,3.73-0.45,5.59c0.54-1.8,0.86-3.67,1.08-5.54c0.22-1.87,0.34-3.76,0.34-5.64
				C181.93,124.54,181.92,124.07,181.9,123.59z M178.29,87.65c-0.5,0-0.9,0.14-0.9,0.31c0,0.17,0.41,0.31,0.9,0.31
				c0.5,0,0.9-0.14,0.9-0.31C179.2,87.79,178.8,87.65,178.29,87.65z M176.65,89.38c-0.5,0-0.9,0.14-0.9,0.31
				c0,0.17,0.4,0.31,0.9,0.31c0.5,0,0.9-0.14,0.9-0.31C177.55,89.52,177.15,89.38,176.65,89.38z M190.18,116.15
				c-0.03-0.81-0.08-1.63-0.14-2.44c-0.1-0.81-0.17-1.63-0.32-2.44c-0.26-1.62-0.67-3.22-1.24-4.76c-0.28-0.77-0.63-1.52-1.01-2.25
				c-0.41-0.71-0.85-1.42-1.45-1.98c0.88,1.37,1.4,2.9,1.86,4.43c0.44,1.54,0.79,3.11,1.03,4.69c0.28,1.58,0.45,3.18,0.63,4.78
				c0.06,0.8,0.15,1.61,0.22,2.41c0.06,0.81,0.11,1.62,0.21,2.43c0.09-0.81,0.13-1.62,0.18-2.44
				C190.18,117.78,190.18,116.97,190.18,116.15z M183.13,94.94c-0.36,0.19-0.72,0.35-1.11,0.48c-0.75,0.27-1.57,0.46-2.35,0.82
				c0.43,0.02,0.85-0.02,1.28-0.07c0.42-0.06,0.83-0.15,1.25-0.29c0.41-0.15,0.8-0.35,1.14-0.63c0.34-0.27,0.64-0.6,0.85-0.97
				C183.82,94.52,183.48,94.75,183.13,94.94z M181.9,123.59c-0.02-0.47-0.02-0.94-0.05-1.41c-0.08-0.94-0.13-1.88-0.26-2.81
				c-0.21-1.88-0.59-3.73-1.08-5.54c0.15,1.88,0.36,3.73,0.44,5.6c0.11,1.86,0.16,3.72,0.16,5.58c0.02,1.86-0.05,3.72-0.15,5.58
				c-0.1,1.87-0.24,3.73-0.45,5.59c0.54-1.8,0.86-3.67,1.08-5.54c0.22-1.87,0.34-3.76,0.34-5.64
				C181.93,124.54,181.92,124.07,181.9,123.59z M178.29,87.65c-0.5,0-0.9,0.14-0.9,0.31c0,0.17,0.41,0.31,0.9,0.31
				c0.5,0,0.9-0.14,0.9-0.31C179.2,87.79,178.8,87.65,178.29,87.65z M176.65,89.38c-0.5,0-0.9,0.14-0.9,0.31
				c0,0.17,0.4,0.31,0.9,0.31c0.5,0,0.9-0.14,0.9-0.31C177.55,89.52,177.15,89.38,176.65,89.38z M190.18,116.15
				c-0.03-0.81-0.08-1.63-0.14-2.44c-0.1-0.81-0.17-1.63-0.32-2.44c-0.26-1.62-0.67-3.22-1.24-4.76c-0.28-0.77-0.63-1.52-1.01-2.25
				c-0.41-0.71-0.85-1.42-1.45-1.98c0.88,1.37,1.4,2.9,1.86,4.43c0.44,1.54,0.79,3.11,1.03,4.69c0.28,1.58,0.45,3.18,0.63,4.78
				c0.06,0.8,0.15,1.61,0.22,2.41c0.06,0.81,0.11,1.62,0.21,2.43c0.09-0.81,0.13-1.62,0.18-2.44
				C190.18,117.78,190.18,116.97,190.18,116.15z M183.13,94.94c-0.36,0.19-0.72,0.35-1.11,0.48c-0.75,0.27-1.57,0.46-2.35,0.82
				c0.43,0.02,0.85-0.02,1.28-0.07c0.42-0.06,0.83-0.15,1.25-0.29c0.41-0.15,0.8-0.35,1.14-0.63c0.34-0.27,0.64-0.6,0.85-0.97
				C183.82,94.52,183.48,94.75,183.13,94.94z M181.9,123.59c-0.02-0.47-0.02-0.94-0.05-1.41c-0.08-0.94-0.13-1.88-0.26-2.81
				c-0.21-1.88-0.59-3.73-1.08-5.54c0.15,1.88,0.36,3.73,0.44,5.6c0.11,1.86,0.16,3.72,0.16,5.58c0.02,1.86-0.05,3.72-0.15,5.58
				c-0.1,1.87-0.24,3.73-0.45,5.59c0.54-1.8,0.86-3.67,1.08-5.54c0.22-1.87,0.34-3.76,0.34-5.64
				C181.93,124.54,181.92,124.07,181.9,123.59z M178.29,87.65c-0.5,0-0.9,0.14-0.9,0.31c0,0.17,0.41,0.31,0.9,0.31
				c0.5,0,0.9-0.14,0.9-0.31C179.2,87.79,178.8,87.65,178.29,87.65z M176.65,89.38c-0.5,0-0.9,0.14-0.9,0.31
				c0,0.17,0.4,0.31,0.9,0.31c0.5,0,0.9-0.14,0.9-0.31C177.55,89.52,177.15,89.38,176.65,89.38z M190.18,116.15
				c-0.03-0.81-0.08-1.63-0.14-2.44c-0.1-0.81-0.17-1.63-0.32-2.44c-0.26-1.62-0.67-3.22-1.24-4.76c-0.28-0.77-0.63-1.52-1.01-2.25
				c-0.41-0.71-0.85-1.42-1.45-1.98c0.88,1.37,1.4,2.9,1.86,4.43c0.44,1.54,0.79,3.11,1.03,4.69c0.28,1.58,0.45,3.18,0.63,4.78
				c0.06,0.8,0.15,1.61,0.22,2.41c0.06,0.81,0.11,1.62,0.21,2.43c0.09-0.81,0.13-1.62,0.18-2.44
				C190.18,117.78,190.18,116.97,190.18,116.15z M183.13,94.94c-0.36,0.19-0.72,0.35-1.11,0.48c-0.75,0.27-1.57,0.46-2.35,0.82
				c0.43,0.02,0.85-0.02,1.28-0.07c0.42-0.06,0.83-0.15,1.25-0.29c0.41-0.15,0.8-0.35,1.14-0.63c0.34-0.27,0.64-0.6,0.85-0.97
				C183.82,94.52,183.48,94.75,183.13,94.94z M181.9,123.59c-0.02-0.47-0.02-0.94-0.05-1.41c-0.08-0.94-0.13-1.88-0.26-2.81
				c-0.21-1.88-0.59-3.73-1.08-5.54c0.15,1.88,0.36,3.73,0.44,5.6c0.11,1.86,0.16,3.72,0.16,5.58c0.02,1.86-0.05,3.72-0.15,5.58
				c-0.1,1.87-0.24,3.73-0.45,5.59c0.54-1.8,0.86-3.67,1.08-5.54c0.22-1.87,0.34-3.76,0.34-5.64
				C181.93,124.54,181.92,124.07,181.9,123.59z M178.29,87.65c-0.5,0-0.9,0.14-0.9,0.31c0,0.17,0.41,0.31,0.9,0.31
				c0.5,0,0.9-0.14,0.9-0.31C179.2,87.79,178.8,87.65,178.29,87.65z M176.65,89.38c-0.5,0-0.9,0.14-0.9,0.31
				c0,0.17,0.4,0.31,0.9,0.31c0.5,0,0.9-0.14,0.9-0.31C177.55,89.52,177.15,89.38,176.65,89.38z M190.18,116.15
				c-0.03-0.81-0.08-1.63-0.14-2.44c-0.1-0.81-0.17-1.63-0.32-2.44c-0.26-1.62-0.67-3.22-1.24-4.76c-0.28-0.77-0.63-1.52-1.01-2.25
				c-0.41-0.71-0.85-1.42-1.45-1.98c0.88,1.37,1.4,2.9,1.86,4.43c0.44,1.54,0.79,3.11,1.03,4.69c0.28,1.58,0.45,3.18,0.63,4.78
				c0.06,0.8,0.15,1.61,0.22,2.41c0.06,0.81,0.11,1.62,0.21,2.43c0.09-0.81,0.13-1.62,0.18-2.44
				C190.18,117.78,190.18,116.97,190.18,116.15z M183.13,94.94c-0.36,0.19-0.72,0.35-1.11,0.48c-0.75,0.27-1.57,0.46-2.35,0.82
				c0.43,0.02,0.85-0.02,1.28-0.07c0.42-0.06,0.83-0.15,1.25-0.29c0.41-0.15,0.8-0.35,1.14-0.63c0.34-0.27,0.64-0.6,0.85-0.97
				C183.82,94.52,183.48,94.75,183.13,94.94z M181.9,123.59c-0.02-0.47-0.02-0.94-0.05-1.41c-0.08-0.94-0.13-1.88-0.26-2.81
				c-0.21-1.88-0.59-3.73-1.08-5.54c0.15,1.88,0.36,3.73,0.44,5.6c0.11,1.86,0.16,3.72,0.16,5.58c0.02,1.86-0.05,3.72-0.15,5.58
				c-0.1,1.87-0.24,3.73-0.45,5.59c0.54-1.8,0.86-3.67,1.08-5.54c0.22-1.87,0.34-3.76,0.34-5.64
				C181.93,124.54,181.92,124.07,181.9,123.59z M178.29,87.65c-0.5,0-0.9,0.14-0.9,0.31c0,0.17,0.41,0.31,0.9,0.31
				c0.5,0,0.9-0.14,0.9-0.31C179.2,87.79,178.8,87.65,178.29,87.65z M176.65,89.38c-0.5,0-0.9,0.14-0.9,0.31
				c0,0.17,0.4,0.31,0.9,0.31c0.5,0,0.9-0.14,0.9-0.31C177.55,89.52,177.15,89.38,176.65,89.38z M190.47,67.41
				c-0.09-0.03-0.17-0.06-0.26-0.09h-0.01c-0.08-0.03-0.16-0.06-0.24-0.08c-4.77-1.6-9.88-2.46-15.19-2.46
				c-0.1,0-0.19,0.01-0.29,0.01v0.01c0.15-0.01,0.3-0.01,0.45-0.01v21.25H175c5.61,0,10.16,1.71,10.16,3.81v3.13
				c0,0.48-0.24,0.94-0.67,1.36v1.13c0,0.24-0.06,0.48-0.18,0.71c0.4,0.4,0.62,0.84,0.62,1.3c0,0,13.29,12.48,2.48,36.91
				c0,2.57-5.55,4.65-12.4,4.65h-0.07v21.44c-0.15,0-0.3,0-0.45-0.01v0.01c0.1,0,0.19,0.01,0.29,0.01
				c26.43,0,47.86-21.42,47.86-47.85C222.63,91.7,209.19,73.91,190.47,67.41z M205.84,125.52c-0.13,0.7-0.36,1.38-0.65,2.02
				c-0.68,1.51-2.2,4.12-4.27,3.38c-0.27-0.1-0.52-0.26-0.74-0.46c-0.41-0.37-1.09-1.12-1.65-2.39c-0.76-1.72-0.93-3.64-0.6-5.49
				c0.31-1.76,1.1-3.87,3.07-4.38c0.22-0.06,0.39-0.25,0.4-0.49l0.72-14.77c-0.23-0.09-0.4-0.32-0.41-0.58l-0.24-7.68
				c-0.01-0.37,0.28-0.67,0.65-0.67h1.75c0.37,0,0.66,0.3,0.65,0.67l-0.24,7.68c-0.01,0.3-0.23,0.55-0.51,0.61l-0.94,14.6
				c-0.02,0.33,0.12,0.65,0.38,0.85C204.19,119.22,206.55,121.59,205.84,125.52z M192.2,73.08c26.81,4.66,26.81,36.11,26.81,36.11
				C210.94,78.68,193.29,73.39,192.2,73.08z"/>
			<path class="st4" d="M164.41,131.24c-0.24-1.12-0.46-2.26-0.66-3.39c-0.4-2.27-0.74-4.53-0.94-6.82
				c-0.11-1.14-0.18-2.28-0.2-3.43c-0.04-1.14-0.03-2.28,0.05-3.42c0.13-2.28,0.48-4.55,1.23-6.75c-1.05,2.07-1.63,4.37-1.87,6.69
				c-0.26,2.32-0.22,4.66-0.02,6.98c0.21,2.32,0.6,4.61,1.13,6.87c0.52,2.26,1.19,4.48,2.04,6.63
				C164.9,133.5,164.63,132.37,164.41,131.24z M167.67,95.47c-0.38-0.13-0.75-0.29-1.1-0.48c-0.36-0.19-0.7-0.42-1.06-0.65
				c0.21,0.38,0.5,0.7,0.85,0.97c0.34,0.27,0.74,0.47,1.14,0.63c0.41,0.14,0.83,0.24,1.25,0.29c0.42,0.06,0.84,0.09,1.27,0.08
				C169.25,95.94,168.43,95.75,167.67,95.47z M171.71,87.65c-0.5,0-0.9,0.14-0.9,0.31c0,0.17,0.4,0.31,0.9,0.31
				c0.5,0,0.9-0.14,0.9-0.31C172.61,87.79,172.2,87.65,171.71,87.65z M173.35,89.38c-0.5,0-0.9,0.14-0.9,0.31
				c0,0.17,0.41,0.31,0.9,0.31c0.5,0,0.9-0.14,0.9-0.31C174.26,89.52,173.86,89.38,173.35,89.38z M173.35,89.38
				c-0.5,0-0.9,0.14-0.9,0.31c0,0.17,0.41,0.31,0.9,0.31c0.5,0,0.9-0.14,0.9-0.31C174.26,89.52,173.86,89.38,173.35,89.38z
				 M171.71,87.65c-0.5,0-0.9,0.14-0.9,0.31c0,0.17,0.4,0.31,0.9,0.31c0.5,0,0.9-0.14,0.9-0.31
				C172.61,87.79,172.2,87.65,171.71,87.65z M167.67,95.47c-0.38-0.13-0.75-0.29-1.1-0.48c-0.36-0.19-0.7-0.42-1.06-0.65
				c0.21,0.38,0.5,0.7,0.85,0.97c0.34,0.27,0.74,0.47,1.14,0.63c0.41,0.14,0.83,0.24,1.25,0.29c0.42,0.06,0.84,0.09,1.27,0.08
				C169.25,95.94,168.43,95.75,167.67,95.47z M164.41,131.24c-0.24-1.12-0.46-2.26-0.66-3.39c-0.4-2.27-0.74-4.53-0.94-6.82
				c-0.11-1.14-0.18-2.28-0.2-3.43c-0.04-1.14-0.03-2.28,0.05-3.42c0.13-2.28,0.48-4.55,1.23-6.75c-1.05,2.07-1.63,4.37-1.87,6.69
				c-0.26,2.32-0.22,4.66-0.02,6.98c0.21,2.32,0.6,4.61,1.13,6.87c0.52,2.26,1.19,4.48,2.04,6.63
				C164.9,133.5,164.63,132.37,164.41,131.24z M164.41,131.24c-0.24-1.12-0.46-2.26-0.66-3.39c-0.4-2.27-0.74-4.53-0.94-6.82
				c-0.11-1.14-0.18-2.28-0.2-3.43c-0.04-1.14-0.03-2.28,0.05-3.42c0.13-2.28,0.48-4.55,1.23-6.75c-1.05,2.07-1.63,4.37-1.87,6.69
				c-0.26,2.32-0.22,4.66-0.02,6.98c0.21,2.32,0.6,4.61,1.13,6.87c0.52,2.26,1.19,4.48,2.04,6.63
				C164.9,133.5,164.63,132.37,164.41,131.24z M167.67,95.47c-0.38-0.13-0.75-0.29-1.1-0.48c-0.36-0.19-0.7-0.42-1.06-0.65
				c0.21,0.38,0.5,0.7,0.85,0.97c0.34,0.27,0.74,0.47,1.14,0.63c0.41,0.14,0.83,0.24,1.25,0.29c0.42,0.06,0.84,0.09,1.27,0.08
				C169.25,95.94,168.43,95.75,167.67,95.47z M171.71,87.65c-0.5,0-0.9,0.14-0.9,0.31c0,0.17,0.4,0.31,0.9,0.31
				c0.5,0,0.9-0.14,0.9-0.31C172.61,87.79,172.2,87.65,171.71,87.65z M173.35,89.38c-0.5,0-0.9,0.14-0.9,0.31
				c0,0.17,0.41,0.31,0.9,0.31c0.5,0,0.9-0.14,0.9-0.31C174.26,89.52,173.86,89.38,173.35,89.38z M164.41,131.24
				c-0.24-1.12-0.46-2.26-0.66-3.39c-0.4-2.27-0.74-4.53-0.94-6.82c-0.11-1.14-0.18-2.28-0.2-3.43c-0.04-1.14-0.03-2.28,0.05-3.42
				c0.13-2.28,0.48-4.55,1.23-6.75c-1.05,2.07-1.63,4.37-1.87,6.69c-0.26,2.32-0.22,4.66-0.02,6.98c0.21,2.32,0.6,4.61,1.13,6.87
				c0.52,2.26,1.19,4.48,2.04,6.63C164.9,133.5,164.63,132.37,164.41,131.24z M167.67,95.47c-0.38-0.13-0.75-0.29-1.1-0.48
				c-0.36-0.19-0.7-0.42-1.06-0.65c0.21,0.38,0.5,0.7,0.85,0.97c0.34,0.27,0.74,0.47,1.14,0.63c0.41,0.14,0.83,0.24,1.25,0.29
				c0.42,0.06,0.84,0.09,1.27,0.08C169.25,95.94,168.43,95.75,167.67,95.47z M171.71,87.65c-0.5,0-0.9,0.14-0.9,0.31
				c0,0.17,0.4,0.31,0.9,0.31c0.5,0,0.9-0.14,0.9-0.31C172.61,87.79,172.2,87.65,171.71,87.65z M173.35,89.38
				c-0.5,0-0.9,0.14-0.9,0.31c0,0.17,0.41,0.31,0.9,0.31c0.5,0,0.9-0.14,0.9-0.31C174.26,89.52,173.86,89.38,173.35,89.38z
				 M173.35,89.38c-0.5,0-0.9,0.14-0.9,0.31c0,0.17,0.41,0.31,0.9,0.31c0.5,0,0.9-0.14,0.9-0.31
				C174.26,89.52,173.86,89.38,173.35,89.38z M171.71,87.65c-0.5,0-0.9,0.14-0.9,0.31c0,0.17,0.4,0.31,0.9,0.31
				c0.5,0,0.9-0.14,0.9-0.31C172.61,87.79,172.2,87.65,171.71,87.65z M167.67,95.47c-0.38-0.13-0.75-0.29-1.1-0.48
				c-0.36-0.19-0.7-0.42-1.06-0.65c0.21,0.38,0.5,0.7,0.85,0.97c0.34,0.27,0.74,0.47,1.14,0.63c0.41,0.14,0.83,0.24,1.25,0.29
				c0.42,0.06,0.84,0.09,1.27,0.08C169.25,95.94,168.43,95.75,167.67,95.47z M164.41,131.24c-0.24-1.12-0.46-2.26-0.66-3.39
				c-0.4-2.27-0.74-4.53-0.94-6.82c-0.11-1.14-0.18-2.28-0.2-3.43c-0.04-1.14-0.03-2.28,0.05-3.42c0.13-2.28,0.48-4.55,1.23-6.75
				c-1.05,2.07-1.63,4.37-1.87,6.69c-0.26,2.32-0.22,4.66-0.02,6.98c0.21,2.32,0.6,4.61,1.13,6.87c0.52,2.26,1.19,4.48,2.04,6.63
				C164.9,133.5,164.63,132.37,164.41,131.24z M175.9,87.96c0,0.17-0.41,0.31-0.9,0.31h-0.07c-0.17-0.01-0.32-0.02-0.45-0.06
				c-0.24-0.05-0.39-0.15-0.39-0.25c0-0.11,0.15-0.2,0.39-0.25c0.13-0.03,0.28-0.05,0.45-0.06H175
				C175.5,87.65,175.9,87.79,175.9,87.96z M209.09,41.78c-0.38-3.93-2.6-7.73-6.06-9.75c-3.46-1.97-7.72-2.02-11.47-0.87
				c-2.15-3.05-5.58-4.93-8.81-6.6c-11.36-5.81-22.52-1.64-28.58,9.25c-3.37-1.06-7.14-0.1-9.44,2.62
				c-2.32,2.63-3.58,6.06-4.03,9.48c-0.51,3.5,1.01,7.19,3.98,9.15c3.55,2.46,7.77,3.28,12.07,3.52l0.1,0.05
				c3.09,1.78,4.2,5.12,3.78,8.41c-19.3,6.17-33.26,24.24-33.26,45.58c0,26.18,21.02,47.44,47.11,47.84
				c0.15,0.01,0.3,0.01,0.45,0.01v-21.44c-0.15,0-0.29,0-0.45-0.01c-6.61-0.1-11.88-2.14-11.88-4.65
				c-10.81-24.43,2.48-36.91,2.48-36.91c0-0.46,0.22-0.9,0.62-1.3c-0.12-0.23-0.18-0.47-0.18-0.71v-1.13
				c-0.43-0.42-0.67-0.87-0.67-1.36v-3.13c0-2.04,4.27-3.71,9.64-3.81c0.15-0.01,0.3-0.01,0.45-0.01V64.78c-0.15,0-0.3,0-0.45,0.01
				c-4.8,0.08-9.43,0.85-13.79,2.25c0.47-3.21-0.5-6.52-3.34-8.41c-0.05-0.04-0.09-0.07-0.13-0.09c-0.01-0.01-0.01-0.02-0.02-0.02
				c0.06-0.03,0.11-0.07,0.16-0.09c10.58-6.16,23.88-4.85,34.92-0.5h0.01c0.15,0.06,0.29,0.12,0.44,0.18c0.01,0,0.01,0,0.02,0.01
				c0.02,0.01,0.02,0.01,0.03,0.02c0.02,0.01,0.03,0.01,0.05,0.02c-0.59,0.57-0.85,1.45-1.15,2.19c-0.77,2.26-1.28,4.58-1.7,6.91
				c0.08,0.03,0.16,0.06,0.24,0.08h0.01c0.09,0.04,0.17,0.06,0.26,0.09c0.51-2.84,1.1-5.69,2.33-8.29c0.16-0.28,0.32-0.54,0.57-0.71
				c0.12-0.06,0.22-0.15,0.24-0.31V58.1c0,0,0.01-0.01,0.01-0.01v-0.04c-0.02-0.18-0.15-0.26-0.28-0.32
				c-0.04-0.02-0.08-0.04-0.12-0.05h-0.01c-3.88-1.67-7.97-2.77-12.12-3.42c-8.22-1.32-17.09-0.4-24.25,4.11l-0.01,0.01
				c-7.48-0.46-16.87-3.61-15.66-12.41c0.49-3.31,1.69-6.67,3.95-9.18c2.22-2.63,5.89-3.48,9.09-2.37l0.22,0.07l0.12-0.21
				c0,0,0-0.01,0.01-0.01c0.69,0.31,1.57,0.68,2.2,0.99c2.35,1.17,4.68,2.69,6.07,5c-1.14-3.45-4.82-5.41-8.23-6.05
				c7.66-13.42,20.42-14.99,32.77-6.51c1.48,1.05,3.01,2.2,4,3.73l0.08,0.11l0.08-0.02h0.01c2.29,4.22,0.38,8.73-2.88,12.13
				c-0.5,0.51-1.02,1.02-1.51,1.55c0.58-0.43,1.13-0.89,1.71-1.35c3.71-3.24,5.75-8.26,2.85-12.4c3.51-1.16,7.45-1.07,10.68,0.48
				c1.91,0.92,3.56,2.34,4.74,4.33c4.54,7.38,1.05,16.89-6.17,20.42c0.13-0.06,0.25-0.11,0.38-0.17c0.13-0.06,0.25-0.13,0.37-0.2
				c0.13-0.07,0.26-0.14,0.4-0.22c2.17-1.33,3.99-3.23,5.25-5.45c0.03-0.04,0.06-0.08,0.07-0.12c0.05-0.08,0.08-0.14,0.12-0.22
				c0.12-0.21,0.22-0.43,0.32-0.64c0.12-0.24,0.22-0.49,0.33-0.74C209.06,46.71,209.44,44.25,209.09,41.78z M145.87,93.94h0.29
				l-0.29,9.45h0.86l0.57-9.45h0.28l-0.28,9.45h0.86l0.57-9.45h0.28v9.45h1.14l0.29-9.45h0.28l0.27,12.07
				c0.01,0.49-0.28,0.94-0.73,1.13l-1.26,0.54v14.46c0.36,0,0.65,0.28,0.66,0.64l0.24,7.84c0.01,0.38-0.28,0.68-0.66,0.68h-1.78
				c-0.38,0-0.67-0.31-0.66-0.68l0.24-7.84c0.01-0.31,0.22-0.55,0.49-0.62l-0.25-14.77l-1.49-0.64c-0.31-0.13-0.5-0.44-0.48-0.77
				L145.87,93.94z M137.37,90.23c-17.59,30.83,12.97,58.73,15.99,61.38C114.07,120.28,136.59,91.21,137.37,90.23z"/>
		</g>
		<text transform="matrix(1 0 0 1 41.3575 188.8807)" class="st5 st6 st7">RESTAURANT &amp; FOOD</text>
	</g>
</g>
<g id="Layer_3">
</g>
<g id="Layer_4">
</g>
<g id="Layer_5">
</g>
<g id="Layer_6">
</g>
<g id="Layer_7">
</g>
<g id="Layer_8">
</g>
<g id="Layer_9">
</g>
<g id="Layer_10">
</g>
<g id="Layer_11">
</g>
<g id="Layer_12">
</g>
<g id="Layer_13">
</g>
<g id="Layer_14">
</g>
<g id="Layer_15">
</g>
</svg>
