<?xml version="1.0" encoding="utf-8"?>
<!-- Generator: Adobe Illustrator 27.8.1, SVG Export Plug-In . SVG Version: 6.00 Build 0)  -->
<svg version="1.1" xmlns="http://www.w3.org/2000/svg" xmlns:xlink="http://www.w3.org/1999/xlink" x="0px" y="0px"
	 viewBox="0 0 350 230" style="enable-background:new 0 0 350 230;" xml:space="preserve">
<style type="text/css">
	.st0{fill:#191919;}
	.st1{fill:#FFFFFF;}
	.st2{fill:#FFCA55;}
	.st3{fill:#006865;}
	.st4{fill:#00AEB7;}
	.st5{fill:#EDC599;}
	.st6{fill:url(#SVGID_1_);}
	.st7{fill:#250B00;}
	.st8{fill:#FFDBD4;}
	.st9{fill:#231F20;}
	.st10{fill:#7F7F7F;}
	.st11{fill:#FFD468;}
	.st12{fill:#303030;}
	.st13{fill:#007D54;}
	.st14{fill:#EE3631;}
	.st15{fill:#2B2B2B;}
	.st16{fill:#FFB000;}
	.st17{opacity:0.35;fill:#FFFFFF;}
	.st18{fill:#E09C05;}
	.st19{fill:#A8112B;}
	.st20{fill:#FCB040;}
	.st21{fill:#3DA1D8;}
	.st22{fill:#0C8EBC;}
	.st23{fill:#EFC6A3;}
	.st24{fill:#B0DFFF;}
	.st25{fill-rule:evenodd;clip-rule:evenodd;fill:#FEFEFE;}
	.st26{fill:#006284;}
	.st27{fill:#5B5B5B;}
	.st28{fill:#EACAB0;}
	.st29{fill:#442B18;}
	.st30{fill:#663412;}
	.st31{fill:#C18B63;}
	.st32{fill:#3A1801;}
	.st33{fill:#616D0B;}
	.st34{fill:#98B11F;}
	.st35{fill:#606060;}
	.st36{fill:#E0E0E0;}
	.st37{fill-rule:evenodd;clip-rule:evenodd;fill:#FFE183;}
	.st38{fill-rule:evenodd;clip-rule:evenodd;fill:#FFA617;}
	.st39{fill:#FF6745;}
	.st40{fill-rule:evenodd;clip-rule:evenodd;fill:#63A642;}
	.st41{fill-rule:evenodd;clip-rule:evenodd;fill:#925056;}
	.st42{fill-rule:evenodd;clip-rule:evenodd;fill:#2C2F38;}
	.st43{fill:#A5A5A5;}
	.st44{fill:#FFEBB8;}
	.st45{fill:#FFA617;}
	.st46{fill:#AF121A;}
	.st47{fill:#C49718;}
	.st48{display:none;fill:#C49718;}
	.st49{font-family:'MoneyHoney';}
	.st50{font-size:30px;}
	.st51{fill:#FFD961;}
	.st52{fill:#F93B00;}
	.st53{fill:#FFC02E;}
	.st54{fill:#FA6500;}
	.st55{fill:#9BB200;}
	.st56{fill:#FFF7D6;}
	.st57{fill:#3E9AFF;}
	.st58{fill:#3ED698;}
	.st59{fill:#0F935A;}
</style>
<g id="Layer_1">
</g>
<g id="Layer_2">
</g>
<g id="Layer_3">
</g>
<g id="Layer_4">
</g>
<g id="Layer_5">
</g>
<g id="Layer_6">
</g>
<g id="Layer_7">
</g>
<g id="Layer_8">
</g>
<g id="Layer_9">
</g>
<g id="Layer_10">
</g>
<g id="Layer_11">
</g>
<g id="Layer_12">
	<g>
		<g>
			<path class="st43" d="M38.21,84.79c0,0.41-0.17,0.78-0.44,1.05c-0.27,0.27-0.64,0.44-1.05,0.44h-0.4l0.02,30.26h-5.58
				l-0.01-30.26h-0.41c-0.82,0-1.49-0.67-1.49-1.49c0-0.41,0.17-0.78,0.44-1.05c0.27-0.27,0.64-0.44,1.05-0.44h0.41v-3.1
				c0-0.13,0.01-0.26,0.02-0.39v-0.01l-1.11-1.11l-0.04-0.04l-5.41-5.4l-0.02-31.54c0-0.92,0.75-1.67,1.67-1.67
				c0.93,0,1.67,0.75,1.67,1.67l0.02,30.15l1.6,1.59l-0.02-31.52c0-0.93,0.75-1.67,1.67-1.67c0.93,0,1.67,0.75,1.67,1.67l0.02,34.87
				l0.64,0.64c0.13-0.02,0.26-0.03,0.39-0.03c0.13,0,0.26,0.01,0.39,0.02h0.01l0.63-0.63l-0.02-34.88
				c-0.01-0.92,0.75-1.67,1.67-1.67c0.93,0,1.67,0.75,1.67,1.67l0.02,31.53l1.59-1.6l-0.02-30.15c0-0.93,0.75-1.67,1.67-1.67
				c0.93,0,1.67,0.75,1.67,1.67l0.02,31.54l-5.42,5.43l-1.13,1.13c0.02,0.13,0.03,0.26,0.03,0.39v3.1h0.41
				C37.54,83.3,38.21,83.97,38.21,84.79z M53,106.61h-0.15c0.91-5.59,4.05-25.81,4.07-40.88c0.02-17.66-5.49-26.14-7.03-26.14
				c-1.54,0-2.79,1.24-2.79,2.79l-0.08,64.23h-0.4c-0.82,0-1.49,0.67-1.49,1.49c0,0.41,0.17,0.78,0.44,1.05
				c0.27,0.27,0.64,0.44,1.05,0.44h0.41l-0.01,6.95h5.58l0.01-6.95H53c0.82,0,1.49-0.67,1.49-1.49c0-0.41-0.17-0.78-0.44-1.05
				C53.78,106.79,53.41,106.62,53,106.61z"/>
			<path class="st44" d="M99.3,120.68c0.9,0.76,1.15,1.61,0.13,2.99c-2.22,3.02-6.75,3.45-10.1,0.98c-1.43-1.05-2.41-2.47-2.9-3.97
				H52.68c-0.03,0.1-0.06,0.2-0.1,0.3c-0.16,0.5-0.36,0.98-0.62,1.45c-1.11,1.95-2.93,3.23-4.96,3.71c-1.83,0.43-3.82,0.2-5.58-0.8
				c-1.85-1.05-3.1-2.76-3.62-4.66H27.25c0.29,6.23,1.51,12.24,3.53,17.87c1.46,4.09,3.34,7.99,5.58,11.64
				c10.99,17.91,30.77,29.92,53.15,29.92c33.23,0,60.73-26.47,62.26-59.43H99.3z M38.8,145.09c-0.87,0-1.69-0.17-2.45-0.49
				c-2.33-0.96-3.97-3.26-3.97-5.94c0-2.68,1.64-4.97,3.97-5.94c0.76-0.31,1.59-0.48,2.46-0.48c3.55,0,6.43,2.88,6.43,6.43
				C45.23,142.21,42.35,145.09,38.8,145.09z M105.58,132.68c0.85-2.1,2.47-3.75,4.57-4.63c1.05-0.45,2.16-0.68,3.31-0.68
				c3.42,0,6.49,2.04,7.82,5.19c1.82,4.32-0.2,9.31-4.51,11.14c-1.06,0.45-2.17,0.68-3.31,0.68c-3.42,0-6.5-2.04-7.83-5.19
				C104.74,137.09,104.73,134.78,105.58,132.68z M69.17,134.08c0.99-1.74,3.2-2.35,4.95-1.36c1.74,0.99,2.35,3.2,1.36,4.95
				c-0.99,1.74-3.2,2.35-4.95,1.36C68.79,138.04,68.18,135.82,69.17,134.08z M60.66,155.53c-2.9,2.24-6.75,2.25-9.19,0.2
				c-0.34-0.27-0.65-0.6-0.93-0.96c-1.4-1.81-0.51-2.74,1.14-3.78l-2.41-3.11c-0.67-0.86-0.51-2.12,0.36-2.78l2.92-2.26l0.8-0.62
				c0.87-0.67,2.12-0.51,2.79,0.35l2.4,3.12c1.42-1.34,2.54-1.97,3.94-0.15C64.78,148.51,63.96,152.98,60.66,155.53z M63.09,133.16
				c-1.46,2.56-4.73,3.47-7.3,2.01c-2.56-1.45-3.47-4.73-2.01-7.29c1.45-2.56,4.73-3.47,7.29-2.01
				C63.64,127.32,64.55,130.59,63.09,133.16z M72.32,172.27c-2.95,0-5.35-2.4-5.35-5.36c0-2.95,2.4-5.35,5.35-5.35
				c2.95,0,5.35,2.4,5.35,5.35C77.67,169.87,75.28,172.27,72.32,172.27z M74.7,158.94c-4.26,0-7.73-3.47-7.73-7.73
				c0-4.26,3.47-7.73,7.73-7.73c4.27,0,7.73,3.47,7.73,7.73C82.44,155.47,78.97,158.94,74.7,158.94z M86.78,164.9
				c-2,0-3.63-1.63-3.63-3.63c0-2.01,1.63-3.63,3.63-3.63c2.01,0,3.63,1.63,3.63,3.63C90.41,163.27,88.79,164.9,86.78,164.9z
				 M90.8,139.5c0-2.95,2.4-5.35,5.35-5.35c2.95,0,5.35,2.4,5.35,5.35c0,2.95-2.4,5.36-5.35,5.36
				C93.2,144.86,90.8,142.45,90.8,139.5z M110.52,169.95c-1.25,3.27-4.43,5.46-7.94,5.46c-1.03,0-2.06-0.19-3.03-0.56
				c-2.12-0.81-3.8-2.4-4.72-4.47c-0.93-2.07-0.99-4.38-0.18-6.5c1.25-3.27,4.43-5.46,7.94-5.46c1.03,0,2.06,0.19,3.03,0.56
				C109.99,160.65,112.19,165.58,110.52,169.95z M119.88,163.14c-4.17,0-7.55-3.04-7.55-6.78c0-2.3,1.27-2.49,3.21-2.3v-3.94
				c0-1.09,0.9-1.98,1.98-1.98h4.71c1.09,0,1.98,0.89,1.98,1.98v3.94c1.94-0.19,3.21,0,3.21,2.3
				C127.43,160.1,124.05,163.14,119.88,163.14z M134.08,125.1c0.99-1.75,3.2-2.35,4.95-1.37c1.74,0.99,2.35,3.2,1.36,4.95
				c-0.99,1.75-3.2,2.35-4.95,1.37C133.71,129.06,133.09,126.84,134.08,125.1z M137.57,146.95c-2.56-1.46-3.47-4.73-2.01-7.3
				c1.46-2.56,4.73-3.47,7.3-2.01c2.56,1.45,3.47,4.73,2.01,7.29C143.41,147.51,140.13,148.41,137.57,146.95z"/>
			<path class="st45" d="M161.53,117.15c-0.39-0.39-0.92-0.62-1.47-0.62H18.96c-0.56,0-1.08,0.22-1.47,0.62
				c-0.39,0.39-0.6,0.93-0.6,1.48c0.22,19.22,7.88,37.26,21.55,50.79c13.68,13.54,31.82,20.99,51.07,20.99
				c19.25,0,37.39-7.45,51.07-20.99c13.67-13.53,21.32-31.57,21.55-50.79C162.14,118.08,161.92,117.55,161.53,117.15z M49.92,120.68
				c-0.07,0.16-0.14,0.32-0.23,0.47c-0.08,0.14-0.16,0.27-0.25,0.39c0,0.01-0.01,0.01-0.01,0.02c-0.04,0.06-0.08,0.12-0.13,0.17
				c-0.07,0.1-0.15,0.19-0.23,0.28c-0.06,0.07-0.13,0.14-0.19,0.21c-0.19,0.19-0.38,0.35-0.58,0.5c-0.05,0.04-0.1,0.08-0.16,0.11
				c-0.01,0.01-0.03,0.02-0.05,0.03c-0.1,0.08-0.21,0.14-0.32,0.2c0,0.01-0.01,0.01-0.01,0.01c-0.11,0.07-0.23,0.13-0.35,0.18
				c-0.07,0.04-0.13,0.07-0.2,0.09c-0.07,0.03-0.13,0.05-0.2,0.08c-0.09,0.04-0.19,0.07-0.28,0.1c-0.14,0.05-0.29,0.09-0.44,0.11
				c-0.05,0.01-0.1,0.02-0.16,0.03c-0.12,0.02-0.25,0.04-0.37,0.05c-1.02,0.11-2.09-0.09-3.05-0.63c-1-0.57-1.73-1.42-2.15-2.4
				H49.92z M37.79,120.68c0.53,1.91,1.77,3.62,3.62,4.66c1.76,1,3.75,1.23,5.58,0.8c2.03-0.47,3.86-1.76,4.96-3.71
				c0.26-0.47,0.47-0.96,0.62-1.45c0.04-0.1,0.07-0.2,0.1-0.3h33.76c0.49,1.51,1.46,2.92,2.9,3.97c3.35,2.47,7.88,2.04,10.1-0.98
				c1.02-1.38,0.76-2.24-0.13-2.99h52.46c-1.53,32.96-29.03,59.43-62.26,59.43c-22.38,0-42.16-12.01-53.15-29.92
				c-2.25-3.65-4.12-7.55-5.58-11.64c-2.01-5.63-3.23-11.63-3.53-17.87H37.79z M89.51,186.27c-0.57,0-1.14-0.01-1.71-0.02
				c-0.53-0.01-1.06-0.03-1.6-0.05c-1.1-0.05-2.19-0.13-3.28-0.24c-0.01,0-0.02,0-0.03-0.01c-0.15-0.01-0.3-0.03-0.45-0.04
				c-0.04-0.01-0.07-0.01-0.11-0.01c-0.03-0.01-0.07-0.01-0.1-0.01c-0.27-0.03-0.55-0.06-0.82-0.1c-0.22-0.02-0.43-0.05-0.65-0.08
				c-0.36-0.04-0.73-0.1-1.1-0.15c-0.02-0.01-0.04-0.01-0.07-0.01c-0.07-0.01-0.14-0.02-0.2-0.03c-0.01,0-0.02,0-0.04-0.01
				c-0.11-0.02-0.22-0.03-0.33-0.05c-0.06-0.01-0.12-0.02-0.18-0.02c-0.38-0.05-0.75-0.12-1.12-0.19c-0.53-0.09-1.05-0.19-1.57-0.29
				c-0.07-0.01-0.13-0.02-0.2-0.04c-0.01,0-0.02-0.01-0.04-0.01c-0.48-0.1-0.97-0.2-1.45-0.31c-0.58-0.13-1.15-0.27-1.73-0.41
				c-0.44-0.11-0.88-0.23-1.32-0.35c-0.09-0.02-0.18-0.05-0.27-0.08c-0.02-0.01-0.05-0.01-0.07-0.02c-0.46-0.13-0.93-0.26-1.38-0.41
				c-0.47-0.14-0.95-0.29-1.42-0.44c-0.36-0.12-0.72-0.25-1.08-0.37c-0.3-0.1-0.61-0.21-0.91-0.32c-1.32-0.48-2.61-0.99-3.89-1.55
				c-0.22-0.1-0.43-0.19-0.64-0.28c-0.22-0.09-0.42-0.19-0.63-0.29c-0.22-0.1-0.43-0.2-0.65-0.3c-0.32-0.15-0.63-0.3-0.94-0.45
				c-0.24-0.11-0.48-0.23-0.72-0.35c-0.75-0.38-1.48-0.77-2.21-1.17c-0.21-0.11-0.42-0.23-0.63-0.35c-0.04-0.02-0.07-0.04-0.1-0.06
				c-0.04-0.02-0.08-0.05-0.13-0.07c-0.29-0.16-0.59-0.33-0.88-0.51c-0.36-0.21-0.71-0.42-1.06-0.64c-0.01-0.01-0.02-0.01-0.03-0.02
				c-0.01-0.01-0.02-0.01-0.03-0.02c-0.19-0.12-0.39-0.24-0.57-0.36c-0.27-0.17-0.55-0.35-0.82-0.53c-0.27-0.18-0.54-0.35-0.8-0.53
				c-0.01-0.01-0.01-0.01-0.01-0.01c-0.01-0.01-0.01-0.01-0.02-0.01c-0.24-0.16-0.48-0.32-0.72-0.49c-0.37-0.25-0.74-0.51-1.1-0.77
				c-0.22-0.16-0.43-0.32-0.65-0.47c-0.32-0.23-0.63-0.47-0.94-0.7c-0.3-0.23-0.6-0.47-0.9-0.7c-0.04-0.03-0.08-0.06-0.11-0.09
				c-0.38-0.3-0.76-0.61-1.13-0.92c-0.41-0.34-0.82-0.68-1.23-1.03c-0.2-0.17-0.39-0.33-0.58-0.51c-0.6-0.53-1.19-1.07-1.77-1.63
				c-0.19-0.17-0.37-0.35-0.55-0.53c-0.07-0.07-0.14-0.13-0.2-0.2c-0.27-0.26-0.53-0.52-0.78-0.78c-0.04-0.04-0.09-0.09-0.13-0.13
				c-0.3-0.3-0.59-0.6-0.88-0.91c-0.32-0.33-0.62-0.66-0.93-0.99c-0.19-0.21-0.38-0.42-0.56-0.63c-0.08-0.09-0.16-0.18-0.24-0.27
				c-0.05-0.07-0.11-0.13-0.17-0.2c-0.13-0.16-0.26-0.3-0.39-0.46c-0.35-0.41-0.69-0.82-1.03-1.23l-0.01-0.01
				c-0.04-0.05-0.08-0.1-0.13-0.16c-0.02-0.02-0.04-0.04-0.05-0.07c-0.3-0.36-0.59-0.74-0.88-1.12c-0.25-0.32-0.5-0.64-0.74-0.97
				c-0.02-0.02-0.04-0.05-0.06-0.08c-0.25-0.33-0.5-0.68-0.75-1.02c-0.13-0.18-0.26-0.36-0.39-0.54c-0.15-0.2-0.29-0.41-0.43-0.61
				c-0.01-0.02-0.03-0.04-0.04-0.06c-0.18-0.25-0.35-0.49-0.51-0.74c-1.04-0.4-1.78-1.41-1.78-2.59v-0.22
				c-0.36-0.59-0.71-1.2-1.05-1.8c-0.15-0.26-0.29-0.51-0.43-0.77c-0.19-0.35-0.38-0.71-0.56-1.06c-0.16-0.31-0.32-0.62-0.48-0.93
				c-0.16-0.31-0.31-0.62-0.46-0.93c-0.16-0.32-0.3-0.63-0.45-0.94c-0.11-0.23-0.22-0.47-0.32-0.71c-0.07-0.15-0.14-0.31-0.21-0.47
				c-0.11-0.25-0.22-0.49-0.32-0.74c-0.2-0.46-0.39-0.93-0.58-1.4c-0.19-0.45-0.36-0.91-0.53-1.37c-0.15-0.38-0.29-0.76-0.42-1.15
				c-0.02-0.05-0.04-0.1-0.05-0.15c-0.07-0.2-0.14-0.39-0.2-0.6c-0.02-0.04-0.03-0.09-0.05-0.13c-0.12-0.35-0.24-0.7-0.35-1.06
				c-0.17-0.52-0.33-1.04-0.48-1.57c-0.16-0.51-0.3-1.03-0.44-1.54c-0.02-0.06-0.03-0.12-0.05-0.19c-0.01-0.02-0.01-0.04-0.02-0.07
				c-0.13-0.45-0.25-0.92-0.35-1.39c-0.13-0.53-0.26-1.07-0.38-1.61c-0.1-0.44-0.19-0.88-0.27-1.33c0-0.01-0.01-0.02-0.01-0.03
				c0-0.01,0-0.01-0.01-0.02c-0.03-0.16-0.06-0.33-0.09-0.5c-0.01-0.02-0.02-0.05-0.02-0.08c-0.08-0.44-0.16-0.87-0.23-1.31
				c-0.1-0.55-0.18-1.1-0.26-1.65c-0.08-0.56-0.16-1.11-0.22-1.67c-0.07-0.56-0.13-1.11-0.18-1.67c-0.01-0.04-0.01-0.08-0.01-0.11
				c-0.05-0.53-0.08-1.05-0.12-1.58c-0.04-0.56-0.07-1.13-0.1-1.7h2.04c0.02,0.38,0.04,0.76,0.06,1.14c0,0.02,0,0.04,0.01,0.06
				c0.01,0.22,0.02,0.45,0.04,0.67v0.01c0.03,0.43,0.07,0.85,0.1,1.29c0.04,0.38,0.07,0.77,0.11,1.15c0.03,0.26,0.06,0.53,0.09,0.79
				c0.04,0.35,0.09,0.71,0.14,1.06c0.01,0.11,0.03,0.23,0.05,0.35c0.06,0.43,0.13,0.85,0.19,1.29c0.17,1.02,0.35,2.04,0.57,3.05
				c0.21,1.01,0.44,2.01,0.71,3.01c0.13,0.5,0.26,1,0.4,1.49c0.14,0.5,0.29,0.99,0.44,1.48c0.16,0.49,0.32,0.98,0.48,1.46
				c0.16,0.48,0.32,0.96,0.5,1.43c0.02,0.05,0.04,0.11,0.06,0.17c0.16,0.43,0.32,0.87,0.49,1.29c0.36,0.96,0.76,1.91,1.18,2.85
				c0.01,0.04,0.03,0.07,0.05,0.11c0.19,0.42,0.38,0.84,0.58,1.26c0.06,0.14,0.13,0.27,0.19,0.41c0.16,0.34,0.32,0.68,0.5,1.01
				c0.17,0.35,0.35,0.7,0.53,1.05c0.07,0.13,0.14,0.27,0.21,0.4v0.01c0.05,0.08,0.09,0.16,0.13,0.24c0.19,0.35,0.38,0.69,0.57,1.03
				c0.24,0.42,0.48,0.84,0.72,1.26c0.01,0.02,0.03,0.05,0.05,0.08c0.19,0.33,0.39,0.66,0.59,0.98c0.04,0.06,0.08,0.12,0.11,0.18
				c0.02,0.03,0.04,0.06,0.05,0.09c0.06,0.1,0.12,0.19,0.18,0.29c0.01,0.01,0.01,0.02,0.01,0.02c0.18,0.29,0.37,0.58,0.56,0.87
				c0.04,0.05,0.07,0.1,0.1,0.16c0.01,0.02,0.02,0.04,0.04,0.06c0.24,0.37,0.49,0.74,0.74,1.1c0.06,0.09,0.12,0.19,0.19,0.27
				c2.34,3.37,5,6.54,7.97,9.48c12.52,12.37,29.11,19.19,46.71,19.19c17.61,0,34.2-6.81,46.72-19.19
				c12.02-11.88,18.95-27.58,19.67-44.38h2.04C156.4,157.04,126.14,186.27,89.51,186.27z M72.32,161.57c-2.95,0-5.35,2.4-5.35,5.35
				c0,2.95,2.4,5.36,5.35,5.36c2.95,0,5.35-2.4,5.35-5.36C77.67,163.97,75.28,161.57,72.32,161.57z M72.32,169.66
				c-1.51,0-2.74-1.23-2.74-2.74c0-1.51,1.23-2.74,2.74-2.74c1.51,0,2.74,1.23,2.74,2.74C75.07,168.43,73.84,169.66,72.32,169.66z
				 M96.15,134.15c-2.95,0-5.35,2.4-5.35,5.35c0,2.95,2.4,5.36,5.35,5.36c2.95,0,5.35-2.4,5.35-5.36
				C101.5,136.55,99.11,134.15,96.15,134.15z M96.15,142.24c-1.51,0-2.74-1.23-2.74-2.74c0-1.51,1.23-2.74,2.74-2.74
				s2.74,1.23,2.74,2.74C98.9,141.01,97.67,142.24,96.15,142.24z M74.7,143.48c-4.26,0-7.73,3.47-7.73,7.73
				c0,4.26,3.47,7.73,7.73,7.73c4.27,0,7.73-3.47,7.73-7.73C82.44,146.95,78.97,143.48,74.7,143.48z M74.7,156.33
				c-2.82,0-5.12-2.3-5.12-5.12c0-2.82,2.3-5.12,5.12-5.12c2.83,0,5.12,2.3,5.12,5.12C79.82,154.04,77.53,156.33,74.7,156.33z
				 M61.08,125.87c-2.56-1.45-5.84-0.55-7.29,2.01c-1.46,2.56-0.56,5.84,2.01,7.29c2.57,1.46,5.84,0.56,7.3-2.01
				C64.55,130.59,63.64,127.32,61.08,125.87z M60.82,131.87c-0.75,1.31-2.42,1.78-3.74,1.03c-1.32-0.75-1.78-2.43-1.03-3.74
				c0.75-1.31,2.43-1.78,3.74-1.03C61.1,128.88,61.57,130.56,60.82,131.87z M142.85,137.65c-2.57-1.46-5.84-0.56-7.3,2.01
				c-1.45,2.57-0.55,5.84,2.01,7.3s5.84,0.56,7.3-2.01C146.32,142.38,145.42,139.1,142.85,137.65z M142.6,143.65
				c-0.75,1.31-2.42,1.78-3.74,1.03c-1.32-0.75-1.78-2.42-1.03-3.74c0.75-1.31,2.42-1.78,3.74-1.03
				C142.88,140.66,143.34,142.34,142.6,143.65z M105.62,158.99c-0.97-0.38-2-0.56-3.03-0.56c-3.5,0-6.69,2.19-7.94,5.46
				c-0.81,2.12-0.75,4.43,0.18,6.5c0.93,2.07,2.61,3.66,4.72,4.47c0.97,0.37,2,0.56,3.03,0.56c3.5,0,6.69-2.19,7.94-5.46
				C112.19,165.58,109.99,160.65,105.62,158.99z M106.66,168.48c-0.65,1.67-2.28,2.8-4.08,2.8c-0.53,0-1.05-0.1-1.55-0.29
				c-1.08-0.41-1.94-1.23-2.42-2.29c-0.47-1.06-0.51-2.25-0.09-3.34c0.64-1.67,2.28-2.8,4.07-2.8c0.53,0,1.05,0.1,1.55,0.29
				C106.38,163.71,107.51,166.23,106.66,168.48z M121.28,132.56c-1.33-3.15-4.4-5.19-7.82-5.19c-1.14,0-2.25,0.23-3.31,0.68
				c-2.09,0.88-3.71,2.53-4.57,4.63c-0.85,2.1-0.84,4.41,0.05,6.5c1.33,3.16,4.41,5.19,7.83,5.19c1.14,0,2.25-0.23,3.31-0.68
				C121.07,141.87,123.1,136.88,121.28,132.56z M115.15,139.88c-0.54,0.23-1.11,0.35-1.69,0.35c-1.76,0-3.34-1.05-4.02-2.66
				c-0.45-1.08-0.46-2.26-0.02-3.34c0.44-1.08,1.27-1.92,2.34-2.38c0.54-0.23,1.11-0.34,1.7-0.34c1.75,0,3.33,1.04,4.02,2.66
				C118.4,136.39,117.36,138.95,115.15,139.88z"/>
			<path class="st46" d="M90.41,161.27c0,2-1.62,3.63-3.63,3.63c-2,0-3.63-1.63-3.63-3.63c0-2.01,1.63-3.63,3.63-3.63
				C88.79,157.63,90.41,159.26,90.41,161.27z M74.12,132.72c-1.75-0.99-3.96-0.38-4.95,1.36c-0.99,1.75-0.38,3.96,1.36,4.95
				c1.75,0.99,3.96,0.38,4.95-1.36C76.47,135.92,75.86,133.7,74.12,132.72z M139.03,123.73c-1.75-0.99-3.96-0.38-4.95,1.37
				c-0.99,1.74-0.38,3.96,1.36,4.95c1.75,0.99,3.96,0.38,4.95-1.37C141.39,126.94,140.77,124.72,139.03,123.73z M38.8,132.24
				c-0.87,0-1.7,0.17-2.46,0.48c-2.33,0.97-3.97,3.26-3.97,5.94c0,2.68,1.64,4.97,3.97,5.94c0.76,0.32,1.58,0.49,2.45,0.49
				c3.55,0,6.43-2.88,6.43-6.43C45.23,135.12,42.35,132.24,38.8,132.24z"/>
			<path class="st47" d="M127.43,156.36c0,3.74-3.38,6.78-7.55,6.78c-4.17,0-7.55-3.04-7.55-6.78c0-2.3,1.27-2.49,3.21-2.3v-3.94
				c0-1.09,0.9-1.98,1.98-1.98h4.71c1.09,0,1.98,0.89,1.98,1.98v3.94C126.16,153.88,127.43,154.07,127.43,156.36z M62.49,145.55
				c-1.4-1.82-2.53-1.19-3.94,0.15l-2.4-3.12c-0.67-0.86-1.92-1.02-2.79-0.35l-0.8,0.62l-2.92,2.26c-0.87,0.66-1.03,1.92-0.36,2.78
				l2.41,3.11c-1.66,1.03-2.55,1.97-1.14,3.78c0.27,0.36,0.59,0.68,0.93,0.96c2.44,2.04,6.29,2.03,9.19-0.2
				C63.96,152.98,64.78,148.51,62.49,145.55z"/>
		</g>
		<text transform="matrix(1 0 0 1 61.5814 108.8725)" class="st48 st49 st50">RESTAURANT &amp; FOOD</text>
	</g>
</g>
<g id="Layer_13">
</g>
<g id="Layer_14">
</g>
<g id="Layer_15">
</g>
</svg>
