<?xml version="1.0" encoding="utf-8"?>
<!-- Generator: Adobe Illustrator 27.8.1, SVG Export Plug-In . SVG Version: 6.00 Build 0)  -->
<svg version="1.1" xmlns="http://www.w3.org/2000/svg" xmlns:xlink="http://www.w3.org/1999/xlink" x="0px" y="0px"
	 viewBox="0 0 350 230" style="enable-background:new 0 0 350 230;" xml:space="preserve">
<style type="text/css">
	.st0{fill:#191919;}
	.st1{fill:#FFFFFF;}
	.st2{fill:#FFCA55;}
	.st3{display:none;fill:#FFCA55;}
	.st4{font-family:'MyriadHebrew-Regular';}
	.st5{font-size:30px;}
	.st6{fill:#006865;}
	.st7{fill:#00AEB7;}
	.st8{fill:#EDC599;}
	.st9{fill:url(#SVGID_1_);}
	.st10{fill:#250B00;}
	.st11{fill:#FFDBD4;}
	.st12{fill:#231F20;}
	.st13{fill:#7F7F7F;}
	.st14{fill:#FFD468;}
	.st15{fill:#303030;}
	.st16{fill:#007D54;}
	.st17{fill:#EE3631;}
	.st18{fill:#2B2B2B;}
	.st19{fill:#FFB000;}
	.st20{opacity:0.35;fill:#FFFFFF;}
	.st21{fill:#E09C05;}
	.st22{fill:#A8112B;}
	.st23{fill:#FCB040;}
	.st24{fill:#3DA1D8;}
	.st25{fill:#0C8EBC;}
	.st26{fill:#EFC6A3;}
	.st27{fill:#B0DFFF;}
	.st28{fill-rule:evenodd;clip-rule:evenodd;fill:#FEFEFE;}
	.st29{fill:#006284;}
	.st30{fill:#5B5B5B;}
	.st31{fill:#EACAB0;}
	.st32{fill:#442B18;}
	.st33{fill:#663412;}
	.st34{fill:#C18B63;}
	.st35{fill:#3A1801;}
	.st36{fill:#616D0B;}
	.st37{fill:#98B11F;}
	.st38{fill:#606060;}
	.st39{fill:#E0E0E0;}
	.st40{fill-rule:evenodd;clip-rule:evenodd;fill:#FFE183;}
	.st41{fill-rule:evenodd;clip-rule:evenodd;fill:#FFA617;}
	.st42{fill:#FF6745;}
	.st43{fill-rule:evenodd;clip-rule:evenodd;fill:#63A642;}
	.st44{fill-rule:evenodd;clip-rule:evenodd;fill:#925056;}
	.st45{fill-rule:evenodd;clip-rule:evenodd;fill:#2C2F38;}
	.st46{fill:#A5A5A5;}
	.st47{fill:#FFEBB8;}
	.st48{fill:#FFA617;}
	.st49{fill:#AF121A;}
	.st50{fill:#C49718;}
	.st51{fill:#FFD961;}
	.st52{fill:#F93B00;}
	.st53{fill:#FFC02E;}
	.st54{fill:#FA6500;}
	.st55{fill:#9BB200;}
	.st56{fill:#FFF7D6;}
	.st57{fill:#3E9AFF;}
	.st58{fill:#3ED698;}
	.st59{fill:#0F935A;}
</style>
<g id="Layer_1">
	<g>
		<g>
			<path class="st0" d="M237.62,92.77c0,34.58-28.03,62.62-62.62,62.62s-62.62-28.03-62.62-62.62S140.42,30.15,175,30.15
				S237.62,58.18,237.62,92.77z"/>
			<path class="st1" d="M213.38,56.72c0,0-7.91-8.9-15.36-8.33s-21.41,26-20.33,33.17c0,0,0.86,5.68-1.88,9.12
				c-0.3,0.38-0.68,0.82-1.12,1.3c-0.47-0.52-0.88-1-1.21-1.41c-2.74-3.44-1.88-9.13-1.88-9.13l-0.01-0.01
				c1.4-5.06,0.22-10.68-3.56-14.78l0.01-0.01c-4.7-5.56-9.7-9.06-9.7-9.06c-8.41-6.41-18.43-7.57-23.73-2.27
				c-5.3,5.3-4.14,15.32,2.27,23.73c0,0,0.87,1.25,2.44,3.09c1.57,1.84,3.83,4.26,6.61,6.61l0.01-0.01
				c4.1,3.78,9.72,4.96,14.78,3.56l0.01,0.01c0,0,5.68-0.86,9.13,1.88c0.42,0.34,0.92,0.77,1.47,1.27c-1.82,1.81-3.76,3.66-5.17,5
				l1.74,1.74l1.74,1.74c1.35-1.43,3.22-3.39,5.05-5.22c1.8,1.8,3.63,3.72,4.95,5.12l1.74-1.74l1.74-1.74
				c-1.39-1.31-3.27-3.11-5.06-4.88c0.5-0.46,0.97-0.86,1.36-1.17c3.44-2.74,9.12-1.88,9.12-1.88c7.17,1.08,32.61-12.88,33.17-20.33
				C222.28,64.63,213.38,56.72,213.38,56.72z M163.15,89.81c-0.5,0.25-1.03,0.47-1.58,0.64c-1.11,0.31-2.26,0.43-3.39,0.45
				c-1.15,0.02-2.27-0.07-3.4-0.23c-0.57-0.1-1.15-0.2-1.7-0.39c-0.56-0.15-1.1-0.36-1.63-0.58c-2.12-0.9-4.02-2.19-5.73-3.64
				c-1.73-1.45-3.28-3.09-4.62-4.89c1.67,1.49,3.4,2.87,5.18,4.16c1.79,1.27,3.64,2.45,5.63,3.28c0.98,0.44,2.01,0.76,3.05,0.96
				c1.05,0.21,2.16,0.33,3.23,0.41c1.08,0.06,2.17,0.07,3.24-0.09c0.54-0.07,1.07-0.19,1.59-0.36c0.52-0.15,1.06-0.42,1.63-0.39
				C164.11,89.22,163.67,89.57,163.15,89.81z M163.32,64.83l-2.63-2.18c-1.81-1.37-3.6-2.76-5.53-3.91
				c-1.9-1.21-3.91-2.23-6.01-3.02c-1.06-0.38-2.13-0.71-3.23-0.94c-1.1-0.25-2.24-0.37-3.38-0.3c2.25-0.59,4.67-0.27,6.9,0.36
				c2.26,0.63,4.38,1.66,6.35,2.88c1.01,0.59,1.93,1.3,2.87,1.98c0.91,0.72,1.79,1.48,2.65,2.24c0.82,0.81,1.65,1.62,2.43,2.46
				c0.74,0.89,1.5,1.75,2.21,2.66C165.03,66.34,164.19,65.57,163.32,64.83z M197.68,49.48c0.78-0.19,1.61-0.22,2.39-0.09
				c0.8,0.09,1.54,0.47,2.18,0.9c-0.78-0.11-1.5-0.23-2.23-0.21c-0.72,0.01-1.44,0.07-2.13,0.26c-1.41,0.33-2.73,0.94-4.11,1.67
				C194.7,50.75,196.13,49.87,197.68,49.48z M185.28,75.91c-0.48,0.49-1.27,0.49-1.76,0c-0.49-0.48-0.49-1.27,0-1.76l18.55-18.55
				c0.48-0.48,1.27-0.48,1.76,0c0.48,0.49,0.48,1.27,0,1.76L185.28,75.91z M188.94,79.56c-0.48,0.48-1.27,0.48-1.76,0
				c-0.48-0.49-0.48-1.27,0-1.76l18.55-18.55c0.48-0.49,1.27-0.49,1.76,0c0.48,0.48,0.48,1.27,0,1.76L188.94,79.56z M190.83,83.22
				c-0.48-0.48-0.48-1.27,0-1.76l18.55-18.55c0.48-0.48,1.27-0.48,1.76,0c0.49,0.48,0.49,1.27,0,1.76l-18.55,18.55
				C192.1,83.7,191.32,83.7,190.83,83.22z M194.49,86.87c-0.49-0.48-0.49-1.27,0-1.76l18.55-18.55c0.48-0.48,1.27-0.48,1.76,0
				c0.48,0.48,0.48,1.27,0,1.76l-18.55,18.55C195.76,87.35,194.97,87.35,194.49,86.87z M219.08,73.86
				c-0.53,0.93-1.19,1.78-1.89,2.57c-1.42,1.59-3.1,2.9-4.76,4.17c-1.69,1.26-3.41,2.46-5.21,3.56c-1.79,1.1-3.61,2.15-5.52,3.03
				c1.73-1.2,3.44-2.39,5.14-3.6c1.69-1.22,3.39-2.44,5.05-3.7c1.68-1.25,3.32-2.5,4.81-3.93c0.74-0.72,1.43-1.49,2.02-2.33
				c0.59-0.83,1.13-1.76,1.18-2.81C220.04,71.88,219.56,72.92,219.08,73.86z"/>
			<path class="st2" d="M169.64,103.93l-1.74-1.74l-1.74-1.74l-2.13-2.13l-1.7,1.7c0,0-2.26,7.26-9.09,12.45
				c-6.83,5.19-25.14,17.48-19.12,23.5c6.01,6.01,18.31-12.29,23.5-19.12c5.19-6.83,12.45-9.09,12.45-9.09l1.7-1.7L169.64,103.93z
				 M160.84,104.73c0.42-0.6,0.79-1.22,1.17-1.85c0.36-0.63,0.71-1.27,0.94-1.98c0.01,0.76-0.25,1.49-0.53,2.19
				c-0.29,0.69-0.67,1.35-1.09,1.97c-0.42,0.62-0.88,1.21-1.38,1.77c-0.5,0.55-1.03,1.07-1.62,1.55
				C159.15,107.12,160.04,105.95,160.84,104.73z M136.38,136.36c-0.53-0.07-1.03-0.33-1.44-0.68c-0.4-0.38-0.67-0.77-0.89-1.24
				c-0.21-0.45-0.35-1.01-0.17-1.5c0.17,0.46,0.48,0.79,0.76,1.13c0.29,0.32,0.61,0.69,0.9,0.95c0.6,0.55,1.35,0.88,2.34,1.07
				C137.44,136.34,136.91,136.44,136.38,136.36z M140.21,132.56c-0.74,0.74-1.94,0.74-2.67,0c-0.74-0.73-0.74-1.93,0-2.67
				c0.73-0.74,1.93-0.74,2.67,0C140.95,130.63,140.95,131.82,140.21,132.56z M137.6,127.31c1.37-2.08,3.11-3.86,4.92-5.53
				c1.84-1.64,3.77-3.18,5.9-4.45c-1.69,1.82-3.49,3.46-5.3,5.11C141.31,124.09,139.49,125.7,137.6,127.31z M164.29,109
				c-1.07,0.88-2.1,1.82-3.08,2.8c-1.98,1.95-3.8,4.04-5.52,6.23c-1.78,2.14-3.38,4.42-5.11,6.63c-0.88,1.1-1.79,2.18-2.76,3.19
				c-1,0.99-2.03,1.95-3.13,2.81c1.96-2.01,3.74-4.14,5.34-6.42c1.61-2.27,3.23-4.57,4.97-6.77c1.79-2.16,3.64-4.3,5.75-6.17
				c2.1-1.87,4.35-3.62,6.92-4.77C166.47,107.26,165.36,108.09,164.29,109z M196.05,112.38c-6.83-5.19-9.09-12.45-9.09-12.45
				l-1.7-1.71l-2.13,2.13l-1.74,1.74l-3.87,3.87l1.71,1.7c0,0,7.26,2.26,12.45,9.09c5.19,6.83,17.48,25.13,23.5,19.12
				C221.18,129.86,202.88,117.57,196.05,112.38z M184.15,108.93c-0.6-0.42-1.22-0.79-1.84-1.17c-0.63-0.36-1.27-0.71-1.98-0.94
				c0.76-0.01,1.49,0.25,2.18,0.53c0.7,0.29,1.35,0.67,1.98,1.09c0.62,0.42,1.21,0.88,1.76,1.38c0.55,0.5,1.08,1.03,1.55,1.62
				C186.53,110.62,185.37,109.73,184.15,108.93z M190.72,109.02c-1.86-2.1-3.62-4.35-4.77-6.92c0.73,1.19,1.57,2.31,2.47,3.37
				c0.88,1.07,1.82,2.1,2.8,3.08c1.95,1.98,4.05,3.8,6.23,5.52c2.14,1.78,4.42,3.38,6.63,5.11c1.09,0.88,2.17,1.79,3.18,2.76
				c1,1,1.95,2.03,2.82,3.13c-2.01-1.96-4.14-3.74-6.42-5.34c-2.28-1.61-4.57-3.23-6.78-4.97
				C194.73,112.98,192.59,111.13,190.72,109.02z M201.2,127.24c-1.64-1.84-3.18-3.77-4.46-5.9c1.82,1.69,3.47,3.49,5.12,5.3
				c1.64,1.82,3.26,3.63,4.86,5.52C204.64,130.8,202.87,129.06,201.2,127.24z M211.75,132.45c-0.74,0.74-1.93,0.74-2.67,0
				c-0.74-0.74-0.74-1.93,0-2.67c0.74-0.74,1.93-0.74,2.67,0C212.49,130.52,212.49,131.71,211.75,132.45z M215.09,134.82
				c-0.38,0.4-0.77,0.67-1.24,0.89c-0.45,0.21-1.01,0.35-1.5,0.17c0.46-0.17,0.79-0.48,1.13-0.76c0.32-0.29,0.69-0.61,0.95-0.9
				c0.54-0.6,0.88-1.35,1.07-2.34c0.26,0.43,0.35,0.97,0.27,1.5C215.7,133.91,215.45,134.42,215.09,134.82z"/>
		</g>
		<text transform="matrix(1 0 0 1 39.3267 190.1012)" class="st3 st4 st5">RESTAURANT &amp; FOOD</text>
	</g>
</g>
<g id="Layer_2">
</g>
<g id="Layer_3">
</g>
<g id="Layer_4">
</g>
<g id="Layer_5">
</g>
<g id="Layer_6">
</g>
<g id="Layer_7">
</g>
<g id="Layer_8">
</g>
<g id="Layer_9">
</g>
<g id="Layer_10">
</g>
<g id="Layer_11">
</g>
<g id="Layer_12">
</g>
<g id="Layer_13">
</g>
<g id="Layer_14">
</g>
<g id="Layer_15">
</g>
</svg>
