<?xml version="1.0" encoding="utf-8"?>
<!-- Generator: Adobe Illustrator 27.8.1, SVG Export Plug-In . SVG Version: 6.00 Build 0)  -->
<svg version="1.1" xmlns="http://www.w3.org/2000/svg" xmlns:xlink="http://www.w3.org/1999/xlink" x="0px" y="0px"
	 viewBox="0 0 350 230" style="enable-background:new 0 0 350 230;" xml:space="preserve">
<style type="text/css">
	.st0{fill:#191919;}
	.st1{fill:#FFFFFF;}
	.st2{fill:#FFCA55;}
	.st3{fill:#006865;}
	.st4{fill:#00AEB7;}
	.st5{fill:#EDC599;}
	.st6{fill:url(#SVGID_1_);}
	.st7{fill:#250B00;}
	.st8{fill:#FFDBD4;}
	.st9{fill:#231F20;}
	.st10{fill:#7F7F7F;}
	.st11{fill:#FFD468;}
	.st12{fill:#303030;}
	.st13{fill:#007D54;}
	.st14{fill:#EE3631;}
	.st15{fill:#2B2B2B;}
	.st16{fill:#FFB000;}
	.st17{opacity:0.35;fill:#FFFFFF;}
	.st18{display:none;fill:#FFB000;}
	.st19{font-family:'Poppins-Bold';}
	.st20{font-size:25px;}
	.st21{fill:#E09C05;}
	.st22{fill:#A8112B;}
	.st23{fill:#FCB040;}
	.st24{fill:#3DA1D8;}
	.st25{fill:#0C8EBC;}
	.st26{fill:#EFC6A3;}
	.st27{fill:#B0DFFF;}
	.st28{fill-rule:evenodd;clip-rule:evenodd;fill:#FEFEFE;}
	.st29{fill:#006284;}
	.st30{fill:#5B5B5B;}
	.st31{fill:#EACAB0;}
	.st32{fill:#442B18;}
	.st33{fill:#663412;}
	.st34{fill:#C18B63;}
	.st35{fill:#3A1801;}
	.st36{fill:#616D0B;}
	.st37{fill:#98B11F;}
	.st38{fill:#606060;}
	.st39{fill:#E0E0E0;}
	.st40{fill-rule:evenodd;clip-rule:evenodd;fill:#FFE183;}
	.st41{fill-rule:evenodd;clip-rule:evenodd;fill:#FFA617;}
	.st42{fill:#FF6745;}
	.st43{fill-rule:evenodd;clip-rule:evenodd;fill:#63A642;}
	.st44{fill-rule:evenodd;clip-rule:evenodd;fill:#925056;}
	.st45{fill-rule:evenodd;clip-rule:evenodd;fill:#2C2F38;}
	.st46{fill:#A5A5A5;}
	.st47{fill:#FFEBB8;}
	.st48{fill:#FFA617;}
	.st49{fill:#AF121A;}
	.st50{fill:#C49718;}
	.st51{fill:#FFD961;}
	.st52{fill:#F93B00;}
	.st53{fill:#FFC02E;}
	.st54{fill:#FA6500;}
	.st55{fill:#9BB200;}
	.st56{fill:#FFF7D6;}
	.st57{fill:#3E9AFF;}
	.st58{fill:#3ED698;}
	.st59{fill:#0F935A;}
</style>
<g id="Layer_1">
</g>
<g id="Layer_2">
</g>
<g id="Layer_3">
</g>
<g id="Layer_4">
</g>
<g id="Layer_5">
	<g>
		<g>
			<path class="st15" d="M234.24,39.82c-0.51-0.42-10.88,13.06-18.29,22.12l-1.5-1.22c6.8-9.55,17.08-23.11,16.56-23.53
				c-0.51-0.42-11.31,12.72-19.01,21.53l-1.5-1.22c7.08-9.32,17.78-22.53,17.26-22.95c-0.52-0.42-11.74,12.37-19.73,20.94
				l-1.51-1.23c7.38-9.07,18.5-21.94,17.98-22.36c-0.52-0.43-16.53,16.4-20.86,20.86c-3.78,3.89-4.85,10.15-1.87,14.23
				c-1.04,1.18-2.08,2.37-3.13,3.56c-2.93-2.68-6.25-4.81-9.91-6.36c-4.29-1.81-8.84-2.73-13.54-2.73c-4.7,0-9.25,0.92-13.54,2.73
				c-3.59,1.51-6.85,3.6-9.74,6.2c-1.06-0.88-2.12-1.75-3.19-2.63c4.13-6.53,1.87-15.71-5.35-20.88
				c-7.63-5.57-20.93-9.98-25.96-4.66c-4.7,5.62,1.25,18.31,7.68,25.23c5.99,6.56,15.37,7.72,21.37,2.85
				c0.94,0.9,1.89,1.81,2.83,2.7c-0.69,0.77-1.33,1.58-1.95,2.4c-0.24,0.31-0.47,0.62-0.69,0.93c-0.04,0.05-0.08,0.1-0.11,0.16
				c-1.35,1.94-2.48,4.01-3.41,6.21c-1.81,4.29-2.74,8.85-2.74,13.54c0,0.81,0.03,1.61,0.08,2.4c0.27,3.85,1.15,7.58,2.66,11.14
				c1.4,3.31,3.29,6.35,5.62,9.07l-0.91-0.88c-4.19,4.24-8.39,8.48-12.58,12.71c-1.31,1.29-1.65,4.34,0.18,6.01
				c1.82,1.69,4.82,1.1,6-0.31c3.83-4.47,7.66-8.94,11.49-13.4c2.63,2.19,5.54,3.98,8.71,5.31c2.61,1.1,5.32,1.88,8.1,2.31
				c-0.02,0.19-0.03,0.39-0.03,0.59v20.28c0,2.91,2.36,5.27,5.27,5.27c2.91,0,5.27-2.36,5.27-5.27v-20.28
				c0-0.18-0.01-0.35-0.03-0.52c2.92-0.42,5.76-1.22,8.5-2.37c3.17-1.34,6.09-3.12,8.71-5.31c3.83,4.47,7.66,8.94,11.49,13.4
				c1.18,1.41,4.19,2.01,6,0.31c1.83-1.67,1.49-4.72,0.18-6.01c-4.19-4.24-8.39-8.48-12.58-12.71l-0.91,0.88
				c2.33-2.72,4.22-5.76,5.62-9.07c1.82-4.29,2.74-8.85,2.74-13.54c0-4.69-0.92-9.25-2.74-13.54c-1.46-3.46-3.46-6.63-5.93-9.43
				c1.04-1.37,2.08-2.74,3.11-4.11c4.53,2.16,10.16,0.22,13.56-4.69c0.64-0.92,1.05-1.51,1.29-1.86c-0.02,0.04-0.04,0.08-0.06,0.11
				C223.06,57.12,234.68,40.18,234.24,39.82z M126.28,66.34c-6.61-7.12-11.39-18.86-7.64-23.35c2.72-2.89,9.37-2.2,15.8,0.38
				c-4.05-0.74-7.58-0.41-9.39,1.5c-3.75,4.49,1.02,16.23,7.64,23.35c1.29,1.42,2.79,2.56,4.39,3.45
				C133.09,71.43,129.19,69.53,126.28,66.34z M144.19,69.83c0.59-0.43,1.17-0.88,1.68-1.42c2.23-2.72,3.21-6.23,2.73-9.9
				c-0.57-4.43-3.15-8.58-7.09-11.41c-0.37-0.27-0.76-0.52-1.15-0.78c0.75,0.47,1.48,0.94,2.17,1.44c3.73,2.67,6.17,6.6,6.71,10.8
				c0.45,3.48-0.47,6.8-2.59,9.37C145.92,68.69,145.08,69.3,144.19,69.83z M175.21,64.09c17.71,0,32.13,14.41,32.13,32.13
				c0,16.34-12.26,29.87-28.06,31.87c-1.34,0.17-2.69,0.26-4.07,0.26c-1.51,0-2.99-0.1-4.45-0.31
				c-15.62-2.17-27.69-15.62-27.69-31.83C143.07,78.5,157.49,64.09,175.21,64.09z M140.41,135.1c-0.71,0.85-2.54,1.2-3.64,0.18
				c-0.64-0.59-0.81-1.45-0.7-2.23c1.24,0.32,2.63-0.04,3.33-0.77c3.73-3.82,7.46-7.65,11.19-11.47c0.01,0.01,0.01,0.01,0.01,0.01
				c0.38,0.38,0.77,0.75,1.17,1.11C147.98,126.32,144.19,130.71,140.41,135.1z M211.01,132.28c0.7,0.74,2.09,1.1,3.33,0.77
				c0.11,0.78-0.05,1.63-0.7,2.23c-1.1,1.02-2.92,0.67-3.64-0.18c-3.79-4.39-7.57-8.78-11.36-13.17c0.39-0.36,0.78-0.74,1.17-1.11
				c0.01-0.01,0.01-0.01,0.01-0.01C203.55,124.63,207.28,128.45,211.01,132.28z M218.07,61.69c-0.3,0.42-0.72,1.01-1.32,1.88
				c-0.26,0.37-0.54,0.72-0.82,1.07l-10.77-8.78c-1.2,1.87-1.88,4.03-1.86,6.13c0.02,1.51,0.41,3.64,2.17,5.27
				c0.98,0.7,2.07,1.13,3.24,1.27c-1.79,0.1-3.48-0.38-4.94-1.44c-1.86-1.71-2.31-3.89-2.36-5.43c-0.09-2.86,1.1-5.85,3.18-7.99
				l2.88-2.97c-0.74,0.89-3.02,3.69-3.02,3.69l3.65,2.97c0,0,2.56-2.75,3.41-3.68c-0.76,0.99-3.05,3.99-3.05,3.99l3.63,2.96
				c0,0,2.39-2.75,3.17-3.65c-0.7,0.97-2.82,3.94-2.82,3.94l3.63,2.96c0,0,2.41-2.96,3.2-3.93
				C218.88,60.51,218.47,61.1,218.07,61.69z"/>
			<path class="st1" d="M207.34,96.22c0,16.34-12.26,29.87-28.06,31.87c-1.34,0.17-2.69,0.26-4.07,0.26c-1.51,0-2.99-0.1-4.45-0.31
				c-15.62-2.17-27.69-15.62-27.69-31.83c0-17.72,14.41-32.13,32.13-32.13C192.92,64.09,207.34,78.5,207.34,96.22z"/>
			<path class="st16" d="M188.73,96.22c0,3.08-1.03,5.92-2.76,8.19c-0.01,0.01-0.02,0.02-0.02,0.03c-0.13,0.17-0.27,0.34-0.41,0.5
				c0,0,0,0,0,0.01c-2.48,2.94-6.19,4.8-10.33,4.8c-7.47,0-13.52-6.05-13.52-13.52c0-2.92,0.92-5.61,2.49-7.82
				c0.35-0.5,0.73-0.97,1.14-1.41c2.47-2.64,5.99-4.29,9.89-4.29C182.67,82.7,188.73,88.75,188.73,96.22z"/>
			<path class="st17" d="M188.19,96.76c0,2.81-0.78,5.47-2.22,7.65c-0.01,0.01-0.02,0.02-0.02,0.03c-0.13,0.17-0.27,0.34-0.41,0.5
				c1.25-2.07,1.9-4.57,1.9-7.17c0-7.47-6.05-13.52-13.52-13.52c-3.83,0-7.29,1.59-9.74,4.15c0.35-0.5,0.73-0.97,1.14-1.41
				c2.43-2.33,5.72-3.75,9.35-3.75C182.13,83.24,188.19,89.29,188.19,96.76z"/>
		</g>
		<text transform="matrix(1 0 0 1 44.6518 182.9736)" class="st18 st19 st20">RESTAURANT &amp; FOOD</text>
	</g>
</g>
<g id="Layer_6">
</g>
<g id="Layer_7">
</g>
<g id="Layer_8">
</g>
<g id="Layer_9">
</g>
<g id="Layer_10">
</g>
<g id="Layer_11">
</g>
<g id="Layer_12">
</g>
<g id="Layer_13">
</g>
<g id="Layer_14">
</g>
<g id="Layer_15">
</g>
</svg>
