<?xml version="1.0" encoding="utf-8"?>
<!-- Generator: Adobe Illustrator 27.8.1, SVG Export Plug-In . SVG Version: 6.00 Build 0)  -->
<svg version="1.1" xmlns="http://www.w3.org/2000/svg" xmlns:xlink="http://www.w3.org/1999/xlink" x="0px" y="0px"
	 viewBox="0 0 350 230" style="enable-background:new 0 0 350 230;" xml:space="preserve">
<style type="text/css">
	.st0{fill:#191919;}
	.st1{fill:#FFFFFF;}
	.st2{fill:#FFCA55;}
	.st3{fill:#006865;}
	.st4{fill:#00AEB7;}
	.st5{fill:#EDC599;}
	.st6{fill:url(#SVGID_1_);}
	.st7{fill:#250B00;}
	.st8{fill:#FFDBD4;}
	.st9{fill:#231F20;}
	.st10{fill:#7F7F7F;}
	.st11{fill:#FFD468;}
	.st12{fill:#303030;}
	.st13{fill:#007D54;}
	.st14{fill:#EE3631;}
	.st15{display:none;}
	.st16{display:inline;fill:#FFD468;}
	.st17{font-family:'SugarPeachyDEMO-Black';}
	.st18{font-size:30px;}
	.st19{font-family:'StashVintage-Regular';}
	.st20{fill:#2B2B2B;}
	.st21{fill:#FFB000;}
	.st22{opacity:0.35;fill:#FFFFFF;}
	.st23{fill:#E09C05;}
	.st24{fill:#A8112B;}
	.st25{fill:#FCB040;}
	.st26{fill:#3DA1D8;}
	.st27{fill:#0C8EBC;}
	.st28{fill:#EFC6A3;}
	.st29{fill:#B0DFFF;}
	.st30{fill-rule:evenodd;clip-rule:evenodd;fill:#FEFEFE;}
	.st31{fill:#006284;}
	.st32{fill:#5B5B5B;}
	.st33{fill:#EACAB0;}
	.st34{fill:#442B18;}
	.st35{fill:#663412;}
	.st36{fill:#C18B63;}
	.st37{fill:#3A1801;}
	.st38{fill:#616D0B;}
	.st39{fill:#98B11F;}
	.st40{fill:#606060;}
	.st41{fill:#E0E0E0;}
	.st42{fill-rule:evenodd;clip-rule:evenodd;fill:#FFE183;}
	.st43{fill-rule:evenodd;clip-rule:evenodd;fill:#FFA617;}
	.st44{fill:#FF6745;}
	.st45{fill-rule:evenodd;clip-rule:evenodd;fill:#63A642;}
	.st46{fill-rule:evenodd;clip-rule:evenodd;fill:#925056;}
	.st47{fill-rule:evenodd;clip-rule:evenodd;fill:#2C2F38;}
	.st48{fill:#A5A5A5;}
	.st49{fill:#FFEBB8;}
	.st50{fill:#FFA617;}
	.st51{fill:#AF121A;}
	.st52{fill:#C49718;}
	.st53{fill:#FFD961;}
	.st54{fill:#F93B00;}
	.st55{fill:#FFC02E;}
	.st56{fill:#FA6500;}
	.st57{fill:#9BB200;}
	.st58{fill:#FFF7D6;}
	.st59{fill:#3E9AFF;}
	.st60{fill:#3ED698;}
	.st61{fill:#0F935A;}
</style>
<g id="Layer_1">
</g>
<g id="Layer_2">
</g>
<g id="Layer_3">
</g>
<g id="Layer_4">
	<g>
		<g>
			<path class="st11" d="M175.1,24.7c-35.95,0-65.2,29.25-65.2,65.2c0,11.21,2.84,21.76,7.84,30.97h70.02
				c-0.1-0.27-0.17-0.57-0.19-0.88c-0.02-0.29,0-0.57,0.02-0.85c0.02-0.31,0.05-0.61,0-0.88c-0.19-0.96-1.2-1.48-2.17-1.99
				c-0.44-0.23-0.86-0.44-1.22-0.7c-1.41-1.04-1.54-2.38-1.03-3.24c0.45-0.77,1.32-1.08,2.05-0.74c0.17,0.08,0.28,0.27,0.27,0.46
				c-0.09,1.02,0.43,1.97,1.4,2.53c0.98,0.56,2.58,0.77,4.19-0.36l0.14-0.1c0.51-0.37,1.45-1.06,2.3-0.89
				c0.25,0.04,0.47,0.16,0.65,0.34c0.2-0.01,0.4-0.02,0.6-0.01c1.36,0.03,2.69,0.45,3.9,0.98c0.84,0.37,1.62,0.78,2.32,1.16
				c0.22,0.12,0.44,0.23,0.65,0.35c2.17,1.12,4.14,1.93,5.92,2.48c1.42,0.44,2.73,0.73,3.94,0.91c3.22,0.48,5.75,0.2,7.87-0.04
				c0.78-0.09,1.51-0.17,2.22-0.2c0.17-0.01,0.34,0.08,0.43,0.23c0.09,0.15,0.08,0.34-0.02,0.49c-0.22,0.33-0.44,0.64-0.67,0.94
				h11.15c5-9.22,7.84-19.77,7.84-30.97C240.3,53.94,211.05,24.7,175.1,24.7z M238.63,122.1h-18.38c-0.6,0.63-1.24,1.19-1.91,1.68
				c-0.23,0.17-0.46,0.33-0.69,0.48c-0.29,0.19-0.58,0.36-0.88,0.54c-0.11,0.06-0.22,0.12-0.34,0.18c-0.44,0.23-0.89,0.45-1.35,0.64
				c-0.11,0.05-0.23,0.1-0.35,0.14c-0.22,0.09-0.43,0.17-0.65,0.24c-0.19,0.07-0.38,0.13-0.57,0.19c-0.14,0.05-0.28,0.09-0.43,0.14
				c-0.11,0.03-0.22,0.06-0.34,0.09c-0.18,0.06-0.36,0.1-0.54,0.14c-0.15,0.04-0.3,0.07-0.44,0.1c-0.14,0.03-0.28,0.06-0.43,0.09
				c-0.15,0.03-0.3,0.06-0.46,0.08c-0.13,0.02-0.26,0.05-0.4,0.07c-0.2,0.03-0.4,0.06-0.6,0.08c-0.09,0.01-0.19,0.02-0.29,0.04
				c-0.21,0.02-0.42,0.05-0.64,0.06c-0.09,0.01-0.17,0.02-0.27,0.02c-0.25,0.02-0.51,0.04-0.76,0.05c-0.3,0.02-0.59,0.03-0.89,0.03
				h-0.01c-0.16,0.01-0.31,0.01-0.48,0.01c-0.33,0-0.65-0.01-0.98-0.02c-0.23-0.01-0.46-0.01-0.69-0.03
				c-0.17-0.01-0.34-0.01-0.51-0.03c-0.25-0.01-0.49-0.03-0.74-0.06c-0.31-0.02-0.62-0.06-0.92-0.1h-0.02
				c-1.59-0.19-3.11-0.47-4.5-0.79c-0.33-0.08-0.65-0.15-0.96-0.24c-0.49-0.12-0.96-0.25-1.41-0.39c-0.19-0.06-0.36-0.11-0.54-0.17
				c-0.02,0-0.04-0.01-0.07-0.02c-0.3-0.09-0.59-0.19-0.86-0.28c-0.55-0.19-1.04-0.37-1.47-0.54c-0.01-0.01-0.02-0.01-0.03-0.01
				c-0.19-0.07-0.35-0.14-0.51-0.21c-0.5-0.22-0.87-0.4-1.09-0.53c-0.61-0.36-1.14-0.8-1.59-1.3c-0.02,0-0.04-0.01-0.05-0.01
				c-0.04-0.01-0.09-0.01-0.12-0.02c-0.3-0.05-0.57-0.17-0.82-0.33h-77.32c-3.03,0-5.48,2.46-5.48,5.48v23.77
				c0,3.03,2.46,5.48,5.48,5.48h127.26c3.03,0,5.48-2.46,5.48-5.48v-23.77C244.12,124.56,241.66,122.1,238.63,122.1z"/>
			<path class="st1" d="M194.36,86.21c-1.22,0.36-2.45,0.57-3.69,0.63l0.39,1.33h0.01l2.01,6.84c0.24,0.86,0.38,1.74,0.41,2.58
				c0.01,0.32,0,0.63-0.02,0.94c-0.16,2.4-1.19,4.53-2.91,5.76c-12.97,9.25-28.23,13.73-44.16,12.97c-3.12-0.15-6.06-2.8-7.16-6.51
				l-3.86-13.15c0,0,0,0-0.01,0l-0.16-0.56c-0.2,0.14-0.41,0.28-0.62,0.41c-1.03,0.61-2.1,1.09-3.21,1.41
				c-7.81,2.29-16.14-2.61-18.59-10.94c-1.74-5.91-0.09-12.12,4.11-16.02c0.35-0.32,0.71-0.63,1.09-0.92
				c-0.02-0.12-0.02-0.25-0.04-0.36l-0.01-0.04c-0.93-10.52,6.46-20.67,17.58-23.94c5.38-1.58,11-1.39,16.03,0.5
				c0.43,0.17,0.85,0.33,1.27,0.52c0.36-0.31,0.72-0.61,1.11-0.9c2.49-1.93,5.45-3.41,8.63-4.35c1.55-0.46,3.17-0.78,4.81-0.98
				c9.43-1.09,18.44,2.4,23.32,8.94c0.18,0.23,0.34,0.46,0.51,0.7c0.33,0.05,0.67,0.12,1.01,0.19c6.25,1.38,11.41,6.28,13.33,12.82
				C208.33,73.65,203.32,83.58,194.36,86.21z M225.28,91.7c-3.36-1.94-9.55,2.48-12.5,7.6c-1.9,3.29-1.99,6.06-0.93,8.13
				c0.6,1.17,0.64,2.54-0.01,3.67l-4.29,7.43c1.42,0.44,2.73,0.73,3.94,0.91l3.7-6.41c0.66-1.14,1.87-1.79,3.18-1.85
				c2.33-0.12,4.68-1.58,6.58-4.87C227.9,101.21,228.64,93.64,225.28,91.7z M219.41,82.44l-0.18-0.11c-0.35-0.2-0.78-0.08-0.99,0.27
				l-4.88,8.47l-0.86-0.5l4.89-8.46c0.2-0.35,0.08-0.79-0.27-0.99c-0.11-0.07-0.24-0.1-0.36-0.1c-0.25,0-0.5,0.13-0.63,0.36
				l-4.89,8.47l-0.86-0.5l4.88-8.46c0.2-0.35,0.08-0.79-0.27-0.99c-0.12-0.07-0.24-0.1-0.36-0.1c-0.25,0-0.49,0.13-0.62,0.36
				l-4.88,8.46l-0.86-0.49l4.89-8.47c0.2-0.35,0.08-0.79-0.27-0.99l-0.16-0.09c-0.35-0.2-0.78-0.08-0.99,0.27l-8.09,14.02
				c-0.64,1.11-0.77,2.38-0.44,3.53c0.3,1.07,0.19,2.22-0.38,3.18l-8.08,13.99c1.36,0.03,2.69,0.45,3.9,0.98l7.53-13.04
				c0.56-0.96,1.49-1.64,2.56-1.91c1.15-0.29,2.19-1.03,2.83-2.14l8.1-14.02C219.88,83.08,219.76,82.64,219.41,82.44z"/>
			<path class="st12" d="M193.49,97.6c-0.79,0.52-1.59,1.03-2.39,1.54c-0.73,0.46-1.5,0.88-2.24,1.32l-1.13,0.65l-1.16,0.59
				c-3.04,1.66-6.24,3.04-9.49,4.24c-3.26,1.22-6.6,2.23-10.02,2.95c1.74-0.16,3.46-0.51,5.17-0.87c1.7-0.41,3.39-0.9,5.06-1.43
				c3.34-1.09,6.58-2.49,9.69-4.11c2.22-1.21,4.41-2.49,6.48-3.94C193.49,98.23,193.5,97.92,193.49,97.6z M192.82,94.16
				c-0.33,0.21-0.67,0.41-1.01,0.61c-2.96,1.83-6.02,3.5-9.17,5c-1.57,0.74-3.17,1.46-4.8,2.07c-1.62,0.65-3.28,1.22-4.97,1.65
				c3.48-0.53,6.81-1.74,10.05-3.09c3.24-1.38,6.33-3.07,9.36-4.87l0.8-0.5L192.82,94.16z M191.82,90.75
				c-0.33,0.21-0.67,0.41-1.01,0.61c-2.96,1.83-6.02,3.5-9.17,5c-1.57,0.74-3.17,1.46-4.8,2.07c-1.62,0.65-3.28,1.21-4.97,1.64
				c3.48-0.53,6.81-1.74,10.05-3.09c3.24-1.38,6.33-3.08,9.36-4.87l0.8-0.51L191.82,90.75z M117.95,70.61
				c0.01,0.12,0.02,0.24,0.04,0.36c-0.38,0.29-0.74,0.6-1.09,0.92c1.33,3.12,3.74,5.29,7.62,5.8
				C120.87,76.4,118.89,73.86,117.95,70.61z M153.93,46.76c-0.38,0.28-0.75,0.59-1.11,0.9c-0.42-0.19-0.85-0.36-1.27-0.52
				c-2.64,3.54-3.43,7.48-0.91,11.57C148.94,53.96,150.63,50.11,153.93,46.76z M191.19,51.08c-0.17-0.24-0.33-0.47-0.51-0.7
				c-1.94,0.67-3.63,2.02-4.93,4.19c1.93-2.08,4.1-3.08,6.44-3.3C191.86,51.2,191.52,51.13,191.19,51.08z M137.87,49.4
				c-2.97,0.69-5.83,1.98-8.28,3.85c-2.4,1.93-4.38,4.4-5.64,7.19c-1.27,2.79-1.94,5.79-2.22,8.79c0.64-2.95,1.48-5.84,2.83-8.48
				c1.35-2.64,3.24-5,5.58-6.79c2.31-1.85,5.06-3.08,7.91-3.89c2.87-0.82,5.86-1.17,8.87-1.27C143.9,48.52,140.84,48.71,137.87,49.4
				z M178.34,46.13c-2.79-1.22-5.85-1.9-8.94-1.86c-3.08,0.1-6.14,0.89-8.82,2.38c-2.69,1.47-5.02,3.48-7.04,5.71
				c2.28-1.98,4.67-3.8,7.35-5.1c2.66-1.31,5.58-2.07,8.53-2.1c2.95-0.1,5.9,0.56,8.66,1.62c2.79,1.06,5.4,2.57,7.87,4.3
				C183.7,49.04,181.14,47.35,178.34,46.13z M202.53,64.73c-1.21-3.56-3.47-6.61-6.06-9.19c1.14,1.44,2.3,2.87,3.19,4.46
				c0.93,1.56,1.75,3.2,2.23,4.94c0.49,1.73,0.78,3.52,0.67,5.3c-0.1,1.78-0.57,3.53-1.38,5.11c-1.58,3.2-4.55,5.61-7.92,6.81
				c-3.38,1.19-7.26,1.04-10.55-0.64c1.54,1.01,3.35,1.61,5.2,1.83c1.86,0.2,3.76,0.01,5.56-0.54c3.59-1.12,6.75-3.67,8.5-7.05
				C203.67,72.33,203.77,68.25,202.53,64.73z M170.36,82.16c-2.28,0.61-4.65,0.88-6.95,0.49c-2.3-0.35-4.48-1.34-6.26-2.86
				c-0.88-0.76-1.64-1.67-2.2-2.7c-0.56-1.01-0.97-2.19-0.73-3.38c-0.44,1.15-0.12,2.46,0.34,3.58c0.51,1.12,1.25,2.14,2.13,3.01
				c1.77,1.74,4.13,2.85,6.58,3.24c1.23,0.19,2.47,0.21,3.7,0.09c1.23-0.15,2.43-0.41,3.59-0.8c2.32-0.8,4.46-1.98,6.37-3.45
				C174.82,80.51,172.64,81.52,170.36,82.16z M190.68,86.84L190.68,86.84c-2.75,0.11-5.55-0.86-8.03-2.31
				c-2.37-1.38-3.89-3.94-3.72-6.68c0.03-0.5,0.1-1.03,0.2-1.56c-0.99,2.35-1.01,4.59-0.25,6.68c-1.74,1-3.64,1.82-5.68,2.42
				c-1.5,0.44-3.07,0.77-4.7,0.96c-3.5,0.4-6.89,0.15-10.02-0.64c-0.93-0.23-1.81-0.65-2.57-1.24c-3.57-2.75-5.64-6.24-4.71-11.07
				c-1.6,3.77-0.69,7.26,1.89,10.28c-1.07,1.76-2.27,3.43-3.66,4.92c-1.64,1.69-3.53,3.16-5.7,4.01c-2.14,0.89-4.53,1.17-6.83,0.78
				c-1.15-0.2-2.27-0.58-3.29-1.17c-1-0.58-1.96-1.38-2.37-2.53c0.22,1.22,1.17,2.17,2.14,2.89c1.02,0.7,2.18,1.18,3.38,1.47
				c2.42,0.58,5.01,0.31,7.31-0.62c1.15-0.48,2.23-1.1,3.22-1.84c0.97-0.76,1.86-1.61,2.66-2.54c1.33-1.6,2.41-3.37,3.25-5.25
				c0.75,0.86,1.64,1.69,2.65,2.48c-1.68,4.84-5.41,8.74-10.47,10.23c-0.73,0.22-1.49,0.37-2.27,0.48
				c-8.37-0.25-15.65-1.9-17.17-9.58c-0.06,3.95,1.94,6.77,5.24,8.61c-1.7,0.14-3.4,0.04-5.02-0.38c-2.23-0.62-4.29-1.78-5.95-3.38
				c-1.67-1.59-2.99-3.56-3.92-5.69c-0.46-1.07-0.8-2.2-0.93-3.35c-0.14-1.13-0.14-2.4,0.62-3.34c-0.47,0.38-0.74,0.97-0.88,1.56
				c-0.14,0.59-0.2,1.21-0.18,1.82c0.05,1.22,0.33,2.42,0.73,3.57c0.81,2.29,2.18,4.38,3.94,6.09c1.78,1.68,4.01,2.91,6.41,3.4
				c1.2,0.24,2.43,0.3,3.63,0.22c0.64-0.06,1.27-0.15,1.9-0.3c0.94,0.49,1.97,0.9,3.09,1.25c0.21-0.13,0.42-0.27,0.62-0.41
				l0.16,0.56c0.01,0,0.01,0,0.01,0c3.32,1.11,7.06,1.16,10.36,0.2c5.32-1.56,9.48-5.64,11.36-11.05c3.67,1.07,7.63,1.4,11.55,0.95
				c1.68-0.2,3.33-0.53,4.92-1c2.13-0.62,4.15-1.49,6.02-2.56c3.4,2.46,7.53,4.3,11.48,4.05h0.01L190.68,86.84z M224.15,102.4
				c-0.26,0.52-0.53,1.03-0.82,1.53c-0.59,1-1.24,1.96-2.01,2.82c-0.38,0.43-0.79,0.82-1.24,1.16c-0.45,0.35-0.94,0.63-1.46,0.84
				c-1.05,0.43-2.25,0.37-3.36-0.02c0.52,0.28,1.09,0.46,1.69,0.55c0.6,0.07,1.22,0,1.79-0.19c1.17-0.37,2.15-1.15,2.95-2.03
				c0.79-0.89,1.45-1.9,1.97-2.95c0.27-0.52,0.51-1.07,0.71-1.62c0.1-0.27,0.19-0.56,0.28-0.83c0.08-0.28,0.17-0.57,0.19-0.86
				C224.66,101.35,224.4,101.87,224.15,102.4z M206.41,91.01c-0.4,0.55-0.79,1.11-1.2,1.64l-0.16,0.2c-0.05,0.07-0.1,0.16-0.16,0.23
				c-0.06,0.08-0.09,0.17-0.14,0.26c-0.04,0.09-0.07,0.18-0.09,0.27c-0.1,0.36-0.12,0.73-0.08,1.09c0.07,0.71,0.29,1.39,0.63,1.99
				c-0.15-0.67-0.27-1.35-0.27-2.01c0.01-0.33,0.04-0.65,0.15-0.94c0.04-0.15,0.11-0.28,0.19-0.41c0.04-0.06,0.07-0.12,0.13-0.19
				l0.17-0.2c0.43-0.56,0.8-1.14,1.15-1.73c0.35-0.6,0.66-1.21,0.93-1.85C207.21,89.9,206.81,90.45,206.41,91.01z M117.95,70.61
				c0.01,0.12,0.02,0.24,0.04,0.36c-0.38,0.29-0.74,0.6-1.09,0.92c1.33,3.12,3.74,5.29,7.62,5.8
				C120.87,76.4,118.89,73.86,117.95,70.61z M137.87,49.4c-2.97,0.69-5.83,1.98-8.28,3.85c-2.4,1.93-4.38,4.4-5.64,7.19
				c-1.27,2.79-1.94,5.79-2.22,8.79c0.64-2.95,1.48-5.84,2.83-8.48c1.35-2.64,3.24-5,5.58-6.79c2.31-1.85,5.06-3.08,7.91-3.89
				c2.87-0.82,5.86-1.17,8.87-1.27C143.9,48.52,140.84,48.71,137.87,49.4z M153.93,46.76c-0.38,0.28-0.75,0.59-1.11,0.9
				c-0.42-0.19-0.85-0.36-1.27-0.52c-2.64,3.54-3.43,7.48-0.91,11.57C148.94,53.96,150.63,50.11,153.93,46.76z M170.36,82.16
				c-2.28,0.61-4.65,0.88-6.95,0.49c-2.3-0.35-4.48-1.34-6.26-2.86c-0.88-0.76-1.64-1.67-2.2-2.7c-0.56-1.01-0.97-2.19-0.73-3.38
				c-0.44,1.15-0.12,2.46,0.34,3.58c0.51,1.12,1.25,2.14,2.13,3.01c1.77,1.74,4.13,2.85,6.58,3.24c1.23,0.19,2.47,0.21,3.7,0.09
				c1.23-0.15,2.43-0.41,3.59-0.8c2.32-0.8,4.46-1.98,6.37-3.45C174.82,80.51,172.64,81.52,170.36,82.16z M178.34,46.13
				c-2.79-1.22-5.85-1.9-8.94-1.86c-3.08,0.1-6.14,0.89-8.82,2.38c-2.69,1.47-5.02,3.48-7.04,5.71c2.28-1.98,4.67-3.8,7.35-5.1
				c2.66-1.31,5.58-2.07,8.53-2.1c2.95-0.1,5.9,0.56,8.66,1.62c2.79,1.06,5.4,2.57,7.87,4.3C183.7,49.04,181.14,47.35,178.34,46.13z
				 M190.68,86.84L190.68,86.84c-2.75,0.11-5.55-0.86-8.03-2.31c-2.37-1.38-3.89-3.94-3.72-6.68c0.03-0.5,0.1-1.03,0.2-1.56
				c-0.99,2.35-1.01,4.59-0.25,6.68c-1.74,1-3.64,1.82-5.68,2.42c-1.5,0.44-3.07,0.77-4.7,0.96c-3.5,0.4-6.89,0.15-10.02-0.64
				c-0.93-0.23-1.81-0.65-2.57-1.24c-3.57-2.75-5.64-6.24-4.71-11.07c-1.6,3.77-0.69,7.26,1.89,10.28
				c-1.07,1.76-2.27,3.43-3.66,4.92c-1.64,1.69-3.53,3.16-5.7,4.01c-2.14,0.89-4.53,1.17-6.83,0.78c-1.15-0.2-2.27-0.58-3.29-1.17
				c-1-0.58-1.96-1.38-2.37-2.53c0.22,1.22,1.17,2.17,2.14,2.89c1.02,0.7,2.18,1.18,3.38,1.47c2.42,0.58,5.01,0.31,7.31-0.62
				c1.15-0.48,2.23-1.1,3.22-1.84c0.97-0.76,1.86-1.61,2.66-2.54c1.33-1.6,2.41-3.37,3.25-5.25c0.75,0.86,1.64,1.69,2.65,2.48
				c-1.68,4.84-5.41,8.74-10.47,10.23c-0.73,0.22-1.49,0.37-2.27,0.48c-8.37-0.25-15.65-1.9-17.17-9.58
				c-0.06,3.95,1.94,6.77,5.24,8.61c-1.7,0.14-3.4,0.04-5.02-0.38c-2.23-0.62-4.29-1.78-5.95-3.38c-1.67-1.59-2.99-3.56-3.92-5.69
				c-0.46-1.07-0.8-2.2-0.93-3.35c-0.14-1.13-0.14-2.4,0.62-3.34c-0.47,0.38-0.74,0.97-0.88,1.56c-0.14,0.59-0.2,1.21-0.18,1.82
				c0.05,1.22,0.33,2.42,0.73,3.57c0.81,2.29,2.18,4.38,3.94,6.09c1.78,1.68,4.01,2.91,6.41,3.4c1.2,0.24,2.43,0.3,3.63,0.22
				c0.64-0.06,1.27-0.15,1.9-0.3c0.94,0.49,1.97,0.9,3.09,1.25c0.21-0.13,0.42-0.27,0.62-0.41l0.16,0.56c0.01,0,0.01,0,0.01,0
				c3.32,1.11,7.06,1.16,10.36,0.2c5.32-1.56,9.48-5.64,11.36-11.05c3.67,1.07,7.63,1.4,11.55,0.95c1.68-0.2,3.33-0.53,4.92-1
				c2.13-0.62,4.15-1.49,6.02-2.56c3.4,2.46,7.53,4.3,11.48,4.05h0.01L190.68,86.84z M191.19,51.08c-0.17-0.24-0.33-0.47-0.51-0.7
				c-1.94,0.67-3.63,2.02-4.93,4.19c1.93-2.08,4.1-3.08,6.44-3.3C191.86,51.2,191.52,51.13,191.19,51.08z M191.82,90.75
				c-0.33,0.21-0.67,0.41-1.01,0.61c-2.96,1.83-6.02,3.5-9.17,5c-1.57,0.74-3.17,1.46-4.8,2.07c-1.62,0.65-3.28,1.21-4.97,1.64
				c3.48-0.53,6.81-1.74,10.05-3.09c3.24-1.38,6.33-3.08,9.36-4.87l0.8-0.51L191.82,90.75z M192.82,94.16
				c-0.33,0.21-0.67,0.41-1.01,0.61c-2.96,1.83-6.02,3.5-9.17,5c-1.57,0.74-3.17,1.46-4.8,2.07c-1.62,0.65-3.28,1.22-4.97,1.65
				c3.48-0.53,6.81-1.74,10.05-3.09c3.24-1.38,6.33-3.07,9.36-4.87l0.8-0.5L192.82,94.16z M193.49,97.6
				c-0.79,0.52-1.59,1.03-2.39,1.54c-0.73,0.46-1.5,0.88-2.24,1.32l-1.13,0.65l-1.16,0.59c-3.04,1.66-6.24,3.04-9.49,4.24
				c-3.26,1.22-6.6,2.23-10.02,2.95c1.74-0.16,3.46-0.51,5.17-0.87c1.7-0.41,3.39-0.9,5.06-1.43c3.34-1.09,6.58-2.49,9.69-4.11
				c2.22-1.21,4.41-2.49,6.48-3.94C193.49,98.23,193.5,97.92,193.49,97.6z M202.53,64.73c-1.21-3.56-3.47-6.61-6.06-9.19
				c1.14,1.44,2.3,2.87,3.19,4.46c0.93,1.56,1.75,3.2,2.23,4.94c0.49,1.73,0.78,3.52,0.67,5.3c-0.1,1.78-0.57,3.53-1.38,5.11
				c-1.58,3.2-4.55,5.61-7.92,6.81c-3.38,1.19-7.26,1.04-10.55-0.64c1.54,1.01,3.35,1.61,5.2,1.83c1.86,0.2,3.76,0.01,5.56-0.54
				c3.59-1.12,6.75-3.67,8.5-7.05C203.67,72.33,203.77,68.25,202.53,64.73z M206.41,91.01c-0.4,0.55-0.79,1.11-1.2,1.64l-0.16,0.2
				c-0.05,0.07-0.1,0.16-0.16,0.23c-0.06,0.08-0.09,0.17-0.14,0.26c-0.04,0.09-0.07,0.18-0.09,0.27c-0.1,0.36-0.12,0.73-0.08,1.09
				c0.07,0.71,0.29,1.39,0.63,1.99c-0.15-0.67-0.27-1.35-0.27-2.01c0.01-0.33,0.04-0.65,0.15-0.94c0.04-0.15,0.11-0.28,0.19-0.41
				c0.04-0.06,0.07-0.12,0.13-0.19l0.17-0.2c0.43-0.56,0.8-1.14,1.15-1.73c0.35-0.6,0.66-1.21,0.93-1.85
				C207.21,89.9,206.81,90.45,206.41,91.01z M224.15,102.4c-0.26,0.52-0.53,1.03-0.82,1.53c-0.59,1-1.24,1.96-2.01,2.82
				c-0.38,0.43-0.79,0.82-1.24,1.16c-0.45,0.35-0.94,0.63-1.46,0.84c-1.05,0.43-2.25,0.37-3.36-0.02c0.52,0.28,1.09,0.46,1.69,0.55
				c0.6,0.07,1.22,0,1.79-0.19c1.17-0.37,2.15-1.15,2.95-2.03c0.79-0.89,1.45-1.9,1.97-2.95c0.27-0.52,0.51-1.07,0.71-1.62
				c0.1-0.27,0.19-0.56,0.28-0.83c0.08-0.28,0.17-0.57,0.19-0.86C224.66,101.35,224.4,101.87,224.15,102.4z M224.15,102.4
				c-0.26,0.52-0.53,1.03-0.82,1.53c-0.59,1-1.24,1.96-2.01,2.82c-0.38,0.43-0.79,0.82-1.24,1.16c-0.45,0.35-0.94,0.63-1.46,0.84
				c-1.05,0.43-2.25,0.37-3.36-0.02c0.52,0.28,1.09,0.46,1.69,0.55c0.6,0.07,1.22,0,1.79-0.19c1.17-0.37,2.15-1.15,2.95-2.03
				c0.79-0.89,1.45-1.9,1.97-2.95c0.27-0.52,0.51-1.07,0.71-1.62c0.1-0.27,0.19-0.56,0.28-0.83c0.08-0.28,0.17-0.57,0.19-0.86
				C224.66,101.35,224.4,101.87,224.15,102.4z M206.41,91.01c-0.4,0.55-0.79,1.11-1.2,1.64l-0.16,0.2c-0.05,0.07-0.1,0.16-0.16,0.23
				c-0.06,0.08-0.09,0.17-0.14,0.26c-0.04,0.09-0.07,0.18-0.09,0.27c-0.1,0.36-0.12,0.73-0.08,1.09c0.07,0.71,0.29,1.39,0.63,1.99
				c-0.15-0.67-0.27-1.35-0.27-2.01c0.01-0.33,0.04-0.65,0.15-0.94c0.04-0.15,0.11-0.28,0.19-0.41c0.04-0.06,0.07-0.12,0.13-0.19
				l0.17-0.2c0.43-0.56,0.8-1.14,1.15-1.73c0.35-0.6,0.66-1.21,0.93-1.85C207.21,89.9,206.81,90.45,206.41,91.01z M202.53,64.73
				c-1.21-3.56-3.47-6.61-6.06-9.19c1.14,1.44,2.3,2.87,3.19,4.46c0.93,1.56,1.75,3.2,2.23,4.94c0.49,1.73,0.78,3.52,0.67,5.3
				c-0.1,1.78-0.57,3.53-1.38,5.11c-1.58,3.2-4.55,5.61-7.92,6.81c-3.38,1.19-7.26,1.04-10.55-0.64c1.54,1.01,3.35,1.61,5.2,1.83
				c1.86,0.2,3.76,0.01,5.56-0.54c3.59-1.12,6.75-3.67,8.5-7.05C203.67,72.33,203.77,68.25,202.53,64.73z M193.49,97.6
				c-0.79,0.52-1.59,1.03-2.39,1.54c-0.73,0.46-1.5,0.88-2.24,1.32l-1.13,0.65l-1.16,0.59c-3.04,1.66-6.24,3.04-9.49,4.24
				c-3.26,1.22-6.6,2.23-10.02,2.95c1.74-0.16,3.46-0.51,5.17-0.87c1.7-0.41,3.39-0.9,5.06-1.43c3.34-1.09,6.58-2.49,9.69-4.11
				c2.22-1.21,4.41-2.49,6.48-3.94C193.49,98.23,193.5,97.92,193.49,97.6z M192.82,94.16c-0.33,0.21-0.67,0.41-1.01,0.61
				c-2.96,1.83-6.02,3.5-9.17,5c-1.57,0.74-3.17,1.46-4.8,2.07c-1.62,0.65-3.28,1.22-4.97,1.65c3.48-0.53,6.81-1.74,10.05-3.09
				c3.24-1.38,6.33-3.07,9.36-4.87l0.8-0.5L192.82,94.16z M191.82,90.75c-0.33,0.21-0.67,0.41-1.01,0.61c-2.96,1.83-6.02,3.5-9.17,5
				c-1.57,0.74-3.17,1.46-4.8,2.07c-1.62,0.65-3.28,1.21-4.97,1.64c3.48-0.53,6.81-1.74,10.05-3.09c3.24-1.38,6.33-3.08,9.36-4.87
				l0.8-0.51L191.82,90.75z M191.19,51.08c-0.17-0.24-0.33-0.47-0.51-0.7c-1.94,0.67-3.63,2.02-4.93,4.19
				c1.93-2.08,4.1-3.08,6.44-3.3C191.86,51.2,191.52,51.13,191.19,51.08z M190.68,86.84L190.68,86.84
				c-2.75,0.11-5.55-0.86-8.03-2.31c-2.37-1.38-3.89-3.94-3.72-6.68c0.03-0.5,0.1-1.03,0.2-1.56c-0.99,2.35-1.01,4.59-0.25,6.68
				c-1.74,1-3.64,1.82-5.68,2.42c-1.5,0.44-3.07,0.77-4.7,0.96c-3.5,0.4-6.89,0.15-10.02-0.64c-0.93-0.23-1.81-0.65-2.57-1.24
				c-3.57-2.75-5.64-6.24-4.71-11.07c-1.6,3.77-0.69,7.26,1.89,10.28c-1.07,1.76-2.27,3.43-3.66,4.92c-1.64,1.69-3.53,3.16-5.7,4.01
				c-2.14,0.89-4.53,1.17-6.83,0.78c-1.15-0.2-2.27-0.58-3.29-1.17c-1-0.58-1.96-1.38-2.37-2.53c0.22,1.22,1.17,2.17,2.14,2.89
				c1.02,0.7,2.18,1.18,3.38,1.47c2.42,0.58,5.01,0.31,7.31-0.62c1.15-0.48,2.23-1.1,3.22-1.84c0.97-0.76,1.86-1.61,2.66-2.54
				c1.33-1.6,2.41-3.37,3.25-5.25c0.75,0.86,1.64,1.69,2.65,2.48c-1.68,4.84-5.41,8.74-10.47,10.23c-0.73,0.22-1.49,0.37-2.27,0.48
				c-8.37-0.25-15.65-1.9-17.17-9.58c-0.06,3.95,1.94,6.77,5.24,8.61c-1.7,0.14-3.4,0.04-5.02-0.38c-2.23-0.62-4.29-1.78-5.95-3.38
				c-1.67-1.59-2.99-3.56-3.92-5.69c-0.46-1.07-0.8-2.2-0.93-3.35c-0.14-1.13-0.14-2.4,0.62-3.34c-0.47,0.38-0.74,0.97-0.88,1.56
				c-0.14,0.59-0.2,1.21-0.18,1.82c0.05,1.22,0.33,2.42,0.73,3.57c0.81,2.29,2.18,4.38,3.94,6.09c1.78,1.68,4.01,2.91,6.41,3.4
				c1.2,0.24,2.43,0.3,3.63,0.22c0.64-0.06,1.27-0.15,1.9-0.3c0.94,0.49,1.97,0.9,3.09,1.25c0.21-0.13,0.42-0.27,0.62-0.41
				l0.16,0.56c0.01,0,0.01,0,0.01,0c3.32,1.11,7.06,1.16,10.36,0.2c5.32-1.56,9.48-5.64,11.36-11.05c3.67,1.07,7.63,1.4,11.55,0.95
				c1.68-0.2,3.33-0.53,4.92-1c2.13-0.62,4.15-1.49,6.02-2.56c3.4,2.46,7.53,4.3,11.48,4.05h0.01L190.68,86.84z M178.34,46.13
				c-2.79-1.22-5.85-1.9-8.94-1.86c-3.08,0.1-6.14,0.89-8.82,2.38c-2.69,1.47-5.02,3.48-7.04,5.71c2.28-1.98,4.67-3.8,7.35-5.1
				c2.66-1.31,5.58-2.07,8.53-2.1c2.95-0.1,5.9,0.56,8.66,1.62c2.79,1.06,5.4,2.57,7.87,4.3C183.7,49.04,181.14,47.35,178.34,46.13z
				 M170.36,82.16c-2.28,0.61-4.65,0.88-6.95,0.49c-2.3-0.35-4.48-1.34-6.26-2.86c-0.88-0.76-1.64-1.67-2.2-2.7
				c-0.56-1.01-0.97-2.19-0.73-3.38c-0.44,1.15-0.12,2.46,0.34,3.58c0.51,1.12,1.25,2.14,2.13,3.01c1.77,1.74,4.13,2.85,6.58,3.24
				c1.23,0.19,2.47,0.21,3.7,0.09c1.23-0.15,2.43-0.41,3.59-0.8c2.32-0.8,4.46-1.98,6.37-3.45
				C174.82,80.51,172.64,81.52,170.36,82.16z M153.93,46.76c-0.38,0.28-0.75,0.59-1.11,0.9c-0.42-0.19-0.85-0.36-1.27-0.52
				c-2.64,3.54-3.43,7.48-0.91,11.57C148.94,53.96,150.63,50.11,153.93,46.76z M137.87,49.4c-2.97,0.69-5.83,1.98-8.28,3.85
				c-2.4,1.93-4.38,4.4-5.64,7.19c-1.27,2.79-1.94,5.79-2.22,8.79c0.64-2.95,1.48-5.84,2.83-8.48c1.35-2.64,3.24-5,5.58-6.79
				c2.31-1.85,5.06-3.08,7.91-3.89c2.87-0.82,5.86-1.17,8.87-1.27C143.9,48.52,140.84,48.71,137.87,49.4z M117.95,70.61
				c0.01,0.12,0.02,0.24,0.04,0.36c-0.38,0.29-0.74,0.6-1.09,0.92c1.33,3.12,3.74,5.29,7.62,5.8
				C120.87,76.4,118.89,73.86,117.95,70.61z M117.95,70.61c0.01,0.12,0.02,0.24,0.04,0.36c-0.38,0.29-0.74,0.6-1.09,0.92
				c1.33,3.12,3.74,5.29,7.62,5.8C120.87,76.4,118.89,73.86,117.95,70.61z M137.87,49.4c-2.97,0.69-5.83,1.98-8.28,3.85
				c-2.4,1.93-4.38,4.4-5.64,7.19c-1.27,2.79-1.94,5.79-2.22,8.79c0.64-2.95,1.48-5.84,2.83-8.48c1.35-2.64,3.24-5,5.58-6.79
				c2.31-1.85,5.06-3.08,7.91-3.89c2.87-0.82,5.86-1.17,8.87-1.27C143.9,48.52,140.84,48.71,137.87,49.4z M153.93,46.76
				c-0.38,0.28-0.75,0.59-1.11,0.9c-0.42-0.19-0.85-0.36-1.27-0.52c-2.64,3.54-3.43,7.48-0.91,11.57
				C148.94,53.96,150.63,50.11,153.93,46.76z M170.36,82.16c-2.28,0.61-4.65,0.88-6.95,0.49c-2.3-0.35-4.48-1.34-6.26-2.86
				c-0.88-0.76-1.64-1.67-2.2-2.7c-0.56-1.01-0.97-2.19-0.73-3.38c-0.44,1.15-0.12,2.46,0.34,3.58c0.51,1.12,1.25,2.14,2.13,3.01
				c1.77,1.74,4.13,2.85,6.58,3.24c1.23,0.19,2.47,0.21,3.7,0.09c1.23-0.15,2.43-0.41,3.59-0.8c2.32-0.8,4.46-1.98,6.37-3.45
				C174.82,80.51,172.64,81.52,170.36,82.16z M178.34,46.13c-2.79-1.22-5.85-1.9-8.94-1.86c-3.08,0.1-6.14,0.89-8.82,2.38
				c-2.69,1.47-5.02,3.48-7.04,5.71c2.28-1.98,4.67-3.8,7.35-5.1c2.66-1.31,5.58-2.07,8.53-2.1c2.95-0.1,5.9,0.56,8.66,1.62
				c2.79,1.06,5.4,2.57,7.87,4.3C183.7,49.04,181.14,47.35,178.34,46.13z M190.68,86.84L190.68,86.84
				c-2.75,0.11-5.55-0.86-8.03-2.31c-2.37-1.38-3.89-3.94-3.72-6.68c0.03-0.5,0.1-1.03,0.2-1.56c-0.99,2.35-1.01,4.59-0.25,6.68
				c-1.74,1-3.64,1.82-5.68,2.42c-1.5,0.44-3.07,0.77-4.7,0.96c-3.5,0.4-6.89,0.15-10.02-0.64c-0.93-0.23-1.81-0.65-2.57-1.24
				c-3.57-2.75-5.64-6.24-4.71-11.07c-1.6,3.77-0.69,7.26,1.89,10.28c-1.07,1.76-2.27,3.43-3.66,4.92c-1.64,1.69-3.53,3.16-5.7,4.01
				c-2.14,0.89-4.53,1.17-6.83,0.78c-1.15-0.2-2.27-0.58-3.29-1.17c-1-0.58-1.96-1.38-2.37-2.53c0.22,1.22,1.17,2.17,2.14,2.89
				c1.02,0.7,2.18,1.18,3.38,1.47c2.42,0.58,5.01,0.31,7.31-0.62c1.15-0.48,2.23-1.1,3.22-1.84c0.97-0.76,1.86-1.61,2.66-2.54
				c1.33-1.6,2.41-3.37,3.25-5.25c0.75,0.86,1.64,1.69,2.65,2.48c-1.68,4.84-5.41,8.74-10.47,10.23c-0.73,0.22-1.49,0.37-2.27,0.48
				c-8.37-0.25-15.65-1.9-17.17-9.58c-0.06,3.95,1.94,6.77,5.24,8.61c-1.7,0.14-3.4,0.04-5.02-0.38c-2.23-0.62-4.29-1.78-5.95-3.38
				c-1.67-1.59-2.99-3.56-3.92-5.69c-0.46-1.07-0.8-2.2-0.93-3.35c-0.14-1.13-0.14-2.4,0.62-3.34c-0.47,0.38-0.74,0.97-0.88,1.56
				c-0.14,0.59-0.2,1.21-0.18,1.82c0.05,1.22,0.33,2.42,0.73,3.57c0.81,2.29,2.18,4.38,3.94,6.09c1.78,1.68,4.01,2.91,6.41,3.4
				c1.2,0.24,2.43,0.3,3.63,0.22c0.64-0.06,1.27-0.15,1.9-0.3c0.94,0.49,1.97,0.9,3.09,1.25c0.21-0.13,0.42-0.27,0.62-0.41
				l0.16,0.56c0.01,0,0.01,0,0.01,0c3.32,1.11,7.06,1.16,10.36,0.2c5.32-1.56,9.48-5.64,11.36-11.05c3.67,1.07,7.63,1.4,11.55,0.95
				c1.68-0.2,3.33-0.53,4.92-1c2.13-0.62,4.15-1.49,6.02-2.56c3.4,2.46,7.53,4.3,11.48,4.05h0.01L190.68,86.84z M191.19,51.08
				c-0.17-0.24-0.33-0.47-0.51-0.7c-1.94,0.67-3.63,2.02-4.93,4.19c1.93-2.08,4.1-3.08,6.44-3.3
				C191.86,51.2,191.52,51.13,191.19,51.08z M191.82,90.75c-0.33,0.21-0.67,0.41-1.01,0.61c-2.96,1.83-6.02,3.5-9.17,5
				c-1.57,0.74-3.17,1.46-4.8,2.07c-1.62,0.65-3.28,1.21-4.97,1.64c3.48-0.53,6.81-1.74,10.05-3.09c3.24-1.38,6.33-3.08,9.36-4.87
				l0.8-0.51L191.82,90.75z M192.82,94.16c-0.33,0.21-0.67,0.41-1.01,0.61c-2.96,1.83-6.02,3.5-9.17,5
				c-1.57,0.74-3.17,1.46-4.8,2.07c-1.62,0.65-3.28,1.22-4.97,1.65c3.48-0.53,6.81-1.74,10.05-3.09c3.24-1.38,6.33-3.07,9.36-4.87
				l0.8-0.5L192.82,94.16z M193.49,97.6c-0.79,0.52-1.59,1.03-2.39,1.54c-0.73,0.46-1.5,0.88-2.24,1.32l-1.13,0.65l-1.16,0.59
				c-3.04,1.66-6.24,3.04-9.49,4.24c-3.26,1.22-6.6,2.23-10.02,2.95c1.74-0.16,3.46-0.51,5.17-0.87c1.7-0.41,3.39-0.9,5.06-1.43
				c3.34-1.09,6.58-2.49,9.69-4.11c2.22-1.21,4.41-2.49,6.48-3.94C193.49,98.23,193.5,97.92,193.49,97.6z M202.53,64.73
				c-1.21-3.56-3.47-6.61-6.06-9.19c1.14,1.44,2.3,2.87,3.19,4.46c0.93,1.56,1.75,3.2,2.23,4.94c0.49,1.73,0.78,3.52,0.67,5.3
				c-0.1,1.78-0.57,3.53-1.38,5.11c-1.58,3.2-4.55,5.61-7.92,6.81c-3.38,1.19-7.26,1.04-10.55-0.64c1.54,1.01,3.35,1.61,5.2,1.83
				c1.86,0.2,3.76,0.01,5.56-0.54c3.59-1.12,6.75-3.67,8.5-7.05C203.67,72.33,203.77,68.25,202.53,64.73z M206.41,91.01
				c-0.4,0.55-0.79,1.11-1.2,1.64l-0.16,0.2c-0.05,0.07-0.1,0.16-0.16,0.23c-0.06,0.08-0.09,0.17-0.14,0.26
				c-0.04,0.09-0.07,0.18-0.09,0.27c-0.1,0.36-0.12,0.73-0.08,1.09c0.07,0.71,0.29,1.39,0.63,1.99c-0.15-0.67-0.27-1.35-0.27-2.01
				c0.01-0.33,0.04-0.65,0.15-0.94c0.04-0.15,0.11-0.28,0.19-0.41c0.04-0.06,0.07-0.12,0.13-0.19l0.17-0.2
				c0.43-0.56,0.8-1.14,1.15-1.73c0.35-0.6,0.66-1.21,0.93-1.85C207.21,89.9,206.81,90.45,206.41,91.01z M224.15,102.4
				c-0.26,0.52-0.53,1.03-0.82,1.53c-0.59,1-1.24,1.96-2.01,2.82c-0.38,0.43-0.79,0.82-1.24,1.16c-0.45,0.35-0.94,0.63-1.46,0.84
				c-1.05,0.43-2.25,0.37-3.36-0.02c0.52,0.28,1.09,0.46,1.69,0.55c0.6,0.07,1.22,0,1.79-0.19c1.17-0.37,2.15-1.15,2.95-2.03
				c0.79-0.89,1.45-1.9,1.97-2.95c0.27-0.52,0.51-1.07,0.71-1.62c0.1-0.27,0.19-0.56,0.28-0.83c0.08-0.28,0.17-0.57,0.19-0.86
				C224.66,101.35,224.4,101.87,224.15,102.4z M224.15,102.4c-0.26,0.52-0.53,1.03-0.82,1.53c-0.59,1-1.24,1.96-2.01,2.82
				c-0.38,0.43-0.79,0.82-1.24,1.16c-0.45,0.35-0.94,0.63-1.46,0.84c-1.05,0.43-2.25,0.37-3.36-0.02c0.52,0.28,1.09,0.46,1.69,0.55
				c0.6,0.07,1.22,0,1.79-0.19c1.17-0.37,2.15-1.15,2.95-2.03c0.79-0.89,1.45-1.9,1.97-2.95c0.27-0.52,0.51-1.07,0.71-1.62
				c0.1-0.27,0.19-0.56,0.28-0.83c0.08-0.28,0.17-0.57,0.19-0.86C224.66,101.35,224.4,101.87,224.15,102.4z M205.21,92.64l-0.16,0.2
				c-0.05,0.07-0.1,0.16-0.16,0.23c-0.06,0.08-0.09,0.17-0.14,0.26c-0.04,0.09-0.07,0.18-0.09,0.27c-0.1,0.36-0.12,0.73-0.08,1.09
				c0.07,0.71,0.29,1.39,0.63,1.99c-0.15-0.67-0.27-1.35-0.27-2.01c0.01-0.33,0.04-0.65,0.15-0.94c0.04-0.15,0.11-0.28,0.19-0.41
				c0.04-0.06,0.07-0.12,0.13-0.19l0.17-0.2c0.43-0.56,0.8-1.14,1.15-1.73c0.35-0.6,0.66-1.21,0.93-1.85
				c-0.44,0.54-0.84,1.09-1.24,1.65C206.01,91.56,205.62,92.12,205.21,92.64z M196.47,55.53c1.14,1.44,2.3,2.87,3.19,4.46
				c0.93,1.56,1.75,3.2,2.23,4.94c0.49,1.73,0.78,3.52,0.67,5.3c-0.1,1.78-0.57,3.53-1.38,5.11c-1.58,3.2-4.55,5.61-7.92,6.81
				c-3.38,1.19-7.26,1.04-10.55-0.64c1.54,1.01,3.35,1.61,5.2,1.83c1.86,0.2,3.76,0.01,5.56-0.54c3.59-1.12,6.75-3.67,8.5-7.05
				c1.72-3.41,1.81-7.49,0.57-11.02C201.32,61.17,199.06,58.12,196.47,55.53z M191.1,99.14c-0.73,0.46-1.5,0.88-2.24,1.32
				l-1.13,0.65l-1.16,0.59c-3.04,1.66-6.24,3.04-9.49,4.24c-3.26,1.22-6.6,2.23-10.02,2.95c1.74-0.16,3.46-0.51,5.17-0.87
				c1.7-0.41,3.39-0.9,5.06-1.43c3.34-1.09,6.58-2.49,9.69-4.11c2.22-1.21,4.41-2.49,6.48-3.94c0.02-0.31,0.03-0.62,0.02-0.94
				C192.69,98.11,191.89,98.63,191.1,99.14z M177.84,101.83c-1.62,0.65-3.28,1.22-4.97,1.65c3.48-0.53,6.81-1.74,10.05-3.09
				c3.24-1.38,6.33-3.07,9.36-4.87l0.8-0.5l-0.25-0.86c-0.33,0.21-0.67,0.41-1.01,0.61c-2.96,1.83-6.02,3.5-9.17,5
				C181.07,100.5,179.48,101.22,177.84,101.83z M190.82,91.36c-2.96,1.83-6.02,3.5-9.17,5c-1.57,0.74-3.17,1.46-4.8,2.07
				c-1.62,0.65-3.28,1.21-4.97,1.64c3.48-0.53,6.81-1.74,10.05-3.09c3.24-1.38,6.33-3.08,9.36-4.87l0.8-0.51l-0.25-0.86
				C191.49,90.96,191.16,91.15,190.82,91.36z M192.19,51.27c-0.33-0.07-0.67-0.14-1.01-0.19c-0.17-0.24-0.33-0.47-0.51-0.7
				c-1.94,0.67-3.63,2.02-4.93,4.19C187.68,52.49,189.85,51.49,192.19,51.27z M173.56,86.68c2.13-0.62,4.15-1.49,6.02-2.56
				c3.4,2.46,7.53,4.3,11.48,4.05h0.01l-0.4-1.33v-0.01c-2.75,0.12-5.55-0.86-8.03-2.3c-2.37-1.38-3.89-3.94-3.72-6.68
				c0.03-0.5,0.1-1.03,0.2-1.56c-0.99,2.35-1.01,4.59-0.25,6.68c-1.74,1-3.64,1.82-5.68,2.42c-1.5,0.44-3.07,0.77-4.7,0.96
				c-3.5,0.4-6.89,0.15-10.02-0.64c-0.93-0.23-1.81-0.65-2.57-1.24c-3.57-2.75-5.64-6.24-4.71-11.07c-1.6,3.77-0.69,7.26,1.89,10.28
				c-1.07,1.76-2.27,3.43-3.66,4.92c-1.64,1.69-3.53,3.16-5.7,4.01c-2.14,0.89-4.53,1.17-6.83,0.78c-1.15-0.2-2.27-0.58-3.29-1.17
				c-1-0.58-1.96-1.38-2.37-2.53c0.22,1.22,1.17,2.17,2.14,2.89c1.02,0.7,2.18,1.18,3.38,1.47c2.42,0.58,5.01,0.31,7.31-0.62
				c1.15-0.48,2.23-1.1,3.22-1.84c0.97-0.76,1.86-1.61,2.66-2.54c1.33-1.6,2.41-3.37,3.25-5.25c0.75,0.86,1.64,1.69,2.65,2.48
				c-1.68,4.84-5.41,8.74-10.47,10.23c-0.73,0.22-1.49,0.37-2.27,0.48c-8.37-0.25-15.65-1.9-17.17-9.58
				c-0.06,3.95,1.94,6.77,5.24,8.61c-1.7,0.14-3.4,0.04-5.02-0.38c-2.23-0.62-4.29-1.78-5.95-3.38c-1.67-1.59-2.99-3.56-3.92-5.69
				c-0.46-1.07-0.8-2.2-0.93-3.35c-0.14-1.13-0.14-2.4,0.62-3.34c-0.47,0.38-0.74,0.97-0.88,1.56c-0.14,0.59-0.2,1.21-0.18,1.82
				c0.05,1.22,0.33,2.42,0.73,3.57c0.81,2.29,2.18,4.38,3.94,6.09c1.78,1.68,4.01,2.91,6.41,3.4c1.2,0.24,2.43,0.3,3.63,0.22
				c0.64-0.06,1.27-0.15,1.9-0.3c0.94,0.49,1.97,0.9,3.09,1.25c0.21-0.13,0.42-0.27,0.62-0.41l0.16,0.56c0.01,0,0.01,0,0.01,0
				c3.32,1.11,7.06,1.16,10.36,0.2c5.32-1.56,9.48-5.64,11.36-11.05c3.67,1.07,7.63,1.4,11.55,0.95
				C170.32,87.49,171.97,87.15,173.56,86.68z M160.88,47.24c2.66-1.31,5.58-2.07,8.53-2.1c2.95-0.1,5.9,0.56,8.66,1.62
				c2.79,1.06,5.4,2.57,7.87,4.3c-2.24-2.02-4.81-3.71-7.61-4.93c-2.79-1.22-5.85-1.9-8.94-1.86c-3.08,0.1-6.14,0.89-8.82,2.38
				c-2.69,1.47-5.02,3.48-7.04,5.71C155.81,50.37,158.21,48.55,160.88,47.24z M154.56,77.28c0.51,1.12,1.25,2.14,2.13,3.01
				c1.77,1.74,4.13,2.85,6.58,3.24c1.23,0.19,2.47,0.21,3.7,0.09c1.23-0.15,2.43-0.41,3.59-0.8c2.32-0.8,4.46-1.98,6.37-3.45
				c-2.11,1.16-4.29,2.16-6.57,2.8c-2.28,0.61-4.65,0.88-6.95,0.49c-2.3-0.35-4.48-1.34-6.26-2.86c-0.88-0.76-1.64-1.67-2.2-2.7
				c-0.56-1.01-0.97-2.19-0.73-3.38C153.78,74.86,154.1,76.16,154.56,77.28z M153.93,46.76c-0.38,0.28-0.75,0.59-1.11,0.9
				c-0.42-0.19-0.85-0.36-1.27-0.52c-2.64,3.54-3.43,7.48-0.91,11.57C148.94,53.96,150.63,50.11,153.93,46.76z M130.13,53.96
				c2.31-1.85,5.06-3.08,7.91-3.89c2.87-0.82,5.86-1.17,8.87-1.27c-3.01-0.28-6.08-0.09-9.05,0.61c-2.97,0.69-5.83,1.98-8.28,3.85
				c-2.4,1.93-4.38,4.4-5.64,7.19c-1.27,2.79-1.94,5.79-2.22,8.79c0.64-2.95,1.48-5.84,2.83-8.48
				C125.9,58.11,127.79,55.75,130.13,53.96z M124.52,77.7c-3.66-1.3-5.63-3.84-6.57-7.09c0.01,0.12,0.02,0.24,0.04,0.36
				c-0.38,0.29-0.74,0.6-1.09,0.92C118.23,75.01,120.64,77.18,124.52,77.7z M224.15,102.4c-0.26,0.52-0.53,1.03-0.82,1.53
				c-0.59,1-1.24,1.96-2.01,2.82c-0.38,0.43-0.79,0.82-1.24,1.16c-0.45,0.35-0.94,0.63-1.46,0.84c-1.05,0.43-2.25,0.37-3.36-0.02
				c0.52,0.28,1.09,0.46,1.69,0.55c0.6,0.07,1.22,0,1.79-0.19c1.17-0.37,2.15-1.15,2.95-2.03c0.79-0.89,1.45-1.9,1.97-2.95
				c0.27-0.52,0.51-1.07,0.71-1.62c0.1-0.27,0.19-0.56,0.28-0.83c0.08-0.28,0.17-0.57,0.19-0.86
				C224.66,101.35,224.4,101.87,224.15,102.4z M205.21,92.64l-0.16,0.2c-0.05,0.07-0.1,0.16-0.16,0.23
				c-0.06,0.08-0.09,0.17-0.14,0.26c-0.04,0.09-0.07,0.18-0.09,0.27c-0.1,0.36-0.12,0.73-0.08,1.09c0.07,0.71,0.29,1.39,0.63,1.99
				c-0.15-0.67-0.27-1.35-0.27-2.01c0.01-0.33,0.04-0.65,0.15-0.94c0.04-0.15,0.11-0.28,0.19-0.41c0.04-0.06,0.07-0.12,0.13-0.19
				l0.17-0.2c0.43-0.56,0.8-1.14,1.15-1.73c0.35-0.6,0.66-1.21,0.93-1.85c-0.44,0.54-0.84,1.09-1.24,1.65
				C206.01,91.56,205.62,92.12,205.21,92.64z M196.47,55.53c1.14,1.44,2.3,2.87,3.19,4.46c0.93,1.56,1.75,3.2,2.23,4.94
				c0.49,1.73,0.78,3.52,0.67,5.3c-0.1,1.78-0.57,3.53-1.38,5.11c-1.58,3.2-4.55,5.61-7.92,6.81c-3.38,1.19-7.26,1.04-10.55-0.64
				c1.54,1.01,3.35,1.61,5.2,1.83c1.86,0.2,3.76,0.01,5.56-0.54c3.59-1.12,6.75-3.67,8.5-7.05c1.72-3.41,1.81-7.49,0.57-11.02
				C201.32,61.17,199.06,58.12,196.47,55.53z M191.1,99.14c-0.73,0.46-1.5,0.88-2.24,1.32l-1.13,0.65l-1.16,0.59
				c-3.04,1.66-6.24,3.04-9.49,4.24c-3.26,1.22-6.6,2.23-10.02,2.95c1.74-0.16,3.46-0.51,5.17-0.87c1.7-0.41,3.39-0.9,5.06-1.43
				c3.34-1.09,6.58-2.49,9.69-4.11c2.22-1.21,4.41-2.49,6.48-3.94c0.02-0.31,0.03-0.62,0.02-0.94
				C192.69,98.11,191.89,98.63,191.1,99.14z M177.84,101.83c-1.62,0.65-3.28,1.22-4.97,1.65c3.48-0.53,6.81-1.74,10.05-3.09
				c3.24-1.38,6.33-3.07,9.36-4.87l0.8-0.5l-0.25-0.86c-0.33,0.21-0.67,0.41-1.01,0.61c-2.96,1.83-6.02,3.5-9.17,5
				C181.07,100.5,179.48,101.22,177.84,101.83z M190.82,91.36c-2.96,1.83-6.02,3.5-9.17,5c-1.57,0.74-3.17,1.46-4.8,2.07
				c-1.62,0.65-3.28,1.21-4.97,1.64c3.48-0.53,6.81-1.74,10.05-3.09c3.24-1.38,6.33-3.08,9.36-4.87l0.8-0.51l-0.25-0.86
				C191.49,90.96,191.16,91.15,190.82,91.36z M192.19,51.27c-0.33-0.07-0.67-0.14-1.01-0.19c-0.17-0.24-0.33-0.47-0.51-0.7
				c-1.94,0.67-3.63,2.02-4.93,4.19C187.68,52.49,189.85,51.49,192.19,51.27z M173.56,86.68c2.13-0.62,4.15-1.49,6.02-2.56
				c3.4,2.46,7.53,4.3,11.48,4.05h0.01l-0.4-1.33v-0.01c-2.75,0.12-5.55-0.86-8.03-2.3c-2.37-1.38-3.89-3.94-3.72-6.68
				c0.03-0.5,0.1-1.03,0.2-1.56c-0.99,2.35-1.01,4.59-0.25,6.68c-1.74,1-3.64,1.82-5.68,2.42c-1.5,0.44-3.07,0.77-4.7,0.96
				c-3.5,0.4-6.89,0.15-10.02-0.64c-0.93-0.23-1.81-0.65-2.57-1.24c-3.57-2.75-5.64-6.24-4.71-11.07c-1.6,3.77-0.69,7.26,1.89,10.28
				c-1.07,1.76-2.27,3.43-3.66,4.92c-1.64,1.69-3.53,3.16-5.7,4.01c-2.14,0.89-4.53,1.17-6.83,0.78c-1.15-0.2-2.27-0.58-3.29-1.17
				c-1-0.58-1.96-1.38-2.37-2.53c0.22,1.22,1.17,2.17,2.14,2.89c1.02,0.7,2.18,1.18,3.38,1.47c2.42,0.58,5.01,0.31,7.31-0.62
				c1.15-0.48,2.23-1.1,3.22-1.84c0.97-0.76,1.86-1.61,2.66-2.54c1.33-1.6,2.41-3.37,3.25-5.25c0.75,0.86,1.64,1.69,2.65,2.48
				c-1.68,4.84-5.41,8.74-10.47,10.23c-0.73,0.22-1.49,0.37-2.27,0.48c-8.37-0.25-15.65-1.9-17.17-9.58
				c-0.06,3.95,1.94,6.77,5.24,8.61c-1.7,0.14-3.4,0.04-5.02-0.38c-2.23-0.62-4.29-1.78-5.95-3.38c-1.67-1.59-2.99-3.56-3.92-5.69
				c-0.46-1.07-0.8-2.2-0.93-3.35c-0.14-1.13-0.14-2.4,0.62-3.34c-0.47,0.38-0.74,0.97-0.88,1.56c-0.14,0.59-0.2,1.21-0.18,1.82
				c0.05,1.22,0.33,2.42,0.73,3.57c0.81,2.29,2.18,4.38,3.94,6.09c1.78,1.68,4.01,2.91,6.41,3.4c1.2,0.24,2.43,0.3,3.63,0.22
				c0.64-0.06,1.27-0.15,1.9-0.3c0.94,0.49,1.97,0.9,3.09,1.25c0.21-0.13,0.42-0.27,0.62-0.41l0.16,0.56c0.01,0,0.01,0,0.01,0
				c3.32,1.11,7.06,1.16,10.36,0.2c5.32-1.56,9.48-5.64,11.36-11.05c3.67,1.07,7.63,1.4,11.55,0.95
				C170.32,87.49,171.97,87.15,173.56,86.68z M160.88,47.24c2.66-1.31,5.58-2.07,8.53-2.1c2.95-0.1,5.9,0.56,8.66,1.62
				c2.79,1.06,5.4,2.57,7.87,4.3c-2.24-2.02-4.81-3.71-7.61-4.93c-2.79-1.22-5.85-1.9-8.94-1.86c-3.08,0.1-6.14,0.89-8.82,2.38
				c-2.69,1.47-5.02,3.48-7.04,5.71C155.81,50.37,158.21,48.55,160.88,47.24z M154.56,77.28c0.51,1.12,1.25,2.14,2.13,3.01
				c1.77,1.74,4.13,2.85,6.58,3.24c1.23,0.19,2.47,0.21,3.7,0.09c1.23-0.15,2.43-0.41,3.59-0.8c2.32-0.8,4.46-1.98,6.37-3.45
				c-2.11,1.16-4.29,2.16-6.57,2.8c-2.28,0.61-4.65,0.88-6.95,0.49c-2.3-0.35-4.48-1.34-6.26-2.86c-0.88-0.76-1.64-1.67-2.2-2.7
				c-0.56-1.01-0.97-2.19-0.73-3.38C153.78,74.86,154.1,76.16,154.56,77.28z M153.93,46.76c-0.38,0.28-0.75,0.59-1.11,0.9
				c-0.42-0.19-0.85-0.36-1.27-0.52c-2.64,3.54-3.43,7.48-0.91,11.57C148.94,53.96,150.63,50.11,153.93,46.76z M130.13,53.96
				c2.31-1.85,5.06-3.08,7.91-3.89c2.87-0.82,5.86-1.17,8.87-1.27c-3.01-0.28-6.08-0.09-9.05,0.61c-2.97,0.69-5.83,1.98-8.28,3.85
				c-2.4,1.93-4.38,4.4-5.64,7.19c-1.27,2.79-1.94,5.79-2.22,8.79c0.64-2.95,1.48-5.84,2.83-8.48
				C125.9,58.11,127.79,55.75,130.13,53.96z M124.52,77.7c-3.66-1.3-5.63-3.84-6.57-7.09c0.01,0.12,0.02,0.24,0.04,0.36
				c-0.38,0.29-0.74,0.6-1.09,0.92C118.23,75.01,120.64,77.18,124.52,77.7z M117.95,70.61c0.01,0.12,0.02,0.24,0.04,0.36
				c-0.38,0.29-0.74,0.6-1.09,0.92c1.33,3.12,3.74,5.29,7.62,5.8C120.87,76.4,118.89,73.86,117.95,70.61z M137.87,49.4
				c-2.97,0.69-5.83,1.98-8.28,3.85c-2.4,1.93-4.38,4.4-5.64,7.19c-1.27,2.79-1.94,5.79-2.22,8.79c0.64-2.95,1.48-5.84,2.83-8.48
				c1.35-2.64,3.24-5,5.58-6.79c2.31-1.85,5.06-3.08,7.91-3.89c2.87-0.82,5.86-1.17,8.87-1.27C143.9,48.52,140.84,48.71,137.87,49.4
				z M153.93,46.76c-0.38,0.28-0.75,0.59-1.11,0.9c-0.42-0.19-0.85-0.36-1.27-0.52c-2.64,3.54-3.43,7.48-0.91,11.57
				C148.94,53.96,150.63,50.11,153.93,46.76z M170.36,82.16c-2.28,0.61-4.65,0.88-6.95,0.49c-2.3-0.35-4.48-1.34-6.26-2.86
				c-0.88-0.76-1.64-1.67-2.2-2.7c-0.56-1.01-0.97-2.19-0.73-3.38c-0.44,1.15-0.12,2.46,0.34,3.58c0.51,1.12,1.25,2.14,2.13,3.01
				c1.77,1.74,4.13,2.85,6.58,3.24c1.23,0.19,2.47,0.21,3.7,0.09c1.23-0.15,2.43-0.41,3.59-0.8c2.32-0.8,4.46-1.98,6.37-3.45
				C174.82,80.51,172.64,81.52,170.36,82.16z M178.34,46.13c-2.79-1.22-5.85-1.9-8.94-1.86c-3.08,0.1-6.14,0.89-8.82,2.38
				c-2.69,1.47-5.02,3.48-7.04,5.71c2.28-1.98,4.67-3.8,7.35-5.1c2.66-1.31,5.58-2.07,8.53-2.1c2.95-0.1,5.9,0.56,8.66,1.62
				c2.79,1.06,5.4,2.57,7.87,4.3C183.7,49.04,181.14,47.35,178.34,46.13z M190.68,86.84L190.68,86.84
				c-2.75,0.11-5.55-0.86-8.03-2.31c-2.37-1.38-3.89-3.94-3.72-6.68c0.03-0.5,0.1-1.03,0.2-1.56c-0.99,2.35-1.01,4.59-0.25,6.68
				c-1.74,1-3.64,1.82-5.68,2.42c-1.5,0.44-3.07,0.77-4.7,0.96c-3.5,0.4-6.89,0.15-10.02-0.64c-0.93-0.23-1.81-0.65-2.57-1.24
				c-3.57-2.75-5.64-6.24-4.71-11.07c-1.6,3.77-0.69,7.26,1.89,10.28c-1.07,1.76-2.27,3.43-3.66,4.92c-1.64,1.69-3.53,3.16-5.7,4.01
				c-2.14,0.89-4.53,1.17-6.83,0.78c-1.15-0.2-2.27-0.58-3.29-1.17c-1-0.58-1.96-1.38-2.37-2.53c0.22,1.22,1.17,2.17,2.14,2.89
				c1.02,0.7,2.18,1.18,3.38,1.47c2.42,0.58,5.01,0.31,7.31-0.62c1.15-0.48,2.23-1.1,3.22-1.84c0.97-0.76,1.86-1.61,2.66-2.54
				c1.33-1.6,2.41-3.37,3.25-5.25c0.75,0.86,1.64,1.69,2.65,2.48c-1.68,4.84-5.41,8.74-10.47,10.23c-0.73,0.22-1.49,0.37-2.27,0.48
				c-8.37-0.25-15.65-1.9-17.17-9.58c-0.06,3.95,1.94,6.77,5.24,8.61c-1.7,0.14-3.4,0.04-5.02-0.38c-2.23-0.62-4.29-1.78-5.95-3.38
				c-1.67-1.59-2.99-3.56-3.92-5.69c-0.46-1.07-0.8-2.2-0.93-3.35c-0.14-1.13-0.14-2.4,0.62-3.34c-0.47,0.38-0.74,0.97-0.88,1.56
				c-0.14,0.59-0.2,1.21-0.18,1.82c0.05,1.22,0.33,2.42,0.73,3.57c0.81,2.29,2.18,4.38,3.94,6.09c1.78,1.68,4.01,2.91,6.41,3.4
				c1.2,0.24,2.43,0.3,3.63,0.22c0.64-0.06,1.27-0.15,1.9-0.3c0.94,0.49,1.97,0.9,3.09,1.25c0.21-0.13,0.42-0.27,0.62-0.41
				l0.16,0.56c0.01,0,0.01,0,0.01,0c3.32,1.11,7.06,1.16,10.36,0.2c5.32-1.56,9.48-5.64,11.36-11.05c3.67,1.07,7.63,1.4,11.55,0.95
				c1.68-0.2,3.33-0.53,4.92-1c2.13-0.62,4.15-1.49,6.02-2.56c3.4,2.46,7.53,4.3,11.48,4.05h0.01L190.68,86.84z M191.19,51.08
				c-0.17-0.24-0.33-0.47-0.51-0.7c-1.94,0.67-3.63,2.02-4.93,4.19c1.93-2.08,4.1-3.08,6.44-3.3
				C191.86,51.2,191.52,51.13,191.19,51.08z M191.82,90.75c-0.33,0.21-0.67,0.41-1.01,0.61c-2.96,1.83-6.02,3.5-9.17,5
				c-1.57,0.74-3.17,1.46-4.8,2.07c-1.62,0.65-3.28,1.21-4.97,1.64c3.48-0.53,6.81-1.74,10.05-3.09c3.24-1.38,6.33-3.08,9.36-4.87
				l0.8-0.51L191.82,90.75z M192.82,94.16c-0.33,0.21-0.67,0.41-1.01,0.61c-2.96,1.83-6.02,3.5-9.17,5
				c-1.57,0.74-3.17,1.46-4.8,2.07c-1.62,0.65-3.28,1.22-4.97,1.65c3.48-0.53,6.81-1.74,10.05-3.09c3.24-1.38,6.33-3.07,9.36-4.87
				l0.8-0.5L192.82,94.16z M193.49,97.6c-0.79,0.52-1.59,1.03-2.39,1.54c-0.73,0.46-1.5,0.88-2.24,1.32l-1.13,0.65l-1.16,0.59
				c-3.04,1.66-6.24,3.04-9.49,4.24c-3.26,1.22-6.6,2.23-10.02,2.95c1.74-0.16,3.46-0.51,5.17-0.87c1.7-0.41,3.39-0.9,5.06-1.43
				c3.34-1.09,6.58-2.49,9.69-4.11c2.22-1.21,4.41-2.49,6.48-3.94C193.49,98.23,193.5,97.92,193.49,97.6z M202.53,64.73
				c-1.21-3.56-3.47-6.61-6.06-9.19c1.14,1.44,2.3,2.87,3.19,4.46c0.93,1.56,1.75,3.2,2.23,4.94c0.49,1.73,0.78,3.52,0.67,5.3
				c-0.1,1.78-0.57,3.53-1.38,5.11c-1.58,3.2-4.55,5.61-7.92,6.81c-3.38,1.19-7.26,1.04-10.55-0.64c1.54,1.01,3.35,1.61,5.2,1.83
				c1.86,0.2,3.76,0.01,5.56-0.54c3.59-1.12,6.75-3.67,8.5-7.05C203.67,72.33,203.77,68.25,202.53,64.73z M206.41,91.01
				c-0.4,0.55-0.79,1.11-1.2,1.64l-0.16,0.2c-0.05,0.07-0.1,0.16-0.16,0.23c-0.06,0.08-0.09,0.17-0.14,0.26
				c-0.04,0.09-0.07,0.18-0.09,0.27c-0.1,0.36-0.12,0.73-0.08,1.09c0.07,0.71,0.29,1.39,0.63,1.99c-0.15-0.67-0.27-1.35-0.27-2.01
				c0.01-0.33,0.04-0.65,0.15-0.94c0.04-0.15,0.11-0.28,0.19-0.41c0.04-0.06,0.07-0.12,0.13-0.19l0.17-0.2
				c0.43-0.56,0.8-1.14,1.15-1.73c0.35-0.6,0.66-1.21,0.93-1.85C207.21,89.9,206.81,90.45,206.41,91.01z M224.15,102.4
				c-0.26,0.52-0.53,1.03-0.82,1.53c-0.59,1-1.24,1.96-2.01,2.82c-0.38,0.43-0.79,0.82-1.24,1.16c-0.45,0.35-0.94,0.63-1.46,0.84
				c-1.05,0.43-2.25,0.37-3.36-0.02c0.52,0.28,1.09,0.46,1.69,0.55c0.6,0.07,1.22,0,1.79-0.19c1.17-0.37,2.15-1.15,2.95-2.03
				c0.79-0.89,1.45-1.9,1.97-2.95c0.27-0.52,0.51-1.07,0.71-1.62c0.1-0.27,0.19-0.56,0.28-0.83c0.08-0.28,0.17-0.57,0.19-0.86
				C224.66,101.35,224.4,101.87,224.15,102.4z M224.15,102.4c-0.26,0.52-0.53,1.03-0.82,1.53c-0.59,1-1.24,1.96-2.01,2.82
				c-0.38,0.43-0.79,0.82-1.24,1.16c-0.45,0.35-0.94,0.63-1.46,0.84c-1.05,0.43-2.25,0.37-3.36-0.02c0.52,0.28,1.09,0.46,1.69,0.55
				c0.6,0.07,1.22,0,1.79-0.19c1.17-0.37,2.15-1.15,2.95-2.03c0.79-0.89,1.45-1.9,1.97-2.95c0.27-0.52,0.51-1.07,0.71-1.62
				c0.1-0.27,0.19-0.56,0.28-0.83c0.08-0.28,0.17-0.57,0.19-0.86C224.66,101.35,224.4,101.87,224.15,102.4z M206.41,91.01
				c-0.4,0.55-0.79,1.11-1.2,1.64l-0.16,0.2c-0.05,0.07-0.1,0.16-0.16,0.23c-0.06,0.08-0.09,0.17-0.14,0.26
				c-0.04,0.09-0.07,0.18-0.09,0.27c-0.1,0.36-0.12,0.73-0.08,1.09c0.07,0.71,0.29,1.39,0.63,1.99c-0.15-0.67-0.27-1.35-0.27-2.01
				c0.01-0.33,0.04-0.65,0.15-0.94c0.04-0.15,0.11-0.28,0.19-0.41c0.04-0.06,0.07-0.12,0.13-0.19l0.17-0.2
				c0.43-0.56,0.8-1.14,1.15-1.73c0.35-0.6,0.66-1.21,0.93-1.85C207.21,89.9,206.81,90.45,206.41,91.01z M202.53,64.73
				c-1.21-3.56-3.47-6.61-6.06-9.19c1.14,1.44,2.3,2.87,3.19,4.46c0.93,1.56,1.75,3.2,2.23,4.94c0.49,1.73,0.78,3.52,0.67,5.3
				c-0.1,1.78-0.57,3.53-1.38,5.11c-1.58,3.2-4.55,5.61-7.92,6.81c-3.38,1.19-7.26,1.04-10.55-0.64c1.54,1.01,3.35,1.61,5.2,1.83
				c1.86,0.2,3.76,0.01,5.56-0.54c3.59-1.12,6.75-3.67,8.5-7.05C203.67,72.33,203.77,68.25,202.53,64.73z M193.49,97.6
				c-0.79,0.52-1.59,1.03-2.39,1.54c-0.73,0.46-1.5,0.88-2.24,1.32l-1.13,0.65l-1.16,0.59c-3.04,1.66-6.24,3.04-9.49,4.24
				c-3.26,1.22-6.6,2.23-10.02,2.95c1.74-0.16,3.46-0.51,5.17-0.87c1.7-0.41,3.39-0.9,5.06-1.43c3.34-1.09,6.58-2.49,9.69-4.11
				c2.22-1.21,4.41-2.49,6.48-3.94C193.49,98.23,193.5,97.92,193.49,97.6z M192.82,94.16c-0.33,0.21-0.67,0.41-1.01,0.61
				c-2.96,1.83-6.02,3.5-9.17,5c-1.57,0.74-3.17,1.46-4.8,2.07c-1.62,0.65-3.28,1.22-4.97,1.65c3.48-0.53,6.81-1.74,10.05-3.09
				c3.24-1.38,6.33-3.07,9.36-4.87l0.8-0.5L192.82,94.16z M191.82,90.75c-0.33,0.21-0.67,0.41-1.01,0.61c-2.96,1.83-6.02,3.5-9.17,5
				c-1.57,0.74-3.17,1.46-4.8,2.07c-1.62,0.65-3.28,1.21-4.97,1.64c3.48-0.53,6.81-1.74,10.05-3.09c3.24-1.38,6.33-3.08,9.36-4.87
				l0.8-0.51L191.82,90.75z M191.19,51.08c-0.17-0.24-0.33-0.47-0.51-0.7c-1.94,0.67-3.63,2.02-4.93,4.19
				c1.93-2.08,4.1-3.08,6.44-3.3C191.86,51.2,191.52,51.13,191.19,51.08z M190.68,86.84L190.68,86.84
				c-2.75,0.11-5.55-0.86-8.03-2.31c-2.37-1.38-3.89-3.94-3.72-6.68c0.03-0.5,0.1-1.03,0.2-1.56c-0.99,2.35-1.01,4.59-0.25,6.68
				c-1.74,1-3.64,1.82-5.68,2.42c-1.5,0.44-3.07,0.77-4.7,0.96c-3.5,0.4-6.89,0.15-10.02-0.64c-0.93-0.23-1.81-0.65-2.57-1.24
				c-3.57-2.75-5.64-6.24-4.71-11.07c-1.6,3.77-0.69,7.26,1.89,10.28c-1.07,1.76-2.27,3.43-3.66,4.92c-1.64,1.69-3.53,3.16-5.7,4.01
				c-2.14,0.89-4.53,1.17-6.83,0.78c-1.15-0.2-2.27-0.58-3.29-1.17c-1-0.58-1.96-1.38-2.37-2.53c0.22,1.22,1.17,2.17,2.14,2.89
				c1.02,0.7,2.18,1.18,3.38,1.47c2.42,0.58,5.01,0.31,7.31-0.62c1.15-0.48,2.23-1.1,3.22-1.84c0.97-0.76,1.86-1.61,2.66-2.54
				c1.33-1.6,2.41-3.37,3.25-5.25c0.75,0.86,1.64,1.69,2.65,2.48c-1.68,4.84-5.41,8.74-10.47,10.23c-0.73,0.22-1.49,0.37-2.27,0.48
				c-8.37-0.25-15.65-1.9-17.17-9.58c-0.06,3.95,1.94,6.77,5.24,8.61c-1.7,0.14-3.4,0.04-5.02-0.38c-2.23-0.62-4.29-1.78-5.95-3.38
				c-1.67-1.59-2.99-3.56-3.92-5.69c-0.46-1.07-0.8-2.2-0.93-3.35c-0.14-1.13-0.14-2.4,0.62-3.34c-0.47,0.38-0.74,0.97-0.88,1.56
				c-0.14,0.59-0.2,1.21-0.18,1.82c0.05,1.22,0.33,2.42,0.73,3.57c0.81,2.29,2.18,4.38,3.94,6.09c1.78,1.68,4.01,2.91,6.41,3.4
				c1.2,0.24,2.43,0.3,3.63,0.22c0.64-0.06,1.27-0.15,1.9-0.3c0.94,0.49,1.97,0.9,3.09,1.25c0.21-0.13,0.42-0.27,0.62-0.41
				l0.16,0.56c0.01,0,0.01,0,0.01,0c3.32,1.11,7.06,1.16,10.36,0.2c5.32-1.56,9.48-5.64,11.36-11.05c3.67,1.07,7.63,1.4,11.55,0.95
				c1.68-0.2,3.33-0.53,4.92-1c2.13-0.62,4.15-1.49,6.02-2.56c3.4,2.46,7.53,4.3,11.48,4.05h0.01L190.68,86.84z M178.34,46.13
				c-2.79-1.22-5.85-1.9-8.94-1.86c-3.08,0.1-6.14,0.89-8.82,2.38c-2.69,1.47-5.02,3.48-7.04,5.71c2.28-1.98,4.67-3.8,7.35-5.1
				c2.66-1.31,5.58-2.07,8.53-2.1c2.95-0.1,5.9,0.56,8.66,1.62c2.79,1.06,5.4,2.57,7.87,4.3C183.7,49.04,181.14,47.35,178.34,46.13z
				 M170.36,82.16c-2.28,0.61-4.65,0.88-6.95,0.49c-2.3-0.35-4.48-1.34-6.26-2.86c-0.88-0.76-1.64-1.67-2.2-2.7
				c-0.56-1.01-0.97-2.19-0.73-3.38c-0.44,1.15-0.12,2.46,0.34,3.58c0.51,1.12,1.25,2.14,2.13,3.01c1.77,1.74,4.13,2.85,6.58,3.24
				c1.23,0.19,2.47,0.21,3.7,0.09c1.23-0.15,2.43-0.41,3.59-0.8c2.32-0.8,4.46-1.98,6.37-3.45
				C174.82,80.51,172.64,81.52,170.36,82.16z M153.93,46.76c-0.38,0.28-0.75,0.59-1.11,0.9c-0.42-0.19-0.85-0.36-1.27-0.52
				c-2.64,3.54-3.43,7.48-0.91,11.57C148.94,53.96,150.63,50.11,153.93,46.76z M137.87,49.4c-2.97,0.69-5.83,1.98-8.28,3.85
				c-2.4,1.93-4.38,4.4-5.64,7.19c-1.27,2.79-1.94,5.79-2.22,8.79c0.64-2.95,1.48-5.84,2.83-8.48c1.35-2.64,3.24-5,5.58-6.79
				c2.31-1.85,5.06-3.08,7.91-3.89c2.87-0.82,5.86-1.17,8.87-1.27C143.9,48.52,140.84,48.71,137.87,49.4z M117.95,70.61
				c0.01,0.12,0.02,0.24,0.04,0.36c-0.38,0.29-0.74,0.6-1.09,0.92c1.33,3.12,3.74,5.29,7.62,5.8
				C120.87,76.4,118.89,73.86,117.95,70.61z M117.95,70.61c0.01,0.12,0.02,0.24,0.04,0.36c-0.38,0.29-0.74,0.6-1.09,0.92
				c1.33,3.12,3.74,5.29,7.62,5.8C120.87,76.4,118.89,73.86,117.95,70.61z M137.87,49.4c-2.97,0.69-5.83,1.98-8.28,3.85
				c-2.4,1.93-4.38,4.4-5.64,7.19c-1.27,2.79-1.94,5.79-2.22,8.79c0.64-2.95,1.48-5.84,2.83-8.48c1.35-2.64,3.24-5,5.58-6.79
				c2.31-1.85,5.06-3.08,7.91-3.89c2.87-0.82,5.86-1.17,8.87-1.27C143.9,48.52,140.84,48.71,137.87,49.4z M153.93,46.76
				c-0.38,0.28-0.75,0.59-1.11,0.9c-0.42-0.19-0.85-0.36-1.27-0.52c-2.64,3.54-3.43,7.48-0.91,11.57
				C148.94,53.96,150.63,50.11,153.93,46.76z M170.36,82.16c-2.28,0.61-4.65,0.88-6.95,0.49c-2.3-0.35-4.48-1.34-6.26-2.86
				c-0.88-0.76-1.64-1.67-2.2-2.7c-0.56-1.01-0.97-2.19-0.73-3.38c-0.44,1.15-0.12,2.46,0.34,3.58c0.51,1.12,1.25,2.14,2.13,3.01
				c1.77,1.74,4.13,2.85,6.58,3.24c1.23,0.19,2.47,0.21,3.7,0.09c1.23-0.15,2.43-0.41,3.59-0.8c2.32-0.8,4.46-1.98,6.37-3.45
				C174.82,80.51,172.64,81.52,170.36,82.16z M178.34,46.13c-2.79-1.22-5.85-1.9-8.94-1.86c-3.08,0.1-6.14,0.89-8.82,2.38
				c-2.69,1.47-5.02,3.48-7.04,5.71c2.28-1.98,4.67-3.8,7.35-5.1c2.66-1.31,5.58-2.07,8.53-2.1c2.95-0.1,5.9,0.56,8.66,1.62
				c2.79,1.06,5.4,2.57,7.87,4.3C183.7,49.04,181.14,47.35,178.34,46.13z M190.68,86.84L190.68,86.84
				c-2.75,0.11-5.55-0.86-8.03-2.31c-2.37-1.38-3.89-3.94-3.72-6.68c0.03-0.5,0.1-1.03,0.2-1.56c-0.99,2.35-1.01,4.59-0.25,6.68
				c-1.74,1-3.64,1.82-5.68,2.42c-1.5,0.44-3.07,0.77-4.7,0.96c-3.5,0.4-6.89,0.15-10.02-0.64c-0.93-0.23-1.81-0.65-2.57-1.24
				c-3.57-2.75-5.64-6.24-4.71-11.07c-1.6,3.77-0.69,7.26,1.89,10.28c-1.07,1.76-2.27,3.43-3.66,4.92c-1.64,1.69-3.53,3.16-5.7,4.01
				c-2.14,0.89-4.53,1.17-6.83,0.78c-1.15-0.2-2.27-0.58-3.29-1.17c-1-0.58-1.96-1.38-2.37-2.53c0.22,1.22,1.17,2.17,2.14,2.89
				c1.02,0.7,2.18,1.18,3.38,1.47c2.42,0.58,5.01,0.31,7.31-0.62c1.15-0.48,2.23-1.1,3.22-1.84c0.97-0.76,1.86-1.61,2.66-2.54
				c1.33-1.6,2.41-3.37,3.25-5.25c0.75,0.86,1.64,1.69,2.65,2.48c-1.68,4.84-5.41,8.74-10.47,10.23c-0.73,0.22-1.49,0.37-2.27,0.48
				c-8.37-0.25-15.65-1.9-17.17-9.58c-0.06,3.95,1.94,6.77,5.24,8.61c-1.7,0.14-3.4,0.04-5.02-0.38c-2.23-0.62-4.29-1.78-5.95-3.38
				c-1.67-1.59-2.99-3.56-3.92-5.69c-0.46-1.07-0.8-2.2-0.93-3.35c-0.14-1.13-0.14-2.4,0.62-3.34c-0.47,0.38-0.74,0.97-0.88,1.56
				c-0.14,0.59-0.2,1.21-0.18,1.82c0.05,1.22,0.33,2.42,0.73,3.57c0.81,2.29,2.18,4.38,3.94,6.09c1.78,1.68,4.01,2.91,6.41,3.4
				c1.2,0.24,2.43,0.3,3.63,0.22c0.64-0.06,1.27-0.15,1.9-0.3c0.94,0.49,1.97,0.9,3.09,1.25c0.21-0.13,0.42-0.27,0.62-0.41
				l0.16,0.56c0.01,0,0.01,0,0.01,0c3.32,1.11,7.06,1.16,10.36,0.2c5.32-1.56,9.48-5.64,11.36-11.05c3.67,1.07,7.63,1.4,11.55,0.95
				c1.68-0.2,3.33-0.53,4.92-1c2.13-0.62,4.15-1.49,6.02-2.56c3.4,2.46,7.53,4.3,11.48,4.05h0.01L190.68,86.84z M191.19,51.08
				c-0.17-0.24-0.33-0.47-0.51-0.7c-1.94,0.67-3.63,2.02-4.93,4.19c1.93-2.08,4.1-3.08,6.44-3.3
				C191.86,51.2,191.52,51.13,191.19,51.08z M191.82,90.75c-0.33,0.21-0.67,0.41-1.01,0.61c-2.96,1.83-6.02,3.5-9.17,5
				c-1.57,0.74-3.17,1.46-4.8,2.07c-1.62,0.65-3.28,1.21-4.97,1.64c3.48-0.53,6.81-1.74,10.05-3.09c3.24-1.38,6.33-3.08,9.36-4.87
				l0.8-0.51L191.82,90.75z M192.82,94.16c-0.33,0.21-0.67,0.41-1.01,0.61c-2.96,1.83-6.02,3.5-9.17,5
				c-1.57,0.74-3.17,1.46-4.8,2.07c-1.62,0.65-3.28,1.22-4.97,1.65c3.48-0.53,6.81-1.74,10.05-3.09c3.24-1.38,6.33-3.07,9.36-4.87
				l0.8-0.5L192.82,94.16z M193.49,97.6c-0.79,0.52-1.59,1.03-2.39,1.54c-0.73,0.46-1.5,0.88-2.24,1.32l-1.13,0.65l-1.16,0.59
				c-3.04,1.66-6.24,3.04-9.49,4.24c-3.26,1.22-6.6,2.23-10.02,2.95c1.74-0.16,3.46-0.51,5.17-0.87c1.7-0.41,3.39-0.9,5.06-1.43
				c3.34-1.09,6.58-2.49,9.69-4.11c2.22-1.21,4.41-2.49,6.48-3.94C193.49,98.23,193.5,97.92,193.49,97.6z M202.53,64.73
				c-1.21-3.56-3.47-6.61-6.06-9.19c1.14,1.44,2.3,2.87,3.19,4.46c0.93,1.56,1.75,3.2,2.23,4.94c0.49,1.73,0.78,3.52,0.67,5.3
				c-0.1,1.78-0.57,3.53-1.38,5.11c-1.58,3.2-4.55,5.61-7.92,6.81c-3.38,1.19-7.26,1.04-10.55-0.64c1.54,1.01,3.35,1.61,5.2,1.83
				c1.86,0.2,3.76,0.01,5.56-0.54c3.59-1.12,6.75-3.67,8.5-7.05C203.67,72.33,203.77,68.25,202.53,64.73z M206.41,91.01
				c-0.4,0.55-0.79,1.11-1.2,1.64l-0.16,0.2c-0.05,0.07-0.1,0.16-0.16,0.23c-0.06,0.08-0.09,0.17-0.14,0.26
				c-0.04,0.09-0.07,0.18-0.09,0.27c-0.1,0.36-0.12,0.73-0.08,1.09c0.07,0.71,0.29,1.39,0.63,1.99c-0.15-0.67-0.27-1.35-0.27-2.01
				c0.01-0.33,0.04-0.65,0.15-0.94c0.04-0.15,0.11-0.28,0.19-0.41c0.04-0.06,0.07-0.12,0.13-0.19l0.17-0.2
				c0.43-0.56,0.8-1.14,1.15-1.73c0.35-0.6,0.66-1.21,0.93-1.85C207.21,89.9,206.81,90.45,206.41,91.01z M224.15,102.4
				c-0.26,0.52-0.53,1.03-0.82,1.53c-0.59,1-1.24,1.96-2.01,2.82c-0.38,0.43-0.79,0.82-1.24,1.16c-0.45,0.35-0.94,0.63-1.46,0.84
				c-1.05,0.43-2.25,0.37-3.36-0.02c0.52,0.28,1.09,0.46,1.69,0.55c0.6,0.07,1.22,0,1.79-0.19c1.17-0.37,2.15-1.15,2.95-2.03
				c0.79-0.89,1.45-1.9,1.97-2.95c0.27-0.52,0.51-1.07,0.71-1.62c0.1-0.27,0.19-0.56,0.28-0.83c0.08-0.28,0.17-0.57,0.19-0.86
				C224.66,101.35,224.4,101.87,224.15,102.4z"/>
			<path class="st12" d="M238.63,120.87h-4.78c4.9-9.25,7.68-19.8,7.68-30.97c0-36.63-29.8-66.43-66.43-66.43
				c-36.63,0-66.43,29.8-66.43,66.43c0,11.18,2.78,21.72,7.68,30.97h-4.98c-3.71,0-6.72,3.01-6.72,6.72v23.77
				c0,3.71,3.01,6.72,6.72,6.72h127.26c3.71,0,6.72-3.01,6.72-6.72v-23.77C245.35,123.88,242.34,120.87,238.63,120.87z M109.9,89.9
				c0-35.95,29.25-65.2,65.2-65.2c35.95,0,65.2,29.25,65.2,65.2c0,11.21-2.84,21.76-7.84,30.97h-11.15c0.23-0.3,0.46-0.62,0.67-0.94
				c0.1-0.15,0.1-0.33,0.02-0.49c-0.09-0.15-0.25-0.24-0.43-0.23c-0.7,0.04-1.44,0.12-2.22,0.2c-2.12,0.23-4.65,0.52-7.87,0.04
				c-1.21-0.18-2.52-0.47-3.94-0.91c-1.78-0.56-3.75-1.36-5.92-2.48c-0.21-0.11-0.43-0.23-0.65-0.35c-0.7-0.38-1.48-0.79-2.32-1.16
				c-1.21-0.53-2.54-0.95-3.9-0.98c-0.2-0.01-0.4-0.01-0.6,0.01c-0.19-0.18-0.4-0.3-0.65-0.34c-0.85-0.17-1.79,0.52-2.3,0.89
				l-0.14,0.1c-1.61,1.13-3.21,0.93-4.19,0.36c-0.97-0.56-1.49-1.51-1.4-2.53c0.02-0.2-0.09-0.38-0.27-0.46
				c-0.73-0.34-1.6-0.03-2.05,0.74c-0.51,0.86-0.38,2.19,1.03,3.24c0.36,0.26,0.77,0.48,1.22,0.7c0.98,0.51,1.99,1.03,2.17,1.99
				c0.05,0.27,0.02,0.56,0,0.88c-0.02,0.27-0.04,0.56-0.02,0.85c0.02,0.31,0.09,0.61,0.19,0.88h-70.02
				C112.74,111.65,109.9,101.1,109.9,89.9z M188.5,119.91c-0.02-0.22,0-0.45,0.02-0.7c0.02-0.36,0.06-0.73-0.02-1.12
				c-0.02-0.1-0.04-0.19-0.07-0.28v-0.01c-0.38-1.21-1.54-1.82-2.58-2.35c-0.41-0.21-0.8-0.41-1.09-0.63
				c-1.02-0.75-1.06-1.56-0.78-2.02c0.13-0.22,0.35-0.4,0.58-0.42c0.04,1.22,0.73,2.34,1.87,3c0.96,0.56,2.09,0.71,3.2,0.47
				c0.35-0.07,0.69-0.19,1.03-0.34c0.33-0.14,0.64-0.32,0.95-0.54l0.15-0.11c0.14-0.1,0.36-0.26,0.61-0.4
				c0.33-0.2,0.71-0.38,0.98-0.33c0.02,0,0.04,0.01,0.06,0.02c0.07,0.02,0.15,0.07,0.23,0.2c0.04,0.06,0.06,0.13,0.06,0.22
				c0.01,0.34-0.27,1-1.09,2.75c-0.09,0.18-0.17,0.36-0.27,0.57c-0.33,0.72-0.73,1.59-1.21,2.64c-0.06,0.12-0.12,0.23-0.19,0.33
				c-0.2,0.3-0.46,0.51-0.73,0.61c-0.04,0.02-0.07,0.03-0.11,0.04c-0.14,0.04-0.28,0.04-0.42,0.01c-0.06-0.01-0.12-0.02-0.17-0.05
				c-0.29-0.09-0.53-0.31-0.7-0.61C188.63,120.61,188.53,120.28,188.5,119.91z M191,122.1c0.39-0.27,0.72-0.67,0.95-1.19
				c0.01-0.02,0.02-0.03,0.02-0.05c0.47-1.03,0.86-1.88,1.19-2.59c1.06-2.3,1.48-3.19,1.44-3.79c1.23,0,2.45,0.37,3.58,0.87
				c0.83,0.35,1.62,0.77,2.35,1.16c0.23,0.12,0.45,0.24,0.66,0.35c2.14,1.11,4.09,1.91,5.88,2.49c1.41,0.44,2.71,0.75,3.91,0.94
				c3.49,0.58,6.21,0.28,8.47,0.02c0.41-0.04,0.81-0.09,1.19-0.12c-0.17,0.23-0.35,0.45-0.53,0.66c-0.38,0.44-0.78,0.86-1.19,1.24
				c-3.17,2.91-7.29,4.01-11.37,4.16c-1.48,0.05-2.95-0.02-4.37-0.17c-4.09-0.43-7.74-1.56-9.82-2.38c-0.77-0.3-1.33-0.57-1.62-0.74
				c-0.01,0-0.01,0-0.01,0c-0.36-0.22-0.69-0.46-0.98-0.72C190.84,122.21,190.92,122.16,191,122.1z M244.12,151.36
				c0,3.03-2.46,5.48-5.48,5.48H111.37c-3.03,0-5.48-2.46-5.48-5.48v-23.77c0-3.03,2.46-5.48,5.48-5.48h77.32
				c0.24,0.17,0.52,0.28,0.82,0.33c0.04,0.01,0.08,0.01,0.12,0.02c0.01,0,0.03,0.01,0.05,0.01c0.44,0.49,0.98,0.93,1.59,1.3
				c0.22,0.14,0.59,0.31,1.09,0.53c0.16,0.07,0.33,0.14,0.51,0.21c0.01,0.01,0.02,0.01,0.03,0.01c0.43,0.17,0.92,0.35,1.47,0.54
				c0.27,0.09,0.56,0.19,0.86,0.28c0.02,0.01,0.05,0.02,0.07,0.02c0.18,0.06,0.35,0.11,0.54,0.17c0.44,0.14,0.91,0.27,1.41,0.39
				c0.31,0.09,0.64,0.16,0.96,0.24c1.38,0.32,2.9,0.61,4.5,0.79h0.02c0.3,0.04,0.61,0.07,0.92,0.1c0.25,0.02,0.49,0.04,0.74,0.06
				c0.17,0.02,0.34,0.02,0.51,0.03c0.23,0.02,0.46,0.02,0.69,0.03c0.33,0.01,0.65,0.02,0.98,0.02c0.16,0,0.31,0,0.48-0.01h0.01
				c0.3-0.01,0.59-0.01,0.89-0.03c0.25-0.01,0.51-0.02,0.76-0.05c0.09,0,0.18-0.01,0.27-0.02c0.22-0.02,0.43-0.04,0.64-0.06
				c0.1-0.01,0.2-0.02,0.29-0.04c0.2-0.02,0.4-0.05,0.6-0.08c0.14-0.02,0.27-0.04,0.4-0.07c0.15-0.02,0.3-0.05,0.46-0.08
				c0.14-0.02,0.28-0.06,0.43-0.09c0.15-0.03,0.3-0.06,0.44-0.1c0.19-0.04,0.36-0.09,0.54-0.14c0.12-0.02,0.23-0.06,0.34-0.09
				c0.15-0.04,0.29-0.09,0.43-0.14c0.19-0.06,0.38-0.12,0.57-0.19c0.22-0.07,0.43-0.15,0.65-0.24c0.12-0.04,0.23-0.09,0.35-0.14
				c0.46-0.19,0.91-0.4,1.35-0.64c0.12-0.06,0.23-0.12,0.34-0.18c0.3-0.17,0.59-0.35,0.88-0.54c0.23-0.15,0.46-0.31,0.69-0.48
				c0.67-0.49,1.31-1.05,1.91-1.68h18.38c3.03,0,5.48,2.46,5.48,5.48V151.36z"/>
			<path class="st13" d="M193.68,114.57c0.01,0.38-0.33,1.14-1.35,3.32c-0.33,0.72-0.73,1.59-1.21,2.64
				c-0.06,0.12-0.12,0.23-0.19,0.33c-0.23,0.35-0.52,0.57-0.84,0.64c-0.14,0.04-0.28,0.04-0.42,0.01c-0.06-0.01-0.12-0.02-0.17-0.05
				c-0.29-0.09-0.53-0.31-0.7-0.61c-0.15-0.26-0.25-0.59-0.28-0.96c-0.02-0.22,0-0.45,0.02-0.7c0.02-0.36,0.06-0.73-0.02-1.12
				c-0.02-0.1-0.04-0.19-0.07-0.28v-0.01c-0.38-1.21-1.54-1.82-2.58-2.35c-0.41-0.21-0.8-0.41-1.09-0.63
				c-1.02-0.75-1.06-1.56-0.78-2.02c0.13-0.22,0.35-0.4,0.58-0.42c0.04,1.22,0.73,2.34,1.87,3c0.96,0.56,2.09,0.71,3.2,0.47
				c0.35-0.07,0.69-0.19,1.03-0.34c0.33-0.14,0.64-0.32,0.95-0.54l0.15-0.11c0.14-0.1,0.36-0.26,0.61-0.4
				c0.33-0.2,0.71-0.38,0.98-0.33c0.02,0,0.04,0.01,0.06,0.02c0.07,0.02,0.15,0.07,0.23,0.2
				C193.65,114.41,193.68,114.48,193.68,114.57z"/>
			<path class="st14" d="M220.65,120.21c-0.17,0.23-0.35,0.45-0.53,0.66c-0.38,0.44-0.78,0.86-1.19,1.24
				c-8.82,8.12-25.08,2.12-27.18,0.86c-0.01,0-0.01,0-0.01,0c-0.36-0.22-0.69-0.46-0.98-0.72c0.08-0.04,0.16-0.09,0.24-0.14
				c0.39-0.27,0.72-0.67,0.95-1.19c0.01-0.02,0.02-0.03,0.02-0.05c0.47-1.03,0.86-1.88,1.19-2.59c1.06-2.3,1.48-3.19,1.44-3.79
				c2.13,0,4.21,1.12,5.93,2.03c0.23,0.12,0.45,0.24,0.66,0.35c8.72,4.53,14.23,3.91,18.26,3.46
				C219.87,120.29,220.27,120.25,220.65,120.21z"/>
		</g>
		<text transform="matrix(1 0 0 1 43.0311 191.4473)" class="st15"><tspan x="0" y="0" class="st16 st17 st18">RESTAURANT </tspan><tspan x="179.73" y="0" class="st16 st19 st18">&amp;</tspan><tspan x="192.3" y="0" class="st16 st17 st18"> FOOD</tspan></text>
	</g>
</g>
<g id="Layer_5">
</g>
<g id="Layer_6">
</g>
<g id="Layer_7">
</g>
<g id="Layer_8">
</g>
<g id="Layer_9">
</g>
<g id="Layer_10">
</g>
<g id="Layer_11">
</g>
<g id="Layer_12">
</g>
<g id="Layer_13">
</g>
<g id="Layer_14">
</g>
<g id="Layer_15">
</g>
</svg>
