<?xml version="1.0" encoding="utf-8"?>
<!-- Generator: Adobe Illustrator 27.8.1, SVG Export Plug-In . SVG Version: 6.00 Build 0)  -->
<svg version="1.1" xmlns="http://www.w3.org/2000/svg" xmlns:xlink="http://www.w3.org/1999/xlink" x="0px" y="0px"
	 viewBox="0 0 350 230" style="enable-background:new 0 0 350 230;" xml:space="preserve">
<style type="text/css">
	.st0{fill:#191919;}
	.st1{fill:#FFFFFF;}
	.st2{fill:#FFCA55;}
	.st3{fill:#006865;}
	.st4{fill:#00AEB7;}
	.st5{fill:#EDC599;}
	.st6{fill:url(#SVGID_1_);}
	.st7{fill:#250B00;}
	.st8{fill:#FFDBD4;}
	.st9{fill:#231F20;}
	.st10{fill:#7F7F7F;}
	.st11{display:none;fill:#D30000;}
	.st12{font-family:'VintageCulture-Regular';}
	.st13{font-size:25px;}
	.st14{fill:#FFD468;}
	.st15{fill:#303030;}
	.st16{fill:#007D54;}
	.st17{fill:#EE3631;}
	.st18{fill:#2B2B2B;}
	.st19{fill:#FFB000;}
	.st20{opacity:0.35;fill:#FFFFFF;}
	.st21{fill:#E09C05;}
	.st22{fill:#A8112B;}
	.st23{fill:#FCB040;}
	.st24{fill:#3DA1D8;}
	.st25{fill:#0C8EBC;}
	.st26{fill:#EFC6A3;}
	.st27{fill:#B0DFFF;}
	.st28{fill-rule:evenodd;clip-rule:evenodd;fill:#FEFEFE;}
	.st29{fill:#006284;}
	.st30{fill:#5B5B5B;}
	.st31{fill:#EACAB0;}
	.st32{fill:#442B18;}
	.st33{fill:#663412;}
	.st34{fill:#C18B63;}
	.st35{fill:#3A1801;}
	.st36{fill:#616D0B;}
	.st37{fill:#98B11F;}
	.st38{fill:#606060;}
	.st39{fill:#E0E0E0;}
	.st40{fill-rule:evenodd;clip-rule:evenodd;fill:#FFE183;}
	.st41{fill-rule:evenodd;clip-rule:evenodd;fill:#FFA617;}
	.st42{fill:#FF6745;}
	.st43{fill-rule:evenodd;clip-rule:evenodd;fill:#63A642;}
	.st44{fill-rule:evenodd;clip-rule:evenodd;fill:#925056;}
	.st45{fill-rule:evenodd;clip-rule:evenodd;fill:#2C2F38;}
	.st46{fill:#A5A5A5;}
	.st47{fill:#FFEBB8;}
	.st48{fill:#FFA617;}
	.st49{fill:#AF121A;}
	.st50{fill:#C49718;}
	.st51{fill:#FFD961;}
	.st52{fill:#F93B00;}
	.st53{fill:#FFC02E;}
	.st54{fill:#FA6500;}
	.st55{fill:#9BB200;}
	.st56{fill:#FFF7D6;}
	.st57{fill:#3E9AFF;}
	.st58{fill:#3ED698;}
	.st59{fill:#0F935A;}
</style>
<g id="Layer_1">
</g>
<g id="Layer_2">
</g>
<g id="Layer_3">
	<g>
		<g>
			<path class="st5" d="M195.18,62.34l-2.59,6.55c-0.45,1.13-1.29,2.63-2.82,3.71c-0.25,0.18-0.5,0.33-0.75,0.47
				c-0.17,0.09-0.33,0.16-0.5,0.23c-0.17,0.07-0.33,0.13-0.5,0.19c-0.17,0.05-0.34,0.1-0.51,0.13c-0.17,0.04-0.34,0.07-0.51,0.1
				c-0.17,0.03-0.33,0.04-0.5,0.06h-0.02c-2.27,0.18-4.68-0.55-7.5-0.43c-9.25,0.4-10.47,9.51-18.94,10.61
				c-0.55,0.07-1.11,0.11-1.67,0.11c-0.11,0-0.23,0-0.34-0.01c-2.07-0.05-4.23-0.55-6.28-1.43c-0.39-0.17-0.78-0.35-1.16-0.55
				c-2.1-1.08-4.04-2.58-5.58-4.4c-0.26-0.3-0.5-0.62-0.73-0.94c0,0-0.01,0-0.01-0.01c-0.79-1.08-1.43-2.25-1.9-3.51
				c-1.59-4.26-0.76-8.42,0.59-11.68l2.31-5.84c-0.34,0.91-0.63,1.88-0.84,2.9c-0.5,2.49-0.5,5.25,0.54,8.05
				c2.66,7.15,11.01,11.6,17.68,10.75c8.47-1.1,9.68-10.21,18.94-10.61c4.22-0.18,7.54,1.57,10.8-0.75
				c0.28-0.21,0.53-0.41,0.77-0.63C194.19,64.43,194.82,63.26,195.18,62.34z"/>
			<linearGradient id="SVGID_1_" gradientUnits="userSpaceOnUse" x1="159.303" y1="42.9724" x2="177.0569" y2="73.7231">
				<stop  offset="0" style="stop-color:#FF6842"/>
				<stop  offset="0.1738" style="stop-color:#EB4A2D"/>
				<stop  offset="0.3777" style="stop-color:#D82F19"/>
				<stop  offset="0.5835" style="stop-color:#CB1B0B"/>
				<stop  offset="0.7903" style="stop-color:#C30F03"/>
				<stop  offset="1" style="stop-color:#C00B00"/>
			</linearGradient>
			<path class="st6" d="M194.62,60.58c-0.01,0.01-0.1,0.58-0.41,1.37c-0.29,0.74-0.84,1.81-1.8,2.71c-0.19,0.18-0.4,0.36-0.66,0.55
				c-0.79,0.57-1.59,0.84-2.44,0.96c-0.04,0.01-0.08,0.01-0.12,0.01c-0.2,0.02-0.4,0.04-0.62,0.04c-0.91,0.04-1.87-0.08-2.93-0.21
				c-1.23-0.15-2.62-0.31-4.12-0.25c-3.34,0.14-5.7,1.32-7.67,2.85c-1.13,0.87-2.14,1.86-3.13,2.83c-2.33,2.29-4.53,4.45-8.22,4.92
				c-2.27,0.3-4.77-0.07-7.23-1.04c-0.22-0.09-0.43-0.18-0.64-0.28c-0.09-0.04-0.19-0.09-0.28-0.13l-0.28-0.13
				c-2.81-1.35-5.18-3.4-6.76-5.81c-0.09-0.14-0.18-0.28-0.27-0.43c-0.45-0.73-0.81-1.49-1.11-2.27c-0.86-2.32-1.03-4.84-0.49-7.48
				c0.02-0.11,0.04-0.21,0.07-0.32v-0.01c0.06-0.24,0.11-0.48,0.18-0.72c0.04-0.18,0.09-0.35,0.15-0.53
				c0.12-0.42,0.26-0.83,0.42-1.23l0.11-0.29c0.01-0.02,0.02-0.04,0.03-0.06c1.47-3.68,3.67-6.17,3.76-6.28
				c0.91-1.04,1.92-1.95,3-2.73c0-0.01,0-0.01,0.01-0.01c0.23-0.16,0.46-0.33,0.69-0.48c0.16-0.11,0.33-0.21,0.5-0.32
				c0,0,0,0,0,0.01c2.44-1.53,5.19-2.51,8.05-3.03c0,0,0,0,0,0c0.28-0.05,0.55-0.1,0.83-0.14c1.56-0.23,3.15-0.34,4.74-0.33
				c0.23,0,0.45,0,0.68,0.01c3.33,0.09,6.64,0.69,9.64,1.64c0.21,0.06,0.42,0.13,0.62,0.21c0.51,0.17,1.01,0.35,1.49,0.55
				c1.18,0.47,2.3,0.99,3.36,1.57c0.16,0.08,0.3,0.17,0.45,0.26c0.91,0.51,1.78,1.07,2.59,1.67c4.85,3.63,7.64,7.5,7.87,10.86
				C194.72,59.61,194.7,60.1,194.62,60.58z"/>
			<path class="st7" d="M162.26,55.15c-3.39-1.31-7.17,1.39-8.61,4.36c-1.13,2.36-1.38,6.1,1.01,8.32c2.3,2.13,5.5,1.46,5.82,1.39
				c3.18-0.72,5.33-3.73,5.6-6.74C166.32,59.82,165.18,56.28,162.26,55.15z M162.31,61.88c-0.13,1.38-1.11,2.76-2.56,3.08
				c-0.14,0.04-1.61,0.34-2.66-0.63c-1.09-1.02-0.98-2.73-0.46-3.8c0.66-1.36,2.39-2.59,3.93-2
				C161.9,59.05,162.42,60.67,162.31,61.88z M188.3,46.28c-5-3.72-11.95-6.04-18.86-6.35c-0.52-0.03-1.05-0.04-1.57-0.04
				c-5.06,0-9.65,1.08-13.47,3.1c-2.34,1.24-4.39,2.83-6.08,4.76c-0.1,0.11-2.6,2.95-4.23,7.06l-2.45,6.21
				c-1.71,4.12-2.03,8.08-0.92,11.75c0.09,0.32,0.2,0.64,0.31,0.95c2.5,6.71,9.95,11.77,17.33,11.77c0.63,0,1.25-0.04,1.86-0.12
				c0.61-0.08,1.19-0.19,1.74-0.35c3.48-0.93,5.72-3.12,7.9-5.26c2.52-2.47,4.89-4.8,9.19-4.98c0.18-0.01,0.38-0.01,0.57-0.01
				c1.08,0,2.13,0.12,3.15,0.24c1.01,0.12,1.96,0.23,2.93,0.23c1.93,0,3.49-0.47,4.9-1.49c1.83-1.31,2.82-3.08,3.32-4.34l2.59-6.55
				c0.41-1.03,0.54-1.81,0.55-1.89C197.84,56.3,194.73,51.08,188.3,46.28z M195.65,60.75c-0.02,0.12-0.13,0.75-0.47,1.59l-2.59,6.55
				c-0.45,1.13-1.29,2.63-2.82,3.71c-0.25,0.18-0.5,0.33-0.75,0.47c-0.16,0.09-0.33,0.16-0.5,0.23c-0.16,0.07-0.33,0.13-0.5,0.19
				c-0.17,0.06-0.34,0.1-0.51,0.13c-0.17,0.04-0.33,0.08-0.51,0.1c-0.16,0.03-0.33,0.05-0.5,0.06h-0.02
				c-0.25,0.03-0.52,0.04-0.78,0.04c-1.87,0-3.85-0.47-6.09-0.47c-0.21,0-0.42,0-0.63,0.01c-9.25,0.4-10.47,9.51-18.94,10.61
				c-0.55,0.07-1.11,0.11-1.67,0.11c-0.11,0-0.23,0-0.34-0.01c-2.07-0.05-4.23-0.55-6.28-1.43c-0.39-0.17-0.78-0.35-1.16-0.55
				c-2.1-1.08-4.04-2.58-5.58-4.4c-0.26-0.3-0.5-0.62-0.73-0.94c0,0-0.01,0-0.01-0.01c-0.79-1.08-1.43-2.25-1.9-3.51
				c-1.59-4.26-0.76-8.42,0.59-11.68l2.31-5.84l0.15-0.37c1.48-3.73,3.71-6.35,3.98-6.65c4.53-5.16,11.43-7.38,18.48-7.38
				c7.14,0,14.44,2.28,19.57,6.1C188.9,48.49,196.74,54.32,195.65,60.75z M162.26,55.15c-3.39-1.31-7.17,1.39-8.61,4.36
				c-1.13,2.36-1.38,6.1,1.01,8.32c2.3,2.13,5.5,1.46,5.82,1.39c3.18-0.72,5.33-3.73,5.6-6.74
				C166.32,59.82,165.18,56.28,162.26,55.15z M162.31,61.88c-0.13,1.38-1.11,2.76-2.56,3.08c-0.14,0.04-1.61,0.34-2.66-0.63
				c-1.09-1.02-0.98-2.73-0.46-3.8c0.66-1.36,2.39-2.59,3.93-2C161.9,59.05,162.42,60.67,162.31,61.88z M162.26,55.15
				c-3.39-1.31-7.17,1.39-8.61,4.36c-1.13,2.36-1.38,6.1,1.01,8.32c2.3,2.13,5.5,1.46,5.82,1.39c3.18-0.72,5.33-3.73,5.6-6.74
				C166.32,59.82,165.18,56.28,162.26,55.15z M162.31,61.88c-0.13,1.38-1.11,2.76-2.56,3.08c-0.14,0.04-1.61,0.34-2.66-0.63
				c-1.09-1.02-0.98-2.73-0.46-3.8c0.66-1.36,2.39-2.59,3.93-2C161.9,59.05,162.42,60.67,162.31,61.88z"/>
			<path class="st8" d="M161.61,55.95c-2.78-1.08-5.9,1.13-7.08,3.58c-0.94,1.94-1.14,5.02,0.84,6.84c1.88,1.76,4.52,1.2,4.78,1.14
				c2.61-0.6,4.38-3.06,4.6-5.55C164.95,59.79,164.01,56.88,161.61,55.95z M162.31,61.88c-0.13,1.38-1.11,2.76-2.56,3.08
				c-0.14,0.04-1.61,0.34-2.66-0.63c-1.09-1.02-0.98-2.73-0.46-3.8c0.66-1.36,2.39-2.59,3.93-2
				C161.9,59.05,162.42,60.67,162.31,61.88z M187.44,47.4c-5.13-3.82-12.43-6.1-19.57-6.1c-7.05,0-13.95,2.22-18.48,7.38
				c-0.28,0.3-2.5,2.92-3.98,6.65l-0.15,0.37c-0.34,0.91-0.63,1.88-0.84,2.9c-0.5,2.49-0.5,5.25,0.54,8.05
				c2.66,7.15,11.01,11.6,17.68,10.75c8.47-1.1,9.68-10.21,18.94-10.61c4.22-0.18,7.54,1.57,10.8-0.75
				c0.28-0.21,0.53-0.41,0.77-0.63c1.06-0.99,1.69-2.17,2.05-3.09c0.33-0.84,0.45-1.47,0.47-1.59
				C196.74,54.32,188.9,48.49,187.44,47.4z M186.82,48.24c4.33,3.24,7.02,6.67,7.7,9.76c-1.16-0.74-2.31-1.52-3.49-2.26
				c-0.63-0.57-1.32-0.97-2.06-1.25c-0.62-2.45-2.05-4.67-4.22-5.99c-0.24-0.59-0.4-1.25-0.51-1.93
				C185.15,47.08,186.01,47.64,186.82,48.24z M180.43,44.74c1.18,0.47,2.3,0.99,3.36,1.57c0.11,0.62,0.23,1.23,0.33,1.79
				c0.41,1.65,2.41,2.15,3.2,3.66c0.43,0.31,0.72,1.41,0.97,2.51c-1.4-0.4-2.91-0.5-4.36-0.71c-0.15-0.01-0.28-0.04-0.43-0.06
				c-1.01-0.16-1.98-0.42-2.86-0.9c-1.68-1.73-2.96-3.8-4.9-5.21c1.28-0.81,1.93-2.32,3.2-3.19
				C179.44,44.36,179.94,44.55,180.43,44.74z M180.13,53.39c-3.2,1.85-3.23,0.57-6.74-0.69c-0.66-0.29-2.59-0.5-4.48-0.48
				c1.55-0.62,3.13-1.17,4.58-2.02c0.77-0.57,1.17-1.39,1.66-2.13c1.77,1.54,2.79,3.73,4.77,5.15
				C179.98,53.28,180.05,53.34,180.13,53.39z M154.37,45.83c2.44-1.54,5.19-2.51,8.05-3.03c-0.65,1.54-1.54,2.48-2.59,3.1
				c-0.16,0.1-0.31,0.18-0.47,0.26c-1.92,0.96-4.26,1.06-6.52,1.96c0.44-0.77,0.94-1.52,1.51-2.23
				C154.35,45.87,154.36,45.84,154.37,45.83z M150.17,49.38c0.91-1.04,1.92-1.95,3-2.73c-0.48,0.6-0.89,1.23-1.23,1.87
				c0,0.01,0,0.01-0.01,0.01c-0.52,0.26-1.03,0.58-1.53,0.98c-1.64,1.83-2.69,4.1-3.99,6.15C147.88,51.98,150.08,49.49,150.17,49.38
				z M145.93,66.3c-0.86-2.32-1.03-4.84-0.49-7.48c0.02-0.11,0.04-0.21,0.07-0.32v-0.01c0.09-0.09,0.16-0.18,0.24-0.28
				c2.24-2.13,3.23-5.39,5.31-7.59c-0.59,1.81-0.84,3.75-1,5.72c-0.16,1.96-0.2,3.95-0.37,5.86c-0.71,2-1.88,4.18-2.66,6.37
				C146.59,67.83,146.22,67.08,145.93,66.3z M154.35,74.17c-0.09,0.21-0.18,0.42-0.28,0.63c-2.81-1.35-5.18-3.4-6.76-5.81
				c0.05-0.15,0.09-0.29,0.16-0.43c0.85-2.88,2.95-5.31,3.13-8.4c-0.33-3.61,0.04-7.19,1.42-10.41c0.44-0.34,0.93-0.63,1.48-0.87
				c1.61-1.11,3.68-0.76,5.5-1.33c-0.11,0.34-0.21,0.6-0.32,0.67c-0.43,0.7-3.19,5.01-1.93,5.21c0.4-1.88,1.76-3.39,2.34-5.18
				c0.25-0.25,0.39-0.56,0.47-0.91c0.14-0.06,0.28-0.13,0.4-0.21c1.56-1.15,2.44-2.8,3.28-4.46c1.56-0.23,3.15-0.34,4.74-0.33
				c0.09,0.33,0.23,0.64,0.45,0.94c0.94,1.91,2.9,3.61,0.76,5.53c-0.13,0.16-0.64,0.8-0.31,0.83c3.63-2.23,0.84-4.63-0.22-7.29
				c3.33,0.09,6.64,0.69,9.64,1.64c-0.21,0.21-0.42,0.4-0.64,0.55c-0.91,0.71-1.68,1.63-2.46,2.55c-0.18,0.21-0.36,0.41-0.54,0.61
				c-0.88,1.01-1.81,1.94-3,2.47c-1.56,0.98-3.65,1.11-5.11,2.2c-1.22,0.17-2.11,0.5-2.19,1.03c0.3-0.09,0.6-0.16,0.9-0.22
				c0.72-0.16,1.45-0.28,2.18-0.34c2.64-0.26,5.31,0.08,7.79,1.05c1.49,1.49,3.68,0.86,5.18-0.29c0.91,0.58,1.93,0.86,2.98,1.04
				c-0.01,0.06-0.02,0.12-0.04,0.18c-0.09,1.78-0.81,3.07-1.85,4.12c-0.21,0.21-0.43,0.41-0.66,0.61c-0.67,0.57-1.42,1.06-2.17,1.54
				c-1.59-0.81-3.78-0.83-5.44-0.63c-1.14-0.15-2.28-0.89-3.36-1.32c-0.73-0.62-1.59-1.13-2.13-1.88c-0.23-0.23-0.81-1.27-1.08-0.96
				c1.01,2.6,4.21,4.41,6.85,4.74c1.52-0.46,3.22-0.31,4.69,0.33c-0.66,0.41-1.32,0.81-1.93,1.25c-0.23,0.04-0.49,0.09-0.74,0.16
				c-9.62,1.45-5.65,14.87-17.68,11.15c-0.69-0.22-1.47-0.49-2.22-0.54c0.85-1.12,1.97-2.03,3.81-2.22c0.97-0.26,2.71-0.16,3.06-1.3
				c-2.69,1.13-5.93,0.94-7.78,3.59c-0.12,0.16-0.23,0.35-0.34,0.53C154.39,74.06,154.37,74.11,154.35,74.17z M185.64,66.01
				c-1.23-0.15-2.62-0.31-4.12-0.25c-3.34,0.14-5.7,1.32-7.67,2.85c-1.13,0.87-2.14,1.86-3.13,2.83c-2.33,2.29-4.53,4.45-8.22,4.92
				c-2.27,0.3-4.77-0.07-7.23-1.04c-0.22-0.09-0.43-0.18-0.64-0.28c0.14-0.26,0.29-0.51,0.45-0.77c3.73,0.71,7.79,2.73,11.07-0.15
				c4.07-3.29,3.05-9.07,8.83-10.42c-1.28,1.24-2.02,2.81-1.51,5.21c0.13-0.11,0.26-0.21,0.4-0.31c-0.29-2.5,0.77-3.92,2.3-5.1
				c0.42-0.33,0.87-0.63,1.34-0.94c0.46-0.3,0.93-0.59,1.4-0.9c0.12-0.08,0.24-0.16,0.36-0.25c0.64-0.43,1.26-0.89,1.84-1.44
				c1.01,1.57,3.91,1.86,5.57,3.37c0.63,0.43,0.49,1.24,0.94,1.84c0.13,0.13,0.51,0.54,0.98,1.01
				C187.67,66.26,186.7,66.14,185.64,66.01z M194.62,60.58c-0.01,0.01-0.1,0.58-0.41,1.37c-0.29,0.74-0.84,1.81-1.8,2.71
				c-0.19,0.18-0.4,0.36-0.66,0.55c-0.79,0.57-1.59,0.84-2.44,0.96c-0.08-0.08-0.15-0.16-0.21-0.26c-1.6-1.81-1.73-3.97-4.38-4.75
				c-1.38-0.49-2.39-0.49-3.03-1.8c1.03-1.14,1.82-2.61,2.1-4.66c1.59,0.23,3.26,0.3,4.77,0.86c0.21,0.07,0.43,0.16,0.63,0.27
				c0.13,0.06,0.24,0.11,0.36,0.18c1.2,0.16,1.79,1.15,2.78,1.71c0.73,0.55,1.52,0.97,2.34,1.38
				C194.72,59.61,194.7,60.1,194.62,60.58z M160.14,67.52c2.61-0.6,4.38-3.06,4.6-5.55c0.2-2.19-0.74-5.09-3.14-6.02
				c-2.78-1.08-5.9,1.13-7.08,3.58c-0.94,1.94-1.14,5.02,0.84,6.84C157.25,68.14,159.88,67.59,160.14,67.52z M156.63,60.53
				c0.66-1.36,2.39-2.59,3.93-2c1.34,0.52,1.86,2.13,1.75,3.35c-0.13,1.38-1.11,2.76-2.56,3.08c-0.14,0.04-1.61,0.34-2.66-0.63
				C156,63.32,156.11,61.61,156.63,60.53z M161.61,55.95c-2.78-1.08-5.9,1.13-7.08,3.58c-0.94,1.94-1.14,5.02,0.84,6.84
				c1.88,1.76,4.52,1.2,4.78,1.14c2.61-0.6,4.38-3.06,4.6-5.55C164.95,59.79,164.01,56.88,161.61,55.95z M162.31,61.88
				c-0.13,1.38-1.11,2.76-2.56,3.08c-0.14,0.04-1.61,0.34-2.66-0.63c-1.09-1.02-0.98-2.73-0.46-3.8c0.66-1.36,2.39-2.59,3.93-2
				C161.9,59.05,162.42,60.67,162.31,61.88z"/>
			<path class="st9" d="M197.55,145.29c-2.78-6.18-9.4-12.6-14.82-18.71c-1.78-2-3.94-4.34-6.27-6.79
				c2.53-1.45,8.01-2.29,11.54-3.87c4.16-1.86,5.6-4.76,4.54-6.2c-2.12-2.88-13.3-12.96-13.3-12.96s-6.12,5.48-13.32,12.16
				c-6.54-6.6-12.02-11.97-12.02-11.97s-8.88,7.39-11.05,10.09c-1.95,2.42,8.23,7.82,12.49,11.85c-2.64,2.54-5.09,4.96-7.1,7.03
				c-5.86,6.04-12.96,12.33-16.1,18.57c-2.22,4.41,0.06,10.53,3.8,12.43c7.35,3.73,15.35-1.89,15.35-1.89
				c-0.35-1.88-1.01-8.91,6.16-14.58c2.79-2.2,5.64-5.07,8.27-7.99c2.37,2.85,4.92,5.63,7.45,7.82c6.72,5.81,5.77,12.6,5.35,14.4
				c0,0,7.52,5.8,14.81,2.49C197.04,155.5,199.52,149.66,197.55,145.29z M173.97,109.38c1.15-0.22,2.27,0.55,2.48,1.7
				c0.22,1.15-0.55,2.27-1.7,2.49c-1.15,0.21-2.27-0.55-2.49-1.71C172.05,110.7,172.8,109.59,173.97,109.38z M141.53,149.7
				c-1.16,0.22-2.27-0.55-2.49-1.7c-0.22-1.15,0.55-2.27,1.7-2.49c1.15-0.21,2.27,0.55,2.49,1.71
				C143.45,148.38,142.69,149.49,141.53,149.7z M158.2,130.13c-1.15,0.22-2.27-0.55-2.48-1.7c-0.22-1.15,0.55-2.27,1.7-2.48
				c1.15-0.22,2.27,0.55,2.48,1.7C160.12,128.8,159.36,129.92,158.2,130.13z M160.04,111.9c-0.26,1.11-1.37,1.81-2.49,1.54
				c-1.11-0.26-1.8-1.37-1.54-2.48c0.26-1.11,1.37-1.81,2.49-1.54C159.61,109.68,160.29,110.79,160.04,111.9z M175.38,128.69
				c-0.26,1.11-1.37,1.8-2.49,1.54c-1.11-0.26-1.8-1.37-1.54-2.49c0.26-1.11,1.37-1.8,2.49-1.54
				C174.94,126.47,175.63,127.58,175.38,128.69z M190.71,148.39c-0.25,1.11-1.37,1.81-2.48,1.54c-1.11-0.26-1.81-1.37-1.54-2.48
				c0.26-1.11,1.37-1.81,2.48-1.54C190.27,146.17,190.97,147.28,190.71,148.39z"/>
			<path class="st10" d="M153.92,97.16l-9.88,8.58c-6.62-4.41-17.53,2.44-17.53,2.44C63.94,51.53,79.55,26.96,79.55,26.96
				C97.74,36.39,153.92,97.16,153.92,97.16z M226.36,38.35c2.29-3.04,4.19-6.04,5.67-8.01c2.49-3.33,4.6-2.99,7.18-0.76
				c4.39,3.78,32.96,28.58,32.96,28.58c-27.67,37.95-61.7,68.65-61.7,68.65l-31.3-30.09C179.18,96.72,220.77,45.76,226.36,38.35z
				 M236.27,36.61c1.42,0,2.57-1.15,2.57-2.57s-1.15-2.57-2.57-2.57s-2.57,1.15-2.57,2.57S234.85,36.61,236.27,36.61z"/>
			<path class="st1" d="M268.9,58.01c0,0-15.88,24.65-58.07,66.23c0,0-0.53-2.01,10.96-15.13c12.36-14.11,35.07-38.01,41.67-46.92
				h0.01v-0.01l0.01-0.01l0.04-0.04c0.13-0.13,0.49-0.52,0.77-1.11c0.74-1.49,1.08-4.26-3.68-7.42c-1.6,1.62-3.34,2.76-4.86,4.71
				c-2.56,3.27-4.75,7.9-7.33,11.01c-6.05,7.31-12.46,12.24-18.07,18.33c-5.51,5.98-10.23,13.14-14.57,17.5
				c-5.61,5.63-9.93,9.72-12.15,11.79l-21.16-20.41l0.26-0.33l48.73-60.83c0.58,2.11,2.52,3.66,4.81,3.66
				c2.59,0,4.73-1.98,4.97-4.51c6.5,5.63,13.69,11.42,18.77,15.72l2,1.74l3.01,2.63L268.9,58.01z M150.3,146.71
				c-0.73,0-0.73-1.14,0-1.14C151.03,145.57,151.03,146.71,150.3,146.71z M190.72,111.41c-0.03,0-0.05,0-0.07,0.01
				c-0.33,0.02-0.26-0.57,0.11-0.41c0.02,0.01,0.04,0.02,0.06,0.03C191.02,111.12,190.9,111.4,190.72,111.41z M187.97,113.87
				c-0.73,0-0.73-1.13,0-1.13C188.71,112.74,188.71,113.87,187.97,113.87z M186.02,114.36c-0.34,0.16-0.71,0.41-1.07,0.51
				c-0.45,0.12-0.96,0.08-1.41,0.17c-0.78,0.16-1.54,0.43-2.28,0.69c-0.04,0.01-0.06-0.04-0.03-0.06c0.79-0.43,1.62-0.8,2.43-1.22
				c0.79-0.42,1.31-0.6,2.19-0.71C186.19,113.7,186.31,114.22,186.02,114.36z M177.06,117.23c-5.75,2.38-8.33,8.95-12.11,13.47
				c-3.88,4.64-9.46,6.92-12.93,12.09c-0.04,0.05-0.11,0.01-0.09-0.04c3.33-5.71,8.96-9.21,12.96-14.35c3.1-4,7.17-9.6,12.11-11.34
				C177.13,117.01,177.17,117.18,177.06,117.23z M190.32,109.57c-1.52-1.46-10.97-10.31-14.99-7.38l4.17-3.54L190.32,109.57z
				 M149.33,150.23c-0.04,0.67-0.12,1.33-0.21,2l-0.04,1.91c0,0-8.03,3.78-12.68,0.52c0,0,8.91,1.47,11.93-3.08
				c-0.86,0.6-2.08,0.9-3.06,0.89c-0.07,0-0.08-0.09-0.02-0.11c0.79-0.22,1.68-0.7,2.23-1.31c0.49-0.55,1.35-1.23,1.58-1.93
				c0.04-0.13,0.23-0.13,0.27,0c0.01,0.01,0.01,0.02,0.01,0.04C149.43,149.55,149.42,149.91,149.33,150.23z M157.47,102.39
				c-3.9-3.12-11.38,3.57-12.14,4.26l8.26-7.87L157.47,102.39z M192.99,154.98c-4.65,2.95-12.28-1.06-12.28-1.06l0.1-4.54
				C181.86,156.31,192.99,154.98,192.99,154.98z M150.4,96.92l-6.69,5.82c-0.61-0.26-1.25-0.47-1.92-0.62
				c-2.81-0.65-5.82-0.28-8.49,0.46l4.08-2.01c0,0-3.92-1.71-7.93-6.14c-3.6-3.98-7.01-10.41-12.01-15.5
				c-7.51-7.67-16.27-15.03-19.69-19.55C89.5,48.5,82.66,34.36,82.66,34.36s-0.89,7.15,7.46,23.47c3.51,6.86,15.89,21.89,25.1,32.99
				c6.12,7.37,10.53,12.74,11.77,14.25c-0.02,0.01-0.04,0.02-0.05,0.03C73.96,55.85,80.6,37.55,80.83,29.86
				C101.63,45.31,139.94,85.19,150.4,96.92z"/>
		</g>
		<text transform="matrix(1 0 0 1 29.7012 194.1422)" class="st11 st12 st13">RESTAURANT &amp; FOOD</text>
	</g>
</g>
<g id="Layer_4">
</g>
<g id="Layer_5">
</g>
<g id="Layer_6">
</g>
<g id="Layer_7">
</g>
<g id="Layer_8">
</g>
<g id="Layer_9">
</g>
<g id="Layer_10">
</g>
<g id="Layer_11">
</g>
<g id="Layer_12">
</g>
<g id="Layer_13">
</g>
<g id="Layer_14">
</g>
<g id="Layer_15">
</g>
</svg>
