<?xml version="1.0" encoding="utf-8"?>
<!-- Generator: Adobe Illustrator 27.8.1, SVG Export Plug-In . SVG Version: 6.00 Build 0)  -->
<svg version="1.1" xmlns="http://www.w3.org/2000/svg" xmlns:xlink="http://www.w3.org/1999/xlink" x="0px" y="0px"
	 viewBox="0 0 350 230" style="enable-background:new 0 0 350 230;" xml:space="preserve">
<style type="text/css">
	.st0{fill:#191919;}
	.st1{fill:#FFFFFF;}
	.st2{fill:#FFCA55;}
	.st3{fill:#006865;}
	.st4{fill:#00AEB7;}
	.st5{fill:#EDC599;}
	.st6{fill:url(#SVGID_1_);}
	.st7{fill:#250B00;}
	.st8{fill:#FFDBD4;}
	.st9{fill:#231F20;}
	.st10{fill:#7F7F7F;}
	.st11{fill:#FFD468;}
	.st12{fill:#303030;}
	.st13{fill:#007D54;}
	.st14{fill:#EE3631;}
	.st15{fill:#2B2B2B;}
	.st16{fill:#FFB000;}
	.st17{opacity:0.35;fill:#FFFFFF;}
	.st18{fill:#E09C05;}
	.st19{fill:#A8112B;}
	.st20{fill:#FCB040;}
	.st21{fill:#3DA1D8;}
	.st22{fill:#0C8EBC;}
	.st23{fill:#EFC6A3;}
	.st24{fill:#B0DFFF;}
	.st25{fill-rule:evenodd;clip-rule:evenodd;fill:#FEFEFE;}
	.st26{fill:#006284;}
	.st27{fill:#5B5B5B;}
	.st28{fill:#EACAB0;}
	.st29{fill:#442B18;}
	.st30{fill:#663412;}
	.st31{fill:#C18B63;}
	.st32{fill:#3A1801;}
	.st33{fill:#616D0B;}
	.st34{fill:#98B11F;}
	.st35{fill:#606060;}
	.st36{fill:#E0E0E0;}
	.st37{fill-rule:evenodd;clip-rule:evenodd;fill:#FFE183;}
	.st38{fill-rule:evenodd;clip-rule:evenodd;fill:#FFA617;}
	.st39{fill:#FF6745;}
	.st40{fill-rule:evenodd;clip-rule:evenodd;fill:#63A642;}
	.st41{fill-rule:evenodd;clip-rule:evenodd;fill:#925056;}
	.st42{fill-rule:evenodd;clip-rule:evenodd;fill:#2C2F38;}
	.st43{fill:#A5A5A5;}
	.st44{fill:#FFEBB8;}
	.st45{fill:#FFA617;}
	.st46{fill:#AF121A;}
	.st47{fill:#C49718;}
	.st48{display:none;fill:#AF121A;}
	.st49{font-family:'VintageCulture-Regular';}
	.st50{font-size:25px;}
	.st51{fill:#FFD961;}
	.st52{fill:#F93B00;}
	.st53{fill:#FFC02E;}
	.st54{fill:#FA6500;}
	.st55{fill:#9BB200;}
	.st56{fill:#FFF7D6;}
	.st57{fill:#3E9AFF;}
	.st58{fill:#3ED698;}
	.st59{fill:#0F935A;}
</style>
<g id="Layer_1">
</g>
<g id="Layer_2">
</g>
<g id="Layer_3">
</g>
<g id="Layer_4">
</g>
<g id="Layer_5">
</g>
<g id="Layer_6">
</g>
<g id="Layer_7">
</g>
<g id="Layer_8">
</g>
<g id="Layer_9">
</g>
<g id="Layer_10">
</g>
<g id="Layer_11">
</g>
<g id="Layer_12">
</g>
<g id="Layer_13">
	<g>
		<text transform="matrix(1 0 0 1 29.701 185.2674)" class="st48 st49 st50">RESTAURANT &amp; FOOD</text>
		<g>
			<g>
				<path class="st44" d="M114.28,91.11l-1.1,1.1c-14.04,15.33-21.89,34.96-22.24,55.78h-2.45c0.35-20.73,7.94-41.37,22.86-57.62
					l1.08-1.09L114.28,91.11z M161.31,137.42c-0.12,0.19-0.23,0.4-0.32,0.61c-0.58,1.37-0.59,2.89-0.03,4.26
					c0.28,0.69,0.69,1.31,1.22,1.84c1.59,1.59,3.96,2.06,6.03,1.22c0.27-0.11,0.52-0.24,0.76-0.39L161.31,137.42z M135.28,129.57
					c-1.86,0.51-2.96,2.45-2.44,4.31c0.51,1.86,2.45,2.96,4.31,2.44c1.86-0.51,2.96-2.45,2.44-4.31
					C139.08,130.16,137.14,129.06,135.28,129.57z M158.57,147.99h-10.64c-1.03-1.78-3.17-2.71-5.25-2.14
					c-1.22,0.34-2.18,1.13-2.76,2.14h-13.91c-0.54-0.97-1.77-1.2-3.41-1.24l0.64-4.99c0.18-1.38-0.81-2.66-2.19-2.83l-5.97-0.76
					c-1.38-0.17-2.66,0.81-2.83,2.19l-0.64,4.99c-2.43-0.56-4.07-0.52-4.44,2.38c-0.01,0.09-0.03,0.18-0.03,0.27H96.34
					c0.34-18.72,7.18-37.34,20.56-52.05l1.13-1.13l39.44,38.84c-0.54,0.71-1,1.48-1.35,2.32c-1.13,2.67-1.15,5.62-0.06,8.31
					c0.55,1.36,1.35,2.56,2.38,3.59C158.48,147.91,158.53,147.95,158.57,147.99z M116.93,116.77c-3.2-3.2-8.4-3.2-11.61,0
					c-3.2,3.2-3.2,8.4,0,11.61c3.2,3.2,8.4,3.2,11.61,0C120.14,125.17,120.14,119.97,116.93,116.77z M142.81,131.13
					c-1.01-3.63-4.78-5.77-8.41-4.77c-3.63,1.01-5.77,4.78-4.77,8.41c1.01,3.63,4.77,5.77,8.41,4.77
					C141.67,138.53,143.81,134.76,142.81,131.13z M237.27,90.4l-1.82,1.82c14.57,15.15,22.87,34.81,23.6,55.77h2.47
					C260.8,127.11,252.71,106.44,237.27,90.4z M228.44,113.27c-1.39,0.53-2.49,1.57-3.09,2.93c-0.94,2.09-0.48,4.59,1.15,6.21
					c0.48,0.48,1.04,0.86,1.66,1.14c2.8,1.25,6.1-0.01,7.35-2.81c0.94-2.09,0.48-4.59-1.14-6.21c-0.48-0.48-1.04-0.86-1.66-1.14
					C231.34,112.78,229.83,112.74,228.44,113.27z M253.64,147.99h-65.86c-2.06-0.71-4.24-0.73-6.16,0h-1.96l14.89-14.89
					c-2.18,2.68-2.03,6.65,0.46,9.15c2.66,2.67,7,2.67,9.66,0c2.66-2.66,2.66-7,0-9.66c-2.5-2.5-6.47-2.65-9.15-0.46l36.16-36.16
					C245.62,110.48,252.94,129.12,253.64,147.99z M240.33,122.89c1.82-4.08,0.92-8.94-2.24-12.1c-0.94-0.94-2.03-1.68-3.24-2.23
					c-2.65-1.18-5.59-1.26-8.3-0.23c-2.71,1.04-4.85,3.06-6.03,5.71c-1.83,4.08-0.93,8.94,2.23,12.1c0.94,0.94,2.03,1.69,3.24,2.23
					C231.46,130.81,237.88,128.36,240.33,122.89z M237.26,136.37c-2.47-0.68-5.02,0.76-5.7,3.24c-0.68,2.47,0.77,5.02,3.24,5.7
					c2.47,0.68,5.02-0.77,5.7-3.24C241.18,139.6,239.73,137.05,237.26,136.37z M197.38,134.94c-1.36,1.36-1.36,3.59,0,4.95
					c1.36,1.36,3.59,1.36,4.95,0c1.36-1.36,1.36-3.59,0-4.95S198.75,133.58,197.38,134.94z M115.07,64.17l-0.24,0.24l1.84,1.85
					l0.25-0.25c15.83-14.52,36.26-22.44,57.84-22.31c21.89,0.13,42.5,8.5,58.25,23.63l1.83-1.83
					C201.66,33.64,148.85,33.12,115.07,64.17z M229.25,71.06l-13.96,13.92c-0.22-0.52-0.54-0.99-0.96-1.41
					c-1.81-1.82-4.75-1.82-6.55,0c-1.81,1.81-1.81,4.74,0,6.55c0.42,0.42,0.9,0.74,1.41,0.96l-33.89,33.81l-0.57-0.57
					c2.25-2.95,2.94-6.98,1.45-10.66c-0.55-1.36-1.35-2.57-2.38-3.59c-3.1-3.1-7.71-4.03-11.76-2.38c-0.91,0.36-1.75,0.85-2.51,1.43
					l-39.14-39.14l0.24-0.24C151.35,41.76,199.16,42.27,229.25,71.06z M143.72,74.99c1-3.63-1.13-7.4-4.77-8.41
					c-3.63-1-7.4,1.14-8.4,4.77c-1.01,3.64,1.13,7.4,4.76,8.41C138.95,80.76,142.72,78.62,143.72,74.99z M157.74,84.02
					c-3.21-3.2-8.4-3.2-11.61,0c-3.21,3.2-3.21,8.4,0,11.61c3.2,3.2,8.4,3.2,11.61,0C160.95,92.42,160.95,87.22,157.74,84.02z
					 M166.5,76.05l4.99-0.64c0.07,2.49,0.52,4.06,3.43,3.69c4.75-0.61,8.05-5.38,7.36-10.66c-0.68-5.29-5.07-9.07-9.82-8.47
					c-2.9,0.38-2.94,2.01-2.38,4.44l-4.99,0.64c-1.38,0.17-2.36,1.45-2.19,2.83l0.77,5.96C163.85,75.24,165.13,76.23,166.5,76.05z
					 M176.29,92.25c-2.47-0.68-5.02,0.76-5.7,3.24c-0.68,2.47,0.76,5.02,3.24,5.7c2.47,0.68,5.02-0.77,5.7-3.24
					C180.21,95.49,178.76,92.93,176.29,92.25z M198.04,78.03c-3.85-3.85-10.11-3.85-13.96,0c-3.85,3.85-3.85,10.12,0,13.96
					c3.85,3.85,10.12,3.85,13.96,0C201.89,88.15,201.89,81.89,198.04,78.03z M207.93,63.85c-2.67-2.66-7-2.66-9.67,0
					c-2.66,2.67-2.66,7,0,9.67c2.67,2.66,7,2.66,9.67,0C210.59,70.85,210.59,66.52,207.93,63.85z M171.27,115.64
					c-0.28-0.69-0.69-1.31-1.22-1.84c-1.59-1.59-3.96-2.06-6.03-1.22c-0.24,0.1-0.47,0.22-0.69,0.35l7.59,7.59
					C171.76,119.08,171.95,117.3,171.27,115.64z M195.69,89.64c2.55-2.55,2.55-6.7,0-9.25c-2.55-2.55-6.7-2.55-9.25,0
					c-2.55,2.55-2.55,6.7,0,9.25C188.99,92.19,193.14,92.19,195.69,89.64z M205.57,71.16c1.36-1.36,1.36-3.59,0-4.95
					c-1.36-1.36-3.59-1.36-4.95,0c-1.36,1.36-1.36,3.59,0,4.95C201.99,72.52,204.21,72.52,205.57,71.16z M138.07,69.8
					c-1.86-0.51-3.79,0.58-4.31,2.44c-0.51,1.86,0.58,3.79,2.44,4.31c1.86,0.51,3.79-0.58,4.31-2.44
					C141.02,72.24,139.93,70.31,138.07,69.8z"/>
			</g>
			<path class="st51" d="M134.4,126.36c-3.63,1-5.77,4.77-4.77,8.41c1,3.63,4.77,5.77,8.41,4.77c3.63-1,5.77-4.77,4.77-8.41
				C141.8,127.5,138.03,125.36,134.4,126.36z M137.15,136.32c-1.86,0.51-3.79-0.58-4.31-2.44c-0.51-1.86,0.58-3.79,2.44-4.31
				c1.86-0.51,3.79,0.58,4.31,2.44C140.1,133.88,139.01,135.81,137.15,136.32z M172.04,147.99h-13.47
				c-0.04-0.04-0.09-0.08-0.13-0.12c-1.03-1.03-1.83-2.24-2.38-3.59c-1.09-2.69-1.07-5.64,0.06-8.31c0.35-0.84,0.81-1.62,1.35-2.32
				l3.83,3.77c-0.12,0.19-0.23,0.4-0.32,0.61c-0.58,1.37-0.59,2.89-0.03,4.26c0.28,0.69,0.69,1.31,1.22,1.84
				c1.59,1.59,3.96,2.06,6.03,1.22c0.27-0.11,0.52-0.24,0.76-0.39L172.04,147.99z M204.69,132.59c-2.5-2.5-6.47-2.65-9.15-0.46
				l-0.03,0.03l-0.01,0.01c-0.16,0.13-0.32,0.27-0.47,0.43c-0.15,0.15-0.29,0.31-0.43,0.47l-0.01,0.01l-0.03,0.03
				c-2.18,2.68-2.03,6.65,0.46,9.15c2.66,2.67,7,2.67,9.66,0C207.35,139.59,207.35,135.25,204.69,132.59z M202.33,139.89
				c-1.36,1.37-3.59,1.37-4.95,0c-1.36-1.36-1.36-3.59,0-4.95s3.59-1.36,4.95,0C203.7,136.31,203.7,138.53,202.33,139.89z
				 M226.55,108.33c-2.71,1.03-4.85,3.06-6.03,5.71c-1.82,4.08-0.93,8.94,2.23,12.1c0.94,0.94,2.03,1.69,3.24,2.23
				c5.46,2.44,11.89-0.02,14.33-5.48c1.82-4.08,0.93-8.94-2.23-12.1c-0.94-0.94-2.03-1.69-3.24-2.23
				C232.2,107.38,229.26,107.3,226.55,108.33z M234.36,114.53c1.62,1.62,2.08,4.12,1.14,6.21c-1.25,2.8-4.55,4.06-7.35,2.81
				c-0.63-0.28-1.19-0.66-1.66-1.14c-1.62-1.62-2.08-4.12-1.15-6.21c0.61-1.36,1.71-2.4,3.09-2.93c1.39-0.53,2.9-0.49,4.26,0.12
				C233.32,113.67,233.88,114.05,234.36,114.53z M207.93,63.85c-2.67-2.66-7-2.66-9.67,0c-2.66,2.67-2.66,7,0,9.67
				c2.67,2.66,7,2.66,9.67,0C210.59,70.85,210.59,66.52,207.93,63.85z M205.58,71.16c-1.37,1.36-3.59,1.36-4.96,0
				c-1.36-1.37-1.36-3.59,0-4.96c1.37-1.36,3.59-1.36,4.96,0C206.94,67.58,206.94,69.79,205.58,71.16z M198.04,78.03
				c-3.85-3.85-10.11-3.85-13.96,0c-3.85,3.85-3.85,10.12,0,13.96c3.85,3.85,10.12,3.85,13.96,0
				C201.89,88.15,201.89,81.89,198.04,78.03z M195.68,89.64c-2.55,2.55-6.69,2.55-9.25,0c-2.55-2.55-2.55-6.69,0-9.25
				c2.55-2.55,6.7-2.55,9.25,0C198.24,82.95,198.24,87.09,195.68,89.64z M138.95,66.58c-3.63-1-7.4,1.14-8.4,4.77
				c-1.01,3.64,1.13,7.4,4.76,8.41c3.64,1,7.41-1.14,8.41-4.77S142.59,67.59,138.95,66.58z M140.51,74.1
				c-0.52,1.86-2.45,2.96-4.31,2.44c-1.86-0.51-2.96-2.44-2.45-4.31c0.52-1.86,2.45-2.96,4.31-2.44
				C139.93,70.31,141.02,72.24,140.51,74.1z M174.72,124.32l-3.8-3.8c0.84-1.43,1.03-3.22,0.36-4.87c-0.28-0.69-0.69-1.31-1.22-1.84
				c-1.59-1.59-3.96-2.06-6.03-1.22c-0.24,0.1-0.47,0.22-0.69,0.35l-3.8-3.81c0.76-0.58,1.6-1.07,2.51-1.43
				c4.05-1.64,8.66-0.71,11.76,2.38c1.03,1.03,1.83,2.24,2.38,3.59C177.66,117.34,176.97,121.37,174.72,124.32z"/>
			<path class="st46" d="M116.93,116.77c3.21,3.21,3.21,8.4,0,11.61c-3.2,3.2-8.4,3.21-11.61,0c-3.2-3.2-3.21-8.4,0-11.61
				C108.53,113.57,113.73,113.57,116.93,116.77z M142.69,145.85c-1.22,0.34-2.18,1.13-2.76,2.14h8.01
				C146.9,146.21,144.76,145.28,142.69,145.85z M237.26,136.37c-2.47-0.68-5.02,0.77-5.7,3.24c-0.68,2.47,0.77,5.02,3.24,5.7
				c2.47,0.68,5.02-0.77,5.7-3.24C241.18,139.6,239.73,137.05,237.26,136.37z M181.62,147.99h6.16
				C185.73,147.28,183.54,147.26,181.62,147.99z M214.33,83.57c-1.81-1.82-4.75-1.82-6.55,0c-1.81,1.81-1.81,4.74,0,6.55
				c0.42,0.42,0.9,0.74,1.41,0.96l6.11-6.1C215.07,84.47,214.75,83.99,214.33,83.57z M176.29,92.25c-2.47-0.68-5.02,0.77-5.7,3.24
				c-0.68,2.47,0.77,5.02,3.24,5.7c2.47,0.68,5.02-0.77,5.7-3.24C180.21,95.49,178.76,92.93,176.29,92.25z M157.74,84.01
				c-3.2-3.2-8.4-3.2-11.61,0c-3.21,3.21-3.2,8.4,0,11.61c3.2,3.21,8.4,3.21,11.61,0C160.95,92.42,160.95,87.22,157.74,84.01z"/>
			<path class="st47" d="M126.02,147.99h-18.87c0-0.09,0.01-0.18,0.03-0.27c0.37-2.9,2.01-2.94,4.44-2.38l0.64-4.99
				c0.18-1.38,1.45-2.36,2.83-2.19l5.97,0.76c1.38,0.18,2.37,1.45,2.19,2.83l-0.64,4.99C124.25,146.79,125.48,147.01,126.02,147.99z
				 M172.47,59.98c-2.91,0.37-2.94,2.01-2.38,4.44l-4.99,0.64c-1.38,0.18-2.37,1.45-2.19,2.83l0.77,5.97
				c0.18,1.38,1.45,2.37,2.83,2.19l4.99-0.64c0.07,2.49,0.52,4.07,3.43,3.7c4.74-0.61,8.04-5.38,7.36-10.67
				C181.61,63.16,177.21,59.37,172.47,59.98z"/>
			<path class="st45" d="M239.69,62.87c-0.37-0.37-0.75-0.74-1.13-1.1c-17.22-16.62-39.82-25.81-63.81-25.94
				c-23.8-0.13-46.31,8.68-63.67,24.84c-0.38,0.36-0.76,0.72-1.15,1.08l-1.11,1.11l66.46,66.46l65.51-65.35L239.69,62.87z
				 M215.29,84.98l-6.11,6.1l-33.89,33.81l-0.57-0.57l-3.8-3.8l-7.59-7.59l-3.8-3.81l-39.14-39.14l0.24-0.24
				c30.72-27.98,78.53-27.47,108.62,1.32L215.29,84.98z M233,67.33c-15.75-15.12-36.36-23.5-58.25-23.63
				c-21.58-0.13-42.01,7.79-57.84,22.31l-0.25,0.25l-1.84-1.85l0.24-0.24c33.79-31.05,86.6-30.54,119.76,1.32L233,67.33z
				 M266.92,147.99c-0.73-23.07-9.85-44.7-25.91-61.33c-0.36-0.38-0.73-0.75-1.1-1.13l-1.11-1.11l-62.93,62.93L110.82,83.3
				l-1.1,1.12l-1.06,1.08l-0.04,0.04c-16.17,16.97-25.19,39.03-25.56,62.45c-0.01,0.5-0.01,1-0.01,1.5v1.65h183.91v-1.57
				C266.95,149.04,266.94,148.51,266.92,147.99z M88.48,147.99c0.35-20.73,7.94-41.37,22.86-57.62l1.08-1.09l1.86,1.83l-1.1,1.1
				c-14.04,15.33-21.89,34.96-22.24,55.78H88.48z M96.34,147.99c0.34-18.72,7.18-37.34,20.56-52.05l1.13-1.13l39.44,38.84l3.83,3.77
				l7.66,7.54l3.08,3.03H96.34z M179.67,147.99l14.89-14.89l0.03-0.03l0.01-0.01c0.13-0.16,0.27-0.32,0.43-0.47
				c0.15-0.15,0.31-0.29,0.47-0.43l0.01-0.01l0.03-0.03l36.16-36.16c13.92,14.52,21.23,33.16,21.94,52.03H179.67z M259.04,147.99
				c-0.73-20.96-9.03-40.62-23.6-55.77l1.82-1.82c15.45,16.05,23.54,36.71,24.25,57.59H259.04z"/>
		</g>
	</g>
</g>
<g id="Layer_14">
</g>
<g id="Layer_15">
</g>
</svg>
