<?xml version="1.0" encoding="utf-8"?>
<!-- Generator: Adobe Illustrator 27.8.1, SVG Export Plug-In . SVG Version: 6.00 Build 0)  -->
<svg version="1.1" xmlns="http://www.w3.org/2000/svg" xmlns:xlink="http://www.w3.org/1999/xlink" x="0px" y="0px"
	 viewBox="0 0 350 230.71" style="enable-background:new 0 0 350 230.71;" xml:space="preserve">
<style type="text/css">
	.st0{fill:#191919;}
	.st1{fill:#FFFFFF;}
	.st2{fill:#FFCA55;}
	.st3{fill:#006865;}
	.st4{fill:#00AEB7;}
	.st5{fill:#EDC599;}
	.st6{fill:url(#SVGID_1_);}
	.st7{fill:#250B00;}
	.st8{fill:#FFDBD4;}
	.st9{fill:#231F20;}
	.st10{fill:#7F7F7F;}
	.st11{fill:#FFD468;}
	.st12{fill:#303030;}
	.st13{fill:#007D54;}
	.st14{fill:#EE3631;}
	.st15{fill:#2B2B2B;}
	.st16{fill:#FFB000;}
	.st17{opacity:0.35;fill:#FFFFFF;}
	.st18{fill:#E09C05;}
	.st19{fill:#A8112B;}
	.st20{fill:#FCB040;}
	.st21{fill:#3DA1D8;}
	.st22{fill:#0C8EBC;}
	.st23{fill:#EFC6A3;}
	.st24{fill:#B0DFFF;}
	.st25{fill-rule:evenodd;clip-rule:evenodd;fill:#FEFEFE;}
	.st26{fill:#006284;}
	.st27{fill:#5B5B5B;}
	.st28{fill:#EACAB0;}
	.st29{fill:#442B18;}
	.st30{fill:#663412;}
	.st31{fill:#C18B63;}
	.st32{fill:#3A1801;}
	.st33{fill:#616D0B;}
	.st34{fill:#98B11F;}
	.st35{fill:#606060;}
	.st36{fill:#E0E0E0;}
	.st37{fill-rule:evenodd;clip-rule:evenodd;fill:#FFE183;}
	.st38{fill-rule:evenodd;clip-rule:evenodd;fill:#FFA617;}
	.st39{fill:#FF6745;}
	.st40{fill-rule:evenodd;clip-rule:evenodd;fill:#63A642;}
	.st41{fill-rule:evenodd;clip-rule:evenodd;fill:#925056;}
	.st42{fill-rule:evenodd;clip-rule:evenodd;fill:#2C2F38;}
	.st43{fill:#A5A5A5;}
	.st44{fill:#FFEBB8;}
	.st45{fill:#FFA617;}
	.st46{fill:#AF121A;}
	.st47{fill:#C49718;}
	.st48{fill:#FFD961;}
	.st49{fill:#F93B00;}
	.st50{fill:#FFC02E;}
	.st51{fill:#FA6500;}
	.st52{fill:#9BB200;}
	.st53{fill:#FFF7D6;}
	.st54{fill:#3E9AFF;}
	.st55{fill:#3ED698;}
	.st56{fill:#0F935A;}
	.st57{fill:#ED1C24;}
	.st58{fill:#F68712;}
	.st59{fill:#5B0000;}
	.st60{fill-rule:evenodd;clip-rule:evenodd;fill:#FB6218;}
	.st61{fill:#795B4B;}
	.st62{fill:#513D35;}
	.st63{fill:#661F00;}
	.st64{fill:#3F0000;}
	.st65{fill-rule:evenodd;clip-rule:evenodd;fill:#FFFFFF;}
	.st66{fill:#FFC92F;}
	.st67{fill:#3D1109;}
	.st68{fill:#424241;}
	.st69{fill:none;stroke:#FFDE59;stroke-width:4;}
	.st70{fill:#FFDE59;}
	.st71{fill-rule:evenodd;clip-rule:evenodd;fill:#333231;}
	.st72{fill-rule:evenodd;clip-rule:evenodd;}
	.st73{fill:#FF6D00;}
	.st74{fill:#040507;}
	.st75{fill:#4D433A;}
	.st76{fill:#FF8B00;}
	.st77{filter:url(#Adobe_OpacityMaskFilter);}
	.st78{fill-opacity:0.3;}
	.st79{mask:url(#_x35_0ea534a37_00000039117605408314366780000006090329138646347946_);fill:#EBB22F;}
	.st80{fill:#F39200;}
	.st81{fill:#1D1D1B;}
	.st82{fill:#201F1F;}
</style>
<g id="Layer_1">
</g>
<g id="Layer_2">
</g>
<g id="Layer_3">
</g>
<g id="Layer_4">
</g>
<g id="Layer_5">
</g>
<g id="Layer_6">
</g>
<g id="Layer_7">
</g>
<g id="Layer_8">
</g>
<g id="Layer_9">
</g>
<g id="Layer_10">
</g>
<g id="Layer_11">
</g>
<g id="Layer_12">
</g>
<g id="Layer_13">
</g>
<g id="Layer_14">
</g>
<g id="Layer_15">
	<g>
		<path class="st75" d="M77.03,102.33c0,8.33-8,66.31-3.47,87.36c1.9,8.8,11.78,7.66,13.43,0c4.19-19.42-3.31-37.3-3.31-87.82
			c0-6.91,5.34-7.09,8.22-16.02c2.58-7.96-1.06-50.87-2.23-50.87c-1.34,0-0.68,37.16-3.23,37.16c-2.55,0-1.26-36.66-2.87-37.16
			c-1.62-0.51-0.44,37.16-3.43,37.16c-3.02,0-1.06-37.16-2.68-37.16c-1.61,0-1.16,37.16-3.63,37.16c-2.72,0-1.26-37.16-2.47-37.16
			c-2.06,0-4.48,40.35-3.2,48.87C69.45,92.38,77.03,93.99,77.03,102.33z M118.08,100.54c0,50.73-8.15,71.35-3.46,89.26
			c2.23,8.54,11.77,7.53,13.43,0c3.78-17.35-3.31-39.55-3.31-89.26c0-5.78,14.45-4.79,14.45-24.56c0-24.75-9.2-41.13-17.96-41.13
			c-8.18,0-17.07,17.96-17.07,41.13C104.15,94.54,118.08,95.77,118.08,100.54z M41.27,120.88c0,40.28-8.16,54.38-3.47,68.6
			c2.23,6.78,11.78,5.97,13.43,0c3.79-13.78-3.31-23.89-3.31-68.07c0-5.4,7.95-12.94,7.95-26.86c0-24.76-3.61-58.41-11.46-58.41
			c-7.53,0-5.81,43.38-5.81,67.11C38.6,113.44,41.27,116.09,41.27,120.88z"/>
		<path class="st76" d="M74.48,189.41c0.81,3.65,4.24,6.21,7.78,4.55c3.93-1.84,4.5-7.93,4.53-11.23
			c0.05-5.86-0.57-10.19-1.27-15.92c-0.22-1.78-0.58-5.09-0.94-6.73c-0.01,4.62,0.71,9.09-0.15,13.69
			c-1.28,4.31,0.14,12.2-3.99,15.1C78.39,190.3,74.71,187.47,74.48,189.41z M115.51,189.41c0.81,3.65,4.24,6.21,7.78,4.55
			c3.93-1.84,4.5-7.93,4.53-11.23c0.05-5.86-0.57-10.19-1.27-15.92c-0.22-1.78-0.58-5.09-0.94-6.73c-0.01,4.62,0.71,9.09-0.15,13.69
			c-1.28,4.31,0.14,12.2-3.99,15.1C119.43,190.3,115.75,187.47,115.51,189.41z M38.61,187.09c0.81,3.65,4.24,6.21,7.78,4.55
			c3.93-1.84,4.5-7.93,4.53-11.23c0.05-5.86-0.57-10.19-1.27-15.92c-0.22-1.78-0.58-5.09-0.94-6.73c-0.01,4.62,0.71,9.09-0.15,13.69
			c-1.28,4.31,0.14,12.2-3.99,15.1C42.52,187.98,38.85,185.14,38.61,187.09z M43.03,116.52c-3.74,0-7.49,0.22-11.17,0.66
			c-0.27,0.07-0.79,0.17-1.4,0.26c-3.72,0.65-10.47,1.82-10.94,6.58c-0.19,8.55-0.28,13.33-0.37,21.48
			c0.08-0.04,0.16-0.08,0.23-0.12c0.15-0.08,0.23-0.12,0.31-0.16c3.84-1.73,11.27-2.09,16.83-2.09c1.09,0,1.74,0.01,1.74,0.01
			l1.04,0.03v0.01c16.02,0.27,28.7,4.26,40.97,8.13c12.59,3.96,25.62,8.06,42.12,8.06c2.22,0,4.48-0.08,6.73-0.22
			c5.07-0.6,12.44-2.87,12.87-6.03l0.07-8.14c0.05-4.89,0.1-9.92,0.19-15.22c-2.25,1.05-6.3,1.57-12.09,1.57
			c-2.94,0-5.39-0.14-6.07-0.19l-0.99-0.07v-0.15c-13.45-0.75-25.71-4.02-37.57-7.17C72.13,120.2,58.28,116.52,43.03,116.52
			 M133.72,122.16l-0.09-4.19c-0.81-0.04-1.58-0.07-2.3-0.07c-4.76,0-6.11,1.1-6.21,1.39c-0.01,0.1,0,0.22,0.01,0.36
			C125.18,119.93,125.94,121.01,133.72,122.16 M28.65,152.79l-0.07,3.91c5.97-0.04,7.68-1.15,8.14-1.64
			c0.08-0.09,0.12-0.16,0.14-0.2c0-0.06-0.01-0.11-0.03-0.18C36.67,154.35,35.71,153.4,28.65,152.79 M130.15,129.26
			c8.19,0,11.66-1.1,12.17-2.11c-0.22-0.32-1.24-1.66-7.09-2.65c-0.32-0.06-0.67-0.12-1.04-0.17l-0.29-0.05
			c-3.35-0.48-5.8-0.98-7.48-1.52c-0.5-0.17-0.93-0.33-1.31-0.51l0.04,6.87C126.17,129.18,128.03,129.26,130.15,129.26
			 M25.07,146.04c-2.54,0.43-5.42,0.91-5.91,2.29l0.03,0.05c0.18,0.27,1.38,1.63,7.97,2.2l0.58,0.05c4.65,0.35,7.58,0.84,9.22,1.57
			l0.22-6.96c-3.72,0.02-7.46,0.23-11.23,0.65L25.07,146.04"/>
		<defs>
			<filter id="Adobe_OpacityMaskFilter" filterUnits="userSpaceOnUse" x="115.8" y="160.09" width="12.31" height="34.39">
				<feColorMatrix  type="matrix" values="1 0 0 0 0  0 1 0 0 0  0 0 1 0 0  0 0 0 1 0"/>
			</filter>
		</defs>
		
			<mask maskUnits="userSpaceOnUse" x="115.8" y="160.09" width="12.31" height="34.39" id="_x35_0ea534a37_00000039117605408314366780000006090329138646347946_">
			<g class="st77">
				<rect x="-247.09" y="-446.77" class="st78" width="1126.47" height="1126.47"/>
			</g>
		</mask>
		<path class="st79" d="M115.8,189.41c0.81,3.65,4.24,6.21,7.78,4.55c3.93-1.84,4.5-7.93,4.53-11.23
			c0.04-5.86-0.57-10.19-1.27-15.92c-0.22-1.78-0.58-5.09-0.94-6.73c-0.01,4.62,0.71,9.09-0.16,13.69
			c-1.28,4.31,0.15,12.2-3.98,15.1C119.71,190.3,116.02,187.47,115.8,189.41z"/>
	</g>
</g>
</svg>
