<?xml version="1.0" encoding="utf-8"?>
<!-- Generator: Adobe Illustrator 27.8.1, SVG Export Plug-In . SVG Version: 6.00 Build 0)  -->
<svg version="1.1" xmlns="http://www.w3.org/2000/svg" xmlns:xlink="http://www.w3.org/1999/xlink" x="0px" y="0px"
	 viewBox="0 0 350 230.71" style="enable-background:new 0 0 350 230.71;" xml:space="preserve">
<style type="text/css">
	.st0{fill:#191919;}
	.st1{fill:#FFFFFF;}
	.st2{fill:#FFCA55;}
	.st3{fill:#006865;}
	.st4{fill:#00AEB7;}
	.st5{fill:#EDC599;}
	.st6{fill:url(#SVGID_1_);}
	.st7{fill:#250B00;}
	.st8{fill:#FFDBD4;}
	.st9{fill:#231F20;}
	.st10{fill:#7F7F7F;}
	.st11{fill:#FFD468;}
	.st12{fill:#303030;}
	.st13{fill:#007D54;}
	.st14{fill:#EE3631;}
	.st15{fill:#2B2B2B;}
	.st16{fill:#FFB000;}
	.st17{opacity:0.35;fill:#FFFFFF;}
	.st18{fill:#E09C05;}
	.st19{fill:#A8112B;}
	.st20{fill:#FCB040;}
	.st21{fill:#3DA1D8;}
	.st22{fill:#0C8EBC;}
	.st23{fill:#EFC6A3;}
	.st24{fill:#B0DFFF;}
	.st25{fill-rule:evenodd;clip-rule:evenodd;fill:#FEFEFE;}
	.st26{fill:#006284;}
	.st27{fill:#5B5B5B;}
	.st28{fill:#EACAB0;}
	.st29{fill:#442B18;}
	.st30{fill:#663412;}
	.st31{fill:#C18B63;}
	.st32{fill:#3A1801;}
	.st33{fill:#616D0B;}
	.st34{fill:#98B11F;}
	.st35{fill:#606060;}
	.st36{fill:#E0E0E0;}
	.st37{fill-rule:evenodd;clip-rule:evenodd;fill:#FFE183;}
	.st38{fill-rule:evenodd;clip-rule:evenodd;fill:#FFA617;}
	.st39{fill:#FF6745;}
	.st40{fill-rule:evenodd;clip-rule:evenodd;fill:#63A642;}
	.st41{fill-rule:evenodd;clip-rule:evenodd;fill:#925056;}
	.st42{fill-rule:evenodd;clip-rule:evenodd;fill:#2C2F38;}
	.st43{fill:#A5A5A5;}
	.st44{fill:#FFEBB8;}
	.st45{fill:#FFA617;}
	.st46{fill:#AF121A;}
	.st47{fill:#C49718;}
	.st48{fill:#FFD961;}
	.st49{fill:#F93B00;}
	.st50{fill:#FFC02E;}
	.st51{fill:#FA6500;}
	.st52{fill:#9BB200;}
	.st53{fill:#FFF7D6;}
	.st54{fill:#3E9AFF;}
	.st55{fill:#3ED698;}
	.st56{fill:#0F935A;}
	.st57{fill:#ED1C24;}
	.st58{fill:#F68712;}
	.st59{fill:#5B0000;}
	.st60{fill-rule:evenodd;clip-rule:evenodd;fill:#FB6218;}
	.st61{fill:#795B4B;}
	.st62{fill:#513D35;}
	.st63{fill:#661F00;}
	.st64{fill:#3F0000;}
	.st65{fill-rule:evenodd;clip-rule:evenodd;fill:#FFFFFF;}
	.st66{fill:#FFC92F;}
	.st67{fill:#3D1109;}
	.st68{fill:#424241;}
	.st69{fill:none;stroke:#FFDE59;stroke-width:4;}
	.st70{fill:#FFDE59;}
	.st71{fill-rule:evenodd;clip-rule:evenodd;fill:#333231;}
	.st72{fill-rule:evenodd;clip-rule:evenodd;}
	.st73{fill:#FF6D00;}
	.st74{fill:#040507;}
	.st75{fill:#4D433A;}
	.st76{fill:#FF8B00;}
	.st77{filter:url(#Adobe_OpacityMaskFilter);}
	.st78{fill-opacity:0.3;}
	.st79{mask:url(#_x35_0ea534a37_00000039117605408314366780000006090329138646347946_);fill:#EBB22F;}
	.st80{fill:#F39200;}
	.st81{fill:#1D1D1B;}
	.st82{fill:#201F1F;}
</style>
<g id="Layer_1">
</g>
<g id="Layer_2">
</g>
<g id="Layer_3">
</g>
<g id="Layer_4">
</g>
<g id="Layer_5">
</g>
<g id="Layer_6">
</g>
<g id="Layer_7">
</g>
<g id="Layer_8">
</g>
<g id="Layer_9">
</g>
<g id="Layer_10">
</g>
<g id="Layer_11">
</g>
<g id="Layer_12">
</g>
<g id="Layer_13">
</g>
<g id="Layer_14">
</g>
<g id="Layer_15">
	<g>
		<path d="M274.83,105.14l-85.77,3.47l0.07,1.52l-0.05-1.52c-7.3,0-7.84-3.31-12.86-6.99c-5.83-4.28-15.75-9.19-27.77-9.19
			c-12.3,0-34.33,4.91-34.33,20.7c0,15.5,21.41,20.7,34.33,20.7c10.94,0,25.43-5.23,32.21-13.14c2.04-2.37,5.98-3.05,8.42-3.05
			c0,0,85.1,2.92,89.73,3.03l0.04-1.53l-1.54,0.15l0.68,14.77c0,5.88-0.35,12.57-1.5,18.15c-0.41,1.98,2.58,2.6,2.99,0.63
			c2.21-10.82,1.63-26.1,0.88-33.86c-0.07-0.76-0.71-1.35-1.48-1.36l-86.02-2.9c-4.74-0.17-10.64-0.49-14.51,3.98
			c-5.25,6.08-17.96,12.07-29.88,12.07c-10.47,0-31.27-4.07-31.27-17.64c0-13.31,20.12-17.65,31.27-17.63
			c10.06,0,23.63,4.82,29.88,12.07c3.87,4.46,9.73,4.15,14.42,3.95l84.03-3.39c0.97-0.01,1.68-0.93,1.45-1.9
			c-10.92-46.95-53.01-81.93-103.26-81.93c-61.88,0-110.61,52.78-105.67,114.58c0.13,1.79,2.14,1.42,5.88,1.56l96.37,3.58
			c6.16,0.23,8.8,0.56,14.26-3.67c3.21-2.49,8.53-6.49,12.89-6.54l-0.02-1.53l-0.04,1.53h0.33l47.77,2.57
			c2.01,0.1,2.17-2.95,0.17-3.06l-47.8-2.55c-9.27-0.41-15.99,10.7-23.25,10.38l-103.63-3.86C68.28,77.71,115.44,27.35,174.98,27.35
			C223.17,27.34,263.61,60.45,274.83,105.14z M103.34,38.55h-3.29c0-2.02,0.39-4.1-0.9-4.1c-1.29,0-0.89,2.08-0.89,4.1
			c-1.89,0-3.87-0.4-3.87,0.89s1.98,0.9,3.87,0.9c0,2.01-0.39,4.1,0.89,4.1c1.3,0,0.9-2.09,0.9-4.1c2.07,0,4.2,0.4,4.2-0.9
			C104.24,38.94,103.83,38.55,103.34,38.55z M278.84,71.93h-3.3c0-2.01,0.4-4.1-0.9-4.1c-1.3,0-0.9,2.09-0.9,4.1
			c-1.89,0-3.87-0.38-3.87,0.9c0,1.27,1.98,0.89,3.87,0.89c0,2.02-0.39,4.1,0.9,4.1c1.3,0,0.9-2.08,0.9-4.1
			c2.06,0,4.19,0.41,4.19-0.89C279.73,72.34,279.34,71.93,278.84,71.93z M176.83,111.14c-5.42-6.69-16.96-13.79-29.38-13.79
			c-4.24,0-8.88,0.74-13.8,2.59c-1.88,0.69-0.82,3.55,1.07,2.86c14.97-5.57,29.88-0.64,39.29,9.75
			C176.36,115.16,177.8,112.34,176.83,111.14z M102.84,128.08c0.95-39.36,33.18-70.97,72.76-70.97c24.63,0,46.39,12.22,59.56,30.94
			c1.15,1.63,3.66-0.13,2.5-1.76c-13.72-19.5-36.4-32.24-62.06-32.24c-41.25,0-74.82,32.95-75.83,73.97
			C99.75,130.02,102.8,130.1,102.84,128.08z M239.27,94.57c1.27,2.27,2.41,4.6,3.41,7c0.79,1.84,3.61,0.65,2.82-1.19
			c-1.05-2.5-2.24-4.94-3.54-7.29C240.97,91.33,238.3,92.81,239.27,94.57z M197.74,150.09h48.69c2.01,0,2.01-3.06,0-3.06h-48.69
			C195.73,147.04,195.73,150.09,197.74,150.09z M197.74,142.95h48.69c2.01,0,2.01-3.07,0-3.07h-48.69
			C195.73,139.89,195.73,142.95,197.74,142.95z M72.23,152.88l103.66-4.02c7.24-0.35,14,10.77,23.25,10.37l47.8-2.57
			c2.01-0.1,1.85-3.15-0.17-3.05l-47.77,2.57h-0.33l0.04,1.53l0.02-1.53c-8.22-0.12-14.44-10.94-23.04-10.38
			c-0.26,0.02-2.16,0.1-5.16,0.21l-95.04,3.67c-2.67,0.1-4.91-0.25-4.85,1.71C70.68,152.25,71.39,152.91,72.23,152.88z"/>
		<path class="st59" d="M274.83,106.49l-85.77,3.47l0.07,1.52l-0.05-1.52c-7.3,0-7.84-3.31-12.86-6.99
			c-5.83-4.28-15.75-9.19-27.77-9.19c-12.3,0-34.33,4.91-34.33,20.7c0,15.5,21.41,20.7,34.33,20.7c10.94,0,25.43-5.23,32.21-13.14
			c2.04-2.37,5.98-3.05,8.42-3.05c0,0,85.1,2.92,89.73,3.03l0.04-1.53l-1.54,0.15l0.68,14.77c0,5.88-0.35,12.57-1.5,18.15
			c-0.41,1.98,2.58,2.6,2.99,0.63c2.21-10.82,1.63-26.1,0.88-33.86c-0.07-0.76-0.71-1.35-1.48-1.36l-86.02-2.9
			c-4.74-0.17-10.64-0.49-14.51,3.98c-5.25,6.08-17.96,12.07-29.88,12.07c-10.47,0-31.27-4.07-31.27-17.64
			c0-13.31,20.12-17.65,31.27-17.63c10.06,0,23.63,4.82,29.88,12.07c3.87,4.46,9.73,4.15,14.42,3.95l84.03-3.39
			c0.97-0.01,1.68-0.93,1.45-1.9c-10.92-46.95-53.01-81.93-103.26-81.93c-61.88,0-110.61,52.78-105.67,114.58
			c0.13,1.79,2.14,1.42,5.88,1.56l96.37,3.58c6.16,0.23,8.8,0.56,14.26-3.67c3.21-2.49,8.53-6.49,12.89-6.54l-0.02-1.53l-0.04,1.53
			h0.33l47.77,2.57c2.01,0.1,2.17-2.95,0.17-3.06l-47.8-2.55c-9.27-0.41-15.99,10.7-23.25,10.38l-103.63-3.86
			C68.28,79.06,115.44,28.7,174.98,28.7C223.17,28.68,263.61,61.8,274.83,106.49z M103.34,39.9h-3.29c0-2.02,0.39-4.1-0.9-4.1
			c-1.29,0-0.89,2.08-0.89,4.1c-1.89,0-3.87-0.4-3.87,0.89s1.98,0.9,3.87,0.9c0,2.01-0.39,4.1,0.89,4.1c1.3,0,0.9-2.09,0.9-4.1
			c2.07,0,4.2,0.4,4.2-0.9C104.24,40.29,103.83,39.9,103.34,39.9z M278.84,73.28h-3.3c0-2.01,0.4-4.1-0.9-4.1
			c-1.3,0-0.9,2.09-0.9,4.1c-1.89,0-3.87-0.38-3.87,0.9c0,1.27,1.98,0.89,3.87,0.89c0,2.02-0.39,4.1,0.9,4.1c1.3,0,0.9-2.08,0.9-4.1
			c2.06,0,4.19,0.41,4.19-0.89C279.73,73.69,279.34,73.28,278.84,73.28z M176.83,112.48c-5.42-6.69-16.96-13.79-29.38-13.79
			c-4.24,0-8.88,0.74-13.8,2.59c-1.88,0.69-0.82,3.55,1.07,2.86c14.97-5.57,29.88-0.64,39.29,9.75
			C176.36,116.5,177.8,113.69,176.83,112.48z M102.84,129.43c0.95-39.36,33.18-70.97,72.76-70.97c24.63,0,46.39,12.22,59.56,30.94
			c1.15,1.63,3.66-0.13,2.5-1.76c-13.72-19.5-36.4-32.24-62.06-32.24c-41.25,0-74.82,32.95-75.83,73.97
			C99.75,131.37,102.8,131.45,102.84,129.43z M239.27,95.92c1.27,2.27,2.41,4.6,3.41,7c0.79,1.84,3.61,0.65,2.82-1.19
			c-1.05-2.5-2.24-4.94-3.54-7.29C240.97,92.67,238.3,94.15,239.27,95.92z M197.74,151.44h48.69c2.01,0,2.01-3.06,0-3.06h-48.69
			C195.73,148.38,195.73,151.44,197.74,151.44z M197.74,144.3h48.69c2.01,0,2.01-3.07,0-3.07h-48.69
			C195.73,141.23,195.73,144.3,197.74,144.3z M72.23,154.23l103.66-4.02c7.24-0.35,14,10.77,23.25,10.37l47.8-2.57
			c2.01-0.1,1.85-3.15-0.17-3.05l-47.77,2.57h-0.33l0.04,1.53l0.02-1.53c-8.22-0.12-14.44-10.94-23.04-10.38
			c-0.26,0.02-2.16,0.1-5.16,0.21l-95.04,3.67c-2.67,0.1-4.91-0.25-4.85,1.71C70.68,153.6,71.39,154.26,72.23,154.23z"/>
	</g>
</g>
</svg>
