<?xml version="1.0" encoding="utf-8"?>
<!-- Generator: Adobe Illustrator 27.8.1, SVG Export Plug-In . SVG Version: 6.00 Build 0)  -->
<svg version="1.1" xmlns="http://www.w3.org/2000/svg" xmlns:xlink="http://www.w3.org/1999/xlink" x="0px" y="0px"
	 viewBox="0 0 350 230.71" style="enable-background:new 0 0 350 230.71;" xml:space="preserve">
<style type="text/css">
	.st0{fill:#191919;}
	.st1{fill:#FFFFFF;}
	.st2{fill:#FFCA55;}
	.st3{fill:#006865;}
	.st4{fill:#00AEB7;}
	.st5{fill:#EDC599;}
	.st6{fill:url(#SVGID_1_);}
	.st7{fill:#250B00;}
	.st8{fill:#FFDBD4;}
	.st9{fill:#231F20;}
	.st10{fill:#7F7F7F;}
	.st11{fill:#FFD468;}
	.st12{fill:#303030;}
	.st13{fill:#007D54;}
	.st14{fill:#EE3631;}
	.st15{fill:#2B2B2B;}
	.st16{fill:#FFB000;}
	.st17{opacity:0.35;fill:#FFFFFF;}
	.st18{fill:#E09C05;}
	.st19{fill:#A8112B;}
	.st20{fill:#FCB040;}
	.st21{fill:#3DA1D8;}
	.st22{fill:#0C8EBC;}
	.st23{fill:#EFC6A3;}
	.st24{fill:#B0DFFF;}
	.st25{fill-rule:evenodd;clip-rule:evenodd;fill:#FEFEFE;}
	.st26{fill:#006284;}
	.st27{fill:#5B5B5B;}
	.st28{fill:#EACAB0;}
	.st29{fill:#442B18;}
	.st30{fill:#663412;}
	.st31{fill:#C18B63;}
	.st32{fill:#3A1801;}
	.st33{fill:#616D0B;}
	.st34{fill:#98B11F;}
	.st35{fill:#606060;}
	.st36{fill:#E0E0E0;}
	.st37{fill-rule:evenodd;clip-rule:evenodd;fill:#FFE183;}
	.st38{fill-rule:evenodd;clip-rule:evenodd;fill:#FFA617;}
	.st39{fill:#FF6745;}
	.st40{fill-rule:evenodd;clip-rule:evenodd;fill:#63A642;}
	.st41{fill-rule:evenodd;clip-rule:evenodd;fill:#925056;}
	.st42{fill-rule:evenodd;clip-rule:evenodd;fill:#2C2F38;}
	.st43{fill:#A5A5A5;}
	.st44{fill:#FFEBB8;}
	.st45{fill:#FFA617;}
	.st46{fill:#AF121A;}
	.st47{fill:#C49718;}
	.st48{fill:#FFD961;}
	.st49{fill:#F93B00;}
	.st50{fill:#FFC02E;}
	.st51{fill:#FA6500;}
	.st52{fill:#9BB200;}
	.st53{fill:#FFF7D6;}
	.st54{fill:#3E9AFF;}
	.st55{fill:#3ED698;}
	.st56{fill:#0F935A;}
	.st57{fill:#ED1C24;}
	.st58{fill:#F68712;}
	.st59{fill:#5B0000;}
	.st60{fill-rule:evenodd;clip-rule:evenodd;fill:#FB6218;}
	.st61{fill:#795B4B;}
	.st62{fill:#513D35;}
	.st63{fill:#661F00;}
	.st64{fill:#3F0000;}
	.st65{fill-rule:evenodd;clip-rule:evenodd;fill:#FFFFFF;}
	.st66{fill:#FFC92F;}
	.st67{fill:#3D1109;}
	.st68{fill:#424241;}
	.st69{fill:none;stroke:#FFDE59;stroke-width:4;}
	.st70{fill:#FFDE59;}
	.st71{fill-rule:evenodd;clip-rule:evenodd;fill:#333231;}
	.st72{fill-rule:evenodd;clip-rule:evenodd;}
	.st73{fill:#FF6D00;}
	.st74{fill:#040507;}
	.st75{fill:#4D433A;}
	.st76{fill:#FF8B00;}
	.st77{filter:url(#Adobe_OpacityMaskFilter);}
	.st78{fill-opacity:0.3;}
	.st79{mask:url(#_x35_0ea534a37_00000039117605408314366780000006090329138646347946_);fill:#EBB22F;}
	.st80{fill:#F39200;}
	.st81{fill:#1D1D1B;}
	.st82{fill:#201F1F;}
</style>
<g id="Layer_1">
</g>
<g id="Layer_2">
</g>
<g id="Layer_3">
</g>
<g id="Layer_4">
</g>
<g id="Layer_5">
</g>
<g id="Layer_6">
</g>
<g id="Layer_7">
</g>
<g id="Layer_8">
</g>
<g id="Layer_9">
</g>
<g id="Layer_10">
</g>
<g id="Layer_11">
</g>
<g id="Layer_12">
</g>
<g id="Layer_13">
</g>
<g id="Layer_14">
</g>
<g id="Layer_15">
	<g>
		<path class="st73" d="M188.2,53.96l-13.54,17.95c-0.11,0.15-0.23,0.28-0.37,0.4c3.47,4,3.81,10.03,0.5,14.42l-6.52,8.65
			c-3.81,5.05-11.02,6.06-16.07,2.25c-5.05-3.81-6.06-11.01-2.25-16.06c0.03-0.05,0.06-0.08,0.09-0.12
			c0.03-0.04,0.06-0.08,0.09-0.12l6.34-8.41c3.31-4.4,9.2-5.73,14-3.49c0.08-0.16,0.17-0.32,0.28-0.47l12.42-16.47
			c-3.91-0.93-8-1.42-12.19-1.42c-15.3,0-29.07,6.54-38.68,16.99c-4.17,7.35-6.55,15.84-6.55,24.87c0,15.35,6.86,29.7,18.8,39.36
			c0.99,0.8,1.15,2.25,0.35,3.24c-0.46,0.56-1.12,0.85-1.79,0.85c-0.51,0-1.02-0.16-1.45-0.51c-13.03-10.54-20.51-26.19-20.51-42.94
			c0-2.51,0.16-4.99,0.49-7.44c-2.07,5.65-3.21,11.76-3.21,18.14c0,20.5,11.74,38.25,28.87,46.91l6.88-9.13
			c0.03-0.11,0.06-0.22,0.11-0.33c0.2-0.5,0.56-0.89,1-1.14l13.8-18.29c-1.57-1.83-2.52-4.13-2.68-6.56
			c-0.17-2.64,0.61-5.25,2.2-7.37l15.08-20c0.32-0.42,0.78-0.69,1.31-0.77c0.52-0.07,1.03,0.06,1.46,0.38
			c0.42,0.32,0.69,0.78,0.76,1.3c0.07,0.52-0.06,1.04-0.38,1.46l-9.98,13.24c1.93-0.11,3.87,0.29,5.59,1.17l8.51-11.29
			c0.33-0.43,0.79-0.7,1.31-0.77c0.52-0.08,1.04,0.06,1.46,0.38c0.87,0.65,1.04,1.88,0.39,2.75l-8.52,11.3
			c1.31,1.42,2.23,3.16,2.66,5.06l9.98-13.25c0.65-0.87,1.89-1.04,2.76-0.38c0.87,0.65,1.04,1.89,0.39,2.76l-15.08,20
			c-1.59,2.11-3.9,3.58-6.49,4.15c-2.37,0.52-4.85,0.24-7.03-0.78l-12.45,16.52c5.14,1.71,10.52,2.58,16.02,2.58
			c6.25,0,12.36-1.12,18.14-3.35c0.57-0.21,1.22-0.2,1.77,0.05l8.35,3.76c7.1-5.93,12.61-13.68,15.8-22.55
			c0.92-2.54,1.65-5.19,2.17-7.9c0.61-3.21,0.93-6.53,0.93-9.91C223.52,80.63,208.76,61.09,188.2,53.96z M176.36,148.13
			c-6.52,0-12.87-1.11-18.93-3.32l-5.8,7.68c5.99,2.38,12.52,3.68,19.35,3.68c10.92,0,21.05-3.33,29.45-9.02l-5.18-2.34
			C189.2,147.02,182.85,148.13,176.36,148.13z"/>
		<path class="st74" d="M224.78,119.46c4.44-8.09,6.79-17.25,6.79-26.53c0-18.32-9.06-35.41-24.25-45.71
			c-1.04-0.72-2.48-0.44-3.19,0.61s-0.44,2.48,0.61,3.19c13.92,9.45,22.23,25.12,22.23,41.91c0,7.12-1.51,14.16-4.38,20.61
			c-0.66,1.48-1.39,2.93-2.2,4.35c-0.25,0.44-0.35,0.95-0.28,1.47l0.31,2.08l4.67,31.75l-20.47-9.2c-1.33,1.12-2.74,2.17-4.19,3.16
			l26.59,11.97c0.31,0.13,0.63,0.2,0.95,0.2c0.49,0,0.98-0.16,1.39-0.46c0.67-0.52,1.01-1.34,0.89-2.18L224.78,119.46z
			 M137.43,163.63c-0.44,0.59-0.69,1.27-0.69,1.94c0,0.72,0.3,1.36,0.82,1.75c0.35,0.26,0.77,0.39,1.21,0.39
			c0.83,0,1.74-0.46,2.36-1.29l10.5-13.93c-1.47-0.58-2.92-1.23-4.33-1.95L137.43,163.63z M183.16,118.68
			c-1.15,1.53-2.82,2.51-4.71,2.77c-1.89,0.27-3.77-0.22-5.28-1.36c-1.52-1.15-2.51-2.82-2.77-4.71c-0.26-1.89,0.22-3.77,1.37-5.29
			c1.14-1.52,2.81-2.5,4.71-2.77c0.33-0.04,0.67-0.07,1.01-0.07c1.53,0,3.02,0.5,4.27,1.44c1.52,1.15,2.5,2.81,2.77,4.71
			C184.79,115.28,184.31,117.16,183.16,118.68z M209.51,25.69L188.2,53.96c-1.64-0.57-3.32-1.06-5.03-1.47l6.36-8.44
			c-4.27-1.14-8.69-1.73-13.17-1.73c-18.88,0-35.37,10.38-44.06,25.74c-4.6,5-8.25,10.91-10.65,17.41
			c0.65-4.82,1.93-9.52,3.84-14.03c2.78-6.58,6.76-12.48,11.83-17.55c5.07-5.07,10.97-9.05,17.55-11.83
			c6.81-2.88,14.04-4.34,21.49-4.34c5.5,0,10.92,0.81,16.13,2.4l13.11-17.38c0.81-1.08,2.35-1.29,3.43-0.48
			C210.11,23.08,210.33,24.61,209.51,25.69z"/>
	</g>
</g>
</svg>
