<?xml version="1.0" encoding="utf-8"?>
<!-- Generator: Adobe Illustrator 27.8.1, SVG Export Plug-In . SVG Version: 6.00 Build 0)  -->
<svg version="1.1" xmlns="http://www.w3.org/2000/svg" xmlns:xlink="http://www.w3.org/1999/xlink" x="0px" y="0px"
	 viewBox="0 0 350 230" style="enable-background:new 0 0 350 230;" xml:space="preserve">
<style type="text/css">
	.st0{fill:#191919;}
	.st1{fill:#FFFFFF;}
	.st2{fill:#FFCA55;}
	.st3{fill:#006865;}
	.st4{fill:#00AEB7;}
	.st5{fill:#EDC599;}
	.st6{fill:url(#SVGID_1_);}
	.st7{fill:#250B00;}
	.st8{fill:#FFDBD4;}
	.st9{fill:#231F20;}
	.st10{fill:#7F7F7F;}
	.st11{fill:#FFD468;}
	.st12{fill:#303030;}
	.st13{fill:#007D54;}
	.st14{fill:#EE3631;}
	.st15{fill:#2B2B2B;}
	.st16{fill:#FFB000;}
	.st17{opacity:0.35;fill:#FFFFFF;}
	.st18{fill:#E09C05;}
	.st19{fill:#A8112B;}
	.st20{fill:#FCB040;}
	.st21{fill:#3DA1D8;}
	.st22{fill:#0C8EBC;}
	.st23{fill:#EFC6A3;}
	.st24{fill:#B0DFFF;}
	.st25{fill-rule:evenodd;clip-rule:evenodd;fill:#FEFEFE;}
	.st26{fill:#006284;}
	.st27{fill:#5B5B5B;}
	.st28{display:none;fill:#3DA1D8;}
	.st29{font-family:'AdobeArabic-Regular';}
	.st30{font-size:40px;}
	.st31{fill:#EACAB0;}
	.st32{fill:#442B18;}
	.st33{fill:#663412;}
	.st34{fill:#C18B63;}
	.st35{fill:#3A1801;}
	.st36{fill:#616D0B;}
	.st37{fill:#98B11F;}
	.st38{fill:#606060;}
	.st39{fill:#E0E0E0;}
	.st40{fill-rule:evenodd;clip-rule:evenodd;fill:#FFE183;}
	.st41{fill-rule:evenodd;clip-rule:evenodd;fill:#FFA617;}
	.st42{fill:#FF6745;}
	.st43{fill-rule:evenodd;clip-rule:evenodd;fill:#63A642;}
	.st44{fill-rule:evenodd;clip-rule:evenodd;fill:#925056;}
	.st45{fill-rule:evenodd;clip-rule:evenodd;fill:#2C2F38;}
	.st46{fill:#A5A5A5;}
	.st47{fill:#FFEBB8;}
	.st48{fill:#FFA617;}
	.st49{fill:#AF121A;}
	.st50{fill:#C49718;}
	.st51{fill:#FFD961;}
	.st52{fill:#F93B00;}
	.st53{fill:#FFC02E;}
	.st54{fill:#FA6500;}
	.st55{fill:#9BB200;}
	.st56{fill:#FFF7D6;}
	.st57{fill:#3E9AFF;}
	.st58{fill:#3ED698;}
	.st59{fill:#0F935A;}
</style>
<g id="Layer_1">
</g>
<g id="Layer_2">
</g>
<g id="Layer_3">
</g>
<g id="Layer_4">
</g>
<g id="Layer_5">
</g>
<g id="Layer_6">
</g>
<g id="Layer_7">
	<g>
		<g>
			<path class="st21" d="M112.47,123.74c0-30.07,24.37-54.44,54.44-54.44s54.44,24.37,54.44,54.44H112.47z M222.44,126.07H111.39
				c-0.94,0-1.71,0.76-1.71,1.71v3.57c0,0.94,0.76,1.71,1.71,1.71h111.05c0.94,0,1.71-0.76,1.71-1.71v-3.57
				C224.15,126.83,223.38,126.07,222.44,126.07z"/>
			<path class="st22" d="M174.82,62.32c0,4.37-3.54,7.91-7.91,7.91c-4.37,0-7.91-3.54-7.91-7.91s3.54-7.91,7.91-7.91
				C171.28,54.41,174.82,57.95,174.82,62.32z"/>
			<path class="st23" d="M192.03,133.05c-1.52,1.96-3.87,3.4-5.34,5.47c-1.39,1.95-1.92,4.49-1.44,6.84c0.12,0.6,0.3,1.19,0.52,1.77
				c0.79,2-0.61,4.18-2.75,4.18h-5.71c-0.95,0-1.84-0.45-2.41-1.21c-1.36-1.85-2.88-3.69-4.99-4.37
				c-6.72-2.16-12.62-6.75-16.45-12.67h3.85c1.67,2.32,3.87,4.2,6.34,5.42c-2.06-1.43-3.74-3.31-4.94-5.42h3.36
				c1.66,2.32,3.86,4.2,6.33,5.42c-2.06-1.43-3.74-3.31-4.94-5.42h3.36c1.67,2.32,3.87,4.2,6.34,5.42
				c-2.06-1.43-3.74-3.31-4.94-5.42h4.24c1.25,2.36,3.44,4.28,5.94,5.1c1.38-0.09,2.6-0.95,3.56-1.94c0.97-0.99,1.76-2.14,2.78-3.07
				c0.03-0.03,0.06-0.06,0.1-0.09H192.03z"/>
			<path class="st24" d="M108.75,102.8c0.87-4.89,2.81-9.57,5.3-13.92c1.23-2.19,2.69-4.24,4.24-6.22c1.58-1.96,3.32-3.8,5.16-5.53
				c1.89-1.68,3.89-3.23,6-4.62c2.14-1.35,4.36-2.56,6.67-3.55c4.63-1.96,9.57-3.13,14.52-3.38c-4.75,1.4-9.31,3.12-13.58,5.35
				c-4.24,2.28-8.2,5.02-11.72,8.26c-1.78,1.6-3.44,3.34-5.01,5.15c-1.6,1.8-3.04,3.73-4.44,5.7
				C113.14,94.03,110.72,98.27,108.75,102.8z M219.78,87.95c-1.23-2.19-2.69-4.24-4.24-6.22c-1.58-1.96-3.32-3.8-5.16-5.53
				c-1.88-1.68-3.89-3.23-6-4.62c-2.14-1.35-4.36-2.56-6.67-3.55c-4.63-1.96-9.57-3.13-14.52-3.38c4.75,1.4,9.31,3.12,13.58,5.35
				c4.24,2.28,8.2,5.02,11.72,8.26c1.78,1.6,3.44,3.34,5.01,5.15c1.6,1.8,3.04,3.73,4.44,5.7c2.73,3.99,5.16,8.22,7.13,12.76
				C224.21,96.98,222.26,92.3,219.78,87.95z M141.79,40.28c-1.25-0.15-2.5-0.24-3.74-0.28c-0.04-1.25-0.13-2.5-0.28-3.74
				c-0.21-1.71-0.51-3.41-1.1-5.12c-0.58,1.7-0.88,3.41-1.1,5.12c-0.15,1.25-0.24,2.5-0.28,3.75c-1.25,0.04-2.5,0.13-3.74,0.28
				c-1.71,0.21-3.41,0.51-5.12,1.09c1.7,0.58,3.41,0.88,5.12,1.09c1.25,0.15,2.5,0.24,3.75,0.28c0.04,1.25,0.13,2.5,0.28,3.75
				c0.21,1.71,0.51,3.41,1.09,5.12c0.58-1.7,0.88-3.41,1.09-5.12c0.15-1.25,0.24-2.5,0.28-3.74c1.25-0.04,2.5-0.13,3.75-0.28
				c1.71-0.21,3.41-0.51,5.12-1.1C145.2,40.8,143.49,40.5,141.79,40.28z M154.47,51.08c-0.88-0.11-1.76-0.17-2.64-0.2
				c-0.03-0.88-0.09-1.76-0.2-2.64c-0.14-1.2-0.36-2.4-0.76-3.61c-0.41,1.2-0.62,2.4-0.77,3.61c-0.11,0.88-0.18,1.76-0.2,2.64
				c-0.88,0.02-1.76,0.09-2.64,0.2c-1.2,0.15-2.4,0.36-3.61,0.76c1.2,0.41,2.4,0.62,3.61,0.76c0.88,0.12,1.76,0.18,2.64,0.2
				c0.03,0.88,0.09,1.76,0.2,2.64c0.15,1.2,0.36,2.4,0.76,3.61c0.41-1.2,0.62-2.4,0.76-3.61c0.11-0.88,0.18-1.76,0.2-2.64
				c0.88-0.02,1.76-0.08,2.64-0.2c1.2-0.15,2.4-0.36,3.61-0.77C156.87,51.44,155.67,51.22,154.47,51.08z"/>
			<path class="st1" d="M121.78,113.04c0.28-4.76,1.8-9.41,3.89-13.74c2.13-4.33,5.01-8.32,8.48-11.73
				c3.46-3.42,7.55-6.2,11.93-8.22c4.41-1.97,9.1-3.23,13.85-3.53c-4.39,1.82-8.58,3.76-12.48,6.12c-3.89,2.38-7.48,5.13-10.69,8.29
				c-3.21,3.16-6.07,6.68-8.55,10.52c-1.24,1.92-2.43,3.89-3.48,5.95C123.65,108.73,122.67,110.84,121.78,113.04z M163.66,62.72
				c0.23-0.72,0.42-1.4,0.64-1.99c0.22-0.6,0.41-1.12,0.7-1.68c0.3-0.56,0.77-1.09,1.45-1.85c-0.89-0.39-2-0.34-2.92,0.21
				c-0.91,0.55-1.56,1.47-1.88,2.41c-0.33,0.95-0.35,1.91-0.18,2.81c0.19,0.9,0.54,1.76,1.26,2.47
				C163.15,64.22,163.42,63.45,163.66,62.72z"/>
			<path class="st25" d="M178.4,120.39h-22.65c-0.42,0-0.76-0.34-0.76-0.76v-0.28c0-0.42,0.34-0.76,0.76-0.76h22.65
				c0.42,0,0.76,0.34,0.76,0.76v0.28C179.16,120.05,178.82,120.39,178.4,120.39z M185.91,96.54c0,2.58-1.38,4.86-3.48,6.26l-3,12.99
				c-0.14,0.63-0.7,1.07-1.35,1.07H156c-0.66,0-1.23-0.47-1.36-1.12l-2.37-12.42c-2.59-1.31-4.35-3.85-4.35-6.77
				c0-4.25,3.73-7.7,8.33-7.7c1.12,0,2.18,0.21,3.16,0.58c0.91-3.35,4.17-5.83,8.07-5.83c3.78,0,6.96,2.33,7.98,5.51
				c0.68-0.17,1.39-0.26,2.12-0.26C182.18,88.83,185.91,92.28,185.91,96.54z"/>
			<path class="st26" d="M178.4,120.56h-22.65c-0.51,0-0.93-0.42-0.93-0.93v-0.28c0-0.51,0.42-0.93,0.93-0.93h22.65
				c0.51,0,0.93,0.42,0.93,0.93v0.28C179.33,120.14,178.91,120.56,178.4,120.56z M155.75,118.76c-0.33,0-0.59,0.26-0.59,0.59v0.28
				c0,0.33,0.26,0.59,0.59,0.59h22.65c0.33,0,0.59-0.26,0.59-0.59v-0.28c0-0.33-0.26-0.59-0.59-0.59H155.75z M178.09,117.02H156
				c-0.74,0-1.38-0.53-1.52-1.26l-2.36-12.34c-2.7-1.39-4.37-4.02-4.37-6.88c0-4.34,3.81-7.87,8.5-7.87c1.05,0,2.07,0.18,3.05,0.52
				c1.02-3.41,4.35-5.78,8.18-5.78c3.68,0,6.98,2.25,8.09,5.48c0.68-0.15,1.35-0.23,2.01-0.23c4.69,0,8.5,3.53,8.5,7.87
				c0,2.5-1.31,4.88-3.5,6.36l-2.98,12.92C179.44,116.52,178.81,117.02,178.09,117.02z M156.25,89c-4.5,0-8.16,3.38-8.16,7.53
				c0,2.76,1.63,5.29,4.25,6.62l0.08,0.04l0.02,0.08l2.37,12.42c0.11,0.57,0.61,0.98,1.19,0.98h22.09c0.57,0,1.05-0.39,1.18-0.94
				l3.01-13.05l0.06-0.04c2.13-1.42,3.4-3.7,3.4-6.11c0-4.15-3.66-7.53-8.16-7.53c-0.68,0-1.38,0.09-2.08,0.26l-0.15,0.04
				l-0.05-0.15c-1.02-3.18-4.23-5.4-7.82-5.4c-3.74,0-6.99,2.35-7.9,5.7l-0.05,0.18l-0.18-0.07C158.35,89.19,157.31,89,156.25,89z"
				/>
			<path class="st27" d="M178.68,99.35c-1.45,1.22-2.74,1.28-2.74,1.28l-1.25,14.31c-0.03,0.33-0.28,0.59-0.66,0.55
				c-0.38-0.03-0.59-0.32-0.56-0.66l1.25-14.31c0,0-1.26-0.29-2.48-1.74c-1.22-1.45-0.23-5,0.53-6.02c0.35-0.48,0.77-0.91,1.29-1.19
				c0.62-0.34,1.52-0.5,2.1-0.45c0.58,0.05,1.44,0.36,1.99,0.8c0.46,0.37,0.8,0.87,1.06,1.4C179.77,94.46,180.13,98.13,178.68,99.35
				z M159.73,91.41c-0.43,0.04-0.74,0.44-0.7,0.89l0.45,5.14c0.02,0.24-0.15,0.45-0.39,0.47c-0.24,0.02-0.45-0.16-0.47-0.39
				l-0.49-5.64c-0.04-0.45-0.44-0.79-0.89-0.75c-0.45,0.04-0.79,0.44-0.75,0.89l0.5,5.64c0.02,0.24-0.15,0.45-0.39,0.47
				c-0.24,0.02-0.45-0.16-0.47-0.39l-0.45-5.14c-0.04-0.45-0.42-0.79-0.84-0.75c-0.43,0.04-0.74,0.44-0.7,0.89l0.58,6.62
				c0.06,0.72,2.74,1.29,2.74,1.29l1.25,14.31c0.03,0.33,0.32,0.58,0.66,0.55l0.01,0c0.33-0.03,0.58-0.32,0.55-0.66l-1.25-14.31
				c0,0,2.54-1.02,2.48-1.74l-0.58-6.62C160.53,91.71,160.15,91.37,159.73,91.41z M167.32,90.29c-0.45,0-0.82,0.36-0.82,0.81
				c-0.51,1.89-1.69,8.82-2.01,11.79c-0.06,0.57-0.16,1.43,0.29,1.62c0.38,0.16,1.91,0.15,1.93,0.15v9.48
				c0,0.34,0.27,0.61,0.61,0.61h0.01c0.34,0,0.61-0.27,0.61-0.61V91.11C167.93,90.66,167.77,90.29,167.32,90.29z"/>
		</g>
		<text transform="matrix(1 0 0 1 22.2657 176.9413)" class="st28 st29 st30">RESTAURANT &amp; FOOD</text>
	</g>
</g>
<g id="Layer_8">
</g>
<g id="Layer_9">
</g>
<g id="Layer_10">
</g>
<g id="Layer_11">
</g>
<g id="Layer_12">
</g>
<g id="Layer_13">
</g>
<g id="Layer_14">
</g>
<g id="Layer_15">
</g>
</svg>
