<?xml version="1.0" encoding="utf-8"?>
<!-- Generator: Adobe Illustrator 27.8.1, SVG Export Plug-In . SVG Version: 6.00 Build 0)  -->
<svg version="1.1" xmlns="http://www.w3.org/2000/svg" xmlns:xlink="http://www.w3.org/1999/xlink" x="0px" y="0px"
	 viewBox="0 0 350 230.71" style="enable-background:new 0 0 350 230.71;" xml:space="preserve">
<style type="text/css">
	.st0{fill:#191919;}
	.st1{fill:#FFFFFF;}
	.st2{fill:#FFCA55;}
	.st3{fill:#006865;}
	.st4{fill:#00AEB7;}
	.st5{fill:#EDC599;}
	.st6{fill:url(#SVGID_1_);}
	.st7{fill:#250B00;}
	.st8{fill:#FFDBD4;}
	.st9{fill:#231F20;}
	.st10{fill:#7F7F7F;}
	.st11{fill:#FFD468;}
	.st12{fill:#303030;}
	.st13{fill:#007D54;}
	.st14{fill:#EE3631;}
	.st15{fill:#2B2B2B;}
	.st16{fill:#FFB000;}
	.st17{opacity:0.35;fill:#FFFFFF;}
	.st18{fill:#E09C05;}
	.st19{fill:#A8112B;}
	.st20{fill:#FCB040;}
	.st21{fill:#3DA1D8;}
	.st22{fill:#0C8EBC;}
	.st23{fill:#EFC6A3;}
	.st24{fill:#B0DFFF;}
	.st25{fill-rule:evenodd;clip-rule:evenodd;fill:#FEFEFE;}
	.st26{fill:#006284;}
	.st27{fill:#5B5B5B;}
	.st28{fill:#EACAB0;}
	.st29{fill:#442B18;}
	.st30{fill:#663412;}
	.st31{fill:#C18B63;}
	.st32{fill:#3A1801;}
	.st33{fill:#616D0B;}
	.st34{fill:#98B11F;}
	.st35{fill:#606060;}
	.st36{fill:#E0E0E0;}
	.st37{fill-rule:evenodd;clip-rule:evenodd;fill:#FFE183;}
	.st38{fill-rule:evenodd;clip-rule:evenodd;fill:#FFA617;}
	.st39{fill:#FF6745;}
	.st40{fill-rule:evenodd;clip-rule:evenodd;fill:#63A642;}
	.st41{fill-rule:evenodd;clip-rule:evenodd;fill:#925056;}
	.st42{fill-rule:evenodd;clip-rule:evenodd;fill:#2C2F38;}
	.st43{fill:#A5A5A5;}
	.st44{fill:#FFEBB8;}
	.st45{fill:#FFA617;}
	.st46{fill:#AF121A;}
	.st47{fill:#C49718;}
	.st48{fill:#FFD961;}
	.st49{fill:#F93B00;}
	.st50{fill:#FFC02E;}
	.st51{fill:#FA6500;}
	.st52{fill:#9BB200;}
	.st53{fill:#FFF7D6;}
	.st54{fill:#3E9AFF;}
	.st55{fill:#3ED698;}
	.st56{fill:#0F935A;}
	.st57{fill:#ED1C24;}
	.st58{fill:#F68712;}
	.st59{fill:#5B0000;}
	.st60{fill-rule:evenodd;clip-rule:evenodd;fill:#FB6218;}
	.st61{fill:#795B4B;}
	.st62{fill:#513D35;}
	.st63{fill:#661F00;}
	.st64{fill:#3F0000;}
	.st65{fill-rule:evenodd;clip-rule:evenodd;fill:#FFFFFF;}
	.st66{fill:#FFC92F;}
	.st67{fill:#3D1109;}
	.st68{fill:#424241;}
	.st69{fill:none;stroke:#FFDE59;stroke-width:4;}
	.st70{fill:#FFDE59;}
	.st71{fill-rule:evenodd;clip-rule:evenodd;fill:#333231;}
	.st72{fill-rule:evenodd;clip-rule:evenodd;}
	.st73{fill:#FF6D00;}
	.st74{fill:#040507;}
	.st75{fill:#4D433A;}
	.st76{fill:#FF8B00;}
	.st77{filter:url(#Adobe_OpacityMaskFilter);}
	.st78{fill-opacity:0.3;}
	.st79{mask:url(#_x35_0ea534a37_00000039117605408314366780000006090329138646347946_);fill:#EBB22F;}
	.st80{fill:#F39200;}
	.st81{fill:#1D1D1B;}
	.st82{fill:#201F1F;}
</style>
<g id="Layer_1">
</g>
<g id="Layer_2">
</g>
<g id="Layer_3">
</g>
<g id="Layer_4">
</g>
<g id="Layer_5">
</g>
<g id="Layer_6">
</g>
<g id="Layer_7">
</g>
<g id="Layer_8">
</g>
<g id="Layer_9">
</g>
<g id="Layer_10">
</g>
<g id="Layer_11">
</g>
<g id="Layer_12">
</g>
<g id="Layer_13">
</g>
<g id="Layer_14">
</g>
<g id="Layer_15">
	<g>
		<path d="M180.67,77.41c2.11-1.69,3.46-4.3,3.46-7.21c0-5.1-4.14-9.24-9.25-9.24c-5.1,0-9.24,4.14-9.24,9.24
			c0,2.92,1.35,5.52,3.46,7.21c-23.17,2.66-41.54,21.1-44.09,44.31h10.51c2.7-19.33,19.29-34.21,39.36-34.21
			c20.07,0,36.67,14.88,39.36,34.21h10.51C222.21,98.51,203.84,80.07,180.67,77.41"/>
		<path class="st57" d="M165.27,104.45c-0.81,0.07-2.45,25.01-2.45,25.01c-0.11,1.98-1.56,3.69-3.52,3.95
			c-2.41,0.32-4.5-1.47-4.62-3.81c0,0-1.65-25.07-2.46-25.14c-0.88-0.08-4.16,25.72-4.16,25.72c-0.36,3.68,1.66,7.01,4.76,8.52
			c2.22,1.09,3.59,3.37,3.45,5.84l-0.68,12.58c2.04,1.32,4.22,2.44,6.51,3.33l-0.86-15.92c-0.15-2.47,1.23-4.75,3.45-5.84
			c3.09-1.51,5.11-4.83,4.75-8.52C169.43,130.18,166.15,104.37,165.27,104.45z M196.55,129.33c-0.03,0.78-0.69,1.39-1.48,1.34h-0.03
			c-0.75-0.05-1.33-0.68-1.31-1.43c0.15-5.96,0.3-11.93,0.45-17.9c0.02-0.86,0.75-1.53,1.61-1.48l0.03,0.01
			c0.82,0.05,1.46,0.75,1.43,1.57C197.02,117.4,196.79,123.37,196.55,129.33z M189.98,129.09c-0.01,0.77-0.63,1.39-1.4,1.39h-0.03
			c-0.77,0-1.39-0.62-1.4-1.39c-0.04-5.97-0.08-11.94-0.12-17.92c-0.01-0.84,0.67-1.53,1.52-1.53h0.03c0.84,0,1.53,0.68,1.52,1.53
			C190.06,117.15,190.02,123.12,189.98,129.09z M182.09,130.67h-0.03c-0.78,0.05-1.45-0.56-1.48-1.34
			c-0.23-5.96-0.47-11.93-0.7-17.89c-0.03-0.82,0.6-1.53,1.43-1.57c0.01-0.01,0.02-0.01,0.03-0.01c0.86-0.05,1.59,0.62,1.61,1.48
			c0.15,5.97,0.3,11.93,0.45,17.9C183.42,129.99,182.84,130.62,182.09,130.67z M175.39,104.71c0.48,8.3,0.96,16.6,1.43,24.91
			c0.22,3.75,2.36,6.83,5.31,8.65c2.85,1.76,4.35,5.03,4.13,8.38c-0.31,4.86-0.59,9.72-0.84,14.59c2.14-0.67,4.2-1.54,6.16-2.58
			c-0.22-4.01-0.45-8.01-0.7-12.01c-0.22-3.35,1.28-6.61,4.13-8.38c2.95-1.82,5.08-4.9,5.31-8.65c0.47-8.31,0.95-16.61,1.43-24.91
			C192.97,103.77,184.16,103.77,175.39,104.71"/>
		<path class="st58" d="M250.79,66.62c0,0-15.37,3.33-14.97,22.51c0.41,19.17-9.18,20.65-9.18,20.65
			c7.63-8.44-0.49-13.51,1.19-26.03C230.52,63.86,250.79,66.62,250.79,66.62 M106.31,96.58c-0.65-9.27-3.71-13.89-6.74-16.18
			c8.65,0.9,13.92,6.96,13.59,13.79c-0.53,10.66-2.53,16.81,2.53,23.57C115.69,117.77,107.45,112.74,106.31,96.58 M123.64,42.99
			c4.73-7.99,4.84-13.53,3.64-17.15c13.35,21.64-8.28,31.47-7.95,39.91C119.32,65.75,115.4,56.93,123.64,42.99 M126.8,103.96
			c2.59-5.33,6.03-10.17,10.22-14.39c4.2-4.21,9.02-7.68,14.34-10.29c3.84-1.89,7.86-3.29,12.02-4.2c-0.65-1.53-0.98-3.18-0.98-4.89
			c0-6.89,5.6-12.49,12.48-12.49c6.89,0,12.49,5.6,12.49,12.49c0,1.71-0.34,3.36-0.99,4.89c4.16,0.91,8.18,2.32,12.02,4.2
			c5.32,2.61,10.15,6.07,14.34,10.29c2.31,2.32,4.4,4.84,6.23,7.52c-1.24-6.73-2-15.01,0.33-19.2c4.57-8.22,6.24-20.42,1.53-27.45
			c-3.1,6.92-7.88,11.33-11.25,10.1c-3.73-1.36-4.84-9.32-1.33-17.31c5.77-13.15-12.73-19.87,4.81-32.12c0,0-32.19,3.6-30.07,24.98
			c2.38,24.01-25.29,16.14-13.82-4.11c-11.01,4.36-13.89,9.88-10.61,24.9c3.36,15.46-10.58,17.12-16.47,8.87
			c-6.34-8.89,0.07-21.83,0.07-21.83c-21.32,23.06-26.04,49.41-19.05,70.17C123.98,110.61,125.22,107.22,126.8,103.96"/>
		<path class="st57" d="M214.25,132.79c-2.7,19.33-19.29,34.21-39.36,34.21c-20.07,0-36.66-14.88-39.36-34.21h-10.51
			c2.76,25.11,24.03,44.64,49.87,44.64c25.84,0,47.12-19.53,49.88-44.64H214.25"/>
	</g>
</g>
</svg>
