<?xml version="1.0" encoding="utf-8"?>
<!-- Generator: Adobe Illustrator 27.8.1, SVG Export Plug-In . SVG Version: 6.00 Build 0)  -->
<svg version="1.1" xmlns="http://www.w3.org/2000/svg" xmlns:xlink="http://www.w3.org/1999/xlink" x="0px" y="0px"
	 viewBox="0 0 350 230.71" style="enable-background:new 0 0 350 230.71;" xml:space="preserve">
<style type="text/css">
	.st0{fill:#191919;}
	.st1{fill:#FFFFFF;}
	.st2{fill:#FFCA55;}
	.st3{fill:#006865;}
	.st4{fill:#00AEB7;}
	.st5{fill:#EDC599;}
	.st6{fill:url(#SVGID_1_);}
	.st7{fill:#250B00;}
	.st8{fill:#FFDBD4;}
	.st9{fill:#231F20;}
	.st10{fill:#7F7F7F;}
	.st11{fill:#FFD468;}
	.st12{fill:#303030;}
	.st13{fill:#007D54;}
	.st14{fill:#EE3631;}
	.st15{fill:#2B2B2B;}
	.st16{fill:#FFB000;}
	.st17{opacity:0.35;fill:#FFFFFF;}
	.st18{fill:#E09C05;}
	.st19{fill:#A8112B;}
	.st20{fill:#FCB040;}
	.st21{fill:#3DA1D8;}
	.st22{fill:#0C8EBC;}
	.st23{fill:#EFC6A3;}
	.st24{fill:#B0DFFF;}
	.st25{fill-rule:evenodd;clip-rule:evenodd;fill:#FEFEFE;}
	.st26{fill:#006284;}
	.st27{fill:#5B5B5B;}
	.st28{fill:#EACAB0;}
	.st29{fill:#442B18;}
	.st30{fill:#663412;}
	.st31{fill:#C18B63;}
	.st32{fill:#3A1801;}
	.st33{fill:#616D0B;}
	.st34{fill:#98B11F;}
	.st35{fill:#606060;}
	.st36{fill:#E0E0E0;}
	.st37{fill-rule:evenodd;clip-rule:evenodd;fill:#FFE183;}
	.st38{fill-rule:evenodd;clip-rule:evenodd;fill:#FFA617;}
	.st39{fill:#FF6745;}
	.st40{fill-rule:evenodd;clip-rule:evenodd;fill:#63A642;}
	.st41{fill-rule:evenodd;clip-rule:evenodd;fill:#925056;}
	.st42{fill-rule:evenodd;clip-rule:evenodd;fill:#2C2F38;}
	.st43{fill:#A5A5A5;}
	.st44{fill:#FFEBB8;}
	.st45{fill:#FFA617;}
	.st46{fill:#AF121A;}
	.st47{fill:#C49718;}
	.st48{fill:#FFD961;}
	.st49{fill:#F93B00;}
	.st50{fill:#FFC02E;}
	.st51{fill:#FA6500;}
	.st52{fill:#9BB200;}
	.st53{fill:#FFF7D6;}
	.st54{fill:#3E9AFF;}
	.st55{fill:#3ED698;}
	.st56{fill:#0F935A;}
	.st57{fill:#ED1C24;}
	.st58{fill:#F68712;}
	.st59{fill:#5B0000;}
	.st60{fill-rule:evenodd;clip-rule:evenodd;fill:#FB6218;}
	.st61{fill:#795B4B;}
	.st62{fill:#513D35;}
	.st63{fill:#661F00;}
	.st64{fill:#3F0000;}
	.st65{fill-rule:evenodd;clip-rule:evenodd;fill:#FFFFFF;}
	.st66{fill:#FFC92F;}
	.st67{fill:#3D1109;}
	.st68{fill:#424241;}
	.st69{fill:none;stroke:#FFDE59;stroke-width:4;}
	.st70{fill:#FFDE59;}
	.st71{fill-rule:evenodd;clip-rule:evenodd;fill:#333231;}
	.st72{fill-rule:evenodd;clip-rule:evenodd;}
	.st73{fill:#FF6D00;}
	.st74{fill:#040507;}
	.st75{fill:#4D433A;}
	.st76{fill:#FF8B00;}
	.st77{filter:url(#Adobe_OpacityMaskFilter);}
	.st78{fill-opacity:0.3;}
	.st79{mask:url(#_x35_0ea534a37_00000039117605408314366780000006090329138646347946_);fill:#EBB22F;}
	.st80{fill:#F39200;}
	.st81{fill:#1D1D1B;}
	.st82{fill:#201F1F;}
</style>
<g id="Layer_1">
</g>
<g id="Layer_2">
</g>
<g id="Layer_3">
</g>
<g id="Layer_4">
</g>
<g id="Layer_5">
</g>
<g id="Layer_6">
</g>
<g id="Layer_7">
</g>
<g id="Layer_8">
</g>
<g id="Layer_9">
</g>
<g id="Layer_10">
</g>
<g id="Layer_11">
</g>
<g id="Layer_12">
</g>
<g id="Layer_13">
</g>
<g id="Layer_14">
</g>
<g id="Layer_15">
	<g>
		<path d="M209.68,135.58l0-0.05c-0.03-0.14,0.01-0.12-0.14-0.62c-0.06-0.19-0.14-0.38-0.23-0.56c-0.08-0.16-0.14-0.22-0.21-0.34
			c-0.07-0.1-0.14-0.2-0.22-0.3c-0.08-0.1-0.14-0.15-0.22-0.23c-0.14-0.14-0.3-0.31-0.43-0.4l-0.41-0.32l-0.4-0.25
			c-0.53-0.33-1.03-0.56-1.53-0.77c-0.99-0.41-1.94-0.7-2.88-0.95c-0.94-0.26-1.88-0.46-2.8-0.63c-1.85-0.35-3.67-0.62-5.46-0.81
			c-3.57-0.4-7.03-0.57-10.29-0.64c-3.27-0.06-6.35,0.01-9.2,0.16c-2.84,0.12-5.44,0.34-7.73,0.59c-2.3,0.23-4.29,0.52-5.93,0.79
			c-1.63,0.26-2.91,0.52-3.78,0.7c-0.87,0.19-1.33,0.3-1.33,0.3l0.03,0.18c0,0,0.47-0.02,1.35-0.06c0.88-0.05,2.18-0.07,3.82-0.12
			c1.64-0.04,3.64-0.04,5.92-0.03c1.14,0.01,2.35,0.03,3.63,0.07c1.28,0.03,2.61,0.06,4.02,0.13c1.4,0.06,2.85,0.14,4.36,0.24
			c1.51,0.09,3.06,0.2,4.65,0.33c3.19,0.26,6.54,0.62,9.96,1.15c1.71,0.27,3.43,0.56,5.14,0.95c0.85,0.19,1.69,0.41,2.52,0.65
			c0.83,0.24,1.63,0.51,2.35,0.82c0.24,0.11,0.48,0.23,0.69,0.34c-0.49,0.27-1.12,0.52-1.76,0.73c-0.41,0.14-0.77,0.24-1.25,0.38
			l-1.28,0.33c-1.74,0.41-3.54,0.74-5.34,1.01c-1.81,0.28-3.63,0.5-5.44,0.68c-3.62,0.37-7.22,0.6-10.7,0.74
			c-3.5,0.14-6.86,0.2-10.07,0.18c-3.2-0.03-6.23-0.1-9.02-0.28c-2.79-0.19-5.34-0.41-7.58-0.73c-2.23-0.33-4.17-0.71-5.67-1.23
			c-0.74-0.27-1.39-0.56-1.85-0.92c-0.1-0.1-0.23-0.17-0.29-0.27c-0.04-0.05-0.08-0.1-0.12-0.14c-0.02-0.04-0.05-0.08-0.07-0.13
			c-0.06-0.06-0.08-0.22-0.11-0.33c-0.02-0.05-0.01-0.18,0.01-0.26c0.08-0.37,0.31-0.62,0.45-0.79c0.15-0.16,0.24-0.24,0.24-0.24
			l-0.11-0.14c0,0-0.1,0.06-0.29,0.21c-0.18,0.15-0.49,0.36-0.68,0.85c-0.04,0.13-0.08,0.24-0.07,0.43
			c0.02,0.13-0.01,0.24,0.06,0.42c0.03,0.08,0.06,0.17,0.09,0.25c0.04,0.07,0.08,0.14,0.13,0.22c0.08,0.16,0.21,0.27,0.32,0.41
			c0.48,0.52,1.15,0.94,1.91,1.32c1.53,0.77,3.47,1.44,5.72,2.02c2.26,0.57,4.83,1.11,7.65,1.51c2.82,0.42,5.9,0.78,9.15,1.01
			c3.25,0.24,6.71,0.38,10.26,0.38c1.79,0.01,3.6-0.02,5.44-0.09c1.83-0.06,3.7-0.16,5.57-0.32c3.75-0.3,7.56-0.77,11.4-1.66
			c0.49-0.12,0.95-0.24,1.45-0.37c0.43-0.12,0.97-0.29,1.45-0.45c0.49-0.17,0.98-0.35,1.48-0.57c0.5-0.22,1.01-0.47,1.55-0.82
			c0.27-0.18,0.54-0.38,0.83-0.64c0.14-0.11,0.3-0.29,0.43-0.44c0.15-0.19,0.29-0.37,0.43-0.61c0.06-0.13,0.13-0.25,0.19-0.38
			c0.06-0.14,0.11-0.3,0.15-0.45c0.05-0.14,0.07-0.32,0.08-0.49l0.02-0.26C209.71,135.95,209.67,135.34,209.68,135.58 M229.58,90.63
			l-0.05,1.23l-0.03,0.61l-0.01,0.31c0,0.03-0.01,0.07-0.01,0.1c-0.07,0.36-0.12,0.73-0.17,1.09l-0.06,0.48
			c-0.01,0.16-0.05,0.32-0.09,0.49c-0.08,0.33-0.16,0.67-0.24,1c-0.08,0.34-0.13,0.68-0.26,1c-0.11,0.33-0.22,0.65-0.33,0.97
			c-0.11,0.33-0.2,0.65-0.35,0.96c-0.14,0.32-0.27,0.62-0.41,0.93c-0.14,0.31-0.26,0.63-0.44,0.92c-1.24,2.39-2.89,4.49-4.75,6.21
			c-1.85,1.74-3.92,3.03-5.98,3.98c-0.26,0.12-0.51,0.24-0.77,0.36c-0.26,0.11-0.51,0.19-0.77,0.29c-0.51,0.18-1.01,0.39-1.51,0.54
			c-1.02,0.24-1.99,0.57-2.93,0.67c-0.23,0.04-0.47,0.08-0.7,0.12c0.08-0.27,0.17-0.54,0.26-0.8c0.16-0.47,0.32-0.94,0.49-1.41
			c0.11-0.29,0.22-0.59,0.33-0.86c0.14-0.1,0.29-0.2,0.44-0.3c0.63-0.45,1.21-0.94,1.75-1.45c0.53-0.52,1-1.05,1.42-1.61
			c0.82-1.12,1.38-2.3,1.61-3.42c0.03-0.14,0.05-0.27,0.08-0.41c0.01-0.14,0.03-0.27,0.05-0.4c0.04-0.26,0.03-0.54,0.04-0.78
			c0-0.25-0.03-0.44-0.04-0.65c-0.02-0.26-0.05-0.44-0.09-0.64c-0.16-0.78-0.41-1.34-0.59-1.7c-0.09-0.19-0.18-0.32-0.23-0.41
			c-0.05-0.08-0.08-0.13-0.08-0.13l-0.33,0.13c0,0,0.05,0.21,0.11,0.58c0.07,0.37,0.13,0.92,0.09,1.6
			c-0.01,0.16-0.03,0.37-0.06,0.51c-0.03,0.19-0.06,0.42-0.11,0.61c-0.1,0.35-0.22,0.77-0.42,1.18c-0.19,0.41-0.43,0.83-0.73,1.23
			c-0.29,0.41-0.66,0.81-1.05,1.2c-0.8,0.78-1.81,1.5-2.96,2.14c-0.37,0.19-0.74,0.39-1.13,0.57c-0.23,0.11-0.46,0.22-0.7,0.31
			c-0.21,0.09-0.42,0.18-0.63,0.26c-0.45,0.18-0.91,0.34-1.38,0.49c-1.39,0.46-2.87,0.81-4.39,1.07c-0.76,0.13-1.54,0.24-2.31,0.32
			c-0.4,0.03-0.78,0.08-1.18,0.1c-0.4,0.03-0.79,0.06-1.18,0.07c-0.4,0.03-0.8,0.03-1.19,0.03l-0.12,0l-0.16,0h-0.31l-0.62-0.01
			c-0.76-0.01-1.55-0.04-2.33-0.11c-1.55-0.11-3.07-0.34-4.51-0.65c-0.72-0.16-1.42-0.33-2.11-0.53c-0.68-0.21-1.34-0.42-1.97-0.66
			c-1.26-0.47-2.4-1.04-3.39-1.65c-0.99-0.61-1.81-1.29-2.47-1.97s-1.11-1.37-1.42-1.98c-0.31-0.61-0.46-1.14-0.56-1.51
			c-0.08-0.37-0.11-0.57-0.11-0.57h-0.36c0,0-0.03,0.21-0.06,0.62c0,0.4-0.02,1.02,0.16,1.79c0.18,0.76,0.51,1.67,1.1,2.6
			c0.49,0.79,1.15,1.59,1.95,2.35c-0.96-0.08-1.93-0.14-2.9-0.17c-1.83-0.06-3.67-0.04-5.51,0.05c-0.41,0.02-0.81,0.04-1.22,0.08
			c-0.01-0.01-0.02,0-0.03,0h-0.02c-0.17,0-0.38,0.01-0.62,0.02c-0.37,0.02-0.8,0-1.3-0.01c-0.51,0.01-1.07-0.03-1.69-0.08
			c-0.31-0.02-0.63-0.05-0.95-0.1c-0.33-0.05-0.68-0.08-1.02-0.14c-0.35-0.06-0.71-0.13-1.07-0.2c-0.35-0.08-0.72-0.18-1.1-0.26
			c-0.03-0.01-0.08-0.02-0.11-0.03c-0.34-0.09-0.67-0.2-1.01-0.3c-0.07-0.03-0.15-0.05-0.23-0.08c-0.3-0.1-0.6-0.22-0.91-0.33
			c-0.38-0.15-0.75-0.33-1.13-0.48c-0.36-0.19-0.74-0.37-1.1-0.57c-0.72-0.41-1.43-0.85-2.09-1.36c-0.67-0.49-1.28-1.03-1.85-1.6
			c-0.57-0.55-1.08-1.15-1.55-1.72c-0.45-0.59-0.86-1.17-1.21-1.72c-0.69-1.12-1.16-2.12-1.45-2.84c-0.29-0.72-0.4-1.14-0.4-1.14
			c-0.03-0.12-0.14-0.21-0.27-0.2c-0.15,0.01-0.26,0.13-0.26,0.28l0,0.01c0,0,0.02,0.47,0.17,1.27c0.14,0.8,0.41,1.93,0.9,3.25
			c0.24,0.66,0.54,1.36,0.91,2.1c0.38,0.72,0.79,1.48,1.3,2.22c0.51,0.75,1.07,1.5,1.71,2.22c0.63,0.72,1.34,1.39,2.08,2.05
			c0.37,0.32,0.77,0.62,1.15,0.92c0.38,0.27,0.75,0.54,1.13,0.8c-0.14,0.04-0.29,0.07-0.43,0.11c-0.89,0.25-1.79,0.48-2.67,0.76
			c-0.89,0.28-1.78,0.55-2.65,0.86c-0.88,0.29-1.74,0.63-2.61,0.96c-0.69,0.25-1.35,0.54-2.02,0.83c-0.17-0.07-0.34-0.14-0.51-0.21
			l-0.83-0.42c-0.57-0.26-1.09-0.63-1.64-0.94c-1.05-0.72-2.1-1.5-3.02-2.42c-0.94-0.89-1.79-1.89-2.55-2.92
			c-0.78-1.02-1.42-2.1-2.02-3.14c-0.57-1.06-1.08-2.09-1.48-3.08c-0.84-1.96-1.34-3.7-1.67-4.92c-0.31-1.23-0.43-1.94-0.43-1.94
			c-0.01-0.12-0.11-0.21-0.24-0.22c-0.14-0.01-0.28,0.1-0.29,0.25v0c0,0-0.06,0.75-0.03,2.04c0.03,1.3,0.13,3.17,0.51,5.4
			c0.18,1.12,0.46,2.33,0.8,3.6c0.37,1.26,0.8,2.6,1.4,3.95c0.58,1.34,1.27,2.72,2.14,4.05c0.83,1.35,1.87,2.63,2.99,3.85
			c0.59,0.57,1.16,1.2,1.81,1.72l0.96,0.81c0.05,0.03,0.1,0.06,0.15,0.11c-0.03-0.01-0.06-0.02-0.1-0.03
			c-2.01-0.64-4.38-1.61-6.84-3.12c-2.47-1.48-5-3.53-7.28-6.14c-2.27-2.61-4.26-5.82-5.56-9.48c-0.65-1.83-1.14-3.75-1.42-5.75
			l-0.1-0.75l-0.07-0.77l-0.06-0.75l-0.02-0.77c-0.03-0.51-0.02-1.03-0.02-1.55l0.01-0.39v-0.06l0-0.06l0.01-0.21l0.05-0.87
			c0.15-1.98,0.57-4.03,1.24-6.01c0.67-1.98,1.62-3.88,2.77-5.69c2.34-3.59,5.61-6.68,9.39-8.94c3.78-2.26,8.05-3.71,12.34-4.12
			l0.8-0.08l0.8-0.03c0.53-0.04,1.07-0.02,1.6-0.02h0.3c0,0-0.02-0.01-0.02-0.01l0.07,0.01c0,0,0,0,0,0l0.38,0.03l0.9,0.06
			c0.65,0.02,1.08,0.11,1.58,0.16c0.24,0.04,0.48,0.05,0.73,0.1l0.78,0.15l0.78,0.14l0.77,0.19c0.51,0.13,1.03,0.25,1.54,0.42
			c0.51,0.16,1.02,0.29,1.52,0.49c2.02,0.68,3.99,1.54,5.91,2.49c1.93,0.94,3.81,1.96,5.67,2.99c1.86,1.01,3.69,2.03,5.52,2.97
			c1.83,0.94,3.65,1.82,5.45,2.57c1.82,0.73,3.62,1.34,5.36,1.79c0.45,0.11,0.89,0.19,1.31,0.29c0.22,0.04,0.44,0.08,0.65,0.13
			c0.22,0.03,0.43,0.06,0.64,0.1c0.43,0.06,0.85,0.12,1.26,0.18c0.42,0.03,0.83,0.06,1.23,0.09c0.2,0.02,0.4,0.03,0.61,0.04h0.59
			c0.39,0,0.78,0,1.16-0.01c0.75-0.03,1.47-0.11,2.16-0.17c0.68-0.12,1.33-0.24,1.96-0.35c0.61-0.16,1.19-0.3,1.74-0.44
			c2.17-0.64,3.76-1.4,4.81-1.95c1.04-0.57,1.59-0.87,1.59-0.87c0.1-0.06,0.16-0.18,0.13-0.3c-0.05-0.14-0.19-0.23-0.33-0.19
			l-0.02,0.01c0,0-0.59,0.16-1.71,0.47c-1.11,0.31-2.77,0.65-4.86,0.89c-2.08,0.22-4.63,0.17-7.39-0.44
			c-0.35-0.08-0.69-0.16-1.05-0.24c-0.04-0.01-0.08-0.02-0.12-0.04c0.08-0.07,0.17-0.15,0.25-0.23c0.2-0.18,0.45-0.36,0.69-0.56
			c0.25-0.19,0.5-0.41,0.79-0.61c1.13-0.85,2.56-1.77,4.3-2.58c0.87-0.4,1.81-0.78,2.81-1.11c0.5-0.16,1.02-0.32,1.56-0.44
			c0.53-0.15,1.09-0.24,1.65-0.35c1.13-0.19,2.31-0.33,3.52-0.34c0.61-0.02,1.23,0.01,1.85,0.04c0.64,0.06,1.3,0.14,1.96,0.21
			l0.54,0.06l0.45,0.11c0.29,0.06,0.59,0.13,0.89,0.2c0.58,0.1,1.22,0.33,1.85,0.53c0.31,0.11,0.64,0.18,0.95,0.32
			c0.3,0.13,0.62,0.27,0.92,0.4c0.31,0.14,0.62,0.25,0.92,0.41c0.3,0.16,0.59,0.32,0.89,0.48c0.3,0.17,0.61,0.3,0.9,0.49
			c0.29,0.19,0.57,0.38,0.86,0.58c0.28,0.2,0.59,0.36,0.85,0.59l0.8,0.66c0.56,0.41,1.05,0.92,1.56,1.4
			c0.54,0.46,0.95,1.04,1.42,1.56l0.35,0.4l0.3,0.44l0.62,0.86c0.22,0.28,0.38,0.59,0.57,0.9l0.53,0.92
			c0.34,0.62,0.6,1.29,0.91,1.93l0.73,2c0.16,0.7,0.35,1.37,0.5,2.07c0.09,0.7,0.22,1.4,0.29,2.1l0.06,1.06l0.03,0.53l0.02,0.24
			L229.58,90.63z M236.46,90.49l-0.01-0.35l-0.03-0.7l-0.06-1.42c-0.08-0.94-0.27-1.88-0.41-2.81c-0.2-0.92-0.46-1.84-0.7-2.76
			c-0.33-0.89-0.64-1.79-1-2.66c-0.43-0.84-0.82-1.71-1.29-2.52l-0.75-1.2c-0.25-0.4-0.49-0.8-0.79-1.16l-0.86-1.11l-0.43-0.55
			l-0.48-0.51c-0.65-0.66-1.25-1.37-1.97-1.94c-0.7-0.6-1.37-1.22-2.13-1.72c-0.37-0.26-0.74-0.51-1.11-0.77
			c-0.37-0.26-0.77-0.45-1.16-0.68c-0.39-0.22-0.77-0.43-1.16-0.65c-0.38-0.21-0.8-0.37-1.2-0.56c-0.4-0.18-0.8-0.35-1.2-0.52
			c-0.4-0.16-0.82-0.28-1.23-0.41c-0.41-0.13-0.81-0.26-1.22-0.38c-0.4-0.13-0.83-0.19-1.23-0.29c-0.82-0.17-1.61-0.37-2.49-0.43
			c-0.42-0.04-0.84-0.08-1.26-0.13l-0.62-0.05h-0.54c-0.35,0-0.71,0-1.06,0.01h-0.53l-0.27,0h-0.18l-0.08,0.01l-0.14,0.01
			c-0.76,0.07-1.5,0.13-2.23,0.26c-0.73,0.09-1.43,0.26-2.13,0.41c-0.68,0.18-1.35,0.37-1.99,0.59c-2.57,0.88-4.73,2.07-6.47,3.35
			c-1.74,1.27-3.06,2.6-4.02,3.76c-0.74,0.89-1.29,1.69-1.7,2.32c-0.11-0.04-0.23-0.07-0.35-0.11c-0.18-0.06-0.36-0.13-0.54-0.19
			c-0.36-0.14-0.73-0.27-1.1-0.41c-1.48-0.6-3-1.33-4.55-2.2c-3.11-1.74-6.35-3.98-9.93-6.38c-1.8-1.18-3.68-2.41-5.71-3.59
			c-2.02-1.17-4.19-2.29-6.54-3.24c-0.57-0.26-1.18-0.46-1.79-0.68c-0.6-0.22-1.22-0.41-1.85-0.59l-0.94-0.28l-0.97-0.22l-0.97-0.23
			c-0.33-0.07-0.69-0.12-1.04-0.18c-0.69-0.11-1.45-0.25-2-0.29l-0.9-0.08l-0.45-0.04l-0.25-0.02l-0.13,0l-0.26-0.01
			c-0.68-0.02-1.36-0.05-2.04-0.03l-1.02,0.03l-1.02,0.07c-1.37,0.09-2.73,0.29-4.08,0.55c-1.35,0.28-2.69,0.62-4,1.05
			c-2.62,0.86-5.18,1.99-7.53,3.44c-2.36,1.45-4.57,3.13-6.54,5.07c-1.96,1.95-3.7,4.13-5.13,6.46c-1.43,2.35-2.52,4.88-3.29,7.47
			c-0.78,2.59-1.16,5.24-1.2,7.91v1.3l0,0.12l0.02,0.48c0.03,0.63,0.06,1.26,0.13,1.9l0.11,0.94l0.14,0.92l0.15,0.92l0.19,0.91
			c0.52,2.41,1.29,4.7,2.27,6.81c1.95,4.25,4.68,7.77,7.64,10.46c1.48,1.34,3.01,2.5,4.53,3.45c1.53,0.97,3.04,1.75,4.53,2.36
			c0.73,0.33,1.46,0.57,2.15,0.83c0.71,0.22,1.38,0.44,2.05,0.6c0.33,0.08,0.65,0.16,0.97,0.24c0.32,0.06,0.64,0.13,0.94,0.18
			c0.61,0.13,1.2,0.21,1.75,0.29c0.39,0.05,0.77,0.1,1.12,0.13c0.01,0.05,0.02,0.1,0.03,0.15c0.23,1.4,0.41,2.81,0.52,4.22
			c0.11,1.42,0.14,2.83,0.06,4.25c-0.08,1.42-0.29,2.83-0.7,4.2c-0.03,0.12,0.02,0.25,0.13,0.32c0.13,0.07,0.29,0.02,0.36-0.11
			c0.72-1.31,1.25-2.73,1.64-4.18c0.4-1.44,0.68-2.93,0.88-4.42c0.18-1.29,0.29-2.6,0.36-3.92c0.01-0.14,0.02-0.28,0.02-0.41
			c0-0.05,0.01-0.11,0.01-0.16c0.01-0.3,0.02-0.61,0.03-0.91c0.01-0.45,0.02-0.9,0.02-1.35l-0.01-0.76
			c0.38-0.22,0.78-0.43,1.16-0.64c0.78-0.4,1.56-0.83,2.36-1.2c0.79-0.39,1.59-0.77,2.4-1.12c0.02-0.01,0.03-0.02,0.05-0.03
			c0.79-0.36,1.59-0.68,2.39-1.01c0.82-0.34,1.66-0.63,2.49-0.94c0.84-0.28,1.67-0.59,2.52-0.84c0.22-0.07,0.45-0.14,0.68-0.21
			c0.62-0.19,1.25-0.37,1.88-0.54c0.86-0.23,1.72-0.44,2.6-0.64l1.3-0.28l1.31-0.25c0.88-0.16,1.76-0.31,2.65-0.42
			c0.68-0.1,1.35-0.18,2.03-0.24c1.1-0.12,2.2-0.21,3.31-0.26c1.45-0.08,2.91-0.1,4.37-0.05c0.77,0.57,1.63,1.11,2.55,1.59
			c1.34,0.71,2.84,1.31,4.42,1.77c1.58,0.48,3.25,0.81,4.96,1.02c0.86,0.11,1.72,0.17,2.62,0.22c0.21,0.01,0.42,0.01,0.62,0.02
			l0.31,0l0.16,0h0.19c0.43-0.01,0.88,0,1.31-0.02c0.88-0.02,1.75-0.1,2.61-0.2c0.87-0.1,1.73-0.23,2.58-0.41
			c0.85-0.17,1.68-0.38,2.5-0.62c0.42-0.13,0.83-0.26,1.24-0.41c-0.04,0.32-0.08,0.62-0.11,0.94c-0.04,0.41-0.08,0.81-0.12,1.22
			c-0.02,0.27-0.04,0.53-0.06,0.79c-0.13,1.91-0.14,3.83,0,5.73c0.05,0.54,0.09,1.08,0.16,1.62c0.06,0.54,0.16,1.07,0.24,1.61
			c0.11,0.53,0.2,1.07,0.34,1.59c0.12,0.53,0.28,1.05,0.43,1.57c0.18,0.51,0.35,1.03,0.56,1.52c0.19,0.51,0.43,0.99,0.66,1.48
			c0.26,0.47,0.5,0.95,0.8,1.4c0.27,0.46,0.6,0.89,0.91,1.32c0.07,0.1,0.21,0.14,0.33,0.08c0.13-0.06,0.19-0.22,0.13-0.35
			l-0.01-0.02c-0.23-0.46-0.47-0.92-0.66-1.39c-0.21-0.47-0.37-0.96-0.53-1.43c-0.14-0.49-0.29-0.98-0.39-1.47
			c-0.12-0.49-0.2-1-0.29-1.49c-0.06-0.5-0.13-1-0.17-1.51c-0.05-0.49-0.06-1-0.08-1.51c0-0.5-0.01-1,0.02-1.51
			c0.01-0.5,0.05-1,0.09-1.51c0.15-1.71,0.43-3.41,0.82-5.09c0.03,0,0.06,0,0.09,0.01c0.51,0.03,1.04,0.06,1.58,0.1
			c1.09,0.09,2.24-0.02,3.47-0.1c0.61-0.06,1.23-0.19,1.87-0.29c0.32-0.06,0.65-0.1,0.97-0.18c0.32-0.09,0.64-0.19,0.97-0.28
			c2.63-0.72,5.43-1.94,7.99-3.84c2.58-1.87,4.96-4.37,6.79-7.39c0.26-0.37,0.45-0.76,0.66-1.16c0.2-0.4,0.41-0.8,0.61-1.2
			c0.22-0.4,0.37-0.82,0.54-1.24c0.16-0.42,0.33-0.85,0.49-1.27c0.18-0.42,0.27-0.88,0.41-1.32c0.12-0.44,0.24-0.89,0.36-1.33
			c0.13-0.43,0.19-0.95,0.28-1.43c0.08-0.49,0.16-0.98,0.24-1.47l0.05-0.37l0.02-0.31l0.04-0.61l0.07-1.23l0.01-0.16v-0.08
			l0.01-0.21V90.49"/>
		<path class="st63" d="M259.75,43.65l-0.21-0.23c-0.59-0.64-1.58-0.68-2.23-0.1l-27.82,25.2c0.01,0.01,0.03,0.03,0.04,0.03
			c0.64,0.53,1.18,1.09,1.65,1.59c0.18,0.19,0.35,0.37,0.52,0.54l0.03,0.03l0.03,0.03l0.48,0.51l0.08,0.08l0.07,0.09l0.36,0.46
			c12.66-9.58,23.87-22.38,27.05-26.14C260.32,45.14,260.3,44.24,259.75,43.65z M254.18,37.68c-0.3-0.32-0.69-0.49-1.1-0.51
			c-0.4-0.02-0.81,0.12-1.13,0.41l-29.22,26.46c0.24,0.11,0.51,0.24,0.79,0.39l0.35,0.19c0.27,0.15,0.54,0.31,0.82,0.46l0.02,0.01
			l0.02,0.02c0.1,0.05,0.21,0.11,0.32,0.18c0.31,0.17,0.67,0.37,1.04,0.63c0.14,0.1,0.29,0.2,0.43,0.3l27.58-26.33
			C254.75,39.3,254.78,38.31,254.18,37.68z M248.83,31.93c-0.3-0.32-0.69-0.49-1.1-0.5s-0.81,0.12-1.13,0.41l-29.92,27.1
			c-0.37,0.33-0.83,0.49-1.29,0.46c-0.46-0.02-0.91-0.21-1.25-0.57c-0.67-0.73-0.64-1.86,0.08-2.55l29.19-27.87
			c0.63-0.6,0.66-1.59,0.06-2.23l-0.21-0.23c-0.55-0.59-1.45-0.68-2.1-0.2c-5.18,3.78-26.56,19.95-36.26,36.09
			c0.41-0.08,0.84-0.16,1.29-0.22c0.76-0.14,1.48-0.2,2.19-0.26l0.23-0.02l0.02,0h0.02l0.11-0.01l0.05,0l0.14-0.02h0.55l0.02,0h0.51
			c0.24,0,0.48,0,0.72-0.01c0.12,0,0.23,0,0.35,0h0.69l0.12,0.01l0.63,0.06h0.02l0.03,0c0.4,0.04,0.8,0.08,1.21,0.12
			c0.9,0.06,1.69,0.23,2.38,0.38c0.15,0.03,0.3,0.06,0.45,0.1l0.05,0.01l0.06,0.02c0.1,0.03,0.22,0.05,0.34,0.08
			c0.3,0.06,0.67,0.14,1.08,0.27c0.3,0.1,0.61,0.19,1,0.32c0.09-0.23,0.23-0.44,0.42-0.62l29.19-27.87
			C249.39,33.56,249.42,32.56,248.83,31.93z M145.16,141.16l-0.01,0l-0.01,0c-0.24-0.12-0.47-0.25-0.69-0.37l-0.07,0.09
			c-0.21,0.24-0.39,0.49-0.59,0.73c-0.76,0.97-1.5,1.98-2.22,2.96c-0.72,0.99-1.43,1.97-2.14,2.92c-0.35,0.48-0.71,0.94-1.07,1.41
			c-0.36,0.46-0.72,0.91-1.09,1.35c-0.36,0.44-0.74,0.86-1.11,1.28c-0.38,0.41-0.75,0.81-1.13,1.2c-0.37,0.39-0.77,0.75-1.15,1.11
			c-0.39,0.35-0.78,0.68-1.17,0.99c-1.56,1.25-3.09,2.27-4.54,3.01c-0.72,0.37-1.43,0.68-2.1,0.91c-0.67,0.23-1.32,0.37-1.91,0.42
			c-0.59,0.05-1.13,0.01-1.58-0.12c-0.45-0.12-0.8-0.32-1.04-0.51c-0.26-0.18-0.41-0.37-0.52-0.49c-0.08-0.11-0.14-0.17-0.15-0.18
			c0.02,0.01,0.07,0.07,0.17,0.16c0.12,0.11,0.3,0.26,0.56,0.41c0.26,0.15,0.61,0.29,1.03,0.36c0.43,0.06,0.92,0.06,1.47-0.04
			c0.55-0.1,1.13-0.29,1.75-0.56c0.62-0.27,1.26-0.61,1.93-1.03c1.32-0.84,2.74-1.91,4.17-3.21c1.42-1.3,2.82-2.85,4.16-4.62
			c1.34-1.77,2.67-3.71,4.06-5.75c0.86-1.26,1.8-2.55,2.79-3.82c-0.2-0.17-0.39-0.35-0.56-0.54l-0.08-0.08l-0.06-0.07l-0.03-0.03
			c-0.13-0.14-0.35-0.4-0.56-0.76l-0.1-0.16l-0.09-0.15l-0.07-0.16c-0.09-0.19-0.14-0.37-0.18-0.48c-0.14-0.38-0.19-0.72-0.21-0.98
			c-0.79-0.67-1.2-1.67-1.1-2.69v-0.22l0.12-0.41c0.32-1.05,0.51-2.2,0.58-3.52l0-0.01v-0.01c0-0.02,0-0.05,0-0.07
			c-2.55,1.91-4.86,3.5-6.82,4.67c-8.8,5.3-13.71,10.22-16.44,13.91c-2.44,3.32-2.2,7.9,0.62,10.92c1.4,1.51,3.25,2.41,5.17,2.65
			c1.93,0.25,3.94-0.16,5.68-1.26c3.89-2.45,9.15-7,15.07-15.39c0.69-0.98,1.5-2.05,2.42-3.19
			C145.94,141.54,145.54,141.36,145.16,141.16 M233.12,147.69c-2.79-3.79-7.81-8.82-16.82-14.23c-1.17-0.7-2.45-1.55-3.85-2.52
			c0.02,0.04,0.04,0.08,0.06,0.12c0.07,0.14,0.14,0.29,0.21,0.43c0.37,0.74,0.43,1.62,0.17,2.41c-0.1,0.3-0.24,0.57-0.42,0.82
			c0.02,0.11,0.04,0.21,0.05,0.31c0.02,0.11,0.03,0.23,0.04,0.35c0,0.04,0.01,0.09,0.01,0.15c0.02,0.22,0.02,0.35,0.02,0.49
			l-0.08,2.86l-0.69-0.01c0,0.01-0.01,0.02-0.02,0.03l-0.01,0.02c-0.26,0.46-0.52,0.8-0.7,1.02l-0.06,0.08l-0.07,0.08l-0.06,0.06
			c-0.15,0.17-0.35,0.39-0.59,0.6c-0.36,0.32-0.74,0.61-1.17,0.89c-0.13,0.08-0.26,0.16-0.38,0.24c0.22,0.31,0.43,0.62,0.64,0.92
			c1.42,2.08,2.78,4.07,4.16,5.88c1.37,1.81,2.8,3.4,4.25,4.72c1.46,1.33,2.92,2.43,4.27,3.29c0.68,0.42,1.34,0.78,1.97,1.05
			c0.63,0.28,1.23,0.48,1.79,0.58c0.56,0.1,1.07,0.11,1.5,0.04c0.44-0.07,0.79-0.21,1.06-0.37c0.27-0.15,0.45-0.31,0.57-0.42
			c0.12-0.11,0.18-0.18,0.18-0.18s-0.05,0.06-0.16,0.19c-0.1,0.13-0.27,0.31-0.53,0.5c-0.26,0.19-0.61,0.39-1.07,0.52
			c-0.46,0.13-1.01,0.17-1.61,0.12c-0.61-0.05-1.26-0.2-1.95-0.43c-0.69-0.24-1.4-0.55-2.15-0.93c-1.49-0.76-3.04-1.81-4.64-3.08
			c-0.4-0.32-0.8-0.65-1.2-1.02c-0.38-0.37-0.79-0.73-1.17-1.13c-0.4-0.39-0.77-0.8-1.16-1.22c-0.37-0.43-0.76-0.86-1.13-1.31
			c-0.38-0.45-0.75-0.91-1.12-1.38c-0.36-0.48-0.73-0.96-1.09-1.44c-0.73-0.98-1.45-1.98-2.19-3c-0.27-0.37-0.54-0.73-0.82-1.11
			c-0.53,0.23-1.08,0.45-1.68,0.65c-0.1,0.03-0.21,0.07-0.31,0.11c0.27,0.37,0.54,0.73,0.78,1.08c6.05,8.59,11.44,13.23,15.41,15.74
			c1.78,1.13,3.84,1.54,5.81,1.29c1.97-0.25,3.86-1.17,5.29-2.71C235.37,155.76,235.62,151.08,233.12,147.69z M111.84,70.57
			c-0.29-0.17-0.71-0.41-1.23-0.75c-0.53-0.33-1.16-0.75-1.86-1.24c-0.36-0.25-0.73-0.52-1.12-0.81c-0.1-0.08-0.2-0.15-0.3-0.22
			c-0.1-0.08-0.2-0.16-0.3-0.24c-0.2-0.16-0.4-0.32-0.61-0.48c-0.21-0.17-0.42-0.33-0.64-0.51c-0.21-0.18-0.43-0.37-0.65-0.55
			c-0.22-0.19-0.44-0.38-0.67-0.58c-0.22-0.21-0.45-0.41-0.67-0.62c-0.22-0.21-0.46-0.42-0.68-0.64c-0.22-0.22-0.45-0.45-0.68-0.68
			c-0.47-0.45-0.9-0.96-1.36-1.45c-0.23-0.24-0.44-0.51-0.67-0.77c-0.22-0.27-0.45-0.53-0.65-0.8c-0.21-0.28-0.43-0.56-0.65-0.83
			c-0.21-0.28-0.41-0.57-0.62-0.87c-0.81-1.17-1.56-2.42-2.21-3.73c-0.64-1.31-1.18-2.68-1.58-4.06c-0.11-0.35-0.19-0.7-0.27-1.05
			l-0.06-0.26l-0.01-0.07l-0.01-0.06l-0.01-0.03l-0.02-0.13c-0.03-0.17-0.06-0.33-0.1-0.5s-0.06-0.32-0.09-0.51
			c-0.02-0.18-0.05-0.36-0.07-0.54c-0.02-0.18-0.05-0.36-0.06-0.53c-0.01-0.18-0.02-0.35-0.03-0.52c-0.1-1.38-0.03-2.72,0.15-3.96
			c0.18-1.25,0.48-2.4,0.83-3.43c0.34-1.04,0.78-1.93,1.18-2.71c0.11-0.19,0.21-0.37,0.32-0.55c0.1-0.18,0.2-0.35,0.3-0.51
			c0.21-0.32,0.39-0.61,0.57-0.86s0.35-0.48,0.5-0.67c0.15-0.19,0.29-0.35,0.39-0.48c0.2-0.23,0.31-0.37,0.33-0.38
			c-0.01,0.02-0.09,0.18-0.23,0.45c-0.08,0.14-0.18,0.32-0.28,0.54c-0.1,0.22-0.22,0.46-0.36,0.74c-0.26,0.56-0.54,1.24-0.82,2.04
			c-0.27,0.8-0.56,1.71-0.76,2.71c-0.03,0.13-0.06,0.25-0.08,0.38c-0.02,0.13-0.05,0.26-0.07,0.39c-0.04,0.26-0.1,0.53-0.13,0.8
			c-0.03,0.27-0.06,0.55-0.1,0.83c-0.02,0.29-0.04,0.57-0.06,0.86c-0.06,1.16-0.03,2.39,0.13,3.64c0.02,0.16,0.04,0.31,0.06,0.47
			c0.02,0.15,0.05,0.3,0.08,0.46c0.03,0.16,0.05,0.3,0.08,0.46c0.01,0.08,0.03,0.16,0.05,0.24l0.06,0.25
			c0.04,0.17,0.08,0.33,0.12,0.5l0.03,0.13l0,0.03l0,0.01v0.01l0.02,0.05l0.07,0.24c0.09,0.32,0.17,0.64,0.28,0.95
			c0.4,1.27,0.91,2.52,1.51,3.74c0.59,1.22,1.29,2.39,2.02,3.53c0.19,0.28,0.37,0.56,0.56,0.84c0.19,0.27,0.38,0.54,0.57,0.82
			c0.19,0.27,0.4,0.53,0.59,0.79c0.2,0.26,0.39,0.53,0.59,0.78c0.41,0.5,0.8,1,1.22,1.47c0.2,0.24,0.4,0.48,0.6,0.71
			c0.21,0.22,0.41,0.45,0.61,0.67c0.2,0.22,0.4,0.44,0.59,0.65c0.2,0.21,0.4,0.41,0.59,0.62c0.19,0.2,0.38,0.4,0.57,0.6
			c0.19,0.19,0.38,0.38,0.57,0.57c0.19,0.19,0.37,0.37,0.55,0.55c0.08,0.09,0.17,0.18,0.26,0.26c0.09,0.09,0.18,0.17,0.26,0.26
			c0.34,0.33,0.67,0.65,0.98,0.95c0.62,0.59,1.16,1.11,1.61,1.53c0.91,0.84,1.43,1.32,1.43,1.32S112.13,70.74,111.84,70.57z
			 M132.64,36.7c-7.16-7.14-13.55-10.14-18.84-11c-3.3-0.54-6.61-0.21-9.68,0.88c-3.06,1.08-5.87,2.9-8.15,5.34
			c-4.55,4.88-6.47,11.71-4.93,18.2c1.24,5.21,4.69,11.36,12.34,17.98c3.67,3.17,7.24,5.63,10.65,7.52c0.64-1.5,1.38-2.95,2.22-4.31
			V71.3l0,0c1.55-2.51,3.41-4.86,5.55-7l0.01-0.01c2.05-2.02,4.42-3.86,7.05-5.48c2.42-1.5,5.16-2.75,8.15-3.73
			c1.26-0.41,2.62-0.78,4.3-1.13l0.03-0.01l0.03,0c1.14-0.22,2.2-0.38,3.22-0.49C142.23,48.25,138.48,42.54,132.64,36.7"/>
	</g>
</g>
</svg>
