<?xml version="1.0" encoding="utf-8"?>
<!-- Generator: Adobe Illustrator 27.8.1, SVG Export Plug-In . SVG Version: 6.00 Build 0)  -->
<svg version="1.1" xmlns="http://www.w3.org/2000/svg" xmlns:xlink="http://www.w3.org/1999/xlink" x="0px" y="0px"
	 viewBox="0 0 350 230.71" style="enable-background:new 0 0 350 230.71;" xml:space="preserve">
<style type="text/css">
	.st0{fill:#191919;}
	.st1{fill:#FFFFFF;}
	.st2{fill:#FFCA55;}
	.st3{fill:#006865;}
	.st4{fill:#00AEB7;}
	.st5{fill:#EDC599;}
	.st6{fill:url(#SVGID_1_);}
	.st7{fill:#250B00;}
	.st8{fill:#FFDBD4;}
	.st9{fill:#231F20;}
	.st10{fill:#7F7F7F;}
	.st11{fill:#FFD468;}
	.st12{fill:#303030;}
	.st13{fill:#007D54;}
	.st14{fill:#EE3631;}
	.st15{fill:#2B2B2B;}
	.st16{fill:#FFB000;}
	.st17{opacity:0.35;fill:#FFFFFF;}
	.st18{fill:#E09C05;}
	.st19{fill:#A8112B;}
	.st20{fill:#FCB040;}
	.st21{fill:#3DA1D8;}
	.st22{fill:#0C8EBC;}
	.st23{fill:#EFC6A3;}
	.st24{fill:#B0DFFF;}
	.st25{fill-rule:evenodd;clip-rule:evenodd;fill:#FEFEFE;}
	.st26{fill:#006284;}
	.st27{fill:#5B5B5B;}
	.st28{fill:#EACAB0;}
	.st29{fill:#442B18;}
	.st30{fill:#663412;}
	.st31{fill:#C18B63;}
	.st32{fill:#3A1801;}
	.st33{fill:#616D0B;}
	.st34{fill:#98B11F;}
	.st35{fill:#606060;}
	.st36{fill:#E0E0E0;}
	.st37{fill-rule:evenodd;clip-rule:evenodd;fill:#FFE183;}
	.st38{fill-rule:evenodd;clip-rule:evenodd;fill:#FFA617;}
	.st39{fill:#FF6745;}
	.st40{fill-rule:evenodd;clip-rule:evenodd;fill:#63A642;}
	.st41{fill-rule:evenodd;clip-rule:evenodd;fill:#925056;}
	.st42{fill-rule:evenodd;clip-rule:evenodd;fill:#2C2F38;}
	.st43{fill:#A5A5A5;}
	.st44{fill:#FFEBB8;}
	.st45{fill:#FFA617;}
	.st46{fill:#AF121A;}
	.st47{fill:#C49718;}
	.st48{fill:#FFD961;}
	.st49{fill:#F93B00;}
	.st50{fill:#FFC02E;}
	.st51{fill:#FA6500;}
	.st52{fill:#9BB200;}
	.st53{fill:#FFF7D6;}
	.st54{fill:#3E9AFF;}
	.st55{fill:#3ED698;}
	.st56{fill:#0F935A;}
	.st57{fill:#ED1C24;}
	.st58{fill:#F68712;}
	.st59{fill:#5B0000;}
	.st60{fill-rule:evenodd;clip-rule:evenodd;fill:#FB6218;}
	.st61{fill:#795B4B;}
	.st62{fill:#513D35;}
	.st63{fill:#661F00;}
	.st64{fill:#3F0000;}
	.st65{fill-rule:evenodd;clip-rule:evenodd;fill:#FFFFFF;}
	.st66{fill:#FFC92F;}
	.st67{fill:#3D1109;}
	.st68{fill:#424241;}
	.st69{fill:none;stroke:#FFDE59;stroke-width:4;}
	.st70{fill:#FFDE59;}
	.st71{fill-rule:evenodd;clip-rule:evenodd;fill:#333231;}
	.st72{fill-rule:evenodd;clip-rule:evenodd;}
	.st73{fill:#FF6D00;}
	.st74{fill:#040507;}
	.st75{fill:#4D433A;}
	.st76{fill:#FF8B00;}
	.st77{filter:url(#Adobe_OpacityMaskFilter);}
	.st78{fill-opacity:0.3;}
	.st79{mask:url(#_x35_0ea534a37_00000039117605408314366780000006090329138646347946_);fill:#EBB22F;}
	.st80{fill:#F39200;}
	.st81{fill:#1D1D1B;}
	.st82{fill:#201F1F;}
</style>
<g id="Layer_1">
</g>
<g id="Layer_2">
</g>
<g id="Layer_3">
</g>
<g id="Layer_4">
</g>
<g id="Layer_5">
</g>
<g id="Layer_6">
</g>
<g id="Layer_7">
</g>
<g id="Layer_8">
</g>
<g id="Layer_9">
</g>
<g id="Layer_10">
</g>
<g id="Layer_11">
</g>
<g id="Layer_12">
</g>
<g id="Layer_13">
</g>
<g id="Layer_14">
</g>
<g id="Layer_15">
	<path class="st66" d="M49.71,152.71c-0.35-0.53-1.01-0.74-1.58-0.95c-0.97-0.36-1.99-0.59-3.01-0.71
		c-1.01-0.12-2.05-0.12-3.07-0.01c-0.48,0.05-0.96,0.13-1.42,0.27c-0.54,0.18-1.08,0.42-1.47,0.86c-0.24,0.26-0.41,0.52-0.54,0.85
		c-0.05,0.13-0.06,0.27-0.03,0.4c0,0,0,0,0,0.01c0.36,2.39,0.68,4.79,0.97,7.19c0.29,2.38,0.55,4.78,0.78,7.17
		c0.13,1.35,0.25,2.69,0.36,4.04c0.02,0.07,0.04,0.13,0.07,0.2c0.04,0.06,0.08,0.12,0.12,0.18c0.12,0.13,0.27,0.21,0.44,0.25
		c0.3,0.06,0.66-0.06,0.83-0.33c1.13-1.83,2.16-3.72,3.11-5.65c0.92-1.88,1.76-3.81,2.49-5.77c0.73-1.95,1.37-3.94,1.91-5.96
		C49.83,154.09,50.12,153.34,49.71,152.71z M47.64,156.01c-0.26,0.85-0.53,1.7-0.82,2.55c-0.58,1.7-1.24,3.36-1.96,5
		c-0.39,0.88-0.8,1.75-1.23,2.62c-0.5,1-1.03,1.99-1.58,2.96c-0.15-1.61-0.3-3.21-0.48-4.82c-0.25-2.39-0.54-4.78-0.86-7.16
		c-0.16-1.25-0.34-2.49-0.53-3.74c0.03-0.04,0.06-0.08,0.09-0.12c0.07-0.07,0.15-0.14,0.23-0.2c0.16-0.1,0.34-0.18,0.52-0.24
		c0.61-0.18,1.25-0.25,1.88-0.29c1.03-0.04,2.07,0.03,3.08,0.24c0.4,0.09,0.79,0.19,1.18,0.32c0.39,0.12,0.78,0.26,1.15,0.43
		c0,0,0.01,0,0.01,0c0,0,0,0.01,0,0.01c-0.09,0.39-0.2,0.77-0.31,1.15C47.89,155.15,47.77,155.58,47.64,156.01z M33.63,167.08
		c-1.39-2.05-2.8-4.08-4.23-6.09c-0.81-1.14-1.62-2.27-2.44-3.39c-0.07-0.1-0.19-0.17-0.32-0.22c-0.09-0.12-0.21-0.22-0.36-0.26
		c-0.19-0.06-0.43-0.07-0.61,0.03c-1.58,0.97-2.93,2.25-3.95,3.8c-0.5,0.76-0.92,1.59-1.24,2.44c-0.19,0.51-0.36,1.06-0.25,1.61
		c0.11,0.56,0.45,1.05,0.87,1.43c0.39,0.35,0.81,0.66,1.24,0.96c0.38,0.27,0.76,0.53,1.15,0.79c0.78,0.51,1.58,0.99,2.39,1.44
		c1.67,0.93,3.39,1.76,5.15,2.52c1.71,0.75,3.44,1.44,5.18,2.13c0.21,0.08,0.43,0.17,0.64,0.25c0.3,0.12,0.65,0,0.85-0.23
		c0.09-0.11,0.15-0.22,0.18-0.36c0.03-0.16,0.03-0.37-0.06-0.51C36.45,171.28,35.05,169.18,33.63,167.08z M30.46,170.14
		c-0.61-0.28-1.22-0.57-1.82-0.87c-1.77-0.88-3.49-1.87-5.11-3c-0.43-0.3-0.86-0.6-1.27-0.94c-0.13-0.12-0.26-0.26-0.37-0.4
		c-0.03-0.06-0.06-0.11-0.08-0.17c-0.01-0.04-0.02-0.08-0.02-0.13c0-0.06,0.01-0.12,0.01-0.18c0.07-0.27,0.16-0.52,0.27-0.78
		c0.1-0.25,0.21-0.5,0.33-0.74c0.42-0.83,0.95-1.61,1.56-2.32c0.59-0.65,1.24-1.24,1.96-1.74c1.17,1.61,2.32,3.22,3.46,4.84
		c1.19,1.7,2.37,3.41,3.54,5.13c0.64,0.94,1.27,1.89,1.9,2.84c0.09,0.13,0.18,0.27,0.27,0.4c-0.4-0.16-0.79-0.32-1.19-0.48
		C32.74,171.14,31.6,170.66,30.46,170.14z M34.66,175.71c-2.38,0.15-4.75,0.32-7.12,0.51c-2.36,0.19-4.72,0.41-7.07,0.65
		c-1.32,0.13-2.65,0.27-3.98,0.42c-0.03,0-0.05,0.01-0.08,0.01c-0.21,0.06-0.4,0.2-0.52,0.38c-0.12,0.17-0.15,0.33-0.19,0.53
		c-0.04,0.25-0.02,0.52,0,0.77c0.04,0.6,0.16,1.2,0.28,1.79c0.3,1.44,0.63,2.92,1.38,4.21c0.31,0.54,0.67,1.05,1.07,1.53
		c0.4,0.48,0.85,0.9,1.32,1.31c0.06,0.03,0.12,0.06,0.18,0.09c0.1,0.04,0.2,0.05,0.3,0.04c0.19-0.01,0.33-0.08,0.48-0.19
		c1.94-1.34,3.86-2.69,5.77-4.06c1.91-1.37,3.8-2.77,5.68-4.18c1.06-0.8,2.11-1.6,3.17-2.41c0.13-0.1,0.21-0.28,0.25-0.43
		c0.03-0.17,0.03-0.36-0.06-0.51c-0.07-0.12-0.16-0.23-0.27-0.31C35.07,175.7,34.86,175.7,34.66,175.71z M28.64,180.15
		c-1.89,1.4-3.8,2.77-5.72,4.13c-0.89,0.63-1.78,1.25-2.67,1.86c-0.46-0.45-0.88-0.95-1.24-1.49c-0.37-0.57-0.67-1.18-0.89-1.82
		c-0.16-0.49-0.28-1-0.39-1.51c-0.14-0.61-0.27-1.22-0.37-1.84c-0.03-0.22-0.07-0.45-0.09-0.68c2.2-0.24,4.4-0.46,6.6-0.67
		c2.35-0.22,4.71-0.42,7.07-0.59c0.43-0.03,0.85-0.06,1.28-0.09C31.04,178.36,29.84,179.26,28.64,180.15z"/>
	<g>
		<path class="st66" d="M202.15,87.38c-0.13,0.04-0.24,0.07-0.36,0.08c-7.94,0.88-13.43-29.67-3.43-43.34
			C214.91,60.46,207.27,85.7,202.15,87.38z M136.41,90.54c-6.5,2.08-10.87-18.09-5.26-35.53c7.99,12.11,15.11,31.12,5.64,35.38
			C136.67,90.45,136.54,90.5,136.41,90.54z M114.92,92.06c-3.31,2.97-18.14,1.3-23.19-10.48c8.37-1.05,18.64,2.68,22.74,6.95
			C115.87,90.01,115.86,91.22,114.92,92.06z M230.1,97.13c-2.42-5.41,35.94-42.91,54.89-13.18
			C296.51,102.03,232.52,102.53,230.1,97.13z M254.98,123.79c-1.31-5.32,35.94-9.8,45.43,1.4
			C310.61,137.25,256.3,129.12,254.98,123.79z"/>
		<path d="M232.38,165c-6.79,0-15.17-2.01-24.76-4.31c-14.04-3.37-31.52-7.56-49.66-6.41c-8.05,0.5-14.86,3.01-20.33,5.02
			c-6.45,2.37-11.54,4.25-15.55,1.72c-3.72-2.35-5.74-8.09-6.75-19.21c-1.19-13.06,1.7-23.85,8.57-32.09
			c10.24-12.27,25.98-14.9,32.27-15.46c3.65-0.33,7.45-0.46,11.62-0.41c17.17,0.22,37.09,1.7,54.62,11.15
			c13.3,7.16,25.69,18.34,36.82,33.24c8,10.71,17.83,10.66,22.97,9.67c8.43-1.62,16.12-7.84,17.89-14.46
			c0.68-2.55,0.72-6.26-2.98-9.47c-7.75-6.71-8.76-15.28-9.73-23.56c-0.36-3.06-0.73-6.22-1.44-9.31
			c-2.41-10.61-12.36-18.15-22.63-17.15c-1.66,0.16-4.09,1.08-6.67,2.05c-5.5,2.07-11.73,4.42-15.72,1.52
			c-3.72-2.7-3.54-7.71-3.4-11.74c0.04-1.09,0.07-2.12,0.03-2.98c-0.27-5.15-2.53-10.49-6.23-14.63
			c-6.59-7.4-21.12-13.09-29.82-5.54c-0.41,0.35-0.8,0.73-1.17,1.12c1.2,1.31,2.29,2.7,3.26,4.15c4.83,7.15,6.77,16.51,5.32,25.69
			c-0.99,6.27-3.18,13.87-8.05,14.41c-1.59,0.18-3.11-0.29-4.39-1.37c-4.12-3.43-5.34-12.61-5.71-17.78
			c-0.45-6.34-0.22-17.15,5.18-24.89c-5.74-5.38-13.49-9.14-22.19-10.63c-12.38-2.12-24.45,0.86-32.29,7.96
			c-3.74,3.39-6.66,7.91-8.61,13.21c2.05,3.19,3.74,6.53,5.2,9.68c3.01,6.44,5.62,13.38,4.28,20.43c-0.44,2.33-1.24,4.11-2.46,5.46
			c-1.34,1.49-2.83,2.23-4.4,2.21c-1.71-0.03-3.35-0.95-4.88-2.74c-5.61-6.59-4.16-18.76-3.38-25.3c0.38-3.25,1.06-6.36,2.01-9.28
			c-1.84-2.67-3.98-5.16-6.5-7.2c-5.18-4.19-11.38-5.65-16.99-4c-5.62,1.65-10.04,6.22-12.14,12.53
			c-2.29,6.94-3.17,16.13,0.02,23.76c6.68-0.73,13.99,1.03,19.8,4.95c1.13,0.76,2.38,1.74,3.13,3.18c0.96,1.83,0.75,3.98-0.5,5.33
			c-0.96,1.04-2.27,1.37-3.3,1.55c-6.48,1.1-13.65-1.77-18.28-7.3c-1.07-1.29-1.99-2.65-2.75-4.08c-0.81,0.18-1.61,0.4-2.39,0.66
			c-9.11,3.15-9.91,12.5-7.61,20.19c3.02,10.08,11.89,19.06,21.5,16.63c0.87-0.23,1.77,0.31,1.99,1.19s-0.31,1.77-1.19,1.99
			c-5.46,1.38-11.15-0.1-16.03-4.16c-4.25-3.55-7.68-8.91-9.42-14.7c-3.44-11.49,0.36-21,9.67-24.23c0.67-0.23,1.37-0.43,2.07-0.61
			c-3.2-8.32-2.27-18.01,0.17-25.37c2.43-7.35,7.65-12.69,14.32-14.65c6.67-1.96,13.94-0.28,19.97,4.6c2.2,1.78,4.12,3.85,5.82,6.06
			c2.1-4.91,5.03-9.14,8.66-12.43c8.58-7.77,21.68-11.05,35.04-8.77c9.25,1.58,17.52,5.59,23.71,11.33
			c0.42-0.44,0.86-0.86,1.33-1.27c10.21-8.86,26.92-2.57,34.42,5.84c4.18,4.69,6.75,10.76,7.06,16.65c0.05,1.01,0.02,2.1-0.02,3.26
			c-0.12,3.42-0.25,7.3,2.05,8.97c2.56,1.86,8.14-0.25,12.63-1.94c2.79-1.06,5.42-2.05,7.52-2.25c11.88-1.15,23.37,7.51,26.14,19.69
			c0.74,3.26,1.13,6.51,1.49,9.65c0.95,8.02,1.84,15.59,8.62,21.47c3.89,3.37,5.31,7.91,4,12.79c-2.11,7.88-10.7,14.96-20.44,16.82
			c-5.9,1.14-17.14,1.22-26.22-10.92c-10.84-14.51-22.86-25.38-35.74-32.32c-16.91-9.1-36.34-10.55-53.11-10.75
			c-4.06-0.05-7.75,0.08-11.29,0.39c-5.89,0.53-20.6,2.98-30.05,14.3c-6.29,7.55-8.93,17.54-7.83,29.69
			c0.88,9.72,2.55,15.04,5.23,16.74c2.64,1.66,6.84,0.12,12.67-2.03c5.67-2.09,12.72-4.68,21.25-5.22
			c18.64-1.17,36.38,3.09,50.63,6.51c15.11,3.62,27.04,6.49,33.31,1.73c3.37-2.55,5.16-7.44,5.45-14.91c0.04-0.9,0.81-1.6,1.7-1.57
			c0.9,0.04,1.61,0.8,1.57,1.7c-0.33,8.52-2.53,14.2-6.74,17.39C240.68,164.12,236.88,165,232.38,165z M95.26,83.22
			c0.52,0.85,1.11,1.67,1.76,2.45c3.89,4.67,9.86,7.09,15.21,6.18c0.48-0.08,1.16-0.23,1.45-0.54c0.29-0.31,0.29-1.03-0.01-1.59
			c-0.41-0.79-1.28-1.44-2.06-1.98C106.79,84.49,100.83,82.9,95.26,83.22z M131.59,58.69c-0.49,1.91-0.85,3.9-1.1,5.95
			c-0.71,6.04-2.06,17.29,2.63,22.79c0.61,0.72,1.52,1.57,2.43,1.58c0.61,0.01,1.24-0.37,1.92-1.12c0.8-0.89,1.36-2.17,1.68-3.89
			c1.16-6.13-1.25-12.49-4.03-18.43C134.07,63.33,132.92,60.99,131.59,58.69z M198.29,46.37c-4.48,6.88-4.64,16.53-4.24,22.26
			c0.42,6.02,1.83,13.24,4.53,15.49c0.61,0.51,1.22,0.7,1.94,0.63c2.06-0.23,4.09-4.81,5.17-11.66c1.32-8.37-0.43-16.88-4.8-23.35
			C200.1,48.56,199.23,47.44,198.29,46.37z"/>
	</g>
</g>
</svg>
