<?xml version="1.0" encoding="utf-8"?>
<!-- Generator: Adobe Illustrator 27.8.1, SVG Export Plug-In . SVG Version: 6.00 Build 0)  -->
<svg version="1.1" xmlns="http://www.w3.org/2000/svg" xmlns:xlink="http://www.w3.org/1999/xlink" x="0px" y="0px"
	 viewBox="0 0 350 230.71" style="enable-background:new 0 0 350 230.71;" xml:space="preserve">
<style type="text/css">
	.st0{fill:#191919;}
	.st1{fill:#FFFFFF;}
	.st2{fill:#FFCA55;}
	.st3{fill:#006865;}
	.st4{fill:#00AEB7;}
	.st5{fill:#EDC599;}
	.st6{fill:url(#SVGID_1_);}
	.st7{fill:#250B00;}
	.st8{fill:#FFDBD4;}
	.st9{fill:#231F20;}
	.st10{fill:#7F7F7F;}
	.st11{fill:#FFD468;}
	.st12{fill:#303030;}
	.st13{fill:#007D54;}
	.st14{fill:#EE3631;}
	.st15{fill:#2B2B2B;}
	.st16{fill:#FFB000;}
	.st17{opacity:0.35;fill:#FFFFFF;}
	.st18{fill:#E09C05;}
	.st19{fill:#A8112B;}
	.st20{fill:#FCB040;}
	.st21{fill:#3DA1D8;}
	.st22{fill:#0C8EBC;}
	.st23{fill:#EFC6A3;}
	.st24{fill:#B0DFFF;}
	.st25{fill-rule:evenodd;clip-rule:evenodd;fill:#FEFEFE;}
	.st26{fill:#006284;}
	.st27{fill:#5B5B5B;}
	.st28{fill:#EACAB0;}
	.st29{fill:#442B18;}
	.st30{fill:#663412;}
	.st31{fill:#C18B63;}
	.st32{fill:#3A1801;}
	.st33{fill:#616D0B;}
	.st34{fill:#98B11F;}
	.st35{fill:#606060;}
	.st36{fill:#E0E0E0;}
	.st37{fill-rule:evenodd;clip-rule:evenodd;fill:#FFE183;}
	.st38{fill-rule:evenodd;clip-rule:evenodd;fill:#FFA617;}
	.st39{fill:#FF6745;}
	.st40{fill-rule:evenodd;clip-rule:evenodd;fill:#63A642;}
	.st41{fill-rule:evenodd;clip-rule:evenodd;fill:#925056;}
	.st42{fill-rule:evenodd;clip-rule:evenodd;fill:#2C2F38;}
	.st43{fill:#A5A5A5;}
	.st44{fill:#FFEBB8;}
	.st45{fill:#FFA617;}
	.st46{fill:#AF121A;}
	.st47{fill:#C49718;}
	.st48{fill:#FFD961;}
	.st49{fill:#F93B00;}
	.st50{fill:#FFC02E;}
	.st51{fill:#FA6500;}
	.st52{fill:#9BB200;}
	.st53{fill:#FFF7D6;}
	.st54{fill:#3E9AFF;}
	.st55{fill:#3ED698;}
	.st56{fill:#0F935A;}
	.st57{fill:#ED1C24;}
	.st58{fill:#F68712;}
	.st59{fill:#5B0000;}
	.st60{fill-rule:evenodd;clip-rule:evenodd;fill:#FB6218;}
	.st61{fill:#795B4B;}
	.st62{fill:#513D35;}
	.st63{fill:#661F00;}
	.st64{fill:#3F0000;}
	.st65{fill-rule:evenodd;clip-rule:evenodd;fill:#FFFFFF;}
	.st66{fill:#FFC92F;}
	.st67{fill:#3D1109;}
	.st68{fill:#424241;}
	.st69{fill:none;stroke:#FFDE59;stroke-width:4;}
	.st70{fill:#FFDE59;}
	.st71{fill-rule:evenodd;clip-rule:evenodd;fill:#333231;}
	.st72{fill-rule:evenodd;clip-rule:evenodd;}
	.st73{fill:#FF6D00;}
	.st74{fill:#040507;}
	.st75{fill:#4D433A;}
	.st76{fill:#FF8B00;}
	.st77{filter:url(#Adobe_OpacityMaskFilter);}
	.st78{fill-opacity:0.3;}
	.st79{mask:url(#_x35_0ea534a37_00000039117605408314366780000006090329138646347946_);fill:#EBB22F;}
	.st80{fill:#F39200;}
	.st81{fill:#1D1D1B;}
	.st82{fill:#201F1F;}
</style>
<g id="Layer_1">
</g>
<g id="Layer_2">
</g>
<g id="Layer_3">
</g>
<g id="Layer_4">
</g>
<g id="Layer_5">
</g>
<g id="Layer_6">
</g>
<g id="Layer_7">
</g>
<g id="Layer_8">
</g>
<g id="Layer_9">
</g>
<g id="Layer_10">
</g>
<g id="Layer_11">
</g>
<g id="Layer_12">
</g>
<g id="Layer_13">
</g>
<g id="Layer_14">
</g>
<g id="Layer_15">
	<g>
		<g>
			<path class="st82" d="M124.19,95.73c-0.31-2.25-0.6-4.54-0.73-6.81c-0.25-4.22-0.16-8.47-0.16-12.69l0.04-21.09
				c0-1.37,0.23-7.8-0.26-8.6l-0.3-0.15c-5.65,5.45-6.58,14.82-6.71,22.27c-0.12,6.68-0.15,10.48,1.92,16.98
				c0.6,0.08,1.74,0.09,2.15,0.58c0.69,0.82-2.09,13.93-2.07,16.6c0,0.66,0.12,1.25,0.36,1.86c0.57,0.95,1.18,1.68,2.29,1.98
				c0.88,0.23,1.83,0.07,2.61-0.38c0.92-0.55,1.49-1.45,1.74-2.48C125.51,101.98,124.46,97.69,124.19,95.73z M233.67,76.03
				c4.84-5.69,3.8-13.47,2.62-20.29c-0.32-1.86-0.73-3.69-1.23-5.51c-0.29-0.94-0.56-2.27-1.27-2.98l-0.27-0.03
				c-0.06,0.08-0.16,0.15-0.19,0.25c-0.21,0.64,0.13,2.66,0.19,3.47c0.16,2.29,1.62,17.72-0.48,18.11c-0.34-0.41-0.4-1.06-0.45-1.57
				c-0.17-1.83-0.02-3.71-0.08-5.54c-0.07-2.32-0.52-13.72-1.97-14.68c-0.63,0.6-0.6,3.45-0.62,4.31l-0.21,10.09
				c-0.03,1.73,0.05,3.54-0.14,5.25c-0.06,0.53-0.16,1.31-0.52,1.73c-0.03,0.03-0.07,0.06-0.1,0.09c-0.31-0.1-0.3-0.12-0.44-0.41
				c-0.62-1.25-0.4-3.46-0.4-4.86c-0.02-2.82,0.33-14.63-0.47-16.16l-0.21-0.02c-1.39,1.61-1.86,11.89-1.94,14.43
				c-0.04,1.23,0.1,6.14-0.35,6.93c-0.06,0.1-0.18,0.14-0.27,0.2c-0.26-0.03-0.18,0.03-0.34-0.16c-1.36-1.62-0.43-13.62-0.18-16.26
				c0.09-0.89,0.58-4.09,0.43-4.8c-0.06-0.26-0.2-0.33-0.42-0.45c-2.36,2.65-3.7,15.31-3.48,19.14c0.23,3.81,1.61,7.17,4.39,9.8
				c0.98,0.92,2.14,1.73,2.99,2.77l0.02,0.18c0.18,2.01-0.12,4.16-0.27,6.17c-0.29,4-0.66,7.99-1.12,11.96
				c-0.22,1.77-0.86,4.43-0.62,6.15c0.11,0.82,0.66,1.64,1.27,2.18c0.75,0.66,1.78,1.07,2.78,0.96c0.96-0.1,1.8-0.75,2.36-1.51
				c0.72-0.97,0.9-1.92,0.74-3.1c-0.78-5.51-1.46-10.97-1.99-16.51c-0.17-1.84-0.71-4.39-0.29-6.21
				C231.39,78.09,232.94,76.88,233.67,76.03z M193.99,33.74c-0.06-0.06-0.11-0.13-0.17-0.19c-0.05-0.06-0.11-0.12-0.17-0.17
				c-0.06-0.06-0.12-0.12-0.18-0.17c-0.07-0.06-0.13-0.11-0.19-0.16c-0.07-0.05-0.13-0.1-0.2-0.15c-0.07-0.05-0.14-0.1-0.21-0.14
				c-0.07-0.04-0.14-0.09-0.21-0.13c-0.07-0.04-0.15-0.08-0.22-0.12c-0.07-0.03-0.15-0.07-0.22-0.1c-0.08-0.03-0.16-0.07-0.23-0.1
				c-0.08-0.03-0.16-0.05-0.24-0.08c-0.08-0.02-0.16-0.05-0.24-0.07c-0.08-0.02-0.16-0.04-0.24-0.06c-0.08-0.01-0.16-0.03-0.24-0.04
				c-0.08-0.02-0.16-0.03-0.25-0.04c-0.08,0-0.16-0.01-0.24-0.02c-0.41-0.02-0.83,0.02-1.23,0.04c0.08-1.88-0.17-3.6-1.49-5.05
				c-0.06-0.07-0.13-0.14-0.2-0.21c-0.06-0.07-0.13-0.13-0.2-0.2c-0.08-0.06-0.15-0.12-0.22-0.18c-0.08-0.06-0.15-0.12-0.23-0.18
				c-0.08-0.05-0.15-0.11-0.23-0.16c-0.08-0.05-0.17-0.1-0.25-0.15c-0.08-0.05-0.16-0.09-0.25-0.14c-0.08-0.04-0.17-0.08-0.26-0.12
				c-0.08-0.04-0.17-0.08-0.26-0.11c-0.09-0.04-0.18-0.07-0.27-0.1c-0.09-0.03-0.18-0.06-0.28-0.08c-0.09-0.03-0.18-0.05-0.27-0.07
				c-0.1-0.02-0.19-0.04-0.28-0.05c-0.1-0.02-0.19-0.03-0.29-0.04c-0.09-0.01-0.19-0.02-0.28-0.02c-0.1-0.01-0.19-0.01-0.29-0.01
				c-0.7-0.01-1.35,0.13-2.03,0.3c-0.26-1.74-0.92-3.08-2.39-4.14c-1.25-0.9-2.93-1.38-4.48-1.31c-1.94,0.2-3.88,0.73-5.15,2.35
				c-0.55,0.7-1,2.79-1.72,2.9c-0.56,0.09-1.17,0-1.74,0.02c-1.36,0.05-2.76,0.72-3.63,1.77c-1.17,1.42-1.44,3.21-1.45,4.99
				c-1.54-0.07-2.85,0.13-4.03,1.22c-1.02,0.93-1.56,2.31-1.55,3.69v0.25c0.01,0.09,0.01,0.17,0.02,0.26
				c0.01,0.08,0.02,0.17,0.04,0.25c0.01,0.09,0.03,0.17,0.04,0.26c0.02,0.08,0.04,0.16,0.06,0.25c0.02,0.08,0.05,0.16,0.07,0.24
				c0.03,0.08,0.06,0.16,0.09,0.24c0.03,0.08,0.06,0.16,0.09,0.24c0.04,0.08,0.07,0.16,0.11,0.23c0.04,0.08,0.08,0.16,0.12,0.23
				c0.04,0.08,0.09,0.15,0.13,0.22c0.05,0.07,0.1,0.15,0.14,0.22c0.05,0.07,0.1,0.13,0.16,0.2c0.05,0.07,0.1,0.14,0.16,0.2
				c0.05,0.06,0.11,0.13,0.17,0.19l0.18,0.18c1.05,1,2.46,1.44,3.89,1.37c0.67-0.03,1.33-0.16,1.98-0.32
				c-0.05,1.55-0.08,3.1-0.09,4.65c4.06-1.3,8.57-1.91,12.84-1.78c3.87,0.15,7.98,0.43,11.68,1.68l0.06-4.42
				c1.89,0.28,3.74,0.46,5.39-0.73c1.13-0.8,1.93-2.07,2.12-3.44C195.24,36.27,194.87,34.81,193.99,33.74z M187.12,76.7
				c-0.03-0.27-0.08-0.52-0.15-0.78c-0.63,2.58-1.27,5.04-2.35,7.49c-1.5-2.45-3.02-4.85-5.07-6.88c-1.57,1.13-3.33,1.94-5.33,1.6
				c-1.28-0.22-2.35-0.83-3.32-1.66c-2.06,2.1-3.73,4.41-5.18,6.96c-1.33-2.42-1.85-5.04-2.48-7.7c-0.35,4.48-0.38,5.99,1.3,10.23
				c2.54,6.43,6.66,11.51,10.77,16.97c4.32-5.59,7.91-12.09,10.59-18.61c0.5-1.21,1.09-2.49,1.34-3.78
				C187.48,79.3,187.28,77.95,187.12,76.7z M175.65,100.21c-0.64-0.43-1.2-0.93-1.77-1.44c-0.81-0.82-1.96-2.03-2.37-3.09
				c-0.14-0.34-0.14-0.48,0-0.81c0.27-0.18,0.49-0.25,0.81-0.27c1.95-0.12,3.69,0.14,5.76-0.09c0.38-0.06,0.67-0.05,1.06,0
				c0.01,0.03,0.02,0.07,0.02,0.1C179.21,95.55,176.36,99.29,175.65,100.21z M179.24,93.24c-0.1-0.04-0.19-0.08-0.28-0.13
				c-1.08-0.55-2.3-0.6-3.42-1.2c-0.14-0.1-0.05-0.05-0.31-0.11c-1.05,0.82-2.81,1.05-4.1,1.38c0.66-2.21,1.88-4.42,3.23-6.28
				c-1.76-2.05-2.03-4.01-1.99-6.64c0.62-0.21,1.26-0.33,1.89-0.47c1.34-0.11,2.53,0,3.81,0.38c0.31,2.63-0.24,4.38-1.19,6.8
				C177.38,88.01,179.55,92.31,179.24,93.24z M187.12,76.7c-0.03-0.27-0.08-0.52-0.15-0.78c-0.63,2.58-1.27,5.04-2.35,7.49
				c-1.5-2.45-3.02-4.85-5.07-6.88c-1.57,1.13-3.33,1.94-5.33,1.6c-1.28-0.22-2.35-0.83-3.32-1.66c-2.06,2.1-3.73,4.41-5.18,6.96
				c-1.33-2.42-1.85-5.04-2.48-7.7c-0.35,4.48-0.38,5.99,1.3,10.23c2.54,6.43,6.66,11.51,10.77,16.97
				c4.32-5.59,7.91-12.09,10.59-18.61c0.5-1.21,1.09-2.49,1.34-3.78C187.48,79.3,187.28,77.95,187.12,76.7z M175.65,100.21
				c-0.64-0.43-1.2-0.93-1.77-1.44c-0.81-0.82-1.96-2.03-2.37-3.09c-0.14-0.34-0.14-0.48,0-0.81c0.27-0.18,0.49-0.25,0.81-0.27
				c1.95-0.12,3.69,0.14,5.76-0.09c0.38-0.06,0.67-0.05,1.06,0c0.01,0.03,0.02,0.07,0.02,0.1
				C179.21,95.55,176.36,99.29,175.65,100.21z M179.24,93.24c-0.1-0.04-0.19-0.08-0.28-0.13c-1.08-0.55-2.3-0.6-3.42-1.2
				c-0.14-0.1-0.05-0.05-0.31-0.11c-1.05,0.82-2.81,1.05-4.1,1.38c0.66-2.21,1.88-4.42,3.23-6.28c-1.76-2.05-2.03-4.01-1.99-6.64
				c0.62-0.21,1.26-0.33,1.89-0.47c1.34-0.11,2.53,0,3.81,0.38c0.31,2.63-0.24,4.38-1.19,6.8
				C177.38,88.01,179.55,92.31,179.24,93.24z M187.12,76.7c-0.03-0.27-0.08-0.52-0.15-0.78c-0.63,2.58-1.27,5.04-2.35,7.49
				c-1.5-2.45-3.02-4.85-5.07-6.88c-1.57,1.13-3.33,1.94-5.33,1.6c-1.28-0.22-2.35-0.83-3.32-1.66c-2.06,2.1-3.73,4.41-5.18,6.96
				c-1.33-2.42-1.85-5.04-2.48-7.7c-0.35,4.48-0.38,5.99,1.3,10.23c2.54,6.43,6.66,11.51,10.77,16.97
				c4.32-5.59,7.91-12.09,10.59-18.61c0.5-1.21,1.09-2.49,1.34-3.78C187.48,79.3,187.28,77.95,187.12,76.7z M175.65,100.21
				c-0.64-0.43-1.2-0.93-1.77-1.44c-0.81-0.82-1.96-2.03-2.37-3.09c-0.14-0.34-0.14-0.48,0-0.81c0.27-0.18,0.49-0.25,0.81-0.27
				c1.95-0.12,3.69,0.14,5.76-0.09c0.38-0.06,0.67-0.05,1.06,0c0.01,0.03,0.02,0.07,0.02,0.1
				C179.21,95.55,176.36,99.29,175.65,100.21z M179.24,93.24c-0.1-0.04-0.19-0.08-0.28-0.13c-1.08-0.55-2.3-0.6-3.42-1.2
				c-0.14-0.1-0.05-0.05-0.31-0.11c-1.05,0.82-2.81,1.05-4.1,1.38c0.66-2.21,1.88-4.42,3.23-6.28c-1.76-2.05-2.03-4.01-1.99-6.64
				c0.62-0.21,1.26-0.33,1.89-0.47c1.34-0.11,2.53,0,3.81,0.38c0.31,2.63-0.24,4.38-1.19,6.8
				C177.38,88.01,179.55,92.31,179.24,93.24z M187.12,76.7c-0.03-0.27-0.08-0.52-0.15-0.78c-0.63,2.58-1.27,5.04-2.35,7.49
				c-1.5-2.45-3.02-4.85-5.07-6.88c-1.57,1.13-3.33,1.94-5.33,1.6c-1.28-0.22-2.35-0.83-3.32-1.66c-2.06,2.1-3.73,4.41-5.18,6.96
				c-1.33-2.42-1.85-5.04-2.48-7.7c-0.35,4.48-0.38,5.99,1.3,10.23c2.54,6.43,6.66,11.51,10.77,16.97
				c4.32-5.59,7.91-12.09,10.59-18.61c0.5-1.21,1.09-2.49,1.34-3.78C187.48,79.3,187.28,77.95,187.12,76.7z M175.65,100.21
				c-0.64-0.43-1.2-0.93-1.77-1.44c-0.81-0.82-1.96-2.03-2.37-3.09c-0.14-0.34-0.14-0.48,0-0.81c0.27-0.18,0.49-0.25,0.81-0.27
				c1.95-0.12,3.69,0.14,5.76-0.09c0.38-0.06,0.67-0.05,1.06,0c0.01,0.03,0.02,0.07,0.02,0.1
				C179.21,95.55,176.36,99.29,175.65,100.21z M179.24,93.24c-0.1-0.04-0.19-0.08-0.28-0.13c-1.08-0.55-2.3-0.6-3.42-1.2
				c-0.14-0.1-0.05-0.05-0.31-0.11c-1.05,0.82-2.81,1.05-4.1,1.38c0.66-2.21,1.88-4.42,3.23-6.28c-1.76-2.05-2.03-4.01-1.99-6.64
				c0.62-0.21,1.26-0.33,1.89-0.47c1.34-0.11,2.53,0,3.81,0.38c0.31,2.63-0.24,4.38-1.19,6.8
				C177.38,88.01,179.55,92.31,179.24,93.24z M187.12,76.7c-0.03-0.27-0.08-0.52-0.15-0.78c-0.63,2.58-1.27,5.04-2.35,7.49
				c-1.5-2.45-3.02-4.85-5.07-6.88c-1.57,1.13-3.33,1.94-5.33,1.6c-1.28-0.22-2.35-0.83-3.32-1.66c-2.06,2.1-3.73,4.41-5.18,6.96
				c-1.33-2.42-1.85-5.04-2.48-7.7c-0.35,4.48-0.38,5.99,1.3,10.23c2.54,6.43,6.66,11.51,10.77,16.97
				c4.32-5.59,7.91-12.09,10.59-18.61c0.5-1.21,1.09-2.49,1.34-3.78C187.48,79.3,187.28,77.95,187.12,76.7z M175.65,100.21
				c-0.64-0.43-1.2-0.93-1.77-1.44c-0.81-0.82-1.96-2.03-2.37-3.09c-0.14-0.34-0.14-0.48,0-0.81c0.27-0.18,0.49-0.25,0.81-0.27
				c1.95-0.12,3.69,0.14,5.76-0.09c0.38-0.06,0.67-0.05,1.06,0c0.01,0.03,0.02,0.07,0.02,0.1
				C179.21,95.55,176.36,99.29,175.65,100.21z M179.24,93.24c-0.1-0.04-0.19-0.08-0.28-0.13c-1.08-0.55-2.3-0.6-3.42-1.2
				c-0.14-0.1-0.05-0.05-0.31-0.11c-1.05,0.82-2.81,1.05-4.1,1.38c0.66-2.21,1.88-4.42,3.23-6.28c-1.76-2.05-2.03-4.01-1.99-6.64
				c0.62-0.21,1.26-0.33,1.89-0.47c1.34-0.11,2.53,0,3.81,0.38c0.31,2.63-0.24,4.38-1.19,6.8
				C177.38,88.01,179.55,92.31,179.24,93.24z M187.12,76.7c-0.03-0.27-0.08-0.52-0.15-0.78c-0.63,2.58-1.27,5.04-2.35,7.49
				c-1.5-2.45-3.02-4.85-5.07-6.88c-1.57,1.13-3.33,1.94-5.33,1.6c-1.28-0.22-2.35-0.83-3.32-1.66c-2.06,2.1-3.73,4.41-5.18,6.96
				c-1.33-2.42-1.85-5.04-2.48-7.7c-0.35,4.48-0.38,5.99,1.3,10.23c2.54,6.43,6.66,11.51,10.77,16.97
				c4.32-5.59,7.91-12.09,10.59-18.61c0.5-1.21,1.09-2.49,1.34-3.78C187.48,79.3,187.28,77.95,187.12,76.7z M175.65,100.21
				c-0.64-0.43-1.2-0.93-1.77-1.44c-0.81-0.82-1.96-2.03-2.37-3.09c-0.14-0.34-0.14-0.48,0-0.81c0.27-0.18,0.49-0.25,0.81-0.27
				c1.95-0.12,3.69,0.14,5.76-0.09c0.38-0.06,0.67-0.05,1.06,0c0.01,0.03,0.02,0.07,0.02,0.1
				C179.21,95.55,176.36,99.29,175.65,100.21z M179.24,93.24c-0.1-0.04-0.19-0.08-0.28-0.13c-1.08-0.55-2.3-0.6-3.42-1.2
				c-0.14-0.1-0.05-0.05-0.31-0.11c-1.05,0.82-2.81,1.05-4.1,1.38c0.66-2.21,1.88-4.42,3.23-6.28c-1.76-2.05-2.03-4.01-1.99-6.64
				c0.62-0.21,1.26-0.33,1.89-0.47c1.34-0.11,2.53,0,3.81,0.38c0.31,2.63-0.24,4.38-1.19,6.8
				C177.38,88.01,179.55,92.31,179.24,93.24z M246.61,105.73c0.88-2.16,1.39-4.07,0.4-6.33c-0.05-0.11-0.1-0.22-0.16-0.33
				c-0.05-0.11-0.11-0.22-0.17-0.32c-0.06-0.11-0.12-0.22-0.19-0.32c-0.06-0.1-0.13-0.2-0.2-0.3c-0.07-0.1-0.14-0.2-0.22-0.3
				c-0.07-0.09-0.15-0.19-0.23-0.28c-0.08-0.09-0.16-0.18-0.25-0.27c-0.08-0.09-0.17-0.17-0.26-0.25c-0.09-0.09-0.18-0.17-0.27-0.25
				c-0.09-0.08-0.19-0.15-0.28-0.23c-0.1-0.07-0.2-0.14-0.3-0.21c-0.1-0.07-0.2-0.14-0.31-0.2c-0.1-0.07-0.21-0.13-0.31-0.19
				c-0.11-0.06-0.22-0.11-0.33-0.17c-0.11-0.05-0.22-0.1-0.33-0.15c-0.11-0.05-0.23-0.09-0.34-0.13c-1.78-0.66-4.03-0.74-5.76,0.1
				c-1.15,0.56-1.92,1.52-2.31,2.73c-0.45,1.41-0.42,3.11,0.29,4.44c0.44,0.82,1.13,1.45,2.04,1.7c0.7,0.2,1.6,0.21,2.24-0.18
				c0.44-0.26,0.67-0.71,0.77-1.2c0.06-0.34-0.01-0.67-0.22-0.95c-0.64-0.84-2.26-0.77-2.41-1.92c0.03-0.07,0.06-0.15,0.1-0.22
				c0.03-0.08,0.07-0.15,0.11-0.22c0.05-0.07,0.09-0.14,0.14-0.2c0.05-0.07,0.1-0.13,0.16-0.19c0.05-0.06,0.11-0.12,0.17-0.18
				c0.06-0.05,0.12-0.1,0.19-0.15c0.06-0.05,0.13-0.1,0.2-0.14c0.07-0.05,0.14-0.08,0.21-0.12c0.88-0.44,1.97-0.44,2.88-0.11
				c0.97,0.34,1.76,1.05,2.15,2c0.35,0.85,0.34,1.75-0.02,2.59c-1.27,2.98-6.2,5.4-9.05,6.46c-3.65,1.35-10.61,0.71-14.75,0.77
				c3.98-13.19,3.13-26-3.42-38.23c-0.18-0.34-0.37-0.67-0.56-1c-0.19-0.33-0.39-0.66-0.59-0.99c-0.2-0.33-0.4-0.65-0.61-0.97
				c-0.21-0.32-0.42-0.64-0.63-0.96c-0.22-0.32-0.44-0.63-0.66-0.94c-0.22-0.31-0.45-0.62-0.68-0.93c-0.23-0.31-0.47-0.61-0.7-0.91
				c-0.24-0.3-0.48-0.6-0.73-0.89c-0.24-0.3-0.49-0.59-0.74-0.88s-0.51-0.57-0.77-0.86c-0.26-0.28-0.52-0.56-0.78-0.83
				c-0.27-0.28-0.54-0.55-0.81-0.82c-0.27-0.27-0.55-0.54-0.82-0.8c-0.28-0.27-0.56-0.53-0.85-0.78c-0.28-0.26-0.57-0.51-0.86-0.76
				c-0.29-0.25-0.58-0.5-0.88-0.74c-0.3-0.25-0.6-0.49-0.9-0.72c-0.3-0.24-0.61-0.47-0.91-0.7c-0.31-0.23-0.62-0.45-0.94-0.67
				c-0.31-0.22-0.62-0.44-0.94-0.65c-0.32-0.22-0.64-0.42-0.97-0.63c-0.32-0.21-0.64-0.41-0.97-0.61c-0.33-0.19-0.66-0.39-0.99-0.58
				c-0.34-0.19-0.67-0.37-1.01-0.55c-0.34-0.19-0.68-0.36-1.02-0.54c-0.34-0.17-0.68-0.34-1.03-0.51c-0.34-0.16-0.69-0.32-1.04-0.48
				c-0.35-0.16-0.7-0.31-1.05-0.46c-0.36-0.15-0.71-0.29-1.07-0.43s-0.71-0.28-1.07-0.41c-0.36-0.13-0.73-0.26-1.09-0.38
				c-0.36-0.13-0.73-0.24-1.09-0.36c-4.71-1.42-9.38-2.13-14.3-2.1c-0.39,0-0.77,0.01-1.16,0.03c-0.38,0.01-0.76,0.03-1.15,0.06
				c-0.38,0.02-0.76,0.05-1.14,0.09c-0.39,0.03-0.77,0.07-1.15,0.11c-0.38,0.05-0.76,0.09-1.14,0.15c-0.38,0.05-0.76,0.11-1.14,0.17
				c-0.38,0.06-0.76,0.13-1.13,0.2c-0.38,0.07-0.76,0.15-1.13,0.23c-0.38,0.08-0.75,0.17-1.13,0.26c-0.37,0.09-0.74,0.19-1.11,0.29
				c-0.37,0.1-0.74,0.2-1.11,0.31s-0.73,0.22-1.1,0.34c-0.36,0.12-0.73,0.24-1.09,0.37c-0.36,0.13-0.72,0.26-1.08,0.4
				c-0.36,0.13-0.72,0.27-1.07,0.42c-0.36,0.14-0.71,0.29-1.06,0.45c-0.36,0.15-0.71,0.31-1.05,0.47c-0.35,0.17-0.7,0.33-1.04,0.51
				c-0.34,0.17-0.69,0.34-1.02,0.52c-0.34,0.18-0.68,0.37-1.02,0.55c-0.33,0.19-0.66,0.39-0.99,0.58c-0.33,0.2-0.66,0.4-0.98,0.6
				c-0.33,0.21-0.65,0.42-0.97,0.63c-0.32,0.21-0.64,0.43-0.95,0.65c-0.32,0.22-0.63,0.45-0.94,0.67c-0.3,0.23-0.61,0.46-0.91,0.7
				c-0.31,0.24-0.61,0.48-0.9,0.72c-0.3,0.24-0.59,0.49-0.88,0.74c-0.29,0.25-0.58,0.51-0.87,0.76c-0.28,0.26-0.56,0.52-0.84,0.79
				c-0.28,0.26-0.55,0.53-0.82,0.8c-0.27,0.28-0.54,0.55-0.81,0.83c-8.54,8.97-13.69,21.35-13.39,33.79
				c0.13,5.17,1.19,9.93,2.84,14.82h-7.6c-5.76-0.01-10.67-0.29-14.98-4.58c-1.2-1.19-2.3-2.82-2.3-4.56c0-0.94,0.37-1.79,1.05-2.43
				c0.66-0.64,1.57-1.02,2.5-0.98c0.68,0.03,1.42,0.29,1.87,0.82c0.32,0.38,0.44,0.85,0.39,1.34c-0.02,0.23-0.1,0.41-0.19,0.62
				c-1.07,0.8-2.86-0.65-3.2,1.37c-0.1,0.61,0.04,1.19,0.42,1.68c0.35,0.46,0.91,0.68,1.48,0.73c1.11,0.09,2.18-0.15,3.03-0.91
				c0.93-0.85,1.38-2.12,1.39-3.36c0.02-1.44-0.58-2.68-1.61-3.69c-0.06-0.06-0.13-0.12-0.2-0.19c-0.07-0.06-0.14-0.12-0.22-0.18
				c-0.07-0.06-0.15-0.11-0.22-0.17c-0.08-0.05-0.16-0.11-0.24-0.16s-0.16-0.1-0.24-0.14c-0.08-0.05-0.16-0.09-0.24-0.14
				c-0.09-0.04-0.17-0.08-0.26-0.12c-0.09-0.04-0.17-0.07-0.26-0.11c-0.09-0.03-0.18-0.06-0.27-0.09c-0.08-0.03-0.17-0.06-0.26-0.08
				c-0.1-0.03-0.19-0.05-0.28-0.07c-0.09-0.02-0.18-0.04-0.28-0.05c-0.09-0.02-0.18-0.03-0.27-0.04c-0.1-0.01-0.19-0.02-0.28-0.02
				c-0.1-0.01-0.19-0.01-0.29-0.02c-0.09,0-0.18,0.01-0.28,0.01c-1.68,0.06-3.35,0.81-4.48,2.06c-1.2,1.33-1.74,3.17-1.59,4.94
				c0.12,1.46,0.77,2.75,1.57,3.96c-3.92-0.22-6.66,0.46-9.86,2.78c-0.98,0.71-1.96,1.55-3.02,2.12c4.45,3.21,8.22,6.87,14.14,5.88
				c2.45-0.41,3.65-1.43,6.37-1.59c-3.75,3.9-5.87,7.64-5.77,13.21c0.08,4.32,1.79,8.27,4.92,11.24c0.18,0.17,0.36,0.34,0.55,0.5
				c0.19,0.16,0.38,0.31,0.57,0.46c0.19,0.16,0.39,0.3,0.59,0.44c0.2,0.14,0.41,0.28,0.62,0.41c0.2,0.13,0.42,0.26,0.63,0.38
				c0.21,0.12,0.43,0.23,0.65,0.34c0.22,0.11,0.44,0.22,0.67,0.32c0.22,0.1,0.45,0.19,0.68,0.28c0.23,0.08,0.46,0.17,0.7,0.24
				c0.23,0.08,0.46,0.15,0.7,0.21c0.24,0.07,0.48,0.13,0.72,0.18c0.24,0.05,0.48,0.1,0.72,0.14c0.24,0.04,0.49,0.08,0.73,0.11
				c0.25,0.02,0.49,0.05,0.74,0.06c0.24,0.02,0.49,0.03,0.73,0.04c0.25,0,0.49,0,0.74-0.01c3.13-0.1,6.07-1.37,8.21-3.68
				c1.88-2.03,2.9-4.65,2.77-7.41c-0.1-2.31-0.96-4.62-2.7-6.2c-1.5-1.35-3.65-2.13-5.67-2.01c-0.11,0-0.23,0.01-0.34,0.02
				c-0.11,0.01-0.23,0.03-0.34,0.05c-0.11,0.01-0.22,0.03-0.33,0.06c-0.11,0.02-0.23,0.04-0.34,0.07s-0.21,0.06-0.32,0.1
				c-0.11,0.03-0.22,0.07-0.33,0.11c-0.1,0.03-0.21,0.08-0.31,0.12c-0.11,0.05-0.21,0.09-0.31,0.14c-0.11,0.05-0.21,0.1-0.31,0.16
				c-0.1,0.05-0.19,0.11-0.29,0.17c-0.1,0.06-0.19,0.12-0.29,0.19c-0.09,0.06-0.18,0.13-0.27,0.2c-0.09,0.06-0.18,0.14-0.27,0.21
				s-0.17,0.15-0.25,0.22c-0.09,0.08-0.17,0.16-0.25,0.24c-0.08,0.08-0.15,0.17-0.23,0.25c-1.03,1.19-1.54,2.67-1.4,4.24
				c0.01,0.09,0.02,0.18,0.03,0.28c0.01,0.09,0.03,0.18,0.04,0.27c0.02,0.1,0.04,0.19,0.06,0.28c0.03,0.09,0.05,0.18,0.08,0.27
				c0.03,0.09,0.06,0.18,0.09,0.27c0.03,0.09,0.06,0.18,0.1,0.26c0.04,0.09,0.07,0.17,0.12,0.26c0.04,0.08,0.08,0.17,0.12,0.25
				c0.05,0.08,0.1,0.16,0.15,0.24c0.04,0.08,0.1,0.16,0.15,0.24c0.05,0.08,0.11,0.15,0.16,0.23c0.06,0.07,0.12,0.15,0.18,0.22
				s0.13,0.14,0.19,0.21c0.07,0.06,0.13,0.13,0.2,0.2l0.21,0.18c0.07,0.07,0.14,0.13,0.22,0.18c1.01,0.78,2.58,1.39,3.87,1.17
				c0.78-0.13,1.48-0.61,1.9-1.27c0.37-0.58,0.52-1.27,0.35-1.95c-0.1-0.4-0.34-0.81-0.7-1.03c-0.39-0.25-0.85-0.2-1.27-0.06
				c-0.59,0.2-1.07,0.81-1.49,1.26c-0.98-0.69-1.34-1.17-1.63-2.32c0.24-1.09,0.53-2.02,1.53-2.66c0.85-0.55,1.93-0.58,2.88-0.33
				c1.38,0.37,2.48,1.35,3.16,2.59c0.05,0.09,0.09,0.18,0.14,0.27c0.04,0.09,0.09,0.19,0.13,0.28c0.04,0.09,0.08,0.19,0.11,0.28
				c0.04,0.1,0.07,0.2,0.1,0.29c0.03,0.1,0.06,0.2,0.08,0.3c0.03,0.1,0.05,0.2,0.07,0.3s0.04,0.2,0.06,0.3
				c0.01,0.1,0.03,0.2,0.04,0.3s0.01,0.2,0.02,0.31c0,0.1,0.01,0.2,0.01,0.3c-0.01,0.1-0.01,0.21-0.01,0.31
				c-0.01,0.1-0.02,0.2-0.03,0.3c-0.01,0.1-0.02,0.21-0.04,0.31c-0.01,0.1-0.03,0.2-0.05,0.3c-0.02,0.1-0.05,0.2-0.07,0.3
				c-0.03,0.09-0.06,0.19-0.09,0.29c-0.04,0.12-0.09,0.25-0.13,0.37c-0.05,0.12-0.1,0.24-0.16,0.36c-0.05,0.12-0.11,0.24-0.17,0.36
				s-0.12,0.23-0.19,0.34c-0.06,0.12-0.13,0.23-0.2,0.34c-0.07,0.11-0.15,0.22-0.23,0.33c-0.07,0.1-0.15,0.21-0.23,0.31
				c-0.09,0.1-0.17,0.2-0.26,0.3c-0.09,0.1-0.18,0.19-0.27,0.29c-0.09,0.09-0.19,0.18-0.28,0.27c-0.1,0.09-0.2,0.18-0.3,0.26
				c-0.1,0.08-0.2,0.16-0.31,0.24c-0.11,0.08-0.21,0.16-0.32,0.23c-0.11,0.07-0.22,0.14-0.33,0.21c-0.12,0.07-0.23,0.13-0.35,0.19
				c-0.11,0.07-0.23,0.12-0.35,0.18c-2.43,1.16-5.29,1.12-7.79,0.22c-0.2-0.06-0.39-0.14-0.58-0.22s-0.38-0.16-0.56-0.25
				c-0.19-0.08-0.37-0.18-0.55-0.27c-0.19-0.1-0.36-0.2-0.54-0.31c-0.18-0.11-0.35-0.22-0.52-0.33c-0.17-0.12-0.34-0.24-0.5-0.36
				c-0.17-0.12-0.33-0.25-0.49-0.38c-0.16-0.13-0.31-0.27-0.46-0.41c-0.16-0.14-0.3-0.28-0.45-0.42c-0.14-0.15-0.28-0.3-0.42-0.46
				c-0.14-0.15-0.27-0.31-0.4-0.47c-0.13-0.16-0.25-0.32-0.37-0.49c-0.13-0.16-0.24-0.33-0.35-0.5c-0.12-0.18-0.22-0.35-0.33-0.53
				c-0.1-0.18-0.2-0.36-0.3-0.54c-0.09-0.18-0.18-0.37-0.27-0.56c-1.43-3.12-1.49-6.85-0.29-10.06c0.08-0.21,0.17-0.42,0.26-0.63
				c0.09-0.21,0.19-0.42,0.29-0.62c0.1-0.2,0.2-0.41,0.31-0.61c0.11-0.19,0.23-0.39,0.35-0.58c0.12-0.2,0.25-0.39,0.38-0.57
				c0.13-0.19,0.26-0.37,0.4-0.55c0.14-0.18,0.28-0.36,0.43-0.53c0.15-0.18,0.3-0.35,0.46-0.51c0.16-0.17,0.32-0.33,0.48-0.48
				c0.17-0.16,0.33-0.31,0.51-0.46c0.17-0.15,0.34-0.3,0.52-0.44c0.18-0.14,0.37-0.27,0.55-0.4c0.19-0.14,0.38-0.26,0.57-0.38
				s0.39-0.24,0.59-0.35c0.2-0.12,0.4-0.22,0.6-0.32c0.2-0.11,0.41-0.2,0.62-0.29c0.63-0.29,1.21-0.48,1.91-0.55
				c2.2-0.22,4.59-0.04,6.8-0.03l11.07-0.02c7.57,9.34,19.73,17.4,30.41,22.73c-3.71,2.64-7.3,5.45-10.93,8.21
				c-2.08,1.59-4.22,3.1-6.27,4.73c2.61,2.66,5.1,5.44,7.63,8.17c4.24-3.73,8.13-7.96,12.54-11.49c-0.25,4.75-0.96,9.57-1.48,14.3
				c-0.19,1.65-0.86,5.11-0.53,6.61c0.33,1.56,1.24,3.18,1.88,4.65c1.38,3.16,2.81,6.31,4.11,9.51l0.56-1.23
				c1.18-2.7,2.37-5.39,3.58-8.08c0.71-1.57,1.79-3.47,2.1-5.16c0.19-1.04-1.93-18.7-2.32-20.78c4.44,3.76,8.6,7.85,12.9,11.77
				c2.59-2.8,5.13-5.7,7.87-8.34l-12.48-9.4c-1.53-1.13-3-2.38-4.59-3.42c2.12-1.36,4.32-2.6,6.47-3.92
				c8.89-5.43,17.94-11.21,24.54-19.41l8.52-0.06c5.47-0.04,10.03-0.18,14.23,3.95c2.5,2.46,4.05,6.06,4.05,9.58
				c-0.01,3.39-1.39,6.9-3.81,9.3c-0.13,0.13-0.27,0.26-0.4,0.38c-0.14,0.13-0.28,0.25-0.43,0.37c-0.14,0.12-0.29,0.23-0.44,0.34
				c-0.15,0.11-0.3,0.22-0.45,0.33c-0.16,0.1-0.32,0.2-0.47,0.3c-0.16,0.09-0.33,0.18-0.49,0.27c-0.17,0.09-0.33,0.17-0.5,0.25
				s-0.34,0.16-0.51,0.23s-0.35,0.14-0.52,0.2c-0.18,0.07-0.35,0.13-0.53,0.18c-0.18,0.06-0.36,0.11-0.54,0.15
				c-0.18,0.05-0.36,0.09-0.55,0.12c-0.18,0.04-0.36,0.07-0.55,0.1c-0.18,0.03-0.37,0.05-0.55,0.07c-0.19,0.02-0.37,0.03-0.56,0.04
				s-0.37,0.02-0.56,0.02c-2.21-0.02-4.39-0.86-5.97-2.42c-1.23-1.23-2.19-3.13-2.18-4.9c0.01-1.54,0.66-3.13,1.77-4.21
				c0.85-0.81,2.07-1.41,3.27-1.35c0.91,0.05,1.7,0.47,2.29,1.16c0.55,0.65,0.9,1.32,0.8,2.19c-0.07,0.59-0.34,1.21-0.82,1.58
				c-0.32,0.24-0.69,0.33-1.08,0.24c-1.28-0.29-1.39-1.7-2.98-0.82c-0.35,0.2-0.55,0.47-0.64,0.86c-0.15,0.64,0.23,1.48,0.61,1.97
				c0.69,0.89,1.78,1.39,2.89,1.48c1.27,0.1,2.49-0.31,3.44-1.17c1.07-0.97,1.98-2.64,2.01-4.11c0.04-1.73-0.49-3.32-1.69-4.59
				c-1.31-1.38-3.15-2.11-5.05-2.12c-0.13,0-0.26,0-0.38,0.01c-0.13,0-0.26,0.01-0.39,0.02c-0.13,0.01-0.26,0.02-0.39,0.04
				c-0.12,0.02-0.25,0.04-0.38,0.06c-0.13,0.03-0.25,0.06-0.38,0.09c-0.12,0.03-0.25,0.06-0.37,0.1c-0.13,0.03-0.25,0.07-0.37,0.11
				c-0.12,0.05-0.24,0.09-0.36,0.14c-0.12,0.05-0.24,0.1-0.36,0.15c-0.12,0.06-0.23,0.12-0.35,0.18c-0.11,0.06-0.23,0.12-0.34,0.19
				c-0.11,0.06-0.22,0.13-0.33,0.2c-0.1,0.07-0.21,0.15-0.31,0.22c-0.11,0.08-0.21,0.16-0.31,0.24c-0.1,0.08-0.2,0.16-0.3,0.25
				c-0.09,0.09-0.19,0.18-0.28,0.27c-1.73,1.73-2.6,4.25-2.58,6.68c0.02,2.77,1.16,5.34,3.14,7.27c2.39,2.33,5.41,3.49,8.74,3.44
				c3.9-0.06,7.52-1.75,10.21-4.55c0.19-0.2,0.38-0.41,0.56-0.61c0.18-0.21,0.36-0.42,0.53-0.64c0.17-0.21,0.33-0.43,0.49-0.66
				c0.16-0.22,0.31-0.45,0.46-0.68c0.15-0.23,0.29-0.47,0.42-0.71c0.14-0.24,0.27-0.48,0.39-0.72c0.13-0.25,0.25-0.5,0.36-0.75
				c0.11-0.25,0.22-0.5,0.31-0.76c0.1-0.26,0.2-0.52,0.28-0.78c0.09-0.26,0.17-0.52,0.24-0.79c0.07-0.26,0.14-0.53,0.2-0.8
				c0.06-0.26,0.11-0.53,0.16-0.8c0.05-0.28,0.09-0.55,0.12-0.82c0.03-0.27,0.06-0.55,0.08-0.82c0.02-0.28,0.03-0.55,0.03-0.82
				c0.01-0.28,0.01-0.55,0-0.83c-0.12-5.15-2.41-9.12-6.02-12.64c6.17,1.54,8.62,3.48,14.7-0.19c1.95-1.18,3.77-2.28,5.87-3.18
				C254.93,108.33,251.33,105.69,246.61,105.73z M176.61,105.73c-12.04,0.01-24.08-0.06-36.12,0.12c0.96-5.22,1.86-10.46,2.69-15.7
				c0.39-2.45,0.96-8.01,1.84-10.04c0.91-2.1,8.17-4.84,10.38-6c1.79-0.94,3.53-1.98,5.11-3.24c1.53-1.21,3.6-2.89,4.35-4.75
				c0.34-0.86,0.56-1.86,1.14-2.61c1.43-1.83,4.46-2.09,6.6-2.31c2.92-0.34,7.78-0.2,10.38,1.21c1.92,1.04,2.36,2.87,2.96,4.8
				c2.08,2.01,4.24,4.1,6.78,5.51c1.61,0.89,3.3,1.64,5,2.34c2.14,0.87,4.96,1.5,6.64,3.14c0.71,0.7,1.17,1.58,1.5,2.52
				c0.6,1.72,0.78,3.66,1.08,5.47c1.08,6.53,1.76,12.92,1.73,19.55L176.61,105.73z M186.97,75.92c-0.63,2.58-1.27,5.04-2.35,7.49
				c-1.5-2.45-3.02-4.85-5.07-6.88c-1.57,1.13-3.33,1.94-5.33,1.6c-1.28-0.22-2.35-0.83-3.32-1.66c-2.06,2.1-3.73,4.41-5.18,6.96
				c-1.33-2.42-1.85-5.04-2.48-7.7c-0.35,4.48-0.38,5.99,1.3,10.23c2.54,6.43,6.66,11.51,10.77,16.97
				c4.32-5.59,7.91-12.09,10.59-18.61c0.5-1.21,1.09-2.49,1.34-3.78c0.24-1.24,0.04-2.59-0.12-3.84
				C187.09,76.43,187.04,76.18,186.97,75.92z M175.65,100.21c-0.64-0.43-1.2-0.93-1.77-1.44c-0.81-0.82-1.96-2.03-2.37-3.09
				c-0.14-0.34-0.14-0.48,0-0.81c0.27-0.18,0.49-0.25,0.81-0.27c1.95-0.12,3.69,0.14,5.76-0.09c0.38-0.06,0.67-0.05,1.06,0
				c0.01,0.03,0.02,0.07,0.02,0.1C179.21,95.55,176.36,99.29,175.65,100.21z M179.24,93.24c-0.1-0.04-0.19-0.08-0.28-0.13
				c-1.08-0.55-2.3-0.6-3.42-1.2c-0.14-0.1-0.05-0.05-0.31-0.11c-1.05,0.82-2.81,1.05-4.1,1.38c0.66-2.21,1.88-4.42,3.23-6.28
				c-1.76-2.05-2.03-4.01-1.99-6.64c0.62-0.21,1.26-0.33,1.89-0.47c1.34-0.11,2.53,0,3.81,0.38c0.31,2.63-0.24,4.38-1.19,6.8
				C177.38,88.01,179.55,92.31,179.24,93.24z M187.12,76.7c-0.03-0.27-0.08-0.52-0.15-0.78c-0.63,2.58-1.27,5.04-2.35,7.49
				c-1.5-2.45-3.02-4.85-5.07-6.88c-1.57,1.13-3.33,1.94-5.33,1.6c-1.28-0.22-2.35-0.83-3.32-1.66c-2.06,2.1-3.73,4.41-5.18,6.96
				c-1.33-2.42-1.85-5.04-2.48-7.7c-0.35,4.48-0.38,5.99,1.3,10.23c2.54,6.43,6.66,11.51,10.77,16.97
				c4.32-5.59,7.91-12.09,10.59-18.61c0.5-1.21,1.09-2.49,1.34-3.78C187.48,79.3,187.28,77.95,187.12,76.7z M175.65,100.21
				c-0.64-0.43-1.2-0.93-1.77-1.44c-0.81-0.82-1.96-2.03-2.37-3.09c-0.14-0.34-0.14-0.48,0-0.81c0.27-0.18,0.49-0.25,0.81-0.27
				c1.95-0.12,3.69,0.14,5.76-0.09c0.38-0.06,0.67-0.05,1.06,0c0.01,0.03,0.02,0.07,0.02,0.1
				C179.21,95.55,176.36,99.29,175.65,100.21z M179.24,93.24c-0.1-0.04-0.19-0.08-0.28-0.13c-1.08-0.55-2.3-0.6-3.42-1.2
				c-0.14-0.1-0.05-0.05-0.31-0.11c-1.05,0.82-2.81,1.05-4.1,1.38c0.66-2.21,1.88-4.42,3.23-6.28c-1.76-2.05-2.03-4.01-1.99-6.64
				c0.62-0.21,1.26-0.33,1.89-0.47c1.34-0.11,2.53,0,3.81,0.38c0.31,2.63-0.24,4.38-1.19,6.8
				C177.38,88.01,179.55,92.31,179.24,93.24z M187.12,76.7c-0.03-0.27-0.08-0.52-0.15-0.78c-0.63,2.58-1.27,5.04-2.35,7.49
				c-1.5-2.45-3.02-4.85-5.07-6.88c-1.57,1.13-3.33,1.94-5.33,1.6c-1.28-0.22-2.35-0.83-3.32-1.66c-2.06,2.1-3.73,4.41-5.18,6.96
				c-1.33-2.42-1.85-5.04-2.48-7.7c-0.35,4.48-0.38,5.99,1.3,10.23c2.54,6.43,6.66,11.51,10.77,16.97
				c4.32-5.59,7.91-12.09,10.59-18.61c0.5-1.21,1.09-2.49,1.34-3.78C187.48,79.3,187.28,77.95,187.12,76.7z M175.65,100.21
				c-0.64-0.43-1.2-0.93-1.77-1.44c-0.81-0.82-1.96-2.03-2.37-3.09c-0.14-0.34-0.14-0.48,0-0.81c0.27-0.18,0.49-0.25,0.81-0.27
				c1.95-0.12,3.69,0.14,5.76-0.09c0.38-0.06,0.67-0.05,1.06,0c0.01,0.03,0.02,0.07,0.02,0.1
				C179.21,95.55,176.36,99.29,175.65,100.21z M179.24,93.24c-0.1-0.04-0.19-0.08-0.28-0.13c-1.08-0.55-2.3-0.6-3.42-1.2
				c-0.14-0.1-0.05-0.05-0.31-0.11c-1.05,0.82-2.81,1.05-4.1,1.38c0.66-2.21,1.88-4.42,3.23-6.28c-1.76-2.05-2.03-4.01-1.99-6.64
				c0.62-0.21,1.26-0.33,1.89-0.47c1.34-0.11,2.53,0,3.81,0.38c0.31,2.63-0.24,4.38-1.19,6.8
				C177.38,88.01,179.55,92.31,179.24,93.24z M187.12,76.7c-0.03-0.27-0.08-0.52-0.15-0.78c-0.63,2.58-1.27,5.04-2.35,7.49
				c-1.5-2.45-3.02-4.85-5.07-6.88c-1.57,1.13-3.33,1.94-5.33,1.6c-1.28-0.22-2.35-0.83-3.32-1.66c-2.06,2.1-3.73,4.41-5.18,6.96
				c-1.33-2.42-1.85-5.04-2.48-7.7c-0.35,4.48-0.38,5.99,1.3,10.23c2.54,6.43,6.66,11.51,10.77,16.97
				c4.32-5.59,7.91-12.09,10.59-18.61c0.5-1.21,1.09-2.49,1.34-3.78C187.48,79.3,187.28,77.95,187.12,76.7z M175.65,100.21
				c-0.64-0.43-1.2-0.93-1.77-1.44c-0.81-0.82-1.96-2.03-2.37-3.09c-0.14-0.34-0.14-0.48,0-0.81c0.27-0.18,0.49-0.25,0.81-0.27
				c1.95-0.12,3.69,0.14,5.76-0.09c0.38-0.06,0.67-0.05,1.06,0c0.01,0.03,0.02,0.07,0.02,0.1
				C179.21,95.55,176.36,99.29,175.65,100.21z M179.24,93.24c-0.1-0.04-0.19-0.08-0.28-0.13c-1.08-0.55-2.3-0.6-3.42-1.2
				c-0.14-0.1-0.05-0.05-0.31-0.11c-1.05,0.82-2.81,1.05-4.1,1.38c0.66-2.21,1.88-4.42,3.23-6.28c-1.76-2.05-2.03-4.01-1.99-6.64
				c0.62-0.21,1.26-0.33,1.89-0.47c1.34-0.11,2.53,0,3.81,0.38c0.31,2.63-0.24,4.38-1.19,6.8
				C177.38,88.01,179.55,92.31,179.24,93.24z M187.12,76.7c-0.03-0.27-0.08-0.52-0.15-0.78c-0.63,2.58-1.27,5.04-2.35,7.49
				c-1.5-2.45-3.02-4.85-5.07-6.88c-1.57,1.13-3.33,1.94-5.33,1.6c-1.28-0.22-2.35-0.83-3.32-1.66c-2.06,2.1-3.73,4.41-5.18,6.96
				c-1.33-2.42-1.85-5.04-2.48-7.7c-0.35,4.48-0.38,5.99,1.3,10.23c2.54,6.43,6.66,11.51,10.77,16.97
				c4.32-5.59,7.91-12.09,10.59-18.61c0.5-1.21,1.09-2.49,1.34-3.78C187.48,79.3,187.28,77.95,187.12,76.7z M175.65,100.21
				c-0.64-0.43-1.2-0.93-1.77-1.44c-0.81-0.82-1.96-2.03-2.37-3.09c-0.14-0.34-0.14-0.48,0-0.81c0.27-0.18,0.49-0.25,0.81-0.27
				c1.95-0.12,3.69,0.14,5.76-0.09c0.38-0.06,0.67-0.05,1.06,0c0.01,0.03,0.02,0.07,0.02,0.1
				C179.21,95.55,176.36,99.29,175.65,100.21z M179.24,93.24c-0.1-0.04-0.19-0.08-0.28-0.13c-1.08-0.55-2.3-0.6-3.42-1.2
				c-0.14-0.1-0.05-0.05-0.31-0.11c-1.05,0.82-2.81,1.05-4.1,1.38c0.66-2.21,1.88-4.42,3.23-6.28c-1.76-2.05-2.03-4.01-1.99-6.64
				c0.62-0.21,1.26-0.33,1.89-0.47c1.34-0.11,2.53,0,3.81,0.38c0.31,2.63-0.24,4.38-1.19,6.8
				C177.38,88.01,179.55,92.31,179.24,93.24z M187.12,76.7c-0.03-0.27-0.08-0.52-0.15-0.78c-0.63,2.58-1.27,5.04-2.35,7.49
				c-1.5-2.45-3.02-4.85-5.07-6.88c-1.57,1.13-3.33,1.94-5.33,1.6c-1.28-0.22-2.35-0.83-3.32-1.66c-2.06,2.1-3.73,4.41-5.18,6.96
				c-1.33-2.42-1.85-5.04-2.48-7.7c-0.35,4.48-0.38,5.99,1.3,10.23c2.54,6.43,6.66,11.51,10.77,16.97
				c4.32-5.59,7.91-12.09,10.59-18.61c0.5-1.21,1.09-2.49,1.34-3.78C187.48,79.3,187.28,77.95,187.12,76.7z M175.65,100.21
				c-0.64-0.43-1.2-0.93-1.77-1.44c-0.81-0.82-1.96-2.03-2.37-3.09c-0.14-0.34-0.14-0.48,0-0.81c0.27-0.18,0.49-0.25,0.81-0.27
				c1.95-0.12,3.69,0.14,5.76-0.09c0.38-0.06,0.67-0.05,1.06,0c0.01,0.03,0.02,0.07,0.02,0.1
				C179.21,95.55,176.36,99.29,175.65,100.21z M179.24,93.24c-0.1-0.04-0.19-0.08-0.28-0.13c-1.08-0.55-2.3-0.6-3.42-1.2
				c-0.14-0.1-0.05-0.05-0.31-0.11c-1.05,0.82-2.81,1.05-4.1,1.38c0.66-2.21,1.88-4.42,3.23-6.28c-1.76-2.05-2.03-4.01-1.99-6.64
				c0.62-0.21,1.26-0.33,1.89-0.47c1.34-0.11,2.53,0,3.81,0.38c0.31,2.63-0.24,4.38-1.19,6.8
				C177.38,88.01,179.55,92.31,179.24,93.24z"/>
			<path class="st70" d="M161.58,149.38c-0.29-0.51-0.8-0.95-1.37-1.11c-0.39-0.11-0.82-0.06-1.22-0.04
				c-0.65,0.41-1.2,0.8-1.39,1.59c-0.14,0.58-0.07,1.18,0.25,1.69c0.35,0.54,0.98,0.89,1.6,0.98c0.3,0.04,0.6,0,0.9-0.03
				c0.66-0.34,1.14-0.68,1.39-1.42C161.93,150.48,161.86,149.89,161.58,149.38z M192.57,149.06c-0.35-0.46-0.92-0.81-1.5-0.86
				c-0.33-0.03-0.67,0.01-0.99,0.04c-0.66,0.38-1.21,0.73-1.42,1.51c-0.15,0.58-0.06,1.16,0.27,1.66c0.34,0.51,1,0.95,1.61,1.02
				c0.31,0.04,0.64,0,0.96-0.02c0.69-0.44,1.25-0.89,1.41-1.74C193.03,150.1,192.93,149.52,192.57,149.06z M101.05,110.66
				c3.84-0.22,5.86,0.85,9.31,1.13c-2.1-1.79-5.12-3.26-7.94-3.14c-0.05,0.01-0.1,0.01-0.15,0.02c-2.25,0.26-3.8,0.91-5.65,2.2
				c2.74,1.99,5.31,3.54,8.84,3c0.3-0.05,0.61-0.11,0.91-0.19c0.29-0.08,0.59-0.18,0.88-0.29c0.28-0.11,0.56-0.24,0.84-0.39
				c0.27-0.15,0.53-0.31,0.78-0.49l-2.33-0.51C104.71,111.56,102.86,111.17,101.05,110.66z M246.13,108.8
				c-2.59,0.27-5.42,1.55-7.56,3c3.42,0.25,6.6-0.95,9.98-1.01c-1.89,0.81-3.78,1.59-5.68,2.36l-1.46,0.62
				c3.14,1.11,5.83,1.29,8.91-0.16c1.25-0.58,2.55-1.33,3.67-2.13C251.76,109.78,249,108.51,246.13,108.8z M175.32,145.15
				c-0.12-0.14-0.18-0.22-0.36-0.3c-0.16,0.29-0.23,0.52-0.27,0.86c-0.31,2.36-1.74,21.35-1.43,22.45c0.2,0.73,1.52,4.32,1.99,4.67
				c0.62-1.6,1.61-3.51,1.82-5.19C177.23,166.28,175.71,146.51,175.32,145.15z M202.86,114.43c-5.79,5.76-12.38,10.56-18.84,15.52
				c-1.88,1.44-3.9,2.78-5.69,4.31l1.76,1.33c0.72-0.55,1.43-1.11,2.17-1.62c8.78-6.27,18.64-11.54,26.01-19.55
				C206.47,114.46,204.66,114.47,202.86,114.43z M147.94,114.59c-0.42,0-0.85-0.01-1.28,0l-4.21,0.05c2.75,2.62,5.58,5.2,8.6,7.51
				c4.67,3.57,9.66,6.65,14.5,9.97c2.76,1.9,5.42,3.92,8.13,5.88c-3.02,2.29-6.16,4.5-9.05,6.93c0.42,0.57,0.84,1.16,1.3,1.71
				c2.59-1.97,5.09-4.06,7.7-6l1.69-1.33c2.83,2.25,6.19,5.29,9.25,7.08c0.35-0.53,0.69-1.07,1.07-1.57
				C173.06,134.75,159.72,125.62,147.94,114.59z M186.13,114.45l-32.4,0.08c5.17,4.55,10.56,8.78,15.99,13
				c1.87,1.46,3.87,2.88,5.64,4.45c1.91-1.43,3.68-3.02,5.54-4.51c2.59-2.07,5.25-4.06,7.85-6.13c2.89-2.3,5.92-4.41,8.64-6.91
				C193.64,114.41,189.88,114.42,186.13,114.45z M187.12,76.7c-0.03-0.27-0.08-0.52-0.15-0.78c-0.63,2.58-1.27,5.04-2.35,7.49
				c-1.5-2.45-3.02-4.85-5.07-6.88c-1.57,1.13-3.33,1.94-5.33,1.6c-1.28-0.22-2.35-0.83-3.32-1.66c-2.06,2.1-3.73,4.41-5.18,6.96
				c-1.33-2.42-1.85-5.04-2.48-7.7c-0.35,4.48-0.38,5.99,1.3,10.23c2.54,6.43,6.66,11.51,10.77,16.97
				c4.32-5.59,7.91-12.09,10.59-18.61c0.5-1.21,1.09-2.49,1.34-3.78C187.48,79.3,187.28,77.95,187.12,76.7z M175.65,100.21
				c-0.64-0.43-1.2-0.93-1.77-1.44c-0.81-0.82-1.96-2.03-2.37-3.09c-0.14-0.34-0.14-0.48,0-0.81c0.27-0.18,0.49-0.25,0.81-0.27
				c1.95-0.12,3.69,0.14,5.76-0.09c0.38-0.06,0.67-0.05,1.06,0c0.01,0.03,0.02,0.07,0.02,0.1
				C179.21,95.55,176.36,99.29,175.65,100.21z M179.24,93.24c-0.1-0.04-0.19-0.08-0.28-0.13c-1.08-0.55-2.3-0.6-3.42-1.2
				c-0.14-0.1-0.05-0.05-0.31-0.11c-1.05,0.82-2.81,1.05-4.1,1.38c0.66-2.21,1.88-4.42,3.23-6.28c-1.76-2.05-2.03-4.01-1.99-6.64
				c0.62-0.21,1.26-0.33,1.89-0.47c1.34-0.11,2.53,0,3.81,0.38c0.31,2.63-0.24,4.38-1.19,6.8
				C177.38,88.01,179.55,92.31,179.24,93.24z M187.12,76.7c-0.03-0.27-0.08-0.52-0.15-0.78c-0.63,2.58-1.27,5.04-2.35,7.49
				c-1.5-2.45-3.02-4.85-5.07-6.88c-1.57,1.13-3.33,1.94-5.33,1.6c-1.28-0.22-2.35-0.83-3.32-1.66c-2.06,2.1-3.73,4.41-5.18,6.96
				c-1.33-2.42-1.85-5.04-2.48-7.7c-0.35,4.48-0.38,5.99,1.3,10.23c2.54,6.43,6.66,11.51,10.77,16.97
				c4.32-5.59,7.91-12.09,10.59-18.61c0.5-1.21,1.09-2.49,1.34-3.78C187.48,79.3,187.28,77.95,187.12,76.7z M175.65,100.21
				c-0.64-0.43-1.2-0.93-1.77-1.44c-0.81-0.82-1.96-2.03-2.37-3.09c-0.14-0.34-0.14-0.48,0-0.81c0.27-0.18,0.49-0.25,0.81-0.27
				c1.95-0.12,3.69,0.14,5.76-0.09c0.38-0.06,0.67-0.05,1.06,0c0.01,0.03,0.02,0.07,0.02,0.1
				C179.21,95.55,176.36,99.29,175.65,100.21z M179.24,93.24c-0.1-0.04-0.19-0.08-0.28-0.13c-1.08-0.55-2.3-0.6-3.42-1.2
				c-0.14-0.1-0.05-0.05-0.31-0.11c-1.05,0.82-2.81,1.05-4.1,1.38c0.66-2.21,1.88-4.42,3.23-6.28c-1.76-2.05-2.03-4.01-1.99-6.64
				c0.62-0.21,1.26-0.33,1.89-0.47c1.34-0.11,2.53,0,3.81,0.38c0.31,2.63-0.24,4.38-1.19,6.8
				C177.38,88.01,179.55,92.31,179.24,93.24z M187.12,76.7c-0.03-0.27-0.08-0.52-0.15-0.78c-0.63,2.58-1.27,5.04-2.35,7.49
				c-1.5-2.45-3.02-4.85-5.07-6.88c-1.57,1.13-3.33,1.94-5.33,1.6c-1.28-0.22-2.35-0.83-3.32-1.66c-2.06,2.1-3.73,4.41-5.18,6.96
				c-1.33-2.42-1.85-5.04-2.48-7.7c-0.35,4.48-0.38,5.99,1.3,10.23c2.54,6.43,6.66,11.51,10.77,16.97
				c4.32-5.59,7.91-12.09,10.59-18.61c0.5-1.21,1.09-2.49,1.34-3.78C187.48,79.3,187.28,77.95,187.12,76.7z M175.65,100.21
				c-0.64-0.43-1.2-0.93-1.77-1.44c-0.81-0.82-1.96-2.03-2.37-3.09c-0.14-0.34-0.14-0.48,0-0.81c0.27-0.18,0.49-0.25,0.81-0.27
				c1.95-0.12,3.69,0.14,5.76-0.09c0.38-0.06,0.67-0.05,1.06,0c0.01,0.03,0.02,0.07,0.02,0.1
				C179.21,95.55,176.36,99.29,175.65,100.21z M179.24,93.24c-0.1-0.04-0.19-0.08-0.28-0.13c-1.08-0.55-2.3-0.6-3.42-1.2
				c-0.14-0.1-0.05-0.05-0.31-0.11c-1.05,0.82-2.81,1.05-4.1,1.38c0.66-2.21,1.88-4.42,3.23-6.28c-1.76-2.05-2.03-4.01-1.99-6.64
				c0.62-0.21,1.26-0.33,1.89-0.47c1.34-0.11,2.53,0,3.81,0.38c0.31,2.63-0.24,4.38-1.19,6.8
				C177.38,88.01,179.55,92.31,179.24,93.24z M187.12,76.7c-0.03-0.27-0.08-0.52-0.15-0.78c-0.63,2.58-1.27,5.04-2.35,7.49
				c-1.5-2.45-3.02-4.85-5.07-6.88c-1.57,1.13-3.33,1.94-5.33,1.6c-1.28-0.22-2.35-0.83-3.32-1.66c-2.06,2.1-3.73,4.41-5.18,6.96
				c-1.33-2.42-1.85-5.04-2.48-7.7c-0.35,4.48-0.38,5.99,1.3,10.23c2.54,6.43,6.66,11.51,10.77,16.97
				c4.32-5.59,7.91-12.09,10.59-18.61c0.5-1.21,1.09-2.49,1.34-3.78C187.48,79.3,187.28,77.95,187.12,76.7z M175.65,100.21
				c-0.64-0.43-1.2-0.93-1.77-1.44c-0.81-0.82-1.96-2.03-2.37-3.09c-0.14-0.34-0.14-0.48,0-0.81c0.27-0.18,0.49-0.25,0.81-0.27
				c1.95-0.12,3.69,0.14,5.76-0.09c0.38-0.06,0.67-0.05,1.06,0c0.01,0.03,0.02,0.07,0.02,0.1
				C179.21,95.55,176.36,99.29,175.65,100.21z M179.24,93.24c-0.1-0.04-0.19-0.08-0.28-0.13c-1.08-0.55-2.3-0.6-3.42-1.2
				c-0.14-0.1-0.05-0.05-0.31-0.11c-1.05,0.82-2.81,1.05-4.1,1.38c0.66-2.21,1.88-4.42,3.23-6.28c-1.76-2.05-2.03-4.01-1.99-6.64
				c0.62-0.21,1.26-0.33,1.89-0.47c1.34-0.11,2.53,0,3.81,0.38c0.31,2.63-0.24,4.38-1.19,6.8
				C177.38,88.01,179.55,92.31,179.24,93.24z M187.12,76.7c-0.03-0.27-0.08-0.52-0.15-0.78c-0.63,2.58-1.27,5.04-2.35,7.49
				c-1.5-2.45-3.02-4.85-5.07-6.88c-1.57,1.13-3.33,1.94-5.33,1.6c-1.28-0.22-2.35-0.83-3.32-1.66c-2.06,2.1-3.73,4.41-5.18,6.96
				c-1.33-2.42-1.85-5.04-2.48-7.7c-0.35,4.48-0.38,5.99,1.3,10.23c2.54,6.43,6.66,11.51,10.77,16.97
				c4.32-5.59,7.91-12.09,10.59-18.61c0.5-1.21,1.09-2.49,1.34-3.78C187.48,79.3,187.28,77.95,187.12,76.7z M175.65,100.21
				c-0.64-0.43-1.2-0.93-1.77-1.44c-0.81-0.82-1.96-2.03-2.37-3.09c-0.14-0.34-0.14-0.48,0-0.81c0.27-0.18,0.49-0.25,0.81-0.27
				c1.95-0.12,3.69,0.14,5.76-0.09c0.38-0.06,0.67-0.05,1.06,0c0.01,0.03,0.02,0.07,0.02,0.1
				C179.21,95.55,176.36,99.29,175.65,100.21z M179.24,93.24c-0.1-0.04-0.19-0.08-0.28-0.13c-1.08-0.55-2.3-0.6-3.42-1.2
				c-0.14-0.1-0.05-0.05-0.31-0.11c-1.05,0.82-2.81,1.05-4.1,1.38c0.66-2.21,1.88-4.42,3.23-6.28c-1.76-2.05-2.03-4.01-1.99-6.64
				c0.62-0.21,1.26-0.33,1.89-0.47c1.34-0.11,2.53,0,3.81,0.38c0.31,2.63-0.24,4.38-1.19,6.8
				C177.38,88.01,179.55,92.31,179.24,93.24z M187.12,76.7c-0.03-0.27-0.08-0.52-0.15-0.78c-0.63,2.58-1.27,5.04-2.35,7.49
				c-1.5-2.45-3.02-4.85-5.07-6.88c-1.57,1.13-3.33,1.94-5.33,1.6c-1.28-0.22-2.35-0.83-3.32-1.66c-2.06,2.1-3.73,4.41-5.18,6.96
				c-1.33-2.42-1.85-5.04-2.48-7.7c-0.35,4.48-0.38,5.99,1.3,10.23c2.54,6.43,6.66,11.51,10.77,16.97
				c4.32-5.59,7.91-12.09,10.59-18.61c0.5-1.21,1.09-2.49,1.34-3.78C187.48,79.3,187.28,77.95,187.12,76.7z M175.65,100.21
				c-0.64-0.43-1.2-0.93-1.77-1.44c-0.81-0.82-1.96-2.03-2.37-3.09c-0.14-0.34-0.14-0.48,0-0.81c0.27-0.18,0.49-0.25,0.81-0.27
				c1.95-0.12,3.69,0.14,5.76-0.09c0.38-0.06,0.67-0.05,1.06,0c0.01,0.03,0.02,0.07,0.02,0.1
				C179.21,95.55,176.36,99.29,175.65,100.21z M179.24,93.24c-0.1-0.04-0.19-0.08-0.28-0.13c-1.08-0.55-2.3-0.6-3.42-1.2
				c-0.14-0.1-0.05-0.05-0.31-0.11c-1.05,0.82-2.81,1.05-4.1,1.38c0.66-2.21,1.88-4.42,3.23-6.28c-1.76-2.05-2.03-4.01-1.99-6.64
				c0.62-0.21,1.26-0.33,1.89-0.47c1.34-0.11,2.53,0,3.81,0.38c0.31,2.63-0.24,4.38-1.19,6.8
				C177.38,88.01,179.55,92.31,179.24,93.24z M213.85,75.78c-0.17-0.33-0.33-0.65-0.5-0.96c-0.17-0.32-0.34-0.64-0.52-0.95
				c-0.17-0.32-0.35-0.63-0.54-0.94c-0.18-0.31-0.37-0.62-0.56-0.92c-0.19-0.31-0.38-0.61-0.58-0.91s-0.4-0.6-0.61-0.89
				c-0.21-0.3-0.42-0.59-0.63-0.88c-0.21-0.29-0.43-0.58-0.65-0.86c-0.22-0.29-0.44-0.57-0.67-0.85c-0.23-0.28-0.46-0.56-0.69-0.83
				c-0.24-0.27-0.47-0.55-0.71-0.81c-0.24-0.27-0.49-0.54-0.74-0.8c-0.24-0.26-0.49-0.52-0.75-0.78c-0.25-0.25-0.51-0.5-0.77-0.75
				c-0.25-0.25-0.52-0.5-0.78-0.74c-0.27-0.25-0.54-0.49-0.81-0.72c-0.27-0.24-0.54-0.47-0.82-0.7c-0.28-0.23-0.56-0.46-0.84-0.68
				c-0.28-0.23-0.57-0.45-0.86-0.66c-0.29-0.22-0.58-0.43-0.87-0.64c-0.29-0.21-0.59-0.41-0.89-0.62c-0.3-0.2-0.6-0.4-0.9-0.59
				c-0.3-0.19-0.61-0.38-0.92-0.57c-0.3-0.19-0.61-0.37-0.93-0.55c-0.31-0.18-0.62-0.36-0.94-0.53c-0.32-0.17-0.63-0.34-0.96-0.5
				c-0.32-0.16-0.64-0.32-0.96-0.48c-0.33-0.16-0.65-0.31-0.98-0.46c-0.33-0.14-0.66-0.29-0.99-0.43c-0.33-0.14-0.67-0.27-1-0.41
				c-0.34-0.13-0.68-0.25-1.01-0.38c-0.34-0.12-0.68-0.24-1.02-0.36c-4.72-1.56-10.8-2.73-15.78-2.14
				c-0.35,0.03-0.71,0.06-1.06,0.09c-0.36,0.03-0.71,0.07-1.07,0.11c-0.35,0.04-0.71,0.08-1.06,0.13c-0.36,0.05-0.71,0.11-1.06,0.17
				c-0.35,0.06-0.7,0.12-1.05,0.19c-0.35,0.07-0.7,0.14-1.05,0.21c-0.35,0.08-0.7,0.16-1.05,0.25c-0.34,0.08-0.69,0.17-1.03,0.27
				c-0.35,0.09-0.69,0.19-1.03,0.29c-0.34,0.1-0.69,0.21-1.02,0.32c-0.34,0.11-0.68,0.23-1.02,0.35c-0.33,0.12-0.67,0.24-1,0.37
				c-0.34,0.13-0.67,0.26-1,0.4c-0.33,0.13-0.66,0.27-0.98,0.42c-0.33,0.14-0.65,0.29-0.98,0.44c-0.32,0.16-0.64,0.31-0.96,0.48
				c-0.32,0.16-0.63,0.32-0.95,0.49c-0.31,0.17-0.62,0.34-0.93,0.52c-0.31,0.17-0.62,0.36-0.93,0.54c-0.3,0.18-0.61,0.37-0.91,0.56
				c-0.3,0.2-0.6,0.39-0.89,0.59c-0.3,0.2-0.59,0.4-0.88,0.61c-0.3,0.21-0.58,0.42-0.87,0.63c-0.29,0.22-0.57,0.44-0.85,0.66
				c-0.28,0.22-0.56,0.44-0.83,0.67c-0.27,0.23-0.55,0.46-0.82,0.7c-0.26,0.23-0.53,0.47-0.79,0.71c-0.27,0.24-0.52,0.49-0.78,0.74
				c-0.26,0.24-0.51,0.5-0.76,0.75c-0.25,0.26-0.5,0.51-0.74,0.77c-0.25,0.27-0.49,0.53-0.72,0.8c-0.24,0.26-0.47,0.53-0.7,0.81
				c-0.24,0.26-0.46,0.53-0.69,0.8c-0.22,0.27-0.44,0.55-0.66,0.83c-0.22,0.27-0.43,0.55-0.64,0.84c-0.22,0.28-0.42,0.56-0.63,0.85
				c-0.2,0.29-0.4,0.58-0.6,0.87c-0.19,0.29-0.39,0.59-0.58,0.89c-0.19,0.29-0.37,0.59-0.55,0.9c-0.19,0.3-0.36,0.6-0.54,0.91
				c-0.17,0.3-0.34,0.61-0.51,0.92s-0.33,0.63-0.49,0.94c-0.16,0.32-0.31,0.63-0.47,0.95c-0.15,0.32-0.29,0.64-0.44,0.96
				c-0.14,0.32-0.28,0.65-0.42,0.97c-0.13,0.33-0.26,0.66-0.39,0.98c-0.13,0.33-0.25,0.66-0.37,0.99c-0.12,0.34-0.24,0.67-0.35,1
				c-0.11,0.34-0.22,0.67-0.32,1.01c-0.1,0.34-0.2,0.68-0.29,1.02c-0.1,0.34-0.19,0.68-0.28,1.02c-0.08,0.34-0.16,0.68-0.24,1.03
				c-0.08,0.34-0.15,0.69-0.22,1.03c-0.07,0.35-0.14,0.69-0.2,1.04c-0.06,0.35-0.11,0.7-0.17,1.05c-0.05,0.34-0.1,0.69-0.14,1.04
				c-0.04,0.35-0.08,0.7-0.12,1.05c-0.03,0.36-0.06,0.71-0.09,1.06c-0.02,0.35-0.05,0.7-0.06,1.05c-0.02,0.36-0.03,0.71-0.04,1.06
				s-0.02,0.71-0.02,1.06c0,0.35,0.01,0.7,0.02,1.06c0,0.35,0.02,0.7,0.03,1.05c0.02,0.35,0.04,0.71,0.07,1.06
				c0.34,4.41,1.41,8.48,2.85,12.64l43.22,0.08l23.9-0.04c4.41,0,8.83-0.1,13.24,0.04c0.96-2.87,1.82-5.75,2.3-8.75
				C219.44,93.03,217.79,83.71,213.85,75.78z M176.61,105.73c-12.04,0.01-24.08-0.06-36.12,0.12c0.96-5.22,1.86-10.46,2.69-15.7
				c0.39-2.45,0.96-8.01,1.84-10.04c0.91-2.1,8.17-4.84,10.38-6c1.79-0.94,3.53-1.98,5.11-3.24c1.53-1.21,3.6-2.89,4.35-4.75
				c0.34-0.86,0.56-1.86,1.14-2.61c1.43-1.83,4.46-2.09,6.6-2.31c2.92-0.34,7.78-0.2,10.38,1.21c1.92,1.04,2.36,2.87,2.96,4.8
				c2.08,2.01,4.24,4.1,6.78,5.51c1.61,0.89,3.3,1.64,5,2.34c2.14,0.87,4.96,1.5,6.64,3.14c0.71,0.7,1.17,1.58,1.5,2.52
				c0.6,1.72,0.78,3.66,1.08,5.47c1.08,6.53,1.76,12.92,1.73,19.55L176.61,105.73z M186.97,75.92c-0.63,2.58-1.27,5.04-2.35,7.49
				c-1.5-2.45-3.02-4.85-5.07-6.88c-1.57,1.13-3.33,1.94-5.33,1.6c-1.28-0.22-2.35-0.83-3.32-1.66c-2.06,2.1-3.73,4.41-5.18,6.96
				c-1.33-2.42-1.85-5.04-2.48-7.7c-0.35,4.48-0.38,5.99,1.3,10.23c2.54,6.43,6.66,11.51,10.77,16.97
				c4.32-5.59,7.91-12.09,10.59-18.61c0.5-1.21,1.09-2.49,1.34-3.78c0.24-1.24,0.04-2.59-0.12-3.84
				C187.09,76.43,187.04,76.18,186.97,75.92z M175.65,100.21c-0.64-0.43-1.2-0.93-1.77-1.44c-0.81-0.82-1.96-2.03-2.37-3.09
				c-0.14-0.34-0.14-0.48,0-0.81c0.27-0.18,0.49-0.25,0.81-0.27c1.95-0.12,3.69,0.14,5.76-0.09c0.38-0.06,0.67-0.05,1.06,0
				c0.01,0.03,0.02,0.07,0.02,0.1C179.21,95.55,176.36,99.29,175.65,100.21z M179.24,93.24c-0.1-0.04-0.19-0.08-0.28-0.13
				c-1.08-0.55-2.3-0.6-3.42-1.2c-0.14-0.1-0.05-0.05-0.31-0.11c-1.05,0.82-2.81,1.05-4.1,1.38c0.66-2.21,1.88-4.42,3.23-6.28
				c-1.76-2.05-2.03-4.01-1.99-6.64c0.62-0.21,1.26-0.33,1.89-0.47c1.34-0.11,2.53,0,3.81,0.38c0.31,2.63-0.24,4.38-1.19,6.8
				C177.38,88.01,179.55,92.31,179.24,93.24z M187.12,76.7c-0.03-0.27-0.08-0.52-0.15-0.78c-0.63,2.58-1.27,5.04-2.35,7.49
				c-1.5-2.45-3.02-4.85-5.07-6.88c-1.57,1.13-3.33,1.94-5.33,1.6c-1.28-0.22-2.35-0.83-3.32-1.66c-2.06,2.1-3.73,4.41-5.18,6.96
				c-1.33-2.42-1.85-5.04-2.48-7.7c-0.35,4.48-0.38,5.99,1.3,10.23c2.54,6.43,6.66,11.51,10.77,16.97
				c4.32-5.59,7.91-12.09,10.59-18.61c0.5-1.21,1.09-2.49,1.34-3.78C187.48,79.3,187.28,77.95,187.12,76.7z M175.65,100.21
				c-0.64-0.43-1.2-0.93-1.77-1.44c-0.81-0.82-1.96-2.03-2.37-3.09c-0.14-0.34-0.14-0.48,0-0.81c0.27-0.18,0.49-0.25,0.81-0.27
				c1.95-0.12,3.69,0.14,5.76-0.09c0.38-0.06,0.67-0.05,1.06,0c0.01,0.03,0.02,0.07,0.02,0.1
				C179.21,95.55,176.36,99.29,175.65,100.21z M179.24,93.24c-0.1-0.04-0.19-0.08-0.28-0.13c-1.08-0.55-2.3-0.6-3.42-1.2
				c-0.14-0.1-0.05-0.05-0.31-0.11c-1.05,0.82-2.81,1.05-4.1,1.38c0.66-2.21,1.88-4.42,3.23-6.28c-1.76-2.05-2.03-4.01-1.99-6.64
				c0.62-0.21,1.26-0.33,1.89-0.47c1.34-0.11,2.53,0,3.81,0.38c0.31,2.63-0.24,4.38-1.19,6.8
				C177.38,88.01,179.55,92.31,179.24,93.24z M187.12,76.7c-0.03-0.27-0.08-0.52-0.15-0.78c-0.63,2.58-1.27,5.04-2.35,7.49
				c-1.5-2.45-3.02-4.85-5.07-6.88c-1.57,1.13-3.33,1.94-5.33,1.6c-1.28-0.22-2.35-0.83-3.32-1.66c-2.06,2.1-3.73,4.41-5.18,6.96
				c-1.33-2.42-1.85-5.04-2.48-7.7c-0.35,4.48-0.38,5.99,1.3,10.23c2.54,6.43,6.66,11.51,10.77,16.97
				c4.32-5.59,7.91-12.09,10.59-18.61c0.5-1.21,1.09-2.49,1.34-3.78C187.48,79.3,187.28,77.95,187.12,76.7z M175.65,100.21
				c-0.64-0.43-1.2-0.93-1.77-1.44c-0.81-0.82-1.96-2.03-2.37-3.09c-0.14-0.34-0.14-0.48,0-0.81c0.27-0.18,0.49-0.25,0.81-0.27
				c1.95-0.12,3.69,0.14,5.76-0.09c0.38-0.06,0.67-0.05,1.06,0c0.01,0.03,0.02,0.07,0.02,0.1
				C179.21,95.55,176.36,99.29,175.65,100.21z M179.24,93.24c-0.1-0.04-0.19-0.08-0.28-0.13c-1.08-0.55-2.3-0.6-3.42-1.2
				c-0.14-0.1-0.05-0.05-0.31-0.11c-1.05,0.82-2.81,1.05-4.1,1.38c0.66-2.21,1.88-4.42,3.23-6.28c-1.76-2.05-2.03-4.01-1.99-6.64
				c0.62-0.21,1.26-0.33,1.89-0.47c1.34-0.11,2.53,0,3.81,0.38c0.31,2.63-0.24,4.38-1.19,6.8
				C177.38,88.01,179.55,92.31,179.24,93.24z M187.12,76.7c-0.03-0.27-0.08-0.52-0.15-0.78c-0.63,2.58-1.27,5.04-2.35,7.49
				c-1.5-2.45-3.02-4.85-5.07-6.88c-1.57,1.13-3.33,1.94-5.33,1.6c-1.28-0.22-2.35-0.83-3.32-1.66c-2.06,2.1-3.73,4.41-5.18,6.96
				c-1.33-2.42-1.85-5.04-2.48-7.7c-0.35,4.48-0.38,5.99,1.3,10.23c2.54,6.43,6.66,11.51,10.77,16.97
				c4.32-5.59,7.91-12.09,10.59-18.61c0.5-1.21,1.09-2.49,1.34-3.78C187.48,79.3,187.28,77.95,187.12,76.7z M175.65,100.21
				c-0.64-0.43-1.2-0.93-1.77-1.44c-0.81-0.82-1.96-2.03-2.37-3.09c-0.14-0.34-0.14-0.48,0-0.81c0.27-0.18,0.49-0.25,0.81-0.27
				c1.95-0.12,3.69,0.14,5.76-0.09c0.38-0.06,0.67-0.05,1.06,0c0.01,0.03,0.02,0.07,0.02,0.1
				C179.21,95.55,176.36,99.29,175.65,100.21z M179.24,93.24c-0.1-0.04-0.19-0.08-0.28-0.13c-1.08-0.55-2.3-0.6-3.42-1.2
				c-0.14-0.1-0.05-0.05-0.31-0.11c-1.05,0.82-2.81,1.05-4.1,1.38c0.66-2.21,1.88-4.42,3.23-6.28c-1.76-2.05-2.03-4.01-1.99-6.64
				c0.62-0.21,1.26-0.33,1.89-0.47c1.34-0.11,2.53,0,3.81,0.38c0.31,2.63-0.24,4.38-1.19,6.8
				C177.38,88.01,179.55,92.31,179.24,93.24z M187.12,76.7c-0.03-0.27-0.08-0.52-0.15-0.78c-0.63,2.58-1.27,5.04-2.35,7.49
				c-1.5-2.45-3.02-4.85-5.07-6.88c-1.57,1.13-3.33,1.94-5.33,1.6c-1.28-0.22-2.35-0.83-3.32-1.66c-2.06,2.1-3.73,4.41-5.18,6.96
				c-1.33-2.42-1.85-5.04-2.48-7.7c-0.35,4.48-0.38,5.99,1.3,10.23c2.54,6.43,6.66,11.51,10.77,16.97
				c4.32-5.59,7.91-12.09,10.59-18.61c0.5-1.21,1.09-2.49,1.34-3.78C187.48,79.3,187.28,77.95,187.12,76.7z M175.65,100.21
				c-0.64-0.43-1.2-0.93-1.77-1.44c-0.81-0.82-1.96-2.03-2.37-3.09c-0.14-0.34-0.14-0.48,0-0.81c0.27-0.18,0.49-0.25,0.81-0.27
				c1.95-0.12,3.69,0.14,5.76-0.09c0.38-0.06,0.67-0.05,1.06,0c0.01,0.03,0.02,0.07,0.02,0.1
				C179.21,95.55,176.36,99.29,175.65,100.21z M179.24,93.24c-0.1-0.04-0.19-0.08-0.28-0.13c-1.08-0.55-2.3-0.6-3.42-1.2
				c-0.14-0.1-0.05-0.05-0.31-0.11c-1.05,0.82-2.81,1.05-4.1,1.38c0.66-2.21,1.88-4.42,3.23-6.28c-1.76-2.05-2.03-4.01-1.99-6.64
				c0.62-0.21,1.26-0.33,1.89-0.47c1.34-0.11,2.53,0,3.81,0.38c0.31,2.63-0.24,4.38-1.19,6.8
				C177.38,88.01,179.55,92.31,179.24,93.24z"/>
			<path class="st82" d="M206.94,86.19c-0.3-1.81-0.48-3.75-1.08-5.47c-0.33-0.94-0.79-1.82-1.5-2.52c-1.68-1.64-4.5-2.27-6.64-3.14
				c-1.7-0.7-3.39-1.45-5-2.34c-2.54-1.41-4.7-3.5-6.78-5.51c-0.6-1.93-1.04-3.76-2.96-4.8c-2.6-1.41-7.46-1.55-10.38-1.21
				c-2.14,0.22-5.17,0.48-6.6,2.31c-0.58,0.75-0.8,1.75-1.14,2.61c-0.75,1.86-2.82,3.54-4.35,4.75c-1.58,1.26-3.32,2.3-5.11,3.24
				c-2.21,1.16-9.47,3.9-10.38,6c-0.88,2.03-1.45,7.59-1.84,10.04c-0.83,5.24-1.73,10.48-2.69,15.7
				c12.04-0.18,24.08-0.11,36.12-0.12l32.06,0.01C208.7,99.11,208.02,92.72,206.94,86.19z M164.95,66.6
				c2.75,2.15,6.29,4.25,9.88,4.38c3.09,0.1,8.37-2.37,10.65-4.47c0.64,2.52,1,5.13,1.41,7.71c-1.34,1.43-2.63,2.84-3.83,4.4
				c-1.45-1.83-3-3.61-4.77-5.15c-0.92-0.81-2.08-1.8-3.39-1.66c-2.49,0.25-6.22,5.08-7.81,6.94c-0.93-1.69-2.39-3.13-3.59-4.63
				C163.77,71.66,164.26,68.98,164.95,66.6z M187.24,80.54c-0.25,1.29-0.84,2.57-1.34,3.78c-2.68,6.52-6.27,13.02-10.59,18.61
				c-4.11-5.46-8.23-10.54-10.77-16.97c-1.68-4.24-1.65-5.75-1.3-10.23c0.63,2.66,1.15,5.28,2.48,7.7c1.45-2.55,3.12-4.86,5.18-6.96
				c0.97,0.83,2.04,1.44,3.32,1.66c2,0.34,3.76-0.47,5.33-1.6c2.05,2.03,3.57,4.43,5.07,6.88c1.08-2.45,1.72-4.91,2.35-7.49
				c0.07,0.26,0.12,0.51,0.15,0.78C187.28,77.95,187.48,79.3,187.24,80.54z"/>
			<path class="st82" d="M187.12,76.7c-0.03-0.27-0.08-0.52-0.15-0.78c-0.63,2.58-1.27,5.04-2.35,7.49
				c-1.5-2.45-3.02-4.85-5.07-6.88c-1.57,1.13-3.33,1.94-5.33,1.6c-1.28-0.22-2.35-0.83-3.32-1.66c-2.06,2.1-3.73,4.41-5.18,6.96
				c-1.33-2.42-1.85-5.04-2.48-7.7c-0.35,4.48-0.38,5.99,1.3,10.23c2.54,6.43,6.66,11.51,10.77,16.97
				c4.32-5.59,7.91-12.09,10.59-18.61c0.5-1.21,1.09-2.49,1.34-3.78C187.48,79.3,187.28,77.95,187.12,76.7z M175.65,100.21
				c-0.64-0.43-1.2-0.93-1.77-1.44c-0.81-0.82-1.96-2.03-2.37-3.09c-0.14-0.34-0.14-0.48,0-0.81c0.27-0.18,0.49-0.25,0.81-0.27
				c1.95-0.12,3.69,0.14,5.76-0.09c0.38-0.06,0.67-0.05,1.06,0c0.01,0.03,0.02,0.07,0.02,0.1
				C179.21,95.55,176.36,99.29,175.65,100.21z M179.24,93.24c-0.1-0.04-0.19-0.08-0.28-0.13c-1.08-0.55-2.3-0.6-3.42-1.2
				c-0.14-0.1-0.05-0.05-0.31-0.11c-1.05,0.82-2.81,1.05-4.1,1.38c0.66-2.21,1.88-4.42,3.23-6.28c-1.76-2.05-2.03-4.01-1.99-6.64
				c0.62-0.21,1.26-0.33,1.89-0.47c1.34-0.11,2.53,0,3.81,0.38c0.31,2.63-0.24,4.38-1.19,6.8
				C177.38,88.01,179.55,92.31,179.24,93.24z"/>
		</g>
	</g>
</g>
</svg>
