<?xml version="1.0" encoding="utf-8"?>
<!-- Generator: Adobe Illustrator 27.8.1, SVG Export Plug-In . SVG Version: 6.00 Build 0)  -->
<svg version="1.1" xmlns="http://www.w3.org/2000/svg" xmlns:xlink="http://www.w3.org/1999/xlink" x="0px" y="0px"
	 viewBox="0 0 350 230.71" style="enable-background:new 0 0 350 230.71;" xml:space="preserve">
<style type="text/css">
	.st0{fill:#191919;}
	.st1{fill:#FFFFFF;}
	.st2{fill:#FFCA55;}
	.st3{fill:#006865;}
	.st4{fill:#00AEB7;}
	.st5{fill:#EDC599;}
	.st6{fill:url(#SVGID_1_);}
	.st7{fill:#250B00;}
	.st8{fill:#FFDBD4;}
	.st9{fill:#231F20;}
	.st10{fill:#7F7F7F;}
	.st11{fill:#FFD468;}
	.st12{fill:#303030;}
	.st13{fill:#007D54;}
	.st14{fill:#EE3631;}
	.st15{fill:#2B2B2B;}
	.st16{fill:#FFB000;}
	.st17{opacity:0.35;fill:#FFFFFF;}
	.st18{fill:#E09C05;}
	.st19{fill:#A8112B;}
	.st20{fill:#FCB040;}
	.st21{fill:#3DA1D8;}
	.st22{fill:#0C8EBC;}
	.st23{fill:#EFC6A3;}
	.st24{fill:#B0DFFF;}
	.st25{fill-rule:evenodd;clip-rule:evenodd;fill:#FEFEFE;}
	.st26{fill:#006284;}
	.st27{fill:#5B5B5B;}
	.st28{fill:#EACAB0;}
	.st29{fill:#442B18;}
	.st30{fill:#663412;}
	.st31{fill:#C18B63;}
	.st32{fill:#3A1801;}
	.st33{fill:#616D0B;}
	.st34{fill:#98B11F;}
	.st35{fill:#606060;}
	.st36{fill:#E0E0E0;}
	.st37{fill-rule:evenodd;clip-rule:evenodd;fill:#FFE183;}
	.st38{fill-rule:evenodd;clip-rule:evenodd;fill:#FFA617;}
	.st39{fill:#FF6745;}
	.st40{fill-rule:evenodd;clip-rule:evenodd;fill:#63A642;}
	.st41{fill-rule:evenodd;clip-rule:evenodd;fill:#925056;}
	.st42{fill-rule:evenodd;clip-rule:evenodd;fill:#2C2F38;}
	.st43{fill:#A5A5A5;}
	.st44{fill:#FFEBB8;}
	.st45{fill:#FFA617;}
	.st46{fill:#AF121A;}
	.st47{fill:#C49718;}
	.st48{fill:#FFD961;}
	.st49{fill:#F93B00;}
	.st50{fill:#FFC02E;}
	.st51{fill:#FA6500;}
	.st52{fill:#9BB200;}
	.st53{fill:#FFF7D6;}
	.st54{fill:#3E9AFF;}
	.st55{fill:#3ED698;}
	.st56{fill:#0F935A;}
	.st57{fill:#ED1C24;}
	.st58{fill:#F68712;}
	.st59{fill:#5B0000;}
	.st60{fill-rule:evenodd;clip-rule:evenodd;fill:#FB6218;}
	.st61{fill:#795B4B;}
	.st62{fill:#513D35;}
	.st63{fill:#661F00;}
	.st64{fill:#3F0000;}
	.st65{fill-rule:evenodd;clip-rule:evenodd;fill:#FFFFFF;}
	.st66{fill:#FFC92F;}
	.st67{fill:#3D1109;}
	.st68{fill:#424241;}
	.st69{fill:none;stroke:#FFDE59;stroke-width:4;}
	.st70{fill:#FFDE59;}
	.st71{fill-rule:evenodd;clip-rule:evenodd;fill:#333231;}
	.st72{fill-rule:evenodd;clip-rule:evenodd;}
	.st73{fill:#FF6D00;}
	.st74{fill:#040507;}
	.st75{fill:#4D433A;}
	.st76{fill:#FF8B00;}
	.st77{filter:url(#Adobe_OpacityMaskFilter);}
	.st78{fill-opacity:0.3;}
	.st79{mask:url(#_x35_0ea534a37_00000039117605408314366780000006090329138646347946_);fill:#EBB22F;}
	.st80{fill:#F39200;}
	.st81{fill:#1D1D1B;}
	.st82{fill:#201F1F;}
</style>
<g id="Layer_1">
</g>
<g id="Layer_2">
</g>
<g id="Layer_3">
</g>
<g id="Layer_4">
</g>
<g id="Layer_5">
</g>
<g id="Layer_6">
</g>
<g id="Layer_7">
</g>
<g id="Layer_8">
</g>
<g id="Layer_9">
</g>
<g id="Layer_10">
</g>
<g id="Layer_11">
</g>
<g id="Layer_12">
</g>
<g id="Layer_13">
</g>
<g id="Layer_14">
</g>
<g id="Layer_15">
	<path class="st60" d="M58.46,62.72c12.74,0.69,21.99,5.66,32.22,12.1c0.4,0.25,0.93,0.18,1.24-0.18l7.89,4.99
		c-0.84,2.63,0.15,5.62,2.6,7.16l13.5,8.54c0.5,0.31,1.17,0.16,1.49-0.34c0.32-0.5,0.17-1.17-0.33-1.48
		c-3.65-2.31-7.29-4.61-10.94-6.91c-0.33-0.21-0.43-0.65-0.22-0.98c0.21-0.33,0.65-0.43,0.98-0.22l10.93,6.91
		c0.5,0.32,1.17,0.17,1.49-0.33c0.32-0.5,0.17-1.17-0.33-1.49l-10.94-6.91c-0.33-0.21-0.43-0.65-0.22-0.97
		c0.21-0.33,0.65-0.43,0.98-0.22l10.94,6.91c0.49,0.31,1.17,0.16,1.48-0.34c0.32-0.5,0.17-1.17-0.33-1.48l-10.93-6.91
		c-0.33-0.21-0.43-0.65-0.22-0.98c0.21-0.33,0.65-0.43,0.97-0.22l10.94,6.91c0.5,0.32,1.17,0.17,1.48-0.33
		c0.32-0.5,0.17-1.17-0.33-1.49l-13.5-8.53c-2.44-1.54-5.56-1.16-7.58,0.73l-7.89-4.99c0.18-0.43,0.04-0.94-0.37-1.2
		c-11.56-6.99,8.53-6.71,55.79,17.51c-7.23,22.18-24.92,42.02-41.73,21.83c-0.3-0.37-0.88-0.34-1.25-0.06l-6.81-6.39
		c1.36-2.42,0.99-5.48-2.88-9.12c-4.68-4.39-12.7-7.97-15.14-5.37c-2.44,2.6,1.63,10.38,6.31,14.78c3.87,3.64,6.94,3.82,9.27,2.31
		l6.81,6.39c-0.26,0.39-0.19,0.9,0.14,1.25c5.34,5.53,10.57,10.83,6.61,12.16c-1.4,0.46-2.97-1.8-19.15-6.9
		c-10.68-2.82-17.11-4.12-18.25-4.98c-1.14-0.86-0.43-3.45,0.92-3.97c0.78-0.3,2.5-0.55,3.8-0.69
		C53.48,99.94,54.69,78.77,58.46,62.72z M105.49,65.12c-0.4-0.5-1.16-1.7-1.71-3.49c-0.55-1.8-0.88-4.2-0.43-6.33
		c0.46-2.13,1.73-4,3.58-6.04c1.85-2.06,4.29-4.29,5.94-6.08c1.66-1.79,2.53-3.13,2.78-4.16c0.24-1.04-0.15-1.77-1.1-1.93
		c-0.95-0.14-2.47,0.29-4.97,1.06c-2.5,0.76-6,1.85-8.61,1.89c-2.61,0.04-4.34-0.97-5.25-2.59c-0.91-1.63-1.02-3.86-0.66-5.91
		c0.36-2.05,1.18-3.9,2.57-5.64c1.39-1.74,3.35-3.37,4.26-3.94c0.91-0.57,0.78-0.08,0.55,1.2c-0.24,1.28-0.59,3.34-0.47,4.93
		c0.11,1.6,0.69,2.73,1.8,3.22c1.12,0.5,2.77,0.37,5.24-0.49c2.48-0.87,5.78-2.46,8.68-3.58c2.9-1.12,5.4-1.77,7.38-1.58
		c1.98,0.18,3.43,1.19,4.34,2.92c0.91,1.74,1.29,4.19,1.1,6.78c-0.19,2.59-0.95,5.3-2.31,7.44c-1.36,2.15-3.33,3.71-6.04,5.28
		c-2.73,1.57-6.2,3.14-8.56,4.63c-2.34,1.49-3.56,2.92-4.63,4.99c-1.07,2.09-2.02,4.83-2.51,6.3
		C105.95,65.44,105.9,65.63,105.49,65.12z M110.09,67.09c0.08-0.33,0.59-0.95,1.71-1.68c1.12-0.74,2.87-1.59,4.34-2.69
		c1.47-1.1,2.66-2.44,3.88-3.45c1.21-1,2.45-1.69,3.49-1.58c1.04,0.1,1.88,0.99,2.09,2.09c0.21,1.1-0.21,2.41-1.27,3.55
		c-1.07,1.14-2.79,2.12-4.7,2.78c-1.91,0.66-4.01,1.02-5.54,1.21c-1.53,0.19-2.49,0.21-3.13,0.19
		C110.33,67.48,110,67.42,110.09,67.09z M99.02,63.67c0.11-0.38-0.01-1.28-0.66-2.67s-1.85-3.28-2.63-5.24
		c-0.78-1.96-1.14-3.98-1.72-5.7s-1.38-3.13-2.45-3.65c-1.08-0.53-2.44-0.16-3.3,0.78c-0.87,0.94-1.25,2.47-0.9,4.23
		c0.36,1.75,1.45,3.74,2.92,5.53c1.46,1.8,3.3,3.41,4.68,4.51c1.38,1.11,2.31,1.71,2.94,2.08C98.55,63.91,98.91,64.05,99.02,63.67z
		 M290.66,118.73H157.95c-2.91,0-5.26-1.9-5.26-4.23c0-2.34,2.36-4.23,5.26-4.23h132.71c2.91,0,5.26,1.9,5.26,4.23
		C295.93,116.84,293.57,118.73,290.66,118.73z M130.55,194.36c0-2.34-2.27-4.23-5.07-4.23H59.4c-2.8,0-5.07,1.9-5.07,4.23
		s2.27,4.23,5.07,4.23h66.08C128.28,198.59,130.55,196.69,130.55,194.36z"/>
</g>
</svg>
