<?xml version="1.0" encoding="utf-8"?>
<!-- Generator: Adobe Illustrator 27.8.1, SVG Export Plug-In . SVG Version: 6.00 Build 0)  -->
<svg version="1.1" xmlns="http://www.w3.org/2000/svg" xmlns:xlink="http://www.w3.org/1999/xlink" x="0px" y="0px"
	 viewBox="0 0 350 230" style="enable-background:new 0 0 350 230;" xml:space="preserve">
<style type="text/css">
	.st0{fill:#191919;}
	.st1{fill:#FFFFFF;}
	.st2{fill:#FFCA55;}
	.st3{fill:#006865;}
	.st4{fill:#00AEB7;}
	.st5{fill:#EDC599;}
	.st6{fill:url(#SVGID_1_);}
	.st7{fill:#250B00;}
	.st8{fill:#FFDBD4;}
	.st9{fill:#231F20;}
	.st10{fill:#7F7F7F;}
	.st11{fill:#FFD468;}
	.st12{fill:#303030;}
	.st13{fill:#007D54;}
	.st14{fill:#EE3631;}
	.st15{fill:#2B2B2B;}
	.st16{fill:#FFB000;}
	.st17{opacity:0.35;fill:#FFFFFF;}
	.st18{fill:#E09C05;}
	.st19{fill:#A8112B;}
	.st20{fill:#FCB040;}
	.st21{fill:#3DA1D8;}
	.st22{fill:#0C8EBC;}
	.st23{fill:#EFC6A3;}
	.st24{fill:#B0DFFF;}
	.st25{fill-rule:evenodd;clip-rule:evenodd;fill:#FEFEFE;}
	.st26{fill:#006284;}
	.st27{fill:#5B5B5B;}
	.st28{fill:#EACAB0;}
	.st29{fill:#442B18;}
	.st30{fill:#663412;}
	.st31{fill:#C18B63;}
	.st32{fill:#3A1801;}
	.st33{fill:#616D0B;}
	.st34{fill:#98B11F;}
	.st35{fill:#606060;}
	.st36{fill:#E0E0E0;}
	.st37{fill-rule:evenodd;clip-rule:evenodd;fill:#FFE183;}
	.st38{fill-rule:evenodd;clip-rule:evenodd;fill:#FFA617;}
	.st39{fill:#FF6745;}
	.st40{fill-rule:evenodd;clip-rule:evenodd;fill:#63A642;}
	.st41{fill-rule:evenodd;clip-rule:evenodd;fill:#925056;}
	.st42{fill-rule:evenodd;clip-rule:evenodd;fill:#2C2F38;}
	.st43{fill:#A5A5A5;}
	.st44{fill:#FFEBB8;}
	.st45{fill:#FFA617;}
	.st46{fill:#AF121A;}
	.st47{fill:#C49718;}
	.st48{fill:#FFD961;}
	.st49{fill:#F93B00;}
	.st50{fill:#FFC02E;}
	.st51{fill:#FA6500;}
	.st52{fill:#9BB200;}
	.st53{fill:#FFF7D6;}
	.st54{fill:#3E9AFF;}
	.st55{fill:#3ED698;}
	.st56{fill:#0F935A;}
	.st57{display:none;fill:#3E9AFF;}
	.st58{font-family:'MyanmarText';}
	.st59{font-size:30px;}
</style>
<g id="Layer_1">
</g>
<g id="Layer_2">
</g>
<g id="Layer_3">
</g>
<g id="Layer_4">
</g>
<g id="Layer_5">
</g>
<g id="Layer_6">
</g>
<g id="Layer_7">
</g>
<g id="Layer_8">
</g>
<g id="Layer_9">
</g>
<g id="Layer_10">
</g>
<g id="Layer_11">
</g>
<g id="Layer_12">
</g>
<g id="Layer_13">
</g>
<g id="Layer_14">
</g>
<g id="Layer_15">
	<g>
		<g>
			<path class="st54" d="M255.86,143.62H94.14c-0.59,0-1.08-0.48-1.08-1.08c0-0.59,0.48-1.08,1.08-1.08h161.71
				c0.59,0,1.08,0.48,1.08,1.08C256.93,143.14,256.45,143.62,255.86,143.62z M256.93,187.68c0-0.59-0.48-1.08-1.08-1.08H94.14
				c-0.59,0-1.08,0.48-1.08,1.08s0.48,1.08,1.08,1.08h161.71C256.45,188.76,256.93,188.28,256.93,187.68z"/>
			<path class="st55" d="M101.19,128.27c0-40.97,33.21-74.18,74.18-74.18s74.18,33.21,74.18,74.18H101.19z M251.03,131.44H99.71
				c-1.28,0-2.33,1.04-2.33,2.33v4.86c0,1.28,1.04,2.33,2.33,2.33h151.32c1.28,0,2.33-1.04,2.33-2.33v-4.86
				C253.36,132.48,252.32,131.44,251.03,131.44z"/>
			<path class="st56" d="M186.15,44.58c0,5.95-4.83,10.78-10.78,10.78c-5.95,0-10.78-4.83-10.78-10.78s4.83-10.78,10.78-10.78
				C181.32,33.8,186.15,38.62,186.15,44.58z"/>
			<path class="st1" d="M233.94,105.03c-1.43-2.81-3.05-5.49-4.74-8.1c-3.38-5.22-7.27-10.03-11.65-14.33
				c-4.38-4.31-9.28-8.06-14.57-11.3c-5.32-3.22-11.03-5.86-17.01-8.33c6.46,0.4,12.85,2.13,18.87,4.81
				c5.98,2.75,11.54,6.54,16.26,11.21c4.73,4.65,8.66,10.09,11.56,15.99c2.86,5.9,4.92,12.23,5.31,18.72
				C236.75,110.69,235.42,107.81,233.94,105.03z M182.17,48.38c0.97-0.97,1.46-2.15,1.71-3.37c0.23-1.23,0.2-2.54-0.25-3.83
				c-0.43-1.28-1.32-2.53-2.56-3.28c-1.26-0.75-2.76-0.82-3.97-0.29c0.93,1.04,1.58,1.75,1.98,2.52c0.4,0.76,0.66,1.47,0.96,2.28
				c0.29,0.81,0.55,1.72,0.87,2.71C181.23,46.11,181.59,47.16,182.17,48.38z M191.02,123.7h-30.86c-0.57,0-1.04-0.46-1.04-1.04
				v-0.38c0-0.57,0.46-1.04,1.04-1.04h30.86c0.57,0,1.04,0.46,1.04,1.04v0.38C192.06,123.24,191.6,123.7,191.02,123.7z M201.26,91.2
				c0,3.52-1.87,6.62-4.74,8.52l-4.08,17.7c-0.2,0.85-0.96,1.46-1.83,1.46h-30.1c-0.9,0-1.68-0.64-1.85-1.53l-3.23-16.93
				c-3.53-1.78-5.92-5.24-5.92-9.22c0-5.8,5.08-10.5,11.35-10.5c1.52,0,2.98,0.28,4.31,0.79c1.24-4.56,5.68-7.94,11-7.94
				c5.15,0,9.49,3.17,10.88,7.51c0.93-0.23,1.89-0.36,2.89-0.36C196.17,80.7,201.26,85.4,201.26,91.2z"/>
			<path class="st26" d="M191.02,123.93h-30.86c-0.7,0-1.27-0.57-1.27-1.27v-0.38c0-0.7,0.57-1.27,1.27-1.27h30.86
				c0.7,0,1.27,0.57,1.27,1.27v0.38C192.29,123.36,191.72,123.93,191.02,123.93z M160.17,121.48c-0.44,0-0.8,0.36-0.8,0.8v0.38
				c0,0.44,0.36,0.8,0.8,0.8h30.86c0.44,0,0.8-0.36,0.8-0.8v-0.38c0-0.44-0.36-0.8-0.8-0.8H160.17z M190.6,119.11h-30.1
				c-1.01,0-1.89-0.72-2.08-1.72l-3.21-16.81c-3.67-1.9-5.95-5.48-5.95-9.38c0-5.92,5.19-10.73,11.58-10.73
				c1.42,0,2.82,0.24,4.15,0.71c1.38-4.65,5.93-7.87,11.15-7.87c5.01,0,9.51,3.06,11.03,7.47c0.92-0.21,1.84-0.32,2.74-0.32
				c6.39,0,11.58,4.81,11.58,10.73c0,3.41-1.78,6.65-4.77,8.67l-4.06,17.61C192.43,118.44,191.59,119.11,190.6,119.11z
				 M160.84,80.93c-6.13,0-11.12,4.6-11.12,10.27c0,3.76,2.22,7.21,5.8,9.02l0.1,0.05l0.02,0.11l3.23,16.93
				c0.15,0.78,0.83,1.34,1.62,1.34h30.1c0.77,0,1.43-0.53,1.61-1.28l4.1-17.79l0.08-0.05c2.9-1.93,4.64-5.04,4.64-8.33
				c0-5.66-4.99-10.27-11.12-10.27c-0.93,0-1.88,0.12-2.84,0.35l-0.21,0.05l-0.07-0.21c-1.39-4.33-5.77-7.35-10.65-7.35
				c-5.1,0-9.53,3.2-10.77,7.77l-0.07,0.25l-0.24-0.09C163.71,81.19,162.29,80.93,160.84,80.93z"/>
			<path class="st27" d="M158.62,86.83c0.36-0.73,0.82-1.4,1.45-1.91c0.75-0.61,1.92-1.02,2.71-1.09c0.79-0.07,2.02,0.14,2.86,0.61
				c0.71,0.39,1.28,0.97,1.76,1.62c1.03,1.38,2.38,6.22,0.72,8.2c-1.66,1.98-3.38,2.37-3.38,2.37l1.71,19.51
				c0.04,0.45-0.24,0.85-0.76,0.9c-0.52,0.05-0.86-0.3-0.9-0.75l-1.71-19.51c0,0-1.76-0.09-3.74-1.75
				C157.36,93.37,157.85,88.37,158.62,86.83z M184.01,85.24l-0.79,9.02c-0.09,0.99,3.38,2.37,3.38,2.37l-1.71,19.51
				c-0.04,0.46,0.3,0.86,0.75,0.9l0.02,0c0.46,0.04,0.86-0.3,0.9-0.75l1.71-19.51c0,0,3.65-0.76,3.74-1.75l0.79-9.02
				c0.05-0.62-0.37-1.16-0.95-1.21c-0.58-0.05-1.1,0.41-1.15,1.03l-0.61,7.01c-0.03,0.32-0.31,0.56-0.64,0.53
				c-0.32-0.03-0.56-0.31-0.53-0.64l0.68-7.69c0.05-0.62-0.4-1.16-1.02-1.22c-0.62-0.05-1.16,0.4-1.22,1.02l-0.67,7.69
				c-0.03,0.32-0.31,0.56-0.64,0.54c-0.32-0.03-0.56-0.31-0.53-0.64l0.62-7.01c0.05-0.62-0.37-1.16-0.95-1.21
				C184.58,84.16,184.07,84.62,184.01,85.24z M173.98,83.81v31.38c0,0.46,0.37,0.83,0.83,0.83h0.02c0.46,0,0.83-0.37,0.83-0.83
				v-12.92c0.03,0,2.1,0.02,2.63-0.2c0.62-0.26,0.48-1.44,0.4-2.21c-0.44-4.04-2.04-13.49-2.74-16.06
				c-0.01-0.61-0.51-1.11-1.12-1.11C174.2,82.69,173.98,83.19,173.98,83.81z"/>
		</g>
		<text transform="matrix(1 0 0 1 24.224 174.1429)" class="st57 st58 st59">RESTAURANT &amp; FOOD</text>
	</g>
</g>
</svg>
