<?xml version="1.0" encoding="utf-8"?>
<!-- Generator: Adobe Illustrator 27.8.1, SVG Export Plug-In . SVG Version: 6.00 Build 0)  -->
<svg version="1.1" xmlns="http://www.w3.org/2000/svg" xmlns:xlink="http://www.w3.org/1999/xlink" x="0px" y="0px"
	 viewBox="0 0 350 230.71" style="enable-background:new 0 0 350 230.71;" xml:space="preserve">
<style type="text/css">
	.st0{fill:#191919;}
	.st1{fill:#FFFFFF;}
	.st2{fill:#FFCA55;}
	.st3{fill:#006865;}
	.st4{fill:#00AEB7;}
	.st5{fill:#EDC599;}
	.st6{fill:url(#SVGID_1_);}
	.st7{fill:#250B00;}
	.st8{fill:#FFDBD4;}
	.st9{fill:#231F20;}
	.st10{fill:#7F7F7F;}
	.st11{fill:#FFD468;}
	.st12{fill:#303030;}
	.st13{fill:#007D54;}
	.st14{fill:#EE3631;}
	.st15{fill:#2B2B2B;}
	.st16{fill:#FFB000;}
	.st17{opacity:0.35;fill:#FFFFFF;}
	.st18{fill:#E09C05;}
	.st19{fill:#A8112B;}
	.st20{fill:#FCB040;}
	.st21{fill:#3DA1D8;}
	.st22{fill:#0C8EBC;}
	.st23{fill:#EFC6A3;}
	.st24{fill:#B0DFFF;}
	.st25{fill-rule:evenodd;clip-rule:evenodd;fill:#FEFEFE;}
	.st26{fill:#006284;}
	.st27{fill:#5B5B5B;}
	.st28{fill:#EACAB0;}
	.st29{fill:#442B18;}
	.st30{fill:#663412;}
	.st31{fill:#C18B63;}
	.st32{fill:#3A1801;}
	.st33{fill:#616D0B;}
	.st34{fill:#98B11F;}
	.st35{fill:#606060;}
	.st36{fill:#E0E0E0;}
	.st37{fill-rule:evenodd;clip-rule:evenodd;fill:#FFE183;}
	.st38{fill-rule:evenodd;clip-rule:evenodd;fill:#FFA617;}
	.st39{fill:#FF6745;}
	.st40{fill-rule:evenodd;clip-rule:evenodd;fill:#63A642;}
	.st41{fill-rule:evenodd;clip-rule:evenodd;fill:#925056;}
	.st42{fill-rule:evenodd;clip-rule:evenodd;fill:#2C2F38;}
	.st43{fill:#A5A5A5;}
	.st44{fill:#FFEBB8;}
	.st45{fill:#FFA617;}
	.st46{fill:#AF121A;}
	.st47{fill:#C49718;}
	.st48{fill:#FFD961;}
	.st49{fill:#F93B00;}
	.st50{fill:#FFC02E;}
	.st51{fill:#FA6500;}
	.st52{fill:#9BB200;}
	.st53{fill:#FFF7D6;}
	.st54{fill:#3E9AFF;}
	.st55{fill:#3ED698;}
	.st56{fill:#0F935A;}
	.st57{fill:#ED1C24;}
	.st58{fill:#F68712;}
	.st59{fill:#5B0000;}
	.st60{fill-rule:evenodd;clip-rule:evenodd;fill:#FB6218;}
	.st61{fill:#795B4B;}
	.st62{fill:#513D35;}
	.st63{fill:#661F00;}
	.st64{fill:#3F0000;}
	.st65{fill-rule:evenodd;clip-rule:evenodd;fill:#FFFFFF;}
	.st66{fill:#FFC92F;}
	.st67{fill:#3D1109;}
	.st68{fill:#424241;}
	.st69{fill:none;stroke:#FFDE59;stroke-width:4;}
	.st70{fill:#FFDE59;}
	.st71{fill-rule:evenodd;clip-rule:evenodd;fill:#333231;}
	.st72{fill-rule:evenodd;clip-rule:evenodd;}
	.st73{fill:#FF6D00;}
	.st74{fill:#040507;}
	.st75{fill:#4D433A;}
	.st76{fill:#FF8B00;}
	.st77{filter:url(#Adobe_OpacityMaskFilter);}
	.st78{fill-opacity:0.3;}
	.st79{mask:url(#_x35_0ea534a37_00000039117605408314366780000006090329138646347946_);fill:#EBB22F;}
	.st80{fill:#F39200;}
	.st81{fill:#1D1D1B;}
	.st82{fill:#201F1F;}
</style>
<g id="Layer_1">
</g>
<g id="Layer_2">
</g>
<g id="Layer_3">
</g>
<g id="Layer_4">
</g>
<g id="Layer_5">
</g>
<g id="Layer_6">
</g>
<g id="Layer_7">
</g>
<g id="Layer_8">
</g>
<g id="Layer_9">
</g>
<g id="Layer_10">
</g>
<g id="Layer_11">
</g>
<g id="Layer_12">
</g>
<g id="Layer_13">
</g>
<g id="Layer_14">
</g>
<g id="Layer_15">
	<path class="st61" d="M145.94,218.22c-14.73-2.81-26.84-7.41-37.51-14.23c-8.15-5.21-19.24-16.09-21.95-21.52
		c-3.87-7.73-1.24-11.97,5.29-8.55c1.22,0.64,5.9,4.65,10.38,8.92c11.01,10.48,19.63,16.77,29.54,21.57
		c13.35,6.46,22.14,8.39,38.77,8.5c15.58,0.11,23.98-1.45,33.65-6.25c7.72-3.83,9.68-6.03,9.71-10.89
		c0.08-15.85,24.34-38.31,41.37-38.31c4.85,0,6.07,0.41,8.54,2.88c8.43,8.43,4.87,24.46-8.52,38.32
		c-10.49,10.85-21.67,14.74-32.57,11.32l-5.62-1.77l-11.37,3.79c-6.26,2.08-13.98,4.45-17.16,5.26
		C180.21,219.35,154.88,219.92,145.94,218.22z M242.74,203.09c8.77-4.39,19.99-18.75,19.99-25.57c0-1.15-1.33,0.61-3.02,3.98
		c-4.33,8.63-13.83,18.2-21.69,21.85c-5.13,2.38-5.68,2.84-2.82,2.34C237.16,205.35,240.56,204.18,242.74,203.09z M164.34,187.28
		c-10.87-0.98-21.3-4.33-29.78-9.57c-5.05-3.12-3.51-3.35,2.86-0.44c13.57,6.21,33.59,7.97,47.82,4.2
		c6.35-1.68,20.12-7.81,25.49-11.34c1.4-0.92,0.48,0.21-2.04,2.51C198.08,182.33,179.06,188.6,164.34,187.28z M255.69,83.11
		c-1.07-1.07-5.35-7.15-9.49-13.51c-4.15-6.36-10.19-14.41-13.41-17.88c-17-18.33-40.6-28.81-64.87-28.8
		c-15.73,0-22.42,2.39-22.44,8.01c-0.01,2.42-0.86,2.95-9.86,6.21c-11.59,4.19-22.19,10.87-31.7,19.96c-6.76,6.47-8.4,7.54-8.4,5.52
		c0-2.1,17.19-17.96,23.74-21.91c3.72-2.24,6.79-4.65,6.81-5.35c0.05-1.82-0.17-1.74-8.31,3.06c-4.16,2.45-11.31,8.22-16.48,13.3
		c-5.55,5.45-9.49,8.61-10.06,8.03c-1.52-1.51,16.15-18.58,24.95-24.12c6.95-4.37,9.42-6.65,7.22-6.65
		c-1.45,0-12.32,6.61-17.67,10.74c-3.08,2.38-8.57,7.42-12.19,11.19c-7.78,8.1-9.63,7.04-2.35-1.34
		c5.76-6.63,14.23-13.76,23.46-19.78c5.76-3.75,7.79-5.9,5.55-5.9c-1.35,0-12.54,6.98-18.27,11.4c-2.93,2.26-8.31,7.27-11.96,11.14
		c-3.65,3.87-7.12,7.03-7.71,7.03c-3.53,0,11.54-16.27,22.92-24.73c8.79-6.54,16.66-10.83,27.02-14.73l6.62-2.49l1.7,2.11
		c2.88,3.56,5.9,4.06,18.31,3.03c34.46-2.84,66.56,9.51,89.54,34.45c11.32,12.28,18.12,28.06,13.91,32.27
		C260.03,85.58,258.08,85.51,255.69,83.11z M125.09,65.26c4.49-4.93,14.22-10.68,22.78-13.46c11.57-3.76,26.37-3.97,37.38-0.55
		c7.18,2.24,18.95,8.06,18.07,8.93c-0.22,0.22-3.33-0.79-6.92-2.25c-21.66-8.8-48.62-6.6-66.47,5.43
		C123.11,67.96,122.36,68.25,125.09,65.26z"/>
	<path class="st61" d="M145.94,218.22c-14.73-2.81-26.84-7.41-37.51-14.23c-8.15-5.21-19.24-16.09-21.95-21.52
		c-3.87-7.73-1.24-11.97,5.29-8.55c1.22,0.64,5.9,4.65,10.38,8.92c11.01,10.48,19.63,16.77,29.54,21.57
		c13.35,6.46,22.14,8.39,38.77,8.5c15.58,0.11,23.98-1.45,33.65-6.25c7.72-3.83,9.68-6.03,9.71-10.89
		c0.08-15.85,24.34-38.31,41.37-38.31c4.85,0,6.07,0.41,8.54,2.88c8.43,8.43,4.87,24.46-8.52,38.32
		c-10.49,10.85-21.67,14.74-32.57,11.32l-5.62-1.77l-11.37,3.79c-6.26,2.08-13.98,4.45-17.16,5.26
		C180.21,219.35,154.88,219.92,145.94,218.22z M242.74,203.09c8.77-4.39,19.99-18.75,19.99-25.57c0-1.15-1.33,0.61-3.02,3.98
		c-4.33,8.63-13.83,18.2-21.69,21.85c-5.13,2.38-5.68,2.84-2.82,2.34C237.16,205.35,240.56,204.18,242.74,203.09z M164.34,187.28
		c-10.87-0.98-21.3-4.33-29.78-9.57c-5.05-3.12-3.51-3.35,2.86-0.44c13.57,6.21,33.59,7.97,47.82,4.2
		c6.35-1.68,20.12-7.81,25.49-11.34c1.4-0.92,0.48,0.21-2.04,2.51C198.07,182.33,179.06,188.6,164.34,187.28z M255.68,83.11
		c-1.07-1.07-5.35-7.15-9.49-13.51c-4.15-6.36-10.19-14.41-13.41-17.88c-17-18.33-40.6-28.81-64.87-28.8
		c-15.73,0-22.42,2.39-22.44,8.01c-0.01,2.42-0.86,2.95-9.86,6.21c-11.59,4.19-22.19,10.87-31.7,19.96c-6.76,6.47-8.4,7.54-8.4,5.52
		c0-2.1,17.19-17.96,23.74-21.91c3.72-2.24,6.79-4.65,6.81-5.35c0.05-1.82-0.17-1.74-8.31,3.06c-4.16,2.45-11.31,8.22-16.48,13.3
		c-5.55,5.45-9.49,8.61-10.06,8.03c-1.52-1.51,16.15-18.58,24.95-24.12c6.95-4.37,9.42-6.65,7.22-6.65
		c-1.45,0-12.32,6.61-17.67,10.74c-3.08,2.38-8.57,7.42-12.19,11.19c-7.78,8.1-9.63,7.04-2.35-1.34
		c5.76-6.63,14.23-13.76,23.46-19.78c5.76-3.75,7.79-5.9,5.55-5.9c-1.35,0-12.54,6.98-18.27,11.4c-2.93,2.26-8.31,7.27-11.96,11.14
		c-3.65,3.87-7.12,7.03-7.71,7.03c-3.53,0,11.54-16.27,22.92-24.73c8.79-6.54,16.66-10.83,27.02-14.73l6.62-2.49l1.7,2.11
		c2.88,3.56,5.9,4.06,18.31,3.03c34.46-2.84,66.56,9.51,89.54,34.45c11.32,12.28,18.12,28.06,13.91,32.27
		C260.02,85.58,258.08,85.51,255.68,83.11z M125.09,65.26c4.49-4.93,14.22-10.68,22.78-13.46c11.57-3.76,26.37-3.97,37.38-0.55
		c7.18,2.24,18.95,8.06,18.07,8.93c-0.22,0.22-3.33-0.79-6.92-2.25c-21.66-8.8-48.62-6.6-66.47,5.43
		C123.11,67.96,122.36,68.25,125.09,65.26z"/>
	<path class="st62" d="M147.41,215.87c-14.73-2.81-26.84-7.41-37.51-14.23c-8.15-5.21-19.24-16.09-21.95-21.52
		c-3.87-7.73-1.24-11.97,5.29-8.55c1.22,0.64,5.9,4.65,10.38,8.92c11.01,10.48,19.63,16.77,29.54,21.57
		c13.35,6.46,22.14,8.39,38.77,8.5c15.58,0.11,23.98-1.45,33.65-6.25c7.72-3.83,9.68-6.03,9.71-10.89
		c0.08-15.85,24.34-38.31,41.37-38.31c4.85,0,6.07,0.41,8.54,2.88c8.43,8.43,4.87,24.46-8.52,38.32
		c-10.49,10.85-21.67,14.74-32.57,11.32l-5.62-1.77l-11.37,3.79c-6.26,2.08-13.98,4.45-17.16,5.26
		C181.68,216.99,156.36,217.57,147.41,215.87z M244.21,200.73c8.77-4.39,19.99-18.75,19.99-25.57c0-1.15-1.33,0.61-3.02,3.98
		c-4.33,8.63-13.83,18.2-21.69,21.85c-5.13,2.38-5.68,2.84-2.82,2.34C238.64,203,242.03,201.83,244.21,200.73z M165.82,184.93
		c-10.87-0.98-21.3-4.33-29.78-9.57c-5.05-3.12-3.51-3.35,2.86-0.44c13.57,6.21,33.59,7.97,47.82,4.2
		c6.35-1.68,20.12-7.81,25.49-11.34c1.4-0.92,0.48,0.21-2.04,2.51C199.55,179.97,180.53,186.25,165.82,184.93z M257.16,80.76
		c-1.07-1.07-5.35-7.15-9.49-13.51c-4.15-6.36-10.19-14.41-13.41-17.88c-17-18.33-40.6-28.81-64.87-28.8
		c-15.73,0-22.42,2.39-22.44,8.01c-0.01,2.42-0.86,2.95-9.86,6.21c-11.59,4.19-22.19,10.87-31.7,19.96c-6.76,6.47-8.4,7.54-8.4,5.52
		c0-2.1,17.19-17.96,23.74-21.91c3.72-2.24,6.79-4.65,6.81-5.35c0.05-1.82-0.17-1.74-8.31,3.06c-4.16,2.45-11.31,8.22-16.48,13.3
		c-5.55,5.45-9.49,8.61-10.06,8.03c-1.52-1.51,16.15-18.58,24.95-24.12c6.95-4.37,9.42-6.65,7.22-6.65
		c-1.45,0-12.32,6.61-17.67,10.74c-3.08,2.38-8.57,7.42-12.19,11.19c-7.78,8.1-9.63,7.04-2.35-1.34
		c5.76-6.63,14.23-13.76,23.46-19.78c5.76-3.75,7.79-5.9,5.55-5.9c-1.35,0-12.54,6.98-18.27,11.4c-2.93,2.26-8.31,7.27-11.96,11.14
		c-3.65,3.87-7.12,7.03-7.71,7.03c-3.53,0,11.54-16.27,22.92-24.73c8.79-6.54,16.66-10.83,27.02-14.73l6.62-2.49l1.7,2.11
		c2.88,3.56,5.9,4.06,18.31,3.03c34.46-2.84,66.56,9.51,89.54,34.45c11.32,12.28,18.12,28.06,13.91,32.27
		C261.5,83.23,259.56,83.16,257.16,80.76z M126.56,62.9c4.49-4.93,14.22-10.68,22.78-13.46c11.57-3.76,26.37-3.97,37.38-0.55
		c7.18,2.24,18.95,8.06,18.07,8.93c-0.22,0.22-3.33-0.79-6.92-2.25c-21.66-8.8-48.62-6.6-66.47,5.43
		C124.59,65.6,123.84,65.9,126.56,62.9z"/>
</g>
</svg>
