<?xml version="1.0" encoding="utf-8"?>
<!-- Generator: Adobe Illustrator 27.8.1, SVG Export Plug-In . SVG Version: 6.00 Build 0)  -->
<svg version="1.1" xmlns="http://www.w3.org/2000/svg" xmlns:xlink="http://www.w3.org/1999/xlink" x="0px" y="0px"
	 viewBox="0 0 350 230" style="enable-background:new 0 0 350 230;" xml:space="preserve">
<style type="text/css">
	.st0{fill:#191919;}
	.st1{fill:#FFFFFF;}
	.st2{fill:#FFCA55;}
	.st3{fill:#006865;}
	.st4{fill:#00AEB7;}
	.st5{fill:#EDC599;}
	.st6{fill:url(#SVGID_1_);}
	.st7{fill:#250B00;}
	.st8{fill:#FFDBD4;}
	.st9{fill:#231F20;}
	.st10{fill:#7F7F7F;}
	.st11{fill:#FFD468;}
	.st12{fill:#303030;}
	.st13{fill:#007D54;}
	.st14{fill:#EE3631;}
	.st15{fill:#2B2B2B;}
	.st16{fill:#FFB000;}
	.st17{opacity:0.35;fill:#FFFFFF;}
	.st18{fill:#E09C05;}
	.st19{fill:#A8112B;}
	.st20{fill:#FCB040;}
	.st21{fill:#3DA1D8;}
	.st22{fill:#0C8EBC;}
	.st23{fill:#EFC6A3;}
	.st24{fill:#B0DFFF;}
	.st25{fill-rule:evenodd;clip-rule:evenodd;fill:#FEFEFE;}
	.st26{fill:#006284;}
	.st27{fill:#5B5B5B;}
	.st28{fill:#EACAB0;}
	.st29{fill:#442B18;}
	.st30{fill:#663412;}
	.st31{fill:#C18B63;}
	.st32{fill:#3A1801;}
	.st33{fill:#616D0B;}
	.st34{fill:#98B11F;}
	.st35{fill:#606060;}
	.st36{fill:#E0E0E0;}
	.st37{display:none;fill:#606060;}
	.st38{font-family:'AdobeArabic-Regular';}
	.st39{font-size:40px;}
	.st40{fill-rule:evenodd;clip-rule:evenodd;fill:#FFE183;}
	.st41{fill-rule:evenodd;clip-rule:evenodd;fill:#FFA617;}
	.st42{fill:#FF6745;}
	.st43{fill-rule:evenodd;clip-rule:evenodd;fill:#63A642;}
	.st44{fill-rule:evenodd;clip-rule:evenodd;fill:#925056;}
	.st45{fill-rule:evenodd;clip-rule:evenodd;fill:#2C2F38;}
	.st46{fill:#A5A5A5;}
	.st47{fill:#FFEBB8;}
	.st48{fill:#FFA617;}
	.st49{fill:#AF121A;}
	.st50{fill:#C49718;}
	.st51{fill:#FFD961;}
	.st52{fill:#F93B00;}
	.st53{fill:#FFC02E;}
	.st54{fill:#FA6500;}
	.st55{fill:#9BB200;}
	.st56{fill:#FFF7D6;}
	.st57{fill:#3E9AFF;}
	.st58{fill:#3ED698;}
	.st59{fill:#0F935A;}
</style>
<g id="Layer_1">
</g>
<g id="Layer_2">
</g>
<g id="Layer_3">
</g>
<g id="Layer_4">
</g>
<g id="Layer_5">
</g>
<g id="Layer_6">
</g>
<g id="Layer_7">
</g>
<g id="Layer_8">
</g>
<g id="Layer_9">
</g>
<g id="Layer_10">
	<g>
		<g>
			<path class="st25" d="M214.58,146.07V147c0,0.85-0.69,1.55-1.55,1.55h-74.97c-0.85,0-1.54-0.7-1.54-1.55v-0.92
				c0-0.85,0.69-1.55,1.54-1.55h74.97C213.88,144.52,214.58,145.22,214.58,146.07z M236.92,70.55c0,7.85-4.14,15.29-11.09,19.9
				l-0.32,0.21l-10.01,43.37c-0.38,1.65-1.83,2.79-3.51,2.79h-73.13c-1.73,0-3.22-1.23-3.54-2.93l-7.86-41.12l-0.09-0.47l-0.43-0.21
				c-8.55-4.31-13.86-12.57-13.86-21.55c0-13.53,11.94-24.53,26.6-24.53c3.49,0,6.89,0.62,10.12,1.85l1,0.38l0.28-1.03
				c2.96-10.94,13.56-18.58,25.78-18.58c11.7,0,22.19,7.23,25.5,17.58l0.28,0.86l0.88-0.21c2.29-0.56,4.58-0.84,6.8-0.84
				C224.99,46.01,236.92,57.02,236.92,70.55z"/>
			<path d="M213.03,142.59h-74.97c-1.92,0-3.48,1.56-3.48,3.49V147c0,1.92,1.56,3.49,3.48,3.49h74.97c1.92,0,3.49-1.56,3.49-3.49
				v-0.92C216.51,144.15,214.95,142.59,213.03,142.59z M214.58,147c0,0.85-0.69,1.55-1.55,1.55h-74.97c-0.85,0-1.54-0.7-1.54-1.55
				v-0.92c0-0.85,0.69-1.55,1.54-1.55h74.97c0.86,0,1.55,0.7,1.55,1.55V147z M210.32,44.08c-2.1,0-4.25,0.23-6.4,0.7
				c-3.85-10.69-14.85-18.08-27.06-18.08c-12.71,0-23.8,7.77-27.36,19.01c-3.15-1.08-6.45-1.62-9.82-1.62
				c-15.74,0-28.54,11.88-28.54,26.47c0,9.56,5.54,18.36,14.5,23.06l7.77,40.66c0.5,2.61,2.79,4.5,5.45,4.5h73.13
				c2.6,0,4.81-1.77,5.4-4.29l9.83-42.62c7.29-4.99,11.63-12.92,11.63-21.3C238.85,55.95,226.05,44.08,210.32,44.08z M225.51,90.66
				l-10.01,43.37c-0.38,1.65-1.83,2.79-3.51,2.79h-73.13c-1.73,0-3.22-1.23-3.54-2.93l-7.86-41.12l-0.09-0.47l-0.43-0.21
				c-8.55-4.31-13.86-12.57-13.86-21.55c0-13.53,11.94-24.53,26.6-24.53c3.49,0,6.89,0.62,10.12,1.85l1,0.38l0.28-1.03
				c2.96-10.94,13.56-18.58,25.78-18.58c11.7,0,22.19,7.23,25.5,17.58l0.28,0.86l0.88-0.21c2.29-0.56,4.58-0.84,6.8-0.84
				c14.67,0,26.6,11.01,26.6,24.53c0,7.85-4.14,15.29-11.09,19.9L225.51,90.66z"/>
			<path class="st35" d="M215.75,50.8c-0.3-0.22-0.7-0.26-1.03-0.08c-10.24,5.39-28.53,22.8-40.47,34.73l-3.06-3.06l1.95-1.95
				c2.47-2.47,2.56-6.45,0.2-9.03l-17.37-19.01c-2.51-2.75-6.81-2.85-9.44-0.21l-9.8,9.8c-2.63,2.63-2.54,6.93,0.21,9.45
				l19.01,17.36c2.58,2.36,6.56,2.27,9.03-0.2l1.95-1.95l3.08,3.08c-4.13,4.2-6.89,7.11-7.28,7.52c-0.04,0.04-0.07,0.08-0.1,0.13
				c-0.1,0.07-0.2,0.15-0.29,0.24l-21.94,20.72c-0.32,0.3-0.57,0.66-0.74,1.06l-1.02,2.38c-0.5,1.19-0.24,2.56,0.67,3.47l1.72,1.72
				c0.61,0.61,1.42,0.92,2.24,0.92c0.47,0,0.95-0.11,1.39-0.32l3.43-1.69c1.06-0.52,1.74-1.58,1.76-2.76l0.05-2.27
				c0-0.32,0.14-0.63,0.38-0.85l15.1-14.45c0.07-0.07,0.14-0.14,0.21-0.22c0.1-0.07,0.19-0.15,0.26-0.25
				c1.64-2.25,3.58-3.53,5.76-3.8c3.94-0.48,7.49,2.45,7.52,2.48c0.38,0.31,0.93,0.3,1.29-0.04c0.62-0.59,1.23-1.17,1.83-1.75
				l24.07,24.07c1.17,1.18,3.07,1.18,4.25,0c1.18-1.17,1.18-3.07,0-4.25l-24.07-24.07c25.3-26.06,29.42-45.09,29.59-45.95
				C216.2,51.4,216.05,51.02,215.75,50.8z M160.89,82.54c-0.46,0.56-1.29,0.63-1.84,0.17l-16.86-14.04
				c-0.56-0.46-0.63-1.28-0.17-1.84c0.46-0.56,1.29-0.63,1.84-0.17l16.86,14.04C161.28,81.16,161.35,81.98,160.89,82.54z
				 M164.03,79.46c-0.51,0.51-1.34,0.51-1.85,0l-15.51-15.51c-0.51-0.51-0.51-1.34,0-1.85c0.51-0.51,1.34-0.51,1.85,0l15.51,15.51
				C164.55,78.13,164.55,78.96,164.03,79.46z M167.11,76.32c-0.56,0.46-1.38,0.39-1.84-0.17l-14.03-16.86
				c-0.46-0.56-0.39-1.38,0.17-1.84c0.56-0.46,1.38-0.39,1.84,0.17l14.04,16.86C167.74,75.03,167.66,75.86,167.11,76.32z
				 M145.64,123.61c-0.77,0.77-2,0.77-2.77,0c-0.77-0.77-0.77-2,0-2.77c0.76-0.76,2-0.76,2.77,0
				C146.4,121.61,146.4,122.85,145.64,123.61z M205.41,120.84c0.77-0.76,2-0.76,2.77,0c0.77,0.77,0.77,2,0,2.77
				c-0.77,0.77-2,0.77-2.77,0C204.65,122.85,204.65,121.61,205.41,120.84z M185.16,96.34c-1.35,1.4-2.76,2.82-4.25,4.25
				c-0.39,0.38-0.79,0.76-1.2,1.15c-0.58-0.4-1.49-0.97-2.62-1.45c-1.56-0.68-3.54-1.2-5.67-0.94c-1.38,0.16-2.67,0.64-3.87,1.41
				c0.29-1.02,0.06-2.13-0.65-2.94c-0.34-0.39-0.76-0.68-1.23-0.86c1.26-1.31,3.24-3.36,5.72-5.87c1.28-1.31,2.71-2.74,4.24-4.27
				c8.8-8.78,21.05-20.54,30.83-28.17c2.59-2.01,5-3.74,7.13-5.05C211.75,59.34,205.14,75.72,185.16,96.34z"/>
			<path class="st1" d="M206.47,58.64c-2.75,6.98-9.2,19.78-23.51,35.5c-1.31,1.44-2.68,2.9-4.12,4.38
				c-0.57,0.59-1.15,1.18-1.74,1.77c-1.56-0.68-3.54-1.2-5.67-0.94c-1.38,0.16-2.67,0.64-3.87,1.41c0.29-1.02,0.06-2.13-0.65-2.94
				c-0.34-0.39-0.76-0.68-1.23-0.86c1.26-1.31,3.24-3.36,5.72-5.87c1.28-1.31,2.71-2.74,4.24-4.27
				C184.44,78.04,196.69,66.28,206.47,58.64z"/>
			<path class="st36" d="M213.6,53.59c-1.85,5.75-8.46,22.13-28.44,42.75c-1.35,1.4-2.76,2.82-4.25,4.25
				c-0.39,0.38-0.79,0.76-1.2,1.15c-0.58-0.4-1.49-0.97-2.62-1.45c0.59-0.59,1.18-1.18,1.74-1.77c1.44-1.48,2.81-2.94,4.12-4.38
				c14.31-15.72,20.76-28.52,23.51-35.5C209.06,56.63,211.47,54.9,213.6,53.59z"/>
		</g>
		<text transform="matrix(1 0 0 1 22.2657 181.3976)" class="st37 st38 st39">RESTAURANT &amp; FOOD</text>
	</g>
</g>
<g id="Layer_11">
</g>
<g id="Layer_12">
</g>
<g id="Layer_13">
</g>
<g id="Layer_14">
</g>
<g id="Layer_15">
</g>
</svg>
