<?xml version="1.0" encoding="utf-8"?>
<!-- Generator: Adobe Illustrator 27.8.1, SVG Export Plug-In . SVG Version: 6.00 Build 0)  -->
<svg version="1.1" xmlns="http://www.w3.org/2000/svg" xmlns:xlink="http://www.w3.org/1999/xlink" x="0px" y="0px"
	 viewBox="0 0 350 230" style="enable-background:new 0 0 350 230;" xml:space="preserve">
<style type="text/css">
	.st0{fill:#191919;}
	.st1{fill:#FFFFFF;}
	.st2{fill:#FFCA55;}
	.st3{fill:#006865;}
	.st4{fill:#00AEB7;}
	.st5{fill:#EDC599;}
	.st6{fill:url(#SVGID_1_);}
	.st7{fill:#250B00;}
	.st8{fill:#FFDBD4;}
	.st9{fill:#231F20;}
	.st10{fill:#7F7F7F;}
	.st11{fill:#FFD468;}
	.st12{fill:#303030;}
	.st13{fill:#007D54;}
	.st14{fill:#EE3631;}
	.st15{fill:#2B2B2B;}
	.st16{fill:#FFB000;}
	.st17{opacity:0.35;fill:#FFFFFF;}
	.st18{fill:#E09C05;}
	.st19{fill:#A8112B;}
	.st20{fill:#FCB040;}
	.st21{fill:#3DA1D8;}
	.st22{fill:#0C8EBC;}
	.st23{fill:#EFC6A3;}
	.st24{fill:#B0DFFF;}
	.st25{fill-rule:evenodd;clip-rule:evenodd;fill:#FEFEFE;}
	.st26{fill:#006284;}
	.st27{fill:#5B5B5B;}
	.st28{fill:#EACAB0;}
	.st29{fill:#442B18;}
	.st30{fill:#663412;}
	.st31{fill:#C18B63;}
	.st32{fill:#3A1801;}
	.st33{fill:#616D0B;}
	.st34{fill:#98B11F;}
	.st35{display:none;fill:#3A1801;}
	.st36{font-family:'AdvertisingScript-Bold';}
	.st37{font-size:40px;}
	.st38{fill:#606060;}
	.st39{fill:#E0E0E0;}
	.st40{fill-rule:evenodd;clip-rule:evenodd;fill:#FFE183;}
	.st41{fill-rule:evenodd;clip-rule:evenodd;fill:#FFA617;}
	.st42{fill:#FF6745;}
	.st43{fill-rule:evenodd;clip-rule:evenodd;fill:#63A642;}
	.st44{fill-rule:evenodd;clip-rule:evenodd;fill:#925056;}
	.st45{fill-rule:evenodd;clip-rule:evenodd;fill:#2C2F38;}
	.st46{fill:#A5A5A5;}
	.st47{fill:#FFEBB8;}
	.st48{fill:#FFA617;}
	.st49{fill:#AF121A;}
	.st50{fill:#C49718;}
	.st51{fill:#FFD961;}
	.st52{fill:#F93B00;}
	.st53{fill:#FFC02E;}
	.st54{fill:#FA6500;}
	.st55{fill:#9BB200;}
	.st56{fill:#FFF7D6;}
	.st57{fill:#3E9AFF;}
	.st58{fill:#3ED698;}
	.st59{fill:#0F935A;}
</style>
<g id="Layer_1">
</g>
<g id="Layer_2">
</g>
<g id="Layer_3">
</g>
<g id="Layer_4">
</g>
<g id="Layer_5">
</g>
<g id="Layer_6">
</g>
<g id="Layer_7">
</g>
<g id="Layer_8">
</g>
<g id="Layer_9">
	<g>
		<path class="st32" d="M220.17,50.09c-4.44-0.53-8.45,0.96-12.24,3.21c-0.42,0.25-0.83,0.49-1.26,0.72
			c-1.94,1.1-3.93,2.1-5.95,2.99c-2.45,1.08-5.02,1.88-7.51,2.79v8.89c2.13,0,4.14-0.09,6.13,0.02c3.17,0.17,4.95,2.08,4.96,5.23
			c0.03,5.42,0.03,10.85,0,16.27c-0.03,3.47-1.78,5.22-5.28,5.25c-5.08,0.04-10.15,0.03-15.22,0c-3.21-0.03-4.97-1.56-5.06-4.8
			c-0.14-5.48-0.07-10.96-0.04-16.44c0.02-3.72,1.8-5.48,5.51-5.53c1.85-0.02,3.7,0,5.53,0v-8.07c-0.37,0.02-0.64,0.01-0.89,0.04
			c-13.45,2.27-26.25,0.41-38.39-5.94c0,0-0.63-0.37-0.87-0.58h-0.01c-0.57,0.44-1.18,0.96-1.81,1.57
			c-0.01,0.01-0.02,0.02-0.03,0.03c-0.01,0-0.01,0-0.01,0.01c-4.19,3.65-7.38,8.06-9.48,13.25c-0.21,0.54-0.52,1.05-0.94,1.88
			c-1.12-0.98-2.26-1.65-2.93-2.63c-1.19-1.77-2.11-3.72-3.11-5.62c-2.27-4.27-4.49-8.57-6.85-12.8c-0.32-0.57-1.33-1.2-1.91-1.11
			c-2.17,0.34-4.29,0.96-6.63,1.52c0.2,0.54,0.23,0.76,0.35,0.92c5.7,7.32,7.56,15.65,7.05,24.83c-0.53,9.39,4.74,15.94,13.82,18.15
			c0.75,0.19,1.64,0.81,1.97,1.48c3.54,6.95,8.69,12.34,15.47,16.14c1.26,0.7,1.71,1.57,1.67,3c-0.09,3.02,0.3,3.33,3.32,3.33
			c12.71,0.01,25.42,0.01,38.14,0c3.14,0,3.32-0.09,3.17-3.33c-0.08-1.77,0.57-2.69,2.06-3.58c5.45-3.27,10.08-7.56,12.98-13.23
			c2.01-3.9,4.63-7.04,7.72-10.08c5.77-5.64,10.07-12.22,10.49-20.66C234.53,58.35,228.72,51.11,220.17,50.09z M228.41,66.96
			c-0.41,6.1-3.51,10.92-7.83,15.86c0.09-9.8-3.14-17.71-9.19-24.48c3.02-2.72,7.78-3.41,11.3-1.71
			C226.34,58.41,228.71,62.58,228.41,66.96z M203.53,51.79c-12.93,7.84-34.44,9.18-50.76,0.22c4.32-3.61,12.04-6.17,22.59-7.6
			c-0.11-0.11-0.21-0.22-0.33-0.33c-1.14-1.11-2.66-2.19-3.31-3.66c-0.72-1.64-0.84-3.82-0.44-5.59c0.72-3.21,3.69-5.06,7.05-5.02
			c3.36,0.05,6.05,2.18,6.97,5.51c0.88,3.17-0.27,5.82-3.74,8.38c-0.33,0.25-0.67,0.49-1.04,0.73c6.12,0.45,11.9,1.72,17.3,4.19
			C199.78,49.52,201.69,50.56,203.53,51.79z M200.7,73.29c-0.01-1.22-0.6-1.88-1.95-1.88c-4.93,0-9.85-0.04-14.77-0.1
			c-1.7-0.03-2.34,0.73-2.28,2.41c0.08,2.57,0,12.98-0.1,15.6c-0.06,1.72,0.66,2.38,2.33,2.36c4.99-0.04,9.98-0.02,14.97-0.02
			c1.16,0,1.86-0.54,1.86-1.73C200.76,84.38,200.75,78.83,200.7,73.29z"/>
		<path class="st33" d="M115.32,81.3l-59.35-0.36l0.01-1.77l59.35,0.36L115.32,81.3z M294.03,79.53l-59.35-0.36l-0.01,1.77
			l59.35,0.36L294.03,79.53z M143.41,117.12l-87.43-0.36l-0.01,1.77l87.43,0.36L143.41,117.12z M294.03,117.12l-86.93-0.36
			l-0.01,1.77l86.93,0.36L294.03,117.12z"/>
		<path class="st1" d="M200.51,68.71c-1.99-0.11-4-0.02-6.13-0.02V59.8c2.49-0.91,5.06-1.71,7.51-2.79
			c2.03-0.89,4.02-1.89,5.95-2.99l-3.14-2.23c-12.93,7.84-34.44,9.18-50.76,0.22c0,0-1.32,0.63-3.19,2.11
			c0.24,0.21,0.87,0.58,0.87,0.58c12.14,6.35,24.94,8.22,38.39,5.94c0.26-0.04,0.52-0.03,0.89-0.04v8.07c-1.83,0-3.68-0.02-5.53,0
			c-3.71,0.04-5.49,1.8-5.51,5.53c-0.03,5.48-0.1,10.96,0.04,16.44c0.09,3.25,1.85,4.78,5.06,4.8c5.08,0.03,10.15,0.04,15.22,0
			c3.5-0.03,5.25-1.78,5.28-5.25c0.03-5.42,0.03-10.85,0-16.27C205.46,70.78,203.67,68.87,200.51,68.71z M200.06,91.67
			c-4.99,0-9.98-0.02-14.97,0.02c-1.66,0.02-2.39-0.64-2.33-2.36c0.1-2.63,0.18-13.04,0.1-15.6c-0.06-1.68,0.58-2.43,2.28-2.41
			c4.93,0.06,9.85,0.1,14.77,0.1c1.34,0,1.94,0.65,1.95,1.88c0.04,5.55,0.05,11.09,0.05,16.65
			C201.92,91.13,201.22,91.67,200.06,91.67z M143.05,76.09c-0.05,0-0.1,0-0.16-0.01c-0.48-0.09-0.8-0.55-0.71-1.03
			c2.31-12.77,10.83-15.63,11.19-15.75c0.47-0.15,0.96,0.11,1.11,0.57c0.15,0.46-0.11,0.96-0.57,1.11
			c-0.33,0.11-7.88,2.71-9.99,14.38C143.84,75.79,143.47,76.09,143.05,76.09z"/>
		<path class="st34" d="M173.8,87.82c0.62-11.48,9.45-13.07,9.45-13.07C184.57,85.7,173.8,87.82,173.8,87.82z M173.38,87.47
			c-0.44-8.09-6.66-9.21-6.66-9.21C165.79,85.98,173.38,87.47,173.38,87.47z"/>
		<text transform="matrix(1 0 0 1 27.6429 162.7019)" class="st35 st36 st37">RESTAURANT &amp; FOOD</text>
	</g>
</g>
<g id="Layer_10">
</g>
<g id="Layer_11">
</g>
<g id="Layer_12">
</g>
<g id="Layer_13">
</g>
<g id="Layer_14">
</g>
<g id="Layer_15">
</g>
</svg>
