<?xml version="1.0" encoding="utf-8"?>
<!-- Generator: Adobe Illustrator 27.8.1, SVG Export Plug-In . SVG Version: 6.00 Build 0)  -->
<svg version="1.1" xmlns="http://www.w3.org/2000/svg" xmlns:xlink="http://www.w3.org/1999/xlink" x="0px" y="0px"
	 viewBox="0 0 350 230" style="enable-background:new 0 0 350 230;" xml:space="preserve">
<style type="text/css">
	.st0{fill:#191919;}
	.st1{fill:#FFFFFF;}
	.st2{fill:#FFCA55;}
	.st3{fill:#006865;}
	.st4{fill:#00AEB7;}
	.st5{fill:#EDC599;}
	.st6{fill:url(#SVGID_1_);}
	.st7{fill:#250B00;}
	.st8{fill:#FFDBD4;}
	.st9{fill:#231F20;}
	.st10{fill:#7F7F7F;}
	.st11{fill:#FFD468;}
	.st12{fill:#303030;}
	.st13{fill:#007D54;}
	.st14{fill:#EE3631;}
	.st15{fill:#2B2B2B;}
	.st16{fill:#FFB000;}
	.st17{opacity:0.35;fill:#FFFFFF;}
	.st18{fill:#E09C05;}
	.st19{fill:#A8112B;}
	.st20{fill:#FCB040;}
	.st21{fill:#3DA1D8;}
	.st22{fill:#0C8EBC;}
	.st23{fill:#EFC6A3;}
	.st24{fill:#B0DFFF;}
	.st25{fill-rule:evenodd;clip-rule:evenodd;fill:#FEFEFE;}
	.st26{fill:#006284;}
	.st27{fill:#5B5B5B;}
	.st28{fill:#EACAB0;}
	.st29{fill:#442B18;}
	.st30{fill:#663412;}
	.st31{fill:#C18B63;}
	.st32{fill:#3A1801;}
	.st33{fill:#616D0B;}
	.st34{fill:#98B11F;}
	.st35{fill:#606060;}
	.st36{fill:#E0E0E0;}
	.st37{fill-rule:evenodd;clip-rule:evenodd;fill:#FFE183;}
	.st38{fill-rule:evenodd;clip-rule:evenodd;fill:#FFA617;}
	.st39{fill:#FF6745;}
	.st40{fill-rule:evenodd;clip-rule:evenodd;fill:#63A642;}
	.st41{fill-rule:evenodd;clip-rule:evenodd;fill:#925056;}
	.st42{fill-rule:evenodd;clip-rule:evenodd;fill:#2C2F38;}
	.st43{fill:#A5A5A5;}
	.st44{fill:#FFEBB8;}
	.st45{fill:#FFA617;}
	.st46{fill:#AF121A;}
	.st47{fill:#C49718;}
	.st48{fill:#FFD961;}
	.st49{display:none;fill:#9BB200;}
	.st50{font-family:'AdvertisingScript-Bold';}
	.st51{font-size:38.2245px;}
	.st52{fill:#F93B00;}
	.st53{fill:#FFC02E;}
	.st54{fill:#FA6500;}
	.st55{fill:#9BB200;}
	.st56{fill:#FFF7D6;}
	.st57{fill:#3E9AFF;}
	.st58{fill:#3ED698;}
	.st59{fill:#0F935A;}
</style>
<g id="Layer_1">
</g>
<g id="Layer_2">
</g>
<g id="Layer_3">
</g>
<g id="Layer_4">
</g>
<g id="Layer_5">
</g>
<g id="Layer_6">
</g>
<g id="Layer_7">
</g>
<g id="Layer_8">
</g>
<g id="Layer_9">
</g>
<g id="Layer_10">
</g>
<g id="Layer_11">
</g>
<g id="Layer_12">
</g>
<g id="Layer_13">
</g>
<g id="Layer_14">
	<g>
		<text transform="matrix(1 0 0 1 34.1836 171.8467)" class="st49 st50 st51">RESTAURANT &amp; FOOD</text>
		<g>
			<path class="st52" d="M239.43,128.99h-17.68v-17.53c0-0.41-0.03-0.83-0.09-1.28c-0.26-7.95-7.03-14.88-18.62-19.04
				c-1.15-0.41-2.37-0.81-3.63-1.17c-1.25-0.36-2.57-0.7-3.9-0.99c-0.99-0.22-2.01-0.43-3.04-0.62c-0.85-0.15-1.71-0.3-2.58-0.43
				c-4.67-0.7-9.67-1.05-14.92-1.05c-5.52,0-10.47,0.31-14.89,0.89c-0.88,0.12-1.74,0.24-2.58,0.38
				c-21.04,3.4-29.09,13.06-29.22,22.2c-0.01,0.08-0.01,0.15-0.01,0.22v18.41h-17.68c-0.89-7.17-0.09-14.66,2.43-21.42
				c-0.57,6.34,3.7,12.57,6.85,17.62c0-0.06,0-0.13-0.01-0.19c-2.69-22.43,0.13-41.98,7.43-50.8c0.03,11.76,5.56,19.98,6.66,22.7
				c0.66-19.62,9.07-28.03,6.09-42.69c7.23,7.18,12.49,14.94,16.41,23.85c0.12-3.63,0.7-7.28,1.6-10.75
				c2.29-8.74,6.44-16.72,10.01-24.93c3.58-8.2,6.95-20.06,6.95-20.06s3.37,11.85,6.94,20.06c3.57,8.2,7.72,16.19,10.01,24.93
				c0.91,3.47,1.49,7.12,1.6,10.75c3.92-8.91,9.19-16.67,16.41-23.85c-2.98,14.65,5.44,23.07,6.09,42.69
				c1.1-2.71,6.64-10.94,6.66-22.7c7.3,8.81,10.13,28.37,7.43,50.8c-0.01,0.06-0.01,0.13-0.01,0.19c3.15-5.05,7.42-11.28,6.85-17.62
				C239.52,114.33,240.32,121.82,239.43,128.99z"/>
			<path class="st53" d="M199.7,203.55h-49.4c-9.37,0-17.14-6.89-18.51-15.88c-0.23-1.49,0.95-2.84,2.46-2.84h81.49
				c1.51,0,2.69,1.34,2.46,2.84C216.84,196.66,209.07,203.55,199.7,203.55z M131.58,110.66L131.58,110.66
				c0,0.98,0.79,3.96,1.77,3.96h83.31c0.98,0,1.77-2.98,1.77-3.96l0,0c0-11.32-17.16-20.49-43.42-20.49l0,0
				C146.41,90.17,131.58,99.34,131.58,110.66z"/>
			<path class="st54" d="M215.72,129.05h-81.44c-1.49,0-2.7-1.21-2.7-2.7l0,0c0-1.49,1.21-2.7,2.7-2.7h81.44
				c1.49,0,2.7,1.21,2.7,2.7l0,0C218.42,127.84,217.21,129.05,215.72,129.05z"/>
			<path class="st55" d="M131.8,117.25h43.31c0,3.71-9.7,6.72-21.65,6.72C141.5,123.97,131.8,120.96,131.8,117.25z M196.77,123.97
				c11.96,0,21.65-3.01,21.65-6.72h-43.31C175.11,120.96,184.81,123.97,196.77,123.97z"/>
			<path class="st56" d="M150.5,106.22c0,1.01-0.82,1.83-1.83,1.83c-1.01,0-1.83-0.82-1.83-1.83s0.82-1.83,1.83-1.83
				C149.68,104.39,150.5,105.21,150.5,106.22z M161.83,104.39c-1.01,0-1.83,0.82-1.83,1.83s0.82,1.83,1.83,1.83s1.83-0.82,1.83-1.83
				S162.85,104.39,161.83,104.39z M175,104.39c-1.01,0-1.83,0.82-1.83,1.83s0.82,1.83,1.83,1.83c1.01,0,1.83-0.82,1.83-1.83
				S176.01,104.39,175,104.39z M188.17,104.39c-1.01,0-1.83,0.82-1.83,1.83s0.82,1.83,1.83,1.83s1.83-0.82,1.83-1.83
				S189.18,104.39,188.17,104.39z M155.24,96.72c-1.01,0-1.83,0.82-1.83,1.83c0,1.01,0.82,1.83,1.83,1.83
				c1.01,0,1.83-0.82,1.83-1.83C157.07,97.54,156.25,96.72,155.24,96.72z M168.41,96.72c-1.01,0-1.83,0.82-1.83,1.83
				c0,1.01,0.82,1.83,1.83,1.83s1.83-0.82,1.83-1.83C170.24,97.54,169.42,96.72,168.41,96.72z M181.57,96.72
				c-1.01,0-1.83,0.82-1.83,1.83c0,1.01,0.82,1.83,1.83,1.83c1.01,0,1.83-0.82,1.83-1.83C183.41,97.54,182.58,96.72,181.57,96.72z
				 M194.74,96.72c-1.01,0-1.83,0.82-1.83,1.83c0,1.01,0.82,1.83,1.83,1.83c1.01,0,1.83-0.82,1.83-1.83
				C196.57,97.54,195.75,96.72,194.74,96.72z M201.33,104.39c-1.01,0-1.83,0.82-1.83,1.83s0.82,1.83,1.83,1.83
				c1.01,0,1.83-0.82,1.83-1.83S202.35,104.39,201.33,104.39z"/>
		</g>
	</g>
</g>
<g id="Layer_15">
</g>
</svg>
