<?xml version="1.0" encoding="utf-8"?>
<!-- Generator: Adobe Illustrator 27.8.1, SVG Export Plug-In . SVG Version: 6.00 Build 0)  -->
<svg version="1.1" xmlns="http://www.w3.org/2000/svg" xmlns:xlink="http://www.w3.org/1999/xlink" x="0px" y="0px"
	 viewBox="0 0 350 230" style="enable-background:new 0 0 350 230;" xml:space="preserve">
<style type="text/css">
	.st0{fill:#191919;}
	.st1{fill:#FFFFFF;}
	.st2{fill:#FFCA55;}
	.st3{fill:#006865;}
	.st4{fill:#00AEB7;}
	.st5{fill:#EDC599;}
	.st6{fill:url(#SVGID_1_);}
	.st7{fill:#250B00;}
	.st8{fill:#FFDBD4;}
	.st9{fill:#231F20;}
	.st10{fill:#7F7F7F;}
	.st11{fill:#FFD468;}
	.st12{fill:#303030;}
	.st13{fill:#007D54;}
	.st14{fill:#EE3631;}
	.st15{fill:#2B2B2B;}
	.st16{fill:#FFB000;}
	.st17{opacity:0.35;fill:#FFFFFF;}
	.st18{fill:#E09C05;}
	.st19{fill:#A8112B;}
	.st20{fill:#FCB040;}
	.st21{display:none;fill:#2B2B2B;}
	.st22{font-family:'Ebrima';}
	.st23{font-size:30px;}
	.st24{fill:#3DA1D8;}
	.st25{fill:#0C8EBC;}
	.st26{fill:#EFC6A3;}
	.st27{fill:#B0DFFF;}
	.st28{fill-rule:evenodd;clip-rule:evenodd;fill:#FEFEFE;}
	.st29{fill:#006284;}
	.st30{fill:#5B5B5B;}
	.st31{fill:#EACAB0;}
	.st32{fill:#442B18;}
	.st33{fill:#663412;}
	.st34{fill:#C18B63;}
	.st35{fill:#3A1801;}
	.st36{fill:#616D0B;}
	.st37{fill:#98B11F;}
	.st38{fill:#606060;}
	.st39{fill:#E0E0E0;}
	.st40{fill-rule:evenodd;clip-rule:evenodd;fill:#FFE183;}
	.st41{fill-rule:evenodd;clip-rule:evenodd;fill:#FFA617;}
	.st42{fill:#FF6745;}
	.st43{fill-rule:evenodd;clip-rule:evenodd;fill:#63A642;}
	.st44{fill-rule:evenodd;clip-rule:evenodd;fill:#925056;}
	.st45{fill-rule:evenodd;clip-rule:evenodd;fill:#2C2F38;}
	.st46{fill:#A5A5A5;}
	.st47{fill:#FFEBB8;}
	.st48{fill:#FFA617;}
	.st49{fill:#AF121A;}
	.st50{fill:#C49718;}
	.st51{fill:#FFD961;}
	.st52{fill:#F93B00;}
	.st53{fill:#FFC02E;}
	.st54{fill:#FA6500;}
	.st55{fill:#9BB200;}
	.st56{fill:#FFF7D6;}
	.st57{fill:#3E9AFF;}
	.st58{fill:#3ED698;}
	.st59{fill:#0F935A;}
</style>
<g id="Layer_1">
</g>
<g id="Layer_2">
</g>
<g id="Layer_3">
</g>
<g id="Layer_4">
</g>
<g id="Layer_5">
</g>
<g id="Layer_6">
	<g>
		<g>
			<path class="st18" d="M170.19,101.15c-0.53-0.14-1.11-0.29-1.67-0.43c1.54-1,2.89-0.81,4.08,0.6c0.51,0.61,1.36,0.67,1.87,0.08
				c0.46-0.55,0.83-1.25,1.64-1.23c0.86,0.02,1.71,0.2,2.56,0.31c0,0.08-0.01,0.16-0.01,0.23c-0.58,0.15-1.15,0.3-1.89,0.49
				c0.29,0.18,0.45,0.3,0.62,0.37c1.54,0.6,2.75,1.57,3.6,3c0.25,0.42,0.54,0.84,0.89,1.18c0.43,0.41,0.9,0.84,1.43,1.07
				c1.4,0.62,2.42-0.18,2.24-1.72c-0.07-0.56-0.25-1.1-0.38-1.67c2.08,0.97,2.33,3.61,0.5,5.07c-1.2,0.96-2.58,1.01-3.99,0.76
				c-2.68-0.48-5.14-1.54-7.47-2.92c-0.46-0.27-0.77-0.29-1.25,0c-2.35,1.4-4.84,2.48-7.55,2.94c-1.76,0.3-3.42,0.12-4.57-1.5
				c-1.1-1.55-0.56-3.63,1.05-4.29c-0.08,0.72-0.25,1.47-0.22,2.21c0.04,1.07,0.84,1.64,1.82,1.21c0.75-0.32,1.43-0.88,2.01-1.47
				c0.59-0.6,0.92-1.47,1.54-2.02C168,102.6,169.1,101.93,170.19,101.15z M189.91,100.28c-0.17,0.57-0.34,1.14-0.51,1.71
				c-1.08,3.69-2.27,7.34-4.52,10.54c-1.09,1.55-2.36,2.93-3.9,4.01c-0.27-1.01-0.53-1.96-0.78-2.9c-0.08-0.02-0.16-0.04-0.25-0.05
				c-0.8,3.82-2.74,6.29-6.96,5.99c-3.69-0.26-5.05-2.84-5.76-6.03c-0.07,0.01-0.14,0.01-0.21,0.02c-0.26,0.98-0.53,1.95-0.8,2.98
				c-1.59-1.15-2.88-2.52-3.99-4.07c-2.75-3.83-4.1-8.21-4.97-12.77c-0.43-2.25-0.73-4.53-1.1-6.79c-0.05,0-0.11,0-0.16,0
				c0,0.82,0,1.63,0,2.45c0,0.81,0,1.62,0,2.46c-1.83-1.39-3.32-5.9-2.64-7.91c0.19-0.56,0.57-0.65,1.02-0.33
				c0.4,0.28,0.76,0.62,1.16,0.96c-0.06-1.18-0.73-1.81-1.96-1.93c-0.7-0.07-1.16,0.4-1.4,1.44c-0.06,0.24-0.08,0.49-0.08,0.73
				c-0.05,3.58,1.06,6.69,3.79,9.12c0.23,0.2,0.41,0.52,0.48,0.81c0.31,1.33,0.5,2.7,0.87,4.01c1.42,4.98,3.61,9.53,7.6,13.03
				c4.38,3.84,11.4,4.36,16.26,1.15c3.15-2.08,5.1-5.09,6.49-8.51c1.32-3.25,2.11-6.63,2.29-10.14L189.91,100.28z M189.9,100.26
				c0.08,0,0.17,0.02,0.23-0.01c2.74-1.69,5.01-7.2,4.23-10.26c-0.25-0.97-0.89-1.49-1.67-1.35c-1.03,0.18-1.59,0.79-1.73,1.89
				c0.31-0.26,0.57-0.55,0.9-0.75c0.29-0.17,0.76-0.41,0.94-0.3c0.25,0.16,0.43,0.62,0.44,0.96c0.05,2.6-0.51,5.05-2.3,7.01
				c-0.78,0.86-0.97,1.78-1.02,2.83C189.91,100.28,189.9,100.26,189.9,100.26z M182.34,88.83c-1.26,0-2.27,1.02-2.27,2.27
				s1.02,2.27,2.27,2.27c1.26,0,2.27-1.02,2.27-2.27S183.59,88.83,182.34,88.83z M165.79,88.83c-1.26,0-2.27,1.02-2.27,2.27
				s1.02,2.27,2.27,2.27c1.26,0,2.27-1.02,2.27-2.27S167.04,88.83,165.79,88.83z M182.32,86.56c-1.46,0-2.65,1.02-2.65,2.27
				c0,0.13,0.02,0.26,0.04,0.38c0.2-1.08,1.3-1.89,2.61-1.89c1.31,0,2.41,0.82,2.61,1.89c0.02-0.12,0.04-0.25,0.04-0.38
				C184.98,87.57,183.79,86.56,182.32,86.56z M165.79,86.56c-1.46,0-2.65,1.02-2.65,2.27c0,0.13,0.02,0.26,0.04,0.38
				c0.2-1.08,1.3-1.89,2.61-1.89c1.31,0,2.41,0.82,2.61,1.89c0.02-0.12,0.04-0.25,0.04-0.38C168.44,87.57,167.25,86.56,165.79,86.56
				z M158.47,35.81c-7.01,0.39-13.96,5.69-15.25,14.49c-0.97,6.67,3.28,14.44,9.75,17.07c0.94,0.38,1.27,0.89,1.26,1.92
				c-0.06,4.9-0.04,9.81-0.04,14.71c0,0.41,0.08,0.83,0.16,1.52c5.7-5.11,12.04-7.93,19.5-7.94c7.33-0.02,13.9,2.2,19.6,6.98
				c0.18-0.12,0.36-0.23,0.54-0.35c-0.58-4.68-1.16-9.37-1.74-14.05c-0.16,0.01-0.31,0.03-0.47,0.04c-0.58,2.18-1.15,4.36-1.74,6.59
				c-10.36-5.44-20.63-5.13-31.01-0.58c0-2.34-0.05-4.62,0.05-6.89c0.02-0.45,0.54-1.06,0.98-1.28c1.28-0.63,2.6-1.25,3.98-1.59
				c5.09-1.26,10.25-1.55,15.42-0.49c1.57,0.32,3.13,0.73,4.7,1.07c1.26,0.27,2.04-0.38,2.3-1.51c0.27-1.17-0.35-1.84-1.56-2
				c-0.39-0.05-0.76-0.26-1.15-0.35c-7.35-1.82-14.67-2.14-22,0.22c-1.32,0.42-2.78,0.67-4.15,0.6c-2.59-0.14-4.58-1.63-6.44-3.35
				c-3.16-2.93-4.43-8.1-2.92-12.42c1.6-4.57,5.85-7.91,10.19-8.19c4.8-0.32,8.5,1.58,11.35,5.35c0.72,0.95,1.64,1.62,2.79,0.77
				c1.19-0.89,1-2.06,0.06-2.99c-1.59-1.57-3.17-3.21-4.99-4.48c-1.22-0.84-1.42-1.48-0.89-2.76c2.41-5.78,8.66-8.99,14.72-7.47
				c6.09,1.52,10.17,7.41,9.54,13.67c-0.18,1.84-0.76,3.01-2.61,3.97c-3.84,2.01-5.88,5.43-5.91,9.85c0,0.48,0.7,0.96,1.07,1.44
				c0.5-0.43,1.04-0.83,1.48-1.32c0.15-0.16,0.02-0.56,0.06-0.85c0.56-4.79,5.22-8.63,9.49-7.84c3.64,0.67,6.54,3.73,7.27,7.67
				c0.65,3.48-1.14,7.55-4.27,9.32c-1.6,0.9-3.36,1.53-4.98,2.25c3.68,1.28,9.53-2.63,10.88-7.12c2.12-7.02-1.41-12.68-9.67-15.24
				c0.86-10.26-3.08-16.83-11.39-19.27c-6.37-1.87-16.18,0.44-20.03,10.83C161.11,35.8,159.79,35.74,158.47,35.81z"/>
			<path class="st19" d="M153.76,128.99l0.47,0.47c-0.75,0.16-1.49,0.32-2.24,0.48c0,0-10.09,2.11-16.56,7.59
				c-0.88,0.75-1.64,1.82-1.98,3.24c-0.23,0.98-0.15,1.82-0.06,2.35c-1.05-1.92-2.19-4.45-3.04-7.53c-1.06-3.84-1.3-7.24-1.28-9.74
				c3.36-2.18,7.55-4.53,12.55-6.62c1.44-0.6,2.84-1.14,4.2-1.61c0.08-0.03,0.17-0.06,0.25-0.09c0.05,0.03,0.1,0.06,0.14,0.1
				c0.05,0.03,0.11,0.07,0.16,0.11c0.05,0.04,0.11,0.08,0.16,0.12c2.26,1.8,6.73,6.44,9.24,9.11L153.76,128.99z M136.18,138.25
				c-0.37,0.35-0.83,0.79-1.23,1.5c-0.23,0.42-1.11,2.01-0.47,3.03c0.27,0.43,0.73,0.64,1.36,0.81c2.11,0.56,4.28,0.1,5.7-0.35
				c-1.04-2.17-2.08-4.33-3.13-6.5C137.85,137,137.01,137.46,136.18,138.25z M135.47,144.7c-1.03-0.13-1.9-0.39-2.59-0.65
				c-0.7-1.2-1.42-2.57-2.09-4.12c-0.94-2.17-1.57-4.19-2-5.95c-2.89,1.35-6.86,3.65-10.69,7.48c-2.18,2.18-3.81,4.35-5.02,6.24
				c1.43-0.38,3.21-0.72,5.27-0.83c1.41-0.07,2.69-0.02,3.81,0.09c-0.16,2.05-0.18,4.6,0.19,7.5c0.4,3.08,1.13,5.68,1.85,7.69
				c1.81-3.98,5.07-9.57,10.87-14.36c1.65-1.36,3.28-2.47,4.83-3.38C138.89,144.66,137.33,144.94,135.47,144.7z M207.46,119.23
				c-0.34-0.14-0.68-0.28-1.02-0.42c-1.74-0.7-3.43-1.3-5.05-1.82c-0.5,0.23-0.98,0.52-1.42,0.87c-0.28,0.23-0.61,0.5-0.95,0.8
				h-0.01c-0.5,0.45-1.05,0.96-1.64,1.53c-0.17,0.16-0.34,0.33-0.52,0.5c-0.25,0.24-0.52,0.5-0.78,0.76
				c-0.18,0.18-0.36,0.35-0.53,0.53c-0.36,0.36-0.72,0.72-1.07,1.08c-1.25,1.27-2.45,2.53-3.42,3.56c-0.11,0.12-0.22,0.23-0.32,0.34
				l2.01,2.01l-0.02,0.02c0.15,0.03,0.3,0.06,0.46,0.1c1.3,0.27,2.6,0.55,3.9,0.82c0,0,10.09,2.11,16.56,7.59
				c0.88,0.75,1.64,1.82,1.98,3.24c0.23,0.98,0.15,1.82,0.06,2.35c1.05-1.92,2.19-4.45,3.04-7.53c1.06-3.84,1.3-7.24,1.29-9.74
				C216.65,123.67,212.46,121.32,207.46,119.23z M213.22,143.59c0.63-0.17,1.09-0.39,1.36-0.81c0.64-1.03-0.24-2.62-0.47-3.03
				c-0.39-0.71-0.86-1.15-1.23-1.5c-0.83-0.79-1.67-1.24-2.23-1.5c-1.04,2.17-2.08,4.33-3.13,6.5
				C208.95,143.69,211.11,144.16,213.22,143.59z M220.29,133.97c-0.43,1.76-1.06,3.78-2,5.95c-0.67,1.55-1.39,2.92-2.09,4.12
				c-0.69,0.26-1.56,0.52-2.59,0.65c-1.86,0.24-3.42-0.03-4.42-0.3c1.55,0.92,3.18,2.03,4.83,3.38c5.81,4.78,9.06,10.37,10.87,14.36
				c0.72-2.01,1.45-4.61,1.85-7.69c0.37-2.9,0.35-5.46,0.19-7.5c1.12-0.11,2.4-0.16,3.81-0.09c2.06,0.11,3.84,0.45,5.27,0.83
				c-1.21-1.89-2.85-4.06-5.02-6.24C227.14,137.62,223.17,135.32,220.29,133.97z"/>
			<path class="st15" d="M232.06,82.36c0,0-7.47-8.4-14.51-7.87c-7.04,0.53-20.24,24.57-19.22,31.34c0,0,0.81,5.37-1.77,8.62
				c-0.82,1.04-2.25,2.54-3.8,4.1c-1.84,1.85-3.86,3.78-5.31,5.14l1.31,1.31l0.16,0.16l0.17,0.17l1.64,1.64
				c0.1-0.11,0.21-0.22,0.32-0.34c0.97-1.03,2.18-2.29,3.42-3.56c0.36-0.36,0.72-0.73,1.07-1.08c0.17-0.18,0.35-0.36,0.53-0.53
				c0.26-0.26,0.53-0.52,0.78-0.76c0.17-0.17,0.35-0.34,0.52-0.5c0.59-0.57,1.14-1.08,1.64-1.53h0.01c0.35-0.31,0.67-0.58,0.95-0.8
				c0.44-0.35,0.91-0.64,1.42-0.87c3.19-1.51,7.21-0.9,7.21-0.9c6.77,1.02,30.81-12.18,31.35-19.22
				C240.47,89.83,232.06,82.36,232.06,82.36z M217.23,75.52c0.74-0.18,1.52-0.21,2.26-0.08c0.75,0.09,1.45,0.45,2.05,0.85
				c-0.74-0.1-1.42-0.22-2.11-0.2c-0.68,0.01-1.36,0.07-2.02,0.25c-1.32,0.31-2.58,0.89-3.88,1.58
				C214.42,76.71,215.76,75.88,217.23,75.52z M205.51,100.49c-0.46,0.46-1.2,0.46-1.66,0c-0.46-0.46-0.46-1.2,0-1.66l17.53-17.53
				c0.46-0.46,1.2-0.46,1.66,0c0.46,0.46,0.46,1.2,0,1.66L205.51,100.49z M208.96,103.95c-0.46,0.46-1.2,0.46-1.66,0
				c-0.46-0.46-0.46-1.2,0-1.66l17.53-17.53c0.46-0.46,1.2-0.46,1.66,0c0.46,0.46,0.46,1.2,0,1.66L208.96,103.95z M210.76,107.4
				c-0.46-0.46-0.46-1.2,0-1.66l17.53-17.53c0.46-0.46,1.2-0.46,1.66,0c0.46,0.46,0.46,1.2,0,1.66l-17.53,17.53
				C211.96,107.86,211.21,107.86,210.76,107.4z M214.21,110.85c-0.46-0.46-0.46-1.2,0-1.66l17.53-17.53c0.46-0.46,1.2-0.46,1.66,0
				c0.46,0.46,0.46,1.2,0,1.66l-17.53,17.53C215.41,111.31,214.67,111.31,214.21,110.85z M237.45,98.55
				c-0.5,0.88-1.12,1.67-1.79,2.43c-1.34,1.5-2.93,2.74-4.5,3.94c-1.59,1.18-3.22,2.32-4.92,3.36c-1.69,1.04-3.42,2.04-5.23,2.86
				c1.63-1.13,3.26-2.25,4.86-3.4c1.6-1.16,3.2-2.3,4.77-3.49c1.58-1.18,3.14-2.37,4.54-3.72c0.7-0.68,1.36-1.4,1.91-2.2
				c0.55-0.78,1.06-1.66,1.11-2.66C238.36,96.68,237.9,97.67,237.45,98.55z M158.32,122.99c-1.58-1.5-3.61-3.45-5.34-5.23
				c-1.25-1.27-2.34-2.45-3.03-3.32c-2.59-3.25-1.77-8.62-1.77-8.62l-0.01-0.01c1.32-4.78,0.2-10.09-3.37-13.97l0.01-0.01
				c-4.44-5.25-9.17-8.56-9.17-8.56c-7.95-6.06-17.41-7.16-22.43-2.14c-5.02,5.02-3.91,14.48,2.15,22.42v0c0,0,3.31,4.73,8.56,9.17
				l0.01-0.01c3.87,3.57,9.19,4.68,13.97,3.36l0.01,0.01c0,0,4.89-0.74,8.16,1.44c0.05,0.03,0.1,0.06,0.14,0.1
				c0.05,0.03,0.11,0.07,0.16,0.11c0.05,0.04,0.11,0.08,0.16,0.12c2.26,1.8,6.73,6.44,9.24,9.11l3.22-3.22h0l0.06-0.06
				C158.82,123.47,158.58,123.24,158.32,122.99z M140.19,113.73c-0.48,0.24-0.98,0.44-1.5,0.61c-1.04,0.29-2.13,0.41-3.2,0.43
				c-1.08,0.02-2.14-0.07-3.21-0.21c-0.55-0.09-1.09-0.19-1.6-0.37c-0.53-0.14-1.04-0.34-1.54-0.55c-2-0.85-3.79-2.07-5.42-3.44
				c-1.63-1.37-3.1-2.92-4.36-4.62c1.58,1.4,3.22,2.71,4.9,3.93c1.69,1.2,3.44,2.32,5.32,3.1c0.92,0.42,1.9,0.72,2.88,0.9
				c0.99,0.2,2.04,0.31,3.06,0.39c1.02,0.06,2.05,0.06,3.06-0.08c0.51-0.07,1.01-0.19,1.5-0.35c0.49-0.14,0.99-0.4,1.54-0.37
				C141.09,113.17,140.67,113.5,140.19,113.73z M140.34,90.12l-2.48-2.06c-1.71-1.3-3.4-2.6-5.24-3.69
				c-1.79-1.15-3.69-2.11-5.68-2.86c-0.99-0.36-2.01-0.68-3.05-0.88c-1.04-0.24-2.11-0.35-3.19-0.29c2.13-0.56,4.42-0.26,6.52,0.34
				c2.13,0.6,4.14,1.56,5.99,2.73c0.95,0.56,1.82,1.23,2.71,1.87c0.86,0.68,1.69,1.39,2.5,2.12c0.78,0.76,1.55,1.53,2.3,2.32
				c0.7,0.84,1.42,1.65,2.08,2.51C141.96,91.55,141.16,90.82,140.34,90.12z"/>
			<path class="st20" d="M191.13,130.6l1.61-1.61l-2.01-2.01l-3.29-3.29l-2.01-2.01l-0.68,0.68l-0.94,0.93c0,0-0.05,0.16-0.16,0.46
				c-0.42,1.11-1.68,4.13-4.25,7.26c-1.13,1.38-2.51,2.78-4.18,4.05c-0.58,0.44-1.25,0.94-1.98,1.48c-0.74-0.54-1.41-1.04-1.99-1.48
				c-6.45-4.91-8.59-11.77-8.59-11.77l-1.61-1.61l-2.01,2.01l-0.06,0.06h0l-5.23,5.23l0.47,0.47l0.46,0.46l0.68,0.68
				c0,0,6.86,2.14,11.77,8.59c0.29,0.38,0.6,0.79,0.93,1.24c-7.13,5.53-15,12.73-10.91,16.83c3.92,3.92,10.67-3.1,16.09-9.96
				c5.41,6.85,12.16,13.88,16.09,9.96c4.1-4.1-3.78-11.3-10.91-16.83c0.33-0.45,0.64-0.86,0.93-1.24
				C184.27,132.73,191.13,130.6,191.13,130.6z M182.41,127.73c0.4-0.57,0.75-1.15,1.11-1.74c0.34-0.6,0.67-1.2,0.89-1.87
				c0.01,0.72-0.23,1.41-0.5,2.06c-0.28,0.66-0.64,1.28-1.03,1.87c-0.4,0.59-0.83,1.14-1.31,1.66c-0.48,0.52-0.98,1.02-1.53,1.46
				C180.81,129.98,181.65,128.88,182.41,127.73z M176.78,139.91c0.22,0.17,0.45,0.34,0.67,0.51c-0.15,0.18-0.3,0.37-0.45,0.56
				c-0.22-0.16-0.45-0.32-0.67-0.48C176.48,140.3,176.63,140.1,176.78,139.91z M160.02,131.79c-0.56-0.4-1.15-0.75-1.74-1.11
				c-0.6-0.34-1.2-0.67-1.87-0.89c0.72-0.01,1.41,0.23,2.06,0.5c0.66,0.28,1.28,0.64,1.87,1.03c0.59,0.4,1.14,0.83,1.66,1.31
				c0.52,0.48,1.02,0.98,1.46,1.53C162.28,133.39,161.18,132.55,160.02,131.79z M159.3,157.62c-0.5-0.07-0.98-0.31-1.36-0.65
				c-0.37-0.36-0.63-0.73-0.84-1.17c-0.2-0.43-0.33-0.96-0.16-1.42c0.16,0.44,0.46,0.75,0.72,1.07c0.27,0.3,0.57,0.65,0.85,0.89
				c0.57,0.52,1.28,0.83,2.21,1.01C160.3,157.61,159.79,157.69,159.3,157.62z M162.92,154.03c-0.7,0.7-1.83,0.7-2.52,0
				c-0.7-0.7-0.7-1.82,0-2.52c0.7-0.7,1.83-0.7,2.52,0C163.61,152.2,163.61,153.33,162.92,154.03z M160.45,149.06
				c1.29-1.96,2.94-3.65,4.65-5.22c1.1-0.98,2.23-1.92,3.43-2.79c0.1,0.14,0.21,0.29,0.32,0.44c-1.04,1.02-2.11,2-3.18,2.98
				C163.95,146.02,162.24,147.55,160.45,149.06z M170.1,149.58c-0.94,0.94-1.91,1.84-2.96,2.66c1.85-1.9,3.53-3.91,5.05-6.06
				c0.03-0.04,0.05-0.08,0.08-0.12c0.14,0.17,0.27,0.35,0.42,0.53C171.87,147.61,171.02,148.63,170.1,149.58z M172.13,137.37
				c-0.02-0.01-0.04-0.03-0.06-0.05c-2.04-1.69-4.06-3.44-5.83-5.43c-1.76-1.99-3.42-4.12-4.51-6.54c0.69,1.13,1.49,2.18,2.33,3.18
				c0.83,1.01,1.72,1.99,2.65,2.91c1.85,1.87,3.82,3.59,5.9,5.22c0.07,0.06,0.15,0.12,0.23,0.19
				C172.6,137.02,172.37,137.19,172.13,137.37z M173.38,145.71c-0.15-0.2-0.29-0.4-0.43-0.6c0.08-0.12,0.17-0.24,0.25-0.35
				c0.17,0.17,0.34,0.34,0.51,0.52C173.59,145.41,173.49,145.56,173.38,145.71z M176.14,149.1c-0.77-0.86-1.51-1.74-2.22-2.66
				c0.13-0.18,0.27-0.36,0.41-0.53c0.83,0.86,1.63,1.74,2.43,2.62c1.55,1.72,3.08,3.43,4.59,5.22
				C179.4,152.46,177.71,150.82,176.14,149.1z M187.74,156.55c0.3-0.27,0.65-0.57,0.89-0.85c0.52-0.57,0.83-1.28,1.01-2.21
				c0.25,0.41,0.34,0.92,0.26,1.42c-0.06,0.5-0.31,0.98-0.64,1.36c-0.37,0.37-0.73,0.63-1.18,0.84c-0.43,0.2-0.96,0.33-1.42,0.16
				C187.11,157.11,187.42,156.81,187.74,156.55z M186.11,151.5c0.7,0.7,0.7,1.83,0,2.52c-0.7,0.7-1.83,0.7-2.52,0
				c-0.7-0.7-0.7-1.82,0-2.52C184.28,150.81,185.41,150.81,186.11,151.5z M178.85,141.49c1.04,0.83,2.06,1.69,3.01,2.61
				c0.94,0.94,1.84,1.91,2.66,2.96c-1.9-1.85-3.91-3.53-6.06-5.05c-0.26-0.19-0.53-0.37-0.79-0.56c0.14-0.19,0.28-0.38,0.41-0.56
				C178.34,141.09,178.6,141.3,178.85,141.49z M177.82,139.96c-0.22-0.17-0.44-0.34-0.66-0.51c1.61-1.93,3.27-3.83,5.16-5.51
				c1.99-1.76,4.12-3.42,6.54-4.51c-1.13,0.69-2.18,1.49-3.18,2.33c-1.01,0.83-1.99,1.72-2.91,2.65
				C181,136.15,179.37,138.01,177.82,139.96z"/>
			<path class="st1" d="M237.45,98.55c-0.5,0.88-1.12,1.67-1.79,2.43c-1.34,1.5-2.93,2.74-4.5,3.94c-1.59,1.18-3.22,2.32-4.92,3.36
				c-1.69,1.04-3.42,2.04-5.23,2.86c1.63-1.13,3.26-2.25,4.86-3.4c1.6-1.16,3.2-2.3,4.77-3.49c1.58-1.18,3.14-2.37,4.54-3.72
				c0.7-0.68,1.36-1.4,1.91-2.2c0.55-0.78,1.06-1.66,1.11-2.66C238.36,96.68,237.9,97.67,237.45,98.55z M233.4,91.66
				c-0.46-0.46-1.2-0.46-1.66,0l-17.53,17.53c-0.46,0.46-0.46,1.2,0,1.66c0.46,0.46,1.2,0.46,1.66,0l17.53-17.53
				C233.86,92.86,233.86,92.12,233.4,91.66z M229.95,88.21c-0.46-0.46-1.2-0.46-1.66,0l-17.53,17.53c-0.46,0.46-0.46,1.2,0,1.66
				c0.46,0.46,1.2,0.46,1.66,0l17.53-17.53C230.4,89.41,230.4,88.66,229.95,88.21z M226.49,84.75c-0.46-0.46-1.2-0.46-1.66,0
				l-17.53,17.53c-0.46,0.46-0.46,1.2,0,1.66c0.46,0.46,1.2,0.46,1.66,0l17.53-17.53C226.95,85.96,226.95,85.21,226.49,84.75z
				 M223.04,81.3c-0.46-0.46-1.2-0.46-1.66,0l-17.53,17.53c-0.46,0.46-0.46,1.2,0,1.66c0.46,0.46,1.2,0.46,1.66,0l17.53-17.53
				C223.5,82.5,223.5,81.76,223.04,81.3z M219.49,75.43c-0.75-0.13-1.53-0.1-2.26,0.08c-1.47,0.37-2.81,1.2-3.69,2.4
				c1.3-0.69,2.56-1.27,3.88-1.58c0.66-0.17,1.34-0.23,2.02-0.25c0.69-0.02,1.37,0.09,2.11,0.2
				C220.94,75.88,220.25,75.52,219.49,75.43z M140.07,113.45c-0.5,0.16-1,0.27-1.5,0.35c-1.01,0.15-2.04,0.14-3.06,0.08
				c-1.02-0.07-2.07-0.19-3.06-0.39c-0.98-0.19-1.95-0.49-2.88-0.9c-1.88-0.78-3.63-1.9-5.32-3.1c-1.68-1.22-3.32-2.53-4.9-3.93
				c1.26,1.7,2.73,3.25,4.36,4.62c1.62,1.38,3.42,2.59,5.42,3.44c0.5,0.21,1.01,0.41,1.54,0.55c0.52,0.18,1.06,0.28,1.6,0.37
				c1.07,0.14,2.13,0.24,3.21,0.21c1.07-0.01,2.16-0.13,3.2-0.43c0.52-0.16,1.02-0.36,1.5-0.61c0.48-0.23,0.9-0.56,1.43-0.65
				C141.07,113.05,140.56,113.31,140.07,113.45z M140.73,89.72c-0.75-0.79-1.52-1.56-2.3-2.32c-0.81-0.73-1.64-1.44-2.5-2.12
				c-0.89-0.64-1.76-1.31-2.71-1.87c-1.86-1.16-3.87-2.13-5.99-2.73c-2.11-0.6-4.4-0.9-6.52-0.34c1.08-0.06,2.16,0.04,3.19,0.29
				c1.04,0.21,2.06,0.52,3.05,0.88c1.99,0.75,3.88,1.71,5.68,2.86c1.83,1.09,3.53,2.39,5.24,3.69l2.48,2.06
				c0.82,0.7,1.62,1.43,2.47,2.12C142.14,91.38,141.42,90.56,140.73,89.72z M183.52,125.98c-0.36,0.59-0.71,1.18-1.11,1.74
				c-0.76,1.16-1.6,2.25-2.37,3.44c0.55-0.44,1.05-0.94,1.53-1.46c0.48-0.52,0.91-1.08,1.31-1.66c0.39-0.59,0.75-1.21,1.03-1.87
				c0.27-0.65,0.51-1.35,0.5-2.06C184.19,124.78,183.86,125.39,183.52,125.98z M162,132.63c-0.52-0.48-1.08-0.91-1.66-1.31
				c-0.59-0.39-1.21-0.75-1.87-1.03c-0.65-0.27-1.35-0.51-2.06-0.5c0.67,0.22,1.27,0.55,1.87,0.89c0.59,0.36,1.18,0.71,1.74,1.11
				c1.16,0.76,2.25,1.6,3.44,2.37C163.02,133.61,162.52,133.11,162,132.63z M162.92,151.5c-0.7-0.7-1.83-0.7-2.52,0
				c-0.7,0.7-0.7,1.83,0,2.52c0.7,0.7,1.83,0.7,2.52,0C163.61,153.33,163.61,152.2,162.92,151.5z M158.5,156.35
				c-0.28-0.25-0.58-0.6-0.85-0.89c-0.26-0.33-0.56-0.64-0.72-1.07c-0.17,0.46-0.04,0.99,0.16,1.42c0.21,0.45,0.47,0.81,0.84,1.17
				c0.38,0.34,0.86,0.58,1.36,0.65c0.5,0.07,1-0.01,1.42-0.26C159.78,157.18,159.07,156.87,158.5,156.35z M189.65,153.49
				c-0.18,0.93-0.49,1.64-1.01,2.21c-0.24,0.28-0.6,0.58-0.89,0.85c-0.33,0.26-0.63,0.56-1.07,0.72c0.46,0.17,0.99,0.04,1.42-0.16
				c0.45-0.21,0.81-0.47,1.18-0.84c0.33-0.38,0.58-0.86,0.64-1.36C189.99,154.41,189.9,153.91,189.65,153.49z M186.11,151.5
				c-0.7-0.7-1.83-0.7-2.52,0c-0.7,0.7-0.7,1.83,0,2.52c0.7,0.7,1.83,0.7,2.52,0C186.8,153.33,186.8,152.2,186.11,151.5z
				 M172.6,136.66c-2.07-1.63-4.05-3.35-5.9-5.22c-0.93-0.92-1.81-1.9-2.65-2.91c-0.85-1-1.64-2.06-2.33-3.18
				c1.1,2.42,2.75,4.55,4.51,6.54c1.77,1.99,3.79,3.74,5.83,5.43c0.02,0.01,0.04,0.03,0.06,0.05c0.24-0.18,0.47-0.35,0.7-0.52
				C172.75,136.79,172.67,136.73,172.6,136.66z M168.53,141.05c-1.2,0.87-2.33,1.81-3.43,2.79c-1.71,1.57-3.36,3.26-4.65,5.22
				c1.78-1.51,3.5-3.04,5.22-4.59c1.07-0.98,2.14-1.96,3.18-2.98C168.74,141.35,168.63,141.2,168.53,141.05z M176.76,148.54
				c-0.8-0.88-1.6-1.76-2.43-2.62c-0.13,0.17-0.27,0.35-0.41,0.53c0.7,0.91,1.45,1.8,2.22,2.66c1.57,1.71,3.26,3.36,5.22,4.65
				C179.84,151.97,178.31,150.26,176.76,148.54z M173.2,144.75c-0.08,0.11-0.17,0.23-0.25,0.35c0.14,0.2,0.28,0.4,0.43,0.6
				c0.11-0.14,0.22-0.29,0.33-0.44C173.54,145.1,173.37,144.93,173.2,144.75z M172.27,146.05c-0.03,0.04-0.05,0.08-0.08,0.12
				c-1.51,2.15-3.2,4.16-5.05,6.06c1.04-0.82,2.02-1.72,2.96-2.66c0.92-0.95,1.77-1.96,2.59-2.99
				C172.55,146.41,172.41,146.23,172.27,146.05z M181.87,144.11c-0.96-0.92-1.98-1.78-3.01-2.61c-0.26-0.2-0.51-0.4-0.77-0.6
				c-0.13,0.18-0.27,0.37-0.41,0.56c0.26,0.19,0.53,0.37,0.79,0.56c2.15,1.51,4.16,3.2,6.06,5.05
				C183.71,146.02,182.81,145.05,181.87,144.11z M182.32,133.94c-1.89,1.67-3.55,3.58-5.16,5.51c0.22,0.17,0.44,0.34,0.66,0.51
				c1.55-1.94,3.18-3.8,4.95-5.55c0.92-0.93,1.9-1.81,2.91-2.65c1-0.85,2.06-1.64,3.18-2.33
				C186.43,130.52,184.3,132.18,182.32,133.94z M176.78,139.91c-0.15,0.19-0.31,0.39-0.46,0.59c0.22,0.16,0.45,0.32,0.67,0.48
				c0.15-0.19,0.3-0.38,0.45-0.56C177.23,140.24,177.01,140.07,176.78,139.91z"/>
		</g>
		<text transform="matrix(1 0 0 1 24.2235 196.0298)" class="st21 st22 st23">RESTAURANT &amp; FOOD</text>
	</g>
</g>
<g id="Layer_7">
</g>
<g id="Layer_8">
</g>
<g id="Layer_9">
</g>
<g id="Layer_10">
</g>
<g id="Layer_11">
</g>
<g id="Layer_12">
</g>
<g id="Layer_13">
</g>
<g id="Layer_14">
</g>
<g id="Layer_15">
</g>
</svg>
