<?xml version="1.0" encoding="utf-8"?>
<!-- Generator: Adobe Illustrator 27.8.1, SVG Export Plug-In . SVG Version: 6.00 Build 0)  -->
<svg version="1.1" xmlns="http://www.w3.org/2000/svg" xmlns:xlink="http://www.w3.org/1999/xlink" x="0px" y="0px"
	 viewBox="0 0 350 230" style="enable-background:new 0 0 350 230;" xml:space="preserve">
<style type="text/css">
	.st0{fill:#191919;}
	.st1{fill:#FFFFFF;}
	.st2{fill:#FFCA55;}
	.st3{fill:#006865;}
	.st4{fill:#00AEB7;}
	.st5{fill:#EDC599;}
	.st6{fill:url(#SVGID_1_);}
	.st7{fill:#250B00;}
	.st8{fill:#FFDBD4;}
	.st9{fill:#231F20;}
	.st10{fill:#7F7F7F;}
	.st11{fill:#FFD468;}
	.st12{fill:#303030;}
	.st13{fill:#007D54;}
	.st14{fill:#EE3631;}
	.st15{fill:#2B2B2B;}
	.st16{fill:#FFB000;}
	.st17{opacity:0.35;fill:#FFFFFF;}
	.st18{fill:#E09C05;}
	.st19{fill:#A8112B;}
	.st20{fill:#FCB040;}
	.st21{fill:#3DA1D8;}
	.st22{fill:#0C8EBC;}
	.st23{fill:#EFC6A3;}
	.st24{fill:#B0DFFF;}
	.st25{fill-rule:evenodd;clip-rule:evenodd;fill:#FEFEFE;}
	.st26{fill:#006284;}
	.st27{fill:#5B5B5B;}
	.st28{fill:#EACAB0;}
	.st29{fill:#442B18;}
	.st30{fill:#663412;}
	.st31{fill:#C18B63;}
	.st32{fill:#3A1801;}
	.st33{fill:#616D0B;}
	.st34{fill:#98B11F;}
	.st35{fill:#606060;}
	.st36{fill:#E0E0E0;}
	.st37{fill-rule:evenodd;clip-rule:evenodd;fill:#FFE183;}
	.st38{fill-rule:evenodd;clip-rule:evenodd;fill:#FFA617;}
	.st39{fill:#FF6745;}
	.st40{fill-rule:evenodd;clip-rule:evenodd;fill:#63A642;}
	.st41{fill-rule:evenodd;clip-rule:evenodd;fill:#925056;}
	.st42{fill-rule:evenodd;clip-rule:evenodd;fill:#2C2F38;}
	.st43{display:none;fill:#63A642;}
	.st44{font-family:'MoneyHoney';}
	.st45{font-size:30px;}
	.st46{fill:#A5A5A5;}
	.st47{fill:#FFEBB8;}
	.st48{fill:#FFA617;}
	.st49{fill:#AF121A;}
	.st50{fill:#C49718;}
	.st51{fill:#FFD961;}
	.st52{fill:#F93B00;}
	.st53{fill:#FFC02E;}
	.st54{fill:#FA6500;}
	.st55{fill:#9BB200;}
	.st56{fill:#FFF7D6;}
	.st57{fill:#3E9AFF;}
	.st58{fill:#3ED698;}
	.st59{fill:#0F935A;}
</style>
<g id="Layer_1">
</g>
<g id="Layer_2">
</g>
<g id="Layer_3">
</g>
<g id="Layer_4">
</g>
<g id="Layer_5">
</g>
<g id="Layer_6">
</g>
<g id="Layer_7">
</g>
<g id="Layer_8">
</g>
<g id="Layer_9">
</g>
<g id="Layer_10">
</g>
<g id="Layer_11">
	<g>
		<g>
			<path class="st37" d="M98.13,158.62c-0.1-2.81,0.49-5.38,2.13-7.99c2.25-3.57,4.65-7.04,7.01-10.54c0.62-0.92,1.3-1.78,2.1-2.65
				c-0.45,2.18,0.59,3.89,1.59,5.56c1.04,1.74,2.58,2.63,4.71,2.61c1.62-0.02,3.25,0.21,4.87,0.43c1.71,0.23,3.19-0.26,4.71-0.99
				c3.93-1.88,5.97-4.94,6.48-9.26c0.34-2.92-0.54-5.49-1.89-7.89c-1.25-2.22-3.32-3.46-5.94-3.6c-1.73-0.1-3.44-0.01-5.12,0.47
				c-0.48,0.14-0.98,0.23-1.78,0.42c1.13-2.16,2.09-4.06,3.1-5.95c1.26-2.35,2.63-4.65,3.81-7.05c1.42-2.89,3-5.6,5.55-7.68
				c1.41-1.15,2.38-2.68,3.14-4.36c2.1-4.66,4.94-8.88,8.04-12.92c1.17-1.52,2.11-3.14,2.87-4.89c0.24-0.55,0.52-1.1,0.69-1.67
				c1.87-6.17,5.88-11.07,9.63-16.11c1.83-2.45,4.63-3.17,7.51-3.54c0.32-0.04,0.69,0.05,1,0.19c1.34,0.59,2.71,1.12,3.97,1.85
				c4.61,2.67,9.25,5.29,13.42,8.65c0.66,0.54,1.32,1.11,1.86,1.76c2.98,3.58,6.05,7.09,8.85,10.81c2.23,2.96,4.43,5.93,6.61,8.92
				c2.02,2.77,3.6,5.85,5.09,8.97c1.49,3.11,2.83,6.27,4.15,9.46c1.01,2.44,1.2,5,1.44,7.57c0.14,1.47-0.92,2.57-0.91,3.96
				c0,0.14-0.16,0.31-0.28,0.42c-1.2,0.98-2.29,2.16-3.63,2.89c-2.63,1.45-5.38,2.71-8.11,3.96c-2.04,0.93-4.13,1.72-6.21,2.56
				c-0.4,0.16-0.81,0.29-1.23,0.39c-5.52,1.35-11.05,2.68-16.57,4.03c-1.09,0.27-2.17,0.57-3.24,0.89
				c-4.21,1.27-8.41,2.54-12.61,3.84c-1.98,0.61-3.89,1.39-5.66,2.5c-0.15,0.09-0.29,0.2-0.44,0.27c-3.68,1.68-7.2,3.7-10.89,5.35
				c-2.17,0.97-4.62,1.35-6.97,1.84c-6.4,1.35-12.82,2.6-19.09,4.55c-2.96,0.92-6.01,1.55-9.03,2.26
				C101.33,159.25,100.33,159.14,98.13,158.62z M170.85,112.21c0.03-0.04,0.06-0.07,0.1-0.1c-0.36-0.48-0.73-0.96-1.08-1.45
				c-1.89-2.68-4.7-3.27-7.71-3.39c-2.46-0.1-3.85,1.62-5.33,3.18c-0.12,0.12-0.18,0.3-0.3,0.42c-1.98,2.14-3.91,4.33-5.97,6.39
				c-1.18,1.19-1.64,2.6-1.77,4.16c-0.12,1.37-0.11,2.75-0.16,4.12c-0.04,1.05,0.01,2.13,0.62,2.99c1.29,1.82,2.59,3.64,5.04,4.13
				c0.98,0.2,2.02,0.42,2.8,1.2c1.1,1.1,2.51,1.46,4.02,1.46c1.37,0,2.76,0.03,4.12-0.11c1.47-0.15,2.81-0.66,3.98-1.66
				c2.02-1.73,4.01-3.43,5.6-5.65c1.44-2.01,2.03-4.12,2.21-6.46c0.18-2.42-0.73-4.32-2.61-5.86
				C173.13,114.54,172.02,113.33,170.85,112.21z M172.73,94.5C172.73,94.5,172.73,94.5,172.73,94.5c0.73-0.61,1.42-1.26,2.2-1.81
				c1.55-1.09,2.24-2.53,2.15-4.42c-0.06-1.29-0.04-2.59,0.06-3.87c0.11-1.39-0.3-2.56-1.26-3.52c-0.61-0.6-1.24-1.2-1.96-1.66
				c-1.25-0.8-2.33-1.76-3.21-2.95c-0.77-1.05-1.68-1.97-2.85-2.58c-1.36-0.72-2.69-1.55-4.12-2.1c-1.76-0.69-3.55-0.77-5.02,0.78
				c-1.65,1.74-3.42,3.39-4.93,5.25c-1.51,1.86-2.82,3.88-3.89,6.06c-0.6,1.22-0.87,2.46-0.74,3.74c0.21,2.05,0.57,4.09,2.2,5.62
				c0.62,0.59,1.06,1.38,1.68,1.96c0.81,0.75,1.64,1.63,2.63,2.03c1.82,0.73,3.74,1.32,5.68,1.67c3.59,0.65,6.82-0.3,9.59-2.71
				C171.52,95.47,172.14,94.99,172.73,94.5z M190.96,102.35c-0.25-1.52-1-2.65-1.94-3.68c-0.43-0.47-0.95-0.75-1.59-0.69
				c-1.68,0.16-3.17,0.75-4.32,2.04c-0.51,0.57-0.58,1.26-0.13,1.89c0.64,0.91,1.39,1.75,2.03,2.67c0.33,0.48,0.69,1.06,0.7,1.6
				c0.01,2.08,1.2,3.3,2.82,4.3c0.58,0.36,1.17,0.75,1.64,1.23c1.12,1.14,1.18,2.36,0.37,3.73c-0.68,1.15-1.62,2.02-2.83,2.54
				c-0.86,0.38-1.79,0.59-2.69,0.87c-0.65,0.21-1.34,0.34-1.94,0.65c-1,0.51-1.24,1.31-0.78,2.37c0.41,0.95,0.84,1.88,1.3,2.81
				c0.89,1.8,3.1,2.36,4.79,1.23c0.49-0.33,0.98-0.7,1.52-0.91c2.04-0.8,3.72-2.11,5.4-3.47c1.41-1.15,2.15-2.65,2.65-4.31
				c0.12-0.41,0.04-0.91,0.24-1.25c1.12-1.85,0.37-3.45-0.52-5.08c-0.57-1.05-1.21-2.1-1.52-3.24c-0.59-2.17-1.96-3.57-3.86-4.58
				C191.93,102.86,191.55,102.66,190.96,102.35z M136.84,120.64c0.74-0.51,1.34-0.99,2-1.37c1.6-0.91,2.65-2.15,2.7-4.09
				c0.03-1.02,0.58-1.81,1.42-2.32c0.72-0.44,1.48-0.86,2.28-1.12c1.41-0.44,2.66-1.11,3.69-2.17c0.8,0.27,1.56,0.45,2.24,0.79
				c0.6,0.3,1.11,0.79,1.68,1.17c0.95,0.62,1.9,0.18,2.07-0.96c0.07-0.51-0.02-1.06,0.15-1.52c0.6-1.69,0.07-3.07-1.21-4.13
				c-1.24-1.03-2.61-1.92-3.94-2.86c-0.13-0.09-0.33-0.09-0.5-0.1c-1.55-0.1-3.04-0.04-4.54,0.59c-1.71,0.72-3.03,1.92-4.43,3.03
				c-0.73,0.58-1.35,1.38-2.37,1.47c-1.2,0.11-1.98,0.94-2.91,1.54c-1.8,1.16-2.05,2.86-1.84,4.73c0.14,1.19,0.47,2.35,0.68,3.53
				C134.32,118.48,135.18,119.68,136.84,120.64z M139.13,137.18c-1.34,1.22-2.44,2.27-3.92,2.88c-1.02,0.42-1.96,1.04-2.9,1.65
				c-1.23,0.8-1.16,2.46,0.11,3.16c0.15,0.08,0.31,0.17,0.47,0.2c1.34,0.27,2.68,0.59,4.04,0.75c0.66,0.08,1.43,0,2.02-0.29
				c2.45-1.21,5.13-2.19,5.98-5.24c0.05-0.16,0.13-0.34,0.25-0.45c1.23-1.02,1.32-2.51,1.69-3.91c0.19-0.74,0.17-1.41-0.28-1.95
				c-1.2-1.46-2.46-2.87-3.73-4.26c-0.2-0.22-0.61-0.25-0.86-0.35c-0.71,0.34-1.32,0.63-1.94,0.94c-1.82,0.9-2.08,1.41-1.7,3.49
				C138.58,134.9,138.86,135.97,139.13,137.18z M113.18,151.17c-0.19-1.6-1.24-2.5-2.36-3.3c-0.77-0.55-1.64-0.99-2.64-0.86
				c-1.66,0.21-2.98,2.03-3.28,4.47c-0.02,0.17-0.04,0.34-0.04,0.51c0.02,1.69,1.75,2.99,3.35,2.57
				C110.28,154.01,111.88,152.8,113.18,151.17z M138.73,100.05c1.25,1.22,2.73,1.05,4.13,0.62c1.33-0.41,2.41-1.34,3.07-2.61
				c1.05-2.02,0.18-4.29-1.95-5.06c-0.43-0.16-1.1-0.16-1.46,0.07c-2,1.29-3.66,2.87-3.81,5.46
				C138.69,99.04,138.72,99.56,138.73,100.05z M173.18,101.51c-1.36,1.1-1.47,1.72-0.81,3.32c0.59,1.44,1.76,2.28,2.97,3.08
				c0.53,0.35,1.15,0.22,1.7-0.12c0.78-0.49,1.17-1.21,1.27-2.11c0.2-1.74-0.5-3.19-1.56-4.47c-0.72-0.87-1.79-0.95-2.78-0.33
				C173.68,101.05,173.44,101.3,173.18,101.51z M191.45,93.11c-1.21,0.99-1.34,1.74-0.59,3.14c0.53,1,1.23,1.81,2.22,2.38
				c0.74,0.43,1.44,0.51,2.18,0.03c0.85-0.55,1.37-1.23,1.28-2.34c-0.14-1.67-1.26-2.57-2.52-3.37
				C192.94,92.28,192.41,92.32,191.45,93.11z"/>
			<path class="st38" d="M207.27,54.22c-0.94-3.99-1.62-8.03-2.21-12.09c-0.58-4-0.65-8.02-0.41-12.04
				c0.04-0.67,0.11-1.34,0.27-1.98c0.25-0.97,0.8-1.7,1.92-1.98c1.72,1.23,2.77,2.87,3.28,4.89c0.49,1.97,0.67,3.97,0.49,5.99
				c-0.16,1.81-0.37,3.62-0.64,5.42c-0.46,3.03-0.97,6.06-1.49,9.08c-0.16,0.93-0.41,1.84-0.62,2.76
				C207.67,54.25,207.47,54.24,207.27,54.22z M224.91,57.87c1.09-1.63,1.78-3.37,2.29-5.21c0.28-1.01,0.27-2.08-0.86-2.89
				c-5.89,4.56-8.84,11.03-11.72,17.59C218.51,64.65,222.25,61.85,224.91,57.87z M232.12,139.84c0.51,4.07,1.28,8.09,2.14,12.1
				c0.85,3.95,2.18,7.74,3.81,11.43c0.27,0.61,0.57,1.22,0.95,1.76c0.57,0.83,1.35,1.32,2.49,1.19c1.18-1.76,1.6-3.66,1.37-5.73
				c-0.23-2.02-0.76-3.96-1.62-5.79c-0.78-1.64-1.61-3.27-2.49-4.86c-1.48-2.68-3.02-5.34-4.56-7.99c-0.47-0.81-1.03-1.58-1.54-2.37
				C232.48,139.68,232.3,139.76,232.12,139.84z M235.05,125.58c4.98,5.14,10,10.19,17.11,12.41c0.77-1.15,0.42-2.15-0.2-3
				c-1.12-1.55-2.38-2.94-3.96-4.09C244.11,128.09,239.63,126.77,235.05,125.58z M157.94,57.08c-0.66-2.15,0.21-3.98,1.24-5.76
				c0.08-0.14,0.41-0.14,0.71-0.22c0.05,0.33,0.14,0.57,0.1,0.79c-0.25,1.42-0.69,2.82-0.76,4.24c-0.06,1.17-0.66,1.64-1.57,2
				c1.09,0.18,2.18,0.36,3.37,0.55c0.27-1.53,0.48-3.06,0.83-4.55c0.17-0.73,0.56-1.43,0.95-2.08c0.11-0.18,0.61-0.22,0.9-0.16
				c0.16,0.03,0.4,0.4,0.37,0.59c-0.12,1.02-0.31,2.04-0.48,3.05c-0.2,1.26-0.66,2.5-0.28,3.55c3.52,2.53,7.13,4.32,10.94,5.75
				c0.88,0.33,1.72,0.81,2.49,1.36c2.16,1.55,4.27,3.17,6.29,4.68c0.82-1.17,1.61-2.38,2.49-3.51c0.27-0.34,0.79-0.71,1.38-0.14
				c-0.06,2.12-2.46,3.31-2.34,5.75c0.43,0.52,0.98,1.19,1.52,1.85c2.03,2.46,4.06,4.92,6.07,7.4c0.6,0.74,1.26,1.45,1.7,2.28
				c0.99,1.85,2.32,3.42,3.64,5.01c2.05,2.46,3.72,5.18,5.16,8.02c1.59,3.14,3,6.38,4.5,9.58c0.1,0.22,0.28,0.39,0.4,0.55
				c1.06-0.26,2.05-0.53,3.04-0.73c0.18-0.04,0.6,0.2,0.61,0.33c0.03,0.3-0.04,0.79-0.23,0.9c-0.87,0.5-1.81,0.9-2.85,1.4
				c0.31,0.72,0.56,1.3,0.79,1.83c1.04-0.18,1.88-0.37,2.73-0.43c0.23-0.01,0.56,0.37,0.7,0.64c0.09,0.16-0.03,0.53-0.17,0.69
				c-0.22,0.24-0.53,0.43-0.84,0.57c-0.54,0.23-1.1,0.41-1.65,0.6c-0.14,0.97-0.04,1.78,0.38,2.57c0.84,0.03,1.61,0.03,2.38,0.11
				c0.18,0.02,0.45,0.34,0.45,0.52c0.01,0.2-0.21,0.53-0.4,0.59c-0.73,0.21-1.48,0.33-2.3,0.5c-0.18,1.22-0.29,2.39-0.13,3.71
				c0.94,0.11,1.78,0.2,2.62,0.32c0.59,0.09,1.18,0.18,1.75,0.36c0.19,0.06,0.43,0.37,0.43,0.55c-0.01,0.31-0.12,0.73-0.34,0.88
				c-0.33,0.22-0.8,0.35-1.2,0.34c-0.95-0.02-1.89-0.15-2.83-0.22c-0.25-0.02-0.51,0.03-0.74,0.04c-0.4,0.65-0.93,1.21-1.11,1.93
				c0.3,0.15,0.45,0.29,0.59,0.28c2.31-0.22,4.62-0.46,6.92-0.7c0.34-0.04,0.69-0.11,1.01-0.23c1.94-0.68,3.61-1.82,4.44-3.7
				c0.99-2.24,0.89-4.72,0.93-7.13c0-0.17-0.02-0.37-0.11-0.5c-0.91-1.35-0.82-2.96-1.18-4.45c-0.43-1.75-0.88-3.5-1.4-5.23
				c-0.39-1.32-0.95-2.59-1.33-3.91c-1.34-4.71-3.69-8.87-6.62-12.77c-3.16-4.2-6.19-8.5-8.74-13.11c-1.39-2.52-3.11-4.74-5.37-6.54
				c-2.37-1.89-4.57-3.94-6.38-6.38c-1.72-2.31-3.94-4.09-6.14-5.89c-0.59-0.48-1.27-0.95-1.99-1.18c-3.22-1.04-6.05-2.91-9.11-4.29
				c-1.19-0.54-2.39-0.97-3.7-1.07c-3.01-0.22-6.02-0.38-9.02-0.67c-1.24-0.12-2.22,0.24-3,1.12c-0.57,0.64-1.19,1.31-1.49,2.08
				c-0.8,2.08-1.82,4.1-2.18,6.34c-0.06,0.38,0.02,0.78,0.05,1.42c1.08-0.39,1.95-0.71,2.82-1.03
				C158.22,57.9,158.07,57.48,157.94,57.08z M194.04,73.3c-0.03,0.33-0.18,0.68-0.36,0.95c-0.88,1.27-1.76,2.53-2.7,3.76
				c-0.17,0.21-0.62,0.36-0.89,0.3c-0.49-0.09-0.66-0.59-0.53-1.01c0.2-0.64,0.45-1.3,0.82-1.86c0.76-1.14,1.61-2.21,2.48-3.4
				C193.8,72.14,194.11,72.61,194.04,73.3z M176.49,61.28c-1.44-1.37-1.53-2.73-1.1-4.18c0.44-1.48,0.77-1.8,2.2-2.2
				C177.93,57.12,176.24,58.89,176.49,61.28z M169.24,59.4c-0.49-1.35-0.36-2.68,0.24-3.97c0.08-0.18,0.44-0.39,0.61-0.35
				c0.29,0.07,0.68,0.28,0.75,0.52c0.14,0.47,0.13,1,0.12,1.51c0,0.76-0.17,1.51,0.24,2.25c0.12,0.21,0,0.69-0.18,0.89
				c-0.34,0.37-0.78,0.16-1.16-0.06c-0.07-0.04-0.13-0.11-0.26-0.22C169.5,59.83,169.32,59.63,169.24,59.4z M179.11,63.07
				c0.36-0.85,0.88-1.64,1.41-2.39c0.14-0.21,0.63-0.36,0.86-0.28c0.45,0.17,0.54,0.66,0.36,1.08c-0.55,1.31-1.13,2.61-2.07,3.95
				C178.75,64.56,178.82,63.76,179.11,63.07z M193.32,80.06c0.14-1.15,0.69-2.06,1.67-2.69c0.43-0.27,1.1,0.1,1.15,0.61
				c0.1,1-0.75,2.65-1.59,2.95c-0.27,0.1-0.62-0.05-0.92-0.09C193.49,80.52,193.29,80.28,193.32,80.06z M206.29,95.89
				c-0.56-0.69-0.62-1.17-0.14-1.38c0.91-0.39,1.87-0.69,2.8-1.02c0.1,0.16,0.21,0.32,0.31,0.48
				C208.6,95.08,207.13,95.03,206.29,95.89z M207.43,99.21c-0.43-0.06-0.82-0.39-1.62-0.8c1.44-0.47,2.47-0.24,3.81-0.44
				C208.94,99.12,208.21,99.32,207.43,99.21z M198.48,85.06c-0.12,0.01-0.31-0.14-0.37-0.26c-0.07-0.13-0.1-0.36-0.03-0.47
				c0.36-0.6,0.82-1.07,1.61-0.98C199.71,84.44,199.36,84.95,198.48,85.06z"/>
			<path class="st39" d="M128.36,129.86c0.76,1.92,1.44,3.79,1.15,5.97c-0.44,3.35-1.97,5.75-5.07,7.19
				c-1.66,0.78-3.31,1.31-5.16,1.43c-1.27,0.09-2.41-0.09-3.46-0.7c-1.46-0.85-3.09-1.55-3.81-3.28c-0.16-0.39-0.39-0.8-0.4-1.21
				c-0.07-3.83,0.12-7.59,3.54-10.23c0.27-0.21,0.53-0.44,0.85-0.69c1.26-1.59,3.05-2.02,5.02-1.94c1.03,0.04,2.07,0.04,3.08,0.18
				C126.14,126.85,127.59,127.91,128.36,129.86z M158.5,112.12c-2.04,2.21-4.05,4.45-6.12,6.62c-0.83,0.87-1.19,1.86-1.25,3.01
				c-0.06,1.2-0.05,2.41-0.17,3.6c-0.22,2.06,0.78,3.63,2.33,4.58c1.89,1.15,4.01,1.99,6.38,1.51c0.55-0.11,1.12-0.55,1.81-0.02
				c-0.12,0.43-0.24,0.89-0.47,1.73c1.24-0.03,2.27-0.05,3.29-0.09c1.51-0.07,2.8-0.63,3.98-1.61c1.72-1.44,3.27-2.99,4.61-4.82
				c1.07-1.48,1.56-3.02,1.76-4.74c0.19-1.63-0.25-3.01-1.45-4.21c-1.45-1.46-2.77-3.05-4.15-4.58c-0.52-0.57-1.06-1.13-1.6-1.68
				c-1.52-1.55-3.49-1.78-5.49-1.75c-1.53,0.02-2.38,1.23-3.28,2.27C158.61,111.99,158.56,112.05,158.5,112.12z M159.51,74.34
				c-0.9,0.92-1.73,1.92-2.7,2.75c-2.5,2.1-4.06,4.86-5.52,7.69c-0.33,0.65-0.52,1.54-0.38,2.24c0.33,1.66,0.53,3.41,1.84,4.72
				c0.61,0.6,1.06,1.36,1.67,1.96c0.61,0.6,1.24,1.26,2,1.59c1.81,0.79,3.66,1.47,5.67,1.68c1.49,0.16,2.88-0.06,4.31-0.47
				c1.81-0.52,3.14-1.72,4.58-2.81c1.81-1.37,3.52-2.77,3.68-5.3c0.03-0.4,0.35-0.78,0.48-1.18c0.11-0.32,0.23-0.68,0.18-1
				c-0.33-2.32-0.69-4.64-3.66-5.46c0.48,0.64,0.88,1.15,1.25,1.68c0.67,0.95,0.64,1.59-0.21,2.52c-0.2,0.21-0.63,0.39-0.88,0.32
				c-0.24-0.06-0.56-0.5-0.54-0.73c0.17-1.38-0.39-2.31-1.56-2.96c-0.22-0.12-0.4-0.32-0.58-0.51c-0.53-0.58-0.29-1.1,0.63-1.43
				c0.16-0.06,0.32-0.1,0.48-0.15c-1.47-2.42-2.44-3.43-4.24-4.34c-0.84-0.43-1.7-0.82-2.53-1.27
				C162.05,73.09,160.71,73.12,159.51,74.34z"/>
			<path class="st40" d="M184.74,101.19c0.27-0.23,0.5-0.5,0.79-0.64c1.63-0.79,2.31-0.58,3.11,0.99c0.19,0.38,0.31,0.8,0.43,1.21
				c0.24,0.79,0.74,1.33,1.47,1.7c0.53,0.27,1.1,0.52,1.56,0.89c0.66,0.53,1.45,1.06,1.82,1.78c0.97,1.9,1.75,3.9,2.6,5.85
				c0.05,2.63-0.21,5.17-2.32,7.09c-1.34,1.23-2.84,2.22-4.5,2.97c-1.09,0.49-2.18,0.97-3.42,1.53c-0.3-0.3-0.74-0.59-0.97-1
				c-0.4-0.73-0.68-1.53-1.06-2.43c0.81-0.21,1.46-0.4,2.11-0.55c2.69-0.59,4.6-2.25,6.04-4.49c1.04-1.62,0.8-3.49-0.41-5.02
				c-0.77-0.97-1.75-1.64-2.81-2.21c-1.15-0.62-1.88-1.49-1.65-2.9c0.16-0.97-0.47-1.6-1-2.27
				C185.92,102.91,185,102.33,184.74,101.19z M151.98,106c-0.58-0.49-1.37-0.73-1.96-1.22c-1.32-1.08-2.67-0.88-4.11-0.33
				c-1.47,0.56-2.7,1.46-3.88,2.46c-1.17,0.99-2.29,2.12-3.98,2.2c-1.99,1.11-3.36,2.08-2.52,4.61c0.27,0.81,0.35,1.67,0.52,2.55
				c0.51,0.42,1.03,0.84,1.5,1.22c1.25-0.47,1.68-1.35,1.78-2.44c0.26-2.77,2.07-4.26,4.42-5.18c1.22-0.47,2.38-0.93,3.34-1.84
				c0.91-0.87,1.93-0.97,3.07-0.4c0.83,0.41,1.71,0.71,2.69,1.11C153.47,107.23,152.68,106.59,151.98,106z M135.71,143.31
				c2.46,0.56,4.28-0.84,6.15-2.06c0.27-0.17,0.47-0.52,0.58-0.83c0.53-1.48,1.46-2.7,2.58-3.79c-0.19-2.17-1.72-3.36-2.89-4.73
				c-0.38,0.03-0.65,0-0.88,0.09c-0.3,0.11-0.57,0.32-0.99,0.56c0.29,1.3,0.56,2.55,0.84,3.8c0.28,1.24-0.15,2.15-1.19,2.88
				c-1.62,1.12-3.19,2.31-5,3.63C135.43,143.16,135.55,143.28,135.71,143.31z"/>
			<path class="st41" d="M106.77,151.76c0.27-0.71,0.49-1.45,0.82-2.12c0.25-0.51,0.79-0.68,1.33-0.49c0.73,0.25,1.42,0.59,1.7,1.39
				C109.03,152.57,109.03,152.57,106.77,151.76z M143.83,97.28c0.22-0.29,0.23-0.79,0.23-1.2c-0.01-0.63-0.74-1.11-1.26-0.84
				c-1.46,0.77-2.71,1.71-2.41,3.72C142,99.23,143,98.37,143.83,97.28z M174.48,104.67c0.42,0.59,0.82,1.24,1.68,1.6
				c0.64-1.54,0.23-2.62-0.88-3.71C173.94,103.59,173.85,103.81,174.48,104.67z M193.84,97.58c1.34-1.42,1.07-2.04-1.5-3.02
				C192.47,96.48,192.47,96.48,193.84,97.58z"/>
			<path class="st42" d="M206.7,61.17c-0.44-1.12-0.76-1.71-0.9-2.34c-1.35-5.99-2.56-12.01-3.32-18.12
				c-0.47-3.74-0.37-7.48-0.21-11.22c0.09-2,0.7-3.76,2.39-5.01c1.53-1.13,3.02-1.06,4.38,0.31c1.52,1.53,2.52,3.38,3.02,5.48
				c0.54,2.26,0.73,4.56,0.52,6.87c-0.17,1.91-0.4,3.82-0.69,5.72c-0.46,3.04-1,6.07-1.51,9.1
				C209.87,55.11,208.76,58.03,206.7,61.17z M207.27,54.22c0.2,0.02,0.4,0.03,0.6,0.04c0.21-0.92,0.46-1.83,0.62-2.76
				c0.52-3.02,1.03-6.05,1.49-9.08c0.27-1.8,0.48-3.61,0.64-5.42c0.17-2.02,0-4.02-0.49-5.99c-0.5-2.02-1.55-3.66-3.28-4.89
				c-1.12,0.28-1.68,1.01-1.92,1.98c-0.16,0.64-0.24,1.32-0.27,1.98c-0.24,4.03-0.17,8.04,0.41,12.04
				C205.66,46.19,206.34,50.23,207.27,54.22z M217.01,68.84c-1.63,1.34-3.25,2.7-4.9,4.02c-0.44,0.36-0.93,0.7-1.45,0.9
				c-0.29,0.11-0.8,0-1.03-0.21c-0.23-0.21-0.43-0.74-0.33-1c0.83-2.12,1.35-4.34,2.58-6.33c1.92-3.09,3.54-6.37,5.33-9.54
				c1.87-3.3,4.58-5.9,7.24-8.53c1.26-1.25,2.18-1.22,3.52-0.05c1.44,1.26,1.87,2.94,1.44,4.71c-0.49,2.04-1.13,4.05-2.37,5.82
				c-2.11,3-4.4,5.81-7.36,8.03C218.76,67.34,217.9,68.1,217.01,68.84C217.01,68.84,217.01,68.84,217.01,68.84z M214.63,67.36
				c3.89-2.72,7.62-5.51,10.29-9.49c1.09-1.63,1.78-3.37,2.29-5.21c0.28-1.01,0.27-2.08-0.86-2.89
				C220.45,54.33,217.5,60.81,214.63,67.36z M235.83,140.88c1.53,2.66,3.09,5.32,4.58,8c0.93,1.68,1.81,3.39,2.64,5.12
				c1,2.09,1.62,4.31,1.9,6.62c0.26,2.15-0.04,4.22-0.92,6.19c-0.8,1.76-2.18,2.34-4,1.82c-2.03-0.58-3.21-2.02-3.99-3.87
				c-1.45-3.45-2.84-6.92-3.71-10.59c-1.41-5.99-2.38-12.05-3.2-18.14c-0.09-0.64,0.01-1.3,0.03-2.5
				C232.19,135.76,234.24,138.11,235.83,140.88z M234.26,151.94c0.85,3.95,2.18,7.74,3.81,11.43c0.27,0.61,0.57,1.22,0.95,1.76
				c0.57,0.83,1.35,1.32,2.49,1.19c1.18-1.76,1.6-3.66,1.37-5.73c-0.23-2.02-0.76-3.96-1.62-5.79c-0.78-1.64-1.61-3.27-2.49-4.86
				c-1.48-2.68-3.02-5.34-4.56-7.99c-0.47-0.81-1.03-1.58-1.54-2.37c-0.18,0.08-0.36,0.16-0.54,0.25
				C232.63,143.91,233.4,147.93,234.26,151.94z M236.77,123.36c1.09,0.38,2.17,0.8,3.27,1.12c3.55,1.05,6.68,2.88,9.7,4.96
				c1.79,1.23,3.08,2.89,4.25,4.63c1.02,1.51,1.2,3.23,0.29,4.92c-0.85,1.56-1.7,1.91-3.32,1.18c-3.41-1.54-6.86-3.04-9.76-5.48
				c-2.79-2.35-5.45-4.86-8.32-7.09c-1.85-1.44-3.11-3.34-4.62-5.03c-0.19-0.21-0.19-0.78-0.04-1.05c0.15-0.28,0.58-0.56,0.89-0.56
				c0.56,0,1.13,0.16,1.67,0.34C232.78,121.96,234.77,122.67,236.77,123.36C236.77,123.36,236.77,123.36,236.77,123.36z
				 M252.15,137.98c0.77-1.15,0.42-2.15-0.2-3c-1.12-1.55-2.38-2.94-3.96-4.09c-3.88-2.8-8.36-4.12-12.95-5.32
				C240.03,130.72,245.04,135.77,252.15,137.98z M153.06,61.02c-0.26-0.51-0.62-1.02-0.78-1.58c-0.15-0.56-0.23-1.2-0.11-1.76
				c0.57-2.61,1.54-5.1,2.59-7.55c0.66-1.55,1.82-2.7,3.18-3.67c0.87-0.62,1.83-0.91,2.92-0.82c3.26,0.25,6.53,0.47,9.79,0.7
				c1.66,0.12,3.17,0.66,4.68,1.35c3.05,1.4,5.88,3.26,9.14,4.22c0.49,0.14,0.96,0.42,1.36,0.73c2.4,1.83,4.84,3.63,6.73,6.01
				c2.26,2.85,4.79,5.39,7.63,7.68c2.02,1.63,3.61,3.7,4.85,5.99c2.63,4.86,5.79,9.38,9.11,13.79c2.87,3.82,5.18,7.92,6.56,12.51
				c0.45,1.48,0.94,2.95,1.42,4.43c0.13,0.41,0.32,0.81,0.4,1.22c0.49,2.62,1.2,5.17,2.23,7.64c0.29,0.69,0.32,1.51,0.37,2.28
				c0.08,1.2,0.19,2.41,0.1,3.61c-0.37,4.94-2.4,8.62-6.96,10.18c-0.7,0.24-1.59,0.43-2.25,0.21c-1.83-0.61-3.58-0.16-5.36,0.08
				c-0.94,0.13-1.87,0.38-2.81,0.4c-0.84,0.02-1.69-0.18-2.62-0.3c-2.8,1.36-5.64,2.79-8.53,4.12c-2.35,1.08-4.75,2.02-7.14,3.01
				c-0.48,0.2-0.97,0.35-1.47,0.47c-5.52,1.34-11.05,2.64-16.57,4.01c-2.09,0.52-4.15,1.16-6.21,1.77c-2.8,0.84-5.62,1.64-8.39,2.59
				c-1.53,0.53-2.98,1.32-4.46,1.99c-1.41,0.63-2.8,1.34-4.24,1.88c-2.35,0.87-4.58,1.94-6.71,3.3c-1.21,0.77-2.63,1.27-4,1.74
				c-1.22,0.42-2.5,0.66-3.76,0.92c-3.54,0.73-7.09,1.4-10.63,2.16c-1.17,0.25-2.31,0.67-3.43,1.09c-1.37,0.51-2.7,1.13-4.24,0.91
				c-0.48-0.07-1.02,0.12-1.51,0.27c-3.64,1.08-7.34,1.89-11.08,2.5c-0.84,0.14-1.7,0.33-2.48,0.66c-0.99,0.43-1.84,0.3-2.68-0.27
				c-0.29-0.19-0.59-0.37-0.85-0.58c-1.84-1.46-2.05-2.25-1.33-4.48c0.9-2.79,1.81-5.57,3.41-8.06c2.94-4.56,5.88-9.11,8.82-13.67
				c0.7-1.08,1.44-2.14,2.07-3.26c1.91-3.37,3.68-6.81,5.97-9.96c1.1-1.51,1.83-3.31,2.66-5.01c0.8-1.62,1.48-3.3,2.29-4.91
				c0.42-0.84,0.98-1.61,1.52-2.39c0.53-0.78,1.11-1.53,1.67-2.29c0.61-0.83,1.12-1.78,1.88-2.45c1.65-1.45,2.79-3.26,3.97-5.06
				c2.46-3.74,4.87-7.52,7.41-11.2c1.92-2.78,3.6-5.69,4.7-8.88c1.47-4.29,3.69-8.14,6.39-11.75
				C149.88,65.39,151.44,63.23,153.06,61.02z M157.66,58.13c1.09,0.18,2.18,0.36,3.37,0.55c0.27-1.53,0.48-3.06,0.83-4.55
				c0.17-0.73,0.56-1.43,0.95-2.08c0.11-0.18,0.61-0.22,0.9-0.16c0.16,0.03,0.4,0.4,0.37,0.59c-0.12,1.02-0.31,2.04-0.48,3.05
				c-0.2,1.26-0.66,2.5-0.28,3.55c3.52,2.53,7.13,4.32,10.94,5.75c0.88,0.33,1.72,0.81,2.49,1.36c2.16,1.55,4.27,3.17,6.29,4.68
				c0.82-1.17,1.61-2.38,2.49-3.51c0.27-0.34,0.79-0.71,1.38-0.14c-0.06,2.12-2.46,3.31-2.34,5.75c0.43,0.52,0.98,1.19,1.52,1.85
				c2.03,2.46,4.06,4.92,6.07,7.4c0.6,0.74,1.26,1.45,1.7,2.28c0.99,1.85,2.32,3.42,3.64,5.01c2.05,2.46,3.72,5.18,5.16,8.02
				c1.59,3.14,3,6.38,4.5,9.58c0.1,0.22,0.28,0.39,0.4,0.55c1.06-0.26,2.05-0.53,3.04-0.73c0.18-0.04,0.6,0.2,0.61,0.33
				c0.03,0.3-0.04,0.79-0.23,0.9c-0.87,0.5-1.81,0.9-2.85,1.4c0.31,0.72,0.56,1.3,0.79,1.83c1.04-0.18,1.88-0.37,2.73-0.43
				c0.23-0.01,0.56,0.37,0.7,0.64c0.09,0.16-0.03,0.53-0.17,0.69c-0.22,0.24-0.53,0.43-0.84,0.57c-0.54,0.23-1.1,0.41-1.65,0.6
				c-0.14,0.97-0.04,1.78,0.38,2.57c0.84,0.03,1.61,0.03,2.38,0.11c0.18,0.02,0.45,0.34,0.45,0.52c0.01,0.2-0.21,0.53-0.4,0.59
				c-0.73,0.21-1.48,0.33-2.3,0.5c-0.18,1.22-0.29,2.39-0.13,3.71c0.94,0.11,1.78,0.2,2.62,0.32c0.59,0.09,1.18,0.18,1.75,0.36
				c0.19,0.06,0.43,0.37,0.43,0.55c-0.01,0.31-0.12,0.73-0.34,0.88c-0.33,0.22-0.8,0.35-1.2,0.34c-0.95-0.02-1.89-0.15-2.83-0.22
				c-0.25-0.02-0.51,0.03-0.74,0.04c-0.4,0.65-0.93,1.21-1.11,1.93c0.3,0.15,0.45,0.29,0.59,0.28c2.31-0.22,4.62-0.46,6.92-0.7
				c0.34-0.04,0.69-0.11,1.01-0.23c1.94-0.68,3.61-1.82,4.44-3.7c0.99-2.24,0.89-4.72,0.93-7.13c0-0.17-0.02-0.37-0.11-0.5
				c-0.91-1.35-0.82-2.96-1.18-4.45c-0.43-1.75-0.88-3.5-1.4-5.23c-0.39-1.32-0.95-2.59-1.33-3.91c-1.34-4.71-3.69-8.87-6.62-12.77
				c-3.16-4.2-6.19-8.5-8.74-13.11c-1.39-2.52-3.11-4.74-5.37-6.54c-2.37-1.89-4.57-3.94-6.38-6.38c-1.72-2.31-3.94-4.09-6.14-5.89
				c-0.59-0.48-1.27-0.95-1.99-1.18c-3.22-1.04-6.05-2.91-9.11-4.29c-1.19-0.54-2.39-0.97-3.7-1.07c-3.01-0.22-6.02-0.38-9.02-0.67
				c-1.24-0.12-2.22,0.24-3,1.12c-0.57,0.64-1.19,1.31-1.49,2.08c-0.8,2.08-1.82,4.1-2.18,6.34c-0.06,0.38,0.02,0.78,0.05,1.42
				C155.92,58.76,156.79,58.44,157.66,58.13L157.66,58.13z M98.13,158.62c2.2,0.52,3.2,0.63,4.73,0.27c3.02-0.7,6.07-1.33,9.03-2.26
				c6.26-1.95,12.68-3.2,19.09-4.55c2.35-0.5,4.81-0.88,6.97-1.84c3.68-1.65,7.2-3.67,10.89-5.35c0.15-0.07,0.3-0.18,0.44-0.27
				c1.76-1.11,3.68-1.89,5.66-2.5c4.2-1.3,8.4-2.57,12.61-3.84c1.07-0.32,2.15-0.62,3.24-0.89c5.52-1.35,11.05-2.68,16.57-4.03
				c0.42-0.1,0.83-0.23,1.23-0.39c2.08-0.84,4.17-1.63,6.21-2.56c2.74-1.25,5.48-2.5,8.11-3.96c1.34-0.74,2.43-1.91,3.63-2.89
				c0.13-0.1,0.28-0.28,0.28-0.42c-0.01-1.39,1.05-2.49,0.91-3.96c-0.24-2.58-0.43-5.13-1.44-7.57c-1.31-3.18-2.66-6.35-4.15-9.46
				c-1.49-3.12-3.07-6.2-5.09-8.97c-2.18-2.99-4.39-5.96-6.61-8.92c-2.8-3.72-5.87-7.23-8.85-10.81c-0.54-0.65-1.2-1.23-1.86-1.76
				c-4.17-3.36-8.81-5.99-13.42-8.65c-1.26-0.73-2.64-1.26-3.97-1.85c-0.3-0.14-0.68-0.23-1-0.19c-2.88,0.37-5.68,1.09-7.51,3.54
				c-3.76,5.03-7.77,9.93-9.63,16.11c-0.17,0.58-0.45,1.12-0.69,1.67c-0.76,1.75-1.7,3.37-2.87,4.89
				c-3.11,4.04-5.94,8.26-8.04,12.92c-0.76,1.69-1.73,3.21-3.14,4.36c-2.55,2.08-4.13,4.8-5.55,7.68c-1.18,2.4-2.55,4.69-3.81,7.05
				c-1.01,1.88-1.98,3.79-3.1,5.95c0.8-0.19,1.3-0.28,1.78-0.42c1.68-0.48,3.4-0.57,5.12-0.47c2.61,0.15,4.69,1.39,5.94,3.6
				c1.35,2.4,2.23,4.97,1.89,7.89c-0.5,4.32-2.55,7.37-6.48,9.26c-1.52,0.73-3,1.22-4.71,0.99c-1.61-0.22-3.25-0.45-4.87-0.43
				c-2.13,0.03-3.67-0.87-4.71-2.61c-1-1.67-2.04-3.38-1.59-5.56c-0.79,0.87-1.48,1.73-2.1,2.65c-2.36,3.5-4.76,6.98-7.01,10.54
				C98.62,153.24,98.03,155.82,98.13,158.62z M116.01,128.34c-0.32,0.26-0.57,0.49-0.85,0.69c-3.42,2.63-3.61,6.39-3.54,10.23
				c0.01,0.41,0.24,0.82,0.4,1.21c0.71,1.73,2.35,2.43,3.81,3.28c1.04,0.61,2.19,0.79,3.46,0.7c1.85-0.13,3.5-0.66,5.16-1.43
				c3.09-1.45,4.63-3.84,5.07-7.19c0.28-2.18-0.39-4.05-1.15-5.97c-0.77-1.95-2.22-3.01-4.25-3.28c-1.02-0.14-2.05-0.14-3.08-0.18
				C119.06,126.32,117.27,126.75,116.01,128.34z M170.85,112.21c1.18,1.13,2.29,2.33,3.54,3.36c1.88,1.54,2.79,3.44,2.61,5.86
				c-0.17,2.34-0.77,4.45-2.21,6.46c-1.59,2.22-3.58,3.92-5.6,5.65c-1.17,1-2.51,1.52-3.98,1.66c-1.36,0.14-2.75,0.11-4.12,0.11
				c-1.5,0-2.91-0.36-4.02-1.46c-0.79-0.78-1.83-1-2.8-1.2c-2.45-0.49-3.75-2.31-5.04-4.13c-0.61-0.86-0.65-1.94-0.62-2.99
				c0.05-1.37,0.04-2.75,0.16-4.12c0.13-1.56,0.59-2.97,1.77-4.16c2.06-2.06,3.99-4.25,5.97-6.39c0.11-0.12,0.18-0.3,0.3-0.42
				c1.48-1.56,2.87-3.27,5.33-3.18c3.01,0.12,5.82,0.71,7.71,3.39c0.35,0.49,0.72,0.97,1.08,1.45
				C170.91,112.14,170.88,112.17,170.85,112.21z M161.01,133.15c1.24-0.03,2.27-0.05,3.29-0.09c1.51-0.07,2.8-0.63,3.98-1.61
				c1.72-1.44,3.27-2.99,4.61-4.82c1.07-1.48,1.56-3.02,1.76-4.74c0.19-1.63-0.25-3.01-1.45-4.21c-1.45-1.46-2.77-3.05-4.15-4.58
				c-0.52-0.57-1.06-1.13-1.6-1.68c-1.52-1.55-3.49-1.78-5.49-1.75c-1.53,0.02-2.38,1.23-3.28,2.27c-0.06,0.07-0.11,0.14-0.17,0.2
				c-2.04,2.21-4.05,4.45-6.12,6.62c-0.83,0.87-1.19,1.86-1.25,3.01c-0.06,1.2-0.05,2.41-0.17,3.6c-0.22,2.06,0.78,3.63,2.33,4.58
				c1.89,1.15,4.01,1.99,6.38,1.51c0.55-0.11,1.12-0.55,1.81-0.02C161.36,131.85,161.24,132.31,161.01,133.15z M172.73,94.5
				c-0.6,0.49-1.21,0.97-1.79,1.48c-2.77,2.42-6,3.36-9.59,2.71c-1.93-0.35-3.85-0.94-5.68-1.67c-0.99-0.4-1.82-1.28-2.63-2.03
				c-0.63-0.58-1.06-1.37-1.68-1.96c-1.63-1.54-1.99-3.57-2.2-5.62c-0.13-1.28,0.14-2.51,0.74-3.74c1.07-2.18,2.38-4.2,3.89-6.06
				c1.51-1.86,3.27-3.5,4.93-5.25c1.47-1.55,3.26-1.47,5.02-0.78c1.43,0.56,2.75,1.39,4.12,2.1c1.17,0.61,2.07,1.53,2.85,2.58
				c0.88,1.19,1.96,2.15,3.21,2.95c0.71,0.46,1.35,1.06,1.96,1.66c0.96,0.96,1.37,2.13,1.26,3.52c-0.1,1.29-0.12,2.58-0.06,3.87
				c0.09,1.89-0.6,3.33-2.15,4.42C174.16,93.24,173.46,93.89,172.73,94.5C172.73,94.5,172.73,94.5,172.73,94.5z M170.27,79.48
				c-1.47-2.42-2.44-3.43-4.24-4.34c-0.84-0.43-1.7-0.82-2.53-1.27c-1.45-0.78-2.79-0.75-3.99,0.47c-0.9,0.92-1.73,1.92-2.7,2.75
				c-2.5,2.1-4.06,4.86-5.52,7.69c-0.33,0.65-0.52,1.54-0.38,2.24c0.33,1.66,0.53,3.41,1.84,4.72c0.61,0.6,1.06,1.36,1.67,1.96
				c0.61,0.6,1.24,1.26,2,1.59c1.81,0.79,3.66,1.47,5.67,1.68c1.49,0.16,2.88-0.06,4.31-0.47c1.81-0.52,3.14-1.72,4.58-2.81
				c1.81-1.37,3.52-2.77,3.68-5.3c0.03-0.4,0.35-0.78,0.48-1.18c0.11-0.32,0.23-0.68,0.18-1c-0.33-2.32-0.69-4.64-3.66-5.46
				c0.48,0.64,0.88,1.15,1.25,1.68c0.67,0.95,0.64,1.59-0.21,2.52c-0.2,0.21-0.63,0.39-0.88,0.32c-0.24-0.06-0.56-0.5-0.54-0.73
				c0.17-1.38-0.39-2.31-1.56-2.96c-0.22-0.12-0.4-0.32-0.58-0.51c-0.53-0.58-0.29-1.1,0.63-1.43
				C169.95,79.57,170.11,79.53,170.27,79.48z M190.96,102.35c0.59,0.31,0.97,0.51,1.34,0.71c1.9,1.01,3.27,2.41,3.86,4.58
				c0.31,1.13,0.95,2.19,1.52,3.24c0.89,1.63,1.64,3.23,0.52,5.08c-0.21,0.34-0.12,0.85-0.24,1.25c-0.5,1.67-1.24,3.16-2.65,4.31
				c-1.68,1.36-3.36,2.67-5.4,3.47c-0.54,0.21-1.03,0.58-1.52,0.91c-1.69,1.13-3.9,0.57-4.79-1.23c-0.46-0.93-0.89-1.86-1.3-2.81
				c-0.46-1.07-0.23-1.87,0.78-2.37c0.6-0.31,1.29-0.44,1.94-0.65c0.9-0.29,1.83-0.49,2.69-0.87c1.2-0.53,2.15-1.39,2.83-2.54
				c0.81-1.37,0.75-2.59-0.37-3.73c-0.48-0.48-1.06-0.87-1.64-1.23c-1.61-1-2.81-2.22-2.82-4.3c0-0.54-0.37-1.12-0.7-1.6
				c-0.63-0.92-1.38-1.76-2.03-2.67c-0.45-0.63-0.38-1.32,0.13-1.89c1.15-1.29,2.64-1.88,4.32-2.04c0.64-0.06,1.16,0.22,1.59,0.69
				C189.96,99.7,190.71,100.84,190.96,102.35z M184.74,101.19c0.26,1.14,1.18,1.72,1.8,2.51c0.53,0.67,1.16,1.3,1,2.27
				c-0.23,1.41,0.49,2.28,1.65,2.9c1.07,0.57,2.04,1.24,2.81,2.21c1.21,1.53,1.44,3.4,0.41,5.02c-1.44,2.24-3.35,3.9-6.04,4.49
				c-0.66,0.14-1.31,0.34-2.11,0.55c0.38,0.9,0.66,1.7,1.06,2.43c0.23,0.41,0.67,0.7,0.97,1c1.24-0.55,2.33-1.04,3.42-1.53
				c1.66-0.75,3.16-1.74,4.5-2.97c2.11-1.93,2.37-4.46,2.32-7.09c-0.85-1.96-1.63-3.96-2.6-5.85c-0.37-0.72-1.16-1.24-1.82-1.78
				c-0.46-0.37-1.02-0.62-1.56-0.89c-0.73-0.37-1.23-0.91-1.47-1.7c-0.12-0.41-0.24-0.83-0.43-1.21c-0.8-1.57-1.48-1.79-3.11-0.99
				C185.24,100.69,185.01,100.96,184.74,101.19z M136.84,120.64c-1.66-0.95-2.52-2.16-2.82-3.78c-0.22-1.18-0.54-2.34-0.68-3.53
				c-0.22-1.87,0.03-3.57,1.84-4.73c0.93-0.6,1.72-1.42,2.91-1.54c1.02-0.1,1.63-0.9,2.37-1.47c1.41-1.11,2.73-2.31,4.43-3.03
				c1.5-0.63,2.99-0.68,4.54-0.59c0.17,0.01,0.37,0.01,0.5,0.1c1.32,0.94,2.69,1.82,3.94,2.86c1.28,1.06,1.81,2.44,1.21,4.13
				c-0.16,0.47-0.08,1.01-0.15,1.52c-0.16,1.14-1.11,1.58-2.07,0.96c-0.57-0.37-1.08-0.87-1.68-1.17c-0.68-0.34-1.44-0.52-2.24-0.79
				c-1.03,1.06-2.29,1.73-3.69,2.17c-0.8,0.25-1.56,0.68-2.28,1.12c-0.85,0.52-1.4,1.3-1.42,2.32c-0.05,1.94-1.1,3.17-2.7,4.09
				C138.18,119.64,137.58,120.12,136.84,120.64z M152.85,108.74c0.62-1.51-0.17-2.15-0.87-2.74c-0.58-0.49-1.37-0.73-1.96-1.22
				c-1.32-1.08-2.67-0.88-4.11-0.33c-1.47,0.56-2.7,1.46-3.88,2.46c-1.17,0.99-2.29,2.12-3.98,2.2c-1.99,1.11-3.36,2.08-2.52,4.61
				c0.27,0.81,0.35,1.67,0.52,2.55c0.51,0.42,1.03,0.84,1.5,1.22c1.25-0.47,1.68-1.35,1.78-2.44c0.26-2.77,2.07-4.26,4.42-5.18
				c1.22-0.47,2.38-0.93,3.34-1.84c0.91-0.87,1.93-0.97,3.07-0.4C150.98,108.05,151.87,108.34,152.85,108.74z M139.13,137.18
				c-0.27-1.21-0.55-2.29-0.75-3.38c-0.39-2.07-0.12-2.59,1.7-3.49c0.61-0.3,1.23-0.6,1.94-0.94c0.25,0.1,0.66,0.13,0.86,0.35
				c1.27,1.39,2.53,2.8,3.73,4.26c0.45,0.54,0.48,1.21,0.28,1.95c-0.37,1.4-0.47,2.88-1.69,3.91c-0.12,0.1-0.2,0.28-0.25,0.45
				c-0.85,3.05-3.53,4.04-5.98,5.24c-0.58,0.29-1.36,0.37-2.02,0.29c-1.36-0.16-2.7-0.48-4.04-0.75c-0.16-0.03-0.32-0.12-0.47-0.2
				c-1.27-0.71-1.35-2.37-0.11-3.16c0.93-0.6,1.88-1.22,2.9-1.65C136.7,139.45,137.79,138.4,139.13,137.18z M134.91,142.86
				c0.51,0.3,0.64,0.42,0.8,0.45c2.46,0.56,4.28-0.84,6.15-2.06c0.27-0.17,0.47-0.52,0.58-0.83c0.53-1.48,1.46-2.7,2.58-3.79
				c-0.19-2.17-1.72-3.36-2.89-4.73c-0.38,0.03-0.65,0-0.88,0.09c-0.3,0.11-0.57,0.32-0.99,0.56c0.29,1.3,0.56,2.55,0.84,3.8
				c0.28,1.24-0.15,2.15-1.19,2.88C138.29,140.35,136.72,141.54,134.91,142.86z M113.18,151.17c-1.3,1.63-2.9,2.84-4.98,3.39
				c-1.59,0.42-3.33-0.89-3.35-2.57c0-0.17,0.02-0.34,0.04-0.51c0.3-2.44,1.62-4.26,3.28-4.47c1-0.13,1.87,0.32,2.64,0.86
				C111.95,148.66,112.99,149.57,113.18,151.17z M106.77,151.76c2.26,0.82,2.26,0.82,3.85-1.22c-0.27-0.8-0.96-1.14-1.7-1.39
				c-0.54-0.18-1.07-0.02-1.33,0.49C107.25,150.31,107.04,151.04,106.77,151.76z M138.73,100.05c0-0.49-0.04-1.01-0.01-1.52
				c0.15-2.59,1.81-4.18,3.81-5.46c0.36-0.23,1.03-0.22,1.46-0.07c2.12,0.77,3,3.05,1.95,5.06c-0.66,1.26-1.73,2.19-3.07,2.61
				C141.46,101.1,139.98,101.26,138.73,100.05z M140.4,98.96c1.6,0.27,2.6-0.6,3.44-1.68c0.22-0.29,0.23-0.79,0.23-1.2
				c-0.01-0.63-0.74-1.11-1.26-0.84C141.34,96.02,140.1,96.95,140.4,98.96z M173.18,101.51c0.26-0.22,0.51-0.47,0.8-0.65
				c0.99-0.61,2.06-0.54,2.78,0.33c1.06,1.28,1.76,2.73,1.56,4.47c-0.11,0.9-0.49,1.62-1.27,2.11c-0.55,0.35-1.17,0.47-1.7,0.12
				c-1.21-0.79-2.38-1.63-2.97-3.08C171.71,103.23,171.82,102.61,173.18,101.51z M175.27,102.56c-1.33,1.04-1.42,1.25-0.8,2.11
				c0.42,0.59,0.82,1.24,1.68,1.6C176.8,104.73,176.38,103.65,175.27,102.56z M191.45,93.11c0.96-0.79,1.49-0.83,2.56-0.15
				c1.26,0.8,2.38,1.69,2.52,3.37c0.09,1.11-0.43,1.78-1.28,2.34c-0.74,0.48-1.44,0.4-2.18-0.03c-0.99-0.57-1.69-1.39-2.22-2.38
				C190.11,94.84,190.24,94.1,191.45,93.11z M192.34,94.56c0.13,1.92,0.13,1.92,1.5,3.02C195.18,96.17,194.91,95.54,192.34,94.56z
				 M190.37,75.45c-0.37,0.56-0.63,1.21-0.82,1.86c-0.13,0.42,0.04,0.91,0.53,1.01c0.27,0.05,0.73-0.09,0.89-0.3
				c0.94-1.22,1.83-2.49,2.7-3.76c0.19-0.27,0.33-0.62,0.36-0.95c0.07-0.69-0.24-1.16-1.19-1.25
				C191.98,73.24,191.13,74.31,190.37,75.45z M175.39,57.1c-0.44,1.45-0.34,2.81,1.1,4.18c-0.25-2.39,1.44-4.16,1.1-6.38
				C176.17,55.3,175.84,55.62,175.39,57.1z M157.66,58.13c0.92-0.36,1.51-0.83,1.57-2c0.08-1.42,0.51-2.82,0.76-4.24
				c0.04-0.22-0.06-0.46-0.1-0.79c-0.3,0.09-0.62,0.08-0.71,0.22c-1.03,1.78-1.91,3.61-1.24,5.76
				C158.07,57.48,158.22,57.9,157.66,58.13C157.66,58.12,157.66,58.13,157.66,58.13z M169.86,60.19c0.38,0.22,0.81,0.43,1.16,0.06
				c0.18-0.2,0.3-0.68,0.18-0.89c-0.41-0.74-0.24-1.49-0.24-2.25c0-0.51,0.02-1.04-0.12-1.51c-0.07-0.24-0.47-0.45-0.75-0.52
				c-0.17-0.04-0.52,0.17-0.61,0.35c-0.6,1.28-0.73,2.61-0.24,3.97c0.08,0.23,0.26,0.43,0.36,0.58
				C169.72,60.08,169.78,60.15,169.86,60.19z M181.74,61.47c0.18-0.42,0.09-0.91-0.36-1.08c-0.23-0.09-0.72,0.07-0.86,0.28
				c-0.53,0.76-1.06,1.54-1.41,2.39c-0.29,0.69-0.36,1.49,0.56,2.35C180.61,64.08,181.19,62.78,181.74,61.47z M194.55,80.93
				c0.84-0.3,1.69-1.95,1.59-2.95c-0.05-0.51-0.72-0.89-1.15-0.61c-0.98,0.63-1.54,1.55-1.67,2.69c-0.03,0.22,0.17,0.46,0.31,0.78
				C193.92,80.88,194.28,81.03,194.55,80.93z M208.96,93.49c-0.94,0.34-1.89,0.63-2.8,1.02c-0.49,0.21-0.42,0.69,0.14,1.38
				c0.83-0.87,2.3-0.81,2.97-1.92C209.16,93.81,209.06,93.65,208.96,93.49z M205.81,98.41c0.8,0.41,1.19,0.73,1.62,0.8
				c0.77,0.11,1.5-0.08,2.19-1.24C208.29,98.16,207.25,97.94,205.81,98.41z M198.08,84.33c-0.07,0.12-0.04,0.34,0.03,0.47
				c0.07,0.12,0.26,0.27,0.37,0.26c0.88-0.11,1.23-0.62,1.21-1.72C198.9,83.26,198.44,83.73,198.08,84.33z M120.33,136.74
				c0.21-0.39,0.35-1.08,0.14-1.39c-0.51-0.77-0.93-1.56-1.25-2.42c-0.05-0.15-0.49-0.31-0.65-0.24c-0.27,0.11-0.53,0.37-0.68,0.63
				c-0.1,0.19-0.11,0.59,0.02,0.71c0.88,0.86,0.62,2.03,0.8,3C119.42,137.45,120.01,137.32,120.33,136.74z M127.17,132.7
				c0.06-0.11-0.02-0.35-0.11-0.45c-0.1-0.11-0.34-0.24-0.44-0.19c-0.61,0.28-1.25,0.55-1.79,0.95c-0.16,0.12-0.19,0.68-0.05,0.9
				c0.14,0.23,0.56,0.35,0.86,0.37c0.22,0.02,0.45-0.2,0.8-0.37C126.66,133.56,126.94,133.15,127.17,132.7z M122.53,138.66
				c-0.31,0.01-0.74,0.44-0.87,0.77c-0.17,0.44,0.18,0.81,0.61,0.98c0.87,0.35,1.12,0.21,2.19-1.32
				C123.64,138.89,123.08,138.64,122.53,138.66z M114.95,133.96c-0.26,0.8-0.07,1.52,0.52,1.8c0.19,0.09,0.54,0.05,0.71-0.08
				c0.59-0.43,0.47-1.05,0.3-1.64c-0.07-0.23-0.21-0.49-0.4-0.62c-0.17-0.12-0.46-0.1-0.69-0.14
				C115.22,133.54,115.03,133.73,114.95,133.96z M118.82,140.76c-0.15-0.06-0.36-0.14-0.49-0.08c-0.28,0.12-0.66,0.28-0.74,0.51
				c-0.09,0.25,0.01,0.7,0.2,0.9c0.69,0.7,1.28,0.53,2.39-0.75C119.58,141.08,119.21,140.91,118.82,140.76z M118.56,129.45
				c-0.55-0.18-1.07,0.1-1.14,0.63c-0.01,0.12,0.11,0.33,0.22,0.37c0.5,0.19,1.07-0.13,1.16-0.63c0.01-0.07-0.02-0.15-0.04-0.22
				C118.7,129.55,118.64,129.48,118.56,129.45z M122.21,137.51c0.32-0.01,0.63-0.06,0.95-0.12c0.03-0.01,0.06-0.17,0.04-0.24
				c-0.09-0.27-0.89-0.32-1.11-0.07C122.12,137.23,122.17,137.51,122.21,137.51z M115.63,139.52c0-0.24,0.04-0.48,0-0.71
				c-0.01-0.09-0.18-0.16-0.3-0.22c-0.02-0.01-0.14,0.1-0.14,0.16c-0.02,0.23-0.01,0.46-0.01,0.68
				C115.37,139.47,115.5,139.5,115.63,139.52z M123.21,128.43c0.05,0.15,0.05,0.37,0.14,0.42c0.18,0.1,0.41,0.1,0.62,0.14
				c-0.03-0.14-0.07-0.27-0.12-0.47C123.66,128.49,123.44,128.46,123.21,128.43z M120.51,131.86c0.09,0.14,0.39,0.13,0.6,0.19
				c0.05-0.22,0.18-0.47,0.12-0.65c-0.05-0.13-0.35-0.18-0.66-0.31C120.53,131.44,120.42,131.72,120.51,131.86z M126.7,137.52
				c0.11-0.1,0.13-0.29,0.19-0.45c-0.16,0.01-0.38-0.03-0.47,0.05c-0.18,0.16-0.28,0.4-0.57,0.84
				C126.3,137.74,126.53,137.67,126.7,137.52z M123.95,141.39c0.07,0.02,0.16,0.08,0.2,0.05c0.09-0.06,0.16-0.16,0.23-0.24
				c-0.07-0.01-0.14-0.03-0.2-0.04C124.11,141.23,124.03,141.31,123.95,141.39z M168.65,122.64c2.35-0.39,3.07-3,2.42-4.84
				c-0.18-0.5-0.7-0.74-1.35-0.26c-0.47,1.52,0.12,3.74-2.38,4.71C167.78,122.38,168.25,122.71,168.65,122.64z M155.59,125.11
				c0.43,0.29,0.9,0.64,1.39,0.31c0.66-0.44,0.24-1.06,0.09-1.61c-0.16-0.57-0.25-1.17-0.5-1.7c-0.2-0.43-0.6-0.76-1.18-1.47
				c-0.37,1.43-0.87,2.47-0.81,3.87C155.01,124.77,155.31,124.92,155.59,125.11z M155.67,126.6c-0.45-0.04-0.62,0.5-0.56,0.96
				c0.08,0.6,0.58,1.17,0.95,0.98c1.14-0.58,2.68-0.47,3.39-2.04C158.03,125.67,156.89,126.72,155.67,126.6z M163.09,130.13
				c-0.2,0.12-0.32,0.62-0.25,0.88c0.07,0.25,0.44,0.57,0.69,0.59c1.4,0.11,2.18-0.43,3.19-2.16
				C165.35,129.19,164.18,129.47,163.09,130.13z M171,125.64c-0.01,0.38,0.34,0.55,0.72,0.54c0.68-0.01,1.11-0.37,1.34-1
				c0.24-0.67,0.35-1.35-0.25-1.89c-0.15-0.14-0.45-0.13-0.81-0.22C171.57,123.91,171.01,124.67,171,125.64z M162.93,117.92
				c0.14-0.96-0.04-1.51-0.47-1.45c-0.7,0.1-1,0.61-1.1,1.24c-0.05,0.33,0.02,0.67,0.04,0.97c1.75,1.18,1.75,1.18,3.15,0.74
				c-0.65-0.25-1.08-0.42-1.74-0.68C162.85,118.42,162.89,118.17,162.93,117.92z M163.42,114.42c-0.49,0.4-0.51,1.03-0.25,1.63
				c0.6,0.37,1.2,0.48,1.88,0.08c-0.06-0.69-0.12-1.33-0.2-2.18C164.28,114.13,163.75,114.15,163.42,114.42z M167.53,125.99
				c-0.05,0.19,0.11,0.59,0.26,0.65c0.27,0.1,0.75,0.13,0.9-0.04c0.32-0.35,0.59-0.82,0.7-1.28c0.16-0.65-0.19-1.15-1.09-1.61
				C168.01,124.55,167.73,125.26,167.53,125.99z M161.11,123.76c-0.06,0.22,0.21,0.72,0.41,0.76c0.66,0.15,1.15-0.24,1.48-0.78
				c0.31-0.5,0.28-0.97-0.32-1.42C162.01,122.59,161.33,122.94,161.11,123.76z M164.6,125.16c0.15-0.08,0.27-0.48,0.2-0.64
				c-0.08-0.18-0.39-0.37-0.59-0.37c-0.32,0.01-0.72,0.1-0.92,0.31c-0.25,0.27-0.33,0.7-0.65,1.45
				C163.55,125.57,164.1,125.41,164.6,125.16z M159.47,114.23c0.16,0.45,0.88,0.68,1.24,0.39c0.18-0.15,0.26-0.6,0.18-0.83
				c-0.19-0.51-0.79-0.67-1.37-0.33C159.5,113.65,159.38,113.98,159.47,114.23z M157.37,119.48c0.75,0.38,1.18,0.16,1.47-0.57
				C158.1,118.53,157.66,118.72,157.37,119.48z M169.33,91.75c0.2-0.35-0.15-0.99-0.53-0.93c-1.36,0.2-2.62,0.64-3.46,1.8
				c-0.15,0.2-0.07,0.65,0.04,0.92c0.07,0.16,0.47,0.35,0.63,0.29c0.94-0.34,1.85-0.75,2.66-1.09
				C168.97,92.31,169.17,92.04,169.33,91.75z M159.98,77.44c-0.7,0.95-1.41,1.88-2.3,2.68c-0.45,0.4-0.18,0.94,0.32,1.26
				c2.63-1.21,2.84-1.53,2.84-4.45C160.51,77.12,160.15,77.21,159.98,77.44z M154.36,87.08c0.65-0.38,1.3-0.79,1.86-1.29
				c0.2-0.18,0.24-0.65,0.19-0.96c-0.05-0.3-0.25-0.7-0.49-0.81c-0.23-0.1-0.73,0.02-0.89,0.22c-0.53,0.66-0.97,1.39-1.41,2.11
				c-0.06,0.1,0.06,0.31,0.11,0.55C153.92,86.96,154.22,87.16,154.36,87.08z M165.66,79.2c-0.66-0.32-1.4-0.5-2.13-0.62
				c-0.22-0.04-0.63,0.29-0.72,0.54c-0.09,0.26,0,0.7,0.18,0.91c0.66,0.77,1.87,0.93,2.77,0.44c0.07-0.04,0.12-0.12,0.3-0.31
				C165.95,79.88,165.91,79.32,165.66,79.2z M161.61,86.18c-0.19,0.18-0.26,0.59-0.23,0.88c0.02,0.17,0.35,0.42,0.55,0.43
				c0.5,0.02,1.04,0.02,1.49-0.17c0.61-0.26,1.16-0.67,1.25-1.45C162.61,85.48,162.38,85.47,161.61,86.18z M159.4,93.16
				c-0.11,0.42,0.61,0.58,1.05,0.48c0.79-0.18,0.95-0.9,1.15-1.53c0.22-0.68,0.16-1.31-0.73-1.82
				C160.28,91.38,159.65,92.25,159.4,93.16z M159.25,82.31c1.83-0.19,1.83-0.19,2.14-2.81C160.38,80.5,159.17,80.81,159.25,82.31z
				 M169.83,87.03c0.07-0.12-0.1-0.39-0.2-0.69c-0.54,0.44-0.96,0.79-1.46,1.2C169.28,87.87,169.34,87.86,169.83,87.03z
				 M168.11,86.7c0.31-0.01,0.36-0.74,0.03-1.03c-0.14-0.12-0.58-0.17-0.61-0.12c-0.12,0.25-0.14,0.54-0.2,0.84
				C167.68,86.53,167.9,86.7,168.11,86.7z M167.17,82.88c0.04-0.03-0.07-0.36-0.15-0.38c-0.21-0.04-0.5-0.07-0.64,0.04
				c-0.16,0.14-0.2,0.42-0.51,1.15C166.7,83.2,166.95,83.06,167.17,82.88z M163.68,82.2c-0.04-0.14-0.05-0.32-0.15-0.42
				c-0.07-0.07-0.25-0.02-0.38-0.02c0.04,0.14,0.09,0.29,0.13,0.43C163.42,82.2,163.55,82.2,163.68,82.2z"/>
		</g>
		<text transform="matrix(1 0 0 1 39.2363 192.4148)" class="st43 st44 st45">RESTAURANT &amp; FOOD</text>
	</g>
</g>
<g id="Layer_12">
</g>
<g id="Layer_13">
</g>
<g id="Layer_14">
</g>
<g id="Layer_15">
</g>
</svg>
