<?xml version="1.0" encoding="utf-8"?>
<!-- Generator: Adobe Illustrator 27.8.1, SVG Export Plug-In . SVG Version: 6.00 Build 0)  -->
<svg version="1.1" xmlns="http://www.w3.org/2000/svg" xmlns:xlink="http://www.w3.org/1999/xlink" x="0px" y="0px"
	 viewBox="0 0 350 230" style="enable-background:new 0 0 350 230;" xml:space="preserve">
<style type="text/css">
	.st0{fill:#191919;}
	.st1{fill:#FFFFFF;}
	.st2{fill:#FFCA55;}
	.st3{fill:#006865;}
	.st4{fill:#00AEB7;}
	.st5{fill:#EDC599;}
	.st6{fill:url(#SVGID_1_);}
	.st7{fill:#250B00;}
	.st8{fill:#FFDBD4;}
	.st9{fill:#231F20;}
	.st10{fill:#7F7F7F;}
	.st11{fill:#FFD468;}
	.st12{fill:#303030;}
	.st13{fill:#007D54;}
	.st14{fill:#EE3631;}
	.st15{fill:#2B2B2B;}
	.st16{fill:#FFB000;}
	.st17{opacity:0.35;fill:#FFFFFF;}
	.st18{fill:#E09C05;}
	.st19{fill:#A8112B;}
	.st20{fill:#FCB040;}
	.st21{fill:#3DA1D8;}
	.st22{fill:#0C8EBC;}
	.st23{fill:#EFC6A3;}
	.st24{fill:#B0DFFF;}
	.st25{fill-rule:evenodd;clip-rule:evenodd;fill:#FEFEFE;}
	.st26{fill:#006284;}
	.st27{fill:#5B5B5B;}
	.st28{fill:#EACAB0;}
	.st29{fill:#442B18;}
	.st30{fill:#663412;}
	.st31{fill:#C18B63;}
	.st32{display:none;fill:#442B18;}
	.st33{font-family:'MoneyHoney';}
	.st34{font-size:30px;}
	.st35{fill:#3A1801;}
	.st36{fill:#616D0B;}
	.st37{fill:#98B11F;}
	.st38{fill:#606060;}
	.st39{fill:#E0E0E0;}
	.st40{fill-rule:evenodd;clip-rule:evenodd;fill:#FFE183;}
	.st41{fill-rule:evenodd;clip-rule:evenodd;fill:#FFA617;}
	.st42{fill:#FF6745;}
	.st43{fill-rule:evenodd;clip-rule:evenodd;fill:#63A642;}
	.st44{fill-rule:evenodd;clip-rule:evenodd;fill:#925056;}
	.st45{fill-rule:evenodd;clip-rule:evenodd;fill:#2C2F38;}
	.st46{fill:#A5A5A5;}
	.st47{fill:#FFEBB8;}
	.st48{fill:#FFA617;}
	.st49{fill:#AF121A;}
	.st50{fill:#C49718;}
	.st51{fill:#FFD961;}
	.st52{fill:#F93B00;}
	.st53{fill:#FFC02E;}
	.st54{fill:#FA6500;}
	.st55{fill:#9BB200;}
	.st56{fill:#FFF7D6;}
	.st57{fill:#3E9AFF;}
	.st58{fill:#3ED698;}
	.st59{fill:#0F935A;}
</style>
<g id="Layer_1">
</g>
<g id="Layer_2">
</g>
<g id="Layer_3">
</g>
<g id="Layer_4">
</g>
<g id="Layer_5">
</g>
<g id="Layer_6">
</g>
<g id="Layer_7">
</g>
<g id="Layer_8">
	<g>
		<g>
			<path class="st28" d="M127.09,126.98c-4.43-7.92-6.97-17.04-6.97-26.76c0-30.31,24.57-54.88,54.88-54.88
				c30.31,0,54.88,24.57,54.88,54.88c0,9.72-2.54,18.84-6.97,26.76H127.09z"/>
			<path class="st1" d="M210.77,104.85c-0.08,2.04-0.83,3.49-1.62,4.75c-1.6,2.42-3.88,4.24-6.6,5.28
				c-1.38,0.51-2.76,0.77-4.11,0.75c-0.45-0.01-0.88-0.05-1.28-0.11c0.3-0.4,0.59-0.8,0.87-1.22c1.17-0.32,2.3-0.79,3.35-1.41
				c2.16-1.25,3.97-2.96,5.25-4.94c0.8-1.2,1.23-2.29,1.32-3.32c0.04-0.5,0.01-1.2-0.31-1.72c-0.27-0.46-0.8-0.78-1.5-0.9
				c-1.03-0.15-2.1,0.08-3.01,0.36c0.17-0.69,0.32-1.35,0.45-1.99c0.15-0.07,0.3-0.13,0.45-0.19c0.64-0.24,1.43-0.49,2.48-0.45
				c0.62,0.04,1.17,0.17,1.69,0.4c0.62,0.28,1.23,0.79,1.64,1.38c0.2,0.28,0.38,0.6,0.51,0.92c0.06,0.15,0.12,0.31,0.16,0.45
				l0.1,0.42c0.06,0.24,0.1,0.49,0.12,0.79C210.77,104.33,210.78,104.58,210.77,104.85z M175.68,101.02
				c-14.03,0-25.41-2.38-28.1-5.65c0.34,4.16,1.97,15.97,9.72,23.41c4.7,4.53,10.89,6.73,18.38,6.55
				c17.2-0.42,24.01-12.24,26.7-22.08c0.9-3.32,1.26-6.22,1.41-7.88C201.09,98.64,189.71,101.02,175.68,101.02z M203.85,93.61
				c-0.61-3.48-13.26-6.36-28.17-6.36c-14.91,0-27.56,2.89-28.17,6.36c-0.01,0.09-0.02,0.17-0.02,0.26c0,0.09,0.01,0.17,0.02,0.26
				c0.61,3.48,13.26,6.36,28.17,6.36c14.91,0,27.56-2.89,28.17-6.36c0.01-0.09,0.02-0.17,0.02-0.26
				C203.87,93.78,203.86,93.7,203.85,93.61z"/>
			<path class="st29" d="M211.26,104.04c-0.02-0.33-0.07-0.6-0.14-0.87l-0.1-0.42c-0.05-0.16-0.11-0.34-0.18-0.51
				c-0.14-0.36-0.34-0.72-0.56-1.02c-0.46-0.67-1.15-1.25-1.86-1.56c-0.58-0.26-1.19-0.4-1.88-0.44c-1.13-0.03-2,0.22-2.69,0.49
				c-0.05,0.02-0.1,0.04-0.15,0.06c0.56-3.02,0.66-5.24,0.68-5.77c0-0.04,0-0.08,0-0.12c0-0.09,0-0.17-0.02-0.26
				c-0.54-3.88-12.94-6.88-28.69-6.88s-28.15,3-28.69,6.88c-0.01,0.09-0.02,0.17-0.02,0.26v0c0,0.16,0.33,16.01,9.96,25.28
				c4.62,4.45,10.64,6.71,17.89,6.71c0.28,0,0.57,0,0.86-0.01c10.22-0.25,16.83-4.44,21.11-9.88c0.51,0.1,1.05,0.15,1.63,0.17
				c0.04,0,0.08,0,0.12,0c1.37,0,2.77-0.27,4.17-0.79c2.82-1.07,5.2-2.97,6.86-5.48c0.79-1.26,1.61-2.85,1.7-5.02
				C211.3,104.57,211.29,104.3,211.26,104.04z M147.49,93.87c0-0.09,0.01-0.17,0.02-0.26c0.61-3.48,13.26-6.36,28.17-6.36
				c14.91,0,27.56,2.89,28.17,6.36c0.01,0.09,0.02,0.17,0.02,0.26c0,0.09-0.01,0.17-0.02,0.26c-0.61,3.48-13.26,6.36-28.17,6.36
				c-14.91,0-27.56-2.89-28.17-6.36C147.5,94.05,147.49,93.96,147.49,93.87z M196.58,115.41c-0.06,0.07-0.11,0.15-0.18,0.22
				c-0.06,0.08-0.11,0.15-0.18,0.23c-4.21,5.23-10.66,9.24-20.54,9.48c-7.48,0.18-13.67-2.02-18.38-6.55
				c-7.74-7.45-9.38-19.26-9.72-23.41c2.69,3.26,14.07,5.65,28.1,5.65c14.03,0,25.41-2.38,28.1-5.65c-0.1,1.1-0.28,2.73-0.66,4.66
				c-0.02,0.11-0.05,0.22-0.06,0.33c-0.02,0.11-0.05,0.22-0.07,0.34c-0.12,0.6-0.27,1.23-0.43,1.87c-0.02,0.1-0.05,0.2-0.08,0.3
				c-0.02,0.1-0.05,0.21-0.08,0.31c0,0.03-0.01,0.05-0.02,0.08c-0.95,3.48-2.42,7.21-4.68,10.59c-0.07,0.11-0.15,0.22-0.22,0.33
				c-0.07,0.11-0.15,0.21-0.22,0.32C197.04,114.8,196.81,115.1,196.58,115.41z M202.88,103.39c0.04-0.14,0.08-0.28,0.11-0.42
				c0.91-0.3,2.03-0.58,3.08-0.44c0.31,0.05,0.87,0.2,1.12,0.65c0.25,0.41,0.27,1,0.24,1.41c-0.09,0.94-0.49,1.95-1.24,3.08
				c-1.24,1.91-2.99,3.56-5.08,4.77c-0.84,0.49-1.73,0.89-2.65,1.18C200.57,110.32,201.96,106.74,202.88,103.39z M209.15,109.6
				c-1.6,2.42-3.88,4.24-6.6,5.28c-1.38,0.51-2.76,0.77-4.11,0.75c-0.45-0.01-0.88-0.05-1.28-0.11c0.3-0.4,0.59-0.8,0.87-1.22
				c1.17-0.32,2.3-0.79,3.35-1.41c2.16-1.25,3.97-2.96,5.25-4.94c0.8-1.2,1.23-2.29,1.32-3.32c0.04-0.5,0.01-1.2-0.31-1.72
				c-0.27-0.46-0.8-0.78-1.5-0.9c-1.03-0.15-2.1,0.08-3.01,0.36c0.17-0.69,0.32-1.35,0.45-1.99c0.15-0.07,0.3-0.13,0.45-0.19
				c0.64-0.24,1.43-0.49,2.48-0.45c0.62,0.04,1.17,0.17,1.69,0.4c0.62,0.28,1.23,0.79,1.64,1.38c0.2,0.28,0.38,0.6,0.51,0.92
				c0.06,0.15,0.12,0.31,0.16,0.45l0.1,0.42c0.06,0.24,0.1,0.49,0.12,0.79c0.03,0.24,0.04,0.49,0.03,0.75
				C210.69,106.89,209.94,108.34,209.15,109.6z M178.2,102.14c0,0,11.57,1.19,23.88-3.56c0,0-3.05,20.43-20.32,24.95
				c0,0-2.6-3.61,0-8.24C184.35,110.67,185.82,107.73,178.2,102.14z M156.58,100.76c-3.84-0.31-6.77-1.95-6.77-1.95
				s3.5,18.96,15.02,23.59C159.2,115.35,156.09,108.16,156.58,100.76z M175.68,88.08c-13.52,0-24.48,2.74-24.48,6.11
				c0,3.37,10.96,6.11,24.48,6.11s24.48-2.74,24.48-6.11C200.16,90.82,189.2,88.08,175.68,88.08z M176.88,85.65
				c0.21,0.09,0.36-0.2,0.18-0.32c-1.44-0.99-2.42-2.65-2.68-4.38c-0.38-2.18,0.2-4.46,1.09-6.47c1.33-2.9,3.44-5.45,4.29-8.58
				c1.64-5.29,0.66-11.66-3.5-15.54c-1.37-1.26-3.08-2.18-4.91-2.53c-0.18-0.05-0.29,0.23-0.13,0.32l0.06,0.04
				c5.6,3.56,6.83,10.73,4.97,16.65c-0.54,1.93-1.52,3.76-2.44,5.55c-0.51,0.92-0.98,2.22-1.33,3.22c-0.15,0.6-0.34,1.35-0.47,1.95
				c-0.05,0.41-0.14,1.22-0.18,1.63c-0.05,0.48,0.03,1.17,0.03,1.67C172.1,81.78,173.88,84.89,176.88,85.65L176.88,85.65z
				 M170.14,80.85c0.12,0.06,0.23-0.13,0.11-0.2c-2.52-1.75-1.96-5.29-0.64-7.64c0.71-1.26,1.52-2.46,2.06-3.83
				c0.83-2.2,1.02-4.67,0.34-6.93c-0.75-2.51-2.71-4.84-5.38-5.35c-0.04-0.01-0.09,0.01-0.11,0.05c-0.05,0.07,0,0.15,0.07,0.18
				c1.89,1.2,2.94,2.95,3.42,4.98c0.68,2.82-0.04,5.77-1.38,8.28c-0.11,0.23-0.3,0.59-0.41,0.82c-0.53,1-0.91,2.16-1.14,3.26
				C166.61,76.97,167.48,80.13,170.14,80.85L170.14,80.85z M178.97,83.88c0.11,0.07,0.25-0.06,0.16-0.16
				c-1.3-1.53-0.36-3.69,0.86-4.98c0.66-0.69,1.4-1.36,1.97-2.14c1.96-2.64,1.99-7.25-1.29-8.84c-0.15-0.04-0.19,0.11-0.1,0.21
				c1.49,2.2,1.02,4.84-0.25,6.96c-0.28,0.51-0.67,0.99-1.03,1.45c-0.26,0.34-0.57,0.67-0.81,1.03c-0.23,0.35-0.55,0.84-0.71,1.23
				C176.87,80.24,176.99,83.14,178.97,83.88L178.97,83.88z"/>
			<path class="st30" d="M166.68,98.33c-7.25-0.67-12.42-2.41-12.42-4.46c0-1.14,1.6-2.18,4.26-3c-1.09,0.73-1.71,1.54-1.71,2.39
				C156.81,95.45,160.8,97.35,166.68,98.33z M189.55,97.28c5.22-0.48,8.94-1.74,8.94-3.21c0-0.82-1.15-1.57-3.06-2.16
				c0.79,0.52,1.23,1.11,1.23,1.72C196.66,95.21,193.79,96.58,189.55,97.28z"/>
			<path class="st31" d="M235.35,101.57h-0.46c0-33.03-26.87-59.89-59.89-59.89s-59.89,26.87-59.89,59.89h-0.46
				c0-33.28,27.07-60.35,60.35-60.35C208.28,41.22,235.35,68.29,235.35,101.57z M221.97,131.12H128.3v0.46h93.68V131.12z
				 M221.97,144.43H128.3v0.46h93.68V144.43z"/>
			<path class="st30" d="M131.05,134.85l1.06,2.15l2.38,0.35l-1.72,1.68l0.41,2.37l-2.13-1.12l-2.13,1.12l0.41-2.37l-1.72-1.68
				l2.38-0.35L131.05,134.85z M217.69,137l-2.38,0.35l1.72,1.68l-0.41,2.37l2.13-1.12l2.13,1.12l-0.41-2.37l1.72-1.68l-2.38-0.35
				l-1.06-2.15L217.69,137z"/>
		</g>
		<text transform="matrix(1 0 0 1 39.2364 174.8905)" class="st32 st33 st34">RESTAURANT &amp; FOOD</text>
	</g>
</g>
<g id="Layer_9">
</g>
<g id="Layer_10">
</g>
<g id="Layer_11">
</g>
<g id="Layer_12">
</g>
<g id="Layer_13">
</g>
<g id="Layer_14">
</g>
<g id="Layer_15">
</g>
</svg>
