<?xml version="1.0" encoding="utf-8"?>
<!-- Generator: Adobe Illustrator 27.8.1, SVG Export Plug-In . SVG Version: 6.00 Build 0)  -->
<svg version="1.1" xmlns="http://www.w3.org/2000/svg" xmlns:xlink="http://www.w3.org/1999/xlink" x="0px" y="0px"
	 viewBox="0 0 350 230" style="enable-background:new 0 0 350 230;" xml:space="preserve">
<style type="text/css">
	.st0{fill-rule:evenodd;clip-rule:evenodd;fill:#009696;}
	.st1{fill-rule:evenodd;clip-rule:evenodd;fill:#1E87B8;}
	.st2{fill-rule:evenodd;clip-rule:evenodd;fill:#676766;}
	.st3{fill:#1E87B8;}
	.st4{fill:#181C21;}
	.st5{fill-rule:evenodd;clip-rule:evenodd;fill:#0091C6;}
	.st6{fill:#0047C4;}
	.st7{fill:#00194C;}
	.st8{fill:#00A8B5;}
	.st9{fill:#635901;}
	.st10{fill:#A03100;}
	.st11{fill:#0F4D4F;}
	.st12{fill:#303000;}
	.st13{fill:#666666;}
	.st14{fill:#6096A8;}
	.st15{fill:#493203;}
	.st16{fill:#0091C6;}
	.st17{fill:#0000A0;}
	.st18{fill:#300047;}
	.st19{fill:#032A54;}
	.st20{fill:#243F00;}
</style>
<g id="Layer_1">
	<path class="st0" d="M106.97,65.39c-42.9,9.54-53.95,83.28,23.25,91.12c5.55,0,8.76-4.77,9.91-10.11l5.9-27.08
		c1.14-5.32-4.52-10.09-10.08-10.09H96.31l0,0c-31.1,0-18.56-32.39,7.79-38.68c46.73-11.44,45.76,86.9,90.71,84.63
		c41.98-2.12,78.57-46.13,59.33-72.99l-25.2-24.8l-23.82,23.45l-6.64,6.49v36.38c0,1.92,1.49,3.45,3.44,3.45
		c14.26,0.95,15.23-1.33,15.23-25.37c0-6.47,5.33-11.6,11.8-11.6c6.53,0,11.63,5.13,11.63,11.6c0,18.31-4.75,51.86-31.62,38.5
		C174.83,123.53,149.52,55.67,106.97,65.39L106.97,65.39z M116.3,77.6L116.3,77.6c5.73,0,10.88,2.48,14.72,6.1l0,0
		c3.78,3.79,6.07,8.95,6.07,14.66v8.59h-10.48v-8.59c0-2.85-1.14-5.32-3.09-7.26l0,0c-1.72-1.87-4.35-3.05-7.22-3.05l0,0
		c-2.64,0-5.33,1.18-7.04,3.05c-1.95,1.94-3.04,4.41-3.04,7.26v8.59H95.74v-8.59c0-5.71,2.23-10.87,6.07-14.66
		C105.48,80.08,110.81,77.6,116.3,77.6L116.3,77.6z M116.13,129.05c-3.09,0-5.73,2.65-5.73,5.9c0,1.89,0.97,3.64,2.46,4.58v12.21
		h6.7v-12.21c1.55-0.94,2.46-2.69,2.46-4.58C122.03,131.7,119.4,129.05,116.13,129.05L116.13,129.05z M262.74,65.98V55.86
		c0-2.45-2.12-4.57-4.58-4.57c-2.46,0-4.41,2.12-4.41,4.57v1.17l-19.24-19.27c-1.49-1.49-3.61-2.28-5.55-2.28
		c-2.06,0-3.95,0.79-5.5,2.28l-40.2,40.22c-2.52,2.46-2.52,6.67,0,9.35c2.63,2.46,6.7,2.46,9.33,0l6.47-6.69l29.89-29.74
		l31.44,31.46l4.81,4.97c2.69,2.46,6.87,2.46,9.34,0c2.69-2.68,2.69-6.88,0-9.35l-11.97-12H262.74L262.74,65.98z M228.95,67.5
		c-3.78,0-6.81,3.05-6.81,6.87c0,3.81,3.04,6.86,6.81,6.86c3.84,0,6.87-3.05,6.87-6.86C235.83,70.55,232.79,67.5,228.95,67.5
		L228.95,67.5z"/>
</g>
<g id="Layer_2">
</g>
<g id="Layer_3">
</g>
<g id="Layer_4">
</g>
<g id="Layer_5">
</g>
<g id="Layer_6">
</g>
<g id="Layer_7">
</g>
<g id="Layer_8">
</g>
<g id="Layer_9">
</g>
<g id="Layer_10">
</g>
<g id="Layer_11">
</g>
<g id="Layer_12">
</g>
<g id="Layer_13">
</g>
<g id="Layer_14">
</g>
<g id="Layer_15">
</g>
</svg>
