<?xml version="1.0" encoding="utf-8"?>
<!-- Generator: Adobe Illustrator 27.8.1, SVG Export Plug-In . SVG Version: 6.00 Build 0)  -->
<svg version="1.1" xmlns="http://www.w3.org/2000/svg" xmlns:xlink="http://www.w3.org/1999/xlink" x="0px" y="0px"
	 viewBox="0 0 350 230" style="enable-background:new 0 0 350 230;" xml:space="preserve">
<style type="text/css">
	.st0{fill-rule:evenodd;clip-rule:evenodd;fill:#009696;}
	.st1{fill-rule:evenodd;clip-rule:evenodd;fill:#1E87B8;}
	.st2{fill-rule:evenodd;clip-rule:evenodd;fill:#676766;}
	.st3{fill:#1E87B8;}
	.st4{fill:#181C21;}
	.st5{fill-rule:evenodd;clip-rule:evenodd;fill:#0091C6;}
	.st6{fill:#0047C4;}
	.st7{fill:#00194C;}
	.st8{fill:#00A8B5;}
	.st9{fill:#635901;}
	.st10{fill:#A03100;}
	.st11{fill:#0F4D4F;}
	.st12{fill:#303000;}
	.st13{fill:#666666;}
	.st14{fill:#6096A8;}
	.st15{fill:#493203;}
	.st16{fill:#0091C6;}
	.st17{fill:#0000A0;}
	.st18{fill:#300047;}
	.st19{fill:#032A54;}
	.st20{fill:#243F00;}
</style>
<g id="Layer_1">
</g>
<g id="Layer_2">
</g>
<g id="Layer_3">
</g>
<g id="Layer_4">
</g>
<g id="Layer_5">
</g>
<g id="Layer_6">
</g>
<g id="Layer_7">
	<g>
		<path d="M214.25,60.15v12.04h-10.84C204.25,65.99,208.66,61.08,214.25,60.15z M203.26,88.72h10.99V76.52h-10.99V88.72z
			 M225.35,64.19c-1.91-2.12-4.41-3.58-7.21-4.05v12.05h10.85C228.57,69.09,227.26,66.31,225.35,64.19z M218.14,76.52v12.21h11
			V76.52H218.14z M125.72,86.81h7.75V78.2C129.47,78.87,126.32,82.37,125.72,86.81z M125.61,98.63h7.86V89.9h-7.86V98.63z
			 M141.4,81.09c-1.37-1.52-3.15-2.56-5.15-2.89v8.61H144C143.7,84.59,142.76,82.61,141.4,81.09z M136.25,89.9v8.72h7.86V89.9
			H136.25z"/>
		<path class="st9" d="M216.24,31.37l81.38,48.27l-18.14,0.11l-5.12-1.48l-0.04,11.91l-9.65,0.05l-0.41-18.31l-48.14-28.84
			l-53.94,30.85l101.53,71.35l0.06-35.77l10.43-0.06l-0.02,55.65L134.77,66.79c0,0-29.07,16.56-37.25,21.37
			c0.06,6.01,0.02,18.03,0.02,18.03l-10.21-0.08L87.3,94.23l-4.98,1.83l-17.2-0.45l69.78-41.16l17.4,11.9L216.24,31.37z"/>
	</g>
</g>
<g id="Layer_8">
</g>
<g id="Layer_9">
</g>
<g id="Layer_10">
</g>
<g id="Layer_11">
</g>
<g id="Layer_12">
</g>
<g id="Layer_13">
</g>
<g id="Layer_14">
</g>
<g id="Layer_15">
</g>
</svg>
