<?xml version="1.0" encoding="utf-8"?>
<!-- Generator: Adobe Illustrator 27.8.1, SVG Export Plug-In . SVG Version: 6.00 Build 0)  -->
<svg version="1.1" xmlns="http://www.w3.org/2000/svg" xmlns:xlink="http://www.w3.org/1999/xlink" x="0px" y="0px"
	 viewBox="0 0 350 230" style="enable-background:new 0 0 350 230;" xml:space="preserve">
<style type="text/css">
	.st0{fill-rule:evenodd;clip-rule:evenodd;fill:#009696;}
	.st1{fill-rule:evenodd;clip-rule:evenodd;fill:#1E87B8;}
	.st2{fill-rule:evenodd;clip-rule:evenodd;fill:#676766;}
	.st3{fill:#1E87B8;}
	.st4{fill:#181C21;}
	.st5{fill-rule:evenodd;clip-rule:evenodd;fill:#0091C6;}
	.st6{fill:#0047C4;}
	.st7{fill:#00194C;}
	.st8{fill:#00A8B5;}
	.st9{fill:#635901;}
	.st10{fill:#A03100;}
	.st11{fill:#0F4D4F;}
	.st12{fill:#303000;}
	.st13{fill:#666666;}
	.st14{fill:#6096A8;}
	.st15{fill:#493203;}
	.st16{fill:#0091C6;}
	.st17{fill:#0000A0;}
	.st18{fill:#300047;}
	.st19{fill:#032A54;}
	.st20{fill:#243F00;}
</style>
<g id="Layer_1">
</g>
<g id="Layer_2">
</g>
<g id="Layer_3">
</g>
<g id="Layer_4">
</g>
<g id="Layer_5">
</g>
<g id="Layer_6">
</g>
<g id="Layer_7">
</g>
<g id="Layer_8">
</g>
<g id="Layer_9">
</g>
<g id="Layer_10">
</g>
<g id="Layer_11">
</g>
<g id="Layer_12">
</g>
<g id="Layer_13">
	<path id="A" class="st18" d="M105.06,155.17V55.36l69.28-34.37h1.3l0.6,0.29l22.89,11.35v-12.3h20.15v22.3l25.66,12.73v99.81
		H125.29v-86l49.97-22.54l51.56,23.19v70.67h-88.04V81.34l36.89-16.87l36.48,16.88v47.65h-59.09l-0.04-38.57l22.24-10.08l21.42,9.62
		v6.09l-21.41-9.61L158.57,94l0.03,29.44h47.99V84.89l-30.94-14.32L144.32,84.9v50.04h76.94V73.41l-46-20.69l-44.42,20.03v77.26
		h108.54V58.8l-24.97-12.39l-0.69-1.54v-19h-9.05v15.7L175,26.86L110.61,58.8v96.37H105.06z"/>
</g>
<g id="Layer_14">
</g>
<g id="Layer_15">
</g>
</svg>
