<?xml version="1.0" encoding="utf-8"?>
<!-- Generator: Adobe Illustrator 27.8.1, SVG Export Plug-In . SVG Version: 6.00 Build 0)  -->
<svg version="1.1" xmlns="http://www.w3.org/2000/svg" xmlns:xlink="http://www.w3.org/1999/xlink" x="0px" y="0px"
	 viewBox="0 0 350 230" style="enable-background:new 0 0 350 230;" xml:space="preserve">
<style type="text/css">
	.st0{fill-rule:evenodd;clip-rule:evenodd;fill:#009696;}
	.st1{fill-rule:evenodd;clip-rule:evenodd;fill:#1E87B8;}
	.st2{fill-rule:evenodd;clip-rule:evenodd;fill:#676766;}
	.st3{fill:#1E87B8;}
	.st4{fill:#181C21;}
	.st5{fill-rule:evenodd;clip-rule:evenodd;fill:#0091C6;}
	.st6{fill:#0047C4;}
	.st7{fill:#00194C;}
	.st8{fill:#00A8B5;}
	.st9{fill:#635901;}
	.st10{fill:#A03100;}
	.st11{fill:#0F4D4F;}
	.st12{fill:#303000;}
	.st13{fill:#666666;}
	.st14{fill:#6096A8;}
	.st15{fill:#493203;}
	.st16{fill:#0091C6;}
	.st17{fill:#0000A0;}
	.st18{fill:#300047;}
	.st19{fill:#032A54;}
	.st20{fill:#243F00;}
</style>
<g id="Layer_1">
</g>
<g id="Layer_2">
</g>
<g id="Layer_3">
</g>
<g id="Layer_4">
</g>
<g id="Layer_5">
</g>
<g id="Layer_6">
</g>
<g id="Layer_7">
</g>
<g id="Layer_8">
</g>
<g id="Layer_9">
</g>
<g id="Layer_10">
	<g>
		<path id="XMLID_00000122694630613366395420000009337146522313624195_" class="st13" d="M291.74,161.88
			c-2.4,1.85-5.4,2.96-8.64,2.96H66.9c-3.26,0-6.25-1.11-8.65-2.96H47.38c3.89,6.75,11.18,11.3,19.52,11.3h216.2
			c8.33,0,15.63-4.55,19.52-11.3H291.74z M283.1,93.88h-72.78v-0.03l-4.8-4.36l7.2,0.3c0.24-0.73,0.04-1.52-0.51-2.06l-17.35-16.7
			c-0.15-0.15-0.33-0.26-0.52-0.33l-1.4-0.54v-3.97h0.41v-1.46h-0.41v-0.79c0-0.87-0.74-1.59-1.65-1.59h-3.14
			c-0.92,0-1.66,0.72-1.66,1.59v0.79h-0.63v1.46h0.63v1.44L159.02,56.9c-0.48-0.19-1.04-0.02-1.32,0.39l-20.4,29.86
			c-0.16,0.23-0.17,0.54-0.03,0.79c0.15,0.26,1.48,0.25,1.77,0.25l19.01-28.53c0.18-0.26,0.47-0.42,0.8-0.45
			c0.32-0.03,0.63,0.09,0.86,0.32l26.35,27.26c0.29,0.3,0.69,0.48,1.12,0.51l7.08,0.36l-8.34,1.01l-10.01-10.24l-0.99-1.02
			l-14.53-14.88c-0.27-0.28-0.67-0.43-1.06-0.4c-0.4,0.02-0.77,0.21-1,0.53l-18.37,25.7l3.15,0.75l0.15,4.8H66.9
			c-9.26,0-17.23,5.61-20.69,13.61h9.66c2.6-3.21,6.58-5.27,11.02-5.27h76.73v-0.2l12.43-20.88v7.79c0,1.25,1.05,2.26,2.35,2.26
			h6.35c1.29,0,2.35-1.01,2.35-2.26V76.65c0-1.24-1.05-2.25-2.35-2.25h-4.67l2.59-4.34c0.18-0.27,0.48-0.44,0.81-0.46
			c0.33-0.03,0.65,0.1,0.87,0.33l9.72,10.43l1.14,1.22l1.12,1.21l0.91,0.97l7.49,8.03c0.14,0.15,0.22,0.35,0.22,0.56v3.16
			c0,0.59,0.49,1.06,1.1,1.06h5.72c0.29,0,0.57-0.11,0.78-0.32l7.23-6.99l5.04,0.21l-0.16,0.29l-5.01,7.45
			c-0.23,0.35-0.63,0.56-1.06,0.56h-12.53c-0.61,0-1.1,0.47-1.1,1.06v12.72l0.75-4.06l1.34-7.19l12.72-0.15v2.06h83.32
			c4.45,0,8.41,2.06,11.02,5.27h9.67C300.32,99.5,292.35,93.88,283.1,93.88z M189.87,68.97l-1.8-0.7v-2.06h1.8V68.97z M189.87,64.75
			h-1.8v-0.79c0-0.03,0.03-0.07,0.08-0.07h1.72V64.75z M163.93,76.13c0.3,0,0.54,0.24,0.54,0.52v11.46c0,0.29-0.24,0.52-0.54,0.52
			h-5.52c-0.3,0-0.54-0.23-0.54-0.52v-9.99l1.18-2H163.93z"/>
	</g>
</g>
<g id="Layer_11">
</g>
<g id="Layer_12">
</g>
<g id="Layer_13">
</g>
<g id="Layer_14">
</g>
<g id="Layer_15">
</g>
</svg>
