<?xml version="1.0" encoding="utf-8"?>
<!-- Generator: Adobe Illustrator 27.8.1, SVG Export Plug-In . SVG Version: 6.00 Build 0)  -->
<svg version="1.1" xmlns="http://www.w3.org/2000/svg" xmlns:xlink="http://www.w3.org/1999/xlink" x="0px" y="0px"
	 viewBox="0 0 350 230" style="enable-background:new 0 0 350 230;" xml:space="preserve">
<style type="text/css">
	.st0{fill-rule:evenodd;clip-rule:evenodd;fill:#009696;}
	.st1{fill-rule:evenodd;clip-rule:evenodd;fill:#1E87B8;}
	.st2{fill-rule:evenodd;clip-rule:evenodd;fill:#676766;}
	.st3{fill:#1E87B8;}
	.st4{fill:#181C21;}
	.st5{fill-rule:evenodd;clip-rule:evenodd;fill:#0091C6;}
	.st6{fill:#0047C4;}
	.st7{fill:#00194C;}
	.st8{fill:#00A8B5;}
	.st9{fill:#635901;}
	.st10{fill:#A03100;}
	.st11{fill:#0F4D4F;}
	.st12{fill:#303000;}
	.st13{fill:#666666;}
	.st14{fill:#6096A8;}
	.st15{fill:#493203;}
	.st16{fill:#0091C6;}
	.st17{fill:#0000A0;}
	.st18{fill:#300047;}
	.st19{fill:#032A54;}
	.st20{fill:#243F00;}
</style>
<g id="Layer_1">
</g>
<g id="Layer_2">
</g>
<g id="Layer_3">
</g>
<g id="Layer_4">
</g>
<g id="Layer_5">
</g>
<g id="Layer_6">
</g>
<g id="Layer_7">
</g>
<g id="Layer_8">
</g>
<g id="Layer_9">
	<g id="B">
		<path class="st11" d="M223.03,53.7c0,28.7,0,57.39,0,86.09c-0.23,0.11-0.45,0.22-0.68,0.33c-15.47,6.86-30.95,13.72-46.42,20.58
			c-0.19,0.08-0.36,0.21-0.54,0.31c-0.11,0-0.22,0-0.32,0c-0.22-0.11-0.44-0.24-0.67-0.34c-14.56-6.46-29.13-12.92-43.7-19.38
			c-1.24-0.55-2.48-1.08-3.72-1.62c0-28.62,0-57.25,0-85.87c0.17-0.06,0.34-0.1,0.51-0.17c15.69-6.95,31.38-13.91,47.07-20.87
			c0.17-0.08,0.33-0.2,0.5-0.3c0.07,0,0.14,0,0.22,0c0.2,0.11,0.4,0.23,0.61,0.33c11.7,5.19,23.39,10.38,35.08,15.56
			C214.99,50.15,219.01,51.92,223.03,53.7z M219.46,54.54c-0.26-0.12-0.42-0.2-0.58-0.28c-14.39-6.38-28.78-12.75-43.16-19.14
			c-0.38-0.17-0.69-0.17-1.07,0c-13.87,6.16-27.75,12.31-41.63,18.46c-0.67,0.3-1.35,0.6-2.11,0.94c0.28,0.14,0.48,0.24,0.69,0.33
			c14.32,6.35,28.65,12.7,42.96,19.06c0.45,0.2,0.81,0.19,1.26-0.01c14.33-6.37,28.67-12.72,43.01-19.08
			C219.01,54.76,219.19,54.67,219.46,54.54z M174.07,76.12c-0.14-0.07-0.26-0.14-0.39-0.2c-14.77-6.54-29.55-13.08-44.32-19.61
			c-0.01-0.01-0.04,0.01-0.05,0.02c-0.01,0.01-0.03,0.02-0.04,0.03c0,26.95,0,53.9,0,80.94c4.46-1.98,8.87-3.93,13.31-5.9
			c0-7.72,0-15.4,0-23.16c4.63,2.01,9.23,3.88,13.76,5.93c0,3.72,0,7.37,0,11.13c5.96-2.64,11.85-5.25,17.73-7.86
			C174.07,103.63,174.07,89.88,174.07,76.12z M216.31,132.68c-0.9,0.45-1.79,0.79-2.7,1.24c1.04,0.6,7.09,3.22,7.48,3.26
			c0-26.95,0-53.91,0-80.95c-14.99,6.64-29.91,13.26-44.82,19.87c0,0.29,0,0.5,0,0.72c0,13.28,0,26.56,0,39.85
			c0,0.13,0.01,0.25,0,0.38c-0.03,0.28,0.09,0.42,0.34,0.53c2.1,0.92,4.19,1.85,6.28,2.77c0.09,0.04,0.19,0.04,0.34,0.07
			c0-1.29,0-2.53,0-3.74c0.7-0.44,32.68-14.57,33.05-14.61c0,4.07,0,8.15,0,12.23c-3.91,1.74-7.8,3.46-11.69,5.19
			c-3.9,1.73-7.8,3.46-11.79,5.23c0.28,0.14,0.45,0.23,0.62,0.31c1.86,0.83,3.73,1.64,5.58,2.49c0.43,0.2,0.78,0.2,1.21,0.01
			c5.17-2.31,10.35-4.6,15.53-6.89c0.17-0.08,0.35-0.14,0.56-0.23C216.31,124.53,216.31,128.59,216.31,132.68z M176.33,119.84
			c-0.12,0.92-0.08,37.83,0.04,38.25c14.34-6.36,28.68-12.72,43.09-19.11c-0.24-0.12-0.4-0.2-0.56-0.27
			c-2.54-1.13-5.08-2.24-7.61-3.38c-0.35-0.16-0.62-0.15-0.96,0.01c-3.69,1.65-7.38,3.28-11.08,4.92
			c-5.14,2.28-10.28,4.56-15.43,6.84c-0.17,0.07-0.35,0.14-0.57,0.22c0-4.14,0-8.2,0-12.3c4.5-2,9.01-4,13.61-6.04
			c-0.23-0.12-0.36-0.2-0.5-0.26c-1.96-0.87-3.93-1.73-5.88-2.62c-0.31-0.14-0.56-0.13-0.86,0.01c-1.92,0.87-3.86,1.72-5.79,2.57
			c-0.17,0.08-0.35,0.14-0.59,0.24c0-2.05,0-4.01,0-6.01C180.96,121.9,178.67,120.88,176.33,119.84z M174.06,119.83
			c-5.94,2.63-11.83,5.25-17.72,7.85c0,7.55,0,15.05,0,22.59c5.89,2.61,11.78,5.22,17.72,7.85
			C174.06,145.33,174.06,132.62,174.06,119.83z M184.91,121.23c0.17,0.08,0.33,0.17,0.5,0.24c1.6,0.71,3.2,1.41,4.79,2.13
			c0.38,0.17,0.68,0.17,1.07,0c6.79-3.02,13.58-6.03,20.37-9.04c1-0.45,2.01-0.89,3.01-1.34c0-2.9,0-5.77,0-8.72
			c-9.96,4.42-19.86,8.81-29.74,13.18C184.91,118.91,184.91,120.07,184.91,121.23z M144.22,133.06c0,3.98,0,7.89,0,11.83
			c3.47,1.54,6.94,3.08,10.46,4.64c0-7.07,0-14.04,0-21.1C151.16,129.99,147.69,131.52,144.22,133.06z M184.91,144.74
			c0.55-0.11,23.45-10.29,23.74-10.55c-0.17-0.08-0.33-0.16-0.49-0.23c-2.9-1.29-5.81-2.57-8.7-3.87c-0.36-0.16-0.65-0.16-1.02,0
			c-4.35,1.94-8.7,3.87-13.05,5.8c-0.16,0.07-0.32,0.15-0.48,0.22C184.91,139.01,184.91,141.87,184.91,144.74z M144.22,130.66
			c3.53-1.57,7-3.1,10.46-4.64c0-3.62,0-7.19,0-10.83c-3.46-1.48-6.93-2.96-10.46-4.47C144.22,117.39,144.22,123.96,144.22,130.66z
			 M214.66,122.91c-4.35,1.93-8.62,3.83-12.98,5.76c0.26,0.13,0.42,0.21,0.59,0.28c1.15,0.51,2.31,1.02,3.46,1.53
			c1.78,0.79,3.56,1.58,5.34,2.37c0.21,0.09,0.41,0.2,0.67,0.08c0.97-0.44,1.94-0.87,2.92-1.31
			C214.66,128.74,214.66,125.88,214.66,122.91z M142.52,144.14c0.11-1.07,0.07-9.88-0.05-10.3c-3.83,1.7-7.65,3.39-11.59,5.14
			C134.82,140.73,138.64,142.42,142.52,144.14z M188.03,125.03c-1.1-0.49-2.08-0.92-3.11-1.38c0,0.94,0,1.8,0,2.75
			C185.95,125.95,186.92,125.52,188.03,125.03z M168.11,79.82c0,4.09,0,8.14,0,12.19c-0.03,0.02-0.04,0.03-0.05,0.04
			c-0.02,0.01-0.04,0.02-0.05,0.01c-0.14-0.05-0.27-0.09-0.4-0.15c-10.84-4.81-21.69-9.62-32.55-14.43c0-4.09,0-8.16,0-12.33
			C146.1,70.06,157.1,74.94,168.11,79.82z M136.73,67.7c-0.04,0.13-0.06,0.16-0.06,0.2c0,2.73,0,5.45-0.01,8.17
			c0,0.27,0.12,0.38,0.34,0.48c0.86,0.37,1.72,0.76,2.57,1.13c8.75,3.88,17.5,7.76,26.25,11.64c0.19,0.08,0.39,0.16,0.63,0.25
			c0-2.93,0-5.79,0-8.69C156.57,76.49,146.67,72.1,136.73,67.7z M168.11,110.54c-11.07-4.91-22.06-9.78-33.05-14.65
			c0-4.1,0-8.17,0-12.33c11.06,4.91,22.06,9.79,33.05,14.67C168.11,102.32,168.11,106.38,168.11,110.54z M136.69,86.09
			c0,2.97,0,5.83,0,8.72c9.91,4.39,19.81,8.78,29.76,13.19c0-2.95,0-5.81,0-8.72C156.57,94.9,146.67,90.51,136.69,86.09z
			 M216.31,83.56c0,4.15,0,8.21,0,12.33c-10.97,4.87-21.96,9.74-32.95,14.61c-0.13-0.43-0.18-11.1-0.07-12.3
			C194.25,93.34,205.24,88.47,216.31,83.56z M214.65,94.82c0-2.9,0-5.77,0-8.72c-9.96,4.41-19.85,8.8-29.73,13.18
			c0,2.91,0,5.77,0,8.72C194.87,103.59,204.76,99.2,214.65,94.82z M216.31,65.17c0,4.13,0,8.19,0,12.31
			c-10.97,4.87-21.96,9.74-33,14.63c-0.02-0.17-0.06-0.29-0.06-0.4c0-3.83,0-7.65-0.01-11.48c0-0.4,0.2-0.52,0.5-0.65
			c5.36-2.37,10.72-4.75,16.07-7.12c5.28-2.34,10.55-4.68,15.83-7.02C215.84,65.36,216.03,65.28,216.31,65.17z M214.67,67.68
			c-9.97,4.42-19.87,8.81-29.74,13.19c-0.11,1.09-0.06,8.28,0.07,8.69c9.9-4.39,19.79-8.78,29.67-13.16
			C214.67,73.49,214.67,70.65,214.67,67.68z"/>
		<path class="st12" d="M242.46,167.47c0,0.32-0.44,0.58-0.99,0.58H108.53c-0.55,0-0.99-0.26-0.99-0.58l0,0
			c0-0.32,0.44-0.58,0.99-0.58h132.93C242.01,166.89,242.46,167.15,242.46,167.47L242.46,167.47z"/>
	</g>
</g>
<g id="Layer_10">
</g>
<g id="Layer_11">
</g>
<g id="Layer_12">
</g>
<g id="Layer_13">
</g>
<g id="Layer_14">
</g>
<g id="Layer_15">
</g>
</svg>
