<?xml version="1.0" encoding="utf-8"?>
<!-- Generator: Adobe Illustrator 27.8.1, SVG Export Plug-In . SVG Version: 6.00 Build 0)  -->
<svg version="1.1" xmlns="http://www.w3.org/2000/svg" xmlns:xlink="http://www.w3.org/1999/xlink" x="0px" y="0px"
	 viewBox="0 0 350 230" style="enable-background:new 0 0 350 230;" xml:space="preserve">
<style type="text/css">
	.st0{fill-rule:evenodd;clip-rule:evenodd;fill:#009696;}
	.st1{fill-rule:evenodd;clip-rule:evenodd;fill:#1E87B8;}
	.st2{fill-rule:evenodd;clip-rule:evenodd;fill:#676766;}
	.st3{fill:#1E87B8;}
	.st4{fill:#181C21;}
	.st5{fill-rule:evenodd;clip-rule:evenodd;fill:#0091C6;}
	.st6{fill:#0047C4;}
	.st7{fill:#00194C;}
	.st8{fill:#00A8B5;}
	.st9{fill:#635901;}
	.st10{fill:#A03100;}
	.st11{fill:#0F4D4F;}
	.st12{fill:#303000;}
	.st13{fill:#666666;}
	.st14{fill:#6096A8;}
	.st15{fill:#493203;}
	.st16{fill:#0091C6;}
	.st17{fill:#0000A0;}
	.st18{fill:#300047;}
	.st19{fill:#032A54;}
	.st20{fill:#243F00;}
</style>
<g id="Layer_1">
</g>
<g id="Layer_2">
</g>
<g id="Layer_3">
</g>
<g id="Layer_4">
</g>
<g id="Layer_5">
</g>
<g id="Layer_6">
</g>
<g id="Layer_7">
</g>
<g id="Layer_8">
</g>
<g id="Layer_9">
</g>
<g id="Layer_10">
</g>
<g id="Layer_11">
</g>
<g id="Layer_12">
	<g id="C">
		<path class="st16" d="M276.27,149.78l-6.3-2.8V72.34l-18.25-7.3l-9.83,3.93V50.89l-22.5-9l-13.55,5.42V27.93L175,15.6
			l-30.84,12.33v19.13l-12.94-5.17l-22.5,9v18.09l-9.83-3.93l-18.25,7.3v74.37l-0.28,0.12l-6.64,2.95l-6.62,3l6.87-2.4l6.84-2.44
			l13.66-4.97l13.62-5.07c4.54-1.68,9.06-3.43,13.59-5.14c4.53-1.72,9.05-3.44,13.56-5.2l13.54-5.25c4.52-1.75,9.01-3.56,13.51-5.33
			l12.7-5.03l12.7,5.03l6.75,2.67l6.76,2.66l13.54,5.25c4.51,1.76,9.03,3.49,13.56,5.2c4.53,1.71,9.05,3.45,13.59,5.14l13.62,5.07
			l13.66,4.96l6.85,2.44l6.87,2.39L276.27,149.78z M107.05,135.29l-7.22,3.1V67.41l8.9,3.56v63.61
			C108.17,134.82,107.6,135.05,107.05,135.29z M133.84,124.06c-0.56,0.23-1.13,0.47-1.69,0.7V44.25l12.01,4.8v70.75L133.84,124.06z
			 M196,115.78l-6.73-2.72l-13.35-5.39V17.96l28.06,11.22v89.85l-1.25-0.52L196,115.78z M220.31,125.77V44.25l19.73,7.89v81.91
			c-3.49-1.48-6.98-2.94-10.47-4.41C226.49,128.34,223.4,127.05,220.31,125.77z M252.64,139.43V67.41l15.47,6.19v72.57l-11.8-5.16
			L252.64,139.43z"/>
		<polygon class="st17" points="175,124.81 177.9,133.73 187.27,133.73 179.69,139.24 182.58,148.15 175,142.64 167.42,148.15 
			170.31,139.24 162.73,133.73 172.1,133.73 		"/>
	</g>
</g>
<g id="Layer_13">
</g>
<g id="Layer_14">
</g>
<g id="Layer_15">
</g>
</svg>
