<?xml version="1.0" encoding="utf-8"?>
<!-- Generator: Adobe Illustrator 27.8.1, SVG Export Plug-In . SVG Version: 6.00 Build 0)  -->
<svg version="1.1" xmlns="http://www.w3.org/2000/svg" xmlns:xlink="http://www.w3.org/1999/xlink" x="0px" y="0px"
	 viewBox="0 0 350 230" style="enable-background:new 0 0 350 230;" xml:space="preserve">
<style type="text/css">
	.st0{fill-rule:evenodd;clip-rule:evenodd;fill:#009696;}
	.st1{fill-rule:evenodd;clip-rule:evenodd;fill:#1E87B8;}
	.st2{fill-rule:evenodd;clip-rule:evenodd;fill:#676766;}
	.st3{fill:#1E87B8;}
	.st4{fill:#181C21;}
	.st5{fill-rule:evenodd;clip-rule:evenodd;fill:#0091C6;}
	.st6{fill:#0047C4;}
	.st7{fill:#00194C;}
	.st8{fill:#00A8B5;}
	.st9{fill:#635901;}
	.st10{fill:#A03100;}
	.st11{fill:#0F4D4F;}
	.st12{fill:#303000;}
	.st13{fill:#666666;}
	.st14{fill:#6096A8;}
	.st15{fill:#493203;}
	.st16{fill:#0091C6;}
	.st17{fill:#0000A0;}
	.st18{fill:#300047;}
	.st19{fill:#032A54;}
	.st20{fill:#243F00;}
</style>
<g id="Layer_1">
</g>
<g id="Layer_2">
</g>
<g id="Layer_3">
	<g>
		<path class="st4" d="M147.63,116.33h20.99v20.99h-20.99V116.33z M182.51,137.32h21v-20.99h-21V137.32z M147.63,170.35h20.99
			v-20.99h-20.99V170.35z M182.51,170.35h21v-20.99h-21V170.35z"/>
		<path class="st4" d="M121.18,170.86c-1.51,0-2.99-0.57-4.12-1.66c-16.64-15.95-25.8-37.43-25.8-60.47
			c0-46.18,37.57-83.74,83.74-83.74c46.18,0,83.74,37.57,83.74,83.74c0,22.19-8.59,43.11-24.2,58.9c-1.7,1.72-4.26,2.24-6.5,1.32
			c-2.23-0.92-3.69-3.1-3.69-5.51v-42.35l-48.61-35.5l-48.61,35.5v43.81c0,2.39-1.42,4.54-3.62,5.48
			C122.77,170.7,121.97,170.86,121.18,170.86z M175,36.9c-39.61,0-71.83,32.22-71.83,71.83c0,14.46,4.21,28.21,12.06,39.9v-30.57
			c0-1.9,0.91-3.69,2.44-4.81l54.56-39.85c2.09-1.53,4.93-1.53,7.03,0l54.56,39.85c1.54,1.12,2.44,2.91,2.44,4.81v28.23
			c6.89-11.2,10.57-24.1,10.57-37.56C246.83,69.13,214.61,36.9,175,36.9z"/>
	</g>
</g>
<g id="Layer_4">
</g>
<g id="Layer_5">
</g>
<g id="Layer_6">
</g>
<g id="Layer_7">
</g>
<g id="Layer_8">
</g>
<g id="Layer_9">
</g>
<g id="Layer_10">
</g>
<g id="Layer_11">
</g>
<g id="Layer_12">
</g>
<g id="Layer_13">
</g>
<g id="Layer_14">
</g>
<g id="Layer_15">
</g>
</svg>
