<?xml version="1.0" encoding="utf-8"?>
<!-- Generator: Adobe Illustrator 27.8.1, SVG Export Plug-In . SVG Version: 6.00 Build 0)  -->
<svg version="1.1" xmlns="http://www.w3.org/2000/svg" xmlns:xlink="http://www.w3.org/1999/xlink" x="0px" y="0px"
	 viewBox="0 0 350 230" style="enable-background:new 0 0 350 230;" xml:space="preserve">
<style type="text/css">
	.st0{fill-rule:evenodd;clip-rule:evenodd;fill:#009696;}
	.st1{fill-rule:evenodd;clip-rule:evenodd;fill:#1E87B8;}
	.st2{fill-rule:evenodd;clip-rule:evenodd;fill:#676766;}
	.st3{fill:#1E87B8;}
	.st4{fill:#181C21;}
	.st5{fill-rule:evenodd;clip-rule:evenodd;fill:#0091C6;}
	.st6{fill:#0047C4;}
	.st7{fill:#00194C;}
	.st8{fill:#00A8B5;}
	.st9{fill:#635901;}
	.st10{fill:#A03100;}
	.st11{fill:#0F4D4F;}
	.st12{fill:#303000;}
	.st13{fill:#666666;}
	.st14{fill:#6096A8;}
	.st15{fill:#493203;}
	.st16{fill:#0091C6;}
	.st17{fill:#0000A0;}
	.st18{fill:#300047;}
	.st19{fill:#032A54;}
	.st20{fill:#243F00;}
</style>
<g id="Layer_1">
</g>
<g id="Layer_2">
	<g>
		<path class="st1" d="M272.17,131.27l-45.5-41.69l-45.5,41.69h-15.69l61.2-56.01l61.19,56.01H272.17z M172.92,49.14L123.61,94.5
			l14.15,1.43l35.16-32.36l33.79,30.87l14.03-0.74L172.92,49.14z"/>
		<path class="st2" d="M216.62,117.92h9.51v1.43c-3.15,0.4-6.3,0.91-9.51,1.43V117.92z M228.18,119.01c3.21-0.4,6.39-0.74,9.51-0.92
			v-0.17h-9.51V119.01z M104.25,120.27h9.51v-9.22h-9.51V120.27z M115.82,111.05h9.54v9.22h-9.54V111.05z M104.25,121.64h9.51v9.34
			h-9.51V121.64z M115.82,121.64h9.54v9.34h-9.54V121.64z M216.62,107.27h9.51v9.39h-9.51V107.27z M228.18,107.27h9.51v9.39h-9.51
			V107.27z M162.84,81.27h9.51v9.28h-9.51V81.27z M174.41,81.27h9.54v9.28h-9.54V81.27z M162.84,91.92h9.51v9.34h-9.51V91.92z
			 M174.41,101.26h9.54v-9.34h-9.54V101.26z"/>
		<path class="st3" d="M299.37,147.07c4.76,11,5.27,28.29,4.93,33.79l0,0c0-7.33-3.26-23.65-14.97-34.02
			c-53.78-47.88-205.46,21.93-237.9,11.8c-27.69-8.65,52.06-73.08,64.29-84.24l62.65,56.87
			C228.27,117.12,282.36,108.07,299.37,147.07L299.37,147.07z M165.7,134.93l-50-46.1l-44.36,40.55
			C42.6,159.21,145.89,140.89,165.7,134.93L165.7,134.93z"/>
	</g>
</g>
<g id="Layer_3">
</g>
<g id="Layer_4">
</g>
<g id="Layer_5">
</g>
<g id="Layer_6">
</g>
<g id="Layer_7">
</g>
<g id="Layer_8">
</g>
<g id="Layer_9">
</g>
<g id="Layer_10">
</g>
<g id="Layer_11">
</g>
<g id="Layer_12">
</g>
<g id="Layer_13">
</g>
<g id="Layer_14">
</g>
<g id="Layer_15">
</g>
</svg>
