<?xml version="1.0" encoding="utf-8"?>
<!-- Generator: Adobe Illustrator 27.8.1, SVG Export Plug-In . SVG Version: 6.00 Build 0)  -->
<svg version="1.1" xmlns="http://www.w3.org/2000/svg" xmlns:xlink="http://www.w3.org/1999/xlink" x="0px" y="0px"
	 viewBox="0 0 350 230" style="enable-background:new 0 0 350 230;" xml:space="preserve">
<style type="text/css">
	.st0{fill-rule:evenodd;clip-rule:evenodd;fill:#009696;}
	.st1{fill-rule:evenodd;clip-rule:evenodd;fill:#1E87B8;}
	.st2{fill-rule:evenodd;clip-rule:evenodd;fill:#676766;}
	.st3{fill:#1E87B8;}
	.st4{fill:#181C21;}
	.st5{fill-rule:evenodd;clip-rule:evenodd;fill:#0091C6;}
	.st6{fill:#0047C4;}
	.st7{fill:#00194C;}
	.st8{fill:#00A8B5;}
	.st9{fill:#635901;}
	.st10{fill:#A03100;}
	.st11{fill:#0F4D4F;}
	.st12{fill:#303000;}
	.st13{fill:#666666;}
	.st14{fill:#6096A8;}
	.st15{fill:#493203;}
	.st16{fill:#0091C6;}
	.st17{fill:#0000A0;}
	.st18{fill:#300047;}
	.st19{fill:#032A54;}
	.st20{fill:#243F00;}
</style>
<g id="Layer_1">
</g>
<g id="Layer_2">
</g>
<g id="Layer_3">
</g>
<g id="Layer_4">
	<g>
		<path class="st5" d="M311.2,137.07l-3.93,56.36l-6.02-55.84h-0.46c-22.91-10.67-37.64-29.07-49.56-50.9
			c-14.93,58-100.48,81.99-206.8,18.92l-0.26,0.19l0.06-0.62l93.61-11.26l29,35.58l-49.62-78.36L67.58,97.04l-11.91,1.54
			l58.23-52.83l-0.36-0.44l52.73-1.29l-0.26,9.54l5.3,2.31l1.7-18.72l15.84-0.57l-2.42,2.21l-0.85,0.94l-0.52,5.33l12.31-1.8
			l22.45,34.47l-30.18,1.64l67.43-0.61l-1.44,1.88l1.5-1.8c11.59,21.81,25.6,45.22,54.14,58.25H311.2z M112.92,71.43l-7.63,0.24
			l-0.75,7.58l7.66-0.26L112.92,71.43z M111.9,81.65l-7.63,0.2l-0.79,7.54l7.66-0.28L111.9,81.65z M122.21,81.28l-7.59,0.21
			l-0.72,7.54l7.53-0.26L122.21,81.28z M123.32,71.07l-7.56,0.28l-0.88,7.54l7.59-0.23L123.32,71.07z M250.72,116.54l-10.6,0.2
			l-1.11,10.7l10.6-0.46L250.72,116.54z M249.27,130.72l-10.6,0.33l-1.11,10.47l10.6-0.33L249.27,130.72z M263.68,130.2l-10.67,0.32
			L251.9,141l9.42-3.83L263.68,130.2z M265.12,116.02l-10.6,0.33l-1.18,10.57l10.67-0.36L265.12,116.02z"/>
	</g>
</g>
<g id="Layer_5">
</g>
<g id="Layer_6">
</g>
<g id="Layer_7">
</g>
<g id="Layer_8">
</g>
<g id="Layer_9">
</g>
<g id="Layer_10">
</g>
<g id="Layer_11">
</g>
<g id="Layer_12">
</g>
<g id="Layer_13">
</g>
<g id="Layer_14">
</g>
<g id="Layer_15">
</g>
</svg>
