<?xml version="1.0" encoding="utf-8"?>
<!-- Generator: Adobe Illustrator 27.8.1, SVG Export Plug-In . SVG Version: 6.00 Build 0)  -->
<svg version="1.1" xmlns="http://www.w3.org/2000/svg" xmlns:xlink="http://www.w3.org/1999/xlink" x="0px" y="0px"
	 viewBox="0 0 350 230" style="enable-background:new 0 0 350 230;" xml:space="preserve">
<style type="text/css">
	.st0{fill-rule:evenodd;clip-rule:evenodd;fill:#009696;}
	.st1{fill-rule:evenodd;clip-rule:evenodd;fill:#1E87B8;}
	.st2{fill-rule:evenodd;clip-rule:evenodd;fill:#676766;}
	.st3{fill:#1E87B8;}
	.st4{fill:#181C21;}
	.st5{fill-rule:evenodd;clip-rule:evenodd;fill:#0091C6;}
	.st6{fill:#0047C4;}
	.st7{fill:#00194C;}
	.st8{fill:#00A8B5;}
	.st9{fill:#635901;}
	.st10{fill:#A03100;}
	.st11{fill:#0F4D4F;}
	.st12{fill:#303000;}
	.st13{fill:#666666;}
	.st14{fill:#6096A8;}
	.st15{fill:#493203;}
	.st16{fill:#0091C6;}
	.st17{fill:#0000A0;}
	.st18{fill:#300047;}
	.st19{fill:#032A54;}
	.st20{fill:#243F00;}
</style>
<g id="Layer_1">
</g>
<g id="Layer_2">
</g>
<g id="Layer_3">
</g>
<g id="Layer_4">
</g>
<g id="Layer_5">
</g>
<g id="Layer_6">
	<path class="st8" d="M180.86,10.95h-0.41V36.4c9.47,8.45,23.5,20.98,45.33,40.46V51.05C204.27,31.85,190.33,19.4,180.86,10.95z
		 M168.66,37.27c-9.47,8.45-23.41,20.89-44.92,40.1v25.81c21.83-19.49,35.85-32.01,45.33-40.47V37.27H168.66z"/>
	<path class="st4" d="M291.78,169.67c-0.42-0.16-3.93-1.53-9.74-3.98c-3.06-1.43-6.94-2.55-11.27-4.17
		c-4.29-1.67-9.32-3.01-14.73-4.65c-1.35-0.4-2.72-0.82-4.13-1.23c-1.43-0.34-2.89-0.67-4.37-1.02c-2.94-0.71-5.99-1.45-9.12-2.2
		c-3.14-0.72-6.41-1.19-9.71-1.82c-3.33-0.57-6.69-1.31-10.17-1.65c-3.46-0.45-6.98-0.92-10.54-1.38c-3.57-0.38-7.2-0.56-10.85-0.88
		c-1.82-0.15-3.65-0.3-5.49-0.45c-1.84-0.08-3.68-0.08-5.53-0.15c-3.7-0.1-7.41-0.2-11.13-0.29c-3.73,0.1-7.45,0.19-11.17,0.3
		c-1.87,0.06-3.75,0.07-5.59,0.16c-1.83,0.14-3.64,0.29-5.45,0.44c-3.63,0.32-7.22,0.5-10.79,0.88c-3.56,0.46-7.07,0.93-10.54,1.38
		c-3.48,0.34-6.84,1.09-10.16,1.66c-3.31,0.62-6.58,1.1-9.72,1.81c-3.13,0.76-6.17,1.5-9.12,2.21c-1.48,0.34-2.93,0.68-4.36,1.01
		c-1.41,0.42-2.79,0.83-4.14,1.24c-5.41,1.63-10.43,2.97-14.75,4.65c-4.33,1.61-8.22,2.75-11.26,4.16
		c-5.78,2.43-9.31,3.81-9.73,3.97c0.38-0.25,3.61-2.31,9.1-5.65c2.89-1.88,6.61-3.64,10.83-5.78c1.07-0.53,2.16-1.08,3.29-1.64
		c0.56-0.29,1.13-0.57,1.71-0.87c0.59-0.24,1.19-0.5,1.8-0.76c2.45-1,5.02-2.04,7.7-3.15c1.35-0.54,2.72-1.1,4.12-1.67
		c1.42-0.48,2.87-0.97,4.34-1.47c2.96-0.95,6.02-1.94,9.17-2.95c3.17-0.95,6.47-1.68,9.82-2.56c1.2-0.31,2.41-0.62,3.64-0.91v-25.93
		c21.51-19.2,35.45-31.64,44.92-40.1h0.41v60.58c1.98-0.07,3.95-0.14,5.93-0.2c1.82,0.06,3.64,0.12,5.45,0.18V49.92h0.41
		c9.47,8.45,23.41,20.9,44.92,40.1v52.14c1.39,0.33,2.76,0.68,4.12,1.03c3.35,0.88,6.65,1.6,9.82,2.55c3.14,1.02,6.2,2,9.17,2.96
		c1.47,0.49,2.92,0.99,4.34,1.47c1.4,0.56,2.77,1.12,4.12,1.67c2.68,1.09,5.25,2.14,7.69,3.15c0.61,0.25,1.22,0.51,1.81,0.76
		c0.58,0.29,1.15,0.58,1.72,0.86c1.13,0.56,2.23,1.11,3.29,1.64c4.24,2.15,7.96,3.91,10.83,5.79
		C288.16,167.35,291.4,169.42,291.78,169.67z"/>
</g>
<g id="Layer_7">
</g>
<g id="Layer_8">
</g>
<g id="Layer_9">
</g>
<g id="Layer_10">
</g>
<g id="Layer_11">
</g>
<g id="Layer_12">
</g>
<g id="Layer_13">
</g>
<g id="Layer_14">
</g>
<g id="Layer_15">
</g>
</svg>
