<?xml version="1.0" encoding="utf-8"?>
<!-- Generator: Adobe Illustrator 27.8.1, SVG Export Plug-In . SVG Version: 6.00 Build 0)  -->
<svg version="1.1" xmlns="http://www.w3.org/2000/svg" xmlns:xlink="http://www.w3.org/1999/xlink" x="0px" y="0px"
	 viewBox="0 0 350 230" style="enable-background:new 0 0 350 230;" xml:space="preserve">
<style type="text/css">
	.st0{fill:#DDDDDD;}
	.st1{fill:#F7931E;}
	.st2{fill:#604F3E;}
	.st3{fill:#2B5C8E;}
	.st4{fill:#328DD8;}
	.st5{fill:#3A99CE;}
	.st6{fill:#6CAEE5;}
	.st7{fill:#8299A8;}
	.st8{fill:#117ABA;}
	.st9{fill:#64B9E8;}
	.st10{fill:#1D4656;}
	.st11{fill:#2491EB;}
	.st12{clip-path:url(#SVGID_00000158735964323443421200000012509392940496112000_);fill:#2491EB;}
	.st13{fill-rule:evenodd;clip-rule:evenodd;fill:#64B9E8;}
	.st14{fill-rule:evenodd;clip-rule:evenodd;fill:#083D6D;}
	.st15{clip-path:url(#SVGID_00000110448461696271654210000014130872972965696153_);fill:#1C73C0;}
	.st16{clip-path:url(#SVGID_00000119108637858995799170000000615699963945121724_);fill:#2491EB;}
	.st17{fill:#FFFFFF;}
	.st18{fill:#2489B5;}
	.st19{fill:#004C85;}
	.st20{fill:#0EB0CC;}
	.st21{fill:#1C75BC;}
	.st22{fill-rule:evenodd;clip-rule:evenodd;fill:#231916;}
	.st23{fill-rule:evenodd;clip-rule:evenodd;fill:#008BD5;}
	.st24{fill:#26B1C1;}
	.st25{fill:#002A30;}
	.st26{fill:#07A8CC;}
</style>
<g id="Layer_1">
	<path class="st5" d="M142.63,124.74c-0.07-0.22-0.13-0.45-0.19-0.67l-0.1-0.35c-0.08-0.28-0.15-0.57-0.21-0.86
		c-0.05-0.2-0.09-0.4-0.14-0.6c-0.06-0.27-0.12-0.53-0.17-0.8c-0.05-0.26-0.1-0.52-0.14-0.79c-0.05-0.28-0.1-0.57-0.14-0.85
		c-0.06-0.39-0.11-0.79-0.15-1.19c-0.02-0.15-0.05-0.55-0.05-0.55c-0.03-0.35-0.06-0.7-0.08-1.05c0,0-0.02-0.37-0.03-0.49
		c-0.02-0.51-0.04-1.03-0.04-1.55h-11.85C132.34,117.62,136.92,121.28,142.63,124.74z"/>
	<path class="st5" d="M208.78,116.54c-0.01,0.13-0.03,0.51-0.03,0.51c-0.02,0.35-0.05,0.7-0.08,1.04c0,0-0.04,0.41-0.05,0.56
		c-0.04,0.4-0.09,0.79-0.15,1.18c-0.04,0.28-0.09,0.57-0.14,0.85c-0.05,0.26-0.09,0.53-0.14,0.79c-0.05,0.27-0.11,0.54-0.17,0.8
		c-0.04,0.2-0.09,0.4-0.14,0.6c-0.07,0.29-0.14,0.57-0.21,0.86l-0.1,0.34c-0.06,0.22-0.13,0.45-0.19,0.67
		c5.7-3.47,10.29-7.12,13.29-9.74h-11.85C208.81,115.52,208.8,116.03,208.78,116.54z"/>
	<path class="st6" d="M170.76,108.51c0,1.3,0.59,2.47,1.51,3.24l-2.77,13.97h10.99l-2.77-13.97c0.92-0.78,1.51-1.94,1.51-3.24
		c0-2.34-1.9-4.24-4.24-4.24C172.66,104.28,170.76,106.17,170.76,108.51z"/>
	<path class="st7" d="M198.01,115c0-11.05-7.83-20.31-18.24-22.51v4.28c8.09,2.12,14.07,9.49,14.07,18.23
		c0,10.39-8.46,18.85-18.85,18.85c-10.39,0-18.85-8.46-18.85-18.85c0-8.09,5.13-15,12.3-17.67c0.73,0.63,1.68,1.01,2.72,1.01
		c2.3,0,4.17-1.86,4.17-4.17c0-2.3-1.86-4.17-4.17-4.17c-2.03,0-3.73,1.46-4.09,3.39c-8.8,3.24-15.09,11.69-15.09,21.6
		c0,12.69,10.32,23.02,23.01,23.02C187.69,138.01,198.01,127.69,198.01,115z"/>
	<path class="st5" d="M229.52,113.7c-0.6-0.63-14.8-15.4-35.04-22.26c-5.3-4.39-12.09-7.03-19.49-7.03c-7.4,0-14.19,2.64-19.49,7.03
		c-20.24,6.86-34.44,21.63-35.04,22.26l-1.24,1.3l1.24,1.3c0.6,0.63,14.8,15.4,35.04,22.26c5.3,4.39,12.09,7.03,19.49,7.03
		c7.4,0,14.19-2.64,19.49-7.03c20.24-6.86,34.44-21.63,35.04-22.26l1.24-1.3L229.52,113.7z M149.69,97.83
		c-0.13,0.2-0.26,0.4-0.39,0.6c-0.1,0.15-0.2,0.3-0.29,0.45c-0.13,0.22-0.27,0.44-0.4,0.66c-0.09,0.15-0.17,0.3-0.26,0.45
		c-0.13,0.23-0.26,0.46-0.38,0.69c-0.07,0.12-0.13,0.25-0.19,0.37c-0.25,0.48-0.48,0.97-0.71,1.47c-0.05,0.1-0.09,0.2-0.14,0.3
		c-0.11,0.26-0.22,0.52-0.33,0.79c-0.05,0.14-0.11,0.27-0.16,0.41c-0.1,0.26-0.2,0.53-0.3,0.8c-0.04,0.12-0.08,0.25-0.13,0.37
		c-0.17,0.51-0.33,1.03-0.48,1.55c-0.03,0.12-0.07,0.25-0.11,0.37c-0.07,0.25-0.13,0.5-0.19,0.75c-0.04,0.19-0.09,0.37-0.13,0.56
		c-0.05,0.24-0.1,0.47-0.15,0.71c-0.05,0.25-0.09,0.49-0.13,0.74c-0.04,0.24-0.08,0.48-0.12,0.73c-0.05,0.36-0.1,0.73-0.14,1.1
		c-0.02,0.17-0.03,0.33-0.05,0.5c-0.03,0.32-0.05,0.63-0.07,0.95c-0.01,0.15-0.02,0.3-0.03,0.45c-0.02,0.46-0.04,0.93-0.04,1.4
		c0,0.47,0.01,0.93,0.04,1.4c0.01,0.15,0.02,0.3,0.03,0.45c0.02,0.32,0.04,0.63,0.07,0.95c0.02,0.17,0.03,0.34,0.05,0.51
		c0.04,0.36,0.09,0.72,0.14,1.07c0.04,0.26,0.08,0.51,0.12,0.77c0.04,0.24,0.08,0.48,0.13,0.72c0.05,0.24,0.1,0.48,0.15,0.72
		c0.04,0.18,0.08,0.36,0.13,0.54c0.06,0.26,0.12,0.52,0.19,0.77c0.03,0.1,0.06,0.21,0.09,0.31c0.15,0.55,0.32,1.1,0.51,1.63
		c0.04,0.11,0.07,0.22,0.11,0.33c0.1,0.27,0.2,0.55,0.3,0.82c0.05,0.13,0.1,0.25,0.15,0.38c0.11,0.27,0.22,0.54,0.34,0.81
		c0.04,0.08,0.07,0.16,0.11,0.24c0.24,0.53,0.49,1.05,0.75,1.56c0.06,0.11,0.11,0.22,0.17,0.33c0.13,0.24,0.26,0.47,0.39,0.71
		c0.08,0.14,0.16,0.29,0.25,0.43c0.13,0.22,0.27,0.45,0.4,0.67c0.09,0.15,0.18,0.29,0.28,0.43c0.13,0.21,0.26,0.41,0.4,0.62
		c-12.46-5.73-21.81-14-25.14-17.17C127.88,111.83,137.24,103.57,149.69,97.83z M158.07,135.76l-0.37-0.31
		c-0.37-0.32-0.74-0.64-1.09-0.98c-0.01-0.01-0.01-0.01-0.02-0.02c-0.34-0.33-0.68-0.66-1-1c-0.02-0.02-0.03-0.03-0.05-0.05
		c-0.32-0.34-0.64-0.69-0.94-1.05c-0.01-0.01-0.02-0.02-0.02-0.03c-1.57-1.84-2.87-3.88-3.88-6.05c-0.01-0.02-0.02-0.04-0.03-0.07
		c-0.19-0.4-0.36-0.81-0.53-1.22c-0.02-0.05-0.04-0.09-0.05-0.14c-0.15-0.39-0.3-0.78-0.44-1.18c-0.02-0.06-0.04-0.12-0.06-0.18
		c-0.13-0.38-0.25-0.77-0.36-1.16c-0.02-0.07-0.04-0.14-0.06-0.21c-0.11-0.38-0.2-0.76-0.29-1.15c-0.02-0.08-0.04-0.16-0.06-0.25
		c-0.08-0.37-0.15-0.75-0.22-1.13c-0.02-0.09-0.04-0.19-0.05-0.28c-0.06-0.37-0.11-0.74-0.15-1.11c-0.01-0.11-0.03-0.21-0.04-0.32
		c-0.04-0.37-0.07-0.74-0.09-1.12c-0.01-0.11-0.02-0.21-0.02-0.32c-0.03-0.48-0.04-0.96-0.04-1.44c0-0.48,0.01-0.96,0.04-1.44
		c0.01-0.11,0.02-0.21,0.02-0.32c0.02-0.37,0.05-0.75,0.09-1.12c0.01-0.11,0.03-0.21,0.04-0.32c0.04-0.37,0.09-0.74,0.15-1.11
		c0.02-0.09,0.03-0.19,0.05-0.28c0.07-0.38,0.14-0.76,0.22-1.13c0.02-0.08,0.04-0.16,0.06-0.25c0.09-0.39,0.18-0.77,0.29-1.15
		c0.02-0.07,0.04-0.14,0.06-0.21c0.11-0.39,0.23-0.78,0.36-1.16c0.02-0.06,0.04-0.12,0.06-0.18c0.14-0.4,0.28-0.79,0.44-1.18
		c0.02-0.05,0.04-0.09,0.05-0.14c0.17-0.41,0.34-0.82,0.53-1.23c0.01-0.02,0.02-0.04,0.03-0.06c1.01-2.17,2.31-4.2,3.88-6.05
		c0.01-0.01,0.01-0.02,0.02-0.02c0.3-0.36,0.62-0.71,0.94-1.05c0.02-0.02,0.03-0.03,0.05-0.05c0.33-0.34,0.66-0.68,1-1
		c0.01-0.01,0.01-0.01,0.02-0.02c0.35-0.34,0.72-0.66,1.09-0.98l0.37-0.31c4.62-3.77,10.51-6.04,16.93-6.04
		c6.42,0,12.31,2.27,16.93,6.04l0.37,0.31c0.37,0.32,0.74,0.64,1.09,0.98c0.01,0.01,0.01,0.01,0.02,0.02c0.34,0.33,0.68,0.66,1,1
		c0.02,0.02,0.03,0.03,0.05,0.05c0.32,0.34,0.64,0.69,0.94,1.05c0.01,0.01,0.01,0.02,0.02,0.02c1.57,1.84,2.87,3.88,3.88,6.05
		c0.01,0.02,0.02,0.04,0.03,0.06c0.19,0.4,0.36,0.81,0.53,1.23c0.02,0.04,0.04,0.09,0.05,0.14c0.16,0.39,0.3,0.79,0.44,1.18
		c0.02,0.06,0.04,0.12,0.06,0.18c0.13,0.39,0.25,0.77,0.36,1.16c0.02,0.07,0.04,0.14,0.06,0.21c0.11,0.38,0.2,0.76,0.29,1.15
		c0.02,0.08,0.04,0.16,0.06,0.25c0.08,0.37,0.15,0.75,0.22,1.13c0.02,0.09,0.04,0.19,0.05,0.28c0.06,0.37,0.11,0.74,0.15,1.11
		c0.01,0.11,0.03,0.21,0.04,0.32c0.04,0.37,0.07,0.74,0.09,1.12c0.01,0.11,0.02,0.21,0.02,0.32c0.03,0.48,0.04,0.96,0.04,1.44
		c0,0.48-0.01,0.96-0.04,1.44c-0.01,0.11-0.02,0.21-0.02,0.32c-0.02,0.37-0.05,0.75-0.09,1.12c-0.01,0.11-0.03,0.21-0.04,0.32
		c-0.04,0.37-0.09,0.74-0.15,1.11c-0.02,0.1-0.03,0.19-0.05,0.29c-0.07,0.38-0.14,0.75-0.22,1.13c-0.02,0.08-0.04,0.17-0.06,0.25
		c-0.09,0.38-0.18,0.77-0.29,1.15c-0.02,0.07-0.04,0.15-0.06,0.22c-0.11,0.39-0.23,0.78-0.36,1.16c-0.02,0.06-0.04,0.12-0.06,0.19
		c-0.14,0.4-0.28,0.79-0.43,1.18c-0.02,0.05-0.04,0.1-0.06,0.14c-0.17,0.41-0.34,0.81-0.53,1.22c-0.01,0.02-0.02,0.05-0.03,0.07
		c-1.01,2.17-2.31,4.2-3.88,6.04c-0.01,0.01-0.02,0.02-0.03,0.03c-0.3,0.36-0.62,0.7-0.94,1.04c-0.02,0.02-0.03,0.03-0.05,0.05
		c-0.32,0.34-0.66,0.68-1,1c-0.01,0.01-0.01,0.01-0.02,0.02c-0.35,0.34-0.72,0.66-1.09,0.98l-0.37,0.31
		c-4.62,3.77-10.51,6.04-16.93,6.04C168.58,141.8,162.69,139.53,158.07,135.76z M200.31,132.17c0.14-0.2,0.27-0.41,0.4-0.61
		c0.09-0.15,0.19-0.29,0.28-0.44c0.14-0.22,0.27-0.44,0.4-0.67c0.08-0.14,0.17-0.29,0.25-0.43c0.13-0.23,0.26-0.47,0.39-0.71
		c0.06-0.11,0.12-0.23,0.17-0.34c0.26-0.51,0.51-1.02,0.74-1.54c0.04-0.08,0.08-0.17,0.11-0.25c0.12-0.27,0.23-0.54,0.33-0.81
		c0.05-0.13,0.1-0.25,0.15-0.38c0.1-0.27,0.21-0.54,0.3-0.82c0.04-0.11,0.07-0.22,0.11-0.33c0.18-0.54,0.35-1.08,0.51-1.63
		c0.03-0.1,0.06-0.21,0.09-0.31c0.07-0.26,0.13-0.51,0.19-0.77c0.04-0.18,0.09-0.36,0.13-0.54c0.05-0.24,0.1-0.48,0.15-0.72
		c0.05-0.24,0.09-0.48,0.13-0.72c0.04-0.25,0.09-0.51,0.12-0.77c0.05-0.36,0.1-0.71,0.14-1.07c0.02-0.17,0.03-0.34,0.05-0.51
		c0.03-0.31,0.05-0.63,0.07-0.95c0.01-0.15,0.02-0.3,0.03-0.45c0.02-0.46,0.04-0.93,0.04-1.4c0-0.47-0.01-0.93-0.04-1.4
		c-0.01-0.15-0.02-0.3-0.03-0.45c-0.02-0.32-0.04-0.63-0.07-0.95c-0.02-0.17-0.03-0.34-0.05-0.51c-0.04-0.36-0.09-0.72-0.14-1.08
		c-0.04-0.26-0.08-0.51-0.12-0.76c-0.04-0.24-0.08-0.48-0.13-0.72c-0.05-0.24-0.1-0.48-0.15-0.72c-0.04-0.18-0.08-0.36-0.13-0.54
		c-0.06-0.26-0.12-0.52-0.19-0.77c-0.03-0.11-0.06-0.21-0.09-0.31c-0.15-0.55-0.32-1.09-0.5-1.63c-0.04-0.11-0.07-0.22-0.11-0.34
		c-0.1-0.27-0.2-0.54-0.3-0.81c-0.05-0.13-0.1-0.26-0.15-0.38c-0.11-0.27-0.22-0.54-0.33-0.8c-0.04-0.09-0.08-0.18-0.12-0.27
		c-0.23-0.51-0.47-1.02-0.73-1.52c-0.06-0.12-0.12-0.24-0.18-0.36c-0.12-0.23-0.25-0.47-0.39-0.7c-0.08-0.15-0.17-0.3-0.26-0.44
		c-0.13-0.22-0.26-0.44-0.4-0.66c-0.09-0.15-0.19-0.3-0.29-0.45c-0.13-0.2-0.26-0.4-0.39-0.6c12.46,5.73,21.81,14,25.14,17.17
		C222.12,118.17,212.76,126.43,200.31,132.17z"/>
</g>
<g id="Layer_2">
</g>
<g id="Layer_3">
</g>
<g id="Layer_4">
</g>
<g id="Layer_5">
</g>
<g id="Layer_6">
</g>
<g id="Layer_7">
</g>
<g id="Layer_8">
</g>
<g id="Layer_9">
</g>
<g id="Layer_10">
</g>
<g id="Layer_11">
</g>
<g id="Layer_12">
</g>
<g id="Layer_13">
</g>
<g id="Layer_14">
</g>
<g id="Layer_15">
</g>
</svg>
