<?xml version="1.0" encoding="utf-8"?>
<!-- Generator: Adobe Illustrator 27.8.1, SVG Export Plug-In . SVG Version: 6.00 Build 0)  -->
<svg version="1.1" xmlns="http://www.w3.org/2000/svg" xmlns:xlink="http://www.w3.org/1999/xlink" x="0px" y="0px"
	 viewBox="0 0 350 230" style="enable-background:new 0 0 350 230;" xml:space="preserve">
<style type="text/css">
	.st0{fill:#DDDDDD;}
	.st1{fill:#F7931E;}
	.st2{fill:#604F3E;}
	.st3{fill:#2B5C8E;}
	.st4{fill:#328DD8;}
	.st5{fill:#3A99CE;}
	.st6{fill:#6CAEE5;}
	.st7{fill:#8299A8;}
	.st8{fill:#117ABA;}
	.st9{fill:#64B9E8;}
	.st10{fill:#1D4656;}
	.st11{fill:#2491EB;}
	.st12{clip-path:url(#SVGID_00000111909778394381724130000017497534187352230784_);fill:#2491EB;}
	.st13{fill-rule:evenodd;clip-rule:evenodd;fill:#64B9E8;}
	.st14{fill-rule:evenodd;clip-rule:evenodd;fill:#083D6D;}
	.st15{clip-path:url(#SVGID_00000044856107015371472990000001669569191204343686_);fill:#1C73C0;}
	.st16{clip-path:url(#SVGID_00000104691428534811830730000008305364178200509091_);fill:#2491EB;}
	.st17{fill:#FFFFFF;}
	.st18{fill:#2489B5;}
	.st19{fill:#004C85;}
	.st20{fill:#0EB0CC;}
	.st21{fill:#1C75BC;}
	.st22{fill-rule:evenodd;clip-rule:evenodd;fill:#231916;}
	.st23{fill-rule:evenodd;clip-rule:evenodd;fill:#008BD5;}
	.st24{fill:#26B1C1;}
	.st25{fill:#002A30;}
	.st26{fill:#07A8CC;}
</style>
<g id="Layer_1">
	<path class="st26" d="M186.97,113.2c-0.01-1.39-0.78-2.66-1.91-3.42l-1.06,8.88v0.74l3-2.2C187,115.86,186.99,114.53,186.97,113.2z
		 M183.93,127.32c-0.12,0.63-0.44,0.96-1.06,1.1l-2.98,3.06c0.97,0,1.95-0.01,2.92-0.02c2.27-0.02,4.14-1.93,4.16-4.19
		c0.01-1.03,0.02-2.06,0.03-3.09L183.93,127.32z M174.95,128.49c-2.38,0-4.75,0.01-7.13,0c-0.15,0-0.28-0.01-0.41-0.02l-2.45,2.3
		c0.63,0.43,1.39,0.68,2.2,0.69c2.9,0.03,5.8,0.05,8.7,0.04l0.22-3.01H174.95z M214.44,95.97l-11.78,15.75
		c-1.65,16.27-12.47,29.83-27.22,35.42c-6.24-2.36-11.77-6.15-16.21-10.97l5.73-5.4c-1.15-0.76-1.92-2.07-1.93-3.53
		c-0.03-2.35-0.04-4.7-0.03-7.05l-20.79,13.38c6.51,11.62,18.94,19.47,33.21,19.47c21.01,0,38.04-17.03,38.04-38.04
		c0-4.11-0.65-8.07-1.86-11.78L214.44,95.97z M187,124.18l23.43-24.09c-5.8-13.6-19.29-23.13-35.01-23.13
		c-21.01,0-38.05,17.03-38.05,38.04c0,4.98,0.96,9.73,2.7,14.08l-4.51,8.77l14.98-15.94c-1.64-4.53-2.54-9.42-2.54-14.52
		c0-4.68,0.76-9.19,2.16-13.4c3.13,2.72,7.22,4.36,11.69,4.36c5.44,0,10.31-2.43,13.59-6.27c3.27,3.84,8.15,6.27,13.59,6.27
		c4.47,0,8.56-1.64,11.69-4.36c1.22,3.68,1.95,7.58,2.12,11.63L187,117.2C187.01,119.53,187.01,121.85,187,124.18z M182.46,107.68
		c-0.02,0.4-0.03,0.8-0.03,1.2c0.44,0.09,0.74,0.16,1.05,0.22c0.57,0.12,1.11,0.35,1.58,0.68l0.49-4.09L182.46,107.68z
		 M175.86,131.5l-0.32,4.45l4.35-4.47C178.54,131.49,177.2,131.5,175.86,131.5z"/>
	<path class="st26" d="M179.23,117.95c-0.75-2.07-2.83-3.27-5.04-2.89c-2.12,0.37-3.68,2.23-3.7,4.48c0.07,1.62,0.78,2.97,2.28,3.83
		c0.01,0.01,0.02,0.01,0.03,0.02c0.41,0.23,0.7,0.45,0.79,0.99c0.12,0.71,0.66,1.09,1.39,1.1c0.69,0.01,1.23-0.31,1.39-0.95
		c0.01-0.03,0.02-0.07,0.03-0.11c0.1-0.58,0.42-0.81,0.87-1.07C179.15,122.28,179.96,120,179.23,117.95z M175.42,120.92
		c-0.15,0.05-0.3,0.07-0.46,0.07c-0.79-0.02-1.43-0.66-1.44-1.46c-0.02-0.84,0.63-1.5,1.47-1.51c0.85,0,1.5,0.65,1.49,1.49
		c0,0.18-0.04,0.35-0.1,0.51C176.22,120.46,175.87,120.8,175.42,120.92z"/>
	<path class="st26" d="M182.41,105.07c-0.41-3.8-3.61-6.59-7.44-6.57c-3.79,0.01-6.97,2.78-7.38,6.54
		c-0.14,1.27-0.02,2.57-0.02,3.85c-0.42,0.09-0.67,0.14-0.93,0.19c-2.05,0.4-3.6,2.11-3.61,4.18c-0.02,2.31-0.03,4.63-0.03,6.93
		c-0.01,2.35,0,4.7,0.03,7.05c0.01,1.46,0.78,2.77,1.93,3.53l2.45-2.3c-1.01-0.1-1.4-0.63-1.4-1.78c-0.01-2.81-0.01-5.62-0.01-8.43
		c0-1.47,0-2.95,0.01-4.42c0-1.34,0.51-1.85,1.87-1.86c2.64-0.01,5.28-0.01,7.91-0.01l6.67-4.29
		C182.48,106.79,182.51,105.92,182.41,105.07z M179.43,108.93h-9.01c0.08-1.4,0-2.79,0.26-4.12c0.42-2.1,2.46-3.43,4.68-3.3
		c2.04,0.13,3.82,1.7,4.04,3.75C179.54,106.44,179.43,107.65,179.43,108.93z"/>
</g>
<g id="Layer_2">
</g>
<g id="Layer_3">
</g>
<g id="Layer_4">
</g>
<g id="Layer_5">
</g>
<g id="Layer_6">
</g>
<g id="Layer_7">
</g>
<g id="Layer_8">
</g>
<g id="Layer_9">
</g>
<g id="Layer_10">
</g>
<g id="Layer_11">
</g>
<g id="Layer_12">
</g>
<g id="Layer_13">
</g>
<g id="Layer_14">
</g>
<g id="Layer_15">
</g>
</svg>
