<?xml version="1.0" encoding="utf-8"?>
<!-- Generator: Adobe Illustrator 27.8.1, SVG Export Plug-In . SVG Version: 6.00 Build 0)  -->
<svg version="1.1" xmlns="http://www.w3.org/2000/svg" xmlns:xlink="http://www.w3.org/1999/xlink" x="0px" y="0px"
	 viewBox="0 0 350 230" style="enable-background:new 0 0 350 230;" xml:space="preserve">
<style type="text/css">
	.st0{fill:#DDDDDD;}
	.st1{fill:#F7931E;}
	.st2{fill:#604F3E;}
	.st3{fill:#2B5C8E;}
	.st4{fill:#328DD8;}
	.st5{fill:#3A99CE;}
	.st6{fill:#6CAEE5;}
	.st7{fill:#8299A8;}
	.st8{fill:#117ABA;}
	.st9{fill:#64B9E8;}
	.st10{fill:#1D4656;}
	.st11{fill:#2491EB;}
	.st12{clip-path:url(#SVGID_00000130639486703726236780000010815723938511526327_);fill:#2491EB;}
	.st13{fill-rule:evenodd;clip-rule:evenodd;fill:#64B9E8;}
	.st14{fill-rule:evenodd;clip-rule:evenodd;fill:#083D6D;}
	.st15{clip-path:url(#SVGID_00000002385370842891839030000016322253679309713335_);fill:#1C73C0;}
	.st16{clip-path:url(#SVGID_00000094586045083681211620000003601090473686938754_);fill:#2491EB;}
	.st17{fill:#FFFFFF;}
	.st18{fill:#2489B5;}
	.st19{fill:#004C85;}
	.st20{fill:#0EB0CC;}
	.st21{fill:#1C75BC;}
	.st22{fill-rule:evenodd;clip-rule:evenodd;fill:#231916;}
	.st23{fill-rule:evenodd;clip-rule:evenodd;fill:#008BD5;}
	.st24{fill:#26B1C1;}
	.st25{fill:#002A30;}
	.st26{fill:#07A8CC;}
</style>
<g id="Layer_1">
	<path class="st21" d="M207.37,86.33c-8.53-5.92-18.64-9.5-29.01-10.15c4.54,3.18,8.96,6.58,12.67,10.71
		c2.23,2.7,5.73,3.71,8.49,5.72c1.37,5,1.7,10.21,1.36,15.37c-8.58-20.19-27.93-35.41-49.74-38.37c9.66,3.2,18.74,8.35,25.99,15.54
		c10.51,10.15,17.25,24,18.96,38.49c-4.3,7.98-11.14,14.56-19.32,18.48c-0.78,0.3-1.61,0.96-2.45,0.45
		c-5.04-2.15-9.55-5.46-13.41-9.33c5.92-2.34,11.8-4.74,17.73-7.02c2.41,1.59,6.08,1.38,7.52-1.39c2.01-3.13-0.83-7.65-4.51-7.23
		c-2.49,0.04-4.02,2.2-4.69,4.35c-6.37,2.63-12.78,5.15-19.19,7.69c-1.63-2.25-3.1-4.6-4.41-7.04c5.79-2.27,11.54-4.63,17.34-6.84
		c2.37,1.49,5.87,1.41,7.42-1.2c2.16-3.06-0.52-7.77-4.25-7.44c-2.6-0.06-4.18,2.23-4.94,4.42c-5.78,2.32-11.56,4.63-17.35,6.92
		c-0.9-2.68-1.61-5.41-2.12-8.19c3.74-1.46,7.44-3,11.19-4.41c2.39,1.58,6.02,1.39,7.48-1.34c2.04-3.09-0.72-7.61-4.37-7.3
		c-2.53-0.02-4.16,2.17-4.84,4.37c-3.28,1.4-6.61,2.69-9.93,3.99c-0.06-4.35,0.35-8.7,1.46-12.92c4.25-2.9,8.97-5.09,13.93-6.45
		c6.44,2.35,12.37,5.88,17.78,10.07c-5.38-7.64-12.49-14-20.64-18.53c-6.66,1.79-13.19,4.51-18.72,8.69
		c-3.27,10.8-2.51,22.71,1.22,33.33c4.98,14.09,15.9,25.94,29.5,32.1c0.93,0.51,2.04,0.53,2.97,0.02
		c11.96-5.42,21.87-15.18,27.46-27.06C209.6,112.91,210.8,99.02,207.37,86.33z M181.12,120.6c2.18-1.18,4.08,2.45,1.87,3.57
		C180.69,125.74,178.54,121.59,181.12,120.6z M172.55,110.51c1.84-1.95,4.83,1.15,2.86,2.9
		C173.63,115.21,170.71,112.32,172.55,110.51z M163.11,100.2c2.2-1.04,4.03,2.39,1.88,3.56
		C162.72,105.35,160.55,101.27,163.11,100.2z"/>
</g>
<g id="Layer_2">
</g>
<g id="Layer_3">
</g>
<g id="Layer_4">
</g>
<g id="Layer_5">
</g>
<g id="Layer_6">
</g>
<g id="Layer_7">
</g>
<g id="Layer_8">
</g>
<g id="Layer_9">
</g>
<g id="Layer_10">
</g>
<g id="Layer_11">
</g>
<g id="Layer_12">
</g>
<g id="Layer_13">
</g>
<g id="Layer_14">
</g>
<g id="Layer_15">
</g>
</svg>
