<?xml version="1.0" encoding="utf-8"?>
<!-- Generator: Adobe Illustrator 27.8.1, SVG Export Plug-In . SVG Version: 6.00 Build 0)  -->
<svg version="1.1" xmlns="http://www.w3.org/2000/svg" xmlns:xlink="http://www.w3.org/1999/xlink" x="0px" y="0px"
	 viewBox="0 0 350 230" style="enable-background:new 0 0 350 230;" xml:space="preserve">
<style type="text/css">
	.st0{fill:#DDDDDD;}
	.st1{fill:#F7931E;}
	.st2{fill:#604F3E;}
	.st3{fill:#2B5C8E;}
	.st4{fill:#328DD8;}
	.st5{fill:#3A99CE;}
	.st6{fill:#6CAEE5;}
	.st7{fill:#8299A8;}
	.st8{fill:#117ABA;}
	.st9{fill:#64B9E8;}
	.st10{fill:#1D4656;}
	.st11{fill:#2491EB;}
	.st12{clip-path:url(#SVGID_00000083794926625253834310000018436855164226080929_);fill:#2491EB;}
	.st13{fill-rule:evenodd;clip-rule:evenodd;fill:#64B9E8;}
	.st14{fill-rule:evenodd;clip-rule:evenodd;fill:#083D6D;}
	.st15{clip-path:url(#SVGID_00000101811771130035990070000007642528783485400490_);fill:#1C73C0;}
	.st16{clip-path:url(#SVGID_00000016060533670837270760000007060038399197903270_);fill:#2491EB;}
	.st17{fill:#FFFFFF;}
	.st18{fill:#2489B5;}
	.st19{fill:#004C85;}
	.st20{fill:#0EB0CC;}
	.st21{fill:#1C75BC;}
	.st22{fill-rule:evenodd;clip-rule:evenodd;fill:#231916;}
	.st23{fill-rule:evenodd;clip-rule:evenodd;fill:#008BD5;}
	.st24{fill:#26B1C1;}
	.st25{fill:#002A30;}
	.st26{fill:#07A8CC;}
</style>
<g id="Layer_1">
	<g>
		<path class="st5" d="M146.62,131.51c3.67,6.09,8.76,11.35,15.03,15.3l13.35,8.41l13.35-8.41c6.27-3.95,11.36-9.2,15.03-15.3
			l-7.13-5.53l-17.42,13.5c0.14,0.47,0.22,0.97,0.22,1.48c0,2.9-2.35,5.24-5.24,5.24c-2.9,0-5.24-2.35-5.24-5.24
			c0-2.9,2.35-5.24,5.24-5.24c1.03,0,1.98,0.3,2.79,0.81l16.63-12.89l-6.99-5.42l-17.81,13.81c0.15,0.49,0.23,1,0.23,1.54
			c0,2.9-2.35,5.24-5.24,5.24c-2.9,0-5.24-2.35-5.24-5.24c0-2.9,2.35-5.24,5.24-5.24c1,0,1.94,0.29,2.74,0.78l17.06-13.23L175,109.5
			l-22.7,17.6v0.03h-0.03L146.62,131.51z"/>
		<path class="st5" d="M205.18,128.21c3.11-6.28,4.8-13.29,4.8-20.59V86.87c-1.8-0.17-4.85-0.56-8.57-1.38v19.46
			c1.98,0.75,3.39,2.66,3.39,4.9c0,2.9-2.35,5.24-5.24,5.24c-2.9,0-5.24-2.35-5.24-5.24c0-2.24,1.41-4.15,3.39-4.9V84.58
			c-2.69-0.73-5.6-1.68-8.57-2.91v13.85c1.98,0.75,3.39,2.66,3.39,4.9c0,2.9-2.35,5.24-5.24,5.24c-2.9,0-5.24-2.35-5.24-5.24
			c0-2.24,1.41-4.15,3.39-4.9V80c-2.91-1.43-5.81-3.15-8.57-5.22v31.47L205.18,128.21z"/>
		<path class="st5" d="M140.02,107.62c0,7.3,1.69,14.31,4.8,20.59l3.77-2.92v-24.63c-1.98-0.75-3.39-2.66-3.39-4.9
			c0-2.9,2.35-5.24,5.24-5.24c2.9,0,5.24,2.35,5.24,5.24c0,2.24-1.41,4.15-3.39,4.9v21.76l8.57-6.64V97.09
			c-1.98-0.75-3.39-2.66-3.39-4.9c0-2.9,2.35-5.24,5.24-5.24c2.9,0,5.24,2.35,5.24,5.24c0,2.24-1.41,4.15-3.39,4.9v15.81l8.57-6.64
			V74.78c-12.46,9.34-27.93,11.58-33.13,12.09V107.62z"/>
		<circle class="st5" cx="150.44" cy="95.76" r="2.77"/>
		<path class="st5" d="M162.72,94.96c-1.53,0-2.77-1.24-2.77-2.77c0-1.53,1.24-2.77,2.77-2.77c1.53,0,2.77,1.24,2.77,2.77
			C165.49,93.72,164.25,94.96,162.72,94.96z"/>
		<path class="st5" d="M187.28,103.19c-1.53,0-2.77-1.24-2.77-2.77c0-1.53,1.24-2.77,2.77-2.77c1.53,0,2.77,1.24,2.77,2.77
			C190.05,101.95,188.81,103.19,187.28,103.19z"/>
		<path class="st5" d="M163.41,136.33c-1.53,0-2.77-1.24-2.77-2.77c0-1.53,1.24-2.77,2.77-2.77c1.53,0,2.77,1.24,2.77,2.77
			C166.18,135.09,164.93,136.33,163.41,136.33z"/>
		<path class="st5" d="M173.81,143.73c-1.53,0-2.77-1.24-2.77-2.77c0-1.53,1.24-2.77,2.77-2.77c1.53,0,2.77,1.24,2.77,2.77
			C176.58,142.49,175.34,143.73,173.81,143.73z"/>
		<circle class="st5" cx="199.56" cy="109.85" r="2.77"/>
	</g>
</g>
<g id="Layer_2">
</g>
<g id="Layer_3">
</g>
<g id="Layer_4">
</g>
<g id="Layer_5">
</g>
<g id="Layer_6">
</g>
<g id="Layer_7">
</g>
<g id="Layer_8">
</g>
<g id="Layer_9">
</g>
<g id="Layer_10">
</g>
<g id="Layer_11">
</g>
<g id="Layer_12">
</g>
<g id="Layer_13">
</g>
<g id="Layer_14">
</g>
<g id="Layer_15">
</g>
</svg>
