<?xml version="1.0" encoding="utf-8"?>
<!-- Generator: Adobe Illustrator 27.8.1, SVG Export Plug-In . SVG Version: 6.00 Build 0)  -->
<svg version="1.1" xmlns="http://www.w3.org/2000/svg" xmlns:xlink="http://www.w3.org/1999/xlink" x="0px" y="0px"
	 viewBox="0 0 350 230" style="enable-background:new 0 0 350 230;" xml:space="preserve">
<style type="text/css">
	.st0{fill:#DDDDDD;}
	.st1{fill:#F7931E;}
	.st2{fill:#604F3E;}
	.st3{fill:#2B5C8E;}
	.st4{fill:#328DD8;}
	.st5{fill:#3A99CE;}
	.st6{fill:#6CAEE5;}
	.st7{fill:#8299A8;}
	.st8{fill:#117ABA;}
	.st9{fill:#64B9E8;}
	.st10{fill:#1D4656;}
	.st11{fill:#2491EB;}
	.st12{clip-path:url(#SVGID_00000142897111301403428130000013970308112305821352_);fill:#2491EB;}
	.st13{fill-rule:evenodd;clip-rule:evenodd;fill:#64B9E8;}
	.st14{fill-rule:evenodd;clip-rule:evenodd;fill:#083D6D;}
	.st15{clip-path:url(#SVGID_00000044160401733034632190000003222726151108683685_);fill:#1C73C0;}
	.st16{clip-path:url(#SVGID_00000004541243953580132420000004319230474313752200_);fill:#2491EB;}
	.st17{fill:#FFFFFF;}
	.st18{fill:#2489B5;}
	.st19{fill:#004C85;}
	.st20{fill:#0EB0CC;}
	.st21{fill:#1C75BC;}
	.st22{fill-rule:evenodd;clip-rule:evenodd;fill:#231916;}
	.st23{fill-rule:evenodd;clip-rule:evenodd;fill:#008BD5;}
	.st24{fill:#26B1C1;}
	.st25{fill:#002A30;}
	.st26{fill:#07A8CC;}
</style>
<g id="Layer_1">
	<g>
		<path class="st22" d="M171.02,151.33c3.07-2.62,5.85-5.55,8.31-8.75c-23.4-10.31-38.42-33.55-38.22-59.11
			C138.16,118.16,148.13,140.78,171.02,151.33z"/>
		<path class="st23" d="M201.62,92.23c1.45,23.36-8.47,45.99-26.62,60.77c26.32-9.95,37.54-34,33.65-72.17
			c-24.51-8.07-42.8-8.07-67.3,0C162.15,76.26,183.92,80.38,201.62,92.23z"/>
		<path class="st22" d="M174.43,95.5c3.51,0,6.36,2.85,6.36,6.36c0,2.17-1.09,4.09-2.76,5.24l1.78,12.67h-5.39h-5.39l1.78-12.67
			c-1.66-1.15-2.76-3.07-2.76-5.24C168.07,98.35,170.92,95.5,174.43,95.5z"/>
	</g>
</g>
<g id="Layer_2">
</g>
<g id="Layer_3">
</g>
<g id="Layer_4">
</g>
<g id="Layer_5">
</g>
<g id="Layer_6">
</g>
<g id="Layer_7">
</g>
<g id="Layer_8">
</g>
<g id="Layer_9">
</g>
<g id="Layer_10">
</g>
<g id="Layer_11">
</g>
<g id="Layer_12">
</g>
<g id="Layer_13">
</g>
<g id="Layer_14">
</g>
<g id="Layer_15">
</g>
</svg>
