<?xml version="1.0" encoding="utf-8"?>
<!-- Generator: Adobe Illustrator 27.8.1, SVG Export Plug-In . SVG Version: 6.00 Build 0)  -->
<svg version="1.1" xmlns="http://www.w3.org/2000/svg" xmlns:xlink="http://www.w3.org/1999/xlink" x="0px" y="0px"
	 viewBox="0 0 350 230" style="enable-background:new 0 0 350 230;" xml:space="preserve">
<style type="text/css">
	.st0{fill:#DDDDDD;}
	.st1{fill:#F7931E;}
	.st2{fill:#604F3E;}
	.st3{fill:#2B5C8E;}
	.st4{fill:#328DD8;}
	.st5{fill:#3A99CE;}
	.st6{fill:#6CAEE5;}
	.st7{fill:#8299A8;}
	.st8{fill:#117ABA;}
	.st9{fill:#64B9E8;}
	.st10{fill:#1D4656;}
	.st11{fill:#2491EB;}
	.st12{clip-path:url(#SVGID_00000007420982327454748780000013471009571719133607_);fill:#2491EB;}
	.st13{fill-rule:evenodd;clip-rule:evenodd;fill:#64B9E8;}
	.st14{fill-rule:evenodd;clip-rule:evenodd;fill:#083D6D;}
	.st15{clip-path:url(#SVGID_00000023969453804129324390000004633655907641578161_);fill:#1C73C0;}
	.st16{clip-path:url(#SVGID_00000149343563201356461490000002495650820238689208_);fill:#2491EB;}
	.st17{fill:#FFFFFF;}
	.st18{fill:#2489B5;}
	.st19{fill:#004C85;}
	.st20{fill:#0EB0CC;}
	.st21{fill:#1C75BC;}
	.st22{fill-rule:evenodd;clip-rule:evenodd;fill:#231916;}
	.st23{fill-rule:evenodd;clip-rule:evenodd;fill:#008BD5;}
	.st24{fill:#26B1C1;}
	.st25{fill:#002A30;}
	.st26{fill:#07A8CC;}
</style>
<g id="Layer_1">
	<g id="XMLID_1878_">
		<path id="XMLID_1882_" class="st24" d="M168.5,131.07c-1.44-1.05-2.83-2.19-4.15-3.42c0,0,0,0-0.01,0l0,0
			c-0.45-0.42-0.9-0.85-1.34-1.29c-4.28-4.28-7.65-9.27-9.99-14.82c-1.68-3.97-2.78-8.11-3.31-12.37c-0.23-1.9-0.35-3.82-0.35-5.76
			c0-0.22,0-0.43,0-0.65c0,0,0-5.12,1.28-11.62c-4.15-0.7-8.03-2.2-11.47-4.33c-0.43,1.49-0.81,3-1.13,4.53
			c-0.46,2.23-0.8,4.51-1,6.82c-0.15,1.73-0.23,3.48-0.23,5.25c0,0.59,0.01,1.18,0.03,1.76c0.44,14.88,6.37,28.38,15.84,38.55
			c2.02,2.16,4.19,4.18,6.51,6.02c2.34,1.86,4.83,3.55,7.45,5.05c2.67,1.53,5.47,2.85,8.38,3.95c2.91-1.1,5.71-2.43,8.38-3.95
			c1.46-0.84,2.88-1.73,4.26-2.69c-9.48-4.21-15.37-8.13-19.1-10.99C168.53,131.09,168.51,131.08,168.5,131.07z"/>
		<path id="XMLID_1879_" class="st25" d="M212.96,88.15c-0.2-2.32-0.54-4.59-1-6.82c-0.32-1.55-0.71-3.08-1.15-4.59
			c-2.52,1.57-5.27,2.8-8.18,3.63c-2.24,0.73-4.81,1.19-7.49,1.18c-0.41,0.02-0.83,0.02-1.24,0.02c-3.19,0-6.27-0.47-9.17-1.34
			c-1.82,3.39-6.09,13.43,1.24,22.64c0,0,1.11-4.99,3.84-9.75c1.36,0.15,2.73,0.22,4.12,0.22c0.15,0,0.31,0,0.46,0
			c2.12-0.03,4.21-0.23,6.27-0.6c0,0.22,0,0.43,0,0.65c0,1.94-0.12,3.86-0.35,5.76c-0.52,4.26-1.63,8.4-3.31,12.37
			c-1.1,2.59-2.22,4.76-3.75,7.1C174.05,112.1,167.75,96.99,175,75.4c-0.06,0.02-0.13,0.04-0.19,0.05
			c-3.59,2.62-7.75,4.5-12.25,5.44c-0.81,2.28-2.71,8.82-1.49,17.15c0.46,3.16,1.22,6.28,2.47,9.22c1.75,4.15,4.29,7.86,7.48,11.08
			c10.38,10.48,26.45,15.23,26.45,15.23c9.2-10.11,15.28-23.79,15.71-38.42c0.02-0.58,0.03-1.17,0.03-1.76
			C213.19,91.63,213.12,89.88,212.96,88.15z"/>
	</g>
</g>
<g id="Layer_2">
</g>
<g id="Layer_3">
</g>
<g id="Layer_4">
</g>
<g id="Layer_5">
</g>
<g id="Layer_6">
</g>
<g id="Layer_7">
</g>
<g id="Layer_8">
</g>
<g id="Layer_9">
</g>
<g id="Layer_10">
</g>
<g id="Layer_11">
</g>
<g id="Layer_12">
</g>
<g id="Layer_13">
</g>
<g id="Layer_14">
</g>
<g id="Layer_15">
</g>
</svg>
