<?xml version="1.0" encoding="utf-8"?>
<!-- Generator: Adobe Illustrator 27.8.1, SVG Export Plug-In . SVG Version: 6.00 Build 0)  -->
<svg version="1.1" xmlns="http://www.w3.org/2000/svg" xmlns:xlink="http://www.w3.org/1999/xlink" x="0px" y="0px"
	 viewBox="0 0 350 230" style="enable-background:new 0 0 350 230;" xml:space="preserve">
<style type="text/css">
	.st0{fill:#DDDDDD;}
	.st1{fill:#F7931E;}
	.st2{fill:#604F3E;}
	.st3{fill:#2B5C8E;}
	.st4{fill:#328DD8;}
	.st5{fill:#3A99CE;}
	.st6{fill:#6CAEE5;}
	.st7{fill:#8299A8;}
	.st8{fill:#117ABA;}
	.st9{fill:#64B9E8;}
	.st10{fill:#1D4656;}
	.st11{fill:#2491EB;}
	.st12{clip-path:url(#SVGID_00000034808760299056099850000001989475921979045003_);fill:#2491EB;}
	.st13{fill-rule:evenodd;clip-rule:evenodd;fill:#64B9E8;}
	.st14{fill-rule:evenodd;clip-rule:evenodd;fill:#083D6D;}
	.st15{clip-path:url(#SVGID_00000142871209513837008270000003249399685548205753_);fill:#1C73C0;}
	.st16{clip-path:url(#SVGID_00000176031381070697744290000014259691357142615686_);fill:#2491EB;}
	.st17{fill:#FFFFFF;}
	.st18{fill:#2489B5;}
	.st19{fill:#004C85;}
	.st20{fill:#0EB0CC;}
	.st21{fill:#1C75BC;}
	.st22{fill:#37008E;}
	.st23{fill-rule:evenodd;clip-rule:evenodd;fill:#231916;}
	.st24{fill-rule:evenodd;clip-rule:evenodd;fill:#008BD5;}
	.st25{fill:#26B1C1;}
	.st26{fill:#002A30;}
	.st27{fill:#07A8CC;}
	.st28{fill:#00E5ED;}
	.st29{fill:none;stroke:#010141;stroke-width:5;stroke-miterlimit:10;}
	.st30{fill:url(#SVGID_00000139275991942346515370000004498726992453536388_);}
	.st31{fill:#601D00;}
	.st32{fill:#7707D8;}
	.st33{fill:#CC9933;}
	.st34{fill:#0B3B84;}
	.st35{fill:#1373BC;}
	.st36{fill:#092341;}
	.st37{fill:#06779D;}
	.st38{fill:#4EC5DF;}
	.st39{fill:#23445E;}
	.st40{fill:#2E3758;}
	.st41{fill:#1A4764;}
	.st42{fill:#010101;}
	.st43{fill:#D4D4D3;}
	.st44{fill:#021784;}
	.st45{opacity:0.2;fill:#F1F2F2;}
	.st46{fill:#0A244F;}
	.st47{fill:#0049F8;}
	.st48{fill:#330044;}
	.st49{fill:#006CB5;}
	.st50{fill:#FF1200;}
	.st51{fill-rule:evenodd;clip-rule:evenodd;fill:#100D3B;}
	.st52{fill-rule:evenodd;clip-rule:evenodd;fill:#0000FF;}
	.st53{fill-rule:evenodd;clip-rule:evenodd;fill:#0094D9;}
	.st54{fill-rule:evenodd;clip-rule:evenodd;fill:#44C2F4;}
	.st55{fill-rule:evenodd;clip-rule:evenodd;fill:#004883;}
	.st56{fill-rule:evenodd;clip-rule:evenodd;fill:#0691CA;}
	.st57{opacity:0.5;}
	.st58{opacity:0;fill:#929497;}
	.st59{opacity:0.0152;fill:#909295;}
	.st60{opacity:0.0303;fill:#8F9093;}
	.st61{opacity:0.0455;fill:#8D8F92;}
	.st62{opacity:0.0606;fill:#8B8D90;}
	.st63{opacity:0.0758;fill:#8A8B8E;}
	.st64{opacity:0.0909;fill:#88898C;}
	.st65{opacity:0.1061;fill:#86888A;}
	.st66{opacity:0.1212;fill:#858689;}
	.st67{opacity:0.1364;fill:#838487;}
	.st68{opacity:0.1515;fill:#818285;}
	.st69{opacity:0.1667;fill:#7F8083;}
	.st70{opacity:0.1818;fill:#7E7F81;}
	.st71{opacity:0.197;fill:#7C7D80;}
	.st72{opacity:0.2121;fill:#7A7B7E;}
	.st73{opacity:0.2273;fill:#79797C;}
	.st74{opacity:0.2424;fill:#77787A;}
	.st75{opacity:0.2576;fill:#757678;}
	.st76{opacity:0.2727;fill:#747477;}
	.st77{opacity:0.2879;fill:#727275;}
	.st78{opacity:0.303;fill:#707173;}
	.st79{opacity:0.3182;fill:#6F6F71;}
	.st80{opacity:0.3333;fill:#6D6D6F;}
	.st81{opacity:0.3485;fill:#6B6B6E;}
	.st82{opacity:0.3636;fill:#6A696C;}
	.st83{opacity:0.3788;fill:#68686A;}
	.st84{opacity:0.3939;fill:#666668;}
	.st85{opacity:0.4091;fill:#656466;}
	.st86{opacity:0.4242;fill:#636265;}
	.st87{opacity:0.4394;fill:#616163;}
	.st88{opacity:0.4545;fill:#605F61;}
	.st89{opacity:0.4697;fill:#5E5D5F;}
	.st90{opacity:0.4848;fill:#5C5B5D;}
	.st91{opacity:0.5;fill:#5A5A5C;}
	.st92{opacity:0.5152;fill:#59585A;}
	.st93{opacity:0.5303;fill:#575658;}
	.st94{opacity:0.5455;fill:#555456;}
	.st95{opacity:0.5606;fill:#545254;}
	.st96{opacity:0.5758;fill:#525152;}
	.st97{opacity:0.5909;fill:#504F51;}
	.st98{opacity:0.6061;fill:#4F4D4F;}
	.st99{opacity:0.6212;fill:#4D4B4D;}
	.st100{opacity:0.6364;fill:#4B4A4B;}
	.st101{opacity:0.6515;fill:#4A4849;}
	.st102{opacity:0.6667;fill:#484648;}
	.st103{opacity:0.6818;fill:#464446;}
	.st104{opacity:0.697;fill:#454244;}
	.st105{opacity:0.7121;fill:#434142;}
	.st106{opacity:0.7273;fill:#413F40;}
	.st107{opacity:0.7424;fill:#403D3F;}
	.st108{opacity:0.7576;fill:#3E3B3D;}
	.st109{opacity:0.7727;fill:#3C3A3B;}
	.st110{opacity:0.7879;fill:#3B3839;}
	.st111{opacity:0.803;fill:#393637;}
	.st112{opacity:0.8182;fill:#373436;}
	.st113{opacity:0.8333;fill:#363334;}
	.st114{opacity:0.8485;fill:#343132;}
	.st115{opacity:0.8636;fill:#322F30;}
	.st116{opacity:0.8788;fill:#302D2E;}
	.st117{opacity:0.8939;fill:#2F2B2D;}
	.st118{opacity:0.9091;fill:#2D2A2B;}
	.st119{opacity:0.9242;fill:#2B2829;}
	.st120{opacity:0.9394;fill:#2A2627;}
	.st121{opacity:0.9545;fill:#282425;}
	.st122{opacity:0.9697;fill:#262324;}
	.st123{opacity:0.9848;fill:#252122;}
	.st124{fill:#231F20;}
	.st125{fill:#004883;}
	.st126{fill:#21597F;}
	.st127{fill:#919191;}
</style>
<g id="Layer_1">
</g>
<g id="Layer_2">
</g>
<g id="Layer_3">
</g>
<g id="Layer_4">
</g>
<g id="Layer_5">
</g>
<g id="Layer_6">
</g>
<g id="Layer_7">
</g>
<g id="Layer_8">
</g>
<g id="Layer_9">
</g>
<g id="Layer_10">
</g>
<g id="Layer_11">
</g>
<g id="Layer_12">
</g>
<g id="Layer_13">
</g>
<g id="Layer_14">
</g>
<g id="Layer_15">
	<g>
		<path class="st36" d="M238.84,80.21l0.08,0.09c-0.24,3.01-1.4,7.53-2.22,10.51c-8.08,7.46-17.97,12.74-27.59,17.91l-0.04-0.02
			l-0.02-0.11c3.17-2.25,6.07-4.96,9.01-7.51c5.4-4.68,10.79-9.28,15.62-14.58C235.5,84.49,237.15,82.34,238.84,80.21z
			 M112.82,80.63c0.96,0.61,2.4,2.6,3.21,3.51c1.22,1.36,2.46,2.7,3.73,4.02c3.93,4.01,7.99,7.87,12.19,11.59
			c3.78,3.36,7.67,6.76,11.99,9.41c-1.3-0.09-3.55-1.45-4.72-2.06c-4.26-2.18-8.4-4.57-12.41-7.19c-4.07-2.71-7.89-5.7-11.72-8.74
			c-0.6-1.74-0.9-3.66-1.29-5.46C113.44,84.08,112.9,82.3,112.82,80.63z M235.1,96.4l0.06,0.07c0.01,0.12,0.01,0.14-0.01,0.27
			c-0.13,0.93-0.57,2-0.84,2.91c-1.11,3.75-2.4,7.43-3.89,11.05c-9.47,23.4-23.41,41.45-42.34,58c-3.85,3.37-7.95,7.02-12.14,9.95
			c-1.5-0.98-2.9-2.19-4.29-3.32c-2.59-2.09-5.14-4.23-7.64-6.43c-19.53-17.1-34.38-36.47-43.78-60.81
			c-1.44-3.76-2.93-7.77-3.76-11.71c5.37,4.11,10.93,7.73,16.68,11.28c7.15,16.48,16.61,30.17,29.01,43.15
			c4.32,4.52,8.75,8.77,13.68,12.64c3.27-2,7.46-6.29,10.26-9.09c13.99-13.99,25.1-28.83,32.69-47.22
			C224.52,103.93,229.84,100.28,235.1,96.4z M175.8,12.35c1.53,0.49,3.13,1.59,4.56,2.33l12.07,6.18l49.21,25.11
			c0.03,7.22-0.09,14.37-0.75,21.56c-0.15,1.58-0.15,3.89-0.7,5.3c-0.41,1.06-1.27,2.05-1.94,2.98
			c-3.96,5.52-9.68,12.16-14.91,16.49c1.03-3.85,2.04-7.72,2.8-11.64c0.87-4.42,1.43-8.86,1.95-13.33c0.51-4.42,0.91-8.95,0.91-13.4
			c-6.45-3.55-13-6.96-19.51-10.42l-33.23-17.58c-0.06-0.03-0.13-0.06-0.19-0.08c-0.3-0.11-0.76,0.18-1.02,0.33
			c-2.8,1.6-5.68,3.06-8.53,4.56l-14.34,7.54c-9.81,5.16-19.56,10.47-29.42,15.52c-0.16,2.93,0.08,5.95,0.31,8.88
			c0.3,3.84,0.75,7.65,1.35,11.45c0.6,3.8,1.34,7.57,2.24,11.31c0.51,2.18,1.16,4.33,1.68,6.51c-1.18-1.08-2.33-2.18-3.47-3.31
			c-1.99-1.96-3.91-3.97-5.77-6.05c-1.86-2.08-3.66-4.21-5.38-6.4c-0.72-0.91-1.68-1.91-2.16-2.97c-0.56-1.24-0.47-3.2-0.58-4.58
			c-0.61-7.58-0.83-15.08-0.81-22.69c4-1.88,7.92-3.98,11.85-6l17.8-9.14L175.8,12.35z M183.74,71.55
			c-0.01-2.94,0.14-5.93-1.98-8.26c-1.49-1.65-3.8-2.39-5.96-2.51c-2.41,0.28-4.54,1.04-6.08,3c-1.89,2.41-1.75,4.91-1.76,7.81
			l-0.01,5.04c2.39-0.59,5.36-1.32,7.81-1.4c0.67,0.22,1.55,0.27,2.26,0.39c1.91,0.31,3.84,0.59,5.74,1.01L183.74,71.55z
			 M186.5,57.64c-0.17-0.18-0.35-0.35-0.53-0.52c-0.18-0.16-0.37-0.32-0.56-0.48c-0.19-0.15-0.39-0.31-0.58-0.45
			c-0.2-0.15-0.4-0.29-0.61-0.43c-0.2-0.13-0.41-0.27-0.62-0.39c-0.21-0.13-0.43-0.25-0.65-0.36c-0.21-0.12-0.43-0.23-0.66-0.33
			c-0.22-0.11-0.45-0.21-0.67-0.3c-0.23-0.09-0.46-0.18-0.7-0.26c-0.23-0.08-0.46-0.16-0.7-0.23c-0.24-0.07-0.47-0.13-0.71-0.19
			c-0.24-0.05-0.48-0.11-0.72-0.15c-0.25-0.05-0.49-0.09-0.73-0.12c-0.25-0.03-0.49-0.06-0.74-0.08c-0.24-0.02-0.49-0.04-0.74-0.05
			c-0.24-0.01-0.49-0.01-0.73-0.01c-0.34,0.01-0.67,0-1,0.03c-3.98,0.31-7.63,1.89-10.26,4.94c-3.67,4.27-3.81,7.83-3.79,13.14
			l0.01,7.04c1.76-0.53,3.52-1.03,5.3-1.49v-5.61c0.01-3.77-0.03-6.55,2.81-9.42c1.78-1.8,4.15-2.9,6.71-2.9
			c0.5-0.01,1,0.01,1.51,0.03c2.82,0.57,5.27,1.71,6.91,4.18c1.73,2.61,1.59,5.4,1.58,8.39l-0.03,5.31c1.81,0.43,3.6,0.89,5.39,1.37
			l0.01-6.87C191,65.81,190.75,61.86,186.5,57.64z M186.5,57.64c-0.17-0.18-0.35-0.35-0.53-0.52c-0.18-0.16-0.37-0.32-0.56-0.48
			c-0.19-0.15-0.39-0.31-0.58-0.45c-0.2-0.15-0.4-0.29-0.61-0.43c-0.2-0.13-0.41-0.27-0.62-0.39c-0.21-0.13-0.43-0.25-0.65-0.36
			c-0.21-0.12-0.43-0.23-0.66-0.33c-0.22-0.11-0.45-0.21-0.67-0.3c-0.23-0.09-0.46-0.18-0.7-0.26c-0.23-0.08-0.46-0.16-0.7-0.23
			c-0.24-0.07-0.47-0.13-0.71-0.19c-0.24-0.05-0.48-0.11-0.72-0.15c-0.25-0.05-0.49-0.09-0.73-0.12c-0.25-0.03-0.49-0.06-0.74-0.08
			c-0.24-0.02-0.49-0.04-0.74-0.05c-0.24-0.01-0.49-0.01-0.73-0.01c-0.34,0.01-0.67,0-1,0.03c-3.98,0.31-7.63,1.89-10.26,4.94
			c-3.67,4.27-3.81,7.83-3.79,13.14l0.01,7.04c1.76-0.53,3.52-1.03,5.3-1.49v-5.61c0.01-3.77-0.03-6.55,2.81-9.42
			c1.78-1.8,4.15-2.9,6.71-2.9c0.5-0.01,1,0.01,1.51,0.03c2.82,0.57,5.27,1.71,6.91,4.18c1.73,2.61,1.59,5.4,1.58,8.39l-0.03,5.31
			c1.81,0.43,3.6,0.89,5.39,1.37l0.01-6.87C191,65.81,190.75,61.86,186.5,57.64z M181.76,63.29c-1.49-1.65-3.8-2.39-5.96-2.51
			c-2.41,0.28-4.54,1.04-6.08,3c-1.89,2.41-1.75,4.91-1.76,7.81l-0.01,5.04c2.39-0.59,5.36-1.32,7.81-1.4
			c0.67,0.22,1.55,0.27,2.26,0.39c1.91,0.31,3.84,0.59,5.74,1.01l-0.02-5.08C183.73,68.61,183.88,65.62,181.76,63.29z M214.54,56.28
			l-6.61-3.5l-24.87-13.02c-1.25-0.65-6.5-3.61-7.33-3.7l-27.3,14.23c-3.77,2.01-7.57,3.98-11.38,5.92
			c-1.57,0.8-3.17,1.76-4.79,2.43c0.12,5.35,0.73,10.56,1.62,15.83c1.88,11.22,5.13,21.8,9.7,32.21c1.12,2.56,2.24,5.12,3.53,7.59
			c6.43,12.37,15.8,25.07,25.9,34.71c0.43,0.41,2.53,2.58,3,2.5c0.03-0.01,0.06-0.03,0.09-0.04c0.64-0.59,1.27-1.18,1.9-1.77
			c0.63-0.6,1.25-1.2,1.86-1.81c0.62-0.61,1.23-1.22,1.83-1.84c0.61-0.62,1.2-1.25,1.79-1.88c0.6-0.63,1.18-1.27,1.76-1.91
			c0.58-0.64,1.15-1.29,1.72-1.94c0.57-0.66,1.13-1.32,1.68-1.98c0.56-0.67,1.11-1.34,1.65-2.01c0.54-0.68,1.07-1.36,1.6-2.04
			c0.53-0.69,1.05-1.38,1.57-2.07c0.51-0.7,1.02-1.4,1.52-2.1c0.5-0.71,1-1.42,1.49-2.13c0.49-0.72,0.97-1.44,1.44-2.16
			c0.47-0.73,0.94-1.45,1.4-2.19c0.46-0.73,0.92-1.47,1.36-2.21c0.45-0.74,0.89-1.49,1.32-2.24s0.85-1.5,1.27-2.26
			c0.42-0.76,0.83-1.52,1.23-2.29c0.4-0.76,0.8-1.53,1.18-2.31c0.39-0.77,0.77-1.55,1.14-2.33c0.38-0.78,0.74-1.57,1.1-2.35
			c0.36-0.79,0.71-1.58,1.05-2.38c0.34-0.79,0.68-1.59,1-2.39c0.33-0.8,0.65-1.61,0.96-2.42c0.31-0.8,0.62-1.61,0.91-2.43
			c0.3-0.81,0.59-1.63,0.87-2.44c0.28-0.82,0.55-1.64,0.81-2.47c0.27-0.82,0.52-1.65,0.77-2.48s0.49-1.66,0.72-2.49
			c0.23-0.84,0.46-1.67,0.68-2.51c0.21-0.84,0.42-1.68,0.62-2.52c0.2-0.84,0.39-1.69,0.58-2.53c1.48-7.12,2.19-14.38,2.67-21.62
			C217.84,58.14,216.2,57.17,214.54,56.28z M174.17,104.88c-0.71-0.39-1.16-0.94-1.37-1.72c-0.23-0.86-0.1-1.8-0.16-2.68
			c-0.12-1.92-0.88-3.63,0.26-5.45c0.68-1.07,1.72-1.5,2.9-1.76c1.23,0.16,2.32,0.33,3.14,1.36c1.16,1.46,0.84,3.59,0.86,5.34
			c0,0.67,0.09,1.35-0.01,2.02c-0.16,1.04-0.65,2.02-1.54,2.63c-0.7,0.48-1.6,0.75-2.45,0.8
			C175.23,105.32,174.68,105.16,174.17,104.88z M199.37,117.14c-0.09-1.28-0.03-2.61-0.02-3.89l0.01-6.68l0.06-23.58
			c-6.97-2.62-16.31-4.66-23.65-5.79c-7.99,1.06-16.12,3.21-23.55,6.36c0.17,4.29,0.07,8.61,0.07,12.9v20.66
			c-0.7-1.22-1.61-2.53-2.06-3.86c0.18-1.28,0.04-2.75,0.04-4.04c0-2.42,0.06-4.87-0.06-7.28c0.11-2.17,0-4.4,0-6.58l0.02-13.12
			c2.81-1.26,5.75-2.29,8.69-3.22l0.01-7.37c0.01-5.68,0.16-9.87,4.04-14.46c2.82-3.32,6.67-5.45,11.03-5.81
			c5.55-0.03,9.61,0.74,13.7,4.77c3.67,3.62,5.27,7.8,5.29,12.9c0.01,2.64-0.03,5.27,0,7.91c0,0.31,0.01,0.62,0.01,0.93
			c-0.01,0.31,0,0.62,0.01,0.93h0.01c2.85,0.81,5.64,1.83,8.48,2.69l-0.03,20.86c0,3.63-0.21,7.38,0.04,11
			C200.91,114.68,200.14,115.91,199.37,117.14z M185.97,57.12c-0.18-0.16-0.37-0.32-0.56-0.48c-0.19-0.15-0.39-0.31-0.58-0.45
			c-0.2-0.15-0.4-0.29-0.61-0.43c-0.2-0.13-0.41-0.27-0.62-0.39c-0.21-0.13-0.43-0.25-0.65-0.36c-0.21-0.12-0.43-0.23-0.66-0.33
			c-0.22-0.11-0.45-0.21-0.67-0.3c-0.23-0.09-0.46-0.18-0.7-0.26c-0.23-0.08-0.46-0.16-0.7-0.23c-0.24-0.07-0.47-0.13-0.71-0.19
			c-0.24-0.05-0.48-0.11-0.72-0.15c-0.25-0.05-0.49-0.09-0.73-0.12c-0.25-0.03-0.49-0.06-0.74-0.08c-0.24-0.02-0.49-0.04-0.74-0.05
			c-0.24-0.01-0.49-0.01-0.73-0.01c-0.34,0.01-0.67,0-1,0.03c-3.98,0.31-7.63,1.89-10.26,4.94c-3.67,4.27-3.81,7.83-3.79,13.14
			l0.01,7.04c1.76-0.53,3.52-1.03,5.3-1.49v-5.61c0.01-3.77-0.03-6.55,2.81-9.42c1.78-1.8,4.15-2.9,6.71-2.9
			c0.5-0.01,1,0.01,1.51,0.03c2.82,0.57,5.27,1.71,6.91,4.18c1.73,2.61,1.59,5.4,1.58,8.39l-0.03,5.31c1.81,0.43,3.6,0.89,5.39,1.37
			l0.01-6.87c0-5.62-0.25-9.57-4.5-13.79C186.33,57.46,186.15,57.29,185.97,57.12z M181.76,63.29c-1.49-1.65-3.8-2.39-5.96-2.51
			c-2.41,0.28-4.54,1.04-6.08,3c-1.89,2.41-1.75,4.91-1.76,7.81l-0.01,5.04c2.39-0.59,5.36-1.32,7.81-1.4
			c0.67,0.22,1.55,0.27,2.26,0.39c1.91,0.31,3.84,0.59,5.74,1.01l-0.02-5.08C183.73,68.61,183.88,65.62,181.76,63.29z M186.5,57.64
			c-0.17-0.18-0.35-0.35-0.53-0.52c-0.18-0.16-0.37-0.32-0.56-0.48c-0.19-0.15-0.39-0.31-0.58-0.45c-0.2-0.15-0.4-0.29-0.61-0.43
			c-0.2-0.13-0.41-0.27-0.62-0.39c-0.21-0.13-0.43-0.25-0.65-0.36c-0.21-0.12-0.43-0.23-0.66-0.33c-0.22-0.11-0.45-0.21-0.67-0.3
			c-0.23-0.09-0.46-0.18-0.7-0.26c-0.23-0.08-0.46-0.16-0.7-0.23c-0.24-0.07-0.47-0.13-0.71-0.19c-0.24-0.05-0.48-0.11-0.72-0.15
			c-0.25-0.05-0.49-0.09-0.73-0.12c-0.25-0.03-0.49-0.06-0.74-0.08c-0.24-0.02-0.49-0.04-0.74-0.05c-0.24-0.01-0.49-0.01-0.73-0.01
			c-0.34,0.01-0.67,0-1,0.03c-3.98,0.31-7.63,1.89-10.26,4.94c-3.67,4.27-3.81,7.83-3.79,13.14l0.01,7.04
			c1.76-0.53,3.52-1.03,5.3-1.49v-5.61c0.01-3.77-0.03-6.55,2.81-9.42c1.78-1.8,4.15-2.9,6.71-2.9c0.5-0.01,1,0.01,1.51,0.03
			c2.82,0.57,5.27,1.71,6.91,4.18c1.73,2.61,1.59,5.4,1.58,8.39l-0.03,5.31c1.81,0.43,3.6,0.89,5.39,1.37l0.01-6.87
			C191,65.81,190.75,61.86,186.5,57.64z"/>
		<path class="st37" d="M175.79,51.27c-0.59,0.01-1.2-0.01-1.79,0.11c-4.36,0.36-8.21,2.49-11.03,5.81
			c-3.88,4.59-4.03,8.78-4.04,14.46l-0.01,7.37c-2.94,0.93-5.88,1.96-8.69,3.22l-0.02,13.12c0,2.18,0.11,4.41,0,6.58
			c-0.12,1.66-0.05,3.34-0.04,5c-0.9,0.28-1.8,0.61-2.71,0.84c-0.76-1.66-1.4-3.38-2.08-5.07c-1.03-2.47-1.98-4.97-2.86-7.5
			c-0.88-2.53-1.68-5.09-2.41-7.66c-0.72-2.58-1.37-5.18-1.95-7.79c-0.57-2.62-1.06-5.25-1.48-7.9c-0.56-3.68-0.86-7.42-1.15-11.13
			c1.79-0.79,3.51-1.77,5.24-2.69l8.36-4.43l9.72-5.02c5.63-2.99,11.28-5.94,16.95-8.84C175.72,43.58,175.79,47.43,175.79,51.27z
			 M175.8,60.78c-2.41,0.28-4.54,1.04-6.08,3c-1.89,2.41-1.75,4.91-1.76,7.81l-0.01,5.04c2.39-0.59,5.36-1.32,7.81-1.4
			c0.08-1.6,0.01-3.24,0.01-4.84L175.8,60.78z"/>
		<path class="st38" d="M150.23,113.26c-1.09-1.66-1.89-3.69-2.77-5.48c0.91-0.23,1.81-0.56,2.71-0.84c-0.01-1.66-0.08-3.34,0.04-5
			c0.12,2.41,0.06,4.86,0.06,7.28C150.27,110.51,150.41,111.98,150.23,113.26z M192.5,48.41c-3.66-1.94-7.33-3.86-11.01-5.76
			c-1.87-0.98-3.75-2.07-5.69-2.9c-0.08,3.83-0.01,7.68-0.01,11.52c-0.59,0.01-1.2-0.01-1.79,0.11c5.55-0.03,9.61,0.74,13.7,4.77
			c3.67,3.62,5.27,7.8,5.29,12.9c0.01,2.64-0.03,5.27,0,7.91c0,0.31,0.01,0.62,0.01,0.93c-0.01,0.31,0,0.62,0.01,0.93h0.01
			c2.85,0.81,5.64,1.83,8.48,2.69l-0.03,20.86c0,3.63-0.21,7.38,0.04,11c0.99-1.7,1.8-3.55,2.66-5.32c0.43-0.93,0.86-1.86,1.27-2.79
			c0.41-0.94,0.81-1.88,1.21-2.82c0.39-0.94,0.76-1.89,1.13-2.85c0.37-0.95,0.72-1.91,1.07-2.87c0.34-0.96,0.67-1.93,0.99-2.9
			s0.63-1.94,0.93-2.92c0.29-0.98,0.58-1.96,0.85-2.94c0.27-0.99,0.54-1.98,0.78-2.97c0.25-0.99,0.49-1.98,0.71-2.98
			c0.23-1,0.44-1.99,0.64-3c0.2-1,0.39-2,0.56-3.01c0.18-1.01,0.34-2.01,0.49-3.02c0.15-1.01,0.29-2.03,0.42-3.04
			c0.13-1.01,0.24-2.03,0.34-3.05c0.1-1.01,0.19-2.03,0.27-3.05c0.08-1.02,0.14-2.04,0.19-3.06
			C208.27,56.51,200.33,52.54,192.5,48.41z M183.76,76.63c-1.9-0.42-3.83-0.7-5.74-1.01c-0.71-0.12-1.59-0.17-2.26-0.39
			c0.08-1.6,0.01-3.24,0.01-4.84l0.03-9.61c2.16,0.12,4.47,0.86,5.96,2.51c2.12,2.33,1.97,5.32,1.98,8.26L183.76,76.63z"/>
		<path class="st39" d="M199.37,117.14c-0.66,1.63-1.93,3.28-2.88,4.76c-0.73,1.15-1.48,2.29-2.24,3.42
			c-0.76,1.13-1.55,2.24-2.34,3.34c-0.8,1.11-1.62,2.2-2.45,3.27c-0.83,1.08-1.68,2.15-2.54,3.2s-1.74,2.09-2.64,3.12
			c-0.89,1.02-1.8,2.04-2.73,3.03c-0.92,1-1.86,1.99-2.82,2.95c-0.95,0.97-1.93,1.93-2.91,2.87l-0.02-41.68
			c0.85-0.05,1.75-0.32,2.45-0.8c0.89-0.61,1.38-1.59,1.54-2.63c0.1-0.67,0.01-1.35,0.01-2.02c-0.02-1.75,0.3-3.88-0.86-5.34
			c-0.82-1.03-1.91-1.2-3.14-1.36c0.07-5.35-0.02-10.72-0.03-16.07c7.34,1.13,16.68,3.17,23.65,5.79l-0.06,23.58l-0.01,6.68
			C199.34,114.53,199.28,115.86,199.37,117.14z"/>
	</g>
</g>
</svg>
