<?xml version="1.0" encoding="utf-8"?>
<!-- Generator: Adobe Illustrator 27.8.1, SVG Export Plug-In . SVG Version: 6.00 Build 0)  -->
<svg version="1.1" xmlns="http://www.w3.org/2000/svg" xmlns:xlink="http://www.w3.org/1999/xlink" x="0px" y="0px"
	 viewBox="0 0 350 230" style="enable-background:new 0 0 350 230;" xml:space="preserve">
<style type="text/css">
	.st0{fill:#DDDDDD;}
	.st1{fill:#F7931E;}
	.st2{fill:#604F3E;}
	.st3{fill:#2B5C8E;}
	.st4{fill:#328DD8;}
	.st5{fill:#3A99CE;}
	.st6{fill:#6CAEE5;}
	.st7{fill:#8299A8;}
	.st8{fill:#117ABA;}
	.st9{fill:#64B9E8;}
	.st10{fill:#1D4656;}
	.st11{fill:#2491EB;}
	.st12{clip-path:url(#SVGID_00000017506696621885624430000005480125114803382157_);fill:#2491EB;}
	.st13{fill-rule:evenodd;clip-rule:evenodd;fill:#64B9E8;}
	.st14{fill-rule:evenodd;clip-rule:evenodd;fill:#083D6D;}
	.st15{clip-path:url(#SVGID_00000042014095087350051350000012231963724251591854_);fill:#1C73C0;}
	.st16{clip-path:url(#SVGID_00000051378006973745930330000013663481603540471711_);fill:#2491EB;}
	.st17{fill:#FFFFFF;}
	.st18{fill:#2489B5;}
	.st19{fill:#004C85;}
	.st20{fill:#0EB0CC;}
	.st21{fill:#1C75BC;}
	.st22{fill:#37008E;}
	.st23{fill-rule:evenodd;clip-rule:evenodd;fill:#231916;}
	.st24{fill-rule:evenodd;clip-rule:evenodd;fill:#008BD5;}
	.st25{fill:#26B1C1;}
	.st26{fill:#002A30;}
	.st27{fill:#07A8CC;}
	.st28{fill:#00E5ED;}
	.st29{fill:none;stroke:#010141;stroke-width:5;stroke-miterlimit:10;}
	.st30{fill:url(#SVGID_00000166643957042493055790000008336487081356443562_);}
	.st31{fill:#601D00;}
	.st32{fill:#7707D8;}
	.st33{fill:#CC9933;}
	.st34{fill:#0B3B84;}
	.st35{fill:#1373BC;}
	.st36{fill:#092341;}
	.st37{fill:#06779D;}
	.st38{fill:#4EC5DF;}
	.st39{fill:#23445E;}
	.st40{fill:#2E3758;}
	.st41{fill:#1A4764;}
	.st42{fill:#010101;}
	.st43{fill:#D4D4D3;}
	.st44{fill:#021784;}
	.st45{opacity:0.2;fill:#F1F2F2;}
	.st46{fill:#0A244F;}
	.st47{fill:#0049F8;}
	.st48{fill:#330044;}
	.st49{fill:#006CB5;}
	.st50{fill:#FF1200;}
	.st51{fill-rule:evenodd;clip-rule:evenodd;fill:#100D3B;}
	.st52{fill-rule:evenodd;clip-rule:evenodd;fill:#0000FF;}
	.st53{fill-rule:evenodd;clip-rule:evenodd;fill:#0094D9;}
	.st54{fill-rule:evenodd;clip-rule:evenodd;fill:#44C2F4;}
	.st55{fill-rule:evenodd;clip-rule:evenodd;fill:#004883;}
	.st56{fill-rule:evenodd;clip-rule:evenodd;fill:#0691CA;}
	.st57{opacity:0.5;}
	.st58{opacity:0;fill:#929497;}
	.st59{opacity:0.0152;fill:#909295;}
	.st60{opacity:0.0303;fill:#8F9093;}
	.st61{opacity:0.0455;fill:#8D8F92;}
	.st62{opacity:0.0606;fill:#8B8D90;}
	.st63{opacity:0.0758;fill:#8A8B8E;}
	.st64{opacity:0.0909;fill:#88898C;}
	.st65{opacity:0.1061;fill:#86888A;}
	.st66{opacity:0.1212;fill:#858689;}
	.st67{opacity:0.1364;fill:#838487;}
	.st68{opacity:0.1515;fill:#818285;}
	.st69{opacity:0.1667;fill:#7F8083;}
	.st70{opacity:0.1818;fill:#7E7F81;}
	.st71{opacity:0.197;fill:#7C7D80;}
	.st72{opacity:0.2121;fill:#7A7B7E;}
	.st73{opacity:0.2273;fill:#79797C;}
	.st74{opacity:0.2424;fill:#77787A;}
	.st75{opacity:0.2576;fill:#757678;}
	.st76{opacity:0.2727;fill:#747477;}
	.st77{opacity:0.2879;fill:#727275;}
	.st78{opacity:0.303;fill:#707173;}
	.st79{opacity:0.3182;fill:#6F6F71;}
	.st80{opacity:0.3333;fill:#6D6D6F;}
	.st81{opacity:0.3485;fill:#6B6B6E;}
	.st82{opacity:0.3636;fill:#6A696C;}
	.st83{opacity:0.3788;fill:#68686A;}
	.st84{opacity:0.3939;fill:#666668;}
	.st85{opacity:0.4091;fill:#656466;}
	.st86{opacity:0.4242;fill:#636265;}
	.st87{opacity:0.4394;fill:#616163;}
	.st88{opacity:0.4545;fill:#605F61;}
	.st89{opacity:0.4697;fill:#5E5D5F;}
	.st90{opacity:0.4848;fill:#5C5B5D;}
	.st91{opacity:0.5;fill:#5A5A5C;}
	.st92{opacity:0.5152;fill:#59585A;}
	.st93{opacity:0.5303;fill:#575658;}
	.st94{opacity:0.5455;fill:#555456;}
	.st95{opacity:0.5606;fill:#545254;}
	.st96{opacity:0.5758;fill:#525152;}
	.st97{opacity:0.5909;fill:#504F51;}
	.st98{opacity:0.6061;fill:#4F4D4F;}
	.st99{opacity:0.6212;fill:#4D4B4D;}
	.st100{opacity:0.6364;fill:#4B4A4B;}
	.st101{opacity:0.6515;fill:#4A4849;}
	.st102{opacity:0.6667;fill:#484648;}
	.st103{opacity:0.6818;fill:#464446;}
	.st104{opacity:0.697;fill:#454244;}
	.st105{opacity:0.7121;fill:#434142;}
	.st106{opacity:0.7273;fill:#413F40;}
	.st107{opacity:0.7424;fill:#403D3F;}
	.st108{opacity:0.7576;fill:#3E3B3D;}
	.st109{opacity:0.7727;fill:#3C3A3B;}
	.st110{opacity:0.7879;fill:#3B3839;}
	.st111{opacity:0.803;fill:#393637;}
	.st112{opacity:0.8182;fill:#373436;}
	.st113{opacity:0.8333;fill:#363334;}
	.st114{opacity:0.8485;fill:#343132;}
	.st115{opacity:0.8636;fill:#322F30;}
	.st116{opacity:0.8788;fill:#302D2E;}
	.st117{opacity:0.8939;fill:#2F2B2D;}
	.st118{opacity:0.9091;fill:#2D2A2B;}
	.st119{opacity:0.9242;fill:#2B2829;}
	.st120{opacity:0.9394;fill:#2A2627;}
	.st121{opacity:0.9545;fill:#282425;}
	.st122{opacity:0.9697;fill:#262324;}
	.st123{opacity:0.9848;fill:#252122;}
	.st124{fill:#231F20;}
	.st125{fill:#004883;}
	.st126{fill:#21597F;}
	.st127{fill:#919191;}
</style>
<g id="Layer_1">
</g>
<g id="Layer_2">
</g>
<g id="Layer_3">
</g>
<g id="Layer_4">
</g>
<g id="Layer_5">
</g>
<g id="Layer_6">
</g>
<g id="Layer_7">
</g>
<g id="Layer_8">
</g>
<g id="Layer_9">
</g>
<g id="Layer_10">
</g>
<g id="Layer_11">
</g>
<g id="Layer_12">
</g>
<g id="Layer_13">
</g>
<g id="Layer_14">
</g>
<g id="Layer_15">
	<g>
		<path class="st34" d="M105.05,76.93c0.07-0.01,0.15-0.01,0.22-0.01c1.67-0.01,3.25,0.59,4.45,1.77c1.33,1.33,1.74,2.96,1.74,4.77
			c1.47,0.72,2.88,1.6,4.31,2.39l9.18,4.96l-0.81,1.68c-1.71-0.9-3.37-1.9-5.09-2.8c-2.74-1.43-5.37-3.06-8.14-4.43
			c-0.11,0.17-0.23,0.33-0.35,0.5c-1.05,1.4-2.61,2.47-4.36,2.7c-0.1,0.01-0.2,0.02-0.3,0.03c-0.1,0.01-0.2,0.01-0.3,0.02
			c-0.1,0-0.2,0-0.3,0c-0.1,0-0.2-0.01-0.3-0.01c-0.1-0.01-0.2-0.02-0.3-0.03c-0.1-0.01-0.2-0.03-0.3-0.04
			c-0.1-0.02-0.2-0.04-0.3-0.06c-0.1-0.02-0.2-0.05-0.29-0.07c-0.1-0.03-0.19-0.06-0.29-0.09c-0.1-0.03-0.19-0.07-0.28-0.1
			c-0.09-0.04-0.19-0.07-0.28-0.11c-0.09-0.04-0.18-0.08-0.27-0.13c-0.09-0.04-0.18-0.09-0.27-0.14c-0.09-0.05-0.17-0.1-0.26-0.15
			c-0.08-0.05-0.17-0.11-0.25-0.17s-0.16-0.12-0.24-0.18c-0.08-0.06-0.15-0.12-0.22-0.18c-0.07-0.06-0.14-0.13-0.21-0.19
			s-0.14-0.13-0.2-0.2c-0.07-0.07-0.13-0.14-0.19-0.21s-0.12-0.15-0.18-0.22c-0.06-0.08-0.12-0.15-0.17-0.23
			c-0.06-0.08-0.11-0.16-0.16-0.24c-0.05-0.08-0.1-0.16-0.15-0.25c-0.05-0.08-0.09-0.17-0.14-0.25c-0.04-0.09-0.08-0.17-0.12-0.26
			c-0.04-0.09-0.08-0.18-0.11-0.27c-0.03-0.09-0.07-0.18-0.1-0.27c-0.03-0.09-0.06-0.18-0.08-0.28c-0.03-0.09-0.05-0.19-0.07-0.28
			c-0.02-0.09-0.04-0.19-0.05-0.28c-0.02-0.1-0.03-0.19-0.04-0.29c-0.01-0.09-0.02-0.19-0.02-0.28c-0.01-0.09-0.01-0.19-0.01-0.28
			c0-0.09,0-0.19,0-0.28s0.01-0.19,0.02-0.28c0.01-0.09,0.02-0.19,0.03-0.28c0.01-0.09,0.03-0.19,0.05-0.28
			c0.02-0.09,0.04-0.19,0.06-0.28c0.02-0.09,0.05-0.18,0.07-0.27c0.03-0.09,0.06-0.18,0.09-0.27c0.03-0.09,0.07-0.18,0.1-0.27
			c0.04-0.09,0.07-0.17,0.12-0.26c0.04-0.09,0.08-0.17,0.13-0.25c0.04-0.08,0.09-0.17,0.14-0.25c0.05-0.08,0.1-0.16,0.15-0.24
			c0.05-0.08,0.11-0.16,0.16-0.23c0.06-0.08,0.12-0.15,0.18-0.22C101.82,77.71,103.37,77.09,105.05,76.93z M244.13,77.11
			c0.41-0.05,0.81-0.08,1.22-0.06c0.1,0.01,0.2,0.01,0.3,0.03c0.1,0.01,0.2,0.02,0.3,0.04c0.1,0.02,0.2,0.03,0.29,0.05
			c0.1,0.02,0.19,0.04,0.29,0.07c0.1,0.03,0.19,0.05,0.29,0.08c0.09,0.03,0.19,0.06,0.28,0.1c0.09,0.04,0.18,0.07,0.28,0.11
			c0.09,0.04,0.18,0.08,0.27,0.13c0.09,0.04,0.18,0.09,0.26,0.14c0.09,0.05,0.17,0.1,0.26,0.15c0.08,0.05,0.17,0.11,0.25,0.17
			c0.08,0.06,0.16,0.12,0.24,0.18c0.08,0.06,0.16,0.12,0.23,0.19c0.08,0.06,0.15,0.13,0.22,0.2c0.07,0.07,0.14,0.14,0.21,0.21
			c0.07,0.07,0.13,0.15,0.2,0.22c0.98,1.15,1.41,2.61,1.29,4.11c-0.14,1.58-0.95,2.98-2.17,3.97c-1.29,1.05-2.9,1.49-4.56,1.29
			c-2.09-0.25-3.49-1.41-4.75-3.01c-2.67,1.28-5.26,2.81-7.87,4.2c-2.14,1.07-4.22,2.32-6.33,3.45l0-2.09
			c1.89-0.87,3.72-1.95,5.55-2.95c2.72-1.49,5.44-2.97,8.17-4.44c-0.04-1.46,0.19-2.77,1.03-4.01
			C240.9,78.13,242.36,77.44,244.13,77.11z M244.53,96.26c1.3-0.13,2.54-0.05,3.73,0.52c1.46,0.7,2.67,2.04,3.18,3.58
			c0.03,0.09,0.06,0.18,0.08,0.28c0.03,0.09,0.05,0.19,0.07,0.28c0.02,0.09,0.04,0.19,0.06,0.28c0.02,0.09,0.03,0.19,0.04,0.29
			c0.01,0.1,0.02,0.19,0.03,0.29c0.01,0.1,0.01,0.19,0.01,0.29c0,0.1,0,0.19,0,0.29c0,0.1-0.01,0.19-0.01,0.29
			c-0.01,0.1-0.02,0.19-0.03,0.29c-0.01,0.1-0.02,0.19-0.04,0.29c-0.02,0.09-0.03,0.19-0.05,0.28c-0.02,0.09-0.04,0.19-0.07,0.28
			c-0.02,0.09-0.05,0.19-0.08,0.28c-0.03,0.09-0.06,0.18-0.09,0.27c-0.03,0.09-0.07,0.18-0.11,0.27c-0.04,0.09-0.08,0.18-0.12,0.26
			c-0.05,0.09-0.09,0.18-0.14,0.27c-0.05,0.09-0.1,0.17-0.16,0.26c-0.05,0.09-0.11,0.17-0.17,0.25c-0.06,0.08-0.12,0.16-0.18,0.24
			c-0.06,0.08-0.13,0.16-0.19,0.23c-0.07,0.08-0.13,0.15-0.2,0.22c-0.07,0.07-0.14,0.14-0.21,0.21c-0.07,0.07-0.15,0.14-0.22,0.2
			c-0.08,0.07-0.15,0.13-0.23,0.19c-0.08,0.06-0.16,0.12-0.24,0.18c-0.08,0.06-0.17,0.11-0.25,0.17c-0.09,0.05-0.17,0.1-0.26,0.15
			c-0.09,0.05-0.18,0.1-0.27,0.14c-0.09,0.04-0.18,0.09-0.27,0.13c-0.09,0.04-0.19,0.08-0.28,0.11c-0.09,0.04-0.19,0.07-0.29,0.1
			c-1.61,0.53-3.29,0.27-4.78-0.49c-1.74-0.89-2.65-2.26-3.24-4.09c-1.38,0.3-2.76,0.59-4.14,0.86c-3.43,0.66-6.86,1.38-10.27,2.15
			c0.01-0.67,0-1.34-0.01-2.01c1.39-0.35,2.85-0.56,4.26-0.84c3.35-0.65,6.69-1.37,10.01-2.15c0.29-0.83,0.65-1.68,1.13-2.43
			C241.49,97.45,242.84,96.64,244.53,96.26z M103.43,96.26c1.45-0.14,2.75,0.07,4.01,0.84c1.67,1.02,2.62,2.53,3.09,4.39
			c4.83,1.01,9.72,1.86,14.58,2.73c-0.06,0.63-0.05,1.28-0.06,1.92c-2.66-0.55-5.36-0.98-8.03-1.47c-2.18-0.42-4.38-0.8-6.58-1.13
			c-0.21,0.6-0.46,1.2-0.79,1.73c-0.89,1.45-2.26,2.46-3.92,2.84c-1.6,0.37-3.3,0.12-4.68-0.78c-0.09-0.06-0.17-0.11-0.25-0.17
			c-0.08-0.06-0.16-0.12-0.24-0.19c-0.08-0.06-0.16-0.13-0.23-0.2c-0.08-0.07-0.15-0.14-0.22-0.21c-0.07-0.07-0.14-0.15-0.21-0.22
			c-0.07-0.08-0.14-0.15-0.2-0.23c-0.07-0.08-0.13-0.16-0.19-0.24c-0.06-0.08-0.12-0.17-0.18-0.25c-0.06-0.08-0.11-0.17-0.17-0.26
			c-0.05-0.09-0.1-0.18-0.15-0.27c-0.05-0.09-0.09-0.18-0.14-0.27s-0.09-0.19-0.13-0.28c-0.04-0.09-0.08-0.19-0.11-0.29
			c-0.03-0.1-0.07-0.19-0.1-0.29c-0.03-0.1-0.06-0.2-0.08-0.3c-0.02-0.1-0.05-0.2-0.07-0.3c-0.31-1.58,0-3.27,0.91-4.6
			C100.28,97.33,101.77,96.6,103.43,96.26z M222.91,105.26c0.03,0.03,0.04,0.04,0.07,0.08c0.19,0.36,0.07,1.46,0.07,1.91
			c0.01,3.68-0.05,7.25-0.88,10.86c-1.82,7.81-6.22,15.22-12.7,20.05c-1.58,1.18-3.29,2.15-4.98,3.15c-2.69,1.59-5.4,3.13-8.11,4.67
			c-7.1,4.05-14.32,8-21.25,12.33c-3.34-2.04-6.77-3.91-10.16-5.86l-10.27-6c-5.54-3.16-12.22-6.43-16.8-10.82
			c-6.56-6.29-10.01-14.5-10.21-23.56c-0.02-2.25-0.02-4.5,0-6.74c1.56,0.63,3.14,1.77,4.6,2.63c-0.1,2.46-0.05,4.95,0.35,7.37
			c0.04,0.23,0.08,0.45,0.13,0.68c0.05,0.23,0.09,0.45,0.14,0.68c0.05,0.22,0.1,0.45,0.16,0.67c0.06,0.22,0.11,0.45,0.17,0.67
			c0.06,0.22,0.12,0.44,0.19,0.66c0.07,0.22,0.14,0.44,0.21,0.66s0.15,0.44,0.22,0.65c0.08,0.22,0.16,0.43,0.24,0.65
			c0.08,0.22,0.17,0.43,0.25,0.64c0.09,0.21,0.18,0.43,0.27,0.64c0.09,0.21,0.19,0.42,0.28,0.63c0.1,0.21,0.2,0.42,0.3,0.62
			c0.1,0.21,0.21,0.41,0.31,0.62c0.11,0.2,0.22,0.41,0.33,0.61c0.11,0.2,0.23,0.4,0.34,0.6s0.23,0.4,0.36,0.59
			c0.12,0.2,0.24,0.39,0.37,0.58c0.13,0.19,0.25,0.38,0.38,0.58c0.13,0.19,0.26,0.38,0.4,0.57c0.13,0.19,0.27,0.37,0.41,0.56
			c0.14,0.18,0.28,0.37,0.42,0.55c0.14,0.18,0.29,0.36,0.44,0.54c0.15,0.18,0.3,0.35,0.45,0.53c0.15,0.17,0.3,0.35,0.46,0.52
			c0.16,0.17,0.31,0.34,0.47,0.5c0.16,0.17,0.32,0.33,0.48,0.49c0.16,0.16,0.33,0.32,0.5,0.48c0.17,0.16,0.34,0.32,0.51,0.47
			c0.17,0.15,0.34,0.31,0.52,0.46c0.17,0.15,0.35,0.3,0.53,0.44c0.18,0.15,0.36,0.29,0.54,0.43c0.18,0.14,0.36,0.28,0.55,0.42
			c2.52,1.87,5.43,3.38,8.14,4.95c4.83,2.82,9.69,5.58,14.58,8.3c2.86,1.6,5.98,3.11,8.65,5.01c2.07-1.2,4.2-2.32,6.3-3.48
			l14.41-8.04c3.53-1.99,7.34-3.93,10.57-6.4c0.53-0.4,1.04-0.82,1.54-1.26c0.5-0.44,0.98-0.89,1.45-1.36
			c0.47-0.47,0.92-0.96,1.35-1.46c0.43-0.5,0.85-1.02,1.25-1.55c0.23-0.3,0.45-0.61,0.67-0.92c0.22-0.31,0.43-0.63,0.63-0.95
			c0.2-0.32,0.4-0.64,0.59-0.97c0.19-0.33,0.38-0.66,0.56-0.99c0.18-0.33,0.35-0.67,0.52-1.01c0.17-0.34,0.33-0.68,0.48-1.03
			c0.15-0.35,0.3-0.7,0.44-1.05c0.14-0.35,0.27-0.71,0.4-1.06c0.13-0.36,0.25-0.72,0.36-1.08c0.11-0.36,0.22-0.73,0.32-1.09
			c0.1-0.37,0.19-0.73,0.28-1.1c0.09-0.37,0.17-0.74,0.24-1.11c0.07-0.37,0.14-0.75,0.2-1.12c0.06-0.37,0.11-0.75,0.15-1.13
			c0.04-0.38,0.08-0.75,0.11-1.13c0.03-0.38,0.05-0.76,0.07-1.14c0.05-1.15,0.11-2.39-0.05-3.53
			C219.76,107.13,221.37,106.26,222.91,105.26z M164.78,36.65l0.06,0.06c0.57-0.13,1.25-0.62,1.77-0.9c2.23-1.2,3.26-1.86,5.74-2.52
			c0.49-0.13,1.04-0.32,1.54-0.35c1.58-0.09,3.11,0.23,4.64,0.53c0.46,0.09,0.97,0.12,1.41,0.26c0.79,0.25,2.86,1.77,3.49,1.64
			c1.94,0.94,3.82,2.01,5.72,3.03l10.26,5.53c5.06,2.63,10.08,5.33,15.06,8.09c2.86,1.56,5.78,3.09,8.56,4.79l0,31.96
			c-1.64,0.89-3.26,1.82-4.84,2.8c-0.17-10.51,0.1-21.04,0-31.55c-10.83-5.95-21.71-11.81-32.64-17.58c-2.35-1.22-4.66-2.53-7-3.78
			c-1.13-0.61-2.27-1.29-3.46-1.77l-31.28,16.94c-3.86,2.09-7.78,4.11-11.61,6.25l0.01,31.73c-1.56-0.86-3.11-1.74-4.65-2.64
			l-0.04-32.44c3.14-1.59,6.21-3.3,9.3-4.97l16.04-8.72l7.5-4.05C161.8,38.23,163.27,37.29,164.78,36.65z M174.25,149.61
			c-1.62-0.7-3.2-1.8-4.74-2.68c-3.47-1.94-6.92-3.92-10.34-5.95c-2.37-1.36-4.74-2.7-7.12-4.03c-2.03-1.12-4.1-2.18-6.03-3.46
			c-0.8-0.52-1.57-1.08-2.3-1.68c-0.74-0.6-1.44-1.24-2.11-1.92c-0.27-0.27-0.54-0.55-0.8-0.83c-0.27-0.28-0.52-0.57-0.77-0.86
			c-0.25-0.3-0.5-0.59-0.74-0.9c-0.24-0.3-0.47-0.61-0.69-0.93c-0.23-0.31-0.44-0.63-0.65-0.95c-0.22-0.33-0.42-0.65-0.62-0.99
			c-0.19-0.33-0.38-0.66-0.56-1c-0.19-0.34-0.36-0.69-0.53-1.04c-0.17-0.34-0.33-0.7-0.48-1.05c-0.15-0.35-0.3-0.71-0.43-1.07
			c-0.14-0.36-0.27-0.73-0.39-1.09c-0.12-0.37-0.24-0.74-0.34-1.11c-0.11-0.37-0.21-0.75-0.3-1.12c-0.08-0.38-0.17-0.75-0.24-1.13
			s-0.14-0.76-0.19-1.15c-0.06-0.38-0.11-0.76-0.15-1.14c-0.18-1.64-0.17-3.28-0.17-4.93c3.33,1.58,6.61,3.72,9.82,5.56
			c6.9,3.93,13.77,7.91,20.6,11.95l6.47,3.79c1.2,0.7,2.79,1.41,3.78,2.35L174.25,149.61z M216.71,108.92l-0.11-0.02
			c-4.38,2.68-8.93,5.11-13.37,7.69l-27.14,15.76c0,1.7-0.11,16.79,0.1,17.21l0.09,0.04c4.74-2.5,9.36-5.24,14.03-7.85l8.63-4.82
			c3.25-1.84,6.58-3.52,9.3-6.13c3.51-3.36,5.94-7.6,7.39-12.22c0.84-2.66,1.15-5.38,1.18-8.16
			C216.81,110,216.9,109.29,216.71,108.92z"/>
		<path class="st35" d="M183.63,73.71c-1.99-1.18-3.98-2.35-6-3.49c-0.85-0.48-1.7-1.01-2.59-1.42L175,90.51
			c0,3.57,0.14,7.18,0,10.74c0.08,0.08,0.17,0.08,0.28,0.1c0.39-0.11,12.53-7.27,12.92-7.63l0.01-17.34
			C186.8,75.38,185.13,74.59,183.63,73.71z M182.56,85.25c-0.35,0.89-1.05,1.42-1.9,1.79c-0.69,0.14-1.36,0.16-2.02-0.12
			c-0.09-0.04-0.18-0.08-0.26-0.12c-0.08-0.05-0.17-0.1-0.24-0.15c-0.08-0.05-0.16-0.11-0.23-0.17c-0.08-0.06-0.15-0.13-0.21-0.2
			c-0.07-0.06-0.13-0.14-0.19-0.21s-0.12-0.15-0.17-0.23s-0.1-0.16-0.15-0.25c-0.04-0.08-0.08-0.17-0.12-0.26
			c-0.03-0.08-0.06-0.17-0.09-0.26c-0.02-0.09-0.04-0.19-0.06-0.28c-0.02-0.09-0.03-0.18-0.04-0.28c0-0.09-0.01-0.18,0-0.28
			c0-0.09,0.01-0.18,0.02-0.28c0.01-0.09,0.02-0.18,0.04-0.27c0.02-0.1,0.05-0.19,0.08-0.28c0.03-0.09,0.06-0.17,0.1-0.26
			c0.38-0.86,1.02-1.26,1.85-1.61c0.57-0.04,1.11-0.09,1.66,0.09c0.81,0.26,1.49,0.82,1.85,1.6
			C182.77,83.86,182.81,84.59,182.56,85.25z M175,90.51l0.04-21.71c-1.65,0.95-3.26,1.99-4.91,2.95c-2.65,1.55-5.42,3.06-7.95,4.8
			l-0.01,17c2.91,1.84,5.93,3.54,8.89,5.3c1.3,0.77,2.73,1.5,3.94,2.4C175.14,97.69,175,94.08,175,90.51z M173.32,85.3
			c-0.36,0.9-1.1,1.43-1.97,1.78c-0.14,0.04-0.28,0.07-0.43,0.09c-0.14,0.02-0.28,0.03-0.43,0.03c-0.14-0.01-0.29-0.02-0.43-0.04
			c-0.15-0.02-0.29-0.05-0.43-0.1c-0.09-0.02-0.18-0.06-0.27-0.09c-0.09-0.04-0.18-0.08-0.26-0.13c-0.09-0.04-0.17-0.09-0.25-0.15
			c-0.08-0.05-0.16-0.11-0.23-0.17c-0.08-0.06-0.15-0.13-0.22-0.2c-0.06-0.07-0.13-0.14-0.19-0.22c-0.06-0.07-0.11-0.15-0.16-0.23
			c-0.06-0.08-0.1-0.17-0.15-0.26c-0.04-0.08-0.08-0.17-0.11-0.26c-0.03-0.09-0.06-0.18-0.08-0.28c-0.03-0.09-0.05-0.18-0.06-0.28
			c-0.01-0.09-0.02-0.19-0.03-0.28v-0.29c0.01-0.1,0.02-0.19,0.03-0.29c0.02-0.09,0.04-0.18,0.06-0.28
			c0.03-0.09,0.06-0.18,0.09-0.27c0.35-0.95,1.06-1.45,1.93-1.85c0.55-0.06,1.11-0.1,1.64,0.07c0.8,0.24,1.48,0.78,1.86,1.54
			C173.56,83.82,173.61,84.6,173.32,85.3z M183.63,73.71c-1.99-1.18-3.98-2.35-6-3.49c-0.85-0.48-1.7-1.01-2.59-1.42
			c-1.65,0.95-3.26,1.99-4.91,2.95c-2.65,1.55-5.42,3.06-7.95,4.8l-0.01,17c2.91,1.84,5.93,3.54,8.89,5.3
			c1.3,0.77,2.73,1.5,3.94,2.4c0.08,0.08,0.17,0.08,0.28,0.1c0.39-0.11,12.53-7.27,12.92-7.63l0.01-17.34
			C186.8,75.38,185.13,74.59,183.63,73.71z M173.32,85.3c-0.36,0.9-1.1,1.43-1.97,1.78c-0.14,0.04-0.28,0.07-0.43,0.09
			c-0.14,0.02-0.28,0.03-0.43,0.03c-0.14-0.01-0.29-0.02-0.43-0.04c-0.15-0.02-0.29-0.05-0.43-0.1c-0.09-0.02-0.18-0.06-0.27-0.09
			c-0.09-0.04-0.18-0.08-0.26-0.13c-0.09-0.04-0.17-0.09-0.25-0.15c-0.08-0.05-0.16-0.11-0.23-0.17c-0.08-0.06-0.15-0.13-0.22-0.2
			c-0.06-0.07-0.13-0.14-0.19-0.22c-0.06-0.07-0.11-0.15-0.16-0.23c-0.06-0.08-0.1-0.17-0.15-0.26c-0.04-0.08-0.08-0.17-0.11-0.26
			c-0.03-0.09-0.06-0.18-0.08-0.28c-0.03-0.09-0.05-0.18-0.06-0.28c-0.01-0.09-0.02-0.19-0.03-0.28v-0.29
			c0.01-0.1,0.02-0.19,0.03-0.29c0.02-0.09,0.04-0.18,0.06-0.28c0.03-0.09,0.06-0.18,0.09-0.27c0.35-0.95,1.06-1.45,1.93-1.85
			c0.55-0.06,1.11-0.1,1.64,0.07c0.8,0.24,1.48,0.78,1.86,1.54C173.56,83.82,173.61,84.6,173.32,85.3z M182.56,85.25
			c-0.35,0.89-1.05,1.42-1.9,1.79c-0.69,0.14-1.36,0.16-2.02-0.12c-0.09-0.04-0.18-0.08-0.26-0.12c-0.08-0.05-0.17-0.1-0.24-0.15
			c-0.08-0.05-0.16-0.11-0.23-0.17c-0.08-0.06-0.15-0.13-0.21-0.2c-0.07-0.06-0.13-0.14-0.19-0.21s-0.12-0.15-0.17-0.23
			s-0.1-0.16-0.15-0.25c-0.04-0.08-0.08-0.17-0.12-0.26c-0.03-0.08-0.06-0.17-0.09-0.26c-0.02-0.09-0.04-0.19-0.06-0.28
			c-0.02-0.09-0.03-0.18-0.04-0.28c0-0.09-0.01-0.18,0-0.28c0-0.09,0.01-0.18,0.02-0.28c0.01-0.09,0.02-0.18,0.04-0.27
			c0.02-0.1,0.05-0.19,0.08-0.28c0.03-0.09,0.06-0.17,0.1-0.26c0.38-0.86,1.02-1.26,1.85-1.61c0.57-0.04,1.11-0.09,1.66,0.09
			c0.81,0.26,1.49,0.82,1.85,1.6C182.77,83.86,182.81,84.59,182.56,85.25z M191.63,93.27c0,0.72,0.15,1.66-0.31,2.25
			c0.03,0.54-0.04,0.84-0.42,1.23c-0.43,0.46-1.03,0.73-1.52,1.11c0.72-0.09,1.88-0.61,2.4-1.11c0.38-0.36,0.41-1.04,0.4-1.53
			C192.17,94.56,192.1,93.74,191.63,93.27z M216.77,60.78c-1.46-0.67-2.87-1.49-4.29-2.25l-7.42-4.01l-15.77-8.45
			c-4.19-2.26-8.37-4.58-12.63-6.71c-0.57-0.28-1.26-0.75-1.89-0.54c0.04,0.05,0.1,0.09,0.12,0.15c0.1,0.28,0.01,7.3,0.02,8.32
			c10.04-0.52,22.66,3.99,30.14,10.72c0.64,0.58,2.75,2.33,2.87,3.11c0.53,0.76,1.17,1.43,1.65,2.23c-0.57,0.4-2.21,1.32-2.55,1.78
			c-0.11,0.58-1.01,1.26-1.5,1.6c-0.29,0.2-0.49,0.33-0.86,0.28c-1.32-0.16-4.41-3.65-5.73-4.56c-0.56-0.38-1.24-0.61-1.87-0.84
			c-0.31-0.11-0.75-0.37-1.06-0.27c-0.21,0.32-0.07,0.69-0.18,1.03c-0.11,0.35-0.65,0.24-0.74,0.55c1.7,1.28,3.84,2.44,5.15,4.17
			l0.01,0.15c0.59,0.73,1.29,1.36,1.89,2.08c-0.48,0.33-1.22,0.71-1.59,1.13c-0.72,0.44-1.54,0.91-2.16,1.48
			c-0.01,0.09-0.01,0.16-0.03,0.24c-0.08,0.32-0.33,0.54-0.6,0.7c-0.68-0.01-3.03-2.28-3.74-2.78c-1.96-1.39-3.97-2.66-6.12-3.74
			c-0.18,0.02-0.13-0.01-0.26,0.08c-0.01,0.01-0.03,0.01-0.04,0.02c0.12,0.07,0.26,0.14,0.36,0.22c0.16,0.13,0.14,0.16,0.36,0.24
			c0.27,0.09,0.46,0.26,0.71,0.38c2.42,1.13,4.97,3.01,6.88,4.87c-0.77-0.05-2.32-1.59-3.26-1.69c-0.12-0.02-0.44,0.12-0.6,0.13
			c-0.21,0.02-0.49-0.16-0.64-0.3c-0.03-0.03-0.06-0.06-0.09-0.08l-0.06,0.05c0,0.53,1.67,3.29,1.91,4.38
			c-0.14,0.35-0.21,0.61-0.2,0.98c0,0.17,0.02,0.07-0.11,0.26c-0.2-0.05-0.44-0.96-0.72-1.22c-0.37-0.33-0.9-0.5-1.31-0.77
			c-3.91-2.55-8.44-5.22-12.55-7.43c-0.79-0.43-1.51-0.98-2.31-1.38c-0.33-0.17-0.69-0.33-1.07-0.31c-0.2,0.01-0.36,0.06-0.49,0.21
			c-0.45,0.51-1.14,0.68-1.69,1.08l0.15,0.08c0.79-0.38,1.5-0.88,2.27-1.29c3.4,1.85,6.74,3.86,10.06,5.83
			c2,1.18,4.14,2.31,6.02,3.66c0.46,0.33,1.19,0.81,1.36,1.37c0.14,0.43,0.06,0.87-0.18,1.25c-0.22,0.34-0.52,0.63-0.81,0.91
			l0.01,10.24c0,1.69-0.11,3.47,0.04,5.15c0,0.72,0.15,1.66-0.31,2.25c0.03,0.54-0.04,0.84-0.42,1.23
			c-0.43,0.46-1.03,0.73-1.52,1.11c-0.72,0.21-1.5,0.81-2.13,1.22c6.14-2.05,11.96-5.4,16.99-9.45c1-0.69,1.94-1.55,2.84-2.36
			c1.37-1.21,2.66-2.47,3.89-3.78c0.82-0.87,1.61-1.77,2.38-2.68c1.15-1.37,2.26-2.8,3.34-4.27C216.56,71.32,216.62,66,216.77,60.78
			z M187.53,66.31l0.02,0.09l0.16-0.11L187.53,66.31z M187.55,66.43V66.4l-0.03,0.02l0.03,0.06c0.01-0.01,0.02-0.02,0.04-0.03
			C187.58,66.44,187.56,66.44,187.55,66.43z M202.81,63.51c-0.29-0.26-0.59-0.52-0.89-0.77c-0.3-0.26-0.6-0.51-0.91-0.75
			c-0.31-0.25-0.62-0.49-0.93-0.73c-0.32-0.24-0.63-0.47-0.95-0.7c-0.32-0.23-0.65-0.45-0.98-0.67c-0.32-0.22-0.65-0.43-0.99-0.64
			c-0.33-0.21-0.66-0.42-1-0.62c-0.34-0.2-0.68-0.39-1.03-0.58c-0.34-0.19-0.69-0.38-1.04-0.56c-0.35-0.18-0.7-0.36-1.06-0.53
			c-0.35-0.17-0.71-0.34-1.07-0.5c-0.36-0.16-0.72-0.31-1.08-0.46c-0.36-0.15-0.73-0.3-1.1-0.44s-0.74-0.27-1.11-0.4
			c-0.37-0.13-0.74-0.26-1.12-0.38c-0.37-0.11-0.75-0.23-1.13-0.34c-10.13-2.81-21.33-1.76-30.54,3.43l0.19,0.09
			c0.81-0.35,1.56-0.93,2.36-1.24c0.27-0.1,0.57-0.12,0.84-0.23c1.1-0.44,2.17-1.01,3.3-1.38c1.12-0.36,7.33-1.94,8.14-1.76
			c-0.01,0.03-0.01,0.06-0.02,0.09c-0.01,0.16-0.01,0.1,0.05,0.26c0.72,0.09,1.5,0,2.22-0.01c1.49-0.03,2.99-0.03,4.47,0.07
			c9.47,0.65,16.67,3.46,24.07,9.38c0.75,0.61,2.83,2.73,3.51,2.95c0.1,0.04,0.24,0.02,0.34,0
			C204.66,65.15,203.67,64.3,202.81,63.51z M202.81,63.51c-0.29-0.26-0.59-0.52-0.89-0.77c-0.3-0.26-0.6-0.51-0.91-0.75
			c-0.31-0.25-0.62-0.49-0.93-0.73c-0.32-0.24-0.63-0.47-0.95-0.7c-0.32-0.23-0.65-0.45-0.98-0.67c-0.32-0.22-0.65-0.43-0.99-0.64
			c-0.33-0.21-0.66-0.42-1-0.62c-0.34-0.2-0.68-0.39-1.03-0.58c-0.34-0.19-0.69-0.38-1.04-0.56c-0.35-0.18-0.7-0.36-1.06-0.53
			c-0.35-0.17-0.71-0.34-1.07-0.5c-0.36-0.16-0.72-0.31-1.08-0.46c-0.36-0.15-0.73-0.3-1.1-0.44s-0.74-0.27-1.11-0.4
			c-0.37-0.13-0.74-0.26-1.12-0.38c-0.37-0.11-0.75-0.23-1.13-0.34c-10.13-2.81-21.33-1.76-30.54,3.43l0.19,0.09
			c0.81-0.35,1.56-0.93,2.36-1.24c0.27-0.1,0.57-0.12,0.84-0.23c1.1-0.44,2.17-1.01,3.3-1.38c1.12-0.36,7.33-1.94,8.14-1.76
			c-0.01,0.03-0.01,0.06-0.02,0.09c-0.01,0.16-0.01,0.1,0.05,0.26c0.72,0.09,1.5,0,2.22-0.01c1.49-0.03,2.99-0.03,4.47,0.07
			c9.47,0.65,16.67,3.46,24.07,9.38c0.75,0.61,2.83,2.73,3.51,2.95c0.1,0.04,0.24,0.02,0.34,0
			C204.66,65.15,203.67,64.3,202.81,63.51z M205.41,66.13c0.15,0.08,0.1,0.02,0.16,0.19c-0.35,0.2-0.83,0.08-1.17-0.1
			c-0.93-0.48-1.79-1.54-2.62-2.21c-1.7-1.37-7.59-5.7-9.63-5.69l-0.07,0.1l0.4,0.01c0.87,0.64,1.95,0.88,2.79,1.54
			c0.33,0.26,0.59,0.56,1.02,0.6l0.02,0.14l-0.11,0.06l0.13,0.02c-0.72-0.01-1.65-0.69-2.29-1.03c-0.65-0.34-1.61-0.55-2.31-0.24
			c-0.27,0.13-0.54,0.33-0.82,0.41c-0.14,0.03-0.23,0.02-0.35,0.12c-0.06,0.05-0.19,0.21-0.26,0.23c-0.28,0.07-2.3-0.91-2.73-1.06
			c-1.89-0.67-7.44-2.3-9.22-1.86c6.7,0.82,12.92,2.89,18.39,6.94c1.23,0.91,2.36,1.93,3.5,2.94l-0.01-0.15
			c-1.31-1.73-3.45-2.89-5.15-4.17c0.09-0.31,0.63-0.2,0.74-0.55c0.11-0.34-0.03-0.71,0.18-1.03c0.31-0.1,0.75,0.16,1.06,0.27
			c0.63,0.23,1.31,0.46,1.87,0.84c1.32,0.91,4.41,4.4,5.73,4.56c0.37,0.05,0.57-0.08,0.86-0.28c0.49-0.34,1.39-1.02,1.5-1.6
			C206.51,65.46,205.96,65.89,205.41,66.13z M191.86,67.18c-6.58-4.18-15.08-5.81-22.73-4.1c1.08,0.39,3.72-0.72,5.15-0.33
			l-0.12,0.09c-0.16-0.04-0.37-0.14-0.53-0.08c-0.3,0.12-0.66,0.02-0.88,0.23c1.37,0.22,2.86,0.08,4.25,0.14
			c3.53,0.16,7.26,0.96,10.51,2.4c2.4,1.07,4.61,2.43,6.78,3.92c0.88,0.6,2.74,2.72,3.69,2.74
			C196.76,70.47,193.68,68.34,191.86,67.18z M157.75,77.36c-0.36-0.42-0.22-1.06-0.17-1.56c-0.39,0.41-0.68,1.08-0.67,1.67
			c0,0.48,0.22,0.98,0.6,1.29c0.32,0.28,0.67,0.35,1.08,0.29c0.12-0.02,0.14-0.01,0.25-0.12c0.04-0.04,0.11-0.19,0.13-0.24
			C158.84,78.1,158.13,77.81,157.75,77.36z M216.77,60.78c-1.46-0.67-2.87-1.49-4.29-2.25l-7.42-4.01l-15.77-8.45
			c-4.19-2.26-8.37-4.58-12.63-6.71c-0.57-0.28-1.26-0.75-1.89-0.54c-7.43,3.75-14.67,7.91-21.98,11.89
			c-3.47,1.89-7.01,3.69-10.5,5.52c-2.91,1.53-5.72,3.28-8.71,4.65l0.01,9.23c0,1.58-0.07,3.19,0,4.77l0.08,0.09
			c1.59,1.97,2.96,4.12,4.56,6.1c0.32,0.39,0.64,0.77,0.97,1.16c0.33,0.38,0.66,0.76,1,1.13c0.34,0.38,0.68,0.75,1.03,1.11
			c0.35,0.37,0.7,0.73,1.06,1.08c0.35,0.36,0.72,0.71,1.08,1.06c0.37,0.35,0.74,0.69,1.11,1.02c0.38,0.34,0.76,0.67,1.14,1
			c0.38,0.33,0.77,0.65,1.16,0.97c0.4,0.32,0.79,0.63,1.19,0.93c0.4,0.31,0.81,0.61,1.21,0.91c0.41,0.3,0.82,0.59,1.24,0.87
			c0.41,0.29,0.83,0.57,1.26,0.84c0.42,0.28,0.85,0.55,1.28,0.81c0.43,0.27,0.86,0.52,1.29,0.78c0.44,0.25,0.88,0.5,1.32,0.74
			c0.45,0.24,0.89,0.47,1.34,0.7c2.2,1.15,4.72,2.57,7.13,3.2c-1.25-0.82-5.25-2.55-5.41-4.05c-0.04-0.36,0.11-0.78,0.27-1.09
			l0.09-0.02c0.06-1.32,0-2.68,0-4.01l-0.04-7.47c-0.01-1.1-0.21-3.02,0.02-4.05c-0.13-0.59-0.84-0.88-1.22-1.33
			c-0.36-0.42-0.22-1.06-0.17-1.56c0.18-0.28,0.37-0.54,0.64-0.75c0.91-0.74,2.09-1.31,3.09-1.93c2.24-1.41,4.5-2.78,6.79-4.11
			c1.58-0.93,3.25-1.82,4.76-2.86c0.79-0.38,1.5-0.88,2.27-1.29c3.4,1.85,6.74,3.86,10.06,5.83c2,1.18,4.14,2.31,6.02,3.66
			c0.46,0.33,1.19,0.81,1.36,1.37c0.14,0.43,0.06,0.87-0.18,1.25c-0.22,0.34-0.52,0.63-0.81,0.91l0.01,10.24
			c0,1.69-0.11,3.47,0.04,5.15c0,0.72,0.15,1.66-0.31,2.25c0.03,0.54-0.04,0.84-0.42,1.23c-0.43,0.46-1.03,0.73-1.52,1.11
			c-0.72,0.21-1.5,0.81-2.13,1.22c6.14-2.05,11.96-5.4,16.99-9.45c1-0.69,1.94-1.55,2.84-2.36c1.37-1.21,2.66-2.47,3.89-3.78
			c0.82-0.87,1.61-1.77,2.38-2.68c1.15-1.37,2.26-2.8,3.34-4.27C216.56,71.32,216.62,66,216.77,60.78z M200.54,70.45
			c-0.72,0.44-1.54,0.91-2.16,1.48l-0.4,0.26c-1.22-1.72-4.3-3.85-6.12-5.01c-6.58-4.18-15.08-5.81-22.73-4.1
			c-0.95,0.1-2.02,0.44-2.95,0.73c-5.21,1.62-9.43,4.6-13.59,8.04c-1.29-0.96-2.64-2-3.79-3.12c0.55-0.64,1.12-1.23,1.75-1.8
			c0.2-0.17,0.4-0.35,0.6-0.52c0.2-0.17,0.4-0.34,0.61-0.51c0.2-0.17,0.41-0.33,0.62-0.5c0.2-0.16,0.41-0.32,0.63-0.48
			c0.21-0.16,0.42-0.32,0.64-0.48c0.21-0.15,0.43-0.3,0.64-0.45c0.22-0.15,0.44-0.3,0.66-0.45c0.22-0.14,0.45-0.29,0.67-0.43
			c0.22-0.14,0.45-0.28,0.68-0.42c0.22-0.13,0.45-0.27,0.68-0.4c0.23-0.13,0.46-0.26,0.7-0.39c0.23-0.12,0.46-0.25,0.7-0.37
			c0.23-0.12,0.47-0.24,0.71-0.36c0.23-0.12,0.47-0.23,0.71-0.35c0.24-0.11,0.48-0.22,0.72-0.33c0.25-0.1,0.49-0.21,0.73-0.31
			c0.25-0.1,0.49-0.2,0.74-0.3c0.25-0.1,0.49-0.19,0.74-0.28c0.25-0.1,0.5-0.18,0.75-0.27s0.5-0.17,0.75-0.25
			c0.26-0.09,0.51-0.17,0.76-0.24c0.26-0.08,0.51-0.15,0.77-0.22c0.25-0.07,0.51-0.14,0.76-0.21c0.26-0.06,0.52-0.13,0.77-0.19
			c0.26-0.06,0.52-0.12,0.78-0.17c0.26-0.06,0.52-0.11,0.78-0.16c0.26-0.05,0.52-0.1,0.78-0.14c0.26-0.04,0.52-0.09,0.79-0.12
			c0.26-0.04,0.52-0.08,0.78-0.11c0.27-0.04,0.53-0.07,0.79-0.09c0.27-0.03,0.53-0.06,0.79-0.08c0.27-0.02,0.53-0.04,0.8-0.06
			c1.59-0.09,3.17-0.02,4.77,0.07c6.7,0.82,12.92,2.89,18.39,6.94c1.23,0.91,2.36,1.93,3.5,2.94c0.59,0.73,1.29,1.36,1.89,2.08
			C201.65,69.65,200.91,70.03,200.54,70.45z M207.02,65.13c-0.51,0.33-1.06,0.76-1.61,1l-0.06-0.04c-0.69-0.94-1.68-1.79-2.54-2.58
			c-0.29-0.26-0.59-0.52-0.89-0.77c-0.3-0.26-0.6-0.51-0.91-0.75c-0.31-0.25-0.62-0.49-0.93-0.73c-0.32-0.24-0.63-0.47-0.95-0.7
			c-0.32-0.23-0.65-0.45-0.98-0.67c-0.32-0.22-0.65-0.43-0.99-0.64c-0.33-0.21-0.66-0.42-1-0.62c-0.34-0.2-0.68-0.39-1.03-0.58
			c-0.34-0.19-0.69-0.38-1.04-0.56c-0.35-0.18-0.7-0.36-1.06-0.53c-0.35-0.17-0.71-0.34-1.07-0.5c-0.36-0.16-0.72-0.31-1.08-0.46
			c-0.36-0.15-0.73-0.3-1.1-0.44s-0.74-0.27-1.11-0.4c-0.37-0.13-0.74-0.26-1.12-0.38c-0.37-0.11-0.75-0.23-1.13-0.34
			c-10.13-2.81-21.33-1.76-30.54,3.43c-4.06,2.16-7.47,4.91-10.94,7.9c-1.36-0.99-2.71-2.15-3.91-3.33
			C148.3,54,161.21,48.41,172.2,47.6c0.38-0.03,0.75-0.05,1.12-0.06c0.37-0.02,0.74-0.03,1.11-0.04s0.75-0.01,1.12-0.01
			s0.74,0.01,1.11,0.02s0.75,0.03,1.12,0.05c0.37,0.02,0.74,0.04,1.11,0.07c0.37,0.03,0.74,0.06,1.11,0.1
			c0.37,0.04,0.74,0.08,1.11,0.12c0.37,0.05,0.74,0.1,1.1,0.16c0.37,0.05,0.74,0.11,1.1,0.18c0.37,0.06,0.74,0.13,1.1,0.2
			c0.36,0.08,0.73,0.15,1.09,0.24c0.36,0.08,0.72,0.16,1.08,0.26c0.37,0.09,0.72,0.18,1.08,0.28c0.36,0.1,0.72,0.2,1.07,0.31
			c0.36,0.11,0.71,0.22,1.07,0.34c0.35,0.12,0.7,0.24,1.05,0.36c0.35,0.13,0.7,0.26,1.05,0.39c0.34,0.14,0.69,0.27,1.03,0.42
			c0.35,0.14,0.69,0.29,1.03,0.44c0.34,0.15,0.67,0.3,1.01,0.46c0.34,0.16,0.67,0.32,1,0.49c0.34,0.17,0.67,0.34,0.99,0.51
			c0.33,0.18,0.66,0.35,0.98,0.54c0.33,0.18,0.65,0.37,0.97,0.56c0.32,0.19,0.63,0.38,0.95,0.58c0.31,0.2,0.62,0.4,0.93,0.61
			c0.31,0.2,0.62,0.41,0.92,0.63c0.31,0.21,0.61,0.43,0.91,0.65c0.3,0.22,0.59,0.44,0.89,0.67c0.29,0.23,0.58,0.46,0.87,0.69
			c0.29,0.24,0.57,0.48,0.86,0.72c0.94,0.81,1.83,1.67,2.68,2.58c0.53,0.76,1.17,1.43,1.65,2.23
			C209,63.75,207.36,64.67,207.02,65.13z M183.63,73.71c-1.99-1.18-3.98-2.35-6-3.49c-0.85-0.48-1.7-1.01-2.59-1.42
			c-1.65,0.95-3.26,1.99-4.91,2.95c-2.65,1.55-5.42,3.06-7.95,4.8l-0.01,17c2.91,1.84,5.93,3.54,8.89,5.3
			c1.3,0.77,2.73,1.5,3.94,2.4c0.08,0.08,0.17,0.08,0.28,0.1c0.39-0.11,12.53-7.27,12.92-7.63l0.01-17.34
			C186.8,75.38,185.13,74.59,183.63,73.71z M173.32,85.3c-0.36,0.9-1.1,1.43-1.97,1.78c-0.14,0.04-0.28,0.07-0.43,0.09
			c-0.14,0.02-0.28,0.03-0.43,0.03c-0.14-0.01-0.29-0.02-0.43-0.04c-0.15-0.02-0.29-0.05-0.43-0.1c-0.09-0.02-0.18-0.06-0.27-0.09
			c-0.09-0.04-0.18-0.08-0.26-0.13c-0.09-0.04-0.17-0.09-0.25-0.15c-0.08-0.05-0.16-0.11-0.23-0.17c-0.08-0.06-0.15-0.13-0.22-0.2
			c-0.06-0.07-0.13-0.14-0.19-0.22c-0.06-0.07-0.11-0.15-0.16-0.23c-0.06-0.08-0.1-0.17-0.15-0.26c-0.04-0.08-0.08-0.17-0.11-0.26
			c-0.03-0.09-0.06-0.18-0.08-0.28c-0.03-0.09-0.05-0.18-0.06-0.28c-0.01-0.09-0.02-0.19-0.03-0.28v-0.29
			c0.01-0.1,0.02-0.19,0.03-0.29c0.02-0.09,0.04-0.18,0.06-0.28c0.03-0.09,0.06-0.18,0.09-0.27c0.35-0.95,1.06-1.45,1.93-1.85
			c0.55-0.06,1.11-0.1,1.64,0.07c0.8,0.24,1.48,0.78,1.86,1.54C173.56,83.82,173.61,84.6,173.32,85.3z M182.56,85.25
			c-0.35,0.89-1.05,1.42-1.9,1.79c-0.69,0.14-1.36,0.16-2.02-0.12c-0.09-0.04-0.18-0.08-0.26-0.12c-0.08-0.05-0.17-0.1-0.24-0.15
			c-0.08-0.05-0.16-0.11-0.23-0.17c-0.08-0.06-0.15-0.13-0.21-0.2c-0.07-0.06-0.13-0.14-0.19-0.21s-0.12-0.15-0.17-0.23
			s-0.1-0.16-0.15-0.25c-0.04-0.08-0.08-0.17-0.12-0.26c-0.03-0.08-0.06-0.17-0.09-0.26c-0.02-0.09-0.04-0.19-0.06-0.28
			c-0.02-0.09-0.03-0.18-0.04-0.28c0-0.09-0.01-0.18,0-0.28c0-0.09,0.01-0.18,0.02-0.28c0.01-0.09,0.02-0.18,0.04-0.27
			c0.02-0.1,0.05-0.19,0.08-0.28c0.03-0.09,0.06-0.17,0.1-0.26c0.38-0.86,1.02-1.26,1.85-1.61c0.57-0.04,1.11-0.09,1.66,0.09
			c0.81,0.26,1.49,0.82,1.85,1.6C182.77,83.86,182.81,84.59,182.56,85.25z M237.58,106.97l-0.09-0.17l-0.09-0.01
			c-1.86,0.37-3.74,0.69-5.59,1.1c0.03,3.12-0.06,6.18-0.53,9.26c-0.04,0.29-0.09,0.59-0.15,0.88c-0.05,0.29-0.1,0.58-0.16,0.87
			c-0.06,0.3-0.12,0.59-0.18,0.88c-0.06,0.29-0.13,0.58-0.19,0.86c-0.07,0.29-0.14,0.58-0.22,0.87c-0.07,0.29-0.15,0.57-0.23,0.86
			c-0.08,0.29-0.16,0.57-0.24,0.86c-0.09,0.28-0.18,0.56-0.27,0.85c-0.09,0.28-0.18,0.56-0.28,0.84c-0.09,0.28-0.19,0.56-0.29,0.84
			c-0.1,0.28-0.21,0.56-0.31,0.84c-0.11,0.27-0.22,0.55-0.33,0.82c-0.11,0.28-0.23,0.55-0.34,0.83c-0.12,0.27-0.24,0.54-0.36,0.81
			c-0.12,0.27-0.25,0.54-0.38,0.81c-0.12,0.27-0.25,0.53-0.39,0.8c-0.13,0.26-0.26,0.53-0.4,0.79c-0.14,0.27-0.28,0.53-0.42,0.79
			s-0.29,0.52-0.44,0.77c-0.14,0.26-0.29,0.52-0.45,0.77c-0.15,0.26-0.3,0.51-0.46,0.76c-0.16,0.25-0.32,0.5-0.48,0.75
			c-0.16,0.25-0.33,0.5-0.49,0.74c-0.17,0.25-0.34,0.49-0.51,0.74c-0.17,0.24-0.35,0.48-0.52,0.72c-0.18,0.24-0.36,0.47-0.54,0.71
			c-0.18,0.23-0.36,0.47-0.55,0.7c-0.18,0.23-0.37,0.46-0.56,0.69c-0.19,0.23-0.38,0.45-0.58,0.68c-0.19,0.22-0.39,0.45-0.58,0.67
			c-0.2,0.22-0.4,0.44-0.61,0.65c-0.2,0.22-0.4,0.44-0.61,0.65c-1.5,1.52-3.09,2.99-4.85,4.2c-1.44,1-3.05,1.77-4.58,2.62
			c-1.62,0.9-3.2,1.86-4.81,2.79l-19.53,11.1c-2.18,1.22-4.35,2.46-6.51,3.71c-1.06,0.62-2.17,1.2-3.19,1.88
			c-4.23-2.54-8.58-4.9-12.89-7.31l-12.55-7.11l-8.07-4.55c-1.69-0.94-3.47-1.85-5.08-2.94c-8.26-5.62-14.33-14.61-16.74-24.27
			c-1.22-4.89-1.27-9.19-1.28-14.19c-1.96-0.34-3.95-0.75-5.92-0.99c-0.02,2.32,0.01,4.64,0.09,6.95
			c0.28,12.17,6.07,24.29,14.81,32.65c4.4,4.2,8.83,6.48,14.05,9.46l14.03,7.94l13.84,7.86c1.89,1.06,3.75,2.23,5.67,3.22
			c3.98-2.06,7.88-4.41,11.76-6.65c5.59-3.16,11.15-6.36,16.68-9.61l8.5-4.9c4.16-2.38,7.04-3.78,10.56-7.22
			c5.37-5.25,9.93-13.44,12.22-20.58C237,119.96,237.75,113.63,237.58,106.97z M222.85,92.12l-35.7,20.79
			c-3.93,2.25-7.82,4.55-11.8,6.73c-2.03-1.12-3.99-2.37-6-3.53l-15.85-9.15c-8.61-4.95-17.36-9.67-25.92-14.7
			c0,1.22-0.17,9.52,0.15,9.94l0.1,0.06c10.81,6.05,21.54,12.24,32.2,18.55l10.62,6.14c1.56,0.91,3.16,2.12,4.82,2.83
			c1.19-0.66,2.31-1.43,3.49-2.11c4.02-2.31,8.03-4.65,12.02-7.03l20.85-12.09l6.47-3.69c1.55-0.91,3.08-1.89,4.67-2.73
			C222.96,100.95,223.06,92.35,222.85,92.12z M183.63,73.71c-1.99-1.18-3.98-2.35-6-3.49c-0.85-0.48-1.7-1.01-2.59-1.42
			c-1.65,0.95-3.26,1.99-4.91,2.95c-2.65,1.55-5.42,3.06-7.95,4.8l-0.01,17c2.91,1.84,5.93,3.54,8.89,5.3
			c1.3,0.77,2.73,1.5,3.94,2.4c0.08,0.08,0.17,0.08,0.28,0.1c0.39-0.11,12.53-7.27,12.92-7.63l0.01-17.34
			C186.8,75.38,185.13,74.59,183.63,73.71z M173.32,85.3c-0.36,0.9-1.1,1.43-1.97,1.78c-0.14,0.04-0.28,0.07-0.43,0.09
			c-0.14,0.02-0.28,0.03-0.43,0.03c-0.14-0.01-0.29-0.02-0.43-0.04c-0.15-0.02-0.29-0.05-0.43-0.1c-0.09-0.02-0.18-0.06-0.27-0.09
			c-0.09-0.04-0.18-0.08-0.26-0.13c-0.09-0.04-0.17-0.09-0.25-0.15c-0.08-0.05-0.16-0.11-0.23-0.17c-0.08-0.06-0.15-0.13-0.22-0.2
			c-0.06-0.07-0.13-0.14-0.19-0.22c-0.06-0.07-0.11-0.15-0.16-0.23c-0.06-0.08-0.1-0.17-0.15-0.26c-0.04-0.08-0.08-0.17-0.11-0.26
			c-0.03-0.09-0.06-0.18-0.08-0.28c-0.03-0.09-0.05-0.18-0.06-0.28c-0.01-0.09-0.02-0.19-0.03-0.28v-0.29
			c0.01-0.1,0.02-0.19,0.03-0.29c0.02-0.09,0.04-0.18,0.06-0.28c0.03-0.09,0.06-0.18,0.09-0.27c0.35-0.95,1.06-1.45,1.93-1.85
			c0.55-0.06,1.11-0.1,1.64,0.07c0.8,0.24,1.48,0.78,1.86,1.54C173.56,83.82,173.61,84.6,173.32,85.3z M182.56,85.25
			c-0.35,0.89-1.05,1.42-1.9,1.79c-0.69,0.14-1.36,0.16-2.02-0.12c-0.09-0.04-0.18-0.08-0.26-0.12c-0.08-0.05-0.17-0.1-0.24-0.15
			c-0.08-0.05-0.16-0.11-0.23-0.17c-0.08-0.06-0.15-0.13-0.21-0.2c-0.07-0.06-0.13-0.14-0.19-0.21s-0.12-0.15-0.17-0.23
			s-0.1-0.16-0.15-0.25c-0.04-0.08-0.08-0.17-0.12-0.26c-0.03-0.08-0.06-0.17-0.09-0.26c-0.02-0.09-0.04-0.19-0.06-0.28
			c-0.02-0.09-0.03-0.18-0.04-0.28c0-0.09-0.01-0.18,0-0.28c0-0.09,0.01-0.18,0.02-0.28c0.01-0.09,0.02-0.18,0.04-0.27
			c0.02-0.1,0.05-0.19,0.08-0.28c0.03-0.09,0.06-0.17,0.1-0.26c0.38-0.86,1.02-1.26,1.85-1.61c0.57-0.04,1.11-0.09,1.66,0.09
			c0.81,0.26,1.49,0.82,1.85,1.6C182.77,83.86,182.81,84.59,182.56,85.25z M183.63,73.71c-1.99-1.18-3.98-2.35-6-3.49
			c-0.85-0.48-1.7-1.01-2.59-1.42c-1.65,0.95-3.26,1.99-4.91,2.95c-2.65,1.55-5.42,3.06-7.95,4.8l-0.01,17
			c2.91,1.84,5.93,3.54,8.89,5.3c1.3,0.77,2.73,1.5,3.94,2.4c0.08,0.08,0.17,0.08,0.28,0.1c0.39-0.11,12.53-7.27,12.92-7.63
			l0.01-17.34C186.8,75.38,185.13,74.59,183.63,73.71z M173.32,85.3c-0.36,0.9-1.1,1.43-1.97,1.78c-0.14,0.04-0.28,0.07-0.43,0.09
			c-0.14,0.02-0.28,0.03-0.43,0.03c-0.14-0.01-0.29-0.02-0.43-0.04c-0.15-0.02-0.29-0.05-0.43-0.1c-0.09-0.02-0.18-0.06-0.27-0.09
			c-0.09-0.04-0.18-0.08-0.26-0.13c-0.09-0.04-0.17-0.09-0.25-0.15c-0.08-0.05-0.16-0.11-0.23-0.17c-0.08-0.06-0.15-0.13-0.22-0.2
			c-0.06-0.07-0.13-0.14-0.19-0.22c-0.06-0.07-0.11-0.15-0.16-0.23c-0.06-0.08-0.1-0.17-0.15-0.26c-0.04-0.08-0.08-0.17-0.11-0.26
			c-0.03-0.09-0.06-0.18-0.08-0.28c-0.03-0.09-0.05-0.18-0.06-0.28c-0.01-0.09-0.02-0.19-0.03-0.28v-0.29
			c0.01-0.1,0.02-0.19,0.03-0.29c0.02-0.09,0.04-0.18,0.06-0.28c0.03-0.09,0.06-0.18,0.09-0.27c0.35-0.95,1.06-1.45,1.93-1.85
			c0.55-0.06,1.11-0.1,1.64,0.07c0.8,0.24,1.48,0.78,1.86,1.54C173.56,83.82,173.61,84.6,173.32,85.3z M182.56,85.25
			c-0.35,0.89-1.05,1.42-1.9,1.79c-0.69,0.14-1.36,0.16-2.02-0.12c-0.09-0.04-0.18-0.08-0.26-0.12c-0.08-0.05-0.17-0.1-0.24-0.15
			c-0.08-0.05-0.16-0.11-0.23-0.17c-0.08-0.06-0.15-0.13-0.21-0.2c-0.07-0.06-0.13-0.14-0.19-0.21s-0.12-0.15-0.17-0.23
			s-0.1-0.16-0.15-0.25c-0.04-0.08-0.08-0.17-0.12-0.26c-0.03-0.08-0.06-0.17-0.09-0.26c-0.02-0.09-0.04-0.19-0.06-0.28
			c-0.02-0.09-0.03-0.18-0.04-0.28c0-0.09-0.01-0.18,0-0.28c0-0.09,0.01-0.18,0.02-0.28c0.01-0.09,0.02-0.18,0.04-0.27
			c0.02-0.1,0.05-0.19,0.08-0.28c0.03-0.09,0.06-0.17,0.1-0.26c0.38-0.86,1.02-1.26,1.85-1.61c0.57-0.04,1.11-0.09,1.66,0.09
			c0.81,0.26,1.49,0.82,1.85,1.6C182.77,83.86,182.81,84.59,182.56,85.25z M216.69,76.54c-1.08,1.47-2.19,2.9-3.34,4.27
			c-0.77,0.91-1.56,1.81-2.38,2.68c-1.23,1.31-2.52,2.57-3.89,3.78c-0.9,0.81-1.84,1.67-2.84,2.36c-5.03,4.05-10.85,7.4-16.99,9.45
			c0.63-0.41,1.41-1.01,2.13-1.22c0.49-0.38,1.09-0.65,1.52-1.11c0.38-0.39,0.45-0.69,0.42-1.23c-1.41,1.06-14.56,9-15.64,9.15
			c-0.44,0.06-0.98-0.07-1.38-0.25c-1.01-0.47-1.98-1.11-2.94-1.68l-5.23-3.12c-1.89-1.12-4.57-2.44-6.26-3.72
			c-0.62-0.48-0.78-0.91-0.88-1.68l-0.09,0.02c-0.16,0.31-0.31,0.73-0.27,1.09c0.16,1.5,4.16,3.23,5.41,4.05
			c-2.41-0.63-4.93-2.05-7.13-3.2c-0.45-0.23-0.89-0.46-1.34-0.7c-0.44-0.24-0.88-0.49-1.32-0.74c-0.43-0.26-0.86-0.51-1.29-0.78
			c-0.43-0.26-0.86-0.53-1.28-0.81c-0.43-0.27-0.85-0.55-1.26-0.84c-0.42-0.28-0.83-0.57-1.24-0.87c-0.4-0.3-0.81-0.6-1.21-0.91
			c-0.4-0.3-0.79-0.61-1.19-0.93c-0.39-0.32-0.78-0.64-1.16-0.97c-0.38-0.33-0.76-0.66-1.14-1c-0.37-0.33-0.74-0.67-1.11-1.02
			c-0.36-0.35-0.73-0.7-1.08-1.06c-0.36-0.35-0.71-0.71-1.06-1.08c-0.35-0.36-0.69-0.73-1.03-1.11c-0.34-0.37-0.67-0.75-1-1.13
			c-0.33-0.39-0.65-0.77-0.97-1.16c-1.6-1.98-2.97-4.13-4.56-6.1l-0.08-0.09c-0.02,5.94-0.08,11.89,0,17.83
			c3.78,1.9,7.38,4.24,11.07,6.31c9.84,5.52,19.63,11.13,29.36,16.82l0.03-10.68c0.9,0.37,1.35,0.46,2.31,0.29
			c0.04,3.55,0.06,7.1,0.05,10.66c3.24-2.05,6.66-3.86,9.97-5.8l20.86-12.24c3.17-1.86,6.4-3.63,9.53-5.56L216.69,76.54z
			 M175,101.25c0.08,0.08,0.17,0.08,0.28,0.1c0.39-0.11,12.53-7.27,12.92-7.63l0.01-17.34c-1.41-1-3.08-1.79-4.58-2.67
			c-1.99-1.18-3.98-2.35-6-3.49c-0.85-0.48-1.7-1.01-2.59-1.42c-1.65,0.95-3.26,1.99-4.91,2.95c-2.65,1.55-5.42,3.06-7.95,4.8
			l-0.01,17c2.91,1.84,5.93,3.54,8.89,5.3C172.36,99.62,173.79,100.35,175,101.25z M176.88,84.23c0-0.09,0.01-0.18,0.02-0.28
			c0.01-0.09,0.02-0.18,0.04-0.27c0.02-0.1,0.05-0.19,0.08-0.28c0.03-0.09,0.06-0.17,0.1-0.26c0.38-0.86,1.02-1.26,1.85-1.61
			c0.57-0.04,1.11-0.09,1.66,0.09c0.81,0.26,1.49,0.82,1.85,1.6c0.29,0.64,0.33,1.37,0.08,2.03c-0.35,0.89-1.05,1.42-1.9,1.79
			c-0.69,0.14-1.36,0.16-2.02-0.12c-0.09-0.04-0.18-0.08-0.26-0.12c-0.08-0.05-0.17-0.1-0.24-0.15c-0.08-0.05-0.16-0.11-0.23-0.17
			c-0.08-0.06-0.15-0.13-0.21-0.2c-0.07-0.06-0.13-0.14-0.19-0.21s-0.12-0.15-0.17-0.23s-0.1-0.16-0.15-0.25
			c-0.04-0.08-0.08-0.17-0.12-0.26c-0.03-0.08-0.06-0.17-0.09-0.26c-0.02-0.09-0.04-0.19-0.06-0.28c-0.02-0.09-0.03-0.18-0.04-0.28
			C176.88,84.42,176.87,84.33,176.88,84.23z M170.49,87.2c-0.14-0.01-0.29-0.02-0.43-0.04c-0.15-0.02-0.29-0.05-0.43-0.1
			c-0.09-0.02-0.18-0.06-0.27-0.09c-0.09-0.04-0.18-0.08-0.26-0.13c-0.09-0.04-0.17-0.09-0.25-0.15c-0.08-0.05-0.16-0.11-0.23-0.17
			c-0.08-0.06-0.15-0.13-0.22-0.2c-0.06-0.07-0.13-0.14-0.19-0.22c-0.06-0.07-0.11-0.15-0.16-0.23c-0.06-0.08-0.1-0.17-0.15-0.26
			c-0.04-0.08-0.08-0.17-0.11-0.26c-0.03-0.09-0.06-0.18-0.08-0.28c-0.03-0.09-0.05-0.18-0.06-0.28c-0.01-0.09-0.02-0.19-0.03-0.28
			v-0.29c0.01-0.1,0.02-0.19,0.03-0.29c0.02-0.09,0.04-0.18,0.06-0.28c0.03-0.09,0.06-0.18,0.09-0.27c0.35-0.95,1.06-1.45,1.93-1.85
			c0.55-0.06,1.11-0.1,1.64,0.07c0.8,0.24,1.48,0.78,1.86,1.54c0.33,0.68,0.38,1.46,0.09,2.16c-0.36,0.9-1.1,1.43-1.97,1.78
			c-0.14,0.04-0.28,0.07-0.43,0.09C170.78,87.19,170.64,87.2,170.49,87.2z M183.63,73.71c-1.99-1.18-3.98-2.35-6-3.49
			c-0.85-0.48-1.7-1.01-2.59-1.42c-1.65,0.95-3.26,1.99-4.91,2.95c-2.65,1.55-5.42,3.06-7.95,4.8l-0.01,17
			c2.91,1.84,5.93,3.54,8.89,5.3c1.3,0.77,2.73,1.5,3.94,2.4c0.08,0.08,0.17,0.08,0.28,0.1c0.39-0.11,12.53-7.27,12.92-7.63
			l0.01-17.34C186.8,75.38,185.13,74.59,183.63,73.71z M173.32,85.3c-0.36,0.9-1.1,1.43-1.97,1.78c-0.14,0.04-0.28,0.07-0.43,0.09
			c-0.14,0.02-0.28,0.03-0.43,0.03c-0.14-0.01-0.29-0.02-0.43-0.04c-0.15-0.02-0.29-0.05-0.43-0.1c-0.09-0.02-0.18-0.06-0.27-0.09
			c-0.09-0.04-0.18-0.08-0.26-0.13c-0.09-0.04-0.17-0.09-0.25-0.15c-0.08-0.05-0.16-0.11-0.23-0.17c-0.08-0.06-0.15-0.13-0.22-0.2
			c-0.06-0.07-0.13-0.14-0.19-0.22c-0.06-0.07-0.11-0.15-0.16-0.23c-0.06-0.08-0.1-0.17-0.15-0.26c-0.04-0.08-0.08-0.17-0.11-0.26
			c-0.03-0.09-0.06-0.18-0.08-0.28c-0.03-0.09-0.05-0.18-0.06-0.28c-0.01-0.09-0.02-0.19-0.03-0.28v-0.29
			c0.01-0.1,0.02-0.19,0.03-0.29c0.02-0.09,0.04-0.18,0.06-0.28c0.03-0.09,0.06-0.18,0.09-0.27c0.35-0.95,1.06-1.45,1.93-1.85
			c0.55-0.06,1.11-0.1,1.64,0.07c0.8,0.24,1.48,0.78,1.86,1.54C173.56,83.82,173.61,84.6,173.32,85.3z M182.56,85.25
			c-0.35,0.89-1.05,1.42-1.9,1.79c-0.69,0.14-1.36,0.16-2.02-0.12c-0.09-0.04-0.18-0.08-0.26-0.12c-0.08-0.05-0.17-0.1-0.24-0.15
			c-0.08-0.05-0.16-0.11-0.23-0.17c-0.08-0.06-0.15-0.13-0.21-0.2c-0.07-0.06-0.13-0.14-0.19-0.21s-0.12-0.15-0.17-0.23
			s-0.1-0.16-0.15-0.25c-0.04-0.08-0.08-0.17-0.12-0.26c-0.03-0.08-0.06-0.17-0.09-0.26c-0.02-0.09-0.04-0.19-0.06-0.28
			c-0.02-0.09-0.03-0.18-0.04-0.28c0-0.09-0.01-0.18,0-0.28c0-0.09,0.01-0.18,0.02-0.28c0.01-0.09,0.02-0.18,0.04-0.27
			c0.02-0.1,0.05-0.19,0.08-0.28c0.03-0.09,0.06-0.17,0.1-0.26c0.38-0.86,1.02-1.26,1.85-1.61c0.57-0.04,1.11-0.09,1.66,0.09
			c0.81,0.26,1.49,0.82,1.85,1.6C182.77,83.86,182.81,84.59,182.56,85.25z M233.24,45.61l-5.8-3.12l-19.08-10.4l-22.75-12.23
			l-6.63-3.63c-1.26-0.69-2.51-1.42-3.83-2.01c-2.27,1.12-4.49,2.39-6.72,3.6l-17.18,9.37l-22.16,11.88
			c-5.45,2.92-10.95,5.78-16.33,8.83c0.01,1.53-0.02,3.05,0.02,4.57c0.46-1.3-0.18-2.86,0.2-4.19c0.07-0.22,0.19-0.32,0.35-0.43
			c0.06-0.03,0.12-0.07,0.18-0.11c0.29-0.18,0.58-0.36,0.87-0.54c0.59-0.35,1.19-0.69,1.79-1.01c0.61-0.33,1.22-0.64,1.83-0.96
			c0.91-0.47,1.83-0.94,2.72-1.43l17.39-9.39c0.2,0.07,0.39,0.12,0.59,0.15c0.21-0.11,0.49-0.29,0.73-0.31
			c1.08-0.07,3.11-0.07,4.18-0.01c0.1,0.19,0.04,0.1,0.21,0.26c0.11-0.03,0.21-0.07,0.32-0.1c0.66-0.19,1.34,0.37,1.92,0.67
			l-0.11,0.01l0.17,0.04l-0.14,0.16l0.03,0.1l0.35,0.01l0.04,0.06c-0.15,0.12-0.31,0.23-0.46,0.34c-0.01,0.16-0.01,0.57-0.11,0.71
			c-0.13,0.17-14.72,7.93-16.66,8.98c-0.67,0.37-2.85,1.36-3.25,1.86c-0.04,0.05-0.07,0.1-0.11,0.15c2.37-1.16,4.66-2.5,6.97-3.75
			l14.2-7.65l15.25-8.18c4.33-2.3,8.69-4.57,12.94-7.02l38.32,20.53l10.82,5.89c1.69,0.93,3.35,1.94,5.07,2.79
			c-0.07-0.13-0.14-0.24-0.27-0.32c-0.61-0.43-1.36-0.78-2.01-1.15c-1.75-0.98-3.51-1.92-5.26-2.88
			c-5.01-2.74-10.02-5.56-15.11-8.15l-0.03-0.11c0.33-0.42,1.19-0.61,1.7-0.75c1.11-0.31,2.88,0.08,4.11-0.05
			c0.23-0.02,0.55-0.07,0.77-0.02c0.13,0.02,0.34,0.18,0.46,0.25l0.06-0.04l0.04,0.13c0.16-0.1,0.3-0.18,0.47-0.26
			c0.83,0.58,1.87,0.72,2.82,1.01c0.69,0.22,1.41,0.44,2.12,0.7c0.18,0.06,0.35,0.13,0.53,0.2c0.35,0.13,0.7,0.28,1.03,0.43
			c0.17,0.08,0.33,0.17,0.49,0.25c0.1,0.05,0.25,0.13,0.44,0.23c0.28,0.16,0.66,0.36,1.1,0.6c0.56,0.31,1.22,0.67,1.95,1.07
			c0.24,0.14,0.49,0.28,0.75,0.42c0.21,0.12,0.42,0.23,0.63,0.35c0.85,0.47,1.76,0.97,2.67,1.47c1.36,0.75,2.73,1.5,3.95,2.16
			c0.4,0.22,0.79,0.43,1.15,0.63c0.55,0.29,1.04,0.56,1.47,0.78c0.28,0.15,0.52,0.27,0.73,0.38c0.42,0.21,0.69,0.33,0.75,0.34
			c0.04,0.01,0.08,0,0.12,0C235.85,46.93,234.5,46.28,233.24,45.61z M146.36,35.39l-0.35-0.01l-0.03-0.1l0.14-0.16l-0.17-0.04
			l0.11-0.01c-0.58-0.3-1.26-0.86-1.92-0.67c-0.11,0.03-0.21,0.07-0.32,0.1c-0.17-0.16-0.11-0.07-0.21-0.26
			c-1.07-0.06-3.1-0.06-4.18,0.01c-0.24,0.02-0.52,0.2-0.73,0.31c-0.2-0.03-0.39-0.08-0.59-0.15l-17.39,9.39
			c-0.89,0.49-1.81,0.96-2.72,1.43c-0.61,0.32-1.22,0.63-1.83,0.96c-0.6,0.32-1.2,0.66-1.79,1.01c-0.29,0.17-0.58,0.35-0.87,0.53
			c-0.06,0.04-0.12,0.08-0.18,0.12c-0.16,0.11-0.28,0.21-0.35,0.43c-0.38,1.33,0.26,2.89-0.2,4.19c-0.16,9.34-0.02,18.7-0.02,28.04
			c1.99,0.9,3.95,2.11,5.88,3.14l-0.07-32.17c2.35-1.36,5.03-2.47,7.24-3.99c0.04-0.05,0.07-0.1,0.11-0.15
			c0.4-0.5,2.58-1.49,3.25-1.86c1.94-1.05,16.53-8.81,16.66-8.98c0.1-0.14,0.1-0.55,0.11-0.71c0.15-0.11,0.31-0.22,0.46-0.34
			L146.36,35.39z M237.62,48.09c-0.2-0.12-0.4-0.22-0.61-0.32c-0.04,0-0.08,0.01-0.12,0c-0.06-0.01-0.33-0.13-0.75-0.34
			c-0.21-0.11-0.45-0.23-0.73-0.38c-0.43-0.22-0.92-0.49-1.47-0.78c-0.36-0.2-0.75-0.41-1.15-0.63c-1.22-0.66-2.59-1.41-3.95-2.16
			c-0.91-0.5-1.82-1-2.67-1.47c-0.21-0.12-0.42-0.23-0.63-0.35c-0.26-0.14-0.51-0.28-0.75-0.42c-0.73-0.4-1.39-0.76-1.95-1.07
			c-0.44-0.24-0.82-0.44-1.1-0.6c-0.19-0.11-0.34-0.19-0.44-0.24c-0.16-0.08-0.32-0.16-0.49-0.24c-0.33-0.15-0.68-0.3-1.03-0.43
			c-0.18-0.07-0.35-0.14-0.53-0.2c-0.71-0.26-1.43-0.48-2.12-0.7c-0.95-0.29-1.99-0.43-2.82-1.01c-0.17,0.08-0.31,0.16-0.47,0.26
			l-0.04-0.13l-0.06,0.04c-0.12-0.07-0.33-0.23-0.46-0.25c-0.22-0.05-0.54,0-0.77,0.02c-1.23,0.13-3-0.26-4.11,0.05
			c-0.51,0.14-1.37,0.33-1.7,0.75l0.03,0.11c5.09,2.59,10.1,5.41,15.11,8.15c1.75,0.96,3.51,1.9,5.26,2.88
			c0.65,0.37,1.4,0.72,2.01,1.15c0.13,0.08,0.2,0.19,0.27,0.32c0.81,0.53,1.71,0.97,2.56,1.43v32.48c1.88-0.95,3.75-1.94,5.6-2.95
			C237.62,70.07,237.65,59.08,237.62,48.09z M106.9,100.87c-0.19-0.65-0.65-1.17-1.25-1.47c-0.39-0.2-0.79-0.25-1.22-0.28
			c-0.78,0.12-1.4,0.37-1.87,1.03c-0.05,0.07-0.09,0.14-0.13,0.21c-0.04,0.07-0.08,0.15-0.11,0.22c-0.03,0.08-0.06,0.16-0.08,0.24
			c-0.03,0.08-0.05,0.16-0.07,0.24c-0.01,0.08-0.02,0.16-0.03,0.24s-0.01,0.17-0.01,0.25s0.01,0.16,0.01,0.25
			c0.01,0.08,0.03,0.16,0.05,0.24c0.14,0.68,0.57,1.23,1.16,1.59c0.48,0.28,0.93,0.31,1.47,0.32c0.77-0.17,1.4-0.47,1.83-1.16
			C107,102.23,107.09,101.51,106.9,100.87z M247.91,100.71c-0.03-0.09-0.07-0.17-0.11-0.25c-0.04-0.08-0.08-0.15-0.13-0.23
			c-0.05-0.07-0.1-0.15-0.15-0.22c-0.06-0.07-0.12-0.13-0.18-0.19c-0.07-0.07-0.13-0.13-0.2-0.18c-0.07-0.06-0.14-0.11-0.21-0.16
			c-0.08-0.05-0.16-0.1-0.24-0.14c-0.07-0.04-0.16-0.08-0.24-0.11c-0.46-0.18-0.97-0.16-1.46-0.12c-0.82,0.37-1.44,0.77-1.76,1.66
			c-0.03,0.08-0.05,0.16-0.07,0.24c-0.02,0.08-0.04,0.16-0.05,0.24c-0.01,0.08-0.02,0.16-0.02,0.25c-0.01,0.08,0,0.16,0,0.24
			c0,0.09,0.01,0.17,0.03,0.25c0.01,0.08,0.03,0.16,0.05,0.24c0.02,0.08,0.04,0.16,0.07,0.24c0.03,0.07,0.06,0.15,0.1,0.22
			c0.3,0.62,0.84,1.03,1.48,1.24c0.44,0.13,0.88,0.1,1.32,0.07c0.75-0.24,1.35-0.57,1.71-1.3
			C248.16,102.09,248.15,101.34,247.91,100.71z M247.55,81.63c-0.01-0.07-0.02-0.14-0.04-0.21c-0.02-0.08-0.04-0.15-0.06-0.23
			c-0.03-0.07-0.06-0.14-0.09-0.22c-0.03-0.07-0.07-0.14-0.1-0.2c-0.04-0.07-0.09-0.14-0.13-0.2c-0.05-0.06-0.09-0.13-0.15-0.18
			c-0.05-0.06-0.1-0.12-0.16-0.17s-0.12-0.11-0.18-0.15c-0.06-0.05-0.13-0.09-0.19-0.13c-0.47-0.29-0.96-0.37-1.5-0.38
			c-0.77,0.18-1.38,0.47-1.8,1.18c-0.04,0.07-0.07,0.14-0.1,0.21c-0.04,0.08-0.06,0.15-0.09,0.23c-0.02,0.07-0.04,0.15-0.06,0.22
			c-0.02,0.08-0.03,0.16-0.04,0.24c0,0.08-0.01,0.15-0.01,0.23c0,0.08,0,0.16,0.01,0.24s0.02,0.16,0.04,0.23
			c0.01,0.08,0.04,0.16,0.06,0.23c0.19,0.61,0.65,1.1,1.24,1.36c0.39,0.17,0.79,0.2,1.21,0.22c0.77-0.15,1.38-0.38,1.82-1.07
			c0.04-0.06,0.08-0.12,0.11-0.19c0.03-0.06,0.06-0.13,0.09-0.2c0.02-0.06,0.04-0.13,0.06-0.2c0.02-0.07,0.04-0.14,0.05-0.21
			c0.01-0.07,0.02-0.15,0.02-0.22c0.01-0.07,0.01-0.14,0.01-0.21C247.56,81.77,247.56,81.7,247.55,81.63z M107.5,81.14
			c-0.03-0.08-0.06-0.15-0.1-0.23c-0.04-0.07-0.08-0.14-0.12-0.21c-0.05-0.07-0.09-0.13-0.15-0.2c-0.05-0.06-0.1-0.12-0.16-0.18
			s-0.12-0.11-0.18-0.17c-0.06-0.05-0.13-0.1-0.2-0.14c-0.06-0.05-0.13-0.09-0.21-0.13c-0.07-0.04-0.14-0.07-0.22-0.1
			c-0.42-0.17-0.9-0.16-1.34-0.13c-0.72,0.29-1.25,0.65-1.56,1.38c-0.03,0.07-0.05,0.14-0.08,0.22c-0.02,0.07-0.04,0.14-0.05,0.22
			c-0.02,0.07-0.03,0.14-0.04,0.22c0,0.07-0.01,0.15-0.01,0.22c0,0.08,0.01,0.15,0.01,0.23c0.01,0.08,0.02,0.15,0.04,0.22
			c0.01,0.08,0.03,0.15,0.05,0.22c0.02,0.07,0.05,0.15,0.08,0.22c0.23,0.55,0.7,0.97,1.26,1.18c0.45,0.17,0.97,0.13,1.44,0.08
			c0.66-0.26,1.2-0.56,1.51-1.23C107.72,82.3,107.71,81.68,107.5,81.14z M112.86,89.53l-0.01,9.42l5.77,1v-7.2
			C116.68,91.7,114.76,90.63,112.86,89.53z M237.42,89.78c-1.88,1.05-3.86,1.97-5.7,3.09c0,0.86-0.13,6.6,0.13,7.04
			c1.86-0.41,3.73-0.8,5.6-1.17C237.46,97.73,237.65,90.1,237.42,89.78z M179.67,33.31c-1.46-0.77-2.93-1.66-4.44-2.32
			c-1.16,0.62-10.13,5.29-10.42,5.67l0.06,0.06c0.57-0.13,1.25-0.62,1.77-0.9c2.23-1.2,3.26-1.86,5.74-2.52
			c0.24-0.06,0.49-0.14,0.74-0.21c0.27-0.07,0.54-0.12,0.8-0.14c0.19-0.01,0.37-0.02,0.55-0.02c0.25,0,0.5,0.01,0.75,0.03
			c0.12,0.01,0.24,0.02,0.36,0.03c0.31,0.03,0.62,0.07,0.92,0.12c0.34,0.05,0.68,0.11,1.02,0.17c0.17,0.03,0.33,0.06,0.5,0.1
			c0.18,0.03,0.36,0.06,0.54,0.1c0.33,0.06,0.69,0.1,1.04,0.17c0.13,0.02,0.25,0.05,0.37,0.09c0.5,0.16,1.5,0.82,2.33,1.26
			c0.28,0.14,0.54,0.26,0.75,0.33c0.05,0.02,0.1,0.03,0.15,0.04c0.05,0.01,0.1,0.02,0.14,0.02c0.03,0,0.07,0,0.1-0.01
			c0.01,0,0.01,0,0.02,0C182.31,34.59,180.91,33.97,179.67,33.31z"/>
	</g>
</g>
</svg>
