<?xml version="1.0" encoding="utf-8"?>
<!-- Generator: Adobe Illustrator 27.8.1, SVG Export Plug-In . SVG Version: 6.00 Build 0)  -->
<svg version="1.1" xmlns="http://www.w3.org/2000/svg" xmlns:xlink="http://www.w3.org/1999/xlink" x="0px" y="0px"
	 viewBox="0 0 350 230" style="enable-background:new 0 0 350 230;" xml:space="preserve">
<style type="text/css">
	.st0{fill:#DDDDDD;}
	.st1{fill:#F7931E;}
	.st2{fill:#604F3E;}
	.st3{fill:#2B5C8E;}
	.st4{fill:#328DD8;}
	.st5{fill:#3A99CE;}
	.st6{fill:#6CAEE5;}
	.st7{fill:#8299A8;}
	.st8{fill:#117ABA;}
	.st9{fill:#64B9E8;}
	.st10{fill:#1D4656;}
	.st11{fill:#2491EB;}
	.st12{clip-path:url(#SVGID_00000096059466793583874580000016382720039770833034_);fill:#2491EB;}
	.st13{fill-rule:evenodd;clip-rule:evenodd;fill:#64B9E8;}
	.st14{fill-rule:evenodd;clip-rule:evenodd;fill:#083D6D;}
	.st15{clip-path:url(#SVGID_00000071540957460339130820000000623396934653487290_);fill:#1C73C0;}
	.st16{clip-path:url(#SVGID_00000124849034172350727030000005335306385139403947_);fill:#2491EB;}
	.st17{fill:#FFFFFF;}
	.st18{fill:#2489B5;}
	.st19{fill:#004C85;}
	.st20{fill:#0EB0CC;}
	.st21{fill:#1C75BC;}
	.st22{fill-rule:evenodd;clip-rule:evenodd;fill:#231916;}
	.st23{fill-rule:evenodd;clip-rule:evenodd;fill:#008BD5;}
	.st24{fill:#26B1C1;}
	.st25{fill:#002A30;}
	.st26{fill:#07A8CC;}
</style>
<g id="Layer_1">
	<g>
		<path class="st3" d="M163.81,84.15c1.73-4.5,6.09-7.7,11.19-7.7c5.1,0,9.46,3.21,11.19,7.7c2.45,0.48,4.86,1.11,7.23,1.89
			c-1.19-9.11-8.99-16.17-18.42-16.17c-9.43,0-17.23,7.06-18.42,16.17C158.95,85.25,161.36,84.62,163.81,84.15z"/>
		<path class="st3" d="M202.03,93.8c-16.78-9.44-37.27-9.44-54.05,0l0,0v11.81h4.39v-9.17c7.01-3.49,14.79-5.33,22.64-5.33
			c7.85,0,15.63,1.84,22.64,5.33v26.82c0,12.48-10.16,22.64-22.64,22.64c-12.48,0-22.64-10.16-22.64-22.64v-8.33h-4.39v8.33
			c0,14.93,12.1,27.03,27.03,27.03h0c14.93,0,27.03-12.1,27.03-27.03V93.8L202.03,93.8z"/>
		<path class="st4" d="M183.35,134.31c-2.33,1.76-5.21,2.82-8.35,2.82c-7.65,0-13.87-6.22-13.87-13.87v-21.02
			c4.45-1.55,9.19-2.36,13.87-2.36c4.67,0,9.41,0.81,13.87,2.36v21.02c0,0.58-0.05,1.15-0.12,1.72h4.42
			c0.05-0.57,0.08-1.14,0.08-1.72V99.24c-5.75-2.46-12.01-3.75-18.25-3.75c-6.24,0-12.5,1.29-18.25,3.75v24.02
			c0,10.06,8.19,18.25,18.25,18.25c5.92,0,11.18-2.83,14.52-7.21H183.35z"/>
		<path class="st4" d="M184.1,118.2c0.28,0.71,0.96,1.21,1.77,1.21c1.05,0,1.91-0.85,1.91-1.91c0-1.05-0.85-1.91-1.91-1.91
			c-0.8,0-1.49,0.5-1.77,1.21h-2.24c-0.08-0.75-0.28-1.46-0.57-2.12l1.94-1.12c0.59,0.47,1.44,0.56,2.13,0.16
			c0.91-0.53,1.22-1.69,0.7-2.6c-0.53-0.91-1.69-1.22-2.6-0.7c-0.7,0.4-1.04,1.18-0.93,1.93l-1.95,1.12
			c-0.43-0.6-0.95-1.12-1.55-1.55l1.12-1.95c0.75,0.11,1.53-0.23,1.93-0.93c0.53-0.91,0.21-2.08-0.7-2.6
			c-0.91-0.53-2.08-0.21-2.6,0.7c-0.4,0.7-0.31,1.54,0.16,2.13l-1.12,1.94c-0.66-0.3-1.37-0.5-2.12-0.57v-2.24
			c0.71-0.28,1.21-0.96,1.21-1.77c0-1.05-0.85-1.91-1.91-1.91c-1.05,0-1.91,0.85-1.91,1.91c0,0.8,0.5,1.49,1.21,1.77v2.24
			c-0.75,0.08-1.46,0.28-2.12,0.57l-1.12-1.94c0.47-0.59,0.56-1.44,0.16-2.13c-0.53-0.91-1.69-1.22-2.6-0.7
			c-0.91,0.53-1.22,1.69-0.7,2.6c0.4,0.7,1.18,1.04,1.93,0.93l1.12,1.95c-0.6,0.43-1.12,0.95-1.55,1.55l-1.95-1.12
			c0.11-0.75-0.23-1.53-0.93-1.93c-0.91-0.53-2.08-0.21-2.6,0.7c-0.53,0.91-0.21,2.08,0.7,2.6c0.7,0.4,1.54,0.31,2.13-0.16
			l1.94,1.12c-0.3,0.66-0.5,1.37-0.57,2.12h-2.24c-0.28-0.71-0.96-1.21-1.77-1.21c-1.05,0-1.91,0.85-1.91,1.91
			c0,1.05,0.85,1.91,1.91,1.91c0.8,0,1.49-0.5,1.77-1.21h2.24c0.08,0.75,0.28,1.46,0.57,2.12l-1.94,1.12
			c-0.59-0.47-1.44-0.56-2.13-0.16c-0.91,0.53-1.22,1.69-0.7,2.6c0.53,0.91,1.69,1.22,2.6,0.7c0.7-0.4,1.04-1.18,0.93-1.93
			l1.95-1.12c0.43,0.6,0.95,1.12,1.55,1.55l-1.12,1.95c-0.75-0.11-1.53,0.23-1.93,0.93c-0.53,0.91-0.21,2.08,0.7,2.6
			c0.91,0.53,2.08,0.21,2.6-0.7c0.4-0.7,0.31-1.54-0.16-2.13l1.12-1.94c0.66,0.3,1.37,0.5,2.12,0.57v2.24
			c-0.71,0.28-1.21,0.96-1.21,1.77c0,1.05,0.85,1.91,1.91,1.91c1.05,0,1.91-0.85,1.91-1.91c0-0.8-0.5-1.49-1.21-1.77v-2.24
			c0.75-0.08,1.46-0.28,2.12-0.57l1.12,1.94c-0.47,0.59-0.56,1.44-0.16,2.13c0.53,0.91,1.69,1.22,2.6,0.7
			c0.91-0.53,1.22-1.69,0.7-2.6c-0.4-0.7-1.18-1.04-1.93-0.93l-1.12-1.95c0.6-0.43,1.12-0.95,1.55-1.55l1.95,1.12
			c-0.11,0.75,0.23,1.53,0.93,1.93c0.91,0.53,2.08,0.21,2.6-0.7c0.53-0.91,0.21-2.08-0.7-2.6c-0.7-0.4-1.54-0.31-2.13,0.16
			l-1.94-1.12c0.3-0.66,0.5-1.37,0.57-2.12H184.1z"/>
	</g>
</g>
<g id="Layer_2">
</g>
<g id="Layer_3">
</g>
<g id="Layer_4">
</g>
<g id="Layer_5">
</g>
<g id="Layer_6">
</g>
<g id="Layer_7">
</g>
<g id="Layer_8">
</g>
<g id="Layer_9">
</g>
<g id="Layer_10">
</g>
<g id="Layer_11">
</g>
<g id="Layer_12">
</g>
<g id="Layer_13">
</g>
<g id="Layer_14">
</g>
<g id="Layer_15">
</g>
</svg>
