<?xml version="1.0" encoding="utf-8"?>
<!-- Generator: Adobe Illustrator 27.8.1, SVG Export Plug-In . SVG Version: 6.00 Build 0)  -->
<svg version="1.1" xmlns="http://www.w3.org/2000/svg" xmlns:xlink="http://www.w3.org/1999/xlink" x="0px" y="0px"
	 viewBox="0 0 350 230" style="enable-background:new 0 0 350 230;" xml:space="preserve">
<style type="text/css">
	.st0{fill:#DDDDDD;}
	.st1{fill:#F7931E;}
	.st2{fill:#604F3E;}
	.st3{fill:#2B5C8E;}
	.st4{fill:#328DD8;}
	.st5{fill:#3A99CE;}
	.st6{fill:#6CAEE5;}
	.st7{fill:#8299A8;}
	.st8{fill:#117ABA;}
	.st9{fill:#64B9E8;}
	.st10{fill:#1D4656;}
	.st11{fill:#2491EB;}
	.st12{clip-path:url(#SVGID_00000177442741003929005270000000549545970711659145_);fill:#2491EB;}
	.st13{fill-rule:evenodd;clip-rule:evenodd;fill:#64B9E8;}
	.st14{fill-rule:evenodd;clip-rule:evenodd;fill:#083D6D;}
	.st15{clip-path:url(#SVGID_00000005956585386042422470000006889175206691512762_);fill:#1C73C0;}
	.st16{clip-path:url(#SVGID_00000098914669259229313140000007531196893252663467_);fill:#2491EB;}
	.st17{fill:#FFFFFF;}
	.st18{fill:#2489B5;}
	.st19{fill:#004C85;}
	.st20{fill:#0EB0CC;}
	.st21{fill:#1C75BC;}
	.st22{fill:#37008E;}
	.st23{fill-rule:evenodd;clip-rule:evenodd;fill:#231916;}
	.st24{fill-rule:evenodd;clip-rule:evenodd;fill:#008BD5;}
	.st25{fill:#26B1C1;}
	.st26{fill:#002A30;}
	.st27{fill:#07A8CC;}
	.st28{fill:#00E5ED;}
	.st29{fill:none;stroke:#010141;stroke-width:5;stroke-miterlimit:10;}
	.st30{fill:url(#SVGID_00000057870559115294335170000013641563233149697445_);}
	.st31{fill:#601D00;}
	.st32{fill:#7707D8;}
	.st33{fill:#CC9933;}
	.st34{fill:#0B3B84;}
	.st35{fill:#1373BC;}
	.st36{fill:#092341;}
	.st37{fill:#06779D;}
	.st38{fill:#4EC5DF;}
	.st39{fill:#23445E;}
	.st40{fill:#2E3758;}
	.st41{fill:#1A4764;}
	.st42{fill:#010101;}
	.st43{fill:#D4D4D3;}
	.st44{fill:#021784;}
	.st45{opacity:0.2;fill:#F1F2F2;}
	.st46{fill:#0A244F;}
	.st47{fill:#0049F8;}
	.st48{fill:#330044;}
	.st49{fill:#006CB5;}
	.st50{fill:#FF1200;}
	.st51{fill-rule:evenodd;clip-rule:evenodd;fill:#100D3B;}
	.st52{fill-rule:evenodd;clip-rule:evenodd;fill:#0000FF;}
	.st53{fill-rule:evenodd;clip-rule:evenodd;fill:#0094D9;}
	.st54{fill-rule:evenodd;clip-rule:evenodd;fill:#44C2F4;}
	.st55{fill-rule:evenodd;clip-rule:evenodd;fill:#004883;}
	.st56{fill-rule:evenodd;clip-rule:evenodd;fill:#0691CA;}
	.st57{opacity:0.5;}
	.st58{opacity:0;fill:#929497;}
	.st59{opacity:0.0152;fill:#909295;}
	.st60{opacity:0.0303;fill:#8F9093;}
	.st61{opacity:0.0455;fill:#8D8F92;}
	.st62{opacity:0.0606;fill:#8B8D90;}
	.st63{opacity:0.0758;fill:#8A8B8E;}
	.st64{opacity:0.0909;fill:#88898C;}
	.st65{opacity:0.1061;fill:#86888A;}
	.st66{opacity:0.1212;fill:#858689;}
	.st67{opacity:0.1364;fill:#838487;}
	.st68{opacity:0.1515;fill:#818285;}
	.st69{opacity:0.1667;fill:#7F8083;}
	.st70{opacity:0.1818;fill:#7E7F81;}
	.st71{opacity:0.197;fill:#7C7D80;}
	.st72{opacity:0.2121;fill:#7A7B7E;}
	.st73{opacity:0.2273;fill:#79797C;}
	.st74{opacity:0.2424;fill:#77787A;}
	.st75{opacity:0.2576;fill:#757678;}
	.st76{opacity:0.2727;fill:#747477;}
	.st77{opacity:0.2879;fill:#727275;}
	.st78{opacity:0.303;fill:#707173;}
	.st79{opacity:0.3182;fill:#6F6F71;}
	.st80{opacity:0.3333;fill:#6D6D6F;}
	.st81{opacity:0.3485;fill:#6B6B6E;}
	.st82{opacity:0.3636;fill:#6A696C;}
	.st83{opacity:0.3788;fill:#68686A;}
	.st84{opacity:0.3939;fill:#666668;}
	.st85{opacity:0.4091;fill:#656466;}
	.st86{opacity:0.4242;fill:#636265;}
	.st87{opacity:0.4394;fill:#616163;}
	.st88{opacity:0.4545;fill:#605F61;}
	.st89{opacity:0.4697;fill:#5E5D5F;}
	.st90{opacity:0.4848;fill:#5C5B5D;}
	.st91{opacity:0.5;fill:#5A5A5C;}
	.st92{opacity:0.5152;fill:#59585A;}
	.st93{opacity:0.5303;fill:#575658;}
	.st94{opacity:0.5455;fill:#555456;}
	.st95{opacity:0.5606;fill:#545254;}
	.st96{opacity:0.5758;fill:#525152;}
	.st97{opacity:0.5909;fill:#504F51;}
	.st98{opacity:0.6061;fill:#4F4D4F;}
	.st99{opacity:0.6212;fill:#4D4B4D;}
	.st100{opacity:0.6364;fill:#4B4A4B;}
	.st101{opacity:0.6515;fill:#4A4849;}
	.st102{opacity:0.6667;fill:#484648;}
	.st103{opacity:0.6818;fill:#464446;}
	.st104{opacity:0.697;fill:#454244;}
	.st105{opacity:0.7121;fill:#434142;}
	.st106{opacity:0.7273;fill:#413F40;}
	.st107{opacity:0.7424;fill:#403D3F;}
	.st108{opacity:0.7576;fill:#3E3B3D;}
	.st109{opacity:0.7727;fill:#3C3A3B;}
	.st110{opacity:0.7879;fill:#3B3839;}
	.st111{opacity:0.803;fill:#393637;}
	.st112{opacity:0.8182;fill:#373436;}
	.st113{opacity:0.8333;fill:#363334;}
	.st114{opacity:0.8485;fill:#343132;}
	.st115{opacity:0.8636;fill:#322F30;}
	.st116{opacity:0.8788;fill:#302D2E;}
	.st117{opacity:0.8939;fill:#2F2B2D;}
	.st118{opacity:0.9091;fill:#2D2A2B;}
	.st119{opacity:0.9242;fill:#2B2829;}
	.st120{opacity:0.9394;fill:#2A2627;}
	.st121{opacity:0.9545;fill:#282425;}
	.st122{opacity:0.9697;fill:#262324;}
	.st123{opacity:0.9848;fill:#252122;}
	.st124{fill:#231F20;}
	.st125{fill:#004883;}
	.st126{fill:#21597F;}
	.st127{fill:#919191;}
</style>
<g id="Layer_1">
</g>
<g id="Layer_2">
</g>
<g id="Layer_3">
</g>
<g id="Layer_4">
</g>
<g id="Layer_5">
</g>
<g id="Layer_6">
</g>
<g id="Layer_7">
</g>
<g id="Layer_8">
</g>
<g id="Layer_9">
</g>
<g id="Layer_10">
</g>
<g id="Layer_11">
</g>
<g id="Layer_12">
</g>
<g id="Layer_13">
</g>
<g id="Layer_14">
</g>
<g id="Layer_15">
	<g>
		<g>
			<path class="st33" d="M175,52.5c-12.5,0-24.87,1.35-36.91,4.01c-18.34,4.23-33.56,12.64-34.04,12.9
				c-1.82-9.52-2.77-19.34-2.77-29.38c0-3.26,0.1-6.5,0.3-9.71c22.8-8.72,47.55-13.49,73.42-13.49c12.04,0,23.85,1.04,35.32,3.02
				l0,0.89c0,0.07,0.01,4.96-0.81,14.73c-11.33-2.08-22.88-3.13-34.52-3.13c-17.01,0-33.8,2.23-50.01,6.64
				c-1.3-1.83-3.43-3.03-5.84-3.03c-3.95,0-7.15,3.2-7.15,7.15c0,3.95,3.2,7.15,7.15,7.15c3.83,0,6.95-3.02,7.14-6.81
				c15.79-4.29,32.14-6.46,48.71-6.46c11.5,0,22.91,1.05,34.1,3.13c-0.42,4.4-0.99,9.54-1.76,15.45
				C196.75,53.53,185.93,52.5,175,52.5z"/>
			<path class="st48" d="M178.33,124.63c7.44-7.56,13.92-16.08,19.11-25.23c7.48-13.18,12.4-27.8,14.48-42.89
				c3.14-24.14,3.06-35.8,3.06-35.8c11.52,2.27,22.7,5.5,33.44,9.61c0.2,3.21,0.3,6.44,0.3,9.71c0,40.33-15.29,77.09-40.41,104.8
				l-1.67-0.68c-0.09-0.04-5.42-2.23-12.53-6.83c8.09-8.44,15.09-17.81,20.86-27.97c10.28-18.11,16.39-38.51,17.87-59.39
				c2.98-0.86,5.16-3.61,5.16-6.87c0-3.95-3.2-7.15-7.15-7.15c-3.95,0-7.15,3.2-7.15,7.15c0,3.01,1.86,5.58,4.5,6.64
				c-1.44,20.15-7.35,39.85-17.27,57.32c-5.7,10.05-12.66,19.3-20.72,27.61C186.39,131.94,182.29,128.61,178.33,124.63z"/>
			<path class="st49" d="M175,127.88c13.83,13.91,29.42,20.4,29.91,20.59c-8.9,9.24-18.95,17.39-29.91,24.21
				c-34.99-21.79-60.72-57.04-69.96-98.5l1.27-0.71c0.09-0.05,5.3-2.92,13.16-6.12c2.9,14.78,8.11,28.87,15.56,41.99
				c8.47,14.93,19.88,28.44,33.22,39.42c-0.25,0.73-0.4,1.52-0.4,2.34c0,3.95,3.2,7.15,7.15,7.15c3.95,0,7.15-3.2,7.15-7.15
				c0-3.95-3.2-7.15-7.15-7.15c-1.43,0-2.76,0.43-3.88,1.15c-12.86-10.6-23.86-23.65-32.04-38.06
				c-7.34-12.92-12.42-26.82-15.19-41.41c4.5-1.66,9.59-3.29,14.94-4.54c2.38,13.45,7.03,26.45,13.75,38.28
				C158.51,109.88,166.15,119.55,175,127.88z"/>
			<path class="st50" d="M186.81,78.38c0,5.09-3.22,9.43-7.74,11.1V75.86h-8.15v13.62c-4.51-1.67-7.74-6.01-7.74-11.1
				c0-6.53,5.3-11.81,11.81-11.81C181.53,66.57,186.81,71.85,186.81,78.38z M175,90.19c-1.43,0-2.8-0.25-4.07-0.71V99
				c0,2.24,1.83,4.06,4.07,4.06s4.07-1.82,4.07-4.06v-9.52C177.81,89.94,176.44,90.19,175,90.19z"/>
		</g>
	</g>
</g>
</svg>
