<?xml version="1.0" encoding="utf-8"?>
<!-- Generator: Adobe Illustrator 27.8.1, SVG Export Plug-In . SVG Version: 6.00 Build 0)  -->
<svg version="1.1" xmlns="http://www.w3.org/2000/svg" xmlns:xlink="http://www.w3.org/1999/xlink" x="0px" y="0px"
	 viewBox="0 0 350 230" style="enable-background:new 0 0 350 230;" xml:space="preserve">
<style type="text/css">
	.st0{fill:#DDDDDD;}
	.st1{fill:#F7931E;}
	.st2{fill:#604F3E;}
	.st3{fill:#2B5C8E;}
	.st4{fill:#328DD8;}
	.st5{fill:#3A99CE;}
	.st6{fill:#6CAEE5;}
	.st7{fill:#8299A8;}
	.st8{fill:#117ABA;}
	.st9{fill:#64B9E8;}
	.st10{fill:#1D4656;}
	.st11{fill:#2491EB;}
	.st12{clip-path:url(#SVGID_00000060012874262185784090000010596710847608665517_);fill:#2491EB;}
	.st13{fill-rule:evenodd;clip-rule:evenodd;fill:#64B9E8;}
	.st14{fill-rule:evenodd;clip-rule:evenodd;fill:#083D6D;}
	.st15{clip-path:url(#SVGID_00000067951244750563847320000016509732036361838737_);fill:#1C73C0;}
	.st16{clip-path:url(#SVGID_00000121989064780983563270000010340745094910413460_);fill:#2491EB;}
	.st17{fill:#FFFFFF;}
	.st18{fill:#2489B5;}
	.st19{fill:#004C85;}
	.st20{fill:#0EB0CC;}
	.st21{fill:#1C75BC;}
	.st22{fill:#37008E;}
	.st23{fill-rule:evenodd;clip-rule:evenodd;fill:#231916;}
	.st24{fill-rule:evenodd;clip-rule:evenodd;fill:#008BD5;}
	.st25{fill:#26B1C1;}
	.st26{fill:#002A30;}
	.st27{fill:#07A8CC;}
	.st28{fill:#00E5ED;}
	.st29{fill:none;stroke:#010141;stroke-width:5;stroke-miterlimit:10;}
	.st30{fill:url(#SVGID_00000048503323813381680640000014307928422932225722_);}
	.st31{fill:#601D00;}
	.st32{fill:#7707D8;}
	.st33{fill:#CC9933;}
	.st34{fill:#0B3B84;}
	.st35{fill:#1373BC;}
	.st36{fill:#092341;}
	.st37{fill:#06779D;}
	.st38{fill:#4EC5DF;}
	.st39{fill:#23445E;}
	.st40{fill:#2E3758;}
	.st41{fill:#1A4764;}
	.st42{fill:#010101;}
	.st43{fill:#D4D4D3;}
	.st44{fill:#021784;}
	.st45{opacity:0.2;fill:#F1F2F2;}
	.st46{fill:#0A244F;}
	.st47{fill:#0049F8;}
	.st48{fill:#330044;}
	.st49{fill:#006CB5;}
	.st50{fill:#FF1200;}
	.st51{fill-rule:evenodd;clip-rule:evenodd;fill:#100D3B;}
	.st52{fill-rule:evenodd;clip-rule:evenodd;fill:#0000FF;}
	.st53{fill-rule:evenodd;clip-rule:evenodd;fill:#0094D9;}
	.st54{fill-rule:evenodd;clip-rule:evenodd;fill:#44C2F4;}
	.st55{fill-rule:evenodd;clip-rule:evenodd;fill:#004883;}
	.st56{fill-rule:evenodd;clip-rule:evenodd;fill:#0691CA;}
	.st57{opacity:0.5;}
	.st58{opacity:0;fill:#929497;}
	.st59{opacity:0.0152;fill:#909295;}
	.st60{opacity:0.0303;fill:#8F9093;}
	.st61{opacity:0.0455;fill:#8D8F92;}
	.st62{opacity:0.0606;fill:#8B8D90;}
	.st63{opacity:0.0758;fill:#8A8B8E;}
	.st64{opacity:0.0909;fill:#88898C;}
	.st65{opacity:0.1061;fill:#86888A;}
	.st66{opacity:0.1212;fill:#858689;}
	.st67{opacity:0.1364;fill:#838487;}
	.st68{opacity:0.1515;fill:#818285;}
	.st69{opacity:0.1667;fill:#7F8083;}
	.st70{opacity:0.1818;fill:#7E7F81;}
	.st71{opacity:0.197;fill:#7C7D80;}
	.st72{opacity:0.2121;fill:#7A7B7E;}
	.st73{opacity:0.2273;fill:#79797C;}
	.st74{opacity:0.2424;fill:#77787A;}
	.st75{opacity:0.2576;fill:#757678;}
	.st76{opacity:0.2727;fill:#747477;}
	.st77{opacity:0.2879;fill:#727275;}
	.st78{opacity:0.303;fill:#707173;}
	.st79{opacity:0.3182;fill:#6F6F71;}
	.st80{opacity:0.3333;fill:#6D6D6F;}
	.st81{opacity:0.3485;fill:#6B6B6E;}
	.st82{opacity:0.3636;fill:#6A696C;}
	.st83{opacity:0.3788;fill:#68686A;}
	.st84{opacity:0.3939;fill:#666668;}
	.st85{opacity:0.4091;fill:#656466;}
	.st86{opacity:0.4242;fill:#636265;}
	.st87{opacity:0.4394;fill:#616163;}
	.st88{opacity:0.4545;fill:#605F61;}
	.st89{opacity:0.4697;fill:#5E5D5F;}
	.st90{opacity:0.4848;fill:#5C5B5D;}
	.st91{opacity:0.5;fill:#5A5A5C;}
	.st92{opacity:0.5152;fill:#59585A;}
	.st93{opacity:0.5303;fill:#575658;}
	.st94{opacity:0.5455;fill:#555456;}
	.st95{opacity:0.5606;fill:#545254;}
	.st96{opacity:0.5758;fill:#525152;}
	.st97{opacity:0.5909;fill:#504F51;}
	.st98{opacity:0.6061;fill:#4F4D4F;}
	.st99{opacity:0.6212;fill:#4D4B4D;}
	.st100{opacity:0.6364;fill:#4B4A4B;}
	.st101{opacity:0.6515;fill:#4A4849;}
	.st102{opacity:0.6667;fill:#484648;}
	.st103{opacity:0.6818;fill:#464446;}
	.st104{opacity:0.697;fill:#454244;}
	.st105{opacity:0.7121;fill:#434142;}
	.st106{opacity:0.7273;fill:#413F40;}
	.st107{opacity:0.7424;fill:#403D3F;}
	.st108{opacity:0.7576;fill:#3E3B3D;}
	.st109{opacity:0.7727;fill:#3C3A3B;}
	.st110{opacity:0.7879;fill:#3B3839;}
	.st111{opacity:0.803;fill:#393637;}
	.st112{opacity:0.8182;fill:#373436;}
	.st113{opacity:0.8333;fill:#363334;}
	.st114{opacity:0.8485;fill:#343132;}
	.st115{opacity:0.8636;fill:#322F30;}
	.st116{opacity:0.8788;fill:#302D2E;}
	.st117{opacity:0.8939;fill:#2F2B2D;}
	.st118{opacity:0.9091;fill:#2D2A2B;}
	.st119{opacity:0.9242;fill:#2B2829;}
	.st120{opacity:0.9394;fill:#2A2627;}
	.st121{opacity:0.9545;fill:#282425;}
	.st122{opacity:0.9697;fill:#262324;}
	.st123{opacity:0.9848;fill:#252122;}
	.st124{fill:#231F20;}
	.st125{fill:#004883;}
	.st126{fill:#21597F;}
	.st127{fill:#919191;}
</style>
<g id="Layer_1">
</g>
<g id="Layer_2">
</g>
<g id="Layer_3">
</g>
<g id="Layer_4">
</g>
<g id="Layer_5">
</g>
<g id="Layer_6">
</g>
<g id="Layer_7">
</g>
<g id="Layer_8">
</g>
<g id="Layer_9">
</g>
<g id="Layer_10">
</g>
<g id="Layer_11">
</g>
<g id="Layer_12">
</g>
<g id="Layer_13">
</g>
<g id="Layer_14">
</g>
<g id="Layer_15">
	<g id="_535357048">
		<path class="st46" d="M160.81,118.13c-5.19-5.1-9.85-10.71-13.9-16.74c-3.58-5.34-6.7-11.05-9.3-17.09
			c-0.82-1.91-1.6-3.84-2.31-5.8l-11.97-3.2l-9.01-2.41c-1.16-4.59-2.07-9.28-2.71-14.05l-0.6-4.51l4.57-0.04
			c5.1-0.04,10.1-0.42,14.97-1.09c5.07-0.7,10-1.72,14.77-3.01c4.85-1.32,9.59-2.96,14.21-4.88c4.63-1.94,9.12-4.16,13.43-6.65
			l2.02-1.17l2.02,1.17c4.32,2.49,8.8,4.72,13.43,6.65c4.63,1.92,9.37,3.56,14.21,4.88c4.77,1.3,9.71,2.31,14.77,3.01
			c4.88,0.68,9.88,1.05,14.98,1.09l4.56,0.04l-0.6,4.51c-1.28,9.55-3.64,18.77-6.96,27.54c-1.09,2.89-2.28,5.72-3.58,8.49L238,97.59
			c1.11-2.49,2.16-5.01,3.13-7.56c3.58-9.46,6.14-19.46,7.53-29.86l2.15-16.1l-16.31-0.14c-4.55-0.04-9.11-0.38-13.64-1.01
			c-4.51-0.63-9.01-1.56-13.47-2.77c-4.48-1.22-8.81-2.71-12.95-4.44c-4.25-1.77-8.32-3.79-12.21-6.04L175,25.5l-7.22,4.17
			c-3.89,2.25-7.97,4.27-12.21,6.04c-4.14,1.72-8.46,3.21-12.95,4.44c-4.46,1.21-8.96,2.14-13.47,2.77
			c-4.53,0.63-9.08,0.97-13.64,1.01l-16.31,0.14l2.15,16.1c0.97,7.28,2.52,14.36,4.58,21.2l11.99,3.21l9.63,2.58l0.52,1.22
			c2.82,6.55,6.26,12.82,10.24,18.75c4.45,6.64,9.56,12.79,15.23,18.36c5.69,5.59,11.94,10.6,18.66,14.93l2.8,1.81l2.8-1.81
			c6.72-4.33,12.97-9.34,18.66-14.93c5.05-4.96,9.66-10.38,13.75-16.19l8.26,2.21l-0.08,0.11c-5.34,7.96-11.55,15.26-18.47,21.75
			c-6.91,6.46-14.59,12.17-22.89,16.98l-2.02,1.17l-2.02-1.17c-8.31-4.81-15.99-10.52-22.89-16.98
			c-6.93-6.49-13.14-13.79-18.47-21.75c-3.72-5.55-7.02-11.43-9.84-17.59l-12.67-3.39c3.64,9.47,8.31,18.43,13.89,26.75
			c5.75,8.57,12.48,16.47,20.02,23.54c7.54,7.06,15.85,13.25,24.76,18.41l7.22,4.17l7.22-4.17c8.92-5.16,17.22-11.35,24.76-18.4
			c7.54-7.07,14.27-14.97,20.02-23.54c2.67-3.98,5.13-8.1,7.37-12.36c-19.79-5.31-39.58-10.61-59.37-15.91l-23.34,6.25
			c0.42,0.66,0.84,1.31,1.28,1.96c1.65,2.46,3.38,4.82,5.19,7.06L175,99.89l24.47,6.55c-3.14,4.14-6.58,8.04-10.29,11.69
			c-4.36,4.29-9.11,8.21-14.19,11.71C169.93,126.34,165.18,122.41,160.81,118.13z M185.95,63.4c4.56,1.8,9.19,3.34,13.88,4.62
			c3.61,0.98,7.43,1.84,11.46,2.56c1.87,0.34,3.77,0.63,5.69,0.89c-1.26,4.38-2.79,8.66-4.59,12.83c-0.84,1.94-1.73,3.84-2.67,5.72
			l10.22,2.74c0.69-1.44,1.35-2.89,1.99-4.36c2.77-6.43,5-13.21,6.6-20.27l1.3-5.77l-5.91-0.53c-3.65-0.33-7.25-0.82-10.81-1.46
			c-3.45-0.61-6.98-1.42-10.57-2.39c-4.4-1.2-8.68-2.62-12.81-4.25c-4.22-1.67-8.34-3.56-12.32-5.65L175,46.81l-2.41,1.27
			c-3.98,2.09-8.1,3.98-12.31,5.65c-4.14,1.63-8.41,3.06-12.82,4.25c-3.59,0.98-7.12,1.78-10.57,2.39
			c-3.56,0.64-7.16,1.13-10.81,1.46l-5.91,0.53l0.88,3.89l16.73,4.48c0.32-0.06,0.63-0.11,0.94-0.17c4.03-0.72,7.85-1.58,11.45-2.56
			c4.69-1.27,9.32-2.82,13.88-4.62c3.72-1.47,7.38-3.1,10.95-4.89C178.58,60.29,182.23,61.92,185.95,63.4z"/>
		<path class="st33" d="M175,68l4.64,8.03l7.85-5.64l-3.24,13.62c-6.17,0-12.33,0-18.49,0l-3.25-13.62l7.86,5.64L175,68z"/>
	</g>
</g>
</svg>
