<?xml version="1.0" encoding="utf-8"?>
<!-- Generator: Adobe Illustrator 27.8.1, SVG Export Plug-In . SVG Version: 6.00 Build 0)  -->
<svg version="1.1" xmlns="http://www.w3.org/2000/svg" xmlns:xlink="http://www.w3.org/1999/xlink" x="0px" y="0px"
	 viewBox="0 0 350 230" style="enable-background:new 0 0 350 230;" xml:space="preserve">
<style type="text/css">
	.st0{fill:#DDDDDD;}
	.st1{fill:#F7931E;}
	.st2{fill:#604F3E;}
	.st3{fill:#2B5C8E;}
	.st4{fill:#328DD8;}
	.st5{fill:#3A99CE;}
	.st6{fill:#6CAEE5;}
	.st7{fill:#8299A8;}
	.st8{fill:#117ABA;}
	.st9{fill:#64B9E8;}
	.st10{fill:#1D4656;}
	.st11{fill:#2491EB;}
	.st12{clip-path:url(#SVGID_00000006690639623050885150000000580566415947918234_);fill:#2491EB;}
	.st13{fill-rule:evenodd;clip-rule:evenodd;fill:#64B9E8;}
	.st14{fill-rule:evenodd;clip-rule:evenodd;fill:#083D6D;}
	.st15{clip-path:url(#SVGID_00000093857990216456614720000006104981069986679177_);fill:#1C73C0;}
	.st16{clip-path:url(#SVGID_00000176740658972124899690000009340943405491922863_);fill:#2491EB;}
	.st17{fill:#FFFFFF;}
	.st18{fill:#2489B5;}
	.st19{fill:#004C85;}
	.st20{fill:#0EB0CC;}
	.st21{fill:#1C75BC;}
	.st22{fill:#37008E;}
	.st23{fill-rule:evenodd;clip-rule:evenodd;fill:#231916;}
	.st24{fill-rule:evenodd;clip-rule:evenodd;fill:#008BD5;}
	.st25{fill:#26B1C1;}
	.st26{fill:#002A30;}
	.st27{fill:#07A8CC;}
	.st28{fill:#00E5ED;}
	.st29{fill:none;stroke:#010141;stroke-width:5;stroke-miterlimit:10;}
	.st30{fill:url(#SVGID_00000142176174742535266160000001271806398055272581_);}
	.st31{fill:#601D00;}
	.st32{fill:#7707D8;}
	.st33{fill:#CC9933;}
	.st34{fill:#0B3B84;}
	.st35{fill:#1373BC;}
	.st36{fill:#092341;}
	.st37{fill:#06779D;}
	.st38{fill:#4EC5DF;}
	.st39{fill:#23445E;}
	.st40{fill:#2E3758;}
	.st41{fill:#1A4764;}
	.st42{fill:#010101;}
	.st43{fill:#D4D4D3;}
	.st44{fill:#021784;}
	.st45{opacity:0.2;fill:#F1F2F2;}
	.st46{fill:#0A244F;}
	.st47{fill:#0049F8;}
	.st48{fill:#330044;}
	.st49{fill:#006CB5;}
	.st50{fill:#FF1200;}
	.st51{fill-rule:evenodd;clip-rule:evenodd;fill:#100D3B;}
	.st52{fill-rule:evenodd;clip-rule:evenodd;fill:#0000FF;}
	.st53{fill-rule:evenodd;clip-rule:evenodd;fill:#0094D9;}
	.st54{fill-rule:evenodd;clip-rule:evenodd;fill:#44C2F4;}
	.st55{fill-rule:evenodd;clip-rule:evenodd;fill:#004883;}
	.st56{fill-rule:evenodd;clip-rule:evenodd;fill:#0691CA;}
	.st57{opacity:0.5;}
	.st58{opacity:0;fill:#929497;}
	.st59{opacity:0.0152;fill:#909295;}
	.st60{opacity:0.0303;fill:#8F9093;}
	.st61{opacity:0.0455;fill:#8D8F92;}
	.st62{opacity:0.0606;fill:#8B8D90;}
	.st63{opacity:0.0758;fill:#8A8B8E;}
	.st64{opacity:0.0909;fill:#88898C;}
	.st65{opacity:0.1061;fill:#86888A;}
	.st66{opacity:0.1212;fill:#858689;}
	.st67{opacity:0.1364;fill:#838487;}
	.st68{opacity:0.1515;fill:#818285;}
	.st69{opacity:0.1667;fill:#7F8083;}
	.st70{opacity:0.1818;fill:#7E7F81;}
	.st71{opacity:0.197;fill:#7C7D80;}
	.st72{opacity:0.2121;fill:#7A7B7E;}
	.st73{opacity:0.2273;fill:#79797C;}
	.st74{opacity:0.2424;fill:#77787A;}
	.st75{opacity:0.2576;fill:#757678;}
	.st76{opacity:0.2727;fill:#747477;}
	.st77{opacity:0.2879;fill:#727275;}
	.st78{opacity:0.303;fill:#707173;}
	.st79{opacity:0.3182;fill:#6F6F71;}
	.st80{opacity:0.3333;fill:#6D6D6F;}
	.st81{opacity:0.3485;fill:#6B6B6E;}
	.st82{opacity:0.3636;fill:#6A696C;}
	.st83{opacity:0.3788;fill:#68686A;}
	.st84{opacity:0.3939;fill:#666668;}
	.st85{opacity:0.4091;fill:#656466;}
	.st86{opacity:0.4242;fill:#636265;}
	.st87{opacity:0.4394;fill:#616163;}
	.st88{opacity:0.4545;fill:#605F61;}
	.st89{opacity:0.4697;fill:#5E5D5F;}
	.st90{opacity:0.4848;fill:#5C5B5D;}
	.st91{opacity:0.5;fill:#5A5A5C;}
	.st92{opacity:0.5152;fill:#59585A;}
	.st93{opacity:0.5303;fill:#575658;}
	.st94{opacity:0.5455;fill:#555456;}
	.st95{opacity:0.5606;fill:#545254;}
	.st96{opacity:0.5758;fill:#525152;}
	.st97{opacity:0.5909;fill:#504F51;}
	.st98{opacity:0.6061;fill:#4F4D4F;}
	.st99{opacity:0.6212;fill:#4D4B4D;}
	.st100{opacity:0.6364;fill:#4B4A4B;}
	.st101{opacity:0.6515;fill:#4A4849;}
	.st102{opacity:0.6667;fill:#484648;}
	.st103{opacity:0.6818;fill:#464446;}
	.st104{opacity:0.697;fill:#454244;}
	.st105{opacity:0.7121;fill:#434142;}
	.st106{opacity:0.7273;fill:#413F40;}
	.st107{opacity:0.7424;fill:#403D3F;}
	.st108{opacity:0.7576;fill:#3E3B3D;}
	.st109{opacity:0.7727;fill:#3C3A3B;}
	.st110{opacity:0.7879;fill:#3B3839;}
	.st111{opacity:0.803;fill:#393637;}
	.st112{opacity:0.8182;fill:#373436;}
	.st113{opacity:0.8333;fill:#363334;}
	.st114{opacity:0.8485;fill:#343132;}
	.st115{opacity:0.8636;fill:#322F30;}
	.st116{opacity:0.8788;fill:#302D2E;}
	.st117{opacity:0.8939;fill:#2F2B2D;}
	.st118{opacity:0.9091;fill:#2D2A2B;}
	.st119{opacity:0.9242;fill:#2B2829;}
	.st120{opacity:0.9394;fill:#2A2627;}
	.st121{opacity:0.9545;fill:#282425;}
	.st122{opacity:0.9697;fill:#262324;}
	.st123{opacity:0.9848;fill:#252122;}
	.st124{fill:#231F20;}
	.st125{fill:#004883;}
	.st126{fill:#21597F;}
	.st127{fill:#919191;}
</style>
<g id="Layer_1">
</g>
<g id="Layer_2">
</g>
<g id="Layer_3">
</g>
<g id="Layer_4">
</g>
<g id="Layer_5">
</g>
<g id="Layer_6">
</g>
<g id="Layer_7">
</g>
<g id="Layer_8">
</g>
<g id="Layer_9">
</g>
<g id="Layer_10">
</g>
<g id="Layer_11">
</g>
<g id="Layer_12">
</g>
<g id="Layer_13">
</g>
<g id="Layer_14">
</g>
<g id="Layer_15">
	<g>
		<path class="st28" d="M220.75,48.54c-0.69-2.17-1.52-4.27-2.5-6.31c-2.37-4.87-5.52-9.27-9.3-13.06
			c-4.55-4.55-10.01-8.19-16.08-10.64c-5.52-2.21-11.54-3.42-17.86-3.42c-6.31,0-12.35,1.21-17.86,3.44
			C146.02,23,136.96,31.5,131.77,42.21c-0.99,2.03-1.83,4.15-2.53,6.33c-1.46,4.61-2.25,9.51-2.25,14.59v70.88
			c0,4.67,0.67,9.19,1.9,13.44c0.8,2.76,1.86,5.43,3.12,7.96c4.67,9.33,12.27,16.94,21.62,21.61c6.44,3.2,13.69,5,21.37,5
			s14.94-1.8,21.37-5c9.35-4.67,16.97-12.29,21.62-21.64c1.26-2.52,2.3-5.18,3.1-7.93c1.24-4.26,1.92-8.78,1.92-13.44V63.13
			C223.01,58.05,222.22,53.15,220.75,48.54z M189.5,89.83c0,6.47-4.1,11.98-9.83,14.1v12.1c0,2.85-2.33,5.16-5.18,5.16
			c-2.85,0-5.18-2.31-5.18-5.16v-12.1c-5.73-2.12-9.83-7.64-9.83-14.1c0-4.99,2.43-9.39,6.17-12.11c2.47-1.83,5.53-2.9,8.84-2.9
			c7.64,0,13.93,5.69,14.88,13.06C189.45,88.51,189.5,89.17,189.5,89.83z M169.31,86.62v17.31c1.62,0.59,3.36,0.91,5.18,0.91
			c1.83,0,3.57-0.32,5.18-0.91V86.62H169.31z"/>
		<path class="st32" d="M191.09,117.68v24.24c0,6.48-3.36,9.61-9.61,9.61h-12.96c-6,0-9.6-3.13-9.6-9.61v-10.08h-31.94v15.61
			c0,22.56,12.24,34.57,34.57,34.57h26.89c22.56,0,34.57-12.01,34.57-34.57v-45.13l-33.65-14.44c0.09,0.63,0.13,1.29,0.13,1.95
			c0,6.47-4.1,11.98-9.83,14.1v8.84L191.09,117.68z M188.44,13.97h-26.89c-22.32,0-34.57,12.01-34.57,34.57v41.53l42.32,18.23v-4.37
			c-5.73-2.12-9.83-7.64-9.83-14.1c0-4.99,2.43-9.39,6.17-12.11l-6.98-3V54.31c0-6.25,3.6-9.6,9.61-9.6h13.2
			c6.48,0,9.61,3.35,9.61,9.6v10.08h31.92V48.54C223.01,25.99,211.02,13.97,188.44,13.97z M179.67,103.93V86.62h-10.36v17.31
			c1.62,0.59,3.36,0.91,5.18,0.91C176.32,104.84,178.06,104.52,179.67,103.93z"/>
		<path class="st28" d="M218.62,147.45c0,2.84-0.2,5.49-0.63,7.93c-2.05,12.33-9.29,19.57-21.62,21.64
			c-2.44,0.41-5.09,0.61-7.93,0.61h-26.89c-2.84,0-5.49-0.2-7.93-0.61c-12.32-2.05-19.56-9.29-21.62-21.61
			c-0.42-2.46-0.63-5.11-0.63-7.96h-8.78c0,24.75,14.21,38.96,38.96,38.96h26.89c25.12,0,38.96-13.84,38.96-38.96H218.62z
			 M188.44,9.59h-26.89c-24.75,0-38.96,14.21-38.96,38.96h8.78c0-2.24,0.13-4.34,0.4-6.33c1.83-14.47,10.33-22.41,25.37-23.66
			c1.42-0.13,2.88-0.19,4.42-0.19h26.89c1.54,0,3,0.06,4.42,0.18c15.04,1.26,23.55,9.22,25.38,23.7c0.25,1.98,0.38,4.08,0.38,6.31
			h8.78C227.4,23.43,213.56,9.59,188.44,9.59z"/>
	</g>
</g>
</svg>
