<?xml version="1.0" encoding="utf-8"?>
<!-- Generator: Adobe Illustrator 27.8.1, SVG Export Plug-In . SVG Version: 6.00 Build 0)  -->
<svg version="1.1" xmlns="http://www.w3.org/2000/svg" xmlns:xlink="http://www.w3.org/1999/xlink" x="0px" y="0px"
	 viewBox="0 0 350 230" style="enable-background:new 0 0 350 230;" xml:space="preserve">
<style type="text/css">
	.st0{fill:#DDDDDD;}
	.st1{fill:#F7931E;}
	.st2{fill:#604F3E;}
	.st3{fill:#2B5C8E;}
	.st4{fill:#328DD8;}
	.st5{fill:#3A99CE;}
	.st6{fill:#6CAEE5;}
	.st7{fill:#8299A8;}
	.st8{fill:#117ABA;}
	.st9{fill:#64B9E8;}
	.st10{fill:#1D4656;}
	.st11{fill:#2491EB;}
	.st12{clip-path:url(#SVGID_00000114774881472459132680000014054911877478858169_);fill:#2491EB;}
	.st13{fill-rule:evenodd;clip-rule:evenodd;fill:#64B9E8;}
	.st14{fill-rule:evenodd;clip-rule:evenodd;fill:#083D6D;}
	.st15{clip-path:url(#SVGID_00000029003736578481087770000003137837110364785034_);fill:#1C73C0;}
	.st16{clip-path:url(#SVGID_00000163792975344674914510000008630083121529829005_);fill:#2491EB;}
	.st17{fill:#FFFFFF;}
	.st18{fill:#2489B5;}
	.st19{fill:#004C85;}
	.st20{fill:#0EB0CC;}
	.st21{fill:#1C75BC;}
	.st22{fill:#37008E;}
	.st23{fill-rule:evenodd;clip-rule:evenodd;fill:#231916;}
	.st24{fill-rule:evenodd;clip-rule:evenodd;fill:#008BD5;}
	.st25{fill:#26B1C1;}
	.st26{fill:#002A30;}
	.st27{fill:#07A8CC;}
	.st28{fill:#00E5ED;}
	.st29{fill:none;stroke:#010141;stroke-width:5;stroke-miterlimit:10;}
	.st30{fill:url(#SVGID_00000031192364232979522490000003583685434653990285_);}
	.st31{fill:#601D00;}
	.st32{fill:#7707D8;}
	.st33{fill:#CC9933;}
	.st34{fill:#0B3B84;}
	.st35{fill:#1373BC;}
	.st36{fill:#092341;}
	.st37{fill:#06779D;}
	.st38{fill:#4EC5DF;}
	.st39{fill:#23445E;}
	.st40{fill:#2E3758;}
	.st41{fill:#1A4764;}
	.st42{fill:#010101;}
	.st43{fill:#D4D4D3;}
	.st44{fill:#021784;}
	.st45{opacity:0.2;fill:#F1F2F2;}
	.st46{fill:#0A244F;}
	.st47{fill:#0049F8;}
	.st48{fill:#330044;}
	.st49{fill:#006CB5;}
	.st50{fill:#FF1200;}
	.st51{fill-rule:evenodd;clip-rule:evenodd;fill:#100D3B;}
	.st52{fill-rule:evenodd;clip-rule:evenodd;fill:#0000FF;}
	.st53{fill-rule:evenodd;clip-rule:evenodd;fill:#0094D9;}
	.st54{fill-rule:evenodd;clip-rule:evenodd;fill:#44C2F4;}
	.st55{fill-rule:evenodd;clip-rule:evenodd;fill:#004883;}
	.st56{fill-rule:evenodd;clip-rule:evenodd;fill:#0691CA;}
	.st57{opacity:0.5;}
	.st58{opacity:0;fill:#929497;}
	.st59{opacity:0.0152;fill:#909295;}
	.st60{opacity:0.0303;fill:#8F9093;}
	.st61{opacity:0.0455;fill:#8D8F92;}
	.st62{opacity:0.0606;fill:#8B8D90;}
	.st63{opacity:0.0758;fill:#8A8B8E;}
	.st64{opacity:0.0909;fill:#88898C;}
	.st65{opacity:0.1061;fill:#86888A;}
	.st66{opacity:0.1212;fill:#858689;}
	.st67{opacity:0.1364;fill:#838487;}
	.st68{opacity:0.1515;fill:#818285;}
	.st69{opacity:0.1667;fill:#7F8083;}
	.st70{opacity:0.1818;fill:#7E7F81;}
	.st71{opacity:0.197;fill:#7C7D80;}
	.st72{opacity:0.2121;fill:#7A7B7E;}
	.st73{opacity:0.2273;fill:#79797C;}
	.st74{opacity:0.2424;fill:#77787A;}
	.st75{opacity:0.2576;fill:#757678;}
	.st76{opacity:0.2727;fill:#747477;}
	.st77{opacity:0.2879;fill:#727275;}
	.st78{opacity:0.303;fill:#707173;}
	.st79{opacity:0.3182;fill:#6F6F71;}
	.st80{opacity:0.3333;fill:#6D6D6F;}
	.st81{opacity:0.3485;fill:#6B6B6E;}
	.st82{opacity:0.3636;fill:#6A696C;}
	.st83{opacity:0.3788;fill:#68686A;}
	.st84{opacity:0.3939;fill:#666668;}
	.st85{opacity:0.4091;fill:#656466;}
	.st86{opacity:0.4242;fill:#636265;}
	.st87{opacity:0.4394;fill:#616163;}
	.st88{opacity:0.4545;fill:#605F61;}
	.st89{opacity:0.4697;fill:#5E5D5F;}
	.st90{opacity:0.4848;fill:#5C5B5D;}
	.st91{opacity:0.5;fill:#5A5A5C;}
	.st92{opacity:0.5152;fill:#59585A;}
	.st93{opacity:0.5303;fill:#575658;}
	.st94{opacity:0.5455;fill:#555456;}
	.st95{opacity:0.5606;fill:#545254;}
	.st96{opacity:0.5758;fill:#525152;}
	.st97{opacity:0.5909;fill:#504F51;}
	.st98{opacity:0.6061;fill:#4F4D4F;}
	.st99{opacity:0.6212;fill:#4D4B4D;}
	.st100{opacity:0.6364;fill:#4B4A4B;}
	.st101{opacity:0.6515;fill:#4A4849;}
	.st102{opacity:0.6667;fill:#484648;}
	.st103{opacity:0.6818;fill:#464446;}
	.st104{opacity:0.697;fill:#454244;}
	.st105{opacity:0.7121;fill:#434142;}
	.st106{opacity:0.7273;fill:#413F40;}
	.st107{opacity:0.7424;fill:#403D3F;}
	.st108{opacity:0.7576;fill:#3E3B3D;}
	.st109{opacity:0.7727;fill:#3C3A3B;}
	.st110{opacity:0.7879;fill:#3B3839;}
	.st111{opacity:0.803;fill:#393637;}
	.st112{opacity:0.8182;fill:#373436;}
	.st113{opacity:0.8333;fill:#363334;}
	.st114{opacity:0.8485;fill:#343132;}
	.st115{opacity:0.8636;fill:#322F30;}
	.st116{opacity:0.8788;fill:#302D2E;}
	.st117{opacity:0.8939;fill:#2F2B2D;}
	.st118{opacity:0.9091;fill:#2D2A2B;}
	.st119{opacity:0.9242;fill:#2B2829;}
	.st120{opacity:0.9394;fill:#2A2627;}
	.st121{opacity:0.9545;fill:#282425;}
	.st122{opacity:0.9697;fill:#262324;}
	.st123{opacity:0.9848;fill:#252122;}
	.st124{fill:#231F20;}
	.st125{fill:#004883;}
	.st126{fill:#21597F;}
	.st127{fill:#919191;}
</style>
<g id="Layer_1">
</g>
<g id="Layer_2">
</g>
<g id="Layer_3">
</g>
<g id="Layer_4">
</g>
<g id="Layer_5">
</g>
<g id="Layer_6">
</g>
<g id="Layer_7">
</g>
<g id="Layer_8">
</g>
<g id="Layer_9">
</g>
<g id="Layer_10">
</g>
<g id="Layer_11">
</g>
<g id="Layer_12">
</g>
<g id="Layer_13">
</g>
<g id="Layer_14">
</g>
<g id="Layer_15">
	<g>
		<path d="M247.17,50.74c0.01-1.07-0.33-1.67-1.27-2.2c-7.86-4.51-15.69-9.08-23.54-13.6c-5.76-3.32-11.53-6.61-17.32-9.87
			l-4.42-2.7c-8.23-4.75-16.44-9.53-24.69-14.23c-0.52-0.3-1.5-0.26-2.03,0.04c-23.17,13.36-46.31,26.77-69.49,40.14
			c-1.23,0.71-1.61,1.54-1.6,2.88c0.02,16.04-0.2,32.1,0.05,48.14c0.35,21.7,9.95,38.43,28.48,49.68
			c13.94,8.47,28.22,16.37,42.33,24.56c0.94,0.54,1.59,0.52,2.53-0.02c14.15-8.22,28.46-16.17,42.46-24.64
			c18.35-11.08,27.88-27.67,28.4-49.04C247.46,83.51,247.14,67.12,247.17,50.74z M234,99.13c-0.27,16.85-7.68,29.88-22.14,38.58
			c-11.67,7.02-23.57,13.67-35.34,20.51c-0.97,0.57-1.69,0.63-2.69,0.05c-12.1-7.05-24.39-13.8-36.32-21.13
			c-13.74-8.44-20.97-21.03-21.29-37.2c-0.27-13.9-0.04-27.81-0.07-41.71c-0.01-1.03,0.34-1.57,1.21-2.07
			c18.85-10.85,37.68-21.73,56.5-32.64c0.93-0.54,1.62-0.56,2.55-0.01c4.96,2.93,9.97,5.79,14.69,8.52l6.39,3.7
			c11.65,6.74,23.29,13.48,34.97,20.16c1.23,0.7,1.63,1.48,1.62,2.86C234.03,72.21,234.22,85.67,234,99.13z"/>
		<path class="st32" d="M196.4,134.96c2.37-3.7,4.2-7.52,5.02-11.79c3.13-16.3-9.15-31.35-25.77-31.57
			c-6.93-0.09-13.02-2.32-18.18-7.01c-12.89-11.71-10.93-32.88,3.94-41.97c4.22-2.58,8.54-4.99,12.85-7.41
			c0.49-0.27,1.4-0.28,1.88,0c11.16,6.38,22.28,12.82,33.41,19.25c4.33,2.5,8.64,5.03,13,7.49c0.93,0.52,1.3,1.09,1.29,2.19
			c-0.04,11.27,0.19,22.54-0.09,33.8c-0.33,13.49-6.39,24-17.71,31.37C202.93,131.33,199.62,133.08,196.4,134.96z M174.98,71.56
			c3.53,0.02,6.53-2.92,6.57-6.44c0.04-3.6-2.98-6.63-6.57-6.6c-3.55,0.03-6.52,3.01-6.49,6.52
			C168.53,68.6,171.45,71.54,174.98,71.56z M181.46,118.4c0.05-3.49-2.77-6.4-6.29-6.5c-3.52-0.1-6.52,2.79-6.61,6.37
			c-0.09,3.61,2.77,6.41,6.61,6.49C178.41,124.82,181.41,121.78,181.46,118.4z"/>
	</g>
</g>
</svg>
