<?xml version="1.0" encoding="utf-8"?>
<!-- Generator: Adobe Illustrator 27.8.1, SVG Export Plug-In . SVG Version: 6.00 Build 0)  -->
<svg version="1.1" xmlns="http://www.w3.org/2000/svg" xmlns:xlink="http://www.w3.org/1999/xlink" x="0px" y="0px"
	 viewBox="0 0 350 230" style="enable-background:new 0 0 350 230;" xml:space="preserve">
<style type="text/css">
	.st0{fill:#DDDDDD;}
	.st1{fill:#F7931E;}
	.st2{fill:#604F3E;}
	.st3{fill:#2B5C8E;}
	.st4{fill:#328DD8;}
	.st5{fill:#3A99CE;}
	.st6{fill:#6CAEE5;}
	.st7{fill:#8299A8;}
	.st8{fill:#117ABA;}
	.st9{fill:#64B9E8;}
	.st10{fill:#1D4656;}
	.st11{fill:#2491EB;}
	.st12{clip-path:url(#SVGID_00000108288386397888889770000016048520438045925793_);fill:#2491EB;}
	.st13{fill-rule:evenodd;clip-rule:evenodd;fill:#64B9E8;}
	.st14{fill-rule:evenodd;clip-rule:evenodd;fill:#083D6D;}
	.st15{clip-path:url(#SVGID_00000059284217202268107730000012217031749573832325_);fill:#1C73C0;}
	.st16{clip-path:url(#SVGID_00000049207312913071005620000004254223121537752487_);fill:#2491EB;}
	.st17{fill:#FFFFFF;}
	.st18{fill:#2489B5;}
	.st19{fill:#004C85;}
	.st20{fill:#0EB0CC;}
	.st21{fill:#1C75BC;}
	.st22{fill:#37008E;}
	.st23{fill-rule:evenodd;clip-rule:evenodd;fill:#231916;}
	.st24{fill-rule:evenodd;clip-rule:evenodd;fill:#008BD5;}
	.st25{fill:#26B1C1;}
	.st26{fill:#002A30;}
	.st27{fill:#07A8CC;}
	.st28{fill:#00E5ED;}
	.st29{fill:none;stroke:#010141;stroke-width:5;stroke-miterlimit:10;}
	.st30{fill:url(#SVGID_00000018226561385071638120000017342518005743562659_);}
	.st31{fill:#601D00;}
	.st32{fill:#7707D8;}
	.st33{fill:#CC9933;}
	.st34{fill:#0B3B84;}
	.st35{fill:#1373BC;}
	.st36{fill:#092341;}
	.st37{fill:#06779D;}
	.st38{fill:#4EC5DF;}
	.st39{fill:#23445E;}
	.st40{fill:#2E3758;}
	.st41{fill:#1A4764;}
	.st42{fill:#010101;}
	.st43{fill:#D4D4D3;}
	.st44{fill:#021784;}
	.st45{opacity:0.2;fill:#F1F2F2;}
	.st46{fill:#0A244F;}
	.st47{fill:#0049F8;}
	.st48{fill:#330044;}
	.st49{fill:#006CB5;}
	.st50{fill:#FF1200;}
	.st51{fill-rule:evenodd;clip-rule:evenodd;fill:#100D3B;}
	.st52{fill-rule:evenodd;clip-rule:evenodd;fill:#0000FF;}
	.st53{fill-rule:evenodd;clip-rule:evenodd;fill:#0094D9;}
	.st54{fill-rule:evenodd;clip-rule:evenodd;fill:#44C2F4;}
	.st55{fill-rule:evenodd;clip-rule:evenodd;fill:#004883;}
	.st56{fill-rule:evenodd;clip-rule:evenodd;fill:#0691CA;}
	.st57{opacity:0.5;}
	.st58{opacity:0;fill:#929497;}
	.st59{opacity:0.0152;fill:#909295;}
	.st60{opacity:0.0303;fill:#8F9093;}
	.st61{opacity:0.0455;fill:#8D8F92;}
	.st62{opacity:0.0606;fill:#8B8D90;}
	.st63{opacity:0.0758;fill:#8A8B8E;}
	.st64{opacity:0.0909;fill:#88898C;}
	.st65{opacity:0.1061;fill:#86888A;}
	.st66{opacity:0.1212;fill:#858689;}
	.st67{opacity:0.1364;fill:#838487;}
	.st68{opacity:0.1515;fill:#818285;}
	.st69{opacity:0.1667;fill:#7F8083;}
	.st70{opacity:0.1818;fill:#7E7F81;}
	.st71{opacity:0.197;fill:#7C7D80;}
	.st72{opacity:0.2121;fill:#7A7B7E;}
	.st73{opacity:0.2273;fill:#79797C;}
	.st74{opacity:0.2424;fill:#77787A;}
	.st75{opacity:0.2576;fill:#757678;}
	.st76{opacity:0.2727;fill:#747477;}
	.st77{opacity:0.2879;fill:#727275;}
	.st78{opacity:0.303;fill:#707173;}
	.st79{opacity:0.3182;fill:#6F6F71;}
	.st80{opacity:0.3333;fill:#6D6D6F;}
	.st81{opacity:0.3485;fill:#6B6B6E;}
	.st82{opacity:0.3636;fill:#6A696C;}
	.st83{opacity:0.3788;fill:#68686A;}
	.st84{opacity:0.3939;fill:#666668;}
	.st85{opacity:0.4091;fill:#656466;}
	.st86{opacity:0.4242;fill:#636265;}
	.st87{opacity:0.4394;fill:#616163;}
	.st88{opacity:0.4545;fill:#605F61;}
	.st89{opacity:0.4697;fill:#5E5D5F;}
	.st90{opacity:0.4848;fill:#5C5B5D;}
	.st91{opacity:0.5;fill:#5A5A5C;}
	.st92{opacity:0.5152;fill:#59585A;}
	.st93{opacity:0.5303;fill:#575658;}
	.st94{opacity:0.5455;fill:#555456;}
	.st95{opacity:0.5606;fill:#545254;}
	.st96{opacity:0.5758;fill:#525152;}
	.st97{opacity:0.5909;fill:#504F51;}
	.st98{opacity:0.6061;fill:#4F4D4F;}
	.st99{opacity:0.6212;fill:#4D4B4D;}
	.st100{opacity:0.6364;fill:#4B4A4B;}
	.st101{opacity:0.6515;fill:#4A4849;}
	.st102{opacity:0.6667;fill:#484648;}
	.st103{opacity:0.6818;fill:#464446;}
	.st104{opacity:0.697;fill:#454244;}
	.st105{opacity:0.7121;fill:#434142;}
	.st106{opacity:0.7273;fill:#413F40;}
	.st107{opacity:0.7424;fill:#403D3F;}
	.st108{opacity:0.7576;fill:#3E3B3D;}
	.st109{opacity:0.7727;fill:#3C3A3B;}
	.st110{opacity:0.7879;fill:#3B3839;}
	.st111{opacity:0.803;fill:#393637;}
	.st112{opacity:0.8182;fill:#373436;}
	.st113{opacity:0.8333;fill:#363334;}
	.st114{opacity:0.8485;fill:#343132;}
	.st115{opacity:0.8636;fill:#322F30;}
	.st116{opacity:0.8788;fill:#302D2E;}
	.st117{opacity:0.8939;fill:#2F2B2D;}
	.st118{opacity:0.9091;fill:#2D2A2B;}
	.st119{opacity:0.9242;fill:#2B2829;}
	.st120{opacity:0.9394;fill:#2A2627;}
	.st121{opacity:0.9545;fill:#282425;}
	.st122{opacity:0.9697;fill:#262324;}
	.st123{opacity:0.9848;fill:#252122;}
	.st124{fill:#231F20;}
	.st125{fill:#004883;}
	.st126{fill:#21597F;}
	.st127{fill:#919191;}
</style>
<g id="Layer_1">
</g>
<g id="Layer_2">
</g>
<g id="Layer_3">
</g>
<g id="Layer_4">
</g>
<g id="Layer_5">
</g>
<g id="Layer_6">
</g>
<g id="Layer_7">
</g>
<g id="Layer_8">
</g>
<g id="Layer_9">
</g>
<g id="Layer_10">
</g>
<g id="Layer_11">
</g>
<g id="Layer_12">
</g>
<g id="Layer_13">
</g>
<g id="Layer_14">
</g>
<g id="Layer_15">
	<g>
		<path class="st54" d="M203.77,24.7c-4.48-2.59-9.13-4.54-13.85-5.86c2.66,2.15,4.82,4.83,6.33,7.84
			c2.75,5.43,3.42,11.92,1.38,18.16c-0.52,1.59-1.2,3.08-2,4.46l22.95,13.25l25.38-14.65L203.77,24.7z M190.99,29.33
			c-2.01-4-5.52-7.24-10.06-8.83l-0.33-0.11c-2.92-0.97-5.93-1.13-8.76-0.62c-0.51,0.09-1.01,0.2-1.51,0.34
			c-0.37,0.1-0.73,0.21-1.09,0.32c-0.39,0.13-0.77,0.27-1.13,0.42c-0.2,0.09-0.4,0.18-0.6,0.28c-0.19,0.09-0.39,0.18-0.58,0.28
			c-0.5,0.24-0.98,0.52-1.44,0.81c-0.94,0.59-1.82,1.27-2.64,2.03c-2.05,1.9-3.69,4.31-4.7,7.1v0.18l-0.07,0.14l-0.14,0.27
			c-0.29,0.9-0.5,1.82-0.63,2.73v0.01c-0.07,0.46-0.12,0.91-0.16,1.35c-0.26,3.31,0.42,6.56,1.87,9.42c0.16,0.3,0.31,0.59,0.48,0.88
			L175,37.4l15.51,8.95c0.17-0.28,0.32-0.56,0.46-0.84c0.27-0.52,0.51-1.07,0.73-1.63c0.11-0.29,0.21-0.58,0.31-0.88
			C193.55,38.3,193.05,33.41,190.99,29.33z M152.39,29.95c1.49-4.54,4.23-8.33,7.7-11.11c-4.73,1.32-9.38,3.27-13.87,5.86
			l-40.17,23.2l25.38,14.65l22.96-13.25c-0.22-0.39-0.43-0.78-0.63-1.18c-2.68-5.3-3.39-11.59-1.52-17.68L152.39,29.95z"/>
		<path class="st55" d="M214.4,141.13c-5.77-1.9-10.35-5.82-13.17-10.72l-22.96,13.25v29.31l40.15-23.19
			c4.48-2.59,8.5-5.63,12.01-9.06C225.48,142.64,219.84,142.91,214.4,141.13z M237.83,110.44c-2.05-4.09-5.68-7.39-10.38-8.94h-0.01
			l-0.03-0.01c-0.2-0.07-0.4-0.13-0.61-0.19c-0.14-0.04-0.3-0.09-0.46-0.12c-0.36-0.1-0.72-0.19-1.08-0.26
			c-0.18-0.03-0.34-0.07-0.51-0.09c-0.64-0.11-1.3-0.19-1.94-0.21c-0.32-0.02-0.63-0.03-0.95-0.03h-0.01v17.92l-15.51,8.95
			c0.01,0.02,0.02,0.04,0.04,0.07c0.17,0.29,0.34,0.58,0.54,0.87c0.26,0.41,0.54,0.8,0.84,1.19c0.21,0.27,0.43,0.53,0.67,0.79
			c0.07,0.08,0.13,0.16,0.21,0.23c0.24,0.28,0.51,0.54,0.78,0.8c0.21,0.2,0.42,0.4,0.64,0.59c0.22,0.19,0.44,0.38,0.68,0.56
			c0.7,0.57,1.45,1.08,2.24,1.52c0.24,0.13,0.49,0.27,0.73,0.39c0.2,0.1,0.41,0.2,0.61,0.3c0.62,0.3,1.27,0.56,1.92,0.77
			c0.23,0.08,0.47,0.14,0.7,0.21c0.7,0.2,1.4,0.36,2.11,0.47c3.79,0.6,7.58-0.06,10.86-1.7c4.09-2.06,7.39-5.69,8.94-10.39
			l0.04-0.13C240.39,119.3,239.87,114.48,237.83,110.44z M221.85,68.18v26.51c2.46,0,4.97,0.39,7.45,1.2l0.12,0.04
			c6.18,2.08,10.96,6.45,13.68,11.84c1.11,2.2,1.89,4.57,2.28,7.03c1.21-4.73,1.83-9.71,1.83-14.86V53.55L221.85,68.18z"/>
		<path class="st56" d="M102.8,53.55v46.4c0,5.14,0.62,10.11,1.83,14.84c0.19-1.24,0.5-2.5,0.9-3.74c2.05-6.24,6.46-11.06,11.9-13.8
			c3.29-1.67,6.96-2.56,10.72-2.56V68.18L102.8,53.55z M128.15,118.5v-17.92c-2.83,0-5.6,0.68-8.07,1.92
			c-4.09,2.06-7.39,5.69-8.94,10.4c-1.54,4.7-1.04,9.58,1.02,13.67c2.05,4.09,5.69,7.38,10.39,8.94c4.7,1.54,9.58,1.04,13.67-1.02
			c0.43-0.22,0.85-0.46,1.27-0.71c0.32-0.19,0.63-0.4,0.94-0.61c0.94-0.67,1.82-1.41,2.62-2.24c0.2-0.21,0.39-0.42,0.58-0.63
			c0.01-0.01,0.02-0.02,0.03-0.03c0.18-0.21,0.37-0.43,0.53-0.65c0.17-0.2,0.33-0.41,0.49-0.63c0.36-0.49,0.68-1,0.98-1.52
			L128.15,118.5z M148.78,130.4c-2.36,4.1-5.84,7.3-9.9,9.35c-5.44,2.75-11.93,3.42-18.17,1.37c-0.39-0.12-0.77-0.27-1.14-0.41
			c3.51,3.44,7.53,6.48,12.01,9.08l40.15,23.18v-29.3L148.78,130.4z"/>
	</g>
</g>
</svg>
