<?xml version="1.0" encoding="utf-8"?>
<!-- Generator: Adobe Illustrator 27.8.1, SVG Export Plug-In . SVG Version: 6.00 Build 0)  -->
<svg version="1.1" xmlns="http://www.w3.org/2000/svg" xmlns:xlink="http://www.w3.org/1999/xlink" x="0px" y="0px"
	 viewBox="0 0 350 230" style="enable-background:new 0 0 350 230;" xml:space="preserve">
<style type="text/css">
	.st0{fill:#DDDDDD;}
	.st1{fill:#F7931E;}
	.st2{fill:#604F3E;}
	.st3{fill:#2B5C8E;}
	.st4{fill:#328DD8;}
	.st5{fill:#3A99CE;}
	.st6{fill:#6CAEE5;}
	.st7{fill:#8299A8;}
	.st8{fill:#117ABA;}
	.st9{fill:#64B9E8;}
	.st10{fill:#1D4656;}
	.st11{fill:#2491EB;}
	.st12{clip-path:url(#SVGID_00000111190941361193799880000002229913328313196732_);fill:#2491EB;}
	.st13{fill-rule:evenodd;clip-rule:evenodd;fill:#64B9E8;}
	.st14{fill-rule:evenodd;clip-rule:evenodd;fill:#083D6D;}
	.st15{clip-path:url(#SVGID_00000164513258380155222800000005757242617217166268_);fill:#1C73C0;}
	.st16{clip-path:url(#SVGID_00000060023418804764062800000004016706390243740592_);fill:#2491EB;}
	.st17{fill:#FFFFFF;}
	.st18{fill:#2489B5;}
	.st19{fill:#004C85;}
	.st20{fill:#0EB0CC;}
	.st21{fill:#1C75BC;}
	.st22{fill:#37008E;}
	.st23{fill-rule:evenodd;clip-rule:evenodd;fill:#231916;}
	.st24{fill-rule:evenodd;clip-rule:evenodd;fill:#008BD5;}
	.st25{fill:#26B1C1;}
	.st26{fill:#002A30;}
	.st27{fill:#07A8CC;}
	.st28{fill:#00E5ED;}
	.st29{fill:none;stroke:#010141;stroke-width:5;stroke-miterlimit:10;}
	.st30{fill:url(#SVGID_00000059287847010779200580000012069539975323106470_);}
	.st31{fill:#601D00;}
	.st32{fill:#7707D8;}
	.st33{fill:#CC9933;}
	.st34{fill:#0B3B84;}
	.st35{fill:#1373BC;}
	.st36{fill:#092341;}
	.st37{fill:#06779D;}
	.st38{fill:#4EC5DF;}
	.st39{fill:#23445E;}
	.st40{fill:#2E3758;}
	.st41{fill:#1A4764;}
	.st42{fill:#010101;}
	.st43{fill:#D4D4D3;}
	.st44{fill:#021784;}
	.st45{opacity:0.2;fill:#F1F2F2;}
	.st46{fill:#0A244F;}
	.st47{fill:#0049F8;}
	.st48{fill:#330044;}
	.st49{fill:#006CB5;}
	.st50{fill:#FF1200;}
	.st51{fill-rule:evenodd;clip-rule:evenodd;fill:#100D3B;}
	.st52{fill-rule:evenodd;clip-rule:evenodd;fill:#0000FF;}
	.st53{fill-rule:evenodd;clip-rule:evenodd;fill:#0094D9;}
	.st54{fill-rule:evenodd;clip-rule:evenodd;fill:#44C2F4;}
	.st55{fill-rule:evenodd;clip-rule:evenodd;fill:#004883;}
	.st56{fill-rule:evenodd;clip-rule:evenodd;fill:#0691CA;}
	.st57{opacity:0.5;}
	.st58{opacity:0;fill:#929497;}
	.st59{opacity:0.0152;fill:#909295;}
	.st60{opacity:0.0303;fill:#8F9093;}
	.st61{opacity:0.0455;fill:#8D8F92;}
	.st62{opacity:0.0606;fill:#8B8D90;}
	.st63{opacity:0.0758;fill:#8A8B8E;}
	.st64{opacity:0.0909;fill:#88898C;}
	.st65{opacity:0.1061;fill:#86888A;}
	.st66{opacity:0.1212;fill:#858689;}
	.st67{opacity:0.1364;fill:#838487;}
	.st68{opacity:0.1515;fill:#818285;}
	.st69{opacity:0.1667;fill:#7F8083;}
	.st70{opacity:0.1818;fill:#7E7F81;}
	.st71{opacity:0.197;fill:#7C7D80;}
	.st72{opacity:0.2121;fill:#7A7B7E;}
	.st73{opacity:0.2273;fill:#79797C;}
	.st74{opacity:0.2424;fill:#77787A;}
	.st75{opacity:0.2576;fill:#757678;}
	.st76{opacity:0.2727;fill:#747477;}
	.st77{opacity:0.2879;fill:#727275;}
	.st78{opacity:0.303;fill:#707173;}
	.st79{opacity:0.3182;fill:#6F6F71;}
	.st80{opacity:0.3333;fill:#6D6D6F;}
	.st81{opacity:0.3485;fill:#6B6B6E;}
	.st82{opacity:0.3636;fill:#6A696C;}
	.st83{opacity:0.3788;fill:#68686A;}
	.st84{opacity:0.3939;fill:#666668;}
	.st85{opacity:0.4091;fill:#656466;}
	.st86{opacity:0.4242;fill:#636265;}
	.st87{opacity:0.4394;fill:#616163;}
	.st88{opacity:0.4545;fill:#605F61;}
	.st89{opacity:0.4697;fill:#5E5D5F;}
	.st90{opacity:0.4848;fill:#5C5B5D;}
	.st91{opacity:0.5;fill:#5A5A5C;}
	.st92{opacity:0.5152;fill:#59585A;}
	.st93{opacity:0.5303;fill:#575658;}
	.st94{opacity:0.5455;fill:#555456;}
	.st95{opacity:0.5606;fill:#545254;}
	.st96{opacity:0.5758;fill:#525152;}
	.st97{opacity:0.5909;fill:#504F51;}
	.st98{opacity:0.6061;fill:#4F4D4F;}
	.st99{opacity:0.6212;fill:#4D4B4D;}
	.st100{opacity:0.6364;fill:#4B4A4B;}
	.st101{opacity:0.6515;fill:#4A4849;}
	.st102{opacity:0.6667;fill:#484648;}
	.st103{opacity:0.6818;fill:#464446;}
	.st104{opacity:0.697;fill:#454244;}
	.st105{opacity:0.7121;fill:#434142;}
	.st106{opacity:0.7273;fill:#413F40;}
	.st107{opacity:0.7424;fill:#403D3F;}
	.st108{opacity:0.7576;fill:#3E3B3D;}
	.st109{opacity:0.7727;fill:#3C3A3B;}
	.st110{opacity:0.7879;fill:#3B3839;}
	.st111{opacity:0.803;fill:#393637;}
	.st112{opacity:0.8182;fill:#373436;}
	.st113{opacity:0.8333;fill:#363334;}
	.st114{opacity:0.8485;fill:#343132;}
	.st115{opacity:0.8636;fill:#322F30;}
	.st116{opacity:0.8788;fill:#302D2E;}
	.st117{opacity:0.8939;fill:#2F2B2D;}
	.st118{opacity:0.9091;fill:#2D2A2B;}
	.st119{opacity:0.9242;fill:#2B2829;}
	.st120{opacity:0.9394;fill:#2A2627;}
	.st121{opacity:0.9545;fill:#282425;}
	.st122{opacity:0.9697;fill:#262324;}
	.st123{opacity:0.9848;fill:#252122;}
	.st124{fill:#231F20;}
	.st125{fill:#004883;}
	.st126{fill:#21597F;}
	.st127{fill:#919191;}
</style>
<g id="Layer_1">
</g>
<g id="Layer_2">
</g>
<g id="Layer_3">
</g>
<g id="Layer_4">
</g>
<g id="Layer_5">
</g>
<g id="Layer_6">
</g>
<g id="Layer_7">
</g>
<g id="Layer_8">
</g>
<g id="Layer_9">
</g>
<g id="Layer_10">
</g>
<g id="Layer_11">
</g>
<g id="Layer_12">
</g>
<g id="Layer_13">
</g>
<g id="Layer_14">
</g>
<g id="Layer_15">
	<g>
		<g class="st57">
			<path class="st58" d="M238.17,169.84c0,5.84-28.28,10.58-63.16,10.58c-34.88,0-63.16-4.74-63.16-10.58
				c0-5.84,28.28-10.58,63.16-10.58C209.89,159.26,238.17,164,238.17,169.84z"/>
			<path class="st59" d="M237.4,169.84c0,5.77-27.94,10.44-62.39,10.44c-34.46,0-62.39-4.67-62.39-10.44
				c0-5.76,27.94-10.44,62.39-10.44C209.46,159.4,237.4,164.08,237.4,169.84z"/>
			<path class="st60" d="M236.63,169.84c0,5.69-27.59,10.29-61.62,10.29c-34.03,0-61.62-4.61-61.62-10.29
				c0-5.69,27.59-10.29,61.62-10.29C209.04,159.55,236.63,164.16,236.63,169.84z"/>
			<path class="st61" d="M235.86,169.84c0,5.61-27.25,10.15-60.85,10.15c-33.61,0-60.85-4.54-60.85-10.15
				c0-5.61,27.25-10.15,60.85-10.15C208.61,159.69,235.86,164.23,235.86,169.84z"/>
			<path class="st62" d="M235.09,169.84c0,5.53-26.9,10.01-60.08,10.01c-33.18,0-60.08-4.48-60.08-10.01
				c0-5.53,26.9-10.01,60.08-10.01C208.19,159.84,235.09,164.31,235.09,169.84z"/>
			<path class="st63" d="M234.32,169.84c0,5.45-26.56,9.86-59.31,9.86c-32.76,0-59.31-4.41-59.31-9.86c0-5.45,26.56-9.86,59.31-9.86
				C207.76,159.98,234.32,164.39,234.32,169.84z"/>
			<path class="st64" d="M233.55,169.84c0,5.37-26.21,9.72-58.54,9.72c-32.33,0-58.54-4.35-58.54-9.72c0-5.37,26.21-9.72,58.54-9.72
				C207.33,160.12,233.55,164.47,233.55,169.84z"/>
			<path class="st65" d="M232.78,169.84c0,5.29-25.87,9.57-57.77,9.57c-31.91,0-57.77-4.29-57.77-9.57c0-5.29,25.87-9.57,57.77-9.57
				C206.91,160.27,232.78,164.55,232.78,169.84z"/>
			<path class="st66" d="M232.01,169.84c0,5.21-25.52,9.43-57,9.43c-31.48,0-57-4.22-57-9.43c0-5.21,25.52-9.43,57-9.43
				C206.48,160.41,232.01,164.63,232.01,169.84z"/>
			<path class="st67" d="M231.24,169.84c0,5.13-25.18,9.29-56.23,9.29c-31.06,0-56.23-4.16-56.23-9.29c0-5.13,25.18-9.28,56.23-9.28
				C206.06,160.56,231.24,164.71,231.24,169.84z"/>
			<path class="st68" d="M230.47,169.84c0,5.05-24.83,9.14-55.46,9.14c-30.63,0-55.46-4.09-55.46-9.14c0-5.05,24.83-9.14,55.46-9.14
				C205.63,160.7,230.47,164.79,230.47,169.84z"/>
			<path class="st69" d="M229.7,169.84c0,4.97-24.49,9-54.69,9c-30.21,0-54.69-4.03-54.69-9c0-4.97,24.49-9,54.69-9
				C205.21,160.84,229.7,164.87,229.7,169.84z"/>
			<path class="st70" d="M228.93,169.84c0,4.89-24.14,8.85-53.92,8.85c-29.78,0-53.93-3.96-53.93-8.85c0-4.89,24.14-8.85,53.93-8.85
				C204.78,160.99,228.93,164.95,228.93,169.84z"/>
			<path class="st71" d="M228.16,169.84c0,4.81-23.8,8.71-53.15,8.71c-29.36,0-53.16-3.9-53.16-8.71c0-4.81,23.8-8.71,53.16-8.71
				C204.36,161.13,228.16,165.03,228.16,169.84z"/>
			<path class="st72" d="M227.39,169.84c0,4.73-23.45,8.57-52.38,8.57c-28.93,0-52.39-3.83-52.39-8.57c0-4.73,23.45-8.56,52.39-8.56
				C203.93,161.28,227.39,165.11,227.39,169.84z"/>
			<path class="st73" d="M226.62,169.84c0,4.65-23.11,8.42-51.61,8.42c-28.51,0-51.62-3.77-51.62-8.42c0-4.65,23.11-8.42,51.62-8.42
				C203.51,161.42,226.62,165.19,226.62,169.84z"/>
			<path class="st74" d="M225.85,169.84c0,4.57-22.77,8.28-50.84,8.28c-28.08,0-50.85-3.71-50.85-8.28c0-4.57,22.77-8.28,50.85-8.28
				C203.08,161.56,225.85,165.27,225.85,169.84z"/>
			<path class="st75" d="M225.08,169.84c0,4.49-22.42,8.13-50.07,8.13c-27.65,0-50.08-3.64-50.08-8.13c0-4.49,22.42-8.13,50.08-8.13
				C202.66,161.71,225.08,165.35,225.08,169.84z"/>
			<path class="st76" d="M224.31,169.84c0,4.41-22.08,7.99-49.31,7.99c-27.23,0-49.31-3.58-49.31-7.99c0-4.41,22.08-7.99,49.31-7.99
				C202.23,161.85,224.31,165.43,224.31,169.84z"/>
			<path class="st77" d="M223.54,169.84c0,4.33-21.73,7.84-48.54,7.84c-26.8,0-48.54-3.51-48.54-7.84c0-4.33,21.73-7.84,48.54-7.84
				C201.81,162,223.54,165.51,223.54,169.84z"/>
			<path class="st78" d="M222.77,169.84c0,4.25-21.39,7.7-47.77,7.7c-26.38,0-47.77-3.45-47.77-7.7c0-4.25,21.39-7.7,47.77-7.7
				C201.38,162.14,222.77,165.59,222.77,169.84z"/>
			<path class="st79" d="M222,169.84c0,4.17-21.04,7.56-47,7.56c-25.95,0-47-3.38-47-7.56c0-4.17,21.04-7.56,47-7.56
				C200.96,162.28,222,165.67,222,169.84z"/>
			<path class="st80" d="M221.23,169.84c0,4.09-20.7,7.41-46.23,7.41c-25.53,0-46.23-3.32-46.23-7.41c0-4.09,20.7-7.41,46.23-7.41
				C200.53,162.43,221.23,165.75,221.23,169.84z"/>
			<path class="st81" d="M220.46,169.84c0,4.02-20.35,7.27-45.46,7.27c-25.1,0-45.46-3.25-45.46-7.27c0-4.01,20.35-7.27,45.46-7.27
				C200.11,162.57,220.46,165.83,220.46,169.84z"/>
			<path class="st82" d="M219.69,169.84c0,3.94-20.01,7.12-44.69,7.12c-24.68,0-44.69-3.19-44.69-7.12c0-3.93,20.01-7.12,44.69-7.12
				C199.68,162.72,219.69,165.91,219.69,169.84z"/>
			<path class="st83" d="M218.92,169.84c0,3.86-19.66,6.98-43.92,6.98c-24.25,0-43.92-3.12-43.92-6.98c0-3.86,19.66-6.98,43.92-6.98
				C199.26,162.86,218.92,165.99,218.92,169.84z"/>
			<path class="st84" d="M218.15,169.84c0,3.78-19.32,6.84-43.15,6.84c-23.83,0-43.15-3.06-43.15-6.84c0-3.78,19.32-6.84,43.15-6.84
				C198.83,163,218.15,166.06,218.15,169.84z"/>
			<path class="st85" d="M217.38,169.84c0,3.7-18.97,6.69-42.38,6.69c-23.4,0-42.38-3-42.38-6.69c0-3.7,18.97-6.69,42.38-6.69
				C198.4,163.15,217.38,166.14,217.38,169.84z"/>
			<path class="st86" d="M216.61,169.84c0,3.62-18.63,6.55-41.61,6.55c-22.98,0-41.61-2.93-41.61-6.55c0-3.62,18.63-6.55,41.61-6.55
				C197.98,163.29,216.61,166.22,216.61,169.84z"/>
			<path class="st87" d="M215.84,169.84c0,3.54-18.28,6.4-40.84,6.4c-22.55,0-40.84-2.87-40.84-6.4c0-3.54,18.29-6.4,40.84-6.4
				C197.55,163.44,215.84,166.3,215.84,169.84z"/>
			<path class="st88" d="M215.07,169.84c0,3.46-17.94,6.26-40.07,6.26c-22.13,0-40.07-2.8-40.07-6.26c0-3.46,17.94-6.26,40.07-6.26
				C197.13,163.58,215.07,166.38,215.07,169.84z"/>
			<path class="st89" d="M214.3,169.84c0,3.38-17.59,6.12-39.3,6.12c-21.7,0-39.3-2.74-39.3-6.12c0-3.38,17.6-6.12,39.3-6.12
				C196.7,163.73,214.3,166.46,214.3,169.84z"/>
			<path class="st90" d="M213.53,169.84c0,3.3-17.25,5.97-38.53,5.97c-21.28,0-38.53-2.67-38.53-5.97c0-3.3,17.25-5.97,38.53-5.97
				C196.28,163.87,213.53,166.54,213.53,169.84z"/>
			<path class="st91" d="M212.76,169.84c0,3.22-16.91,5.83-37.76,5.83c-20.85,0-37.76-2.61-37.76-5.83c0-3.22,16.91-5.83,37.76-5.83
				C195.85,164.01,212.76,166.62,212.76,169.84z"/>
			<path class="st92" d="M211.99,169.84c0,3.14-16.56,5.68-36.99,5.68c-20.43,0-36.99-2.54-36.99-5.68c0-3.14,16.56-5.68,36.99-5.68
				C195.43,164.16,211.99,166.7,211.99,169.84z"/>
			<path class="st93" d="M211.22,169.84c0,3.06-16.22,5.54-36.22,5.54c-20,0-36.22-2.48-36.22-5.54c0-3.06,16.22-5.54,36.22-5.54
				C195,164.3,211.22,166.78,211.22,169.84z"/>
			<path class="st94" d="M210.45,169.84c0,2.98-15.87,5.4-35.45,5.4c-19.58,0-35.45-2.42-35.45-5.4c0-2.98,15.87-5.39,35.45-5.39
				C194.58,164.45,210.45,166.86,210.45,169.84z"/>
			<path class="st95" d="M209.68,169.84c0,2.9-15.53,5.25-34.68,5.25c-19.15,0-34.68-2.35-34.68-5.25c0-2.9,15.53-5.25,34.68-5.25
				C194.15,164.59,209.68,166.94,209.68,169.84z"/>
			<path class="st96" d="M208.91,169.84c0,2.82-15.18,5.11-33.91,5.11c-18.72,0-33.91-2.29-33.91-5.11c0-2.82,15.18-5.11,33.91-5.11
				C193.73,164.73,208.91,167.02,208.91,169.84z"/>
			<path class="st97" d="M208.14,169.84c0,2.74-14.84,4.96-33.14,4.96c-18.3,0-33.14-2.22-33.14-4.96c0-2.74,14.84-4.96,33.14-4.96
				C193.3,164.88,208.14,167.1,208.14,169.84z"/>
			<path class="st98" d="M207.37,169.84c0,2.66-14.49,4.82-32.37,4.82c-17.87,0-32.37-2.16-32.37-4.82c0-2.66,14.49-4.82,32.37-4.82
				C192.88,165.02,207.37,167.18,207.37,169.84z"/>
			<path class="st99" d="M206.6,169.84c0,2.58-14.15,4.68-31.6,4.68c-17.45,0-31.6-2.09-31.6-4.68c0-2.58,14.15-4.67,31.6-4.67
				C192.45,165.17,206.6,167.26,206.6,169.84z"/>
			<path class="st100" d="M205.83,169.84c0,2.5-13.8,4.53-30.83,4.53c-17.02,0-30.83-2.03-30.83-4.53c0-2.5,13.8-4.53,30.83-4.53
				C192.03,165.31,205.83,167.34,205.83,169.84z"/>
			<path class="st101" d="M205.06,169.84c0,2.42-13.46,4.39-30.06,4.39c-16.6,0-30.06-1.96-30.06-4.39c0-2.42,13.46-4.39,30.06-4.39
				C191.6,165.45,205.06,167.42,205.06,169.84z"/>
			<path class="st102" d="M204.29,169.84c0,2.35-13.11,4.24-29.29,4.24c-16.17,0-29.29-1.9-29.29-4.24c0-2.34,13.12-4.24,29.29-4.24
				C191.18,165.6,204.29,167.5,204.29,169.84z"/>
			<path class="st103" d="M203.52,169.84c0,2.27-12.77,4.1-28.52,4.1c-15.75,0-28.52-1.83-28.52-4.1c0-2.26,12.77-4.1,28.52-4.1
				C190.75,165.74,203.52,167.58,203.52,169.84z"/>
			<path class="st104" d="M202.75,169.84c0,2.19-12.42,3.96-27.75,3.96c-15.32,0-27.75-1.77-27.75-3.96
				c0-2.18,12.43-3.95,27.75-3.95C190.33,165.89,202.75,167.66,202.75,169.84z"/>
			<path class="st105" d="M201.98,169.84c0,2.11-12.08,3.81-26.98,3.81c-14.9,0-26.98-1.71-26.98-3.81c0-2.1,12.08-3.81,26.98-3.81
				C189.9,166.03,201.98,167.74,201.98,169.84z"/>
			<path class="st106" d="M201.21,169.84c0,2.03-11.74,3.67-26.21,3.67c-14.47,0-26.21-1.64-26.21-3.67
				c0-2.03,11.74-3.67,26.21-3.67C189.47,166.17,201.21,167.82,201.21,169.84z"/>
			<path class="st107" d="M200.44,169.84c0,1.95-11.39,3.52-25.44,3.52c-14.05,0-25.44-1.58-25.44-3.52
				c0-1.95,11.39-3.52,25.44-3.52C189.05,166.32,200.44,167.89,200.44,169.84z"/>
			<path class="st108" d="M199.67,169.84c0,1.87-11.05,3.38-24.67,3.38c-13.62,0-24.67-1.51-24.67-3.38
				c0-1.87,11.05-3.38,24.67-3.38C188.62,166.46,199.67,167.97,199.67,169.84z"/>
			<path class="st109" d="M198.9,169.84c0,1.79-10.7,3.24-23.9,3.24c-13.2,0-23.9-1.45-23.9-3.24c0-1.79,10.7-3.23,23.9-3.23
				C188.2,166.61,198.9,168.05,198.9,169.84z"/>
			<path class="st110" d="M198.13,169.84c0,1.71-10.36,3.09-23.13,3.09c-12.77,0-23.13-1.38-23.13-3.09
				c0-1.71,10.36-3.09,23.13-3.09C187.77,166.75,198.13,168.13,198.13,169.84z"/>
			<path class="st111" d="M197.36,169.84c0,1.63-10.01,2.95-22.36,2.95c-12.35,0-22.36-1.32-22.36-2.95
				c0-1.63,10.01-2.95,22.36-2.95C187.35,166.89,197.36,168.21,197.36,169.84z"/>
			<path class="st112" d="M196.59,169.84c0,1.55-9.67,2.8-21.59,2.8c-11.92,0-21.59-1.25-21.59-2.8c0-1.55,9.67-2.8,21.59-2.8
				C186.92,167.04,196.59,168.29,196.59,169.84z"/>
			<path class="st113" d="M195.82,169.84c0,1.47-9.32,2.66-20.82,2.66c-11.5,0-20.82-1.19-20.82-2.66c0-1.47,9.32-2.66,20.82-2.66
				C186.5,167.18,195.82,168.37,195.82,169.84z"/>
			<path class="st114" d="M195.05,169.84c0,1.39-8.98,2.52-20.05,2.52c-11.07,0-20.05-1.13-20.05-2.52c0-1.39,8.98-2.51,20.05-2.51
				C186.07,167.33,195.05,168.45,195.05,169.84z"/>
			<path class="st115" d="M194.28,169.84c0,1.31-8.63,2.37-19.28,2.37c-10.65,0-19.28-1.06-19.28-2.37c0-1.31,8.63-2.37,19.28-2.37
				C185.65,167.47,194.28,168.53,194.28,169.84z"/>
			<path class="st116" d="M193.51,169.84c0,1.23-8.29,2.23-18.51,2.23c-10.22,0-18.51-1-18.51-2.23c0-1.23,8.29-2.23,18.51-2.23
				C185.22,167.61,193.51,168.61,193.51,169.84z"/>
			<path class="st117" d="M192.74,169.84c0,1.15-7.94,2.08-17.74,2.08c-9.79,0-17.74-0.93-17.74-2.08c0-1.15,7.95-2.08,17.74-2.08
				C184.8,167.76,192.74,168.69,192.74,169.84z"/>
			<path class="st118" d="M191.97,169.84c0,1.07-7.6,1.94-16.97,1.94c-9.37,0-16.97-0.87-16.97-1.94c0-1.07,7.6-1.94,16.97-1.94
				C184.37,167.9,191.97,168.77,191.97,169.84z"/>
			<path class="st119" d="M191.2,169.84c0,0.99-7.25,1.8-16.2,1.8c-8.94,0-16.2-0.8-16.2-1.8c0-0.99,7.26-1.79,16.2-1.79
				C183.95,168.05,191.2,168.85,191.2,169.84z"/>
			<path class="st120" d="M190.43,169.84c0,0.91-6.91,1.65-15.43,1.65c-8.52,0-15.43-0.74-15.43-1.65c0-0.91,6.91-1.65,15.43-1.65
				C183.52,168.19,190.43,168.93,190.43,169.84z"/>
			<path class="st121" d="M189.66,169.84c0,0.83-6.56,1.51-14.66,1.51c-8.09,0-14.66-0.67-14.66-1.51c0-0.83,6.57-1.51,14.66-1.51
				C183.1,168.34,189.66,169.01,189.66,169.84z"/>
			<path class="st122" d="M188.89,169.84c0,0.75-6.22,1.36-13.89,1.36c-7.67,0-13.89-0.61-13.89-1.36c0-0.75,6.22-1.36,13.89-1.36
				C182.67,168.48,188.89,169.09,188.89,169.84z"/>
			<path class="st123" d="M188.12,169.84c0,0.67-5.88,1.22-13.12,1.22c-7.24,0-13.12-0.54-13.12-1.22c0-0.67,5.88-1.22,13.12-1.22
				C182.25,168.62,188.12,169.17,188.12,169.84z"/>
			<path class="st124" d="M187.35,169.84c0,0.6-5.53,1.08-12.35,1.08c-6.82,0-12.35-0.48-12.35-1.08c0-0.59,5.53-1.07,12.35-1.07
				C181.82,168.77,187.35,169.25,187.35,169.84z"/>
		</g>
		<path class="st125" d="M178.67,105.48c-6.97,6.08-19.8,15.62-33.41,25.79c-7.47-8.71-13.58-19.26-18.25-31.62
			c-1.39-3.7-2.62-7.58-3.73-11.55c1.37,1.27,3.5,2.23,6.52,2.82c25.55,5.02,45.88,5.45,52.39,8.8
			C182.59,101.16,181.52,102.99,178.67,105.48z M231.45,60.1c-15.47,4.69-30.61,10.85-44.99,18.35c-3.61-0.72-6.99-1.38-9.89-2.01
			c-1.98-0.43-3.6-1.01-4.8-1.73c-3.78-7.9,23.15-25.7,47-41.45c4.8,0.99,9.13,1.64,13.24,1.94
			C232.46,43.22,232.26,51.59,231.45,60.1z M186.59,25.15c-29.93,16.93-59.55,38.43-65.98,51.8c-2.74-13.66-3.82-28.17-3.04-42.15
			c9.85-0.67,18.89-3.09,27.66-5.43c9.96-2.65,19.37-5.16,29.78-5.28c0,0,0.02-0.01,0.03-0.01
			C178.99,24.13,182.82,24.54,186.59,25.15z M220.25,106.32c-9.97,22.45-25.16,38.25-45.25,46.99c-0.01,0-0.01,0-0.02,0.01
			c-6.35-2.77-12.19-6.25-17.55-10.42C181.01,130.23,205.9,116.06,220.25,106.32z M226.38,89.48c-9.51-5.35-35.46-9.51-49.89-12.62
			c-2.17-0.47-3.82-1.09-5.04-1.84c-4.16-8.05,20.76-24.72,47.25-42.21c4.43,0.94,8.98,1.67,13.72,2
			C233.47,53.14,231.31,72.42,226.38,89.48z"/>
		<path class="st126" d="M237.64,31.16l-0.13-1.64l-1.64-0.04c-10.48-0.29-20.24-2.88-29.67-5.4c-9.88-2.63-20.08-5.35-31.19-5.48
			v1.83c21.47,0.26,39.16,10.3,60.81,10.88c3.1,39.6-7.89,104.02-60.81,125.97v1.98l0.65-0.27
			C227.14,137.68,241.22,76.81,237.64,31.16z M222.39,101.23c-13.29,9.68-41.17,25.65-67.36,39.72c0.79,0.67,1.6,1.31,2.42,1.96
			c23.57-12.68,48.46-26.85,62.81-36.58C220.99,104.66,221.7,102.97,222.39,101.23z M171.45,75.01
			c-4.16-8.05,20.76-24.72,47.25-42.21c-1.33-0.28-2.66-0.57-3.97-0.88C186.35,50.67,160.53,68.27,171.45,75.01z M127.69,88.82
			c-1.88-0.37-3.41-0.88-4.64-1.53c0.08,0.28,0.17,0.54,0.24,0.81c1.37,1.27,3.5,2.23,6.52,2.82c25.55,5.02,45.88,5.45,52.39,8.8
			C180.69,94.28,157.81,94.73,127.69,88.82z M237.64,31.16l-0.13-1.64l-1.64-0.04c-10.48-0.29-20.24-2.88-29.67-5.4
			c-9.88-2.63-20.08-5.35-31.19-5.48h-0.07c-11.11,0.13-21.3,2.84-31.15,5.47c-9.45,2.52-19.22,5.12-29.74,5.41l-1.65,0.04
			l-0.12,1.64c-3.49,45.67,10.66,106.54,61.98,127.82l0.7,0.29l0.05-0.02l0.65-0.27C227.14,137.68,241.22,76.81,237.64,31.16z
			 M174.96,20.43h0.05c21.47,0.26,39.16,10.3,60.81,10.88c3.1,39.6-7.89,104.02-60.81,125.97c-0.02,0.01-0.03,0.02-0.05,0.02
			c-52.88-21.92-63.87-86.37-60.86-125.99C135.84,30.73,153.47,20.68,174.96,20.43z M157.44,142.91
			c23.57-12.68,48.46-26.85,62.81-36.58c0.73-1.66,1.45-3.35,2.13-5.09c-13.29,9.68-41.17,25.65-67.36,39.72
			C155.82,141.62,156.63,142.27,157.44,142.91z M171.45,75.01c-4.16-8.05,20.76-24.72,47.25-42.21c-1.33-0.28-2.66-0.57-3.97-0.88
			C186.35,50.67,160.53,68.27,171.45,75.01z M129.81,90.92c25.55,5.02,45.88,5.45,52.39,8.8c-1.51-5.44-24.38-5-54.5-10.91
			c-1.88-0.37-3.41-0.88-4.64-1.53c0.08,0.28,0.17,0.54,0.24,0.81C124.65,89.37,126.78,90.33,129.81,90.92z M243.46,24.74
			c-26.93-0.33-42.04-11.86-68.45-12.2h-0.05c-26.35,0.33-41.46,11.87-68.41,12.2c-2.36,29.08,1.17,114.62,68.41,145.68
			c0.02-0.01,0.03-0.02,0.05-0.03C242.28,139.32,245.81,53.81,243.46,24.74z M174.98,14.37h0.03c12.85,0.17,22.81,2.99,33.36,5.99
			c10.04,2.85,20.4,5.8,33.39,6.18c0.69,10.27,1.44,38.93-8.17,69.76c-10.78,34.59-30.48,58.83-58.58,72.09
			c-0.02,0-0.03,0.01-0.04,0.02c-28.1-13.25-47.79-37.5-58.56-72.11c-9.6-30.84-8.85-59.48-8.16-69.76
			c13-0.38,23.37-3.33,33.41-6.19C152.18,17.36,162.12,14.53,174.98,14.37z M157.44,142.91c23.57-12.68,48.46-26.85,62.81-36.58
			c0.73-1.66,1.45-3.35,2.13-5.09c-13.29,9.68-41.17,25.65-67.36,39.72C155.82,141.62,156.63,142.27,157.44,142.91z M171.45,75.01
			c-4.16-8.05,20.76-24.72,47.25-42.21c-1.33-0.28-2.66-0.57-3.97-0.88C186.35,50.67,160.53,68.27,171.45,75.01z M174.26,158.99
			l0.7,0.29l0.05-0.02l0.65-0.27c51.49-21.31,65.57-82.18,61.99-127.82l-0.13-1.64l-1.64-0.04c-10.48-0.29-20.24-2.88-29.67-5.4
			c-9.88-2.63-20.08-5.35-31.19-5.48h-0.07c-11.11,0.13-21.3,2.84-31.15,5.47c-9.45,2.52-19.22,5.12-29.74,5.41l-1.65,0.04
			l-0.12,1.64C108.79,76.83,122.94,137.71,174.26,158.99z M174.96,20.43h0.05c21.47,0.26,39.16,10.3,60.81,10.88
			c3.1,39.6-7.89,104.02-60.81,125.97c-0.02,0.01-0.03,0.02-0.05,0.02c-52.88-21.92-63.87-86.37-60.86-125.99
			C135.84,30.73,153.47,20.68,174.96,20.43z M129.81,90.92c25.55,5.02,45.88,5.45,52.39,8.8c-1.51-5.44-24.38-5-54.5-10.91
			c-1.88-0.37-3.41-0.88-4.64-1.53c0.08,0.28,0.17,0.54,0.24,0.81C124.65,89.37,126.78,90.33,129.81,90.92z M174.94,18.6
			c-11.11,0.13-21.3,2.84-31.15,5.47c-9.45,2.52-19.22,5.12-29.74,5.41l-1.65,0.04l-0.12,1.64
			c-3.49,45.67,10.66,106.54,61.98,127.82l0.7,0.29l0.05-0.02v-1.98c-0.02,0.01-0.03,0.02-0.05,0.02
			c-52.88-21.92-63.87-86.37-60.86-125.99c21.74-0.58,39.37-10.63,60.86-10.88h0.05V18.6H174.94z M155.02,140.95
			c0.79,0.67,1.6,1.31,2.42,1.96c23.57-12.68,48.46-26.85,62.81-36.58c0.73-1.66,1.45-3.35,2.13-5.09
			C209.1,110.92,181.22,126.89,155.02,140.95z M218.7,32.81c-1.33-0.28-2.66-0.57-3.97-0.88c-28.38,18.75-54.2,36.35-43.28,43.09
			C167.29,66.96,192.21,50.29,218.7,32.81z M127.69,88.82c-1.88-0.37-3.41-0.88-4.64-1.53c0.08,0.28,0.17,0.54,0.24,0.81
			c1.37,1.27,3.5,2.23,6.52,2.82c25.55,5.02,45.88,5.45,52.39,8.8C180.69,94.28,157.81,94.73,127.69,88.82z"/>
		<path class="st127" d="M233.79,96.35c-10.79,34.64-30.54,58.94-58.7,72.22l-0.09,0.04v-9.55l0.03,0.02l0.54-0.29
			c51.37-21.27,65.42-82.04,61.86-127.61l-0.12-1.45l-1.46-0.04c-10.49-0.28-20.25-2.88-29.7-5.4c-9.88-2.63-20.07-5.35-31.15-5.48
			v-4.65c12.9,0.17,22.87,3,33.42,6c10.02,2.85,20.38,5.79,33.34,6.17l0.19,0.01l0.02,0.19C242.69,37.3,243.34,65.68,233.79,96.35z
			 M174.34,158.79c-51.22-21.23-65.33-82.02-61.85-127.61l0.11-1.46l1.46-0.04c10.55-0.28,20.33-2.89,29.78-5.41
			c9.84-2.63,20.02-5.34,31.1-5.47l0-0.21l0.06,0.21h0v-4.65c-0.01,0-0.01,0-0.02,0c-12.89,0.16-22.84,3-33.38,5.99
			c-10.02,2.85-20.38,5.8-33.36,6.18l-0.19,0.01l-0.01,0.19c-0.72,10.78-1.38,39.16,8.16,69.83c10.78,34.66,30.53,58.97,58.67,72.24
			l0.13,0.02v-9.55L174.34,158.79z"/>
	</g>
</g>
</svg>
