<?xml version="1.0" encoding="utf-8"?>
<!-- Generator: Adobe Illustrator 27.8.1, SVG Export Plug-In . SVG Version: 6.00 Build 0)  -->
<svg version="1.1" xmlns="http://www.w3.org/2000/svg" xmlns:xlink="http://www.w3.org/1999/xlink" x="0px" y="0px"
	 viewBox="0 0 350 230" style="enable-background:new 0 0 350 230;" xml:space="preserve">
<style type="text/css">
	.st0{fill:#DDDDDD;}
	.st1{fill:#F7931E;}
	.st2{fill:#604F3E;}
	.st3{fill:#2B5C8E;}
	.st4{fill:#328DD8;}
	.st5{fill:#3A99CE;}
	.st6{fill:#6CAEE5;}
	.st7{fill:#8299A8;}
	.st8{fill:#117ABA;}
	.st9{fill:#64B9E8;}
	.st10{fill:#1D4656;}
	.st11{fill:#2491EB;}
	.st12{clip-path:url(#SVGID_00000118387460343175905650000013028710480351658411_);fill:#2491EB;}
	.st13{fill-rule:evenodd;clip-rule:evenodd;fill:#64B9E8;}
	.st14{fill-rule:evenodd;clip-rule:evenodd;fill:#083D6D;}
	.st15{clip-path:url(#SVGID_00000177441957152568365400000008506259020159083682_);fill:#1C73C0;}
	.st16{clip-path:url(#SVGID_00000146467959815830735690000012217710737656342440_);fill:#2491EB;}
	.st17{fill:#FFFFFF;}
	.st18{fill:#2489B5;}
	.st19{fill:#004C85;}
	.st20{fill:#0EB0CC;}
	.st21{fill:#1C75BC;}
	.st22{fill:#37008E;}
	.st23{fill-rule:evenodd;clip-rule:evenodd;fill:#231916;}
	.st24{fill-rule:evenodd;clip-rule:evenodd;fill:#008BD5;}
	.st25{fill:#26B1C1;}
	.st26{fill:#002A30;}
	.st27{fill:#07A8CC;}
	.st28{fill:#00E5ED;}
	.st29{fill:none;stroke:#010141;stroke-width:5;stroke-miterlimit:10;}
	.st30{fill:url(#SVGID_00000012442407620352810880000008299985930034620050_);}
	.st31{fill:#601D00;}
	.st32{fill:#7707D8;}
	.st33{fill:#CC9933;}
	.st34{fill:#0B3B84;}
	.st35{fill:#1373BC;}
	.st36{fill:#092341;}
	.st37{fill:#06779D;}
	.st38{fill:#4EC5DF;}
	.st39{fill:#23445E;}
	.st40{fill:#2E3758;}
	.st41{fill:#1A4764;}
	.st42{fill:#010101;}
	.st43{fill:#D4D4D3;}
	.st44{fill:#021784;}
	.st45{opacity:0.2;fill:#F1F2F2;}
	.st46{fill:#0A244F;}
	.st47{fill:#0049F8;}
	.st48{fill:#330044;}
	.st49{fill:#006CB5;}
	.st50{fill:#FF1200;}
	.st51{fill-rule:evenodd;clip-rule:evenodd;fill:#100D3B;}
	.st52{fill-rule:evenodd;clip-rule:evenodd;fill:#0000FF;}
	.st53{fill-rule:evenodd;clip-rule:evenodd;fill:#0094D9;}
	.st54{fill-rule:evenodd;clip-rule:evenodd;fill:#44C2F4;}
	.st55{fill-rule:evenodd;clip-rule:evenodd;fill:#004883;}
	.st56{fill-rule:evenodd;clip-rule:evenodd;fill:#0691CA;}
	.st57{opacity:0.5;}
	.st58{opacity:0;fill:#929497;}
	.st59{opacity:0.0152;fill:#909295;}
	.st60{opacity:0.0303;fill:#8F9093;}
	.st61{opacity:0.0455;fill:#8D8F92;}
	.st62{opacity:0.0606;fill:#8B8D90;}
	.st63{opacity:0.0758;fill:#8A8B8E;}
	.st64{opacity:0.0909;fill:#88898C;}
	.st65{opacity:0.1061;fill:#86888A;}
	.st66{opacity:0.1212;fill:#858689;}
	.st67{opacity:0.1364;fill:#838487;}
	.st68{opacity:0.1515;fill:#818285;}
	.st69{opacity:0.1667;fill:#7F8083;}
	.st70{opacity:0.1818;fill:#7E7F81;}
	.st71{opacity:0.197;fill:#7C7D80;}
	.st72{opacity:0.2121;fill:#7A7B7E;}
	.st73{opacity:0.2273;fill:#79797C;}
	.st74{opacity:0.2424;fill:#77787A;}
	.st75{opacity:0.2576;fill:#757678;}
	.st76{opacity:0.2727;fill:#747477;}
	.st77{opacity:0.2879;fill:#727275;}
	.st78{opacity:0.303;fill:#707173;}
	.st79{opacity:0.3182;fill:#6F6F71;}
	.st80{opacity:0.3333;fill:#6D6D6F;}
	.st81{opacity:0.3485;fill:#6B6B6E;}
	.st82{opacity:0.3636;fill:#6A696C;}
	.st83{opacity:0.3788;fill:#68686A;}
	.st84{opacity:0.3939;fill:#666668;}
	.st85{opacity:0.4091;fill:#656466;}
	.st86{opacity:0.4242;fill:#636265;}
	.st87{opacity:0.4394;fill:#616163;}
	.st88{opacity:0.4545;fill:#605F61;}
	.st89{opacity:0.4697;fill:#5E5D5F;}
	.st90{opacity:0.4848;fill:#5C5B5D;}
	.st91{opacity:0.5;fill:#5A5A5C;}
	.st92{opacity:0.5152;fill:#59585A;}
	.st93{opacity:0.5303;fill:#575658;}
	.st94{opacity:0.5455;fill:#555456;}
	.st95{opacity:0.5606;fill:#545254;}
	.st96{opacity:0.5758;fill:#525152;}
	.st97{opacity:0.5909;fill:#504F51;}
	.st98{opacity:0.6061;fill:#4F4D4F;}
	.st99{opacity:0.6212;fill:#4D4B4D;}
	.st100{opacity:0.6364;fill:#4B4A4B;}
	.st101{opacity:0.6515;fill:#4A4849;}
	.st102{opacity:0.6667;fill:#484648;}
	.st103{opacity:0.6818;fill:#464446;}
	.st104{opacity:0.697;fill:#454244;}
	.st105{opacity:0.7121;fill:#434142;}
	.st106{opacity:0.7273;fill:#413F40;}
	.st107{opacity:0.7424;fill:#403D3F;}
	.st108{opacity:0.7576;fill:#3E3B3D;}
	.st109{opacity:0.7727;fill:#3C3A3B;}
	.st110{opacity:0.7879;fill:#3B3839;}
	.st111{opacity:0.803;fill:#393637;}
	.st112{opacity:0.8182;fill:#373436;}
	.st113{opacity:0.8333;fill:#363334;}
	.st114{opacity:0.8485;fill:#343132;}
	.st115{opacity:0.8636;fill:#322F30;}
	.st116{opacity:0.8788;fill:#302D2E;}
	.st117{opacity:0.8939;fill:#2F2B2D;}
	.st118{opacity:0.9091;fill:#2D2A2B;}
	.st119{opacity:0.9242;fill:#2B2829;}
	.st120{opacity:0.9394;fill:#2A2627;}
	.st121{opacity:0.9545;fill:#282425;}
	.st122{opacity:0.9697;fill:#262324;}
	.st123{opacity:0.9848;fill:#252122;}
	.st124{fill:#231F20;}
	.st125{fill:#004883;}
	.st126{fill:#21597F;}
	.st127{fill:#919191;}
</style>
<g id="Layer_1">
</g>
<g id="Layer_2">
</g>
<g id="Layer_3">
</g>
<g id="Layer_4">
</g>
<g id="Layer_5">
</g>
<g id="Layer_6">
</g>
<g id="Layer_7">
</g>
<g id="Layer_8">
</g>
<g id="Layer_9">
</g>
<g id="Layer_10">
</g>
<g id="Layer_11">
</g>
<g id="Layer_12">
</g>
<g id="Layer_13">
</g>
<g id="Layer_14">
</g>
<g id="Layer_15">
	<g>
		<path class="st28" d="M239.71,106.97c-0.16-0.54-0.32-1.08-0.51-1.6c-0.01-0.03-0.03-0.05-0.03-0.08
			c-0.17-0.48-0.34-0.94-0.53-1.41c-0.03-0.04-0.05-0.07-0.05-0.1c-0.26-0.62-0.53-1.23-0.84-1.82c-0.3-0.63-0.63-1.25-0.98-1.83
			c-0.35-0.58-0.71-1.14-1.07-1.69c-0.45-0.64-0.9-1.25-1.38-1.83c-0.36-0.45-0.74-0.89-1.13-1.33c-0.28-0.31-0.56-0.61-0.85-0.91
			c-0.25-0.26-0.51-0.51-0.77-0.76c-1.83-1.77-3.88-3.31-6.08-4.69c-11.01-6.86-25.88-9.29-38.1-11.51c0.28,0.2,0.57,0.41,0.83,0.62
			c0.43,0.32,0.85,0.69,1.26,1.06c0.27,0.25,0.55,0.49,0.79,0.77c0.29,0.29,0.58,0.59,0.86,0.91c0.03,0.02,0.04,0.03,0.04,0.04
			c0.25,0.29,0.49,0.58,0.73,0.89c0.05,0.04,0.08,0.08,0.11,0.13c0.17,0.23,0.35,0.46,0.52,0.69c0.31,0.42,0.61,0.87,0.89,1.34
			c0.2,0.34,0.4,0.71,0.6,1.08c0.19,0.36,0.38,0.73,0.55,1.1c0.28,0.6,0.53,1.2,0.74,1.84c0.09,0.25,0.18,0.49,0.25,0.74
			c0.22,0.69,0.4,1.4,0.55,2.14c0.06,0.28,0.1,0.55,0.14,0.84c0.02,0.08,0.03,0.16,0.05,0.25c0.04,0.32,0.08,0.64,0.11,0.95
			c0.08,0.73,0.12,1.47,0.12,2.22c0,0.38-0.02,0.74-0.03,1.1c-0.01,0.38-0.04,0.74-0.09,1.1c-0.03,0.33-0.07,0.67-0.11,1
			c-0.12,0.75-0.28,1.49-0.47,2.22c-0.07,0.33-0.17,0.66-0.27,0.98c-0.1,0.35-0.23,0.7-0.35,1.04c-0.11,0.32-0.24,0.63-0.38,0.93
			c-0.1,0.25-0.2,0.49-0.31,0.72c-0.35,0.74-0.73,1.45-1.15,2.13c-0.35,0.57-0.71,1.12-1.11,1.65c0,0.02,0,0.02,0,0.02
			c-0.21,0.27-0.41,0.53-0.64,0.79c-0.2,0.26-0.43,0.54-0.68,0.79c-0.23,0.26-0.46,0.5-0.71,0.75l-0.19,0.19
			c-0.42,0.42-0.87,0.81-1.35,1.2c-0.26,0.23-0.53,0.43-0.81,0.64c-0.21,0.16-0.43,0.31-0.66,0.49c-1.31,0.9-2.71,1.65-4.2,2.24
			c-0.26,0.12-0.52,0.22-0.8,0.31c-0.27,0.1-0.55,0.19-0.81,0.27c6.75,1.68,11.21,3.85,11.21,7.92c0,6.5-6.78,10.57-23.59,10.57
			c-10.25,0-21.46-1.7-31.71-4.89l-0.02-0.02c-1.76-0.55-3.51-1.14-5.21-1.78c-0.81-0.3-1.61-0.6-2.39-0.92
			c-0.1-0.05-0.2-0.09-0.3-0.13c-0.77-0.32-1.54-0.64-2.3-0.99c-0.8-0.36-1.6-0.72-2.39-1.11c-2.35-1.15-4.58-2.38-6.65-3.71
			l-9.95,19.14c0,0.02,0,0.02,0,0.02l-8.77,16.91c9.93,6.34,27.29,11.53,46.8,13.5c0.68,0.07,1.37,0.14,2.07,0.19
			c0.69,0.05,1.39,0.11,2.1,0.17c0.69,0.06,1.39,0.1,2.1,0.14c3.52,0.24,7.08,0.37,10.65,0.37c43.66,0,78.11-17.89,78.11-53.15
			C241.17,113.77,240.65,110.18,239.71,106.97z M202,19.26c0,0-0.01,0-0.03,0c-2.39-0.1-4.78-0.18-7.18-0.18
			c-44.47,0-78.37,18.18-78.37,53.44c0,0.5,0.02,1,0.03,1.49c0,0.36,0.02,0.71,0.05,1.06c0.01,0.42,0.04,0.82,0.08,1.23
			c0.23,2.78,0.73,5.33,1.45,7.67c0.16,0.48,0.3,0.94,0.48,1.41c0.16,0.44,0.33,0.89,0.5,1.34c0.02,0.03,0.03,0.06,0.05,0.09
			c0.36,0.87,0.77,1.71,1.19,2.53c0.43,0.83,0.89,1.63,1.41,2.39c0.27,0.39,0.51,0.77,0.79,1.15c0.53,0.74,1.1,1.44,1.69,2.13v0.01
			c8.78,10.11,23.69,14.13,37.35,16.77c-0.06-0.05-0.12-0.1-0.18-0.16c-0.52-0.42-1.01-0.88-1.49-1.35
			c-0.26-0.24-0.52-0.52-0.75-0.79c-0.2-0.22-0.41-0.44-0.58-0.67c-0.26-0.29-0.51-0.61-0.74-0.93c-0.17-0.21-0.32-0.43-0.46-0.65
			c-0.18-0.23-0.34-0.46-0.48-0.71c-0.22-0.33-0.42-0.66-0.61-1.01s-0.38-0.7-0.55-1.06c-0.67-1.33-1.19-2.75-1.55-4.24
			c-0.06-0.19-0.1-0.39-0.13-0.6c-0.25-1.07-0.4-2.2-0.46-3.34c-0.03-0.42-0.05-0.84-0.05-1.26c0-0.45,0.02-0.91,0.05-1.35
			c0.01-0.29,0.04-0.56,0.07-0.85c0.03-0.35,0.07-0.7,0.13-1.03c0.06-0.43,0.14-0.87,0.23-1.29c0.06-0.27,0.12-0.53,0.19-0.79
			c0.1-0.4,0.2-0.79,0.33-1.16c0.06-0.21,0.13-0.41,0.21-0.61c0.05-0.2,0.13-0.39,0.2-0.58c0.22-0.58,0.46-1.13,0.72-1.67
			c0.15-0.31,0.31-0.62,0.47-0.92c0.37-0.68,0.76-1.32,1.2-1.94c0.16-0.23,0.32-0.47,0.49-0.68c0.55-0.76,1.14-1.45,1.8-2.1
			c0.16-0.16,0.31-0.32,0.47-0.48c0.28-0.28,0.55-0.55,0.86-0.78c0.2-0.18,0.4-0.35,0.62-0.52c0.26-0.24,0.52-0.44,0.81-0.64
			c0.54-0.38,1.09-0.74,1.67-1.09c2.39-1.42,5.06-2.39,7.93-2.81c-0.01,0-0.03-0.01-0.04-0.01c-2.84,0.4-5.49,1.37-7.85,2.78
			c1.61-1.65,3.61-2.91,5.84-3.68c-2.91-1.46-4.62-3.36-4.62-6.01c0-5.95,6.77-11.1,23.59-11.1c6.41,0,13.59,0.59,20.96,2.23
			c0.03,0,0.06,0,0.09,0.01c0.03,0,0.05,0.01,0.08,0.02c0.05,0.01,0.11,0.03,0.17,0.04c1.13,0.26,2.27,0.53,3.4,0.84
			c0.56,0.14,1.13,0.3,1.71,0.48c0.56,0.15,1.14,0.33,1.71,0.52c1.43,0.46,2.86,0.95,4.3,1.5c0.47,0.19,0.95,0.38,1.43,0.57
			c0.65,0.26,1.3,0.55,1.97,0.84c0.29,0.13,0.58,0.26,0.87,0.39c0.07,0.03,0.14,0.07,0.23,0.11c0.51,0.22,1.03,0.47,1.54,0.73
			c0.31,0.14,0.62,0.3,0.92,0.46c0.68,0.33,1.35,0.7,2.01,1.06c0.77,0.42,1.51,0.85,2.26,1.3l8.76-17.36v-0.01l9.42-18.68
			C237.94,24.27,220.35,20.13,202,19.26z"/>
		<path class="st17" d="M237.49,44.43c-0.66-0.82-1.33-1.61-2.02-2.41c-1.38-1.56-2.81-3.08-4.3-4.55
			c-0.76-0.72-1.52-1.43-2.29-2.14c-0.78-0.69-1.57-1.37-2.36-2.04c-0.81-0.68-1.62-1.33-2.45-1.97c-1.65-1.27-3.36-2.49-5.11-3.63
			c-0.88-0.58-1.77-1.13-2.67-1.67c-0.89-0.55-1.81-1.07-2.73-1.58c-0.07-0.04-0.16-0.08-0.23-0.13c-1.77-0.95-3.58-1.85-5.43-2.68
			c-0.96-0.43-1.94-0.84-2.93-1.24c-0.95-0.38-1.91-0.74-2.88-1.09c-0.03-0.03-0.06-0.03-0.09-0.04c0,0-0.01,0-0.03,0
			c-2.39-0.1-4.78-0.18-7.18-0.18c-44.47,0-78.37,18.18-78.37,53.44c0,0.5,0.02,1,0.03,1.49c0,0.36,0.02,0.71,0.05,1.06
			c0.01,0.42,0.04,0.82,0.08,1.23c0.23,2.78,0.73,5.33,1.45,7.67c0.16,0.48,0.3,0.94,0.48,1.41c0.16,0.44,0.33,0.89,0.5,1.34
			c0.02,0.03,0.03,0.06,0.05,0.09c0.36,0.87,0.77,1.71,1.19,2.53c0.44,0.83,0.91,1.63,1.41,2.39c0.27,0.39,0.51,0.77,0.79,1.15
			c0.53,0.74,1.1,1.44,1.69,2.13c0-1.76,0.09-3.49,0.26-5.2c0.06-0.58,0.13-1.16,0.2-1.73c0.02-0.04,0.02-0.08,0.03-0.14
			c0.08-0.58,0.18-1.15,0.28-1.72c0.01-0.15,0.04-0.31,0.07-0.45c0.15-0.76,0.29-1.51,0.46-2.25c0.12-0.52,0.25-1.03,0.4-1.55v-0.01
			c0.18-0.7,0.37-1.39,0.59-2.07c0.14-0.47,0.29-0.93,0.45-1.38c0.14-0.39,0.27-0.78,0.42-1.16c0.19-0.5,0.37-1,0.58-1.47
			c0.13-0.34,0.26-0.67,0.42-1c0.26-0.65,0.55-1.28,0.85-1.91c0.71-1.48,1.49-2.93,2.36-4.32c0.2-0.36,0.42-0.71,0.64-1.04
			c0.66-1.04,1.36-2.04,2.1-3.03c0.24-0.32,0.49-0.65,0.74-0.97c1.26-1.59,2.62-3.13,4.05-4.56c0.26-0.26,0.54-0.52,0.8-0.78
			c0.61-0.6,1.24-1.16,1.88-1.71c0.62-0.54,1.25-1.06,1.88-1.55c0.64-0.52,1.31-1,1.97-1.46c0.28-0.22,0.58-0.42,0.87-0.61
			c3.07-2.1,6.39-3.87,9.92-5.24c0.36-0.15,0.74-0.29,1.1-0.44c0.02,0,0.03-0.01,0.06-0.01c0.4-0.16,0.82-0.31,1.24-0.44
			c0.41-0.14,0.83-0.27,1.26-0.4c0.28-0.09,0.54-0.17,0.81-0.25c1.03-0.3,2.08-0.56,3.15-0.79c0.55-0.13,1.1-0.24,1.65-0.34
			c0.68-0.13,1.37-0.24,2.07-0.34c0.49-0.08,1-0.13,1.49-0.19c1.06-0.13,2.11-0.22,3.19-0.26c0.37-0.03,0.73-0.05,1.1-0.05
			c0.5-0.01,1.01-0.03,1.52-0.03c0.5,0,1.02,0.02,1.53,0.03c0.36,0,0.74,0.03,1.12,0.05c0.36,0.01,0.72,0.04,1.1,0.05
			c0.42,0.03,0.82,0.08,1.23,0.12c0.42,0.03,0.82,0.07,1.23,0.13c0.48,0.06,0.95,0.12,1.43,0.19c0.23,0.04,0.47,0.07,0.68,0.12
			c0.26,0.04,0.51,0.07,0.76,0.13c0.26,0.04,0.5,0.08,0.75,0.14c0.4,0.07,0.8,0.16,1.19,0.25c0.56,0.11,1.13,0.26,1.69,0.4
			c0.36,0.09,0.72,0.19,1.1,0.29c0.62,0.18,1.25,0.36,1.85,0.57c0.38,0.11,0.76,0.24,1.13,0.37c0.84,0.29,1.68,0.61,2.51,0.96
			c0.64,0.26,1.27,0.53,1.9,0.82c0.72,0.34,1.43,0.68,2.12,1.05c0.67,0.34,1.34,0.69,1.99,1.07c0.03,0.01,0.06,0.03,0.09,0.06
			c0.68,0.39,1.34,0.79,2.01,1.21c0.65,0.42,1.3,0.87,1.94,1.32c0.03,0.01,0.06,0.03,0.09,0.06c0.55,0.39,1.08,0.79,1.62,1.2
			c0.11,0.09,0.23,0.17,0.33,0.26c0.51,0.41,1.01,0.83,1.52,1.23c0.13,0.12,0.25,0.22,0.36,0.32c0.51,0.45,1.02,0.9,1.51,1.36
			c0.03,0.01,0.07,0.02,0.1,0.03c0.03,0,0.05,0.01,0.08,0.02c0.05,0.01,0.11,0.03,0.17,0.04c1.13,0.24,2.25,0.52,3.4,0.84
			c0.56,0.14,1.13,0.3,1.71,0.48c0.56,0.15,1.14,0.33,1.71,0.52c1.43,0.46,2.86,0.95,4.3,1.5c0.47,0.19,0.95,0.38,1.43,0.57
			c0.65,0.26,1.3,0.55,1.97,0.84c0.29,0.13,0.58,0.24,0.87,0.39c0.07,0.03,0.14,0.07,0.23,0.11c0.51,0.22,1.03,0.47,1.54,0.73
			c0.31,0.14,0.62,0.3,0.92,0.46c0.68,0.33,1.35,0.7,2.01,1.06c0.77,0.42,1.51,0.85,2.26,1.3l8.76-17.36v-0.01
			C240.06,47.71,238.81,46.05,237.49,44.43z M239.71,106.97c-0.16-0.54-0.32-1.08-0.51-1.6c-0.01-0.03-0.03-0.05-0.03-0.08
			c-0.17-0.48-0.34-0.94-0.53-1.41c-0.03-0.04-0.05-0.07-0.05-0.1c-0.26-0.62-0.53-1.23-0.84-1.82c-0.3-0.63-0.63-1.25-0.98-1.83
			c-0.35-0.58-0.71-1.14-1.07-1.69c-0.45-0.64-0.9-1.25-1.38-1.83c-0.36-0.45-0.74-0.89-1.13-1.33c-0.28-0.31-0.56-0.61-0.85-0.91
			c-0.25-0.26-0.51-0.51-0.77-0.76c-1.84-1.75-3.88-3.29-6.08-4.66c0-0.01-0.01-0.01-0.01-0.01c0.13,1,0.21,2,0.27,3.01
			c0.04,0.52,0.06,1.03,0.07,1.54c0.02,0.5,0.03,1.01,0.03,1.53c0,28.09-22.76,50.86-50.85,50.86c-0.89,0-1.76-0.03-2.62-0.08
			c-0.22,0-0.45-0.01-0.67-0.04c-0.29-0.01-0.58-0.03-0.87-0.06c-0.36-0.03-0.72-0.06-1.07-0.09c-0.31-0.02-0.59-0.07-0.88-0.1
			c-0.26-0.03-0.53-0.05-0.77-0.1c-0.47-0.06-0.9-0.13-1.35-0.2c-0.75-0.12-1.49-0.26-2.23-0.41c-0.01,0-0.04-0.01-0.06-0.01
			c-0.33-0.07-0.65-0.13-0.97-0.22c-0.42-0.08-0.82-0.19-1.23-0.3c-0.26-0.06-0.5-0.13-0.76-0.2c-0.31-0.08-0.6-0.16-0.89-0.25
			c-0.26-0.07-0.51-0.15-0.75-0.23c-0.31-0.09-0.61-0.19-0.91-0.29c-0.42-0.15-0.84-0.29-1.26-0.44c-1.25-0.45-2.48-0.95-3.67-1.49
			c-0.75-0.33-1.47-0.69-2.2-1.06c-1.61-0.82-3.17-1.73-4.68-2.72c-0.36-0.24-0.72-0.49-1.08-0.74c-0.36-0.24-0.71-0.49-1.06-0.75
			c-0.35-0.25-0.69-0.51-1.04-0.78c-0.59-0.46-1.19-0.94-1.77-1.43c-0.08-0.06-0.17-0.13-0.24-0.21c-0.45-0.37-0.89-0.76-1.32-1.17
			c-0.1-0.07-0.19-0.17-0.29-0.26c-0.51-0.46-1-0.94-1.48-1.43c-0.53-0.54-1.05-1.08-1.56-1.64l-0.02-0.02
			c-1.76-0.55-3.51-1.14-5.21-1.78c-0.81-0.3-1.61-0.6-2.39-0.92c-0.1-0.05-0.2-0.09-0.3-0.13c-0.77-0.32-1.54-0.64-2.3-0.99
			c-0.8-0.36-1.6-0.72-2.39-1.11c-2.35-1.15-4.58-2.38-6.65-3.71l-9.95,19.14c0,0.02,0,0.02,0,0.02c0.58,0.85,1.16,1.69,1.77,2.52
			c0.61,0.82,1.21,1.65,1.85,2.46c0,0,0,0,0,0.01c0.64,0.79,1.28,1.57,1.93,2.33c0.01,0.03,0.04,0.06,0.06,0.09
			c1,1.16,2.02,2.29,3.06,3.39c0.34,0.37,0.7,0.74,1.06,1.1c0.73,0.72,1.46,1.45,2.22,2.14c1.49,1.41,3.04,2.76,4.65,4.03
			c1.59,1.3,3.24,2.52,4.95,3.68c0.85,0.58,1.72,1.14,2.59,1.69c0.87,0.55,1.77,1.09,2.65,1.59c0.9,0.53,1.81,1.02,2.72,1.51
			c0.91,0.48,1.84,0.94,2.78,1.39c0.94,0.45,1.89,0.87,2.84,1.29c0.96,0.4,1.93,0.8,2.9,1.17c0.69,0.07,1.37,0.13,2.07,0.21
			c0.69,0.05,1.39,0.11,2.1,0.17c0.69,0.06,1.39,0.1,2.1,0.14c3.52,0.24,7.08,0.37,10.65,0.37c43.66,0,78.11-17.89,78.11-53.15
			C241.17,113.77,240.65,110.18,239.71,106.97z"/>
		<path class="st29" d="M196.41,92.8c-0.03-0.31-0.07-0.63-0.11-0.95c-0.02-0.09-0.03-0.17-0.05-0.25
			c-0.04-0.29-0.08-0.56-0.14-0.84c-0.15-0.74-0.33-1.45-0.55-2.14c-0.07-0.25-0.16-0.49-0.25-0.74c-0.21-0.64-0.46-1.24-0.74-1.84
			c-0.17-0.37-0.36-0.74-0.55-1.1c-0.2-0.37-0.4-0.74-0.6-1.08c-0.28-0.47-0.58-0.92-0.89-1.34c-0.17-0.23-0.35-0.46-0.52-0.69
			c-0.03-0.05-0.06-0.09-0.11-0.13c-0.24-0.31-0.48-0.6-0.73-0.89c0-0.01-0.01-0.02-0.04-0.04c-0.28-0.32-0.57-0.62-0.86-0.91
			c-0.24-0.28-0.52-0.52-0.79-0.77c-0.41-0.37-0.83-0.74-1.26-1.06c-0.26-0.21-0.55-0.42-0.83-0.62c-0.98-0.69-2.03-1.3-3.11-1.82
			c3.18,2.72,5.21,6.77,5.21,11.31c0,6.4-4.05,11.86-9.73,13.96v11.97c0,1.33-0.51,2.54-1.35,3.45c1.02-0.16,2.03-0.39,3-0.7
			c0.26-0.08,0.54-0.17,0.81-0.27c0.28-0.09,0.54-0.19,0.8-0.31c1.49-0.59,2.89-1.34,4.2-2.24c0.23-0.18,0.45-0.33,0.66-0.49
			c0.28-0.21,0.55-0.42,0.81-0.64c0.48-0.39,0.93-0.78,1.35-1.2l0.19-0.19c0.25-0.25,0.48-0.49,0.71-0.75
			c0.23-0.25,0.46-0.51,0.68-0.79c0.22-0.26,0.42-0.52,0.64-0.79c0,0,0,0,0-0.02c0.4-0.53,0.76-1.08,1.11-1.65
			c0.42-0.68,0.8-1.39,1.15-2.13c0.11-0.23,0.21-0.47,0.31-0.72c0.14-0.3,0.27-0.61,0.38-0.93c0.12-0.34,0.25-0.69,0.35-1.04
			c0.1-0.32,0.2-0.65,0.27-0.98c0.19-0.73,0.35-1.47,0.47-2.22c0.04-0.33,0.08-0.67,0.11-1c0.05-0.36,0.08-0.72,0.09-1.1
			c0.01-0.36,0.03-0.72,0.03-1.1C196.53,94.27,196.49,93.53,196.41,92.8z M169.51,100.86c-5.68-2.1-9.73-7.56-9.73-13.96
			c0-4.03,1.6-7.68,4.2-10.36c2.39-1.42,5.06-2.39,7.93-2.81c-0.01,0-0.03-0.01-0.04-0.01c-2.84,0.4-5.49,1.37-7.85,2.78
			c-0.59,0.35-1.16,0.72-1.71,1.13c-0.29,0.2-0.55,0.4-0.81,0.64c-0.22,0.17-0.42,0.34-0.62,0.52c-0.31,0.23-0.58,0.5-0.86,0.78
			c-0.16,0.16-0.31,0.32-0.47,0.48c-0.66,0.65-1.25,1.34-1.8,2.1c-0.17,0.21-0.33,0.45-0.49,0.68c-0.44,0.62-0.83,1.26-1.2,1.94
			c-0.16,0.3-0.32,0.61-0.47,0.92c-0.26,0.54-0.5,1.09-0.72,1.67c-0.07,0.19-0.15,0.38-0.2,0.58c-0.08,0.2-0.15,0.4-0.21,0.61
			c-0.13,0.37-0.23,0.76-0.33,1.16c-0.07,0.26-0.13,0.52-0.19,0.79c-0.09,0.42-0.17,0.86-0.23,1.29c-0.06,0.33-0.1,0.68-0.13,1.03
			c-0.03,0.29-0.06,0.56-0.07,0.85c-0.03,0.44-0.05,0.9-0.05,1.35c0,0.42,0.02,0.84,0.05,1.26c0.06,1.14,0.21,2.27,0.46,3.34
			c0.03,0.21,0.07,0.41,0.13,0.6c0.36,1.49,0.88,2.91,1.55,4.24c0.17,0.36,0.36,0.71,0.55,1.06s0.39,0.68,0.61,1.01
			c0.14,0.25,0.3,0.48,0.48,0.71c0.14,0.22,0.29,0.44,0.46,0.65c0.23,0.32,0.48,0.64,0.74,0.93c0.17,0.23,0.38,0.45,0.58,0.67
			c0.23,0.27,0.49,0.55,0.75,0.79c0.48,0.47,0.97,0.93,1.49,1.35c2.67,2.21,5.88,3.79,9.41,4.5c-0.75-0.88-1.21-2.04-1.21-3.3
			V100.86z M225.82,93.49c-0.01-0.51-0.03-1.02-0.07-1.54c-0.04-1.01-0.14-2.01-0.26-3c0-0.01,0-0.03,0-0.03
			c-1.45-12.17-7.2-23.02-15.7-30.98c0-0.02-0.01-0.02-0.01-0.02c-0.49-0.46-1-0.91-1.51-1.36c-0.11-0.1-0.23-0.2-0.36-0.32
			c-0.51-0.4-1.01-0.82-1.52-1.23c-0.1-0.09-0.22-0.17-0.33-0.26c-0.54-0.41-1.07-0.81-1.62-1.2c-0.03-0.03-0.06-0.05-0.09-0.06
			c-0.64-0.45-1.29-0.9-1.94-1.32c-0.67-0.42-1.33-0.82-2.01-1.21c-0.03-0.03-0.06-0.05-0.09-0.06c-0.65-0.38-1.32-0.73-1.99-1.07
			c-0.69-0.37-1.4-0.71-2.12-1.05c-0.63-0.29-1.26-0.56-1.9-0.82c-0.83-0.35-1.67-0.67-2.51-0.96c-0.37-0.13-0.75-0.26-1.13-0.37
			c-0.6-0.21-1.23-0.39-1.85-0.57c-0.38-0.1-0.74-0.2-1.1-0.29c-0.56-0.14-1.13-0.29-1.69-0.4c-0.39-0.09-0.79-0.18-1.19-0.25
			c-0.25-0.06-0.49-0.1-0.75-0.14c-0.25-0.06-0.5-0.09-0.76-0.13c-0.21-0.05-0.45-0.08-0.68-0.12c-0.48-0.07-0.95-0.13-1.43-0.19
			c-0.41-0.06-0.81-0.1-1.23-0.13c-0.41-0.04-0.81-0.09-1.23-0.12c-0.38-0.01-0.74-0.04-1.1-0.05c-0.38-0.02-0.76-0.05-1.12-0.05
			c-0.51-0.01-1.03-0.03-1.53-0.03c-0.51,0-1.02,0.02-1.52,0.03c-0.37,0-0.73,0.02-1.1,0.05c-1.08,0.04-2.13,0.13-3.19,0.26
			c-0.49,0.06-1,0.11-1.49,0.19c-0.7,0.1-1.39,0.21-2.07,0.34c-0.55,0.1-1.1,0.21-1.65,0.34c-1.07,0.23-2.12,0.49-3.15,0.79
			c-0.27,0.08-0.53,0.16-0.81,0.25c-0.43,0.13-0.85,0.26-1.26,0.4c-0.42,0.13-0.84,0.28-1.24,0.44c-0.03,0-0.04,0.01-0.06,0.01
			c-0.36,0.15-0.74,0.29-1.1,0.44c-3.53,1.37-6.85,3.14-9.92,5.24c-0.29,0.19-0.59,0.39-0.87,0.61c-0.66,0.46-1.33,0.94-1.97,1.46
			c-0.63,0.49-1.26,1.01-1.88,1.55c-0.64,0.55-1.27,1.11-1.88,1.71c-0.26,0.26-0.54,0.52-0.8,0.78c-1.45,1.43-2.81,2.95-4.05,4.56
			c-0.25,0.32-0.5,0.65-0.74,0.97c-0.75,0.99-1.45,1.99-2.1,3.03c-0.22,0.33-0.44,0.68-0.64,1.04c-0.87,1.39-1.65,2.84-2.36,4.32
			c-0.3,0.63-0.59,1.26-0.85,1.91c-0.15,0.33-0.29,0.66-0.42,1c-0.21,0.47-0.39,0.97-0.58,1.47c-0.15,0.38-0.28,0.77-0.42,1.16
			c-0.16,0.45-0.31,0.91-0.45,1.38c-0.22,0.68-0.41,1.37-0.59,2.07v0.01c-0.15,0.52-0.28,1.03-0.4,1.55
			c-0.17,0.74-0.31,1.49-0.46,2.25c-0.03,0.14-0.06,0.3-0.07,0.45c-0.1,0.57-0.2,1.14-0.28,1.72c-0.01,0.06-0.01,0.1-0.03,0.14
			c-0.07,0.57-0.14,1.15-0.2,1.73c-0.17,1.71-0.26,3.44-0.26,5.2v0.01c0,13.13,4.98,25.11,13.16,34.14l0.02,0.02
			c0.51,0.56,1.03,1.1,1.56,1.64c0.48,0.49,0.97,0.97,1.48,1.43c0.1,0.09,0.19,0.19,0.29,0.26c0.43,0.41,0.87,0.8,1.32,1.17
			c0.07,0.08,0.16,0.15,0.24,0.21c0.58,0.49,1.18,0.97,1.77,1.43c0.35,0.27,0.69,0.53,1.04,0.78c0.35,0.26,0.7,0.51,1.06,0.75
			c0.36,0.25,0.72,0.5,1.08,0.74c1.51,0.99,3.07,1.9,4.68,2.72c0.73,0.37,1.45,0.73,2.2,1.06c1.19,0.54,2.42,1.04,3.67,1.49
			c0.42,0.15,0.84,0.29,1.26,0.44c0.3,0.1,0.6,0.2,0.91,0.29c0.24,0.08,0.49,0.16,0.75,0.23c0.29,0.09,0.58,0.17,0.89,0.25
			c0.26,0.07,0.5,0.14,0.76,0.2c0.41,0.11,0.81,0.22,1.23,0.3c0.32,0.09,0.64,0.15,0.97,0.22c0.02,0,0.05,0.01,0.06,0.01
			c0.74,0.15,1.48,0.29,2.23,0.41c0.45,0.07,0.88,0.14,1.35,0.2c0.24,0.05,0.51,0.07,0.77,0.1c0.29,0.03,0.57,0.08,0.88,0.1
			c0.35,0.03,0.71,0.06,1.07,0.09c0.29,0.03,0.58,0.05,0.87,0.06c0.22,0.03,0.45,0.04,0.67,0.04c0.86,0.05,1.73,0.08,2.62,0.08
			c28.09,0,50.85-22.77,50.85-50.86C225.85,94.5,225.84,93.99,225.82,93.49z M169.86,72.82c1.5-0.51,3.11-0.78,4.77-0.78
			c3.7,0,7.06,1.35,9.65,3.55c3.18,2.72,5.21,6.77,5.21,11.31c0,6.4-4.05,11.86-9.73,13.96v11.97c0,1.33-0.51,2.54-1.35,3.45
			c-0.92,1.03-2.28,1.66-3.78,1.66c-1.56,0-2.96-0.71-3.91-1.81c-0.75-0.88-1.21-2.04-1.21-3.3v-11.97
			c-5.68-2.1-9.73-7.56-9.73-13.96c0-4.03,1.6-7.68,4.2-10.36c2.39-1.42,5.06-2.39,7.93-2.81c-0.01,0-0.03-0.01-0.04-0.01
			c-2.84,0.4-5.49,1.37-7.85,2.78C165.63,74.85,167.63,73.59,169.86,72.82z M241.24,49.45v-0.01c-1.18-1.73-2.43-3.39-3.75-5.01
			c-0.66-0.82-1.33-1.61-2.02-2.41c-1.38-1.56-2.81-3.08-4.3-4.55c-0.76-0.72-1.52-1.43-2.29-2.14c-0.78-0.69-1.57-1.37-2.36-2.04
			c-0.81-0.68-1.62-1.33-2.45-1.97c-1.65-1.29-3.36-2.5-5.11-3.63c-0.88-0.58-1.77-1.13-2.67-1.67c-0.89-0.55-1.81-1.07-2.73-1.58
			c-0.07-0.04-0.16-0.08-0.23-0.13c-1.77-0.95-3.58-1.85-5.43-2.68c-0.96-0.43-1.94-0.84-2.93-1.24c-0.95-0.38-1.91-0.74-2.88-1.09
			c-0.03-0.03-0.06-0.03-0.09-0.04c0,0-0.01,0-0.03,0c-8.42-3.01-17.52-4.65-26.97-4.65c-44.42,0-80.41,36-80.41,80.41
			c0,16.52,4.98,31.87,13.52,44.64c0,0.02,0,0.02,0,0.02c0.58,0.85,1.16,1.69,1.77,2.52c0.61,0.82,1.21,1.65,1.85,2.46
			c0,0,0,0,0,0.01c0.64,0.79,1.28,1.57,1.93,2.33c0.01,0.03,0.04,0.06,0.06,0.09c0.98,1.16,2,2.3,3.06,3.39
			c0.34,0.37,0.7,0.74,1.06,1.1c0.73,0.72,1.46,1.45,2.22,2.14c1.49,1.41,3.04,2.76,4.65,4.03c1.59,1.3,3.24,2.52,4.95,3.68
			c0.85,0.58,1.72,1.14,2.59,1.69c0.87,0.55,1.77,1.09,2.65,1.59c0.9,0.53,1.81,1.02,2.72,1.51c0.91,0.48,1.84,0.94,2.78,1.39
			c0.94,0.45,1.89,0.87,2.84,1.29c0.96,0.42,1.93,0.81,2.9,1.19c8.95,3.46,18.69,5.34,28.86,5.34c44.41,0,80.41-36,80.41-80.41
			C255.41,78.09,250.18,62.4,241.24,49.45z M169.51,112.83v-11.97c-5.68-2.1-9.73-7.56-9.73-13.96c0-4.03,1.6-7.68,4.2-10.36
			c2.39-1.42,5.06-2.39,7.93-2.81c-0.01,0-0.03-0.01-0.04-0.01c-2.84,0.4-5.49,1.37-7.85,2.78c1.61-1.65,3.61-2.91,5.84-3.68
			c1.5-0.51,3.11-0.78,4.77-0.78c3.7,0,7.06,1.35,9.65,3.55c3.18,2.72,5.21,6.77,5.21,11.31c0,6.4-4.05,11.86-9.73,13.96v11.97
			c0,1.33-0.51,2.54-1.35,3.45c-0.92,1.03-2.28,1.66-3.78,1.66c-1.56,0-2.96-0.71-3.91-1.81
			C169.97,115.25,169.51,114.09,169.51,112.83z"/>
		
			<linearGradient id="SVGID_00000015336585202373666080000012072650617654208943_" gradientUnits="userSpaceOnUse" x1="168.0565" y1="60.7734" x2="167.9467" y2="75.3767">
			<stop  offset="0.1745" style="stop-color:#D97314"/>
			<stop  offset="1" style="stop-color:#C1252C"/>
		</linearGradient>
		<path style="fill:url(#SVGID_00000015336585202373666080000012072650617654208943_);" d="M171.87,73.72
			c-2.84,0.4-5.49,1.37-7.85,2.78c-0.01,0.01-0.03,0.03-0.04,0.04c2.39-1.42,5.06-2.39,7.93-2.81
			C171.9,73.73,171.88,73.72,171.87,73.72z"/>
		<path class="st31" d="M174.63,101.75c-1.79,0-3.51-0.32-5.12-0.89v11.97c0,1.26,0.46,2.42,1.21,3.3c1.38,0.28,2.81,0.42,4.28,0.42
			c1.15,0,2.3-0.08,3.41-0.27c0.84-0.91,1.35-2.12,1.35-3.45v-11.97C178.17,101.43,176.44,101.75,174.63,101.75z M184.28,75.59
			c-2.81-1.35-5.95-2.1-9.28-2.1c-1.06,0-2.1,0.07-3.13,0.23c0.01,0,0.03,0.01,0.04,0.01c-2.87,0.42-5.54,1.39-7.93,2.81
			c-2.6,2.68-4.2,6.33-4.2,10.36c0,6.4,4.05,11.86,9.73,13.96V83.73h10.25v17.13c5.68-2.1,9.73-7.56,9.73-13.96
			C189.49,82.36,187.46,78.31,184.28,75.59z"/>
	</g>
</g>
</svg>
