<?xml version="1.0" encoding="utf-8"?>
<!-- Generator: Adobe Illustrator 27.8.1, SVG Export Plug-In . SVG Version: 6.00 Build 0)  -->
<svg version="1.1" id="Layer_1" xmlns="http://www.w3.org/2000/svg" xmlns:xlink="http://www.w3.org/1999/xlink" x="0px" y="0px"
	 viewBox="0 0 350 230" style="enable-background:new 0 0 350 230;" xml:space="preserve">
<style type="text/css">
	.st0{fill:#005868;}
	.st1{fill:#FF0087;}
	.st2{fill:#002F44;}
	.st3{fill:#FC9500;}
	.st4{fill:#003144;}
	.st5{fill:#00AAFF;}
	.st6{fill:#00FFE6;}
	.st7{fill:#F46CFF;}
	.st8{fill:#0043FF;}
	.st9{fill:#977D00;}
	.st10{fill-rule:evenodd;clip-rule:evenodd;fill:#5BB200;}
	.st11{fill-rule:evenodd;clip-rule:evenodd;fill:#747C04;}
	.st12{fill:#735500;}
	.st13{fill:#4D0600;}
	.st14{fill-rule:evenodd;clip-rule:evenodd;fill:#FF0074;}
	.st15{fill-rule:evenodd;clip-rule:evenodd;fill:#004972;}
	.st16{fill:#E5BB07;}
	.st17{fill-rule:evenodd;clip-rule:evenodd;fill:#C2C700;}
	.st18{fill-rule:evenodd;clip-rule:evenodd;fill:#FF0062;}
	.st19{fill-rule:evenodd;clip-rule:evenodd;fill:#C44600;}
	.st20{fill:#02D3BE;}
	.st21{fill:#D3B900;}
	.st22{fill:#0055FF;}
	.st23{fill:#D17315;}
	.st24{fill:#9E580B;}
	.st25{fill:url(#SVGID_1_);}
	.st26{fill:#05ADFC;}
	.st27{fill:#F1F9C2;}
	.st28{fill-rule:evenodd;clip-rule:evenodd;fill:#282000;}
</style>
<g>
	<path class="st4" d="M227.68,65.88v35.49c0,2.16-1.15,4.15-3.02,5.23l-21.77,12.57c0,0,0,0,0,0l-31.88,18.4
		c-1.67,0.97-3.78,0.46-4.7-1.14c-0.92-1.6-0.31-3.68,1.36-4.64l16.56-9.56l-6.68-3.86l-17.34,10.01c-1.67,0.97-3.78,0.46-4.7-1.14
		c-0.92-1.6-0.31-3.68,1.36-4.64l14-8.08l-6.68-3.86l-31.66,18.28c-1.67,0.97-3.78,0.45-4.7-1.14c-0.92-1.6-0.31-3.68,1.36-4.64
		l28.32-16.35l-0.35-0.2c-0.93-0.54-1.69-1.31-2.21-2.21c-0.52-0.9-0.81-1.94-0.81-3.02v-0.35l-11.39,6.58
		c-1.67,0.97-3.78,0.45-4.7-1.14c-0.92-1.6-0.31-3.68,1.36-4.64l14.74-8.51v-7.71L127.45,101c-1.67,0.97-3.78,0.46-4.7-1.14
		c-0.92-1.6-0.31-3.68,1.36-4.64l30.03-17.34v-7.77l-16.56,9.56c-1.67,0.97-3.78,0.46-4.7-1.14c-0.92-1.6-0.31-3.68,1.36-4.64
		l22.91-13.23c0,0,0,0,0,0l30.74-17.75c1.87-1.08,4.17-1.08,6.03,0l30.74,17.74C226.53,61.73,227.68,63.73,227.68,65.88z"/>
	<path class="st5" d="M190.91,112.63c-0.18,0-0.37-0.05-0.53-0.14l-24.2-13.97c-0.33-0.19-0.53-0.54-0.53-0.92V69.66
		c0-0.38,0.2-0.73,0.53-0.92c0.33-0.19,0.74-0.19,1.06,0l24.2,13.97c0.33,0.19,0.53,0.54,0.53,0.92v27.94c0,0.38-0.2,0.73-0.53,0.92
		C191.28,112.58,191.09,112.63,190.91,112.63z M167.78,96.98l22.07,12.74V84.24L167.78,71.5V96.98z M190.91,112.63
		c-0.18,0-0.37-0.05-0.53-0.14l-24.2-13.97c-0.33-0.19-0.53-0.54-0.53-0.92V69.66c0-0.38,0.2-0.73,0.53-0.92l24.2-13.97
		c0.33-0.19,0.73-0.19,1.06,0l24.2,13.97c0.33,0.19,0.53,0.54,0.53,0.92V97.6c0,0.38-0.2,0.73-0.53,0.92l-24.2,13.97
		C191.28,112.58,191.09,112.63,190.91,112.63z M167.78,96.98l23.13,13.36l23.13-13.36V70.27l-23.13-13.36l-23.13,13.36V96.98z
		 M190.91,112.63c-0.18,0-0.37-0.05-0.53-0.14c-0.33-0.19-0.53-0.54-0.53-0.92V83.63c0-0.38,0.2-0.73,0.53-0.92l24.2-13.97
		c0.33-0.19,0.73-0.19,1.06,0c0.33,0.19,0.53,0.54,0.53,0.92V97.6c0,0.38-0.2,0.73-0.53,0.92l-24.2,13.97
		C191.28,112.58,191.09,112.63,190.91,112.63z M191.97,84.24v25.48l22.07-12.74V71.5L191.97,84.24z M190.91,84.69
		c-0.18,0-0.37-0.05-0.53-0.14l-24.2-13.97c-0.33-0.19-0.53-0.54-0.53-0.92c0-0.38,0.2-0.73,0.53-0.92l24.2-13.97
		c0.33-0.19,0.73-0.19,1.06,0l24.2,13.97c0.33,0.19,0.53,0.54,0.53,0.92c0,0.38-0.2,0.73-0.53,0.92l-24.2,13.97
		C191.28,84.64,191.09,84.69,190.91,84.69z M168.84,69.66l22.07,12.74l22.07-12.74l-22.07-12.74L168.84,69.66z M190.91,84.69
		c-0.18,0-0.37-0.05-0.53-0.14l-12.35-7.13c-0.33-0.19-0.53-0.54-0.53-0.92c0-0.38,0.2-0.73,0.53-0.92l12.35-7.13
		c0.33-0.19,0.73-0.19,1.06,0l12.35,7.13c0.33,0.19,0.53,0.54,0.53,0.92c0,0.38-0.2,0.73-0.53,0.92l-12.35,7.13
		C191.28,84.64,191.09,84.69,190.91,84.69z M180.69,76.5l10.22,5.9l10.22-5.9l-10.22-5.9L180.69,76.5z M166.71,69.66l-4.77,13.39
		l24.2,13.97l4.77-13.39L166.71,69.66z M186.14,98.08c-0.18,0-0.37-0.05-0.53-0.14l-24.2-13.97c-0.44-0.26-0.64-0.8-0.47-1.28
		l4.77-13.39c0.11-0.3,0.34-0.53,0.64-0.64c0.3-0.11,0.63-0.08,0.9,0.08l24.2,13.97c0.45,0.26,0.64,0.79,0.47,1.28l-4.77,13.39
		c-0.11,0.3-0.34,0.53-0.64,0.64C186.39,98.06,186.26,98.08,186.14,98.08z M163.25,82.57l22.32,12.89l4.04-11.35l-22.32-12.89
		L163.25,82.57z M190.91,83.63l4.77,13.39l24.2-13.97l-4.77-13.39L190.91,83.63z M195.68,98.08c-0.12,0-0.25-0.02-0.37-0.07
		c-0.3-0.11-0.53-0.34-0.64-0.64l-4.77-13.39c-0.17-0.48,0.03-1.02,0.47-1.28l24.2-13.97c0.27-0.16,0.61-0.19,0.9-0.08
		c0.3,0.11,0.53,0.34,0.64,0.64l4.77,13.39c0.17,0.48-0.03,1.02-0.47,1.28l-24.2,13.97C196.05,98.03,195.86,98.08,195.68,98.08z
		 M192.21,84.11l4.04,11.35l22.32-12.89l-4.04-11.35L192.21,84.11z M125.27,82.9c-0.92-1.59-0.37-3.62,1.22-4.53
		c1.59-0.92,3.62-0.37,4.53,1.21c0.92,1.59,0.37,3.62-1.21,4.53C128.22,85.03,126.19,84.48,125.27,82.9z M135.48,111.77
		c1.59-0.92,2.13-2.95,1.21-4.53c-0.92-1.59-2.95-2.13-4.53-1.21c-1.59,0.92-2.13,2.95-1.21,4.53
		C131.87,112.14,133.89,112.69,135.48,111.77z M148.5,127.45c-1.59,0.92-2.13,2.94-1.21,4.53c0.92,1.59,2.95,2.13,4.53,1.21
		c1.59-0.92,2.13-2.95,1.22-4.53C152.12,127.08,150.08,126.54,148.5,127.45z"/>
</g>
</svg>
