<?xml version="1.0" encoding="utf-8"?>
<!-- Generator: Adobe Illustrator 27.8.1, SVG Export Plug-In . SVG Version: 6.00 Build 0)  -->
<svg version="1.1" xmlns="http://www.w3.org/2000/svg" xmlns:xlink="http://www.w3.org/1999/xlink" x="0px" y="0px"
	 viewBox="0 0 350 230" style="enable-background:new 0 0 350 230;" xml:space="preserve">
<style type="text/css">
	.st0{fill:#DDDDDD;}
	.st1{fill:#F7931E;}
	.st2{fill:#604F3E;}
	.st3{fill:#2B5C8E;}
	.st4{fill:#328DD8;}
	.st5{fill:#3A99CE;}
	.st6{fill:#6CAEE5;}
	.st7{fill:#8299A8;}
	.st8{fill:#117ABA;}
	.st9{fill:#64B9E8;}
	.st10{fill:#1D4656;}
	.st11{fill:#2491EB;}
	.st12{clip-path:url(#SVGID_00000120537850540493922870000013449837733143563141_);fill:#2491EB;}
	.st13{fill-rule:evenodd;clip-rule:evenodd;fill:#64B9E8;}
	.st14{fill-rule:evenodd;clip-rule:evenodd;fill:#083D6D;}
	.st15{clip-path:url(#SVGID_00000150065358362234516080000015950942371721569466_);fill:#1C73C0;}
	.st16{clip-path:url(#SVGID_00000142175489866995627720000008167817796426890401_);fill:#2491EB;}
	.st17{fill:#FFFFFF;}
	.st18{fill:#2489B5;}
	.st19{fill:#004C85;}
	.st20{fill:#0EB0CC;}
	.st21{fill:#1C75BC;}
	.st22{fill:#37008E;}
	.st23{fill-rule:evenodd;clip-rule:evenodd;fill:#231916;}
	.st24{fill-rule:evenodd;clip-rule:evenodd;fill:#008BD5;}
	.st25{fill:#26B1C1;}
	.st26{fill:#002A30;}
	.st27{fill:#07A8CC;}
	.st28{fill:#00E5ED;}
	.st29{fill:none;stroke:#010141;stroke-width:5;stroke-miterlimit:10;}
	.st30{fill:url(#SVGID_00000128487517454867136120000013332612208876673680_);}
	.st31{fill:#601D00;}
	.st32{fill:#7707D8;}
	.st33{fill:#CC9933;}
	.st34{fill:#0B3B84;}
	.st35{fill:#1373BC;}
	.st36{fill:#092341;}
	.st37{fill:#06779D;}
	.st38{fill:#4EC5DF;}
	.st39{fill:#23445E;}
	.st40{fill:#2E3758;}
	.st41{fill:#1A4764;}
	.st42{fill:#010101;}
	.st43{fill:#D4D4D3;}
	.st44{fill:#021784;}
	.st45{opacity:0.2;fill:#F1F2F2;}
	.st46{fill:#0A244F;}
	.st47{fill:#0049F8;}
	.st48{fill:#330044;}
	.st49{fill:#006CB5;}
	.st50{fill:#FF1200;}
	.st51{fill-rule:evenodd;clip-rule:evenodd;fill:#100D3B;}
	.st52{fill-rule:evenodd;clip-rule:evenodd;fill:#0000FF;}
	.st53{fill-rule:evenodd;clip-rule:evenodd;fill:#0094D9;}
	.st54{fill-rule:evenodd;clip-rule:evenodd;fill:#44C2F4;}
	.st55{fill-rule:evenodd;clip-rule:evenodd;fill:#004883;}
	.st56{fill-rule:evenodd;clip-rule:evenodd;fill:#0691CA;}
	.st57{opacity:0.5;}
	.st58{opacity:0;fill:#929497;}
	.st59{opacity:0.0152;fill:#909295;}
	.st60{opacity:0.0303;fill:#8F9093;}
	.st61{opacity:0.0455;fill:#8D8F92;}
	.st62{opacity:0.0606;fill:#8B8D90;}
	.st63{opacity:0.0758;fill:#8A8B8E;}
	.st64{opacity:0.0909;fill:#88898C;}
	.st65{opacity:0.1061;fill:#86888A;}
	.st66{opacity:0.1212;fill:#858689;}
	.st67{opacity:0.1364;fill:#838487;}
	.st68{opacity:0.1515;fill:#818285;}
	.st69{opacity:0.1667;fill:#7F8083;}
	.st70{opacity:0.1818;fill:#7E7F81;}
	.st71{opacity:0.197;fill:#7C7D80;}
	.st72{opacity:0.2121;fill:#7A7B7E;}
	.st73{opacity:0.2273;fill:#79797C;}
	.st74{opacity:0.2424;fill:#77787A;}
	.st75{opacity:0.2576;fill:#757678;}
	.st76{opacity:0.2727;fill:#747477;}
	.st77{opacity:0.2879;fill:#727275;}
	.st78{opacity:0.303;fill:#707173;}
	.st79{opacity:0.3182;fill:#6F6F71;}
	.st80{opacity:0.3333;fill:#6D6D6F;}
	.st81{opacity:0.3485;fill:#6B6B6E;}
	.st82{opacity:0.3636;fill:#6A696C;}
	.st83{opacity:0.3788;fill:#68686A;}
	.st84{opacity:0.3939;fill:#666668;}
	.st85{opacity:0.4091;fill:#656466;}
	.st86{opacity:0.4242;fill:#636265;}
	.st87{opacity:0.4394;fill:#616163;}
	.st88{opacity:0.4545;fill:#605F61;}
	.st89{opacity:0.4697;fill:#5E5D5F;}
	.st90{opacity:0.4848;fill:#5C5B5D;}
	.st91{opacity:0.5;fill:#5A5A5C;}
	.st92{opacity:0.5152;fill:#59585A;}
	.st93{opacity:0.5303;fill:#575658;}
	.st94{opacity:0.5455;fill:#555456;}
	.st95{opacity:0.5606;fill:#545254;}
	.st96{opacity:0.5758;fill:#525152;}
	.st97{opacity:0.5909;fill:#504F51;}
	.st98{opacity:0.6061;fill:#4F4D4F;}
	.st99{opacity:0.6212;fill:#4D4B4D;}
	.st100{opacity:0.6364;fill:#4B4A4B;}
	.st101{opacity:0.6515;fill:#4A4849;}
	.st102{opacity:0.6667;fill:#484648;}
	.st103{opacity:0.6818;fill:#464446;}
	.st104{opacity:0.697;fill:#454244;}
	.st105{opacity:0.7121;fill:#434142;}
	.st106{opacity:0.7273;fill:#413F40;}
	.st107{opacity:0.7424;fill:#403D3F;}
	.st108{opacity:0.7576;fill:#3E3B3D;}
	.st109{opacity:0.7727;fill:#3C3A3B;}
	.st110{opacity:0.7879;fill:#3B3839;}
	.st111{opacity:0.803;fill:#393637;}
	.st112{opacity:0.8182;fill:#373436;}
	.st113{opacity:0.8333;fill:#363334;}
	.st114{opacity:0.8485;fill:#343132;}
	.st115{opacity:0.8636;fill:#322F30;}
	.st116{opacity:0.8788;fill:#302D2E;}
	.st117{opacity:0.8939;fill:#2F2B2D;}
	.st118{opacity:0.9091;fill:#2D2A2B;}
	.st119{opacity:0.9242;fill:#2B2829;}
	.st120{opacity:0.9394;fill:#2A2627;}
	.st121{opacity:0.9545;fill:#282425;}
	.st122{opacity:0.9697;fill:#262324;}
	.st123{opacity:0.9848;fill:#252122;}
	.st124{fill:#231F20;}
	.st125{fill:#004883;}
	.st126{fill:#21597F;}
	.st127{fill:#919191;}
</style>
<g id="Layer_1">
</g>
<g id="Layer_2">
</g>
<g id="Layer_3">
</g>
<g id="Layer_4">
</g>
<g id="Layer_5">
</g>
<g id="Layer_6">
</g>
<g id="Layer_7">
</g>
<g id="Layer_8">
</g>
<g id="Layer_9">
</g>
<g id="Layer_10">
</g>
<g id="Layer_11">
</g>
<g id="Layer_12">
</g>
<g id="Layer_13">
</g>
<g id="Layer_14">
</g>
<g id="Layer_15">
	<g>
		<path d="M110.85,54.9c-1.07,0.61-2.2,1.14-3.21,1.84c-4.4,3.04-5.44,7.6-2.77,12.23c2.19,3.78,5.58,6.38,9.1,8.77
			c10.06,6.8,21.04,11.84,32.1,16.75c4.94,2.19,9.6,5.01,14.4,7.52c1.04,0.54,1.14,1.19,0.78,2.29c-2.35,7.05-4.63,14.12-6.92,21.19
			c-0.18,0.54-0.33,1.09-0.63,2.09c0.87-0.6,1.39-0.95,1.89-1.31c6-4.29,12.02-8.55,17.97-12.9c1.08-0.79,1.78-0.85,2.88-0.05
			c5.96,4.35,11.98,8.6,17.98,12.89c0.47,0.34,0.95,0.66,1.84,1.27c-0.52-1.64-0.89-2.84-1.29-4.05
			c-2.08-6.39-4.14-12.79-6.28-19.16c-0.37-1.1-0.15-1.65,0.78-2.3c5.7-3.99,12.12-6.55,18.43-9.35c9.65-4.28,19.27-8.67,27.9-14.84
			c2.81-2.01,5.41-4.37,7.84-6.83c1.95-1.97,3.02-4.54,2.86-7.4c-0.21-3.78-2.65-6.02-5.73-7.73c-0.56-0.31-1.14-0.6-1.7-0.9
			c-0.03-0.01-0.02-0.09-0.03-0.13c6.76,1.21,13.35,5.74,13.35,13.04c0,4.14-1.51,7.85-3.55,11.35
			c-3.82,6.56-9.11,11.85-14.82,16.77c-0.62,0.53-1.15,1.36-1.35,2.14c-7.63,30.2-24.22,54.22-49.66,72.15
			c-2.36,1.67-4.67,3.41-7.07,5.02c-0.43,0.29-1.38,0.34-1.79,0.06c-11.69-8.04-22.92-16.63-31.97-27.74
			c-10.06-12.35-17.79-25.95-22.41-41.24c-0.87-2.88-1.63-5.79-2.54-8.65c-0.21-0.67-0.74-1.32-1.29-1.78
			c-5.08-4.36-9.96-8.95-13.45-14.7c-1.87-3.08-3.45-6.48-4.42-9.95c-1.6-5.71,0.61-10.5,5.64-13.63c1.05-0.65,2.17-1.2,3.31-1.68
			c1.18-0.5,2.43-0.85,3.65-1.27C110.75,54.75,110.8,54.83,110.85,54.9z"/>
		<path class="st47" d="M174.96,62.54c-0.43,1.24-0.75,2.09-1.03,2.95c-2.17,6.61-4.39,13.21-6.45,19.85
			c-0.53,1.72-1.33,2.04-2.94,1.63c-6.29-1.57-12.62-2.98-18.9-4.59c-4.62-1.19-9.22-2.49-13.78-3.92
			c-10.86-3.39-17.72-12.6-17.84-23.94c-0.08-7.32-0.03-14.64,0.01-21.96c0-0.58,0.36-1.16,0.55-1.73c0.58,0.21,1.23,0.31,1.72,0.64
			c19.63,13.44,46.01,5.98,55.7-15.79c0.61-1.38,1.33-2.52,3.02-2.56c1.72-0.04,2.41,1.14,3.03,2.51
			c9.75,21.75,35.81,29.19,55.54,15.88c0.54-0.37,1.24-0.51,1.87-0.75c0.21,0.69,0.59,1.38,0.6,2.08
			c0.05,7.08,0.06,14.17,0.03,21.25C236,65.76,229.3,75.2,218.1,78.48c-10.69,3.12-21.54,5.7-32.34,8.45
			c-2.51,0.64-2.54,0.52-3.34-1.9c-2.26-6.89-4.51-13.79-6.77-20.68C175.51,63.86,175.3,63.4,174.96,62.54z"/>
	</g>
</g>
</svg>
