<?xml version="1.0" encoding="utf-8"?>
<!-- Generator: Adobe Illustrator 27.8.1, SVG Export Plug-In . SVG Version: 6.00 Build 0)  -->
<svg version="1.1" xmlns="http://www.w3.org/2000/svg" xmlns:xlink="http://www.w3.org/1999/xlink" x="0px" y="0px"
	 viewBox="0 0 350 230" style="enable-background:new 0 0 350 230;" xml:space="preserve">
<style type="text/css">
	.st0{fill:#DDDDDD;}
	.st1{fill:#F7931E;}
	.st2{fill:#604F3E;}
	.st3{fill:#2B5C8E;}
	.st4{fill:#328DD8;}
	.st5{fill:#3A99CE;}
	.st6{fill:#6CAEE5;}
	.st7{fill:#8299A8;}
	.st8{fill:#117ABA;}
	.st9{fill:#64B9E8;}
	.st10{fill:#1D4656;}
	.st11{fill:#2491EB;}
	.st12{clip-path:url(#SVGID_00000138536123304348010550000008625029268091761081_);fill:#2491EB;}
	.st13{fill-rule:evenodd;clip-rule:evenodd;fill:#64B9E8;}
	.st14{fill-rule:evenodd;clip-rule:evenodd;fill:#083D6D;}
	.st15{clip-path:url(#SVGID_00000058549176469135193210000015481832250834272899_);fill:#1C73C0;}
	.st16{clip-path:url(#SVGID_00000044175395275199593440000014063429317066600118_);fill:#2491EB;}
	.st17{fill:#FFFFFF;}
	.st18{fill:#2489B5;}
	.st19{fill:#004C85;}
	.st20{fill:#0EB0CC;}
	.st21{fill:#1C75BC;}
	.st22{fill-rule:evenodd;clip-rule:evenodd;fill:#231916;}
	.st23{fill-rule:evenodd;clip-rule:evenodd;fill:#008BD5;}
	.st24{fill:#26B1C1;}
	.st25{fill:#002A30;}
	.st26{fill:#07A8CC;}
</style>
<g id="Layer_1">
	<g>
		<defs>
			<path id="SVGID_1_" d="M175,104.25c1.82,0,3.3,1.48,3.3,3.3c0,1.37-0.83,2.54-2.02,3.04l0.24,0.51l1.53,3.22H175h-3.05l1.53-3.22
				l0.24-0.51c-1.18-0.5-2.02-1.67-2.02-3.04C171.7,105.73,173.18,104.25,175,104.25 M191.79,139.28l3.41-3.4l-3.41-3.4l-9.45-9.45
				l-16.79,16.78l-4.73-4.73l8.83-8.83l-3.41-3.4l-8.83,8.83l-3.4,3.4l3.41,3.4l8.14,8.13l1.7-1.7l1.7-1.7l13.39-13.38l6.05,6.04
				L175,149.25l-3.41,3.4l3.41,3.4L191.79,139.28z M160.14,106.54V92.82c0-4.08,1.67-7.79,4.37-10.49c2.7-2.69,6.41-4.36,10.5-4.36
				c4.08,0,7.8,1.67,10.5,4.36c2.69,2.69,4.37,6.41,4.37,10.49v13.71l4.69,4.69v-18.4c0-5.38-2.2-10.26-5.74-13.8
				c-3.54-3.54-8.43-5.74-13.81-5.74c-5.38,0-10.27,2.2-13.81,5.74c-3.54,3.54-5.74,8.43-5.74,13.8v18.4L160.14,106.54z
				 M148.85,129.93l3.41-3.4l13.9-13.89l8.84,8.84l8.85-8.84l13.9,13.89l3.41,3.4l3.41-3.4l-17.31-17.3L176.7,98.69l-1.7-1.7
				l-12.25,12.24l-17.31,17.3L148.85,129.93z"/>
		</defs>
		<clipPath id="SVGID_00000066490388543940855260000009243599088169921925_">
			<use xlink:href="#SVGID_1_"  style="overflow:visible;"/>
		</clipPath>
		
			<rect x="145.44" y="73.28" style="clip-path:url(#SVGID_00000066490388543940855260000009243599088169921925_);fill:#2491EB;" width="59.12" height="82.78"/>
	</g>
</g>
<g id="Layer_2">
</g>
<g id="Layer_3">
</g>
<g id="Layer_4">
</g>
<g id="Layer_5">
</g>
<g id="Layer_6">
</g>
<g id="Layer_7">
</g>
<g id="Layer_8">
</g>
<g id="Layer_9">
</g>
<g id="Layer_10">
</g>
<g id="Layer_11">
</g>
<g id="Layer_12">
</g>
<g id="Layer_13">
</g>
<g id="Layer_14">
</g>
<g id="Layer_15">
</g>
</svg>
