<?xml version="1.0" encoding="utf-8"?>
<!-- Generator: Adobe Illustrator 27.8.1, SVG Export Plug-In . SVG Version: 6.00 Build 0)  -->
<svg version="1.1" xmlns="http://www.w3.org/2000/svg" xmlns:xlink="http://www.w3.org/1999/xlink" x="0px" y="0px"
	 viewBox="0 0 350 230" style="enable-background:new 0 0 350 230;" xml:space="preserve">
<style type="text/css">
	.st0{fill:#DDDDDD;}
	.st1{fill:#F7931E;}
	.st2{fill:#604F3E;}
	.st3{fill:#2B5C8E;}
	.st4{fill:#328DD8;}
	.st5{fill:#3A99CE;}
	.st6{fill:#6CAEE5;}
	.st7{fill:#8299A8;}
	.st8{fill:#117ABA;}
	.st9{fill:#64B9E8;}
	.st10{fill:#1D4656;}
	.st11{fill:#2491EB;}
	.st12{clip-path:url(#SVGID_00000079451899082151293180000012824283770607814555_);fill:#2491EB;}
	.st13{fill-rule:evenodd;clip-rule:evenodd;fill:#64B9E8;}
	.st14{fill-rule:evenodd;clip-rule:evenodd;fill:#083D6D;}
	.st15{clip-path:url(#SVGID_00000015343368883478064120000015089809345238481055_);fill:#1C73C0;}
	.st16{clip-path:url(#SVGID_00000097484119071762400160000013921952775201835168_);fill:#2491EB;}
	.st17{fill:#FFFFFF;}
	.st18{fill:#2489B5;}
	.st19{fill:#004C85;}
	.st20{fill:#0EB0CC;}
	.st21{fill:#1C75BC;}
	.st22{fill-rule:evenodd;clip-rule:evenodd;fill:#231916;}
	.st23{fill-rule:evenodd;clip-rule:evenodd;fill:#008BD5;}
	.st24{fill:#26B1C1;}
	.st25{fill:#002A30;}
	.st26{fill:#07A8CC;}
</style>
<g id="Layer_1">
	<g>
		<g>
			<defs>
				<path id="SVGID_00000088094638363628750800000004339456761285123253_" d="M168.61,80.7c-7.72,0.53-15.28,1.64-22.62,3.45
					c0.11,10.74-0.87,22.4,0.61,33.02c1.82,13.04,11.46,24.83,23.14,30.67c6.31,3.16,10.12,2.12,15.93-1.91
					c-5.55-0.32-11.71-3.25-17.14-7.41c-3.26-2.49-6.25-5.43-8.68-8.51c-5.26-6.66-6.22-13.32-6.34-21.71l-0.25-17.25
					c4.6-1.12,8.69-1.66,12.27-1.63c5.43,7.95,14.36,17.72,17.44,26.91l7.09,0.38C190.08,105.68,174.51,89.39,168.61,80.7"/>
			</defs>
			<clipPath id="SVGID_00000026866295097775210390000008818239481339192492_">
				<use xlink:href="#SVGID_00000088094638363628750800000004339456761285123253_"  style="overflow:visible;"/>
			</clipPath>
			
				<rect x="145.12" y="80.7" style="clip-path:url(#SVGID_00000026866295097775210390000008818239481339192492_);fill:#1C73C0;" width="44.95" height="70.29"/>
		</g>
		<g>
			<defs>
				<path id="SVGID_00000066501025650088302790000000289761321832508573_" d="M167.08,105.12h-7.57
					c-1.55,10.74,16.46,34.04,28.2,34.38c16.26,0.46,16.53-25.48,16.51-35.03l-0.04-19.97c-9.83-2.18-19.24-3.53-28.3-4.18
					l5.94,8.52c5.33,0.62,9.78,0.73,14.85,2.11v16.58v1.15c0,5.41-0.12,21.46-8.85,21.02c-2.72-0.14-5.82-2.18-8.78-5.07
					C172.97,118.68,167.47,109.13,167.08,105.12"/>
			</defs>
			<clipPath id="SVGID_00000117647642312164464400000005770089969344909454_">
				<use xlink:href="#SVGID_00000066501025650088302790000000289761321832508573_"  style="overflow:visible;"/>
			</clipPath>
			
				<rect x="157.96" y="80.31" style="clip-path:url(#SVGID_00000117647642312164464400000005770089969344909454_);fill:#2491EB;" width="46.28" height="59.65"/>
		</g>
	</g>
</g>
<g id="Layer_2">
</g>
<g id="Layer_3">
</g>
<g id="Layer_4">
</g>
<g id="Layer_5">
</g>
<g id="Layer_6">
</g>
<g id="Layer_7">
</g>
<g id="Layer_8">
</g>
<g id="Layer_9">
</g>
<g id="Layer_10">
</g>
<g id="Layer_11">
</g>
<g id="Layer_12">
</g>
<g id="Layer_13">
</g>
<g id="Layer_14">
</g>
<g id="Layer_15">
</g>
</svg>
