<?xml version="1.0" encoding="utf-8"?>
<!-- Generator: Adobe Illustrator 27.8.1, SVG Export Plug-In . SVG Version: 6.00 Build 0)  -->
<svg version="1.1" xmlns="http://www.w3.org/2000/svg" xmlns:xlink="http://www.w3.org/1999/xlink" x="0px" y="0px"
	 viewBox="0 0 350 230" style="enable-background:new 0 0 350 230;" xml:space="preserve">
<style type="text/css">
	.st0{fill:#DDDDDD;}
	.st1{fill:#F7931E;}
	.st2{fill:#604F3E;}
	.st3{fill:#2B5C8E;}
	.st4{fill:#328DD8;}
	.st5{fill:#3A99CE;}
	.st6{fill:#6CAEE5;}
	.st7{fill:#8299A8;}
	.st8{fill:#117ABA;}
	.st9{fill:#64B9E8;}
	.st10{fill:#1D4656;}
	.st11{fill:#2491EB;}
	.st12{clip-path:url(#SVGID_00000043428683557396882630000007784205055241572286_);fill:#2491EB;}
	.st13{fill-rule:evenodd;clip-rule:evenodd;fill:#64B9E8;}
	.st14{fill-rule:evenodd;clip-rule:evenodd;fill:#083D6D;}
	.st15{clip-path:url(#SVGID_00000037670269753748665160000013949419986382442924_);fill:#1C73C0;}
	.st16{clip-path:url(#SVGID_00000032614312106580790870000014294456527880703413_);fill:#2491EB;}
	.st17{fill:#FFFFFF;}
	.st18{fill:#2489B5;}
	.st19{fill:#004C85;}
	.st20{fill:#0EB0CC;}
	.st21{fill:#1C75BC;}
	.st22{fill-rule:evenodd;clip-rule:evenodd;fill:#231916;}
	.st23{fill-rule:evenodd;clip-rule:evenodd;fill:#008BD5;}
	.st24{fill:#26B1C1;}
	.st25{fill:#002A30;}
	.st26{fill:#07A8CC;}
</style>
<g id="Layer_1">
	<g id="_1024020477744">
		<path class="st5" d="M202.5,114.75c2.46-8.23,3.14-15.54,3.78-23.72l0.13-0.01l0.04-0.59l-33.61-11.47l-33.61,11.47
			c1.19,17.45,4.45,31.1,12.84,42.51c-4.05,0.51-7.48,0.57-10.26,0.25c-13.98-1.6-8.11-12.76-0.11-18.67
			c-0.34-1.16-0.65-2.34-0.94-3.52c-12.06,8.26-23.67,23.92-1.59,26.61c2.43,0.3,6.18,0.11,10.57-0.49c2.96-0.49,5.9-1.14,8.79-1.88
			c4.67-1.2,9.28-2.66,13.8-4.3c3.28-1.19,6.56-2.48,9.81-3.88c7.08-3.05,10.57-9.23,10.57-16.83c0-9.72-6.95-17.81-16.14-19.59
			v6.32c-0.78-0.15-1.58-0.26-2.4-0.31v-6.32v-4.72c0.8,0.05,1.6,0.13,2.39,0.25c11.81,1.83,20.85,12.04,20.85,24.37
			c0,3.69-0.81,7.19-2.26,10.33c5.71-3.1,10.77-6.42,14.55-9.77C207.26,112.19,204.85,113.51,202.5,114.75L202.5,114.75z"/>
		<path class="st17" d="M186.87,101.72c1.1,0,1.98,0.89,1.98,1.98c0,1.09-0.89,1.98-1.98,1.98c-1.09,0-1.98-0.89-1.98-1.98
			C184.88,102.6,185.77,101.72,186.87,101.72z M148.25,107.61c0.82-7.71,5.19-14.37,11.45-18.28l2.06,4.28
			c-4.7,3.11-8,8.16-8.77,14.01H148.25L148.25,107.61z M172.77,102.06c4.52,0,8.18,3.66,8.18,8.18c0,1.95-0.68,3.74-1.82,5.15
			l1.88,1.88c1.62-1.89,2.59-4.35,2.59-7.03c0-5.98-4.85-10.83-10.83-10.83c-5.98,0-10.83,4.85-10.83,10.83
			c0,2.68,0.98,5.14,2.59,7.03l1.88-1.88c-1.14-1.41-1.82-3.2-1.82-5.15C164.59,105.72,168.26,102.06,172.77,102.06L172.77,102.06z
			 M172.77,107.2c1.53,0,2.76,1.24,2.76,2.76c0,1.02-0.55,1.91-1.37,2.39l1.11,7.27h-5l1.11-7.27c-0.82-0.48-1.37-1.37-1.37-2.39
			C170.01,108.44,171.25,107.2,172.77,107.2L172.77,107.2z M171.5,93.04c-8.93,0.65-15.97,8.1-15.97,17.2
			c0,4.45,1.69,8.51,4.46,11.57l2.67-2.67c-2.09-2.37-3.36-5.49-3.36-8.9c0-7.01,5.36-12.78,12.2-13.42V93.04L171.5,93.04z
			 M186.21,109.21c0.03,0.34,0.04,0.68,0.04,1.03c0,3.41-1.27,6.53-3.36,8.9l2.67,2.67c2.77-3.06,4.46-7.12,4.46-11.57
			c0-0.34-0.01-0.69-0.03-1.03L186.21,109.21L186.21,109.21z M172.77,123.7c2.29,0,4.45-0.57,6.34-1.58l2.76,2.76
			c-2.64,1.64-5.76,2.59-9.09,2.59c-3.34,0-6.45-0.95-9.09-2.59l2.76-2.76C168.32,123.13,170.48,123.7,172.77,123.7L172.77,123.7z"
			/>
		<path class="st18" d="M172.84,151.03c12.41-7.44,20.37-15.74,25.45-25.7c2.18-1.12,4.16-2.23,5.87-3.28
			c19.5-11.35,29.34-30.87,3.49-29.59c-0.06,0.71-0.12,1.43-0.18,2.14c10.1,1.51,15.79,6.41,3.34,17.45
			c-3.96,3.51-8.64,6.51-13.24,9.1c-14.25,8.02-35.56,16.29-51.85,18.04c3.46,0.29,7.29,0.12,11.31-0.4
			C161.28,143.17,166.47,147.21,172.84,151.03L172.84,151.03z"/>
	</g>
</g>
<g id="Layer_2">
</g>
<g id="Layer_3">
</g>
<g id="Layer_4">
</g>
<g id="Layer_5">
</g>
<g id="Layer_6">
</g>
<g id="Layer_7">
</g>
<g id="Layer_8">
</g>
<g id="Layer_9">
</g>
<g id="Layer_10">
</g>
<g id="Layer_11">
</g>
<g id="Layer_12">
</g>
<g id="Layer_13">
</g>
<g id="Layer_14">
</g>
<g id="Layer_15">
</g>
</svg>
