<?xml version="1.0" encoding="utf-8"?>
<!-- Generator: Adobe Illustrator 27.8.1, SVG Export Plug-In . SVG Version: 6.00 Build 0)  -->
<svg version="1.1" xmlns="http://www.w3.org/2000/svg" xmlns:xlink="http://www.w3.org/1999/xlink" x="0px" y="0px"
	 viewBox="0 0 350 230" style="enable-background:new 0 0 350 230;" xml:space="preserve">
<style type="text/css">
	.st0{fill:#DDDDDD;}
	.st1{fill:#F7931E;}
	.st2{fill:#604F3E;}
	.st3{fill:#2B5C8E;}
	.st4{fill:#328DD8;}
	.st5{fill:#3A99CE;}
	.st6{fill:#6CAEE5;}
	.st7{fill:#8299A8;}
	.st8{fill:#117ABA;}
	.st9{fill:#64B9E8;}
	.st10{fill:#1D4656;}
	.st11{fill:#2491EB;}
	.st12{clip-path:url(#SVGID_00000132071921187904280320000002424262293350565807_);fill:#2491EB;}
	.st13{fill-rule:evenodd;clip-rule:evenodd;fill:#64B9E8;}
	.st14{fill-rule:evenodd;clip-rule:evenodd;fill:#083D6D;}
	.st15{clip-path:url(#SVGID_00000145778913081231150590000000509210851366240696_);fill:#1C73C0;}
	.st16{clip-path:url(#SVGID_00000176009954186234600300000005413892674601948852_);fill:#2491EB;}
	.st17{fill:#FFFFFF;}
	.st18{fill:#2489B5;}
	.st19{fill:#004C85;}
	.st20{fill:#0EB0CC;}
	.st21{fill:#1C75BC;}
	.st22{fill-rule:evenodd;clip-rule:evenodd;fill:#231916;}
	.st23{fill-rule:evenodd;clip-rule:evenodd;fill:#008BD5;}
	.st24{fill:#26B1C1;}
	.st25{fill:#002A30;}
	.st26{fill:#07A8CC;}
</style>
<g id="Layer_1">
	<g>
		<path class="st19" d="M194.4,87.26L194.4,87.26c-0.76,0-1.38,0.62-1.38,1.38v12.9c0,0.75,0.62,1.37,1.38,1.37l0,0
			c0.76,0,1.38-0.62,1.38-1.37v-12.9C195.78,87.88,195.16,87.26,194.4,87.26z M167.7,85.48L167.7,85.48c0.76,0,1.38,0.62,1.38,1.37
			v12.13c0,0.76-0.62,1.38-1.38,1.38l0,0c-0.76,0-1.38-0.62-1.38-1.38V86.85C166.32,86.1,166.94,85.48,167.7,85.48z M189.06,85.48
			L189.06,85.48c-0.75,0-1.37,0.62-1.37,1.37v12.18c0,0.76,0.62,1.38,1.37,1.38l0,0c0.76,0,1.38-0.62,1.38-1.38V86.85
			C190.44,86.1,189.82,85.48,189.06,85.48z M199.75,88.48L199.75,88.48c-0.76,0-1.38,0.62-1.38,1.37v8.19
			c0,0.76,0.62,1.38,1.38,1.38l0,0c0.76,0,1.38-0.62,1.38-1.38v-8.19C201.13,89.1,200.51,88.48,199.75,88.48z M157.02,88.48
			L157.02,88.48c0.75,0,1.37,0.62,1.37,1.37v45.32c0,0.75-0.62,1.37-1.37,1.37l0,0c-0.76,0-1.38-0.62-1.38-1.37V89.85
			C155.64,89.1,156.26,88.48,157.02,88.48z M173.04,82.89L173.04,82.89c-0.76,0-1.38,0.62-1.38,1.37v6.52
			c0,0.76,0.62,1.38,1.38,1.38l0,0c0.76,0,1.38-0.62,1.38-1.38v-6.52C174.42,83.51,173.8,82.89,173.04,82.89z M162.35,87.26
			L162.35,87.26c0.76,0,1.38,0.62,1.38,1.38v51.58c0,0.75-0.62,1.38-1.38,1.38l0,0c-0.75,0-1.37-0.63-1.37-1.38V88.64
			C160.99,87.88,161.6,87.26,162.35,87.26z M178.38,79.58L178.38,79.58c0.76,0,1.38,0.62,1.38,1.38v9.59c0,0.76-0.62,1.38-1.38,1.38
			l0,0c-0.76,0-1.38-0.62-1.38-1.38v-9.59C177.01,80.2,177.62,79.58,178.38,79.58z M183.73,82.89L183.73,82.89
			c-0.76,0-1.38,0.62-1.38,1.37v6.52c0,0.76,0.62,1.38,1.38,1.38l0,0c0.75,0,1.37-0.62,1.37-1.38v-6.52
			C185.09,83.51,184.48,82.89,183.73,82.89z M151.67,88.48L151.67,88.48c0.76,0,1.38,0.62,1.38,1.37v34.66
			c0,0.76-0.62,1.38-1.38,1.38l0,0c-0.76,0-1.38-0.62-1.38-1.38V89.85C150.3,89.1,150.92,88.48,151.67,88.48z M205.09,88.48
			L205.09,88.48c-0.76,0-1.38,0.62-1.38,1.37v3.54c0,0.76,0.62,1.38,1.38,1.38l0,0c0.76,0,1.38-0.62,1.38-1.38v-3.54
			C206.47,89.1,205.85,88.48,205.09,88.48z"/>
		<path class="st20" d="M173.04,134.41L173.04,134.41c-0.76,0-1.38,0.62-1.38,1.38v10.35c0,0.76,0.62,1.38,1.38,1.38l0,0
			c0.76,0,1.38-0.62,1.38-1.38v-10.35C174.42,135.03,173.8,134.41,173.04,134.41z M183.73,134.41L183.73,134.41
			c-0.76,0-1.38,0.62-1.38,1.38v10.35c0,0.76,0.62,1.38,1.38,1.38l0,0c0.75,0,1.37-0.62,1.37-1.38v-10.35
			C185.09,135.03,184.48,134.41,183.73,134.41z M194.4,106.67L194.4,106.67c-0.76,0-1.38,0.62-1.38,1.38v32.17
			c0,0.75,0.62,1.38,1.38,1.38l0,0c0.76,0,1.38-0.63,1.38-1.38v-32.17C195.78,107.29,195.16,106.67,194.4,106.67z M187.7,143.36
			c0,0.75,0.62,1.37,1.37,1.37l0,0c0.76,0,1.38-0.62,1.38-1.37v-38.2c0-1.52-1.24-2.76-2.74-2.76h-2.6v-5.59
			c0-1.51-1.24-2.74-2.74-2.74h-7.93c-1.52,0-2.76,1.24-2.76,2.74v5.59h-2.59c-1.51,0-2.76,1.24-2.76,2.76v24.37
			c0,1.51,1.25,2.76,2.76,2.76h14.66c0.75,0,1.37-0.63,1.37-1.38l0,0c0-0.76-0.62-1.38-1.37-1.38h-13.3c-0.75,0-1.35-0.62-1.35-1.35
			v-21.66c0-0.75,0.61-1.35,1.35-1.35h15.9c0.75,0,1.37,0.61,1.37,1.35V143.36z M182.35,102.41h-7.93v-4.24
			c0-0.73,0.61-1.35,1.35-1.35H181c0.73,0,1.35,0.62,1.35,1.35V102.41z M205.09,97.41L205.09,97.41c-0.76,0-1.38,0.62-1.38,1.38
			v25.72c0,0.76,0.62,1.38,1.38,1.38l0,0c0.76,0,1.38-0.62,1.38-1.38V98.79C206.47,98.03,205.85,97.41,205.09,97.41z M167.7,134.32
			L167.7,134.32c0.76,0,1.38,0.63,1.38,1.38v7.66c0,0.75-0.62,1.37-1.38,1.37l0,0c-0.76,0-1.38-0.62-1.38-1.37v-7.66
			C166.32,134.95,166.94,134.32,167.7,134.32z M178.38,134.41L178.38,134.41c0.76,0,1.38,0.62,1.38,1.38v13.26
			c0,0.75-0.62,1.37-1.38,1.37l0,0c-0.76,0-1.38-0.62-1.38-1.37v-13.26C177.01,135.03,177.62,134.41,178.38,134.41z M199.75,102.06
			L199.75,102.06c-0.76,0-1.38,0.62-1.38,1.38v31.73c0,0.75,0.62,1.37,1.38,1.37l0,0c0.76,0,1.38-0.62,1.38-1.37v-31.73
			C201.13,102.68,200.51,102.06,199.75,102.06z M179.76,116.6v6.03c0,0.76-0.62,1.38-1.38,1.38l0,0c-0.76,0-1.38-0.62-1.38-1.38
			v-6.03c-1.03-0.52-1.74-1.57-1.74-2.81c0-1.71,1.39-3.12,3.12-3.12c1.71,0,3.12,1.4,3.12,3.12
			C181.5,115.03,180.79,116.08,179.76,116.6z"/>
		<rect x="182.35" y="130.9" class="st20" width="2.76" height="9.12"/>
	</g>
</g>
<g id="Layer_2">
</g>
<g id="Layer_3">
</g>
<g id="Layer_4">
</g>
<g id="Layer_5">
</g>
<g id="Layer_6">
</g>
<g id="Layer_7">
</g>
<g id="Layer_8">
</g>
<g id="Layer_9">
</g>
<g id="Layer_10">
</g>
<g id="Layer_11">
</g>
<g id="Layer_12">
</g>
<g id="Layer_13">
</g>
<g id="Layer_14">
</g>
<g id="Layer_15">
</g>
</svg>
