<?xml version="1.0" encoding="utf-8"?>
<!-- Generator: Adobe Illustrator 27.8.1, SVG Export Plug-In . SVG Version: 6.00 Build 0)  -->
<svg version="1.1" xmlns="http://www.w3.org/2000/svg" xmlns:xlink="http://www.w3.org/1999/xlink" x="0px" y="0px"
	 viewBox="0 0 350 230" style="enable-background:new 0 0 350 230;" xml:space="preserve">
<style type="text/css">
	.st0{fill:#DDDDDD;}
	.st1{fill:#F7931E;}
	.st2{fill:#604F3E;}
	.st3{fill:#2B5C8E;}
	.st4{fill:#328DD8;}
	.st5{fill:#3A99CE;}
	.st6{fill:#6CAEE5;}
	.st7{fill:#8299A8;}
	.st8{fill:#117ABA;}
	.st9{fill:#64B9E8;}
	.st10{fill:#1D4656;}
	.st11{fill:#2491EB;}
	.st12{clip-path:url(#SVGID_00000126290363987888978690000008748050281859271823_);fill:#2491EB;}
	.st13{fill-rule:evenodd;clip-rule:evenodd;fill:#64B9E8;}
	.st14{fill-rule:evenodd;clip-rule:evenodd;fill:#083D6D;}
	.st15{clip-path:url(#SVGID_00000014602177817864329530000003248471894324290701_);fill:#1C73C0;}
	.st16{clip-path:url(#SVGID_00000065775832619690086220000008967576872151284150_);fill:#2491EB;}
	.st17{fill:#FFFFFF;}
	.st18{fill:#2489B5;}
	.st19{fill:#004C85;}
	.st20{fill:#0EB0CC;}
	.st21{fill:#1C75BC;}
	.st22{fill-rule:evenodd;clip-rule:evenodd;fill:#231916;}
	.st23{fill-rule:evenodd;clip-rule:evenodd;fill:#008BD5;}
	.st24{fill:#26B1C1;}
	.st25{fill:#002A30;}
	.st26{fill:#07A8CC;}
</style>
<g id="Layer_1">
	<g>
		<path class="st8" d="M148.6,104.81c0-0.4,0-0.76,0-1.12c0.01-4.16-0.05-8.32,0.03-12.48c0.23-12.05,9.62-22.91,21.52-24.96
			c14.41-2.48,27.58,6.3,30.7,20.55c0.41,1.88,0.51,3.85,0.56,5.79c0.08,3.69,0.02,7.38,0.02,11.07c0,0.36,0,0.73,0,1.14
			c0.51,0.07,0.94,0.11,1.35,0.2c3.28,0.68,5.61,3.29,5.93,6.64c0.04,0.43,0.06,0.87,0.06,1.31c0,14.4,0.01,28.79,0,43.19
			c0,3.8-1.82,6.58-5.06,7.63c-0.81,0.26-1.71,0.39-2.56,0.39c-17.42,0.02-34.83,0.02-52.25,0.01c-4.56,0-7.65-3.2-7.65-7.91
			c-0.01-14.06-0.01-28.12,0.01-42.18c0-1.17-0.01-2.37,0.23-3.5c0.66-3.08,3.27-5.31,6.43-5.66
			C148.11,104.89,148.3,104.85,148.6,104.81z M175.01,161.22c8.62,0,17.25,0.01,25.87,0c3.13,0,4.92-1.82,4.92-4.95
			c0-14.43,0-28.86,0-43.29c0-3.41-1.74-5.17-5.13-5.17c-17.11,0-34.23,0-51.34,0c-3.39,0-5.12,1.75-5.12,5.17
			c0,14.33,0,28.66,0,42.99c0,3.55,1.69,5.25,5.23,5.26C157.96,161.22,166.49,161.22,175.01,161.22z M190.09,104.8
			c0.04-0.21,0.09-0.37,0.09-0.53c-0.01-4.4,0.12-8.8-0.07-13.18c-0.37-8.69-8.98-15.42-17.52-13.86
			c-7.61,1.4-12.69,7.45-12.74,15.21c-0.02,3.79-0.01,7.58,0,11.38c0,0.32,0.04,0.64,0.06,0.99
			C170.02,104.8,180.04,104.8,190.09,104.8z M156.87,104.79c0-4.03-0.01-7.96,0.01-11.88c0.01-1.14,0.06-2.28,0.2-3.41
			c1.23-9.46,10.56-16.6,19.99-15.33c9.47,1.27,16.05,8.78,16.07,18.35c0.01,3.72,0,7.45,0,11.17c0,0.35,0,0.71,0,1.09
			c1.83,0,3.52,0,5.18,0c0.06-0.13,0.11-0.19,0.11-0.25c-0.03-4.96,0.29-9.96-0.17-14.88c-1.26-13.67-14.52-23.2-27.97-20.43
			c-9.95,2.05-17.85,10.47-18.6,20.84c-0.34,4.71-0.12,9.45-0.15,14.18c0,0.16,0.04,0.32,0.07,0.54
			C153.36,104.79,155.05,104.79,156.87,104.79z"/>
		<path class="st9" d="M192.89,139.89c-0.16,2.46-0.31,5.2-0.52,7.94c-0.08,1.07-0.75,1.64-1.59,1.56
			c-0.91-0.08-1.37-0.79-1.34-1.89c0.12-4.22,0.41-8.45,0.25-12.67c-0.29-7.44-6.44-13.26-14.15-13.72
			c-7.06-0.41-13.8,4.9-15.02,11.95c-0.31,1.77-0.27,3.6-0.29,5.41c-0.03,2.85,0.01,5.71-0.75,8.49c-0.06,0.23-0.11,0.46-0.19,0.68
			c-0.3,0.79-0.86,1.19-1.71,1.03c-0.82-0.15-1.27-0.83-1.12-1.73c0.18-1.12,0.55-2.23,0.61-3.35c0.14-2.44,0.18-4.89,0.19-7.34
			c0.04-9.32,6.24-16.54,15.45-17.97c9.16-1.42,18.5,5.46,19.79,14.68C192.81,135.16,192.76,137.39,192.89,139.89z"/>
		<path class="st9" d="M151.83,136.34c0.02-11.72,7.65-21,19.11-23.26c12.14-2.39,24.67,6.22,26.81,18.46
			c0.2,1.15,0.32,2.32,0.4,3.49c0.08,1.36-0.47,2.09-1.44,2.1c-0.96,0.01-1.49-0.71-1.54-2.07c-0.15-3.96-1.4-7.56-3.68-10.78
			c-4.85-6.85-13.33-10.02-21.36-8c-8.15,2.05-14.21,8.87-15.2,17.22c-0.19,1.59-0.06,3.22-0.17,4.82
			c-0.04,0.55-0.25,1.23-0.63,1.58c-0.84,0.77-2.15,0.12-2.29-1.06c-0.01-0.07-0.01-0.13-0.01-0.2
			C151.83,137.88,151.83,137.11,151.83,136.34z"/>
		<path class="st9" d="M187.33,140.05c0.13,3.92-0.27,8.18-1.27,12.38c-0.13,0.56-0.5,1.21-0.96,1.52
			c-0.32,0.22-1.18,0.11-1.44-0.18c-0.36-0.41-0.58-1.14-0.51-1.69c0.26-2.09,0.85-4.16,0.96-6.25c0.2-3.71,0.34-7.45,0.13-11.15
			c-0.26-4.53-4.55-8.15-9.22-8.16c-4.65-0.01-8.87,3.62-9.25,8.14c-0.21,2.53-0.12,5.09-0.17,7.64c-0.07,3.11-0.69,6.12-1.79,9.03
			c-0.41,1.07-1.13,1.52-1.95,1.25c-0.91-0.3-1.25-1.13-0.84-2.23c1.26-3.31,1.7-6.74,1.69-10.26c-0.01-2.14-0.11-4.32,0.23-6.42
			c1.06-6.38,6.82-10.57,13.47-10.02c5.93,0.5,10.79,5.82,10.92,11.97C187.35,136.97,187.33,138.31,187.33,140.05z"/>
		<path class="st9" d="M178.93,140.07c0-1.31,0.02-2.62,0-3.93c-0.05-2.45-1.72-4.2-3.96-4.17c-2.24,0.03-3.86,1.8-3.92,4.24
			c-0.07,3.08-0.07,6.17-0.28,9.25c-0.21,2.96-1.06,5.79-2.19,8.54c-0.39,0.96-1.16,1.34-1.99,1.03c-0.77-0.29-1.16-1.13-0.78-2.02
			c2.12-5,2.44-10.26,2.33-15.59c-0.02-1.13-0.01-2.3,0.27-3.39c0.8-3.2,3.88-5.25,7.23-4.98c3.19,0.26,6,2.82,6.16,6.03
			c0.32,6.65,0.15,13.28-1.99,19.7c-0.22,0.67-0.53,1.24-1.33,1.32c-1.14,0.13-1.82-0.83-1.55-2.07c0.63-2.91,1.3-5.81,1.77-8.75
			c0.28-1.71,0.21-3.48,0.29-5.22C178.97,140.07,178.95,140.07,178.93,140.07z"/>
		<path class="st9" d="M173.54,140.41c0-2.08-0.01-3.59,0-5.1c0.01-1.24,0.52-1.85,1.49-1.84c0.94,0.01,1.44,0.61,1.44,1.78
			c-0.01,5.02,0.27,10.07-1.05,15c-0.43,1.62-0.93,3.21-1.46,4.8c-0.35,1.04-1.16,1.47-2,1.16c-0.83-0.3-1.15-1.15-0.76-2.18
			C172.94,149.46,173.63,144.72,173.54,140.41z"/>
		<path class="st9" d="M199.95,114.86c-1.17-0.01-2.11-0.96-2.09-2.12c0.02-1.17,0.98-2.07,2.16-2.04c1.15,0.03,2.01,0.91,2.01,2.07
			C202.04,113.96,201.14,114.86,199.95,114.86z"/>
		<path class="st9" d="M150.02,158.34c-1.19-0.02-2.06-0.94-2.03-2.15c0.03-1.14,0.92-2.01,2.07-2.01c1.18,0,2.11,0.93,2.1,2.1
			C152.15,157.45,151.2,158.36,150.02,158.34z"/>
		<path class="st9" d="M202.04,156.21c0.02,1.21-0.86,2.12-2.05,2.13c-1.18,0.01-2.12-0.91-2.12-2.08c0-1.13,0.89-2.05,2.02-2.09
			C201.07,154.14,202.01,155.03,202.04,156.21z"/>
		<path class="st9" d="M150.05,114.86c-1.19-0.01-2.08-0.92-2.06-2.12c0.02-1.15,0.89-2.02,2.04-2.04c1.17-0.02,2.13,0.91,2.13,2.07
			C152.17,113.93,151.23,114.86,150.05,114.86z"/>
	</g>
</g>
<g id="Layer_2">
</g>
<g id="Layer_3">
</g>
<g id="Layer_4">
</g>
<g id="Layer_5">
</g>
<g id="Layer_6">
</g>
<g id="Layer_7">
</g>
<g id="Layer_8">
</g>
<g id="Layer_9">
</g>
<g id="Layer_10">
</g>
<g id="Layer_11">
</g>
<g id="Layer_12">
</g>
<g id="Layer_13">
</g>
<g id="Layer_14">
</g>
<g id="Layer_15">
</g>
</svg>
