<?xml version="1.0" encoding="utf-8"?>
<!-- Generator: Adobe Illustrator 27.8.1, SVG Export Plug-In . SVG Version: 6.00 Build 0)  -->
<svg version="1.1" xmlns="http://www.w3.org/2000/svg" xmlns:xlink="http://www.w3.org/1999/xlink" x="0px" y="0px"
	 viewBox="0 0 350 230" style="enable-background:new 0 0 350 230;" xml:space="preserve">
<style type="text/css">
	.st0{fill:#FF9D00;}
	.st1{fill:url(#SVGID_1_);}
	.st2{opacity:0.22;fill:url(#SVGID_00000174585686412455253890000016300368456109827007_);}
	.st3{fill:#FFC200;}
	.st4{fill:#778718;}
	.st5{fill:#E0B017;}
	.st6{fill:#664407;}
	.st7{fill:#9E690A;}
	.st8{fill:#7F1105;}
	.st9{fill:#191933;}
	.st10{fill:#FCEBD4;}
	.st11{fill:#E3DFD6;}
	.st12{fill:#FFB000;}
	.st13{fill:#AA210E;}
	.st14{fill:#FFF0A6;}
	.st15{fill:#FFDA00;}
	.st16{fill:#F4F4F4;}
	.st17{fill:#DC5C28;}
	.st18{fill:#FF8440;}
	.st19{fill:#C45224;}
	.st20{fill:#2C4369;}
	.st21{fill:#2A72DB;}
	.st22{fill:#C65500;}
	.st23{fill:#C15746;}
	.st24{fill:#FF8C00;}
	.st25{fill:#FFEA2C;}
	.st26{fill:#F7FF57;}
	.st27{fill:#FFFFFF;}
	.st28{fill:#D64949;}
	.st29{fill:#353535;}
	.st30{fill:#FFC783;}
	.st31{fill:#3F7F91;}
	.st32{fill:#25BDE5;}
	.st33{fill:#8CDD00;}
	.st34{fill:#D1FF88;}
	.st35{fill:#333333;}
	.st36{fill:#FF9000;}
	.st37{fill:#A1A813;}
	.st38{fill:#B3C40E;}
	.st39{fill:#CACE72;}
	.st40{fill:url(#SVGID_00000106121136805597829660000003333380189284678053_);}
	.st41{fill:#93E800;}
	.st42{fill:#3CB7D3;}
	.st43{fill:#FF7631;}
	.st44{fill:#E6873C;}
	.st45{fill:#30657F;}
	.st46{fill:#FF7A40;}
	.st47{fill:#FFAD4A;}
	.st48{fill:#BC8E3B;}
	.st49{fill:#E2E2E2;}
	.st50{fill:#F2B844;}
	.st51{fill:#AF3838;}
	.st52{fill:#17B5C1;}
	.st53{fill:#A88643;}
	.st54{fill-rule:evenodd;clip-rule:evenodd;fill:#DD7928;}
	.st55{fill:#E6E7E8;stroke:#CFCFCF;stroke-width:0.1061;}
	.st56{fill-rule:evenodd;clip-rule:evenodd;fill:#204F7A;}
	.st57{fill-rule:evenodd;clip-rule:evenodd;fill:#50A4FF;}
	.st58{fill:#002649;}
</style>
<g id="Layer_1">
	<path class="st0" d="M137.75,55.76c0,0-7.63,11.2-2.32,17.28c7.14,8.16,42.71-4.69,66.03-21.82c0,0-16.96,18.16-20.11,28.52
		c-3.15,10.37,2.06,32.06-28.59,58.73c0,0,17.96-39.75,10.51-46.6c-8.33-7.66-27.72-1.88-33.16-9.91
		C122.15,70.19,137.75,55.76,137.75,55.76z M163.98,43.31c-4.35,0-7.87,4.8-7.87,10.72c0,5.92,3.53,10.72,7.87,10.72
		c4.35,0,7.87-4.8,7.87-10.72C171.86,48.11,168.33,43.31,163.98,43.31z M183.28,129.8c1.25-14.01-2.46-27.98-2.46-27.98
		c-2.42,11.35-6.95,16.04-6.95,16.04c2.05,4.87,2.97,9.66,3.22,14.05c1.04-0.34,2.1-0.69,3.17-1.05
		C181.27,130.52,182.27,130.17,183.28,129.8z M194.3,82.96c2.72-0.25,5.45-0.44,8.17-0.5c5.43-0.13,10.87,0.02,16.11,0.86
		c2.61,0.43,5.18,1,7.58,1.87c1.2,0.43,2.34,0.94,3.41,1.51c1.07,0.58,2.03,1.25,2.85,2c1.65,1.5,2.57,3.28,2.67,5.23
		c0.11,1.94-0.55,4.09-1.69,6.16c-1.12,2.07-2.66,4.06-4.38,5.91c-1.73,1.86-3.63,3.62-5.65,5.27c-4.04,3.3-8.46,6.25-13.05,8.92
		c-4.61,2.65-9.36,5.1-14.26,7.25c-4.89,2.17-9.87,4.16-14.95,5.86c-5.07,1.74-10.21,3.28-15.41,4.52
		c-5.19,1.28-10.44,2.29-15.7,2.97c-5.26,0.71-10.55,1.01-15.75,0.84c-2.59-0.1-5.16-0.37-7.62-0.85c-2.47-0.46-4.84-1.18-6.86-2.24
		c-0.53-0.24-0.97-0.56-1.45-0.85c-0.23-0.15-0.42-0.32-0.64-0.48l-0.32-0.24c-0.1-0.09-0.18-0.18-0.28-0.26
		c-0.79-0.68-1.36-1.47-1.78-2.32c-0.85-1.69-0.93-3.79-0.31-6.02c0.6-2.22,1.81-4.46,3.26-6.57c1.44-2.13,3.18-4.12,5.02-6.03
		c3.7-3.83,7.92-7.25,12.31-10.46c2.2-1.6,4.46-3.13,6.78-4.59c2.3-1.49,4.66-2.89,7.03-4.3c-2.58,0.97-5.11,2.06-7.63,3.2
		c-2.51,1.16-4.97,2.42-7.41,3.76c-4.86,2.68-9.54,5.76-13.87,9.43c-2.15,1.85-4.21,3.84-6.07,6.11c-1.85,2.26-3.52,4.79-4.61,7.8
		c-0.54,1.5-0.93,3.13-0.96,4.87c-0.05,1.72,0.24,3.54,0.93,5.19c0.66,1.66,1.67,3.19,2.88,4.4c0.15,0.16,0.29,0.32,0.45,0.47
		l0.47,0.42c0.32,0.27,0.63,0.56,0.96,0.81c0.67,0.47,1.33,0.97,2.03,1.35c2.77,1.63,5.67,2.64,8.56,3.35
		c2.89,0.7,5.79,1.11,8.67,1.35c5.76,0.46,11.48,0.25,17.11-0.33c5.64-0.57,11.2-1.58,16.69-2.82c5.48-1.27,10.88-2.85,16.2-4.65
		c5.31-1.83,10.53-3.92,15.64-6.26c1.28-0.58,2.54-1.22,3.81-1.82c1.25-0.65,2.52-1.26,3.76-1.94c2.5-1.31,4.94-2.73,7.35-4.21
		c2.41-1.49,4.76-3.07,7.07-4.74c2.31-1.67,4.53-3.47,6.69-5.38c2.15-1.92,4.22-3.96,6.11-6.22c1.89-2.27,3.63-4.74,4.98-7.57
		c0.36-0.69,0.63-1.45,0.92-2.2c0.15-0.37,0.24-0.78,0.36-1.17c0.11-0.4,0.24-0.78,0.3-1.2l0.23-1.23c0.05-0.42,0.08-0.85,0.11-1.28
		c0.05-0.42,0.03-0.86,0.01-1.3c-0.02-0.44-0.01-0.87-0.1-1.31c-0.07-0.44-0.14-0.88-0.23-1.31l-0.38-1.28
		c-0.29-0.84-0.67-1.65-1.13-2.4c-0.91-1.51-2.12-2.76-3.41-3.76c-2.6-2.02-5.48-3.14-8.31-3.91c-2.85-0.75-5.71-1.14-8.54-1.33
		c-5.67-0.35-11.27,0.06-16.76,0.89c-2.75,0.42-5.47,0.94-8.16,1.54c-2.69,0.64-5.36,1.32-7.99,2.13
		C188.85,83.52,191.57,83.18,194.3,82.96z M129.58,154.89c1.32,0.34,2.64,0.65,3.98,0.94c2.67,0.58,5.36,1,8.08,1.35
		c5.43,0.68,10.91,0.91,16.41,0.78c10.98-0.3,22.01-2.15,32.5-5.76c10.47-3.58,20.45-8.77,29.17-15.6
		c4.35-3.42,8.39-7.23,11.94-11.43c1.77-2.1,3.45-4.28,4.94-6.59c1.49-2.29,2.88-4.67,3.9-7.19c-3.4,4.22-7.24,7.93-11.27,11.36
		c-4.03,3.43-8.28,6.54-12.7,9.35c-8.84,5.63-18.36,10.04-28.26,13.38c-4.94,1.67-9.98,3.07-15.1,4.18
		c-5.11,1.16-10.3,1.99-15.53,2.67c-5.24,0.64-10.52,1.08-15.84,1.3c-5.33,0.23-10.68,0.27-16.1,0.04
		C126.96,154.16,128.27,154.52,129.58,154.89z M211.48,28.79c0,0-0.99,5.06-6.26,5.53c5.27,0.47,6.26,5.53,6.26,5.53
		s0.99-5.06,6.26-5.53C212.47,33.85,211.48,28.79,211.48,28.79z M196.98,32.57c0,0-0.65,3.33-4.12,3.64
		c3.47,0.31,4.12,3.64,4.12,3.64s0.65-3.33,4.12-3.64C197.63,35.9,196.98,32.57,196.98,32.57z M205.22,37.09c0,0-0.5,2.53-3.13,2.76
		c2.63,0.23,3.13,2.76,3.13,2.76s0.5-2.53,3.13-2.76C205.72,39.62,205.22,37.09,205.22,37.09z"/>
	<linearGradient id="SVGID_1_" gradientUnits="userSpaceOnUse" x1="137.7191" y1="55.7904" x2="137.732" y2="55.8255">
		<stop  offset="0" style="stop-color:#FFFF00"/>
		<stop  offset="1" style="stop-color:#FF66FF"/>
	</linearGradient>
	<path class="st1" d="M137.75,55.78c-0.01,0.01-0.02,0.03-0.04,0.05C137.72,55.81,137.74,55.79,137.75,55.78
		C137.75,55.78,137.75,55.78,137.75,55.78z"/>
	
		<linearGradient id="SVGID_00000134928092883361646080000017724971236695252906_" gradientUnits="userSpaceOnUse" x1="137.7261" y1="55.8282" x2="137.7251" y2="55.7945">
		<stop  offset="0" style="stop-color:#000000"/>
		<stop  offset="0.9912" style="stop-color:#000000;stop-opacity:0"/>
	</linearGradient>
	<path style="opacity:0.22;fill:url(#SVGID_00000134928092883361646080000017724971236695252906_);" d="M137.75,55.78
		c-0.01,0.01-0.02,0.03-0.04,0.05C137.72,55.81,137.74,55.79,137.75,55.78C137.75,55.78,137.75,55.78,137.75,55.78z"/>
	<path class="st3" d="M163.98,64.75c-4.35,0-7.87-4.8-7.87-10.72c0-2.13,0.46-4.1,1.25-5.77c-1.24,5.78,0.99,8.24,6.63,7.21
		c5.63-1.03,8.62,1.33,5.47,6.27C168.04,63.6,166.11,64.75,163.98,64.75z M167.3,90.25c-5.3-13.19-26.12-1.68-35.05-10.86
		c-8.92-9.18,5.5-23.63,5.5-23.63s-15.6,14.43-7.63,26.19c5.44,8.03,24.83,2.25,33.16,9.91c7.45,6.85-10.51,46.6-10.51,46.6
		C156.98,131.71,172.6,103.44,167.3,90.25z M118.25,121.81c1.44-2.13,3.18-4.12,5.02-6.03c3.7-3.83,7.92-7.25,12.31-10.46
		c2.2-1.6,4.46-3.13,6.78-4.59c2.3-1.49,4.66-2.89,7.03-4.3c0,0-44.02,21.59-37.45,37.94s45.67,12.08,70.01,3.38
		s61.84-30.03,55.26-46.02c-6.27-15.26-41.77-10.37-50.09-8.16c-0.33,0.1-0.67,0.19-1,0.3c2.73-0.34,5.46-0.68,8.19-0.9
		c2.72-0.25,5.45-0.44,8.17-0.5c5.43-0.13,10.87,0.02,16.11,0.86c2.61,0.43,5.18,1,7.58,1.87c1.2,0.43,2.34,0.94,3.41,1.51
		c1.07,0.58,2.03,1.25,2.85,2c1.65,1.5,2.57,3.28,2.67,5.23c0.11,1.94-0.55,4.09-1.69,6.16c-1.12,2.07-2.66,4.06-4.38,5.91
		c-1.73,1.86-3.63,3.62-5.65,5.27c-4.04,3.3-8.46,6.25-13.05,8.92c-4.61,2.65-9.36,5.1-14.26,7.25c-4.89,2.17-9.87,4.16-14.95,5.86
		c-5.07,1.74-10.21,3.28-15.41,4.52c-5.19,1.28-10.44,2.29-15.7,2.97c-5.26,0.71-10.55,1.01-15.75,0.84
		c-2.59-0.1-5.16-0.37-7.62-0.85c-2.47-0.46-4.84-1.18-6.86-2.24c-0.53-0.24-0.97-0.56-1.45-0.85c-0.23-0.15-0.42-0.32-0.64-0.48
		l-0.32-0.24c-0.1-0.09-0.18-0.18-0.28-0.26c-0.79-0.68-1.36-1.47-1.78-2.32c-0.85-1.69-0.93-3.79-0.31-6.02
		C115.59,126.16,116.8,123.92,118.25,121.81z M185.86,150.18c34.65-9.06,54.63-38.78,54.63-38.78c-3.4,4.22-7.24,7.93-11.27,11.36
		c-4.03,3.43-8.28,6.54-12.7,9.35c-8.84,5.63-18.36,10.04-28.26,13.38c-4.94,1.67-9.98,3.07-15.1,4.18
		c-5.11,1.16-10.3,1.99-15.53,2.67c-5.24,0.64-10.52,1.08-15.84,1.3c-5.33,0.23-10.68,0.27-16.1,0.04
		C125.68,153.69,151.21,159.24,185.86,150.18z"/>
</g>
<g id="Layer_12">
</g>
<g id="Layer_13">
</g>
<g id="Layer_14">
</g>
<g id="Layer_15">
</g>
<g id="Layer_11">
</g>
<g id="Layer_8">
</g>
<g id="Layer_10">
</g>
<g id="Layer_9">
</g>
<g id="Layer_2">
</g>
<g id="Layer_3">
</g>
<g id="Layer_4">
</g>
<g id="Layer_5">
</g>
<g id="Layer_6">
</g>
<g id="Layer_7">
</g>
</svg>
