<?xml version="1.0" encoding="utf-8"?>
<!-- Generator: Adobe Illustrator 27.8.1, SVG Export Plug-In . SVG Version: 6.00 Build 0)  -->
<svg version="1.1" xmlns="http://www.w3.org/2000/svg" xmlns:xlink="http://www.w3.org/1999/xlink" x="0px" y="0px"
	 viewBox="0 0 350 230" style="enable-background:new 0 0 350 230;" xml:space="preserve">
<style type="text/css">
	.st0{fill:#FF9D00;}
	.st1{fill:url(#SVGID_1_);}
	.st2{opacity:0.22;fill:url(#SVGID_00000150802522549703241100000014986621815255287982_);}
	.st3{fill:#FFC200;}
	.st4{fill:#778718;}
	.st5{fill:#E0B017;}
	.st6{fill:#664407;}
	.st7{fill:#9E690A;}
	.st8{fill:#7F1105;}
	.st9{fill:#191933;}
	.st10{fill:#FCEBD4;}
	.st11{fill:#E3DFD6;}
	.st12{fill:#FFB000;}
	.st13{fill:#AA210E;}
	.st14{fill:#FFF0A6;}
	.st15{fill:#FFDA00;}
	.st16{fill:#F4F4F4;}
	.st17{fill:#DC5C28;}
	.st18{fill:#FF8440;}
	.st19{fill:#C45224;}
	.st20{fill:#2C4369;}
	.st21{fill:#2A72DB;}
	.st22{fill:#C65500;}
	.st23{fill:#C15746;}
	.st24{fill:#FF8C00;}
	.st25{fill:#FFEA2C;}
	.st26{fill:#F7FF57;}
	.st27{fill:#FFFFFF;}
	.st28{fill:#D64949;}
	.st29{fill:#353535;}
	.st30{fill:#FFC783;}
	.st31{fill:#3F7F91;}
	.st32{fill:#25BDE5;}
	.st33{fill:#8CDD00;}
	.st34{fill:#D1FF88;}
	.st35{fill:#333333;}
	.st36{fill:#FF9000;}
	.st37{fill:#A1A813;}
	.st38{fill:#B3C40E;}
	.st39{fill:#CACE72;}
	.st40{fill:url(#SVGID_00000036940365317300260220000006452125618495886215_);}
	.st41{fill:#93E800;}
	.st42{fill:#3CB7D3;}
	.st43{fill:#FF7631;}
	.st44{fill:#E6873C;}
	.st45{fill:#30657F;}
	.st46{fill:#FF7A40;}
	.st47{fill:#FFAD4A;}
	.st48{fill:#BC8E3B;}
	.st49{fill:#E2E2E2;}
	.st50{fill:#F2B844;}
	.st51{fill:#AF3838;}
	.st52{fill:#17B5C1;}
	.st53{fill:#A88643;}
	.st54{fill-rule:evenodd;clip-rule:evenodd;fill:#DD7928;}
	.st55{fill:#E6E7E8;stroke:#CFCFCF;stroke-width:0.1061;}
	.st56{fill-rule:evenodd;clip-rule:evenodd;fill:#204F7A;}
	.st57{fill-rule:evenodd;clip-rule:evenodd;fill:#50A4FF;}
	.st58{fill:#002649;}
</style>
<g id="Layer_1">
</g>
<g id="Layer_12">
</g>
<g id="Layer_13">
</g>
<g id="Layer_14">
</g>
<g id="Layer_15">
</g>
<g id="Layer_11">
</g>
<g id="Layer_8">
</g>
<g id="Layer_10">
	<path class="st31" d="M182.15,37.78c-0.16-1.88-0.28-9.15-1.26-13c-1.25-1.37-3.85-2.08-3.85-2.08c1.44,0.14,2.33,0.34,2.9,0.51
		c-0.77-0.7-2.06-1.27-4.17-0.84c-3.51,0.76-3.61,3.72-3.51,5.36c0.15,2.72,0.41,6.86,0.54,8.53c0.19,2.41,0.23,7.05,2.13,8.49
		c1.3,0.97,2.91,1.11,3.8,0.97c-1.15-1.48-1.58-3.14-1.46-4.39C177.43,39.92,179.44,38.74,182.15,37.78z M192.96,29.73
		c0.42-2.61-2.63-4.48-3.82-4.87c-1.49-0.5-4.81-0.62-5.86,2.68c-0.11,3.03,0.3,7.99,0.61,9.65c0.85-0.27,1.37-0.39,2.26-0.64
		c2.3-0.57,4.32-1.08,6.3-1.22c0-0.69,0.04-2.63,0.01-4.26c0-2.17-1.45-3.67-1.62-3.86C192.04,28.04,192.65,28.98,192.96,29.73z
		 M182.15,37.78c-0.16-1.88-0.28-9.15-1.26-13c-1.25-1.37-3.85-2.08-3.85-2.08c1.44,0.14,2.33,0.34,2.9,0.51
		c-0.77-0.7-2.06-1.27-4.17-0.84c-3.51,0.76-3.61,3.72-3.51,5.36c0.15,2.72,0.41,6.86,0.54,8.53c0.19,2.41,0.23,7.05,2.13,8.49
		c1.3,0.97,2.91,1.11,3.8,0.97c-1.15-1.48-1.58-3.14-1.46-4.39C177.43,39.92,179.44,38.74,182.15,37.78z M192.96,29.73
		c0.42-2.61-2.63-4.48-3.82-4.87c-1.49-0.5-4.81-0.62-5.86,2.68c-0.11,3.03,0.3,7.99,0.61,9.65c0.85-0.27,1.37-0.39,2.26-0.64
		c2.3-0.57,4.32-1.08,6.3-1.22c0-0.69,0.04-2.63,0.01-4.26c0-2.17-1.45-3.67-1.62-3.86C192.04,28.04,192.65,28.98,192.96,29.73z
		 M182.15,37.78c-0.16-1.88-0.28-9.15-1.26-13c-1.25-1.37-3.85-2.08-3.85-2.08c1.44,0.14,2.33,0.34,2.9,0.51
		c-0.77-0.7-2.06-1.27-4.17-0.84c-3.51,0.76-3.61,3.72-3.51,5.36c0.15,2.72,0.41,6.86,0.54,8.53c0.19,2.41,0.23,7.05,2.13,8.49
		c1.3,0.97,2.91,1.11,3.8,0.97c-1.15-1.48-1.58-3.14-1.46-4.39C177.43,39.92,179.44,38.74,182.15,37.78z M192.96,29.73
		c0.42-2.61-2.63-4.48-3.82-4.87c-1.49-0.5-4.81-0.62-5.86,2.68c-0.11,3.03,0.3,7.99,0.61,9.65c0.85-0.27,1.37-0.39,2.26-0.64
		c2.3-0.57,4.32-1.08,6.3-1.22c0-0.69,0.04-2.63,0.01-4.26c0-2.17-1.45-3.67-1.62-3.86C192.04,28.04,192.65,28.98,192.96,29.73z
		 M182.15,37.78c-0.16-1.88-0.28-9.15-1.26-13c-1.25-1.37-3.85-2.08-3.85-2.08c1.44,0.14,2.33,0.34,2.9,0.51
		c-0.77-0.7-2.06-1.27-4.17-0.84c-3.51,0.76-3.61,3.72-3.51,5.36c0.15,2.72,0.41,6.86,0.54,8.53c0.19,2.41,0.23,7.05,2.13,8.49
		c1.3,0.97,2.91,1.11,3.8,0.97c-1.15-1.48-1.58-3.14-1.46-4.39C177.43,39.92,179.44,38.74,182.15,37.78z M192.96,29.73
		c0.42-2.61-2.63-4.48-3.82-4.87c-1.49-0.5-4.81-0.62-5.86,2.68c-0.11,3.03,0.3,7.99,0.61,9.65c0.85-0.27,1.37-0.39,2.26-0.64
		c2.3-0.57,4.32-1.08,6.3-1.22c0-0.69,0.04-2.63,0.01-4.26c0-2.17-1.45-3.67-1.62-3.86C192.04,28.04,192.65,28.98,192.96,29.73z
		 M240.97,31.07h-4.13V19.65c0-2.21-1.77-3.99-3.98-3.99h-1.94c-2.21,0-3.99,1.79-3.99,3.99v11.43h-0.35V14.61
		c0-2.21-1.79-3.99-3.99-3.99h-1.94c-2.21,0-3.99,1.79-3.99,3.99v16.46h-0.34V9.98c0-2.19-1.79-3.98-3.99-3.98h-1.94
		c-2.21,0-3.99,1.79-3.99,3.98v21.09h-9.6c-0.03-0.03-0.04-0.05-0.04-0.05c-1.45-4.7-3.17-6.95-6.39-8.48
		c-3.82-1.8-7.11,0.05-7.11,0.05s-1.95-3.17-6.07-3.45c-4.12-0.28-6.89,2.86-6.89,2.86s-2.9-1.98-6.12-1.65
		c-3.24,0.34-5.66,3.1-5.66,3.1s-4.43-1.29-7.62-0.08c-2.45,0.93-3.71,3.64-3.87,5.21c-0.07,0.61-0.16,1.5-0.27,2.49h-2.98V9.98
		c0-2.19-1.79-3.98-3.98-3.98h-1.95c-2.19,0-3.98,1.79-3.98,3.98v21.09h-0.35V14.61c0-2.21-1.79-3.99-3.99-3.99h-1.94
		c-2.21,0-3.99,1.79-3.99,3.99v16.46h-0.35V19.65c0-2.21-1.79-3.99-3.98-3.99h-1.95c-2.19,0-3.98,1.79-3.98,3.99v11.43h-3.95
		c-0.76,0-1.38,0.62-1.38,1.38v7.6c0,0.77,0.62,1.38,1.38,1.38h3.95v11.43c0,2.21,1.79,3.99,3.98,3.99h1.95
		c2.19,0,3.98-1.79,3.98-3.99V41.43h0.35v16.48c0,2.21,1.79,3.99,3.99,3.99h1.94c2.21,0,3.99-1.79,3.99-3.99V41.43h0.35v21.09
		c0,2.21,1.79,3.99,3.98,3.99h1.95c2.19,0,3.98-1.79,3.98-3.99V41.43h2.08c0,3.43,0.11,11.75,1.12,18.56
		c1.33,8.81,5.74,11.2,5.74,11.2l-1.35,23.46h1.44l1.35-23.94c-1.23-0.87-2.32-1.92-3.07-3.28c-4.7-8.37-3.68-26.01-3.68-26.01h1.77
		c0,0-0.09,1.42-0.08,3.64c0.54-0.62,1.14-0.99,1.6-1.19c-0.14-0.32-0.24-0.66-0.37-1.03c-1.58-4.98-1.91-11.72-1.77-13.12
		c0.14-1.39,0.87-4.37,4.25-5.17c3.38-0.8,6.61,0.41,6.61,0.41s1.67-2.8,5.35-3.1c3.67-0.3,6.23,2.19,6.23,2.19
		c1.38-2.75,4.58-3.59,7.28-3.25c4.28,0.53,4.37,4.74,4.37,4.74s1.33-2.65,4.87-2.37c2.68,0.22,6.97,2.13,7.68,7.89h-1.27
		c0,1.75-0.09,3.52-0.11,4.18c0.77,0,1.46,0.08,1.99,0.28c0.99,0.38,1.81,1.12,2.5,2.07c0.68,0.95,1.2,2.1,1.64,3.25
		c0,0,2.92,7.04,3.52,9.64c0.35,1.49,1.12,3.3,0.74,5.14c-0.24,1.34-1.15,2.63-2.72,4.56c-2.21,2.65-4.86,5.65-7.53,8
		c-4.48,3.98-6.77,5.69-6.77,5.69l1.23,20.76h1.64l-1.33-20.29c7.51-5.36,14.12-13.46,14.73-14.18c1.29-1.49,3.03-4.44,1.68-8.54
		c-1.07-3.25-2.02-6.47-3.14-9.29c-0.14-0.31-0.24-0.62-0.38-0.92h4.77v21.09c0,2.21,1.79,3.99,3.99,3.99h1.94
		c2.21,0,3.99-1.79,3.99-3.99V41.43h0.34v16.48c0,2.21,1.79,3.99,3.99,3.99h1.94c2.21,0,3.99-1.79,3.99-3.99V41.43h0.35v11.43
		c0,2.21,1.79,3.99,3.99,3.99h1.94c2.21,0,3.98-1.79,3.98-3.99V41.43h4.13c0.76,0,1.37-0.61,1.37-1.38v-7.6
		C242.34,31.7,241.73,31.07,240.97,31.07z M113.33,32.93h-4.21c0,0,0-0.01,0-0.05c0-0.23,0.07-0.87,0.93-0.87h3.28V32.93z
		 M115.93,20.83l-0.97,10.25V20.39c0-3.28,3.45-3.4,3.45-3.4C116.01,17.7,115.93,20.83,115.93,20.83z M126.22,15.75l-0.96,15.33
		V15.31c0-3.28,3.44-3.38,3.44-3.38C126.3,12.62,126.22,15.75,126.22,15.75z M136.34,11.05l-0.97,20.02V10.62
		c0-3.28,3.45-3.38,3.45-3.38C136.41,7.92,136.34,11.05,136.34,11.05z M143.78,32.93v-0.92h2.9c0.01,0.27,0.05,0.92,0.05,0.92
		H143.78z M206.39,32.93h-11.35c0,0,0.04-0.65,0.05-0.92h11.29V32.93z M208.87,11.05l-0.96,20.02V10.62c0-3.28,3.44-3.38,3.44-3.38
		C208.94,7.92,208.87,11.05,208.87,11.05z M219,15.75l-0.96,15.33V15.31c0-3.28,3.44-3.38,3.44-3.38
		C219.07,12.62,219,15.75,219,15.75z M229.22,20.83l-0.97,10.25V20.39c0-3.28,3.45-3.4,3.45-3.4
		C229.29,17.7,229.22,20.83,229.22,20.83z M241.05,32.93h-4.21v-0.92h3.28c0.87,0,0.93,0.64,0.93,0.87
		C241.05,32.92,241.05,32.93,241.05,32.93z M192.96,29.73c0.42-2.61-2.63-4.48-3.82-4.87c-1.49-0.5-4.81-0.62-5.86,2.68
		c-0.11,3.03,0.3,7.99,0.61,9.65c0.85-0.27,1.37-0.39,2.26-0.64c2.3-0.57,4.32-1.08,6.3-1.22c0-0.69,0.04-2.63,0.01-4.26
		c0-2.17-1.45-3.67-1.62-3.86C192.04,28.04,192.65,28.98,192.96,29.73z M182.15,37.78c-0.16-1.88-0.28-9.15-1.26-13
		c-1.25-1.37-3.85-2.08-3.85-2.08c1.44,0.14,2.33,0.34,2.9,0.51c-0.77-0.7-2.06-1.27-4.17-0.84c-3.51,0.76-3.61,3.72-3.51,5.36
		c0.15,2.72,0.41,6.86,0.54,8.53c0.19,2.41,0.23,7.05,2.13,8.49c1.3,0.97,2.91,1.11,3.8,0.97c-1.15-1.48-1.58-3.14-1.46-4.39
		C177.43,39.92,179.44,38.74,182.15,37.78z M192.96,29.73c0.42-2.61-2.63-4.48-3.82-4.87c-1.49-0.5-4.81-0.62-5.86,2.68
		c-0.11,3.03,0.3,7.99,0.61,9.65c0.85-0.27,1.37-0.39,2.26-0.64c2.3-0.57,4.32-1.08,6.3-1.22c0-0.69,0.04-2.63,0.01-4.26
		c0-2.17-1.45-3.67-1.62-3.86C192.04,28.04,192.65,28.98,192.96,29.73z M182.15,37.78c-0.16-1.88-0.28-9.15-1.26-13
		c-1.25-1.37-3.85-2.08-3.85-2.08c1.44,0.14,2.33,0.34,2.9,0.51c-0.77-0.7-2.06-1.27-4.17-0.84c-3.51,0.76-3.61,3.72-3.51,5.36
		c0.15,2.72,0.41,6.86,0.54,8.53c0.19,2.41,0.23,7.05,2.13,8.49c1.3,0.97,2.91,1.11,3.8,0.97c-1.15-1.48-1.58-3.14-1.46-4.39
		C177.43,39.92,179.44,38.74,182.15,37.78z M192.96,29.73c0.42-2.61-2.63-4.48-3.82-4.87c-1.49-0.5-4.81-0.62-5.86,2.68
		c-0.11,3.03,0.3,7.99,0.61,9.65c0.85-0.27,1.37-0.39,2.26-0.64c2.3-0.57,4.32-1.08,6.3-1.22c0-0.69,0.04-2.63,0.01-4.26
		c0-2.17-1.45-3.67-1.62-3.86C192.04,28.04,192.65,28.98,192.96,29.73z M182.15,37.78c-0.16-1.88-0.28-9.15-1.26-13
		c-1.25-1.37-3.85-2.08-3.85-2.08c1.44,0.14,2.33,0.34,2.9,0.51c-0.77-0.7-2.06-1.27-4.17-0.84c-3.51,0.76-3.61,3.72-3.51,5.36
		c0.15,2.72,0.41,6.86,0.54,8.53c0.19,2.41,0.23,7.05,2.13,8.49c1.3,0.97,2.91,1.11,3.8,0.97c-1.15-1.48-1.58-3.14-1.46-4.39
		C177.43,39.92,179.44,38.74,182.15,37.78z M195.32,37.09c-1.14-0.6-4.58-0.14-8,0.66c2,1.76,2.03,3.99,2.03,4.09
		c-0.14-0.34-0.3-0.64-0.47-0.91c-1.25-1.92-3.7-2.68-5.85-1.96c-0.72,0.24-1.37,0.47-1.94,0.72c-1.52,0.62-2.37,1.58-2.26,2.38
		c0.01,0.08,0.03,0.14,0.04,0.22c0.34,0.57,1.12,1.16,2.76,1.5c3.6,0.8,5.98-0.62,6.21-0.76c-0.2,0.19-2.18,1.88-6.24,1.29
		c-1.15-0.18-1.91-0.51-2.44-0.88c1.27,3.63,5.13,4.66,8.81,4.52c1.79-0.07,4.44-0.99,5.81-2.14c0.87-0.72,1.65-1.68,2.06-2.86
		c0,0-0.07,2.03-1.44,3.64c1.39-0.14,2.18-0.66,2.29-0.74c-0.08,0.18-1.56,3.06-9.14,3.32c-1.54,0.04-2.87-0.12-4.02-0.43
		c-11.48,2.14-13.82,14.87-13.82,14.87c0.14-10.86,8.41-15.01,11.05-16.06c-0.27-0.16-0.53-0.34-0.76-0.53c0,0-0.64-0.56-0.89-0.84
		c0,0-3.91,1.57-6.35-2c-0.31,0.37-0.93,0.89-2.21,1.25c-2.08,0.57-3.61-0.41-3.61-0.41c3.38,0.76,5.16-2,5.16-2h0.01
		c-0.19-0.42-0.37-0.85-0.51-1.35c-0.99-3.2-1.25-12.13-1.3-15.08c-1.48-1.44-3.43-1.98-3.43-1.98c1.98,0.14,3.11,0.81,3.36,0.96
		c-0.38-0.37-2.92-2.61-5.81-2c-0.03,0-0.05,0-0.09,0.01c-2.33,0.51-3.86,2.73-3.66,5.12c0.23,2.79,0.65,7.61,1.02,10.06
		c0.54,3.57,1.18,6.73,4.29,7.99c2.95,1.19,6.24-1.34,6.58-1.61c-0.19,0.34-2.44,3.83-6.55,3.13c-1.56-0.26-3.07-1.2-4.14-2.99
		c-0.37,0.32-0.95,0.69-1.91,0.96c-2.09,0.57-3.61-0.42-3.61-0.42c2.68,0.62,4.37-1.02,4.94-1.72c-0.12-0.26-0.23-0.53-0.31-0.83
		c-0.87-2.69-1.91-12.93-2.18-15.62c-1.6-0.74-3.68-0.85-3.68-0.85c1.22-0.43,3.41,0.14,3.6,0.19c-0.28-0.16-3.57-1.81-6.55-0.28
		c-3.11,1.58-2.21,7.18-1.69,10.17c0.64,3.68,1.92,9.37,4.9,10.44c2.83,1,6.11-0.97,6.44-1.16c-0.16,0.27-1.94,3.06-5.47,2.83
		c-2.14-0.14-3.94-0.93-5.43-4.52c-1.72,1.41-1.73,3.91-1.73,3.98v0.03c1.07-1.14,2.55-1.52,2.72-1.56
		c-2.59,1.56-2.36,6.36-2.33,6.61c0.5,4.54,1.56,9.44,3.63,13.02c2.56,4.43,10.6,7.38,10.6,7.38s-2.33-0.15-5.08-1.02l-1.46,13.92
		l-0.12-14.49c-0.28-0.12-0.57-0.26-0.87-0.39l-1.75,22.73h32.11l-1.87-20.12c-1,0.26-4.37,0.46-6,0.57l-0.7,16.84l-1.18-16.72
		c-2.04,0.08-3.93,0.05-4.71-0.07c1.39-0.09,3.76-0.38,6.57-1.12c-5.12,0.47-9.87,0.07-9.87,0.07c8.08-0.56,13.02-1.23,15.75-2.23
		c1.94-0.72,3.74-2.02,5.58-3.44c7.68-6.02,11.93-12.14,12.31-13.32C203.2,52.93,198.12,38.59,195.32,37.09z M168.84,65.18
		c0,0-1.04-3.87,0.23-7.81c-0.23-1.26-0.89-2.26-0.96-2.4c0.57,0.35,1.07,1.11,1.31,1.5c0.61-1.45,1.57-2.88,3.06-4.08
		C172.05,52.89,168.5,57.14,168.84,65.18z M189.38,49.41c0.23,0.15,4.25,2.94,7.85,2.26C197.23,51.67,191.88,54.05,189.38,49.41z
		 M192.96,29.73c0.42-2.61-2.63-4.48-3.82-4.87c-1.49-0.5-4.81-0.62-5.86,2.68c-0.11,3.03,0.3,7.99,0.61,9.65
		c0.85-0.27,1.37-0.39,2.26-0.64c2.3-0.57,4.32-1.08,6.3-1.22c0-0.69,0.04-2.63,0.01-4.26c0-2.17-1.45-3.67-1.62-3.86
		C192.04,28.04,192.65,28.98,192.96,29.73z M182.15,37.78c-0.16-1.88-0.28-9.15-1.26-13c-1.25-1.37-3.85-2.08-3.85-2.08
		c1.44,0.14,2.33,0.34,2.9,0.51c-0.77-0.7-2.06-1.27-4.17-0.84c-3.51,0.76-3.61,3.72-3.51,5.36c0.15,2.72,0.41,6.86,0.54,8.53
		c0.19,2.41,0.23,7.05,2.13,8.49c1.3,0.97,2.91,1.11,3.8,0.97c-1.15-1.48-1.58-3.14-1.46-4.39
		C177.43,39.92,179.44,38.74,182.15,37.78z"/>
	<path class="st32" d="M263.71,103.03c-0.12,0.7-0.24,1.4-0.37,2.11H86.69c-0.13-0.71-0.25-1.41-0.37-2.11H263.71z M97.1,143.07
		c0.27,0.71,0.56,1.4,0.84,2.11h154.28c0.28-0.71,0.57-1.4,0.84-2.11H97.1z M175.26,225.69l-0.26-0.11l-0.26,0.11H175.26z
		 M250.88,148.17l-0.31,0.73c-15.39,36.56-40.26,63.23-73.92,79.31L175,229l-1.64-0.79c-33.66-16.08-58.54-42.77-73.94-79.31
		l-0.31-0.73h17.36l-4.51,3.28c1.85,4.08,9.21,19.1,22.1,33.98c7.27,8.39,22.23,23.6,40.94,31.4c18.72-7.8,33.67-23,40.94-31.4
		c12.94-14.93,20.31-30.04,22.12-34.04l-4.44-3.22H250.88z M109.58,153.17c14.3,30.37,36.27,53.05,65.42,67.4
		c29.16-14.35,51.15-37.04,65.45-67.45l-0.8-0.57c-2.11,4.56-9.52,19.44-22.26,34.13c-7.43,8.58-22.77,24.15-42.02,32.07L175,218.9
		l-0.37-0.15c-19.25-7.92-34.59-23.49-42.02-32.07c-12.69-14.64-20.08-29.45-22.23-34.08L109.58,153.17z M247.62,150.09
		c-0.87,2.09-1.83,4.1-2.83,6.12c-1,2-2.04,3.99-3.14,5.96c-1.07,1.96-2.22,3.9-3.38,5.82c-1.16,1.91-2.38,3.8-3.61,5.67
		c-1.25,1.85-2.5,3.71-3.82,5.54c-1.31,1.81-2.64,3.63-4.03,5.38c-1.35,1.77-2.79,3.49-4.24,5.21l-2.21,2.53l-2.26,2.48
		c-0.74,0.83-1.54,1.62-2.33,2.42c-0.77,0.8-1.56,1.61-2.37,2.38l-2.41,2.33l-2.48,2.26c-0.83,0.77-1.69,1.48-2.53,2.19
		c-0.87,0.72-1.69,1.48-2.59,2.14l-2.63,2.08c-0.88,0.69-1.8,1.33-2.71,1.99c-1.77,1.35-3.68,2.52-5.52,3.78l-2.86,1.76l-1.44,0.87
		l-1.46,0.81l-2.94,1.61l-3.01,1.49l-1.5,0.74l-1.53,0.66l-2.8,1.25l-2.8-1.25l-1.53-0.66l-1.5-0.74l-3.01-1.49l-2.92-1.61
		l-1.48-0.81l-1.44-0.87l-2.86-1.76c-1.84-1.26-3.75-2.42-5.52-3.78c-0.91-0.66-1.83-1.3-2.71-1.99l-2.63-2.08
		c-0.89-0.66-1.72-1.42-2.57-2.14c-0.85-0.72-1.72-1.44-2.55-2.21l-2.48-2.25l-2.41-2.33c-0.81-0.77-1.6-1.58-2.37-2.38
		c-0.79-0.8-1.58-1.6-2.32-2.42l-2.27-2.48l-2.21-2.53c-1.45-1.72-2.88-3.44-4.24-5.21c-1.39-1.76-2.72-3.56-4.03-5.38
		c-1.31-1.83-2.57-3.68-3.82-5.54c-1.23-1.87-2.45-3.76-3.61-5.67c-1.16-1.92-2.3-3.86-3.38-5.82c-1.1-1.96-2.14-3.95-3.14-5.96
		c-1-2.02-1.96-4.03-2.83-6.12c0.81,2.1,1.73,4.16,2.67,6.19c0.96,2.04,1.95,4.06,3.01,6.05c1.03,1.99,2.13,3.95,3.25,5.92
		c1.12,1.94,2.29,3.86,3.48,5.77c1.22,1.9,2.46,3.78,3.75,5.63c1.3,1.84,2.61,3.67,3.98,5.46c1.35,1.8,2.78,3.56,4.2,5.29l2.18,2.59
		l2.25,2.52c0.74,0.85,1.53,1.67,2.3,2.48c0.79,0.83,1.56,1.65,2.36,2.42l2.42,2.38l2.49,2.29c0.81,0.77,1.69,1.49,2.55,2.22
		c0.87,0.73,1.69,1.49,2.59,2.18l2.65,2.11c0.89,0.7,1.81,1.34,2.72,2.02c1.79,1.38,3.71,2.57,5.56,3.86l2.88,1.79l1.45,0.88
		l1.48,0.83l2.97,1.65l3.02,1.52l1.52,0.76l1.56,0.69l3.1,1.38l0.26,0.11l0.26-0.11l3.1-1.39l1.54-0.68l1.53-0.76l3.02-1.52
		l2.97-1.65l1.48-0.83l1.45-0.88l2.88-1.79c1.85-1.29,3.78-2.48,5.56-3.86c0.91-0.68,1.83-1.31,2.72-2.02l2.65-2.11
		c0.89-0.69,1.72-1.45,2.59-2.18c0.85-0.73,1.73-1.45,2.55-2.22l2.49-2.29l2.42-2.38c0.8-0.77,1.57-1.6,2.36-2.42
		c0.77-0.83,1.56-1.62,2.29-2.48l2.26-2.52l2.18-2.59c1.42-1.75,2.84-3.49,4.2-5.29c1.37-1.79,2.68-3.63,3.98-5.46
		c1.29-1.85,2.53-3.74,3.74-5.63c1.2-1.91,2.37-3.83,3.49-5.77c1.12-1.96,2.21-3.93,3.25-5.93c1.04-1.98,2.04-4.01,2.99-6.04
		C245.89,154.25,246.81,152.19,247.62,150.09z M264.18,99.59l-0.07,0.45H85.88l-0.07-0.45c-3.76-24.75-2.37-42.53-2.36-42.72
		l0.19-2.45l2.33-0.83c5.01-1.77,10.07-3.43,15.1-4.97l1.08-9.88l4.7,16.08l-0.5,0.15c-5.13,1.52-10.33,3.17-15.45,4.94
		c-0.2,5.36-0.31,18.21,1.91,34.73h1.87c-1.71-10.59-1.92-33.16-1.92-33.4v-0.39l14.59-4.32l0.28,1l-13.82,4.1
		c0.04,3.07,0.35,23.35,1.94,33.01h157.93c1.6-9.65,1.9-29.93,1.94-33.01l-13.35-3.97l0.3-1l14.12,4.18l-0.01,0.39
		c0,0.24-0.22,22.81-1.91,33.4h2.42c2.21-16.49,2.1-29.37,1.9-34.73c-5.06-1.76-10.25-3.41-15.43-4.94l-0.51-0.15l4.73-16.08
		l1.07,9.9c4.9,1.49,9.96,3.15,15.08,4.96l2.33,0.83l0.19,2.46C266.6,57.64,267.89,75.24,264.18,99.59z M88.42,96.63
		c-0.08-0.85-0.14-1.71-0.23-2.55c-0.09-0.84-0.15-1.69-0.22-2.53c-0.12-1.68-0.22-3.37-0.34-5.06c-0.07-1.69-0.19-3.37-0.23-5.06
		c-0.08-1.69-0.14-3.38-0.19-5.08l-0.14-5.06l-0.07-5.08c-0.03-3.25-0.04-6.51,0-9.76c2.33-0.87,4.67-1.76,7-2.67l3.67-1.45
		c1.22-0.49,2.44-0.99,3.64-1.49c-1.26,0.35-2.52,0.73-3.78,1.11l-3.78,1.15c-2.52,0.79-5.02,1.6-7.51,2.41l-0.37,0.11l-0.01,0.41
		c-0.08,1.71-0.14,3.4-0.16,5.09c-0.05,1.71-0.05,3.41-0.05,5.1c0,3.38,0.12,6.8,0.27,10.19c0.11,1.69,0.2,3.38,0.35,5.08
		c0.14,1.69,0.31,3.38,0.49,5.08l0.32,2.52c0.09,0.85,0.26,1.68,0.39,2.52C87.74,93.29,88.06,94.95,88.42,96.63z M265.33,66.22
		c0-1.69,0-3.4-0.05-5.1c-0.03-1.69-0.08-3.38-0.16-5.09l-0.01-0.41l-0.37-0.11c-2.5-0.81-5-1.62-7.51-2.41l-3.78-1.15
		c-1.26-0.38-2.52-0.76-3.78-1.11c1.2,0.5,2.42,1,3.64,1.49l3.67,1.45c2.33,0.91,4.67,1.8,7,2.67c0.04,3.25,0.03,6.51,0,9.76
		l-0.07,5.08l-0.14,5.06c-0.05,1.69-0.11,3.38-0.19,5.08c-0.04,1.69-0.16,3.37-0.23,5.06c-0.12,1.69-0.2,3.38-0.34,5.06
		c-0.07,0.84-0.12,1.69-0.22,2.53c-0.09,0.84-0.15,1.69-0.23,2.55c0.35-1.68,0.68-3.34,0.93-5.02c0.14-0.84,0.28-1.67,0.39-2.52
		l0.33-2.52c0.19-1.69,0.35-3.38,0.49-5.08c0.16-1.69,0.24-3.38,0.34-5.08C265.21,73.02,265.33,69.61,265.33,66.22z"/>
</g>
<g id="Layer_9">
</g>
<g id="Layer_2">
</g>
<g id="Layer_3">
</g>
<g id="Layer_4">
</g>
<g id="Layer_5">
</g>
<g id="Layer_6">
</g>
<g id="Layer_7">
</g>
</svg>
