<?xml version="1.0" encoding="utf-8"?>
<!-- Generator: Adobe Illustrator 27.8.1, SVG Export Plug-In . SVG Version: 6.00 Build 0)  -->
<svg version="1.1" xmlns="http://www.w3.org/2000/svg" xmlns:xlink="http://www.w3.org/1999/xlink" x="0px" y="0px"
	 viewBox="0 0 350 230" style="enable-background:new 0 0 350 230;" xml:space="preserve">
<style type="text/css">
	.st0{fill:#FF9D00;}
	.st1{fill:url(#SVGID_1_);}
	.st2{opacity:0.22;fill:url(#SVGID_00000099654145033882232170000007010477040932715437_);}
	.st3{fill:#FFC200;}
	.st4{fill:#778718;}
	.st5{fill:#E0B017;}
	.st6{fill:#664407;}
	.st7{fill:#9E690A;}
	.st8{fill:#7F1105;}
	.st9{fill:#191933;}
	.st10{fill:#FCEBD4;}
	.st11{fill:#E3DFD6;}
	.st12{fill:#FFB000;}
	.st13{fill:#AA210E;}
	.st14{fill:#FFF0A6;}
	.st15{fill:#FFDA00;}
	.st16{fill:#F4F4F4;}
	.st17{fill:#DC5C28;}
	.st18{fill:#FF8440;}
	.st19{fill:#C45224;}
	.st20{fill:#2C4369;}
	.st21{fill:#2A72DB;}
	.st22{fill:#C65500;}
	.st23{fill:#C15746;}
	.st24{fill:#FF8C00;}
	.st25{fill:#FFEA2C;}
	.st26{fill:#F7FF57;}
	.st27{fill:#FFFFFF;}
	.st28{fill:#D64949;}
	.st29{fill:#353535;}
	.st30{fill:#FFC783;}
	.st31{fill:#3F7F91;}
	.st32{fill:#25BDE5;}
	.st33{fill:#8CDD00;}
	.st34{fill:#D1FF88;}
	.st35{fill:#333333;}
	.st36{fill:#FF9000;}
	.st37{fill:#A1A813;}
	.st38{fill:#B3C40E;}
	.st39{fill:#CACE72;}
	.st40{fill:url(#SVGID_00000122682774672727010830000003820943729493254016_);}
	.st41{fill:#93E800;}
	.st42{fill:#3CB7D3;}
	.st43{fill:#FF7631;}
	.st44{fill:#E6873C;}
	.st45{fill:#30657F;}
	.st46{fill:#FF7A40;}
	.st47{fill:#FFAD4A;}
	.st48{fill:#BC8E3B;}
	.st49{fill:#E2E2E2;}
	.st50{fill:#F2B844;}
	.st51{fill:#AF3838;}
	.st52{fill:#17B5C1;}
	.st53{fill:#A88643;}
	.st54{fill-rule:evenodd;clip-rule:evenodd;fill:#DD7928;}
	.st55{fill:#E6E7E8;stroke:#CFCFCF;stroke-width:0.1061;}
	.st56{fill-rule:evenodd;clip-rule:evenodd;fill:#204F7A;}
	.st57{fill-rule:evenodd;clip-rule:evenodd;fill:#50A4FF;}
	.st58{fill:#002649;}
</style>
<g id="Layer_1">
</g>
<g id="Layer_12">
</g>
<g id="Layer_13">
</g>
<g id="Layer_14">
</g>
<g id="Layer_15">
</g>
<g id="Layer_11">
	<g>
		<g>
			<rect x="67" y="64.57" class="st22" width="12.3" height="42.4"/>
			<rect x="81.97" y="56.37" class="st22" width="12.3" height="58.8"/>
			<rect x="98.68" y="48.69" class="st22" width="12.3" height="74.15"/>
			<path class="st22" d="M218.34,96.56c-4.77,17.81-21.05,30.97-40.34,30.97c-19.09,0-35.22-12.87-40.19-30.39
				c-0.25-0.9-0.48-1.8-0.67-2.72c-0.19-0.9-0.35-1.8-0.48-2.72c-0.28-1.94-0.42-3.91-0.42-5.93c0-1.81,0.11-3.59,0.34-5.33
				c0.12-0.92,0.27-1.83,0.44-2.73l-7.86,0.06h-3.2h-12.7v16.82l12.82-0.09c0.16,0.91,0.33,1.82,0.53,2.72
				c5.24,23.55,26.3,41.21,51.4,41.21c25.36,0,46.59-18.03,51.55-41.94L218.34,96.56z"/>
		</g>
	</g>
	<path class="st23" d="M289,64.57v42.4h-12.3v-42.4H289z M261.74,115.17h12.3v-58.8h-12.3V115.17z M245.02,122.85h12.3V48.69h-12.3
		V122.85z M229.4,74.33c-5.24-23.55-26.29-41.21-51.4-41.21c-25.36,0-46.58,18.02-51.55,41.92h2.71l8.5-0.06
		c4.77-17.81,21.05-30.97,40.34-30.97c19.09,0,35.23,12.87,40.19,30.4c0.25,0.9,0.48,1.8,0.67,2.72c0.19,0.9,0.35,1.81,0.48,2.72
		c0.28,1.93,0.42,3.91,0.42,5.92c0,1.81-0.11,3.59-0.34,5.33c-0.12,0.92-0.27,1.83-0.44,2.73l11.07-0.08l12.7-0.09v-16.7
		l-12.82,0.09C229.77,76.14,229.6,75.23,229.4,74.33z"/>
	<path class="st24" d="M193.8,74.63c5.05-6.52,6.58-11.94,4.5-16.1c-3.28-6.57-13.83-6.56-15.21-6.52h-0.45h-7.76h-0.45
		c-1.38-0.03-11.93-0.05-15.21,6.52c-2,4-0.67,9.16,3.92,15.35c-5.96,4.5-9.81,11.65-9.81,19.7c0,13.63,11.05,24.67,24.67,24.67
		c13.63,0,24.67-11.05,24.67-24.67C202.67,85.96,199.22,79.16,193.8,74.63z M167.93,71.05c-3.43-4.47-4.77-8.03-3.77-10.05
		c1.37-2.76,7.44-3.54,10.17-3.47h0.55v0h8.25l0.07,0c2.72-0.07,8.78,0.69,10.16,3.47c1.05,2.1-0.44,5.86-4.18,10.59
		c-3.36-1.71-7.15-2.68-11.18-2.68C174.41,68.9,171.01,69.67,167.93,71.05z"/>
</g>
<g id="Layer_8">
</g>
<g id="Layer_10">
</g>
<g id="Layer_9">
</g>
<g id="Layer_2">
</g>
<g id="Layer_3">
</g>
<g id="Layer_4">
</g>
<g id="Layer_5">
</g>
<g id="Layer_6">
</g>
<g id="Layer_7">
</g>
</svg>
