<?xml version="1.0" encoding="utf-8"?>
<!-- Generator: Adobe Illustrator 27.8.1, SVG Export Plug-In . SVG Version: 6.00 Build 0)  -->
<svg version="1.1" xmlns="http://www.w3.org/2000/svg" xmlns:xlink="http://www.w3.org/1999/xlink" x="0px" y="0px"
	 viewBox="0 0 350 230" style="enable-background:new 0 0 350 230;" xml:space="preserve">
<style type="text/css">
	.st0{fill:#FF9D00;}
	.st1{fill:url(#SVGID_1_);}
	.st2{opacity:0.22;fill:url(#SVGID_00000081634237891639348460000017263038924470051764_);}
	.st3{fill:#FFC200;}
	.st4{fill:#778718;}
	.st5{fill:#E0B017;}
	.st6{fill:#664407;}
	.st7{fill:#9E690A;}
	.st8{fill:#7F1105;}
	.st9{fill:#191933;}
	.st10{fill:#FCEBD4;}
	.st11{fill:#E3DFD6;}
	.st12{fill:#FFB000;}
	.st13{fill:#AA210E;}
	.st14{fill:#FFF0A6;}
	.st15{fill:#FFDA00;}
	.st16{fill:#F4F4F4;}
	.st17{fill:#DC5C28;}
	.st18{fill:#FF8440;}
	.st19{fill:#C45224;}
	.st20{fill:#2C4369;}
	.st21{fill:#2A72DB;}
	.st22{fill:#C65500;}
	.st23{fill:#C15746;}
	.st24{fill:#FF8C00;}
	.st25{fill:#FFEA2C;}
	.st26{fill:#F7FF57;}
	.st27{fill:#FFFFFF;}
	.st28{fill:#D64949;}
	.st29{fill:#353535;}
	.st30{fill:#FFC783;}
	.st31{fill:#3F7F91;}
	.st32{fill:#25BDE5;}
	.st33{fill:#8CDD00;}
	.st34{fill:#D1FF88;}
	.st35{fill:#333333;}
	.st36{fill:#FF9000;}
	.st37{fill:#A1A813;}
	.st38{fill:#B3C40E;}
	.st39{fill:#CACE72;}
	.st40{fill:url(#SVGID_00000159457486463766043530000014414678878636732594_);}
	.st41{fill:#93E800;}
	.st42{fill:#3CB7D3;}
	.st43{fill:#FF7631;}
	.st44{fill:#E6873C;}
	.st45{fill:#30657F;}
	.st46{fill:#FF7A40;}
	.st47{fill:#FFAD4A;}
	.st48{fill:#BC8E3B;}
	.st49{fill:#E2E2E2;}
	.st50{fill:#F2B844;}
	.st51{fill:#AF3838;}
	.st52{fill:#17B5C1;}
	.st53{fill:#A88643;}
	.st54{fill-rule:evenodd;clip-rule:evenodd;fill:#DD7928;}
	.st55{fill:#E6E7E8;stroke:#CFCFCF;stroke-width:0.1061;}
	.st56{fill-rule:evenodd;clip-rule:evenodd;fill:#204F7A;}
	.st57{fill-rule:evenodd;clip-rule:evenodd;fill:#50A4FF;}
	.st58{fill:#002649;}
</style>
<g id="Layer_1">
</g>
<g id="Layer_12">
	<path class="st4" d="M118.9,65.72c-1.25-11.58-0.34-19.34-0.34-19.34c1.7,0,33.03-6.66,50.92-24.15
		c17.9,17.49,49.22,24.15,50.92,24.15c0,0,0.91,7.74-0.33,19.29c-1.37-1.66-2.68-3.51-3.27-4.52l-0.21-0.37
		c-0.68-1.19-1.25-2.1-2.54-3.04c0.09-2.3,0.1-4.3,0.06-5.91c-4.18-1.02-9.79-2.69-15.41-4.79c-8.4-3.15-19.75-8.34-29.22-16.01
		c-9.47,7.67-20.82,12.86-29.22,16.01c-5.62,2.1-11.22,3.76-15.4,4.79c-0.03,1.62-0.03,3.63,0.07,5.94
		c-1.27,0.94-1.84,1.84-2.51,3.02l-0.21,0.37C121.62,62.18,120.28,64.05,118.9,65.72z M149.6,128.42c0.1-0.37,0.96-3.66,1.59-5.17
		c0.05-0.13,0.1-0.28,0.14-0.43c-3.25-3.42-6.21-7.05-8.88-10.9c-3.15-4.54-5.9-9.39-8.23-14.5c-0.71,0.16-1.4,0.25-2.09,0.25
		c-1.87,0-3.42-0.57-4.93-1.12c-0.21-0.08-0.42-0.15-0.63-0.23c4.65,11.36,11.83,23.22,22.83,33.92l0.15-1.61L149.6,128.42z
		 M211.81,96.55c-1.5,0.55-3.06,1.12-4.92,1.12c0,0,0,0,0,0c-0.71,0-1.41-0.09-2.13-0.26c-2.29,5.02-4.98,9.79-8.06,14.26
		c-2.7,3.93-5.72,7.63-9.02,11.11c0.04,0.17,0.09,0.33,0.15,0.48c0.62,1.51,1.49,4.8,1.59,5.17l0.06,0.21l0.15,1.56
		c10.98-10.68,18.14-22.52,22.78-33.86C212.2,96.4,212.01,96.48,211.81,96.55z"/>
	<path class="st5" d="M174.88,86.63c0.36,0.74-0.15,2.05-1.46,3.71c-1.18-0.6-2.5-0.95-3.92-0.95c-1.25,0-2.44,0.27-3.52,0.76
		c-1.2-1.57-1.67-2.81-1.31-3.52c0.48-0.97,2.61-1.24,3.55-1.21h3.11C172.27,85.39,174.4,85.66,174.88,86.63z M225.92,87.8
		c-1.66,0.58-3.41,4.42-9.08,4.84c-5.66,0.42-7.66,3.16-11.65,2.17c-3.15-0.79-5.78-1.56-7.41-1.09c-1.29,0.46-2.51,1.09-2.67,1.61
		c-1.38,1.76-2.38,4.48-3.85,7.48c-0.14,0.26-0.26,0.51-0.39,0.76c-0.03,0.06-0.06,0.11-0.09,0.19c-0.53,1.06-1.02,1.96-1.46,2.72
		l-2.33,3.17c0,0-0.18-2.52,0.19-4.22c-0.7,0.75-2.51,3.91-3.22,5.14c-0.97,3.09-0.96,4.59-2.07,5.42c0.34-0.18,3.05-1.68,3.9-3.67
		c0,0,0.08,4.18-0.73,6.14c0,0-0.64,3.5,0.32,5.83c0.57,1.39,1.48,4.83,1.48,4.83l0.24,2.63c0,0,0.03,0.7,0.11,1.69
		c0.15,1.81,0.44,3.37,1.16,4.45C171.69,150.21,169.85,156,169.85,156s-1.24-3.97-18.94-17.74c0.56-2.3,1-6.55,1-6.55l0.03-0.3
		l0.22-2.32c0,0,0.9-3.44,1.47-4.83c0.96-2.32,0.32-5.83,0.32-5.83c-0.81-1.96-0.73-6.14-0.73-6.14c0.84,1.99,3.55,3.49,3.9,3.67
		c-1.12-0.82-1.1-2.06-2.07-5.15c-0.71-1.23-2.79-5.02-3.49-5.77c0.35,1.7,0.46,4.59,0.46,4.59l-2.33-3.17
		c-0.44-0.76-0.92-1.66-1.46-2.72c-0.03-0.07-0.06-0.13-0.09-0.19c-0.13-0.25-0.25-0.5-0.38-0.76c-1.48-3-2.48-5.72-3.86-7.48
		c-0.16-0.51-1.38-1.15-2.67-1.61c-1.63-0.47-4.26,0.3-7.4,1.09c-2.95,0.73-4.82-0.56-7.85-1.46l-0.23-0.21
		c-0.01,0.04-0.01,0.08-0.02,0.14c-1.03-0.29-2.19-0.53-3.56-0.64c-5.67-0.42-7.41-4.25-9.08-4.84c-1.67-0.58-0.33-3.83-0.33-3.83
		c0.33-3.92,4.24-12.41,6.33-14.5c2.08-2.07,4.5-5.41,5.42-6.99c0.91-1.58,1.16-2.33,3.82-3.67c2.67-1.32,7.92-1.58,9.34-1.17
		c1.42,0.42,2.18,3.44,2.32,4.99c0.17,1.67-1.61,1.66-1.61,1.66l-0.41,0.46c-1.24,0.82-1.81-0.11-1.81-0.11
		c-0.63,0.84-1.64,0.44-1.64,0.44c-1.57,0.92-1.53-0.26-3.2-0.51c-1.67-0.25-4.34,5.16-5.09,10.58c-0.75,5.41-1.99,6.91-1.99,6.91
		c1.23-1.13,2.18-1.5,3.59-1.98l-1.47,2.35c1.74-1.7,2.8-3.14,6.7-3.63c5.14-0.65,9.17,3.01,9.17,3.01l-2.29-2.6
		c1.61,0.27,2.03-0.39,3.07-0.78c6.11-2.29,9.07,1.2,9.61,1.71c0.22,0.02,0.34,0.05,0.34,0.05c3.93-1.65,9.91-4.18,9.91-4.18
		l-0.08-4.1c0.7,0.81,2.47,1.71,3.44,2.16c-2.23-1.21-4.67-4.45-4.67-4.45l-0.49-2.54c0,0-2.21-3.12-2.21-4.59
		c0-1.48,1.64-1.15,1.64-1.15c-0.57-3.77,0.74-8.11,0.74-8.11c1.96-4.54,6.34-5.2,8.25-5.26c1.91,0.06,6.3,0.72,8.24,5.26
		c0,0,1.31,4.34,0.74,8.11c0,0,1.64-0.33,1.64,1.15c0,1.47-2.21,4.59-2.21,4.59l-0.49,2.54c0,0-2.44,3.24-4.67,4.45
		c0.97-0.45,2.74-1.34,3.44-2.16l-0.08,4.1c0,0,5.98,2.53,9.91,4.18c0,0,0.13-0.03,0.35-0.05c0.53-0.51,3.49-4,9.6-1.71
		c1.04,0.4,1.47,1.05,3.07,0.78l-2.29,2.6c0,0,4.03-3.66,9.17-3.01c3.9,0.49,4.96,1.93,6.7,3.63l-1.47-2.35
		c1.41,0.48,2.36,0.85,3.6,1.98c0,0-1.25-1.5-2-6.91c-0.75-5.42-3.42-10.83-5.09-10.58c-1.67,0.25-1.63,1.43-3.2,0.51
		c0,0-1.01,0.41-1.64-0.44c0,0-0.57,0.94-1.81,0.11l-0.41-0.46c0,0-1.77,0.01-1.61-1.66c0.16-1.55,0.92-4.58,2.32-4.99
		c1.42-0.42,6.67-0.16,9.34,1.17c2.67,1.33,2.92,2.08,3.84,3.67c0.91,1.58,3.32,4.92,5.41,6.99c2.08,2.08,5.99,10.58,6.33,14.5
		C226.25,83.97,227.58,87.21,225.92,87.8z M178.14,98.03c0-2.67-1.21-5.04-3.11-6.63c1.77-2.28,2.3-4.18,1.57-5.64
		c-1.15-2.29-4.84-2.29-5.33-2.28h-3.02c-0.49-0.01-4.18-0.01-5.33,2.28c-0.7,1.41-0.24,3.21,1.38,5.38
		c-2.09,1.57-3.44,4.08-3.44,6.89c0,4.76,3.87,8.63,8.63,8.63C174.27,106.66,178.14,102.79,178.14,98.03z"/>
</g>
<g id="Layer_13">
</g>
<g id="Layer_14">
</g>
<g id="Layer_15">
</g>
<g id="Layer_11">
</g>
<g id="Layer_8">
</g>
<g id="Layer_10">
</g>
<g id="Layer_9">
</g>
<g id="Layer_2">
</g>
<g id="Layer_3">
</g>
<g id="Layer_4">
</g>
<g id="Layer_5">
</g>
<g id="Layer_6">
</g>
<g id="Layer_7">
</g>
</svg>
