<?xml version="1.0" encoding="utf-8"?>
<!-- Generator: Adobe Illustrator 27.8.1, SVG Export Plug-In . SVG Version: 6.00 Build 0)  -->
<svg version="1.1" xmlns="http://www.w3.org/2000/svg" xmlns:xlink="http://www.w3.org/1999/xlink" x="0px" y="0px"
	 viewBox="0 0 350 230" style="enable-background:new 0 0 350 230;" xml:space="preserve">
<style type="text/css">
	.st0{fill:#FF9D00;}
	.st1{fill:url(#SVGID_1_);}
	.st2{opacity:0.22;fill:url(#SVGID_00000039824500604757571910000009678101321108983201_);}
	.st3{fill:#FFC200;}
	.st4{fill:#778718;}
	.st5{fill:#E0B017;}
	.st6{fill:#664407;}
	.st7{fill:#9E690A;}
	.st8{fill:#7F1105;}
	.st9{fill:#191933;}
	.st10{fill:#FCEBD4;}
	.st11{fill:#E3DFD6;}
	.st12{fill:#FFB000;}
	.st13{fill:#AA210E;}
	.st14{fill:#FFF0A6;}
	.st15{fill:#FFDA00;}
	.st16{fill:#F4F4F4;}
	.st17{fill:#DC5C28;}
	.st18{fill:#FF8440;}
	.st19{fill:#C45224;}
	.st20{fill:#2C4369;}
	.st21{fill:#2A72DB;}
	.st22{fill:#C65500;}
	.st23{fill:#C15746;}
	.st24{fill:#FF8C00;}
	.st25{fill:#FFEA2C;}
	.st26{fill:#F7FF57;}
	.st27{fill:#FFFFFF;}
	.st28{fill:#D64949;}
	.st29{fill:#353535;}
	.st30{fill:#FFC783;}
	.st31{fill:#3F7F91;}
	.st32{fill:#25BDE5;}
	.st33{fill:#8CDD00;}
	.st34{fill:#D1FF88;}
	.st35{fill:#333333;}
	.st36{fill:#FF9000;}
	.st37{fill:#A1A813;}
	.st38{fill:#B3C40E;}
	.st39{fill:#CACE72;}
	.st40{fill:url(#SVGID_00000167363088144863506590000000587102801823211945_);}
	.st41{fill:#93E800;}
	.st42{fill:#3CB7D3;}
	.st43{fill:#FF7631;}
	.st44{fill:#E6873C;}
	.st45{fill:#30657F;}
	.st46{fill:#FF7A40;}
	.st47{fill:#FFAD4A;}
	.st48{fill:#BC8E3B;}
	.st49{fill:#E2E2E2;}
	.st50{fill:#F2B844;}
	.st51{fill:#AF3838;}
	.st52{fill:#17B5C1;}
	.st53{fill:#A88643;}
	.st54{fill-rule:evenodd;clip-rule:evenodd;fill:#DD7928;}
	.st55{fill:#E6E7E8;stroke:#CFCFCF;stroke-width:0.1061;}
	.st56{fill-rule:evenodd;clip-rule:evenodd;fill:#204F7A;}
	.st57{fill-rule:evenodd;clip-rule:evenodd;fill:#50A4FF;}
	.st58{fill:#002649;}
</style>
<g id="Layer_1">
</g>
<g id="Layer_12">
</g>
<g id="Layer_13">
	<polygon class="st6" points="85.52,162.5 85.52,166.68 79.12,166.68 	"/>
	<polygon class="st7" points="271.87,166.68 264.48,166.68 264.48,162.61 	"/>
	<path class="st8" d="M82.52,157.56l-14.41,9.12v30.1H48.14l8.8-19.62l-8.8-19.6H82.52z M79.12,166.68h6.4v-4.18L79.12,166.68z
		 M79.12,166.68h6.4v-4.18L79.12,166.68z M301.86,157.56H267l14.9,9.12v30.1h19.96l-8.81-19.62L301.86,157.56z M264.48,162.61v4.07
		h7.39L264.48,162.61z"/>
	<path class="st9" d="M173.25,63.82c0.43,0.15,0.96,0.45,1.46,0.79c-0.14,0.89-0.65,1.75-1.5,3.33c-0.19,0.36-0.67,1.21-1.2,2.14
		c-0.4-0.19-0.85-0.17-1.11-0.06c-0.26,0.08-0.39,0.21-0.39,0.21s0.18,0,0.43,0.06c0.22,0.03,0.53,0.13,0.81,0.26
		c-0.64,1.13-1.31,2.3-1.67,2.94c-0.57,0.96-1.52,2.06-2.55,2.62c-0.17-0.14-0.32-0.31-0.46-0.42c-0.13-0.17-0.11-0.19,0.01-0.4
		c0.13-0.17,0.32-0.39,0.49-0.63c0.71-0.84,1.23-1.74,1.71-2.23c0.25-0.22,0.49-0.38,0.68-0.45c0.19-0.07,0.31-0.07,0.31-0.07
		s-0.11-0.03-0.32-0.01c-0.21,0.04-0.52,0.11-0.85,0.33c-0.64,0.45-1.24,1.25-1.95,2.12c-0.18,0.22-0.33,0.4-0.52,0.67
		c-0.07,0.13-0.14,0.29-0.14,0.5c0.03,0.19,0.14,0.38,0.25,0.47c0.14,0.11,0.28,0.22,0.4,0.31c-1.03,0.42-2.12,0.28-2.94-1.07
		c0.21-0.32,0.28-0.46,0.45-0.84c0.28-0.7,0.46-1.75,0.49-2.48c2.52,0.46,3.83-0.22,4.93-2.81c1.17-2.81,1.14-5.07,0.53-7.45
		c1.04-1.14,1.74-2.44,2.12-3.8c0.31,0.88,0.65,1.75,0.99,2.6c0.68,1.73,1.02,2.73,1.04,3.56c-0.53-0.28-1.03-0.4-1.43-0.46
		c-0.56-0.07-0.89,0-0.89,0S172.76,63.64,173.25,63.82z"/>
	<path class="st9" d="M238.3,153.95c-4.45-6.53-10.12-11.18-16.62-15.27c-7.2-4.52-16.37-5.35-25.34-4.29
		c-7.43,0.86-15.27,3.47-21.73,7.1c-3.52,1.98-9.65,6.45-10.02,6.72c0.17-0.26,1.61-2.28,3.27-3.86c-0.79,0.06-1.59,0.04-2.34-0.03
		c-1-0.07-1.91-0.17-2.78-0.19c-0.88-0.06-1.74-0.06-2.55-0.03c-1.64,0.06-3.12,0.22-4.34,0.43c-1.25,0.21-2.26,0.46-2.94,0.63
		c-0.71,0.19-1.09,0.31-1.09,0.31s0.33-0.24,0.96-0.6c0.61-0.38,1.55-0.88,2.78-1.36c1.21-0.47,2.71-0.92,4.44-1.18
		c0.88-0.15,1.8-0.22,2.74-0.24c0.58-0.01,1.17,0,1.74,0.04c-5.83-1.03-11.03-0.77-16.65,0.89c-1.2,0.35-3.49,1.16-3.77,1.25
		c0.29-0.21,2.71-1.88,4.37-2.46c0.14-1.98,0.14-23.81-1.77-35.33c-1.03-6.08-3.58-13.57-3.2-20.66c-0.25,1.38-0.46,2.59-0.63,3.61
		c-0.26,1.78-0.42,2.88-0.42,2.88s-0.13-1.1-0.1-2.94c0.01-1.53,0.14-3.56,0.49-5.79c-0.19,0.63-0.4,1.29-0.57,1.98
		c-1.16,4.47-1.11,8.76-0.97,11.81c0.07,1.53,0.22,2.77,0.35,3.62c0.14,0.85,0.25,1.32,0.25,1.32s-0.18-0.45-0.4-1.28
		c-0.24-0.85-0.52-2.06-0.72-3.61c-0.24-1.53-0.38-3.4-0.38-5.46c0.04-2.06,0.24-4.34,0.85-6.68c0.11-0.36,0.21-0.75,0.32-1.13
		c-0.92,1.35-1.63,2.6-2.12,3.62c-0.58,1.2-0.88,1.99-0.88,1.99s0.03-0.84,0.39-2.16c0.32-1.32,1.06-3.15,2.27-4.84
		c0.57-0.84,1.13-1.61,1.5-2.35c0.17-0.32,0.31-0.63,0.43-0.93c0.01-0.1,0.04-0.21,0.08-0.29l0.07-0.24
		c0.04-0.1,0.06-0.13,0.08-0.29c0.11-0.42,0.19-0.81,0.31-1.21c-0.61-1.74-0.84-3.81-0.21-5.21c0.82-1.91,2.12-2,3.29-1.87
		c0.03,0.01,0.08,0.01,0.13,0.03c-0.17-0.17-0.32-0.36-0.47-0.57c-0.45-0.58-0.72-1.21-0.86-1.67c-0.17-0.46-0.18-0.78-0.18-0.78
		s0.18,0.28,0.4,0.65c0.26,0.4,0.64,0.92,1.06,1.48c0.08,0.14,0.18,0.25,0.26,0.38c-0.57-1.56-0.84-2.99-0.97-4.07
		c-0.14-1.1-0.15-1.77-0.15-1.77s0.28,0.63,0.68,1.64c0.39,1.02,0.92,2.41,1.48,3.94c0.58,1.52,1.17,2.84,1.67,3.8
		c0.25,0.47,0.47,0.86,0.64,1.13c0.13,0.18,0.19,0.33,0.22,0.38c-0.06-0.03-0.17-0.14-0.35-0.28c-0.25-0.19-0.58-0.51-0.95-0.92
		c-0.1-0.1-0.18-0.22-0.26-0.33c0.03,0.51-0.01,0.97-0.01,0.97s-0.4-0.72-0.58-1.13c-0.42-0.89-0.88-1.81-1.85-1.96
		c-1.31-0.22-2.1,0.74-2.34,1.7c-0.4,1.78,0.06,3.59,0.9,5.21c1,1.99,2.46,2.99,4.51,2.74c2.46-0.28,3.93-1.03,6.06-2.23
		c4.54-2.51,2.1-5.93,0.58-9.61c-1.29-3.09-3.3-8.62-4.91-11.58c-1.81-3.31-4.4-2.33-7.38-1.06c-0.85,0.35-2.77,1.13-3.01,1.21
		c0.18-0.18,1.7-1.6,2.81-2.12c2-0.96,4.36-1.63,6.01-1.04c1.95,0.71,2.62,2.97,3.47,4.69c1.63,3.37,2.95,6.89,4.39,10.36
		c0.67,1.56,2.26,4,2.34,5.97c2.78-0.03,3.95-1.89,3.93-4.37c-0.11,0.1-0.21,0.21-0.31,0.29c-0.35,0.32-0.68,0.57-1,0.72
		c-0.52,0.31-0.9,0.43-1,0.46c0.06-0.07,0.32-0.4,0.67-0.85c0.19-0.26,0.43-0.57,0.65-0.93c0.25-0.33,0.5-0.7,0.61-1.04
		c0.07-0.25,0.1-0.56,0.11-0.86c-0.85-4-3.33-8.59-4-10.08c-1.55-3.52-3.36-8.07-6.25-9.15c-2.14-0.81-5.87,0.31-8.42,0.78
		c-0.03,0-0.03-0.03,0-0.04c2.65-1.29,7.39-2.97,10.11-1.39c1.61,0.93,3.2,3.45,3.9,5.07c0.99,2.31,2.14,4.73,3.08,7.06
		c1.1,2.7,2.84,6.25,3.15,9.56c3.56,0.61,4.47-2.71,4.37-6.04c-0.36,0.67-0.79,1.2-1.2,1.53c-0.57,0.53-1.02,0.77-1.13,0.81
		c0.07-0.08,0.35-0.5,0.72-1.14c0.4-0.7,0.88-1.7,1.1-2.83c0.11-0.52,0.14-1,0.13-1.48c-0.14-0.71-0.32-1.32-0.5-1.8
		c-2.12-5.5-4.59-11.04-7.21-13.32c-1.7-1.46-3.1-1.8-4.84-1.77c-0.81,0-3.42,0.14-3.42,0.14s1.68-0.7,3.9-0.85
		c0.22,0,0.39,0.01,0.6,0c-0.47-0.17-0.9-0.26-1.28-0.32c-0.53-0.07-0.86-0.07-0.86-0.07s0.32-0.14,0.88-0.19
		c0.56-0.06,1.38,0,2.17,0.39c0.21,0.1,0.4,0.22,0.57,0.33c5.42,1.04,7.57,7.92,9.86,13.46c0.32,0.78,0.61,1.53,0.88,2.26
		c1.27-1.35,1.73-3.29,1.63-5.39c-0.08,0.18-0.17,0.33-0.28,0.47c-0.24,0.33-0.49,0.58-0.68,0.72c-0.13,0.11-0.22,0.17-0.26,0.18
		c0.06-0.11,0.28-0.51,0.47-1.14c0.24-0.72,0.33-1.73,0.26-2.85c-0.03-0.35-0.06-0.7-0.08-1.03c-0.54-2.03-1.45-3.98-2.45-5.51
		c-1.28-1.94-3.06-3.98-4.97-5.3c0.08,0.13,0.15,0.26,0.21,0.39c0.14,0.29,0.17,0.54,0.19,0.71c0,0.18,0,0.26,0,0.26
		s-0.21-0.33-0.61-0.67c-0.43-0.35-1.06-0.64-1.77-0.77c-0.74-0.14-1.48-0.1-2.03-0.03c-0.57,0.08-0.93,0.17-0.93,0.17
		s0.22-0.32,0.75-0.65c0-0.01,0.01-0.01,0.01-0.01c-3.95,0.56-10.39,3.04-19.46,7.1c-4.86,2.17-7.77,7.73-10.9,11.88
		c-2.71,3.56-5.54,7.1-7.77,11c-1.21,2.1-1.92,4.25-2.38,6.46c0.06,1.13,0.28,2.35,0.6,3.63c0.68,2.83,1.48,5.35,2.09,7.17
		c0.63,1.82,1.04,2.95,1.04,2.95s-0.67-1-1.53-2.74c-0.79-1.57-1.73-3.74-2.42-6.28c0.15,2.63,0.64,5.15,1.07,7.48
		c0.49,2.6,0.9,4.96,1.07,6.97c0.19,2,0.08,3.65,0,4.76c-0.18,1.11-0.26,1.73-0.26,1.73s0.03-0.63,0.08-1.74
		c0-1.1-0.03-2.73-0.35-4.69c-0.31-1.98-0.82-4.27-1.42-6.84c-0.32-1.49-0.67-3.05-0.93-4.71c-0.04,0.45-0.1,0.9-0.13,1.36
		c-0.71,7.36-3.06,14.38-5.69,21.26c-1.27,3.88-2.49,7.77-3.37,11.74c-2.31,10.62-2.87,21.58-1.49,32.37
		c0.68,5.39,1.82,10.73,3.4,15.95c0.04,0.14,0.08,0.29,0.14,0.45h131.98C242.31,162.15,241.02,157.92,238.3,153.95z M238.3,153.95
		c-4.45-6.53-10.12-11.18-16.62-15.27c-7.2-4.52-16.37-5.35-25.34-4.29c-7.43,0.86-15.27,3.47-21.73,7.1
		c-3.52,1.98-9.65,6.45-10.02,6.72c0.17-0.26,1.61-2.28,3.27-3.86c-0.79,0.06-1.59,0.04-2.34-0.03c-1-0.07-1.91-0.17-2.78-0.19
		c-0.88-0.06-1.74-0.06-2.55-0.03c-1.64,0.06-3.12,0.22-4.34,0.43c-1.25,0.21-2.26,0.46-2.94,0.63c-0.71,0.19-1.09,0.31-1.09,0.31
		s0.33-0.24,0.96-0.6c0.61-0.38,1.55-0.88,2.78-1.36c1.21-0.47,2.71-0.92,4.44-1.18c0.88-0.15,1.8-0.22,2.74-0.24
		c0.58-0.01,1.17,0,1.74,0.04c-5.83-1.03-11.03-0.77-16.65,0.89c-1.2,0.35-3.49,1.16-3.77,1.25c0.29-0.21,2.71-1.88,4.37-2.46
		c0.14-1.98,0.14-23.81-1.77-35.33c-1.03-6.08-3.58-13.57-3.2-20.66c-0.25,1.38-0.46,2.59-0.63,3.61c-0.26,1.78-0.42,2.88-0.42,2.88
		s-0.13-1.1-0.1-2.94c0.01-1.53,0.14-3.56,0.49-5.79c-0.19,0.63-0.4,1.29-0.57,1.98c-1.16,4.47-1.11,8.76-0.97,11.81
		c0.07,1.53,0.22,2.77,0.35,3.62c0.14,0.85,0.25,1.32,0.25,1.32s-0.18-0.45-0.4-1.28c-0.24-0.85-0.52-2.06-0.72-3.61
		c-0.24-1.53-0.38-3.4-0.38-5.46c0.04-2.06,0.24-4.34,0.85-6.68c0.11-0.36,0.21-0.75,0.32-1.13c-0.92,1.35-1.63,2.6-2.12,3.62
		c-0.58,1.2-0.88,1.99-0.88,1.99s0.03-0.84,0.39-2.16c0.32-1.32,1.06-3.15,2.27-4.84c0.57-0.84,1.13-1.61,1.5-2.35
		c0.17-0.32,0.31-0.63,0.43-0.93c0.01-0.1,0.04-0.21,0.08-0.29l0.07-0.24c0.04-0.1,0.06-0.13,0.08-0.29
		c0.11-0.42,0.19-0.81,0.31-1.21c-0.61-1.74-0.84-3.81-0.21-5.21c0.82-1.91,2.12-2,3.29-1.87c0.03,0.01,0.08,0.01,0.13,0.03
		c-0.17-0.17-0.32-0.36-0.47-0.57c-0.45-0.58-0.72-1.21-0.86-1.67c-0.17-0.46-0.18-0.78-0.18-0.78s0.18,0.28,0.4,0.65
		c0.26,0.4,0.64,0.92,1.06,1.48c0.08,0.14,0.18,0.25,0.26,0.38c-0.57-1.56-0.84-2.99-0.97-4.07c-0.14-1.1-0.15-1.77-0.15-1.77
		s0.28,0.63,0.68,1.64c0.39,1.02,0.92,2.41,1.48,3.94c0.58,1.52,1.17,2.84,1.67,3.8c0.25,0.47,0.47,0.86,0.64,1.13
		c0.13,0.18,0.19,0.33,0.22,0.38c-0.06-0.03-0.17-0.14-0.35-0.28c-0.25-0.19-0.58-0.51-0.95-0.92c-0.1-0.1-0.18-0.22-0.26-0.33
		c0.03,0.51-0.01,0.97-0.01,0.97s-0.4-0.72-0.58-1.13c-0.42-0.89-0.88-1.81-1.85-1.96c-1.31-0.22-2.1,0.74-2.34,1.7
		c-0.4,1.78,0.06,3.59,0.9,5.21c1,1.99,2.46,2.99,4.51,2.74c2.46-0.28,3.93-1.03,6.06-2.23c4.54-2.51,2.1-5.93,0.58-9.61
		c-1.29-3.09-3.3-8.62-4.91-11.58c-1.81-3.31-4.4-2.33-7.38-1.06c-0.85,0.35-2.77,1.13-3.01,1.21c0.18-0.18,1.7-1.6,2.81-2.12
		c2-0.96,4.36-1.63,6.01-1.04c1.95,0.71,2.62,2.97,3.47,4.69c1.63,3.37,2.95,6.89,4.39,10.36c0.67,1.56,2.26,4,2.34,5.97
		c2.78-0.03,3.95-1.89,3.93-4.37c-0.11,0.1-0.21,0.21-0.31,0.29c-0.35,0.32-0.68,0.57-1,0.72c-0.52,0.31-0.9,0.43-1,0.46
		c0.06-0.07,0.32-0.4,0.67-0.85c0.19-0.26,0.43-0.57,0.65-0.93c0.25-0.33,0.5-0.7,0.61-1.04c0.07-0.25,0.1-0.56,0.11-0.86
		c-0.85-4-3.33-8.59-4-10.08c-1.55-3.52-3.36-8.07-6.25-9.15c-2.14-0.81-5.87,0.31-8.42,0.78c-0.03,0-0.03-0.03,0-0.04
		c2.65-1.29,7.39-2.97,10.11-1.39c1.61,0.93,3.2,3.45,3.9,5.07c0.99,2.31,2.14,4.73,3.08,7.06c1.1,2.7,2.84,6.25,3.15,9.56
		c3.56,0.61,4.47-2.71,4.37-6.04c-0.36,0.67-0.79,1.2-1.2,1.53c-0.57,0.53-1.02,0.77-1.13,0.81c0.07-0.08,0.35-0.5,0.72-1.14
		c0.4-0.7,0.88-1.7,1.1-2.83c0.11-0.52,0.14-1,0.13-1.48c-0.14-0.71-0.32-1.32-0.5-1.8c-2.12-5.5-4.59-11.04-7.21-13.32
		c-1.7-1.46-3.1-1.8-4.84-1.77c-0.81,0-3.42,0.14-3.42,0.14s1.68-0.7,3.9-0.85c0.22,0,0.39,0.01,0.6,0
		c-0.47-0.17-0.9-0.26-1.28-0.32c-0.53-0.07-0.86-0.07-0.86-0.07s0.32-0.14,0.88-0.19c0.56-0.06,1.38,0,2.17,0.39
		c0.21,0.1,0.4,0.22,0.57,0.33c5.42,1.04,7.57,7.92,9.86,13.46c0.32,0.78,0.61,1.53,0.88,2.26c1.27-1.35,1.73-3.29,1.63-5.39
		c-0.08,0.18-0.17,0.33-0.28,0.47c-0.24,0.33-0.49,0.58-0.68,0.72c-0.13,0.11-0.22,0.17-0.26,0.18c0.06-0.11,0.28-0.51,0.47-1.14
		c0.24-0.72,0.33-1.73,0.26-2.85c-0.03-0.35-0.06-0.7-0.08-1.03c-0.54-2.03-1.45-3.98-2.45-5.51c-1.28-1.94-3.06-3.98-4.97-5.3
		c0.08,0.13,0.15,0.26,0.21,0.39c0.14,0.29,0.17,0.54,0.19,0.71c0,0.18,0,0.26,0,0.26s-0.21-0.33-0.61-0.67
		c-0.43-0.35-1.06-0.64-1.77-0.77c-0.74-0.14-1.48-0.1-2.03-0.03c-0.57,0.08-0.93,0.17-0.93,0.17s0.22-0.32,0.75-0.65
		c0-0.01,0.01-0.01,0.01-0.01c-3.95,0.56-10.39,3.04-19.46,7.1c-4.86,2.17-7.77,7.73-10.9,11.88c-2.71,3.56-5.54,7.1-7.77,11
		c-1.21,2.1-1.92,4.25-2.38,6.46c0.06,1.13,0.28,2.35,0.6,3.63c0.68,2.83,1.48,5.35,2.09,7.17c0.63,1.82,1.04,2.95,1.04,2.95
		s-0.67-1-1.53-2.74c-0.79-1.57-1.73-3.74-2.42-6.28c0.15,2.63,0.64,5.15,1.07,7.48c0.49,2.6,0.9,4.96,1.07,6.97
		c0.19,2,0.08,3.65,0,4.76c-0.18,1.11-0.26,1.73-0.26,1.73s0.03-0.63,0.08-1.74c0-1.1-0.03-2.73-0.35-4.69
		c-0.31-1.98-0.82-4.27-1.42-6.84c-0.32-1.49-0.67-3.05-0.93-4.71c-0.04,0.45-0.1,0.9-0.13,1.36c-0.71,7.36-3.06,14.38-5.69,21.26
		c-1.27,3.88-2.49,7.77-3.37,11.74c-2.31,10.62-2.87,21.58-1.49,32.37c0.68,5.39,1.82,10.73,3.4,15.95
		c0.04,0.14,0.08,0.29,0.14,0.45h131.98C242.31,162.15,241.02,157.92,238.3,153.95z M238.3,153.95
		c-4.45-6.53-10.12-11.18-16.62-15.27c-7.2-4.52-16.37-5.35-25.34-4.29c-7.43,0.86-15.27,3.47-21.73,7.1
		c-3.52,1.98-9.65,6.45-10.02,6.72c0.17-0.26,1.61-2.28,3.27-3.86c-0.79,0.06-1.59,0.04-2.34-0.03c-1-0.07-1.91-0.17-2.78-0.19
		c-0.88-0.06-1.74-0.06-2.55-0.03c-1.64,0.06-3.12,0.22-4.34,0.43c-1.25,0.21-2.26,0.46-2.94,0.63c-0.71,0.19-1.09,0.31-1.09,0.31
		s0.33-0.24,0.96-0.6c0.61-0.38,1.55-0.88,2.78-1.36c1.21-0.47,2.71-0.92,4.44-1.18c0.88-0.15,1.8-0.22,2.74-0.24
		c0.58-0.01,1.17,0,1.74,0.04c-5.83-1.03-11.03-0.77-16.65,0.89c-1.2,0.35-3.49,1.16-3.77,1.25c0.29-0.21,2.71-1.88,4.37-2.46
		c0.14-1.98,0.14-23.81-1.77-35.33c-1.03-6.08-3.58-13.57-3.2-20.66c-0.25,1.38-0.46,2.59-0.63,3.61c-0.26,1.78-0.42,2.88-0.42,2.88
		s-0.13-1.1-0.1-2.94c0.01-1.53,0.14-3.56,0.49-5.79c-0.19,0.63-0.4,1.29-0.57,1.98c-1.16,4.47-1.11,8.76-0.97,11.81
		c0.07,1.53,0.22,2.77,0.35,3.62c0.14,0.85,0.25,1.32,0.25,1.32s-0.18-0.45-0.4-1.28c-0.24-0.85-0.52-2.06-0.72-3.61
		c-0.24-1.53-0.38-3.4-0.38-5.46c0.04-2.06,0.24-4.34,0.85-6.68c0.11-0.36,0.21-0.75,0.32-1.13c-0.92,1.35-1.63,2.6-2.12,3.62
		c-0.58,1.2-0.88,1.99-0.88,1.99s0.03-0.84,0.39-2.16c0.32-1.32,1.06-3.15,2.27-4.84c0.57-0.84,1.13-1.61,1.5-2.35
		c0.17-0.32,0.31-0.63,0.43-0.93c0.01-0.1,0.04-0.21,0.08-0.29l0.07-0.24c0.04-0.1,0.06-0.13,0.08-0.29
		c0.11-0.42,0.19-0.81,0.31-1.21c-0.61-1.74-0.84-3.81-0.21-5.21c0.82-1.91,2.12-2,3.29-1.87c0.03,0.01,0.08,0.01,0.13,0.03
		c-0.17-0.17-0.32-0.36-0.47-0.57c-0.45-0.58-0.72-1.21-0.86-1.67c-0.17-0.46-0.18-0.78-0.18-0.78s0.18,0.28,0.4,0.65
		c0.26,0.4,0.64,0.92,1.06,1.48c0.08,0.14,0.18,0.25,0.26,0.38c-0.57-1.56-0.84-2.99-0.97-4.07c-0.14-1.1-0.15-1.77-0.15-1.77
		s0.28,0.63,0.68,1.64c0.39,1.02,0.92,2.41,1.48,3.94c0.58,1.52,1.17,2.84,1.67,3.8c0.25,0.47,0.47,0.86,0.64,1.13
		c0.13,0.18,0.19,0.33,0.22,0.38c-0.06-0.03-0.17-0.14-0.35-0.28c-0.25-0.19-0.58-0.51-0.95-0.92c-0.1-0.1-0.18-0.22-0.26-0.33
		c0.03,0.51-0.01,0.97-0.01,0.97s-0.4-0.72-0.58-1.13c-0.42-0.89-0.88-1.81-1.85-1.96c-1.31-0.22-2.1,0.74-2.34,1.7
		c-0.4,1.78,0.06,3.59,0.9,5.21c1,1.99,2.46,2.99,4.51,2.74c2.46-0.28,3.93-1.03,6.06-2.23c4.54-2.51,2.1-5.93,0.58-9.61
		c-1.29-3.09-3.3-8.62-4.91-11.58c-1.81-3.31-4.4-2.33-7.38-1.06c-0.85,0.35-2.77,1.13-3.01,1.21c0.18-0.18,1.7-1.6,2.81-2.12
		c2-0.96,4.36-1.63,6.01-1.04c1.95,0.71,2.62,2.97,3.47,4.69c1.63,3.37,2.95,6.89,4.39,10.36c0.67,1.56,2.26,4,2.34,5.97
		c2.78-0.03,3.95-1.89,3.93-4.37c-0.11,0.1-0.21,0.21-0.31,0.29c-0.35,0.32-0.68,0.57-1,0.72c-0.52,0.31-0.9,0.43-1,0.46
		c0.06-0.07,0.32-0.4,0.67-0.85c0.19-0.26,0.43-0.57,0.65-0.93c0.25-0.33,0.5-0.7,0.61-1.04c0.07-0.25,0.1-0.56,0.11-0.86
		c-0.85-4-3.33-8.59-4-10.08c-1.55-3.52-3.36-8.07-6.25-9.15c-2.14-0.81-5.87,0.31-8.42,0.78c-0.03,0-0.03-0.03,0-0.04
		c2.65-1.29,7.39-2.97,10.11-1.39c1.61,0.93,3.2,3.45,3.9,5.07c0.99,2.31,2.14,4.73,3.08,7.06c1.1,2.7,2.84,6.25,3.15,9.56
		c3.56,0.61,4.47-2.71,4.37-6.04c-0.36,0.67-0.79,1.2-1.2,1.53c-0.57,0.53-1.02,0.77-1.13,0.81c0.07-0.08,0.35-0.5,0.72-1.14
		c0.4-0.7,0.88-1.7,1.1-2.83c0.11-0.52,0.14-1,0.13-1.48c-0.14-0.71-0.32-1.32-0.5-1.8c-2.12-5.5-4.59-11.04-7.21-13.32
		c-1.7-1.46-3.1-1.8-4.84-1.77c-0.81,0-3.42,0.14-3.42,0.14s1.68-0.7,3.9-0.85c0.22,0,0.39,0.01,0.6,0
		c-0.47-0.17-0.9-0.26-1.28-0.32c-0.53-0.07-0.86-0.07-0.86-0.07s0.32-0.14,0.88-0.19c0.56-0.06,1.38,0,2.17,0.39
		c0.21,0.1,0.4,0.22,0.57,0.33c5.42,1.04,7.57,7.92,9.86,13.46c0.32,0.78,0.61,1.53,0.88,2.26c1.27-1.35,1.73-3.29,1.63-5.39
		c-0.08,0.18-0.17,0.33-0.28,0.47c-0.24,0.33-0.49,0.58-0.68,0.72c-0.13,0.11-0.22,0.17-0.26,0.18c0.06-0.11,0.28-0.51,0.47-1.14
		c0.24-0.72,0.33-1.73,0.26-2.85c-0.03-0.35-0.06-0.7-0.08-1.03c-0.54-2.03-1.45-3.98-2.45-5.51c-1.28-1.94-3.06-3.98-4.97-5.3
		c0.08,0.13,0.15,0.26,0.21,0.39c0.14,0.29,0.17,0.54,0.19,0.71c0,0.18,0,0.26,0,0.26s-0.21-0.33-0.61-0.67
		c-0.43-0.35-1.06-0.64-1.77-0.77c-0.74-0.14-1.48-0.1-2.03-0.03c-0.57,0.08-0.93,0.17-0.93,0.17s0.22-0.32,0.75-0.65
		c0-0.01,0.01-0.01,0.01-0.01c-3.95,0.56-10.39,3.04-19.46,7.1c-4.86,2.17-7.77,7.73-10.9,11.88c-2.71,3.56-5.54,7.1-7.77,11
		c-1.21,2.1-1.92,4.25-2.38,6.46c0.06,1.13,0.28,2.35,0.6,3.63c0.68,2.83,1.48,5.35,2.09,7.17c0.63,1.82,1.04,2.95,1.04,2.95
		s-0.67-1-1.53-2.74c-0.79-1.57-1.73-3.74-2.42-6.28c0.15,2.63,0.64,5.15,1.07,7.48c0.49,2.6,0.9,4.96,1.07,6.97
		c0.19,2,0.08,3.65,0,4.76c-0.18,1.11-0.26,1.73-0.26,1.73s0.03-0.63,0.08-1.74c0-1.1-0.03-2.73-0.35-4.69
		c-0.31-1.98-0.82-4.27-1.42-6.84c-0.32-1.49-0.67-3.05-0.93-4.71c-0.04,0.45-0.1,0.9-0.13,1.36c-0.71,7.36-3.06,14.38-5.69,21.26
		c-1.27,3.88-2.49,7.77-3.37,11.74c-2.31,10.62-2.87,21.58-1.49,32.37c0.68,5.39,1.82,10.73,3.4,15.95
		c0.04,0.14,0.08,0.29,0.14,0.45h131.98C242.31,162.15,241.02,157.92,238.3,153.95z M238.3,153.95
		c-4.45-6.53-10.12-11.18-16.62-15.27c-7.2-4.52-16.37-5.35-25.34-4.29c-7.43,0.86-15.27,3.47-21.73,7.1
		c-3.52,1.98-9.65,6.45-10.02,6.72c0.17-0.26,1.61-2.28,3.27-3.86c-0.79,0.06-1.59,0.04-2.34-0.03c-1-0.07-1.91-0.17-2.78-0.19
		c-0.88-0.06-1.74-0.06-2.55-0.03c-1.64,0.06-3.12,0.22-4.34,0.43c-1.25,0.21-2.26,0.46-2.94,0.63c-0.71,0.19-1.09,0.31-1.09,0.31
		s0.33-0.24,0.96-0.6c0.61-0.38,1.55-0.88,2.78-1.36c1.21-0.47,2.71-0.92,4.44-1.18c0.88-0.15,1.8-0.22,2.74-0.24
		c0.58-0.01,1.17,0,1.74,0.04c-5.83-1.03-11.03-0.77-16.65,0.89c-1.2,0.35-3.49,1.16-3.77,1.25c0.29-0.21,2.71-1.88,4.37-2.46
		c0.14-1.98,0.14-23.81-1.77-35.33c-1.03-6.08-3.58-13.57-3.2-20.66c-0.25,1.38-0.46,2.59-0.63,3.61c-0.26,1.78-0.42,2.88-0.42,2.88
		s-0.13-1.1-0.1-2.94c0.01-1.53,0.14-3.56,0.49-5.79c-0.19,0.63-0.4,1.29-0.57,1.98c-1.16,4.47-1.11,8.76-0.97,11.81
		c0.07,1.53,0.22,2.77,0.35,3.62c0.14,0.85,0.25,1.32,0.25,1.32s-0.18-0.45-0.4-1.28c-0.24-0.85-0.52-2.06-0.72-3.61
		c-0.24-1.53-0.38-3.4-0.38-5.46c0.04-2.06,0.24-4.34,0.85-6.68c0.11-0.36,0.21-0.75,0.32-1.13c-0.92,1.35-1.63,2.6-2.12,3.62
		c-0.58,1.2-0.88,1.99-0.88,1.99s0.03-0.84,0.39-2.16c0.32-1.32,1.06-3.15,2.27-4.84c0.57-0.84,1.13-1.61,1.5-2.35
		c0.17-0.32,0.31-0.63,0.43-0.93c0.01-0.1,0.04-0.21,0.08-0.29l0.07-0.24c0.04-0.1,0.06-0.13,0.08-0.29
		c0.11-0.42,0.19-0.81,0.31-1.21c-0.61-1.74-0.84-3.81-0.21-5.21c0.82-1.91,2.12-2,3.29-1.87c0.03,0.01,0.08,0.01,0.13,0.03
		c-0.17-0.17-0.32-0.36-0.47-0.57c-0.45-0.58-0.72-1.21-0.86-1.67c-0.17-0.46-0.18-0.78-0.18-0.78s0.18,0.28,0.4,0.65
		c0.26,0.4,0.64,0.92,1.06,1.48c0.08,0.14,0.18,0.25,0.26,0.38c-0.57-1.56-0.84-2.99-0.97-4.07c-0.14-1.1-0.15-1.77-0.15-1.77
		s0.28,0.63,0.68,1.64c0.39,1.02,0.92,2.41,1.48,3.94c0.58,1.52,1.17,2.84,1.67,3.8c0.25,0.47,0.47,0.86,0.64,1.13
		c0.13,0.18,0.19,0.33,0.22,0.38c-0.06-0.03-0.17-0.14-0.35-0.28c-0.25-0.19-0.58-0.51-0.95-0.92c-0.1-0.1-0.18-0.22-0.26-0.33
		c0.03,0.51-0.01,0.97-0.01,0.97s-0.4-0.72-0.58-1.13c-0.42-0.89-0.88-1.81-1.85-1.96c-1.31-0.22-2.1,0.74-2.34,1.7
		c-0.4,1.78,0.06,3.59,0.9,5.21c1,1.99,2.46,2.99,4.51,2.74c2.46-0.28,3.93-1.03,6.06-2.23c4.54-2.51,2.1-5.93,0.58-9.61
		c-1.29-3.09-3.3-8.62-4.91-11.58c-1.81-3.31-4.4-2.33-7.38-1.06c-0.85,0.35-2.77,1.13-3.01,1.21c0.18-0.18,1.7-1.6,2.81-2.12
		c2-0.96,4.36-1.63,6.01-1.04c1.95,0.71,2.62,2.97,3.47,4.69c1.63,3.37,2.95,6.89,4.39,10.36c0.67,1.56,2.26,4,2.34,5.97
		c2.78-0.03,3.95-1.89,3.93-4.37c-0.11,0.1-0.21,0.21-0.31,0.29c-0.35,0.32-0.68,0.57-1,0.72c-0.52,0.31-0.9,0.43-1,0.46
		c0.06-0.07,0.32-0.4,0.67-0.85c0.19-0.26,0.43-0.57,0.65-0.93c0.25-0.33,0.5-0.7,0.61-1.04c0.07-0.25,0.1-0.56,0.11-0.86
		c-0.85-4-3.33-8.59-4-10.08c-1.55-3.52-3.36-8.07-6.25-9.15c-2.14-0.81-5.87,0.31-8.42,0.78c-0.03,0-0.03-0.03,0-0.04
		c2.65-1.29,7.39-2.97,10.11-1.39c1.61,0.93,3.2,3.45,3.9,5.07c0.99,2.31,2.14,4.73,3.08,7.06c1.1,2.7,2.84,6.25,3.15,9.56
		c3.56,0.61,4.47-2.71,4.37-6.04c-0.36,0.67-0.79,1.2-1.2,1.53c-0.57,0.53-1.02,0.77-1.13,0.81c0.07-0.08,0.35-0.5,0.72-1.14
		c0.4-0.7,0.88-1.7,1.1-2.83c0.11-0.52,0.14-1,0.13-1.48c-0.14-0.71-0.32-1.32-0.5-1.8c-2.12-5.5-4.59-11.04-7.21-13.32
		c-1.7-1.46-3.1-1.8-4.84-1.77c-0.81,0-3.42,0.14-3.42,0.14s1.68-0.7,3.9-0.85c0.22,0,0.39,0.01,0.6,0
		c-0.47-0.17-0.9-0.26-1.28-0.32c-0.53-0.07-0.86-0.07-0.86-0.07s0.32-0.14,0.88-0.19c0.56-0.06,1.38,0,2.17,0.39
		c0.21,0.1,0.4,0.22,0.57,0.33c5.42,1.04,7.57,7.92,9.86,13.46c0.32,0.78,0.61,1.53,0.88,2.26c1.27-1.35,1.73-3.29,1.63-5.39
		c-0.08,0.18-0.17,0.33-0.28,0.47c-0.24,0.33-0.49,0.58-0.68,0.72c-0.13,0.11-0.22,0.17-0.26,0.18c0.06-0.11,0.28-0.51,0.47-1.14
		c0.24-0.72,0.33-1.73,0.26-2.85c-0.03-0.35-0.06-0.7-0.08-1.03c-0.54-2.03-1.45-3.98-2.45-5.51c-1.28-1.94-3.06-3.98-4.97-5.3
		c0.08,0.13,0.15,0.26,0.21,0.39c0.14,0.29,0.17,0.54,0.19,0.71c0,0.18,0,0.26,0,0.26s-0.21-0.33-0.61-0.67
		c-0.43-0.35-1.06-0.64-1.77-0.77c-0.74-0.14-1.48-0.1-2.03-0.03c-0.57,0.08-0.93,0.17-0.93,0.17s0.22-0.32,0.75-0.65
		c0-0.01,0.01-0.01,0.01-0.01c-3.95,0.56-10.39,3.04-19.46,7.1c-4.86,2.17-7.77,7.73-10.9,11.88c-2.71,3.56-5.54,7.1-7.77,11
		c-1.21,2.1-1.92,4.25-2.38,6.46c0.06,1.13,0.28,2.35,0.6,3.63c0.68,2.83,1.48,5.35,2.09,7.17c0.63,1.82,1.04,2.95,1.04,2.95
		s-0.67-1-1.53-2.74c-0.79-1.57-1.73-3.74-2.42-6.28c0.15,2.63,0.64,5.15,1.07,7.48c0.49,2.6,0.9,4.96,1.07,6.97
		c0.19,2,0.08,3.65,0,4.76c-0.18,1.11-0.26,1.73-0.26,1.73s0.03-0.63,0.08-1.74c0-1.1-0.03-2.73-0.35-4.69
		c-0.31-1.98-0.82-4.27-1.42-6.84c-0.32-1.49-0.67-3.05-0.93-4.71c-0.04,0.45-0.1,0.9-0.13,1.36c-0.71,7.36-3.06,14.38-5.69,21.26
		c-1.27,3.88-2.49,7.77-3.37,11.74c-2.31,10.62-2.87,21.58-1.49,32.37c0.68,5.39,1.82,10.73,3.4,15.95
		c0.04,0.14,0.08,0.29,0.14,0.45h131.98C242.31,162.15,241.02,157.92,238.3,153.95z"/>
	<path d="M310,152.28h-45.52v-49.14c0-52.81-40.43-95.56-90.16-95.17c-49.34,0.39-88.79,43.88-88.79,96.37v47.95H40l11.17,24.88
		L40,202.05h28.11v17.64h213.78v-17.64H310l-11.17-24.89L310,152.28z M264.48,162.61l7.39,4.07h-7.39V162.61z M94.31,104.34
		c0-47.95,35.93-87.23,80.08-87.58H175c44.49,0,80.69,38.74,80.69,86.38v63.54H94.31V104.34z M68.11,196.78H48.14l8.8-19.62
		l-8.8-19.6h34.37l-14.41,9.12V196.78z M85.52,162.5v4.18h-6.4L85.52,162.5z M276.62,174.65l-12.14,1.87v2.27l12.14,1.87v0.1
		l-10.69,2.73l10.69,2.74v4.25l-19.5,2.99l19.5,3.01v3.13l-9.61,2.45l-1.09,0.28l10.69,2.73v1.09l-19.5,2.99l19.5,3.01v2.27H73.38
		v-2.27l19.5-3.01l-19.5-2.99v-1.09l10.69-2.73l-1.09-0.28l-9.61-2.45v-3.13l19.5-3.01l-19.5-2.99v-4.25l10.69-2.74l-10.69-2.73
		v-0.1l12.14-1.87l7.36-1.13l-7.36-1.14l-12.14-1.87v-2.7h203.23V174.65z M301.86,196.78h-19.96v-30.1l-14.9-9.12h34.86l-8.81,19.6
		L301.86,196.78z"/>
	<path class="st10" d="M175,16.75h-0.61c-44.15,0.35-80.08,39.64-80.08,87.58v62.34h16.55c-0.06-0.15-0.1-0.31-0.14-0.45
		c-1.57-5.22-2.71-10.57-3.4-15.95c-1.38-10.79-0.82-21.75,1.49-32.37c0.88-3.97,2.1-7.85,3.37-11.74
		c2.63-6.88,4.98-13.89,5.69-21.26c0.03-0.46,0.08-0.92,0.13-1.36c0.26,1.66,0.61,3.22,0.93,4.71c0.6,2.56,1.11,4.86,1.42,6.84
		c0.32,1.96,0.35,3.59,0.35,4.69c-0.06,1.11-0.08,1.74-0.08,1.74s0.08-0.61,0.26-1.73c0.08-1.11,0.19-2.76,0-4.76
		c-0.17-2.02-0.58-4.37-1.07-6.97c-0.43-2.33-0.92-4.84-1.07-7.48c0.7,2.53,1.63,4.71,2.42,6.28c0.86,1.74,1.53,2.74,1.53,2.74
		s-0.42-1.13-1.04-2.95c-0.61-1.82-1.41-4.34-2.09-7.17c-0.32-1.28-0.54-2.51-0.6-3.63c0.46-2.21,1.17-4.36,2.38-6.46
		c2.23-3.9,5.05-7.43,7.77-11c3.13-4.15,6.04-9.7,10.9-11.88c9.08-4.07,15.51-6.54,19.46-7.1c0,0-0.01,0-0.01,0.01
		c-0.53,0.33-0.75,0.65-0.75,0.65s0.36-0.08,0.93-0.17c0.56-0.07,1.29-0.11,2.03,0.03c0.71,0.13,1.34,0.42,1.77,0.77
		c0.4,0.33,0.61,0.67,0.61,0.67s0-0.08,0-0.26c-0.03-0.17-0.06-0.42-0.19-0.71c-0.06-0.13-0.13-0.26-0.21-0.39
		c1.91,1.32,3.69,3.37,4.97,5.3c1,1.53,1.91,3.48,2.45,5.51c0.03,0.33,0.06,0.68,0.08,1.03c0.07,1.13-0.03,2.13-0.26,2.85
		c-0.19,0.63-0.42,1.03-0.47,1.14c0.04-0.01,0.14-0.07,0.26-0.18c0.19-0.14,0.45-0.39,0.68-0.72c0.11-0.14,0.19-0.29,0.28-0.47
		c0.1,2.1-0.36,4.04-1.63,5.39c-0.26-0.72-0.56-1.48-0.88-2.26c-2.28-5.54-4.44-12.42-9.86-13.46c-0.17-0.11-0.36-0.24-0.57-0.33
		c-0.79-0.39-1.61-0.45-2.17-0.39c-0.56,0.06-0.88,0.19-0.88,0.19s0.33,0,0.86,0.07c0.38,0.06,0.81,0.15,1.28,0.32
		c-0.21,0.01-0.38,0-0.6,0c-2.21,0.15-3.9,0.85-3.9,0.85s2.62-0.14,3.42-0.14c1.74-0.03,3.15,0.31,4.84,1.77
		c2.62,2.28,5.1,7.82,7.21,13.32c0.18,0.47,0.36,1.09,0.5,1.8c0.01,0.47-0.01,0.96-0.13,1.48c-0.22,1.13-0.7,2.13-1.1,2.83
		c-0.38,0.64-0.65,1.06-0.72,1.14c0.11-0.04,0.56-0.28,1.13-0.81c0.4-0.33,0.84-0.86,1.2-1.53c0.1,3.33-0.81,6.65-4.37,6.04
		c-0.31-3.31-2.05-6.86-3.15-9.56c-0.93-2.33-2.09-4.75-3.08-7.06c-0.7-1.61-2.28-4.13-3.9-5.07c-2.71-1.57-7.46,0.1-10.11,1.39
		c-0.03,0.01-0.03,0.04,0,0.04c2.55-0.47,6.28-1.59,8.42-0.78c2.9,1.07,4.71,5.62,6.25,9.15c0.67,1.49,3.15,6.08,4,10.08
		c-0.01,0.31-0.04,0.61-0.11,0.86c-0.11,0.35-0.36,0.71-0.61,1.04c-0.22,0.36-0.46,0.67-0.65,0.93c-0.35,0.45-0.61,0.78-0.67,0.85
		c0.1-0.03,0.49-0.15,1-0.46c0.32-0.15,0.65-0.4,1-0.72c0.1-0.08,0.19-0.19,0.31-0.29c0.03,2.48-1.14,4.34-3.93,4.37
		c-0.08-1.98-1.67-4.41-2.34-5.97c-1.43-3.47-2.76-6.99-4.39-10.36c-0.85-1.73-1.52-3.98-3.47-4.69c-1.66-0.58-4.01,0.08-6.01,1.04
		c-1.11,0.52-2.63,1.94-2.81,2.12c0.24-0.08,2.16-0.86,3.01-1.21c2.98-1.27,5.57-2.26,7.38,1.06c1.61,2.97,3.62,8.49,4.91,11.58
		c1.52,3.68,3.95,7.1-0.58,9.61c-2.13,1.2-3.59,1.95-6.06,2.23c-2.05,0.25-3.51-0.75-4.51-2.74c-0.85-1.61-1.31-3.42-0.9-5.21
		c0.24-0.96,1.03-1.92,2.34-1.7c0.97,0.15,1.43,1.07,1.85,1.96c0.18,0.4,0.58,1.13,0.58,1.13s0.04-0.46,0.01-0.97
		c0.08,0.11,0.17,0.24,0.26,0.33c0.36,0.4,0.7,0.72,0.95,0.92c0.18,0.14,0.29,0.25,0.35,0.28c-0.03-0.04-0.1-0.19-0.22-0.38
		c-0.17-0.26-0.39-0.65-0.64-1.13c-0.5-0.96-1.09-2.28-1.67-3.8c-0.56-1.53-1.09-2.92-1.48-3.94c-0.4-1.02-0.68-1.64-0.68-1.64
		s0.01,0.67,0.15,1.77c0.14,1.07,0.4,2.51,0.97,4.07c-0.08-0.13-0.18-0.24-0.26-0.38c-0.42-0.56-0.79-1.07-1.06-1.48
		c-0.22-0.38-0.4-0.65-0.4-0.65s0.01,0.32,0.18,0.78c0.14,0.46,0.42,1.09,0.86,1.67c0.15,0.21,0.31,0.4,0.47,0.57
		c-0.04-0.01-0.1-0.01-0.13-0.03c-1.17-0.14-2.46-0.04-3.29,1.87c-0.63,1.39-0.4,3.47,0.21,5.21c-0.11,0.4-0.19,0.79-0.31,1.21
		c-0.03,0.17-0.04,0.19-0.08,0.29l-0.07,0.24c-0.04,0.08-0.07,0.19-0.08,0.29c-0.13,0.31-0.26,0.61-0.43,0.93
		c-0.38,0.74-0.93,1.52-1.5,2.35c-1.21,1.7-1.95,3.52-2.27,4.84c-0.36,1.32-0.39,2.16-0.39,2.16s0.29-0.79,0.88-1.99
		c0.49-1.02,1.2-2.27,2.12-3.62c-0.11,0.38-0.21,0.77-0.32,1.13c-0.61,2.34-0.81,4.62-0.85,6.68c0,2.06,0.14,3.93,0.38,5.46
		c0.21,1.55,0.49,2.76,0.72,3.61c0.22,0.84,0.4,1.28,0.4,1.28s-0.11-0.47-0.25-1.32c-0.13-0.85-0.28-2.09-0.35-3.62
		c-0.14-3.05-0.18-7.34,0.97-11.81c0.17-0.68,0.38-1.35,0.57-1.98c-0.35,2.23-0.47,4.26-0.49,5.79c-0.03,1.84,0.1,2.94,0.1,2.94
		s0.15-1.1,0.42-2.88c0.17-1.02,0.38-2.23,0.63-3.61c-0.38,7.09,2.17,14.58,3.2,20.66c1.91,11.53,1.91,33.36,1.77,35.33
		c-1.66,0.58-4.08,2.26-4.37,2.46c0.28-0.1,2.58-0.9,3.77-1.25c5.62-1.66,10.82-1.92,16.65-0.89c-0.57-0.04-1.16-0.06-1.74-0.04
		c-0.95,0.01-1.87,0.08-2.74,0.24c-1.73,0.26-3.23,0.71-4.44,1.18c-1.24,0.49-2.17,0.99-2.78,1.36c-0.63,0.36-0.96,0.6-0.96,0.6
		s0.38-0.11,1.09-0.31c0.68-0.17,1.68-0.42,2.94-0.63c1.23-0.21,2.7-0.38,4.34-0.43c0.81-0.03,1.67-0.03,2.55,0.03
		c0.88,0.03,1.78,0.13,2.78,0.19c0.75,0.07,1.55,0.08,2.34,0.03c-1.66,1.57-3.1,3.59-3.27,3.86c0.38-0.28,6.5-4.75,10.02-6.72
		c6.46-3.63,14.3-6.24,21.73-7.1c8.97-1.06,18.14-0.24,25.34,4.29c6.5,4.09,12.17,8.74,16.62,15.27c2.71,3.97,4.01,8.2,4.54,12.72
		h12.85v-63.54C255.69,55.5,219.49,16.75,175,16.75z M173.25,63.82c0.43,0.15,0.96,0.45,1.46,0.79c-0.14,0.89-0.65,1.75-1.5,3.33
		c-0.19,0.36-0.67,1.21-1.2,2.14c-0.4-0.19-0.85-0.17-1.11-0.06c-0.26,0.08-0.39,0.21-0.39,0.21s0.18,0,0.43,0.06
		c0.22,0.03,0.53,0.13,0.81,0.26c-0.64,1.13-1.31,2.3-1.67,2.94c-0.57,0.96-1.52,2.06-2.55,2.62c-0.17-0.14-0.32-0.31-0.46-0.42
		c-0.13-0.17-0.11-0.19,0.01-0.4c0.13-0.17,0.32-0.39,0.49-0.63c0.71-0.84,1.23-1.74,1.71-2.23c0.25-0.22,0.49-0.38,0.68-0.45
		c0.19-0.07,0.31-0.07,0.31-0.07s-0.11-0.03-0.32-0.01c-0.21,0.04-0.52,0.11-0.85,0.33c-0.64,0.45-1.24,1.25-1.95,2.12
		c-0.18,0.22-0.33,0.4-0.52,0.67c-0.07,0.13-0.14,0.29-0.14,0.5c0.03,0.19,0.14,0.38,0.25,0.47c0.14,0.11,0.28,0.22,0.4,0.31
		c-1.03,0.42-2.12,0.28-2.94-1.07c0.21-0.32,0.28-0.46,0.45-0.84c0.28-0.7,0.46-1.75,0.49-2.48c2.52,0.46,3.83-0.22,4.93-2.81
		c1.17-2.81,1.14-5.07,0.53-7.45c1.04-1.14,1.74-2.44,2.12-3.8c0.31,0.88,0.65,1.75,0.99,2.6c0.68,1.73,1.02,2.73,1.04,3.56
		c-0.53-0.28-1.03-0.4-1.43-0.46c-0.56-0.07-0.89,0-0.89,0S172.76,63.64,173.25,63.82z"/>
	<path class="st11" d="M173.25,63.82c0.43,0.15,0.96,0.45,1.46,0.79c-0.14,0.89-0.65,1.75-1.5,3.33c-0.19,0.36-0.67,1.21-1.2,2.14
		c-0.4-0.19-0.85-0.17-1.11-0.06c-0.26,0.08-0.39,0.21-0.39,0.21s0.18,0,0.43,0.06c0.22,0.03,0.53,0.13,0.81,0.26
		c-0.64,1.13-1.31,2.3-1.67,2.94c-0.57,0.96-1.52,2.06-2.55,2.62c-0.17-0.14-0.32-0.31-0.46-0.42c-0.13-0.17-0.11-0.19,0.01-0.4
		c0.13-0.17,0.32-0.39,0.49-0.63c0.71-0.84,1.23-1.74,1.71-2.23c0.25-0.22,0.49-0.38,0.68-0.45c0.19-0.07,0.31-0.07,0.31-0.07
		s-0.11-0.03-0.32-0.01c-0.21,0.04-0.52,0.11-0.85,0.33c-0.64,0.45-1.24,1.25-1.95,2.12c-0.18,0.22-0.33,0.4-0.52,0.67
		c-0.07,0.13-0.14,0.29-0.14,0.5c0.03,0.19,0.14,0.38,0.25,0.47c0.14,0.11,0.28,0.22,0.4,0.31c-1.03,0.42-2.12,0.28-2.94-1.07
		c0.21-0.32,0.28-0.46,0.45-0.84c0.28-0.7,0.46-1.75,0.49-2.48c2.52,0.46,3.83-0.22,4.93-2.81c1.17-2.81,1.14-5.07,0.53-7.45
		c1.04-1.14,1.74-2.44,2.12-3.8c0.31,0.88,0.65,1.75,0.99,2.6c0.68,1.73,1.02,2.73,1.04,3.56c-0.53-0.28-1.03-0.4-1.43-0.46
		c-0.56-0.07-0.89,0-0.89,0S172.76,63.64,173.25,63.82z"/>
	<path class="st11" d="M242.84,166.68H110.86c-0.06-0.15-0.1-0.31-0.14-0.45c-1.57-5.22-2.71-10.57-3.4-15.95
		c-1.38-10.79-0.82-21.75,1.49-32.37c0.88-3.97,2.1-7.85,3.37-11.74c2.63-6.88,4.98-13.89,5.69-21.26c0.03-0.46,0.08-0.92,0.13-1.36
		c0.26,1.66,0.61,3.22,0.93,4.71c0.6,2.56,1.11,4.86,1.42,6.84c0.32,1.96,0.35,3.59,0.35,4.69c-0.06,1.11-0.08,1.74-0.08,1.74
		s0.08-0.61,0.26-1.73c0.08-1.11,0.19-2.76,0-4.76c-0.17-2.02-0.58-4.37-1.07-6.97c-0.43-2.33-0.92-4.84-1.07-7.48
		c0.7,2.53,1.63,4.71,2.42,6.28c0.86,1.74,1.53,2.74,1.53,2.74s-0.42-1.13-1.04-2.95c-0.61-1.82-1.41-4.34-2.09-7.17
		c-0.32-1.28-0.54-2.51-0.6-3.63c0.46-2.21,1.17-4.36,2.38-6.46c2.23-3.9,5.05-7.43,7.77-11c3.13-4.15,6.04-9.7,10.9-11.88
		c9.08-4.07,15.51-6.54,19.46-7.1c0,0-0.01,0-0.01,0.01c-0.53,0.33-0.75,0.65-0.75,0.65s0.36-0.08,0.93-0.17
		c0.56-0.07,1.29-0.11,2.03,0.03c0.71,0.13,1.34,0.42,1.77,0.77c0.4,0.33,0.61,0.67,0.61,0.67s0-0.08,0-0.26
		c-0.03-0.17-0.06-0.42-0.19-0.71c-0.06-0.13-0.13-0.26-0.21-0.39c1.91,1.32,3.69,3.37,4.97,5.3c1,1.53,1.91,3.48,2.45,5.51
		c0.03,0.33,0.06,0.68,0.08,1.03c0.07,1.13-0.03,2.13-0.26,2.85c-0.19,0.63-0.42,1.03-0.47,1.14c0.04-0.01,0.14-0.07,0.26-0.18
		c0.19-0.14,0.45-0.39,0.68-0.72c0.11-0.14,0.19-0.29,0.28-0.47c0.1,2.1-0.36,4.04-1.63,5.39c-0.26-0.72-0.56-1.48-0.88-2.26
		c-2.28-5.54-4.44-12.42-9.86-13.46c-0.17-0.11-0.36-0.24-0.57-0.33c-0.79-0.39-1.61-0.45-2.17-0.39c-0.56,0.06-0.88,0.19-0.88,0.19
		s0.33,0,0.86,0.07c0.38,0.06,0.81,0.15,1.28,0.32c-0.21,0.01-0.38,0-0.6,0c-2.21,0.15-3.9,0.85-3.9,0.85s2.62-0.14,3.42-0.14
		c1.74-0.03,3.15,0.31,4.84,1.77c2.62,2.28,5.1,7.82,7.21,13.32c0.18,0.47,0.36,1.09,0.5,1.8c0.01,0.47-0.01,0.96-0.13,1.48
		c-0.22,1.13-0.7,2.13-1.1,2.83c-0.38,0.64-0.65,1.06-0.72,1.14c0.11-0.04,0.56-0.28,1.13-0.81c0.4-0.33,0.84-0.86,1.2-1.53
		c0.1,3.33-0.81,6.65-4.37,6.04c-0.31-3.31-2.05-6.86-3.15-9.56c-0.93-2.33-2.09-4.75-3.08-7.06c-0.7-1.61-2.28-4.13-3.9-5.07
		c-2.71-1.57-7.46,0.1-10.11,1.39c-0.03,0.01-0.03,0.04,0,0.04c2.55-0.47,6.28-1.59,8.42-0.78c2.9,1.07,4.71,5.62,6.25,9.15
		c0.67,1.49,3.15,6.08,4,10.08c-0.01,0.31-0.04,0.61-0.11,0.86c-0.11,0.35-0.36,0.71-0.61,1.04c-0.22,0.36-0.46,0.67-0.65,0.93
		c-0.35,0.45-0.61,0.78-0.67,0.85c0.1-0.03,0.49-0.15,1-0.46c0.32-0.15,0.65-0.4,1-0.72c0.1-0.08,0.19-0.19,0.31-0.29
		c0.03,2.48-1.14,4.34-3.93,4.37c-0.08-1.98-1.67-4.41-2.34-5.97c-1.43-3.47-2.76-6.99-4.39-10.36c-0.85-1.73-1.52-3.98-3.47-4.69
		c-1.66-0.58-4.01,0.08-6.01,1.04c-1.11,0.52-2.63,1.94-2.81,2.12c0.24-0.08,2.16-0.86,3.01-1.21c2.98-1.27,5.57-2.26,7.38,1.06
		c1.61,2.97,3.62,8.49,4.91,11.58c1.52,3.68,3.95,7.1-0.58,9.61c-2.13,1.2-3.59,1.95-6.06,2.23c-2.05,0.25-3.51-0.75-4.51-2.74
		c-0.85-1.61-1.31-3.42-0.9-5.21c0.24-0.96,1.03-1.92,2.34-1.7c0.97,0.15,1.43,1.07,1.85,1.96c0.18,0.4,0.58,1.13,0.58,1.13
		s0.04-0.46,0.01-0.97c0.08,0.11,0.17,0.24,0.26,0.33c0.36,0.4,0.7,0.72,0.95,0.92c0.18,0.14,0.29,0.25,0.35,0.28
		c-0.03-0.04-0.1-0.19-0.22-0.38c-0.17-0.26-0.39-0.65-0.64-1.13c-0.5-0.96-1.09-2.28-1.67-3.8c-0.56-1.53-1.09-2.92-1.48-3.94
		c-0.4-1.02-0.68-1.64-0.68-1.64s0.01,0.67,0.15,1.77c0.14,1.07,0.4,2.51,0.97,4.07c-0.08-0.13-0.18-0.24-0.26-0.38
		c-0.42-0.56-0.79-1.07-1.06-1.48c-0.22-0.38-0.4-0.65-0.4-0.65s0.01,0.32,0.18,0.78c0.14,0.46,0.42,1.09,0.86,1.67
		c0.15,0.21,0.31,0.4,0.47,0.57c-0.04-0.01-0.1-0.01-0.13-0.03c-1.17-0.14-2.46-0.04-3.29,1.87c-0.63,1.39-0.4,3.47,0.21,5.21
		c-0.11,0.4-0.19,0.79-0.31,1.21c-0.03,0.17-0.04,0.19-0.08,0.29l-0.07,0.24c-0.04,0.08-0.07,0.19-0.08,0.29
		c-0.13,0.31-0.26,0.61-0.43,0.93c-0.38,0.74-0.93,1.52-1.5,2.35c-1.21,1.7-1.95,3.52-2.27,4.84c-0.36,1.32-0.39,2.16-0.39,2.16
		s0.29-0.79,0.88-1.99c0.49-1.02,1.2-2.27,2.12-3.62c-0.11,0.38-0.21,0.77-0.32,1.13c-0.61,2.34-0.81,4.62-0.85,6.68
		c0,2.06,0.14,3.93,0.38,5.46c0.21,1.55,0.49,2.76,0.72,3.61c0.22,0.84,0.4,1.28,0.4,1.28s-0.11-0.47-0.25-1.32
		c-0.13-0.85-0.28-2.09-0.35-3.62c-0.14-3.05-0.18-7.34,0.97-11.81c0.17-0.68,0.38-1.35,0.57-1.98c-0.35,2.23-0.47,4.26-0.49,5.79
		c-0.03,1.84,0.1,2.94,0.1,2.94s0.15-1.1,0.42-2.88c0.17-1.02,0.38-2.23,0.63-3.61c-0.38,7.09,2.17,14.58,3.2,20.66
		c1.91,11.53,1.91,33.36,1.77,35.33c-1.66,0.58-4.08,2.26-4.37,2.46c0.28-0.1,2.58-0.9,3.77-1.25c5.62-1.66,10.82-1.92,16.65-0.89
		c-0.57-0.04-1.16-0.06-1.74-0.04c-0.95,0.01-1.87,0.08-2.74,0.24c-1.73,0.26-3.23,0.71-4.44,1.18c-1.24,0.49-2.17,0.99-2.78,1.36
		c-0.63,0.36-0.96,0.6-0.96,0.6s0.38-0.11,1.09-0.31c0.68-0.17,1.68-0.42,2.94-0.63c1.23-0.21,2.7-0.38,4.34-0.43
		c0.81-0.03,1.67-0.03,2.55,0.03c0.88,0.03,1.78,0.13,2.78,0.19c0.75,0.07,1.55,0.08,2.34,0.03c-1.66,1.57-3.1,3.59-3.27,3.86
		c0.38-0.28,6.5-4.75,10.02-6.72c6.46-3.63,14.3-6.24,21.73-7.1c8.97-1.06,18.14-0.24,25.34,4.29c6.5,4.09,12.17,8.74,16.62,15.27
		C241.02,157.92,242.31,162.15,242.84,166.68z"/>
	<g>
		<g>
			<path class="st12" d="M238.3,153.95c-4.45-6.53-10.12-11.18-16.62-15.27c-7.2-4.52-16.37-5.35-25.34-4.29
				c-7.43,0.86-15.27,3.47-21.73,7.1c-3.52,1.98-9.65,6.45-10.02,6.72c0.17-0.26,1.61-2.28,3.27-3.86
				c-0.79,0.06-1.59,0.04-2.34-0.03c-1-0.07-1.91-0.17-2.78-0.19c-0.88-0.06-1.74-0.06-2.55-0.03c-1.64,0.06-3.12,0.22-4.34,0.43
				c-1.25,0.21-2.26,0.46-2.94,0.63c-0.71,0.19-1.09,0.31-1.09,0.31s0.33-0.24,0.96-0.6c0.61-0.38,1.55-0.88,2.78-1.36
				c1.21-0.47,2.71-0.92,4.44-1.18c0.88-0.15,1.8-0.22,2.74-0.24c0.58-0.01,1.17,0,1.74,0.04c-5.83-1.03-11.03-0.77-16.65,0.89
				c-1.2,0.35-3.49,1.16-3.77,1.25c0.29-0.21,2.71-1.88,4.37-2.46c0.14-1.98,0.14-23.81-1.77-35.33c-1.03-6.08-3.58-13.57-3.2-20.66
				c-0.25,1.38-0.46,2.59-0.63,3.61c-0.26,1.78-0.42,2.88-0.42,2.88s-0.13-1.1-0.1-2.94c0.01-1.53,0.14-3.56,0.49-5.79
				c-0.19,0.63-0.4,1.29-0.57,1.98c-1.16,4.47-1.11,8.76-0.97,11.81c0.07,1.53,0.22,2.77,0.35,3.62c0.14,0.85,0.25,1.32,0.25,1.32
				s-0.18-0.45-0.4-1.28c-0.24-0.85-0.52-2.06-0.72-3.61c-0.24-1.53-0.38-3.4-0.38-5.46c0.04-2.06,0.24-4.34,0.85-6.68
				c0.11-0.36,0.21-0.75,0.32-1.13c-0.92,1.35-1.63,2.6-2.12,3.62c-0.58,1.2-0.88,1.99-0.88,1.99s0.03-0.84,0.39-2.16
				c0.32-1.32,1.06-3.15,2.27-4.84c0.57-0.84,1.13-1.61,1.5-2.35c0.17-0.32,0.31-0.63,0.43-0.93c0.01-0.1,0.04-0.21,0.08-0.29
				l0.07-0.24c0.04-0.1,0.06-0.13,0.08-0.29c0.11-0.42,0.19-0.81,0.31-1.21c-0.61-1.74-0.84-3.81-0.21-5.21
				c0.82-1.91,2.12-2,3.29-1.87c0.03,0.01,0.08,0.01,0.13,0.03c-0.17-0.17-0.32-0.36-0.47-0.57c-0.45-0.58-0.72-1.21-0.86-1.67
				c-0.17-0.46-0.18-0.78-0.18-0.78s0.18,0.28,0.4,0.65c0.26,0.4,0.64,0.92,1.06,1.48c0.08,0.14,0.18,0.25,0.26,0.38
				c-0.57-1.56-0.84-2.99-0.97-4.07c-0.14-1.1-0.15-1.77-0.15-1.77s0.28,0.63,0.68,1.64c0.39,1.02,0.92,2.41,1.48,3.94
				c0.58,1.52,1.17,2.84,1.67,3.8c0.25,0.47,0.47,0.86,0.64,1.13c0.13,0.18,0.19,0.33,0.22,0.38c-0.06-0.03-0.17-0.14-0.35-0.28
				c-0.25-0.19-0.58-0.51-0.95-0.92c-0.1-0.1-0.18-0.22-0.26-0.33c0.03,0.51-0.01,0.97-0.01,0.97s-0.4-0.72-0.58-1.13
				c-0.42-0.89-0.88-1.81-1.85-1.96c-1.31-0.22-2.1,0.74-2.34,1.7c-0.4,1.78,0.06,3.59,0.9,5.21c1,1.99,2.46,2.99,4.51,2.74
				c2.46-0.28,3.93-1.03,6.06-2.23c4.54-2.51,2.1-5.93,0.58-9.61c-1.29-3.09-3.3-8.62-4.91-11.58c-1.81-3.31-4.4-2.33-7.38-1.06
				c-0.85,0.35-2.77,1.13-3.01,1.21c0.18-0.18,1.7-1.6,2.81-2.12c2-0.96,4.36-1.63,6.01-1.04c1.95,0.71,2.62,2.97,3.47,4.69
				c1.63,3.37,2.95,6.89,4.39,10.36c0.67,1.56,2.26,4,2.34,5.97c2.78-0.03,3.95-1.89,3.93-4.37c-0.11,0.1-0.21,0.21-0.31,0.29
				c-0.35,0.32-0.68,0.57-1,0.72c-0.52,0.31-0.9,0.43-1,0.46c0.06-0.07,0.32-0.4,0.67-0.85c0.19-0.26,0.43-0.57,0.65-0.93
				c0.25-0.33,0.5-0.7,0.61-1.04c0.07-0.25,0.1-0.56,0.11-0.86c-0.85-4-3.33-8.59-4-10.08c-1.55-3.52-3.36-8.07-6.25-9.15
				c-2.14-0.81-5.87,0.31-8.42,0.78c-0.03,0-0.03-0.03,0-0.04c2.65-1.29,7.39-2.97,10.11-1.39c1.61,0.93,3.2,3.45,3.9,5.07
				c0.99,2.31,2.14,4.73,3.08,7.06c1.1,2.7,2.84,6.25,3.15,9.56c3.56,0.61,4.47-2.71,4.37-6.04c-0.36,0.67-0.79,1.2-1.2,1.53
				c-0.57,0.53-1.02,0.77-1.13,0.81c0.07-0.08,0.35-0.5,0.72-1.14c0.4-0.7,0.88-1.7,1.1-2.83c0.11-0.52,0.14-1,0.13-1.48
				c-0.14-0.71-0.32-1.32-0.5-1.8c-2.12-5.5-4.59-11.04-7.21-13.32c-1.7-1.46-3.1-1.8-4.84-1.77c-0.81,0-3.42,0.14-3.42,0.14
				s1.68-0.7,3.9-0.85c0.22,0,0.39,0.01,0.6,0c-0.47-0.17-0.9-0.26-1.28-0.32c-0.53-0.07-0.86-0.07-0.86-0.07s0.32-0.14,0.88-0.19
				c0.56-0.06,1.38,0,2.17,0.39c0.21,0.1,0.4,0.22,0.57,0.33c5.42,1.04,7.57,7.92,9.86,13.46c0.32,0.78,0.61,1.53,0.88,2.26
				c1.27-1.35,1.73-3.29,1.63-5.39c-0.08,0.18-0.17,0.33-0.28,0.47c-0.24,0.33-0.49,0.58-0.68,0.72c-0.13,0.11-0.22,0.17-0.26,0.18
				c0.06-0.11,0.28-0.51,0.47-1.14c0.24-0.72,0.33-1.73,0.26-2.85c-0.03-0.35-0.06-0.7-0.08-1.03c-0.54-2.03-1.45-3.98-2.45-5.51
				c-1.28-1.94-3.06-3.98-4.97-5.3c0.08,0.13,0.15,0.26,0.21,0.39c0.14,0.29,0.17,0.54,0.19,0.71c0,0.18,0,0.26,0,0.26
				s-0.21-0.33-0.61-0.67c-0.43-0.35-1.06-0.64-1.77-0.77c-0.74-0.14-1.48-0.1-2.03-0.03c-0.57,0.08-0.93,0.17-0.93,0.17
				s0.22-0.32,0.75-0.65c0-0.01,0.01-0.01,0.01-0.01c-3.95,0.56-10.39,3.04-19.46,7.1c-4.86,2.17-7.77,7.73-10.9,11.88
				c-2.71,3.56-5.54,7.1-7.77,11c-1.21,2.1-1.92,4.25-2.38,6.46c0.06,1.13,0.28,2.35,0.6,3.63c0.68,2.83,1.48,5.35,2.09,7.17
				c0.63,1.82,1.04,2.95,1.04,2.95s-0.67-1-1.53-2.74c-0.79-1.57-1.73-3.74-2.42-6.28c0.15,2.63,0.64,5.15,1.07,7.48
				c0.49,2.6,0.9,4.96,1.07,6.97c0.19,2,0.08,3.65,0,4.76c-0.18,1.11-0.26,1.73-0.26,1.73s0.03-0.63,0.08-1.74
				c0-1.1-0.03-2.73-0.35-4.69c-0.31-1.98-0.82-4.27-1.42-6.84c-0.32-1.49-0.67-3.05-0.93-4.71c-0.04,0.45-0.1,0.9-0.13,1.36
				c-0.71,7.36-3.06,14.38-5.69,21.26c-1.27,3.88-2.49,7.77-3.37,11.74c-2.31,10.62-2.87,21.58-1.49,32.37
				c0.68,5.39,1.82,10.73,3.4,15.95c0.04,0.14,0.08,0.29,0.14,0.45h7.21c-0.65-1.27-1.17-2.65-1.57-4.05
				c-0.89-3.26-1.24-6.39-1.57-9.2c-0.32-2.85-0.52-5.4-0.63-7.57c-0.21-4.3-0.11-6.97-0.11-6.97s0.45,2.63,1.17,6.86
				c0.39,2.1,0.85,4.62,1.34,7.42c0.14,0.7,0.26,1.42,0.4,2.16c0.04-0.72,0.1-1.41,0.17-2.05c0.14-1.36,0.31-2.48,0.43-3.23
				c0.14-0.77,0.21-1.2,0.21-1.2s0.06,0.45,0.13,1.2c0.07,0.78,0.17,1.88,0.28,3.26c0.26,2.7,0.58,6.45,1.98,10.15
				c0.33,0.9,0.74,1.74,1.23,2.44c0.21,0.29,0.42,0.56,0.67,0.79h120.66C242.31,162.15,241.02,157.92,238.3,153.95z M145.21,108.87
				c0.38,1.61,0.82,3.88,1.02,6.42c0.19,2.53,0.11,4.86-0.06,6.52c-0.14,1.64-0.32,2.67-0.32,2.67s-0.31-4.12-0.7-9.09
				c-0.38-5-0.68-9.1-0.68-9.1S144.8,107.26,145.21,108.87z M143.49,135.94c0,0-0.03-1.52-0.07-3.94c-0.06-2.42-0.15-5.75-0.28-9.44
				c-0.14-3.68-0.28-7.02-0.42-9.44c-0.13-2.41-0.19-3.93-0.19-3.93s0.33,1.48,0.74,3.87c0.39,2.41,0.79,5.75,0.93,9.45
				c0.14,3.72-0.04,7.07-0.25,9.49C143.75,134.45,143.49,135.94,143.49,135.94z M221.21,146.6c-0.32-0.19-0.74-0.52-1.34-0.86
				c-1.18-0.72-2.92-1.67-5.15-2.66c-4.44-1.98-11.01-3.79-18.32-3.54c-7.34,0.26-13.77,2.53-18.07,4.8
				c-2.14,1.14-3.81,2.21-4.94,3.02c-0.56,0.39-0.97,0.72-1.28,0.93c-0.21,0.18-0.35,0.28-0.4,0.32c0.06-0.07,0.18-0.2,0.35-0.39
				c0.26-0.25,0.63-0.65,1.13-1.13c1-0.96,2.53-2.27,4.61-3.68c2.07-1.39,4.73-2.81,7.88-3.94c3.13-1.14,6.77-1.91,10.64-2.07
				c3.87-0.1,7.56,0.4,10.76,1.32c3.22,0.89,5.97,2.14,8.14,3.4c2.17,1.24,3.79,2.44,4.86,3.34c0.54,0.42,0.93,0.81,1.2,1.03
				c0.19,0.18,0.31,0.31,0.38,0.38C221.6,146.84,221.46,146.74,221.21,146.6z"/>
			<path class="st12" d="M173.25,63.82c0.43,0.15,0.96,0.45,1.46,0.79c-0.14,0.89-0.65,1.75-1.5,3.33c-0.19,0.36-0.67,1.21-1.2,2.14
				c-0.4-0.19-0.85-0.17-1.11-0.06c-0.26,0.08-0.39,0.21-0.39,0.21s0.18,0,0.43,0.06c0.22,0.03,0.53,0.13,0.81,0.26
				c-0.64,1.13-1.31,2.3-1.67,2.94c-0.57,0.96-1.52,2.06-2.55,2.62c-0.17-0.14-0.32-0.31-0.46-0.42c-0.13-0.17-0.11-0.19,0.01-0.4
				c0.13-0.17,0.32-0.39,0.49-0.63c0.71-0.84,1.23-1.74,1.71-2.23c0.25-0.22,0.49-0.38,0.68-0.45c0.19-0.07,0.31-0.07,0.31-0.07
				s-0.11-0.03-0.32-0.01c-0.21,0.04-0.52,0.11-0.85,0.33c-0.64,0.45-1.24,1.25-1.95,2.12c-0.18,0.22-0.33,0.4-0.52,0.67
				c-0.07,0.13-0.14,0.29-0.14,0.5c0.03,0.19,0.14,0.38,0.25,0.47c0.14,0.11,0.28,0.22,0.4,0.31c-1.03,0.42-2.12,0.28-2.94-1.07
				c0.21-0.32,0.28-0.46,0.45-0.84c0.28-0.7,0.46-1.75,0.49-2.48c2.52,0.46,3.83-0.22,4.93-2.81c1.17-2.81,1.14-5.07,0.53-7.45
				c1.04-1.14,1.74-2.44,2.12-3.8c0.31,0.88,0.65,1.75,0.99,2.6c0.68,1.73,1.02,2.73,1.04,3.56c-0.53-0.28-1.03-0.4-1.43-0.46
				c-0.56-0.07-0.89,0-0.89,0S172.76,63.64,173.25,63.82z"/>
		</g>
	</g>
	<polygon class="st13" points="264.48,176.52 264.48,178.79 276.62,180.66 276.62,180.75 265.92,183.48 276.62,186.22 
		276.62,190.47 257.11,193.46 276.62,196.47 276.62,199.6 267.01,202.05 265.92,202.33 276.62,205.06 276.62,206.15 257.11,209.14 
		276.62,212.15 276.62,214.42 73.38,214.42 73.38,212.15 92.89,209.14 73.38,206.15 73.38,205.06 84.08,202.33 82.99,202.05 
		73.38,199.6 73.38,196.47 92.89,193.46 73.38,190.47 73.38,186.22 84.08,183.48 73.38,180.75 73.38,180.66 85.52,178.79 
		92.89,177.66 85.52,176.52 73.38,174.65 73.38,171.95 276.62,171.95 276.62,174.65 	"/>
</g>
<g id="Layer_14">
</g>
<g id="Layer_15">
</g>
<g id="Layer_11">
</g>
<g id="Layer_8">
</g>
<g id="Layer_10">
</g>
<g id="Layer_9">
</g>
<g id="Layer_2">
</g>
<g id="Layer_3">
</g>
<g id="Layer_4">
</g>
<g id="Layer_5">
</g>
<g id="Layer_6">
</g>
<g id="Layer_7">
</g>
</svg>
