<?xml version="1.0" encoding="utf-8"?>
<!-- Generator: Adobe Illustrator 27.8.1, SVG Export Plug-In . SVG Version: 6.00 Build 0)  -->
<svg version="1.1" xmlns="http://www.w3.org/2000/svg" xmlns:xlink="http://www.w3.org/1999/xlink" x="0px" y="0px"
	 viewBox="0 0 350 230" style="enable-background:new 0 0 350 230;" xml:space="preserve">
<style type="text/css">
	.st0{fill:#FF9D00;}
	.st1{fill:url(#SVGID_1_);}
	.st2{opacity:0.22;fill:url(#SVGID_00000048467501882911250860000006710291450332471702_);}
	.st3{fill:#FFC200;}
	.st4{fill:#778718;}
	.st5{fill:#E0B017;}
	.st6{fill:#664407;}
	.st7{fill:#9E690A;}
	.st8{fill:#7F1105;}
	.st9{fill:#191933;}
	.st10{fill:#FCEBD4;}
	.st11{fill:#E3DFD6;}
	.st12{fill:#FFB000;}
	.st13{fill:#AA210E;}
	.st14{fill:#FFF0A6;}
	.st15{fill:#FFDA00;}
	.st16{fill:#F4F4F4;}
	.st17{fill:#DC5C28;}
	.st18{fill:#FF8440;}
	.st19{fill:#C45224;}
	.st20{fill:#2C4369;}
	.st21{fill:#2A72DB;}
	.st22{fill:#C65500;}
	.st23{fill:#C15746;}
	.st24{fill:#FF8C00;}
	.st25{fill:#FFEA2C;}
	.st26{fill:#F7FF57;}
	.st27{fill:#FFFFFF;}
	.st28{fill:#D64949;}
	.st29{fill:#353535;}
	.st30{fill:#FFC783;}
	.st31{fill:#3F7F91;}
	.st32{fill:#25BDE5;}
	.st33{fill:#8CDD00;}
	.st34{fill:#D1FF88;}
	.st35{fill:#333333;}
	.st36{fill:#FF9000;}
	.st37{fill:#A1A813;}
	.st38{fill:#B3C40E;}
	.st39{fill:#CACE72;}
	.st40{fill:url(#SVGID_00000000902041470100160450000001349198981376338580_);}
	.st41{fill:#93E800;}
	.st42{fill:#3CB7D3;}
	.st43{fill:#FF7631;}
	.st44{fill:#E6873C;}
	.st45{fill:#30657F;}
	.st46{fill:#FF7A40;}
	.st47{fill:#FFAD4A;}
	.st48{fill:#BC8E3B;}
	.st49{fill:#E2E2E2;}
	.st50{fill:#F2B844;}
	.st51{fill:#AF3838;}
	.st52{fill:#17B5C1;}
	.st53{fill:#A88643;}
	.st54{fill-rule:evenodd;clip-rule:evenodd;fill:#DD7928;}
	.st55{fill:#E6E7E8;stroke:#CFCFCF;stroke-width:0.1061;}
	.st56{fill-rule:evenodd;clip-rule:evenodd;fill:#204F7A;}
	.st57{fill-rule:evenodd;clip-rule:evenodd;fill:#50A4FF;}
	.st58{fill:#002649;}
</style>
<g id="Layer_1">
</g>
<g id="Layer_12">
</g>
<g id="Layer_13">
</g>
<g id="Layer_14">
	<path class="st14" d="M185.83,137.07c0,0,1.08-0.6,0.48-2.76c-0.02-0.1-0.05-0.21-0.09-0.32c-0.59-1.81-1.29-3.05-2.62-3.19
		c-0.05,0.01-0.12,0.01-0.18,0.02c-2.84,0.3-3.93,1.36-2.96,4.42c0.15,0.47,0.34,1,0.6,1.57c0.73,1.66,2.37,2.77,4.09,3.5
		c1.1-0.19,2.18-0.41,3.25-0.66C188.04,138.52,187.76,136.99,185.83,137.07z M184.73,108.17c-3.34-2.94-3.32-5.5-3.28-5.99
		c-0.14,0.93-1.1,9.46,11.39,8.85C191.58,111.05,187.79,110.87,184.73,108.17z M183.07,96.74c0.4-1.51,0.92-4.19,1.18-5.7
		c0.27-1.51-0.06-2.43-0.06-2.43c-0.2,2.49-1.71,7.54-3.28,8.52c-1.58,0.99-5.18,0.86-5.18,0.86s3.67,0.26,4.46,1.11
		c0.78,0.85-0.38,3.56,0.81,6.17c0,0-0.87-5.29,1.16-5.97c1.15-0.38,2.02-0.08,2.28,0.03C184.12,99.09,182.72,98.07,183.07,96.74z
		 M172.19,69.92c-2.35-2.82-6.51-2.42-6.98-2.36c0.24,0,1.62,0.11,4.84,2.39c3.58,2.53,3.98,6,3.98,6S174.68,72.9,172.19,69.92z
		 M233.37,91.04c0.12-2.13-2.02-6.86-4.84-9.73c-0.21-0.22-0.44-0.44-0.67-0.64c-3.15-2.75-5.57-2.03-8.85-3.21
		c-3.28-1.18-9.51-1.83-10.1,2.56c-0.58,4.26,4.17,8.1,4.44,8.32c-0.35-0.15-5.97-2.6-6.74-6.42c-0.78-3.93,3.61-6.55,3.61-6.55
		c-3.02-0.2-5.7,2.09-7.21,1.76c-5.56-1.2-11.09,2.84-11.64,3.24c0.27-0.39,2.63-3.47,6.34-4.29c3.92-0.86,7.53-1.09,8.58-2.49
		c-0.98-0.38-5.37-1.14-7.88-3.06c-3.21-2.46-5.96-6.35-7.24-8.55c-0.28,0.83-0.8,1.51-0.8,1.51c-0.12-1.83-2.1-2.62-2.1-2.62
		c0.18,1.71-1.13,3.15-1.13,3.15c-1.15-2.6-4.64-1.83-5.33-1.65c-0.06,0.37-0.14,0.77-0.25,1.22c-0.45,1.8-1.4,2.89-2.5,2.89
		c-0.07,0-0.12,0-0.18-0.01c-0.83-0.08-1.24-0.65-1.4-0.97c-0.16-0.16-0.3-0.34-0.43-0.58c-0.72-1.31-1.2-1.59-0.91-2.18
		c0.29-0.59,0.67-0.26,0.49-1.1c0,0,0.5,0.19,0.58,0.59c0,0.03,0.01,0.06,0.01,0.1c0.02,0.47,1.05,0.33,0.91-0.07
		c-0.12-0.39-0.6-0.47-0.48-1.16c0.11-0.69,0.57-0.95,0.36-1.32c0,0-1.43-1.42-0.91-2.24c0.53-0.82,1.11,1.1,1.11,1.1
		s0.26-1.03-0.25-1.45c0,0,1.98-0.35,2.44,1.55c0.46,1.9,0.03,3.35,0.23,4.17c0.2,0.81-0.51,1.6-0.49,1.54
		c0.01-0.07,0.16-0.77-0.13-0.96c-0.3-0.18,0.33-0.55-0.2-0.93c-0.52-0.38-0.6,0.35-1.21,0.59c-0.61,0.25-0.95-0.18-0.95-0.18
		s-0.72,0.03-0.51,0.64c0.21,0.61,1.03,1.05,1.5,0.59c0,0,0.02,0.48-0.39,0.65c0,0,0.63,0.09,1.14-0.41
		c-0.06,0.09-0.51,0.76-1.17,0.76c0,0-0.03,0.21,0,0.43c0.17,0.15,0.39,0.29,0.71,0.32c0.91,0.1,1.72-0.86,2.12-2.49
		c0.43-1.75,0.37-2.68,0.29-3.98l-0.02-0.17c-0.02-0.45-0.19-1.01-0.44-1.58c-0.49-0.74-1.25-1.49-2.4-1.58
		c-2.36-0.17-2.58,1.58-2.58,1.58l-0.09,0.17c-2.71,1.53-0.78,4.77-0.78,4.77s-1.35,1.83-2.27,1.44s-0.44-0.27-1.01-3.02
		s-1.62-4.24-4.46-5.34c-2.84-1.08-1.44-1.87-1.31-4.32c0.13-2.45-2.63-4.42-4.81-3.54c0,0-3.71,2.18-3.76,4.77
		c-0.04,2.57,1.84,1.92,1.75,3.53c-0.09,1.62-1.4,0.84-1.18,2.15c0.22,1.31,2.05,1.66,5.46,2.36s3.55,1.61,2.62,1.75
		c0,0,0.23,2.14-1.48,2.75c-1.7,0.61-3.32-1.05-3.32-1.05s-0.09,1.93,0.78,2.63c0.88,0.7,1.58,1.61,1.62,2.62
		c0,0,1.36,0.52,2.4,2.18l-0.04,0.88c0,0,1.27,0.21,1.97,1.09c0,0-0.65-0.18-1.18,0.22c0,0-0.52,1.18,1.44,1.61
		c1.97,0.44,3.59,1.4,6.21,0.92c2.63-0.48,5.55-1.13,6.47-1.97c0.87-0.77,0.61-4.03,0.61-4.31c0.06,0.18,0.98,2.73,2.01,4.93
		c1.05,2.23,1.88,7.17,1.84,9.31c0,0-3.19-3.06-3.98-4.9c0,0-1.4,3.02-4.9,3.59c0,0,0.93-1.23,0.53-2.8c0,0-1.58,2.23-4.37,4.81
		c-2.55,2.34-6.82,4.25-7.58,4.57c0.68-0.42,4.16-2.58,5.31-4.35c-3.59,0.87-7.92,2.58-12.16,7.56c-4.24,4.99-4.59,9.18-4.59,9.18
		s-4.54,1.44-6.6,5.25c-2.05,3.8-0.53,8.18-0.53,8.18c0.5,0.89,0.95,3.29,1.01,3.59c-0.63-2.05-2.93-4.38-2.93-4.38
		c0.66,1.41,0.89,3.65,0.96,5.39c-0.39-2.96-1.92-5.44-1.92-5.44s-5.59-4.2-6.91-7.69c-1.07-2.85-2.63-4.36-3.17-4.82
		c-2.25-0.26-4.07-1.25-5.16-1.91c0.01,0.01,0.01,0.03,0.01,0.05c0.81,0.53,1.33,0.77,1.33,0.77s-0.26,4.95-0.09,8.79
		c0.01,0.26,0.03,0.54,0.06,0.82c0.29,3.98,1.52,10.49,5.14,13.34c2.28,1.8,3.66,3.88,4.4,5.31c0.54,0.41,1.09,0.81,1.65,1.21
		c2.16-1.24,3.5-2.72,4.3-3.93c0.9-1.35,1.15-2.36,1.15-2.36c0.08,1.05-0.06,2.03-0.33,2.9c-0.68,2.23-2.21,3.83-3.21,4.69
		c0.24,0.15,0.48,0.3,0.72,0.46c1.4-0.32,3.65-1.05,6.66-2.71c1.06-0.59,2.21-1.3,3.46-2.15c7.43-5.08,7.96-10.1,7.96-10.1
		c-4.15,3.15-9.44,1-9.44,1s4.33,0.31,7.47-2.8c3.15-3.09,3.06-7.65,2.1-11.71c-0.91-3.86-4.5-3.58-4.86-3.55
		c2.46-0.77,3.42,0.14,3.42,0.14c-1.38-2.76-0.12-5.57-0.01-5.8c-0.61,2.45,0.77,5.94,0.92,6.3c-0.33-1.61,0.62-3.56,0.62-3.56
		c-0.31,1.58,0.3,4.24,0.3,4.24c0.92,0.79-0.04,2.97,4.42,6.69c4.46,3.72,10.75,2.36,10.75,2.36s-5.24,2.27-4.98,5.94
		c0.26,3.68,2.36,1.31,4.07,7.35c1.09,3.89,3.7,5.61,5.42,6.35c0.98-0.03,2.85-0.37,2.51-2.57c-0.46-2.95-1.25-4.4-2.75-5.51
		c-1.51-1.11-1.58-1.17-1.05-2.62c0.52-1.44-0.86-4.2,0.19-7.54c0,0,0.07,6.69,3.54,8.39c3.4,1.67,9.61-0.48,9.9-0.58
		c-0.19,0.12-3.23,2.11-6.03,2.55c-2.88,0.46-2.09,3.08-1.24,4.92c0.85,1.84,6.23,2.75,10.62,2.49c0.67-0.04,1.27-0.04,1.83,0.02
		c3.1,0.26,4.46,1.69,4.46,1.69s-3.14-0.59-7.14,0.65s-7.22,1.44-6.49,4.46c0.24,1.04,1.22,1.68,2.38,2.08
		c7-2.17,13.43-5.61,19.06-10.04c-0.29-0.01-0.46-0.02-0.46-0.02c0.58-0.26,1.11-0.57,1.6-0.91c0.6-0.48,1.19-0.98,1.75-1.49
		c2.63-2.82,3.29-6.61,1.72-7.92c-0.34-0.28-0.7-0.55-1.06-0.8c-1.92-1.34-4.05-2.3-4.05-2.3c2.01,0.1,4.13-0.58,5.88-1.36
		c2.33-1.05,3.49-3.71,2.63-6.13c-0.91-2.52-2.35-5.36-4.28-5.67c-3.53-0.57-4.02,2.14-7.69,5.34c-3.67,3.19-9.84,4.02-9.84,4.02
		c2.93-0.74,5.12-3.2,5.12-3.2c4.82-1.64,6.29-4.77,6.37-4.97c-4.98,2.09-9.91,1.61-9.91,1.61s3.24,0.13,8.87-2.58
		c5.64-2.71,6.34-5.6,6.34-5.6c-0.57-1.43,0.48-3.19,0.48-3.19c0.17,1.71,1.71,1.62,1.71,1.62c0.08-2.34-1.84-3.1-2.08-3.19
		c3.26,0.53,3.56,2.8,3.56,2.8c3.45-0.24,6.26,1.52,7.97,2.98c1.09,0.94,1.74,1.76,1.82,1.86c-0.66-0.58-1.31-1.05-1.96-1.41
		c-4.21-2.41-7.83-0.5-7.83-0.5c2.7,0.65,4.3,3.46,5.65,6.27c1.02,2.1,1.9,4.19,3.01,5.36c0.14,0.14,0.3,0.31,0.46,0.48
		c2.57-4.88,4.5-10.14,5.64-15.69c-0.96,0.99-2,1.5-2.13,1.56C231.07,95.31,233.24,93.24,233.37,91.04z M175,22.75
		c-32.71,0-59.23,26.51-59.23,59.22c0,14.37,5.13,27.53,13.65,37.79c-1.19-3.38-1.44-6.66-1.39-9.1c0.03-0.87,0-1.93-0.05-3.05
		c-0.13-3.32-0.48-7.12-0.54-7.82c-2.21-1.71-3.62-3.6-4.51-5.32c-0.56-1.07-0.92-2.08-1.14-2.94c-0.56-2.06-0.5-3.64-0.46-4.13
		c-3.17-2.35-5.69-8.53-4.35-13.44c0.87-3.15,3.46-6.39,6.94-8.06c1.51-0.73,3.2-1.16,4.99-1.16c0.23,0,0.47,0.01,0.71,0.03
		c9.87,0.66,12.23,10.8,12.46,11.96c0.27,0.19,1.13,0.87,2.17,2.01c1.11,1.05,2.39,2.56,3.24,4.49c1.36,2.69,2.24,6.53-0.16,11.37
		c-3.29,6.65-9.57,7.51-11.06,7.61c0.3,0.92,1.58,3.9,2.5,5.01c0.99,1.18,3.52,4.07,4.11,4.75l1.67-0.7
		c0.12-0.7,0.74-3.68,2.63-6.39c1.93-2.77,4.83-3.83,5.49-4.05c0.23-0.61,1.32-3.45,2.05-4.97c0.96-1.95,4.53-7.09,8.94-9.64
		c3.62-2.1,6.5-2.32,7.56-2.32h0.21c0.16-0.27,0.53-0.87,1.03-1.51c0.4-0.5,1.26-1.13,2.11-1.74c0.61-0.44,1.19-0.86,1.5-1.17
		c0.51-0.51,1.72-2.08,2.41-2.99c-0.88,0.3-2.32,0.81-3.47,1.36c-0.36,0.18-0.67,0.35-0.97,0.52c-1.15,0.64-2.02,1.14-4.53,0.99
		c-0.99-0.05-1.69-0.39-2.09-0.98c-0.51-0.77-0.38-1.74-0.28-2.2c-0.3-0.11-0.89-0.32-1.88-0.77c-1.21-0.56-1.36-1.68-1.25-2.37
		c-0.55-0.16-1.02-0.38-1.3-1.2c-0.25-0.74-0.39-1.03-1.01-1.38c-0.18-0.11-0.24-0.08-0.44,0.08c-0.23,0.19-0.55,0.45-1.19,0.34
		c-1.21-0.21-1.61-0.75-1.7-2.3c-0.04-0.74-0.01-1.46,0.04-2.3c0.04-0.9,0.1-1.92,0.05-3.13c-0.07-1.9-0.26-2.05-0.83-2.49
		c-0.09-0.07-0.2-0.15-0.3-0.24c-0.85-0.72-0.88-1.76-0.91-2.97l-0.01-0.33c-0.02-0.58-0.13-0.91-0.26-1.33
		c-0.14-0.5-0.32-1.12-0.44-2.32c-0.17-1.72-0.04-2.99,0.04-3.52c-2.69-0.43-4.46-1.49-5.26-3.14c-1.41-2.9,0.66-6.51,0.75-6.66
		l0.35-0.61l0.13,0.7c0.06,0.32,0.23,0.69,1.02,0.69c1.58,0,4.76-1.52,9.21-4.41c4.9-3.18,9.57-3.79,13.7-4.33l0.66-0.08
		c0.3-0.04,0.61-0.06,0.9-0.06c3.44,0,5.03,2.76,5.31,3.31c0.59,0.26,3.7,1.78,6.45,5.33c2.71,3.51,3.13,7.61,2.67,10.04
		c-0.4,2.09-0.39,4.87,0.82,6.44c0.57,0.74,0.79,1.37,0.63,1.88c-0.08,0.28-0.25,0.46-0.41,0.57c0.4,0.8,1.98,3.67,5.04,6.48
		c2.78,2.54,4.24,2.89,7.15,3.58c0.88,0.21,1.87,0.44,3.06,0.78c4.02,1.12,5.19,2.14,6.23,3.04c0.3,0.26,0.58,0.52,0.93,0.75
		c0.81,0.56,2.06,0.81,3.79,1.18c1.43,0.29,3.21,0.66,5.41,1.32c1.71,0.52,3.04,1.18,4.15,2.02c2.14,1.62,3.43,3.85,5.01,6.81
		c0.18,0.34,0.37,0.67,0.58,0.99c0.12-1.52,0.2-3.05,0.2-4.6C234.23,49.26,207.71,22.75,175,22.75z M120.37,87.83
		c-0.01,0.81,0.05,2.22,0.51,3.95c0.42,1.56,1.24,3.6,2.85,5.65c0.75,0.96,1.67,1.92,2.81,2.84c0.09,0.91,0.27,3.07,0.4,5.32
		c0.11,1.81,0.19,3.68,0.15,5.05c-0.02,1.33,0.04,3.05,0.34,4.98c-6.88-9.72-10.66-21.39-10.72-33.34
		C117.57,84.58,118.89,86.58,120.37,87.83z M233.28,83.32c-1.41-2.46-2.79-4.35-4.92-5.74c-1.05-0.7-2.29-1.27-3.8-1.72
		c-2.24-0.68-4.04-1.05-5.48-1.35c-1.63-0.34-2.81-0.58-3.46-1.03c-0.3-0.2-0.55-0.43-0.85-0.69c-1.11-0.96-2.37-2.06-6.59-3.23
		c-1.19-0.34-2.18-0.57-3.09-0.79c-2.85-0.67-4.14-0.98-6.74-3.36c-2.45-2.25-3.9-4.52-4.54-5.67c0.07-0.13,0.14-0.27,0.18-0.42
		c0.24-0.82-0.03-1.73-0.79-2.72c-1.02-1.32-0.98-3.89-0.64-5.69c0.5-2.63,0.05-7.03-2.86-10.79c-2.57-3.33-5.47-4.96-6.5-5.48
		c-0.59-1-2.43-3.53-5.99-3.53c-0.34,0-0.68,0.03-1.02,0.07l-0.67,0.08c-4.22,0.55-9,1.17-14.08,4.48c-6.35,4.11-8.37,4.3-8.81,4.26
		l-0.58-3.12l-1.62,2.8c-0.1,0.17-2.4,4.19-0.78,7.53c0.85,1.76,2.56,2.93,5.08,3.49c-0.05,0.72-0.07,1.69,0.05,2.85
		c0.13,1.31,0.33,2,0.48,2.51c0.12,0.39,0.2,0.63,0.21,1.09l0.01,0.32c0.04,1.32,0.08,2.68,1.25,3.66c0.12,0.1,0.22,0.18,0.32,0.27
		c0.37,0.27,0.42,0.32,0.47,1.79c0.05,1.17,0,2.16-0.05,3.06c-0.04,0.86-0.08,1.61-0.03,2.39c0.1,1.65,0.55,2.82,2.47,3.16
		c0.77,0.13,1.28-0.08,1.63-0.31c0.1,0.11,0.16,0.28,0.29,0.64c0.27,0.84,0.73,1.27,1.22,1.54c0.07,0.97,0.57,2.01,1.82,2.59
		c0.51,0.23,0.92,0.4,1.24,0.54c-0.03,0.62,0.07,1.4,0.53,2.09c0.39,0.59,1.2,1.32,2.81,1.4c2.8,0.17,3.85-0.43,5.07-1.12
		c0.27-0.15,0.56-0.31,0.91-0.48c0.06-0.03,0.11-0.06,0.18-0.09c-0.08,0.1-0.15,0.17-0.2,0.22c-0.26,0.26-0.83,0.67-1.39,1.08
		c-0.93,0.67-1.81,1.31-2.29,1.91c-0.33,0.43-0.62,0.84-0.83,1.16c-1.32,0.05-4.2,0.41-7.7,2.44c-4.61,2.66-8.32,8.01-9.32,10.05
		c-0.64,1.32-1.55,3.63-1.94,4.64c-1.2,0.46-3.73,1.66-5.52,4.24c-1.68,2.42-2.42,5.01-2.69,6.25l-0.59,0.25
		c-1.83-2.09-3.06-3.51-3.66-4.22c-0.57-0.69-1.39-2.4-1.91-3.64c2.53-0.45,7.7-2.09,10.6-7.96c2.08-4.21,2.13-8.32,0.17-12.16
		c-0.77-1.75-1.93-3.36-3.41-4.76c-0.85-0.93-1.59-1.57-2.01-1.91c-0.52-2.2-3.33-11.69-13.23-12.36c-1.91-0.13-3.73,0.21-5.39,0.9
		c-2.59,1.04-4.79,2.9-6.3,5.03c5.62-26.3,29.04-46.09,57-46.09c32.15,0,58.29,26.16,58.29,58.3
		C233.29,82.41,233.29,82.86,233.28,83.32z M172.19,69.92c-2.35-2.82-6.51-2.42-6.98-2.36c0.24,0,1.62,0.11,4.84,2.39
		c3.58,2.53,3.98,6,3.98,6S174.68,72.9,172.19,69.92z M183.07,96.74c0.4-1.51,0.92-4.19,1.18-5.7c0.27-1.51-0.06-2.43-0.06-2.43
		c-0.2,2.49-1.71,7.54-3.28,8.52c-1.58,0.99-5.18,0.86-5.18,0.86s3.67,0.26,4.46,1.11c0.78,0.85-0.38,3.56,0.81,6.17
		c0,0-0.87-5.29,1.16-5.97c1.15-0.38,2.02-0.08,2.28,0.03C184.12,99.09,182.72,98.07,183.07,96.74z M184.73,108.17
		c-3.34-2.94-3.32-5.5-3.28-5.99c-0.14,0.93-1.1,9.46,11.39,8.85C191.58,111.05,187.79,110.87,184.73,108.17z M184.73,108.17
		c-3.34-2.94-3.32-5.5-3.28-5.99c-0.14,0.93-1.1,9.46,11.39,8.85C191.58,111.05,187.79,110.87,184.73,108.17z M183.07,96.74
		c0.4-1.51,0.92-4.19,1.18-5.7c0.27-1.51-0.06-2.43-0.06-2.43c-0.2,2.49-1.71,7.54-3.28,8.52c-1.58,0.99-5.18,0.86-5.18,0.86
		s3.67,0.26,4.46,1.11c0.78,0.85-0.38,3.56,0.81,6.17c0,0-0.87-5.29,1.16-5.97c1.15-0.38,2.02-0.08,2.28,0.03
		C184.12,99.09,182.72,98.07,183.07,96.74z M172.19,69.92c-2.35-2.82-6.51-2.42-6.98-2.36c0.24,0,1.62,0.11,4.84,2.39
		c3.58,2.53,3.98,6,3.98,6S174.68,72.9,172.19,69.92z M172.19,69.92c-2.35-2.82-6.51-2.42-6.98-2.36c0.24,0,1.62,0.11,4.84,2.39
		c3.58,2.53,3.98,6,3.98,6S174.68,72.9,172.19,69.92z M183.07,96.74c0.4-1.51,0.92-4.19,1.18-5.7c0.27-1.51-0.06-2.43-0.06-2.43
		c-0.2,2.49-1.71,7.54-3.28,8.52c-1.58,0.99-5.18,0.86-5.18,0.86s3.67,0.26,4.46,1.11c0.78,0.85-0.38,3.56,0.81,6.17
		c0,0-0.87-5.29,1.16-5.97c1.15-0.38,2.02-0.08,2.28,0.03C184.12,99.09,182.72,98.07,183.07,96.74z M184.73,108.17
		c-3.34-2.94-3.32-5.5-3.28-5.99c-0.14,0.93-1.1,9.46,11.39,8.85C191.58,111.05,187.79,110.87,184.73,108.17z M184.73,108.17
		c-3.34-2.94-3.32-5.5-3.28-5.99c-0.14,0.93-1.1,9.46,11.39,8.85C191.58,111.05,187.79,110.87,184.73,108.17z M183.07,96.74
		c0.4-1.51,0.92-4.19,1.18-5.7c0.27-1.51-0.06-2.43-0.06-2.43c-0.2,2.49-1.71,7.54-3.28,8.52c-1.58,0.99-5.18,0.86-5.18,0.86
		s3.67,0.26,4.46,1.11c0.78,0.85-0.38,3.56,0.81,6.17c0,0-0.87-5.29,1.16-5.97c1.15-0.38,2.02-0.08,2.28,0.03
		C184.12,99.09,182.72,98.07,183.07,96.74z M172.19,69.92c-2.35-2.82-6.51-2.42-6.98-2.36c0.24,0,1.62,0.11,4.84,2.39
		c3.58,2.53,3.98,6,3.98,6S174.68,72.9,172.19,69.92z M172.19,69.92c-2.35-2.82-6.51-2.42-6.98-2.36c0.24,0,1.62,0.11,4.84,2.39
		c3.58,2.53,3.98,6,3.98,6S174.68,72.9,172.19,69.92z M183.07,96.74c0.4-1.51,0.92-4.19,1.18-5.7c0.27-1.51-0.06-2.43-0.06-2.43
		c-0.2,2.49-1.71,7.54-3.28,8.52c-1.58,0.99-5.18,0.86-5.18,0.86s3.67,0.26,4.46,1.11c0.78,0.85-0.38,3.56,0.81,6.17
		c0,0-0.87-5.29,1.16-5.97c1.15-0.38,2.02-0.08,2.28,0.03C184.12,99.09,182.72,98.07,183.07,96.74z M184.73,108.17
		c-3.34-2.94-3.32-5.5-3.28-5.99c-0.14,0.93-1.1,9.46,11.39,8.85C191.58,111.05,187.79,110.87,184.73,108.17z M184.73,108.17
		c-3.34-2.94-3.32-5.5-3.28-5.99c-0.14,0.93-1.1,9.46,11.39,8.85C191.58,111.05,187.79,110.87,184.73,108.17z M183.07,96.74
		c0.4-1.51,0.92-4.19,1.18-5.7c0.27-1.51-0.06-2.43-0.06-2.43c-0.2,2.49-1.71,7.54-3.28,8.52c-1.58,0.99-5.18,0.86-5.18,0.86
		s3.67,0.26,4.46,1.11c0.78,0.85-0.38,3.56,0.81,6.17c0,0-0.87-5.29,1.16-5.97c1.15-0.38,2.02-0.08,2.28,0.03
		C184.12,99.09,182.72,98.07,183.07,96.74z M172.19,69.92c-2.35-2.82-6.51-2.42-6.98-2.36c0.24,0,1.62,0.11,4.84,2.39
		c3.58,2.53,3.98,6,3.98,6S174.68,72.9,172.19,69.92z M172.19,69.92c-2.35-2.82-6.51-2.42-6.98-2.36c0.24,0,1.62,0.11,4.84,2.39
		c3.58,2.53,3.98,6,3.98,6S174.68,72.9,172.19,69.92z M183.07,96.74c0.4-1.51,0.92-4.19,1.18-5.7c0.27-1.51-0.06-2.43-0.06-2.43
		c-0.2,2.49-1.71,7.54-3.28,8.52c-1.58,0.99-5.18,0.86-5.18,0.86s3.67,0.26,4.46,1.11c0.78,0.85-0.38,3.56,0.81,6.17
		c0,0-0.87-5.29,1.16-5.97c1.15-0.38,2.02-0.08,2.28,0.03C184.12,99.09,182.72,98.07,183.07,96.74z M184.73,108.17
		c-3.34-2.94-3.32-5.5-3.28-5.99c-0.14,0.93-1.1,9.46,11.39,8.85C191.58,111.05,187.79,110.87,184.73,108.17z M184.73,108.17
		c-3.34-2.94-3.32-5.5-3.28-5.99c-0.14,0.93-1.1,9.46,11.39,8.85C191.58,111.05,187.79,110.87,184.73,108.17z M183.07,96.74
		c0.4-1.51,0.92-4.19,1.18-5.7c0.27-1.51-0.06-2.43-0.06-2.43c-0.2,2.49-1.71,7.54-3.28,8.52c-1.58,0.99-5.18,0.86-5.18,0.86
		s3.67,0.26,4.46,1.11c0.78,0.85-0.38,3.56,0.81,6.17c0,0-0.87-5.29,1.16-5.97c1.15-0.38,2.02-0.08,2.28,0.03
		C184.12,99.09,182.72,98.07,183.07,96.74z M172.19,69.92c-2.35-2.82-6.51-2.42-6.98-2.36c0.24,0,1.62,0.11,4.84,2.39
		c3.58,2.53,3.98,6,3.98,6S174.68,72.9,172.19,69.92z M172.19,69.92c-2.35-2.82-6.51-2.42-6.98-2.36c0.24,0,1.62,0.11,4.84,2.39
		c3.58,2.53,3.98,6,3.98,6S174.68,72.9,172.19,69.92z M183.07,96.74c0.4-1.51,0.92-4.19,1.18-5.7c0.27-1.51-0.06-2.43-0.06-2.43
		c-0.2,2.49-1.71,7.54-3.28,8.52c-1.58,0.99-5.18,0.86-5.18,0.86s3.67,0.26,4.46,1.11c0.78,0.85-0.38,3.56,0.81,6.17
		c0,0-0.87-5.29,1.16-5.97c1.15-0.38,2.02-0.08,2.28,0.03C184.12,99.09,182.72,98.07,183.07,96.74z M184.73,108.17
		c-3.34-2.94-3.32-5.5-3.28-5.99c-0.14,0.93-1.1,9.46,11.39,8.85C191.58,111.05,187.79,110.87,184.73,108.17z M184.73,108.17
		c-3.34-2.94-3.32-5.5-3.28-5.99c-0.14,0.93-1.1,9.46,11.39,8.85C191.58,111.05,187.79,110.87,184.73,108.17z M183.07,96.74
		c0.4-1.51,0.92-4.19,1.18-5.7c0.27-1.51-0.06-2.43-0.06-2.43c-0.2,2.49-1.71,7.54-3.28,8.52c-1.58,0.99-5.18,0.86-5.18,0.86
		s3.67,0.26,4.46,1.11c0.78,0.85-0.38,3.56,0.81,6.17c0,0-0.87-5.29,1.16-5.97c1.15-0.38,2.02-0.08,2.28,0.03
		C184.12,99.09,182.72,98.07,183.07,96.74z M172.19,69.92c-2.35-2.82-6.51-2.42-6.98-2.36c0.24,0,1.62,0.11,4.84,2.39
		c3.58,2.53,3.98,6,3.98,6S174.68,72.9,172.19,69.92z M172.19,69.92c-2.35-2.82-6.51-2.42-6.98-2.36c0.24,0,1.62,0.11,4.84,2.39
		c3.58,2.53,3.98,6,3.98,6S174.68,72.9,172.19,69.92z M178.84,58.83c1.56,1.1,1.45,4.06,1.45,4.06
		C181.2,59.72,179.07,58.9,178.84,58.83z M183.07,96.74c0.4-1.51,0.92-4.19,1.18-5.7c0.27-1.51-0.06-2.43-0.06-2.43
		c-0.2,2.49-1.71,7.54-3.28,8.52c-1.58,0.99-5.18,0.86-5.18,0.86s3.67,0.26,4.46,1.11c0.78,0.85-0.38,3.56,0.81,6.17
		c0,0-0.87-5.29,1.16-5.97c1.15-0.38,2.02-0.08,2.28,0.03C184.12,99.09,182.72,98.07,183.07,96.74z M184.73,108.17
		c-3.34-2.94-3.32-5.5-3.28-5.99c-0.14,0.93-1.1,9.46,11.39,8.85C191.58,111.05,187.79,110.87,184.73,108.17z M184.73,108.17
		c-3.34-2.94-3.32-5.5-3.28-5.99c-0.14,0.93-1.1,9.46,11.39,8.85C191.58,111.05,187.79,110.87,184.73,108.17z M183.07,96.74
		c0.4-1.51,0.92-4.19,1.18-5.7c0.27-1.51-0.06-2.43-0.06-2.43c-0.2,2.49-1.71,7.54-3.28,8.52c-1.58,0.99-5.18,0.86-5.18,0.86
		s3.67,0.26,4.46,1.11c0.78,0.85-0.38,3.56,0.81,6.17c0,0-0.87-5.29,1.16-5.97c1.15-0.38,2.02-0.08,2.28,0.03
		C184.12,99.09,182.72,98.07,183.07,96.74z M178.84,58.83c1.56,1.1,1.45,4.06,1.45,4.06C181.2,59.72,179.07,58.9,178.84,58.83z
		 M172.19,69.92c-2.35-2.82-6.51-2.42-6.98-2.36c0.24,0,1.62,0.11,4.84,2.39c3.58,2.53,3.98,6,3.98,6S174.68,72.9,172.19,69.92z
		 M128.4,100.09c-0.16-0.11-0.31-0.19-0.44-0.27c0,0.01,0,0.01,0.01,0.02c0.15,0.1,0.3,0.21,0.44,0.3
		C128.41,100.12,128.41,100.1,128.4,100.09z M141.69,77.08l-0.08-0.06l-0.01-0.05c-0.14-0.07-0.29-0.15-0.46-0.24
		c0,0.07,0.02,0.13,0.03,0.18l0.07,0.35l0.29,0.2c0.19,0.16,0.89,0.7,1.79,1.65c0.57,0.31,1.03,0.64,1.39,0.97
		C143.15,78.13,141.71,77.1,141.69,77.08z M172.19,69.92c-2.35-2.82-6.51-2.42-6.98-2.36c0.24,0,1.62,0.11,4.84,2.39
		c3.58,2.53,3.98,6,3.98,6S174.68,72.9,172.19,69.92z M178.84,58.83c1.56,1.1,1.45,4.06,1.45,4.06
		C181.2,59.72,179.07,58.9,178.84,58.83z M183.07,96.74c0.4-1.51,0.92-4.19,1.18-5.7c0.27-1.51-0.06-2.43-0.06-2.43
		c-0.2,2.49-1.71,7.54-3.28,8.52c-1.58,0.99-5.18,0.86-5.18,0.86s3.67,0.26,4.46,1.11c0.78,0.85-0.38,3.56,0.81,6.17
		c0,0-0.87-5.29,1.16-5.97c1.15-0.38,2.02-0.08,2.28,0.03C184.12,99.09,182.72,98.07,183.07,96.74z M184.73,108.17
		c-3.34-2.94-3.32-5.5-3.28-5.99c-0.14,0.93-1.1,9.46,11.39,8.85C191.58,111.05,187.79,110.87,184.73,108.17z M224.38,111.41
		c-0.39,0.86-1.49,3.37-2.53,6.78c1.38-1.79,2.68-3.65,3.85-5.59C225.11,112.08,224.65,111.66,224.38,111.41z M226.23,97.56
		c-0.04,0.15-0.09,0.3-0.14,0.45c0.65,0.36,1.3,0.83,1.96,1.41C227.97,99.32,227.32,98.5,226.23,97.56z M128.4,100.09
		c-0.16-0.11-0.31-0.19-0.44-0.27c0,0.01,0,0.01,0.01,0.02c0.15,0.1,0.3,0.21,0.44,0.3C128.41,100.12,128.41,100.1,128.4,100.09z
		 M141.69,77.08l-0.08-0.06l-0.01-0.05c-0.14-0.07-0.29-0.15-0.46-0.24c0,0.07,0.02,0.13,0.03,0.18l0.07,0.35l0.29,0.2
		c0.19,0.16,0.89,0.7,1.79,1.65c0.57,0.31,1.03,0.64,1.39,0.97C143.15,78.13,141.71,77.1,141.69,77.08z M172.19,69.92
		c-2.35-2.82-6.51-2.42-6.98-2.36c0.24,0,1.62,0.11,4.84,2.39c3.58,2.53,3.98,6,3.98,6S174.68,72.9,172.19,69.92z M178.84,58.83
		c1.56,1.1,1.45,4.06,1.45,4.06C181.2,59.72,179.07,58.9,178.84,58.83z M183.07,96.74c0.4-1.51,0.92-4.19,1.18-5.7
		c0.27-1.51-0.06-2.43-0.06-2.43c-0.2,2.49-1.71,7.54-3.28,8.52c-1.58,0.99-5.18,0.86-5.18,0.86s3.67,0.26,4.46,1.11
		c0.78,0.85-0.38,3.56,0.81,6.17c0,0-0.87-5.29,1.16-5.97c1.15-0.38,2.02-0.08,2.28,0.03C184.12,99.09,182.72,98.07,183.07,96.74z
		 M184.73,108.17c-3.34-2.94-3.32-5.5-3.28-5.99c-0.14,0.93-1.1,9.46,11.39,8.85C191.58,111.05,187.79,110.87,184.73,108.17z
		 M184.73,108.17c-3.34-2.94-3.32-5.5-3.28-5.99c-0.14,0.93-1.1,9.46,11.39,8.85C191.58,111.05,187.79,110.87,184.73,108.17z
		 M183.07,96.74c0.4-1.51,0.92-4.19,1.18-5.7c0.27-1.51-0.06-2.43-0.06-2.43c-0.2,2.49-1.71,7.54-3.28,8.52
		c-1.58,0.99-5.18,0.86-5.18,0.86s3.67,0.26,4.46,1.11c0.78,0.85-0.38,3.56,0.81,6.17c0,0-0.87-5.29,1.16-5.97
		c1.15-0.38,2.02-0.08,2.28,0.03C184.12,99.09,182.72,98.07,183.07,96.74z M178.84,58.83c1.56,1.1,1.45,4.06,1.45,4.06
		C181.2,59.72,179.07,58.9,178.84,58.83z M172.19,69.92c-2.35-2.82-6.51-2.42-6.98-2.36c0.24,0,1.62,0.11,4.84,2.39
		c3.58,2.53,3.98,6,3.98,6S174.68,72.9,172.19,69.92z M141.69,77.08l-0.08-0.06l-0.01-0.05c-0.14-0.07-0.29-0.15-0.46-0.24
		c0,0.07,0.02,0.13,0.03,0.18l0.07,0.35l0.29,0.2c0.19,0.16,0.89,0.7,1.79,1.65c0.57,0.31,1.03,0.64,1.39,0.97
		C143.15,78.13,141.71,77.1,141.69,77.08z M128.4,100.09c-0.16-0.11-0.31-0.19-0.44-0.27c0,0.01,0,0.01,0.01,0.02
		c0.15,0.1,0.3,0.21,0.44,0.3C128.41,100.12,128.41,100.1,128.4,100.09z M172.19,69.92c-2.35-2.82-6.51-2.42-6.98-2.36
		c0.24,0,1.62,0.11,4.84,2.39c3.58,2.53,3.98,6,3.98,6S174.68,72.9,172.19,69.92z M178.84,58.83c1.56,1.1,1.45,4.06,1.45,4.06
		C181.2,59.72,179.07,58.9,178.84,58.83z M183.07,96.74c0.4-1.51,0.92-4.19,1.18-5.7c0.27-1.51-0.06-2.43-0.06-2.43
		c-0.2,2.49-1.71,7.54-3.28,8.52c-1.58,0.99-5.18,0.86-5.18,0.86s3.67,0.26,4.46,1.11c0.78,0.85-0.38,3.56,0.81,6.17
		c0,0-0.87-5.29,1.16-5.97c1.15-0.38,2.02-0.08,2.28,0.03C184.12,99.09,182.72,98.07,183.07,96.74z M184.73,108.17
		c-3.34-2.94-3.32-5.5-3.28-5.99c-0.14,0.93-1.1,9.46,11.39,8.85C191.58,111.05,187.79,110.87,184.73,108.17z M184.73,108.17
		c-3.34-2.94-3.32-5.5-3.28-5.99c-0.14,0.93-1.1,9.46,11.39,8.85C191.58,111.05,187.79,110.87,184.73,108.17z M183.07,96.74
		c0.4-1.51,0.92-4.19,1.18-5.7c0.27-1.51-0.06-2.43-0.06-2.43c-0.2,2.49-1.71,7.54-3.28,8.52c-1.58,0.99-5.18,0.86-5.18,0.86
		s3.67,0.26,4.46,1.11c0.78,0.85-0.38,3.56,0.81,6.17c0,0-0.87-5.29,1.16-5.97c1.15-0.38,2.02-0.08,2.28,0.03
		C184.12,99.09,182.72,98.07,183.07,96.74z M178.84,58.83c1.56,1.1,1.45,4.06,1.45,4.06C181.2,59.72,179.07,58.9,178.84,58.83z
		 M172.19,69.92c-2.35-2.82-6.51-2.42-6.98-2.36c0.24,0,1.62,0.11,4.84,2.39c3.58,2.53,3.98,6,3.98,6S174.68,72.9,172.19,69.92z
		 M172.19,69.92c-2.35-2.82-6.51-2.42-6.98-2.36c0.24,0,1.62,0.11,4.84,2.39c3.58,2.53,3.98,6,3.98,6S174.68,72.9,172.19,69.92z
		 M183.07,96.74c0.4-1.51,0.92-4.19,1.18-5.7c0.27-1.51-0.06-2.43-0.06-2.43c-0.2,2.49-1.71,7.54-3.28,8.52
		c-1.58,0.99-5.18,0.86-5.18,0.86s3.67,0.26,4.46,1.11c0.78,0.85-0.38,3.56,0.81,6.17c0,0-0.87-5.29,1.16-5.97
		c1.15-0.38,2.02-0.08,2.28,0.03C184.12,99.09,182.72,98.07,183.07,96.74z M184.73,108.17c-3.34-2.94-3.32-5.5-3.28-5.99
		c-0.14,0.93-1.1,9.46,11.39,8.85C191.58,111.05,187.79,110.87,184.73,108.17z M184.73,108.17c-3.34-2.94-3.32-5.5-3.28-5.99
		c-0.14,0.93-1.1,9.46,11.39,8.85C191.58,111.05,187.79,110.87,184.73,108.17z M183.07,96.74c0.4-1.51,0.92-4.19,1.18-5.7
		c0.27-1.51-0.06-2.43-0.06-2.43c-0.2,2.49-1.71,7.54-3.28,8.52c-1.58,0.99-5.18,0.86-5.18,0.86s3.67,0.26,4.46,1.11
		c0.78,0.85-0.38,3.56,0.81,6.17c0,0-0.87-5.29,1.16-5.97c1.15-0.38,2.02-0.08,2.28,0.03C184.12,99.09,182.72,98.07,183.07,96.74z
		 M172.19,69.92c-2.35-2.82-6.51-2.42-6.98-2.36c0.24,0,1.62,0.11,4.84,2.39c3.58,2.53,3.98,6,3.98,6S174.68,72.9,172.19,69.92z
		 M172.19,69.92c-2.35-2.82-6.51-2.42-6.98-2.36c0.24,0,1.62,0.11,4.84,2.39c3.58,2.53,3.98,6,3.98,6S174.68,72.9,172.19,69.92z
		 M183.07,96.74c0.4-1.51,0.92-4.19,1.18-5.7c0.27-1.51-0.06-2.43-0.06-2.43c-0.2,2.49-1.71,7.54-3.28,8.52
		c-1.58,0.99-5.18,0.86-5.18,0.86s3.67,0.26,4.46,1.11c0.78,0.85-0.38,3.56,0.81,6.17c0,0-0.87-5.29,1.16-5.97
		c1.15-0.38,2.02-0.08,2.28,0.03C184.12,99.09,182.72,98.07,183.07,96.74z M184.73,108.17c-3.34-2.94-3.32-5.5-3.28-5.99
		c-0.14,0.93-1.1,9.46,11.39,8.85C191.58,111.05,187.79,110.87,184.73,108.17z M184.73,108.17c-3.34-2.94-3.32-5.5-3.28-5.99
		c-0.14,0.93-1.1,9.46,11.39,8.85C191.58,111.05,187.79,110.87,184.73,108.17z M183.07,96.74c0.4-1.51,0.92-4.19,1.18-5.7
		c0.27-1.51-0.06-2.43-0.06-2.43c-0.2,2.49-1.71,7.54-3.28,8.52c-1.58,0.99-5.18,0.86-5.18,0.86s3.67,0.26,4.46,1.11
		c0.78,0.85-0.38,3.56,0.81,6.17c0,0-0.87-5.29,1.16-5.97c1.15-0.38,2.02-0.08,2.28,0.03C184.12,99.09,182.72,98.07,183.07,96.74z
		 M172.19,69.92c-2.35-2.82-6.51-2.42-6.98-2.36c0.24,0,1.62,0.11,4.84,2.39c3.58,2.53,3.98,6,3.98,6S174.68,72.9,172.19,69.92z
		 M172.19,69.92c-2.35-2.82-6.51-2.42-6.98-2.36c0.24,0,1.62,0.11,4.84,2.39c3.58,2.53,3.98,6,3.98,6S174.68,72.9,172.19,69.92z
		 M183.07,96.74c0.4-1.51,0.92-4.19,1.18-5.7c0.27-1.51-0.06-2.43-0.06-2.43c-0.2,2.49-1.71,7.54-3.28,8.52
		c-1.58,0.99-5.18,0.86-5.18,0.86s3.67,0.26,4.46,1.11c0.78,0.85-0.38,3.56,0.81,6.17c0,0-0.87-5.29,1.16-5.97
		c1.15-0.38,2.02-0.08,2.28,0.03C184.12,99.09,182.72,98.07,183.07,96.74z M184.73,108.17c-3.34-2.94-3.32-5.5-3.28-5.99
		c-0.14,0.93-1.1,9.46,11.39,8.85C191.58,111.05,187.79,110.87,184.73,108.17z M184.73,108.17c-3.34-2.94-3.32-5.5-3.28-5.99
		c-0.14,0.93-1.1,9.46,11.39,8.85C191.58,111.05,187.79,110.87,184.73,108.17z M183.07,96.74c0.4-1.51,0.92-4.19,1.18-5.7
		c0.27-1.51-0.06-2.43-0.06-2.43c-0.2,2.49-1.71,7.54-3.28,8.52c-1.58,0.99-5.18,0.86-5.18,0.86s3.67,0.26,4.46,1.11
		c0.78,0.85-0.38,3.56,0.81,6.17c0,0-0.87-5.29,1.16-5.97c1.15-0.38,2.02-0.08,2.28,0.03C184.12,99.09,182.72,98.07,183.07,96.74z
		 M172.19,69.92c-2.35-2.82-6.51-2.42-6.98-2.36c0.24,0,1.62,0.11,4.84,2.39c3.58,2.53,3.98,6,3.98,6S174.68,72.9,172.19,69.92z
		 M172.19,69.92c-2.35-2.82-6.51-2.42-6.98-2.36c0.24,0,1.62,0.11,4.84,2.39c3.58,2.53,3.98,6,3.98,6S174.68,72.9,172.19,69.92z
		 M183.07,96.74c0.4-1.51,0.92-4.19,1.18-5.7c0.27-1.51-0.06-2.43-0.06-2.43c-0.2,2.49-1.71,7.54-3.28,8.52
		c-1.58,0.99-5.18,0.86-5.18,0.86s3.67,0.26,4.46,1.11c0.78,0.85-0.38,3.56,0.81,6.17c0,0-0.87-5.29,1.16-5.97
		c1.15-0.38,2.02-0.08,2.28,0.03C184.12,99.09,182.72,98.07,183.07,96.74z M184.73,108.17c-3.34-2.94-3.32-5.5-3.28-5.99
		c-0.14,0.93-1.1,9.46,11.39,8.85C191.58,111.05,187.79,110.87,184.73,108.17z M184.73,108.17c-3.34-2.94-3.32-5.5-3.28-5.99
		c-0.14,0.93-1.1,9.46,11.39,8.85C191.58,111.05,187.79,110.87,184.73,108.17z M183.07,96.74c0.4-1.51,0.92-4.19,1.18-5.7
		c0.27-1.51-0.06-2.43-0.06-2.43c-0.2,2.49-1.71,7.54-3.28,8.52c-1.58,0.99-5.18,0.86-5.18,0.86s3.67,0.26,4.46,1.11
		c0.78,0.85-0.38,3.56,0.81,6.17c0,0-0.87-5.29,1.16-5.97c1.15-0.38,2.02-0.08,2.28,0.03C184.12,99.09,182.72,98.07,183.07,96.74z
		 M172.19,69.92c-2.35-2.82-6.51-2.42-6.98-2.36c0.24,0,1.62,0.11,4.84,2.39c3.58,2.53,3.98,6,3.98,6S174.68,72.9,172.19,69.92z
		 M128.4,100.09c-0.16-0.11-0.31-0.19-0.44-0.27c0,0.01,0,0.01,0.01,0.02c0.15,0.1,0.3,0.21,0.44,0.3
		C128.41,100.12,128.41,100.1,128.4,100.09z M141.69,77.08l-0.08-0.06l-0.01-0.05c-0.14-0.07-0.29-0.15-0.46-0.24
		c0,0.07,0.02,0.13,0.03,0.18l0.07,0.35l0.29,0.2c0.19,0.16,0.89,0.7,1.79,1.65c0.57,0.31,1.03,0.64,1.39,0.97
		C143.15,78.13,141.71,77.1,141.69,77.08z M141.69,77.08l-0.08-0.06l-0.01-0.05c-0.14-0.07-0.29-0.15-0.46-0.24
		c0,0.07,0.02,0.13,0.03,0.18l0.07,0.35l0.29,0.2c0.19,0.16,0.89,0.7,1.79,1.65c0.57,0.31,1.03,0.64,1.39,0.97
		C143.15,78.13,141.71,77.1,141.69,77.08z M141.69,77.08l-0.08-0.06l-0.01-0.05c-0.14-0.07-0.29-0.15-0.46-0.24
		c0,0.07,0.02,0.13,0.03,0.18l0.07,0.35l0.29,0.2c0.19,0.16,0.89,0.7,1.79,1.65c0.57,0.31,1.03,0.64,1.39,0.97
		C143.15,78.13,141.71,77.1,141.69,77.08z M139.92,73.53c-0.37-0.31-0.79-0.83-1.24-1.71c-1.18-2.29-3.67-3.73-7.09-4.07
		c-4.11-0.39-7.09,1.37-8.95,3.05c-1.36,1.22-2.12,2.4-2.29,2.68c0.63-1.43,1.48-2.52,2.44-3.39c3.86-3.49,9.4-2.99,9.4-2.99
		c-2.3-0.63-6.08,0.06-9.19,2.09c-2.39,1.57-4.38,3.92-4.98,7.09c-0.2,1.07-0.26,2.07-0.23,2.98c0.01,0.12,0.02,0.23,0.02,0.35
		c-0.31-1.34-0.55-3.28,0.07-5.36c0.01-0.06,0.03-0.13,0.05-0.19c0.02-0.07,0.04-0.13,0.06-0.2c0.02-0.08,0.05-0.17,0.08-0.25
		c0.02-0.08,0.05-0.17,0.09-0.25c0.03-0.1,0.07-0.21,0.12-0.31c0.03-0.08,0.07-0.16,0.11-0.24c0-0.02,0.01-0.03,0.01-0.04
		c0.07-0.15,0.15-0.3,0.22-0.45c1.02-2.03,2.75-3.94,4.92-5.19c0.95-0.54,1.98-0.95,3.08-1.18c0.14-0.05,0.28-0.07,0.42-0.1
		c0.16-0.03,0.32-0.05,0.47-0.07c0.08-0.02,0.17-0.03,0.26-0.03c0.37-0.06,0.75-0.08,1.14-0.08c0.22,0,0.43,0.01,0.65,0.03
		c0.12,0,0.24,0.01,0.36,0.04h0.04c0.18,0.01,0.36,0.03,0.54,0.06c0.67,0.08,1.31,0.2,1.92,0.39c0.15,0.04,0.3,0.09,0.45,0.13
		c0.18,0.06,0.36,0.13,0.53,0.2c0.18,0.06,0.36,0.14,0.54,0.22c0.19,0.09,0.38,0.18,0.55,0.28c0.16,0.08,0.32,0.17,0.47,0.27
		c0.16,0.09,0.31,0.19,0.46,0.3c0.19,0.13,0.37,0.28,0.54,0.43c0.26,0.23,0.53,0.48,0.79,0.76c0,0,0,0,0.01,0.01
		C138.12,70.19,139.41,72.05,139.92,73.53z M144.24,82.3c-2.34-1.9-5.76-2.33-8.2-2.24c-4.5,0.18-12.28,5.89-10.01,14.05
		c0.52,1.85,1.45,3.24,2.61,4.26c-1.86-1.29-4.33-4.42-3.62-9.13c0.72-4.75,6.25-8.58,6.66-8.85c-0.31,0.14-3.93,1.88-5.16,3.63
		c0.11-0.22,1.04-1.99,2.43-3.05c-0.64,0.45-2.48,1.82-3.27,2.93c0.08-0.17,1.4-2.84,4.36-4.62c0,0-3.1,0.87-5.73,6.08
		c-1.26,2.51-1.34,5.1-1.09,7.12c-1-2.89-0.74-5.11-0.74-5.11l-0.2-0.12l-0.59-0.36l-0.11-0.06c0-0.14,0-0.27,0.02-0.42
		c0-0.09,0-0.17,0.03-0.26c0.31-2.73,2.63-6.83,6.09-8.92c1.4-0.7,3.29-1.4,5.58-1.7c3.54-0.47,6.37,0.53,7.84,1.2
		c0,0.07,0.02,0.13,0.03,0.18l0.07,0.35l0.29,0.2c0.19,0.16,0.89,0.7,1.79,1.65c-0.77-0.43-1.74-0.81-2.96-1.06
		c-0.85-0.17,0.27,1.71,0.27,1.71S143.23,80.79,144.24,82.3z"/>
	<path class="st15" d="M141.69,77.08l-0.08-0.06l-0.01-0.05c-0.14-0.07-0.29-0.15-0.46-0.24c0,0.07,0.02,0.13,0.03,0.18l0.07,0.35
		l0.29,0.2c0.19,0.16,0.89,0.7,1.79,1.65c0.57,0.31,1.03,0.64,1.39,0.97C143.15,78.13,141.71,77.1,141.69,77.08z M128.4,100.09
		c-0.16-0.11-0.31-0.19-0.44-0.27c0,0.01,0,0.01,0.01,0.02c0.15,0.1,0.3,0.21,0.44,0.3C128.41,100.12,128.41,100.1,128.4,100.09z
		 M126.54,100.27c-1.14-0.92-2.06-1.88-2.81-2.84c0.85,2.82,1.93,5.56,3.21,8.16C126.81,103.34,126.63,101.18,126.54,100.27z
		 M175,28.43c-23.53,0-43.53,15.19-50.7,36.3c1.66-0.69,3.48-1.03,5.39-0.9c9.9,0.67,12.71,10.16,13.23,12.36
		c0.42,0.34,1.16,0.98,2.01,1.91c1.48,1.4,2.64,3.01,3.41,4.76c1.96,3.84,1.91,7.95-0.17,12.16c-2.9,5.87-8.07,7.51-10.6,7.96
		c0.52,1.24,1.34,2.95,1.91,3.64c0.6,0.71,1.83,2.13,3.66,4.22l0.59-0.25c0.27-1.24,1.01-3.83,2.69-6.25
		c1.79-2.58,4.32-3.78,5.52-4.24c0.39-1.01,1.3-3.32,1.94-4.64c1-2.04,4.71-7.39,9.32-10.05c3.5-2.03,6.38-2.39,7.7-2.44
		c0.21-0.32,0.5-0.73,0.83-1.16c0.48-0.6,1.36-1.24,2.29-1.91c0.56-0.41,1.13-0.82,1.39-1.08c0.05-0.05,0.12-0.12,0.2-0.22
		c-0.07,0.03-0.12,0.06-0.18,0.09c-0.35,0.17-0.64,0.33-0.91,0.48c-1.22,0.69-2.27,1.29-5.07,1.12c-1.61-0.08-2.42-0.81-2.81-1.4
		c-0.46-0.69-0.56-1.47-0.53-2.09c-0.32-0.14-0.73-0.31-1.24-0.54c-1.25-0.58-1.75-1.62-1.82-2.59c-0.49-0.27-0.95-0.7-1.22-1.54
		c-0.13-0.36-0.19-0.53-0.29-0.64c-0.35,0.23-0.86,0.44-1.63,0.31c-1.92-0.34-2.37-1.51-2.47-3.16c-0.05-0.78-0.01-1.53,0.03-2.39
		c0.05-0.9,0.1-1.89,0.05-3.06c-0.05-1.47-0.1-1.52-0.47-1.79c-0.1-0.09-0.2-0.17-0.32-0.27c-1.17-0.98-1.21-2.34-1.25-3.66
		l-0.01-0.32c-0.01-0.46-0.09-0.7-0.21-1.09c-0.15-0.51-0.35-1.2-0.48-2.51c-0.12-1.16-0.1-2.13-0.05-2.85
		c-2.52-0.56-4.23-1.73-5.08-3.49c-1.62-3.34,0.68-7.36,0.78-7.53l1.62-2.8l0.58,3.12c0.44,0.04,2.46-0.15,8.81-4.26
		c5.08-3.31,9.86-3.93,14.08-4.48l0.67-0.08c0.34-0.04,0.68-0.07,1.02-0.07c3.56,0,5.4,2.53,5.99,3.53c1.03,0.52,3.93,2.15,6.5,5.48
		c2.91,3.76,3.36,8.16,2.86,10.79c-0.34,1.8-0.38,4.37,0.64,5.69c0.76,0.99,1.03,1.9,0.79,2.72c-0.04,0.15-0.11,0.29-0.18,0.42
		c0.64,1.15,2.09,3.42,4.54,5.67c2.6,2.38,3.89,2.69,6.74,3.36c0.91,0.22,1.9,0.45,3.09,0.79c4.22,1.17,5.48,2.27,6.59,3.23
		c0.3,0.26,0.55,0.49,0.85,0.69c0.65,0.45,1.83,0.69,3.46,1.03c1.44,0.3,3.24,0.67,5.48,1.35c1.51,0.45,2.75,1.02,3.8,1.72
		C226.13,50.07,203.09,28.43,175,28.43z M176.55,135.1c-0.61-4.14-1-4.57-2.86-6.64l-0.3-0.34c-1.52-1.71-1.74-3.26-2.03-5.23
		c-0.18-1.26-0.4-2.82-1.05-4.87c-0.79-2.44-1.89-3.95-2.74-4.84c-0.31,1.21-0.83,2.9-1.62,4.74c-1.75,4.04-3.91,6.7-7.98,9.83
		c-1.23,0.95-2.85,2.07-4.63,3.19c6.63,2.94,13.96,4.57,21.66,4.57c0.54,0,1.08,0,1.61-0.02
		C176.59,135.36,176.57,135.23,176.55,135.1z M184.73,108.17c-3.34-2.94-3.32-5.5-3.28-5.99c-0.14,0.93-1.1,9.46,11.39,8.85
		C191.58,111.05,187.79,110.87,184.73,108.17z M183.07,96.74c0.4-1.51,0.92-4.19,1.18-5.7c0.27-1.51-0.06-2.43-0.06-2.43
		c-0.2,2.49-1.71,7.54-3.28,8.52c-1.58,0.99-5.18,0.86-5.18,0.86s3.67,0.26,4.46,1.11c0.78,0.85-0.38,3.56,0.81,6.17
		c0,0-0.87-5.29,1.16-5.97c1.15-0.38,2.02-0.08,2.28,0.03C184.12,99.09,182.72,98.07,183.07,96.74z"/>
	<path class="st12" d="M183.07,96.74c0.4-1.51,0.92-4.19,1.18-5.7c0.27-1.51-0.06-2.43-0.06-2.43c-0.2,2.49-1.71,7.54-3.28,8.52
		c-1.58,0.99-5.18,0.86-5.18,0.86s3.67,0.26,4.46,1.11c0.78,0.85-0.38,3.56,0.81,6.17c0,0-0.87-5.29,1.16-5.97
		c1.15-0.38,2.02-0.08,2.28,0.03C184.12,99.09,182.72,98.07,183.07,96.74z M184.73,108.17c-3.34-2.94-3.32-5.5-3.28-5.99
		c-0.14,0.93-1.1,9.46,11.39,8.85C191.58,111.05,187.79,110.87,184.73,108.17z M184.73,108.17c-3.34-2.94-3.32-5.5-3.28-5.99
		c-0.14,0.93-1.1,9.46,11.39,8.85C191.58,111.05,187.79,110.87,184.73,108.17z M183.07,96.74c0.4-1.51,0.92-4.19,1.18-5.7
		c0.27-1.51-0.06-2.43-0.06-2.43c-0.2,2.49-1.71,7.54-3.28,8.52c-1.58,0.99-5.18,0.86-5.18,0.86s3.67,0.26,4.46,1.11
		c0.78,0.85-0.38,3.56,0.81,6.17c0,0-0.87-5.29,1.16-5.97c1.15-0.38,2.02-0.08,2.28,0.03C184.12,99.09,182.72,98.07,183.07,96.74z
		 M183.07,96.74c0.4-1.51,0.92-4.19,1.18-5.7c0.27-1.51-0.06-2.43-0.06-2.43c-0.2,2.49-1.71,7.54-3.28,8.52
		c-1.58,0.99-5.18,0.86-5.18,0.86s3.67,0.26,4.46,1.11c0.78,0.85-0.38,3.56,0.81,6.17c0,0-0.87-5.29,1.16-5.97
		c1.15-0.38,2.02-0.08,2.28,0.03C184.12,99.09,182.72,98.07,183.07,96.74z M184.73,108.17c-3.34-2.94-3.32-5.5-3.28-5.99
		c-0.14,0.93-1.1,9.46,11.39,8.85C191.58,111.05,187.79,110.87,184.73,108.17z M184.73,108.17c-3.34-2.94-3.32-5.5-3.28-5.99
		c-0.14,0.93-1.1,9.46,11.39,8.85C191.58,111.05,187.79,110.87,184.73,108.17z M183.07,96.74c0.4-1.51,0.92-4.19,1.18-5.7
		c0.27-1.51-0.06-2.43-0.06-2.43c-0.2,2.49-1.71,7.54-3.28,8.52c-1.58,0.99-5.18,0.86-5.18,0.86s3.67,0.26,4.46,1.11
		c0.78,0.85-0.38,3.56,0.81,6.17c0,0-0.87-5.29,1.16-5.97c1.15-0.38,2.02-0.08,2.28,0.03C184.12,99.09,182.72,98.07,183.07,96.74z
		 M183.07,96.74c0.4-1.51,0.92-4.19,1.18-5.7c0.27-1.51-0.06-2.43-0.06-2.43c-0.2,2.49-1.71,7.54-3.28,8.52
		c-1.58,0.99-5.18,0.86-5.18,0.86s3.67,0.26,4.46,1.11c0.78,0.85-0.38,3.56,0.81,6.17c0,0-0.87-5.29,1.16-5.97
		c1.15-0.38,2.02-0.08,2.28,0.03C184.12,99.09,182.72,98.07,183.07,96.74z M184.73,108.17c-3.34-2.94-3.32-5.5-3.28-5.99
		c-0.14,0.93-1.1,9.46,11.39,8.85C191.58,111.05,187.79,110.87,184.73,108.17z M184.73,108.17c-3.34-2.94-3.32-5.5-3.28-5.99
		c-0.14,0.93-1.1,9.46,11.39,8.85C191.58,111.05,187.79,110.87,184.73,108.17z M183.07,96.74c0.4-1.51,0.92-4.19,1.18-5.7
		c0.27-1.51-0.06-2.43-0.06-2.43c-0.2,2.49-1.71,7.54-3.28,8.52c-1.58,0.99-5.18,0.86-5.18,0.86s3.67,0.26,4.46,1.11
		c0.78,0.85-0.38,3.56,0.81,6.17c0,0-0.87-5.29,1.16-5.97c1.15-0.38,2.02-0.08,2.28,0.03C184.12,99.09,182.72,98.07,183.07,96.74z
		 M183.07,96.74c0.4-1.51,0.92-4.19,1.18-5.7c0.27-1.51-0.06-2.43-0.06-2.43c-0.2,2.49-1.71,7.54-3.28,8.52
		c-1.58,0.99-5.18,0.86-5.18,0.86s3.67,0.26,4.46,1.11c0.78,0.85-0.38,3.56,0.81,6.17c0,0-0.87-5.29,1.16-5.97
		c1.15-0.38,2.02-0.08,2.28,0.03C184.12,99.09,182.72,98.07,183.07,96.74z M184.73,108.17c-3.34-2.94-3.32-5.5-3.28-5.99
		c-0.14,0.93-1.1,9.46,11.39,8.85C191.58,111.05,187.79,110.87,184.73,108.17z M184.73,108.17c-3.34-2.94-3.32-5.5-3.28-5.99
		c-0.14,0.93-1.1,9.46,11.39,8.85C191.58,111.05,187.79,110.87,184.73,108.17z M183.07,96.74c0.4-1.51,0.92-4.19,1.18-5.7
		c0.27-1.51-0.06-2.43-0.06-2.43c-0.2,2.49-1.71,7.54-3.28,8.52c-1.58,0.99-5.18,0.86-5.18,0.86s3.67,0.26,4.46,1.11
		c0.78,0.85-0.38,3.56,0.81,6.17c0,0-0.87-5.29,1.16-5.97c1.15-0.38,2.02-0.08,2.28,0.03C184.12,99.09,182.72,98.07,183.07,96.74z
		 M183.07,96.74c0.4-1.51,0.92-4.19,1.18-5.7c0.27-1.51-0.06-2.43-0.06-2.43c-0.2,2.49-1.71,7.54-3.28,8.52
		c-1.58,0.99-5.18,0.86-5.18,0.86s3.67,0.26,4.46,1.11c0.78,0.85-0.38,3.56,0.81,6.17c0,0-0.87-5.29,1.16-5.97
		c1.15-0.38,2.02-0.08,2.28,0.03C184.12,99.09,182.72,98.07,183.07,96.74z M184.73,108.17c-3.34-2.94-3.32-5.5-3.28-5.99
		c-0.14,0.93-1.1,9.46,11.39,8.85C191.58,111.05,187.79,110.87,184.73,108.17z M184.73,108.17c-3.34-2.94-3.32-5.5-3.28-5.99
		c-0.14,0.93-1.1,9.46,11.39,8.85C191.58,111.05,187.79,110.87,184.73,108.17z M182.16,99.3c1.15-0.38,2.02-0.08,2.28,0.03
		c-0.32-0.24-1.72-1.26-1.37-2.59c0.4-1.51,0.92-4.19,1.18-5.7c0.27-1.51-0.06-2.43-0.06-2.43c-0.2,2.49-1.71,7.54-3.28,8.52
		c-1.58,0.99-5.18,0.86-5.18,0.86s3.67,0.26,4.46,1.11c0.78,0.85-0.38,3.56,0.81,6.17C181,105.27,180.13,99.98,182.16,99.3z
		 M175,19.94c-34.21,0-62.03,27.83-62.03,62.03c0,34.21,27.82,62.03,62.03,62.03s62.03-27.82,62.03-62.03
		C237.03,47.77,209.21,19.94,175,19.94z M175,141.19c-10.41,0-20.18-2.68-28.68-7.4c1.95-0.92,4.05-2.1,6-3.31
		c1.94-1.21,3.72-2.44,5.07-3.48c3.94-3.02,6.02-5.58,7.7-9.45c1.2-2.79,1.74-5.18,1.91-6.07c0.78,0.52,2.89,2.23,4.2,6.26
		c0.67,2.12,0.9,3.73,1.09,5.03c0.27,1.87,0.47,3.23,1.8,4.73l0.3,0.33c1.92,2.14,2.43,2.72,3.09,7.13
		c0.03,0.16,0.05,0.32,0.07,0.49c0.27,2.01,0.44,4.04,0.54,5.67C177.06,141.17,176.04,141.19,175,141.19z M185.15,140.31
		c-1.72-0.73-3.36-1.84-4.09-3.5c-0.26-0.57-0.45-1.1-0.6-1.57c-0.97-3.06,0.12-4.12,2.96-4.42c0.06-0.01,0.13-0.01,0.18-0.02
		c1.33,0.14,2.03,1.38,2.62,3.19c0.04,0.11,0.07,0.22,0.09,0.32c0.6,2.16-0.48,2.76-0.48,2.76c1.93-0.08,2.21,1.45,2.57,2.58
		C187.33,139.9,186.25,140.12,185.15,140.31z M221.85,118.19c1.04-3.41,2.14-5.92,2.53-6.78c0.27,0.25,0.73,0.67,1.32,1.19
		C224.53,114.54,223.23,116.4,221.85,118.19z M233.02,93.93c-1.14,5.55-3.07,10.81-5.64,15.69c-0.16-0.17-0.32-0.34-0.46-0.48
		c-1.11-1.17-1.99-3.26-3.01-5.36c-1.35-2.81-2.95-5.62-5.65-6.27c0,0,3.62-1.91,7.83,0.5c0.05-0.15,0.1-0.3,0.14-0.45
		c-1.71-1.46-4.52-3.22-7.97-2.98c0,0-0.3-2.27-3.56-2.8c0.24,0.09,2.16,0.85,2.08,3.19c0,0-1.54,0.09-1.71-1.62
		c0,0-1.05,1.76-0.48,3.19c0,0-0.7,2.89-6.34,5.6c-5.63,2.71-8.87,2.58-8.87,2.58s4.93,0.48,9.91-1.61
		c-0.08,0.2-1.55,3.33-6.37,4.97c0,0-2.19,2.46-5.12,3.2c0,0,6.17-0.83,9.84-4.02c3.67-3.2,4.16-5.91,7.69-5.34
		c1.93,0.31,3.37,3.15,4.28,5.67c0.86,2.42-0.3,5.08-2.63,6.13c-1.75,0.78-3.87,1.46-5.88,1.36c0,0,2.13,0.96,4.05,2.3
		c0.36,0.25,0.72,0.52,1.06,0.8c1.57,1.31,0.91,5.1-1.72,7.92c-0.56,0.51-1.15,1.01-1.75,1.49c-0.49,0.34-1.02,0.65-1.6,0.91
		c0,0,0.17,0.01,0.46,0.02c-5.63,4.43-12.06,7.87-19.06,10.04c-1.16-0.4-2.14-1.04-2.38-2.08c-0.73-3.02,2.49-3.22,6.49-4.46
		s7.14-0.65,7.14-0.65s-1.36-1.43-4.46-1.69c-0.56-0.06-1.16-0.06-1.83-0.02c-4.39,0.26-9.77-0.65-10.62-2.49
		c-0.85-1.84-1.64-4.46,1.24-4.92c2.8-0.44,5.84-2.43,6.03-2.55c-0.29,0.1-6.5,2.25-9.9,0.58c-3.47-1.7-3.54-8.39-3.54-8.39
		c-1.05,3.34,0.33,6.1-0.19,7.54c-0.53,1.45-0.46,1.51,1.05,2.62c1.5,1.11,2.29,2.56,2.75,5.51c0.34,2.2-1.53,2.54-2.51,2.57
		c-1.72-0.74-4.33-2.46-5.42-6.35c-1.71-6.04-3.81-3.67-4.07-7.35c-0.26-3.67,4.98-5.94,4.98-5.94s-6.29,1.36-10.75-2.36
		c-4.46-3.72-3.5-5.9-4.42-6.69c0,0-0.61-2.66-0.3-4.24c0,0-0.95,1.95-0.62,3.56c-0.15-0.36-1.53-3.85-0.92-6.3
		c-0.11,0.23-1.37,3.04,0.01,5.8c0,0-0.96-0.91-3.42-0.14c0.36-0.03,3.95-0.31,4.86,3.55c0.96,4.06,1.05,8.62-2.1,11.71
		c-3.14,3.11-7.47,2.8-7.47,2.8s5.29,2.15,9.44-1c0,0-0.53,5.02-7.96,10.1c-1.25,0.85-2.4,1.56-3.46,2.15
		c-3.01,1.66-5.26,2.39-6.66,2.71c-0.24-0.16-0.48-0.31-0.72-0.46c1-0.86,2.53-2.46,3.21-4.69c0.27-0.87,0.41-1.85,0.33-2.9
		c0,0-0.25,1.01-1.15,2.36c-0.8,1.21-2.14,2.69-4.3,3.93c-0.56-0.4-1.11-0.8-1.65-1.21c-0.74-1.43-2.12-3.51-4.4-5.31
		c-3.62-2.85-4.85-9.36-5.14-13.34c-0.03-0.28-0.05-0.56-0.06-0.82c-0.17-3.84,0.09-8.79,0.09-8.79s-0.52-0.24-1.33-0.77
		c-0.14-0.09-0.29-0.2-0.44-0.3c-0.01-0.01-0.01-0.01-0.01-0.02c0.13,0.08,0.28,0.16,0.44,0.27c1.09,0.66,2.91,1.65,5.16,1.91
		c0.54,0.46,2.1,1.97,3.17,4.82c1.32,3.49,6.91,7.69,6.91,7.69s1.53,2.48,1.92,5.44c-0.07-1.74-0.3-3.98-0.96-5.39
		c0,0,2.3,2.33,2.93,4.38c-0.06-0.3-0.51-2.7-1.01-3.59c0,0-1.52-4.38,0.53-8.18c2.06-3.81,6.6-5.25,6.6-5.25s0.35-4.19,4.59-9.18
		c4.24-4.98,8.57-6.69,12.16-7.56c-1.15,1.77-4.63,3.93-5.31,4.35c0.76-0.32,5.03-2.23,7.58-4.57c2.79-2.58,4.37-4.81,4.37-4.81
		c0.4,1.57-0.53,2.8-0.53,2.8c3.5-0.57,4.9-3.59,4.9-3.59c0.79,1.84,3.98,4.9,3.98,4.9c0.04-2.14-0.79-7.08-1.84-9.31
		c-1.03-2.2-1.95-4.75-2.01-4.93c0,0.28,0.26,3.54-0.61,4.31c-0.92,0.84-3.84,1.49-6.47,1.97c-2.62,0.48-4.24-0.48-6.21-0.92
		c-1.96-0.43-1.44-1.61-1.44-1.61c0.53-0.4,1.18-0.22,1.18-0.22c-0.7-0.88-1.97-1.09-1.97-1.09l0.04-0.88
		c-1.04-1.66-2.4-2.18-2.4-2.18c-0.04-1.01-0.74-1.92-1.62-2.62c-0.87-0.7-0.78-2.63-0.78-2.63s1.62,1.66,3.32,1.05
		c1.71-0.61,1.48-2.75,1.48-2.75c0.93-0.14,0.79-1.05-2.62-1.75s-5.24-1.05-5.46-2.36c-0.22-1.31,1.09-0.53,1.18-2.15
		c0.09-1.61-1.79-0.96-1.75-3.53c0.05-2.59,3.76-4.77,3.76-4.77c2.18-0.88,4.94,1.09,4.81,3.54c-0.13,2.45-1.53,3.24,1.31,4.32
		c2.84,1.1,3.89,2.59,4.46,5.34s0.09,2.63,1.01,3.02s2.27-1.44,2.27-1.44s-1.93-3.24,0.78-4.77l0.09-0.17c0,0,0.22-1.75,2.58-1.58
		c1.15,0.09,1.91,0.84,2.4,1.58c0.25,0.57,0.42,1.13,0.44,1.58l0.02,0.17c0.08,1.3,0.14,2.23-0.29,3.98
		c-0.4,1.63-1.21,2.59-2.12,2.49c-0.32-0.03-0.54-0.17-0.71-0.32c-0.03-0.22,0-0.43,0-0.43c0.66,0,1.11-0.67,1.17-0.76
		c-0.51,0.5-1.14,0.41-1.14,0.41c0.41-0.17,0.39-0.65,0.39-0.65c-0.47,0.46-1.29,0.02-1.5-0.59c-0.21-0.61,0.51-0.64,0.51-0.64
		s0.34,0.43,0.95,0.18c0.61-0.24,0.69-0.97,1.21-0.59c0.53,0.38-0.1,0.75,0.2,0.93c0.29,0.19,0.14,0.89,0.13,0.96
		c-0.02,0.06,0.69-0.73,0.49-1.54c-0.2-0.82,0.23-2.27-0.23-4.17c-0.46-1.9-2.44-1.55-2.44-1.55c0.51,0.42,0.25,1.45,0.25,1.45
		s-0.58-1.92-1.11-1.1c-0.52,0.82,0.91,2.24,0.91,2.24c0.21,0.37-0.25,0.63-0.36,1.32c-0.12,0.69,0.36,0.77,0.48,1.16
		c0.14,0.4-0.89,0.54-0.91,0.07c0-0.04-0.01-0.07-0.01-0.1c-0.08-0.4-0.58-0.59-0.58-0.59c0.18,0.84-0.2,0.51-0.49,1.1
		c-0.29,0.59,0.19,0.87,0.91,2.18c0.13,0.24,0.27,0.42,0.43,0.58c0.16,0.32,0.57,0.89,1.4,0.97c0.06,0.01,0.11,0.01,0.18,0.01
		c1.1,0,2.05-1.09,2.5-2.89c0.11-0.45,0.19-0.85,0.25-1.22c0.69-0.18,4.18-0.95,5.33,1.65c0,0,1.31-1.44,1.13-3.15
		c0,0,1.98,0.79,2.1,2.62c0,0,0.52-0.68,0.8-1.51c1.28,2.2,4.03,6.09,7.24,8.55c2.51,1.92,6.9,2.68,7.88,3.06
		c-1.05,1.4-4.66,1.63-8.58,2.49c-3.71,0.82-6.07,3.9-6.34,4.29c0.55-0.4,6.08-4.44,11.64-3.24c1.51,0.33,4.19-1.96,7.21-1.76
		c0,0-4.39,2.62-3.61,6.55c0.77,3.82,6.39,6.27,6.74,6.42c-0.27-0.22-5.02-4.06-4.44-8.32c0.59-4.39,6.82-3.74,10.1-2.56
		c3.28,1.18,5.7,0.46,8.85,3.21c0.23,0.2,0.46,0.42,0.67,0.64c2.82,2.87,4.96,7.6,4.84,9.73c-0.13,2.2-2.3,4.27-2.48,4.45
		C231.02,95.43,232.06,94.92,233.02,93.93z M126.52,84.02c0.11-0.22,1.04-1.99,2.43-3.05c-0.64,0.45-2.48,1.82-3.27,2.93
		c0.08-0.17,1.4-2.84,4.36-4.62c0,0-3.1,0.87-5.73,6.08c-1.26,2.51-1.34,5.1-1.09,7.12c-1-2.89-0.74-5.11-0.74-5.11l-0.2-0.12
		l-0.59-0.36l-0.11-0.06c0-0.14,0-0.27,0.02-0.42c0-0.09,0-0.17,0.03-0.26c0.31-2.73,2.63-6.83,6.09-8.92c1.4-0.7,3.29-1.4,5.58-1.7
		c3.54-0.47,6.37,0.53,7.84,1.2c0.17,0.09,0.32,0.17,0.46,0.24l0.01,0.05l0.08,0.06c0.02,0.02,1.46,1.05,3.02,3
		c-0.36-0.33-0.82-0.66-1.39-0.97c-0.77-0.43-1.74-0.81-2.96-1.06c-0.85-0.17,0.27,1.71,0.27,1.71s2.6,1.03,3.61,2.54
		c-2.34-1.9-5.76-2.33-8.2-2.24c-4.5,0.18-12.28,5.89-10.01,14.05c0.52,1.85,1.45,3.24,2.61,4.26c-1.86-1.29-4.33-4.42-3.62-9.13
		c0.72-4.75,6.25-8.58,6.66-8.85C131.37,80.53,127.75,82.27,126.52,84.02z M123,69.19c-2.39,1.57-4.38,3.92-4.98,7.09
		c-0.2,1.07-0.26,2.07-0.23,2.98c0.01,0.12,0.02,0.23,0.02,0.35c-0.31-1.34-0.55-3.28,0.07-5.36c0.01-0.06,0.03-0.13,0.05-0.19
		c0.02-0.07,0.04-0.13,0.06-0.2c0.02-0.08,0.05-0.17,0.08-0.25c0.02-0.08,0.05-0.17,0.09-0.25c0.03-0.1,0.07-0.21,0.12-0.31
		c0.03-0.08,0.07-0.16,0.11-0.24c0-0.02,0.01-0.03,0.01-0.04c0.07-0.15,0.15-0.3,0.22-0.45c1.02-2.03,2.75-3.94,4.92-5.19
		c0.95-0.54,1.98-0.95,3.08-1.18c0.14-0.05,0.28-0.07,0.42-0.1c0.16-0.03,0.32-0.05,0.47-0.07c0.08-0.02,0.17-0.03,0.26-0.03
		c0.37-0.06,0.75-0.08,1.14-0.08c0.22,0,0.43,0.01,0.65,0.03c0.12,0,0.24,0.01,0.36,0.04h0.04c0.18,0.01,0.36,0.03,0.54,0.06
		c0.67,0.08,1.31,0.2,1.92,0.39c0.15,0.04,0.3,0.09,0.45,0.13c0.18,0.06,0.36,0.13,0.53,0.2c0.18,0.06,0.36,0.14,0.54,0.22
		c0.19,0.08,0.37,0.17,0.55,0.28c0.16,0.07,0.32,0.16,0.47,0.27c0.16,0.09,0.31,0.19,0.46,0.3c0.19,0.13,0.37,0.28,0.54,0.43
		c0.26,0.23,0.53,0.48,0.79,0.76c0,0,0,0,0.01,0.01c1.36,1.4,2.65,3.26,3.16,4.74c-0.37-0.31-0.79-0.83-1.24-1.71
		c-1.18-2.29-3.67-3.73-7.09-4.07c-4.11-0.39-7.09,1.37-8.95,3.05c-1.36,1.22-2.12,2.4-2.29,2.68c0.63-1.43,1.48-2.52,2.44-3.39
		c3.86-3.49,9.4-2.99,9.4-2.99C129.89,66.47,126.11,67.16,123,69.19z M178.84,58.83c0.23,0.07,2.36,0.89,1.45,4.06
		C180.29,62.89,180.4,59.93,178.84,58.83z M233.45,85.58c-1.58-2.96-2.87-5.19-5.01-6.81c-1.11-0.84-2.44-1.5-4.15-2.02
		c-2.2-0.66-3.98-1.03-5.41-1.32c-1.73-0.37-2.98-0.62-3.79-1.18c-0.35-0.23-0.63-0.49-0.93-0.75c-1.04-0.9-2.21-1.92-6.23-3.04
		c-1.19-0.34-2.18-0.57-3.06-0.78c-2.91-0.69-4.37-1.04-7.15-3.58c-3.06-2.81-4.64-5.68-5.04-6.48c0.16-0.11,0.33-0.29,0.41-0.57
		c0.16-0.51-0.06-1.14-0.63-1.88c-1.21-1.57-1.22-4.35-0.82-6.44c0.46-2.43,0.04-6.53-2.67-10.04c-2.75-3.55-5.86-5.07-6.45-5.33
		c-0.28-0.55-1.87-3.31-5.31-3.31c-0.29,0-0.6,0.02-0.9,0.06l-0.66,0.08c-4.13,0.54-8.8,1.15-13.7,4.33
		c-4.45,2.89-7.63,4.41-9.21,4.41c-0.79,0-0.96-0.37-1.02-0.69l-0.13-0.7l-0.35,0.61c-0.09,0.15-2.16,3.76-0.75,6.66
		c0.8,1.65,2.57,2.71,5.26,3.14c-0.08,0.53-0.21,1.8-0.04,3.52c0.12,1.2,0.3,1.82,0.44,2.32c0.13,0.42,0.24,0.75,0.26,1.33
		l0.01,0.33c0.03,1.21,0.06,2.25,0.91,2.97c0.1,0.09,0.21,0.17,0.3,0.24c0.57,0.44,0.76,0.59,0.83,2.49
		c0.05,1.21-0.01,2.23-0.05,3.13c-0.05,0.84-0.08,1.56-0.04,2.3c0.09,1.55,0.49,2.09,1.7,2.3c0.64,0.11,0.96-0.15,1.19-0.34
		c0.2-0.16,0.26-0.19,0.44-0.08c0.62,0.35,0.76,0.64,1.01,1.38c0.28,0.82,0.75,1.04,1.3,1.2c-0.11,0.69,0.04,1.81,1.25,2.37
		c0.99,0.45,1.58,0.66,1.88,0.77c-0.1,0.46-0.23,1.43,0.28,2.2c0.4,0.59,1.1,0.93,2.09,0.98c2.51,0.15,3.38-0.35,4.53-0.99
		c0.3-0.17,0.61-0.34,0.97-0.52c1.15-0.55,2.59-1.06,3.47-1.36c-0.69,0.91-1.9,2.48-2.41,2.99c-0.31,0.31-0.89,0.73-1.5,1.17
		c-0.85,0.61-1.71,1.24-2.11,1.74c-0.5,0.64-0.87,1.24-1.03,1.51h-0.21c-1.06,0-3.94,0.22-7.56,2.32c-4.41,2.55-7.98,7.69-8.94,9.64
		c-0.73,1.52-1.82,4.36-2.05,4.97c-0.66,0.22-3.56,1.28-5.49,4.05c-1.89,2.71-2.51,5.69-2.63,6.39l-1.67,0.7
		c-0.59-0.68-3.12-3.57-4.11-4.75c-0.92-1.11-2.2-4.09-2.5-5.01c1.49-0.1,7.77-0.96,11.06-7.61c2.4-4.84,1.52-8.68,0.16-11.37
		c-0.85-1.93-2.13-3.44-3.24-4.49c-1.04-1.14-1.9-1.82-2.17-2.01c-0.23-1.16-2.59-11.3-12.46-11.96c-0.24-0.02-0.48-0.03-0.71-0.03
		c-1.79,0-3.48,0.43-4.99,1.16c-3.48,1.67-6.07,4.91-6.94,8.06c-1.34,4.91,1.18,11.09,4.35,13.44c-0.04,0.49-0.1,2.07,0.46,4.13
		c0.22,0.86,0.58,1.87,1.14,2.94c0.89,1.72,2.3,3.61,4.51,5.32c0.06,0.7,0.41,4.5,0.54,7.82c0.05,1.12,0.08,2.18,0.05,3.05
		c-0.05,2.44,0.2,5.72,1.39,9.1c-8.52-10.26-13.65-23.42-13.65-37.79c0-32.71,26.52-59.22,59.23-59.22s59.23,26.51,59.23,59.22
		c0,1.55-0.08,3.08-0.2,4.6C233.82,86.25,233.63,85.92,233.45,85.58z M172.19,69.92c-2.35-2.82-6.51-2.42-6.98-2.36
		c0.24,0,1.62,0.11,4.84,2.39c3.58,2.53,3.98,6,3.98,6S174.68,72.9,172.19,69.92z M184.73,108.17c-3.34-2.94-3.32-5.5-3.28-5.99
		c-0.14,0.93-1.1,9.46,11.39,8.85C191.58,111.05,187.79,110.87,184.73,108.17z M184.73,108.17c-3.34-2.94-3.32-5.5-3.28-5.99
		c-0.14,0.93-1.1,9.46,11.39,8.85C191.58,111.05,187.79,110.87,184.73,108.17z M184.73,108.17c-3.34-2.94-3.32-5.5-3.28-5.99
		c-0.14,0.93-1.1,9.46,11.39,8.85C191.58,111.05,187.79,110.87,184.73,108.17z M184.73,108.17c-3.34-2.94-3.32-5.5-3.28-5.99
		c-0.14,0.93-1.1,9.46,11.39,8.85C191.58,111.05,187.79,110.87,184.73,108.17z M184.73,108.17c-3.34-2.94-3.32-5.5-3.28-5.99
		c-0.14,0.93-1.1,9.46,11.39,8.85C191.58,111.05,187.79,110.87,184.73,108.17z M184.73,108.17c-3.34-2.94-3.32-5.5-3.28-5.99
		c-0.14,0.93-1.1,9.46,11.39,8.85C191.58,111.05,187.79,110.87,184.73,108.17z M184.73,108.17c-3.34-2.94-3.32-5.5-3.28-5.99
		c-0.14,0.93-1.1,9.46,11.39,8.85C191.58,111.05,187.79,110.87,184.73,108.17z M184.73,108.17c-3.34-2.94-3.32-5.5-3.28-5.99
		c-0.14,0.93-1.1,9.46,11.39,8.85C191.58,111.05,187.79,110.87,184.73,108.17z M184.73,108.17c-3.34-2.94-3.32-5.5-3.28-5.99
		c-0.14,0.93-1.1,9.46,11.39,8.85C191.58,111.05,187.79,110.87,184.73,108.17z"/>
	<path class="st16" d="M177.55,135.45c-0.02-0.17-0.04-0.33-0.07-0.49c-0.66-4.41-1.17-4.99-3.09-7.13l-0.3-0.33
		c-1.33-1.5-1.53-2.86-1.8-4.73c-0.19-1.3-0.42-2.91-1.09-5.03c-1.31-4.03-3.42-5.74-4.2-6.26c-0.17,0.89-0.71,3.28-1.91,6.07
		c-1.68,3.87-3.76,6.43-7.7,9.45c-1.35,1.04-3.13,2.27-5.07,3.48c-1.95,1.21-4.05,2.39-6,3.31c8.5,4.72,18.27,7.4,28.68,7.4
		c1.04,0,2.06-0.02,3.09-0.07C177.99,139.49,177.82,137.46,177.55,135.45z M175,140.27c-9.26,0-18.43-2.23-26.64-6.45
		c1.68-0.87,3.4-1.87,4.98-2.88c1.78-1.12,3.4-2.24,4.63-3.19c4.07-3.13,6.23-5.79,7.98-9.83c0.79-1.84,1.31-3.53,1.62-4.74
		c0.85,0.89,1.95,2.4,2.74,4.84c0.65,2.05,0.87,3.61,1.05,4.87c0.29,1.97,0.51,3.52,2.03,5.23l0.3,0.34
		c1.86,2.07,2.25,2.5,2.86,6.64c0.02,0.13,0.04,0.26,0.06,0.39c0.21,1.45,0.36,3.03,0.48,4.74
		C176.39,140.25,175.69,140.27,175,140.27z"/>
</g>
<g id="Layer_15">
</g>
<g id="Layer_11">
</g>
<g id="Layer_8">
</g>
<g id="Layer_10">
</g>
<g id="Layer_9">
</g>
<g id="Layer_2">
</g>
<g id="Layer_3">
</g>
<g id="Layer_4">
</g>
<g id="Layer_5">
</g>
<g id="Layer_6">
</g>
<g id="Layer_7">
</g>
</svg>
