<?xml version="1.0" encoding="utf-8"?>
<!-- Generator: Adobe Illustrator 27.8.1, SVG Export Plug-In . SVG Version: 6.00 Build 0)  -->
<svg version="1.1" xmlns="http://www.w3.org/2000/svg" xmlns:xlink="http://www.w3.org/1999/xlink" x="0px" y="0px"
	 viewBox="0 0 350 230" style="enable-background:new 0 0 350 230;" xml:space="preserve">
<style type="text/css">
	.st0{fill:#FF9D00;}
	.st1{fill:url(#SVGID_1_);}
	.st2{opacity:0.22;fill:url(#SVGID_00000034783292480017691030000002696410773870717328_);}
	.st3{fill:#FFC200;}
	.st4{fill:#778718;}
	.st5{fill:#E0B017;}
	.st6{fill:#664407;}
	.st7{fill:#9E690A;}
	.st8{fill:#7F1105;}
	.st9{fill:#191933;}
	.st10{fill:#FCEBD4;}
	.st11{fill:#E3DFD6;}
	.st12{fill:#FFB000;}
	.st13{fill:#AA210E;}
	.st14{fill:#FFF0A6;}
	.st15{fill:#FFDA00;}
	.st16{fill:#F4F4F4;}
	.st17{fill:#DC5C28;}
	.st18{fill:#FF8440;}
	.st19{fill:#C45224;}
	.st20{fill:#2C4369;}
	.st21{fill:#2A72DB;}
	.st22{fill:#C65500;}
	.st23{fill:#C15746;}
	.st24{fill:#FF8C00;}
	.st25{fill:#FFEA2C;}
	.st26{fill:#F7FF57;}
	.st27{fill:#FFFFFF;}
	.st28{fill:#D64949;}
	.st29{fill:#353535;}
	.st30{fill:#FFC783;}
	.st31{fill:#3F7F91;}
	.st32{fill:#25BDE5;}
	.st33{fill:#8CDD00;}
	.st34{fill:#D1FF88;}
	.st35{fill:#333333;}
	.st36{fill:#FF9000;}
	.st37{fill:#A1A813;}
	.st38{fill:#B3C40E;}
	.st39{fill:#CACE72;}
	.st40{fill:url(#SVGID_00000081646106099621522590000007404348223594842543_);}
	.st41{fill:#93E800;}
	.st42{fill:#3CB7D3;}
	.st43{fill:#FF7631;}
	.st44{fill:#E6873C;}
	.st45{fill:#30657F;}
	.st46{fill:#FF7A40;}
	.st47{fill:#FFAD4A;}
	.st48{fill:#BC8E3B;}
	.st49{fill:#E2E2E2;}
	.st50{fill:#F2B844;}
	.st51{fill:#AF3838;}
	.st52{fill:#17B5C1;}
	.st53{fill:#A88643;}
	.st54{fill-rule:evenodd;clip-rule:evenodd;fill:#DD7928;}
	.st55{fill:#E6E7E8;stroke:#CFCFCF;stroke-width:0.1061;}
	.st56{fill-rule:evenodd;clip-rule:evenodd;fill:#204F7A;}
	.st57{fill-rule:evenodd;clip-rule:evenodd;fill:#50A4FF;}
	.st58{fill:#002649;}
</style>
<g id="Layer_1">
</g>
<g id="Layer_12">
</g>
<g id="Layer_13">
</g>
<g id="Layer_14">
</g>
<g id="Layer_15">
	<g>
		<g>
			<path class="st17" d="M242.33,127.58v0.07c0,0,0,0-0.02,0.02C242.33,127.63,242.33,127.62,242.33,127.58z"/>
			<path class="st18" d="M143.27,117.8c-4.12-2.7-8.38-5.48-12.71-8.54c-0.61-0.43-1.19-0.86-1.76-1.31
				c-3.83-3-6.94-6.49-9.28-10.41c-0.13-0.23-0.29-0.5-0.45-0.81c-4.69,8.99-7.33,19.2-7.33,30.02c0,1.58,0.05,3.16,0.18,4.71h50.48
				C156.95,126.77,150.37,122.46,143.27,117.8z M193.68,125.4c-6.45-24.49-15.08-41.15-22.13-51.16c-2.44-3.49-4.71-6.18-6.6-8.11
				c-1.15-1.17-2.21-2.1-3.18-2.86c-16.81,4.04-31.12,14.6-40.07,28.85c1.76,4.12,5.05,8.5,9.08,11.88c0.72,0.63,1.47,1.2,2.25,1.74
				c4.28,3.02,8.5,5.79,12.58,8.47c8.81,5.77,16.88,11.06,23.12,17.24h26.5C194.74,129.5,194.22,127.49,193.68,125.4z M222.07,87.76
				c-0.14-1.01-0.34-2.03-0.58-3.04c-0.68-2.97-1.8-5.93-3.52-8.77c-11.2-9.06-25.44-14.47-40.94-14.47c-3.69,0-7.32,0.31-10.84,0.9
				c0.54,0.38,1.11,0.83,1.71,1.35c2.66,2.32,5.59,5.47,8.65,9.76c6.98,9.8,14.62,25.55,21.27,50.84c0.65,2.46,1.26,4.84,1.82,7.14
				h17.28c0.41-6.24,1.44-12.22,2.46-17.92c0.23-1.24,0.5-2.59,0.81-4.01C221.48,103.2,223.09,95.49,222.07,87.76z M225.43,82.98
				c0.04,0.11,0.07,0.22,0.11,0.32l0.02,0.04c0.79,2.95,1.13,5.97,1.17,8.93c0.07,6.65-1.31,13.11-2.36,18.12
				c-0.29,1.4-0.58,2.71-0.79,3.92c-1.02,5.66-1.98,11.43-2.37,17.15h15.53c0.11-0.11,0.2-0.23,0.31-0.34
				c2.43-2.75,3.94-4.96,4.91-6.78c0.11-0.2,0.22-0.4,0.31-0.59C241.56,108.11,235.3,93.87,225.43,82.98z M240.23,131.46h1.92
				c0.11-1.26,0.16-2.52,0.16-3.79C241.79,128.87,241.11,130.15,240.23,131.46z"/>
			<path class="st19" d="M242.33,127.58v0.07c0,0,0,0-0.02,0.02C242.33,127.63,242.33,127.62,242.33,127.58z"/>
			<g>
				<path class="st20" d="M242.33,127.58v0.07c0,0,0,0-0.02,0.02C242.33,127.63,242.33,127.62,242.33,127.58z"/>
			</g>
			<g>
				<path class="st20" d="M242.31,127.67c0.02-0.02,0.02-0.02,0.02-0.02v-0.07C242.33,127.62,242.33,127.63,242.31,127.67z"/>
				<path class="st20" d="M246.14,126.75c0,1.58-0.05,3.16-0.16,4.71h-3.83c0.11-1.26,0.16-2.52,0.16-3.79
					c0.02-0.02,0.02-0.02,0.02-0.02v-0.07c0,0.04,0,0.05-0.02,0.09c-0.52,1.2-1.2,2.48-2.09,3.79h-3.49
					c0.11-0.11,0.2-0.23,0.31-0.34c2.43-2.75,3.94-4.96,4.91-6.78c0.11-0.2,0.22-0.4,0.31-0.59c-0.7-15.64-6.96-29.88-16.83-40.77
					c0.04,0.11,0.07,0.22,0.11,0.32l0.02,0.04c0.79,2.95,1.13,5.97,1.17,8.93c0.07,6.65-1.31,13.11-2.36,18.12
					c-0.29,1.4-0.58,2.71-0.79,3.92c-1.02,5.66-1.98,11.43-2.37,17.15h-4.3c0.41-6.24,1.44-12.22,2.46-17.92
					c0.23-1.24,0.5-2.59,0.81-4.01c1.29-6.33,2.91-14.04,1.89-21.77c-0.14-1.01-0.34-2.03-0.58-3.04c-0.68-2.97-1.8-5.93-3.52-8.77
					c-11.2-9.06-25.44-14.47-40.94-14.47c-3.69,0-7.32,0.31-10.84,0.9c0.54,0.38,1.11,0.83,1.71,1.35c2.66,2.32,5.59,5.47,8.65,9.76
					c6.98,9.8,14.62,25.55,21.27,50.84c0.65,2.46,1.26,4.84,1.82,7.14h-4.4c-0.49-1.96-1.01-3.97-1.55-6.06
					c-6.45-24.49-15.08-41.15-22.13-51.16c-2.44-3.49-4.71-6.18-6.6-8.11c-1.15-1.17-2.21-2.1-3.18-2.86
					c-16.81,4.04-31.12,14.6-40.07,28.85c1.76,4.12,5.05,8.5,9.08,11.88c0.72,0.63,1.47,1.2,2.25,1.74
					c4.28,3.02,8.5,5.79,12.58,8.47c8.81,5.77,16.88,11.06,23.12,17.24h-6.33c-5.45-4.69-12.03-9.01-19.13-13.66
					c-4.12-2.7-8.38-5.48-12.71-8.54c-0.61-0.43-1.19-0.86-1.76-1.31c-3.83-3-6.94-6.49-9.28-10.41c-0.13-0.23-0.29-0.5-0.45-0.81
					c-4.69,8.99-7.33,19.2-7.33,30.02c0,1.58,0.05,3.16,0.18,4.71h-3.83c-0.11-1.55-0.16-3.13-0.16-4.71
					c0-38.09,30.99-69.11,69.11-69.11S246.14,88.66,246.14,126.75z"/>
			</g>
		</g>
		<g>
			<g>
				<path class="st21" d="M96.4,127.14c0.29-44.49,36.44-80.47,80.99-80.47c44.56,0,80.7,35.98,80.99,80.47h16.48
					c-0.29-53.59-43.82-96.95-97.48-96.95c-53.66,0-97.19,43.35-97.48,96.95H96.4z"/>
			</g>
		</g>
	</g>
</g>
<g id="Layer_11">
</g>
<g id="Layer_8">
</g>
<g id="Layer_10">
</g>
<g id="Layer_9">
</g>
<g id="Layer_2">
</g>
<g id="Layer_3">
</g>
<g id="Layer_4">
</g>
<g id="Layer_5">
</g>
<g id="Layer_6">
</g>
<g id="Layer_7">
</g>
</svg>
