<?xml version="1.0" encoding="utf-8"?>
<!-- Generator: Adobe Illustrator 27.8.1, SVG Export Plug-In . SVG Version: 6.00 Build 0)  -->
<svg version="1.1" xmlns="http://www.w3.org/2000/svg" xmlns:xlink="http://www.w3.org/1999/xlink" x="0px" y="0px"
	 viewBox="0 0 350 230" style="enable-background:new 0 0 350 230;" xml:space="preserve">
<style type="text/css">
	.st0{fill:#FF9D00;}
	.st1{fill:url(#SVGID_1_);}
	.st2{opacity:0.22;fill:url(#SVGID_00000048486701666598150080000001242503214713839782_);}
	.st3{fill:#FFC200;}
	.st4{fill:#778718;}
	.st5{fill:#E0B017;}
	.st6{fill:#664407;}
	.st7{fill:#9E690A;}
	.st8{fill:#7F1105;}
	.st9{fill:#191933;}
	.st10{fill:#FCEBD4;}
	.st11{fill:#E3DFD6;}
	.st12{fill:#FFB000;}
	.st13{fill:#AA210E;}
	.st14{fill:#FFF0A6;}
	.st15{fill:#FFDA00;}
	.st16{fill:#F4F4F4;}
	.st17{fill:#DC5C28;}
	.st18{fill:#FF8440;}
	.st19{fill:#C45224;}
	.st20{fill:#2C4369;}
	.st21{fill:#2A72DB;}
	.st22{fill:#C65500;}
	.st23{fill:#C15746;}
	.st24{fill:#FF8C00;}
	.st25{fill:#FFEA2C;}
	.st26{fill:#F7FF57;}
	.st27{fill:#FFFFFF;}
	.st28{fill:#D64949;}
	.st29{fill:#353535;}
	.st30{fill:#FFC783;}
	.st31{fill:#3F7F91;}
	.st32{fill:#25BDE5;}
	.st33{fill:#8CDD00;}
	.st34{fill:#D1FF88;}
	.st35{fill:#333333;}
	.st36{fill:#FF9000;}
	.st37{fill:#A1A813;}
	.st38{fill:#B3C40E;}
	.st39{fill:#CACE72;}
	.st40{fill:url(#SVGID_00000044869641562495497970000017949590120548290235_);}
	.st41{fill:#93E800;}
	.st42{fill:#3CB7D3;}
	.st43{fill:#FF7631;}
	.st44{fill:#E6873C;}
	.st45{fill:#30657F;}
	.st46{fill:#FF7A40;}
	.st47{fill:#FFAD4A;}
	.st48{fill:#BC8E3B;}
	.st49{fill:#E2E2E2;}
	.st50{fill:#F2B844;}
	.st51{fill:#AF3838;}
	.st52{fill:#17B5C1;}
	.st53{fill:#A88643;}
	.st54{fill-rule:evenodd;clip-rule:evenodd;fill:#DD7928;}
	.st55{fill:#E6E7E8;stroke:#CFCFCF;stroke-width:0.1061;}
	.st56{fill-rule:evenodd;clip-rule:evenodd;fill:#204F7A;}
	.st57{fill-rule:evenodd;clip-rule:evenodd;fill:#50A4FF;}
	.st58{fill:#002649;}
	.st59{fill:#00134F;}
	.st60{fill:#665200;}
	.st61{fill:#001E7C;}
	.st62{fill:#002349;}
	.st63{fill:#FF914D;}
	.st64{fill:#AC1929;}
	.st65{fill:#004AAD;}
	.st66{fill:#BE1C2D;}
	.st67{fill:#242424;}
	.st68{fill:#F1A75A;}
	.st69{fill-rule:evenodd;clip-rule:evenodd;}
	.st70{fill-rule:evenodd;clip-rule:evenodd;fill:#007177;}
	.st71{fill-rule:evenodd;clip-rule:evenodd;fill:#242424;}
	.st72{fill:#F9951C;}
	.st73{fill:#84123B;}
	.st74{fill:#FFB908;}
	.st75{fill:#393536;}
	.st76{fill:#093F00;}
	.st77{font-family:'Arial-BoldMT';}
	.st78{font-size:12.9743px;}
	.st79{fill:#333300;}
	.st80{fill:#C8D7FF;}
	.st81{fill:#426BD1;}
	.st82{fill:#0036D2;}
</style>
<g id="Layer_1">
</g>
<g id="Layer_12">
</g>
<g id="Layer_13">
</g>
<g id="Layer_14">
</g>
<g id="Layer_15">
</g>
<g id="Layer_11">
</g>
<g id="Layer_8">
</g>
<g id="Layer_10">
</g>
<g id="Layer_9">
</g>
<g id="Layer_2">
</g>
<g id="Layer_3">
</g>
<g id="Layer_4">
</g>
<g id="Layer_5">
</g>
<g id="Layer_6">
</g>
<g id="Layer_7">
	<text transform="matrix(1 0 0 1 72.7852 201.0869)" class="st76 st77 st78">PROFESSIONAL CHAMPION</text>
	<path class="st76" d="M134.27,75.07c0,18.55,15.03,33.58,33.58,33.58s33.58-15.03,33.58-33.58c0-18.55-15.03-33.58-33.58-33.58
		S134.27,56.52,134.27,75.07z M141.14,89.61c-0.07-0.01-0.14-0.01-0.22,0c-0.46-0.85-0.88-1.73-1.26-2.63
		c-1.19-2.83-1.95-5.78-2.25-8.83c0.06-0.03,0.12-0.07,0.17-0.12l9.08-8.35l8.75,2.87l3.72,11.43l-5.72,7.45L141.14,89.61z
		 M198.11,78.03c0.05,0.05,0.11,0.09,0.17,0.12c-0.3,3.04-1.06,6-2.25,8.83c-0.38,0.9-0.8,1.78-1.26,2.63
		c-0.07-0.01-0.14-0.01-0.22,0l-12.27,1.83l-5.72-7.45l3.72-11.43l8.75-2.87L198.11,78.03z M169.34,53.24l10.74-6.01
		c0.06-0.04,0.12-0.08,0.17-0.13c3.44,1.53,6.55,3.66,9.23,6.34c0.37,0.37,0.74,0.76,1.09,1.15c-0.03,0.06-0.05,0.13-0.07,0.2
		l-2.37,12.05l-9.05,2.97l-9.74-7.08L169.34,53.24L169.34,53.24z M174.54,86.24l5.44,7.09l-4.78,11.24
		c-0.03,0.07-0.05,0.14-0.06,0.21c-2.37,0.58-4.81,0.88-7.3,0.88c-2.49,0-4.93-0.29-7.3-0.88c-0.01-0.07-0.03-0.14-0.06-0.21
		l-4.78-11.24l5.44-7.09H174.54L174.54,86.24z M146.21,53.43c2.68-2.68,5.79-4.81,9.23-6.34c0.05,0.05,0.11,0.09,0.17,0.13
		l10.74,6.01v9.49l-9.74,7.08l-9.05-2.97l-2.37-12.05c-0.01-0.07-0.04-0.13-0.07-0.2C145.48,54.19,145.84,53.81,146.21,53.43z"/>
	<path class="st79" d="M74.17,210.27H261.4v3.23H74.17V210.27z M137.04,135.53h-2.78H20.22v3.23h114.04h2.78h178.06v-3.23H137.04z
		 M229.63,92.93c-4.31,6.56-12.01,6.78-15.08,6.59c-0.36-0.02-0.62-0.18-0.74-0.42c-0.83,1.65-1.76,3.24-2.79,4.79
		c4.63-2.75,9.7-2.43,12.02-2.07c0.73,0.11,1.02,0.78,0.63,1.39c-5.02,7.84-14.22,7.97-17.63,7.73c-0.22-0.02-0.41-0.09-0.55-0.19
		c-0.43,0.45-0.88,0.89-1.33,1.33c-4.31,4.14-9.3,7.46-14.73,9.86c-0.13,0.05-0.25,0.1-0.38,0.16c-0.18,0.08-0.36,0.16-0.54,0.23
		c-0.57,0.24-1.14,0.46-1.72,0.69c-0.58,0.22-1.16,0.42-1.74,0.62c-0.06,0.02-0.14,0.05-0.2,0.06c-15.77,5.16-31.78,0.8-33.7,0.24
		c-0.13-0.03-0.19-0.06-0.19-0.06c-7.43-2.4-14.21-6.4-19.85-11.81c-0.46-0.43-0.9-0.88-1.33-1.33c-0.14,0.1-0.33,0.18-0.55,0.19
		c-3.4,0.25-12.61,0.11-17.63-7.73c-0.39-0.61-0.1-1.28,0.63-1.39c2.32-0.36,7.38-0.68,12.02,2.07c-1.03-1.55-1.96-3.15-2.79-4.79
		c-0.13,0.23-0.38,0.39-0.74,0.42c-3.07,0.19-10.77-0.03-15.08-6.59c-0.4-0.61-0.1-1.27,0.62-1.37c2.8-0.4,9.52-0.64,14.08,5.19
		c-1.12-2.57-1.99-5.24-2.62-7.97c-0.14,0.02-0.3-0.01-0.48-0.07c-2.85-1.08-9.69-4.43-10.62-12.09c-0.08-0.73,0.49-1.21,1.19-1.01
		c2.14,0.62,6.47,2.35,8.91,6.58c-0.09-1.16-0.14-2.33-0.14-3.51c0-1.37,0.06-2.74,0.18-4.09c-2.68-1.5-7.38-5.03-7.47-11.23
		c-0.02-0.73,0.62-1.15,1.29-0.87c1.85,0.78,5.32,2.68,7.05,6.46c0.4-1.81,0.9-3.58,1.53-5.33c-0.28,0-0.56-0.14-0.76-0.45
		c-1.51-2.29-4.42-7.96-1.04-13.83c0.36-0.63,1.13-0.69,1.58-0.11c1.17,1.49,3.08,4.56,2.82,8.43c0.05-0.1,0.1-0.19,0.15-0.29
		c1.08-2.04,2.33-4.01,3.72-5.89c-1.25-2.02-3.22-6.34-0.78-10.83c0.35-0.64,1.13-0.7,1.56-0.12c1.04,1.38,2.59,4.08,2.11,7.4
		c0.79-0.89,1.62-1.75,2.49-2.59c-0.22-0.13-0.37-0.38-0.38-0.72c-0.09-1.92,0.25-5.51,3.52-7.92c0.59-0.43,1.29-0.14,1.37,0.58
		c0.1,0.73,0.12,1.7-0.08,2.77c1.17-2.29,3.59-5.59,8.13-6.46c0.71-0.14,1.2,0.41,0.97,1.1c-0.61,1.85-2.23,5.26-6.23,6.84
		c1.67-0.58,3.64-0.82,5.84-0.34c0.71,0.16,0.94,0.85,0.46,1.4c-1.53,1.73-5.23,4.91-10.97,3.45c-0.2-0.05-0.35-0.14-0.47-0.26
		c-2.62,2.53-4.91,5.31-6.81,8.29c1.99-1.95,5.07-3.92,9.36-3.76c0.73,0.02,1.09,0.66,0.74,1.3c-1.23,2.23-4.63,6.78-11.59,6.3
		c-0.25-0.02-0.45-0.1-0.59-0.24c-1.09,2.14-2.01,4.36-2.73,6.65c1.77-2.02,4.45-3.96,8.35-4.34c0.72-0.07,1.18,0.51,0.93,1.2
		c-0.89,2.41-3.56,7.46-10.54,8.1c-0.49,2.58-0.74,5.23-0.74,7.9c0,1.22,0.06,2.44,0.16,3.65c0.44-3,2.11-8.77,8.43-11.3
		c0.68-0.27,1.3,0.16,1.29,0.89c-0.08,2.76-1.11,9.13-8.62,11.87c-0.39,0.14-0.75,0.06-0.97-0.18c0.4,3.45,1.21,6.82,2.43,10.04
		c0.11-3.56,1.29-8.25,5.98-11.63c0.59-0.42,1.31-0.17,1.5,0.54c0.76,2.9,1.73,10.23-5.63,15.35c1.66,3.31,3.77,6.43,6.29,9.31
		c-1.37-3.85-2.37-10.13,2.21-15.86c0.46-0.57,1.22-0.54,1.61,0.09c1.74,2.8,5.44,10.63-1.21,18.47c-0.01,0.01-0.02,0.02-0.02,0.02
		c0.21,0.2,0.41,0.4,0.62,0.59c9.08,8.53,21.16,13.26,34.02,13.31c12.86-0.06,24.94-4.78,34.02-13.31c0.21-0.19,0.41-0.39,0.62-0.59
		c-0.01-0.01-0.02-0.02-0.02-0.02c-6.66-7.84-2.96-15.66-1.21-18.47c0.38-0.62,1.15-0.66,1.61-0.09c4.59,5.73,3.58,12.01,2.21,15.86
		c2.52-2.88,4.63-6,6.29-9.31c-7.37-5.12-6.39-12.45-5.63-15.35c0.19-0.7,0.91-0.96,1.5-0.54c4.69,3.38,5.87,8.08,5.98,11.63
		c1.21-3.23,2.03-6.59,2.43-10.04c-0.22,0.24-0.58,0.33-0.97,0.18c-7.51-2.74-8.54-9.11-8.62-11.87c-0.02-0.73,0.61-1.16,1.29-0.89
		c6.32,2.52,7.99,8.3,8.43,11.3c0.1-1.21,0.16-2.43,0.16-3.65c0-2.68-0.26-5.32-0.74-7.9c-6.98-0.65-9.65-5.7-10.54-8.1
		c-0.25-0.69,0.22-1.27,0.93-1.2c3.9,0.38,6.58,2.32,8.35,4.34c-0.72-2.29-1.64-4.51-2.73-6.65c-0.14,0.14-0.34,0.22-0.59,0.24
		c-6.96,0.47-10.36-4.08-11.59-6.3c-0.35-0.64,0.02-1.28,0.74-1.3c4.28-0.16,7.37,1.81,9.36,3.76c-1.9-2.98-4.19-5.76-6.82-8.29
		c-0.11,0.11-0.26,0.21-0.46,0.26c-5.75,1.45-9.44-1.72-10.97-3.45c-0.48-0.55-0.25-1.24,0.46-1.4c2.21-0.48,4.17-0.23,5.84,0.34
		c-4-1.58-5.63-4.99-6.23-6.84c-0.22-0.7,0.26-1.24,0.97-1.1c4.54,0.88,6.96,4.18,8.13,6.46c-0.21-1.07-0.18-2.05-0.08-2.77
		c0.09-0.72,0.78-1.01,1.37-0.58c3.27,2.4,3.6,6,3.52,7.92c-0.02,0.34-0.17,0.59-0.38,0.72c0.86,0.84,1.69,1.69,2.49,2.59
		c-0.48-3.32,1.07-6.02,2.11-7.4c0.43-0.58,1.21-0.52,1.56,0.12c2.45,4.49,0.48,8.81-0.78,10.83c1.39,1.88,2.64,3.85,3.72,5.89
		c0.06,0.1,0.1,0.19,0.15,0.29c-0.26-3.87,1.65-6.94,2.82-8.43c0.46-0.58,1.22-0.52,1.58,0.11c3.38,5.87,0.47,11.54-1.04,13.83
		c-0.2,0.3-0.48,0.45-0.76,0.45c0.62,1.75,1.13,3.52,1.53,5.33c1.73-3.79,5.19-5.68,7.05-6.46c0.67-0.28,1.3,0.14,1.29,0.87
		c-0.1,6.2-4.79,9.72-7.47,11.23c0.12,1.35,0.18,2.72,0.18,4.08c0,1.18-0.05,2.36-0.14,3.52c2.44-4.23,6.77-5.95,8.91-6.58
		c0.7-0.2,1.27,0.29,1.18,1.01c-0.92,7.65-7.76,11.01-10.61,12.09c-0.18,0.06-0.34,0.09-0.48,0.07c-0.63,2.72-1.5,5.39-2.62,7.97
		c4.55-5.83,11.28-5.59,14.08-5.19C229.73,91.66,230.03,92.32,229.63,92.93z M178.11,24.11h-7.6l-2.35-7.23
		c-0.17-0.51-0.43-0.51-0.6,0l-2.35,7.23h-7.6c-0.53,0-0.62,0.25-0.18,0.57l6.15,4.47l-2.35,7.23c-0.17,0.51,0.05,0.67,0.48,0.35
		l6.15-4.47l6.15,4.47c0.43,0.31,0.65,0.16,0.48-0.35l-2.35-7.23l6.15-4.47C178.73,24.37,178.64,24.11,178.11,24.11z"/>
</g>
</svg>
