<?xml version="1.0" encoding="utf-8"?>
<!-- Generator: Adobe Illustrator 27.8.1, SVG Export Plug-In . SVG Version: 6.00 Build 0)  -->
<svg version="1.1" xmlns="http://www.w3.org/2000/svg" xmlns:xlink="http://www.w3.org/1999/xlink" x="0px" y="0px"
	 viewBox="0 0 350 230" style="enable-background:new 0 0 350 230;" xml:space="preserve">
<style type="text/css">
	.st0{fill:#FF9D00;}
	.st1{fill:url(#SVGID_1_);}
	.st2{opacity:0.22;fill:url(#SVGID_00000035507297928469347030000003701196992888661413_);}
	.st3{fill:#FFC200;}
	.st4{fill:#778718;}
	.st5{fill:#E0B017;}
	.st6{fill:#664407;}
	.st7{fill:#9E690A;}
	.st8{fill:#7F1105;}
	.st9{fill:#191933;}
	.st10{fill:#FCEBD4;}
	.st11{fill:#E3DFD6;}
	.st12{fill:#FFB000;}
	.st13{fill:#AA210E;}
	.st14{fill:#FFF0A6;}
	.st15{fill:#FFDA00;}
	.st16{fill:#F4F4F4;}
	.st17{fill:#DC5C28;}
	.st18{fill:#FF8440;}
	.st19{fill:#C45224;}
	.st20{fill:#2C4369;}
	.st21{fill:#2A72DB;}
	.st22{fill:#C65500;}
	.st23{fill:#C15746;}
	.st24{fill:#FF8C00;}
	.st25{fill:#FFEA2C;}
	.st26{fill:#F7FF57;}
	.st27{fill:#FFFFFF;}
	.st28{fill:#D64949;}
	.st29{fill:#353535;}
	.st30{fill:#FFC783;}
	.st31{fill:#3F7F91;}
	.st32{fill:#25BDE5;}
	.st33{fill:#8CDD00;}
	.st34{fill:#D1FF88;}
	.st35{fill:#333333;}
	.st36{fill:#FF9000;}
	.st37{fill:#A1A813;}
	.st38{fill:#B3C40E;}
	.st39{fill:#CACE72;}
	.st40{fill:url(#SVGID_00000046301845115824861180000016984600839579665536_);}
	.st41{fill:#93E800;}
	.st42{fill:#3CB7D3;}
	.st43{fill:#FF7631;}
	.st44{fill:#E6873C;}
	.st45{fill:#30657F;}
	.st46{fill:#FF7A40;}
	.st47{fill:#FFAD4A;}
	.st48{fill:#BC8E3B;}
	.st49{fill:#E2E2E2;}
	.st50{fill:#F2B844;}
	.st51{fill:#AF3838;}
	.st52{fill:#17B5C1;}
	.st53{fill:#A88643;}
	.st54{fill-rule:evenodd;clip-rule:evenodd;fill:#DD7928;}
	.st55{fill:#E6E7E8;stroke:#CFCFCF;stroke-width:0.1061;}
	.st56{fill-rule:evenodd;clip-rule:evenodd;fill:#204F7A;}
	.st57{fill-rule:evenodd;clip-rule:evenodd;fill:#50A4FF;}
	.st58{fill:#002649;}
	.st59{fill:#00134F;}
	.st60{fill:#665200;}
	.st61{fill:#001E7C;}
	.st62{fill:#002349;}
	.st63{fill:#FF914D;}
	.st64{fill:#AC1929;}
	.st65{fill:#004AAD;}
	.st66{fill:#BE1C2D;}
	.st67{fill:#242424;}
	.st68{fill:#F1A75A;}
	.st69{fill-rule:evenodd;clip-rule:evenodd;}
	.st70{fill-rule:evenodd;clip-rule:evenodd;fill:#007177;}
	.st71{fill-rule:evenodd;clip-rule:evenodd;fill:#242424;}
	.st72{fill:#F9951C;}
	.st73{fill:#84123B;}
	.st74{fill:#FFB908;}
	.st75{fill:#393536;}
	.st76{fill:#093F00;}
	.st77{fill:#333300;}
	.st78{fill:#C8D7FF;}
	.st79{fill:#426BD1;}
	.st80{fill:#0036D2;}
</style>
<g id="Layer_1">
</g>
<g id="Layer_12">
</g>
<g id="Layer_13">
</g>
<g id="Layer_14">
</g>
<g id="Layer_15">
</g>
<g id="Layer_11">
</g>
<g id="Layer_8">
</g>
<g id="Layer_10">
</g>
<g id="Layer_9">
</g>
<g id="Layer_2">
</g>
<g id="Layer_3">
</g>
<g id="Layer_4">
</g>
<g id="Layer_5">
</g>
<g id="Layer_6">
</g>
<g id="Layer_7">
	<g>
		<path class="st64" d="M185.16,112.09l-15.21-14.36c0,0,10.6-26.34,15.21-34.59c1.97-3.52,4.33-8.18,5.68-13.32
			c0.12,0.02,0.25,0.03,0.37,0.03c1.99,0,3.59-2.89,3.59-6.45c0-2.67-0.91-4.97-2.2-5.95c0,0-1.8,1.33-1.92,3.93
			c0,0-0.5-2.83,1.77-5.26c-0.39-2.85-1.08-4.52-2.78-6.58c-3.02-3.65-7.65-4.87-14.68-5.19c-6.59-0.3-11.34-1.09-16.92-1.69
			c-1.92-0.21-1.1,3.48-0.58,4.37c1.04,1.8,2.51,2.4,7.76,3.94c0,0-4.2,0-8.5-2.42c-0.97,1.76-1.51,4.07-1.7,6.69
			c3.44,3.55,2.7,7.77,2.7,7.77c-0.17-3.76-2.78-5.68-2.78-5.68c-1.4,0.88-2.4,3.27-2.4,6.08c0,3.56,1.61,6.45,3.6,6.45
			c0.19,0,0.38-0.03,0.56-0.08c1.55,5.9,3.99,11.42,6.7,14.7c-1.44,1.39-2.81,2.72-4.09,3.71c8.07-0.37,14.35,5.21,14.35,5.21
			s-11.16-6.79-19.81-1.8c-11.98,6.92-24.98,1.8-24.98,1.8s11.74,2.11,24.18-3.67c0.26-0.12,0.53-0.24,0.8-0.34
			c-6.51-2.51-12.56-6.27-28.3,1.36c0,0-4.08,1.71-6.41,5.33c0,0,0.64-3.29,4.2-6.26c-3.12-1.11-9-2.44-14.06,0.63
			c0,0-4.08,1.71-6.42,5.33c0,0,1.77-4.4,6.73-7.6c0.74-4.47,3.06-14.54,9.44-20.72c0.3-0.29,0.57-0.54,0.83-0.76
			c-2.05,0.38-3.7,1.19-3.7,1.19c3.32-3.08,6.29-1.84,8.46-2.02c2.57-0.22,5.64,1.09,7.21,0.86c2.1-0.31,5.41-0.67,6.23-1.13
			c2.26-1.26,0.71-3.85-1.07-3.93c-2.32-0.1,4.27,0.07,4.09-2.59c-0.28-4.12,0.18-5.44-1.03-7.06c-0.55-0.73-6.1-5.77-7.8-5.77
			c-4.61,0.01-11.64,4.32-15.42,6.02c-3.2,1.44-4.66,4.34-6.08,6.64c-2.69,4.39-25.74,33.09-25.51,41.79
			c0.25,9.45,18.95,19.19,37.9,12.87c0,0,4.5-2.09,7.01-3.95c0,0-2.71,3.14-6.04,5.21c1.07,1.36,2.34,3.12,3.75,5.16
			c4.5,5.64,12.8,14.47,23.51,18.85c0,0-5.74-0.71-13.7-3.89c1.79,2.81,3.6,5.65,5.34,8.41c2.14,3.37,4.91,6.32,8.18,8.62
			c2.8,1.97,5.87,3.74,9.16,5.09c0,0-4.13-0.52-10.25-2.61c1.86,2.85,3.42,5.16,4.5,6.61c2.69,3.57,7.11,6.91,5.92,17.43
			L185.16,112.09"/>
		<path class="st65" d="M239.23,38.92c-1.41-2.3-2.88-5.2-6.08-6.64c-3.78-1.7-10.81-6.01-15.42-6.02c-1.7,0-7.26,5.04-7.81,5.77
			c-1.21,1.62-0.75,2.93-1.03,7.06c-0.18,2.66,6.4,2.49,4.09,2.59c-1.78,0.08-3.33,2.67-1.07,3.93c0.82,0.46,4.12,0.82,6.23,1.13
			c1.57,0.23,4.65-1.08,7.21-0.86c2.17,0.18,5.14-1.05,8.46,2.02c0,0-1.66-0.81-3.7-1.19c0.26,0.22,0.53,0.47,0.83,0.76
			c6.37,6.18,8.69,16.24,9.44,20.72c4.96,3.2,6.73,7.6,6.73,7.6c-2.33-3.62-6.41-5.33-6.41-5.33c-5.06-3.07-10.94-1.74-14.06-0.63
			c3.56,2.96,4.2,6.26,4.2,6.26c-2.33-3.61-6.42-5.33-6.42-5.33c-7.03-3.41-12.12-4.55-16.19-4.54l-3.14,5.55
			c10.29,3.18,18.89,1.63,18.89,1.63s-9.69,3.82-20.05,0.41l-12.57,22.24l13.24,12.67l-35.26,39.97c0,0,26.22,11.77,44.19,0.64
			c-12.06-11.04-13.26-16.48-11.55-22.59c2.32-8.28,16.51-30.19,16.51-30.19c18.95,6.32,45.98-6.39,46.24-15.84
			C264.97,72.01,241.91,43.3,239.23,38.92"/>
	</g>
</g>
</svg>
