<?xml version="1.0" encoding="utf-8"?>
<!-- Generator: Adobe Illustrator 27.8.1, SVG Export Plug-In . SVG Version: 6.00 Build 0)  -->
<svg version="1.1" xmlns="http://www.w3.org/2000/svg" xmlns:xlink="http://www.w3.org/1999/xlink" x="0px" y="0px"
	 viewBox="0 0 350 230" style="enable-background:new 0 0 350 230;" xml:space="preserve">
<style type="text/css">
	.st0{fill:#FF9D00;}
	.st1{fill:url(#SVGID_1_);}
	.st2{opacity:0.22;fill:url(#SVGID_00000126287252655059148080000006960988372759799984_);}
	.st3{fill:#FFC200;}
	.st4{fill:#778718;}
	.st5{fill:#E0B017;}
	.st6{fill:#664407;}
	.st7{fill:#9E690A;}
	.st8{fill:#7F1105;}
	.st9{fill:#191933;}
	.st10{fill:#FCEBD4;}
	.st11{fill:#E3DFD6;}
	.st12{fill:#FFB000;}
	.st13{fill:#AA210E;}
	.st14{fill:#FFF0A6;}
	.st15{fill:#FFDA00;}
	.st16{fill:#F4F4F4;}
	.st17{fill:#DC5C28;}
	.st18{fill:#FF8440;}
	.st19{fill:#C45224;}
	.st20{fill:#2C4369;}
	.st21{fill:#2A72DB;}
	.st22{fill:#C65500;}
	.st23{fill:#C15746;}
	.st24{fill:#FF8C00;}
	.st25{fill:#FFEA2C;}
	.st26{fill:#F7FF57;}
	.st27{fill:#FFFFFF;}
	.st28{fill:#D64949;}
	.st29{fill:#353535;}
	.st30{fill:#FFC783;}
	.st31{fill:#3F7F91;}
	.st32{fill:#25BDE5;}
	.st33{fill:#8CDD00;}
	.st34{fill:#D1FF88;}
	.st35{fill:#333333;}
	.st36{fill:#FF9000;}
	.st37{fill:#A1A813;}
	.st38{fill:#B3C40E;}
	.st39{fill:#CACE72;}
	.st40{fill:url(#SVGID_00000052822098230692034490000006977577351589686687_);}
	.st41{fill:#93E800;}
	.st42{fill:#3CB7D3;}
	.st43{fill:#FF7631;}
	.st44{fill:#E6873C;}
	.st45{fill:#30657F;}
	.st46{fill:#FF7A40;}
	.st47{fill:#FFAD4A;}
	.st48{fill:#BC8E3B;}
	.st49{fill:#E2E2E2;}
	.st50{fill:#F2B844;}
	.st51{fill:#AF3838;}
	.st52{fill:#17B5C1;}
	.st53{fill:#A88643;}
	.st54{fill-rule:evenodd;clip-rule:evenodd;fill:#DD7928;}
	.st55{fill:#E6E7E8;stroke:#CFCFCF;stroke-width:0.1061;}
	.st56{fill-rule:evenodd;clip-rule:evenodd;fill:#204F7A;}
	.st57{fill-rule:evenodd;clip-rule:evenodd;fill:#50A4FF;}
	.st58{fill:#002649;}
	.st59{fill:#00134F;}
	.st60{fill:#665200;}
	.st61{fill:#001E7C;}
	.st62{fill:#002349;}
	.st63{fill:#FF914D;}
	.st64{fill:#AC1929;}
	.st65{fill:#004AAD;}
	.st66{fill:#BE1C2D;}
	.st67{fill:#242424;}
	.st68{fill:#F1A75A;}
	.st69{fill-rule:evenodd;clip-rule:evenodd;}
	.st70{fill-rule:evenodd;clip-rule:evenodd;fill:#007177;}
	.st71{fill-rule:evenodd;clip-rule:evenodd;fill:#242424;}
	.st72{fill:#F9951C;}
	.st73{fill:#84123B;}
	.st74{fill:#FFB908;}
	.st75{fill:#393536;}
	.st76{fill:#093F00;}
	.st77{fill:#333300;}
	.st78{fill:#C8D7FF;}
	.st79{fill:#426BD1;}
	.st80{fill:#0036D2;}
</style>
<g id="Layer_1">
</g>
<g id="Layer_12">
</g>
<g id="Layer_13">
</g>
<g id="Layer_14">
</g>
<g id="Layer_15">
</g>
<g id="Layer_11">
</g>
<g id="Layer_8">
</g>
<g id="Layer_10">
</g>
<g id="Layer_9">
</g>
<g id="Layer_2">
</g>
<g id="Layer_3">
</g>
<g id="Layer_4">
</g>
<g id="Layer_5">
</g>
<g id="Layer_6">
</g>
<g id="Layer_7">
	<g>
		<path class="st62" d="M315.19,120.44l-24.54-0.06c-0.01,0-0.04,0-0.05-0.01c-0.11-0.03-0.18-0.14-0.15-0.26
			c0.94-3.85,0.64-7.83-1.72-11.13c-0.73-1.03-0.44-2.31-0.64-3.33c-0.66-3.37-2.61-5.5-5.38-7.73c-4.38-3.52-9.2-5.65-14.46-6.38
			c-0.09-0.02-0.17-0.06-0.24-0.12c-4.65-4.63-10.29-6.86-16.92-6.7c-0.1,0.01-0.18-0.04-0.23-0.14c-0.87-1.78-2.11-3.57-3.72-5.38
			c-7.59-8.52-17.77-12.99-29.23-9.86c-0.26,0.07-0.48,0.01-0.67-0.18c-4.63-4.76-10.25-7.58-16.85-8.45
			c-0.21-0.03-0.31-0.15-0.29-0.37c0.22-2.09,0.53-4.13,0.9-6.12c0.45-2.36,0.51-4.44-2.25-4.88c-0.02-0.01-0.04-0.01-0.06,0
			l-1.22,0.26c-0.02,0-0.04,0-0.06,0c-0.08-0.01-0.14-0.1-0.12-0.17c1.13-6.31,3.91-14.96-2.57-19.48
			c-0.51-0.36-1.13-0.54-1.87-0.54c-0.1,0-0.19-0.06-0.22-0.16c-0.66-2-1.59-3.53-2.81-4.57c-9.64-8.29-31.46-6.02-36.08,7.63
			c-0.5,1.48-0.8,3.54-0.92,6.21c-0.15,3.54-0.13,7.11,0.06,10.7c0,0.02,0,0.04,0,0.06c-0.03,0.1-0.14,0.16-0.24,0.13
			c-2.29-0.65-3.43,1.52-2.99,3.4c0.7,3.04,1.16,5.6,1.38,7.68c0.01,0.12-0.04,0.19-0.15,0.21c-2.67,0.57-4.47,1.01-5.4,1.31
			c-4.53,1.47-8.38,3.94-11.55,7.39c-0.11,0.12-0.27,0.16-0.43,0.11c-12.72-4.08-27.3,3.08-32.76,15.03
			c-0.07,0.16-0.24,0.26-0.41,0.25c-6.57-0.25-12.1,1.92-16.6,6.55c-0.11,0.11-0.26,0.19-0.42,0.2c-6.68,0.79-12.4,3.52-17.17,8.2
			c-2.36,2.32-3.36,5.28-2.98,8.9c0.01,0.11-0.01,0.22-0.08,0.31c-2.37,3.29-3.06,6.95-2.06,10.97c0.01,0.03,0.01,0.05,0.01,0.09
			c0,0.19-0.15,0.35-0.35,0.35l-25.62,0.05c-0.11,0-0.17,0.05-0.17,0.16l-0.03,1.51c0,0,0,0,0,0c0,0.1,0.08,0.18,0.18,0.18
			l34.27-0.06c0.11,0,0.21,0.08,0.22,0.19l0.14,1.07c0.02,0.12-0.04,0.18-0.16,0.18l-34.4-0.02c-0.11,0-0.2,0.09-0.2,0.2l0.02,4.06
			c0,0.1,0.05,0.14,0.15,0.14l21.58,0.06h14.95l0.53,4.89c0.81,5.23,4.11,8.68,9.67,8.6c2.16-0.03,4.1-0.11,5.81-0.22
			c1.34-0.09,2.62,0.56,3.95,0.49c2.12-0.11,3.74-1.12,4.86-3.02c0.06-0.1,0.12-0.1,0.2-0.01c1.88,2.4,5.09,3.38,7.48,1.12
			c0.44-0.42,0.82-1.02,1.22-1.53c1.53-2,4.63-0.76,4.88-4.36c0.16-2.36-1.46-4.16-2.93-5.86c-0.08-0.09-0.05-0.14,0.06-0.14
			l136.19,0c0.15,0,0.18,0.06,0.08,0.17c-0.96,1.13-2.08,2.36-2.57,3.62c-0.6,1.55-0.64,3.8,0.82,4.87
			c0.85,0.62,2.32,0.73,3.44,1.18c0.1,0.04,0.16,0.1,0.21,0.2c1.66,3.82,6.41,4.23,8.7,0.75c0.01-0.01,0.03-0.03,0.04-0.04
			c0.07-0.05,0.16-0.02,0.21,0.04c1.57,2.38,3.81,3.34,6.72,2.87c3.45-0.55,7.16,0.32,10.36-0.34c4.45-0.91,6.09-4.28,6.91-8.58
			l0.77-4.71h14.36l21.57,0c0,0,0,0,0,0c0.1,0,0.16-0.07,0.16-0.17l-0.01-4.12c0-0.1-0.05-0.15-0.16-0.15l-33.97,0.02
			c-0.12,0-0.19-0.06-0.2-0.19c-0.05-0.87,0.33-1.3,1.16-1.29c11.01,0.08,22.01,0.11,33.02,0.09c0.11,0,0.21-0.09,0.21-0.21
			l0.01-1.44c0,0,0,0,0,0C315.37,120.52,315.29,120.44,315.19,120.44z M278.03,98.31c0,0.06-0.05,0.11-0.11,0.11
			c-1.68-0.07-3.29,0.22-4.83,0.88c-0.03,0.01-0.07,0.01-0.09-0.02c-0.02-0.03-0.01-0.07,0.02-0.09c1.47-1.15,3.11-1.47,4.93-0.98
			C278,98.23,278.03,98.27,278.03,98.31z M255.54,99.75c0.96,0.18,1.85,0.49,2.66,0.93c0.09,0.05,0.12,0.02,0.12-0.07
			c0-0.05-0.02-0.1-0.06-0.12c-0.81-0.62-1.5-1.36-2.07-2.21c-0.04-0.06-0.06-0.14-0.07-0.21c-0.05-3.39-1.21-6.35-3.45-8.85
			c-0.01-0.01-0.01-0.02-0.01-0.04c0.01-0.02,0.03-0.03,0.05-0.02c3.66,1.82,7.16,3.9,10.5,6.24c0.01,0.01,0.02,0.01,0.03,0
			c0.01,0,0.01-0.02,0.01-0.03c-2.22-3.15-5.05-5.59-8.48-7.31c-0.05-0.03-0.05-0.05,0.01-0.04c4.46,0.25,8.61,1.95,11.16,5.77
			c0.06,0.09,0.13,0.12,0.23,0.12c3.46-0.14,6.74,1.21,9.77,2.76c0.38,0.2,0.73,0.44,1.03,0.72c0.11,0.1,0.09,0.15-0.05,0.14
			c-2.12-0.05-3.91,0.74-5.35,2.35c-0.08,0.09-0.17,0.13-0.3,0.13c-0.11,0-0.14-0.05-0.07-0.14c0.92-1.19,2.05-2.13,3.38-2.82
			c0.1-0.05,0.09-0.1-0.01-0.15c-0.14-0.05-0.26-0.06-0.39,0c-1.48,0.69-2.78,1.7-3.94,3.03c-0.06,0.07-0.12,0.07-0.18,0
			c-0.57-0.71,0.45-2.35,0.84-3.03c0.02-0.04,0.03-0.07,0.02-0.1c-0.01-0.07-0.05-0.07-0.09-0.01c-0.71,0.97-1.21,2.04-1.5,3.21
			c-0.01,0.05-0.05,0.08-0.1,0.09c-0.07,0.01-0.13-0.04-0.14-0.11c-0.06-0.73-0.14-1.49-0.23-2.27c-0.02-0.17-0.06-0.3-0.14-0.4
			c-0.01-0.02-0.04-0.04-0.07-0.04c-0.05,0-0.1,0.04-0.1,0.09l-0.55,6.5l-0.12,1.65c0,0.04-0.04,0.07-0.08,0.07
			c-0.04-0.01-0.07-0.04-0.07-0.08l0.05-1.43c0-0.12-0.07-0.24-0.2-0.27c-0.15-0.05-0.3,0.04-0.35,0.18
			c-0.08,0.25-0.12,0.57-0.15,0.95c-0.41,2.36-1.07,4.62-1.99,6.79c-0.04,0.09-0.1,0.16-0.2,0.21c-0.41,0.21-0.79,0.22-1.15,0.03
			c-1.18-0.61-2.34-0.93-3.48-0.98c-1.42,0.27-2.67,0.92-3.78,1.96c-0.08,0.08-0.17,0.1-0.28,0.04l-1.5-0.76
			c-0.88,0.01-1.77-0.26-2.54-0.16c-1.03,0.14-1.93,0.56-2.68,1.28c-0.11,0.11-0.29,0.14-0.43,0.07c-1.17-0.54-2.35-1.08-3.47-1.78
			c-1.99-1.22-4.01-2.42-6.03-3.6c-0.1-0.06-0.11-0.13,0-0.2c1.33-0.87,2.45-1.66,3.76-2.76c1.51-1.28,3.29-2.56,5.32-3.83
			C250.83,99.82,253.13,99.34,255.54,99.75z M269.76,100.81l-0.48,1.81c0,0.01,0,0.01,0,0.01c-0.08,0.31-0.19,0.54-0.24,0.52
			l-0.04-0.01c-0.05-0.01-0.02-0.27,0.05-0.58l0.48-1.81c0.01,0,0.01,0,0.01,0l0.21,0.05c0,0,0,0,0,0
			C269.76,100.8,269.76,100.81,269.76,100.81z M240.61,109.49c-0.22-0.18-0.21-0.19,0.04-0.06l7.91,4.47
			c0.02,0.01,0.03,0.03,0.03,0.06c0,0.04-0.03,0.06-0.07,0.06c-0.05,0-0.1,0-0.17,0c-0.06,0.01-0.12-0.01-0.18-0.04
			C245.35,112.79,242.83,111.29,240.61,109.49z M241.5,120.19c0.01,0.06-0.05,0.12-0.11,0.12l-10.18,0.02c-0.02,0-0.04,0-0.06-0.01
			c-0.09-0.04-0.14-0.14-0.11-0.23c0.77-2,1.32-4.05,1.65-6.17c0.01-0.01,0.01-0.02,0.01-0.02c0.02-0.02,0.05-0.01,0.07,0
			c2.35,2.81,5.24,4.87,8.65,6.19C241.48,120.1,241.5,120.14,241.5,120.19z M249.85,96c0.04-0.02,0.08-0.01,0.1,0.03l0.24,0.45
			c0.07,0.14,0.04,0.17-0.1,0.09c-0.16-0.09-0.25-0.25-0.28-0.5C249.81,96.04,249.83,96.01,249.85,96z M199.58,63.32
			c7.26,0.94,13.06,4.3,17.39,10.08c0.04,0.06,0.03,0.06-0.03,0.03c-1.62-0.91-3.34-1.57-5.16-1.97c-0.05-0.01-0.07,0-0.08,0.05
			c-0.01,0.03-0.01,0.05-0.03,0.07c0,0,0.01,0,0.01,0c2.05,0.79,4.03,1.74,5.92,2.86c0.04,0.02,0.05,0.07,0.05,0.11
			c-0.01,0.06-0.07,0.1-0.13,0.09l-4.1-1.15l-0.17,0c-0.12,0-0.19,0.06-0.2,0.18c0,0.05,0.01,0.11,0.03,0.16l4.23,1.76
			c0.12,0.06,0.12,0.08-0.01,0.07c-0.25,0-0.57-0.06-0.95-0.16c-1.95-0.52-3.93-0.92-5.92-1.22l-0.33,0.04
			c-0.09,0.01-0.14,0.07-0.11,0.16l0.05,0.21c1.74,0.2,3.37,0.71,4.89,1.52c0.04,0.02,0.04,0.03-0.01,0.02l-6.62-0.88
			c-0.08,0.24-0.17,0.4-0.28,0.47l3.52,0.74c1.24,0.05,2.53,0.25,3.88,0.62c0.01,0,0.01,0,0.01,0.01c0,0,0,0.01-0.01,0l-2.18-0.15
			c-1.12,0.2-2.24,0.25-3.36,0.14c-1.16-0.07-2.29-0.33-3.38-0.78c-0.17-0.07-0.22-0.03-0.13,0.14l0.06,0.11
			c0.03,0.05,0.08,0.1,0.14,0.11c0.75,0.24,1.49,0.53,2.21,0.85c1.18,0.54,2.42,0.41,3.68,0.48c0.01,0,0.01,0,0.01,0.01
			c0,0.04,0,0.06-0.01,0.08c0,0.01-0.03,0.02-0.05,0.02l-3.66,0.23c-0.94,0.41-1.99,0.54-3.15,0.39l-2.65-0.33
			c-0.16-0.02-0.19,0.03-0.08,0.15c0.77,0.84,4.61,1.22,5.91,1.29c0.28-0.06,0.51-0.04,0.66,0.04c0.1,0.06,0.1,0.11-0.01,0.15
			c-0.14,0.06-0.3,0.05-0.49-0.03c-2.51,0.29-7.48,0.23-8.7-2.1c-0.64-1.22-0.38-3.32-0.37-4.83l-0.19-1.08
			c-0.09-0.14-0.19-0.2-0.3-0.19c-0.12,0.02-0.14,0.09-0.07,0.21l-0.31,4.89c0.03,0.94,0.02,1.82-0.03,2.64
			c-0.03,0.52-0.09,0.52-0.17,0.01c-0.19-1.16-0.26-2.46-0.21-3.9c-0.05-1.64-0.12-3.27-0.19-4.9c-0.01-0.12-0.08-0.29-0.23-0.49
			c-0.05-0.07-0.08-0.06-0.09,0.02l-0.24,4.54l0.1,5.1c0.01,0.44-0.04,0.44-0.14,0.01c-0.26-1.13-0.37-2.67-0.31-4.61
			c0.08-0.85-0.04-1.72-0.34-2.58c-0.31,2.62-0.52,5.16-0.61,7.62c0,0.05-0.01,0.08-0.04,0.1c-0.07,0.05-0.11,0.03-0.11-0.05
			l-0.05-4.27c-0.44-0.44-0.57-1.18-0.4-2.22l-0.05-6.6c0-0.12,0.05-0.2,0.17-0.24c1.67-0.57,2.66-1.73,2.99-3.47
			C199.1,63.41,199.28,63.28,199.58,63.32z M205.82,81.58c-0.03,0.03-0.07,0.05-0.1,0.05c-1.69-0.05-3.32-0.37-4.91-0.96
			c-0.12-0.05-0.16-0.13-0.12-0.26l0.05-0.15c0.01,0,0.01-0.01,0.01-0.01c0.04-0.1,0.14-0.14,0.24-0.11c1.55,0.61,3.16,1.04,4.8,1.3
			C205.87,81.46,205.89,81.51,205.82,81.58z M196.99,54.21c0.31-0.92,0.76-1.77,1.37-2.56c0.1-0.12,0.27-0.15,0.4-0.07
			c1.29,0.77-1.37,3.6-2.03,4.15c0,0.04-0.03,0.09-0.11,0.14c-0.09,0.05-0.14,0.03-0.14-0.07
			C196.47,55.15,196.64,54.63,196.99,54.21z M197.35,59.4c0.25-0.53,0.47-1.05,0.68-1.56c0.01-0.02,0.04-0.04,0.06-0.04
			c0.03,0.01,0.04,0.04,0.03,0.06c-0.2,1.16-0.26,2.16-0.77,3.27c-0.5,1.09-0.9,2.25-1.22,3.48c-0.01,0.06-0.06,0.1-0.11,0.11
			c-0.08,0.01-0.16-0.04-0.16-0.12C195.53,62.54,196.54,61.16,197.35,59.4z M155.63,38.09c1.95-4.26,3.9-7.37,8.1-8.87
			c0.04-0.02,0.06-0.06,0.06-0.1c-0.01-0.05-0.06-0.09-0.11-0.08c-2.58,0.4-4.86,1.44-6.82,3.15c-0.16,0.14-0.43,0.53-0.68,0.71
			c-0.11,0.08-0.14,0.06-0.08-0.06c2.07-4.04,5.16-6.9,9.26-8.59c5.23-2.14,10.57-2.33,16.04-0.56c0.02,0,0.03,0.04,0.03,0.08
			c0,0,0,0,0,0c0,0.01-0.01,0.01-0.04,0.01c-2.13-0.33-4.27-0.38-6.41-0.15c-0.34,0.04-0.34,0.09-0.01,0.14
			c2.57,0.46,4.92,1.44,7.03,2.95c0.18,0.13,0.17,0.15-0.03,0.05c-3.27-1.59-6.66-1.78-10.16-0.58c0,0.01-0.01,0.01-0.01,0.02
			c0,0.01,0,0.02,0.02,0.02c4.03-0.05,7.47,1.89,10.9,3.57c0.71,0.35,0.69,0.39-0.05,0.14c-3.64-1.25-8.17-2.48-11.84-0.64
			c-0.35,0.17-0.33,0.24,0.06,0.21c2.33-0.2,4.45,0.09,6.35,0.88c0.05,0.02,0.1,0.05,0.1,0.09c0.01,0.02,0.02,0.05,0.01,0.08
			c-0.01,0.06-0.04,0.09-0.1,0.07c-3.03-0.72-5.89-0.34-8.6,1.14c-0.17,0.1-0.16,0.12,0.03,0.07c1.93-0.51,3.58-0.61,5.58-0.07
			c2.61,0.7,5.11,1.69,7.49,2.96c0.05,0.03,0.09,0.06,0.1,0.1c0.02,0.06-0.01,0.08-0.07,0.06c-3.83-1.35-7.71-1.48-11.63-0.36
			c-0.04,0.01-0.07,0.05-0.07,0.09c0,0.06,0.05,0.1,0.1,0.1c4,0.07,7.65,1.2,10.97,3.37c0.01,0.01,0.01,0.02,0.01,0.03
			c0,0.01-0.02,0.02-0.04,0.02c-4.04-1.55-8.34-2.52-12.58-1.52c-0.05,0-0.1,0.05-0.09,0.11c0,0.05,0.05,0.1,0.11,0.09
			c1.28,0.01,3.84-0.06,4.87,0.83c0.03,0.02,0.05,0.05,0.05,0.09c0,0.07-0.05,0.14-0.12,0.15c-1.48,0.15-3.17-0.13-4.48,0.3
			c-0.66,0.21-1.38,0.51-2.14,0.89c-0.63,0.31-0.61,0.38,0.07,0.21c1.16-0.29,2.44-0.37,3.85-0.24c3.57,0.34,6.77,1.31,9.61,2.93
			c0.94,0.54,0.91,0.6-0.1,0.19c-4.19-1.7-8.58-1.67-13.11-0.7c-0.12,0.03-0.15,0.09-0.07,0.19c0.05,0.07,0.11,0.1,0.2,0.09
			c4.65-0.6,9.62,1.13,13.38,3.68c0.45,0.3,0.43,0.34-0.06,0.12c-3.63-1.64-7.45-2.45-11.45-2.4c-0.24,0.01-0.25,0.06-0.04,0.16
			l0.57,0.27c0.17,0.08,0.24,0.27,0.18,0.44c-0.02,0.05-0.06,0.09-0.14,0.13c-0.05,0.02-0.11,0.04-0.17,0.04
			c-1.56-0.07-3.03,0.15-4.42,0.68c-0.05,0.01-0.07,0.06-0.07,0.11c0,0.06,0.05,0.1,0.11,0.1c4.85-0.11,9.22,1.25,13.12,4.1
			c0.02,0.02,0.03,0.04,0.04,0.06c0.01,0.04,0.02,0.06,0.02,0.1c0,0-0.01-0.01-0.03-0.02c-0.99-0.49-2.57-1.09-4.75-1.82
			c-4.8-1.6-9.39-1.39-13.76,0.63c-0.41,0.19-0.95,0.53-1.63,1.02c-0.14,0.11-0.16,0.08-0.09-0.07c0.95-1.79,2.39-2.98,4.33-3.57
			c0.09-0.03,0.16-0.1,0.17-0.2c0.03-0.17-0.01-0.24-0.11-0.21c-0.04,0.01-0.07,0.02-0.1,0.02c-2.08,0.09-3.9,0.76-5.46,1.99
			c-0.07,0.06-0.09,0.05-0.04-0.04c1.6-2.91,4.25-4.57,7.24-5.84c0.05-0.02,0.08-0.07,0.07-0.12c-0.01-0.07-0.07-0.11-0.13-0.1
			c-0.86,0.11-1.76,0.22-2.7,0.33c-2.17,0.24-3.29,1.24-4.7,2.58c-0.01,0.01-0.04,0.01-0.05,0c-0.02-0.01-0.03-0.04-0.01-0.06
			c1.68-2.43,3.9-4.24,6.66-5.42c0.64-0.26,1.31-0.38,2.01-0.31c0.14,0.01,0.17-0.04,0.08-0.15c-0.06-0.07-0.15-0.11-0.27-0.12
			c-2.87-0.25-5.41,0.6-7.63,2.54c-0.01,0.01-0.03,0.01-0.05,0.01c-0.02-0.01-0.03-0.05-0.02-0.06c1.13-1.43,2.46-2.65,3.98-3.67
			c1.43-0.95,3.48-1.27,5.14-1.9c0.17-0.06,0.16-0.11-0.01-0.15c-0.27-0.05-0.64-0.05-1.09,0c-2.66,0.3-4.98,0.74-6.95,1.32
			c-0.07,0.02-0.09,0-0.04-0.06c1.6-1.78,3.34-2.04,5.19-2.95c0.33-0.16,0.31-0.22-0.05-0.17c-3.26,0.4-5.78,2.11-7.55,5.16
			c-0.06,0.11-0.15,0.2-0.26,0.25C155.62,38.19,155.6,38.17,155.63,38.09z M174.75,51.28c-0.02,0.04-0.07,0.05-0.11,0.04
			c-4.44-2.07-9.41-3.06-14.27-1.57c-1.35,0.41-2.4,1.08-3.13,2.01c-0.98,1.23-1.03,1.19-0.17-0.12c2.58-3.92,7.21-5.05,11.72-3.35
			c2.38,0.89,4.06,1.57,5.93,2.91C174.75,51.21,174.76,51.25,174.75,51.28z M155.37,62.54l-0.05,1.54
			c-0.02,0.79-0.17,0.81-0.43,0.06c-0.38-1.1-0.78-2.09-1.2-2.98c-0.59-1.27-0.71-2.04-0.65-3.35c0-0.14,0.04-0.14,0.09-0.01
			c0.6,1.54,1.33,3.04,2.17,4.46C155.35,62.36,155.38,62.44,155.37,62.54z M151.73,51.98c0.1-0.34,0.32-0.57,0.66-0.68
			c0.11-0.04,0.23,0,0.3,0.09c1.01,1.18,1.63,3.27,2.2,4.7c0.05,0.1,0.02,0.11-0.06,0.04c-1.26-1.14-2.51-2.12-3.1-3.85
			C151.7,52.18,151.7,52.08,151.73,51.98z M134.66,74.1l3.58-1.79c0.02-0.07,0.02-0.13,0.01-0.18c-0.01-0.05-0.05-0.09-0.12-0.11
			c-0.06-0.02-0.14-0.03-0.23-0.04l-2.85,1.23c-0.24,0.1-0.27,0.05-0.12-0.16c0.51-0.66,1.15-1.13,1.6-1.78
			c3.22-4.59,10.09-7.34,15.49-8.01c0.1-0.01,0.17,0.04,0.2,0.14c0.4,1.4,1.32,3.5,3,3.75c0.1,0.02,0.16,0.08,0.16,0.19
			c0,1.65,0,3.3,0,4.93c0,1.01-0.3,1.91-0.49,2.84c-0.1,0.5-0.14,0.5-0.11-0.01c0.06-1.16,0.04-2.31-0.06-3.46
			c-0.11-1.24-0.23-1.24-0.37,0c-0.22,1.93-0.26,4.09-0.14,6.48l0.03,4.32c0,0,0,0,0,0c0,0,0,0,0,0l-0.37-4.24l-0.8-6.68
			c0.06-0.21,0.03-0.32-0.1-0.33c-0.27,2.68-0.38,5.39-0.33,8.1c0.01,0.71-0.02,1.28-0.07,1.71c-0.01,0.05-0.03,0.07-0.06,0.07
			c-0.05,0.01-0.06,0-0.07-0.05l-0.09-1.87l-0.4-6.45c-0.23,0.25-0.39,0.68-0.49,1.27l-0.18,2.16c0,0.11-0.06,0.19-0.16,0.24
			l-0.27,0.12c-0.1,0.05-0.14,0.13-0.12,0.25c0.07,0.33,0.01,0.62-0.19,0.89l-0.17,1.17c-0.01,0.11-0.07,0.18-0.17,0.22
			c-1.63,0.66-4.96,1.66-6.62,1.13c-0.05-0.02-0.09-0.07-0.1-0.12c0-0.08,0.06-0.16,0.14-0.16c2.11-0.1,4.16-0.59,6.15-1.47
			c0.14-0.06,0.21-0.16,0.23-0.28c0.02-0.14-0.04-0.19-0.17-0.13c-0.67,0.27-1.23,0.6-1.94,0.7c-2.2,0.31-4.22,0.43-6.04,0.37
			c-0.06,0-0.11-0.02-0.15-0.06c-0.07-0.08-0.06-0.13,0.06-0.14c1.58-0.14,3.05-0.63,4.4-1.48c0.02-0.01,0.03-0.04,0.02-0.06
			c-0.01-0.03-0.04-0.05-0.07-0.04c-1.93,0.72-3.93,1.07-5.99,1.05c-0.07,0-0.13-0.05-0.14-0.11c0-0.07,0.05-0.14,0.12-0.14
			c1.1-0.2,2.18-0.51,3.26-0.91c1.29-0.49,1.62-0.8,0.96-0.96l-3.48,0.76l-1.33,0.23c-1.02,0.24-2.1,0.3-3.26,0.19
			c-0.06-0.01-0.11-0.05-0.11-0.11c-0.01-0.07,0.04-0.14,0.11-0.15l2.08-0.16l1.79-0.33l2.29-0.76c0.2-0.03,0.3-0.09,0.3-0.19
			c0.01-0.27-0.09-0.38-0.27-0.34L138.68,76l-1.37,0.15c-0.22,0.02-0.24-0.03-0.06-0.15c0.25-0.17,0.57-0.25,0.96-0.23l2.31-0.94
			c-0.01-0.35-0.09-0.49-0.22-0.42c-1.33,0.33-2.65,0.67-3.96,1.03c-0.28,0.08-0.7,0.09-1.24,0.04c-0.22-0.02-0.23-0.08-0.02-0.16
			l0.16-0.06l0.36-0.19c1.88-0.67,3.69-1.47,5.42-2.42c0.01-0.01,0.02-0.03,0.02-0.05c0-0.02-0.03-0.04-0.04-0.03l-6.22,1.79
			c-0.06,0.01-0.12-0.01-0.15-0.07C134.57,74.21,134.6,74.13,134.66,74.1z M149.6,81.14c-1.34,0.44-2.66,0.64-3.95,0.59
			c-0.16-0.01-0.27-0.1-0.33-0.27c-0.04-0.11,0-0.18,0.12-0.19c1.6-0.15,3.14-0.55,4.6-1.21c0.12-0.05,0.19-0.01,0.21,0.12
			C150.33,80.65,150.11,80.98,149.6,81.14z M74.11,97.41c0.82-0.53,1.5-1.09,2.38-1.48c2.92-1.32,5.98-2.04,9.18-2.18
			c0.1,0,0.19-0.05,0.24-0.14c2.09-3.67,6.9-5.52,10.92-5.66c0.04,0,0.06,0.02,0.08,0.05c0.02,0.04,0.01,0.09-0.04,0.12
			c-3.28,1.8-6.22,4.03-8.06,7.28c-0.21,0.37-0.16,0.41,0.15,0.12c0.71-0.66,1.61-1.32,2.69-1.98c2.56-1.57,5.19-3.09,7.89-4.58
			c0.1-0.05,0.11-0.04,0.03,0.04c-2.7,2.81-3.33,5.8-3.35,9.57c0,0.11-0.03,0.2-0.11,0.28l-1.33,1.33c-0.01,0.1,0.09,0.15,0.3,0.16
			l1.85-0.53c1.3-0.22,2.19-0.29,2.66-0.19c2.25,0.43,4.26,1.36,6.03,2.8c2.36,1.92,4.8,3.73,7.31,5.43c0.05,0.04,0.05,0.07,0,0.1
			c-3.39,2.04-6.68,4.11-10.4,5.32c-0.03,0.01-0.05,0.04-0.05,0.06c0,0.04,0.03,0.07,0.06,0.07c0.93-0.04,1.81-0.23,2.65-0.58
			c2.11-0.87,4.13-1.91,6.06-3.14c0.08-0.04,0.14-0.05,0.18-0.03c0.06,0.05,0.06,0.09,0,0.14c-0.86,0.76-2.02,1.49-3.48,2.23
			c-1.85,0.93-3.69,1.88-5.54,1.88c-0.11,0-0.21-0.02-0.3-0.09c-1.9-1.2-2.95-2.34-5.57-1.69l-2.14,0.89
			c-0.1,0.04-0.2,0.02-0.27-0.06c-0.77-0.84-1.69-1.4-2.75-1.69c-1.7-0.42-3.26-0.14-4.66,0.81c-0.01,0.01-0.02,0.01-0.03,0.02
			c-0.14,0.07-0.32,0.02-0.39-0.12c-1.01-1.93-1.55-3.75-1.78-6.05c-0.21-2.09-0.37-4.2-0.51-6.3c-0.01-0.17-0.06-0.17-0.16-0.05
			l-0.45,0.64c-0.05,0.07-0.08,0.17-0.08,0.26l-0.06,4.1c0,0.12-0.05,0.14-0.12,0.05c-0.09-0.1-0.13-0.21-0.14-0.36
			c-0.02-1.43-0.15-2.75-0.41-3.99c-0.5-1.27-1.57-3.03-2.88-3.39c-0.18-0.05-0.2-0.01-0.06,0.11c1.07,0.98,1.75,1.71,2.1,3.01
			c0.36,1.04,0.55,2.08,0.57,3.12c0,0.02-0.01,0.04-0.03,0.05c-0.03,0.01-0.05-0.01-0.06-0.03l-0.94-2.79
			c0-0.02-0.01-0.05-0.01-0.07l0.02-0.18c-1.34-1.53-2.97-2.68-4.89-3.48c-0.11-0.04-0.22-0.02-0.34,0.08
			c-0.1,0.09-0.09,0.16,0.03,0.21c1.2,0.55,2.25,1.3,3.16,2.23c0.93,0.96,0.85,1.06-0.25,0.29c-1.47-1.03-3.09-1.65-4.87-1.85
			C73.98,97.58,73.96,97.52,74.11,97.41z M113.41,118.92c2.4-1.17,4.33-2.98,6.1-4.92c0.1-0.1,0.17-0.09,0.21,0.05l1.83,5.86
			c0.01,0.03,0.01,0.06,0.01,0.09c0,0.16-0.13,0.3-0.3,0.3l-10.31,0.03c-0.04,0-0.08-0.02-0.09-0.06c-0.03-0.05-0.01-0.13,0.05-0.15
			C111.73,119.73,112.56,119.34,113.41,118.92z M73.04,98.06c0.05-0.02,0.11-0.04,0.2-0.05c1.5-0.17,2.86,0.16,4.07,1
			c0.01,0,0.01,0,0.01,0.01c-0.01,0-0.01,0.01-0.02,0.01l-4.26-0.93c-0.01,0-0.01,0-0.01-0.01C73.02,98.08,73.03,98.07,73.04,98.06z
			 M68.27,118.54c-0.07,0.1-0.13,0.09-0.16-0.03c-0.26-0.99-0.6-1.96-0.99-2.93c-0.39-0.95-1.24-2.47-1.73-3.78
			c0-0.02-0.01-0.05,0-0.07c0.01-0.07,0.08-0.12,0.15-0.11l2.6,0.51l-1.68-1.7c-0.12-0.13-0.1-0.17,0.07-0.13
			c0.24,0.06,0.45,0.16,0.65,0.3c0.09,0.06,0.19,0.1,0.3,0.12l7.32,1.33c0.04,0.01,0.07,0,0.1-0.02c0.06-0.05,0.07-0.12,0.03-0.19
			c-0.11-0.15-0.27-0.27-0.5-0.36l-2.81-1.05c-0.15-0.06-0.16-0.12-0.01-0.19c0.03-0.01,0.06-0.03,0.09-0.05
			c0.04-0.02,0.07-0.02,0.11-0.01l2.42,0.77l-3.5-2.52c-0.15-0.1-0.13-0.14,0.05-0.11c1.13,0.19,2.68,1.35,3.71,1.91
			c0.04,0.01,0.08,0.01,0.1-0.02c0.04-0.04,0.04-0.1,0-0.14c-1.73-1.4-3.58-2.63-5.54-3.68c-0.13-0.07-0.12-0.09,0.02-0.07
			c1.65,0.24,3.17,0.83,4.54,1.79c0,0.01,0,0.01,0.01,0.01c0,0,0.01-0.01,0.01-0.01c0-0.04,0-0.07,0-0.11c0-0.01,0-0.03-0.02-0.04
			c-1.58-1.33-3.19-2.07-5.04-2.9c-0.03-0.01-0.05-0.04-0.04-0.07c0-0.04,0.04-0.06,0.07-0.06c1.46,0.21,2.85,0.65,4.16,1.32
			c0.03,0.02,0.06,0.02,0.1,0c0.01,0,0.02-0.01,0.02-0.01c0.02-0.01,0.01-0.03-0.02-0.05c-1.51-1-3.16-1.71-4.93-2.13
			c-0.69-0.16-0.68-0.23,0.03-0.2c1.04,0.04,2.06,0.19,3.07,0.43c0.19,0.05,0.21,0,0.07-0.13c-0.55-0.52-0.96-0.78-1.26-0.8
			c-0.81-0.02-1.62-0.12-2.42-0.31c-0.13-0.03-0.14-0.09-0.03-0.16c0.13-0.09,0.29-0.12,0.49-0.09c0.51,0.08,1.03,0.18,1.53,0.3
			c0.03,0,0.07,0,0.08-0.03c0.03-0.04,0.02-0.09-0.01-0.12c-0.38-0.26-0.81-0.39-1.28-0.4c-0.08,0-0.16-0.04-0.21-0.1
			c-0.11-0.12-0.1-0.32,0.03-0.43c2.86-2.49,7.23-1.06,9.49,1.45c2.27,2.51,4.03,5.35,5.29,8.5c0.01,0.02,0.01,0.04,0,0.06
			c-0.01,0.05-0.07,0.09-0.12,0.07c-1.87-0.5-4.05,1.02-5.43,2.12c-0.08,0.06-0.18,0.1-0.28,0.09c-1.82-0.15-3.54,0.17-5.18,1.01
			C70.47,116.22,69.31,117.28,68.27,118.54z M97.91,132.12c-0.08,0.03-0.17-0.01-0.2-0.09c-0.75-2.14-1.34-4.33-1.77-6.57
			c-0.33-1.7-0.9-3.47-1.19-5.26c-0.01-0.1-0.1-0.18-0.2-0.2c-0.22-0.04-0.36,0.06-0.41,0.3l1.31,11.13l0.15,1.15
			c0.01,0.11-0.06,0.21-0.17,0.22l-4.21,0.6c-0.3,0.04-0.58-0.16-0.64-0.46c-0.68-3.51-1.42-7.27-3.02-10.36
			c-0.39-0.76-1.14-1.61-1.56-2.55c0-0.01-0.01-0.03-0.02-0.04c-0.07-0.11-0.22-0.13-0.33-0.06c-0.08,0.06-0.11,0.14-0.1,0.23
			c0.82,3.43,1.6,7.23,2.36,11.4c0.09,0.47,0.06,0.94-0.08,1.42c-1.35,0.37-2.75,0.52-4.21,0.45c-0.1-0.01-0.18-0.06-0.21-0.17
			c-0.66-2.27-1.23-4.84-1.91-6.81c-0.74-2.16-1.6-4.09-2.57-5.79c-0.3-0.54-0.81-0.88-1.52-1.03c-0.1-0.02-0.17,0.02-0.2,0.11
			c-0.01,0.04-0.03,0.09-0.04,0.14c1.48,3.82,2.6,7.8,3.37,11.97c0.26,0.42,0.31,0.75,0.12,1.01c-0.12,0.16-0.37,0.28-0.76,0.34
			c-0.82,0.14-1.71,0.24-2.67,0.3c-0.38,0.02-0.63-0.14-0.75-0.51c-1.22-3.69-2.47-7.35-3.74-11.01c-0.16-0.47-0.66-1.23-1.48-2.27
			c-0.06-0.08-0.07-0.19-0.02-0.27c0.25-0.42,0.52-0.68,0.81-0.8l1.84-1.82c0.07-0.07,0.16-0.11,0.26-0.11
			c1.15,0,2.76,0.19,3.79-0.25c1.79-0.75,2.45-2.85,4.79-2.09c1.06,0.34,2.13,0.56,3.24,0.64c0.1,0.01,0.2-0.02,0.29-0.09
			c1.47-1.11,3-1.98,4.81-1.44c1.64,0.48,1.96,2.02,3.97,1.68c0.75-0.12,1.53-1.05,2.54-1.11c2.05-0.14,3.35,0.77,3.93,2.74
			c1.18,4.04,1.64,8.59,1.4,13.66c-1.77,0.4-3.42,0.95-4.97,1.66C97.91,132.12,97.91,132.12,97.91,132.12z M107.68,133.11
			c0.57,1.18-0.1,2.1-1.3,2.32c-1.47,0.26-2.74,0.78-3.83,1.54c-0.51,0.39-1.11,0.71-1.77,0.97c-0.22,0.09-0.4,0.06-0.52-0.1
			c-0.11-0.07-0.2-0.05-0.24,0.07c0.01,0.13,0,0.21-0.02,0.22c-0.04,0.02-0.08,0.04-0.12,0.05c-0.17,0.02-0.32-0.1-0.35-0.26
			c-0.24-1.74-0.17-3.26,1.48-4.19c0.58-0.33,1.27-0.59,2.07-0.79c1.28-0.32,1.85-1.17,1.69-2.53c0-0.04,0-0.07,0.02-0.1
			c0.04-0.1,0.16-0.16,0.27-0.12C106.43,130.72,107.31,131.7,107.68,133.11z M122.78,123.65l-17.43,0.04
			c-0.12,0-0.18-0.06-0.18-0.18v-1c0-0.14,0.07-0.22,0.22-0.22c8.3-0.05,13.94-0.06,16.91-0.02c0.22,0,0.34,0.12,0.37,0.36
			c0.01,0.09,0.04,0.18,0.06,0.26l0.22,0.52C123.01,123.57,122.96,123.65,122.78,123.65z M132.29,119.52
			c-0.16,0.01-0.31-0.1-0.45-0.34c-0.09-0.16-0.06-0.19,0.08-0.07l0.4,0.3C132.41,119.47,132.4,119.51,132.29,119.52z
			 M138.01,123.73L138.01,123.73c-0.01,0.01-0.01,0.01-0.01,0.01c0,0,0,0,0,0l-5.6-3.8c0,0,0,0,0-0.01l0,0c0,0,0.01,0,0.01,0
			c0.07-0.12,0.17-0.18,0.21-0.16l5.45,3.71c0.01,0.01,0.02,0.02,0.02,0.05C138.09,123.58,138.06,123.66,138.01,123.73z
			 M142.56,123.6c-1.54,0.2-3.1-0.81-4.37-1.56c-3.06-1.82-5.98-3.83-8.77-6.04c-0.01,0-0.01-0.01,0-0.03l0.05-0.07
			c0.01-0.01,0.02-0.01,0.04-0.01c3.08,1.91,6.15,3.83,9.19,5.79c0.9,0.58,2.19,1.18,3.87,1.8
			C142.74,123.54,142.73,123.58,142.56,123.6z M173.76,114.44c0,0.02-0.01,0.04-0.04,0.02c0,0-0.01,0-0.02,0
			c0,0-0.01-0.01-0.01-0.02l-0.56-3.7c-0.01-0.07-0.06-0.14-0.13-0.16c-0.03-0.01-0.07-0.02-0.11-0.04c-0.01,0-0.01-0.01-0.02-0.01
			c-0.03,0.01-0.05,0.02-0.05,0.05c0.41,4.3,0.46,8.61,0.16,12.92c0,0.07-0.05,0.14-0.12,0.16c-0.09,0.02-0.19-0.03-0.21-0.12
			c-0.02-0.1-0.04-0.21-0.03-0.35c0.17-2.69,0.06-5.35-0.33-7.98c-0.26-0.4-0.37-0.15-0.3,0.73l0.12,7.46
			c0,0.12-0.06,0.18-0.18,0.18l-11.24,0.01l-1.95-0.01c-1.1,0.12-2.13,0.06-3.08-0.19c-0.67,0.25-1.32,0.29-1.95,0.14
			c-0.91,0.13-1.74,0.09-2.5-0.11c-0.61,0.2-1.06,0.25-1.35,0.15c-1.97,0.03-4.25,0.27-6.07-0.33c-1.93-0.64-3.5-1.62-5.24-2.65
			c-3.73-2.2-6.68-4.17-8.84-5.91c-2.72-2.19-2.61-2.36,0.35-0.49c4.43,2.79,9.36,5.95,14.44,8.27c0.09,0.04,0.24,0.05,0.47,0.02
			c0.11-0.01,0.11-0.04,0.02-0.09c-4.55-2.37-8.93-5.03-13.13-7.98c-0.98-0.69-2.06-1.26-3.1-1.84c-0.08-0.05-0.07-0.06,0.02-0.06
			c1.75,0.14,3.56,0.39,5.24,0.41c3.8,0.04,7.61-0.1,11.43-0.41c0.02,0.01,0.03-0.01,0.03-0.02c0-0.02-0.01-0.03-0.03-0.04
			c-3.81-0.49-7.47-0.89-11.37-1.71c-1.72-0.36-3.43-0.68-5.15-0.97c-0.01,0-0.01-0.01-0.01-0.02c0-0.01,0.01-0.01,0.02-0.01
			c0.83,0.05,1.69,0.01,2.5,0.13c2.78,0.4,5.63,0.95,8.45,0.92c0.04,0,0.04,0,0-0.01c-2.06-0.44-4.14-0.83-6.24-1.2
			c-2.63-0.46-6.76-0.85-10.11-1.57c-0.03,0-0.04-0.02-0.03-0.05c0-0.03,0.01-0.04,0.01-0.05c2.64,0.36,5.31,0.48,8.01,0.35
			c0.06,0,0.1-0.04,0.1-0.09c0.01-0.05-0.04-0.09-0.09-0.09l-8.99-1.16c-0.02,0-0.04-0.01-0.04-0.03s0.02-0.04,0.04-0.04
			c2.56-0.37,4.89-1.09,7.11-2.48c1.03-0.65,1.81-1.08,2.33-1.28c3.25-1.28,6.55-2.45,9.89-3.5c0.01-0.01,0.03-0.02,0.02-0.04
			c0-0.02-0.01-0.04-0.04-0.04c-2.06,0.25-4.1,0.63-6.12,1.15c-0.01,0.01-0.02,0-0.03-0.01c0-0.02,0-0.03,0.01-0.04
			c4.28-2.33,8.83-3.89,13.65-4.67c0.29-0.05,0.28-0.07,0-0.08c-5.17-0.08-10.32,0.35-14.98,2.85c-1.32,0.77-2.65,1.51-3.98,2.22
			c-3.14,1.69-5.59,2.39-8.96,2.09c-0.04,0-0.07-0.02-0.09-0.05c-0.03-0.05-0.01-0.09,0.05-0.09c1.93-0.09,3.73-0.64,5.38-1.63
			c0.05-0.02,0.07-0.08,0.05-0.13c-0.02-0.06-0.08-0.08-0.13-0.06c-2.86,0.73-5.77,0.97-8.73,0.73c-1.53-0.12-1.53-0.18,0-0.17
			c1.71,0.01,3.59-0.26,5.65-0.83c0.02-0.04,0.06-0.09,0.12-0.15c0.1-0.08,0.08-0.11-0.05-0.11l-1.28,0.07l-3.58,0.22l-1.8,0.02
			c-0.22,0.01-0.24-0.04-0.03-0.12c0.38-0.15,0.8-0.22,1.27-0.2l5.6-1.07l1.36-0.29c0.14-0.18,0-0.27-0.4-0.27l-9.01,0.87
			c-0.08,0.01-0.11-0.02-0.1-0.1c0.01-0.06,0.04-0.09,0.08-0.1c1-0.2,2.41-0.46,4.23-0.76c0.1-0.01,0.11-0.06,0.05-0.13
			c-0.02-0.02-0.04-0.04-0.06-0.05c-0.02-0.02-0.05-0.03-0.08-0.03c-1.99,0.1-3.95,0.36-5.9,0.76l-1.34,0.14l-1.48,0.08
			c-0.17,0.01-0.19-0.04-0.04-0.14c0.16-0.11,0.4-0.15,0.7-0.12l1.58-0.24l2.68-0.49c-0.14-0.38-0.6-0.54-1.4-0.49l-5.28,0.45
			c-0.11,0.01-0.15-0.03-0.09-0.14c0.06-0.09,0.14-0.14,0.24-0.15c2.34-0.31,4.6-0.84,6.8-1.62c0.1-0.14,0-0.19-0.31-0.16
			l-7.84,1.29c-0.12,0.02-0.13-0.01-0.02-0.06c0.56-0.34,1.11-0.62,1.77-0.8c1.82-0.51,3.64-1.05,5.44-1.62
			c0.03-0.01,0.04-0.03,0.04-0.07v-0.08c0-0.01,0-0.01-0.01-0.01c-2.26,0.57-4.56,0.94-6.89,1.14c-0.03,0-0.06-0.02-0.07-0.05
			c-0.01-0.04,0-0.09,0.04-0.11l3.62-1.18c-0.01-0.06,0-0.11,0.02-0.15c0.03-0.06,0.01-0.09-0.05-0.11l-0.22-0.04l-2.9,0.67
			c-0.18,0.05-0.2,0-0.06-0.13c0.78-0.73,1.48-1.51,2.13-2.35c0.47-0.6,0.94-1.08,1.42-1.43c1.68-1.22,3.42-2.32,5.25-3.3
			c-0.01-0.14-0.11-0.19-0.32-0.15c-3.12,0.95-5.06,1.57-5.85,1.85c-3.3,1.21-6.16,3.38-8.57,6.5c-0.03,0.04-0.05,0.03-0.05-0.01
			c-0.02-0.03-0.02-0.06,0-0.09c0.63-0.87,1.18-1.9,1.89-2.63c1.98-2.04,4.26-3.7,6.85-4.97c-0.02-0.09-0.09-0.13-0.19-0.13
			c-3.2,1.34-5.32,3.47-7.86,5.72c-0.03,0.03-0.05,0.02-0.07-0.01c0-0.01,0-0.02-0.01-0.03c-0.01-0.06-0.01-0.1-0.01-0.1l4.33-4.33
			c0.09-0.09,0.08-0.1-0.02-0.02c-2.03,1.44-4.47,3.61-5.56,6.03c-0.04,0.08-0.09,0.12-0.15,0.14c-0.11,0.03-0.14-0.01-0.1-0.11
			c1.33-2.88,3.27-5.28,5.8-7.18c0,0,0,0,0-0.01c0,0,0,0-0.01,0c-1.38,0.69-2.58,1.63-3.59,2.8c-0.41,0.48-1.04,0.73-1.33,1.26
			c-0.01,0.02-0.04,0.03-0.06,0.02c-0.02-0.01-0.03-0.04-0.02-0.06c0.18-0.36,0.48-0.68,0.91-0.96c0.09-0.06,0.15-0.14,0.21-0.23
			c1.84-3.54,4.84-6.32,8.4-8.52c0.04-0.02,0.06-0.06,0.05-0.11c-0.01-0.06-0.07-0.1-0.13-0.09l-1.35,0.24
			c-0.21,0.27-0.67,0.49-1.36,0.66c-0.12,0.03-0.15-0.01-0.1-0.13c0.2-0.41,0.17-0.58-0.08-0.52c-1.6,0.77-3.09,1.68-4.46,2.74
			c-0.03,0.02-0.05,0.06-0.05,0.1c0,0.04-0.01,0.06-0.04,0.07c-0.05,0.02-0.06,0-0.03-0.05c0.25-0.43,0.7-0.85,1.32-1.28
			c0.67-0.46,1.12-1.3,1.88-1.76c1.63-0.98,3.27-1.92,4.92-2.85c-0.01-0.12-0.06-0.17-0.16-0.14c-3.4,1.35-6.41,3.26-9,5.72
			c-0.01,0.01-0.03,0.01-0.05,0.01c-0.02-0.01-0.03-0.04-0.01-0.06c1.68-2.29,3.77-4.1,6.28-5.44c0.07-0.04,0.08-0.09,0.02-0.15
			c-0.06-0.05-0.11-0.06-0.16-0.04c-2.05,0.96-3.85,2.29-5.39,3.97c-0.01,0.01-0.03,0.02-0.05,0c-0.01-0.01-0.01-0.03,0-0.04
			c5.75-9.33,16.67-14.58,27.56-11.89c0.1,0.02,0.12,0.08,0.07,0.16c-0.05,0.1-0.11,0.15-0.2,0.18c-1.1,1.37-2.2,2.72-3.3,4.04
			c-0.38,0.46-0.82,0.81-1.33,1.08c-2.05,1.08-4.23,2.04-6.53,2.9l-2.03,1.24c-0.31,0.19-0.29,0.23,0.05,0.11
			c3.16-1.07,6.3-1.83,9.39-2.29c2.31-0.34,4.38-0.38,6.2-0.14c5.36,0.73,10.21,3.36,14.63,6.34c2.65,1.78,5.28,3.54,7.9,5.29
			c1.81,1.16,3.6,2.3,5.37,3.43c3.4,2.17,6.82,4.72,8.74,8.29C172.93,106.16,173.87,110.15,173.76,114.44z M168.85,93.26
			c-1.03-1.04-1.94-2.18-2.74-3.41c-2.39-3.71-4.4-7.61-6.03-11.68c-0.01-0.03,0-0.06,0.02-0.09c0.04-0.03,0.09-0.03,0.11,0
			c1.76,1.92,3.21,4.05,4.34,6.4c0.03,0.05,0.07,0.08,0.13,0.07c0.07-0.01,0.11-0.07,0.1-0.14l-0.34-2.77
			c-0.15-1.45-0.73-2.83-1.77-4.14c-2.98-2.76-4.75-4.85-5.29-8.82c-0.24-1.76-0.59-4.5,0.03-6.2c-0.01-0.73,0.03-1.36,0.12-1.88
			c0.08-0.46,0.14-0.46,0.17,0.01l0.14,2.04c0,0.04,0.03,0.07,0.06,0.09c0.05,0.02,0.11-0.01,0.13-0.06
			c0.22-0.59,0.38-1.2,0.45-1.83c0-0.02,0.02-0.04,0.05-0.04h0.04c0.02,0,0.03,0.01,0.03,0.04l-0.04,2.46c0,0.09,0.06,0.19,0.16,0.2
			c0.11,0.03,0.22-0.04,0.25-0.15c0.21-0.78,0.33-1.58,0.36-2.38c0-0.04,0.02-0.09,0.06-0.12l0.1-0.09
			c0.01-0.01,0.03-0.01,0.03,0.01l0.31,2.23c-0.03,0.06,0.03,0.11,0.16,0.14c0.01,0.01,0.02,0.01,0.03,0.01
			c0.1,0,0.19-0.07,0.19-0.17l0.11-2.85c0-0.04,0.04-0.07,0.07-0.07c0.04-0.01,0.07,0.03,0.07,0.07l0.24,2.7
			c0.01,0.09,0.05,0.1,0.12,0.05c0.09-0.06,0.14-0.16,0.14-0.3c-0.01-0.47,0.02-0.79,0.09-0.95c0.12-0.32,0.19-0.32,0.2,0.01
			l0.06,1.56c0,0.02,0.01,0.05,0.04,0.06c0.04,0.02,0.07,0.01,0.09-0.02c0.09-0.14,0.14-0.34,0.15-0.57
			c0.06-2.13-0.04-4.26-0.29-6.39c-0.07-0.5-0.08-1.02-0.06-1.53c0.01-0.09,0.04-0.11,0.11-0.04c1.28,1.28,2.92,2.32,4.9,3.16
			c8.22,3.45,18.13,2.37,23.83-5.02c0.11-0.14,0.16-0.11,0.15,0.06l-0.25,7.1l0.25,1.45c0.18,0.87,0.5,1.68,0.95,2.4
			c0.02,0.04,0.06,0.05,0.1,0.05c0.05-0.01,0.09-0.05,0.07-0.11l-0.56-3.42c-0.01-0.02,0.01-0.04,0.03-0.05
			c0.02-0.01,0.04,0.01,0.05,0.03c0.26,1.14,0.67,2.21,1.23,3.19c0.03,0.05,0.09,0.08,0.14,0.07c0.08,0,0.14-0.07,0.13-0.16
			l-0.18-2.37c-0.02-0.25,0.01-0.26,0.09-0.01c0.17,0.55,0.35,1.14,0.54,1.76c0.09,0.27,0.23,0.4,0.44,0.36l0-1.71
			c0-0.2,0.04-0.21,0.13-0.03c0.15,0.31,0.2,0.67,0.18,1.08c0.39,1.49,0.41,3.03,0.06,4.59c0.07,3.21-0.96,4.87-2.83,7.5
			c-1.48,2.02-3.23,3.58-4.26,5.94l-0.67,5.51c-0.01,0.08,0.03,0.16,0.11,0.17c0.08,0.02,0.15-0.03,0.17-0.1
			c0.59-1.69,1.25-3.32,1.99-4.92c0.1-0.2,0.6-0.5,0.78-0.81c0.38-0.67,0.82-1.29,1.33-1.86c0.03-0.03,0.06-0.05,0.1-0.03
			c0.06,0.01,0.08,0.07,0.07,0.12c-0.71,3.17-2.69,6.5-4.41,9.22c-1.64,2.61-2.62,4.12-2.97,4.52c-1.62,1.89-3.84,2.88-6.67,2.96
			C173.66,95.41,170.77,95.2,168.85,93.26z M223.27,116.84c-0.33,0.54-0.75,1-1.27,1.39c-0.43,0.33-1.36,1.15-2.77,2.45
			c-1.58,1.3-2.99,2.24-4.24,2.84c-0.17,0.09-0.41,0.08-0.69-0.01c-0.1-0.03-0.1-0.07-0.01-0.13l4.75-3.06l4.14-3.55
			c0.02-0.01,0.05-0.02,0.07-0.01C223.28,116.78,223.28,116.81,223.27,116.84z M223.05,116.05c-3.07,2.55-7.31,5.31-9.87,6.84
			c-0.74,0.44-1.65,0.63-2.72,0.56c-0.04,0-0.06-0.02-0.08-0.06c-0.02-0.05,0-0.1,0.05-0.12c1.08-0.35,1.97-0.73,2.95-1.29
			c3.69-2.14,7.26-4.49,10.72-7.03c0.01,0,0.01,0,0.02,0c0,0,0,0.01,0,0.01C223.8,115.36,223.45,115.73,223.05,116.05z
			 M219.49,117.37c-4.14,2.65-7.42,4.59-9.85,5.84c-0.53,0.27-1.21,0.36-2.06,0.26c-0.19-0.02-0.2-0.06-0.02-0.14
			c1.56-0.65,2.87-1.32,3.93-1.99c4.23-2.67,8.49-5.33,12.8-7.98c0,0,0.01,0,0.01,0c0,0.01,0.01,0.02,0,0.02
			C222.23,115.32,220.62,116.65,219.49,117.37z M229.42,107.07l-2.31,0.08l-0.85,0.29l-4.91,0.68c0,0.21,0.09,0.3,0.23,0.27
			l6.01-0.35l1.3-0.08c0.17-0.01,0.17,0.01,0.01,0.06c-0.34,0.12-0.72,0.15-1.15,0.1c-0.44,0.11-0.85,0.29-1.28,0.34
			c-4.77,0.54-9.46,1.31-14.04,2.29c-0.38,0.08-0.37,0.1,0.01,0.07c3.78-0.33,7.59-0.81,11.45-1.46c0.52-0.16,0.99-0.24,1.41-0.23
			c0.25,0,0.25,0.03,0,0.07l-1.17,0.24c-5.64,1.39-11.34,2.38-17.12,2.96c-0.03,0.01-0.05,0.02-0.07,0.05
			c-0.05,0.06-0.03,0.1,0.05,0.11c5.48,0.39,10.96,0.41,16.44,0.06c0.1,0,0.2-0.04,0.27-0.11c0.21-0.17,0.42-0.35,0.64-0.51
			c0.04-0.03,0.09-0.02,0.12,0.01c0.03,0.04,0.02,0.09-0.01,0.12c-0.43,0.34-0.75,0.77-1.24,1.07c-3.53,2.17-7.02,4.41-10.47,6.7
			c-1.65,1.1-3.35,2.13-5.08,3.09c-0.47,0.26-0.97,0.41-1.49,0.44c-1.16,0.07-2.39,0.09-3.69,0.04c0.2-0.15,0.25-0.25,0.17-0.29
			c-0.09-0.04-0.18-0.09-0.27-0.14c-1.12,0.48-2.29,0.63-3.51,0.46c-0.14-0.02-0.14-0.05-0.01-0.1l1.34-0.47
			c0.15-0.3,0.05-0.53-0.31-0.7c-1.89,1.01-3.85,1.43-5.89,1.25l-2.4-0.11l-0.67,0.12l-10.46,0.09c-0.1,0-0.16-0.06-0.16-0.17
			c-0.05-3.96-0.07-6.59-0.03-7.9c0.03-1.13,0.24-2.33,0.65-3.57c0.03-0.1,0-0.13-0.1-0.1c-0.05,0.02-0.1,0.05-0.1,0.09
			c-0.73,2.23-1.04,4.55-0.92,6.96c0.02,1.48,0.05,2.96,0.1,4.43c0,0.09-0.01,0.16-0.05,0.21c-0.05,0.09-0.11,0.14-0.19,0.16
			c0,0-0.01,0-0.02,0c-0.1,0.01-0.19-0.06-0.2-0.16c-0.24-2.16-0.29-4.28-0.14-6.36c-0.19-4.77,1.06-9.01,3.77-12.74
			c0.01,0,0.03-0.03,0.08-0.08c0.04-0.04,0.06-0.08,0.05-0.14c-0.01-0.11-0.05-0.12-0.12-0.04c-1.6,1.85-2.57,4.15-3.43,6.47
			c-0.46,1.22-0.74,2.5-0.87,3.82c0,0.02-0.02,0.05-0.03,0.06c-0.04,0.02-0.09,0.01-0.11-0.02c-0.03-0.05-0.05-0.11-0.05-0.18
			c-0.05-5.54,1.58-11.68,5.57-15.71c1.77-1.79,3.65-3.23,5.64-4.32c0.02-0.11,0.14-0.22,0.36-0.35c0.07-0.3,0.33-0.47,0.77-0.5
			l0.28-0.23c-0.05,0.04-0.09,0.05-0.14,0.04c-0.07-0.01-0.08-0.05-0.02-0.1c1-0.9,2.1-1.63,3.32-2.16c4-2.68,8.07-5.76,12.25-7.9
			c2.18-1.12,4.08-1.98,5.7-2.6c3.68-1.4,7.72-1.8,12.1-1.22c1.62,0.17,3.21,0.51,4.77,1.02c1.6,0.31,3.13,0.82,4.58,1.52
			c0.1,0.04,0.16,0.05,0.21,0.02c0.07-0.05,0.07-0.1,0-0.15l-2.11-1.36c-2.12-0.82-4.17-1.62-6.15-2.38
			c-0.73-0.28-1.38-0.7-1.95-1.24c-1.43-1.38-2.82-2.92-4.16-4.6c-0.1-0.03-0.17-0.09-0.21-0.18c-0.05-0.1-0.01-0.16,0.09-0.18
			c9.74-2.39,19.53,2,25.7,9.58c0.54,0.67,1.03,1.52,1.46,2.56c0.03,0.06,0.01,0.08-0.05,0.06c-0.04-0.01-0.06-0.04-0.09-0.07
			c-0.94-1.78-3.72-3.44-5.63-4.7c-0.12-0.07-0.21-0.11-0.28-0.09c-0.11,0.04-0.12,0.09-0.03,0.16c1.63,1.3,3.25,2.59,4.88,3.87
			c0.26,0.2,0.5,0.51,0.72,0.9c0.09,0.15,0.06,0.19-0.09,0.08c-2.9-2.11-5.98-3.93-9.24-5.43c-1.38-0.63-1.4-0.6-0.06,0.11
			c3.27,1.73,6.33,3.76,9.18,6.11c0.36,0.29,0.33,0.33-0.07,0.11l-7.22-3.86l-0.21,0.04c-0.14,0.02-0.14,0.07-0.02,0.14l2.83,1.55
			l1.33,1.03c0.21,0.16,0.2,0.22-0.05,0.15c-0.03,0-0.07-0.01-0.1-0.01c-0.06,0.01-0.11-0.01-0.16-0.04l-1.59-0.99
			c0.02-0.05,0-0.08-0.08-0.07c-0.07,0.01-0.11,0.04-0.12,0.1l-0.06,0.19c3.64,2.91,6.15,5.45,8.4,8.93
			c0.02,0.03,0.01,0.07-0.01,0.09c-0.03,0.03-0.07,0.02-0.09,0c-1-0.93-1.9-1.7-2.72-2.28c-2.65-1.91-2.73-1.8-0.26,0.3
			c0.72,0.62,2.79,2.62,3.08,3.93c0.29,0.22,0.49,0.54,0.6,0.92c0.04,0.12,0.02,0.13-0.07,0.04c-0.25-0.28-0.43-0.61-0.53-0.96
			c-1.51-1.62-3.16-3.07-4.97-4.34c-0.23,0.03-0.31,0.2-0.25,0.51c1.85,1.22,3.16,2.43,3.94,3.65c0.54,0.83,1.1,1.65,1.69,2.43
			c0.02,0.02,0.03,0.05,0.02,0.07c0,0,0,0.01,0,0.02c0,0.01-0.01,0.01-0.02,0.01c-3.91-5.29-8.73-6.67-15.38-9.18
			c-0.15-0.05-0.24-0.08-0.28-0.08c-0.22,0.03-0.24,0.1-0.04,0.21c2.36,1.34,4.59,2.86,6.68,4.55c1.3,1.06,2.47,2.54,3.78,3.79
			c0.01,0.01,0.02,0.04,0.01,0.05c-0.01,0.03-0.04,0.04-0.06,0.03l-4.59-1.49l-0.08,0.05c-0.03,0.01-0.05,0.05-0.06,0.07
			c-0.01,0.06,0.02,0.13,0.09,0.15c0.97,0.21,1.88,0.59,2.72,1.11c0.03,0.01,0.04,0.05,0.03,0.08c-0.01,0.03-0.05,0.04-0.08,0.02
			c-1.09-0.45-2.23-0.71-3.43-0.78l5.01,1.99c0.77,0.31,0.75,0.38-0.06,0.23c-1.63-0.3-3.4-0.66-5.32-1.07
			c-0.34-0.05-0.5,0.04-0.5,0.26l4.93,1.69c0.26,0.09,0.27,0.14,0.01,0.13c-0.09,0-0.2-0.01-0.33-0.05
			c-2.81-0.73-5.5-1.32-8.08-1.77c-0.59-0.1-0.6-0.05-0.04,0.15c1.09,0.39,2.35,0.76,3.77,1.13l4.34,1.37c0,0,0.01,0.01,0.01,0.02
			c0,0.01-0.01,0.02-0.02,0.02c-1.89-0.24-3.75-0.24-5.57-0.79l-5.92-1.06l-0.74,0.01c-0.01,0-0.03,0.01-0.03,0.02
			s0.01,0.03,0.02,0.03c0.15,0.04,0.29,0.05,0.44,0.01c0.01,0,0.02,0.01,0.03,0.02c0.01,0.01,0.01,0.04,0,0.04
			c-0.01,0.01-0.03,0.02-0.05,0.02l8.2,2.2c0.35-0.05,0.65,0,0.9,0.15c0.12,0.07,0.11,0.12-0.03,0.14c-0.24,0.04-0.49,0-0.75-0.11
			l-4.48-0.6c-1.25,0.11-2.5,0.05-3.74-0.19l-2.43-0.2c-0.5-0.04-0.63,0.06-0.4,0.31l7.72,1.44c0.04,0,0.06,0.03,0.08,0.06
			c0.01,0.02,0.01,0.04,0.02,0.05c-3.81-0.2-6.94-0.33-11.06-1.52c-0.06-0.02-0.11-0.03-0.16-0.01c-0.11,0.03-0.12,0.09-0.04,0.16
			l0.21,0.19l0.36,0.11c3.37,1.07,6.79,1.73,10.26,1.99c0.01,0,0.01,0,0.01,0.01c0,0,0,0.01-0.01,0.01
			c-2.82,0.07-5.65-0.01-8.48-0.27c-1.65-0.15-2.92-0.62-3.81-1.43l-3.49-1.23c-0.04,0.06-0.1,0.07-0.19,0.07
			c-0.04-0.01-0.05,0.05-0.05,0.18c1.11,0.37,2.17,0.84,3.18,1.44c0.75,0.44,1.41,0.75,1.98,0.92c2.06,0.61,4.19,1.09,6.38,1.42
			c0.01,0.01,0.01,0.01,0.02,0.01c0,0.01,0,0.03-0.01,0.04c-2.42,0.75-5.31-0.12-7.45-1.3c-1.56-0.86-3.14-1.7-4.72-2.52l-1.72-0.94
			c-4.38-2.07-8.84-2.18-13.24-2.31c-0.91-0.02-0.92,0.05-0.02,0.22c4.51,0.84,8.79,2.31,12.85,4.42c0.16,0.09,0.15,0.11-0.03,0.07
			l-6.42-1.17c-0.01,0-0.01,0-0.02,0.01c0,0.01,0.01,0.02,0.01,0.02c3.11,0.92,6.17,1.97,9.19,3.16c1.07,0.42,2.24,0.99,3.52,1.71
			c2.36,1.32,4.42,2.45,6.89,2.68c0.02,0,0.04,0.02,0.05,0.04C229.47,107.04,229.45,107.07,229.42,107.07z M229.6,123.66
			c-0.01,0-0.03,0-0.04-0.01c-0.05-0.02-0.06-0.08-0.04-0.13l0.62-1.21c0.01-0.03,0.04-0.05,0.08-0.05l15.24-0.02
			c0,0,0.01,0,0.02,0.01c0.05,0.01,0.09,0.06,0.07,0.11l-0.23,1.23c-0.01,0.04-0.05,0.08-0.1,0.07H229.6z M251.39,137.15
			c-0.03,0.47-0.21,0.82-0.55,1.07c-0.09,0.06-0.18,0.07-0.27,0.02l-1.66-0.89c-0.85-0.44-1.37-1.13-2.29-1.37
			c-0.9-0.24-1.81-0.48-2.73-0.73c-0.78-0.21-1.01-0.89-0.67-2.02c0.45-1.38,1.27-2.41,2.47-3.09c0.1-0.06,0.16-0.03,0.17,0.09
			c0.11,1.32-0.11,2.34,1.51,2.74c0.61,0.15,1.12,0.31,1.54,0.46c0.37,0.02,0.67,0.12,0.92,0.29
			C250.95,134.51,251.47,135.66,251.39,137.15z M279.37,119.57c-2.56,4.1-3.82,9.18-5.16,13.43c-0.06,0.2-0.25,0.34-0.46,0.35
			c-0.93,0.05-2.71,0.06-3.62-0.41c-0.1-0.05-0.16-0.15-0.17-0.26c-0.05-0.57,0.03-0.98,0.2-1.24c0.67-3.06,1.45-5.98,2.35-8.78
			c0-0.01,0.18-0.4,0.54-1.17c0.3-0.65,0.34-1.41,0.1-2.27c-1.04,0.71-1.87,1.84-2.48,3.38c-1.38,3.47-2.5,7.03-3.36,10.67
			c-0.05,0.22-0.25,0.39-0.47,0.4c-0.82,0.05-3.48,0.18-4.05-0.53c-0.27-0.34-0.3-0.77-0.1-1.3l1.99-8.7
			c0.01-0.67,0.11-1.33,0.3-1.98c0.15-0.51,0-0.77-0.42-0.77c-0.21,0-0.41,0.1-0.53,0.28c-0.66,0.99-1.14,1.99-1.44,3
			c-0.91,3.05-1.77,6.09-2.57,9.12c-0.04,0.16-0.17,0.26-0.34,0.27c-1.2,0.03-2.44,0.02-3.7-0.01c-0.66-0.02-0.92-0.47-0.79-1.36
			l1.03-9.12l0.05-2.57c0-0.17-0.04-0.19-0.11-0.03l-0.46,0.88l-2.71,11.07c-0.03,0.1-0.09,0.14-0.19,0.1
			c-0.8-0.28-2.28-0.7-4.44-1.27c-0.62-0.16-0.83-0.63-0.66-1.4c-0.02-1.91-0.01-3.74,0.28-5.67c0.27-1.74,0.55-3.48,0.85-5.22
			c0.18-1.06,0.47-2.19,1.21-2.99c1.38-1.5,2.98-1.77,4.8-0.79c0.68,0.36,1.15,0.56,1.4,0.59c0.62,0.08,1.14-0.09,1.54-0.5
			c0.76-0.78,1.03-1.2,2.18-1.34c1.55-0.17,2.9,0.3,4.05,1.4c0.25,0.25,0.7,0.29,1.34,0.14c1.28-0.3,3.34-1.03,4.57-0.51
			c1.41,0.6,1.5,2.09,3.4,2.11c2.01,0.02,3.67-0.51,4.91,1.51l1.13,1.22C279.42,119.38,279.43,119.47,279.37,119.57z M285.71,111.8
			c-0.17,0.31-0.29,0.46-0.37,0.82c-0.41,2.05-1.11,3.97-2.09,5.78c-0.01,0.01-0.01,0.02-0.02,0.04c-0.06,0.05-0.15,0.05-0.2,0
			c-1.32-1.35-2.75-2.37-4.27-3.06c-1.57-0.85-3.13-1.16-4.68-0.92c-0.11,0.01-0.22-0.01-0.31-0.06c-1.88-1.14-2.7-2.29-5.18-2.35
			c-0.11,0-0.14-0.05-0.1-0.15c1.03-2.72,2.38-5.07,4.03-7.06c2.47-2.95,7.24-5.91,10.71-2.41c0.07,0.07,0.05,0.11-0.05,0.11
			l-1.41-0.04c-0.06-0.01-0.12,0.04-0.12,0.11c0,0.07,0.05,0.12,0.11,0.13c0.44,0.03,0.86,0.11,1.26,0.27
			c0.15,0.05,0.15,0.1-0.01,0.14c-1.29,0.28-2.48,0.8-3.58,1.54c-0.14,0.09-0.12,0.11,0.03,0.05c1.01-0.37,2.04-0.65,3.09-0.84
			c0.66-0.12,0.68-0.04,0.07,0.23c-1.51,0.67-3.1,1.49-4.77,2.48c-0.05,0.02-0.07,0.06-0.08,0.1c-0.01,0.04,0.01,0.06,0.05,0.04
			l4.53-1.78c0.15-0.06,0.2-0.01,0.15,0.14c-0.02,0.07-0.06,0.11-0.11,0.13c-1.78,0.78-3.48,1.7-5.1,2.77
			c-0.02,0.01-0.02,0.03-0.01,0.05l0.04,0.07c0,0.01,0.01,0.01,0.02,0.01l4.49-2.06c0.03-0.01,0.06,0,0.09,0.02
			c0.01,0.03,0,0.06-0.02,0.08c-1.58,1.17-3.24,2.21-4.99,3.11c-0.16,0.08-0.15,0.13,0.03,0.15c0.94,0.07,3.3-1.21,4.2-1.66
			c0.03-0.01,0.06,0,0.09,0.02c0.02,0.03,0.01,0.07-0.01,0.09c-1.28,1.08-2.71,1.9-4.28,2.47c-0.03,0.01-0.04,0.04-0.04,0.06
			c0,0.04,0.03,0.06,0.06,0.05c1.25,0,2.46-0.21,3.63-0.66c0.08-0.03,0.12,0,0.12,0.08c0,0.05-0.02,0.1-0.06,0.12
			c-1.57,0.82-3.3,0.68-4.68,1.67c-0.05,0.03-0.07,0.09-0.06,0.14c0.01,0.08,0.09,0.13,0.16,0.12c0.79-0.13,1.54-0.37,2.36-0.39
			c2.1-0.06,4.15-0.43,6.13-1.13c0.11-0.04,0.16,0,0.17,0.11c0.02,0.2-0.06,0.34-0.22,0.43c-0.54,0.3-1.09,0.6-1.66,0.87
			c-0.03,0.02-0.05,0.05-0.05,0.09c0,0.06,0.04,0.1,0.09,0.1h1.61c0.25-0.24,0.64-0.37,1.16-0.39
			C285.74,111.64,285.77,111.69,285.71,111.8z"/>
		<path class="st62" d="M230.4,97.56l-0.1-0.03C230.28,97.6,230.32,97.6,230.4,97.56z M181.17,89.82c-1.32,0-2.31-0.04-3-0.14
			c-0.34,0.06-0.48,0-0.42-0.2c0.06-0.18,0.17-0.31,0.34-0.39c1.82-0.84,3.7-1.46,5.67-1.87c0.12-0.02,0.14-0.08,0.05-0.17
			l-0.91-0.97c0,0-0.01-0.01-0.01-0.01c-0.1-0.09-0.26-0.09-0.36,0.01l-0.33,0.36c-0.08,0.09-0.19,0.15-0.31,0.17
			c-1.05,0.21-2.1,0.23-3.18,0.04c-0.03,0-0.06-0.02-0.08-0.05c-0.03-0.05-0.01-0.12,0.04-0.15l1-0.6c0.1-0.05,0.15-0.14,0.16-0.25
			c0.11-1.06,0.42-2.07,0.95-3.06c0.01-2.04-0.15-4.16-0.51-6.39l-0.04-1.03c0-0.01,0-0.02,0.01-0.03c0.01-0.11,0.11-0.19,0.22-0.17
			l0.58,0.08c0.06,0.01,0.12-0.01,0.16-0.06c0.04-0.07,0.03-0.17-0.05-0.22l-0.78-0.54c-0.05-0.04-0.09-0.12-0.07-0.18
			c0.01-0.1,0.12-0.17,0.22-0.15c2.81,0.53,5.77-0.1,7.82-2.14c0.45-0.45,0.9-0.89,1.33-1.32c1.56-1.42,2.63-3.09,3.19-5.01
			c-2.61,0.86-5,1.9-7.14,3.12l-4.26,1.54c-0.33,0.19-0.69,0.29-1.08,0.3c-0.88,0.43-1.83,0.56-2.83,0.38
			c-0.11-0.02-0.19-0.07-0.26-0.15c-0.27-0.3-0.44-1.08-0.73-1.22c0-0.01-0.01-0.01-0.02-0.01c-0.11-0.04-0.22,0.02-0.26,0.12
			l-0.6,1.62c-0.04,0.11-0.12,0.18-0.23,0.21c-0.18,0.05-0.37-0.06-0.41-0.24l-0.43-1.56c-0.03-0.11-0.12-0.17-0.23-0.18
			c-0.14,0-0.25,0.1-0.26,0.24c-0.02,0.45-0.21,0.84-0.58,1.18c-0.89,0.39-1.91,0.33-3.05-0.16l-5.54-2.23
			c-1.88-0.77-3.9-1.72-6.06-2.85c-0.11-0.06-0.24-0.01-0.36,0.14c-0.14,1.74,2.36,4.62,3.53,5.8c0.6,0.59,1.24,1.12,1.89,1.57
			c1.85,1.27,4.55,1.3,6.66,0.91c0.09-0.01,0.17,0.01,0.24,0.08c0.09,0.1,0.08,0.25-0.02,0.35c-0.45,0.4-0.96,0.57-1.54,0.51
			c-0.02,0-0.04,0-0.05,0.01c-0.04,0.02-0.06,0.08-0.03,0.11l0.11,0.17c0.01,0.02,0.03,0.03,0.04,0.03
			c0.45,0.09,0.89,0.05,1.32-0.12c0.02,0,0.03,0,0.05-0.01c0.08,0,0.15,0.06,0.15,0.14c0.05,1.45-0.06,2.94-0.32,4.46l-0.34,0.87
			c0.1,1,0.09,1.81,0.44,2.76c0.32,0.86,0.63,1.76,0.93,2.71l0.85,0.71c0.1,0.08,0.08,0.11-0.04,0.1l-1.8-0.11
			c-0.41,0.1-0.76,0.04-1.06-0.17L168.41,86c-0.09-0.04-0.16-0.02-0.23,0.04l-0.49,0.44c-0.03,0.03-0.05,0.06-0.05,0.1
			c0,0.09,0.06,0.16,0.14,0.16c0.38,0.02,0.58,0.07,0.9,0.27c1.45,0.89,2.98,1.69,4.56,2.4c0.05,0.02,0.07,0.06,0.07,0.11
			c-0.01,0.06-0.06,0.11-0.12,0.1l-3.49-0.04c-0.53,0.09-0.61,0.43-0.25,1.01c0.73,0.81,1.81,1.28,3.24,1.39
			c2.01,0.4,4.06,0.4,6.14,0c0.94-0.25,2.83-0.64,3.32-1.55c0.04-0.09,0.03-0.2-0.05-0.25C181.79,89.95,181.48,89.83,181.17,89.82z
			 M176.36,84.69c0.05,0,0.11,0.01,0.17,0.05c0.01,0.01,0.02,0.02,0.02,0.04c0,0.03-0.02,0.05-0.05,0.05
			c-0.42,0.02-0.83,0.03-1.24,0.02c-0.44,0-0.44-0.04,0-0.12c0.06-0.01,0.12-0.01,0.19-0.01c-0.26-0.01-0.52-0.04-0.81-0.1
			l-3.45-2.19c-0.09-0.07-0.13-0.15-0.1-0.27l0.67-3l-0.12-2.99c-0.03-0.8,0.14-1.49,0.51-2.08c0.03-0.04,0.06-0.06,0.11-0.07
			c0.09-0.01,0.16,0.05,0.17,0.14l0.12,1.09c0.01,0.05,0.04,0.1,0.09,0.12c0.08,0.04,0.17,0.01,0.22-0.07l1.04-2.22
			c0.67-0.25,1.49-0.34,2.45-0.26c0.3,0.02,0.54,0.25,0.57,0.55l0.25,2.58c0.17-0.2,0.3-0.45,0.39-0.76
			c0.04-0.11,0.09-0.12,0.17-0.03c0.56,0.69,0.29,1.8,0.41,2.65c0.02,0.13,0.05,0.14,0.1,0.01c0.06-0.14,0.09-0.25,0.08-0.34
			c-0.06-0.72,0.04-1.34,0.3-1.85c0.05-0.09,0.14-0.16,0.25-0.2c0.21-0.05,0.42,0.07,0.47,0.28c0.34,1.26,0.29,2.53-0.15,3.78
			c-0.03,0.07,0,0.09,0.06,0.06c0.03-0.02,0.06-0.03,0.09-0.05c0.11-0.06,0.18-0.02,0.21,0.1l0.05,0.19l0.19,1.98
			c0.17,0.93-0.37,1.54-1.63,1.83l-1.01,0.67c-0.39,0.26-0.85,0.42-1.39,0.44C175.95,84.71,176.15,84.72,176.36,84.69z
			 M196.49,71.96c-0.05-0.05-0.08-0.04-0.09,0.04l-0.05,1.06l-0.06,0.96c-0.03,0.93,0.07,1.14,0.29,0.63
			c0.03-0.84,0.02-1.67-0.03-2.49C196.55,72.07,196.53,72.01,196.49,71.96z M152.7,90.84c-1.07-0.68-2.16-1.33-3.27-1.95
			c-0.85-0.47-2.55-1.85-5.09-4.13c-1.66-1.49-3.87-2.57-6.61-3.23c-0.1,0-0.18,0.01-0.23,0.04c-0.11,0.05-0.11,0.11-0.01,0.18
			c2.3,1.61,4.52,3.77,5.19,6.61c0.29,1.23-0.36,1.35-1.42,1.88c-3.39,1.68-6.86,3.22-10.4,4.62c-0.13,0.05-0.14,0.12-0.03,0.2
			c0.11,0.09,0.32,0.12,0.64,0.11l2.01-0.41l2.61-0.36c1.98-0.28,3.74-0.6,5.73-1.31c3.04-1.08,7.03-2.94,10.66-2.29
			c0.05,0.01,0.08,0.03,0.11,0.07c0.02,0.04,0.06,0.05,0.1,0.04C152.76,90.91,152.77,90.88,152.7,90.84z M219.7,94.91
			c1-0.14,2.01-0.11,3.02,0.09c0.11,0.02,0.17-0.02,0.18-0.13c0.01-0.14-0.04-0.22-0.15-0.25c-0.37-0.07-0.64-0.16-0.81-0.29
			c-4.48-1.08-8.75-2.7-12.8-4.85c-0.33-0.17-0.44-0.46-0.34-0.86c0.51-2.03,1.57-3.69,3.17-4.96c0.66-0.52,1.34-1.02,2.04-1.49
			c0.09-0.06,0.14-0.16,0.15-0.27c0.02-0.2-0.01-0.29-0.1-0.27c-4.11,1.28-7.03,3.41-10.28,6.1c-0.73,0.61-1.52,1.13-2.35,1.58
			c-0.93,0.5-1.87,1.02-2.82,1.56c-0.03,0.02-0.05,0.05-0.04,0.09c0.01,0.04,0.05,0.08,0.09,0.07l1.39-0.21
			c0.75-0.22,1.53-0.23,2.34-0.02c1.44,0.16,2.5,0.39,3.18,0.67C210.14,93.37,214.85,94.52,219.7,94.91z M169.91,101.95
			C169.91,101.95,169.91,101.95,169.91,101.95c-1.21-1.6-2.34-2.78-2.52-2.64l-0.02,0.01c-0.02,0.01-0.02,0.04,0,0.06l4.39,5.83
			c0.01,0.02,0.04,0.02,0.06,0.01l0.02-0.01c0.18-0.15-0.64-1.56-1.84-3.15L169.91,101.95z M184.93,99.63
			c-3.25,2.66-4.34,6.2-5.57,10.32c-0.06,0.21-0.06,0.37,0,0.49c0.07,0.13,0.13,0.12,0.16-0.02c1.03-3.78,2.71-7.65,5.4-10.35
			c0.05-0.05,0.08-0.1,0.1-0.15c0.03-0.07,0.04-0.14,0.04-0.2c0-0.02,0-0.04-0.02-0.06C185.02,99.6,184.97,99.6,184.93,99.63z
			 M167.37,101.09c-0.04-0.04-0.09-0.05-0.14-0.05c-0.13,0.02-0.14,0.07-0.05,0.16c2.51,2.28,4.3,5.02,5.37,8.24
			c0.01,0.05,0.06,0.08,0.11,0.07c0.05-0.01,0.08-0.06,0.07-0.11C172.4,105.84,169.97,103.39,167.37,101.09z M221.58,106.53
			c-0.1,0.05-0.09,0.09,0.02,0.1l4.66,0.58c0.14-0.03,0.23-0.08,0.25-0.16c-1.52-0.39-3.05-0.59-4.59-0.61
			C221.79,106.44,221.67,106.47,221.58,106.53z M130.28,106.62c-1.64-0.21-3.28-0.2-4.91,0.03c-0.17,0.02-0.17,0.06-0.01,0.11
			c0.05,0.01,0.11-0.01,0.17-0.07c1.59,0.15,3.17,0.15,4.74,0.01c0.02,0,0.04-0.02,0.04-0.03
			C130.31,106.64,130.29,106.62,130.28,106.62z M206.48,121.63l4.3-1.65c0.1-0.04,0.11-0.09,0.03-0.16
			c-0.06-0.06-0.12-0.04-0.2,0.05c-1.49,0.44-2.94,0.98-4.33,1.62C206.28,121.63,206.35,121.68,206.48,121.63z"/>
	</g>
	<g>
		<path d="M314.88,202.81H34.64v-3.65h280.24V202.81z"/>
		<path class="st63" d="M314.88,210.14H34.64v-9.12h280.24V210.14z"/>
	</g>
</g>
</svg>
