<?xml version="1.0" encoding="utf-8"?>
<!-- Generator: Adobe Illustrator 27.8.1, SVG Export Plug-In . SVG Version: 6.00 Build 0)  -->
<svg version="1.1" xmlns="http://www.w3.org/2000/svg" xmlns:xlink="http://www.w3.org/1999/xlink" x="0px" y="0px"
	 viewBox="0 0 350 230" style="enable-background:new 0 0 350 230;" xml:space="preserve">
<style type="text/css">
	.st0{fill:#FF9D00;}
	.st1{fill:url(#SVGID_1_);}
	.st2{opacity:0.22;fill:url(#SVGID_00000058553713346588485260000016563501630111742351_);}
	.st3{fill:#FFC200;}
	.st4{fill:#778718;}
	.st5{fill:#E0B017;}
	.st6{fill:#664407;}
	.st7{fill:#9E690A;}
	.st8{fill:#7F1105;}
	.st9{fill:#191933;}
	.st10{fill:#FCEBD4;}
	.st11{fill:#E3DFD6;}
	.st12{fill:#FFB000;}
	.st13{fill:#AA210E;}
	.st14{fill:#FFF0A6;}
	.st15{fill:#FFDA00;}
	.st16{fill:#F4F4F4;}
	.st17{fill:#DC5C28;}
	.st18{fill:#FF8440;}
	.st19{fill:#C45224;}
	.st20{fill:#2C4369;}
	.st21{fill:#2A72DB;}
	.st22{fill:#C65500;}
	.st23{fill:#C15746;}
	.st24{fill:#FF8C00;}
	.st25{fill:#FFEA2C;}
	.st26{fill:#F7FF57;}
	.st27{fill:#FFFFFF;}
	.st28{fill:#D64949;}
	.st29{fill:#353535;}
	.st30{fill:#FFC783;}
	.st31{fill:#3F7F91;}
	.st32{fill:#25BDE5;}
	.st33{fill:#8CDD00;}
	.st34{fill:#D1FF88;}
	.st35{fill:#333333;}
	.st36{fill:#FF9000;}
	.st37{fill:#A1A813;}
	.st38{fill:#B3C40E;}
	.st39{fill:#CACE72;}
	.st40{fill:url(#SVGID_00000155105157861095388860000010317965803142492325_);}
	.st41{fill:#93E800;}
	.st42{fill:#3CB7D3;}
	.st43{fill:#FF7631;}
	.st44{fill:#E6873C;}
	.st45{fill:#30657F;}
	.st46{fill:#FF7A40;}
	.st47{fill:#FFAD4A;}
	.st48{fill:#BC8E3B;}
	.st49{fill:#E2E2E2;}
	.st50{fill:#F2B844;}
	.st51{fill:#AF3838;}
	.st52{fill:#17B5C1;}
	.st53{fill:#A88643;}
	.st54{fill-rule:evenodd;clip-rule:evenodd;fill:#DD7928;}
	.st55{fill:#E6E7E8;stroke:#CFCFCF;stroke-width:0.1061;}
	.st56{fill-rule:evenodd;clip-rule:evenodd;fill:#204F7A;}
	.st57{fill-rule:evenodd;clip-rule:evenodd;fill:#50A4FF;}
	.st58{fill:#002649;}
	.st59{fill:#00134F;}
	.st60{fill:#665200;}
	.st61{fill:#001E7C;}
	.st62{fill:#002349;}
	.st63{fill:#FF914D;}
	.st64{fill:#AC1929;}
	.st65{fill:#004AAD;}
	.st66{fill:#BE1C2D;}
	.st67{fill:#242424;}
	.st68{fill:#F1A75A;}
	.st69{fill-rule:evenodd;clip-rule:evenodd;}
	.st70{fill-rule:evenodd;clip-rule:evenodd;fill:#007177;}
	.st71{fill-rule:evenodd;clip-rule:evenodd;fill:#242424;}
	.st72{fill:#F9951C;}
	.st73{fill:#84123B;}
	.st74{fill:#FFB908;}
	.st75{fill:#393536;}
	.st76{fill:#093F00;}
	.st77{fill:#333300;}
	.st78{fill:#C8D7FF;}
	.st79{fill:#426BD1;}
	.st80{fill:#0036D2;}
</style>
<g id="Layer_1">
</g>
<g id="Layer_12">
</g>
<g id="Layer_13">
</g>
<g id="Layer_14">
</g>
<g id="Layer_15">
</g>
<g id="Layer_11">
</g>
<g id="Layer_8">
</g>
<g id="Layer_10">
</g>
<g id="Layer_9">
</g>
<g id="Layer_2">
</g>
<g id="Layer_3">
</g>
<g id="Layer_4">
</g>
<g id="Layer_5">
</g>
<g id="Layer_6">
</g>
<g id="Layer_7">
	<path class="st69" d="M188.48,64.04c0.04-2.07,0.29-6.35,0.25-9.4c-5.95,11.11-16.59,13.83-26.68,10.71
		c6.72,0.8,12.89-2.4,13.9-16.08c0.62-7.91,3.49-11.36,6.53-12.74c-0.73-3.16-0.94-6.46-0.14-9.55c4.87-18.26,43.45-10.2,34.09-6.28
		c-6.1,2.54-11.51,9.37-10.49,8.42c11.91-11.07,13.03-4.14,13.79,0c0.87,4.65-2.03,6.61,0,13.03c4.14,3.09,0.76,3.67,0.76,3.67
		c-0.29,1.06,0.14,3.41-0.76,3.45c-1.52,0.07-0.94,1.85,0,2.07c-3.96,12.85-5.26,10.74-12.34,7.55
		c-13.54,25.59,24.47,20.95,18.04,37.03c-0.62,1.53-1.09,3.7-1.45,6.35c-2.36-1.71-4.68-3.74-5.88-4.94
		c0.47,1.27,2.98,5.44,8.24,8.38c3.7,3.49,6.79,5.81,8.28,5.66c2.91-0.29,7.62-4.14,12.05-9.15c-9.33-0.58-16.74-8.35-16.74-17.82
		c0-4.21,1.45-8.09,3.92-11.18c3.05-2.47,6.93-3.92,11.18-3.92c9.84,0,17.86,7.99,17.86,17.86c0,4.21-1.45,8.09-3.92,11.18
		c-1.56,1.23-3.3,2.21-5.19,2.9c-5.63,11.29-14.19,26.14-19.53,24.58c-3.38-1.02-7.11-3.23-10.93-6.06
		c0.51,15.72,3.67,34.41,10.49,43.78h-57.39c12.74-10.53,13.9-27.19,12.05-37.03c-11.51-2.54-24.87-6.5-24.25-11.33
		c3.23-25.63,10.96-36.99,18.04-44.36l0.11,0.22c-0.04-0.07-0.04-0.18-0.04-0.25c1.71-1.78,3.41-3.34,4.97-4.83
		c1.96-1.09,4.03-2,5.26-2.43C191.93,63.43,190.4,63.5,188.48,64.04z M182.67,95.59c-3.23,5.73-7.3,12.78-6.24,14.23
		c1.53,2.14,6.54,6.86,10.31,9.51C185.14,113.63,182.78,96.46,182.67,95.59z M233.96,73.05c3.27-3.96,8.24-6.5,13.76-6.5
		c9.84,0,17.86,7.99,17.86,17.86c0,5.23-2.25,9.91-5.81,13.18c2.54-3.08,4.1-7.04,4.1-11.36c0-9.84-7.99-17.86-17.86-17.86
		C241.37,68.36,237.16,70.14,233.96,73.05z M247.72,75.84c4.72,0,8.57,3.85,8.57,8.57c0,4.72-3.85,8.57-8.57,8.57
		c-4.72,0-8.57-3.85-8.57-8.57C239.16,79.69,243.01,75.84,247.72,75.84z M244.28,82.01c0.76-1.09,2.03-1.81,3.49-1.81
		c2.32,0,4.21,1.89,4.21,4.21c0,1.78-1.09,3.3-2.65,3.92c0.47-0.69,0.76-1.49,0.76-2.4c0-2.32-1.89-4.21-4.21-4.21
		C245.29,81.72,244.75,81.83,244.28,82.01z M146.92,139.44c-0.14-2.83-0.33-5.84-0.47-8.89c0.76-2.25,1.85-4.54,2.54-5.77
		c-0.84,0.58-2.9,2.72-4.21,6.06c-2.58,6.61-7.26,7.69-8.21,7.73c-6.64,0.33-22.11-16.92-32.89-26.17
		c-9.73-0.69-17.43-8.79-17.43-18.69c0-10.35,8.39-18.73,18.73-18.73c10.35,0,18.73,8.39,18.73,18.73c0,5.08-2.04,9.73-5.34,13.1
		l3.26,2.65c2.91,2.36,6.57,3.23,10.02,2.69c1.34,0.08,2.58,0.29,3.7,0.58c-0.69-0.47-1.56-0.84-2.54-1.16
		c0.91-2.98,2.98-6.14,5.99-8.82c1.27-1.12,2.58-2.07,3.92-2.83c1.2-0.58,2.4-1.06,3.56-1.42l0.04-0.33v-0.14
		c-1.2,0.04-2.54,0.29-3.96,0.72c-1.92-3.52-1.49-9.33,1.45-14.77c2.76-5.12,6.97-8.57,10.78-9.26c0.69-0.73,1.45-1.41,2.29-2.03
		c2.54-1.92,5.37-3.56,8.17-4.97c6.86,1.12,14.05-0.58,19.28-4.94c0.07,0.47,0.14,0.91,0.26,1.34c0.36,0.4,0.72,0.8,1.05,1.2
		c-1.71,1.6-3.38,3.2-4.97,4.87c-11.03,11.65-15.65,27.59-17.86,43.24c-0.4,3.01,0.76,5.34,2.72,6.83
		c6.28,4.65,14.05,5.95,21.49,7.59c1.71,11.25-0.98,23.45-8.82,31.76c-0.69,0.76-0.91,0.98-2.32,2.22c-0.69,0.58-1.02,1.2-1.05,1.71
		h-29.99c0.8-1.13,1.38-2.76,1.74-4.87c3.56-2.18,6.21-1.63,6.06-1.85c-0.69-1.23-2.87-2.03-5.77-0.58
		c0.18-1.85,0.25-3.96,0.25-6.28c4.32-3.38,7.73-2.65,7.59-2.9c-0.84-1.49-3.81-2.32-7.59,0.58c-0.04-1.89-0.11-3.89-0.18-5.99
		c5.3-5.81,10.05-4.76,9.87-5.05C155.92,134.8,151.78,133.92,146.92,139.44z M92.79,83.9c2.69-2.14,6.1-3.45,9.8-3.45
		c8.68,0,15.68,7.04,15.68,15.68c0,3.71-1.31,7.11-3.45,9.8c-2.69,2.14-6.1,3.45-9.8,3.45c-8.68,0-15.68-7.04-15.68-15.68
		C89.34,90,90.61,86.59,92.79,83.9z M92.94,83.72c2.87-3.49,7.22-5.7,12.09-5.7c8.67,0,15.68,7.04,15.68,15.68
		c0,4.57-1.96,8.71-5.12,11.58c2.25-2.72,3.6-6.21,3.6-9.99c0-8.67-7.04-15.68-15.68-15.68C99.43,79.62,95.73,81.14,92.94,83.72z
		 M105.02,86.19c4.14,0,7.51,3.38,7.51,7.52c0,4.14-3.38,7.51-7.51,7.51c-4.14,0-7.52-3.38-7.52-7.51
		C97.51,89.56,100.89,86.19,105.02,86.19z M101.97,91.6c0.65-0.98,1.78-1.6,3.05-1.6c2.03,0,3.7,1.67,3.7,3.71
		c0,1.56-0.98,2.9-2.32,3.45c0.4-0.58,0.65-1.31,0.65-2.11c0-2.03-1.67-3.7-3.7-3.7C102.88,91.34,102.41,91.42,101.97,91.6z
		 M166.48,63.53c-0.69-1.41-1.6-2.98-2.72-4.68c-4.61,2.98-7.44,3.96-8.71-5.37l-1.71-1.56c0.84-1.63,2.32-1.89,0-2.54l-1.45-5.26
		c-3.01,0.73-3.85-0.25,0-4.97c-1.09-5.74-0.33-5.63,0-9.48c-2.29-3.34-0.22-7.62,3.16-9.76c7.01-4.39,22.51-7.15,29.77-0.07
		c-0.29,0.25-0.55,0.55-0.8,0.84c-5.12,5.66-3.34,14.99-3.34,14.99c-3.49,2.21-5.19,6.28-5.88,10.2c-0.14,0.76-0.18,0.87-0.33,2.47
		c-0.43,4.83-0.94,10.86-5.34,13.98C168.33,62.92,167.42,63.28,166.48,63.53z"/>
	<g>
		<path class="st70" d="M188.26,64.49c0.04-2.03,0.28-6.24,0.25-9.24c-5.85,10.91-16.3,13.59-26.21,10.52
			c6.6,0.78,12.66-2.35,13.66-15.8c0.61-7.78,3.42-11.16,6.42-12.52c-0.71-3.1-0.93-6.35-0.14-9.38
			c4.78-17.94,42.69-10.02,33.49-6.17c-5.99,2.5-11.31,9.2-10.31,8.28c11.7-10.88,12.8-4.07,13.55,0c0.86,4.56-2,6.49,0,12.8
			c4.07,3.03,0.75,3.6,0.75,3.6c-0.28,1.04,0.14,3.35-0.75,3.39c-1.5,0.07-0.93,1.82,0,2.04c-3.89,12.62-5.17,10.56-12.13,7.42
			c-13.3,25.14,24.04,20.58,17.73,36.38c-0.61,1.5-1.07,3.64-1.43,6.24c-2.32-1.68-4.6-3.67-5.78-4.85
			c0.46,1.25,2.92,5.35,8.09,8.24c3.64,3.42,6.67,5.71,8.13,5.57c2.86-0.29,7.49-4.07,11.84-8.99c-9.17-0.57-16.44-8.2-16.44-17.51
			c0-4.14,1.43-7.95,3.85-10.99c3-2.42,6.81-3.85,10.99-3.85c9.66,0,17.55,7.85,17.55,17.55c0,4.14-1.42,7.95-3.85,10.99
			c-1.53,1.21-3.25,2.17-5.1,2.85c-5.53,11.09-13.94,25.68-19.19,24.15c-3.32-1-6.99-3.18-10.74-5.96
			c0.5,15.44,3.6,33.81,10.31,43.01h-56.39c12.52-10.34,13.66-26.71,11.84-36.38c-11.31-2.5-24.43-6.39-23.82-11.13
			c3.17-25.18,10.77-36.34,17.72-43.58l0.11,0.21c-0.04-0.07-0.04-0.18-0.04-0.25c1.68-1.75,3.35-3.28,4.89-4.75
			c1.93-1.07,3.96-1.96,5.17-2.39C191.65,63.88,190.15,63.95,188.26,64.49z M182.55,95.48c-3.17,5.63-7.17,12.55-6.13,13.98
			c1.5,2.1,6.42,6.74,10.13,9.35C184.98,113.21,182.66,96.34,182.55,95.48z M232.95,73.34c3.21-3.89,8.1-6.38,13.52-6.38
			c9.66,0,17.55,7.85,17.55,17.55c0,5.14-2.21,9.74-5.7,12.95c2.5-3.03,4.03-6.92,4.03-11.16c0-9.66-7.85-17.55-17.55-17.55
			C240.22,68.74,236.09,70.48,232.95,73.34z M246.47,76.08c4.64,0,8.42,3.78,8.42,8.42s-3.78,8.42-8.42,8.42
			c-4.64,0-8.42-3.78-8.42-8.42S241.83,76.08,246.47,76.08z M243.08,82.14c0.75-1.07,2-1.78,3.42-1.78c2.28,0,4.14,1.85,4.14,4.14
			c0,1.75-1.07,3.25-2.6,3.85c0.46-0.68,0.75-1.46,0.75-2.35c0-2.28-1.85-4.14-4.14-4.14C244.07,81.86,243.54,81.97,243.08,82.14z"
			/>
		<path class="st71" d="M147.42,138.57c-0.14-2.78-0.32-5.74-0.47-8.74c0.75-2.21,1.82-4.46,2.5-5.67
			c-0.82,0.57-2.85,2.67-4.13,5.96c-2.53,6.49-7.14,7.56-8.06,7.59c-6.53,0.32-21.72-16.62-32.31-25.71
			c-9.56-0.68-17.12-8.63-17.12-18.37c0-10.17,8.24-18.41,18.4-18.41c10.17,0,18.41,8.24,18.41,18.41c0,4.99-2,9.56-5.24,12.87
			l3.21,2.6c2.86,2.32,6.46,3.18,9.85,2.64c1.32,0.07,2.53,0.29,3.64,0.57c-0.68-0.46-1.53-0.82-2.5-1.14
			c0.89-2.93,2.92-6.03,5.89-8.67c1.25-1.1,2.53-2.03,3.85-2.78c1.18-0.57,2.35-1.04,3.5-1.39l0.04-0.32v-0.14
			c-1.18,0.04-2.5,0.28-3.89,0.71c-1.89-3.46-1.46-9.16,1.42-14.51c2.71-5.03,6.85-8.42,10.6-9.1c0.68-0.71,1.42-1.39,2.25-2
			c2.5-1.89,5.28-3.5,8.02-4.89c6.74,1.1,13.8-0.57,18.94-4.85c0.07,0.46,0.14,0.89,0.25,1.32c0.36,0.39,0.71,0.78,1.03,1.18
			c-1.68,1.57-3.32,3.14-4.89,4.78c-10.84,11.45-15.37,27.1-17.55,42.48c-0.39,2.96,0.75,5.24,2.67,6.71
			c6.17,4.56,13.8,5.85,21.11,7.45c1.68,11.06-0.96,23.04-8.67,31.21c-0.68,0.75-0.89,0.96-2.28,2.18c-0.68,0.57-1,1.18-1.03,1.68
			h-29.46c0.78-1.11,1.35-2.71,1.71-4.78c3.5-2.14,6.1-1.61,5.95-1.82c-0.68-1.21-2.82-2-5.67-0.57c0.18-1.82,0.25-3.89,0.25-6.17
			c4.24-3.32,7.6-2.6,7.46-2.85c-0.82-1.46-3.75-2.28-7.46,0.57c-0.04-1.85-0.11-3.82-0.18-5.89c5.21-5.71,9.88-4.67,9.7-4.96
			C156.27,134,152.2,133.15,147.42,138.57z M94.25,84c2.64-2.11,5.99-3.39,9.63-3.39c8.52,0,15.41,6.92,15.41,15.4
			c0,3.64-1.29,6.99-3.39,9.63c-2.64,2.11-5.99,3.39-9.63,3.39c-8.52,0-15.41-6.92-15.41-15.4C90.86,89.99,92.11,86.64,94.25,84z
			 M94.39,83.82c2.82-3.42,7.1-5.6,11.88-5.6c8.52,0,15.4,6.92,15.4,15.41c0,4.49-1.93,8.56-5.03,11.38
			c2.21-2.67,3.53-6.1,3.53-9.81c0-8.52-6.92-15.4-15.41-15.4C100.77,79.79,97.14,81.29,94.39,83.82z M106.27,86.25
			c4.06,0,7.38,3.32,7.38,7.38c0,4.06-3.32,7.38-7.38,7.38c-4.07,0-7.38-3.32-7.38-7.38C98.88,89.56,102.2,86.25,106.27,86.25z
			 M103.27,91.56c0.64-0.96,1.75-1.57,3-1.57c2,0,3.64,1.64,3.64,3.64c0,1.53-0.96,2.85-2.28,3.39c0.39-0.57,0.64-1.29,0.64-2.07
			c0-2-1.64-3.64-3.64-3.64C104.16,91.31,103.7,91.38,103.27,91.56z M166.65,63.99c-0.68-1.39-1.57-2.92-2.67-4.6
			c-4.53,2.93-7.31,3.89-8.56-5.28l-1.68-1.53c0.82-1.61,2.28-1.85,0-2.5l-1.42-5.17c-2.96,0.71-3.78-0.25,0-4.88
			c-1.07-5.64-0.32-5.53,0-9.31c-2.25-3.28-0.22-7.49,3.1-9.59c6.88-4.32,22.11-7.03,29.25-0.07c-0.28,0.25-0.54,0.54-0.78,0.82
			c-5.03,5.56-3.28,14.73-3.28,14.73c-3.42,2.17-5.1,6.17-5.78,10.02c-0.14,0.75-0.18,0.86-0.32,2.43
			c-0.43,4.75-0.93,10.67-5.24,13.73C168.47,63.39,167.57,63.74,166.65,63.99z"/>
	</g>
</g>
</svg>
