<?xml version="1.0" encoding="utf-8"?>
<!-- Generator: Adobe Illustrator 27.8.1, SVG Export Plug-In . SVG Version: 6.00 Build 0)  -->
<svg version="1.1" xmlns="http://www.w3.org/2000/svg" xmlns:xlink="http://www.w3.org/1999/xlink" x="0px" y="0px"
	 viewBox="0 0 350 230" style="enable-background:new 0 0 350 230;" xml:space="preserve">
<style type="text/css">
	.st0{fill:#FF9D00;}
	.st1{fill:url(#SVGID_1_);}
	.st2{opacity:0.22;fill:url(#SVGID_00000155123926889016688840000016074481777256118421_);}
	.st3{fill:#FFC200;}
	.st4{fill:#778718;}
	.st5{fill:#E0B017;}
	.st6{fill:#664407;}
	.st7{fill:#9E690A;}
	.st8{fill:#7F1105;}
	.st9{fill:#191933;}
	.st10{fill:#FCEBD4;}
	.st11{fill:#E3DFD6;}
	.st12{fill:#FFB000;}
	.st13{fill:#AA210E;}
	.st14{fill:#FFF0A6;}
	.st15{fill:#FFDA00;}
	.st16{fill:#F4F4F4;}
	.st17{fill:#DC5C28;}
	.st18{fill:#FF8440;}
	.st19{fill:#C45224;}
	.st20{fill:#2C4369;}
	.st21{fill:#2A72DB;}
	.st22{fill:#C65500;}
	.st23{fill:#C15746;}
	.st24{fill:#FF8C00;}
	.st25{fill:#FFEA2C;}
	.st26{fill:#F7FF57;}
	.st27{fill:#FFFFFF;}
	.st28{fill:#D64949;}
	.st29{fill:#353535;}
	.st30{fill:#FFC783;}
	.st31{fill:#3F7F91;}
	.st32{fill:#25BDE5;}
	.st33{fill:#8CDD00;}
	.st34{fill:#D1FF88;}
	.st35{fill:#333333;}
	.st36{fill:#FF9000;}
	.st37{fill:#A1A813;}
	.st38{fill:#B3C40E;}
	.st39{fill:#CACE72;}
	.st40{fill:url(#SVGID_00000133503252371485445130000004228532517800498097_);}
	.st41{fill:#93E800;}
	.st42{fill:#3CB7D3;}
	.st43{fill:#FF7631;}
	.st44{fill:#E6873C;}
	.st45{fill:#30657F;}
	.st46{fill:#FF7A40;}
	.st47{fill:#FFAD4A;}
	.st48{fill:#BC8E3B;}
	.st49{fill:#E2E2E2;}
	.st50{fill:#F2B844;}
	.st51{fill:#AF3838;}
	.st52{fill:#17B5C1;}
	.st53{fill:#A88643;}
	.st54{fill-rule:evenodd;clip-rule:evenodd;fill:#DD7928;}
	.st55{fill:#E6E7E8;stroke:#CFCFCF;stroke-width:0.1061;}
	.st56{fill-rule:evenodd;clip-rule:evenodd;fill:#204F7A;}
	.st57{fill-rule:evenodd;clip-rule:evenodd;fill:#50A4FF;}
	.st58{fill:#002649;}
	.st59{fill:#00134F;}
	.st60{fill:#665200;}
	.st61{fill:#001E7C;}
	.st62{fill:#002349;}
	.st63{fill:#FF914D;}
	.st64{fill:#AC1929;}
	.st65{fill:#004AAD;}
	.st66{fill:#BE1C2D;}
	.st67{fill:#242424;}
	.st68{fill:#F1A75A;}
	.st69{fill-rule:evenodd;clip-rule:evenodd;}
	.st70{fill-rule:evenodd;clip-rule:evenodd;fill:#007177;}
	.st71{fill-rule:evenodd;clip-rule:evenodd;fill:#242424;}
	.st72{fill:#F9951C;}
	.st73{fill:#84123B;}
	.st74{fill:#FFB908;}
	.st75{fill:#393536;}
	.st76{fill:#093F00;}
	.st77{fill:#333300;}
	.st78{fill:#C8D7FF;}
	.st79{fill:#426BD1;}
	.st80{fill:#0036D2;}
</style>
<g id="Layer_1">
</g>
<g id="Layer_12">
</g>
<g id="Layer_13">
</g>
<g id="Layer_14">
</g>
<g id="Layer_15">
</g>
<g id="Layer_11">
</g>
<g id="Layer_8">
</g>
<g id="Layer_10">
</g>
<g id="Layer_9">
</g>
<g id="Layer_2">
</g>
<g id="Layer_3">
</g>
<g id="Layer_4">
</g>
<g id="Layer_5">
</g>
<g id="Layer_6">
</g>
<g id="Layer_7">
	<g>
		<g>
			<path class="st59" d="M114.66,96.48c7.86,2.8,15.63,3.05,23.3-0.6c0.63-0.3,0.71-0.09,0.89,0.45c0.88,2.73,2.32,5.14,4.15,7.35
				c1.93,2.32,4.2,4.27,6.37,6.35c1.41,1.35,2.48,2.93,3.33,4.88c-4.29-1.73-8.15-3.78-11.75-6.36c-2.07-1.49-3.91-3.23-5.82-4.9
				c-1-0.87-2.41-0.73-3.35,0.21c-0.87,0.87-0.86,1.85,0.05,2.99c1.12,1.41,2.45,2.61,3.82,3.77c10.25,8.63,22.3,12.49,35.47,13.28
				c8.33,0.5,16.42-0.89,24.33-3.49c8.21-2.7,15.22-7.24,21.07-13.58c1.17-1.27,0.87-2.65-0.67-3.43c-1.26-0.64-2.06-0.45-3.42,0.87
				c-3.61,3.5-7.58,6.51-12.1,8.74c-1.53,0.75-3.14,1.35-4.9,2.09c1.16-3.14,3.32-5.09,5.49-7.05c3.71-3.35,7.08-6.95,8.48-11.94
				c0.21-0.74,0.56-0.34,0.9-0.18c5.42,2.44,11.03,3.45,16.92,2.22c6.68-1.4,12.95-4,19.19-6.65c0.54-0.23,0.58-0.61,0.58-1.1
				c0-7.01-0.95-13.86-3.44-20.46c-1.57-4.14-3.59-8.05-6-11.76c-0.22-0.34-0.36-1.07-1.09-0.62c-0.88,0.54-1.77,1.08-2.65,1.61
				c2.12,2.47,3.27,5.49,4.65,8.37c2.07,4.32,3.63,8.83,4.23,13.62c0.21,1.7,0.29,3.42,0.06,5.11c-0.46,3.24-3.5,5.83-6.77,5.9
				c-1.24,0.03-2.49,0.16-3.72-0.23c-0.63-0.2-1.11,0.21-1.61,0.49c-4.07,2.32-9.26,1.97-13.07-1.01c1.83-0.06,3.48-0.2,5.08-0.74
				c2.29-0.76,4.22-1.96,5.44-4.11c0.32-0.57,0.76-0.74,1.34-0.67c1.65,0.2,3.29,0.44,4.94,0.63c0.68,0.08,1.37,0.09,2.31,0.14
				c0.01-0.02,0.02-0.04,0.03-0.05c0-0.01,0.01-0.02,0.01-0.02c-3.43-2.5-4.36-5.86-4.38-9.57c-0.03-4.83-0.07-9.65-1.3-14.36
				c-0.43-1.65-0.86-3.3-1.34-4.93c-0.19-0.65,0-0.84,0.61-0.83c0.83,0.02,1.66,0.01,2.49,0.01c1.7-0.44,1.98-0.81,1.95-2.49
				c-0.01-0.29,0.01-0.59-0.04-0.87c-0.19-1.06,0.03-1.61,1.32-1.47c1.18,0.12,2.01-0.62,2.03-1.71c0.05-3.04,0.05-6.08,0.01-9.13
				c-0.02-1.12-0.79-1.97-1.82-1.8c-1.8,0.29-1.8-0.61-1.61-1.85c0.03-0.2,0.03-0.42,0.01-0.62c-0.08-1.21-0.69-1.81-1.9-1.83
				c-0.96-0.02-1.92,0-2.88,0c-1.83,0-2.38,0.53-2.38,2.37c-0.01,4.58,0,9.17,0,13.75c0,1,0.35,2.3-0.14,2.91
				c-0.54,0.66-1.88,0.68-2.86,0.99c-0.06,0.02-0.09,0.11-0.14,0.16c3.35,7.52,3.1,13.36,2.64,19.88c-0.16-0.07-0.31-0.12-0.45-0.2
				c-3.58-1.99-7.24-2.34-10.98-0.5c-0.66,0.32-0.91-0.08-1.24-0.43c-1.65-1.71-3.34-3.39-5.5-4.46c-4.66-2.3-9.45-2.37-14.28-0.65
				c-0.88,0.31-1.64,0.32-2.51-0.01c-2.44-0.94-4.81-2.06-7.24-3.02c-2.21-0.87-2.98-2.37-3.04-4.55c-0.02-0.67,0.13-0.83,0.79-0.82
				c1.58,0.02,3.16,0.22,4.73-0.14c1.83-0.42,2.58-1.6,2.15-3.4c-0.19-0.81-0.49-1.61-0.18-2.45c0.4-1.08,0.33-2.28,0.07-3.27
				c-0.39-1.49,0.15-2.08,1.35-2.64c1.49-0.7,1.55-1.04,0.59-2.34c-1.11-1.51-2.28-2.97-3.39-4.48c-0.27-0.37-0.74-0.78-0.33-1.33
				c0.58-0.78,0.37-1.58,0.07-2.37c-0.41-1.09-0.83-2.18-1.32-3.23c-0.29-0.61-0.21-0.98,0.24-1.51c2.7-3.22,2.2-6.63,0.46-10.02
				c-0.17-0.33-0.36-0.53-0.76-0.24c-2.72,1.96-5.81,1.99-8.98,1.77c-2.99-0.21-5.96-0.36-8.96,0.15
				c-9.54,1.6-15.04,10.07-12.47,19.39c1.27,4.59,3.84,8.46,6.82,12.09c0.32,0.39,0.64,0.71,0.58,1.3c-0.23,2.2-0.41,4.4-0.58,6.6
				c-0.05,0.7-0.36,1.1-1,1.4c-2.19,1.02-4.35,2.08-6.51,3.16c-0.51,0.25-0.9,0.16-1.4-0.02c-3.06-1.13-6.23-1.39-9.46-0.96
				c-4.33,0.57-7.65,2.86-10.38,6.13c-0.42,0.51-0.71,0.64-1.33,0.29c-1.44-0.82-3.04-1.05-4.69-1.07
				c-2.37-0.03-4.53,0.65-6.62,1.88c-0.58-6.13-0.38-12.03,1.73-17.76c0.8-2.18,0.77-2.35-1.61-2.69c-1.4-0.2-1.49-0.86-1.48-1.96
				c0.04-5.17,0.03-10.33,0.04-15.5c0-1.3-0.77-2.12-2.06-2.16c-0.54-0.02-1.08,0-1.63,0.01c-3.3,0-3.35,0.01-3.24,3.25
				c0.03,1.02-0.28,1.16-1.19,1.05c-1.23-0.15-2.12,0.52-2.18,1.7c-0.16,3.08-0.16,6.17,0.04,9.24c0.07,1.1,0.79,1.82,1.91,1.69
				c1.28-0.15,1.47,0.44,1.35,1.47c-0.05,0.41,0,0.83-0.04,1.25c-0.1,1.06,0.32,1.77,1.35,2.1c0.42,0,0.83,0,1.25,0c0,0,0,0,0,0
				c0,0,0,0,0,0c0.85,0.15,1.69,0.13,2.54-0.02c0.86-0.15,1.14,0.22,0.81,1.06c-0.28,0.72-0.52,1.45-0.77,2.18
				c-0.01,0.07-0.04,0.14-0.08,0.24c0,0,0,0,0,0l0,0l0,0c-0.62,2.53-1.25,5.06-1.54,7.67c-0.34,3.03-0.4,6.05-0.48,9.09
				c-0.07,2.55-0.48,5.05-2.05,7.2c-0.62,0.85-1.47,1.45-2.31,2.28c2.23,0.25,4.27-0.32,6.33-0.6c1.24-0.17,2.1-0.12,2.91,1.15
				c1.54,2.4,4.04,3.52,6.81,3.97c1.02,0.16,2.04,0.43,3.44,0.13c-1.95,1.83-4.01,2.47-6.22,2.63c-2.54,0.19-5-0.28-7.14-1.73
				c-1.17-0.79-2.19-0.04-3.22,0.1c-4.7,0.64-8.99-2.98-9.03-7.72c-0.05-5.71,1.78-10.95,3.99-16.1c1.37-3.17,2.95-6.24,4.6-9.28
				c-0.03-0.08-0.07-0.15-0.1-0.23c0,0,0,0,0,0c-0.46-0.19-0.97-0.31-1.36-0.59c-1.04-0.76-1.61-0.49-2.28,0.58
				c-5.93,9.49-9.02,19.77-8.91,30.99c0.01,1.04,0.35,1.58,1.27,1.97C106.61,93.57,110.62,95.05,114.66,96.48z M231.69,41.23
				c0.01-0.63,0.35-1.26,0.98-1.27c0.75-0.02,0.99,0.71,1.03,1.35c0.06,1,0.02,2,0.02,3c0.01,0,0.02,0,0.03,0
				c0,0.96,0.04,1.92-0.02,2.87c-0.04,0.58-0.19,1.21-0.99,1.19c-0.71-0.02-1.08-0.5-1.09-1.14
				C231.63,45.23,231.65,43.23,231.69,41.23z M115.92,47.44c-0.01,0.54-0.43,1-1.1,0.95c-0.61-0.05-0.88-0.48-0.9-1.01
				c-0.04-1.03-0.01-2.07-0.01-3.11c-0.01,0-0.01,0-0.02,0c0-1-0.02-1.99,0.01-2.99c0.01-0.63,0.2-1.19,0.95-1.22
				c0.67-0.03,1.03,0.48,1.04,1.03C115.96,43.21,115.98,45.33,115.92,47.44z M172.87,116.35c-0.31,1.63-1.04,2.24-2.77,2.29
				c-2.93,0.09-5.78-0.39-8.51-1.49c-1.32-0.53-2.64-2.94-2.59-4.44c0.02-0.57,0.36-0.56,0.75-0.56c0.87,0,1.75,0,2.62,0
				c2.92,0.07,5.79-0.3,8.6-1.11c1.12-0.32,1.69,0.07,1.9,1.11C173.16,113.54,173.14,114.96,172.87,116.35z M189.39,113.37
				c-0.4,3.02-2.23,4.29-4.98,4.7c-1.6,0.24-3.2,0.46-4.24,0.6c-3.5-0.01-4.66-1.17-4.68-4.1c-0.01-1.08-0.13-2.18,0.43-3.17
				c0.21-0.37,0.38-0.88,1.03-0.62c3.65,1.43,7.48,1.43,11.31,1.38C189.16,112.14,189.55,112.17,189.39,113.37z M191.93,102.48
				c-0.81,1.41-1.75,2.72-3.2,3.7c0.79,0,1.58,0,2.61,0c-1.39,1.9-2.9,3.08-5.1,2.92c-2.49-0.18-4.96-0.46-7.44-0.73
				c-2.19-0.24-3.3-1.72-4.06-3.6c-0.16-0.41-0.13-0.91-0.61-1.27c-0.11,0.38-0.21,0.72-0.31,1.05c-0.8,2.65-2.12,3.65-4.86,3.86
				c-2.15,0.17-4.3,0.46-6.44,0.68c-2.46,0.25-3.99-1.25-5.76-3.09c1.11,0.15,1.84,0.24,2.59,0.34c0.16-0.6-0.33-0.75-0.59-1
				c-1.03-0.99-1.89-2.11-2.5-3.4c-0.13-0.28-0.43-0.6-0.16-0.91c0.23-0.26,0.54-0.01,0.82,0.04c4,0.65,7.94,0.48,11.85-0.68
				c2.27-0.67,3.92-1.94,4.83-4.14c0.14-0.34,0.34-0.65,0.51-0.98c0.11,0.07,0.22,0.1,0.25,0.16c1.88,4.56,5.87,5.56,10.15,5.93
				c2.19,0.19,4.41,0.24,6.6-0.17c0.39-0.07,0.95-0.26,1.19,0.07C192.62,101.68,192.14,102.11,191.93,102.48z M224.93,78.99
				c2.1,1.15,3.59,2.93,4.85,4.92c0.33,0.52,0.2,0.74-0.42,0.75c-1.48,0.02-2.85,0.58-4.21,1.06c-2.14,0.75-4.3,1.29-6.24,1.21
				c-4.17,0.01-7.66-0.96-10.69-3.37c-0.62-0.49-0.78-0.68,0.08-1.12c1.92-0.98,3.76-2.14,5.67-3.15
				C217.57,77.38,221.23,76.96,224.93,78.99z M134.9,75.11c2.93-2.56,6.27-4.15,10.2-4.49c4.06-0.36,7.83,0.72,11.55,2.11
				c0.35,0.13,0.7,0.25,1.06,0.36c0.02,0.01,0.07-0.05,0.1-0.07c-0.03-0.42-0.58-0.27-0.74-0.82c1.81-0.06,3.56-0.13,5.32,0.05
				c4.26,0.43,8.07,1.9,11.24,4.85c0.48,0.44,0.79,0.23,1.15-0.14c3.57-3.55,8.08-4.58,12.89-4.77c0.91-0.04,2.08-0.2,2.68,0.27
				c1.41,1.11,2.33-0.11,3.32-0.46c5.07-1.79,10.06-2.09,15.05,0.18c1.56,0.71,2.94,1.73,4.35,2.69c0.82,0.55,0.76,1.04-0.02,1.62
				c-2.23,1.66-4.67,2.88-7.35,3.61c-1.47,0.4-2.85,1.15-4.42,1.26c0.2,0.02,0.4,0.05,0.61,0.06c1.82,0.09,1.96,0.25,1.41,1.96
				c-1.99,6.16-5.84,10.6-12.14,12.57c-3.46,1.08-7.03,1.22-10.59,0.48c-3.45-0.72-5-2.08-6.3-5.44c-0.57,1.37-1.07,2.67-2.17,3.64
				c-1.41,1.26-3.15,1.78-4.9,1.98c-5.65,0.67-11.05,0.04-15.7-3.67c-3.7-2.96-5.9-6.83-6.69-11.48c-0.13-0.76-0.34-0.98-1.12-1.1
				c-3.27-0.5-6.22-1.75-8.75-3.95C134.39,75.92,134.35,75.59,134.9,75.11z M129.76,86.91c-2.66,0.14-5.12-0.6-7.55-1.47
				c-1.05-0.37-2.08-0.88-3.24-0.79c-0.73,0.06-0.64-0.34-0.37-0.75c3.16-4.97,8.26-7.73,14.26-5.31c2.64,1.06,4.91,2.78,7.41,4.08
				c0.84,0.44,0.09,0.76-0.18,0.96c-2.01,1.54-4.27,2.54-6.76,3.02C132.13,86.89,130.93,86.96,129.76,86.91z M214.83,142.95
				c-1.99-0.07-1.99-0.07-2.05-2.06c-0.01-0.17-0.01-0.33-0.02-0.5c-0.21-2.74-0.46-5.48-1.25-8.13c-0.95-3.17-2.85-4.58-6.13-4.59
				c-1.13-0.01-2.25-0.04-3.38,0.02c-1.12,0.06-2.12-0.12-3-0.89c-0.7-0.61-1.59-0.94-2.51-1.01c-4.9-0.39-7.33,0.2-8.22,5.85
				c-0.53,3.34-0.59,6.72-0.56,10.1c0.01,0.94-0.25,1.18-1.18,1.18c-8.21-0.03-16.42-0.04-24.63,0.02
				c-1.04,0.01-1.19-0.36-1.22-1.26c-0.1-3.5-0.13-7-0.68-10.46c-0.35-2.2-0.95-4.37-3.35-5.15c-2.32-0.75-4.83-0.78-6.88,0.59
				c-1.43,0.96-2.8,1.01-4.32,1.01c-0.67,0-1.34,0.05-2,0c-3.93-0.28-6.05,2.31-6.73,5.21c-0.66,2.76-0.97,5.58-1.05,8.41
				c-0.04,1.29-0.32,1.77-1.73,1.71c-2.29-0.09-3.52,1.25-3.59,3.54c-0.08,2.59,1.36,4.12,4.03,4.11c0.95,0,1.26,0.27,1.35,1.23
				c0.2,2.2,0.61,4.38,1.33,6.47c0.95,2.77,2.79,4.09,5.71,4.12c1.21,0.01,2.42,0.01,3.63-0.02c0.51-0.01,0.88,0.1,1.13,0.58
				c1.44,2.83,3.81,3.64,6.86,3.45c3.49-0.21,5.08-1.46,5.63-4.91c0.5-3.14,0.57-6.31,0.64-9.47c0.02-1.05,0.38-1.2,1.29-1.19
				c4.04,0.04,8.08,0.02,12.13,0.02c0,0,0-0.01,0-0.01c4.08,0,8.17,0.03,12.25-0.02c0.93-0.01,1.25,0.19,1.3,1.19
				c0.15,3.45,0.14,6.93,0.91,10.32c0.45,1.97,1.42,3.61,3.66,3.93c1.48,0.21,2.99,0.18,4.48,0c1.23-0.15,2.44-0.65,2.93-1.68
				c1.11-2.33,3.01-2.34,5.08-2.18c0.46,0.04,0.92,0.01,1.37-0.01c2.55-0.09,4.35-1.23,5.24-3.69c0.68-1.89,1.07-3.84,1.25-5.84
				c0.2-2.17,0.18-2.18,2.36-2.27c2.09-0.09,3.46-1.67,3.44-3.95C218.32,144.54,216.91,143.02,214.83,142.95z M146.37,132.2
				c-1.79,5.24-1.73,10.72-2.15,16.13c-0.05,0.58-0.06,1.16-0.14,1.74c-0.21,1.4-0.82,1.94-2.12,1.92
				c-1.23-0.01-1.92-0.65-1.99-2.07c-0.08-1.58-0.02-3.16-0.02-4.49c0.06-3.83,0.18-7.41,0.75-10.95c0.43-2.66,3.02-3.96,5.47-2.85
				C146.49,131.79,146.45,131.95,146.37,132.2z M155.41,131.05c-1.78,6.02-1.28,12.23-1.49,18.37c-0.03,0.83,0.01,1.67-0.07,2.5
				c-0.13,1.36-0.89,2.1-2.13,2.19c-1.06,0.08-1.97-0.66-2.28-1.9c-0.12-0.48-0.16-0.99-0.17-1.48c-0.02-2.17-0.01-4.34-0.01-7.01
				c0.12-3.08,0.14-6.67,0.74-10.21c0.44-2.63,2.55-3.88,5.07-3.09C155.48,130.55,155.5,130.74,155.41,131.05z M198.98,151.42
				c-0.02,1.74-0.78,2.66-2.13,2.7c-1.38,0.04-2.3-0.95-2.37-2.64c-0.21-4.74-0.07-9.49-0.41-14.23c-0.15-2.04-0.37-4.06-1.04-6
				c-0.24-0.68-0.02-0.88,0.6-0.98c2.6-0.45,4.18,0.59,4.68,3.2c0.68,3.49,0.62,7.04,0.68,9.56
				C198.99,146.51,199.01,148.96,198.98,151.42z M208.53,149.91c-0.03,1.27-0.64,1.97-1.71,2.07c-1.27,0.13-2.15-0.39-2.34-1.7
				c-0.27-1.81-0.29-3.65-0.45-5.47c-0.37-4.27-0.53-8.57-1.97-12.66c-0.12-0.35-0.22-0.66,0.33-0.67c1.08-0.01,2.16-0.16,3.23,0.13
				c1.21,0.33,1.68,1.29,1.95,2.37c0.68,2.73,0.72,5.53,0.9,8.31c0.07,1.08,0.01,2.17,0.01,3.25c0.02,0,0.04,0,0.06,0
				C208.54,146.99,208.57,148.45,208.53,149.91z M204.28,52.22c2.1-0.32,1.65,1.01,1.68,2.12c0.01,0.37,0.02,0.75,0.03,1.12
				c0.03,0.91,0.54,1.38,1.41,1.41c0.96,0.04,1.92,0.03,2.87,0c1.26-0.04,1.69-0.5,1.71-1.78c0.02-1.55,0-3.1,0-4.84
				c1.02,0.78,1.85,1.47,2.73,2.08c0.67,0.47,1.32,1,2.23,1.02c2.54,0.06,5.08-0.11,7.61-0.23c0.58-0.03,0.81-0.24,0.81-0.82
				c0.01-3.62,0.03-7.25,0.06-10.87c0-0.48-0.15-0.69-0.63-0.69c-3.2,0-6.39,0-9.58,0c0.41-0.84,0.41-0.84,0.03-1.1
				c-0.76-0.52-2.09-0.24-3.31,0.74c0-0.61-0.02-1.15,0-1.69c0.16-3.43,0.07-3.54-3.34-3.52c-2.48,0.01-2.81,0.36-2.67,2.84
				c0,0.08-0.01,0.17,0.01,0.25c0.19,0.87-0.01,1.25-1.04,1.19c-1.44-0.08-2.3,0.65-2.32,1.85c-0.05,3-0.05,6-0.02,9
				C202.58,51.38,203.28,52.37,204.28,52.22z M206.24,41.26c0.01-0.57,0.16-1.11,0.84-1.18c0.79-0.09,1.04,0.51,1.06,1.1
				c0.07,2.11,0.09,4.23,0.09,6.34c0,0.57-0.41,0.91-0.99,0.89c-0.65-0.02-0.98-0.44-0.99-1.05c-0.03-1.04-0.01-2.07-0.01-3.11
				C206.23,43.25,206.22,42.26,206.24,41.26z M121.89,49.84c0.01,3.16,0.02,3.08,3.11,3.44c3.76,0.44,7.22,0.04,9.99-2.87
				c0.02-0.02,0.08-0.02,0.2-0.05c-0.29,1.6-0.18,3.14-0.19,4.67c-0.01,1.38,0.5,1.87,1.9,1.85c3.47-0.06,4.09,0.72,4.02-3.81
				c-0.01-0.74,0.2-0.86,0.92-0.81c1.51,0.1,2.4-0.52,2.43-1.7c0.08-3.04,0.12-6.08,0.08-9.12c-0.02-1.29-0.81-2.08-2.07-1.99
				c-1.3,0.1-1.49-0.34-1.41-1.51c0.17-2.42-0.23-2.77-2.61-2.77c-0.58,0-1.17-0.05-1.75,0c-0.95,0.08-1.54,0.53-1.51,1.59
				c0.03,1.1,0.01,2.19,0.01,3.39c-0.41-0.27-0.69-0.52-1.01-0.66c-0.89-0.4-2.48-0.06-2.47,0.53c0.02,0.76-0.39,0.64-0.83,0.64
				c-2.58,0-5.17,0.03-7.75,0.01c-0.77-0.01-1.08,0.16-1.06,1.04C121.94,44.42,121.88,47.13,121.89,49.84z M138.93,40.79
				c0.05-0.48,0.25-0.8,0.77-0.76c0.51,0.03,0.97,0.17,1.08,0.81c0.2,1.2,0.07,2.4,0.12,3.6c0,0.95,0.02,1.91-0.01,2.86
				c-0.01,0.59-0.23,1.07-0.91,1.11c-0.72,0.04-1.15-0.41-1.16-1.03C138.8,45.17,138.71,42.98,138.93,40.79z M182.76,129.91
				c-3.65,0.43-7.3,0.69-10.97,0.52c-2.16-0.1-4.31-0.38-6.47-0.51c-1.59-0.1-2.47,0.93-2.26,2.52c0.17,1.29,1.03,1.84,2.22,1.97
				c2.9,0.32,5.79,0.66,8.72,0.59c3.09,0.09,6.15-0.33,9.21-0.63c1.55-0.15,2.41-1.22,2.24-2.58
				C185.28,130.39,184.39,129.71,182.76,129.91z"/>
			<path class="st60" d="M247.79,104.51c-3.37,3.09-7.26,5.19-11.72,6.29c-3.82,0.94-7.67,1.73-11.13,3.83
				c-6.44,3.9-11.27,11.7-9.94,20c0.19,1.17,0.54,1.37,1.58,0.96c5.04-2,9.59-4.79,13.55-8.5c2.64-2.48,4.81-5.33,6.37-9.01
				c0.04,0.55,0.06,0.74,0.06,0.93c-0.09,6.28-2.81,11.27-7.57,15.22c-3.2,2.66-6.83,4.56-10.8,5.82c-0.85,0.27-0.86,0.6-0.29,1.19
				c0.92,0.96,2.06,1.61,3.31,1.91c6.08,1.48,11.53,0.03,16.32-3.86c5.28-4.28,7.63-10.15,8.56-16.67
				c0.64-4.45,0.69-8.96,1.47-13.39c0.29-1.66,0.65-3.32,1.04-5.3C248.12,104.28,247.94,104.38,247.79,104.51z M128,116.69
				c-3.27-3.05-7.25-4.6-11.55-5.53c-3.92-0.85-7.73-2.02-11.04-4.41c-1.13-0.82-2.22-1.71-3.49-2.7c0.07,0.5,0.08,0.79,0.16,1.06
				c1.76,5.6,2.37,11.39,2.82,17.2c0.4,5.12,1.84,9.89,5.11,13.95c3.89,4.84,8.8,7.62,15.19,7.45c2.18-0.06,3.73-0.81,4.65-2.87
				c0.26-0.57,0.18-0.79-0.26-1.1c-2.52-1.78-4.74-3.88-6.73-6.25c-3.26-3.88-6.32-10.61-6.73-15.04c1.36,2.38,2.91,4.63,4.69,6.74
				c3.42,4.04,7.28,7.64,11.16,11.23c0.8,0.74,0.94,0.17,1.13-0.43C135.36,128.83,133.36,121.69,128,116.69z M231.02,62.68
				c1.23,4.71,1.27,9.53,1.3,14.36c0.02,3.7,0.95,7.07,4.38,9.57c0.04,0.03,0.08,0.06,0.12,0.09c-0.05,0-0.11-0.01-0.16-0.01
				c-0.94-0.05-1.63-0.06-2.31-0.14c-1.65-0.19-3.29-0.43-4.94-0.63c-0.58-0.07-1.02,0.1-1.34,0.67c-1.22,2.14-3.16,3.34-5.44,4.11
				c-1.6,0.53-3.25,0.68-5.08,0.74c3.82,2.98,9.01,3.33,13.07,1.01c0.5-0.29,0.99-0.7,1.61-0.49c1.22,0.39,2.48,0.26,3.72,0.23
				c3.27-0.07,6.31-2.66,6.77-5.9c0.24-1.68,0.16-3.41-0.06-5.11c-0.6-4.79-2.16-9.3-4.23-13.62c-1.38-2.88-2.53-5.9-4.65-8.37
				c-0.51,0.29-0.94,0.28-1.17-0.34c-0.23-0.65-0.83-1.34,0.15-1.89c0,0,0,0,0,0c-0.83,0-1.66,0-2.49-0.01
				c-0.61-0.01-0.8,0.18-0.61,0.83C230.17,59.38,230.59,61.03,231.02,62.68z M213.06,76.47c0.77-0.58,0.84-1.06,0.02-1.62
				c-1.41-0.96-2.79-1.98-4.35-2.69c-4.99-2.27-9.99-1.96-15.05-0.18c-0.99,0.35-1.91,1.57-3.32,0.46c-0.6-0.47-1.77-0.31-2.68-0.27
				c-4.81,0.2-9.32,1.22-12.89,4.77c-0.36,0.36-0.68,0.58-1.15,0.14c-3.17-2.95-6.98-4.42-11.24-4.85
				c-1.76-0.18-3.51-0.11-5.32-0.05c0.16,0.55,0.71,0.4,0.74,0.82c-0.03,0.03-0.08,0.08-0.1,0.07c-0.35-0.12-0.71-0.23-1.06-0.36
				c-3.73-1.39-7.49-2.46-11.55-2.11c-3.93,0.34-7.27,1.93-10.2,4.49c-0.55,0.48-0.5,0.81,0.05,1.29c2.53,2.2,5.48,3.45,8.75,3.95
				c0.78,0.12,0.99,0.34,1.12,1.1c0.8,4.65,2.99,8.52,6.69,11.48c4.64,3.71,10.05,4.34,15.7,3.67c1.76-0.21,3.49-0.73,4.9-1.98
				c1.09-0.97,1.59-2.27,2.17-3.64c1.31,3.36,2.85,4.72,6.3,5.44c3.56,0.74,7.13,0.6,10.59-0.48c6.3-1.97,10.15-6.4,12.14-12.57
				c0.55-1.71,0.41-1.87-1.41-1.96c-0.2-0.01-0.4-0.04-0.61-0.06c1.57-0.11,2.94-0.86,4.42-1.26
				C208.38,79.36,210.83,78.14,213.06,76.47z M114.48,92.25c1.03-0.14,2.06-0.89,3.22-0.1c2.14,1.46,4.6,1.92,7.14,1.73
				c2.21-0.16,4.27-0.8,6.22-2.63c-1.4,0.3-2.42,0.04-3.44-0.13c-2.76-0.44-5.26-1.56-6.81-3.97c-0.82-1.27-1.67-1.32-2.91-1.15
				c-2.06,0.28-4.1,0.85-6.33,0.6c0.84-0.83,1.69-1.43,2.31-2.28c1.58-2.15,1.98-4.65,2.05-7.2c0.09-3.04,0.15-6.06,0.48-9.09
				c0.29-2.61,0.92-5.13,1.54-7.67l0,0l0,0c0,0,0,0,0,0c0.04-0.09,0.07-0.17,0.08-0.24c0.25-0.73,0.49-1.46,0.77-2.18
				c0.33-0.84,0.05-1.21-0.81-1.06c-0.85,0.15-1.69,0.17-2.54,0.02c0,0,0,0,0,0c0,0,0,0,0,0c-0.42,0-0.83,0-1.25,0c0,0,0,0,0,0
				c0.23,0.32,0.92,0.26,0.72,0.93c-0.16,0.53-0.33,1.01-0.99,1.07h0c0.03,0.08,0.07,0.15,0.1,0.23c-1.65,3.04-3.24,6.1-4.6,9.28
				c-2.21,5.15-4.04,10.39-3.99,16.1C105.49,89.28,109.78,92.89,114.48,92.25z M191.12,101.19c-2.19,0.42-4.41,0.37-6.6,0.17
				c-4.28-0.37-8.28-1.38-10.15-5.93c-0.02-0.06-0.13-0.09-0.25-0.16c-0.17,0.33-0.37,0.65-0.51,0.98c-0.9,2.21-2.56,3.47-4.83,4.14
				c-3.91,1.16-7.85,1.33-11.85,0.68c-0.28-0.04-0.59-0.3-0.82-0.04c-0.28,0.31,0.02,0.63,0.16,0.91c0.61,1.3,1.47,2.41,2.5,3.4
				c0.26,0.25,0.76,0.41,0.59,1c-0.75-0.1-1.48-0.19-2.59-0.34c1.77,1.83,3.3,3.34,5.76,3.09c2.15-0.22,4.29-0.51,6.44-0.68
				c2.74-0.21,4.05-1.22,4.86-3.86c0.1-0.33,0.19-0.67,0.31-1.05c0.48,0.36,0.44,0.86,0.61,1.27c0.76,1.88,1.87,3.36,4.06,3.6
				c2.48,0.27,4.96,0.55,7.44,0.73c2.19,0.15,3.71-1.02,5.1-2.92c-1.03,0-1.82,0-2.61,0c1.45-0.99,2.4-2.29,3.2-3.7
				c0.21-0.37,0.69-0.8,0.37-1.22C192.07,100.93,191.51,101.12,191.12,101.19z M225.15,85.73c1.37-0.48,2.73-1.04,4.21-1.06
				c0.62-0.01,0.75-0.23,0.42-0.75c-1.26-1.99-2.76-3.77-4.85-4.92c-3.7-2.03-7.37-1.61-10.96,0.3c-1.91,1.01-3.75,2.17-5.67,3.15
				c-0.86,0.44-0.69,0.63-0.08,1.12c3.04,2.41,6.52,3.38,10.69,3.37C220.85,87.02,223.02,86.48,225.15,85.73z M140.26,82.67
				c-2.5-1.31-4.78-3.02-7.41-4.08c-6-2.41-11.1,0.34-14.26,5.31c-0.26,0.42-0.36,0.81,0.37,0.75c1.17-0.09,2.2,0.41,3.24,0.79
				c2.44,0.87,4.89,1.61,7.55,1.47c1.17,0.06,2.37-0.02,3.56-0.25c2.49-0.48,4.75-1.48,6.76-3.02
				C140.35,83.42,141.1,83.11,140.26,82.67z M188.27,112.15c-3.83,0.05-7.66,0.05-11.31-1.38c-0.65-0.25-0.82,0.25-1.03,0.62
				c-0.56,0.99-0.44,2.1-0.43,3.17c0.02,2.93,1.18,4.08,4.68,4.1c1.03-0.15,2.64-0.36,4.24-0.6c2.74-0.41,4.58-1.68,4.98-4.7
				C189.55,112.17,189.16,112.14,188.27,112.15z M170.96,111.04c-2.8,0.81-5.67,1.18-8.6,1.11c-0.87,0-1.75,0-2.62,0
				c-0.39,0-0.73-0.01-0.75,0.56c-0.04,1.5,1.28,3.91,2.59,4.44c2.72,1.1,5.58,1.58,8.51,1.49c1.74-0.05,2.46-0.66,2.77-2.29
				c0.26-1.38,0.28-2.81-0.01-4.2C172.65,111.11,172.08,110.72,170.96,111.04z"/>
		</g>
	</g>
</g>
</svg>
