<?xml version="1.0" encoding="utf-8"?>
<!-- Generator: Adobe Illustrator 27.8.1, SVG Export Plug-In . SVG Version: 6.00 Build 0)  -->
<svg version="1.1" xmlns="http://www.w3.org/2000/svg" xmlns:xlink="http://www.w3.org/1999/xlink" x="0px" y="0px"
	 viewBox="0 0 350 230" style="enable-background:new 0 0 350 230;" xml:space="preserve">
<style type="text/css">
	.st0{fill:#FF9D00;}
	.st1{fill:url(#SVGID_1_);}
	.st2{opacity:0.22;fill:url(#SVGID_00000117635072567330894110000006232966209422731452_);}
	.st3{fill:#FFC200;}
	.st4{fill:#778718;}
	.st5{fill:#E0B017;}
	.st6{fill:#664407;}
	.st7{fill:#9E690A;}
	.st8{fill:#7F1105;}
	.st9{fill:#191933;}
	.st10{fill:#FCEBD4;}
	.st11{fill:#E3DFD6;}
	.st12{fill:#FFB000;}
	.st13{fill:#AA210E;}
	.st14{fill:#FFF0A6;}
	.st15{fill:#FFDA00;}
	.st16{fill:#F4F4F4;}
	.st17{fill:#DC5C28;}
	.st18{fill:#FF8440;}
	.st19{fill:#C45224;}
	.st20{fill:#2C4369;}
	.st21{fill:#2A72DB;}
	.st22{fill:#C65500;}
	.st23{fill:#C15746;}
	.st24{fill:#FF8C00;}
	.st25{fill:#FFEA2C;}
	.st26{fill:#F7FF57;}
	.st27{fill:#FFFFFF;}
	.st28{fill:#D64949;}
	.st29{fill:#353535;}
	.st30{fill:#FFC783;}
	.st31{fill:#3F7F91;}
	.st32{fill:#25BDE5;}
	.st33{fill:#8CDD00;}
	.st34{fill:#D1FF88;}
	.st35{fill:#333333;}
	.st36{fill:#FF9000;}
	.st37{fill:#A1A813;}
	.st38{fill:#B3C40E;}
	.st39{fill:#CACE72;}
	.st40{fill:url(#SVGID_00000019663589027302620700000009903253298512851637_);}
	.st41{fill:#93E800;}
	.st42{fill:#3CB7D3;}
	.st43{fill:#FF7631;}
	.st44{fill:#E6873C;}
	.st45{fill:#30657F;}
	.st46{fill:#FF7A40;}
	.st47{fill:#FFAD4A;}
	.st48{fill:#BC8E3B;}
	.st49{fill:#E2E2E2;}
	.st50{fill:#F2B844;}
	.st51{fill:#AF3838;}
	.st52{fill:#17B5C1;}
	.st53{fill:#A88643;}
	.st54{fill-rule:evenodd;clip-rule:evenodd;fill:#DD7928;}
	.st55{fill:#E6E7E8;stroke:#CFCFCF;stroke-width:0.1061;}
	.st56{fill-rule:evenodd;clip-rule:evenodd;fill:#204F7A;}
	.st57{fill-rule:evenodd;clip-rule:evenodd;fill:#50A4FF;}
	.st58{fill:#002649;}
	.st59{fill:#00134F;}
	.st60{fill:#665200;}
	.st61{fill:#002349;}
	.st62{fill:#FF914D;}
	.st63{fill:#AC1929;}
	.st64{fill:#004AAD;}
	.st65{fill:#BE1C2D;}
	.st66{fill:#242424;}
	.st67{fill:#F1A75A;}
	.st68{fill-rule:evenodd;clip-rule:evenodd;}
	.st69{fill-rule:evenodd;clip-rule:evenodd;fill:#007177;}
	.st70{fill-rule:evenodd;clip-rule:evenodd;fill:#242424;}
	.st71{fill:#F9951C;}
	.st72{fill:#84123B;}
	.st73{fill:#FFB908;}
	.st74{fill:#393536;}
	.st75{fill:#093F00;}
	.st76{fill:#333300;}
	.st77{fill:#C8D7FF;}
	.st78{fill:#426BD1;}
	.st79{fill:#0036D2;}
</style>
<g id="Layer_1">
</g>
<g id="Layer_12">
</g>
<g id="Layer_13">
</g>
<g id="Layer_14">
</g>
<g id="Layer_15">
</g>
<g id="Layer_11">
</g>
<g id="Layer_8">
</g>
<g id="Layer_10">
</g>
<g id="Layer_9">
</g>
<g id="Layer_2">
</g>
<g id="Layer_3">
</g>
<g id="Layer_4">
</g>
<g id="Layer_5">
</g>
<g id="Layer_6">
</g>
<g id="Layer_7">
	<path class="st13" d="M126.45,32.98c-6.25,0.6-11.74-2.67-12.18-6.87c-0.51-4.88,4.06-9.75,9.98-10.24
		c-1.03,2.26-1.83,4.45-3.01,6.45c-1.18,2.02-2.74,3.85-4.27,5.96c2.82-0.24,5.77-1.24,7.83,1.15
		C125.61,30.36,125.88,31.7,126.45,32.98z M107.49,35.22c2.74-3.79,3.75-7.58,1.91-12.15c-3.04,2.87-5.15,5.67-4.8,9.47
		c0.17,1.92,0.63,3.85,2.94,4.66c4.01,1.4,7.88,1,12.09-0.86C115.7,32.79,111.83,32.97,107.49,35.22z M97.17,42.35
		c0.4,1.28,1.85,3,3.09,3.21c4.13,0.69,7.6-1,10.79-3.68c-4.58-2.48-7.8-0.54-11.27,2.64c1.32-4.33,3.19-8.07,0-11.92
		C97.49,35.69,96.08,38.84,97.17,42.35z M95.61,54.35c-0.28-4.05,0.56-7.65-2.75-10.59c-1.32,3.61-1.83,6.83-0.04,10.01
		c1.38,2.46,2.78,2.93,5.17,1.34c2.35-1.57,4.34-3.59,6.49-5.42C99.65,48.21,97.79,51.05,95.61,54.35z M94.11,66.26
		c0.56,0.44,2.24,0.51,2.69,0.1c2.49-2.33,3.05-5.37,3.65-8.78c-4.23,1.07-3.82,4.39-5.09,7.27c-1.28-3.31-1.87-6.34-5.3-8.27
		C90.16,60.56,91.05,63.84,94.11,66.26z M223.7,29.42c2.06-2.39,5.01-1.39,7.83-1.15c-1.53-2.1-3.09-3.94-4.27-5.96
		c-1.18-2-1.98-4.2-3.01-6.45c5.92,0.5,10.49,5.36,9.98,10.24c-0.44,4.2-5.93,7.47-12.18,6.87C222.62,31.7,222.89,30.36,223.7,29.42
		z M228.87,36.34c4.21,1.86,8.09,2.26,12.09,0.86c2.31-0.81,2.77-2.74,2.94-4.66c0.34-3.8-1.76-6.6-4.8-9.47
		c-1.85,4.57-0.84,8.36,1.91,12.15C236.67,32.97,232.8,32.79,228.87,36.34z M248.73,32.6c-3.18,3.86-1.32,7.6,0,11.92
		c-3.47-3.19-6.69-5.12-11.27-2.64c3.19,2.67,6.66,4.36,10.79,3.68c1.23-0.21,2.69-1.93,3.09-3.21
		C252.43,38.84,251.01,35.69,248.73,32.6z M244.03,49.68c2.15,1.82,4.14,3.85,6.49,5.42c2.39,1.6,3.79,1.12,5.17-1.34
		c1.78-3.18,1.28-6.4-0.04-10.01c-3.31,2.94-2.47,6.55-2.75,10.59C250.71,51.05,248.86,48.21,244.03,49.68z M258.45,56.59
		c-3.43,1.93-4.02,4.96-5.3,8.27c-1.26-2.88-0.86-6.21-5.09-7.27c0.6,3.41,1.16,6.45,3.65,8.78c0.44,0.41,2.13,0.34,2.69-0.1
		C257.46,63.84,258.35,60.56,258.45,56.59z"/>
	<g>
		<path class="st13" d="M241.9,97.39c0,36.95-29.95,66.9-66.9,66.9s-66.9-29.95-66.9-66.9s29.95-66.9,66.9-66.9
			S241.9,60.44,241.9,97.39z"/>
		<path class="st16" d="M175,172.56c-12.73,0-25.32-3.25-36.41-9.4l-2-1.11l2.07-0.97c4.88-2.29,10.48-5.93,13.63-8.35
			c4.73-3.64,7.24-6.72,9.25-11.36c1.46-3.37,2.11-6.26,2.32-7.34l0.34-1.72l1.46,0.97c1.14,0.76,3.99,3.1,5.71,8.44
			c0.88,2.74,1.18,4.8,1.42,6.46c0.33,2.32,0.53,3.71,1.96,5.31l0.37,0.42c2.6,2.9,3.31,3.89,4.15,9.53
			c0.34,2.32,0.6,4.94,0.77,7.79l0.07,1.18l-1.18,0.06C177.6,172.53,176.29,172.56,175,172.56z M141.71,162.18
			c10.25,5.27,21.71,8.05,33.29,8.05c0.86,0,1.74-0.02,2.61-0.05c-0.16-2.32-0.39-4.47-0.67-6.4c-0.77-5.18-1.25-5.72-3.57-8.31
			l-0.38-0.42c-1.9-2.13-2.18-4.07-2.53-6.53c-0.23-1.58-0.51-3.54-1.33-6.08c-0.98-3.05-2.36-4.95-3.42-6.05
			c-0.39,1.51-1.04,3.61-2.03,5.91c-2.18,5.05-4.88,8.38-9.97,12.28C150.81,156.81,146.19,159.86,141.71,162.18z M121.31,150.37
			l-4.17-5.02c-11.17-13.45-17.32-30.49-17.32-47.96c0-41.45,33.73-75.18,75.18-75.18c41.45,0,75.18,33.73,75.18,75.18
			c0,1.76-0.08,3.67-0.25,5.84l-0.27,3.46l-1.88-2.91c-0.28-0.43-0.54-0.87-0.78-1.33c-2.94-5.5-4.89-8.7-10.75-10.46
			c-2.7-0.81-4.89-1.27-6.65-1.63c-2.31-0.48-3.97-0.82-5.17-1.65c-0.48-0.33-0.88-0.67-1.26-1.01c-1.22-1.06-2.58-2.24-7.34-3.57
			c-1.45-0.4-2.66-0.69-3.72-0.94c-3.77-0.89-5.81-1.37-9.51-4.76c-3.97-3.64-6.01-7.37-6.55-8.43l-0.45-0.89l0.81-0.58
			c0.06-0.04,0.07-0.08,0.08-0.1c0.05-0.18-0.07-0.63-0.6-1.3c-2.21-2.85-1.52-7.59-1.25-8.97c0.54-2.81,0.04-7.53-3.12-11.62
			c-3.26-4.22-6.91-6-7.6-6.31l-0.37-0.17l-0.19-0.37c-0.3-0.58-1.97-3.5-5.59-3.5c-0.32,0-0.65,0.02-0.98,0.07l-0.83,0.11
			c-5.03,0.65-10.73,1.39-16.63,5.23c-5.83,3.78-9.91,5.7-12.14,5.7c-0.57,0-1.05-0.12-1.44-0.35c-0.6,1.46-1.31,3.97-0.32,6.01
			c0.83,1.7,2.75,2.8,5.71,3.28l1.14,0.18l-0.17,1.14c-0.08,0.55-0.25,2.07-0.05,4.12c0.14,1.4,0.34,2.08,0.52,2.68
			c0.17,0.56,0.33,1.09,0.36,1.97l0.01,0.41c0.04,1.47,0.09,2.32,0.73,2.85c0.12,0.1,0.24,0.19,0.34,0.27
			c1.09,0.85,1.39,1.45,1.49,4c0.06,1.56-0.01,2.86-0.06,4c-0.05,1.03-0.09,1.9-0.05,2.75c0.09,1.6,0.36,1.65,1.16,1.79
			c0.21,0.04,0.26,0.04,0.53-0.17c0.22-0.18,0.56-0.45,1.08-0.45c0.35,0,0.62,0.13,0.79,0.22c1.16,0.65,1.46,1.33,1.81,2.38
			c0.18,0.53,0.35,0.6,0.83,0.74l0.99,0.29l-0.16,1.02c-0.07,0.46-0.05,1.28,0.89,1.72c1.22,0.56,1.93,0.81,2.24,0.91l1.02,0.33
			l-0.24,1.04c-0.08,0.35-0.23,1.24,0.17,1.83c0.29,0.43,0.86,0.67,1.71,0.72c2.75,0.16,3.63-0.31,5.01-1.08
			c0.43-0.24,0.83-0.46,1.3-0.69c1.45-0.71,3.23-1.34,4.48-1.75l3.57-1.18l-2.27,2.99c-1.06,1.4-2.47,3.21-3.12,3.85
			c-0.45,0.45-1.17,0.97-2.01,1.58c-0.95,0.68-2.01,1.46-2.41,1.96c-0.59,0.75-1.04,1.48-1.2,1.76l-0.35,0.6l-0.91-0.03
			c-1.24,0-4.58,0.27-8.86,2.74c-5.28,3.06-9.56,9.21-10.7,11.55c-0.91,1.86-2.27,5.42-2.54,6.12l-0.2,0.52l-0.53,0.17
			c-0.66,0.21-4.05,1.44-6.25,4.61c-2.24,3.23-2.98,6.84-3.11,7.53l-0.11,0.62l-3.43,1.45l-0.56-0.64
			c-2.63-3.01-4.35-4.99-5.15-5.95c-1.28-1.53-2.93-5.42-3.34-6.63l-0.48-1.43l1.5-0.11c1.47-0.11,8.99-1.04,12.86-8.86
			c2.26-4.57,2.32-9,0.2-13.16c-0.86-1.96-2.13-3.72-3.8-5.31c-1.31-1.42-2.32-2.22-2.6-2.43l-0.35-0.27l-0.09-0.43
			c-0.28-1.35-3.03-13.24-14.5-14.01c-0.27-0.02-0.55-0.03-0.82-0.03c-6.8,0-12.35,5.42-13.77,10.66c-1.54,5.63,1.38,12.85,5,15.55
			l0.52,0.39l-0.05,0.64c-0.04,0.51-0.12,2.35,0.53,4.77c0.7,2.61,2.42,6.41,6.65,9.7l0.4,0.31l0.05,0.5
			c0.14,1.53,0.86,9.4,0.75,13.72c-0.06,2.67,0.18,6.73,1.66,10.95L121.31,150.37z M102.16,97.77c0.08,14.94,4.8,29.52,13.39,41.67
			c-0.38-2.41-0.45-4.58-0.41-6.23c0.09-3.84-0.51-10.89-0.7-12.95c-4.45-3.61-6.3-7.75-7.07-10.62c-0.58-2.15-0.66-3.91-0.63-4.92
			C104.9,103.14,103.24,100.64,102.16,97.77z M128.23,123.64c0.65,1.55,1.67,3.68,2.39,4.54c0.74,0.89,2.28,2.66,4.57,5.28
			l0.73-0.31c0.34-1.55,1.26-4.79,3.36-7.82c2.24-3.22,5.41-4.73,6.91-5.3c0.49-1.27,1.62-4.15,2.43-5.81
			c1.24-2.54,5.89-9.23,11.63-12.55c4.38-2.53,7.97-2.99,9.64-3.05c0.26-0.4,0.61-0.91,1.03-1.44c0.6-0.75,1.7-1.55,2.87-2.4
			c0.7-0.51,1.41-1.02,1.73-1.34c0.07-0.07,0.16-0.16,0.26-0.28c-0.08,0.04-0.16,0.07-0.24,0.11c-0.43,0.21-0.79,0.41-1.13,0.6
			c-1.52,0.85-2.82,1.61-6.33,1.4c-2.01-0.11-3.02-1.02-3.51-1.75c-0.58-0.86-0.7-1.84-0.66-2.63c-0.41-0.16-0.92-0.38-1.56-0.67
			c-1.56-0.71-2.19-2.02-2.27-3.24c-0.62-0.33-1.19-0.88-1.53-1.91c-0.15-0.46-0.23-0.67-0.35-0.81c-0.45,0.29-1.08,0.56-2.03,0.39
			c-2.4-0.42-2.98-1.88-3.09-3.96c-0.06-0.98-0.01-1.9,0.04-2.97c0.06-1.13,0.12-2.37,0.06-3.83c-0.07-1.83-0.14-1.89-0.59-2.25
			c-0.13-0.1-0.26-0.21-0.41-0.33c-1.46-1.23-1.51-2.93-1.56-4.57l-0.01-0.4c-0.02-0.57-0.11-0.87-0.26-1.37
			c-0.19-0.63-0.45-1.49-0.61-3.12c-0.14-1.46-0.12-2.68-0.06-3.57c-3.15-0.71-5.29-2.17-6.35-4.35c-2.03-4.17,0.85-9.21,0.98-9.42
			l2.03-3.5l0.72,3.89c0.55,0.06,3.08-0.17,11-5.32c6.35-4.13,12.33-4.9,17.6-5.58l0.83-0.11c0.43-0.06,0.86-0.09,1.28-0.09
			c4.44,0,6.74,3.16,7.47,4.41c1.3,0.64,4.92,2.68,8.13,6.84c3.63,4.7,4.19,10.2,3.56,13.49c-0.43,2.25-0.47,5.46,0.81,7.11
			c0.96,1.24,1.29,2.38,0.99,3.4c-0.06,0.19-0.13,0.36-0.23,0.53c0.8,1.43,2.62,4.27,5.68,7.08c3.25,2.98,4.87,3.36,8.42,4.2
			c1.14,0.27,2.38,0.56,3.86,0.98c5.27,1.47,6.84,2.84,8.23,4.05c0.38,0.33,0.69,0.6,1.06,0.86c0.82,0.56,2.28,0.87,4.32,1.29
			c1.81,0.38,4.06,0.84,6.85,1.68c5.71,1.72,8.27,4.73,10.9,9.33c0.02-0.58,0.02-1.14,0.02-1.69c0-40.17-32.68-72.84-72.84-72.84
			c-34.93,0-64.2,24.72-71.23,57.59c3.1-4.37,8.51-7.83,14.61-7.41c12.37,0.84,15.89,12.69,16.54,15.45
			c0.52,0.42,1.44,1.22,2.51,2.39c1.85,1.74,3.3,3.76,4.25,5.95c2.45,4.79,2.39,9.93-0.21,15.2
			C137.85,121.03,131.38,123.07,128.23,123.64z"/>
		<path class="st16" d="M175,19.87c-42.74,0-77.52,34.77-77.52,77.52c0,42.74,34.77,77.52,77.52,77.52
			c42.74,0,77.52-34.77,77.52-77.52C252.52,54.64,217.74,19.87,175,19.87z M175,171.4c-13.01,0-25.22-3.37-35.84-9.26
			c4.87-2.29,10.48-5.9,13.84-8.48c4.91-3.77,7.51-6.98,9.61-11.82c1.5-3.48,2.18-6.46,2.4-7.58c0.98,0.65,3.62,2.79,5.24,7.83
			c0.85,2.65,1.14,4.66,1.37,6.28c0.34,2.35,0.58,4.05,2.25,5.91l0.38,0.42c2.4,2.67,3.04,3.39,3.86,8.92
			c0.4,2.71,0.63,5.48,0.76,7.69h0C177.58,171.36,176.29,171.4,175,171.4z M248.03,101.89c-3-5.6-5.15-9.14-11.45-11.03
			c-2.75-0.83-4.96-1.29-6.75-1.66c-2.17-0.45-3.73-0.77-4.74-1.47c-0.43-0.3-0.79-0.61-1.17-0.94c-1.3-1.13-2.76-2.4-7.78-3.8
			c-1.49-0.42-2.73-0.71-3.82-0.97c-3.64-0.86-5.47-1.29-8.94-4.48c-3.83-3.51-5.79-7.1-6.29-8.09c0.19-0.14,0.41-0.36,0.51-0.71
			c0.19-0.64-0.08-1.43-0.79-2.35c-1.52-1.96-1.53-5.44-1.03-8.04c0.58-3.05,0.05-8.16-3.34-12.55c-3.43-4.44-7.32-6.33-8.05-6.66
			c-0.35-0.69-2.33-4.14-6.63-4.14c-0.37,0-0.75,0.03-1.13,0.08l-0.83,0.11c-5.15,0.67-10.99,1.42-17.12,5.41
			c-5.55,3.61-9.53,5.51-11.5,5.51c-0.98,0-1.2-0.47-1.27-0.87l-0.16-0.87l-0.44,0.77c-0.11,0.19-2.69,4.71-0.93,8.32
			c1,2.07,3.22,3.38,6.57,3.92c-0.1,0.67-0.27,2.26-0.06,4.4c0.15,1.51,0.38,2.28,0.56,2.9c0.16,0.53,0.28,0.94,0.31,1.67l0.01,0.41
			c0.04,1.51,0.08,2.82,1.14,3.71c0.14,0.11,0.26,0.21,0.37,0.3c0.71,0.56,0.95,0.75,1.04,3.12c0.06,1.51-0.01,2.78-0.06,3.9
			c-0.05,1.05-0.1,1.96-0.05,2.88c0.11,1.94,0.61,2.61,2.13,2.87c0.79,0.14,1.19-0.19,1.47-0.42c0.25-0.2,0.32-0.24,0.55-0.11
			c0.78,0.44,0.96,0.8,1.27,1.73c0.34,1.02,0.93,1.3,1.62,1.5c-0.14,0.87,0.05,2.27,1.56,2.96c1.23,0.56,1.97,0.84,2.36,0.96
			c-0.13,0.58-0.3,1.79,0.34,2.75c0.5,0.75,1.38,1.17,2.61,1.24c3.14,0.18,4.23-0.44,5.67-1.24c0.37-0.2,0.76-0.42,1.21-0.65
			c1.43-0.7,3.24-1.33,4.33-1.69c-0.86,1.13-2.38,3.1-3.01,3.73c-0.38,0.38-1.11,0.91-1.87,1.46c-1.05,0.76-2.14,1.55-2.63,2.17
			c-0.63,0.8-1.09,1.55-1.29,1.89c-0.07,0-0.15,0-0.26,0c-1.33,0-4.93,0.28-9.45,2.9c-5.52,3.19-9.98,9.61-11.17,12.05
			c-0.92,1.89-2.28,5.44-2.58,6.21c-0.81,0.26-4.45,1.6-6.85,5.05c-2.36,3.39-3.14,7.12-3.3,7.98l-2.07,0.88
			c-0.74-0.84-3.9-4.46-5.14-5.93c-1.16-1.38-2.74-5.1-3.12-6.26c1.86-0.14,9.72-1.2,13.82-9.5c2.99-6.06,1.9-10.86,0.19-14.21
			c-1.06-2.42-2.64-4.3-4.04-5.62c-1.3-1.42-2.37-2.26-2.7-2.51c-0.29-1.44-3.24-14.11-15.57-14.94c-0.3-0.02-0.6-0.03-0.9-0.03
			c-7.36,0-13.36,5.86-14.9,11.52c-1.67,6.13,1.47,13.85,5.43,16.79c-0.05,0.61-0.12,2.58,0.57,5.16c0.75,2.79,2.58,6.84,7.06,10.32
			c0.11,1.17,0.85,9.28,0.75,13.59c-0.07,3.05,0.24,7.15,1.73,11.37c-10.64-12.81-17.05-29.26-17.05-47.22
			c0-40.87,33.14-74.01,74.01-74.01c40.87,0,74.01,33.14,74.01,74.01c0,1.94-0.1,3.85-0.24,5.75
			C248.51,102.74,248.26,102.32,248.03,101.89z"/>
		<path d="M175,19.87c-42.74,0-77.52,34.77-77.52,77.52c0,42.74,34.77,77.52,77.52,77.52c42.74,0,77.52-34.77,77.52-77.52
			C252.52,54.64,217.74,19.87,175,19.87z M118.35,144.99c0.76,0.91,1.54,1.8,2.35,2.67C119.89,146.78,119.11,145.89,118.35,144.99z
			 M127.24,153.9c0.88,0.74,1.78,1.46,2.7,2.17C129.02,155.37,128.12,154.65,127.24,153.9z M175,171.4
			c-13.01,0-25.22-3.37-35.84-9.26c4.87-2.29,10.48-5.9,13.84-8.48c4.91-3.77,7.51-6.98,9.61-11.82c1.5-3.48,2.18-6.46,2.4-7.58
			c0.98,0.65,3.62,2.79,5.24,7.83c0.85,2.65,1.14,4.66,1.37,6.28c0.34,2.35,0.58,4.05,2.25,5.91l0.38,0.42
			c2.4,2.67,3.04,3.39,3.86,8.92c0.4,2.71,0.63,5.48,0.76,7.69h0C177.58,171.36,176.29,171.4,175,171.4z M182.57,165.91
			c-2.35-5.35-1.15-7.05,2.95-7.48c0.08-0.01,0.15-0.02,0.22-0.02c1.66,0.18,2.54,1.72,3.27,3.98c0.98,3.03-0.49,3.85-0.49,3.85
			c2.41-0.1,2.77,1.81,3.22,3.22c-1.34,0.31-2.69,0.59-4.06,0.83C185.53,169.37,183.49,167.99,182.57,165.91z M229.18,147.78
			c1.53-1.65,2.98-3.36,4.36-5.14C232.17,144.42,230.71,146.13,229.18,147.78z M233.54,142.64c1.3-4.26,2.67-7.39,3.16-8.47
			c0.33,0.31,0.9,0.83,1.65,1.49C236.89,138.09,235.27,140.41,233.54,142.64z M244.82,114.29c0,0,1.39-0.63,2.68-1.96
			c-1.42,6.94-3.83,13.52-7.05,19.6c-0.2-0.21-0.4-0.42-0.58-0.6c-3.22-3.39-4.92-13.11-10.82-14.53c0,0,6.01-3.17,12.24,2.4
			c0,0-4.97-6.56-12.24-6.06c0,0-0.38-2.84-4.48-3.5c0,0,2.73,0.87,2.62,3.99c0,0-1.91,0.11-2.13-2.02c0,0-1.31,2.19-0.6,3.99
			c0,0-0.87,3.61-7.92,6.99c-7.05,3.39-11.09,3.22-11.09,3.22s6.17,0.6,12.4-2.02c0,0-1.75,4.1-7.98,6.23c0,0-2.73,3.06-6.39,3.99
			c0,0,7.7-1.04,12.29-5.03c4.59-3.99,5.19-7.37,9.61-6.66c2.41,0.39,4.2,3.93,5.34,7.08c1.09,3.02-0.36,6.35-3.29,7.66
			c-2.18,0.98-4.83,1.82-7.35,1.7c0,0,3.77,1.69,6.39,3.88c1.96,1.63,1.14,6.37-2.15,9.89c-0.71,0.64-1.44,1.26-2.18,1.86
			c-0.62,0.43-1.28,0.81-2.01,1.14c0,0,0.22,0.01,0.57,0.02c-7.03,5.53-15.06,9.83-23.81,12.54c-1.45-0.49-2.67-1.29-2.98-2.59
			c-0.9-3.77,3.11-4.02,8.11-5.57c5-1.56,8.93-0.82,8.93-0.82s-2.38-2.46-7.87-2.13c-5.49,0.33-12.21-0.82-13.27-3.11
			c-1.07-2.29-2.05-5.57,1.56-6.15c3.61-0.57,7.54-3.2,7.54-3.2s-8.03,2.87-12.37,0.74c-4.34-2.13-4.42-10.49-4.42-10.49
			c-1.31,4.18,0.41,7.62-0.25,9.42c-0.66,1.8-0.57,1.88,1.31,3.28c1.88,1.39,2.87,3.2,3.44,6.88c0.43,2.74-1.91,3.17-3.14,3.21
			c-2.14-0.92-5.4-3.07-6.78-7.94c-2.13-7.54-4.75-4.59-5.08-9.18c-0.33-4.59,6.23-7.43,6.23-7.43s-7.87,1.69-13.44-2.95
			c-5.57-4.64-4.37-7.37-5.52-8.36c0,0-0.76-3.33-0.38-5.3c0,0-1.2,2.46-0.76,4.48c0,0-1.97-4.7-1.15-7.92c0,0-1.8,3.66,0,7.27
			c0,0-1.2-1.15-4.32-0.16c0,0,4.92-0.66,6.12,4.42c1.2,5.08,1.31,10.76-2.62,14.64c-3.93,3.88-9.34,3.5-9.34,3.5
			s6.61,2.68,11.8-1.26c0,0-0.66,6.28-9.94,12.62c-5.94,4.05-10.28,5.53-12.65,6.07c-0.3-0.19-0.6-0.38-0.9-0.57
			c1.73-1.49,4.77-4.8,4.42-9.49c0,0-1.09,4.59-6.82,7.86c-0.69-0.49-1.37-1-2.05-1.51c-0.94-1.78-2.65-4.38-5.5-6.62
			c-4.86-3.82-6.28-12.89-6.5-17.7c-0.22-4.81,0.11-10.98,0.11-10.98s-0.88-0.42-2.22-1.34c0-0.01,0-0.02,0-0.03
			c1.25,0.78,3.76,2.35,7,2.71c0.68,0.58,2.63,2.47,3.96,6.03c1.64,4.37,8.63,9.61,8.63,9.61s1.9,3.09,2.4,6.8
			c-0.09-2.19-0.37-4.98-1.2-6.75c0,0,2.9,2.95,3.66,5.52c0,0-0.6-3.33-1.26-4.53c0,0-1.91-5.46,0.66-10.22
			c2.57-4.75,8.25-6.56,8.25-6.56s0.44-5.24,5.74-11.47c5.3-6.23,10.71-8.36,15.19-9.45c-1.58,2.46-6.77,5.52-6.77,5.52
			s6.12-2.57,9.61-5.79c3.5-3.22,5.46-6.01,5.46-6.01c0.49,1.97-0.66,3.5-0.66,3.5c4.37-0.71,6.12-4.48,6.12-4.48
			c0.98,2.29,4.97,6.12,4.97,6.12c0.05-2.68-0.98-8.85-2.29-11.64c-1.31-2.79-2.46-6.01-2.51-6.17c-0.05-0.16,0.38,4.37-0.76,5.41
			c-1.15,1.04-4.81,1.86-8.08,2.46c-3.28,0.6-5.3-0.6-7.76-1.15c-2.46-0.55-1.8-2.02-1.8-2.02c0.66-0.49,1.47-0.27,1.47-0.27
			c-0.87-1.09-2.46-1.37-2.46-1.37l0.05-1.09c-1.31-2.08-3-2.73-3-2.73c-0.05-1.26-0.93-2.4-2.02-3.28
			c-1.09-0.87-0.98-3.28-0.98-3.28s2.02,2.08,4.15,1.31c2.13-0.76,1.86-3.44,1.86-3.44c1.15-0.16,0.98-1.31-3.28-2.19
			c-4.26-0.87-6.56-1.31-6.83-2.95c-0.27-1.64,1.37-0.66,1.48-2.68c0.11-2.02-2.24-1.2-2.19-4.42c0.05-3.22,4.7-5.95,4.7-5.95
			c2.73-1.09,6.17,1.37,6.01,4.42c-0.16,3.06-1.91,4.04,1.64,5.41c3.55,1.37,4.86,3.22,5.57,6.66c0.71,3.44,0.11,3.28,1.26,3.77
			c1.15,0.49,2.84-1.8,2.84-1.8s-2.4-4.04,0.98-5.95l0.11-0.22c0,0,0.27-2.19,3.22-1.97c1.44,0.11,2.39,1.04,2.99,1.97
			c0.32,0.71,0.52,1.41,0.56,1.98l0.01,0.21c0.1,1.62,0.18,2.79-0.36,4.98c-0.5,2.03-1.51,3.23-2.64,3.11
			c-0.4-0.04-0.68-0.21-0.88-0.4c-0.04-0.28-0.01-0.54-0.01-0.54c0.88,0,1.47-0.96,1.47-0.96c-0.64,0.63-1.43,0.53-1.43,0.53
			c0.51-0.23,0.49-0.82,0.49-0.82c-0.59,0.57-1.62,0.02-1.88-0.74c-0.27-0.76,0.64-0.8,0.64-0.8s0.43,0.53,1.19,0.23
			c0.76-0.31,0.86-1.21,1.52-0.74c0.66,0.47-0.12,0.94,0.25,1.17c0.37,0.23,0.18,1.11,0.16,1.19c-0.02,0.08,0.86-0.9,0.61-1.93
			c-0.25-1.02,0.29-2.83-0.29-5.2c-0.57-2.38-3.05-1.95-3.05-1.95c0.64,0.53,0.31,1.82,0.31,1.82s-0.72-2.4-1.37-1.37
			c-0.66,1.02,1.13,2.79,1.13,2.79c0.27,0.47-0.31,0.8-0.45,1.66c-0.14,0.86,0.45,0.96,0.61,1.45c0.16,0.49-1.13,0.68-1.15,0.08
			c0-0.04-0.01-0.08-0.01-0.12c-0.11-0.51-0.72-0.74-0.72-0.74c0.23,1.04-0.25,0.64-0.61,1.37c-0.37,0.74,0.25,1.09,1.15,2.72
			c0.16,0.29,0.34,0.53,0.52,0.72c0.21,0.4,0.71,1.11,1.75,1.22c0.07,0.01,0.15,0.01,0.22,0.01c1.39,0,2.57-1.36,3.13-3.62
			c0.14-0.56,0.24-1.07,0.31-1.53c0.86-0.22,5.24-1.18,6.67,2.06c0,0,1.64-1.8,1.42-3.93c0,0,2.46,0.98,2.62,3.28
			c0,0,0.64-0.86,0.99-1.89c1.61,2.75,5.05,7.61,9.06,10.69c3.12,2.39,8.62,3.34,9.83,3.82c-1.31,1.75-5.81,2.04-10.71,3.11
			c-4.97,1.09-7.98,5.41-7.98,5.41s7.28-5.69,14.59-4.1c1.88,0.41,5.24-2.46,9.01-2.21c0,0-5.49,3.28-4.51,8.19
			c0.98,4.92,8.44,8.03,8.44,8.03s-6.31-4.92-5.57-10.41c0.74-5.49,8.52-4.67,12.62-3.2c4.1,1.48,7.13,0.57,11.06,4.02
			c3.93,3.44,7.05,10.08,6.88,12.95C247.77,111.58,244.82,114.29,244.82,114.29z M114.4,99.97c0,0,1.31-2.68,3.33-4.04
			c0,0-3.17,2.19-4.37,3.88c0,0,1.64-3.5,5.46-5.79c0,0-3.88,1.09-7.16,7.59c-1.59,3.15-1.69,6.39-1.37,8.91
			c-1.25-3.61-0.92-6.39-0.92-6.39l-1.13-0.68c-0.04-3.36,2.98-9.15,7.68-11.98c1.75-0.87,4.11-1.75,6.97-2.13
			c4.94-0.65,8.8,0.98,10.37,1.81l0.01,0.06l0.11,0.08c0.02,0.01,1.81,1.31,3.77,3.74c-1.07-0.96-2.78-2-5.44-2.53
			c-1.06-0.21,0.33,2.13,0.33,2.13s3.25,1.29,4.53,3.17c-2.93-2.37-7.2-2.9-10.25-2.79c-5.62,0.21-15.35,7.36-12.51,17.56
			c0.65,2.32,1.81,4.05,3.27,5.33c-2.33-1.63-5.41-5.52-4.53-11.41c0.93-6.17,8.36-11.09,8.36-11.09S115.98,97.68,114.4,99.97z
			 M103.8,90.28c-0.29,1.51-0.35,2.89-0.26,4.16c-0.49-2.06-0.8-5.25,0.71-8.5c2.54-5.45,8.19-8.6,12.05-8.85
			c3.85-0.25,7.54,0.78,9.91,2.87c2.04,1.8,4.2,4.68,4.95,6.89c-0.45-0.39-0.99-1.04-1.55-2.13c-1.48-2.87-4.59-4.67-8.85-5.08
			c-9.42-0.91-14.09,7.21-14.09,7.21c4.02-9.01,14.83-8.03,14.83-8.03C116.42,77.41,105.52,81.18,103.8,90.28z M179.78,68.46
			c0,0,3.03,0.9,1.82,5.08C181.6,73.54,181.75,69.81,179.78,68.46z M248.77,103.14c-0.26-0.4-0.5-0.82-0.73-1.24
			c-3-5.6-5.15-9.14-11.45-11.03c-2.75-0.83-4.96-1.29-6.75-1.66c-2.17-0.45-3.73-0.77-4.74-1.47c-0.43-0.3-0.79-0.61-1.17-0.94
			c-1.3-1.13-2.76-2.4-7.78-3.8c-1.49-0.42-2.73-0.71-3.82-0.97c-3.64-0.86-5.47-1.29-8.94-4.48c-3.83-3.51-5.79-7.1-6.29-8.09
			c0.19-0.14,0.41-0.36,0.51-0.71c0.19-0.64-0.08-1.43-0.79-2.35c-1.52-1.96-1.53-5.44-1.03-8.04c0.58-3.05,0.05-8.16-3.34-12.55
			c-3.43-4.44-7.32-6.33-8.05-6.66c-0.35-0.69-2.33-4.14-6.63-4.14c-0.37,0-0.75,0.03-1.13,0.08l-0.83,0.11
			c-5.15,0.67-10.99,1.42-17.12,5.41c-5.55,3.61-9.53,5.51-11.5,5.51c-0.98,0-1.2-0.47-1.27-0.87l-0.16-0.87l-0.44,0.77
			c-0.11,0.19-2.69,4.71-0.93,8.32c1,2.07,3.22,3.38,6.57,3.92c-0.1,0.67-0.27,2.26-0.06,4.4c0.15,1.51,0.38,2.28,0.56,2.9
			c0.16,0.53,0.28,0.94,0.31,1.67l0.01,0.41c0.04,1.51,0.08,2.82,1.14,3.71c0.14,0.11,0.26,0.21,0.37,0.3
			c0.71,0.56,0.95,0.75,1.04,3.12c0.06,1.51-0.01,2.78-0.06,3.9c-0.05,1.05-0.1,1.96-0.05,2.88c0.11,1.94,0.61,2.61,2.13,2.87
			c0.79,0.14,1.19-0.19,1.47-0.42c0.25-0.2,0.32-0.24,0.55-0.11c0.78,0.44,0.96,0.8,1.27,1.73c0.34,1.02,0.93,1.3,1.62,1.5
			c-0.14,0.87,0.05,2.27,1.56,2.96c1.23,0.56,1.97,0.84,2.36,0.96c-0.13,0.58-0.3,1.79,0.34,2.75c0.5,0.75,1.38,1.17,2.61,1.24
			c3.14,0.18,4.23-0.44,5.67-1.24c0.37-0.2,0.76-0.42,1.21-0.65c1.43-0.7,3.24-1.33,4.33-1.69c-0.86,1.13-2.38,3.1-3.01,3.73
			c-0.38,0.38-1.11,0.91-1.87,1.46c-1.05,0.76-2.14,1.55-2.63,2.17c-0.63,0.8-1.09,1.55-1.29,1.89c-0.07,0-0.15,0-0.26,0
			c-1.33,0-4.93,0.28-9.45,2.9c-5.52,3.19-9.98,9.61-11.17,12.05c-0.92,1.89-2.28,5.44-2.58,6.21c-0.81,0.26-4.45,1.6-6.85,5.05
			c-2.36,3.39-3.14,7.12-3.3,7.98l-2.07,0.88c-0.74-0.84-3.9-4.46-5.14-5.93c-1.16-1.38-2.74-5.1-3.12-6.26
			c1.86-0.14,9.72-1.2,13.82-9.5c2.99-6.06,1.9-10.86,0.19-14.21c-1.06-2.42-2.64-4.3-4.04-5.62c-1.3-1.42-2.37-2.26-2.7-2.51
			c-0.29-1.44-3.24-14.11-15.57-14.94c-0.3-0.02-0.6-0.03-0.9-0.03c-7.36,0-13.36,5.86-14.9,11.52c-1.67,6.13,1.47,13.85,5.43,16.79
			c-0.05,0.61-0.12,2.58,0.57,5.16c0.75,2.79,2.58,6.84,7.06,10.32c0.11,1.17,0.85,9.28,0.75,13.59c-0.07,3.05,0.24,7.15,1.73,11.37
			c-10.64-12.81-17.05-29.26-17.05-47.22c0-40.87,33.14-74.01,74.01-74.01c40.87,0,74.01,33.14,74.01,74.01
			C249.01,99.32,248.91,101.24,248.77,103.14z M197.28,133.7c-16.5,0.8-14.22-11.17-14.22-11.17s-0.55,3.5,4.1,7.59
			C190.98,133.5,195.72,133.73,197.28,133.7z M162.72,79.38c0,0,1.64-0.16,6.1,2.99c4.47,3.15,4.96,7.5,4.96,7.5
			s0.82-3.81-2.29-7.54C168.37,78.6,162.72,79.38,162.72,79.38z M183.94,119.04c1.72-0.58,2.95,0.08,2.95,0.08s-2.29-1.39-1.8-3.28
			c0.49-1.88,1.15-5.24,1.47-7.13c0.33-1.88-0.08-3.03-0.08-3.03c-0.25,3.11-2.13,9.42-4.1,10.65c-1.97,1.23-6.47,1.07-6.47,1.07
			s4.59,0.33,5.57,1.39c0.98,1.07-0.47,4.45,1.02,7.71C182.5,126.5,181.41,119.89,183.94,119.04z"/>
	</g>
</g>
</svg>
