<?xml version="1.0" encoding="utf-8"?>
<!-- Generator: Adobe Illustrator 27.8.1, SVG Export Plug-In . SVG Version: 6.00 Build 0)  -->
<svg version="1.1" xmlns="http://www.w3.org/2000/svg" xmlns:xlink="http://www.w3.org/1999/xlink" x="0px" y="0px"
	 viewBox="0 0 350 230" style="enable-background:new 0 0 350 230;" xml:space="preserve">
<style type="text/css">
	.st0{fill:#FF9D00;}
	.st1{fill:url(#SVGID_1_);}
	.st2{opacity:0.22;fill:url(#SVGID_00000118387043772105397950000005444939271301940109_);}
	.st3{fill:#FFC200;}
	.st4{fill:#778718;}
	.st5{fill:#E0B017;}
	.st6{fill:#664407;}
	.st7{fill:#9E690A;}
	.st8{fill:#7F1105;}
	.st9{fill:#191933;}
	.st10{fill:#FCEBD4;}
	.st11{fill:#E3DFD6;}
	.st12{fill:#FFB000;}
	.st13{fill:#AA210E;}
	.st14{fill:#FFF0A6;}
	.st15{fill:#FFDA00;}
	.st16{fill:#F4F4F4;}
	.st17{fill:#DC5C28;}
	.st18{fill:#FF8440;}
	.st19{fill:#C45224;}
	.st20{fill:#2C4369;}
	.st21{fill:#2A72DB;}
	.st22{fill:#C65500;}
	.st23{fill:#C15746;}
	.st24{fill:#FF8C00;}
	.st25{fill:#FFEA2C;}
	.st26{fill:#F7FF57;}
	.st27{fill:#FFFFFF;}
	.st28{fill:#D64949;}
	.st29{fill:#353535;}
	.st30{fill:#FFC783;}
	.st31{fill:#3F7F91;}
	.st32{fill:#25BDE5;}
	.st33{fill:#8CDD00;}
	.st34{fill:#D1FF88;}
	.st35{fill:#333333;}
	.st36{fill:#FF9000;}
	.st37{fill:#A1A813;}
	.st38{fill:#B3C40E;}
	.st39{fill:#CACE72;}
	.st40{fill:url(#SVGID_00000142874031641822339030000016562316211527239303_);}
	.st41{fill:#93E800;}
	.st42{fill:#3CB7D3;}
	.st43{fill:#FF7631;}
	.st44{fill:#E6873C;}
	.st45{fill:#30657F;}
	.st46{fill:#FF7A40;}
	.st47{fill:#FFAD4A;}
	.st48{fill:#BC8E3B;}
	.st49{fill:#E2E2E2;}
	.st50{fill:#F2B844;}
	.st51{fill:#AF3838;}
	.st52{fill:#17B5C1;}
	.st53{fill:#A88643;}
	.st54{fill-rule:evenodd;clip-rule:evenodd;fill:#DD7928;}
	.st55{fill:#E6E7E8;stroke:#CFCFCF;stroke-width:0.1061;}
	.st56{fill-rule:evenodd;clip-rule:evenodd;fill:#204F7A;}
	.st57{fill-rule:evenodd;clip-rule:evenodd;fill:#50A4FF;}
	.st58{fill:#002649;}
	.st59{fill:#00134F;}
	.st60{fill:#665200;}
	.st61{fill:#001E7C;}
	.st62{fill:#002349;}
	.st63{fill:#FF914D;}
	.st64{fill:#AC1929;}
	.st65{fill:#004AAD;}
	.st66{fill:#BE1C2D;}
	.st67{fill:#242424;}
	.st68{fill:#F1A75A;}
	.st69{fill-rule:evenodd;clip-rule:evenodd;}
	.st70{fill-rule:evenodd;clip-rule:evenodd;fill:#007177;}
	.st71{fill-rule:evenodd;clip-rule:evenodd;fill:#242424;}
	.st72{fill:#F9951C;}
	.st73{fill:#84123B;}
	.st74{fill:#FFB908;}
	.st75{fill:#393536;}
	.st76{fill:#093F00;}
	.st77{fill:#333300;}
	.st78{fill:#C8D7FF;}
	.st79{fill:#426BD1;}
	.st80{fill:#0036D2;}
</style>
<g id="Layer_1">
</g>
<g id="Layer_12">
</g>
<g id="Layer_13">
</g>
<g id="Layer_14">
</g>
<g id="Layer_15">
</g>
<g id="Layer_11">
</g>
<g id="Layer_8">
</g>
<g id="Layer_10">
</g>
<g id="Layer_9">
</g>
<g id="Layer_2">
</g>
<g id="Layer_3">
</g>
<g id="Layer_4">
</g>
<g id="Layer_5">
</g>
<g id="Layer_6">
</g>
<g id="Layer_7">
	<g>
		<path class="st66" d="M262.36,40.26c-4.64-8.37-11.88-14.83-21.51-19.2c-8.85-4.01-19.28-6.04-31-6.04h-0.83
			c19.1,1.11,34.5,8.43,41.91,21.79c11.05,19.94,1.24,47.88-22.3,71.31c-0.41,0.41-0.81,0.8-1.23,1.21
			c-8.66,8.4-19.1,16.19-30.98,22.77c-2.67,1.48-5.35,2.87-8.04,4.15c-1.35,0.64-2.69,1.27-4.03,1.87c-1.35,0.6-2.69,1.18-4.04,1.73
			c-2.02,0.83-4.03,1.61-6.04,2.33c-20.71,7.46-40.94,9.39-57.16,5.91c-0.23-0.04-0.46-0.09-0.69-0.15
			c-1.06-0.24-2.11-0.5-3.13-0.78c-1.7-0.48-3.35-1.01-4.94-1.61c-1.59-0.6-3.13-1.27-4.6-2c-0.98-0.48-1.94-1-2.87-1.54
			c-0.93-0.54-1.83-1.11-2.7-1.72c-1.74-1.2-3.36-2.51-4.86-3.94c-2.61-2.5-4.83-5.34-6.59-8.52c-1.24-2.24-2.22-4.57-2.94-6.98
			c0.67,5.57,2.35,10.79,5.02,15.61c4.63,8.37,11.86,14.83,21.5,19.19c8.85,4.02,19.28,6.05,30.99,6.05
			c20.62,0,43.65-6.46,64.84-18.21c22.63-12.54,41-29.78,51.74-48.55c5.41-9.45,8.63-18.85,9.57-27.92
			C268.45,57.17,266.74,48.16,262.36,40.26z"/>
		<path class="st69" d="M250.93,36.8c-7.41-13.36-22.81-20.68-41.91-21.79h-0.01c-4.77,0.04-9.67,0.43-14.64,1.14
			c22.57-1.35,41.35,5.52,49.57,20.37c14.28,25.75-8.59,65.7-51.05,89.23c-19.68,10.91-40.13,16.37-57.81,16.53
			c-0.1-0.62-0.2-1.16-0.2-1.48c0-0.99,1.16-5.33,1.24-6.91c0.09-1.57,0.7-2.07,1.45-2.98c0.75-0.91,2.73-2.82,2.73-3.11
			s-0.62-0.08-1.49-0.37c-0.87-0.29-1.86-1.32-1.86-1.32c1.57-7.61,9.8-23.32,11.42-24.4c1.61-1.07,2.07-3.05,4.18-4.63
			c2.11-1.57,4.76-4.63,7.44-7.93c2.69-3.32,9-13.88,9-13.88s7.9,1.99,13.57,1.74c5.67-0.25,8.98,0.38,8.98,0.38
			c-3.15,2.15-5.88,8.44-7.32,11.95c-1.45,3.51-4.02,7.09-4.14,7.27c-0.12,0.19-0.31-0.18-0.8,0c-0.5,0.19-0.67,2.15-1.29,2.44
			c-0.62,0.29-1.3,0.33-1.87,0.62s-2.03,0.89-2.55,0.93c-0.51,0.04-1.59-0.18-1.87,0.19c-0.3,0.38-0.13,2.11,0.41,3.31
			c0.54,1.2,2.86,5.58,4.02,8.64c1.16,3.06,3.6,6.99,4.76,7.41c1.16,0.41,1.78,0,2.23-1.03c0.46-1.04-0.58-4.06-0.66-5.83
			c-0.09-1.78,0.77-5.96,0.8-6.62c0.04-0.67,1.04-1.08,1.86-1.66c0.83-0.58,1.66-1.74,2.56-2.24c0.91-0.49,1.41-0.87,0.83-1.11
			c-0.58-0.25-1.41-1.53-1.95-1.61c-0.54-0.09-2.64,2.15-2.64,2.15s0.83-2.11,1.61-3.32c0.79-1.19,7.45-8.38,8.56-9.36
			c1.11-1,2.93-3.11,3.72-4.31c0.79-1.19,3.11-4.09,4.34-6.25c1.25-2.15,1.93-3.51,1.14-5.78c-0.78-2.28-5.73-5.69-13.71-8.25
			c-7.98-2.57-11.42-3.62-11.82-4.14c-0.42-0.51-0.09-3.51,0.29-4.19c0.37-0.69,1.72-3.93,1.72-3.93s0.29,0.04,0.35-0.17
			c0.07-0.21,0.41-0.72,0.41-0.72c0.46,3.02,2.19,5.83,3.11,6.37c0.9,0.54,1.53-0.17,4.59-1.37c3.06-1.2,8.3-4.18,9.12-4.69
			c0.83-0.52,5.5-3.26,5.97-3.33c0.48-0.07,1.18-0.72,1.18-0.72l0.77,1.3l-1.07,0.68l1.73,3.33l4.82-2.84l-1.74-3.02l-0.97,0.25
			l-0.71-1.28c0,0,0.17-0.04,0.38-0.35c0.2-0.31,0.29-0.85,0.25-1.26c-0.04-0.42-0.51-0.58-0.51-0.58s0.25-0.48,0.12-0.89
			c-0.12-0.41-0.8-0.56-0.8-0.56s0.25-0.56,0-0.93c-0.25-0.37-0.96-0.47-0.96-0.47c0.14-0.15,0.14-0.67-0.25-1.08
			c-0.4-0.41-1.16-0.07-1.16-0.07s-0.39-0.62-0.56-0.78c-0.17-0.17-0.58,0.09-0.58,0.09l-0.09-0.3l1.45-1.14l-1.84-3.1l-4.68,2.83
			l1.7,3.21l1.14-0.68l0.25,0.41c0,0-0.35,0.31-0.77,0.62c-0.41,0.31-0.54,0.81-0.39,1.61c0.14,0.81,0.19,2.34-0.35,2.65
			c-0.54,0.31-5.38,2.85-8.77,3.8c-3.39,0.96-4.63,0.96-4.63,0.96l-0.59-7.2c0,0,1.28-1.29,1.45-3.44c0.17-2.14-1.74-4.19-1.74-4.19
			s-0.25-3.97-0.57-5.42c-0.33-1.45-2.86-2.75-3.48-2.98c-0.62-0.22-0.64-0.33-1.14-0.85c-0.49-0.52-1.36-1.14-1.36-1.14
			c-0.13-2.73,1.53-5.19,2.54-5.18c1.01,0.02,1.84,1.04,2.98,1.01c1.14-0.01,2.01-0.3,1.94-1.05c-0.07-0.75-0.08-1.59-0.08-1.93
			c0-0.33,0.06-0.31,0.18-0.66c0.13-0.35-0.35-0.5-0.35-0.5l0.08-0.38c0.75-0.18,0.5-0.74,0.5-0.9c0-0.17,0.04-0.46,0.48-0.64
			c0.43-0.18,0.84-0.3,0.95-0.72c0.1-0.41-0.91-1.55-1.59-2.19c-0.69-0.64-0.52-1.06-0.41-1.45c0.1-0.39,0.12-1.2,0.17-2.63
			c0.04-1.43-0.98-2.54-0.98-2.54c-2.56-3.63-6.16-3.97-8.56-3.81c-2.4,0.14-4.71,1.74-4.71,1.74s-0.27-0.6-0.72-0.62
			c-0.46-0.01-0.72,0.31-0.72,0.31s-0.29-0.78-1.66-0.49c-1.37,0.28-3.24,4.5-4.16,6.7c-0.9,2.19-4.01,6.04-8.06,9.22
			c-4.05,3.19-11.71,2.36-11.71,2.36c1.78,1.78,6.37,1.61,6.37,1.61c-0.95,0.25-3.11,0.49-3.11,0.49c3.19,0.7,10.76-1.2,10.76-1.2
			c-1.9,2.03-6.91,3.44-6.91,3.44c1.49,0.32,4.41-0.2,4.69-0.25c-0.92,0.54-2.79,1.03-2.79,1.03c2.61,0.04,7.3-1.74,7.59-1.85
			c-2.11,1.53-4.83,2.81-4.83,2.81c1.98-0.38,6.29-3.11,6.29-3.11c-0.54,0.79-1.22,1.7-5.44,3.85c-4.22,2.15-11.38,6.2-12.95,7.53
			c-1.57,1.32-13.01,16.14-13.32,16.79c-0.3,0.64-0.46,1.11-0.51,1.26c-0.07,0.14-0.37,0.1-0.56-0.22
			c-0.19-0.33-1.96-2.01-2.46-2.15c-0.5-0.15-1.69,0.37-2.63,1.19c-0.93,0.83-1.05,2.19-1.04,2.53c0.02,0.33,0.85,1.26,1.76,1.98
			c0.91,0.72,1.51,0.39,1.59,1.01c0.09,0.62,0.42,0.5,0.6,0.87c0.19,0.37,0.14,0.58,0.41,0.75c0.27,0.17,0.35,0.68,0.7,1.16
			c0.35,0.47,1.47,0.79,1.8,1.28c0.33,0.5,2.04,2.9,2.93,3.68c0.89,0.79,2.34,0.81,3.56-0.22c1.22-1.04,1.47-2.73,1.28-3.04
			c-0.19-0.31-1.64-2.29-2.08-2.58c-0.46-0.29-0.38-0.41-0.59-1.16c-0.2-0.75-0.62-1.74-0.62-3.39c0-1.66,2.07-3.81,3.23-5.55
			c1.16-1.74,5.96-5.67,8.56-8.52c2.61-2.85,4.67-3.02,6.33-3.55c1.66-0.54,8.11-2.77,9.14-3.27c1.03-0.49,1.65-0.7,1.9-0.25
			c0.24,0.46,1.98,6.16,1.53,12.28c-0.46,6.12-2.67,8.83-4.2,10.86c-1.53,2.02-2.4,1.65-5.46,3.76c-3.06,2.11-3.31,7.52-3.31,10.53
			c0,3-0.93,6.51-3.62,11.99c-2.69,5.48-7.12,11.13-10.22,14.98c-3.1,3.84-4.26,7.24-5.39,13.13c-1.14,5.89-1.96,11.91-2.17,12.15
			c-0.21,0.25-0.9,0.04-0.9,0.5s-0.38,1.94-1.12,2.27c-0.75,0.33-0.91,0.54-2.19,1.16c-1.28,0.62-2.77,0.41-3.14,1.98
			c-0.37,1.57,1.45,4.51,1.98,5.54c0.54,1.03,0.59,4.26,1.41,6.07c0.14,0.33,0.37,0.68,0.64,1.04
			c-17.44-1.22-31.47-8.05-38.29-20.33c-4.23-7.64-5.2-16.54-3.34-25.89c-1.61,4.67-2.64,9.29-3.11,13.83
			c-0.4,3.84-0.38,7.57,0.06,11.15c0.72,2.41,1.7,4.74,2.94,6.98c1.77,3.19,3.98,6.02,6.59,8.52c1.49,1.43,3.12,2.74,4.86,3.94
			c0.87,0.6,1.77,1.17,2.7,1.72c0.93,0.54,1.88,1.06,2.87,1.54c1.48,0.73,3.01,1.4,4.6,2c1.59,0.6,3.24,1.14,4.94,1.61
			c1.02,0.28,2.07,0.54,3.13,0.78c0.23,0.06,0.46,0.11,0.69,0.15c16.22,3.47,36.45,1.55,57.16-5.91c2.01-0.72,4.02-1.51,6.04-2.33
			c1.35-0.55,2.69-1.13,4.04-1.73c1.34-0.6,2.69-1.22,4.03-1.87c2.69-1.29,5.36-2.68,8.04-4.15c11.88-6.58,22.32-14.37,30.98-22.77
			c0.41-0.4,0.83-0.8,1.23-1.21C252.17,84.68,261.98,56.75,250.93,36.8z M169.37,16.37c0.33,1.36,0.45,3.6,0.45,3.6
			c0.33-2.82-0.41-6.2-0.66-7.24c-0.25-1.04,0-5.11,0-5.6c0-0.5,0.7-1.45,0.7-1.45c0.07,0.47,0.9,0.49,0.9,0.49
			c-1.11,0.89-0.9,3.04-0.9,4.45c0,1.4,0.9,2.19,1.04,2.56c0.12,0.37,0.87,2.06,1.16,3.06c0.29,0.99,0.37,2.77-0.21,3.72
			c-0.58,0.95-1.03,1.32-1.53,1.45c-0.5,0.12-1.74,1.07-1.74,1.07C169.11,21.29,169.37,16.37,169.37,16.37z"/>
	</g>
</g>
</svg>
