<?xml version="1.0" encoding="utf-8"?>
<!-- Generator: Adobe Illustrator 27.8.1, SVG Export Plug-In . SVG Version: 6.00 Build 0)  -->
<svg version="1.1" xmlns="http://www.w3.org/2000/svg" xmlns:xlink="http://www.w3.org/1999/xlink" x="0px" y="0px"
	 viewBox="0 0 350 230" style="enable-background:new 0 0 350 230;" xml:space="preserve">
<style type="text/css">
	.st0{fill:#FF9D00;}
	.st1{fill:url(#SVGID_1_);}
	.st2{opacity:0.22;fill:url(#SVGID_00000181072452283964341310000017470984778056187834_);}
	.st3{fill:#FFC200;}
	.st4{fill:#778718;}
	.st5{fill:#E0B017;}
	.st6{fill:#664407;}
	.st7{fill:#9E690A;}
	.st8{fill:#7F1105;}
	.st9{fill:#191933;}
	.st10{fill:#FCEBD4;}
	.st11{fill:#E3DFD6;}
	.st12{fill:#FFB000;}
	.st13{fill:#AA210E;}
	.st14{fill:#FFF0A6;}
	.st15{fill:#FFDA00;}
	.st16{fill:#F4F4F4;}
	.st17{fill:#DC5C28;}
	.st18{fill:#FF8440;}
	.st19{fill:#C45224;}
	.st20{fill:#2C4369;}
	.st21{fill:#2A72DB;}
	.st22{fill:#C65500;}
	.st23{fill:#C15746;}
	.st24{fill:#FF8C00;}
	.st25{fill:#FFEA2C;}
	.st26{fill:#F7FF57;}
	.st27{fill:#FFFFFF;}
	.st28{fill:#D64949;}
	.st29{fill:#353535;}
	.st30{fill:#FFC783;}
	.st31{fill:#3F7F91;}
	.st32{fill:#25BDE5;}
	.st33{fill:#8CDD00;}
	.st34{fill:#D1FF88;}
	.st35{fill:#333333;}
	.st36{fill:#FF9000;}
	.st37{fill:#A1A813;}
	.st38{fill:#B3C40E;}
	.st39{fill:#CACE72;}
	.st40{fill:url(#SVGID_00000002380561915208143790000006755435012213897878_);}
	.st41{fill:#93E800;}
	.st42{fill:#3CB7D3;}
	.st43{fill:#FF7631;}
	.st44{fill:#E6873C;}
	.st45{fill:#30657F;}
	.st46{fill:#FF7A40;}
	.st47{fill:#FFAD4A;}
	.st48{fill:#BC8E3B;}
	.st49{fill:#E2E2E2;}
	.st50{fill:#F2B844;}
	.st51{fill:#AF3838;}
	.st52{fill:#17B5C1;}
	.st53{fill:#A88643;}
	.st54{fill-rule:evenodd;clip-rule:evenodd;fill:#DD7928;}
	.st55{fill:#E6E7E8;stroke:#CFCFCF;stroke-width:0.1061;}
	.st56{fill-rule:evenodd;clip-rule:evenodd;fill:#204F7A;}
	.st57{fill-rule:evenodd;clip-rule:evenodd;fill:#50A4FF;}
	.st58{fill:#002649;}
	.st59{fill:#00134F;}
	.st60{fill:#665200;}
	.st61{fill:#001E7C;}
	.st62{fill:#002349;}
	.st63{fill:#FF914D;}
	.st64{fill:#AC1929;}
	.st65{fill:#004AAD;}
	.st66{fill:#BE1C2D;}
	.st67{fill:#242424;}
	.st68{fill:#F1A75A;}
	.st69{fill-rule:evenodd;clip-rule:evenodd;}
	.st70{fill-rule:evenodd;clip-rule:evenodd;fill:#007177;}
	.st71{fill-rule:evenodd;clip-rule:evenodd;fill:#242424;}
	.st72{fill:#F9951C;}
	.st73{fill:#84123B;}
	.st74{fill:#FFB908;}
	.st75{fill:#393536;}
	.st76{fill:#093F00;}
	.st77{fill:#333300;}
	.st78{fill:#C8D7FF;}
	.st79{fill:#426BD1;}
	.st80{fill:#0036D2;}
</style>
<g id="Layer_1">
</g>
<g id="Layer_12">
</g>
<g id="Layer_13">
</g>
<g id="Layer_14">
</g>
<g id="Layer_15">
</g>
<g id="Layer_11">
</g>
<g id="Layer_8">
</g>
<g id="Layer_10">
</g>
<g id="Layer_9">
</g>
<g id="Layer_2">
</g>
<g id="Layer_3">
</g>
<g id="Layer_4">
</g>
<g id="Layer_5">
</g>
<g id="Layer_6">
</g>
<g id="Layer_7">
	<path class="st68" d="M259.11,138.78l-9.05-2.58c-3.11-0.89-4.9-4.12-4.02-7.23l24.92-87.33c0.89-3.1,4.12-4.9,7.23-4.01l9.06,2.58
		c3.1,0.89,4.9,4.12,4.01,7.23l-24.92,87.33C265.45,137.86,262.22,139.67,259.11,138.78z M280.41,131.67l-4.96-1.41
		c-2.85-0.82-4.5-3.79-3.68-6.64l18.22-63.85c0.81-2.85,3.78-4.5,6.64-3.69l4.95,1.41c2.85,0.81,4.5,3.79,3.69,6.64l-18.22,63.85
		C286.23,130.84,283.27,132.49,280.41,131.67z M296.61,119.96c-2.85-0.81-4.5-3.78-3.69-6.64l9.61-33.65
		c0.81-2.85,3.78-4.5,6.64-3.69c2.85,0.81,4.5,3.79,3.69,6.64l-9.6,33.65C302.43,119.13,299.46,120.78,296.61,119.96z M90.89,138.78
		l9.05-2.58c3.11-0.89,4.9-4.12,4.01-7.23L79.04,41.64c-0.88-3.1-4.12-4.9-7.22-4.01l-9.06,2.58c-3.11,0.89-4.9,4.12-4.02,7.23
		l24.93,87.33C84.55,137.86,87.78,139.67,90.89,138.78z M69.58,131.67l4.95-1.41c2.85-0.82,4.5-3.79,3.69-6.64L60,59.77
		c-0.81-2.85-3.79-4.5-6.64-3.69l-4.96,1.41c-2.85,0.81-4.5,3.79-3.69,6.64l18.23,63.85C63.76,130.84,66.73,132.49,69.58,131.67z
		 M53.38,119.96c2.85-0.81,4.5-3.78,3.69-6.64l-9.6-33.64c-0.81-2.85-3.78-4.5-6.64-3.69c-2.85,0.81-4.5,3.78-3.68,6.63l9.6,33.65
		C47.56,119.13,50.53,120.78,53.38,119.96z M85.46,78.34c14.52-3.48,28.97-6.15,43.32-8c-5.62,1.93-9.68,7.29-9.68,13.57v1.47
		c-9.68,1.52-19.39,3.45-29.19,5.74L85.46,78.34z M270.54,78.34l-4.44,12.78c-13.46-3.15-26.82-5.61-40.11-7.32
		c0.16-0.44,0.27-0.87,0.38-1.33c0.14-0.6,0.19-1.17,0.25-1.82c0.05-0.27,0.08-0.55,0.08-0.82v-9.55
		C241.23,72.11,255.83,74.8,270.54,78.34z M190.51,107.02c-7.12,2.34-13.61,6.45-18.89,11.77c-2.53-18.03-15.56-24.07-23.03-26.07
		c-2.5-0.88-4.43-0.97-5.05-0.97c-0.14,0-0.21,0-0.21,0l6-0.54c4.28-0.68,7.14-2.74,9.04-5.25c0.36-0.46,0.67-0.94,0.96-1.43
		c0.36-0.61,0.67-1.22,0.94-1.83c0.01-0.02,0.01-0.03,0.02-0.04c0.02-0.04,0.03-0.07,0.04-0.1c0.89-2.07,1.36-4.15,1.6-5.87
		c0.32-2.26,0.24-3.86,0.24-3.86h-28.69c-6.13,0-11.1,4.97-11.1,11.1v16.44c0.22,5.01,1.36,15.87,8.43,27.16
		c6.28,10.04,12.59,15.38,17.07,18.17c0.34,0.21,0.67,0.41,0.98,0.59c0.34,0.19,0.67,0.37,0.98,0.54c0.07,0.04,0.14,0.08,0.21,0.11
		c0,0,0.02-0.01,0.02-0.01v2.18l-0.15-0.07c0.18,6.13,0.18,12.68,0.16,16.47h60.05v-24.87c5.24-3.66,13.11-11.16,13.11-23.25
		c0-0.01-0.07-3.98-0.15-9.22C212.8,104.03,201.05,103.56,190.51,107.02z M214.87,49.22c-4.72,0-8.55,3.83-8.55,8.55v22.08
		c0,4.72,3.83,8.55,8.55,8.55c3.48,0,6.46-2.09,7.8-5.07c0.23-0.5,0.4-1.03,0.53-1.58c0.09-0.41,0.13-0.85,0.16-1.29
		c0.02-0.21,0.06-0.4,0.06-0.61V57.77C223.42,53.05,219.6,49.22,214.87,49.22z M193.54,95.24c5.73,0,10.38-4.65,10.38-10.37V51.23
		c0-5.73-4.65-10.38-10.38-10.38s-10.37,4.65-10.37,10.38v33.64C183.17,90.6,187.81,95.24,193.54,95.24z M160.33,62.67v8.23H164
		l0.09,1.83c0.06,1.09,0.02,2.37-0.15,3.74c-0.38,3.2-1.45,6.93-3.65,10.07v2.4c0,5.73,4.65,10.38,10.38,10.38
		c5.73,0,10.37-4.65,10.37-10.38V46.67c0-5.73-4.65-10.38-10.37-10.38c-5.73,0-10.38,4.65-10.38,10.38v2.94
		c0.02,0.26,0.04,0.52,0.04,0.78V62.67z M145.5,70.9h12.91V50.38c0-0.13-0.03-0.26-0.04-0.39c-0.21-5.54-4.74-9.98-10.33-9.98
		c-5.73,0-10.38,4.64-10.38,10.37V70.9H145.5z"/>
</g>
</svg>
