<?xml version="1.0" encoding="utf-8"?>
<!-- Generator: Adobe Illustrator 27.8.1, SVG Export Plug-In . SVG Version: 6.00 Build 0)  -->
<svg version="1.1" xmlns="http://www.w3.org/2000/svg" xmlns:xlink="http://www.w3.org/1999/xlink" x="0px" y="0px"
	 viewBox="0 0 350 230" style="enable-background:new 0 0 350 230;" xml:space="preserve">
<style type="text/css">
	.st0{fill:#FF9D00;}
	.st1{fill:url(#SVGID_1_);}
	.st2{opacity:0.22;fill:url(#SVGID_00000114059513183930320450000004355199234747843755_);}
	.st3{fill:#FFC200;}
	.st4{fill:#778718;}
	.st5{fill:#E0B017;}
	.st6{fill:#664407;}
	.st7{fill:#9E690A;}
	.st8{fill:#7F1105;}
	.st9{fill:#191933;}
	.st10{fill:#FCEBD4;}
	.st11{fill:#E3DFD6;}
	.st12{fill:#FFB000;}
	.st13{fill:#AA210E;}
	.st14{fill:#FFF0A6;}
	.st15{fill:#FFDA00;}
	.st16{fill:#F4F4F4;}
	.st17{fill:#DC5C28;}
	.st18{fill:#FF8440;}
	.st19{fill:#C45224;}
	.st20{fill:#2C4369;}
	.st21{fill:#2A72DB;}
	.st22{fill:#C65500;}
	.st23{fill:#C15746;}
	.st24{fill:#FF8C00;}
	.st25{fill:#FFEA2C;}
	.st26{fill:#F7FF57;}
	.st27{fill:#FFFFFF;}
	.st28{fill:#D64949;}
	.st29{fill:#353535;}
	.st30{fill:#FFC783;}
	.st31{fill:#3F7F91;}
	.st32{fill:#25BDE5;}
	.st33{fill:#8CDD00;}
	.st34{fill:#D1FF88;}
	.st35{fill:#333333;}
	.st36{fill:#FF9000;}
	.st37{fill:#A1A813;}
	.st38{fill:#B3C40E;}
	.st39{fill:#CACE72;}
	.st40{fill:url(#SVGID_00000098929386953302792090000006092625034706361778_);}
	.st41{fill:#93E800;}
	.st42{fill:#3CB7D3;}
	.st43{fill:#FF7631;}
	.st44{fill:#E6873C;}
	.st45{fill:#30657F;}
	.st46{fill:#FF7A40;}
	.st47{fill:#FFAD4A;}
	.st48{fill:#BC8E3B;}
	.st49{fill:#E2E2E2;}
	.st50{fill:#F2B844;}
	.st51{fill:#AF3838;}
	.st52{fill:#17B5C1;}
	.st53{fill:#A88643;}
	.st54{fill-rule:evenodd;clip-rule:evenodd;fill:#DD7928;}
	.st55{fill:#E6E7E8;stroke:#CFCFCF;stroke-width:0.1061;}
	.st56{fill-rule:evenodd;clip-rule:evenodd;fill:#204F7A;}
	.st57{fill-rule:evenodd;clip-rule:evenodd;fill:#50A4FF;}
	.st58{fill:#002649;}
	.st59{fill:#00134F;}
	.st60{fill:#665200;}
	.st61{fill:#001E7C;}
	.st62{fill:#002349;}
	.st63{fill:#FF914D;}
	.st64{fill:#AC1929;}
	.st65{fill:#004AAD;}
	.st66{fill:#BE1C2D;}
	.st67{fill:#242424;}
	.st68{fill:#F1A75A;}
	.st69{fill-rule:evenodd;clip-rule:evenodd;}
	.st70{fill-rule:evenodd;clip-rule:evenodd;fill:#007177;}
	.st71{fill-rule:evenodd;clip-rule:evenodd;fill:#242424;}
	.st72{fill:#F9951C;}
	.st73{fill:#84123B;}
	.st74{fill:#FFB908;}
	.st75{fill:#393536;}
	.st76{fill:#093F00;}
	.st77{fill:#333300;}
	.st78{fill:#C8D7FF;}
	.st79{fill:#426BD1;}
	.st80{fill:#0036D2;}
</style>
<g id="Layer_1">
</g>
<g id="Layer_12">
</g>
<g id="Layer_13">
</g>
<g id="Layer_14">
</g>
<g id="Layer_15">
</g>
<g id="Layer_11">
</g>
<g id="Layer_8">
</g>
<g id="Layer_10">
</g>
<g id="Layer_9">
</g>
<g id="Layer_2">
</g>
<g id="Layer_3">
</g>
<g id="Layer_4">
</g>
<g id="Layer_5">
</g>
<g id="Layer_6">
</g>
<g id="Layer_7">
	<g>
		<path class="st64" d="M282.69,43.77h-33.1l16.14,46.53l0.02-0.06l13.92,40.22h-62.69l-20.83,55.77h36.4l8.92-25.26h48.18
			l9.1,25.26h37.11L282.69,43.77"/>
		<path class="st67" d="M238.73,104.03l3.25,3.25l0.4-0.4c0.11-0.11,0.19-0.23,0.25-0.38c0.06-0.14,0.09-0.29,0.09-0.44
			c0-0.15-0.03-0.3-0.09-0.44c-0.06-0.14-0.14-0.27-0.25-0.38l-1.62-1.62c-0.11-0.11-0.23-0.19-0.37-0.25
			c-0.14-0.06-0.29-0.09-0.44-0.09s-0.3,0.03-0.44,0.09c-0.14,0.06-0.27,0.14-0.37,0.25L238.73,104.03z M236.19,113.08l-3.25-3.25
			l-7.22,7.22l3.25,3.25L236.19,113.08z M234.04,104.02l7.94,7.94c0,0,0.01,0,0.01,0l1.22-1.22c0.21-0.21,0.31-0.45,0.31-0.75
			c0-0.3-0.1-0.55-0.31-0.75l-6.44-6.44c-0.1-0.1-0.21-0.18-0.34-0.23c-0.13-0.05-0.26-0.08-0.4-0.08c-0.14,0-0.28,0.03-0.41,0.08
			c-0.13,0.05-0.24,0.13-0.34,0.23L234.04,104.02L234.04,104.02z M219.53,124.86l1.62,1.62c0.11,0.11,0.23,0.19,0.38,0.25
			c0.14,0.06,0.29,0.09,0.44,0.09s0.3-0.03,0.44-0.09c0.14-0.06,0.27-0.14,0.37-0.25l0.4-0.4l-3.25-3.25l-0.4,0.4
			c-0.11,0.11-0.19,0.23-0.25,0.37c-0.06,0.14-0.09,0.29-0.09,0.44c0,0.15,0.03,0.3,0.09,0.44
			C219.34,124.63,219.42,124.75,219.53,124.86z M218.7,120.87l6.44,6.44c0.1,0.1,0.21,0.18,0.34,0.23c0.13,0.05,0.27,0.08,0.41,0.08
			c0.14,0,0.28-0.03,0.41-0.08c0.13-0.05,0.24-0.13,0.34-0.23l1.21-1.21c0,0,0.01-0.01,0.01-0.01l-7.94-7.94l-1.23,1.23
			c-0.1,0.1-0.18,0.21-0.23,0.34c-0.05,0.13-0.08,0.27-0.08,0.41s0.02,0.28,0.08,0.41C218.52,120.65,218.6,120.77,218.7,120.87z
			 M229.84,105.98l10.19,10.19c0.21,0.21,0.46,0.31,0.75,0.32h0.01c0.29,0,0.54-0.1,0.74-0.31l1.22-1.21
			c0.21-0.21,0.31-0.46,0.31-0.75c0-0.3-0.11-0.55-0.31-0.75l-10.19-10.19c-0.1-0.1-0.21-0.18-0.34-0.23s-0.27-0.08-0.41-0.08
			c-0.14,0-0.28,0.03-0.41,0.08c-0.13,0.05-0.25,0.13-0.34,0.23l-1.22,1.22c-0.1,0.1-0.18,0.21-0.23,0.34
			c-0.05,0.13-0.08,0.27-0.08,0.41s0.03,0.28,0.08,0.41C229.66,105.77,229.74,105.88,229.84,105.98z M218.86,115.9
			c0,0.29,0.11,0.54,0.31,0.75l10.19,10.19c0.21,0.21,0.46,0.32,0.76,0.32c0.29,0,0.54-0.1,0.74-0.31l1.22-1.22
			c0.21-0.21,0.31-0.46,0.31-0.75c0-0.29-0.11-0.54-0.32-0.75l-10.19-10.19c-0.1-0.1-0.21-0.18-0.34-0.23
			c-0.13-0.05-0.26-0.08-0.4-0.08s-0.28,0.02-0.41,0.08c-0.13,0.05-0.24,0.13-0.34,0.23l-1.22,1.22
			C218.96,115.36,218.86,115.61,218.86,115.9z"/>
	</g>
</g>
</svg>
