<?xml version="1.0" encoding="utf-8"?>
<!-- Generator: Adobe Illustrator 27.8.1, SVG Export Plug-In . SVG Version: 6.00 Build 0)  -->
<svg version="1.1" xmlns="http://www.w3.org/2000/svg" xmlns:xlink="http://www.w3.org/1999/xlink" x="0px" y="0px"
	 viewBox="0 0 350 230" style="enable-background:new 0 0 350 230;" xml:space="preserve">
<style type="text/css">
	.st0{fill:#FF9D00;}
	.st1{fill:url(#SVGID_1_);}
	.st2{opacity:0.22;fill:url(#SVGID_00000115500046120667776730000009520050835792031933_);}
	.st3{fill:#FFC200;}
	.st4{fill:#778718;}
	.st5{fill:#E0B017;}
	.st6{fill:#664407;}
	.st7{fill:#9E690A;}
	.st8{fill:#7F1105;}
	.st9{fill:#191933;}
	.st10{fill:#FCEBD4;}
	.st11{fill:#E3DFD6;}
	.st12{fill:#FFB000;}
	.st13{fill:#AA210E;}
	.st14{fill:#FFF0A6;}
	.st15{fill:#FFDA00;}
	.st16{fill:#F4F4F4;}
	.st17{fill:#DC5C28;}
	.st18{fill:#FF8440;}
	.st19{fill:#C45224;}
	.st20{fill:#2C4369;}
	.st21{fill:#2A72DB;}
	.st22{fill:#C65500;}
	.st23{fill:#C15746;}
	.st24{fill:#FF8C00;}
	.st25{fill:#FFEA2C;}
	.st26{fill:#F7FF57;}
	.st27{fill:#FFFFFF;}
	.st28{fill:#D64949;}
	.st29{fill:#353535;}
	.st30{fill:#FFC783;}
	.st31{fill:#3F7F91;}
	.st32{fill:#25BDE5;}
	.st33{fill:#8CDD00;}
	.st34{fill:#D1FF88;}
	.st35{fill:#333333;}
	.st36{fill:#FF9000;}
	.st37{fill:#A1A813;}
	.st38{fill:#B3C40E;}
	.st39{fill:#CACE72;}
	.st40{fill:url(#SVGID_00000068655351511107190760000003204615394200883338_);}
	.st41{fill:#93E800;}
	.st42{fill:#3CB7D3;}
	.st43{fill:#FF7631;}
	.st44{fill:#E6873C;}
	.st45{fill:#30657F;}
	.st46{fill:#FF7A40;}
	.st47{fill:#FFAD4A;}
	.st48{fill:#BC8E3B;}
	.st49{fill:#E2E2E2;}
	.st50{fill:#F2B844;}
	.st51{fill:#AF3838;}
	.st52{fill:#17B5C1;}
	.st53{fill:#A88643;}
	.st54{fill-rule:evenodd;clip-rule:evenodd;fill:#DD7928;}
	.st55{fill:#E6E7E8;stroke:#CFCFCF;stroke-width:0.1061;}
	.st56{fill-rule:evenodd;clip-rule:evenodd;fill:#204F7A;}
	.st57{fill-rule:evenodd;clip-rule:evenodd;fill:#50A4FF;}
	.st58{fill:#002649;}
	.st59{fill:#00134F;}
	.st60{fill:#665200;}
	.st61{fill:#001E7C;}
	.st62{fill:#002349;}
	.st63{fill:#FF914D;}
	.st64{fill:#AC1929;}
	.st65{fill:#004AAD;}
	.st66{fill:#BE1C2D;}
	.st67{fill:#242424;}
	.st68{fill:#F1A75A;}
	.st69{fill-rule:evenodd;clip-rule:evenodd;}
	.st70{fill-rule:evenodd;clip-rule:evenodd;fill:#007177;}
	.st71{fill-rule:evenodd;clip-rule:evenodd;fill:#242424;}
	.st72{fill:#F9951C;}
	.st73{fill:#84123B;}
	.st74{fill:#FFB908;}
	.st75{fill:#393536;}
	.st76{fill:#093F00;}
	.st77{fill:#333300;}
	.st78{fill:#C8D7FF;}
	.st79{fill:#426BD1;}
	.st80{fill:#0036D2;}
</style>
<g id="Layer_1">
</g>
<g id="Layer_12">
</g>
<g id="Layer_13">
</g>
<g id="Layer_14">
</g>
<g id="Layer_15">
</g>
<g id="Layer_11">
</g>
<g id="Layer_8">
</g>
<g id="Layer_10">
</g>
<g id="Layer_9">
</g>
<g id="Layer_2">
</g>
<g id="Layer_3">
</g>
<g id="Layer_4">
</g>
<g id="Layer_5">
</g>
<g id="Layer_6">
</g>
<g id="Layer_7">
	<g>
		<path class="st67" d="M301.48,78.45v3.45H48.52v-3.45H301.48 M85.68,105.45h-5.17c-1.69,0-3.06-1.37-3.06-3.07V59.87
			c0-1.69,1.37-3.06,3.06-3.06h5.17c1.69,0,3.07,1.37,3.07,3.06v42.52C88.75,104.08,87.37,105.45,85.68,105.45 M73.62,101.81h-5.65
			c-1.56,0-2.83-1.27-2.83-2.82V63.26c0-1.56,1.27-2.82,2.83-2.82h5.65c1.56,0,2.82,1.27,2.82,2.82v35.72
			C76.44,100.54,75.18,101.81,73.62,101.81 M61.58,98.36h-6.14c-1.43,0-2.58-1.16-2.58-2.58V66.47c0-1.42,1.15-2.58,2.58-2.58h6.14
			c1.43,0,2.58,1.16,2.58,2.58v29.32C64.16,97.21,63.01,98.36,61.58,98.36 M264.32,56.81h5.17c1.69,0,3.07,1.37,3.07,3.06v42.52
			c0,1.69-1.37,3.07-3.07,3.07h-5.17c-1.69,0-3.06-1.37-3.06-3.07V59.87C261.26,58.17,262.63,56.81,264.32,56.81 M276.38,60.44h5.65
			c1.56,0,2.82,1.27,2.82,2.82v35.72c0,1.56-1.27,2.82-2.82,2.82h-5.65c-1.56,0-2.83-1.27-2.83-2.82V63.26
			C273.56,61.71,274.82,60.44,276.38,60.44 M288.42,63.89h6.14c1.42,0,2.58,1.16,2.58,2.58v29.32c0,1.42-1.16,2.58-2.58,2.58h-6.14
			c-1.43,0-2.58-1.16-2.58-2.58V66.47C285.84,65.04,286.99,63.89,288.42,63.89"/>
		<path class="st73" d="M253.65,53.37c-0.03,1.51-0.15,3.03-0.34,4.5c-0.8,5.96-2.39,11.5-4.68,17.04c0.03-0.09,0.06-0.17,0.09-0.25
			c0.47-1.37-0.18-2.89-1.54-3.52c-1.43-0.65-3.14-0.01-3.78,1.44c-0.02,0.06-0.06,0.11-0.08,0.16c-0.02,0.04-0.03,0.07-0.05,0.11
			c0.01-0.04,0.02-0.08,0.04-0.12l0.06-0.13c1.97-4.85,3.47-10.24,4.09-15.44c0.16-1.31,0.25-2.61,0.27-3.9
			c0.02-1.29-0.13-2.55-0.19-3.83c-0.4-2.5-0.9-5.03-1.9-7.39c-3.65-9.64-12.33-17.1-22.23-20.16c-4.98-1.56-10.25-1.93-15.5-1.35
			c-5.23,0.58-10.33,2.15-14.89,4.71c-4.51,2.61-8.41,6.21-11.22,10.53c-1.23,2.23-2.82,4.33-3.88,6.79
			c-1.22,2.41-1.92,5.04-2.75,7.82l-0.01,0.02c-0.03,0.12-0.16,0.17-0.27,0.15c-0.08-0.03-0.14-0.09-0.15-0.16
			c-0.04-0.19-0.09-0.4-0.12-0.59c-0.01-0.03-0.02-0.05-0.02-0.08c-0.66-2.54-1.32-4.97-2.41-7.21c-1.04-2.48-2.57-4.64-3.82-6.9
			c-2.82-4.38-6.78-8-11.33-10.63c-4.59-2.57-9.74-4.15-15.01-4.73c-5.29-0.59-10.6-0.21-15.62,1.36
			c-9.97,3.13-18.67,10.68-22.29,20.39c-0.98,2.39-1.48,4.92-1.87,7.44c-0.05,1.28-0.19,2.55-0.16,3.84
			c0.02,1.29,0.12,2.6,0.28,3.91c0.65,5.21,2.19,10.59,4.18,15.43c-0.01-0.01-0.02-0.02-0.02-0.03c-0.66-1.45-2.36-2.09-3.81-1.44
			c-1.35,0.63-2,2.15-1.53,3.52c-2.22-5.46-3.75-10.92-4.5-16.79c-0.19-1.47-0.3-2.98-0.33-4.5c-0.03-1.51,0.13-3.06,0.21-4.58
			c0.45-3.03,1.07-6.05,2.27-8.86c4.45-11.45,14.58-19.95,26.04-23.41c5.75-1.74,11.89-2.09,17.75-1.36
			c5.9,0.72,11.68,2.56,16.88,5.54c5.15,3.07,9.66,7.28,12.88,12.41c1.07,1.84,1.91,3.83,2.44,5.9c0.49-2.11,1.33-4.17,2.42-6.06
			c3.24-5.18,7.81-9.43,13-12.52c5.23-3.01,11.06-4.86,17-5.59c5.9-0.73,12.08-0.37,17.88,1.38c11.54,3.54,21.66,12.15,26.1,23.64
			c1.18,2.83,1.8,5.87,2.24,8.91C253.54,50.29,253.69,51.84,253.65,53.37z M236.98,61.53c-0.02,1.19-0.11,2.39-0.27,3.55
			c-0.63,4.69-1.88,9.06-3.69,13.43c0.02-0.07,0.05-0.14,0.07-0.2c0.37-1.08-0.15-2.28-1.22-2.78c-1.12-0.51-2.48-0.01-2.98,1.13
			c-0.02,0.05-0.05,0.08-0.06,0.13c-0.02,0.03-0.02,0.05-0.04,0.08c0.01-0.03,0.02-0.06,0.03-0.09l0.05-0.1
			c1.55-3.82,2.74-8.07,3.23-12.16c0.13-1.03,0.2-2.06,0.21-3.07s-0.1-2.01-0.15-3.02c-0.31-1.97-0.71-3.96-1.5-5.83
			c-2.87-7.6-9.72-13.48-17.52-15.89c-3.92-1.23-8.08-1.52-12.22-1.06c-4.12,0.46-8.14,1.7-11.74,3.71
			c-3.56,2.06-6.63,4.89-8.84,8.3c-0.97,1.76-2.22,3.41-3.06,5.35c-0.96,1.9-1.51,3.97-2.16,6.16l-0.01,0.02
			c-0.02,0.09-0.12,0.14-0.21,0.11c-0.06-0.02-0.11-0.07-0.11-0.13c-0.03-0.15-0.07-0.31-0.09-0.47c-0.01-0.02-0.02-0.04-0.02-0.06
			c-0.52-2-1.04-3.91-1.9-5.68c-0.82-1.96-2.03-3.65-3.01-5.44c-2.22-3.45-5.34-6.31-8.93-8.38c-3.62-2.03-7.68-3.27-11.83-3.73
			c-4.17-0.47-8.36-0.17-12.31,1.07c-7.86,2.47-14.71,8.42-17.57,16.07c-0.77,1.88-1.17,3.88-1.48,5.86
			c-0.04,1.01-0.15,2.01-0.13,3.03c0.02,1.02,0.09,2.05,0.22,3.08c0.51,4.11,1.73,8.35,3.3,12.16c-0.01-0.01-0.02-0.02-0.02-0.02
			c-0.52-1.14-1.86-1.64-3-1.13c-1.06,0.5-1.57,1.7-1.21,2.78c-1.75-4.3-2.96-8.61-3.55-13.23c-0.15-1.16-0.24-2.35-0.26-3.55
			c-0.02-1.19,0.1-2.41,0.17-3.61c0.35-2.39,0.84-4.77,1.79-6.98c3.51-9.02,11.49-15.72,20.52-18.45c4.53-1.37,9.37-1.64,13.99-1.07
			c4.65,0.57,9.2,2.02,13.3,4.37c4.06,2.42,7.61,5.73,10.15,9.78c0.84,1.45,1.51,3.02,1.92,4.65c0.39-1.67,1.05-3.29,1.9-4.78
			c2.55-4.08,6.15-7.43,10.24-9.86c4.12-2.37,8.72-3.83,13.39-4.4c4.65-0.57,9.52-0.29,14.09,1.09c9.09,2.79,17.07,9.57,20.57,18.63
			c0.93,2.23,1.42,4.63,1.77,7.02C236.89,59.1,237.01,60.33,236.98,61.53z M161.58,103.97c-0.34,0.2-0.72,0.34-1.07,0.52
			c-0.38,0.23-0.81,0.38-1.13,0.68c-1.45,1.06-2.23,2.7-2.65,4.3c-0.39,1.62-0.5,3.29-0.36,4.92c0,0.03,0.03,0.07,0.06,0.07
			c0.04,0,0.07-0.03,0.07-0.07c-0.01-1.63,0.21-3.26,0.7-4.79c0.51-1.51,1.35-2.94,2.65-3.75c0.08-0.06,0.17-0.11,0.26-0.16
			C160.57,104.99,161.07,104.46,161.58,103.97z M239,78.23c-0.33-2.87-4.69-2.91-7.14-3.52c-2.45-0.61-7.02-0.02-7.5,3.49
			c4.57,3.07,0.43,3.64,1.57,5.19c0.78,1.06,1.92,2.36,1.63,3.06c-0.69,1.71-17.12,31.73-18.9,34.8
			c-1.76,3.06-13.47,17.44-19.16,28.06c-1.47,2.72-4.55,0.9-5.85-0.08c-0.01,0-0.01-0.01-0.02-0.01c-1.58-2.88-2.04-5.31-0.68-8.31
			c2.08-1.11,6.42-4.74,7.77-8.27c0.01,0.01,0.01,0.02,0.01,0.02c0.37,1.33,0.45,2.78,0.12,4.19c0,0.02,0.01,0.04,0.02,0.05
			c0.02,0.01,0.05,0.01,0.07-0.02c0.64-1.06,0.95-2.33,0.95-3.6c0-0.27-0.01-0.55-0.04-0.82c-0.01-0.15-0.06-0.3-0.08-0.45
			c0.01,0.02,0.02,0.04,0.03,0.06c0.43,0.85,0.85,1.72,1.19,2.63c0.32,0.91,0.68,1.84,0.89,2.8c-0.15-3.65-1.39-7.3-3.57-10.39
			c-0.48-1.18-1.1-2.4-1.7-3.5c-0.19-0.33-0.36-0.68-0.54-0.99c-0.09-0.17-0.18-0.33-0.26-0.48c-0.29-0.53-0.38-1.09-0.38-1.68
			c0-0.2,0.01-0.39,0.02-0.6c0.02-0.2,0.06-0.42,0.07-0.64c0.04-0.18,0.06-0.35,0.09-0.53c0.02-0.19,0.05-0.35,0.07-0.54
			c0.01-0.08,0.02-0.16,0.02-0.24c0.17,0.2,0.31,0.41,0.48,0.6c0.42,0.5,0.85,1.02,1.37,1.44c0.52,0.42,1.19,0.75,1.88,0.68
			c0.04,0,0.07-0.03,0.07-0.07c0.01-0.05-0.03-0.09-0.07-0.09c-0.62-0.06-1.13-0.43-1.53-0.88c-0.41-0.46-0.72-1-1.03-1.56
			c-0.45-0.76-0.85-1.54-1.33-2.27c-0.04-0.09-0.06-0.2-0.1-0.29c-0.1-0.26-0.22-0.51-0.34-0.76c0-0.01-0.01-0.01-0.01-0.01
			c-0.36-0.76-0.78-1.51-1.25-2.23c-0.1-0.18-0.22-0.34-0.34-0.52c0.31,0.19,0.63,0.35,0.93,0.53c1.33,0.84,2.6,1.82,3.44,3.17
			c0.04,0.05,0.1,0.07,0.17,0.04c0.05-0.03,0.08-0.1,0.05-0.17c-0.72-1.49-1.94-2.67-3.22-3.67c-1.17-0.89-2.38-1.7-3.56-2.53
			c-0.02-0.02-0.03-0.04-0.05-0.05c-0.63-0.61-1.3-1.14-2.02-1.58c-0.22-0.14-0.43-0.24-0.65-0.36c-0.24-0.11-0.47-0.23-0.71-0.32
			c-0.01,0-0.02-0.01-0.02-0.01c-0.24-0.1-0.47-0.18-0.72-0.25c-0.25-0.07-0.51-0.14-0.77-0.19c-0.1-0.02-0.22-0.03-0.35-0.05v-0.04
			c0-1.34-1.11-2.47-2.68-2.96l-0.3-0.79c0,0-0.57-5.93-4.4-5.84c-0.72,0.02-1.35,0.09-1.92,0.23c0,0,0,0-0.01,0
			c-0.02-0.01-0.05-0.01-0.08-0.01c-1.37-0.09-2.45,0.3-3.49,0.85c-1.01,0.58-1.85,1.36-2.53,2.23c-0.64,0.82-1.38,1.54-2.24,2.14
			c-0.85,0.56-1.85,1.02-2.9,1.11c-0.02,0-0.04,0.01-0.05,0.03c0,0.02,0.03,0.04,0.05,0.04c1.08,0.03,2.15-0.31,3.13-0.81
			c0.97-0.51,1.85-1.19,2.62-1.98c0.68-0.68,1.44-1.25,2.27-1.62c-0.5,0.59-0.89,1.28-1.26,2c-0.63,1.27-1.62,1.95-2.61,2.87
			c0.7-0.35,1.35-0.79,1.97-1.25c1.26-0.92,2.42-2.11,3.17-3.33l0.04-0.05c0.22-0.36,0.7-0.48,1.06-0.25
			c0.36,0.23,0.47,0.7,0.25,1.06c-0.01,0.01-0.02,0.03-0.03,0.04c-1.09,1.5-2.38,2.57-3.81,3.51c-0.72,0.45-1.46,0.86-2.23,1.19
			c-0.38,0.19-0.78,0.31-1.17,0.48c-0.24,0.12-0.51,0.22-0.75,0.34c-0.28,0.41-0.53,0.87-0.77,1.42c-1.44,3.34-0.77,4.88-0.77,4.88
			s0.77-3.45,2.78-3.55c0,0-1,2.63-0.1,3.36c-0.17-1.75,1.34-3.82,2.88-3.82c1.53,0,3.06-0.57,4.22-1.53
			c0.33-0.28,0.7-0.46,1.04-0.56c-0.05,0.18-0.07,0.37-0.07,0.56c0,0.22,0.03,0.44,0.09,0.64c-0.05,0.01-0.1,0.03-0.16,0.05
			c-1.19,0.29-2.31,0.75-3.35,1.37c-0.34,0.2-0.68,0.42-1.01,0.65c-0.22,0.15-0.44,0.3-0.64,0.48c-0.31,0.25-0.62,0.51-0.9,0.78
			c-0.26,0.24-0.52,0.49-0.76,0.77c-0.11,0.14-0.24,0.28-0.33,0.42c-0.56,0.68-1.08,1.41-1.5,2.19c-0.17,0.31-0.32,0.63-0.46,0.96
			c-0.09,0.16-0.16,0.31-0.22,0.49c-0.12,0.31-0.23,0.66-0.33,0.99c-0.06,0.18-0.12,0.34-0.18,0.51c-0.02,0.08-0.04,0.18-0.06,0.26
			c-0.08,0.33-0.15,0.69-0.22,1.03c-0.04,0.26-0.1,0.51-0.16,0.77c0,0,0.01,0.03,0.02,0.04h0.01c0.01,0,0.03-0.01,0.03-0.03
			c0.19-0.68,0.31-1.36,0.54-2.03c0.26-0.64,0.45-1.32,0.79-1.91c0.34-0.74,0.77-1.41,1.26-2.05c-0.11,0.21-0.24,0.41-0.35,0.62
			c-0.12,0.21-0.22,0.41-0.33,0.62c-0.13,0.29-0.27,0.59-0.38,0.87c-0.01,0.02-0.01,0.04-0.01,0.05c-0.16,0.38-0.29,0.77-0.41,1.16
			c-0.19,0.57-0.33,1.14-0.48,1.71c-0.16,0.64-0.22,1.31-0.31,1.95l-0.15,1.97c0,0.02,0.01,0.04,0.04,0.05
			c0.02,0.01,0.05-0.01,0.06-0.03v-0.01c0.1-0.31,0.21-0.63,0.3-0.95c0.08-0.3,0.19-0.62,0.27-0.92l0.66-1.82
			c0.29-0.73,0.62-1.43,0.99-2.12c-0.03,0.1-0.06,0.21-0.09,0.32c-0.24,0.96-0.53,1.91-0.8,2.86c-0.3,0.93-0.56,1.89-0.95,2.77
			c-0.39,0.9-0.78,1.8-1.53,2.48l-0.02,0.02c-0.01,0.01-0.02,0.04-0.02,0.06v0.03c0,0.01,0.02,0.03,0.03,0.03
			c0.02,0.01,0.05,0.01,0.08,0c0.24-0.11,0.45-0.25,0.66-0.42c0.61-0.48,1.1-1.12,1.52-1.78c0.16-0.26,0.3-0.54,0.46-0.8
			c-0.18,0.36-0.35,0.74-0.52,1.11c-0.08,0.16-0.16,0.32-0.23,0.48c-0.18,0.42-0.35,0.84-0.55,1.25c-0.19,0.41-0.39,0.8-0.61,1.2
			c-0.42,0.8-0.84,1.59-1.26,2.4c-0.2,0.42-0.39,0.82-0.59,1.23c-0.19,0.42-0.38,0.83-0.55,1.25c-0.08,0.22-0.17,0.43-0.25,0.64
			c-0.08,0.23-0.16,0.44-0.23,0.66c-0.12,0.44-0.23,0.88-0.3,1.36c-0.14,0.91-0.24,1.85-0.1,2.78c0.05,0.34,0.12,0.7,0.23,1.04
			c0.07,0.23,0.16,0.45,0.28,0.64c0.16,0.31,0.37,0.59,0.64,0.8c-0.07-0.08-0.15-0.17-0.21-0.26c-0.06-0.09-0.11-0.2-0.17-0.29
			c-0.04-0.1-0.08-0.19-0.12-0.3c-0.19-0.52-0.25-1.1-0.25-1.65c0.02-0.88,0.18-1.76,0.41-2.62c0.27-1.03,0.76-1.97,1.31-2.9
			c0.31-0.55,0.64-1.09,0.97-1.63c-0.05,0.17-0.1,0.34-0.14,0.51c-0.02,0.07-0.04,0.14-0.05,0.2c0,0.03-0.01,0.06-0.02,0.08
			c-0.02,0.09-0.03,0.17-0.04,0.26c-0.03,0.17-0.06,0.35-0.07,0.52c-0.03,0.2-0.04,0.39-0.04,0.57c0,0.14,0.01,0.26,0.02,0.39
			c0.02,0.15,0.05,0.3,0.08,0.46c-0.01,0.04-0.02,0.09-0.02,0.14c-0.09,1.34,0.07,2.69,0.43,3.97c0.33,1.29,0.99,2.45,1.76,3.49
			c0.76,1.04,1.76,1.88,2.84,2.5h0.01c0.04,0.02,0.08,0.02,0.12-0.01c0.04-0.05,0.04-0.11,0-0.16c-0.85-0.85-1.5-1.87-2.06-2.9
			c-0.49-0.93-0.82-1.94-1.01-2.97c0.77,0.99,1.66,1.92,2.57,2.73c0.17,0.17,0.32,0.31,0.5,0.46c0.69,0.58,1.35,1.08,1.95,1.5
			c0.19,0.12,0.38,0.25,0.56,0.36c0.18,0.1,0.34,0.2,0.49,0.28c0.27,0.61,0.47,1.2,0.61,1.78c0.49,2.11,0.15,4.54-1.63,6.45
			c-0.28,0.19-0.61,0.39-0.99,0.59c-1.49,0.83-3.52,1.37-4.64-0.69c-5.69-10.62-17.38-24.99-19.17-28.06
			c-1.79-3.06-18.87-33.86-19.56-35.59c-0.34-0.82,1.44-0.88,1.91-2.75c0.46-1.87-1.93-3.93,2.17-4.48
			c-0.47-3.51-7.34-3.72-9.64-3.72c-2.29,0-4.88,0.64-5.21,3.51c-0.37,2.85,0.2,5.29,3.14,8.63c2.95,3.36,1.76,9.81,8.09,19.82
			c6.36,10.03,8.22,12.53,9.55,14.75c1.32,2.19,4.08,20.13,9.89,27.88c5.82,7.77,11.52,14.28,11.79,20.46v0.09h43.44v-0.09
			c0.28-6.18,5.98-12.69,11.8-20.46c5.8-7.75,8.57-25.69,9.88-27.88c1.34-2.22,3.2-4.72,9.56-14.75c6.34-10.01,4.28-16.7,7.23-20.06
			C237.94,83.29,239.37,81.08,239,78.23z"/>
	</g>
</g>
</svg>
