<?xml version="1.0" encoding="utf-8"?>
<!-- Generator: Adobe Illustrator 27.8.1, SVG Export Plug-In . SVG Version: 6.00 Build 0)  -->
<svg version="1.1" xmlns="http://www.w3.org/2000/svg" xmlns:xlink="http://www.w3.org/1999/xlink" x="0px" y="0px"
	 viewBox="0 0 350 230" style="enable-background:new 0 0 350 230;" xml:space="preserve">
<style type="text/css">
	.st0{fill:#FF9D00;}
	.st1{fill:url(#SVGID_1_);}
	.st2{opacity:0.22;fill:url(#SVGID_00000111182418367889733580000006574557056798351500_);}
	.st3{fill:#FFC200;}
	.st4{fill:#778718;}
	.st5{fill:#E0B017;}
	.st6{fill:#664407;}
	.st7{fill:#9E690A;}
	.st8{fill:#7F1105;}
	.st9{fill:#191933;}
	.st10{fill:#FCEBD4;}
	.st11{fill:#E3DFD6;}
	.st12{fill:#FFB000;}
	.st13{fill:#AA210E;}
	.st14{fill:#FFF0A6;}
	.st15{fill:#FFDA00;}
	.st16{fill:#F4F4F4;}
	.st17{fill:#DC5C28;}
	.st18{fill:#FF8440;}
	.st19{fill:#C45224;}
	.st20{fill:#2C4369;}
	.st21{fill:#2A72DB;}
	.st22{fill:#C65500;}
	.st23{fill:#C15746;}
	.st24{fill:#FF8C00;}
	.st25{fill:#FFEA2C;}
	.st26{fill:#F7FF57;}
	.st27{fill:#FFFFFF;}
	.st28{fill:#D64949;}
	.st29{fill:#353535;}
	.st30{fill:#FFC783;}
	.st31{fill:#3F7F91;}
	.st32{fill:#25BDE5;}
	.st33{fill:#8CDD00;}
	.st34{fill:#D1FF88;}
	.st35{fill:#333333;}
	.st36{fill:#FF9000;}
	.st37{fill:#A1A813;}
	.st38{fill:#B3C40E;}
	.st39{fill:#CACE72;}
	.st40{fill:url(#SVGID_00000152949428912481716320000002180607081874321546_);}
	.st41{fill:#93E800;}
	.st42{fill:#3CB7D3;}
	.st43{fill:#FF7631;}
	.st44{fill:#E6873C;}
	.st45{fill:#30657F;}
	.st46{fill:#FF7A40;}
	.st47{fill:#FFAD4A;}
	.st48{fill:#BC8E3B;}
	.st49{fill:#E2E2E2;}
	.st50{fill:#F2B844;}
	.st51{fill:#AF3838;}
	.st52{fill:#17B5C1;}
	.st53{fill:#A88643;}
	.st54{fill-rule:evenodd;clip-rule:evenodd;fill:#DD7928;}
	.st55{fill:#E6E7E8;stroke:#CFCFCF;stroke-width:0.1061;}
	.st56{fill-rule:evenodd;clip-rule:evenodd;fill:#204F7A;}
	.st57{fill-rule:evenodd;clip-rule:evenodd;fill:#50A4FF;}
	.st58{fill:#002649;}
	.st59{fill:#00134F;}
	.st60{fill:#665200;}
	.st61{fill:#001E7C;}
	.st62{fill:#002349;}
	.st63{fill:#FF914D;}
	.st64{fill:#AC1929;}
	.st65{fill:#004AAD;}
	.st66{fill:#BE1C2D;}
	.st67{fill:#242424;}
	.st68{fill:#F1A75A;}
	.st69{fill-rule:evenodd;clip-rule:evenodd;}
	.st70{fill-rule:evenodd;clip-rule:evenodd;fill:#007177;}
	.st71{fill-rule:evenodd;clip-rule:evenodd;fill:#242424;}
	.st72{fill:#F9951C;}
	.st73{fill:#84123B;}
	.st74{fill:#FFB908;}
	.st75{fill:#393536;}
	.st76{fill:#093F00;}
	.st77{fill:#333300;}
	.st78{fill:#C8D7FF;}
	.st79{fill:#426BD1;}
	.st80{fill:#0036D2;}
</style>
<g id="Layer_1">
</g>
<g id="Layer_12">
</g>
<g id="Layer_13">
</g>
<g id="Layer_14">
</g>
<g id="Layer_15">
</g>
<g id="Layer_11">
</g>
<g id="Layer_8">
</g>
<g id="Layer_10">
</g>
<g id="Layer_9">
</g>
<g id="Layer_2">
</g>
<g id="Layer_3">
</g>
<g id="Layer_4">
</g>
<g id="Layer_5">
</g>
<g id="Layer_6">
</g>
<g id="Layer_7">
	<g>
		<path d="M113.81,91.16c2.77-0.05,4.56-0.54,7.05-0.98c1.63-0.87,3.2-1.19,4.83-2.22c0.7-0.43,1.63-1.14,2.11-1.63
			c0.7-0.76,0.92-1.25,1.84-2.06c0.6-0.27,0.16-0.32,0.87,0.27c1.36,1.19,1.79,3.85,2.98,6.18c0.43,0.81,0.97,1.63,1.3,2.28
			c0.76,0.87,0.65,1.46,1.63,1.73c0.38,0.7,0.76,1.19,1.36,1.79c0.76,0.81,0.76,1.14,1.46,1.68c0.05,0.7,0.32,0.92,0.49,1.73
			c0.22,0.98,0.22,1.74,0.17,2.71l-0.43,6.56c-0.11,2.01-0.38,2.33,0.16,2.82h5.15c0.87-3.69,1.95-9.76,3.2-12.79l1.03-1.73
			c0.7-2.11,2.01-3.36,2.66-6.02c0.65-2.66,2.44-4.93,2.49-7.64c0.43-31.39,14.85-18.59,14.53-36.1c-3.09-4.71-3.74-4.5-1.74-8.57
			c4.17-8.35-2.33-32.2-24.66-22.12c-1.57,0.7-2.98,1.46-4.55,2.28c-4.5,2.22-2.71,3.52-3.63,6.94H62.53l26.56,44.5
			c0,1.84,0,3.69,0.22,4.93c0.11,2.22,0.65,9.54,1.9,10.73c0,0.87,0.11,0.98,0.54,1.79l0.92,1.52c1.03,2.44,2.55,3.47,4.99,3.3
			c0.7-0.05,1.79-0.16,2.28-0.49c0.92,0.11,1.9,0.06,2.87,0l9.54,16.91l-33.72,3.85c10.84,0,28.89,0,39.73,0h2.11l-12.09-21.46
			l3.85-0.65L113.81,91.16z M106.5,72.24c-0.65,0.97-1.09,2.17-2.22,2.55l-0.17-0.81c-0.22-1.41-0.7-3.79-1.57-4.66
			c-0.27-0.81-0.65-2.06-1.41-2.6c-0.27-0.82-0.27-0.82-0.81-1.57c-0.6-0.92-0.97-1.46-1.46-2.49c-0.32-0.76-0.65-1.95-0.97-2.55
			c-0.27-1.57-0.54-2.93-0.7-4.66c-0.05-0.81-0.16-1.57-0.22-2.33c-0.05-1.08,0.16-1.46,0.49-2.22c0.6-0.38,0.22-0.54,1.09-0.7
			c1.46,0.76,3.63,0.22,4.93-0.6c0.76-0.49,1.09-0.97,1.74-1.3c0.97-0.49,1.9-0.05,2.65-0.65c2.39,0.11,3.52-2.17,2.17-3.42
			c-1.08-3.36-0.16-2.71-1.73-4.55c-0.65-0.76-0.6-0.7-1.14-0.92c-0.87-1.36-2.98-2.55-5.26-2.22c-4.23,2.38-11.44,6.07-13.33,10.73
			c-0.59,1.46-0.54,5.75,0.27,6.94l0.49,6.88L71.59,31.26h61.52c0,3.41,1.3,5.26,1.03,7.59c-0.32,2.44-1.3,3.79-0.81,6.51
			c0.92,0.59,2.01,0.49,3.14,1.14c0.22,0.33,0.6,0.92,0.76,1.19c-0.76,0.7,0.27,0.92,0.87,1.03c-0.97,1.57,0.22,2.55,0.76,2.66
			c1.25,4.77,0.76,5.15,6.02,3.85c1.19-0.27,1.41-0.6,2.39-0.22l1.03,0.76c0.05,0.05,0.11,0.16,0.16,0.22l0.54,0.7
			c-0.38,0.87,0.05,0.76-0.38,0.87c-0.49,0.16-0.87,0.33-1.19,0.43c-1.9,0-6.02,1.46-7.75,1.95l-4.61-1.14
			c-4.23-1.09-10.78,2.49-13.82,5.2c-1.95,1.73-3.09,1.52-4.17,1.46C113.43,65.19,108.18,69.63,106.5,72.24z M93.81,160.7v-1.9
			l-25.09,1.08L93.81,160.7z M253.88,160.7l25.15-0.98l-25.15-0.92V160.7z M175.01,205.42l-21.46-37.18h-31.17l27.27,4.44
			l25.37,42.82l25.37-42.61l28.08-4.66h-31.38L175.01,205.42z M239.08,107.25l12.58-21.95c-1.46,0.16-4.44-0.11-5.69-0.27
			c-0.05,0-0.11,0-0.11,0l-15.18,26.51h2.11c11.06,0,25.42,0.16,36.48,0.16L239.08,107.25z M210.79,29.9
			c0.38,0.49,0.7,0.97,0.97,1.41h66.62l-25.1,40.71c0.81,2.49,1.63,5.04,1.84,6.99l32.36-52.96H209.7
			C210.46,27.19,210.84,28.49,210.79,29.9z"/>
		<path class="st66" d="M251.65,85.3c0.11,0,0.22,0,0.27-0.05c2.06-0.38,2.6-1.79,2.98-3.91c0.27-0.54,0.33-1.41,0.22-2.38
			c-0.22-1.95-0.97-4.55-1.84-6.99c-0.92-2.77-1.9-5.42-2.17-6.78l-1.95-5.91c-0.32-0.54-3.52-8.73-3.74-9.59
			c-0.32-0.33-1.68-3.91-2.55-4.93c-1.09-1.3-3.79-2.49-5.91-2.01c-0.76-0.43-1.95-0.43-2.87-0.43c-0.97-0.05-1.95-0.05-2.93-0.11
			c-1.9-0.05-4.55-0.65-4.61,1.41c-0.33,0.33-0.05-0.05-0.38,0.49c-0.05,0.11-0.27,0.54-0.27,0.54c-0.16,0.43-0.27,0.81-0.38,1.14
			c-0.16,0.54-0.38,1.09-0.54,1.57c-0.38,1.25-0.54,2.44,0.38,3.47c1.14,1.25,0.6,0.38,1.09,2.33c4.17,1.14,4.28,1.46,5.42-0.27
			l4.77-0.16c0.17-0.17,0.54-0.43,0.76-0.7c0.7-0.65,0.11-0.43,1.3-0.81c1.09,1.3,1.84,3.79,2.33,5.69c0.49,2.11,0.76,4.01,0.7,6.29
			c-0.05,1.68-0.65,5.15,0.22,6.39l0.05,0.7c-0.27,2.01,0.32,0.22-4.5-1.24c-5.75-1.68-8.57,0.49-11.65-2.66
			c-0.7-0.7-3.58-2.71-3.9-3.42c-0.98-0.16-2.17-1.14-3.36-1.63c-2.06-0.49-3.25-0.6-5.53-0.54c-2.17,0.05-4.72,0.16-6.94-0.11
			c-2.87-0.32-5.1-1.52-3.09-5.69l8.67,1.19c1.95,0.49,3.09-1.19,3.04-2.71l-0.49-2.11c1.14-0.22,1.84-0.7,0.92-2.06
			c1.19-0.54,1.09-1.52,0.22-2.82l1.36-1.57c0.97-1.08,1.41-1.19,0.11-2.55l-2.98-2.87c0.05-3.91-0.27-5.58-2.06-8.29
			c-0.27-0.43-0.6-0.87-0.97-1.41c0.05-1.41-0.33-2.71-1.03-3.85c-3.47-5.42-14.96-7.43-24.23-2.38
			c-25.74-5.42-9.86,33.99-17.56,36.91c10.35-2.71,16.32-9.7,12.03-22.77c2.17,4.28,4.66,8.08,7.7,11.17
			c-0.49,11.82-5.58,10.14-8.89,11.22c-5.37,0.87-9.11,0.97-13.39,4.5c-1.52,1.08-4.17,4.71-4.82,7.59l-0.65,2.06l-0.33,3.9
			c-0.05,4.44-0.05,6.72-1.19,10.84c-0.22,0.59-1.3,2.87-1.36,3.25c-3.09,3.69-3.96,10.08-5.31,14.64
			c-0.22,1.14-0.76,3.14-1.09,4.88h13.93c0.33-2,0.49-3.96,0.6-5.58c0.11-1.79,0.27-2.87,0.92-4.55c0.54-1.41,1.36-2.39,1.79-3.85
			c0.81-0.7,2.22-4.88,2.98-6.02c0.49,2.01,3.04,11.38,3.2,11.6c-0.22,1.03-0.11,5.85-0.16,8.4h36.32c0.49-0.87,0.38-1.9,0.65-3.52
			c0.32-2.33,0.54-3.74,1.36-5.75c1.14-1.25,3.36-4.77,3.74-6.83c1.35-2.98-0.05-6.94-0.7-10.19c-0.05-1.14-0.17-3.04-0.17-3.47
			c0.27-1.24,0.33-1.41,1.14-2.06l1.46-0.59c6.07-0.43,8.4,2.17,12.95,3.36c2.17,1.68,11,1.84,14.37,2.06l0.7,0.11c0,0,0,0,0.11,0
			c0.05,0,0.05,0,0.11,0C247.16,85.25,250.19,85.46,251.65,85.3z"/>
	</g>
</g>
</svg>
