<?xml version="1.0" encoding="utf-8"?>
<!-- Generator: Adobe Illustrator 27.8.1, SVG Export Plug-In . SVG Version: 6.00 Build 0)  -->
<svg version="1.1" xmlns="http://www.w3.org/2000/svg" xmlns:xlink="http://www.w3.org/1999/xlink" x="0px" y="0px"
	 viewBox="0 0 350 230" style="enable-background:new 0 0 350 230;" xml:space="preserve">
<style type="text/css">
	.st0{fill:#FF9D00;}
	.st1{fill:url(#SVGID_1_);}
	.st2{opacity:0.22;fill:url(#SVGID_00000014634859059411188510000017356738462038094218_);}
	.st3{fill:#FFC200;}
	.st4{fill:#778718;}
	.st5{fill:#E0B017;}
	.st6{fill:#664407;}
	.st7{fill:#9E690A;}
	.st8{fill:#7F1105;}
	.st9{fill:#191933;}
	.st10{fill:#FCEBD4;}
	.st11{fill:#E3DFD6;}
	.st12{fill:#FFB000;}
	.st13{fill:#AA210E;}
	.st14{fill:#FFF0A6;}
	.st15{fill:#FFDA00;}
	.st16{fill:#F4F4F4;}
	.st17{fill:#DC5C28;}
	.st18{fill:#FF8440;}
	.st19{fill:#C45224;}
	.st20{fill:#2C4369;}
	.st21{fill:#2A72DB;}
	.st22{fill:#C65500;}
	.st23{fill:#C15746;}
	.st24{fill:#FF8C00;}
	.st25{fill:#FFEA2C;}
	.st26{fill:#F7FF57;}
	.st27{fill:#FFFFFF;}
	.st28{fill:#D64949;}
	.st29{fill:#353535;}
	.st30{fill:#FFC783;}
	.st31{fill:#3F7F91;}
	.st32{fill:#25BDE5;}
	.st33{fill:#8CDD00;}
	.st34{fill:#D1FF88;}
	.st35{fill:#333333;}
	.st36{fill:#FF9000;}
	.st37{fill:#A1A813;}
	.st38{fill:#B3C40E;}
	.st39{fill:#CACE72;}
	.st40{fill:url(#SVGID_00000132061819489289821120000002025796808669630126_);}
	.st41{fill:#93E800;}
	.st42{fill:#3CB7D3;}
	.st43{fill:#FF7631;}
	.st44{fill:#E6873C;}
	.st45{fill:#30657F;}
	.st46{fill:#FF7A40;}
	.st47{fill:#FFAD4A;}
	.st48{fill:#BC8E3B;}
	.st49{fill:#E2E2E2;}
	.st50{fill:#F2B844;}
	.st51{fill:#AF3838;}
	.st52{fill:#17B5C1;}
	.st53{fill:#A88643;}
	.st54{fill-rule:evenodd;clip-rule:evenodd;fill:#DD7928;}
	.st55{fill:#E6E7E8;stroke:#CFCFCF;stroke-width:0.1061;}
	.st56{fill-rule:evenodd;clip-rule:evenodd;fill:#204F7A;}
	.st57{fill-rule:evenodd;clip-rule:evenodd;fill:#50A4FF;}
	.st58{fill:#002649;}
	.st59{fill:#00134F;}
	.st60{fill:#665200;}
	.st61{fill:#001E7C;}
	.st62{fill:#002349;}
	.st63{fill:#FF914D;}
	.st64{fill:#AC1929;}
	.st65{fill:#004AAD;}
	.st66{fill:#BE1C2D;}
	.st67{fill:#242424;}
	.st68{fill:#F1A75A;}
	.st69{fill-rule:evenodd;clip-rule:evenodd;}
	.st70{fill-rule:evenodd;clip-rule:evenodd;fill:#007177;}
	.st71{fill-rule:evenodd;clip-rule:evenodd;fill:#242424;}
	.st72{fill:#F9951C;}
	.st73{fill:#84123B;}
	.st74{fill:#FFB908;}
	.st75{fill:#393536;}
	.st76{fill:#093F00;}
	.st77{fill:#333300;}
	.st78{fill:#C8D7FF;}
	.st79{fill:#426BD1;}
	.st80{fill:#0036D2;}
</style>
<g id="Layer_1">
</g>
<g id="Layer_12">
</g>
<g id="Layer_13">
</g>
<g id="Layer_14">
</g>
<g id="Layer_15">
</g>
<g id="Layer_11">
</g>
<g id="Layer_8">
</g>
<g id="Layer_10">
</g>
<g id="Layer_9">
</g>
<g id="Layer_2">
</g>
<g id="Layer_3">
</g>
<g id="Layer_4">
</g>
<g id="Layer_5">
</g>
<g id="Layer_6">
</g>
<g id="Layer_7">
	<g>
		<path class="st74" d="M175,6.13l9.8,19.85l21.9,3.19l-15.85,15.45l3.74,21.81L175,56.14l-19.59,10.3l3.74-21.81l-15.85-15.45
			l21.91-3.19L175,6.13z M232.26,46.59l-17.14-0.02l10.41,13.62l-5.32,16.29l16.17-5.69l13.85,10.09l-0.42-17.14l13.88-10.06
			l-16.43-4.9L242,32.49L232.26,46.59z M107.99,32.49l-5.27,16.31l-16.42,4.9l13.88,10.06l-0.42,17.14l13.85-10.09l16.17,5.69
			l-5.32-16.29l10.41-13.62l-17.14,0.02L107.99,32.49z"/>
		<path class="st75" d="M122.65,152l-5.64,0.57l3.46,34.53l-1.8,0.18l-3.42-34.12c-0.79,0.58-1.26,1.55-1.16,2.6l5.83,58.15
			c0.16,1.58,1.57,2.74,3.15,2.58l5.97-0.6c1.58-0.16,2.74-1.57,2.58-3.15l-5.83-58.16C125.65,153,124.24,151.85,122.65,152z
			 M108.27,158.56l-3.85,0.39c-0.07,0-0.14,0.02-0.21,0.03l2.96,29.46l-1.4,0.14l-2.9-28.97c-0.71,0.59-1.11,1.51-1.01,2.49
			l4.81,48.04c0.16,1.58,1.57,2.74,3.15,2.57l3.84-0.38c1.58-0.16,2.74-1.57,2.58-3.15l-4.81-48.04
			C111.26,159.55,109.85,158.4,108.27,158.56z M96.74,166.31l-2.84,0.28c-0.09,0.01-0.18,0.03-0.27,0.04l2.29,22.92l-1.4,0.14
			l-2.24-22.39c-0.66,0.59-1.05,1.48-0.95,2.43l3.5,34.96c0.16,1.58,1.57,2.74,3.15,2.58l2.84-0.29c1.58-0.16,2.74-1.57,2.57-3.15
			l-3.5-34.96C99.73,167.31,98.32,166.16,96.74,166.31 M225.1,182.27l-0.59,5.89c-38.24-4.26-71.02-2.82-93.89-0.41l-0.59-5.89
			C153.2,179.41,186.39,177.96,225.1,182.27 M229.36,154.58l-5.83,58.16c-0.16,1.58,0.99,2.99,2.58,3.15l5.98,0.6
			c1.58,0.16,2.99-0.99,3.15-2.58l5.83-58.15c0.1-1.05-0.37-2.02-1.16-2.6l-3.42,34.12l-1.8-0.18l3.46-34.53l-5.64-0.57
			C230.93,151.85,229.51,153,229.36,154.58z M243.75,161.13l-4.81,48.04c-0.16,1.58,0.99,3,2.57,3.15l3.85,0.38
			c1.58,0.16,2.99-0.99,3.15-2.57l4.81-48.04c0.1-0.99-0.31-1.9-1.01-2.49l-2.9,28.97l-1.4-0.14l2.95-29.46
			c-0.07-0.01-0.14-0.03-0.21-0.03l-3.84-0.39C245.31,158.4,243.91,159.55,243.75,161.13z M255.28,168.89l-3.51,34.96
			c-0.16,1.58,1,2.99,2.58,3.15l2.84,0.29c1.58,0.16,2.99-0.99,3.15-2.58l3.51-34.96c0.09-0.95-0.29-1.84-0.95-2.43l-2.24,22.39
			l-1.4-0.14l2.29-22.92c-0.09-0.02-0.18-0.03-0.28-0.04l-2.84-0.28C256.85,166.16,255.43,167.31,255.28,168.89"/>
	</g>
</g>
</svg>
