<?xml version="1.0" encoding="utf-8"?>
<!-- Generator: Adobe Illustrator 27.8.1, SVG Export Plug-In . SVG Version: 6.00 Build 0)  -->
<svg version="1.1" xmlns="http://www.w3.org/2000/svg" xmlns:xlink="http://www.w3.org/1999/xlink" x="0px" y="0px"
	 viewBox="0 0 350 230" style="enable-background:new 0 0 350 230;" xml:space="preserve">
<style type="text/css">
	.st0{fill:#FF9D00;}
	.st1{fill:url(#SVGID_1_);}
	.st2{opacity:0.22;fill:url(#SVGID_00000050622996035001414660000009266990203610492838_);}
	.st3{fill:#FFC200;}
	.st4{fill:#778718;}
	.st5{fill:#E0B017;}
	.st6{fill:#664407;}
	.st7{fill:#9E690A;}
	.st8{fill:#7F1105;}
	.st9{fill:#191933;}
	.st10{fill:#FCEBD4;}
	.st11{fill:#E3DFD6;}
	.st12{fill:#FFB000;}
	.st13{fill:#AA210E;}
	.st14{fill:#FFF0A6;}
	.st15{fill:#FFDA00;}
	.st16{fill:#F4F4F4;}
	.st17{fill:#DC5C28;}
	.st18{fill:#FF8440;}
	.st19{fill:#C45224;}
	.st20{fill:#2C4369;}
	.st21{fill:#2A72DB;}
	.st22{fill:#C65500;}
	.st23{fill:#C15746;}
	.st24{fill:#FF8C00;}
	.st25{fill:#FFEA2C;}
	.st26{fill:#F7FF57;}
	.st27{fill:#FFFFFF;}
	.st28{fill:#D64949;}
	.st29{fill:#353535;}
	.st30{fill:#FFC783;}
	.st31{fill:#3F7F91;}
	.st32{fill:#25BDE5;}
	.st33{fill:#8CDD00;}
	.st34{fill:#D1FF88;}
	.st35{fill:#333333;}
	.st36{fill:#FF9000;}
	.st37{fill:#A1A813;}
	.st38{fill:#B3C40E;}
	.st39{fill:#CACE72;}
	.st40{fill:url(#SVGID_00000109015572868310612890000000704755608307223947_);}
	.st41{fill:#93E800;}
	.st42{fill:#3CB7D3;}
	.st43{fill:#FF7631;}
	.st44{fill:#E6873C;}
	.st45{fill:#30657F;}
	.st46{fill:#FF7A40;}
	.st47{fill:#FFAD4A;}
	.st48{fill:#BC8E3B;}
	.st49{fill:#E2E2E2;}
	.st50{fill:#F2B844;}
	.st51{fill:#AF3838;}
	.st52{fill:#17B5C1;}
	.st53{fill:#A88643;}
	.st54{fill-rule:evenodd;clip-rule:evenodd;fill:#DD7928;}
	.st55{fill:#E6E7E8;stroke:#CFCFCF;stroke-width:0.1061;}
	.st56{fill-rule:evenodd;clip-rule:evenodd;fill:#204F7A;}
	.st57{fill-rule:evenodd;clip-rule:evenodd;fill:#50A4FF;}
	.st58{fill:#002649;}
	.st59{fill:#00134F;}
	.st60{fill:#665200;}
	.st61{fill:#001E7C;}
	.st62{fill:#002349;}
	.st63{fill:#FF914D;}
	.st64{fill:#AC1929;}
	.st65{fill:#004AAD;}
	.st66{fill:#BE1C2D;}
	.st67{fill:#242424;}
	.st68{fill:#F1A75A;}
	.st69{fill-rule:evenodd;clip-rule:evenodd;}
	.st70{fill-rule:evenodd;clip-rule:evenodd;fill:#007177;}
	.st71{fill-rule:evenodd;clip-rule:evenodd;fill:#242424;}
	.st72{fill:#F9951C;}
	.st73{fill:#84123B;}
	.st74{fill:#FFB908;}
	.st75{fill:#393536;}
	.st76{fill:#093F00;}
	.st77{fill:#333300;}
	.st78{fill:#C8D7FF;}
	.st79{fill:#426BD1;}
	.st80{fill:#0036D2;}
</style>
<g id="Layer_1">
</g>
<g id="Layer_12">
</g>
<g id="Layer_13">
</g>
<g id="Layer_14">
</g>
<g id="Layer_15">
</g>
<g id="Layer_11">
</g>
<g id="Layer_8">
</g>
<g id="Layer_10">
</g>
<g id="Layer_9">
</g>
<g id="Layer_2">
</g>
<g id="Layer_3">
</g>
<g id="Layer_4">
</g>
<g id="Layer_5">
</g>
<g id="Layer_6">
</g>
<g id="Layer_7">
	<g>
		<path class="st66" d="M107.57,87.51c-2.77,0-6.78,7.83-6.78,20.1c0,12.27,4.02,20.1,6.78,20.1h5.28
			c-2.16-5.42-3.35-12.55-3.35-20.1c0-7.55,1.19-14.68,3.35-20.1H107.57z M137.44,132.85c1.62,0,3.43-1.77,4.97-4.86
			c1.55-3.11,2.71-7.33,3.34-12.05h-8.39c-1.2,0-2.18-0.97-2.18-2.18v-10.79c0-1.2,0.98-2.18,2.18-2.18h8.57
			c-0.55-5.11-1.7-9.7-3.32-13.12c-1.59-3.36-3.47-5.28-5.18-5.28c-3.69,0-8.85,9.6-8.85,25.24S133.74,132.85,137.44,132.85z
			 M137.26,102.8h75.48v11.25h-75.48V102.8z M214.41,142.61c-9.56,11.01-23.67,17.98-39.41,17.98c-27.4,0-49.86-21.12-52-47.96
			c-0.11-1.66-0.16-3.35-0.16-5.02c0.01-1.01,0.06-2.01,0.13-3.01c0.55-6.46,2.76-12.48,4.65-17.19c0.8-1.98,1.7-3.66,2.7-5.04h-7.6
			c-3.7,0-8.85,9.6-8.85,25.24c0,0.21,0,0.42,0,0.62c0,0.06,0,0.12,0,0.18c0,33.77,27.37,61.14,61.14,61.14
			c21.1,0,39.71-10.69,50.69-26.95L214.41,142.61L214.41,142.61z"/>
		<path class="st72" d="M212.56,82.38c-1.7,0-3.59,1.93-5.18,5.28c-1.61,3.42-2.77,8.02-3.32,13.12h8.57c1.2,0,2.18,0.98,2.18,2.18
			v10.8c0,1.2-0.97,2.18-2.18,2.18h-8.39c0.63,4.73,1.79,8.95,3.34,12.05c1.54,3.09,3.35,4.86,4.97,4.86c3.69,0,8.85-9.6,8.85-25.24
			C221.41,91.98,216.26,82.38,212.56,82.38z M242.43,87.51h-5.28c2.16,5.42,3.35,12.55,3.35,20.1s-1.19,14.68-3.35,20.1h5.28
			c2.77,0,6.78-7.83,6.78-20.1C249.21,95.35,245.2,87.51,242.43,87.51z M236.14,107.61c0-8.33-1.46-14.94-3.39-19.31
			c-4.85-13.93-14.61-25.57-27.2-32.85c0.21-0.48,0.42-0.97,0.62-1.47c4.79-11.69,5.47-20.9,2.02-27.37c-1.6-3-4.03-5.33-7.22-6.92
			c-3.01-1.5-6.74-2.33-11.09-2.48V17.2h-29.21c-4.59,0.09-8.5,0.93-11.64,2.5c-3.19,1.59-5.62,3.92-7.22,6.92
			c-3.44,6.47-2.76,15.68,2.02,27.37c0.2,0.5,0.41,0.99,0.62,1.47c-8.05,4.65-14.95,11.09-20.14,18.78h11.29
			c9.56-11.02,23.67-17.98,39.41-17.98c28.54,0,51.73,22.92,52.17,51.36c0,7.6-2.6,14.77-4.78,20.2c-0.8,1.98-1.7,3.66-2.7,5.04
			h7.61c3.16,0,7.4-7.04,8.55-18.88h0.05c0.16-1.83,0.25-3.68,0.25-5.55c0-0.1,0-0.2,0-0.3
			C236.14,107.95,236.14,107.78,236.14,107.61z M197.22,50.17c-0.15,0.37-0.3,0.74-0.46,1.1c-6.76-2.58-14.1-3.99-21.76-3.99
			c-7.66,0-15,1.41-21.76,3.99c-0.14-0.32-0.27-0.65-0.41-0.97c-3.54-8.63-4.4-15.42-2.44-19.11c1.44-2.71,4.95-4.14,10.42-4.26
			h28.36c5.47,0.12,8.98,1.55,10.42,4.26C201.56,34.85,200.71,41.59,197.22,50.17z"/>
	</g>
</g>
</svg>
