<?xml version="1.0" encoding="utf-8"?>
<!-- Generator: Adobe Illustrator 27.8.1, SVG Export Plug-In . SVG Version: 6.00 Build 0)  -->
<svg version="1.1" xmlns="http://www.w3.org/2000/svg" xmlns:xlink="http://www.w3.org/1999/xlink" x="0px" y="0px"
	 viewBox="0 0 350 230" style="enable-background:new 0 0 350 230;" xml:space="preserve">
<style type="text/css">
	.st0{fill:#FF9D00;}
	.st1{fill:url(#SVGID_1_);}
	.st2{opacity:0.22;fill:url(#SVGID_00000114032977592325691570000009316915000927745207_);}
	.st3{fill:#FFC200;}
	.st4{fill:#778718;}
	.st5{fill:#E0B017;}
	.st6{fill:#664407;}
	.st7{fill:#9E690A;}
	.st8{fill:#7F1105;}
	.st9{fill:#191933;}
	.st10{fill:#FCEBD4;}
	.st11{fill:#E3DFD6;}
	.st12{fill:#FFB000;}
	.st13{fill:#AA210E;}
	.st14{fill:#FFF0A6;}
	.st15{fill:#FFDA00;}
	.st16{fill:#F4F4F4;}
	.st17{fill:#DC5C28;}
	.st18{fill:#FF8440;}
	.st19{fill:#C45224;}
	.st20{fill:#2C4369;}
	.st21{fill:#2A72DB;}
	.st22{fill:#C65500;}
	.st23{fill:#C15746;}
	.st24{fill:#FF8C00;}
	.st25{fill:#FFEA2C;}
	.st26{fill:#F7FF57;}
	.st27{fill:#FFFFFF;}
	.st28{fill:#D64949;}
	.st29{fill:#353535;}
	.st30{fill:#FFC783;}
	.st31{fill:#3F7F91;}
	.st32{fill:#25BDE5;}
	.st33{fill:#8CDD00;}
	.st34{fill:#D1FF88;}
	.st35{fill:#333333;}
	.st36{fill:#FF9000;}
	.st37{fill:#A1A813;}
	.st38{fill:#B3C40E;}
	.st39{fill:#CACE72;}
	.st40{fill:url(#SVGID_00000165919879424425646350000001823083781849057682_);}
	.st41{fill:#93E800;}
	.st42{fill:#3CB7D3;}
	.st43{fill:#FF7631;}
	.st44{fill:#E6873C;}
	.st45{fill:#30657F;}
	.st46{fill:#FF7A40;}
	.st47{fill:#FFAD4A;}
	.st48{fill:#BC8E3B;}
	.st49{fill:#E2E2E2;}
	.st50{fill:#F2B844;}
	.st51{fill:#AF3838;}
	.st52{fill:#17B5C1;}
	.st53{fill:#A88643;}
	.st54{fill-rule:evenodd;clip-rule:evenodd;fill:#DD7928;}
	.st55{fill:#E6E7E8;stroke:#CFCFCF;stroke-width:0.1061;}
	.st56{fill-rule:evenodd;clip-rule:evenodd;fill:#204F7A;}
	.st57{fill-rule:evenodd;clip-rule:evenodd;fill:#50A4FF;}
	.st58{fill:#002649;}
	.st59{fill:#00134F;}
	.st60{fill:#665200;}
	.st61{fill:#001E7C;}
	.st62{fill:#002349;}
	.st63{fill:#FF914D;}
	.st64{fill:#AC1929;}
	.st65{fill:#004AAD;}
	.st66{fill:#BE1C2D;}
	.st67{fill:#242424;}
	.st68{fill:#F1A75A;}
	.st69{fill-rule:evenodd;clip-rule:evenodd;}
	.st70{fill-rule:evenodd;clip-rule:evenodd;fill:#007177;}
	.st71{fill-rule:evenodd;clip-rule:evenodd;fill:#242424;}
	.st72{fill:#F9951C;}
	.st73{fill:#84123B;}
	.st74{fill:#FFB908;}
	.st75{fill:#393536;}
	.st76{fill:#093F00;}
	.st77{fill:#333300;}
	.st78{fill:#C8D7FF;}
	.st79{fill:#426BD1;}
	.st80{fill:#0036D2;}
</style>
<g id="Layer_1">
</g>
<g id="Layer_12">
</g>
<g id="Layer_13">
</g>
<g id="Layer_14">
</g>
<g id="Layer_15">
</g>
<g id="Layer_11">
</g>
<g id="Layer_8">
</g>
<g id="Layer_10">
</g>
<g id="Layer_9">
</g>
<g id="Layer_2">
</g>
<g id="Layer_3">
</g>
<g id="Layer_4">
</g>
<g id="Layer_5">
</g>
<g id="Layer_6">
</g>
<g id="Layer_7">
	<g>
		<path d="M297.58,54.16c6.45,0,11.69,5.22,11.69,11.69v57.39c0,6.45-5.22,11.69-11.69,11.69c-6.45,0-11.69-5.22-11.69-11.69v-57.4
			C285.89,59.38,291.12,54.16,297.58,54.16z M270.39,54.16c6.45,0,11.69,5.22,11.69,11.69v57.39c0,6.45-5.22,11.69-11.69,11.69
			c-6.46,0-11.69-5.22-11.69-11.69v-57.4C258.7,59.38,263.94,54.16,270.39,54.16z M327.78,94.53c0,4.01-3.25,7.25-7.25,7.25h-8.86
			V87.29h8.86C324.53,87.29,327.78,90.52,327.78,94.53z M146.52,107.21L170.3,131l40.49-40.49c1.63-1.62,3.96-2.37,6.23-2.04
			c2.29,0.35,4.26,1.77,5.32,3.81l6.12,11.74l6.82-12.89c1.26-2.38,3.72-3.86,6.4-3.86h14.6v14.5h-10.24L234.8,123
			c-1.26,2.37-3.72,3.85-6.4,3.85c-0.02,0-0.02,0-0.02,0c-2.7-0.02-5.16-1.52-6.4-3.89l-7.92-15.21l-38.62,38.62
			c-1.41,1.42-3.27,2.12-5.12,2.12c-1.86,0-3.71-0.7-5.12-2.12l-28.94-28.9c-2.83-2.83-2.83-7.41,0-10.26
			C139.09,104.37,143.69,104.39,146.52,107.21z"/>
		<path class="st65" d="M52.42,54.16c6.45,0,11.69,5.22,11.69,11.69v57.39c0,6.45-5.22,11.69-11.69,11.69
			c-6.47,0-11.69-5.22-11.69-11.69v-57.4C40.75,59.38,45.97,54.16,52.42,54.16z M79.61,54.16c6.45,0,11.69,5.22,11.69,11.69v57.39
			c0,6.45-5.22,11.69-11.69,11.69s-11.69-5.22-11.69-11.69v-57.4C67.93,59.38,73.16,54.16,79.61,54.16z M29.46,87.29h8.86v14.5
			h-8.86c-4.01,0-7.24-3.25-7.24-7.25C22.22,90.56,25.47,87.29,29.46,87.29z M115.2,66.06c1.26-2.37,3.72-3.85,6.4-3.85
			c0.02,0,0.02,0,0.02,0c2.7,0.02,5.15,1.52,6.4,3.89l7.92,15.21l38.62-38.62c1.41-1.42,3.26-2.12,5.12-2.12
			c1.85,0,3.71,0.7,5.12,2.12l28.94,28.9c2.83,2.83,2.83,7.41,0,10.26c-2.83,2.83-7.41,2.83-10.26,0L179.7,58.06l-40.5,40.5
			c-1.63,1.62-3.96,2.37-6.23,2.04c-2.29-0.35-4.26-1.77-5.32-3.81l-6.11-11.74l-6.82,12.89c-1.26,2.38-3.72,3.86-6.4,3.86H93.71
			v-14.5h10.24L115.2,66.06z"/>
	</g>
</g>
</svg>
