<?xml version="1.0" encoding="utf-8"?>
<!-- Generator: Adobe Illustrator 27.8.1, SVG Export Plug-In . SVG Version: 6.00 Build 0)  -->
<svg version="1.1" xmlns="http://www.w3.org/2000/svg" xmlns:xlink="http://www.w3.org/1999/xlink" x="0px" y="0px"
	 viewBox="0 0 350 230" style="enable-background:new 0 0 350 230;" xml:space="preserve">
<style type="text/css">
	.st0{fill:#FF9D00;}
	.st1{fill:url(#SVGID_1_);}
	.st2{opacity:0.22;fill:url(#SVGID_00000036955952675975685530000001047331807068172967_);}
	.st3{fill:#FFC200;}
	.st4{fill:#778718;}
	.st5{fill:#E0B017;}
	.st6{fill:#664407;}
	.st7{fill:#9E690A;}
	.st8{fill:#7F1105;}
	.st9{fill:#191933;}
	.st10{fill:#FCEBD4;}
	.st11{fill:#E3DFD6;}
	.st12{fill:#FFB000;}
	.st13{fill:#AA210E;}
	.st14{fill:#FFF0A6;}
	.st15{fill:#FFDA00;}
	.st16{fill:#F4F4F4;}
	.st17{fill:#DC5C28;}
	.st18{fill:#FF8440;}
	.st19{fill:#C45224;}
	.st20{fill:#2C4369;}
	.st21{fill:#2A72DB;}
	.st22{fill:#C65500;}
	.st23{fill:#C15746;}
	.st24{fill:#FF8C00;}
	.st25{fill:#FFEA2C;}
	.st26{fill:#F7FF57;}
	.st27{fill:#FFFFFF;}
	.st28{fill:#D64949;}
	.st29{fill:#353535;}
	.st30{fill:#FFC783;}
	.st31{fill:#3F7F91;}
	.st32{fill:#25BDE5;}
	.st33{fill:#8CDD00;}
	.st34{fill:#D1FF88;}
	.st35{fill:#333333;}
	.st36{fill:#FF9000;}
	.st37{fill:#A1A813;}
	.st38{fill:#B3C40E;}
	.st39{fill:#CACE72;}
	.st40{fill:url(#SVGID_00000099651007135728543260000015006712882104542336_);}
	.st41{fill:#93E800;}
	.st42{fill:#3CB7D3;}
	.st43{fill:#FF7631;}
	.st44{fill:#E6873C;}
	.st45{fill:#30657F;}
	.st46{fill:#FF7A40;}
	.st47{fill:#FFAD4A;}
	.st48{fill:#BC8E3B;}
	.st49{fill:#E2E2E2;}
	.st50{fill:#F2B844;}
	.st51{fill:#AF3838;}
	.st52{fill:#17B5C1;}
	.st53{fill:#A88643;}
	.st54{fill-rule:evenodd;clip-rule:evenodd;fill:#DD7928;}
	.st55{fill:#E6E7E8;stroke:#CFCFCF;stroke-width:0.1061;}
	.st56{fill-rule:evenodd;clip-rule:evenodd;fill:#204F7A;}
	.st57{fill-rule:evenodd;clip-rule:evenodd;fill:#50A4FF;}
	.st58{fill:#002649;}
</style>
<g id="Layer_1">
</g>
<g id="Layer_12">
</g>
<g id="Layer_13">
</g>
<g id="Layer_14">
</g>
<g id="Layer_15">
</g>
<g id="Layer_11">
</g>
<g id="Layer_8">
</g>
<g id="Layer_10">
</g>
<g id="Layer_9">
</g>
<g id="Layer_2">
</g>
<g id="Layer_3">
	<path class="st42" d="M178.26,174.12c-47.37-27.11-39.98-78.66-39.98-78.66s10.87-13.76,40.16-13.7
		c29.29,0.06,40.11,13.86,40.11,13.86S225.73,147.19,178.26,174.12z"/>
	<path class="st43" d="M217.11,89.57c-5.93-4.57-18.07-11.24-38.66-11.27c-20.66-0.04-32.85,6.6-38.76,11.15
		c0.01-0.1,0.02-0.2,0.03-0.3c0.91-7.49,3.91-17.79,12.31-29.67c-0.28,0.48-0.55,0.96-0.78,1.47c-0.38,0.81-0.74,1.78-0.48,2.68
		c0.09,0.32,0.32,0.74,0.63,0.89c3.24,1.7,7.65-7.37,11.62-12.22c2.63-3.21,5.65-6.17,8.87-8.8c1.62-1.33,3.23-2.66,4.75-4.08
		c1.48-1.36,3.05-2.72,4.27-4.32c1.61-2.09,2.62-4.65,3.57-7.1c0.92-2.32,1.7-4.67,2.32-7.1c0.03,0.46,0.07,0.91,0.08,1.35
		c0.09,2.39-0.46,4.69-1.31,6.91c-1.19,3.14-2.75,6.12-4.08,9.18c-0.58,1.34-1.13,2.7-1.52,4.1c-0.25,0.87-0.49,1.85-0.35,2.76
		c0.25,1.49,1.67,1,2.53,0.34c1.48-1.14,2.53-2.84,3.33-4.5c0.82-1.7,1.41-3.51,1.97-5.3c1.01-3.2,2.16-6.42,2.36-9.79
		c0.22-3.68-0.55-7.34-1.21-10.94c0.74,1.25,1.31,2.53,1.66,3.95c0.53,2.1,0.74,4.28,0.88,6.45c0.21,3.31,0.13,6.58-0.46,9.85
		c-0.19,1.12-0.45,2.25-0.41,3.39c0.01,0.55,0.09,1.51,0.81,1.58c0.73,0.08,1.44-0.7,1.89-1.17c0.67-0.69,1.25-1.47,1.9-2.18
		c0.5-0.56,1.07-1.05,1.76-1.39c0.65-0.32,1.35-0.54,2.06-0.74c-1.05,0.86-2.04,1.77-2.84,2.87c-0.93,1.29-1.67,2.71-2.29,4.17
		c-1.17,2.76-1.95,5.76-1.93,8.78c0,1.19,0.03,2.76,0.77,3.78c0.56,0.77,1.21,0.2,1.53-0.46c0.62-1.21,0.75-2.66,0.94-3.98
		c0.21-1.52,0.41-3.04,0.87-4.51c0.73-2.36,2.11-4.29,3.71-6.14c-0.36,0.64-4.59,10.65-0.59,20.86c-0.06-0.39-0.74-5.45,4.88-11.52
		c-0.3,0.63-3.59,9.86,3.38,19.33h-0.01C212.61,73.94,216.11,81.53,217.11,89.57z M165.59,47.12c3.96-3.47,4.55-7.81,4.55-7.81
		c-2.74,4.81-7.67,6.37-7.67,6.37c2.85-3.84,4.75-3.29,7.13-8.49c2.38-5.2-0.25-11.51-0.25-11.51c2.09,10.03-7.82,15.01-11.55,20.69
		c-3.73,5.67-3.11,12.62-3.11,12.62C155.51,55.29,161.63,50.59,165.59,47.12z M178.4,94.42c-15.41,0-27.91,12.5-27.91,27.91
		c0,15.41,12.5,27.91,27.91,27.91c15.41,0,27.91-12.5,27.91-27.91C206.31,106.91,193.81,94.42,178.4,94.42z"/>
	<path class="st44" d="M202.16,117.05c0,11.25-9.12,20.37-20.37,20.37c-11.25,0-20.37-9.12-20.37-20.37s9.12-20.37,20.37-20.37
		C193.04,96.68,202.16,105.8,202.16,117.05z"/>
	<path class="st27" d="M179.19,104.11c-2.39-1.55-5.38-2.34-8.95-2.34c-1.04,0-2.14,0.07-3.28,0.2c-3.38,0.39-6.49,1.32-8.57,2.05
		c0.29-0.31,0.59-0.63,0.91-0.94c1.95-0.63,4.44-1.26,7.08-1.58C171.75,100.87,176.05,101.74,179.19,104.11z M183.17,109.01
		c-6.25,1.11-12.16,3.4-17.68,6.89c-6.91,4.35-11.41,9.51-13.53,12.48c0.07,0.29,0.13,0.57,0.21,0.85
		c1.29-1.86,5.82-7.82,14.01-12.91c5.37-3.32,11.16-5.59,17.22-6.73C183.34,109.39,183.26,109.2,183.17,109.01z M189.68,106.95
		c-1.61,0.09-3.22,0.26-4.8,0.5c-1.89-3.2-4.63-5.41-8.14-6.59c-1.95-0.65-4.16-0.97-6.55-0.97c-1.11,0-2.28,0.07-3.47,0.2
		c-1.67,0.2-3.39,0.53-5.14,0.98c-0.03,0.02-0.07,0.06-0.1,0.08c1.45-0.38,3.05-0.7,4.73-0.91c3.68-0.44,6.96-0.18,9.73,0.76
		c3.44,1.17,6.12,3.4,7.94,6.62c1.92-0.3,3.88-0.5,5.86-0.58C189.71,107.02,189.7,106.98,189.68,106.95z M190.57,108.76
		c-0.08-0.17-0.16-0.34-0.23-0.5c-1.99,0.07-3.96,0.25-5.89,0.54c1.33,3.21,1.01,7.22-0.97,11.94c-1.71,4.07-4.65,8.7-8.75,13.76
		c-3.53,4.35-7.34,8.29-10.22,11.12c0.23,0.13,0.47,0.28,0.7,0.4c2.85-2.73,6.79-6.73,10.45-11.16c4.18-5.08,7.19-9.73,8.95-13.83
		c1.96-4.62,2.35-8.59,1.14-11.81C187.33,108.98,188.95,108.84,190.57,108.76z M195.35,106.88c-0.73-0.03-1.47-0.04-2.18-0.04h-0.88
		c-1.97-3.84-4.37-7.18-6.96-9.7c-0.51-0.5-1.04-0.96-1.57-1.4c-0.48-0.09-0.96-0.18-1.44-0.25c0.65,0.5,1.3,1.07,1.93,1.71
		c2.57,2.54,4.95,5.95,6.87,9.8c1.42-0.03,2.85,0,4.31,0.08C195.41,107.02,195.37,106.95,195.35,106.88z M193.69,109.86
		c-0.16-0.38-0.32-0.76-0.5-1.15c0.98,0,1.99,0.03,3,0.09c-0.07-0.15-0.13-0.28-0.2-0.42c-1.43-0.1-2.86-0.15-4.27-0.13
		c0.25,0.53,0.48,1.05,0.7,1.59c4.53,10.85,5.83,25.5-2.38,37c0.78-0.37,1.55-0.78,2.29-1.23c1.3-2.05,2.35-4.23,3.15-6.53
		c1.1-3.15,1.72-6.54,1.86-10.08C197.66,121.03,195.54,114.2,193.69,109.86z M200.99,107.35c-0.96-0.13-1.92-0.23-2.87-0.31
		c-0.74-1.68-1.25-3.29-1.55-4.83v-0.01c-0.49-0.44-1-0.86-1.52-1.26c0.23,1.97,0.84,4.06,1.79,6.25c1.45,0.12,2.93,0.29,4.41,0.53
		C201.15,107.59,201.08,107.46,200.99,107.35z M205.37,119.42c-0.89-1.57-1.87-3.09-2.81-4.56c-1.21-1.89-2.46-3.85-3.5-5.84
		c1.05,0.11,2.11,0.25,3.19,0.41c-0.06-0.11-0.11-0.21-0.17-0.31c-1.57-0.27-3.11-0.48-4.64-0.63c0.08,0.17,0.17,0.34,0.26,0.51
		c1.04,2,2.27,3.96,3.46,5.86c1.21,1.91,2.45,3.89,3.5,5.94c0.31,0.62,0.6,1.21,0.86,1.8c0.01-0.09,0.01-0.19,0.01-0.28
		C205.53,121.34,205.47,120.37,205.37,119.42z"/>
	<path class="st45" d="M222.63,96.17l-0.19-1.33l-0.83-1.06c-0.17-0.2-1.58-1.96-4.5-4.21c-5.93-4.57-18.07-11.24-38.66-11.27
		c-20.66-0.04-32.85,6.6-38.76,11.15c-2.9,2.23-4.29,3.95-4.45,4.15l-0.84,1.06l-0.19,1.33c-0.08,0.56-1.9,13.77,2.28,30.45
		c2.46,9.83,6.5,18.84,12,26.83c6.89,9.98,16.06,18.29,27.29,24.7l2.47,1.42l2.48-1.41c11.25-6.37,20.45-14.65,27.38-24.6
		c5.55-7.95,9.62-16.95,12.11-26.77C224.46,109.95,222.69,96.73,222.63,96.17z M178.25,177.04c-49.42-28.29-41.7-82.08-41.7-82.08
		s0.91-1.15,2.9-2.8c5.06-4.17,17.09-11.55,39-11.51c21.85,0.04,33.85,7.43,38.92,11.63c2.01,1.67,2.93,2.84,2.93,2.84
		S227.79,148.94,178.25,177.04z M205.06,111.06c-1.47-3.44-3.55-6.53-6.21-9.19c-2.65-2.65-5.75-4.74-9.19-6.2
		c-3.57-1.51-7.35-2.27-11.26-2.27c-3.9,0-7.68,0.76-11.25,2.27c-3.44,1.45-6.54,3.55-9.19,6.2c-2.66,2.66-4.74,5.75-6.21,9.19
		c-1.51,3.57-2.27,7.36-2.27,11.26c0,3.9,0.76,7.69,2.27,11.26c1.47,3.44,3.55,6.54,6.21,9.19c2.65,2.66,5.75,4.74,9.19,6.2
		c3.57,1.51,7.35,2.28,11.25,2.28c3.91,0,7.69-0.77,11.26-2.28c3.44-1.45,6.54-3.53,9.19-6.2c2.66-2.65,4.74-5.75,6.21-9.19
		c1.5-3.57,2.27-7.36,2.27-11.26C207.33,118.42,206.56,114.63,205.06,111.06z M196.56,102.2v0.01c1.69,1.51,3.18,3.24,4.43,5.14
		c0.09,0.11,0.17,0.23,0.25,0.36c-1.48-0.23-2.95-0.4-4.41-0.53c-0.95-2.19-1.55-4.28-1.79-6.25
		C195.56,101.33,196.07,101.76,196.56,102.2z M183.76,95.74c3.62,0.73,6.99,2.18,9.93,4.2c0.12,2.19,0.67,4.5,1.66,6.93
		c0.02,0.07,0.06,0.13,0.08,0.2c-1.45-0.08-2.89-0.11-4.31-0.08c-1.91-3.85-4.29-7.26-6.87-9.8c-0.64-0.64-1.29-1.21-1.93-1.71
		C182.8,95.56,183.28,95.65,183.76,95.74z M161.58,101.08c4.62-3.68,10.47-5.87,16.82-5.87c0.39,0,0.79,0.01,1.19,0.03h0.17
		c0.34,0.2,0.66,0.41,1,0.65c0.12,0.08,0.25,0.17,0.37,0.26c0.75,0.57,1.51,1.22,2.26,1.96c2.34,2.3,4.51,5.38,6.31,8.85
		c0.02,0.03,0.03,0.07,0.06,0.1c-1.98,0.08-3.94,0.28-5.86,0.58c-1.82-3.22-4.5-5.45-7.94-6.62c-2.77-0.94-6.05-1.2-9.73-0.76
		c-1.68,0.2-3.28,0.53-4.73,0.91C161.51,101.13,161.54,101.1,161.58,101.08z M151.63,126.7c-0.23-1.42-0.36-2.89-0.36-4.37
		c0-7.05,2.7-13.46,7.11-18.3c0,0,0,0,0.01-0.01c0.29-0.31,0.59-0.63,0.91-0.94c1.95-0.63,4.44-1.26,7.08-1.58
		c5.37-0.64,9.66,0.23,12.81,2.61c0.01,0,0.02,0.01,0.03,0.02c1.31,0.98,2.42,2.23,3.33,3.74c-0.2,0.03-0.4,0.08-0.59,0.11
		c-0.22,0.04-0.45,0.09-0.67,0.13c-5.83,1.24-11.37,3.5-16.48,6.72c-3.85,2.43-7.49,5.46-10.55,8.75
		C153.22,124.71,152.34,125.76,151.63,126.7z M152.17,129.23c-0.08-0.28-0.15-0.56-0.21-0.85c2.12-2.97,6.62-8.13,13.53-12.48
		c5.52-3.49,11.43-5.78,17.68-6.89c0.09,0.19,0.17,0.38,0.23,0.58c1.05,2.84,0.68,6.41-1.1,10.66c-1.66,3.96-4.53,8.49-8.56,13.44
		c-3.59,4.43-7.45,8.42-10.34,11.23C157.95,141.28,153.87,135.74,152.17,129.23z M187.72,147.8h-0.01
		c-2.91,1.06-6.04,1.64-9.32,1.64c-4.79,0-9.28-1.24-13.19-3.43c-0.23-0.12-0.47-0.27-0.7-0.4c2.89-2.83,6.69-6.77,10.22-11.12
		c4.09-5.06,7.03-9.68,8.75-13.76c1.98-4.72,2.3-8.73,0.97-11.94c1.93-0.29,3.9-0.47,5.89-0.54c0.08,0.17,0.16,0.34,0.23,0.5
		c0.23,0.5,0.46,1.03,0.68,1.55C195.86,121.36,197.04,136.48,187.72,147.8z M192.33,145.59c-0.74,0.45-1.51,0.86-2.29,1.23
		c8.21-11.5,6.91-26.15,2.38-37c-0.22-0.54-0.46-1.06-0.7-1.59c1.41-0.01,2.84,0.03,4.27,0.13c0.07,0.15,0.13,0.28,0.2,0.42
		c0.12,0.26,0.26,0.53,0.39,0.78c1.06,2.06,2.3,4.04,3.51,5.96c1.19,1.89,2.42,3.84,3.44,5.85c0.75,1.44,1.34,2.84,1.79,4.19
		C204.32,134.08,199.35,141.37,192.33,145.59z M204.65,120.81c-1.05-2.05-2.29-4.03-3.5-5.94c-1.19-1.9-2.42-3.86-3.46-5.86
		c-0.09-0.18-0.18-0.35-0.26-0.51c1.53,0.15,3.08,0.36,4.64,0.63c0.06,0.1,0.11,0.2,0.17,0.31c1.66,3.02,2.74,6.41,3.12,9.99
		c0.1,0.95,0.16,1.92,0.16,2.91c0,0.09,0,0.19-0.01,0.28C205.26,122.01,204.97,121.42,204.65,120.81z"/>
</g>
<g id="Layer_4">
</g>
<g id="Layer_5">
</g>
<g id="Layer_6">
</g>
<g id="Layer_7">
</g>
</svg>
