<?xml version="1.0" encoding="utf-8"?>
<!-- Generator: Adobe Illustrator 27.8.1, SVG Export Plug-In . SVG Version: 6.00 Build 0)  -->
<svg version="1.1" xmlns="http://www.w3.org/2000/svg" xmlns:xlink="http://www.w3.org/1999/xlink" x="0px" y="0px"
	 viewBox="0 0 350 230" style="enable-background:new 0 0 350 230;" xml:space="preserve">
<style type="text/css">
	.st0{fill:#FF9D00;}
	.st1{fill:url(#SVGID_1_);}
	.st2{opacity:0.22;fill:url(#SVGID_00000133515639145741286240000010223720500886468028_);}
	.st3{fill:#FFC200;}
	.st4{fill:#778718;}
	.st5{fill:#E0B017;}
	.st6{fill:#664407;}
	.st7{fill:#9E690A;}
	.st8{fill:#7F1105;}
	.st9{fill:#191933;}
	.st10{fill:#FCEBD4;}
	.st11{fill:#E3DFD6;}
	.st12{fill:#FFB000;}
	.st13{fill:#AA210E;}
	.st14{fill:#FFF0A6;}
	.st15{fill:#FFDA00;}
	.st16{fill:#F4F4F4;}
	.st17{fill:#DC5C28;}
	.st18{fill:#FF8440;}
	.st19{fill:#C45224;}
	.st20{fill:#2C4369;}
	.st21{fill:#2A72DB;}
	.st22{fill:#C65500;}
	.st23{fill:#C15746;}
	.st24{fill:#FF8C00;}
	.st25{fill:#FFEA2C;}
	.st26{fill:#F7FF57;}
	.st27{fill:#FFFFFF;}
	.st28{fill:#D64949;}
	.st29{fill:#353535;}
	.st30{fill:#FFC783;}
	.st31{fill:#3F7F91;}
	.st32{fill:#25BDE5;}
	.st33{fill:#8CDD00;}
	.st34{fill:#D1FF88;}
	.st35{fill:#333333;}
	.st36{fill:#FF9000;}
	.st37{fill:#A1A813;}
	.st38{fill:#B3C40E;}
	.st39{fill:#CACE72;}
	.st40{fill:url(#SVGID_00000122701092790667302370000001936186954960816017_);}
	.st41{fill:#93E800;}
	.st42{fill:#3CB7D3;}
	.st43{fill:#FF7631;}
	.st44{fill:#E6873C;}
	.st45{fill:#30657F;}
	.st46{fill:#FF7A40;}
	.st47{fill:#FFAD4A;}
	.st48{fill:#BC8E3B;}
	.st49{fill:#E2E2E2;}
	.st50{fill:#F2B844;}
	.st51{fill:#AF3838;}
	.st52{fill:#17B5C1;}
	.st53{fill:#A88643;}
	.st54{fill-rule:evenodd;clip-rule:evenodd;fill:#DD7928;}
	.st55{fill:#E6E7E8;stroke:#CFCFCF;stroke-width:0.1061;}
	.st56{fill-rule:evenodd;clip-rule:evenodd;fill:#204F7A;}
	.st57{fill-rule:evenodd;clip-rule:evenodd;fill:#50A4FF;}
	.st58{fill:#002649;}
	.st59{fill:#00134F;}
	.st60{fill:#665200;}
	.st61{fill:#001E7C;}
	.st62{fill:#002349;}
	.st63{fill:#FF914D;}
	.st64{fill:#AC1929;}
	.st65{fill:#004AAD;}
	.st66{fill:#BE1C2D;}
	.st67{fill:#242424;}
	.st68{fill:#F1A75A;}
	.st69{fill-rule:evenodd;clip-rule:evenodd;}
	.st70{fill-rule:evenodd;clip-rule:evenodd;fill:#007177;}
	.st71{fill-rule:evenodd;clip-rule:evenodd;fill:#242424;}
	.st72{fill:#F9951C;}
	.st73{fill:#84123B;}
	.st74{fill:#FFB908;}
	.st75{fill:#393536;}
	.st76{fill:#093F00;}
	.st77{fill:#333300;}
	.st78{fill:#C8D7FF;}
	.st79{fill:#426BD1;}
	.st80{fill:#0036D2;}
</style>
<g id="Layer_1">
</g>
<g id="Layer_12">
</g>
<g id="Layer_13">
</g>
<g id="Layer_14">
</g>
<g id="Layer_15">
</g>
<g id="Layer_11">
</g>
<g id="Layer_8">
</g>
<g id="Layer_10">
</g>
<g id="Layer_9">
</g>
<g id="Layer_2">
</g>
<g id="Layer_3">
</g>
<g id="Layer_4">
</g>
<g id="Layer_5">
</g>
<g id="Layer_6">
</g>
<g id="Layer_7">
	<g>
		<path class="st78" d="M219.3,110.99c-0.85,0.27-1.55,0.5-1.98,0.64c-0.4-1.6-1.81-6.76-3.89-9.71c-0.18-0.26-0.37-0.5-0.57-0.73
			c-0.09-0.12-0.19-0.23-0.3-0.34c-0.11,0.1-0.23,0.2-0.34,0.3c-0.11,0.1-0.23,0.2-0.34,0.3c-0.03,0.03-0.06,0.05-0.09,0.08
			c-3.6,3.19-8.16,6.92-9.72,7.3c-2.44,0.6-10.86,3.38-10.86,3.38s-1.52-6.62-3.94-10.04c-2.41-3.43-6.7-4.71-7.04-5.19
			c-0.34-0.47-0.09-4.26-1.76-8.19c-0.02-0.06-0.05-0.12-0.08-0.18c-1.14-2.59-2.84-4.57-3.9-5.63c-0.56-0.57-0.94-0.88-0.94-0.88
			s1.31-2.87,2.13-4.1c0.82-1.23,4.56-3.76,5.89-4.43c1.32-0.67,4.21-0.49,7.28,0.43c3.07,0.92,3.18-0.52,4.01-2.69
			c0.84-2.16,0.37-3.18,0.37-3.18s0.05-0.05,0.68-0.47c0.64-0.43,0.41-0.81,0.33-1.35c-0.08-0.54-0.6-0.55-0.65-0.87
			c-0.01-0.05,0.02-0.11,0.06-0.16c0.24-0.31,1.13-0.73,1.36-1.18c0.27-0.53-0.19-0.97-0.31-1.63c-0.12-0.66,0.21-1.31,0.95-1.51
			c0.74-0.19,2.94-0.64,2.87-1.73c-0.06-1.07-2.46-5.27-2.87-5.93c-0.42-0.66-0.46-2.58,0.38-3.95c0.84-1.37,0.67-3.45,0.06-5.1
			c-0.4-1.09-1.87-5.11-4.33-8.37c-0.02-0.04-0.05-0.07-0.08-0.11c-0.09-0.12-0.18-0.24-0.28-0.36c-0.09-0.12-0.19-0.23-0.29-0.35
			c-0.03-0.03-0.06-0.06-0.09-0.1c-1.16-1.35-2.5-2.48-4.02-3.09c-11.18-4.46-26.67,1.2-26.09,15.8c0.23,5.8,0.68,7.18,0.29,10.12
			c-0.32,2.48-1.03,5.05-1.24,5.8c-0.01,0.05-0.03,0.09-0.04,0.12c-0.02,0.06-0.02,0.09-0.02,0.09s-0.71,0.14-2.25,0.32
			c-0.83,0.09-1.9,0.19-3.22,0.29c-2.14,0.15-4.19,0.61-5.66,1.02c-0.34,0.1-0.66,0.19-0.93,0.27c0,0-0.01,0-0.01,0
			c-0.61,0.19-1.04,0.34-1.21,0.4c-0.12,0.04-0.4,0.02-0.82-0.07c-0.11-0.02-0.23-0.04-0.35-0.07c-0.33-0.07-0.74-0.15-1.22-0.26
			c-0.45-0.1-0.98-0.21-1.56-0.33c-0.4-0.08-0.82-0.16-1.27-0.25c-1.76-0.33-3.93-0.68-6.46-0.91c-6.9-0.63-16.5,1.7-17.81,1.63
			c-1.31-0.07-2.58-0.42-3.85,0.03c-1.27,0.45-2.17,1.83-4.28,3.06c-2.11,1.22-9.73,5.05-16.69,12.06
			c-4.15,4.19-7.89,8.58-10.4,11.55l0,0c-1.07,1.27-3.15,1.88-3.95,2.21c-1.3,0.84-2.73,1.42-4.04,2.18
			c-1.17,0.69-2.28,1.34-3.47,1.88c-0.44,0.28-0.87,0.56-1.31,0.83c-0.64,0.34-1.35,0.58-2,0.81c-0.61,0.21-1.22,0.42-1.83,0.64
			c-0.38,0.21-0.76,0.41-1.14,0.61c-0.76,0.29-1.52,0.51-2.32,0.87c-0.32,0.14-0.51,0.29-0.8,0.53c-0.1,0.04-0.2,0.09-0.3,0.14
			c-0.33,0.29-0.03,0.71,0.16,0.99c0.5,0.75,1.91,0.22,2.44,0.02c0.71-0.25,1.51-0.64,2.25-0.75c0.5-0.1,1-0.18,1.5-0.28
			c0.69-0.23,1.53-0.7,2.24-0.48c0.14,0.2,0.08,0.42,0.1,0.62c-1.44,1.48-3.04,2.08-4.49,2.99c-0.72,0.53-1.44,1.06-2.15,1.6
			c-0.66,0.38-1.31,0.76-1.97,1.14c-0.28,0.21-0.57,0.42-0.86,0.62c-0.93,0.55-1.91,1.14-1.18,2.31c0.7,1.12,2.15-0.25,2.88-0.6
			c1.11-0.54,2.21-1.36,3.33-1.93c0.81-0.4,1.64-0.66,2.45-1.14c0.66-0.39,1.91-1.59,2.55-1.45c0.06,0.18,0.13,0.36,0.2,0.54
			c-0.2,0.49-0.9,1.2-1.33,1.55c-0.74,0.72-1.47,1.44-2.21,2.16c-0.58,0.46-0.89,1.16-1.19,1.66c-0.47,0.79-1.5,2.16-2.23,2.75
			c-0.33,0.37-0.65,0.73-0.98,1.09c-0.77,0.72-1.49,1.52-0.92,2.31c0.15,0.22,0.33,0.21,0.48,0.29c1.07,0.56,1.63-0.45,2.65-1.26
			c0.46-0.37,0.84-0.97,1.33-1.38c0.54-0.57,1.09-1.15,1.63-1.72c0.25-0.24,0.5-0.49,0.74-0.73c0.19-0.23,0.39-0.45,0.57-0.68
			c0.53-0.56,1.05-1.12,1.58-1.69c0.65-0.61,1.28-1.44,1.92-1.87c0.33,0.31,0.46,0.57,0.52,0.87c-0.97,1.28-1.94,2.57-2.92,3.85
			c-0.3,0.62-0.6,1.25-0.9,1.87c-0.52,0.95-1.27,1.82-1.74,2.73c-0.36,0.71-1.55,2.76-0.29,3.05c1.2,0.28,2.89-2,3.58-3.23
			c0.51-0.91,1.41-1.64,1.97-2.57c1.16-1.92,2.84-4.15,4.62-5.55c0.36-0.33,0.71-0.68,1.06-1.01c0.37-0.21,0.73-0.42,1.1-0.63
			c0.17-0.09,0.34-0.26,0.51-0.27c0.01,0.02,0.01,0.04,0.01,0.06c0.21,0.79-0.28,1.57-0.51,2.38c-0.46,1.63-1.12,2.99-1.2,4.61
			c-0.04,0.73-0.12,1.96,0.92,2.52c0.55,0.3,1.08-0.8,1.26-1.24c0.19-0.48,0.41-1.08,0.67-1.57c0.3-0.55,0.61-1.1,0.91-1.65
			c0.18-0.55,0.28-1.11,0.45-1.69c0.16-0.56,0.33-1.12,0.5-1.68c0.27-0.66,0.77-1.27,1-1.92c0.23-0.8,0.45-1.6,0.67-2.4
			c0.19-0.61,0.45-1.2,0.71-1.8c0.09,0.02,0.33-0.36,0.63-0.96c0.04-0.08,0.09-0.16,0.13-0.25c0.07-0.15,0.15-0.31,0.24-0.48
			c0.04-0.09,0.09-0.18,0.13-0.27c0.81-1.69,1.79-3.95,2.07-4.48c-0.01-0.05-0.03-0.11-0.04-0.17c2.9-2.11,6.17-4.57,8.43-5.91
			c3.99-2.35,11.13-5.28,15.61-6.93c0.52-0.19,1.02-0.4,1.51-0.61c0.1-0.04,0.19-0.09,0.29-0.13c0.39-0.18,0.76-0.36,1.13-0.54
			c0.45-0.24,0.87-0.46,1.27-0.7c0.14-0.08,0.27-0.15,0.4-0.23c1.8-1.07,2.85-1.97,2.85-1.97s0.56,0.34,2.23,1.48
			c1.67,1.15,7.05,2.25,7.84,2.31c0,0-1.22,1.54-3.56,4.7c-0.05,0.08-0.11,0.15-0.17,0.23c-0.18,0.25-0.38,0.52-0.57,0.79
			c-0.19,0.26-0.39,0.53-0.6,0.81c-0.05,0.08-0.11,0.15-0.16,0.23c-1.43,1.97-3.18,4.38-5.2,7.25c-0.4,0.57-0.8,1.16-1.19,1.77
			c-0.63,0.99-1.25,2.02-1.85,3.08c-0.8,1.41-1.57,2.87-2.31,4.37c-0.64,1.29-1.26,2.6-1.87,3.93c-3.23,7.06-5.98,14.33-8.51,19.31
			c-0.86,1.69-1.66,3.07-2.41,4.21c-2.62,1.28-7.46,3.9-11.18,7.09c-4.87,4.18-7.8,20.63-10.35,24.56c-0.4,0.61-0.78,1.13-1.16,1.59
			h93.69c-0.2-0.14-0.43-0.29-0.69-0.46c-0.06-0.04-0.12-0.08-0.19-0.12c-4.86-3.18-18.56-11.57-21.15-11.92
			c-2.8-0.38-8.22-3.73-8.22-3.73l-4.8-2.18l-0.25-0.12c1.52-4.72,3.71-10.97,5.02-12.32c2.16-2.24,4.99-3.24,7.29-4.66
			c2.3-1.42,3.04-3.89,3.04-3.89s0-0.2,2.24-1.8c2.25-1.59,4.35-6.15,4.35-6.15c0-0.01,0.02-0.09,1.16-0.95
			c0.05-0.04,0.11-0.08,0.16-0.13c1.34-1.01,5.38-4.78,5.38-4.78s0.11-0.04,0.74,0.88c0.61,0.91,7.33,8.51,11.05,13.15
			c0.01,0.01,0.02,0.03,0.03,0.04c0.02,0.03,0.03,0.05,0.05,0.07c0.1,0.13,0.21,0.26,0.32,0.39c0.11,0.13,0.22,0.26,0.33,0.38
			c0.03,0.03,0.06,0.06,0.09,0.1c3.76,4.19,9.42,7.42,12.11,7.4c2.9-0.02,1.52-0.67,3.64-2.63c1.62-1.49,4.32-3.37,8.16-6.12
			c0.03-0.02,0.07-0.05,0.11-0.08c0.12-0.09,0.25-0.18,0.37-0.26c0.12-0.09,0.25-0.18,0.37-0.27c0.95-0.69,1.97-1.43,3.05-2.22
			c1.04-0.77,2.26-1.9,3.57-3.27c1.07-1.11,2.2-2.37,3.34-3.7c2.02-2.37,4.08-4.96,5.91-7.35c0.16-0.21,0.33-0.43,0.48-0.64
			c0.16-0.21,0.32-0.42,0.48-0.63C219.79,110.83,219.54,110.91,219.3,110.99z M219.87,110.2c-0.26,0.08-0.52,0.16-0.75,0.24
			c-0.53,0.17-1.01,0.32-1.39,0.45c-0.54-2.03-1.89-6.56-3.82-9.31c-0.19-0.27-0.39-0.52-0.6-0.76c-0.1-0.13-0.21-0.26-0.33-0.38
			l-0.39-0.39l-0.33,0.3l-0.43,0.39l-0.32,0.29c-0.04,0.03-0.08,0.07-0.12,0.1c-4.68,4.13-8.3,6.87-9.45,7.15
			c-2.09,0.51-8.33,2.55-10.31,3.2c-0.45-1.74-1.84-6.73-3.88-9.62c-1.84-2.62-4.7-4.03-6.23-4.79c-0.31-0.15-0.66-0.33-0.8-0.42
			c-0.05-0.19-0.1-0.68-0.14-1.11c-0.15-1.58-0.41-4.23-1.57-6.94c-0.03-0.07-0.06-0.14-0.09-0.21c-0.02-0.04-0.03-0.08-0.05-0.12
			c-0.92-2.04-2.17-3.7-3.15-4.81c-0.3-0.35-0.58-0.64-0.82-0.88c-0.26-0.26-0.48-0.47-0.65-0.62c0.39-0.82,1.3-2.72,1.9-3.63
			c0.72-1.07,4.33-3.56,5.67-4.23c1.17-0.59,3.93-0.41,6.85,0.46c3.26,0.98,3.82-0.58,4.47-2.38c0.08-0.21,0.16-0.43,0.24-0.66
			c0.6-1.55,0.59-2.59,0.49-3.15c0.09-0.06,0.2-0.14,0.34-0.23c0.85-0.57,0.71-1.24,0.62-1.68c-0.01-0.08-0.03-0.15-0.04-0.25
			c-0.06-0.39-0.26-0.64-0.44-0.8c0,0,0,0,0.01-0.01c0.05-0.03,0.11-0.07,0.15-0.11c0.38-0.26,0.81-0.57,1.01-0.96
			c0.3-0.58,0.08-1.1-0.08-1.48c-0.08-0.18-0.15-0.34-0.18-0.52c-0.06-0.33,0.05-0.72,0.53-0.85l0.22-0.05
			c1.03-0.26,3.18-0.8,3.09-2.27c-0.08-1.38-2.93-6.16-2.96-6.2c-0.26-0.41-0.38-2.1,0.38-3.34c0.99-1.63,0.71-3.96,0.11-5.6
			c-1.56-4.29-3.27-7.02-4.44-8.57c-0.02-0.02-0.03-0.04-0.05-0.06c-0.07-0.09-0.14-0.17-0.2-0.26l-0.08-0.09
			c-0.01-0.01-0.02-0.03-0.03-0.04c-0.09-0.11-0.18-0.22-0.27-0.33c-0.03-0.04-0.06-0.08-0.1-0.12c-1.35-1.56-2.77-2.65-4.24-3.24
			c-6.66-2.66-14.55-1.83-20.1,2.09c-4.61,3.26-7.02,8.33-6.78,14.28c0.09,2.12,0.2,3.65,0.29,4.88c0.16,2.14,0.25,3.33,0.01,5.14
			c-0.3,2.35-0.96,4.79-1.19,5.58c-0.34,0.05-0.95,0.14-1.82,0.25c-0.01,0-0.02,0-0.02,0c-0.78,0.08-1.84,0.19-3.2,0.29
			c-1.79,0.13-3.73,0.47-5.77,1.04c-0.33,0.09-0.63,0.18-0.9,0.26h0c-0.59,0.18-1.03,0.33-1.25,0.41c-0.07,0-0.23-0.01-0.65-0.1
			c-0.07-0.01-0.15-0.03-0.25-0.05c-0.33-0.07-0.74-0.15-1.21-0.26c-0.03-0.01-0.07-0.01-0.11-0.02c-0.43-0.09-0.92-0.2-1.47-0.31
			c-2.66-0.54-5.2-0.93-7.79-1.16c-5-0.46-11.29,0.6-15.05,1.23c-1.32,0.22-2.47,0.42-2.78,0.4c-0.33-0.02-0.67-0.05-1-0.09
			c-0.99-0.11-2.01-0.23-3.07,0.15c-0.75,0.27-1.35,0.78-2.04,1.38c-0.63,0.54-1.34,1.15-2.33,1.72c-0.23,0.13-0.53,0.3-0.88,0.49
			c-2.9,1.6-9.68,5.37-15.93,11.66c-4.37,4.4-8.29,9.05-10.41,11.56l-0.02,0.03c-0.8,0.95-2.32,1.52-3.24,1.86
			c-0.19,0.07-0.36,0.14-0.5,0.19l-0.09,0.05c-0.71,0.46-1.49,0.85-2.25,1.23c-0.59,0.29-1.19,0.6-1.77,0.94
			c-1.16,0.68-2.25,1.32-3.42,1.85l-0.07,0.04c-0.43,0.27-0.86,0.55-1.29,0.82c-0.58,0.3-1.24,0.53-1.87,0.75l-0.03,0.01
			c-0.61,0.21-1.22,0.43-1.83,0.64l-0.09,0.04c-0.37,0.2-0.73,0.4-1.1,0.59c-0.26,0.1-0.52,0.19-0.77,0.28
			c-0.5,0.17-1.01,0.35-1.55,0.59c-0.36,0.16-0.58,0.33-0.86,0.55l-0.06,0.03c-0.05,0.03-0.11,0.05-0.17,0.08l-0.09,0.03l-0.07,0.06
			c-0.7,0.61-0.15,1.43,0.03,1.71l0.03,0.04c0.74,1.11,2.44,0.49,3.09,0.26l0.04-0.02c0.2-0.07,0.41-0.15,0.63-0.24
			c0.51-0.2,1.04-0.41,1.53-0.48c0.25-0.05,0.49-0.09,0.73-0.14c0.26-0.05,0.51-0.1,0.76-0.14l0.07-0.02
			c0.17-0.05,0.34-0.12,0.52-0.19c0.29-0.11,0.6-0.24,0.87-0.29c-0.87,0.8-1.81,1.31-2.72,1.81c-0.44,0.24-0.89,0.49-1.32,0.76
			l-0.03,0.02c-0.71,0.52-1.42,1.05-2.12,1.58c-0.55,0.31-1.1,0.64-1.65,0.95l-0.29,0.17l-0.05,0.04c-0.28,0.2-0.56,0.4-0.83,0.6
			c-0.69,0.41-1.46,0.88-1.66,1.68c-0.11,0.45-0.01,0.94,0.3,1.43c0.22,0.36,0.53,0.59,0.9,0.67c0.78,0.18,1.58-0.34,2.23-0.76
			c0.19-0.12,0.37-0.24,0.5-0.3c0.61-0.29,1.21-0.66,1.79-1.02c0.51-0.32,1.04-0.65,1.56-0.91c0.31-0.15,0.62-0.28,0.95-0.42
			c0.5-0.21,1.02-0.43,1.54-0.74c0.22-0.13,0.48-0.33,0.76-0.54c0.2-0.15,0.52-0.39,0.81-0.58c-0.24,0.28-0.55,0.59-0.81,0.8
			l-0.76,0.74c-0.49,0.48-0.98,0.96-1.47,1.43c-0.54,0.44-0.87,1.02-1.13,1.5c-0.06,0.11-0.11,0.21-0.17,0.3
			c-0.49,0.83-1.48,2.1-2.1,2.59l-0.06,0.06c-0.22,0.24-0.44,0.49-0.66,0.73l-0.31,0.34c-0.63,0.59-1.88,1.78-0.98,3.06
			c0.22,0.31,0.49,0.4,0.63,0.45c0.02,0.01,0.04,0.01,0.06,0.02c1.18,0.62,2-0.15,2.66-0.77c0.2-0.18,0.4-0.38,0.62-0.55
			c0.28-0.22,0.51-0.49,0.74-0.75c0.2-0.24,0.39-0.46,0.6-0.63l0.72-0.75c0.32-0.34,0.64-0.68,0.96-1c0.23-0.23,0.46-0.46,0.69-0.69
			l0.08-0.08c0.19-0.22,0.39-0.44,0.57-0.67c0.34-0.37,0.68-0.73,1.02-1.1l0.53-0.57c0.24-0.23,0.48-0.49,0.72-0.74
			c0.13-0.14,0.27-0.29,0.41-0.43l-2.47,3.26l-0.26,0.5c-0.24,0.49-0.47,0.98-0.7,1.44c-0.24,0.43-0.54,0.87-0.83,1.29
			c-0.32,0.46-0.66,0.95-0.91,1.45l-0.1,0.18c-0.54,1.03-1.08,2.19-0.7,3.01c0.11,0.25,0.36,0.57,0.88,0.69
			c1.97,0.46,4.13-3.35,4.22-3.51c0.24-0.42,0.57-0.81,0.94-1.22c0.36-0.41,0.73-0.84,1.03-1.33c1.38-2.27,3.01-4.24,4.49-5.4
			l0.04-0.03c0.34-0.32,0.67-0.65,1.01-0.97c0.22-0.12,0.43-0.25,0.65-0.37c-0.05,0.18-0.12,0.37-0.2,0.57
			c-0.09,0.23-0.18,0.47-0.25,0.72c-0.14,0.48-0.29,0.94-0.44,1.39c-0.37,1.1-0.72,2.14-0.77,3.35l0,0.04
			c-0.04,0.8-0.12,2.29,1.22,3.02c0.25,0.14,0.54,0.16,0.81,0.06c0.64-0.23,1.07-1.1,1.27-1.6l0.09-0.24
			c0.16-0.42,0.34-0.89,0.54-1.27c0.31-0.55,0.61-1.1,0.91-1.65l0.04-0.09c0.11-0.33,0.19-0.65,0.26-0.97
			c0.06-0.26,0.12-0.5,0.19-0.75c0.16-0.55,0.32-1.1,0.49-1.65c0.11-0.26,0.26-0.52,0.43-0.79c0.22-0.36,0.44-0.73,0.58-1.14
			l0.01-0.04c0.19-0.67,0.38-1.34,0.56-2.01l0.1-0.38c0.17-0.53,0.4-1.06,0.62-1.58c0.15-0.14,0.29-0.35,0.46-0.65
			c0.1-0.18,0.21-0.39,0.33-0.62c0.01-0.03,0.03-0.06,0.04-0.09c0.05-0.1,0.1-0.2,0.15-0.31l0.08-0.16
			c0.01-0.01,0.01-0.03,0.02-0.04c0.15-0.31,0.31-0.66,0.48-1.01c0.3-0.65,0.61-1.33,0.87-1.92c0.37-0.81,0.69-1.52,0.82-1.76
			l0.11-0.2V98.3c0.39-0.29,0.79-0.57,1.18-0.87c2.47-1.81,5.03-3.68,6.88-4.78c3.7-2.17,10.46-5.03,15.52-6.89
			c0.13-0.05,0.25-0.1,0.38-0.15c0.42-0.16,0.84-0.34,1.26-0.53c0.06-0.03,0.13-0.06,0.19-0.09c0.41-0.19,0.79-0.37,1.15-0.55
			c0.03-0.02,0.06-0.03,0.09-0.05c0.45-0.24,0.85-0.45,1.2-0.66c1.46-0.84,2.51-1.6,3-1.99c0.33,0.21,0.92,0.6,1.85,1.25
			c1.42,0.98,5.2,1.89,7.11,2.25c-0.61,0.79-1.66,2.17-3.13,4.16l-0.49,0.67l-0.3,0.41c-0.12,0.16-0.25,0.33-0.38,0.51
			c-0.03,0.04-0.05,0.08-0.08,0.11c-0.26,0.36-0.52,0.72-0.78,1.08c-1.5,2.06-2.98,4.13-4.5,6.29c-0.39,0.54-0.78,1.12-1.21,1.79
			c-0.13,0.2-0.26,0.41-0.39,0.62c-0.5,0.8-0.99,1.63-1.48,2.49c-0.11,0.19-0.22,0.38-0.32,0.58c-0.65,1.17-1.31,2.43-2,3.82
			c-0.13,0.26-0.26,0.52-0.39,0.78c-0.47,0.97-0.97,2.02-1.49,3.16c-0.1,0.22-0.2,0.45-0.3,0.67c-1.29,2.85-2.49,5.69-3.66,8.44
			c-1.6,3.79-3.12,7.37-4.54,10.17c-0.76,1.5-1.53,2.85-2.29,4.02c-2.15,1.06-7.23,3.73-11.16,7.1c-3.15,2.7-5.39,9.93-7.37,16.31
			c-1.11,3.58-2.16,6.95-3.08,8.37c-0.37,0.57-0.74,1.07-1.12,1.53l-0.31,0.37h95.47l-0.69-0.48c-0.05-0.03-0.1-0.07-0.15-0.1
			c-0.17-0.11-0.35-0.23-0.55-0.36c-3.73-2.45-18.63-11.73-21.58-12.14c-2.64-0.35-7.94-3.62-7.99-3.65l-4.65-2.12
			c0.36-1.09,0.68-2.07,0.99-2.97c2.18-6.35,3.26-8.14,3.73-8.63c1.43-1.49,3.21-2.42,4.92-3.32c0.79-0.41,1.54-0.81,2.25-1.25
			c2.22-1.37,3.08-3.6,3.26-4.11c0.12-0.12,0.55-0.52,2.06-1.59c2.2-1.57,4.2-5.66,4.5-6.3c0.03-0.03,0.1-0.09,0.21-0.18
			c0.16-0.13,0.42-0.33,0.83-0.64c0.04-0.03,0.09-0.07,0.15-0.11c1.11-0.84,3.94-3.44,5.01-4.43c0.08,0.1,0.16,0.23,0.28,0.39
			c0.28,0.41,1.53,1.87,3.7,4.42c2.39,2.78,5.36,6.25,7.39,8.79c0.02,0.03,0.05,0.07,0.08,0.1c0.02,0.03,0.05,0.06,0.08,0.1
			c0.06,0.08,0.12,0.15,0.18,0.23l0.06,0.07c0.05,0.06,0.11,0.13,0.16,0.19c0.06,0.07,0.12,0.14,0.18,0.2
			c0.07,0.08,0.15,0.16,0.23,0.25c3.66,4,9.36,7.45,12.38,7.45h0.03c1.86-0.01,2.29-0.29,2.82-1.24c0.21-0.39,0.48-0.87,1.21-1.54
			c1.37-1.26,3.56-2.82,6.58-4.99l1.55-1.11l0.07-0.05c0.1-0.06,0.19-0.13,0.29-0.2l0.1-0.07c0.11-0.08,0.22-0.16,0.33-0.24
			l0.35-0.25c0.86-0.62,1.77-1.29,2.73-1.99c0.56-0.42,1.19-0.95,1.88-1.59c0.55-0.51,1.14-1.09,1.76-1.74
			c1.01-1.05,2.11-2.27,3.36-3.73c0.8-0.94,1.64-1.95,2.51-3.03c1.09-1.35,2.23-2.8,3.42-4.35l0.13-0.17
			c0.12-0.16,0.24-0.32,0.35-0.46c0.11-0.14,0.22-0.28,0.32-0.42l0.82-1.08l0.44-0.58L219.87,110.2z M80,168.14
			c0.16-0.22,0.31-0.45,0.47-0.69c1.01-1.56,2.03-4.85,3.22-8.66c1.84-5.92,4.12-13.28,7.02-15.77c3.92-3.36,9.04-6.02,11.06-7.01
			l0.14-0.07l0.09-0.13c0.81-1.24,1.63-2.67,2.44-4.26c1.44-2.84,2.96-6.44,4.57-10.25c1.25-2.96,2.55-6.03,3.95-9.08
			c0.12-0.27,0.24-0.53,0.36-0.78c0.53-1.14,1.02-2.17,1.5-3.13c0.17-0.34,0.34-0.68,0.51-1.01c0.61-1.19,1.2-2.29,1.79-3.33
			c0.09-0.15,0.17-0.3,0.26-0.45c0.52-0.9,1.05-1.78,1.57-2.6c0.14-0.22,0.28-0.43,0.42-0.64c0.27-0.4,0.52-0.76,0.76-1.11
			c1.82-2.57,3.57-5.01,5.35-7.46c0.13-0.17,0.26-0.34,0.38-0.51L126,91l0.66-0.9c0.03-0.04,0.05-0.07,0.08-0.11
			c0.26-0.35,0.5-0.67,0.73-0.98c1.89-2.54,2.89-3.81,2.91-3.82l0.68-0.86l-1.1-0.08c-0.75-0.05-6.03-1.16-7.55-2.21
			c-1.66-1.14-2.23-1.49-2.25-1.5l-0.36-0.21l-0.32,0.27c0,0-0.17,0.15-0.49,0.38c0,0,0,0,0,0c-0.47,0.36-1.28,0.93-2.34,1.55
			c-0.11,0.07-0.23,0.13-0.34,0.2c-0.37,0.22-0.77,0.44-1.24,0.68c-0.03,0.01-0.06,0.03-0.09,0.05c-0.31,0.15-0.65,0.31-1.01,0.48
			c-0.58,0.26-1.17,0.51-1.75,0.72c-3.81,1.4-11.41,4.46-15.71,6.98c-1.9,1.12-4.48,3.01-6.98,4.84c-0.51,0.37-1.01,0.74-1.5,1.09
			l-0.3,0.25l0.07,0.33c-0.17,0.34-0.43,0.93-0.75,1.63c-0.41,0.91-0.93,2.04-1.36,2.94l-0.08,0.15c-0.05,0.12-0.11,0.23-0.16,0.32
			c-0.21,0.43-0.36,0.68-0.44,0.83L84.88,104l-0.19,0.44c-0.25,0.57-0.54,1.21-0.74,1.88l-0.11,0.39c-0.18,0.66-0.37,1.33-0.56,1.99
			c-0.11,0.29-0.28,0.59-0.47,0.91c-0.18,0.3-0.37,0.62-0.51,0.96l-0.02,0.05c-0.17,0.56-0.34,1.12-0.5,1.68
			c-0.09,0.28-0.15,0.55-0.21,0.81c-0.07,0.29-0.13,0.56-0.22,0.82c-0.29,0.53-0.59,1.07-0.89,1.61c-0.23,0.45-0.43,0.95-0.6,1.4
			l-0.09,0.23c-0.18,0.45-0.4,0.78-0.53,0.9c-0.56-0.37-0.57-1.11-0.53-1.89v-0.04c0.05-1.05,0.38-2.02,0.72-3.04
			c0.15-0.46,0.31-0.94,0.46-1.44c0.06-0.2,0.13-0.41,0.22-0.63c0.23-0.6,0.48-1.27,0.31-1.99c0-0.05-0.02-0.12-0.04-0.19l-0.16-0.4
			l-0.42,0.03c-0.27,0.02-0.46,0.16-0.61,0.26c-0.04,0.03-0.08,0.05-0.12,0.08L79,108.84c-0.37,0.21-0.73,0.42-1.1,0.63l-0.06,0.04
			l-0.05,0.05c-0.34,0.33-0.69,0.66-1.03,0.99c-2.24,1.77-4.06,4.56-4.74,5.69c-0.25,0.41-0.57,0.78-0.91,1.17
			c-0.39,0.44-0.78,0.89-1.07,1.42c-0.85,1.51-2.28,3.1-2.95,2.94c-0.02-0.01-0.08-0.02-0.09-0.04c-0.08-0.17-0.02-0.65,0.68-1.98
			l0.1-0.19c0.23-0.44,0.52-0.87,0.84-1.32c0.31-0.45,0.62-0.9,0.9-1.42c0.24-0.49,0.48-0.98,0.71-1.47l0.17-0.35l3.04-4.01
			l-0.05-0.26c-0.09-0.47-0.3-0.82-0.7-1.19l-0.34-0.31l-0.38,0.26c-0.46,0.31-0.89,0.78-1.31,1.23c-0.23,0.24-0.46,0.49-0.68,0.7
			l-0.57,0.61c-0.34,0.37-0.69,0.74-1.03,1.11l-0.02,0.02c-0.18,0.22-0.37,0.43-0.56,0.65l-0.03,0.03c-0.23,0.23-0.47,0.46-0.7,0.7
			c-0.32,0.34-0.65,0.68-0.97,1.02l-0.64,0.68c-0.27,0.23-0.5,0.49-0.72,0.75c-0.2,0.23-0.39,0.45-0.58,0.6
			c-0.26,0.21-0.49,0.43-0.69,0.62c-0.71,0.67-0.91,0.8-1.32,0.59c-0.08-0.04-0.15-0.07-0.23-0.1c-0.02-0.01-0.04-0.01-0.05-0.02
			c-0.2-0.29-0.13-0.65,0.84-1.56l0.36-0.4c0.2-0.23,0.41-0.46,0.62-0.69c0.82-0.68,1.86-2.11,2.32-2.87
			c0.06-0.1,0.13-0.21,0.19-0.33c0.23-0.41,0.49-0.87,0.86-1.17l0.04-0.04c0.5-0.48,0.99-0.97,1.49-1.46l0.7-0.68
			c0.47-0.38,1.24-1.16,1.48-1.77l0.09-0.21l-0.12-0.3c-0.05-0.14-0.11-0.28-0.16-0.42l-0.11-0.31l-0.32-0.07
			c-0.71-0.16-1.53,0.46-2.32,1.05c-0.25,0.19-0.48,0.37-0.65,0.46c-0.45,0.27-0.91,0.46-1.4,0.67c-0.33,0.14-0.67,0.28-1.01,0.45
			c-0.56,0.28-1.12,0.63-1.65,0.96c-0.58,0.36-1.12,0.7-1.67,0.96c-0.19,0.09-0.4,0.23-0.62,0.37c-0.39,0.25-1.04,0.67-1.35,0.6
			c-0.03,0-0.09-0.02-0.17-0.15c-0.14-0.22-0.19-0.4-0.16-0.54c0.08-0.33,0.65-0.67,1.14-0.97l0.04-0.02
			c0.28-0.2,0.56-0.4,0.84-0.61l0.26-0.15c0.56-0.33,1.12-0.65,1.68-0.97l0.06-0.04c0.71-0.53,1.42-1.06,2.13-1.58
			c0.4-0.25,0.81-0.47,1.25-0.71c1.11-0.61,2.25-1.24,3.34-2.35l0.18-0.19l-0.02-0.27c0-0.03,0-0.07,0-0.11
			c0-0.18,0.01-0.49-0.2-0.79l-0.11-0.16l-0.19-0.06c-0.74-0.24-1.51,0.07-2.13,0.31c-0.15,0.06-0.29,0.11-0.43,0.16
			c-0.24,0.04-0.48,0.09-0.72,0.13c-0.25,0.05-0.5,0.09-0.72,0.14c-0.59,0.09-1.19,0.32-1.76,0.55c-0.2,0.08-0.4,0.16-0.59,0.23
			l-0.05,0.01c-1.29,0.47-1.63,0.32-1.71,0.19l-0.03-0.04c-0.03-0.05-0.09-0.14-0.13-0.21l0.14-0.07l0.06-0.04
			c0.27-0.21,0.41-0.32,0.66-0.44c0.49-0.22,0.96-0.38,1.45-0.55c0.28-0.1,0.56-0.19,0.84-0.3l0.06-0.03c0.37-0.2,0.74-0.4,1.11-0.6
			c0.6-0.2,1.19-0.41,1.78-0.62l0.03-0.01c0.65-0.23,1.38-0.48,2.04-0.83l0.04-0.02c0.42-0.27,0.85-0.54,1.28-0.81
			c1.21-0.56,2.37-1.24,3.49-1.89c0.55-0.32,1.11-0.6,1.71-0.9c0.76-0.39,1.56-0.79,2.31-1.27c0.12-0.04,0.26-0.1,0.41-0.16
			c1.01-0.38,2.69-1.01,3.69-2.17l0.02-0.03c2.1-2.49,6.02-7.13,10.36-11.51c6.14-6.18,12.82-9.88,15.67-11.46
			c0.36-0.2,0.66-0.37,0.9-0.51c1.08-0.62,1.87-1.3,2.51-1.85c0.63-0.54,1.13-0.97,1.67-1.16c0.81-0.29,1.66-0.19,2.56-0.09
			c0.34,0.04,0.7,0.08,1.07,0.1c0.41,0.02,1.28-0.12,3.03-0.41c3.7-0.62,9.9-1.67,14.76-1.22c1.37,0.13,2.72,0.29,4.08,0.51
			c0.78,0.12,1.56,0.25,2.35,0.4c0.41,0.08,0.83,0.16,1.24,0.24c0.58,0.12,1.1,0.23,1.56,0.33c0.04,0.01,0.08,0.02,0.11,0.02
			c0.43,0.1,0.8,0.17,1.11,0.24c0.86,0.18,1.22,0.21,1.51,0.11c0.26-0.09,1.03-0.36,2.09-0.66c1.96-0.54,3.83-0.88,5.54-1
			c1.36-0.1,2.43-0.2,3.22-0.29c0.01,0,0.02,0,0.03,0c1.54-0.18,2.26-0.32,2.29-0.32l0.37-0.08l0.02-0.1l0.08-0.32
			c0.01-0.02,0.03-0.11,0.08-0.26c0.23-0.79,0.9-3.28,1.23-5.76c0.25-1.93,0.16-3.23,0-5.38c-0.09-1.22-0.2-2.74-0.29-4.84
			c-0.28-7.1,3.27-11.14,6.3-13.28c5.16-3.65,12.79-4.43,19-1.96c1.3,0.52,2.59,1.51,3.82,2.96c0.02,0.02,0.04,0.04,0.06,0.07
			c0.09,0.11,0.18,0.22,0.27,0.33l0.04,0.05l0.04,0.06c0.06,0.08,0.13,0.16,0.19,0.24c0.04,0.05,0.09,0.11,0.13,0.17
			c1.12,1.51,2.72,4.1,4.19,8.15c0.63,1.74,0.63,3.55-0.01,4.6c-0.9,1.47-0.95,3.66-0.38,4.56c0.7,1.12,2.74,4.87,2.79,5.66
			c0.01,0.19-0.26,0.58-2.21,1.07l-0.24,0.06c-0.98,0.26-1.56,1.17-1.38,2.17c0.06,0.3,0.16,0.56,0.25,0.76
			c0.14,0.33,0.16,0.41,0.12,0.5c-0.07,0.14-0.43,0.39-0.64,0.54c-0.27,0.19-0.5,0.35-0.66,0.55c-0.06,0.08-0.12,0.16-0.15,0.25
			c-0.04,0.12-0.06,0.24-0.04,0.35c0.05,0.39,0.32,0.59,0.48,0.71c0.15,0.11,0.15,0.13,0.16,0.17c0.02,0.11,0.03,0.2,0.05,0.3
			c0.07,0.36,0.07,0.36-0.13,0.49c-0.69,0.46-0.74,0.52-0.78,0.56l-0.25,0.28l0.14,0.34c0,0.01,0.33,0.89-0.38,2.74
			c-0.09,0.24-0.17,0.46-0.25,0.68c-0.64,1.78-0.84,2.32-3.05,1.66c-3.29-0.98-6.24-1.13-7.71-0.39c-1.36,0.69-5.21,3.28-6.11,4.62
			c-0.83,1.25-2.12,4.06-2.17,4.18l-0.09,0.18l-0.1,0.22l0.34,0.28c0,0,0.37,0.3,0.89,0.84c0.93,0.93,2.65,2.88,3.79,5.46
			c0.02,0.05,0.05,0.11,0.08,0.18c0.04,0.11,0.09,0.21,0.13,0.32c0.99,2.46,1.22,4.84,1.36,6.3c0.1,0.96,0.14,1.4,0.34,1.68
			c0.18,0.25,0.51,0.41,1.24,0.77c1.44,0.71,4.12,2.03,5.8,4.42c2.32,3.29,3.83,9.77,3.85,9.83l0.14,0.62l0.6-0.2
			c0.08-0.03,8.42-2.78,10.82-3.37c1.86-0.45,6.99-4.8,9.96-7.42c0.04-0.03,0.07-0.06,0.11-0.09l0.24-0.21
			c0.16,0.18,0.3,0.37,0.45,0.58c2.04,2.9,3.42,8.02,3.8,9.52l0.15,0.6l1.02-0.33c0.16-0.05,0.33-0.11,0.53-0.17
			c-0.16,0.22-0.33,0.43-0.49,0.64c-1.88,2.43-3.64,4.61-5.24,6.49c-1.23,1.44-2.32,2.64-3.31,3.67c-1.36,1.42-2.54,2.5-3.5,3.21
			c-0.96,0.71-1.87,1.37-2.72,1.99l-0.24,0.17l-0.09,0.07c-0.12,0.09-0.25,0.17-0.36,0.25l-0.03,0.02l-0.06,0.04
			c-0.09,0.06-0.18,0.13-0.28,0.2l-0.13,0.09l-1.5,1.07c-3.06,2.19-5.26,3.77-6.69,5.08c-0.87,0.8-1.21,1.42-1.44,1.83
			c-0.29,0.52-0.35,0.63-1.81,0.64h-0.02c-2.49,0-8.02-3.11-11.73-7.3c-0.03-0.03-0.05-0.06-0.08-0.09
			c-0.08-0.09-0.16-0.18-0.24-0.27l-0.06-0.08c-0.04-0.05-0.09-0.11-0.13-0.16c-0.04-0.04-0.08-0.09-0.11-0.14l-0.06-0.08
			c-0.08-0.09-0.15-0.19-0.23-0.28c-2.05-2.54-4.9-5.87-7.2-8.56c-1.81-2.11-3.37-3.93-3.63-4.31c-0.62-0.91-0.95-1.26-1.42-1.09
			l-0.11,0.04l-0.09,0.08c-0.03,0.03-3.05,2.84-4.68,4.22c-0.25,0.21-0.46,0.39-0.63,0.52c-0.07,0.05-0.13,0.1-0.18,0.13
			c-1.11,0.83-1.33,1.04-1.38,1.26c-0.3,0.63-2.19,4.47-4.11,5.83c-2.18,1.55-2.45,1.9-2.48,2.16c-0.12,0.37-0.87,2.33-2.77,3.5
			c-0.69,0.42-1.41,0.81-2.19,1.21c-1.79,0.94-3.65,1.92-5.21,3.54c-1.1,1.14-2.84,5.36-5.16,12.54l-0.16,0.49l0.76,0.35l4.72,2.15
			c0.5,0.31,5.61,3.42,8.42,3.79c2.25,0.31,14.53,7.72,20.16,11.35H80z M160.14,119.84c-0.07,0.05-0.13,0.1-0.18,0.13
			c-1.11,0.83-1.33,1.04-1.38,1.26c-0.3,0.63-2.19,4.47-4.11,5.83c-2.18,1.55-2.45,1.9-2.48,2.16c-0.12,0.37-0.87,2.33-2.77,3.5
			c-0.69,0.42-1.41,0.81-2.19,1.21c-1.79,0.94-3.65,1.92-5.21,3.54c-1.1,1.14-2.84,5.36-5.16,12.54l-0.16,0.49l0.76,0.35
			c0.01-0.04,0.03-0.08,0.04-0.12c0.05-0.14,0.1-0.28,0.16-0.42l-0.25-0.12c1.52-4.72,3.71-10.97,5.02-12.32
			c2.16-2.24,4.99-3.24,7.29-4.66c2.3-1.42,3.04-3.89,3.04-3.89s0-0.2,2.24-1.8c2.25-1.59,4.35-6.15,4.35-6.15
			c0-0.01,0.02-0.09,1.16-0.95c0.12-0.29,0.24-0.58,0.36-0.87c0.03-0.08,0.07-0.16,0.1-0.24
			C160.53,119.53,160.31,119.71,160.14,119.84z"/>
		<path class="st79" d="M221.45,53.31c-0.42-0.66-0.46-2.58,0.38-3.95c0.84-1.37,0.67-3.45,0.06-5.1c-0.42-1.13-2.01-5.5-4.68-8.83
			c-1.24-1.54-2.71-2.86-4.39-3.54c-6.96-2.77-15.58-1.63-20.96,3.14c-0.03,0.03-0.06,0.05-0.1,0.09c-0.11,0.1-0.22,0.2-0.33,0.31
			c-0.11,0.11-0.22,0.21-0.32,0.32c-0.03,0.03-0.06,0.06-0.09,0.09c-2.78,2.85-4.49,6.82-4.29,11.85c0.24,5.8,0.68,7.18,0.3,10.12
			c-0.38,2.95-1.3,6.01-1.3,6.01s-0.71,0.14-2.23,0.31c-0.83,0.09-1.9,0.19-3.24,0.29c-3.77,0.26-7.23,1.49-7.8,1.7
			c-0.23,0.08-1.05-0.1-2.4-0.4c-2-0.44-5.16-1.11-9.29-1.49c-0.11-0.01-0.22-0.02-0.32-0.03c-0.05,0-0.1,0-0.14-0.01
			c-0.84-0.06-1.72-0.08-2.61-0.07c-3.05,0.04-6.28,0.45-8.95,0.86c-0.33,0.05-0.66,0.1-0.98,0.15h0c-0.69,0.11-1.32,0.22-1.89,0.32
			c-0.13,0.02-0.25,0.04-0.37,0.06h0c-0.45,0.08-0.85,0.14-1.21,0.2c-0.64,0.1-1.1,0.16-1.32,0.14c-0.09,0-0.18-0.01-0.27-0.02
			c0,0,0,0-0.01,0c-0.44-0.03-0.88-0.1-1.32-0.13c-0.75-0.07-1.5-0.09-2.25,0.18c-1.27,0.45-2.17,1.83-4.28,3.06
			c-2.11,1.22-9.73,5.05-16.69,12.06c-0.51,0.51-1,1.01-1.49,1.52c-0.11,0.12-0.22,0.23-0.33,0.34c-0.33,0.35-0.66,0.7-0.98,1.05
			c-0.29,0.31-0.58,0.61-0.86,0.91c-0.07,0.08-0.14,0.16-0.22,0.24c-2.57,2.81-4.83,5.47-6.52,7.48l0,0
			c-1.07,1.27-3.15,1.88-3.95,2.21c-1.3,0.84-2.73,1.42-4.04,2.18c-1.17,0.69-2.28,1.34-3.47,1.88c-0.44,0.28-0.87,0.56-1.31,0.83
			c-0.64,0.34-1.35,0.58-2,0.81c-0.61,0.21-1.22,0.42-1.83,0.64c-0.38,0.21-0.76,0.41-1.14,0.61c-0.76,0.29-1.52,0.51-2.32,0.87
			c-0.32,0.14-0.51,0.29-0.8,0.53c-0.04,0.02-0.08,0.03-0.11,0.05c-0.06,0.02-0.12,0.05-0.18,0.08c-0.01,0-0.01,0.01-0.01,0.01
			c-0.11,0.1-0.15,0.2-0.15,0.31v0c0,0.07,0.02,0.14,0.04,0.2c0.06,0.17,0.17,0.33,0.26,0.47c0.51,0.75,1.91,0.22,2.45,0.02
			c0.71-0.25,1.51-0.64,2.25-0.75c0.5-0.1,1-0.18,1.5-0.28c0.69-0.23,1.53-0.7,2.24-0.48c0.14,0.2,0.08,0.42,0.1,0.62
			c-1.44,1.48-3.04,2.08-4.49,2.99c-0.72,0.53-1.44,1.06-2.15,1.6c-0.66,0.38-1.31,0.76-1.97,1.14c-0.28,0.21-0.57,0.42-0.86,0.62
			c-0.93,0.55-1.91,1.14-1.18,2.31c0.7,1.12,2.15-0.25,2.88-0.6c1.11-0.54,2.21-1.36,3.33-1.93c0.81-0.4,1.64-0.66,2.45-1.14
			c0.66-0.39,1.91-1.59,2.55-1.45c0.06,0.18,0.13,0.36,0.2,0.54c-0.2,0.49-0.9,1.2-1.33,1.55c-0.73,0.72-1.47,1.44-2.2,2.16
			c-0.58,0.46-0.89,1.16-1.19,1.66c-0.47,0.79-1.5,2.16-2.23,2.75c-0.33,0.37-0.65,0.73-0.98,1.09c-0.77,0.72-1.49,1.52-0.92,2.31
			c0.15,0.22,0.33,0.21,0.48,0.29c1.07,0.56,1.63-0.45,2.65-1.26c0.46-0.37,0.84-0.97,1.33-1.38c0.54-0.57,1.09-1.15,1.63-1.72
			c0.25-0.24,0.5-0.49,0.74-0.73c0.2-0.23,0.39-0.45,0.58-0.68c0.53-0.56,1.05-1.12,1.58-1.69c0.65-0.61,1.28-1.44,1.92-1.87
			c0.33,0.31,0.46,0.57,0.52,0.87c-0.97,1.28-1.94,2.57-2.91,3.85c-0.3,0.62-0.6,1.25-0.91,1.87c-0.52,0.95-1.27,1.82-1.74,2.73
			c-0.37,0.71-1.55,2.76-0.29,3.05c1.2,0.28,2.89-2,3.58-3.23c0.51-0.91,1.41-1.64,1.97-2.57c1.16-1.92,2.84-4.15,4.62-5.55
			c0.35-0.33,0.71-0.68,1.06-1.01c0.37-0.21,0.73-0.42,1.1-0.63c0.17-0.09,0.34-0.26,0.51-0.27c0.01,0.02,0.01,0.04,0.01,0.06
			c0.21,0.79-0.28,1.57-0.51,2.38c-0.46,1.63-1.12,2.99-1.2,4.61c-0.04,0.73-0.12,1.96,0.92,2.52c0.55,0.3,1.08-0.8,1.26-1.24
			c0.19-0.48,0.41-1.08,0.67-1.57c0.3-0.55,0.61-1.1,0.91-1.65c0.18-0.55,0.28-1.11,0.45-1.69c0.16-0.56,0.33-1.12,0.5-1.68
			c0.28-0.66,0.78-1.27,1.01-1.92c0.23-0.8,0.45-1.6,0.67-2.4c0.19-0.61,0.45-1.2,0.71-1.8c0.33,0.08,2.73-5.58,3.2-6.45
			c-0.01-0.05-0.03-0.11-0.04-0.17c2.9-2.11,6.17-4.57,8.43-5.91c0.57-0.33,1.21-0.68,1.88-1.03l0.26-0.13
			c0.29-0.15,0.59-0.3,0.89-0.44c0.29-0.14,0.58-0.28,0.87-0.43c0.08-0.04,0.16-0.08,0.25-0.12c3.78-1.79,8.28-3.61,11.46-4.78
			c1.06-0.39,2.04-0.83,2.91-1.27c2.8-1.43,4.53-2.9,4.53-2.9s0.56,0.34,2.23,1.48c1.67,1.15,7.05,2.25,7.84,2.31
			c0,0-1.48,1.87-4.3,5.71c-1.57,2.14-3.57,4.89-5.96,8.28c-6.68,9.45-11.51,24.14-15.74,32.45c-0.86,1.69-1.66,3.07-2.41,4.21
			c-2.62,1.28-7.46,3.9-11.18,7.09c-4.87,4.18-7.8,20.63-10.35,24.56c-0.24,0.37-0.47,0.7-0.71,1.01c-0.03,0.04-0.06,0.08-0.09,0.12
			c-0.12,0.16-0.24,0.31-0.36,0.46h93.69c-3.8-2.57-19.25-12.13-22.02-12.5c-2.8-0.38-8.22-3.73-8.22-3.73l-5.05-2.3
			c1.52-4.72,3.71-10.97,5.02-12.32c2.16-2.24,4.99-3.24,7.29-4.66c1.22-0.75,1.99-1.79,2.46-2.6c0.02-0.04,0.05-0.08,0.07-0.12
			c0.08-0.15,0.15-0.31,0.22-0.44c0.09-0.19,0.16-0.35,0.2-0.47c0.02-0.05,0.03-0.1,0.05-0.13c0.02-0.08,0.04-0.12,0.04-0.12
			s0-0.2,2.24-1.8c2.25-1.59,4.35-6.15,4.35-6.15c0-0.01,0.02-0.09,1.33-1.07c1.34-1.01,5.38-4.78,5.38-4.78s0.11-0.04,0.74,0.88
			c0.57,0.84,6.3,7.34,10.11,11.98c0.03,0.03,0.05,0.06,0.08,0.1c0.1,0.12,0.19,0.24,0.29,0.36c0.1,0.12,0.19,0.24,0.29,0.36
			c0.12-0.09,0.25-0.18,0.37-0.27c0.94-0.69,1.96-1.42,3.03-2.21c0.7-0.52,1.48-1.19,2.31-1.99c2.03-1.95,4.37-4.63,6.65-7.42
			c1.52-1.86,3-3.76,4.35-5.53c0.16-0.22,0.32-0.43,0.47-0.64c-0.26,0.09-0.51,0.17-0.75,0.24c-0.27,0.09-0.52,0.17-0.75,0.25
			c-1.09,0.35-1.81,0.59-1.81,0.59s-1.52-6.62-3.93-10.04c-0.17-0.24-0.35-0.47-0.54-0.69c-0.09-0.12-0.19-0.23-0.3-0.34
			c-0.1-0.12-0.2-0.22-0.31-0.32c-0.03-0.03-0.06-0.06-0.1-0.1c-2.41-2.36-5.51-3.34-5.81-3.75c-0.35-0.48-0.09-4.38-1.84-8.37
			c-1.76-3.99-4.84-6.51-4.84-6.51s1.31-2.87,2.13-4.1c0.82-1.23,4.56-3.76,5.89-4.43c1.32-0.67,4.21-0.49,7.28,0.43
			c3.07,0.92,3.18-0.52,4.01-2.69c0.84-2.16,0.37-3.18,0.37-3.18s0.05-0.05,0.68-0.47c0.64-0.43,0.41-0.81,0.33-1.35
			c-0.08-0.54-0.6-0.55-0.65-0.87c-0.04-0.32,1.15-0.81,1.43-1.35c0.27-0.53-0.19-0.97-0.31-1.63c-0.12-0.66,0.22-1.31,0.96-1.51
			c0.74-0.19,2.94-0.64,2.87-1.73C224.26,58.16,221.85,53.96,221.45,53.31z M221.59,61.52l0.22-0.05c1.03-0.26,3.18-0.8,3.09-2.27
			c-0.08-1.38-2.93-6.16-2.96-6.2c-0.26-0.41-0.38-2.1,0.38-3.34c1-1.63,0.71-3.96,0.11-5.62c-1.36-3.71-2.97-6.73-4.77-8.98
			c-0.01-0.01-0.01-0.02-0.02-0.03c-1.45-1.81-3-3.05-4.61-3.69c-7.29-2.9-16.12-1.57-21.55,3.24c-0.04,0.03-0.08,0.06-0.11,0.1
			c-0.09,0.08-0.18,0.16-0.27,0.25l-0.05,0.05l-0.16,0.16c-0.07,0.06-0.14,0.13-0.2,0.2l-0.05,0.05c-3.13,3.2-4.69,7.46-4.49,12.33
			c0.09,2.12,0.2,3.65,0.29,4.89c0.16,2.14,0.25,3.33,0.01,5.14c-0.3,2.3-0.94,4.7-1.18,5.58c-0.34,0.05-0.95,0.15-1.83,0.25
			c-0.97,0.11-2.06,0.2-3.22,0.29c-2.6,0.18-5.07,0.81-6.66,1.3c-0.52,0.16-0.95,0.3-1.26,0.41c-0.11,0-0.35-0.03-0.66-0.1h0
			c-0.34-0.07-0.78-0.16-1.23-0.26l-0.22-0.05c-1.63-0.36-5-1.1-9.36-1.5c-0.08-0.01-0.15-0.01-0.23-0.02
			c-0.09,0-0.17-0.01-0.25-0.01c-0.11-0.01-0.23-0.02-0.34-0.02c-0.71-0.05-1.47-0.06-2.32-0.05h-0.03c-2.5,0.04-5.45,0.32-9,0.87
			c-1.13,0.17-2.15,0.35-3.03,0.5l-0.36,0.06c-0.35,0.06-0.67,0.12-0.96,0.16c-0.04,0.01-0.08,0.01-0.11,0.02
			c-0.24,0.04-0.97,0.15-1.21,0.14c-0.08,0-0.15,0-0.23-0.01l-0.05,0c-0.24-0.02-0.48-0.04-0.72-0.07
			c-0.18-0.02-0.36-0.04-0.54-0.05c-0.79-0.08-1.6-0.1-2.43,0.17c-0.03,0.01-0.06,0.02-0.1,0.03c-0.75,0.27-1.35,0.78-2.04,1.38
			c-0.63,0.54-1.34,1.15-2.33,1.72c-0.23,0.13-0.53,0.3-0.88,0.5c-2.9,1.6-9.68,5.36-15.93,11.66c-0.59,0.58-1.15,1.17-1.83,1.88
			c-0.31,0.33-0.62,0.66-0.92,0.98c-0.02,0.02-0.05,0.05-0.07,0.07c-0.29,0.31-0.58,0.61-0.86,0.92c-0.04,0.05-0.09,0.1-0.13,0.14
			c-0.31,0.34-0.62,0.68-0.92,1.01c-2.08,2.31-3.96,4.51-5.68,6.55l-0.02,0.03c-0.8,0.95-2.32,1.52-3.24,1.86
			c-0.19,0.07-0.36,0.14-0.49,0.19l-0.09,0.05c-0.71,0.46-1.49,0.85-2.25,1.23c-0.59,0.29-1.19,0.6-1.77,0.94
			c-1.16,0.68-2.25,1.32-3.42,1.85l-0.07,0.04c-0.43,0.27-0.86,0.55-1.29,0.82c-0.58,0.3-1.24,0.53-1.9,0.76
			c-0.61,0.21-1.22,0.43-1.83,0.64l-0.09,0.04c-0.37,0.2-0.73,0.4-1.1,0.59c-0.26,0.1-0.52,0.19-0.77,0.28
			c-0.5,0.17-1.01,0.35-1.55,0.59c-0.07,0.03-0.13,0.06-0.19,0.1c-0.25,0.13-0.44,0.28-0.67,0.46c-0.04,0.02-0.08,0.03-0.11,0.05
			l-0.09,0l-0.02,0.02l-0.17,0.14c-0.22,0.2-0.34,0.46-0.34,0.76c0,0.03,0,0.07,0.01,0.11c0.03,0.27,0.16,0.51,0.28,0.71
			c0.04,0.06,0.08,0.12,0.11,0.17c0.74,1.11,2.44,0.49,3.08,0.26l0.04-0.02c0.2-0.07,0.41-0.15,0.62-0.24
			c0.52-0.2,1.04-0.41,1.54-0.48c0.25-0.05,0.49-0.09,0.73-0.14c0.26-0.05,0.51-0.1,0.76-0.14l0.07-0.02
			c0.17-0.05,0.34-0.12,0.52-0.19c0.29-0.11,0.6-0.24,0.87-0.29c-0.87,0.8-1.81,1.31-2.72,1.81c-0.44,0.24-0.89,0.49-1.32,0.76
			l-0.03,0.02c-0.71,0.52-1.42,1.05-2.13,1.58l-1.94,1.12l-0.07,0.05c-0.27,0.2-0.54,0.4-0.81,0.59c-0.69,0.41-1.46,0.88-1.66,1.68
			c-0.11,0.45-0.01,0.94,0.3,1.43c0.22,0.36,0.53,0.59,0.9,0.67c0.78,0.18,1.58-0.34,2.23-0.76c0.19-0.12,0.37-0.24,0.5-0.3
			c0.61-0.29,1.21-0.66,1.79-1.02c0.51-0.32,1.04-0.65,1.55-0.91c0.31-0.15,0.62-0.28,0.95-0.42c0.51-0.21,1.02-0.43,1.54-0.74
			c0.22-0.13,0.48-0.33,0.76-0.54c0.2-0.15,0.52-0.39,0.81-0.58c-0.24,0.28-0.55,0.59-0.81,0.8l-2.23,2.17
			c-0.54,0.44-0.87,1.02-1.13,1.5c-0.06,0.1-0.11,0.2-0.17,0.3c-0.5,0.83-1.48,2.1-2.1,2.59l-0.06,0.06
			c-0.17,0.18-0.33,0.37-0.49,0.55c-0.16,0.17-0.31,0.35-0.47,0.53c-0.63,0.58-1.89,1.78-0.98,3.06c0.22,0.31,0.49,0.4,0.63,0.45
			c0.02,0.01,0.04,0.01,0.06,0.02c1.18,0.62,2-0.15,2.66-0.77c0.2-0.18,0.4-0.38,0.62-0.55c0.28-0.22,0.51-0.49,0.74-0.75
			c0.2-0.24,0.4-0.46,0.6-0.63l0.68-0.71c0.33-0.35,0.67-0.7,0.99-1.04l0.76-0.76c0.19-0.22,0.39-0.44,0.57-0.67
			c0.35-0.37,0.69-0.74,1.04-1.12l0.51-0.55c0.24-0.23,0.48-0.49,0.71-0.74c0.14-0.15,0.28-0.3,0.41-0.44l-2.47,3.26l-0.45,0.9
			c-0.17,0.35-0.34,0.7-0.51,1.04c-0.24,0.43-0.54,0.87-0.83,1.29c-0.32,0.47-0.66,0.95-0.91,1.45l-0.1,0.18
			c-0.54,1.03-1.08,2.19-0.7,3.01c0.11,0.25,0.36,0.57,0.88,0.69c1.97,0.46,4.13-3.35,4.22-3.51c0.24-0.42,0.57-0.81,0.94-1.22
			c0.36-0.41,0.73-0.84,1.03-1.33c0.65-1.07,2.37-3.75,4.48-5.4l0.04-0.03c0.34-0.32,0.67-0.65,1.01-0.97
			c0.22-0.12,0.43-0.25,0.65-0.37c-0.05,0.18-0.12,0.37-0.2,0.57c-0.09,0.23-0.18,0.47-0.25,0.72c-0.14,0.48-0.29,0.94-0.44,1.39
			c-0.37,1.1-0.72,2.14-0.77,3.35l0,0.04c-0.04,0.8-0.12,2.29,1.22,3.02c0.25,0.14,0.54,0.16,0.81,0.06c0.64-0.23,1.07-1.1,1.27-1.6
			l0.09-0.24c0.16-0.42,0.34-0.89,0.54-1.27c0.31-0.55,0.61-1.1,0.91-1.65l0.04-0.09c0.11-0.33,0.19-0.65,0.26-0.97
			c0.06-0.26,0.12-0.5,0.19-0.75c0.16-0.55,0.32-1.1,0.49-1.65c0.11-0.26,0.26-0.52,0.43-0.79c0.22-0.36,0.43-0.73,0.58-1.14
			l0.01-0.04c0.2-0.71,0.4-1.42,0.6-2.13l0.07-0.25c0.16-0.51,0.38-1.03,0.61-1.55c0.19-0.19,0.43-0.58,0.8-1.3
			c0.09-0.18,0.19-0.38,0.29-0.6c0.34-0.7,0.77-1.64,1.33-2.88c0.38-0.84,0.71-1.56,0.84-1.81l0.11-0.2l0-0.01
			c0.39-0.28,0.79-0.57,1.18-0.86c2.48-1.81,5.03-3.68,6.88-4.78c0.26-0.15,0.54-0.31,0.81-0.46c0.38-0.21,0.77-0.42,1.17-0.62
			c0.04-0.02,0.09-0.04,0.13-0.07c0.29-0.15,0.58-0.3,0.89-0.44L126,91l0.2-0.1c0.18-0.09,0.37-0.18,0.54-0.27
			c3.93-1.88,8.6-3.75,11.66-4.87c0.54-0.2,1.09-0.42,1.64-0.67c0.45-0.19,0.89-0.41,1.34-0.64c2.15-1.1,3.67-2.21,4.3-2.7
			c0.33,0.21,0.92,0.6,1.85,1.25c1.42,0.98,5.2,1.89,7.11,2.25c-0.69,0.89-1.94,2.53-3.71,4.94c-0.22,0.3-0.45,0.61-0.68,0.92
			c-1.69,2.3-3.46,4.78-5.29,7.37c-4.45,6.3-8.06,14.83-11.24,22.36c-1.6,3.79-3.11,7.36-4.53,10.16c-0.76,1.5-1.53,2.85-2.29,4.02
			c-2.15,1.06-7.23,3.73-11.16,7.1c-3.15,2.7-5.39,9.93-7.37,16.31c-1.11,3.58-2.16,6.95-3.08,8.37c-0.28,0.42-0.53,0.78-0.79,1.11
			c-0.05,0.08-0.11,0.15-0.17,0.22c-0.02,0.03-0.05,0.06-0.07,0.09l-0.39,0.49h95.47l-0.71-0.48c-3.38-2.29-19.24-12.18-22.27-12.6
			c-2.64-0.35-7.94-3.62-7.99-3.65l-4.65-2.12c2.86-8.79,4.19-11.04,4.73-11.6c1.43-1.49,3.21-2.42,4.92-3.32
			c0.79-0.41,1.54-0.81,2.25-1.25c1.24-0.76,2.06-1.81,2.56-2.65c0.06-0.1,0.12-0.2,0.17-0.3c0.04-0.08,0.08-0.16,0.12-0.24
			c0.02-0.04,0.04-0.08,0.06-0.12l0.05-0.11c0.06-0.13,0.11-0.24,0.15-0.35c0.03-0.06,0.05-0.12,0.07-0.17
			c0.02-0.07,0.05-0.13,0.06-0.18c0.12-0.12,0.55-0.52,2.06-1.59c2.2-1.57,4.2-5.66,4.5-6.3c0.09-0.08,0.38-0.32,1.19-0.93
			c1.11-0.84,3.94-3.44,5.01-4.43c0.08,0.1,0.17,0.23,0.28,0.39c0.28,0.42,1.54,1.88,3.72,4.44c1.99,2.32,4.45,5.2,6.39,7.56
			c0.03,0.04,0.06,0.08,0.09,0.12c0.05,0.06,0.1,0.12,0.14,0.18c0.04,0.05,0.08,0.1,0.13,0.16c0.01,0.01,0.02,0.03,0.03,0.04
			c0.06,0.07,0.12,0.15,0.18,0.22l0.15,0.19l0.3,0.37l0.45-0.35c0.11-0.09,0.23-0.17,0.36-0.26l0.55-0.4
			c0.15-0.11,0.3-0.22,0.46-0.33c0.01-0.01,0.01-0.01,0.02-0.01c0.64-0.46,1.31-0.95,2.01-1.46c0.69-0.51,1.49-1.19,2.37-2.04
			c1.83-1.77,4.09-4.28,6.69-7.47c0.54-0.66,1.09-1.34,1.64-2.03c0.9-1.13,1.81-2.31,2.73-3.52l0.18-0.25
			c0.1-0.13,0.2-0.26,0.29-0.39l1.05-1.46l-0.67,0.23l-1.04,0.34c-0.25,0.09-0.5,0.17-0.75,0.24c-0.23,0.08-0.45,0.15-0.66,0.22
			l-0.08,0.03c-0.49,0.16-0.91,0.29-1.22,0.4c-0.45-1.75-1.84-6.73-3.87-9.62c-0.18-0.26-0.37-0.5-0.57-0.73
			c-0.1-0.13-0.21-0.25-0.32-0.37c-0.12-0.13-0.23-0.25-0.32-0.34c-0.02-0.02-0.05-0.05-0.08-0.07c-1.71-1.69-3.74-2.69-4.95-3.29
			c-0.31-0.15-0.66-0.32-0.8-0.42c-0.05-0.19-0.1-0.68-0.14-1.11c-0.16-1.63-0.42-4.35-1.66-7.15c-1.46-3.33-3.79-5.64-4.66-6.43
			c0.39-0.82,1.3-2.72,1.9-3.63c0.72-1.07,4.33-3.56,5.66-4.23c1.17-0.59,3.93-0.41,6.85,0.46c3.26,0.98,3.82-0.58,4.47-2.38
			c0.08-0.21,0.16-0.43,0.24-0.66c0.6-1.55,0.59-2.59,0.49-3.15c0.09-0.06,0.2-0.14,0.34-0.23c0.85-0.57,0.71-1.24,0.62-1.68
			c-0.01-0.08-0.03-0.15-0.04-0.25c-0.06-0.39-0.27-0.64-0.44-0.8c0.05-0.04,0.11-0.08,0.16-0.11c0.38-0.26,0.81-0.56,1.01-0.96
			c0.3-0.58,0.08-1.1-0.08-1.48c-0.08-0.18-0.15-0.34-0.18-0.52C221,62.04,221.11,61.65,221.59,61.52z M105.78,168.14
			c0.15-0.21,0.31-0.44,0.47-0.69c1.01-1.56,2.03-4.85,3.22-8.66c1.84-5.92,4.12-13.28,7.02-15.77c3.92-3.36,9.04-6.02,11.06-7.01
			l0.14-0.07l0.09-0.13c0.81-1.24,1.63-2.67,2.44-4.26c1.44-2.84,2.96-6.43,4.57-10.24c3.16-7.48,6.75-15.95,11.12-22.15
			c2.07-2.93,4.07-5.72,5.95-8.27c0.23-0.31,0.45-0.6,0.66-0.89c2.36-3.19,3.62-4.78,3.63-4.8l0.68-0.86l-1.1-0.08
			c-0.75-0.05-6.03-1.16-7.55-2.21c-1.66-1.14-2.23-1.49-2.25-1.5l-0.36-0.21l-0.32,0.27c-0.01,0.01-1.07,0.9-2.85,1.96
			c-0.47,0.28-1,0.58-1.57,0.87c-0.95,0.48-1.91,0.9-2.85,1.25c-2.77,1.01-6.85,2.64-10.53,4.34c-0.37,0.17-0.74,0.34-1.11,0.52
			c-0.04,0.02-0.09,0.04-0.13,0.06c-0.18,0.09-0.36,0.18-0.54,0.27l-0.32,0.16c-0.04,0.02-0.09,0.04-0.13,0.06
			c-0.26,0.13-0.52,0.26-0.78,0.39c-0.76,0.39-1.49,0.79-2.17,1.18c-1.9,1.12-4.48,3.01-6.98,4.84c-0.51,0.37-1.01,0.74-1.5,1.09
			l-0.31,0.23l0.08,0.35c-0.17,0.35-0.44,0.95-0.77,1.67c-0.57,1.26-1.57,3.48-2.01,4.2l-0.14-0.03l-0.19,0.45
			c-0.28,0.62-0.54,1.23-0.74,1.88l-0.08,0.27c-0.19,0.7-0.39,1.41-0.59,2.11c-0.11,0.29-0.29,0.6-0.47,0.91
			c-0.18,0.31-0.37,0.62-0.51,0.96l-0.02,0.06c-0.17,0.56-0.34,1.12-0.5,1.68c-0.09,0.28-0.15,0.55-0.21,0.81
			c-0.07,0.29-0.13,0.56-0.22,0.82c-0.29,0.53-0.59,1.07-0.89,1.61c-0.23,0.45-0.43,0.95-0.6,1.4l-0.09,0.23
			c-0.18,0.45-0.4,0.78-0.53,0.9c-0.56-0.37-0.57-1.11-0.53-1.89v-0.04c0.05-1.05,0.38-2.02,0.72-3.04
			c0.15-0.46,0.31-0.94,0.46-1.44c0.06-0.2,0.13-0.41,0.22-0.63c0.23-0.6,0.48-1.27,0.31-1.99c0-0.05-0.01-0.12-0.04-0.19l-0.16-0.4
			l-0.43,0.03c-0.26,0.02-0.46,0.16-0.61,0.26c-0.04,0.03-0.08,0.05-0.12,0.08l-0.03,0.02c-0.35,0.2-0.69,0.4-1.04,0.6l-0.12,0.07
			l-0.09,0.09c-0.33,0.32-0.66,0.64-0.99,0.96c-2.25,1.77-4.06,4.57-4.74,5.69c-0.25,0.41-0.57,0.78-0.91,1.17
			c-0.39,0.44-0.78,0.89-1.07,1.42c-0.85,1.52-2.29,3.1-2.95,2.94c-0.02-0.01-0.08-0.02-0.09-0.04c-0.08-0.17-0.02-0.65,0.68-1.98
			l0.1-0.19c0.23-0.43,0.52-0.87,0.84-1.32c0.31-0.45,0.62-0.9,0.9-1.42c0.17-0.36,0.35-0.71,0.52-1.07l0.37-0.75l3.04-4.01
			l-0.05-0.26c-0.09-0.47-0.3-0.82-0.7-1.19l-0.34-0.31l-0.38,0.26c-0.46,0.31-0.89,0.78-1.31,1.23c-0.22,0.24-0.45,0.49-0.68,0.7
			L95.21,112c-0.35,0.37-0.7,0.75-1.05,1.12l-0.02,0.02c-0.18,0.22-0.37,0.43-0.56,0.65l-0.08,0.08c-0.21,0.21-0.43,0.43-0.65,0.65
			c-0.34,0.35-0.67,0.7-1.01,1.05l-0.6,0.64c-0.27,0.23-0.5,0.49-0.72,0.75c-0.2,0.23-0.39,0.45-0.58,0.6
			c-0.26,0.21-0.49,0.43-0.69,0.62c-0.71,0.67-0.91,0.8-1.32,0.59c-0.08-0.04-0.15-0.07-0.23-0.1c-0.02-0.01-0.04-0.01-0.05-0.02
			c-0.2-0.29-0.13-0.65,0.84-1.56l0.03-0.03c0.16-0.18,0.33-0.37,0.49-0.55c0.15-0.17,0.3-0.34,0.45-0.51
			c0.82-0.68,1.87-2.11,2.32-2.87c0.06-0.1,0.12-0.21,0.19-0.33c0.23-0.41,0.49-0.87,0.86-1.17l2.23-2.18
			c0.46-0.38,1.23-1.15,1.48-1.76l0.09-0.22l-0.12-0.31c-0.05-0.14-0.11-0.28-0.16-0.43l-0.11-0.3l-0.31-0.07
			c-0.72-0.16-1.53,0.46-2.32,1.05c-0.25,0.19-0.48,0.37-0.65,0.46c-0.45,0.27-0.91,0.46-1.4,0.67c-0.33,0.14-0.67,0.28-1.02,0.45
			c-0.56,0.28-1.11,0.63-1.65,0.96c-0.58,0.36-1.12,0.7-1.67,0.96c-0.19,0.09-0.4,0.23-0.62,0.37c-0.39,0.25-1.04,0.67-1.35,0.6
			c-0.03,0-0.09-0.02-0.17-0.15c-0.14-0.22-0.19-0.4-0.15-0.54c0.08-0.33,0.65-0.67,1.14-0.97l0.04-0.02
			c0.28-0.19,0.55-0.4,0.84-0.61l1.94-1.12l0.06-0.04c0.71-0.53,1.42-1.06,2.13-1.58c0.4-0.25,0.81-0.47,1.25-0.71
			c1.11-0.61,2.25-1.24,3.34-2.35l0.18-0.19l-0.02-0.26c0-0.04,0-0.08,0-0.11c0-0.18,0.01-0.49-0.2-0.79l-0.11-0.17l-0.19-0.06
			c-0.74-0.24-1.51,0.07-2.13,0.31c-0.15,0.06-0.29,0.11-0.43,0.16c-0.24,0.04-0.48,0.09-0.72,0.13c-0.25,0.05-0.5,0.09-0.72,0.14
			c-0.59,0.09-1.19,0.32-1.76,0.55c-0.2,0.08-0.4,0.16-0.59,0.23l-0.05,0.01c-1.29,0.47-1.63,0.32-1.73,0.18
			c-0.04-0.06-0.1-0.15-0.15-0.24c0.02-0.01,0.04-0.02,0.06-0.03l0.13-0.09c0.27-0.21,0.41-0.33,0.66-0.44
			c0.49-0.22,0.96-0.38,1.45-0.55c0.28-0.1,0.56-0.19,0.84-0.3l0.06-0.03c0.37-0.2,0.74-0.4,1.11-0.6c0.6-0.2,1.19-0.41,1.81-0.63
			c0.65-0.23,1.38-0.48,2.05-0.83l0.04-0.02c0.43-0.27,0.86-0.54,1.28-0.81c1.21-0.55,2.32-1.21,3.49-1.89
			c0.55-0.32,1.11-0.6,1.71-0.9c0.76-0.39,1.56-0.79,2.31-1.27c0.12-0.04,0.26-0.1,0.41-0.16c1.02-0.38,2.72-1.02,3.69-2.17
			l0.02-0.03c2.02-2.39,4.23-4.97,6.72-7.69c0.26-0.28,0.52-0.56,0.79-0.84c0.02-0.02,0.05-0.05,0.07-0.08
			c0.32-0.35,0.64-0.7,0.98-1.05c0.09-0.09,0.18-0.18,0.26-0.27c0.55-0.58,1.04-1.08,1.54-1.58c0.15-0.15,0.3-0.3,0.44-0.44
			c0,0,0,0,0,0c6.01-5.91,12.44-9.48,15.22-11.02c0.36-0.2,0.67-0.37,0.9-0.51c1.08-0.62,1.87-1.3,2.5-1.85
			c0.63-0.54,1.13-0.97,1.68-1.16c0.81-0.29,1.66-0.19,2.55-0.09c0.26,0.03,0.52,0.06,0.78,0.08h0.02c0.1,0.01,0.19,0.01,0.27,0.02
			c0.24,0.01,0.62-0.02,1.35-0.13c0.03-0.01,0.07-0.01,0.1-0.02c0.32-0.05,0.68-0.11,1.08-0.18l0.36-0.06c0.01,0,0.02,0,0.03-0.01
			c0.6-0.1,1.29-0.22,2.02-0.33c0,0,0.01,0,0.01,0c0.31-0.05,0.62-0.1,0.95-0.15c3.52-0.54,6.42-0.82,8.87-0.85h0.03
			c0.94-0.02,1.77,0.01,2.54,0.07c0.15,0.01,0.3,0.02,0.44,0.03c2.53,0.24,4.73,0.58,6.44,0.9c1.18,0.22,2.12,0.43,2.78,0.57
			l0.23,0.05c1.64,0.36,2.13,0.45,2.49,0.32c1.18-0.42,4.3-1.43,7.65-1.67c1.18-0.09,2.28-0.18,3.26-0.29
			c1.53-0.17,2.24-0.31,2.27-0.32l0.34-0.07l0.03-0.11l0.07-0.23c0.04-0.13,0.94-3.15,1.32-6.1c0.25-1.93,0.16-3.23,0-5.38
			c-0.09-1.22-0.2-2.74-0.29-4.84c-0.18-4.49,1.23-8.41,4.07-11.37c0.05-0.05,0.1-0.1,0.15-0.15c0.06-0.06,0.12-0.12,0.18-0.18
			l0.09-0.08l0.12-0.11c0.08-0.08,0.16-0.15,0.24-0.23c0.02-0.02,0.04-0.04,0.07-0.06c5.11-4.55,13.47-5.81,20.38-3.06
			c1.43,0.57,2.82,1.7,4.15,3.36c0.01,0.02,0.02,0.03,0.04,0.05c1.71,2.14,3.24,5.04,4.55,8.62c0.63,1.74,0.63,3.55-0.01,4.6
			c-0.9,1.47-0.95,3.66-0.38,4.56c0.7,1.12,2.74,4.87,2.79,5.66c0.01,0.19-0.26,0.58-2.21,1.07l-0.24,0.06
			c-0.98,0.26-1.56,1.17-1.38,2.17c0.06,0.3,0.16,0.56,0.25,0.76c0.14,0.33,0.16,0.41,0.12,0.5c-0.07,0.14-0.43,0.39-0.65,0.54
			c-0.46,0.32-0.9,0.63-0.84,1.14c0.05,0.39,0.32,0.59,0.48,0.71c0.15,0.11,0.15,0.13,0.16,0.17c0.02,0.11,0.03,0.2,0.05,0.3
			c0.07,0.36,0.07,0.36-0.13,0.49c-0.69,0.46-0.74,0.52-0.78,0.56l-0.25,0.28l0.14,0.34c0,0.01,0.33,0.88-0.38,2.74
			c-0.09,0.24-0.17,0.46-0.25,0.68c-0.64,1.78-0.84,2.32-3.05,1.66c-3.29-0.98-6.24-1.13-7.71-0.39c-1.36,0.69-5.21,3.28-6.11,4.62
			c-0.83,1.25-2.12,4.06-2.17,4.18l-0.19,0.41l0.35,0.28c0.03,0.02,2.99,2.48,4.68,6.3c1.16,2.63,1.41,5.23,1.56,6.79
			c0.09,0.97,0.14,1.41,0.34,1.69c0.18,0.24,0.51,0.41,1.24,0.76c1.14,0.56,3.03,1.5,4.6,3.03c0.04,0.04,0.09,0.08,0.13,0.12
			c0.09,0.09,0.18,0.18,0.27,0.28l0.01,0.01l0.02,0.02c0.09,0.09,0.17,0.18,0.25,0.28l0.02,0.03c0.03,0.03,0.06,0.07,0.09,0.11
			c0.15,0.17,0.28,0.35,0.42,0.54c2.31,3.29,3.83,9.77,3.84,9.83l0.14,0.62l0.6-0.2c0,0,0.3-0.1,0.79-0.26
			c0.22-0.07,0.47-0.16,0.76-0.25c-1.25,1.64-2.49,3.2-3.7,4.67c-0.87,1.07-1.7,2.06-2.49,2.97l0,0c-0.88,1.02-1.7,1.93-2.48,2.74
			c-0.57,0.61-1.12,1.16-1.63,1.65c-0.84,0.81-1.6,1.46-2.25,1.94c-0.87,0.64-1.69,1.24-2.48,1.81l-0.48,0.35
			c-0.03-0.04-0.06-0.08-0.09-0.12c-0.04-0.05-0.09-0.11-0.14-0.17c-0.02-0.02-0.04-0.04-0.05-0.07c-1.97-2.39-4.46-5.3-6.46-7.64
			c-1.82-2.12-3.38-3.95-3.64-4.33c-0.62-0.91-0.96-1.26-1.42-1.09l-0.11,0.04l-0.09,0.08c-0.04,0.04-4.03,3.76-5.33,4.74
			c-1.28,0.96-1.51,1.17-1.55,1.39c-0.31,0.65-2.2,4.47-4.12,5.83c-1.54,1.1-2.12,1.6-2.35,1.88c-0.09,0.12-0.12,0.2-0.13,0.28
			c-0.01,0.04-0.03,0.09-0.05,0.14c-0.02,0.05-0.04,0.12-0.08,0.18c-0.03,0.08-0.07,0.16-0.11,0.24l-0.05,0.11
			c-0.04,0.08-0.08,0.15-0.12,0.23c-0.01,0.03-0.03,0.05-0.04,0.08c-0.41,0.74-1.15,1.79-2.32,2.51c-0.69,0.42-1.41,0.81-2.19,1.21
			c-1.79,0.94-3.65,1.92-5.21,3.54c-1.1,1.14-2.84,5.36-5.16,12.54l-0.16,0.5l5.49,2.5c0.5,0.31,5.61,3.42,8.42,3.79
			c2.24,0.31,14.59,7.76,20.16,11.35H105.78z"/>
		<path class="st80" d="M291.91,79.6c0,0,0.04-0.55-0.34-0.74c-0.39-0.2-1.33,0.64-1.71,0.87c-0.37,0.23-1.6,1.17-2.2,1.51
			c-0.6,0.35-2.56,2.51-3.07,3.13c-0.5,0.61,0.63-1.9,0.84-2.54c0.21-0.64,1.48-2.56,2.48-3.72c1-1.16,2.26-2.54,2.31-3.01
			c0.05-0.47-0.06-0.97-0.11-1.03c-0.06-0.06-0.07-0.45-0.3-0.76c-0.23-0.32-0.46-0.22-1.35,0.46c-0.88,0.68-2.07,1.32-3.03,2.13
			c-0.93,0.78-2.68,3.3-2.79,3.45c0.04-0.1,0.36-0.86,0.64-1.46c0.31-0.64,1.16-2.15,1.9-3.24c0.73-1.1,2.06-3.34,1.99-3.95
			c-0.07-0.61-0.49-1-0.49-1s-0.21-0.46-0.75-0.64c-0.55-0.17-0.57,0.24-1.84,1.35c-1.27,1.12-3.14,3.36-4.03,4.31
			c-0.88,0.95-2.27,4.85-2.52,4.87c-0.25,0.02,0.31-3.28,0.53-4.63c0.24-1.36,1.07-3.22,1.56-4.07c0.49-0.84,0.96-3.06,0.82-3.5
			c-0.15-0.44-0.35-0.56-0.35-0.56s-0.22-0.34-0.45-0.56c-0.24-0.22-0.82-0.25-1.06,0.11c-0.24,0.35-1.58,3.06-2.58,4.44
			c-0.99,1.39-1.26,2.12-1.51,2.94c-0.25,0.82-1.41,5.65-1.41,5.65s-1.02-2.77-1.71-3.31c-0.7-0.54-0.92-0.41-1.11-0.44
			c-0.19-0.03-1.06-0.19-1.27,0.39c-0.22,0.58,0.75,3.21,0.69,5.37c-0.06,2.16-0.91,2.72-1.53,4.95c-0.62,2.23,1.7,7.89,1.71,8.36
			c0.02,0.46-0.05,0.61-2.02,2.65c-1.97,2.04-11.75,10.86-14.19,11.45c-2.44,0.6-10.86,3.38-10.86,3.38s-1.52-6.62-3.93-10.04
			c-2.41-3.43-6.7-4.71-7.05-5.19c-0.35-0.48-0.09-4.38-1.84-8.37c-1.76-3.99-4.84-6.51-4.84-6.51s1.31-2.87,2.13-4.1
			c0.82-1.23,4.56-3.76,5.89-4.43c1.32-0.67,4.21-0.49,7.28,0.43c3.07,0.92,3.18-0.52,4.01-2.69c0.84-2.16,0.37-3.18,0.37-3.18
			s0.05-0.05,0.68-0.47c0.64-0.43,0.41-0.81,0.33-1.35c-0.08-0.54-0.6-0.55-0.65-0.87c-0.04-0.32,1.15-0.81,1.43-1.35
			c0.27-0.53-0.19-0.97-0.31-1.63c-0.12-0.66,0.22-1.31,0.96-1.51c0.74-0.19,2.94-0.64,2.87-1.73c-0.06-1.07-2.47-5.27-2.87-5.93
			c-0.42-0.66-0.46-2.58,0.38-3.95c0.84-1.37,0.67-3.45,0.06-5.1c-0.6-1.66-3.75-10.25-9.07-12.37c-6.95-2.77-15.57-1.63-20.96,3.15
			c-0.03,0.03-0.06,0.05-0.1,0.09c-0.11,0.1-0.22,0.2-0.33,0.3c-0.11,0.1-0.22,0.21-0.32,0.32c-0.03,0.03-0.06,0.06-0.09,0.1
			c-2.78,2.86-4.48,6.82-4.28,11.85c0.23,5.8,0.68,7.18,0.29,10.12c-0.38,2.95-1.3,6.01-1.3,6.01s-1.7,0.34-5.47,0.6
			c-3.77,0.26-7.23,1.49-7.8,1.7c-0.31,0.11-1.64-0.25-3.84-0.71c-0.05-0.01-0.11-0.02-0.17-0.03c-0.18-0.04-0.37-0.08-0.55-0.11
			c-0.15-0.03-0.31-0.06-0.47-0.09c-0.04-0.01-0.08-0.02-0.13-0.02c-1.76-0.33-3.96-0.69-6.52-0.92c-0.11-0.01-0.23-0.02-0.34-0.03
			c-0.04,0-0.09-0.01-0.13-0.01c-0.84-0.06-1.7-0.08-2.59-0.07c-3.05,0.04-6.3,0.45-8.98,0.86c-0.33,0.05-0.65,0.1-0.96,0.15
			c-0.7,0.11-1.34,0.22-1.92,0.32h0c-0.12,0.02-0.24,0.04-0.35,0.06c-0.46,0.08-0.87,0.15-1.23,0.2c-0.64,0.1-1.09,0.15-1.31,0.14
			c-0.09,0-0.18-0.01-0.27-0.02c0,0-0.01,0-0.01,0c-0.44-0.03-0.87-0.09-1.31-0.13c-0.76-0.07-1.51-0.09-2.26,0.18
			c-1.26,0.45-2.16,1.83-4.27,3.06c-2.11,1.22-9.73,5.05-16.69,12.06c-0.51,0.51-1.01,1.03-1.5,1.54c-0.1,0.11-0.2,0.21-0.3,0.32
			c-0.34,0.36-0.68,0.71-1,1.07c-0.29,0.3-0.57,0.61-0.85,0.91c-0.08,0.08-0.15,0.16-0.22,0.24c-2.56,2.81-4.82,5.47-6.51,7.47l0,0
			c-1.07,1.27-3.15,1.88-3.95,2.21c-1.3,0.84-2.73,1.42-4.04,2.18c-1.17,0.69-2.28,1.34-3.47,1.88c-0.43,0.28-0.88,0.56-1.31,0.83
			c-0.44,0.23-0.91,0.42-1.37,0.58c-0.06,0.03-0.13,0.05-0.19,0.07c-0.15,0.05-0.29,0.11-0.43,0.16c-0.09,0.03-0.18,0.06-0.28,0.1
			c-0.23,0.08-0.46,0.16-0.69,0.24c-0.06,0.02-0.12,0.04-0.19,0.06c-0.22,0.08-0.45,0.16-0.67,0.24c-0.38,0.21-0.76,0.41-1.14,0.61
			c-0.76,0.29-1.52,0.51-2.32,0.87c-0.32,0.14-0.51,0.29-0.8,0.53c-0.04,0.02-0.08,0.03-0.12,0.05c-0.06,0.03-0.12,0.05-0.18,0.08
			c0,0,0,0-0.01,0c-0.11,0.1-0.15,0.2-0.15,0.32c0,0.06,0.02,0.13,0.04,0.2c0.06,0.17,0.17,0.33,0.26,0.47
			c0.51,0.75,1.91,0.22,2.45,0.02c0.27-0.1,0.55-0.21,0.83-0.32c0.06-0.02,0.12-0.04,0.18-0.07c0.22-0.08,0.43-0.16,0.65-0.23
			c0.19-0.06,0.39-0.11,0.58-0.13c0.01,0,0.01,0,0.02,0c0.05-0.01,0.11-0.02,0.17-0.03c0.44-0.09,0.88-0.16,1.32-0.25
			c0.69-0.23,1.53-0.7,2.24-0.48c0.14,0.2,0.08,0.42,0.1,0.62c-1.44,1.48-3.04,2.08-4.49,2.99c-0.4,0.3-0.81,0.6-1.21,0.9
			c-0.08,0.05-0.15,0.11-0.23,0.17c-0.24,0.17-0.47,0.35-0.71,0.53c-0.03,0.02-0.06,0.03-0.09,0.05c-0.23,0.13-0.47,0.27-0.71,0.41
			c-0.06,0.04-0.13,0.08-0.2,0.11c-0.32,0.18-0.65,0.37-0.98,0.56c-0.28,0.21-0.57,0.42-0.86,0.62c-0.93,0.55-1.91,1.14-1.18,2.31
			c0.3,0.49,0.75,0.51,1.22,0.33c0.05-0.02,0.11-0.04,0.17-0.07c0.23-0.1,0.45-0.23,0.66-0.36c0.26-0.16,0.5-0.33,0.7-0.44
			c0.04-0.02,0.09-0.05,0.13-0.07c0.02-0.01,0.03-0.02,0.05-0.03c1.1-0.53,2.17-1.35,3.28-1.9c0.81-0.4,1.64-0.66,2.45-1.14
			c0.66-0.39,1.91-1.59,2.55-1.45c0.06,0.18,0.13,0.36,0.2,0.54c-0.2,0.49-0.9,1.2-1.33,1.55c-0.73,0.72-1.47,1.44-2.21,2.16
			c-0.58,0.46-0.89,1.16-1.19,1.66c-0.47,0.79-1.5,2.16-2.23,2.75c-0.33,0.37-0.65,0.73-0.98,1.09c-0.77,0.72-1.49,1.52-0.92,2.31
			c0.15,0.22,0.33,0.21,0.48,0.29c1.07,0.56,1.63-0.45,2.65-1.26c0.46-0.37,0.84-0.97,1.33-1.38c0.54-0.57,1.08-1.15,1.63-1.72
			c0.25-0.24,0.5-0.49,0.74-0.73c0.2-0.23,0.39-0.45,0.58-0.68c0.53-0.56,1.05-1.12,1.58-1.69c0.65-0.61,1.28-1.44,1.92-1.87
			c0.33,0.31,0.46,0.57,0.52,0.87c-0.97,1.28-1.94,2.57-2.91,3.85c-0.31,0.62-0.6,1.25-0.91,1.87c-0.52,0.95-1.27,1.82-1.74,2.73
			c-0.36,0.71-1.55,2.76-0.29,3.05c1.21,0.28,2.9-2,3.58-3.23c0.51-0.91,1.41-1.64,1.97-2.57c1.16-1.92,2.84-4.15,4.62-5.55
			c0.35-0.33,0.71-0.68,1.05-1.01c0.37-0.21,0.74-0.42,1.1-0.63c0.17-0.09,0.34-0.26,0.52-0.27c0,0.02,0,0.04,0,0.06
			c0.21,0.79-0.28,1.57-0.51,2.38c-0.46,1.63-1.12,2.99-1.2,4.61c-0.04,0.73-0.12,1.96,0.92,2.52c0.55,0.3,1.08-0.8,1.26-1.24
			c0.19-0.48,0.41-1.08,0.67-1.57c0.3-0.55,0.61-1.1,0.91-1.65c0.18-0.55,0.27-1.11,0.45-1.69c0.16-0.56,0.33-1.12,0.5-1.68
			c0.28-0.66,0.78-1.27,1.01-1.92c0.23-0.8,0.45-1.6,0.67-2.4c0.19-0.61,0.45-1.2,0.71-1.8c0.33,0.08,2.73-5.58,3.2-6.45
			c-0.01-0.05-0.03-0.11-0.04-0.17c2.9-2.11,6.17-4.57,8.43-5.91c0.57-0.34,1.21-0.68,1.89-1.04l0.26-0.13
			c0.29-0.15,0.58-0.29,0.89-0.44c0.29-0.15,0.58-0.29,0.88-0.43c0.08-0.04,0.16-0.08,0.24-0.12c3.78-1.79,8.28-3.61,11.46-4.78
			c4.47-1.65,7.44-4.18,7.44-4.18s0.4,0.24,1.52,1c0.03,0.02,0.07,0.05,0.11,0.07c0.18,0.12,0.38,0.26,0.6,0.41
			c0.22,0.16,0.51,0.31,0.85,0.46c0.3,0.13,0.64,0.27,1,0.39c0.08,0.03,0.15,0.05,0.23,0.08c2.23,0.75,5.19,1.34,5.76,1.38
			c0,0-0.89,1.13-2.61,3.43c-0.03,0.04-0.06,0.08-0.09,0.11c-0.11,0.14-0.21,0.28-0.31,0.42c-0.1,0.14-0.21,0.28-0.31,0.42
			c-0.03,0.04-0.06,0.08-0.09,0.12c-1.69,2.27-3.98,5.42-6.85,9.47c-4.07,5.77-7.46,13.48-10.44,20.5c-0.03,0.08-0.07,0.16-0.1,0.24
			c-0.12,0.29-0.24,0.58-0.36,0.87c-0.13,0.29-0.25,0.57-0.37,0.85c-0.03,0.08-0.07,0.16-0.1,0.24c-1.54,3.66-2.99,7.04-4.36,9.75
			c-0.86,1.69-1.66,3.07-2.41,4.21c-2.62,1.28-7.46,3.9-11.18,7.09c-1.08,0.93-2.07,2.46-2.97,4.33c-0.16,0.34-0.33,0.69-0.49,1.05
			c-0.33,0.74-0.65,1.53-0.96,2.35c-0.05,0.14-0.11,0.28-0.16,0.42c-0.01,0.04-0.03,0.08-0.04,0.12c-2.33,6.25-4.1,13.79-5.73,16.28
			c-0.24,0.37-0.47,0.7-0.7,1.01c-0.03,0.04-0.06,0.08-0.09,0.12c-0.12,0.16-0.24,0.31-0.36,0.46h93.69
			c-3.8-2.57-19.25-12.13-22.02-12.5c-2.8-0.38-8.22-3.73-8.22-3.73l-5.05-2.3c1.52-4.72,3.71-10.97,5.02-12.32
			c2.16-2.24,4.99-3.24,7.29-4.66c2.3-1.42,3.04-3.89,3.04-3.89s0-0.09,0.73-0.67c0.01-0.01,0.01-0.01,0.02-0.01
			c0.33-0.26,0.81-0.62,1.5-1.11c0.75-0.54,1.48-1.4,2.13-2.31c0.12-0.16,0.23-0.33,0.34-0.5c0.37-0.57,0.71-1.14,0.99-1.65
			c0.08-0.15,0.16-0.29,0.23-0.42c0.25-0.45,0.43-0.82,0.54-1.04c0.07-0.15,0.11-0.23,0.11-0.23c0,0,0.01-0.05,0.46-0.41
			c0.19-0.15,0.47-0.37,0.86-0.66c0.14-0.11,0.31-0.24,0.5-0.4l0,0c0.19-0.15,0.4-0.33,0.62-0.53c0.71-0.62,1.56-1.38,2.32-2.07
			c0.23-0.2,0.44-0.4,0.64-0.58c0.75-0.69,1.29-1.2,1.29-1.2s0.03-0.01,0.15,0.12c0.11,0.11,0.29,0.33,0.58,0.76
			c0.62,0.91,7.37,8.55,11.09,13.19c3.7,4.64,10.01,8.36,12.89,8.34c2.9-0.02,1.52-0.67,3.64-2.63c2.12-1.96,6.09-4.57,12.05-8.95
			c5.96-4.39,17.96-21.15,18.78-22.57c0.82-1.43,2.65-1.74,5.22-5.26c2.58-3.53,3.63-7.18,4.01-7.98c0.38-0.81,1.66-3.89,2.27-4.65
			c0.62-0.76,3.6-4.12,3.81-4.86C292.14,80.29,291.91,79.6,291.91,79.6z"/>
	</g>
</g>
</svg>
