<?xml version="1.0" encoding="utf-8"?>
<!-- Generator: Adobe Illustrator 27.8.1, SVG Export Plug-In . SVG Version: 6.00 Build 0)  -->
<svg version="1.1" xmlns="http://www.w3.org/2000/svg" xmlns:xlink="http://www.w3.org/1999/xlink" x="0px" y="0px"
	 viewBox="0 0 350 230" style="enable-background:new 0 0 350 230;" xml:space="preserve">
<style type="text/css">
	.st0{fill:#FF9D00;}
	.st1{fill:url(#SVGID_1_);}
	.st2{opacity:0.22;fill:url(#SVGID_00000088128586926841571680000010577963394482435482_);}
	.st3{fill:#FFC200;}
	.st4{fill:#778718;}
	.st5{fill:#E0B017;}
	.st6{fill:#664407;}
	.st7{fill:#9E690A;}
	.st8{fill:#7F1105;}
	.st9{fill:#191933;}
	.st10{fill:#FCEBD4;}
	.st11{fill:#E3DFD6;}
	.st12{fill:#FFB000;}
	.st13{fill:#AA210E;}
	.st14{fill:#FFF0A6;}
	.st15{fill:#FFDA00;}
	.st16{fill:#F4F4F4;}
	.st17{fill:#DC5C28;}
	.st18{fill:#FF8440;}
	.st19{fill:#C45224;}
	.st20{fill:#2C4369;}
	.st21{fill:#2A72DB;}
	.st22{fill:#C65500;}
	.st23{fill:#C15746;}
	.st24{fill:#FF8C00;}
	.st25{fill:#FFEA2C;}
	.st26{fill:#F7FF57;}
	.st27{fill:#FFFFFF;}
	.st28{fill:#D64949;}
	.st29{fill:#353535;}
	.st30{fill:#FFC783;}
	.st31{fill:#3F7F91;}
	.st32{fill:#25BDE5;}
	.st33{fill:#8CDD00;}
	.st34{fill:#D1FF88;}
	.st35{fill:#333333;}
	.st36{fill:#FF9000;}
	.st37{fill:#A1A813;}
	.st38{fill:#B3C40E;}
	.st39{fill:#CACE72;}
	.st40{fill:url(#SVGID_00000112622148361527322280000009711609798552022169_);}
	.st41{fill:#93E800;}
	.st42{fill:#3CB7D3;}
	.st43{fill:#FF7631;}
	.st44{fill:#E6873C;}
	.st45{fill:#30657F;}
	.st46{fill:#FF7A40;}
	.st47{fill:#FFAD4A;}
	.st48{fill:#BC8E3B;}
	.st49{fill:#E2E2E2;}
	.st50{fill:#F2B844;}
	.st51{fill:#AF3838;}
	.st52{fill:#17B5C1;}
	.st53{fill:#A88643;}
	.st54{fill-rule:evenodd;clip-rule:evenodd;fill:#DD7928;}
	.st55{fill:#E6E7E8;stroke:#CFCFCF;stroke-width:0.1061;}
	.st56{fill-rule:evenodd;clip-rule:evenodd;fill:#204F7A;}
	.st57{fill-rule:evenodd;clip-rule:evenodd;fill:#50A4FF;}
	.st58{fill:#002649;}
</style>
<g id="Layer_1">
</g>
<g id="Layer_12">
</g>
<g id="Layer_13">
</g>
<g id="Layer_14">
</g>
<g id="Layer_15">
</g>
<g id="Layer_11">
</g>
<g id="Layer_8">
</g>
<g id="Layer_10">
</g>
<g id="Layer_9">
</g>
<g id="Layer_2">
</g>
<g id="Layer_3">
</g>
<g id="Layer_4">
	<path class="st46" d="M114.35,66.3c0.01,0.02,0.01,0.05,0.02,0.08h0.01C114.37,66.34,114.37,66.32,114.35,66.3z M187.85,44.32
		c-8.85-0.54-17.46-0.57-25.96-0.13c-17.77,0.91-35.08,3.89-53.26,8.66c0.38,4.06,0.97,8.2,1.77,12.41l3.81,0.28
		c-0.17-0.84-0.32-1.67-0.48-2.5c-0.01-0.05-0.02-0.11-0.03-0.16c-0.14-0.78-0.26-1.55-0.38-2.32c-0.14-0.88-0.27-1.74-0.38-2.61
		c-0.05-0.34-0.1-0.68-0.14-1.02c-0.06-0.44-0.11-0.87-0.17-1.3c17.74-4.48,33.96-7.01,50.08-7.8c0.25-0.02,0.51-0.02,0.76-0.04
		c3.39-0.15,6.77-0.23,10.17-0.23c19.81,0,40.72,2.66,63.81,8.13c-0.08,0.78-0.15,1.55-0.25,2.33c-0.01,0.11-0.02,0.23-0.04,0.35
		c-0.05,0.49-0.11,0.97-0.18,1.46c-0.05,0.36-0.09,0.72-0.14,1.09c-0.1,0.7-0.2,1.41-0.31,2.11c-0.14,0.82-0.27,1.65-0.42,2.48
		l3.8-0.28c0.71-4.17,1.2-8.31,1.46-12.38C222.02,48.1,204.5,45.32,187.85,44.32z M213.37,122.93l-0.95,0.09
		c-1.09,1.63-2.2,3.23-3.34,4.8c-0.11,0.17-0.23,0.32-0.35,0.49c-0.78,1.09-1.58,2.15-2.39,3.21c-0.27,0.35-0.54,0.69-0.8,1.03
		c-0.38,0.49-0.76,0.97-1.15,1.46c-0.29,0.36-0.57,0.72-0.87,1.08c-0.36,0.45-0.72,0.88-1.09,1.31c-0.31,0.38-0.63,0.75-0.94,1.12
		c-0.45,0.54-0.91,1.06-1.38,1.59c-0.57,0.65-1.14,1.29-1.72,1.93c-2.64,2.91-5.38,5.69-8.2,8.32c-0.48,0.45-0.97,0.91-1.46,1.34
		c-0.65,0.59-1.3,1.16-1.95,1.74c-0.03,0.03-0.07,0.06-0.11,0.09c-0.65,0.57-1.31,1.12-1.96,1.68c-0.4,0.34-0.8,0.67-1.21,1
		c-0.76,0.63-1.52,1.24-2.29,1.83c-0.51,0.4-1.03,0.79-1.54,1.18c-0.51,0.39-1.03,0.78-1.55,1.15c-0.52,0.38-1.04,0.76-1.57,1.12
		c-0.52,0.38-1.05,0.74-1.58,1.1c-2.81-1.83-5.56-3.82-8.26-5.98c-0.5-0.39-0.99-0.79-1.48-1.2c-1.39-1.15-2.76-2.33-4.11-3.57
		c-0.41-0.36-0.81-0.73-1.21-1.11c-1.21-1.12-2.4-2.28-3.58-3.48c-0.39-0.39-0.78-0.79-1.17-1.2c-0.39-0.41-0.78-0.82-1.16-1.22
		c-0.38-0.42-0.77-0.83-1.15-1.25c-0.38-0.42-0.76-0.84-1.14-1.27c-0.54-0.6-1.08-1.21-1.6-1.83c-0.08-0.08-0.14-0.15-0.2-0.23
		c-0.54-0.63-1.07-1.25-1.6-1.89c-0.35-0.44-0.71-0.88-1.06-1.31c-0.74-0.9-1.46-1.82-2.17-2.75c-0.36-0.47-0.72-0.94-1.07-1.41
		c-0.71-0.94-1.41-1.9-2.11-2.88c-0.35-0.48-0.69-0.97-1.03-1.46c-0.27-0.38-0.54-0.77-0.8-1.16c-0.26-0.36-0.51-0.73-0.75-1.11
		c-0.31-0.45-0.61-0.9-0.9-1.36c-0.2-0.29-0.39-0.58-0.58-0.88l-1.18-0.11c-1.27-0.12-2.51-0.36-3.71-0.72
		C143.97,140.03,158.29,155.7,175,166c16.83-11.01,31.3-26.49,42.41-43.89C216.11,122.52,214.76,122.79,213.37,122.93z"/>
	<path class="st47" d="M212.42,123.02c-1.09,1.63-2.2,3.23-3.34,4.8c-0.11,0.17-0.23,0.32-0.35,0.49c-0.78,1.09-1.58,2.15-2.39,3.21
		c-0.27,0.35-0.54,0.69-0.8,1.03c-0.38,0.49-0.76,0.97-1.15,1.46c-0.29,0.36-0.57,0.72-0.87,1.08c-0.36,0.45-0.72,0.88-1.09,1.31
		c-0.31,0.38-0.63,0.75-0.94,1.12c-0.45,0.54-0.91,1.06-1.38,1.59c-0.57,0.65-1.14,1.29-1.72,1.93c-2.64,2.91-5.38,5.69-8.2,8.32
		c-0.48,0.45-0.97,0.9-1.46,1.34c-0.65,0.59-1.3,1.16-1.95,1.74c-0.03,0.03-0.07,0.06-0.11,0.09c-0.65,0.57-1.31,1.12-1.96,1.68
		c-0.4,0.34-0.8,0.67-1.21,1c-0.76,0.63-1.52,1.24-2.29,1.83c-0.51,0.4-1.03,0.79-1.54,1.18c-0.51,0.39-1.03,0.78-1.55,1.15
		c-0.52,0.38-1.04,0.75-1.57,1.12c-0.52,0.38-1.05,0.74-1.58,1.1c-2.81-1.83-5.56-3.82-8.26-5.98c-0.5-0.39-0.99-0.79-1.48-1.2
		c-1.39-1.15-2.76-2.33-4.11-3.57c-0.41-0.36-0.81-0.73-1.21-1.11c-1.21-1.12-2.4-2.28-3.58-3.48c-0.39-0.39-0.78-0.79-1.17-1.2
		c-0.39-0.41-0.78-0.82-1.16-1.22c-0.38-0.42-0.77-0.83-1.15-1.25c-0.38-0.42-0.76-0.84-1.14-1.27c-0.54-0.6-1.08-1.21-1.6-1.83
		c-0.08-0.08-0.14-0.15-0.2-0.23c-0.54-0.63-1.07-1.25-1.6-1.89c-0.35-0.44-0.71-0.88-1.06-1.31c-0.74-0.9-1.46-1.82-2.17-2.75
		c-0.36-0.47-0.72-0.94-1.07-1.41c-0.71-0.94-1.41-1.9-2.11-2.88c-0.35-0.48-0.69-0.97-1.03-1.46c-0.27-0.38-0.54-0.77-0.8-1.16
		c-0.26-0.36-0.51-0.73-0.75-1.11c-0.3-0.45-0.6-0.9-0.9-1.36c-0.2-0.29-0.39-0.58-0.58-0.88l5.03,0.47
		c0.14,0.21,0.27,0.42,0.42,0.62c9.25,13.53,20.01,24.67,31.64,32.7c11.93-8.54,22.8-19.68,31.99-32.7
		c0.14-0.21,0.29-0.42,0.44-0.63L212.42,123.02z M173.64,47.56c-3.4,0-6.78,0.08-10.17,0.23c-0.26,0.02-0.51,0.02-0.76,0.04
		c-16.12,0.78-32.35,3.31-50.08,7.8c0.05,0.43,0.11,0.86,0.17,1.3c0.04,0.34,0.08,0.68,0.14,1.02c0.11,0.87,0.24,1.74,0.38,2.61
		c0.12,0.77,0.25,1.55,0.38,2.32c0.01,0.05,0.02,0.11,0.03,0.16c0.15,0.83,0.31,1.66,0.48,2.5l4.07,0.3
		c-0.51-2.43-0.94-4.85-1.28-7.24c20.08-4.84,38.17-7.1,56.65-7.1c0.39,0,0.78,0,1.18,0.01H175c0.35,0,0.69,0.01,1.03,0.02
		c17.84,0.19,36.59,2.56,57.13,7.21c-0.29,2.34-0.66,4.7-1.11,7.08l4.05-0.3c0.15-0.83,0.29-1.65,0.42-2.48
		c0.11-0.7,0.21-1.41,0.31-2.11c0.05-0.36,0.1-0.72,0.14-1.09c0.07-0.49,0.13-0.97,0.18-1.46c0.02-0.12,0.03-0.23,0.04-0.35
		c0.1-0.78,0.17-1.55,0.25-2.33C214.36,50.23,193.45,47.56,173.64,47.56z"/>
	<path d="M259.69,64.29c-0.16-0.31-0.48-0.48-0.79-0.45l-18.98,1.4l-3.8,0.28l-4.05,0.3c0.45-2.38,0.82-4.74,1.11-7.08
		c-20.54-4.66-39.29-7.03-57.13-7.21c-0.35-0.01-0.69-0.02-1.03-0.02h-0.18c-0.39-0.01-0.78-0.01-1.18-0.01
		c-18.48,0-36.57,2.26-56.65,7.1c0.35,2.39,0.78,4.81,1.28,7.24l-4.07-0.3l-3.81-0.28l-19.29-1.42c-0.32-0.02-0.63,0.14-0.79,0.45
		c-0.06,0.11-0.09,0.26-0.09,0.39c0.01,5,1.88,9.77,5.28,13.43c2.42,2.6,5.43,4.46,8.75,5.46c-0.01,0.06-0.02,0.11-0.02,0.17
		c0,4.75,1.34,9.34,3.77,12.92c2.45,3.62,5.84,5.98,9.55,6.65c0.01,0,0.03,0.01,0.05,0.01h0.01c0.32,0.05,0.64,0.1,0.97,0.13
		l0.15,0.02c0.05,4.78,1.81,9.34,5,12.92c2.48,2.79,5.65,4.78,9.18,5.82c1.2,0.35,2.45,0.6,3.71,0.72l1.18,0.11l5.03,0.47
		c0.14,0.21,0.27,0.42,0.42,0.62c9.25,13.53,20.01,24.67,31.64,32.7c11.93-8.54,22.8-19.68,31.99-32.7
		c0.14-0.21,0.29-0.42,0.44-0.63l5.09-0.48l0.95-0.09c1.39-0.14,2.74-0.41,4.05-0.82c3.39-1.06,6.45-3.01,8.85-5.71
		c3.18-3.58,4.94-8.14,5-12.92l0.15-0.02c0.35-0.03,0.7-0.08,1.02-0.14c0.01,0,0.02,0,0.02-0.01c3.71-0.66,7.1-3.03,9.55-6.64
		c2.42-3.58,3.76-8.17,3.76-12.92c0-0.06-0.01-0.11-0.02-0.17c3.32-1,6.34-2.87,8.75-5.46c3.4-3.67,5.28-8.44,5.28-13.44
		C259.78,64.54,259.75,64.4,259.69,64.29z M92.33,68.69c-0.07-0.29-0.08-0.58-0.04-0.86c0.16-1.2,1.25-2.16,2.55-2.06l15.88,1.16
		l3.83,0.29l4.08,0.29l18.88,1.39c1.63,0.12,2.59,1.91,1.77,3.33c-0.38,0.67-0.75,1.35-1.1,2.04c-0.63,1.27-1.96,2.02-3.37,1.93
		l-14.25-0.91l-4.16-0.27l-3.86-0.25l-5.09-0.32l5.17,0.62l3.92,0.47l4.23,0.51l8.45,1c3.67,0.44,6.14,3.91,5.42,7.53
		c-0.01,0.02-0.01,0.05-0.02,0.07l-1.8-0.14l-9.65-0.71l-4.26-0.31l-3.95-0.29l-6.29-0.46C100.62,82.14,94.07,76.27,92.33,68.69z
		 M117.88,101.7c-0.02,0-0.04-0.01-0.05-0.01c-5.77-1.05-10.32-6.72-11.58-13.9v-0.01c-0.05-0.26-0.09-0.53-0.13-0.79
		c-0.17-1.22,0.82-2.29,2.05-2.21l7.46,0.48l3.95,0.25l4.27,0.27l7.71,0.49c1.46,0.09,2.55,1.37,2.42,2.84
		c-0.11,1.21-0.16,2.42-0.16,3.65v0.02c0,0.63-0.53,1.13-1.16,1.11l-5.82-0.26l-4.32-0.19l-4.02-0.18l-1-0.05l1.03,0.14l4.18,0.58
		h0.01l2.31,0.32c0.79,0.11,1.56,0.3,2.29,0.55c3.81,1.31,6.77,4.46,7.84,8.45c0.01,0.02,0.02,0.05,0.02,0.07
		c0.01,0.02,0.01,0.02,0.01,0.04c0.01,0.01,0.02,0.02,0.02,0.04l-0.72-0.07l-3.46-0.33l-4.56-0.43l-4.25-0.4l-3.48-0.33
		C118.45,101.79,118.16,101.75,117.88,101.7z M141.65,121.74l-4.86-0.46c-0.04,0-0.08-0.01-0.11-0.02
		c-1.81-0.18-3.53-0.63-5.13-1.31c-5.32-2.23-9.33-6.91-10.67-12.54v-0.01c-0.11-0.46-0.2-0.94-0.28-1.41
		c-0.17-1.15,0.78-2.15,1.93-2.04l0.56,0.05l4.27,0.4l4.59,0.44h0.01l0.99,0.09c1.67,0.16,3.09,1.26,3.71,2.82
		c0.5,1.29,1.06,2.54,1.69,3.77c0.53,1.03-0.23,2.25-1.38,2.23l-0.23-0.01l-4.57-0.11l-2.78-0.06l2.73,0.44
		c0.09,0.02,0.19,0.03,0.28,0.05c1.92,0.33,3.79,0.92,5.55,1.74c2.6,1.2,4.95,2.89,6.93,5.01c0.35,0.38,0.72,0.75,1.09,1.12
		c0.08,0.08,0.16,0.16,0.24,0.23L141.65,121.74z M229.41,106c-0.08,0.52-0.18,1.03-0.31,1.54v0.01c-1.34,5.43-5.15,9.96-10.23,12.24
		c-1.64,0.74-3.41,1.24-5.28,1.45c-0.13,0.02-0.26,0.03-0.38,0.05l-4.66,0.45l-4.74,0.45c0.09-0.09,0.18-0.18,0.27-0.26
		c0.36-0.35,0.72-0.72,1.06-1.09c2.08-2.23,4.59-3.99,7.35-5.19c1.72-0.75,3.53-1.3,5.4-1.6l0.14-0.02l2.6-0.42l-2.38,0.05
		l-4.62,0.11l-0.57,0.02c-1.15,0.02-1.91-1.2-1.38-2.23c0.63-1.23,1.19-2.48,1.69-3.77c0.61-1.55,2.04-2.66,3.71-2.82l1.49-0.14
		h0.01l4.61-0.43l4.29-0.41h0.02C228.63,103.85,229.58,104.85,229.41,106z M243.88,86.99c-0.04,0.26-0.08,0.53-0.13,0.79v0.01
		c-1.28,7.18-5.83,12.87-11.6,13.9c-0.01,0.01-0.02,0.01-0.02,0.01c-0.27,0.05-0.57,0.09-0.88,0.12l-2.92,0.28l-4.26,0.4h-0.01
		l-4.58,0.44l-3.85,0.36c-0.02,0-0.04,0-0.05,0.01l-0.79,0.08c0.01-0.02,0.01-0.03,0.02-0.05c0-0.02,0.01-0.02,0.01-0.03
		c0.01-0.03,0.02-0.06,0.03-0.09c1.13-4.2,4.35-7.45,8.45-8.62c0.54-0.16,1.1-0.28,1.68-0.36l2.9-0.4h0.01l4.2-0.58
		c0.02-0.02,0.02-0.03,0.02-0.05l-4.04,0.18l-4.33,0.2l-6.38,0.29c-0.63,0.02-1.16-0.48-1.16-1.11v-0.02c0-1.22-0.05-2.44-0.16-3.65
		c-0.13-1.46,0.96-2.75,2.42-2.84l8.26-0.53l4.26-0.26l3.98-0.26l6.88-0.44C243.06,84.7,244.05,85.77,243.88,86.99z M257.67,68.69
		c-1.74,7.58-8.29,13.45-16.33,14.04l-5.74,0.42l-3.97,0.29l-4.25,0.31l-10.02,0.74h-0.1l-1.88,0.14c-0.01-0.02-0.01-0.05-0.02-0.07
		v-0.01c-0.05,0.01-0.1,0.01-0.14,0.01c0.05-0.01,0.1-0.02,0.14-0.02c-0.72-3.62,1.76-7.08,5.42-7.52l8.94-1.06l4.21-0.51h0.01
		l3.92-0.47l4.69-0.56l-4.62,0.29l-3.87,0.25h-0.01l-4.14,0.27L215.2,76.2c-1.41,0.09-2.74-0.66-3.37-1.93
		c-0.35-0.69-0.72-1.37-1.1-2.04c-0.82-1.42,0.14-3.21,1.77-3.33l19.25-1.41l4.07-0.3l3.81-0.28l15.54-1.14
		c1.22-0.09,2.25,0.74,2.51,1.83c0,0.01,0,0.01,0,0.01C257.75,67.95,257.75,68.31,257.67,68.69z"/>
	<path class="st48" d="M134.63,84.57c-0.61-0.02-1.22-0.05-1.81-0.07l-9.65-0.71l-4.26-0.31l-3.95-0.29l-6.29-0.46
		c-8.04-0.59-14.59-6.46-16.33-14.04c-0.07-0.29-0.08-0.58-0.04-0.86c2.7,5.94,9.98,10.14,21.98,13.17c1.32,0.33,2.7,0.65,4.14,0.96
		c1.42,0.3,2.89,0.59,4.42,0.87h0.01C126.47,83.47,130.39,84.05,134.63,84.57z M135.19,103.31c-0.01-0.02-0.02-0.05-0.02-0.07
		c-1.51-0.2-2.96-0.44-4.35-0.7c-1.7-0.31-3.31-0.67-4.85-1.07c-1.66-0.43-3.22-0.91-4.68-1.43c-8.14-2.92-13.14-7.19-15.04-12.24
		c1.26,7.18,5.82,12.85,11.58,13.9c0.02,0,0.04,0.01,0.05,0.01c0.27,0.05,0.57,0.09,0.86,0.12l3.48,0.33l4.25,0.4l4.56,0.43
		l3.46,0.33c0.23,0.01,0.48,0.02,0.71,0.03C135.2,103.33,135.2,103.32,135.19,103.31z M145.95,121.94c-1.66-0.26-3.28-0.6-4.82-1
		c-2.05-0.52-4-1.15-5.82-1.89h-0.01c-2.21-0.88-4.23-1.89-6.01-2.97c-4.32-2.63-7.31-5.73-8.41-8.66
		c1.34,5.63,5.35,10.32,10.67,12.54c1.6,0.68,3.32,1.12,5.13,1.31c0.04,0.01,0.08,0.02,0.11,0.02l4.86,0.46l4.54,0.43
		C146.11,122.1,146.03,122.02,145.95,121.94z M257.66,67.6c-2.56,5.94-9.64,10.17-21.36,13.21v0.01c-1.33,0.34-2.71,0.67-4.16,0.98
		c-1.41,0.31-2.88,0.61-4.41,0.89c-3.77,0.69-7.89,1.31-12.36,1.86c-0.05,0-0.1,0.01-0.14,0.02c0.05,0,0.1,0,0.14-0.01
		c0.63-0.02,1.27-0.05,1.89-0.07h0.1l10.02-0.74l4.25-0.31l3.97-0.29l5.74-0.42c8.04-0.59,14.59-6.46,16.33-14.04
		C257.75,68.31,257.75,67.95,257.66,67.6z M229.39,99.74c-1.47,0.56-3.06,1.07-4.75,1.53c-1.55,0.42-3.18,0.81-4.91,1.14
		c-1.56,0.31-3.19,0.58-4.9,0.81c-0.02,0.03-0.02,0.06-0.03,0.09c0,0.01-0.01,0.02-0.01,0.03c0.26-0.02,0.52-0.02,0.78-0.03
		c0.02-0.01,0.04-0.01,0.05-0.01l3.85-0.36l4.58-0.44h0.01l4.26-0.4l2.92-0.28c0.31-0.03,0.6-0.08,0.88-0.12
		c0.01,0,0.02,0,0.02-0.01c5.77-1.03,10.32-6.72,11.6-13.9C241.91,92.67,237.12,96.83,229.39,99.74z M221.27,115.75L221.27,115.75
		c-1.82,1.15-3.89,2.21-6.17,3.13c-1.86,0.75-3.85,1.43-5.96,1.97h-0.01c-1.62,0.43-3.31,0.78-5.05,1.06
		c-0.09,0.08-0.18,0.17-0.27,0.26l4.74-0.45l4.66-0.45c0.13-0.02,0.26-0.02,0.38-0.05c1.86-0.21,3.64-0.71,5.28-1.45
		c5.07-2.28,8.89-6.81,10.23-12.24C228.05,110.33,225.27,113.25,221.27,115.75z"/>
	<path class="st27" d="M179.94,82.74l2.87,16.96c0.05,0.29-0.06,0.58-0.28,0.78c-2.28,1.94-7.22,6.12-10.62,8.84
		c-0.21,0.16-0.48,0.22-0.73,0.15c-6.43-1.67-12.11-3.5-16.07-4.87c-0.29-0.1-0.49-0.34-0.55-0.64l-2.62-14.34
		c-0.05-0.26,0.03-0.52,0.21-0.72c4.35-4.73,9.2-9.1,12.12-11.61c0.23-0.19,0.54-0.25,0.82-0.16l14.3,4.96
		C179.68,82.19,179.89,82.43,179.94,82.74z M185.02,54.4c-0.28-0.08-0.56,0.07-0.66,0.34c-0.22,0.58-0.33,0.92-0.36,1.01
		c-0.67,1.8-0.96,2.73-1.44,4.19c-0.11,0.32,0,0.68,0.26,0.9c2.88,2.46,5.57,5.99,7.16,8.24c0.1,0.14,0.23,0.24,0.39,0.3
		c3.11,1.14,7.8,3.17,13.64,6.65c0.4,0.24,0.92,0.1,1.15-0.31c0.89-1.56,1.81-3.32,2.22-4.12c0.14-0.27,0.12-0.58-0.04-0.83
		c-5.03-7.83-12.81-13.71-21.99-16.28C185.23,54.46,185.11,54.43,185.02,54.4z M197.25,104.24c3.38-3.52,7.39-8.47,9.89-11.65
		c0.14-0.18,0.21-0.41,0.17-0.64c-0.69-4.4-1.87-9.66-2.54-12.54c-0.05-0.22-0.19-0.41-0.38-0.52c-5.37-3.32-9.85-5.43-13.08-6.73
		c-0.32-0.13-0.68-0.05-0.92,0.2l-8.16,8.59c-0.18,0.19-0.26,0.46-0.22,0.72L185,99.29c0.05,0.31,0.27,0.56,0.57,0.65
		c4,1.3,8.37,3.33,10.72,4.46C196.61,104.57,197,104.5,197.25,104.24z M153,106.61l-4.76,3.59c-0.23,0.17-0.35,0.44-0.33,0.72
		c0.13,2,0.39,4.91,0.89,8.4c0.03,0.19,0.12,0.37,0.26,0.5c5.39,4.94,12.2,8.36,19.74,9.58c-0.25-0.04-0.51-0.08-0.76-0.13
		c3.8-2.17,6.58-4.91,8.37-7.03c0.22-0.26,0.26-0.63,0.1-0.93l-4.83-9.15c-0.11-0.21-0.3-0.36-0.53-0.42
		c-7.05-1.81-13.25-3.83-17.38-5.27C153.51,106.4,153.22,106.44,153,106.61z M166.93,62.26c4.73-0.97,10.01-1.77,12.75-2.17
		c0.32-0.05,0.58-0.26,0.68-0.57c0.49-1.49,1.05-3.15,1.65-4.81c0.18-0.49-0.14-1.02-0.65-1.11c-2.06-0.34-4.18-0.52-6.35-0.52
		c-6.26,0-12.18,1.5-17.4,4.16c-0.66,0.34-0.59,1.31,0.12,1.54c3.65,1.2,6.59,2.44,8.69,3.42C166.57,62.28,166.75,62.3,166.93,62.26
		z M192.33,119.42c-4.88,1.94-10.89,3.05-13.54,3.47c-1.52,1.93-3.94,4.54-7.31,6.87c1.16,0.11,2.33,0.16,3.52,0.16
		c7.62,0,14.72-2.22,20.7-6.05C194.59,122.31,193.32,120.67,192.33,119.42z M207.95,95.17c-2.76,3.46-6.71,8.24-9.99,11.51
		c-0.12,0.12-0.2,0.28-0.23,0.45c-0.78,4.68-2.46,8.46-3.44,10.39c-0.15,0.29-0.11,0.64,0.09,0.89c0.81,1.03,1.77,2.27,2.67,3.51
		c0.28,0.38,0.81,0.45,1.19,0.17c7.43-5.65,12.74-13.95,14.53-23.49c0.05-0.28-0.04-0.56-0.25-0.76c-1.11-1.08-2.43-2.1-3.41-2.83
		C208.73,94.75,208.23,94.82,207.95,95.17z M138.36,100.95c-0.31,0.07-0.51,0.38-0.42,0.69c0.04,0.15,0.09,0.33,0.18,0.64
		c1.43,4.92,3.82,9.42,6.95,13.31c0.2,0.25,0.4,0.47,0.58,0.66c0.18,0.19,0.51,0.04,0.48-0.23c-0.04-0.37-0.09-0.8-0.12-1.08
		c-0.19-1.88-0.31-3.44-0.38-4.6c-0.01-0.2-0.1-0.39-0.23-0.53c-3.22-3.36-5.14-6.68-6.11-8.63c-0.11-0.23-0.36-0.35-0.61-0.29
		C138.57,100.9,138.46,100.92,138.36,100.95z M141.39,72.88c-0.08,0.14-0.11,0.31-0.1,0.47c0.05,0.72,0.11,1.41,0.17,2.08
		c0.38,4.14,0.87,7.26,1.3,9.43c0.06,0.31,0.3,0.56,0.6,0.65l6.63,1.77c0.3,0.08,0.62-0.01,0.83-0.24
		c4.66-5.04,9.78-9.57,12.59-11.95c0.16-0.13,0.26-0.32,0.29-0.53l1.29-9.89c0.05-0.37-0.15-0.72-0.49-0.87
		c-2.62-1.17-6.29-2.63-10.78-3.9c-0.24-0.07-0.51-0.03-0.71,0.12c-4.49,3.14-8.28,7.23-11.08,11.96
		C141.41,72.82,141.56,72.57,141.39,72.88z M137.85,98.78l0.29-0.06c0.24-0.05,0.42-0.25,0.44-0.5c0.39-4.48,1.51-8.52,2.3-10.9
		c0.05-0.14,0.05-0.29,0.02-0.44c-0.37-1.64-0.84-4.1-1.26-7.46c-0.07-0.59-0.89-0.68-1.08-0.12c-1.29,3.84-1.98,7.94-1.98,12.21
		c0,2.09,0.17,4.14,0.49,6.14c0.05,0.33,0.09,0.53,0.12,0.69C137.24,98.64,137.55,98.84,137.85,98.78z M168.65,66.04
		c0.05-0.14,0.16-0.25,0.3-0.31c1.18-0.51,7.02-3.01,12.22-4.44c-1.88,0.26-8.16,1.16-13.69,2.28c-0.59,0.12-1.03,0.59-1.11,1.19
		l-1.41,10.85L168.65,66.04z"/>
	<path class="st49" d="M197.33,72.39c-0.59-5.36-2.19-10.42-4.61-14.99c5.97,3.11,11.01,7.73,14.63,13.37
		c0.16,0.25,0.17,0.57,0.04,0.83c-0.41,0.8-1.33,2.56-2.22,4.12c-0.23,0.41-0.75,0.55-1.15,0.31
		C201.57,74.58,199.33,73.38,197.33,72.39z M189.79,101.5c2.58,1.05,4.97,2.17,6.5,2.91c0.32,0.16,0.71,0.09,0.96-0.17
		c3.38-3.52,7.39-8.47,9.89-11.65c0.14-0.18,0.2-0.41,0.17-0.64c-0.69-4.4-1.87-9.66-2.54-12.54c-0.05-0.22-0.19-0.41-0.38-0.52
		c-2.49-1.54-4.79-2.82-6.86-3.88c0.03,0.69,0.05,1.38,0.05,2.08C197.59,86.18,194.7,94.61,189.79,101.5z M168.04,129.29
		c0.25,0.05,0.51,0.09,0.76,0.13c-0.25-0.04-0.5-0.09-0.75-0.14C168.05,129.28,168.04,129.29,168.04,129.29z M176.41,122.26
		c0.22-0.26,0.26-0.63,0.1-0.93l-3.21-6.08c-5.42,2.54-11.46,3.96-17.84,3.96c-2.3,0-4.56-0.19-6.76-0.54
		c0.03,0.22,0.06,0.44,0.09,0.67c0.03,0.19,0.12,0.37,0.26,0.5c5.21,4.78,11.75,8.12,18.99,9.45
		C171.84,127.11,174.63,124.37,176.41,122.26z M178.79,122.89c-1.52,1.93-3.94,4.54-7.31,6.87c1.16,0.11,2.33,0.16,3.52,0.16
		c7.62,0,14.72-2.22,20.7-6.05c-1.11-1.56-2.37-3.2-3.37-4.45C187.45,121.36,181.43,122.46,178.79,122.89z M212.51,97.85
		c-1.11-1.08-2.43-2.1-3.41-2.83c-0.36-0.27-0.87-0.2-1.15,0.15c-2.76,3.46-6.71,8.24-9.99,11.51c-0.12,0.12-0.2,0.28-0.23,0.45
		c-0.78,4.68-2.46,8.46-3.44,10.39c-0.15,0.29-0.11,0.64,0.09,0.89c0.81,1.03,1.77,2.27,2.67,3.51c0.28,0.38,0.81,0.45,1.19,0.17
		c7.43-5.65,12.74-13.95,14.53-23.49C212.81,98.33,212.71,98.05,212.51,97.85z"/>
	<path class="st50" d="M229.41,106c-0.08,0.52-0.18,1.03-0.31,1.54v0.01c-1.05,2.78-3.83,5.71-7.83,8.2l-0.01,0.01
		c-1.81,1.15-3.89,2.2-6.17,3.12c-1.86,0.75-3.85,1.43-5.96,1.97h-0.01c-1.62,0.43-3.31,0.78-5.05,1.06
		c0.36-0.35,0.72-0.72,1.06-1.09c2.08-2.23,4.59-3.99,7.35-5.19c1.72-0.75,3.53-1.3,5.4-1.6l0.14-0.02l2.6-0.42l-2.38,0.05
		l-4.62,0.11l-0.57,0.02c-1.15,0.02-1.91-1.2-1.38-2.23c0.63-1.23,1.19-2.48,1.69-3.77c0.61-1.55,2.04-2.66,3.71-2.82l1.49-0.14
		h0.01l4.61-0.43l4.29-0.41h0.02C228.63,103.85,229.58,104.85,229.41,106z M241.83,84.78l-6.88,0.44l-3.98,0.26l-4.26,0.26
		l-8.26,0.53c-1.46,0.09-2.55,1.37-2.42,2.84c0.11,1.21,0.16,2.42,0.16,3.65v0.02c0,0.63,0.53,1.13,1.16,1.11l6.38-0.29l4.33-0.2
		l4.04-0.18l0.42-0.02l-0.43,0.06l-4.2,0.58c-0.02,0.03-0.02,0.06-0.04,0.09c0.01-0.03,0.02-0.06,0.03-0.09l-2.9,0.4
		c-0.57,0.08-1.13,0.2-1.68,0.36c-4.1,1.17-7.32,4.42-8.45,8.62c1.71-0.23,3.34-0.5,4.9-0.81c1.72-0.33,3.36-0.72,4.91-1.14
		c1.69-0.46,3.28-0.97,4.75-1.53c7.73-2.91,12.52-7.06,14.36-11.95v-0.01c0.05-0.26,0.09-0.53,0.13-0.79
		C244.05,85.77,243.06,84.7,241.83,84.78z M255.16,65.77l-15.54,1.14l-3.81,0.28l-4.07,0.3l-19.25,1.41
		c-1.63,0.12-2.59,1.91-1.77,3.33c0.38,0.67,0.75,1.35,1.1,2.04c0.63,1.27,1.96,2.02,3.37,1.93l14.73-0.94l4.14-0.27h0.01l3.87-0.25
		l4.62-0.29L237.87,75l-3.92,0.47h-0.01l-4.21,0.51l-8.94,1.06c-3.66,0.44-6.14,3.9-5.42,7.52c4.47-0.55,8.59-1.17,12.36-1.86
		c1.53-0.28,3-0.58,4.41-0.89c1.45-0.31,2.83-0.64,4.16-0.98v-0.01c11.72-3.04,18.8-7.27,21.36-13.21c0,0,0,0,0-0.01
		C257.41,66.51,256.37,65.68,255.16,65.77z M144.86,120.82c-1.98-2.12-4.33-3.81-6.93-5.01c-1.76-0.82-3.62-1.4-5.55-1.74
		c-0.09-0.02-0.19-0.04-0.28-0.05l-2.73-0.44l2.78,0.06l4.57,0.11l0.23,0.01c1.15,0.02,1.91-1.2,1.38-2.23
		c-0.63-1.23-1.19-2.48-1.69-3.77c-0.61-1.55-2.04-2.66-3.71-2.82l-0.99-0.09h-0.01l-4.59-0.44l-4.27-0.4l-0.56-0.05
		c-1.15-0.11-2.11,0.89-1.93,2.04c0.08,0.48,0.17,0.95,0.28,1.41v0.01c1.11,2.94,4.09,6.03,8.41,8.66c1.79,1.09,3.8,2.1,6.01,2.97
		h0.01c1.82,0.73,3.77,1.37,5.82,1.89c1.55,0.4,3.16,0.74,4.82,1C145.58,121.57,145.22,121.2,144.86,120.82z M127.33,94.79
		c-0.73-0.25-1.5-0.44-2.29-0.55l-2.31-0.32h-0.01l-4.18-0.58l-1.03-0.14l1,0.05l4.02,0.18l4.32,0.19l5.82,0.26
		c0.63,0.02,1.16-0.48,1.16-1.11v-0.02c0-1.22,0.05-2.44,0.16-3.65c0.13-1.46-0.96-2.75-2.42-2.84l-7.71-0.49l-4.27-0.27l-3.95-0.25
		l-7.46-0.48c-1.23-0.08-2.22,0.99-2.05,2.21c0.04,0.26,0.08,0.53,0.13,0.79v0.01c1.9,5.05,6.9,9.32,15.04,12.24
		c1.46,0.52,3.02,1,4.68,1.43c1.53,0.4,3.15,0.76,4.85,1.07c1.4,0.26,2.85,0.5,4.35,0.7C134.1,99.25,131.14,96.1,127.33,94.79z
		 M137.51,68.9l-18.88-1.39l-4.08-0.29l-3.83-0.29l-15.88-1.16c-1.31-0.1-2.39,0.86-2.55,2.06c2.7,5.94,9.98,10.14,21.98,13.17
		c1.32,0.33,2.7,0.65,4.14,0.96c1.42,0.3,2.89,0.59,4.42,0.87h0.01c3.62,0.65,7.54,1.22,11.78,1.74c0.72-3.62-1.75-7.09-5.42-7.53
		l-8.45-1l-4.23-0.51l-3.92-0.47l-5.17-0.62l5.09,0.32l3.86,0.25l4.16,0.27l14.25,0.91c1.41,0.09,2.74-0.66,3.37-1.93
		c0.35-0.69,0.72-1.37,1.1-2.04C140.1,70.81,139.14,69.02,137.51,68.9z M191.33,25.03c-1.4,0-2.55,1.26-2.55,2.82
		c0,0.63,0.19,1.21,0.51,1.68l-9.22,7.58l-3.88-8.2c0.81-0.47,1.37-1.41,1.37-2.5c0-1.55-1.14-2.82-2.55-2.82s-2.55,1.27-2.55,2.82
		c0,1.09,0.56,2.03,1.37,2.5l-3.88,8.2l-9.22-7.58c0.32-0.47,0.51-1.05,0.51-1.68c0-1.56-1.15-2.82-2.55-2.82
		c-1.41,0-2.55,1.26-2.55,2.82c0,1.55,1.14,2.82,2.55,2.82c0.21,0,0.42-0.03,0.62-0.08l2.6,11.34c8.51-0.45,17.11-0.42,25.96,0.13
		l2.87-11.47c0.2,0.05,0.41,0.08,0.62,0.08c1.41,0,2.55-1.26,2.55-2.82C193.88,26.29,192.74,25.03,191.33,25.03z"/>
</g>
<g id="Layer_5">
</g>
<g id="Layer_6">
</g>
<g id="Layer_7">
</g>
</svg>
