<?xml version="1.0" encoding="utf-8"?>
<!-- Generator: Adobe Illustrator 27.8.1, SVG Export Plug-In . SVG Version: 6.00 Build 0)  -->
<svg version="1.1" xmlns="http://www.w3.org/2000/svg" xmlns:xlink="http://www.w3.org/1999/xlink" x="0px" y="0px"
	 viewBox="0 0 350 230" style="enable-background:new 0 0 350 230;" xml:space="preserve">
<style type="text/css">
	.st0{fill:#FF9D00;}
	.st1{fill:url(#SVGID_1_);}
	.st2{opacity:0.22;fill:url(#SVGID_00000062896284000274679860000002420207612184020619_);}
	.st3{fill:#FFC200;}
	.st4{fill:#778718;}
	.st5{fill:#E0B017;}
	.st6{fill:#664407;}
	.st7{fill:#9E690A;}
	.st8{fill:#7F1105;}
	.st9{fill:#191933;}
	.st10{fill:#FCEBD4;}
	.st11{fill:#E3DFD6;}
	.st12{fill:#FFB000;}
	.st13{fill:#AA210E;}
	.st14{fill:#FFF0A6;}
	.st15{fill:#FFDA00;}
	.st16{fill:#F4F4F4;}
	.st17{fill:#DC5C28;}
	.st18{fill:#FF8440;}
	.st19{fill:#C45224;}
	.st20{fill:#2C4369;}
	.st21{fill:#2A72DB;}
	.st22{fill:#C65500;}
	.st23{fill:#C15746;}
	.st24{fill:#FF8C00;}
	.st25{fill:#FFEA2C;}
	.st26{fill:#F7FF57;}
	.st27{fill:#FFFFFF;}
	.st28{fill:#D64949;}
	.st29{fill:#353535;}
	.st30{fill:#FFC783;}
	.st31{fill:#3F7F91;}
	.st32{fill:#25BDE5;}
	.st33{fill:#8CDD00;}
	.st34{fill:#D1FF88;}
	.st35{fill:#333333;}
	.st36{fill:#FF9000;}
	.st37{fill:#A1A813;}
	.st38{fill:#B3C40E;}
	.st39{fill:#CACE72;}
	.st40{fill:url(#SVGID_00000063612543842228408300000005871775845912577670_);}
	.st41{fill:#93E800;}
	.st42{fill:#3CB7D3;}
	.st43{fill:#FF7631;}
	.st44{fill:#E6873C;}
	.st45{fill:#30657F;}
	.st46{fill:#FF7A40;}
	.st47{fill:#FFAD4A;}
	.st48{fill:#BC8E3B;}
	.st49{fill:#E2E2E2;}
	.st50{fill:#F2B844;}
	.st51{fill:#AF3838;}
	.st52{fill:#17B5C1;}
	.st53{fill:#A88643;}
	.st54{fill-rule:evenodd;clip-rule:evenodd;fill:#DD7928;}
	.st55{fill:#E6E7E8;stroke:#CFCFCF;stroke-width:0.1061;}
	.st56{fill-rule:evenodd;clip-rule:evenodd;fill:#204F7A;}
	.st57{fill-rule:evenodd;clip-rule:evenodd;fill:#50A4FF;}
	.st58{fill:#002649;}
</style>
<g id="Layer_1">
</g>
<g id="Layer_12">
</g>
<g id="Layer_13">
</g>
<g id="Layer_14">
</g>
<g id="Layer_15">
</g>
<g id="Layer_11">
</g>
<g id="Layer_8">
</g>
<g id="Layer_10">
</g>
<g id="Layer_9">
</g>
<g id="Layer_2">
</g>
<g id="Layer_3">
</g>
<g id="Layer_4">
</g>
<g id="Layer_5">
	<path class="st51" d="M167.74,66.07c-16.6,5.94-31.59,14.21-43.5,23.26c0.53-2.43,1.37-4.81,2.52-7.1l19.31-38.64
		c5.24-10.49,17.99-14.74,28.48-9.5l31.75,15.88c3.17,1.59,5.77,3.85,7.69,6.53C200.42,56.95,184.44,60.1,167.74,66.07z
		 M165.14,82.27c-15.96,5.54-30.05,12.85-40.84,20.66c0.2,0.87,0.43,1.72,0.71,2.56c1.05,3.28,2.68,6.41,4.85,9.24l2.31,3.02
		c4.92-2.76,13.73-2.72,17.4-1.71c13.97,3.82,15.54,18.03,15.54,18.03l3.51,0.04c11.78,0.12,22.6-6.49,27.87-17.02l1.58-3.17
		c-1.84-3.05-2.92-6.6-2.99-10.41c-0.2-10.98,8.07-20.14,18.8-21.22l0.63-1.27l1.29-2.57c0.81-1.63,1.4-3.31,1.76-5.01
		C204.16,72.42,185.68,75.15,165.14,82.27z"/>
	<path class="st52" d="M236.99,104.45c0.21,11.57-9,21.11-20.56,21.32c-11.57,0.21-21.11-8.99-21.32-20.56
		c-0.21-11.56,8.99-21.11,20.56-21.32C227.23,83.68,236.78,92.88,236.99,104.45z"/>
	<path class="st53" d="M253.77,79.59c0.06,6.15-2.63,13.82-7.73,20.72v0.01c-0.03,0.04-0.06,0.07-0.08,0.11l0.1-1.58
		c-0.02-0.84-0.1-1.95-0.31-3.23c-0.68-4.34-2.84-10.74-9.25-15.83c-0.63-0.5-1.3-0.99-2.02-1.46c-0.71-0.5-1.49-0.97-2.33-1.39
		c-0.01-0.01-0.03-0.02-0.04-0.02c-3.68-1.86-8.61-3.04-14.55-3.48c-13.4-1.02-31.88,1.71-52.42,8.83
		c-15.96,5.54-30.05,12.85-40.84,20.66c-15.3,11.08-23.95,23.15-21.89,32.56c1.5,6.88,11.87,12.18,23.07,13.96
		c0.53,0.08,1.05,0.16,1.59,0.22c0.19,0.02,0.38,0.05,0.58,0.07c0.2,0.03,0.4,0.05,0.61,0.08c-1.15-0.06-2.28-0.13-3.38-0.23
		c-0.5-0.05-0.98-0.09-1.47-0.15c-0.46-0.05-0.91-0.1-1.37-0.16c-14.01-1.79-23.54-7.33-25.52-16.36c-0.3-1.4-0.42-2.85-0.35-4.36
		c0.89-19.2,31.46-46.27,71.48-60.15c43.15-14.98,81.54-11.55,85.75,7.68C253.64,77.18,253.76,78.36,253.77,79.59z M149.57,116.04
		c-3.67-1.01-12.48-1.05-17.4,1.71l1.96,2.56c0.41,0.53,0.78,1.08,1.11,1.64c0.11,0.19,0.21,0.39,0.32,0.58
		c0.31,0.58,0.58,1.18,0.81,1.78c0.96,2.52,1.27,5.23,0.89,7.89c-0.04,0.34-0.1,0.67-0.18,1.01c0,0.05-0.01,0.09-0.02,0.12
		c-0.06,0.32-0.14,0.64-0.23,0.95c-0.01,0.03-0.02,0.07-0.03,0.1v0.01l-9.63,19.24c-0.41,0.81-1.02,1.5-1.79,1.98l-0.32,0.21
		c-0.76,0.48-1.37,1.17-1.78,1.98c-1.24,2.47-0.23,5.47,2.24,6.71l5.92,2.96c2.47,1.24,5.48,0.23,6.71-2.24
		c0.41-0.81,0.59-1.71,0.52-2.61l-0.03-0.38c-0.07-0.9,0.11-1.81,0.51-2.62l9.69-19.38l0.03-0.07c0.04-0.05,0.08-0.1,0.12-0.14
		c0.22-0.29,0.47-0.57,0.72-0.84c0.25-0.27,0.5-0.54,0.77-0.78c0.26-0.26,0.54-0.5,0.82-0.72c0.24-0.21,0.49-0.4,0.75-0.59
		c0.1-0.07,0.2-0.14,0.3-0.2c0.23-0.18,0.47-0.33,0.72-0.48c0.29-0.18,0.58-0.35,0.88-0.5c0.04-0.03,0.08-0.05,0.12-0.07
		c0.23-0.12,0.47-0.24,0.71-0.34c0.13-0.07,0.25-0.13,0.38-0.18c0.3-0.13,0.6-0.25,0.91-0.36c0.32-0.11,0.65-0.22,0.98-0.31
		c0.32-0.1,0.64-0.18,0.96-0.24c0.1-0.03,0.2-0.05,0.3-0.06c0.24-0.06,0.48-0.1,0.72-0.13c0.11-0.02,0.22-0.04,0.34-0.05
		c0.2-0.03,0.41-0.05,0.62-0.06c0.15-0.03,0.3-0.04,0.46-0.04c0.38-0.03,0.77-0.04,1.15-0.04l3.51,0.03
		C165.11,134.07,163.54,119.86,149.57,116.04z"/>
</g>
<g id="Layer_6">
</g>
<g id="Layer_7">
</g>
</svg>
