<?xml version="1.0" encoding="utf-8"?>
<!-- Generator: Adobe Illustrator 27.8.1, SVG Export Plug-In . SVG Version: 6.00 Build 0)  -->
<svg version="1.1" xmlns="http://www.w3.org/2000/svg" xmlns:xlink="http://www.w3.org/1999/xlink" x="0px" y="0px"
	 viewBox="0 0 350 230" style="enable-background:new 0 0 350 230;" xml:space="preserve">
<style type="text/css">
	.st0{fill:#FF9D00;}
	.st1{fill:url(#SVGID_1_);}
	.st2{opacity:0.22;fill:url(#SVGID_00000005951293753770073250000015502225025328843140_);}
	.st3{fill:#FFC200;}
	.st4{fill:#778718;}
	.st5{fill:#E0B017;}
	.st6{fill:#664407;}
	.st7{fill:#9E690A;}
	.st8{fill:#7F1105;}
	.st9{fill:#191933;}
	.st10{fill:#FCEBD4;}
	.st11{fill:#E3DFD6;}
	.st12{fill:#FFB000;}
	.st13{fill:#AA210E;}
	.st14{fill:#FFF0A6;}
	.st15{fill:#FFDA00;}
	.st16{fill:#F4F4F4;}
	.st17{fill:#DC5C28;}
	.st18{fill:#FF8440;}
	.st19{fill:#C45224;}
	.st20{fill:#2C4369;}
	.st21{fill:#2A72DB;}
	.st22{fill:#C65500;}
	.st23{fill:#C15746;}
	.st24{fill:#FF8C00;}
	.st25{fill:#FFEA2C;}
	.st26{fill:#F7FF57;}
	.st27{fill:#FFFFFF;}
	.st28{fill:#D64949;}
	.st29{fill:#353535;}
	.st30{fill:#FFC783;}
	.st31{fill:#3F7F91;}
	.st32{fill:#25BDE5;}
	.st33{fill:#8CDD00;}
	.st34{fill:#D1FF88;}
	.st35{fill:#333333;}
	.st36{fill:#FF9000;}
	.st37{fill:#A1A813;}
	.st38{fill:#B3C40E;}
	.st39{fill:#CACE72;}
	.st40{fill:url(#SVGID_00000145039175271956327650000007769236764607953072_);}
	.st41{fill:#93E800;}
	.st42{fill:#3CB7D3;}
	.st43{fill:#FF7631;}
	.st44{fill:#E6873C;}
	.st45{fill:#30657F;}
	.st46{fill:#FF7A40;}
	.st47{fill:#FFAD4A;}
	.st48{fill:#BC8E3B;}
	.st49{fill:#E2E2E2;}
	.st50{fill:#F2B844;}
	.st51{fill:#AF3838;}
	.st52{fill:#17B5C1;}
	.st53{fill:#A88643;}
	.st54{fill-rule:evenodd;clip-rule:evenodd;fill:#DD7928;}
	.st55{fill:#E6E7E8;stroke:#CFCFCF;stroke-width:0.1061;}
	.st56{fill-rule:evenodd;clip-rule:evenodd;fill:#204F7A;}
	.st57{fill-rule:evenodd;clip-rule:evenodd;fill:#50A4FF;}
	.st58{fill:#002649;}
</style>
<g id="Layer_1">
</g>
<g id="Layer_12">
</g>
<g id="Layer_13">
</g>
<g id="Layer_14">
</g>
<g id="Layer_15">
</g>
<g id="Layer_11">
</g>
<g id="Layer_8">
</g>
<g id="Layer_10">
</g>
<g id="Layer_9">
</g>
<g id="Layer_2">
</g>
<g id="Layer_3">
</g>
<g id="Layer_4">
</g>
<g id="Layer_5">
	<path class="st35" d="M68.18,104.49c0.04,0.08-0.03,0.09-0.03,0.09S68.17,104.55,68.18,104.49z"/>
	<path class="st35" d="M70.47,96.22l-0.1,0.08l-0.06,0.04c0.02-0.05,0.08-0.09,0.11-0.09C70.44,96.23,70.46,96.22,70.47,96.22z"/>
	<path class="st35" d="M68.18,104.49c0.04,0.08-0.03,0.09-0.03,0.09S68.17,104.55,68.18,104.49z"/>
	<path class="st35" d="M76.71,89.87c0,0.01-0.01,0.02-0.01,0.03c-0.05,0.04-0.09,0.07-0.12,0.09
		C76.62,89.95,76.66,89.91,76.71,89.87z"/>
</g>
<g id="Layer_6">
	<path class="st54" d="M226.71,101.96c0.87,12.62,24.86-3.33,24.06-2.36c-25.64,30.96-40.11,6.07-63.44,24.38
		c-15.02,11.78-1.45,17.92,8.67,10.52c6.49-4.74,13.57-15.43,28.53-10.44c-15.77-0.07-19.21,18.52-29.55,23.35
		c-11.78,5.5-31.43-7.15-39.74,1.3c-4,4.07-3.56,10.09,7.23,10.93c10.79,0.84,25.24-4.07,25.24-4.07s-7.76,7.56-18.95,10.58
		c-9.03,2.44-17.19-0.12-25.75-2.24c-5.62,5.56-12.45,9.88-20.06,12.54l-2.76,0.88c-4.75,1.38-9.76,2.13-14.94,2.13
		c-29.61,0-53.76-24.15-53.76-53.76c0-29.61,24.15-53.76,53.76-53.76c3.77,0,7.46,0.4,11.01,1.14c2.28-3.99,5.42-7.74,10.43-9.83
		c21.45-8.96,27.52,4.18,50.22-10.95c0,0-1.86,3.29-8.87,8.84c-18.4,14.57-30.24,2.56-31.22,18.58c-0.31,5.04,17.15,0.07,21.89-5.33
		c9.33-10.62,11.63-9.94,26.23-9.54c10.25,0.28,30.21-6.18,36.63-14.31C210,76.67,176.23,66.13,183.37,78.55
		c6.73,11.7,17.55,5.33,26.48-5.63c9.21-11.32,25.76-12.52,36.59-6.4c-24.08,1.39-27,11.51-19.11,15.68
		c4.73,2.5,8.41-5.6,24.97-2.64c14,2.51,25.02-5.24,46.22-17.25c-26.93,26.16-30.08,30.43-49.74,28.44
		C236.41,89.48,226.27,95.5,226.71,101.96z"/>
	<path class="st55" d="M97.29,102.36c-0.02,0.01-0.06,0.03-0.1,0.05C97.32,102.29,97.5,102.24,97.29,102.36z"/>
	<path class="st55" d="M76.8,89.75c-0.03,0.02-0.06,0.06-0.09,0.11c0.23-0.2,0.61-0.5,1.1-0.89C77.47,89.22,77.13,89.49,76.8,89.75z
		 M113.67,115.52c-1.25-0.95-5.41-4.24-8.12-6.29c-2.63-1.98-6.88-4.79-8.19-5.84c-0.81,0.15-3.15,0.58-4.2,0.99
		c-1.27,0.5-7.6,3.01-10.15,4.35c-2.55,1.34-4.15,2.3-4.56,2.71c-0.29,0.3-0.96,0.75-1.3,0.96c-0.59,2.41-2.33,9.99-2.39,14.09
		c-0.06,3.46,0.1,5.32,0.12,6.16v0.01c0.17,0.34,0.53,0.97,1.14,1.77c0.93,1.23,4.85,4.55,7.21,6.31c2.36,1.77,5.58,4.08,6.95,4.86
		c0.86,0.49,1.67,0.79,2.14,0.93c1.97-0.9,8.03-3.2,11.13-4.56c2.74-1.2,5.45-2.59,6.77-3.23h0.01c0.32-0.42,0.93-1.43,1.3-3.42
		c0.52-2.81,1.3-9.72,1.47-11.86c0.17-2.14,0.68-4.78,0.47-5.96C113.31,116.59,113.45,115.86,113.67,115.52z M121.83,168.68
		l-0.12,0.02c0,0-1.08-0.19-2.09-0.89c-1.02-0.7-2.28-1.71-3.02-2.05c-0.74-0.34-1.94-0.37-2.13-0.67c0,0,0.82-0.17,1.41-0.65
		c-1.1,0.16-4.91,0.82-8.57,0.44c-3.49-0.37-9.18-1.3-10.92-1.83c0.45,0.15,0.91,0.29,0.67,0.28c-0.83-0.04-1.77-0.1-2.18,0.01
		c-0.19,0.05-3.02,1.03-5.79,1.59c-2.79,0.56-6.31,0.83-6.31,0.83s3.81-0.57,5.93-0.94c2.11-0.38,5.31-1.53,5.93-1.7
		c0.5-0.13,0.71-0.84,0.85-1.21c-0.83-2.16-2.53-7.52-2.93-9.98c-0.34-2.08-0.73-3.52-0.86-4.34c-1.4-0.97-7.95-5.52-10.8-8.13
		c-2.86-2.62-6.17-5.38-6.86-5.95c-1.28,0.49-3.91,1.49-5.45,2.13c-1.3,0.53-2.5,1.26-3.22,1.67c-0.02,0.55-0.17,5.59,0.86,8.89
		c0.98,3.1,2.66,6.57,3.01,7.28c-0.44-0.8-2.76-5.19-3.31-7.09c-0.61-2.11-1.42-6.25-1.6-7.07c-0.17-0.83-0.11-2.22-0.11-2.22
		l0.32,0.34c-0.48-0.55-2.27-2.62-3.38-8.38c-1.25-6.55-1.12-7.9-1.02-8.06c0.01-0.01,0.03-0.08,0.06-0.19
		c-0.09,0.24-0.38,0.48-0.41,0.73c-1.02,11.14,2.08,22.47,8.87,31.67c0.14,0.19,0.49,0.21,0.64,0.38c0.01,0.01,0.01,0.02,0.01,0.02
		c0.14,0.19,0.07,0.54,0.22,0.73c2.77,3.52,6.11,6.7,9.97,9.41c12.25,8.58,27.16,10.45,40.34,6.39c-0.29,0.07-0.47,0.09-0.53,0.09
		c0.22-0.09,1.97-0.89,2.23-1.2C121.66,168.89,121.75,168.77,121.83,168.68z M146.65,146.24c-0.01,0.14-0.06,0.33-0.14,0.48
		c-0.21,0.38-0.23,1.9-0.86,2.97c-0.66,1.1-0.56,0.71-0.56,0.71s0.65-1.58,0.79-2.28c0.12-0.55,0.27-1.5,0.45-1.95
		c-0.25-0.32-0.6-1.28-1.33-2.08c-0.54-0.59-1.47-1.33-2.1-1.95c-0.39-0.09-0.99-0.2-1.24-0.05c-0.4,0.24-5.64,3.68-7.1,4.45
		c-1.46,0.77-6.94,3.3-7.5,3.77c-0.39,0.32-1.12,0.66-1.55,0.83c-0.46,1.05-1.44,3.02-3.68,6.2c-2.42,3.47-3.95,5.5-4.85,6.43
		c0.14,0.01,0.22,0.06,0.22,0.06s-0.88,0.77-0.44,1.38c0.45,0.6,2.26,1.98,3.29,2.58c0.82,0.47,1.61,0.72,1.9,0.79
		c0.07-0.05,0.14-0.07,0.24-0.05c0.25,0.06,0.42,0.24,0.93,0.08c0.51-0.16,3.75-1.46,5.45-2.48c1.59-0.94,3.12-1.7,3.3-1.79
		c-0.02,0.02-0.05,0.04-0.1,0.08c4.58-3.01,8.65-6.93,11.99-11.7c1.69-2.41,3.11-4.93,4.26-7.52
		C147.51,145.72,146.99,146.13,146.65,146.24z M144.96,121.82c-0.06-0.25-0.11-0.47-0.09-0.64c-0.63-0.76-4.02-4.78-6.82-7.26
		c-3.11-2.75-5.64-4.59-6.31-4.7c-0.48-0.09-1.2-0.26-1.43-0.45c-2.1,1-14.97,6.89-16.2,7.01c-0.14,0.35-0.36,0.96-0.31,1.23
		c0.08,0.4-1.14,13.94-1.47,15.91c-0.33,1.97-0.96,4.36-0.67,4.84c0.19,0.32,0.18,0.84,0.15,1.14c1.47,1.12,4.71,3.85,7.25,5.87
		c2.49,1.97,5.18,3.9,6.28,4.83c0.44,0.1,1.2,0.24,1.8,0.09c0.91-0.23,4.78-1.86,8.83-4.28c4.06-2.42,5.03-3.13,5.3-3.52
		c0.18-0.26,0.69-0.69,1.02-0.95c0.29-1.35,2.02-7.35,2.27-9.53C144.82,129.06,145.08,122.32,144.96,121.82z M99.91,84.64
		c-1.64-0.88-4.81-1.98-5.5-2.21c-0.12,0.05-0.2,0.04-0.33,0.05c0,0-1.23,0.24-4.62,0.99c-1.51,0.33-4.52,1.38-7.14,2.76
		c-2.39,1.26-4.84,3.07-5.62,3.67c-0.14,0.28-0.28,0.82-0.41,0.92c-0.18,0.15-0.58,0.13-0.76,0.28c-1.81,1.56-3.52,3.27-5.11,5.14
		l-0.06,0.06c-0.02,0.03-0.05,0.06-0.07,0.09c0,0-0.01,0.01-0.01,0.02c0,0.02,0,0.05,0.01,0.08c0.07,0.22-0.88,3.49-1.17,4.56
		c-0.22,0.84-0.69,2.54-0.89,3.23c0.06,0.42,0.33,1.18,2.29,2.55c2.03,1.42,4.81,3.4,6.1,4.32c0.01,0,0.02,0,0.02,0.01
		c0.38,0.12,1.07,0.22,1.94-0.31c1.32-0.81,3.99-2.64,7.57-4.13c3.32-1.38,9.73-3.76,10.95-4.26c0.4-1.26,1.62-4.44,3.59-8
		c2.04-3.68,3.11-5.63,3.71-6.27C103.58,87.42,101.39,85.45,99.91,84.64z M97.21,102.81c-0.2-0.16-0.12-0.31-0.02-0.41
		c-0.03,0.01-0.06,0.02-0.09,0.04c-0.1,0.29-0.14,0.48-0.14,0.55c0,0.06,0.14,0.2,0.4,0.4c0.17-0.02,0.28-0.04,0.28-0.04
		C97.63,103.33,97.62,103.16,97.21,102.81z M67.81,99.62c-4.36,6.23-6.93,13.18-7.84,20.25c-0.04,0.27,0.27,0.52,0.27,0.8
		c0.37-1.43,1.69-7.13,3.73-10.34c1.68-2.64,3.11-4.96,3.8-5.93v-0.01c0.09-0.28,0.87-2.57,1.04-3.05c0.18-0.51,1.16-4.05,1.16-4.05
		l0.05-0.56C69.25,97.65,68.52,98.62,67.81,99.62z M68.16,104.59c0,0,0.07-0.02,0.03-0.09C68.17,104.55,68.16,104.59,68.16,104.59z
		 M132.07,88.6c-10.2-7.14-22.18-9.8-33.47-8.23c0,0,0,0-0.01,0s-0.03,0.01-0.06,0.01c-0.03,0.01-0.06,0.01-0.1,0.02
		c-0.56,0.14-2.39,0.62-3.13,1.32c-0.18,0.17-0.33,0.31-0.45,0.42c0.85,0.23,3.88,1.33,5.13,2.16c1.29,0.85,4.2,3.02,4.81,3.64h0.01
		c1.1-0.13,9.41,0.42,12.4,0.84c2.95,0.42,6.95,1.73,7.67,2.09c0.4-0.56,1.08-1.58,1.41-2.29c0.47-1.03,0.7-3.06,0.7-3.06
		s0.16,0.21,0.28,0.2s-0.18,2.18-0.68,2.97c-0.44,0.68-1.23,2.05-1.52,2.34c0.7,0.92,3.8,6.82,4.92,11.89
		c0.66,2.99,0.95,4.34,0.98,5c0.04-0.02,0.07-0.02,0.1-0.02c0.28,0.02,4.66,3.09,6.97,5.34c2.3,2.24,4.54,4.74,5.35,5.82
		c0.26,0.34,1.48,1.22,1.98,1.72c0.65-0.28,2.35-1.25,3.14-1.95c0.73-0.64,1.9-1.77,2.36-2.07
		C148.47,105.77,142.05,95.58,132.07,88.6z"/>
	<path class="st35" d="M153.99,116.42c-2.53-11.84-9.38-22.84-20.14-30.36c-11.15-7.8-24.6-10.55-37.25-8.3
		c-20.51,3.65-37.17,20.95-39.83,41.65c-0.04,0.3,0.26,0.57,0.18,0.86c-0.1,0.28-0.35,0.62-0.38,0.93
		c-0.62,6.77,0.22,13.65,2.38,20.1c3.32,9.88,10.24,19.04,18.76,25c13.04,9.13,28.91,11.13,42.95,6.85c0.58-0.12,1.73-0.42,3.6-1.22
		c1.21-0.51,3.32-1.33,5-2.25c1.05-0.57,1.99-1.15,2.73-1.63c5.5-3.38,10.4-7.91,14.33-13.52c2.44-3.49,4.35-7.2,5.77-11.02
		c0.84-2.07,1.87-5.55,2.7-10.54C155.92,126.2,154.45,118.23,153.99,116.42z M70.3,96.39c-0.01-0.03,0-0.04,0.01-0.06
		c0.02-0.04,0.08-0.08,0.12-0.09c1.58-1.87,3.29-3.58,5.11-5.14c0.18-0.15,0.57-0.13,0.75-0.28c0.14-0.11,0.27-0.65,0.41-0.92
		c-0.04,0.03-0.08,0.06-0.12,0.09c0.04-0.04,0.08-0.08,0.13-0.12c0.03-0.06,0.06-0.1,0.09-0.12c0.33-0.26,0.67-0.53,1.01-0.78
		c-0.49,0.39-0.87,0.7-1.1,0.9c0,0.01-0.01,0.02-0.01,0.03c0.78-0.6,3.23-2.41,5.63-3.67c2.62-1.39,5.63-2.43,7.14-2.76
		c3.38-0.75,4.61-0.99,4.61-0.99c0.14-0.01,0.21,0,0.33-0.05c0.7,0.24,3.86,1.33,5.5,2.21c1.48,0.81,3.67,2.78,4.5,3.54
		c-0.61,0.63-1.68,2.58-3.72,6.26c-1.96,3.56-3.19,6.74-3.59,8c-1.21,0.5-7.62,2.89-10.95,4.27c-3.58,1.49-6.25,3.32-7.57,4.13
		c-0.86,0.53-1.55,0.43-1.93,0.31c0-0.01-0.01-0.01-0.02-0.01c-1.28-0.92-4.07-2.91-6.1-4.32c-1.96-1.37-2.23-2.13-2.29-2.55
		c0.2-0.69,0.68-2.39,0.89-3.22c0.29-1.08,1.24-4.34,1.17-4.56c-0.01-0.03-0.01-0.06-0.01-0.08C70.29,96.4,70.3,96.39,70.3,96.39z
		 M113.8,117.03c-0.05-0.28,0.17-0.88,0.31-1.24c1.24-0.12,14.1-6.01,16.2-7c0.24,0.19,0.95,0.36,1.44,0.44
		c0.66,0.12,3.2,1.95,6.3,4.7c2.81,2.48,6.2,6.5,6.82,7.26c-0.03,0.17,0.03,0.39,0.09,0.63c0.12,0.5-0.14,7.24-0.41,9.61
		c-0.25,2.17-1.98,8.17-2.27,9.52c-0.32,0.26-0.84,0.69-1.02,0.95c-0.26,0.39-1.23,1.1-5.3,3.52c-4.05,2.43-7.92,4.06-8.83,4.29
		c-0.61,0.15-1.37,0.02-1.8-0.09c-1.1-0.93-3.79-2.87-6.28-4.83c-2.54-2.02-5.77-4.75-7.25-5.87c0.03-0.3,0.04-0.82-0.15-1.14
		c-0.28-0.48,0.34-2.88,0.68-4.84C112.66,130.97,113.87,117.43,113.8,117.03z M113.48,117.49c0.2,1.19-0.31,3.83-0.48,5.97
		c-0.17,2.14-0.95,9.05-1.47,11.86c-0.37,1.98-0.98,3-1.3,3.42h-0.01c-1.32,0.64-4.03,2.03-6.77,3.23
		c-3.1,1.36-9.17,3.65-11.13,4.56c-0.47-0.15-1.28-0.44-2.14-0.93c-1.37-0.78-4.6-3.1-6.95-4.87c-2.36-1.75-6.28-5.08-7.21-6.3
		c-0.61-0.8-0.97-1.43-1.14-1.77v-0.01c-0.02-0.84-0.18-2.71-0.12-6.16c0.06-4.11,1.8-11.68,2.39-14.1c0.34-0.2,1.01-0.65,1.3-0.96
		c0.41-0.4,2-1.36,4.56-2.7c2.55-1.34,8.88-3.85,10.15-4.35c1.05-0.41,3.39-0.84,4.2-0.99c1.31,1.06,5.55,3.86,8.19,5.84
		c2.7,2.05,6.86,5.34,8.12,6.29C113.45,115.86,113.31,116.59,113.48,117.49z M67.81,99.62c0.71-1,1.44-1.97,2.21-2.89l-0.05,0.56
		c0,0-0.98,3.54-1.16,4.05c-0.17,0.47-0.95,2.76-1.04,3.05v0.01c-0.7,0.97-2.12,3.28-3.8,5.92c-2.04,3.21-3.36,8.91-3.73,10.35
		c0-0.28-0.31-0.54-0.27-0.8C60.88,112.8,63.45,105.85,67.81,99.62z M68.16,104.59c0,0,0.01-0.04,0.02-0.1
		C68.22,104.57,68.16,104.59,68.16,104.59z M121.54,169.03c-0.27,0.31-2.02,1.11-2.23,1.2c0.06,0,0.23-0.02,0.53-0.08
		c-13.18,4.05-28.09,2.18-40.34-6.4c-3.87-2.7-7.2-5.88-9.98-9.41c-0.15-0.19-0.07-0.54-0.22-0.73c0,0,0-0.01,0-0.02
		c-0.15-0.17-0.5-0.19-0.64-0.38c-6.79-9.2-9.89-20.53-8.87-31.67c0.03-0.25,0.31-0.49,0.41-0.73c-0.03,0.11-0.05,0.18-0.06,0.19
		c-0.1,0.16-0.24,1.51,1.02,8.06c1.11,5.76,2.89,7.83,3.38,8.38l-0.33-0.34c0,0-0.05,1.39,0.12,2.22c0.18,0.81,0.99,4.96,1.59,7.06
		c0.55,1.9,2.88,6.3,3.32,7.1c-0.35-0.71-2.03-4.19-3.01-7.29c-1.04-3.29-0.89-8.33-0.87-8.89c0.73-0.4,1.92-1.13,3.22-1.67
		c1.54-0.63,4.17-1.63,5.45-2.12c0.69,0.57,4,3.32,6.86,5.94c2.85,2.61,9.4,7.16,10.8,8.13c0.13,0.82,0.52,2.26,0.86,4.34
		c0.4,2.46,2.1,7.83,2.93,9.98c-0.13,0.37-0.34,1.08-0.85,1.21c-0.61,0.17-3.81,1.32-5.92,1.7c-1.92,0.34-5.23,0.83-5.83,0.93
		c0.59-0.05,3.7-0.32,6.21-0.82c2.77-0.56,5.6-1.54,5.79-1.58c0.42-0.11,1.36-0.05,2.18-0.01c0.21,0.01-0.12-0.11-0.5-0.24
		c1.92,0.54,7.38,1.42,10.75,1.78c3.66,0.38,7.47-0.27,8.57-0.43c-0.59,0.47-1.41,0.64-1.41,0.64c0.19,0.31,1.39,0.34,2.13,0.68
		c0.74,0.34,2,1.35,3.02,2.05c1.01,0.7,2.09,0.89,2.09,0.89l0.12-0.02C121.75,168.77,121.66,168.89,121.54,169.03z M143.74,152.74
		c-3.34,4.76-7.41,8.69-11.99,11.7c0.05-0.04,0.07-0.06,0.09-0.08c-0.18,0.09-1.71,0.85-3.29,1.79c-1.7,1.01-4.94,2.31-5.45,2.48
		c-0.52,0.16-0.69-0.02-0.93-0.08c-0.1-0.02-0.18,0-0.24,0.05c-0.29-0.07-1.08-0.32-1.9-0.79c-1.03-0.61-2.84-1.99-3.29-2.58
		c-0.44-0.61,0.44-1.38,0.44-1.38s-0.08-0.05-0.22-0.06c0.9-0.93,2.43-2.96,4.85-6.43c2.24-3.18,3.22-5.15,3.68-6.2
		c0.43-0.17,1.16-0.5,1.55-0.83c0.56-0.46,6.04-3,7.5-3.77c1.46-0.76,6.7-4.21,7.1-4.45c0.26-0.15,0.86-0.05,1.25,0.05
		c0.62,0.61,1.55,1.36,2.1,1.94c0.73,0.8,1.08,1.76,1.33,2.08c-0.18,0.45-0.33,1.4-0.45,1.95c-0.14,0.7-0.79,2.28-0.79,2.28
		s-0.09,0.39,0.56-0.71c0.64-1.07,0.66-2.59,0.87-2.97c0.08-0.16,0.13-0.35,0.14-0.49c0.34-0.11,0.86-0.52,1.36-1.02
		C146.85,147.81,145.43,150.33,143.74,152.74z M148.51,118.81c-0.8,0.7-2.5,1.67-3.14,1.95c-0.51-0.5-1.73-1.38-1.99-1.72
		c-0.81-1.08-3.05-3.58-5.35-5.82c-2.3-2.25-6.69-5.32-6.97-5.34c-0.03,0-0.06,0-0.1,0.02c-0.03-0.65-0.31-2-0.98-4.99
		c-1.12-5.07-4.22-10.97-4.92-11.89c0.29-0.29,1.08-1.66,1.52-2.34c0.5-0.79,0.8-2.98,0.68-2.97c-0.11,0.01-0.27-0.2-0.27-0.2
		s-0.24,2.03-0.7,3.06c-0.33,0.71-1.01,1.72-1.41,2.29c-0.72-0.37-4.72-1.68-7.67-2.09c-2.99-0.42-11.3-0.97-12.41-0.84
		c-0.3-0.31-1.18-1.01-2.15-1.73c-0.97-0.72-2.01-1.48-2.66-1.91c-1.24-0.82-4.27-1.93-5.13-2.15c0.12-0.11,0.27-0.25,0.45-0.42
		c0.74-0.7,2.57-1.18,3.13-1.32c0.04-0.01,0.07-0.01,0.1-0.02c0.03,0,0.04-0.01,0.05-0.01c0.01,0,0.01,0,0.01,0
		c11.29-1.57,23.27,1.09,33.47,8.23c9.98,6.98,16.4,17.17,18.8,28.14C150.41,117.05,149.24,118.18,148.51,118.81z"/>
</g>
<g id="Layer_7">
</g>
</svg>
