<?xml version="1.0" encoding="utf-8"?>
<!-- Generator: Adobe Illustrator 27.8.1, SVG Export Plug-In . SVG Version: 6.00 Build 0)  -->
<svg version="1.1" xmlns="http://www.w3.org/2000/svg" xmlns:xlink="http://www.w3.org/1999/xlink" x="0px" y="0px"
	 viewBox="0 0 350 230" style="enable-background:new 0 0 350 230;" xml:space="preserve">
<style type="text/css">
	.st0{fill:#FF9D00;}
	.st1{fill:url(#SVGID_1_);}
	.st2{opacity:0.22;fill:url(#SVGID_00000145019846453367118670000017722664325425361802_);}
	.st3{fill:#FFC200;}
	.st4{fill:#778718;}
	.st5{fill:#E0B017;}
	.st6{fill:#664407;}
	.st7{fill:#9E690A;}
	.st8{fill:#7F1105;}
	.st9{fill:#191933;}
	.st10{fill:#FCEBD4;}
	.st11{fill:#E3DFD6;}
	.st12{fill:#FFB000;}
	.st13{fill:#AA210E;}
	.st14{fill:#FFF0A6;}
	.st15{fill:#FFDA00;}
	.st16{fill:#F4F4F4;}
	.st17{fill:#DC5C28;}
	.st18{fill:#FF8440;}
	.st19{fill:#C45224;}
	.st20{fill:#2C4369;}
	.st21{fill:#2A72DB;}
	.st22{fill:#C65500;}
	.st23{fill:#C15746;}
	.st24{fill:#FF8C00;}
	.st25{fill:#FFEA2C;}
	.st26{fill:#F7FF57;}
	.st27{fill:#FFFFFF;}
	.st28{fill:#D64949;}
	.st29{fill:#353535;}
	.st30{fill:#FFC783;}
	.st31{fill:#3F7F91;}
	.st32{fill:#25BDE5;}
	.st33{fill:#8CDD00;}
	.st34{fill:#D1FF88;}
	.st35{fill:#333333;}
	.st36{fill:#FF9000;}
	.st37{fill:#A1A813;}
	.st38{fill:#B3C40E;}
	.st39{fill:#CACE72;}
	.st40{fill:url(#SVGID_00000042695325014066803110000003168060133505538717_);}
	.st41{fill:#93E800;}
	.st42{fill:#3CB7D3;}
	.st43{fill:#FF7631;}
	.st44{fill:#E6873C;}
	.st45{fill:#30657F;}
	.st46{fill:#FF7A40;}
	.st47{fill:#FFAD4A;}
	.st48{fill:#BC8E3B;}
	.st49{fill:#E2E2E2;}
	.st50{fill:#F2B844;}
	.st51{fill:#AF3838;}
	.st52{fill:#17B5C1;}
	.st53{fill:#A88643;}
	.st54{fill-rule:evenodd;clip-rule:evenodd;fill:#DD7928;}
	.st55{fill:#E6E7E8;stroke:#CFCFCF;stroke-width:0.1061;}
	.st56{fill-rule:evenodd;clip-rule:evenodd;fill:#204F7A;}
	.st57{fill-rule:evenodd;clip-rule:evenodd;fill:#50A4FF;}
	.st58{fill:#002649;}
</style>
<g id="Layer_1">
</g>
<g id="Layer_12">
</g>
<g id="Layer_13">
</g>
<g id="Layer_14">
</g>
<g id="Layer_15">
</g>
<g id="Layer_11">
</g>
<g id="Layer_8">
</g>
<g id="Layer_10">
</g>
<g id="Layer_9">
</g>
<g id="Layer_2">
</g>
<g id="Layer_3">
</g>
<g id="Layer_4">
</g>
<g id="Layer_5">
</g>
<g id="Layer_6">
</g>
<g id="Layer_7">
	<path class="st56" d="M134.19,66.03c-1.31-0.75-2.7-0.8-4-0.6c-2.1,0.31-4.26,1.26-6.13,2.19c-6.68,3.3-13.07,7.01-19.37,11.01
		c-5.08,3.22-10.08,6.61-15.28,9.61c-5.85,3.38-11.78,6.07-18.28,8.02c-5.37,1.62-10.93,2.72-16.57,3.48
		c13.5,8.32,27.47,1.5,43.64-9.45c4.72-3.2,9.34-6.55,14.07-9.73c3.65-2.45,7.37-4.84,11.23-6.93c1.67-0.9,3.38-1.75,5.15-2.46
		c1.44-0.58,2.97-1.1,4.53-1.36c1.34-0.22,2.72-0.39,4.11-0.48C136.46,68.01,135.45,66.74,134.19,66.03z M261.25,96.27
		c-6.5-1.96-12.44-4.64-18.28-8.02c-5.19-3.01-10.2-6.39-15.27-9.61c-6.31-4.01-12.69-7.71-19.38-11.01
		c-1.87-0.93-4.02-1.88-6.13-2.19c-1.3-0.19-2.68-0.14-3.99,0.6c-1.26,0.72-2.27,1.99-3.1,3.32c1.39,0.09,2.76,0.25,4.11,0.48
		c1.56,0.26,3.09,0.78,4.53,1.36c1.76,0.71,3.47,1.56,5.15,2.46c3.85,2.08,7.58,4.48,11.22,6.93c4.73,3.18,9.36,6.53,14.08,9.73
		c16.17,10.95,30.13,17.77,43.64,9.45C272.17,98.99,266.62,97.89,261.25,96.27z M193.14,69.33c-1,1.77-1.89,3.71-2.71,5.65l1.56,0.6
		c0.62-1.46,1.28-2.93,2-4.3c1.59,0.07,3.17,0.25,4.69,0.5c1.46,0.25,2.89,0.74,4.25,1.28c1.72,0.69,3.38,1.52,5.01,2.4
		c3.81,2.05,7.5,4.43,11.11,6.86c4.73,3.18,9.35,6.53,14.07,9.73c9,6.1,18.56,10.94,28.34,15.56c-10.68,4.45-20.72-1.57-33.91-12.49
		c-5.11-4.24-10.31-8.14-16.16-11.19c-2.64-1.37-5.34-2.53-8.1-3.5v2.18c2.44,0.89,4.83,1.94,7.17,3.16
		c10.87,5.65,19.34,14.45,29.07,21.83c2.15,1.63,4.33,3.17,6.58,4.59c-14.4,2.81-24.06-17.55-42.9-23.6
		c-0.02,0.73-0.03,1.46-0.06,2.19c10.43,3.82,22.04,13.9,31.48,22.82c-12.68,0.59-18.12-9.91-31.59-16.49
		c-0.02,0.75-0.03,1.49-0.05,2.21c6.92,3.37,13.01,8.14,18.28,14c-10.4-1.21-8.91-2.59-16.61-8.3c-0.6-0.45-1.2-0.88-1.81-1.31
		c-0.03,0.82-0.07,1.63-0.12,2.43c0.28,0.19,0.55,0.39,0.83,0.6c1.69,1.26,3.39,2.58,4.95,4.03c-1.99-0.56-3.98-1.2-5.97-1.92
		c-1.04,12.95-4.11,22.93-13.72,32.83c-2.53,2.61-5.44,5.15-9.05,7.98c-3.23,2.54-6.82,5.11-11.26,8.1l-1.87,1.26l-1.88-1.26
		c-4.43-2.99-8-5.57-11.23-8.1c-3.62-2.84-6.48-5.38-9.01-7.98c-9.69-10-12.69-20.05-13.69-33.17c-2.31,0.87-4.61,1.62-6.91,2.27
		c1.57-1.45,3.27-2.78,4.96-4.03c0.58-0.43,1.17-0.86,1.76-1.26c-0.05-0.8-0.08-1.61-0.11-2.43c-0.93,0.64-1.85,1.3-2.76,1.97
		c-7.71,5.71-6.21,7.09-16.61,8.3c5.51-6.14,11.92-11.07,19.25-14.46c-0.02-0.72-0.03-1.46-0.05-2.21
		c-14.18,6.53-19.56,17.55-32.55,16.95c9.73-9.2,21.79-19.66,32.49-23.17c-0.01-0.73-0.01-1.45-0.02-2.16
		c-19.53,5.61-29.3,26.79-43.95,23.93c2.24-1.42,4.42-2.96,6.57-4.59c9.73-7.38,18.2-16.18,29.07-21.83c2.7-1.4,5.47-2.58,8.3-3.56
		v-2.16c-3.17,1.04-6.23,2.33-9.23,3.89c-5.85,3.05-11.05,6.95-16.17,11.19c-13.18,10.92-23.22,16.94-33.91,12.49
		c9.77-4.62,19.34-9.46,28.34-15.56c4.72-3.2,9.34-6.55,14.08-9.73c3.6-2.43,7.29-4.8,11.11-6.86c1.62-0.88,3.29-1.71,5.01-2.4
		c1.34-0.54,2.78-1.03,4.24-1.28c1.53-0.25,3.11-0.43,4.7-0.5c0.78,1.5,1.49,3.09,2.15,4.68l1.56-0.6
		c-0.86-2.07-1.81-4.15-2.87-6.03c-1.15-2.01-2.56-3.97-4.48-5.06c-1.67-0.95-3.39-1.07-5.06-0.83c-2.26,0.33-4.53,1.33-6.54,2.32
		c-6.73,3.32-13.21,6.94-19.56,10.97c-15.07,9.57-45.42,27.48-59.73,16.35c28.96,1.19,59.6-22.86,75.91-31.02
		c17.38-8.7,19.78-1.37,25.74,11.98l21.23-8.14l20.26,7.76c5.85-13.11,8.36-20.22,25.58-11.6c16.31,8.15,46.96,32.21,75.92,31.02
		c-14.32,11.13-44.66-6.78-59.73-16.35c-6.35-4.03-12.83-7.65-19.56-10.97c-2-0.99-4.29-1.99-6.54-2.32
		c-1.67-0.25-3.4-0.13-5.07,0.83C195.71,65.37,194.29,67.32,193.14,69.33z"/>
	<path id="XMLID_26_" class="st57" d="M166.6,69.49L133.59,82.2c0,4.15,0,8.31,0.05,12.46c0.25,19.77,1.2,32.28,13.24,44.68
		c2.75,2.83,5.69,5.34,8.67,7.68c3.61,2.83,7.31,5.45,11.04,7.97c3.73-2.52,7.44-5.13,11.04-7.97c2.98-2.34,5.93-4.85,8.67-7.68
		c12.04-12.41,12.98-24.92,13.24-44.68c0.05-4.15,0.06-8.3,0.05-12.46L166.6,69.49z"/>
	<path class="st58" d="M166.6,154.05l-0.44-0.3c-3.95-2.69-7.17-5.02-10.13-7.34c-3.46-2.72-6.19-5.14-8.59-7.61
		c-12.01-12.38-12.77-24.84-13.02-44.15c-0.05-3.5-0.05-6.95-0.05-11.38v-0.53l32.12-12.41l32.12,12.41v0.53
		c0,4.43,0.1,7.87,0.05,11.38c-0.25,19.31-0.96,31.78-12.97,44.15c-2.4,2.47-5.1,4.89-8.57,7.61c-2.96,2.32-6.16,4.66-10.11,7.34
		L166.6,154.05z M135.92,83.8c0,4.17,0.01,7.47,0.05,10.82c0.24,18.93,0.98,31.14,12.58,43.09c2.35,2.42,5.03,4.8,8.44,7.47
		c2.82,2.21,5.88,4.44,9.6,6.98c3.72-2.54,6.78-4.77,9.6-6.98c3.41-2.68,6.09-5.05,8.44-7.47c11.6-11.95,12.34-24.16,12.58-43.09
		c0.04-3.35,0.05-6.66,0.06-10.82L166.6,71.99L135.92,83.8z M165.35,59.08l-4.44-0.01l3.59,2.45l-1.38,3.98l3.59-2.47l3.58,2.47
		l-1.38-3.98l3.59-2.45l-4.44,0.01l-1.36-3.98L165.35,59.08z M152.15,62.29l-4.44-0.01l3.59,2.45l-1.38,3.98l3.58-2.47l3.58,2.47
		l-1.38-3.98l3.59-2.45l-4.44,0.01l-1.36-3.98L152.15,62.29z M178.84,62.29l-4.44-0.01l3.59,2.45l-1.38,3.98l3.59-2.47l3.58,2.47
		l-1.38-3.98l3.59-2.45l-4.44,0.01l-1.36-3.98L178.84,62.29z"/>
	<path class="st55" d="M151.74,93.58c-0.01,0.01-0.03,0.03-0.04,0.06c0.12-0.1,0.31-0.26,0.56-0.46
		C152.08,93.31,151.91,93.44,151.74,93.58z M170.64,106.79c-0.64-0.49-2.77-2.17-4.16-3.22c-1.35-1.02-3.52-2.45-4.2-2.99
		c-0.41,0.08-1.62,0.3-2.15,0.51c-0.65,0.26-3.89,1.54-5.2,2.23c-1.31,0.69-2.13,1.18-2.34,1.39c-0.15,0.16-0.49,0.38-0.67,0.49
		c-0.3,1.24-1.19,5.12-1.23,7.22c-0.03,1.77,0.05,2.73,0.06,3.16v0c0.09,0.18,0.27,0.5,0.58,0.91c0.48,0.63,2.49,2.33,3.7,3.23
		c1.21,0.91,2.86,2.09,3.56,2.49c0.44,0.25,0.86,0.4,1.1,0.48c1.01-0.46,4.12-1.64,5.71-2.34c1.41-0.61,2.79-1.33,3.47-1.66h0
		c0.17-0.21,0.48-0.74,0.67-1.75c0.27-1.44,0.67-4.98,0.75-6.08c0.09-1.1,0.35-2.45,0.24-3.06
		C170.46,107.34,170.53,106.96,170.64,106.79z M174.82,134.04l-0.06,0.01c0,0-0.55-0.1-1.07-0.46c-0.52-0.36-1.17-0.88-1.55-1.05
		c-0.38-0.18-0.99-0.19-1.09-0.35c0,0,0.42-0.09,0.72-0.33c-0.56,0.08-2.52,0.42-4.39,0.22c-1.79-0.19-4.71-0.67-5.6-0.94
		c0.23,0.08,0.47,0.15,0.35,0.15c-0.42-0.02-0.91-0.05-1.12,0c-0.1,0.02-1.55,0.53-2.97,0.81c-1.43,0.29-3.23,0.42-3.23,0.42
		s1.95-0.29,3.04-0.48c1.08-0.19,2.72-0.78,3.04-0.87c0.26-0.07,0.37-0.43,0.43-0.62c-0.42-1.11-1.3-3.86-1.5-5.12
		c-0.18-1.07-0.37-1.81-0.44-2.22c-0.72-0.5-4.07-2.83-5.54-4.17c-1.47-1.34-3.16-2.76-3.51-3.05c-0.66,0.25-2.01,0.76-2.79,1.09
		c-0.67,0.27-1.28,0.65-1.65,0.86c-0.01,0.28-0.09,2.87,0.44,4.56c0.5,1.59,1.36,3.37,1.54,3.73c-0.22-0.41-1.42-2.66-1.7-3.64
		c-0.31-1.08-0.73-3.2-0.82-3.62c-0.09-0.42-0.06-1.14-0.06-1.14l0.17,0.18c-0.25-0.28-1.16-1.34-1.73-4.29
		c-0.64-3.36-0.57-4.05-0.52-4.13c0,0,0.01-0.04,0.03-0.1c-0.05,0.12-0.19,0.25-0.21,0.37c-0.52,5.71,1.07,11.52,4.55,16.24
		c0.07,0.1,0.25,0.11,0.33,0.19c0,0,0,0.01,0,0.01c0.07,0.1,0.03,0.28,0.11,0.37c1.42,1.81,3.13,3.44,5.11,4.82
		c6.28,4.4,13.92,5.36,20.68,3.28c-0.15,0.03-0.24,0.04-0.27,0.04c0.11-0.05,1.01-0.46,1.14-0.61
		C174.74,134.15,174.78,134.08,174.82,134.04z M187.55,122.54c0,0.07-0.03,0.17-0.07,0.25c-0.11,0.19-0.12,0.97-0.44,1.52
		c-0.34,0.56-0.29,0.37-0.29,0.37s0.33-0.81,0.4-1.17c0.06-0.28,0.14-0.77,0.23-1c-0.13-0.17-0.31-0.66-0.68-1.07
		c-0.28-0.3-0.75-0.68-1.08-1c-0.2-0.05-0.51-0.1-0.64-0.02c-0.2,0.12-2.89,1.89-3.64,2.28c-0.75,0.39-3.56,1.69-3.85,1.93
		c-0.2,0.17-0.57,0.34-0.79,0.42c-0.23,0.54-0.74,1.55-1.88,3.18c-1.24,1.78-2.03,2.82-2.49,3.3c0.07,0,0.11,0.03,0.11,0.03
		s-0.45,0.39-0.22,0.71c0.23,0.31,1.16,1.01,1.68,1.32c0.42,0.24,0.83,0.37,0.97,0.4c0.03-0.02,0.07-0.03,0.12-0.02
		c0.13,0.03,0.21,0.12,0.48,0.04c0.26-0.08,1.92-0.75,2.79-1.27c0.81-0.48,1.6-0.87,1.69-0.92c-0.01,0.01-0.02,0.02-0.05,0.04
		c2.35-1.54,4.44-3.55,6.15-6c0.87-1.24,1.59-2.53,2.19-3.86C187.99,122.27,187.72,122.48,187.55,122.54z M186.68,110.02
		c-0.03-0.13-0.06-0.24-0.04-0.33c-0.32-0.39-2.06-2.45-3.5-3.72c-1.59-1.41-2.89-2.35-3.23-2.41c-0.25-0.04-0.61-0.13-0.74-0.23
		c-1.08,0.51-7.67,3.53-8.31,3.59c-0.07,0.18-0.18,0.49-0.16,0.63c0.04,0.2-0.58,7.15-0.75,8.15c-0.17,1.01-0.49,2.23-0.35,2.48
		c0.1,0.17,0.09,0.43,0.08,0.58c0.75,0.57,2.41,1.97,3.71,3.01c1.28,1.01,2.65,2,3.22,2.48c0.22,0.05,0.61,0.12,0.93,0.04
		c0.47-0.12,2.45-0.95,4.53-2.2c2.08-1.24,2.58-1.61,2.72-1.81c0.09-0.13,0.36-0.36,0.52-0.49c0.15-0.69,1.04-3.77,1.16-4.88
		C186.61,113.73,186.74,110.27,186.68,110.02z M163.59,90.96c-0.84-0.45-2.46-1.01-2.82-1.13c-0.06,0.02-0.1,0.02-0.17,0.02
		c0,0-0.63,0.12-2.37,0.51c-0.77,0.17-2.32,0.71-3.66,1.42c-1.23,0.65-2.48,1.57-2.88,1.88c-0.07,0.14-0.14,0.42-0.21,0.47
		c-0.09,0.08-0.3,0.07-0.39,0.15c-0.93,0.8-1.81,1.67-2.62,2.63l-0.03,0.03c-0.01,0.01-0.02,0.03-0.03,0.05c0,0,0,0,0,0.01
		c0,0.01,0,0.02,0,0.04c0.03,0.11-0.45,1.79-0.6,2.34c-0.11,0.43-0.36,1.3-0.46,1.66c0.03,0.21,0.17,0.6,1.17,1.3
		c1.04,0.73,2.47,1.74,3.13,2.22c0,0,0.01,0,0.01,0c0.19,0.06,0.55,0.11,0.99-0.16c0.68-0.41,2.04-1.35,3.88-2.12
		c1.7-0.71,4.99-1.93,5.61-2.19c0.2-0.65,0.83-2.28,1.84-4.1c1.05-1.89,1.59-2.89,1.9-3.21C165.47,92.38,164.34,91.37,163.59,90.96z
		 M162.2,100.27c-0.1-0.08-0.06-0.16-0.01-0.21c-0.01,0-0.03,0.01-0.04,0.02c-0.05,0.15-0.07,0.25-0.07,0.28
		c0,0.03,0.07,0.1,0.2,0.2c0.09-0.01,0.14-0.02,0.14-0.02C162.42,100.54,162.41,100.45,162.2,100.27z M147.13,98.64
		c-2.23,3.19-3.55,6.76-4.02,10.38c-0.02,0.14,0.14,0.27,0.14,0.41c0.19-0.74,0.87-3.66,1.91-5.3c0.86-1.35,1.59-2.54,1.95-3.04v0
		c0.05-0.15,0.45-1.32,0.54-1.56c0.09-0.26,0.59-2.07,0.59-2.07l0.02-0.29C147.87,97.63,147.49,98.13,147.13,98.64z M147.31,101.18
		c0,0,0.03-0.01,0.01-0.05C147.31,101.16,147.31,101.18,147.31,101.18z M180.07,92.99c-5.23-3.66-11.37-5.02-17.16-4.22c0,0,0,0,0,0
		c0,0-0.01,0-0.03,0c-0.01,0-0.03,0-0.05,0.01c-0.29,0.07-1.23,0.32-1.61,0.68c-0.09,0.09-0.17,0.16-0.23,0.21
		c0.44,0.12,1.99,0.68,2.63,1.11c0.66,0.44,2.15,1.55,2.46,1.86h0c0.56-0.07,4.82,0.21,6.36,0.43c1.51,0.21,3.56,0.89,3.93,1.07
		c0.2-0.29,0.56-0.81,0.72-1.17c0.24-0.53,0.36-1.57,0.36-1.57s0.08,0.11,0.14,0.1c0.06,0-0.09,1.12-0.35,1.52
		c-0.22,0.35-0.63,1.05-0.78,1.2c0.36,0.47,1.95,3.5,2.52,6.1c0.34,1.53,0.49,2.22,0.5,2.56c0.02-0.01,0.03-0.01,0.05-0.01
		c0.14,0.01,2.39,1.58,3.57,2.74c1.18,1.15,2.33,2.43,2.74,2.98c0.13,0.18,0.76,0.62,1.02,0.88c0.33-0.15,1.2-0.64,1.61-1
		c0.37-0.33,0.97-0.91,1.21-1.06C188.48,101.79,185.19,96.57,180.07,92.99z"/>
	<path class="st35" d="M191.31,107.25c-1.3-6.07-4.81-11.71-10.32-15.56c-5.72-4-12.61-5.41-19.1-4.25
		c-10.51,1.87-19.05,10.74-20.42,21.35c-0.02,0.15,0.13,0.29,0.09,0.44c-0.05,0.14-0.18,0.32-0.19,0.48c-0.32,3.47,0.11,7,1.22,10.3
		c1.7,5.06,5.25,9.76,9.62,12.82c6.68,4.68,14.82,5.71,22.02,3.51c0.3-0.06,0.89-0.22,1.85-0.63c0.62-0.26,1.7-0.68,2.56-1.15
		c0.54-0.29,1.02-0.59,1.4-0.84c2.82-1.73,5.33-4.05,7.35-6.93c1.25-1.79,2.23-3.69,2.96-5.65c0.43-1.06,0.96-2.85,1.38-5.4
		C192.3,112.26,191.54,108.18,191.31,107.25z M148.41,96.98c-0.01-0.02,0-0.02,0.01-0.03c0.01-0.02,0.04-0.04,0.06-0.05
		c0.81-0.96,1.69-1.84,2.62-2.63c0.09-0.08,0.29-0.07,0.38-0.14c0.07-0.06,0.14-0.33,0.21-0.47c-0.02,0.02-0.04,0.03-0.06,0.05
		c0.02-0.02,0.04-0.04,0.07-0.06c0.02-0.03,0.03-0.05,0.05-0.06c0.17-0.13,0.34-0.27,0.52-0.4c-0.25,0.2-0.45,0.36-0.56,0.46
		c0,0.01-0.01,0.01-0.01,0.02c0.4-0.31,1.66-1.24,2.89-1.88c1.34-0.71,2.89-1.25,3.66-1.41c1.73-0.38,2.36-0.51,2.36-0.51
		c0.07-0.01,0.11,0,0.17-0.03c0.36,0.12,1.98,0.68,2.82,1.13c0.76,0.42,1.88,1.43,2.31,1.81c-0.31,0.32-0.86,1.32-1.91,3.21
		c-1,1.82-1.64,3.46-1.84,4.1c-0.62,0.26-3.91,1.48-5.61,2.19c-1.84,0.76-3.2,1.7-3.88,2.12c-0.44,0.27-0.79,0.22-0.99,0.16
		c0-0.01-0.01-0.01-0.01-0.01c-0.66-0.47-2.09-1.49-3.13-2.21c-1-0.7-1.14-1.09-1.17-1.31c0.1-0.35,0.35-1.23,0.46-1.65
		c0.15-0.55,0.64-2.22,0.6-2.34c-0.01-0.02-0.01-0.03-0.01-0.04C148.4,96.99,148.41,96.98,148.41,96.98z M170.71,107.56
		c-0.03-0.14,0.09-0.45,0.16-0.64c0.64-0.06,7.23-3.08,8.3-3.59c0.12,0.1,0.49,0.18,0.74,0.23c0.34,0.06,1.64,1,3.23,2.41
		c1.44,1.27,3.18,3.33,3.5,3.72c-0.02,0.09,0.02,0.2,0.05,0.32c0.06,0.26-0.07,3.71-0.21,4.93c-0.13,1.11-1.01,4.19-1.16,4.88
		c-0.16,0.13-0.43,0.35-0.52,0.49c-0.13,0.2-0.63,0.56-2.72,1.8c-2.08,1.25-4.06,2.08-4.53,2.2c-0.31,0.08-0.7,0.01-0.92-0.05
		c-0.56-0.48-1.94-1.47-3.22-2.48c-1.3-1.04-2.96-2.43-3.72-3.01c0.02-0.15,0.02-0.42-0.08-0.58c-0.14-0.25,0.17-1.48,0.35-2.48
		C170.12,114.71,170.74,107.77,170.71,107.56z M170.54,107.8c0.1,0.61-0.16,1.96-0.25,3.06c-0.09,1.1-0.49,4.64-0.75,6.08
		c-0.19,1.01-0.5,1.54-0.67,1.75h-0.01c-0.68,0.33-2.07,1.04-3.47,1.66c-1.59,0.7-4.7,1.87-5.71,2.34c-0.24-0.08-0.66-0.23-1.1-0.48
		c-0.7-0.4-2.36-1.59-3.56-2.5c-1.21-0.9-3.22-2.6-3.7-3.23c-0.31-0.41-0.5-0.73-0.58-0.91v-0.01c-0.01-0.43-0.09-1.39-0.06-3.16
		c0.03-2.11,0.92-5.99,1.23-7.23c0.17-0.1,0.52-0.33,0.67-0.49c0.21-0.21,1.03-0.7,2.34-1.38c1.31-0.69,4.55-1.97,5.2-2.23
		c0.54-0.21,1.74-0.43,2.15-0.51c0.67,0.54,2.85,1.98,4.2,2.99c1.38,1.05,3.52,2.74,4.16,3.22
		C170.53,106.96,170.45,107.34,170.54,107.8z M147.13,98.64c0.36-0.51,0.74-1.01,1.13-1.48l-0.03,0.29c0,0-0.5,1.81-0.59,2.08
		c-0.09,0.24-0.49,1.41-0.53,1.56v0.01c-0.36,0.5-1.09,1.68-1.95,3.03c-1.05,1.65-1.72,4.57-1.91,5.31c0-0.14-0.16-0.28-0.14-0.41
		C143.58,105.39,144.9,101.83,147.13,98.64z M147.31,101.18c0,0,0.01-0.02,0.01-0.05C147.34,101.17,147.31,101.18,147.31,101.18z
		 M174.67,134.22c-0.14,0.16-1.04,0.57-1.14,0.62c0.03,0,0.12-0.01,0.27-0.04c-6.76,2.08-14.4,1.12-20.68-3.28
		c-1.98-1.38-3.69-3.01-5.12-4.82c-0.08-0.1-0.04-0.28-0.11-0.37c0,0,0-0.01,0-0.01c-0.08-0.09-0.26-0.1-0.33-0.19
		c-3.48-4.72-5.07-10.52-4.55-16.23c0.02-0.13,0.16-0.25,0.21-0.37c-0.02,0.06-0.03,0.09-0.03,0.1c-0.05,0.08-0.12,0.77,0.52,4.13
		c0.57,2.95,1.48,4.01,1.73,4.3l-0.17-0.17c0,0-0.03,0.71,0.06,1.14c0.09,0.42,0.51,2.54,0.82,3.62c0.28,0.97,1.48,3.23,1.7,3.64
		c-0.18-0.36-1.04-2.15-1.54-3.74c-0.53-1.69-0.46-4.27-0.45-4.56c0.37-0.21,0.98-0.58,1.65-0.86c0.79-0.32,2.14-0.84,2.79-1.09
		c0.35,0.29,2.05,1.7,3.52,3.05c1.46,1.34,4.82,3.67,5.54,4.17c0.07,0.42,0.27,1.16,0.44,2.22c0.21,1.26,1.08,4.01,1.5,5.12
		c-0.07,0.19-0.17,0.55-0.44,0.62c-0.31,0.09-1.95,0.68-3.03,0.87c-0.98,0.17-2.68,0.43-2.99,0.48c0.3-0.03,1.9-0.16,3.18-0.42
		c1.42-0.29,2.87-0.79,2.97-0.81c0.22-0.06,0.7-0.03,1.12-0.01c0.11,0.01-0.06-0.06-0.26-0.12c0.98,0.28,3.78,0.73,5.51,0.91
		c1.88,0.19,3.83-0.14,4.39-0.22c-0.3,0.24-0.72,0.33-0.72,0.33c0.1,0.16,0.71,0.17,1.09,0.35c0.38,0.17,1.03,0.69,1.55,1.05
		c0.52,0.36,1.07,0.46,1.07,0.46l0.06-0.01C174.78,134.08,174.74,134.15,174.67,134.22z M186.05,125.87c-1.71,2.44-3.8,4.45-6.15,6
		c0.03-0.02,0.04-0.03,0.05-0.04c-0.09,0.05-0.88,0.44-1.69,0.92c-0.87,0.52-2.53,1.18-2.79,1.27c-0.27,0.08-0.35-0.01-0.48-0.04
		c-0.05-0.01-0.09,0-0.12,0.03c-0.15-0.04-0.55-0.16-0.97-0.4c-0.53-0.31-1.46-1.02-1.69-1.32c-0.23-0.31,0.23-0.71,0.23-0.71
		s-0.04-0.03-0.11-0.03c0.46-0.48,1.25-1.52,2.49-3.3c1.15-1.63,1.65-2.64,1.89-3.18c0.22-0.09,0.59-0.26,0.79-0.43
		c0.29-0.24,3.1-1.54,3.84-1.93c0.75-0.39,3.43-2.16,3.64-2.28c0.13-0.08,0.44-0.03,0.64,0.03c0.32,0.31,0.79,0.7,1.08,0.99
		c0.37,0.41,0.55,0.9,0.68,1.07c-0.09,0.23-0.17,0.72-0.23,1c-0.07,0.36-0.4,1.17-0.4,1.17s-0.05,0.2,0.29-0.36
		c0.33-0.55,0.34-1.33,0.45-1.52c0.04-0.08,0.07-0.18,0.07-0.25c0.17-0.06,0.44-0.27,0.7-0.52
		C187.65,123.34,186.92,124.63,186.05,125.87z M188.5,108.47c-0.41,0.36-1.28,0.86-1.61,1c-0.26-0.26-0.89-0.71-1.02-0.88
		c-0.42-0.55-1.56-1.84-2.74-2.98c-1.18-1.15-3.43-2.73-3.57-2.74c-0.02,0-0.03,0-0.05,0.01c-0.02-0.33-0.16-1.03-0.5-2.56
		c-0.57-2.6-2.16-5.62-2.52-6.1c0.15-0.15,0.55-0.85,0.78-1.2c0.26-0.4,0.41-1.53,0.35-1.52c-0.06,0.01-0.14-0.1-0.14-0.1
		s-0.12,1.04-0.36,1.57c-0.17,0.36-0.52,0.88-0.72,1.17c-0.37-0.19-2.42-0.86-3.93-1.07c-1.53-0.22-5.79-0.5-6.36-0.43
		c-0.15-0.16-0.6-0.52-1.1-0.89c-0.5-0.37-1.03-0.76-1.36-0.98c-0.64-0.42-2.19-0.99-2.63-1.1c0.06-0.06,0.14-0.13,0.23-0.22
		c0.38-0.36,1.32-0.6,1.6-0.68c0.02-0.01,0.04-0.01,0.05-0.01c0.02,0,0.02-0.01,0.03-0.01c0.01,0,0.01,0,0.01,0
		c5.79-0.8,11.93,0.56,17.16,4.22c5.12,3.58,8.41,8.8,9.64,14.43C189.47,107.57,188.87,108.15,188.5,108.47z"/>
</g>
</svg>
