<?xml version="1.0" encoding="utf-8"?>
<!-- Generator: Adobe Illustrator 27.8.1, SVG Export Plug-In . SVG Version: 6.00 Build 0)  -->
<svg version="1.1" xmlns="http://www.w3.org/2000/svg" xmlns:xlink="http://www.w3.org/1999/xlink" x="0px" y="0px"
	 viewBox="0 0 350 230" style="enable-background:new 0 0 350 230;" xml:space="preserve">
<style type="text/css">
	.st0{fill:#FF9D00;}
	.st1{fill:url(#SVGID_1_);}
	.st2{opacity:0.22;fill:url(#SVGID_00000087405230015532187660000014650999855010918805_);}
	.st3{fill:#FFC200;}
	.st4{fill:#778718;}
	.st5{fill:#E0B017;}
	.st6{fill:#664407;}
	.st7{fill:#9E690A;}
	.st8{fill:#7F1105;}
	.st9{fill:#191933;}
	.st10{fill:#FCEBD4;}
	.st11{fill:#E3DFD6;}
	.st12{fill:#FFB000;}
	.st13{fill:#AA210E;}
	.st14{fill:#FFF0A6;}
	.st15{fill:#FFDA00;}
	.st16{fill:#F4F4F4;}
	.st17{fill:#DC5C28;}
	.st18{fill:#FF8440;}
	.st19{fill:#C45224;}
	.st20{fill:#2C4369;}
	.st21{fill:#2A72DB;}
	.st22{fill:#C65500;}
	.st23{fill:#C15746;}
	.st24{fill:#FF8C00;}
	.st25{fill:#FFEA2C;}
	.st26{fill:#F7FF57;}
	.st27{fill:#FFFFFF;}
	.st28{fill:#D64949;}
	.st29{fill:#353535;}
	.st30{fill:#FFC783;}
	.st31{fill:#3F7F91;}
	.st32{fill:#25BDE5;}
	.st33{fill:#8CDD00;}
	.st34{fill:#D1FF88;}
	.st35{fill:#333333;}
	.st36{fill:#FF9000;}
	.st37{fill:#A1A813;}
	.st38{fill:#B3C40E;}
	.st39{fill:#CACE72;}
	.st40{fill:url(#SVGID_00000168097121133349770000000008783682775692225160_);}
	.st41{fill:#93E800;}
	.st42{fill:#3CB7D3;}
	.st43{fill:#FF7631;}
	.st44{fill:#E6873C;}
	.st45{fill:#30657F;}
	.st46{fill:#FF7A40;}
	.st47{fill:#FFAD4A;}
	.st48{fill:#BC8E3B;}
	.st49{fill:#E2E2E2;}
	.st50{fill:#F2B844;}
	.st51{fill:#AF3838;}
	.st52{fill:#17B5C1;}
	.st53{fill:#A88643;}
	.st54{fill-rule:evenodd;clip-rule:evenodd;fill:#DD7928;}
	.st55{fill:#E6E7E8;stroke:#CFCFCF;stroke-width:0.1061;}
	.st56{fill-rule:evenodd;clip-rule:evenodd;fill:#204F7A;}
	.st57{fill-rule:evenodd;clip-rule:evenodd;fill:#50A4FF;}
	.st58{fill:#002649;}
</style>
<g id="Layer_1">
</g>
<g id="Layer_12">
</g>
<g id="Layer_13">
</g>
<g id="Layer_14">
</g>
<g id="Layer_15">
</g>
<g id="Layer_11">
</g>
<g id="Layer_8">
	<path class="st25" d="M174.99,23.86c-36.65,0-66.48,29.82-66.48,66.48c0,6.94,1.07,13.63,3.05,19.92c1.4-0.73,2.84-1.47,4.32-2.22
		c-1.69-5.61-2.59-11.55-2.59-17.7c0-34.03,27.68-61.71,61.7-61.71c20.46,0,38.63,10.01,49.85,25.39c1.55-0.75,3.02-1.46,4.37-2.12
		C217.14,34.93,197.34,23.86,174.99,23.86z M240.43,78.51c-1.42,0.49-2.95,1.03-4.58,1.6c0.56,3.33,0.85,6.75,0.85,10.23
		c0,34.03-27.68,61.71-61.71,61.71c-23.58,0-44.12-13.31-54.5-32.81c-1.58,0.5-3.13,1-4.63,1.48
		c11.06,21.43,33.42,36.11,59.13,36.11c36.66,0,66.49-29.82,66.49-66.48C241.48,86.3,241.12,82.35,240.43,78.51z"/>
	<path class="st26" d="M174.99,31.81c-32.26,0-58.51,26.25-58.51,58.52c0,5.63,0.79,11.07,2.29,16.22
		c4.13-2.12,8.49-4.34,13.03-6.63c-0.69-3.08-1.05-6.3-1.05-9.59c0-24.4,19.86-44.25,44.25-44.25c13.55,0,25.7,6.12,33.83,15.74
		c4.78-2.33,9.2-4.48,13.12-6.4C211.27,41.11,194.19,31.81,174.99,31.81z M233.51,90.34c0,32.27-26.25,58.52-58.52,58.52
		c-22.17,0-41.51-12.4-51.43-30.63c1.53-0.49,3.08-1,4.67-1.52c1.55-0.5,3.12-1.02,4.72-1.54c1.47-0.48,2.96-0.98,4.47-1.48
		c7.82,12.54,21.74,20.9,37.57,20.9c24.4,0,44.26-19.85,44.26-44.25c0-1.49-0.08-2.95-0.22-4.41c5.02-1.73,9.66-3.34,13.76-4.77
		C233.27,84.16,233.51,87.22,233.51,90.34z"/>
	<path class="st27" d="M151.83,89.88c-0.46,0.23-0.92,0.46-1.38,0.69c-0.03-0.23-0.05-0.45-0.08-0.68L151.83,89.88z M150.55,115.2
		c-0.73-0.08-1.25-0.74-1.16-1.47c0.08-0.73,0.74-1.24,1.47-1.16l2.04,0.24c-0.06-1.15-0.2-2.3-0.4-3.49l-2.32,0.28
		c-0.06,0.01-0.11,0.01-0.17,0.01c-0.09,0-0.18-0.01-0.26-0.03h-0.01c-3.12,1.05-6.19,2.07-9.2,3.07
		c2.78,4.26,6.31,7.98,10.43,10.96c0.29-0.67,0.54-1.32,0.77-1.96l-2.32-0.81c-0.69-0.24-1.06-1-0.82-1.69
		c0.24-0.69,1-1.06,1.69-0.82l2.17,0.76c0.27-1.21,0.42-2.41,0.48-3.6v-0.01L150.55,115.2z M197.74,93.28l1.18,0.25
		c0.01-0.05,0.03-0.11,0.04-0.16c0.05-0.18,0.1-0.38,0.14-0.56C198.65,92.97,198.2,93.12,197.74,93.28z M215.93,87.01
		c-4.4,1.52-9.06,3.14-13.91,4.8c-0.12,0.77-0.28,1.52-0.5,2.27l2.35,0.5c0.71,0.15,1.17,0.85,1.02,1.57
		c-0.13,0.63-0.69,1.05-1.3,1.05c-0.09,0-0.18-0.01-0.28-0.03l-2.52-0.54c-0.18,0.62-0.36,1.23-0.54,1.82
		c-0.21,0.71-0.41,1.4-0.61,2.07l2.38,0.62c0.71,0.18,1.14,0.91,0.95,1.61c-0.16,0.6-0.69,0.99-1.29,0.99
		c-0.11,0-0.22-0.01-0.33-0.04l-2.42-0.63c-0.35,1.25-0.66,2.45-0.92,3.62l2.13,0.26c0.73,0.09,1.25,0.75,1.15,1.48
		c-0.08,0.67-0.65,1.16-1.31,1.16c-0.06,0-0.11,0-0.17-0.01l-2.32-0.28c-0.2,1.19-0.34,2.34-0.4,3.49l2.04-0.24
		c0.74-0.08,1.39,0.43,1.47,1.16c0.08,0.73-0.43,1.39-1.16,1.47l-2.37,0.28v0.01c0.07,1.2,0.22,2.38,0.48,3.59l2.16-0.75
		c0.69-0.24,1.45,0.13,1.7,0.82c0.24,0.69-0.13,1.45-0.82,1.69l-2.32,0.81c0.23,0.64,0.48,1.3,0.77,1.96
		c10.31-7.47,17.03-19.6,17.03-33.27C216.06,89.21,216.02,88.1,215.93,87.01z M188.22,69.35l-0.98,2.1c-0.23,0.48-0.7,0.76-1.2,0.76
		c-0.18,0-0.38-0.03-0.56-0.13c-0.66-0.31-0.94-1.1-0.64-1.76l1.05-2.24c-1.12-0.54-2.28-0.99-3.47-1.36l-0.74,2.35
		c-0.18,0.57-0.69,0.93-1.26,0.93c-0.13,0-0.27-0.02-0.39-0.06c-0.7-0.22-1.1-0.96-0.88-1.66l0.69-2.21
		c-1.16-0.23-2.33-0.38-3.52-0.44v2.27c0,0.74-0.59,1.33-1.33,1.33c-0.73,0-1.32-0.59-1.32-1.33v-2.27
		c-1.19,0.07-2.37,0.21-3.52,0.44l0.69,2.21c0.22,0.7-0.18,1.45-0.88,1.66c-0.13,0.04-0.26,0.06-0.39,0.06
		c-0.57,0-1.09-0.36-1.26-0.93l-0.74-2.35c-1.2,0.37-2.35,0.83-3.47,1.36l1.05,2.24c0.31,0.66,0.03,1.45-0.64,1.76
		c-0.18,0.09-0.38,0.13-0.56,0.13c-0.5,0-0.98-0.28-1.2-0.76l-0.98-2.11c-0.99,0.61-1.93,1.28-2.83,2.01l1.62,1.71
		c0.5,0.54,0.48,1.37-0.05,1.87c-0.26,0.25-0.59,0.37-0.91,0.37c-0.35,0-0.7-0.14-0.96-0.41l-1.66-1.76
		c-0.8,0.79-1.55,1.66-2.23,2.56c-0.03,0.04-0.06,0.08-0.08,0.12l1.98,1.18c0.63,0.38,0.84,1.19,0.46,1.81
		c-0.25,0.42-0.69,0.65-1.14,0.65c-0.23,0-0.47-0.06-0.68-0.19l-2.1-1.25c-0.61,1.04-1.13,2.1-1.55,3.18l2.39,0.69
		c0.7,0.21,1.1,0.94,0.9,1.65c-0.17,0.58-0.7,0.95-1.28,0.95c-0.12,0-0.24-0.02-0.37-0.05l-2.43-0.71
		c-0.28,1.16-0.46,2.33-0.52,3.51l2.31-0.03c0.01,0,0.01,0,0.02,0c0.73,0,1.32,0.59,1.33,1.31c0,0.1-0.01,0.21-0.03,0.3
		c7-3.48,14.09-6.99,21.04-10.42c5.25-2.59,10.42-5.13,15.41-7.57C189.7,70.3,188.98,69.81,188.22,69.35z M174.99,49.27
		c-22.64,0-41.06,18.42-41.06,41.06c0,2.78,0.28,5.49,0.8,8.12c4.31-2.17,8.74-4.4,13.24-6.65c-0.11-0.63-0.18-1.26-0.23-1.89
		l-2.56,0.03c-0.01,0-0.01,0-0.02,0c-0.73,0-1.31-0.59-1.32-1.31c-0.01-0.74,0.58-1.34,1.31-1.34l2.54-0.03
		c0.07-1.43,0.28-2.86,0.63-4.26l-2.23-0.65c-0.7-0.2-1.1-0.94-0.9-1.64c0.21-0.71,0.94-1.11,1.65-0.91l2.27,0.66
		c0.48-1.3,1.08-2.57,1.8-3.8l-2.06-1.22c-0.63-0.38-0.84-1.2-0.46-1.82c0.38-0.63,1.2-0.84,1.82-0.46l2.15,1.28
		c0.08-0.12,0.17-0.23,0.26-0.35c0.78-1.02,1.61-1.98,2.52-2.88l-1.66-1.75c-0.5-0.54-0.48-1.37,0.05-1.87
		c0.53-0.51,1.37-0.48,1.87,0.04l1.7,1.79c1.11-0.93,2.3-1.76,3.54-2.5l-1.05-2.26c-0.32-0.66-0.03-1.45,0.64-1.76
		c0.67-0.31,1.45-0.02,1.76,0.64l0.99,2.13c1.23-0.59,2.5-1.09,3.8-1.48l-0.71-2.27c-0.22-0.7,0.18-1.45,0.87-1.66
		c0.7-0.22,1.45,0.18,1.66,0.87l0.74,2.39c1.42-0.3,2.87-0.48,4.32-0.55v-2.55c0-0.74,0.59-1.33,1.32-1.33
		c0.74,0,1.33,0.59,1.33,1.33v2.55c1.45,0.07,2.9,0.25,4.31,0.55h0.01l0.74-2.39c0.22-0.69,0.96-1.09,1.66-0.87
		c0.7,0.22,1.1,0.96,0.88,1.66l-0.71,2.27c1.3,0.39,2.57,0.89,3.8,1.48l0.99-2.13c0.31-0.66,1.1-0.95,1.76-0.64
		c0.66,0.31,0.94,1.1,0.64,1.76l-1.05,2.26c1.24,0.74,2.42,1.57,3.54,2.49l1.69-1.78c0.5-0.53,1.35-0.55,1.87-0.04
		c0.07,0.06,0.12,0.13,0.17,0.19c3.18-1.56,6.26-3.07,9.22-4.51C198.32,54.7,187.28,49.27,174.99,49.27z M198.19,96.09
		c-0.17,0.55-0.33,1.1-0.48,1.63c-0.21,0.73-0.42,1.45-0.63,2.16l-2.29-0.59c-0.7-0.18-1.43,0.23-1.61,0.94
		c-0.18,0.71,0.24,1.44,0.95,1.62l2.23,0.58c-0.37,1.35-0.71,2.68-0.99,3.96l-2.64-0.33c-0.73-0.09-1.39,0.43-1.48,1.15
		c-0.08,0.73,0.43,1.39,1.16,1.48l2.46,0.3c-0.23,1.39-0.39,2.76-0.45,4.12l-2.71,0.32c-0.73,0.08-1.25,0.74-1.16,1.47
		c0.08,0.68,0.65,1.18,1.32,1.18c0.05,0,0.1-0.01,0.15-0.01l2.42-0.28c0.08,1.38,0.27,2.76,0.6,4.17v0.01l-2.37,0.83
		c-0.69,0.24-1.05,0.99-0.81,1.69c0.19,0.54,0.7,0.89,1.25,0.89c0.14,0,0.29-0.03,0.43-0.08l2.22-0.78c0.29,0.85,0.64,1.71,1.05,2.6
		c-6.32,3.97-13.8,6.28-21.81,6.28c-8.01,0-15.48-2.31-21.8-6.28c0.41-0.89,0.75-1.75,1.05-2.6l2.22,0.78
		c0.14,0.05,0.29,0.08,0.43,0.08c0.55,0,1.06-0.34,1.25-0.89c0.24-0.69-0.13-1.45-0.81-1.69l-2.37-0.83c0.33-1.41,0.53-2.8,0.6-4.18
		l2.42,0.28c0.05,0,0.1,0.01,0.15,0.01c0.67,0,1.24-0.5,1.32-1.18c0.08-0.73-0.43-1.39-1.16-1.47l-2.71-0.32
		c-0.06-1.36-0.22-2.73-0.45-4.12l2.46-0.3c0.73-0.09,1.25-0.75,1.16-1.48c-0.03-0.22-0.1-0.41-0.23-0.58
		c5.46-1.84,10.99-3.71,16.47-5.58c6.77-2.31,13.49-4.6,19.96-6.83c-0.05,0.65,0.38,1.25,1.05,1.39L198.19,96.09z M177.86,117.19
		l4.29-3.25l-5.38-0.11l-1.77-5.09l-1.76,5.09l-5.38,0.11l4.29,3.25l-1.55,5.16l4.41-3.08l4.42,3.08L177.86,117.19z"/>
	<path class="st28" d="M159.45,114.91c-0.08,0.68-0.65,1.18-1.32,1.18c-0.05,0-0.1-0.01-0.15-0.01l-2.42-0.28
		c-0.08,1.38-0.27,2.77-0.6,4.18l2.37,0.83c0.69,0.24,1.05,0.99,0.81,1.69c-0.19,0.54-0.7,0.89-1.25,0.89
		c-0.14,0-0.29-0.03-0.43-0.08l-2.22-0.78c-0.29,0.85-0.64,1.71-1.05,2.6c-0.76-0.48-1.5-0.99-2.23-1.51
		c0.29-0.67,0.54-1.32,0.77-1.96l-2.32-0.81c-0.69-0.24-1.06-1-0.82-1.69c0.24-0.69,1-1.06,1.69-0.82l2.17,0.76
		c0.27-1.21,0.42-2.41,0.48-3.6v-0.01l-2.37-0.28c-0.73-0.08-1.25-0.74-1.16-1.47c0.08-0.73,0.74-1.24,1.47-1.16l2.04,0.24
		c-0.06-1.15-0.2-2.3-0.4-3.49l-2.32,0.28c-0.06,0.01-0.11,0.01-0.17,0.01c-0.09,0-0.18-0.01-0.26-0.03
		c0.88-0.29,1.76-0.59,2.64-0.89h0.01c0.84-0.28,1.69-0.56,2.53-0.85c1.2-0.39,2.39-0.8,3.59-1.2c0.13,0.17,0.2,0.36,0.23,0.58
		c0.08,0.73-0.43,1.39-1.16,1.48l-2.46,0.3c0.23,1.39,0.39,2.76,0.45,4.12l2.71,0.32C159.01,113.52,159.53,114.18,159.45,114.91z
		 M196.46,67.6c-0.53-0.51-1.37-0.48-1.87,0.04l-1.69,1.78c-1.12-0.92-2.31-1.76-3.54-2.49l1.05-2.26c0.31-0.66,0.03-1.45-0.64-1.76
		c-0.67-0.31-1.45-0.02-1.76,0.64l-0.99,2.13c-1.23-0.59-2.5-1.09-3.8-1.48l0.71-2.27c0.22-0.7-0.18-1.45-0.88-1.66
		c-0.69-0.22-1.44,0.18-1.66,0.87l-0.74,2.39h-0.01c-1.41-0.3-2.86-0.48-4.31-0.55v-2.55c0-0.74-0.59-1.33-1.33-1.33
		c-0.73,0-1.32,0.59-1.32,1.33v2.55c-1.45,0.07-2.9,0.25-4.32,0.55l-0.74-2.39c-0.22-0.69-0.96-1.09-1.66-0.87
		c-0.69,0.22-1.09,0.96-0.87,1.66l0.71,2.27c-1.3,0.39-2.57,0.89-3.8,1.48l-0.99-2.13c-0.31-0.66-1.1-0.95-1.76-0.64
		c-0.66,0.31-0.95,1.1-0.64,1.76l1.05,2.26c-1.24,0.74-2.42,1.57-3.54,2.5l-1.7-1.79c-0.5-0.53-1.35-0.55-1.87-0.04
		c-0.54,0.5-0.55,1.34-0.05,1.87l1.66,1.75c-0.9,0.89-1.74,1.86-2.52,2.88c-0.09,0.12-0.18,0.23-0.26,0.35l-2.15-1.28
		c-0.63-0.38-1.45-0.17-1.82,0.46c-0.38,0.63-0.17,1.45,0.46,1.82l2.06,1.22c-0.72,1.23-1.32,2.5-1.8,3.8l-2.27-0.66
		c-0.7-0.2-1.44,0.2-1.65,0.91c-0.2,0.7,0.2,1.44,0.9,1.64l2.23,0.65c-0.35,1.4-0.56,2.83-0.63,4.26l-2.54,0.03
		c-0.74,0-1.32,0.6-1.31,1.34c0.01,0.73,0.59,1.31,1.32,1.31c0.01,0,0.01,0,0.02,0l2.56-0.03c0.04,0.63,0.12,1.26,0.23,1.89
		c0.83-0.41,1.66-0.82,2.48-1.24c-0.03-0.23-0.05-0.45-0.08-0.68l1.45-0.01c0.7-0.35,1.4-0.7,2.12-1.05c0.03-0.09,0.03-0.2,0.03-0.3
		c-0.01-0.73-0.6-1.31-1.33-1.31c-0.01,0-0.01,0-0.02,0l-2.31,0.03c0.06-1.18,0.23-2.35,0.52-3.51l2.43,0.71
		c0.13,0.03,0.25,0.05,0.37,0.05c0.58,0,1.11-0.38,1.28-0.95c0.2-0.7-0.2-1.44-0.9-1.65l-2.39-0.69c0.42-1.08,0.94-2.14,1.55-3.18
		l2.1,1.25c0.21,0.13,0.44,0.19,0.68,0.19c0.45,0,0.89-0.23,1.14-0.65c0.38-0.63,0.17-1.44-0.46-1.81l-1.98-1.18
		c0.03-0.04,0.05-0.08,0.08-0.12c0.69-0.9,1.43-1.76,2.23-2.56l1.66,1.76c0.26,0.27,0.61,0.41,0.96,0.41c0.33,0,0.65-0.12,0.91-0.37
		c0.54-0.5,0.55-1.34,0.05-1.87l-1.62-1.71c0.9-0.73,1.85-1.4,2.83-2.01l0.98,2.11c0.23,0.48,0.7,0.76,1.2,0.76
		c0.18,0,0.38-0.03,0.56-0.13c0.66-0.31,0.94-1.1,0.64-1.76l-1.05-2.24c1.12-0.54,2.27-0.99,3.47-1.36l0.74,2.35
		c0.18,0.57,0.69,0.93,1.26,0.93c0.13,0,0.27-0.02,0.39-0.06c0.7-0.22,1.1-0.96,0.88-1.66l-0.69-2.21c1.15-0.23,2.33-0.38,3.52-0.44
		v2.27c0,0.74,0.59,1.33,1.32,1.33c0.74,0,1.33-0.59,1.33-1.33v-2.27c1.19,0.07,2.36,0.22,3.52,0.44l-0.69,2.21
		c-0.22,0.7,0.18,1.45,0.88,1.66c0.13,0.04,0.26,0.06,0.39,0.06c0.57,0,1.09-0.36,1.26-0.93l0.74-2.35
		c1.19,0.37,2.35,0.83,3.47,1.36l-1.05,2.24c-0.31,0.66-0.03,1.45,0.64,1.76c0.18,0.09,0.38,0.13,0.56,0.13
		c0.5,0,0.98-0.28,1.2-0.76l0.98-2.1c0.75,0.46,1.48,0.95,2.17,1.49c0.73-0.36,1.45-0.71,2.16-1.06c0.16-0.08,0.32-0.16,0.48-0.23
		c1.21-0.59,2.41-1.18,3.59-1.76C196.58,67.72,196.53,67.65,196.46,67.6z M203.87,94.58l-2.35-0.5c0.22-0.75,0.38-1.5,0.5-2.27
		c-0.96,0.33-1.94,0.67-2.92,1c-0.04,0.18-0.09,0.38-0.14,0.56c-0.02,0.05-0.03,0.11-0.04,0.16l-1.18-0.25
		c-0.92,0.32-1.85,0.64-2.78,0.95c-0.05,0.65,0.38,1.25,1.05,1.39l2.19,0.47c-0.17,0.55-0.33,1.1-0.48,1.63
		c-0.21,0.73-0.42,1.45-0.63,2.16l-2.29-0.59c-0.7-0.18-1.43,0.23-1.61,0.94c-0.18,0.71,0.24,1.44,0.95,1.62l2.23,0.58
		c-0.37,1.35-0.71,2.68-0.99,3.96l-2.64-0.33c-0.73-0.09-1.39,0.43-1.48,1.15c-0.08,0.73,0.43,1.39,1.16,1.48l2.46,0.3
		c-0.23,1.39-0.39,2.76-0.45,4.12l-2.71,0.32c-0.73,0.08-1.25,0.74-1.16,1.47c0.08,0.68,0.65,1.18,1.32,1.18
		c0.05,0,0.1-0.01,0.15-0.01l2.42-0.28c0.08,1.38,0.27,2.76,0.6,4.17v0.01l-2.37,0.83c-0.69,0.24-1.05,0.99-0.81,1.69
		c0.19,0.54,0.7,0.89,1.25,0.89c0.14,0,0.29-0.03,0.43-0.08l2.22-0.78c0.29,0.85,0.64,1.71,1.05,2.6c0.76-0.48,1.5-0.99,2.23-1.51
		c-0.29-0.67-0.54-1.32-0.77-1.96l2.32-0.81c0.69-0.24,1.06-1,0.82-1.69c-0.24-0.69-1-1.06-1.7-0.82l-2.16,0.75
		c-0.27-1.21-0.42-2.4-0.48-3.59v-0.01l2.37-0.28c0.73-0.08,1.25-0.74,1.16-1.47c-0.08-0.73-0.74-1.24-1.47-1.16l-2.04,0.24
		c0.06-1.15,0.2-2.3,0.4-3.49l2.32,0.28c0.06,0.01,0.11,0.01,0.17,0.01c0.66,0,1.23-0.49,1.31-1.16c0.09-0.73-0.43-1.39-1.15-1.48
		l-2.13-0.26c0.26-1.17,0.57-2.37,0.92-3.62l2.42,0.63c0.12,0.03,0.23,0.04,0.33,0.04c0.59,0,1.13-0.39,1.29-0.99
		c0.18-0.7-0.24-1.43-0.95-1.61l-2.38-0.62c0.2-0.68,0.4-1.36,0.61-2.07c0.18-0.59,0.35-1.2,0.54-1.82l2.52,0.54
		c0.1,0.03,0.19,0.03,0.28,0.03c0.61,0,1.16-0.43,1.3-1.05C205.04,95.43,204.58,94.73,203.87,94.58z"/>
	<path class="st29" d="M249.45,59.12c-1.54-3.72-4.46-6.55-8.23-7.98c-2.93-1.11-6.04-1.25-8.97-0.43
		c-12.58-18.13-33.56-30.03-57.26-30.03c-38.41,0-69.67,31.25-69.67,69.67c0,5.98,0.75,11.77,2.18,17.31c-0.31-0.22-0.64-0.4-1-0.55
		c-1.26-0.52-2.66-0.52-3.92,0.01c-2.62,1.08-3.85,4.09-2.77,6.7l5.28,12.73c0.81,1.96,2.73,3.16,4.74,3.16
		c0.65,0,1.32-0.13,1.96-0.39c1.66-0.69,2.77-2.15,3.08-3.8c12.11,20.62,34.53,34.5,60.12,34.5c38.41,0,69.67-31.25,69.67-69.66
		c0-4.5-0.43-8.9-1.25-13.16c2.59-1.5,4.64-3.77,5.89-6.58C250.95,66.92,251,62.85,249.45,59.12z M174.99,23.86
		c22.35,0,42.15,11.08,54.22,28.04c-1.35,0.66-2.82,1.37-4.37,2.12c-11.22-15.38-29.39-25.39-49.85-25.39
		c-34.02,0-61.7,27.68-61.7,61.71c0,6.14,0.9,12.09,2.59,17.7c-1.48,0.75-2.92,1.5-4.32,2.22c-1.98-6.3-3.05-12.98-3.05-19.92
		C108.51,53.68,138.34,23.86,174.99,23.86z M174.99,46.08c-24.39,0-44.25,19.85-44.25,44.25c0,3.29,0.36,6.5,1.05,9.59
		c-4.53,2.29-8.9,4.51-13.03,6.63c-1.5-5.15-2.29-10.59-2.29-16.22c0-32.27,26.25-58.52,58.51-58.52c19.2,0,36.27,9.3,46.94,23.62
		c-3.92,1.91-8.34,4.06-13.12,6.4C200.69,52.2,188.54,46.08,174.99,46.08z M205.85,63.27c-2.96,1.45-6.04,2.95-9.22,4.51
		c-1.19,0.58-2.38,1.16-3.59,1.76c-0.16,0.08-0.32,0.16-0.48,0.23c-0.71,0.35-1.43,0.7-2.16,1.06c-4.99,2.44-10.16,4.98-15.41,7.57
		c-6.96,3.43-14.05,6.94-21.04,10.42c-0.71,0.35-1.41,0.7-2.12,1.05c-0.46,0.23-0.92,0.46-1.38,0.69c-0.83,0.42-1.66,0.83-2.48,1.24
		c-4.5,2.25-8.94,4.47-13.24,6.65c-0.53-2.63-0.8-5.34-0.8-8.12c0-22.65,18.43-41.06,41.06-41.06
		C187.28,49.27,198.32,54.7,205.85,63.27z M111.63,125.3c-0.2,0.48-0.57,0.85-1.05,1.05c-0.99,0.41-2.12-0.06-2.54-1.05l-2.55-6.14
		v-0.01l-2.73-6.57c-0.19-0.48-0.2-1,0-1.49c0.2-0.48,0.58-0.85,1.05-1.05c0.24-0.1,0.49-0.14,0.74-0.14c0.76,0,1.49,0.45,1.8,1.2
		l0.92,2.21l0.84,2.02v0.01l0.89,2.12l0.03,0.06l0.85,2.06l0.01,0.01l0.84,2.03l0.92,2.21C111.83,124.29,111.83,124.82,111.63,125.3
		z M174.99,156.81c-25.72,0-48.07-14.68-59.13-36.11c1.5-0.48,3.05-0.98,4.63-1.48c10.37,19.5,30.92,32.81,54.5,32.81
		c34.03,0,61.71-27.68,61.71-61.71c0-3.49-0.29-6.91-0.85-10.23c1.63-0.57,3.16-1.1,4.58-1.6c0.69,3.85,1.05,7.79,1.05,11.83
		C241.48,126.99,211.65,156.81,174.99,156.81z M174.99,134.59c24.4,0,44.26-19.85,44.26-44.25c0-1.49-0.08-2.95-0.22-4.41
		c5.02-1.73,9.66-3.34,13.76-4.77c0.48,2.99,0.72,6.05,0.72,9.17c0,32.27-26.25,58.52-58.52,58.52c-22.17,0-41.51-12.4-51.43-30.63
		c1.53-0.49,3.08-1,4.67-1.52c1.55-0.5,3.12-1.02,4.72-1.54c1.47-0.48,2.96-0.98,4.47-1.48
		C145.24,126.23,159.16,134.59,174.99,134.59z M140.53,112.65c3.02-0.99,6.09-2.02,9.2-3.07h0.01c0.88-0.29,1.76-0.59,2.64-0.89
		h0.01c0.84-0.28,1.69-0.56,2.53-0.85c1.2-0.39,2.39-0.8,3.59-1.2c5.46-1.84,10.99-3.71,16.47-5.58c6.77-2.31,13.49-4.6,19.96-6.83
		c0.94-0.32,1.86-0.64,2.78-0.95c0.46-0.16,0.91-0.31,1.36-0.47c0.98-0.33,1.96-0.67,2.92-1c4.85-1.66,9.51-3.28,13.91-4.8
		c0.09,1.1,0.13,2.21,0.13,3.33c0,13.68-6.72,25.81-17.03,33.27c-0.73,0.53-1.47,1.03-2.23,1.51c-6.32,3.97-13.8,6.28-21.81,6.28
		c-8.01,0-15.48-2.31-21.8-6.28c-0.76-0.48-1.5-0.99-2.23-1.51C146.84,120.63,143.31,116.91,140.53,112.65z M246.39,69.29
		c-0.84,1.86-2.11,3.41-3.7,4.56c-0.45,0.32-0.93,0.61-1.43,0.87c-0.47,0.24-0.95,0.45-1.46,0.63c-0.01,0-0.02,0.01-0.03,0.01
		c-1.4,0.49-2.92,1.02-4.54,1.58c-0.49,0.18-0.99,0.35-1.51,0.54c-0.49,0.17-1,0.34-1.52,0.53c-4.05,1.4-8.64,2.99-13.61,4.72
		c-0.51,0.18-1.02,0.35-1.53,0.54c-0.5,0.17-1.01,0.34-1.52,0.53c-3.3,1.14-6.76,2.33-10.34,3.57c-0.95,0.33-1.91,0.66-2.88,0.99
		c-0.89,0.31-1.77,0.61-2.67,0.93c-0.59,0.2-1.17,0.4-1.77,0.62h-0.03c-7.35,2.52-15.06,5.16-22.86,7.82
		c-6.91,2.35-13.89,4.72-20.76,7.02c-0.84,0.28-1.68,0.57-2.52,0.84c-4.36,1.46-8.65,2.89-12.83,4.29
		c-0.52,0.17-1.03,0.33-1.54,0.51c-0.51,0.17-1.02,0.33-1.53,0.5c-4.76,1.57-9.35,3.08-13.7,4.49c-0.52,0.17-1.03,0.33-1.53,0.49
		c-0.15,0.05-0.29,0.09-0.44,0.14c-0.37,0.12-0.73,0.23-1.09,0.35c-1.56,0.5-3.09,0.99-4.58,1.47c-0.52,0.16-1.04,0.33-1.55,0.49
		c-0.04,0.01-0.08,0.02-0.11,0.03l-0.88-2.12l-0.37-0.88l-0.51-1.24c0.03-0.02,0.08-0.03,0.12-0.06c0.47-0.24,0.94-0.49,1.43-0.74
		c1.4-0.72,2.83-1.46,4.3-2.22c0.47-0.24,0.94-0.48,1.42-0.74c0.47-0.24,0.94-0.48,1.43-0.73c4.08-2.09,8.39-4.29,12.87-6.55
		c0.48-0.24,0.96-0.48,1.45-0.74c0.48-0.23,0.96-0.48,1.45-0.73c3.22-1.62,6.5-3.27,9.85-4.94c1.12-0.56,2.24-1.12,3.37-1.69
		c0.8-0.4,1.61-0.8,2.42-1.2c0.32-0.16,0.63-0.32,0.94-0.47c0-0.01,0.01-0.01,0.01-0.01c7.58-3.78,15.32-7.61,22.91-11.34
		c4.9-2.42,9.73-4.8,14.43-7.11c1.2-0.59,2.4-1.18,3.58-1.76c0.03-0.02,0.08-0.03,0.11-0.05c0.8-0.39,1.6-0.79,2.39-1.18
		c4.31-2.11,8.48-4.15,12.41-6.06c0.49-0.24,0.98-0.48,1.45-0.71h0.01c0.49-0.24,0.97-0.48,1.45-0.71c4.74-2.32,9.1-4.44,12.97-6.32
		c0.48-0.23,0.97-0.47,1.44-0.7c0.49-0.23,0.97-0.47,1.45-0.7c1.55-0.74,2.99-1.45,4.33-2.1c0.05-0.03,0.09-0.04,0.13-0.07
		c0.45-0.22,0.91-0.41,1.38-0.56c0.53-0.18,1.06-0.31,1.61-0.41c0.64-0.11,1.29-0.17,1.94-0.17c0.4,0,0.82,0.03,1.23,0.08h0.04
		c0.93,0.1,1.85,0.33,2.75,0.67c0.89,0.33,1.71,0.77,2.47,1.3c1.75,1.21,3.12,2.91,3.96,4.93
		C247.72,63.25,247.68,66.42,246.39,69.29z"/>
	<path class="st30" d="M246.39,69.29c-0.84,1.86-2.11,3.41-3.7,4.56c-0.45,0.32-0.93,0.61-1.43,0.87c-0.47,0.24-0.95,0.45-1.46,0.63
		c-0.01,0-0.02,0.01-0.03,0.01c-1.4,0.49-2.92,1.02-4.54,1.58c-0.49,0.18-0.99,0.35-1.51,0.54c-0.49,0.17-1,0.34-1.52,0.53
		c-4.05,1.4-8.64,2.99-13.61,4.72c-0.51,0.18-1.02,0.35-1.53,0.54c-0.5,0.17-1.01,0.34-1.52,0.53c-3.3,1.14-6.76,2.33-10.34,3.57
		c-0.95,0.33-1.91,0.66-2.88,0.99c-0.89,0.31-1.77,0.61-2.67,0.93c-0.59,0.2-1.17,0.4-1.77,0.62h-0.03
		c-7.35,2.52-15.06,5.16-22.86,7.82c-6.91,2.35-13.89,4.72-20.76,7.02c-0.84,0.28-1.68,0.57-2.52,0.84
		c-4.36,1.46-8.65,2.89-12.83,4.29c-0.52,0.17-1.03,0.33-1.54,0.51c-0.51,0.17-1.02,0.33-1.53,0.5c-4.76,1.57-9.35,3.08-13.7,4.49
		c-0.52,0.17-1.03,0.33-1.53,0.49c-0.15,0.05-0.29,0.09-0.44,0.14c-0.37,0.12-0.73,0.23-1.09,0.35c-1.56,0.5-3.09,0.99-4.58,1.47
		c-0.52,0.16-1.04,0.33-1.55,0.49c-0.04,0.01-0.08,0.02-0.11,0.03l-0.88-2.12l-0.37-0.88l-0.51-1.24c0.03-0.02,0.08-0.03,0.12-0.06
		c0.47-0.24,0.94-0.49,1.43-0.74c1.4-0.72,2.83-1.46,4.3-2.22c0.47-0.24,0.94-0.48,1.42-0.74c0.47-0.24,0.94-0.48,1.43-0.73
		c4.08-2.09,8.39-4.29,12.87-6.55c0.48-0.24,0.96-0.48,1.45-0.74c0.48-0.23,0.96-0.48,1.45-0.73c3.22-1.62,6.5-3.27,9.85-4.94
		c1.12-0.56,2.24-1.12,3.37-1.69c0.8-0.4,1.61-0.8,2.42-1.2c0.32-0.16,0.63-0.32,0.94-0.47c0-0.01,0.01-0.01,0.01-0.01
		c7.58-3.78,15.32-7.61,22.91-11.34c4.9-2.42,9.73-4.8,14.43-7.11c1.2-0.59,2.4-1.18,3.58-1.76c0.01,0.01,0.02,0.03,0.03,0.03
		l0.08-0.08c0.8-0.39,1.6-0.79,2.39-1.18c4.31-2.11,8.48-4.15,12.41-6.06c0.49-0.24,0.98-0.48,1.45-0.71h0.01
		c0.49-0.24,0.97-0.48,1.45-0.71c4.74-2.32,9.1-4.44,12.97-6.32c0.48-0.23,0.97-0.47,1.44-0.7c0.49-0.23,0.97-0.47,1.45-0.7
		c1.55-0.74,2.99-1.45,4.33-2.1c0.05-0.03,0.09-0.04,0.13-0.07c0.45-0.22,0.91-0.41,1.38-0.56c0.53-0.18,1.06-0.31,1.61-0.41
		c0.64-0.11,1.29-0.17,1.94-0.17c0.4,0,0.82,0.03,1.23,0.08h0.04c0.93,0.1,1.85,0.33,2.75,0.67c0.89,0.33,1.71,0.77,2.47,1.3
		c1.75,1.21,3.12,2.91,3.96,4.93C247.72,63.25,247.68,66.42,246.39,69.29z M111.63,123.81l-0.92-2.21l-0.84-2.03l-0.01-0.01
		l-0.85-2.06l-0.03-0.06l-0.89-2.12v-0.01l-0.84-2.02l-0.92-2.21c-0.31-0.74-1.04-1.2-1.8-1.2c-0.25,0-0.5,0.04-0.74,0.14
		c-0.48,0.2-0.85,0.58-1.05,1.05c-0.2,0.48-0.19,1.01,0,1.49l2.73,6.57v0.01l2.55,6.14c0.42,0.99,1.55,1.46,2.54,1.05
		c0.48-0.2,0.85-0.57,1.05-1.05C111.83,124.82,111.83,124.29,111.63,123.81z"/>
</g>
<g id="Layer_10">
</g>
<g id="Layer_9">
</g>
<g id="Layer_2">
</g>
<g id="Layer_3">
</g>
<g id="Layer_4">
</g>
<g id="Layer_5">
</g>
<g id="Layer_6">
</g>
<g id="Layer_7">
</g>
</svg>
