<?xml version="1.0" encoding="utf-8"?>
<!-- Generator: Adobe Illustrator 27.8.1, SVG Export Plug-In . SVG Version: 6.00 Build 0)  -->
<svg version="1.1" xmlns="http://www.w3.org/2000/svg" xmlns:xlink="http://www.w3.org/1999/xlink" x="0px" y="0px"
	 viewBox="0 0 350 230" style="enable-background:new 0 0 350 230;" xml:space="preserve">
<style type="text/css">
	.st0{fill:#FF9D00;}
	.st1{fill:url(#SVGID_1_);}
	.st2{opacity:0.22;fill:url(#SVGID_00000070809698462376127400000013254629082354540733_);}
	.st3{fill:#FFC200;}
	.st4{fill:#778718;}
	.st5{fill:#E0B017;}
	.st6{fill:#664407;}
	.st7{fill:#9E690A;}
	.st8{fill:#7F1105;}
	.st9{fill:#191933;}
	.st10{fill:#FCEBD4;}
	.st11{fill:#E3DFD6;}
	.st12{fill:#FFB000;}
	.st13{fill:#AA210E;}
	.st14{fill:#FFF0A6;}
	.st15{fill:#FFDA00;}
	.st16{fill:#F4F4F4;}
	.st17{fill:#DC5C28;}
	.st18{fill:#FF8440;}
	.st19{fill:#C45224;}
	.st20{fill:#2C4369;}
	.st21{fill:#2A72DB;}
	.st22{fill:#C65500;}
	.st23{fill:#C15746;}
	.st24{fill:#FF8C00;}
	.st25{fill:#FFEA2C;}
	.st26{fill:#F7FF57;}
	.st27{fill:#FFFFFF;}
	.st28{fill:#D64949;}
	.st29{fill:#353535;}
	.st30{fill:#FFC783;}
	.st31{fill:#3F7F91;}
	.st32{fill:#25BDE5;}
	.st33{fill:#8CDD00;}
	.st34{fill:#D1FF88;}
	.st35{fill:#333333;}
	.st36{fill:#FF9000;}
	.st37{fill:#A1A813;}
	.st38{fill:#B3C40E;}
	.st39{fill:#CACE72;}
	.st40{fill:url(#SVGID_00000097467608362989825310000003298341368536876928_);}
	.st41{fill:#93E800;}
	.st42{fill:#3CB7D3;}
	.st43{fill:#FF7631;}
	.st44{fill:#E6873C;}
	.st45{fill:#30657F;}
	.st46{fill:#FF7A40;}
	.st47{fill:#FFAD4A;}
	.st48{fill:#BC8E3B;}
	.st49{fill:#E2E2E2;}
	.st50{fill:#F2B844;}
	.st51{fill:#AF3838;}
	.st52{fill:#17B5C1;}
	.st53{fill:#A88643;}
	.st54{fill-rule:evenodd;clip-rule:evenodd;fill:#DD7928;}
	.st55{fill:#E6E7E8;stroke:#CFCFCF;stroke-width:0.1061;}
	.st56{fill-rule:evenodd;clip-rule:evenodd;fill:#204F7A;}
	.st57{fill-rule:evenodd;clip-rule:evenodd;fill:#50A4FF;}
	.st58{fill:#002649;}
</style>
<g id="Layer_1">
</g>
<g id="Layer_12">
</g>
<g id="Layer_13">
</g>
<g id="Layer_14">
</g>
<g id="Layer_15">
</g>
<g id="Layer_11">
</g>
<g id="Layer_8">
</g>
<g id="Layer_10">
</g>
<g id="Layer_9">
	<path class="st33" d="M227.76,110.66c-0.01,0-0.01,0-0.02,0c-0.54,0-1.08-0.02-1.61-0.04c-5.04,23.6-26.06,41.35-51.13,41.35
		c-25.09,0-46.09-17.76-51.13-41.35c-0.53,0.02-1.08,0.04-1.62,0.04c0,0-0.01,0-0.02,0c-0.93,0-1.83-0.03-2.68-0.09
		c5.08,25.96,28.01,45.62,55.45,45.62c27.43,0,50.36-19.66,55.44-45.62C229.59,110.63,228.7,110.66,227.76,110.66z M175,43.19
		c-18.18,0-34.38,8.63-44.71,22.01c1.45,0.35,2.87,0.83,4.23,1.44c9.6-11.73,24.18-19.22,40.48-19.22c16.3,0,30.88,7.5,40.47,19.22
		c1.37-0.61,2.78-1.09,4.23-1.44C209.37,51.81,193.18,43.19,175,43.19z"/>
	<path class="st29" d="M147.32,85.02c-0.02,0.07-0.05,0.12-0.08,0.2l0.05,0.01L147.32,85.02L147.32,85.02z"/>
	<path class="st34" d="M212.93,67.97c-2.08,1.25-3.97,2.83-5.6,4.7c-2.53,2.9-4.31,5.41-5.36,7.03
		c-5.98-8.47-15.84-14.01-26.96-14.01c-11.13,0-20.99,5.54-26.96,14.01c-1.07-1.62-2.85-4.12-5.37-7.02
		c-1.05-1.21-2.22-2.3-3.48-3.25v-0.01c-0.68-0.52-1.39-1-2.12-1.44c9.09-10.84,22.72-17.75,37.94-17.75
		c7.87,0,15.31,1.85,21.92,5.13c0.02,0.01,0.03,0.02,0.05,0.02c0.02,0,0.02,0.01,0.04,0.02C203.15,58.46,208.56,62.76,212.93,67.97z
		 M223.3,110.35c-4.88,22.17-24.69,38.81-48.3,38.81c-19.38,0-36.19-11.2-44.29-27.46c-0.01-0.01-0.01-0.02-0.02-0.03
		c-1.77-3.55-3.13-7.34-4-11.32c0.28-0.03,0.56-0.07,0.83-0.11c5.17-0.83,10.16-2.89,14.92-6.14c2.59,15.63,16.2,27.58,32.55,27.58
		c16.34,0,29.95-11.95,32.54-27.58C212.57,107.52,217.84,109.62,223.3,110.35z M162.72,140.19c0-1.21-0.99-2.2-2.19-2.2
		c-1.21,0-2.2,0.99-2.2,2.2c0,1.21,0.99,2.2,2.2,2.2C161.73,142.39,162.72,141.4,162.72,140.19z M177.2,141.45
		c0-1.21-0.98-2.2-2.19-2.2c-1.21,0-2.2,0.99-2.2,2.2c0,1.21,0.99,2.19,2.2,2.19C176.22,143.64,177.2,142.66,177.2,141.45z
		 M191.68,140.19c0-1.21-0.98-2.2-2.19-2.2c-1.21,0-2.2,0.99-2.2,2.2c0,1.21,0.99,2.2,2.2,2.2
		C190.7,142.39,191.68,141.4,191.68,140.19z"/>
	<path class="st35" d="M162.72,140.19c0,1.21-0.99,2.2-2.19,2.2c-1.21,0-2.2-0.99-2.2-2.2c0-1.21,0.99-2.2,2.2-2.2
		C161.73,137.99,162.72,138.97,162.72,140.19z M189.48,137.99c-1.21,0-2.2,0.99-2.2,2.2c0,1.21,0.99,2.2,2.2,2.2
		c1.21,0,2.19-0.99,2.19-2.2C191.68,138.97,190.7,137.99,189.48,137.99z M268.69,79.31l-0.48,1.22c-1.46,3.66-4.13,6.4-7.72,7.91
		c-1.28,0.53-2.65,0.91-4.07,1.11c1.29,0.59,2.54,1.17,3.73,1.74l1.64,0.79l-1.17,1.38c-3.4,4.03-7.73,6.11-11.94,7.03h0.03
		l-0.99,1.69c-0.18,0.3-3.87,6.36-14.34,8.04C228.39,137.92,204.12,159,175,159c-29.12,0-53.39-21.08-58.38-48.78
		c-10.46-1.67-14.16-7.74-14.33-8.04l-0.99-1.69l0.02-0.01c-4.2-0.91-8.53-2.99-11.94-7.02l-1.17-1.38l1.64-0.79
		c1.2-0.57,2.45-1.16,3.74-1.74c-1.42-0.2-2.8-0.57-4.07-1.11c-3.6-1.51-6.27-4.25-7.72-7.91l-0.49-1.22l1.18-0.57
		c14.47-6.94,27.62-11.13,36.1-13.41c2.83-0.76,5.74-0.98,8.57-0.68c10.8-14.72,28.23-24.28,47.84-24.28
		c19.61,0,37.03,9.57,47.83,24.28c2.84-0.3,5.75-0.08,8.57,0.68c8.48,2.28,21.62,6.47,36.1,13.41L268.69,79.31z M130.29,65.19
		c1.45,0.35,2.87,0.83,4.23,1.44c9.6-11.73,24.18-19.22,40.48-19.22c16.3,0,30.88,7.5,40.47,19.22c1.37-0.61,2.78-1.09,4.23-1.44
		C209.37,51.81,193.18,43.19,175,43.19C156.83,43.19,140.63,51.81,130.29,65.19z M204.73,93.5L204.73,93.5
		c-0.08-0.47-0.17-0.93-0.27-1.39c-0.14-0.6-0.29-1.2-0.46-1.79c-0.04-0.13-0.08-0.27-0.12-0.4c-0.14-0.47-0.3-0.95-0.47-1.41
		c-0.16-0.46-0.34-0.92-0.53-1.37c-0.05-0.12-0.11-0.25-0.16-0.37c-0.6-1.38-1.3-2.72-2.09-3.99c0,0,0-0.01-0.01-0.01
		c-2.45-3.94-5.78-7.27-9.72-9.72c-0.49-0.31-0.99-0.6-1.51-0.89c-1.26-0.69-2.58-1.28-3.94-1.79c-0.01-0.01-0.02-0.01-0.02-0.01
		c-3.12-1.15-6.48-1.81-9.98-1.86c-0.15-0.01-0.31-0.01-0.47-0.01c-0.16,0-0.31,0-0.47,0.01c-5.04,0.08-9.78,1.39-13.94,3.65
		c-0.51,0.28-1.01,0.58-1.51,0.89c-3.94,2.45-7.27,5.78-9.71,9.71v0.01c0,0,0,0.01-0.01,0.01c-0.79,1.28-1.5,2.6-2.09,3.99
		c-0.05,0.12-0.11,0.25-0.16,0.37c-0.18,0.45-0.37,0.91-0.53,1.37c-0.17,0.47-0.33,0.94-0.47,1.41c-0.05,0.13-0.08,0.27-0.12,0.4
		c-0.17,0.59-0.32,1.18-0.46,1.79c-0.1,0.46-0.19,0.92-0.27,1.38c-0.08,0.46-0.15,0.92-0.21,1.39c-0.15,1.25-0.24,2.51-0.24,3.8
		c0,0.61,0.02,1.22,0.05,1.83c0.04,0.57,0.08,1.13,0.15,1.69c0.09,0.81,0.21,1.6,0.37,2.38c0.31,1.56,0.74,3.08,1.28,4.55
		c0.63,1.71,1.42,3.36,2.35,4.91c1.51,2.53,3.36,4.82,5.51,6.81c0.68,0.63,1.39,1.22,2.12,1.79c4.97,3.81,11.16,6.11,17.86,6.21
		c0.16,0.01,0.31,0.01,0.47,0.01c0.15,0,0.31,0,0.47-0.01c6.71-0.1,12.89-2.4,17.86-6.2l0.01-0.01c0.73-0.57,1.44-1.15,2.12-1.78
		l0.01-0.01c3.47-3.21,6.19-7.21,7.85-11.72c0.54-1.47,0.98-2.99,1.28-4.55c0.16-0.79,0.28-1.58,0.37-2.39
		c0.07-0.55,0.11-1.12,0.15-1.68c0.04-0.6,0.05-1.21,0.05-1.83c0-1.28-0.08-2.55-0.24-3.8C204.88,94.42,204.81,93.96,204.73,93.5z
		 M175,131.68c-16.35,0-29.96-11.96-32.55-27.58c-4.76,3.26-9.76,5.32-14.92,6.14c-0.28,0.05-0.56,0.08-0.83,0.11
		c0.87,3.97,2.22,7.76,4,11.32c0.01,0.01,0.01,0.02,0.02,0.03c8.11,16.26,24.92,27.46,44.29,27.46c23.61,0,43.42-16.64,48.3-38.81
		c-5.46-0.73-10.74-2.83-15.76-6.26C204.96,119.73,191.35,131.68,175,131.68z M207.33,72.67c1.63-1.87,3.52-3.45,5.6-4.7
		c-4.37-5.21-9.79-9.51-15.92-12.58c-0.02-0.01-0.02-0.02-0.04-0.02c-0.02-0.01-0.03-0.02-0.05-0.02
		c-6.61-3.29-14.05-5.13-21.92-5.13c-15.22,0-28.85,6.91-37.94,17.75c0.73,0.44,1.44,0.92,2.12,1.44v0.01
		c1.25,0.95,2.42,2.03,3.48,3.25c2.52,2.9,4.3,5.4,5.37,7.02c5.98-8.47,15.83-14.01,26.96-14.01c11.13,0,20.99,5.54,26.96,14.01
		C203.02,78.08,204.8,75.58,207.33,72.67z M94.71,86.85c2.7,0.26,5.59-0.17,8.25-1.28c0.01,0,0.02-0.01,0.02-0.01l7.69-2.96
		c1.32-0.49,2.67-0.97,4.03-1.46c1.36-0.48,2.74-0.96,4.13-1.44c0.12-0.04,0.24-0.08,0.37-0.11c0.26-0.08,0.53-0.17,0.79-0.25
		c0.29-0.08,0.58-0.16,0.87-0.23c0.55-0.14,1.1-0.25,1.66-0.35c0.14-0.02,0.28-0.05,0.42-0.07c0.28-0.05,0.57-0.08,0.85-0.12
		c0.67-0.08,1.34-0.14,2.01-0.16c0.49-0.02,0.98-0.03,1.47-0.02h0.05c0.17,0.01,0.34,0.01,0.51,0.02c0.15,0.01,0.3,0.02,0.44,0.02
		c0.17,0.01,0.34,0.02,0.5,0.04c0.49,0.03,0.99,0.09,1.47,0.16l0.14,0.02c0.21,0.03,0.42,0.06,0.63,0.1
		c0.29,0.05,0.59,0.11,0.88,0.18c0.2,0.04,0.4,0.08,0.6,0.14c0.05,0.01,0.11,0.02,0.16,0.04c0.31,0.08,0.63,0.16,0.95,0.25
		c0.2,0.05,0.4,0.11,0.6,0.18l0.33,0.11c0.14,0.05,0.28,0.09,0.42,0.15c0.14,0.05,0.28,0.1,0.41,0.15c0.21,0.08,0.43,0.16,0.64,0.24
		c0.26,0.11,0.52,0.21,0.78,0.34c0.46,0.2,0.92,0.42,1.38,0.66c0.15,0.08,0.3,0.15,0.44,0.24c0.44,0.24,0.86,0.49,1.29,0.76
		c0.44,0.28,0.87,0.56,1.28,0.83c0.08,0.05,0.15,0.1,0.23,0.15c0.16,0.11,0.32,0.21,0.47,0.31c0.4,0.26,0.79,0.52,1.16,0.77
		c0.47,0.32,0.92,0.63,1.33,0.92c0.14,0.1,0.28,0.19,0.4,0.28c0.22-0.51,0.46-1.01,0.7-1.51c0.28-0.56,0.57-1.09,0.89-1.64V82.3
		c-0.81-1.29-2.75-4.23-5.83-7.78c-0.95-1.08-1.99-2.06-3.12-2.91c-0.67-0.51-1.38-0.99-2.11-1.41c-0.41-0.24-0.83-0.47-1.26-0.67
		c-0.43-0.21-0.86-0.41-1.31-0.59c-1.38-0.57-2.81-1-4.29-1.26c-0.52-0.1-1.05-0.18-1.58-0.23c-0.53-0.05-1.05-0.09-1.59-0.1
		c-1.99-0.06-4,0.16-5.97,0.7c-8.11,2.19-20.58,6.15-34.36,12.64c1.24,2.35,3.16,4.12,5.65,5.16
		C91.88,86.38,93.26,86.72,94.71,86.85z M112.5,97.65c0.79-0.22,1.58-0.45,2.35-0.69l0.46-0.14c0.15-0.05,0.31-0.09,0.46-0.14
		c0.08-0.02,0.15-0.05,0.23-0.08c0.37-0.11,0.73-0.23,1.09-0.34l1.56-0.52l0.92-0.31c0.58-0.2,1.15-0.4,1.7-0.6
		c0.6-0.21,1.18-0.43,1.73-0.63c0.51-0.19,1.01-0.38,1.48-0.57c0.52-0.2,1.02-0.4,1.5-0.59c0.69-0.28,1.32-0.53,1.9-0.78
		c0.03-0.02,0.07-0.03,0.1-0.04c0.24-0.1,0.49-0.19,0.73-0.28c0.21-0.08,0.41-0.15,0.63-0.21c0.01,0,0.02-0.01,0.02-0.01
		c0.08-0.03,0.18-0.06,0.26-0.08c0.27-0.08,0.53-0.15,0.81-0.22c0.23-0.06,0.46-0.11,0.69-0.16c0.08-0.02,0.17-0.04,0.24-0.05
		c0.18-0.04,0.35-0.07,0.53-0.09c0.02-0.01,0.05-0.02,0.08-0.02c0.11-0.02,0.24-0.04,0.35-0.05c0.25-0.04,0.5-0.07,0.75-0.09
		c0.25-0.03,0.5-0.05,0.75-0.06c0.07,0,0.14-0.01,0.21-0.01c0.28-0.02,0.54-0.02,0.82-0.02c0.01,0,0.01,0,0.02,0
		c0.63,0,1.26,0.04,1.89,0.1c0.63,0.07,1.25,0.14,1.85,0.21c0.3,0.04,0.6,0.07,0.89,0.11c0.34,0.05,0.68,0.08,1.02,0.12
		c0.33,0.05,0.65,0.09,0.96,0.13c0.18,0.02,0.35,0.05,0.52,0.07c0.25,0.03,0.49,0.07,0.73,0.1c0.01,0,0.02,0,0.04,0.01
		c0-0.01,0-0.01,0-0.01c0.13-0.61,0.28-1.21,0.44-1.8c0.16-0.6,0.34-1.18,0.53-1.76c0,0,0,0,0-0.01c-0.06-0.04-0.12-0.08-0.18-0.12
		c-0.93-0.66-2.08-1.46-3.38-2.32c-0.18-0.12-0.38-0.25-0.57-0.37c-0.38-0.25-0.78-0.5-1.19-0.76c-0.3-0.19-0.6-0.37-0.9-0.53
		c-0.16-0.1-0.32-0.18-0.48-0.27c-0.34-0.18-0.69-0.36-1.03-0.51c-0.17-0.09-0.34-0.17-0.51-0.24c-0.17-0.08-0.34-0.15-0.51-0.22
		c-0.28-0.11-0.57-0.22-0.85-0.32c-0.22-0.08-0.44-0.16-0.67-0.23c-0.67-0.22-1.35-0.4-2.04-0.55c-0.77-0.17-1.54-0.3-2.32-0.37
		c-0.49-0.05-0.98-0.09-1.47-0.11c-0.5-0.02-1-0.02-1.51,0c-0.13,0-0.26,0.01-0.39,0.02c-0.71,0.03-1.41,0.1-2.12,0.21
		c-0.15,0.02-0.31,0.04-0.46,0.07c-0.39,0.06-0.79,0.15-1.18,0.24c-0.2,0.04-0.39,0.08-0.59,0.14c-0.55,0.14-1.09,0.31-1.64,0.49
		h-0.01c-0.55,0.19-1.09,0.37-1.64,0.57c-2.33,0.81-4.62,1.63-6.85,2.45c-0.52,0.19-1.04,0.39-1.55,0.58
		c-1.94,0.73-3.84,1.47-5.67,2.2c-4.06,1.62-7.82,3.25-11.22,4.83c3.29,3.17,7.33,4.62,11.07,5.1h0.01
		C107.24,98.53,110.35,98.2,112.5,97.65z M119.07,107.7c0.99,0.1,2.05,0.15,3.16,0.15c0.01,0,0.02,0,0.02,0
		c0.37,0,0.74-0.01,1.11-0.02c0.47-0.02,0.94-0.05,1.41-0.08c0.47-0.04,0.93-0.08,1.4-0.15c0.34-0.05,0.67-0.09,1.01-0.15
		c5.16-0.85,10.15-3.03,14.91-6.55c-0.05-0.73-0.08-1.47-0.08-2.21c0-1.42,0.09-2.82,0.27-4.19c-0.22-0.03-0.44-0.06-0.68-0.09
		c-0.34-0.05-0.7-0.09-1.07-0.15c-0.36-0.05-0.73-0.09-1.11-0.14c-0.66-0.08-1.34-0.16-2.05-0.24c-0.31-0.04-0.61-0.07-0.92-0.1
		c-2.54-0.28-5.13,0.1-7.48,1.08c-0.47,0.2-0.99,0.41-1.54,0.63c-0.56,0.23-1.15,0.46-1.77,0.7c-0.47,0.18-0.95,0.36-1.44,0.55
		c-0.46,0.17-0.94,0.34-1.43,0.52c-0.51,0.19-1.04,0.37-1.58,0.57c-0.34,0.12-0.7,0.24-1.05,0.37c-0.53,0.18-1.08,0.37-1.64,0.55
		c-0.46,0.15-0.92,0.31-1.41,0.45c-0.47,0.15-0.93,0.3-1.41,0.44c-0.8,0.24-1.63,0.48-2.46,0.72c-0.84,0.24-2.02,0.57-3.29,0.92
		c-1.28,0.35-2.67,0.73-3.92,1.04c1.58,1.57,4.72,3.91,10.15,4.97c0.47,0.09,0.95,0.17,1.45,0.24
		C118.09,107.6,118.58,107.66,119.07,107.7z M230.45,110.56c-0.86,0.06-1.75,0.09-2.68,0.09c-0.01,0-0.01,0-0.02,0
		c-0.54,0-1.08-0.02-1.61-0.04c-5.04,23.6-26.06,41.35-51.13,41.35c-25.09,0-46.09-17.76-51.13-41.35
		c-0.53,0.02-1.08,0.04-1.62,0.04c0,0-0.01,0-0.02,0c-0.93,0-1.83-0.03-2.68-0.09c5.08,25.96,28.01,45.62,55.45,45.62
		C202.43,156.19,225.36,136.53,230.45,110.56z M243.99,102.33c-2.49-0.62-5.49-1.47-7.17-1.95c-0.02,0-0.02-0.01-0.04-0.01
		l-1.21-0.35c-0.42-0.12-0.83-0.24-1.25-0.37c-0.01,0-0.02-0.01-0.03-0.01c-0.02-0.01-0.03-0.01-0.04-0.02
		c-0.02-0.01-0.04-0.02-0.06-0.02l-0.01-0.01c-0.06-0.02-0.12-0.04-0.18-0.05c-0.03-0.01-0.05-0.02-0.08-0.02h-0.01
		c-0.01,0-0.02,0-0.03-0.01c-0.04-0.01-0.07-0.02-0.11-0.03l-0.01-0.01c-0.02-0.01-0.03-0.01-0.05-0.02c-0.01,0-0.02-0.01-0.03-0.01
		c-0.02,0-0.04-0.01-0.05-0.02c-0.08-0.02-0.16-0.05-0.24-0.07c-0.01-0.01-0.01-0.01-0.02-0.01c-0.04-0.02-0.08-0.02-0.12-0.04
		l-0.37-0.11c-0.47-0.15-0.95-0.3-1.41-0.46c-0.18-0.05-0.36-0.11-0.54-0.18c-0.37-0.12-0.73-0.24-1.08-0.37l-2.08-0.73
		c-0.19-0.07-0.38-0.14-0.57-0.21c-0.49-0.18-0.97-0.35-1.43-0.52c-0.5-0.19-0.99-0.37-1.45-0.55V96.2
		c-1.24-0.47-2.35-0.92-3.31-1.33c-2.35-0.99-4.94-1.36-7.48-1.08c-0.31,0.03-0.61,0.06-0.92,0.1c-0.7,0.08-1.39,0.16-2.06,0.24
		c-0.37,0.05-0.75,0.09-1.11,0.14c-0.18,0.02-0.35,0.05-0.53,0.07c-0.35,0.05-0.69,0.09-1.01,0.14c-0.07,0.01-0.15,0.02-0.21,0.03
		c0.18,1.37,0.27,2.77,0.27,4.19c0,0.74-0.02,1.48-0.08,2.22c5.07,3.73,10.39,5.98,15.92,6.69c0.47,0.06,0.93,0.11,1.41,0.15
		c0.47,0.05,0.94,0.07,1.41,0.08c0.37,0.02,0.73,0.02,1.1,0.02c0.01,0,0.02,0,0.02,0c1.12,0,2.17-0.05,3.16-0.15
		c0.5-0.04,0.99-0.1,1.45-0.16c0.5-0.07,0.98-0.15,1.44-0.24C239.26,106.25,242.4,103.91,243.99,102.33z M246.16,88.25
		c-0.04-0.02-0.08-0.04-0.12-0.05c-0.02-0.01-0.04-0.02-0.06-0.02c-0.01,0-0.02-0.01-0.02-0.01c-0.44-0.18-0.88-0.35-1.33-0.53
		c-0.45-0.18-0.9-0.36-1.37-0.53c-0.95-0.37-1.91-0.74-2.88-1.1c-0.02-0.01-0.05-0.02-0.07-0.03c-0.49-0.18-0.98-0.37-1.47-0.54
		c-0.26-0.09-0.52-0.19-0.78-0.29c-0.2-0.07-0.4-0.15-0.6-0.21c-0.31-0.11-0.61-0.22-0.92-0.34c-0.64-0.24-1.29-0.47-1.95-0.7
		c-0.34-0.11-0.68-0.24-1.02-0.36c-0.23-0.08-0.47-0.17-0.7-0.25c-0.31-0.11-0.63-0.22-0.96-0.34c-0.54-0.19-1.08-0.37-1.63-0.57
		h-0.01c-0.54-0.18-1.09-0.34-1.64-0.49c-0.19-0.05-0.39-0.1-0.59-0.14c-0.39-0.09-0.78-0.17-1.18-0.24
		c-0.14-0.02-0.28-0.05-0.41-0.07c-0.02,0-0.05-0.01-0.07-0.01c-0.46-0.07-0.92-0.12-1.39-0.16c-0.21-0.02-0.44-0.03-0.65-0.05
		h-0.05c-0.13-0.01-0.26-0.01-0.39-0.02c-0.5-0.02-1.01-0.02-1.51,0c-0.5,0.02-0.99,0.05-1.47,0.11c-0.21,0.02-0.4,0.05-0.61,0.08
		c-0.2,0.02-0.4,0.05-0.6,0.09c-0.21,0.03-0.41,0.06-0.61,0.11c-0.14,0.02-0.28,0.05-0.41,0.08c-0.17,0.03-0.34,0.07-0.5,0.11
		c-0.21,0.05-0.4,0.09-0.61,0.15c-0.31,0.08-0.6,0.17-0.91,0.27c-0.18,0.06-0.37,0.12-0.55,0.18c-0.24,0.08-0.49,0.17-0.73,0.27
		c-0.2,0.08-0.4,0.15-0.6,0.24c-0.52,0.22-1.04,0.47-1.54,0.73c-0.19,0.09-0.37,0.19-0.56,0.3c-0.14,0.08-0.28,0.15-0.42,0.24
		c-0.23,0.13-0.45,0.26-0.67,0.4c-0.61,0.39-1.2,0.76-1.77,1.14c-0.37,0.24-0.73,0.48-1.08,0.72c-0.7,0.47-1.33,0.9-1.89,1.31
		c-0.14,0.1-0.28,0.2-0.41,0.29c-0.06,0.04-0.12,0.08-0.18,0.12c0,0.01,0,0.01,0,0.01c0.19,0.58,0.37,1.16,0.53,1.76
		c0.17,0.6,0.31,1.19,0.44,1.8c0,0,0,0,0,0.01c0.02-0.01,0.03-0.01,0.05-0.01c0.08-0.01,0.15-0.02,0.22-0.03
		c0.33-0.05,0.67-0.09,1.02-0.14c0.31-0.04,0.63-0.08,0.96-0.13c0.34-0.04,0.67-0.08,1.02-0.12c0.29-0.04,0.58-0.07,0.89-0.11
		c0.6-0.07,1.22-0.14,1.85-0.21c0.63-0.06,1.26-0.1,1.89-0.1c2.38,0,4.77,0.47,6.98,1.39c0.58,0.24,1.21,0.5,1.89,0.78
		c0.48,0.19,0.98,0.39,1.51,0.59c0.47,0.18,0.97,0.37,1.48,0.57c1.34,0.5,2.8,1.02,4.36,1.54c0.47,0.16,0.96,0.32,1.44,0.48
		c0.47,0.15,0.95,0.31,1.44,0.46c0.53,0.17,1.08,0.33,1.63,0.49c0.55,0.17,1.11,0.33,1.67,0.49c2.13,0.54,5.23,0.87,8.57,0.44
		c3.75-0.49,7.79-1.93,11.09-5.1C253.86,91.45,250.15,89.84,246.16,88.25z M265.04,80.69c-13.78-6.49-26.24-10.45-34.36-12.64
		c-1.97-0.53-3.98-0.76-5.98-0.7c-0.53,0.01-1.05,0.05-1.58,0.1c-0.53,0.05-1.06,0.13-1.58,0.23c-1.47,0.26-2.91,0.69-4.29,1.25
		c-0.44,0.18-0.87,0.37-1.3,0.6c-0.43,0.21-0.86,0.43-1.27,0.67c-1.94,1.13-3.71,2.57-5.23,4.32c-3.09,3.55-5.03,6.5-5.82,7.79
		c0.31,0.53,0.6,1.08,0.88,1.64c0.24,0.5,0.48,0.99,0.7,1.51c0.95-0.66,2.09-1.44,3.38-2.28c0.48-0.32,0.99-0.65,1.51-0.98
		c0.27-0.17,0.53-0.33,0.8-0.48c0.22-0.13,0.45-0.26,0.68-0.38c0.28-0.15,0.57-0.3,0.85-0.44c0.24-0.11,0.47-0.23,0.72-0.34
		c0.19-0.08,0.39-0.17,0.58-0.25c0.02-0.01,0.05-0.02,0.07-0.02c0.17-0.08,0.34-0.15,0.5-0.21c0.32-0.13,0.65-0.25,0.98-0.36
		c0.05-0.02,0.09-0.04,0.14-0.05c0.3-0.1,0.6-0.19,0.91-0.28c0.31-0.09,0.62-0.18,0.93-0.25c0.56-0.14,1.12-0.26,1.68-0.36
		c0.27-0.05,0.53-0.09,0.8-0.13c0.49-0.07,0.99-0.13,1.48-0.16c0.01,0,0.01,0,0.02,0c0.15-0.02,0.31-0.03,0.47-0.04h0.05
		c0.13-0.01,0.26-0.02,0.4-0.02c0.18-0.01,0.36-0.02,0.54-0.02h0.05c0.49-0.02,0.97-0.01,1.46,0.02c0.67,0.02,1.34,0.08,2.01,0.16
		c0.28,0.04,0.57,0.08,0.85,0.12c0.14,0.02,0.28,0.05,0.42,0.07c0.56,0.1,1.11,0.21,1.66,0.35c0.29,0.07,0.58,0.15,0.87,0.23
		c0.27,0.08,0.53,0.17,0.79,0.25c0.12,0.03,0.24,0.08,0.37,0.11c5.58,1.9,10.91,3.87,15.85,5.85c2.67,1.12,5.57,1.55,8.28,1.29
		c1.44-0.14,2.83-0.47,4.1-1.01C261.87,84.81,263.81,83.03,265.04,80.69z M175,139.25c-1.21,0-2.2,0.99-2.2,2.2
		c0,1.21,0.99,2.19,2.2,2.19c1.21,0,2.19-0.98,2.19-2.19C177.2,140.23,176.22,139.25,175,139.25z"/>
	<path class="st36" d="M167.42,78.14c-7.03,1.71-13.17,5.77-17.21,11.58c-1.17,1.68-2.13,3.45-2.88,5.3v0.01l-0.01,0.01
		c-0.02,0.07-0.05,0.12-0.08,0.2c-0.32,0.81-0.6,1.64-0.84,2.48c-0.38,1.33-0.66,2.68-0.82,4.05c-0.11,0.94-0.18,1.89-0.18,2.83
		c-0.16-0.78-0.28-1.57-0.37-2.38c-0.07-0.56-0.11-1.12-0.15-1.69c-0.04-0.6-0.05-1.21-0.05-1.83c0-1.28,0.08-2.55,0.24-3.8
		c0.06-0.47,0.13-0.93,0.21-1.39c0.08-0.47,0.17-0.92,0.27-1.38c0.14-0.6,0.29-1.2,0.46-1.79c0.04-0.13,0.08-0.27,0.12-0.4
		c0.14-0.47,0.3-0.95,0.47-1.41c0.16-0.46,0.34-0.92,0.53-1.37c0.03,0.02,0.06,0.04,0.08,0.06l0.08-0.44
		c0.6-1.39,1.3-2.71,2.09-3.99c0.01,0,0.01-0.01,0.01-0.01v-0.01c2.45-3.94,5.78-7.27,9.71-9.71c0.99-0.05,2.21,0,3.42,0.34
		C164.51,73.94,166.49,75.26,167.42,78.14z M167.67,79.04c-6.82,1.65-12.78,5.59-16.69,11.21c-2.86,4.1-4.42,8.76-4.62,13.57
		c-0.08,1.77,0.03,3.54,0.33,5.31c0.63,1.71,1.42,3.36,2.35,4.91c1.51,2.53,3.36,4.82,5.51,6.81c-2.93-6.13-2.54-14.34,0.43-20.07
		c1.66-3.22,4.08-6.03,6.41-8.76C165.26,87.5,168.62,83.58,167.67,79.04z M160.59,72.17c0.96,0.07,2.01,0.25,3.03,0.63
		c1.96,0.75,3.82,2.25,4.73,5.12c2-0.42,4.07-0.66,6.18-0.68v-8.73C169.49,68.59,164.75,69.91,160.59,72.17z M168.59,78.83
		c1.05,5-2.62,9.28-6.49,13.8c-2.31,2.68-4.68,5.46-6.3,8.58c-3.22,6.22-3.3,15.5,0.86,21.43c4.97,3.81,11.16,6.11,17.86,6.21V78.17
		C172.51,78.2,170.52,78.43,168.59,78.83z M204.94,94.89c-0.06-0.47-0.13-0.92-0.21-1.38c-0.02-0.01-0.03,0-0.05,0
		c0.02-0.01,0.03-0.01,0.05-0.01c-0.08-0.47-0.17-0.92-0.27-1.38c-0.14-0.6-0.29-1.2-0.46-1.79c-0.04-0.13-0.08-0.27-0.12-0.4
		c-0.14-0.47-0.3-0.95-0.47-1.41c-0.16-0.46-0.34-0.92-0.53-1.37c-0.05-0.12-0.11-0.25-0.16-0.37c-0.6-1.38-1.3-2.72-2.09-3.99
		c0,0,0-0.01-0.01-0.01c-2.45-3.94-5.78-7.27-9.72-9.72c-2.63-0.13-6.84,0.46-8.34,5.08c7.03,1.71,13.18,5.77,17.22,11.58
		c1.17,1.68,2.13,3.45,2.87,5.3c0.01,0.01,0.01,0.02,0.01,0.02v0.01c0,0.01,0.01,0.01,0.01,0.02c0.03,0.05,0.05,0.11,0.07,0.17
		c0.83,2.1,1.39,4.29,1.66,6.52c0.11,0.94,0.18,1.89,0.18,2.84c0.16-0.79,0.28-1.58,0.37-2.39c0.07-0.55,0.11-1.12,0.15-1.68
		c0.04-0.6,0.05-1.21,0.05-1.83C205.18,97.4,205.09,96.13,204.94,94.89z M185.46,70.38c-0.01-0.01-0.02-0.01-0.02-0.01
		c-3.12-1.15-6.48-1.81-9.98-1.86v8.73c2.11,0.02,4.19,0.26,6.19,0.69c1.37-4.37,4.92-5.55,7.75-5.76
		C188.15,71.48,186.82,70.89,185.46,70.38z M194.21,101.21c-1.62-3.13-4-5.9-6.3-8.58c-3.87-4.52-7.55-8.79-6.49-13.8
		c-1.93-0.4-3.92-0.63-5.94-0.66v50.67c6.71-0.1,12.89-2.4,17.86-6.2l0.01-0.01C197.5,116.71,197.42,107.43,194.21,101.21z
		 M199.03,90.25c-3.92-5.62-9.88-9.56-16.7-11.21c-0.96,4.55,2.41,8.46,6.29,12.98c2.34,2.73,4.75,5.54,6.42,8.76
		c2.96,5.73,3.35,13.94,0.42,20.07c3.47-3.21,6.19-7.21,7.85-11.72C204.4,102.52,202.92,95.85,199.03,90.25z"/>
	<path class="st27" d="M146.37,82.3L146.37,82.3c-0.31,0.55-0.6,1.09-0.89,1.64c-0.24,0.5-0.48,0.99-0.7,1.51
		c-0.13-0.09-0.27-0.18-0.4-0.28c-0.41-0.28-0.86-0.6-1.33-0.92c-0.37-0.25-0.76-0.51-1.16-0.77c-0.15-0.11-0.31-0.21-0.47-0.31
		c-0.08-0.05-0.15-0.1-0.23-0.15c-0.41-0.27-0.84-0.54-1.28-0.83c-0.43-0.27-0.86-0.52-1.29-0.76c-0.15-0.08-0.3-0.16-0.44-0.24
		c-0.45-0.24-0.92-0.47-1.38-0.66c-0.26-0.12-0.52-0.23-0.78-0.34c-0.21-0.08-0.43-0.17-0.64-0.24c-0.14-0.05-0.28-0.11-0.41-0.15
		c-0.14-0.05-0.28-0.1-0.42-0.15l-0.33-0.11c-0.2-0.07-0.4-0.13-0.6-0.18c-0.31-0.09-0.63-0.18-0.95-0.25
		c-0.05-0.02-0.11-0.03-0.16-0.04c-0.2-0.05-0.4-0.1-0.6-0.14c-0.29-0.07-0.59-0.12-0.88-0.18c-0.21-0.04-0.42-0.07-0.63-0.1
		l-0.14-0.02c-0.49-0.07-0.99-0.13-1.47-0.16c-0.17-0.02-0.34-0.03-0.5-0.04c-0.15-0.01-0.29-0.02-0.44-0.02
		c-0.17-0.01-0.34-0.01-0.51-0.02h-0.05c-0.49-0.02-0.98-0.01-1.47,0.02c-0.67,0.02-1.34,0.08-2.01,0.16
		c-0.28,0.04-0.57,0.08-0.85,0.12c-0.14,0.02-0.28,0.05-0.42,0.07c-0.56,0.1-1.11,0.21-1.66,0.35c-0.29,0.07-0.58,0.15-0.87,0.23
		c-0.27,0.08-0.53,0.17-0.79,0.25c-0.12,0.03-0.24,0.08-0.37,0.11c-1.39,0.47-2.77,0.96-4.13,1.44c-1.36,0.48-2.7,0.97-4.03,1.46
		c-2.64,0.98-5.22,1.96-7.69,2.96c-0.01,0-0.02,0.01-0.02,0.01c-2.66,1.12-5.55,1.54-8.25,1.28c-1.44-0.14-2.83-0.47-4.1-1.01
		c-2.48-1.04-4.41-2.81-5.65-5.16c13.78-6.49,26.25-10.45,34.36-12.64c1.97-0.53,3.98-0.76,5.97-0.7c0.53,0.01,1.06,0.05,1.59,0.1
		c0.53,0.05,1.06,0.13,1.58,0.23c1.47,0.26,2.91,0.69,4.29,1.26c0.44,0.18,0.88,0.37,1.31,0.59c0.43,0.21,0.85,0.43,1.26,0.67
		c0.73,0.42,1.44,0.89,2.11,1.41c1.12,0.85,2.17,1.83,3.12,2.91C143.62,78.07,145.56,81.01,146.37,82.3z M143.55,88.02
		c-0.93-0.66-2.08-1.46-3.38-2.32c-0.19-0.12-0.38-0.25-0.57-0.37c-0.38-0.25-0.78-0.5-1.19-0.76c-0.3-0.19-0.6-0.37-0.9-0.53
		c-0.16-0.1-0.32-0.18-0.48-0.27c-0.34-0.18-0.69-0.36-1.03-0.51c-0.17-0.08-0.34-0.16-0.51-0.24c-0.17-0.08-0.34-0.15-0.51-0.22
		c-0.28-0.11-0.57-0.22-0.85-0.32c-0.22-0.08-0.44-0.16-0.67-0.23c-0.67-0.22-1.35-0.4-2.04-0.55c-0.77-0.17-1.54-0.3-2.32-0.37
		c-0.49-0.05-0.98-0.09-1.47-0.11c-0.5-0.02-1-0.02-1.51,0c-0.13,0-0.26,0.01-0.39,0.02c-0.71,0.03-1.41,0.1-2.12,0.21
		c-0.15,0.02-0.31,0.04-0.46,0.07c-0.39,0.06-0.79,0.15-1.18,0.24c-0.2,0.04-0.39,0.08-0.59,0.14c-0.55,0.14-1.09,0.31-1.64,0.49
		h-0.01c-0.55,0.19-1.09,0.37-1.64,0.57c-2.33,0.81-4.62,1.63-6.85,2.45c-0.52,0.19-1.04,0.39-1.55,0.58
		c-1.94,0.73-3.84,1.47-5.67,2.2c-4.06,1.62-7.82,3.25-11.22,4.83c3.29,3.17,7.33,4.62,11.07,5.1h0.01c3.35,0.43,6.46,0.1,8.61-0.45
		c0.79-0.23,1.58-0.46,2.35-0.69l0.46-0.14c0.15-0.05,0.31-0.1,0.46-0.15c0.08-0.02,0.15-0.05,0.23-0.07
		c0.37-0.11,0.73-0.23,1.09-0.34l1.56-0.52l0.92-0.31c0.58-0.2,1.15-0.4,1.7-0.6c0.6-0.21,1.18-0.43,1.73-0.63
		c0.51-0.19,1.01-0.38,1.48-0.57c0.52-0.2,1.02-0.4,1.5-0.59c0.69-0.28,1.32-0.53,1.9-0.78c0.03-0.02,0.07-0.03,0.1-0.04
		c0.24-0.1,0.49-0.19,0.73-0.28c0.21-0.08,0.41-0.15,0.63-0.21c0.01,0,0.02-0.01,0.02-0.01c0.08-0.03,0.18-0.06,0.26-0.08
		c0.27-0.08,0.53-0.15,0.81-0.22c0.23-0.06,0.46-0.11,0.69-0.16c0.08-0.02,0.17-0.04,0.24-0.05c0.18-0.04,0.35-0.07,0.53-0.09
		c0.02-0.01,0.05-0.02,0.08-0.02c0.11-0.02,0.24-0.04,0.35-0.05c0.25-0.04,0.5-0.07,0.75-0.09c0.25-0.03,0.5-0.05,0.75-0.06
		c0.07,0,0.14-0.01,0.21-0.01c0.28-0.02,0.54-0.02,0.82-0.02c0.01,0,0.01,0,0.02,0c0.63,0,1.26,0.03,1.89,0.1
		c0.63,0.07,1.25,0.14,1.85,0.21c0.3,0.04,0.6,0.07,0.89,0.11c0.34,0.05,0.68,0.08,1.02,0.12c0.33,0.05,0.65,0.09,0.96,0.13
		c0.18,0.02,0.35,0.05,0.52,0.07c0.25,0.03,0.49,0.07,0.73,0.1h0.04c0.13-0.61,0.28-1.21,0.44-1.8c0.16-0.6,0.34-1.18,0.53-1.76
		C143.67,88.11,143.61,88.07,143.55,88.02z M142.28,94.5c-0.22-0.03-0.44-0.06-0.68-0.09c-0.34-0.05-0.7-0.09-1.07-0.15
		c-0.36-0.05-0.73-0.09-1.11-0.14c-0.66-0.08-1.34-0.16-2.05-0.24c-0.31-0.04-0.61-0.07-0.92-0.1c-2.54-0.28-5.13,0.1-7.48,1.08
		c-0.47,0.2-0.99,0.41-1.54,0.63c-0.56,0.23-1.15,0.46-1.77,0.7c-0.47,0.18-0.95,0.36-1.44,0.55c-0.46,0.17-0.94,0.34-1.43,0.52
		c-0.51,0.19-1.04,0.37-1.58,0.57c-0.34,0.12-0.7,0.24-1.05,0.37c-0.53,0.18-1.08,0.37-1.64,0.55c-0.46,0.15-0.92,0.31-1.41,0.45
		c-0.47,0.15-0.93,0.3-1.41,0.44c-0.8,0.24-1.63,0.48-2.46,0.72c-0.84,0.24-2.02,0.57-3.29,0.92c-1.28,0.35-2.67,0.73-3.92,1.04
		c1.58,1.57,4.72,3.91,10.15,4.97c0.47,0.09,0.95,0.17,1.45,0.24c0.47,0.06,0.96,0.12,1.45,0.16c0.99,0.1,2.05,0.15,3.16,0.15
		c0.01,0,0.02,0,0.02,0c0.37,0,0.74-0.01,1.11-0.02c0.47-0.02,0.94-0.05,1.41-0.08c0.47-0.04,0.93-0.08,1.4-0.15
		c0.34-0.05,0.67-0.09,1.01-0.15c5.16-0.85,10.15-3.03,14.91-6.55c-0.05-0.73-0.08-1.47-0.08-2.21
		C142.01,97.26,142.1,95.86,142.28,94.5z M236.81,100.38c-0.02,0-0.02-0.01-0.04-0.01l-1.21-0.35c-0.42-0.12-0.83-0.24-1.25-0.37
		c-0.05-0.02-0.08-0.02-0.13-0.05c-0.06-0.01-0.12-0.03-0.18-0.05c-0.03-0.01-0.05-0.02-0.08-0.03h-0.01c-0.01,0-0.02,0-0.03-0.01
		c-0.04-0.01-0.07-0.02-0.11-0.03l-0.01-0.01c-0.02-0.01-0.03-0.01-0.05-0.02c-0.01,0-0.02-0.01-0.03-0.01
		c-0.02,0-0.04-0.01-0.05-0.02c-0.08-0.02-0.16-0.05-0.24-0.07c-0.01-0.01-0.01-0.01-0.02-0.01c-0.04-0.02-0.08-0.02-0.12-0.04
		l-0.37-0.11c-0.47-0.15-0.95-0.3-1.41-0.45c-0.18-0.06-0.36-0.12-0.54-0.18c-0.37-0.12-0.73-0.24-1.08-0.37l-2.08-0.73
		c-0.19-0.07-0.38-0.14-0.57-0.21c-0.49-0.18-0.97-0.35-1.43-0.52c-0.5-0.19-0.99-0.37-1.45-0.55V96.2
		c-1.24-0.47-2.35-0.92-3.31-1.33c-2.35-0.99-4.94-1.36-7.48-1.08c-0.31,0.03-0.61,0.06-0.92,0.1c-0.7,0.08-1.39,0.16-2.06,0.24
		c-0.37,0.05-0.75,0.09-1.11,0.14c-0.18,0.02-0.35,0.05-0.53,0.07c-0.35,0.05-0.69,0.09-1.01,0.14c-0.07,0.01-0.15,0.02-0.21,0.03
		c0.18,1.37,0.27,2.77,0.27,4.19c0,0.74-0.02,1.48-0.08,2.22c5.07,3.73,10.39,5.98,15.92,6.69c0.47,0.06,0.93,0.11,1.41,0.15
		c0.47,0.05,0.94,0.07,1.41,0.08c0.37,0.02,0.73,0.02,1.1,0.02c0.01,0,0.02,0,0.02,0c1.12,0,2.17-0.05,3.16-0.15
		c0.5-0.04,0.99-0.1,1.45-0.16c0.5-0.07,0.98-0.15,1.44-0.24c5.44-1.05,8.58-3.38,10.16-4.97
		C241.49,101.71,238.49,100.86,236.81,100.38z M230.68,68.05c-1.97-0.53-3.98-0.76-5.98-0.7c-0.53,0.01-1.05,0.05-1.58,0.1
		c-0.53,0.05-1.06,0.13-1.58,0.23c-1.47,0.26-2.91,0.69-4.29,1.25c-0.44,0.18-0.87,0.37-1.3,0.6c-0.43,0.21-0.86,0.43-1.27,0.67
		c-1.94,1.13-3.71,2.57-5.23,4.32c-3.09,3.55-5.03,6.5-5.82,7.79c0.31,0.53,0.6,1.08,0.88,1.64c0.24,0.5,0.48,0.99,0.7,1.51
		c0.95-0.66,2.09-1.44,3.38-2.28c0.48-0.32,0.99-0.65,1.51-0.98c0.27-0.17,0.53-0.33,0.8-0.48c0.22-0.13,0.45-0.26,0.68-0.38
		c0.28-0.15,0.57-0.3,0.85-0.44c0.24-0.11,0.47-0.23,0.72-0.34c0.19-0.08,0.39-0.17,0.58-0.25c0.02-0.01,0.05-0.02,0.07-0.02
		c0.17-0.08,0.34-0.15,0.5-0.21c0.32-0.13,0.65-0.25,0.98-0.36c0.05-0.02,0.09-0.04,0.14-0.05c0.3-0.1,0.6-0.19,0.91-0.28
		c0.31-0.09,0.62-0.18,0.93-0.25c0.56-0.14,1.12-0.26,1.68-0.36c0.27-0.05,0.53-0.09,0.8-0.13c0.49-0.07,0.99-0.13,1.48-0.16
		c0.01,0,0.01,0,0.02,0c0.15-0.02,0.31-0.03,0.47-0.04h0.05c0.13-0.01,0.26-0.02,0.4-0.02c0.18-0.01,0.36-0.02,0.54-0.02h0.05
		c0.49-0.02,0.97-0.01,1.46,0.02c0.67,0.02,1.34,0.08,2.01,0.16c0.28,0.04,0.57,0.08,0.85,0.12c0.14,0.02,0.28,0.05,0.42,0.07
		c0.56,0.1,1.11,0.21,1.66,0.35c0.29,0.07,0.58,0.15,0.87,0.23c0.27,0.08,0.53,0.17,0.79,0.25c0.12,0.03,0.24,0.08,0.37,0.11
		c5.58,1.9,10.91,3.87,15.85,5.85c2.67,1.12,5.57,1.55,8.28,1.29c1.44-0.14,2.83-0.47,4.1-1.01c2.48-1.04,4.41-2.81,5.64-5.16
		C251.25,74.2,238.8,70.24,230.68,68.05z M246.16,88.25c-0.04-0.02-0.08-0.04-0.12-0.05c-0.02-0.01-0.04-0.02-0.06-0.02
		c-0.01,0-0.02-0.01-0.02-0.01c-0.44-0.18-0.88-0.35-1.33-0.53c-0.45-0.18-0.9-0.36-1.37-0.53c-0.95-0.37-1.91-0.74-2.88-1.1
		c-0.02-0.01-0.05-0.02-0.07-0.03c-0.49-0.18-0.98-0.37-1.47-0.54c-0.26-0.09-0.52-0.19-0.78-0.29c-0.2-0.07-0.4-0.15-0.6-0.21
		c-0.31-0.11-0.61-0.22-0.92-0.34c-0.63-0.23-1.28-0.46-1.95-0.7c-0.34-0.11-0.68-0.24-1.02-0.36c-0.23-0.08-0.47-0.17-0.7-0.25
		c-0.31-0.11-0.63-0.22-0.96-0.34c-0.54-0.19-1.08-0.37-1.63-0.57h-0.01c-0.54-0.18-1.09-0.34-1.64-0.49
		c-0.19-0.05-0.39-0.1-0.59-0.14c-0.39-0.09-0.78-0.17-1.18-0.24c-0.14-0.02-0.28-0.05-0.41-0.07c-0.02,0-0.05-0.01-0.07-0.01
		c-0.46-0.07-0.92-0.12-1.39-0.16c-0.21-0.02-0.44-0.03-0.65-0.05h-0.05c-0.13-0.01-0.26-0.01-0.39-0.02c-0.5-0.02-1.01-0.02-1.51,0
		c-0.5,0.02-0.99,0.05-1.47,0.11c-0.21,0.02-0.4,0.05-0.61,0.08c-0.2,0.02-0.4,0.05-0.6,0.09c-0.21,0.03-0.4,0.07-0.61,0.11
		c-0.14,0.02-0.28,0.05-0.41,0.08c-0.17,0.03-0.34,0.07-0.5,0.11c-0.21,0.05-0.4,0.1-0.61,0.15c-0.31,0.08-0.6,0.17-0.91,0.27
		c-0.18,0.06-0.37,0.12-0.55,0.18c-0.24,0.08-0.49,0.18-0.73,0.27c-0.2,0.08-0.4,0.15-0.6,0.24c-0.52,0.22-1.04,0.47-1.54,0.73
		c-0.19,0.09-0.37,0.19-0.56,0.3c-0.14,0.08-0.28,0.15-0.42,0.24c-0.23,0.13-0.45,0.26-0.67,0.4c-0.61,0.39-1.2,0.76-1.77,1.14
		c-0.37,0.24-0.73,0.48-1.08,0.72c-0.7,0.47-1.33,0.9-1.89,1.31c-0.14,0.1-0.28,0.2-0.41,0.29c-0.06,0.05-0.12,0.09-0.18,0.13
		c0.19,0.58,0.37,1.16,0.53,1.76c0.17,0.6,0.31,1.19,0.44,1.8h0.05c0.08-0.01,0.15-0.02,0.22-0.03c0.33-0.05,0.67-0.09,1.02-0.14
		c0.31-0.04,0.63-0.08,0.96-0.13c0.34-0.04,0.67-0.08,1.02-0.12c0.29-0.04,0.58-0.07,0.89-0.11c0.6-0.07,1.22-0.14,1.85-0.21
		c0.63-0.07,1.25-0.1,1.89-0.1c2.38,0,4.77,0.47,6.98,1.39c0.58,0.24,1.21,0.5,1.89,0.78c0.48,0.19,0.98,0.39,1.51,0.59
		c0.47,0.18,0.97,0.37,1.48,0.57c1.34,0.5,2.8,1.02,4.36,1.54c0.47,0.16,0.96,0.32,1.44,0.48c0.47,0.15,0.95,0.31,1.44,0.46
		c0.53,0.17,1.08,0.33,1.63,0.49c0.55,0.17,1.11,0.33,1.67,0.49c2.13,0.54,5.23,0.87,8.57,0.44c3.75-0.49,7.79-1.93,11.09-5.1
		C253.86,91.45,250.15,89.84,246.16,88.25z M204.6,104.58c-0.01-0.96-0.07-1.9-0.18-2.84c-0.27-2.22-0.83-4.42-1.66-6.52l-0.04,0.01
		h-0.01l-0.03-0.19v-0.01c0-0.01,0-0.02-0.01-0.02c-0.74-1.84-1.7-3.61-2.87-5.3c-4.04-5.81-10.19-9.86-17.22-11.58
		c1.5-4.62,5.71-5.21,8.34-5.08c-0.49-0.31-0.99-0.6-1.51-0.89c-2.83,0.21-6.38,1.39-7.75,5.76c-2-0.43-4.08-0.66-6.19-0.69v-8.73
		c-0.15-0.01-0.31-0.01-0.47-0.01c-0.16,0-0.31,0-0.47,0.01v8.73c-2.11,0.02-4.18,0.26-6.18,0.68c-0.91-2.87-2.77-4.37-4.73-5.12
		c-1.02-0.38-2.06-0.57-3.03-0.63c-0.51,0.28-1.01,0.58-1.51,0.89c0.99-0.05,2.21,0,3.42,0.34c2,0.55,3.98,1.86,4.91,4.75
		c-7.03,1.71-13.17,5.77-17.21,11.58c-1.17,1.68-2.13,3.45-2.88,5.3v0.01l-0.04,0.21l-0.05-0.01c-0.32,0.81-0.6,1.64-0.84,2.48
		c-0.38,1.33-0.66,2.68-0.82,4.05c-0.11,0.94-0.18,1.89-0.18,2.83c0.31,1.56,0.74,3.08,1.28,4.55c-0.3-1.77-0.4-3.55-0.33-5.31
		c0.21-4.81,1.77-9.47,4.62-13.57c3.91-5.62,9.87-9.56,16.69-11.21c0.96,4.55-2.41,8.46-6.29,12.98c-2.33,2.73-4.75,5.54-6.41,8.76
		c-2.96,5.73-3.36,13.94-0.43,20.07c0.68,0.63,1.39,1.22,2.12,1.79c-4.16-5.93-4.09-15.21-0.86-21.43c1.61-3.13,3.99-5.9,6.3-8.58
		c3.87-4.52,7.55-8.79,6.49-13.8c1.93-0.4,3.91-0.63,5.94-0.66v50.67c0.16,0.01,0.31,0.01,0.47,0.01c0.15,0,0.31,0,0.47-0.01V78.17
		c2.02,0.02,4.02,0.25,5.94,0.66c-1.05,5,2.62,9.28,6.49,13.8c2.3,2.68,4.68,5.46,6.3,8.58c3.22,6.22,3.29,15.5-0.87,21.43
		c0.73-0.57,1.44-1.15,2.12-1.78l0.01-0.01c2.93-6.14,2.54-14.34-0.42-20.07c-1.67-3.22-4.08-6.03-6.42-8.76
		c-3.87-4.52-7.24-8.44-6.29-12.98c6.82,1.65,12.78,5.59,16.7,11.21c3.9,5.6,5.37,12.27,4.29,18.88
		C203.86,107.66,204.29,106.14,204.6,104.58z M147.32,95.02c-0.02,0.07-0.05,0.12-0.08,0.2l0.05,0.01L147.32,95.02L147.32,95.02z
		 M202.69,95.05c0-0.01-0.01-0.01-0.01-0.02l0.03,0.19h0.01l0.04-0.01C202.73,95.17,202.72,95.11,202.69,95.05z"/>
</g>
<g id="Layer_2">
</g>
<g id="Layer_3">
</g>
<g id="Layer_4">
</g>
<g id="Layer_5">
</g>
<g id="Layer_6">
</g>
<g id="Layer_7">
</g>
</svg>
