<?xml version="1.0" encoding="utf-8"?>
<!-- Generator: Adobe Illustrator 27.8.1, SVG Export Plug-In . SVG Version: 6.00 Build 0)  -->
<svg version="1.1" xmlns="http://www.w3.org/2000/svg" xmlns:xlink="http://www.w3.org/1999/xlink" x="0px" y="0px"
	 viewBox="0 0 350 230" style="enable-background:new 0 0 350 230;" xml:space="preserve">
<style type="text/css">
	.st0{fill:#001C77;}
	.st1{fill:#077275;}
	.st2{fill:#001A5A;}
	.st3{fill:#00FF30;}
	.st4{fill:#809FA0;}
	.st5{fill:#003738;}
	.st6{fill:#D900FF;}
	.st7{fill:#85DD98;}
	.st8{fill:#00DB29;}
	.st9{fill:#48ED67;}
	.st10{fill:#00F9FF;}
	.st11{fill:#009599;}
	.st12{fill:#17CC3A;}
	.st13{fill:#003A0B;}
	.st14{fill:#B2FF61;}
	.st15{fill:#D37F07;}
	.st16{fill:#00E22B;}
	.st17{fill:#004947;}
	.st18{fill:#7600FF;}
	.st19{fill:#603400;}
	.st20{fill:#D67A00;}
	.st21{fill:#026854;}
	.st22{fill:#B76400;}
	.st23{fill:#4F2D05;}
	.st24{fill:#38FF00;}
	.st25{fill:#750009;}
	.st26{fill:#A8AC00;}
	.st27{fill:#E473FF;}
</style>
<g id="Layer_1">
</g>
<g id="Layer_2">
</g>
<g id="Layer_3">
</g>
<g id="Layer_4">
</g>
<g id="Layer_5">
</g>
<g id="Layer_6">
</g>
<g id="Layer_7">
</g>
<g id="Layer_8">
</g>
<g id="Layer_9">
</g>
<g id="Layer_10">
	<path class="st18" d="M168.29,60.37h13.49v31.61h-13.49V60.37z M168.86,58.11h12.35c1.09,0,1.97-0.89,1.97-1.98
		c0-1.09-0.89-1.97-1.97-1.97h-12.35c-1.09,0-1.97,0.88-1.97,1.97C166.9,57.22,167.77,58.11,168.86,58.11z M181.78,100.42h-13.49
		v31.61h13.49V100.42z M181.21,134.3h-12.35c-1.09,0-1.97,0.88-1.97,1.97c0,1.09,0.88,1.97,1.97,1.97h12.35
		c1.09,0,1.97-0.88,1.97-1.97C183.18,135.18,182.3,134.3,181.21,134.3z M181.21,94.21h-12.35c-1.09,0-1.97,0.88-1.97,1.97
		c0,0.01,0.01,0.01,0.01,0.02c0,0.01-0.01,0.01-0.01,0.02c0,1.09,0.88,1.97,1.97,1.97h12.35c1.09,0,1.97-0.88,1.97-1.97
		c0-0.01,0-0.01,0-0.02c0-0.01,0-0.01,0-0.02C183.18,95.09,182.3,94.21,181.21,94.21z M154.56,86.11c0.02,0.56,0.1,1.28,0.29,2.05
		c0.38,1.53,1.29,3.07,2.58,4.14c1.3,1.08,2.99,1.68,4.57,1.75c0.78,0.04,1.51-0.02,2.06-0.11c0.55-0.08,0.91-0.19,0.91-0.19
		s0.04-0.38,0.02-0.93c-0.02-0.56-0.1-1.28-0.29-2.05c-0.37-1.53-1.29-3.07-2.6-4.13c-1.3-1.07-2.99-1.66-4.56-1.74
		c-0.79-0.04-1.52,0.01-2.07,0.1c-0.54,0.08-0.91,0.2-0.91,0.2S154.53,85.57,154.56,86.11z M194.56,51.99
		c-0.54-0.13-1.26-0.24-2.05-0.26c-1.58-0.04-3.3,0.43-4.68,1.39c-1.38,0.97-2.41,2.43-2.9,3.93c-0.24,0.75-0.38,1.47-0.44,2.02
		c-0.07,0.55-0.05,0.93-0.05,0.93s0.35,0.14,0.89,0.26c0.54,0.13,1.27,0.24,2.06,0.27c1.57,0.04,3.3-0.43,4.67-1.41
		c1.37-0.97,2.4-2.44,2.89-3.94c0.25-0.75,0.39-1.46,0.45-2.02c0.07-0.54,0.06-0.93,0.06-0.93S195.09,52.11,194.56,51.99z
		 M193.31,125.75c-0.54-0.13-1.26-0.24-2.05-0.27c-1.57-0.04-3.31,0.43-4.68,1.4c-1.38,0.97-2.41,2.43-2.9,3.93
		c-0.24,0.75-0.38,1.47-0.45,2.02c-0.07,0.55-0.05,0.93-0.05,0.93s0.36,0.14,0.9,0.26c0.54,0.13,1.27,0.24,2.05,0.27
		c1.58,0.04,3.31-0.43,4.68-1.41c1.37-0.97,2.39-2.44,2.89-3.93c0.25-0.75,0.38-1.46,0.45-2.02c0.06-0.55,0.05-0.93,0.05-0.93
		S193.84,125.87,193.31,125.75z M134.75,91.98h13.49V60.37h-13.49V91.98z M135.32,58.11h12.35c1.09,0,1.97-0.89,1.97-1.98
		c0-1.09-0.89-1.97-1.97-1.97h-12.35c-1.09,0-1.97,0.88-1.97,1.97C133.35,57.22,134.23,58.11,135.32,58.11z M148.24,100.42h-13.49
		v31.61h13.49V100.42z M147.67,134.3h-12.35c-1.09,0-1.97,0.88-1.97,1.97c0,1.09,0.88,1.97,1.97,1.97h12.35
		c1.09,0,1.97-0.88,1.97-1.97C149.64,135.18,148.76,134.3,147.67,134.3z M147.67,94.21h-12.35c-1.09,0-1.97,0.88-1.97,1.97
		c0,0.01,0,0.01,0,0.02c0,0.01,0,0.01,0,0.02c0,1.09,0.88,1.97,1.97,1.97h12.35c1.09,0,1.97-0.88,1.97-1.97c0-0.01,0-0.01,0-0.02
		c0-0.01,0-0.01,0-0.02C149.64,95.09,148.76,94.21,147.67,94.21z M121.01,86.11c0.02,0.56,0.1,1.28,0.29,2.05
		c0.38,1.53,1.29,3.07,2.58,4.14c1.3,1.08,2.99,1.68,4.57,1.75c0.78,0.04,1.51-0.02,2.06-0.11c0.55-0.08,0.91-0.19,0.91-0.19
		s0.04-0.38,0.02-0.93c-0.02-0.56-0.1-1.28-0.29-2.05c-0.38-1.53-1.29-3.07-2.59-4.13c-1.3-1.07-2.99-1.66-4.56-1.74
		c-0.79-0.04-1.52,0.01-2.07,0.1c-0.54,0.08-0.9,0.2-0.9,0.2S120.99,85.57,121.01,86.11z M161.02,51.99
		c-0.54-0.13-1.26-0.24-2.05-0.26c-1.57-0.04-3.3,0.43-4.68,1.39c-1.38,0.97-2.41,2.43-2.9,3.93c-0.24,0.75-0.38,1.47-0.44,2.02
		c-0.07,0.55-0.05,0.93-0.05,0.93s0.35,0.14,0.89,0.26c0.54,0.13,1.27,0.24,2.05,0.27c1.58,0.04,3.3-0.43,4.68-1.41
		c1.37-0.97,2.4-2.44,2.89-3.94c0.24-0.75,0.39-1.46,0.45-2.02c0.07-0.54,0.06-0.93,0.06-0.93S161.55,52.11,161.02,51.99z
		 M159.77,125.75c-0.54-0.13-1.26-0.24-2.05-0.27c-1.57-0.04-3.31,0.43-4.68,1.4c-1.38,0.97-2.41,2.43-2.89,3.93
		c-0.25,0.75-0.39,1.47-0.45,2.02c-0.07,0.55-0.06,0.93-0.06,0.93s0.36,0.14,0.89,0.26c0.55,0.13,1.27,0.24,2.05,0.27
		c1.58,0.04,3.31-0.43,4.68-1.41c1.37-0.97,2.39-2.44,2.89-3.93c0.25-0.75,0.39-1.46,0.45-2.02c0.06-0.55,0.05-0.93,0.05-0.93
		S160.3,125.87,159.77,125.75z M201.84,91.98h13.49V60.37h-13.49V91.98z M202.41,58.11h12.35c1.09,0,1.97-0.89,1.97-1.98
		c0-1.09-0.89-1.97-1.97-1.97h-12.35c-1.09,0-1.97,0.88-1.97,1.97C200.44,57.22,201.32,58.11,202.41,58.11z M215.32,100.42h-13.49
		v31.61h13.49V100.42z M214.75,134.3h-12.35c-1.09,0-1.97,0.88-1.97,1.97c0,1.09,0.88,1.97,1.97,1.97h12.35
		c1.09,0,1.97-0.88,1.97-1.97C216.73,135.18,215.84,134.3,214.75,134.3z M214.75,94.21h-12.35c-1.09,0-1.97,0.88-1.97,1.97
		c0,0.01,0,0.01,0,0.02c0,0.01,0,0.01,0,0.02c0,1.09,0.88,1.97,1.97,1.97h12.35c1.09,0,1.97-0.88,1.97-1.97c0-0.01,0-0.01,0-0.02
		c0-0.01,0-0.01,0-0.02C216.73,95.09,215.84,94.21,214.75,94.21z M188.1,86.11c0.02,0.56,0.1,1.28,0.29,2.05
		c0.38,1.53,1.29,3.07,2.58,4.14c1.3,1.08,2.99,1.68,4.56,1.75c0.79,0.04,1.51-0.02,2.07-0.11c0.55-0.08,0.91-0.19,0.91-0.19
		s0.05-0.38,0.02-0.93c-0.02-0.56-0.1-1.28-0.29-2.05c-0.38-1.53-1.29-3.07-2.6-4.13c-1.3-1.07-2.99-1.66-4.56-1.74
		c-0.79-0.04-1.52,0.01-2.07,0.1c-0.54,0.08-0.9,0.2-0.9,0.2S188.07,85.57,188.1,86.11z M228.1,51.99
		c-0.54-0.13-1.27-0.24-2.05-0.26c-1.58-0.04-3.3,0.43-4.68,1.39c-1.38,0.97-2.41,2.43-2.9,3.93c-0.24,0.75-0.38,1.47-0.44,2.02
		c-0.07,0.55-0.05,0.93-0.05,0.93s0.35,0.14,0.89,0.26c0.54,0.13,1.26,0.24,2.05,0.27c1.57,0.04,3.3-0.43,4.67-1.41
		c1.37-0.97,2.4-2.44,2.89-3.94c0.24-0.75,0.39-1.46,0.45-2.02c0.07-0.54,0.06-0.93,0.06-0.93S228.64,52.11,228.1,51.99z
		 M226.86,125.75c-0.54-0.13-1.26-0.24-2.05-0.27c-1.57-0.04-3.31,0.43-4.68,1.4c-1.38,0.97-2.41,2.43-2.9,3.93
		c-0.25,0.75-0.38,1.47-0.44,2.02c-0.07,0.55-0.06,0.93-0.06,0.93s0.36,0.14,0.89,0.26c0.55,0.13,1.27,0.24,2.05,0.27
		c1.58,0.04,3.31-0.43,4.68-1.41c1.38-0.97,2.4-2.44,2.89-3.93c0.25-0.75,0.39-1.46,0.45-2.02c0.06-0.55,0.05-0.93,0.05-0.93
		S227.39,125.87,226.86,125.75z"/>
</g>
<g id="Layer_11">
</g>
<g id="Layer_12">
</g>
<g id="Layer_13">
</g>
<g id="Layer_14">
</g>
<g id="Layer_15">
</g>
</svg>
