<?xml version="1.0" encoding="utf-8"?>
<!-- Generator: Adobe Illustrator 27.8.1, SVG Export Plug-In . SVG Version: 6.00 Build 0)  -->
<svg version="1.1" xmlns="http://www.w3.org/2000/svg" xmlns:xlink="http://www.w3.org/1999/xlink" x="0px" y="0px"
	 viewBox="0 0 350 230" style="enable-background:new 0 0 350 230;" xml:space="preserve">
<style type="text/css">
	.st0{fill:#001C77;}
	.st1{fill:#077275;}
	.st2{fill:#001A5A;}
	.st3{fill:#00FF30;}
	.st4{fill:#809FA0;}
	.st5{fill:#003738;}
	.st6{fill:#D900FF;}
	.st7{fill:#85DD98;}
	.st8{fill:#00DB29;}
	.st9{fill:#48ED67;}
	.st10{fill:#00F9FF;}
	.st11{fill:#009599;}
	.st12{fill:#17CC3A;}
	.st13{fill:#003A0B;}
	.st14{fill:#B2FF61;}
	.st15{fill:#D37F07;}
	.st16{fill:#00E22B;}
	.st17{fill:#004947;}
	.st18{fill:#7600FF;}
	.st19{fill:#603400;}
	.st20{fill:#D67A00;}
	.st21{fill:#026854;}
	.st22{fill:#B76400;}
	.st23{fill:#4F2D05;}
	.st24{fill:#38FF00;}
	.st25{fill:#750009;}
	.st26{fill:#A8AC00;}
	.st27{fill:#E473FF;}
</style>
<g id="Layer_1">
</g>
<g id="Layer_2">
</g>
<g id="Layer_3">
</g>
<g id="Layer_4">
</g>
<g id="Layer_5">
</g>
<g id="Layer_6">
</g>
<g id="Layer_7">
</g>
<g id="Layer_8">
</g>
<g id="Layer_9">
</g>
<g id="Layer_10">
</g>
<g id="Layer_11">
	<g>
		<path class="st19" d="M132.92,88.7h84.16c0,16.77-9.81,31.24-24.01,38h-36.14C142.73,119.94,132.92,105.47,132.92,88.7z"/>
		<path class="st20" d="M194.68,128.74c0,1.12-0.91,2.04-2.04,2.04h-35.29c-1.12,0-2.04-0.91-2.04-2.04l0,0
			c0-1.13,0.91-2.04,2.04-2.04h35.29C193.77,126.7,194.68,127.61,194.68,128.74L194.68,128.74z"/>
		<path class="st21" d="M94.91,155.94c0,0,2.22-1.34,6.33-3.26c2.05-0.97,4.57-2.1,7.51-3.26c2.94-1.16,6.27-2.45,9.98-3.65
			c3.7-1.23,7.75-2.44,12.08-3.55c4.33-1.12,8.94-2.13,13.75-3.01c4.81-0.87,9.81-1.61,14.93-2.1c5.11-0.55,10.34-0.83,15.57-0.95
			c2.61-0.09,5.23,0.02,7.84,0.02c2.61,0.04,5.2,0.24,7.77,0.35c2.57,0.21,5.12,0.43,7.63,0.7c2.51,0.34,4.98,0.62,7.41,1.03
			c2.42,0.44,4.8,0.81,7.11,1.31c2.3,0.53,4.55,1.05,6.74,1.56c2.16,0.61,4.26,1.21,6.3,1.79c2.02,0.61,3.95,1.3,5.8,1.93
			c1.85,0.62,3.6,1.3,5.24,2c1.64,0.69,3.21,1.31,4.66,1.96c2.88,1.35,5.36,2.53,7.36,3.6c2,1.08,3.53,2.01,4.58,2.6
			c1.04,0.61,1.6,0.94,1.6,0.94s-0.62-0.18-1.8-0.5c-1.16-0.35-2.88-0.81-5.01-1.49c-2.15-0.64-4.82-1.24-7.8-2.11
			c-1.5-0.38-3.13-0.72-4.82-1.12c-1.69-0.4-3.46-0.84-5.34-1.17c-1.87-0.35-3.79-0.81-5.81-1.14c-2.01-0.34-4.1-0.69-6.24-1.05
			c-2.15-0.3-4.35-0.6-6.61-0.91c-2.26-0.25-4.57-0.5-6.92-0.76c-2.35-0.19-4.74-0.39-7.16-0.58c-2.42-0.13-4.88-0.26-7.35-0.39
			c-2.48-0.05-4.97-0.1-7.48-0.16c-2.51,0.02-5.02-0.06-7.54,0.05c-2.52,0.05-5.04,0.09-7.54,0.24c-2.51,0.11-5.01,0.24-7.48,0.42
			c-2.48,0.14-4.93,0.41-7.36,0.59c-2.43,0.25-4.82,0.5-7.18,0.75c-4.71,0.56-9.26,1.15-13.57,1.82c-4.31,0.66-8.39,1.35-12.14,2.05
			c-3.76,0.68-7.2,1.38-10.26,2.01c-3.04,0.69-5.71,1.23-7.9,1.76c-2.19,0.53-3.91,0.94-5.09,1.23
			C95.54,155.78,94.91,155.94,94.91,155.94z M179.22,77.18c-0.91,1.91-1.93,3.49-2.76,4.6c-0.4,0.56-0.81,0.99-1.05,1.29
			c-0.25,0.3-0.42,0.45-0.42,0.45s-0.16-0.16-0.42-0.45c-0.24-0.3-0.65-0.73-1.04-1.29c-0.83-1.11-1.85-2.69-2.75-4.6
			c-0.92-1.9-1.7-4.12-2.26-6.5c-0.56-2.39-0.82-4.92-0.84-7.47c0.01-2.54,0.27-5.08,0.81-7.46c0.56-2.37,1.34-4.6,2.26-6.5
			c0.91-1.9,1.93-3.49,2.77-4.6c0.4-0.56,0.81-0.99,1.05-1.29c0.26-0.3,0.42-0.46,0.42-0.46s0.17,0.16,0.42,0.46
			c0.23,0.3,0.65,0.73,1.05,1.29c0.84,1.11,1.86,2.7,2.77,4.6c0.92,1.9,1.7,4.13,2.26,6.5c0.55,2.38,0.81,4.92,0.82,7.46
			c-0.02,2.54-0.28,5.08-0.84,7.47C180.92,73.05,180.13,75.27,179.22,77.18z M172.44,82.29c-0.59-1.25-1.51-2.9-2.76-4.6
			c-1.25-1.7-2.84-3.44-4.68-5.05c-1.84-1.61-3.95-3.04-6.19-4.25c-2.24-1.18-4.61-2.15-6.96-2.78c-2.36-0.63-4.69-0.99-6.8-1.07
			c-2.11-0.09-3.99,0.07-5.37,0.28c-0.68,0.09-1.25,0.24-1.63,0.31c-0.39,0.09-0.6,0.16-0.6,0.16s0.06,0.22,0.21,0.58
			c0.14,0.35,0.34,0.92,0.64,1.54c0.58,1.26,1.5,2.91,2.76,4.61c1.25,1.71,2.84,3.44,4.68,5.05c1.84,1.61,3.96,3.03,6.2,4.23
			c2.25,1.18,4.62,2.14,6.98,2.77c2.36,0.63,4.69,0.98,6.8,1.07c2.11,0.09,3.99-0.06,5.36-0.27c0.68-0.09,1.26-0.24,1.63-0.31
			c0.38-0.08,0.6-0.15,0.6-0.15s-0.06-0.22-0.2-0.59C172.93,83.47,172.74,82.9,172.44,82.29z M152.23,59.5
			c0.34,1.12,0.77,2.25,1.25,3.35c1.81,0.6,3.6,1.38,5.32,2.29c2.23,1.21,4.35,2.64,6.19,4.25c0.36,0.31,0.69,0.63,1.03,0.94
			c-0.31-0.94-0.6-1.91-0.83-2.91c-0.55-2.38-0.82-4.92-0.83-7.46c0-1.84,0.14-3.68,0.43-5.46c-0.43-0.52-0.87-1.03-1.32-1.52
			c-1.67-1.78-3.46-3.31-5.21-4.5c-1.74-1.19-3.42-2.05-4.7-2.59c-0.62-0.28-1.2-0.45-1.55-0.59c-0.37-0.13-0.6-0.18-0.6-0.18
			s-0.06,0.22-0.13,0.61c-0.05,0.37-0.19,0.95-0.26,1.64c-0.17,1.38-0.26,3.27-0.09,5.37C151.08,54.85,151.51,57.17,152.23,59.5z
			 M211.95,65.14c-0.37-0.07-0.95-0.22-1.63-0.31c-1.37-0.22-3.26-0.37-5.36-0.28c-2.11,0.08-4.44,0.44-6.81,1.07
			c-2.35,0.63-4.72,1.6-6.96,2.78c-2.23,1.21-4.35,2.64-6.19,4.25c-1.84,1.61-3.43,3.35-4.68,5.05c-1.25,1.7-2.17,3.35-2.76,4.6
			c-0.3,0.62-0.5,1.18-0.64,1.53c-0.15,0.37-0.21,0.59-0.21,0.59s0.22,0.07,0.6,0.15c0.37,0.07,0.95,0.23,1.63,0.31
			c1.37,0.21,3.25,0.37,5.35,0.27c2.11-0.09,4.44-0.44,6.81-1.07c2.36-0.63,4.73-1.59,6.97-2.77c2.24-1.2,4.35-2.63,6.2-4.23
			c1.84-1.6,3.43-3.34,4.68-5.05c1.26-1.7,2.17-3.35,2.76-4.61c0.3-0.61,0.49-1.18,0.64-1.54c0.14-0.36,0.2-0.58,0.2-0.58
			S212.34,65.23,211.95,65.14z M191.19,65.15c1.72-0.91,3.52-1.69,5.33-2.29c0.48-1.1,0.91-2.23,1.26-3.35
			c0.71-2.34,1.15-4.65,1.3-6.76c0.17-2.1,0.08-3.99-0.08-5.37c-0.07-0.68-0.21-1.26-0.27-1.64c-0.07-0.39-0.13-0.61-0.13-0.61
			s-0.22,0.06-0.59,0.18c-0.36,0.13-0.93,0.31-1.56,0.59c-1.28,0.55-2.96,1.4-4.7,2.59c-1.75,1.2-3.54,2.72-5.22,4.5
			c-0.45,0.49-0.89,0.99-1.32,1.52c0.29,1.78,0.43,3.61,0.43,5.46c-0.01,2.54-0.28,5.07-0.83,7.46c-0.23,1.01-0.52,1.98-0.83,2.91
			c0.34-0.32,0.67-0.64,1.03-0.94C186.85,67.78,188.96,66.35,191.19,65.15z"/>
	</g>
</g>
<g id="Layer_12">
</g>
<g id="Layer_13">
</g>
<g id="Layer_14">
</g>
<g id="Layer_15">
</g>
</svg>
