<?xml version="1.0" encoding="utf-8"?>
<!-- Generator: Adobe Illustrator 27.8.1, SVG Export Plug-In . SVG Version: 6.00 Build 0)  -->
<svg version="1.1" xmlns="http://www.w3.org/2000/svg" xmlns:xlink="http://www.w3.org/1999/xlink" x="0px" y="0px"
	 viewBox="0 0 350 230" style="enable-background:new 0 0 350 230;" xml:space="preserve">
<style type="text/css">
	.st0{fill:#001C77;}
	.st1{fill:#077275;}
	.st2{fill:#001A5A;}
	.st3{fill:#00FF30;}
	.st4{fill:#809FA0;}
	.st5{fill:#003738;}
	.st6{fill:#D900FF;}
	.st7{fill:#85DD98;}
	.st8{fill:#00DB29;}
	.st9{fill:#48ED67;}
	.st10{fill:#00F9FF;}
	.st11{fill:#009599;}
	.st12{fill:#17CC3A;}
	.st13{fill:#003A0B;}
	.st14{fill:#B2FF61;}
	.st15{fill:#D37F07;}
	.st16{fill:#00E22B;}
	.st17{fill:#004947;}
	.st18{fill:#7600FF;}
	.st19{fill:#603400;}
	.st20{fill:#D67A00;}
	.st21{fill:#026854;}
	.st22{fill:#B76400;}
	.st23{fill:#4F2D05;}
	.st24{fill:#38FF00;}
	.st25{fill:#750009;}
	.st26{fill:#A8AC00;}
	.st27{fill:#E473FF;}
</style>
<g id="Layer_1">
</g>
<g id="Layer_2">
</g>
<g id="Layer_3">
</g>
<g id="Layer_4">
</g>
<g id="Layer_5">
</g>
<g id="Layer_6">
</g>
<g id="Layer_7">
</g>
<g id="Layer_8">
</g>
<g id="Layer_9">
</g>
<g id="Layer_10">
</g>
<g id="Layer_11">
</g>
<g id="Layer_12">
</g>
<g id="Layer_13">
	<path class="st24" d="M220.04,89.28c-2.95-0.6-5.92-1.11-8.9-1.5c-0.21-0.03-0.42-0.05-0.62-0.07c0.55-2.98,0.54-6.08,0.13-9.1
		c-0.23-1.84-0.64-3.65-1.13-5.44c-0.52-1.79-1.13-3.52-1.91-5.25l-0.19-0.41l-0.45,0.04c-1.88,0.17-3.69,0.49-5.49,0.92
		c-1.79,0.44-3.57,0.98-5.28,1.7c-1.71,0.7-3.37,1.56-4.91,2.58c-0.77,0.52-1.5,1.09-2.19,1.69c-0.21,0.19-0.41,0.39-0.61,0.59
		c-0.5-0.77-1.02-1.53-1.54-2.29c-1.72-2.47-3.56-4.84-5.46-7.17c-1.91-2.32-3.86-4.57-5.95-6.78l-0.97-1.02l-0.95,1.05
		c-2.04,2.27-3.93,4.58-5.78,6.96c-1.84,2.38-3.62,4.81-5.28,7.33c-0.37,0.57-0.74,1.14-1.1,1.72c-0.12-0.11-0.24-0.23-0.37-0.34
		c-0.71-0.59-1.46-1.13-2.24-1.63c-1.57-0.98-3.24-1.8-4.97-2.45c-1.73-0.66-3.52-1.15-5.33-1.55c-1.82-0.38-3.63-0.65-5.52-0.77
		l-0.45-0.03l-0.18,0.42c-0.74,1.75-1.3,3.5-1.77,5.3c-0.44,1.8-0.8,3.62-0.98,5.47c-0.31,2.92-0.25,5.9,0.31,8.77
		c-0.41,0.06-0.82,0.11-1.22,0.18c-2.98,0.47-5.93,1.06-8.86,1.74c-2.93,0.69-5.83,1.44-8.73,2.37l-1.29,0.41l0.5,1.26
		c1.13,2.82,2.36,5.54,3.67,8.24c1.31,2.7,2.71,5.36,4.22,7.96c1.52,2.6,3.16,5.14,4.95,7.58c0.91,1.21,1.83,2.42,2.84,3.56
		c0.49,0.59,1.03,1.13,1.54,1.7c0.55,0.54,1.07,1.1,1.66,1.61c1.13,1.06,2.37,2.01,3.7,2.85c0.66,0.43,1.38,0.79,2.09,1.15
		c0.73,0.3,1.45,0.63,2.21,0.85c1.5,0.49,3.07,0.81,4.66,0.91c1.58,0.1,3.18-0.01,4.72-0.31c3.1-0.59,5.98-1.92,8.55-3.59
		c1.29-0.85,2.5-1.78,3.65-2.79c1.15-1.03,2.22-2.07,3.23-3.3l0.73-0.9l-1.04-0.45c-2.68-1.17-5.51-1.98-8.4-2.36
		c-2.89-0.36-5.81-0.34-8.67,0.12l-1.07,0.18c-0.35,0.07-0.71,0.15-1.06,0.23c-0.71,0.14-1.4,0.35-2.09,0.53
		c-0.69,0.21-1.37,0.43-2.05,0.68c-0.67,0.26-1.34,0.5-1.99,0.8c-1.32,0.56-2.57,1.22-3.87,1.79c-0.8,0.35-1.62,0.66-2.45,0.92
		c-0.22-0.23-0.44-0.45-0.67-0.68c-0.48-0.54-0.98-1.05-1.44-1.61c-0.95-1.09-1.83-2.25-2.7-3.42c-1.71-2.36-3.28-4.84-4.76-7.38
		c-2.71-4.68-5.15-9.57-7.26-14.54c5.18-1.59,10.5-2.92,15.84-3.86c2.91-0.5,5.83-0.91,8.75-1.12c2.24-0.15,4.48-0.21,6.7-0.07
		c-0.01,0.05-0.03,0.1-0.04,0.15c-0.22,0.74-0.38,1.5-0.55,2.25c-0.12,0.77-0.28,1.53-0.33,2.31c-0.09,0.77-0.08,1.57-0.08,2.35
		c0.05,0.78,0.09,1.55,0.22,2.32c0.23,1.53,0.6,3.06,1.21,4.5c0.6,1.44,1.37,2.8,2.31,4.03c1.89,2.45,4.37,4.36,7.07,5.73
		c2.7,1.36,5.6,2.28,8.56,2.67c-1.46-0.32-2.87-0.79-4.25-1.35c-1.37-0.56-2.71-1.2-3.96-1.97c-2.51-1.52-4.76-3.47-6.37-5.85
		c-0.81-1.18-1.47-2.47-1.95-3.81c-0.49-1.34-0.76-2.75-0.91-4.17c-0.09-0.71-0.09-1.43-0.11-2.14c0.02-0.71,0.04-1.41,0.15-2.11
		c0.07-0.7,0.24-1.4,0.37-2.1c0.18-0.69,0.35-1.39,0.58-2.08c0.06-0.18,0.12-0.36,0.19-0.54c0.69,0.08,1.37,0.2,2.06,0.32
		c0.7,0.16,1.41,0.3,2.08,0.53c0.69,0.19,1.34,0.47,2,0.74c0.65,0.32,1.3,0.62,1.91,0.99c2.49,1.43,4.62,3.47,6.11,5.95
		c1.5,2.48,2.34,5.34,2.67,8.27c0.3,2.93,0.19,5.93-0.43,8.85c0.83-2.87,1.18-5.89,1.04-8.9c-0.15-3.01-0.86-6.04-2.33-8.76
		c-0.73-1.35-1.64-2.62-2.7-3.75c-1.05-1.14-2.29-2.09-3.59-2.93c-0.64-0.43-1.33-0.78-2.01-1.15c-0.7-0.33-1.42-0.66-2.16-0.9
		c-0.73-0.28-1.48-0.45-2.23-0.66c-0.6-0.12-1.19-0.26-1.79-0.36c1.83-4.64,4.45-9.02,7.29-13.2c3.05-4.47,6.41-8.79,9.98-12.83
		c3.67,3.93,7.13,8.15,10.3,12.51c3.08,4.27,5.93,8.76,7.9,13.57c-0.69,0.12-1.37,0.3-2.06,0.46c-0.74,0.22-1.49,0.42-2.21,0.72
		c-0.73,0.26-1.44,0.61-2.13,0.96c-0.67,0.38-1.35,0.75-1.98,1.2c-1.27,0.87-2.48,1.86-3.5,3.02c-1.03,1.16-1.9,2.45-2.59,3.82
		c-1.39,2.75-2.02,5.8-2.09,8.82c-0.06,3.02,0.37,6.03,1.28,8.87c-0.7-2.9-0.9-5.9-0.68-8.83c0.25-2.93,1.02-5.82,2.45-8.34
		c1.42-2.52,3.5-4.61,5.95-6.11c0.6-0.39,1.25-0.71,1.88-1.05c0.65-0.29,1.29-0.59,1.98-0.79c0.67-0.25,1.37-0.4,2.07-0.58
		c0.71-0.14,1.41-0.29,2.13-0.39c0.06-0.01,0.12-0.02,0.18-0.02c0.47,1.32,0.83,2.68,1.05,4.04c0.13,0.7,0.17,1.4,0.22,2.1
		c-0.01,0.71,0.02,1.42-0.05,2.13c-0.11,1.41-0.38,2.81-0.84,4.16c-0.46,1.35-1.11,2.63-1.89,3.84c-1.56,2.42-3.71,4.47-6.1,6.16
		c-1.2,0.85-2.47,1.6-3.78,2.28c-1.31,0.68-2.67,1.29-4.08,1.77c2.89-0.71,5.68-1.89,8.26-3.44c2.57-1.56,4.93-3.56,6.76-6.04
		c0.91-1.24,1.67-2.6,2.24-4.04c0.57-1.45,0.94-2.97,1.13-4.51c0.11-0.77,0.13-1.55,0.16-2.33c-0.03-0.78-0.05-1.57-0.16-2.34
		c-0.17-1.37-0.47-2.71-0.87-4.01c2.15-0.18,4.32-0.18,6.49-0.09c2.93,0.14,5.86,0.47,8.78,0.88c5.37,0.79,10.73,1.98,15.94,3.43
		c-1.97,5.03-4.28,9.99-6.86,14.73c-1.4,2.58-2.91,5.1-4.55,7.5c-0.84,1.19-1.68,2.38-2.6,3.49c-0.44,0.57-0.93,1.1-1.4,1.65
		c-0.22,0.23-0.43,0.46-0.65,0.69c-0.84-0.23-1.67-0.52-2.47-0.85c-1.31-0.53-2.58-1.16-3.92-1.68c-0.66-0.29-1.34-0.5-2.02-0.75
		c-0.68-0.22-1.37-0.43-2.06-0.62c-0.7-0.16-1.4-0.36-2.11-0.47c-0.35-0.06-0.71-0.14-1.06-0.2l-1.07-0.15
		c-2.86-0.38-5.79-0.33-8.67,0.12c-2.87,0.46-5.68,1.35-8.33,2.59l-1.03,0.48l0.76,0.88c1.04,1.2,2.14,2.22,3.32,3.21
		c1.18,0.98,2.42,1.88,3.73,2.69c2.62,1.6,5.53,2.85,8.65,3.36c1.55,0.25,3.15,0.32,4.73,0.18c1.58-0.15,3.14-0.51,4.63-1.04
		c0.75-0.25,1.46-0.59,2.18-0.92c0.7-0.38,1.41-0.75,2.06-1.21c1.31-0.88,2.53-1.87,3.62-2.95c0.57-0.53,1.08-1.1,1.61-1.66
		c0.5-0.58,1.02-1.14,1.49-1.74c0.98-1.17,1.87-2.4,2.75-3.64c1.72-2.49,3.29-5.08,4.74-7.71c1.44-2.64,2.76-5.34,4-8.07
		c1.23-2.74,2.39-5.49,3.44-8.34l0.47-1.28l-1.3-0.38C225.9,90.56,222.99,89.89,220.04,89.28z M142.67,121.32
		c1.35-0.47,2.65-1.07,3.97-1.53c2.64-0.98,5.4-1.62,8.18-1.92c2.78-0.32,5.59-0.18,8.32,0.26c2.33,0.4,4.6,1.1,6.76,2.04
		c-0.72,0.74-1.51,1.46-2.3,2.13c-1.11,0.92-2.28,1.77-3.5,2.53c-2.44,1.5-5.11,2.61-7.87,3.08c-1.38,0.24-2.77,0.31-4.16,0.2
		c-1.38-0.12-2.74-0.42-4.06-0.87c-0.66-0.21-1.3-0.51-1.94-0.79c-0.61-0.33-1.22-0.63-1.8-1.03c-1.17-0.76-2.27-1.65-3.31-2.63
		c-0.26-0.23-0.52-0.48-0.77-0.73C141.04,121.86,141.87,121.61,142.67,121.32z M157.96,80.94c-1.06,2.09-2.04,4.25-2.81,6.49
		c-2.47-0.25-4.94-0.26-7.4-0.16c-2.51,0.12-5,0.37-7.48,0.72c-0.08-1.07-0.12-2.13-0.09-3.2c0.03-1.81,0.21-3.61,0.49-5.39
		c0.29-1.78,0.67-3.55,1.17-5.28c0.45-1.58,0.97-3.16,1.59-4.66c1.61,0.11,3.26,0.34,4.87,0.64c1.77,0.31,3.51,0.77,5.23,1.3
		c1.71,0.55,3.39,1.21,4.99,2.04c0.81,0.4,1.58,0.87,2.34,1.36c0.15,0.1,0.28,0.2,0.43,0.3C160.11,77,158.99,78.94,157.96,80.94z
		 M210.24,87.68c-2.7-0.32-5.41-0.54-8.14-0.59c-2.38-0.03-4.77,0.04-7.15,0.33c-0.87-2.44-1.99-4.77-3.22-7.02
		c-0.97-1.76-2.02-3.48-3.12-5.15c0.23-0.18,0.46-0.35,0.69-0.52c0.75-0.51,1.51-1,2.3-1.43c1.58-0.87,3.24-1.58,4.93-2.17
		c1.7-0.58,3.43-1.08,5.19-1.44c1.6-0.34,3.24-0.62,4.85-0.77c0.66,1.47,1.23,3.04,1.72,4.61c0.55,1.72,0.97,3.47,1.31,5.24
		c0.33,1.77,0.56,3.57,0.64,5.38C210.33,85.33,210.31,86.5,210.24,87.68z M209.86,122.41c-1.01,1.01-2.09,1.93-3.24,2.72
		c-0.57,0.41-1.17,0.74-1.77,1.08c-0.63,0.29-1.26,0.61-1.91,0.84c-1.3,0.49-2.65,0.83-4.03,0.98c-1.38,0.15-2.78,0.11-4.16-0.09
		c-2.77-0.4-5.47-1.43-7.95-2.86c-1.24-0.72-2.43-1.54-3.57-2.43c-0.81-0.64-1.62-1.34-2.36-2.06c2.13-1,4.38-1.76,6.7-2.22
		c2.72-0.51,5.52-0.73,8.31-0.49c2.79,0.22,5.56,0.78,8.23,1.69c1.34,0.43,2.66,0.99,4.02,1.42c0.81,0.27,1.65,0.49,2.49,0.66
		C210.36,121.92,210.12,122.17,209.86,122.41z"/>
</g>
<g id="Layer_14">
</g>
<g id="Layer_15">
</g>
</svg>
