<?xml version="1.0" encoding="utf-8"?>
<!-- Generator: Adobe Illustrator 27.8.1, SVG Export Plug-In . SVG Version: 6.00 Build 0)  -->
<svg version="1.1" xmlns="http://www.w3.org/2000/svg" xmlns:xlink="http://www.w3.org/1999/xlink" x="0px" y="0px"
	 viewBox="0 0 350 230" style="enable-background:new 0 0 350 230;" xml:space="preserve">
<style type="text/css">
	.st0{fill:#001C77;}
	.st1{fill:#077275;}
	.st2{fill:#001A5A;}
	.st3{fill:#00FF30;}
	.st4{fill:#809FA0;}
	.st5{fill:#003738;}
	.st6{fill:#D900FF;}
	.st7{fill:#85DD98;}
	.st8{fill:#00DB29;}
	.st9{fill:#48ED67;}
	.st10{fill:#00F9FF;}
	.st11{fill:#009599;}
	.st12{fill:#17CC3A;}
	.st13{fill:#003A0B;}
	.st14{fill:#B2FF61;}
	.st15{fill:#D37F07;}
	.st16{fill:#00E22B;}
	.st17{fill:#004947;}
	.st18{fill:#7600FF;}
	.st19{fill:#603400;}
	.st20{fill:#D67A00;}
	.st21{fill:#026854;}
	.st22{fill:#B76400;}
	.st23{fill:#4F2D05;}
	.st24{fill:#38FF00;}
	.st25{fill:#750009;}
	.st26{fill:#A8AC00;}
	.st27{fill:#E473FF;}
</style>
<g id="Layer_1">
</g>
<g id="Layer_2">
</g>
<g id="Layer_3">
</g>
<g id="Layer_4">
</g>
<g id="Layer_5">
</g>
<g id="Layer_6">
</g>
<g id="Layer_7">
</g>
<g id="Layer_8">
</g>
<g id="Layer_9">
</g>
<g id="Layer_10">
</g>
<g id="Layer_11">
</g>
<g id="Layer_12">
</g>
<g id="Layer_13">
</g>
<g id="Layer_14">
	<g>
		<path class="st25" d="M173.99,129.98c2.01-3.74,5.57-9.04,2.53-13.78c1.76,1.26,4.17,2.81,4.69,5.98c0.48,3-1.03,5.67-2.18,7.81
			c-2.01,3.74-5.57,9.04-2.53,13.78c-1.78-1.27-4.17-2.79-4.69-5.98C171.33,134.8,172.85,132.1,173.99,129.98z M171.24,140.98
			c-3.04-4.74,0.51-10.04,2.53-13.78c1.15-2.14,2.66-4.81,2.18-7.81c-0.51-3.17-2.92-4.72-4.69-5.98
			c3.04,4.74-0.51,10.04-2.53,13.78c-1.14,2.12-2.66,4.83-2.18,7.81C167.07,138.19,169.45,139.7,171.24,140.98z M173.48,75.06
			c-3.04-4.74,0.51-10.04,2.53-13.78c1.14-2.12,2.66-4.83,2.18-7.81c-0.51-3.19-2.9-4.7-4.69-5.98c3.04,4.74-0.51,10.04-2.53,13.78
			c-1.15,2.14-2.66,4.81-2.18,7.81C169.31,72.25,171.72,73.8,173.48,75.06z M176.24,64.06c-1.15,2.14-2.66,4.81-2.18,7.81
			c0.51,3.17,2.92,4.72,4.69,5.98c-3.04-4.74,0.51-10.04,2.53-13.78c1.14-2.12,2.66-4.83,2.18-7.81c-0.51-3.19-2.9-4.7-4.69-5.98
			C181.81,55.02,178.25,60.32,176.24,64.06z M210.09,128.6c-5.5-1.2-6.74-7.46-7.95-11.53c-0.7-2.32-1.52-5.28-3.98-7.06
			c-2.6-1.88-5.4-1.27-7.54-0.91c5.5,1.2,6.74,7.46,7.95,11.53c0.69,2.31,1.53,5.29,3.98,7.06
			C205.17,129.58,207.93,128.97,210.09,128.6z M192.89,122.38c0.69,2.31,1.53,5.29,3.98,7.06c2.62,1.89,5.38,1.27,7.54,0.91
			c-5.5-1.2-6.74-7.46-7.95-11.53c-0.7-2.32-1.52-5.28-3.98-7.06c-2.6-1.88-5.4-1.27-7.54-0.91
			C190.43,112.05,191.67,118.31,192.89,122.38z M147.86,74.19c0.7,2.32,1.52,5.28,3.98,7.06c2.6,1.88,5.4,1.27,7.54,0.91
			c-5.5-1.2-6.74-7.46-7.95-11.53c-0.69-2.31-1.53-5.29-3.98-7.06c-2.62-1.89-5.38-1.27-7.54-0.91
			C145.41,63.85,146.65,70.12,147.86,74.19z M153.55,72.44c0.7,2.32,1.52,5.28,3.98,7.06c2.6,1.88,5.4,1.27,7.54,0.91
			c-5.5-1.2-6.74-7.46-7.95-11.53c-0.69-2.31-1.53-5.29-3.98-7.06c-2.62-1.89-5.38-1.27-7.54-0.91
			C151.1,62.1,152.33,68.37,153.55,72.44z M201.55,89.43c-3.17,0.51-4.72,2.92-5.98,4.69c4.74-3.04,10.04,0.51,13.78,2.53
			c2.12,1.14,4.83,2.66,7.81,2.18c3.19-0.51,4.7-2.9,5.98-4.69c-4.74,3.04-10.04-0.51-13.78-2.53
			C207.22,90.46,204.55,88.94,201.55,89.43z M220.34,99.39c-4.74,3.04-10.04-0.51-13.78-2.53c-2.14-1.15-4.81-2.66-7.81-2.18
			c-3.17,0.51-4.72,2.92-5.98,4.69c4.74-3.04,10.04,0.51,13.78,2.53c2.12,1.14,4.83,2.66,7.81,2.18
			C217.56,103.56,219.07,101.18,220.34,99.39z M140.65,99.65c2.14,1.15,4.81,2.66,7.81,2.18c3.17-0.51,4.72-2.92,5.98-4.69
			c-4.74,3.04-10.04-0.51-13.78-2.53c-2.12-1.14-4.83-2.66-7.81-2.18c-3.19,0.51-4.7,2.9-5.98,4.69
			C131.61,94.08,136.91,97.64,140.65,99.65z M143.43,94.4c2.14,1.15,4.81,2.66,7.81,2.18c3.17-0.51,4.72-2.92,5.98-4.69
			c-4.74,3.04-10.04-0.51-13.78-2.53c-2.12-1.14-4.83-2.66-7.81-2.18c-3.19,0.51-4.7,2.9-5.98,4.69
			C134.39,88.82,139.69,92.38,143.43,94.4z M200,72.06c2.31-0.69,5.29-1.53,7.06-3.98c1.89-2.62,1.27-5.38,0.91-7.54
			c-1.2,5.5-7.46,6.74-11.53,7.95c-2.32,0.7-5.28,1.52-7.06,3.98c-1.88,2.6-1.27,5.4-0.91,7.54C189.67,74.51,195.93,73.28,200,72.06
			z M198.19,74.18c-2.32,0.7-5.28,1.52-7.06,3.98c-1.88,2.6-1.27,5.4-0.91,7.54c1.2-5.5,7.46-6.74,11.53-7.95
			c2.31-0.69,5.29-1.53,7.06-3.98c1.89-2.62,1.27-5.38,0.91-7.54C208.53,71.73,202.26,72.96,198.19,74.18z M150,119.2
			c-2.31,0.69-5.29,1.53-7.06,3.98c-1.89,2.62-1.27,5.38-0.91,7.54c1.2-5.5,7.46-6.74,11.53-7.95c2.32-0.7,5.28-1.52,7.06-3.98
			c1.88-2.6,1.27-5.4,0.91-7.54C160.33,116.75,154.07,117.98,150,119.2z M148.25,113.52c-2.31,0.69-5.29,1.53-7.06,3.98
			c-1.89,2.62-1.27,5.38-0.91,7.54c1.2-5.5,7.46-6.74,11.53-7.95c2.32-0.7,5.28-1.52,7.06-3.98c1.88-2.6,1.27-5.4,0.91-7.54
			C158.58,111.06,152.32,112.3,148.25,113.52z"/>
		<path class="st26" d="M185.37,93.74c-0.35-0.22-0.86-0.29-1.31-0.21l-0.88-0.88c-0.76-0.76-1.76-1.14-2.76-1.14
			c-0.58,0-1.15,0.13-1.69,0.38c0.69-1.45,0.44-3.24-0.76-4.45l-0.88-0.88c0.08-0.45,0.01-0.95-0.21-1.31l-1.89-3.07l-1.88,3.05
			c-0.22,0.36-0.29,0.87-0.21,1.33l-0.88,0.88c-1.2,1.2-1.46,3-0.76,4.45c-0.53-0.25-1.11-0.38-1.69-0.38c-1,0-2,0.38-2.76,1.14
			l-0.88,0.88c-0.46-0.08-0.97-0.02-1.33,0.21l-3.05,1.88l3.07,1.89c0.35,0.22,0.86,0.29,1.31,0.21l0.88,0.88
			c0.76,0.76,1.76,1.14,2.76,1.14c0.58,0,1.15-0.13,1.69-0.38c-0.69,1.45-0.44,3.24,0.76,4.45l0.88,0.88
			c-0.08,0.45-0.01,0.95,0.21,1.31l1.89,3.07l1.88-3.05c0.22-0.36,0.29-0.87,0.21-1.33l0.88-0.88c1.2-1.2,1.46-3,0.76-4.45
			c0.53,0.25,1.11,0.38,1.69,0.38c1,0,2-0.38,2.76-1.14l0.88-0.88c0.46,0.08,0.97,0.02,1.33-0.21l3.05-1.88L185.37,93.74z
			 M172.32,87.74l0.73-0.73c0.02,0.04,0.04,0.09,0.07,0.13l0.56,0.91l-0.49,0.49c-1.09,1.09-1.4,2.66-0.93,4.03
			c-0.05-0.05-0.11-0.1-0.16-0.14c-0.52-0.62-0.8-1.4-0.8-2.22C171.3,89.28,171.66,88.4,172.32,87.74z M170.47,95.36
			c-0.07,0.01-0.15,0.01-0.22,0.02c-0.01,0-0.02,0-0.03,0c-0.54,0.07-1.1-0.04-1.49-0.28l-0.94-0.58l0.42-0.42
			c0.66-0.66,1.54-1.02,2.47-1.02s1.81,0.36,2.47,1.02l0.71,0.71C172.73,94.41,171.44,94.59,170.47,95.36z M173.86,96.44l-0.71,0.71
			c-0.66,0.66-1.54,1.02-2.47,1.02s-1.81-0.36-2.47-1.02l-0.41-0.41l0.95-0.58c0.39-0.24,0.95-0.35,1.5-0.28l0.01,0
			c0.07,0.01,0.15,0.02,0.22,0.02C171.44,96.67,172.73,96.85,173.86,96.44z M167.11,92.95c0.66-0.66,1.54-1.02,2.47-1.02
			c0.82,0,1.6,0.28,2.22,0.8c0.05,0.06,0.09,0.11,0.14,0.16c-0.41-0.14-0.84-0.21-1.27-0.21c-1,0-2,0.38-2.76,1.14l-0.49,0.49
			l-0.91-0.56c-0.04-0.02-0.09-0.04-0.13-0.07L167.11,92.95z M169.58,99.34c-0.93,0-1.81-0.36-2.47-1.02l-0.72-0.72
			c0.05-0.02,0.1-0.05,0.15-0.07l0.9-0.55l0.48,0.48c0.76,0.76,1.76,1.14,2.76,1.14c0.43,0,0.86-0.07,1.27-0.21
			c-0.05,0.05-0.1,0.11-0.14,0.16C171.18,99.05,170.4,99.34,169.58,99.34z M173.11,104.09c-0.03,0.05-0.05,0.1-0.07,0.15l-0.72-0.72
			c-1.28-1.28-1.36-3.32-0.22-4.69c0.05-0.05,0.11-0.09,0.16-0.14c-0.47,1.37-0.16,2.94,0.93,4.03l0.48,0.48L173.11,104.09z
			 M174.48,101.89l-0.59,0.95l-0.41-0.41c-0.66-0.66-1.02-1.54-1.02-2.47c0-0.93,0.36-1.81,1.02-2.47l0.71-0.71
			c-0.41,1.12-0.23,2.41,0.54,3.39c0.01,0.07,0.01,0.15,0.02,0.22c0,0,0,0.01,0,0.01C174.82,100.93,174.72,101.49,174.48,101.89z
			 M174.76,90.85c0,0.01,0,0.02,0,0.03c-0.01,0.07-0.02,0.15-0.02,0.22c-0.77,0.98-0.95,2.26-0.54,3.39l-0.71-0.71
			c-1.36-1.36-1.36-3.58,0-4.94l0.42-0.42l0.58,0.94C174.72,89.75,174.82,90.31,174.76,90.85z M180.42,91.93
			c0.93,0,1.81,0.36,2.47,1.02l0.72,0.72c-0.05,0.02-0.1,0.05-0.15,0.07l-0.9,0.55l-0.48-0.48c-0.76-0.76-1.76-1.14-2.76-1.14
			c-0.43,0-0.86,0.07-1.27,0.21c0.05-0.05,0.1-0.11,0.14-0.16C178.82,92.21,179.6,91.93,180.42,91.93z M179.53,95.9
			c0.07-0.01,0.15-0.01,0.22-0.02c0.01,0,0.02,0,0.03,0c0.54-0.07,1.1,0.04,1.5,0.28l0.94,0.58l-0.42,0.42
			c-0.66,0.66-1.54,1.02-2.47,1.02c-0.93,0-1.81-0.36-2.47-1.02l-0.71-0.71C177.27,96.85,178.55,96.67,179.53,95.9z M176.14,94.82
			l0.71-0.71c0.66-0.66,1.54-1.02,2.47-1.02c0.93,0,1.81,0.36,2.47,1.02l0.41,0.41l-0.95,0.59c-0.39,0.24-0.95,0.34-1.5,0.28
			c0,0-0.01,0-0.01,0c-0.07-0.01-0.15-0.02-0.22-0.02C178.55,94.59,177.27,94.41,176.14,94.82z M176.89,87.17
			c0.03-0.05,0.05-0.1,0.07-0.15l0.72,0.72c0.66,0.66,1.02,1.54,1.02,2.47c0,0.82-0.28,1.6-0.8,2.22c-0.06,0.05-0.11,0.09-0.16,0.14
			c0.47-1.37,0.16-2.94-0.93-4.03l-0.48-0.48L176.89,87.17z M175.53,89.37l0.58-0.95l0.41,0.41c1.36,1.36,1.36,3.58,0,4.94
			l-0.71,0.71c0.41-1.12,0.23-2.41-0.54-3.39c-0.01-0.07-0.01-0.15-0.02-0.22l0-0.01C175.18,90.33,175.28,89.77,175.53,89.37z
			 M175.52,101.91c-0.24-0.39-0.35-0.95-0.28-1.5c0-0.01,0-0.02,0-0.03c0.01-0.07,0.02-0.15,0.02-0.22
			c0.77-0.98,0.95-2.26,0.54-3.39l0.71,0.71c0.66,0.66,1.02,1.54,1.02,2.47c0,0.93-0.36,1.81-1.02,2.47l-0.42,0.42L175.52,101.91z
			 M177.68,103.52l-0.73,0.73c-0.02-0.04-0.04-0.09-0.07-0.13l-0.56-0.91l0.49-0.49c1.09-1.09,1.4-2.66,0.93-4.03
			c0.05,0.05,0.1,0.1,0.16,0.14C179.04,100.2,178.97,102.24,177.68,103.52z M182.89,98.31c-0.66,0.66-1.54,1.02-2.47,1.02
			c-0.82,0-1.6-0.28-2.22-0.8c-0.05-0.06-0.09-0.11-0.14-0.16c0.41,0.14,0.84,0.21,1.27,0.21c1,0,2-0.38,2.76-1.14l0.49-0.49
			l0.91,0.56c0.04,0.02,0.09,0.04,0.13,0.07L182.89,98.31z"/>
	</g>
</g>
<g id="Layer_15">
</g>
</svg>
