<?xml version="1.0" encoding="utf-8"?>
<!-- Generator: Adobe Illustrator 27.8.1, SVG Export Plug-In . SVG Version: 6.00 Build 0)  -->
<svg version="1.1" xmlns="http://www.w3.org/2000/svg" xmlns:xlink="http://www.w3.org/1999/xlink" x="0px" y="0px"
	 viewBox="0 0 350 230" style="enable-background:new 0 0 350 230;" xml:space="preserve">
<style type="text/css">
	.st0{fill:#001C77;}
	.st1{fill:#077275;}
	.st2{fill:#001A5A;}
	.st3{fill:#00FF30;}
	.st4{fill:#809FA0;}
	.st5{fill:#003738;}
	.st6{fill:#D900FF;}
	.st7{fill:#85DD98;}
	.st8{fill:#00DB29;}
	.st9{fill:#48ED67;}
	.st10{fill:#00F9FF;}
	.st11{fill:#009599;}
	.st12{fill:#17CC3A;}
	.st13{fill:#003A0B;}
	.st14{fill:#B2FF61;}
	.st15{fill:#D37F07;}
	.st16{fill:#00E22B;}
	.st17{fill:#004947;}
	.st18{fill:#7600FF;}
	.st19{fill:#603400;}
	.st20{fill:#D67A00;}
	.st21{fill:#026854;}
	.st22{fill:#B76400;}
	.st23{fill:#4F2D05;}
	.st24{fill:#38FF00;}
	.st25{fill:#750009;}
	.st26{fill:#A8AC00;}
	.st27{fill:#E473FF;}
</style>
<g id="Layer_1">
</g>
<g id="Layer_2">
</g>
<g id="Layer_3">
</g>
<g id="Layer_4">
</g>
<g id="Layer_5">
</g>
<g id="Layer_6">
</g>
<g id="Layer_7">
</g>
<g id="Layer_8">
</g>
<g id="Layer_9">
</g>
<g id="Layer_10">
</g>
<g id="Layer_11">
</g>
<g id="Layer_12">
</g>
<g id="Layer_13">
</g>
<g id="Layer_14">
</g>
<g id="Layer_15">
	<path class="st27" d="M176.82,68.54c0.25,0.03,0.5,0.06,0.75,0.1c0.13,0.02,0.25,0.04,0.38,0.06c0.12,0.02,0.25,0.04,0.37,0.07
		c0.09,0.02,0.19,0.04,0.28,0.06c0.27,0.06,0.55,0.13,0.82,0.2c0.12,0.03,0.24,0.06,0.36,0.1c0.12,0.03,0.24,0.07,0.36,0.11
		c0.12,0.04,0.24,0.08,0.35,0.12c0.12,0.04,0.23,0.08,0.35,0.12c0.11,0.04,0.22,0.08,0.34,0.13c0.12,0.05,0.23,0.09,0.35,0.14
		c0.11,0.04,0.23,0.09,0.34,0.14c0.22,0.1,0.45,0.2,0.67,0.31c0.16,0.08,0.33,0.17,0.49,0.25c0.49,0.26,0.96,0.54,1.41,0.84
		c0.41,0.27,0.8,0.55,1.18,0.86c0.14,0.11,0.27,0.22,0.41,0.33c0.2,0.17,0.39,0.35,0.58,0.52c0.22,0.19,0.43,0.39,0.63,0.6
		c0.04,0.04,0.07,0.07,0.11,0.11c0.05,0.05,0.11,0.12,0.16,0.17c0.1,0.11,0.2,0.21,0.3,0.32c0.1,0.11,0.19,0.22,0.29,0.33
		c0.19,0.22,0.37,0.45,0.55,0.68c0.08,0.1,0.15,0.19,0.22,0.29c0.12,0.16,0.24,0.33,0.35,0.49c0.07,0.11,0.15,0.22,0.22,0.33
		c0,0,0.01,0.01,0.01,0.01c0.07,0.11,0.14,0.21,0.2,0.32c0.07,0.11,0.14,0.22,0.2,0.33v0c0.13,0.23,0.26,0.45,0.38,0.68
		c0.06,0.12,0.12,0.23,0.18,0.35c0.06,0.12,0.12,0.24,0.17,0.36c0.04,0.09,0.08,0.18,0.12,0.27c0.01,0.03,0.03,0.06,0.04,0.09
		c0.06,0.12,0.11,0.24,0.16,0.36c0.05,0.12,0.1,0.24,0.15,0.36v0c0.15,0.37,0.28,0.74,0.4,1.12c0.01,0.04,0.02,0.08,0.04,0.12
		c0.06,0.18,0.11,0.36,0.16,0.55c0.39,1.46,0.6,2.99,0.6,4.57c0,2-0.34,3.91-0.95,5.7c-0.3,0.87-0.66,1.7-1.09,2.51
		c-0.06,0.12-0.12,0.23-0.19,0.34c-3.08,1.84-6.53,3.14-10.2,3.75v-0.01c-2.35-3.28-3.95-6.95-4.8-10.75
		c-0.86,3.8-2.45,7.47-4.79,10.76c-3.68-0.6-7.13-1.89-10.22-3.73c-0.06-0.12-0.12-0.23-0.19-0.34c-0.06-0.11-0.12-0.23-0.18-0.34
		c-0.06-0.12-0.12-0.23-0.17-0.35c-0.06-0.12-0.11-0.24-0.16-0.36c-0.05-0.12-0.1-0.24-0.16-0.36c-0.1-0.24-0.2-0.48-0.29-0.73
		c-0.05-0.13-0.09-0.25-0.14-0.37c-0.06-0.16-0.11-0.32-0.16-0.48c-0.01-0.01-0.01-0.03-0.01-0.04c-0.02-0.05-0.03-0.1-0.05-0.15
		c-0.04-0.12-0.07-0.23-0.1-0.35c-0.03-0.12-0.06-0.23-0.09-0.35c-0.07-0.26-0.13-0.52-0.18-0.79c-0.02-0.09-0.04-0.18-0.05-0.27
		c-0.02-0.12-0.05-0.24-0.06-0.36c-0.02-0.12-0.04-0.24-0.06-0.36c-0.02-0.12-0.04-0.24-0.05-0.36c-0.01-0.09-0.03-0.18-0.03-0.27
		c0-0.01,0-0.03,0-0.04c0-0.01,0-0.02,0-0.03c0-0.01-0.01-0.03-0.01-0.05c-0.02-0.24-0.05-0.47-0.06-0.71
		c-0.01-0.13-0.01-0.25-0.02-0.37v-0.04c-0.01-0.23-0.01-0.47-0.01-0.71c0-0.05,0-0.1,0-0.15c0-0.4,0.02-0.8,0.05-1.2
		c0.01-0.15,0.02-0.29,0.04-0.44c0.03-0.34,0.07-0.68,0.13-1.02c0.03-0.16,0.05-0.32,0.08-0.47c0-0.01,0.01-0.02,0.01-0.03
		c0.03-0.17,0.06-0.33,0.1-0.5c0.07-0.33,0.15-0.66,0.25-0.98c0.09-0.32,0.19-0.64,0.3-0.96c0.05-0.15,0.1-0.29,0.16-0.44
		c0.02-0.06,0.04-0.11,0.06-0.17c0.06-0.15,0.12-0.31,0.19-0.46c0.06-0.15,0.13-0.3,0.2-0.45c0.04-0.08,0.08-0.17,0.12-0.25
		c0.04-0.09,0.09-0.19,0.14-0.28c0.09-0.18,0.18-0.35,0.27-0.52c0.09-0.17,0.19-0.35,0.29-0.51c0.07-0.11,0.13-0.22,0.2-0.33
		c0.14-0.22,0.28-0.44,0.42-0.66c0.07-0.11,0.14-0.21,0.22-0.32c0.05-0.08,0.11-0.15,0.17-0.23c0.09-0.13,0.19-0.26,0.3-0.39v0
		c0.16-0.2,0.32-0.4,0.49-0.6c0.34-0.39,0.7-0.77,1.06-1.13c0.06-0.06,0.11-0.12,0.17-0.17c0.06-0.05,0.12-0.11,0.17-0.17
		c0.12-0.11,0.24-0.22,0.36-0.32c0.12-0.1,0.24-0.21,0.36-0.3c0.13-0.11,0.26-0.21,0.39-0.32c0.07-0.05,0.13-0.1,0.2-0.15
		c0,0,0.01-0.01,0.01-0.01c0.02-0.01,0.04-0.03,0.05-0.04c0.01-0.01,0.01-0.01,0.02-0.02c0.11-0.08,0.22-0.17,0.34-0.25
		c0.17-0.12,0.35-0.24,0.53-0.36c0.12-0.08,0.23-0.15,0.35-0.22c0.03-0.02,0.07-0.04,0.1-0.06c0.22-0.13,0.44-0.26,0.67-0.39
		c0.11-0.06,0.23-0.13,0.35-0.19c0.14-0.08,0.29-0.15,0.43-0.22c0.15-0.07,0.29-0.14,0.44-0.21c0.14-0.06,0.28-0.13,0.42-0.18
		c0.14-0.06,0.28-0.12,0.42-0.17c0.02-0.01,0.04-0.02,0.06-0.03c0,0,0,0,0.01,0c0.16-0.06,0.32-0.12,0.48-0.18
		c0.14-0.05,0.28-0.1,0.42-0.14c0.01,0,0.01,0,0.02-0.01c0.15-0.05,0.3-0.09,0.45-0.14c-0.09,0.02-0.17,0.05-0.26,0.07
		c0.13-0.04,0.26-0.07,0.38-0.11c0.26-0.08,0.51-0.14,0.77-0.2c0.26-0.06,0.52-0.12,0.78-0.16c0.12-0.03,0.25-0.05,0.38-0.06
		c0.27-0.04,0.55-0.08,0.82-0.11c-0.11-0.26-0.23-0.51-0.35-0.76v0c-1.4-2.91-3.3-5.64-5.69-8.05c-4.55-4.59-10.21-7.37-16.1-8.34
		c-3.47,4.88-5.52,10.87-5.52,17.34c0,3.43,0.58,6.73,1.64,9.8v0c0.04,0.11,0.07,0.22,0.12,0.32c0.05,0.16,0.11,0.32,0.17,0.47v0
		c0.2,0.53,0.42,1.05,0.65,1.57c0.1,0.22,0.2,0.43,0.3,0.64c0.05,0.11,0.11,0.22,0.16,0.33c0.02,0.05,0.05,0.09,0.07,0.14
		c0.02,0.04,0.04,0.09,0.07,0.13c0.05,0.11,0.11,0.22,0.16,0.33c0.06,0.11,0.11,0.22,0.17,0.32c0.08,0.15,0.17,0.31,0.25,0.46
		c0.09,0.15,0.17,0.31,0.26,0.46c0.09,0.15,0.18,0.3,0.27,0.45c0.09,0.15,0.18,0.3,0.27,0.45l-0.01,0
		c-0.04-0.02-0.07-0.05-0.11-0.06c-0.18-0.12-0.36-0.23-0.54-0.33c-0.05-0.03-0.1-0.06-0.14-0.09c-0.21-0.13-0.42-0.24-0.63-0.37
		c-0.01,0-0.02-0.01-0.04-0.02c-0.23-0.13-0.46-0.26-0.7-0.38h0c-0.25-0.13-0.5-0.25-0.75-0.37c-0.2-0.1-0.4-0.19-0.61-0.28
		c-0.07-0.04-0.15-0.07-0.22-0.1c-0.01,0-0.02-0.01-0.03-0.01c-0.22-0.1-0.45-0.2-0.67-0.29c-0.52-0.22-1.04-0.42-1.58-0.6h0
		c-3.03-1.06-6.28-1.64-9.67-1.64c-6.43,0-12.38,2.08-17.23,5.6c0.97,5.93,3.72,11.62,8.25,16.2c1.2,1.21,2.48,2.3,3.83,3.26
		c1.34,0.96,2.75,1.79,4.2,2.5h0c0.25,0.12,0.5,0.24,0.75,0.36c0.02-0.2,0.05-0.4,0.07-0.6c0-0.01,0-0.02,0-0.03
		c0.03-0.2,0.06-0.4,0.09-0.59l0.07-0.4c0.05-0.27,0.11-0.53,0.18-0.8c0.03-0.12,0.06-0.23,0.09-0.35c0.03-0.09,0.05-0.19,0.08-0.28
		c0.03-0.1,0.06-0.2,0.09-0.29c0.04-0.12,0.07-0.24,0.11-0.36c0.04-0.12,0.08-0.24,0.12-0.35c0.04-0.12,0.08-0.23,0.12-0.34
		c0.05-0.12,0.09-0.24,0.14-0.35c0.04-0.12,0.09-0.23,0.14-0.34c0.1-0.23,0.2-0.45,0.31-0.67c0.21-0.44,0.45-0.87,0.69-1.29
		c0.12-0.21,0.25-0.42,0.39-0.62c0.05-0.08,0.11-0.17,0.16-0.25c0.08-0.12,0.16-0.24,0.25-0.35c0.11-0.16,0.23-0.32,0.35-0.47
		c0.04-0.05,0.09-0.11,0.12-0.16c0.08-0.1,0.16-0.21,0.24-0.31c0.06-0.07,0.12-0.14,0.18-0.21c0.16-0.19,0.32-0.37,0.48-0.55
		c0.08-0.09,0.16-0.18,0.25-0.27c0.08-0.09,0.17-0.17,0.25-0.26c0.05-0.05,0.09-0.09,0.14-0.14c0.04-0.04,0.09-0.09,0.14-0.14
		c0.01-0.01,0.02-0.02,0.04-0.03c0.11-0.1,0.21-0.2,0.32-0.29c0.05-0.05,0.11-0.1,0.16-0.15c0.05-0.05,0.11-0.1,0.16-0.14
		c0.11-0.09,0.22-0.19,0.34-0.28c0.11-0.09,0.22-0.18,0.34-0.27c0.11-0.09,0.23-0.18,0.35-0.26c0.1-0.07,0.19-0.14,0.29-0.21
		c0.04-0.03,0.07-0.05,0.11-0.08c0.12-0.08,0.24-0.16,0.35-0.24c0.24-0.15,0.48-0.31,0.72-0.45c0.12-0.07,0.25-0.14,0.37-0.21
		c0.13-0.07,0.26-0.14,0.38-0.21c0.52-0.27,1.05-0.52,1.6-0.73c0.18-0.08,0.37-0.14,0.55-0.21c0.19-0.07,0.37-0.13,0.56-0.19
		c0.25-0.08,0.51-0.15,0.76-0.22c0.29-0.08,0.58-0.15,0.87-0.21c0.15-0.03,0.3-0.06,0.45-0.09c0.15-0.03,0.3-0.05,0.45-0.08
		c0.15-0.02,0.3-0.04,0.45-0.06c0.15-0.02,0.3-0.04,0.46-0.05c0.3-0.03,0.61-0.05,0.92-0.07c0.14-0.01,0.27-0.01,0.41-0.01
		c0.07,0,0.14,0,0.21,0h0.21c0.5,0,0.98,0.02,1.47,0.06c0.24,0.02,0.48,0.04,0.72,0.08c0.17,0.03,0.35,0.05,0.52,0.08
		c0.17,0.03,0.35,0.06,0.52,0.09l0.05,0.01c0.07,0.01,0.14,0.03,0.21,0.04c0.07,0.01,0.13,0.03,0.2,0.04c0,0,0.01,0,0.01,0
		c0.2,0.04,0.39,0.09,0.58,0.14c0.46,0.12,0.91,0.26,1.35,0.41c0.21,0.07,0.42,0.15,0.62,0.23c0.16,0.06,0.31,0.13,0.47,0.19
		c0.12,0.05,0.24,0.1,0.36,0.16c0.12,0.05,0.24,0.11,0.35,0.17c0.12,0.05,0.23,0.11,0.35,0.17c0.11,0.05,0.23,0.12,0.34,0.18
		c0.11,0.06,0.22,0.12,0.33,0.18c0,0,0,0,0,0c1.83,3.12,3.11,6.59,3.71,10.3c-3.26,2.37-6.89,3.99-10.66,4.85
		c3.77,0.86,7.41,2.47,10.66,4.83c-0.6,3.71-1.87,7.19-3.7,10.3c0.24-0.14,0.47-0.28,0.7-0.42c-0.14,0.23-0.29,0.47-0.42,0.7
		c3.08-1.84,6.53-3.14,10.2-3.75c2.35,3.29,3.95,6.95,4.81,10.75c0.85-3.8,2.45-7.47,4.79-10.76c3.67,0.6,7.13,1.89,10.22,3.73
		c-0.14-0.24-0.27-0.47-0.42-0.7c0.23,0.14,0.46,0.28,0.69,0.42c0.15,0.24,0.29,0.49,0.45,0.73c1.18,1.88,2.56,3.62,4.11,5.19
		c1.56,1.56,3.29,2.96,5.16,4.15c1.17,0.75,2.4,1.41,3.68,1.99c0.38,0.17,0.77,0.34,1.16,0.49c0.27,0.1,0.54,0.21,0.81,0.31
		c0.01,0,0.02,0.01,0.02,0.01c0.12,0.04,0.23,0.09,0.35,0.13c3.03,1.06,6.28,1.63,9.67,1.63c6.43,0,12.38-2.07,17.22-5.59
		c-0.16-0.97-0.36-1.93-0.62-2.88c-0.07-0.28-0.15-0.56-0.24-0.85c-0.03-0.1-0.06-0.19-0.09-0.29c-0.04-0.12-0.08-0.25-0.12-0.37
		c-0.6-1.86-1.39-3.68-2.37-5.42c-0.15-0.27-0.31-0.55-0.47-0.82c0,0,0,0,0,0c-0.4-0.66-0.83-1.31-1.28-1.94
		c-0.91-1.27-1.94-2.49-3.07-3.63c-0.45-0.46-0.91-0.89-1.38-1.32c-1.1-0.98-2.26-1.86-3.46-2.65c-0.34-0.22-0.69-0.44-1.04-0.65h0
		c-0.52-0.31-1.06-0.6-1.59-0.88c0,0,0,0,0,0c-0.18-0.1-0.36-0.19-0.54-0.27c-0.09-0.04-0.17-0.08-0.26-0.12
		c-0.02-0.01-0.04-0.02-0.06-0.03c-0.15-0.07-0.29-0.14-0.43-0.2c-0.56,5.32-3.5,9.92-7.72,12.71c-0.22,0.14-0.44,0.28-0.66,0.41
		c-0.11,0.07-0.22,0.13-0.34,0.19c-0.22,0.13-0.46,0.25-0.69,0.37c-0.12,0.06-0.24,0.12-0.35,0.17c-0.23,0.12-0.47,0.22-0.71,0.32
		c-0.13,0.05-0.26,0.11-0.38,0.16c-0.3,0.12-0.59,0.22-0.89,0.32c-0.1,0.03-0.2,0.06-0.29,0.09c-0.27,0.09-0.54,0.16-0.82,0.23
		c-0.14,0.04-0.27,0.07-0.41,0.1c-0.14,0.03-0.28,0.06-0.42,0.09c-0.28,0.06-0.56,0.11-0.84,0.15c-0.14,0.02-0.29,0.04-0.43,0.06
		c-0.14,0.02-0.29,0.04-0.43,0.05c-0.58,0.06-1.16,0.09-1.75,0.09h-0.2c-0.07,0-0.14,0-0.21,0c0,0-0.01,0-0.01,0c0,0-0.01,0-0.01,0
		c-0.11,0-0.23,0-0.35-0.01c-0.16-0.01-0.31-0.02-0.47-0.03c-0.14-0.01-0.27-0.02-0.41-0.04c-0.15-0.01-0.29-0.03-0.44-0.05
		c-0.01,0-0.02,0-0.03,0h0c-0.05,0-0.09-0.01-0.14-0.02c-0.15-0.02-0.31-0.04-0.46-0.07c-0.18-0.03-0.35-0.06-0.53-0.09
		c-0.11-0.02-0.21-0.04-0.32-0.06c-0.03-0.01-0.06-0.01-0.09-0.02c-0.07-0.01-0.14-0.03-0.21-0.05c-0.03-0.01-0.06-0.01-0.08-0.02
		c-0.11-0.03-0.23-0.05-0.34-0.08c-0.31-0.08-0.61-0.17-0.91-0.27c-0.15-0.04-0.29-0.09-0.44-0.14c-0.5-0.17-0.98-0.36-1.45-0.58
		c-0.47-0.21-0.93-0.45-1.37-0.7c-1.83-3.11-3.12-6.59-3.71-10.3c3.25-2.37,6.89-3.98,10.65-4.85c-3.77-0.86-7.4-2.47-10.66-4.83
		c0.6-3.71,1.87-7.19,3.7-10.3c0.22-0.13,0.45-0.25,0.68-0.37c0.11-0.06,0.23-0.12,0.35-0.17c0.35-0.17,0.7-0.33,1.07-0.47
		c0.24-0.1,0.48-0.19,0.73-0.28c0.22-0.08,0.45-0.15,0.67-0.22c0.23-0.07,0.46-0.14,0.68-0.19c0.23-0.06,0.46-0.12,0.7-0.17
		c0.24-0.05,0.47-0.09,0.71-0.14c0.36-0.06,0.72-0.11,1.08-0.15c0.24-0.03,0.48-0.05,0.73-0.06c0.37-0.03,0.74-0.04,1.12-0.04
		c4.72,0,8.99,1.91,12.1,5.02c0.09,0.09,0.18,0.18,0.27,0.28c0.29,0.3,0.56,0.61,0.82,0.92c0.43,0.51,0.83,1.05,1.2,1.62
		c0.12,0.19,0.24,0.38,0.36,0.57c0.22,0.37,0.43,0.75,0.63,1.14c0.11,0.22,0.21,0.44,0.31,0.65c0.09,0.21,0.18,0.41,0.27,0.63
		c0.06,0.15,0.12,0.31,0.18,0.46c0.17,0.47,0.33,0.94,0.46,1.42c0.18,0.64,0.32,1.3,0.42,1.97c0.04,0.27,0.08,0.54,0.11,0.81
		c0.26-0.12,0.5-0.24,0.76-0.36c2.88-1.41,5.59-3.33,7.98-5.74c4.55-4.59,7.3-10.3,8.26-16.25c-4.84-3.5-10.77-5.56-17.19-5.56
		c-3.4,0-6.67,0.58-9.72,1.65c-0.27,0.09-0.53,0.19-0.8,0.29c-0.52,0.21-1.04,0.42-1.55,0.65c-0.25,0.12-0.51,0.23-0.76,0.36
		c-0.5,0.25-1,0.51-1.49,0.78c-0.48,0.27-0.96,0.56-1.43,0.86c1.18-1.9,2.16-3.93,2.9-6.09v0c1.05-3.06,1.62-6.34,1.62-9.76
		c0-6.49-2.06-12.49-5.55-17.39c-5.88,0.98-11.52,3.75-16.05,8.33c-2.41,2.43-4.31,5.17-5.71,8.1
		C177.06,68.03,176.94,68.28,176.82,68.54z M150.78,89.93l-0.03,0c-0.16,0-0.32,0.01-0.46,0.02c-0.31,0.01-0.64,0.04-1.04,0.08
		l-0.03,0l-0.03,0l-0.46,0.05l-0.03,0l-0.03,0l-0.23,0.03l-0.23,0.03c-0.13,0.02-0.27,0.04-0.4,0.07l-0.11,0.02l-0.02,0l-0.02,0
		l-0.22,0.04l-0.22,0.04l-0.02,0l-0.02,0c-0.3,0.06-0.61,0.14-0.99,0.24l-0.02,0.01l-0.02,0.01c-0.25,0.07-0.53,0.15-0.83,0.24
		c-0.21,0.06-0.44,0.14-0.67,0.23c-0.24,0.09-0.45,0.16-0.64,0.24c-0.59,0.23-1.19,0.51-1.8,0.83c-0.17,0.09-0.32,0.17-0.46,0.25
		c-0.15,0.08-0.29,0.16-0.42,0.24c-0.31,0.18-0.6,0.37-0.81,0.5c-0.1,0.06-0.2,0.13-0.29,0.2l-0.1,0.07l-0.02,0.02l-0.02,0.02
		l0.01-0.01c-0.03,0.02-0.09,0.06-0.16,0.11c-0.09,0.06-0.18,0.13-0.27,0.2c-0.16,0.12-0.3,0.22-0.43,0.32
		c-0.13,0.1-0.25,0.2-0.38,0.3c-0.12,0.1-0.24,0.2-0.36,0.31l-0.02,0.01l-0.02,0.01l-0.09,0.08l-0.05,0.04
		c-0.08,0.07-0.15,0.14-0.21,0.19c-0.09,0.08-0.17,0.16-0.25,0.22l-0.04,0.03l-0.18,0.18l-0.04,0.04c-0.03,0.03-0.07,0.07-0.1,0.1
		l-0.03,0.03c-0.04,0.03-0.07,0.07-0.1,0.1c-0.1,0.1-0.2,0.2-0.29,0.29c-0.1,0.1-0.19,0.2-0.28,0.3c-0.2,0.22-0.39,0.43-0.56,0.63
		l-0.09,0.11l-0.09,0.1l-0.01,0.02l-0.01,0.02c-0.1,0.12-0.19,0.24-0.28,0.36l-0.09,0.12l-0.01,0.01l-0.01,0.02l-0.01,0.02
		c-0.13,0.17-0.26,0.34-0.38,0.52c-0.08,0.11-0.15,0.21-0.23,0.32l-0.06,0.08l-0.02,0.03l-0.02,0.03l-0.08,0.12l-0.08,0.12
		c-0.16,0.24-0.31,0.48-0.45,0.72c-0.28,0.48-0.55,0.98-0.8,1.49c-0.14,0.29-0.25,0.53-0.34,0.76c-0.05,0.12-0.11,0.26-0.17,0.41
		c-0.05,0.12-0.1,0.25-0.15,0.37l-0.01,0.02l0,0.01c-0.03,0.08-0.06,0.16-0.09,0.25l-0.04,0.12c-0.05,0.14-0.1,0.29-0.15,0.44
		c-0.04,0.13-0.09,0.26-0.13,0.39c-0.02,0.06-0.04,0.12-0.06,0.18l-0.03,0.1l-0.01,0.04c-0.59-0.36-1.16-0.73-1.72-1.13
		c-1.23-0.88-2.41-1.88-3.51-2.99c-3.65-3.68-6.14-8.24-7.26-13.27c4.32-2.77,9.29-4.23,14.47-4.23c3.04,0,6.01,0.5,8.85,1.5
		l0.19,0.07c0.42,0.15,0.83,0.31,1.26,0.49c0.19,0.08,0.39,0.16,0.58,0.25l0.12,0.06l0.06,0.02c0.02,0.01,0.03,0.01,0.05,0.02
		l0.04,0.02l0.04,0.02c0.18,0.08,0.36,0.17,0.53,0.25c0.24,0.11,0.47,0.23,0.7,0.35l0.08,0.04c0.17,0.09,0.34,0.18,0.51,0.28
		c0.04,0.02,0.08,0.05,0.13,0.07l0.04,0.02c0.15,0.09,0.31,0.17,0.46,0.26c0.03,0.02,0.06,0.03,0.08,0.05l0.03,0.02l0.02,0.01
		l0.02,0.01c0.05,0.03,0.09,0.05,0.13,0.08c0.79,1.21,1.66,2.37,2.61,3.47H150.78z M157.33,76.92c-0.06,0.11-0.11,0.23-0.16,0.34
		l-0.06,0.12l-0.05,0.11c-0.08,0.17-0.16,0.35-0.24,0.55c-0.07,0.16-0.14,0.34-0.22,0.53c-0.02,0.06-0.05,0.12-0.07,0.19l-0.01,0.02
		l0,0.01c-0.06,0.15-0.11,0.3-0.16,0.46c-0.13,0.35-0.24,0.71-0.35,1.11c-0.1,0.36-0.2,0.73-0.28,1.11
		c-0.04,0.16-0.07,0.31-0.1,0.45l0,0.01l-0.03,0.18c-0.02,0.1-0.03,0.19-0.05,0.29l-0.03,0.2l0,0.01l0,0.01
		c-0.07,0.39-0.12,0.78-0.16,1.21c-0.02,0.16-0.03,0.32-0.04,0.48c-0.03,0.38-0.05,0.76-0.06,1.15c-1.09-0.95-2.24-1.83-3.44-2.63
		l-0.09-0.15l-0.13-0.21l-0.09-0.16c-0.05-0.08-0.09-0.16-0.14-0.24l-0.08-0.14c-0.05-0.1-0.1-0.19-0.15-0.28l-0.03-0.05l-0.14-0.27
		c-0.04-0.08-0.08-0.16-0.12-0.24l-0.04-0.09l-0.03-0.06c-0.02-0.04-0.04-0.08-0.06-0.12l0-0.01l-0.08-0.17l-0.08-0.16
		c-0.09-0.19-0.18-0.39-0.27-0.58c-0.17-0.37-0.32-0.75-0.48-1.15l-0.12-0.3c-0.05-0.13-0.09-0.25-0.14-0.38l-0.02-0.06l-0.02-0.06
		c-0.01-0.01-0.01-0.03-0.02-0.04l-0.06-0.18c-1-2.88-1.5-5.9-1.5-8.97c0-5.2,1.44-10.2,4.17-14.56c5,1.12,9.53,3.64,13.19,7.33
		c1.57,1.58,2.93,3.34,4.06,5.23l-0.07,0.02l-0.06,0.02l-0.06,0.02l-0.11,0.04l-0.18,0.04l-0.07,0.04c-0.1,0.03-0.2,0.07-0.3,0.1
		c-0.14,0.05-0.29,0.1-0.46,0.17l0,0c-0.09,0.03-0.17,0.06-0.24,0.09c-0.13,0.05-0.27,0.11-0.42,0.17c-0.15,0.06-0.31,0.13-0.46,0.2
		c-0.16,0.07-0.33,0.15-0.5,0.23c-0.19,0.09-0.36,0.18-0.5,0.25c-0.1,0.05-0.19,0.1-0.29,0.15l-0.09,0.05l-0.01,0.01l-0.01,0.01
		c-0.27,0.15-0.53,0.3-0.77,0.44l-0.04,0.03l-0.04,0.03c-0.02,0.01-0.03,0.02-0.05,0.03c-0.13,0.08-0.26,0.16-0.39,0.25
		c-0.18,0.12-0.37,0.25-0.58,0.39c-0.1,0.07-0.19,0.13-0.28,0.2c-0.02,0.02-0.05,0.03-0.07,0.05c-0.01,0.01-0.03,0.02-0.04,0.03
		l-0.16,0.1l-0.04,0.05l-0.01,0.01L163,70.01l-0.04,0.03l-0.03,0.02l-0.03,0.02c-0.14,0.11-0.28,0.23-0.42,0.35
		c-0.13,0.11-0.27,0.22-0.41,0.35c-0.16,0.14-0.3,0.27-0.43,0.39l-0.08,0.08l-0.07,0.07c-0.1,0.09-0.18,0.17-0.24,0.23
		c-0.42,0.41-0.82,0.84-1.19,1.27l-0.01,0.01l-0.01,0.01c-0.17,0.2-0.35,0.42-0.54,0.66l-0.55,0.69v0.05
		c-0.1,0.14-0.19,0.27-0.26,0.37c-0.17,0.26-0.33,0.49-0.47,0.73c-0.06,0.09-0.11,0.18-0.16,0.26L158,75.69l-0.01,0.02l-0.01,0.02
		c-0.11,0.19-0.22,0.39-0.33,0.59C157.55,76.5,157.44,76.71,157.33,76.92z M197.31,129.65l0.03,0l0.01,0l0.01,0
		c0.17,0.01,0.34,0.02,0.51,0.03c0.12,0.01,0.24,0.01,0.35,0.01c0.04,0,0.09,0,0.13,0l0.05,0c0.04,0,0.07,0,0.11,0
		c0.09,0,0.17,0,0.26,0c0.69,0,1.36-0.03,1.99-0.1c0.15-0.02,0.33-0.03,0.52-0.06c0.15-0.02,0.31-0.04,0.47-0.06
		c0.33-0.05,0.65-0.11,0.97-0.17c0.15-0.03,0.3-0.06,0.45-0.1c0.18-0.04,0.35-0.08,0.52-0.13c0.32-0.08,0.62-0.16,0.91-0.26
		c0.12-0.03,0.23-0.07,0.34-0.11c0.33-0.11,0.66-0.23,1.02-0.37c0.15-0.06,0.29-0.12,0.44-0.18c0.32-0.13,0.6-0.26,0.84-0.38
		l0.08-0.04l0.28-0.14l0.02-0.01l0.02-0.01c0.3-0.16,0.54-0.28,0.76-0.41c0.15-0.08,0.29-0.16,0.42-0.24
		c0.29-0.17,0.52-0.32,0.73-0.46c3.98-2.62,6.84-6.53,8.15-11.04c0.26,0.16,0.52,0.32,0.78,0.49c1.1,0.72,2.17,1.54,3.17,2.42
		c0.49,0.44,0.9,0.83,1.28,1.22c1.02,1.02,1.96,2.14,2.81,3.32c0.42,0.59,0.81,1.19,1.17,1.78l0.15,0.24
		c0.09,0.15,0.18,0.32,0.29,0.51c0.88,1.56,1.61,3.23,2.16,4.95l0.06,0.18l0.06,0.19c0.03,0.08,0.05,0.16,0.07,0.24l0,0.01l0,0.01
		c0.07,0.24,0.14,0.49,0.22,0.77c0.09,0.36,0.18,0.71,0.26,1.07c-4.31,2.77-9.28,4.23-14.46,4.23c-2.71,0-5.37-0.4-7.91-1.18
		l-0.97-0.33c-0.06-0.02-0.11-0.04-0.17-0.06l-0.02-0.01l-0.15-0.05c-0.23-0.08-0.46-0.17-0.73-0.27c-0.32-0.13-0.66-0.27-1.05-0.45
		c-1.17-0.53-2.3-1.14-3.37-1.82c-1.48-0.94-2.88-2.03-4.15-3.24C197.23,129.64,197.27,129.65,197.31,129.65z M189.76,109.8
		c-1.61,0.79-3.16,1.73-4.63,2.8l-1.25,0.91l0.25,1.54c0.2,1.24,0.47,2.46,0.81,3.66l-3.26-2.01l1.95,3.07
		c-1.12-0.31-2.26-0.56-3.41-0.75l-1.53-0.25l-0.9,1.27c-1.06,1.49-1.98,3.05-2.77,4.68c-0.79-1.63-1.71-3.19-2.77-4.67l-0.9-1.27
		l-1.53,0.25c-1.21,0.2-2.4,0.47-3.57,0.81l1.95-3.19l-3.06,1.95c0.32-1.15,0.58-2.32,0.77-3.51l0.25-1.54l-1.25-0.91
		c-1.47-1.07-3.02-2-4.64-2.8c1.61-0.79,3.16-1.73,4.63-2.8l1.25-0.91l-0.25-1.54c-0.19-1.18-0.45-2.35-0.77-3.5l3.28,2.08
		l-2.08-3.32c1.14,0.32,2.3,0.58,3.48,0.77l1.53,0.25l0.9-1.27c1.06-1.49,1.98-3.05,2.77-4.68c0.67,1.38,1.44,2.71,2.31,3.99v2.18
		l2.9-0.48c1.15-0.19,2.28-0.44,3.39-0.75l-1.99,3.14l3.33-2.07c-0.33,1.19-0.6,2.4-0.8,3.63l-0.25,1.54l1.26,0.91
		C186.6,108.08,188.15,109.01,189.76,109.8z M201.76,86.42c0.29-0.18,0.57-0.34,0.85-0.5c0.45-0.25,0.91-0.49,1.37-0.71
		c0.23-0.11,0.46-0.22,0.69-0.32c0.43-0.2,0.9-0.39,1.42-0.59l0.17-0.06c0.19-0.07,0.38-0.14,0.57-0.21c2.85-1,5.84-1.51,8.89-1.51
		c5.16,0,10.11,1.45,14.43,4.2c-1.11,5.05-3.61,9.62-7.27,13.31c-1.57,1.58-3.31,2.96-5.19,4.1c-0.13-0.44-0.27-0.87-0.43-1.3
		c-0.05-0.14-0.1-0.27-0.16-0.41l-0.04-0.1l0-0.01l0-0.01c-0.1-0.24-0.2-0.49-0.31-0.73c-0.13-0.28-0.24-0.52-0.35-0.74
		c-0.21-0.43-0.46-0.87-0.72-1.31c-0.14-0.24-0.28-0.46-0.41-0.65c-0.43-0.66-0.89-1.29-1.37-1.86c-0.28-0.34-0.6-0.69-0.94-1.05
		c-0.1-0.1-0.21-0.22-0.34-0.34c-3.62-3.6-8.38-5.62-13.45-5.71C200.1,88.8,200.97,87.64,201.76,86.42z M184.66,61.46
		c3.65-3.68,8.17-6.19,13.15-7.32c2.75,4.36,4.19,9.38,4.19,14.6c0,3.06-0.5,6.07-1.48,8.93l-0.06,0.19c-0.6,1.7-1.37,3.35-2.3,4.92
		c-1.2,0.8-2.35,1.68-3.43,2.63c-0.03-1.63-0.26-3.24-0.69-4.81c-0.05-0.19-0.11-0.39-0.18-0.61c-0.01-0.03-0.02-0.05-0.02-0.08
		l0-0.02l-0.01-0.05c-0.09-0.28-0.18-0.56-0.28-0.83v0l-0.05-0.12c-0.02-0.06-0.05-0.13-0.07-0.19l-0.04-0.12
		c-0.06-0.15-0.12-0.3-0.18-0.44c-0.05-0.13-0.11-0.26-0.17-0.4c-0.02-0.05-0.04-0.1-0.06-0.14c-0.02-0.05-0.05-0.11-0.07-0.16
		l-0.03-0.07l-0.01-0.01l-0.01-0.01c-0.07-0.15-0.15-0.31-0.22-0.47l-0.01-0.01l-0.01-0.01c-0.02-0.04-0.05-0.09-0.07-0.13
		c-0.04-0.07-0.07-0.14-0.11-0.22c-0.03-0.06-0.06-0.11-0.09-0.17v-0.02l-0.34-0.59c-0.02-0.04-0.05-0.08-0.07-0.12l0-0.32
		l-0.56-0.56c0-0.01-0.01-0.01-0.01-0.02l-0.07-0.1l-0.01-0.02l-0.01-0.02c-0.11-0.16-0.23-0.34-0.37-0.53
		c-0.1-0.15-0.21-0.28-0.28-0.38c-0.18-0.23-0.37-0.48-0.61-0.76c-0.12-0.14-0.22-0.26-0.32-0.37c-0.12-0.14-0.23-0.26-0.33-0.36
		c-0.07-0.08-0.15-0.16-0.23-0.24c-0.03-0.03-0.06-0.06-0.1-0.1L189,71.83c-0.31-0.32-0.62-0.62-0.95-0.9
		c-0.12-0.11-0.24-0.22-0.35-0.31l-0.01-0.01l-0.1-0.08c-0.15-0.12-0.29-0.24-0.43-0.35c-0.43-0.35-0.89-0.68-1.36-0.99
		c-0.52-0.35-1.07-0.68-1.62-0.97c-0.18-0.09-0.35-0.18-0.53-0.28l-0.01-0.01l-0.01-0.01c-0.28-0.14-0.52-0.25-0.75-0.35
		c-0.12-0.05-0.26-0.12-0.41-0.18c-0.12-0.05-0.24-0.1-0.36-0.15l-0.02-0.01l-0.02-0.01l-0.07-0.03c-0.1-0.04-0.21-0.08-0.31-0.12
		c-0.13-0.05-0.26-0.09-0.39-0.14c-0.13-0.04-0.26-0.09-0.39-0.13c-0.1-0.03-0.21-0.07-0.32-0.1
		C181.7,64.82,183.07,63.05,184.66,61.46z M151.23,127.23c-7.22,0-13.4-4.48-15.97-10.83c-0.1-0.24-0.19-0.49-0.28-0.74
		c-0.05-0.13-0.09-0.25-0.13-0.38c-0.12-0.38-0.23-0.76-0.33-1.15c-0.07-0.26-0.13-0.52-0.18-0.78c-0.11-0.53-0.19-1.07-0.25-1.61h0
		c-0.25,0.12-0.5,0.24-0.75,0.36h0c-2.34,1.15-4.57,2.63-6.6,4.44c-0.24,0.21-0.47,0.42-0.7,0.64c0,0,0,0,0,0
		c-0.23,0.22-0.46,0.44-0.68,0.66v0c-4.54,4.59-7.3,10.3-8.26,16.25c4.84,3.5,10.77,5.57,17.19,5.57c3.4,0,6.68-0.58,9.72-1.65
		c1.33-0.47,2.62-1.03,3.86-1.68c0.74-0.38,1.46-0.81,2.17-1.26c3.73-2.38,6.9-5.58,9.25-9.35c0,0,0,0,0,0
		c0.15-0.24,0.3-0.48,0.44-0.72c-0.89,0.51-1.84,0.95-2.82,1.29C155.13,126.89,153.22,127.23,151.23,127.23z M148.7,132.92
		c-0.66,0.42-1.32,0.81-1.98,1.15c-1.13,0.59-2.32,1.11-3.53,1.54c-2.86,1-5.85,1.51-8.9,1.51c-5.16,0-10.11-1.45-14.43-4.21
		c1.11-5.04,3.6-9.61,7.26-13.31c0.21-0.21,0.42-0.41,0.62-0.61l0.03-0.03c0.2-0.19,0.41-0.38,0.61-0.56
		c1.22-1.09,2.54-2.06,3.93-2.9c0.05,0.18,0.11,0.37,0.17,0.55l0,0.01l0,0.01l0.02,0.06c0.04,0.12,0.08,0.24,0.13,0.37
		c0.1,0.29,0.21,0.58,0.32,0.84c3.04,7.53,10.22,12.4,18.28,12.4c0.54,0,1.07-0.02,1.6-0.06
		C151.56,130.89,150.17,131.98,148.7,132.92z"/>
</g>
</svg>
