<?xml version="1.0" encoding="utf-8"?>
<!-- Generator: Adobe Illustrator 27.8.1, SVG Export Plug-In . SVG Version: 6.00 Build 0)  -->
<svg version="1.1" xmlns="http://www.w3.org/2000/svg" xmlns:xlink="http://www.w3.org/1999/xlink" x="0px" y="0px"
	 viewBox="0 0 350 230" style="enable-background:new 0 0 350 230;" xml:space="preserve">
<style type="text/css">
	.st0{fill:#001C77;}
	.st1{fill:#077275;}
	.st2{fill:#001A5A;}
	.st3{fill:#00FF30;}
	.st4{fill:#809FA0;}
	.st5{fill:#003738;}
	.st6{fill:#D900FF;}
	.st7{fill:#85DD98;}
	.st8{fill:#00DB29;}
	.st9{fill:#48ED67;}
	.st10{fill:#00F9FF;}
	.st11{fill:#009599;}
	.st12{fill:#17CC3A;}
	.st13{fill:#003A0B;}
	.st14{fill:#B2FF61;}
	.st15{fill:#D37F07;}
	.st16{fill:#00E22B;}
	.st17{fill:#004947;}
	.st18{fill:#7600FF;}
	.st19{fill:#603400;}
	.st20{fill:#D67A00;}
	.st21{fill:#026854;}
	.st22{fill:#B76400;}
	.st23{fill:#4F2D05;}
	.st24{fill:#38FF00;}
	.st25{fill:#750009;}
	.st26{fill:#A8AC00;}
	.st27{fill:#E473FF;}
	.st28{fill:#1EA56E;}
	.st29{fill:#FF71F5;}
	.st30{fill-rule:evenodd;clip-rule:evenodd;fill:#009B9B;}
	.st31{fill-rule:evenodd;clip-rule:evenodd;fill:#007F33;}
	.st32{fill:#EC8EA5;}
	.st33{fill:#FFC59C;}
	.st34{fill:#D4D3B2;}
	.st35{fill:#53C6D9;}
	.st36{fill:#BA7DA0;}
	.st37{fill:#D6078C;}
	.st38{fill:#007F33;}
	.st39{fill:#7F3300;}
	.st40{fill:#FF7B22;}
	.st41{fill:#AF0838;}
	.st42{fill:#000093;}
	.st43{fill:#116D2B;}
	.st44{fill:#1F3502;}
	.st45{fill:#AF4161;}
	.st46{fill:#AA007C;}
	.st47{fill:#108E9B;}
	.st48{fill:#934159;}
	.st49{fill-rule:evenodd;clip-rule:evenodd;fill:#C4024D;}
	.st50{fill-rule:evenodd;clip-rule:evenodd;fill:#1A1A1A;}
	.st51{fill:#630625;}
	.st52{fill-rule:evenodd;clip-rule:evenodd;fill:#FFC59C;}
	.st53{fill-rule:evenodd;clip-rule:evenodd;fill:#53C6D9;}
	.st54{fill-rule:evenodd;clip-rule:evenodd;fill:#630625;}
	.st55{fill-rule:evenodd;clip-rule:evenodd;fill:#FFFFFF;}
</style>
<g id="Layer_1">
</g>
<g id="Layer_2">
</g>
<g id="Layer_3">
</g>
<g id="Layer_4">
</g>
<g id="Layer_5">
</g>
<g id="Layer_6">
</g>
<g id="Layer_7">
</g>
<g id="Layer_8">
</g>
<g id="Layer_9">
</g>
<g id="Layer_10">
</g>
<g id="Layer_11">
</g>
<g id="Layer_12">
</g>
<g id="Layer_13">
</g>
<g id="Layer_14">
</g>
<g id="Layer_15">
	<g>
		<path class="st49" d="M200.26,94.47c-3.98,1.9,1.18,4.2,0.19,6.75c-0.44,1.06-1.52,1.93-3.21,2.68c1.62,1.96,2.15,3.58,1.4,4.67
			c-0.37,0.56-0.9,0.81-1.21,1.15c-2.68,2.71-1.68,6.6-0.72,9.84c0.44,1.56-0.22,2.65-1.77,3.02c-2.68,0.65-5.91,0.34-9.71-0.69
			c-10.96-2.61-13.54,1.81-11.46,12.86c-25.03-21.38-8.93-37.01,1.99-55.72c9-17.15,6.38-29.95-5.11-45.6
			c14.01,9.93,20.08,19.83,21.45,33.62c1.25,11.27,7.28,15.72,14.57,20.36c1.49,1,0.56,4.2-3.8,6.07
			C201.79,93.94,200.88,94.16,200.26,94.47L200.26,94.47z M102.74,87.34c14.94,2.74,24.37,8.19,37.88,22.38
			c0.03-1.49,0.16-3.05,0.4-4.61c0.06-0.28,0.09-0.59,0.16-0.87c-12.89-17.21-29.45-27.3-48.56-29.88
			c1.87,54.44,24.28,84.73,67.3,90.83C122.97,151.44,103.92,125.51,102.74,87.34L102.74,87.34z M247.23,87.34
			c-1.15,38.16-20.2,64.09-57.15,77.85c43.02-6.1,65.43-36.39,67.3-90.83c-25.31,3.39-46.07,19.95-59.89,48.68
			C218.22,98.61,228.31,90.83,247.23,87.34L247.23,87.34z"/>
		<path class="st50" d="M206.77,42.33c5.79,2.61,0.22,14.51-6.72,11.39C194.35,51.17,200.32,39.44,206.77,42.33L206.77,42.33z
			 M200.17,27.14c6.85,3.08-0.56,17.49-8.5,13.91C184.82,37.97,192.32,23.62,200.17,27.14L200.17,27.14z M177.82,31.87
			c-8.5-3.83-1.84-28.17,7.91-23.81C195.15,12.29,187.72,36.29,177.82,31.87L177.82,31.87z M214.14,74.08
			c4.89,2.18-0.19,10.68-5.48,8.31C203.84,80.21,208.98,71.78,214.14,74.08L214.14,74.08z M212.68,57.74
			c5.48,2.46-0.47,12.58-5.67,10.24C202.07,65.74,207.26,55.28,212.68,57.74L212.68,57.74z M167.95,135.12
			c-12.3-3.21-19.14-14.76-17.15-26.99c2.8-17.28,16.16-17.34,17.46-29.88c0.62-3.77-0.34-9.18-2.93-12.7
			c1.84,21.66-17.31,22.75-20.26,40.9C142.52,122.18,152.85,132.95,167.95,135.12L167.95,135.12z"/>
	</g>
</g>
</svg>
