<?xml version="1.0" encoding="utf-8"?>
<!-- Generator: Adobe Illustrator 27.8.1, SVG Export Plug-In . SVG Version: 6.00 Build 0)  -->
<svg version="1.1" xmlns="http://www.w3.org/2000/svg" xmlns:xlink="http://www.w3.org/1999/xlink" x="0px" y="0px"
	 viewBox="0 0 350 230" style="enable-background:new 0 0 350 230;" xml:space="preserve">
<style type="text/css">
	.st0{fill:#001C77;}
	.st1{fill:#077275;}
	.st2{fill:#001A5A;}
	.st3{fill:#00FF30;}
	.st4{fill:#809FA0;}
	.st5{fill:#003738;}
	.st6{fill:#D900FF;}
	.st7{fill:#85DD98;}
	.st8{fill:#00DB29;}
	.st9{fill:#48ED67;}
	.st10{fill:#00F9FF;}
	.st11{fill:#009599;}
	.st12{fill:#17CC3A;}
	.st13{fill:#003A0B;}
	.st14{fill:#B2FF61;}
	.st15{fill:#D37F07;}
	.st16{fill:#00E22B;}
	.st17{fill:#004947;}
	.st18{fill:#7600FF;}
	.st19{fill:#603400;}
	.st20{fill:#D67A00;}
	.st21{fill:#026854;}
	.st22{fill:#B76400;}
	.st23{fill:#4F2D05;}
	.st24{fill:#38FF00;}
	.st25{fill:#750009;}
	.st26{fill:#A8AC00;}
	.st27{fill:#E473FF;}
	.st28{fill:#1EA56E;}
	.st29{fill:#FF71F5;}
	.st30{fill-rule:evenodd;clip-rule:evenodd;fill:#009B9B;}
	.st31{fill-rule:evenodd;clip-rule:evenodd;fill:#007F33;}
	.st32{fill:#EC8EA5;}
	.st33{fill:#FFC59C;}
	.st34{fill:#D4D3B2;}
	.st35{fill:#53C6D9;}
	.st36{fill:#BA7DA0;}
	.st37{fill:#D6078C;}
	.st38{fill:#007F33;}
	.st39{fill:#7F3300;}
	.st40{fill:#FF7B22;}
	.st41{fill:#AF0838;}
	.st42{fill:#000093;}
	.st43{fill:#116D2B;}
	.st44{fill:#1F3502;}
	.st45{fill:#AF4161;}
	.st46{fill:#AA007C;}
	.st47{fill:#108E9B;}
	.st48{fill:#934159;}
	.st49{fill-rule:evenodd;clip-rule:evenodd;fill:#C4024D;}
	.st50{fill-rule:evenodd;clip-rule:evenodd;fill:#1A1A1A;}
	.st51{fill:#630625;}
	.st52{fill-rule:evenodd;clip-rule:evenodd;fill:#FFC59C;}
	.st53{fill-rule:evenodd;clip-rule:evenodd;fill:#53C6D9;}
	.st54{fill-rule:evenodd;clip-rule:evenodd;fill:#630625;}
	.st55{fill-rule:evenodd;clip-rule:evenodd;fill:#FFFFFF;}
</style>
<g id="Layer_1">
</g>
<g id="Layer_2">
</g>
<g id="Layer_3">
</g>
<g id="Layer_4">
</g>
<g id="Layer_5">
</g>
<g id="Layer_6">
</g>
<g id="Layer_7">
</g>
<g id="Layer_8">
</g>
<g id="Layer_9">
</g>
<g id="Layer_10">
</g>
<g id="Layer_11">
</g>
<g id="Layer_12">
</g>
<g id="Layer_13">
</g>
<g id="Layer_14">
</g>
<g id="Layer_15">
	<g>
		<path class="st30" d="M249.39,49.32c-0.12,0.06-0.19,0.12-0.31,0.18c-2.63,2.26-5.94,3.86-9.12,5.08
			c-3.61,1.41-7.29,2.63-10.77,4.34c-0.06,0-0.06,0-0.06,0l0,0c-1.35,0.61-2.57,1.35-3.86,2.08l0,0c0,0.06,0,0.06-0.06,0.06
			c-0.24,0.18-0.55,0.31-0.8,0.49c-0.12,0.12-0.18,0.19-0.3,0.25l0,0c-0.06,0-0.06,0-0.06,0c-2.45,1.71-4.41,3.98-5.87,6.49v0.06
			l0,0c-2.26,3.86-3.31,8.32-3.18,12.79c0,0.49,0.49,0.79,0.92,0.67c0.12-0.06,0.3-0.12,0.37-0.31c2.81-4.1,5.75-8.14,9.79-11.08
			c0.67-0.49,1.41-0.98,2.08-1.47c0,0,0,0,0.06-0.06l0,0c0.86-0.61,1.71-1.16,2.51-1.71c0.06,0,0.06,0,0.06,0v-0.06
			c1.71-1.1,3.49-2.14,5.32-3c-1.65,1.22-3.24,2.39-4.83,3.67l0,0c0,0,0,0-0.06,0.06c-0.49,0.37-0.98,0.8-1.47,1.23c0,0,0,0-0.06,0
			c0,0,0,0,0,0.06c-1.04,0.86-2.02,1.71-3,2.69c-2.2,2.08-4.16,4.41-5.81,7.1c-2.88,4.59-4.77,10.16-4.47,15.67
			c0,0.55,0.43,1.04,0.98,1.04c0.12,0,0.19-0.06,0.31-0.06c0.37-0.12,0.73-0.55,0.73-0.98c-0.19-2.75,0.24-5.45,1.16-8.02
			c0.06,0,0.12-0.06,0.18-0.12c3.85-2.45,8.88-3.06,12.97-5.14c5.33-2.75,9.42-7.4,12.06-12.79c2.87-5.81,3.12-12.24,5.45-18.24
			C250.49,49.68,249.88,49.2,249.39,49.32L249.39,49.32z M107.23,54.7c-3.73-3.43-4.22-11.2,2.2-13.83
			c-7.71-6.18-0.24-17.81,7.9-14.5c-0.31-9,11.63-11.63,15.42-4.96c5.87-6.24,15.85-0.24,14.44,6.98
			c28.82-4.96,62.72,0.61,44.55,23.56c0,0,0,0,0,0.06c-0.12,0.12-0.24,0.24-0.31,0.31c0.49,4.47,0,9.12-0.79,13.77
			c-0.92,11.08,15.24,13.52,10.4,20.01c-1.96,2.57-5.69,0.61-6.73,4.83c-0.8,3.06,8.14,7.71-0.43,10.47
			c1.16,0.67,3.12,2.57,3.12,3.67c-0.86,0.43-3.73,0.61-4.65,8.69c-1.59,13.71-17.44,4.9-24.97,3.55
			c-7.47-1.41-8.88,17.44,1.22,27.6c-16.4-7.47-30.97-25.64-34.7-43.57c-2.33,7.71,8.5,36.47,33.72,47.79
			c11.99,5.38,27.84,5.69,40.51,3.98c-57.28,41.18-138-35.62-94.49-91.18c-4.04,1.71-10.34,10.46-13.95,22.46
			C100.01,74.1,102.45,64.01,107.23,54.7L107.23,54.7z M131.03,28.69c0.86-12.48-12.73-8.14-10.41-1.04
			c1.84,4.47,8.75,12.67,8.75,12.67S130.3,38.61,131.03,28.69L131.03,28.69z M119.59,63.33c0,0,4.59,2.45,7.22-2.39
			c1.65-4.59,2.08-15.3,2.08-15.3C128.53,45.77,109.31,58.37,119.59,63.33L119.59,63.33z M107.96,50.3c0,0,1.65,4.9,6.85,3.12
			c4.41-2.14,12.06-9.61,12.06-9.61C126.57,43.63,103.86,39.59,107.96,50.3L107.96,50.3z M110.1,31.69c0,0-2.69,4.47,2.02,7.28
			c4.47,1.9,15.17,2.88,15.17,2.88C127.18,41.55,115.55,21.66,110.1,31.69L110.1,31.69z M140.21,58.5
			c-1.72-4.59-8.39-12.91-8.39-12.91s-0.73,2.14-1.96,11.57C128.4,69.08,141.99,66.33,140.21,58.5L140.21,58.5z M133.67,43.87
			c0,0,9.97,20.93,16.46,11.32c0,0,3-4.22-1.53-7.41C144.25,45.52,133.67,43.87,133.67,43.87L133.67,43.87z M141.13,22.57
			c0,0-4.53-2.45-7.16,2.39c-1.65,4.59-2.08,15.3-2.08,15.3C132.19,40.14,151.47,27.53,141.13,22.57L141.13,22.57z M152.39,37.51
			c0,0-1.1-5.08-6.49-3.92c-4.59,1.71-12.97,8.39-12.97,8.39C133.24,42.1,155.33,48.52,152.39,37.51L152.39,37.51z"/>
		<path class="st31" d="M241.61,87.81c0,0.18,0,0.31-0.06,0.49c-1.65,4.77-1.84,10.04-1.77,14.93c0.18,5.63,0.49,11.2,0.24,16.83
			c0,0,0,0-0.06,0c0,0.06,0,0.06,0,0.06c-0.06,2.08-0.31,4.16-0.62,6.24c0,0-0.06,0-0.06,0.06l0,0c-0.06,0.49-0.12,0.92-0.24,1.41
			c0,0.19-0.06,0.37-0.12,0.49c0,0.06,0,0.06,0,0.06c0,0.06,0,0.06,0,0.06c-0.92,4.16-2.82,8.02-5.38,11.38c0,0.06,0,0.06,0,0.06
			l-0.06,0.06c-3.85,5.02-9.24,9-15.24,11.26c-0.67,0.24-1.34-0.24-1.41-0.92c-0.06-0.18,0-0.43,0.13-0.67
			c3.91-6,7.71-12.06,9.36-19.09c0.31-1.16,0.61-2.39,0.86-3.61v-0.06c0,0,0-0.06,0.06-0.06c0.3-1.41,0.61-2.88,0.86-4.28
			c0-0.06,0-0.06,0-0.06s0-0.06,0.06-0.06c0.49-2.88,0.92-5.81,1.04-8.69c-0.67,2.82-1.41,5.63-2.2,8.38c0,0.06,0,0.06,0,0.06v0.06
			c-0.31,0.86-0.55,1.78-0.86,2.69l0,0c0,0.06,0,0.06,0,0.06c-0.62,1.9-1.23,3.67-1.96,5.51c-1.65,4.1-3.61,8.02-6.24,11.69
			c-2.51,3.49-5.57,6.73-9.06,9.42c-1.96,0.24-4.04,0.49-6.12,0.61c10.59-5.45,4.47-11.87,5.45-24.48
			c0.68-8.69,4.65-16.71,10.34-23.19c6.18-7.04,14.63-10.89,21.23-17.32C240.45,86.52,241.49,87.01,241.61,87.81L241.61,87.81z
			 M207.9,152.31c-0.37,0.24-0.68,0.49-1.04,0.73C207.16,152.8,207.53,152.55,207.9,152.31L207.9,152.31z M206.79,153.04
			c-0.3,0.25-0.67,0.49-1.04,0.67C206.12,153.47,206.49,153.29,206.79,153.04L206.79,153.04z M207.1,33.28c0.06,0,0.06,0,0.12,0.06
			c1.47,1.29,3.36,2.2,5.2,2.88c2.02,0.8,4.1,1.53,6.12,2.45l0,0c0,0.06,0,0.06,0,0.06c0.73,0.31,1.47,0.74,2.2,1.16l0,0l0,0
			c0.19,0.12,0.31,0.18,0.49,0.31c0.06,0.06,0.12,0.06,0.19,0.12l0,0l0,0c1.41,0.98,2.51,2.26,3.36,3.67c0,0.06,0,0.06,0,0.06l0,0
			c1.22,2.14,1.9,4.71,1.78,7.22c0,0.31-0.24,0.49-0.49,0.37c-0.12,0-0.18-0.06-0.24-0.12c-1.59-2.33-3.24-4.59-5.57-6.3
			c-0.37-0.24-0.73-0.55-1.16-0.86l0,0c0,0,0,0-0.06,0c-0.43-0.37-0.92-0.67-1.41-0.98l0,0l0,0c-0.98-0.67-2.02-1.22-3-1.71
			c0.92,0.67,1.83,1.34,2.69,2.08l0,0h0.06c0.24,0.24,0.55,0.49,0.8,0.67c0.06,0.06,0.06,0.06,0.06,0.06l0,0
			c0.61,0.49,1.16,0.98,1.72,1.53c1.22,1.22,2.32,2.51,3.3,4.04c1.65,2.63,2.69,5.75,2.51,8.87c0,0.31-0.24,0.61-0.55,0.55
			c-0.06,0-0.12,0-0.19,0c-0.18-0.06-0.43-0.31-0.37-0.55c0.06-1.53-0.18-3.06-0.67-4.53c-0.06,0-0.12-0.06-0.12-0.06
			c-2.2-1.41-5.02-1.77-7.35-2.94c-3.06-1.53-5.38-4.22-6.86-7.22c-1.65-3.31-1.77-6.98-3.12-10.34
			C206.43,33.47,206.79,33.16,207.1,33.28L207.1,33.28z"/>
	</g>
</g>
</svg>
