<?xml version="1.0" encoding="utf-8"?>
<!-- Generator: Adobe Illustrator 27.8.1, SVG Export Plug-In . SVG Version: 6.00 Build 0)  -->
<svg version="1.1" xmlns="http://www.w3.org/2000/svg" xmlns:xlink="http://www.w3.org/1999/xlink" x="0px" y="0px"
	 viewBox="0 0 350 230" style="enable-background:new 0 0 350 230;" xml:space="preserve">
<style type="text/css">
	.st0{fill:#001C77;}
	.st1{fill:#077275;}
	.st2{fill:#001A5A;}
	.st3{fill:#00FF30;}
	.st4{fill:#809FA0;}
	.st5{fill:#003738;}
	.st6{fill:#D900FF;}
	.st7{fill:#85DD98;}
	.st8{fill:#00DB29;}
	.st9{fill:#48ED67;}
	.st10{fill:#00F9FF;}
	.st11{fill:#009599;}
	.st12{fill:#17CC3A;}
	.st13{fill:#003A0B;}
	.st14{fill:#B2FF61;}
	.st15{fill:#D37F07;}
	.st16{fill:#00E22B;}
	.st17{fill:#004947;}
	.st18{fill:#7600FF;}
	.st19{fill:#603400;}
	.st20{fill:#D67A00;}
	.st21{fill:#026854;}
	.st22{fill:#B76400;}
	.st23{fill:#4F2D05;}
	.st24{fill:#38FF00;}
	.st25{fill:#750009;}
	.st26{fill:#A8AC00;}
	.st27{fill:#E473FF;}
	.st28{fill:#1EA56E;}
	.st29{fill:#FF71F5;}
	.st30{fill-rule:evenodd;clip-rule:evenodd;fill:#009B9B;}
	.st31{fill-rule:evenodd;clip-rule:evenodd;fill:#007F33;}
	.st32{fill:#EC8EA5;}
	.st33{fill:#FFC59C;}
	.st34{fill:#D4D3B2;}
	.st35{fill:#53C6D9;}
	.st36{fill:#BA7DA0;}
	.st37{fill:#D6078C;}
	.st38{fill:#007F33;}
	.st39{fill:#7F3300;}
	.st40{fill:#FF7B22;}
	.st41{fill:#AF0838;}
	.st42{fill:#000093;}
	.st43{fill:#116D2B;}
	.st44{fill:#1F3502;}
	.st45{fill:#AF4161;}
	.st46{fill:#AA007C;}
	.st47{fill:#108E9B;}
	.st48{fill:#934159;}
	.st49{fill-rule:evenodd;clip-rule:evenodd;fill:#C4024D;}
	.st50{fill-rule:evenodd;clip-rule:evenodd;fill:#1A1A1A;}
	.st51{fill:#630625;}
	.st52{fill-rule:evenodd;clip-rule:evenodd;fill:#FFC59C;}
	.st53{fill-rule:evenodd;clip-rule:evenodd;fill:#53C6D9;}
	.st54{fill-rule:evenodd;clip-rule:evenodd;fill:#630625;}
	.st55{fill-rule:evenodd;clip-rule:evenodd;fill:#FFFFFF;}
</style>
<g id="Layer_1">
</g>
<g id="Layer_2">
</g>
<g id="Layer_3">
</g>
<g id="Layer_4">
</g>
<g id="Layer_5">
</g>
<g id="Layer_6">
</g>
<g id="Layer_7">
</g>
<g id="Layer_8">
</g>
<g id="Layer_9">
</g>
<g id="Layer_10">
</g>
<g id="Layer_11">
</g>
<g id="Layer_12">
</g>
<g id="Layer_13">
</g>
<g id="Layer_14">
</g>
<g id="Layer_15">
	<g>
		<path class="st34" d="M246.38,41.97c-0.38,2.96-0.98,6.33-1.2,9.73c-0.44,6.9-0.32,13.86-1.05,20.72
			c-1.71,16.11-10.08,28.01-23.93,36.19c-0.12,0.07-0.27,0.08-0.62,0.19c8.73-10.37,14.35-22.05,17.06-35.12
			c1.44-6.96,1.97-16.61,1.12-20.81c-2.27,0.33-4.59,0.51-6.84,1.04c-12.11,2.83-21.77,9.67-29.99,18.72
			c-9.02,9.92-15.31,21.5-20.16,33.9c-1.93,4.94-3.48,10.02-5.2,15.04c-0.16,0.48-0.33,0.96-0.47,1.4
			c-1.97-5.57-3.79-11.16-5.92-16.63c-4.85-12.4-11.17-23.96-20.21-33.87c-7.83-8.59-16.99-15.18-28.39-18.19
			c-2.69-0.71-5.49-1.01-8.51-1.55c-1.2,21.35,5.02,39.81,18.51,56.29c-4.47-2.56-8.25-5.41-11.65-8.78
			c-7.89-7.81-11.97-17.43-13.12-28.33c-0.53-5.01-0.56-10.08-0.79-15.12c-0.12-2.55-0.05-5.11-0.31-7.65
			c-0.25-2.51-0.81-4.99-1.22-7.42c7.94,4.7,17.2,6.4,25.8,9.84c10.46,4.19,20.12,9.54,27.89,17.89
			c6.54,7.03,10.98,15.26,13.77,24.4c0.53,1.74,1.46,2.99,3.32,3.32c2.22,0.4,3.98-0.75,4.71-3.09c1.89-6.04,4.43-11.78,7.93-17.07
			c7.28-11.02,17.42-18.56,29.45-23.53c7.35-3.04,14.97-5.39,22.43-8.17C241.55,44.3,244.19,42.95,246.38,41.97z"/>
		<path class="st35" d="M176.71,6.01c1.21,3.43,2.12,6.98,3.68,10.22c4.28,8.9,8.88,17.66,13.27,26.51
			c2.72,5.49,5.3,11.05,7.93,16.54c-2.6,2.11-4.97,4.03-7.43,6.04c-1.36-3.16-2.58-6.31-4.04-9.33c-3.04-6.27-6.17-12.49-9.34-18.69
			c-0.58-1.14-1.49-2.12-2.31-3.13c-0.82-1.01-1.87-1.39-3-0.54c-2.36,1.77-4.93,3.36-6.93,5.48c-5.94,6.3-9.34,14.07-12.17,22.13
			c-0.38,1.08-0.74,2.16-1.11,3.24c-0.01,0.04-0.08,0.06-0.19,0.12c-2.41-1.9-4.85-3.81-7.34-5.77c2.1-5.72,4.77-11.19,8.12-16.28
			c4.71-7.17,9.63-14.2,14.38-21.34C173.32,16.54,175.98,11.67,176.71,6.01z"/>
		<path class="st36" d="M219.09,112.53c2.74-1.02,5.15-2.07,7.65-2.83c11.11-3.42,22.31-2.96,33.51-0.53
			c8.49,1.84,16.59,4.8,24.33,8.74c0.5,0.25,0.97,0.55,1.61,0.92c-1.41,0.77-2.63,1.43-3.85,2.09c-8,4.35-15.02,9.89-20.9,16.88
			c-8.35,9.92-18.52,17.31-30.81,21.66c-6.39,2.26-12.99,3.55-19.77,3.26c-11.69-0.49-21.43-4.87-27.98-15
			c-2.26-3.49-2.93-7.54-3.65-11.53c-1.74-9.75,0.93-18.13,8.15-24.98c2.64-2.51,5.39-4.91,8.03-7.42c1.62-1.54,3.23-3.12,4.65-4.84
			c1.39-1.67,2.54-3.54,3.79-5.34c1.67,0.98,2.26,3.04,1.06,5.17c-1.07,1.89-2.4,3.64-3.75,5.34c-1.2,1.5-2.6,2.84-3.88,4.28
			c-0.55,0.62-1.1,1.26-1.55,1.96c-0.64,0.98-1.59,2.01-0.64,3.24c0.99,1.29,2.18,0.52,3.26,0.06c5.37-2.29,9.11-6.29,11.76-11.38
			c2.69-5.17,4.13-10.77,5.65-16.34c0.71-2.6,1.53-5.2,2.56-7.69c0.57-1.37,1.68-2.52,2.54-3.77c0.17,0.09,0.34,0.18,0.51,0.27
			c-0.09,0.35-0.22,0.69-0.28,1.04c-0.53,3.06-1.7,6.17-1.47,9.18c0.95,12.71-4.16,22.82-12.82,31.47c-2.97,2.97-6.3,5.59-9.58,8.24
			c-2.77,2.24-5.43,4.55-7.24,7.67c-4.9,8.44,1.73,15.72,9.43,15.78c8.88,0.08,17.32-2.06,25.56-5.19
			c11.31-4.3,21.57-10.56,31.81-16.87c3.04-1.87,6.21-3.54,9.52-5.41c-1.52-0.99-3.12-2.19-4.85-3.15c-5.46-3-11.41-4.5-17.56-5.19
			c-7.7-0.86-15.39-0.67-23.06,0.39c-0.36,0.05-0.72,0.09-1.09,0.11C219.65,112.84,219.57,112.77,219.09,112.53z M247.06,139.37
			c-0.26,0.15-0.53,0.29-0.79,0.45c-6.96,4.14-14.24,7.55-21.97,10c-8.22,2.61-16.59,4.01-25.22,2.66
			c-2.09-0.33-4.14-0.94-6.21-1.42c4.82,3.23,10.1,5.12,15.86,5.52C224.57,157.69,236.48,149.89,247.06,139.37z M128.22,74.25
			c2.16,1.26,3.19,2.85,3.77,4.63c1.34,4.1,2.55,8.25,3.75,12.39c1.63,5.63,3.54,11.13,7.23,15.8c2.54,3.21,5.77,5.56,9.63,6.93
			c0.64,0.23,1.81,0.07,2.2-0.38c0.39-0.44,0.38-1.62,0.06-2.22c-0.69-1.26-1.65-2.39-2.58-3.51c-1.94-2.31-4.01-4.51-5.88-6.88
			c-0.78-0.99-1.34-2.24-1.72-3.45c-0.52-1.64,0.06-3.05,1.56-4.22c3.39,6.93,9.49,11.29,14.84,16.33
			c4.55,4.28,8.37,9.01,9.65,15.33c1.19,5.88,0.37,11.64-1.36,17.26c-3.16,10.25-10.69,16.03-20.55,18.91
			c-10.56,3.09-20.95,1.49-31.05-2.33c-11.14-4.21-20.58-10.95-28.24-20.01c-6.97-8.25-15.22-14.75-24.87-19.54
			c-0.22-0.11-0.43-0.26-0.85-0.52c0.96-0.51,1.77-0.96,2.59-1.35c13.2-6.38,26.98-10.4,41.78-10.14
			c7.26,0.13,14.27,1.57,20.91,4.56c0.5,0.22,0.97,0.49,1.42,0.83c-16.36-1.5-32.55-2.23-46.73,7.86
			c7.17,4.27,14.14,8.48,21.16,12.6c9.83,5.76,20.02,10.76,31.22,13.2c4.8,1.04,9.77,1.54,14.68,1.72c5.26,0.2,9.66-3.45,10.67-8.15
			c0.57-2.69-0.15-5.16-1.46-7.49c-1.75-3.1-4.33-5.42-7.1-7.59c-2.58-2.02-5.19-4.02-7.59-6.25c-5.24-4.86-9.61-10.39-12.5-16.99
			c-1.46-3.33-2.2-6.84-2.36-10.45C130.26,85.57,131.04,79.88,128.22,74.25z M157.31,151.13c-0.23-0.08-0.33-0.14-0.41-0.13
			c-0.25,0.06-0.5,0.14-0.74,0.22c-4.76,1.56-9.65,2.03-14.63,1.69c-11.27-0.77-21.61-4.58-31.54-9.68c-2.48-1.27-4.9-2.66-7.35-4
			c-0.1,0.14-0.2,0.28-0.3,0.42c3.65,2.9,7.16,6.02,10.99,8.67c9.16,6.32,19.18,9.68,30.48,7.95
			C148.62,155.53,153.12,153.88,157.31,151.13z M185.06,63.7c-0.14,2.77-1.18,5.88-3.99,8.22c-3.95,3.29-9.39,3-12.97-0.72
			c-3.99-4.16-4.27-11.14-0.61-15.62c4.23-5.19,11.7-4.89,15.5,0.63C184.38,58.23,185.11,60.48,185.06,63.7z"/>
	</g>
</g>
</svg>
