<?xml version="1.0" encoding="utf-8"?>
<!-- Generator: Adobe Illustrator 27.8.1, SVG Export Plug-In . SVG Version: 6.00 Build 0)  -->
<svg version="1.1" xmlns="http://www.w3.org/2000/svg" xmlns:xlink="http://www.w3.org/1999/xlink" x="0px" y="0px"
	 viewBox="0 0 350 230" style="enable-background:new 0 0 350 230;" xml:space="preserve">
<style type="text/css">
	.st0{fill:#001C77;}
	.st1{fill:#077275;}
	.st2{fill:#001A5A;}
	.st3{fill:#00FF30;}
	.st4{fill:#809FA0;}
	.st5{fill:#003738;}
	.st6{fill:#D900FF;}
	.st7{fill:#85DD98;}
	.st8{fill:#00DB29;}
	.st9{fill:#48ED67;}
	.st10{fill:#00F9FF;}
	.st11{fill:#009599;}
	.st12{fill:#17CC3A;}
	.st13{fill:#003A0B;}
	.st14{fill:#B2FF61;}
	.st15{fill:#D37F07;}
	.st16{fill:#00E22B;}
	.st17{fill:#004947;}
	.st18{fill:#7600FF;}
	.st19{fill:#603400;}
	.st20{fill:#D67A00;}
	.st21{fill:#026854;}
	.st22{fill:#B76400;}
	.st23{fill:#4F2D05;}
	.st24{fill:#38FF00;}
	.st25{fill:#750009;}
	.st26{fill:#A8AC00;}
	.st27{fill:#E473FF;}
	.st28{fill:#1EA56E;}
	.st29{fill:#FF71F5;}
	.st30{fill-rule:evenodd;clip-rule:evenodd;fill:#009B9B;}
	.st31{fill-rule:evenodd;clip-rule:evenodd;fill:#007F33;}
	.st32{fill:#EC8EA5;}
	.st33{fill:#FFC59C;}
	.st34{fill:#D4D3B2;}
	.st35{fill:#53C6D9;}
	.st36{fill:#BA7DA0;}
	.st37{fill:#D6078C;}
	.st38{fill:#007F33;}
	.st39{fill:#7F3300;}
	.st40{fill:#FF7B22;}
	.st41{fill:#AF0838;}
	.st42{fill:#000093;}
	.st43{fill:#116D2B;}
	.st44{fill:#1F3502;}
	.st45{fill:#AF4161;}
	.st46{fill:#AA007C;}
	.st47{fill:#108E9B;}
	.st48{fill:#934159;}
	.st49{fill-rule:evenodd;clip-rule:evenodd;fill:#C4024D;}
	.st50{fill-rule:evenodd;clip-rule:evenodd;fill:#1A1A1A;}
	.st51{fill:#630625;}
	.st52{fill-rule:evenodd;clip-rule:evenodd;fill:#FFC59C;}
	.st53{fill-rule:evenodd;clip-rule:evenodd;fill:#53C6D9;}
	.st54{fill-rule:evenodd;clip-rule:evenodd;fill:#630625;}
	.st55{fill-rule:evenodd;clip-rule:evenodd;fill:#FFFFFF;}
</style>
<g id="Layer_1">
</g>
<g id="Layer_2">
</g>
<g id="Layer_3">
</g>
<g id="Layer_4">
</g>
<g id="Layer_5">
</g>
<g id="Layer_6">
</g>
<g id="Layer_7">
</g>
<g id="Layer_8">
</g>
<g id="Layer_9">
</g>
<g id="Layer_10">
</g>
<g id="Layer_11">
</g>
<g id="Layer_12">
</g>
<g id="Layer_13">
</g>
<g id="Layer_14">
</g>
<g id="Layer_15">
	<g>
		<path class="st46" d="M157.2,85.96c1.52,0.43,1.74,1.52,2.39,2.61c1.52,3.48,2.83,7.4,5.87,9.57c3.7,2.83,3.91,6.53,3.7,10.44
			c-0.87,9.57-6.74,15.44-16.31,16.09c-3.7,0.22-7.4,0-11.09,0.22c-9.14,0.44-15.23,5.22-17.83,14.14
			c-1.31,4.57-1.96,9.14-1.96,13.7c0,0.87,0.22,1.74,0,2.61c-0.44,2.17,0.44,2.83,2.61,2.83c6.31-0.22,12.4-1.09,18.49-2.18
			c12.18-2.17,23.93-5.87,35.67-8.92c8.7-2.18,17.18-4.35,26.1-4.79c10.87-0.65,21.31,0.87,31.54,4.13
			c1.96,0.65,2.39,0.22,1.96-1.74c-0.43-2.61-1.09-5-1.96-7.61c-3.04-7.61-8.48-11.75-16.75-12.18c-3.92-0.22-7.83-0.22-11.75-0.44
			c-4.13-0.22-7.83-1.52-10.66-4.79c-4.35-5-5.22-11.09-4.79-17.4c0-0.87,0.44-1.31,1.09-1.74c4.13-3.26,6.31-7.61,8.05-12.18
			c0.22-0.87,0.44-1.74,1.52-2.18c1.96-0.65,2.61-2.39,3.05-4.13c1.96-6.53,3.91-13.05,3.26-20.01c0-0.87,0-1.74,0.43-2.61
			c3.05-4.35,2.83-7.4-1.3-11.09c-1.31-1.09-1.31-1.74-0.44-3.05c2.61-3.7,2.61-7.83-0.44-9.14c-3.04-1.52-3.48-3.91-4.57-6.52
			c-0.44-1.09-1.09-2.18-1.74-3.05c-5-6.74-12.18-8.27-20.01-7.18c-9.35,1.52-14.14,6.96-14.14,16.53c0,1.52-0.65,1.74-1.74,2.39
			c-6.09,2.83-10.22,7.61-12.62,13.92c-4.13,10.87-1.3,21.1,2.61,31.32C155.67,84.65,156.11,85.74,157.2,85.96z M175.46,41.37
			c3.48-1.52,6.74-0.65,10.22,2.18c-1.09-2.83-1.96-5.22-1.31-7.83c0.43-2.39,1.31-4.57,4.13-5c2.83-0.44,4.13,1.74,5.22,3.91
			c1.09,2.17,1.09,4.57,0.44,6.96c1.96-2.39,3.92-4.35,7.18-4.57c1.96-0.22,4.35-0.44,5.44,1.96c0.87,1.96,0,5-1.96,6.53
			c-1.3,1.09-2.83,1.74-4.35,2.83c0.65,0.65,1.52,0.44,2.17,0.65c1.31,0.22,2.61,0.87,3.7,1.52c1.96,1.52,3.26,4.78,2.61,6.31
			c-0.87,1.74-3.48,2.61-6.31,1.74c-1.52-0.44-3.26-1.09-4.78-1.96c1.52,2.39,2.61,4.79,1.96,7.61c-0.44,2.18-1.52,3.92-3.91,4.35
			c-2.18,0.43-3.26-1.09-4.57-2.61c-2.17-2.61-2.61-5.66-1.74-8.92c-1.52,3.05-3.48,5.44-6.96,6.31c-1.96,0.44-3.7,0.22-5.22-1.3
			c-1.52-1.74-1.31-3.48-0.44-5.44c1.09-2.17,2.83-3.48,5.65-4.57c-3.26-0.65-6.31-1.3-8.48-3.48
			C171.77,45.5,172.2,42.89,175.46,41.37z"/>
		<path class="st35" d="M93.03,76.82c-4.35-7.4-4.57-15.44-4.13-23.49c0-1.31,0.87-1.52,1.96-1.31
			c14.14,3.48,24.8,13.49,20.66,30.02c-0.87,3.7-1.52,7.39-1.74,11.53C103.04,88.78,96.95,83.78,93.03,76.82z M134.57,83.13
			c-9.35,12.18-9.35,23.49,1.52,35.89c0-3.91,1.96-7.18,3.48-10.44C143.71,99.88,141.75,89.65,134.57,83.13z M117.61,107.27
			c0.65-0.44,1.3-0.65,0.44-1.52c-4.57-5-9.57-9.13-16.31-8.92c-5,0-10.22,1.52-13.7,4.13c-1.09,0.65-1.3,1.09-0.22,2.18
			C97.6,112.93,107.17,112.71,117.61,107.27z M105.21,122.72c-2.61,5.65-2.39,5.87,3.7,6.09c9.14,0.22,15.66-3.48,19.36-11.96
			c1.96-4.57,2.17-4.35-2.61-5C116.09,110.32,109.13,114.01,105.21,122.72z M125.22,94.66c2.39-6.74,1.52-13.05-1.96-19.14
			c-1.31-2.17-1.96-1.74-3.26-0.22c-8.48,9.35-7.61,21.1,2.61,30.23C122.83,101.62,123.92,98.14,125.22,94.66z M241.59,153.6
			c6.96,2.39,13.05,5.87,18.7,10.44c-5.22-1.74-10.22-3.05-15.44-4.57c-20.66-5.87-40.89-4.13-61.12,2.39
			c-11.74,3.7-23.71,7.39-36.11,9.13c-16.75,2.18-32.84,0.87-47.63-8.05c-4.13-2.39-7.61-5.66-10.87-9.14
			c17.18,9.79,35.23,11.75,54.38,8.48c14.35-2.61,28.28-7.4,42.63-10.87C204.83,147.07,223.32,146.86,241.59,153.6z M181.34,168.17
			c19.14-3.26,38.28-5.65,57.86-4.57C219.4,156.86,200.26,159.69,181.34,168.17z M218.1,50.29c5-1.31,10-2.18,13.05-6.74
			c2.61-4.13,3.48-9.14,3.48-14.36c2.18,15.44,4.79,18.49,17.4,21.1c-5,0.65-9.35,1.52-12.62,5c-3.05,3.48-3.7,7.83-4.57,12.18
			C234.41,56.81,228.97,50.94,218.1,50.29z M242.67,97.05c-2.83-3.7-3.48-8.05-4.35-12.62c-0.44,10.44-4.78,17.4-16.09,18.49
			c11.53,0.87,15.23,8.26,16.09,18.27c1.31-13.27,6.09-16.53,15.88-18.27C250.07,101.83,245.5,100.96,242.67,97.05z M125,43.54
			c0.87-8.26,4.57-13.92,13.49-15.01c-9.35-1.09-12.62-7.39-13.49-15.66c-0.65,8.48-3.91,14.57-13.27,15.66
			C120.65,29.62,124.35,35.06,125,43.54z M249.63,121.84c4.13,0.65,5.87,3.48,6.96,7.61c0.87-4.13,2.61-6.74,6.31-7.61
			c-3.7-0.87-5.22-3.7-6.53-7.4C255.51,118.58,253.11,120.76,249.63,121.84z M232.23,85.52c-3.7-0.65-5.44-3.48-6.74-6.96
			c-0.65,3.91-3.26,5.87-6.31,7.18c3.91,1.09,5.87,3.48,6.53,7.39C225.93,88.78,228.54,86.83,232.23,85.52z M132.84,54.85
			c-0.87,3.26-2.83,5-5.87,6.09c3.48,0.65,5,3.26,6.09,6.74c0.22-4.35,2.61-5.87,6.31-6.96C135.66,60.07,133.7,58.12,132.84,54.85z
			 M91.51,137.29c2.83,1.09,4.78,2.61,5.66,6.31c0.44-4.13,3.05-5.22,6.31-6.31c-3.7-0.65-5.44-2.83-6.53-6.09
			C96.29,134.46,94.34,136.2,91.51,137.29z"/>
		<path class="st46" d="M187.65,52.03c-0.65,1.74-0.22,2.61,1.74,1.96c1.52-0.65,1.96,1.52,3.7,0.87c1.09-0.44-0.44-1.74,0.87-1.52
			c1.52,0.22,2.39-0.44,2.18-1.74c-0.22-1.3,0.22-3.26-0.22-3.26c-1.74,0-0.22-2.17-2.39-2.61c-2.17-0.44-3.48-1.09-5.66,0.44
			c-0.65,0.65-1.09,0.87-1.3,1.52C187.43,48.98,184.6,51.16,187.65,52.03z"/>
	</g>
</g>
</svg>
