<?xml version="1.0" encoding="utf-8"?>
<!-- Generator: Adobe Illustrator 27.8.1, SVG Export Plug-In . SVG Version: 6.00 Build 0)  -->
<svg version="1.1" xmlns="http://www.w3.org/2000/svg" xmlns:xlink="http://www.w3.org/1999/xlink" x="0px" y="0px"
	 viewBox="0 0 350 230" style="enable-background:new 0 0 350 230;" xml:space="preserve">
<style type="text/css">
	.st0{fill:#001C77;}
	.st1{fill:#077275;}
	.st2{fill:#001A5A;}
	.st3{fill:#00FF30;}
	.st4{fill:#809FA0;}
	.st5{fill:#003738;}
	.st6{fill:#D900FF;}
	.st7{fill:#85DD98;}
	.st8{fill:#00DB29;}
	.st9{fill:#48ED67;}
	.st10{fill:#00F9FF;}
	.st11{fill:#009599;}
	.st12{fill:#17CC3A;}
	.st13{fill:#003A0B;}
	.st14{fill:#B2FF61;}
	.st15{fill:#D37F07;}
	.st16{fill:#00E22B;}
	.st17{fill:#004947;}
	.st18{fill:#7600FF;}
	.st19{fill:#603400;}
	.st20{fill:#D67A00;}
	.st21{fill:#026854;}
	.st22{fill:#B76400;}
	.st23{fill:#4F2D05;}
	.st24{fill:#38FF00;}
	.st25{fill:#750009;}
	.st26{fill:#A8AC00;}
	.st27{fill:#E473FF;}
	.st28{fill:#1EA56E;}
	.st29{fill:#FF71F5;}
	.st30{fill-rule:evenodd;clip-rule:evenodd;fill:#009B9B;}
	.st31{fill-rule:evenodd;clip-rule:evenodd;fill:#007F33;}
	.st32{fill:#EC8EA5;}
	.st33{fill:#FFC59C;}
	.st34{fill:#D4D3B2;}
	.st35{fill:#53C6D9;}
	.st36{fill:#BA7DA0;}
	.st37{fill:#D6078C;}
	.st38{fill:#007F33;}
	.st39{fill:#7F3300;}
	.st40{fill:#FF7B22;}
	.st41{fill:#AF0838;}
	.st42{fill:#000093;}
	.st43{fill:#116D2B;}
	.st44{fill:#1F3502;}
	.st45{fill:#AF4161;}
	.st46{fill:#AA007C;}
	.st47{fill:#108E9B;}
	.st48{fill:#934159;}
	.st49{fill-rule:evenodd;clip-rule:evenodd;fill:#C4024D;}
	.st50{fill-rule:evenodd;clip-rule:evenodd;fill:#1A1A1A;}
	.st51{fill:#630625;}
	.st52{fill-rule:evenodd;clip-rule:evenodd;fill:#FFC59C;}
	.st53{fill-rule:evenodd;clip-rule:evenodd;fill:#53C6D9;}
	.st54{fill-rule:evenodd;clip-rule:evenodd;fill:#630625;}
	.st55{fill-rule:evenodd;clip-rule:evenodd;fill:#FFFFFF;}
</style>
<g id="Layer_1">
</g>
<g id="Layer_2">
</g>
<g id="Layer_3">
</g>
<g id="Layer_4">
</g>
<g id="Layer_5">
</g>
<g id="Layer_6">
</g>
<g id="Layer_7">
</g>
<g id="Layer_8">
</g>
<g id="Layer_9">
</g>
<g id="Layer_10">
</g>
<g id="Layer_11">
</g>
<g id="Layer_12">
</g>
<g id="Layer_13">
</g>
<g id="Layer_14">
</g>
<g id="Layer_15">
	<g>
		<path class="st39" d="M162.4,143.12c-15.56-19.1-18.12-41.23,0.53-58.54c6.11-5.67,13.55-9.95,20.54-14.63
			c9.98-6.67,20.41-12.72,30.1-19.79c10.11-7.37,17.12-17.28,20.18-29.67c0.1-0.39,0.3-0.76,0.66-1.08c0.13,6.48-1.32,12.63-4,18.44
			c-5.21,11.27-13.52,20.05-23.14,27.59c-9.39,7.37-19.09,14.33-28.54,21.61c-2.54,1.96-4.87,4.26-7,6.67
			c-8.77,9.93-9.72,19.89-3.14,31.41c0.93,1.63,1.94,3.24,3.08,4.74c0.95,1.25,1.19,2.19-0.05,3.45
			C168.49,136.52,165.49,139.82,162.4,143.12z M189.77,51.9c0.14-7.62-6.44-14.33-14.12-14.41c-7.95-0.08-14.52,6.3-14.59,14.18
			c-0.07,7.96,6.3,14.46,14.22,14.51C183.25,66.24,189.62,59.96,189.77,51.9z"/>
		<path class="st35" d="M177.55,92.48c3.29-2.6,6.49-5.13,9.65-7.62c11.37,10.27,15.34,24.01,11.54,37.56
			c-2.94,10.47-8.92,19.18-16.05,27.12c-11.47,12.78-24.69,23.41-40.87,29.57c-25.26,9.61-48.82,5.03-70.98-9.52
			c-9.06-5.95-16-14.1-23.35-21.84c-1.29-1.36-2.53-2.75-3.92-4.27c14.09-13.31,29.69-23.1,49.56-23.39
			c19.96-0.29,36.05,8.49,49.73,22.41c-27.17-17.54-54.08-21.32-81.33,1.58c4.89,3.94,9.31,7.99,14.2,11.34
			c11.81,8.11,24.83,12.86,39.34,12.76c11.52-0.08,22.11-3.44,31.84-9.5c13.09-8.15,24.65-17.99,33.18-31.02
			c4.12-6.3,6.92-13.03,5.41-20.83c-0.92-4.72-3.37-8.66-6.29-12.36C178.74,93.91,178.28,93.37,177.55,92.48z M192.21,170.77
			c24.82,16.14,50.58,17.64,77.19,4.6c11.91-5.84,21.48-14.55,30.19-24.36c2.24-2.53,4.57-4.98,6.85-7.45
			c-15.61-15.32-33.24-24.46-53.11-23.45c-18.43,0.93-33.53,9.29-46.11,22.52c12.37-8.2,25.6-14.06,40.67-14.49
			c15.5-0.45,28.61,5.48,40.21,15.72c-11.04,11.48-23.87,19.36-39.18,22.84c-23.45,5.34-42.71-3.65-60.14-18.4
			c-3.71,3.96-7.2,7.67-11.14,11.87C182.66,163.83,187.27,167.56,192.21,170.77z M86.66,35.65c-1.88,6.6-4.23,13.13-5.56,19.86
			c-2.9,14.73-0.91,28.87,8.48,40.93c13.03,16.72,31.05,22.25,51.57,21.29c0.26-0.01,0.51-0.3,0.73-0.43
			c-5.07-1.87-10.12-3.45-14.94-5.58c-9.24-4.09-18.09-8.93-24.9-16.64c-10.03-11.35-12.59-24.9-11.08-39.51
			c0.31-2.96,1.19-5.87,1.85-8.98c22.02,8.32,28.94,25.13,28.11,46.64C128.43,68.8,116.98,43.54,86.66,35.65z M230.68,61.34
			c-4.41,9.73-4.94,26.59-1,32.52c-0.73-10.23,0.29-19.97,5.19-28.95c4.96-9.08,12.67-14.76,22.9-18.28
			c0.66,4.51,1.59,8.56,1.8,12.64c0.87,16.57-3.95,30.92-17.4,41.44c-8.71,6.81-18.53,11.64-29.1,14.89
			c-1.62,0.5-3.25,0.98-4.88,1.47c12.65,2.39,29.93-1.88,41.14-9.61c6.8-4.69,12.14-10.62,15.77-18.06
			c8.92-18.23,5.08-35.98-1.98-53.86C248.97,40.02,237.08,47.23,230.68,61.34z M168.98,71.45c-10.14-6.44-20.55-12.49-30.35-19.42
			c-11.03-7.81-19.14-18.07-22.4-31.58c-0.04-0.18-0.32-0.31-0.71-0.66c0.4,9.28,3.16,17.48,8.05,25.01
			c7.27,11.19,17.37,19.5,27.89,27.37c3.57,2.67,7.2,5.25,10.73,7.82c3.15-2.39,6.06-4.59,9.19-6.96
			C170.44,72.4,169.72,71.91,168.98,71.45z"/>
	</g>
</g>
</svg>
