<?xml version="1.0" encoding="utf-8"?>
<!-- Generator: Adobe Illustrator 27.8.1, SVG Export Plug-In . SVG Version: 6.00 Build 0)  -->
<svg version="1.1" xmlns="http://www.w3.org/2000/svg" xmlns:xlink="http://www.w3.org/1999/xlink" x="0px" y="0px"
	 viewBox="0 0 350 230" style="enable-background:new 0 0 350 230;" xml:space="preserve">
<style type="text/css">
	.st0{fill:#001C77;}
	.st1{fill:#077275;}
	.st2{fill:#001A5A;}
	.st3{fill:#00FF30;}
	.st4{fill:#809FA0;}
	.st5{fill:#003738;}
	.st6{fill:#D900FF;}
	.st7{fill:#85DD98;}
	.st8{fill:#00DB29;}
	.st9{fill:#48ED67;}
	.st10{fill:#00F9FF;}
	.st11{fill:#009599;}
	.st12{fill:#17CC3A;}
	.st13{fill:#003A0B;}
	.st14{fill:#B2FF61;}
	.st15{fill:#D37F07;}
	.st16{fill:#00E22B;}
	.st17{fill:#004947;}
	.st18{fill:#7600FF;}
	.st19{fill:#603400;}
	.st20{fill:#D67A00;}
	.st21{fill:#026854;}
	.st22{fill:#B76400;}
	.st23{fill:#4F2D05;}
	.st24{fill:#38FF00;}
	.st25{fill:#750009;}
	.st26{fill:#A8AC00;}
	.st27{fill:#E473FF;}
	.st28{fill:#1EA56E;}
	.st29{fill:#FF71F5;}
	.st30{fill-rule:evenodd;clip-rule:evenodd;fill:#009B9B;}
	.st31{fill-rule:evenodd;clip-rule:evenodd;fill:#007F33;}
	.st32{fill:#EC8EA5;}
	.st33{fill:#FFC59C;}
	.st34{fill:#D4D3B2;}
	.st35{fill:#53C6D9;}
	.st36{fill:#BA7DA0;}
	.st37{fill:#D6078C;}
	.st38{fill:#007F33;}
	.st39{fill:#7F3300;}
	.st40{fill:#FF7B22;}
	.st41{fill:#AF0838;}
	.st42{fill:#000093;}
	.st43{fill:#116D2B;}
	.st44{fill:#1F3502;}
	.st45{fill:#AF4161;}
	.st46{fill:#AA007C;}
	.st47{fill:#108E9B;}
	.st48{fill:#934159;}
	.st49{fill-rule:evenodd;clip-rule:evenodd;fill:#C4024D;}
	.st50{fill-rule:evenodd;clip-rule:evenodd;fill:#1A1A1A;}
	.st51{fill:#630625;}
	.st52{fill-rule:evenodd;clip-rule:evenodd;fill:#FFC59C;}
	.st53{fill-rule:evenodd;clip-rule:evenodd;fill:#53C6D9;}
	.st54{fill-rule:evenodd;clip-rule:evenodd;fill:#630625;}
	.st55{fill-rule:evenodd;clip-rule:evenodd;fill:#FFFFFF;}
</style>
<g id="Layer_1">
</g>
<g id="Layer_2">
</g>
<g id="Layer_3">
</g>
<g id="Layer_4">
</g>
<g id="Layer_5">
</g>
<g id="Layer_6">
</g>
<g id="Layer_7">
</g>
<g id="Layer_8">
</g>
<g id="Layer_9">
</g>
<g id="Layer_10">
</g>
<g id="Layer_11">
</g>
<g id="Layer_12">
</g>
<g id="Layer_13">
</g>
<g id="Layer_14">
</g>
<g id="Layer_15">
	<g>
		<path class="st34" d="M164.05,99.36c13.84,42.39,6.94,69.49-10.6,75.22c-17.54,5.73-39.09-12.09-52.93-54.48
			c-13.84-42.39,2.82-99.04,2.82-99.04S150.21,56.97,164.05,99.36z M185.95,99.36c-13.84,42.39-6.94,69.49,10.6,75.22
			s39.09-12.09,52.93-54.48c13.84-42.39-2.82-99.04-2.82-99.04S199.79,56.97,185.95,99.36z"/>
		<path class="st43" d="M147.05,109.99c20.16,30.13,18.4,54.4,3.06,64.66c-15.34,10.26-38.45,2.62-58.6-27.51
			c-20.16-30.13-14.39-81.59-14.39-81.59S126.9,79.86,147.05,109.99z M202.95,109.99c-20.15,30.13-18.4,54.4-3.06,64.66
			c15.34,10.26,38.45,2.62,58.6-27.51c20.15-30.13,14.39-81.59,14.39-81.59S223.1,79.86,202.95,109.99z"/>
		<path class="st44" d="M121.56,125.12c26.02,13.5,34.24,31.39,27.37,44.64c-6.87,13.25-26.23,16.84-52.25,3.34
			c-26.02-13.5-41.99-52.22-41.99-52.22S95.54,111.62,121.56,125.12z M228.44,125.12c-26.02,13.5-34.24,31.39-27.37,44.64
			s26.23,16.84,52.25,3.34c26.02-13.5,41.99-52.22,41.99-52.22S254.46,111.62,228.44,125.12z"/>
		<path class="st33" d="M191.71,25.08c0,9.23-7.48,16.71-16.71,16.71c-9.23,0-16.71-7.48-16.71-16.71c0-9.23,7.48-16.71,16.71-16.71
			C184.23,8.38,191.71,15.86,191.71,25.08z M141.24,23.69c-5,0-9.05,4.05-9.05,9.05s4.05,9.05,9.05,9.05c5,0,9.05-4.05,9.05-9.05
			S146.24,23.69,141.24,23.69z M208.76,23.69c-5,0-9.05,4.05-9.05,9.05s4.05,9.05,9.05,9.05c5,0,9.05-4.05,9.05-9.05
			S213.76,23.69,208.76,23.69z"/>
	</g>
</g>
</svg>
