<?xml version="1.0" encoding="utf-8"?>
<!-- Generator: Adobe Illustrator 27.8.1, SVG Export Plug-In . SVG Version: 6.00 Build 0)  -->
<svg version="1.1" xmlns="http://www.w3.org/2000/svg" xmlns:xlink="http://www.w3.org/1999/xlink" x="0px" y="0px"
	 viewBox="0 0 350 230" style="enable-background:new 0 0 350 230;" xml:space="preserve">
<style type="text/css">
	.st0{fill:#001C77;}
	.st1{fill:#077275;}
	.st2{fill:#001A5A;}
	.st3{fill:#00FF30;}
	.st4{fill:#809FA0;}
	.st5{fill:#003738;}
	.st6{fill:#D900FF;}
	.st7{fill:#85DD98;}
	.st8{fill:#00DB29;}
	.st9{fill:#48ED67;}
	.st10{fill:#00F9FF;}
	.st11{fill:#009599;}
	.st12{fill:#17CC3A;}
	.st13{fill:#003A0B;}
	.st14{fill:#B2FF61;}
	.st15{fill:#D37F07;}
	.st16{fill:#00E22B;}
	.st17{fill:#004947;}
	.st18{fill:#7600FF;}
	.st19{fill:#603400;}
	.st20{fill:#D67A00;}
	.st21{fill:#026854;}
	.st22{fill:#B76400;}
	.st23{fill:#4F2D05;}
	.st24{fill:#38FF00;}
	.st25{fill:#750009;}
	.st26{fill:#A8AC00;}
	.st27{fill:#E473FF;}
	.st28{fill:#1EA56E;}
	.st29{fill:#FF71F5;}
	.st30{fill-rule:evenodd;clip-rule:evenodd;fill:#009B9B;}
	.st31{fill-rule:evenodd;clip-rule:evenodd;fill:#007F33;}
	.st32{fill:#EC8EA5;}
	.st33{fill:#FFC59C;}
	.st34{fill:#D4D3B2;}
	.st35{fill:#53C6D9;}
	.st36{fill:#BA7DA0;}
	.st37{fill:#D6078C;}
	.st38{fill:#007F33;}
	.st39{fill:#7F3300;}
	.st40{fill:#FF7B22;}
	.st41{fill:#AF0838;}
	.st42{fill:#000093;}
	.st43{fill:#116D2B;}
	.st44{fill:#1F3502;}
	.st45{fill:#AF4161;}
	.st46{fill:#AA007C;}
	.st47{fill:#108E9B;}
	.st48{fill:#934159;}
	.st49{fill-rule:evenodd;clip-rule:evenodd;fill:#C4024D;}
	.st50{fill-rule:evenodd;clip-rule:evenodd;fill:#1A1A1A;}
	.st51{fill:#630625;}
	.st52{fill-rule:evenodd;clip-rule:evenodd;fill:#FFC59C;}
	.st53{fill-rule:evenodd;clip-rule:evenodd;fill:#53C6D9;}
	.st54{fill-rule:evenodd;clip-rule:evenodd;fill:#630625;}
	.st55{fill-rule:evenodd;clip-rule:evenodd;fill:#FFFFFF;}
</style>
<g id="Layer_1">
</g>
<g id="Layer_2">
</g>
<g id="Layer_3">
</g>
<g id="Layer_4">
</g>
<g id="Layer_5">
</g>
<g id="Layer_6">
</g>
<g id="Layer_7">
</g>
<g id="Layer_8">
</g>
<g id="Layer_9">
</g>
<g id="Layer_10">
</g>
<g id="Layer_11">
</g>
<g id="Layer_12">
</g>
<g id="Layer_13">
</g>
<g id="Layer_14">
</g>
<g id="Layer_15">
	<g>
		<g>
			<g>
				<g>
					<path class="st51" d="M329.87,142.49c1.1,1.67,2.5,3.21,0.82,3.23c-0.5,0.01-1.41-0.21-2.9-1.64
						c-0.22-0.21-0.44-0.42-0.67-0.64c0.29,0.61,0.53,1.15,0.78,1.61c0.57,1.06-0.69,1.82-2.07-0.26c-1.11-1.68-1.64-3.21-2.33-4.8
						c-2.1-1.95-4.17-3.74-5.68-4.65c0.58,1.36,1.23,2.78,1.35,3.5c0.19,1.15-0.65,2.96-1.61,1.94c-0.65-0.69-1.71-3.11-2.79-5.22
						c-0.51-1-1.88-2.25-2.31-3.4c-0.33-0.89-0.53-1.72-0.64-2.48c-2.07,0.51-5.81,1.39-9.73,2.12c-5.63,1.04-8.65,1.51-13.29,1.7
						c-4.64,0.19-10.92,0.42-11.77-0.97c-0.69-1.14-1.7-6.31-1.62-10.8c-1.6-0.3-2.9-0.59-4.58-1.08
						c-4.41,3.09-27.39,12.41-36.59,13.66H109.79c-2.59-0.18-5.43-0.38-9.16-0.57c-10.41-0.55-34.2-2.88-41.93-1.77
						c-4.37,0.63-17.49,2.3-26.41,1.79c-9.31-0.53-9.31,1.06-9.92,2.04c-2.08,3.39-3.65,4.67-4.87,3.42
						c-1.54-1.58,2.02-5.1,2.3-9.34c0.2-3.02,2.12-3.73,5.73-4.35c3.61-0.62,10.7-3.06,13.07-6.88c2.12-3.42,4.43-6.94,8.52-5.62
						c4.26,1.37,3.49,7.07,10.67,6.52c7.18-0.56,22.54-4.91,26.92-5.78c4.84-0.96,15.85-3.02,32.31,0.06
						c3.16,0.59,7.98,1.05,14.65-0.17c12.76-2.33,32.51-5.59,41.65-9.45c5.42-2.29,14.68-11.05,28.94-10.28
						c15.95,0.87,20.97,9.08,29.93,4.5c6.21-3.18,17.4-13.29,24.13-20.1c8.18-8.29,10.99-11.75,23.68-10.64
						c4.86,0.42,7.51-1.7,8.91-2.84c0.39-0.32,0.73-0.57,1.04-0.76c0.59-2.47,1.62-5.29,3.28-7.63c0.35-0.5,0.73-0.98,1.13-1.44
						c-0.43-0.26-0.77-0.6-1-1.03c-0.63-1.18-0.25-2.74,0.86-4.26c-0.57-0.29-1.01-0.72-1.27-1.27c-0.83-1.78,0.57-4.2,3.13-5.4
						c2.57-1.2,5.32-0.73,6.16,1.06c0.11,0.23,0.18,0.47,0.21,0.72c2.41-0.4,4.43,0.11,5.19,1.52c0.15,0.28,0.24,0.59,0.28,0.91
						c11.02-1.44,19.78,2.57,23.41,8.86c3.23,5.6,1.12,14.66-4.67,16.57c-1.9,3.11-4.86,3.51-6.83,4.77
						c-1.97,1.26-2.32,5.5-3.34,5.9c-0.92,0.36-2.3-0.79-2.79-1.19c-0.52,0.07-0.96,0.59-0.93,1c0.06,0.72-1.16,2.11-2.67,0.22
						c0.17,1.45-1.05,2.47-2.41,1.16c-1.23,0.34-1.5,0.97-2.39,1.66c-0.91,0.71-3.56,0.75-4.49-2.14c-0.66-2.06-1.88-4.37-3.75-5.9
						c-0.74,0.34-1.5,0.7-2.27,1.07c1.04,1.22,2,2.51,1.93,4.52c-0.2,5.83-5.94,26.03-6.15,37.15c3.23,0.74,9.06,1.54,15.89,0.76
						c6.38-0.73,9.66-2.03,14.49,6.61c1.39,2.48,1.9,4.79,3.05,6.37C327.16,138.9,328.44,140.31,329.87,142.49z"/>
				</g>
			</g>
			<g>
				<g>
					<path class="st32" d="M187.93,84.02c-4.25,1.22-7.26,3.71-6.73,5.57c0.53,1.86,4.41,2.38,8.66,1.16
						c4.25-1.22,7.26-3.71,6.73-5.56C196.06,83.32,192.18,82.8,187.93,84.02z M161.49,90.45c-4.34,0.85-7.55,3.08-7.18,4.97
						c0.37,1.9,4.19,2.74,8.53,1.89c4.34-0.85,7.55-3.08,7.18-4.97C169.64,90.44,165.82,89.6,161.49,90.45z M213.29,75.38
						c-4.11,1.63-6.86,4.41-6.15,6.21c0.71,1.8,4.62,1.93,8.73,0.3c4.11-1.63,6.86-4.41,6.15-6.21
						C221.31,73.89,217.4,73.75,213.29,75.38z M134.68,94.33c-4.4,0.46-7.8,2.39-7.6,4.31c0.2,1.92,3.93,3.11,8.32,2.65
						c4.4-0.46,7.8-2.39,7.6-4.31C142.81,95.05,139.08,93.87,134.68,94.33z M107.57,95.9c-4.42,0.03-7.99,1.63-7.98,3.56
						c0.01,1.93,3.61,3.47,8.03,3.44c4.42-0.03,7.99-1.63,7.98-3.56C115.58,97.4,111.99,95.86,107.57,95.9z M246.04,62.76
						c-0.97-1.67-4.85-1.23-8.68,0.98c-3.83,2.21-6.14,5.37-5.17,7.04c0.97,1.67,4.85,1.23,8.68-0.98
						C244.69,67.59,247,64.43,246.04,62.76z"/>
				</g>
			</g>
		</g>
	</g>
</g>
</svg>
