<?xml version="1.0" encoding="utf-8"?>
<!-- Generator: Adobe Illustrator 27.8.1, SVG Export Plug-In . SVG Version: 6.00 Build 0)  -->
<svg version="1.1" xmlns="http://www.w3.org/2000/svg" xmlns:xlink="http://www.w3.org/1999/xlink" x="0px" y="0px"
	 viewBox="0 0 350 230" style="enable-background:new 0 0 350 230;" xml:space="preserve">
<style type="text/css">
	.st0{fill:#001C77;}
	.st1{fill:#077275;}
	.st2{fill:#001A5A;}
	.st3{fill:#00FF30;}
	.st4{fill:#809FA0;}
	.st5{fill:#003738;}
	.st6{fill:#D900FF;}
	.st7{fill:#85DD98;}
	.st8{fill:#00DB29;}
	.st9{fill:#48ED67;}
	.st10{fill:#00F9FF;}
	.st11{fill:#009599;}
	.st12{fill:#17CC3A;}
	.st13{fill:#003A0B;}
	.st14{fill:#B2FF61;}
	.st15{fill:#D37F07;}
	.st16{fill:#00E22B;}
	.st17{fill:#004947;}
	.st18{fill:#7600FF;}
	.st19{fill:#603400;}
	.st20{fill:#D67A00;}
	.st21{fill:#026854;}
	.st22{fill:#B76400;}
	.st23{fill:#4F2D05;}
	.st24{fill:#38FF00;}
	.st25{fill:#750009;}
	.st26{fill:#A8AC00;}
	.st27{fill:#E473FF;}
	.st28{fill:#1EA56E;}
	.st29{fill:#FF71F5;}
	.st30{fill-rule:evenodd;clip-rule:evenodd;fill:#009B9B;}
	.st31{fill-rule:evenodd;clip-rule:evenodd;fill:#007F33;}
	.st32{fill:#EC8EA5;}
	.st33{fill:#FFC59C;}
	.st34{fill:#D4D3B2;}
	.st35{fill:#53C6D9;}
	.st36{fill:#BA7DA0;}
	.st37{fill:#D6078C;}
	.st38{fill:#007F33;}
	.st39{fill:#7F3300;}
	.st40{fill:#FF7B22;}
	.st41{fill:#AF0838;}
	.st42{fill:#000093;}
	.st43{fill:#116D2B;}
	.st44{fill:#1F3502;}
	.st45{fill:#AF4161;}
	.st46{fill:#AA007C;}
	.st47{fill:#108E9B;}
	.st48{fill:#934159;}
	.st49{fill-rule:evenodd;clip-rule:evenodd;fill:#C4024D;}
	.st50{fill-rule:evenodd;clip-rule:evenodd;fill:#1A1A1A;}
	.st51{fill:#630625;}
	.st52{fill-rule:evenodd;clip-rule:evenodd;fill:#FFC59C;}
	.st53{fill-rule:evenodd;clip-rule:evenodd;fill:#53C6D9;}
	.st54{fill-rule:evenodd;clip-rule:evenodd;fill:#630625;}
	.st55{fill-rule:evenodd;clip-rule:evenodd;fill:#FFFFFF;}
</style>
<g id="Layer_1">
</g>
<g id="Layer_2">
</g>
<g id="Layer_3">
</g>
<g id="Layer_4">
</g>
<g id="Layer_5">
</g>
<g id="Layer_6">
</g>
<g id="Layer_7">
</g>
<g id="Layer_8">
</g>
<g id="Layer_9">
</g>
<g id="Layer_10">
</g>
<g id="Layer_11">
</g>
<g id="Layer_12">
</g>
<g id="Layer_13">
</g>
<g id="Layer_14">
</g>
<g id="Layer_15">
	<g>
		<path class="st32" d="M184.95,89.34c-1.3,5.99,0.09,10.03,3.88,12.55c3.91,2.59,5.99,6.05,6,10.32c0.01,6.36,2.82,15.78,6.4,21.93
			c-7.28-3.76-12.07-12.13-12.45-18.78c-0.17-2.94-0.39-5.94-1.18-8.75c-1.26-4.51-4.15-7.78-8.74-9.61
			c2.16,4.01,4.51,7.53,5.98,11.39c1.02,2.68,0.87,5.81,1.13,8.75c0.55,6.42,3.07,11.66,8.42,15.57c2.2,1.61,7.53,6.63,10.51,9.52
			c-1.9-0.69-3.89-1.08-5.96-1.17c-0.91-0.04-1.83,0-2.77,0.08c-0.28-0.03-0.5-0.12-0.73-0.37c-2.36-2.59-7.85-7.4-10.94-8.92
			c-6.08-3.01-8.26-8.01-9-14.18c-0.14-1.19-1.02-4.84-2.13-5.64c-0.46,6.89,0.97,15.7,5.69,19.78c-1.4,5.35-2.57,9.83-3.76,14.31
			c-0.09,0.33-0.47,1.66-0.96,3.27c-0.06,0.03-0.12,0.05-0.17,0.08l-0.96,0.43c-2.19,0.98-4.27,1.91-6.41,2.53
			c-0.89,0.25-1.74,0.36-2.6,0.32c-1.8-0.08-3.56-0.79-5.6-1.62c-1.85-0.75-3.95-1.6-6.49-2.14c-0.8-0.17-1.65-0.28-2.51-0.31
			c-3.4-0.14-6.84,0.78-10.17,1.71c1.48-5.1,4.36-11.31,12.02-16.24c5.68-3.65,7.5-8.23,8.57-13.93c0.65-3.49,1.34-6.99,1.62-10.52
			c0.64-7.9,3.6-14.07,11.55-16.94c0.92-0.33,1.7-1,2.6-1.41c5.04-2.3,7.22-6.28,7.53-11.73c0.16-2.89,0.78-5.92,1.92-8.57
			c2.67-6.22,8.68-8.03,16.04-5.71c5.88,1.85,8.12,9.12,7.18,13.58c-1.96,9.32-8.77,13.53-16.59,16.89
			c-2.12,0.91-3.89,0.21-4.96-1.87C186.35,92.83,185.94,91.65,184.95,89.34z M129.65,146.36c-14.17-10.17-23.2-26.53-26.26-43.53
			c-0.16-1.13-0.65-4.15-0.82-5.31c0,0-0.3,0.55-0.3,0.55c10.31-4.13,21.97-2.6,32.31,0.7c-8.05-12.2-10-28.38-4.84-42.08l0.98-2.63
			c0,0-0.85,0.54-0.85,0.54c7.52,0.58,15.29,2.09,21.95,5.73c2.96,1.6,5.38,4,7.42,6.59c-0.03-2.28-0.02-4.81,0.48-7.1
			c2.09-10.74,8.48-20.12,15.99-27.86l-1.29,0.1c2.15,1.74,4.14,4,5.9,6.29c5.65,7.34,9.25,16.03,11.81,24.88
			c6.81-4.89,17.66-11.73,26.27-9.2c0,0-0.47-0.4-0.47-0.4c3.25,6.55,4.75,14.15,4.75,21.49c-0.02,6.5-1.21,13.03-3.59,19.08
			c-0.33,0.79-1.14,3.01-1.47,3.77c8.33-1.56,22.27-4.12,29.98-0.46c0,0-0.25-0.38-0.25-0.38c0.71,9.96-2.33,20.05-7.05,28.77
			c-0.82,1.3-1.61,2.81-2.46,4.08c-0.62,0.84-2.14,3.1-2.74,3.9c-2.24,2.85-4.82,5.78-7.37,8.35c2.62-2.51,5.26-5.39,7.59-8.18
			c0.59-0.84,2.24-2.98,2.83-3.86c0.88-1.26,1.67-2.78,2.55-4.06c4.97-8.83,8.21-18.87,7.65-29.12l-0.02-0.25
			c0,0-0.23-0.13-0.23-0.13c-4.6-2.35-9.81-2.13-14.78-2.01c-4.96,0.25-9.87,0.87-14.76,1.79c0,0,0.75,0.93,0.75,0.93
			c4.66-10.47,6.3-22.37,3.86-33.64c-0.82-3.86-2.01-7.62-3.86-11.21c-9.06-3.05-19.94,3.49-27.23,8.49c0,0,1.44,0.49,1.44,0.49
			c-0.45-1.43-0.86-2.88-1.33-4.3c-2.43-7.12-5.74-13.98-10.31-20c-2.01-2.63-4.24-5.13-6.95-7.25
			c-6.95,7.06-12.92,15.31-15.89,24.86c-0.96,3.16-1.65,6.26-1.67,9.62c0,0,1.67-0.64,1.67-0.64c-7.25-7.97-18.82-10.03-29.08-10.93
			c0,0-0.64-0.04-0.64-0.04s-0.21,0.57-0.21,0.57c-6.11,14.31-4.99,31.39,3.32,44.62c0,0,0.8-1.09,0.8-1.09
			c-5.11-1.54-10.38-2.49-15.72-2.57c-5.36,0.01-10.72,0.63-15.7,2.77c0,0-0.36,0.16-0.36,0.16s0.06,0.39,0.06,0.39
			c0.37,2.04,0.77,5.16,1.26,7.15C106.41,121.17,115.61,136.83,129.65,146.36L129.65,146.36z"/>
		<path class="st33" d="M237.06,168.26c-9.47,2.93-20.46-2.95-21.31-3.47c-4.12-2.5-4.42-5.89-0.99-9.2
			c-26.85,8.56-21.91,8.74-22.99,9.22c5.03,0.95,11.72,1,18.39,1.74c1.49,0.16,2.97,0.36,4.43,0.62c6.33,1.09,9.46,4.72,2.34,3.59
			c-3.38-0.53-4.61,0.36-5.2,0.37c-2.66,0.06-5.82,0.07-9.13,0.05c-10.65-0.07-22.81-0.45-24.58-0.67
			c-3.91-0.49-5.46-5.08-2.17-7.23c3.64-2.38,6.3-3.95,10.75-6.46c-5.84,1.73-7.85,2.27-13.06,5.63
			c-3.68,2.37-0.25,10.54-39.01,7.69c-16.05-1.18-20.71-2.26-40.38-3.45c8.07-3.93,41.39-4.67,39.64-5.49
			c-7.68-3.6-40.25,1.33-40.25,1.33c13.88-8.15,28.54-8.29,34.87-7.93c8.33,0.46,16.07-4.81,23.2-3.29
			c6.52,1.39,10.02,5.05,15.83,3.39c2.64-0.75,5.16-1.95,7.68-3.07c5.04-2.25,9.93-4.93,15.11-6.78c5.51-1.97,11.34-2.14,16.62,0.88
			c2.08,1.19,3.47,2.65,4.17,4.2c5.05-1.15,10.76-2.52,16.5-3.75C245.43,141.98,250.62,164.07,237.06,168.26z M257.11,87.27
			c0,0-11.8-2-24.29-0.71c-1.02,0.1-2.04,0.23-3.07,0.38c1.02-0.15,2.05-0.28,3.07-0.38c2.32-8.08,5.74-27.12-6.22-45.2
			c0,0-13.61-0.79-29.57,9.58c0.26-19.76-18-33.22-22.22-34.83c-0.01,0.01-19.96,9.91-21.81,34.31
			c-10.64-12.43-29.58-9.06-29.58-9.06c-11.97,18.08-8.55,37.12-6.22,45.2c1.53,0.16,3.06,0.38,4.59,0.65
			c-1.53-0.26-3.06-0.49-4.59-0.65c-12.5-1.29-24.31,0.71-24.31,0.71c-12.31,25.56,2.16,44.34,2.16,44.34
			c8.63,11.99,17.96,17.78,25.89,20.46c1.35-0.07,2.63-0.11,3.83-0.11c1.28,0,2.56,0.04,3.81,0.1c0.31,0.02,0.61,0.03,0.92,0.03
			c1.52,0,3.05-0.21,4.57-0.52c-51.5-17.57-38.1-61.54-38.1-61.54c9.01-1,16.32-1.01,22.24-0.38c2.29,0.24,4.36,0.58,6.25,1
			c-0.42-1.07-0.79-2.13-1.14-3.18c-8.12-24.61,3.49-41.81,3.49-41.81c13.53,0,28,9.46,28.04,9.49c0,0,2.35-20.59,20.71-31.83
			c15.47,9.83,19.62,31.84,19.63,31.81c0.25-0.16,14.59-9.47,28.03-9.47c0,0,11.6,17.2,3.48,41.81h0c-0.34,1.05-0.72,2.1-1.14,3.17
			c1.89-0.42,3.97-0.75,6.26-1c5.91-0.63,13.21-0.61,22.2,0.38c0,0,10.02,32.91-20.6,53.16c3,0.26,5.52,1.25,7.55,2.69
			c4.65-3.33,9.41-7.93,13.98-14.27C254.96,131.62,269.43,112.83,257.11,87.27z"/>
	</g>
</g>
</svg>
