<?xml version="1.0" encoding="utf-8"?>
<!-- Generator: Adobe Illustrator 27.8.1, SVG Export Plug-In . SVG Version: 6.00 Build 0)  -->
<svg version="1.1" xmlns="http://www.w3.org/2000/svg" xmlns:xlink="http://www.w3.org/1999/xlink" x="0px" y="0px"
	 viewBox="0 0 350 230" style="enable-background:new 0 0 350 230;" xml:space="preserve">
<style type="text/css">
	.st0{fill:#001C77;}
	.st1{fill:#077275;}
	.st2{fill:#001A5A;}
	.st3{fill:#00FF30;}
	.st4{fill:#809FA0;}
	.st5{fill:#003738;}
	.st6{fill:#D900FF;}
	.st7{fill:#85DD98;}
	.st8{fill:#00DB29;}
	.st9{fill:#48ED67;}
	.st10{fill:#00F9FF;}
	.st11{fill:#009599;}
	.st12{fill:#17CC3A;}
	.st13{fill:#003A0B;}
	.st14{fill:#B2FF61;}
	.st15{fill:#D37F07;}
	.st16{fill:#00E22B;}
	.st17{fill:#004947;}
	.st18{fill:#7600FF;}
	.st19{fill:#603400;}
	.st20{fill:#D67A00;}
	.st21{fill:#026854;}
	.st22{fill:#B76400;}
	.st23{fill:#4F2D05;}
	.st24{fill:#38FF00;}
	.st25{fill:#750009;}
	.st26{fill:#A8AC00;}
	.st27{fill:#E473FF;}
	.st28{fill:#1EA56E;}
	.st29{fill:#FF71F5;}
	.st30{fill-rule:evenodd;clip-rule:evenodd;fill:#009B9B;}
	.st31{fill-rule:evenodd;clip-rule:evenodd;fill:#007F33;}
	.st32{fill:#EC8EA5;}
	.st33{fill:#FFC59C;}
	.st34{fill:#D4D3B2;}
	.st35{fill:#53C6D9;}
	.st36{fill:#BA7DA0;}
	.st37{fill:#D6078C;}
	.st38{fill:#007F33;}
	.st39{fill:#7F3300;}
	.st40{fill:#FF7B22;}
	.st41{fill:#AF0838;}
	.st42{fill:#000093;}
	.st43{fill:#116D2B;}
	.st44{fill:#1F3502;}
	.st45{fill:#AF4161;}
	.st46{fill:#AA007C;}
	.st47{fill:#108E9B;}
	.st48{fill:#934159;}
	.st49{fill-rule:evenodd;clip-rule:evenodd;fill:#C4024D;}
	.st50{fill-rule:evenodd;clip-rule:evenodd;fill:#1A1A1A;}
	.st51{fill:#630625;}
	.st52{fill-rule:evenodd;clip-rule:evenodd;fill:#FFC59C;}
	.st53{fill-rule:evenodd;clip-rule:evenodd;fill:#53C6D9;}
	.st54{fill-rule:evenodd;clip-rule:evenodd;fill:#630625;}
	.st55{fill-rule:evenodd;clip-rule:evenodd;fill:#FFFFFF;}
</style>
<g id="Layer_1">
</g>
<g id="Layer_2">
</g>
<g id="Layer_3">
</g>
<g id="Layer_4">
</g>
<g id="Layer_5">
</g>
<g id="Layer_6">
</g>
<g id="Layer_7">
</g>
<g id="Layer_8">
</g>
<g id="Layer_9">
</g>
<g id="Layer_10">
</g>
<g id="Layer_11">
</g>
<g id="Layer_12">
</g>
<g id="Layer_13">
</g>
<g id="Layer_14">
</g>
<g id="Layer_15">
	<path class="st45" d="M222.03,142.87C222.03,142.87,222.03,142.87,222.03,142.87c-0.01,0-38.37-10.59-23.75-28.92
		c14.87-18.63,12.42-20.01,2.82-23.01c-4.26-1.33-4.02-4.1-2.44-6.76c0.54-0.92-0.56-1.93-1.43-1.32l-4.71,2.66l1.89-3.41
		c1.02-2.06-0.49-4.22-2.56-3.4c-2.98,1.18-5.75,1.74-6.32,0.12c-1.35-3.82,2.58-10.31-2.55-9.8c-2.75,0.27-8.12,0.77-12.52,1.17
		c-3.98,0.36-7.99-0.59-11.31-2.8c-6.38-4.25-12.56-10.87-23.23-1.47c7.5-0.84,21.18,7.3,28.97,31.93
		c-4.3-2.53-8.47-4.96-12.49-7.28c-4.71-2.71-8.87-5.68-12.48-8.92c-3.61-3.24-6.5-6.93-8.67-11.08c-2.17-4.14-3.26-9.09-3.26-14.84
		c0-4.81,1-9.39,3.01-13.73c2-4.34,4.78-8.15,8.32-11.43c3.54-3.27,7.73-5.86,12.58-7.77c4.84-1.9,10.14-2.86,15.89-2.86
		c7.08,0,14.74,1.77,22.96,5.31c3.61,1.67,6.25,2.51,7.92,2.51c1.74,0,3.16-0.52,4.26-1.55c1.1-1.04,1.99-3.12,2.66-6.27h3.71v47.01
		h-3.71c-1.2-9.02-3.38-16.2-6.52-21.55c-1.54-2.67-3.46-5.08-5.76-7.22c-2.31-2.14-4.81-3.96-7.52-5.46
		c-2.71-1.5-5.58-2.67-8.62-3.51c-3.04-0.83-6.1-1.25-9.17-1.25c-3.41,0-6.58,0.59-9.52,1.75c-2.94,1.17-5.5,2.72-7.67,4.66
		c-2.17,1.94-3.86,4.16-5.06,6.67c-1.2,2.51-1.8,5.1-1.8,7.77c0,3.36,0.71,6.33,2.11,8.91c7.25-2.98,12.22,1.93,17.33,5.33
		c3.33,2.21,7.33,3.17,11.31,2.8c4.4-0.4,9.78-0.9,12.52-1.17c5.13-0.51,1.2,5.99,2.55,9.8c0.57,1.63,3.34,1.06,6.32-0.12
		c2.08-0.82,3.59,1.34,2.56,3.4l-1.89,3.41l4.71-2.66c0.88-0.61,1.98,0.4,1.43,1.32c-1.58,2.67-1.81,5.43,2.44,6.76
		c7.77,2.43,10.85,3.8,3.85,14.12c2.31,2.53,4.25,5.29,5.81,8.29c2.21,4.24,3.31,9.34,3.31,15.29c0,5.08-1.05,9.91-3.16,14.49
		c-0.05,0.11-0.11,0.21-0.16,0.32C218.92,141.51,222.03,142.87,222.03,142.87z M198.59,140.5c-1.24,2.71-3.02,5.08-5.36,7.12
		c-2.34,2.04-5.18,3.66-8.52,4.86c-3.34,1.2-7.12,1.8-11.33,1.8c-3.54,0-7-0.42-10.37-1.25c-3.38-0.83-6.52-2-9.42-3.51
		c-2.91-1.5-5.53-3.29-7.87-5.36c-2.34-2.07-4.24-4.31-5.71-6.72c-1.47-2.47-2.79-5.53-3.96-9.17c-1.17-3.64-2.19-7.9-3.06-12.78
		h-3.71v46.61h3.71c0.47-3.14,1.19-5.21,2.15-6.22c0.97-1,2.29-1.5,3.96-1.5c0.27,0,0.88,0.1,1.85,0.3c0.97,0.2,2.16,0.47,3.56,0.8
		c1.4,0.34,2.94,0.75,4.61,1.25c1.67,0.5,3.31,1.05,4.91,1.65c2.27,0.87,4.23,1.55,5.86,2.06c1.64,0.5,3.22,0.87,4.76,1.1
		c1.54,0.23,3.14,0.38,4.81,0.45c1.67,0.07,3.67,0.1,6.01,0.1c6.28,0,12.04-1.02,17.29-3.06c5.25-2.04,9.76-4.78,13.53-8.22
		c3.11-2.84,5.65-6.07,7.63-9.69c-5.46-1.46-10.02-3.31-13.84-5.47C199.81,137.31,199.31,138.93,198.59,140.5z M157.8,72.08
		c-1.83-1.71-3.87-3.21-6.04-4.45c-1.09-0.62-2.22-1.15-3.38-1.6c-1.17-0.43-2.37-0.77-3.58-0.96c2.25,1,4.3,2.27,6.17,3.76
		c1.89,1.46,3.61,3.11,5.21,4.87c3.17,3.53,5.82,7.49,7.85,11.75c1.02,2.12,1.87,4.33,2.57,6.58c0.69,2.26,1.19,4.57,1.55,6.92
		c0.1,0.59,0.18,1.18,0.22,1.77c0.05,0.59,0.13,1.18,0.16,1.78c0.04,0.6,0.09,1.19,0.11,1.79l0.03,1.8
		c0.01,2.41-0.18,4.82-0.41,7.27c0.88-2.3,1.46-4.71,1.86-7.17c0.36-2.46,0.47-4.97,0.32-7.47c-0.25-5.02-1.57-9.99-3.75-14.54
		C164.51,79.63,161.5,75.48,157.8,72.08z M175.56,111.39c-0.07,0.59-0.1,1.19-0.19,1.78c-0.08,0.59-0.15,1.19-0.25,1.78l-0.33,1.77
		c-0.46,2.36-1.13,4.69-1.84,7.05c1.31-2.08,2.37-4.33,3.24-6.66c0.84-2.34,1.44-4.78,1.8-7.26c0.75-4.97,0.44-10.11-0.8-14.99
		c-1.24-4.89-3.36-9.55-6.32-13.61c-1.46-2.04-3.16-3.91-5.04-5.56c-0.94-0.82-1.95-1.56-3-2.24c-1.06-0.66-2.17-1.23-3.32-1.65
		c2.01,1.42,3.76,3.07,5.3,4.91c1.56,1.81,2.93,3.77,4.14,5.8c2.41,4.09,4.22,8.5,5.37,13.07c0.58,2.28,0.98,4.61,1.22,6.96
		c0.23,2.35,0.26,4.72,0.15,7.09C175.67,110.21,175.64,110.8,175.56,111.39z"/>
</g>
</svg>
