<?xml version="1.0" encoding="utf-8"?>
<!-- Generator: Adobe Illustrator 27.8.1, SVG Export Plug-In . SVG Version: 6.00 Build 0)  -->
<svg version="1.1" xmlns="http://www.w3.org/2000/svg" xmlns:xlink="http://www.w3.org/1999/xlink" x="0px" y="0px"
	 viewBox="0 0 350 230" style="enable-background:new 0 0 350 230;" xml:space="preserve">
<style type="text/css">
	.st0{fill:#001C77;}
	.st1{fill:#077275;}
	.st2{fill:#001A5A;}
	.st3{fill:#00FF30;}
	.st4{fill:#809FA0;}
	.st5{fill:#003738;}
	.st6{fill:#D900FF;}
	.st7{fill:#85DD98;}
	.st8{fill:#00DB29;}
	.st9{fill:#48ED67;}
	.st10{fill:#00F9FF;}
	.st11{fill:#009599;}
	.st12{fill:#17CC3A;}
	.st13{fill:#003A0B;}
	.st14{fill:#B2FF61;}
	.st15{fill:#D37F07;}
	.st16{fill:#00E22B;}
	.st17{fill:#004947;}
	.st18{fill:#7600FF;}
	.st19{fill:#603400;}
	.st20{fill:#D67A00;}
	.st21{fill:#026854;}
	.st22{fill:#B76400;}
	.st23{fill:#4F2D05;}
	.st24{fill:#38FF00;}
	.st25{fill:#750009;}
	.st26{fill:#A8AC00;}
	.st27{fill:#E473FF;}
	.st28{fill:#1EA56E;}
	.st29{fill:#FF71F5;}
	.st30{fill-rule:evenodd;clip-rule:evenodd;fill:#009B9B;}
	.st31{fill-rule:evenodd;clip-rule:evenodd;fill:#007F33;}
	.st32{fill:#EC8EA5;}
	.st33{fill:#FFC59C;}
	.st34{fill:#D4D3B2;}
	.st35{fill:#53C6D9;}
	.st36{fill:#BA7DA0;}
	.st37{fill:#D6078C;}
	.st38{fill:#007F33;}
	.st39{fill:#7F3300;}
	.st40{fill:#FF7B22;}
	.st41{fill:#AF0838;}
	.st42{fill:#000093;}
	.st43{fill:#116D2B;}
	.st44{fill:#1F3502;}
	.st45{fill:#AF4161;}
	.st46{fill:#AA007C;}
	.st47{fill:#108E9B;}
	.st48{fill:#934159;}
	.st49{fill-rule:evenodd;clip-rule:evenodd;fill:#C4024D;}
	.st50{fill-rule:evenodd;clip-rule:evenodd;fill:#1A1A1A;}
	.st51{fill:#630625;}
	.st52{fill-rule:evenodd;clip-rule:evenodd;fill:#FFC59C;}
	.st53{fill-rule:evenodd;clip-rule:evenodd;fill:#53C6D9;}
	.st54{fill-rule:evenodd;clip-rule:evenodd;fill:#630625;}
	.st55{fill-rule:evenodd;clip-rule:evenodd;fill:#FFFFFF;}
</style>
<g id="Layer_1">
</g>
<g id="Layer_2">
</g>
<g id="Layer_3">
</g>
<g id="Layer_4">
</g>
<g id="Layer_5">
</g>
<g id="Layer_6">
</g>
<g id="Layer_7">
</g>
<g id="Layer_8">
</g>
<g id="Layer_9">
</g>
<g id="Layer_10">
</g>
<g id="Layer_11">
</g>
<g id="Layer_12">
</g>
<g id="Layer_13">
</g>
<g id="Layer_14">
</g>
<g id="Layer_15">
	<g>
		<path class="st37" d="M202.56,15.82c11.6,1.77,20.12,11.22,20.88,22.52c0.7,10.41-2.16,20.07-5.98,29.53
			c-5.2,12.89-12.44,24.69-19.54,36.57c-3.6,6.03-7.26,12.03-8.96,18.97c-1.96,7.97-0.67,10.19,7.41,11.56
			c6.49,1.1,13.05,1.72,19.57,2.67c6.84,1,13.24,3.19,18.69,7.59c4.4,3.55,6.92,8.05,5.38,13.82c-1.59,5.91-6.29,8.23-11.87,9.23
			c-5.27,0.94-10.31-0.52-15.35-1.58c-10.97-2.33-22-3.95-33.25-3.33c-9.15,0.5-18.01,2.42-26.65,5.43c-0.7,0.24-1.39,0.49-2.1,0.72
			c-0.11,0.04-0.27-0.06-0.6-0.15c6.56-3.66,13.34-6.3,20.46-8.12c13.36-3.41,26.82-3.13,40.34-1.19c4.54,0.65,9.09,1.23,13.66,1.53
			c1.68,0.11,3.52-0.47,5.11-1.16c3.69-1.6,4.28-4.95,1.44-7.85c-2.93-2.99-6.62-4.86-10.64-5.64c-5.87-1.14-11.83-1.76-17.74-2.72
			c-4.23-0.69-8.5-1.27-12.61-2.42c-7.71-2.17-11.03-8.23-9.71-16.51c1.26-7.87,5.02-14.63,9.12-21.26
			c6.11-9.88,12.45-19.63,18.32-29.65c5.13-8.76,9.37-17.97,11.33-28.05c0.9-4.62,1.16-9.26-0.02-13.87
			c-1.85-7.21-6.7-11.83-13.2-14.96C205.01,16.97,203.97,16.49,202.56,15.82z M152.39,16.04c-3.32,2.55-6.65,4.65-9.42,7.33
			c-6.63,6.42-8.28,14.43-6.6,23.29c2,10.5,6.94,19.77,12.21,28.88c6.45,11.15,13.13,22.15,19.52,33.33
			c3.01,5.27,5.33,10.88,6.53,16.91c1.59,8-2.03,14.33-10.04,16.09c-6.77,1.49-13.7,2.27-20.58,3.2c-5.9,0.79-11.72,1.75-16.87,5
			c-1.12,0.71-2.23,1.5-3.15,2.44c-2.84,2.91-2.22,6.51,1.53,8.03c1.87,0.76,4,1.08,6.04,1.18c6.55,0.33,12.67-1.72,18.88-3.46
			c8.95-2.52,17.91-5.07,27.01-6.94c7.25-1.48,14.6-0.86,21.57,2.06c0.79,0.33,1.54,0.78,2.26,0.79c-4.75-0.36-9.5-1.04-14.25-1.01
			c-7.57,0.05-14.66,2.6-21.69,5.15c-7.5,2.73-14.88,5.78-22.45,8.29c-5.72,1.9-11.7,2.73-17.71,1.2
			c-5.07-1.29-9.03-4.06-10.12-9.45c-1.08-5.3,1.21-9.56,5.25-12.89c6.41-5.29,14.09-7.24,22.12-8.33
			c6.66-0.9,13.33-1.81,19.93-3.08c4.15-0.8,5.18-2.87,4.39-6.96c-1.43-7.45-4.97-14.05-8.47-20.65
			c-5.92-11.18-12.15-22.2-17.87-33.48c-4.36-8.6-7.59-17.64-8.3-27.43c-0.87-12.11,4.37-21.59,15.29-27.2
			C148.96,17.55,150.58,16.88,152.39,16.04z"/>
		<path class="st38" d="M190.9,71.6c-0.49,3.46-1.36,6.56-3.2,9.36c-4.74,7.21-14.22,7.62-19.56,0.84
			c-4.39-5.57-4.51-14.22-0.28-19.91c5.81-7.82,16.45-6.79,20.77,2.16C189.76,66.38,190.17,69.07,190.9,71.6z"/>
		<path class="st38" d="M216.58,106.09c6.36-5.73,10.52-12.44,14.31-20.19c-7.95,3.55-14.49,7.94-19.96,13.9
			c-0.22-0.03-0.43-0.07-0.65-0.1c0.19-2.02,0.16-4.09,0.61-6.05c1.34-5.92,5.55-9.47,10.69-12.01c5.29-2.62,11.04-3.71,16.86-4.44
			c0.35-0.04,0.71,0.03,1.25,0.07c-1.02,8.26-2.48,16.2-7.79,22.83c-3.08,3.85-7.16,5.88-12.06,6.23
			C218.92,106.37,217.97,106.19,216.58,106.09z M144.5,100c-5.17-5.63-11.07-9.74-17.6-12.97c-0.63-0.31-1.29-0.58-2.57-1.15
			c3.83,7.73,7.94,14.46,14.27,20.24c-5.53,0.59-9.95-0.71-13.65-4.22c-4.84-4.59-6.81-10.62-8.18-16.9
			c-0.55-2.5-0.84-5.06-1.33-8.09c3.36,0.59,6.33,0.98,9.24,1.65c5.68,1.3,11.06,3.31,15.3,7.55
			C143.72,89.86,145.12,94.39,144.5,100z M110.68,120.78c6.44,0.31,12.89,0.62,19.28,0.93c-2.51,4.21-6.69,6.08-11.78,6.25
			c-5.16,0.17-14.08-3.12-18.36-6.74c5.28-5.31,10.74-10.3,18.58-11.28c4.08-0.51,7.69,0.79,11.06,3.94
			c-6.9,0.75-12.98,2.94-18.84,5.79C110.64,120.04,110.66,120.41,110.68,120.78z M239.26,119.59c-3.05-1.19-6.06-2.53-9.17-3.52
			c-3.05-0.98-6.22-1.61-9.56-2.45c3.83-3.53,8.23-4.52,13.11-3.3c5.41,1.34,9.63,4.71,13.65,8.37c0.87,0.8,1.73,1.61,2.89,2.7
			c-7.45,4.17-14.58,8.16-23.3,5.83c-3.17-0.85-5.6-2.83-7.52-6.19C226.27,122.18,232.71,121.62,239.26,119.59z"/>
	</g>
</g>
</svg>
