<?xml version="1.0" encoding="utf-8"?>
<!-- Generator: Adobe Illustrator 27.8.1, SVG Export Plug-In . SVG Version: 6.00 Build 0)  -->
<svg version="1.1" xmlns="http://www.w3.org/2000/svg" xmlns:xlink="http://www.w3.org/1999/xlink" x="0px" y="0px"
	 viewBox="0 0 350 230" style="enable-background:new 0 0 350 230;" xml:space="preserve">
<style type="text/css">
	.st0{fill:#001C77;}
	.st1{fill:#077275;}
	.st2{fill:#001A5A;}
	.st3{fill:#00FF30;}
	.st4{fill:#809FA0;}
	.st5{fill:#003738;}
	.st6{fill:#D900FF;}
	.st7{fill:#85DD98;}
	.st8{fill:#00DB29;}
	.st9{fill:#48ED67;}
	.st10{fill:#00F9FF;}
	.st11{fill:#009599;}
	.st12{fill:#17CC3A;}
	.st13{fill:#003A0B;}
	.st14{fill:#B2FF61;}
	.st15{fill:#D37F07;}
	.st16{fill:#00E22B;}
	.st17{fill:#004947;}
	.st18{fill:#7600FF;}
	.st19{fill:#603400;}
	.st20{fill:#D67A00;}
	.st21{fill:#026854;}
	.st22{fill:#B76400;}
	.st23{fill:#4F2D05;}
	.st24{fill:#38FF00;}
	.st25{fill:#750009;}
	.st26{fill:#A8AC00;}
	.st27{fill:#E473FF;}
	.st28{fill:#1EA56E;}
	.st29{fill:#FF71F5;}
	.st30{fill-rule:evenodd;clip-rule:evenodd;fill:#009B9B;}
	.st31{fill-rule:evenodd;clip-rule:evenodd;fill:#007F33;}
	.st32{fill:#EC8EA5;}
	.st33{fill:#FFC59C;}
	.st34{fill:#D4D3B2;}
	.st35{fill:#53C6D9;}
	.st36{fill:#BA7DA0;}
	.st37{fill:#D6078C;}
	.st38{fill:#007F33;}
	.st39{fill:#7F3300;}
	.st40{fill:#FF7B22;}
	.st41{fill:#AF0838;}
	.st42{fill:#000093;}
	.st43{fill:#116D2B;}
	.st44{fill:#1F3502;}
	.st45{fill:#AF4161;}
	.st46{fill:#AA007C;}
	.st47{fill:#108E9B;}
	.st48{fill:#934159;}
	.st49{fill-rule:evenodd;clip-rule:evenodd;fill:#C4024D;}
	.st50{fill-rule:evenodd;clip-rule:evenodd;fill:#1A1A1A;}
	.st51{fill:#630625;}
	.st52{fill-rule:evenodd;clip-rule:evenodd;fill:#FFC59C;}
	.st53{fill-rule:evenodd;clip-rule:evenodd;fill:#53C6D9;}
	.st54{fill-rule:evenodd;clip-rule:evenodd;fill:#630625;}
	.st55{fill-rule:evenodd;clip-rule:evenodd;fill:#FFFFFF;}
</style>
<g id="Layer_1">
</g>
<g id="Layer_2">
</g>
<g id="Layer_3">
</g>
<g id="Layer_4">
</g>
<g id="Layer_5">
</g>
<g id="Layer_6">
</g>
<g id="Layer_7">
</g>
<g id="Layer_8">
</g>
<g id="Layer_9">
</g>
<g id="Layer_10">
</g>
<g id="Layer_11">
</g>
<g id="Layer_12">
</g>
<g id="Layer_13">
</g>
<g id="Layer_14">
</g>
<g id="Layer_15">
	<g>
		<path class="st40" d="M117.38,156.89c-0.09,0-0.17,0-0.25-0.01c-2.1-0.13-4.22-1.4-4.64-2.78c-0.15-0.51-0.07-0.98,0.24-1.36
			c0.51-0.62,1.59-0.91,2.9-0.79l0.01,0c1.39,0.2,4.74,1.45,6.54,2.12c0.58,0.22,1.14,0.42,1.22,0.44l-0.05,0.21l0.22,0.1
			c0,0,0,0,0,0l0,0c0,0,0,0,0,0c-0.03,0.07-0.06,0.12-0.14,0.12C122.68,155.45,119.23,156.89,117.38,156.89z M115.05,152.37
			c-0.9,0-1.63,0.24-1.98,0.65c-0.22,0.26-0.27,0.58-0.16,0.95c0.36,1.2,2.34,2.36,4.24,2.47c1.58,0.15,4.52-1.13,5.65-1.66
			c-0.2-0.07-0.45-0.17-0.78-0.29c-1.78-0.67-5.1-1.91-6.45-2.1C115.4,152.38,115.22,152.37,115.05,152.37z M124.38,154.81
			l-0.01-0.44c-2.75,0.09-5.56,0.01-8.33-0.22L116,154.6c2.03,0.17,4.08,0.25,6.11,0.25C122.87,154.85,123.63,154.84,124.38,154.81z
			 M124.1,153.79l-0.09-0.05c-0.04-0.02-0.07-0.03-0.09-0.07c-0.65-0.61-4.12-4.9-4.47-6.67c-0.31-1.21-0.18-2.31,0.34-2.96
			c0.3-0.37,0.7-0.56,1.17-0.54c1.22,0.06,2.53,1.51,3.13,3.47c0.41,1.49,0.3,4.85,0.25,6.12c0,0.13-0.01,0.23-0.01,0.31l0.38,0.15
			L124.1,153.79z M120.9,143.95c-0.3,0-0.56,0.13-0.76,0.38c-0.43,0.53-0.53,1.52-0.26,2.58l0,0.01c0.3,1.48,3.05,4.95,4.03,6.09
			c0.04-1.3,0.15-4.52-0.24-5.91c-0.52-1.72-1.72-3.1-2.72-3.15C120.93,143.95,120.92,143.95,120.9,143.95z M124.61,154.46
			c-1.08-2.54-1.99-5.16-2.7-7.77l-0.43,0.12c0.72,2.63,1.64,5.27,2.72,7.83L124.61,154.46z M109.19,149.22
			c-0.33,0-0.64-0.03-0.89-0.08c-2.01-0.41-3.88-1.94-4.07-3.35c-0.07-0.52,0.08-0.97,0.44-1.3c0.59-0.53,1.69-0.67,2.94-0.37
			l0.01,0c1.33,0.39,4.38,2.07,6.03,2.97c0.52,0.28,1,0.55,1.08,0.58l-0.08,0.2l0.21,0.12c-0.05,0.09-0.08,0.14-0.19,0.12
			C113.93,148.43,111.07,149.22,109.19,149.22z M106.37,144.41c-0.6,0-1.1,0.14-1.4,0.41c-0.25,0.23-0.35,0.53-0.3,0.91
			c0.16,1.22,1.91,2.61,3.72,2.98c1.51,0.34,4.54-0.49,5.71-0.86c-0.17-0.09-0.39-0.21-0.67-0.37c-1.63-0.89-4.65-2.56-5.93-2.94
			C107.1,144.45,106.72,144.41,106.37,144.41z M115.68,147.66c-2.67-0.28-5.37-0.73-8.01-1.33l-0.1,0.43
			c2.66,0.6,5.38,1.06,8.07,1.34L115.68,147.66z M115.53,147.07l-0.09-0.06c-0.05-0.03-0.08-0.05-0.08-0.1
			c-0.53-0.75-3.19-5.31-3.27-7.1c-0.11-1.22,0.18-2.29,0.8-2.85c0.35-0.32,0.77-0.45,1.22-0.36c1.18,0.22,2.23,1.83,2.5,3.82
			c0.16,1.51-0.48,4.77-0.73,6c-0.02,0.12-0.04,0.23-0.06,0.3l0.32,0.19L115.53,147.07z M113.84,137.01c-0.24,0-0.47,0.09-0.66,0.27
			c-0.5,0.46-0.75,1.41-0.65,2.49l0,0.01c0.06,1.52,2.16,5.23,2.93,6.48c0.25-1.26,0.86-4.39,0.71-5.79
			c-0.24-1.74-1.18-3.26-2.14-3.44C113.96,137.02,113.9,137.01,113.84,137.01z M115.91,147.78c-0.63-2.63-1.09-5.3-1.38-7.95
			l-0.44,0.05c0.29,2.66,0.75,5.36,1.39,8L115.91,147.78z M103.22,140.66c-0.9,0-1.75-0.08-2.32-0.29c-1.91-0.68-3.5-2.44-3.48-3.85
			c0.01-0.52,0.22-0.94,0.63-1.21c0.66-0.44,1.75-0.42,2.93,0.05l0.01,0c1.26,0.57,4,2.65,5.48,3.77c0.44,0.34,0.86,0.65,0.93,0.69
			l-0.11,0.19l0.02,0.01l0.18,0.12l-0.05,0.08l-0.1,0.02c-0.02,0-0.04,0.01-0.06,0C106.69,140.41,104.86,140.66,103.22,140.66z
			 M99.26,135.44c-0.39,0-0.73,0.08-0.97,0.24c-0.28,0.19-0.43,0.47-0.43,0.85c-0.02,1.22,1.47,2.82,3.19,3.43
			c1.41,0.54,4.5,0.14,5.7-0.05c-0.14-0.11-0.32-0.24-0.56-0.42c-1.46-1.11-4.17-3.16-5.39-3.71
			C100.25,135.55,99.72,135.44,99.26,135.44z M108.32,139.93c-2.55-0.64-5.11-1.45-7.62-2.41l-0.16,0.41
			c2.52,0.96,5.1,1.78,7.67,2.42L108.32,139.93z M108.28,139.35l-0.08-0.08c0,0,0,0,0,0c-0.04-0.03-0.06-0.06-0.07-0.1
			c-0.45-0.81-2.3-5.68-2.13-7.41c0.07-1.22,0.52-2.22,1.2-2.68c0.39-0.26,0.82-0.33,1.25-0.19c1.13,0.38,1.92,2.1,1.88,4.09
			c-0.07,1.5-1.2,4.61-1.63,5.79c-0.04,0.11-0.07,0.2-0.1,0.27l0.25,0.22L108.28,139.35z M108.01,129.26
			c-0.19,0-0.38,0.06-0.56,0.18c-0.56,0.38-0.95,1.28-1.01,2.34l0,0.01c-0.16,1.47,1.32,5.38,1.88,6.73
			c0.41-1.12,1.51-4.17,1.57-5.56c0.03-1.74-0.66-3.34-1.58-3.65C108.21,129.28,108.11,129.26,108.01,129.26z M108.53,140.09
			c-0.21-2.66-0.26-5.34-0.14-7.96l-0.44-0.02c-0.12,2.64-0.07,5.34,0.14,8.01L108.53,140.09z M100.17,131.57
			c-1.54,0-4.09-0.19-5.22-0.81c-1.78-0.93-3.1-2.89-2.88-4.27c0.08-0.51,0.35-0.89,0.79-1.1c0.71-0.34,1.79-0.17,2.88,0.46
			l0.01,0.01c1.17,0.74,3.57,3.17,4.86,4.48c0.38,0.38,0.74,0.75,0.8,0.79l-0.13,0.17l0.01,0.01l0.17,0.14l-0.06,0.08l-0.1,0
			c-0.03,0-0.04,0-0.07,0C101.01,131.55,100.63,131.57,100.17,131.57z M93.68,125.66c-0.24,0-0.46,0.04-0.64,0.13
			c-0.3,0.14-0.48,0.4-0.54,0.77c-0.19,1.19,1.05,2.97,2.65,3.81c1.31,0.73,4.39,0.78,5.6,0.74c-0.12-0.12-0.27-0.27-0.47-0.47
			c-1.28-1.29-3.65-3.7-4.78-4.41C94.86,125.86,94.21,125.66,93.68,125.66z M102.29,131.36c-2.41-0.98-4.81-2.14-7.13-3.43
			l-0.21,0.39c2.34,1.3,4.76,2.46,7.18,3.45L102.29,131.36z M102.34,130.78l-0.07-0.09c0,0,0,0,0-0.01
			c-0.04-0.05-0.06-0.08-0.05-0.13c-0.29-0.9-1.45-5.84-1.03-7.54c0.24-1.18,0.82-2.1,1.56-2.46c0.42-0.21,0.86-0.21,1.26-0.01
			c1.06,0.53,1.59,2.33,1.27,4.28c-0.28,1.47-1.85,4.37-2.44,5.46c-0.05,0.1-0.1,0.18-0.13,0.24l0.19,0.23L102.34,130.78z
			 M103.39,120.85c-0.15,0-0.3,0.04-0.45,0.11c-0.6,0.29-1.11,1.12-1.32,2.16l0,0.01c-0.35,1.41,0.52,5.45,0.88,6.85
			c0.58-1.06,2.08-3.87,2.34-5.22c0.28-1.7-0.17-3.37-1.04-3.8C103.67,120.88,103.53,120.85,103.39,120.85z M103.48,123.72
			l-0.43-0.08c-0.49,2.57-0.83,5.22-1.02,7.87l0.44,0.03C102.66,128.91,103,126.28,103.48,123.72z M96.59,122.13
			c-0.03,0-0.05,0-0.07-0.02c-0.95-0.02-4.73-0.63-6.09-1.64c-1.63-1.17-2.67-3.28-2.26-4.61c0.15-0.49,0.47-0.83,0.92-0.97
			c0.75-0.24,1.79,0.08,2.8,0.86l0.01,0.01c1.06,0.9,3.11,3.64,4.2,5.12c0.26,0.35,0.5,0.68,0.61,0.81l0.64,0l-0.62,0.4
			c-0.02,0.01-0.06,0.02-0.14,0.02L96.59,122.13z M89.61,115.26c-0.14,0-0.27,0.02-0.39,0.06c-0.31,0.1-0.52,0.33-0.63,0.68
			c-0.35,1.14,0.64,3.07,2.1,4.12c1.19,0.9,4.22,1.38,5.42,1.52c-0.1-0.13-0.22-0.29-0.37-0.5c-1.09-1.46-3.11-4.17-4.13-5.04
			C90.9,115.56,90.18,115.26,89.61,115.26z M97.59,122.1c-2.23-1.31-4.44-2.78-6.57-4.38l-0.27,0.35c2.14,1.61,4.36,3.09,6.61,4.4
			L97.59,122.1z M98.28,121.6l-0.56-0.05l-0.06-0.1c0,0,0,0,0-0.01c-0.03-0.04-0.04-0.08-0.04-0.12c-0.2-0.91-0.59-6.02,0.03-7.57
			c0.4-1.13,1.09-1.95,1.87-2.2c0.45-0.15,0.88-0.09,1.25,0.17c0.98,0.68,1.26,2.52,0.67,4.39c-0.48,1.41-2.43,4.03-3.17,5.02
			c-0.06,0.09-0.12,0.16-0.16,0.21L98.28,121.6z M99.98,111.92c-0.11,0-0.22,0.02-0.33,0.06c-0.63,0.21-1.24,0.94-1.59,1.93l0,0.01
			c-0.55,1.36-0.23,5.43-0.07,6.86c0.72-0.96,2.59-3.51,3.03-4.8c0.51-1.63,0.29-3.34-0.5-3.89
			C100.35,111.98,100.17,111.92,99.98,111.92z M99.82,114.77l-0.42-0.14c-0.83,2.45-1.54,5-2.09,7.59l0.43,0.09
			C98.3,119.74,98.99,117.21,99.82,114.77z M93.22,112.23c-0.02,0-0.04-0.01-0.05-0.01c-0.93-0.11-4.67-1.35-5.82-2.5
			c-1.46-1.39-2.2-3.62-1.63-4.87c0.21-0.46,0.57-0.74,1.03-0.83c0.78-0.14,1.77,0.33,2.67,1.25l0.01,0.01
			c0.94,1.04,2.6,4.05,3.49,5.66c0.21,0.37,0.4,0.72,0.49,0.87l0.65,0.08l-0.68,0.33C93.34,112.22,93.29,112.22,93.22,112.23
			L93.22,112.23z M87.02,104.44c-0.07,0-0.13,0.01-0.2,0.02c-0.32,0.06-0.55,0.25-0.7,0.57c-0.49,1.08,0.23,3.12,1.54,4.37
			c1.06,1.05,3.99,1.96,5.15,2.27c-0.08-0.14-0.17-0.31-0.29-0.53c-0.82-1.48-2.52-4.56-3.43-5.57
			C88.39,104.86,87.62,104.44,87.02,104.44z M94.21,112.34c-2.03-1.61-4.02-3.37-5.91-5.25l-0.31,0.31c1.9,1.89,3.9,3.67,5.95,5.28
			L94.21,112.34z M94.97,111.94l-0.55-0.12l-0.05-0.1c0,0,0-0.01,0-0.01c-0.02-0.05-0.03-0.08-0.02-0.12
			c-0.08-0.93,0.22-6.01,1.03-7.46c0.54-1.05,1.33-1.76,2.13-1.9c0.47-0.08,0.89,0.04,1.23,0.34c0.86,0.8,0.9,2.7,0.09,4.42
			c-0.66,1.32-2.94,3.62-3.8,4.49c-0.08,0.08-0.14,0.14-0.18,0.19L94.97,111.94z M97.79,102.64c-0.07,0-0.13,0.01-0.2,0.02
			c-0.65,0.12-1.34,0.76-1.81,1.67l0,0.01c-0.71,1.26-0.95,5.32-0.98,6.75c0.83-0.84,3.03-3.08,3.64-4.29
			c0.72-1.53,0.73-3.24,0.01-3.9C98.26,102.73,98.03,102.64,97.79,102.64z M97.4,105.44l-0.4-0.2c-1.15,2.29-2.18,4.71-3.08,7.18
			l0.42,0.15C95.23,110.12,96.26,107.71,97.4,105.44z M91.31,101.99c-0.03,0-0.06,0-0.1-0.01l0,0.01c-0.02-0.01-0.04-0.01-0.06-0.03
			c-0.91-0.24-4.43-1.99-5.44-3.3c-1.26-1.58-1.72-3.89-0.99-5.05c0.26-0.42,0.65-0.65,1.11-0.67c0.79-0.04,1.72,0.57,2.49,1.61
			l0.01,0.01c0.8,1.17,2.05,4.38,2.73,6.11c0.15,0.39,0.3,0.76,0.36,0.92l0.62,0.16l-0.7,0.24
			C91.34,101.99,91.32,101.99,91.31,101.99z M85.89,93.38c-0.01,0-0.03,0-0.04,0c-0.32,0.01-0.57,0.17-0.75,0.46
			c-0.63,0.99-0.18,3.12,0.96,4.54c0.91,1.19,3.69,2.5,4.8,2.99c-0.06-0.14-0.13-0.32-0.21-0.54c-0.62-1.59-1.91-4.88-2.68-6.02
			C87.31,93.93,86.52,93.38,85.89,93.38z M92.17,102.23c-1.81-1.88-3.55-3.91-5.18-6.04l-0.35,0.27c1.64,2.14,3.39,4.18,5.21,6.07
			L92.17,102.23z M92.97,101.95l-0.54-0.2l-0.03-0.11c0,0,0,0,0-0.01c-0.02-0.05-0.02-0.09,0-0.13c0.05-0.93,1-5.91,1.99-7.22
			c0.66-0.95,1.54-1.54,2.34-1.57c0.47-0.02,0.9,0.16,1.19,0.52c0.75,0.91,0.54,2.8-0.49,4.38c-0.83,1.21-3.39,3.16-4.35,3.89
			c-0.08,0.06-0.15,0.11-0.2,0.15L92.97,101.95z M96.8,93.15c-0.02,0-0.03,0-0.05,0c-0.66,0.03-1.41,0.55-2,1.39l-0.01,0.01
			c-0.86,1.13-1.63,5.13-1.84,6.53c0.94-0.71,3.4-2.61,4.16-3.72c0.91-1.41,1.14-3.1,0.51-3.86C97.38,93.27,97.11,93.15,96.8,93.15z
			 M96.22,95.87l-0.37-0.25c-1.43,2.11-2.77,4.34-3.98,6.65l0.39,0.21C93.47,100.18,94.8,97.96,96.22,95.87z M90.65,91.59
			c-0.03,0-0.07-0.01-0.12-0.03l0,0.01c-0.02-0.01-0.04-0.02-0.06-0.03c-0.87-0.37-4.13-2.61-4.96-4.05
			c-1.05-1.74-1.2-4.1-0.33-5.14c0.31-0.38,0.72-0.55,1.18-0.51c0.79,0.07,1.64,0.81,2.28,1.96l0,0.01
			c0.64,1.27,1.47,4.63,1.92,6.43c0.1,0.41,0.2,0.8,0.25,0.97l0.62,0.25l-0.76,0.14C90.66,91.58,90.66,91.59,90.65,91.59z
			 M86.22,82.27c-0.27,0-0.51,0.12-0.7,0.36c-0.75,0.9-0.58,3.06,0.37,4.64c0.76,1.32,3.33,3.01,4.37,3.65
			c-0.04-0.15-0.08-0.34-0.14-0.57c-0.41-1.66-1.26-5.1-1.88-6.33c-0.56-1.01-1.3-1.67-1.93-1.73
			C86.29,82.27,86.25,82.27,86.22,82.27z M91.45,91.95c-1.55-2.12-3.01-4.38-4.35-6.72l-0.38,0.22c1.35,2.36,2.82,4.63,4.38,6.77
			L91.45,91.95z M92.29,91.78l-0.51-0.26l-0.02-0.11c0,0,0,0,0-0.01c-0.01-0.05-0.01-0.09,0.01-0.13c0.16-0.92,1.75-5.71,2.9-6.87
			c0.77-0.84,1.71-1.31,2.5-1.23c0.48,0.04,0.88,0.29,1.13,0.68c0.63,1.01,0.18,2.85-1.05,4.27c-0.98,1.08-3.77,2.64-4.81,3.23
			c-0.09,0.05-0.16,0.09-0.21,0.12L92.29,91.78z M97,83.61c-0.63,0-1.37,0.4-2.01,1.09l-0.01,0.01c-1,1-2.27,4.85-2.67,6.21
			c1.02-0.57,3.71-2.09,4.6-3.08c1.08-1.26,1.53-2.91,1-3.75c-0.17-0.28-0.45-0.44-0.79-0.48C97.09,83.61,97.05,83.61,97,83.61z
			 M96.28,86.23l-0.33-0.3c-1.69,1.88-3.3,3.9-4.8,6.01l0.36,0.26C93,90.11,94.61,88.1,96.28,86.23z M91.32,81.18
			c-0.03,0-0.07-0.02-0.12-0.04l-0.01,0.01c-0.02-0.01-0.04-0.02-0.05-0.04c-0.81-0.49-3.76-3.18-4.39-4.73
			c-0.81-1.88-0.66-4.24,0.34-5.16c0.36-0.32,0.78-0.44,1.22-0.34c0.77,0.18,1.53,1.03,2.01,2.27l0,0.01
			c0.46,1.36,0.86,4.81,1.07,6.66c0.05,0.44,0.09,0.83,0.12,1l0.6,0.34L91.32,81.18C91.32,81.18,91.32,81.18,91.32,81.18z
			 M88.01,71.28c-0.22,0-0.43,0.09-0.62,0.26c-0.86,0.78-0.97,2.96-0.23,4.66c0.58,1.42,2.9,3.47,3.86,4.25
			c-0.02-0.15-0.04-0.34-0.07-0.58c-0.19-1.7-0.59-5.25-1.04-6.56c-0.43-1.09-1.08-1.85-1.7-2C88.15,71.29,88.08,71.28,88.01,71.28z
			 M92.07,81.66c-1.27-2.34-2.42-4.79-3.44-7.3l-0.41,0.17c1.02,2.52,2.19,5,3.46,7.35L92.07,81.66z M92.9,81.6l-0.46-0.32l0-0.12
			c0,0,0,0,0-0.01c0-0.06,0-0.1,0.04-0.14c0.32-0.88,2.4-5.36,3.75-6.38c0.87-0.72,1.85-1.04,2.63-0.86
			c0.48,0.11,0.84,0.41,1.04,0.84c0.49,1.1-0.2,2.86-1.59,4.09c-1.11,0.93-4.07,2.08-5.19,2.51c-0.09,0.03-0.16,0.06-0.22,0.09
			L92.9,81.6z M98.41,74.17c-0.58,0-1.27,0.29-1.9,0.81l-0.01,0.01c-1.12,0.85-2.88,4.5-3.45,5.78c1.08-0.42,3.95-1.54,4.96-2.39
			c1.24-1.09,1.89-2.67,1.48-3.58c-0.14-0.31-0.39-0.51-0.73-0.59C98.65,74.18,98.53,74.17,98.41,74.17z M97.59,76.68l-0.29-0.34
			c-1.91,1.62-3.77,3.39-5.53,5.27l0.32,0.3C93.84,80.05,95.69,78.29,97.59,76.68z M94.13,71.03l-0.8-0.08
			c-0.02,0-0.06-0.02-0.11-0.06l-0.01,0.01c-0.02-0.02-0.04-0.03-0.05-0.05c-0.74-0.6-3.3-3.7-3.73-5.34
			c-0.56-1.99-0.09-4.32,1.03-5.08c0.39-0.27,0.82-0.33,1.25-0.17c0.75,0.29,1.38,1.24,1.7,2.56l0,0.01
			c0.28,1.41,0.21,4.88,0.17,6.74c-0.01,0.44-0.02,0.87-0.01,1.05L94.13,71.03z M91.24,60.62c-0.18,0-0.35,0.06-0.53,0.18
			c-0.96,0.66-1.35,2.81-0.85,4.6c0.39,1.5,2.42,3.87,3.27,4.78c0-0.16,0.01-0.37,0.01-0.62c0.04-1.85,0.1-5.28-0.16-6.64
			c-0.28-1.15-0.82-2.01-1.42-2.24C91.45,60.64,91.34,60.62,91.24,60.62z M94.01,71.53c-0.95-2.5-1.77-5.11-2.45-7.76l-0.43,0.11
			c0.68,2.66,1.51,5.29,2.46,7.81L94.01,71.53z M94.84,71.58l-0.41-0.37l0.01-0.12c0,0,0,0,0-0.01c0.01-0.06,0.02-0.1,0.06-0.13
			c0.44-0.83,3.09-4.99,4.56-5.81c0.96-0.59,1.97-0.77,2.71-0.48c0.46,0.18,0.79,0.53,0.93,0.99c0.34,1.16-0.58,2.81-2.13,3.84
			c-1.22,0.77-4.31,1.48-5.47,1.75c-0.1,0.02-0.17,0.04-0.23,0.05L94.84,71.58z M101.01,64.97c-0.52,0-1.12,0.19-1.71,0.56l-0.01,0
			c-1.23,0.69-3.46,4.07-4.19,5.26c1.12-0.26,4.12-0.96,5.24-1.67c1.37-0.91,2.22-2.38,1.94-3.35c-0.1-0.33-0.32-0.57-0.66-0.7
			C101.43,65,101.23,64.97,101.01,64.97z M100.13,67.38L99.89,67c-2.11,1.33-4.19,2.83-6.18,4.45l0.28,0.34
			C95.97,70.19,98.04,68.7,100.13,67.38z M97.46,61.24l-0.77-0.18c-0.02-0.01-0.06-0.03-0.11-0.08l-0.01,0.01
			c-0.02-0.02-0.03-0.04-0.04-0.06c-0.65-0.71-2.77-4.15-2.97-5.85c-0.28-2.06,0.51-4.32,1.73-4.92c0.43-0.21,0.86-0.21,1.26,0.01
			c0.7,0.39,1.2,1.43,1.33,2.79l0,0.01c0.07,1.43-0.46,4.86-0.75,6.7c-0.07,0.46-0.14,0.9-0.16,1.08L97.46,61.24z M95.92,50.45
			c-0.14,0-0.29,0.04-0.43,0.11c-1.04,0.52-1.74,2.61-1.48,4.47c0.18,1.55,1.87,4.2,2.59,5.24c0.03-0.17,0.06-0.38,0.1-0.66
			c0.28-1.82,0.81-5.22,0.75-6.61c-0.12-1.19-0.54-2.13-1.11-2.44C96.19,50.48,96.06,50.45,95.92,50.45z M97.27,61.73
			c-0.6-2.63-1.06-5.35-1.37-8.08l-0.44,0.05c0.31,2.75,0.77,5.49,1.38,8.13L97.27,61.73z M98.11,61.9l-0.37-0.42l0.03-0.12
			c0,0,0,0,0-0.01c0.01-0.05,0.03-0.09,0.06-0.11c0.51-0.78,3.82-4.56,5.34-5.15c1.03-0.45,2.06-0.49,2.76-0.1
			c0.44,0.24,0.72,0.64,0.78,1.12c0.17,1.21-0.96,2.72-2.65,3.53c-1.32,0.59-4.49,0.86-5.68,0.96c-0.09,0.01-0.16,0.01-0.22,0.02
			L98.11,61.9z M104.78,56.17c-0.44,0-0.94,0.11-1.44,0.33l-0.01,0c-1.32,0.51-4,3.57-4.88,4.65c1.15-0.1,4.22-0.37,5.43-0.91
			c1.48-0.71,2.54-2.06,2.39-3.06c-0.05-0.35-0.24-0.62-0.56-0.8C105.45,56.24,105.14,56.17,104.78,56.17z M103.92,58.47l-0.18-0.4
			c-2.28,1.03-4.55,2.22-6.74,3.54l0.23,0.38C99.4,60.68,101.65,59.49,103.92,58.47z M102.13,51.97l-0.79-0.29l-0.06-0.09
			c-0.02-0.02-0.03-0.04-0.03-0.07c-0.55-0.8-2.17-4.54-2.12-6.26c0.02-2.1,1.13-4.24,2.44-4.67c0.46-0.15,0.89-0.09,1.25,0.19
			c0.64,0.49,0.99,1.6,0.92,2.98l0,0.01c-0.14,1.43-1.15,4.75-1.7,6.54c-0.14,0.47-0.28,0.92-0.33,1.1L102.13,51.97z M102.03,40.96
			c-0.11,0-0.22,0.02-0.33,0.06c-1.12,0.37-2.11,2.36-2.13,4.25c-0.05,1.57,1.26,4.46,1.83,5.6c0.05-0.18,0.12-0.4,0.21-0.69
			c0.54-1.77,1.55-5.06,1.68-6.45c0.06-1.21-0.22-2.2-0.74-2.6C102.38,41.02,102.21,40.96,102.03,40.96z M101.87,52.43
			c-0.23-2.72-0.3-5.5-0.2-8.26l-0.44-0.01c-0.09,2.78-0.03,5.58,0.21,8.32L101.87,52.43z M102.69,52.68l-0.32-0.42l0.04-0.12
			c0,0,0-0.01,0-0.01c0.02-0.05,0.04-0.09,0.08-0.11c0.62-0.72,4.41-3.99,6.06-4.38c1.09-0.3,2.12-0.19,2.76,0.29
			c0.4,0.3,0.62,0.74,0.62,1.23c0,1.23-1.36,2.58-3.15,3.14c-1.4,0.4-4.59,0.22-5.79,0.15c-0.09-0.01-0.17-0.01-0.22-0.01
			L102.69,52.68z M103.12,52.03c1.15,0.07,4.25,0.24,5.53-0.13c1.58-0.5,2.83-1.69,2.83-2.72c0-0.35-0.15-0.66-0.44-0.88
			c-0.53-0.41-1.42-0.49-2.38-0.22l-0.01,0C107.24,48.41,104.14,51.08,103.12,52.03z M108.95,50.12l-0.12-0.42
			c-2.42,0.7-4.85,1.57-7.21,2.58l0.17,0.41C104.13,51.68,106.54,50.82,108.95,50.12z M107.48,43l-0.11-0.02l-0.05-0.1
			c-0.01-0.03-0.02-0.05-0.02-0.07c-0.43-0.88-1.49-4.85-1.17-6.57c0.34-2.09,1.78-4.07,3.15-4.32c0.48-0.09,0.91,0.04,1.23,0.37
			c0.57,0.58,0.74,1.74,0.45,3.11l0,0.01c-0.36,1.39-1.8,4.41-2.66,6.22c-0.27,0.57-0.53,1.11-0.56,1.2l-0.19-0.06l-0.02,0.01
			L107.48,43z M109.57,32.33c-0.07,0-0.14,0.01-0.21,0.02c-1.18,0.21-2.49,2.06-2.8,3.96c-0.29,1.57,0.59,4.65,0.98,5.86
			c0.09-0.18,0.2-0.42,0.35-0.74c0.8-1.67,2.28-4.78,2.63-6.14c0.25-1.2,0.12-2.24-0.34-2.7C110.02,32.42,109.81,32.33,109.57,32.33
			z M108.83,35.51l-0.43-0.08c-0.52,2.77-0.88,5.58-1.05,8.35l0.44,0.03C107.96,41.05,108.31,38.26,108.83,35.51z M114.04,44.7
			c-1.6,0-4.1-0.51-5.13-0.72c-0.09-0.02-0.16-0.03-0.22-0.05l-0.11,0.22l-0.27-0.46l0.06-0.11c0,0,0-0.01,0.01-0.01
			c0.03-0.05,0.05-0.08,0.1-0.1c0.74-0.63,5.07-3.37,6.72-3.52c1.15-0.15,2.17,0.11,2.73,0.69c0.35,0.36,0.5,0.83,0.42,1.32
			c-0.2,1.23-1.76,2.38-3.63,2.69C114.52,44.69,114.29,44.7,114.04,44.7z M109.09,43.58c1.14,0.23,4.21,0.84,5.56,0.65
			c1.66-0.28,3.1-1.3,3.26-2.33c0.06-0.35-0.05-0.67-0.3-0.94c-0.47-0.48-1.35-0.69-2.36-0.56l-0.01,0
			C113.76,40.53,110.25,42.77,109.09,43.58z M115.22,42.49l-0.06-0.44c-2.53,0.36-5.09,0.88-7.6,1.55l0.11,0.43
			C110.16,43.37,112.7,42.85,115.22,42.49z M114.87,35.15l-0.11-0.03l-0.04-0.11c-0.01-0.03-0.02-0.05-0.02-0.08
			c-0.29-0.93-0.72-5.08-0.14-6.74c0.67-2.05,2.45-3.83,3.88-3.88c0.51-0.02,0.91,0.17,1.18,0.54c0.48,0.66,0.46,1.85-0.05,3.18
			l0,0.01c-0.59,1.32-2.5,4.12-3.64,5.79c-0.39,0.57-0.75,1.1-0.8,1.19l-0.18-0.09l-0.01,0.01L114.87,35.15z M118.53,24.75
			c-0.02,0-0.04,0-0.05,0c-1.24,0.05-2.87,1.72-3.48,3.58c-0.54,1.54-0.15,4.74,0.05,6.01c0.13-0.19,0.3-0.43,0.52-0.77
			c1.13-1.65,3.03-4.42,3.6-5.71c0.45-1.17,0.49-2.22,0.11-2.75C119.11,24.87,118.85,24.75,118.53,24.75z M117.42,27.84L117,27.69
			c-0.98,2.7-1.78,5.46-2.4,8.21l0.43,0.1C115.64,33.27,116.44,30.53,117.42,27.84z M121.88,37.84c-1.51,0-4.58-1.09-5.74-1.5
			c-0.09-0.03-0.16-0.06-0.22-0.08l-0.11,0.16L115.58,36l0.07-0.11c0,0,0.01-0.01,0.01-0.01c0.04-0.05,0.07-0.08,0.12-0.09
			c0.84-0.54,5.5-2.59,7.24-2.59c0.03,0,0.06,0,0.09,0c1.19,0.01,2.18,0.41,2.65,1.08c0.29,0.41,0.37,0.9,0.21,1.37
			C125.58,36.85,123.81,37.79,121.88,37.84z M116.38,35.96c1.11,0.39,4.1,1.44,5.49,1.44c1.73-0.04,3.35-0.87,3.69-1.88
			c0.11-0.34,0.06-0.68-0.15-0.98c-0.39-0.55-1.25-0.88-2.3-0.89l-0.01,0C121.55,33.58,117.66,35.32,116.38,35.96z M122.74,35.73
			l0-0.44c-2.62,0.01-5.28,0.17-7.9,0.49l0.05,0.44C117.5,35.9,120.14,35.74,122.74,35.73z M132.42,158.89
			c-23.37-11.49-38.56-34.34-40.65-61.13c-2.1-26.95,9.68-52.9,30.76-67.72l-0.25-0.36c-10.81,7.6-19.35,18.11-24.71,30.41
			c-5.09,11.69-7.25,24.72-6.24,37.7c2.1,26.94,17.39,49.93,40.9,61.49L132.42,158.89z M121.56,30.81l-0.45-0.1l-0.02-0.16
			c0,0,0-0.01,0-0.01c-0.01-0.08-0.01-0.13,0.09-0.18c0.62-0.99,4.42-5.03,6.23-5.94c1.57-0.86,3.22-1.2,4.2-0.85
			c0.36,0.13,0.61,0.35,0.73,0.64c0.47,1.16-1.21,2.83-3.12,3.88l-0.01,0c-1.47,0.74-4.84,1.74-6.65,2.28
			c-0.42,0.13-0.81,0.24-1,0.3L121.56,30.81z M130.7,23.87c-0.79,0-1.89,0.27-3.09,0.93c-1.73,0.88-4.59,4.01-5.68,5.29
			c0.14-0.04,0.3-0.09,0.49-0.15c1.8-0.53,5.14-1.53,6.57-2.25c1.92-1.06,3.23-2.56,2.92-3.33c-0.07-0.17-0.23-0.3-0.47-0.39
			C131.25,23.91,131,23.87,130.7,23.87z M128.73,26.28l-0.21-0.39c-2.88,1.57-5.66,3.34-8.27,5.26l0.26,0.36
			C123.1,29.6,125.87,27.84,128.73,26.28z M232.63,156.89c-1.83,0-5.26-1.46-6.05-1.93c0,0-0.01,0-0.01,0
			c-0.09,0-0.11-0.05-0.15-0.12c0,0,0,0,0,0l0,0c0,0,0,0,0,0l0.2-0.09l-0.03-0.22c0.09-0.02,0.64-0.22,1.22-0.44
			c1.8-0.67,5.16-1.93,6.54-2.12l0.01,0c1.31-0.13,2.39,0.17,2.9,0.79c0.31,0.38,0.39,0.85,0.24,1.36
			c-0.41,1.38-2.54,2.66-4.64,2.78C232.79,156.89,232.71,156.89,232.63,156.89z M227.19,154.78c1.13,0.53,4.08,1.78,5.64,1.66
			c1.91-0.11,3.89-1.27,4.25-2.47c0.11-0.37,0.06-0.69-0.16-0.95c-0.41-0.5-1.37-0.73-2.51-0.63c-1.34,0.19-4.66,1.43-6.45,2.1
			C227.64,154.62,227.39,154.71,227.19,154.78z M234,154.6l-0.04-0.44c-2.77,0.23-5.58,0.3-8.33,0.22l-0.01,0.44
			c0.75,0.02,1.51,0.04,2.27,0.04C229.92,154.85,231.97,154.77,234,154.6z M225.9,153.79l-0.62-0.24l0.38-0.15
			c0-0.08-0.01-0.18-0.01-0.31c-0.04-1.27-0.16-4.63,0.25-6.11c0.6-1.96,1.91-3.42,3.13-3.47c0.47-0.02,0.87,0.17,1.17,0.54
			c0.53,0.65,0.65,1.75,0.34,2.96c-0.36,1.77-3.82,6.05-4.47,6.67c-0.02,0.04-0.05,0.05-0.09,0.07L225.9,153.79z M229.1,143.95
			c-0.01,0-0.03,0-0.05,0c-1,0.04-2.2,1.43-2.73,3.15c-0.38,1.38-0.28,4.61-0.24,5.91c0.98-1.14,3.73-4.61,4.03-6.09l0-0.01
			c0.27-1.06,0.17-2.05-0.26-2.58C229.66,144.08,229.4,143.95,229.1,143.95z M228.52,146.8l-0.43-0.12
			c-0.71,2.61-1.62,5.22-2.7,7.77l0.41,0.17C226.89,152.06,227.8,149.43,228.52,146.8z M240.81,149.23c-1.88,0-4.74-0.79-5.48-1.11
			c-0.11,0.03-0.14-0.03-0.19-0.12l0.19-0.11l-0.06-0.21c0.08-0.03,0.57-0.3,1.08-0.58c1.64-0.9,4.7-2.59,6.03-2.97l0.01,0
			c1.25-0.3,2.35-0.16,2.94,0.37c0.36,0.33,0.52,0.78,0.44,1.3c-0.19,1.41-2.06,2.95-4.07,3.36
			C241.44,149.2,241.14,149.23,240.81,149.23z M235.9,147.85c1.17,0.37,4.2,1.2,5.71,0.86c1.82-0.37,3.56-1.76,3.73-2.98
			c0.05-0.38-0.05-0.68-0.3-0.91c-0.47-0.43-1.45-0.53-2.53-0.27c-1.28,0.38-4.31,2.04-5.93,2.94
			C236.29,147.64,236.07,147.76,235.9,147.85z M242.44,146.76l-0.1-0.43c-2.65,0.6-5.34,1.05-8.01,1.33l0.05,0.44
			C237.06,147.81,239.77,147.36,242.44,146.76z M234.48,147.07l-0.62-0.16l0.32-0.19c-0.01-0.07-0.03-0.17-0.06-0.3
			c-0.24-1.23-0.89-4.5-0.73-6c0.27-2,1.32-3.6,2.5-3.82c0.45-0.08,0.87,0.04,1.22,0.36c0.61,0.56,0.91,1.62,0.8,2.85
			c-0.08,1.79-2.74,6.35-3.27,7.1c-0.01,0.05-0.04,0.08-0.08,0.1L234.48,147.07z M236.16,137.01c-0.06,0-0.12,0.01-0.18,0.02
			c-0.97,0.18-1.91,1.69-2.14,3.44c-0.15,1.4,0.46,4.53,0.71,5.79c0.77-1.25,2.87-4.96,2.93-6.48l0-0.01
			c0.1-1.07-0.15-2.03-0.65-2.49C236.62,137.11,236.4,137.01,236.16,137.01z M235.91,139.89l-0.44-0.05
			c-0.28,2.64-0.75,5.32-1.38,7.95l0.43,0.1C235.16,145.24,235.63,142.55,235.91,139.89z M246.79,140.66
			c-1.65,0-3.48-0.26-4.07-0.42c-0.02,0-0.04,0-0.06,0l-0.09-0.02l-0.05-0.08l0.18-0.12l-0.09-0.2c0.07-0.04,0.49-0.36,0.93-0.69
			c1.48-1.12,4.22-3.2,5.48-3.77l0.01,0c1.18-0.47,2.28-0.49,2.93-0.05c0.4,0.27,0.62,0.69,0.63,1.21c0.02,1.41-1.58,3.17-3.49,3.85
			C248.54,140.59,247.69,140.66,246.79,140.66z M243.25,139.9c1.2,0.2,4.28,0.59,5.69,0.06c1.72-0.61,3.22-2.21,3.2-3.43
			c-0.01-0.38-0.15-0.66-0.43-0.85c-0.53-0.35-1.49-0.32-2.52,0.09c-1.21,0.55-3.93,2.61-5.39,3.72
			C243.57,139.66,243.39,139.8,243.25,139.9z M249.46,137.94l-0.16-0.41c-2.51,0.96-5.07,1.77-7.62,2.41l0.11,0.43
			C244.35,139.72,246.93,138.9,249.46,137.94z M241.73,139.34l-0.57-0.09l0.24-0.21c-0.02-0.07-0.06-0.15-0.1-0.26
			c-0.43-1.17-1.56-4.29-1.63-5.79c-0.04-1.99,0.75-3.71,1.88-4.09c0.43-0.14,0.86-0.08,1.25,0.19c0.68,0.46,1.13,1.46,1.2,2.68
			c0.18,1.73-1.68,6.6-2.13,7.41c0,0.04-0.03,0.06-0.06,0.1c0,0,0,0.01-0.01,0.01L241.73,139.34z M241.99,129.26
			c-0.1,0-0.2,0.02-0.3,0.05c-0.92,0.31-1.61,1.92-1.58,3.66c0.06,1.39,1.16,4.42,1.57,5.55c0.57-1.35,2.04-5.26,1.88-6.73l0-0.01
			c-0.06-1.06-0.45-1.96-1.01-2.34C242.38,129.33,242.19,129.26,241.99,129.26z M242.06,132.11l-0.44,0.02
			c0.12,2.63,0.07,5.3-0.14,7.96l0.44,0.03C242.13,137.45,242.17,134.76,242.06,132.11z M249.85,131.59c-0.5,0-0.89-0.02-1.11-0.06
			c-0.01,0-0.02,0-0.04,0l-0.1,0l-0.06-0.08l0.17-0.14l-0.12-0.18c0.06-0.05,0.42-0.41,0.8-0.8c1.29-1.31,3.69-3.74,4.86-4.47
			l0.01-0.01c1.1-0.63,2.18-0.8,2.88-0.46c0.43,0.21,0.7,0.59,0.79,1.1c0.22,1.38-1.1,3.34-2.88,4.27
			C253.93,131.38,251.4,131.59,249.85,131.59z M249.25,131.11c1.22,0.03,4.29-0.02,5.6-0.74c1.61-0.84,2.85-2.62,2.66-3.81
			c-0.06-0.37-0.24-0.63-0.54-0.77c-0.57-0.27-1.51-0.1-2.47,0.44c-1.12,0.71-3.5,3.12-4.77,4.41
			C249.52,130.84,249.37,130.99,249.25,131.11z M255.06,128.32l-0.21-0.39c-2.33,1.29-4.73,2.44-7.13,3.43l0.17,0.41
			C250.3,130.78,252.72,129.62,255.06,128.32z M247.67,130.78l-0.55-0.02l0.19-0.23c-0.03-0.06-0.07-0.14-0.13-0.23
			c-0.59-1.09-2.16-3.99-2.44-5.46c-0.32-1.95,0.21-3.75,1.27-4.28c0.4-0.2,0.84-0.2,1.26,0.01c0.74,0.36,1.32,1.28,1.56,2.46
			c0.42,1.69-0.74,6.64-1.03,7.54c0.01,0.05-0.01,0.08-0.05,0.13c0,0,0,0.01-0.01,0.01L247.67,130.78z M246.61,120.85
			c-0.14,0-0.28,0.03-0.42,0.1c-0.86,0.44-1.32,2.11-1.03,3.81c0.26,1.35,1.76,4.15,2.34,5.22c0.36-1.41,1.24-5.45,0.88-6.85l0-0.01
			c-0.21-1.04-0.72-1.86-1.32-2.16C246.91,120.89,246.76,120.85,246.61,120.85z M247.97,131.52c-0.18-2.65-0.53-5.3-1.02-7.87
			l-0.43,0.08c0.49,2.56,0.83,5.19,1.01,7.82L247.97,131.52z M253.41,122.13L253.41,122.13c-0.07-0.01-0.11-0.02-0.14-0.04
			l-0.61-0.4l0.64,0c0.11-0.13,0.35-0.46,0.61-0.81c1.1-1.48,3.14-4.22,4.21-5.12l0.01-0.01c1-0.78,2.05-1.09,2.8-0.86
			c0.45,0.15,0.77,0.48,0.92,0.97c0.4,1.33-0.63,3.44-2.27,4.61c-1.29,0.97-5.19,1.69-6.11,1.65
			C253.45,122.13,253.43,122.13,253.41,122.13z M258.4,116.1c-1.03,0.87-3.05,3.59-4.13,5.05c-0.15,0.2-0.27,0.37-0.37,0.49
			c1.2-0.15,4.22-0.63,5.42-1.52c1.47-1.06,2.45-2.98,2.11-4.13c-0.11-0.35-0.32-0.58-0.63-0.68
			C260.18,115.13,259.27,115.43,258.4,116.1z M259.25,118.08l-0.27-0.35c-2.12,1.6-4.33,3.07-6.57,4.38l0.22,0.38
			C254.89,121.17,257.11,119.69,259.25,118.08z M251.71,121.6l0.17-0.26c-0.04-0.05-0.09-0.13-0.16-0.21
			c-0.74-0.99-2.69-3.61-3.16-5.01c-0.59-1.87-0.3-3.72,0.67-4.39c0.37-0.26,0.81-0.32,1.25-0.17c0.77,0.25,1.47,1.07,1.87,2.2
			c0.62,1.55,0.23,6.66,0.03,7.57c0.01,0.05-0.01,0.08-0.04,0.12c0,0,0,0,0,0.01l-0.06,0.09L251.71,121.6z M250.02,111.92
			c-0.19,0-0.37,0.06-0.53,0.17c-0.79,0.55-1.01,2.26-0.5,3.89c0.44,1.29,2.32,3.84,3.03,4.79c0.16-1.43,0.48-5.5-0.07-6.86l0-0.01
			c-0.35-0.98-0.95-1.72-1.59-1.93C250.24,111.94,250.13,111.92,250.02,111.92z M252.69,122.22c-0.55-2.59-1.26-5.14-2.09-7.59
			l-0.42,0.14c0.83,2.44,1.53,4.97,2.08,7.55L252.69,122.22z M256.78,112.23L256.78,112.23c-0.07,0-0.11-0.01-0.14-0.02l-0.69-0.33
			l0.66-0.08c0.09-0.15,0.28-0.5,0.49-0.88c0.89-1.61,2.55-4.61,3.49-5.65l0.01-0.01c0.89-0.91,1.89-1.38,2.66-1.25
			c0.46,0.08,0.82,0.37,1.03,0.83c0.57,1.25-0.18,3.48-1.64,4.87c-1.15,1.14-4.9,2.38-5.82,2.5
			C256.81,112.22,256.8,112.23,256.78,112.23z M260.91,105.57c-0.9,1.01-2.61,4.09-3.42,5.57c-0.12,0.22-0.22,0.39-0.29,0.53
			c1.17-0.32,4.09-1.22,5.15-2.27c1.31-1.25,2.03-3.29,1.54-4.37c-0.15-0.33-0.39-0.52-0.7-0.57
			C262.55,104.35,261.69,104.78,260.91,105.57z M262.01,107.4l-0.31-0.31c-1.89,1.88-3.88,3.64-5.91,5.25l0.27,0.35
			C258.11,111.07,260.11,109.29,262.01,107.4z M255.03,111.94l0.13-0.28c-0.05-0.05-0.11-0.11-0.18-0.19
			c-0.86-0.87-3.14-3.17-3.8-4.48c-0.82-1.73-0.78-3.63,0.08-4.43c0.34-0.31,0.76-0.43,1.23-0.34c0.79,0.14,1.59,0.85,2.13,1.9
			c0.82,1.45,1.11,6.53,1.03,7.46c0.01,0.04,0,0.08-0.02,0.13c0,0,0,0,0,0.01l-0.04,0.1L255.03,111.94z M252.21,102.64
			c-0.25,0-0.47,0.09-0.65,0.25c-0.71,0.66-0.71,2.38,0.02,3.91c0.6,1.21,2.81,3.45,3.64,4.29c-0.03-1.43-0.26-5.49-0.98-6.75
			l0-0.01c-0.47-0.91-1.16-1.55-1.81-1.67C252.35,102.65,252.28,102.64,252.21,102.64z M256.08,112.42
			c-0.9-2.47-1.93-4.88-3.08-7.18l-0.4,0.2c1.14,2.28,2.17,4.68,3.06,7.13L256.08,112.42z M258.69,101.99c-0.01,0-0.03,0-0.03,0
			l-0.7-0.24l0.62-0.16c0.07-0.16,0.21-0.53,0.37-0.92c0.67-1.72,1.93-4.93,2.73-6.1l0.01-0.01c0.76-1.02,1.66-1.61,2.44-1.61
			c0.02,0,0.04,0,0.06,0c0.46,0.02,0.85,0.25,1.11,0.67c0.73,1.16,0.28,3.47-0.99,5.05c-1,1.31-4.52,3.05-5.43,3.3
			c-0.02,0.01-0.04,0.02-0.06,0.03l0-0.01C258.75,101.98,258.72,101.99,258.69,101.99z M262.03,94.81
			c-0.77,1.13-2.06,4.43-2.68,6.01c-0.09,0.22-0.16,0.4-0.21,0.55c1.12-0.48,3.89-1.8,4.8-2.98c1.14-1.43,1.59-3.55,0.96-4.54
			c-0.18-0.3-0.44-0.45-0.75-0.46C263.51,93.35,262.71,93.91,262.03,94.81z M263.36,96.46l-0.35-0.27
			c-1.63,2.12-3.37,4.16-5.18,6.04l0.32,0.31C259.97,100.64,261.72,98.6,263.36,96.46z M257.04,101.94l0.09-0.29
			c-0.05-0.04-0.12-0.09-0.2-0.15c-0.96-0.73-3.53-2.68-4.35-3.89c-1.03-1.59-1.24-3.48-0.49-4.39c0.29-0.35,0.72-0.54,1.19-0.52
			c0.8,0.03,1.68,0.62,2.34,1.57c0.99,1.31,1.94,6.29,1.99,7.22c0.02,0.04,0.01,0.07,0,0.13c0,0,0,0.01,0,0.01l-0.03,0.11
			L257.04,101.94z M253.2,93.15c-0.32,0-0.58,0.12-0.78,0.36c-0.62,0.76-0.4,2.45,0.52,3.86c0.76,1.1,3.22,3,4.16,3.71
			c-0.22-1.41-0.98-5.4-1.84-6.53l-0.01-0.01c-0.59-0.84-1.33-1.36-2-1.39C253.23,93.15,253.22,93.15,253.2,93.15z M258.13,102.27
			c-1.21-2.31-2.55-4.55-3.98-6.65l-0.37,0.25c1.42,2.09,2.75,4.31,3.96,6.61L258.13,102.27z M259.35,91.58c-0.01,0-0.01,0-0.01,0
			l-0.75-0.14l0.61-0.24c0.05-0.16,0.14-0.55,0.24-0.96c0.45-1.8,1.28-5.16,1.92-6.44l0-0.01c0.64-1.15,1.49-1.88,2.28-1.96
			c0.46-0.05,0.86,0.13,1.17,0.51c0.87,1.04,0.72,3.4-0.33,5.15c-0.83,1.44-4.08,3.67-4.96,4.04c-0.02,0.02-0.03,0.02-0.06,0.04
			l0-0.01C259.41,91.57,259.38,91.58,259.35,91.58z M261.76,84c-0.62,1.23-1.47,4.68-1.88,6.34c-0.06,0.23-0.1,0.42-0.14,0.57
			c1.05-0.64,3.62-2.33,4.37-3.64c0.95-1.58,1.12-3.74,0.37-4.64c-0.22-0.26-0.48-0.38-0.79-0.35
			C263.05,82.33,262.31,82.99,261.76,84z M263.28,85.44l-0.38-0.22c-1.34,2.34-2.8,4.6-4.35,6.72l0.36,0.26
			C260.46,90.07,261.94,87.79,263.28,85.44z M257.72,91.78l0.05-0.3c-0.05-0.03-0.13-0.07-0.21-0.12c-1.05-0.59-3.84-2.15-4.81-3.22
			c-1.23-1.43-1.68-3.27-1.05-4.28c0.25-0.4,0.65-0.64,1.13-0.68c0.8-0.07,1.73,0.38,2.5,1.23c1.15,1.16,2.74,5.95,2.9,6.87
			c0.02,0.04,0.02,0.07,0.01,0.12c0,0,0,0.01,0,0.01l-0.02,0.11L257.72,91.78z M253,83.61c-0.04,0-0.09,0-0.13,0.01
			c-0.34,0.03-0.62,0.2-0.79,0.48c-0.52,0.84-0.08,2.49,1.01,3.75c0.89,0.99,3.58,2.5,4.6,3.08c-0.39-1.36-1.67-5.21-2.67-6.21
			L255,84.7C254.37,84.01,253.63,83.61,253,83.61z M258.85,91.95c-1.5-2.11-3.12-4.14-4.8-6.01l-0.33,0.3
			c1.67,1.86,3.28,3.87,4.77,5.97L258.85,91.95z M258.68,81.18C258.68,81.18,258.68,81.18,258.68,81.18l-0.8-0.02l0.61-0.34
			c0.02-0.17,0.07-0.56,0.12-0.99c0.21-1.85,0.6-5.31,1.07-6.66l0-0.01c0.48-1.24,1.24-2.09,2.01-2.27c0.44-0.1,0.86,0.01,1.22,0.34
			c1,0.91,1.16,3.28,0.34,5.16c-0.63,1.54-3.58,4.24-4.39,4.73c-0.01,0.02-0.03,0.03-0.05,0.04l-0.01-0.01
			C258.74,81.17,258.7,81.18,258.68,81.18z M260.09,73.31c-0.45,1.31-0.85,4.86-1.04,6.57c-0.03,0.24-0.05,0.43-0.07,0.58
			c0.96-0.79,3.28-2.83,3.86-4.25c0.74-1.7,0.63-3.88-0.23-4.66c-0.25-0.23-0.52-0.3-0.82-0.24
			C261.16,71.45,260.51,72.22,260.09,73.31z M261.79,74.52l-0.41-0.17c-1.02,2.51-2.18,4.97-3.44,7.3l0.39,0.21
			C259.59,79.52,260.76,77.05,261.79,74.52z M257.1,81.6l0.01-0.29c-0.06-0.02-0.13-0.05-0.22-0.09c-1.12-0.43-4.08-1.58-5.19-2.51
			c-1.4-1.24-2.09-3-1.6-4.1c0.19-0.43,0.56-0.73,1.04-0.84c0.77-0.18,1.76,0.14,2.63,0.86c1.34,1.02,3.43,5.5,3.75,6.38
			c0.04,0.04,0.04,0.07,0.04,0.14c0,0,0,0.01,0,0.01l0,0.11L257.1,81.6z M251.59,74.17c-0.12,0-0.24,0.01-0.35,0.04
			c-0.34,0.08-0.6,0.28-0.73,0.59c-0.41,0.91,0.24,2.48,1.48,3.58c1.01,0.85,3.87,1.97,4.96,2.39c-0.56-1.29-2.33-4.93-3.45-5.78
			l-0.01-0.01C252.86,74.45,252.17,74.17,251.59,74.17z M258.23,81.62c-1.76-1.88-3.62-3.66-5.53-5.27l-0.28,0.34
			c1.9,1.61,3.75,3.37,5.5,5.24L258.23,81.62z M255.87,71.03l0.56-0.42c0-0.18-0.01-0.6-0.01-1.05c-0.04-1.86-0.1-5.33,0.17-6.74
			l0-0.01c0.32-1.31,0.95-2.27,1.7-2.56c0.42-0.16,0.85-0.1,1.25,0.17c1.11,0.76,1.59,3.09,1.03,5.09
			c-0.42,1.63-2.99,4.73-3.73,5.33c-0.01,0.02-0.03,0.04-0.05,0.05l-0.01-0.01c-0.05,0.04-0.09,0.06-0.11,0.06L255.87,71.03z
			 M257.02,62.92c-0.27,1.36-0.2,4.8-0.16,6.64c0.01,0.26,0.01,0.46,0.01,0.62c0.85-0.92,2.88-3.28,3.26-4.78
			c0.5-1.8,0.11-3.95-0.85-4.61c-0.27-0.19-0.55-0.23-0.84-0.12C257.85,60.91,257.3,61.77,257.02,62.92z M258.87,63.88l-0.43-0.11
			c-0.68,2.65-1.5,5.26-2.45,7.76l0.41,0.16C257.36,69.17,258.19,66.54,258.87,63.88z M255.16,71.59l-0.03-0.29
			c-0.06-0.01-0.14-0.03-0.23-0.05c-1.16-0.27-4.25-0.98-5.47-1.75c-1.56-1.03-2.47-2.69-2.13-3.85c0.13-0.46,0.46-0.81,0.93-0.99
			c0.75-0.29,1.76-0.1,2.71,0.48c1.47,0.82,4.12,4.98,4.56,5.81c0.04,0.03,0.05,0.07,0.06,0.13c0,0,0,0,0,0.01l0.01,0.11
			L255.16,71.59z M248.99,64.97c-0.22,0-0.43,0.03-0.61,0.1c-0.34,0.13-0.56,0.37-0.66,0.7c-0.28,0.97,0.57,2.44,1.95,3.35
			c1.12,0.7,4.11,1.4,5.23,1.66c-0.72-1.19-2.95-4.57-4.19-5.26l-0.01,0C250.12,65.16,249.52,64.97,248.99,64.97z M256.28,71.45
			c-1.99-1.62-4.07-3.11-6.18-4.45l-0.24,0.37c2.1,1.33,4.16,2.81,6.14,4.42L256.28,71.45z M252.53,61.25l0.51-0.49
			c-0.02-0.18-0.09-0.62-0.16-1.08c-0.29-1.84-0.82-5.27-0.75-6.7l0-0.01c0.13-1.36,0.63-2.4,1.33-2.79
			c0.39-0.22,0.83-0.22,1.26-0.01c1.22,0.6,2.01,2.86,1.73,4.92c-0.2,1.69-2.32,5.14-2.97,5.85c-0.01,0.02-0.02,0.04-0.04,0.06
			l-0.01-0.01c-0.05,0.04-0.08,0.07-0.11,0.08L252.53,61.25z M252.57,53c-0.07,1.39,0.46,4.78,0.74,6.6
			c0.04,0.27,0.08,0.49,0.1,0.66c0.72-1.04,2.41-3.69,2.59-5.23c0.25-1.87-0.44-3.95-1.48-4.47c-0.29-0.15-0.58-0.15-0.85,0
			C253.11,50.87,252.68,51.81,252.57,53z M254.54,53.7l-0.44-0.05c-0.3,2.73-0.77,5.45-1.37,8.08l0.43,0.1
			C253.77,59.18,254.23,56.45,254.54,53.7z M251.89,61.91l-0.05-0.28c-0.06-0.01-0.13-0.01-0.22-0.02c-1.19-0.1-4.36-0.36-5.67-0.96
			c-1.69-0.81-2.82-2.32-2.65-3.53c0.07-0.48,0.35-0.88,0.78-1.12c0.7-0.39,1.73-0.35,2.76,0.1c1.52,0.59,4.84,4.37,5.34,5.15
			c0.04,0.03,0.05,0.06,0.06,0.11c0,0,0,0,0,0.01l0.03,0.11L251.89,61.91z M245.22,56.17c-0.35,0-0.67,0.07-0.93,0.21
			c-0.32,0.18-0.51,0.45-0.56,0.8c-0.14,1.01,0.91,2.35,2.4,3.06c1.2,0.54,4.27,0.81,5.42,0.91c-0.88-1.08-3.56-4.14-4.88-4.65
			l-0.01,0C246.16,56.28,245.66,56.17,245.22,56.17z M253,61.61c-2.19-1.32-4.46-2.52-6.74-3.54l-0.18,0.4
			c2.26,1.02,4.51,2.2,6.69,3.52L253,61.61z M247.86,51.98l0.44-0.56c-0.05-0.18-0.19-0.63-0.33-1.11c-0.55-1.78-1.56-5.11-1.7-6.53
			l0-0.01c-0.07-1.38,0.27-2.49,0.92-2.98c0.36-0.27,0.79-0.34,1.25-0.19c1.3,0.43,2.42,2.57,2.43,4.67
			c0.05,1.72-1.57,5.47-2.12,6.26c-0.01,0.03-0.02,0.04-0.03,0.07l-0.06,0.09l-0.07,0.01L247.86,51.98z M246.72,43.74
			c0.14,1.39,1.14,4.67,1.68,6.44c0.09,0.29,0.16,0.52,0.21,0.69c0.56-1.14,1.87-4.02,1.83-5.6c-0.02-1.9-1.01-3.89-2.13-4.26
			c-0.32-0.1-0.6-0.06-0.84,0.12C246.94,41.53,246.66,42.53,246.72,43.74z M248.78,44.15l-0.44,0.01c0.09,2.77,0.03,5.55-0.2,8.26
			l0.44,0.04C248.8,49.74,248.87,46.94,248.78,44.15z M247.31,52.68l-0.08-0.23c-0.06,0-0.13,0.01-0.22,0.01
			c-1.2,0.07-4.38,0.26-5.78-0.14c-1.8-0.57-3.15-1.92-3.15-3.15c0-0.49,0.22-0.93,0.62-1.23c0.64-0.49,1.68-0.6,2.76-0.29
			c1.64,0.38,5.43,3.65,6.06,4.38c0.04,0.02,0.06,0.05,0.08,0.11c0,0,0,0.01,0,0.01l0.04,0.11L247.31,52.68z M240.27,47.92
			c-0.53,0-0.99,0.13-1.31,0.37c-0.29,0.22-0.44,0.52-0.44,0.88c0,1.03,1.25,2.22,2.84,2.72c1.28,0.37,4.37,0.2,5.53,0.13
			c-1.02-0.95-4.12-3.62-5.53-3.95l-0.01,0C240.97,47.97,240.6,47.92,240.27,47.92z M248.39,52.28c-2.37-1.01-4.79-1.87-7.21-2.58
			l-0.12,0.42c2.4,0.7,4.81,1.56,7.16,2.56L248.39,52.28z M242.52,43l-0.04-0.22l-0.21,0.05c-0.03-0.08-0.28-0.63-0.56-1.2
			c-0.86-1.81-2.3-4.83-2.66-6.22l0-0.01c-0.28-1.37-0.11-2.53,0.45-3.11c0.32-0.33,0.75-0.45,1.23-0.37
			c1.37,0.25,2.82,2.23,3.16,4.33c0.31,1.71-0.75,5.69-1.17,6.56c0,0.03-0.01,0.05-0.03,0.07l-0.05,0.1L242.52,43z M239.47,35.3
			c0.35,1.35,1.84,4.46,2.63,6.14c0.15,0.32,0.27,0.56,0.35,0.74c0.39-1.22,1.27-4.29,0.98-5.86c-0.3-1.9-1.61-3.75-2.8-3.96
			c-0.34-0.06-0.62,0.02-0.83,0.24C239.35,33.06,239.22,34.1,239.47,35.3z M242.65,43.77c-0.18-2.77-0.53-5.58-1.05-8.35l-0.44,0.08
			c0.52,2.75,0.87,5.55,1.05,8.29L242.65,43.77z M235.96,44.71c-0.25,0-0.48-0.01-0.67-0.04c-1.88-0.31-3.44-1.47-3.64-2.7
			c-0.08-0.49,0.07-0.95,0.42-1.31c0.57-0.58,1.59-0.84,2.73-0.69c1.65,0.15,5.99,2.89,6.72,3.52c0.05,0.01,0.07,0.05,0.1,0.1
			c0,0,0,0.01,0.01,0.01l0.06,0.11l-0.27,0.46l-0.11-0.22c-0.06,0.01-0.13,0.03-0.22,0.05C240.06,44.2,237.56,44.71,235.96,44.71z
			 M234.17,40.36c-0.76,0-1.4,0.21-1.78,0.6c-0.25,0.26-0.36,0.59-0.3,0.94c0.17,1.03,1.6,2.05,3.27,2.33
			c1.34,0.18,4.41-0.42,5.55-0.65c-1.15-0.8-4.67-3.04-6.14-3.17l-0.01,0C234.55,40.38,234.36,40.36,234.17,40.36z M242.44,43.61
			c-2.51-0.67-5.07-1.19-7.6-1.55l-0.06,0.44c2.52,0.36,5.06,0.88,7.55,1.54L242.44,43.61z M235.13,35.15l-0.07-0.21l-0.2,0.07
			c-0.04-0.09-0.41-0.62-0.8-1.19c-1.14-1.67-3.06-4.47-3.64-5.79l0-0.01c-0.51-1.33-0.53-2.51-0.05-3.18
			c0.27-0.38,0.69-0.57,1.18-0.54c1.43,0.06,3.21,1.83,3.88,3.89c0.58,1.65,0.15,5.81-0.14,6.74c0,0.03-0.01,0.05-0.01,0.08
			l-0.04,0.11L235.13,35.15z M230.83,27.87c0.57,1.29,2.47,4.06,3.6,5.71c0.23,0.33,0.4,0.58,0.52,0.77c0.2-1.27,0.6-4.47,0.06-6.01
			c-0.61-1.86-2.24-3.54-3.48-3.59c-0.34-0.02-0.63,0.11-0.81,0.36C230.34,25.65,230.38,26.7,230.83,27.87z M235.4,35.91
			c-0.61-2.75-1.42-5.51-2.4-8.21l-0.42,0.15c0.97,2.69,1.77,5.43,2.38,8.16L235.4,35.91z M228.13,37.84
			c-1.94-0.05-3.71-0.99-4.11-2.18c-0.16-0.48-0.08-0.96,0.21-1.37c0.48-0.66,1.47-1.07,2.65-1.08c1.66-0.09,6.48,2.03,7.34,2.58
			c0.05,0.01,0.08,0.04,0.12,0.09c0,0,0.01,0.01,0.01,0.01l0.07,0.11l-0.22,0.43l-0.12-0.16c-0.06,0.02-0.13,0.05-0.22,0.08
			C232.71,36.75,229.64,37.84,228.13,37.84z M227.01,33.64c-0.04,0-0.07,0-0.1,0l-0.01,0c-1.05,0.01-1.91,0.34-2.3,0.89
			c-0.21,0.3-0.26,0.63-0.15,0.98c0.34,1.01,1.96,1.84,3.69,1.88c1.38,0,4.37-1.04,5.49-1.44C232.37,35.34,228.6,33.64,227.01,33.64
			z M235.17,35.78c-2.63-0.32-5.29-0.48-7.9-0.49l0,0.44c2.6,0.01,5.24,0.17,7.85,0.48L235.17,35.78z M258.68,97.79
			c1.01-12.98-1.14-26.01-6.24-37.7c-5.36-12.3-13.9-22.82-24.71-30.41l-0.25,0.36c21.08,14.82,32.86,40.76,30.76,67.72
			c-2.09,26.79-17.29,49.64-40.65,61.13l0.2,0.4C241.28,147.72,256.57,124.74,258.68,97.79z M228.44,30.81l0.01-0.14
			c-0.2-0.06-0.58-0.18-1-0.3c-1.81-0.54-5.18-1.54-6.65-2.28l-0.01,0c-1.91-1.05-3.59-2.73-3.12-3.88
			c0.12-0.29,0.37-0.51,0.73-0.64c0.98-0.35,2.63-0.01,4.21,0.85c1.8,0.91,5.6,4.95,6.22,5.94c0.1,0.06,0.09,0.1,0.09,0.18
			c0,0,0,0.01,0,0.01l-0.02,0.15L228.44,30.81z M221.01,27.69c1.43,0.72,4.78,1.72,6.57,2.25c0.19,0.06,0.35,0.1,0.49,0.15
			c-1.08-1.27-3.95-4.41-5.67-5.28c-1.68-0.93-3.14-1.08-3.85-0.83c-0.24,0.09-0.4,0.22-0.46,0.39
			C217.77,25.14,219.08,26.63,221.01,27.69z M229.76,31.15c-2.61-1.92-5.4-3.69-8.27-5.26l-0.21,0.39c2.86,1.56,5.63,3.32,8.22,5.23
			L229.76,31.15z"/>
		<path class="st41" d="M130.01,109.47c-3.46-6.29-5.02-16.22,0.98-25.22c1.65-2.47,4.25-5.43,7.26-8.87
			c1.33-1.51,2.73-3.11,4.16-4.79l0.51,0.43c-1.44,1.69-2.84,3.29-4.17,4.8c-3,3.41-5.59,6.36-7.21,8.8
			c-5.84,8.76-4.32,18.41-0.95,24.53L130.01,109.47z M154.52,171.44c0.75-3.95,1.49-7.9,2.19-11.86c0.69-3.96,1.36-7.93,1.88-11.92
			c0.25-2,0.49-4,0.54-6.04c0-2.04-0.21-4.05-0.47-6.06c-0.54-4.01-1.37-7.95-2.4-11.87l-0.85,0.24c1.08,3.84,1.95,7.77,2.55,11.72
			c0.29,1.97,0.51,3.98,0.55,5.95c-0.01,1.98-0.22,3.99-0.44,5.98c-0.46,3.99-1.06,7.96-1.69,11.93c-0.63,3.97-1.31,7.93-2,11.89
			L154.52,171.44z M200.95,82.07c0.9,2.05,1.73,4.13,2.28,6.29c0.55,2.15,0.85,4.36,0.75,6.56c-0.06,0.54-0.05,1.1-0.15,1.63
			l-0.32,1.61c-0.29,1.06-0.67,2.1-1.09,3.14c-1.75,4.12-3.98,8.07-6.19,12.02c-2.22,3.94-4.52,7.86-6.67,11.87
			c-1.07,2.01-2.11,4.04-3.01,6.14c-0.44,1.06-0.88,2.12-1.2,3.25c-0.31,1.12-0.6,2.29-0.41,3.58c0.28,1.25,0.91,2.25,1.54,3.22
			c0.64,0.96,1.36,1.86,2.08,2.74c1.45,1.76,2.97,3.45,4.46,5.15c3,3.39,5.97,6.81,8.46,10.57c2.5,3.73,4.42,7.94,4.41,12.49
			c0.24-1.11,0.28-2.28,0.14-3.43c-0.15-1.14-0.45-2.27-0.86-3.34c-0.79-2.16-1.9-4.18-3.14-6.09c-2.48-3.84-5.44-7.31-8.41-10.74
			c-1.48-1.72-2.98-3.42-4.39-5.17c-0.7-0.88-1.39-1.77-2-2.7c-0.6-0.92-1.16-1.9-1.37-2.88c-0.14-0.97,0.11-2.07,0.42-3.12
			c0.31-1.06,0.75-2.09,1.19-3.12c0.91-2.05,1.96-4.05,3.03-6.04c2.16-3.97,4.47-7.87,6.71-11.81c2.24-3.95,4.48-7.91,6.26-12.15
			c0.43-1.07,0.83-2.15,1.13-3.28l0.34-1.73c0.11-0.58,0.1-1.17,0.16-1.75c0.1-2.34-0.22-4.66-0.8-6.9
			c-0.58-2.24-1.42-4.4-2.49-6.43c-1.07-2.03-2.34-3.96-3.88-5.65C199.02,78.01,200.05,80.02,200.95,82.07z M200.26,87.92
			c0.2,1.05,0.35,2.1,0.41,3.16c0.02,0.53,0.06,1.06,0.08,1.59l-0.05,1.59c0,0.53-0.1,1.06-0.14,1.58l-0.08,0.79l-0.14,0.78
			l-0.29,1.57l-0.42,1.54l-0.21,0.78l-0.27,0.76l-0.54,1.52c-0.37,1.01-0.87,1.97-1.27,2.99c0.6-0.91,1.19-1.83,1.73-2.78l0.71-1.48
			c0.12-0.25,0.24-0.5,0.35-0.75l0.27-0.78l0.54-1.57l0.38-1.61c0.06-0.27,0.13-0.54,0.18-0.81l0.1-0.82
			c0.05-0.55,0.16-1.1,0.17-1.65c0.14-2.22-0.12-4.45-0.68-6.58c-0.56-2.13-1.48-4.18-2.81-5.92
			C199.22,83.76,199.84,85.83,200.26,87.92z M191.1,79.25c-2.55,0.62-5.2,1.03-7.82,1.03c-2.62,0.06-5.11-0.82-7.83-1.27
			c-1.35-0.22-2.8-0.33-4.22,0.09c-0.71,0.18-1.37,0.55-1.98,0.96c-0.27,0.24-0.57,0.46-0.82,0.72c-0.23,0.27-0.5,0.54-0.7,0.81
			l-4.69,6.52l-9.33,13.08c-3.13,4.35-6.22,8.72-8.97,13.34c3.51-4.07,6.66-8.39,9.79-12.73l9.43-12.99l4.69-6.52
			c0.2-0.27,0.41-0.47,0.61-0.71c0.21-0.22,0.46-0.4,0.68-0.61c0.5-0.33,1.02-0.64,1.61-0.79c1.16-0.35,2.45-0.28,3.73-0.07
			c1.29,0.2,2.58,0.54,3.91,0.79c1.33,0.27,2.73,0.42,4.09,0.39c2.74-0.04,5.41-0.5,8.05-1.19L191.1,79.25z M186.65,73.16
			c2.43-2.23,4.12-7.17,4.62-8.76c0.31,0.08,0.76,0.1,1.41-0.02c1.52-0.28,2.1-3.76,2.2-4.46l-0.88-0.13
			c-0.25,1.71-0.91,3.61-1.48,3.71c-0.28,0.05-0.5,0.07-0.67,0.07c-0.38,0-0.51-0.09-0.5-0.07c-0.1-0.13-0.27-0.19-0.43-0.16
			c-0.16,0.03-0.29,0.15-0.34,0.31c-0.02,0.06-1.84,6.4-4.52,8.85c-2.74,2.51-7.83,4.77-10.42,4.69c-1.49-0.06-3.17-4.03-4.08-6.17
			c-0.23-0.54-0.43-1.01-0.59-1.35c-1.01-2.12-2.93-6.65-3-7.53c-0.04-0.47,0.13-1.25,0.27-1.94c0.19-0.93,0.3-1.47,0.19-1.84
			c-0.09-0.31-0.38-0.64-0.75-1.06c-0.42-0.47-1-1.12-1-1.54c0-0.67,1.16-5.75,1.94-9l-0.86-0.21c-0.2,0.84-1.96,8.22-1.96,9.2
			c0,0.76,0.65,1.49,1.22,2.13c0.22,0.25,0.52,0.59,0.56,0.71c0.05,0.18-0.11,0.92-0.21,1.41c-0.16,0.78-0.33,1.59-0.29,2.18
			c0.1,1.25,2.46,6.54,3.09,7.85c0.16,0.33,0.35,0.78,0.57,1.31c1.12,2.64,2.8,6.64,4.86,6.71c0.06,0,0.13,0,0.19,0
			C178.68,78.08,183.79,75.78,186.65,73.16z M177.06,58.37c0.22-0.47,0.68-0.94,1.2-1.17c0.54-0.26,1.15-0.27,1.81-0.19
			c0.66,0.07,1.31,0.19,1.99,0.23c0.68,0.06,1.39-0.14,1.89-0.59c-0.55,0.39-1.23,0.49-1.87,0.37c-0.64-0.11-1.28-0.3-1.94-0.44
			c-0.64-0.15-1.42-0.25-2.12,0c-0.71,0.25-1.32,0.71-1.75,1.4L177.06,58.37z M171.66,57.3c-0.61-0.25-1.18-0.35-1.8-0.38
			c-0.61-0.01-1.23,0.09-1.77,0.36c-0.56,0.27-0.94,0.7-1.41,0.98c-0.46,0.27-1.01,0.58-1.55,0.39c0.25,0.15,0.56,0.13,0.84,0.08
			c0.28-0.05,0.56-0.16,0.82-0.28c0.53-0.23,0.99-0.61,1.48-0.76c0.5-0.17,1.03-0.19,1.54-0.11c0.51,0.08,1.03,0.26,1.45,0.5
			L171.66,57.3z M175.55,55.7c1.26-0.41,2.51-0.92,3.74-1.3c0.15-0.04,0.3-0.08,0.44-0.11c0.08-0.02,0.11-0.01,0.17-0.02
			c0.07,0,0.16,0.01,0.24,0.02c0.33,0.04,0.66,0.07,0.99,0.09c0.66,0.04,1.33,0.06,2.03,0.02c-0.63-0.27-1.28-0.47-1.94-0.67
			c-0.33-0.09-0.66-0.18-1-0.26c-0.09-0.02-0.16-0.04-0.26-0.06c-0.11,0-0.25-0.01-0.33,0c-0.2,0.02-0.37,0.05-0.55,0.08
			c-0.69,0.15-1.34,0.35-1.98,0.59c-0.64,0.23-1.27,0.49-1.88,0.78L175.55,55.7z M171.03,55.54c-0.09-0.05-2.12-1.12-4.92-0.19
			l0.28,0.84c2.41-0.8,4.2,0.12,4.22,0.13L171.03,55.54z M177.66,42.72c-0.38,0.94-0.57,1.89-0.62,2.87
			c-0.05,0.98,0.08,1.99,0.46,2.92c0.37,0.93,0.96,1.77,1.7,2.43c0.76,0.65,1.57,1.15,2.39,1.6c1.62,0.92,3.35,1.67,4.44,3.06
			c1.12,1.37,1.34,3.28,1.44,5.12c0.34-1.81,0.26-3.88-0.9-5.53c-1.2-1.62-3.01-2.43-4.56-3.38c-0.79-0.47-1.55-0.98-2.2-1.54
			c-0.64-0.59-1.13-1.31-1.44-2.11c-0.61-1.59-0.51-3.5,0.11-5.1L177.66,42.72z M185.73,51c0.03,1.53,0.51,3.12,1.46,4.4
			c0.93,1.3,2.3,2.2,3.67,2.87c1.27,0.62,2.46,1.42,3.44,2.41c0.97,1,1.74,2.18,2.14,3.5c0.39,1.32,0.37,2.75,0.05,4.11
			c-0.65,2.78-2.44,5.15-4.09,7.62c2.37-1.82,4.21-4.39,5.04-7.38c0.4-1.49,0.49-3.11,0.08-4.66c-0.39-1.55-1.27-2.93-2.37-4.04
			c-1.09-1.12-2.4-2-3.81-2.63c-1.29-0.6-2.45-1.37-3.31-2.45c-0.86-1.07-1.37-2.4-1.57-3.81c-0.17-1.41-0.09-2.89,0.23-4.34
			C186.05,47.95,185.7,49.46,185.73,51z M198.47,56.74c0.35,1.96,1.42,3.8,2.77,5.21c1.35,1.43,2.77,2.67,4.04,4.07
			c1.32,1.36,2.45,2.87,3.5,4.41c1,1.58,1.79,3.28,2.16,5.08c0.38,1.79,0.3,3.68-0.32,5.42c-0.1,0.45-0.33,0.86-0.5,1.29
			c-0.18,0.43-0.36,0.85-0.62,1.24l-0.72,1.2l-0.85,1.12l-0.43,0.56l-0.48,0.52l-0.95,1.05c-0.66,0.67-1.37,1.31-2.05,1.97
			l0.38,0.45c0.72-0.64,1.46-1.26,2.15-1.93l1-1.05l0.5-0.53l0.45-0.57l0.9-1.14l0.78-1.24c0.28-0.4,0.49-0.85,0.69-1.3
			c0.19-0.45,0.45-0.88,0.56-1.37c0.68-1.86,0.79-3.94,0.4-5.88c-0.39-1.95-1.21-3.77-2.25-5.43c-1.07-1.63-2.28-3.16-3.63-4.55
			c-1.31-1.42-2.78-2.69-4.06-4.04c-1.29-1.35-2.23-2.94-2.57-4.76c-0.39-1.81-0.22-3.68-0.61-5.62
			C198.01,52.8,198.1,54.8,198.47,56.74z M176.32,33.91c-1.49-0.2-3.03-0.2-4.54,0.06c-0.38,0.06-0.75,0.14-1.12,0.25
			c-0.38,0.09-0.74,0.23-1.1,0.37c-0.72,0.28-1.37,0.65-2.06,0.98c-1.29,0.78-2.62,1.59-3.65,2.78c-1.04,1.15-1.86,2.53-2.31,4.04
			c-0.43,1.51-0.46,3.09-0.32,4.6c0.3,3.05,1.33,5.92,2.93,8.46c-0.29-1.48-0.72-2.88-1.05-4.3c-0.35-1.41-0.7-2.82-0.8-4.25
			c-0.11-1.42-0.04-2.85,0.34-4.19c0.39-1.34,1.11-2.55,2.04-3.6c0.91-1.07,2.11-1.88,3.32-2.65c0.64-0.32,1.27-0.71,1.92-0.98
			c0.32-0.14,0.65-0.28,0.99-0.37c0.34-0.11,0.68-0.2,1.03-0.26c1.39-0.28,2.85-0.32,4.29-0.18c1.44,0.13,2.88,0.35,4.36,0.61
			C179.28,34.53,177.81,34.12,176.32,33.91z M167.14,53.21c-0.89-1.63-1.07-3.04-0.53-4.21c0.71-1.52,2.68-2.64,5.71-3.24
			c8.63-1.71,8.34-6.48,8.32-6.69l-0.88,0.07c0.01,0.17,0.19,4.2-7.61,5.75c-3.36,0.67-5.49,1.92-6.34,3.73
			c-0.67,1.43-0.48,3.12,0.55,5.01L167.14,53.21z M174.04,110.03c-2.18,1.66-4.38,3.3-6.6,4.91c-4.44,3.2-8.94,6.35-13.64,9.12
			c-2.35,1.35-4.77,2.72-7.29,3.47c-0.31,0.1-0.62,0.14-0.94,0.21l-0.99,0.1c-0.33,0.05-0.66,0.05-0.99,0.05
			c-0.33,0-0.66,0.02-0.98-0.02c-1.29-0.08-2.54-0.47-3.43-1.27c-0.42-0.42-0.77-0.92-1.01-1.49c-0.23-0.57-0.36-1.2-0.43-1.84
			c-0.17-1.3,0.06-2.58,0.22-3.96l1.12-8.15c1.54-10.87,3.16-21.72,4.79-32.58l0.3-2.04c0.05-0.35,0.11-0.65,0.14-1.07
			c0.03-0.39-0.01-0.79-0.09-1.18c-0.37-1.38-0.74-2.66-1.14-4c-0.2-0.66-0.4-1.32-0.62-1.98c-0.12-0.34-0.21-0.64-0.41-1.04
			c-0.11-0.2-0.16-0.47-0.18-0.77c-0.03-0.6,0.07-1.25,0.22-1.89c0.15-0.65,0.36-1.26,0.58-1.93c0.42-1.33,0.76-2.66,1.15-3.96
			c0.2-0.64,0.41-1.28,0.69-1.85c0.14-0.28,0.29-0.56,0.48-0.77c0.09-0.12,0.19-0.19,0.29-0.28c0.1-0.06,0.2-0.13,0.36-0.2
			c1.19-0.52,2.52-0.84,3.82-0.93c0.31-0.02,0.69-0.03,0.91,0.02c0.24,0.05,0.49,0.19,0.73,0.37c0.48,0.37,0.91,0.89,1.25,1.41l0,0
			l0.4-0.67l-1.56-0.06l-0.16,0.01l-0.1,0.02l-0.2,0.03l-0.39,0.07l-0.76,0.15l-3.03,0.64c-0.17,0.04-0.31,0.17-0.34,0.35
			c-0.29,1.73-0.57,3.44-0.64,5.23c0,0.23-0.01,0.45,0.01,0.69c0.01,0.12,0.01,0.23,0.04,0.37c0.02,0.12,0.04,0.26,0.12,0.43
			c0.15,0.3,0.28,0.43,0.44,0.62c0.15,0.18,0.32,0.34,0.49,0.5c0.68,0.61,1.55,1.2,2.66,1.12c0.54-0.06,1.04-0.3,1.42-0.69
			c0.37-0.38,0.59-0.83,0.76-1.27c0.32-0.88,0.45-1.76,0.61-2.6c0.16-0.83,0.33-1.7,0.75-2.24c0.24-0.3,0.53-0.54,0.83-0.68
			c0.29-0.14,0.68-0.14,0.89-0.04l-0.22-0.53c-0.32,1.02-0.58,2.04-0.79,3.1c-0.1,0.53-0.19,1.06-0.22,1.61
			c-0.02,0.27-0.02,0.57,0,0.85l0.06,0.78c0.14,2.06,0.13,4.15-0.42,6.08c-0.29,0.96-0.71,1.84-1.41,2.54
			c-0.73,0.78-1.45,1.58-1.98,2.6c-0.26,0.51-0.43,1.11-0.44,1.69c-0.01,0.58,0.02,1.07,0.02,1.6l0.07,3.14l0.56,25.15l0.88-0.02
			l-0.56-25.15l-0.07-3.14c-0.01-0.51-0.04-1.07-0.02-1.54c0.01-0.47,0.13-0.9,0.35-1.33c0.44-0.85,1.13-1.64,1.83-2.38
			c0.8-0.79,1.32-1.85,1.62-2.9c0.61-2.11,0.6-4.29,0.46-6.4l-0.06-0.79c-0.02-0.24-0.02-0.47,0-0.72c0.03-0.49,0.11-1,0.21-1.5
			c0.19-1,0.46-2.02,0.76-2.99l0.01-0.03c0.06-0.2-0.04-0.41-0.23-0.5c-0.59-0.25-1.14-0.18-1.64,0.02
			c-0.49,0.22-0.87,0.56-1.17,0.94c-0.63,0.87-0.74,1.78-0.93,2.63c-0.16,0.86-0.3,1.71-0.57,2.46c-0.26,0.75-0.75,1.33-1.43,1.38
			c-0.66,0.06-1.4-0.36-1.98-0.9c-0.27-0.26-0.6-0.61-0.73-0.86c-0.07-0.19-0.09-0.69-0.08-1.08c0.07-1.68,0.34-3.4,0.63-5.09
			l-0.34,0.35l3.02-0.64l0.75-0.15l0.67-0.12l1.53,0.06l0,0c0.08,0,0.17-0.02,0.25-0.07c0.21-0.13,0.27-0.4,0.14-0.61l0-0.01
			c-0.4-0.63-0.85-1.18-1.45-1.67c-0.3-0.23-0.65-0.45-1.09-0.55c-0.46-0.08-0.77-0.06-1.15-0.05c-1.44,0.1-2.82,0.41-4.15,0.98
			c-0.15,0.06-0.35,0.17-0.54,0.29c-0.16,0.13-0.34,0.27-0.45,0.43c-0.27,0.3-0.45,0.64-0.62,0.96c-0.33,0.66-0.55,1.33-0.77,1.99
			c-0.42,1.33-0.76,2.65-1.18,3.94c-0.43,1.28-0.92,2.66-0.88,4.19c0.02,0.38,0.09,0.81,0.3,1.22c0.1,0.22,0.23,0.57,0.33,0.88
			c0.21,0.64,0.41,1.29,0.6,1.95c0.38,1.3,0.76,2.66,1.09,3.93c0.14,0.58,0.04,1.12-0.08,1.84l-0.31,2.03
			c-1.64,10.86-3.28,21.71-4.84,32.58c-0.39,2.72-0.78,5.44-1.11,8.17c-0.08,0.69-0.17,1.36-0.23,2.08
			c-0.08,0.75-0.04,1.43,0.03,2.16c0.08,0.72,0.24,1.45,0.52,2.15c0.29,0.7,0.74,1.35,1.3,1.89c1.17,1.05,2.7,1.48,4.13,1.56
			c0.36,0.05,0.72,0.02,1.08,0.02c0.36,0,0.72-0.01,1.07-0.06l1.06-0.12c0.36-0.08,0.73-0.14,1.07-0.24c1.38-0.4,2.66-0.98,3.9-1.61
			c1.24-0.63,2.45-1.3,3.64-2.01c4.75-2.82,9.25-6,13.69-9.23c2.22-1.62,4.42-3.27,6.6-4.95c2.18-1.68,4.3-3.43,6.19-5.46
			C178.43,106.76,176.22,108.38,174.04,110.03z M171.92,59.69c-0.18,0.9-0.41,1.79-0.78,2.58c-0.19,0.39-0.4,0.77-0.67,1.08
			c-0.08,0.13-0.39,0.4-0.47,0.79c-0.11,0.42,0.09,0.87,0.31,1.08c0.46,0.45,0.94,0.63,1.42,0.77c0.49,0.12,1.01,0.16,1.51-0.04
			c-0.45-0.24-0.85-0.46-1.25-0.65c-0.39-0.19-0.8-0.42-0.98-0.68c-0.09-0.14-0.08-0.18-0.06-0.23c0.03-0.08,0.09-0.14,0.3-0.38
			c0.36-0.4,0.6-0.86,0.82-1.32c0.41-0.93,0.6-1.91,0.7-2.87c0.08-0.97,0.03-1.95-0.26-2.89C172.26,57.87,172.11,58.79,171.92,59.69
			z M156.43,45.71c0-2.34-0.22-4.58-0.66-6.65l-0.65,0.14c0.43,2.03,0.65,4.22,0.65,6.51c0,5-2.76,11.1-8.44,18.66l0.53,0.4
			C153.62,57.09,156.43,50.86,156.43,45.71z M155.58,39.27c0.19-0.15,4.6-3.8,4.87-8.67c0.27-4.88-3.73-8.98-3.9-9.15
			c-0.12-0.12-0.31-0.13-0.44-0.02c-0.19,0.15-4.6,3.8-4.87,8.67c-0.27,4.88,3.73,8.98,3.9,9.15c0.06,0.07,0.15,0.1,0.24,0.1
			C155.44,39.35,155.52,39.32,155.58,39.27z M159.79,30.56c-0.22,3.96-3.48,7.17-4.39,7.99c-0.82-0.92-3.71-4.46-3.5-8.42
			c0.22-3.96,3.48-7.17,4.39-7.99C157.1,23.06,160,26.6,159.79,30.56z M155.38,39.26c0.08-0.24,2.05-5.89-0.36-10.39l0,0
			c-2.41-4.5-8.21-5.99-8.45-6.05l-0.29-0.07l-0.1,0.28c-0.08,0.24-2.05,5.89,0.36,10.39c2.41,4.5,8.21,5.99,8.45,6.06l0.29,0.07
			L155.38,39.26z M154.43,29.19L154.43,29.19c1.97,3.68,0.78,8.35,0.41,9.56c-1.21-0.37-5.76-1.96-7.73-5.64
			c-1.97-3.68-0.78-8.35-0.41-9.56C147.91,23.91,152.46,25.51,154.43,29.19z M155.17,39.49c0.16-0.05,0.26-0.22,0.23-0.38
			c-0.05-0.24-1.25-5.84-5.46-8.32c-4.21-2.48-9.69-0.82-9.92-0.75c-0.16,0.05-0.26,0.22-0.23,0.38c0.05,0.24,1.25,5.84,5.46,8.32
			c1.78,1.05,3.8,1.36,5.54,1.36C153.16,40.1,155.03,39.54,155.17,39.49z M149.59,31.37c3.41,2.01,4.76,6.39,5.07,7.58
			c-1.19,0.3-5.67,1.24-9.09-0.77c-3.41-2.01-4.76-6.39-5.07-7.58C141.7,30.29,146.18,29.35,149.59,31.37z M148.67,45.92
			c4.27-1.49,6.37-6.35,6.46-6.55l0.12-0.28l-0.26-0.14c-0.2-0.11-4.87-2.6-9.13-1.11c-4.27,1.49-6.37,6.35-6.46,6.55l-0.12,0.28
			l0.26,0.14c0.15,0.08,2.96,1.58,6.2,1.58C146.7,46.39,147.69,46.26,148.67,45.92z M146.06,38.45c3.42-1.19,7.26,0.43,8.32,0.93
			c-0.51,1.05-2.51,4.71-5.93,5.91c-3.42,1.19-7.26-0.43-8.32-0.93C140.65,43.31,142.65,39.65,146.06,38.45z M164.22,37.58
			c3.6-2.73,4.11-8,4.13-8.22l0.03-0.3l-0.3-0.06c-0.22-0.04-5.43-0.98-9.03,1.74h0c-3.6,2.73-4.11,8-4.13,8.22l-0.03,0.3l0.3,0.06
			c0.09,0.02,1.05,0.19,2.39,0.19C159.46,39.51,162.12,39.17,164.22,37.58z M159.45,31.28c2.89-2.18,7.04-1.82,8.2-1.67
			c-0.17,1.15-0.94,5.25-3.83,7.44c-2.89,2.18-7.05,1.82-8.2,1.67C155.79,37.57,156.56,33.47,159.45,31.28z"/>
		<path class="st32" d="M225.71,97.54c-0.16-0.22-3.87-5.47-1.9-11.69c0.74-2.32,1.66-3.57,2.75-3.72c1.28-0.17,2.19,1.24,2.23,1.3
			l-0.56,0.36c-0.01-0.01-0.75-1.12-1.59-1c-0.56,0.07-1.39,0.7-2.2,3.26c-1.87,5.9,1.77,11.05,1.8,11.1L225.71,97.54z
			 M226.11,97.65c0.29-0.12,7.13-2.99,8.88-6.39c0.65-1.26,0.81-2.22,0.51-2.93c-0.22-0.51-0.67-0.86-1.32-1.04
			c-2.47-0.88-2.59-3.58-2.59-3.69c0,0,0-0.01,0-0.01c-0.04-0.77-0.3-1.25-0.78-1.43c-0.83-0.31-1.93,0.53-2.4,1.01
			c-2.57,2.67-2.76,13.69-2.76,14.16c0,0.11,0.05,0.22,0.15,0.28c0.06,0.04,0.12,0.06,0.19,0.06
			C226.02,97.67,226.07,97.67,226.11,97.65z M230.58,82.79c0.25,0.09,0.33,0.51,0.35,0.84c0.01,0.19,0.2,3.28,3.05,4.29
			c0.47,0.13,0.77,0.35,0.91,0.67c0.22,0.51,0.06,1.3-0.49,2.36c-1.38,2.69-6.49,5.16-8.07,5.87c0.07-2.23,0.47-11.02,2.56-13.19
			c0.44-0.46,1.11-0.88,1.53-0.88C230.48,82.76,230.53,82.77,230.58,82.79z M233.68,102.09c0.38,0.07,1.24,0.16,1.88-0.35
			c0.46-0.36,0.69-0.93,0.69-1.7c0.16-0.1,0.47-0.25,0.84-0.23c0.45,0.03,0.89,0.3,1.31,0.81c0.1,0.12,0.27,0.15,0.4,0.08
			c0.14-0.07,0.21-0.22,0.18-0.37c-0.05-0.21-1.15-5.17-3.79-6.8c-0.82-0.5-1.69-0.64-2.61-0.41l0.16,0.64
			c0.74-0.19,1.43-0.08,2.1,0.33c1.71,1.06,2.76,3.83,3.22,5.35c-0.3-0.18-0.61-0.27-0.93-0.29c-0.83-0.05-1.41,0.46-1.43,0.48
			c-0.07,0.07-0.11,0.16-0.11,0.26c0.03,0.63-0.12,1.08-0.44,1.33c-0.55,0.43-1.47,0.19-1.48,0.19c-0.12-0.03-0.24,0-0.33,0.09
			c-0.27,0.28-0.61,0.41-1.01,0.39c-2.36-0.11-6.05-4.7-6.09-4.75l-0.52,0.41c0.16,0.2,3.92,4.88,6.57,5c0.04,0,0.07,0,0.11,0
			C232.9,102.55,233.32,102.39,233.68,102.09z M230.97,87.13c-0.43-0.38-0.9-0.52-1.41-0.43c-1.64,0.31-3.04,3.01-3.1,3.13l0.2,0.1
			c0.01-0.03,1.41-2.72,2.94-3.01c0.44-0.08,0.85,0.04,1.22,0.38c1.91,1.69,3.6,3.56,1.4,6.35l0.17,0.14
			C234.72,90.85,232.88,88.81,230.97,87.13z M225.94,87.02c0.37-0.07,0.73,0.02,1.05,0.24l0.13-0.18c-0.37-0.26-0.78-0.36-1.21-0.28
			c-1.26,0.22-2.35,1.79-2.39,1.86l0.18,0.12C223.71,88.77,224.77,87.23,225.94,87.02z M237.06,97.37c0.28-0.31,0.25-0.84-0.08-1.56
			c-1.2-2.57-6.81-0.69-7.04-0.61l0.07,0.21c0.06-0.02,5.66-1.9,6.77,0.49c0.3,0.64,0.34,1.08,0.12,1.32
			c-0.32,0.36-1.29,0.3-2.57-0.16c-0.3-0.11-0.61-0.23-0.89-0.36c-1.71-0.78-5.29-0.43-5.45-0.42l0.02,0.22
			c0.04,0,3.67-0.36,5.33,0.4c0.29,0.13,0.61,0.26,0.91,0.37c0.51,0.18,1.27,0.4,1.9,0.4C236.53,97.68,236.86,97.6,237.06,97.37z
			 M232.62,100.49c0.32-0.18,0.52-0.47,0.58-0.84c0.35-2.03-0.99-3.23-1.05-3.28L232,96.54c0.01,0.01,1.3,1.17,0.98,3.08
			c-0.05,0.31-0.21,0.54-0.47,0.69c-1.16,0.67-3.93-0.36-3.96-0.37l-0.08,0.21c0.09,0.03,1.64,0.61,2.95,0.61
			C231.88,100.75,232.3,100.68,232.62,100.49z M225.67,96.98l0-0.22c0,0-0.01,0-0.01,0c-1.39,0-2.3-1.86-2.59-2.85
			c-0.35-1.21-1.53-1.57-1.58-1.58l-0.06,0.21c0.01,0,1.12,0.34,1.43,1.43c0.3,1.04,1.28,3.01,2.8,3.01
			C225.66,96.98,225.67,96.98,225.67,96.98z M225.87,97.03l-0.06-0.21c-1.25,0.35-2.64-1.04-3.27-2.06
			c-0.66-1.08-1.9-1.11-1.95-1.11l0,0.22c0.01,0,1.17,0.03,1.76,1c0.51,0.83,1.73,2.22,3.03,2.22
			C225.55,97.1,225.71,97.08,225.87,97.03z"/>
		<path class="st42" d="M233.31,56.68c0,0.4-0.33,0.73-0.73,0.73c-0.4,0-0.73-0.33-0.73-0.73s0.33-0.73,0.73-0.73
			C232.99,55.95,233.31,56.28,233.31,56.68z M224.16,119.37c1.14,0,1.14-1.77,0-1.77C223.02,117.6,223.02,119.37,224.16,119.37
			L224.16,119.37z M170.74,20.33c-0.57,0-0.57-0.88,0-0.88C171.31,19.44,171.31,20.33,170.74,20.33L170.74,20.33z M108.89,99.8
			c-0.57,0-0.57-0.88,0-0.88C109.46,98.91,109.45,99.8,108.89,99.8L108.89,99.8z M178.02,17.51c-1.14,0-1.14-1.77,0-1.77
			C179.16,15.74,179.15,17.51,178.02,17.51L178.02,17.51z M207.93,51.24c-1.71,0-1.71-2.65,0-2.65
			C209.64,48.59,209.64,51.24,207.93,51.24L207.93,51.24z M168.29,11.28c-1.71,0-1.71-2.65,0-2.65C170,8.63,170,11.28,168.29,11.28
			L168.29,11.28z M134.97,55.17c-1.71,0-1.71-2.65,0-2.65C136.68,52.52,136.68,55.17,134.97,55.17L134.97,55.17z M234.31,72.06
			c-1.71,0-1.71-2.65,0-2.65C236.02,69.41,236.02,72.06,234.31,72.06L234.31,72.06z M147.26,151.97c-1.71,0-1.71-2.65,0-2.65
			C148.97,149.32,148.97,151.97,147.26,151.97L147.26,151.97z M203.38,141.19c-1.71,0-1.71-2.65,0-2.65
			C205.09,138.54,205.09,141.19,203.38,141.19L203.38,141.19z M140.11,141.44c-1.71,0-1.71-2.65,0-2.65
			C141.82,138.78,141.82,141.44,140.11,141.44L140.11,141.44z M108.09,80.69c-1.71,0-1.71-2.65,0-2.65
			C109.8,78.04,109.8,80.69,108.09,80.69L108.09,80.69z M125.84,72.51c-1.14,0-1.14-1.77,0-1.77
			C126.98,70.74,126.98,72.51,125.84,72.51L125.84,72.51z M116.41,98.23c-1.14,0-1.14-1.77,0-1.77
			C117.55,96.46,117.55,98.23,116.41,98.23L116.41,98.23z M224.16,136.1c-1.14,0-1.14-1.77,0-1.77
			C225.3,134.33,225.3,136.1,224.16,136.1L224.16,136.1z M186.46,22.57c0,0.49-0.4,0.89-0.89,0.89c-0.49,0-0.89-0.4-0.89-0.89
			c0-0.49,0.4-0.89,0.89-0.89C186.06,21.68,186.46,22.08,186.46,22.57z M204.27,17.26c0,0.35-0.28,0.63-0.63,0.63
			c-0.35,0-0.63-0.28-0.63-0.63c0-0.35,0.28-0.63,0.63-0.63C203.99,16.63,204.27,16.91,204.27,17.26z M233.31,122.07
			c0,0.4-0.33,0.73-0.73,0.73c-0.4,0-0.73-0.33-0.73-0.73s0.33-0.73,0.73-0.73C232.99,121.34,233.31,121.67,233.31,122.07z
			 M212.43,124.88c0,0.4-0.32,0.72-0.72,0.72s-0.72-0.32-0.72-0.72c0-0.4,0.32-0.72,0.72-0.72S212.43,124.48,212.43,124.88z
			 M216.63,146.54c-0.06,0-0.1,0.05-0.1,0.1c0,0.06,0.05,0.1,0.1,0.1c0.06,0,0.1-0.05,0.1-0.1
			C216.73,146.59,216.69,146.54,216.63,146.54z"/>
	</g>
</g>
</svg>
