<?xml version="1.0" encoding="utf-8"?>
<!-- Generator: Adobe Illustrator 27.8.1, SVG Export Plug-In . SVG Version: 6.00 Build 0)  -->
<svg version="1.1" xmlns="http://www.w3.org/2000/svg" xmlns:xlink="http://www.w3.org/1999/xlink" x="0px" y="0px"
	 viewBox="0 0 350 230" style="enable-background:new 0 0 350 230;" xml:space="preserve">
<style type="text/css">
	.st0{fill:#001C77;}
	.st1{fill:#077275;}
	.st2{fill:#001A5A;}
	.st3{fill:#00FF30;}
	.st4{fill:#809FA0;}
	.st5{fill:#003738;}
	.st6{fill:#D900FF;}
	.st7{fill:#85DD98;}
	.st8{fill:#00DB29;}
	.st9{fill:#48ED67;}
	.st10{fill:#00F9FF;}
	.st11{fill:#009599;}
	.st12{fill:#17CC3A;}
	.st13{fill:#003A0B;}
	.st14{fill:#B2FF61;}
	.st15{fill:#D37F07;}
	.st16{fill:#00E22B;}
	.st17{fill:#004947;}
	.st18{fill:#7600FF;}
	.st19{fill:#603400;}
	.st20{fill:#D67A00;}
	.st21{fill:#026854;}
	.st22{fill:#B76400;}
	.st23{fill:#4F2D05;}
	.st24{fill:#38FF00;}
	.st25{fill:#750009;}
	.st26{fill:#A8AC00;}
	.st27{fill:#E473FF;}
</style>
<g id="Layer_1">
</g>
<g id="Layer_2">
</g>
<g id="Layer_3">
	<g>
		<path class="st2" d="M130.09,81.2c0.26,0.01,0.52,0.02,0.78,0.03c-0.03,0-0.05,8.02-0.13,8.73
			C129.03,89.92,130.05,82.53,130.09,81.2z M210.72,76.13c0.3,0.01,0.59,0.02,0.89,0.04c-0.04,0-0.06,9.13-0.15,9.95
			C209.52,86.07,210.68,77.65,210.72,76.13z M169.44,48.6c0.43,0.02,0.86,0.04,1.29,0.05c-0.06,0-0.08,13.3-0.22,14.48
			C167.68,63.06,169.38,50.81,169.44,48.6z"/>
		<path class="st3" d="M111.16,122.88c-2.12,0.43-4.74,1.43-4.79,3.59c-0.04,1.75,1.71,2.95,3.27,3.75
			c24.66,12.66,53.59,13.19,81.3,12.43c15.73-0.43,31.86-1.28,46.32-7.48c3.22-1.38,6.85-3.95,6.32-7.42
			c-0.29-1.87-1.82-3.36-3.55-4.13s-3.66-0.92-5.55-1.07c-16.56-1.35-33.19-2.12-49.8-2.56c-16.74-0.44-33.49-0.47-50.23-0.08
			c-3.5,0.08-7.1-0.07-10.57,0.42C119.61,120.93,115.38,122.02,111.16,122.88z"/>
		<path class="st4" d="M195.62,126.95c-0.66-21.26-1.67-42.95-2.33-64.21c-15.09-7.7-33.3-8.13-48.53-0.72
			c1.19,21.75,2.39,43.49,3.58,65.24C162.34,136.11,181.7,135.94,195.62,126.95z M226.78,124.05c0.19-12.58-0.42-25.63-3.19-37.9
			c-3.97-2.74-8.91-3.8-13.73-3.84s-8.92,0.86-13.65,1.77c0.95,13.78,1.06,27.61,0.33,41.4c4.55,3.12,9.28,4.08,14.79,3.97
			C216.85,129.34,222.36,127.36,226.78,124.05z M144.78,126.42c-0.28-12.57-0.57-25.13-0.85-37.7c-8.42-4.46-20.11-4.25-27.92,1.22
			c0.32,11.94-0.42,23.93-0.1,35.87C124.33,131.42,135.88,131.23,144.78,126.42z"/>
		<path class="st5" d="M202.2,115.95c1.55,3,4.43,5.27,7.71,6.08c3.06,0.75,6.36,0.28,9.32,1.35c-1.97-1.36-3.44-3.3-4.8-5.27
			c-1.36-1.96-2.67-3.99-4.43-5.62c-1.75-1.62-3.79-2.76-6.18-2.66c2.14,0.33,4.31-0.72,5.81-2.28c1.49-1.56,2.41-3.58,3.15-5.61
			c0.88-2.43,1.56-4.94,2.01-7.48c-0.96,1.96-2.98,3.17-5.02,3.96c-2.03,0.79-4.2,1.28-6.1,2.35c-1.9,1.06-3.58,2.89-3.68,5.07
			c-0.03-2.09-1.17-4.32-2.75-5.68c-1.32-1.13-2.99-1.76-4.53-2.59c-1.53-0.83-3.03-2-3.54-3.66c-0.6,2.49-0.74,5.08-0.39,7.62
			c0.21,1.51,0.59,3.02,1.37,4.33c0.78,1.31,1.99,2.41,3.46,2.83c-2.12-0.89-4.55-0.61-6.55,0.52c-1.81,1.02-3.12,2.73-4.52,4.27
			c-1.4,1.54-3.09,3.01-5.15,3.3c1.44,0.33,2.92,0.44,4.36,0.77c2.32,0.54,4.71,1.07,7.06,0.7c2.79-0.44,5.33-2.23,6.69-4.7
			c-1.98,1.7-3.01,4.35-3.01,6.96c0,2.68,1.18,5.19,2.33,7.61c0.91,1.9,1.81,3.8,2.72,5.7c0.03-2.06,0.51-4.11,1.42-5.97
			c0.96-1.99,2.39-3.73,3.25-5.76C203.09,120.08,203.59,117.67,202.2,115.95z M143.45,116.42c-2.15,2.6-3.11,6.14-2.57,9.48
			c0.5,3.11,2.23,5.96,2.4,9.1c0.48-2.34,1.69-4.46,2.97-6.48c1.27-2.02,2.63-4.02,3.43-6.27c0.81-2.25,1.06-4.57,0.03-6.73
			c0.54,2.09,2.35,3.69,4.37,4.45c2.02,0.76,4.24,0.81,6.4,0.7c2.58-0.14,5.15-0.5,7.67-1.08c-2.18-0.12-4.09-1.5-5.61-3.06
			s-2.82-3.36-4.55-4.7c-1.73-1.34-4.06-2.16-6.11-1.4c1.91-0.85,3.52-2.76,4.14-4.76c0.52-1.66,0.44-3.44,0.61-5.18
			c0.16-1.73,0.65-3.57,1.99-4.69c-2.52,0.42-4.96,1.31-7.16,2.62c-1.31,0.78-2.55,1.73-3.45,2.96c-0.9,1.23-1.44,2.78-1.25,4.29
			c-0.02-2.29-1.22-4.42-3.04-5.82c-1.65-1.27-3.73-1.8-5.7-2.49c-1.97-0.69-3.98-1.66-5.06-3.44c0.26,1.46,0.74,2.86,1,4.32
			c0.42,2.34,0.86,4.75,2.12,6.77c1.5,2.39,4.14,4.03,6.94,4.32c-2.34-1.16-5.18-1.07-7.58-0.04c-2.46,1.05-4.31,3.12-6.09,5.13
			c-1.39,1.58-2.79,3.16-4.18,4.73c1.91-0.78,3.99-1.14,6.04-1.03c2.2,0.11,4.37,0.73,6.57,0.74
			C140.01,118.86,142.42,118.37,143.45,116.42z"/>
	</g>
</g>
<g id="Layer_4">
</g>
<g id="Layer_5">
</g>
<g id="Layer_6">
</g>
<g id="Layer_7">
</g>
<g id="Layer_8">
</g>
<g id="Layer_9">
</g>
<g id="Layer_10">
</g>
<g id="Layer_11">
</g>
<g id="Layer_12">
</g>
<g id="Layer_13">
</g>
<g id="Layer_14">
</g>
<g id="Layer_15">
</g>
</svg>
