<?xml version="1.0" encoding="utf-8"?>
<!-- Generator: Adobe Illustrator 27.8.1, SVG Export Plug-In . SVG Version: 6.00 Build 0)  -->
<svg version="1.1" xmlns="http://www.w3.org/2000/svg" xmlns:xlink="http://www.w3.org/1999/xlink" x="0px" y="0px"
	 viewBox="0 0 350 230" style="enable-background:new 0 0 350 230;" xml:space="preserve">
<style type="text/css">
	.st0{fill:#001C77;}
	.st1{fill:#077275;}
	.st2{fill:#001A5A;}
	.st3{fill:#00FF30;}
	.st4{fill:#809FA0;}
	.st5{fill:#003738;}
	.st6{fill:#D900FF;}
	.st7{fill:#85DD98;}
	.st8{fill:#00DB29;}
	.st9{fill:#48ED67;}
	.st10{fill:#00F9FF;}
	.st11{fill:#009599;}
	.st12{fill:#17CC3A;}
	.st13{fill:#003A0B;}
	.st14{fill:#B2FF61;}
	.st15{fill:#D37F07;}
	.st16{fill:#00E22B;}
	.st17{fill:#004947;}
	.st18{fill:#7600FF;}
	.st19{fill:#603400;}
	.st20{fill:#D67A00;}
	.st21{fill:#026854;}
	.st22{fill:#B76400;}
	.st23{fill:#4F2D05;}
	.st24{fill:#38FF00;}
	.st25{fill:#750009;}
	.st26{fill:#A8AC00;}
	.st27{fill:#E473FF;}
	.st28{fill:#1EA56E;}
	.st29{fill:#FF71F5;}
	.st30{fill-rule:evenodd;clip-rule:evenodd;fill:#009B9B;}
	.st31{fill-rule:evenodd;clip-rule:evenodd;fill:#007F33;}
	.st32{fill:#EC8EA5;}
	.st33{fill:#FFC59C;}
	.st34{fill:#D4D3B2;}
	.st35{fill:#53C6D9;}
	.st36{fill:#BA7DA0;}
	.st37{fill:#D6078C;}
	.st38{fill:#007F33;}
	.st39{fill:#7F3300;}
	.st40{fill:#FF7B22;}
	.st41{fill:#AF0838;}
	.st42{fill:#000093;}
	.st43{fill:#116D2B;}
	.st44{fill:#1F3502;}
	.st45{fill:#AF4161;}
	.st46{fill:#AA007C;}
	.st47{fill:#108E9B;}
	.st48{fill:#934159;}
	.st49{fill-rule:evenodd;clip-rule:evenodd;fill:#C4024D;}
	.st50{fill-rule:evenodd;clip-rule:evenodd;fill:#1A1A1A;}
	.st51{fill:#630625;}
	.st52{fill-rule:evenodd;clip-rule:evenodd;fill:#FFC59C;}
	.st53{fill-rule:evenodd;clip-rule:evenodd;fill:#53C6D9;}
	.st54{fill-rule:evenodd;clip-rule:evenodd;fill:#630625;}
	.st55{fill-rule:evenodd;clip-rule:evenodd;fill:#FFFFFF;}
</style>
<g id="Layer_1">
</g>
<g id="Layer_2">
</g>
<g id="Layer_3">
</g>
<g id="Layer_4">
</g>
<g id="Layer_5">
</g>
<g id="Layer_6">
</g>
<g id="Layer_7">
</g>
<g id="Layer_8">
</g>
<g id="Layer_9">
</g>
<g id="Layer_10">
</g>
<g id="Layer_11">
</g>
<g id="Layer_12">
</g>
<g id="Layer_13">
</g>
<g id="Layer_14">
</g>
<g id="Layer_15">
	<g>
		<g>
			<g>
				<g>
					<path class="st35" d="M192.89,46.53c-11.9,14.88-13.56,33.32-12.39,47.71c5.81-26.22,31.65-42.76,50.78-49.61
						c0.04-0.02,0.07-0.02,0.07-0.02c-0.02,0.01-0.04,0.02-0.07,0.02c-1.29,0.49-21.51,8.41-34.54,30.74
						c-6.15,10.55-7.78,22.15-7.61,32.03c2.99-4.82,8.17-10.09,17.23-12.81c19.23-5.77,46.14-19.23,53.83-69.21
						C260.18,25.38,215.96,17.69,192.89,46.53z"/>
					<path class="st35" d="M191.12,144.77c-6.8-8.5-7.75-19.05-7.08-27.27c3.32,14.99,18.09,24.44,29.02,28.35
						c0.02,0.01,0.04,0.01,0.04,0.01c-0.01,0-0.03-0.01-0.04-0.01c-0.73-0.28-12.3-4.8-19.74-17.57
						c-3.52-6.03-4.45-12.66-4.35-18.31c1.71,2.76,4.67,5.77,9.85,7.32c10.99,3.3,26.37,10.99,30.77,39.56
						C229.59,156.86,204.31,161.26,191.12,144.77z"/>
				</g>
			</g>
			<g>
				<g>
					<path class="st32" d="M157.11,46.53c11.9,14.88,13.56,33.32,12.39,47.71c-5.81-26.22-31.65-42.76-50.78-49.61
						c-0.04-0.02-0.07-0.02-0.07-0.02c0.02,0.01,0.04,0.02,0.07,0.02c1.29,0.49,21.51,8.41,34.54,30.74
						c6.15,10.55,7.78,22.15,7.61,32.03c-2.99-4.82-8.17-10.09-17.23-12.81c-19.23-5.77-46.14-19.23-53.83-69.21
						C89.82,25.38,134.04,17.69,157.11,46.53z"/>
					<path class="st32" d="M158.88,144.77c6.8-8.5,7.75-19.05,7.08-27.27c-3.32,14.99-18.09,24.44-29.02,28.35
						c-0.02,0.01-0.04,0.01-0.04,0.01c0.01,0,0.03-0.01,0.04-0.01c0.73-0.28,12.3-4.8,19.74-17.57c3.52-6.03,4.45-12.66,4.35-18.31
						c-1.71,2.76-4.67,5.77-9.85,7.32c-10.99,3.3-26.37,10.99-30.77,39.56C120.41,156.86,145.69,161.26,158.88,144.77z"/>
				</g>
			</g>
		</g>
		<path d="M188.46,40.76c0,7.43-6.03,13.46-13.46,13.46s-13.46-6.03-13.46-13.46s6.03-13.46,13.46-13.46S188.46,33.33,188.46,40.76z
			 M175,138.82c-3.72,0-6.73,3.01-6.73,6.73c0,3.72,3.01,6.73,6.73,6.73c3.72,0,6.73-3.01,6.73-6.73
			C181.73,141.83,178.72,138.82,175,138.82z"/>
	</g>
</g>
</svg>
