<?xml version="1.0" encoding="utf-8"?>
<!-- Generator: Adobe Illustrator 27.8.1, SVG Export Plug-In . SVG Version: 6.00 Build 0)  -->
<svg version="1.1" xmlns="http://www.w3.org/2000/svg" xmlns:xlink="http://www.w3.org/1999/xlink" x="0px" y="0px"
	 viewBox="0 0 350 230" style="enable-background:new 0 0 350 230;" xml:space="preserve">
<style type="text/css">
	.st0{fill:#001C77;}
	.st1{fill:#077275;}
	.st2{fill:#001A5A;}
	.st3{fill:#00FF30;}
	.st4{fill:#809FA0;}
	.st5{fill:#003738;}
	.st6{fill:#D900FF;}
	.st7{fill:#85DD98;}
	.st8{fill:#00DB29;}
	.st9{fill:#48ED67;}
	.st10{fill:#00F9FF;}
	.st11{fill:#009599;}
	.st12{fill:#17CC3A;}
	.st13{fill:#003A0B;}
	.st14{fill:#B2FF61;}
	.st15{fill:#D37F07;}
	.st16{fill:#00E22B;}
	.st17{fill:#004947;}
	.st18{fill:#7600FF;}
	.st19{fill:#603400;}
	.st20{fill:#D67A00;}
	.st21{fill:#026854;}
	.st22{fill:#B76400;}
	.st23{fill:#4F2D05;}
	.st24{fill:#38FF00;}
	.st25{fill:#750009;}
	.st26{fill:#A8AC00;}
	.st27{fill:#E473FF;}
	.st28{fill:#1EA56E;}
	.st29{fill:#FF71F5;}
	.st30{fill-rule:evenodd;clip-rule:evenodd;fill:#009B9B;}
	.st31{fill-rule:evenodd;clip-rule:evenodd;fill:#007F33;}
	.st32{fill:#EC8EA5;}
	.st33{fill:#FFC59C;}
	.st34{fill:#D4D3B2;}
	.st35{fill:#53C6D9;}
	.st36{fill:#BA7DA0;}
	.st37{fill:#D6078C;}
	.st38{fill:#007F33;}
	.st39{fill:#7F3300;}
	.st40{fill:#FF7B22;}
	.st41{fill:#AF0838;}
	.st42{fill:#000093;}
	.st43{fill:#116D2B;}
	.st44{fill:#1F3502;}
	.st45{fill:#AF4161;}
	.st46{fill:#AA007C;}
	.st47{fill:#108E9B;}
	.st48{fill:#934159;}
	.st49{fill-rule:evenodd;clip-rule:evenodd;fill:#C4024D;}
	.st50{fill-rule:evenodd;clip-rule:evenodd;fill:#1A1A1A;}
	.st51{fill:#630625;}
	.st52{fill-rule:evenodd;clip-rule:evenodd;fill:#FFC59C;}
	.st53{fill-rule:evenodd;clip-rule:evenodd;fill:#53C6D9;}
	.st54{fill-rule:evenodd;clip-rule:evenodd;fill:#630625;}
	.st55{fill-rule:evenodd;clip-rule:evenodd;fill:#FFFFFF;}
</style>
<g id="Layer_1">
</g>
<g id="Layer_2">
</g>
<g id="Layer_3">
</g>
<g id="Layer_4">
</g>
<g id="Layer_5">
</g>
<g id="Layer_6">
</g>
<g id="Layer_7">
</g>
<g id="Layer_8">
</g>
<g id="Layer_9">
</g>
<g id="Layer_10">
</g>
<g id="Layer_11">
</g>
<g id="Layer_12">
</g>
<g id="Layer_13">
</g>
<g id="Layer_14">
</g>
<g id="Layer_15">
	<g>
		<path class="st28" d="M73.92,44.33c4.63,0.99,9.04,2.81,13.42,4.57c6.19,2.53,12.12,5.85,17.11,10.36c1.4,1.28,2.54,2.82,3.58,4.4
			c-3.38-1.49-6.48-3.6-10.04-4.71c-4.47-1.4-9.04-2.65-13.75-2.87c0.43,11.57,4.96,22.89,12.22,31.88
			c5.03,6.37,11.4,11.55,18.1,16.07c3,2.15,6.31,3.85,9.21,6.12c-9.28-1.33-18.1-5.12-25.94-10.19
			c-9.36-6.53-16.41-16.24-19.86-27.1C74.95,63.7,73.69,53.98,73.92,44.33z M241.97,63.71c4.06-1.86,7.89-4.31,12.26-5.4
			c3.85-0.95,7.75-2.27,11.78-2c-0.24,5.76-1.75,11.39-3.7,16.79c-4.69,12.26-14.05,22.16-24.71,29.55
			c-3.66,2.77-7.76,4.88-11.48,7.56c9.99-1.48,19.57-5.52,27.76-11.42c8.77-6.4,14.95-15.89,18.39-26.1
			c2.82-9.15,4.24-18.8,3.84-28.38c-7.14,1.79-14,4.66-20.52,8.05C250.41,55.25,245.28,58.68,241.97,63.71z M155.79,65.6
			c0.06-0.38,0.12-0.76,0.19-1.14c0.48-2.63,0.93-5.26,1.48-7.88c0.31-1.52,0.6-3.04,0.89-4.56c0.54-2.55,0.85-5.14,1.31-7.7
			c0.91,2.39,1.85,4.77,3.01,7.05c0.07,0.13,0.2,0.39,0.27,0.52c1.33,2.56,2.81,5.05,4.54,7.35c1.11,1.45,2.28,2.86,3.54,4.18
			c2.07,2.15,4.31,4.13,6.62,6c2.28,1.86,4.58,3.74,6.47,6.02c0.86,1.08,1.62,2.25,2.2,3.5c1.16,2.57,1.52,5.41,1.42,8.21
			c0.05,2.23-0.21,4.45-0.6,6.64c-0.26,1.55-0.63,3.09-0.95,4.63c-0.57,2.17-1.08,4.36-1.85,6.46c-1.5-2.37-2.66-4.95-3.64-7.58
			c-0.49-1.38-0.98-2.75-1.36-4.17c-0.68-2.47-1.28-4.97-1.65-7.51c-0.02-0.12-0.06-0.37-0.08-0.49c0.02,0.8,0.05,1.59,0.15,2.38
			c0.08,0.55,0.15,1.1,0.21,1.66c0.35,2.64,0.85,5.25,1.36,7.86c0.61,2.79,1.31,5.56,2.02,8.32c-2.88-1.12-5.64-2.54-8.31-4.1
			c-1.24-0.74-2.48-1.49-3.66-2.32c-1.45-1.05-2.89-2.1-4.21-3.32c-0.71-0.64-1.4-1.3-2.06-1.99c-2.26-2.42-4.24-5.15-5.54-8.21
			c-1.05-2.49-1.79-5.13-2.07-7.82c-0.31-2.7-0.29-5.42-0.1-8.13c0.03-0.39,0.06-0.77,0.09-1.16
			C155.58,67.41,155.65,66.5,155.79,65.6z M197.86,96.48c-1.29,0.34-2.55,0.75-3.79,1.24c-0.49,0.22-0.98,0.46-1.46,0.71
			c-1.05,0.54-2.04,1.18-2.93,1.95c-0.74,0.65-1.4,1.37-1.99,2.15c-0.49,0.69-0.94,1.41-1.31,2.17c-0.49,1.02-0.89,2.07-1.16,3.17
			c-0.22,0.83-0.42,1.66-0.55,2.51c-0.33,1.92-0.41,3.88-0.38,5.82c1.2-0.84,2.36-1.75,3.54-2.63c0.92-0.69,1.88-1.32,2.84-1.95
			c0.66-0.42,1.34-0.8,2.03-1.16c-0.45,0.36-0.91,0.7-1.37,1.04c-0.83,0.58-1.64,1.2-2.41,1.86c-1.41,1.2-2.69,2.57-3.7,4.13
			c2.28-0.18,4.55-0.55,6.74-1.23c1.48-0.46,2.97-1.02,4.22-1.97c0.87-0.59,1.57-1.39,2.04-2.33c1.04-1.6,1.45-3.47,1.98-5.27
			c0.29-1.01,0.61-2.02,0.99-3c0.54-1.36,1.2-2.67,1.97-3.92c1.13-1.83,2.54-3.47,4.05-4.99c0.2-0.22,0.39-0.45,0.59-0.68
			C204.5,94.98,201.15,95.63,197.86,96.48z"/>
		<path class="st29" d="M133.64,19.03c8.34,6.43,14.39,15.59,18.29,25.3c-4.65-3.48-9.21-7.25-14.7-9.38
			c-7.95,8.14-14.2,18.52-15.37,30.01c-1.6,13.88,3.79,27.47,11.04,39.04c3.55,5.86,7.97,11.1,12.08,16.55
			c-10.86-9.17-20.8-19.94-26.84-32.94c-4.71-10.2-6.49-21.9-3.99-32.93C116.99,41.18,124.68,29.3,133.64,19.03z M212.73,34.96
			c5.54,5.35,10.01,11.87,12.84,19.05c4.16,10.47,3.7,22.41-0.03,32.93c-4.29,12.59-12.2,23.49-20.55,33.68
			c7.98-6.4,15-14,20.91-22.35c7.33-10.57,12.01-23.36,11.07-36.37c-1.11-16.31-9.95-30.97-20.63-42.91
			c-8.26,6.75-14.48,15.83-18.34,25.73C202.47,40.88,207.28,37.3,212.73,34.96z M71.01,139.06c7.78,9.9,19.03,17.14,31.44,19.55
			c10.92,2.24,22.31,0.92,32.88-2.36c-3.07-0.06-6.1,0.5-9.17,0.53c-12.34,0.43-25.21-2.13-35.4-9.42
			c-10.62-7.34-17.28-19.02-21.43-30.99c6.2,4.6,13.36,7.9,20.92,9.47c12.07,2.7,24.51,2.32,36.75,3.63
			c10.58,1.1,21.27,3.93,30.09,10.08c3.2,2.07,5.88,4.78,8.86,7.13c-5.28-8.5-11.95-16.25-20.07-22.14
			c-6.84-5.03-14.79-8.42-23.03-10.34c-11.52-2.65-23.4-2.46-35.11-3.47c-8.68-0.85-17.71-2.7-24.74-8.18
			c-3.44-2.4-5.82-5.87-8.53-8.99C55.67,109.81,60.72,126.21,71.01,139.06z M236.17,112.68c-13.75,1.48-27.25,6.85-37.45,16.33
			c-5.26,4.99-10.23,10.45-13.81,16.8c3.48-2.43,6.47-5.52,10.2-7.61c11.64-7.23,25.61-8.98,39.02-9.54
			c10.17-0.68,20.5-1.04,30.32-4.03c5.95-1.7,11.46-4.67,16.41-8.35c-3.15,8.82-7.4,17.42-13.82,24.33
			c-7.34,8.11-17.56,13.3-28.3,15.14c-7.99,1.6-16.16,1.02-24.21,0.44c6.15,1.91,12.53,3.07,18.96,3.48
			c11.48,0.55,23.26-2.3,32.82-8.8c10.07-6.68,17.52-16.72,22.3-27.71c3.93-9.38,6.47-19.44,6.92-29.61
			c-4.24,5.93-9.79,11.12-16.73,13.67C265.16,112.32,250.34,110.67,236.17,112.68z M182.92,117.97c-0.13-0.23-0.23-0.4-0.3-0.52
			c-0.01-0.02-0.02-0.03-0.03-0.05c-0.06-0.1-0.1-0.15-0.1-0.15c-1.08-2.61-2.35-5.18-4.1-7.41c-2.88-3.65-6.53-6.61-10.39-9.18
			c-3.23-2.13-5.9-4.98-8.24-8.03c-4.64-6.24-6.83-14.13-6.49-21.87c0,0,0.5-4.11,0.49-4.11c0.39-2.7,1.51-5.21,2.2-7.82
			c-1.93,1.06-3.28,2.85-4.54,4.59c-1.67,2.31-3,4.88-3.83,7.62c-0.08,0.22-0.11,0.45-0.11,0.68l-0.12,0.73
			c-0.1,0.11-0.31,0.32-0.41,0.43c0.09,0.12,0.19,0.23,0.29,0.34l-0.17,1.01c-0.02,0.06-0.03,0.12-0.03,0.18l-0.15,0.88
			c-0.23,1.25-0.37,2.52-0.66,3.76c-0.88-0.64-1.45-1.57-1.89-2.54c0.24,0.82,0.55,1.63,0.89,2.42c-0.29-0.22-0.58-0.44-0.86-0.66
			c0.05,0.23,0.16,0.7,0.22,0.93c-0.57-0.42-1.14-0.83-1.7-1.25c0.81,0.97,1.77,1.8,2.85,2.46c-0.43,0.93-0.88,1.88-1.63,2.6
			c-1,0.99-2.35,1.47-3.5,2.23c-1.24,0.82-2.35,1.85-3.18,3.08c-0.44,0.62-0.52,1.55,0,2.16c0.85,1.05,2.24,1.38,3.3,2.15
			c0.82,0.71,1.18,1.98,0.72,2.99c-0.46,0.95-1.45,1.47-2.02,2.33c-0.34,1.37,0.51,2.61,1.59,3.35c-0.92,0.58-1.44,1.53-1.46,2.62
			c0.98,1.02,2.2,2.23,1.96,3.79c-0.32,1.42-1.14,2.83-0.65,4.31c0.4,1.67,2.14,2.4,3.62,2.88c2.09,0.52,4.27,0.49,6.41,0.39
			c2.45,0.04,4.94,0.16,7.32,0.81c2.64,0.69,5.18,1.79,7.52,3.2c3.47,2.1,6.08,5.57,6.3,9.66c0.16,3.02-0.01,6.41-0.68,9.36
			c-0.31,1.36-0.8,2.69-1.33,3.97c-0.34,0.81-1.04,3.36-1.77,3.8c2.81-1.7,5.7-3.25,8.53-4.92c1.32-0.8,2.61-1.66,3.78-2.67
			c1.2-0.97,2.25-2.13,3.12-3.41c0.22-0.34,0.43-0.69,0.63-1.05c0-0.01,0-0.01,0-0.01c1.89-6.8,0.44-12.03-0.72-14.74
			C183.33,118.75,183.1,118.31,182.92,117.97z"/>
	</g>
</g>
</svg>
