<?xml version="1.0" encoding="utf-8"?>
<!-- Generator: Adobe Illustrator 27.8.1, SVG Export Plug-In . SVG Version: 6.00 Build 0)  -->
<svg version="1.1" xmlns="http://www.w3.org/2000/svg" xmlns:xlink="http://www.w3.org/1999/xlink" x="0px" y="0px"
	 viewBox="0 0 350 230" style="enable-background:new 0 0 350 230;" xml:space="preserve">
<style type="text/css">
	.st0{fill:#001C77;}
	.st1{fill:#077275;}
	.st2{fill:#001A5A;}
	.st3{fill:#00FF30;}
	.st4{fill:#809FA0;}
	.st5{fill:#003738;}
	.st6{fill:#D900FF;}
	.st7{fill:#85DD98;}
	.st8{fill:#00DB29;}
	.st9{fill:#48ED67;}
	.st10{fill:#00F9FF;}
	.st11{fill:#009599;}
	.st12{fill:#17CC3A;}
	.st13{fill:#003A0B;}
	.st14{fill:#B2FF61;}
	.st15{fill:#D37F07;}
	.st16{fill:#00E22B;}
	.st17{fill:#004947;}
	.st18{fill:#7600FF;}
	.st19{fill:#603400;}
	.st20{fill:#D67A00;}
	.st21{fill:#026854;}
	.st22{fill:#B76400;}
	.st23{fill:#4F2D05;}
	.st24{fill:#38FF00;}
	.st25{fill:#750009;}
	.st26{fill:#A8AC00;}
	.st27{fill:#E473FF;}
</style>
<g id="Layer_1">
</g>
<g id="Layer_2">
</g>
<g id="Layer_3">
</g>
<g id="Layer_4">
	<g>
		<path class="st6" d="M191.56,143.41c-22.92,0-41.57-18.65-41.57-41.57s18.65-41.57,41.57-41.57s41.57,18.65,41.57,41.57
			S214.48,143.41,191.56,143.41z M191.56,61.89c-22.03,0-39.95,17.92-39.95,39.95s17.92,39.95,39.95,39.95s39.95-17.92,39.95-39.95
			S213.59,61.89,191.56,61.89z"/>
		<path class="st7" d="M171.77,71.77c-1.42-1.97-3.07-3.74-4.89-5.33c-3.55-3.11-7.74-5.52-12.11-7.35
			c-6.6-2.77-13.65-4.29-20.65-5.81l8.97,23.09c1.11,2.84,2.25,5.74,3.84,8.31c0.04-0.01,0.09-0.01,0.13-0.02
			c5.98-0.7,12.12,0.44,17.52,3.08c1.73,0.85,3.39,1.85,4.94,2.99c1.34,0.99,2.6,1.9,3.43,2.91c1.72-0.66,3.02-1.87,3.45-4.01
			C177.62,83.52,175.32,76.7,171.77,71.77z M183.45,76.35c-0.87-10.94-5.65-21.53-13.26-29.44c-1.1,6.5-2.21,13.02-3.31,19.52
			c-0.66,3.89-1.32,7.77-1.98,11.66c-0.53,3.19-1.06,6.55-0.32,9.65c1.73,0.85,3.39,1.85,4.94,2.99c1.34,0.99,2.6,1.9,3.43,2.91
			c0.15,0.18,0.28,0.36,0.41,0.56c3.63-0.57,7.27-3.31,8.78-6.88C183.58,83.9,183.74,80.06,183.45,76.35z M172.84,98.84
			c-2.02,2.99-5.57,4.84-8.9,5.96c-16.42,5.56-36,0.03-47.07-13.31c10.3,0.69,19.81-5.55,30.05-6.81c0.04-0.01,0.09-0.01,0.13-0.02
			c5.98-0.7,12.12,0.44,17.52,3.08c1.73,0.85,3.39,1.85,4.94,2.99c1.34,0.99,2.6,1.9,3.43,2.91c0.15,0.18,0.28,0.36,0.41,0.56
			C174.12,95.45,174.16,96.9,172.84,98.84z"/>
		<path class="st8" d="M200.71,99.65c-0.6-0.84-1.3-1.59-2.08-2.26c-1.51-1.32-3.29-2.35-5.14-3.12c-2.8-1.18-5.79-1.82-8.77-2.47
			l3.81,9.8c0.47,1.2,0.96,2.43,1.63,3.53c0.02,0,0.04,0,0.05-0.01c2.54-0.3,5.14,0.19,7.44,1.31c0.74,0.36,1.44,0.78,2.1,1.27
			c0.57,0.42,1.1,0.8,1.45,1.23c0.73-0.28,1.28-0.79,1.46-1.7C203.19,104.64,202.21,101.74,200.71,99.65z M205.67,101.59
			c-0.37-4.64-2.4-9.14-5.63-12.5c-0.47,2.76-0.94,5.53-1.41,8.29c-0.28,1.65-0.56,3.3-0.84,4.95c-0.23,1.35-0.45,2.78-0.13,4.1
			c0.74,0.36,1.44,0.78,2.1,1.27c0.57,0.42,1.1,0.8,1.45,1.23c0.06,0.08,0.12,0.15,0.17,0.24c1.54-0.24,3.08-1.41,3.73-2.92
			C205.72,104.8,205.79,103.17,205.67,101.59z M201.16,111.14c-0.86,1.27-2.37,2.05-3.78,2.53c-6.97,2.36-15.28,0.01-19.98-5.65
			c4.37,0.29,8.41-2.36,12.76-2.89c0.02,0,0.04,0,0.05-0.01c2.54-0.3,5.14,0.19,7.44,1.31c0.74,0.36,1.44,0.78,2.1,1.27
			c0.57,0.42,1.1,0.8,1.45,1.23c0.06,0.08,0.12,0.15,0.17,0.24C201.7,109.7,201.73,110.32,201.16,111.14z"/>
	</g>
</g>
<g id="Layer_5">
</g>
<g id="Layer_6">
</g>
<g id="Layer_7">
</g>
<g id="Layer_8">
</g>
<g id="Layer_9">
</g>
<g id="Layer_10">
</g>
<g id="Layer_11">
</g>
<g id="Layer_12">
</g>
<g id="Layer_13">
</g>
<g id="Layer_14">
</g>
<g id="Layer_15">
</g>
</svg>
