<?xml version="1.0" encoding="utf-8"?>
<!-- Generator: Adobe Illustrator 27.8.1, SVG Export Plug-In . SVG Version: 6.00 Build 0)  -->
<svg version="1.1" xmlns="http://www.w3.org/2000/svg" xmlns:xlink="http://www.w3.org/1999/xlink" x="0px" y="0px"
	 viewBox="0 0 350 230" style="enable-background:new 0 0 350 230;" xml:space="preserve">
<style type="text/css">
	.st0{fill:#001C77;}
	.st1{fill:#077275;}
	.st2{fill:#001A5A;}
	.st3{fill:#00FF30;}
	.st4{fill:#809FA0;}
	.st5{fill:#003738;}
	.st6{fill:#D900FF;}
	.st7{fill:#85DD98;}
	.st8{fill:#00DB29;}
	.st9{fill:#48ED67;}
	.st10{fill:#00F9FF;}
	.st11{fill:#009599;}
	.st12{fill:#17CC3A;}
	.st13{fill:#003A0B;}
	.st14{fill:#B2FF61;}
	.st15{fill:#D37F07;}
	.st16{fill:#00E22B;}
	.st17{fill:#004947;}
	.st18{fill:#7600FF;}
	.st19{fill:#603400;}
	.st20{fill:#D67A00;}
	.st21{fill:#026854;}
	.st22{fill:#B76400;}
	.st23{fill:#4F2D05;}
	.st24{fill:#38FF00;}
	.st25{fill:#750009;}
	.st26{fill:#A8AC00;}
	.st27{fill:#E473FF;}
</style>
<g id="Layer_1">
</g>
<g id="Layer_2">
</g>
<g id="Layer_3">
</g>
<g id="Layer_4">
</g>
<g id="Layer_5">
	<g>
		<path class="st9" d="M147.79,80.35c-1.42-5.35-3.31-11.35-8.3-13.75c11.47-0.28,23,2.91,32.69,9.05c1.06-3.93,4.55-6.78,8.27-8.41
			s7.79-2.3,11.68-3.5c3.89-1.2,7.78-3.1,10.08-6.46c-3.84,8.58-7.68,17.17-11.52,25.75c3.55,1.81,7.06,3.7,10.57,5.6
			c4.95,2.67,9.89,5.34,14.84,8.01c-7.42,7.37-18.16,11.26-28.58,10.35c2.94,3.45,2.05,8.63,0.99,13.04
			c-1.23,5.12-2.45,10.24-3.68,15.36c-3.56-2.5-7.11-4.99-10.67-7.49c-2.07-1.45-4.18-2.95-5.69-4.98c-1.5-2.04-2.32-4.76-1.49-7.15
			c-3.08,4.01-8.84,4.69-13.88,4.31c-5.04-0.38-10.27-1.46-15.04,0.23c4.12-3.46,6.03-8.79,8.11-13.75c1.07-2.54,2.27-5.07,3.9-7.3
			c0.74-1.02,5.51-4.56,5.43-5.38c-0.06-0.67-2.1-1.8-2.6-2.33c-0.92-0.98-1.66-2.12-2.3-3.31C149.3,85.78,148.5,83.05,147.79,80.35
			z"/>
		<path class="st10" d="M119.91,121.99c4.04-0.41,7.86-2.64,10.21-5.96c2.19-3.09,3.12-7,5.62-9.84c-2.39,1.6-5.22,2.39-8.02,3.06
			c-2.8,0.66-5.65,1.24-8.24,2.48c-2.59,1.25-4.76,3.03-5.7,5.75c1.31-2.25,1.1-5.15,0.01-7.51c-1.09-2.36-2.95-4.28-4.9-6
			c-2.33-2.06-4.85-3.92-7.5-5.55c1.77,1.94,2.24,4.74,2.23,7.37c-0.01,2.63-0.41,5.27-0.06,7.87c0.35,2.6,1.66,5.29,4.06,6.36
			c-2.35-0.89-5.35-0.6-7.57,0.58c-1.85,0.98-3.29,2.58-4.89,3.93c-1.6,1.35-3.57,2.52-5.66,2.35c2.52,1.77,5.37,3.07,8.36,3.79
			c1.78,0.43,3.65,0.67,5.46,0.37c1.81-0.3,3.58-1.17,4.69-2.63c-1.93,1.98-2.69,4.83-2.31,7.56c0.34,2.48,1.68,4.69,2.79,6.94
			c1.11,2.25,2.02,4.79,1.43,7.23c1.01-1.47,1.78-3.08,2.79-4.55c1.62-2.36,3.28-4.8,3.9-7.6c0.74-3.32-0.14-6.95-2.31-9.57
			c1.03,2.97,3.54,5.29,6.47,6.44c3,1.18,6.34,0.97,9.55,0.74c2.53-0.18,5.06-0.36,7.59-0.53c-2.29-0.94-4.38-2.39-6.06-4.22
			c-1.8-1.95-3.13-4.32-5.02-6.18C124.93,122.81,122.45,121.19,119.91,121.99z M239.84,123.59c3.43,1.73,7.6,1.91,11.17,0.47
			c3.32-1.34,6.06-3.98,9.5-4.96c-2.72,0.06-5.37-0.76-7.94-1.66c-2.57-0.9-5.13-1.9-7.83-2.23c-2.7-0.33-5.34-0.02-7.47,1.66
			c2.19-1.12,3.5-3.53,3.84-5.97c0.34-2.44-0.16-4.91-0.84-7.28c-0.8-2.83-1.85-5.59-3.13-8.24c0.42,2.45-0.64,4.92-1.99,7
			c-1.35,2.09-3.02,3.98-4.07,6.23c-1.05,2.25-1.38,5.05-0.01,7.13c-1.42-1.91-3.95-3.21-6.33-3.4c-1.98-0.16-3.93,0.37-5.9,0.63
			c-1.97,0.26-4.13,0.18-5.7-1.02c1.1,2.69,2.71,5.18,4.72,7.29c1.2,1.26,2.56,2.39,4.15,3.08c1.59,0.69,3.44,0.9,5.07,0.31
			c-2.54,0.59-4.6,2.47-5.7,4.84c-0.99,2.15-1.06,4.59-1.33,6.95c-0.27,2.35-0.84,4.84-2.55,6.48c1.55-0.65,2.99-1.54,4.54-2.2
			c2.5-1.05,5.06-2.15,6.98-4.06c2.28-2.26,3.43-5.61,3.05-8.8c-0.7,2.89,0.12,6.02,1.86,8.43c1.79,2.47,4.55,4,7.22,5.46
			c2.1,1.15,4.21,2.3,6.31,3.45c-1.35-1.92-2.27-4.14-2.67-6.45c-0.43-2.47-0.28-5.03-0.83-7.48
			C243.41,126.81,242.26,124.25,239.84,123.59z M187.5,93.65c7.42,0.68,15.09-1.99,20.49-7.13c5.03-4.8,8.09-11.5,13.6-15.74
			c-4.86,2.05-10.24,2.47-15.51,2.68c-5.27,0.21-10.61,0.23-15.72,1.56c-5.11,1.33-9.65,3.78-12.3,8.34
			c3.14-3.59,3.79-8.88,2.66-13.52s-3.8-8.74-6.71-12.53c-3.48-4.53-7.34-8.77-11.55-12.64c2.5,4.12,2.36,9.33,1.42,14.05
			c-0.94,4.73-2.6,9.34-2.89,14.15c-0.29,4.81,1.13,10.11,5.07,12.88c-3.93-2.43-9.43-2.96-13.85-1.62
			c-3.68,1.12-6.83,3.49-10.2,5.35c-3.37,1.87-7.32,3.27-11.02,2.23c3.91,4.08,8.59,7.42,13.72,9.78c3.06,1.41,6.33,2.49,9.7,2.59
			c3.37,0.11,6.85-0.84,9.38-3.07c-4.17,2.89-6.54,7.74-6.82,12.81c-0.26,4.59,1.37,9.05,2.57,13.49c1.2,4.44,1.94,9.33,0.03,13.52
			c2.33-2.29,4.29-4.92,6.62-7.21c3.75-3.68,7.59-7.49,9.7-12.31c2.49-5.72,2.19-12.57-0.79-18.05c0.8,5.71,4.52,10.78,9.38,13.88
			c4.99,3.17,11.07,3.97,16.94,4.7c4.62,0.57,9.23,1.14,13.85,1.71c-3.8-2.5-7.05-5.85-9.43-9.73c-2.55-4.15-4.11-8.88-6.85-12.91
			S192.34,93.11,187.5,93.65z"/>
	</g>
</g>
<g id="Layer_6">
</g>
<g id="Layer_7">
</g>
<g id="Layer_8">
</g>
<g id="Layer_9">
</g>
<g id="Layer_10">
</g>
<g id="Layer_11">
</g>
<g id="Layer_12">
</g>
<g id="Layer_13">
</g>
<g id="Layer_14">
</g>
<g id="Layer_15">
</g>
</svg>
