<?xml version="1.0" encoding="utf-8"?>
<!-- Generator: Adobe Illustrator 27.8.1, SVG Export Plug-In . SVG Version: 6.00 Build 0)  -->
<svg version="1.1" xmlns="http://www.w3.org/2000/svg" xmlns:xlink="http://www.w3.org/1999/xlink" x="0px" y="0px"
	 viewBox="0 0 350 230" style="enable-background:new 0 0 350 230;" xml:space="preserve">
<style type="text/css">
	.st0{fill:#001C77;}
	.st1{fill:#077275;}
	.st2{fill:#001A5A;}
	.st3{fill:#00FF30;}
	.st4{fill:#809FA0;}
	.st5{fill:#003738;}
	.st6{fill:#D900FF;}
	.st7{fill:#85DD98;}
	.st8{fill:#00DB29;}
	.st9{fill:#48ED67;}
	.st10{fill:#00F9FF;}
	.st11{fill:#009599;}
	.st12{fill:#17CC3A;}
	.st13{fill:#003A0B;}
	.st14{fill:#B2FF61;}
	.st15{fill:#D37F07;}
	.st16{fill:#00E22B;}
	.st17{fill:#004947;}
	.st18{fill:#7600FF;}
	.st19{fill:#603400;}
	.st20{fill:#D67A00;}
	.st21{fill:#026854;}
	.st22{fill:#B76400;}
	.st23{fill:#4F2D05;}
	.st24{fill:#38FF00;}
	.st25{fill:#750009;}
	.st26{fill:#A8AC00;}
	.st27{fill:#E473FF;}
</style>
<g id="Layer_1">
</g>
<g id="Layer_2">
</g>
<g id="Layer_3">
</g>
<g id="Layer_4">
</g>
<g id="Layer_5">
</g>
<g id="Layer_6">
</g>
<g id="Layer_7">
	<g>
		<path class="st13" d="M210.61,87.69c-1.03-0.57-2.07-1.12-3.1-1.68c-4.72-2.55-9.42-5.1-14.21-7.52c1.78-3.97,3.55-7.93,5.33-11.9
			c3.38-7.58,6.78-15.15,10.16-22.72c-3.09,4.52-8.33,7.06-13.55,8.68c-5.23,1.62-10.69,2.53-15.71,4.72
			c-0.21,0.09-0.41,0.19-0.62,0.29c-4.77,2.23-9.12,5.96-10.49,11.01c-4.62-2.93-9.55-5.35-14.66-7.25
			c-9.35-3.46-19.34-5.16-29.29-4.92c6.71,3.23,9.26,11.29,11.16,18.49c0.6,2.23,1.23,4.48,2.05,6.65c0.5,1.36,1.08,2.68,1.76,3.96
			c0.86,1.6,1.85,3.14,3.09,4.45c0.68,0.72,3.42,2.25,3.49,3.15c0.1,1.09-6.31,5.85-7.31,7.22c-1.09,1.49-2.04,3.09-2.89,4.74
			c-0.86,1.66-1.62,3.37-2.35,5.08c-2.8,6.66-5.37,13.83-10.91,18.48c6.41-2.27,13.44-0.82,20.23-0.31c1.96,0.14,4.01,0.18,6.02,0
			c4.94-0.4,9.7-1.97,12.64-5.8c-1.11,3.22-0.02,6.88,2,9.61c1.5,2.02,3.45,3.66,5.5,5.16c0.71,0.52,1.42,1.03,2.15,1.54
			c4.78,3.36,9.57,6.71,14.35,10.07c1.65-6.89,3.29-13.77,4.94-20.66c0.09-0.36,0.17-0.72,0.26-1.09
			c1.29-5.67,2.13-12.07-1.59-16.44c6.35,0.56,12.79-0.21,18.86-2.15c7.33-2.33,14.12-6.35,19.58-11.76
			C221.85,93.76,216.23,90.72,210.61,87.69z"/>
		<path class="st14" d="M192.37,92.89c6.4-0.04,12.77-1.88,18.24-5.2c-1.03-0.57-2.07-1.12-3.1-1.68c-4.72-2.55-9.42-5.1-14.21-7.52
			c1.78-3.97,3.55-7.93,5.33-11.9c-1.95,0.27-3.88,0.62-5.8,1.12c-5.73,1.49-10.94,4.04-14.56,8.41c2.5-4.55,2.86-10.25,1.61-15.36
			c-0.27-1.09-0.59-2.16-0.98-3.2c-4.77,2.23-9.12,5.96-10.49,11.01c-4.62-2.93-9.55-5.35-14.66-7.25
			c-0.18,1.17-0.31,2.35-0.38,3.53c-0.38,6.46,1.51,13.58,6.82,17.31c-5.28-3.27-12.67-3.98-18.62-2.18
			c-1.35,0.41-2.64,0.95-3.91,1.57c0.5,1.36,1.08,2.68,1.76,3.96c0.86,1.6,1.85,3.14,3.09,4.45c0.68,0.72,3.42,2.25,3.49,3.15
			c0.1,1.09-6.31,5.85-7.31,7.22c-1.09,1.49-2.04,3.09-2.89,4.74c2.81,0.99,5.74,1.65,8.71,1.75c3.91,0.12,7.92-0.8,11.13-2.99
			c-4.68,3.95-7.34,9.9-7.69,16.08c-0.16,2.84,0.22,5.64,0.83,8.42c4.94-0.4,9.7-1.97,12.64-5.8c-1.11,3.22-0.02,6.88,2,9.61
			c1.5,2.02,3.45,3.66,5.5,5.16c1.77-2.27,3.32-4.68,4.47-7.33c2.15-4.92,2.75-10.47,1.86-15.75c2.3,4.09,5.71,7.61,9.69,10.15
			c1.79,1.15,3.69,2.06,5.67,2.79c1.29-5.67,2.13-12.07-1.59-16.44c6.35,0.56,12.79-0.21,18.86-2.15c-1.03-2.07-2.14-4.09-3.43-6.01
			C201.42,98.1,197.35,93.87,192.37,92.89z"/>
	</g>
</g>
<g id="Layer_8">
</g>
<g id="Layer_9">
</g>
<g id="Layer_10">
</g>
<g id="Layer_11">
</g>
<g id="Layer_12">
</g>
<g id="Layer_13">
</g>
<g id="Layer_14">
</g>
<g id="Layer_15">
</g>
</svg>
