<?xml version="1.0" encoding="utf-8"?>
<!-- Generator: Adobe Illustrator 27.8.1, SVG Export Plug-In . SVG Version: 6.00 Build 0)  -->
<svg version="1.1" xmlns="http://www.w3.org/2000/svg" xmlns:xlink="http://www.w3.org/1999/xlink" x="0px" y="0px"
	 viewBox="0 0 350 230" style="enable-background:new 0 0 350 230;" xml:space="preserve">
<style type="text/css">
	.st0{fill:#001C77;}
	.st1{fill:#077275;}
	.st2{fill:#001A5A;}
	.st3{fill:#00FF30;}
	.st4{fill:#809FA0;}
	.st5{fill:#003738;}
	.st6{fill:#D900FF;}
	.st7{fill:#85DD98;}
	.st8{fill:#00DB29;}
	.st9{fill:#48ED67;}
	.st10{fill:#00F9FF;}
	.st11{fill:#009599;}
	.st12{fill:#17CC3A;}
	.st13{fill:#003A0B;}
	.st14{fill:#B2FF61;}
	.st15{fill:#D37F07;}
	.st16{fill:#00E22B;}
	.st17{fill:#004947;}
	.st18{fill:#7600FF;}
	.st19{fill:#603400;}
	.st20{fill:#D67A00;}
	.st21{fill:#026854;}
	.st22{fill:#B76400;}
	.st23{fill:#4F2D05;}
	.st24{fill:#38FF00;}
	.st25{fill:#750009;}
	.st26{fill:#A8AC00;}
	.st27{fill:#E473FF;}
</style>
<g id="Layer_1">
</g>
<g id="Layer_2">
</g>
<g id="Layer_3">
</g>
<g id="Layer_4">
</g>
<g id="Layer_5">
</g>
<g id="Layer_6">
</g>
<g id="Layer_7">
</g>
<g id="Layer_8">
	<g>
		<path class="st15" d="M145.01,114.71c-2.17,0.92-4.37,1.96-5.99,3.67c-1.62,1.71-2.57,4.26-1.78,6.48
			c0.58,1.64,1.98,2.85,3.44,3.8c5.25,3.44,11.65,4.52,17.86,5.44c8.12,1.19,16.3,2.23,24.51,2.14c8.21-0.09,16.5-1.34,24.04-4.59
			c2.01-0.86,4-1.89,5.5-3.48c1.5-1.58,2.46-3.82,2.07-5.97c-0.59-3.2-3.81-5.14-6.76-6.5c-7.76-3.58-16.03-6.06-24.47-7.38
			c-3.73-0.58-7.9-1.34-11.67-1.13c-4.22,0.23-8.69,1.56-12.76,2.66C154.23,111.16,149.56,112.78,145.01,114.71z"/>
		<path class="st7" d="M157.17,123.73c-4.09,0.35-8.38-0.27-11.81-2.53c-3.5-2.3-5.74-6.03-8.12-9.47
			c-6.59-9.53-15.07-17.75-24.82-24.02c12.53,0.2,25.01,3.45,36.05,9.4c6.78,3.65,13.23,8.57,17.3,15.22
			c1.06,1.74,2.88,6.18-0.31,7.14c-2.9,0.87-7.14-4.46-8.5-6.44c-3.06-4.47-4.58-9.77-6.52-14.82
			c-4.71-12.25-12.16-23.44-21.66-32.5c5,1.54,9.91,3.37,14.7,5.48c8.47,3.72,16.7,8.41,23,15.19s10.51,15.89,9.86,25.12
			C175.61,122.1,165.87,122.98,157.17,123.73z M192.83,123.14c4.09,0.35,8.38-0.27,11.81-2.53c3.5-2.3,5.74-6.03,8.12-9.47
			c6.59-9.53,15.07-17.75,24.82-24.02c-12.53,0.2-25.01,3.45-36.05,9.4c-6.78,3.65-13.23,8.57-17.3,15.22
			c-1.06,1.74-2.88,6.18,0.31,7.14c2.9,0.87,7.14-4.46,8.5-6.44c3.05-4.47,4.57-9.77,6.52-14.82c4.71-12.25,12.16-23.44,21.66-32.5
			c-5,1.54-9.91,3.37-14.7,5.48c-8.47,3.72-16.7,8.41-23,15.19s-10.51,15.89-9.86,25.12C174.39,121.51,184.13,122.39,192.83,123.14z
			"/>
		<path class="st16" d="M166.9,116.61c-3.53-3.35-5.27-8.27-5.54-13.13c-0.27-4.86,0.81-9.7,2.24-14.35
			c1.42-4.65,3.2-9.2,4.38-13.92c1.75-7.02,2.17-14.37,1.21-21.55c6.83,15.71,11.31,32.43,13.25,49.45c0.34,2.97,0.6,5.99,0.21,8.95
			c-0.39,2.95-1.43,7.47-4.8,8.21C174.05,121.09,169.61,119.18,166.9,116.61z"/>
	</g>
</g>
<g id="Layer_9">
</g>
<g id="Layer_10">
</g>
<g id="Layer_11">
</g>
<g id="Layer_12">
</g>
<g id="Layer_13">
</g>
<g id="Layer_14">
</g>
<g id="Layer_15">
</g>
</svg>
