<?xml version="1.0" encoding="utf-8"?>
<!-- Generator: Adobe Illustrator 27.8.1, SVG Export Plug-In . SVG Version: 6.00 Build 0)  -->
<svg version="1.1" xmlns="http://www.w3.org/2000/svg" xmlns:xlink="http://www.w3.org/1999/xlink" x="0px" y="0px"
	 viewBox="0 0 350 230" style="enable-background:new 0 0 350 230;" xml:space="preserve">
<style type="text/css">
	.st0{fill:#001C77;}
	.st1{fill:#077275;}
	.st2{fill:#001A5A;}
	.st3{fill:#00FF30;}
	.st4{fill:#809FA0;}
	.st5{fill:#003738;}
	.st6{fill:#D900FF;}
	.st7{fill:#85DD98;}
	.st8{fill:#00DB29;}
	.st9{fill:#48ED67;}
	.st10{fill:#00F9FF;}
	.st11{fill:#009599;}
	.st12{fill:#17CC3A;}
	.st13{fill:#003A0B;}
	.st14{fill:#B2FF61;}
	.st15{fill:#D37F07;}
	.st16{fill:#00E22B;}
	.st17{fill:#004947;}
	.st18{fill:#7600FF;}
	.st19{fill:#603400;}
	.st20{fill:#D67A00;}
	.st21{fill:#026854;}
	.st22{fill:#B76400;}
	.st23{fill:#4F2D05;}
	.st24{fill:#38FF00;}
	.st25{fill:#750009;}
	.st26{fill:#A8AC00;}
	.st27{fill:#E473FF;}
</style>
<g id="Layer_1">
</g>
<g id="Layer_2">
</g>
<g id="Layer_3">
</g>
<g id="Layer_4">
</g>
<g id="Layer_5">
</g>
<g id="Layer_6">
</g>
<g id="Layer_7">
</g>
<g id="Layer_8">
</g>
<g id="Layer_9">
	<path class="st17" d="M192.38,124.61c2.53,3.91,5.99,9.5,11.58,9.72c0.12,0,0.24,0.01,0.36,0.01c2.4,0,4.62-0.9,6.6-2.19
		c1.28-0.83,2.46-1.81,3.52-2.81c0.58-0.55,0.18-1.51-0.59-1.52c-0.03,0-0.06,0-0.09,0c-0.52,0.05-1.05,0.08-1.57,0.08
		c-1.78,0-3.54-0.33-5.31-1.33c-2-1.13-3.64-2.75-5.08-4.57c-2.08-2.63-3.72-5.67-5.36-8.19c-1.65-2.55-3.71-5.83-6.51-7.85
		c1.09,0.18,2.17,0.41,3.23,0.65c1.61,0.37,3.18,0.78,4.67,1.1c2.32,0.5,5.12,1.14,7.86,1.14c2.63,0,5.19-0.59,7.21-2.45
		c1.87-1.73,2.87-4.04,3.38-6.47c0.31-1.46,0.45-2.95,0.5-4.38c0-0.02,0.01-0.04,0-0.06c0-0.01,0-0.01,0-0.02c0-0.01,0-0.01,0-0.02
		c0-0.02,0-0.04,0-0.06c-0.05-1.43-0.18-2.92-0.5-4.38c-0.52-2.42-1.52-4.74-3.38-6.47c-2.01-1.86-4.58-2.45-7.21-2.45
		c-2.73,0-5.54,0.64-7.86,1.14c-1.49,0.32-3.06,0.72-4.67,1.1c-1.06,0.24-2.14,0.47-3.23,0.65c2.79-2.03,4.86-5.3,6.51-7.85
		c1.63-2.53,3.28-5.57,5.36-8.19c1.44-1.82,3.08-3.44,5.08-4.57c1.77-1,3.52-1.33,5.31-1.33c0.52,0,1.04,0.03,1.57,0.08
		c0.03,0,0.06,0,0.09,0c0.77,0,1.17-0.97,0.59-1.51c-1.06-1-2.24-1.98-3.52-2.81c-1.98-1.28-4.2-2.19-6.6-2.19
		c-0.12,0-0.24,0-0.36,0.01c-5.6,0.22-9.06,5.81-11.58,9.72c-0.83,1.28-1.65,2.67-2.53,4.08c-0.51,0.81-1.03,1.62-1.59,2.42
		c0.56-3.42-0.3-7.23-0.94-10.22c-0.63-2.94-1.62-6.25-2.01-9.58c-0.27-2.3-0.25-4.61,0.36-6.82c0.7-2.53,2.18-4.25,3.97-5.75
		c0.63-0.52,0.25-1.55-0.56-1.55c-0.01,0-0.02,0-0.03,0c-1.45,0.04-2.98,0.18-4.47,0.5c-2.42,0.52-4.74,1.52-6.47,3.38
		c-3.8,4.11-2.3,10.51-1.32,15.07c0.32,1.49,0.72,3.06,1.1,4.67c0.37,1.61,0.71,3.27,0.9,4.93c0.26,2.29,0.24,4.58-0.36,6.81
		c-0.61,2.28-1.89,3.9-3.44,5.29c-1.56-1.39-2.83-3.02-3.44-5.29c-0.6-2.22-0.62-4.52-0.36-6.81c0.19-1.66,0.53-3.32,0.9-4.93
		c0.37-1.61,0.78-3.18,1.1-4.67c0.98-4.55,2.49-10.95-1.32-15.07c-1.73-1.87-4.04-2.87-6.47-3.38c-1.49-0.32-3.02-0.46-4.47-0.5
		c-0.01,0-0.02,0-0.03,0c-0.81,0-1.19,1.02-0.56,1.55c1.79,1.49,3.27,3.22,3.97,5.75c0.61,2.21,0.63,4.52,0.36,6.82
		c-0.39,3.33-1.37,6.64-2.01,9.58c-0.64,2.99-1.51,6.79-0.94,10.22c-0.55-0.8-1.08-1.61-1.59-2.42c-0.88-1.4-1.7-2.8-2.53-4.08
		c-2.53-3.91-5.99-9.5-11.58-9.72c-0.12,0-0.24-0.01-0.36-0.01c-2.4,0-4.62,0.9-6.6,2.19c-1.28,0.83-2.46,1.81-3.52,2.81
		c-0.58,0.55-0.18,1.51,0.59,1.51c0.03,0,0.06,0,0.09,0c0.52-0.05,1.05-0.08,1.57-0.08c1.78,0,3.54,0.33,5.31,1.33
		c2,1.13,3.64,2.75,5.08,4.57c2.08,2.63,3.72,5.67,5.36,8.19c1.65,2.56,3.72,5.85,6.53,7.87c-2.76-0.47-5.47-1.23-7.92-1.76
		c-2.31-0.5-5.12-1.13-7.85-1.13c-2.63,0-5.2,0.59-7.21,2.45c-2.99,2.77-3.76,7.06-3.88,10.86c0,0.01,0,0.03,0,0.04
		c0,0.01,0,0.01,0,0.02c0,0.01,0,0.01,0,0.02c0,0.01,0,0.03,0,0.04c0.12,3.81,0.89,8.09,3.88,10.86c2.01,1.86,4.58,2.45,7.21,2.45
		c2.74,0,5.54-0.64,7.85-1.13c2.45-0.53,5.16-1.29,7.92-1.76c-2.8,2.02-4.88,5.31-6.53,7.87c-1.63,2.53-3.28,5.57-5.36,8.19
		c-1.44,1.82-3.08,3.44-5.08,4.57c-1.77,1-3.52,1.33-5.31,1.33c-0.52,0-1.04-0.03-1.57-0.08c-0.03,0-0.06,0-0.09,0
		c-0.77,0-1.17,0.97-0.59,1.52c1.06,1,2.24,1.98,3.52,2.81c1.98,1.28,4.2,2.19,6.6,2.19c0.12,0,0.24,0,0.36-0.01
		c5.6-0.22,9.06-5.81,11.58-9.72c0.83-1.28,1.65-2.67,2.53-4.08c0.51-0.81,1.03-1.62,1.59-2.42c-0.56,3.42,0.3,7.23,0.94,10.22
		c0.63,2.94,1.62,6.25,2.01,9.58c0.27,2.3,0.25,4.61-0.36,6.82c-0.7,2.53-2.18,4.25-3.97,5.75c-0.63,0.52-0.25,1.55,0.56,1.55
		c0.01,0,0.02,0,0.03,0c1.45-0.04,2.98-0.18,4.47-0.5c2.42-0.52,4.74-1.52,6.47-3.38c3.8-4.11,2.3-10.51,1.32-15.07
		c-0.32-1.49-0.72-3.06-1.1-4.67c-0.37-1.61-0.71-3.27-0.9-4.93c-0.26-2.29-0.24-4.58,0.36-6.81c0.61-2.28,1.89-3.9,3.44-5.29
		c1.56,1.39,2.83,3.02,3.44,5.29c0.6,2.22,0.62,4.52,0.36,6.81c-0.19,1.66-0.53,3.32-0.9,4.93c-0.37,1.61-0.78,3.18-1.1,4.67
		c-0.98,4.55-2.49,10.96,1.32,15.07c1.73,1.87,4.04,2.87,6.47,3.38c1.49,0.32,3.02,0.46,4.47,0.5c0.01,0,0.02,0,0.03,0
		c0.81,0,1.19-1.02,0.56-1.55c-1.79-1.49-3.27-3.22-3.97-5.75c-0.61-2.21-0.63-4.52-0.36-6.82c0.39-3.33,1.37-6.64,2.01-9.58
		c0.64-2.99,1.51-6.79,0.94-10.22c0.55,0.8,1.08,1.61,1.59,2.42C190.73,121.94,191.55,123.33,192.38,124.61z M188.68,75.86
		c1.19-1.49,2.22-3.09,2.99-4.32c0.35-0.56,0.69-1.12,1.03-1.67c0.51-0.84,1-1.63,1.48-2.38l0.2-0.31c2.38-3.68,5.33-8.26,9.67-8.43
		c0.09,0,0.19-0.01,0.28-0.01c1.75,0,3.53,0.6,5.44,1.84c0.2,0.13,0.41,0.27,0.62,0.42c-1.63,0.21-3.13,0.7-4.54,1.5
		c-2.03,1.15-3.89,2.81-5.71,5.1c-1.53,1.93-2.78,3.99-4,5.98c-0.51,0.84-1,1.63-1.48,2.38l-0.18,0.29
		c-2.38,3.69-5.34,8.29-9.68,8.46c-0.09,0-0.19,0.01-0.28,0.01c-1.91,0-3.91-0.74-6.05-2.26c1.64-0.21,3.14-0.71,4.54-1.51
		C185.03,79.79,186.88,78.12,188.68,75.86z M180.51,74.83c0.61-2.25,0.74-4.74,0.42-7.61c-0.22-1.89-0.62-3.75-0.94-5.17
		c-0.15-0.64-0.3-1.28-0.45-1.91c-0.23-0.96-0.45-1.86-0.64-2.73l-0.08-0.36c-0.92-4.28-2.07-9.61,0.87-12.8
		c1.25-1.35,3-2.24,5.35-2.75c0.24-0.05,0.48-0.1,0.73-0.14c-0.87,1.13-1.67,2.53-2.15,4.27c-0.62,2.24-0.76,4.74-0.43,7.64
		c0.28,2.44,0.85,4.79,1.4,7.05c0.23,0.96,0.45,1.86,0.64,2.73l0.07,0.33c0.93,4.3,2.09,9.64-0.86,12.83
		c-1.36,1.47-3.37,2.42-6.07,2.89C179.24,77.98,180.04,76.57,180.51,74.83z M180.89,86.94c1.47,0.4,3.01,0.59,4.71,0.59
		c0.92,0,1.87-0.06,2.9-0.17c1.89-0.22,3.75-0.62,5.17-0.94c0.64-0.15,1.28-0.3,1.91-0.45c0.95-0.23,1.86-0.45,2.73-0.64l0.36-0.08
		c2.19-0.47,4.68-1.01,7.04-1.01c2.5,0,4.39,0.62,5.75,1.88c1.35,1.25,2.24,3,2.75,5.35c0.05,0.24,0.1,0.48,0.14,0.73
		c-1.13-0.87-2.53-1.67-4.27-2.15c-1.47-0.41-3.01-0.61-4.72-0.61c-0.93,0-1.89,0.06-2.93,0.18c-2.44,0.29-4.79,0.85-7.05,1.4
		c-0.96,0.23-1.86,0.45-2.73,0.64l-0.33,0.07c-2.2,0.48-4.69,1.01-7.07,1.01c-2.51,0-4.39-0.61-5.76-1.88
		c-1.47-1.36-2.42-3.36-2.88-6.07C177.74,85.67,179.15,86.47,180.89,86.94z M164.7,63.4l0.07-0.33c0.19-0.87,0.41-1.77,0.64-2.73
		c0.55-2.27,1.12-4.61,1.4-7.06c0.34-2.9,0.2-5.4-0.43-7.64c-0.48-1.74-1.28-3.14-2.15-4.27c0.25,0.04,0.5,0.09,0.74,0.14
		c2.35,0.5,4.1,1.4,5.34,2.75c2.95,3.19,1.8,8.52,0.87,12.8l-0.08,0.36c-0.19,0.88-0.41,1.78-0.64,2.73
		c-0.15,0.63-0.3,1.26-0.45,1.91c-0.33,1.41-0.73,3.27-0.94,5.17c-0.33,2.87-0.19,5.35,0.41,7.6c0.47,1.75,1.27,3.15,2.14,4.28
		c-2.71-0.46-4.71-1.42-6.07-2.88C162.61,73.04,163.77,67.69,164.7,63.4z M155.52,76.25l-0.19-0.29c-0.48-0.75-0.97-1.54-1.48-2.38
		c-1.21-1.99-2.47-4.05-4-5.98c-1.81-2.29-3.68-3.96-5.7-5.1c-1.41-0.8-2.91-1.29-4.54-1.5c0.21-0.15,0.41-0.29,0.62-0.42
		c1.91-1.24,3.69-1.84,5.44-1.84c0.09,0,0.19,0,0.28,0.01c4.34,0.17,7.29,4.75,9.67,8.43l0.2,0.31c0.49,0.75,0.97,1.54,1.48,2.38
		c0.34,0.55,0.68,1.11,1.03,1.67c0.77,1.23,1.8,2.83,2.99,4.32c1.8,2.26,3.65,3.92,5.67,5.08c1.4,0.81,2.9,1.31,4.54,1.51
		c-2.14,1.51-4.14,2.26-6.05,2.26c-0.09,0-0.19,0-0.28-0.01C160.86,84.55,157.9,79.95,155.52,76.25z M138.53,86.12
		c1.37-1.26,3.25-1.88,5.76-1.88c2.38,0,4.87,0.54,7.07,1.01l0.33,0.07c0.87,0.19,1.77,0.41,2.73,0.64c2.27,0.55,4.61,1.12,7.05,1.4
		c1.04,0.12,1.99,0.18,2.92,0.18c1.71,0,3.25-0.2,4.72-0.61c1.74-0.48,3.14-1.28,4.27-2.15c-0.04,0.25-0.09,0.5-0.14,0.74
		c-0.5,2.35-1.4,4.1-2.75,5.34c-1.37,1.27-3.25,1.88-5.75,1.88c-2.37,0-4.85-0.54-7.04-1.01l-0.36-0.08
		c-0.87-0.19-1.78-0.41-2.73-0.64c-0.63-0.15-1.27-0.3-1.91-0.45c-1.41-0.33-3.27-0.73-5.17-0.94c-1.03-0.12-1.98-0.17-2.9-0.17
		c-1.7,0-3.24,0.19-4.7,0.59c-1.75,0.47-3.15,1.27-4.28,2.14C136.11,89.48,137.07,87.48,138.53,86.12z M161.32,115.08
		c-1.19,1.49-2.22,3.09-2.99,4.32c-0.35,0.56-0.69,1.12-1.03,1.67c-0.51,0.84-1,1.63-1.48,2.38l-0.2,0.31
		c-2.38,3.68-5.33,8.27-9.67,8.43c-0.09,0-0.19,0.01-0.28,0.01c-1.75,0-3.53-0.6-5.44-1.84c-0.2-0.13-0.41-0.27-0.62-0.42
		c1.63-0.21,3.13-0.7,4.54-1.5c2.03-1.15,3.89-2.81,5.7-5.1c1.53-1.93,2.78-3.99,4-5.98c0.51-0.84,1-1.63,1.48-2.38l0.18-0.29
		c2.38-3.69,5.34-8.29,9.68-8.46c0.09,0,0.19-0.01,0.28-0.01c1.91,0,3.91,0.74,6.05,2.26c-1.64,0.21-3.14,0.71-4.54,1.51
		C164.97,111.16,163.12,112.82,161.32,115.08z M169.49,116.12c-0.61,2.25-0.74,4.74-0.42,7.61c0.22,1.89,0.62,3.75,0.94,5.17
		c0.15,0.64,0.3,1.28,0.45,1.91c0.23,0.95,0.45,1.86,0.64,2.73l0.08,0.36c0.92,4.28,2.07,9.61-0.87,12.8
		c-1.25,1.35-3,2.24-5.35,2.75c-0.24,0.05-0.48,0.1-0.73,0.14c0.87-1.13,1.67-2.53,2.15-4.27c0.62-2.24,0.76-4.74,0.43-7.64
		c-0.29-2.44-0.85-4.79-1.4-7.05c-0.23-0.96-0.45-1.86-0.64-2.73l-0.07-0.33c-0.93-4.3-2.09-9.64,0.86-12.83
		c1.36-1.47,3.36-2.42,6.07-2.88C170.76,112.97,169.96,114.37,169.49,116.12z M169.12,104c-1.47-0.41-3.01-0.61-4.72-0.61
		c-0.93,0-1.89,0.06-2.93,0.18c-2.44,0.29-4.79,0.85-7.05,1.4c-0.96,0.23-1.86,0.45-2.73,0.64l-0.33,0.07
		c-2.2,0.48-4.69,1.01-7.07,1.01c-2.51,0-4.39-0.61-5.76-1.88c-1.47-1.36-2.42-3.36-2.88-6.07c1.13,0.88,2.54,1.67,4.28,2.14
		c1.47,0.4,3.01,0.59,4.71,0.59c0.92,0,1.87-0.06,2.9-0.17c1.89-0.22,3.75-0.62,5.17-0.94c0.64-0.15,1.28-0.3,1.91-0.45
		c0.95-0.23,1.86-0.45,2.73-0.64l0.36-0.08c2.19-0.47,4.68-1.01,7.04-1.01c2.5,0,4.39,0.62,5.75,1.88c1.35,1.25,2.24,3,2.75,5.35
		c0.05,0.24,0.1,0.48,0.14,0.73C172.27,105.29,170.86,104.49,169.12,104z M175,103.65c-0.58-1.93-1.52-3.73-3.04-5.14
		c-2.01-1.86-4.58-2.45-7.21-2.45c-2.73,0-5.54,0.64-7.86,1.14c-1.49,0.32-3.06,0.72-4.67,1.1c-1.61,0.37-3.27,0.71-4.93,0.9
		c-0.89,0.1-1.77,0.16-2.66,0.16c-1.4,0-2.79-0.15-4.15-0.52c-2.24-0.6-3.85-1.84-5.22-3.36c1.37-1.52,2.98-2.76,5.22-3.36
		c1.36-0.37,2.75-0.52,4.15-0.52c0.88,0,1.77,0.06,2.66,0.16c1.66,0.19,3.32,0.53,4.93,0.9c1.61,0.37,3.18,0.78,4.67,1.1
		c2.32,0.5,5.12,1.14,7.86,1.14c2.63,0,5.19-0.59,7.21-2.45c1.52-1.41,2.46-3.21,3.04-5.14c0.58,1.93,1.52,3.73,3.04,5.14
		c2.01,1.86,4.58,2.45,7.21,2.45c2.74,0,5.54-0.64,7.85-1.13c2.94-0.63,6.25-1.62,9.58-2.01c0.89-0.1,1.79-0.16,2.68-0.16
		c1.4,0,2.79,0.15,4.14,0.53c2.24,0.62,3.84,1.85,5.22,3.36c-1.37,1.52-2.98,2.74-5.22,3.36c-1.35,0.38-2.74,0.53-4.14,0.53
		c-0.89,0-1.78-0.06-2.68-0.16c-3.33-0.39-6.64-1.37-9.58-2.01c-2.31-0.5-5.12-1.13-7.85-1.13c-2.63,0-5.2,0.59-7.21,2.45
		C176.52,99.92,175.57,101.72,175,103.65z M179.49,100.08c1.37-1.26,3.25-1.88,5.76-1.88c2.38,0,4.87,0.54,7.07,1.01l0.33,0.07
		c0.87,0.19,1.77,0.41,2.73,0.64c2.27,0.55,4.61,1.12,7.05,1.4c1.04,0.12,1.99,0.18,2.92,0.18c1.71,0,3.25-0.2,4.72-0.61
		c1.74-0.48,3.14-1.28,4.27-2.15c-0.04,0.25-0.09,0.5-0.14,0.74c-0.5,2.35-1.4,4.1-2.75,5.34c-1.37,1.27-3.25,1.88-5.75,1.88
		c-2.37,0-4.85-0.54-7.04-1.01l-0.36-0.08c-0.87-0.19-1.78-0.41-2.73-0.64c-0.63-0.15-1.26-0.3-1.91-0.45
		c-1.41-0.32-3.27-0.73-5.17-0.94c-1.03-0.12-1.98-0.17-2.9-0.17c-1.7,0-3.24,0.19-4.7,0.59c-1.75,0.47-3.15,1.27-4.28,2.14
		C177.07,103.44,178.03,101.43,179.49,100.08z M185.3,127.55l-0.07,0.33c-0.19,0.87-0.41,1.77-0.64,2.73
		c-0.55,2.27-1.12,4.61-1.4,7.05c-0.34,2.9-0.2,5.4,0.43,7.64c0.48,1.74,1.28,3.14,2.15,4.27c-0.25-0.04-0.5-0.09-0.74-0.14
		c-2.35-0.5-4.1-1.4-5.34-2.75c-2.95-3.19-1.8-8.52-0.87-12.8l0.08-0.36c0.19-0.88,0.41-1.78,0.64-2.73
		c0.15-0.63,0.3-1.26,0.45-1.91c0.32-1.41,0.73-3.27,0.94-5.17c0.33-2.87,0.19-5.35-0.41-7.6c-0.47-1.75-1.27-3.15-2.14-4.28
		c2.71,0.46,4.71,1.42,6.07,2.88C187.39,117.91,186.23,123.25,185.3,127.55z M183.01,110c-1.4-0.81-2.9-1.31-4.54-1.51
		c2.14-1.51,4.14-2.26,6.05-2.26c0.09,0,0.19,0,0.28,0.01c4.34,0.17,7.3,4.77,9.68,8.46l0.19,0.29c0.48,0.75,0.97,1.54,1.48,2.38
		c1.21,1.99,2.47,4.05,4,5.98c1.81,2.29,3.68,3.96,5.7,5.1c1.41,0.8,2.91,1.29,4.54,1.5c-0.21,0.15-0.41,0.29-0.62,0.42
		c-1.91,1.24-3.69,1.84-5.44,1.84c-0.09,0-0.19,0-0.28-0.01c-4.34-0.17-7.29-4.75-9.67-8.43l-0.2-0.31
		c-0.49-0.75-0.97-1.54-1.48-2.38c-0.34-0.55-0.68-1.11-1.03-1.67c-0.77-1.23-1.8-2.83-2.99-4.32
		C186.88,112.82,185.03,111.16,183.01,110z"/>
</g>
<g id="Layer_10">
</g>
<g id="Layer_11">
</g>
<g id="Layer_12">
</g>
<g id="Layer_13">
</g>
<g id="Layer_14">
</g>
<g id="Layer_15">
</g>
</svg>
