<?xml version="1.0" encoding="utf-8"?>
<!-- Generator: Adobe Illustrator 27.8.1, SVG Export Plug-In . SVG Version: 6.00 Build 0)  -->
<svg version="1.1" xmlns="http://www.w3.org/2000/svg" xmlns:xlink="http://www.w3.org/1999/xlink" x="0px" y="0px"
	 viewBox="0 0 350 230" style="enable-background:new 0 0 350 230;" xml:space="preserve">
<style type="text/css">
	.st0{fill-rule:evenodd;clip-rule:evenodd;fill:#009696;}
	.st1{fill-rule:evenodd;clip-rule:evenodd;fill:#1E87B8;}
	.st2{fill-rule:evenodd;clip-rule:evenodd;fill:#676766;}
	.st3{fill:#1E87B8;}
	.st4{fill:#181C21;}
	.st5{fill-rule:evenodd;clip-rule:evenodd;fill:#0091C6;}
	.st6{fill:#0047C4;}
	.st7{fill:#00194C;}
	.st8{fill:#00A8B5;}
	.st9{fill:#635901;}
	.st10{fill:#A03100;}
	.st11{fill:#0F4D4F;}
	.st12{fill:#303000;}
	.st13{fill:#666666;}
	.st14{fill:#6096A8;}
	.st15{fill:#493203;}
	.st16{fill:#0091C6;}
	.st17{fill:#0000A0;}
	.st18{fill:#300047;}
	.st19{fill:#032A54;}
	.st20{fill:#243F00;}
</style>
<g id="Layer_1">
</g>
<g id="Layer_2">
</g>
<g id="Layer_3">
</g>
<g id="Layer_4">
</g>
<g id="Layer_5">
</g>
<g id="Layer_6">
</g>
<g id="Layer_7">
</g>
<g id="Layer_8">
</g>
<g id="Layer_9">
</g>
<g id="Layer_10">
</g>
<g id="Layer_11">
	<g>
		<path class="st14" d="M241.74,77.61l-4.35,4.35c-1.79,1.79-4.69,1.79-6.48,0l-53.38-53.38c-1.79-1.79-4.69-1.79-6.48,0
			l-52.73,52.73c-1.77,1.77-4.65,1.79-6.44,0.04l-3.59-3.51c-1.82-1.78-1.84-4.71-0.04-6.51l63.6-63.6c1.79-1.79,4.69-1.79,6.48,0
			l16.88,16.88c2.89,2.89,7.82,0.84,7.82-3.24v0c0-2.53,2.05-4.58,4.58-4.58h2.47c2.53,0,4.58,2.05,4.58,4.58v20.79
			c0,1.21,0.48,2.38,1.34,3.24l25.74,25.74C243.53,72.93,243.53,75.83,241.74,77.61z"/>
		<path class="st15" d="M110.06,100.08l60.02-60.02c2.77-2.77,7.26-2.77,10.03,0l59.85,59.85c2.77,2.77,2.77,7.26,0,10.03l-0.8,0.8
			c-2.77,2.77-7.26,2.77-10.03,0l-49.82-49.82c-2.77-2.77-7.26-2.77-10.03,0l-49.19,49.19c-2.75,2.75-7.2,2.77-9.98,0.06l0,0
			C107.29,107.41,107.26,102.88,110.06,100.08z M130.9,113.74L130.9,113.74c-2.88,2.88-2.88,7.56,0,10.44l38.98,38.98
			c2.88,2.88,7.56,2.88,10.44,0l39.15-39.15c2.88-2.88,2.88-7.56,0-10.44l-0.21-0.21c-2.88-2.88-7.56-2.88-10.44,0l-29.24,29.24
			c-2.92,2.92-7.68,2.88-10.54-0.1l-27.58-28.66C138.57,110.86,133.82,110.81,130.9,113.74z M160.65,82.31v11.63h11.63V82.31H160.65
			z M177.75,93.02h11.63V82.31h-11.63V93.02z M160.65,99.41v11.86h11.63V99.41H160.65z M177.75,111.27h11.63V98.5h-11.63V111.27z"/>
	</g>
</g>
<g id="Layer_12">
</g>
<g id="Layer_13">
</g>
<g id="Layer_14">
</g>
<g id="Layer_15">
</g>
</svg>
