<?xml version="1.0" encoding="utf-8"?>
<!-- Generator: Adobe Illustrator 27.8.1, SVG Export Plug-In . SVG Version: 6.00 Build 0)  -->
<svg version="1.1" id="Layer_1" xmlns="http://www.w3.org/2000/svg" xmlns:xlink="http://www.w3.org/1999/xlink" x="0px" y="0px"
	 viewBox="0 0 350 230" style="enable-background:new 0 0 350 230;" xml:space="preserve">
<style type="text/css">
	.st0{fill:#005868;}
	.st1{fill:#FF0087;}
	.st2{fill:#002F44;}
	.st3{fill:#FC9500;}
	.st4{fill:#003144;}
	.st5{fill:#00AAFF;}
	.st6{fill:#00FFE6;}
	.st7{fill:#F46CFF;}
	.st8{fill:#0043FF;}
	.st9{fill:#977D00;}
	.st10{fill-rule:evenodd;clip-rule:evenodd;fill:#5BB200;}
	.st11{fill-rule:evenodd;clip-rule:evenodd;fill:#747C04;}
	.st12{fill:#735500;}
	.st13{fill:#4D0600;}
	.st14{fill-rule:evenodd;clip-rule:evenodd;fill:#FF0074;}
	.st15{fill-rule:evenodd;clip-rule:evenodd;fill:#004972;}
	.st16{fill:#E5BB07;}
	.st17{fill-rule:evenodd;clip-rule:evenodd;fill:#C2C700;}
	.st18{fill-rule:evenodd;clip-rule:evenodd;fill:#FF0062;}
	.st19{fill-rule:evenodd;clip-rule:evenodd;fill:#C44600;}
	.st20{fill:#02D3BE;}
	.st21{fill:#D3B900;}
	.st22{fill:#0055FF;}
	.st23{fill:#D17315;}
	.st24{fill:#9E580B;}
	.st25{fill:url(#SVGID_1_);}
	.st26{fill:#05ADFC;}
	.st27{fill:#F1F9C2;}
	.st28{fill-rule:evenodd;clip-rule:evenodd;fill:#282000;}
</style>
<g>
	<path class="st0" d="M145.44,71.01c5.71-3.48,11.45-6.91,17.22-10.28c2.09-1.22,4.3-2.25,6.51-3.4c0,1.83,0,3.86,0,5.89
		c0,2.36-0.09,4.72,0.02,7.06c0.09,1.78-0.54,2.86-2.11,3.77c-7.64,4.44-15.21,9-22.79,13.53c-0.59,0.35-1.15,0.78-2.01,1.37
		c3.06,1.82,5.85,3.49,8.64,5.15c5.76,3.43,11.53,6.84,17.25,10.33c1.19,0.72,2.1,0.74,3.3,0.01c12.03-7.25,24.09-14.45,36.15-21.66
		c0.71-0.42,1.48-0.75,2.45-1.23c0.12,0.81,0.27,1.34,0.27,1.88c0.02,4-0.02,7.99,0.02,11.99c0.01,1.27-0.39,2.08-1.54,2.76
		c-12.7,7.52-25.38,15.08-38.03,22.67c-0.97,0.58-1.68,0.64-2.69,0.04c-12.66-7.59-25.33-15.15-38.03-22.67
		c-1.03-0.61-1.51-1.26-1.48-2.51c0.08-4.42-0.01-8.85,0.08-13.27c0.01-0.7,0.48-1.67,1.04-2.03c3-1.91,6.1-3.68,9.16-5.49
		c1.21-0.71,2.96-1.95,3.95-2.48L145.44,71.01z"/>
	<path class="st1" d="M210.32,104.83c0,5.35,0.04,10.26-0.05,15.17c-0.01,0.54-0.67,1.25-1.21,1.57
		c-12.79,7.65-25.6,15.28-38.45,22.84c-0.6,0.35-1.79,0.33-2.41-0.04c-12.72-7.5-25.38-15.08-38.09-22.6
		c-1.13-0.67-1.51-1.41-1.49-2.71c0.08-4.75,0.03-9.5,0.03-14.63c3.96,2.34,7.63,4.49,11.28,6.67c9.19,5.47,18.4,10.91,27.54,16.48
		c1.76,1.07,3.02,1.06,4.77-0.01c11.72-7.1,23.5-14.08,35.27-21.1C208.29,106.01,209.08,105.55,210.32,104.83z M213,48.29
		c0.4-0.01,1.11-0.73,1.12-1.13c0.08-4.2,0.1-8.4-0.01-12.6c-0.01-0.46-0.91-1.27-1.41-1.28c-3.99-0.1-7.98-0.1-11.96,0.01
		c-0.49,0.01-1.38,0.82-1.39,1.28c-0.1,4.48-0.06,8.96-0.06,13.78C204.06,48.34,208.53,48.37,213,48.29z M194.33,52.68
		c-4.29,0-8.46,0-12.75,0c0-4.28,0-8.44,0-12.73c4.28,0,8.45,0,12.75,0C194.33,44.15,194.33,48.31,194.33,52.68z M211.05,52.02
		c3.48,0,6.86,0,10.34,0c0,3.51,0,6.9,0,10.42c-3.41,0-6.8,0-10.34,0C211.05,59,211.05,55.55,211.05,52.02z M197.26,57
		c2.4,0.08,4.8,0.26,7.2,0.22c1.5-0.02,2,0.52,1.95,1.99c-0.09,2.41-0.02,4.84-0.04,7.25c0,0.2-0.1,0.4-0.19,0.75
		c-2.54,0-5.08,0.09-7.62-0.08c-0.52-0.03-1.36-1.04-1.38-1.62C197.07,62.68,197.2,59.84,197.26,57L197.26,57z M191.02,68.4
		c0.13,1.29,0.37,2.84-2.3,2.74c-3.97-0.15-3.98,0-4.01-2.28c-0.06-4.06-0.06-4.06,2.62-4.08C190.98,64.75,190.98,64.75,191.02,68.4
		z"/>
</g>
</svg>
