<?xml version="1.0" encoding="utf-8"?>
<!-- Generator: Adobe Illustrator 27.8.1, SVG Export Plug-In . SVG Version: 6.00 Build 0)  -->
<svg version="1.1" id="Layer_1" xmlns="http://www.w3.org/2000/svg" xmlns:xlink="http://www.w3.org/1999/xlink" x="0px" y="0px"
	 viewBox="0 0 350 230" style="enable-background:new 0 0 350 230;" xml:space="preserve">
<style type="text/css">
	.st0{fill:#005868;}
	.st1{fill:#FF0087;}
	.st2{fill:#002F44;}
	.st3{fill:#FC9500;}
	.st4{fill:#003144;}
	.st5{fill:#00AAFF;}
	.st6{fill:#00FFE6;}
	.st7{fill:#F46CFF;}
	.st8{fill:#0043FF;}
	.st9{fill:#977D00;}
	.st10{fill-rule:evenodd;clip-rule:evenodd;fill:#5BB200;}
	.st11{fill-rule:evenodd;clip-rule:evenodd;fill:#747C04;}
	.st12{fill:#735500;}
	.st13{fill:#4D0600;}
	.st14{fill-rule:evenodd;clip-rule:evenodd;fill:#FF0074;}
	.st15{fill-rule:evenodd;clip-rule:evenodd;fill:#004972;}
	.st16{fill:#E5BB07;}
	.st17{fill-rule:evenodd;clip-rule:evenodd;fill:#C2C700;}
	.st18{fill-rule:evenodd;clip-rule:evenodd;fill:#FF0062;}
	.st19{fill-rule:evenodd;clip-rule:evenodd;fill:#C44600;}
	.st20{fill:#02D3BE;}
	.st21{fill:#D3B900;}
	.st22{fill:#0055FF;}
	.st23{fill:#D17315;}
	.st24{fill:#9E580B;}
	.st25{fill:url(#SVGID_1_);}
	.st26{fill:#05ADFC;}
	.st27{fill:#F1F9C2;}
	.st28{fill-rule:evenodd;clip-rule:evenodd;fill:#282000;}
</style>
<g>
	<path class="st17" d="M155.91,139.18l-42.13-8.03V79.09l42.14-9.89v-7.62l-49.76,12.84v55.27v7.92l7.62,1.41l42.13,7.78V139.18z
		 M162.63,69.77v77.02l55.12-7.78v-28.38l-8.29,8.29c0.26,0.59,0.4,1.25,0.4,1.94c0,1.34-0.55,2.56-1.43,3.44l0,0
		c-0.88,0.88-2.1,1.43-3.45,1.43c-1.34,0-2.56-0.55-3.44-1.43l-0.01-0.01c-0.88-0.89-1.43-2.1-1.43-3.44c0-1.35,0.55-2.56,1.43-3.45
		l0,0c0.88-0.88,2.1-1.43,3.44-1.43c0.69,0,1.34,0.14,1.94,0.4l10.83-10.83l25.56-25.56c0.7-0.7,0.7-1.84,0-2.53
		c-0.7-0.7-1.84-0.7-2.54,0l-1.34,1.34l-21.69,21.69l-7.11,7.11c-0.7,0.7-1.84,0.7-2.53,0c-0.7-0.7-0.7-1.83,0-2.53l9.64-9.64
		l15.17-15.17c0.7-0.7,0.7-1.84,0-2.54c-0.7-0.7-1.84-0.7-2.54,0L230.11,78l-12.36,12.36L193,115.11c0.26,0.59,0.4,1.25,0.4,1.94
		c0,1.34-0.55,2.56-1.43,3.44l0,0c-0.88,0.88-2.1,1.43-3.45,1.43c-1.34,0-2.55-0.55-3.44-1.43l-0.01-0.01
		c-0.88-0.89-1.43-2.1-1.43-3.44c0-1.35,0.55-2.56,1.43-3.45l0,0c0.89-0.88,2.1-1.43,3.44-1.43c0.69,0,1.34,0.14,1.94,0.4
		l27.29-27.29l9.83-9.82l9.02-9.02c0.7-0.7,0.7-1.84,0-2.53c-0.7-0.7-1.83-0.7-2.53,0l-16.31,16.31l-16.74,16.74
		c-0.7,0.7-1.83,0.7-2.53,0c-0.7-0.7-0.7-1.83,0-2.53l19.28-19.28l7.22-7.22c0.7-0.7,0.7-1.83,0-2.53c-0.7-0.7-1.83-0.7-2.54,0
		l-7.3,7.3l-22.89,22.89c0.26,0.59,0.4,1.25,0.4,1.94c0,1.34-0.55,2.56-1.43,3.44l0,0c-0.88,0.88-2.1,1.43-3.45,1.43
		c-1.34,0-2.56-0.54-3.44-1.43l-0.01-0.01c-0.88-0.89-1.43-2.1-1.43-3.44c0-1.35,0.55-2.56,1.43-3.45l0,0
		c0.89-0.88,2.1-1.43,3.44-1.43c0.69,0,1.34,0.14,1.94,0.4l21.35-21.35l14.33-14.33c0.7-0.7,0.7-1.84,0-2.54
		c-0.7-0.7-1.84-0.7-2.54,0l-15.87,15.87l-11.86,11.86c-0.7,0.7-1.84,0.7-2.53,0c-0.7-0.7-0.7-1.83,0-2.53l10.32-10.32l10.63-10.63
		c0.7-0.7,0.7-1.84,0-2.54c-0.7-0.7-1.84-0.7-2.54,0l-12.17,12.17l-20.86,20.86c0.43,0.73,0.69,1.58,0.69,2.49
		c0,1.34-0.55,2.56-1.43,3.44l0,0c-0.88,0.88-2.1,1.43-3.45,1.43c-1.34,0-2.56-0.55-3.44-1.43l-0.01-0.01
		c-0.88-0.88-1.43-2.1-1.43-3.44c0-1.35,0.55-2.56,1.43-3.45l0,0c0.89-0.88,2.1-1.43,3.44-1.43c0.46,0,0.9,0.06,1.32,0.18
		l19.66-19.66l-32.14-7.87v3.59L162.63,69.77L162.63,69.77z M206.23,119.63c0.32,0.32,0.51,0.76,0.51,1.24
		c0,0.49-0.19,0.93-0.51,1.24h-0.01c-0.32,0.32-0.76,0.51-1.24,0.51c-0.49,0-0.93-0.19-1.24-0.51l-0.01-0.01
		c-0.31-0.31-0.51-0.75-0.51-1.24c0-0.48,0.2-0.92,0.51-1.24v-0.01c0.31-0.31,0.75-0.51,1.24-0.51
		C205.48,119.11,205.91,119.31,206.23,119.63L206.23,119.63z M189.02,96.28c0.32,0.32,0.51,0.76,0.51,1.24
		c0,0.49-0.19,0.93-0.51,1.24h-0.01c-0.32,0.32-0.76,0.51-1.24,0.51c-0.49,0-0.93-0.19-1.24-0.51l-0.01-0.01
		c-0.31-0.31-0.51-0.75-0.51-1.24c0-0.48,0.2-0.92,0.51-1.24v-0.01c0.31-0.31,0.75-0.51,1.24-0.51
		C188.26,95.77,188.7,95.97,189.02,96.28L189.02,96.28z M189.77,115.81c0.32,0.32,0.51,0.76,0.51,1.24c0,0.49-0.19,0.93-0.51,1.24
		h-0.01c-0.32,0.32-0.76,0.51-1.24,0.51c-0.49,0-0.93-0.19-1.24-0.51l-0.01-0.01c-0.31-0.31-0.51-0.75-0.51-1.24
		c0-0.48,0.2-0.92,0.51-1.24v-0.01c0.31-0.31,0.75-0.51,1.24-0.51C189.01,115.3,189.45,115.49,189.77,115.81L189.77,115.81z
		 M175.03,90.83c0.32,0.32,0.51,0.76,0.51,1.24c0,0.49-0.19,0.93-0.51,1.24h-0.01c-0.32,0.32-0.76,0.51-1.24,0.51
		c-0.49,0-0.93-0.19-1.24-0.51l-0.01-0.01c-0.31-0.31-0.51-0.75-0.51-1.24c0-0.48,0.2-0.92,0.51-1.24v-0.01
		c0.31-0.31,0.75-0.51,1.24-0.51C174.28,90.31,174.72,90.51,175.03,90.83z"/>
	<path class="st18" d="M155.92,72.46L155.92,72.46 M128.89,112.8l3.83-11.55c-1.71-0.56-2.95-2.17-2.95-4.07
		c0-2.36,1.91-4.28,4.28-4.28c2.36,0,4.28,1.91,4.28,4.28c0,1.9-1.24,3.51-2.95,4.07l4.52,13.64l-5.85-1.11L128.89,112.8
		L128.89,112.8z M152.74,135.35V73.2l-35.79,8.4v46.92L152.74,135.35z M206.37,119.63c0.32,0.32,0.51,0.76,0.51,1.24
		c0,0.49-0.19,0.93-0.51,1.24h-0.01c-0.32,0.32-0.76,0.51-1.24,0.51c-0.49,0-0.93-0.19-1.24-0.51l-0.01-0.01
		c-0.31-0.31-0.51-0.75-0.51-1.24c0-0.48,0.2-0.92,0.51-1.24v-0.01c0.31-0.31,0.75-0.51,1.24-0.51
		C205.61,119.11,206.05,119.31,206.37,119.63L206.37,119.63z M189.15,96.28c0.32,0.32,0.51,0.76,0.51,1.24
		c0,0.49-0.19,0.93-0.51,1.24h-0.01c-0.32,0.32-0.76,0.51-1.24,0.51c-0.49,0-0.93-0.19-1.24-0.51l-0.01-0.01
		c-0.31-0.31-0.51-0.75-0.51-1.24c0-0.48,0.2-0.92,0.51-1.24v-0.01c0.31-0.31,0.75-0.51,1.24-0.51
		C188.4,95.77,188.84,95.97,189.15,96.28L189.15,96.28z M189.91,115.81c0.32,0.32,0.51,0.76,0.51,1.24c0,0.49-0.19,0.93-0.51,1.24
		h-0.01c-0.32,0.32-0.76,0.51-1.24,0.51c-0.49,0-0.93-0.19-1.24-0.51l-0.01-0.01c-0.31-0.31-0.51-0.75-0.51-1.24
		c0-0.48,0.2-0.92,0.51-1.24v-0.01c0.31-0.31,0.75-0.51,1.24-0.51C189.15,115.3,189.59,115.49,189.91,115.81L189.91,115.81z
		 M175.17,90.83c0.32,0.32,0.51,0.76,0.51,1.24c0,0.49-0.19,0.93-0.51,1.24h-0.01c-0.32,0.32-0.76,0.51-1.24,0.51
		c-0.49,0-0.93-0.19-1.24-0.51l-0.01-0.01c-0.31-0.31-0.51-0.75-0.51-1.24c0-0.48,0.2-0.92,0.51-1.24v-0.01
		c0.31-0.31,0.75-0.51,1.24-0.51C174.42,90.31,174.86,90.51,175.17,90.83z"/>
</g>
</svg>
