<?xml version="1.0" encoding="utf-8"?>
<!-- Generator: Adobe Illustrator 27.8.1, SVG Export Plug-In . SVG Version: 6.00 Build 0)  -->
<svg version="1.1" id="Layer_1" xmlns="http://www.w3.org/2000/svg" xmlns:xlink="http://www.w3.org/1999/xlink" x="0px" y="0px"
	 viewBox="0 0 350 230" style="enable-background:new 0 0 350 230;" xml:space="preserve">
<style type="text/css">
	.st0{fill:#005868;}
	.st1{fill:#FF0087;}
	.st2{fill:#002F44;}
	.st3{fill:#FC9500;}
	.st4{fill:#003144;}
	.st5{fill:#00AAFF;}
	.st6{fill:#00FFE6;}
	.st7{fill:#F46CFF;}
	.st8{fill:#0043FF;}
	.st9{fill:#977D00;}
	.st10{fill-rule:evenodd;clip-rule:evenodd;fill:#5BB200;}
	.st11{fill-rule:evenodd;clip-rule:evenodd;fill:#747C04;}
	.st12{fill:#735500;}
	.st13{fill:#4D0600;}
	.st14{fill-rule:evenodd;clip-rule:evenodd;fill:#FF0074;}
	.st15{fill-rule:evenodd;clip-rule:evenodd;fill:#004972;}
	.st16{fill:#E5BB07;}
	.st17{fill-rule:evenodd;clip-rule:evenodd;fill:#C2C700;}
	.st18{fill-rule:evenodd;clip-rule:evenodd;fill:#FF0062;}
	.st19{fill-rule:evenodd;clip-rule:evenodd;fill:#C44600;}
	.st20{fill:#02D3BE;}
	.st21{fill:#D3B900;}
	.st22{fill:#0055FF;}
	.st23{fill:#D17315;}
	.st24{fill:#9E580B;}
	.st25{fill:url(#SVGID_1_);}
	.st26{fill:#05ADFC;}
	.st27{fill:#F1F9C2;}
	.st28{fill-rule:evenodd;clip-rule:evenodd;fill:#282000;}
</style>
<g>
	<path class="st19" d="M183.85,112.58l25.95-4.95V75.56l-25.96-6.09v-4.69l30.65,7.91v34.04v4.88l-4.69,0.87l-25.95,4.79V112.58z
		 M179.71,69.83v47.44l-17.03-2.4V73.89h0.95l-0.95-1.97l-1.73-3.61l18.76-4.59v2.21V69.83L179.71,69.83z M158.54,114.28l-12.79-1.8
		l-2.13-0.3V82.56h0.95l-0.95-1.97l-2.07-4.31l-2.07,4.31l-0.95,1.97h0.95v29.04l-13.19-1.86V89.1h0.95l-0.95-1.97l-2.07-4.31
		l-2.07,4.31l-0.95,1.97h0.95v20.05l-7.87-1.11V79.73c9.8-2.4,19.6-4.8,29.4-7.19l2.07,4.31l-2.07-4.31l16.5-4.04l-1.64,3.42
		l-0.95,1.97h0.95L158.54,114.28L158.54,114.28z"/>
	<path class="st20" d="M231.68,66.62c0.19,0,0.54-0.35,0.54-0.54c0.04-2.02,0.05-4.05-0.01-6.07c-0.01-0.22-0.44-0.61-0.68-0.62
		c-1.92-0.05-3.84-0.05-5.76,0c-0.24,0.01-0.66,0.39-0.67,0.61c-0.05,2.16-0.03,4.31-0.03,6.64
		C227.37,66.65,229.52,66.66,231.68,66.62z M222.68,68.74c-2.07,0-4.07,0-6.14,0c0-2.06,0-4.07,0-6.13c2.06,0,4.07,0,6.14,0
		C222.68,64.63,222.68,66.63,222.68,68.74z M230.74,68.42c1.67,0,3.3,0,4.98,0c0,1.69,0,3.32,0,5.02c-1.64,0-3.27,0-4.98,0
		C230.74,71.78,230.74,70.12,230.74,68.42z M224.09,70.82c1.16,0.04,2.31,0.12,3.47,0.11c0.72-0.01,0.96,0.25,0.94,0.96
		c-0.04,1.16-0.01,2.33-0.02,3.49c0,0.1-0.05,0.19-0.09,0.36c-1.22,0-2.45,0.04-3.67-0.04c-0.25-0.02-0.65-0.5-0.66-0.78
		C224,73.55,224.07,72.18,224.09,70.82L224.09,70.82z M221.09,76.31c0.06,0.62,0.18,1.37-1.11,1.32c-1.91-0.07-1.92,0-1.93-1.1
		c-0.03-1.95-0.03-1.95,1.26-1.97C221.07,74.55,221.07,74.55,221.09,76.31z M199.23,96.33l-2.36-7.11c1.05-0.34,1.82-1.34,1.82-2.5
		c0-1.45-1.18-2.63-2.63-2.63c-1.45,0-2.63,1.18-2.63,2.63c0,1.17,0.76,2.16,1.82,2.5l-2.78,8.4l3.6-0.69L199.23,96.33L199.23,96.33
		z M185.8,110.22V71.94l22.05,5.17v28.9L185.8,110.22z"/>
</g>
</svg>
