<?xml version="1.0" encoding="utf-8"?>
<!-- Generator: Adobe Illustrator 27.8.1, SVG Export Plug-In . SVG Version: 6.00 Build 0)  -->
<svg version="1.1" id="Layer_1" xmlns="http://www.w3.org/2000/svg" xmlns:xlink="http://www.w3.org/1999/xlink" x="0px" y="0px"
	 viewBox="0 0 350 230" style="enable-background:new 0 0 350 230;" xml:space="preserve">
<style type="text/css">
	.st0{fill:#005868;}
	.st1{fill:#FF0087;}
	.st2{fill:#002F44;}
	.st3{fill:#FC9500;}
	.st4{fill:#003144;}
	.st5{fill:#00AAFF;}
	.st6{fill:#00FFE6;}
	.st7{fill:#F46CFF;}
	.st8{fill:#0043FF;}
	.st9{fill:#977D00;}
	.st10{fill-rule:evenodd;clip-rule:evenodd;fill:#5BB200;}
	.st11{fill-rule:evenodd;clip-rule:evenodd;fill:#747C04;}
	.st12{fill:#735500;}
	.st13{fill:#4D0600;}
	.st14{fill-rule:evenodd;clip-rule:evenodd;fill:#FF0074;}
	.st15{fill-rule:evenodd;clip-rule:evenodd;fill:#004972;}
	.st16{fill:#E5BB07;}
	.st17{fill-rule:evenodd;clip-rule:evenodd;fill:#C2C700;}
	.st18{fill-rule:evenodd;clip-rule:evenodd;fill:#FF0062;}
	.st19{fill-rule:evenodd;clip-rule:evenodd;fill:#C44600;}
	.st20{fill:#02D3BE;}
	.st21{fill:#D3B900;}
	.st22{fill:#0055FF;}
	.st23{fill:#D17315;}
	.st24{fill:#9E580B;}
	.st25{fill:url(#SVGID_1_);}
	.st26{fill:#05ADFC;}
	.st27{fill:#F1F9C2;}
	.st28{fill-rule:evenodd;clip-rule:evenodd;fill:#282000;}
</style>
<g>
	<path class="st23" d="M175,78.68v5.28l-31.02,9.67v-5.28L175,78.68z M175,88.52v5.22l-31.02,7.64v-5.22L175,88.52z M175,98.38v5.18
		l-31.02,6.17v-5.18L175,98.38z M175,108.18v5.13l-31.02,3.03v-5.13L175,108.18z M143.98,117.97H175v5.12h-31.02V117.97z"/>
	<path class="st24" d="M175,83.91v5.28l31.02,9.67v-5.28L175,83.91z M175,93.76v5.22l31.02,7.64v-5.22L175,93.76z M175,103.61v5.18
		l31.02,6.17v-5.18L175,103.61z M175,113.42v5.13l31.02,3.03v-5.13L175,113.42z M175,123.21h31.02v5.12H175V123.21z"/>
	<path d="M213.45,132.5h-76.9v-3.72h76.9V132.5z M213.45,128.33h-5.06V85.69L175,73.73l-33.39,11.96v42.63h-5.06v-46.2L175,68.35
		l38.45,13.78V128.33z M204.14,80.58h-5.06V68.94c0-6.43-2.5-12.48-7.05-17.03c-4.55-4.55-10.6-7.05-17.03-7.05
		c-13.28,0-24.08,10.8-24.08,24.08v11.63h-5.06V68.94c0-3.93,0.77-7.75,2.29-11.34c1.47-3.47,3.57-6.59,6.24-9.26
		c2.68-2.68,5.79-4.78,9.26-6.24c3.59-1.52,7.41-2.29,11.34-2.29c3.93,0,7.75,0.77,11.34,2.29c3.47,1.47,6.59,3.57,9.26,6.24
		c2.68,2.68,4.78,5.79,6.24,9.26c1.52,3.59,2.29,7.41,2.29,11.34V80.58L204.14,80.58z"/>
</g>
</svg>
