<?xml version="1.0" encoding="utf-8"?>
<!-- Generator: Adobe Illustrator 27.8.1, SVG Export Plug-In . SVG Version: 6.00 Build 0)  -->
<svg version="1.1" id="Layer_1" xmlns="http://www.w3.org/2000/svg" xmlns:xlink="http://www.w3.org/1999/xlink" x="0px" y="0px"
	 viewBox="0 0 350 230" style="enable-background:new 0 0 350 230;" xml:space="preserve">
<style type="text/css">
	.st0{fill:#005868;}
	.st1{fill:#FF0087;}
	.st2{fill:#002F44;}
	.st3{fill:#FC9500;}
	.st4{fill:#003144;}
	.st5{fill:#00AAFF;}
	.st6{fill:#00FFE6;}
	.st7{fill:#F46CFF;}
	.st8{fill:#0043FF;}
	.st9{fill:#977D00;}
	.st10{fill-rule:evenodd;clip-rule:evenodd;fill:#5BB200;}
	.st11{fill-rule:evenodd;clip-rule:evenodd;fill:#747C04;}
	.st12{fill:#735500;}
	.st13{fill:#4D0600;}
	.st14{fill-rule:evenodd;clip-rule:evenodd;fill:#FF0074;}
	.st15{fill-rule:evenodd;clip-rule:evenodd;fill:#004972;}
	.st16{fill:#E5BB07;}
	.st17{fill-rule:evenodd;clip-rule:evenodd;fill:#C2C700;}
	.st18{fill-rule:evenodd;clip-rule:evenodd;fill:#FF0062;}
	.st19{fill-rule:evenodd;clip-rule:evenodd;fill:#C44600;}
	.st20{fill:#02D3BE;}
	.st21{fill:#D3B900;}
	.st22{fill:#0055FF;}
	.st23{fill:#D17315;}
	.st24{fill:#9E580B;}
	.st25{fill:url(#SVGID_1_);}
	.st26{fill:#05ADFC;}
	.st27{fill:#F1F9C2;}
	.st28{fill-rule:evenodd;clip-rule:evenodd;fill:#282000;}
</style>
<g>
	<radialGradient id="SVGID_1_" cx="158.6583" cy="97.516" r="15.9994" gradientUnits="userSpaceOnUse">
		<stop  offset="0" style="stop-color:#3FF1FF"/>
		<stop  offset="0.745" style="stop-color:#002900"/>
	</radialGradient>
	<path class="st25" d="M132.46,129.19c0-0.4,0-0.77,0-1.14c0-14.95,0.01-29.89-0.02-44.84c0-0.83,0.23-1.22,1.03-1.47
		c1.54-0.49,3.03-1.13,4.56-1.65c0.62-0.21,0.83-0.53,0.82-1.19c-0.03-5.2,0.01-10.4-0.02-15.6c-0.06-10.05,7.76-18.6,17.85-19.49
		c9.95-0.88,19.11,6.16,20.86,15.99c0.13,0.73-0.02,1.05-0.71,1.29c-1.91,0.66-3.8,1.39-5.8,2.12c-0.1-0.79-0.15-1.5-0.29-2.2
		c-1.21-6.31-6.91-10.82-13.12-10.38c-6.54,0.46-11.68,5.5-11.87,12.09c-0.2,6.94-0.04,13.9-0.04,21.17
		c0.24-0.48,0.37-0.69,0.45-0.92c0.77-2.03,1.5-4.07,2.33-6.07c0.18-0.44,0.63-0.92,1.06-1.08c11.31-4.23,22.64-8.43,33.97-12.61
		c0.4-0.15,0.96-0.15,1.36,0c10.62,3.91,21.23,7.86,31.85,11.78c0.61,0.23,0.84,0.53,0.82,1.19c-0.04,2.4-0.02,4.8-0.02,7.38
		c-11.15-4.17-22.15-8.29-33.34-12.48c0,1.06,0,1.97,0,2.88c0,1.41,0.05,2.83-0.02,4.24c-0.03,0.77,0.26,1.07,0.96,1.29
		c2.33,0.73,4.63,1.56,6.96,2.28c0.74,0.23,0.93,0.59,0.93,1.32c-0.01,1.91-0.31,1.47,1.55,2.02c7.3,2.14,14.6,4.27,21.91,6.36
		c0.8,0.23,1.08,0.55,1.06,1.4c-0.07,2.33-0.02,4.66-0.02,7.09c-11.14-2.59-22.15-5.14-33.31-7.74c0,2.01-0.02,3.9,0.03,5.78
		c0.01,0.19,0.44,0.47,0.72,0.53c2.32,0.5,4.65,0.96,6.98,1.44c0.33,0.07,0.66,0.16,1.08,0.26c0,0.39-0.01,0.76,0,1.14
		c0.04,1.91-0.28,1.53,1.63,1.86c7.32,1.27,14.65,2.52,21.98,3.75c0.66,0.11,0.93,0.32,0.92,1.03c-0.05,2.03-0.02,4.05-0.02,6.26
		c-11.12-1.25-22.14-2.48-33.25-3.73c0,1.52,0,2.98,0,4.55c2.87,0.31,5.73,0.62,8.72,0.94c0,1.4,0,2.76,0,4.2
		c8.23,0.46,16.33,0.91,24.48,1.36c0,2.57,0,5.04,0,7.6C189.21,129.19,160.92,129.19,132.46,129.19z M155.43,101.75
		c-0.99,2.94-1.96,5.85-2.96,8.82c3.97,0,7.77,0,11.72,0c-1.01-3.01-1.99-5.92-2.96-8.8c3.54-2.73,4.58-5.32,3.47-8.48
		c-0.97-2.76-3.56-4.55-6.5-4.51c-2.86,0.04-5.41,1.93-6.3,4.66C150.89,96.55,152.01,99.23,155.43,101.75z"/>
</g>
</svg>
