<?xml version="1.0" encoding="utf-8"?>
<!-- Generator: Adobe Illustrator 27.8.1, SVG Export Plug-In . SVG Version: 6.00 Build 0)  -->
<svg version="1.1" id="Layer_1" xmlns="http://www.w3.org/2000/svg" xmlns:xlink="http://www.w3.org/1999/xlink" x="0px" y="0px"
	 viewBox="0 0 350 230" style="enable-background:new 0 0 350 230;" xml:space="preserve">
<style type="text/css">
	.st0{fill:#005868;}
	.st1{fill:#FF0087;}
	.st2{fill:#002F44;}
	.st3{fill:#FC9500;}
	.st4{fill:#003144;}
	.st5{fill:#00AAFF;}
	.st6{fill:#00FFE6;}
	.st7{fill:#F46CFF;}
	.st8{fill:#0043FF;}
	.st9{fill:#977D00;}
	.st10{fill-rule:evenodd;clip-rule:evenodd;fill:#5BB200;}
	.st11{fill-rule:evenodd;clip-rule:evenodd;fill:#747C04;}
	.st12{fill:#735500;}
	.st13{fill:#4D0600;}
	.st14{fill-rule:evenodd;clip-rule:evenodd;fill:#FF0074;}
	.st15{fill-rule:evenodd;clip-rule:evenodd;fill:#004972;}
	.st16{fill:#E5BB07;}
	.st17{fill-rule:evenodd;clip-rule:evenodd;fill:#C2C700;}
	.st18{fill-rule:evenodd;clip-rule:evenodd;fill:#FF0062;}
	.st19{fill-rule:evenodd;clip-rule:evenodd;fill:#C44600;}
	.st20{fill:#02D3BE;}
	.st21{fill:#D3B900;}
	.st22{fill:#0055FF;}
	.st23{fill:#D17315;}
	.st24{fill:#9E580B;}
	.st25{fill:url(#SVGID_1_);}
	.st26{fill:#05ADFC;}
	.st27{fill:#F1F9C2;}
	.st28{fill-rule:evenodd;clip-rule:evenodd;fill:#282000;}
</style>
<g>
	<g>
		<path class="st26" d="M154.61,74.98V61.04c0-5.61,2.29-10.71,5.99-14.4c3.69-3.69,8.79-5.99,14.4-5.99
			c5.61,0,10.71,2.29,14.4,5.99c3.69,3.69,5.99,8.79,5.99,14.4v6.57h-6.57V64.1h5.35l-5.35-2.97v-0.09c0-3.79-1.56-7.25-4.06-9.75
			c-2.51-2.5-5.96-4.06-9.75-4.06c-3.8,0-7.25,1.56-9.75,4.06c-2.5,2.51-4.06,5.96-4.06,9.75v9.95c4.21-1.93,8.89-3,13.81-3
			c15.14,0,27.91,10.12,31.92,23.97c0.24-0.01,0.48-0.01,0.73-0.01c11.74,0,21.25,9.52,21.25,21.25c0,11.74-9.51,21.25-21.25,21.25
			h-12.7v-33.33h-39.9v33.33h-12.7c-11.74,0-21.25-9.52-21.25-21.25c0-11.74,9.52-21.25,21.25-21.25c0.24,0,0.49,0.01,0.73,0.01
			C145.05,85.14,149.15,79.23,154.61,74.98"/>
		<path class="st27" d="M198.84,130.56h8.81c9.57,0,17.36-7.79,17.36-17.36c0-9.57-7.79-17.36-17.36-17.36c-0.2,0-0.39,0-0.59,0.01
			l-3.04,0.11l-0.85-2.92c-3.61-12.46-15.2-21.16-28.18-21.16c-4.26,0-8.36,0.89-12.19,2.65l-3.47,1.81l-0.83,0.55l-1.5,1.17
			c-4.87,3.79-8.48,9.11-10.19,14.99l-0.84,2.92l-3.04-0.11c-0.19-0.01-0.39-0.01-0.59-0.01c-9.57,0-17.36,7.79-17.36,17.36
			s7.79,17.36,17.36,17.36h8.81v-29.43v-3.89h3.9h39.9h3.9v3.89L198.84,130.56L198.84,130.56z"/>
	</g>
	<path class="st28" d="M158.05,114.46c11.3,0,22.6,0,33.91,0c0-1.19,0-2.38,0-3.57c-11.3,0-22.6,0-33.91,0
		C158.05,112.07,158.05,113.27,158.05,114.46 M158.05,121.12c11.3,0,22.6,0,33.91,0c0-1.19,0-2.38,0-3.57c-11.3,0-22.6,0-33.91,0
		C158.05,118.74,158.05,119.93,158.05,121.12z M158.05,134.45h33.91v-3.57h-33.91V134.45z M158.05,127.79c11.3,0,22.6,0,33.91,0
		c0-1.19,0-2.38,0-3.57c-11.3,0-22.6,0-33.91,0C158.05,125.41,158.05,126.6,158.05,127.79z M158.05,107.79c11.3,0,22.6,0,33.91,0
		c0-1.19,0-2.38,0-3.57c-11.3,0-22.6,0-33.91,0C158.05,105.41,158.05,106.6,158.05,107.79z M175,76.82c2.01,0,3.63,1.63,3.63,3.63
		c0,1.26-0.64,2.36-1.6,3.02l1.88,10.36H175h-3.91l1.88-10.36c-0.97-0.65-1.61-1.76-1.61-3.02C171.37,78.45,172.99,76.82,175,76.82
		 M221.7,86.16h-9.25c-0.42,0-0.76-0.34-0.76-0.76v-9.25c0-0.42,0.34-0.76,0.76-0.76h9.25c0.42,0,0.76,0.34,0.76,0.76v9.25
		C222.46,85.82,222.12,86.16,221.7,86.16z M210.51,72.96h-5.41c-0.24,0-0.44-0.2-0.44-0.44V67.1c0-0.24,0.2-0.44,0.44-0.44h5.41
		c0.24,0,0.44,0.2,0.44,0.44v5.41C210.94,72.76,210.75,72.96,210.51,72.96z M222.03,66.35h-2.72c-0.07,0-0.13-0.06-0.13-0.13V63.5
		c0-0.07,0.06-0.13,0.13-0.13h2.72c0.07,0,0.13,0.06,0.13,0.13v2.72C222.15,66.29,222.1,66.35,222.03,66.35z"/>
</g>
</svg>
