<?xml version="1.0" encoding="utf-8"?>
<!-- Generator: Adobe Illustrator 27.8.1, SVG Export Plug-In . SVG Version: 6.00 Build 0)  -->
<svg version="1.1" id="Layer_1" xmlns="http://www.w3.org/2000/svg" xmlns:xlink="http://www.w3.org/1999/xlink" x="0px" y="0px"
	 viewBox="0 0 350 230" style="enable-background:new 0 0 350 230;" xml:space="preserve">
<style type="text/css">
	.st0{fill:#005868;}
	.st1{fill:#FF0087;}
	.st2{fill:#002F44;}
	.st3{fill:#FC9500;}
	.st4{fill:#003144;}
	.st5{fill:#00AAFF;}
	.st6{fill:#00FFE6;}
	.st7{fill:#F46CFF;}
	.st8{fill:#0043FF;}
	.st9{fill:#977D00;}
	.st10{fill-rule:evenodd;clip-rule:evenodd;fill:#5BB200;}
	.st11{fill-rule:evenodd;clip-rule:evenodd;fill:#747C04;}
	.st12{fill:#735500;}
	.st13{fill:#4D0600;}
	.st14{fill-rule:evenodd;clip-rule:evenodd;fill:#FF0074;}
	.st15{fill-rule:evenodd;clip-rule:evenodd;fill:#004972;}
	.st16{fill:#FFDB43;}
	.st17{fill:#34A853;}
	.st18{fill:#4285F4;}
	.st19{fill-rule:evenodd;clip-rule:evenodd;fill:#C2C700;}
	.st20{fill-rule:evenodd;clip-rule:evenodd;fill:#FF0062;}
	.st21{fill-rule:evenodd;clip-rule:evenodd;fill:#C44600;}
	.st22{fill:#02D3BE;}
	.st23{fill:#D3B900;}
	.st24{fill:#0055FF;}
	.st25{fill:#D17315;}
	.st26{fill:#9E580B;}
	.st27{fill:url(#SVGID_1_);}
	.st28{fill:#05ADFC;}
	.st29{fill:#F1F9C2;}
	.st30{fill-rule:evenodd;clip-rule:evenodd;fill:#282000;}
	.st31{fill:#414042;}
	.st32{fill:#002E96;}
	.st33{fill:#231F20;}
	.st34{fill:#FFE01A;}
	.st35{fill:#1C87AE;}
	.st36{fill-rule:evenodd;clip-rule:evenodd;fill:#231F20;}
	.st37{fill-rule:evenodd;clip-rule:evenodd;fill:#AE6219;}
	.st38{fill-rule:evenodd;clip-rule:evenodd;fill:#ED1B2D;}
	.st39{fill-rule:evenodd;clip-rule:evenodd;fill:#FFFFFF;}
	.st40{fill:#2581D1;}
	.st41{fill:#1581B7;}
	.st42{fill:#282828;}
	.st43{fill-rule:evenodd;clip-rule:evenodd;fill:#011F4B;}
	.st44{fill-rule:evenodd;clip-rule:evenodd;fill:#005B96;}
	.st45{fill-rule:evenodd;clip-rule:evenodd;fill:#00BFFF;}
	.st46{fill-rule:evenodd;clip-rule:evenodd;fill:#D3DEE4;}
	.st47{fill-rule:evenodd;clip-rule:evenodd;fill:#E3EDF1;}
	.st48{fill:#00235A;}
	.st49{fill:#003076;}
	.st50{fill:#AE6219;}
	.st51{fill:#00BDFF;}
	.st52{display:none;fill:url(#SVGID_00000173855483617989479310000005838431467437526913_);}
	.st53{fill:none;}
	.st54{fill:#011F4B;}
	.st55{fill:#FFFFFF;}
	.st56{fill-rule:evenodd;clip-rule:evenodd;fill:#F39C12;}
	.st57{fill-rule:evenodd;clip-rule:evenodd;fill:#1297E0;}
	.st58{fill-rule:evenodd;clip-rule:evenodd;fill:#CC7C09;}
	.st59{fill-rule:evenodd;clip-rule:evenodd;fill:#19B5FE;}
	.st60{fill:#EA3560;}
	.st61{fill:#C7E7FF;}
	.st62{fill:#002D4F;}
	.st63{fill:#3382D1;}
</style>
<path class="st50" d="M208.19,87.79h-75.02c-0.63,0-1.21,0.26-1.64,0.69h-0.02c-0.41,0.41-0.67,0.99-0.67,1.64v42.77
	c0,0.65,0.26,1.22,0.67,1.64h0.02c0.42,0.42,1,0.69,1.64,0.69h75.02c0.63,0,1.21-0.26,1.64-0.69h0.02c0.41-0.41,0.67-0.99,0.67-1.64
	V90.11c0-0.63-0.26-1.21-0.69-1.64C209.4,88.05,208.82,87.79,208.19,87.79 M107.76,74.37c0.05,0.17,0.09,0.35,0.12,0.53
	c0.43,2.55-1.28,4.97-3.83,5.4c-3.63,0.63-7.09,2-10.14,4.01l-0.24,0.15c-2.91,1.96-5.46,4.53-7.45,7.6
	c-2.84,4.39-4.26,9.43-4.26,14.49c0,5.05,1.42,10.1,4.26,14.48c1.66,2.56,3.72,4.78,6.05,6.58c2.39,1.85,5.06,3.28,7.89,4.22
	c0.19,0.06,0.37,0.14,0.55,0.22c2.06,0.99,4.23,1.76,6.45,2.3c2.22,0.54,7.25,0.85,9.54,0.91c0.24,0.01,0.47,0.03,0.69,0.07
	c0.46-0.09,0.93-0.14,1.39-0.14h2.92c-0.15-0.75-0.23-1.53-0.23-2.32V90.11c0-3.21,1.32-6.13,3.44-8.26l-0.01-0.01
	c2.12-2.12,5.05-3.43,8.27-3.43h75.02c3.22,0,6.15,1.31,8.27,3.43c2.12,2.12,3.43,5.04,3.43,8.27v42.77c0,0.79-0.08,1.57-0.23,2.32
	h2.92c1.16,0,2.39,0.32,3.48,0.86c1.05,0.51,2.02,1.26,2.76,2.15c0.98,1.19,1.58,2.63,1.58,4.22c0,0.9-0.2,1.82-0.66,2.74
	l-4.23,8.61v0.02l-0.23,0.48c-1.31,2.77-2.54,5.37-6.94,5.37h-95.34c-4.4,0-5.63-2.6-6.94-5.37c-0.22-0.46-0.06-0.15-0.23-0.5
	l-1.74-3.54h10.41l0.01,0.03h92.31l0.29-0.61l0.01,0l2.5-5.08h-89.01l-13.91,0.03c-0.09,0-0.18,0-0.27,0
	c-2.95-0.08-8.64-0.48-11.48-1.17c-2.76-0.67-5.45-1.62-8.04-2.84c-3.74-1.28-7.25-3.17-10.36-5.58c-3.15-2.44-5.93-5.43-8.17-8.89
	c-3.87-5.97-5.8-12.78-5.8-19.58c0-6.79,1.93-13.61,5.8-19.58c2.68-4.14,6.14-7.61,10.11-10.28l0.26-0.19
	c2.84-1.88,5.93-3.34,9.18-4.35c-0.88-7.11-0.15-14.22,2.03-20.84c2.65-8.04,7.45-15.38,14.1-21.15c6.65-5.76,14.6-9.47,22.94-10.95
	c8.32-1.48,17.06-0.75,25.28,2.36c6.41,2.42,12.09,6.14,16.79,10.81c3.33,3.31,6.16,7.11,8.39,11.27
	c5.23-3.17,11.12-4.82,17.05-4.93c7.87-0.15,15.8,2.42,22.28,7.73c4.66,3.82,8.08,8.65,10.15,13.94c1.39,3.54,2.17,7.29,2.32,11.09
	c5.23-0.32,10.42,0.52,15.21,2.38c6.62,2.57,12.48,7.1,16.67,13.22c4.19,6.13,6.29,13.22,6.29,20.31c0,7.03-2.07,14.07-6.2,20.17
	c-2.27,3.63-5.22,6.75-8.65,9.21c-2.27,1.63-4.75,2.97-7.38,3.98l5.9,2.44c2.39,0.98,3.53,3.71,2.55,6.1
	c-0.98,2.39-3.71,3.53-6.1,2.55l-18.3-7.57c-1.39-0.51-2.52-1.66-2.93-3.21c-0.31-1.19-0.14-2.39,0.4-3.39l9.21-17.89
	c1.18-2.3,4-3.2,6.3-2.01c2.3,1.18,3.2,4,2.01,6.3l-4.46,8.66c2.65-0.74,5.13-1.95,7.34-3.54c2.43-1.75,4.54-3.99,6.17-6.6
	l0.11-0.16c3.09-4.52,4.64-9.78,4.64-15.03c0-5.26-1.55-10.51-4.64-15.03c-3.1-4.53-7.43-7.88-12.31-9.78
	c-4.89-1.9-10.35-2.36-15.7-1.11c-2.52,0.59-5.04-0.98-5.62-3.5c-0.15-0.65-0.16-1.3-0.05-1.91c0.54-4.15,0.02-8.38-1.5-12.27
	c-1.51-3.85-3.98-7.36-7.36-10.13c-4.7-3.86-10.47-5.72-16.2-5.61c-5.71,0.11-11.39,2.2-15.95,6.24c-1.93,1.71-4.88,1.53-6.59-0.4
	c-0.43-0.49-0.74-1.04-0.93-1.61c-1.95-4.98-4.93-9.5-8.71-13.26c-3.77-3.75-8.34-6.74-13.49-8.69c-6.6-2.5-13.64-3.08-20.37-1.89
	c-6.71,1.19-13.1,4.17-18.44,8.79c-5.33,4.62-9.18,10.52-11.32,17.01C106.75,60.65,106.31,67.58,107.76,74.37z"/>
</svg>
