<?xml version="1.0" encoding="utf-8"?>
<!-- Generator: Adobe Illustrator 27.8.1, SVG Export Plug-In . SVG Version: 6.00 Build 0)  -->
<svg version="1.1" id="Layer_1" xmlns="http://www.w3.org/2000/svg" xmlns:xlink="http://www.w3.org/1999/xlink" x="0px" y="0px"
	 viewBox="0 0 350 230" style="enable-background:new 0 0 350 230;" xml:space="preserve">
<style type="text/css">
	.st0{fill:#005868;}
	.st1{fill:#FF0087;}
	.st2{fill:#002F44;}
	.st3{fill:#FC9500;}
	.st4{fill:#003144;}
	.st5{fill:#00AAFF;}
	.st6{fill:#00FFE6;}
	.st7{fill:#F46CFF;}
	.st8{fill:#0043FF;}
	.st9{fill:#977D00;}
	.st10{fill-rule:evenodd;clip-rule:evenodd;fill:#5BB200;}
	.st11{fill-rule:evenodd;clip-rule:evenodd;fill:#747C04;}
	.st12{fill:#735500;}
	.st13{fill:#4D0600;}
	.st14{fill-rule:evenodd;clip-rule:evenodd;fill:#FF0074;}
	.st15{fill-rule:evenodd;clip-rule:evenodd;fill:#004972;}
	.st16{fill:#FFDB43;}
	.st17{fill:#34A853;}
	.st18{fill:#4285F4;}
	.st19{fill-rule:evenodd;clip-rule:evenodd;fill:#C2C700;}
	.st20{fill-rule:evenodd;clip-rule:evenodd;fill:#FF0062;}
	.st21{fill-rule:evenodd;clip-rule:evenodd;fill:#C44600;}
	.st22{fill:#02D3BE;}
	.st23{fill:#D3B900;}
	.st24{fill:#0055FF;}
	.st25{fill:#D17315;}
	.st26{fill:#9E580B;}
	.st27{fill:url(#SVGID_1_);}
	.st28{fill:#05ADFC;}
	.st29{fill:#F1F9C2;}
	.st30{fill-rule:evenodd;clip-rule:evenodd;fill:#282000;}
	.st31{fill:#414042;}
	.st32{fill:#002E96;}
	.st33{fill:#231F20;}
	.st34{fill:#FFE01A;}
	.st35{fill:#1C87AE;}
	.st36{fill-rule:evenodd;clip-rule:evenodd;fill:#231F20;}
	.st37{fill-rule:evenodd;clip-rule:evenodd;fill:#AE6219;}
	.st38{fill-rule:evenodd;clip-rule:evenodd;fill:#ED1B2D;}
	.st39{fill-rule:evenodd;clip-rule:evenodd;fill:#FFFFFF;}
	.st40{fill:#2581D1;}
	.st41{fill:#1581B7;}
	.st42{fill:#282828;}
	.st43{fill-rule:evenodd;clip-rule:evenodd;fill:#011F4B;}
	.st44{fill-rule:evenodd;clip-rule:evenodd;fill:#005B96;}
	.st45{fill-rule:evenodd;clip-rule:evenodd;fill:#00BFFF;}
	.st46{fill-rule:evenodd;clip-rule:evenodd;fill:#D3DEE4;}
	.st47{fill-rule:evenodd;clip-rule:evenodd;fill:#E3EDF1;}
	.st48{fill:#00235A;}
	.st49{fill:#003076;}
	.st50{fill:#AE6219;}
	.st51{fill:#00BDFF;}
	.st52{display:none;fill:url(#SVGID_00000036938723383453921170000008468958222914583228_);}
	.st53{fill:none;}
	.st54{fill:#011F4B;}
	.st55{fill:#FFFFFF;}
	.st56{fill-rule:evenodd;clip-rule:evenodd;fill:#F39C12;}
	.st57{fill-rule:evenodd;clip-rule:evenodd;fill:#1297E0;}
	.st58{fill-rule:evenodd;clip-rule:evenodd;fill:#CC7C09;}
	.st59{fill-rule:evenodd;clip-rule:evenodd;fill:#19B5FE;}
	.st60{fill:#EA3560;}
	.st61{fill:#C7E7FF;}
	.st62{fill:#002D4F;}
	.st63{fill:#3382D1;}
</style>
<g>
	<path class="st33" d="M146.76,24.23v122.69l118.06-32.8v-57.1L146.76,24.23z M177.32,128.87l-6.3,1.76V50.6l-6.38-1.76l-1.51-0.42
		l-4.79-1.34v-6.55l18.89,5.21v13.44l0.08,63.24L177.32,128.87L177.32,128.87z M202.6,59.42v55.93v6.55l-6.3,1.68v-6.47V57.65
		l-6.38-1.76l-6.3-1.76v-6.63l6.3,1.76l6.38,1.76l6.3,1.76V59.42z M227.88,66.39v41.9v6.55l-6.3,1.76v-6.55V64.62l-6.3-1.76
		l-6.3-1.68v-6.63l6.3,1.76l6.3,1.76l6.3,1.76V66.39z M253.24,73.44v27.8v6.55l-6.3,1.76V103V71.68l-6.38-1.76l-6.3-1.76V61.6
		l6.3,1.76l6.38,1.76l6.3,1.76L253.24,73.44L253.24,73.44z"/>
	<path class="st34" d="M85.18,39.31v92.52l57.17,13.64V25.67L85.18,39.31z M132.97,40.5h-12.4l12.4-2.96V40.5z M94.56,124.44v-3.59
		h38.42v7.95h-20.19L94.56,124.44z M94.56,118.97v-7.94h38.42v7.94H94.56z M94.56,109.17v-7.95h38.42v7.95H94.56z M94.56,99.35
		v-7.94h38.42v7.94H94.56z M94.56,89.55V81.6h38.42v7.95H94.56z M94.56,79.73V71.8h38.42v7.94H94.56z M94.56,69.93v-7.95h38.42v7.95
		H94.56z M94.56,60.11v-7.94h38.42v7.94H94.56z M94.56,50.31v-3.6l18.2-4.35h20.22v7.95L94.56,50.31L94.56,50.31z M120.6,130.66
		h12.37v2.95L120.6,130.66z"/>
</g>
</svg>
