<?xml version="1.0" encoding="utf-8"?>
<!-- Generator: Adobe Illustrator 27.8.1, SVG Export Plug-In . SVG Version: 6.00 Build 0)  -->
<svg version="1.1" id="Layer_1" xmlns="http://www.w3.org/2000/svg" xmlns:xlink="http://www.w3.org/1999/xlink" x="0px" y="0px"
	 viewBox="0 0 350 230" style="enable-background:new 0 0 350 230;" xml:space="preserve">
<style type="text/css">
	.st0{fill:#005868;}
	.st1{fill:#FF0087;}
	.st2{fill:#002F44;}
	.st3{fill:#FC9500;}
	.st4{fill:#003144;}
	.st5{fill:#00AAFF;}
	.st6{fill:#00FFE6;}
	.st7{fill:#F46CFF;}
	.st8{fill:#0043FF;}
	.st9{fill:#977D00;}
	.st10{fill-rule:evenodd;clip-rule:evenodd;fill:#5BB200;}
	.st11{fill-rule:evenodd;clip-rule:evenodd;fill:#747C04;}
	.st12{fill:#735500;}
	.st13{fill:#4D0600;}
	.st14{fill-rule:evenodd;clip-rule:evenodd;fill:#FF0074;}
	.st15{fill-rule:evenodd;clip-rule:evenodd;fill:#004972;}
	.st16{fill:#FFDB43;}
	.st17{fill:#34A853;}
	.st18{fill:#4285F4;}
	.st19{fill-rule:evenodd;clip-rule:evenodd;fill:#C2C700;}
	.st20{fill-rule:evenodd;clip-rule:evenodd;fill:#FF0062;}
	.st21{fill-rule:evenodd;clip-rule:evenodd;fill:#C44600;}
	.st22{fill:#02D3BE;}
	.st23{fill:#D3B900;}
	.st24{fill:#0055FF;}
	.st25{fill:#D17315;}
	.st26{fill:#9E580B;}
	.st27{fill:url(#SVGID_1_);}
	.st28{fill:#05ADFC;}
	.st29{fill:#F1F9C2;}
	.st30{fill-rule:evenodd;clip-rule:evenodd;fill:#282000;}
	.st31{fill:#414042;}
	.st32{fill:#002E96;}
	.st33{fill:#231F20;}
	.st34{fill:#FFE01A;}
	.st35{fill:#1C87AE;}
	.st36{fill-rule:evenodd;clip-rule:evenodd;fill:#231F20;}
	.st37{fill-rule:evenodd;clip-rule:evenodd;fill:#AE6219;}
	.st38{fill-rule:evenodd;clip-rule:evenodd;fill:#ED1B2D;}
	.st39{fill-rule:evenodd;clip-rule:evenodd;fill:#FFFFFF;}
	.st40{fill:#2581D1;}
	.st41{fill:#1581B7;}
	.st42{fill:#282828;}
	.st43{fill-rule:evenodd;clip-rule:evenodd;fill:#011F4B;}
	.st44{fill-rule:evenodd;clip-rule:evenodd;fill:#005B96;}
	.st45{fill-rule:evenodd;clip-rule:evenodd;fill:#00BFFF;}
	.st46{fill-rule:evenodd;clip-rule:evenodd;fill:#D3DEE4;}
	.st47{fill-rule:evenodd;clip-rule:evenodd;fill:#E3EDF1;}
	.st48{fill:#00235A;}
	.st49{fill:#003076;}
	.st50{fill:#AE6219;}
	.st51{fill:#00BDFF;}
	.st52{display:none;fill:url(#SVGID_00000048465366349966682610000012978696034552457882_);}
	.st53{fill:none;}
	.st54{fill:#011F4B;}
	.st55{fill:#FFFFFF;}
	.st56{fill-rule:evenodd;clip-rule:evenodd;fill:#F39C12;}
	.st57{fill-rule:evenodd;clip-rule:evenodd;fill:#1297E0;}
	.st58{fill-rule:evenodd;clip-rule:evenodd;fill:#CC7C09;}
	.st59{fill-rule:evenodd;clip-rule:evenodd;fill:#19B5FE;}
	.st60{fill:#EA3560;}
	.st61{fill:#C7E7FF;}
	.st62{fill:#002D4F;}
	.st63{fill:#3382D1;}
</style>
<g>
	<path class="st5" d="M256.15,68.56c-8.42-8.6-20.07-14.01-32.99-14.28v-0.02c0-13.16-5.33-25.07-13.95-33.69
		c-8.63-8.62-20.54-13.95-33.69-13.95c-13.16,0-25.07,5.33-33.69,13.95c-8.62,8.62-13.95,20.53-13.95,33.69
		c-13.16,0-25.07,5.33-33.69,13.95c-8.62,8.62-13.95,20.53-13.95,33.69c0,13.16,5.33,25.07,13.95,33.69
		c1.01,1.01,2.07,1.98,3.17,2.9c1.37,1.15,2.81,2.22,4.31,3.2c1.57,1.04,3.21,1.99,4.91,2.83L175,184.04l68.43-39.51
		c1.7-0.84,3.33-1.8,4.9-2.83c1.5-0.98,2.94-2.06,4.31-3.2c10.47-8.74,17.13-21.88,17.13-36.59
		C269.76,88.92,264.57,77.15,256.15,68.56z M211.75,75.16l4.66,2.69l-16.64,9.61l-4.66-2.7L211.75,75.16z M158.91,105.66l4.66,2.69
		l-16.63,9.6l-4.67-2.69L158.91,105.66z M138.25,112.94l-4.66-2.7l16.64-9.6l4.66,2.7L138.25,112.94z M160.27,94.05L175,85.54
		l14.74,8.51L175,102.56L160.27,94.05z M167.61,110.69l7.4,4.27l7.4-4.27l16.63,9.6L175,134.16l-24.03-13.87L167.61,110.69z
		 M186.42,108.35l4.66-2.69l16.64,9.6l-4.66,2.69L186.42,108.35z M195.12,103.34l4.66-2.7l16.64,9.61l-4.66,2.69L195.12,103.34z
		 M207.72,72.83l-16.64,9.6l-4.66-2.69l16.64-9.61L207.72,72.83z M175,53.94l24.03,13.87l-16.64,9.6l-7.4-4.27l-7.4,4.27l-16.64-9.6
		L175,53.94z M146.94,70.14l16.64,9.61l-4.66,2.69l-16.64-9.6L146.94,70.14z M138.25,75.16l16.63,9.6l-4.66,2.7l-16.64-9.61
		L138.25,75.16z M129.56,80.18l16.64,9.6l-7.4,4.27l7.4,4.27l-16.64,9.6l-24.03-13.88L129.56,80.18z M244.48,134.99l-25.21,14.56
		L175,175.1l-44.27-25.56l-25.2-14.55v-8v0v0l39.07,22.55l30.29,17.48l0.11,0.07l30.4-17.55l39.07-22.56V134.99z M244.48,114.51
		l-60.67,35.03l-8.81,5.09l-8.81-5.09l-60.66-35.02v-8v0v0l69.36,40.03l0.11,0.07l69.48-40.11V114.51z M220.45,107.92l-16.64-9.6
		l7.4-4.27l-7.4-4.27l16.64-9.6l24.03,13.86L220.45,107.92z"/>
</g>
</svg>
