<?xml version="1.0" encoding="utf-8"?>
<!-- Generator: Adobe Illustrator 27.8.1, SVG Export Plug-In . SVG Version: 6.00 Build 0)  -->
<svg version="1.1" id="Layer_1" xmlns="http://www.w3.org/2000/svg" xmlns:xlink="http://www.w3.org/1999/xlink" x="0px" y="0px"
	 viewBox="0 0 350 230" style="enable-background:new 0 0 350 230;" xml:space="preserve">
<style type="text/css">
	.st0{fill:#005868;}
	.st1{fill:#FF0087;}
	.st2{fill:#002F44;}
	.st3{fill:#FC9500;}
	.st4{fill:#003144;}
	.st5{fill:#00AAFF;}
	.st6{fill:#00FFE6;}
	.st7{fill:#F46CFF;}
	.st8{fill:#0043FF;}
	.st9{fill:#977D00;}
	.st10{fill-rule:evenodd;clip-rule:evenodd;fill:#5BB200;}
	.st11{fill-rule:evenodd;clip-rule:evenodd;fill:#747C04;}
	.st12{fill:#735500;}
	.st13{fill:#4D0600;}
	.st14{fill-rule:evenodd;clip-rule:evenodd;fill:#FF0074;}
	.st15{fill-rule:evenodd;clip-rule:evenodd;fill:#004972;}
	.st16{fill:#E5BB07;}
	.st17{fill-rule:evenodd;clip-rule:evenodd;fill:#C2C700;}
	.st18{fill-rule:evenodd;clip-rule:evenodd;fill:#FF0062;}
	.st19{fill-rule:evenodd;clip-rule:evenodd;fill:#C44600;}
	.st20{fill:#02D3BE;}
	.st21{fill:#D3B900;}
	.st22{fill:#0055FF;}
	.st23{fill:#D17315;}
	.st24{fill:#9E580B;}
	.st25{fill:url(#SVGID_1_);}
	.st26{fill:#05ADFC;}
	.st27{fill:#F1F9C2;}
	.st28{fill-rule:evenodd;clip-rule:evenodd;fill:#282000;}
</style>
<g>
	<path class="st2" d="M177.47,148.42c9.07-0.87,18.14-1.74,27.28-2.62c0-16.12,0-32.15,0-48.34c-20.04,0-40.03,0-60.02,0
		c-0.01-0.09-0.03-0.18-0.04-0.26c0.92-0.33,1.83-0.66,2.75-0.98c20.72-7.13,41.43-14.27,62.16-21.37c0.65-0.22,1.44-0.25,2.13-0.15
		c13.14,2.02,26.27,4.06,39.4,6.11c11.87,1.85,23.75,3.72,35.62,5.55c0.75,0.12,0.94,0.42,0.93,1.12c-0.04,2.28,0.01,4.56-0.03,6.84
		c-0.01,0.74,0.23,1,0.97,1.09c2.11,0.23,4.21,0.6,6.32,0.8c1.02,0.1,1.22,0.51,1.21,1.46c-0.03,15.85-0.02,31.71-0.02,47.56
		c0,2,0,4,0,6.14c-0.52,0-0.93,0-1.35,0c-29.73,0-59.47,0.05-89.2-0.06c-4.66-0.02-9.32-0.78-13.97-1.23
		c-4.54-0.43-9.08-0.9-13.61-1.36c-0.18-0.02-0.35-0.07-0.53-0.11C177.47,148.57,177.47,148.5,177.47,148.42z M210.6,90.62
		c0,18.48,0,36.78,0,55.15c12.46,0,24.81,0,37.22,0c0.02-0.3,0.06-0.53,0.06-0.75c0-16.16,0-32.32,0.02-48.48
		c0-0.79-0.24-1.04-1.02-1.14c-7.86-1.01-15.71-2.07-23.56-3.11C219.11,91.73,214.9,91.18,210.6,90.62z M290.83,101.22
		c-12.6-1.67-25.1-3.32-37.63-4.97c0,16.64,0,33.08,0,49.6c12.6,0,25.1,0,37.63,0C290.83,130.96,290.83,116.16,290.83,101.22z"/>
	<path class="st3" d="M243.9,139.26c0,1.02,0,1.83,0,2.84c-9.84-0.24-19.62-0.48-29.47-0.73c0-0.96,0-1.79,0-2.84
		C224.25,138.78,234.02,139.02,243.9,139.26z M214.33,97.03c-0.18,1.17,0.27,1.58,1.47,1.7c7.65,0.76,15.29,1.62,22.93,2.43
		c1.68,0.18,3.35,0.33,5.08,0.51c0.06-0.36,0.12-0.58,0.12-0.81c0.01-2.47,0.18-1.98-1.86-2.2c-6.14-0.66-12.29-1.33-18.43-1.99
		c-3.03-0.32-6.06-0.62-9.3-0.96C214.34,96.28,214.39,96.67,214.33,97.03z M216.58,113.01c8.51,0.67,17.01,1.35,25.52,2.02
		c0.56,0.04,1.13,0.01,1.76,0.01c0-0.91,0-1.77,0-2.72c-9.84-0.78-19.6-1.55-29.34-2.32C213.96,112.68,214.08,112.82,216.58,113.01z
		 M214.33,118.53c-0.18,1.15,0.27,1.48,1.44,1.55c8.8,0.53,17.59,1.14,26.38,1.72c0.56,0.04,1.12,0,1.73,0c0-0.94,0-1.77,0-2.74
		c-9.83-0.65-19.6-1.29-29.54-1.95C214.34,117.71,214.39,118.13,214.33,118.53z M214.33,104.5c-0.12,0.95,0.27,1.32,1.21,1.33
		c1,0.01,2,0.15,3,0.24c7.23,0.67,14.45,1.35,21.68,2.02c1.2,0.11,2.41,0.18,3.6,0.26c0.34-2.57,0.17-2.75-2.18-2.97
		c-6.11-0.56-12.22-1.15-18.33-1.72c-2.92-0.27-5.83-0.54-8.98-0.82C214.34,103.51,214.39,104.01,214.33,104.5z M214.33,126.17
		c-0.07,0.79,0.3,0.97,1.02,1.01c9.07,0.45,18.14,0.92,27.21,1.39c0.44,0.02,0.88,0,1.31,0c0-1.01,0-1.84,0-2.77
		c-9.83-0.51-19.58-1.02-29.52-1.54C214.34,125.02,214.38,125.6,214.33,126.17z M242.61,132.48c-6.61-0.26-13.21-0.51-19.82-0.77
		c-2.35-0.09-4.71-0.19-7.07-0.24c-0.41-0.01-1.03,0.08-1.21,0.35c-0.69,1.05,0.05,2.41,1.27,2.46c8.92,0.34,17.85,0.69,26.77,1.02
		c0.41,0.02,0.83,0,1.31,0c0-0.95,0-1.78,0-2.74C243.38,132.54,242.99,132.5,242.61,132.48z M286.64,106.61
		c0.04-0.68-0.21-0.92-0.91-1c-7.76-0.81-15.51-1.65-23.26-2.48c-1.75-0.19-3.5-0.35-5.31-0.53c0,1.02,0,1.88,0,2.83
		c9.82,1.05,19.56,2.08,29.47,3.14C286.63,107.82,286.6,107.21,286.64,106.61z M257.79,112.62c9.24,0.86,18.47,1.72,27.71,2.57
		c0.61,0.06,1.28,0.11,1.11-0.8c-0.14-0.75,0.66-1.91-1.01-2.05c-7.32-0.63-14.63-1.35-21.94-2.03c-2.14-0.2-4.29-0.38-6.53-0.58
		c0,0.99,0,1.83,0,2.77C257.41,112.55,257.6,112.6,257.79,112.62z M257.73,141.12c9.22,0.36,18.44,0.72,27.67,1.07
		c0.6,0.02,1.23,0.23,1.25-0.81c0.04-1.91,0.06-1.99-1.16-2.03c-9.18-0.35-18.37-0.69-27.55-1.03c-0.25-0.01-0.51,0.06-0.81,0.1
		c0,0.9,0,1.73,0,2.64C257.43,141.08,257.58,141.11,257.73,141.12z M257.05,118.48c-0.1,0.93,0.24,1.28,1.21,1.32
		c1.93,0.07,3.85,0.29,5.78,0.44c5.47,0.43,10.94,0.86,16.4,1.28c2.02,0.16,4.04,0.32,6.19,0.5c0-0.65-0.05-1.11,0.01-1.56
		c0.13-0.98-0.23-1.44-1.26-1.39c-0.69,0.03-1.39-0.02-2.08-0.07c-8.28-0.68-16.56-1.36-24.84-2.04c-0.41-0.03-0.83-0.04-1.4-0.07
		C257.06,117.5,257.1,118,257.05,118.48z M257.06,124.9c-0.06,1.96-0.05,1.94,1.87,2.05c4.05,0.23,8.1,0.46,12.15,0.73
		c4.93,0.33,9.86,0.69,14.79,1.04c0.21,0.01,0.44-0.05,0.75-0.09c0-0.63-0.04-1.2,0.01-1.77c0.06-0.76-0.26-0.97-1-1.02
		c-8.09-0.51-16.19-1.06-24.28-1.59c-1.38-0.09-2.76-0.15-4.19-0.23C257.12,124.38,257.07,124.64,257.06,124.9z M286.62,134.36
		c0.04-1.75,0.03-1.72-1.74-1.81c-6.82-0.34-13.65-0.7-20.47-1.05c-2.42-0.12-4.84-0.24-7.26-0.36c0,1.01,0,1.87,0,2.8
		c9.83,0.52,19.56,1.04,29.37,1.57C286.57,135.04,286.62,134.7,286.62,134.36z"/>
</g>
</svg>
