<?xml version="1.0" encoding="utf-8"?>
<!-- Generator: Adobe Illustrator 27.8.1, SVG Export Plug-In . SVG Version: 6.00 Build 0)  -->
<svg version="1.1" id="Layer_1" xmlns="http://www.w3.org/2000/svg" xmlns:xlink="http://www.w3.org/1999/xlink" x="0px" y="0px"
	 viewBox="0 0 350 230" style="enable-background:new 0 0 350 230;" xml:space="preserve">
<style type="text/css">
	.st0{fill:#005868;}
	.st1{fill:#FF0087;}
	.st2{fill:#002F44;}
	.st3{fill:#FC9500;}
	.st4{fill:#003144;}
	.st5{fill:#00AAFF;}
	.st6{fill:#00FFE6;}
	.st7{fill:#F46CFF;}
	.st8{fill:#0043FF;}
	.st9{fill:#977D00;}
	.st10{fill-rule:evenodd;clip-rule:evenodd;fill:#5BB200;}
	.st11{fill-rule:evenodd;clip-rule:evenodd;fill:#747C04;}
	.st12{fill:#735500;}
	.st13{fill:#4D0600;}
	.st14{fill-rule:evenodd;clip-rule:evenodd;fill:#FF0074;}
	.st15{fill-rule:evenodd;clip-rule:evenodd;fill:#004972;}
	.st16{fill:#FFDB43;}
	.st17{fill:#34A853;}
	.st18{fill:#4285F4;}
	.st19{fill-rule:evenodd;clip-rule:evenodd;fill:#C2C700;}
	.st20{fill-rule:evenodd;clip-rule:evenodd;fill:#FF0062;}
	.st21{fill-rule:evenodd;clip-rule:evenodd;fill:#C44600;}
	.st22{fill:#02D3BE;}
	.st23{fill:#D3B900;}
	.st24{fill:#0055FF;}
	.st25{fill:#D17315;}
	.st26{fill:#9E580B;}
	.st27{fill:url(#SVGID_1_);}
	.st28{fill:#05ADFC;}
	.st29{fill:#F1F9C2;}
	.st30{fill-rule:evenodd;clip-rule:evenodd;fill:#282000;}
	.st31{fill:#414042;}
	.st32{fill:#002E96;}
	.st33{fill:#231F20;}
	.st34{fill:#FFE01A;}
	.st35{fill:#1C87AE;}
	.st36{fill-rule:evenodd;clip-rule:evenodd;fill:#231F20;}
	.st37{fill-rule:evenodd;clip-rule:evenodd;fill:#AE6219;}
	.st38{fill-rule:evenodd;clip-rule:evenodd;fill:#ED1B2D;}
	.st39{fill-rule:evenodd;clip-rule:evenodd;fill:#FFFFFF;}
	.st40{fill:#2581D1;}
	.st41{fill:#1581B7;}
	.st42{fill:#282828;}
	.st43{fill-rule:evenodd;clip-rule:evenodd;fill:#011F4B;}
	.st44{fill-rule:evenodd;clip-rule:evenodd;fill:#005B96;}
	.st45{fill-rule:evenodd;clip-rule:evenodd;fill:#00BFFF;}
	.st46{fill-rule:evenodd;clip-rule:evenodd;fill:#D3DEE4;}
	.st47{fill-rule:evenodd;clip-rule:evenodd;fill:#E3EDF1;}
	.st48{fill:#00235A;}
	.st49{fill:#003076;}
	.st50{fill:#AE6219;}
	.st51{fill:#00BDFF;}
	.st52{display:none;fill:url(#SVGID_00000067918238542281666070000009553048154446879670_);}
	.st53{fill:none;}
	.st54{fill:#011F4B;}
	.st55{fill:#FFFFFF;}
	.st56{fill-rule:evenodd;clip-rule:evenodd;fill:#F39C12;}
	.st57{fill-rule:evenodd;clip-rule:evenodd;fill:#1297E0;}
	.st58{fill-rule:evenodd;clip-rule:evenodd;fill:#CC7C09;}
	.st59{fill-rule:evenodd;clip-rule:evenodd;fill:#19B5FE;}
	.st60{fill:#EA3560;}
	.st61{fill:#C7E7FF;}
	.st62{fill:#002D4F;}
	.st63{fill:#3382D1;}
</style>
<g>
	<path d="M260.87,61.03c-7.32,0-12.44,7.3-9.96,14.17l-23.85,18.73c-2.51-1.67-5.64-2.21-8.63-1.39L203.2,69.62
		c1.41-1.8,2.26-4.06,2.26-6.52c0-5.84-4.75-10.58-10.58-10.58c-5.84,0-10.58,4.75-10.58,10.58c0,3.28,1.5,6.22,3.86,8.17
		l-13.24,34.22c-1.84-0.09-3.59,0.29-5.15,1.06l-4.61-4.73c3.65-7.01-1.46-15.46-9.39-15.46c-7.28,0-12.42,7.23-9.98,14.11
		l-13.93,10.79c-1.69-1.14-3.72-1.8-5.9-1.8c-5.84,0-10.58,4.75-10.58,10.58c0,5.84,4.75,10.58,10.58,10.58
		c7.28,0,12.42-7.23,9.98-14.11l13.93-10.8c3.2,2.16,7.22,2.35,10.53,0.73l4.61,4.73c-3.66,7.03,1.48,15.46,9.39,15.46
		c5.84,0,10.58-4.75,10.58-10.58c0-3.28-1.5-6.22-3.86-8.17l13.24-34.22c1.12,0.06,2.23-0.07,3.31-0.36l15.23,22.92
		c-1.41,1.8-2.26,4.06-2.26,6.52c0,5.84,4.75,10.58,10.58,10.58c7.32,0,12.44-7.3,9.96-14.17l23.85-18.73
		c1.68,1.11,3.69,1.77,5.84,1.77c5.84,0,10.58-4.75,10.58-10.58C271.45,65.78,266.7,61.03,260.87,61.03z M125.95,123.98
		c-2.17,0-3.93-1.76-3.93-3.93c0-2.18,1.77-3.93,3.93-3.93c2.71,0,4.64,2.7,3.69,5.28C129.08,122.9,127.64,123.98,125.95,123.98z
		 M155.75,93.01c1.89,0,3.47,1.34,3.84,3.11c0.53,2.47-1.37,4.75-3.84,4.75c-2.68,0-4.64-2.68-3.69-5.28
		C152.62,94.09,154.06,93.01,155.75,93.01z M174.38,119.99c-2.18,0-3.93-1.78-3.93-3.93c0-2.5,2.35-4.42,4.86-3.82
		c1.48,0.36,2.64,1.56,2.93,3.07C178.71,117.75,176.83,119.99,174.38,119.99z M193.26,66.68c-1.4-0.63-2.32-2.03-2.32-3.58
		c0-2.17,1.76-3.93,3.93-3.93c2.19,0,3.93,1.8,3.93,3.93C198.8,65.91,195.88,67.87,193.26,66.68z M221.22,106.68
		c-2.19,0-3.93-1.79-3.93-3.93c0-2.86,2.97-4.75,5.55-3.58c1.83,0.83,2.79,2.94,2.08,4.91
		C224.37,105.59,222.92,106.68,221.22,106.68z M260.87,75.54c-2.17,0-3.93-1.76-3.93-3.93c0-2.11,1.72-3.93,3.93-3.93
		c2.17,0,3.93,1.76,3.93,3.93C264.8,73.78,263.03,75.54,260.87,75.54z"/>
	<path class="st31" d="M126.96,128.27c-5.32,0-9.65-4.33-9.65-9.65c0-7.72,8.66-12.3,15.03-8.01l0.46,0.31l14.6-11.32l-0.19-0.53
		c-2.22-6.27,2.44-12.87,9.1-12.87c7.23,0,11.89,7.7,8.57,14.09l-0.26,0.5l5.32,5.45c2.34-1.15,3.55-1.29,5.76-1.18l13.44-34.74
		l-0.43-0.35c-2.24-1.85-3.52-4.56-3.52-7.45c0-5.32,4.33-9.65,9.65-9.65c8.03,0,12.55,9.29,7.59,15.6l-0.34,0.44l15.62,23.51
		c0.77-0.21,1.69-0.49,3.09-0.49c1.9,0,3.74,0.56,5.33,1.61l0.47,0.31l24.37-19.14l-0.19-0.52c-2.27-6.28,2.39-12.93,9.08-12.93
		c5.32,0,9.65,4.33,9.65,9.65c0,7.69-8.6,12.28-14.98,8.04l-0.47-0.31l-24.37,19.14l0.19,0.53c2.27,6.28-2.39,12.93-9.08,12.93
		c-8.04,0-12.55-9.3-7.59-15.6l0.35-0.44l-15.62-23.51c-2.05,0.56-2.69,0.52-4.12,0.45l-13.44,34.74l0.43,0.35
		c2.24,1.84,3.52,4.56,3.52,7.45c0,5.32-4.33,9.65-9.65,9.65c-7.22,0-11.9-7.69-8.57-14.09l0.26-0.5l-5.32-5.45
		c-0.77,0.38-2.35,1.22-4.73,1.22c-1.92,0-3.78-0.57-5.38-1.64l-0.46-0.31l-14.6,11.32l0.19,0.53c1.06,2.98,0.61,6.18-1.22,8.78
		C133.01,126.78,130.13,128.27,126.96,128.27z M126.96,113.97c-2.56,0-4.64,2.08-4.64,4.65c0,2.56,2.08,4.64,4.64,4.64
		c3.71,0,5.97-4.2,3.81-7.3C129.9,114.72,128.48,113.97,126.96,113.97z M170.02,114.69c0,4.34,5.47,6.3,8.23,2.95
		c2.18-2.65,0.82-6.66-2.49-7.46C172.82,109.46,170.02,111.7,170.02,114.69z M216.15,101.58c0,2.56,2.08,4.64,4.65,4.64
		c1.95,0,3.7-1.24,4.37-3.08c0.83-2.3-0.23-4.79-2.46-5.8C219.62,95.96,216.15,98.23,216.15,101.58z M156.32,91.22
		c-3.73,0-5.96,4.22-3.81,7.29c1.77,2.53,5.47,2.69,7.42,0.27C162.39,95.74,160.19,91.22,156.32,91.22z M259.85,66.27
		c-2.56,0-4.64,2.08-4.64,4.65c0,2.56,2.08,4.65,4.64,4.65c2.56,0,4.64-2.08,4.64-4.65C264.5,68.35,262.41,66.27,259.85,66.27z
		 M194.85,57.88c-2.56,0-4.65,2.08-4.65,4.64c0,2.6,2.14,4.65,4.65,4.65c2.56,0,4.65-2.09,4.65-4.65
		C199.49,59.97,197.41,57.88,194.85,57.88z"/>
	<path class="st32" d="M186.52,38.78c17.1,0,29.33,16.79,23.96,33.09c2.96-2.79,6.95-3.97,10.84-3.37
		c7.74,1.21,12.73,9.11,10.29,16.69l10.13-7.95c-1.79-10.04-10.19-17.84-20.55-18.68c-2.62-16.77-17.17-29.65-34.67-29.65
		c-12.85,0-24.1,6.94-30.22,17.27c3.35,0.65,6.58,1.73,9.65,3.24C170.53,42.99,178.04,38.78,186.52,38.78z M249.21,86.59l-8.06,6.33
		c9.02,5.71,11.33,17.66,5.32,26.26c-3.12,0-41.57,0-43.38,0c-2.31-3.9-8.78-14.84-15.05-25.44l-4.53,11.72
		c6.89,11.65,13.29,22.46,13.96,23.59c2.39,0,50.93,0,53.5,0C263.23,117.23,262.45,97.41,249.21,86.59z M110.56,114.71
		c-5.66-10.07,1.64-22.64,13.27-22.64c3.74,0,7.16,1.36,9.81,3.6c-2.64-3.53-4.07-7.97-3.74-12.72c0.69-9.89,8.95-17.73,19.01-17.73
		c7.06,0,13.44,3.91,16.74,9.95l-0.05,0.03c0.56,0.94,4.87,8.22,10.14,17.15l4.53-11.72c-2.45-4.14-4.43-7.5-5.51-9.32
		c-4.31-8.56-12.65-14.56-22.3-15.75c-16.61-2.04-31.41,10.39-32.43,26.92c-11.6,1.77-20.62,11.51-21.25,23.44
		c-15.94,5.04-24.22,22.49-18.34,37.89c8.74,0,150.44,0,158.21,0l9.12-9.87c-2.73,0-154.88,0-159.35,0
		C88.16,122.02,98.81,112.79,110.56,114.71z"/>
	<path class="st8" d="M233.88,84.2c1.18-8.18-5.17-15.64-13.55-15.64c-2.67,0-5.24,0.77-7.44,2.21
		c3.65-15.81-8.31-31.77-25.36-31.77c-8.17,0-15.9,3.89-20.81,10.44c-2.61-1.23-5.35-2.17-8.15-2.79
		c6.28-9.87,17.27-15.95,28.97-15.95c15.98,0,31.15,11.48,33.99,29.59l0.62,0.05c9.78,0.8,17.83,7.99,19.76,17.58L233.88,84.2z
		 M198.91,129.27c-0.85-1.44-13.53-22.88-13.53-22.88l3.81-9.86l14.45,24.43h44.23c6.77-9.7,3.69-21.32-4.4-27.09l6.72-5.27
		c12.35,10.57,12.95,29.33,1.45,40.67H198.91z M81.99,144.02c-5.08-14.11,1.75-31.2,18.54-36.52c0.62-11.58,8.51-21.4,21.24-23.34
		c1.07-17.55,16-28.74,31.59-26.82c9.33,1.15,17.45,6.87,21.7,15.32l5.34,9.04l-3.81,9.86l-9.04-15.29
		c-2.41-5.35-9.1-10.84-17.64-10.84c-14.54,0-24.33,15.36-17.79,28.62c-2.24-1.15-4.74-1.76-7.29-1.76
		c-11.68,0-19.26,12.08-14.63,22.46c-11.54-1.01-21.82,8.23-21.55,20.21l0.02,0.77h158.32l-7.67,8.3L81.99,144.02L81.99,144.02z"/>
</g>
</svg>
