<?xml version="1.0" encoding="utf-8"?>
<!-- Generator: Adobe Illustrator 27.8.1, SVG Export Plug-In . SVG Version: 6.00 Build 0)  -->
<svg version="1.1" id="Layer_1" xmlns="http://www.w3.org/2000/svg" xmlns:xlink="http://www.w3.org/1999/xlink" x="0px" y="0px"
	 viewBox="0 0 350 230" style="enable-background:new 0 0 350 230;" xml:space="preserve">
<style type="text/css">
	.st0{fill:#005868;}
	.st1{fill:#FF0087;}
	.st2{fill:#002F44;}
	.st3{fill:#FC9500;}
	.st4{fill:#003144;}
	.st5{fill:#00AAFF;}
	.st6{fill:#00FFE6;}
	.st7{fill:#F46CFF;}
	.st8{fill:#0043FF;}
	.st9{fill:#977D00;}
	.st10{fill-rule:evenodd;clip-rule:evenodd;fill:#5BB200;}
	.st11{fill-rule:evenodd;clip-rule:evenodd;fill:#747C04;}
	.st12{fill:#735500;}
	.st13{fill:#4D0600;}
	.st14{fill-rule:evenodd;clip-rule:evenodd;fill:#FF0074;}
	.st15{fill-rule:evenodd;clip-rule:evenodd;fill:#004972;}
	.st16{fill:#FFDB43;}
	.st17{fill:#34A853;}
	.st18{fill:#4285F4;}
	.st19{fill-rule:evenodd;clip-rule:evenodd;fill:#C2C700;}
	.st20{fill-rule:evenodd;clip-rule:evenodd;fill:#FF0062;}
	.st21{fill-rule:evenodd;clip-rule:evenodd;fill:#C44600;}
	.st22{fill:#02D3BE;}
	.st23{fill:#D3B900;}
	.st24{fill:#0055FF;}
	.st25{fill:#D17315;}
	.st26{fill:#9E580B;}
	.st27{fill:url(#SVGID_1_);}
	.st28{fill:#05ADFC;}
	.st29{fill:#F1F9C2;}
	.st30{fill-rule:evenodd;clip-rule:evenodd;fill:#282000;}
	.st31{fill:#414042;}
	.st32{fill:#002E96;}
	.st33{fill:#231F20;}
	.st34{fill:#FFE01A;}
	.st35{fill:#1C87AE;}
	.st36{fill-rule:evenodd;clip-rule:evenodd;fill:#231F20;}
	.st37{fill-rule:evenodd;clip-rule:evenodd;fill:#AE6219;}
	.st38{fill-rule:evenodd;clip-rule:evenodd;fill:#ED1B2D;}
	.st39{fill-rule:evenodd;clip-rule:evenodd;fill:#FFFFFF;}
	.st40{fill:#2581D1;}
	.st41{fill:#1581B7;}
	.st42{fill:#282828;}
	.st43{fill-rule:evenodd;clip-rule:evenodd;fill:#011F4B;}
	.st44{fill-rule:evenodd;clip-rule:evenodd;fill:#005B96;}
	.st45{fill-rule:evenodd;clip-rule:evenodd;fill:#00BFFF;}
	.st46{fill-rule:evenodd;clip-rule:evenodd;fill:#D3DEE4;}
	.st47{fill-rule:evenodd;clip-rule:evenodd;fill:#E3EDF1;}
	.st48{fill:#00235A;}
	.st49{fill:#003076;}
	.st50{fill:#AE6219;}
	.st51{fill:#00BDFF;}
	.st52{display:none;fill:url(#SVGID_00000123430775609243774970000015775814730330736044_);}
	.st53{fill:none;}
	.st54{fill:#011F4B;}
	.st55{fill:#FFFFFF;}
	.st56{fill-rule:evenodd;clip-rule:evenodd;fill:#F39C12;}
	.st57{fill-rule:evenodd;clip-rule:evenodd;fill:#1297E0;}
	.st58{fill-rule:evenodd;clip-rule:evenodd;fill:#CC7C09;}
	.st59{fill-rule:evenodd;clip-rule:evenodd;fill:#19B5FE;}
	.st60{fill:#EA3560;}
	.st61{fill:#C7E7FF;}
	.st62{fill:#002D4F;}
	.st63{fill:#3382D1;}
</style>
<g id="XMLID_31_">
	<g id="XMLID_37_">
		<path id="XMLID_38_" class="st42" d="M64.74,120.48c2.2,1.03,4.29,2,6.56,2.85c-3.52-4.37-5.64-9.91-5.64-15.95
			c0-14.04,11.42-25.47,25.47-25.47c0.73,0,1.51,0.04,2.4,0.12l4.92,0.46l0.22-4.93c1.27-28.3,24.47-50.46,52.81-50.46
			c18.71,0,36.22,10.06,45.67,26.25l1.95,3.33l3.65-1.26c4.19-1.45,8.56-2.18,12.99-2.18c17.64,0,32.94,11.33,38.08,28.19l1.09,3.57
			l4.09-0.27c0.41-0.03,0.83-0.06,1.25-0.06c13.28,0,24.08,10.8,24.08,24.08c0,2.42-0.37,4.76-1.04,6.97
			c3.29,1.03,6.14,2.23,8.79,3.43c1.07-3.27,1.66-6.77,1.66-10.4c0-18-14.27-32.73-32.09-33.47c-7.29-18.96-25.31-31.46-45.91-31.46
			c-4.21,0-8.38,0.54-12.44,1.6c-11.5-17.2-31.02-27.75-51.82-27.75c-31.84,0-58.16,23.74-61.84,54.85
			c-18.54,0.79-33.38,16.11-33.38,34.85c0,3.48,0.52,6.83,1.47,10C60.25,118.39,62.54,119.45,64.74,120.48z"/>
	</g>
	<g id="XMLID_32_">
		<path id="XMLID_3_" class="st5" d="M146.22,137.15c-12.41,0-19.88,2.36-26.26,5.11c6.37,2.76,13.84,5.11,26.26,5.11
			s19.88-2.36,26.26-5.11C166.1,139.51,158.63,137.15,146.22,137.15z"/>
		<path id="XMLID_36_" class="st42" d="M62.09,126.66c6.1,9.16,16.41,15.28,28.14,15.58c14.4-0.24,21.94-3.74,29.21-7.14
			c6.91-3.23,13.44-6.28,26.78-6.28c13.34,0,19.87,3.05,26.78,6.28c7.54,3.52,15.33,7.17,30.76,7.17c15.43,0,23.23-3.64,30.77-7.17
			c6.91-3.23,13.44-6.28,26.78-6.28c10.32,0,16.56,1.83,22.06,4.15c2.35-2.24,4.36-4.82,5.98-7.66c-6.78-3.08-14.45-5.9-28.04-5.9
			c-15.43,0-23.23,3.64-30.77,7.17c-6.91,3.23-13.44,6.28-26.78,6.28c-13.34,0-19.87-3.05-26.78-6.28
			c-7.54-3.52-15.33-7.17-30.76-7.17s-23.23,3.64-30.76,7.17c-6.91,3.23-13.44,6.28-26.78,6.28
			C75.46,132.85,68.93,129.86,62.09,126.66z"/>
		<path id="XMLID_2_" class="st5" d="M261.31,137.15c-12.42,0-19.89,2.36-26.26,5.11h0h0c3.73,2.76,8.09,5.11,15.35,5.11
			c15.67,0,21.58-6.16,25.31-8.91C271.71,137.65,267.04,137.15,261.31,137.15z"/>
	</g>
</g>
<g id="XMLID_39_">
	<path id="XMLID_65_" class="st42" d="M64.74,120.48c2.2,1.03,4.29,2,6.56,2.85c-3.52-4.37-5.64-9.91-5.64-15.95
		c0-14.04,11.42-25.47,25.47-25.47c0.73,0,1.51,0.04,2.4,0.12l4.92,0.46l0.22-4.93c1.27-28.3,24.47-50.46,52.81-50.46
		c18.71,0,36.22,10.06,45.67,26.25l1.95,3.33l3.65-1.26c4.19-1.45,8.56-2.18,12.99-2.18c17.64,0,32.94,11.33,38.08,28.19l1.09,3.57
		l4.09-0.27c0.41-0.03,0.83-0.06,1.25-0.06c13.28,0,24.08,10.8,24.08,24.08c0,2.42-0.37,4.76-1.04,6.97
		c3.29,1.03,6.14,2.23,8.79,3.43c1.07-3.27,1.66-6.77,1.66-10.4c0-18-14.27-32.73-32.09-33.47c-7.29-18.96-25.31-31.46-45.91-31.46
		c-4.21,0-8.38,0.54-12.44,1.6c-11.5-17.2-31.02-27.75-51.82-27.75c-31.84,0-58.16,23.74-61.84,54.85
		c-18.54,0.79-33.38,16.11-33.38,34.85c0,3.48,0.52,6.83,1.47,10C60.25,118.39,62.54,119.45,64.74,120.48z"/>
</g>
<path id="XMLID_68_" class="st5" d="M277.61,108.77c0-9.57-7.79-17.36-17.36-17.36c-0.22,0-0.42,0.02-0.64,0.04h0l-0.14,0.01
	l-4.11,0.28l-5.33,0.36l-1.55-5.11l-1.09-3.57c-4.27-14.01-16.98-23.43-31.64-23.43c-3.68,0-7.31,0.61-10.79,1.81l-3.65,1.26
	l-5.21,1.8l-2.78-4.76l-1.95-3.33c-8.26-14.14-23.54-22.92-39.87-22.92c-24.74,0-44.99,19.35-46.1,44.04l-0.22,4.93l-0.32,7.04
	l-7.02-0.65l-4.92-0.46c-0.67-0.06-1.26-0.09-1.78-0.09c-10.34,0-18.74,8.41-18.74,18.74c0,4.3,1.44,8.36,4.15,11.73
	c4.48,5.54,12.6,7.1,18.97,6.67c1.71-0.18,3.27-0.44,4.72-0.75c0.27-0.07,0.51-0.12,0.71-0.16c4.5-1.05,7.94-2.65,11.67-4.4
	c7.82-3.65,16.69-7.8,33.61-7.8c16.93,0,25.79,4.14,33.61,7.8c6.48,3.03,12.08,5.65,23.93,5.65c11.85,0,17.45-2.62,23.94-5.65
	c7.82-3.65,16.68-7.8,33.61-7.8c6.15,0,11.22,0.55,15.55,1.42l-0.01-0.31C277.36,112.15,277.61,110.46,277.61,108.77z"/>
</svg>
