<?xml version="1.0" encoding="utf-8"?>
<!-- Generator: Adobe Illustrator 27.8.1, SVG Export Plug-In . SVG Version: 6.00 Build 0)  -->
<svg version="1.1" id="Layer_1" xmlns="http://www.w3.org/2000/svg" xmlns:xlink="http://www.w3.org/1999/xlink" x="0px" y="0px"
	 viewBox="0 0 350 230" style="enable-background:new 0 0 350 230;" xml:space="preserve">
<style type="text/css">
	.st0{fill:#005868;}
	.st1{fill:#FF0087;}
	.st2{fill:#002F44;}
	.st3{fill:#FC9500;}
	.st4{fill:#003144;}
	.st5{fill:#00AAFF;}
	.st6{fill:#00FFE6;}
	.st7{fill:#F46CFF;}
	.st8{fill:#0043FF;}
	.st9{fill:#977D00;}
	.st10{fill-rule:evenodd;clip-rule:evenodd;fill:#5BB200;}
	.st11{fill-rule:evenodd;clip-rule:evenodd;fill:#747C04;}
	.st12{fill:#735500;}
	.st13{fill:#4D0600;}
	.st14{fill-rule:evenodd;clip-rule:evenodd;fill:#FF0074;}
	.st15{fill-rule:evenodd;clip-rule:evenodd;fill:#004972;}
	.st16{fill:#FFDB43;}
	.st17{fill:#34A853;}
	.st18{fill:#4285F4;}
	.st19{fill-rule:evenodd;clip-rule:evenodd;fill:#C2C700;}
	.st20{fill-rule:evenodd;clip-rule:evenodd;fill:#FF0062;}
	.st21{fill-rule:evenodd;clip-rule:evenodd;fill:#C44600;}
	.st22{fill:#02D3BE;}
	.st23{fill:#D3B900;}
	.st24{fill:#0055FF;}
	.st25{fill:#D17315;}
	.st26{fill:#9E580B;}
	.st27{fill:url(#SVGID_1_);}
	.st28{fill:#05ADFC;}
	.st29{fill:#F1F9C2;}
	.st30{fill-rule:evenodd;clip-rule:evenodd;fill:#282000;}
	.st31{fill:#414042;}
	.st32{fill:#002E96;}
	.st33{fill:#231F20;}
	.st34{fill:#FFE01A;}
	.st35{fill:#1C87AE;}
	.st36{fill-rule:evenodd;clip-rule:evenodd;fill:#231F20;}
	.st37{fill-rule:evenodd;clip-rule:evenodd;fill:#AE6219;}
	.st38{fill-rule:evenodd;clip-rule:evenodd;fill:#ED1B2D;}
	.st39{fill-rule:evenodd;clip-rule:evenodd;fill:#FFFFFF;}
	.st40{fill:#2581D1;}
	.st41{fill:#1581B7;}
	.st42{fill:#282828;}
	.st43{fill-rule:evenodd;clip-rule:evenodd;fill:#011F4B;}
	.st44{fill-rule:evenodd;clip-rule:evenodd;fill:#005B96;}
	.st45{fill-rule:evenodd;clip-rule:evenodd;fill:#00BFFF;}
	.st46{fill-rule:evenodd;clip-rule:evenodd;fill:#D3DEE4;}
	.st47{fill-rule:evenodd;clip-rule:evenodd;fill:#E3EDF1;}
	.st48{fill:#00235A;}
	.st49{fill:#003076;}
	.st50{fill:#AE6219;}
	.st51{fill:#00BDFF;}
	.st52{display:none;fill:url(#SVGID_00000014627227286941539310000016854793328337935257_);}
	.st53{fill:none;}
	.st54{fill:#011F4B;}
	.st55{fill:#FFFFFF;}
	.st56{fill-rule:evenodd;clip-rule:evenodd;fill:#F39C12;}
	.st57{fill-rule:evenodd;clip-rule:evenodd;fill:#1297E0;}
	.st58{fill-rule:evenodd;clip-rule:evenodd;fill:#CC7C09;}
	.st59{fill-rule:evenodd;clip-rule:evenodd;fill:#19B5FE;}
	.st60{fill:#EA3560;}
	.st61{fill:#C7E7FF;}
	.st62{fill:#002D4F;}
	.st63{fill:#3382D1;}
</style>
<g>
	<path class="st54" d="M279.69,111.77c-0.14-1.58-0.39-3.17-0.76-4.79c-0.16-0.71-0.35-1.43-0.57-2.15
		c-0.45-1.55-1.02-3.13-1.72-4.71c-0.28-0.66-0.61-1.34-0.95-2.01c-0.89-1.78-1.96-3.57-3.2-5.37c-1.45-2.11-3.14-4.24-5.1-6.37
		c-1.48-1.59-3.11-3.19-4.9-4.8c-0.58-0.52-1.18-1.04-1.81-1.57c-1.37-1.17-2.84-2.33-4.41-3.5c0,0-2.3-8.52-7.73-18.94
		c-0.42-0.79-0.84-1.59-1.29-2.4c-0.53-0.96-1.08-1.91-1.66-2.88c-0.45-0.78-0.94-1.55-1.44-2.34c-3.22-5.08-7.16-10.23-11.89-14.8
		c-2.9-2.8-6.1-5.38-9.62-7.6c-3.83-2.41-8.03-4.38-12.63-5.7c-2.5-0.73-5.13-1.27-7.86-1.59c-3.59-0.43-7.39-0.48-11.41-0.08
		c-2.44,0.24-4.97,0.63-7.59,1.22c-0.89,0.2-1.78,0.42-2.68,0.66c-0.8,0.21-1.59,0.44-2.4,0.68c-0.51,0.15-1.03,0.31-1.55,0.48
		c0,0-0.65,0.34-1.76,0.92c-0.62,0.32-1.37,0.72-2.25,1.17c-0.95,0.49-2.02,1.05-3.17,1.66c-1.09,0.58-2.25,1.19-3.46,1.83
		c-8.37,4.44-18.6,10-18.51,10.56c0.14,0.96-48.45-8.89-50.87,40.41c0,0-3.3,1.9-7.64,5.34c-0.95,0.75-1.95,1.57-2.98,2.47
		c-0.45,0.39-0.9,0.8-1.36,1.21c-1.4,1.29-2.83,2.69-4.24,4.22c-0.6,0.65-1.18,1.32-1.77,2.01c-1.27,1.51-2.49,3.11-3.63,4.79
		c-0.17,0.27-0.35,0.54-0.51,0.81c-0.51,0.78-0.99,1.58-1.44,2.4c-0.45,0.81-0.87,1.62-1.27,2.46c-0.39,0.83-0.76,1.69-1.09,2.56
		c-1.42,3.69-2.25,7.65-2.16,11.84c0.02,1.28,0.13,2.59,0.34,3.91c0.42,2.71,1.23,5.51,2.53,8.39c0.52,1.15,1.11,2.3,1.79,3.47
		c0.52,0.91,1.1,1.83,1.72,2.75c0.7,1.04,1.48,2.09,2.32,3.15c1.57,1.98,3.4,3.98,5.49,6.01c0.91,0.88,1.87,1.77,2.88,2.66
		c4.16,3.65,9.19,7.36,15.24,11.12h151.28c0,0,5.09-3.7,10.92-9.99c0.84-0.92,1.71-1.89,2.58-2.92c1.18-1.39,2.37-2.88,3.53-4.45
		c1.55-2.13,3.07-4.42,4.43-6.84c2.93-5.18,5.22-10.99,6.04-17.21C279.87,117.29,279.95,114.56,279.69,111.77z"/>
	<path class="st55" d="M117.38,104.96c-9.65,0-17.49,7.85-17.49,17.49c0,9.65,7.85,17.49,17.49,17.49s17.49-7.85,17.49-17.49
		C134.87,112.8,127.03,104.96,117.38,104.96z M117.38,131.79c-5.15,0-9.34-4.19-9.34-9.34c0-5.15,4.19-9.34,9.34-9.34
		c5.15,0,9.33,4.2,9.33,9.34C126.72,127.6,122.53,131.79,117.38,131.79z M119.88,57.75c-6.77,0-12.27,5.51-12.27,12.28
		c0,6.77,5.51,12.28,12.27,12.28c6.77,0,12.28-5.51,12.28-12.28C132.16,63.26,126.65,57.75,119.88,57.75z M119.88,76.59
		c-3.61,0-6.55-2.95-6.55-6.56c0-3.62,2.94-6.56,6.55-6.56c3.62,0,6.56,2.94,6.56,6.56C126.43,73.64,123.5,76.59,119.88,76.59z
		 M99.89,98.86c-2.63,0-4.79,2.14-4.79,4.78s2.15,4.79,4.79,4.79c2.63,0,4.78-2.15,4.78-4.79S102.53,98.86,99.89,98.86z
		 M99.89,106.18c-1.41,0-2.56-1.14-2.56-2.55c0-1.4,1.15-2.55,2.56-2.55c1.4,0,2.55,1.15,2.55,2.55
		C102.44,105.04,101.29,106.18,99.89,106.18z M119.88,142.22c-2.63,0-4.78,2.14-4.78,4.79c0,2.63,2.14,4.78,4.78,4.78
		s4.79-2.14,4.79-4.78C124.66,144.37,122.51,142.22,119.88,142.22z M119.88,149.56c-1.4,0-2.55-1.15-2.55-2.55
		c0-1.41,1.15-2.56,2.55-2.56c1.41,0,2.56,1.15,2.56,2.56C122.43,148.41,121.29,149.56,119.88,149.56z M90.33,127.89
		c-2.63,0-4.79,2.14-4.79,4.78c0,2.63,2.15,4.78,4.79,4.78s4.78-2.15,4.78-4.78C95.11,130.03,92.97,127.89,90.33,127.89z
		 M90.33,135.21c-1.41,0-2.56-1.14-2.56-2.55c0-1.4,1.15-2.55,2.56-2.55c1.4,0,2.55,1.15,2.55,2.55
		C92.88,134.08,91.73,135.21,90.33,135.21z M74.38,100.63c-0.51,0.78-0.99,1.58-1.44,2.4c0.02,0.09,0.02,0.16,0.02,0.25
		c0,0.95-0.52,1.77-1.29,2.22c-0.39,0.83-0.76,1.69-1.09,2.56c2.56-0.09,4.61-2.2,4.61-4.78C75.19,102.3,74.9,101.39,74.38,100.63z
		 M136.87,40.94c-0.63-0.03-1.27-0.06-1.91-0.06c-0.12,0-0.26,0.01-0.38,0.01c0.08,0.25,0.13,0.5,0.13,0.77
		c0,1.41-1.15,2.56-2.56,2.56c-1.4,0-2.55-1.15-2.55-2.56c0-0.12,0.02-0.25,0.04-0.36c-0.77,0.11-1.52,0.27-2.26,0.44
		c0.04,2.6,2.17,4.71,4.78,4.71c2.63,0,4.79-2.15,4.79-4.78C136.94,41.42,136.91,41.18,136.87,40.94z M239.96,152.52
		c-2.64,0-4.79,2.15-4.79,4.78c0,1.34,0.56,2.55,1.44,3.41h3.11c1.26,0,2.5-0.07,3.73-0.17c0.8-0.85,1.28-1.99,1.28-3.24
		C244.74,154.67,242.6,152.52,239.96,152.52z M239.96,159.86c-1.41,0-2.56-1.14-2.56-2.55c0-1.41,1.15-2.55,2.56-2.55
		c1.4,0,2.55,1.14,2.55,2.55C242.51,158.72,241.37,159.86,239.96,159.86z M112.38,153.18c-2.63,0-4.78,2.14-4.78,4.78
		c0,1.03,0.33,1.99,0.89,2.77h7.78c0.56-0.78,0.89-1.73,0.89-2.77C117.17,155.32,115.01,153.18,112.38,153.18z M112.38,160.51
		c-1.4,0-2.55-1.15-2.55-2.56c0-1.4,1.15-2.55,2.55-2.55c1.41,0,2.56,1.15,2.56,2.55C114.94,159.36,113.79,160.51,112.38,160.51z
		 M101.83,65.66c-0.22,0.73-0.41,1.47-0.57,2.22c0.71,0.45,1.18,1.24,1.18,2.15c0,1.18-0.81,2.17-1.9,2.45
		c-0.07,0.76-0.1,1.53-0.12,2.29c2.39-0.27,4.24-2.29,4.24-4.75C104.67,68.08,103.5,66.4,101.83,65.66z M107.61,84.51
		c-2.64,0-4.79,2.14-4.79,4.78c0,2.64,2.15,4.78,4.79,4.78s4.78-2.14,4.78-4.78C112.38,86.65,110.24,84.51,107.61,84.51z
		 M107.61,91.84c-1.41,0-2.56-1.15-2.56-2.56c0-1.4,1.15-2.55,2.56-2.55c1.4,0,2.55,1.15,2.55,2.55
		C110.15,90.7,109.01,91.84,107.61,91.84z M126.64,85.84c-4.54,0-8.23,3.7-8.23,8.23c0,4.54,3.7,8.23,8.23,8.23s8.23-3.7,8.23-8.23
		C134.87,89.53,131.18,85.84,126.64,85.84z M126.64,98.47c-2.43,0-4.4-1.97-4.4-4.4s1.97-4.4,4.4-4.4s4.4,1.97,4.4,4.4
		S129.07,98.47,126.64,98.47z M99.83,80.73c-0.3,0.06-0.6,0.1-0.89,0.17c-0.98,0.22-1.93,0.48-2.89,0.77
		c0.01,0.02,0.01,0.04,0.01,0.06c0,2.43-1.97,4.4-4.4,4.4c-1.06,0-2.04-0.38-2.8-1c-0.95,0.75-1.95,1.57-2.98,2.47
		c1.49,1.46,3.52,2.37,5.77,2.37c4.54,0,8.23-3.7,8.23-8.23C99.89,81.38,99.86,81.05,99.83,80.73z M99.89,138.77
		c-4.54,0-8.23,3.7-8.23,8.23c0,4.54,3.7,8.23,8.23,8.23c4.54,0,8.23-3.7,8.23-8.23C108.13,142.47,104.43,138.77,99.89,138.77z
		 M99.89,151.41c-2.43,0-4.4-1.97-4.4-4.4c0-2.43,1.97-4.4,4.4-4.4s4.4,1.97,4.4,4.4C104.29,149.43,102.32,151.41,99.89,151.41z
		 M86.87,108.06c-4.54,0-8.23,3.69-8.23,8.22c0,4.55,3.7,8.23,8.23,8.23c4.55,0,8.23-3.69,8.23-8.23
		C95.11,111.74,91.42,108.06,86.87,108.06z M86.87,120.68c-2.42,0-4.4-1.97-4.4-4.4c0-2.42,1.98-4.4,4.4-4.4
		c2.43,0,4.4,1.98,4.4,4.4C91.27,118.71,89.3,120.68,86.87,120.68z M70.41,119.65c-0.68,0-1.35,0.09-1.99,0.24
		c0.02,1.28,0.13,2.59,0.34,3.91c0.5-0.21,1.06-0.32,1.65-0.32c2.42,0,4.4,1.98,4.4,4.41c0,2.11-1.52,3.88-3.52,4.3
		c0.52,1.15,1.11,2.3,1.79,3.47c3.23-1.11,5.55-4.17,5.55-7.77C78.64,123.35,74.94,119.65,70.41,119.65z M84.53,88.8
		c-1.4,1.29-2.83,2.69-4.24,4.22c0.65-0.4,1.43-0.63,2.26-0.63c2.43,0,4.4,1.97,4.4,4.4c0,2.42-1.97,4.4-4.4,4.4s-4.4-1.98-4.4-4.4
		c0-0.63,0.13-1.22,0.37-1.76c-1.27,1.51-2.49,3.11-3.63,4.79c1.21,3.04,4.19,5.2,7.66,5.2c4.54,0,8.23-3.7,8.23-8.23
		C90.79,92.93,88.12,89.69,84.53,88.8z M78.64,137.45c-1.38,0-2.68,0.34-3.83,0.96c0.7,1.04,1.48,2.09,2.32,3.15
		c0.47-0.17,0.99-0.27,1.51-0.27c2.43,0,4.41,1.97,4.41,4.4c0,0.67-0.15,1.31-0.43,1.88c0.91,0.88,1.87,1.77,2.88,2.66
		c0.87-1.3,1.37-2.86,1.37-4.54C86.87,141.13,83.19,137.45,78.64,137.45z M157.08,70.03c-9.65,0-17.49,7.85-17.49,17.49
		c0,9.65,7.85,17.49,17.49,17.49s17.49-7.85,17.49-17.49C174.57,77.88,166.72,70.03,157.08,70.03z M157.08,96.86
		c-5.15,0-9.34-4.19-9.34-9.33c0-5.15,4.19-9.34,9.34-9.34c5.14,0,9.33,4.19,9.33,9.34C166.41,92.67,162.22,96.86,157.08,96.86z
		 M213.38,57.02c-9.65,0-17.49,7.85-17.49,17.49c0,9.65,7.85,17.49,17.49,17.49c9.65,0,17.49-7.85,17.49-17.49
		C230.87,64.87,223.02,57.02,213.38,57.02z M213.38,83.86c-5.15,0-9.34-4.19-9.34-9.34c0-5.14,4.19-9.33,9.34-9.33
		c5.15,0,9.33,4.19,9.33,9.33C222.71,79.67,218.52,83.86,213.38,83.86z M279.69,111.77c-0.43-0.03-0.86-0.05-1.3-0.05
		c-9.65,0-17.49,7.85-17.49,17.49c0,6.22,3.26,11.67,8.15,14.77c1.55-2.13,3.07-4.42,4.43-6.84c-2.65-1.64-4.42-4.59-4.42-7.93
		c0-5.15,4.19-9.34,9.33-9.34c0.38,0,0.76,0.02,1.13,0.07C279.87,117.29,279.95,114.56,279.69,111.77z M196.76,28.24
		c-6.77,0-12.28,5.51-12.28,12.28c0,6.77,5.51,12.28,12.28,12.28c6.77,0,12.28-5.51,12.28-12.28
		C209.04,33.75,203.52,28.24,196.76,28.24z M196.76,47.07c-3.62,0-6.56-2.94-6.56-6.56c0-3.62,2.94-6.56,6.56-6.56
		c3.61,0,6.56,2.94,6.56,6.56C203.31,44.14,200.37,47.07,196.76,47.07z M154.61,125.17c-6.77,0-12.27,5.51-12.27,12.28
		c0,6.77,5.51,12.27,12.27,12.27c6.77,0,12.28-5.51,12.28-12.27C166.89,130.67,161.39,125.17,154.61,125.17z M154.61,144.01
		c-3.61,0-6.56-2.95-6.56-6.56c0-3.62,2.95-6.56,6.56-6.56c3.62,0,6.56,2.94,6.56,6.56C161.17,141.06,158.23,144.01,154.61,144.01z
		 M272.49,92.73c-1.45-2.11-3.14-4.24-5.1-6.37c-1.88-1.17-4.1-1.86-6.49-1.86c-6.77,0-12.28,5.51-12.28,12.28
		c0,6.77,5.51,12.27,12.28,12.27c6.77,0,12.28-5.51,12.28-12.27C273.18,95.37,272.94,94,272.49,92.73z M260.9,103.35
		c-3.62,0-6.56-2.95-6.56-6.56c0-3.62,2.94-6.56,6.56-6.56c3.62,0,6.56,2.94,6.56,6.56C267.46,100.4,264.52,103.35,260.9,103.35z
		 M210.35,116.28c-6.77,0-12.28,5.51-12.28,12.28c0,6.77,5.51,12.28,12.28,12.28c6.77,0,12.28-5.51,12.28-12.28
		C222.63,121.8,217.12,116.28,210.35,116.28z M210.35,135.12c-3.61,0-6.56-2.94-6.56-6.56c0-3.61,2.95-6.56,6.56-6.56
		c3.61,0,6.56,2.95,6.56,6.56C216.91,132.18,213.96,135.12,210.35,135.12z M179.17,28.24c-2.64,0-4.79,2.15-4.79,4.78
		c0,2.63,2.14,4.79,4.79,4.79c2.63,0,4.78-2.15,4.78-4.79C183.95,30.39,181.81,28.24,179.17,28.24z M179.17,35.57
		c-1.41,0-2.56-1.15-2.56-2.55c0-1.41,1.15-2.56,2.56-2.56c1.4,0,2.55,1.15,2.55,2.56C181.72,34.42,180.57,35.57,179.17,35.57z
		 M139.58,65.25c-2.63,0-4.79,2.15-4.79,4.79s2.15,4.78,4.79,4.78c2.63,0,4.78-2.14,4.78-4.78S142.22,65.25,139.58,65.25z
		 M139.58,72.58c-1.41,0-2.56-1.15-2.56-2.55c0-1.41,1.15-2.56,2.56-2.56c1.4,0,2.55,1.15,2.55,2.56
		C142.13,71.43,140.99,72.58,139.58,72.58z M159.4,54.68c-2.63,0-4.78,2.14-4.78,4.78c0,2.63,2.15,4.78,4.78,4.78
		s4.78-2.15,4.78-4.78C164.17,56.82,162.03,54.68,159.4,54.68z M159.4,62.02c-1.41,0-2.55-1.15-2.55-2.56c0-1.4,1.14-2.55,2.55-2.55
		c1.4,0,2.55,1.15,2.55,2.55C161.95,60.87,160.8,62.02,159.4,62.02z M142.93,108.42c-2.63,0-4.78,2.14-4.78,4.78
		c0,2.63,2.14,4.79,4.78,4.79c2.63,0,4.78-2.15,4.78-4.79C147.7,110.56,145.56,108.42,142.93,108.42z M142.93,115.75
		c-1.4,0-2.55-1.15-2.55-2.56c0-1.4,1.14-2.55,2.55-2.55c1.41,0,2.55,1.15,2.55,2.55C145.48,114.6,144.34,115.75,142.93,115.75z
		 M154.61,113.19c-2.63,0-4.78,2.15-4.78,4.79c0,2.63,2.14,4.78,4.78,4.78c2.63,0,4.78-2.14,4.78-4.78
		C159.4,115.34,157.25,113.19,154.61,113.19z M154.61,120.53c-1.4,0-2.55-1.15-2.55-2.55c0-1.41,1.15-2.56,2.55-2.56
		c1.41,0,2.56,1.15,2.56,2.56C157.17,119.38,156.02,120.53,154.61,120.53z M218.15,28.24c-2.63,0-4.78,2.15-4.78,4.78
		c0,2.63,2.14,4.79,4.78,4.79c2.64,0,4.79-2.15,4.79-4.79C222.94,30.39,220.8,28.24,218.15,28.24z M218.15,35.57
		c-1.4,0-2.55-1.15-2.55-2.55c0-1.41,1.15-2.56,2.55-2.56c1.41,0,2.56,1.15,2.56,2.56C220.71,34.42,219.56,35.57,218.15,35.57z
		 M178.08,22.73c-0.38,0.94-1.3,1.59-2.37,1.59c-0.33,0-0.65-0.07-0.95-0.19c-0.62,0.32-1.37,0.72-2.25,1.17
		c0.84,0.78,1.96,1.24,3.19,1.24c2.54,0,4.62-2,4.77-4.5C179.68,22.26,178.89,22.49,178.08,22.73z M192.18,54.68
		c-2.63,0-4.78,2.14-4.78,4.78c0,2.63,2.14,4.78,4.78,4.78s4.78-2.15,4.78-4.78C196.97,56.82,194.82,54.68,192.18,54.68z
		 M192.18,62.02c-1.4,0-2.55-1.15-2.55-2.56c0-1.4,1.14-2.55,2.55-2.55s2.55,1.15,2.55,2.55C194.73,60.87,193.59,62.02,192.18,62.02
		z M172.26,60.48c-2.63,0-4.79,2.14-4.79,4.78c0,2.63,2.15,4.79,4.79,4.79s4.78-2.15,4.78-4.79
		C177.04,62.62,174.9,60.48,172.26,60.48z M172.26,67.81c-1.41,0-2.55-1.14-2.55-2.55c0-1.41,1.14-2.55,2.55-2.55
		c1.4,0,2.55,1.14,2.55,2.55C174.81,66.67,173.67,67.81,172.26,67.81z M278.37,104.83c-0.13,0.02-0.27,0.03-0.41,0.03
		c-1.4,0-2.55-1.14-2.55-2.55c0-0.93,0.49-1.74,1.23-2.19c-0.28-0.66-0.61-1.34-0.95-2.01c-1.5,0.8-2.51,2.38-2.51,4.2
		c0,2.63,2.14,4.78,4.78,4.78c0.33,0,0.66-0.04,0.98-0.1C278.78,106.27,278.59,105.55,278.37,104.83z M251.65,137.45
		c-2.63,0-4.78,2.14-4.78,4.78c0,2.64,2.14,4.79,4.78,4.79c2.63,0,4.78-2.15,4.78-4.79C256.43,139.59,254.28,137.45,251.65,137.45z
		 M251.65,144.78c-1.4,0-2.55-1.15-2.55-2.56c0-1.4,1.14-2.55,2.55-2.55c1.41,0,2.55,1.15,2.55,2.55
		C254.2,143.64,253.06,144.78,251.65,144.78z M251.65,124.43c-2.63,0-4.78,2.15-4.78,4.78c0,2.63,2.14,4.78,4.78,4.78
		c2.63,0,4.78-2.14,4.78-4.78C256.43,126.58,254.28,124.43,251.65,124.43z M251.65,131.76c-1.4,0-2.55-1.15-2.55-2.55
		c0-1.41,1.14-2.56,2.55-2.56c1.41,0,2.55,1.15,2.55,2.56C254.2,130.62,253.06,131.76,251.65,131.76z M210.02,21.83
		c-2.5-0.73-5.13-1.27-7.86-1.59c-0.85,0.86-1.36,2.04-1.36,3.34c0,2.63,2.15,4.78,4.78,4.78c2.64,0,4.79-2.14,4.79-4.78
		C210.35,22.96,210.24,22.37,210.02,21.83z M205.58,26.12c-1.41,0-2.56-1.15-2.56-2.55c0-1.41,1.15-2.56,2.56-2.56
		c1.4,0,2.55,1.15,2.55,2.56C208.13,24.98,206.98,26.12,205.58,26.12z M167.48,147.01c-2.63,0-4.78,2.14-4.78,4.78
		c0,2.63,2.14,4.79,4.78,4.79c2.64,0,4.79-2.15,4.79-4.79C172.26,149.15,170.12,147.01,167.48,147.01z M167.48,154.34
		c-1.4,0-2.55-1.15-2.55-2.56c0-1.4,1.15-2.55,2.55-2.55c1.41,0,2.56,1.15,2.56,2.55C170.04,153.2,168.89,154.34,167.48,154.34z
		 M184.48,150.46c-2.63,0-4.78,2.15-4.78,4.78c0,2.63,2.14,4.78,4.78,4.78c2.63,0,4.78-2.14,4.78-4.78
		C189.25,152.61,187.11,150.46,184.48,150.46z M184.48,157.79c-1.4,0-2.55-1.15-2.55-2.55c0-1.41,1.14-2.56,2.55-2.56
		c1.41,0,2.55,1.15,2.55,2.56C187.03,156.65,185.89,157.79,184.48,157.79z M205.57,95.4c-2.62,0-4.78,2.14-4.78,4.79
		c0,2.63,2.15,4.78,4.78,4.78c2.64,0,4.79-2.14,4.79-4.78C210.35,97.54,208.21,95.4,205.57,95.4z M205.57,102.73
		c-1.4,0-2.55-1.15-2.55-2.55c0-1.41,1.15-2.56,2.55-2.56c1.41,0,2.56,1.15,2.56,2.56C208.13,101.58,206.98,102.73,205.57,102.73z
		 M167.48,104.31c-2.63,0-4.78,2.14-4.78,4.78s2.14,4.79,4.78,4.79c2.64,0,4.79-2.15,4.79-4.79S170.12,104.31,167.48,104.31z
		 M167.48,111.65c-1.4,0-2.55-1.15-2.55-2.56c0-1.4,1.15-2.55,2.55-2.55c1.41,0,2.56,1.15,2.56,2.55
		C170.04,110.5,168.89,111.65,167.48,111.65z M187.4,90.62c-2.63,0-4.78,2.14-4.78,4.78c0,2.63,2.14,4.79,4.78,4.79
		c2.64,0,4.79-2.15,4.79-4.79C192.18,92.76,190.04,90.62,187.4,90.62z M187.4,97.95c-1.4,0-2.55-1.14-2.55-2.55
		c0-1.4,1.15-2.55,2.55-2.55c1.41,0,2.56,1.15,2.56,2.55C189.95,96.81,188.81,97.95,187.4,97.95z M214.4,44.01
		c-2.63,0-4.79,2.14-4.79,4.78c0,2.63,2.15,4.78,4.79,4.78c2.63,0,4.78-2.15,4.78-4.78C219.18,46.15,217.03,44.01,214.4,44.01z
		 M214.4,51.35c-1.41,0-2.56-1.15-2.56-2.56c0-1.4,1.15-2.55,2.56-2.55c1.4,0,2.55,1.14,2.55,2.55S215.8,51.35,214.4,51.35z
		 M219.18,103.27c-2.63,0-4.78,2.14-4.78,4.78c0,2.63,2.14,4.78,4.78,4.78c2.64,0,4.79-2.14,4.79-4.78
		C223.96,105.41,221.82,103.27,219.18,103.27z M219.18,110.61c-1.4,0-2.55-1.15-2.55-2.55c0-1.41,1.15-2.56,2.55-2.56
		c1.41,0,2.56,1.15,2.56,2.56C221.73,109.46,220.59,110.61,219.18,110.61z M247.26,55.16c-0.23,1.17-1.27,2.08-2.52,2.08
		c-1.4,0-2.55-1.15-2.55-2.55c0-1.41,1.15-2.56,2.55-2.56c0.3,0,0.6,0.06,0.86,0.15c-0.45-0.78-0.94-1.55-1.44-2.34
		c-2.36,0.28-4.2,2.3-4.2,4.75c0,2.63,2.14,4.78,4.78,4.78c1.55,0,2.94-0.75,3.81-1.9C248.13,56.77,247.71,55.96,247.26,55.16z
		 M184.48,105.01c-4.54,0-8.23,3.7-8.23,8.23c0,4.54,3.7,8.23,8.23,8.23c4.54,0,8.23-3.7,8.23-8.23
		C192.71,108.71,189.02,105.01,184.48,105.01z M184.48,117.65c-2.43,0-4.4-1.97-4.4-4.4c0-2.43,1.97-4.4,4.4-4.4
		c2.43,0,4.4,1.97,4.4,4.4C188.87,115.67,186.9,117.65,184.48,117.65z M134.87,141.49c-4.54,0-8.23,3.69-8.23,8.22
		c0,4.55,3.7,8.24,8.23,8.24c4.54,0,8.23-3.7,8.23-8.24C143.11,145.18,139.41,141.49,134.87,141.49z M134.87,154.12
		c-2.43,0-4.4-1.97-4.4-4.4c0-2.42,1.97-4.39,4.4-4.39c2.43,0,4.4,1.97,4.4,4.39C139.27,152.14,137.3,154.12,134.87,154.12z
		 M200.79,140.84c-4.54,0-8.23,3.7-8.23,8.23c0,4.54,3.7,8.23,8.23,8.23c4.54,0,8.23-3.7,8.23-8.23
		C209.03,144.54,205.33,140.84,200.79,140.84z M200.79,153.47c-2.43,0-4.4-1.97-4.4-4.4c0-2.43,1.97-4.4,4.4-4.4s4.4,1.97,4.4,4.4
		C205.19,151.5,203.22,153.47,200.79,153.47z M174.39,39.78c-4.54,0-8.23,3.7-8.23,8.23s3.7,8.23,8.23,8.23
		c4.54,0,8.23-3.7,8.23-8.23S178.93,39.78,174.39,39.78z M174.39,52.41c-2.43,0-4.4-1.97-4.4-4.4c0-2.42,1.97-4.4,4.4-4.4
		c2.43,0,4.4,1.98,4.4,4.4C178.78,50.44,176.81,52.41,174.39,52.41z M169.35,26.97c-1.09,0.58-2.25,1.19-3.46,1.83
		c0.75,0.79,1.21,1.85,1.21,3.01c0,2.43-1.97,4.4-4.4,4.4c-2.05,0-3.76-1.4-4.25-3.3c-1.03,0.9-2.03,1.84-2.98,2.81
		c1.39,2.57,4.11,4.32,7.24,4.32c4.54,0,8.23-3.7,8.23-8.23C170.94,30,170.35,28.32,169.35,26.97z M183.95,70.03
		c-4.54,0-8.23,3.7-8.23,8.23c0,4.54,3.7,8.23,8.23,8.23c4.54,0,8.23-3.7,8.23-8.23C192.18,73.73,188.49,70.03,183.95,70.03z
		 M183.95,82.66c-2.43,0-4.4-1.97-4.4-4.4c0-2.43,1.97-4.4,4.4-4.4s4.4,1.97,4.4,4.4C188.34,80.69,186.37,82.66,183.95,82.66z
		 M260.69,79.99c-2.08-1.17-4.28-2.16-6.56-2.98c-0.26-0.09-0.52-0.17-0.78-0.26c1.27,2.92,4.18,4.97,7.55,4.97
		c0.54,0,1.07-0.06,1.59-0.16C261.92,81.04,261.31,80.52,260.69,79.99z M230.87,38.21c-4.54,0-8.23,3.7-8.23,8.23
		c0,4.54,3.7,8.23,8.23,8.23c4.54,0,8.23-3.7,8.23-8.23C239.1,41.91,235.41,38.21,230.87,38.21z M230.87,50.84
		c-2.43,0-4.4-1.97-4.4-4.4c0-2.43,1.97-4.4,4.4-4.4c2.43,0,4.4,1.97,4.4,4.4C235.26,48.87,233.29,50.84,230.87,50.84z
		 M243.41,65.26c-4.54,0-8.23,3.7-8.23,8.23c0,4.54,3.7,8.23,8.23,8.23c4.54,0,8.23-3.7,8.23-8.23
		C251.65,68.95,247.95,65.26,243.41,65.26z M243.41,77.89c-2.43,0-4.4-1.97-4.4-4.4s1.97-4.4,4.4-4.4s4.4,1.97,4.4,4.4
		S245.84,77.89,243.41,77.89z M222.65,27.54c0.26,4.3,3.85,7.72,8.22,7.72c0.47,0,0.95-0.04,1.4-0.12
		C229.37,32.33,226.17,29.75,222.65,27.54z M181.03,129.21c-4.54,0-8.23,3.7-8.23,8.23c0,4.54,3.7,8.23,8.23,8.23
		c4.54,0,8.22-3.7,8.22-8.23C189.25,132.91,185.57,129.21,181.03,129.21z M181.03,141.84c-2.43,0-4.4-1.97-4.4-4.4s1.97-4.4,4.4-4.4
		c2.42,0,4.4,1.97,4.4,4.4S183.44,141.84,181.03,141.84z M222.63,143.55c-4.54,0-8.23,3.7-8.23,8.23c0,4.54,3.7,8.23,8.23,8.23
		c4.54,0,8.23-3.7,8.23-8.23C230.87,147.25,227.17,143.55,222.63,143.55z M222.63,156.18c-2.43,0-4.4-1.97-4.4-4.4
		c0-2.42,1.97-4.4,4.4-4.4c2.43,0,4.4,1.98,4.4,4.4C227.03,154.21,225.06,156.18,222.63,156.18z M235.18,90.62
		c-4.54,0-8.23,3.69-8.23,8.23c0,4.54,3.7,8.22,8.23,8.22c4.54,0,8.23-3.69,8.23-8.22C243.41,94.31,239.72,90.62,235.18,90.62z
		 M235.18,103.24c-2.43,0-4.4-1.96-4.4-4.39c0-2.43,1.97-4.4,4.4-4.4c2.43,0,4.4,1.97,4.4,4.4
		C239.58,101.28,237.61,103.24,235.18,103.24z M235.18,127.91c-4.54,0-8.23,3.7-8.23,8.23c0,4.55,3.7,8.23,8.23,8.23
		c4.55,0,8.23-3.69,8.23-8.23C243.41,131.6,239.73,127.91,235.18,127.91z M235.18,140.54c-2.43,0-4.4-1.97-4.4-4.4
		c0-2.42,1.97-4.4,4.4-4.4c2.43,0,4.4,1.97,4.4,4.4C239.58,138.57,237.61,140.54,235.18,140.54z M260.9,147.01
		c-4.54,0-8.23,3.69-8.23,8.23c0,1.16,0.25,2.26,0.68,3.26c1.22-0.41,2.42-0.86,3.59-1.37c-0.27-0.57-0.44-1.21-0.44-1.89
		c0-2.43,1.97-4.4,4.4-4.4c0.74,0,1.43,0.18,2.04,0.51c0.84-0.92,1.71-1.89,2.58-2.92C264.2,147.53,262.62,147.01,260.9,147.01z
		 M243.41,109.74c-4.54,0-8.23,3.7-8.23,8.23c0,4.54,3.7,8.23,8.23,8.23c4.54,0,8.23-3.7,8.23-8.23
		C251.65,113.44,247.95,109.74,243.41,109.74z M243.41,122.37c-2.43,0-4.4-1.97-4.4-4.4c0-2.43,1.97-4.4,4.4-4.4s4.4,1.97,4.4,4.4
		C247.81,120.39,245.84,122.37,243.41,122.37z M154.61,151.78c-2.63,0-4.78,2.15-4.78,4.79c0,1.78,0.98,3.34,2.43,4.15
		c0.69,0.4,1.5,0.63,2.35,0.63c0.86,0,1.66-0.23,2.36-0.63c1.44-0.81,2.43-2.37,2.43-4.15C159.4,153.94,157.25,151.78,154.61,151.78
		z M154.61,159.12c-1.4,0-2.55-1.15-2.55-2.55c0-1.41,1.15-2.56,2.55-2.56c1.41,0,2.56,1.15,2.56,2.56
		C157.17,157.97,156.02,159.12,154.61,159.12z M116.04,46.55c-0.17-0.63-0.42-1.21-0.73-1.76c-1.09,0.7-2.14,1.45-3.15,2.26
		c0.23,0.53,0.36,1.12,0.36,1.73c0,0.14-0.01,0.28-0.03,0.43c-0.2,2.08-1.85,3.73-3.91,3.94c-0.15,0.02-0.3,0.03-0.45,0.03
		c-0.61,0-1.18-0.12-1.71-0.34c-0.81,1-1.55,2.07-2.26,3.16c0.56,0.3,1.16,0.54,1.77,0.71c0.7,0.19,1.43,0.3,2.19,0.3
		c4.54,0,8.23-3.7,8.23-8.23C116.36,48.01,116.25,47.26,116.04,46.55z M149.8,42.42c-1.04-0.48-2.2-0.76-3.42-0.76
		c-0.87,0-1.71,0.14-2.51,0.4c-3.31,1.06-5.71,4.17-5.71,7.84c0,4.54,3.69,8.23,8.22,8.23c4.54,0,8.23-3.7,8.23-8.23
		C154.61,46.58,152.63,43.72,149.8,42.42z M146.38,54.29c-2.42,0-4.4-1.97-4.4-4.4c0-2.43,1.98-4.4,4.4-4.4c2.43,0,4.4,1.97,4.4,4.4
		C150.77,52.32,148.8,54.29,146.38,54.29z M127.38,48.01c-2.64,0-4.78,2.15-4.78,4.79s2.14,4.78,4.78,4.78
		c2.63,0,4.78-2.15,4.78-4.78S130.01,48.01,127.38,48.01z M127.38,55.35c-1.41,0-2.56-1.15-2.56-2.55c0-1.41,1.15-2.56,2.56-2.56
		c1.4,0,2.55,1.15,2.55,2.56C129.93,54.2,128.78,55.35,127.38,55.35z M190.75,20.16c-2.44,0.24-4.97,0.63-7.59,1.22
		c-0.34,0.65-0.54,1.4-0.54,2.19c0,2.63,2.14,4.78,4.79,4.78c2.63,0,4.78-2.14,4.78-4.78C192.18,22.24,191.63,21.03,190.75,20.16z
		 M187.41,26.12c-1.41,0-2.56-1.15-2.56-2.55c0-1.41,1.15-2.56,2.56-2.56c1.4,0,2.55,1.15,2.55,2.56
		C189.95,24.98,188.81,26.12,187.41,26.12z"/>
</g>
</svg>
