<?xml version="1.0" encoding="utf-8"?>
<!-- Generator: Adobe Illustrator 27.8.1, SVG Export Plug-In . SVG Version: 6.00 Build 0)  -->
<svg version="1.1" id="Layer_1" xmlns="http://www.w3.org/2000/svg" xmlns:xlink="http://www.w3.org/1999/xlink" x="0px" y="0px"
	 viewBox="0 0 350 230" style="enable-background:new 0 0 350 230;" xml:space="preserve">
<style type="text/css">
	.st0{fill:#005868;}
	.st1{fill:#FF0087;}
	.st2{fill:#002F44;}
	.st3{fill:#FC9500;}
	.st4{fill:#003144;}
	.st5{fill:#00AAFF;}
	.st6{fill:#00FFE6;}
	.st7{fill:#F46CFF;}
	.st8{fill:#0043FF;}
	.st9{fill:#977D00;}
	.st10{fill-rule:evenodd;clip-rule:evenodd;fill:#5BB200;}
	.st11{fill-rule:evenodd;clip-rule:evenodd;fill:#747C04;}
	.st12{fill:#735500;}
	.st13{fill:#4D0600;}
	.st14{fill-rule:evenodd;clip-rule:evenodd;fill:#FF0074;}
	.st15{fill-rule:evenodd;clip-rule:evenodd;fill:#004972;}
	.st16{fill:#FFDB43;}
	.st17{fill:#34A853;}
	.st18{fill:#4285F4;}
	.st19{fill-rule:evenodd;clip-rule:evenodd;fill:#C2C700;}
	.st20{fill-rule:evenodd;clip-rule:evenodd;fill:#FF0062;}
	.st21{fill-rule:evenodd;clip-rule:evenodd;fill:#C44600;}
	.st22{fill:#02D3BE;}
	.st23{fill:#D3B900;}
	.st24{fill:#0055FF;}
	.st25{fill:#D17315;}
	.st26{fill:#9E580B;}
	.st27{fill:url(#SVGID_1_);}
	.st28{fill:#05ADFC;}
	.st29{fill:#F1F9C2;}
	.st30{fill-rule:evenodd;clip-rule:evenodd;fill:#282000;}
	.st31{fill:#414042;}
	.st32{fill:#002E96;}
	.st33{fill:#231F20;}
	.st34{fill:#FFE01A;}
	.st35{fill:#1C87AE;}
	.st36{fill-rule:evenodd;clip-rule:evenodd;fill:#231F20;}
	.st37{fill-rule:evenodd;clip-rule:evenodd;fill:#AE6219;}
	.st38{fill-rule:evenodd;clip-rule:evenodd;fill:#ED1B2D;}
	.st39{fill-rule:evenodd;clip-rule:evenodd;fill:#FFFFFF;}
	.st40{fill:#2581D1;}
	.st41{fill:#1581B7;}
	.st42{fill:#282828;}
	.st43{fill-rule:evenodd;clip-rule:evenodd;fill:#011F4B;}
	.st44{fill-rule:evenodd;clip-rule:evenodd;fill:#005B96;}
	.st45{fill-rule:evenodd;clip-rule:evenodd;fill:#00BFFF;}
	.st46{fill-rule:evenodd;clip-rule:evenodd;fill:#D3DEE4;}
	.st47{fill-rule:evenodd;clip-rule:evenodd;fill:#E3EDF1;}
	.st48{fill:#00235A;}
	.st49{fill:#003076;}
	.st50{fill:#AE6219;}
	.st51{fill:#00BDFF;}
	.st52{display:none;fill:url(#SVGID_00000040548221548025239110000004076126755059913383_);}
	.st53{fill:none;}
	.st54{fill:#011F4B;}
	.st55{fill:#FFFFFF;}
	.st56{fill-rule:evenodd;clip-rule:evenodd;fill:#F39C12;}
	.st57{fill-rule:evenodd;clip-rule:evenodd;fill:#1297E0;}
	.st58{fill-rule:evenodd;clip-rule:evenodd;fill:#CC7C09;}
	.st59{fill-rule:evenodd;clip-rule:evenodd;fill:#19B5FE;}
	.st60{fill:#EA3560;}
	.st61{fill:#C7E7FF;}
	.st62{fill:#002D4F;}
	.st63{fill:#3382D1;}
</style>
<g>
	<path class="st40" d="M245.84,63.24c-3.41,0-6.77,0.44-10,1.29c-5.55-18.43-22.68-31.89-42.9-31.89c-9.82,0-18.91,3.17-26.3,8.56
		H84.98c-1.29-4.21-5.22-7.29-9.86-7.29c-5.69,0-10.32,4.63-10.32,10.31c0,5.69,4.63,10.32,10.32,10.32c4.63,0,8.56-3.07,9.86-7.29
		h121.08l-48.18,2.35c-2.91,3.66-5.27,7.78-6.92,12.24H98.73c-1.29-4.22-5.22-7.29-9.86-7.29c-5.69,0-10.32,4.63-10.32,10.32
		c0,5.68,4.63,10.31,10.32,10.31c4.63,0,8.56-3.07,9.86-7.29h121.08l-71.24,3.46c-0.14,1.03-0.25,2.06-0.31,3.1
		c-1.49-0.2-3-0.3-4.52-0.3c-8.49,0-16.26,3.14-22.21,8.31H84.98c-1.29-4.21-5.22-7.29-9.86-7.29c-5.69,0-10.32,4.63-10.32,10.32
		c0,5.68,4.63,10.31,10.32,10.31c4.63,0,8.56-3.07,9.86-7.29h121.08L113.36,93c-1.55,3.11-2.63,6.5-3.16,10.07H98.73
		c-1.29-4.21-5.22-7.29-9.86-7.29c-5.69,0-10.32,4.63-10.32,10.32c0,5.68,4.63,10.32,10.32,10.32c4.63,0,8.56-3.08,9.86-7.29h121.08
		l-109.47,4.71c0.6,3.5,1.75,6.82,3.34,9.87h-28.7c-1.29-4.21-5.22-7.29-9.86-7.29c-5.69,0-10.32,4.63-10.32,10.31
		c0,5.69,4.63,10.32,10.32,10.32c4.63,0,8.56-3.08,9.86-7.29h121.08l-84.27,4.1c5.92,5.04,13.59,8.09,21.95,8.09h102.11
		c21.69,0,39.34-17.65,39.34-39.34S267.54,63.24,245.84,63.24z M75.13,48.48c-2.35,0-4.27-1.91-4.27-4.27
		c0-2.35,1.92-4.26,4.27-4.26c2.35,0,4.26,1.91,4.26,4.26C79.39,46.57,77.48,48.48,75.13,48.48z M88.87,69.1
		c-2.35,0-4.27-1.91-4.27-4.26c0-2.35,1.92-4.27,4.27-4.27c2.35,0,4.26,1.92,4.26,4.27C93.14,67.19,91.22,69.1,88.87,69.1z
		 M75.13,89.73c-2.35,0-4.27-1.91-4.27-4.26c0-2.35,1.92-4.27,4.27-4.27c2.35,0,4.26,1.92,4.26,4.27
		C79.39,87.81,77.48,89.73,75.13,89.73z M88.87,110.36c-2.35,0-4.27-1.92-4.27-4.27c0-2.35,1.92-4.27,4.27-4.27
		c2.35,0,4.26,1.92,4.26,4.27C93.14,108.44,91.22,110.36,88.87,110.36z M75.13,130.98c-2.35,0-4.27-1.92-4.27-4.27
		c0-2.35,1.92-4.26,4.27-4.26c2.35,0,4.26,1.91,4.26,4.26C79.39,129.06,77.48,130.98,75.13,130.98z"/>
	<path class="st41" d="M217.18,61.82h-66.21c1.66-4.46,4.01-8.58,6.92-12.24l48.18-2.35L217.18,61.82z M219.81,67.86l-71.24,3.46
		c-0.14,1.03-0.25,2.06-0.31,3.1c-1.49-0.2-3-0.3-4.52-0.3c-8.49,0-16.26,3.14-22.21,8.31h103.25L219.81,67.86z M206.06,88.49
		L113.36,93c-1.55,3.11-2.63,6.5-3.16,10.07H215L206.06,88.49z M110.34,113.82c0.6,3.5,1.75,6.82,3.34,9.87h97.23l8.9-14.58
		L110.34,113.82z M206.06,129.73l-84.27,4.1c5.92,5.04,13.59,8.09,21.95,8.09h67.44L206.06,129.73z"/>
</g>
</svg>
