<?xml version="1.0" encoding="utf-8"?>
<!-- Generator: Adobe Illustrator 27.8.1, SVG Export Plug-In . SVG Version: 6.00 Build 0)  -->
<svg version="1.1" id="Layer_1" xmlns="http://www.w3.org/2000/svg" xmlns:xlink="http://www.w3.org/1999/xlink" x="0px" y="0px"
	 viewBox="0 0 350 230" style="enable-background:new 0 0 350 230;" xml:space="preserve">
<style type="text/css">
	.st0{fill:#005868;}
	.st1{fill:#FF0087;}
	.st2{fill:#002F44;}
	.st3{fill:#FC9500;}
	.st4{fill:#003144;}
	.st5{fill:#00AAFF;}
	.st6{fill:#00FFE6;}
	.st7{fill:#F46CFF;}
	.st8{fill:#0043FF;}
	.st9{fill:#977D00;}
	.st10{fill-rule:evenodd;clip-rule:evenodd;fill:#5BB200;}
	.st11{fill-rule:evenodd;clip-rule:evenodd;fill:#747C04;}
	.st12{fill:#735500;}
	.st13{fill:#4D0600;}
	.st14{fill-rule:evenodd;clip-rule:evenodd;fill:#FF0074;}
	.st15{fill-rule:evenodd;clip-rule:evenodd;fill:#004972;}
	.st16{fill:#FFDB43;}
	.st17{fill:#34A853;}
	.st18{fill:#4285F4;}
	.st19{fill-rule:evenodd;clip-rule:evenodd;fill:#C2C700;}
	.st20{fill-rule:evenodd;clip-rule:evenodd;fill:#FF0062;}
	.st21{fill-rule:evenodd;clip-rule:evenodd;fill:#C44600;}
	.st22{fill:#02D3BE;}
	.st23{fill:#D3B900;}
	.st24{fill:#0055FF;}
	.st25{fill:#D17315;}
	.st26{fill:#9E580B;}
	.st27{fill:url(#SVGID_1_);}
	.st28{fill:#05ADFC;}
	.st29{fill:#F1F9C2;}
	.st30{fill-rule:evenodd;clip-rule:evenodd;fill:#282000;}
	.st31{fill:#414042;}
	.st32{fill:#002E96;}
	.st33{fill:#231F20;}
	.st34{fill:#FFE01A;}
	.st35{fill:#1C87AE;}
	.st36{fill-rule:evenodd;clip-rule:evenodd;fill:#231F20;}
	.st37{fill-rule:evenodd;clip-rule:evenodd;fill:#AE6219;}
	.st38{fill-rule:evenodd;clip-rule:evenodd;fill:#ED1B2D;}
	.st39{fill-rule:evenodd;clip-rule:evenodd;fill:#FFFFFF;}
	.st40{fill:#2581D1;}
	.st41{fill:#1581B7;}
	.st42{fill:#282828;}
	.st43{fill-rule:evenodd;clip-rule:evenodd;fill:#011F4B;}
	.st44{fill-rule:evenodd;clip-rule:evenodd;fill:#005B96;}
	.st45{fill-rule:evenodd;clip-rule:evenodd;fill:#00BFFF;}
	.st46{fill-rule:evenodd;clip-rule:evenodd;fill:#D3DEE4;}
	.st47{fill-rule:evenodd;clip-rule:evenodd;fill:#E3EDF1;}
	.st48{fill:#00235A;}
	.st49{fill:#003076;}
	.st50{fill:#AE6219;}
	.st51{fill:#00BDFF;}
	.st52{display:none;fill:url(#SVGID_00000109024919761311101910000005057912676588563108_);}
	.st53{fill:none;}
	.st54{fill:#011F4B;}
	.st55{fill:#FFFFFF;}
	.st56{fill-rule:evenodd;clip-rule:evenodd;fill:#F39C12;}
	.st57{fill-rule:evenodd;clip-rule:evenodd;fill:#1297E0;}
	.st58{fill-rule:evenodd;clip-rule:evenodd;fill:#CC7C09;}
	.st59{fill-rule:evenodd;clip-rule:evenodd;fill:#19B5FE;}
	.st60{fill:#EA3560;}
	.st61{fill:#C7E7FF;}
	.st62{fill:#002D4F;}
	.st63{fill:#3382D1;}
</style>
<path class="st36" d="M122.85,160.18c5.2,7.31,11.11,14.21,17.3,20.42c10.18,10.22,22.26,19.84,35.17,26.55
	c12.9-6.7,24.99-16.33,35.16-26.55c6.13-6.15,12-12.99,17.16-20.22C192.71,155.19,157.75,154.89,122.85,160.18z M181.45,187.09
	l-6.21-4.52l-6.2,4.52l2.38-7.29l-6.22-4.51l7.68,0.02l2.36-7.32l2.37,7.32l7.68-0.02l-6.22,4.51L181.45,187.09z M190.06,22.85
	v10.12l0.51,0.19l51.13,19V42.03L190.06,22.85z M241.7,52.16v35.1l-22.94-1.97l-5.68-0.48l-23.01-1.98V32.97l-3.12-1.17v66.28
	c24.27,0.33,45.19,2.49,57.88,4.86V53.32L241.7,52.16z M244.82,102.95v1.07l-57.88-4.96v-0.97c-0.4,0-0.8-0.01-1.2-0.01
	c-6.87-0.07-13.15,1.94-17.23,1.98c-26.77,0.22-49.82,1.6-62.9,3.58c-5.22,0.79-8.85,1.67-10.51,2.62
	c21.64-1.13,49.92-1.81,80.87-1.81s59.24,0.68,80.86,1.81C255.03,105.23,250.84,104.06,244.82,102.95z M190.57,33.16l-0.51-0.19
	v49.86l23.01,1.98l1.13-6.27c-0.79-0.54-1.31-1.45-1.31-2.47c0-1.64,1.33-2.97,2.97-2.97c1.65,0,2.98,1.33,2.98,2.97
	c0,1.03-0.52,1.93-1.31,2.47l1.21,6.75l22.94,1.97v-35.1L190.57,33.16z M198.99,53.43l-2.27-0.7v-6.36l-4.58-1.64v-2.47l6.86,2.45
	V53.43z M213.04,58.52c-0.77-0.24-1.52-0.46-2.29-0.7v-6.36c-1.52-0.54-3.05-1.1-4.58-1.64v-2.47c2.29,0.81,4.57,1.64,6.87,2.45
	V58.52z M227.07,63.61c-0.77-0.24-1.52-0.47-2.29-0.7v-6.36c-1.52-0.55-3.05-1.1-4.58-1.64v-2.47c2.29,0.81,4.58,1.63,6.87,2.45
	V63.61z M241.11,68.7l-2.27-0.7v-6.36l-4.6-1.65v-2.47l6.87,2.46V68.7z"/>
<path class="st37" d="M109.95,60.42l-4.35,1.61v43.52l81.33-6.49V31.81L109.95,60.42z M109.57,64.78l73.41-27.28v57.92l-20.15,1.73
	l-2.95,0.25l-21.27,1.83l-2.95,0.26l-20.96,1.8l-2.95,0.25l-2.19,0.19V64.78z M244.82,102.95v1.07l-57.88-4.96v-0.97
	C211.21,98.42,232.13,100.58,244.82,102.95z M159.88,48.76v51.27l2.95-0.26V50.91l16.5-5.9v-3.19L159.88,48.76z M135.67,57.51v44.61
	l2.95-0.26V59.65l16.5-5.9v-3.21L135.67,57.51z M111.76,66.3v37.87l2.95-0.25V68.44l16.5-5.9v-3.19L111.76,66.3z"/>
<path class="st38" d="M102.07,135.68c2.98,8.92,7.01,16.72,12.02,23.5l0.73-2.4l7.34-1.12c35.3-5.35,70.86-5.03,106.15,0.21
	l7.38,1.1l0.86,2.22c5-6.78,9.04-14.58,12.02-23.5H102.07z M190.06,31.42v-8.57l-80.11,30.17v7.41l75.96-27.77l1.03,0.11l3.12,0.34
	l0.51,0.06l1.69,0.18L190.06,31.42z M164.67,91.6v2.46c5.02-0.6,10.04-1.21,15.07-1.83v-2.46C174.71,90.37,169.69,90.98,164.67,91.6
	z M164.67,86.05v2.46c5.02-0.78,10.04-1.56,15.07-2.33V83.7C174.71,84.48,169.69,85.27,164.67,86.05z M164.67,80.5v2.46
	c5.02-0.94,10.04-1.9,15.07-2.84v-2.47C174.71,78.59,169.69,79.54,164.67,80.5z M164.67,74.94v2.47c5.02-1.12,10.04-2.24,15.07-3.36
	v-2.47C174.71,72.7,169.69,73.82,164.67,74.94z M164.67,69.38v2.47c5.02-1.28,10.04-2.58,15.07-3.86v-2.47
	C174.71,66.8,169.69,68.1,164.67,69.38z M164.67,63.83v2.47c5.02-1.46,10.04-2.91,15.07-4.37v-2.47
	C174.71,60.91,169.69,62.37,164.67,63.83z M164.67,58.28v2.47c5.02-1.63,10.04-3.25,15.07-4.88v-2.49
	C174.71,55.02,169.69,56.65,164.67,58.28z M164.67,52.72v2.49l15.07-5.4v-2.47L164.67,52.72z M140.46,94.4v2.46
	c5.02-0.61,10.04-1.23,15.06-1.83v-2.47C150.5,93.18,145.48,93.79,140.46,94.4z M140.46,89.69v2.47c5.02-0.78,10.04-1.57,15.06-2.35
	v-2.46C150.5,88.13,145.48,88.91,140.46,89.69z M140.46,84.99v2.47c5.02-0.95,10.04-1.9,15.06-2.85v-2.47
	C150.5,83.09,145.48,84.04,140.46,84.99z M140.46,80.28v2.47c5.02-1.12,10.04-2.24,15.06-3.36v-2.47
	C150.5,78.05,145.48,79.17,140.46,80.28z M140.46,75.57v2.47c5.02-1.28,10.04-2.57,15.06-3.85v-2.47
	C150.5,73,145.48,74.29,140.46,75.57z M140.46,70.87v2.47c5.02-1.45,10.04-2.91,15.06-4.37V66.5
	C150.5,67.96,145.48,69.42,140.46,70.87z M140.46,66.17v2.47c5.02-1.63,10.04-3.25,15.06-4.88v-2.47
	C150.5,62.92,145.48,64.54,140.46,66.17z M140.46,61.47v2.47l15.06-5.39v-2.49L140.46,61.47z M116.25,96.88v2.46
	c5.02-0.62,10.04-1.26,15.06-1.9v-2.46C126.29,95.6,121.27,96.24,116.25,96.88z M116.25,92.43v2.46c5.02-0.82,10.04-1.65,15.06-2.49
	v-2.46C126.29,90.77,121.27,91.6,116.25,92.43z M116.25,87.98v2.47c5.02-1.03,10.04-2.04,15.06-3.06v-2.47
	C126.29,85.94,121.27,86.97,116.25,87.98z M116.25,83.54v2.47c5.02-1.21,10.04-2.43,15.06-3.65V79.9
	C126.29,81.11,121.27,82.32,116.25,83.54z M116.25,79.09v2.47c5.02-1.41,10.04-2.82,15.06-4.23v-2.47
	C126.29,76.28,121.27,77.68,116.25,79.09z M116.25,74.64v2.49c5.02-1.6,10.04-3.21,15.06-4.81v-2.49
	C126.29,71.44,121.27,73.04,116.25,74.64z M116.25,70.2v2.47l15.06-5.39v-2.47L116.25,70.2z"/>
<path class="st39" d="M218.75,85.29l-5.68-0.48l-0.4,2.2l6.46,0.37L218.75,85.29z"/>
</svg>
