<?xml version="1.0" encoding="utf-8"?>
<!-- Generator: Adobe Illustrator 27.8.1, SVG Export Plug-In . SVG Version: 6.00 Build 0)  -->
<svg version="1.1" id="Layer_1" xmlns="http://www.w3.org/2000/svg" xmlns:xlink="http://www.w3.org/1999/xlink" x="0px" y="0px"
	 viewBox="0 0 350 230" style="enable-background:new 0 0 350 230;" xml:space="preserve">
<style type="text/css">
	.st0{fill:#005868;}
	.st1{fill:#FF0087;}
	.st2{fill:#002F44;}
	.st3{fill:#FC9500;}
	.st4{fill:#003144;}
	.st5{fill:#00AAFF;}
	.st6{fill:#00FFE6;}
	.st7{fill:#F46CFF;}
	.st8{fill:#0043FF;}
	.st9{fill:#977D00;}
	.st10{fill-rule:evenodd;clip-rule:evenodd;fill:#5BB200;}
	.st11{fill-rule:evenodd;clip-rule:evenodd;fill:#747C04;}
	.st12{fill:#735500;}
	.st13{fill:#4D0600;}
	.st14{fill-rule:evenodd;clip-rule:evenodd;fill:#FF0074;}
	.st15{fill-rule:evenodd;clip-rule:evenodd;fill:#004972;}
	.st16{fill:#FFDB43;}
	.st17{fill:#34A853;}
	.st18{fill:#4285F4;}
	.st19{fill-rule:evenodd;clip-rule:evenodd;fill:#C2C700;}
	.st20{fill-rule:evenodd;clip-rule:evenodd;fill:#FF0062;}
	.st21{fill-rule:evenodd;clip-rule:evenodd;fill:#C44600;}
	.st22{fill:#02D3BE;}
	.st23{fill:#D3B900;}
	.st24{fill:#0055FF;}
	.st25{fill:#D17315;}
	.st26{fill:#9E580B;}
	.st27{fill:url(#SVGID_1_);}
	.st28{fill:#05ADFC;}
	.st29{fill:#F1F9C2;}
	.st30{fill-rule:evenodd;clip-rule:evenodd;fill:#282000;}
	.st31{fill:#414042;}
	.st32{fill:#002E96;}
	.st33{fill:#231F20;}
	.st34{fill:#FFE01A;}
	.st35{fill:#1C87AE;}
	.st36{fill-rule:evenodd;clip-rule:evenodd;fill:#231F20;}
	.st37{fill-rule:evenodd;clip-rule:evenodd;fill:#AE6219;}
	.st38{fill-rule:evenodd;clip-rule:evenodd;fill:#ED1B2D;}
	.st39{fill-rule:evenodd;clip-rule:evenodd;fill:#FFFFFF;}
	.st40{fill:#2581D1;}
	.st41{fill:#1581B7;}
	.st42{fill:#282828;}
	.st43{fill-rule:evenodd;clip-rule:evenodd;fill:#011F4B;}
	.st44{fill-rule:evenodd;clip-rule:evenodd;fill:#005B96;}
	.st45{fill-rule:evenodd;clip-rule:evenodd;fill:#00BFFF;}
	.st46{fill-rule:evenodd;clip-rule:evenodd;fill:#D3DEE4;}
	.st47{fill-rule:evenodd;clip-rule:evenodd;fill:#E3EDF1;}
	.st48{fill:#00235A;}
	.st49{fill:#003076;}
	.st50{fill:#AE6219;}
	.st51{fill:#00BDFF;}
	.st52{display:none;fill:url(#SVGID_00000177455748390455355530000017488324491386409892_);}
	.st53{fill:none;}
	.st54{fill:#011F4B;}
	.st55{fill:#FFFFFF;}
	.st56{fill-rule:evenodd;clip-rule:evenodd;fill:#F39C12;}
	.st57{fill-rule:evenodd;clip-rule:evenodd;fill:#1297E0;}
	.st58{fill-rule:evenodd;clip-rule:evenodd;fill:#CC7C09;}
	.st59{fill-rule:evenodd;clip-rule:evenodd;fill:#19B5FE;}
	.st60{fill:#EA3560;}
	.st61{fill:#C7E7FF;}
	.st62{fill:#002D4F;}
	.st63{fill:#3382D1;}
</style>
<g>
	<path class="st35" d="M149.48,57.66c0-10.17,5.96-18.96,14.57-23.04L59.97,58.06v70.22h90.62l13.12-47.73
		C155.28,76.37,149.48,67.69,149.48,57.66z M94.46,120.32c0.12-0.15-28.36,0.65-28.36,0.65V78.3l3.66-0.57v36.49l24.7-1.08
		C94.46,113.13,94.35,120.47,94.46,120.32z M95.12,106.52l-22.4,1.4v-2l22.4-1.54V106.52z M95.12,97.03l-22.4,2.02v-2.01l22.4-2.16
		V97.03z M95.12,87.53l-22.4,2.64v-2.01l22.4-2.78V87.53z M95.12,78.03l-22.4,3.25v-2.01l22.4-3.38V78.03z M143.69,119.19
		c0.14-0.18-36.58,0.84-36.58,0.84V71.85l4.67-0.74v41.26l31.91-1.39C143.69,110.98,143.54,119.37,143.69,119.19z M144.55,103.42
		l-28.98,1.82v-2.27l28.98-2V103.42z M144.55,92.57l-28.98,2.6v-2.27l28.98-2.79V92.57z M144.55,81.72l-28.98,3.41v-2.28l28.98-3.57
		V81.72z M144.55,70.86l-28.98,4.2V72.8l28.98-4.38V70.86z"/>
	<path class="st35" d="M185.93,34.6c8.61,4.1,14.57,12.89,14.57,23.05c0,10.04-5.8,18.72-14.23,22.89l13.12,47.73h90.63V58.06
		L185.93,34.6z M254.88,75.89l22.4,3.38v2.01l-22.4-3.25V75.89z M254.88,85.38l22.4,2.78v2.01l-22.4-2.64V85.38z M254.88,94.88
		l22.4,2.16v2.01l-22.4-2.02V94.88z M205.45,68.42l28.98,4.38v2.27l-28.98-4.2V68.42z M205.45,79.27l28.98,3.57v2.28l-28.98-3.41
		V79.27z M205.45,90.12l28.98,2.79v2.27l-28.98-2.6V90.12z M205.45,100.97l28.98,2v2.27l-28.98-1.82V100.97z M242.88,120.03
		c0,0-36.72-1.02-36.58-0.84c0.15,0.18,0-8.21,0-8.21l31.91,1.39V71.11l4.67,0.74V120.03z M254.88,104.38l22.4,1.54v2l-22.4-1.4
		V104.38z M283.89,120.97c0,0-28.47-0.81-28.36-0.65c0.11,0.15,0-7.19,0-7.19l24.7,1.08V77.73l3.66,0.57V120.97z"/>
</g>
</svg>
