<?xml version="1.0" encoding="utf-8"?>
<!-- Generator: Adobe Illustrator 27.8.1, SVG Export Plug-In . SVG Version: 6.00 Build 0)  -->
<svg version="1.1" id="Layer_1" xmlns="http://www.w3.org/2000/svg" xmlns:xlink="http://www.w3.org/1999/xlink" x="0px" y="0px"
	 viewBox="0 0 350 230" style="enable-background:new 0 0 350 230;" xml:space="preserve">
<style type="text/css">
	.st0{fill:#005868;}
	.st1{fill:#FF0087;}
	.st2{fill:#002F44;}
	.st3{fill:#FC9500;}
	.st4{fill:#003144;}
	.st5{fill:#00AAFF;}
	.st6{fill:#00FFE6;}
	.st7{fill:#F46CFF;}
	.st8{fill:#0043FF;}
	.st9{fill:#977D00;}
	.st10{fill-rule:evenodd;clip-rule:evenodd;fill:#5BB200;}
	.st11{fill-rule:evenodd;clip-rule:evenodd;fill:#747C04;}
	.st12{fill:#735500;}
	.st13{fill:#4D0600;}
	.st14{fill-rule:evenodd;clip-rule:evenodd;fill:#FF0074;}
	.st15{fill-rule:evenodd;clip-rule:evenodd;fill:#004972;}
	.st16{fill:#FFDB43;}
	.st17{fill:#34A853;}
	.st18{fill:#4285F4;}
	.st19{fill-rule:evenodd;clip-rule:evenodd;fill:#C2C700;}
	.st20{fill-rule:evenodd;clip-rule:evenodd;fill:#FF0062;}
	.st21{fill-rule:evenodd;clip-rule:evenodd;fill:#C44600;}
	.st22{fill:#02D3BE;}
	.st23{fill:#D3B900;}
	.st24{fill:#0055FF;}
	.st25{fill:#D17315;}
	.st26{fill:#9E580B;}
	.st27{fill:url(#SVGID_1_);}
	.st28{fill:#05ADFC;}
	.st29{fill:#F1F9C2;}
	.st30{fill-rule:evenodd;clip-rule:evenodd;fill:#282000;}
	.st31{fill:#414042;}
	.st32{fill:#002E96;}
	.st33{fill:#231F20;}
	.st34{fill:#FFE01A;}
	.st35{fill:#1C87AE;}
	.st36{fill-rule:evenodd;clip-rule:evenodd;fill:#231F20;}
	.st37{fill-rule:evenodd;clip-rule:evenodd;fill:#AE6219;}
	.st38{fill-rule:evenodd;clip-rule:evenodd;fill:#ED1B2D;}
	.st39{fill-rule:evenodd;clip-rule:evenodd;fill:#FFFFFF;}
	.st40{fill:#2581D1;}
	.st41{fill:#1581B7;}
	.st42{fill:#282828;}
	.st43{fill-rule:evenodd;clip-rule:evenodd;fill:#011F4B;}
	.st44{fill-rule:evenodd;clip-rule:evenodd;fill:#005B96;}
	.st45{fill-rule:evenodd;clip-rule:evenodd;fill:#00BFFF;}
	.st46{fill-rule:evenodd;clip-rule:evenodd;fill:#D3DEE4;}
	.st47{fill-rule:evenodd;clip-rule:evenodd;fill:#E3EDF1;}
	.st48{fill:#00235A;}
	.st49{fill:#003076;}
	.st50{fill:#AE6219;}
	.st51{fill:#00BDFF;}
	.st52{display:none;fill:url(#SVGID_00000010995133546633524520000017209782236092291987_);}
	.st53{fill:none;}
	.st54{fill:#011F4B;}
	.st55{fill:#FFFFFF;}
	.st56{fill-rule:evenodd;clip-rule:evenodd;fill:#F39C12;}
	.st57{fill-rule:evenodd;clip-rule:evenodd;fill:#1297E0;}
	.st58{fill-rule:evenodd;clip-rule:evenodd;fill:#CC7C09;}
	.st59{fill-rule:evenodd;clip-rule:evenodd;fill:#19B5FE;}
	.st60{fill:#EA3560;}
	.st61{fill:#C7E7FF;}
	.st62{fill:#002D4F;}
	.st63{fill:#3382D1;}
</style>
<path class="st42" d="M261.84,145.05c-11.24,0-36.51,0-64.64,0V121.6h22.28L174.8,62.96l-44.68,58.64h22.28v23.44
	c-31.72,0-59.63,0-67.59,0c-52.93,0-42.08-60.22-2.96-54.51c-0.48-6.25,0.38-12.75,2.86-19.13c7.27-18.72,27-30.15,46.86-27.17
	c7.14,1.07,13.53,3.79,18.93,7.65c0.93-6.41,4-12.98,9.36-18.27c3.5-3.46,10.49-6.83,15.36-7.51c19.51-2.73,34.18,10.98,35.7,27.29
	c4.93-2.56,10.77-3.42,16.58-1.97c11.66,2.9,19.1,13.99,17.77,25.62C308.09,66.32,324.11,145.05,261.84,145.05z M245.27,77.04
	c1.33-11.63-6.11-22.72-17.77-25.62c-5.81-1.45-11.65-0.58-16.58,1.97c-1.53-16.32-16.19-30.03-35.7-27.29
	c-4.87,0.68-11.86,4.06-15.36,7.51c-5.36,5.29-8.43,11.86-9.36,18.27c-5.4-3.86-11.79-6.58-18.93-7.65
	C111.7,41.26,91.97,52.68,84.7,71.4c-2.47,6.38-3.33,12.88-2.86,19.13c-39.11-5.71-49.96,54.51,2.96,54.51c7.96,0,35.87,0,67.59,0
	V121.6h-22.28l44.68-58.64l44.68,58.64H197.2v23.44c28.13,0,53.4,0,64.64,0C324.11,145.05,308.09,66.32,245.27,77.04z M180.15,26.68
	c15.59,0,28.42,11.52,29.85,26.8l0.13,1.37l1.22-0.63c3.24-1.68,6.86-2.57,10.47-2.57c1.83,0,3.67,0.23,5.46,0.67
	c11.03,2.74,18.37,13.33,17.08,24.62l-0.14,1.23l1.22-0.21c3.85-0.66,7.64-0.99,11.28-0.99c27.3,0,43.62,18.88,43.62,37.14
	c0,13.85-10.08,30.02-38.48,30.02h-63.71v-21.59h21.35h1.87l-1.13-1.49L175.54,62.4l-0.74-0.97l-0.74,0.97l-44.68,58.64l-1.13,1.49
	h1.87h21.35v21.59H84.81c-15.2,0-26.53-5.14-31.93-14.48c-4.41-7.64-4.27-17.38,0.37-25.42c4.82-8.35,13.37-13.14,23.45-13.13
	c1.63,0,3.31,0.13,5,0.37l1.15,0.17l-0.09-1.15c-0.49-6.39,0.45-12.69,2.8-18.73c6.28-16.18,22.23-27.05,39.69-27.05
	c2.06,0,4.13,0.15,6.17,0.46c6.77,1.01,13,3.53,18.53,7.49l1.24,0.89l0.22-1.51c0.95-6.59,4.18-12.89,9.09-17.75
	c3.31-3.27,10.1-6.59,14.84-7.25C176.95,26.79,178.57,26.68,180.15,26.68L180.15,26.68z M180.15,25.75c-1.61,0-3.25,0.11-4.93,0.35
	c-4.87,0.68-11.86,4.06-15.36,7.51c-5.36,5.29-8.43,11.86-9.36,18.27c-5.4-3.86-11.79-6.58-18.93-7.65
	c-2.11-0.32-4.21-0.47-6.31-0.47c-17.6,0-34.06,10.91-40.55,27.64c-2.47,6.38-3.33,12.88-2.86,19.13c-1.77-0.26-3.48-0.38-5.13-0.38
	c-34.83,0-42.44,54.89,8.1,54.89c7.96,0,35.87,0,67.59,0V121.6h-22.28l44.68-58.64l44.68,58.64H197.2v23.44c28.13,0,53.4,0,64.64,0
	c58.3,0,47.97-69.01-5.13-69.01c-3.62,0-7.42,0.32-11.43,1c1.33-11.63-6.11-22.72-17.77-25.62c-1.9-0.47-3.81-0.7-5.68-0.7
	c-3.85,0-7.58,0.95-10.9,2.67C209.52,38.49,197.15,25.75,180.15,25.75L180.15,25.75z"/>
<path class="st42" d="M247.08,138.61c-9.36,0-30.41,0-53.85,0v-19.53h18.56l-37.22-48.85l-37.22,48.85h18.56v19.53
	c-26.42,0-49.68,0-56.31,0c-44.09,0-35.05-50.17-2.47-45.41c-0.4-5.21,0.32-10.63,2.38-15.94c6.05-15.6,22.49-25.12,39.04-22.64
	c5.95,0.89,11.27,3.16,15.77,6.37c0.77-5.34,3.33-10.81,7.8-15.22c2.91-2.88,8.74-5.69,12.8-6.26c16.25-2.28,28.47,9.14,29.74,22.74
	c4.11-2.13,8.97-2.85,13.81-1.65c9.71,2.42,15.92,11.66,14.81,21.34C285.61,73.02,298.95,138.61,247.08,138.61z M233.28,81.95
	c1.11-9.69-5.09-18.93-14.81-21.34c-4.84-1.2-9.71-0.48-13.81,1.65c-1.27-13.59-13.49-25.01-29.74-22.74
	c-4.06,0.57-9.88,3.38-12.8,6.26c-4.46,4.41-7.03,9.88-7.8,15.22c-4.5-3.22-9.82-5.48-15.77-6.37
	c-16.55-2.48-32.99,7.04-39.04,22.64c-2.06,5.31-2.78,10.73-2.38,15.94c-32.58-4.75-41.62,45.41,2.47,45.41c6.63,0,29.88,0,56.31,0
	v-19.53h-18.56l37.22-48.85l37.22,48.85h-18.56v19.53c23.43,0,44.49,0,53.85,0C298.95,138.61,285.61,73.02,233.28,81.95z M179.02,40
	c12.98,0,23.67,9.6,24.87,22.33l0.11,1.14l1.02-0.53c2.7-1.4,5.72-2.14,8.72-2.14c1.53,0,3.06,0.19,4.55,0.56
	c9.19,2.29,15.3,11.1,14.23,20.51l-0.12,1.02l1.01-0.17c3.21-0.55,6.37-0.82,9.39-0.82c22.74,0,36.34,15.73,36.34,30.94
	c0,11.54-8.4,25.01-32.06,25.01H194v-17.99h17.79h1.56l-0.94-1.24l-37.22-48.85l-0.61-0.81l-0.61,0.81l-37.22,48.85l-0.94,1.24h1.56
	h17.79v17.99H99.6c-12.66,0-22.1-4.29-26.6-12.07c-3.68-6.37-3.56-14.48,0.31-21.18c4.02-6.95,11.14-10.94,19.54-10.94
	c1.35,0,2.76,0.1,4.16,0.31l0.95,0.14l-0.07-0.96c-0.41-5.32,0.38-10.57,2.33-15.6C105.46,64.06,118.75,55,133.29,55
	c1.71,0,3.44,0.13,5.14,0.38c5.64,0.85,10.83,2.94,15.43,6.24l1.03,0.74l0.18-1.26c0.79-5.49,3.48-10.74,7.58-14.78
	c2.76-2.72,8.42-5.49,12.36-6.04C176.36,40.09,177.71,40,179.02,40L179.02,40z M179.02,39.23c-1.34,0-2.71,0.09-4.11,0.29
	c-4.06,0.57-9.88,3.38-12.8,6.26c-4.46,4.41-7.03,9.88-7.8,15.22c-4.5-3.22-9.82-5.48-15.77-6.37c-1.76-0.26-3.51-0.39-5.25-0.39
	c-14.67,0-28.37,9.08-33.78,23.03c-2.06,5.31-2.78,10.73-2.38,15.94c-1.47-0.22-2.9-0.32-4.28-0.32c-29.02,0-35.35,45.73,6.75,45.73
	c6.63,0,29.88,0,56.31,0v-19.53h-18.56l37.22-48.85l37.22,48.85h-18.56v19.53c23.43,0,44.49,0,53.85,0
	c48.57,0,39.96-57.49-4.28-57.49c-3.01,0-6.18,0.27-9.52,0.84c1.11-9.69-5.09-18.93-14.81-21.34c-1.59-0.39-3.17-0.58-4.74-0.58
	c-3.21,0-6.32,0.79-9.08,2.23C203.49,49.83,193.19,39.23,179.02,39.23L179.02,39.23z"/>
<g>
	<path class="st51" d="M257.43,143.77c-10.66,0-34.65,0-61.35,0v-22.25h21.14l-42.41-55.66l-42.41,55.66h21.14v22.25
		c-30.1,0-56.6,0-64.15,0c-50.24,0-39.94-57.16-2.81-51.74c-0.45-5.94,0.36-12.11,2.71-18.16c6.9-17.77,25.63-28.62,44.48-25.79
		c6.77,1.02,12.84,3.6,17.97,7.26c0.88-6.08,3.8-12.32,8.88-17.34c3.32-3.28,9.96-6.48,14.58-7.13
		c18.52-2.59,32.44,10.42,33.89,25.9c4.68-2.43,10.22-3.25,15.74-1.87c11.07,2.75,18.13,13.28,16.87,24.32
		C301.33,69.05,316.53,143.77,257.43,143.77z"/>
	<radialGradient id="SVGID_1_" cx="177.2418" cy="151.5355" r="128.4755" gradientUnits="userSpaceOnUse">
		<stop  offset="0.5196" style="stop-color:#000000"/>
		<stop  offset="0.6281" style="stop-color:#000303"/>
		<stop  offset="0.6979" style="stop-color:#000B0B"/>
		<stop  offset="0.7568" style="stop-color:#001A1A"/>
		<stop  offset="0.8097" style="stop-color:#002F2F"/>
		<stop  offset="0.8586" style="stop-color:#004A4A"/>
		<stop  offset="0.9044" style="stop-color:#006C6B"/>
		<stop  offset="0.948" style="stop-color:#009392"/>
		<stop  offset="0.9886" style="stop-color:#00C0BE"/>
		<stop  offset="1" style="stop-color:#00CECC"/>
	</radialGradient>
	<path style="display:none;fill:url(#SVGID_1_);" d="M241.7,79.22c1.26-11.04-5.8-21.56-16.87-24.32
		c-5.52-1.37-11.06-0.55-15.74,1.87c-1.45-15.49-15.37-28.5-33.89-25.9c-4.62,0.65-11.26,3.85-14.58,7.13
		c-5.09,5.03-8,11.26-8.88,17.34c-5.13-3.67-11.19-6.25-17.97-7.26c-18.85-2.83-37.58,8.02-44.48,25.79
		c-2.35,6.05-3.16,12.22-2.71,18.16c-37.12-5.42-47.42,51.74,2.81,51.74c7.56,0,34.05,0,64.15,0v-22.25h-21.14l42.41-55.66
		l42.41,55.66h-21.14v22.25c26.7,0,50.69,0,61.35,0C316.53,143.77,301.33,69.05,241.7,79.22z"/>
	<path class="st53" d="M179.89,31.42c14.79,0,26.97,10.94,28.33,25.44l0.12,1.3l1.16-0.6c3.08-1.6,6.51-2.44,9.94-2.44
		c1.74,0,3.48,0.21,5.18,0.64c10.47,2.6,17.44,12.65,16.21,23.36l-0.13,1.16l1.15-0.2c3.65-0.62,7.25-0.94,10.7-0.94
		c25.91,0,41.4,17.92,41.4,35.25c0,13.15-9.57,28.5-36.53,28.5h-60.47V122.4h20.27H219l-1.08-1.41l-42.41-55.66l-0.7-0.92l-0.7,0.92
		l-42.41,55.66l-1.08,1.41h1.77h20.27v20.49H89.4c-14.42,0-25.19-4.88-30.3-13.75c-4.19-7.25-4.05-16.5,0.36-24.13
		c4.58-7.92,12.69-12.47,22.26-12.47c1.54,0,3.14,0.12,4.74,0.35l1.09,0.16l-0.08-1.1C87,85.9,87.89,79.92,90.12,74.19
		c5.96-15.36,21.1-25.67,37.67-25.67c1.95,0,3.92,0.15,5.85,0.44c6.42,0.96,12.34,3.35,17.58,7.11l1.18,0.84l0.21-1.43
		c0.9-6.26,3.97-12.24,8.63-16.84c3.14-3.1,9.59-6.25,14.09-6.88C176.86,31.53,178.39,31.42,179.89,31.42 M179.89,30.54
		c-1.52,0-3.09,0.11-4.68,0.33c-4.62,0.65-11.26,3.85-14.58,7.13c-5.09,5.03-8,11.26-8.88,17.34c-5.13-3.67-11.19-6.25-17.97-7.26
		c-2-0.3-4-0.45-5.98-0.45c-16.71,0-32.33,10.35-38.49,26.24c-2.35,6.05-3.16,12.22-2.71,18.16c-1.68-0.25-3.3-0.36-4.87-0.36
		c-33.06,0-40.28,52.1,7.68,52.1c7.56,0,34.05,0,64.15,0v-22.25h-21.14l42.41-55.66l42.41,55.66h-21.14v22.25
		c26.7,0,50.69,0,61.35,0c55.33,0,45.53-65.5-4.87-65.5c-3.43,0-7.05,0.3-10.85,0.95c1.26-11.04-5.8-21.56-16.87-24.32
		c-1.81-0.45-3.62-0.66-5.4-0.66c-3.66,0-7.2,0.91-10.34,2.54C207.77,42.63,196.03,30.54,179.89,30.54L179.89,30.54z"/>
</g>
</svg>
