<?xml version="1.0" encoding="utf-8"?>
<!-- Generator: Adobe Illustrator 27.8.1, SVG Export Plug-In . SVG Version: 6.00 Build 0)  -->
<svg version="1.1" id="Layer_1" xmlns="http://www.w3.org/2000/svg" xmlns:xlink="http://www.w3.org/1999/xlink" x="0px" y="0px"
	 viewBox="0 0 350 230" style="enable-background:new 0 0 350 230;" xml:space="preserve">
<style type="text/css">
	.st0{fill:#005868;}
	.st1{fill:#FF0087;}
	.st2{fill:#002F44;}
	.st3{fill:#FC9500;}
	.st4{fill:#003144;}
	.st5{fill:#00AAFF;}
	.st6{fill:#00FFE6;}
	.st7{fill:#F46CFF;}
	.st8{fill:#0043FF;}
	.st9{fill:#977D00;}
	.st10{fill-rule:evenodd;clip-rule:evenodd;fill:#5BB200;}
	.st11{fill-rule:evenodd;clip-rule:evenodd;fill:#747C04;}
	.st12{fill:#735500;}
	.st13{fill:#4D0600;}
	.st14{fill-rule:evenodd;clip-rule:evenodd;fill:#FF0074;}
	.st15{fill-rule:evenodd;clip-rule:evenodd;fill:#004972;}
	.st16{fill:#FFDB43;}
	.st17{fill:#34A853;}
	.st18{fill:#4285F4;}
	.st19{fill-rule:evenodd;clip-rule:evenodd;fill:#C2C700;}
	.st20{fill-rule:evenodd;clip-rule:evenodd;fill:#FF0062;}
	.st21{fill-rule:evenodd;clip-rule:evenodd;fill:#C44600;}
	.st22{fill:#02D3BE;}
	.st23{fill:#D3B900;}
	.st24{fill:#0055FF;}
	.st25{fill:#D17315;}
	.st26{fill:#9E580B;}
	.st27{fill:url(#SVGID_1_);}
	.st28{fill:#05ADFC;}
	.st29{fill:#F1F9C2;}
	.st30{fill-rule:evenodd;clip-rule:evenodd;fill:#282000;}
	.st31{fill:#414042;}
	.st32{fill:#002E96;}
	.st33{fill:#231F20;}
	.st34{fill:#FFE01A;}
	.st35{fill:#1C87AE;}
	.st36{fill-rule:evenodd;clip-rule:evenodd;fill:#231F20;}
	.st37{fill-rule:evenodd;clip-rule:evenodd;fill:#AE6219;}
	.st38{fill-rule:evenodd;clip-rule:evenodd;fill:#ED1B2D;}
	.st39{fill-rule:evenodd;clip-rule:evenodd;fill:#FFFFFF;}
	.st40{fill:#2581D1;}
	.st41{fill:#1581B7;}
	.st42{fill:#282828;}
	.st43{fill-rule:evenodd;clip-rule:evenodd;fill:#011F4B;}
	.st44{fill-rule:evenodd;clip-rule:evenodd;fill:#005B96;}
	.st45{fill-rule:evenodd;clip-rule:evenodd;fill:#00BFFF;}
	.st46{fill-rule:evenodd;clip-rule:evenodd;fill:#D3DEE4;}
	.st47{fill-rule:evenodd;clip-rule:evenodd;fill:#E3EDF1;}
	.st48{fill:#00235A;}
	.st49{fill:#003076;}
	.st50{fill:#AE6219;}
	.st51{fill:#00BDFF;}
	.st52{display:none;fill:url(#SVGID_00000132809202446778462710000003866413261618663832_);}
	.st53{fill:none;}
	.st54{fill:#011F4B;}
	.st55{fill:#FFFFFF;}
	.st56{fill-rule:evenodd;clip-rule:evenodd;fill:#F39C12;}
	.st57{fill-rule:evenodd;clip-rule:evenodd;fill:#1297E0;}
	.st58{fill-rule:evenodd;clip-rule:evenodd;fill:#CC7C09;}
	.st59{fill-rule:evenodd;clip-rule:evenodd;fill:#19B5FE;}
	.st60{fill:#EA3560;}
	.st61{fill:#C7E7FF;}
	.st62{fill:#002D4F;}
	.st63{fill:#3382D1;}
</style>
<g id="Layer_x0020_1_3_">
	<g id="_2576605838544">
		<path class="st56" d="M182.86,29.33c7.14,1.04,13.75,3.54,19.61,7.14c8.3,5.05,15.08,12.36,19.55,21l3.02,5.92l6.38-2.03
			c1.86-0.64,3.77-1.1,5.63-1.39h0.06c1.8-0.29,3.77-0.41,5.86-0.41c10.33,0,19.67,4.18,26.45,10.91
			c6.73,6.79,10.91,16.13,10.91,26.45s-4.18,19.67-10.91,26.39c-6.79,6.79-16.13,10.96-26.45,10.96h-58.88v15.72h58.88
			c14.68,0,27.96-5.98,37.53-15.55c9.63-9.63,15.55-22.91,15.55-37.53c0-14.68-5.92-27.96-15.55-37.53
			c-9.57-9.63-22.86-15.55-37.53-15.55c-2.73,0-5.51,0.23-8.3,0.7l-1.86,0.29c-5.63-8.82-13.23-16.3-22.16-21.75
			c-8.3-5.05-17.69-8.41-27.79-9.57c-2.61-0.29-5.22-0.46-7.89-0.46c-2.61,0-5.28,0.17-7.83,0.46v15.84v55.34h30.92v12.3l17.4-10.09
			l17.46-10.04L215.46,66.8l-17.4-10.09v12.3h-15.2L182.86,29.33L182.86,29.33z"/>
		<path class="st57" d="M153.16,119.82v-12.3h15.2v26.74h-61.32c-10.33,0-19.67-4.18-26.45-10.96
			c-6.73-6.73-10.96-16.07-10.96-26.39s4.23-19.67,10.96-26.45c6.79-6.73,16.13-10.91,26.45-10.91c2.09,0,4.06,0.12,5.86,0.41l0,0
			c1.86,0.29,3.77,0.75,5.69,1.39l6.32,2.03l3.07-5.92c4.41-8.64,11.2-15.95,19.49-21c5.92-3.6,12.53-6.09,19.67-7.14V13.49
			c-10.09,1.16-19.55,4.52-27.79,9.57c-8.93,5.45-16.53,12.94-22.16,21.75l-1.86-0.29c-2.84-0.46-5.63-0.7-8.3-0.7
			c-14.68,0-27.96,5.92-37.53,15.55c-9.63,9.57-15.55,22.86-15.55,37.53c0,14.62,5.92,27.9,15.55,37.53
			c9.57,9.57,22.86,15.55,37.53,15.55h61.32h15.72v-15.72V91.8h-30.92V79.56L135.7,89.6l-17.4,10.09l17.4,10.04L153.16,119.82z"/>
		<path class="st58" d="M175.38,76.78V21.2c25.23,2.26,43.04,13.11,53.54,32.49c30.46-12.12,63.17,16.88,66.89,38
			c-1.28-12.59-6.85-23.84-15.31-32.31c-9.63-9.63-22.86-15.55-37.53-15.55c-2.73,0-5.51,0.23-8.3,0.7l-1.86,0.29
			c-5.63-8.82-13.23-16.3-22.16-21.75c-8.3-5.05-17.69-8.41-27.79-9.57c-2.61-0.29-5.22-0.46-7.89-0.46c-2.61,0-5.28,0.17-7.83,0.46
			v15.84v55.34h30.92v12.3l17.4-10.09l17.46-10.04h-21l-8.35-7.77v7.72L175.38,76.78L175.38,76.78z"/>
		<path class="st59" d="M175.84,99.75v41.71H97.99c-24.19-3.07-38.87-17.93-44.03-44.55c0,14.62,5.92,27.9,15.55,37.53
			c9.57,9.57,22.86,15.55,37.47,15.55h61.37h7.48h8.24v-2.78V91.8h-30.92V79.56L135.7,89.6l-17.4,10.09h21l8.35,7.77v-7.72H175.84z"
			/>
	</g>
</g>
</svg>
