<?xml version="1.0" encoding="utf-8"?>
<!-- Generator: Adobe Illustrator 27.8.1, SVG Export Plug-In . SVG Version: 6.00 Build 0)  -->
<svg version="1.1" id="Layer_1" xmlns="http://www.w3.org/2000/svg" xmlns:xlink="http://www.w3.org/1999/xlink" x="0px" y="0px"
	 viewBox="0 0 350 230" style="enable-background:new 0 0 350 230;" xml:space="preserve">
<style type="text/css">
	.st0{fill:#005868;}
	.st1{fill:#FF0087;}
	.st2{fill:#002F44;}
	.st3{fill:#FC9500;}
	.st4{fill:#003144;}
	.st5{fill:#00AAFF;}
	.st6{fill:#00FFE6;}
	.st7{fill:#F46CFF;}
	.st8{fill:#0043FF;}
	.st9{fill:#977D00;}
	.st10{fill-rule:evenodd;clip-rule:evenodd;fill:#5BB200;}
	.st11{fill-rule:evenodd;clip-rule:evenodd;fill:#747C04;}
	.st12{fill:#735500;}
	.st13{fill:#4D0600;}
	.st14{fill-rule:evenodd;clip-rule:evenodd;fill:#FF0074;}
	.st15{fill-rule:evenodd;clip-rule:evenodd;fill:#004972;}
	.st16{fill:#E5BB07;}
	.st17{fill-rule:evenodd;clip-rule:evenodd;fill:#C2C700;}
	.st18{fill-rule:evenodd;clip-rule:evenodd;fill:#FF0062;}
	.st19{fill-rule:evenodd;clip-rule:evenodd;fill:#C44600;}
	.st20{fill:#02D3BE;}
	.st21{fill:#D3B900;}
	.st22{fill:#0055FF;}
	.st23{fill:#D17315;}
	.st24{fill:#9E580B;}
	.st25{fill:url(#SVGID_1_);}
	.st26{fill:#05ADFC;}
	.st27{fill:#F1F9C2;}
	.st28{fill-rule:evenodd;clip-rule:evenodd;fill:#282000;}
</style>
<g>
	<path class="st6" d="M232.02,91.43l-3.46-2L202.3,74.27c-0.54-0.06-1.05-0.19-1.52-0.4l-14.4,8.32v10.37c0,0.3-0.16,0.56-0.41,0.72
		l-28.94,16.7l-1.64-0.95l29.35-16.94V81.72c0-0.29,0.15-0.56,0.4-0.71l14.22-8.21c-0.08-0.11-0.14-0.22-0.2-0.34l-14.82-8.55
		c-0.22,0.45-0.61,0.85-1.15,1.16c-0.75,0.43-1.72,0.65-2.69,0.65c-0.51,0-1.02-0.06-1.5-0.18v9.58c0,0.3-0.15,0.56-0.4,0.71
		l-40.38,23.31l-1.63-0.95l40.78-23.54v-9.87c-0.62-0.48-0.96-1.11-0.96-1.77c0-0.79,0.49-1.53,1.36-2.03
		c0.02-0.01,0.04-0.02,0.06-0.03c-3.3-0.68-6.79-0.16-9.79,1.57l-20.97,12.11c-0.23,0.37-0.59,0.7-1.04,0.96
		c-0.46,0.27-1.01,0.46-1.6,0.56l-22.99,13.28l-3.46,2c-3.89,2.25-3.89,7.86,0,10.11l50.06,28.9c4.31,2.48,9.61,2.48,13.93,0
		l50.06-28.9C235.91,99.29,235.91,93.68,232.02,91.43z M127.23,92.77c0.05-0.05,0.11-0.09,0.17-0.13l36.17-20.89
		c-0.26-0.36-0.4-0.77-0.4-1.18c0-0.79,0.49-1.54,1.35-2.03c1.52-0.88,3.9-0.87,5.42,0.01c0.87,0.5,1.37,1.25,1.37,2.04
		c0,0.79-0.5,1.53-1.36,2.03c-0.76,0.44-1.73,0.66-2.7,0.66c-0.79,0-1.6-0.15-2.28-0.45l-36.15,20.87L127.23,92.77z M146,103.61
		l23.09-13.33c-0.26-0.36-0.4-0.77-0.4-1.18c0-0.79,0.49-1.53,1.35-2.03c1.52-0.87,3.9-0.87,5.42,0.01
		c0.87,0.51,1.37,1.25,1.37,2.05c0,0.79-0.5,1.53-1.36,2.03c-0.76,0.43-1.73,0.66-2.7,0.66c-0.79,0-1.6-0.15-2.28-0.45l-22.87,13.2
		L146,103.61z M164.79,114.46l34.58-19.97c-0.26-0.36-0.4-0.77-0.4-1.18c0-0.79,0.49-1.53,1.36-2.03c1.52-0.88,3.89-0.87,5.42,0.01
		c0.87,0.5,1.37,1.25,1.37,2.04c0,0.79-0.49,1.54-1.36,2.04c-0.75,0.43-1.73,0.65-2.69,0.65c-0.8,0-1.6-0.15-2.28-0.45l-34.35,19.84
		L164.79,114.46z M144.2,73.5c0,0.51-0.42,0.93-0.93,0.93c-0.51,0-0.93-0.42-0.93-0.93s0.42-0.93,0.93-0.93
		C143.78,72.57,144.2,72.99,144.2,73.5z M167.22,69.31c-0.51,0-0.93,0.42-0.93,0.93c0,0.51,0.42,0.93,0.93,0.93
		c0.51,0,0.93-0.42,0.93-0.93C168.15,69.72,167.73,69.31,167.22,69.31z M172.81,87.95c-0.51,0-0.93,0.42-0.93,0.93
		c0,0.51,0.42,0.93,0.93,0.93c0.51,0,0.93-0.42,0.93-0.93C173.75,88.36,173.33,87.95,172.81,87.95z M203.2,70.24
		c-0.51,0-0.93,0.42-0.93,0.93c0,0.51,0.42,0.93,0.93,0.93c0.51,0,0.93-0.42,0.93-0.93C204.13,70.66,203.71,70.24,203.2,70.24z
		 M180.55,61.85c-0.51,0-0.93,0.42-0.93,0.93s0.42,0.93,0.93,0.93c0.51,0,0.93-0.42,0.93-0.93S181.07,61.85,180.55,61.85z
		 M203.2,92.23c-0.51,0-0.93,0.42-0.93,0.93c0,0.51,0.42,0.93,0.93,0.93c0.51,0,0.93-0.42,0.93-0.93
		C204.13,92.65,203.71,92.23,203.2,92.23z"/>
	<path class="st7" d="M232.02,77.33l-50.06-28.9c-4.31-2.48-9.61-2.48-13.93,0l-50.06,28.9c-3.81,2.2-3.89,7.64-0.22,9.97
		l21.85-12.61c-0.25-0.35-0.37-0.74-0.37-1.14c0-0.79,0.49-1.54,1.36-2.03c1.52-0.88,3.89-0.87,5.42,0.01
		c0.87,0.5,1.37,1.25,1.37,2.04c0,0.38-0.11,0.74-0.32,1.07c-0.23,0.37-0.59,0.7-1.04,0.96c-0.46,0.27-1.01,0.46-1.6,0.56
		c-0.35,0.07-0.73,0.1-1.1,0.1c-0.78,0-1.56-0.14-2.22-0.42L119.5,88.31l1.94,1.12l5.79,3.34c0.05-0.05,0.11-0.09,0.17-0.13
		l36.17-20.89c-0.26-0.36-0.4-0.77-0.4-1.18c0-0.79,0.49-1.54,1.35-2.03c1.52-0.88,3.9-0.87,5.42,0.01c0.87,0.5,1.37,1.25,1.37,2.04
		c0,0.79-0.5,1.53-1.36,2.03c-0.76,0.44-1.73,0.66-2.7,0.66c-0.79,0-1.6-0.15-2.28-0.45l-36.15,20.87l7.76,4.48l40.78-23.54v-9.87
		c-0.62-0.48-0.96-1.11-0.96-1.77c0-0.79,0.49-1.53,1.36-2.03c0.02-0.01,0.04-0.02,0.06-0.03c0.75-0.41,1.69-0.63,2.64-0.63
		c0.98,0,1.96,0.22,2.72,0.66c0.87,0.51,1.37,1.25,1.37,2.05c0,0.3-0.07,0.59-0.21,0.87c-0.22,0.45-0.61,0.85-1.15,1.16
		c-0.75,0.43-1.72,0.65-2.69,0.65c-0.51,0-1.02-0.06-1.5-0.18v9.58c0,0.3-0.15,0.56-0.4,0.71l-40.38,23.31l7.77,4.48l23.09-13.33
		c-0.26-0.36-0.4-0.77-0.4-1.18c0-0.79,0.49-1.53,1.35-2.03c1.52-0.87,3.9-0.87,5.42,0.01c0.87,0.51,1.37,1.25,1.37,2.05
		c0,0.79-0.5,1.53-1.36,2.03c-0.76,0.43-1.73,0.66-2.7,0.66c-0.79,0-1.6-0.15-2.28-0.45l-22.87,13.2l7.76,4.48l29.35-16.94V81.72
		c0-0.29,0.15-0.56,0.4-0.71l14.22-8.21c-0.08-0.11-0.14-0.22-0.2-0.34c-0.14-0.27-0.2-0.55-0.2-0.85c0-0.79,0.49-1.53,1.36-2.03
		c0.76-0.44,1.73-0.66,2.69-0.66c0.98,0,1.96,0.22,2.72,0.66c0.87,0.5,1.37,1.25,1.37,2.04c0,0.79-0.5,1.54-1.36,2.03
		c-0.75,0.44-1.73,0.66-2.69,0.66c-0.26,0-0.51-0.01-0.77-0.05c-0.54-0.06-1.05-0.19-1.52-0.4l-14.4,8.32v10.37
		c0,0.3-0.16,0.56-0.41,0.72l-28.94,16.7l7.76,4.48l34.58-19.97c-0.26-0.36-0.4-0.77-0.4-1.18c0-0.79,0.49-1.53,1.36-2.03
		c1.52-0.88,3.89-0.87,5.42,0.01c0.87,0.5,1.37,1.25,1.37,2.04c0,0.79-0.49,1.54-1.36,2.04c-0.75,0.43-1.73,0.65-2.69,0.65
		c-0.8,0-1.6-0.15-2.28-0.45l-34.35,19.84l1.61,0.93c4.31,2.49,9.61,2.49,13.93,0l46.6-26.91l3.46-1.99
		C235.91,85.19,235.91,79.58,232.02,77.33z"/>
</g>
</svg>
