<?xml version="1.0" encoding="utf-8"?>
<!-- Generator: Adobe Illustrator 27.8.1, SVG Export Plug-In . SVG Version: 6.00 Build 0)  -->
<svg version="1.1" id="Layer_1" xmlns="http://www.w3.org/2000/svg" xmlns:xlink="http://www.w3.org/1999/xlink" x="0px" y="0px"
	 viewBox="0 0 350 230" style="enable-background:new 0 0 350 230;" xml:space="preserve">
<style type="text/css">
	.st0{fill:#005868;}
	.st1{fill:#FF0087;}
	.st2{fill:#002F44;}
	.st3{fill:#FC9500;}
	.st4{fill:#003144;}
	.st5{fill:#00AAFF;}
	.st6{fill:#00FFE6;}
	.st7{fill:#F46CFF;}
	.st8{fill:#0043FF;}
	.st9{fill:#977D00;}
	.st10{fill-rule:evenodd;clip-rule:evenodd;fill:#5BB200;}
	.st11{fill-rule:evenodd;clip-rule:evenodd;fill:#747C04;}
	.st12{fill:#735500;}
	.st13{fill:#4D0600;}
	.st14{fill-rule:evenodd;clip-rule:evenodd;fill:#FF0074;}
	.st15{fill-rule:evenodd;clip-rule:evenodd;fill:#004972;}
	.st16{fill:#E5BB07;}
	.st17{fill-rule:evenodd;clip-rule:evenodd;fill:#C2C700;}
	.st18{fill-rule:evenodd;clip-rule:evenodd;fill:#FF0062;}
	.st19{fill-rule:evenodd;clip-rule:evenodd;fill:#C44600;}
	.st20{fill:#02D3BE;}
	.st21{fill:#D3B900;}
	.st22{fill:#0055FF;}
	.st23{fill:#D17315;}
	.st24{fill:#9E580B;}
	.st25{fill:url(#SVGID_1_);}
	.st26{fill:#05ADFC;}
	.st27{fill:#F1F9C2;}
	.st28{fill-rule:evenodd;clip-rule:evenodd;fill:#282000;}
</style>
<g>
	<path class="st8" d="M178.44,153.6l-56.62-31.86l1.15-2.05l55.39,31.17l48.57-31.13l1.27,1.98L178.44,153.6z M125.85,54.86
		c3.44-1.99,6.69-3.88,9.94-5.75c12.66-7.31,25.33-14.62,37.99-21.94c0.71-0.41,1.25-0.65,2.11-0.15
		c15.69,9.1,31.41,18.16,47.12,27.24c0.29,0.17,0.56,0.36,1.02,0.66c-2.26,1.31-4.4,2.55-6.53,3.78
		c-13.76,7.95-27.53,15.89-41.28,23.86c-0.92,0.53-1.57,0.56-2.5,0.01c-15.53-9-31.08-17.97-46.62-26.94
		C126.76,55.44,126.44,55.22,125.85,54.86z M179.81,62.38c-0.59-2.2-1.09-4.18-1.68-6.14c-0.26-0.85-0.23-1.5,0.34-2.28
		c1.29-1.8,0.92-4.14-0.72-5.56c-1.58-1.37-3.91-1.4-5.53-0.06c-1.65,1.37-2.11,3.77-0.83,5.54c0.66,0.9,0.59,1.63,0.32,2.56
		c-0.56,1.94-1.05,3.9-1.59,5.94C173.45,62.38,176.52,62.38,179.81,62.38z M226.51,61.38c-15.71,9.07-31.42,18.15-47.15,27.19
		c-0.92,0.53-0.96,1.2-0.96,2.05c0.01,17.86,0.01,35.72,0.01,53.58c0,0.47,0,0.95,0,1.69c1.65-0.95,3.04-1.84,4.51-2.56
		c1.07-0.53,1.38-1.23,1.38-2.41c-0.04-15.61-0.02-31.22-0.05-46.83c0-1.1,0.28-1.74,1.29-2.31c11.24-6.44,22.45-12.95,33.68-19.43
		c0.74-0.43,1.51-0.83,2.52-1.38c0,16.76,0,33.24,0,49.93c1.58-0.91,2.89-1.78,4.29-2.45c1.17-0.56,1.54-1.29,1.54-2.61
		c-0.05-17.76-0.04-35.53-0.04-53.29c0-0.48,0-0.97,0-1.68C227.01,61.13,226.75,61.24,226.51,61.38z"/>
	<path class="st9" d="M122.39,60.83c1.82,1.04,3.42,1.87,4.91,2.87c0.38,0.26,0.54,1.08,0.54,1.64c0.03,15.86,0.02,31.71,0.02,47.57
		c0,2.49,0,4.98,0,7.81c-1.87-1.09-3.55-2.03-5.16-3.06c-0.25-0.16-0.3-0.78-0.3-1.19c-0.01-16.1,0-32.2,0-48.3
		C122.39,65.81,122.39,63.47,122.39,60.83z M133.3,68.25c-0.01,18.2-0.01,36.39,0.01,54.59c0,0.4,0.09,1,0.35,1.17
		c1.58,1.01,3.23,1.92,5.12,3.02c0-0.87,0-1.39,0-1.91c0-12.38,0-24.75,0-37.13c0-5.53,0.01-11.05-0.03-16.58
		c0-0.5-0.23-1.21-0.6-1.46c-1.46-0.97-3.02-1.79-4.69-2.74C133.39,67.64,133.3,67.94,133.3,68.25z M149.68,132.03
		c0-13.51,0-27.02,0-40.53c0-4.6,0.02-9.2-0.02-13.8c0-0.47-0.16-1.16-0.49-1.37c-1.53-1-3.15-1.87-4.96-2.92c0,0.91,0,1.53,0,2.16
		c0.01,6.61,0.02,13.21,0.02,19.82c0,11.21-0.02,22.42,0.02,33.63c0,0.52,0.32,1.25,0.74,1.53c1.41,0.95,2.93,1.74,4.64,2.72
		C149.65,132.69,149.68,132.36,149.68,132.03z M160.59,137.59c0-11.25,0-22.51,0-33.76c0-6.56,0.01-13.11-0.02-19.67
		c0-0.5-0.05-1.25-0.36-1.45c-1.57-1.02-3.23-1.9-5-2.91c-0.03,0.5-0.06,0.73-0.06,0.97c0,9.49-0.01,18.99-0.01,28.48
		c0,8.61,0,17.22,0.03,25.84c0,0.54,0.08,1.34,0.42,1.57c1.52,1.02,3.15,1.89,4.99,2.95C160.59,138.73,160.59,138.16,160.59,137.59z
		 M171.51,144.12c0-5.68,0-11.36,0-17.03c0-12.19,0-24.37-0.02-36.56c0-0.54-0.08-1.33-0.43-1.56c-1.52-1.02-3.15-1.88-4.9-2.89
		c-0.03,0.61-0.07,0.99-0.07,1.36c0,11.11,0,22.22,0,33.33c0,6.9-0.02,13.8,0.02,20.7c0,0.55,0.21,1.34,0.6,1.6
		c1.44,0.98,3,1.78,4.8,2.81C171.51,145.09,171.51,144.61,171.51,144.12z M186.95,130.22c0-1.48-0.03-2.97,0.03-4.46
		c0.01-0.26,0.33-0.59,0.59-0.74c10.28-5.95,20.57-11.87,30.86-17.8c0.08-0.05,0.19-0.04,0.53-0.11c0,1.56,0.03,3.09-0.03,4.61
		c-0.01,0.24-0.39,0.54-0.66,0.7c-10.28,5.95-20.57,11.88-30.86,17.81C187.34,130.26,187.23,130.22,186.95,130.22z M218.35,96.82
		c-10.25,5.91-20.5,11.82-30.73,17.74c-0.27,0.15-0.62,0.47-0.63,0.72c-0.06,1.52-0.03,3.04-0.03,4.76
		c0.75-0.42,1.22-0.67,1.68-0.94c8.93-5.16,17.86-10.31,26.79-15.47c3.76-2.17,3.76-2.18,3.54-6.55c0-0.1-0.04-0.19-0.09-0.39
		C218.62,96.75,218.47,96.76,218.35,96.82z M218.39,75.95c-10.25,5.91-20.5,11.81-30.74,17.74c-0.3,0.17-0.67,0.55-0.68,0.84
		c-0.07,1.47-0.03,2.95-0.03,4.63c0.74-0.41,1.21-0.65,1.67-0.91c8.93-5.16,17.77-10.49,26.85-15.38c3.02-1.62,4.03-3.52,3.5-6.63
		c-0.02-0.1-0.04-0.19-0.08-0.41C218.66,75.88,218.51,75.88,218.39,75.95z M218.5,86.32c-10.29,5.93-20.59,11.85-30.86,17.81
		c-0.34,0.2-0.65,0.74-0.67,1.14c-0.08,1.36-0.03,2.72-0.03,4.35c2.05-1.18,3.9-2.23,5.75-3.3c8.3-4.78,16.59-9.59,24.91-14.33
		c1.07-0.61,1.56-1.29,1.42-2.54c-0.12-1.01-0.02-2.05-0.02-3.13C218.68,86.32,218.57,86.28,218.5,86.32z M218.37,117.69
		c-10.25,5.9-20.5,11.81-30.74,17.73c-0.27,0.16-0.62,0.47-0.63,0.72c-0.06,1.52-0.03,3.04-0.03,4.73c0.56-0.29,0.87-0.43,1.16-0.6
		c9.1-5.25,18.21-10.5,27.3-15.77c3.85-2.23,3.84-2.25,3.47-6.94C218.64,117.61,218.48,117.62,218.37,117.69z"/>
</g>
</svg>
