<?xml version="1.0" encoding="utf-8"?>
<!-- Generator: Adobe Illustrator 27.8.1, SVG Export Plug-In . SVG Version: 6.00 Build 0)  -->
<svg version="1.1" id="Layer_1" xmlns="http://www.w3.org/2000/svg" xmlns:xlink="http://www.w3.org/1999/xlink" x="0px" y="0px"
	 viewBox="0 0 350 230" style="enable-background:new 0 0 350 230;" xml:space="preserve">
<style type="text/css">
	.st0{fill:#005868;}
	.st1{fill:#FF0087;}
	.st2{fill:#002F44;}
	.st3{fill:#FC9500;}
	.st4{fill:#003144;}
	.st5{fill:#00AAFF;}
	.st6{fill:#00FFE6;}
	.st7{fill:#F46CFF;}
	.st8{fill:#0043FF;}
	.st9{fill:#977D00;}
	.st10{fill-rule:evenodd;clip-rule:evenodd;fill:#5BB200;}
	.st11{fill-rule:evenodd;clip-rule:evenodd;fill:#747C04;}
	.st12{fill:#735500;}
	.st13{fill:#4D0600;}
	.st14{fill-rule:evenodd;clip-rule:evenodd;fill:#FF0074;}
	.st15{fill-rule:evenodd;clip-rule:evenodd;fill:#004972;}
	.st16{fill:#E5BB07;}
	.st17{fill-rule:evenodd;clip-rule:evenodd;fill:#C2C700;}
	.st18{fill-rule:evenodd;clip-rule:evenodd;fill:#FF0062;}
	.st19{fill-rule:evenodd;clip-rule:evenodd;fill:#C44600;}
	.st20{fill:#02D3BE;}
	.st21{fill:#D3B900;}
	.st22{fill:#0055FF;}
	.st23{fill:#D17315;}
	.st24{fill:#9E580B;}
	.st25{fill:url(#SVGID_1_);}
	.st26{fill:#05ADFC;}
	.st27{fill:#F1F9C2;}
	.st28{fill-rule:evenodd;clip-rule:evenodd;fill:#282000;}
</style>
<g>
	<path class="st10" d="M116.33,74.5l26.73-12.44l26.1,12.44v38.44h-10.79V85.91h-31.24v27.03h-10.79V74.5z"/>
	<path class="st11" d="M129.89,107.41h5.57v5.53h-5.57V107.41z M137.26,107.41h5.57v5.53h-5.57V107.41z M144.64,107.41h5.57v5.53
		h-5.57V107.41z M129.89,100.17h5.57v5.53h-5.57V100.17z M137.26,100.17h5.57v5.53h-5.57V100.17z M129.89,92.93h5.57v5.53h-5.57
		V92.93z M156.34,65.08l2.35-1.09l22.06,10.51v38.44h-8.6V72.62L156.34,65.08z M169.57,66.75c0.78-0.36,1.57-0.73,2.35-1.09
		c7.35,3.5,14.71,7.01,22.06,10.51c0,12.26,0,24.51,0,36.77c-2.87,0-5.73,0-8.6,0c0-12.89,0-25.77,0-38.66
		C180.11,71.77,174.84,69.26,169.57,66.75 M182.8,68.42c0.78-0.36,1.57-0.73,2.35-1.09c7.35,3.5,14.71,7.01,22.06,10.51
		c0,11.7,0,23.4,0,35.1c-2.87,0-5.73,0-8.6,0c0-12.33,0-24.66,0-36.99C193.34,73.44,188.07,70.93,182.8,68.42 M196.03,70.08
		c0.78-0.36,1.57-0.73,2.35-1.09c7.35,3.5,14.71,7.01,22.06,10.51c0,11.15,0,22.29,0,33.44c-2.87,0-5.73,0-8.6,0
		c0-11.77,0-23.55,0-35.32C206.57,75.11,201.3,72.6,196.03,70.08 M209.26,71.75l2.35-1.09l22.06,10.51v31.77h-8.6V79.29
		L209.26,71.75z"/>
</g>
</svg>
