<?xml version="1.0" encoding="utf-8"?>
<!-- Generator: Adobe Illustrator 27.8.1, SVG Export Plug-In . SVG Version: 6.00 Build 0)  -->
<svg version="1.1" id="Layer_1" xmlns="http://www.w3.org/2000/svg" xmlns:xlink="http://www.w3.org/1999/xlink" x="0px" y="0px"
	 viewBox="0 0 350 230" style="enable-background:new 0 0 350 230;" xml:space="preserve">
<style type="text/css">
	.st0{fill:#005868;}
	.st1{fill:#FF0087;}
	.st2{fill:#002F44;}
	.st3{fill:#FC9500;}
	.st4{fill:#003144;}
	.st5{fill:#00AAFF;}
	.st6{fill:#00FFE6;}
	.st7{fill:#F46CFF;}
	.st8{fill:#0043FF;}
	.st9{fill:#977D00;}
	.st10{fill-rule:evenodd;clip-rule:evenodd;fill:#5BB200;}
	.st11{fill-rule:evenodd;clip-rule:evenodd;fill:#747C04;}
	.st12{fill:#735500;}
	.st13{fill:#4D0600;}
	.st14{fill-rule:evenodd;clip-rule:evenodd;fill:#FF0074;}
	.st15{fill-rule:evenodd;clip-rule:evenodd;fill:#004972;}
	.st16{fill:#E5BB07;}
	.st17{fill-rule:evenodd;clip-rule:evenodd;fill:#C2C700;}
	.st18{fill-rule:evenodd;clip-rule:evenodd;fill:#FF0062;}
	.st19{fill-rule:evenodd;clip-rule:evenodd;fill:#C44600;}
	.st20{fill:#02D3BE;}
	.st21{fill:#D3B900;}
	.st22{fill:#0055FF;}
	.st23{fill:#D17315;}
	.st24{fill:#9E580B;}
	.st25{fill:url(#SVGID_1_);}
	.st26{fill:#05ADFC;}
	.st27{fill:#F1F9C2;}
	.st28{fill-rule:evenodd;clip-rule:evenodd;fill:#282000;}
</style>
<g>
	<path class="st12" d="M241.17,103.55c-15.35,0-30.5,0-45.69,0c0-4.04,0-7.99,0-12.1c2.98,0,5.91,0,8.84,0
		c0.05-0.1,0.09-0.2,0.14-0.3c-0.25-0.26-0.49-0.53-0.76-0.77c-9.32-8.36-18.64-16.71-27.95-25.08c-0.53-0.47-0.88-0.62-1.49-0.07
		c-9.45,8.51-18.93,16.99-28.4,25.48c-0.14,0.12-0.24,0.29-0.52,0.65c3.14,0,6.06,0,9.07,0c0,4.14,0,8.11,0,12.18
		c-0.41,0.02-0.8,0.06-1.19,0.06c-5.84,0-11.68,0.02-17.52,0c-8.52-0.04-17.03-0.12-25.55-0.14c-1.07,0-1.35-0.35-1.35-1.38
		c0.03-12.88,0.01-25.76,0.02-38.64c0-3.75,1.78-6.3,4.9-7.05c0.73-0.17,1.51-0.17,2.26-0.17c7.12-0.01,14.24,0,21.36,0
		c6.67,0,13.35,0.01,20.02-0.03c13.43-0.06,26.87-0.18,40.3-0.21c12.12-0.03,24.24,0.01,36.36,0.02c4.42,0,7.12,2.69,7.13,7.1
		c0.01,13.08,0,26.16,0,39.24C241.17,102.73,241.17,103.12,241.17,103.55z M121.26,65.4c-0.01-1.66-1.38-2.99-3.08-2.98
		c-1.71,0.01-3.03,1.35-3.01,3.06c0.02,1.86,1.22,3.04,3.1,3.04C120.12,68.52,121.27,67.33,121.26,65.4z M121.26,78.64
		c-0.02-1.59-1.44-3.02-2.99-3c-1.67,0.02-3.1,1.4-3.11,3.01c-0.01,1.7,1.46,3.23,3.07,3.21C119.93,81.85,121.27,80.42,121.26,78.64
		z"/>
	<path class="st13" d="M241.12,105.26c0,2.23,0.19,4.44-0.04,6.61c-0.37,3.43-3.2,5.65-6.92,5.65c-7.64,0.02-15.28,0.01-22.92,0
		c-4.88-0.01-9.76-0.05-14.64-0.08c-0.35,0-0.7-0.05-1.11-0.08c0-4.05,0-8.03,0-12.1C210.7,105.26,225.88,105.26,241.12,105.26z
		 M152.85,105.21c-14.11,0.02-28.22,0.03-42.33,0.05c-0.24,0-0.48,0.02-0.72,0c-0.73-0.08-1,0.25-0.98,0.97
		c0.03,1.6-0.05,3.2,0.03,4.8c0.19,3.79,2.92,6.32,6.73,6.34c2.96,0.02,5.91,0.08,8.87,0.09c9.51,0.01,19.03,0.01,28.54,0
		c0.47,0,0.93-0.05,1.45-0.07c0-4.08,0-8.06,0-12.16C153.87,105.21,153.36,105.21,152.85,105.21z"/>
</g>
</svg>
