<?xml version="1.0" encoding="utf-8"?>
<!-- Generator: Adobe Illustrator 27.8.1, SVG Export Plug-In . SVG Version: 6.00 Build 0)  -->
<svg version="1.1" id="Layer_1" xmlns="http://www.w3.org/2000/svg" xmlns:xlink="http://www.w3.org/1999/xlink" x="0px" y="0px"
	 viewBox="0 0 350 230" style="enable-background:new 0 0 350 230;" xml:space="preserve">
<style type="text/css">
	.st0{fill:#005868;}
	.st1{fill:#FF0087;}
	.st2{fill:#002F44;}
	.st3{fill:#FC9500;}
	.st4{fill:#003144;}
	.st5{fill:#00AAFF;}
	.st6{fill:#00FFE6;}
	.st7{fill:#F46CFF;}
	.st8{fill:#0043FF;}
	.st9{fill:#977D00;}
	.st10{fill-rule:evenodd;clip-rule:evenodd;fill:#5BB200;}
	.st11{fill-rule:evenodd;clip-rule:evenodd;fill:#747C04;}
	.st12{fill:#735500;}
	.st13{fill:#4D0600;}
	.st14{fill-rule:evenodd;clip-rule:evenodd;fill:#FF0074;}
	.st15{fill-rule:evenodd;clip-rule:evenodd;fill:#004972;}
	.st16{fill:#E5BB07;}
	.st17{fill-rule:evenodd;clip-rule:evenodd;fill:#C2C700;}
	.st18{fill-rule:evenodd;clip-rule:evenodd;fill:#FF0062;}
	.st19{fill-rule:evenodd;clip-rule:evenodd;fill:#C44600;}
	.st20{fill:#02D3BE;}
	.st21{fill:#D3B900;}
	.st22{fill:#0055FF;}
	.st23{fill:#D17315;}
	.st24{fill:#9E580B;}
	.st25{fill:url(#SVGID_1_);}
	.st26{fill:#05ADFC;}
	.st27{fill:#F1F9C2;}
	.st28{fill-rule:evenodd;clip-rule:evenodd;fill:#282000;}
</style>
<g>
	<path class="st14" d="M161.13,59.59v-6.96l-45.46,11.74v57.72l6.96,1.28l38.49,7.11v-6.96l-38.49-7.33V68.62L161.13,59.59z
		 M208.57,88.82c1.43,5.08,0.24,10.52-3.15,14.57c-5.68,6.75-15.76,7.63-22.51,1.96c-6.75-5.68-7.63-15.76-1.96-22.51
		c3.39-4.04,8.54-6.13,13.77-5.62c6.6,0.63,12.53-7.03,10.9-13.29c-0.31-1.19-0.48-2.4-0.51-3.61l-37.85-9.26v79.42l50.35-7.11
		V75.88C212.26,76.85,207.12,83.67,208.57,88.82z"/>
	<path class="st15" d="M125.53,70.92v42.87l32.7,6.23V63.24L125.53,70.92z M150.44,106.67l-17.55-3.35V80.31l17.55-4.12V106.67z
		 M229.6,49.75c-5.6-4.7-13.96-3.98-18.67,1.62c-2.87,3.41-3.72,7.85-2.67,11.87c2.1,8.05-5.27,17.51-13.8,16.68
		c-4.2-0.41-8.51,1.19-11.43,4.66c-4.7,5.6-3.98,13.96,1.62,18.66c5.6,4.71,13.96,3.99,18.67-1.62c2.92-3.48,3.74-8.02,2.62-12.08
		c-2.14-7.59,5.98-17.24,13.83-16.46c4.36,0.42,8.62-1.31,11.44-4.67C235.93,62.82,235.2,54.46,229.6,49.75z M193.42,98.12
		c-2.29,0-4.15-1.86-4.15-4.16c0-2.29,1.86-4.15,4.15-4.15c2.29,0,4.15,1.86,4.15,4.15C197.57,96.26,195.71,98.12,193.42,98.12z
		 M221.77,63.24c-2.29,0-4.15-1.86-4.15-4.15c0-2.3,1.86-4.16,4.15-4.16c2.3,0,4.16,1.86,4.16,4.16
		C225.92,61.38,224.06,63.24,221.77,63.24z"/>
</g>
</svg>
