<?xml version="1.0" encoding="utf-8"?>
<!-- Generator: Adobe Illustrator 27.8.1, SVG Export Plug-In . SVG Version: 6.00 Build 0)  -->
<svg version="1.1" id="Layer_1" xmlns="http://www.w3.org/2000/svg" xmlns:xlink="http://www.w3.org/1999/xlink" x="0px" y="0px"
	 viewBox="0 0 350 230" style="enable-background:new 0 0 350 230;" xml:space="preserve">
<style type="text/css">
	.st0{fill:#005868;}
	.st1{fill:#FF0087;}
	.st2{fill:#002F44;}
	.st3{fill:#FC9500;}
	.st4{fill:#003144;}
	.st5{fill:#00AAFF;}
	.st6{fill:#00FFE6;}
	.st7{fill:#F46CFF;}
	.st8{fill:#0043FF;}
	.st9{fill:#977D00;}
	.st10{fill-rule:evenodd;clip-rule:evenodd;fill:#5BB200;}
	.st11{fill-rule:evenodd;clip-rule:evenodd;fill:#747C04;}
	.st12{fill:#735500;}
	.st13{fill:#4D0600;}
	.st14{fill-rule:evenodd;clip-rule:evenodd;fill:#FF0074;}
	.st15{fill-rule:evenodd;clip-rule:evenodd;fill:#004972;}
	.st16{fill:#E5BB07;}
	.st17{fill-rule:evenodd;clip-rule:evenodd;fill:#C2C700;}
	.st18{fill-rule:evenodd;clip-rule:evenodd;fill:#FF0062;}
	.st19{fill-rule:evenodd;clip-rule:evenodd;fill:#C44600;}
	.st20{fill:#02D3BE;}
	.st21{fill:#D3B900;}
	.st22{fill:#0055FF;}
	.st23{fill:#D17315;}
	.st24{fill:#9E580B;}
	.st25{fill:url(#SVGID_1_);}
	.st26{fill:#05ADFC;}
	.st27{fill:#F1F9C2;}
	.st28{fill-rule:evenodd;clip-rule:evenodd;fill:#282000;}
</style>
<g>
	<g>
		<g>
			<path class="st16" d="M226.7,55.64c-17.44-4.23-34.87-8.51-52.3-12.78c-1.84-0.45-3.68-0.88-5.6-1.34v93.6
				c19.82-2.79,39.53-5.57,59.19-8.35V90.96h-3.35V85.7h3.34V68.46c-0.52-0.06-0.93-0.1-1.35-0.15v-3.83c0.45,0,0.9,0,1.45,0
				c0-2.43-0.07-4.74,0.03-7.03C228.16,56.32,227.8,55.91,226.7,55.64z M219.23,57.22h7.37v7.23c-2.46,0.02-4.91,0.04-7.37,0.06h0
				C219.23,62.11,219.23,59.71,219.23,57.22z M219.17,67.18h3.81v3.75h-3.77C219.19,69.68,219.18,68.43,219.17,67.18z M224.35,76.71
				c-0.25-0.01-0.5-0.02-0.76-0.03c-0.67-0.03-1.35-0.06-2.1-0.1c-0.15-0.01-0.3-0.01-0.46-0.02V73.3h3.31V76.71z M219.27,78.99
				c0.39,0,0.77,0,1.16,0c1.3,0,2.61-0.01,3.92-0.01h0c0,0,0,0,0,0c0,1.76,0,3.52,0,5.36h-5.07V78.99z M216.71,64.54h2.49
				c0,0,0,0,0,0c-0.01,0.44-0.02,0.87-0.03,1.31c-0.01,0.44-0.02,0.87-0.03,1.31h-2.43V64.54z M211.01,57.32h2.41v2.43h-2.36
				c-0.03,0.52-0.07,0.94-0.07,1.36c0,2.86,0.01,5.72-0.01,8.58c0,0.44-0.17,0.88-0.28,1.32h-10.55c-0.16-0.21-0.25-0.27-0.25-0.33
				c0.02-3.67,0.04-7.34,0.06-11.01c3.59,0,7.18,0,10.89,0C210.9,58.91,210.95,58.15,211.01,57.32z M191.7,51.66h8.22
				c0,2.7,0,5.33,0,7.97c-0.14,0.01-0.27,0.01-0.41,0.02c-0.2,0.01-0.41,0.03-0.61,0.04c-0.42,0.02-0.84,0.05-1.26,0.07
				c-0.2,0.01-0.4,0.02-0.6,0.03c-0.21,0.01-0.41,0.01-0.62,0.02c-1.54,0.03-3.09,0.01-4.72,0.01V51.66z M183.06,107.02V94.09h13
				c0,4.28,0,8.55,0,12.93H183.06z M204.66,94.06h-8.57v-8.54h8.57V94.06z M224.75,94.05v5.29h-5.17v12.96H206.6V99.35h12.82v-5.16
				h-8.48v-8.7h-6.26v-6.37h6.24c0-1.18,0.02-2.23,0-3.28c-0.05-1.6-0.13-3.21-0.2-4.81v0l4.21-0.04c1.42-0.01,2.83-0.02,4.25-0.04
				c0.02,2.67,0.05,5.33,0.07,8c-1.53,0.06-3.05,0.14-4.58,0.17c-1.15,0.03-2.3,0.01-3.57,0.01v6.35h8.43v8.57H224.75z
				 M226.83,79.17c-0.2-0.02-0.41-0.04-0.61-0.05c-0.36-0.04-0.73-0.07-1.1-0.1c-0.25-0.02-0.49-0.05-0.74-0.07h0
				c0-0.37,0.01-0.73,0.01-1.1c0-0.37,0-0.73,0.01-1.1c0.02-0.01,0.05-0.02,0.07-0.03c0.11-0.05,0.22-0.09,0.33-0.1
				C227.03,76.39,227.28,76.68,226.83,79.17z M107.86,57.18c17.85-4.6,35.6-9.18,53.59-13.82c0,2.71,0.03,5.17-0.04,7.61
				c-0.01,0.27-0.57,0.67-0.94,0.76c-2.97,0.73-5.95,1.4-8.92,2.1c-7.31,1.72-14.61,3.44-21.92,5.15
				c-4.14,0.97-8.27,1.97-12.42,2.89c-0.9,0.2-1.2,0.54-1.2,1.49c0.04,7.91,0.02,15.82,0.02,23.72c0,9.97,0.02,19.94-0.02,29.91
				c0,1.05,0.3,1.41,1.32,1.6c6.76,1.24,13.5,2.55,20.25,3.84c7.61,1.45,15.21,2.91,22.83,4.33c0.76,0.14,1.07,0.39,1.05,1.21
				c-0.05,2.34-0.02,4.67-0.02,7.16c-2.63-0.48-5.12-0.94-7.6-1.39c-14.84-2.74-29.68-5.49-44.53-8.2c-1.05-0.19-1.49-0.48-1.48-1.7
				c0.05-21.58,0.04-43.16,0.04-64.74C107.86,58.51,107.86,57.92,107.86,57.18z M234.13,68.22c0.08-1.72,0.16-3.44,0.25-5.24
				c1.76,0,3.48,0,5.29,0c0,1.81,0,3.57,0,5.33l0.03-0.03c-1.86-0.03-3.72-0.06-5.58-0.09L234.13,68.22z M235.6,84.03
				c0,1.61,0,3.22,0,4.92c-1.65,0-3.21,0-4.87,0c0-1.56,0-3.11,0-4.89c1.62,0,3.26,0,4.9,0C235.64,84.07,235.6,84.03,235.6,84.03z
				 M235.59,80.31c1.22,0,2.45,0,3.77,0c0,1.17,0,2.37,0,3.72c-1.26,0-2.51,0-3.76,0c0,0,0.04,0.04,0.04,0.03
				c0-1.27-0.01-2.53-0.01-3.8L235.59,80.31z M234.11,68.2c0.06,1.28,0.11,2.57,0.18,3.93c-1.34,0-2.5,0-3.76,0c0-1.2,0-2.4,0-3.65
				c1.22-0.09,2.42-0.17,3.61-0.26C234.13,68.22,234.11,68.2,234.11,68.2z M239.66,68.32c0.82,0.04,1.64,0.08,2.52,0.13
				c0,0.83,0,1.59,0,2.41c-0.81,0-1.51,0-2.33,0c-0.05-0.86-0.11-1.71-0.16-2.56C239.69,68.29,239.66,68.32,239.66,68.32z
				 M235.63,80.27c-0.78-0.05-1.57-0.09-2.44-0.14c0-0.8,0-1.56,0-2.4c0.78,0,1.52,0,2.41,0c0,0.87,0,1.72,0,2.57
				C235.59,80.31,235.63,80.27,235.63,80.27z M204.66,85.49h0.03v0.03c0,0,0,0,0,0c0,0,0,0,0,0
				C204.68,85.51,204.67,85.5,204.66,85.49C204.66,85.5,204.66,85.49,204.66,85.49z M210.69,71.03l0.03-0.02v0.03L210.69,71.03
				L210.69,71.03L210.69,71.03z M219.18,70.93l0.03,0.03h-0.03V70.93z M219.28,78.95L219.28,78.95l-0.03,0.03v-0.03
				C219.26,78.95,219.27,78.95,219.28,78.95z M196.06,94.09L196.06,94.09l0,12.93C196.06,102.64,196.06,98.36,196.06,94.09z
				 M196.09,94.09h-0.03v-0.03C196.07,94.07,196.09,94.09,196.09,94.09z M199.96,59.63v0.03h-0.03
				C199.94,59.65,199.96,59.63,199.96,59.63z M210.7,71.01h0.03l-0.03,0.02v0C210.7,71.02,210.7,71.01,210.7,71.01z M199.96,59.66
				C199.96,59.66,199.96,59.66,199.96,59.66l10.89,0C207.14,59.66,203.55,59.66,199.96,59.66z M196.06,94.06h0.03v0.03
				C196.09,94.09,196.07,94.07,196.06,94.06C196.06,94.06,196.06,94.06,196.06,94.06z M204.68,85.52h-0.03v-0.02
				c0,0,0.01,0,0.01,0.01C204.67,85.51,204.68,85.51,204.68,85.52C204.68,85.52,204.68,85.52,204.68,85.52z M199.96,59.63
				c0,0-0.02,0.02-0.03,0.03c0,0,0,0,0,0v-0.04C199.94,59.63,199.95,59.63,199.96,59.63z M219.23,64.51v0.03h0
				c0,0-0.03-0.03-0.03-0.03H219.23z M226.63,64.45c0,0-0.04,0.03-0.04,0.03v-0.03H226.63z M219.25,78.99l0.03-0.03v0.03H219.25z
				 M224.38,78.97h-0.03c0,0,0,0,0,0v-0.03L224.38,78.97z M219.14,67.18c0.01-0.01,0.02-0.03,0.02-0.03v0.03L219.14,67.18
				L219.14,67.18L219.14,67.18z M219.21,70.93v0.03l-0.03-0.03H219.21z M224.35,76.71C224.35,76.71,224.35,76.71,224.35,76.71
				c-0.25-0.01-0.5-0.02-0.76-0.03C223.85,76.69,224.1,76.7,224.35,76.71z M224.35,76.75v-0.04c0.01,0,0.02,0,0.04,0
				C224.38,76.72,224.35,76.75,224.35,76.75z M219.14,67.15h0.03c0,0-0.02,0.02-0.02,0.03c0,0,0,0,0,0V67.15z M219.23,64.54h-0.03
				c0,0,0,0,0,0v-0.03C219.2,64.51,219.23,64.54,219.23,64.54z M224.37,78.94L224.37,78.94l0,0.03l-0.03-0.03
				C224.36,78.94,224.36,78.94,224.37,78.94z M224.39,76.72C224.39,76.72,224.39,76.72,224.39,76.72l0,0.02
				c-0.01,0-0.03,0.01-0.04,0.01C224.35,76.75,224.38,76.72,224.39,76.72z"/>
		</g>
	</g>
	<path d="M122.41,68.44c11.07-2.85,22.07-5.69,33.23-8.57c0,1.68,0.02,3.2-0.03,4.72c0,0.17-0.35,0.41-0.58,0.47
		c-1.84,0.45-3.69,0.87-5.53,1.3c-4.53,1.06-9.06,2.13-13.59,3.2c-2.57,0.6-5.13,1.22-7.7,1.79c-0.56,0.12-0.75,0.33-0.74,0.92
		c0.03,4.9,0.01,9.81,0.01,14.71c0,6.18,0.01,12.36-0.01,18.54c0,0.65,0.19,0.88,0.82,0.99c4.19,0.77,8.37,1.58,12.56,2.38
		c4.72,0.9,9.43,1.8,14.15,2.68c0.47,0.09,0.66,0.24,0.65,0.75c-0.03,1.45-0.01,2.9-0.01,4.44c-1.63-0.3-3.17-0.58-4.72-0.86
		c-9.2-1.7-18.4-3.4-27.61-5.08c-0.65-0.12-0.92-0.29-0.92-1.05c0.03-13.38,0.02-26.76,0.02-40.14
		C122.41,69.27,122.41,68.9,122.41,68.44z"/>
</g>
</svg>
