<?xml version="1.0" encoding="utf-8"?>
<!-- Generator: Adobe Illustrator 27.8.1, SVG Export Plug-In . SVG Version: 6.00 Build 0)  -->
<svg version="1.1" xmlns="http://www.w3.org/2000/svg" xmlns:xlink="http://www.w3.org/1999/xlink" x="0px" y="0px"
	 viewBox="0 0 350 230" style="enable-background:new 0 0 350 230;" xml:space="preserve">
<style type="text/css">
	.st0{fill-rule:evenodd;clip-rule:evenodd;fill:#A6D63C;}
	.st1{fill-rule:evenodd;clip-rule:evenodd;fill:#00A0D1;}
	.st2{fill:#421C00;}
	.st3{fill-rule:evenodd;clip-rule:evenodd;fill:#FFFFFF;}
	.st4{fill:#699AE2;}
	.st5{fill:#3B7DC4;}
	.st6{fill:#AF7500;}
	.st7{fill:#FFDF00;}
	.st8{fill:#1A0256;}
	.st9{fill:#00594F;}
	.st10{fill:#00779B;}
	.st11{fill:#0074FF;}
	.st12{fill:#194A91;}
	.st13{fill-rule:evenodd;clip-rule:evenodd;fill:#EFEFEF;}
	.st14{fill:#044159;}
	.st15{fill:#4C2900;}
	.st16{fill:#FFFFFF;}
	.st17{fill:#FFB41F;}
	.st18{fill:#FF5A00;}
	.st19{fill:#680404;}
	.st20{fill:#03AA6F;}
	.st21{fill:#FB5968;}
	.st22{fill:#FFD24A;}
	.st23{fill:#055EBC;}
	.st24{fill:#6F6F6F;}
	.st25{fill:#454545;}
	.st26{fill:#BA1A00;}
	.st27{fill:#0071BC;}
	.st28{fill:#6F0393;}
	.st29{fill:none;}
	.st30{fill:#96D7FF;}
	.st31{fill:#0C5100;}
	.st32{fill:#FFE856;}
	.st33{fill:#803971;}
	.st34{fill:#D3CECD;}
	.st35{fill:#4C241D;}
	.st36{fill:#EA3200;stroke:#4C241D;stroke-linecap:round;stroke-linejoin:round;stroke-miterlimit:50;}
	.st37{fill:#11930A;stroke:#4C241D;stroke-linecap:round;stroke-linejoin:round;stroke-miterlimit:50;}
	.st38{fill:#3792CF;}
	.st39{fill:#FEE36F;}
	.st40{fill:#136296;}
	.st41{fill:#53C2BA;}
	.st42{fill:#6D6D00;}
	.st43{fill:#001087;}
</style>
<g id="Layer_1">
</g>
<g id="Layer_2">
</g>
<g id="Layer_3">
</g>
<g id="Layer_4">
</g>
<g id="Layer_5">
</g>
<g id="Layer_6">
</g>
<g id="Layer_7">
</g>
<g id="Layer_8">
</g>
<g id="Layer_9">
</g>
<g id="Layer_10">
</g>
<g id="Layer_11">
</g>
<g id="Layer_12">
</g>
<g id="Layer_13">
	<g id="travel">
		<g>
			<g>
				<path class="st34" d="M213.84,98.12c0,5.38-0.75,10.59-2.16,15.52c-1.35,4.72-3.3,9.19-5.76,13.32
					c-6.7,11.23-17.18,19.94-29.69,24.36c-1.6,0.56-3.23,1.06-4.89,1.48c-4.45,1.13-9.11,1.73-13.91,1.73
					c-22.68,0-42.23-13.38-51.19-32.68c-1.53-3.29-2.75-6.76-3.62-10.36c-1.04-4.29-1.59-8.77-1.59-13.37
					c0-17.45,7.93-33.05,20.38-43.4c2.77-2.31,5.77-4.35,8.96-6.1c4.51-2.47,9.39-4.35,14.54-5.52c3.22-0.73,6.53-1.19,9.93-1.34
					c0.06,0,0.13-0.01,0.19-0.01c0.8-0.04,1.6-0.05,2.41-0.05c19.46,0,36.62,9.85,46.76,24.85c1.79,2.64,3.36,5.45,4.68,8.39
					c-2.15,1.9-3.47,4.7-3.39,7.79c0.12,4.79,3.56,8.72,8.07,9.63C213.74,94.25,213.84,96.17,213.84,98.12z"/>
			</g>
		</g>
		<g>
			<g>
				<path class="st35" d="M217.24,134.47h-6.75c-3.19-0.02-5.96-2.18-6.73-5.26c-0.02-0.07-0.03-0.14-0.04-0.21l-1.54-9.35
					c-0.24-0.83-1.01-1.4-1.88-1.4h-6.27c-1.38,0-2.51-1.12-2.51-2.51v-2.22l-7.72-7.71c-0.36-0.37-0.86-0.57-1.37-0.57c0,0,0,0,0,0
					H159.5c-1.08,0-1.95,0.88-1.95,1.96v0.82c0,3.84-3.13,6.97-6.97,6.97h-3.93c-0.38,0-0.76,0.12-1.08,0.33l-7.49,5
					c-0.57,0.38-1.19,0.68-1.85,0.87c-0.65,0.2-1.32,0.3-2.01,0.3c-0.01,0-0.02,0-0.03,0c-0.33,0-0.65-0.03-0.96-0.07
					c-1.84-0.26-3.47-1.23-4.59-2.72c-1.12-1.49-1.59-3.32-1.33-5.17l0.7-4.9c0.06-0.39-0.01-0.79-0.19-1.15L114.2,80.24
					c-0.01-0.02-0.02-0.05-0.03-0.07c-1.67-3.43-0.26-7.58,3.16-9.28l2.69-1.34c1.24-0.62,2.74-0.12,3.36,1.12
					c0.62,1.24,0.12,2.74-1.12,3.36l-2.69,1.35c-0.97,0.48-1.36,1.66-0.88,2.62c0.01,0.02,0.02,0.04,0.03,0.05l13.59,27.19
					c0.64,1.27,0.87,2.69,0.67,4.1l-0.7,4.89c-0.07,0.52,0.06,1.03,0.37,1.45c0.31,0.42,0.77,0.69,1.29,0.76
					c0.09,0.01,0.18,0.02,0.28,0.02c0.19,0,0.38-0.03,0.56-0.08c0.18-0.05,0.35-0.14,0.52-0.25l7.5-5c1.15-0.76,2.48-1.17,3.86-1.17
					h3.94c1.08,0,1.95-0.88,1.95-1.96v-0.82c0-3.84,3.13-6.97,6.97-6.97h22.92c0,0,0.01,0,0.01,0c1.83,0,3.62,0.74,4.92,2.04
					l8.46,8.44c0.47,0.47,0.74,1.11,0.74,1.77v0.75h3.76c3.2,0,5.98,2.17,6.76,5.28c0.02,0.07,0.03,0.13,0.04,0.2l1.54,9.35
					c0.25,0.82,1,1.39,1.86,1.39h6.74c0.75,0,1.42-0.41,1.75-1.08l0.78-1.56c1.19-2.38,3.58-3.85,6.23-3.85h3.85
					c0.49-0.62,1.19-2.1,1.51-2.78c0.27-0.56,0.5-1.05,0.73-1.45l11.35-19.86c0.11-0.18,0.18-0.38,0.22-0.59l2.78-13.89
					c0.09-0.46,0.01-0.94-0.22-1.36l-11.31-19.79c-0.24-0.41-0.62-0.72-1.07-0.87l-5.42-1.81c-2.57-0.86-4.42-3.15-4.72-5.84
					l-1.04-9.36c-0.07-0.66-0.47-1.23-1.07-1.53l-1.86-0.93c-2.37-1.19-3.85-3.58-3.85-6.23v-3.37l-6.21,10.34
					c-1.86,3.1-5.86,4.27-9.09,2.65l-5.83-2.92c-3.08-1.54-4.58-5.17-3.5-8.44l0.06-0.19c0.17-0.5,0.13-1.03-0.1-1.5
					c-0.23-0.47-0.64-0.81-1.13-0.98c-0.2-0.07-0.41-0.1-0.62-0.1h-10.53c-0.74,0-1.42,0.42-1.75,1.08l-3.66,7.32
					c-1.47,2.94-4.72,4.44-7.92,3.65l-6.57-1.64c-0.76-0.19-1.55,0.09-2.02,0.7c-0.01,0.01-0.02,0.03-0.03,0.04
					c0,0.01-0.01,0.01-0.01,0.02l-0.15,0.21L143.12,62.7c-0.66,0.92-1.55,1.68-2.56,2.18l-7.29,3.65c-1.24,0.62-2.74,0.12-3.36-1.12
					c-0.62-1.24-0.12-2.74,1.12-3.36l7.3-3.65c0.29-0.14,0.53-0.35,0.72-0.61l13.83-19.34c0.05-0.08,0.11-0.16,0.18-0.24
					c1.69-2.19,4.51-3.16,7.2-2.49l6.57,1.64c0.89,0.22,1.81-0.2,2.22-1.02l3.66-7.32c1.19-2.38,3.58-3.85,6.23-3.85h10.53
					c0.75,0,1.49,0.12,2.2,0.36c1.77,0.59,3.2,1.83,4.03,3.49c0.83,1.66,0.97,3.55,0.38,5.32L196,36.53
					c-0.31,0.92,0.11,1.94,0.98,2.37l5.83,2.92c0.91,0.45,2.03,0.13,2.55-0.74l7.62-12.69c0.45-0.76,1.27-1.22,2.15-1.22h3.25
					c1.38,0,2.51,1.12,2.51,2.51v7.01c0,0.74,0.42,1.42,1.08,1.75l1.86,0.93c2.12,1.06,3.55,3.1,3.81,5.46l1.04,9.37
					c0.08,0.76,0.6,1.4,1.32,1.64l5.42,1.8c1.62,0.53,2.99,1.65,3.84,3.13l11.32,19.8c0.83,1.47,1.11,3.18,0.78,4.82l-2.78,13.89
					c-0.15,0.74-0.41,1.45-0.79,2.1l-11.34,19.85c-0.13,0.23-0.33,0.66-0.55,1.11c-1.19,2.52-2.68,5.65-5.5,5.65H226
					c-0.75,0-1.42,0.41-1.75,1.08l-0.78,1.56C222.29,132.99,219.9,134.47,217.24,134.47z M156.99,43.3c0,0-0.01,0.01-0.01,0.01
					C156.98,43.31,156.99,43.3,156.99,43.3z M107.28,124.44c-0.49,0-0.99-0.04-1.47-0.12c-4.23-0.71-7.3-4.35-7.3-8.65
					c0-2.16,0.79-4.24,2.23-5.85c1.66-1.86,4.05-2.93,6.54-2.93c4.84,0,8.78,3.94,8.78,8.78
					C116.06,120.51,112.12,124.44,107.28,124.44z M107.28,111.91c-1.07,0-2.09,0.46-2.8,1.26c-0.62,0.69-0.96,1.58-0.96,2.51
					c0,1.84,1.32,3.4,3.13,3.71c0.21,0.04,0.42,0.05,0.63,0.05c2.07,0,3.76-1.69,3.76-3.76S109.36,111.91,107.28,111.91z"/>
			</g>
		</g>
		<g>
			<g>
				<path class="st35" d="M145.49,134.26c-1.48,0-2.68,1.2-2.68,2.68s1.2,2.68,2.68,2.68c1.48,0,2.68-1.2,2.68-2.68
					S146.97,134.26,145.49,134.26z M173.72,129.46c-1.38,0-2.51,1.12-2.51,2.51v5.01c0,1.38,1.12,2.51,2.51,2.51
					s2.51-1.12,2.51-2.51v-5.01C176.23,130.58,175.11,129.46,173.72,129.46z M173.72,144.5c-1.38,0-2.51,1.12-2.51,2.51v5.01
					c0,0.27,0.04,0.53,0.12,0.78c0.33,1,1.27,1.73,2.38,1.73c1.38,0,2.51-1.12,2.51-2.51v-5.01
					C176.23,145.62,175.11,144.5,173.72,144.5z M168.71,139.49h-5.01c-1.38,0-2.51,1.12-2.51,2.51s1.12,2.51,2.51,2.51h5.01
					c1.38,0,2.51-1.12,2.51-2.51S170.09,139.49,168.71,139.49z M183.75,139.49h-5.01c-1.38,0-2.51,1.12-2.51,2.51
					s1.12,2.51,2.51,2.51h5.01c1.38,0,2.51-1.12,2.51-2.51S185.14,139.49,183.75,139.49z M210.92,144.5l4.55,5.21l1.95-5.21H210.92z
					 M210.92,144.5l4.55,5.21l1.95-5.21H210.92z M210.92,144.5l4.55,5.21l1.95-5.21H210.92z M221.58,140.71
					c-0.79-0.79-1.85-1.23-2.97-1.23c0,0,0,0,0,0h-9.54c-0.65,0-1.3,0.15-1.88,0.45c-1,0.5-1.75,1.37-2.11,2.43
					c-0.35,1.07-0.27,2.21,0.23,3.21c0.09,0.19,0.21,0.37,0.35,0.53l8.8,10.08c0.48,0.55,1.17,0.86,1.89,0.86
					c0.15,0,0.3-0.01,0.45-0.04c0.87-0.16,1.59-0.76,1.9-1.59l3.74-9.98c0.25-0.54,0.38-1.14,0.38-1.74
					C222.81,142.56,222.37,141.51,221.58,140.71z M220.12,144.45l-3.78,10.08l-8.8-10.08c-0.42-0.84-0.08-1.86,0.76-2.28
					c0.24-0.12,0.51-0.18,0.77-0.18h9.53c0.94,0,1.7,0.76,1.7,1.7C220.3,143.95,220.24,144.21,220.12,144.45z M215.47,149.71
					l1.95-5.21h-6.51L215.47,149.71z M210.92,144.5l4.55,5.21l1.95-5.21H210.92z"/>
			</g>
		</g>
		<g>
			<g>
				<path class="st36" d="M135.57,19.96c-10.86,0.13-19.55,9.04-19.42,19.9c0,3.75,2.26,9.25,5.25,14.86
					c5.75,10.83,14.17,22.09,14.17,22.09s17.06-22.8,19.2-34.71c0.02-0.11,0.04-0.22,0.05-0.33c0.11-0.68,0.17-1.31,0.17-1.91
					C155.12,29,146.42,20.09,135.57,19.96z M135.57,49.93c-1.9,0.05-3.68-0.43-5.22-1.31c-2.97-1.69-5.01-4.85-5.1-8.51
					c-0.14-5.56,4.26-10.18,9.82-10.32c5.56-0.14,10.18,4.26,10.32,9.82c0,0.08,0,0.16,0,0.25c0.01,1.14-0.16,2.23-0.5,3.25
					C143.59,47.02,139.93,49.87,135.57,49.93z"/>
			</g>
		</g>
		<g>
			<g>
				<path class="st37" d="M215.8,62.58c-4.36,0.05-8.38,1.52-11.61,3.97c-4.81,3.64-7.89,9.43-7.81,15.93
					c0,7.73,9.6,22.86,15.3,31.16c2.41,3.5,4.12,5.79,4.12,5.79s19.42-25.96,19.42-36.95C235.35,71.62,226.65,62.71,215.8,62.58z
					 M215.8,92.55c-0.77,0.02-1.52-0.05-2.25-0.19c-4.51-0.91-7.95-4.84-8.07-9.63c-0.08-3.09,1.25-5.89,3.39-7.79
					c1.72-1.52,3.96-2.47,6.43-2.53c5.56-0.14,10.18,4.26,10.32,9.82c0,0.08,0,0.16,0,0.25C225.69,87.97,221.29,92.48,215.8,92.55z"
					/>
			</g>
		</g>
	</g>
</g>
<g id="Layer_14">
</g>
<g id="Layer_15">
</g>
</svg>
