<?xml version="1.0" encoding="utf-8"?>
<!-- Generator: Adobe Illustrator 27.8.1, SVG Export Plug-In . SVG Version: 6.00 Build 0)  -->
<svg version="1.1" xmlns="http://www.w3.org/2000/svg" xmlns:xlink="http://www.w3.org/1999/xlink" x="0px" y="0px"
	 viewBox="0 0 350 230" style="enable-background:new 0 0 350 230;" xml:space="preserve">
<style type="text/css">
	.st0{fill-rule:evenodd;clip-rule:evenodd;fill:#A6D63C;}
	.st1{fill-rule:evenodd;clip-rule:evenodd;fill:#00A0D1;}
	.st2{fill:#421C00;}
	.st3{fill-rule:evenodd;clip-rule:evenodd;fill:#FFFFFF;}
	.st4{fill:#699AE2;}
	.st5{fill:#3B7DC4;}
	.st6{fill:#AF7500;}
	.st7{fill:#FFDF00;}
	.st8{fill:#1A0256;}
	.st9{fill:#00594F;}
	.st10{fill:#00779B;}
	.st11{fill:#0074FF;}
	.st12{fill:#194A91;}
	.st13{fill-rule:evenodd;clip-rule:evenodd;fill:#EFEFEF;}
	.st14{fill:#044159;}
	.st15{fill:#4C2900;}
	.st16{fill:#FFFFFF;}
	.st17{fill:#FFB41F;}
	.st18{fill:#FF5A00;}
	.st19{fill:#680404;}
	.st20{fill:#03AA6F;}
	.st21{fill:#FB5968;}
	.st22{fill:#FFD24A;}
	.st23{fill:#055EBC;}
	.st24{fill:#6F6F6F;}
	.st25{fill:#454545;}
	.st26{fill:#BA1A00;}
	.st27{fill:#0071BC;}
	.st28{fill:#6F0393;}
	.st29{fill:none;}
	.st30{fill:#96D7FF;}
	.st31{fill:#0C5100;}
	.st32{fill:#FFE856;}
	.st33{fill:#803971;}
	.st34{fill:#D3CECD;}
	.st35{fill:#4C241D;}
	.st36{fill:#EA3200;stroke:#4C241D;stroke-linecap:round;stroke-linejoin:round;stroke-miterlimit:50;}
	.st37{fill:#11930A;stroke:#4C241D;stroke-linecap:round;stroke-linejoin:round;stroke-miterlimit:50;}
	.st38{fill:#3792CF;}
	.st39{fill:#FEE36F;}
	.st40{fill:#136296;}
	.st41{fill:#53C2BA;}
	.st42{fill:#6D6D00;}
	.st43{fill:#001087;}
</style>
<g id="Layer_1">
</g>
<g id="Layer_2">
</g>
<g id="Layer_3">
</g>
<g id="Layer_4">
</g>
<g id="Layer_5">
</g>
<g id="Layer_6">
</g>
<g id="Layer_7">
</g>
<g id="Layer_8">
</g>
<g id="Layer_9">
</g>
<g id="Layer_10">
</g>
<g id="Layer_11">
	<g>
		<path class="st28" d="M175,25.06c-34.65,0-62.72,28.09-62.72,62.72s28.08,62.72,62.72,62.72c34.64,0,62.72-28.09,62.72-62.72
			S209.64,25.06,175,25.06z M172.49,82.22L172.49,82.22c0.34-0.15,0.66-0.28,1-0.4c0.17-0.05,0.34-0.11,0.51-0.16
			c0.68-0.2,1.37-0.33,2.07-0.39c0.25-0.02,0.6,0.13,0.92,0.35c0.1,0.07,0.2,0.15,0.29,0.24c0.05,0.04,0.09,0.07,0.12,0.12
			c0.23,0.24,0.41,0.49,0.47,0.72c0.59,1.95,0.68,4.06,1.34,5.98c0.15,0.44,0.45,0.83,0.82,1.19c0.18,0.17,0.38,0.35,0.57,0.54
			c0.2,0.18,0.4,0.35,0.58,0.54c0.11,0.1,0.21,0.21,0.31,0.31v0.01c0.31-0.29,0.68-0.55,1.04-0.84c0.12-0.09,0.25-0.18,0.35-0.27
			c0.15-0.13,0.29-0.25,0.42-0.38c0.23-0.24,0.41-0.49,0.48-0.77c2.2-7.98,4.25-15.99,6.27-24.01c0.29-1.17,0.25-1.94-0.15-2.34
			c-0.41-0.41-1.18-0.45-2.35-0.15c-7.93,2.02-15.87,4.02-23.76,6.2c-0.19,0.05-0.36,0.14-0.54,0.25c-0.16,0.12-0.33,0.25-0.49,0.41
			c-0.32,0.31-0.62,0.68-0.92,1.04c-0.2,0.24-0.4,0.46-0.61,0.66h-0.01v0.01c0.11,0.1,0.22,0.2,0.32,0.3
			c0.22,0.21,0.42,0.44,0.63,0.65l0.2,0.2c0.05,0.06,0.12,0.12,0.17,0.17c0.41,0.4,0.84,0.74,1.31,0.92
			c1.92,0.68,4.02,0.81,5.96,1.42c0.18,0.05,0.37,0.17,0.55,0.32c0.06,0.05,0.12,0.11,0.18,0.16c0.05,0.03,0.09,0.07,0.12,0.12
			c0.35,0.37,0.63,0.84,0.61,1.16c-0.15,2.8-1.57,5.47-3.65,7.53c-0.59,0.58-1.24,1.12-1.92,1.59c-0.51,0.35-1.04,0.67-1.6,0.95
			c-0.18,0.09-0.36,0.18-0.55,0.26c-0.61,0.27-1.24,0.5-1.87,0.67c-1.2,0.33-2.44,0.46-3.66,0.35c-1.1-0.09-2.15-0.35-3.14-0.74
			c-0.14-0.05-0.28-0.11-0.42-0.17c-1.44-0.62-2.72-1.52-3.8-2.62c-2.42-2.43-3.81-5.84-3.49-9.41c0.56-6.3,3.46-12.17,7.8-16.64
			c0.25-0.26,0.52-0.53,0.78-0.78c0.7-0.66,1.43-1.29,2.19-1.89c1.02-0.78,2.09-1.51,3.21-2.15c0.32-0.18,0.63-0.35,0.95-0.53
			c0.64-0.34,1.29-0.64,1.96-0.94c0.34-0.14,0.67-0.27,1.01-0.41c1.36-0.52,2.77-0.93,4.21-1.22c2.72-0.55,5.4-0.69,7.99-0.46
			c0.89,0.07,1.77,0.19,2.64,0.35h0.01c0.49,0.09,0.98,0.19,1.46,0.31c0.73,0.18,1.44,0.38,2.15,0.61c2.57,0.84,5,2.05,7.19,3.58
			c0.19,0.14,0.37,0.26,0.56,0.4c0.37,0.26,0.74,0.55,1.09,0.84c0.35,0.29,0.7,0.58,1.04,0.89c0.34,0.31,0.67,0.62,1,0.94
			c0.16,0.16,0.33,0.33,0.48,0.49c4.78,4.96,7.76,11.74,7.76,19.38c0,7.78-3.21,14.9-8.45,19.98c-0.25,0.25-0.52,0.5-0.78,0.73
			c-0.53,0.49-1.07,0.94-1.63,1.37c-0.29,0.22-0.57,0.44-0.87,0.64c-0.22,0.15-0.44,0.31-0.66,0.45c-1.11,0.75-2.28,1.42-3.5,2
			c-2.44,1.17-5.1,1.99-7.89,2.39c-2.2,0.32-4.26,0.14-6.1-0.47c-0.42-0.14-0.83-0.29-1.22-0.47c-0.53-0.25-1.04-0.52-1.51-0.83
			c-0.32-0.21-0.63-0.43-0.92-0.66c-0.3-0.24-0.58-0.49-0.85-0.75c-1.92-1.86-3.21-4.44-3.6-7.5c-0.42-3.32,1.19-6.89,3.82-9.51
			c0.13-0.13,0.26-0.25,0.39-0.38c0.27-0.25,0.55-0.48,0.83-0.71c0.15-0.11,0.29-0.22,0.44-0.33c0.29-0.22,0.59-0.42,0.9-0.61
			C171.54,82.7,172.01,82.45,172.49,82.22z M183.05,139.01c-2.23,2.22-4.45,4.43-6.67,6.65c-0.35,0.35-0.76,0.66-1.43,1.24
			c-2.68-2.71-5.23-5.3-7.78-7.86c-24.94-3.76-44.05-25.28-44.05-51.27c0-7.21,1.47-14.07,4.13-20.31
			c-3.86,16.6,0.71,31.77,13.19,44.78c8.22,8.57,16.76,16.81,25.14,25.21c0.53,0.53,1.05,1.05,1.58,1.59
			c2.55,0.39,5.16,0.59,7.82,0.59C177.73,139.64,180.42,139.43,183.05,139.01c9.27-9.23,18.58-18.43,27.68-27.82
			c11-11.35,15.35-27.36,12.47-42.59c2.36,5.93,3.66,12.4,3.66,19.18C226.86,113.69,207.87,135.15,183.05,139.01z"/>
		<path class="st29" d="M210.73,111.2c-9.1,9.39-18.4,18.59-27.68,27.82c-2.63,0.42-5.31,0.63-8.05,0.63c-2.66,0-5.27-0.2-7.82-0.59
			c-0.53-0.54-1.05-1.06-1.58-1.59c-8.38-8.39-16.92-16.64-25.14-25.21c-12.48-13.02-17.05-28.19-13.19-44.78
			c7.89-18.55,26.3-31.56,47.74-31.56c21.87,0,40.58,13.53,48.2,32.69C226.08,83.83,221.73,99.84,210.73,111.2z"/>
	</g>
</g>
<g id="Layer_12">
</g>
<g id="Layer_13">
</g>
<g id="Layer_14">
</g>
<g id="Layer_15">
</g>
</svg>
