<?xml version="1.0" encoding="utf-8"?>
<!-- Generator: Adobe Illustrator 27.8.1, SVG Export Plug-In . SVG Version: 6.00 Build 0)  -->
<svg version="1.1" xmlns="http://www.w3.org/2000/svg" xmlns:xlink="http://www.w3.org/1999/xlink" x="0px" y="0px"
	 viewBox="0 0 350 230" style="enable-background:new 0 0 350 230;" xml:space="preserve">
<style type="text/css">
	.st0{fill-rule:evenodd;clip-rule:evenodd;fill:#A6D63C;}
	.st1{fill-rule:evenodd;clip-rule:evenodd;fill:#00A0D1;}
	.st2{fill:#421C00;}
	.st3{fill-rule:evenodd;clip-rule:evenodd;fill:#FFFFFF;}
	.st4{fill:#699AE2;}
	.st5{fill:#3B7DC4;}
	.st6{fill:#AF7500;}
	.st7{fill:#FFDF00;}
	.st8{fill:#1A0256;}
	.st9{fill:#00594F;}
	.st10{fill:#00779B;}
	.st11{fill:#0074FF;}
	.st12{fill:#194A91;}
	.st13{fill-rule:evenodd;clip-rule:evenodd;fill:#EFEFEF;}
	.st14{fill:#044159;}
	.st15{fill:#4C2900;}
	.st16{fill:#FFFFFF;}
	.st17{fill:#FFB41F;}
	.st18{fill:#FF5A00;}
	.st19{fill:#680404;}
	.st20{fill:#03AA6F;}
	.st21{fill:#FB5968;}
	.st22{fill:#FFD24A;}
	.st23{fill:#055EBC;}
	.st24{fill:#6F6F6F;}
	.st25{fill:#454545;}
	.st26{fill:#BA1A00;}
	.st27{fill:#0071BC;}
	.st28{fill:#6F0393;}
	.st29{fill:none;}
	.st30{fill:#96D7FF;}
	.st31{fill:#0C5100;}
	.st32{fill:#FFE856;}
	.st33{fill:#803971;}
	.st34{fill:#D3CECD;}
	.st35{fill:#4C241D;}
	.st36{fill:#EA3200;stroke:#4C241D;stroke-linecap:round;stroke-linejoin:round;stroke-miterlimit:50;}
	.st37{fill:#11930A;stroke:#4C241D;stroke-linecap:round;stroke-linejoin:round;stroke-miterlimit:50;}
	.st38{fill:#3792CF;}
	.st39{fill:#FEE36F;}
	.st40{fill:#136296;}
	.st41{fill:#53C2BA;}
	.st42{fill:#6D6D00;}
	.st43{fill:#001087;}
</style>
<g id="Layer_1">
</g>
<g id="Layer_2">
</g>
<g id="Layer_3">
</g>
<g id="Layer_4">
</g>
<g id="Layer_5">
</g>
<g id="Layer_6">
</g>
<g id="Layer_7">
</g>
<g id="Layer_8">
	<g>
		<path class="st18" d="M130.31,49.45c-1.35,0-2.47,1.11-2.47,2.47v51.06c0,1.37,1.11,2.47,2.47,2.47h0.06c0.05,0,0.1,0,0.15-0.01
			c1.27-0.1,2.27-1.16,2.27-2.45V51.91C132.79,50.56,131.68,49.45,130.31,49.45z M139.89,105.15c0-0.02,0.29-1.42,0.79-3.78h-31.96
			v4.93h43.17v-1.16C144.58,105.15,139.89,105.15,139.89,105.15z M151.9,105.14c-7.32,0.01-12.01,0.01-12.01,0.01
			c0-0.02,0.29-1.42,0.79-3.78h-31.96c-3.28,0-3.28,4.93,0,4.93h43.17c1.03,0,1.73-0.49,2.11-1.16H151.9z M150.68,21.9
			c-0.55-2.44-2.9-4.32-5.42-4.32h-29.89c-2.51,0-4.87,1.88-5.42,4.32l-6.01,26.51c-0.65,2.87,1.39,5.42,4.32,5.42h32.97l1.05-4.93
			h-33.4l5.87-25.9c0.05-0.21,0.4-0.49,0.61-0.49h29.89c0.21,0,0.56,0.28,0.61,0.49l2.31,10.16c1.31-1.04,2.84-1.83,4.52-2.36
			L150.68,21.9z"/>
		<path class="st19" d="M246.03,104.57c-0.5-2.03-2.33-3.53-4.52-3.53c-2.58,0-4.66,2.09-4.66,4.66v50.74
			c0,2.58,2.09,4.66,4.66,4.66c2.58,0,4.66-2.09,4.66-4.66V105.7C246.17,105.31,246.12,104.93,246.03,104.57z M134.98,101.5
			c-0.78,0-1.53,0.2-2.18,0.55c-1.09,0.57-1.92,1.56-2.28,2.75c-0.05,0.21-0.1,0.41-0.13,0.63c-0.04,0.23-0.06,0.48-0.06,0.73v50.29
			c0,2.56,2.09,4.65,4.66,4.65c2.58,0,4.66-2.09,4.66-4.65v-50.29C139.64,103.59,137.55,101.5,134.98,101.5z M230.32,59.53h-81.59
			c-2.58,0-4.66,2.09-4.66,4.66c0,2.2,1.51,4.03,3.55,4.53c0.35,0.09,0.72,0.13,1.11,0.13h81.59c2.58,0,4.66-2.09,4.66-4.66
			C234.98,61.62,232.89,59.53,230.32,59.53z M215.89,30.11c-1.72-7.18-8.19-12.54-15.88-12.54h-23.3c-7.69,0-14.16,5.36-15.88,12.54
			c-0.28,1.21-0.44,2.48-0.44,3.78v2.32c0,1.1,0.11,2.17,0.32,3.21v0.01c1.5,7.45,8.12,13.1,16,13.1h23.3c7.9,0,14.5-5.65,16-13.1
			v-0.01c0.21-1.04,0.32-2.11,0.32-3.21V33.9C216.33,32.59,216.17,31.32,215.89,30.11z M207,36.21c0,3.84-3.15,6.99-6.99,6.99h-23.3
			c-3.83,0-6.99-3.15-6.99-6.99V33.9c0-3.84,3.16-6.99,6.99-6.99h23.3c3.84,0,6.99,3.15,6.99,6.99V36.21z M237.49,137.81H136.11
			c-2.58,0-4.66,2.09-4.66,4.66s2.09,4.66,4.66,4.66h101.38c2.58,0,4.66-2.09,4.66-4.66S240.07,137.81,237.49,137.81z M141.24,53.83
			l-8.45,39.49v8.06h7.9c1.36-6.42,4.24-19.99,6.93-32.65c-2.04-0.5-3.55-2.33-3.55-4.53c0-2.58,2.09-4.66,4.66-4.66h0.84
			c0.42-2,0.83-3.92,1.21-5.7H141.24z M148.18,33.15c-1.9,1.49-3.28,3.48-3.77,5.81l-2.12,9.94h9.46L148.18,33.15z M141.24,53.83
			l-8.45,39.49v8.06h7.9c1.36-6.42,4.24-19.99,6.93-32.65c-2.04-0.5-3.55-2.33-3.55-4.53c0-2.58,2.09-4.66,4.66-4.66h0.84
			c0.42-2,0.83-3.92,1.21-5.7H141.24z M245.82,102.97l-13.7-64.01c-1.12-5.3-6.82-8.85-12.79-8.85h-4.75v9.31h4.75
			c1.05,0,2.11,0.31,2.89,0.79c0.54,0.34,0.77,0.63,0.78,0.7l3.98,18.61h-77.41c0.42-2,0.83-3.92,1.21-5.7h-9.55l-8.45,39.49
			l-1.72,8.06l-0.34,1.6c-0.13,0.61-0.21,1.22-0.22,1.83c0,0.21,0,0.41,0.01,0.62c0.01,0.29,0.04,0.59,0.09,0.88
			c0.6,4.43,4.28,8.04,9.03,8.15c0.09,0.01,0.17,0.01,0.26,0.01h96.95c5.4-0.11,9.42-4.69,9.18-9.9
			C246,104.03,245.93,103.51,245.82,102.97z M154.02,105.14h-2.11c-7.32,0.01-12.01,0.01-12.01,0.01c0-0.02,0.29-1.42,0.79-3.78
			c1.36-6.42,4.24-19.99,6.93-32.65c0.35,0.09,0.72,0.13,1.11,0.13h80.26l7.71,36.07C236.7,105.06,180.89,105.12,154.02,105.14z
			 M148.18,33.15c-1.9,1.49-3.28,3.48-3.77,5.81l-2.12,9.94h9.46L148.18,33.15z M141.24,53.83l-8.45,39.49v8.06h7.9
			c1.36-6.42,4.24-19.99,6.93-32.65c-2.04-0.5-3.55-2.33-3.55-4.53c0-2.58,2.09-4.66,4.66-4.66h0.84c0.42-2,0.83-3.92,1.21-5.7
			H141.24z M157.21,30.11c-1.55,0-3.09,0.24-4.52,0.68l2.07,9.18c0.71-0.34,1.59-0.55,2.44-0.55h4.63v-9.31H157.21z M148.18,33.15
			c-1.9,1.49-3.28,3.48-3.77,5.81l-2.12,9.94h9.46L148.18,33.15z"/>
	</g>
</g>
<g id="Layer_9">
</g>
<g id="Layer_10">
</g>
<g id="Layer_11">
</g>
<g id="Layer_12">
</g>
<g id="Layer_13">
</g>
<g id="Layer_14">
</g>
<g id="Layer_15">
</g>
</svg>
