<?xml version="1.0" encoding="utf-8"?>
<!-- Generator: Adobe Illustrator 27.8.1, SVG Export Plug-In . SVG Version: 6.00 Build 0)  -->
<svg version="1.1" xmlns="http://www.w3.org/2000/svg" xmlns:xlink="http://www.w3.org/1999/xlink" x="0px" y="0px"
	 viewBox="0 0 350 230" style="enable-background:new 0 0 350 230;" xml:space="preserve">
<style type="text/css">
	.st0{fill-rule:evenodd;clip-rule:evenodd;fill:#A6D63C;}
	.st1{fill-rule:evenodd;clip-rule:evenodd;fill:#00A0D1;}
	.st2{fill:#421C00;}
	.st3{fill-rule:evenodd;clip-rule:evenodd;fill:#FFFFFF;}
	.st4{fill:#699AE2;}
	.st5{fill:#3B7DC4;}
	.st6{fill:#AF7500;}
	.st7{fill:#FFDF00;}
	.st8{fill:#1A0256;}
	.st9{fill:#00594F;}
	.st10{fill:#00779B;}
	.st11{fill:#0074FF;}
	.st12{fill:#194A91;}
	.st13{fill-rule:evenodd;clip-rule:evenodd;fill:#EFEFEF;}
	.st14{fill:#044159;}
	.st15{fill:#4C2900;}
	.st16{fill:#FFFFFF;}
	.st17{fill:#FFB41F;}
	.st18{fill:#FF5A00;}
	.st19{fill:#680404;}
	.st20{fill:#03AA6F;}
	.st21{fill:#FB5968;}
	.st22{fill:#FFD24A;}
	.st23{fill:#055EBC;}
	.st24{fill:#6F6F6F;}
	.st25{fill:#454545;}
	.st26{fill:#BA1A00;}
	.st27{fill:#0071BC;}
	.st28{fill:#6F0393;}
	.st29{fill:none;}
	.st30{fill:#96D7FF;}
	.st31{fill:#0C5100;}
	.st32{fill:#FFE856;}
	.st33{fill:#803971;}
	.st34{fill:#D3CECD;}
	.st35{fill:#4C241D;}
	.st36{fill:#EA3200;stroke:#4C241D;stroke-linecap:round;stroke-linejoin:round;stroke-miterlimit:50;}
	.st37{fill:#11930A;stroke:#4C241D;stroke-linecap:round;stroke-linejoin:round;stroke-miterlimit:50;}
	.st38{fill:#3792CF;}
	.st39{fill:#FEE36F;}
	.st40{fill:#136296;}
	.st41{fill:#53C2BA;}
	.st42{fill:#6D6D00;}
	.st43{fill:#001087;}
</style>
<g id="Layer_1">
</g>
<g id="Layer_2">
</g>
<g id="Layer_3">
</g>
<g id="Layer_4">
</g>
<g id="Layer_5">
</g>
<g id="Layer_6">
</g>
<g id="Layer_7">
</g>
<g id="Layer_8">
</g>
<g id="Layer_9">
</g>
<g id="Layer_10">
</g>
<g id="Layer_11">
</g>
<g id="Layer_12">
	<path class="st30" d="M186.34,82.39h-36.73V60.36l18.36-14.69l18.36,14.69V82.39z"/>
	<path class="st31" d="M232.25,154.47H103.71l18.36-45.91h91.81L232.25,154.47z"/>
	<path class="st32" d="M209.3,154.47h-82.63l11.8-45.91h59.04L209.3,154.47z"/>
	<path class="st33" d="M232.25,157.06H103.71c-2.54,0-4.59-2.05-4.6-4.59c0-0.58,0.11-1.16,0.33-1.7l18.36-45.91
		c0.7-1.75,2.39-2.89,4.27-2.89h91.81c1.88,0,3.57,1.14,4.27,2.89l18.36,45.91c0.94,2.36-0.21,5.03-2.57,5.96
		C233.41,156.95,232.83,157.06,232.25,157.06z M110.51,147.88h114.77l-14.69-36.73H125.2L110.51,147.88z M209.3,157.06h-82.63
		c-2.53,0.08-4.65-1.91-4.73-4.44c-0.01-0.44,0.03-0.87,0.14-1.3l11.8-45.91c0.54-2.08,2.44-3.51,4.59-3.44h59.04
		c2.15-0.07,4.05,1.36,4.59,3.44l11.8,45.91c0.64,2.45-0.84,4.96-3.29,5.59C210.17,157.02,209.73,157.07,209.3,157.06z
		 M132.59,147.88h70.79l-9.46-36.73h-51.87L132.59,147.88z M167.98,138.7c-1.3,0-2.53-0.55-3.4-1.51
		c-4.36-4.87-42.51-48.06-42.51-71.94c0-25.35,20.55-45.91,45.91-45.91s45.91,20.55,45.91,45.91c0,23.87-38.15,67.07-42.51,71.94
		C170.51,138.14,169.28,138.69,167.98,138.7z M167.98,28.52c-20.28,0-36.73,16.44-36.73,36.73c0,15.7,24.01,47.01,36.73,61.88
		c12.72-14.87,36.73-46.18,36.73-61.88C204.71,44.96,188.26,28.52,167.98,28.52z M186.34,88.2h-36.73c-2.54,0-4.59-2.06-4.59-4.59
		V61.57c0.01-1.4,0.65-2.71,1.74-3.58l18.36-14.69c1.68-1.34,4.06-1.34,5.74,0l18.36,14.69c1.08,0.88,1.7,2.19,1.7,3.58v22.04
		C190.94,86.14,188.88,88.2,186.34,88.2L186.34,88.2z M154.21,79.02h27.54V63.78l-13.77-11.02l-13.77,11.02V79.02z"/>
</g>
<g id="Layer_13">
</g>
<g id="Layer_14">
</g>
<g id="Layer_15">
</g>
</svg>
