<?xml version="1.0" encoding="utf-8"?>
<!-- Generator: Adobe Illustrator 27.8.1, SVG Export Plug-In . SVG Version: 6.00 Build 0)  -->
<svg version="1.1" xmlns="http://www.w3.org/2000/svg" xmlns:xlink="http://www.w3.org/1999/xlink" x="0px" y="0px"
	 viewBox="0 0 350 230" style="enable-background:new 0 0 350 230;" xml:space="preserve">
<style type="text/css">
	.st0{fill-rule:evenodd;clip-rule:evenodd;fill:#A6D63C;}
	.st1{fill-rule:evenodd;clip-rule:evenodd;fill:#00A0D1;}
	.st2{fill:#421C00;}
	.st3{fill-rule:evenodd;clip-rule:evenodd;fill:#FFFFFF;}
	.st4{fill:#699AE2;}
	.st5{fill:#3B7DC4;}
	.st6{fill:#AF7500;}
	.st7{fill:#FFDF00;}
	.st8{fill:#1A0256;}
	.st9{fill:#00594F;}
	.st10{fill:#00779B;}
	.st11{fill:#0074FF;}
	.st12{fill:#194A91;}
	.st13{fill-rule:evenodd;clip-rule:evenodd;fill:#EFEFEF;}
	.st14{fill:#044159;}
	.st15{fill:#4C2900;}
	.st16{fill:#FFFFFF;}
	.st17{fill:#FFB41F;}
	.st18{fill:#FF5A00;}
	.st19{fill:#680404;}
	.st20{fill:#03AA6F;}
	.st21{fill:#FB5968;}
	.st22{fill:#FFD24A;}
	.st23{fill:#055EBC;}
	.st24{fill:#6F6F6F;}
	.st25{fill:#454545;}
	.st26{fill:#BA1A00;}
	.st27{fill:#0071BC;}
	.st28{fill:#6F0393;}
	.st29{fill:none;}
	.st30{fill:#96D7FF;}
	.st31{fill:#0C5100;}
	.st32{fill:#FFE856;}
	.st33{fill:#803971;}
	.st34{fill:#D3CECD;}
	.st35{fill:#4C241D;}
	.st36{fill:#EA3200;stroke:#4C241D;stroke-linecap:round;stroke-linejoin:round;stroke-miterlimit:50;}
	.st37{fill:#11930A;stroke:#4C241D;stroke-linecap:round;stroke-linejoin:round;stroke-miterlimit:50;}
	.st38{fill:#3792CF;}
	.st39{fill:#FEE36F;}
	.st40{fill:#136296;}
	.st41{fill:#53C2BA;}
	.st42{fill:#6D6D00;}
	.st43{fill:#001087;}
</style>
<g id="Layer_1">
</g>
<g id="Layer_2">
</g>
<g id="Layer_3">
</g>
<g id="Layer_4">
</g>
<g id="Layer_5">
	<g>
		<path class="st11" d="M198.65,128.02h23.39l1.94-3.42L198.65,128.02z M238.72,82.6c0.55,1.13,1.28,2.66,2.4,5.02
			C240.17,85.4,239.84,84.62,238.72,82.6z M218.1,58.74c1.26,0.95,2.58,1.98,3.66,2.82C220.72,60.66,219.37,59.67,218.1,58.74z
			 M225.82,65.26c0.84,0.87,1.95,2.03,3.65,3.83C227.95,67.36,227.4,66.72,225.82,65.26z M206.18,51.74
			c0.97,0.45,1.93,0.91,2.76,1.3C208.12,52.63,207.16,52.18,206.18,51.74z M198.34,48.65c1.16,0.41,2.68,0.96,5.05,1.83
			C201.19,49.59,200.32,49.24,198.34,48.65z M121.98,72.35c0.67-0.84,1.33-1.68,1.89-2.4C123.28,70.66,122.62,71.5,121.98,72.35z
			 M181.56,45.44c-6.86-0.41-11.99,0.26-14.76,0.62c-1.73,0.25-3.46,0.62-5.18,1.1c0.52-0.08,0.47,0.01-0.13,0.19
			c-0.61,0.19-1.53,0.41-2.07,0.49c-0.49,0.08-0.49,0.02-0.03-0.14c-2.26,0.47-4.43,1.12-6.51,1.93c-6,2.29-9.59,4.37-11.97,5.74
			c-1.47,0.85,0.09,1.02,4.78,0.29c7.7-1.2,20.93-4.37,29.56-7.07C181.34,46.71,183.51,45.54,181.56,45.44z M222.03,128.02
			l-26.43,46.75l-10.65-19.37l13.2-13.32l-17.28,7.29l-14.02-17.05l31.8-4.3H95.73v2.87h13.45c0.45,1.94,0.98,3.85,1.59,5.72
			c-4.78,6.59-6.56,12.76-4.45,17.68c5.48,12.83,35.36,12.52,68.27-0.17l2.34,3.77c-13.96,7.76-27.59,12.86-38.87,14.88
			c11.12,7.53,24.54,11.92,38.99,11.92c33.03,0,60.69-22.97,67.88-53.8h9.34v-2.87H222.03z M110.74,150.45
			c-1.99-5.13,0.69-11.61,6.82-18.35c-3.06,5.32-4,10.44-2.3,14.84c3.62,9.34,18.24,13.05,36.94,10.79
			C130.92,161.81,114.21,159.4,110.74,150.45z M194.28,59.57c-18.37,5.75-46.55,12.48-62.94,15.04c-8.31,1.3-12,1.27-11.22,0.18
			c0.02-0.03,0.04-0.05,0.06-0.08c0.47-0.62,1-1.33,1.54-2.04c0.08-0.1,0.16-0.21,0.24-0.32c0.67-0.84,1.33-1.68,1.89-2.4
			c1.75-1.92,2.86-3.14,3.72-4.04c0.01-0.01,0.01-0.01,0.01-0.02c1.41-1.49,2.12-2.12,3.91-3.67l2.18-1.81
			c-0.87,0.68,0.14,0.92,3.09,0.63c1.05-0.1,2.35-0.27,3.9-0.51c10.55-1.64,28.69-5.98,40.51-9.68c3-0.94,5.3-1.74,6.89-2.4
			c2.43-1,3.23-1.64,2.35-1.87l2.65,0.57c2.31,0.56,3.22,0.78,5.17,1.46c0.04,0.01,0.07,0.02,0.1,0.03
			c1.16,0.41,2.68,0.96,5.05,1.83c0.81,0.36,1.73,0.78,2.67,1.2c0.04,0.02,0.08,0.03,0.12,0.05c0.97,0.45,1.93,0.91,2.76,1.3
			C210.37,53.77,205.4,56.09,194.28,59.57z M254.27,88.1v2.87H95.73V88.1h17.03c0.38-0.82,0.8-1.74,1.23-2.67l0.19-0.41
			c0.06-0.14,0.12-0.27,0.19-0.4c0.44-0.93,0.88-1.84,1.29-2.62c-0.55,1.01,2.64,1.13,9.66,0.16c0.95-0.12,1.98-0.28,3.08-0.45
			c18.53-2.89,50.4-10.51,71.17-17.01c3.38-1.06,6.25-2.02,8.62-2.88c6.27-2.27,8.98-3.81,8.04-4.44c0.52,0.38,1.1,0.8,1.7,1.23
			c0.05,0.04,0.11,0.08,0.16,0.11c1.26,0.95,2.58,1.98,3.66,2.82c1.9,1.72,3.12,2.82,4.01,3.65c0.02,0.02,0.04,0.03,0.05,0.05
			c0.84,0.87,1.95,2.03,3.65,3.83l1.28,1.5c0.96,1.16-5.91,4.24-20.29,8.74c-9.13,2.86-20.05,5.89-31.31,8.77h30.71
			c1.57-0.48,3.11-0.94,4.59-1.41c3.24-1.01,6.11-1.96,8.62-2.83c9.07-3.15,13.38-5.34,12.75-6.32l0.17,0.27
			c1.29,2.25,2.13,3.7,2.74,4.79c0.55,1.13,1.28,2.66,2.4,5.02c0.05,0.15,0.12,0.31,0.18,0.48H254.27z"/>
		<path class="st12" d="M188.42,128.02l-24.19,3.27l16.24,19.74l11.83-4.99l-9.04,9.12l12.34,22.43l28.01-49.57l2.92-5.16
			L188.42,128.02z M195.6,174.77l-10.65-19.37l13.2-13.32l-17.28,7.29l-14.02-17.05l31.8-4.3h23.39L195.6,174.77z M241.12,87.62
			c0.05,0.15,0.12,0.31,0.18,0.48h0.01C241.24,87.94,241.18,87.78,241.12,87.62z M235.81,77.54c-0.6-0.94-5.72-0.77-15.51,0.73
			c0.98,1.8,1.9,3.67,2.77,5.59C232.14,80.71,236.44,78.52,235.81,77.54z M115.67,82.01c-0.55,1.01,2.64,1.13,9.66,0.16
			c0.54-1.8,1.15-3.56,1.83-5.26C120.05,79.3,116.18,81.06,115.67,82.01z M216.24,57.39c-0.87-0.58-4.86-0.4-12.06,0.7
			c1.37,1.17,2.72,2.42,4.02,3.74C214.47,59.56,217.18,58.02,216.24,57.39z M216.24,57.39c0.52,0.38,1.1,0.8,1.7,1.23
			C217.34,58.18,216.77,57.76,216.24,57.39z M190.42,46.59l-0.12-0.03c-0.89-0.16-3.05,0-6.49,0.52c1.43,0.38,2.86,0.84,4.27,1.37
			C190.5,47.47,191.3,46.82,190.42,46.59z M133.68,60.42c-0.87,0.68,0.14,0.92,3.09,0.63c1.01-1.15,2.08-2.23,3.19-3.25
			C136.52,58.95,134.43,59.85,133.68,60.42z"/>
	</g>
</g>
<g id="Layer_6">
</g>
<g id="Layer_7">
</g>
<g id="Layer_8">
</g>
<g id="Layer_9">
</g>
<g id="Layer_10">
</g>
<g id="Layer_11">
</g>
<g id="Layer_12">
</g>
<g id="Layer_13">
</g>
<g id="Layer_14">
</g>
<g id="Layer_15">
</g>
</svg>
