<?xml version="1.0" encoding="utf-8"?>
<!-- Generator: Adobe Illustrator 27.8.1, SVG Export Plug-In . SVG Version: 6.00 Build 0)  -->
<svg version="1.1" xmlns="http://www.w3.org/2000/svg" xmlns:xlink="http://www.w3.org/1999/xlink" x="0px" y="0px"
	 viewBox="0 0 350 230" style="enable-background:new 0 0 350 230;" xml:space="preserve">
<style type="text/css">
	.st0{fill-rule:evenodd;clip-rule:evenodd;fill:#A6D63C;}
	.st1{fill-rule:evenodd;clip-rule:evenodd;fill:#00A0D1;}
	.st2{fill:#421C00;}
	.st3{fill-rule:evenodd;clip-rule:evenodd;fill:#FFFFFF;}
	.st4{fill:#699AE2;}
	.st5{fill:#3B7DC4;}
	.st6{fill:#AF7500;}
	.st7{fill:#FFDF00;}
	.st8{fill:#1A0256;}
	.st9{fill:#00594F;}
	.st10{fill:#00779B;}
	.st11{fill:#0074FF;}
	.st12{fill:#194A91;}
	.st13{fill-rule:evenodd;clip-rule:evenodd;fill:#EFEFEF;}
	.st14{fill:#044159;}
	.st15{fill:#4C2900;}
	.st16{fill:#FFFFFF;}
	.st17{fill:#FFB41F;}
	.st18{fill:#FF5A00;}
	.st19{fill:#680404;}
	.st20{fill:#03AA6F;}
	.st21{fill:#FB5968;}
	.st22{fill:#FFD24A;}
	.st23{fill:#055EBC;}
	.st24{fill:#6F6F6F;}
	.st25{fill:#454545;}
	.st26{fill:#BA1A00;}
	.st27{fill:#0071BC;}
	.st28{fill:#6F0393;}
	.st29{fill:none;}
	.st30{fill:#96D7FF;}
	.st31{fill:#0C5100;}
	.st32{fill:#FFE856;}
	.st33{fill:#803971;}
	.st34{fill:#D3CECD;}
	.st35{fill:#4C241D;}
	.st36{fill:#EA3200;stroke:#4C241D;stroke-linecap:round;stroke-linejoin:round;stroke-miterlimit:50;}
	.st37{fill:#11930A;stroke:#4C241D;stroke-linecap:round;stroke-linejoin:round;stroke-miterlimit:50;}
	.st38{fill:#3792CF;}
	.st39{fill:#FEE36F;}
	.st40{fill:#136296;}
	.st41{fill:#53C2BA;}
	.st42{fill:#6D6D00;}
	.st43{fill:#001087;}
</style>
<g id="Layer_1">
</g>
<g id="Layer_2">
</g>
<g id="Layer_3">
</g>
<g id="Layer_4">
</g>
<g id="Layer_5">
</g>
<g id="Layer_6">
</g>
<g id="Layer_7">
</g>
<g id="Layer_8">
</g>
<g id="Layer_9">
</g>
<g id="Layer_10">
</g>
<g id="Layer_11">
</g>
<g id="Layer_12">
</g>
<g id="Layer_13">
</g>
<g id="Layer_14">
</g>
<g id="Layer_15">
	<g>
		<g>
			<path class="st41" d="M182.68,63.79c-1.23-0.33-2.47-0.57-3.76-0.73c-0.81-0.11-1.63-0.19-2.47-0.23
				c-0.47-0.03-0.96-0.04-1.44-0.04c-0.5,0-0.99,0.01-1.47,0.04c-0.84,0.04-1.66,0.13-2.49,0.23c-1.27,0.16-2.52,0.41-3.73,0.74
				c-12.55,3.36-21.79,14.74-21.79,28.26v15.58c0,0.34,0.01,0.7,0.03,1.04c0,0.2,0.01,0.4,0.03,0.6c0.01,0.29,0.04,0.57,0.07,0.86
				c0.04,0.34,0.09,0.67,0.14,1c0.04,0.33,0.1,0.66,0.17,0.99c0.04,0.2,0.09,0.4,0.13,0.59c0.07,0.33,0.14,0.64,0.24,0.96
				c0.06,0.27,0.14,0.54,0.23,0.81c0.3,0.97,0.67,1.92,1.1,2.82c0.09,0.21,0.19,0.41,0.29,0.61c0.13,0.23,0.24,0.46,0.37,0.69
				c0.2,0.4,0.43,0.79,0.67,1.16c0.16,0.26,0.33,0.51,0.5,0.76c0.2,0.31,0.41,0.61,0.64,0.9c4.23,5.63,10.98,9.28,18.6,9.28h12.52
				c7.19,0,13.61-3.25,17.87-8.35c0.01-0.01,0.03-0.04,0.04-0.06c0.23-0.27,0.47-0.57,0.69-0.87c0.36-0.47,0.69-0.94,1-1.44
				c0.16-0.24,0.31-0.5,0.47-0.76c0.17-0.3,0.34-0.61,0.51-0.93c0.16-0.3,0.3-0.59,0.44-0.89c0.41-0.89,0.77-1.8,1.09-2.76
				c0.41-1.26,0.71-2.57,0.89-3.92v-0.01c0.04-0.33,0.07-0.67,0.11-1c0.07-0.69,0.1-1.37,0.1-2.07V92.07
				C204.47,78.55,195.23,67.15,182.68,63.79z M153.93,87.97c1.2-2.54,4.97-7.26,16.58-7.62v7.62H153.93z M151.92,110.84
				c0.41-0.64,1.3-0.83,1.94-0.4c1.76,1.14,3.65,2.14,5.6,2.97c0.71,0.3,1.06,1.13,0.74,1.83c-0.23,0.53-0.74,0.86-1.3,0.86
				c-0.19,0-0.37-0.04-0.54-0.11c-2.12-0.9-4.15-1.97-6.05-3.2C151.67,112.36,151.49,111.48,151.92,110.84z M163.81,116.42
				c0.19-0.76,0.94-1.22,1.7-1.04c2.03,0.49,4.16,0.81,6.3,0.97c0.79,0.04,1.36,0.73,1.3,1.5c-0.06,0.73-0.67,1.3-1.4,1.3
				c-0.04,0-0.07,0-0.11-0.01c-2.29-0.16-4.56-0.51-6.75-1.03C164.1,117.93,163.64,117.17,163.81,116.42z M179.48,87.97v-7.62
				c11.62,0.36,15.4,5.07,16.58,7.62H179.48z M178.32,119.13c-0.74,0-1.36-0.56-1.42-1.3c-0.06-0.76,0.53-1.44,1.3-1.5
				c2.16-0.16,4.27-0.47,6.3-0.96c0.76-0.19,1.53,0.29,1.7,1.04c0.19,0.74-0.29,1.5-1.04,1.69c-2.17,0.51-4.45,0.86-6.75,1.03
				H178.32z M191.12,116.09c-0.56,0-1.07-0.31-1.3-0.86c-0.31-0.7,0.03-1.53,0.74-1.83c1.94-0.83,3.83-1.84,5.6-2.99
				c0.66-0.41,1.53-0.24,1.96,0.41c0.41,0.64,0.24,1.52-0.41,1.93c-1.9,1.24-3.93,2.32-6.05,3.22
				C191.49,116.04,191.3,116.09,191.12,116.09z M286.65,86.11c-15.41,8.59-80.94,10.59-82.17,10.64c-0.01,0-0.01,0-0.01,0v10.91
				c0,0.7-0.03,1.39-0.09,2.07c-0.04,0.33-0.07,0.67-0.11,1v0.01c-0.17,1.34-0.47,2.66-0.89,3.92c-0.31,0.96-0.67,1.87-1.09,2.76
				c-0.14,0.3-0.29,0.59-0.44,0.89c-0.17,0.31-0.34,0.63-0.51,0.93c-0.16,0.26-0.31,0.51-0.47,0.76c-0.31,0.5-0.64,0.97-1,1.44
				c-0.21,0.3-0.46,0.6-0.69,0.87c-0.01,0.01-0.03,0.04-0.04,0.06c5.16-0.16,10.52-0.59,18.07-1.74c0.01,0,0.01,0,0.03,0
				c-0.23-0.89-0.39-1.8-0.46-2.73c-0.01-0.31-0.03-0.63-0.03-0.94c0-8.28,6.76-14.98,15.1-14.98c0.26,0,0.51,0,0.77,0.01
				c0.43,0.03,0.84,0.07,1.26,0.11c0.24,0.04,0.5,0.09,0.74,0.13c0.23,0.04,0.44,0.09,0.67,0.14c0.44,0.1,0.87,0.21,1.3,0.36
				c0.21,0.07,0.43,0.16,0.64,0.23c0.41,0.16,0.81,0.34,1.22,0.53c0.4,0.2,0.79,0.41,1.17,0.64c0.19,0.11,0.37,0.23,0.56,0.34
				c0.56,0.37,1.07,0.77,1.57,1.2c0.17,0.14,0.33,0.29,0.49,0.44c0.17,0.14,0.33,0.3,0.47,0.46c0.27,0.29,0.51,0.56,0.77,0.86
				c0.04,0.04,0.07,0.09,0.1,0.13c0.43,0.5,0.8,1.04,1.14,1.62l0.01,0.01c0.23,0.37,0.44,0.74,0.63,1.14
				c0.34,0.69,0.63,1.42,0.87,2.16c0,0.01,0,0.01,0,0.01c0.23,0.74,0.4,1.52,0.51,2.32h0.01c4.62-1.02,9.68-2.17,15.32-3.49
				C312.04,99.66,302.21,77.43,286.65,86.11z M150.14,121.43c-0.24-0.3-0.46-0.6-0.64-0.9c-0.17-0.24-0.34-0.5-0.5-0.76
				c-0.24-0.37-0.47-0.76-0.67-1.16c-0.13-0.23-0.24-0.46-0.37-0.69c-0.1-0.2-0.2-0.4-0.29-0.61c-0.43-0.9-0.8-1.84-1.1-2.82
				c-0.09-0.27-0.17-0.54-0.23-0.81c-0.1-0.31-0.17-0.63-0.24-0.96c-0.04-0.19-0.09-0.39-0.13-0.59c-0.07-0.31-0.13-0.66-0.17-0.99
				c-0.06-0.33-0.1-0.66-0.14-1c-0.03-0.29-0.06-0.57-0.07-0.86c-0.01-0.2-0.03-0.4-0.03-0.6c-0.01-0.34-0.03-0.7-0.03-1.04V96.74
				c0,0-66.63-1.96-82.18-10.64S37.97,99.66,87.9,111.33c5.65,1.32,10.71,2.47,15.32,3.49h0.01c0.4-2.72,1.53-5.22,3.17-7.26
				c0.03-0.04,0.06-0.09,0.1-0.13c0.24-0.3,0.5-0.59,0.77-0.86c0.16-0.16,0.31-0.31,0.47-0.46c0.16-0.16,0.31-0.3,0.49-0.44
				c0.5-0.43,1.02-0.83,1.57-1.2c0.19-0.11,0.37-0.23,0.56-0.34c0.37-0.24,0.76-0.44,1.16-0.64c0.2-0.1,0.41-0.19,0.61-0.27
				c0.2-0.09,0.41-0.17,0.61-0.26c0.19-0.07,0.37-0.14,0.56-0.2c0.46-0.16,0.91-0.29,1.39-0.39c0.21-0.06,0.44-0.1,0.67-0.14
				c0.24-0.04,0.5-0.09,0.74-0.13c0.41-0.04,0.84-0.09,1.26-0.11c0.26-0.01,0.51-0.01,0.77-0.01c8.33,0,15.1,6.7,15.1,14.98
				c0,0.31-0.01,0.63-0.03,0.94c-0.07,0.93-0.23,1.84-0.44,2.73h0.01c7.52,1.16,12.91,1.59,18.07,1.74
				C150.6,122.06,150.36,121.75,150.14,121.43z"/>
			<path class="st42" d="M118.15,101.96c-0.26,0-0.51,0-0.77,0.01c-0.41,0.03-0.84,0.07-1.26,0.11c-0.24,0.04-0.5,0.09-0.74,0.13
				c-0.23,0.04-0.46,0.09-0.67,0.14c-0.47,0.1-0.93,0.23-1.39,0.39c-0.19,0.06-0.37,0.13-0.56,0.2c-0.2,0.09-0.41,0.17-0.61,0.26
				c-0.2,0.09-0.41,0.17-0.61,0.27c-0.4,0.2-0.79,0.4-1.16,0.64c-0.19,0.11-0.37,0.23-0.56,0.34c-0.56,0.37-1.07,0.77-1.57,1.2
				c-0.17,0.14-0.33,0.29-0.49,0.44c-0.16,0.14-0.31,0.3-0.47,0.46c-0.27,0.27-0.53,0.56-0.77,0.86c-0.04,0.04-0.07,0.09-0.1,0.13
				c-1.67,2.04-2.8,4.53-3.19,7.26c-0.1,0.69-0.16,1.4-0.16,2.13c0,8.28,6.76,14.98,15.08,14.98c7.06,0,12.99-4.8,14.64-11.31
				c0.23-0.89,0.37-1.8,0.43-2.73c0.01-0.31,0.03-0.63,0.03-0.94C133.25,108.67,126.49,101.96,118.15,101.96z M118.15,121.69
				c-2.63,0-4.77-2.13-4.77-4.75c0-2.62,2.14-4.75,4.77-4.75c2.64,0,4.79,2.13,4.79,4.75C122.94,119.56,120.8,121.69,118.15,121.69z
				 M246.77,114.81c-0.11-0.8-0.29-1.57-0.53-2.32c0,0,0,0,0-0.01c-0.23-0.74-0.51-1.47-0.87-2.16c-0.19-0.4-0.4-0.77-0.63-1.14
				l-0.01-0.01c-0.34-0.57-0.71-1.12-1.14-1.62c-0.03-0.04-0.06-0.09-0.1-0.13c-0.26-0.3-0.5-0.57-0.77-0.86
				c-0.14-0.16-0.3-0.31-0.47-0.46c-0.16-0.16-0.31-0.3-0.49-0.44c-0.5-0.43-1.01-0.83-1.57-1.2c-0.19-0.11-0.37-0.23-0.56-0.34
				c-0.39-0.23-0.77-0.44-1.17-0.64c-0.4-0.19-0.8-0.37-1.22-0.53c-0.21-0.07-0.43-0.16-0.64-0.23c-0.43-0.14-0.86-0.26-1.3-0.36
				c-0.23-0.06-0.44-0.1-0.67-0.14c-0.24-0.04-0.5-0.09-0.74-0.13c-0.41-0.04-0.83-0.09-1.26-0.11c-0.26-0.01-0.51-0.01-0.77-0.01
				c-8.33,0-15.1,6.7-15.1,14.98c0,0.31,0.01,0.63,0.03,0.94c0.06,0.93,0.2,1.84,0.43,2.73c1.64,6.5,7.58,11.31,14.64,11.31
				c8.32,0,15.08-6.7,15.08-14.98C246.92,116.21,246.87,115.5,246.77,114.81z M231.84,112.2c2.63,0,4.77,2.13,4.77,4.75
				c0,2.62-2.14,4.75-4.77,4.75c-2.64,0-4.79-2.13-4.79-4.75C227.05,114.33,229.2,112.2,231.84,112.2z M176.99,18.39
				c-0.67-3.39-3.32-3.39-3.99,0c-2.06,10.35-5.05,27.93-5.69,45.42c0,0.01,0,0.01,0,0.03c1.22-0.33,2.46-0.59,3.73-0.77
				c0.83-0.1,1.64-0.19,2.49-0.23c0.49-0.03,0.97-0.04,1.47-0.04c0.49,0,0.97,0.01,1.44,0.04c0.84,0.04,1.66,0.11,2.47,0.23
				c1.29,0.19,2.53,0.44,3.76,0.77v-0.04C182.04,46.31,179.05,28.73,176.99,18.39z"/>
			<path class="st41" d="M123.02,66.43c2.12,2.41,13.78,5,29.88,6.31c5.4-6.09,13.29-9.95,22.1-9.95h-50.65
				C124.35,62.79,120.02,63.01,123.02,66.43z M225.65,62.79H175c8.81,0,16.69,3.86,22.1,9.95c16.11-1.31,27.77-3.9,29.88-6.31
				C229.98,63.01,225.65,62.79,225.65,62.79z"/>
			<path class="st43" d="M171.93,77.53c-19.57,0-21.26,11.18-21.33,11.65c-0.04,0.4,0.07,0.81,0.34,1.12
				c0.27,0.3,0.66,0.47,1.06,0.47h19.93c0.77,0,1.42-0.63,1.42-1.4V78.93C173.35,78.16,172.72,77.53,171.93,77.53z M170.52,87.97
				h-16.58c1.2-2.54,4.97-7.26,16.58-7.62V87.97z M178.06,77.53c-0.77,0-1.42,0.61-1.42,1.4v10.44c0.01,0.77,0.64,1.4,1.42,1.4
				h19.93c0.4,0,0.79-0.17,1.06-0.47c0.27-0.31,0.4-0.71,0.34-1.12C199.34,88.71,197.65,77.53,178.06,77.53z M179.48,87.97v-7.62
				c11.62,0.36,15.4,5.07,16.58,7.62H179.48z M118.15,109.4c-4.19,0-7.59,3.39-7.59,7.55c0,4.16,3.4,7.55,7.59,7.55
				c4.2,0,7.61-3.39,7.61-7.55C125.76,112.78,122.35,109.4,118.15,109.4z M118.15,121.69c-2.63,0-4.77-2.13-4.77-4.75
				c0-2.62,2.14-4.75,4.77-4.75c2.64,0,4.79,2.13,4.79,4.75C122.94,119.56,120.8,121.69,118.15,121.69z M231.84,109.4
				c-4.2,0-7.61,3.39-7.61,7.55c0,4.16,3.4,7.55,7.61,7.55c4.19,0,7.59-3.39,7.59-7.55C239.43,112.78,236.03,109.4,231.84,109.4z
				 M231.84,121.69c-2.64,0-4.79-2.13-4.79-4.75c0-2.62,2.14-4.75,4.79-4.75c2.63,0,4.77,2.13,4.77,4.75
				C236.62,119.56,234.47,121.69,231.84,121.69z M118.15,109.4c-4.19,0-7.59,3.39-7.59,7.55c0,4.16,3.4,7.55,7.59,7.55
				c4.2,0,7.61-3.39,7.61-7.55C125.76,112.78,122.35,109.4,118.15,109.4z M118.15,121.69c-2.63,0-4.77-2.13-4.77-4.75
				c0-2.62,2.14-4.75,4.77-4.75c2.64,0,4.79,2.13,4.79,4.75C122.94,119.56,120.8,121.69,118.15,121.69z M171.93,77.53
				c-19.57,0-21.26,11.18-21.33,11.65c-0.04,0.4,0.07,0.81,0.34,1.12c0.27,0.3,0.66,0.47,1.06,0.47h19.93c0.77,0,1.42-0.63,1.42-1.4
				V78.93C173.35,78.16,172.72,77.53,171.93,77.53z M170.52,87.97h-16.58c1.2-2.54,4.97-7.26,16.58-7.62V87.97z M178.06,77.53
				c-0.77,0-1.42,0.61-1.42,1.4v10.44c0.01,0.77,0.64,1.4,1.42,1.4h19.93c0.4,0,0.79-0.17,1.06-0.47c0.27-0.31,0.4-0.71,0.34-1.12
				C199.34,88.71,197.65,77.53,178.06,77.53z M179.48,87.97v-7.62c11.62,0.36,15.4,5.07,16.58,7.62H179.48z M231.84,109.4
				c-4.2,0-7.61,3.39-7.61,7.55c0,4.16,3.4,7.55,7.61,7.55c4.19,0,7.59-3.39,7.59-7.55C239.43,112.78,236.03,109.4,231.84,109.4z
				 M231.84,121.69c-2.64,0-4.79-2.13-4.79-4.75c0-2.62,2.14-4.75,4.79-4.75c2.63,0,4.77,2.13,4.77,4.75
				C236.62,119.56,234.47,121.69,231.84,121.69z M231.84,109.4c-4.2,0-7.61,3.39-7.61,7.55c0,4.16,3.4,7.55,7.61,7.55
				c4.19,0,7.59-3.39,7.59-7.55C239.43,112.78,236.03,109.4,231.84,109.4z M231.84,121.69c-2.64,0-4.79-2.13-4.79-4.75
				c0-2.62,2.14-4.75,4.79-4.75c2.63,0,4.77,2.13,4.77,4.75C236.62,119.56,234.47,121.69,231.84,121.69z M118.15,109.4
				c-4.19,0-7.59,3.39-7.59,7.55c0,4.16,3.4,7.55,7.59,7.55c4.2,0,7.61-3.39,7.61-7.55C125.76,112.78,122.35,109.4,118.15,109.4z
				 M118.15,121.69c-2.63,0-4.77-2.13-4.77-4.75c0-2.62,2.14-4.75,4.77-4.75c2.64,0,4.79,2.13,4.79,4.75
				C122.94,119.56,120.8,121.69,118.15,121.69z M178.06,77.53c-0.77,0-1.42,0.61-1.42,1.4v10.44c0.01,0.77,0.64,1.4,1.42,1.4h19.93
				c0.4,0,0.79-0.17,1.06-0.47c0.27-0.31,0.4-0.71,0.34-1.12C199.34,88.71,197.65,77.53,178.06,77.53z M179.48,87.97v-7.62
				c11.62,0.36,15.4,5.07,16.58,7.62H179.48z M171.93,77.53c-19.57,0-21.26,11.18-21.33,11.65c-0.04,0.4,0.07,0.81,0.34,1.12
				c0.27,0.3,0.66,0.47,1.06,0.47h19.93c0.77,0,1.42-0.63,1.42-1.4V78.93C173.35,78.16,172.72,77.53,171.93,77.53z M170.52,87.97
				h-16.58c1.2-2.54,4.97-7.26,16.58-7.62V87.97z M118.15,109.4c-4.19,0-7.59,3.39-7.59,7.55c0,4.16,3.4,7.55,7.59,7.55
				c4.2,0,7.61-3.39,7.61-7.55C125.76,112.78,122.35,109.4,118.15,109.4z M118.15,121.69c-2.63,0-4.77-2.13-4.77-4.75
				c0-2.62,2.14-4.75,4.77-4.75c2.64,0,4.79,2.13,4.79,4.75C122.94,119.56,120.8,121.69,118.15,121.69z M171.93,77.53
				c-19.57,0-21.26,11.18-21.33,11.65c-0.04,0.4,0.07,0.81,0.34,1.12c0.27,0.3,0.66,0.47,1.06,0.47h19.93c0.77,0,1.42-0.63,1.42-1.4
				V78.93C173.35,78.16,172.72,77.53,171.93,77.53z M170.52,87.97h-16.58c1.2-2.54,4.97-7.26,16.58-7.62V87.97z M178.06,77.53
				c-0.77,0-1.42,0.61-1.42,1.4v10.44c0.01,0.77,0.64,1.4,1.42,1.4h19.93c0.4,0,0.79-0.17,1.06-0.47c0.27-0.31,0.4-0.71,0.34-1.12
				C199.34,88.71,197.65,77.53,178.06,77.53z M179.48,87.97v-7.62c11.62,0.36,15.4,5.07,16.58,7.62H179.48z M231.84,109.4
				c-4.2,0-7.61,3.39-7.61,7.55c0,4.16,3.4,7.55,7.61,7.55c4.19,0,7.59-3.39,7.59-7.55C239.43,112.78,236.03,109.4,231.84,109.4z
				 M231.84,121.69c-2.64,0-4.79-2.13-4.79-4.75c0-2.62,2.14-4.75,4.79-4.75c2.63,0,4.77,2.13,4.77,4.75
				C236.62,119.56,234.47,121.69,231.84,121.69z M231.84,109.4c-4.2,0-7.61,3.39-7.61,7.55c0,4.16,3.4,7.55,7.61,7.55
				c4.19,0,7.59-3.39,7.59-7.55C239.43,112.78,236.03,109.4,231.84,109.4z M231.84,121.69c-2.64,0-4.79-2.13-4.79-4.75
				c0-2.62,2.14-4.75,4.79-4.75c2.63,0,4.77,2.13,4.77,4.75C236.62,119.56,234.47,121.69,231.84,121.69z M118.15,109.4
				c-4.19,0-7.59,3.39-7.59,7.55c0,4.16,3.4,7.55,7.59,7.55c4.2,0,7.61-3.39,7.61-7.55C125.76,112.78,122.35,109.4,118.15,109.4z
				 M118.15,121.69c-2.63,0-4.77-2.13-4.77-4.75c0-2.62,2.14-4.75,4.77-4.75c2.64,0,4.79,2.13,4.79,4.75
				C122.94,119.56,120.8,121.69,118.15,121.69z M178.06,77.53c-0.77,0-1.42,0.61-1.42,1.4v10.44c0.01,0.77,0.64,1.4,1.42,1.4h19.93
				c0.4,0,0.79-0.17,1.06-0.47c0.27-0.31,0.4-0.71,0.34-1.12C199.34,88.71,197.65,77.53,178.06,77.53z M179.48,87.97v-7.62
				c11.62,0.36,15.4,5.07,16.58,7.62H179.48z M171.93,77.53c-19.57,0-21.26,11.18-21.33,11.65c-0.04,0.4,0.07,0.81,0.34,1.12
				c0.27,0.3,0.66,0.47,1.06,0.47h19.93c0.77,0,1.42-0.63,1.42-1.4V78.93C173.35,78.16,172.72,77.53,171.93,77.53z M170.52,87.97
				h-16.58c1.2-2.54,4.97-7.26,16.58-7.62V87.97z M118.15,109.4c-4.19,0-7.59,3.39-7.59,7.55c0,4.16,3.4,7.55,7.59,7.55
				c4.2,0,7.61-3.39,7.61-7.55C125.76,112.78,122.35,109.4,118.15,109.4z M118.15,121.69c-2.63,0-4.77-2.13-4.77-4.75
				c0-2.62,2.14-4.75,4.77-4.75c2.64,0,4.79,2.13,4.79,4.75C122.94,119.56,120.8,121.69,118.15,121.69z M171.93,77.53
				c-19.57,0-21.26,11.18-21.33,11.65c-0.04,0.4,0.07,0.81,0.34,1.12c0.27,0.3,0.66,0.47,1.06,0.47h19.93c0.77,0,1.42-0.63,1.42-1.4
				V78.93C173.35,78.16,172.72,77.53,171.93,77.53z M170.52,87.97h-16.58c1.2-2.54,4.97-7.26,16.58-7.62V87.97z M178.06,77.53
				c-0.77,0-1.42,0.61-1.42,1.4v10.44c0.01,0.77,0.64,1.4,1.42,1.4h19.93c0.4,0,0.79-0.17,1.06-0.47c0.27-0.31,0.4-0.71,0.34-1.12
				C199.34,88.71,197.65,77.53,178.06,77.53z M179.48,87.97v-7.62c11.62,0.36,15.4,5.07,16.58,7.62H179.48z M231.84,109.4
				c-4.2,0-7.61,3.39-7.61,7.55c0,4.16,3.4,7.55,7.61,7.55c4.19,0,7.59-3.39,7.59-7.55C239.43,112.78,236.03,109.4,231.84,109.4z
				 M231.84,121.69c-2.64,0-4.79-2.13-4.79-4.75c0-2.62,2.14-4.75,4.79-4.75c2.63,0,4.77,2.13,4.77,4.75
				C236.62,119.56,234.47,121.69,231.84,121.69z M231.84,109.4c-4.2,0-7.61,3.39-7.61,7.55c0,4.16,3.4,7.55,7.61,7.55
				c4.19,0,7.59-3.39,7.59-7.55C239.43,112.78,236.03,109.4,231.84,109.4z M231.84,121.69c-2.64,0-4.79-2.13-4.79-4.75
				c0-2.62,2.14-4.75,4.79-4.75c2.63,0,4.77,2.13,4.77,4.75C236.62,119.56,234.47,121.69,231.84,121.69z M118.15,109.4
				c-4.19,0-7.59,3.39-7.59,7.55c0,4.16,3.4,7.55,7.59,7.55c4.2,0,7.61-3.39,7.61-7.55C125.76,112.78,122.35,109.4,118.15,109.4z
				 M118.15,121.69c-2.63,0-4.77-2.13-4.77-4.75c0-2.62,2.14-4.75,4.77-4.75c2.64,0,4.79,2.13,4.79,4.75
				C122.94,119.56,120.8,121.69,118.15,121.69z M178.06,77.53c-0.77,0-1.42,0.61-1.42,1.4v10.44c0.01,0.77,0.64,1.4,1.42,1.4h19.93
				c0.4,0,0.79-0.17,1.06-0.47c0.27-0.31,0.4-0.71,0.34-1.12C199.34,88.71,197.65,77.53,178.06,77.53z M179.48,87.97v-7.62
				c11.62,0.36,15.4,5.07,16.58,7.62H179.48z M171.93,77.53c-19.57,0-21.26,11.18-21.33,11.65c-0.04,0.4,0.07,0.81,0.34,1.12
				c0.27,0.3,0.66,0.47,1.06,0.47h19.93c0.77,0,1.42-0.63,1.42-1.4V78.93C173.35,78.16,172.72,77.53,171.93,77.53z M170.52,87.97
				h-16.58c1.2-2.54,4.97-7.26,16.58-7.62V87.97z M118.15,109.4c-4.19,0-7.59,3.39-7.59,7.55c0,4.16,3.4,7.55,7.59,7.55
				c4.2,0,7.61-3.39,7.61-7.55C125.76,112.78,122.35,109.4,118.15,109.4z M118.15,121.69c-2.63,0-4.77-2.13-4.77-4.75
				c0-2.62,2.14-4.75,4.77-4.75c2.64,0,4.79,2.13,4.79,4.75C122.94,119.56,120.8,121.69,118.15,121.69z M171.93,77.53
				c-19.57,0-21.26,11.18-21.33,11.65c-0.04,0.4,0.07,0.81,0.34,1.12c0.27,0.3,0.66,0.47,1.06,0.47h19.93c0.77,0,1.42-0.63,1.42-1.4
				V78.93C173.35,78.16,172.72,77.53,171.93,77.53z M170.52,87.97h-16.58c1.2-2.54,4.97-7.26,16.58-7.62V87.97z M178.06,77.53
				c-0.77,0-1.42,0.61-1.42,1.4v10.44c0.01,0.77,0.64,1.4,1.42,1.4h19.93c0.4,0,0.79-0.17,1.06-0.47c0.27-0.31,0.4-0.71,0.34-1.12
				C199.34,88.71,197.65,77.53,178.06,77.53z M179.48,87.97v-7.62c11.62,0.36,15.4,5.07,16.58,7.62H179.48z M231.84,109.4
				c-4.2,0-7.61,3.39-7.61,7.55c0,4.16,3.4,7.55,7.61,7.55c4.19,0,7.59-3.39,7.59-7.55C239.43,112.78,236.03,109.4,231.84,109.4z
				 M231.84,121.69c-2.64,0-4.79-2.13-4.79-4.75c0-2.62,2.14-4.75,4.79-4.75c2.63,0,4.77,2.13,4.77,4.75
				C236.62,119.56,234.47,121.69,231.84,121.69z M118.15,109.4c-4.19,0-7.59,3.39-7.59,7.55c0,4.16,3.4,7.55,7.59,7.55
				c4.2,0,7.61-3.39,7.61-7.55C125.76,112.78,122.35,109.4,118.15,109.4z M118.15,121.69c-2.63,0-4.77-2.13-4.77-4.75
				c0-2.62,2.14-4.75,4.77-4.75c2.64,0,4.79,2.13,4.79,4.75C122.94,119.56,120.8,121.69,118.15,121.69z M178.06,77.53
				c-0.77,0-1.42,0.61-1.42,1.4v10.44c0.01,0.77,0.64,1.4,1.42,1.4h19.93c0.4,0,0.79-0.17,1.06-0.47c0.27-0.31,0.4-0.71,0.34-1.12
				C199.34,88.71,197.65,77.53,178.06,77.53z M179.48,87.97v-7.62c11.62,0.36,15.4,5.07,16.58,7.62H179.48z M171.93,77.53
				c-19.57,0-21.26,11.18-21.33,11.65c-0.04,0.4,0.07,0.81,0.34,1.12c0.27,0.3,0.66,0.47,1.06,0.47h19.93c0.77,0,1.42-0.63,1.42-1.4
				V78.93C173.35,78.16,172.72,77.53,171.93,77.53z M170.52,87.97h-16.58c1.2-2.54,4.97-7.26,16.58-7.62V87.97z M231.84,109.4
				c-4.2,0-7.61,3.39-7.61,7.55c0,4.16,3.4,7.55,7.61,7.55c4.19,0,7.59-3.39,7.59-7.55C239.43,112.78,236.03,109.4,231.84,109.4z
				 M231.84,121.69c-2.64,0-4.79-2.13-4.79-4.75c0-2.62,2.14-4.75,4.79-4.75c2.63,0,4.77,2.13,4.77,4.75
				C236.62,119.56,234.47,121.69,231.84,121.69z M298.19,84.16c-2.93-2.13-7.62-1.84-12.22,0.71
				c-13.82,7.72-70.29,10.06-80.07,10.42v-3.23c0-6.79-2.24-13.08-6.02-18.17c12.25-1.14,25.39-3.39,28.18-6.55
				c1.29-1.49,1.7-2.83,1.2-3.99c-0.76-1.76-3.07-1.96-3.53-1.97h-41.74c-0.79-16.37-3.45-32.45-5.6-43.27
				c-0.53-2.7-2.1-3.67-3.37-3.67c-1.29,0-2.86,0.97-3.39,3.67c-2.16,10.82-4.82,26.9-5.6,43.27h-41.73
				c-0.46,0.03-2.79,0.23-3.53,1.97c-0.5,1.16-0.1,2.5,1.2,3.99c2.77,3.16,15.91,5.4,28.18,6.55c-3.77,5.09-6.02,11.38-6.02,18.17
				v3.23c-9.79-0.36-66.24-2.7-80.07-10.41c-4.6-2.57-9.29-2.86-12.22-0.73c-2.03,1.46-2.87,3.82-2.33,6.46
				c0.66,3.25,5.35,14.42,38.1,22.06c5.16,1.2,9.84,2.27,14.12,3.23c-0.01,0.34-0.04,0.69-0.04,1.03c0,9.03,7.39,16.38,16.5,16.38
				c7.25,0,13.41-4.67,15.61-11.15c6.08,0.9,11.11,1.37,16.45,1.56c4.52,5.12,11.14,8.38,18.51,8.38h12.52
				c7.38,0,13.98-3.26,18.5-8.38c5.36-0.19,10.38-0.66,16.45-1.56c2.22,6.48,8.36,11.15,15.62,11.15c9.09,0,16.5-7.35,16.5-16.38
				c0-0.34-0.03-0.69-0.06-1.03c4.3-0.96,8.96-2.02,14.14-3.23c32.74-7.63,37.43-18.81,38.1-22.06
				C301.05,87.98,300.2,85.62,298.19,84.16z M231.84,130.52c-6.39,0-11.75-4.37-13.25-10.26c-0.13-0.54-0.23-1.09-0.31-1.62v-0.09
				c-0.07-0.54-0.11-1.09-0.11-1.62c0-7.49,6.13-13.59,13.68-13.59c0.44,0,0.87,0.03,1.32,0.07c0.21,0.01,0.41,0.06,0.63,0.09
				c0.2,0.04,0.41,0.06,0.61,0.1c0.29,0.06,0.56,0.13,0.84,0.19c0.11,0.04,0.23,0.07,0.36,0.1c0.31,0.09,0.63,0.2,0.94,0.31
				c0.06,0.01,0.13,0.04,0.19,0.07c0.34,0.13,0.69,0.27,1.02,0.43c0.01,0.01,0.03,0.01,0.04,0.03c3.97,1.93,6.92,5.72,7.58,10.28
				c0.09,0.63,0.14,1.27,0.14,1.93C245.51,124.43,239.38,130.52,231.84,130.52z M181.28,129.3h-12.54c-7.49,0-14.11-3.77-18.04-9.51
				c-0.06-0.1-0.11-0.2-0.19-0.3c-0.29-0.44-0.57-0.9-0.83-1.36c-0.13-0.23-0.23-0.44-0.34-0.67c-0.19-0.36-0.36-0.71-0.53-1.07
				c-0.13-0.29-0.24-0.57-0.36-0.86c-0.11-0.31-0.24-0.64-0.36-0.97c-0.1-0.31-0.2-0.63-0.3-0.94c-0.09-0.33-0.17-0.66-0.26-1
				c-0.07-0.31-0.14-0.63-0.2-0.94c-0.07-0.39-0.13-0.77-0.19-1.17c-0.04-0.27-0.09-0.53-0.1-0.8c-0.04-0.37-0.04-0.76-0.06-1.13
				c0.26,0.23,0.59,0.34,0.91,0.34c0.36,0,0.73-0.14,1.01-0.43c0.54-0.56,0.51-1.44-0.04-1.97c-0.96-0.93-1.6-1.66-1.93-2.07V92.07
				h-0.01c0-7.41,2.93-14.12,7.69-19.11c0.36-0.37,0.71-0.74,1.09-1.09c0.29-0.27,0.56-0.51,0.86-0.77c0.39-0.34,0.8-0.67,1.22-1
				c0.31-0.24,0.63-0.49,0.96-0.71c0.37-0.26,0.74-0.51,1.11-0.76c0.41-0.26,0.81-0.5,1.24-0.74c0.31-0.19,0.63-0.36,0.96-0.53
				c0.51-0.26,1.03-0.51,1.57-0.74c0.31-0.14,0.63-0.27,0.94-0.4c0.57-0.23,1.16-0.44,1.74-0.64c0.27-0.09,0.56-0.16,0.83-0.24
				c0.21-0.06,0.44-0.11,0.66-0.17c0.94-0.24,1.87-0.43,2.8-0.59c0.33-0.04,0.66-0.11,0.97-0.14c0.37-0.04,0.73-0.09,1.09-0.11
				c0.69-0.06,1.37-0.1,2.06-0.1h0.54c0.69,0,1.37,0.04,2.06,0.1c0.36,0.03,0.71,0.07,1.09,0.11c0.33,0.03,0.64,0.1,0.97,0.14
				c0.93,0.16,1.86,0.34,2.8,0.59c0.21,0.06,0.43,0.1,0.64,0.17c0.29,0.07,0.57,0.16,0.84,0.24c0.59,0.2,1.17,0.41,1.73,0.63
				c0.33,0.13,0.64,0.27,0.96,0.41c0.54,0.23,1.06,0.49,1.57,0.74c0.33,0.17,0.64,0.34,0.96,0.53c0.41,0.24,0.83,0.49,1.23,0.74
				c0.39,0.24,0.76,0.5,1.13,0.76c0.33,0.24,0.64,0.47,0.96,0.71c0.41,0.31,0.81,0.66,1.22,1c0.29,0.26,0.57,0.5,0.86,0.77
				c0.36,0.34,0.71,0.7,1.06,1.06c4.77,5,7.72,11.72,7.72,19.14v12.37c-0.33,0.4-0.97,1.14-1.93,2.07
				c-0.57,0.53-0.59,1.42-0.04,1.97c0.27,0.29,0.64,0.43,1.02,0.43c0.33,0,0.66-0.11,0.91-0.34c-0.01,0.37-0.01,0.76-0.06,1.13
				c-0.03,0.27-0.07,0.53-0.1,0.8c-0.06,0.4-0.11,0.79-0.19,1.17c-0.06,0.31-0.14,0.63-0.21,0.94c-0.07,0.34-0.16,0.67-0.26,1
				c-0.09,0.31-0.19,0.63-0.29,0.94c-0.11,0.33-0.24,0.64-0.37,0.97c-0.11,0.29-0.23,0.57-0.34,0.86c-0.17,0.36-0.34,0.71-0.53,1.07
				c-0.11,0.23-0.21,0.44-0.34,0.67c-0.26,0.46-0.54,0.91-0.84,1.36c-0.06,0.1-0.11,0.2-0.17,0.3
				C195.39,125.52,188.77,129.3,181.28,129.3z M118.15,130.52c-7.53,0-13.67-6.09-13.67-13.58c0-0.66,0.06-1.29,0.16-1.93
				c0.33-2.29,1.23-4.37,2.54-6.12c1.32-1.77,3.04-3.2,5.02-4.16c0.01-0.01,0.03-0.01,0.04-0.03c0.34-0.16,0.67-0.3,1.03-0.43
				c0.06-0.03,0.11-0.06,0.17-0.07c0.31-0.11,0.63-0.23,0.96-0.31c0.11-0.03,0.24-0.06,0.36-0.1c0.27-0.07,0.54-0.13,0.83-0.19
				c0.2-0.04,0.41-0.06,0.63-0.1c0.2-0.03,0.41-0.06,0.63-0.09c0.43-0.04,0.87-0.07,1.32-0.07c7.53,0,13.67,6.1,13.67,13.59
				c0,0.53-0.03,1.07-0.1,1.62c-0.01,0.03-0.01,0.06-0.01,0.09c-0.07,0.53-0.17,1.07-0.31,1.62
				C129.9,126.15,124.54,130.52,118.15,130.52z M53.48,86.42c1.52-1.1,4.83-1.52,9.18,0.91c14.61,8.15,71.59,10.44,81.46,10.76v9.55
				c0,0.73,0.04,1.47,0.11,2.19c0.01,0.24,0.04,0.47,0.07,0.7c0.07,0.51,0.14,1.04,0.24,1.56c0.04,0.21,0.07,0.43,0.11,0.66
				c0.14,0.64,0.31,1.3,0.5,1.93c0.09,0.24,0.17,0.49,0.24,0.73c0.16,0.44,0.33,0.9,0.5,1.34c0.1,0.23,0.19,0.46,0.29,0.67
				c0.27,0.63,0.57,1.26,0.9,1.86v0.01c0.29,0.51,0.59,1.03,0.91,1.53c-4.33-0.21-8.58-0.66-13.55-1.39
				c0.01-0.09,0.03-0.19,0.04-0.29c0.03-0.26,0.07-0.53,0.1-0.8c0.04-0.47,0.07-0.94,0.07-1.42c0-9.03-7.41-16.38-16.5-16.38
				c-0.53,0-1.04,0.03-1.54,0.07c-0.23,0.03-0.43,0.06-0.66,0.09c-0.27,0.04-0.54,0.07-0.81,0.13c-0.29,0.06-0.56,0.11-0.84,0.19
				c-0.17,0.04-0.36,0.09-0.53,0.13c-0.34,0.1-0.66,0.2-0.99,0.31c-0.09,0.03-0.19,0.06-0.27,0.09c-5.15,1.87-9.09,6.22-10.39,11.58
				c-4.22-0.94-8.83-2-13.9-3.19c-24.75-5.78-34.84-14.31-35.97-19.88C51.94,88.5,52.36,87.24,53.48,86.42z M174.95,17.25
				c0.09,0.03,0.46,0.39,0.67,1.42c1.74,8.78,4.7,25.67,5.55,42.73h-12.32c0.84-17.05,3.79-33.95,5.55-42.73
				C174.59,17.65,174.95,17.29,174.95,17.25z M247.87,113.13c-0.66-2.69-1.96-5.1-3.76-7.09c-1.79-1.99-4.06-3.55-6.63-4.47
				c-0.09-0.03-0.17-0.07-0.27-0.1c-0.31-0.11-0.64-0.21-0.97-0.3c-0.19-0.04-0.37-0.1-0.54-0.14c-0.27-0.06-0.56-0.13-0.84-0.17
				c-0.27-0.06-0.54-0.09-0.81-0.13c-0.21-0.03-0.43-0.07-0.64-0.09c-0.51-0.04-1.03-0.09-1.56-0.09c-9.09,0-16.48,7.36-16.48,16.4
				c0,0.47,0.01,0.94,0.07,1.42c0.01,0.27,0.06,0.54,0.09,0.8c0.01,0.1,0.03,0.19,0.04,0.29c-4.97,0.73-9.22,1.17-13.55,1.39
				c0.33-0.5,0.63-1.01,0.91-1.54c0.33-0.6,0.63-1.23,0.9-1.86c0.1-0.23,0.2-0.46,0.29-0.69c0.19-0.44,0.34-0.89,0.5-1.34
				c0.09-0.23,0.16-0.47,0.24-0.71c0.19-0.64,0.36-1.29,0.5-1.94c0.04-0.21,0.09-0.43,0.11-0.64c0.1-0.53,0.19-1.04,0.24-1.57
				c0.03-0.23,0.06-0.46,0.07-0.69c0.07-0.73,0.11-1.46,0.11-2.2V98.1c9.88-0.33,66.85-2.62,81.46-10.76c4.35-2.43,7.66-2,9.18-0.91
				c1.13,0.81,1.54,2.07,1.23,3.65c-1.14,5.56-11.24,14.11-35.98,19.88C256.7,111.14,252.1,112.18,247.87,113.13z M225.6,64.19
				c0.36,0.03,0.81,0.14,1.01,0.27c-0.06,0.14-0.2,0.47-0.7,1.04c-1.57,1.79-11.97,4.4-28.22,5.78c-2.76-2.96-6.09-5.38-9.82-7.09
				H225.6z M124.08,65.51c-0.5-0.57-0.64-0.9-0.69-1.04c0.2-0.13,0.66-0.26,0.96-0.27h37.77c-3.73,1.72-7.06,4.13-9.82,7.09
				C136.05,69.91,125.66,67.3,124.08,65.51z M231.84,109.4c-4.2,0-7.61,3.39-7.61,7.55c0,4.16,3.4,7.55,7.61,7.55
				c4.19,0,7.59-3.39,7.59-7.55C239.43,112.78,236.03,109.4,231.84,109.4z M231.84,121.69c-2.64,0-4.79-2.13-4.79-4.75
				c0-2.62,2.14-4.75,4.79-4.75c2.63,0,4.77,2.13,4.77,4.75C236.62,119.56,234.47,121.69,231.84,121.69z M178.06,77.53
				c-0.77,0-1.42,0.61-1.42,1.4v10.44c0.01,0.77,0.64,1.4,1.42,1.4h19.93c0.4,0,0.79-0.17,1.06-0.47c0.27-0.31,0.4-0.71,0.34-1.12
				C199.34,88.71,197.65,77.53,178.06,77.53z M179.48,87.97v-7.62c11.62,0.36,15.4,5.07,16.58,7.62H179.48z M171.93,77.53
				c-19.57,0-21.26,11.18-21.33,11.65c-0.04,0.4,0.07,0.81,0.34,1.12c0.27,0.3,0.66,0.47,1.06,0.47h19.93c0.77,0,1.42-0.63,1.42-1.4
				V78.93C173.35,78.16,172.72,77.53,171.93,77.53z M170.52,87.97h-16.58c1.2-2.54,4.97-7.26,16.58-7.62V87.97z M118.15,109.4
				c-4.19,0-7.59,3.39-7.59,7.55c0,4.16,3.4,7.55,7.59,7.55c4.2,0,7.61-3.39,7.61-7.55C125.76,112.78,122.35,109.4,118.15,109.4z
				 M118.15,121.69c-2.63,0-4.77-2.13-4.77-4.75c0-2.62,2.14-4.75,4.77-4.75c2.64,0,4.79,2.13,4.79,4.75
				C122.94,119.56,120.8,121.69,118.15,121.69z M171.93,77.53c-19.57,0-21.26,11.18-21.33,11.65c-0.04,0.4,0.07,0.81,0.34,1.12
				c0.27,0.3,0.66,0.47,1.06,0.47h19.93c0.77,0,1.42-0.63,1.42-1.4V78.93C173.35,78.16,172.72,77.53,171.93,77.53z M170.52,87.97
				h-16.58c1.2-2.54,4.97-7.26,16.58-7.62V87.97z M178.06,77.53c-0.77,0-1.42,0.61-1.42,1.4v10.44c0.01,0.77,0.64,1.4,1.42,1.4
				h19.93c0.4,0,0.79-0.17,1.06-0.47c0.27-0.31,0.4-0.71,0.34-1.12C199.34,88.71,197.65,77.53,178.06,77.53z M179.48,87.97v-7.62
				c11.62,0.36,15.4,5.07,16.58,7.62H179.48z M118.15,109.4c-4.19,0-7.59,3.39-7.59,7.55c0,4.16,3.4,7.55,7.59,7.55
				c4.2,0,7.61-3.39,7.61-7.55C125.76,112.78,122.35,109.4,118.15,109.4z M118.15,121.69c-2.63,0-4.77-2.13-4.77-4.75
				c0-2.62,2.14-4.75,4.77-4.75c2.64,0,4.79,2.13,4.79,4.75C122.94,119.56,120.8,121.69,118.15,121.69z M231.84,109.4
				c-4.2,0-7.61,3.39-7.61,7.55c0,4.16,3.4,7.55,7.61,7.55c4.19,0,7.59-3.39,7.59-7.55C239.43,112.78,236.03,109.4,231.84,109.4z
				 M231.84,121.69c-2.64,0-4.79-2.13-4.79-4.75c0-2.62,2.14-4.75,4.79-4.75c2.63,0,4.77,2.13,4.77,4.75
				C236.62,119.56,234.47,121.69,231.84,121.69z M231.84,109.4c-4.2,0-7.61,3.39-7.61,7.55c0,4.16,3.4,7.55,7.61,7.55
				c4.19,0,7.59-3.39,7.59-7.55C239.43,112.78,236.03,109.4,231.84,109.4z M231.84,121.69c-2.64,0-4.79-2.13-4.79-4.75
				c0-2.62,2.14-4.75,4.79-4.75c2.63,0,4.77,2.13,4.77,4.75C236.62,119.56,234.47,121.69,231.84,121.69z M178.06,77.53
				c-0.77,0-1.42,0.61-1.42,1.4v10.44c0.01,0.77,0.64,1.4,1.42,1.4h19.93c0.4,0,0.79-0.17,1.06-0.47c0.27-0.31,0.4-0.71,0.34-1.12
				C199.34,88.71,197.65,77.53,178.06,77.53z M179.48,87.97v-7.62c11.62,0.36,15.4,5.07,16.58,7.62H179.48z M171.93,77.53
				c-19.57,0-21.26,11.18-21.33,11.65c-0.04,0.4,0.07,0.81,0.34,1.12c0.27,0.3,0.66,0.47,1.06,0.47h19.93c0.77,0,1.42-0.63,1.42-1.4
				V78.93C173.35,78.16,172.72,77.53,171.93,77.53z M170.52,87.97h-16.58c1.2-2.54,4.97-7.26,16.58-7.62V87.97z M118.15,109.4
				c-4.19,0-7.59,3.39-7.59,7.55c0,4.16,3.4,7.55,7.59,7.55c4.2,0,7.61-3.39,7.61-7.55C125.76,112.78,122.35,109.4,118.15,109.4z
				 M118.15,121.69c-2.63,0-4.77-2.13-4.77-4.75c0-2.62,2.14-4.75,4.77-4.75c2.64,0,4.79,2.13,4.79,4.75
				C122.94,119.56,120.8,121.69,118.15,121.69z M171.93,77.53c-19.57,0-21.26,11.18-21.33,11.65c-0.04,0.4,0.07,0.81,0.34,1.12
				c0.27,0.3,0.66,0.47,1.06,0.47h19.93c0.77,0,1.42-0.63,1.42-1.4V78.93C173.35,78.16,172.72,77.53,171.93,77.53z M170.52,87.97
				h-16.58c1.2-2.54,4.97-7.26,16.58-7.62V87.97z M178.06,77.53c-0.77,0-1.42,0.61-1.42,1.4v10.44c0.01,0.77,0.64,1.4,1.42,1.4
				h19.93c0.4,0,0.79-0.17,1.06-0.47c0.27-0.31,0.4-0.71,0.34-1.12C199.34,88.71,197.65,77.53,178.06,77.53z M179.48,87.97v-7.62
				c11.62,0.36,15.4,5.07,16.58,7.62H179.48z M118.15,109.4c-4.19,0-7.59,3.39-7.59,7.55c0,4.16,3.4,7.55,7.59,7.55
				c4.2,0,7.61-3.39,7.61-7.55C125.76,112.78,122.35,109.4,118.15,109.4z M118.15,121.69c-2.63,0-4.77-2.13-4.77-4.75
				c0-2.62,2.14-4.75,4.77-4.75c2.64,0,4.79,2.13,4.79,4.75C122.94,119.56,120.8,121.69,118.15,121.69z M231.84,109.4
				c-4.2,0-7.61,3.39-7.61,7.55c0,4.16,3.4,7.55,7.61,7.55c4.19,0,7.59-3.39,7.59-7.55C239.43,112.78,236.03,109.4,231.84,109.4z
				 M231.84,121.69c-2.64,0-4.79-2.13-4.79-4.75c0-2.62,2.14-4.75,4.79-4.75c2.63,0,4.77,2.13,4.77,4.75
				C236.62,119.56,234.47,121.69,231.84,121.69z M231.84,109.4c-4.2,0-7.61,3.39-7.61,7.55c0,4.16,3.4,7.55,7.61,7.55
				c4.19,0,7.59-3.39,7.59-7.55C239.43,112.78,236.03,109.4,231.84,109.4z M231.84,121.69c-2.64,0-4.79-2.13-4.79-4.75
				c0-2.62,2.14-4.75,4.79-4.75c2.63,0,4.77,2.13,4.77,4.75C236.62,119.56,234.47,121.69,231.84,121.69z M178.06,77.53
				c-0.77,0-1.42,0.61-1.42,1.4v10.44c0.01,0.77,0.64,1.4,1.42,1.4h19.93c0.4,0,0.79-0.17,1.06-0.47c0.27-0.31,0.4-0.71,0.34-1.12
				C199.34,88.71,197.65,77.53,178.06,77.53z M179.48,87.97v-7.62c11.62,0.36,15.4,5.07,16.58,7.62H179.48z M171.93,77.53
				c-19.57,0-21.26,11.18-21.33,11.65c-0.04,0.4,0.07,0.81,0.34,1.12c0.27,0.3,0.66,0.47,1.06,0.47h19.93c0.77,0,1.42-0.63,1.42-1.4
				V78.93C173.35,78.16,172.72,77.53,171.93,77.53z M170.52,87.97h-16.58c1.2-2.54,4.97-7.26,16.58-7.62V87.97z M118.15,109.4
				c-4.19,0-7.59,3.39-7.59,7.55c0,4.16,3.4,7.55,7.59,7.55c4.2,0,7.61-3.39,7.61-7.55C125.76,112.78,122.35,109.4,118.15,109.4z
				 M118.15,121.69c-2.63,0-4.77-2.13-4.77-4.75c0-2.62,2.14-4.75,4.77-4.75c2.64,0,4.79,2.13,4.79,4.75
				C122.94,119.56,120.8,121.69,118.15,121.69z M171.93,77.53c-19.57,0-21.26,11.18-21.33,11.65c-0.04,0.4,0.07,0.81,0.34,1.12
				c0.27,0.3,0.66,0.47,1.06,0.47h19.93c0.77,0,1.42-0.63,1.42-1.4V78.93C173.35,78.16,172.72,77.53,171.93,77.53z M170.52,87.97
				h-16.58c1.2-2.54,4.97-7.26,16.58-7.62V87.97z M178.06,77.53c-0.77,0-1.42,0.61-1.42,1.4v10.44c0.01,0.77,0.64,1.4,1.42,1.4
				h19.93c0.4,0,0.79-0.17,1.06-0.47c0.27-0.31,0.4-0.71,0.34-1.12C199.34,88.71,197.65,77.53,178.06,77.53z M179.48,87.97v-7.62
				c11.62,0.36,15.4,5.07,16.58,7.62H179.48z M118.15,109.4c-4.19,0-7.59,3.39-7.59,7.55c0,4.16,3.4,7.55,7.59,7.55
				c4.2,0,7.61-3.39,7.61-7.55C125.76,112.78,122.35,109.4,118.15,109.4z M118.15,121.69c-2.63,0-4.77-2.13-4.77-4.75
				c0-2.62,2.14-4.75,4.77-4.75c2.64,0,4.79,2.13,4.79,4.75C122.94,119.56,120.8,121.69,118.15,121.69z M231.84,109.4
				c-4.2,0-7.61,3.39-7.61,7.55c0,4.16,3.4,7.55,7.61,7.55c4.19,0,7.59-3.39,7.59-7.55C239.43,112.78,236.03,109.4,231.84,109.4z
				 M231.84,121.69c-2.64,0-4.79-2.13-4.79-4.75c0-2.62,2.14-4.75,4.79-4.75c2.63,0,4.77,2.13,4.77,4.75
				C236.62,119.56,234.47,121.69,231.84,121.69z M231.84,109.4c-4.2,0-7.61,3.39-7.61,7.55c0,4.16,3.4,7.55,7.61,7.55
				c4.19,0,7.59-3.39,7.59-7.55C239.43,112.78,236.03,109.4,231.84,109.4z M231.84,121.69c-2.64,0-4.79-2.13-4.79-4.75
				c0-2.62,2.14-4.75,4.79-4.75c2.63,0,4.77,2.13,4.77,4.75C236.62,119.56,234.47,121.69,231.84,121.69z M178.06,77.53
				c-0.77,0-1.42,0.61-1.42,1.4v10.44c0.01,0.77,0.64,1.4,1.42,1.4h19.93c0.4,0,0.79-0.17,1.06-0.47c0.27-0.31,0.4-0.71,0.34-1.12
				C199.34,88.71,197.65,77.53,178.06,77.53z M179.48,87.97v-7.62c11.62,0.36,15.4,5.07,16.58,7.62H179.48z M171.93,77.53
				c-19.57,0-21.26,11.18-21.33,11.65c-0.04,0.4,0.07,0.81,0.34,1.12c0.27,0.3,0.66,0.47,1.06,0.47h19.93c0.77,0,1.42-0.63,1.42-1.4
				V78.93C173.35,78.16,172.72,77.53,171.93,77.53z M170.52,87.97h-16.58c1.2-2.54,4.97-7.26,16.58-7.62V87.97z M118.15,109.4
				c-4.19,0-7.59,3.39-7.59,7.55c0,4.16,3.4,7.55,7.59,7.55c4.2,0,7.61-3.39,7.61-7.55C125.76,112.78,122.35,109.4,118.15,109.4z
				 M118.15,121.69c-2.63,0-4.77-2.13-4.77-4.75c0-2.62,2.14-4.75,4.77-4.75c2.64,0,4.79,2.13,4.79,4.75
				C122.94,119.56,120.8,121.69,118.15,121.69z M118.15,109.4c-4.19,0-7.59,3.39-7.59,7.55c0,4.16,3.4,7.55,7.59,7.55
				c4.2,0,7.61-3.39,7.61-7.55C125.76,112.78,122.35,109.4,118.15,109.4z M118.15,121.69c-2.63,0-4.77-2.13-4.77-4.75
				c0-2.62,2.14-4.75,4.77-4.75c2.64,0,4.79,2.13,4.79,4.75C122.94,119.56,120.8,121.69,118.15,121.69z M231.84,109.4
				c-4.2,0-7.61,3.39-7.61,7.55c0,4.16,3.4,7.55,7.61,7.55c4.19,0,7.59-3.39,7.59-7.55C239.43,112.78,236.03,109.4,231.84,109.4z
				 M231.84,121.69c-2.64,0-4.79-2.13-4.79-4.75c0-2.62,2.14-4.75,4.79-4.75c2.63,0,4.77,2.13,4.77,4.75
				C236.62,119.56,234.47,121.69,231.84,121.69z M171.93,77.53c-19.57,0-21.26,11.18-21.33,11.65c-0.04,0.4,0.07,0.81,0.34,1.12
				c0.27,0.3,0.66,0.47,1.06,0.47h19.93c0.77,0,1.42-0.63,1.42-1.4V78.93C173.35,78.16,172.72,77.53,171.93,77.53z M170.52,87.97
				h-16.58c1.2-2.54,4.97-7.26,16.58-7.62V87.97z M178.06,77.53c-0.77,0-1.42,0.61-1.42,1.4v10.44c0.01,0.77,0.64,1.4,1.42,1.4
				h19.93c0.4,0,0.79-0.17,1.06-0.47c0.27-0.31,0.4-0.71,0.34-1.12C199.34,88.71,197.65,77.53,178.06,77.53z M179.48,87.97v-7.62
				c11.62,0.36,15.4,5.07,16.58,7.62H179.48z"/>
			<path class="st42" d="M50.72,181.71h248.56c0.78,0,1.41-0.63,1.41-1.4c0-0.77-0.63-1.4-1.41-1.4H50.72
				c-0.78,0-1.41,0.63-1.41,1.4C49.31,181.08,49.94,181.71,50.72,181.71z M50.72,191.94h4.94c0.78,0,1.41-0.63,1.41-1.4
				c0-0.77-0.63-1.4-1.41-1.4h-4.94c-0.78,0-1.41,0.63-1.41,1.4C49.31,191.31,49.94,191.94,50.72,191.94z M151.13,189.14h-9.55
				c-0.78,0-1.41,0.63-1.41,1.4c0,0.77,0.63,1.4,1.41,1.4h9.55c0.78,0,1.41-0.63,1.41-1.4
				C152.54,189.77,151.91,189.14,151.13,189.14z M112.94,189.14h-9.55c-0.78,0-1.41,0.63-1.41,1.4c0,0.77,0.63,1.4,1.41,1.4h9.55
				c0.78,0,1.41-0.63,1.41-1.4C114.36,189.77,113.72,189.14,112.94,189.14z M208.41,189.14h-9.55c-0.78,0-1.41,0.63-1.41,1.4
				c0,0.77,0.63,1.4,1.41,1.4h9.55c0.78,0,1.41-0.63,1.41-1.4C209.83,189.77,209.19,189.14,208.41,189.14z M265.69,189.14h-9.55
				c-0.78,0-1.41,0.63-1.41,1.4c0,0.77,0.63,1.4,1.41,1.4h9.55c0.78,0,1.41-0.63,1.41-1.4
				C267.11,189.77,266.47,189.14,265.69,189.14z M284.79,189.14h-9.55c-0.78,0-1.41,0.63-1.41,1.4c0,0.77,0.63,1.4,1.41,1.4h9.55
				c0.78,0,1.41-0.63,1.41-1.4C286.2,189.77,285.57,189.14,284.79,189.14z M132.04,189.14h-9.55c-0.78,0-1.41,0.63-1.41,1.4
				c0,0.77,0.63,1.4,1.41,1.4h9.55c0.78,0,1.41-0.63,1.41-1.4C133.45,189.77,132.82,189.14,132.04,189.14z M237.05,189.14
				c-0.78,0-1.41,0.63-1.41,1.4c0,0.77,0.63,1.4,1.41,1.4h9.55c0.78,0,1.41-0.63,1.41-1.4c0-0.77-0.63-1.4-1.41-1.4H237.05z
				 M179.77,189.14c-0.78,0-1.41,0.63-1.41,1.4c0,0.77,0.63,1.4,1.41,1.4h9.55c0.78,0,1.41-0.63,1.41-1.4c0-0.77-0.63-1.4-1.41-1.4
				H179.77z M227.51,189.14h-9.55c-0.78,0-1.41,0.63-1.41,1.4c0,0.77,0.63,1.4,1.41,1.4h9.55c0.78,0,1.41-0.63,1.41-1.4
				C228.92,189.77,228.29,189.14,227.51,189.14z M93.85,189.14H84.3c-0.78,0-1.41,0.63-1.41,1.4c0,0.77,0.63,1.4,1.41,1.4h9.55
				c0.78,0,1.41-0.63,1.41-1.4C95.26,189.77,94.63,189.14,93.85,189.14z M170.23,189.14h-9.55c-0.78,0-1.41,0.63-1.41,1.4
				c0,0.77,0.63,1.4,1.41,1.4h9.55c0.78,0,1.41-0.63,1.41-1.4C171.64,189.77,171,189.14,170.23,189.14z M74.76,189.14h-9.55
				c-0.78,0-1.41,0.63-1.41,1.4c0,0.77,0.63,1.4,1.41,1.4h9.55c0.78,0,1.41-0.63,1.41-1.4C76.17,189.77,75.54,189.14,74.76,189.14z
				 M299.28,189.14h-4.94c-0.78,0-1.41,0.63-1.41,1.4c0,0.77,0.63,1.4,1.41,1.4h4.94c0.78,0,1.41-0.63,1.41-1.4
				C300.69,189.77,300.06,189.14,299.28,189.14z M57.78,201.29h-7.06c-0.78,0-1.41,0.63-1.41,1.4s0.63,1.4,1.41,1.4h7.06
				c0.78,0,1.41-0.63,1.41-1.4S58.56,201.29,57.78,201.29z M114.35,202.69c0-0.77-0.63-1.4-1.41-1.4H99.15
				c-0.78,0-1.41,0.63-1.41,1.4s0.63,1.4,1.41,1.4h13.79C113.72,204.09,114.35,203.46,114.35,202.69z M195.68,201.29h-13.79
				c-0.78,0-1.41,0.63-1.41,1.4s0.63,1.4,1.41,1.4h13.79c0.78,0,1.41-0.63,1.41-1.4S196.46,201.29,195.68,201.29z M169.52,202.69
				c0-0.77-0.63-1.4-1.41-1.4h-13.79c-0.78,0-1.41,0.63-1.41,1.4s0.63,1.4,1.41,1.4h13.79
				C168.88,204.09,169.52,203.46,169.52,202.69z M250.85,201.29h-13.79c-0.78,0-1.41,0.63-1.41,1.4s0.63,1.4,1.41,1.4h13.79
				c0.78,0,1.41-0.63,1.41-1.4S251.62,201.29,250.85,201.29z M70.16,202.69c0,0.77,0.63,1.4,1.41,1.4h13.79
				c0.78,0,1.41-0.63,1.41-1.4s-0.63-1.4-1.41-1.4H71.57C70.79,201.29,70.16,201.92,70.16,202.69z M125.32,202.69
				c0,0.77,0.63,1.4,1.41,1.4h13.79c0.78,0,1.41-0.63,1.41-1.4s-0.63-1.4-1.41-1.4h-13.79
				C125.95,201.29,125.32,201.92,125.32,202.69z M263.22,202.69c0,0.77,0.63,1.4,1.41,1.4h13.79c0.78,0,1.41-0.63,1.41-1.4
				s-0.63-1.4-1.41-1.4h-13.79C263.86,201.29,263.22,201.92,263.22,202.69z M208.06,202.69c0,0.77,0.63,1.4,1.41,1.4h13.79
				c0.78,0,1.41-0.63,1.41-1.4s-0.63-1.4-1.41-1.4h-13.79C208.69,201.29,208.06,201.92,208.06,202.69z M299.28,201.29h-7.06
				c-0.78,0-1.41,0.63-1.41,1.4s0.63,1.4,1.41,1.4h7.06c0.78,0,1.41-0.63,1.41-1.4S300.06,201.29,299.28,201.29z M55.66,212.75
				h-4.94c-0.78,0-1.41,0.63-1.41,1.4c0,0.77,0.63,1.4,1.41,1.4h4.94c0.78,0,1.41-0.63,1.41-1.4
				C57.08,213.38,56.45,212.75,55.66,212.75z M284.79,212.75h-9.55c-0.78,0-1.41,0.63-1.41,1.4c0,0.77,0.63,1.4,1.41,1.4h9.55
				c0.78,0,1.41-0.63,1.41-1.4C286.2,213.38,285.57,212.75,284.79,212.75z M227.51,212.75h-9.55c-0.78,0-1.41,0.63-1.41,1.4
				c0,0.77,0.63,1.4,1.41,1.4h9.55c0.78,0,1.41-0.63,1.41-1.4C228.92,213.38,228.29,212.75,227.51,212.75z M246.6,212.75h-9.55
				c-0.78,0-1.41,0.63-1.41,1.4c0,0.77,0.63,1.4,1.41,1.4h9.55c0.78,0,1.41-0.63,1.41-1.4C248.01,213.38,247.38,212.75,246.6,212.75
				z M265.69,212.75h-9.55c-0.78,0-1.41,0.63-1.41,1.4c0,0.77,0.63,1.4,1.41,1.4h9.55c0.78,0,1.41-0.63,1.41-1.4
				C267.11,213.38,266.47,212.75,265.69,212.75z M132.04,212.75h-9.55c-0.78,0-1.41,0.63-1.41,1.4c0,0.77,0.63,1.4,1.41,1.4h9.55
				c0.78,0,1.41-0.63,1.41-1.4C133.45,213.38,132.82,212.75,132.04,212.75z M112.94,212.75h-9.55c-0.78,0-1.41,0.63-1.41,1.4
				c0,0.77,0.63,1.4,1.41,1.4h9.55c0.78,0,1.41-0.63,1.41-1.4C114.36,213.38,113.72,212.75,112.94,212.75z M208.41,212.75h-9.55
				c-0.78,0-1.41,0.63-1.41,1.4c0,0.77,0.63,1.4,1.41,1.4h9.55c0.78,0,1.41-0.63,1.41-1.4
				C209.83,213.38,209.19,212.75,208.41,212.75z M93.85,212.75H84.3c-0.78,0-1.41,0.63-1.41,1.4c0,0.77,0.63,1.4,1.41,1.4h9.55
				c0.78,0,1.41-0.63,1.41-1.4C95.26,213.38,94.63,212.75,93.85,212.75z M74.76,212.75h-9.55c-0.78,0-1.41,0.63-1.41,1.4
				c0,0.77,0.63,1.4,1.41,1.4h9.55c0.78,0,1.41-0.63,1.41-1.4C76.17,213.38,75.54,212.75,74.76,212.75z M151.13,212.75h-9.55
				c-0.78,0-1.41,0.63-1.41,1.4c0,0.77,0.63,1.4,1.41,1.4h9.55c0.78,0,1.41-0.63,1.41-1.4
				C152.54,213.38,151.91,212.75,151.13,212.75z M170.23,212.75h-9.55c-0.78,0-1.41,0.63-1.41,1.4c0,0.77,0.63,1.4,1.41,1.4h9.55
				c0.78,0,1.41-0.63,1.41-1.4C171.64,213.38,171,212.75,170.23,212.75z M189.32,212.75h-9.55c-0.78,0-1.41,0.63-1.41,1.4
				c0,0.77,0.63,1.4,1.41,1.4h9.55c0.78,0,1.41-0.63,1.41-1.4C190.73,213.38,190.1,212.75,189.32,212.75z M299.28,212.75h-4.94
				c-0.78,0-1.41,0.63-1.41,1.4c0,0.77,0.63,1.4,1.42,1.4h4.94c0.78,0,1.41-0.63,1.41-1.4
				C300.69,213.38,300.06,212.75,299.28,212.75z"/>
		</g>
	</g>
</g>
</svg>
