<?xml version="1.0" encoding="utf-8"?>
<!-- Generator: Adobe Illustrator 27.8.1, SVG Export Plug-In . SVG Version: 6.00 Build 0)  -->
<svg version="1.1" xmlns="http://www.w3.org/2000/svg" xmlns:xlink="http://www.w3.org/1999/xlink" x="0px" y="0px"
	 viewBox="0 0 350 230" style="enable-background:new 0 0 350 230;" xml:space="preserve">
<style type="text/css">
	.st0{fill-rule:evenodd;clip-rule:evenodd;fill:#A6D63C;}
	.st1{fill-rule:evenodd;clip-rule:evenodd;fill:#00A0D1;}
	.st2{fill:#421C00;}
	.st3{fill-rule:evenodd;clip-rule:evenodd;fill:#FFFFFF;}
	.st4{fill:#699AE2;}
	.st5{fill:#3B7DC4;}
	.st6{fill:#AF7500;}
	.st7{fill:#FFDF00;}
	.st8{fill:#1A0256;}
	.st9{fill:#00594F;}
	.st10{fill:#00779B;}
	.st11{fill:#0074FF;}
	.st12{fill:#194A91;}
	.st13{fill-rule:evenodd;clip-rule:evenodd;fill:#EFEFEF;}
	.st14{fill:#044159;}
	.st15{fill:#4C2900;}
	.st16{fill:#FFFFFF;}
	.st17{fill:#FFB41F;}
	.st18{fill:#FF5A00;}
	.st19{fill:#680404;}
	.st20{fill:#03AA6F;}
	.st21{fill:#FB5968;}
	.st22{fill:#FFD24A;}
	.st23{fill:#055EBC;}
	.st24{fill:#6F6F6F;}
	.st25{fill:#454545;}
	.st26{fill:#BA1A00;}
	.st27{fill:#0071BC;}
	.st28{fill:none;stroke:#FFFFFF;stroke-width:2;stroke-miterlimit:10;}
	.st29{fill:#3D3600;}
	.st30{fill:#5B4E03;}
	.st31{fill:#685900;}
	.st32{fill:none;stroke:#2E8EFF;stroke-width:2;stroke-linecap:round;stroke-miterlimit:10;}
	.st33{fill:none;stroke:#3D3600;stroke-width:2;stroke-linecap:round;stroke-miterlimit:10;}
	.st34{fill:#6F0393;}
	.st35{fill:none;}
	.st36{fill:#96D7FF;}
	.st37{fill:#0C5100;}
	.st38{fill:#FFE856;}
	.st39{fill:#803971;}
	.st40{fill:#D3CECD;}
	.st41{fill:#4C241D;}
	.st42{fill:#EA3200;stroke:#4C241D;stroke-linecap:round;stroke-linejoin:round;stroke-miterlimit:50;}
	.st43{fill:#11930A;stroke:#4C241D;stroke-linecap:round;stroke-linejoin:round;stroke-miterlimit:50;}
	.st44{fill:#3792CF;}
	.st45{fill:#FEE36F;}
	.st46{fill:#136296;}
	.st47{fill:#53C2BA;}
	.st48{fill:#6D6D00;}
	.st49{fill:#001087;}
	.st50{fill:#F19333;}
	.st51{fill:#1554A1;}
	.st52{fill:#8E0000;}
	.st53{fill:#C46B02;}
	.st54{fill:#FFD662;}
	.st55{fill:#01539D;}
	.st56{fill:#007777;}
	.st57{fill:#3CAF47;}
	.st58{fill:#31575B;}
	.st59{fill:#7BBBFF;}
	.st60{fill:#513800;}
	.st61{fill:#009D5A;}
	.st62{fill:#C9A37C;}
	.st63{fill:#DB504A;}
	.st64{fill:#084C61;}
	.st65{opacity:0.3;fill:#BCBEC0;enable-background:new    ;}
	.st66{fill:#069A8E;}
	.st67{fill:#0A4D68;}
	.st68{fill:#190707;}
	.st69{fill:#39B54A;}
	.st70{fill:#01A9DB;}
	.st71{fill:#DF7401;}
	.st72{fill:#0F0F4F;}
	.st73{fill:#232365;}
	.st74{fill:#2169AA;}
	.st75{fill:#00828C;}
	.st76{fill:#00A4BA;}
	.st77{fill:#007CC1;}
	.st78{fill:#FF0000;}
	.st79{fill:#313341;}
	.st80{fill:#C9C9C9;}
	.st81{fill:#0C3F00;}
	.st82{fill:#00153A;}
	.st83{fill:#056168;}
	.st84{fill:#08E8FF;}
	.st85{fill:#00B7FF;}
	.st86{fill:#590060;}
	.st87{fill:#FF78DC;}
</style>
<g id="Layer_1">
</g>
<g id="Layer_2">
</g>
<g id="Layer_3">
</g>
<g id="Layer_4">
</g>
<g id="Layer_5">
</g>
<g id="Layer_6">
</g>
<g id="Layer_7">
</g>
<g id="Layer_8">
</g>
<g id="Layer_9">
</g>
<g id="Layer_10">
</g>
<g id="Layer_11">
</g>
<g id="Layer_12">
</g>
<g id="Layer_13">
</g>
<g id="Layer_14">
</g>
<g id="Layer_15">
	<g>
		<path class="st72" d="M221.58,108.56c-21.15-17.32-49.43-23.45-76.68-12.84c22.11-16.86,53.18-12.86,78.98-0.7
			C223.66,99.73,222.88,104.28,221.58,108.56z M168.49,147.86c-30.62,0-55.53-24.91-55.53-55.53c0-30.62,24.91-55.53,55.53-55.53
			c26.54,0,49.27,18.72,54.41,44.65c-6.76-2.89-13.46-5.06-19.93-6.46c-6.61-13.14-19.8-21.3-34.48-21.3
			c-21.3,0-38.63,17.33-38.63,38.63c0,21.3,17.33,38.63,38.63,38.63c12.71,0,25.04-6.09,32.88-18.41
			c-15.8-9.1-33.69-13.9-51.36-9.56c24.56-10.34,50.37-3.72,69.37,11.55C210.54,134.8,190.61,147.86,168.49,147.86z"/>
		<path class="st73" d="M220.39,107.49c-20.8-17.03-48.62-23.06-75.42-12.63c21.75-16.58,52.31-12.65,77.68-0.69
			C222.43,98.8,221.67,103.28,220.39,107.49z M168.17,146.14c-30.11,0-54.61-24.5-54.61-54.61c0-30.11,24.5-54.61,54.61-54.61
			c26.1,0,48.45,18.41,53.51,43.92c-6.64-2.85-13.23-4.98-19.6-6.35c-6.5-12.93-19.48-20.94-33.91-20.94
			c-20.95,0-37.99,17.04-37.99,37.99c0,20.95,17.04,37.99,37.99,37.99c12.5,0,24.63-5.99,32.34-18.11
			c-15.54-8.95-33.13-13.67-50.51-9.4c24.15-10.17,49.54-3.66,68.22,11.36C209.53,133.29,189.92,146.14,168.17,146.14z"/>
		<path class="st74" d="M190.3,92.06c1.36-2.28,2.65-4.61,3.89-7.05c-17.57-3-35.22-0.83-49.22,9.85
			C160.25,88.91,175.85,88.32,190.3,92.06z M149.99,102.02c10.95-2.69,21.98-1.81,32.52,1.44c1.31-1.69,2.58-3.41,3.79-5.18
			C174.56,96.01,162.12,96.91,149.99,102.02z M135.31,135.12c6.92-1.92,13.53-4.46,19.88-7.89c-14.57-5.32-25.01-19.31-25.01-35.7
			c0-20.95,17.04-37.99,37.99-37.99c13.01,0,24.83,6.52,31.8,17.27c2.11-6.84,3.3-13.91,3.28-21.12
			c-9.55-8.02-21.83-12.77-35.09-12.77c-30.11,0-54.61,24.5-54.61,54.61C113.55,109.32,122.1,125.15,135.31,135.12z"/>
	</g>
</g>
</svg>
