<?xml version="1.0" encoding="utf-8"?>
<!-- Generator: Adobe Illustrator 27.8.1, SVG Export Plug-In . SVG Version: 6.00 Build 0)  -->
<svg version="1.1" xmlns="http://www.w3.org/2000/svg" xmlns:xlink="http://www.w3.org/1999/xlink" x="0px" y="0px"
	 viewBox="0 0 350 230.71" style="enable-background:new 0 0 350 230.71;" xml:space="preserve">
<style type="text/css">
	.st0{fill:#009EFF;}
	.st1{fill:#FF8500;}
	.st2{fill:#9B3C00;}
	.st3{fill:#660045;}
	.st4{fill:#00576B;}
	.st5{fill:#564F2C;}
	.st6{fill:#FFA354;}
	.st7{fill:#002760;}
	.st8{fill:#4C0037;}
	.st9{fill:#7C0B00;}
	.st10{fill:#144703;}
	.st11{fill:#2C6DC9;}
	.st12{fill:#3B243C;}
	.st13{fill:#001EA4;}
	.st14{fill:#8D5300;}
	.st15{fill:#30A976;}
	.st16{fill:#A02400;}
	.st17{fill:#0092FF;}
	.st18{fill:#60086C;}
	.st19{fill:#520013;}
	.st20{fill:#00AB7B;}
	.st21{fill:#0C0C14;}
	.st22{fill:#FA7B14;}
	.st23{fill:#0870A3;}
	.st24{fill:#999999;}
	.st25{fill:#0D254C;}
	.st26{fill:#9C0505;}
	.st27{fill:#850506;}
	.st28{fill:#A30C11;}
	.st29{fill:#1261A0;}
	.st30{fill:#FFFFFF;}
	.st31{fill:none;}
	.st32{fill:#1A1E2D;}
	.st33{fill:#3AC3B1;}
	.st34{fill:#777777;}
	.st35{fill:#4C0400;}
	.st36{fill:#00484C;}
	.st37{fill:#59D901;}
	.st38{fill:#58CCED;}
	.st39{fill:#CC5500;}
	.st40{fill:#072F5F;}
</style>
<g id="Layer_1">
</g>
<g id="Layer_2">
</g>
<g id="Layer_3">
</g>
<g id="Layer_4">
</g>
<g id="Layer_5">
</g>
<g id="Layer_6">
</g>
<g id="Layer_7">
</g>
<g id="Layer_8">
</g>
<g id="Layer_9">
</g>
<g id="Layer_10">
</g>
<g id="Layer_11">
</g>
<g id="Layer_12">
</g>
<g id="Layer_13">
</g>
<g id="Layer_14">
</g>
<g id="Layer_15">
	<g>
		<circle class="st29" cx="87.61" cy="115.35" r="64.7"/>
		<path class="st37" d="M45.73,144.34c0,0,2.85-3.23-0.68-6.58C42.28,141.77,45.73,144.34,45.73,144.34z M38.99,141.44
			c1.38,4.67,5.55,3.6,5.55,3.6S43.81,140.8,38.99,141.44z M49.53,149.14c0,0,2.63-3.41-1.11-6.52
			C45.92,146.8,49.53,149.14,49.53,149.14z M42.61,146.68c1.68,4.57,5.77,3.23,5.77,3.23S47.38,145.73,42.61,146.68z M42.37,138.54
			c0,0,3.36-2.68,0.47-6.6C39.43,135.41,42.37,138.54,42.37,138.54z M36.24,134.51c0.55,4.84,4.84,4.51,4.84,4.51
			S41.1,134.72,36.24,134.51z M39.78,132.38c0,0,3.6-2.36,1.08-6.53C37.13,128.99,39.78,132.38,39.78,132.38z M34.04,127.8
			c0.1,4.86,4.4,4.94,4.4,4.94S38.86,128.45,34.04,127.8z M38.03,125.97c0,0,3.88-1.86,1.94-6.32
			C35.86,122.25,38.03,125.97,38.03,125.97z M32.96,120.67c-0.55,4.83,3.7,5.48,3.7,5.48S37.65,121.96,32.96,120.67z M130.16,137.76
			c-3.53,3.35-0.68,6.58-0.68,6.58S132.93,141.77,130.16,137.76z M130.67,145.04c0,0,4.17,1.06,5.55-3.6
			C131.4,140.8,130.67,145.04,130.67,145.04z M126.8,142.62c-3.74,3.11-1.11,6.52-1.11,6.52S129.29,146.8,126.8,142.62z
			 M126.83,149.91c0,0,4.09,1.34,5.77-3.23C127.83,145.73,126.83,149.91,126.83,149.91z M132.36,131.95
			c-2.89,3.91,0.47,6.6,0.47,6.6S135.78,135.41,132.36,131.95z M134.13,139.02c0,0,4.29,0.32,4.84-4.51
			C134.11,134.72,134.13,139.02,134.13,139.02z M134.35,125.85c-2.52,4.16,1.08,6.53,1.08,6.53S138.07,128.99,134.35,125.85z
			 M136.76,132.74c0,0,4.3-0.07,4.4-4.94C136.35,128.45,136.76,132.74,136.76,132.74z M135.24,119.65
			c-1.94,4.46,1.94,6.32,1.94,6.32S139.35,122.25,135.24,119.65z M138.55,126.15c0,0,4.25-0.65,3.7-5.48
			C137.56,121.96,138.55,126.15,138.55,126.15z M85.47,164.5c-4.43-2.02-6.36,1.83-6.36,1.83S82.79,168.56,85.47,164.5z
			 M78.92,167.7c0,0,0.57,4.26,5.42,3.8C83.12,166.78,78.92,167.7,78.92,167.7z M79.71,163.2c-4.29-2.3-6.46,1.41-6.46,1.41
			S76.77,167.07,79.71,163.2z M72.96,165.96c0,0,0.29,4.29,5.15,4.14C77.21,165.32,72.96,165.96,72.96,165.96z M91.69,164.37
			c-4.71-1.22-5.94,2.91-5.94,2.91S89.76,168.83,91.69,164.37z M85.79,168.66c0,0,1.31,4.1,5.99,2.8
			C89.77,167.02,85.79,168.66,85.79,168.66z M98.09,163.93c-4.8-0.78-5.65,3.44-5.65,3.44S96.57,168.55,98.09,163.93z M92.6,168.74
			c0,0,1.68,3.96,6.23,2.24C96.42,166.75,92.6,168.74,92.6,168.74z M104.17,162.43c-4.86-0.13-5.14,4.16-5.14,4.16
			S103.29,167.22,104.17,162.43z M99.38,167.93c0,0,2.19,3.7,6.47,1.38C102.9,165.45,99.38,167.93,99.38,167.93z M141.31,106.99
			l-3.72-2l-3.75,1.93l0.75-4.15l-2.99-2.97l4.18-0.57l1.9-3.77l1.83,3.8l4.17,0.65l-3.05,2.92L141.31,106.99z M127.26,83.32
			l-3.72-2l-3.75,1.93l0.75-4.15l-2.99-2.97l4.18-0.57l1.9-3.77l1.83,3.8l4.17,0.65l-3.05,2.92L127.26,83.32z M104.9,69.16l-3.72-2
			l-3.75,1.93l0.75-4.15l-2.99-2.97l4.18-0.57l1.9-3.77l1.83,3.8l4.17,0.65l-3.05,2.92L104.9,69.16z M77.16,69.96l-3.72-2
			l-3.75,1.93l0.75-4.15l-2.99-2.97l4.18-0.57l1.9-3.77l1.83,3.8l4.17,0.65l-3.05,2.92L77.16,69.96z M55.36,83.32l-3.72-2
			l-3.75,1.93l0.75-4.15l-2.99-2.97l4.18-0.57l1.9-3.77l1.83,3.8l4.17,0.65l-3.05,2.92L55.36,83.32z M41.76,106.99l-3.72-2
			l-3.75,1.93l0.75-4.15l-2.99-2.97l4.18-0.57l1.9-3.77l1.83,3.8l4.17,0.65l-3.05,2.92L41.76,106.99z M150.95,113.88
			c-0.99-34.31-29.21-61.53-63.31-61.53c-0.61,0-1.23,0.01-1.85,0.03c-16.92,0.49-32.63,7.54-44.25,19.84
			c-11.62,12.31-17.75,28.4-17.26,45.32c0.49,16.92,7.54,32.63,19.84,44.25c11.85,11.19,27.22,17.29,43.45,17.29
			c0.62,0,1.25-0.01,1.87-0.03c16.92-0.49,32.63-7.54,44.25-19.84C145.31,146.9,151.44,130.8,150.95,113.88z M127.69,115.71
			c0,22.1-17.98,40.08-40.08,40.08s-40.08-17.98-40.08-40.08c0-22.1,17.98-40.08,40.08-40.08S127.69,93.62,127.69,115.71z
			 M89.39,177.49c-16.48,0.5-32.2-5.5-44.2-16.83c-12-11.33-18.88-26.66-19.35-43.16c-0.03-1.1-0.03-2.2,0-3.29h20.18
			c-0.02,0.5-0.04,1-0.04,1.51c0,22.96,18.68,41.64,41.64,41.64s41.64-18.68,41.64-41.64c0-0.51-0.02-1.01-0.04-1.51h20.17
			C150.21,148.14,123.36,176.51,89.39,177.49z"/>
		<path class="st37" d="M91.33,94.85l-3.72-2l-3.75,1.93l0.75-4.15l-2.99-2.97l4.18-0.57l1.9-3.77l1.83,3.8l4.17,0.65l-3.05,2.92
			L91.33,94.85z M103.86,94.85l-2.66-1.43l-2.68,1.38l0.54-2.97l-2.14-2.12l2.99-0.41l1.36-2.69l1.31,2.72l2.98,0.46l-2.18,2.08
			L103.86,94.85z M78.24,94.85l-2.66-1.43L72.9,94.8l0.54-2.97l-2.14-2.12l2.99-0.41l1.36-2.69l1.31,2.72l2.98,0.46l-2.18,2.08
			L78.24,94.85z M82.05,107.16c-0.67,0.3-1.33,0.61-1.98,0.95c-1.29,0.69-2.54,1.45-3.62,2.38l-0.21-0.58l3.4-0.08l1.42-0.03
			l-1.21,0.78c-0.65,0.42-1.29,0.9-1.88,1.41c-0.6,0.51-1.18,1.04-1.71,1.61c-0.52,0.58-1.01,1.19-1.41,1.84
			c-0.39,0.66-0.71,1.34-0.89,2.06l-0.1,0.38l-0.39,0.02c-1.2,0.07-2.44,0.22-3.66,0.42c-1.22,0.2-2.43,0.44-3.62,0.75
			c-1.19,0.31-2.38,0.66-3.54,1.08c-0.59,0.19-1.15,0.44-1.72,0.66l-0.84,0.38l-0.42,0.19c-0.12,0.06-0.25,0.13-0.36,0.2
			c-0.94,0.58-1.59,1.64-1.69,2.77l-0.35,3.73c-0.25,2.49-0.5,4.98-0.8,7.46c0.04-2.5,0.13-5,0.22-7.5l0.16-3.75
			c0.07-1.36,0.8-2.7,1.96-3.48c0.14-0.1,0.3-0.18,0.45-0.27l0.43-0.21l0.86-0.41c0.59-0.24,1.16-0.51,1.76-0.72
			c1.18-0.47,2.4-0.82,3.62-1.15c2.46-0.64,4.94-1.06,7.5-1.2l-0.49,0.4c0.23-0.84,0.59-1.63,1.05-2.35c0.46-0.71,1-1.35,1.57-1.96
			c0.58-0.6,1.2-1.14,1.84-1.66c0.65-0.51,1.31-0.97,2.04-1.4l0.21,0.75l-3.4-0.08l-0.93-0.02l0.73-0.56
			c0.6-0.46,1.23-0.87,1.88-1.24c0.66-0.35,1.32-0.68,2-0.98c1.36-0.58,2.75-1.09,4.18-1.46C83.4,106.57,82.72,106.87,82.05,107.16z
			 M76.02,118.09h9.67c0.73,0,1.32-0.59,1.32-1.32v-4.49c0-0.73-0.59-1.32-1.32-1.32h-4.35c-1.95,0.13-4.7,4.52-5.77,6.35
			C75.35,117.65,75.61,118.09,76.02,118.09z M75.96,135.64c0.05-0.17,0.07-0.34,0.1-0.51c-0.17,0-0.33,0-0.49,0L75.96,135.64z
			 M76.06,135.13c-0.03,0.17-0.06,0.35-0.1,0.51l-0.39-0.51C75.73,135.13,75.9,135.13,76.06,135.13c0.22-1.1,0.21-2.24-0.01-3.34
			c-0.27-1.27-0.85-2.46-1.65-3.47c-1.6-2.02-4.18-3.23-6.74-3.09c-1.28,0.05-2.53,0.41-3.64,1.02c-1.11,0.62-2.05,1.5-2.77,2.54
			c-1.43,2.08-1.78,4.83-0.94,7.16c-0.37-1.18-0.43-2.44-0.23-3.65c0.2-1.2,0.66-2.37,1.39-3.35c0.72-0.98,1.66-1.79,2.73-2.35
			c1.08-0.55,2.27-0.84,3.47-0.85c2.4-0.06,4.77,1.1,6.2,2.99c0.72,0.94,1.22,2.04,1.45,3.2c0.21,1.16,0.18,2.37-0.15,3.5
			l-0.15,0.51l0.54,0.01c7.65,0.09,42.86-0.3,42.86-0.3S83.55,135.04,76.06,135.13z M84.17,109.28c0.83,0.07,1.65,0.12,2.48,0.18
			c0.83,0.06,1.65,0.11,2.48,0.15l-0.15-0.16c-0.04,1.6-0.08,3.19-0.1,4.79c-0.01,1.6-0.02,3.19-0.01,4.79
			c0.01,1.6,0.03,3.19,0.08,4.79c0.04,1.6,0.09,3.19,0.18,4.79c0.09-1.6,0.15-3.19,0.18-4.79c0.05-1.6,0.07-3.19,0.08-4.79
			c0.01-1.6,0.01-3.19-0.01-4.79c-0.01-1.6-0.05-3.19-0.1-4.79l0-0.16l-0.15,0c-0.83-0.01-1.66-0.02-2.49-0.02
			C85.83,109.27,85,109.27,84.17,109.28z M92.79,112.48v4.83c0,0.74,0.65,1.31,1.39,1.21l7.07-0.98c0.6-0.08,1.05-0.6,1.05-1.21
			v-3.85c0-0.67-0.55-1.22-1.22-1.22h-7.07C93.34,111.26,92.79,111.81,92.79,112.48z M105.49,118.94c-1.16-0.08-2.32-0.04-3.48,0.03
			c-1.16,0.06-2.31,0.21-3.46,0.38c-2.29,0.37-4.57,0.94-6.7,1.87c0.57-0.11,1.12-0.28,1.69-0.38c0.56-0.14,1.12-0.25,1.69-0.36
			c1.13-0.21,2.26-0.43,3.4-0.6c1.14-0.19,2.28-0.34,3.42-0.5c0.57-0.08,1.14-0.15,1.72-0.22L105.49,118.94z M109,125.47
			c0.21-4.23,0.35-8.46,0.42-12.69c0.05-2.11,0.06-4.23,0.09-6.34l0.02-3.17l0.01-1.59c0-0.27,0.01-0.51,0-0.81
			c-0.01-0.33-0.09-0.67-0.23-0.98c-0.29-0.61-0.84-1.09-1.48-1.3c-0.32-0.1-0.66-0.14-0.99-0.11c-0.3,0.03-0.55,0.07-0.82,0.11
			c-1.06,0.16-2.12,0.37-3.15,0.62c-2.07,0.51-4.11,1.12-6.12,1.81c-4.02,1.37-7.92,3.04-11.74,4.87c3.98-1.44,7.97-2.84,12-4.07
			c2.02-0.6,4.04-1.18,6.09-1.62c1.02-0.22,2.05-0.43,3.08-0.57c0.25-0.03,0.53-0.07,0.75-0.09c0.19-0.02,0.39,0.01,0.57,0.07
			c0.37,0.12,0.68,0.4,0.84,0.75c0.08,0.17,0.13,0.36,0.13,0.55l0.01,0.77l0.01,1.59l0.02,3.17c0.03,2.11,0.04,4.23,0.09,6.34
			C108.66,117.02,108.8,121.25,109,125.47z M106.5,104.94c-1.27-0.02-2.53,0.12-3.79,0.31c-1.26,0.18-2.49,0.45-3.73,0.76
			c-1.22,0.33-2.44,0.68-3.63,1.12c-0.6,0.21-1.18,0.45-1.77,0.67c-0.58,0.25-1.16,0.5-1.73,0.78l3.63-1.06
			c1.21-0.34,2.42-0.67,3.64-0.99c1.22-0.31,2.44-0.6,3.67-0.87c0.61-0.14,1.23-0.26,1.85-0.38
			C105.25,105.14,105.87,105.04,106.5,104.94z M64.4,120.47c-0.06,0.37-0.09,0.74-0.13,1.12l-0.04,0.56
			c-0.02,0.16-0.06,0.31-0.14,0.44c-0.08,0.13-0.19,0.23-0.32,0.3c-0.15,0.08-0.32,0.17-0.48,0.25c-0.33,0.16-0.66,0.31-1,0.45
			c-1.35,0.56-2.76,0.91-4.24,1.15c1.49,0.19,3.04-0.09,4.45-0.65c0.35-0.15,0.69-0.31,1.03-0.49c0.17-0.1,0.32-0.19,0.5-0.3
			c0.19-0.12,0.34-0.3,0.43-0.5c0.09-0.2,0.14-0.42,0.13-0.63l-0.04-0.56C64.48,121.21,64.46,120.84,64.4,120.47z M117.55,95.3
			c-0.67,0.16-1.34,0.32-2.01,0.49l-1,0.26c-0.35,0.1-0.68,0.23-1.01,0.4c-1.28,0.68-2.28,1.96-2.57,3.43
			c-0.08,0.36-0.11,0.75-0.12,1.1l-0.02,1.03l-0.04,2.06l-0.03,4.13c0.01,2.75,0.03,5.51,0.12,8.26c0.08,2.75,0.2,5.51,0.42,8.26
			c0.22-2.75,0.34-5.51,0.42-8.26c0.09-2.75,0.11-5.51,0.12-8.26l-0.03-4.13l-0.04-2.06l-0.02-1.03c-0.01-0.34,0-0.63,0.04-0.95
			c0.18-1.25,0.93-2.42,2.01-3.13c0.27-0.18,0.56-0.33,0.87-0.46l0.96-0.37C116.27,95.82,116.91,95.56,117.55,95.3z M108.93,134.24
			c0.17-1.76,0.27-3.52,0.35-5.28l0.02-0.33l-0.36-0.02c-1.93-0.09-3.87-0.13-5.8-0.17c-1.93-0.02-3.87-0.03-5.8,0
			c-0.97,0-1.93,0.04-2.9,0.05c-1.02,0-2.08,0.28-2.96,0.8c-0.89,0.53-1.63,1.28-2.11,2.17c-0.24,0.44-0.42,0.92-0.55,1.38
			l-0.41,1.4l0.64-1.31c0.21-0.45,0.42-0.86,0.69-1.23c0.54-0.75,1.26-1.36,2.08-1.75c0.81-0.41,1.7-0.56,2.61-0.53
			c0.97,0.02,1.93,0.05,2.9,0.05c1.93,0.02,3.87,0.01,5.8,0c1.93-0.03,3.87-0.08,5.8-0.17l-0.35-0.35
			C108.66,130.72,108.76,132.48,108.93,134.24z M85,122.8L85,122.8c0-0.31-0.26-0.57-0.57-0.57h-1.3c-0.31,0-0.57,0.26-0.57,0.57
			l0,0c0,0.31,0.26,0.57,0.57,0.57h1.3C84.75,123.37,85,123.12,85,122.8z M87.65,126.38c-1.15-0.11-2.31-0.16-3.46-0.21
			c-1.15-0.05-2.31-0.06-3.46-0.06c-1.15,0.01-2.31,0.01-3.46,0.06l-1.73,0.08c-0.58,0.04-1.15,0.07-1.73,0.13
			c0.58,0.06,1.15,0.09,1.73,0.13l1.73,0.08c1.15,0.05,2.31,0.06,3.46,0.06c1.15-0.01,2.31-0.01,3.46-0.06
			C85.35,126.54,86.5,126.49,87.65,126.38z M74.53,131.2c-0.35-0.89-0.88-1.71-1.55-2.4c-1.34-1.39-3.27-2.18-5.21-2.2
			c-1.94,0.01-3.87,0.81-5.22,2.2c-0.67,0.69-1.2,1.51-1.55,2.4c-0.33,0.89-0.51,1.84-0.46,2.78c0.15-1.87,0.98-3.63,2.31-4.87
			c1.32-1.24,3.11-1.97,4.91-1.94c1.81-0.03,3.59,0.7,4.91,1.94c1.33,1.24,2.17,3,2.31,4.87C75.04,133.04,74.87,132.09,74.53,131.2z
			 M71.03,130.52c-0.82-0.89-2.04-1.4-3.26-1.4c-1.22,0-2.44,0.51-3.26,1.4c-0.83,0.87-1.28,2.09-1.18,3.24
			c0.14-1.14,0.67-2.2,1.48-2.93c0.81-0.73,1.88-1.15,2.96-1.15c1.08-0.01,2.14,0.41,2.96,1.14c0.81,0.73,1.34,1.79,1.48,2.93
			C72.31,132.61,71.86,131.4,71.03,130.52z M60.52,133.67c0,0.04-0.01,0.09-0.01,0.13c0,4.01,3.25,7.25,7.25,7.25
			c4.01,0,7.25-3.25,7.25-7.25c0-0.04-0.01-0.09-0.01-0.13c0-0.13-2.82,0-2.82,0c0,0.03,0,0.05,0,0.08c0,2.44-1.98,4.43-4.43,4.43
			c-2.44,0-4.43-1.98-4.43-4.43c0-0.03,0-0.05,0-0.08H60.52z M68.87,136.29c-1.18,0.6-2.74,0.15-3.43-0.95
			c-0.75-1.07-0.56-2.68,0.46-3.53c0.97-0.88,2.6-0.92,3.62-0.02c-0.49-0.46-1.15-0.73-1.83-0.75c-0.68-0.01-1.36,0.23-1.88,0.68
			c-1.08,0.87-1.32,2.57-0.53,3.73c0.76,1.17,2.42,1.61,3.64,0.96c0.61-0.3,1.1-0.83,1.36-1.46c0.24-0.63,0.25-1.35,0.03-1.97
			C70.72,134.26,70.07,135.74,68.87,136.29z"/>
	</g>
</g>
</svg>
