<?xml version="1.0" encoding="utf-8"?>
<!-- Generator: Adobe Illustrator 27.8.1, SVG Export Plug-In . SVG Version: 6.00 Build 0)  -->
<svg version="1.1" xmlns="http://www.w3.org/2000/svg" xmlns:xlink="http://www.w3.org/1999/xlink" x="0px" y="0px"
	 viewBox="0 0 350 230" style="enable-background:new 0 0 350 230;" xml:space="preserve">
<style type="text/css">
	.st0{fill-rule:evenodd;clip-rule:evenodd;fill:#A6D63C;}
	.st1{fill-rule:evenodd;clip-rule:evenodd;fill:#00A0D1;}
	.st2{fill:#421C00;}
	.st3{fill-rule:evenodd;clip-rule:evenodd;fill:#FFFFFF;}
	.st4{fill:#699AE2;}
	.st5{fill:#3B7DC4;}
	.st6{fill:#AF7500;}
	.st7{fill:#FFDF00;}
	.st8{fill:#1A0256;}
	.st9{fill:#00594F;}
	.st10{fill:#00779B;}
	.st11{fill:#0074FF;}
	.st12{fill:#194A91;}
	.st13{fill-rule:evenodd;clip-rule:evenodd;fill:#EFEFEF;}
	.st14{fill:#044159;}
	.st15{fill:#4C2900;}
	.st16{fill:#FFFFFF;}
	.st17{fill:#FFB41F;}
	.st18{fill:#FF5A00;}
	.st19{fill:#680404;}
	.st20{fill:#03AA6F;}
	.st21{fill:#FB5968;}
	.st22{fill:#FFD24A;}
	.st23{fill:#055EBC;}
	.st24{fill:#6F6F6F;}
	.st25{fill:#454545;}
	.st26{fill:#BA1A00;}
	.st27{fill:#0071BC;}
	.st28{fill:none;stroke:#FFFFFF;stroke-width:2;stroke-miterlimit:10;}
	.st29{fill:#3D3600;}
	.st30{fill:#5B4E03;}
	.st31{fill:#685900;}
	.st32{fill:none;stroke:#2E8EFF;stroke-width:2;stroke-linecap:round;stroke-miterlimit:10;}
	.st33{fill:none;stroke:#3D3600;stroke-width:2;stroke-linecap:round;stroke-miterlimit:10;}
	.st34{fill:#6F0393;}
	.st35{fill:none;}
	.st36{fill:#96D7FF;}
	.st37{fill:#0C5100;}
	.st38{fill:#FFE856;}
	.st39{fill:#803971;}
	.st40{fill:#D3CECD;}
	.st41{fill:#4C241D;}
	.st42{fill:#EA3200;stroke:#4C241D;stroke-linecap:round;stroke-linejoin:round;stroke-miterlimit:50;}
	.st43{fill:#11930A;stroke:#4C241D;stroke-linecap:round;stroke-linejoin:round;stroke-miterlimit:50;}
	.st44{fill:#3792CF;}
	.st45{fill:#FEE36F;}
	.st46{fill:#136296;}
	.st47{fill:#53C2BA;}
	.st48{fill:#6D6D00;}
	.st49{fill:#001087;}
	.st50{fill:#F19333;}
	.st51{fill:#1554A1;}
	.st52{fill:#8E0000;}
	.st53{fill:#C46B02;}
	.st54{fill:#FFD662;}
	.st55{fill:#01539D;}
	.st56{fill:#007777;}
	.st57{fill:#3CAF47;}
	.st58{fill:#31575B;}
	.st59{fill:#7BBBFF;}
	.st60{fill:#513800;}
	.st61{fill:#009D5A;}
	.st62{fill:#C9A37C;}
	.st63{fill:#DB504A;}
	.st64{fill:#084C61;}
	.st65{opacity:0.3;fill:#BCBEC0;enable-background:new    ;}
	.st66{fill:#069A8E;}
	.st67{fill:#0A4D68;}
	.st68{fill:#190707;}
	.st69{fill:#39B54A;}
	.st70{fill:#01A9DB;}
	.st71{fill:#DF7401;}
	.st72{fill:#0F0F4F;}
	.st73{fill:#232365;}
	.st74{fill:#2169AA;}
	.st75{fill:#00828C;}
	.st76{fill:#00A4BA;}
	.st77{fill:#007CC1;}
	.st78{fill:#FF0000;}
	.st79{fill:#313341;}
	.st80{fill:#C9C9C9;}
	.st81{fill:#0C3F00;}
	.st82{fill:#00153A;}
	.st83{fill:#056168;}
	.st84{fill:#08E8FF;}
	.st85{fill:#00B7FF;}
	.st86{fill:#590060;}
	.st87{fill:#FF78DC;}
</style>
<g id="Layer_1">
</g>
<g id="Layer_2">
</g>
<g id="Layer_3">
</g>
<g id="Layer_4">
</g>
<g id="Layer_5">
</g>
<g id="Layer_6">
</g>
<g id="Layer_7">
</g>
<g id="Layer_8">
</g>
<g id="Layer_9">
</g>
<g id="Layer_10">
</g>
<g id="Layer_11">
</g>
<g id="Layer_12">
</g>
<g id="Layer_13">
</g>
<g id="Layer_14">
</g>
<g id="Layer_15">
	<g>
		<path class="st58" d="M143.59,92.68c6.21,13.98,20.21,23.73,36.5,23.73s30.29-9.75,36.5-23.73H143.59z M220.01,76.5h-79.83
			c0-16.2,9.66-30.15,23.51-36.41c0.2-0.1,0.4-0.19,0.61-0.27c0.2-0.09,0.4-0.18,0.61-0.26c1.8-0.75,3.68-1.37,5.6-1.84
			c0.21-0.06,0.43-0.11,0.65-0.16c0.22-0.04,0.43-0.1,0.66-0.13c2.66-0.57,5.43-0.87,8.27-0.87c3.92,0,7.72,0.57,11.29,1.63
			c3.45,1.01,6.7,2.48,9.7,4.33c0.31,0.2,0.63,0.4,0.95,0.61c1.38,0.91,2.71,1.9,3.96,2.98c0.08,0.06,0.14,0.12,0.21,0.18
			c1.93,1.67,3.7,3.52,5.26,5.52c1.21,1.53,2.31,3.14,3.27,4.83c2.16,3.75,3.72,7.91,4.56,12.31
			C219.76,71.41,220.01,73.92,220.01,76.5z"/>
		<path class="st16" d="M178.45,39.47c-0.71-0.08-0.97,1.33-0.97,1.33s-0.63-1.33-1.36-1.14c-0.71,0.18-0.69,0.92-0.69,0.92
			s1.56-0.4,2.05,1.16c0,0,1.01-2.05,2.25-1.27C179.73,40.47,179.17,39.55,178.45,39.47z M180.78,56.86
			c-0.69-0.2-1.19,1.14-1.19,1.14s-0.39-1.43-1.12-1.37c-0.75,0.06-0.86,0.79-0.86,0.79s1.6-0.12,1.8,1.5c0,0,1.36-1.82,2.44-0.86
			C181.82,57.95,181.43,57.06,180.78,56.86z"/>
		<path class="st16" d="M140.17,76.49c0,0,18.99-20.92,23.66-20.92c5.09-0.01,15.81,12.6,15.81,12.6s11.09-9.85,16.57-9.77
			c4.3,0.06,23.79,18.09,23.79,18.09L140.17,76.49L140.17,76.49z M196.22,58.4c-2.13-0.03-5.12,1.44-7.96,3.25
			c-0.33,1.34-0.79,3.46-0.56,4.38c0.35,1.39,4.63-1.21,5.73-2.24c1.1-1.03,1.68,6.57,4.65,6.74c2.97,0.17,1.75-4.96,2.45-5.86
			c0.7-0.9,5.99,8.55,7.55,9.07c1.56,0.52-1.3-4.16-0.69-5.11c0.55-0.87,4.77,3.47,8.25,7.86h4.38
			C220.01,76.49,200.52,58.46,196.22,58.4z M163.84,55.57c-1.84,0-5.89,3.24-10.13,7.16c-0.06,1.52,0.26,2.75,1.26,3.3
			c1.17,0.63,5.2-4.22,6.7-4.22c1.47,0,4.62,10.93,5.86,10.63c3.93-0.92,0.08-8.06,2.2-8.67c1.62-0.46,7.4,6.93,7.4,6.93
			s-3.27,0.45-1.21,1.91c3.21,2.27,7.93,1.79,7.93,1.79l-4.2-6.24C179.65,68.17,168.92,55.57,163.84,55.57z M179.47,68.32l5.29,6.57
			 M163.84,56.04c4.81,0,15.35,12.31,15.45,12.43c0.08,0.1,0.2,0.15,0.32,0.16c0.01,0,0.02,0,0.03,0c0.11,0,0.22-0.04,0.31-0.12
			c0.11-0.1,10.93-9.65,16.19-9.65l0.06,0c3.21,0.05,16.64,11.72,22.59,17.16h-77.57C146.97,69.79,160.33,56.04,163.84,56.04
			L163.84,56.04L163.84,56.04z M163.84,55.57C163.84,55.57,163.84,55.57,163.84,55.57c-4.68,0.01-23.67,20.92-23.67,20.92h79.83
			c0,0-19.48-18.03-23.79-18.09c-0.02,0-0.04,0-0.07,0c-5.5,0-16.5,9.77-16.5,9.77S168.93,55.57,163.84,55.57L163.84,55.57z
			 M149.6,55.74c0,0,0.45-1.63,1.49-2.06s2.04,1.56,2.04,1.56s0.37-2.28,1.53-2.31s1.45,1.09,1.45,1.09s-2.52,0.08-2.56,2.64
			C153.54,56.66,151.11,54.04,149.6,55.74z"/>
		<path class="st59" d="M141.6,87.08c-0.35-1.29-0.65-2.61-0.87-3.95c3.56,0.33,6.98,0.78,6.92,2.09
			C147.59,86.71,144.94,87.06,141.6,87.08z M192.36,82.91c-0.17,2.45,16.38,1.51,18.91,2.47c2.53,0.96-6.32,1.39-7.63,2.37
			c-0.92,0.68,8.64,0.98,14.41,1.1c-0.43,1.31-0.92,2.59-1.47,3.83H143.6c-0.15-0.34-0.3-0.68-0.44-1.03
			c7.41-0.23,16.6-0.67,16.51-1.52c-0.11-1.22-5.46-1.57-5.44-3.15c0.01-1.48,29.12,0.92,29.14-1.13
			c0.02-3.01-26.54-0.85-25.41-2.64c1.12-1.79,18.11-3.44,9.08-4.14c-13.7-1.05-21.9-0.84-26.8-0.21c-0.05-0.78-0.07-1.57-0.07-2.37
			h79.83c0,1.61-0.1,3.19-0.29,4.75C212.54,81.1,192.5,80.89,192.36,82.91z M146.83,72.01c-1.06,2.63-3.64,4.48-6.65,4.48h13.31
			C150.46,76.49,147.88,74.64,146.83,72.01z M173.44,72.01c-1.06,2.63-3.64,4.48-6.65,4.48h13.31
			C177.08,76.49,174.5,74.64,173.44,72.01z M160.13,72.01c-1.06,2.63-3.64,4.48-6.65,4.48h13.31
			C163.77,76.49,161.19,74.64,160.13,72.01z M213.36,72.01c-1.06,2.63-3.64,4.48-6.65,4.48h13.31
			C216.99,76.49,214.41,74.64,213.36,72.01z M200.05,72.01c-1.06,2.63-3.64,4.48-6.65,4.48h13.31
			C203.69,76.49,201.11,74.64,200.05,72.01z M186.74,72.01c-1.06,2.63-3.64,4.48-6.65,4.48h13.31
			C190.38,76.49,187.8,74.64,186.74,72.01z M176.08,123.8c24.54,1.02,45.05-18.45,46.29-42.68c-2.41,22.89-21.69,40.87-44.5,39.69
			c-24.05-1.25-43.14-22.39-42.56-47.13c0.24-10.31,3.87-19.64,9.75-26.93c-0.02-0.05-0.03-0.09-0.04-0.14
			c-7.84,7.73-12.79,18.41-13.07,30.36C131.35,101.8,151.12,122.76,176.08,123.8z"/>
		<path class="st60" d="M225.16,79.17c0,0.06-0.01,0.1-0.01,0.16c-0.51,27.53-22.08,49.68-48.64,49.68
			c-26.86,0-48.64-22.69-48.64-50.67c0-14.07,5.5-26.78,14.38-35.96c-11.71,9.36-19.21,23.77-19.21,39.93
			c0,28.23,22.88,51.11,51.11,51.11c28.22,0,51.11-22.88,51.11-51.11C225.26,81.25,225.23,80.2,225.16,79.17z M203.42,50.67
			l-0.45,10.54l-0.53,12.48l-0.09,2.15l-0.62,14.62l-0.62,14.62h0l-0.22,5.29c-1.6,1.06-3.28,2-5.02,2.8l0.97-22.95l0.62-14.62
			l0.08-1.91l0.54-12.72l0.45-10.55L203.42,50.67z"/>
		<path class="st61" d="M214.74,56.66c-4.2-2.83-9.32-3.89-9.32-3.89l6.05-0.95l15.49-2.42c-8.32-10.57-18.04-4.99-20.75-3.11
			c-0.41,0.3-0.67,0.5-0.72,0.55l0.51-0.72l10.76-14.88c-10.32-2.24-13.7,7.21-14.72,11.89c-0.33,1.49-0.42,2.49-0.42,2.49
			c-0.12-1.1-0.3-2.14-0.52-3.11c-3.16-13.77-15.74-14.11-15.74-14.11l6.04,9.78l3.95,6.39c-15.81-9.64-21.25,2.93-21.25,2.93
			l19.82,2.57c-13.52,1.8-11.63,20.07-11.63,20.07l18.54-15.68l18.47,14.49l0.13,0.1C221.54,63.17,218.51,59.2,214.74,56.66z"/>
		<path class="st62" d="M213.72,121.87c0.65-0.65,1.29-1.32,1.9-2c-7.18,14.4-19.7,30.79-41.47,45.04
			c-21.79-14.25-34.31-30.64-41.48-45.05c0.62,0.68,1.26,1.35,1.91,2.01c10.57,10.57,24.62,16.39,39.57,16.39
			S203.15,132.44,213.72,121.87z M201.09,106.21l-4.89-0.22l0.05-1.11l4.89,0.22L201.09,106.21z M201.71,92.63l-4.89-0.22l0.05-1.11
			l4.89,0.22L201.71,92.63z M202.32,79.04l-4.89-0.22l0.05-1.11l4.89,0.22L202.32,79.04z M202.94,65.45l-4.89-0.22l0.05-1.11
			l4.89,0.22L202.94,65.45z"/>
	</g>
</g>
</svg>
