<?xml version="1.0" encoding="utf-8"?>
<!-- Generator: Adobe Illustrator 27.8.1, SVG Export Plug-In . SVG Version: 6.00 Build 0)  -->
<svg version="1.1" xmlns="http://www.w3.org/2000/svg" xmlns:xlink="http://www.w3.org/1999/xlink" x="0px" y="0px"
	 viewBox="0 0 350 230" style="enable-background:new 0 0 350 230;" xml:space="preserve">
<style type="text/css">
	.st0{fill-rule:evenodd;clip-rule:evenodd;fill:#A6D63C;}
	.st1{fill-rule:evenodd;clip-rule:evenodd;fill:#00A0D1;}
	.st2{fill:#421C00;}
	.st3{fill-rule:evenodd;clip-rule:evenodd;fill:#FFFFFF;}
	.st4{fill:#699AE2;}
	.st5{fill:#3B7DC4;}
	.st6{fill:#AF7500;}
	.st7{fill:#FFDF00;}
	.st8{fill:#1A0256;}
	.st9{fill:#00594F;}
	.st10{fill:#00779B;}
	.st11{fill:#0074FF;}
	.st12{fill:#194A91;}
	.st13{fill-rule:evenodd;clip-rule:evenodd;fill:#EFEFEF;}
	.st14{fill:#044159;}
	.st15{fill:#4C2900;}
	.st16{fill:#FFFFFF;}
	.st17{fill:#FFB41F;}
	.st18{fill:#FF5A00;}
	.st19{fill:#680404;}
	.st20{fill:#03AA6F;}
	.st21{fill:#FB5968;}
	.st22{fill:#FFD24A;}
	.st23{fill:#055EBC;}
	.st24{fill:#6F6F6F;}
	.st25{fill:#454545;}
	.st26{fill:#BA1A00;}
	.st27{fill:#0071BC;}
	.st28{fill:none;stroke:#FFFFFF;stroke-width:2;stroke-miterlimit:10;}
	.st29{fill:#3D3600;}
	.st30{fill:#5B4E03;}
	.st31{fill:#685900;}
	.st32{fill:none;stroke:#2E8EFF;stroke-width:2;stroke-linecap:round;stroke-miterlimit:10;}
	.st33{fill:none;stroke:#3D3600;stroke-width:2;stroke-linecap:round;stroke-miterlimit:10;}
	.st34{fill:#6F0393;}
	.st35{fill:none;}
	.st36{fill:#96D7FF;}
	.st37{fill:#0C5100;}
	.st38{fill:#FFE856;}
	.st39{fill:#803971;}
	.st40{fill:#D3CECD;}
	.st41{fill:#4C241D;}
	.st42{fill:#EA3200;stroke:#4C241D;stroke-linecap:round;stroke-linejoin:round;stroke-miterlimit:50;}
	.st43{fill:#11930A;stroke:#4C241D;stroke-linecap:round;stroke-linejoin:round;stroke-miterlimit:50;}
	.st44{fill:#3792CF;}
	.st45{fill:#FEE36F;}
	.st46{fill:#136296;}
	.st47{fill:#53C2BA;}
	.st48{fill:#6D6D00;}
	.st49{fill:#001087;}
	.st50{fill:#F19333;}
	.st51{fill:#1554A1;}
	.st52{fill:#8E0000;}
	.st53{fill:#C46B02;}
	.st54{fill:#FFD662;}
	.st55{fill:#01539D;}
	.st56{fill:#007777;}
	.st57{fill:#3CAF47;}
	.st58{fill:#31575B;}
	.st59{fill:#7BBBFF;}
	.st60{fill:#513800;}
	.st61{fill:#009D5A;}
	.st62{fill:#C9A37C;}
	.st63{fill:#DB504A;}
	.st64{fill:#084C61;}
	.st65{opacity:0.3;fill:#BCBEC0;enable-background:new    ;}
	.st66{fill:#069A8E;}
	.st67{fill:#0A4D68;}
	.st68{fill:#190707;}
	.st69{fill:#39B54A;}
	.st70{fill:#01A9DB;}
	.st71{fill:#DF7401;}
	.st72{fill:#0F0F4F;}
	.st73{fill:#232365;}
	.st74{fill:#2169AA;}
	.st75{fill:#00828C;}
	.st76{fill:#00A4BA;}
	.st77{fill:#007CC1;}
	.st78{fill:#FF0000;}
	.st79{fill:#313341;}
	.st80{fill:#C9C9C9;}
	.st81{fill:#0C3F00;}
	.st82{fill:#00153A;}
	.st83{fill:#056168;}
	.st84{fill:#08E8FF;}
	.st85{fill:#00B7FF;}
	.st86{fill:#590060;}
	.st87{fill:#FF78DC;}
</style>
<g id="Layer_1">
</g>
<g id="Layer_2">
</g>
<g id="Layer_3">
</g>
<g id="Layer_4">
</g>
<g id="Layer_5">
</g>
<g id="Layer_6">
</g>
<g id="Layer_7">
</g>
<g id="Layer_8">
</g>
<g id="Layer_9">
</g>
<g id="Layer_10">
</g>
<g id="Layer_11">
</g>
<g id="Layer_12">
</g>
<g id="Layer_13">
</g>
<g id="Layer_14">
</g>
<g id="Layer_15">
	<g>
		<path class="st78" d="M199.13,70.33c-0.01-0.34-0.04-0.68-0.07-1.01c-0.01-0.14-0.04-0.3-0.06-0.44c-0.04-0.42-0.1-0.83-0.17-1.24
			c-0.03-0.17-0.06-0.32-0.08-0.48c-0.07-0.35-0.14-0.7-0.21-1.04c-0.01-0.04-0.01-0.07-0.03-0.1c-0.04-0.24-0.1-0.46-0.15-0.7
			c-0.06-0.17-0.1-0.35-0.15-0.52c-0.01-0.07-0.04-0.14-0.06-0.2c-0.13-0.42-0.27-0.83-0.41-1.24c-0.15-0.44-0.31-0.87-0.49-1.31
			c-0.18-0.42-0.37-0.84-0.56-1.27c-0.01-0.03-0.03-0.07-0.04-0.1c-0.38-0.8-0.8-1.58-1.28-2.32c-0.48-0.79-1-1.55-1.58-2.27
			c-0.28-0.35-0.56-0.72-0.87-1.06c-0.3-0.35-0.61-0.69-0.93-1.01c-0.31-0.32-0.63-0.65-0.97-0.96c-0.34-0.32-0.68-0.62-1.03-0.91
			c-2.82-2.38-6.15-4.14-9.81-5.11c-1.3-0.35-2.63-0.61-4.01-0.75c-0.86-0.08-1.73-0.13-2.62-0.13s-1.76,0.04-2.62,0.13h-0.01
			c-1.37,0.14-2.7,0.39-4,0.75c-8.94,2.38-15.95,9.46-18.21,18.43c-0.32,1.28-0.55,2.59-0.68,3.94c-0.07,0.79-0.11,1.58-0.11,2.38
			c0,0.84,0.04,1.69,0.11,2.51c0.14,1.37,0.38,2.7,0.72,4c0.37,1.39,0.84,2.73,1.45,4.03c0.18,0.39,0.38,0.8,0.58,1.2
			c0.21,0.42,0.44,0.83,0.68,1.24c0.15,0.25,0.31,0.52,0.48,0.77c0.32,0.51,0.66,1,1.01,1.49c0.18,0.24,0.37,0.48,0.55,0.72
			c0.2,0.24,0.38,0.46,0.58,0.7c0.39,0.46,0.8,0.9,1.22,1.34c0.42,0.42,0.86,0.84,1.31,1.24c0.45,0.39,0.91,0.77,1.39,1.14
			c0.48,0.37,0.97,0.72,1.48,1.06c0.51,0.34,1.01,0.65,1.55,0.94c0.11,0.06,0.23,0.11,0.32,0.18c0.32,0.17,0.65,0.34,0.97,0.49
			c0.49,0.24,0.97,0.46,1.48,0.66c0.31,0.14,0.62,0.25,0.94,0.37c0.73,0.27,1.48,0.51,2.24,0.7c0.04,0.01,0.08,0.03,0.13,0.04
			c0.21,0.06,0.44,0.11,0.66,0.15c0.24,0.06,0.48,0.11,0.72,0.15c0.38,0.08,0.77,0.15,1.17,0.21c0.45,0.07,0.91,0.13,1.38,0.17v0.01
			c0.08,0,0.18,0.01,0.28,0.01c0.73,0.07,1.48,0.1,2.24,0.1c0.84,0,1.69-0.04,2.51-0.11c1.35-0.14,2.66-0.37,3.93-0.7
			c9.02-2.34,16.13-9.46,18.41-18.51c0.32-1.27,0.55-2.58,0.68-3.91c0.07-0.79,0.11-1.59,0.11-2.39
			C199.17,71.3,199.15,70.81,199.13,70.33z M175,107.61c-15.37,0-28.9-0.83-40.27-2.15c1.13,1.55,2.28,3.08,3.46,4.62
			c15.44,19.82,35.34,37.12,35.34,37.12s20.18-16.92,35.65-36.86c1.18-1.51,2.32-3.04,3.43-4.59
			C201.83,106.9,189.2,107.61,175,107.61z M173.54,22.19c-29.26,0-55.59,23.84-53,53c0.75,8.36,5.73,18.12,12.37,27.7
			c12.3,1.52,26.7,2.39,42.09,2.39c14.27,0,27.69-0.75,39.4-2.07c6.53-9.52,11.4-19.33,12.12-28.03
			C228.91,46.02,202.8,22.19,173.54,22.19z M199.06,74.19c-0.13,1.34-0.35,2.65-0.68,3.91c-2.28,9.05-9.39,16.17-18.41,18.51
			c-1.27,0.34-2.58,0.56-3.93,0.7c-0.82,0.07-1.66,0.11-2.51,0.11c-0.76,0-1.51-0.03-2.24-0.1c-0.1,0-0.2-0.01-0.28-0.01V97.3
			c-0.46-0.04-0.93-0.1-1.38-0.17c-0.39-0.06-0.79-0.13-1.17-0.21c-0.24-0.04-0.48-0.1-0.72-0.15c-0.23-0.04-0.45-0.1-0.66-0.15
			c-0.04-0.01-0.08-0.03-0.13-0.04c-0.76-0.2-1.51-0.44-2.24-0.7c-0.32-0.11-0.63-0.23-0.94-0.37c-0.51-0.2-0.99-0.42-1.48-0.66
			c-0.32-0.15-0.65-0.32-0.97-0.49c-0.1-0.07-0.21-0.13-0.32-0.18c-0.53-0.3-1.04-0.61-1.55-0.94c-0.51-0.34-1-0.69-1.48-1.06
			c-0.48-0.37-0.94-0.75-1.39-1.14c-0.45-0.39-0.89-0.82-1.31-1.24c-0.42-0.44-0.83-0.87-1.22-1.34c-0.2-0.24-0.38-0.46-0.58-0.7
			c-0.18-0.24-0.37-0.48-0.55-0.72c-0.35-0.49-0.69-0.99-1.01-1.49c-0.17-0.25-0.32-0.52-0.48-0.77c-0.24-0.41-0.46-0.82-0.68-1.24
			c-0.2-0.39-0.39-0.8-0.58-1.2c-0.61-1.3-1.08-2.63-1.45-4.03c-0.34-1.3-0.58-2.63-0.72-4c-0.07-0.82-0.11-1.66-0.11-2.51
			c0-0.8,0.04-1.59,0.11-2.38c0.13-1.35,0.35-2.66,0.68-3.94c2.27-8.97,9.28-16.05,18.21-18.43c1.3-0.35,2.63-0.61,4-0.75h0.01
			c0.86-0.08,1.73-0.13,2.62-0.13s1.76,0.04,2.62,0.13c1.38,0.14,2.72,0.39,4.01,0.75c3.66,0.97,7,2.73,9.81,5.11
			c0.35,0.3,0.69,0.59,1.03,0.91c0.34,0.31,0.66,0.63,0.97,0.96c0.32,0.32,0.63,0.66,0.93,1.01c0.31,0.34,0.59,0.7,0.87,1.06
			c0.58,0.72,1.1,1.48,1.58,2.27c0.48,0.75,0.9,1.52,1.28,2.32c0.01,0.03,0.03,0.07,0.04,0.1c0.2,0.42,0.38,0.84,0.56,1.27
			c0.18,0.44,0.34,0.87,0.49,1.31c0.14,0.41,0.28,0.82,0.41,1.24c0.01,0.06,0.04,0.13,0.06,0.2c0.06,0.17,0.1,0.35,0.15,0.52
			c0.06,0.24,0.11,0.46,0.15,0.7c0.01,0.03,0.01,0.06,0.03,0.1c0.07,0.34,0.14,0.69,0.21,1.04c0.03,0.15,0.06,0.31,0.08,0.48
			c0.07,0.41,0.13,0.82,0.17,1.24c0.01,0.14,0.04,0.3,0.06,0.44c0.03,0.34,0.06,0.68,0.07,1.01c0.03,0.48,0.04,0.97,0.04,1.46
			C199.17,72.6,199.13,73.4,199.06,74.19z"/>
		<path class="st79" d="M257.3,87.97c-4.03-4.24-13.78-7.71-29.12-10.37l-0.72,4.15c20.34,3.53,26.83,8,27.65,10.44
			c0.07,0.18,0.1,0.35,0.1,0.52c0,4.45-15.57,10.13-42.58,13.02c-10.8,1.17-23.42,1.87-37.63,1.87c-15.37,0-28.9-0.83-40.27-2.15
			c-3.83-0.45-7.42-0.96-10.75-1.51c-8.32-1.38-15.02-3.04-19.88-4.76c-6.08-2.17-9.3-4.45-9.3-6.47c0-0.15,0.03-0.34,0.1-0.52
			c0.77-2.27,6.52-6.39,24.34-9.84l-0.8-4.14c-13.4,2.58-22,5.86-25.73,9.77c-1.41,1.49-2.13,3.07-2.13,4.73
			c0,4.34,5.05,7.95,13.39,10.84c5,1.72,11.18,3.18,18.16,4.38c5,0.86,10.4,1.56,16.07,2.14c11.54,1.17,24.2,1.76,36.81,1.76
			c11.67,0,23.37-0.51,34.19-1.51c28.1-2.6,50.24-8.54,50.24-17.61C259.43,91.04,258.71,89.45,257.3,87.97z"/>
		<path class="st16" d="M199.13,70.33c-0.01-0.34-0.04-0.68-0.07-1.01c-0.01-0.14-0.04-0.3-0.06-0.44c-0.04-0.42-0.1-0.83-0.17-1.24
			c-0.03-0.17-0.06-0.32-0.08-0.48c-0.07-0.35-0.14-0.7-0.21-1.04c-0.01-0.04-0.01-0.07-0.03-0.1c-0.04-0.24-0.1-0.46-0.15-0.7
			c-0.06-0.17-0.1-0.35-0.15-0.52c-0.01-0.07-0.04-0.14-0.06-0.2c-0.13-0.42-0.27-0.83-0.41-1.24c-0.15-0.44-0.31-0.87-0.49-1.31
			c-0.18-0.42-0.37-0.84-0.56-1.27c-0.01-0.03-0.03-0.07-0.04-0.1c-0.38-0.8-0.8-1.58-1.28-2.32c-0.48-0.79-1-1.55-1.58-2.27
			c-0.28-0.35-0.56-0.72-0.87-1.06c-0.3-0.35-0.61-0.69-0.93-1.01c-0.31-0.32-0.63-0.65-0.97-0.96c-0.34-0.32-0.68-0.62-1.03-0.91
			c-2.82-2.38-6.15-4.14-9.81-5.11c-1.3-0.35-2.63-0.61-4.01-0.75c-0.86-0.08-1.73-0.13-2.62-0.13s-1.76,0.04-2.62,0.13h-0.01
			c-1.37,0.14-2.7,0.39-4,0.75c-8.94,2.38-15.95,9.46-18.21,18.43c-0.32,1.28-0.55,2.59-0.68,3.94c-0.07,0.79-0.11,1.58-0.11,2.38
			c0,0.84,0.04,1.69,0.11,2.51c0.14,1.37,0.38,2.7,0.72,4c0.37,1.39,0.84,2.73,1.45,4.03c0.18,0.39,0.38,0.8,0.58,1.2
			c0.21,0.42,0.44,0.83,0.68,1.24c0.15,0.25,0.31,0.52,0.48,0.77c0.32,0.51,0.66,1,1.01,1.49c0.18,0.24,0.37,0.48,0.55,0.72
			c0.2,0.24,0.38,0.46,0.58,0.7c0.39,0.46,0.8,0.9,1.22,1.34c0.42,0.42,0.86,0.84,1.31,1.24c0.45,0.39,0.91,0.77,1.39,1.14
			c0.48,0.37,0.97,0.72,1.48,1.06c0.51,0.34,1.01,0.65,1.55,0.94c0.11,0.06,0.23,0.11,0.32,0.18c0.32,0.17,0.65,0.34,0.97,0.49
			c0.49,0.24,0.97,0.46,1.48,0.66c0.31,0.14,0.62,0.25,0.94,0.37c0.73,0.27,1.48,0.51,2.24,0.7c0.04,0.01,0.08,0.03,0.13,0.04
			c0.21,0.06,0.44,0.11,0.66,0.15c0.24,0.06,0.48,0.11,0.72,0.15c0.38,0.08,0.77,0.15,1.17,0.21c0.45,0.07,0.91,0.13,1.38,0.17v0.01
			c0.08,0,0.18,0.01,0.28,0.01c0.73,0.07,1.48,0.1,2.24,0.1c0.84,0,1.69-0.04,2.51-0.11c1.35-0.14,2.66-0.37,3.93-0.7
			c9.02-2.34,16.13-9.46,18.41-18.51c0.32-1.27,0.55-2.58,0.68-3.91c0.07-0.79,0.11-1.59,0.11-2.39
			C199.17,71.3,199.15,70.81,199.13,70.33z M125.59,103.91c-0.43,0-0.96-0.05-1.71-0.18c-7.8-1.26-14.44-2.79-19.7-4.56
			c-4.88-1.64-8.48-3.46-10.68-5.4c-1.94-1.67-2.92-3.53-2.92-5.5c0-0.2,0.01-0.39,0.03-0.59c0.47-5.73,9.84-10.45,27.83-13.92
			l0.8,4.15c-18.92,3.65-24.26,8.15-24.43,10.24c-0.01,0.98,0.8,1.85,1.47,2.44c1.77,1.56,4.96,3.14,9.24,4.58
			c5.05,1.69,11.46,3.17,19.05,4.39c0.81,0.14,1.04,0.13,1.06,0.13c0.7-0.21,1.36-0.27,2.99-0.08l-0.51,4.19
			c-0.99-0.12-1.25-0.09-1.26-0.08C126.44,103.85,126.07,103.91,125.59,103.91z M256.49,93.79c1.95-1.69,2.94-3.54,2.94-5.51
			c0-0.2-0.01-0.42-0.02-0.49c-0.53-6.21-11.04-11.13-31.23-14.64l-0.72,4.16c21.49,3.73,27.55,8.57,27.75,10.97
			c0,0.86-0.8,1.73-1.49,2.33c-5.19,4.56-17.05,7.83-36.23,9.99l0.47,4.2C238.31,102.5,250.55,99,256.49,93.79z"/>
		<path class="st80" d="M199.13,70.33c-0.01-0.35-0.04-0.69-0.08-1.03c-0.01-0.14-0.03-0.28-0.04-0.42
			c-0.04-0.42-0.1-0.83-0.17-1.24c-0.03-0.17-0.06-0.32-0.08-0.48c-0.07-0.35-0.14-0.7-0.21-1.04c-0.01-0.04-0.01-0.07-0.03-0.1
			c-0.06-0.24-0.11-0.48-0.18-0.72c-0.04-0.17-0.08-0.34-0.13-0.51c-0.01-0.07-0.04-0.14-0.06-0.2c-0.13-0.42-0.27-0.83-0.41-1.24
			c-0.15-0.44-0.31-0.87-0.49-1.31c-0.18-0.42-0.37-0.84-0.56-1.27c-0.01-0.03-0.03-0.07-0.04-0.1c-0.39-0.8-0.82-1.58-1.28-2.32
			c-0.48-0.79-1.01-1.53-1.58-2.27c-0.28-0.35-0.56-0.72-0.87-1.06c-0.3-0.35-0.61-0.69-0.93-1.01c-0.31-0.32-0.63-0.65-0.97-0.96
			c-0.34-0.32-0.68-0.62-1.03-0.91c1.44,3.14,2.24,6.62,2.27,10.29c0.01,0.08,0.01,0.15,0.01,0.24c0,0.99-0.06,1.96-0.17,2.91
			c-0.62,5.48-2.96,10.4-6.45,14.27c-0.04,0.06-0.1,0.1-0.15,0.15c-1.1,1.21-2.32,2.31-3.63,3.28c-0.2,0.14-0.39,0.28-0.59,0.41
			c-4.15,2.9-9.19,4.6-14.64,4.6c-1.08,0-2.15-0.07-3.2-0.21c-5.01-0.62-9.57-2.7-13.25-5.79c0.18,0.39,0.38,0.8,0.58,1.2
			c0.21,0.42,0.44,0.83,0.68,1.24c0.15,0.25,0.31,0.52,0.48,0.77c0.32,0.51,0.66,1,1.01,1.49c0.18,0.24,0.37,0.48,0.55,0.72
			c0.2,0.24,0.38,0.46,0.58,0.7c0.39,0.46,0.8,0.9,1.22,1.34c0.42,0.42,0.86,0.84,1.31,1.24c0.45,0.39,0.91,0.77,1.39,1.14
			c0.48,0.37,0.97,0.72,1.48,1.06c0.51,0.34,1.01,0.65,1.55,0.94c0.11,0.06,0.23,0.11,0.32,0.18c0.32,0.17,0.65,0.34,0.97,0.49
			c0.49,0.24,0.97,0.46,1.48,0.66c0.31,0.14,0.62,0.25,0.94,0.37c0.73,0.27,1.48,0.51,2.24,0.7c0.03,0.01,0.07,0.03,0.11,0.03
			c0.23,0.07,0.45,0.13,0.68,0.17c0.24,0.06,0.48,0.11,0.72,0.15c0.38,0.08,0.77,0.15,1.17,0.21c0.45,0.07,0.91,0.13,1.38,0.17
			c0.1,0.01,0.18,0.03,0.28,0.03c0.73,0.07,1.48,0.1,2.24,0.1c0.84,0,1.69-0.04,2.51-0.11c1.35-0.14,2.66-0.37,3.93-0.7
			c9.02-2.34,16.13-9.46,18.41-18.51c0.32-1.27,0.55-2.58,0.68-3.91c0.07-0.79,0.11-1.59,0.11-2.39
			C199.17,71.3,199.15,70.81,199.13,70.33z"/>
		<path class="st79" d="M166.62,88.32c-0.48-1.39-0.93-2.91-1.32-4.56c-0.23-0.99-0.45-2.03-0.62-3.11
			c-0.48-2.77-0.77-5.86-0.77-9.23c0-3.04,0.24-5.81,0.63-8.32c0.15-1.08,0.35-2.13,0.58-3.11c1.53-6.87,4.18-11.4,5.79-13.68
			c-1.37,0.14-2.7,0.39-4,0.75c-1.75,2.98-3.76,7.45-4.94,13.5c-0.2,1.01-0.38,2.07-0.52,3.18c-0.31,2.35-0.49,4.91-0.49,7.69
			c0,3.12,0.23,6.01,0.62,8.64c0.17,1.1,0.35,2.17,0.58,3.18c0.37,1.76,0.8,3.38,1.28,4.87c1.11,3.56,2.45,6.39,3.65,8.49
			c0,0.01,0.01,0.01,0.01,0.01c0.21,0.06,0.44,0.11,0.66,0.15c0.24,0.06,0.48,0.11,0.72,0.15c0.38,0.08,0.77,0.15,1.17,0.21
			c0.45,0.07,0.91,0.13,1.38,0.17C169.83,95.56,168.09,92.56,166.62,88.32z M185.58,63.56c-0.14-1.1-0.32-2.15-0.52-3.17
			c-1.18-5.97-3.18-10.39-4.9-13.34c-1.3-0.35-2.63-0.61-4.01-0.75c1.59,2.27,4.21,6.76,5.76,13.57c0.23,0.99,0.42,2.01,0.58,3.1
			c0.42,2.55,0.66,5.36,0.66,8.45c0,3.34-0.28,6.38-0.75,9.12c-2.77,0.48-5.87,0.77-9.26,0.77c-3.1,0-5.91-0.24-8.46-0.66
			c0.17,1.08,0.39,2.13,0.62,3.11c2.39,0.32,5.01,0.51,7.84,0.51c2.93,0,5.63-0.2,8.12-0.55c0.2-0.13,0.39-0.27,0.59-0.41
			c-0.03,0.11-0.04,0.23-0.08,0.34c-1.58,6.76-4.17,11.35-5.73,13.67c1.35-0.14,2.66-0.37,3.93-0.7c1.72-3,3.74-7.52,4.98-13.53
			c0.2-0.97,0.38-2,0.53-3.05c0-0.04,0.01-0.08,0.03-0.13c0.37-2.59,0.59-5.42,0.59-8.49C186.11,68.59,185.91,65.97,185.58,63.56z
			 M199,68.88c-0.04-0.42-0.1-0.83-0.17-1.24c-0.03-0.17-0.06-0.32-0.08-0.48c-0.07-0.35-0.14-0.7-0.21-1.04
			c-0.01-0.04-0.01-0.07-0.03-0.1c-0.04-0.24-0.1-0.46-0.15-0.7c0,0-0.01,0-0.03-0.01c-1.59-0.93-3.62-1.94-6.08-2.86
			c-2.07-0.79-4.46-1.49-7.18-2.06c-1-0.2-2.06-0.37-3.15-0.52c-2.44-0.34-5.1-0.53-8-0.53c-3.18,0-6.12,0.24-8.8,0.65
			c-1.1,0.15-2.15,0.35-3.15,0.56c-5.9,1.25-10.32,3.25-13.27,4.93c-0.32,1.28-0.55,2.59-0.68,3.94c2.29-1.55,6.8-4.11,13.43-5.69
			c0.99-0.24,2.01-0.46,3.1-0.63c2.82-0.51,5.94-0.8,9.37-0.8c3.14,0,6,0.25,8.57,0.68c0.42,2.55,0.66,5.36,0.66,8.45
			c0,3.34-0.28,6.38-0.75,9.12c-2.77,0.48-5.87,0.77-9.26,0.77c-3.1,0-5.91-0.24-8.46-0.66c0.17,1.08,0.39,2.13,0.62,3.11
			c2.39,0.32,5.01,0.51,7.84,0.51c2.93,0,5.63-0.2,8.12-0.55c0.2-0.13,0.39-0.27,0.59-0.41c1.31-0.97,2.53-2.07,3.63-3.28
			c0.06-0.06,0.11-0.1,0.15-0.15c-0.04,0.01-0.08,0.03-0.13,0.03c0.37-2.59,0.59-5.42,0.59-8.49c0-2.83-0.2-5.45-0.52-7.85
			c2.48,0.56,4.65,1.28,6.5,2.04c3.22,1.28,5.53,2.7,6.95,3.7c0,0.01,0.01,0.01,0.01,0.01C199.04,69.18,199.01,69.02,199,68.88z
			 M185.64,79.88c-0.04,0.01-0.08,0.03-0.13,0.03c-0.99,0.24-2.03,0.45-3.11,0.63c-2.77,0.48-5.87,0.77-9.26,0.77
			c-3.1,0-5.91-0.24-8.46-0.66c-1.08-0.15-2.13-0.37-3.11-0.59c-6.81-1.53-11.29-4.17-13.56-5.76c0.14,1.37,0.38,2.7,0.72,4
			c2.96,1.73,7.4,3.74,13.41,4.94c1,0.2,2.06,0.37,3.15,0.52c2.39,0.32,5.01,0.51,7.84,0.51c2.93,0,5.63-0.2,8.12-0.55
			c0.17-0.03,0.34-0.04,0.51-0.07c1.1-0.17,2.17-0.35,3.18-0.56c5.97-1.25,10.44-3.27,13.43-4.98c0.32-1.27,0.55-2.58,0.68-3.91
			C196.77,75.74,192.27,78.29,185.64,79.88z"/>
		<path class="st81" d="M124.23,101.71c0,5.65-4.58,10.23-10.23,10.23c-5.65,0-10.23-4.58-10.23-10.23s4.58-10.23,10.23-10.23
			C119.65,91.48,124.23,96.06,124.23,101.71z"/>
	</g>
</g>
</svg>
