<?xml version="1.0" encoding="utf-8"?>
<!-- Generator: Adobe Illustrator 27.8.1, SVG Export Plug-In . SVG Version: 6.00 Build 0)  -->
<svg version="1.1" xmlns="http://www.w3.org/2000/svg" xmlns:xlink="http://www.w3.org/1999/xlink" x="0px" y="0px"
	 viewBox="0 0 350 230" style="enable-background:new 0 0 350 230;" xml:space="preserve">
<style type="text/css">
	.st0{fill-rule:evenodd;clip-rule:evenodd;fill:#A6D63C;}
	.st1{fill-rule:evenodd;clip-rule:evenodd;fill:#00A0D1;}
	.st2{fill:#421C00;}
	.st3{fill-rule:evenodd;clip-rule:evenodd;fill:#FFFFFF;}
	.st4{fill:#699AE2;}
	.st5{fill:#3B7DC4;}
	.st6{fill:#AF7500;}
	.st7{fill:#FFDF00;}
	.st8{fill:#1A0256;}
	.st9{fill:#00594F;}
	.st10{fill:#00779B;}
	.st11{fill:#0074FF;}
	.st12{fill:#194A91;}
	.st13{fill-rule:evenodd;clip-rule:evenodd;fill:#EFEFEF;}
	.st14{fill:#044159;}
	.st15{fill:#4C2900;}
	.st16{fill:#FFFFFF;}
	.st17{fill:#FFB41F;}
	.st18{fill:#FF5A00;}
	.st19{fill:#680404;}
	.st20{fill:#03AA6F;}
	.st21{fill:#FB5968;}
	.st22{fill:#FFD24A;}
	.st23{fill:#055EBC;}
	.st24{fill:#6F6F6F;}
	.st25{fill:#454545;}
	.st26{fill:#BA1A00;}
	.st27{fill:#0071BC;}
	.st28{fill:none;stroke:#FFFFFF;stroke-width:2;stroke-miterlimit:10;}
	.st29{fill:#3D3600;}
	.st30{fill:#5B4E03;}
	.st31{fill:#685900;}
	.st32{fill:none;stroke:#2E8EFF;stroke-width:2;stroke-linecap:round;stroke-miterlimit:10;}
	.st33{fill:none;stroke:#3D3600;stroke-width:2;stroke-linecap:round;stroke-miterlimit:10;}
	.st34{fill:#6F0393;}
	.st35{fill:none;}
	.st36{fill:#96D7FF;}
	.st37{fill:#0C5100;}
	.st38{fill:#FFE856;}
	.st39{fill:#803971;}
	.st40{fill:#D3CECD;}
	.st41{fill:#4C241D;}
	.st42{fill:#EA3200;stroke:#4C241D;stroke-linecap:round;stroke-linejoin:round;stroke-miterlimit:50;}
	.st43{fill:#11930A;stroke:#4C241D;stroke-linecap:round;stroke-linejoin:round;stroke-miterlimit:50;}
	.st44{fill:#3792CF;}
	.st45{fill:#FEE36F;}
	.st46{fill:#136296;}
	.st47{fill:#53C2BA;}
	.st48{fill:#6D6D00;}
	.st49{fill:#001087;}
	.st50{fill:#F19333;}
	.st51{fill:#1554A1;}
	.st52{fill:#8E0000;}
	.st53{fill:#C46B02;}
	.st54{fill:#FFD662;}
	.st55{fill:#01539D;}
	.st56{fill:#007777;}
	.st57{fill:#3CAF47;}
	.st58{fill:#31575B;}
	.st59{fill:#7BBBFF;}
	.st60{fill:#513800;}
	.st61{fill:#009D5A;}
	.st62{fill:#C9A37C;}
	.st63{fill:#DB504A;}
	.st64{fill:#084C61;}
	.st65{opacity:0.3;fill:#BCBEC0;enable-background:new    ;}
	.st66{fill:#069A8E;}
	.st67{fill:#0A4D68;}
	.st68{fill:#190707;}
	.st69{fill:#39B54A;}
	.st70{fill:#01A9DB;}
	.st71{fill:#DF7401;}
	.st72{fill:#0F0F4F;}
	.st73{fill:#232365;}
	.st74{fill:#2169AA;}
	.st75{fill:#00828C;}
	.st76{fill:#00A4BA;}
	.st77{fill:#007CC1;}
	.st78{fill:#FF0000;}
	.st79{fill:#313341;}
	.st80{fill:#C9C9C9;}
	.st81{fill:#0C3F00;}
	.st82{fill:#00153A;}
	.st83{fill:#056168;}
	.st84{fill:#08E8FF;}
	.st85{fill:#00B7FF;}
	.st86{fill:#590060;}
	.st87{fill:#FF78DC;}
</style>
<g id="Layer_1">
</g>
<g id="Layer_2">
</g>
<g id="Layer_3">
</g>
<g id="Layer_4">
</g>
<g id="Layer_5">
</g>
<g id="Layer_6">
</g>
<g id="Layer_7">
</g>
<g id="Layer_8">
</g>
<g id="Layer_9">
</g>
<g id="Layer_10">
</g>
<g id="Layer_11">
</g>
<g id="Layer_12">
</g>
<g id="Layer_13">
</g>
<g id="Layer_14">
</g>
<g id="Layer_15">
	<g>
		<path class="st82" d="M167.34,132.16c-0.55,0.1-1.14,0.1-1.64,0.33c-10.16,4.58-20.35,9.11-30.43,13.86
			c-2.07,0.97-3.72,2.82-5.6,4.21c-0.48,0.35-1.07,0.66-1.64,0.75c-0.88,0.14-1.79,0.17-2.68,0.09c-1.31-0.12-2.62-0.37-3.92-0.56
			c0.57-1.1,1.15-2.2,1.88-3.6c-2.13-1.07-4.47-2.12-6.67-3.43c-0.89-0.53-1.44-1.61-2.14-2.44c1-0.13,2.05-0.51,3-0.33
			c2.7,0.5,5.37,1.22,8.62,2c-0.84-3.47-1.43-6.54-2.36-9.5c-0.74-2.34-0.32-3.87,2.16-4.34c0.86-0.16,2.07,0.03,2.74,0.55
			c3.09,2.39,5.97,5.06,9.11,7.38c0.96,0.71,2.73,1.25,3.72,0.85c7.23-2.91,14.35-6.07,21.52-9.16c-1.77-3.24-6.08-5.42-9.11-4.74
			c-0.39-2.36-9.69-7.11-11.97-6.6c-1.7-1.51-3.08-2.74-4.57-4.07c0.13-0.32,0.34-0.83,0.6-1.49c-4.69-2.28-9.06-5.22-13.91-7.17
			c-0.13,0.19-0.26,0.38-0.39,0.57c-0.1-0.61-0.2-1.21-0.3-1.83c0.34-0.14,0.55-0.27,0.77-0.31c4.52-0.85,8.73-0.09,13.06,1.58
			c12.38,4.77,24.89,9.18,37.38,13.65c0.95,0.34,2.19,0.26,3.2-0.01c3.14-0.83,6.22-1.9,9.35-2.78c1.56-0.44,3.15-0.83,4.53,0.7
			c0.25,0.28,1.31,0.02,1.92-0.21c10.5-3.96,20.99-7.97,31.49-11.93c0.9-0.34,1.9-0.56,2.85-0.58c0.47-0.01,0.93,0.64,1.45,0.84
			c0.57,0.22,1.2,0.39,1.8,0.4c2.33,0.04,4.65,0.02,7.09,0.02c-7.81,2.37-15.47,4.51-23,7.03c-7.57,2.53-14.89,5.73-22.11,9.12
			c0.11,0.27,0.22,0.54,0.33,0.81c0.85-0.34,1.71-0.65,2.55-1.01c11.67-5.03,23.37-9.96,35.76-13c2.36-0.58,4.8-0.9,7.23-1.16
			c0.76-0.08,2.05,0.25,2.27,0.75c0.32,0.73,0.23,2.09-0.27,2.66c-1.43,1.63-2.93,3.46-4.81,4.4c-7.78,3.87-15.69,7.5-23.6,11.11
			c-3.59,1.64-7.49,2.46-10.62,5.25c-1.74,1.55-2.6,2.94-2.19,5.04c2.76-0.52,5.52-1.02,8.27-1.55c1.96-0.38,2.88,0.7,3.38,2.36
			c0.51,1.71,0.87,3.65-1.1,4.5c-3.34,1.45-6.8,2.64-10.28,3.71c-1.26,0.38-2.04,0.74-2.07,2.14c-0.05,2.43-0.71,4.42-3.39,5.23
			c-0.69,0.21-1.18,1.05-1.87,1.69c-0.63-1.1-1.21-2.11-1.48-2.59c-1.95-0.49-3.56-0.58-4.83-1.28c-2.77-1.54-2.8-2.51-0.18-5.23
			c-1.32,0-2.2,0-3.07,0c-0.23-2.09-3.62-3.53-6.14-3.26c-11.65,1.24-22.38,6.19-33.83,8.16c-1.67,0.29-3.34,0.58-5.1,0.89
			c0.15,0.64,0.36,1.11,0.34,1.57c-0.02,0.66-0.01,1.7-0.36,1.88c-0.7,0.35-1.8,0.54-2.45,0.22c-1.66-0.81-3.17-1.93-5.21-3.23
			c1.35-1.03,2.29-2.04,3.46-2.59c10.36-4.9,20.77-9.72,31.16-14.56c0.83-0.39,1.68-0.75,2.52-1.12
			C167.48,132.57,167.41,132.37,167.34,132.16z"/>
		<path class="st83" d="M242.57,79.38c-4.08,0-8.12,0.01-12.17,0c-4.36-0.02-4.36-0.04-5.81-4.07c-6.52-18.07-23.78-30.94-42.92-32
			c-22.98-1.28-42.8,12.16-49.98,33.97c-0.52,1.57-1.17,2.18-2.87,2.14c-4.79-0.12-9.59-0.04-14.59-0.04
			c4.6-26.99,30.76-54.43,67.64-52.64C216.13,28.39,238.91,55.6,242.57,79.38z"/>
		<path class="st84" d="M137.56,84.96c-0.01,4.81-0.04,9.61,0,14.41c0.01,1.23-0.16,2.07-1.65,2.07
			c-10.63-0.04-21.26-0.05-31.89-0.08c-0.14,0-0.28-0.13-0.56-0.27V81.58h34.11V84.96z M253.93,83.67c0.05-1.94-0.69-2.29-2.42-2.27
			c-7.41,0.08-14.83,0.03-22.24,0.02h-9.52v19.65c0.4,0.15,0.55,0.25,0.7,0.25c10.5,0.02,21.01,0.02,31.51,0.08
			c1.76,0.01,1.94-0.95,1.93-2.34C253.86,93.94,253.79,88.8,253.93,83.67z M147.61,130.61c-4.95-3.96-9.28-8.59-11.97-14.28
			c-1.81-3.84-4.39-6.27-8.11-7.77c-3.21-1.3-6.44-2.62-9.95-0.94c-0.29,0.14-0.65,0.12-1.45,0.26c1.74-1.55,3.1-2.77,4.78-4.27
			c-2.64,0-4.84,0-7.17,0c1.6,8.91,4.69,17,9.77,24.65c3.14-2.68,5.44-1.19,7.78,1c2.32,2.16,4.82,4.12,7.33,6.06
			c0.63,0.49,1.71,1.01,2.31,0.79c2.87-1.06,5.64-2.38,8.7-3.72C148.79,131.65,148.22,131.1,147.61,130.61z M120.04,147.81
			c-1.66,4.3-0.99,4.97,5.66,5.78c-0.39,0.28-0.62,0.58-0.83,0.57c-7.24-0.24-14.26-1.35-20.46-5.45
			c-8.08-5.35-10.64-15.29-6.09-23.81c2.91-5.44,7-9.93,11.69-14.26c1.31,1.32,2.49,2.53,3.7,3.75c-1.43,2.03-2.86,3.8-4.01,5.74
			c-4.34,7.3-3.07,12.77,3.96,17.48c0.26,0.17,0.47,0.41,0.71,0.63c-3.04,2.93-2.49,6.12,1.18,7.34
			C117.05,146.08,118.44,147.01,120.04,147.81z"/>
		<path class="st85" d="M205.41,103.35c-0.54-0.86-1.32-1.97-1.17-2.82c0.55-3.08-1.28-4.82-3.14-6.66
			c-0.49-0.49-1.07-1.05-1.24-1.68c-0.78-2.87-3.26-3.56-5.83-1.8c-1.43,0.98-2.9,2.39-5,1.45c-3.62-1.61-6.4-5.75-6-9.69
			c0.29-2.82,1.12-5.58,1.74-8.36c0.08-0.38,0.26-0.87,0.56-1.04c2.31-1.39,4.66-2.72,7.27-4.21c0.52,3.75,3.53,2.37,5.5,3.55
			c0.18-1.98,1.19-2,2.81-2.06c4.29-0.17,5.53-1.13,4.02-4.91c-1.91,0.5-4.07,2.3-5.35-0.95c-0.07-0.17-0.79-0.28-1.06-0.14
			c-0.28,0.16-0.53,0.65-0.53,0.99c0,0.47,0.24,0.93,0.42,1.51c-2.28-1.54-4.37-2.93-6.45-4.33c-0.21,0.31-0.42,0.63-0.63,0.94
			c1.15,0.81,2.31,1.62,3.46,2.43c-0.08,0.16-0.17,0.31-0.25,0.47c-1.41-0.62-2.83-1.23-4.32-1.89c-2.09,1.24-3.44,2.99-3.43,5.8
			c0,0.65-1.43,1.71-2.32,1.86c-1.99,0.35-2.04-1.47-2.23-2.76c-0.09-0.58,0.29-1.4,0.73-1.84c0.61-0.62,2.16-1.13,2.09-1.43
			c-0.22-0.97-0.97-1.82-1.45-2.62c0.74-1.45,1.54-3.17,2.49-4.8c0.47-0.8,1.13-1.86,1.89-2.03c2.76-0.63,4.59-1.65,5.31-4.85
			c0.29-1.27-0.06-1.78-0.59-2.08c-1-0.57-2.22-0.75-3.74-1.22c1.67,2.49,1.56,4.98-0.02,6.27c-0.67-0.89-1.35-1.78-2.06-2.71
			c-0.58,0.61-1.04,1.1-1.51,1.59c-2.47-1.72-1.8-3.6-0.18-5.85c-2.27-0.2-4.06-0.58-5.82-0.48c-5.16,0.28-10.53-0.17-15.05,3.06
			c-1.02,0.73-1.36,2.47-2.41,3.09c-2.04,1.21-1.81,3-1.89,4.81c-0.03,0.7,0,1.4,0,2.07c-4.09,0.75-5.17-3.06-7.77-4.84
			c-1.58,1.43-3.17,2.86-4.81,4.34c0.51,0.48,0.95,0.9,1.91,1.81c-2.17,0.6-3.82,1.05-5.51,1.51c1.91,1.09,3.52,2.01,5.19,2.96
			c0.33-0.6,0.62-1.14,0.79-1.45c1.96,1.25,3.87,2.38,5.65,3.69c0.34,0.25,0.4,1.59,0.08,1.88c-1.14,1.03-2.5,1.83-3.29,2.38
			c0.59,1.29,1.2,2.64,1.81,3.99c0.47-0.3,0.08,0.05-0.34,0.35c-0.7,0.5-1.84,0.84-2.06,1.49c-1.04,3.08-1.88,6.21-2.66,9.37
			c-0.15,0.6,0.2,1.38,0.44,2.02c0.26,0.66,0.68,1.24,1.03,1.86c-0.13,0.16-0.26,0.32-0.4,0.47c-1.57-2.43-3.07-2.78-5.52-1.06
			c-2.75,1.94-3.3,5.14-0.56,7.23c1.32,1.01,2.18,0.66,2.81-0.79c0.24-0.57,0.62-1.08,1.25-2.14c0.27,1.86,0.43,2.94,0.58,4.01
			c1.03-0.19,1.78-0.32,2.06-0.37c1.13,1.53,2.01,2.71,2.88,3.89c-4-3.73-9.25-1.45-13.83-2.86c-0.56,3.76-0.55,3.74,2.64,4.88
			c3.14,1.13,6.27,2.29,9.41,3.43c1.49,0.54,2.99,1.05,4.76,1.68c-0.21-1.2-0.61-2.02-0.43-2.71c0.42-1.63,0.27-3.02-0.25-4.66
			c-0.27-0.87,1.07-3.1,2.03-3.34c2.43-0.61,5.11-1.53,7.53,0.33c0.23,0.18,0.63,0.29,0.92,0.24c2.67-0.5,4.14,0.61,4.24,3.07
			c2.11-0.18,4.1-0.73,5.93-0.4c2.86,0.52,3.86,0.4,3,4.02c-0.17,0.7-0.6,1.51-0.41,2.11c0.9,2.78,0.99,5.35-1.63,7.66
			c0.59-0.04,0.83-0.02,1.05-0.07c4.63-1.12,9.04-4.06,14.1-1.77c0.17,0.08,0.47-0.09,0.69-0.19c4.92-2.09,9.85-4.19,15.08-6.41
			C207.36,106.09,206.3,104.77,205.41,103.35z M170.63,52.7c-0.42,0.11-1.05-0.58-1.59-0.9c0.89-0.62,1.75-1.32,2.71-1.79
			c0.24-0.12,0.84,0.46,1.8,1.05C172.3,51.8,171.52,52.46,170.63,52.7z M179.44,55.65c0.14-0.1,0.28-0.2,0.43-0.3
			c1.46,1.3,3,2.52,4.28,3.98c0.22,0.24-0.72,1.5-1.33,2.68C181.47,59.47,180.46,57.56,179.44,55.65z M219.57,73.17
			c-1.87,2-3.58,3.81-5.15,5.49c-2.91-2.95-5.49-5.56-8.06-8.18c-0.28,0.27-0.55,0.55-0.83,0.83c2.93,2.98,5.85,5.96,9.2,9.36
			c2.01-3.53,4.74-0.32,7.06-1.72C221.05,77.04,220.33,75.18,219.57,73.17z M143.09,64.96c-0.27,0-0.54,0-0.81,0
			c-1.22,1.86-2.44,3.72-3.54,5.4c2.3,1.18,4.23,2.18,6.58,3.38C144.52,70.59,143.8,67.78,143.09,64.96z M202.92,57.78
			c-0.18,0.42-0.44,1.02-0.74,1.7c-0.65-0.21-1.3-0.41-2.21-0.69v4.39c2.39-0.88,4.51-1.65,6.9-2.53
			C205.35,59.54,204.2,58.7,202.92,57.78z M217.56,93.28V84.7C214.54,88.34,214.64,90.99,217.56,93.28z M216.84,97.59v7
			c0.69-0.16,1.49-0.35,2.98-0.69C215.88,102.7,218.85,99.52,216.84,97.59z M213.04,67.05c-0.18,0.21-0.36,0.41-0.54,0.61
			c0.97,0.86,1.87,1.82,2.95,2.49c0.28,0.17,1.12-0.57,2.14-1.12C215.57,68.15,214.3,67.6,213.04,67.05z"/>
	</g>
</g>
</svg>
