<?xml version="1.0" encoding="utf-8"?>
<!-- Generator: Adobe Illustrator 27.8.1, SVG Export Plug-In . SVG Version: 6.00 Build 0)  -->
<svg version="1.1" xmlns="http://www.w3.org/2000/svg" xmlns:xlink="http://www.w3.org/1999/xlink" x="0px" y="0px"
	 viewBox="0 0 350 230" style="enable-background:new 0 0 350 230;" xml:space="preserve">
<style type="text/css">
	.st0{fill-rule:evenodd;clip-rule:evenodd;fill:#A6D63C;}
	.st1{fill-rule:evenodd;clip-rule:evenodd;fill:#00A0D1;}
	.st2{fill:#421C00;}
	.st3{fill-rule:evenodd;clip-rule:evenodd;fill:#FFFFFF;}
	.st4{fill:#699AE2;}
	.st5{fill:#3B7DC4;}
	.st6{fill:#AF7500;}
	.st7{fill:#FFDF00;}
	.st8{fill:#1A0256;}
	.st9{fill:#00594F;}
	.st10{fill:#00779B;}
	.st11{fill:#0074FF;}
	.st12{fill:#194A91;}
	.st13{fill-rule:evenodd;clip-rule:evenodd;fill:#EFEFEF;}
	.st14{fill:#044159;}
	.st15{fill:#4C2900;}
	.st16{fill:#FFFFFF;}
	.st17{fill:#FFB41F;}
	.st18{fill:#FF5A00;}
	.st19{fill:#680404;}
	.st20{fill:#03AA6F;}
	.st21{fill:#FB5968;}
	.st22{fill:#FFD24A;}
	.st23{fill:#055EBC;}
	.st24{fill:#6F6F6F;}
	.st25{fill:#454545;}
	.st26{fill:#BA1A00;}
	.st27{fill:#0071BC;}
	.st28{fill:#6F0393;}
	.st29{fill:none;}
	.st30{fill:#96D7FF;}
	.st31{fill:#0C5100;}
	.st32{fill:#FFE856;}
	.st33{fill:#803971;}
	.st34{fill:#D3CECD;}
	.st35{fill:#4C241D;}
	.st36{fill:#EA3200;stroke:#4C241D;stroke-linecap:round;stroke-linejoin:round;stroke-miterlimit:50;}
	.st37{fill:#11930A;stroke:#4C241D;stroke-linecap:round;stroke-linejoin:round;stroke-miterlimit:50;}
	.st38{fill:#3792CF;}
	.st39{fill:#FEE36F;}
	.st40{fill:#136296;}
	.st41{fill:#53C2BA;}
	.st42{fill:#6D6D00;}
	.st43{fill:#001087;}
</style>
<g id="Layer_1">
</g>
<g id="Layer_2">
</g>
<g id="Layer_3">
</g>
<g id="Layer_4">
</g>
<g id="Layer_5">
</g>
<g id="Layer_6">
</g>
<g id="Layer_7">
</g>
<g id="Layer_8">
</g>
<g id="Layer_9">
	<g>
		<path class="st20" d="M192.84,86.41l-20.5,20.5l-12.62-12.62l20.5-20.5L192.84,86.41z"/>
		<path class="st21" d="M177.1,60.84c0.81,4.86-2.48,9.46-7.34,10.26c-4.86,0.81-9.46-2.48-10.26-7.34s2.48-9.46,7.34-10.26
			c0,0,0,0,0,0c4.84-0.82,9.42,2.43,10.25,7.27C177.09,60.79,177.09,60.81,177.1,60.84z"/>
		<path class="st22" d="M217.37,35.55v84.75h-15.61V35.55h2.23H217.37z M150.47,35.55v84.75h-17.84V35.55h11.15H150.47z"/>
		<path class="st23" d="M217.37,35.55h22.3v84.75h-22.3V35.55z M201.76,35.55v84.75h-51.29V35.55H201.76z M172.35,106.91l20.5-20.5
			l-12.62-12.62l-20.5,20.5L172.35,106.91z M169.78,71.1c4.86-0.82,8.13-5.42,7.31-10.28c-0.82-4.86-5.42-8.13-10.28-7.31
			c-4.86,0.82-8.13,5.42-7.31,10.28c0.79,4.84,5.36,8.12,10.2,7.33C169.73,71.11,169.76,71.1,169.78,71.1z M110.32,35.55h22.3v84.75
			h-22.3V35.55z"/>
		<path class="st24" d="M224.06,133.68c3.7,0,6.69,3,6.69,6.69c0,3.7-3,6.69-6.69,6.69c-3.7,0-6.69-3-6.69-6.69
			C217.37,136.67,220.37,133.68,224.06,133.68z M199.53,133.68c3.7,0,6.69,3,6.69,6.69c0,3.7-3,6.69-6.69,6.69s-6.69-3-6.69-6.69
			C192.84,136.67,195.84,133.68,199.53,133.68z M175,133.68c3.7,0,6.69,3,6.69,6.69c0,3.7-3,6.69-6.69,6.69s-6.69-3-6.69-6.69
			C168.31,136.67,171.31,133.68,175,133.68z M150.47,133.68c3.7,0,6.69,3,6.69,6.69c0,3.7-3,6.69-6.69,6.69s-6.69-3-6.69-6.69
			C143.78,136.67,146.77,133.68,150.47,133.68z M125.94,133.68c3.7,0,6.69,3,6.69,6.69c0,3.7-3,6.69-6.69,6.69
			c-3.7,0-6.69-3-6.69-6.69C119.25,136.67,122.24,133.68,125.94,133.68z"/>
		<path class="st25" d="M125.94,149.29c-4.93,0-8.92-3.99-8.92-8.92s3.99-8.92,8.92-8.92c4.93,0,8.92,3.99,8.92,8.92
			S130.86,149.29,125.94,149.29z M125.94,135.91c-2.46,0-4.46,2-4.46,4.46c0,2.46,2,4.46,4.46,4.46c2.46,0,4.46-2,4.46-4.46
			C130.4,137.9,128.4,135.91,125.94,135.91z M150.47,149.29c-4.93,0-8.92-3.99-8.92-8.92s3.99-8.92,8.92-8.92s8.92,3.99,8.92,8.92
			S155.39,149.29,150.47,149.29z M150.47,135.91c-2.46,0-4.46,2-4.46,4.46c0,2.46,2,4.46,4.46,4.46c2.46,0,4.46-2,4.46-4.46
			C154.93,137.9,152.93,135.91,150.47,135.91z M175,149.29c-4.93,0-8.92-3.99-8.92-8.92s3.99-8.92,8.92-8.92s8.92,3.99,8.92,8.92
			S179.93,149.29,175,149.29z M175,135.91c-2.46,0-4.46,2-4.46,4.46c0,2.46,2,4.46,4.46,4.46c2.46,0,4.46-2,4.46-4.46
			C179.46,137.9,177.46,135.91,175,135.91z M199.53,149.29c-4.93,0-8.92-3.99-8.92-8.92s3.99-8.92,8.92-8.92s8.92,3.99,8.92,8.92
			S204.46,149.29,199.53,149.29z M199.53,135.91c-2.46,0-4.46,2-4.46,4.46c0,2.46,2,4.46,4.46,4.46c2.46,0,4.46-2,4.46-4.46
			C203.99,137.9,202,135.91,199.53,135.91z M224.06,149.29c-4.93,0-8.92-3.99-8.92-8.92s3.99-8.92,8.92-8.92s8.92,3.99,8.92,8.92
			S228.99,149.29,224.06,149.29z M224.06,135.91c-2.46,0-4.46,2-4.46,4.46c0,2.46,2,4.46,4.46,4.46c2.46,0,4.46-2,4.46-4.46
			C228.53,137.9,226.53,135.91,224.06,135.91z"/>
		<path class="st25" d="M206.22,35.55h-4.46v-8.92c0-1.23-1-2.23-2.23-2.23h-6.69v-4.46h6.69c3.7,0,6.69,3,6.69,6.69V35.55z
			 M146.01,35.55h-4.46v-8.92c0-3.7,3-6.69,6.69-6.69h6.69v4.46h-6.69c-1.23,0-2.23,1-2.23,2.23V35.55z M154.93,17.71h37.91v8.92
			h-37.91V17.71z M108.09,126.99h133.81v4.46H108.09V126.99z"/>
	</g>
</g>
<g id="Layer_10">
</g>
<g id="Layer_11">
</g>
<g id="Layer_12">
</g>
<g id="Layer_13">
</g>
<g id="Layer_14">
</g>
<g id="Layer_15">
</g>
</svg>
