<?xml version="1.0" encoding="utf-8"?>
<!-- Generator: Adobe Illustrator 27.8.1, SVG Export Plug-In . SVG Version: 6.00 Build 0)  -->
<svg version="1.1" xmlns="http://www.w3.org/2000/svg" xmlns:xlink="http://www.w3.org/1999/xlink" x="0px" y="0px"
	 viewBox="0 0 350 230" style="enable-background:new 0 0 350 230;" xml:space="preserve">
<style type="text/css">
	.st0{fill-rule:evenodd;clip-rule:evenodd;fill:#A6D63C;}
	.st1{fill-rule:evenodd;clip-rule:evenodd;fill:#00A0D1;}
	.st2{fill:#421C00;}
	.st3{fill-rule:evenodd;clip-rule:evenodd;fill:#FFFFFF;}
	.st4{fill:#699AE2;}
	.st5{fill:#3B7DC4;}
	.st6{fill:#AF7500;}
	.st7{fill:#FFDF00;}
	.st8{fill:#1A0256;}
	.st9{fill:#00594F;}
	.st10{fill:#00779B;}
	.st11{fill:#0074FF;}
	.st12{fill:#194A91;}
	.st13{fill-rule:evenodd;clip-rule:evenodd;fill:#EFEFEF;}
	.st14{fill:#044159;}
	.st15{fill:#4C2900;}
	.st16{fill:#FFFFFF;}
	.st17{fill:#FFB41F;}
	.st18{fill:#FF5A00;}
	.st19{fill:#680404;}
	.st20{fill:#03AA6F;}
	.st21{fill:#FB5968;}
	.st22{fill:#FFD24A;}
	.st23{fill:#055EBC;}
	.st24{fill:#6F6F6F;}
	.st25{fill:#454545;}
	.st26{fill:#BA1A00;}
	.st27{fill:#0071BC;}
	.st28{fill:none;stroke:#FFFFFF;stroke-width:2;stroke-miterlimit:10;}
	.st29{fill:#3D3600;}
	.st30{fill:#5B4E03;}
	.st31{fill:#685900;}
	.st32{fill:none;stroke:#2E8EFF;stroke-width:2;stroke-linecap:round;stroke-miterlimit:10;}
	.st33{fill:none;stroke:#3D3600;stroke-width:2;stroke-linecap:round;stroke-miterlimit:10;}
	.st34{fill:#6F0393;}
	.st35{fill:none;}
	.st36{fill:#96D7FF;}
	.st37{fill:#0C5100;}
	.st38{fill:#FFE856;}
	.st39{fill:#803971;}
	.st40{fill:#D3CECD;}
	.st41{fill:#4C241D;}
	.st42{fill:#EA3200;stroke:#4C241D;stroke-linecap:round;stroke-linejoin:round;stroke-miterlimit:50;}
	.st43{fill:#11930A;stroke:#4C241D;stroke-linecap:round;stroke-linejoin:round;stroke-miterlimit:50;}
	.st44{fill:#3792CF;}
	.st45{fill:#FEE36F;}
	.st46{fill:#136296;}
	.st47{fill:#53C2BA;}
	.st48{fill:#6D6D00;}
	.st49{fill:#001087;}
	.st50{fill:#F19333;}
	.st51{fill:#1554A1;}
	.st52{fill:#8E0000;}
	.st53{fill:#C46B02;}
	.st54{fill:#FFD662;}
	.st55{fill:#01539D;}
	.st56{fill:#007777;}
	.st57{fill:#3CAF47;}
	.st58{fill:#31575B;}
	.st59{fill:#7BBBFF;}
	.st60{fill:#513800;}
	.st61{fill:#009D5A;}
	.st62{fill:#C9A37C;}
	.st63{fill:#DB504A;}
	.st64{fill:#084C61;}
	.st65{opacity:0.3;fill:#BCBEC0;enable-background:new    ;}
	.st66{fill:#069A8E;}
	.st67{fill:#0A4D68;}
	.st68{fill:#190707;}
	.st69{fill:#39B54A;}
	.st70{fill:#01A9DB;}
	.st71{fill:#DF7401;}
	.st72{fill:#0F0F4F;}
	.st73{fill:#232365;}
	.st74{fill:#2169AA;}
	.st75{fill:#00828C;}
	.st76{fill:#00A4BA;}
	.st77{fill:#007CC1;}
	.st78{fill:#FF0000;}
	.st79{fill:#313341;}
	.st80{fill:#C9C9C9;}
	.st81{fill:#0C3F00;}
	.st82{fill:#00153A;}
	.st83{fill:#056168;}
	.st84{fill:#08E8FF;}
	.st85{fill:#00B7FF;}
	.st86{fill:#590060;}
	.st87{fill:#FF78DC;}
</style>
<g id="Layer_1">
</g>
<g id="Layer_2">
</g>
<g id="Layer_3">
</g>
<g id="Layer_4">
</g>
<g id="Layer_5">
</g>
<g id="Layer_6">
</g>
<g id="Layer_7">
</g>
<g id="Layer_8">
</g>
<g id="Layer_9">
</g>
<g id="Layer_10">
</g>
<g id="Layer_11">
</g>
<g id="Layer_12">
</g>
<g id="Layer_13">
</g>
<g id="Layer_14">
</g>
<g id="Layer_15">
	<path class="st66" d="M244.03,46.59h-36.59v-9.77c0-5.7-4.63-10.33-10.33-10.33h-44.23c-5.7,0-10.33,4.63-10.33,10.33v9.77h-36.59
		c-12.87,0-23.34,10.47-23.34,23.33v39.43h8.4V69.92c0-8.23,6.7-14.93,14.93-14.93h8.8v54.36h8.4V54.99h103.66v54.36h8.4V54.99h8.8
		c8.23,0,14.93,6.7,14.93,14.93v39.43h8.4V69.92C267.37,57.05,256.9,46.59,244.03,46.59z M150.96,36.81c0-1.06,0.86-1.93,1.93-1.93
		h44.23c1.06,0,1.93,0.86,1.93,1.93v9.77h-48.08V36.81z"/>
	<path class="st67" d="M191.79,106.2L191.79,106.2c-0.82,0.86-2.17,0.93-3.08,0.17L155.44,78.2c-1.34-1.17-2.25-2.75-2.59-4.5
		l-0.47-2.38c-0.31-1.59,1.04-3.02,2.65-2.78l2.4,0.35c1.76,0.26,3.38,1.09,4.62,2.37l29.76,31.86
		C192.62,103.99,192.61,105.34,191.79,106.2z M163.53,111.62l8.48-21.44l-7.2-6.86l-4.75,24.99L163.53,111.62z M181.4,113.88
		l4.55-11.5l-3.86-3.68l-2.54,13.4L181.4,113.88z M192.36,74.4l-24.73,5.96l7.2,6.86l21-9.52L192.36,74.4z M197.1,93.67l-13.26,3.2
		l3.86,3.68l11.26-5.1L197.1,93.67z"/>
</g>
</svg>
