<?xml version="1.0" encoding="utf-8"?>
<!-- Generator: Adobe Illustrator 27.8.1, SVG Export Plug-In . SVG Version: 6.00 Build 0)  -->
<svg version="1.1" xmlns="http://www.w3.org/2000/svg" xmlns:xlink="http://www.w3.org/1999/xlink" x="0px" y="0px"
	 viewBox="0 0 350 230" style="enable-background:new 0 0 350 230;" xml:space="preserve">
<style type="text/css">
	.st0{fill-rule:evenodd;clip-rule:evenodd;fill:#A6D63C;}
	.st1{fill-rule:evenodd;clip-rule:evenodd;fill:#00A0D1;}
	.st2{fill:#421C00;}
	.st3{fill-rule:evenodd;clip-rule:evenodd;fill:#FFFFFF;}
	.st4{fill:#699AE2;}
	.st5{fill:#3B7DC4;}
	.st6{fill:#AF7500;}
	.st7{fill:#FFDF00;}
	.st8{fill:#1A0256;}
	.st9{fill:#00594F;}
	.st10{fill:#00779B;}
	.st11{fill:#0074FF;}
	.st12{fill:#194A91;}
	.st13{fill-rule:evenodd;clip-rule:evenodd;fill:#EFEFEF;}
	.st14{fill:#044159;}
	.st15{fill:#4C2900;}
	.st16{fill:#FFFFFF;}
	.st17{fill:#FFB41F;}
	.st18{fill:#FF5A00;}
	.st19{fill:#680404;}
	.st20{fill:#03AA6F;}
	.st21{fill:#FB5968;}
	.st22{fill:#FFD24A;}
	.st23{fill:#055EBC;}
	.st24{fill:#6F6F6F;}
	.st25{fill:#454545;}
	.st26{fill:#BA1A00;}
	.st27{fill:#0071BC;}
	.st28{fill:none;stroke:#FFFFFF;stroke-width:2;stroke-miterlimit:10;}
	.st29{fill:#3D3600;}
	.st30{fill:#5B4E03;}
	.st31{fill:#685900;}
	.st32{fill:none;stroke:#2E8EFF;stroke-width:2;stroke-linecap:round;stroke-miterlimit:10;}
	.st33{fill:none;stroke:#3D3600;stroke-width:2;stroke-linecap:round;stroke-miterlimit:10;}
	.st34{fill:#6F0393;}
	.st35{fill:none;}
	.st36{fill:#96D7FF;}
	.st37{fill:#0C5100;}
	.st38{fill:#FFE856;}
	.st39{fill:#803971;}
	.st40{fill:#D3CECD;}
	.st41{fill:#4C241D;}
	.st42{fill:#EA3200;stroke:#4C241D;stroke-linecap:round;stroke-linejoin:round;stroke-miterlimit:50;}
	.st43{fill:#11930A;stroke:#4C241D;stroke-linecap:round;stroke-linejoin:round;stroke-miterlimit:50;}
	.st44{fill:#3792CF;}
	.st45{fill:#FEE36F;}
	.st46{fill:#136296;}
	.st47{fill:#53C2BA;}
	.st48{fill:#6D6D00;}
	.st49{fill:#001087;}
	.st50{fill:#F19333;}
	.st51{fill:#1554A1;}
	.st52{fill:#8E0000;}
	.st53{fill:#C46B02;}
	.st54{fill:#FFD662;}
	.st55{fill:#01539D;}
	.st56{fill:#007777;}
	.st57{fill:#3CAF47;}
	.st58{fill:#31575B;}
	.st59{fill:#7BBBFF;}
	.st60{fill:#513800;}
	.st61{fill:#009D5A;}
	.st62{fill:#C9A37C;}
	.st63{fill:#DB504A;}
	.st64{fill:#084C61;}
	.st65{opacity:0.3;fill:#BCBEC0;enable-background:new    ;}
	.st66{fill:#069A8E;}
	.st67{fill:#0A4D68;}
	.st68{fill:#190707;}
	.st69{fill:#39B54A;}
	.st70{fill:#01A9DB;}
	.st71{fill:#DF7401;}
	.st72{fill:#0F0F4F;}
	.st73{fill:#232365;}
	.st74{fill:#2169AA;}
	.st75{fill:#00828C;}
	.st76{fill:#00A4BA;}
	.st77{fill:#007CC1;}
	.st78{fill:#FF0000;}
	.st79{fill:#313341;}
	.st80{fill:#C9C9C9;}
	.st81{fill:#0C3F00;}
	.st82{fill:#00153A;}
	.st83{fill:#056168;}
	.st84{fill:#08E8FF;}
	.st85{fill:#00B7FF;}
	.st86{fill:#590060;}
	.st87{fill:#FF78DC;}
</style>
<g id="Layer_1">
</g>
<g id="Layer_2">
</g>
<g id="Layer_3">
</g>
<g id="Layer_4">
</g>
<g id="Layer_5">
</g>
<g id="Layer_6">
</g>
<g id="Layer_7">
</g>
<g id="Layer_8">
</g>
<g id="Layer_9">
</g>
<g id="Layer_10">
</g>
<g id="Layer_11">
</g>
<g id="Layer_12">
</g>
<g id="Layer_13">
</g>
<g id="Layer_14">
</g>
<g id="Layer_15">
	<path class="st54" d="M250.92,33.2l-4.84-12.46l43.07,6.25l-26.2,37.22l-4.91-12.64L109.07,98.78L250.92,33.2z"/>
	<path class="st55" d="M235.24,79.9l-2.15-8.51l-89.11,19.8l109.88-33.81L235.24,79.9z M193.1,47.34l2.29,4.43l-45.36,25.1
		l59.46-26.95L193.1,47.34z M156.99,98.78c0,1.64-0.08,3.29-0.25,4.91c-0.05,0.49-0.46,0.86-0.95,0.86c-0.03,0-0.07,0-0.1,0
		c-0.52-0.05-0.91-0.52-0.85-1.05c0.13-1.24,0.19-2.5,0.21-3.77h-15.16c-0.02,1.31-0.04,2.63-0.13,3.92
		c-0.03,0.51-0.45,0.89-0.95,0.89c-0.02,0-0.04,0-0.06,0c-0.53-0.03-0.93-0.49-0.89-1.02c0.08-1.25,0.11-2.53,0.12-3.8h-28.1v23.16
		c0,0.53-0.43,0.96-0.96,0.96c-0.53,0-0.96-0.43-0.96-0.96V99.74H94.4c-0.53,0-0.96-0.43-0.96-0.96c0-0.53,0.43-0.96,0.96-0.96
		h13.56V85.91c-9.3-0.12-18.23-1.97-25.78-5.21c-0.95,3.5-1.65,7.21-2.03,11.1c-0.05,0.49-0.46,0.86-0.95,0.86
		c-0.03,0-0.06,0-0.09,0c-0.52-0.05-0.91-0.52-0.86-1.04c0.4-4.13,1.14-8.05,2.14-11.73c-3.78-1.79-7.17-3.95-10.03-6.43
		c-4.63,7.03-7.39,15.39-7.58,24.38h3.57c0.53,0,0.96,0.43,0.96,0.96c0,0.53-0.43,0.96-0.96,0.96h-3.57
		c0.03,1.26,0.09,2.52,0.21,3.77c0.05,0.52-0.33,0.99-0.85,1.05c-0.03,0-0.07,0-0.1,0c-0.48,0-0.9-0.37-0.95-0.86
		c-0.16-1.62-0.25-3.27-0.25-4.91c0-10.1,3.14-19.48,8.48-27.22c0.04-0.07,0.07-0.14,0.12-0.2c0.01-0.01,0.03-0.02,0.04-0.03
		c3.84-5.5,8.79-10.17,14.54-13.66c0.05-0.03,0.09-0.06,0.14-0.08c7.23-4.36,15.7-6.88,24.75-6.88c8.78,0,17.27,2.46,24.63,6.85
		c0.19,0.05,0.35,0.15,0.48,0.3c5.41,3.31,10.17,7.68,13.94,12.92c0.26-0.01,0.52,0.09,0.72,0.29c0.26,0.28,0.32,0.67,0.19,1
		c0.47,0.69,0.93,1.39,1.36,2.11c0.27,0.45,0.12,1.04-0.33,1.31c-0.45,0.27-1.04,0.12-1.31-0.33c-0.35-0.59-0.73-1.15-1.1-1.72
		c-8.86,7.67-22.72,12.27-37.61,12.46v11.92h28.11c-0.02-1.65-0.08-3.3-0.21-4.91c-0.04-0.53,0.35-0.99,0.88-1.03
		c0.52-0.04,0.99,0.35,1.03,0.88c0.14,1.67,0.2,3.37,0.22,5.07h15.14c-0.04-1.81-0.16-3.62-0.4-5.41c-0.07-0.52,0.29-1,0.82-1.08
		c0.52-0.07,1.01,0.29,1.08,0.82C156.83,94.34,156.99,96.57,156.99,98.78z M109.87,61.83c5.1-0.07,10.11-0.65,14.85-1.75
		c-4.37-4.5-9.49-7.12-14.85-7.41V61.83z M107.96,52.7c-5.38,0.29-10.45,2.96-14.78,7.41c4.72,1.08,9.71,1.66,14.78,1.73V52.7z
		 M109.87,84c9.17-0.12,17.91-1.94,25.26-5.15c-2.1-6.91-5.2-12.76-8.95-17.16c-5.18,1.28-10.7,1.98-16.31,2.05V84z M133.13,59.55
		c-1.6,0.6-3.24,1.14-4.93,1.62c3.62,4.46,6.62,10.18,8.68,16.87c3.59-1.73,6.8-3.8,9.51-6.18
		C142.79,66.89,138.27,62.72,133.13,59.55z M120.28,54.08c2.32,1.42,4.51,3.27,6.54,5.49c1.42-0.38,2.8-0.8,4.15-1.27
		C127.6,56.46,124.01,55.04,120.28,54.08z M97.47,54.06c-3.76,0.96-7.34,2.39-10.66,4.21c1.34,0.46,2.7,0.89,4.1,1.26
		C92.93,57.32,95.13,55.48,97.47,54.06z M80.93,78.03c2.03-6.66,4.99-12.4,8.63-16.88c-1.68-0.47-3.31-1.01-4.9-1.61
		c-5.17,3.21-9.66,7.41-13.21,12.33C74.15,74.24,77.35,76.3,80.93,78.03z M107.96,84V63.75c-5.59-0.07-11.09-0.77-16.25-2.04
		c-3.8,4.45-6.9,10.33-8.99,17.15C90.07,82.06,98.82,83.88,107.96,84z"/>
</g>
</svg>
