<?xml version="1.0" encoding="utf-8"?>
<!-- Generator: Adobe Illustrator 27.8.1, SVG Export Plug-In . SVG Version: 6.00 Build 0)  -->
<svg version="1.1" xmlns="http://www.w3.org/2000/svg" xmlns:xlink="http://www.w3.org/1999/xlink" x="0px" y="0px"
	 viewBox="0 0 350 230" style="enable-background:new 0 0 350 230;" xml:space="preserve">
<style type="text/css">
	.st0{fill-rule:evenodd;clip-rule:evenodd;fill:#A6D63C;}
	.st1{fill-rule:evenodd;clip-rule:evenodd;fill:#00A0D1;}
	.st2{fill:#421C00;}
	.st3{fill-rule:evenodd;clip-rule:evenodd;fill:#FFFFFF;}
	.st4{fill:#699AE2;}
	.st5{fill:#3B7DC4;}
	.st6{fill:#AF7500;}
	.st7{fill:#FFDF00;}
	.st8{fill:#1A0256;}
	.st9{fill:#00594F;}
	.st10{fill:#00779B;}
	.st11{fill:#0074FF;}
	.st12{fill:#194A91;}
	.st13{fill-rule:evenodd;clip-rule:evenodd;fill:#EFEFEF;}
	.st14{fill:#044159;}
	.st15{fill:#4C2900;}
	.st16{fill:#FFFFFF;}
	.st17{fill:#FFB41F;}
	.st18{fill:#FF5A00;}
	.st19{fill:#680404;}
	.st20{fill:#03AA6F;}
	.st21{fill:#FB5968;}
	.st22{fill:#FFD24A;}
	.st23{fill:#055EBC;}
	.st24{fill:#6F6F6F;}
	.st25{fill:#454545;}
	.st26{fill:#BA1A00;}
	.st27{fill:#0071BC;}
	.st28{fill:none;stroke:#FFFFFF;stroke-width:2;stroke-miterlimit:10;}
	.st29{fill:#3D3600;}
	.st30{fill:#5B4E03;}
	.st31{fill:#685900;}
	.st32{fill:none;stroke:#2E8EFF;stroke-width:2;stroke-linecap:round;stroke-miterlimit:10;}
	.st33{fill:none;stroke:#3D3600;stroke-width:2;stroke-linecap:round;stroke-miterlimit:10;}
	.st34{fill:#6F0393;}
	.st35{fill:none;}
	.st36{fill:#96D7FF;}
	.st37{fill:#0C5100;}
	.st38{fill:#FFE856;}
	.st39{fill:#803971;}
	.st40{fill:#D3CECD;}
	.st41{fill:#4C241D;}
	.st42{fill:#EA3200;stroke:#4C241D;stroke-linecap:round;stroke-linejoin:round;stroke-miterlimit:50;}
	.st43{fill:#11930A;stroke:#4C241D;stroke-linecap:round;stroke-linejoin:round;stroke-miterlimit:50;}
	.st44{fill:#3792CF;}
	.st45{fill:#FEE36F;}
	.st46{fill:#136296;}
	.st47{fill:#53C2BA;}
	.st48{fill:#6D6D00;}
	.st49{fill:#001087;}
	.st50{fill:#F19333;}
	.st51{fill:#1554A1;}
	.st52{fill:#8E0000;}
	.st53{fill:#C46B02;}
	.st54{fill:#FFD662;}
	.st55{fill:#01539D;}
	.st56{fill:#007777;}
	.st57{fill:#3CAF47;}
	.st58{fill:#31575B;}
	.st59{fill:#7BBBFF;}
	.st60{fill:#513800;}
	.st61{fill:#009D5A;}
	.st62{fill:#C9A37C;}
	.st63{fill:#DB504A;}
	.st64{fill:#084C61;}
	.st65{opacity:0.3;fill:#BCBEC0;enable-background:new    ;}
	.st66{fill:#069A8E;}
	.st67{fill:#0A4D68;}
	.st68{fill:#190707;}
	.st69{fill:#39B54A;}
	.st70{fill:#01A9DB;}
	.st71{fill:#DF7401;}
	.st72{fill:#0F0F4F;}
	.st73{fill:#232365;}
	.st74{fill:#2169AA;}
	.st75{fill:#00828C;}
	.st76{fill:#00A4BA;}
	.st77{fill:#007CC1;}
	.st78{fill:#FF0000;}
	.st79{fill:#313341;}
	.st80{fill:#C9C9C9;}
	.st81{fill:#0C3F00;}
	.st82{fill:#00153A;}
	.st83{fill:#056168;}
	.st84{fill:#08E8FF;}
	.st85{fill:#00B7FF;}
	.st86{fill:#590060;}
	.st87{fill:#FF78DC;}
</style>
<g id="Layer_1">
</g>
<g id="Layer_2">
</g>
<g id="Layer_3">
</g>
<g id="Layer_4">
</g>
<g id="Layer_5">
</g>
<g id="Layer_6">
</g>
<g id="Layer_7">
</g>
<g id="Layer_8">
</g>
<g id="Layer_9">
</g>
<g id="Layer_10">
</g>
<g id="Layer_11">
</g>
<g id="Layer_12">
</g>
<g id="Layer_13">
</g>
<g id="Layer_14">
</g>
<g id="Layer_15">
	<g>
		<g>
			<path class="st77" d="M156.76,125.37c5.92-3.12,13.89-6.74,23.65-9.89v61.85c0-6.48-5.3-11.73-11.83-11.73
				c-6.53,0-11.82,5.25-11.82,11.73V125.37z M163.36,100.63c-10.48,4.77-20.87,10.16-25.57,13.19h18.98l20,0.03h3.65v-0.03h34.64
				V94.09h-20.8C183.61,94.09,173.04,96.22,163.36,100.63z"/>
			<path class="st52" d="M168.58,169.94c-2.77,0-5.01,2.22-5.01,4.97c0,2.74,2.24,4.97,5.01,4.97c2.77,0,5.01-2.22,5.01-4.97
				S171.35,169.94,168.58,169.94z M123.93,98.73v0.01c0.02,0,0.04,0.01,0.04,0.01C123.96,98.74,123.95,98.74,123.93,98.73z
				 M123.93,98.73v0.01c0.02,0,0.04,0.01,0.04,0.01C123.96,98.74,123.95,98.74,123.93,98.73z M116.31,107.04
				C116.34,107.08,117.12,107.12,116.31,107.04L116.31,107.04z M156.76,177.33v19.37h11.82
				C168.58,196.7,156.76,183.81,156.76,177.33z M168.58,196.7h11.83v-19.37C180.41,183.81,168.58,196.7,168.58,196.7z M182.57,87.86
				c0,0-0.37-0.99-2.92-0.32l-1.8,0.9l-0.1-0.77l1.02-0.49c-1.9-0.4-5.23,0.66-8.1,1.7c-2.4,0.38-5.73,2.05-8.23,3.3
				c-2.09,0.89-4.53,1.93-6.99,3l-15.03,1.69l-1.81,1.05l6.86,1.6c-2.98,1.3-5.01,2.19-5.01,2.19s-5.17,0.59-6.1,0.52
				c-0.93-0.07-9.6-5.34-10.29-5.23c-0.68,0.1-2.03,0.94-2.03,0.94l6.74,9.18l-2.92,0.02c-3-1.25-6.83-2.95-7.25-2.84
				c-0.67,0.17-1.92,1.15-1.92,1.15l7.66,8.43l-5.73,0.64l-1.22,0.82l7.73,0.47l0.11,0c0.76-0.08,2.55-0.4,4.65-0.88
				c2.88-0.66,6.36-1.63,8.61-2.72c2.3-1.12,12.28-6.36,20.69-10.92c1.98-1.07,3.87-2.11,5.56-3.05c2.72-1.13,5.29-2.21,7.42-3.12
				c2.64-1.15,4.6-2.04,5.34-2.47C180.76,90.74,183.33,89.22,182.57,87.86z M129.67,109.16L129.67,109.16c0.01,0,0.02,0,0.03,0
				C129.69,109.16,129.68,109.16,129.67,109.16z"/>
		</g>
	</g>
</g>
</svg>
