<?xml version="1.0" encoding="utf-8"?>
<!-- Generator: Adobe Illustrator 27.8.1, SVG Export Plug-In . SVG Version: 6.00 Build 0)  -->
<svg version="1.1" xmlns="http://www.w3.org/2000/svg" xmlns:xlink="http://www.w3.org/1999/xlink" x="0px" y="0px"
	 viewBox="0 0 350 230" style="enable-background:new 0 0 350 230;" xml:space="preserve">
<style type="text/css">
	.st0{fill-rule:evenodd;clip-rule:evenodd;fill:#A6D63C;}
	.st1{fill-rule:evenodd;clip-rule:evenodd;fill:#00A0D1;}
	.st2{fill:#421C00;}
	.st3{fill-rule:evenodd;clip-rule:evenodd;fill:#FFFFFF;}
	.st4{fill:#699AE2;}
	.st5{fill:#3B7DC4;}
	.st6{fill:#AF7500;}
	.st7{fill:#FFDF00;}
	.st8{fill:#1A0256;}
	.st9{fill:#00594F;}
	.st10{fill:#00779B;}
	.st11{fill:#0074FF;}
	.st12{fill:#194A91;}
	.st13{fill-rule:evenodd;clip-rule:evenodd;fill:#EFEFEF;}
	.st14{fill:#044159;}
	.st15{fill:#4C2900;}
	.st16{fill:#FFFFFF;}
	.st17{fill:#FFB41F;}
	.st18{fill:#FF5A00;}
	.st19{fill:#680404;}
	.st20{fill:#03AA6F;}
	.st21{fill:#FB5968;}
	.st22{fill:#FFD24A;}
	.st23{fill:#055EBC;}
	.st24{fill:#6F6F6F;}
	.st25{fill:#454545;}
	.st26{fill:#BA1A00;}
	.st27{fill:#0071BC;}
	.st28{fill:none;stroke:#FFFFFF;stroke-width:2;stroke-miterlimit:10;}
	.st29{fill:#3D3600;}
	.st30{fill:#5B4E03;}
	.st31{fill:#685900;}
	.st32{fill:none;stroke:#2E8EFF;stroke-width:2;stroke-linecap:round;stroke-miterlimit:10;}
	.st33{fill:none;stroke:#3D3600;stroke-width:2;stroke-linecap:round;stroke-miterlimit:10;}
	.st34{fill:#6F0393;}
	.st35{fill:none;}
	.st36{fill:#96D7FF;}
	.st37{fill:#0C5100;}
	.st38{fill:#FFE856;}
	.st39{fill:#803971;}
	.st40{fill:#D3CECD;}
	.st41{fill:#4C241D;}
	.st42{fill:#EA3200;stroke:#4C241D;stroke-linecap:round;stroke-linejoin:round;stroke-miterlimit:50;}
	.st43{fill:#11930A;stroke:#4C241D;stroke-linecap:round;stroke-linejoin:round;stroke-miterlimit:50;}
	.st44{fill:#3792CF;}
	.st45{fill:#FEE36F;}
	.st46{fill:#136296;}
	.st47{fill:#53C2BA;}
	.st48{fill:#6D6D00;}
	.st49{fill:#001087;}
	.st50{fill:#F19333;}
	.st51{fill:#1554A1;}
	.st52{fill:#8E0000;}
	.st53{fill:#C46B02;}
	.st54{fill:#FFD662;}
	.st55{fill:#01539D;}
	.st56{fill:#007777;}
	.st57{fill:#3CAF47;}
	.st58{fill:#31575B;}
	.st59{fill:#7BBBFF;}
	.st60{fill:#513800;}
	.st61{fill:#009D5A;}
	.st62{fill:#C9A37C;}
	.st63{fill:#DB504A;}
	.st64{fill:#084C61;}
	.st65{opacity:0.3;fill:#BCBEC0;enable-background:new    ;}
	.st66{fill:#069A8E;}
	.st67{fill:#0A4D68;}
	.st68{fill:#190707;}
	.st69{fill:#39B54A;}
	.st70{fill:#01A9DB;}
	.st71{fill:#DF7401;}
	.st72{fill:#0F0F4F;}
	.st73{fill:#232365;}
	.st74{fill:#2169AA;}
	.st75{fill:#00828C;}
	.st76{fill:#00A4BA;}
	.st77{fill:#007CC1;}
	.st78{fill:#FF0000;}
	.st79{fill:#313341;}
	.st80{fill:#C9C9C9;}
	.st81{fill:#0C3F00;}
	.st82{fill:#00153A;}
	.st83{fill:#056168;}
	.st84{fill:#08E8FF;}
	.st85{fill:#00B7FF;}
	.st86{fill:#590060;}
	.st87{fill:#FF78DC;}
</style>
<g id="Layer_1">
</g>
<g id="Layer_2">
</g>
<g id="Layer_3">
</g>
<g id="Layer_4">
</g>
<g id="Layer_5">
</g>
<g id="Layer_6">
</g>
<g id="Layer_7">
</g>
<g id="Layer_8">
</g>
<g id="Layer_9">
</g>
<g id="Layer_10">
</g>
<g id="Layer_11">
</g>
<g id="Layer_12">
</g>
<g id="Layer_13">
</g>
<g id="Layer_14">
</g>
<g id="Layer_15">
	<g>
		<path class="st86" d="M211.11,35.41h-72.62c-6.96,0-12.59,5.64-12.59,12.59v52.2c0.06,11.69,14.38,17.35,22.58,9.04l3.33-3.37
			l7.86-7.96l5.68-5.74l8.87-8.98l1.38-1.41l0.67-0.67l0.41-0.42l0.84-0.85l-5.64-3.47l-0.68-0.42l-1.32-0.8l-3.85-2.37l-1.65-1.02
			l-1.34-0.82l-3.08-1.9l-1.89-1.16l3.12-3.13l1.77-1.77l6.17,2.05l6.03,1.99l5.63,1.87l0.99,0.32l4.51,1.49l9.44-9.83
			c0.55-0.58,1.23-1,1.96-1.23c0.17-0.06,0.34-0.12,0.52-0.15c1.13-0.25,2.35-0.07,3.35,0.6c2.48,1.67,2.69,5.07,0.65,7.02
			l-9.96,9.56l5.57,16.85l2.15,6.48l-4.89,4.89L187.4,92.4l-4.3-6.99l-9.96,10.35l-14.48,15.03c-1.6,1.66-2.88,3.46-3.85,5.34
			c-0.59,1.11-1.06,2.24-1.43,3.39c-4.4,13.54,5.12,29.36,21.18,29.5H175c13.57,0,25.84-5.49,34.72-14.38
			c8.88-8.88,14.38-21.16,14.38-34.72V48.42C224.1,41.24,218.29,35.41,211.11,35.41z"/>
		<path class="st87" d="M169.88,75.13c0.02,0.07,0.02,0.16,0.01,0.23c-0.06,0.45-1.42,1.47-0.36,1.59c0.64,0.06,1.61-0.33,1.67-1.02
			L169.88,75.13z M188.08,102.62c-0.05-0.27-0.29-0.5-0.55-0.43c-0.2,0.06-0.32,0.26-0.39,0.45c-0.07,0.19-0.13,0.41-0.28,0.55
			c-0.24,0.22-0.65,0.21-0.87,0.45c-0.22,0.23-0.18,0.57-0.23,0.87c-0.06,0.26-0.17,0.44-0.34,0.63c-0.35,0.35-0.43,0.83-0.02,1.22
			c0.3,0.28,0.8,0.32,1.14,0.09c0.37-0.25,0.52-0.72,0.57-1.16c0.06-0.44,0.07-0.9,0.28-1.3c0.13-0.23,0.31-0.42,0.46-0.64
			C188,103.13,188.12,102.86,188.08,102.62z M211.27,95.54c-0.08-0.26-0.43-0.33-0.68-0.22c-0.25,0.11-0.42,0.33-0.63,0.53
			c-0.4,0.39-0.88,0.6-1.4,0.74c-0.4,0.11-0.7,0.23-0.76,0.68c-0.13,1.07,1,1.56,1.85,1.63c0.21,0.02,0.49,0.01,0.58-0.18
			c0.11-0.21-0.08-0.49,0.01-0.71c0.12-0.31,0.65-0.27,0.78-0.58c0.11-0.26-0.16-0.53-0.16-0.8
			C210.88,96.22,211.4,95.92,211.27,95.54z M206.33,98.24c-0.55-0.57-1.11-1.14-1.66-1.71c-0.16-0.17-0.31-0.32-0.53-0.41
			c-0.2-0.09-0.46-0.08-0.63,0.07c-0.23,0.23-0.12,0.65,0.12,0.88c0.23,0.23,0.55,0.36,0.81,0.56c0.34,0.29,0.53,0.69,0.74,1.08
			c0.21,0.39,0.45,0.78,0.83,1c0.31,0.18,1.02,0.23,1.15-0.22C207.28,99.06,206.59,98.5,206.33,98.24z M216.63,80.87
			c-0.01-0.2-0.06-0.45-0.26-0.49c-0.13-0.04-0.26,0.05-0.33,0.16c-0.07,0.1-0.1,0.23-0.13,0.36c-0.26,1.03-0.89,1.96-1.75,2.59
			c-0.2,0.15-0.42,0.28-0.6,0.44c-0.18,0.18-0.32,0.4-0.34,0.65c-0.03,0.53,0.64,0.84,0.86,0.29c0.09-0.24,0.06-0.41,0.24-0.63
			c0.21-0.25,0.47-0.47,0.74-0.65c0.45-0.29,0.98-0.48,1.29-0.9C216.71,82.18,216.68,81.49,216.63,80.87z M216.27,75.99
			c-0.13-0.34-0.23-0.7-0.29-1.06c-0.07-0.45-0.08-0.92-0.18-1.36c-0.09-0.45-0.28-0.9-0.62-1.21c-0.16-0.15-0.42-0.24-0.57-0.09
			c-0.1,0.1-0.09,0.28-0.03,0.41c0.06,0.14,0.18,0.24,0.27,0.35c0.31,0.37,0.42,0.88,0.47,1.35c0.06,0.48,0.05,0.98,0.18,1.45
			c0.09,0.32,0.26,0.66,0.52,0.88c0.1,0.08,0.48,0.33,0.61,0.16C216.72,76.73,216.33,76.15,216.27,75.99z M186.81,58.49
			c-0.12,0.01-0.22,0.11-0.31,0.19c-0.59,0.61-1.17,1.21-1.76,1.82c-0.29,0.29-0.59,0.65-0.49,1.04c0.15,0.62,0.86,0.46,1.04-0.02
			c0.22-0.59,0.46-0.91,0.98-1.29c0.41-0.32,0.88-0.7,0.91-1.23C187.2,58.77,187.05,58.47,186.81,58.49z M185.38,63.91
			c-0.09-0.19-0.12-0.37-0.17-0.57c-0.11-0.39-0.53-1-1-0.62c-0.11,0.1-0.18,0.26-0.18,0.41c-0.01,0.16,0.04,0.3,0.1,0.44
			c0.19,0.46,0.56,0.84,1,1.05c0.14,0.06,0.31,0.1,0.41,0C185.78,64.41,185.47,64.09,185.38,63.91z M168.3,75
			c-0.19,0.09-0.34,0.29-0.41,0.5c-0.07,0.21-0.07,0.44-0.04,0.66c0.01,0.1,0.04,0.2,0.08,0.29c0.06,0.08,0.14,0.16,0.24,0.17
			c0.18,0.03,0.32-0.12,0.43-0.25c0.16-0.19,0.32-0.38,0.41-0.61C169.2,75.24,168.86,74.72,168.3,75z M173.92,83.01
			c-0.56-0.23-1.22-0.11-1.8,0.07c-0.57,0.19-1.12,0.46-1.72,0.55c-0.25,0.04-0.51,0.04-0.75,0.11c-0.25,0.07-0.48,0.23-0.57,0.46
			c-0.43,1.16-1.57,2.01-2.3,3c-0.49,0.66-0.98,1.34-1.25,2.11c-0.15,0.39-0.13,0.81-0.16,1.23c-0.03,0.27-0.05,0.54-0.07,0.82
			c-0.01,0.17-0.02,0.33-0.01,0.51c0.01,0.09,0.03,0.18,0.06,0.28l8.87-8.98C174.12,83.12,174.02,83.05,173.92,83.01z M175.42,79.61
			c0.13,0.03,0.24,0.12,0.35,0.2c0.32,0.27,0.63,0.55,0.9,0.87l0.84-0.85l-5.64-3.47c-0.18,0.19-0.32,0.41-0.41,0.65
			c-0.09,0.23-0.36,0.35-0.6,0.43c-0.27,0.1-0.53,0.19-0.79,0.29c-0.23,0.09-0.5,0.21-0.54,0.45c-0.05,0.22,0.12,0.42,0.29,0.56
			c0.17,0.15,0.37,0.27,0.46,0.47c0.07,0.17,0.06,0.37-0.05,0.52c-0.1,0.15-0.29,0.24-0.46,0.24c-0.36,0-0.73,0.01-1.06,0.16
			c-0.43,0.19-0.64,0.64-0.76,1.1c-0.17,0.56,0.04,1.23,0.5,1.59c0.46,0.37,1.14,0.43,1.66,0.16c1-0.53,1.16-1.99,2.12-2.56
			c0.5-0.29,1.11-0.29,1.68-0.29c0.82,0.02,1.38,0.84,1.69,1.66l0.67-0.67c-0.06-0.04-0.13-0.07-0.19-0.11
			c-0.35-0.2-0.66-0.49-0.89-0.83c-0.09-0.13-0.18-0.29-0.1-0.42C175.14,79.62,175.29,79.58,175.42,79.61z M181.76,66.91
			c-0.13-0.25-0.28-0.46-0.56-0.53c-0.72-0.15-1.51-0.33-1.97-0.91c-0.17-0.2-0.29-0.45-0.52-0.58c-0.22-0.13-0.5-0.12-0.74-0.04
			c-0.25,0.08-0.42,0.3-0.66,0.39c-0.89,0.32-1.56,1-2.14,1.75l5.63,1.87c-0.13-0.2-0.26-0.4-0.38-0.6
			c-0.06-0.08-0.11-0.18-0.1-0.28c0-0.17,0.16-0.29,0.31-0.32c0.16-0.03,0.32,0.01,0.49,0.04c0.16,0.03,0.33,0.04,0.48-0.04
			C181.85,67.53,181.89,67.17,181.76,66.91z M187.77,93.55c-0.23-0.29-0.66-0.41-1.02-0.48c-0.37-0.07-0.75-0.1-1.07-0.27
			c-0.29-0.16-0.52-0.42-0.63-0.73c-0.07-0.22-0.33-0.3-0.49-0.48c-0.18-0.18-0.3-0.41-0.42-0.63c-0.21-0.39-0.42-0.77-0.63-1.16
			c-0.44-0.8-0.81-1.7-1.24-2.51c-0.07-0.12-0.14-0.26-0.15-0.4c0-0.15,0.08-0.3,0.22-0.34c0.17-0.04,0.31,0.1,0.42,0.24
			c0.91,1.1,1.68,2.32,2.25,3.63c0.2,0.46,0.29,0.99,0.59,1.39c0.3,0.41,0.77,0.73,1.28,0.71c0.18-0.01,0.35-0.06,0.52-0.13
			l-4.3-6.99l-9.96,10.35c0.03,0.02,0.06,0.03,0.08,0.05c0.18,0.09,0.36,0.17,0.52,0.29c0.22,0.18,0.46,0.41,0.46,0.69
			c-0.01,0.23-0.17,0.42-0.25,0.64c-0.13,0.37,0.03,0.81,0.35,1.02c1,0.63,1.35,2.14,0.95,3.24c-0.15,0.41-0.39,0.77-0.5,1.19
			c-0.1,0.42-0.03,0.93,0.33,1.16c0.48,0.31,0.58,0.95,0.68,1.51c0.08,0.46,0.06,0.93,0.11,1.39c0.06,0.47,0.22,0.95,0.6,1.23
			c0.55,0.41,0,1.47,0.42,2.01c0.26,0.33,0.72,0.42,1.14,0.41c0.98-0.01,1.94-0.42,2.62-1.12c0.34-0.35,0.76-0.68,0.9-1.15
			c0.09-0.3,0.11-0.64,0.29-0.9c0.18-0.26,0.5-0.4,0.75-0.59c0.26-0.2,0.46-0.54,0.32-0.83c-0.27-0.53-0.11-1.23,0.24-1.7
			c0.28-0.39,0.7-0.64,1.04-0.96c0.35-0.33,0.62-0.82,0.46-1.27c-0.34-0.94-0.37-2.01-0.13-2.99c0.23-0.98,0.87-1.88,1.8-2.28
			c0.62-0.27,1.08-0.78,1.43-1.36C188.12,94.87,188.2,94.08,187.77,93.55z M197.37,56.6c-0.14-0.23-0.49-0.29-0.69-0.11
			c-0.1,0.09-0.17,0.24-0.29,0.3c-0.15,0.06-0.32,0.01-0.43-0.1c-0.1-0.12-0.14-0.29-0.22-0.42c-0.16-0.25-0.32-0.52-0.57-0.68
			c-0.25-0.16-0.62-0.19-0.83,0.02c-0.18,0.17-0.21,0.43-0.14,0.66c0.07,0.23,0.25,0.46,0.46,0.56c0.18,0.09,0.26,0.34,0.18,0.53
			c-0.06,0.19-0.24,0.33-0.42,0.42c-0.18,0.08-0.39,0.13-0.58,0.19c-0.52,0.18-0.81,0.67-1.29,0.94c-0.17,0.08-0.29,0.25-0.32,0.43
			c-0.04,0.18,0.01,0.38,0.12,0.53c0.09,0.11,0.22,0.19,0.31,0.3c0.09,0.11,0.15,0.29,0.06,0.41c-0.06,0.08-0.18,0.12-0.29,0.11
			c-0.1,0-0.21-0.06-0.31-0.06c-0.17-0.01-0.32,0.11-0.39,0.27c-0.06,0.15-0.06,0.33,0,0.49c0.06,0.16,0.15,0.25,0.24,0.38
			c0.08,0.12,0.17,0.24,0.2,0.38c0.04,0.14,0.01,0.3-0.1,0.4c-0.13,0.1-0.31,0.08-0.46,0.01c-0.14-0.07-0.26-0.18-0.4-0.27
			c-0.14-0.08-0.32-0.2-0.43-0.08c-0.23,0.25-0.23,0.65-0.12,0.97c0.11,0.33,0.3,0.62,0.41,0.94c0.12,0.32,0.19,0.76-0.07,0.99
			c-0.2,0.17-0.53,0.09-0.72-0.1c-0.18-0.18-0.27-0.45-0.34-0.7c-0.12-0.41-0.25-0.83-0.37-1.24c-0.05-0.15-0.09-0.3-0.18-0.43
			c-0.09-0.12-0.24-0.22-0.39-0.21c-0.28,0.02-0.43,0.34-0.44,0.62c-0.04,0.81,0.67,1.57,0.53,2.36c-0.03,0.17-0.22,0.26-0.39,0.25
			c-0.17-0.02-0.3-0.12-0.43-0.23c-0.13-0.11-0.25-0.23-0.4-0.29c-0.16-0.07-0.35-0.07-0.47,0.04c-0.16,0.14-0.06,0.35-0.06,0.56
			c-0.01,0.17-0.17,0.29-0.32,0.36c-0.16,0.06-0.34,0.07-0.49,0.16c-0.15,0.08-0.26,0.22-0.41,0.28c-0.21,0.08-0.56,0.01-0.57-0.21
			c0-0.18-0.16-0.33-0.32-0.33c-0.21-0.01-0.39,0.17-0.5,0.35c-0.11,0.18-0.18,0.42-0.38,0.53c-0.05,0.13-0.2,0.19-0.34,0.18
			c-0.14,0-0.28-0.05-0.41-0.06c-0.12-0.01-0.26,0.02-0.34,0.11c-0.09,0.09-0.1,0.32-0.01,0.41c0.04,0.1,0.06,0.2,0.06,0.3
			c0,0.1-0.04,0.21-0.12,0.28c-0.15,0.11-0.37,0.06-0.53-0.02c-0.21-0.09-0.46,0.07-0.57,0.28c-0.1,0.21-0.12,0.45-0.19,0.67
			c-0.03,0.07-0.06,0.14-0.1,0.2l4.51,1.49l9.44-9.83c0.55-0.58,1.23-1,1.96-1.23c-0.08-0.08-0.12-0.2-0.11-0.31
			c0.02-0.21,0.15-0.4,0.24-0.58C198.16,58.03,197.75,57.27,197.37,56.6z M223.47,60.22c-0.07-0.09-0.17-0.16-0.23-0.25
			c-0.16-0.2-0.18-0.47-0.19-0.73c-0.01-0.25,0-0.52-0.11-0.75c-0.11-0.23-0.37-0.41-0.61-0.34c-0.37,0.11-0.81,0.14-1.17,0.02
			c-0.56-0.19-0.89-0.81-1.45-1.02c-0.5-0.18-1.02-0.25-1.54-0.36c-0.56-0.13-1.16-0.25-1.72-0.11c-0.56,0.15-1.08,0.65-1.04,1.23
			c0.01,0.09-0.07,0.17-0.15,0.22c-0.07,0.05-0.17,0.06-0.25,0.08c-0.39,0.09-0.76,0.18-1.14,0.27c-0.17,0.04-0.33,0.07-0.5,0.06
			c-0.17,0-0.33-0.06-0.44-0.18c-0.29-0.31-0.72-0.49-1.04-0.76c-0.09-0.06-0.19-0.14-0.3-0.13c-0.08,0.01-0.16,0.07-0.23,0.13
			c-0.33,0.25-0.76,0.36-1.18,0.3c-0.88-0.12-1.79-0.36-2.64-0.62c-0.35-0.1-0.74-0.09-1.08,0.04c-0.07,0.03-0.14,0.06-0.18,0.12
			c-0.05,0.1,0.01,0.21,0.06,0.3c0.13,0.2,0.27,0.48,0.37,0.69c0.04,0.09,0,0.21-0.07,0.29c-0.07,0.07-0.17,0.12-0.27,0.16
			c-0.44,0.19-0.89,0.39-1.35,0.58c-0.23,0.1-0.49,0.2-0.75,0.16c-0.21-0.04-0.39-0.18-0.53-0.35c-0.13-0.17-0.27-0.35-0.36-0.54
			c-0.06-0.15-0.2-0.24-0.36-0.29c-0.15-0.05-0.31-0.06-0.47-0.06c-0.24-0.01-0.53,0-0.76-0.11c-0.09-0.04-0.2,0.04-0.25,0.13
			c-0.05,0.09-0.04,0.2-0.06,0.29c-0.06,0.28-0.29,0.5-0.55,0.6c-0.27,0.09-0.56,0.07-0.83,0c-0.27-0.08-0.58-0.14-0.83-0.28
			c-0.32-0.18-0.78-0.06-0.99,0.25c-0.04,0.06-0.07,0.15-0.11,0.21c1.13-0.25,2.35-0.07,3.35,0.6c2.48,1.67,2.69,5.07,0.65,7.02
			l-9.96,9.56l5.57,16.85c0.04-0.18,0.02-0.36,0.03-0.53c0.04-0.71,0.4-1.4,0.97-1.83c0.38-0.29,0.68-0.67,1.07-0.95
			c0.17-0.13,0.35-0.27,0.41-0.47c0.04-0.17-0.01-0.37,0.09-0.51c0.07-0.1,0.2-0.14,0.32-0.13s0.24,0.06,0.35,0.11
			c0.37,0.16,0.75,0.32,1.02,0.62c0.17,0.18,0.33,0.39,0.38,0.63c0.06,0.25,0.07,0.5,0.17,0.73c0.1,0.23,0.31,0.44,0.56,0.43
			c0.12-0.01,0.23-0.07,0.36-0.06c0.18,0,0.32,0.13,0.41,0.28c0.08,0.16,0.11,0.33,0.13,0.51c0.12,0.85-0.01,1.76,0.34,2.53
			c0.11,0.24,0.26,0.46,0.4,0.67c0.21,0.33,0.43,0.66,0.65,1c0.12,0.18,0.29,0.27,0.51,0.33c0.12,0.05,0.28,0.06,0.37-0.04
			c0.06-0.06,0.07-0.18,0.05-0.26c-0.03-0.09-0.08-0.17-0.15-0.24c-0.19-0.26-0.33-0.54-0.51-0.81c-0.18-0.27-0.36-0.53-0.53-0.8
			c-0.16-0.23-0.31-0.46-0.4-0.73c-0.08-0.26-0.09-0.56,0.05-0.8c0.08-0.14,0.16-0.26,0.31-0.28c0.17-0.02,0.33,0.06,0.42,0.19
			c0.01,0.17,0.22,0.27,0.38,0.31c0.17,0.06,0.35,0.1,0.44,0.25c0.08,0.14,0.06,0.32,0.16,0.45c0.06,0.1,0.21,0.15,0.33,0.11
			c0.11-0.04,0.19-0.17,0.19-0.29c-0.01-0.16,0.16-0.38,0.29-0.47c0.13-0.09,0.28-0.17,0.39-0.28c0.19-0.23,0.19-0.61-0.02-0.82
			c-0.55-0.58-1.09-1.23-1.25-2c-0.04-0.15-0.06-0.29-0.03-0.43c0.04-0.15,0.13-0.28,0.28-0.32c0.35-0.09,0.72-0.11,1.09-0.15
			c0.23-0.02,0.46-0.05,0.68-0.11c0.22-0.07,0.42-0.2,0.56-0.39c0.28-0.4,0.73-0.62,1.13-0.88c0.18-0.13,0.38-0.3,0.37-0.53
			c-0.02-0.25,0.06-0.48,0.2-0.69c0.15-0.2,0.33-0.39,0.44-0.62c0.12-0.22,0.16-0.52,0.01-0.72c-0.14-0.18-0.27-0.38-0.32-0.59
			c-0.04-0.18-0.04-0.36-0.06-0.53c-0.05-0.37-0.23-0.72-0.5-0.97c-0.23-0.21-0.27-0.64-0.06-0.88c0.11-0.13,0.29-0.22,0.33-0.39
			c0.04-0.18-0.12-0.35-0.27-0.44c-0.16-0.1-0.34-0.19-0.41-0.36c-0.11-0.2,0-0.47,0.19-0.6c0.2-0.12,0.45-0.12,0.67-0.04
			c0.37,0.13,0.65,0.43,0.88,0.76c0.28,0.4,0.41,0.88,0.6,1.32c0.05,0.13,0.11,0.26,0.22,0.34c0.19,0.15,0.5,0.06,0.65-0.12
			c0.15-0.19,0.18-0.46,0.13-0.7c-0.06-0.3-0.31-0.59-0.5-0.83c-0.14-0.17-0.28-0.35-0.32-0.56c-0.09-0.36,0.07-0.72,0.23-1.05
			c0.18-0.35,0.35-0.7,0.63-0.98c0.18-0.18,0.41-0.32,0.62-0.5c0.2-0.18,0.38-0.41,0.39-0.67c0.06-1.18,0.53-2.29,0.29-3.44
			c-0.12-0.53-0.37-1.01-0.65-1.47c-0.2-0.33-0.47-0.65-0.83-0.79c-0.06-0.02-0.13-0.04-0.19-0.06c-0.28-0.12-0.48-0.39-0.53-0.68
			c-0.04-0.29,0.08-0.61,0.31-0.79c0.29-0.23,0.32-0.61,0.27-0.96c-0.04-0.19-0.11-0.4-0.06-0.58c0.04-0.17,0.16-0.29,0.29-0.38
			c0.15-0.09,0.3-0.14,0.46-0.18c0.66-0.2,1.38-0.06,2.06-0.24c0.25-0.06,0.51-0.15,0.68-0.35c0.18-0.19,0.21-0.53,0.02-0.7
			c-0.03-0.32-0.05-0.66-0.07-0.99c-0.01-0.14-0.02-0.29,0.02-0.42c0.04-0.13,0.13-0.27,0.27-0.3c0.31-0.1,0.64,0.32,0.95,0.2
			c0.12,0.06,0.23-0.07,0.27-0.21c0.04-0.13,0.06-0.29,0.18-0.35c0.12-0.06,0.28,0.05,0.32,0.18c0.05,0.14,0.02,0.28-0.02,0.41
			l-0.19,0.88c-0.19,0.84-0.39,1.69-0.58,2.53c-0.1,0.47,0.01,0.99,0.29,1.38c0.52,0.74,0.89,1.59,1.31,2.38
			c0.06,0.1,0.11,0.21,0.22,0.25c0.2,0.07,0.4-0.16,0.4-0.37c0.01-0.22-0.1-0.41-0.13-0.63c-0.08-0.51,0.27-0.98,0.41-1.47
			c0.22-0.73,0-1.53-0.41-2.17c-0.26-0.39-0.65-0.68-0.71-1.14c-0.06-0.47,0.17-0.99,0.6-1.16c0.18-0.06,0.37-0.08,0.55-0.1
			c0.18-0.03,0.38-0.06,0.53-0.18c0.15-0.11,0.24-0.32,0.18-0.5c-0.13-0.3,0.03-0.65,0.22-0.93c0.18-0.29,0.41-0.56,0.41-0.9
			c0-0.18-0.05-0.37,0.06-0.5c0.06-0.06,0.15-0.09,0.21-0.15c0.18-0.15,0.13-0.5-0.08-0.59c-0.26-0.1-0.5-0.31-0.58-0.58
			c-0.07-0.26-0.04-0.53,0-0.81c0.04-0.25,0.07-0.51,0.2-0.72c0.14-0.21,0.39-0.37,0.64-0.31c0.24,0.06,0.5,0.09,0.67,0.28
			c0.11,0.11,0.18,0.25,0.28,0.37c0.09,0.12,0.21,0.23,0.36,0.27c0.16,0.03,0.33-0.05,0.38-0.19
			C223.59,60.43,223.54,60.31,223.47,60.22z M164.37,71.74c0.09,0.18,0.25,0.3,0.4,0.42c0.29,0.26,0.86,0.92,1.25,0.6L164.37,71.74z
			 M172.17,55.26c-0.16-0.18-0.45-0.18-0.68-0.12c-0.24,0.06-0.47,0.18-0.72,0.18c-0.24,0.01-0.53-0.15-0.53-0.39
			c-0.01-0.25,0.25-0.41,0.43-0.58c0.19-0.16,0.34-0.48,0.14-0.64c-1-0.76-2.33-1.09-3.51-0.69c-0.75,0.25-1.44,0.75-2.22,0.71
			c-0.43-0.02-0.84-0.19-1.27-0.25c-0.42-0.05-0.94,0.08-1.11,0.48c-0.86,0.58-1.73,1.38-2.59,1.95c-0.55,0.38-1.15,0.81-1.33,1.47
			c-0.13,0.48,0.02,1.01,0.37,1.36c0.23,0.24,0.54,0.38,0.83,0.57c0.28,0.18,0.53,0.45,0.57,0.79c0.08,0.86,0.48,1.69,0.62,2.54
			c0.1,0.6,0.15,1.21,0.07,1.82c-0.01,0.08-0.02,0.18-0.05,0.26l1.77-1.77l6.17,2.05c0-0.12-0.03-0.23-0.08-0.34
			c-0.18-0.41-0.64-0.8-0.45-1.22c0.14-0.29,0.53-0.35,0.83-0.47c0.7-0.27,1.15-1.09,1-1.82c-0.36-1.68,0.22-3.5,1.38-4.76
			c0.15-0.17,0.31-0.32,0.41-0.52C172.31,55.68,172.32,55.42,172.17,55.26z M159.96,69.02c0.15,0.19,0.32,0.38,0.38,0.61
			c0.03,0.15,0,0.3,0,0.45c-0.01,0.15,0.01,0.31,0.11,0.42c0.09,0.11,0.48,0.14,0.61,0.06c0.29-0.17,0.63,0.12,0.82,0.38
			c0.2,0.27,0.48,0.58,0.8,0.48c0.21-0.07,0.3-0.28,0.36-0.51L159.96,69.02z M147.94,90.08c-0.2-0.23-0.69-0.16-0.97-0.16
			c-0.14-0.01-0.31,0.01-0.39,0.13c-0.06,0.09-0.03,0.23,0.05,0.31c0.08,0.08,0.19,0.13,0.3,0.16c0.22,0.06,0.46,0.07,0.68,0.04
			C147.85,90.52,148.16,90.32,147.94,90.08z M145.77,89.29c-0.21-0.19-0.54-0.36-0.66-0.41c-0.01,0-0.01-0.01-0.02-0.01
			c-0.49-0.22-1.02-0.35-1.56-0.35c-0.12,0-0.28,0.04-0.28,0.16c0,0.08,0.09,0.14,0.17,0.18c0.26,0.13,0.53,0.25,0.78,0.38
			c0.11,0.06,0.22,0.11,0.34,0.16c0.26,0.13,0.53,0.24,0.79,0.33c0.06,0.02,0.13,0.04,0.19,0.05c0.07,0.01,0.15,0.01,0.22-0.01
			C146.07,89.65,145.98,89.46,145.77,89.29z M141.45,56.71c-0.46-0.4-1.15,0.01-1.53,0.32c-0.52,0.43-0.9,1.01-1.09,1.66
			c-0.05,0.16-0.08,0.33-0.05,0.49c0.04,0.17,0.17,0.31,0.33,0.33c0.14,0.02,0.27-0.06,0.36-0.17c0.09-0.1,0.16-0.23,0.22-0.35
			c0.22-0.36,0.55-0.65,0.94-0.81c0.31-0.13,0.67-0.2,0.88-0.45C141.77,57.45,141.73,56.96,141.45,56.71z M144.39,59.5
			c-0.05-0.12-0.15-0.24-0.28-0.26c-0.24-0.03-0.4,0.23-0.55,0.42c-0.13,0.16-0.44,0.46-0.66,0.39c-0.24-0.08-0.53-0.52-0.71-0.7
			c-0.2-0.2-0.41-0.41-0.66-0.51c-0.39-0.15-0.86-0.04-1.13,0.27c-0.2,0.23-0.29,0.54-0.25,0.85c0.05,0.29,0.24,0.57,0.5,0.72
			c0.1,0.06,0.22,0.1,0.3,0.18c0.08,0.08,0.14,0.21,0.07,0.31c-0.07,0.12-0.26,0.11-0.39,0.06c-0.13-0.06-0.27-0.14-0.41-0.1
			c-0.16,0.03-0.25,0.18-0.26,0.34c-0.02,0.16,0.04,0.3,0.09,0.45c0.1,0.28,0.23,0.6,0.52,0.69c0.41,0.14,0.84-0.28,1.26-0.19
			c0.21,0.05,0.38,0.2,0.53,0.36c0.15,0.17,0.29,0.33,0.5,0.41c0.17,0.06,0.39,0.04,0.51-0.1c0.02-0.02,0.04-0.05,0.05-0.08
			c0.03-0.06,0.03-0.14,0.02-0.21c-0.01-0.12-0.06-0.25-0.04-0.37c0.02-0.16,0.12-0.27,0.23-0.37c0.08-0.07,0.17-0.14,0.24-0.21
			c0.51-0.48,0.55-1.25,0.57-1.95C144.44,59.76,144.44,59.62,144.39,59.5z M158.76,97.71c-0.29-0.07-0.66-0.19-0.72-0.5
			c-0.04-0.18,0.06-0.35,0.1-0.53c0.04-0.18,0-0.41-0.18-0.47c-0.18-0.5-0.72-0.8-1.2-1.01c-0.49-0.22-1.01-0.35-1.47-0.63
			c-0.41-0.26-0.74-0.64-0.95-1.07c-0.32-0.67-1.45-0.65-2.18-0.57c-0.31,0.04-0.61,0.11-0.91,0.19c-0.58,0.16-1.17,0.31-1.76,0.47
			c-0.06,0.02-0.12,0.03-0.18,0.05c0,0,0,0-0.01,0c-0.01,0-0.01,0-0.02,0c-0.06,0.02-0.1,0.03-0.16,0.04
			c-0.66,0.11-1.13-0.16-1.23-0.19c-0.18-0.07-0.36-0.2-0.48-0.32c-0.2-0.21-0.29-0.51-0.31-0.8c-0.02-0.29-0.03-0.58,0-0.87
			c0.02-0.24-0.22-0.43-0.45-0.48c-0.24-0.05-0.49,0.01-0.73-0.01c-0.24-0.02-0.51-0.13-0.57-0.36c-0.05-0.14-0.01-0.29,0.04-0.43
			c0.05-0.15,0.08-0.31,0.14-0.46c0.06-0.18,0.13-0.35,0.24-0.47c0.04-0.04,0.07-0.06,0.11-0.09c0.18-0.13,0.4-0.3,0.34-0.52
			c-0.03-0.13-0.16-0.21-0.29-0.23c-0.13-0.02-0.26,0.03-0.37,0.08c-0.17,0.08-0.32,0.2-0.46,0.34c-0.19,0.17-0.37,0.36-0.56,0.51
			c-0.18,0.15-0.38,0.26-0.61,0.29c-0.56,0.08-1.09-0.38-1.27-0.91c-0.18-0.53-0.15-1.14-0.12-1.71c0.02-0.6,0.47-1.16,1.05-1.32
			c0.29-0.07,0.59-0.06,0.88-0.08c0.29-0.02,0.54-0.2,0.82-0.3c0.39-0.14,0.86-0.08,1.2,0.16c0.54,0.37,0.73,1.07,1.11,1.6
			c0.1,0.15,0.26,0.29,0.43,0.25c0.13-0.04,0.2-0.18,0.21-0.31c0-0.14,0.02-0.32,0.01-0.45c-0.02-0.37-0.04-0.73,0.01-1.09
			c0.06-0.36,0.18-0.72,0.43-0.99c0.4-0.43,1.09-0.56,1.23-1.12c0.11-0.46,0.48-0.8,0.87-1.07c0.39-0.26,0.81-0.48,1.13-0.81
			c0.28-0.28,0.43-0.65,0.61-0.99c0.25-0.48,0.73-0.82,1.25-0.89c0.37-0.06,0.82-0.02,1.05-0.31c0.18-0.23,0.13-0.57-0.02-0.83
			c-0.16-0.25-0.39-0.44-0.58-0.66c-0.18-0.22-0.35-0.5-0.31-0.78c0.05-0.29,0.27-0.53,0.53-0.65c0.26-0.12,0.55-0.15,0.85-0.15
			c0.52-0.01,1.05,0.03,1.55-0.14c0.5-0.16,0.95-0.6,0.93-1.12c-0.03-0.49-0.44-0.86-0.79-1.2c-0.15-0.15-0.29-0.33-0.39-0.53
			c-0.01-0.01-0.01-0.02-0.02-0.02c-0.01-0.03-0.01-0.05-0.03-0.06c0-0.02-0.01-0.04-0.02-0.06c-0.26-0.58-0.16-1.09-0.15-1.23
			c0.02-0.18,0.01-0.4-0.15-0.51c-0.18-0.12-0.43,0-0.59,0.15c-0.17,0.15-0.34,0.33-0.56,0.33c-0.27,0-0.45-0.29-0.48-0.57
			c-0.03-0.27,0.06-0.54,0.04-0.82c-0.03-0.48-0.47-0.77-0.84-1.09c-0.27-0.22-0.66-0.32-0.97-0.16c-0.21,0.12-0.35,0.35-0.47,0.56
			c-0.25,0.43-0.5,0.88-0.53,1.38c-0.03,0.36,0.06,0.72,0.02,1.08c-0.02,0.18-0.08,0.4-0.18,0.57c-0.01,0-0.01,0-0.01,0
			c-0.16,0.26-0.41,0.7-0.42,0.91c-0.03,0.32-0.09,0.65-0.2,0.96c-0.06,0.14-0.12,0.29-0.25,0.35c-0.18,0.09-0.41-0.03-0.53-0.2
			c-0.1-0.18-0.12-0.39-0.15-0.59c-0.21-1.41-1.18-2.73-2.45-3.36c-0.5-0.26-0.64-0.95-0.43-1.47c0.2-0.53,0.65-0.9,1.1-1.25
			c0.84-0.66,1.72-1.2,2.59-1.83c0.35-0.26,0.69-0.51,1.04-0.76c0.31-0.23,0.65-0.48,0.77-0.85c0.06-0.2,0.06-0.41,0.11-0.61
			c0.04-0.2,0.13-0.41,0.31-0.51c0.31-0.17,0.67,0.08,0.91,0.33c0.36,0.38,0.58,0.83,0.84,1.27c0,0,0,0,0,0.01
			c0.36,0.62,0.06,1.07-0.25,1.23c-0.41,0.23-0.84,0.45-1.26,0.68c-0.17,0.09-0.36,0.25-0.3,0.43c0.06,0.19,0.32,0.19,0.53,0.22
			c0.35,0.06,0.65,0.29,0.86,0.58c0.21,0.29,0.47,0.6,0.55,0.94c0.06,0.29,0.4,0.46,0.68,0.41c0.29-0.06,0.52-0.29,0.61-0.57
			c0.08-0.29,0.05-0.59-0.06-0.87c-0.1-0.27-0.09-0.62-0.31-0.81c-0.13-0.11-0.07-0.37,0.09-0.41c0.13-0.04,0.27,0.05,0.36,0.14
			c0.08,0.1,0.16,0.22,0.25,0.31c0.17,0.15,0.42,0.18,0.65,0.1c0.11-0.05,0.32-0.2,0.19-0.63c-0.16-0.49-0.31-0.97-0.48-1.45
			c-0.15-0.46-0.3-0.93-0.45-1.39c-0.13-0.38-0.32-0.73-0.65-0.93c-0.66-0.41-1.22-0.99-1.6-1.66c-0.17-0.29-0.3-0.62-0.53-0.87
			c-0.23-0.25-0.68-0.65-0.97-0.47c-0.53,0.36-0.93,0.9-1.13,1.51c-0.07,0.23-0.12,0.49-0.05,0.73c0.08,0.24,0.28,0.42,0.41,0.64
			c0.15,0.21,0.14,0.49,0.06,0.73c-0.07,0.19-0.16,0.4-0.29,0.54c-0.14,0.16-0.35,0.27-0.55,0.22c-0.26-0.06-0.4-0.32-0.48-0.57
			c-0.12-0.38-0.13-0.77-0.09-1.17c0.06-0.59,0.11-1.18,0.17-1.77c0.02-0.18,0.04-0.37,0.16-0.51c0.16-0.19,0.44-0.21,0.69-0.27
			c0.25-0.05,0.53-0.19,0.54-0.45c0-0.15-0.09-0.28-0.22-0.34c-0.13-0.07-0.28-0.07-0.42-0.05c-0.43,0.08-0.76,0.45-1,0.82
			c-0.39,0.61-0.41,1.37-0.74,2.01c-0.17,0.31-0.18,0.67-0.18,1.01c0,0.35,0,0.71-0.14,1.02c-0.14,0.31-0.46,0.58-0.8,0.54
			c-0.31-0.05-0.54-0.32-0.78-0.53c-0.36-0.32-0.88-0.33-1.32-0.53c-0.18-0.09-0.41,0.01-0.59,0.12c-0.18,0.1-0.39,0.22-0.58,0.17
			c-0.18-0.06-0.29-0.23-0.41-0.37c-0.33-0.38-0.88-0.34-1.37-0.45c-0.09-0.02-0.19-0.05-0.27-0.11c-0.02-0.02-0.05-0.04-0.06-0.06
			c-0.05-0.06-0.06-0.13-0.04-0.19c0.02-0.05,0.06-0.07,0.1-0.1c0.04-0.02,0.08-0.04,0.13-0.05c0.09-0.02,0.19-0.04,0.27-0.09
			c0.07-0.06,0.1-0.24,0.05-0.31c-0.07-0.1-0.15-0.19-0.25-0.29c-0.16-0.18-0.35-0.34-0.55-0.46c-0.11-0.07-0.33-0.19-0.42-0.28
			c0,0,0,0-0.01,0c0-0.01-0.01-0.01-0.01-0.02l-0.01,0.01c-0.09-0.08-0.24-0.13-0.37-0.16c-0.18-0.04-0.39-0.06-0.53-0.2
			c-0.14-0.14-0.17-0.34-0.26-0.51c-0.14-0.24-0.41-0.38-0.68-0.42c-0.2-0.04-0.43-0.08-0.65-0.06c-0.06-0.01-0.13,0-0.19,0.02
			c-0.41,0.12-0.81,0.25-1.23,0.31c-0.18,0.03-0.36,0.05-0.54,0.01c-0.18-0.05-0.31-0.26-0.45-0.37c-0.98-0.78-2.06-1.53-2.7-2.61
			c-0.22-0.39-0.6-0.67-1.03-0.81c-0.42-0.13-0.99-0.21-1.35,0.06c-0.36,0.28-0.73,0.54-1.1,0.81c-0.16,0.12-0.33,0.25-0.53,0.29
			c-0.22,0.06-0.47,0-0.65,0.13c-0.13,0.09-0.18,0.24-0.2,0.4c-0.01,0.15-0.05,0.32,0.01,0.46c0.18,0.48,0.34,1.12,0.12,1.59
			c-0.09,0.19-0.34,0.24-0.54,0.19c-0.2-0.06-0.38-0.18-0.58-0.24c-0.3-0.1-0.66-0.06-0.93,0.13c-0.28,0.18-0.34,0.47-0.43,0.77
			c-0.07,0.22,0.04,0.48,0.24,0.59c0.35,0.18,0.83-0.15,1.21-0.04c0.1-0.05,0.22,0.06,0.22,0.18c0.01,0.11-0.06,0.21-0.13,0.29
			c-0.38,0.45-0.93,0.71-1.46,0.96c-0.53,0.26-1.12,0.54-1.35,1.09c-0.14,0.35-0.11,0.76,0.07,1.1c0.06,0.11,0.15,0.22,0.2,0.34
			c0.06,0.12,0.13,0.3,0.05,0.41c-0.11,0.11-0.14,0.29-0.09,0.43c0.06,0.15,0.2,0.21,0.36,0.22c0.14,0.01,0.28,0.02,0.4,0.07
			c0.13,0.06,0.23,0.17,0.25,0.29c0.02,0.19-0.15,0.35-0.29,0.47l-0.88,0.72c-0.09,0.06-0.18,0.16-0.18,0.27
			c0.02,0.1,0.12,0.17,0.22,0.18c0.1,0.01,0.19-0.03,0.29-0.06c0.43-0.17,0.85-0.41,1.3-0.5c0.38-0.07,0.65-0.42,0.79-0.77
			c0.16-0.36,0.23-0.74,0.41-1.08c0.18-0.33,0.45-0.62,0.77-0.79c0.13-0.07,0.28-0.13,0.42-0.08c0.14,0.05,0.18,0.2,0.12,0.34
			c-0.09,0.18-0.26,0.29-0.41,0.42c-0.16,0.12-0.3,0.28-0.34,0.47c-0.05,0.19,0.06,0.33,0.25,0.32c0.29,0.05,0.56-0.16,0.78-0.36
			c0.21-0.21,0.47-0.45,0.77-0.45c0.85,0,1.54,0.86,2.11,1.49c0.43,0.49,0.87,1,1.13,1.59c0.46,1.05,0.67,2.29,0.35,3.39
			c-0.18,0.63,0.02,1.35,0.5,1.79c0.17,0.15,0.37,0.29,0.44,0.5c0.07,0.21-0.01,0.45-0.09,0.66c-0.44,1.2-1.08,2.29-1.23,3.57
			c-0.15,1.17-0.16,2.52,0.59,3.43c0.84,1,1.09,2.26,1.47,3.51c0.18,0.59,0.45,1.14,0.79,1.66c0.1,0.16,0.24,0.32,0.43,0.33
			c0.12,0.01,0.24-0.06,0.29-0.17c0.06-0.1,0.02-0.26,0.01-0.38c-0.04-0.29-0.2-0.53-0.36-0.78c-0.35-0.53-0.86-1.12-0.89-1.75
			c-0.01-0.2-0.02-0.4-0.04-0.6c0-0.06,0-0.12,0.02-0.18c0.02-0.06,0.07-0.11,0.14-0.1c0.06,0,0.19,0.08,0.17,0.14
			c0.04,0.76,0.52,1.41,0.98,2.02c0.27,0.35,0.7,0.74,0.81,1.16c0.19,0.78,0.49,1.56,0.96,2.2c0.48,0.65,1.14,1.19,1.94,1.36
			c0.69,0.16,1.45,0.35,2.15,0.47c0.71,0.11,1.34,0.61,1.61,1.27c0.18,0.41,0.23,0.88,0.54,1.21c0.34,0.34,0.93,0.31,1.41,0.36
			c0.32,0.04,0.62,0.22,0.78,0.49c0.18,0.27,0.21,0.61,0.11,0.91c-0.1,0.29-0.32,0.53-0.49,0.78c-0.41,0.62-0.29,1.37-0.42,2.1
			c-0.19,1.14,0.44,2.25,1.05,3.23c0.5,0.79,0.76,1.74,1.5,2.31c0.58,0.45,0.98,1.08,1.23,1.77l7.86-7.96
			C159.36,97.84,159.07,97.78,158.76,97.71z M155.24,120.19c-0.26-0.58-0.52-1.16-0.78-1.75c-0.1-0.22-0.03-0.43,0.09-0.65
			c0.11-0.22,0.29-0.4,0.42-0.61c0.13-0.2,0.21-0.47,0.11-0.7c-0.06-0.13-0.18-0.23-0.28-0.34c-0.59,1.11-1.06,2.24-1.43,3.39
			c0.29,0.34,0.55,0.74,0.9,1.03c0.16,0.14,0.35,0.27,0.56,0.29c0.21,0.02,0.46-0.11,0.48-0.32
			C155.34,120.4,155.3,120.29,155.24,120.19z"/>
	</g>
</g>
</svg>
