<?xml version="1.0" encoding="utf-8"?>
<!-- Generator: Adobe Illustrator 27.8.1, SVG Export Plug-In . SVG Version: 6.00 Build 0)  -->
<svg version="1.1" xmlns="http://www.w3.org/2000/svg" xmlns:xlink="http://www.w3.org/1999/xlink" x="0px" y="0px"
	 viewBox="0 0 350 230" style="enable-background:new 0 0 350 230;" xml:space="preserve">
<style type="text/css">
	.st0{fill-rule:evenodd;clip-rule:evenodd;fill:#A6D63C;}
	.st1{fill-rule:evenodd;clip-rule:evenodd;fill:#00A0D1;}
	.st2{fill:#421C00;}
	.st3{fill-rule:evenodd;clip-rule:evenodd;fill:#FFFFFF;}
	.st4{fill:#699AE2;}
	.st5{fill:#3B7DC4;}
	.st6{fill:#AF7500;}
	.st7{fill:#FFDF00;}
	.st8{fill:#1A0256;}
	.st9{fill:#00594F;}
	.st10{fill:#00779B;}
	.st11{fill:#0074FF;}
	.st12{fill:#194A91;}
	.st13{fill-rule:evenodd;clip-rule:evenodd;fill:#EFEFEF;}
	.st14{fill:#044159;}
	.st15{fill:#4C2900;}
	.st16{fill:#FFFFFF;}
	.st17{fill:#FFB41F;}
	.st18{fill:#FF5A00;}
	.st19{fill:#680404;}
	.st20{fill:#03AA6F;}
	.st21{fill:#FB5968;}
	.st22{fill:#FFD24A;}
	.st23{fill:#055EBC;}
	.st24{fill:#6F6F6F;}
	.st25{fill:#454545;}
	.st26{fill:#BA1A00;}
	.st27{fill:#0071BC;}
	.st28{fill:none;stroke:#FFFFFF;stroke-width:2;stroke-miterlimit:10;}
	.st29{fill:#3D3600;}
	.st30{fill:#5B4E03;}
	.st31{fill:#685900;}
	.st32{fill:none;stroke:#2E8EFF;stroke-width:2;stroke-linecap:round;stroke-miterlimit:10;}
	.st33{fill:none;stroke:#3D3600;stroke-width:2;stroke-linecap:round;stroke-miterlimit:10;}
	.st34{fill:#6F0393;}
	.st35{fill:none;}
	.st36{fill:#96D7FF;}
	.st37{fill:#0C5100;}
	.st38{fill:#FFE856;}
	.st39{fill:#803971;}
	.st40{fill:#D3CECD;}
	.st41{fill:#4C241D;}
	.st42{fill:#EA3200;stroke:#4C241D;stroke-linecap:round;stroke-linejoin:round;stroke-miterlimit:50;}
	.st43{fill:#11930A;stroke:#4C241D;stroke-linecap:round;stroke-linejoin:round;stroke-miterlimit:50;}
	.st44{fill:#3792CF;}
	.st45{fill:#FEE36F;}
	.st46{fill:#136296;}
	.st47{fill:#53C2BA;}
	.st48{fill:#6D6D00;}
	.st49{fill:#001087;}
	.st50{fill:#F19333;}
	.st51{fill:#1554A1;}
	.st52{fill:#8E0000;}
	.st53{fill:#C46B02;}
	.st54{fill:#FFD662;}
	.st55{fill:#01539D;}
	.st56{fill:#007777;}
	.st57{fill:#3CAF47;}
	.st58{fill:#31575B;}
	.st59{fill:#7BBBFF;}
	.st60{fill:#513800;}
	.st61{fill:#009D5A;}
	.st62{fill:#C9A37C;}
	.st63{fill:#DB504A;}
	.st64{fill:#084C61;}
	.st65{opacity:0.3;fill:#BCBEC0;enable-background:new    ;}
	.st66{fill:#069A8E;}
	.st67{fill:#0A4D68;}
	.st68{fill:#190707;}
	.st69{fill:#39B54A;}
	.st70{fill:#01A9DB;}
	.st71{fill:#DF7401;}
	.st72{fill:#0F0F4F;}
	.st73{fill:#232365;}
	.st74{fill:#2169AA;}
	.st75{fill:#00828C;}
	.st76{fill:#00A4BA;}
	.st77{fill:#007CC1;}
	.st78{fill:#FF0000;}
	.st79{fill:#313341;}
	.st80{fill:#C9C9C9;}
	.st81{fill:#0C3F00;}
	.st82{fill:#00153A;}
	.st83{fill:#056168;}
	.st84{fill:#08E8FF;}
	.st85{fill:#00B7FF;}
	.st86{fill:#590060;}
	.st87{fill:#FF78DC;}
</style>
<g id="Layer_1">
</g>
<g id="Layer_2">
</g>
<g id="Layer_3">
</g>
<g id="Layer_4">
</g>
<g id="Layer_5">
</g>
<g id="Layer_6">
</g>
<g id="Layer_7">
</g>
<g id="Layer_8">
</g>
<g id="Layer_9">
</g>
<g id="Layer_10">
	<g>
		<g>
			<path class="st28" d="M202.16,108.85c-0.65-0.08-1.35-0.17-2.09-0.28c-5.39-0.74-13.1-1.93-20.96-3.18
				c-0.17-0.03-0.36-0.05-0.53-0.08c-1.24-0.2-2.48-0.4-3.72-0.59c-0.01,0-0.01,0-0.01,0c-1.22-0.2-2.4-0.4-3.59-0.58
				c-0.17-0.03-0.33-0.05-0.5-0.08c-6.43-1.04-12.42-2.03-16.67-2.73c-3.9-0.66-6.34-1.07-6.34-1.07"/>
			<path class="st29" d="M200.08,108.57l-10.83-17.78l-1.04-1.72l-13.34-21.9l-0.01-0.03l0.01,0.13L177,89.07l0.17,1.72l1.41,14.52
				l2.4,24.5l0.25,2.54l1.78,18.15h28.24v-23.55L200.08,108.57z M161.43,89.23l-1.07,1.76l-6.27,10.33l-15.57,25.62v23.55h28.24
				l1.77-18.19l0.24-2.54l2.5-25.64l1.29-13.34l0.17-1.72l2.13-21.93L161.43,89.23z"/>
			<path class="st30" d="M172.42,89.07l-0.2,1.72l-1.47,13.26l-2.87,25.69l-0.28,2.54l-2.02,18.21l9.26,9.34V67.15L172.42,89.07z"/>
			<path class="st31" d="M182.1,132.33l-0.28-2.54l-2.71-24.41l-1.62-14.6l-0.2-1.72l-2.43-21.9v92.66l9.26-9.34L182.1,132.33z"/>
			<path id="Blue_Curve" class="st32" d="M205.56,89.79c-0.78,0-1.76,0-2.91,0c-3.46,0-8.37,0-13.41,0c-4.09,0-8.26,0-11.76,0
				c-0.11,0-0.21,0-0.32,0c-0.81,0-1.59,0-2.31,0h-0.01c-0.83,0-1.6,0-2.3,0c-0.11,0-0.22,0-0.33,0c-2.23,0-3.61,0-3.61,0
				c-2.85,0-5.63,0.07-8.26,0.2c-13.55,0.66-23.45,3-21.85,6.56 M121.96,123.26c0.4,0.28,0.85,0.57,1.36,0.85
				c3.18,1.72,8.45,3.25,15.19,4.45c7.98,1.43,18,2.4,29.1,2.72c0.3,0.01,0.61,0.01,0.91,0.03c2.07,0.05,4.19,0.08,6.33,0.09h0.01
				c0.29,0,0.58,0,0.87,0c1.86,0,3.7-0.01,5.51-0.05c0.29-0.01,0.58-0.01,0.86-0.01c11-0.25,21.05-1.15,29.16-2.48
				c12.4-2.05,20.31-5.15,20.31-8.63c0-0.42-0.11-0.87-0.33-1.32c-1.95-4.04-12.46-8.85-28.23-10.55"/>
			<path id="White_Curve" class="st33" d="M205.54,89.07c-0.92,0-2.14,0-3.58,0c-3.65,0-8.69,0-13.76,0c-3.82,0-7.65,0-10.91,0
				c-0.09,0-0.2,0-0.29,0c-0.75,0-1.47,0-2.14,0h-0.01c-0.77,0-1.48,0-2.13,0c-0.11,0-0.2,0-0.3,0c-2.44,0-3.96,0-3.96,0
				c-2.42,0-4.77,0.05-7.03,0.16c-14.16,0.63-24.74,3.18-24.74,6.21c0,0.74,0.65,1.45,1.82,2.11c1.86,1.06,5.07,1.98,9.23,2.69
				c0.05,0.01,0.12,0.03,0.18,0.04 M121.96,121.72c0.83,0.59,1.9,1.16,3.2,1.7c3.21,1.37,7.78,2.59,13.35,3.59
				c8.04,1.44,18.18,2.42,29.38,2.72c0.29,0.01,0.58,0.03,0.87,0.03c1.99,0.05,4.03,0.08,6.09,0.09h0.01c0.29,0,0.58,0,0.87,0
				c1.77,0,3.53-0.01,5.26-0.05c0.28,0,0.55-0.01,0.83-0.01c11.12-0.24,21.25-1.14,29.44-2.48c10.94-1.81,18.37-4.44,19.98-7.41
				c0.22-0.4,0.33-0.81,0.33-1.22c0-4.25-11.9-7.96-29.42-9.84"/>
			<path id="Location" class="st16" d="M210.39,62.75c-1.36-1.03-3.05-1.64-4.89-1.64c-1.81,0-3.47,0.58-4.82,1.57
				c-2.02,1.49-3.34,3.88-3.34,6.59c0,4.5,8.16,13.47,8.16,13.47s8.15-8.97,8.15-13.47C213.65,66.61,212.37,64.23,210.39,62.75z
				 M205.5,64.14c1.9,0,3.46,1.55,3.46,3.45c0,1.92-1.56,3.46-3.46,3.46c-1.92,0-3.46-1.55-3.46-3.46
				C202.04,65.68,203.59,64.14,205.5,64.14z"/>
			<path id="Elipse" class="st31" d="M121.99,118.26c-1.97,0-3.57,1.6-3.57,3.55c0,1.97,1.6,3.55,3.57,3.55
				c0.48,0,0.92-0.09,1.33-0.26c0.79-0.32,1.44-0.91,1.84-1.68c0.24-0.48,0.38-1.03,0.38-1.61
				C125.54,119.85,123.94,118.26,121.99,118.26z M205.5,85.11c-1.97,0-3.57,1.59-3.57,3.55c0,0.15,0.01,0.28,0.03,0.41
				c0.07,0.65,0.32,1.23,0.69,1.72c0.65,0.87,1.69,1.43,2.85,1.43c1.95,0,3.55-1.6,3.55-3.55C209.06,86.7,207.46,85.11,205.5,85.11z
				"/>
		</g>
		<path class="st27" d="M210.39,62.75c-0.16,0.67-0.77,1.18-1.49,1.18h-6.7c-0.75,0-1.37-0.54-1.52-1.24
			c1.35-0.99,3.01-1.57,4.82-1.57C207.34,61.11,209.03,61.72,210.39,62.75z"/>
		<path class="st27" d="M202.2,74.18h6.69c0.86,0,1.55,0.7,1.55,1.55s-0.7,1.55-1.55,1.55h-6.69c-0.86,0-1.55-0.7-1.55-1.55
			S201.35,74.18,202.2,74.18z"/>
		<path class="st29" d="M210.39,62.75c-1.36-1.03-3.05-1.64-4.89-1.64c-1.81,0-3.47,0.58-4.82,1.57c-2.02,1.49-3.34,3.88-3.34,6.59
			c0,4.5,8.16,13.47,8.16,13.47s8.15-8.97,8.15-13.47C213.65,66.61,212.37,64.23,210.39,62.75z M205.5,64.14
			c1.9,0,3.46,1.55,3.46,3.45c0,1.92-1.56,3.46-3.46,3.46c-1.92,0-3.46-1.55-3.46-3.46C202.04,65.68,203.59,64.14,205.5,64.14z
			 M219.15,36.29H207.1V31.1h3.88c0.86,0,1.55-0.69,1.55-1.55S211.84,28,210.99,28h-10.87c-0.86,0-1.56,0.7-1.56,1.56
			s0.7,1.55,1.56,1.55H204v5.19h-12.05c-0.86,0-1.55,0.69-1.55,1.55v13.71h30.29V37.84C220.69,36.98,219.99,36.29,219.15,36.29z
			 M197.21,45.46c-1.32,0-2.39-1.07-2.38-2.39c0-1.31,1.07-2.38,2.39-2.36c1.31,0,2.38,1.07,2.38,2.39
			C199.59,44.4,198.52,45.47,197.21,45.46z M205.54,45.46c-1.32,0-2.38-1.07-2.38-2.39c0-1.31,1.07-2.38,2.39-2.36
			c1.32,0,2.38,1.07,2.38,2.39C207.92,44.4,206.85,45.47,205.54,45.46z M213.89,45.46c-1.31,0-2.38-1.07-2.38-2.39
			c0.01-1.31,1.08-2.38,2.39-2.36c1.32,0,2.39,1.07,2.38,2.39C216.28,44.4,215.21,45.47,213.89,45.46z M192.08,54.66l4.19,5.25
			h18.55l4.19-5.25H192.08z"/>
	</g>
</g>
<g id="Layer_11">
</g>
<g id="Layer_12">
</g>
<g id="Layer_13">
</g>
<g id="Layer_14">
</g>
<g id="Layer_15">
</g>
</svg>
