<?xml version="1.0" encoding="utf-8"?>
<!-- Generator: Adobe Illustrator 27.8.1, SVG Export Plug-In . SVG Version: 6.00 Build 0)  -->
<svg version="1.1" xmlns="http://www.w3.org/2000/svg" xmlns:xlink="http://www.w3.org/1999/xlink" x="0px" y="0px"
	 viewBox="0 0 350 230" style="enable-background:new 0 0 350 230;" xml:space="preserve">
<style type="text/css">
	.st0{fill-rule:evenodd;clip-rule:evenodd;fill:#A6D63C;}
	.st1{fill-rule:evenodd;clip-rule:evenodd;fill:#00A0D1;}
	.st2{fill:#421C00;}
	.st3{fill-rule:evenodd;clip-rule:evenodd;fill:#FFFFFF;}
	.st4{fill:#699AE2;}
	.st5{fill:#3B7DC4;}
	.st6{fill:#AF7500;}
	.st7{fill:#FFDF00;}
	.st8{fill:#1A0256;}
	.st9{fill:#00594F;}
	.st10{fill:#00779B;}
	.st11{fill:#0074FF;}
	.st12{fill:#194A91;}
	.st13{fill-rule:evenodd;clip-rule:evenodd;fill:#EFEFEF;}
	.st14{fill:#044159;}
	.st15{fill:#4C2900;}
	.st16{fill:#FFFFFF;}
	.st17{fill:#FFB41F;}
	.st18{fill:#FF5A00;}
	.st19{fill:#680404;}
	.st20{fill:#03AA6F;}
	.st21{fill:#FB5968;}
	.st22{fill:#FFD24A;}
	.st23{fill:#055EBC;}
	.st24{fill:#6F6F6F;}
	.st25{fill:#454545;}
	.st26{fill:#BA1A00;}
	.st27{fill:#0071BC;}
	.st28{fill:none;stroke:#FFFFFF;stroke-width:2;stroke-miterlimit:10;}
	.st29{fill:#3D3600;}
	.st30{fill:#5B4E03;}
	.st31{fill:#685900;}
	.st32{fill:none;stroke:#2E8EFF;stroke-width:2;stroke-linecap:round;stroke-miterlimit:10;}
	.st33{fill:none;stroke:#3D3600;stroke-width:2;stroke-linecap:round;stroke-miterlimit:10;}
	.st34{fill:#6F0393;}
	.st35{fill:none;}
	.st36{fill:#96D7FF;}
	.st37{fill:#0C5100;}
	.st38{fill:#FFE856;}
	.st39{fill:#803971;}
	.st40{fill:#D3CECD;}
	.st41{fill:#4C241D;}
	.st42{fill:#EA3200;stroke:#4C241D;stroke-linecap:round;stroke-linejoin:round;stroke-miterlimit:50;}
	.st43{fill:#11930A;stroke:#4C241D;stroke-linecap:round;stroke-linejoin:round;stroke-miterlimit:50;}
	.st44{fill:#3792CF;}
	.st45{fill:#FEE36F;}
	.st46{fill:#136296;}
	.st47{fill:#53C2BA;}
	.st48{fill:#6D6D00;}
	.st49{fill:#001087;}
	.st50{fill:#F19333;}
	.st51{fill:#1554A1;}
	.st52{fill:#8E0000;}
	.st53{fill:#C46B02;}
	.st54{fill:#FFD662;}
	.st55{fill:#01539D;}
	.st56{fill:#007777;}
	.st57{fill:#3CAF47;}
	.st58{fill:#31575B;}
	.st59{fill:#7BBBFF;}
	.st60{fill:#513800;}
	.st61{fill:#009D5A;}
	.st62{fill:#C9A37C;}
	.st63{fill:#DB504A;}
	.st64{fill:#084C61;}
	.st65{opacity:0.3;fill:#BCBEC0;enable-background:new    ;}
	.st66{fill:#069A8E;}
	.st67{fill:#0A4D68;}
	.st68{fill:#190707;}
	.st69{fill:#39B54A;}
	.st70{fill:#01A9DB;}
	.st71{fill:#DF7401;}
	.st72{fill:#0F0F4F;}
	.st73{fill:#232365;}
	.st74{fill:#2169AA;}
	.st75{fill:#00828C;}
	.st76{fill:#00A4BA;}
	.st77{fill:#007CC1;}
	.st78{fill:#FF0000;}
	.st79{fill:#313341;}
	.st80{fill:#C9C9C9;}
	.st81{fill:#0C3F00;}
	.st82{fill:#00153A;}
	.st83{fill:#056168;}
	.st84{fill:#08E8FF;}
	.st85{fill:#00B7FF;}
	.st86{fill:#590060;}
	.st87{fill:#FF78DC;}
</style>
<g id="Layer_1">
</g>
<g id="Layer_2">
</g>
<g id="Layer_3">
</g>
<g id="Layer_4">
</g>
<g id="Layer_5">
</g>
<g id="Layer_6">
</g>
<g id="Layer_7">
</g>
<g id="Layer_8">
</g>
<g id="Layer_9">
</g>
<g id="Layer_10">
</g>
<g id="Layer_11">
</g>
<g id="Layer_12">
</g>
<g id="Layer_13">
</g>
<g id="Layer_14">
</g>
<g id="Layer_15">
	<g>
		<path d="M186.36,108.33c0.14-0.11,0.27-0.21,0.42-0.31c0.14-0.1,0.29-0.19,0.44-0.27c0.3-0.16,0.6-0.3,0.92-0.38
			c0.16-0.04,0.32-0.08,0.48-0.1c0.08-0.01,0.16-0.02,0.24-0.02c0.08-0.01,0.16-0.01,0.24-0.01c0.16,0,0.32,0.02,0.48,0.04
			l0.24,0.04l0.23,0.06c0.08,0.02,0.15,0.05,0.23,0.08c0.08,0.03,0.15,0.05,0.23,0.09l0.22,0.1c0.07,0.04,0.15,0.08,0.22,0.12
			c0.15,0.07,0.29,0.17,0.43,0.25c0.14,0.09,0.28,0.2,0.41,0.29l0.4,0.32l0.38,0.35l0.4,0.37l0.34-0.41l0.32-0.39l0.34-0.36
			c0.12-0.11,0.23-0.23,0.36-0.34c0.13-0.1,0.25-0.21,0.38-0.3c0.07-0.05,0.13-0.1,0.2-0.14l0.21-0.12
			c0.07-0.04,0.14-0.08,0.21-0.11c0.07-0.03,0.14-0.08,0.22-0.1l0.22-0.09l0.23-0.07c0.15-0.04,0.31-0.08,0.47-0.09
			c0.08-0.01,0.16-0.02,0.24-0.02c0.08,0,0.16-0.01,0.24-0.01c0.16,0,0.33,0.02,0.49,0.04c0.33,0.05,0.66,0.14,0.98,0.27
			c0.16,0.06,0.32,0.13,0.48,0.21c0.16,0.08,0.31,0.17,0.47,0.26c0.3,0.19,0.6,0.39,0.88,0.63c-0.2-0.31-0.45-0.58-0.72-0.84
			c-0.27-0.26-0.57-0.49-0.9-0.69c-0.33-0.2-0.68-0.36-1.06-0.47c-0.19-0.06-0.38-0.1-0.58-0.12c-0.1-0.02-0.2-0.02-0.3-0.03
			c-0.1-0.01-0.2-0.01-0.3,0c-0.2,0-0.4,0.03-0.6,0.06l-0.29,0.06l-0.28,0.09c-0.09,0.03-0.17,0.06-0.26,0.1
			c-0.09,0.04-0.17,0.07-0.26,0.11l-0.29,0.15c-0.08,0.05-0.16,0.1-0.25,0.15c-0.17,0.1-0.31,0.22-0.46,0.34
			c-0.15,0.12-0.28,0.25-0.43,0.37c-0.13,0.13-0.26,0.27-0.39,0.4l-0.02,0.03l-0.03-0.02l-0.45-0.36c-0.16-0.11-0.32-0.22-0.49-0.32
			c-0.17-0.1-0.34-0.2-0.52-0.28c-0.09-0.04-0.18-0.09-0.27-0.12l-0.32-0.12c-0.09-0.03-0.18-0.06-0.27-0.08
			c-0.09-0.02-0.18-0.05-0.27-0.07l-0.3-0.05l-0.3-0.03c-0.2-0.01-0.4-0.01-0.6,0.01c-0.1,0.01-0.2,0.02-0.3,0.04
			c-0.1,0.02-0.2,0.03-0.29,0.06c-0.19,0.05-0.38,0.11-0.55,0.19c-0.35,0.15-0.68,0.35-0.97,0.59c-0.29,0.24-0.55,0.5-0.77,0.78
			c-0.22,0.29-0.42,0.59-0.56,0.92C185.84,108.79,186.09,108.55,186.36,108.33z M199.83,114.03c-0.09-0.04-0.19-0.06-0.29-0.09
			c-0.1-0.03-0.19-0.05-0.29-0.07l-0.29-0.05l-0.3-0.03c-0.2-0.01-0.4-0.01-0.6,0.01c-0.1,0.01-0.2,0.02-0.3,0.04
			c-0.1,0.02-0.2,0.03-0.29,0.06c-0.19,0.05-0.38,0.11-0.55,0.19c-0.35,0.15-0.68,0.36-0.97,0.59c-0.29,0.24-0.55,0.5-0.77,0.78
			c-0.22,0.29-0.42,0.59-0.56,0.92c0.24-0.26,0.5-0.5,0.77-0.72c0.14-0.11,0.27-0.21,0.42-0.31c0.14-0.1,0.29-0.19,0.44-0.27
			c0.3-0.16,0.6-0.3,0.92-0.38c0.16-0.04,0.32-0.08,0.48-0.1c0.08-0.01,0.16-0.02,0.24-0.02c0.08-0.01,0.16-0.01,0.24-0.01
			c0.16,0,0.32,0.02,0.48,0.04l0.24,0.04l0.23,0.06c0.08,0.02,0.15,0.05,0.23,0.08c0.08,0.03,0.15,0.05,0.23,0.09l0.22,0.1
			c0.07,0.04,0.15,0.08,0.22,0.12c0.15,0.07,0.29,0.17,0.43,0.25c0.14,0.09,0.28,0.2,0.41,0.29l0.4,0.32l0.38,0.35l0.4,0.37
			l0.34-0.41l0.32-0.39l0.34-0.36c0.12-0.11,0.23-0.23,0.36-0.34c0.13-0.1,0.25-0.21,0.38-0.3c0.07-0.05,0.13-0.1,0.2-0.14
			l0.21-0.12c0.07-0.04,0.14-0.08,0.21-0.11c0.07-0.03,0.14-0.08,0.22-0.1l0.22-0.09l0.23-0.07c0.15-0.04,0.31-0.08,0.47-0.09
			c0.08-0.01,0.16-0.02,0.24-0.02c0.08,0,0.16-0.01,0.24-0.01c0.16,0,0.33,0.02,0.49,0.04c0.33,0.05,0.66,0.14,0.98,0.27
			c0.16,0.06,0.32,0.13,0.48,0.21c0.16,0.08,0.31,0.17,0.47,0.26c0.31,0.19,0.6,0.39,0.88,0.63c-0.2-0.31-0.45-0.58-0.72-0.84
			c-0.27-0.26-0.57-0.49-0.9-0.69c-0.33-0.2-0.68-0.36-1.06-0.47c-0.19-0.06-0.38-0.1-0.58-0.12c-0.1-0.02-0.2-0.02-0.3-0.03
			c-0.1-0.01-0.2-0.01-0.3,0c-0.2,0-0.4,0.03-0.6,0.06l-0.29,0.06l-0.29,0.09c-0.09,0.03-0.18,0.07-0.27,0.1
			c-0.09,0.04-0.18,0.07-0.27,0.12l-0.26,0.14c-0.08,0.05-0.16,0.1-0.25,0.15c-0.17,0.1-0.31,0.22-0.46,0.34
			c-0.15,0.12-0.28,0.25-0.43,0.37c-0.13,0.13-0.26,0.27-0.39,0.4l-0.02,0.03l-0.03-0.02l-0.45-0.36c-0.16-0.11-0.32-0.22-0.49-0.32
			c-0.17-0.1-0.34-0.2-0.52-0.28c-0.09-0.04-0.18-0.09-0.27-0.12L199.83,114.03z M191.42,119.16c-0.09-0.04-0.19-0.06-0.29-0.09
			c-0.1-0.03-0.19-0.05-0.29-0.07l-0.29-0.05l-0.3-0.03c-0.2-0.01-0.4-0.01-0.6,0.01c-0.1,0.01-0.2,0.02-0.3,0.04
			c-0.1,0.02-0.2,0.03-0.29,0.06c-0.19,0.05-0.38,0.11-0.55,0.19c-0.35,0.15-0.68,0.36-0.97,0.59c-0.29,0.24-0.55,0.5-0.77,0.78
			c-0.22,0.29-0.42,0.59-0.56,0.92c0.24-0.26,0.5-0.5,0.77-0.72c0.14-0.11,0.27-0.21,0.42-0.31c0.14-0.1,0.29-0.19,0.44-0.27
			c0.3-0.16,0.6-0.3,0.92-0.38c0.16-0.04,0.32-0.08,0.48-0.1c0.08-0.01,0.16-0.02,0.24-0.02c0.08-0.01,0.16-0.01,0.24-0.01
			c0.16,0,0.32,0.02,0.48,0.04l0.24,0.04l0.23,0.06c0.08,0.02,0.15,0.05,0.23,0.08c0.08,0.03,0.15,0.05,0.23,0.09l0.22,0.1
			c0.07,0.04,0.15,0.08,0.22,0.12c0.15,0.07,0.29,0.17,0.43,0.25c0.14,0.09,0.28,0.2,0.41,0.29l0.4,0.32l0.38,0.35l0.4,0.37
			l0.34-0.41l0.32-0.39l0.34-0.36c0.12-0.11,0.23-0.23,0.36-0.34c0.13-0.1,0.25-0.21,0.38-0.3c0.07-0.05,0.13-0.1,0.2-0.14
			l0.21-0.12c0.07-0.04,0.14-0.08,0.21-0.11c0.07-0.03,0.14-0.08,0.22-0.1l0.22-0.09l0.23-0.07c0.15-0.04,0.31-0.08,0.47-0.09
			c0.08-0.01,0.16-0.02,0.24-0.02c0.08,0,0.16-0.01,0.24-0.01c0.16,0,0.33,0.02,0.49,0.04c0.33,0.05,0.66,0.14,0.98,0.27
			c0.16,0.06,0.32,0.13,0.48,0.21c0.16,0.08,0.31,0.17,0.47,0.26c0.31,0.19,0.6,0.39,0.88,0.63c-0.2-0.31-0.45-0.58-0.72-0.84
			c-0.27-0.26-0.57-0.49-0.9-0.69c-0.33-0.2-0.68-0.36-1.06-0.47c-0.19-0.06-0.38-0.1-0.58-0.12c-0.1-0.02-0.2-0.02-0.3-0.03
			c-0.1-0.01-0.2-0.01-0.3,0c-0.2,0-0.4,0.03-0.6,0.06l-0.29,0.06l-0.29,0.09c-0.09,0.03-0.18,0.07-0.27,0.1
			c-0.09,0.04-0.18,0.07-0.27,0.12l-0.26,0.14c-0.08,0.05-0.16,0.1-0.25,0.15c-0.17,0.1-0.31,0.22-0.46,0.34
			c-0.15,0.12-0.28,0.25-0.43,0.37c-0.13,0.13-0.26,0.27-0.39,0.4l-0.02,0.03l-0.03-0.02l-0.45-0.36c-0.16-0.11-0.32-0.22-0.49-0.32
			c-0.17-0.1-0.34-0.2-0.52-0.28c-0.09-0.04-0.18-0.09-0.27-0.12L191.42,119.16z M176.58,115.24c0.14-0.11,0.27-0.21,0.42-0.31
			c0.14-0.1,0.29-0.19,0.44-0.27c0.3-0.16,0.6-0.3,0.92-0.38c0.16-0.04,0.32-0.08,0.48-0.1c0.08-0.01,0.16-0.02,0.24-0.02
			c0.08-0.01,0.16-0.01,0.24-0.01c0.16,0,0.32,0.02,0.48,0.04l0.24,0.04l0.23,0.06c0.08,0.02,0.15,0.05,0.23,0.08
			c0.08,0.03,0.15,0.05,0.23,0.09l0.22,0.1c0.07,0.04,0.15,0.08,0.22,0.12c0.15,0.07,0.29,0.17,0.43,0.25
			c0.14,0.09,0.28,0.2,0.41,0.29l0.4,0.32l0.38,0.35l0.4,0.37l0.34-0.41l0.32-0.39l0.34-0.36c0.12-0.11,0.23-0.23,0.36-0.34
			c0.13-0.1,0.25-0.21,0.38-0.3c0.07-0.05,0.13-0.1,0.2-0.14l0.21-0.12c0.07-0.04,0.14-0.08,0.21-0.11c0.07-0.03,0.14-0.08,0.22-0.1
			l0.22-0.09l0.23-0.07c0.15-0.04,0.31-0.08,0.47-0.09c0.08-0.01,0.16-0.02,0.24-0.02c0.08,0,0.16-0.01,0.24-0.01
			c0.16,0,0.33,0.02,0.49,0.04c0.33,0.05,0.66,0.14,0.98,0.27c0.16,0.06,0.32,0.13,0.48,0.21c0.16,0.08,0.31,0.17,0.47,0.26
			c0.31,0.19,0.6,0.39,0.88,0.63c-0.2-0.31-0.45-0.58-0.72-0.84c-0.27-0.26-0.57-0.49-0.9-0.69c-0.33-0.2-0.68-0.36-1.06-0.47
			c-0.19-0.06-0.38-0.1-0.58-0.12c-0.1-0.02-0.2-0.02-0.3-0.03c-0.1-0.01-0.2-0.01-0.3,0c-0.2,0-0.4,0.03-0.6,0.06l-0.29,0.06
			l-0.28,0.09c-0.09,0.03-0.17,0.06-0.26,0.1c-0.09,0.04-0.17,0.07-0.25,0.11l-0.29,0.15c-0.08,0.05-0.16,0.1-0.25,0.15
			c-0.17,0.1-0.31,0.22-0.46,0.34c-0.15,0.12-0.28,0.25-0.43,0.37c-0.13,0.13-0.26,0.27-0.39,0.4l-0.02,0.03l-0.03-0.02l-0.45-0.36
			c-0.16-0.11-0.32-0.22-0.49-0.32c-0.17-0.1-0.34-0.2-0.52-0.28c-0.09-0.04-0.18-0.09-0.27-0.12l-0.32-0.12
			c-0.09-0.03-0.18-0.06-0.27-0.08c-0.09-0.02-0.18-0.05-0.27-0.07l-0.3-0.05l-0.3-0.03c-0.2-0.01-0.4-0.01-0.6,0.01
			c-0.1,0.01-0.2,0.02-0.3,0.04c-0.1,0.02-0.2,0.03-0.29,0.06c-0.19,0.05-0.38,0.11-0.55,0.19c-0.35,0.15-0.68,0.36-0.97,0.59
			c-0.29,0.24-0.55,0.5-0.77,0.78c-0.22,0.29-0.42,0.59-0.56,0.92C176.05,115.69,176.31,115.45,176.58,115.24z"/>
		<path class="st68" d="M257.39,90.81c-7.29,1.47-26.95,2.42-33.09,2.69c0.12-0.48,0.2-0.97,0.2-1.49c0-0.47-0.06-0.92-0.16-1.35
			c2.06-0.38,7.7-1.43,8.83-1.69c1.38-0.33,1.32-1.24,1.32-1.24c-1.88,0.77-8.96,0.88-11.06,0.9c-0.93-1.32-2.39-2.24-4.07-2.46
			c-0.02-2.4-0.12-9.39-0.75-10.88c-0.63,1.5-0.73,8.49-0.75,10.88c-1.68,0.21-3.14,1.13-4.07,2.46c-2.1-0.02-9.18-0.13-11.06-0.9
			c0,0-0.06,0.91,1.32,1.24c1.13,0.27,6.77,1.31,8.83,1.69c-0.1,0.43-0.16,0.89-0.16,1.35c0,0.51,0.07,1.01,0.2,1.49
			c-6.13-0.27-25.79-1.22-33.09-2.69c-0.28-0.06-0.42,0.33-0.16,0.46c1.98,0.98,6.98,2.71,19.02,4.11c-1,0.41-1.7,1.38-1.7,2.52
			c0,1.5,1.22,2.72,2.72,2.72c1.5,0,2.72-1.22,2.72-2.72c0-0.93-0.47-1.74-1.17-2.24c1.98,0.21,4.14,0.41,6.48,0.59v5.12h-0.08
			v-0.37c0-0.21-0.17-0.38-0.38-0.38h-0.37c-0.21,0-0.38,0.17-0.38,0.38v1.71c0,0.21,0.17,0.38,0.38,0.38h0.37
			c0.21,0,0.38-0.17,0.38-0.38v-0.37h0.65v0.37c0,0.21,0.17,0.38,0.38,0.38h0.37c0.21,0,0.38-0.17,0.38-0.38v-1.71
			c0-0.21-0.17-0.38-0.38-0.38h-0.37c-0.21,0-0.38,0.17-0.38,0.38v0.37h-0.08V99.9l3.5-3.15c1.57,0.3,3.33,0.78,4.26,1.53
			c0.01,0.01,0.03,0.01,0.04,0.02l2.34,2.14v1.13c-0.02-0.13-0.13-0.22-0.26-0.22h-0.26c-0.15,0-0.27,0.12-0.27,0.27v1.21
			c0,0.15,0.12,0.27,0.27,0.27h0.26c0.15,0,0.27-0.12,0.27-0.27v-0.37h0.46v0.37c0,0.15,0.12,0.27,0.27,0.27h0.26
			c0.15,0,0.27-0.12,0.27-0.27v-1.21c0-0.15-0.12-0.27-0.27-0.27h-0.26c-0.13,0-0.24,0.1-0.26,0.23v-1.15l2.28-2.09
			c0.03-0.02,0.07-0.03,0.1-0.05c0.93-0.75,2.69-1.23,4.26-1.53l3.5,3.15v1.48h-0.08v-0.37c0-0.21-0.17-0.38-0.38-0.38h-0.37
			c-0.21,0-0.38,0.17-0.38,0.38v1.71c0,0.21,0.17,0.38,0.38,0.38h0.37c0.21,0,0.38-0.17,0.38-0.38v-0.37h0.65v0.37
			c0,0.21,0.17,0.38,0.38,0.38h0.37c0.21,0,0.38-0.17,0.38-0.38v-1.71c0-0.21-0.17-0.38-0.38-0.38h-0.37
			c-0.21,0-0.38,0.17-0.38,0.38v0.37h-0.08v-5.12c2.34-0.19,4.5-0.38,6.48-0.59c-0.71,0.49-1.17,1.31-1.17,2.24
			c0,1.5,1.22,2.72,2.72,2.72s2.72-1.22,2.72-2.72c0-1.14-0.7-2.12-1.7-2.52c12.04-1.41,17.04-3.13,19.02-4.11
			C257.8,91.14,257.67,90.75,257.39,90.81z M208.23,99.25v-2.43l1.34,1.22L208.23,99.25z M209.93,97.72l-1.55-1.41
			c0.06,0,0.12,0.01,0.18,0.01c0,0,1.15,0.08,2.57,0.32L209.93,97.72z M216.98,98.52h1.38v1.26L216.98,98.52z M218.85,99.77v-1.24
			h1.36L218.85,99.77z M226.09,96.64c1.43-0.24,2.57-0.32,2.57-0.32c0.06,0,0.12-0.01,0.18-0.01l-1.55,1.41L226.09,96.64z
			 M227.65,98.05l1.34-1.22v2.43L227.65,98.05z"/>
		<path class="st69" d="M150.3,104.1c0.11-0.29,0.21-0.59,0.32-0.89c0.11-0.3,0.22-0.59,0.34-0.89c0.23-0.59,0.45-1.19,0.7-1.79
			c0.12-0.3,0.24-0.6,0.37-0.9l0.09-0.23l0.02-0.06l0.01-0.03c0.02-0.03-0.01,0.01,0,0l0.05-0.11c0.07-0.15,0.13-0.31,0.2-0.46
			c0.13-0.31,0.27-0.61,0.4-0.92c0.13-0.29,0.27-0.58,0.4-0.88c0.14-0.29,0.26-0.58,0.41-0.88c0.14-0.3,0.29-0.59,0.43-0.89
			l0.22-0.45l0.23-0.44c0.15-0.3,0.3-0.59,0.46-0.89c0.31-0.59,0.63-1.18,0.95-1.77c0.33-0.58,0.65-1.18,1-1.76
			c1.35-2.34,2.79-4.64,4.26-6.9c1.47-2.25,2.95-4.46,4.38-6.61c1.43-2.14,2.82-4.23,4.1-6.23c1.28-2,2.45-3.91,3.49-5.71
			c1.04-1.79,1.93-3.47,2.69-4.97c0.13-0.26,0.25-0.5,0.37-0.75l-2.8,5.77l2.74-3.18c-1.31,2.71-2.53,7.52-2.52,7.62
			c0.02,0.1,2.23-4.6,2.23-4.6c-0.79,1.82-1.45,7.64-1.33,7.97c0.12,0.33,1.36-2.79,1.36-2.79l-0.56,4.54c0,0,3.4-2.63,4.5-5.25
			l-1.16,3.34c0,0,3.29-3.81,3.56-8.49l0.06,3.79c0,0,1.61-4.06,0.57-7.35l1.16,0.98l-0.58-4.89c-0.28-0.67-0.62-1.37-1.01-2.08
			c0.48,0.83,1.13,1.99,1.86,3.4l-0.54-2.8l1.84,5.4l0.79-3.25c1.95,2.29,2.73,11.96,2.73,11.96l0.56-5.55
			c1.56,3.23,0.98,11.43,0.98,11.43l1.15-5.44c1.17,1.93-0.64,9.2-0.64,9.2s14.03-19.94-7.2-28.34c0,0,2.56,0.17,6.03,0.76
			l-2.79-1.31c2.44-0.62,9.86,2.91,9.86,2.91l-4.56-2.89c2.89-0.07,9.75,4.87,9.75,4.87l-2.68-2.62c3.31,1.03,6.78,5.4,6.78,5.4
			s-6.66-16-22.04-10.1c0,0,0.97-0.57,2.4-1.52c1.09-0.59,2.48-1.22,4-1.62l-4.15,0.15l8.35-2.62c-0.14-0.02-0.3-0.02-0.47-0.02
			l-3.41-0.12c-0.03-0.18,1.1-1.38,2.64-2.61c1.72-1.38,3.8-2.24,5.99-2.71c0.14-0.03,0.27-0.06,0.4-0.1
			c-0.03-0.02-0.07-0.03-0.1-0.05c0.14,0.03,0.22,0.05,0.22,0.05c-0.08-0.03-0.15-0.04-0.24-0.06c-2.5-1.23-6.04-0.92-8.53,0
			c-5.5,1.92-9.12,6.87-9.12,6.87c1.09-2.41,4.37-11.11-2.79-16.03l0.99,4.1l-0.99-1.95c0,0,1.24,7.59,0.7,8.58l-1.07-3.37
			c0,0,0.66,5.75-0.61,8.66c0,0-3.26-9.76-10.86-12.92c0,0,2.38,3.05,2.79,5.15l-2.19-2.66l2.87,5.47l-2.03-2.03l0.65,2.67
			c0,0-2.6-3.06-5.61-1.33c0,0,2.79,0.39,4.33,2.44l-3.67-1.72l4.62,3.32l-2.3-0.81c0,0,4.23,2.06,4.58,3.02l-2.88-1.18l3.45,3.74
			l1.7,1.84c-1.43-1.53-13.18-13.46-22.49-4.79c0,0,3.05-1.64,6.27-0.44l-4.05,1.11c0,0,6.45-1,8.95-0.18l-4.23,1.62
			c0,0,4.8-0.92,8.88,0.57l-2.61,0.14l4.99,1.68c0,0-7.62-1.82-13.23,4.29c-0.97,1.01-1.94,2.24-2.87,3.75l4.8-2.14l-2.02,2.25
			c0,0,3.88-3.47,7.62-4.25l-2.06,2.33l6.78-3.08l-1.48,1.49c0.85-0.08,1.63,0.02,2.19,0.42l-3.6,1.83
			c-1.55,0.79-3.01,1.76-4.26,2.95c-2.78,2.63-4.97,6.32-4.64,11.38c0,0,2.63-6.09,5.51-7.36l-2.09,3.99c0,0,4.07-6.39,6.98-8.09
			l-1.96,3.67l4.77-5.15l-1.14,2.34c0,0,2.92-4.53,7.19-4.79c-0.18,0.36-0.38,0.75-0.6,1.19c-0.14,0.26-0.29,0.54-0.44,0.84
			c-0.08,0.15-0.16,0.3-0.24,0.45c-0.08,0.15-0.17,0.31-0.26,0.46c-0.18,0.31-0.36,0.64-0.55,0.98c-0.2,0.34-0.4,0.68-0.61,1.04
			c-0.63,1.06-1.33,2.2-2.12,3.41l-5.23,7.43c-1.25,1.68-2.59,3.41-3.97,5.2c-1.58,2.04-3.21,4.15-4.85,6.33
			c-1.64,2.18-3.27,4.43-4.83,6.75c-0.4,0.58-0.77,1.17-1.16,1.75c-0.38,0.59-0.75,1.18-1.12,1.78c-0.18,0.3-0.36,0.6-0.54,0.9
			l-0.27,0.45l-0.26,0.45c-0.18,0.3-0.35,0.61-0.52,0.91c-0.18,0.3-0.34,0.62-0.51,0.93c-0.17,0.31-0.34,0.62-0.51,0.93
			c-0.16,0.3-0.31,0.6-0.46,0.89c-0.08,0.15-0.15,0.3-0.23,0.44l-0.06,0.11l-0.07,0.14l-0.11,0.23c-0.15,0.31-0.3,0.61-0.45,0.92
			c-0.3,0.61-0.58,1.22-0.87,1.83c-0.14,0.3-0.29,0.61-0.42,0.91c-0.13,0.3-0.27,0.61-0.4,0.91c-0.59,1.34-1.13,2.67-1.64,3.98
			c2.29,0.78,4.27,1.58,6.05,2.44C149.32,106.95,149.79,105.53,150.3,104.1z M132.93,101.43c-0.08-0.51-0.18-1.01-0.25-1.53
			c-0.07-0.51-0.14-1.03-0.22-1.54c-0.04-0.26-0.07-0.52-0.11-0.77c-0.04-0.26-0.06-0.52-0.09-0.78c-0.06-0.52-0.12-1.04-0.17-1.56
			c-0.06-0.52-0.1-1.04-0.14-1.56c-0.04-0.52-0.09-1.04-0.13-1.56c-0.07-1.04-0.11-2.08-0.17-3.11c-0.02-1.03-0.05-2.05-0.07-3.07
			c0.01-1.01,0.01-2.01,0.02-3c0.02-0.98,0.07-1.95,0.1-2.9c0.01-0.24,0.01-0.47,0.03-0.71c0.02-0.23,0.03-0.47,0.05-0.7
			c0.03-0.46,0.06-0.92,0.1-1.37c0.03-0.45,0.06-0.9,0.1-1.33c0.04-0.44,0.09-0.87,0.13-1.29c0.04-0.42,0.09-0.84,0.13-1.25
			c0.02-0.2,0.04-0.41,0.06-0.61c0.02-0.2,0.05-0.4,0.08-0.59c0.11-0.78,0.21-1.53,0.3-2.25c0.02-0.18,0.05-0.35,0.07-0.53
			c0.02-0.17,0.05-0.35,0.08-0.51c0.06-0.34,0.11-0.66,0.16-0.98c0.11-0.63,0.21-1.23,0.3-1.78c0.05-0.27,0.09-0.54,0.14-0.79
			c0.05-0.25,0.1-0.49,0.14-0.71c0.08-0.4,0.15-0.76,0.22-1.08c2.06,2.37,1.58,6.19,1.58,6.19l0.51-2.02l0.28,5.58l0.68-3.25
			c0.92,2.52,0.13,8.51,0.13,8.51l0.77-3.52c1.12,2.24-0.4,7.32-0.4,7.32c2.7-2.84,3.32-6.07,3.04-9.01
			c-0.12-1.25-0.67-3.23-1.17-4.39l-1.24-2.88c0.55,0.04,1.08,0.37,1.56,0.85l-0.15-1.67l2.59,5.33l-0.07-2.47
			c1.9,2.37,2.5,6.47,2.5,6.47l-0.09-2.4l1.85,3.75c0.2-1.4,0.24-2.65,0.16-3.76c-0.3-6.6-5.94-9.33-5.94-9.33l3.94,1.49l-1.53-1.4
			c3.28,1.15,5.76,4.14,5.76,4.14l-1.77-3.14c1.97,0.76,5.42,4.63,5.42,4.63l-1.92-2.73c2.61,0.89,3.64,3.44,3.64,3.44
			c-1.27-10.05-14.65-8.63-16.32-8.42l2-0.28l4.06-0.56l-2.38-0.73c0.71-0.41,4.38,0.46,4.38,0.46l-1.83-0.66l4.56,0.29l-3.15-0.79
			c2.01-0.48,3.93,0.68,3.93,0.68c-0.97-2.59-4.14-2.02-4.14-2.02l1.77-1.32l-2.3,0.22l4.59-1.92l-2.72,0.53
			c1.33-1.08,4.37-1.76,4.37-1.76c-6.31-1.9-13.35,2.47-13.35,2.47c0.71-2.44,4.09-5.64,4.09-5.64l-2.4,1.53
			c0.17-0.89,4.85-4.94,4.85-4.94l-1.61,0.7l2.72-2.03c-6.95-0.59-9.42,6.43-9.98,8.47c0,0,0.32-4.88-2.08-8.85
			c-1.06-1.82-3.08-3.81-5.26-4.31c-0.06-0.03-0.12-0.06-0.18-0.08c0,0,0.06,0.03,0.16,0.08c-0.03-0.01-0.06-0.01-0.08-0.02
			c0.06,0.08,0.12,0.16,0.18,0.24c1.14,1.46,2,3.12,2.35,4.91c0.28,1.45,0.35,2.66,0.24,2.75l-2.16-1.65
			c-0.1-0.09-0.2-0.16-0.3-0.23l3.79,5.83l-2.48-2.19c0.73,1.02,1.26,2.11,1.63,3.02c0.39,1.31,0.7,2.15,0.7,2.15
			c-6.43-11.41-18.78-4.92-18.78-4.92s4.39-0.94,6.96,0.1l-3,0.26c0,0,6.77,0.43,8.52,1.93l-4.3-0.52c0,0,6.39,1.57,7.57,3.19
			l-2.39-0.6c2.44,1.39,4.11,2.58,4.11,2.58c-17.41-5.55-19.04,13.82-19.04,13.82s2.63-5.39,4.35-5.99l-2.1,3.93
			c0,0,3.87-5.35,6.5-6.55l-2.52,3.7c0,0,5.46-5.56,7.84-5.99l-1.19,2.4l3.92-2.4l-1.78,1.45c1.18-0.5,2.18-0.89,2.9-1.16
			c-0.61,0.24-1.18,0.5-1.7,0.77l-2.88,2.72l1.22-0.02c-2.33,1.5-3.44,4.82-3.44,4.82l2-2.31c-2.24,3.03-2.18,7.04-2.18,7.04
			l1.01-2.64c-0.67,2.17,0.07,5.51,0.07,5.51l2-3.08c0,0-0.85,2.55-0.6,2.41c0.25-0.15,2.84-4.07,3.29-5.58c0,0-1.05,4.01-1,3.96
			c0.06-0.05,1.79-3.63,2.38-5.96l0.04,3.34l1.53-6.08c0,0,0.23,0.28,0.45,0.57c-0.03,0.14-0.07,0.29-0.1,0.44
			c-0.13,0.54-0.26,1.13-0.41,1.76c-0.07,0.31-0.15,0.64-0.23,0.97c-0.04,0.17-0.08,0.34-0.11,0.51c-0.03,0.17-0.07,0.35-0.11,0.53
			c-0.14,0.71-0.29,1.46-0.45,2.24c-0.04,0.2-0.08,0.39-0.11,0.59c-0.03,0.2-0.07,0.4-0.1,0.61c-0.07,0.41-0.14,0.82-0.21,1.25
			c-0.07,0.42-0.14,0.85-0.21,1.29c-0.07,0.44-0.12,0.89-0.19,1.34c-0.06,0.45-0.12,0.91-0.18,1.38c-0.03,0.23-0.06,0.47-0.09,0.7
			c-0.03,0.24-0.05,0.47-0.08,0.71c-0.09,0.96-0.2,1.93-0.29,2.93c-0.07,1-0.14,2.01-0.21,3.04c-0.04,1.03-0.08,2.07-0.12,3.12
			c-0.01,1.05-0.03,2.12-0.02,3.18c0.01,0.53,0.02,1.07,0.03,1.6c0.01,0.54,0.01,1.07,0.05,1.61c0.03,0.54,0.05,1.07,0.08,1.61
			c0.01,0.27,0.02,0.54,0.04,0.8c0.02,0.27,0.04,0.53,0.06,0.8c0.04,0.53,0.08,1.07,0.12,1.6c0.05,0.53,0.11,1.06,0.16,1.59
			c0.03,0.33,0.07,0.66,0.11,0.99c1.5,0.03,3.02,0.15,4.56,0.35C133.17,102.83,133.04,102.14,132.93,101.43z"/>
		<path class="st70" d="M189.32,142.54c-25.84-21-29.28-28.82-40.42-34.21c-1.78-0.86-3.76-1.66-6.05-2.44
			c-0.95-0.32-1.95-0.64-3.02-0.96c-2.2-0.66-4.38-1.12-6.52-1.41c-1.54-0.21-3.06-0.32-4.56-0.35
			c-17.29-0.33-31.51,10.74-36.43,23.04c7.42-10.39,31.7-23.78,51.97-5.44c20.79,18.81,21.28,32.67,45.04,42.56
			c27.99,11.66,60.88-4.95,60.88-4.95S221,168.28,189.32,142.54z"/>
		<path class="st71" d="M232.01,36.44c9.23,0,16.71,7.48,16.71,16.71s-7.48,16.71-16.71,16.71s-16.71-7.48-16.71-16.71
			S222.78,36.44,232.01,36.44z"/>
	</g>
</g>
</svg>
