<?xml version="1.0" encoding="utf-8"?>
<!-- Generator: Adobe Illustrator 27.8.1, SVG Export Plug-In . SVG Version: 6.00 Build 0)  -->
<svg version="1.1" xmlns="http://www.w3.org/2000/svg" xmlns:xlink="http://www.w3.org/1999/xlink" x="0px" y="0px"
	 viewBox="0 0 350 230" style="enable-background:new 0 0 350 230;" xml:space="preserve">
<style type="text/css">
	.st0{fill-rule:evenodd;clip-rule:evenodd;fill:#A6D63C;}
	.st1{fill-rule:evenodd;clip-rule:evenodd;fill:#00A0D1;}
	.st2{fill:#421C00;}
	.st3{fill-rule:evenodd;clip-rule:evenodd;fill:#FFFFFF;}
	.st4{fill:#699AE2;}
	.st5{fill:#3B7DC4;}
	.st6{fill:#AF7500;}
	.st7{fill:#FFDF00;}
	.st8{fill:#1A0256;}
	.st9{fill:#00594F;}
	.st10{fill:#00779B;}
	.st11{fill:#0074FF;}
	.st12{fill:#194A91;}
	.st13{fill-rule:evenodd;clip-rule:evenodd;fill:#EFEFEF;}
	.st14{fill:#044159;}
	.st15{fill:#4C2900;}
	.st16{fill:#FFFFFF;}
	.st17{fill:#FFB41F;}
	.st18{fill:#FF5A00;}
	.st19{fill:#680404;}
	.st20{fill:#03AA6F;}
	.st21{fill:#FB5968;}
	.st22{fill:#FFD24A;}
	.st23{fill:#055EBC;}
	.st24{fill:#6F6F6F;}
	.st25{fill:#454545;}
	.st26{fill:#BA1A00;}
	.st27{fill:#0071BC;}
	.st28{fill:none;stroke:#FFFFFF;stroke-width:2;stroke-miterlimit:10;}
	.st29{fill:#3D3600;}
	.st30{fill:#5B4E03;}
	.st31{fill:#685900;}
	.st32{fill:none;stroke:#2E8EFF;stroke-width:2;stroke-linecap:round;stroke-miterlimit:10;}
	.st33{fill:none;stroke:#3D3600;stroke-width:2;stroke-linecap:round;stroke-miterlimit:10;}
	.st34{fill:#6F0393;}
	.st35{fill:none;}
	.st36{fill:#96D7FF;}
	.st37{fill:#0C5100;}
	.st38{fill:#FFE856;}
	.st39{fill:#803971;}
	.st40{fill:#D3CECD;}
	.st41{fill:#4C241D;}
	.st42{fill:#EA3200;stroke:#4C241D;stroke-linecap:round;stroke-linejoin:round;stroke-miterlimit:50;}
	.st43{fill:#11930A;stroke:#4C241D;stroke-linecap:round;stroke-linejoin:round;stroke-miterlimit:50;}
	.st44{fill:#3792CF;}
	.st45{fill:#FEE36F;}
	.st46{fill:#136296;}
	.st47{fill:#53C2BA;}
	.st48{fill:#6D6D00;}
	.st49{fill:#001087;}
	.st50{fill:#F19333;}
	.st51{fill:#1554A1;}
	.st52{fill:#8E0000;}
	.st53{fill:#C46B02;}
	.st54{fill:#FFD662;}
	.st55{fill:#01539D;}
	.st56{fill:#007777;}
	.st57{fill:#3CAF47;}
	.st58{fill:#31575B;}
	.st59{fill:#7BBBFF;}
	.st60{fill:#513800;}
	.st61{fill:#009D5A;}
	.st62{fill:#C9A37C;}
	.st63{fill:#DB504A;}
	.st64{fill:#084C61;}
	.st65{opacity:0.3;fill:#BCBEC0;enable-background:new    ;}
	.st66{fill:#069A8E;}
	.st67{fill:#0A4D68;}
	.st68{fill:#190707;}
	.st69{fill:#39B54A;}
	.st70{fill:#01A9DB;}
	.st71{fill:#DF7401;}
	.st72{fill:#0F0F4F;}
	.st73{fill:#232365;}
	.st74{fill:#2169AA;}
	.st75{fill:#00828C;}
	.st76{fill:#00A4BA;}
	.st77{fill:#007CC1;}
	.st78{fill:#FF0000;}
	.st79{fill:#313341;}
	.st80{fill:#C9C9C9;}
	.st81{fill:#0C3F00;}
	.st82{fill:#00153A;}
	.st83{fill:#056168;}
	.st84{fill:#08E8FF;}
	.st85{fill:#00B7FF;}
	.st86{fill:#590060;}
	.st87{fill:#FF78DC;}
</style>
<g id="Layer_1">
</g>
<g id="Layer_2">
</g>
<g id="Layer_3">
</g>
<g id="Layer_4">
</g>
<g id="Layer_5">
</g>
<g id="Layer_6">
</g>
<g id="Layer_7">
</g>
<g id="Layer_8">
</g>
<g id="Layer_9">
</g>
<g id="Layer_10">
</g>
<g id="Layer_11">
</g>
<g id="Layer_12">
</g>
<g id="Layer_13">
</g>
<g id="Layer_14">
</g>
<g id="Layer_15">
	<g>
		<g>
			<path class="st50" d="M171.59,71.52c0,4.41-6.59,7.47-13.62,6.91l-8.02-0.63l-7.02,20.14c-0.13,0.37-0.29,0.73-0.5,1.05
				c-0.06,0.1-0.14,0.21-0.22,0.31c-0.16,0.2-0.33,0.39-0.5,0.57c-0.9,0.88-2.13,1.42-3.45,1.43l-2.81,0.02l-0.28-23.95
				c-37.15,8.75-63.05,45.74-65.05,72.5c-2.2,29.41,27.77,29.41,27.77,29.41c-25.84,24.19-72.3,1.93-41.52-51.24
				c20.58-35.55,53.05-48.79,71.01-53.28h0.01c0.02,0,0.02,0,0.03-0.02c0.3-0.08,0.5-0.38,0.43-0.69c-0.06-0.32-0.36-0.52-0.68-0.46
				h-0.03c-0.02,0-0.02,0-0.04,0.02c-12.8,2.3-25.3,6.49-37.19,11.98c11.61-6.03,23.98-10.82,36.82-13.77
				c0.02,0,0.04-0.02,0.05-0.02c0.27-0.06,0.45-0.3,0.42-0.58c-0.03-0.29-0.29-0.5-0.6-0.47c-0.02,0-0.04,0.01-0.06,0.01
				c-38.7,5.83-83.24,27.83-97.14,56.45c-15.5,31.92,6.37,54.26,6.88,54.78c-21.71-14.08-35.16-56.85,13.76-89.1
				c35.33-23.29,63.05-25.32,82.13-26.52l2.86,0.06l-0.29-25.39l2.81-0.03c2.11-0.02,4.01,1.27,4.76,3.25l7.84,20.98l7.8-0.61
				c0.55-0.04,1.1-0.06,1.64-0.06C165.99,64.54,171.59,67.45,171.59,71.52z M87.99,140.24c-1.34,26.08,21.44,27.22,21.44,27.22
				c-7.97,10.45-34.36,11.82-33.81-17.59s27.95-50.58,27.95-50.58S89.33,114.16,87.99,140.24z M29.99,97.08
				c23.46-27.28,81.93-32.54,81.93-32.54C11.02,84.5,13.16,142.44,13.16,142.44S7.99,122.64,29.99,97.08z"/>
			<path class="st51" d="M102.42,100.62c-5.87,7.01-31.66,40.37-18.22,70.63c8.29,5.66,20.3,2.68,25.24-3.79
				c0,0-22.78-1.14-21.44-27.22C89.1,118.7,99.01,104.8,102.42,100.62z M13.16,142.44c0,0-1.64-44.47,65.8-68.92
				C59.1,78.56,44.05,86.11,32.72,94.16c-0.95,0.94-1.87,1.91-2.73,2.92C7.99,122.64,13.16,142.44,13.16,142.44z M70.13,149.86
				c2-26.75,27.9-63.75,65.05-72.49c0,0-50.17,5.66-72.9,60.09c-8.81,21.1-2.6,39.34,17.9,50.98c6.21-1.18,12.4-4.19,17.71-9.16
				C97.89,179.28,67.93,179.28,70.13,149.86z M171.59,71.52c0,4.41-6.59,7.47-13.61,6.91l-8.03-0.63
				c-4.31-0.04-11.13-0.29-13.72-0.38c-0.05,0-0.11-0.01-0.15-0.01c-0.29-0.03-0.58-0.04-0.9-0.03c8.52-0.47,36.3-2.77,30.61-11.84
				C169.21,66.71,171.59,68.87,171.59,71.52z M142.93,97.93c-0.13,0.37-0.29,0.73-0.5,1.05C142.64,98.66,142.81,98.31,142.93,97.93
				l7.02-20.14L142.93,97.93z M36.31,181.97c0,0-22.58-22.49-6.9-54.79c13.9-28.61,58.44-50.62,97.14-56.45
				c0.01,0,0.03-0.01,0.05-0.01c0,0-45.56,3.65-74.22,26.07s-30.93,38.76-30.52,58.28c0.21,9.77,7.13,19.41,14,26.6
				C36.02,181.78,36.17,181.88,36.31,181.97z"/>
		</g>
	</g>
</g>
</svg>
