<?xml version="1.0" encoding="utf-8"?>
<!-- Generator: Adobe Illustrator 27.8.1, SVG Export Plug-In . SVG Version: 6.00 Build 0)  -->
<svg version="1.1" xmlns="http://www.w3.org/2000/svg" xmlns:xlink="http://www.w3.org/1999/xlink" x="0px" y="0px"
	 viewBox="0 0 350 230" style="enable-background:new 0 0 350 230;" xml:space="preserve">
<style type="text/css">
	.st0{fill:#003F49;}
	.st1{fill:#8E032B;}
	.st2{fill:#87622B;}
	.st3{fill:#83014C;}
	.st4{fill:#B72204;}
	.st5{fill:#015254;}
	.st6{fill:#5B9C40;}
	.st7{fill:#0055B6;}
	.st8{fill-rule:evenodd;clip-rule:evenodd;fill:#3A1D03;}
	.st9{fill-rule:evenodd;clip-rule:evenodd;fill:#723600;}
	.st10{fill:#00438D;}
	.st11{fill:#162E50;}
	.st12{fill:#F6921E;}
	.st13{fill:#00237A;}
	.st14{fill:#563B00;}
	.st15{fill:#00FFB6;}
	.st16{fill:#9500FF;}
	.st17{fill:#440000;}
	.st18{fill:#45EDFF;}
	.st19{fill:#CC7F7F;}
</style>
<g id="Layer_1">
</g>
<g id="Layer_2">
	<path class="st2" d="M249.24,90.97c-0.25-7.89-1.66-15.76-4.34-23.19c-2.69-7.52-6.64-14.59-11.59-20.87
		c-4.21-5.32-9.14-10.03-14.59-14.07c-7.09-5.22-15.14-9.16-23.61-11.53c-8.49-2.4-17.4-3.18-26.19-2.49
		c-13.21,1.09-26.13,5.79-36.84,13.58c-12.53,8.94-22.23,21.8-27.26,36.36c-4.85,13.99-5.32,29.4-1.75,43.74
		c2.03,7.95,5.36,15.57,9.82,22.45c8.32,12.82,20.61,23.11,34.88,28.66c6.23,2.47,12.8,4.05,19.46,4.77
		c17.13,1.87,34.82-2.53,49.12-12.1c7.27-4.85,13.66-11.03,18.74-18.16c3.04-4.13,5.61-8.61,7.68-13.31
		C247.54,114.24,249.64,102.55,249.24,90.97z M207.75,54.5c6.57,0.04,13.11,0.06,19.68,0.1c1.31,0.04,2.61-0.08,3.9,0.08
		c0.58,0.92,0.7,2.08,0.82,3.16c0.14,1.19-0.16,2.34-0.25,3.53c-0.02-1.36-0.16-2.73-0.51-4.03c-0.23-0.68-0.53-1.75-1.42-1.71
		c-5.85-0.04-11.69-0.04-17.54-0.04c-4.42-0.04-8.83,0.14-13.23,0.49l0.04,0.19c0.08,0.78,0.08,1.58,0.02,2.38
		c-0.33,0.43-0.19,0.97-0.19,1.48c-0.04,0.12-0.12,0.35-0.16,0.49c0-0.06,0-0.19,0-0.25c0.04-1.42-0.19-2.83-0.02-4.23
		c-0.37-0.55-0.78-1.05-1.23-1.52C201.03,54.42,204.4,54.54,207.75,54.5z M117.58,58.41c0.08-1.15,0.19-2.34,0.66-3.41
		c0.16-0.33,0.57-0.21,0.86-0.27c11.24-0.04,22.46-0.14,33.71-0.06c-0.41,0.53-0.95,0.97-1.23,1.6c-0.06,0.9,0.06,1.81-0.02,2.71
		c-0.08-0.04-0.25-0.12-0.35-0.16c-0.02-0.82,0-1.64-0.02-2.45l0.04-0.12c-0.74-0.06-1.46-0.1-2.2-0.12
		c-3.06-0.33-6.14-0.27-9.2-0.43c0.02,0.14,0.08,0.43,0.12,0.57c-0.16,1.13-0.16,2.3-0.12,3.43c-0.08,0-0.23,0.02-0.31,0.02
		c0-1.21-0.04-2.45,0.27-3.64c-0.08-0.12-0.16-0.23-0.21-0.35c-6.37-0.06-12.76-0.02-19.13,0.02c-0.53,0.04-1.27-0.08-1.52,0.53
		c-0.76,1.4-0.88,3.06-0.94,4.64c-0.04-0.04-0.12-0.1-0.16-0.14C117.84,59.99,117.53,59.21,117.58,58.41z M115.85,63.73
		c0.14-0.51,0.72-0.35,1.11-0.39c6.82,0.04,13.66,0.18,20.48,0.16c5.46,0.04,10.89,0.12,16.35,0.16c0.64-0.04,0.78,0.7,0.88,1.19
		c0.1,0.94,0.23,1.97-0.19,2.84c-0.06-0.02-0.19-0.08-0.25-0.1V67.4c-0.06-1.05,0.04-2.14-0.19-3.18c-1.34-0.08-2.71-0.08-4.05-0.12
		c-1.19-0.1-2.38-0.06-3.58-0.08c-2.12-0.02-4.23-0.04-6.35-0.08c0.04,1.4-0.02,2.81,0.02,4.21c0,0.86,0.25,1.7,0.19,2.57
		c-0.16-0.86-0.21-1.73-0.37-2.59c-0.16-1.38-0.19-2.81,0.1-4.17c-6.55-0.1-13.11-0.04-19.66-0.02c-1.23,0.06-2.47-0.1-3.68,0.12
		c-0.47,0.8-0.66,1.73-0.78,2.65c-0.1,0.7-0.1,1.42-0.14,2.12c-0.1,0.31-0.19,0.62-0.23,0.95
		C115.17,67.79,115.15,65.68,115.85,63.73z M127.29,108.23c-3.41,1.21-7.13,1.36-10.68,0.86c-2.9-0.41-5.75-1.6-7.93-3.58
		c-0.35-0.37-0.84-0.57-1.29-0.78c-0.19-0.31-0.12-0.72-0.16-1.07c0.47-0.06,1.05,0.12,1.46-0.12c1.83-7.07,3.86-14.11,5.75-21.18
		c0.23-0.9,0.62-1.79,0.72-2.71c-0.31-1.62-0.18-3.25-0.37-4.89c0.06-1.17,0.16-2.38,0.64-3.47c0.23,0.06,0.49,0.12,0.72,0.16
		c0.41,0,0.84-0.04,1.25-0.06c0.41-0.94,0.7-1.91,1.03-2.86c0.04-0.1,0.12-0.29,0.16-0.39c-0.97-1.19,0.51-2.92,1.85-2.57
		c0.64,0.12,0.86,0.95,1.54,0.97c1.64,0.29,3.23,0.76,4.75,1.44c-0.06-1.31,0.06-2.73,0.92-3.78c-0.39,1.27-0.7,2.57-0.55,3.9
		c0.45,0.29,0.92,0.57,1.38,0.84c0.39,0.23,0.76,0.49,1.13,0.74c-0.64-0.27-1.27-0.57-1.91-0.82c-0.33-0.14-0.66-0.27-0.99-0.41
		c-0.02,0-0.08-0.04-0.12-0.04c-1.6-0.72-3.31-1.23-5.07-1.36c-0.1,0.41-0.23,0.82-0.06,1.23c0.27,1.03,0.37,2.08,0.72,3.1
		c9.49-0.08,18.98,0,28.47-0.12c0.78,0,1.56-0.02,2.36,0c0.19,0.04,0.41,0.08,0.62,0.14c-0.29,0.23-0.66,0.23-1.03,0.23
		c-5.71-0.04-11.44,0.02-17.15,0.06c-1.32,0.04-2.63,0.12-3.96,0.14c-3.7,0.02-7.42,0.08-11.13-0.04c-0.08,0-0.21,0-0.27,0.02
		c-0.68,3.59-1.19,7.21-1.79,10.81h0.18c1.52,0.04,3.04,0.08,4.56,0.1c0.35,0,0.68,0.02,1.03,0.02c-0.35-1.64-0.66-3.27-0.97-4.91
		c-0.02-0.06-0.04-0.19-0.06-0.27c-0.06-0.33-0.12-0.68-0.18-1.01c-0.27-1.54-0.51-3.08-0.78-4.62c0.08,0.04,0.25,0.12,0.33,0.16
		c0.06,1.5,0.51,2.96,0.72,4.44c0.39,2.08,0.76,4.17,1.27,6.22c3.55-0.02,7.07,0.02,10.62-0.02c-0.31,0.43-0.86,0.31-1.31,0.33
		c-3.12-0.02-6.23-0.04-9.35-0.06c0.14,0.58,0.25,1.17,0.39,1.75c0.19,0.9,0.29,1.79,0.49,2.69c0.45,2.32,0.86,4.64,1.34,6.94
		c0.95,0.04,1.91,0,2.86,0.02c-0.04,0.14-0.12,0.43-0.16,0.57c-0.88-0.02-1.73,0-2.61,0c0.06,0.31,0.14,0.62,0.19,0.94
		c0.21,1.15,0.45,2.3,0.66,3.43c0.18,1.25,0.6,2.47,0.68,3.74c-0.27-0.19-0.33-0.55-0.39-0.86c-0.02-0.08-0.04-0.21-0.06-0.27
		c-0.21-0.94-0.43-1.85-0.6-2.79c-0.29-1.4-0.53-2.83-0.88-4.23c-1.46,0.02-2.92,0.02-4.4,0.02c0.06,1.42,0.12,2.84,0.21,4.25
		c0,0.08,0,0.25,0.02,0.35v0.23c0,0.76,0.04,1.52,0.14,2.26c0,0.1,0.02,0.31,0.02,0.43c0.02,0.37,0.04,0.76,0.06,1.15
		c1.97-0.04,3.94,0.04,5.9-0.06c-0.06,0.49-0.1,0.97-0.16,1.46c-4.7,0.06-9.37,0.1-14.07,0.04c-1.36,0.02-2.73-0.06-4.09,0.06
		c0.7,1.09,1.87,1.75,3,2.34c2.49,1.25,5.36,1.48,8.11,1.32c2.26-0.16,4.54-0.53,6.66-1.36
		C127.72,107.75,127.7,108.18,127.29,108.23z M151.8,75.01c-0.06-0.02-0.18-0.06-0.23-0.06c-0.08-0.62-0.08-1.25-0.1-1.87
		c0.08,0,0.23-0.02,0.31-0.02C151.84,73.71,151.86,74.35,151.8,75.01z M139.93,79.09c-0.06-0.66,0.02-1.32-0.04-2.01
		c-0.1-1.54-0.08-3.06-0.04-4.6c0.06,0,0.18,0,0.23,0c0,1.48,0.06,2.98-0.02,4.48C139.95,77.66,140.09,78.39,139.93,79.09z
		 M126.84,76.48c0.29-1.42-0.25-3.18,0.95-4.31c-0.62,1.38-0.6,2.9-0.6,4.38c-0.02,0.47-0.02,0.95-0.02,1.42
		c0.43,0.29-0.02,0.9,0.35,1.25c0.02,0.43,0.1,0.86,0.27,1.25c0.12,0.39,0.25,0.78,0.37,1.17c0.14,0.18,0.27,0.37,0.39,0.57
		c-0.35-0.29-0.53-0.72-0.72-1.11c0-0.23-0.08-0.43-0.19-0.6c-0.18-0.76-0.45-1.52-0.43-2.3l-0.18,0.02
		C126.99,77.63,127.17,76.98,126.84,76.48z M130.07,115.74c-0.51,0.51-0.51,1.27-0.76,1.89c-0.45-1.23,0.55-2.3,1.17-3.25
		C131.05,114.82,130.33,115.35,130.07,115.74z M128.71,90.35c-0.02,0.21-0.02,0.43-0.04,0.64c-0.06-0.45-0.1-0.9-0.08-1.34
		c0.14-1.73-0.37-3.51,0.25-5.18c0.1,0,0.29-0.02,0.41-0.02c-0.06,0.06-0.19,0.16-0.25,0.21c-0.14,0.94-0.31,1.85-0.29,2.79
		C128.67,88.42,128.73,89.37,128.71,90.35z M129.24,129.59c-0.31-0.16-0.64-0.29-0.95-0.43c0.1,1.38,0.27,2.81-0.19,4.15
		c-0.02-0.14-0.08-0.39-0.1-0.51c0.33-1.4,0.02-2.83-0.14-4.21c0.23-1.13,0.88-2.16,0.95-3.31c-0.08-1.27-0.7-2.57-0.12-3.8
		c0.1,0.1,0.25,0.29,0.35,0.39c-0.49,1.27,0.8,2.47,0.27,3.72c-0.27,0.99-0.84,1.91-0.97,2.92c0.94,1.13,2.47,1.54,3.86,1.77
		C131.16,130.25,130.13,130.06,129.24,129.59z M141.16,112.95c-0.25-0.02-0.49-0.06-0.72-0.1c-2.22-0.43-4.52,0-6.59,0.84
		c-0.97,0.43-1.95,1.03-2.47,2.01c-0.31,0.18-0.62,0.35-0.95,0.53c0.31-0.97,0.99-1.77,1.73-2.47c2.16-0.88,4.46-1.66,6.82-1.46
		c1.09,0.04,2.12,0.45,3.14,0.82l-0.33-0.57c0.49,0.45,1.03,0.82,1.52,1.25c0.97,0.19,1.56,1.05,2.22,1.71
		C144.24,114.39,142.78,113.51,141.16,112.95z M143.22,93.12c0.58,2.14,1.29,4.27,1.89,6.41c0.37,1.38,0.66,2.79,0.92,4.19
		c-0.16,0.51-0.19,1.05-0.16,1.58c-0.97-3.55-2.36-6.96-3.49-10.46c-0.78-2.3-1.56-4.62-2.26-6.96c-0.25-0.88-0.51-1.75-0.66-2.65
		c-1.87,2.61-3.14,5.71-3.41,8.92c-0.19,2.2,0.12,4.38,0.53,6.53c-0.62-1.79-1.13-3.62-1.4-5.51c-0.25,1.46-0.29,2.96-0.16,4.44
		c-0.47,0.58,0,1.44-0.43,2.05c-0.18-0.29-0.33-0.58-0.51-0.88c-0.45,2.2-0.6,4.44-0.72,6.68c-0.02,0.8-0.06,1.73,0.49,2.38
		c0.66,0.76,1.71,0.94,2.67,1.03c-0.64,0.04-1.32,0.06-1.87,0.43c-0.6,0.37-1.17,0.82-1.71,1.27c-0.29,0.25-0.49,0.6-0.68,0.92
		c-0.37,0.31-0.84,0.39-1.32,0.31c0.16-0.21,0.35-0.43,0.35-0.7c0.14-1.62,0.49-3.23,0.58-4.85c0.12-1.64,0.39-3.25,0.57-4.87
		c0.45-3.7,0.62-7.46,1.62-11.09c0.43-1.68,0.97-3.35,1.93-4.81c0.84-1.32,1.97-2.45,3.14-3.51c0.45-0.37,0.9-0.84,1.52-0.92
		c4.33-1.34,8.57-2.84,12.82-4.4c0.92-0.37,1.85-0.74,2.71-1.23c1.29-0.78,1.99-2.2,2.83-3.39c1.75-2.63,3.99-4.91,6.57-6.74
		c0.35-0.43,0.55-1.01,1.11-1.27c0.33-3.9-0.99-7.64-1.52-11.46c-0.58-0.04-1.27-0.1-1.6-0.66c-0.68-1.09-1.03-2.38-1.25-3.64
		c-0.21-1.19-0.58-2.36-0.55-3.57c-0.02-0.41,0.29-0.68,0.51-0.99c0.27-0.06,0.55-0.12,0.82-0.16c-0.51-0.84-0.57-1.83-0.88-2.73
		c-0.37-1.05-0.64-2.14-0.92-3.21l0.16-0.21c0.1,0,0.27,0.02,0.37,0.02c-0.82-0.55-1.32-1.73-0.88-2.67c0.45,0.9,0.6,1.97,1.34,2.71
		c0.04,0.16,0.08,0.29,0.12,0.45c-0.1-0.16-0.29-0.45-0.39-0.6c-0.29,1.01,0.29,1.99,0.51,2.96c0.02,0.1,0.08,0.29,0.1,0.37
		c0.31,1.11,0.55,2.26,0.9,3.35c0.06,0.25,0.1,0.51,0.12,0.76c-0.31-0.29-0.86-0.72-1.19-0.21c-0.35,0.78,0.1,1.62,0.16,2.44
		c0.18,1.62,0.51,3.29,1.44,4.66c0.14,0.29,0.49,0.29,0.76,0.35c-0.23-1.31-0.53-2.71-0.1-3.99c0.49,0.97,0.72,2.03,0.97,3.08
		c0.06,0.58,0.12,1.19,0.29,1.75c0.16,0.62,0.43,1.23,0.82,1.73c-0.25-0.12-0.53-0.21-0.8-0.31c0.57,1.85,0.55,3.88,1.5,5.59
		c1.17,1.68,2.55,3.18,3.92,4.68c0.99,1.07,2.16,2.1,3.64,2.36c0.49,0.06,1.03,0.23,1.48-0.06l-0.12,0.12c0.74,0,1.46,0,2.2,0.02
		c1.32,0.04,2.53-0.68,3.45-1.58c1.13-1.09,1.85-2.53,2.92-3.7c0.7-0.76,1.52-1.48,1.81-2.49c0.45-1.44,0.7-2.96,0.66-4.46
		c0.08-0.23,0.16-0.47,0.23-0.7c-0.25,0.29-0.51,0.6-0.74,0.92c0.45-1.01,0.58-2.12,0.49-3.23c0.9-0.95,0.92-2.36,1.4-3.51
		c0.1-0.25,0.43-0.29,0.62-0.43c0.19,1.07,0.06,2.16-0.18,3.23c-0.16,0.31-0.29,0.62-0.41,0.94c0.33-0.21,0.8-0.43,0.62-0.92
		c0.12-0.02,0.37-0.08,0.49-0.12c-0.14-0.02-0.43-0.04-0.57-0.06c0.12-0.49,0.27-0.97,0.43-1.44l0.02-0.06
		c0.33-0.19,0.39-0.58,0.47-0.94c-0.02,0.18-0.04,0.35-0.06,0.55c-0.33,0.58-0.6,1.21-0.68,1.87c0.9-0.53,1.05-1.71,1.17-2.67
		c0.12-1.31,0.35-2.63,0.18-3.94c-0.19,0.1-0.41,0.21-0.6,0.31c-0.41,0.23-0.74,0.57-0.88,1.01c-0.82,0.53-1.85,0.23-2.77,0.33
		c0.1-0.25,0.66-0.57,0.23-0.8c-0.84-0.39-1.79-0.47-2.67-0.14c1.03-0.58,2.16-0.1,3.21,0.16c-0.08-0.19-0.21-0.57-0.27-0.76
		c-0.02-1.05-0.02-2.12-0.29-3.14c-0.19-0.99-0.53-2.16,0.06-3.1c0.16,0.55,0.35,1.07,0.76,1.48c0.04,0.47,0.06,0.94,0.14,1.38
		c0.06,0.68,0.25,1.34,0.6,1.91c0.55,0.82,0.47,1.85,0.57,2.79c0.74-1.25,0.92-2.75,1.29-4.13c0.41-1.5,0.84-3.02,0.97-4.6
		c0.08-1.85,0.06-3.8-0.72-5.51c-0.94-0.53-1.87-1.05-2.92-1.27c1.05,0.14,2.07,0.53,2.92,1.17c-0.43-1.34-1.13-2.61-2.05-3.66
		c-0.9-1.01-2.28-1.21-3.55-1.38c0.7,1.01,0.66,2.32,0.45,3.47c-0.16,0.64-0.37,1.29-0.64,1.89c-0.14,0.27-0.27,0.53-0.41,0.78
		c-0.35,0.62-0.74,1.21-1.07,1.83c1.52-0.43,2.92-1.36,4.56-1.36c-1.62,0.06-3,0.99-4.54,1.4c-0.08,0.08-0.21,0.25-0.27,0.33
		c0.64-1.23,1.23-2.51,1.6-3.86c0.35-1.15,0.55-2.44,0.08-3.59c-0.27-0.72-0.92-1.19-1.52-1.6c-1.6-1.05-3.27-2.03-5.03-2.77
		c-1.52-0.62-3.2-1.07-4.83-0.78c-2.47,0.41-4.72,1.71-6.64,3.25c-1.25,1.03-2.44,2.2-3.16,3.68c-0.88,1.75-1.68,3.6-1.7,5.61
		l-0.25-0.18c-0.06-0.12-0.12-0.23-0.18-0.35c0.04,0,0.14,0.02,0.18,0.02c0.02-2.32,0.86-4.58,2.12-6.49
		c2.05-2.84,5.09-4.95,8.46-5.92c1.32-0.39,2.73-0.49,4.09-0.19c2.14,0.57,4.19,1.48,6,2.75c0.74,0.49,1.36,1.13,2.16,1.48
		c1.11,0.16,2.26,0.16,3.27,0.68c1.21,0.55,2.03,1.64,2.67,2.77c0.99,1.85,1.68,3.92,1.64,6.04c-0.04,2.77-0.8,5.46-1.52,8.12
		c0.45,0.14,0.94,0.39,1.05,0.88c0.12,0.66,0,1.34-0.04,2.03c-0.21,2.03-0.33,4.21-1.54,5.92c-0.33,0.53-0.97,0.49-1.52,0.55
		c-0.19,2.16-0.43,4.34-0.9,6.47c-0.39,1.62-0.25,3.27-0.25,4.91c0.72,0.55,0.92,1.42,1.29,2.2c0.08,0.41,0.23,0.82,0.43,1.19
		c0.08,0.27,0.18,0.57,0.25,0.84c0.02,0.12,0.08,0.33,0.12,0.45c0.06,3.2-1.36,6.14-2.69,8.96c-0.74,1.36-1.29,2.83-2.14,4.13
		c-0.57-0.66-0.99-1.44-1.64-2.05c0.37,0.9,1.05,1.62,1.68,2.36c0.94-1.13,1.38-2.63,2.51-3.62c0.25-0.25,0.51-0.51,0.76-0.76
		c0,0.08-0.02,0.25-0.04,0.33c-0.51,1.31-1.23,2.51-1.85,3.76c-0.43,0.76-0.78,1.58-1.29,2.3c-1.01-2.03-2.36-3.88-3.66-5.73
		c-0.1-0.12-0.19-0.23-0.31-0.33c-0.55-0.58-1.09-1.17-1.71-1.7c-0.45-0.37-0.95-0.64-1.48-0.92c1.58-1.36,3.39-2.44,5.07-3.7
		l0.29,0.06c-1.17,1.29-2.65,2.24-3.99,3.33c-0.18,0.12-0.27,0.29-0.31,0.51c1.4-1.07,2.79-2.16,4.17-3.27
		c0.86-0.68,1.6-1.48,2.47-2.16c-0.02-0.1-0.04-0.29-0.06-0.39c1.54-1.17,2.9-2.96,2.75-5.01c-0.39,0.64-0.58,1.36-0.97,2.01
		c-0.35,0.62-0.88,1.13-1.4,1.6c0.58-0.84,1.07-1.73,1.29-2.73c0.21-0.66-0.06-1.34-0.08-2.03c-0.04-0.99-0.02-1.97-0.06-2.96
		c-0.86,1.15-1.75,2.28-2.63,3.41c-1.31,1.66-2.9,3.47-5.14,3.62c-1.91,0.08-4.09,0.33-5.69-0.94c-1.83-1.44-3.16-3.39-4.79-5.01
		c-0.37-0.45-0.78-0.88-1.19-1.27c-0.14,1.31-0.02,2.61-0.14,3.92c-0.08,0.74-0.06,1.5,0.04,2.26c-0.51-0.49-0.55-1.23-0.97-1.75
		c0.04,0.33,0.1,0.66,0.16,0.99c0.04,0.37,0.06,0.76,0.29,1.07c0.8,1.25,1.75,2.4,2.9,3.33c1.29,1.05,2.61,2.07,3.82,3.2
		c0.68,0.62,1.38,1.23,2.14,1.77c0.12,0.08,0.49,0.29,0.43-0.02c-0.99-0.78-1.95-1.6-2.9-2.44c-0.86-0.78-1.83-1.44-2.63-2.28
		c0.1-0.08,0.25-0.27,0.35-0.35c2.18,1.7,4.4,3.33,6.47,5.18c-0.23,0.1-0.49,0.21-0.72,0.31c-0.14,0.06-0.25,0.12-0.37,0.18
		c-1.05,0.64-1.87,1.62-2.69,2.53c-1.32,1.77-2.71,3.57-3.51,5.65c-1.32-2.55-2.65-5.1-3.96-7.66c0.88,0.33,1.31,1.21,1.79,1.95
		c0.7,1.07,1.29,2.2,2.03,3.23c0.12,0.1,0.25,0.45,0.43,0.23c0.55-0.45,0.99-1.05,1.25-1.71c-0.55,0.47-0.95,1.07-1.44,1.6
		c-1.15-2.07-2.14-4.21-3.21-6.31c-1.09-2.34-2.26-4.83-2.12-7.48c0.16-0.84,0.6-1.56,1.01-2.3c-0.62,0.72-1.17,1.54-1.83,2.22
		c-1.44,1.52-2.61,3.25-3.78,4.97c-0.86,1.31-1.73,2.59-2.47,3.96c-0.55,1.03-1.21,2.05-1.52,3.18c-0.27,0.66,0.45,1.19,0.39,1.87
		c0.84-1.48,1.81-2.9,2.77-4.31c-1.32,2.34-2.94,4.75-2.92,7.56c0,3.08,1.58,5.83,3.2,8.34c3.76,6.66,7.83,13.15,11.92,19.62
		c1.6,2.57,3.2,5.12,4.77,7.7c0.27,0.53,0.88,0.88,0.92,1.5c-4.15-6.41-8.2-12.88-12.29-19.33c-3.49-5.61-7.09-11.13-10.4-16.85
		c0.57-1.36,1.19-2.69,1.87-4.01c-0.19-0.12-0.37-0.25-0.55-0.37c-0.47-0.29-0.9-0.64-1.27-1.05c0.51-1.38,1.32-2.65,1.91-3.99
		c-1.36,0.88-2.71,1.75-4.21,2.36c-3.76,1.5-7.58,2.83-11.34,4.36C141.59,87.95,142.58,90.48,143.22,93.12z M165.22,47.17
		c0.16,0.25,0.47,0.35,0.72,0.49c1.19,0.68,2.61,0.29,3.92,0.41c-0.16-0.16-0.45-0.45-0.58-0.58l0.16,0.04
		c0.06,0.02,0.19,0.04,0.25,0.06l-0.02,0.18c0.25-0.02,0.47,0.04,0.62,0.19c0.35,0.04,0.7,0.12,1.03,0.23
		c-1.56-0.08-3.12-0.14-4.68-0.04c-0.68,0.04-1.4,0.08-2.05-0.18c-0.41-0.66-0.18-1.5-0.08-2.22c0.25-0.14,0.53-0.23,0.82-0.27
		C165.22,46.06,165.05,46.63,165.22,47.17z M175.96,25.53c2.07,0.21,4.05,0.95,5.86,1.97c0.88,0.49,1.89,0.95,2.34,1.91
		c-0.25-0.27-0.47-0.57-0.78-0.78C181.1,27.18,178.51,26.34,175.96,25.53z M181.65,31.16v0.16c-0.45-0.51-0.97-0.94-1.56-1.29
		c-0.02-0.04-0.04-0.1-0.06-0.12C180.67,30.18,181.24,30.61,181.65,31.16z M185.11,96.43c-1.17,4.03-2.44,8.05-3.7,12.04
		c-0.31,0.92-0.57,1.85-1.07,2.69c0.6-1.99,1.23-3.97,1.48-6.04c-0.1,0-0.29,0-0.39,0c-0.08-0.25-0.19-0.49-0.37-0.68
		c-0.84-1.11-1.71-2.18-2.57-3.27c-1.68-2.2-3.37-4.42-4.48-6.99c-0.1-0.29-0.08-0.62-0.1-0.94c0.55,1.44,1.38,2.73,2.16,4.05
		c1.32,2.05,2.71,4.03,4.21,5.96c0.49,0.66,0.94,1.38,1.6,1.89c0.27-2.32,0.57-4.66,0.31-6.98c-0.06-0.45-0.12-0.94-0.47-1.25
		c-1.11-0.99-1.85-2.32-2.67-3.55c-0.94-1.62-1.91-3.27-2.38-5.12c0.55,1.85,1.48,3.55,2.47,5.18c0.82,1.19,1.56,2.47,2.71,3.37
		c-0.02-1.23-0.55-2.36-0.99-3.49c-0.76-1.91-1.87-3.7-2.16-5.77c0.97-1.07,1.81-2.28,2.96-3.18c0.51,0.49,1.05,0.97,1.68,1.32
		c-0.02-0.21-0.08-0.62-0.12-0.82c0.55,0.82,1.05,1.68,1.62,2.49c0.27-0.72,0.74-1.32,1.17-1.97c0.78-1.17,1.46-2.38,2.07-3.62
		c-0.35,1.34-0.19,2.77-0.41,4.13C187.14,89.49,186.15,92.98,185.11,96.43z M186.99,94.01c-1.79,7.27-4.27,14.34-7.19,21.24
		c-0.08-1.23,0.66-2.28,0.84-3.47c0.16-0.7,0.45-1.38,0.68-2.08c1.01-2.9,1.77-5.9,2.92-8.77
		C185.04,98.59,185.89,96.25,186.99,94.01z M175.33,85.96c0.16,0.27,0.29,0.55,0.47,0.8c0.12,0.1,0.25,0.21,0.39,0.31l-0.18,0.04
		c-0.35,0.78-0.57,1.62-0.94,2.4c-0.53,1.25-1.17,2.45-1.38,3.8c-0.64,1.46-0.82,3.08-0.94,4.66c-0.06,1.21-0.14,2.42,0.1,3.6
		c0.02,0.41,0.04,0.84,0.14,1.23c0.19,1.15,0.45,2.3,0.7,3.45c0.35,1.58,0.84,3.12,1.38,4.62c0.41,1.15,0.76,2.34,1.21,3.49
		c-0.04,0.02-0.12,0.04-0.16,0.06c-0.92-2.38-1.93-4.7-2.84-7.07c-0.7-1.95-1.46-3.88-2.16-5.83c-1.62-5.05-3.04-10.19-3.86-15.43
		c-0.25-1.29-0.16-2.61-0.39-3.92c0.92,1.73,2.05,3.37,3,5.09c0.14-0.23,0.27-0.45,0.41-0.68l0.08-0.06
		c0.95-0.68,1.79-1.52,2.75-2.2c0.88,0.84,1.66,1.79,2.34,2.81C175.39,86.74,175.35,86.35,175.33,85.96z M157.14,160.35
		c0.06-0.14,0.19-0.43,0.25-0.57c-0.23,0.08-0.45,0.16-0.68,0.25c0.02-0.21,0.04-0.45,0.08-0.66c0.18,0.06,0.37,0.1,0.57,0.16
		c0.02-0.1,0.08-0.31,0.12-0.41c0.1,0.35,0.19,0.68,0.29,1.03C157.53,160.22,157.33,160.29,157.14,160.35z M159.32,148.53
		c-1.15,2.24-1.6,4.81-1.62,7.33c-0.04,1.79,0.68,3.47,0.86,5.24c0.08,0.6,0.12,1.21,0.16,1.83l-0.18-0.02
		c-0.06-0.35-0.12-0.68-0.18-1.01c-0.19-1.27-0.49-2.53-0.72-3.8c-0.08-0.51-0.1-1.01-0.27-1.5c-0.23-0.41-0.6-0.7-0.94-1.03
		c-0.12-1.64,0.18-3.25,0.62-4.81c0.12-0.39,0.16-0.78,0.18-1.17c0.76-1.7,1.81-3.39,3.37-4.44c-0.39-0.02-0.78-0.04-1.17-0.04
		c-0.1,0-0.27,0-0.35,0c-0.53,0.02-1.07,0.04-1.52-0.27c1.73,0.02,3.49,0.18,5.16,0.62C161.19,145.84,160.06,147.14,159.32,148.53z
		 M198.5,153.24c-2.96-2.45-5.94-4.89-8.94-7.29c-2.26-1.75-4.48-3.57-6.86-5.16c-2.26-1.4-4.58-2.9-7.25-3.31
		c-1.29-0.19-2.63-0.23-3.9,0.08c-1.27-2.79-3.23-5.2-5.46-7.27c-3.35-2.98-6.92-5.69-10.5-8.36c-1.77-1.34-3.55-2.73-5.36-4.03
		c1.23,0.16,2.65,0.39,3.74-0.29c3.12,1.64,5.98,3.72,8.77,5.88c2.63,2.12,4.95,4.66,6.68,7.56c0.99,1.75,1.81,3.59,2.45,5.49
		c1.75-0.88,3.76-0.8,5.67-0.74c-0.33,0.29-0.76,0.33-1.19,0.27c3.1,0.35,6.14,1.42,8.61,3.37c4.05,3.23,7.36,7.31,11.4,10.56
		c-1.6-1.95-3.37-3.76-5.14-5.55c-2.71-2.73-5.73-5.24-9.22-6.94c-1.38-0.74-2.94-1.01-4.44-1.4c0-0.08,0.02-0.23,0.04-0.31
		c2.94,0.51,5.71,1.73,8.14,3.43c3.92,2.69,7.17,6.18,10.56,9.47c1.7,1.81,3.14,3.84,4.25,6.06
		C199.82,154.37,199.18,153.79,198.5,153.24z M201.68,103.19c-0.1,0.25-0.19,0.49-0.29,0.74c-0.62-0.86-1.09-1.83-1.85-2.57
		c0.08,0.97,0.72,1.75,0.95,2.69l0.08,0.27c-0.6,0.06-1.21,0.14-1.83,0.19c-0.16-0.84-0.39-1.75-0.92-2.44
		c0.37,0.8,0.7,1.6,0.88,2.45c-0.58,0.04-1.17,0.08-1.75,0.18c-0.08-0.19,0-0.39,0.06-0.57h-0.29c0.18-1.17,0.64-2.26,1.23-3.27
		c-0.58,0.66-0.82,1.54-1.09,2.36c-0.18,0.49-0.18,1.01-0.12,1.52c-0.95-0.02-1.89,0.18-2.83,0.21c0.76-1.07,1.15-2.34,1.81-3.45
		c1.42-1.97,2.08-4.38,3.72-6.22c0.7,0.74,1.11,1.7,1.79,2.45c-0.02,0.23-0.06,0.49-0.08,0.72
		C200.9,100.07,201.27,101.67,201.68,103.19z M202.24,101.98c-0.16-0.92-0.39-1.81-0.76-2.67c-0.18-0.37-0.1-0.78,0.14-1.09
		c0.92,1.31,1.5,2.84,1.56,4.44c0.14-0.7,0.27-1.42,0.45-2.12c0.45,0.43,0.8,0.95,1.15,1.46c0.29,0.53,0.92,0.92,0.97,1.52
		c-1.15,0.19-2.32,0.41-3.47,0.57l0.06-0.16C202.69,103.32,202.38,102.62,202.24,101.98z M207.11,104.65
		c-0.12,0.58-0.84,0.64-1.31,0.84c-3.74,1.05-7.64,1.36-11.5,1.58c2.81-0.27,5.59-0.68,8.36-1.21c1.34-0.29,2.73-0.47,4.01-0.97
		c0.37-0.76,0.29-1.66,0.6-2.45C207.4,103.17,207.21,103.91,207.11,104.65z M219.06,110.51c-0.68-0.04-1.34,0.1-1.99,0.29
		c0.51-0.33,1.03-0.64,1.64-0.72c0.37-0.55,0.94-0.95,1.15-1.6c0.58-1.5,0.33-3.12,0.29-4.68c-0.08-1.83-0.31-3.64-0.49-5.46
		c-0.49,1.23-1.13,2.4-1.71,3.59l-0.1,0.23c-0.21-0.14-0.45-0.25-0.66-0.39c1.17-2.96,1.77-6.18,1.6-9.35
		c-0.47,1.87-1.07,3.72-1.62,5.57c0.02-0.12,0.06-0.37,0.08-0.49c0.45-3.02,0.37-6.2-0.64-9.1c-0.49-1.36-1.31-2.57-2.16-3.72
		c0.23,0.45,0.6,0.88,0.47,1.42c-0.21,1.46-0.57,2.9-0.94,4.34c-0.45,1.62-0.9,3.21-1.38,4.81c-0.64,2.01-1.36,3.99-1.93,6.02
		c-0.86,3.1-1.29,6.29-2.03,9.41c0.06-0.82,0.25-1.6,0.37-2.42c0.37-2.59,0.57-5.2,1.03-7.77c0.47-2.61,0.9-5.24,1.54-7.81
		c0.62-2.44,1.25-4.87,1.95-7.27c-3.31-1.46-6.8-2.47-10.21-3.64c-2.1-0.7-4.19-1.62-5.9-3.08c0.53,1.25,1.32,2.34,1.83,3.59
		c0.33,0.74-0.7,1.05-1.15,1.44c-0.12,0.02-0.33,0.06-0.45,0.08c-0.18,0.14-0.23,0.35,0.02,0.47c0.8,1.07,1.42,2.26,2.1,3.43
		c-1.93,3.6-4.13,7.03-6.14,10.6c-4.01,6.88-7.72,13.95-11.77,20.81c-1.25,2.08-2.42,4.25-3.92,6.16c1.7-2.9,3.21-5.88,4.87-8.81
		c4.01-6.94,7.81-13.91,11.61-20.91c1.46-2.86,3.12-5.79,3.29-9.08c0.16-1.46-0.78-2.67-1.52-3.82c-0.62-0.99-1.38-1.87-2.05-2.83
		c0.97,1.05,1.83,2.2,2.65,3.35c0.16,0.19,0.29,0.43,0.57,0.51c0.19-0.39,0.47-0.74,0.6-1.15c-0.08-0.74-0.41-1.42-0.76-2.07
		c-1.75-3.02-3.2-6.25-5.47-8.94c-0.76-0.9-1.6-1.73-2.51-2.49c-0.06-0.06-0.18-0.19-0.23-0.25c-0.02-0.14-0.04-0.27-0.04-0.41
		c1.19,0.76,2.47,1.42,3.55,2.38c0.95,1.23,1.68,2.63,2.49,3.94c0.6,0.94,0.99,2.1,1.97,2.73c1.11,0.72,2.42,1.09,3.6,1.64
		c3.64,1.44,7.25,3.06,11.09,3.96c0.74,0.14,1.46,0.47,2.22,0.41c4.21,3.41,6.57,8.73,6.94,14.07c0.19,2.38,0.58,4.73,0.58,7.11
		c0.04,0.88-0.1,1.83,0.35,2.63c0.49,0.9,0.8,1.91,1.4,2.75c0.29,0.45,0.95,0.64,0.97,1.25c0.12,1.17-0.04,2.36,0.16,3.51
		c0.18,0.97,0.74,1.81,1.05,2.77c0.33,1.11-0.7,2.14-0.33,3.25c0.29,0.86,0.78,1.66,1.4,2.3c0.29,0.33,0.92,0.35,0.94,0.86
		c0.12,0.74-0.27,1.4-0.45,2.08c0.27,0.51,0.66,0.94,0.99,1.4v0.19c-0.29-0.19-0.58-0.39-0.88-0.57c-0.16-0.39-0.35-0.78-0.45-1.19
		c0.18-0.62,0.45-1.23,0.39-1.91c-0.39-0.02-0.76-0.04-1.13,0c-1.25,0.21-2.49,0.55-3.6,1.15l-0.25,0.12
		c-0.02-0.12-0.04-0.33-0.06-0.45c1.46-0.68,3.06-0.94,4.64-1.19c-1.11-1.01-1.87-2.32-2.59-3.62c-0.37,0.29-0.74,0.58-1.11,0.88
		c0.82-0.86,1.34-1.99,1.48-3.18c0.02-0.7-0.16-1.48-0.66-2.01c-0.39-0.39-0.99-0.21-1.48-0.21c0.1-0.04,0.29-0.12,0.37-0.16
		c0.31-0.1,0.64-0.18,0.97-0.27c-0.23-1.25-1.36-1.99-2.4-2.53l0.08-0.18c-0.53,0.1-1.07,0.1-1.56-0.1c0.41-0.19,0.8-0.47,1.27-0.47
		c0.49,0.27,0.86,0.78,1.44,0.9c0.06-0.33,0.14-0.64,0.19-0.95c0.04-0.21,0.08-0.43,0.12-0.62
		C221.53,110.42,220.24,110.55,219.06,110.51z M203.37,72.75c0.23,0.25,0.29,0.58,0.33,0.92c0.04,0.7,0.06,1.4,0.06,2.12
		c-0.1-0.02-0.27-0.06-0.37-0.06C203.39,74.72,203.33,73.75,203.37,72.75z M210.85,78.62c-0.08-0.02-0.16-0.06-0.21-0.08
		c0.02-0.53,0.02-1.07-0.04-1.6c-0.08-1.48-0.12-3,0.14-4.48l0.19-0.14c-0.14,1.54-0.1,3.08-0.19,4.62
		C210.74,77.51,210.64,78.09,210.85,78.62z M223.38,86.02c0.02-0.45,0.02-0.9,0.04-1.34c0.49,1.46,0.08,2.98,0.18,4.48
		c0.04,0.74,0.02,1.48-0.14,2.2c0.02-0.58,0.06-1.17,0.02-1.75c-0.16-0.14-0.33-0.33-0.04-0.43
		C223.63,88.13,223.4,87.08,223.38,86.02z M227.86,135.84c-0.95-1.52-2.73-2.26-4.34-2.86c0.47,0,0.95,0.02,1.42,0.02
		c-0.19-0.1-0.37-0.19-0.57-0.29c-0.88-0.49-1.87-0.68-2.86-0.78c-0.37-0.06-0.72-0.12-1.07-0.18c0.45,0.02,0.92,0.04,1.36,0.08
		c2.55,0.1,4.85,1.71,6.31,3.72C228.02,135.65,227.94,135.75,227.86,135.84z M243.39,104.77c-0.02,0.02-0.06,0.04-0.08,0.04
		c-0.84,0.27-1.36,1.03-2.08,1.5c-1.62,1.29-3.57,2.1-5.57,2.53c-2.9,0.57-5.92,0.53-8.81-0.14c-0.41,0-0.41-0.45-0.51-0.72
		c0.95,0.19,1.89,0.43,2.84,0.49c3.02,0.27,6.22,0.21,9-1.13c1.11-0.57,2.3-1.17,2.96-2.26c-0.94-0.08-1.85-0.04-2.79-0.06
		c-4.23,0-8.44,0.02-12.66-0.02c-0.06-0.45-0.14-0.92-0.23-1.36c3.64-0.1,7.29-0.02,10.93-0.04c-0.06-0.31-0.1-0.6-0.16-0.92
		c-0.18-0.8-0.45-1.58-0.53-2.4c-0.18-1.79-0.66-3.53-1.11-5.26c-1.46-0.06-2.94-0.04-4.4-0.1c0.02,1.29-0.1,2.57-0.14,3.86
		c-0.1-1.29,0.08-2.59,0.04-3.88c-1.17,0.02-2.32,0.04-3.49-0.02c-0.27,1.19-0.35,2.42-0.55,3.6c-0.21,1.4-0.49,2.79-0.64,4.19
		l-0.04,0.23c-0.06,0-0.18,0.02-0.23,0.02c0.02-1.15,0.25-2.3,0.39-3.43c0.29-1.52,0.39-3.06,0.68-4.58c-0.62,0-1.25,0-1.87-0.02
		c-0.02-0.12-0.04-0.33-0.06-0.45c0.68-0.04,1.36-0.04,2.07-0.06c0.25-1.81,0.51-3.6,0.78-5.42c0.02-0.1,0.04-0.29,0.06-0.39
		c0.04-0.25,0.08-0.51,0.12-0.76c0.23-1.11,0.31-2.24,0.57-3.33c0.12-0.53,0.18-1.05,0.25-1.56c-3.18-0.02-6.37,0.1-9.55-0.04
		c0.27-0.27,0.68-0.19,1.03-0.23c2.84,0,5.71,0,8.55-0.08c0.35-1.99,0.58-3.99,0.94-5.96c0.27-1.62,0.53-3.21,0.78-4.83
		c-2.08,0-4.19-0.08-6.27,0c-2.49-0.04-5.01,0.02-7.5-0.14c-1.36-0.08-2.73-0.04-4.09-0.06c-4.42-0.04-8.85-0.16-13.27-0.1
		c-0.45-0.02-1.01,0.08-1.27-0.39c6.99-0.02,13.97,0.14,20.96,0.18c3.88-0.06,7.74,0,11.59,0c0.04-0.39,0.06-0.78,0.08-1.15
		c0.1,0.16,0.19,0.31,0.31,0.47c-0.06,0.18-0.19,0.51-0.27,0.68c0.19,0,0.58,0.02,0.78,0.02c-0.18-0.86-0.18-1.73-0.37-2.59
		c-0.06-0.04-0.16-0.14-0.21-0.18c-1.38-0.23-2.77,0.33-4.13,0.55c1.23-0.33,2.45-0.57,3.7-0.8c-0.14-0.25-0.27-0.53-0.43-0.78
		c-0.1-0.25-0.27-0.35-0.55-0.29c-0.6,0.04-1.19,0.19-1.77,0.29c0.68-0.18,1.36-0.35,2.05-0.55c0.29-0.6,0.76-1.23,1.46-1.36
		c0.88-0.18,1.7,0.45,2.18,1.13c-0.45,0.49-0.53,1.21-0.97,1.71c-0.29,0.12-0.62,0.19-0.94,0.27c-0.04,0.86,0.04,1.71,0.19,2.57
		c0.62,0.02,1.25,0.02,1.87,0c-0.04-0.1-0.14-0.31-0.19-0.43c0.08,0.08,0.21,0.23,0.29,0.31c0.25,0.08,0.49,0.16,0.74,0.21
		c0.04-0.95,0.19-1.91,0.12-2.88c-0.12-1.46-0.08-2.98-0.7-4.33c-0.12-0.35-0.53-0.37-0.84-0.39c-7.25-0.02-14.5,0.02-21.74,0.02
		c0.14,1.4,0.08,2.81,0.08,4.19c-0.06,0-0.19-0.02-0.25-0.02c0.1-1.38,0-2.77,0.06-4.15c-4.01,0.04-8.01,0.14-12.02,0.23
		c-0.62,0.04-1.25-0.02-1.85,0.14c-0.02,0.08-0.04,0.21-0.04,0.27c-0.14,1.32-0.19,2.65-0.18,3.97c-0.06,0.82,0.51,1.48,0.84,2.18
		c-0.58-0.86-1.25-1.77-1.01-2.86h-0.16c-0.18-0.8-0.29-1.62-0.21-2.44c0.06-0.58,0.04-1.31,0.55-1.7c1.13-0.21,2.3-0.1,3.43-0.14
		c11.05-0.14,22.09-0.19,33.14-0.31c0.25,0.02,0.58-0.02,0.7,0.25c0.51,1.13,0.64,2.4,0.66,3.64c0.02,1.4-0.37,2.77-0.45,4.15
		c0.25,0.04,0.7-0.18,0.82,0.18c0.66,1.58,0.62,3.35,0.57,5.03c0.06,1.17-0.31,2.38,0.08,3.53c1.4,4.85,2.67,9.74,4.01,14.61
		c0.82,2.96,1.46,5.96,2.26,8.94c0.57,0,1.15,0.02,1.71,0C243.43,104.01,243.41,104.38,243.39,104.77z M119.86,71.35
		c0.1-0.9,0.35-1.77,0.37-2.67c-0.55,0.06-1.03-0.16-1.48-0.43c-0.39,1.07-0.74,2.14-1.11,3.23
		C118.36,71.37,119.12,71.51,119.86,71.35z M120.58,68.7c-0.18,0.92-0.25,1.85-0.39,2.79c0.58-0.12,1.19-0.1,1.79-0.08
		c-0.18-0.95-0.33-1.93-0.55-2.88c-0.14-0.08-0.29-0.18-0.43-0.27C120.92,68.39,120.7,68.6,120.58,68.7z M115.69,79.87
		c-0.04,0.94,0.37,1.81,0.45,2.73c0.6,0.02,1.23,0.02,1.83,0c0.33-1.81,0.55-3.64,0.88-5.46c0.27-1.77,0.53-3.55,0.86-5.3
		c-0.7-0.02-1.4-0.02-2.1,0.02c-0.49,1.56-0.86,3.16-1.27,4.75C116.1,77.7,115.83,78.78,115.69,79.87z M230.61,81.21
		c0.02,0.37,0.08,0.74,0.16,1.11c-0.02,0.08-0.06,0.25-0.08,0.33c0.68,0,1.36-0.02,2.05-0.04c-0.39-2.14-0.64-4.31-1.01-6.47
		c-0.12-1.46-0.43-2.9-0.62-4.34c-0.31,0-0.62,0-0.92,0c-0.31,1.66-0.47,3.35-0.8,5.01c-0.06,0.39-0.12,0.78-0.16,1.19
		c0.43,0,0.86,0,1.31,0.04c-0.45,0.02-0.9,0-1.32,0c-0.29,1.52-0.41,3.08-0.76,4.6c0.72,0.02,1.46,0.02,2.18,0.04
		C230.67,82.17,230.63,81.68,230.61,81.21z M236.42,84.74c-0.39-1.54-0.9-3.06-1.21-4.64c-0.12,0.12-0.23,0.21-0.35,0.33
		c-0.02,0.12-0.04,0.37-0.06,0.49c-0.19-0.53,0.23-0.94,0.23-1.46l-0.37,0.16c0.12-0.58-0.02-1.19-0.19-1.75c0-0.12,0-0.33,0-0.45
		c-0.43-1.93-1.13-3.76-1.58-5.67c-0.53,0.02-1.05,0.02-1.56,0c0.29,1.81,0.6,3.62,0.86,5.46h0.04c0.23,1.79,0.53,3.6,0.88,5.38
		c0.14-0.02,0.39-0.04,0.53-0.04c0.12,0.04,0.33,0.14,0.45,0.18l0.18-0.43c0.1,0.19,0.39,0.39,0.06,0.6
		c-0.41,0.08-0.82,0.06-1.23,0.1c0.08,0.45,0.14,0.88,0.21,1.32c0.16,0.16,0.41,0.25,0.47,0.47c0.57,1.73,0.72,3.6,0.49,5.42
		c-0.02,1.44,0.58,2.79,0.62,4.23c0.14-0.02,0.41-0.04,0.55-0.06c0.6,1.52,0.53,3.18,0.53,4.77c0.23,1.5,0.6,2.96,0.86,4.46
		c1.58,0.02,3.14,0,4.72,0.04c-0.49-2.38-1.31-4.68-1.91-7.01C238.58,92.65,237.47,88.69,236.42,84.74z M114.33,101.22
		c-0.31-0.45-0.21-1.01-0.18-1.52c0.06,0.47-0.06,0.99,0.19,1.44c0.29-1.73,0.72-3.43,1.23-5.1c-0.27,0.8-0.62,1.56-0.9,2.36
		c-0.19,0.39-0.23,0.84-0.31,1.27c-0.37-1.58-0.14-3.23,0.27-4.77c0.08-0.6,0.74-0.45,1.17-0.47c0.29-1.66,0.88-3.31,0.58-4.99
		c-0.06-1.62,0.06-3.29,0.57-4.85c0.23-0.02,0.49-0.06,0.72-0.08c0.08-0.51,0.12-1.01,0.18-1.52c-0.66-0.04-1.32,0.02-1.99-0.12
		c-0.31-0.68-0.33-1.48-0.49-2.22c-0.04,0.1-0.12,0.27-0.18,0.37c-1.07,3.7-2.05,7.44-3.1,11.14c-1.01,3.84-2.2,7.62-3.2,11.48
		c1.64-0.02,3.25-0.02,4.89-0.04C114.02,102.8,114.17,102.02,114.33,101.22z M182.5,81.07c-0.14,0.16-0.04,0.6,0.21,0.49
		C182.87,81.43,182.76,80.94,182.5,81.07z M118.07,84.68c-0.39,2.24-0.68,4.5-1.07,6.74c-0.18,1.01-0.47,1.99-0.64,3
		c1.56,0.1,3.12,0.04,4.68,0.06c0.33,0.04,0.97-0.08,0.55-0.57l0.19,0.16c0.04,0.12,0.1,0.33,0.12,0.45
		c1.44-0.21,2.9-0.02,4.34-0.12c-0.35-1.93-0.88-3.84-1.09-5.77l-0.1-0.14c-0.06-0.53-0.18-1.05-0.25-1.58
		c-0.12-0.82-0.27-1.62-0.39-2.44c-0.08-0.49-0.19-0.97-0.31-1.44c-0.99-0.02-1.99-0.02-2.96-0.06c0.02,0.47,0.04,0.95,0.1,1.42
		c0.04,0.9,0.02,1.79,0.06,2.71l0.12,0.16c-0.08,0.82,0.06,1.66-0.16,2.45c0.02-0.18,0.04-0.55,0.04-0.72
		c0.06-1.5-0.21-2.98-0.16-4.48c-0.06-0.51-0.08-1.01-0.06-1.52c-0.95,0.02-1.91-0.02-2.86-0.04
		C118.17,83.53,118.13,84.11,118.07,84.68z M163.21,125.38c-0.1-0.19-0.55-0.53-0.62-0.18c0.25,0.33,0.58,0.6,0.86,0.94
		c0.02,0.02,0.06,0.06,0.08,0.08c0.02,0.02,0.04,0.08,0.06,0.12l0.02,0.12c0.14,0.06,0.43,0.14,0.58,0.19l-0.49,0.06
		c0.95,0.97,2.08,1.77,3,2.79c0.58,0.55,0.57,1.42,1.44,1.81C167.09,128.87,164.91,127.31,163.21,125.38z M180.3,137.73
		c-2.08-0.86-4.42-1.34-6.66-0.86c2.01-0.12,4.03,0.29,5.75,1.36c3.7,1.85,7.03,4.33,10.25,6.9c1.19,0.78,2.14,1.91,3.43,2.53
		c-1.54-1.5-3.14-2.92-4.7-4.38C185.95,141.08,183.34,139.02,180.3,137.73z M181.16,138.78c-0.8-0.47-1.73-0.68-2.47-1.23
		c1.77,0.55,3.39,1.48,4.93,2.53c0.16,0.18,0.37,0.16,0.51-0.04l-0.14,0.31c0.41-0.06,0.62,0.31,0.8,0.6
		C183.58,140.23,182.41,139.43,181.16,138.78z M119.38,68.41c0.45,0,0.9,0.02,1.32,0.04c0.23-0.33,0.6-0.6,0.53-1.05
		c0.04-0.76-0.82-1.34-1.52-1.19c-0.68,0.31-0.9,1.17-0.84,1.87C118.99,68.16,119.24,68.31,119.38,68.41z M232.21,67.03
		c-0.49-0.35-0.94-1.13-1.62-0.76c-0.74,0.31-0.92,1.32-0.37,1.89C230.98,68.68,232.28,67.98,232.21,67.03z M234.97,78.37
		c0.18-0.82,0.31-1.79,0.02-2.57c-0.06-1.09-0.55-2.1-0.99-3.08c-0.21-0.41-0.35-0.9-0.76-1.17c0.02,0.43,0.04,0.88,0.18,1.29
		C234.04,74.64,234.56,76.5,234.97,78.37z M115.62,78.29c0.51-2.14,1.01-4.29,1.66-6.39c-0.31,0.16-0.74,0.19-0.92,0.55
		c-0.58,0.97-0.97,2.07-1.29,3.16c-0.06,1.23-0.1,2.47,0.21,3.66C115.48,78.97,115.56,78.62,115.62,78.29z M233.34,88.21
		c-0.1-1.23-0.43-2.42-0.51-3.64c0.12-0.53-0.02-1.07-0.08-1.6c-0.7-0.02-1.38,0-2.08,0c0.02,0.51,0,1.03,0,1.54
		c0.04,1.5-0.25,3-0.21,4.5c-0.04-0.41-0.06-0.82-0.06-1.23c0.04-0.23,0.06-0.45,0.1-0.68c0.06-0.86,0.19-1.71,0.12-2.57
		c0-0.53-0.02-1.05,0-1.56c-0.72,0.02-1.46,0-2.18-0.02c-0.14,0.64-0.21,1.32-0.31,1.99c-0.12,0.62-0.21,1.27-0.27,1.89
		c-0.43,2.53-0.78,5.09-1.17,7.62c1.13,0,2.28,0,3.41,0.02c0.19-1.21,0.19-2.42,0.19-3.62c0.08-0.16,0.14-0.31,0.19-0.47
		c-0.19,1.36-0.16,2.75-0.27,4.13c1.4-0.16,2.83,0.04,4.23-0.08c-0.06-0.99-0.39-1.95-0.62-2.92
		C233.65,90.39,233.41,89.32,233.34,88.21z M121.68,94.95c-1.83,0.02-3.66,0.04-5.47,0.06c-0.35,1.48-0.68,2.94-0.94,4.44
		c-0.1,0.64-0.25,1.27-0.39,1.91c-0.1,0.33-0.18,0.64-0.27,0.97c-0.12,0.41-0.19,0.84-0.23,1.27c2.61,0.02,5.2-0.02,7.81,0.02
		c-0.02-0.31-0.02-0.64-0.04-0.95c0-0.18,0-0.51-0.02-0.66c-0.12-0.88-0.19-1.75-0.21-2.63C121.71,97.91,121.73,96.43,121.68,94.95z
		 M221.1,107.75c-0.06,0.64-0.27,1.27-0.68,1.75c-0.43,0.43-1.27,0.08-1.58,0.6c1.38-0.06,2.81-0.16,4.13,0.33
		C222.17,109.66,221.67,108.68,221.1,107.75z M132.82,108.29c-0.06,0.72,0.06,1.44,0,2.14c-0.43,0.8-0.82,1.64-1.03,2.53
		c0.62-0.76,1.48-1.25,2.32-1.75c-0.29-0.27-0.66-0.51-0.86-0.88C132.86,109.72,132.9,108.97,132.82,108.29z M154.91,119.2
		c0.04-0.12,0.08-0.23,0.1-0.29L154.91,119.2z M162.75,124.07c-1.27-0.84-2.45-1.81-3.7-2.71c-1.32-0.9-2.67-1.71-3.96-2.67
		c0.12,0.16,0.37,0.47,0.51,0.62c-0.18-0.02-0.53-0.08-0.7-0.1l0.02-0.04c-0.02,0.08-0.06,0.16-0.08,0.21
		c-0.55,0.02,0.25,0.78,0.41,0.33c0.97,0.92,1.93,1.91,3.08,2.61c-0.1,0.08-0.18,0.16-0.27,0.23c-1.01-0.92-2.2-1.6-3.27-2.44
		c-0.47-0.37-0.9-0.8-1.42-1.13c0.97,1.01,2.1,1.81,3.21,2.65c1.71,1.27,3.29,2.69,5.01,3.97c1.87,1.5,3.66,3.14,5.47,4.7
		c-0.45-0.78-1.21-1.32-1.81-1.97c-0.62-0.64-1.34-1.15-2.01-1.75c-0.02-0.21-0.02-0.45-0.04-0.66l-0.53,0.21
		c0.06-0.31,0.02-0.62-0.18-0.88c-0.19-0.14-0.55-0.27-0.51-0.57c0.14-0.02,0.45,0.16,0.49-0.04c-0.97-0.82-1.95-1.64-2.94-2.42
		c0,0.27,0,0.55-0.02,0.84c-0.27-0.25-0.1-0.6-0.02-0.9c-1.32-0.76-2.47-1.79-3.84-2.47c0.08-0.08,0.18-0.18,0.25-0.25
		c0.43,0.47,1.03,0.74,1.54,1.09c1.54,0.95,3,2.03,4.36,3.23c0.76,0.6,1.48,1.25,2.12,1.99c1.21,1.48,2.81,2.63,3.76,4.31
		c0.78,1.13,1.62,2.22,2.4,3.35c0.19,0.31,0.41,0.6,0.64,0.9c-0.31-0.95-0.9-1.79-1.38-2.67
		C167.64,128.81,165.46,126.14,162.75,124.07z M158.66,122.67c1.15,1.09,2.57,1.91,3.62,3.08c-1.4-0.76-2.49-2.08-3.9-2.84
		C158.46,122.83,158.56,122.75,158.66,122.67z M172,81.27c-0.23,0.1-0.51,0.39-0.41,0.66C171.85,82.05,172.37,81.37,172,81.27z
		 M175.39,77.72c-0.45,0.18-0.74,0.55-1.07,0.88c-0.39,0.41-0.84,0.8-1.13,1.32C174.03,79.28,174.65,78.44,175.39,77.72z
		 M180.57,78.97c-0.45-0.41-0.86-0.92-1.46-1.03c1.05,0.84,1.95,1.87,2.98,2.73C181.74,79.96,181.12,79.5,180.57,78.97z
		 M174.63,88.24c-0.08,0.66-0.35,1.31-0.39,1.99c0.31-0.55,0.45-1.19,0.6-1.79c0.19-0.62-0.21-1.19-0.62-1.6
		C174.4,87.29,174.75,87.72,174.63,88.24z M116.67,87.82c-0.1,0.55-0.08,1.09-0.02,1.64C116.79,88.91,116.73,88.36,116.67,87.82z
		 M179.46,87.91c-0.12,0.55,0.12,1.07,0.33,1.56c0.76,1.85,1.73,3.64,2.26,5.59c0.29,0.9,0.43,1.83,0.68,2.73c0-0.19,0-0.39,0-0.6
		C182.25,93.91,180.73,90.93,179.46,87.91z"/>
</g>
<g id="Layer_3">
</g>
<g id="Layer_4">
</g>
<g id="Layer_5">
</g>
<g id="Layer_6">
</g>
<g id="Layer_7">
</g>
<g id="Layer_8">
</g>
<g id="Layer_9">
</g>
<g id="Layer_10">
</g>
<g id="Layer_11">
</g>
<g id="Layer_12">
</g>
<g id="Layer_13">
</g>
<g id="Layer_14">
</g>
<g id="Layer_15">
</g>
</svg>
