<?xml version="1.0" encoding="utf-8"?>
<!-- Generator: Adobe Illustrator 27.8.1, SVG Export Plug-In . SVG Version: 6.00 Build 0)  -->
<svg version="1.1" xmlns="http://www.w3.org/2000/svg" xmlns:xlink="http://www.w3.org/1999/xlink" x="0px" y="0px"
	 viewBox="0 0 350 230" style="enable-background:new 0 0 350 230;" xml:space="preserve">
<style type="text/css">
	.st0{fill-rule:evenodd;clip-rule:evenodd;fill:#A6D63C;}
	.st1{fill-rule:evenodd;clip-rule:evenodd;fill:#00A0D1;}
	.st2{fill:#421C00;}
	.st3{fill-rule:evenodd;clip-rule:evenodd;fill:#FFFFFF;}
	.st4{fill:#699AE2;}
	.st5{fill:#3B7DC4;}
	.st6{fill:#AF7500;}
	.st7{fill:#FFDF00;}
	.st8{fill:#1A0256;}
	.st9{fill:#00594F;}
	.st10{fill:#00779B;}
	.st11{fill:#0074FF;}
	.st12{fill:#194A91;}
	.st13{fill-rule:evenodd;clip-rule:evenodd;fill:#EFEFEF;}
	.st14{fill:#044159;}
	.st15{fill:#4C2900;}
	.st16{fill:#FFFFFF;}
	.st17{fill:#FFB41F;}
	.st18{fill:#FF5A00;}
	.st19{fill:#680404;}
	.st20{fill:#03AA6F;}
	.st21{fill:#FB5968;}
	.st22{fill:#FFD24A;}
	.st23{fill:#055EBC;}
	.st24{fill:#6F6F6F;}
	.st25{fill:#454545;}
	.st26{fill:#BA1A00;}
	.st27{fill:#0071BC;}
	.st28{fill:#6F0393;}
	.st29{fill:none;}
	.st30{fill:#96D7FF;}
	.st31{fill:#0C5100;}
	.st32{fill:#FFE856;}
	.st33{fill:#803971;}
	.st34{fill:#D3CECD;}
	.st35{fill:#4C241D;}
	.st36{fill:#EA3200;stroke:#4C241D;stroke-linecap:round;stroke-linejoin:round;stroke-miterlimit:50;}
	.st37{fill:#11930A;stroke:#4C241D;stroke-linecap:round;stroke-linejoin:round;stroke-miterlimit:50;}
	.st38{fill:#3792CF;}
	.st39{fill:#FEE36F;}
	.st40{fill:#136296;}
	.st41{fill:#53C2BA;}
	.st42{fill:#6D6D00;}
	.st43{fill:#001087;}
</style>
<g id="Layer_1">
</g>
<g id="Layer_2">
</g>
<g id="Layer_3">
</g>
<g id="Layer_4">
</g>
<g id="Layer_5">
</g>
<g id="Layer_6">
</g>
<g id="Layer_7">
</g>
<g id="Layer_8">
</g>
<g id="Layer_9">
</g>
<g id="Layer_10">
</g>
<g id="Layer_11">
</g>
<g id="Layer_12">
</g>
<g id="Layer_13">
</g>
<g id="Layer_14">
	<g>
		<path class="st38" d="M217.8,117.72c-0.53-1.3-2.36-1.3-2.89,0l-18.27,44.77h39.43L217.8,117.72z M195.74,125.67
			c-0.44-1.07-1.95-1.07-2.38,0l-15.02,36.82h18.31l7.06-17.3L195.74,125.67z"/>
		<ellipse class="st39" cx="134.27" cy="50.15" rx="30.46" ry="30.47"/>
		<path class="st40" d="M265.45,161.46h-28.69l-18.01-44.13c-0.4-0.98-1.34-1.61-2.4-1.61s-2,0.63-2.4,1.61l-10.26,25.14
			l-7.01-17.19c-0.36-0.87-1.2-1.44-2.14-1.44c-0.94,0-1.78,0.57-2.14,1.44l-14.76,36.17h-22.22l30.27-90.39
			c0.82-0.95,7.2-7.51,19.96,1.03l2.3,1.55c12.91,8.68,25.14,16.9,42.45,16.9c0.77,0,1.54-0.02,2.33-0.05
			c0.42-0.02,0.8-0.3,0.93-0.7l12.75-38.05c0.11-0.32,0.05-0.68-0.15-0.95c-0.2-0.27-0.53-0.43-0.86-0.41
			c-17.26,0.72-27.51-6.22-40.48-15.01c-1.2-0.81-2.42-1.64-3.66-2.47c-10.41-6.97-18.03-4.93-21.8-2.95l4.18-12.48
			c0.18-0.54-0.11-1.12-0.65-1.3c-0.54-0.18-1.12,0.11-1.3,0.65l-48.44,144.63H84.55c-0.57,0-1.03,0.46-1.03,1.03
			c0,0.57,0.46,1.03,1.03,1.03h180.9c0.57,0,1.03-0.46,1.03-1.03C266.48,161.92,266.02,161.46,265.45,161.46z M220.12,34.62
			c1.24,0.83,2.45,1.65,3.65,2.46c12.4,8.4,23.16,15.69,40.24,15.4l-12.05,35.98c-17.5,0.52-29.25-7.39-42.84-16.53l-2.31-1.55
			c-5.26-3.52-9.6-4.68-13.04-4.68c-2.98,0-5.27,0.87-6.89,1.82l3.84-11.48l7.69-22.96C199.63,32.05,207.44,26.14,220.12,34.62z
			 M198.17,161.46l17.69-43.35c0.12-0.3,0.39-0.33,0.5-0.33c0.11,0,0.37,0.03,0.49,0.33l17.69,43.35H198.17z M179.86,161.46
			l14.44-35.4c0.09-0.21,0.39-0.21,0.48,0l7.81,19.13l-6.64,16.27H179.86z"/>
		<path class="st39" d="M136.66,10.12c1.68,0.1,3.35,0.3,4.99,0.61c0.06,0.01,0.13,0.02,0.19,0.02c0.49,0,0.92-0.35,1.01-0.84
			c0.1-0.56-0.26-1.1-0.82-1.2c-1.72-0.32-3.49-0.54-5.25-0.64c-0.57-0.04-1.05,0.4-1.09,0.97C135.67,9.6,136.1,10.09,136.66,10.12z
			 M163.5,77.59c-1.15,1.22-2.38,2.38-3.67,3.45c-0.44,0.36-0.5,1.01-0.14,1.45c0.2,0.25,0.5,0.37,0.79,0.37
			c0.23,0,0.46-0.08,0.65-0.24c1.35-1.12,2.65-2.34,3.85-3.62c0.39-0.41,0.37-1.07-0.04-1.45C164.54,77.16,163.89,77.18,163.5,77.59
			z M126.8,89.56c-1.64-0.31-3.28-0.73-4.87-1.24c-0.54-0.17-1.12,0.12-1.29,0.66s0.12,1.12,0.66,1.29c1.67,0.54,3.4,0.98,5.13,1.31
			c0.07,0.01,0.13,0.02,0.19,0.02c0.48,0,0.92-0.34,1.01-0.84C127.72,90.2,127.36,89.67,126.8,89.56z M155.77,84.01
			c-1.41,0.9-2.89,1.72-4.4,2.43c-0.51,0.24-0.73,0.86-0.49,1.37c0.17,0.37,0.54,0.59,0.93,0.59c0.15,0,0.3-0.03,0.44-0.1
			c1.59-0.75,3.14-1.61,4.63-2.56c0.48-0.3,0.62-0.94,0.32-1.42C156.88,83.84,156.25,83.7,155.77,84.01z M136.82,90.18
			c-0.84,0.05-1.69,0.08-2.53,0.08c-0.83-0.03-1.67-0.02-2.5-0.08c-0.55-0.04-1.05,0.4-1.09,0.96s0.4,1.05,0.96,1.09
			c0.86,0.05,1.74,0.08,2.6,0.08c0.01,0,0.02,0,0.02,0c0.88,0,1.78-0.03,2.66-0.08c0.57-0.04,1-0.52,0.96-1.09
			C137.88,90.57,137.4,90.14,136.82,90.18z M146.54,11.97c1.59,0.51,3.17,1.13,4.69,1.84c0.14,0.07,0.29,0.1,0.44,0.1
			c0.39,0,0.76-0.22,0.93-0.59c0.24-0.51,0.02-1.13-0.5-1.37c-1.6-0.75-3.25-1.4-4.93-1.93c-0.54-0.17-1.12,0.12-1.29,0.66
			C145.7,11.21,145.99,11.79,146.54,11.97z M173.06,40.03c0.42,1.62,0.74,3.28,0.96,4.94c0.07,0.52,0.51,0.9,1.02,0.9
			c0.04,0,0.09,0,0.13-0.01c0.56-0.07,0.96-0.59,0.89-1.15c-0.22-1.74-0.56-3.49-1.01-5.2c-0.14-0.55-0.7-0.88-1.25-0.74
			C173.25,38.92,172.92,39.48,173.06,40.03z M174.36,59.38c-0.55-0.14-1.11,0.19-1.25,0.74c-0.41,1.62-0.94,3.23-1.55,4.79
			c-0.21,0.53,0.05,1.12,0.58,1.33c0.12,0.05,0.25,0.07,0.38,0.07c0.41,0,0.8-0.25,0.96-0.65c0.65-1.63,1.2-3.33,1.63-5.04
			C175.24,60.08,174.91,59.52,174.36,59.38z M176.41,49.99c0-0.57-0.46-1.03-1.03-1.03c-0.57,0-1.03,0.46-1.03,1.03v0.17
			c0,1.68-0.11,3.37-0.31,5.02c-0.07,0.56,0.33,1.08,0.89,1.15c0.04,0.01,0.09,0.01,0.13,0.01c0.51,0,0.95-0.38,1.02-0.9
			c0.22-1.74,0.33-3.51,0.33-5.29L176.41,49.99z M170.8,69.06c-0.5-0.27-1.12-0.09-1.4,0.4c-0.81,1.47-1.72,2.89-2.7,4.25
			c-0.33,0.46-0.23,1.1,0.23,1.44c0.18,0.13,0.39,0.2,0.6,0.2c0.32,0,0.63-0.15,0.83-0.42c1.03-1.42,1.99-2.93,2.84-4.47
			C171.48,69.96,171.3,69.34,170.8,69.06z M166.62,26.47c0.2,0.27,0.51,0.42,0.83,0.42c0.21,0,0.42-0.07,0.61-0.2
			c0.46-0.34,0.56-0.98,0.22-1.44c-1.04-1.42-2.18-2.79-3.39-4.06c-0.39-0.41-1.04-0.43-1.45-0.04c-0.41,0.39-0.43,1.04-0.04,1.45
			C164.54,23.82,165.63,25.12,166.62,26.47z M155.64,16.22c1.41,0.89,2.79,1.88,4.08,2.95c0.19,0.16,0.42,0.23,0.65,0.23
			c0.3,0,0.59-0.13,0.79-0.37c0.36-0.44,0.3-1.09-0.14-1.45c-1.36-1.12-2.8-2.16-4.29-3.1c-0.48-0.3-1.11-0.16-1.42,0.32
			C155.01,15.28,155.16,15.92,155.64,16.22z M171.49,35.25c0.16,0.4,0.55,0.65,0.96,0.65c0.13,0,0.26-0.02,0.38-0.08
			c0.53-0.21,0.78-0.81,0.57-1.34c-0.65-1.63-1.42-3.24-2.27-4.78c-0.28-0.5-0.9-0.67-1.4-0.4c-0.5,0.28-0.67,0.9-0.4,1.4
			C170.14,32.17,170.87,33.7,171.49,35.25z M146.69,88.29c-1.59,0.52-3.23,0.94-4.87,1.25c-0.56,0.11-0.92,0.64-0.82,1.2
			c0.09,0.49,0.52,0.84,1.01,0.84c0.06,0,0.13-0.01,0.19-0.02c1.73-0.33,3.45-0.77,5.12-1.32c0.54-0.17,0.84-0.76,0.66-1.29
			C147.81,88.41,147.23,88.12,146.69,88.29z M95.62,36.05c0.12,0.05,0.25,0.07,0.38,0.07c0.41,0,0.8-0.25,0.96-0.65
			c0.61-1.56,1.33-3.09,2.13-4.56c0.27-0.5,0.09-1.12-0.41-1.4c-0.5-0.27-1.12-0.09-1.39,0.41c-0.85,1.54-1.6,3.16-2.25,4.79
			C94.83,35.25,95.09,35.84,95.62,36.05z M99.16,69.53c-0.27-0.5-0.9-0.68-1.4-0.4c-0.5,0.27-0.68,0.9-0.4,1.4
			c0.85,1.54,1.81,3.04,2.84,4.46c0.2,0.28,0.51,0.42,0.83,0.42c0.21,0,0.42-0.07,0.61-0.2c0.46-0.34,0.56-0.98,0.22-1.44
			C100.88,72.42,99.97,70.99,99.16,69.53z M95.45,60.2c-0.14-0.55-0.7-0.88-1.25-0.74c-0.55,0.14-0.88,0.7-0.74,1.25
			c0.44,1.71,0.99,3.4,1.64,5.03c0.16,0.4,0.55,0.65,0.96,0.65c0.13,0,0.25-0.02,0.38-0.07c0.53-0.21,0.78-0.81,0.58-1.34
			C96.39,63.43,95.87,61.82,95.45,60.2z M93.61,56.41c0.56-0.07,0.96-0.59,0.89-1.15c-0.21-1.65-0.32-3.34-0.32-5.02
			c0-0.57-0.46-1.03-1.03-1.03c0,0,0,0,0,0c-0.57,0-1.03,0.46-1.03,1.03c0,1.76,0.12,3.54,0.34,5.28c0.07,0.52,0.51,0.9,1.02,0.9
			C93.52,56.42,93.57,56.42,93.61,56.41z M93.34,46.11c0.04,0,0.09,0.01,0.13,0.01c0.51,0,0.96-0.38,1.02-0.9
			c0.2-1.66,0.52-3.33,0.93-4.95c0.14-0.55-0.19-1.11-0.74-1.25c-0.56-0.14-1.11,0.19-1.25,0.74c-0.43,1.7-0.76,3.45-0.97,5.2
			C92.37,45.52,92.77,46.04,93.34,46.11z M117.24,86.47c-1.51-0.71-3-1.53-4.41-2.42c-0.48-0.3-1.11-0.16-1.42,0.32
			c-0.3,0.48-0.16,1.12,0.32,1.42c1.49,0.94,3.05,1.8,4.64,2.55c0.14,0.07,0.29,0.1,0.44,0.1c0.39,0,0.76-0.22,0.93-0.59
			C117.98,87.32,117.76,86.71,117.24,86.47z M100.95,27.08c0.32,0,0.63-0.15,0.83-0.42c0.98-1.36,2.06-2.66,3.2-3.88
			c0.39-0.41,0.37-1.07-0.05-1.45c-0.41-0.39-1.07-0.37-1.45,0.05c-1.2,1.28-2.33,2.66-3.36,4.08c-0.33,0.46-0.23,1.1,0.23,1.44
			C100.53,27.02,100.74,27.08,100.95,27.08z M105.08,77.65c-0.39-0.41-1.04-0.43-1.45-0.04c-0.41,0.39-0.43,1.04-0.04,1.45
			c1.21,1.28,2.5,2.5,3.86,3.62c0.19,0.16,0.42,0.24,0.65,0.24c0.3,0,0.59-0.13,0.79-0.37c0.36-0.44,0.3-1.09-0.14-1.45
			C107.47,80.02,106.23,78.86,105.08,77.65z M126.44,10.8c0.07,0,0.13-0.01,0.2-0.02c1.64-0.32,3.32-0.53,4.99-0.64
			c0.57-0.04,1-0.53,0.96-1.09c-0.04-0.57-0.52-0.99-1.09-0.96c-1.76,0.11-3.52,0.34-5.25,0.67c-0.56,0.11-0.92,0.65-0.82,1.2
			C125.53,10.45,125.96,10.8,126.44,10.8z M116.66,14.01c0.15,0,0.3-0.03,0.44-0.1c1.51-0.72,3.08-1.35,4.67-1.87
			c0.54-0.18,0.83-0.76,0.66-1.3c-0.18-0.54-0.76-0.84-1.3-0.66c-1.67,0.55-3.32,1.21-4.91,1.96c-0.51,0.24-0.73,0.86-0.49,1.37
			C115.9,13.79,116.27,14.01,116.66,14.01z M107.98,19.56c0.23,0,0.47-0.08,0.66-0.24c1.28-1.07,2.65-2.07,4.06-2.97
			c0.48-0.3,0.62-0.94,0.31-1.42c-0.31-0.48-0.94-0.62-1.42-0.31c-1.48,0.95-2.92,2-4.27,3.12c-0.44,0.36-0.5,1.01-0.13,1.45
			C107.4,19.43,107.69,19.56,107.98,19.56z"/>
		<path class="st40" d="M134.27,18.66c-17.36,0-31.48,14.13-31.48,31.5c0,17.37,14.13,31.5,31.49,31.5
			c17.36,0,31.48-14.13,31.48-31.5C165.75,32.79,151.63,18.66,134.27,18.66z M134.27,79.59c-16.23,0-29.43-13.21-29.43-29.44
			c0-16.23,13.2-29.44,29.43-29.44c16.23,0,29.43,13.21,29.43,29.44S150.49,79.59,134.27,79.59z"/>
		<path class="st39" d="M258.11,55.4c-0.53-0.2-1.12,0.08-1.32,0.61l-0.88,2.42c-0.2,0.53,0.08,1.12,0.61,1.32
			c0.12,0.04,0.24,0.06,0.35,0.06c0.42,0,0.81-0.26,0.97-0.68l0.88-2.42C258.92,56.18,258.65,55.59,258.11,55.4z M252.34,71.27
			c-0.53-0.2-1.12,0.08-1.32,0.61l-1.63,4.48c-0.2,0.53,0.08,1.12,0.61,1.32c0.12,0.04,0.24,0.06,0.35,0.06
			c0.42,0,0.81-0.26,0.97-0.68l1.63-4.48C253.14,72.05,252.87,71.46,252.34,71.27z M255.6,62.3c-0.53-0.2-1.12,0.08-1.32,0.61
			l-1.63,4.48c-0.2,0.53,0.08,1.12,0.61,1.32c0.12,0.04,0.24,0.06,0.35,0.06c0.42,0,0.81-0.26,0.97-0.68l1.63-4.48
			C256.41,63.08,256.14,62.49,255.6,62.3z M249.07,80.23c-0.53-0.19-1.12,0.08-1.32,0.61l-0.88,2.42c-0.2,0.53,0.08,1.12,0.61,1.32
			c0.12,0.04,0.24,0.06,0.35,0.06c0.42,0,0.81-0.26,0.97-0.67l0.88-2.42C249.88,81.02,249.6,80.43,249.07,80.23z"/>
	</g>
	<path class="st39" d="M241.44,55.22c-0.33-0.82-1.27-1.22-2.1-0.89l-9.07,3.64l-8.98-6.47c-0.73-0.51-1.74-0.32-2.24,0.41
		c-0.49,0.71-0.34,1.69,0.36,2.21l7.32,5.28l-11.73,4.71l-3.12-2.28c-0.73-0.51-1.73-0.34-2.25,0.39c-0.5,0.71-0.35,1.68,0.34,2.21
		c2.07,1.3,3.93,3.78,6.32,2.7l24.26-9.81C241.37,56.99,241.77,56.05,241.44,55.22z"/>
</g>
<g id="Layer_15">
</g>
</svg>
