<?xml version="1.0" encoding="utf-8"?>
<!-- Generator: Adobe Illustrator 27.8.1, SVG Export Plug-In . SVG Version: 6.00 Build 0)  -->
<svg version="1.1" xmlns="http://www.w3.org/2000/svg" xmlns:xlink="http://www.w3.org/1999/xlink" x="0px" y="0px"
	 viewBox="0 0 350 230" style="enable-background:new 0 0 350 230;" xml:space="preserve">
<style type="text/css">
	.st0{fill-rule:evenodd;clip-rule:evenodd;fill:#A6D63C;}
	.st1{fill-rule:evenodd;clip-rule:evenodd;fill:#00A0D1;}
	.st2{fill:#421C00;}
	.st3{fill-rule:evenodd;clip-rule:evenodd;fill:#FFFFFF;}
	.st4{fill:#699AE2;}
	.st5{fill:#3B7DC4;}
	.st6{fill:#AF7500;}
	.st7{fill:#FFDF00;}
	.st8{fill:#1A0256;}
	.st9{fill:#00594F;}
	.st10{fill:#00779B;}
	.st11{fill:#0074FF;}
	.st12{fill:#194A91;}
	.st13{fill-rule:evenodd;clip-rule:evenodd;fill:#EFEFEF;}
	.st14{fill:#044159;}
	.st15{fill:#4C2900;}
	.st16{fill:#FFFFFF;}
	.st17{fill:#FFB41F;}
	.st18{fill:#FF5A00;}
	.st19{fill:#680404;}
	.st20{fill:#03AA6F;}
	.st21{fill:#FB5968;}
	.st22{fill:#FFD24A;}
	.st23{fill:#055EBC;}
	.st24{fill:#6F6F6F;}
	.st25{fill:#454545;}
	.st26{fill:#BA1A00;}
	.st27{fill:#0071BC;}
	.st28{fill:none;stroke:#FFFFFF;stroke-width:2;stroke-miterlimit:10;}
	.st29{fill:#3D3600;}
	.st30{fill:#5B4E03;}
	.st31{fill:#685900;}
	.st32{fill:none;stroke:#2E8EFF;stroke-width:2;stroke-linecap:round;stroke-miterlimit:10;}
	.st33{fill:none;stroke:#3D3600;stroke-width:2;stroke-linecap:round;stroke-miterlimit:10;}
	.st34{fill:#6F0393;}
	.st35{fill:none;}
	.st36{fill:#96D7FF;}
	.st37{fill:#0C5100;}
	.st38{fill:#FFE856;}
	.st39{fill:#803971;}
	.st40{fill:#D3CECD;}
	.st41{fill:#4C241D;}
	.st42{fill:#EA3200;stroke:#4C241D;stroke-linecap:round;stroke-linejoin:round;stroke-miterlimit:50;}
	.st43{fill:#11930A;stroke:#4C241D;stroke-linecap:round;stroke-linejoin:round;stroke-miterlimit:50;}
	.st44{fill:#3792CF;}
	.st45{fill:#FEE36F;}
	.st46{fill:#136296;}
	.st47{fill:#53C2BA;}
	.st48{fill:#6D6D00;}
	.st49{fill:#001087;}
	.st50{fill:#F19333;}
	.st51{fill:#1554A1;}
	.st52{fill:#8E0000;}
	.st53{fill:#C46B02;}
	.st54{fill:#FFD662;}
	.st55{fill:#01539D;}
	.st56{fill:#007777;}
	.st57{fill:#3CAF47;}
	.st58{fill:#31575B;}
	.st59{fill:#7BBBFF;}
	.st60{fill:#513800;}
	.st61{fill:#009D5A;}
	.st62{fill:#C9A37C;}
	.st63{fill:#DB504A;}
	.st64{fill:#084C61;}
	.st65{opacity:0.3;fill:#BCBEC0;enable-background:new    ;}
	.st66{fill:#069A8E;}
	.st67{fill:#0A4D68;}
	.st68{fill:#190707;}
	.st69{fill:#39B54A;}
	.st70{fill:#01A9DB;}
	.st71{fill:#DF7401;}
	.st72{fill:#0F0F4F;}
	.st73{fill:#232365;}
	.st74{fill:#2169AA;}
	.st75{fill:#00828C;}
	.st76{fill:#00A4BA;}
	.st77{fill:#007CC1;}
	.st78{fill:#FF0000;}
	.st79{fill:#313341;}
	.st80{fill:#C9C9C9;}
	.st81{fill:#0C3F00;}
	.st82{fill:#00153A;}
	.st83{fill:#056168;}
	.st84{fill:#08E8FF;}
	.st85{fill:#00B7FF;}
	.st86{fill:#590060;}
	.st87{fill:#FF78DC;}
</style>
<g id="Layer_1">
</g>
<g id="Layer_2">
</g>
<g id="Layer_3">
</g>
<g id="Layer_4">
</g>
<g id="Layer_5">
</g>
<g id="Layer_6">
</g>
<g id="Layer_7">
</g>
<g id="Layer_8">
</g>
<g id="Layer_9">
</g>
<g id="Layer_10">
</g>
<g id="Layer_11">
</g>
<g id="Layer_12">
</g>
<g id="Layer_13">
</g>
<g id="Layer_14">
</g>
<g id="Layer_15">
	<g>
		<g>
			<path class="st63" d="M239.24,98.01c-0.86,3.87-2.08,7.61-3.6,11.2c-7.64-0.19-18.19-3.14-30.33-6.53
				c-0.14-0.04-0.29-0.08-0.45-0.12l26.33-0.81l-39.03-2.66c-2.82-0.74-5.67-1.45-8.57-2.12h-0.01
				c-12.05-20.68-17.31-70.41-17.31-70.41c-20,23.43-20.94,60.01-20.96,65.97c-0.77,0.03-1.53,0.06-2.27,0.11
				c0.24-41.91,19.53-64.63,20.74-66.02c-22.02,21.38-24.98,61.37-25.27,66.4c-12.97,1.41-21.35,5.29-26.67,9.18
				c-1.76-5.94-2.7-12.23-2.7-18.73c0-3.52,0.27-6.97,0.82-10.34l18.75-0.57l-18.43-1.26c1.38-7.4,4-14.37,7.64-20.68l27.9-0.85
				l-26.28-1.79C131.23,29.72,151.7,17.62,175,17.62c13.5,0,26.05,4.06,36.49,11.03c-5.52,1.77-5.29,8.1-4.76,11.43
				c-2.52-3.35-8.57-9.55-18.51-8.74c-16.88,1.38-13.92,21.03-13.92,21.03s1.19-2.56,3.62-5.53c-0.44-1.26-1.08-4.08-0.42-7.23
				c0,0,0.21,4.65,0.95,6.57c0.92-1.06,2-2.16,3.23-3.19c-0.22-1.49-0.79-5.03,0.18-7.73c0,0-0.37,4.42,0.52,7.16
				c2.14-1.67,4.72-3.12,7.74-3.91c8.39-2.2,13.58,1.11,15.44,2.64c-3.02-0.92-8.2-1.66-12.74,1.98c-8.34,6.68-4.4,20.31-4.4,20.31
				s0.73-4.89,3.82-10.15c-0.56-0.74-1.58-2.33-2.11-4.65c0,0,1.11,2.52,2.51,4c0.62-0.99,1.33-1.99,2.14-2.98
				c-0.68-0.76-2.02-2.39-2.67-3.96c0.14,0.15,1.99,2.23,3.17,3.36c0.76-0.86,1.59-1.71,2.52-2.5c1.61-1.38,3.27-2.18,4.77-2.64
				c-0.93,0.86-1.76,2.23-2.27,4.35c-2.62,10.9,6.1,20.87,6.1,20.87s-0.71-5.39-0.75-11.45c-1.21-0.86-3.46-2.55-4.71-3.96
				c0.19,0.14,2.87,2.03,4.7,3.01c0.01-4.94,0.5-10.15,2.18-13.15c0.66,0.77,1.79,2.16,3.17,4.16c-0.16,0.17-0.25,0.28-0.25,0.28
				c1.59,2.13,3.65,5.26,3.9,5.65c0.01,0.02,0.02,0.02,0.02,0.04c-0.25,0.25-0.41,0.41-0.41,0.41c1.86,3.03,3.86,6.71,4.09,7.14
				c0.01,0.01,0.01,0.03,0.02,0.04c-0.36,0.26-0.55,0.44-0.55,0.44c0.75,1.13,3.15,6.64,3.46,7.33c0,0.02,0,0.02,0.01,0.04
				c-0.34,0.15-0.54,0.24-0.54,0.24c0.87,2.02,2.52,7.1,2.75,7.81c0.01,0.03,0.02,0.06,0.03,0.09c-0.35,0.11-0.57,0.19-0.57,0.19
				c0.55,1.53,1.96,7.57,2.15,8.38c0,0.04,0.01,0.06,0.02,0.1l-0.52,0.08c0.42,1.75,1.26,8.06,1.39,9.01c0,0.05,0.01,0.09,0.01,0.14
				l-25.03,1.71L239.24,98.01z M240.86,83.48c0,3.64-0.3,7.22-0.87,10.71l-6.72,0.46c0.02-0.15,0.02-0.34,0.02-0.56
				c0-2.51-0.79-9.25-0.79-9.25l-0.52,0.07c-0.13-1.52-1.58-9.08-1.58-9.08c-0.18,0-0.38,0.01-0.58,0.02
				c-0.58-2.59-2.36-8.52-2.36-8.52c-0.19,0.02-0.38,0.04-0.57,0.06c-0.93-3.24-3.44-8.27-3.44-8.27c-0.18,0.03-0.34,0.06-0.5,0.1
				v-0.01c-0.54-1.35-1.68-3.26-2.7-4.84c-1.01-1.58-1.89-2.82-1.89-2.82c-0.15,0.03-0.3,0.07-0.46,0.12
				c-0.44-0.71-1.59-2.14-2.61-3.39c-1.03-1.25-1.95-2.31-1.95-2.31c-0.14,0.06-0.28,0.14-0.42,0.21c-1.37-1.31-2.83-2.55-4.39-3.71
				c3.32-1.48,6.27,0.38,8.66,3.24c0.24-0.91,0.58-2.29,0.65-2.97c0,0,0.17,1.75-0.21,3.52c0.66,0.86,1.29,1.79,1.85,2.75
				c0,0,0.66-3.48,0.56-4.91c0,0,0.32,2.49-0.18,5.57c0.47,0.83,0.9,1.66,1.28,2.45c0,0,0.54-3.07,0.5-4.55c0,0,0.28,2.68-0.18,5.23
				c1.25,2.67,1.94,4.79,1.94,4.79s0.84-13.08-4.63-18.09c-5.97-5.48-9.7,0.24-10.26,1.18c0.46-2.31,1.62-3.96,2.82-4.83
				c0.95-0.68,1.89-1.09,2.79-1.29c-0.62-0.74-1.68-1.93-2.52-2.58c0.38,0.25,2.05,1.35,3.3,2.46c3.15-0.3,5.84,1.73,7.13,2.94
				c0.06,0.05,0.1,0.1,0.15,0.14c0.05,0.04,0.09,0.09,0.13,0.13c0.07,0.08,0.14,0.15,0.22,0.23c0.03,0.03,0.06,0.06,0.09,0.1
				c0.1,0.09,0.15,0.16,0.19,0.2l0.02,0.02h0.01v0.01C234.01,50.02,240.86,65.95,240.86,83.48z"/>
			<path class="st64" d="M223.82,127.68c-2.94,3.25-6.19,6.19-9.72,8.81h-0.01c-0.38-0.13-0.89-0.3-1.51-0.47
				c-1.43-0.42-3.47-0.94-5.95-1.34c-1.24-0.2-2.59-0.39-4.01-0.53c-0.71-0.07-1.45-0.14-2.2-0.17c-0.75-0.06-1.52-0.08-2.3-0.1
				c-0.78-0.03-1.58-0.02-2.38-0.01c-0.8,0-1.61,0.05-2.43,0.09c-0.42,0.03-0.81,0.03-1.24,0.08l-1.21,0.11
				c-0.81,0.06-1.65,0.19-2.47,0.29c-3.27,0.43-6.49,1.06-9.5,1.67c-3,0.61-5.8,1.2-8.21,1.63c-1.2,0.21-2.31,0.38-3.29,0.5
				c-0.98,0.12-1.84,0.22-2.55,0.25c-0.71,0.06-1.27,0.06-1.66,0.06c-0.38,0.01-0.58,0.01-0.58,0.01s0.2,0.02,0.58,0.03
				c0.38,0.02,0.94,0.06,1.66,0.06c0.72,0.02,1.59-0.02,2.59-0.07c0.99-0.06,2.11-0.16,3.34-0.29c2.44-0.26,5.28-0.67,8.31-1.08
				c3.03-0.4,6.26-0.81,9.49-1.02c0.81-0.04,1.59-0.1,2.41-0.12l1.22-0.03c0.37-0.02,0.79,0,1.18,0c0.78,0.01,1.57,0.01,2.35,0.06
				c0.77,0.03,1.53,0.07,2.28,0.14c0.74,0.06,1.48,0.13,2.19,0.22c0.72,0.07,1.42,0.18,2.1,0.29c1.35,0.2,2.63,0.46,3.79,0.72
				c1.87,0.42,3.47,0.9,4.69,1.31c-10.3,6.68-22.58,10.55-35.77,10.55c-17.78,0-33.89-7.04-45.75-18.47
				c0.81-0.27,1.71-0.55,2.71-0.86c1.55-0.45,3.32-0.93,5.28-1.37c1.96-0.44,4.09-0.87,6.37-1.22c1.14-0.18,2.31-0.36,3.52-0.49
				c0.6-0.07,1.21-0.14,1.82-0.22c0.62-0.06,1.24-0.1,1.87-0.16c1.26-0.12,2.54-0.18,3.83-0.23c1.3-0.09,2.61-0.09,3.94-0.1
				c0.66,0,1.35-0.02,1.98,0c0.68,0.02,1.36,0.03,2.04,0.06c1.37,0.02,2.68,0.13,4.04,0.19c2.71,0.18,5.42,0.43,8.09,0.74
				c2.67,0.3,5.29,0.63,7.84,0.98c2.55,0.34,5,0.68,7.33,0.99c2.34,0.31,4.56,0.58,6.61,0.81c1.02,0.1,2.01,0.2,2.95,0.29
				c0.94,0.07,1.83,0.14,2.66,0.2c1.67,0.08,3.13,0.15,4.33,0.13c1.2,0.02,2.15-0.06,2.79-0.1c0.64-0.03,0.98-0.06,0.98-0.06
				s-0.34,0-0.98-0.01c-0.64,0-1.59,0-2.78-0.1c-1.19-0.06-2.63-0.22-4.29-0.42c-0.83-0.11-1.7-0.24-2.63-0.37
				c-0.92-0.15-1.89-0.31-2.9-0.48c-2.02-0.37-4.2-0.78-6.5-1.25c-2.31-0.47-4.75-0.97-7.26-1.48c-2.52-0.51-5.13-1.03-7.8-1.51
				c-2.67-0.49-5.4-0.92-8.14-1.3c-1.38-0.15-2.79-0.36-4.14-0.48c-0.67-0.06-1.35-0.12-2.03-0.18c-0.72-0.08-1.39-0.08-2.07-0.13
				c-1.37-0.07-2.73-0.15-4.08-0.15c-1.35-0.02-2.68-0.04-3.99,0.02c-0.66,0.02-1.31,0.03-1.95,0.05c-0.64,0.03-1.27,0.07-1.91,0.1
				c-1.27,0.06-2.49,0.17-3.69,0.29c-2.39,0.22-4.65,0.54-6.73,0.88c-2.08,0.34-3.98,0.74-5.65,1.11c-1.67,0.4-3.13,0.78-4.32,1.13
				c-0.43,0.12-0.83,0.24-1.18,0.35c-3.39-3.92-6.32-8.23-8.71-12.88c3-0.69,7.07-1.14,12.58-1.14c23.55,0,58.24,8.46,74.91,12.52
				l0.68,0.17c6.76,1.65,12.86,2.48,18.14,2.48C223.12,127.69,223.47,127.69,223.82,127.68z M107.01,113.57
				c0,0,6.74-17.5,43.57-17.1c36.83,0.4,76,21.3,92.42,15.83c0,0-2.14,17.62-37.43,9.01C182.16,115.61,121.95,100.76,107.01,113.57z
				"/>
			<path class="st16" d="M179.77,26.36c0,0-0.22-0.8-1.74-1.36s-4.27-2.23-4.59-2.73c-0.32-0.5-1.19-1.25-1.32-1.48
				c-0.13-0.22-0.35,0.49,0.21,1.2c0.55,0.71,1.19,1.47,1.43,1.95c0.24,0.48,1.28,2.1,2.97,2.53c1.69,0.43,2.52,0.69,2.48,0.91
				c-0.03,0.22-0.32,0.54-0.69,0.52c-0.37-0.01-1.38-0.23-1.43-0.01c-0.06,0.22,0.76,1.96,1.98,2.15c1.21,0.19,2.4-0.41,2.54-0.59
				c0.14-0.17-0.87-0.2-0.78-0.58c0.09-0.38,0.63-0.28,0.9-0.57c0.26-0.29,1.09-0.27,1.3-0.3c0.21-0.02-0.12-0.17-0.12-0.17
				s1.71-0.1,2.43-0.13c0.71-0.02,2.36-0.54,2.87-0.46c0.51,0.08,4.58-0.83,4.71-1.18c0.08-0.22-0.63,0.04-1.28,0.19
				c-0.65,0.15-2.77,0.4-3.62,0.19c-0.84-0.2-2.06-0.39-2.59-0.39c-0.53,0-2.01,0.56-2.61,0.7c-0.6,0.14-0.94,0.18-0.94,0.18
				s-0.44-0.41-0.8-0.53C180.72,26.28,179.77,26.36,179.77,26.36z M203.53,76.56c0,0-0.2-0.26-0.46-0.2
				c-0.26,0.06-0.43,0.15-0.58,0.14c-0.15-0.01-0.78-0.14-0.98-0.77c-0.2-0.63,0.08-1.6-0.45-1.81c-0.52-0.22-1.97-0.5-3.61-0.33
				c-1.65,0.17-1.79,0.13-1.26,0.51c0.52,0.38,1.37,0.5,1.65,0.5c0.28,0,0.89,0.06,1.14,0.27c0.24,0.2,0.38,0.68,0.75,1.35
				c0.37,0.68,0.83,1.42,0.81,1.65c-0.03,0.23-0.32,0.51-0.65,0.63c-0.33,0.11-0.61,0.18-0.55,0.29c0.06,0.11,0.42,0.27,0.57,0.38
				c0.15,0.11,0.36,0.31,0.45,0.18s0.29-0.54,0.68-0.65c0.38-0.11,0.6-0.06,1.23-0.42c0.63-0.36,1.02-0.93,1.1-1.02
				c0.08-0.09,0.33,0.07,0.46,0.22c0.13,0.15,0.31,0.56,0.66,0.83c0.36,0.27,0.47,0.74,0.74,0.82c0.27,0.08,0.17-1.08,0.15-1.66
				c-0.01-0.57-0.06-0.85-0.26-1.14c-0.19-0.28-0.41-0.34-0.57-0.23C204.37,76.21,203.73,76.55,203.53,76.56z"/>
		</g>
		<path class="st65" d="M175,153.86c27.93,0,50.57,2.53,50.57,5.65c0,3.12-22.64,5.65-50.57,5.65s-50.57-2.53-50.57-5.65
			C124.43,156.39,147.07,153.86,175,153.86z"/>
	</g>
</g>
</svg>
