<?xml version="1.0" encoding="utf-8"?>
<!-- Generator: Adobe Illustrator 27.8.1, SVG Export Plug-In . SVG Version: 6.00 Build 0)  -->
<svg version="1.1" xmlns="http://www.w3.org/2000/svg" xmlns:xlink="http://www.w3.org/1999/xlink" x="0px" y="0px"
	 viewBox="0 0 350 230" style="enable-background:new 0 0 350 230;" xml:space="preserve">
<style type="text/css">
	.st0{fill-rule:evenodd;clip-rule:evenodd;fill:#A6D63C;}
	.st1{fill-rule:evenodd;clip-rule:evenodd;fill:#00A0D1;}
	.st2{fill:#421C00;}
	.st3{fill-rule:evenodd;clip-rule:evenodd;fill:#FFFFFF;}
	.st4{fill:#699AE2;}
	.st5{fill:#3B7DC4;}
	.st6{fill:#AF7500;}
	.st7{fill:#FFDF00;}
	.st8{fill:#1A0256;}
	.st9{fill:#00594F;}
	.st10{fill:#00779B;}
	.st11{fill:#0074FF;}
	.st12{fill:#194A91;}
	.st13{fill-rule:evenodd;clip-rule:evenodd;fill:#EFEFEF;}
	.st14{fill:#044159;}
	.st15{fill:#4C2900;}
	.st16{fill:#FFFFFF;}
	.st17{fill:#FFB41F;}
	.st18{fill:#FF5A00;}
	.st19{fill:#680404;}
	.st20{fill:#03AA6F;}
	.st21{fill:#FB5968;}
	.st22{fill:#FFD24A;}
	.st23{fill:#055EBC;}
	.st24{fill:#6F6F6F;}
	.st25{fill:#454545;}
	.st26{fill:#BA1A00;}
	.st27{fill:#0071BC;}
	.st28{fill:#6F0393;}
	.st29{fill:none;}
	.st30{fill:#96D7FF;}
	.st31{fill:#0C5100;}
	.st32{fill:#FFE856;}
	.st33{fill:#803971;}
	.st34{fill:#D3CECD;}
	.st35{fill:#4C241D;}
	.st36{fill:#EA3200;stroke:#4C241D;stroke-linecap:round;stroke-linejoin:round;stroke-miterlimit:50;}
	.st37{fill:#11930A;stroke:#4C241D;stroke-linecap:round;stroke-linejoin:round;stroke-miterlimit:50;}
	.st38{fill:#3792CF;}
	.st39{fill:#FEE36F;}
	.st40{fill:#136296;}
	.st41{fill:#53C2BA;}
	.st42{fill:#6D6D00;}
	.st43{fill:#001087;}
</style>
<g id="Layer_1">
</g>
<g id="Layer_2">
	<g>
		<path class="st1" d="M249,81.77c0,36.74-29.79,66.53-66.53,66.53c-1.6,0-3.19-0.06-4.76-0.17l2.88-3.48
			c0.65-0.77,0.54-1.93-0.24-2.58l-4.43-3.66c-0.32-0.27-0.74-0.43-1.16-0.43c-0.17,0-0.34,0.03-0.5,0.07l-1.91-5.66l2.53-3.07
			c0.31-0.37,0.47-0.85,0.41-1.34c-0.05-0.49-0.29-0.94-0.66-1.23l-4.45-3.68c-0.32-0.26-0.72-0.4-1.14-0.4l-2.08-6.15l10.39-12.58
			c2.76-3.34,4.9-7.17,6.02-10.78c0.67-2.15,1.5-5.99-0.39-7.56c-0.53-0.44-1.26-0.67-2.13-0.67c-3.32,0-9.65,3.38-14.82,9.65
			c0,0-4.11,4.97-10.39,12.58l-6.43-0.88c-0.08-0.39-0.29-0.77-0.63-1.05l-4.42-3.66c-0.33-0.27-0.74-0.43-1.17-0.43
			c-0.54,0-1.06,0.24-1.41,0.67l-2.54,3.08l-5.92-0.81c0.01-0.11,0.01-0.22,0-0.33c-0.05-0.49-0.28-0.93-0.66-1.23l-4.45-3.68
			c-0.32-0.26-0.73-0.4-1.14-0.4c-0.55,0-1.07,0.24-1.4,0.66l-2.92,3.54l-3.42-0.47c-2.07-6.43-3.19-13.28-3.19-20.39
			c0-36.74,29.79-66.53,66.53-66.53S249,45.03,249,81.77z"/>
		<path class="st2" d="M176.22,148.01l-0.04-0.11l3.4-4.11c0.17-0.21,0.14-0.51-0.07-0.69l-4.43-3.66
			c-0.21-0.17-0.51-0.14-0.69,0.07l-0.74,0.9l-2.79-8.28l3.02-3.65c0.17-0.21,0.14-0.51-0.07-0.68l-4.43-3.67
			c-0.21-0.17-0.51-0.14-0.69,0.07l-0.36,0.44l-2.83-8.38c6.55-7.93,10.86-13.15,10.86-13.15c5.85-7.08,7.61-14.96,5.8-16.45
			c-1.81-1.5-9.22,1.72-15.07,8.8c0,0-4.31,5.23-10.86,13.15l-8.76-1.2l0.36-0.44c0.17-0.21,0.14-0.51-0.07-0.69l-4.43-3.66
			c-0.21-0.17-0.51-0.14-0.69,0.07l-3.02,3.65l-8.65-1.18l0.74-0.9c0.17-0.21,0.14-0.51-0.07-0.68l-4.44-3.67
			c-0.21-0.17-0.51-0.14-0.68,0.07l-3.4,4.11l-3.5-0.48l-14.33-1.97c-0.6-0.08-1.19,0.15-1.57,0.62l-2.57,3.11
			c-0.27,0.32-0.13,0.8,0.25,0.94l22.84,8.19l-0.38,0.46c-0.11,0.14-0.19,0.31-0.22,0.45c-0.03,0.15,0,0.27,0.08,0.34
			c0.17,0.14,0.52-0.01,0.76-0.29l0.35-0.43l0.2-0.24l8.04,2.88l2.72,2.25l-0.57,0.69c-0.12,0.14-0.19,0.31-0.22,0.45
			c-0.03,0.15-0.01,0.27,0.08,0.34c0.17,0.14,0.52-0.01,0.75-0.29l0.58-0.69l5.98,4.95c-1.41,1.7-2.85,3.44-4.3,5.2
			c-0.13,0.15-0.25,0.3-0.37,0.45c-2.8,3.42-5.08,6.49-6.94,9.24l-17.26-1.66c-0.27-0.02-0.53,0.09-0.7,0.29l-1.58,1.91
			c-0.33,0.39-0.21,0.99,0.25,1.23l6.8,3.58l-0.35,0.43c-0.12,0.14-0.19,0.31-0.22,0.45c-0.03,0.15-0.01,0.27,0.08,0.34
			c0.17,0.14,0.52-0.01,0.75-0.29l0.46-0.55l4.76,2.5l-0.38,0.46c-0.11,0.15-0.19,0.31-0.22,0.45c-0.03,0.14,0,0.27,0.08,0.34
			c0.17,0.13,0.52-0.01,0.75-0.29l0.49-0.59l0.98,0.51c-1.7,3.54-2.39,6.02-2.67,7.54l-2.9,3.52c-0.31,0.37-0.51,0.8-0.58,1.17
			c-0.07,0.37-0.01,0.7,0.21,0.88c0.43,0.36,1.35-0.03,1.94-0.74l2.91-3.52c1.44-0.56,3.75-1.7,6.91-4.04l0.69,0.86l-0.49,0.59
			c-0.23,0.28-0.31,0.66-0.15,0.8c0.09,0.07,0.21,0.07,0.35,0.01c0.13-0.05,0.28-0.16,0.4-0.3l0.38-0.47l3.36,4.21l-0.46,0.56
			c-0.23,0.27-0.31,0.66-0.14,0.79c0.08,0.07,0.21,0.07,0.35,0.02c0.14-0.05,0.28-0.16,0.4-0.31l0.35-0.43l4.79,6
			c0.32,0.4,0.93,0.41,1.26,0.01l1.57-1.91c0.17-0.21,0.23-0.48,0.15-0.74l-4.89-16.63c2.44-2.43,5.14-5.38,8.1-8.96
			c0.01-0.01,0.03-0.03,0.04-0.05c1.45-1.76,2.89-3.5,4.3-5.2l5.98,4.94l-0.57,0.7c-0.23,0.27-0.31,0.65-0.14,0.79
			c0.08,0.07,0.21,0.07,0.35,0.01c0.14-0.05,0.28-0.16,0.4-0.3l0.57-0.69l2.73,2.25l2.94,4.98l1.4,2.37l-0.56,0.68
			c-0.23,0.28-0.31,0.66-0.14,0.8c0.09,0.07,0.21,0.07,0.35,0.01c0.14-0.05,0.29-0.16,0.4-0.3l0.38-0.46l12.36,20.88
			c0.21,0.35,0.71,0.39,0.98,0.08l2.57-3.12c0.38-0.46,0.49-1.09,0.31-1.66L176.22,148.01z"/>
		<path class="st3" d="M209.55,31.47c0,3.2-2.59,5.79-5.79,5.79c-0.52,0-1.02-0.07-1.49-0.2c-1.02,1.66-2.84,2.77-4.93,2.77
			c-1.51,0-2.89-0.58-3.92-1.53c-1.04,1.51-2.78,2.5-4.76,2.5c-1.07,0-2.07-0.29-2.93-0.8c-1.02,0.9-2.36,1.44-3.82,1.44
			c-3.2,0-5.79-2.59-5.79-5.79c0-3.2,2.59-5.79,5.79-5.79c0.46,0,0.91,0.05,1.34,0.16c0.39-2.82,2.81-4.98,5.73-4.98
			c0.93,0,1.81,0.22,2.59,0.61c0.8-2.23,2.94-3.83,5.45-3.83c2.57,0,4.75,1.67,5.5,4c0.4-0.09,0.82-0.14,1.25-0.14
			C206.96,25.68,209.55,28.27,209.55,31.47z M168.33,41.73c-0.43,0-0.85,0.05-1.25,0.14c-0.76-2.32-2.93-4-5.5-4
			c-2.51,0-4.64,1.6-5.45,3.83c-0.78-0.39-1.66-0.61-2.59-0.61c-2.92,0-5.34,2.17-5.73,4.98c-0.43-0.11-0.88-0.16-1.34-0.16
			c-3.2,0-5.79,2.59-5.79,5.79c0,3.2,2.59,5.79,5.79,5.79c1.46,0,2.8-0.54,3.82-1.44c0.86,0.51,1.86,0.8,2.93,0.8
			c1.97,0,3.72-0.99,4.76-2.5c1.03,0.95,2.41,1.53,3.92,1.53c2.09,0,3.92-1.11,4.93-2.77c0.48,0.13,0.98,0.2,1.49,0.2
			c3.2,0,5.79-2.59,5.79-5.79C174.12,44.32,171.53,41.73,168.33,41.73z M229.84,46.41c-0.43,0-0.85,0.05-1.25,0.14
			c-0.76-2.32-2.93-4-5.5-4c-2.51,0-4.64,1.6-5.45,3.83c-0.78-0.39-1.66-0.61-2.59-0.61c-2.92,0-5.34,2.17-5.73,4.98
			c-0.43-0.11-0.88-0.16-1.34-0.16c-3.2,0-5.79,2.59-5.79,5.79c0,3.2,2.59,5.79,5.79,5.79c1.46,0,2.8-0.54,3.82-1.44
			c0.86,0.51,1.86,0.8,2.93,0.8c1.97,0,3.72-0.99,4.76-2.5c1.03,0.95,2.41,1.53,3.92,1.53c2.09,0,3.92-1.11,4.93-2.77
			c0.48,0.13,0.98,0.2,1.49,0.2c3.2,0,5.79-2.59,5.79-5.79C235.63,49,233.04,46.41,229.84,46.41z M182.45,147.29
			c28.08-8.48,41.92-26.96,41.92-26.96C206.65,145.02,182.45,147.29,182.45,147.29z M216.16,123.43c0,0-11.21,14.97-33.96,21.85
			C182.2,145.28,201.8,143.43,216.16,123.43z M206.82,126.75c0,0-7.63,11.32-23.97,17.16C182.85,143.91,197.08,141.85,206.82,126.75
			z M136.72,53.37c0,0-14.83,17.69-16.68,46.96C120.04,100.34,116.73,76.26,136.72,53.37z M122.06,100.13
			c1.5-23.72,13.52-38.05,13.52-38.05C119.38,80.62,122.06,100.13,122.06,100.13z M123.25,99.17c1.95-17.24,11.23-27.25,11.23-27.25
			C122,84.85,123.25,99.17,123.25,99.17z"/>
	</g>
</g>
<g id="Layer_3">
</g>
<g id="Layer_4">
</g>
<g id="Layer_5">
</g>
<g id="Layer_6">
</g>
<g id="Layer_7">
</g>
<g id="Layer_8">
</g>
<g id="Layer_9">
</g>
<g id="Layer_10">
</g>
<g id="Layer_11">
</g>
<g id="Layer_12">
</g>
<g id="Layer_13">
</g>
<g id="Layer_14">
</g>
<g id="Layer_15">
</g>
</svg>
