<?xml version="1.0" encoding="utf-8"?>
<!-- Generator: Adobe Illustrator 27.8.1, SVG Export Plug-In . SVG Version: 6.00 Build 0)  -->
<svg version="1.1" xmlns="http://www.w3.org/2000/svg" xmlns:xlink="http://www.w3.org/1999/xlink" x="0px" y="0px"
	 viewBox="0 0 350 230" style="enable-background:new 0 0 350 230;" xml:space="preserve">
<style type="text/css">
	.st0{fill:#003F49;}
	.st1{fill:#8E032B;}
	.st2{fill:#87622B;}
	.st3{fill:#83014C;}
	.st4{fill:#B72204;}
	.st5{fill:#015254;}
	.st6{fill:#5B9C40;}
	.st7{fill:#0055B6;}
	.st8{fill-rule:evenodd;clip-rule:evenodd;fill:#3A1D03;}
	.st9{fill-rule:evenodd;clip-rule:evenodd;fill:#723600;}
	.st10{fill:#00438D;}
	.st11{fill:#162E50;}
	.st12{fill:#F6921E;}
	.st13{fill:#00237A;}
	.st14{fill:#563B00;}
	.st15{fill:#00FFB6;}
	.st16{fill:#9500FF;}
	.st17{fill:#440000;}
	.st18{fill:#45EDFF;}
	.st19{fill:#CC7F7F;}
</style>
<g id="Layer_1">
</g>
<g id="Layer_2">
</g>
<g id="Layer_3">
</g>
<g id="Layer_4">
</g>
<g id="Layer_5">
</g>
<g id="Layer_6">
</g>
<g id="Layer_7">
</g>
<g id="Layer_8">
</g>
<g id="Layer_9">
</g>
<g id="Layer_10">
</g>
<g id="Layer_11">
</g>
<g id="Layer_12">
</g>
<g id="Layer_13">
</g>
<g id="Layer_14">
</g>
<g id="Layer_15">
	<path class="st19" d="M208.63,59.9V106c-11.21,6.48-22.42,12.95-33.63,19.42c-11.21-6.48-22.42-12.95-33.63-19.42V59.9h4.49v43.54
		c9.72,5.61,19.43,11.21,29.15,16.82c9.72-5.61,19.43-11.21,29.15-16.82V59.9H208.63z M141.37,50.93h67.27v4.49h-67.27V50.93z
		 M132.4,153.09h85.34v4.49H132.4V153.09z M123.43,162.06h103.28v4.49H123.43V162.06z M145.85,113.79v34.82h-4.49v-37.42
		L145.85,113.79L145.85,113.79z M208.63,111.2v37.42h-4.49v-34.83L208.63,111.2L208.63,111.2z M199.67,116.38v32.24h-4.49v-29.65
		L199.67,116.38z M190.7,121.56v27.06h-4.49v-24.47L190.7,121.56z M181.73,126.74v21.88h-4.49v-19.29l0,0L181.73,126.74
		L181.73,126.74z M172.76,129.33v19.29h-4.49v-21.88L172.76,129.33L172.76,129.33z M163.79,124.15v24.47h-4.49v-27.06L163.79,124.15
		z M154.82,118.97v29.65h-4.49v-32.24L154.82,118.97z M199.67,65.15l-13.46,4.45v16.9v3.24v0.09l-6.89,3.98l11.84,6.84l4.03-2.32
		V71.66l4.49-1.48v30.7c-8.88,5.12-15.79,9.12-24.66,14.24c-8.87-5.12-15.78-9.12-24.66-14.24V69.72l4.49,1.48v27.11l4.43,2.55
		l12.23-7.06l-7.69-4.44v-0.09v-3.25v-16.9l-13.46-4.45v-4.72l17.93,5.93v21.16v0.37l7.13,4.11l6.33-3.65v-0.37V66.33l17.94-5.93
		v4.72L199.67,65.15z M175.4,96.07l-12.23,7.06c3.8,2.19,7.48,4.31,11.84,6.83c4.51-2.6,8.29-4.79,12.23-7.06L175.4,96.07
		L175.4,96.07z M137.06,50.9c-0.19,1.93-1.05,3.65-2.35,4.95c-1.48,1.48-3.52,2.39-5.77,2.39c-2.25,0-4.29-0.91-5.76-2.39
		c-1.48-1.48-2.39-3.51-2.39-5.77c0-2.25,0.92-4.29,2.39-5.76c1.48-1.48,3.51-2.39,5.76-2.39c32.71,0,59.46,0,92.11,0
		c2.25,0,4.29,0.91,5.76,2.39c1.48,1.48,2.39,3.51,2.39,5.76c0,2.26-0.92,4.29-2.39,5.77c-1.48,1.48-3.51,2.39-5.76,2.39
		c-2.26,0-4.29-0.91-5.77-2.39c-1.3-1.3-2.16-3.02-2.35-4.95h4.54c0.16,0.69,0.5,1.3,0.98,1.78c0.66,0.67,1.58,1.07,2.59,1.07
		s1.93-0.41,2.59-1.07c0.66-0.67,1.07-1.58,1.07-2.59c0-1.01-0.41-1.93-1.07-2.59c-0.67-0.66-1.58-1.07-2.59-1.07h-1.07h-9.69H140.8
		h-9.69h-2.17c-1.01,0-1.93,0.41-2.59,1.07c-0.66,0.67-1.07,1.58-1.07,2.59c0,1.02,0.41,1.93,1.07,2.59
		c0.67,0.67,1.58,1.07,2.59,1.07c1.02,0,1.93-0.41,2.59-1.07c0.48-0.48,0.83-1.1,0.98-1.78h4.54H137.06z M132.26,32.91h85.48v4.49
		h-85.48V32.91z"/>
</g>
</svg>
