<?xml version="1.0" encoding="utf-8"?>
<!-- Generator: Adobe Illustrator 27.8.1, SVG Export Plug-In . SVG Version: 6.00 Build 0)  -->
<svg version="1.1" xmlns="http://www.w3.org/2000/svg" xmlns:xlink="http://www.w3.org/1999/xlink" x="0px" y="0px"
	 viewBox="0 0 350 230" style="enable-background:new 0 0 350 230;" xml:space="preserve">
<style type="text/css">
	.st0{fill-rule:evenodd;clip-rule:evenodd;fill:#A6D63C;}
	.st1{fill-rule:evenodd;clip-rule:evenodd;fill:#00A0D1;}
	.st2{fill:#421C00;}
	.st3{fill-rule:evenodd;clip-rule:evenodd;fill:#FFFFFF;}
	.st4{fill:#699AE2;}
	.st5{fill:#3B7DC4;}
	.st6{fill:#AF7500;}
	.st7{fill:#FFDF00;}
	.st8{fill:#1A0256;}
	.st9{fill:#00594F;}
	.st10{fill:#00779B;}
	.st11{fill:#0074FF;}
	.st12{fill:#194A91;}
	.st13{fill-rule:evenodd;clip-rule:evenodd;fill:#EFEFEF;}
	.st14{fill:#044159;}
	.st15{fill:#4C2900;}
	.st16{fill:#FFFFFF;}
	.st17{fill:#FFB41F;}
	.st18{fill:#FF5A00;}
	.st19{fill:#680404;}
	.st20{fill:#03AA6F;}
	.st21{fill:#FB5968;}
	.st22{fill:#FFD24A;}
	.st23{fill:#055EBC;}
	.st24{fill:#6F6F6F;}
	.st25{fill:#454545;}
	.st26{fill:#BA1A00;}
	.st27{fill:#0071BC;}
	.st28{fill:#6F0393;}
	.st29{fill:none;}
	.st30{fill:#96D7FF;}
	.st31{fill:#0C5100;}
	.st32{fill:#FFE856;}
	.st33{fill:#803971;}
	.st34{fill:#D3CECD;}
	.st35{fill:#4C241D;}
	.st36{fill:#EA3200;stroke:#4C241D;stroke-linecap:round;stroke-linejoin:round;stroke-miterlimit:50;}
	.st37{fill:#11930A;stroke:#4C241D;stroke-linecap:round;stroke-linejoin:round;stroke-miterlimit:50;}
	.st38{fill:#3792CF;}
	.st39{fill:#FEE36F;}
	.st40{fill:#136296;}
	.st41{fill:#53C2BA;}
	.st42{fill:#6D6D00;}
	.st43{fill:#001087;}
</style>
<g id="Layer_1">
</g>
<g id="Layer_2">
</g>
<g id="Layer_3">
	<g>
		<path class="st4" d="M204.03,158.66C204.03,158.66,204.03,158.66,204.03,158.66c35.06,5.83,68.1-7.8,69.22-32.06l0,0
			c0.47-5.19-0.98-10.48-3.82-14.36c-5.92-8.05-15.2-9.06-22.15-5.77c-7.58,3.59-12.61,11.9-12.61,11.9s3.7-28.57,31.65-24.21
			c28.29,4.42,36.52,55.28,2.84,70.37C251.37,172.51,231.35,166.59,204.03,158.66z"/>
		<path class="st5" d="M204.05,158.66C204.05,158.66,204.05,158.66,204.05,158.66c-15.26-4.43-32.79-9.48-53.49-13.09
			c-57.08-9.96-85.31,8.52-85.31,8.52c17.98-17.05,44.86-28.63,109.49-20.54c19.61,2.45,53.39,12.91,77.42,11.24
			c14.1-0.98,20.31-9.45,21.1-18.2l0,0C272.15,150.86,239.11,164.49,204.05,158.66z M187.97,161.29c-82.64-32.1-102.4,0-102.4,0
			C131.25,146.17,187.97,161.29,187.97,161.29z"/>
		<path class="st6" d="M251.24,58.26c-2.59-0.11-5.19,0.05-7.77,0.22c-4.26,0.28-8.52,0.71-12.76,1.22
			c-5.61,0.67-11.19,1.49-16.76,2.43c-6.63,1.12-13.22,2.4-19.78,3.85c-7.33,1.62-14.61,3.44-21.83,5.47
			c-7.71,2.18-15.35,4.6-22.89,7.31c-7.78,2.8-15.46,5.89-22.97,9.35c-7.55,3.48-14.94,7.32-22.07,11.61
			c-7.04,4.23-13.82,8.89-20.19,14.07c-6.24,5.07-12.1,10.63-17.33,16.73c-2.13,2.49-4.2,5.11-5.54,8.12
			c-1.45,3.28-1.93,6.91-2.48,10.42c47.22-41.85,156.24-11.87,156.24-11.87C217.89,85.9,268.24,58.99,251.24,58.26z M98.14,115.15
			c-1.15,0.29-2.33-0.36-2.62-1.47c-0.29-1.11,0.43-2.26,1.6-2.56c1.18-0.3,2.34,0.38,2.61,1.49
			C100.01,113.73,99.3,114.86,98.14,115.15z M112.17,107.63c-1.41,0.26-2.78-0.62-3.04-1.98c-0.26-1.36,0.71-2.69,2.15-2.95
			c1.44-0.26,2.79,0.65,3.02,2.01C114.53,106.08,113.58,107.37,112.17,107.63z M126.64,101.08c-1.67,0.19-3.19-0.93-3.39-2.54
			c-0.2-1.61,1.04-3.1,2.76-3.29c1.71-0.2,3.21,0.98,3.36,2.59C129.52,99.44,128.31,100.88,126.64,101.08z M141.52,95.49
			c-1.92,0.09-3.58-1.31-3.68-3.16c-0.1-1.86,1.44-3.47,3.42-3.56c1.98-0.09,3.6,1.37,3.64,3.22
			C144.94,93.85,143.44,95.4,141.52,95.49z M156.73,90.9c-2.17-0.04-3.93-1.73-3.9-3.83c0.03-2.1,1.9-3.8,4.15-3.76
			c2.24,0.04,3.95,1.81,3.84,3.9C160.72,89.31,158.9,90.94,156.73,90.9z M177.09,83.53c-0.29,2.32-2.44,3.99-4.85,3.79
			c-2.41-0.2-4.24-2.21-4.04-4.54c0.2-2.33,2.42-4.09,4.92-3.88C175.62,79.12,177.38,81.21,177.09,83.53z M193.63,80.94
			c-0.51,2.53-3.01,4.21-5.65,3.82c-2.64-0.39-4.5-2.73-4.11-5.28c0.39-2.55,2.99-4.33,5.74-3.91
			C192.37,75.98,194.14,78.42,193.63,80.94z M83.01,78.89c41.17-34.04,125.61-48.65,125.61-48.65v30.13
			c-72,8.06-121.05,46.6-121.05,46.6L83.01,78.89z M157.8,21.71c-35.97,7-77.9,34.79-77.9,34.79l2.8,18
			c37.89-25.56,77.76-35.66,77.76-35.66L157.8,21.71z"/>
	</g>
</g>
<g id="Layer_4">
</g>
<g id="Layer_5">
</g>
<g id="Layer_6">
</g>
<g id="Layer_7">
</g>
<g id="Layer_8">
</g>
<g id="Layer_9">
</g>
<g id="Layer_10">
</g>
<g id="Layer_11">
</g>
<g id="Layer_12">
</g>
<g id="Layer_13">
</g>
<g id="Layer_14">
</g>
<g id="Layer_15">
</g>
</svg>
