<?xml version="1.0" encoding="utf-8"?>
<!-- Generator: Adobe Illustrator 27.8.1, SVG Export Plug-In . SVG Version: 6.00 Build 0)  -->
<svg version="1.1" xmlns="http://www.w3.org/2000/svg" xmlns:xlink="http://www.w3.org/1999/xlink" x="0px" y="0px"
	 viewBox="0 0 350 230" style="enable-background:new 0 0 350 230;" xml:space="preserve">
<style type="text/css">
	.st0{fill-rule:evenodd;clip-rule:evenodd;fill:#A6D63C;}
	.st1{fill-rule:evenodd;clip-rule:evenodd;fill:#00A0D1;}
	.st2{fill:#421C00;}
	.st3{fill-rule:evenodd;clip-rule:evenodd;fill:#FFFFFF;}
	.st4{fill:#699AE2;}
	.st5{fill:#3B7DC4;}
	.st6{fill:#AF7500;}
	.st7{fill:#FFDF00;}
	.st8{fill:#1A0256;}
	.st9{fill:#00594F;}
	.st10{fill:#00779B;}
	.st11{fill:#0074FF;}
	.st12{fill:#194A91;}
	.st13{fill-rule:evenodd;clip-rule:evenodd;fill:#EFEFEF;}
	.st14{fill:#044159;}
	.st15{fill:#4C2900;}
	.st16{fill:#FFFFFF;}
	.st17{fill:#FFB41F;}
	.st18{fill:#FF5A00;}
	.st19{fill:#680404;}
	.st20{fill:#03AA6F;}
	.st21{fill:#FB5968;}
	.st22{fill:#FFD24A;}
	.st23{fill:#055EBC;}
	.st24{fill:#6F6F6F;}
	.st25{fill:#454545;}
	.st26{fill:#BA1A00;}
	.st27{fill:#0071BC;}
	.st28{fill:#6F0393;}
	.st29{fill:none;}
	.st30{fill:#96D7FF;}
	.st31{fill:#0C5100;}
	.st32{fill:#FFE856;}
	.st33{fill:#803971;}
	.st34{fill:#D3CECD;}
	.st35{fill:#4C241D;}
	.st36{fill:#EA3200;stroke:#4C241D;stroke-linecap:round;stroke-linejoin:round;stroke-miterlimit:50;}
	.st37{fill:#11930A;stroke:#4C241D;stroke-linecap:round;stroke-linejoin:round;stroke-miterlimit:50;}
	.st38{fill:#3792CF;}
	.st39{fill:#FEE36F;}
	.st40{fill:#136296;}
	.st41{fill:#53C2BA;}
	.st42{fill:#6D6D00;}
	.st43{fill:#001087;}
</style>
<g id="Layer_1">
</g>
<g id="Layer_2">
</g>
<g id="Layer_3">
</g>
<g id="Layer_4">
</g>
<g id="Layer_5">
</g>
<g id="Layer_6">
	<g>
		<path class="st13" d="M238.78,63.65c-2.61,0-5.17,0.29-7.63,0.85c-4.62-14.19-17.95-24.44-33.66-24.44
			c-15.34,0-28.41,9.77-33.3,23.42c-4.76-2.4-10.15-3.76-15.85-3.76c-17.87,0-32.66,13.25-35.03,30.47
			c-2.63-0.65-5.39-0.98-8.22-0.98c-19.54,0-35.39,15.85-35.39,35.39s15.85,35.39,35.39,35.39c8.95,0,17.12-3.32,23.36-8.83
			c5.27,3.11,11.38,4.9,17.93,4.9c12.07,0,22.73-6.06,29.1-15.28c6.31,5.82,14.73,9.38,23.99,9.38c12.78,0,23.97-6.76,30.18-16.93
			c2.91,0.79,5.98,1.2,9.14,1.2c19.54,0,35.39-15.85,35.39-35.39S258.32,63.65,238.78,63.65z"/>
		<path class="st14" d="M231.8,51.05l3.93,4.9c0.4,0.5,0.18,1.25-0.42,1.46L199.6,69.62l0.58,0.72c0.18,0.23,0.3,0.48,0.34,0.71
			c0.04,0.23,0,0.42-0.13,0.53c-0.27,0.21-0.81-0.03-1.16-0.47l-0.86-1.07l-12.56,4.3l-4.29,3.44l0.87,1.09
			c0.18,0.23,0.3,0.48,0.34,0.71c0.04,0.23,0,0.42-0.13,0.53c-0.27,0.21-0.81-0.03-1.16-0.47l-0.87-1.09l-9.43,7.56
			c2.15,2.69,4.35,5.42,6.57,8.2c4.53,5.66,8.19,10.73,11.14,15.23l0,0l26.88-2.18c0.42-0.03,0.82,0.14,1.08,0.47l2.41,3
			c0.5,0.62,0.3,1.55-0.41,1.91l-10.66,5.4l0.54,0.68c0.18,0.23,0.3,0.48,0.34,0.71c0.04,0.23,0,0.42-0.13,0.53
			c-0.27,0.21-0.81-0.03-1.16-0.47l-0.71-0.88l-7.47,3.78l0.58,0.73c0.18,0.23,0.3,0.48,0.34,0.71c0.04,0.23,0,0.42-0.13,0.53
			c-0.27,0.21-0.81-0.03-1.16-0.47l-0.74-0.93l-1.52,0.77c2.56,5.54,3.57,9.43,3.97,11.8l4.44,5.53c0.9,1.13,1.21,2.64,0.52,3.19
			c-0.34,0.27-0.86,0.26-1.41,0.04c-0.55-0.22-1.13-0.66-1.59-1.24l-4.44-5.53c-2.23-0.9-5.8-2.74-10.65-6.44l-1.08,1.32l0.74,0.93
			c0.35,0.44,0.47,1.02,0.2,1.23c-0.13,0.11-0.33,0.1-0.54,0.02c-0.21-0.09-0.44-0.26-0.62-0.48l-0.58-0.73l-5.32,6.46l0.71,0.88
			c0.35,0.44,0.47,1.02,0.2,1.23c-0.13,0.11-0.33,0.1-0.54,0.02c-0.21-0.09-0.44-0.26-0.62-0.48l-0.54-0.68l-7.59,9.23
			c-0.51,0.62-1.45,0.61-1.95-0.01l-2.41-3c-0.26-0.33-0.34-0.76-0.22-1.16l7.98-25.76l0,0c-3.76-3.86-7.91-8.53-12.44-14.19
			c-2.22-2.77-4.42-5.51-6.57-8.2l-9.43,7.56l0.87,1.09c0.35,0.44,0.47,1.02,0.2,1.23c-0.13,0.11-0.33,0.1-0.54,0.02
			c-0.21-0.09-0.44-0.26-0.62-0.48l-0.87-1.09l-4.29,3.44l-6.93,11.32l0.86,1.07c0.35,0.44,0.47,1.02,0.2,1.23
			c-0.13,0.11-0.33,0.1-0.54,0.02c-0.21-0.09-0.44-0.26-0.62-0.48l-0.58-0.72l-19.7,32.19c-0.34,0.55-1.11,0.6-1.51,0.1l-3.93-4.9
			c-0.58-0.73-0.75-1.7-0.44-2.58l9.36-26.4l-5.19-6.47c-0.26-0.33-0.21-0.8,0.12-1.07l6.98-5.6c0.33-0.26,0.8-0.21,1.07,0.12
			l1.13,1.41l4.54-12.8l-4.61-5.75c-0.26-0.33-0.21-0.8,0.12-1.07l6.98-5.6c0.33-0.26,0.8-0.21,1.07,0.12l0.55,0.69l4.6-12.97
			c-10-12.48-16.59-20.7-16.59-20.7c-8.94-11.15-11.49-23.45-8.65-25.73c2.84-2.28,14.29,2.89,23.23,14.04c0,0,6.59,8.22,16.59,20.7
			l13.66-1.67l-0.55-0.69c-0.26-0.33-0.21-0.8,0.12-1.07l6.98-5.6c0.33-0.26,0.8-0.21,1.07,0.12l4.61,5.75l13.49-1.64l-1.13-1.41
			c-0.26-0.33-0.21-0.8,0.12-1.07l6.98-5.6c0.33-0.26,0.8-0.21,1.07,0.12l5.19,6.47l27.8-3.39C230.3,49.94,231.22,50.32,231.8,51.05
			z M271.74,122.86c0,0-9.19,27.93-51.56,26.11C220.17,148.97,261.21,156.87,271.74,122.86z M276.44,135.96
			c0,0-14.94,25.32-55.95,14.5C220.49,150.46,258.9,166.94,276.44,135.96z M280.3,118.82c0,0-5.5,28.89-47.75,32.57
			C232.55,151.39,274.27,153.91,280.3,118.82z"/>
	</g>
</g>
<g id="Layer_7">
</g>
<g id="Layer_8">
</g>
<g id="Layer_9">
</g>
<g id="Layer_10">
</g>
<g id="Layer_11">
</g>
<g id="Layer_12">
</g>
<g id="Layer_13">
</g>
<g id="Layer_14">
</g>
<g id="Layer_15">
</g>
</svg>
