<?xml version="1.0" encoding="utf-8"?>
<!-- Generator: Adobe Illustrator 27.8.1, SVG Export Plug-In . SVG Version: 6.00 Build 0)  -->
<svg version="1.1" xmlns="http://www.w3.org/2000/svg" xmlns:xlink="http://www.w3.org/1999/xlink" x="0px" y="0px"
	 viewBox="0 0 350 230" style="enable-background:new 0 0 350 230;" xml:space="preserve">
<style type="text/css">
	.st0{fill-rule:evenodd;clip-rule:evenodd;fill:#A6D63C;}
	.st1{fill-rule:evenodd;clip-rule:evenodd;fill:#00A0D1;}
	.st2{fill:#421C00;}
	.st3{fill-rule:evenodd;clip-rule:evenodd;fill:#FFFFFF;}
	.st4{fill:#699AE2;}
	.st5{fill:#3B7DC4;}
	.st6{fill:#AF7500;}
	.st7{fill:#FFDF00;}
	.st8{fill:#1A0256;}
	.st9{fill:#00594F;}
	.st10{fill:#00779B;}
	.st11{fill:#0074FF;}
	.st12{fill:#194A91;}
	.st13{fill-rule:evenodd;clip-rule:evenodd;fill:#EFEFEF;}
	.st14{fill:#044159;}
	.st15{fill:#4C2900;}
	.st16{fill:#FFFFFF;}
	.st17{fill:#FFB41F;}
	.st18{fill:#FF5A00;}
	.st19{fill:#680404;}
	.st20{fill:#03AA6F;}
	.st21{fill:#FB5968;}
	.st22{fill:#FFD24A;}
	.st23{fill:#055EBC;}
	.st24{fill:#6F6F6F;}
	.st25{fill:#454545;}
	.st26{fill:#BA1A00;}
	.st27{fill:#0071BC;}
	.st28{fill:#6F0393;}
	.st29{fill:none;}
	.st30{fill:#96D7FF;}
	.st31{fill:#0C5100;}
	.st32{fill:#FFE856;}
	.st33{fill:#803971;}
	.st34{fill:#D3CECD;}
	.st35{fill:#4C241D;}
	.st36{fill:#EA3200;stroke:#4C241D;stroke-linecap:round;stroke-linejoin:round;stroke-miterlimit:50;}
	.st37{fill:#11930A;stroke:#4C241D;stroke-linecap:round;stroke-linejoin:round;stroke-miterlimit:50;}
	.st38{fill:#3792CF;}
	.st39{fill:#FEE36F;}
	.st40{fill:#136296;}
	.st41{fill:#53C2BA;}
	.st42{fill:#6D6D00;}
	.st43{fill:#001087;}
</style>
<g id="Layer_1">
</g>
<g id="Layer_2">
</g>
<g id="Layer_3">
</g>
<g id="Layer_4">
	<g>
		<path class="st7" d="M203.51,80.86c0,32.47-26.33,58.8-58.8,58.8s-58.8-26.33-58.8-58.8s26.33-58.8,58.8-58.8
			S203.51,48.38,203.51,80.86z"/>
		<path class="st8" d="M231.41,119.55c-0.27-0.05-0.53-0.11-0.8-0.17c-5.74-1.31-11.44-2.81-17.11-4.41
			c-6.21-1.79-12.39-3.72-18.52-5.77c-6.12-2.04-12.14-4.39-18.21-6.71c-4.8-1.83-9.67-3.56-14.59-5.11
			c-1.31-0.41-2.62-0.82-3.93-1.24c-6.32-1.78-12.88-2.94-19.51-3.2c-0.48-0.01-0.96-0.04-1.44-0.05l-3.44,0.03h-0.09
			c-1.66-0.01-3.31,0.21-4.97,0.33c-0.41,0.04-0.82,0.05-1.24,0.12l-1.25,0.2c-0.82,0.14-1.66,0.23-2.48,0.43l-2.47,0.6
			c-0.19,0.05-0.39,0.11-0.6,0.17c-0.62,0.19-1.22,0.41-1.83,0.61c-3.21,1.12-6.28,2.77-8.93,4.99c-1.32,1.13-2.56,2.35-3.58,3.77
			c-0.52,0.7-1.01,1.43-1.44,2.2c-0.23,0.37-0.41,0.78-0.6,1.18c-0.18,0.43-0.35,0.8-0.51,1.33l-0.51,1.64l1.68,0.14
			c0.7,0.08,1.55,0.25,2.33,0.45c0.8,0.21,1.58,0.45,2.36,0.73c1.54,0.57,3.06,1.26,4.51,2.07c2.89,1.64,5.52,3.77,7.8,6.25
			c2.26,2.49,4.17,5.32,5.69,8.36c0.78,1.51,1.43,3.1,2.04,4.69c0.3,0.8,0.55,1.62,0.83,2.43l0.38,1.29
			c0.27,0.11,0.53,0.22,0.8,0.33c-0.13-0.62-0.26-1.23-0.41-1.85c-0.25-0.83-0.46-1.67-0.73-2.51c-0.53-1.65-1.11-3.3-1.84-4.89
			c-1.39-3.21-3.22-6.24-5.46-8.98c-2.26-2.72-4.93-5.13-7.95-7.05c-1.5-0.96-3.1-1.79-4.76-2.49c-0.84-0.34-1.67-0.66-2.54-0.92
			c-0.3-0.1-0.59-0.18-0.88-0.26c0.09-0.17,0.19-0.33,0.29-0.49c0.38-0.64,0.82-1.24,1.29-1.83c0.94-1.18,2.05-2.21,3.21-3.17
			c2.37-1.89,5.13-3.28,8.03-4.31c0.74-0.23,1.45-0.51,2.21-0.7l1.12-0.27l1.14-0.28c0.76-0.17,1.54-0.25,2.31-0.39l1.16-0.18
			c0.39-0.06,0.78-0.08,1.18-0.12c1.58-0.13,3.15-0.37,4.74-0.37l2.37-0.07c0.79-0.04,1.58,0.03,2.37,0.04
			c6.34,0.17,12.65,1.22,18.83,2.89c6.18,1.66,12.26,3.82,18.34,6.06c6.07,2.25,12.17,4.55,18.38,6.53c6.18,2,12.41,3.87,18.68,5.6
			c6.28,1.71,12.62,3.23,19,4.52c3.19,0.64,6.4,1.22,9.62,1.71c2.95,0.43,5.88,0.82,8.9,1.02c-0.04,0.28-0.1,0.56-0.18,0.84
			c-5.08-0.21-10.28-0.75-15.4-1.41c-5.17-0.68-10.32-1.51-15.44-2.51c-10.25-1.94-20.38-4.54-30.37-7.61
			c-10.01-2.95-19.69-7.05-29.76-10.1c-5.03-1.52-10.18-2.74-15.41-3.34c-3.07-0.37-6.16-0.49-9.26-0.39
			c-1.52,0.03-3.04,0.14-4.55,0.3c-0.27,0.04-0.53,0.08-0.78,0.13c4.85-0.45,9.74-0.28,14.53,0.43c5.17,0.76,10.24,2.11,15.19,3.76
			c9.9,3.32,19.45,7.72,29.48,10.98c9.97,3.32,20.12,6.18,30.42,8.38c1.42,0.31,2.85,0.62,4.29,0.9c-9.49,1.78-16.05,0.5-24.53-1.67
			c-0.05,0.57-0.13,1.14-0.22,1.7c-0.03,0.18-0.06,0.36-0.09,0.55c-0.03,0.15-0.05,0.31-0.09,0.45c-0.06,0.3-0.12,0.6-0.19,0.9
			c-0.06,0.27-0.13,0.55-0.2,0.82c-0.02,0.06-0.03,0.11-0.05,0.17c-0.07,0.26-0.15,0.52-0.23,0.78c-0.09,0.29-0.18,0.58-0.28,0.87
			c-0.09,0.29-0.2,0.57-0.31,0.86c-0.1,0.29-0.21,0.57-0.33,0.85c-0.11,0.28-0.23,0.56-0.36,0.84c-0.12,0.27-0.25,0.55-0.39,0.82
			c-0.13,0.27-0.27,0.54-0.41,0.82c-0.14,0.27-0.29,0.54-0.44,0.81c-0.32,0.57-0.66,1.12-1.01,1.67
			c30.22-11.55,54.05-6.01,54.05-6.01c0.04-0.03,0.08-0.06,0.12-0.09c0.05-0.03,0.09-0.06,0.14-0.09c1.24-0.97,2.43-2.21,3.12-3.64
			c0.09-0.19,0.17-0.39,0.25-0.59c0.33-0.84,0.39-1.8,0.53-2.68C245.19,122.46,238.27,121.07,231.41,119.55z M187.2,138.91
			c0.01-0.01,0.03-0.01,0.04-0.02c-0.59,0.19-1.18,0.37-1.77,0.54C186.59,139.12,187.2,138.91,187.2,138.91z"/>
		<path class="st9" d="M250.38,124.49c-0.04,0.28-0.1,0.56-0.18,0.84c-5.08-0.21-10.28-0.75-15.4-1.41
			c-5.17-0.68-10.32-1.51-15.44-2.51c-10.25-1.94-20.38-4.54-30.37-7.61c-10.01-2.95-19.69-7.05-29.76-10.1
			c-5.03-1.52-10.18-2.74-15.41-3.34c-3.07-0.37-6.16-0.49-9.26-0.39c-1.81,0.01-3.32,0.13-4.55,0.3c-0.63,0.07-1.26,0.15-1.9,0.23
			c0.37-0.04,0.75-0.07,1.12-0.11c4.85-0.45,9.74-0.28,14.53,0.43c5.17,0.76,10.24,2.11,15.19,3.76c9.9,3.32,19.45,7.72,29.48,10.98
			c9.97,3.32,20.12,6.18,30.42,8.38c1.42,0.31,2.85,0.62,4.29,0.9c-8.44,2.13-16.57,0.5-24.53-1.67c-0.46,4.86-2.27,9.54-5.04,13.56
			l-1.54,0.59l-3.44,1.16c-4.61,1.5-9.29,2.73-14.05,3.53c-4.75,0.87-9.58,1.28-14.41,1.36c-4.83,0.02-9.67-0.35-14.43-1.25
			c-2.38-0.43-4.75-1.01-7.07-1.72c-0.94-0.27-1.85-0.59-2.76-0.93c-0.23-0.08-0.47-0.17-0.7-0.26c-0.57-0.21-1.14-0.43-1.7-0.68
			c-0.28-0.11-0.56-0.25-0.84-0.37l-0.41-0.2l-0.2-0.1l-0.11-0.05c-0.01-0.01-0.01-0.01-0.01-0.01c-0.17-0.8-0.33-1.59-0.52-2.38
			c-0.25-0.83-0.46-1.67-0.73-2.51c-0.53-1.65-1.11-3.3-1.84-4.89c-1.39-3.21-3.22-6.24-5.46-8.98c-2.26-2.72-4.93-5.13-7.95-7.05
			c-1.5-0.96-3.1-1.79-4.76-2.49c-0.84-0.34-1.67-0.66-2.54-0.92c-0.3-0.1-0.59-0.18-0.88-0.26c0.09-0.17,0.19-0.33,0.29-0.49
			c0.38-0.64,0.82-1.24,1.29-1.83c0.94-1.18,2.05-2.21,3.21-3.17c2.37-1.89,5.13-3.28,8.03-4.31c0.74-0.23,1.45-0.51,2.21-0.7
			l1.12-0.27l1.14-0.28c0.76-0.17,1.54-0.25,2.31-0.39l1.16-0.18c0.39-0.06,0.78-0.08,1.18-0.12c1.58-0.13,3.15-0.37,4.74-0.37
			l2.37-0.07c0.79-0.04,1.58,0.03,2.37,0.04c6.34,0.17,12.65,1.22,18.83,2.89c6.18,1.66,12.26,3.82,18.34,6.06
			c6.07,2.25,12.17,4.55,18.38,6.53c6.18,2,12.41,3.87,18.68,5.6c6.28,1.71,12.62,3.23,19,4.52c3.19,0.64,6.4,1.22,9.62,1.71
			C244.43,123.91,247.36,124.29,250.38,124.49z"/>
		<path class="st10" d="M268.34,143.44c-0.59-0.73-1.3-1.34-2.03-1.92c-0.72-0.59-1.48-1.12-2.25-1.63
			c-1.54-1.03-3.16-1.95-4.81-2.77c-3.3-1.64-6.75-3-10.28-3.95c-3.52-1.01-7.12-1.68-10.74-1.99c-3.62-0.31-7.25-0.35-10.86-0.03
			c-7.2,0.68-14.27,2.49-20.93,5.37l-5.15,2.2c-1.74,0.74-3.5,1.44-5.27,2.14c-3.54,1.36-7.13,2.63-10.8,3.72
			c-3.67,1.08-7.41,2.01-11.21,2.67s-7.69,1.05-11.58,1.06c-7.8,0.02-15.57-1.47-22.76-4.08c-1.8-0.65-3.58-1.32-5.33-2.07
			l-5.14-2.19c-3.37-1.36-6.87-2.43-10.45-3.02c-3.57-0.62-7.25-0.74-10.86-0.18c-1.81,0.26-3.59,0.73-5.32,1.38
			c-1.72,0.66-3.4,1.49-4.88,2.63c2.63-2.71,6.2-4.43,9.89-5.44c3.72-1.03,7.63-1.24,11.48-0.96c3.86,0.31,7.64,1.18,11.32,2.33
			c0.2,0.07,0.41,0.13,0.61,0.21c0.27,0.11,0.53,0.22,0.8,0.33c9.04,3.64,18.79,5.31,28.52,5.39c5.13,0.04,10.27-0.32,15.35-1.11
			c2.54-0.4,5.06-0.9,7.55-1.52c2.49-0.62,4.71-1.46,7.06-2.46c1.24-0.52,2.48-1.02,3.73-1.5c30.22-11.55,54.05-6.01,54.05-6.01
			c0.59,0.19,1.17,0.41,1.75,0.63c3.57,1.37,7.01,3.08,10.19,5.16c1.59,1.04,3.12,2.17,4.56,3.41c0.71,0.64,1.4,1.27,2.05,1.97
			C267.25,141.9,267.87,142.63,268.34,143.44z M241.99,160.77c-0.49-0.53-1.02-1.01-1.55-1.49c-1.09-0.94-2.24-1.79-3.45-2.58
			c-2.41-1.58-5.01-2.87-7.71-3.9c-0.44-0.17-0.88-0.33-1.32-0.48c0,0-18.02-4.19-40.86,4.54c-0.95,0.36-1.89,0.74-2.82,1.13
			c-1.78,0.75-3.46,1.39-5.34,1.86c-1.88,0.47-3.79,0.85-5.71,1.15c-3.84,0.6-7.72,0.87-11.6,0.84c-7.35-0.06-14.72-1.32-21.56-4.07
			c-0.2-0.08-0.4-0.16-0.61-0.25c-0.15-0.06-0.31-0.11-0.46-0.16c-2.78-0.87-5.64-1.53-8.56-1.76c-2.91-0.21-5.87-0.05-8.68,0.73
			c-2.79,0.76-5.49,2.07-7.48,4.11c1.12-0.86,2.39-1.5,3.69-1.99c1.31-0.49,2.65-0.84,4.02-1.04c2.73-0.42,5.51-0.33,8.21,0.14
			c2.71,0.45,5.35,1.25,7.9,2.28l3.89,1.66c1.32,0.56,2.67,1.07,4.03,1.56c5.43,1.98,11.3,3.1,17.2,3.09
			c2.94-0.01,5.88-0.3,8.75-0.8c2.88-0.5,5.7-1.2,8.47-2.02c2.77-0.83,5.48-1.78,8.16-2.81c1.33-0.53,2.66-1.06,3.98-1.62l3.9-1.66
			c5.03-2.17,10.38-3.54,15.82-4.06c2.73-0.25,5.47-0.22,8.21,0.02c2.74,0.23,5.46,0.74,8.12,1.5c2.67,0.72,5.28,1.74,7.77,2.99
			c1.25,0.62,2.47,1.31,3.64,2.09c0.58,0.39,1.16,0.79,1.7,1.23c0.55,0.44,1.09,0.9,1.53,1.45
			C242.95,161.83,242.48,161.28,241.99,160.77z M262.74,144.36c-0.24-0.26-0.5-0.49-0.76-0.73c-0.53-0.46-1.1-0.87-1.68-1.26
			c-1.18-0.77-2.45-1.4-3.77-1.91c-0.21-0.08-0.43-0.16-0.65-0.23c0,0-8.81-2.05-19.97,2.22c-0.46,0.18-0.92,0.36-1.38,0.55
			c-0.87,0.37-1.69,0.68-2.61,0.91c-0.92,0.23-1.85,0.42-2.79,0.56c-1.87,0.29-3.77,0.43-5.67,0.41c-3.59-0.03-7.2-0.65-10.54-1.99
			c-0.1-0.04-0.2-0.08-0.3-0.12c-0.07-0.03-0.15-0.05-0.22-0.08c-1.36-0.43-2.76-0.75-4.18-0.86c-1.42-0.1-2.87-0.02-4.24,0.36
			c-1.36,0.37-2.68,1.01-3.66,2.01c0.55-0.42,1.17-0.73,1.8-0.97c0.64-0.24,1.3-0.41,1.97-0.51c1.33-0.21,2.69-0.16,4.01,0.07
			c1.32,0.22,2.62,0.61,3.86,1.12l1.9,0.81c0.65,0.27,1.31,0.52,1.97,0.76c2.66,0.97,5.53,1.52,8.41,1.51
			c1.44,0,2.87-0.15,4.28-0.39c1.41-0.24,2.79-0.59,4.14-0.99c1.35-0.41,2.68-0.87,3.99-1.38c0.65-0.26,1.3-0.52,1.95-0.79l1.9-0.81
			c2.46-1.06,5.07-1.73,7.73-1.98c1.33-0.12,2.68-0.11,4.01,0.01c1.34,0.11,2.67,0.36,3.97,0.73c1.31,0.35,2.58,0.85,3.8,1.46
			c0.61,0.3,1.21,0.64,1.78,1.02c0.28,0.19,0.57,0.39,0.83,0.6c0.27,0.21,0.53,0.44,0.75,0.71
			C263.21,144.88,262.98,144.61,262.74,144.36z M144.07,152.32c-0.24-0.26-0.5-0.49-0.76-0.73c-0.53-0.46-1.1-0.87-1.68-1.26
			c-1.18-0.77-2.45-1.4-3.77-1.91c-0.21-0.08-0.43-0.16-0.65-0.23c0,0-8.81-2.05-19.97,2.22c-0.46,0.18-0.92,0.36-1.38,0.55
			c-0.87,0.37-1.69,0.68-2.61,0.91c-0.92,0.23-1.85,0.42-2.79,0.56c-1.87,0.29-3.77,0.43-5.67,0.41c-3.59-0.03-7.2-0.65-10.54-1.99
			c-0.1-0.04-0.2-0.08-0.3-0.12c-0.07-0.03-0.15-0.05-0.22-0.08c-1.36-0.43-2.76-0.75-4.18-0.86c-1.42-0.1-2.87-0.02-4.24,0.36
			c-1.36,0.37-2.68,1.01-3.66,2.01c0.55-0.42,1.17-0.73,1.8-0.97c0.64-0.24,1.3-0.41,1.97-0.51c1.33-0.21,2.69-0.16,4.01,0.07
			c1.32,0.22,2.62,0.61,3.86,1.12l1.9,0.81c0.65,0.27,1.31,0.52,1.97,0.76c2.66,0.97,5.53,1.52,8.41,1.51
			c1.44,0,2.87-0.15,4.28-0.39c1.41-0.24,2.79-0.59,4.14-0.99c1.35-0.41,2.68-0.87,3.99-1.38c0.65-0.26,1.3-0.52,1.95-0.79l1.9-0.81
			c2.46-1.06,5.07-1.73,7.73-1.98c1.33-0.12,2.68-0.11,4.01,0.01c1.34,0.11,2.67,0.36,3.97,0.73c1.31,0.35,2.58,0.85,3.8,1.46
			c0.61,0.3,1.21,0.64,1.78,1.02c0.28,0.19,0.57,0.39,0.83,0.6c0.27,0.21,0.53,0.44,0.75,0.71
			C144.54,152.84,144.31,152.57,144.07,152.32z"/>
	</g>
</g>
<g id="Layer_5">
</g>
<g id="Layer_6">
</g>
<g id="Layer_7">
</g>
<g id="Layer_8">
</g>
<g id="Layer_9">
</g>
<g id="Layer_10">
</g>
<g id="Layer_11">
</g>
<g id="Layer_12">
</g>
<g id="Layer_13">
</g>
<g id="Layer_14">
</g>
<g id="Layer_15">
</g>
</svg>
