<?xml version="1.0" encoding="utf-8"?>
<!-- Generator: Adobe Illustrator 27.8.1, SVG Export Plug-In . SVG Version: 6.00 Build 0)  -->
<svg version="1.1" xmlns="http://www.w3.org/2000/svg" xmlns:xlink="http://www.w3.org/1999/xlink" x="0px" y="0px"
	 viewBox="0 0 350 230" style="enable-background:new 0 0 350 230;" xml:space="preserve">
<style type="text/css">
	.st0{fill-rule:evenodd;clip-rule:evenodd;fill:#A6D63C;}
	.st1{fill-rule:evenodd;clip-rule:evenodd;fill:#00A0D1;}
	.st2{fill:#421C00;}
	.st3{fill-rule:evenodd;clip-rule:evenodd;fill:#FFFFFF;}
	.st4{fill:#699AE2;}
	.st5{fill:#3B7DC4;}
	.st6{fill:#AF7500;}
	.st7{fill:#FFDF00;}
	.st8{fill:#1A0256;}
	.st9{fill:#00594F;}
	.st10{fill:#00779B;}
	.st11{fill:#0074FF;}
	.st12{fill:#194A91;}
	.st13{fill-rule:evenodd;clip-rule:evenodd;fill:#EFEFEF;}
	.st14{fill:#044159;}
	.st15{fill:#4C2900;}
	.st16{fill:#FFFFFF;}
	.st17{fill:#FFB41F;}
	.st18{fill:#FF5A00;}
	.st19{fill:#680404;}
	.st20{fill:#03AA6F;}
	.st21{fill:#FB5968;}
	.st22{fill:#FFD24A;}
	.st23{fill:#055EBC;}
	.st24{fill:#6F6F6F;}
	.st25{fill:#454545;}
	.st26{fill:#BA1A00;}
	.st27{fill:#0071BC;}
	.st28{fill:#6F0393;}
	.st29{fill:none;}
	.st30{fill:#96D7FF;}
	.st31{fill:#0C5100;}
	.st32{fill:#FFE856;}
	.st33{fill:#803971;}
	.st34{fill:#D3CECD;}
	.st35{fill:#4C241D;}
	.st36{fill:#EA3200;stroke:#4C241D;stroke-linecap:round;stroke-linejoin:round;stroke-miterlimit:50;}
	.st37{fill:#11930A;stroke:#4C241D;stroke-linecap:round;stroke-linejoin:round;stroke-miterlimit:50;}
	.st38{fill:#3792CF;}
	.st39{fill:#FEE36F;}
	.st40{fill:#136296;}
	.st41{fill:#53C2BA;}
	.st42{fill:#6D6D00;}
	.st43{fill:#001087;}
</style>
<g id="Layer_1">
</g>
<g id="Layer_2">
</g>
<g id="Layer_3">
</g>
<g id="Layer_4">
</g>
<g id="Layer_5">
</g>
<g id="Layer_6">
</g>
<g id="Layer_7">
	<g>
		<path class="st15" d="M42.1,172.44l16.48-16.98l28.41-35.11l28.92-21.92l10.7-10.37l13.06,21.89l14.78,15.68l11.17-9.94l8.65-2.38
			l16.05-16.18l5.29,2.28l6.57-2.62l8.03-6.09l19.75-24.77l12.91,17.2l19.5,21.55l17.95,32.1l27.59,36.41L42.1,172.44z"/>
		<path class="st16" d="M222.49,89.34l-8.15,28.08l-0.01,14.83l-8.16,0.89l-8.32,13.32l-23.43,12.91l23.49-36.4l7.99-7.47l3.35-8.53
			L222.49,89.34z M115.09,106.29l-6.87,5.18l-8.09,10.36l-9.3,4.71L69.4,158.07l24.72-19.83l10.07-1.95l7.97-12.7l5.88,1.47
			l2.52-11.73l2.55-16.68L115.09,106.29z M179.99,117.13l-13.83,12.52l16.47-7.83l7.25-10.17l-0.12-5.94L179.99,117.13z"/>
		<path class="st17" d="M182.2,35.72l-5.06-1.39l-18.3,12.72c-8.78-2.35-17.9-5.06-26.56-7.74l25-16.38l-9.38-1.01L116.8,34.48
			c-9.62-3.03-17.78-5.59-22.93-6.88c-1.96-0.49-3.49-0.81-4.5-0.89c-5.53-0.46-8.86,0.05-10.92,0.71
			c-1.98,0.63-2.78,1.41-3.23,1.58c-0.93,0.34-6.78,1.67-5.99,3.77c0.72,1.91,3.94,8.77,41.42,17.73l11.9,24.11l7.68,3.3
			l-6.07-24.44c14.03,2.84,26.14,4.04,36.24,4.31l4.3,6.21l6.49,0.78l-4.47-9.28L182.2,35.72z M102.04,41.53
			c-1,0-1.81-0.81-1.81-1.81c0-1,0.82-1.81,1.81-1.81c1.01,0,1.81,0.82,1.81,1.81C103.85,40.72,103.04,41.53,102.04,41.53z
			 M108.38,43.34c-1,0-1.81-0.81-1.81-1.81c0-1,0.82-1.81,1.81-1.81c1.01,0,1.81,0.82,1.81,1.81
			C110.2,42.54,109.39,43.34,108.38,43.34z M114.73,45.16c-1,0-1.81-0.81-1.81-1.81c0-1,0.82-1.81,1.81-1.81
			c1.01,0,1.81,0.82,1.81,1.81C116.55,44.35,115.74,45.16,114.73,45.16z M121.08,46.97c-1,0-1.81-0.81-1.81-1.81
			c0-1,0.82-1.81,1.81-1.81c1.01,0,1.81,0.82,1.81,1.81C122.89,46.16,122.09,46.97,121.08,46.97z M127.43,48.79
			c-1,0-1.81-0.81-1.81-1.81c0-1,0.82-1.81,1.81-1.81c1.01,0,1.81,0.82,1.81,1.81C129.24,47.98,128.43,48.79,127.43,48.79z
			 M133.78,50.6c-1,0-1.81-0.81-1.81-1.81c0-1,0.82-1.81,1.81-1.81c1.01,0,1.81,0.82,1.81,1.81
			C135.59,49.79,134.78,50.6,133.78,50.6z"/>
		<path class="st15" d="M131.09,69.7l1.17,6.83l62.28,11.34L131.09,69.7z M128.41,56.71l1.46,7.27l71.77,14.3L128.41,56.71z
			 M170.35,57.75l2.09,4.16l33.39,6.87L170.35,57.75z M174.78,49.16l-2.53,2.88l35.67,8.01L174.78,49.16z M180.26,41.1L177.72,44
			l31.72,7.33L180.26,41.1z"/>
		<path class="st15" d="M89.37,26.71c-5.53-0.46-8.86,0.05-10.92,0.71v0.05c0,4.25,3.46,7.71,7.71,7.71c4.21,0,7.64-3.38,7.71-7.58
			C91.91,27.11,90.38,26.79,89.37,26.71z"/>
	</g>
</g>
<g id="Layer_8">
</g>
<g id="Layer_9">
</g>
<g id="Layer_10">
</g>
<g id="Layer_11">
</g>
<g id="Layer_12">
</g>
<g id="Layer_13">
</g>
<g id="Layer_14">
</g>
<g id="Layer_15">
</g>
</svg>
