<?xml version="1.0" encoding="utf-8"?>
<!-- Generator: Adobe Illustrator 27.8.1, SVG Export Plug-In . SVG Version: 6.00 Build 0)  -->
<svg version="1.1" xmlns="http://www.w3.org/2000/svg" xmlns:xlink="http://www.w3.org/1999/xlink" x="0px" y="0px"
	 viewBox="0 0 350 230" style="enable-background:new 0 0 350 230;" xml:space="preserve">
<style type="text/css">
	.st0{fill-rule:evenodd;clip-rule:evenodd;fill:#A6D63C;}
	.st1{fill-rule:evenodd;clip-rule:evenodd;fill:#00A0D1;}
	.st2{fill:#421C00;}
	.st3{fill-rule:evenodd;clip-rule:evenodd;fill:#FFFFFF;}
	.st4{fill:#699AE2;}
	.st5{fill:#3B7DC4;}
	.st6{fill:#AF7500;}
	.st7{fill:#FFDF00;}
	.st8{fill:#1A0256;}
	.st9{fill:#00594F;}
	.st10{fill:#00779B;}
	.st11{fill:#0074FF;}
	.st12{fill:#194A91;}
	.st13{fill-rule:evenodd;clip-rule:evenodd;fill:#EFEFEF;}
	.st14{fill:#044159;}
	.st15{fill:#4C2900;}
	.st16{fill:#FFFFFF;}
	.st17{fill:#FFB41F;}
	.st18{fill:#FF5A00;}
	.st19{fill:#680404;}
	.st20{fill:#03AA6F;}
	.st21{fill:#FB5968;}
	.st22{fill:#FFD24A;}
	.st23{fill:#055EBC;}
	.st24{fill:#6F6F6F;}
	.st25{fill:#454545;}
	.st26{fill:#BA1A00;}
	.st27{fill:#0071BC;}
	.st28{fill:#6F0393;}
	.st29{fill:none;}
	.st30{fill:#96D7FF;}
	.st31{fill:#0C5100;}
	.st32{fill:#FFE856;}
	.st33{fill:#803971;}
	.st34{fill:#D3CECD;}
	.st35{fill:#4C241D;}
	.st36{fill:#EA3200;stroke:#4C241D;stroke-linecap:round;stroke-linejoin:round;stroke-miterlimit:50;}
	.st37{fill:#11930A;stroke:#4C241D;stroke-linecap:round;stroke-linejoin:round;stroke-miterlimit:50;}
	.st38{fill:#3792CF;}
	.st39{fill:#FEE36F;}
	.st40{fill:#136296;}
	.st41{fill:#53C2BA;}
	.st42{fill:#6D6D00;}
	.st43{fill:#001087;}
</style>
<g id="Layer_1">
</g>
<g id="Layer_2">
</g>
<g id="Layer_3">
</g>
<g id="Layer_4">
</g>
<g id="Layer_5">
</g>
<g id="Layer_6">
</g>
<g id="Layer_7">
</g>
<g id="Layer_8">
</g>
<g id="Layer_9">
</g>
<g id="Layer_10">
	<g>
		<path class="st26" d="M261.97,20.15c-0.65-1.59-2.46-2.36-4.05-1.72l-17.53,7.04l-17.34-12.5c-1.41-0.98-3.35-0.63-4.33,0.79
			c-0.95,1.38-0.65,3.26,0.69,4.26l14.14,10.2l-22.66,9.1l-6.02-4.41c-1.41-0.99-3.35-0.65-4.34,0.76
			c-0.96,1.37-0.67,3.25,0.66,4.27c4,2.52,7.59,7.3,12.2,5.21l46.87-18.94C261.85,23.56,262.62,21.74,261.97,20.15z"/>
		<path class="st27" d="M141.4,101.55h17.22v17.19H141.4V101.55z M141.4,95.32h114.11c1.98,0,3.58-1.6,3.58-3.58v0v-0.03
			c0-1.98-1.6-3.58-3.58-3.58h0H141.4V95.32z M101.19,165.64h33.98V78.1h-33.98L101.19,165.64z M111.47,91.96h13.42
			c1.72,0,3.11,1.39,3.11,3.11c0,1.72-1.39,3.11-3.11,3.11h-13.42c-1.72,0-3.11-1.39-3.11-3.11
			C108.35,93.35,109.75,91.96,111.47,91.96z M111.47,118.74h13.42c1.72,0,3.11,1.39,3.11,3.11c0,1.72-1.39,3.11-3.11,3.11h-13.42
			c-1.72,0-3.11-1.39-3.11-3.11C108.35,120.13,109.75,118.74,111.47,118.74z M111.47,145.56h13.42c1.72,0,3.11,1.39,3.11,3.11
			s-1.39,3.11-3.11,3.11h-13.42c-1.72,0-3.11-1.39-3.11-3.11S109.75,145.56,111.47,145.56z M235.17,148.42h17.22v17.22h-17.22
			V148.42z M211.72,148.42h17.22v17.22h-17.22V148.42z M188.27,148.42h17.22v17.22h-17.22V148.42z M164.85,148.42h17.19v17.22
			h-17.19V148.42z M141.4,148.42h17.22v17.22H141.4V148.42z M141.4,124.97h17.22v17.22H141.4V124.97z M188.27,124.97h17.22v17.22
			h-17.22V124.97z M211.72,124.97h17.22v17.22h-17.22V124.97z M235.17,124.97h17.22v17.22h-17.22V124.97z M235.17,101.55h17.22
			v17.19h-17.22V101.55z M211.72,101.55h17.22v17.19h-17.22V101.55z M188.27,101.55h17.22v17.19h-17.22V101.55z M164.85,124.97
			h17.19v17.22h-17.19V124.97z M164.85,101.55h17.19v17.19h-17.19V101.55z M145.45,24.5h-24.15V14.1h7.79
			c1.72,0,3.11-1.39,3.11-3.11s-1.39-3.11-3.11-3.11h-21.8c-1.72,0-3.11,1.39-3.11,3.11s1.39,3.11,3.11,3.11h7.79v10.4H90.91
			c-1.72,0-3.11,1.39-3.11,3.11v27.5h60.76v-27.5C148.56,25.89,147.17,24.5,145.45,24.5z M101.44,42.91
			c-2.64-0.01-4.77-2.16-4.76-4.8c0.01-2.64,2.16-4.77,4.8-4.76c2.64,0.01,4.77,2.16,4.76,4.8
			C106.22,40.78,104.08,42.91,101.44,42.91z M118.16,42.91c-2.64-0.01-4.77-2.16-4.76-4.8c0.01-2.64,2.16-4.77,4.8-4.76
			c2.64,0.01,4.77,2.16,4.76,4.8C122.95,40.78,120.8,42.91,118.16,42.91z M134.92,42.91c-2.64-0.01-4.77-2.16-4.76-4.8
			c0.01-2.64,2.16-4.77,4.8-4.76c2.64,0.01,4.77,2.16,4.76,4.8C139.7,40.78,137.56,42.91,134.92,42.91z M91.16,61.34l8.41,10.53
			h37.22l8.41-10.53H91.16z"/>
	</g>
</g>
<g id="Layer_11">
</g>
<g id="Layer_12">
</g>
<g id="Layer_13">
</g>
<g id="Layer_14">
</g>
<g id="Layer_15">
</g>
</svg>
