<?xml version="1.0" encoding="utf-8"?>
<!-- Generator: Adobe Illustrator 27.8.1, SVG Export Plug-In . SVG Version: 6.00 Build 0)  -->
<svg version="1.1" xmlns="http://www.w3.org/2000/svg" xmlns:xlink="http://www.w3.org/1999/xlink" x="0px" y="0px"
	 viewBox="0 0 350 230" style="enable-background:new 0 0 350 230;" xml:space="preserve">
<style type="text/css">
	.st0{fill:#009EFF;}
	.st1{fill:#FF8500;}
	.st2{fill:#9B3C00;}
	.st3{fill:#660045;}
	.st4{fill:#00576B;}
	.st5{fill:#564F2C;}
	.st6{fill:#FFA354;}
	.st7{fill:#002760;}
	.st8{fill:#4C0037;}
	.st9{fill:#7C0B00;}
	.st10{fill:#144703;}
	.st11{fill:#2C6DC9;}
	.st12{fill:#3B243C;}
	.st13{fill:#001EA4;}
	.st14{fill:#8D5300;}
	.st15{fill:#30A976;}
	.st16{fill:#A02400;}
	.st17{fill:#0092FF;}
	.st18{fill:#60086C;}
	.st19{fill:#520013;}
	.st20{fill:#00AB7B;}
	.st21{fill:#0C0C14;}
	.st22{fill:#FA7B14;}
	.st23{fill:#0870A3;}
	.st24{fill:#999999;}
	.st25{fill:#0D254C;}
	.st26{fill:#9C0505;}
	.st27{fill:#850506;}
	.st28{fill:#A30C11;}
	.st29{fill:#1261A0;}
	.st30{fill:#FFFFFF;}
	.st31{fill:none;}
	.st32{fill:#1A1E2D;}
	.st33{fill:#3AC3B1;}
	.st34{fill:#777777;}
	.st35{fill:#4C0400;}
	.st36{fill:#00484C;}
	.st37{fill:#59D901;}
	.st38{fill:#58CCED;}
	.st39{fill:#CC5500;}
	.st40{fill:#072F5F;}
</style>
<g id="Layer_1">
</g>
<g id="Layer_2">
</g>
<g id="Layer_3">
</g>
<g id="Layer_4">
</g>
<g id="Layer_5">
</g>
<g id="Layer_6">
</g>
<g id="Layer_7">
</g>
<g id="Layer_8">
</g>
<g id="Layer_9">
</g>
<g id="Layer_10">
</g>
<g id="Layer_11">
</g>
<g id="Layer_12">
	<g>
		<path class="st14" d="M259.13,67.92c-14.16-48.74-67.64-75.23-115.19-57.15C94.86,29.43,72.95,86.51,96.96,133.1
			c0.55,1.06,0.85,2.37,0.85,3.57c0.06,10.45-0.04,20.9,0.1,31.34c0.03,2.19,0.46,4.58,1.43,6.51c2.27,4.55,6.35,6.32,11.36,6.32
			c21.4-0.03,42.8-0.02,64.2-0.02c2.46,0,4.91,0,7.36,0c19.07,0,38.15,0.01,57.22,0c7.84-0.01,12.76-4.94,12.76-12.73
			c0-10.76-0.02-21.52,0.02-32.29c0-0.83,0.28-1.73,0.66-2.48C263.44,112.33,265.69,90.51,259.13,67.92z M241.17,179.84
			c-1.25,0.05-2.52,0.02-3.77,0.02c-42.43,0-84.85,0-127.27,0c-7.14,0-12-5.45-11.17-12.66H251
			C252.47,173.15,247.43,179.57,241.17,179.84z M251.89,133.25c-0.77,1.5-1.65,2.02-3.34,2.02c-24.55-0.05-49.11-0.04-73.66-0.04
			c-24.43,0-48.86-0.02-73.28,0.05c-1.84,0-2.77-0.59-3.6-2.21c-5.83-11.36-9.12-23.37-9.76-36.14
			c-1.79-35.94,19.07-68.64,50.8-83.13c12.46-5.69,25.57-8.31,39.25-7.78c40.92,1.61,75.41,31.8,82.31,72.11
			C263.91,97.44,260.85,115.82,251.89,133.25z M107.43,54.82c2.89,2.14,5.23,2.17,7.31-1.15c-1.06,3.42-0.23,5.62,3.45,6.51
			c-3.52,0.14-5.55,1.4-5.1,5.37c-1.23-3.48-3.26-4.71-6.82-3.3C109.36,60.11,109.79,57.76,107.43,54.82z M243.65,62.17
			c-3.47-1.22-5.58-0.34-6.67,3.11c-0.14-0.61-0.4-1.22-0.39-1.83c0.02-1.87-0.84-2.74-2.7-2.76c-0.62-0.01-1.23-0.22-2.14-0.53
			c3.69-0.94,4.77-3.09,3.33-6.7c2.03,2.99,4.25,3.99,7.39,1.35C240.36,57.74,240.36,60.1,243.65,62.17z"/>
		<path class="st15" d="M243.89,112.42c-0.4,1.24-0.64,2.56-1.23,3.68c-0.72,1.36-2.03,1.28-2.73-0.11c-1.21-2.41-1.07-4.87,0.2-7.2
			c0.8-1.47,2.12-1.41,2.81,0.12C243.42,109.96,243.57,111.16,243.89,112.42z M243.8,112.33c-0.69-1.12-1.21-1.96-1.73-2.8
			c-0.51,0.9-1.4,1.79-1.42,2.69c-0.02,0.99,0.78,1.99,1.22,2.99C242.49,114.31,243.09,113.4,243.8,112.33z M106.37,113.73
			c17.62,0,35.09,0,52.66,0c0.29-1.68,0.35-3.29,0.87-4.73c1-2.76,1.63-6.07,3.57-7.96c3.22-3.14,5-6.93,7.18-10.64
			c-0.84,2.25-1.68,4.5-2.52,6.76c0.19,0.15,0.38,0.31,0.57,0.46c0.54-0.56,1.3-1.04,1.58-1.71c1.11-2.66,2.07-5.38,3.27-8.03
			c-0.54,2.96-1.07,5.92-1.64,9.07c4.22,0.41,7.9,1.6,10.04,5.33c2.39,4.17,2.58,8.71,1.84,13.35c-0.42-3.55-0.78-7.09-3.09-10.06
			c-3.01-3.87-7.21-3.9-10.01,0.1c-1.02,1.47-1.97,3.17-2.31,4.9c-0.73,3.62-1.14,7.31-1.49,10.99c-0.27,2.81-0.14,2.88-2.95,2.92
			c-11.63,0.15-23.27,0.43-34.9,0.34c-7.52-0.06-15.04-0.67-22.68-1.03C106.37,120.41,106.37,117.23,106.37,113.73z M243.28,105.53
			c-0.54-0.05-1.08-0.13-1.62-0.14c-11.01-0.24-22.02-0.48-33.03-0.7c-2.45-0.05-2.45-0.02-2.45-2.51c0-13.22-0.03-26.44,0.04-39.66
			c0.01-1.42-0.44-2.15-1.69-2.73c-2-0.92-3.91-2.01-5.87-3.02c-0.38-0.19-0.94-0.55-1.19-0.41c-3.85,2.02-7.68,4.1-11.49,6.21
			c-0.54,0.3-0.95,0.82-1.4,1.26c-0.43,0.42-0.84,0.87-1.26,1.3c4.48-1.96,8.8-3.9,13.71-4.28c0.1,0.41,0.21,0.64,0.21,0.88
			c0.01,8.12,0,16.24,0.03,24.36c0,1.11-0.51,1.41-1.5,1.4c-2.27-0.02-4.53-0.03-6.8,0.03c-0.46,0.01-0.91,0.39-1.36,0.6
			c0.46,0.27,0.91,0.76,1.38,0.78c2.26,0.08,4.53-0.02,6.79,0.08c0.5,0.02,1.28,0.54,1.39,0.96c0.29,1.08-0.59,1.15-1.4,1.15
			c-1.95-0.01-3.9-0.05-5.85,0.03c-0.51,0.02-1.01,0.41-1.52,0.63c0.53,0.26,1.05,0.71,1.59,0.74c1.82,0.09,3.66-0.06,5.47,0.08
			c0.61,0.05,1.58,0.58,1.69,1.06c0.31,1.24-0.78,1.13-1.59,1.14c-1.57,0.01-3.15-0.03-4.72,0.05c-0.4,0.02-0.78,0.39-1.17,0.6
			c0.41,0.25,0.8,0.7,1.22,0.72c1.7,0.09,3.4-0.02,5.09,0.09c0.44,0.03,0.83,0.64,1.24,0.98c-0.42,0.4-0.8,1.11-1.25,1.15
			c-1.56,0.15-3.15,0.01-4.71,0.1c-0.41,0.02-0.8,0.5-1.19,0.77c0.39,0.21,0.76,0.58,1.16,0.61c1.44,0.08,2.9,0.11,4.34,0.02
			c1.37-0.09,1.77,0.48,1.7,1.76c-0.08,1.51-0.1,3.03,0,4.53c0.1,1.37-0.49,1.74-1.75,1.74c-2.45-0.01-4.91,0.02-7.36,0.15
			c-1.27,0.07-1.47-0.46-1.68-1.61c-0.59-3.32-1.2-6.68-2.23-9.88c-1.08-3.36-3.09-6.26-5.92-8.93c-0.27,1.59-0.41,2.9-0.72,4.16
			c-0.37,1.51,0.02,2.49,1.25,3.55c4.23,3.63,6.43,8.27,6.33,13.94c-0.06,3.08-0.04,6.17,0.01,9.25c0.01,0.49,0.2,1.23,0.55,1.41
			c1.9,1.01,4.79-0.35,5.24-2.48c0.31-1.46,0.41-2.97,0.62-4.59c0.72-0.08,1.44-0.16,2.72-0.3c-0.44,2.68-0.83,5.01-1.19,7.22
			c2.16-1.03,2.09-3.25,2.23-5.38c0.14-2.23,0.23-2.31,2.78-1.71c-0.32,2.13-0.64,4.3-0.99,6.64c2.05-1.49,2.16-3.57,2.13-5.64
			c-0.02-1.46,0.46-1.97,2.31-1.38c-0.34,2.26-0.69,4.56-1.02,6.78c2.09-1.22,2.2-3.41,2.15-5.64c-0.03-1.44,0.37-2.18,2.03-1.55
			c0,1.21,0.11,2.41-0.03,3.58c-0.13,1.1-0.52,2.18-0.86,3.51c0.69-0.48,1.13-0.78,1.59-1.1c1.74,3.95,2.37,4.31,6.81,3.78
			c-1.86-2.5-2.3-5.34-1.95-8.26c0.72-6.13,2.69-7.31,7.53-7.38c5.91-0.08,11.83-0.03,17.75-0.03c2.56,0,5.12,0,7.68,0
			C243.28,105.86,243.28,105.69,243.28,105.53z M196.99,54.31c2.74,1.37,5.42,2.89,8.24,4.07c2.22,0.93,2.96,2.23,2.93,4.67
			c-0.14,12.77-0.04,25.55-0.1,38.33c-0.01,1.65,0.46,2.11,2.12,2.15c8.49,0.22,16.97,0.61,25.46,0.89
			c2.61,0.09,5.22,0.01,7.99,0.01c0-5.39,0.02-10.61-0.03-15.82c0-0.43-0.36-0.93-0.68-1.28c-10.15-10.84-20.31-21.66-30.51-32.46
			c-0.45-0.48-1.28-0.84-1.93-0.85c-4.47-0.07-8.93-0.04-13.4-0.04C197.06,54.1,197.02,54.21,196.99,54.31z M231.86,102.48
			c-0.36-0.05-0.92-0.72-0.92-1.1c-0.02-7.86,0.02-15.71,0.06-23.57c0-0.04,0.09-0.08,0.27-0.23c0.34,0.24,0.76,0.47,1.1,0.78
			c3.27,3.03,6.55,6.07,9.78,9.15c0.46,0.44,0.97,1.11,0.98,1.69c0.07,4.59,0.04,9.18,0.02,13.77c0,0.23-0.15,0.46-0.29,0.88
			C239.18,103.4,235.51,102.99,231.86,102.48z M216.27,63.42c0.35,0.35,0.52,1.01,0.52,1.54c0.02,11.64,0.01,23.28,0,34.91
			c0,0.18-0.09,0.35-0.21,0.82c-1.31-0.13-2.66-0.24-4-0.39c-1.34-0.15-1.05-1.21-1.05-2.03c-0.01-9.18-0.01-18.37,0-27.55
			c0-3.69,0-7.37,0-11.06c0.17-0.07,0.35-0.13,0.52-0.2C213.46,60.76,214.92,62.04,216.27,63.42z M221.33,71.51
			c-0.24,9.11-0.09,18.23-0.09,27.35c0,0.73,0,1.46,0,2.34c-0.86-0.04-1.41-0.09-1.96-0.1c-1.48-0.01-1.99-0.64-1.97-2.19
			c0.09-6.54,0.02-13.08,0.02-19.62c0-4.02,0.01-8.05,0.01-12.07c0-0.74,0-1.48,0-2.52C220.21,66.45,221.41,68.36,221.33,71.51z
			 M221.72,99.26c0-9.49,0-18.97,0-28.46c0-0.56,0-1.12,0-2.08c1.51,1.17,2.98,1.77,2.97,3.78c-0.03,9.24-0.01,18.47-0.02,27.71
			c0,0.42-0.12,0.84-0.17,1.24C221.89,101.69,221.72,101.56,221.72,99.26z M227.75,75.95c-0.1,7.98-0.03,15.97-0.07,23.96
			c0,0.8,0.52,2.06-1.13,2.05c-1.53-0.01-1.41-1.06-1.41-2.1c0.01-8.62,0.01-17.23,0.01-25.85c0-0.55,0.05-1.11,0.09-1.96
			C226.97,73.05,227.77,74.09,227.75,75.95z M230.31,77.61c0.11,7.84,0.06,15.69,0.05,23.53c0,0.3-0.09,0.61-0.14,0.98
			c-1.28,0.26-2.09,0.13-2.08-1.45c0.03-8.28,0.01-16.57,0.02-24.85c0-0.23,0.08-0.46,0.13-0.69c0.22-0.1,0.44-0.19,0.66-0.29
			C229.43,75.76,230.3,76.68,230.31,77.61z M132.17,84.88c-4.32,0.73-8.55,2-12.77,3.18c-2.81,0.79-4.62,2.71-5.28,5.61
			c-0.47,2.08-0.83,4.19-1.42,6.24c-0.31,1.08-0.81,2.19-1.51,3.04c-2.16,2.65-3.54,5.52-3.43,9.06c0.51,0.07,0.82,0.14,1.12,0.14
			c10,0,20.01-0.02,30.01,0.02c1.27,0,1.53-0.5,1.62-1.66c0.48-5.95,1.28-11.88,1.51-17.84c0.15-3.95,2.32-5.49,5.62-6.33
			c0.24-0.06,0.47-0.18,0.72-0.23c5.03-1.04,10.06-2.08,14.61-3.02C153.02,82.94,142.54,83.13,132.17,84.88z M137.41,105.84
			c-0.17,4.02-0.18,3.99-4.25,4.04c-5.91,0.07-11.82,0.2-17.73,0.29c-0.55,0.01-1.1-0.09-1.89-0.16c0.15-1.86,0.28-3.57,0.43-5.39
			c4.04,0.86,7.86,2.26,11.7,2.32c3.81,0.06,7.64-1.24,11.58-1.97C137.35,105.48,137.42,105.67,137.41,105.84z M117.87,90.21
			c6.7-0.26,13.41-0.44,20.11-0.61c0.4-0.01,0.81,0.23,1.62,0.49c-0.62,0.51-0.95,1-1.37,1.09c-7.11,1.62-14.21,4.75-21.66,0.13
			C116.99,90.95,117.42,90.23,117.87,90.21z M122.54,103.45c1.6,0.31,3.34,0.38,4.94,0.13c3.33-0.52,6.62-1.33,9.93-2.01
			c0.51,2.46,0.34,2.74-1.82,3.14c-2.4,0.45-4.84,0.77-7.2,1.39c-2.81,0.74-5.44,0.31-8.11-0.58c-1.42-0.48-2.88-0.9-4.36-1.16
			c-1.79-0.31-2.2-1.15-1.26-2.95C117.34,102.12,119.91,102.94,122.54,103.45z M135.84,101.37c-2.73,0.4-5.43,1.04-8.12,1.69
			c-1.89,0.45-3.68,0.41-5.54-0.18c-2.5-0.8-5.06-1.4-7.72-2.13c0.16-0.84,0.28-1.48,0.45-2.36c2.93,0.78,5.68,1.59,8.48,2.23
			c0.99,0.23,2.11,0.24,3.11,0.04c3.01-0.62,5.99-1.39,8.99-2.09c0.77-0.18,1.56-0.31,2.38-0.46
			C138.32,100.07,137.86,101.07,135.84,101.37z M136.51,97.83c-1.8,0.29-3.66,0.56-5.32,1.25c-5.2,2.16-10.11,0.59-15.01-0.99
			c-0.46-0.15-0.94-1.04-0.95-1.59c-0.02-1.08,0.82-1.15,1.61-0.77c6.5,3.08,12.88,1.33,19.27-0.42c0.54-0.15,1.1-0.26,1.66-0.35
			c0.17-0.03,0.35,0.06,0.54,0.1C138.66,96.64,138.24,97.56,136.51,97.83z M136.95,94.56c-2.65,0.48-5.27,1.2-7.89,1.82
			c-4.12,0.97-9.28,0.29-13.28-1.79c0-1.61,0.5-2.55,2.35-1.78c4.98,2.08,9.97,1.94,15.03,0.18c1.76-0.61,3.65-0.85,5.62-1.28
			C139.06,93.49,138.56,94.27,136.95,94.56z M145.56,68.61c10.41-2.35,20.94-3.35,31.62-2.75c0.37,0.02,0.85-0.23,1.11-0.51
			c4.71-4.98,10.4-8.25,17.05-9.87c0.08-0.02,0.13-0.15,0.35-0.43c-1.36-0.37-2.59-0.83-3.87-1.04c-8.96-1.5-17.79-0.66-26.49,1.76
			c-6.76,1.88-12.94,4.85-17.91,9.96c-0.8,0.83-1.5,1.76-2.3,2.7C145.44,68.57,145.51,68.63,145.56,68.61z M179.07,107.97
			c-1.98-3.25-4.98-3.41-7.31-0.4c-0.5,0.64-0.92,1.36-1.25,2.1c-1.64,3.7-2.22,7.59-1.82,11.6c0.29,2.95,0.86,5.87,2.76,8.3
			c1.81,2.31,4.34,2.42,6.26,0.21c0.77-0.89,1.55-1.92,1.88-3.01c0.86-2.86,1.47-5.8,2.18-8.7
			C181.36,114.45,180.94,111.03,179.07,107.97z M174.37,112.29c0.32-0.76,1.44-1.56,2.24-1.61c0.66-0.04,1.71,0.84,2.04,1.57
			c1.91,4.2,1.76,8.43-0.49,12.46c-1.07,1.9-3.03,1.86-3.93-0.13c-0.85-1.9-1.2-4.02-1.78-6.09
			C173.1,116.3,173.55,114.21,174.37,112.29z M189.63,76.36c0-1.51,0.13-3.03-0.06-4.52c-0.08-0.63-0.72-1.55-1.28-1.71
			c-1.81-0.5-3.69-0.73-5.55-1.01c-1.26-0.19-2.14,0.41-2.35,1.63c-0.7,4.02-1.33,8.06-1.96,12.09c-0.21,1.33,0.4,2.05,1.76,2.06
			c2.39,0.01,4.78,0,7.17,0.02c1.35,0.01,1.88-0.64,1.9-1.98c0.04-2.2,0.21-4.39,0.33-6.59C189.59,76.36,189.61,76.36,189.63,76.36z
			 M177.09,69.95c0.36-2.23-0.16-2.72-2.4-2.76c-9.51-0.15-18.97,0.51-28.29,2.46c-1.21,0.25-2.66,0.92-3.33,1.86
			c-2.37,3.34-2.95,7.32-3.61,11.44c11.76-1.73,23.31-1.21,35.23-0.71C175.52,78.06,176.44,74.03,177.09,69.95z M145.39,72.99
			c0.74-0.87,2.09-1.5,3.25-1.67c5.71-0.86,11.44-1.62,17.18-2.24c3.06-0.33,6.15-0.27,9.23-0.43c1.44-0.08,1.93,0.45,1.6,1.89
			c-0.74,3.18-1.43,6.38-2.07,9.58c-0.23,1.17-0.82,1.45-1.95,1.43c-8.36-0.13-16.72-0.21-25.08-0.25
			c-1.73-0.01-3.47,0.25-5.46,0.41C142.68,78.4,143.34,75.38,145.39,72.99z M142.08,111.62c4.69,0,9.44,0.02,14.19-0.05
			c0.35-0.01,0.95-0.66,1.01-1.07c0.59-4.06,2.09-7.71,4.87-11.09C153.11,98.96,143.31,105.17,142.08,111.62z M154.02,108.08
			c-0.38,0.73-1.39,1.46-2.19,1.55c-1.44,0.16-3.34,0.95-4.22-0.93c-0.88-1.88,0.94-2.81,1.95-3.86c2.01-2.09,4.51-3.24,7.28-3.2
			C155.86,103.93,155.08,106.08,154.02,108.08z M148.87,100.6c1.97-0.59,3.88-1.15,5.77-1.76c0.31-0.1,0.7-0.39,0.8-0.68
			c1.5-4.31,4.48-7.32,8.8-9.7C155.99,87.79,149.8,92.8,148.87,100.6z M122.97,129.85c2.74,0.26,5.52,0.33,8.27,0.28
			c2.4-0.05,4.04-1.57,4.68-4.19c-5.76,0-11.45,0-17.11,0C119.43,128.91,119.96,129.56,122.97,129.85z M216.96,109.29
			c-0.95-2.2-3.17-2.32-4.32-0.24c-1.97,3.55-2.11,7.32-0.38,11.01c1.03,2.2,3.2,2.26,4.29,0.07c0.87-1.75,1.22-3.75,1.78-5.58
			C217.85,112.64,217.64,110.86,216.96,109.29z M216.47,117.93c-0.7,1.37-1.84,1.3-2.49-0.09c-1.02-2.17-0.92-4.4,0.18-6.51
			c0.77-1.47,1.87-1.42,2.58,0.11c0.41,0.88,0.51,1.9,0.8,3.06C217.21,115.59,217.02,116.85,216.47,117.93z M167.71,126.47
			c-0.2-0.33-0.57-0.76-0.88-0.77c-2.52-0.06-5.05-0.04-7.79-0.04c0.96,2.78,1.32,5.32,4.44,5.55c2.48,0.18,4.96,0.35,7.29,0.51
			C169.69,129.84,168.73,128.14,167.71,126.47z M224.13,109.07c-0.9-1.99-2.68-2.01-3.93-0.24c-1.74,2.45-1.89,7.94-0.29,10.47
			c1.14,1.81,2.81,1.93,3.8,0.04c0.87-1.67,1.24-3.61,1.8-5.34C225.01,112.16,224.78,110.52,224.13,109.07z M223.77,117.15
			c-0.62,1.19-1.7,1.18-2.27,0.01c-1-2.03-0.97-4.15,0.09-6.15c0.72-1.36,1.83-1.28,2.45,0.17c0.38,0.9,0.47,1.92,0.7,2.98
			C224.42,115.16,224.24,116.23,223.77,117.15z M232,112.73c0.35-0.04,0.82-0.56,0.91-0.93c0.24-0.95,0.3-1.95,0.46-3.13
			c-2.76,0-5.39,0-8.07,0c0.28,1.5,0.53,2.85,0.84,4.49C228.15,113.03,230.08,112.94,232,112.73z M234.54,116.71
			c0.69,1.48,1.97,1.45,2.93,0.11c1.29-1.8,1.44-6.08,0.28-7.95c-0.87-1.4-2.15-1.52-2.92-0.07c-0.66,1.23-0.91,2.68-1.34,4.06
			C233.83,114.22,233.99,115.56,234.54,116.71z M236.63,115.69c-1.6-0.25-1.56-1.96-1.34-3.21c0.17-0.97,0.94-1.84,1.44-2.75
			c0.59,0.84,1.17,1.68,1.96,2.8C237.89,113.81,237.1,115.77,236.63,115.69z M232.72,113.67c-0.93,0.04-1.89,0.08-2.84,0.12
			c-0.1,3.65,0.56,4.25,4.24,3.99C233.64,116.37,233.2,115.09,232.72,113.67z M217.47,120.66c0.8,0,1.44,0,2.21,0
			c-0.44-0.78-0.79-1.42-1.3-2.33C218.01,119.27,217.76,119.92,217.47,120.66z M177.17,122.91c1.97-2,1.99-6.79-0.05-8.91
			C175.15,116.19,175.22,121.12,177.17,122.91z M216.13,116.88c0-1.47,0-2.94,0-4.4c-0.24,0-0.48,0-0.73,0c0,1.46,0,2.91,0,4.37
			C215.65,116.85,215.89,116.87,216.13,116.88z M223.35,116.1c0-1.32,0-2.63,0-3.95c-0.19,0-0.38,0-0.57,0.01c0,1.32,0,2.63,0,3.95
			C222.97,116.11,223.16,116.1,223.35,116.1z"/>
	</g>
</g>
<g id="Layer_13">
</g>
<g id="Layer_14">
</g>
<g id="Layer_15">
</g>
</svg>
