<?xml version="1.0" encoding="utf-8"?>
<!-- Generator: Adobe Illustrator 27.8.1, SVG Export Plug-In . SVG Version: 6.00 Build 0)  -->
<svg version="1.1" xmlns="http://www.w3.org/2000/svg" xmlns:xlink="http://www.w3.org/1999/xlink" x="0px" y="0px"
	 viewBox="0 0 350 230" style="enable-background:new 0 0 350 230;" xml:space="preserve">
<style type="text/css">
	.st0{fill:#009EFF;}
	.st1{fill:#FF8500;}
	.st2{fill:#9B3C00;}
	.st3{fill:#660045;}
	.st4{fill:#00576B;}
	.st5{fill:#564F2C;}
	.st6{fill:#FFA354;}
	.st7{fill:#002760;}
	.st8{fill:#4C0037;}
	.st9{fill:#7C0B00;}
	.st10{fill:#144703;}
	.st11{fill:#2C6DC9;}
	.st12{fill:#3B243C;}
	.st13{fill:#001EA4;}
	.st14{fill:#8D5300;}
	.st15{fill:#30A976;}
	.st16{fill:#A02400;}
	.st17{fill:#0092FF;}
	.st18{fill:#60086C;}
	.st19{fill:#520013;}
	.st20{fill:#00AB7B;}
</style>
<g id="Layer_1">
	<g>
		<path class="st0" d="M228.1,55.55c-7.55,7.91-16.85,12.93-27.16,16.25c-0.56,0.18-0.83,0.04-1.16-0.45
			c-1.31-1.94-2.55-3.95-4.07-5.72c-8.35-9.79-18.94-15.12-31.85-15.74c-7.98-0.38-15.54,1.26-22.54,5.11
			c-12.13,6.67-19.62,16.85-22.42,30.44c-0.8,3.89-0.9,7.83-0.64,11.79c0.03,0.36,0.34,0.7,0.36,1.06c0.06,0.92,0.02,1.85,0.02,2.77
			c0.49-0.92,0.76-1.84,0.99-2.77c0.41-1.7,1.51-2.64,3.19-2.92c3.65-0.6,7.29-1.15,10.93-1.79c1.02-0.18,2.1-0.42,2.97-0.94
			c2.2-1.31,4.34-2.75,6.43-4.23c1.27-0.9,2.61-1.29,4.14-1.34c3.66-0.12,7.31-0.3,10.97-0.47c6.23-0.29,12.45-0.59,18.68-0.87
			c0.22-0.01,0.45,0.05,0.72,0.08c-0.09,0.17-0.11,0.24-0.16,0.28c-6.36,6.53-12.73,13.07-19.12,19.58
			c-0.29,0.3-0.84,0.47-1.28,0.47c-3.34,0.05-6.68,0.04-10.02,0.04c-0.37,0-0.73-0.1-1.08-0.14c0.38-4.19-1.62-7.14-5-7.5
			c-1.71-0.19-3.28,0.18-4.6,1.29c-1.95,1.63-2.46,3.8-2,6.37h-14.38c4.38,16.5,22.4,34.45,48.17,30.94
			c22.75-3.09,37.61-22.89,37.62-42.22c-4.52,1.49-9.09,3.01-13.28,4.39h8.61c-12.78,5.65-26.23,7.06-40.21,6.77
			c0.33-0.41,0.47-0.62,0.65-0.79c6.4-6.41,12.79-12.83,19.23-19.2c0.46-0.46,1.18-0.78,1.83-0.89c9.98-1.81,19.4-5.16,28.12-10.4
			c7.46-4.48,13.74-10.23,18.21-17.79c1.05-1.78,1.93-3.66,2.89-5.5C230.49,52.81,229.36,54.23,228.1,55.55z M142.22,109.15
			c-0.85,0.33-1.78,0.46-2.68,0.68c-0.05,0.02-0.18,0.02-0.21,0.02c-1.14-0.31-2.2-1.11-2.96-1.91c-1.55-1.65-1.83-4.1-0.71-6.07
			c1.13-1.98,3.35-2.98,5.56-2.51c2.28,0.49,3.93,2.37,4.14,4.73C145.55,106.15,144.23,108.35,142.22,109.15z"/>
		<path class="st1" d="M141.32,93.55c1.71-1.12,3.23-2.34,4.95-3.16c1.01-0.48,2.31-0.4,3.49-0.47c6.28-0.36,12.57-0.68,18.86-1.02
			c0.12-0.01,0.25,0.02,0.6,0.06c-0.37,0.37-0.61,0.63-0.87,0.87c-1.12,1.01-2.1,2.36-3.41,2.93c-1.26,0.55-2.88,0.36-4.34,0.4
			c-6.29,0.17-12.59,0.3-18.88,0.45C141.64,93.6,141.55,93.58,141.32,93.55z"/>
	</g>
</g>
<g id="Layer_2">
</g>
<g id="Layer_3">
</g>
<g id="Layer_4">
</g>
<g id="Layer_5">
</g>
<g id="Layer_6">
</g>
<g id="Layer_7">
</g>
<g id="Layer_8">
</g>
<g id="Layer_9">
</g>
<g id="Layer_10">
</g>
<g id="Layer_11">
</g>
<g id="Layer_12">
</g>
<g id="Layer_13">
</g>
<g id="Layer_14">
</g>
<g id="Layer_15">
</g>
</svg>
