<?xml version="1.0" encoding="utf-8"?>
<!-- Generator: Adobe Illustrator 27.8.1, SVG Export Plug-In . SVG Version: 6.00 Build 0)  -->
<svg version="1.1" xmlns="http://www.w3.org/2000/svg" xmlns:xlink="http://www.w3.org/1999/xlink" x="0px" y="0px"
	 viewBox="0 0 350 230" style="enable-background:new 0 0 350 230;" xml:space="preserve">
<style type="text/css">
	.st0{fill:#009EFF;}
	.st1{fill:#FF8500;}
	.st2{fill:#9B3C00;}
	.st3{fill:#660045;}
	.st4{fill:#00576B;}
	.st5{fill:#564F2C;}
	.st6{fill:#FFA354;}
	.st7{fill:#002760;}
	.st8{fill:#4C0037;}
	.st9{fill:#7C0B00;}
	.st10{fill:#144703;}
	.st11{fill:#2C6DC9;}
	.st12{fill:#3B243C;}
	.st13{fill:#001EA4;}
	.st14{fill:#8D5300;}
	.st15{fill:#30A976;}
	.st16{fill:#A02400;}
	.st17{fill:#0092FF;}
	.st18{fill:#60086C;}
	.st19{fill:#520013;}
	.st20{fill:#00AB7B;}
</style>
<g id="Layer_1">
</g>
<g id="Layer_2">
</g>
<g id="Layer_3">
</g>
<g id="Layer_4">
</g>
<g id="Layer_5">
</g>
<g id="Layer_6">
</g>
<g id="Layer_7">
</g>
<g id="Layer_8">
</g>
<g id="Layer_9">
</g>
<g id="Layer_10">
	<g>
		<path class="st11" d="M134.14,122.2c4.26-4.25,4.28-9.91,0.04-14.14c-5.53-5.53-11.06-11.07-16.6-16.59
			c-1.43-1.43-2.91-2.81-4.4-4.24c0.38-0.42,0.58-0.65,0.8-0.87c2.76-2.77,5.54-5.53,8.28-8.31c3.34-3.39,2.96-8-0.89-10.84
			c-4.61-3.4-9.49-6.33-14.69-8.74c-12.82-5.97-26.26-8.32-40.31-6.53c-13.85,1.77-26.2,7.26-37.35,15.56
			c-3.39,2.53-3.72,7.27-0.76,10.29c2.77,2.82,5.58,5.59,8.37,8.39c0.29,0.29,0.55,0.61,0.85,0.93c-0.26,0.27-0.41,0.44-0.57,0.61
			c-6.8,6.81-13.6,13.62-20.41,20.41c-4.1,4.09-4.13,9.79-0.05,13.87c4.62,4.62,9.23,9.24,13.86,13.85
			c2.35,2.34,4.72,4.66,7.15,7.06c-0.44,0.46-0.74,0.8-1.07,1.13c-2.57,2.57-5.15,5.13-7.71,7.72c-3.57,3.6-3.21,8.18,0.87,11.16
			c4.4,3.22,9.05,6.02,13.97,8.36c13.12,6.23,26.88,8.64,41.3,6.72c13.72-1.82,25.95-7.32,36.98-15.56c3.34-2.5,3.63-7.2,0.71-10.23
			c-1.92-2-3.91-3.95-5.89-5.89c-1.09-1.06-2.23-2.07-3.41-3.15c0.5-0.54,0.78-0.86,1.08-1.15
			C120.91,135.41,127.52,128.8,134.14,122.2z M111.45,143.94c-4.17,4-9.26,6.78-14.54,9.13c-7.3,3.25-14.21,4.73-21.59,4.73
			c-11.86-0.07-22.39-4.09-32.07-10.71c-2.97-2.03-5.43-4.58-7.95-7.09c-6.15-6.13-12.28-12.28-18.42-18.42
			c-3.81-3.82-3.94-8.97-0.12-12.84c7.8-7.91,15.55-15.88,23.61-23.51c4.3-4.07,9.64-6.79,15.15-9c16.82-6.77,32.87-4.8,48.32,4.3
			c4.54,2.68,8.27,6.24,11.94,9.94c6.02,6.09,12.1,12.12,18.15,18.18c3.8,3.8,3.83,9.05,0.05,12.84
			C126.49,129,119.1,136.6,111.45,143.94z M29.53,119.94c-1.05-0.76-1.83-1.42-2.69-1.91c-0.33-0.19-0.96-0.2-1.29-0.01
			c-0.87,0.49-1.64,1.14-2.7,1.9c0.36-1.13,0.55-2,0.91-2.81c0.38-0.86,0.12-1.37-0.61-1.83c-0.7-0.45-1.36-0.97-1.96-1.7
			c0.88,0,1.77-0.05,2.65,0.01c0.82,0.06,1.2-0.26,1.4-1.04c0.23-0.9,0.57-1.78,0.94-2.93c0.35,1.04,0.72,1.84,0.88,2.68
			c0.21,1.08,0.79,1.39,1.81,1.29c0.76-0.07,1.53-0.01,2.38,0.24c-0.65,0.47-1.26,1-1.95,1.39c-0.89,0.5-1.03,1.11-0.64,2.02
			C28.98,118.01,29.18,118.84,29.53,119.94z M126.98,117c-0.31-0.76-0.14-1.22,0.55-1.64c0.76-0.48,1.46-1.06,2.41-1.77
			c-0.87,0-1.42,0.01-1.96,0c-2.51-0.05-1.92,0.3-2.71-1.94c-0.2-0.56-0.38-1.12-0.69-2.01c-0.4,1.23-0.7,2.07-0.94,2.93
			c-0.2,0.76-0.59,1.1-1.41,1.03c-0.89-0.07-1.79-0.02-3.02-0.02c1.07,0.79,1.8,1.37,2.58,1.88c0.55,0.36,0.69,0.75,0.46,1.36
			c-0.34,0.91-0.6,1.85-1,3.1c1.05-0.76,1.84-1.27,2.55-1.86c0.55-0.46,0.97-0.49,1.53-0.03c0.75,0.61,1.56,1.14,2.6,1.88
			C127.55,118.74,127.32,117.85,126.98,117z"/>
		<path class="st12" d="M38.74,128.28c0.1-2.03-0.01-3.89,0.32-5.67c0.6-3.22,3.06-5.24,6.44-5.49c0.93-0.07,1.29-0.38,1.35-1.3
			c0.09-1.32,0.35-2.63,0.45-3.96c0.16-2.15,1.33-3.68,2.86-5.06c0.53-0.48,0.98-1.21,1.14-1.91c0.64-2.86,1.11-5.75,1.72-8.61
			c0.67-3.13,1.89-5.96,4.62-7.91c0.23-0.17,0.36-0.58,0.4-0.89c0.47-3.13,1.11-3.89,4.33-4.14c3.74-0.29,7.49-0.45,11.24-0.47
			c5.55-0.02,11.1,0.08,16.65,0.24c3.09,0.09,4.43,1.4,4.48,4.53c0.12,7.47,0.11,14.93,0.14,22.4c0.01,2.93,0.01,5.87,0.02,8.8
			c0,0.54,0,1.07,0,1.67c-0.81-0.11-1.44-0.2-2.08-0.29c-0.06,0.13-0.13,0.27-0.19,0.4c0.32,0.17,0.63,0.42,0.97,0.49
			c2.82,0.58,5.65,1.13,8.45,1.86c-3.93-0.23-7.85-0.45-11.76-0.68c-0.55,1.74-0.39,1.97,1.29,2.1c3.65,0.29,7.29,0.59,10.93,1
			c-4.06,0.16-8.11,0.33-12.26,0.49c0,0.88,0,1.64,0,2.59c4.11-0.34,8.17-0.67,12.23-1c0,0.02,0.01,0.05,0.01,0.07
			c-3.48,0.69-6.97,1.37-10.45,2.07c-1.91,0.39-1.91,0.4-1.71,2.58c0.79-0.17,1.57-0.33,2.34-0.51c3.69-0.85,7.38-1.74,11.08-2.56
			c0.76-0.17,1.04-0.47,1.02-1.25c-0.05-1.84-0.07-3.68,0.01-5.51c0.04-0.91-0.32-1.23-1.15-1.34c-2.2-0.3-4.39-0.65-6.65-1
			c0-0.7,0-1.31,0-2.12c4.73,1.38,9.39,2.75,14.05,4.11c-0.01,0.05-0.02,0.1-0.02,0.15c-1.83-0.27-3.67-0.54-5.71-0.84
			c0,1.81,0,3.51,0,5.21c0,2.49,0,2.51-2.29,3.26c-4.27,1.41-8.54,2.8-12.81,4.19c-0.36,0.12-0.74,0.21-1.27,0.36
			c0-0.53,0-0.95,0-1.36c0.01-5.36,0-10.72,0.06-16.07c0.01-1.03-0.3-1.46-1.31-1.36c-2.15,0.21-4.31,0.43-6.35,0.63
			c0.29-1.29,2.32-3.97,4.07-5.18c2.03-1.41,4.39-1.6,6.78-1.72c0.01-0.1,0.02-0.2,0.02-0.3c-0.2-0.09-0.4-0.27-0.6-0.27
			c-0.82-0.01-1.64,0.04-2.46,0.05c-1.01,0.01-1.55-0.53-1.56-1.5c-0.03-3.4-0.03-6.81,0-10.21c0.01-1.08,0.72-1.61,1.81-1.38
			c0.87,0.18,1.73,0.43,2.68,0.67c0-3.17,0-6.21,0-9.25c-0.12-0.09-0.24-0.18-0.37-0.27c-1.22,0.93-2.52,1.77-3.63,2.81
			c-0.96,0.9-1.79,1.97-2.52,3.07c-0.58,0.88-1.18,1.28-2.31,0.74c1.59-3.14,4.12-5.14,7.33-6.55c-0.72,0.13-1.46,0.2-2.16,0.41
			c-4.35,1.32-8.79,1.67-13.32,1.54c-4.42-0.13-8.84-0.02-13.26-0.03c-0.5,0-1.03,0-1.5-0.15c-1.01-0.32-1.65,0.04-2.23,1.17
			c4.16,0.12,8.19,0.24,12.21,0.36c0,0.02,0,0.04,0,0.06c-3.9,0-7.81,0.01-11.71-0.01c-0.67,0-1.27,0.03-1.39,1.11
			c4.61,0.15,9.19,0.31,13.78,0.46c0,0.03,0,0.06,0,0.08c-4.4,0-8.81,0-13.21,0c-0.67,0-1.28,0.02-1.24,1.16
			c4.49,0.14,8.99,0.28,13.49,0.42c0,0.08,0,0.16,0,0.24c-4.26,0-8.52,0-12.78,0c-0.62,0-1.34-0.11-1.17,1.09
			c0.48,0,0.97,0.01,1.46,0c8.05-0.14,16.11-0.28,24.16-0.42c0.08,0,0.16-0.01,0.23-0.01c3.23-0.07,3.5,0.2,3.67,3.45
			c0.09,1.8,0.22,3.59,0.35,5.38c0.1,1.5-0.29,2.06-1.77,2.12c-4.22,0.16-8.44,0.32-12.66,0.34c-6.14,0.02-12.28-0.08-18.42-0.13
			c-0.16,0-0.34-0.06-0.46-0.01c-0.3,0.14-0.58,0.33-0.87,0.5c0.26,0.16,0.51,0.44,0.79,0.46c1.52,0.13,3.04,0.27,4.56,0.28
			c6.02,0.03,12.04,0.01,18.06,0.01c0.35,0,0.7,0,1.05,0c0,0.06,0.01,0.11,0.01,0.17c-3.45,0.28-6.89,0.71-10.35,0.81
			c-4.84,0.14-9.69,0.04-14.54,0.02c-1.09-0.01-1.47,0.3-2.13,2.11c0.44,0.04,0.84,0.12,1.24,0.12c6.81,0.02,13.61,0.1,20.41-0.02
			c1.71-0.03,3.42-0.72,5.11-1.15c0.63-0.16,1.24-0.43,1.95-0.48c-0.38,0.2-0.76,0.4-1.14,0.61c-2.55,1.43-4.18,3.41-4.2,6.53
			c-0.02,2.3-0.29,4.6-0.47,7.17c-0.21-3.62-0.44-6.96-0.59-10.3c-0.04-0.96-0.38-1.22-1.34-1.21c-6.76,0.1-13.53,0.16-20.29,0.17
			c-1.04,0-1.41,0.29-1.49,1.35c-0.35,4.48-0.79,8.95-1.21,13.43c-0.09,0.9,0.51,0.81,1.05,0.81c3.25,0.01,6.49,0.01,9.74,0.01
			c4.5,0,9-0.02,13.49,0.01c0.83,0.01,1.17-0.31,1.56-1.03c0.92-1.7,2.05-3.3,3.06-4.96c0.23-0.37,0.42-0.82,0.45-1.25
			c0.16-2.32,0.58-4.57,1.61-6.68c1.45-2.96,3.68-4.74,7.21-5.57c-4.11,2.6-5.5,6.34-5.89,10.89c2.67-1.1,5.26-1.58,8.16-1.23
			c-2.69,2.86-3.81,6.31-5.02,9.74c-0.14,0.41-0.8,0.84-1.26,0.89c-2.37,0.25-4.75,0.52-7.13,0.53c-11.22,0.04-22.45,0-33.68-0.01
			C40.07,128.28,39.57,128.28,38.74,128.28z M51.81,104.67c1.19,0.09,2.08,0.2,2.96,0.21c6.17,0.03,12.34,0.06,18.51,0.04
			c3.12-0.01,6.25-0.14,9.37-0.23c1.36-0.04,1.93-0.46,1.88-1.55c-0.08-2.03-0.28-4.05-0.43-6.07c-0.07-0.97-0.66-1.38-1.55-1.41
			c-1.44-0.04-2.88-0.05-4.33-0.03c-7.54,0.09-15.08,0.2-22.61,0.28c-0.92,0.01-1.68,0.23-1.93,1.16
			C53.05,99.51,52.47,101.97,51.81,104.67z M86.5,117.32c-0.17,0-0.53-0.06-0.86,0.01c-2.56,0.54-4.97,1.49-6.81,3.39
			c-0.95,0.98-1.67,2.24-2.25,3.49c-0.61,1.33-0.03,2.18,1.42,2.4c1.61,0.24,3.09-0.19,4.46-1.03c0.21-0.13,0.4-0.37,0.51-0.6
			C84.15,122.45,85.31,119.92,86.5,117.32z M46.64,117.53c-2.94,0.45-4.98,2.67-5.14,5.57c-0.06,1.16,0.07,2.34,0.23,3.49
			c0.05,0.36,0.47,0.94,0.74,0.95c1.06,0.05,2.12-0.08,3.18-0.16c0.04,0,0.08-0.21,0.09-0.32
			C46.04,123.92,46.33,120.78,46.64,117.53z M89.74,97.84c0.66,0.14,1.22,0.3,1.78,0.37c0.21,0.03,0.44-0.14,0.67-0.22
			c-0.15-0.2-0.25-0.49-0.45-0.58c-0.39-0.17-0.82-0.24-1.24-0.35c-1.76-0.47-1.84-0.41-1.84,1.46c0,2.07,0,4.14,0,6.21
			c0.01,2.85-0.4,2.6,2.82,2.5c0.24-0.01,0.47-0.28,0.71-0.42c-0.24-0.19-0.45-0.45-0.73-0.54c-0.32-0.1-0.72,0.02-1.04-0.1
			c-0.27-0.1-0.65-0.39-0.66-0.6C89.72,103.04,89.74,100.51,89.74,97.84z M87.78,127.65c0,2.31,0.03,4.53-0.03,6.74
			c-0.01,0.26-0.45,0.67-0.76,0.75c-1.92,0.48-3.85,1.25-5.78,1.25c-13.49-0.04-26.97-0.25-40.46-0.41c-1.89-0.02-2.8-0.97-2.8-2.84
			c0-1.09,0.07-2.19,0.09-3.28c0.01-0.84,0.43-1.17,1.25-1.16c11.92,0.14,23.85,0.39,35.77,0.35c3.88-0.01,7.75-0.77,11.63-1.19
			C87,127.81,87.3,127.74,87.78,127.65z M76.12,132.63c0.01-1.28-0.72-2.3-1.65-2.33c-0.92-0.02-1.72,1.02-1.75,2.26
			c-0.03,1.27,0.8,2.41,1.73,2.4C75.35,134.94,76.11,133.89,76.12,132.63z M43.23,132.5c0.02-1.06-0.62-1.98-1.39-2.02
			c-0.75-0.03-1.5,0.93-1.51,1.93c-0.01,1.02,0.67,1.99,1.42,2.01C42.52,134.45,43.21,133.55,43.23,132.5z M59.27,125.91
			c-2.97,0-5.94,0.01-8.91,0c-1.47,0-2.02-0.55-1.95-1.98c0.15-3.05,0.32-6.09,0.5-9.13c0.1-1.62,0.5-1.97,2.11-1.97
			c5.63,0,11.26,0,16.89,0c1.81,0,2.18,0.38,2.19,2.2c0.02,2.97,0.04,5.94,0.05,8.92c0.01,1.46-0.5,1.97-1.97,1.97
			C65.21,125.92,62.24,125.92,59.27,125.91C59.27,125.91,59.27,125.91,59.27,125.91z M51.49,113.21c-1.78-0.22-2.2,0.12-2.29,1.63
			c-0.16,2.92-0.33,5.84-0.48,8.77c-0.09,1.83,0.48,2.27,2.41,1.77C51.26,121.37,51.37,117.32,51.49,113.21z M67.79,125.5
			c1.59,0.17,2.07-0.14,2.07-1.39c0.02-3.16,0.01-6.32-0.04-9.47c-0.02-1.32-0.66-1.72-2.04-1.33
			C67.79,117.33,67.79,121.37,67.79,125.5z M65.18,113.18c-1.62-0.17-1.61-0.17-1.65,1.34c-0.03,1.21-0.11,2.42-0.12,3.63
			c-0.02,2.44-0.01,4.89-0.01,7.39c0.53,0,1.06,0,1.77,0C65.18,121.41,65.18,117.34,65.18,113.18z M59.42,113.24
			c-0.12,4.05-0.24,8.12-0.36,12.25c0.67,0,1.19,0,1.79,0c0.11-3.69,0.21-7.28,0.33-10.88C61.23,113,61.19,112.94,59.42,113.24z
			 M67.36,113.23c-1.69-0.26-1.69-0.26-1.73,1.29c-0.04,2.1-0.1,4.21-0.13,6.31c-0.02,1.55,0,3.09,0,4.67c0.7,0,1.25,0,1.86,0
			C67.36,121.37,67.36,117.33,67.36,113.23z M63.04,113.18c-1.56-0.2-1.55-0.2-1.6,1.35c-0.06,1.91-0.15,3.83-0.18,5.74
			c-0.03,1.74-0.01,3.48-0.01,5.23c0.6,0,1.08,0,1.79,0C63.04,121.37,63.04,117.32,63.04,113.18z M57.49,125.54
			c0.66,0.14,1.33,0.2,1.35-1.02c0.06-3.5,0.18-7.01,0.29-10.51c0.02-0.51,0-0.92-0.7-0.93c-0.63-0.01-0.94,0.19-0.94,0.85
			C57.5,117.74,57.49,121.55,57.49,125.54z M55.61,113.24c-0.12,4.1-0.24,8.16-0.36,12.25c0.62,0,1.07,0,1.59,0
			c0.13-3.78,0.22-7.48,0.4-11.17C57.3,113.13,56.82,112.88,55.61,113.24z M55.32,113.24c-1.24-0.36-1.66-0.06-1.67,1.11
			c-0.03,3.43-0.18,6.86-0.28,10.29c-0.01,0.29,0.04,0.59,0.07,0.9c0.52,0,0.94,0,1.51,0C55.07,121.41,55.19,117.34,55.32,113.24z
			 M53.14,125.52c0-4.14,0-8.21,0-12.3c-1.29-0.26-1.34-0.22-1.37,1.17c-0.09,3.12-0.18,6.24-0.26,9.35c-0.02,0.57,0,1.14,0,1.78
			C52.02,125.52,52.47,125.52,53.14,125.52z M88.76,135.71c-0.22,0.78-0.28,1.66-0.7,2.32c-0.42,0.66-1.12,1.39-1.83,1.57
			c-0.92,0.23-1.48-0.67-1.87-1.47c-0.12-0.24-0.22-0.49-0.25-0.55c-2.86,0-5.6,0-8.35,0c0.29,2.95,1.46,4.68,3.51,4.75
			c2.21,0.08,4.44-0.12,6.64-0.33c1.65-0.16,2.57-1.29,2.85-2.85c0.2-1.13,0.18-2.31,0.26-3.46
			C88.94,135.69,88.85,135.7,88.76,135.71z M112.87,123.56c-0.31,0.99-0.61,1.98-0.92,2.97c-0.18,0-0.36,0-0.54-0.01
			c-0.31-1.08-0.62-2.16-0.98-3.4c-1.29,0-2.67,0-4.34,0c0.32,1.92,0.53,3.78,0.97,5.58c0.31,1.27,1.32,1.77,2.73,1.72
			c1.43-0.05,2.33-0.6,2.6-1.89c0.35-1.63,0.51-3.29,0.75-4.94C113.04,123.59,112.95,123.58,112.87,123.56z M47.45,141.91
			c0.27,0,0.55-0.01,0.82-0.02c2.62-0.13,3.89-1.77,3.44-4.55c-3.01,0-6.04,0-9.07,0C43.42,141.94,43.78,141.87,47.45,141.91z
			 M111.54,104.6c-5.19-6.17-10.39-12.35-15.58-18.52c-0.03,1.37,0.11,2.61,0.33,3.83c0.06,0.31,0.28,0.65,0.52,0.87
			c4.84,4.66,9.69,9.3,14.54,13.95C111.41,104.69,111.48,104.64,111.54,104.6z M47.15,103.27c0,0.98-0.01,1.95,0,2.93
			c0.01,0.81,0.54,1.47,1.21,1.15c0.82-0.39,1.86-1.16,2.01-1.93c0.31-1.62,0.14-3.34,0.1-5.02c-0.03-1.19-0.95-1.11-1.79-1.12
			c-0.83-0.01-1.5,0.15-1.52,1.17C47.14,101.4,47.15,102.33,47.15,103.27C47.15,103.27,47.15,103.27,47.15,103.27z M110.32,111.65
			c-4.41-3.44-8.82-6.89-13.23-10.33c-0.13,0.08-0.27,0.16-0.4,0.24c0.26,0.7,0.3,1.73,0.8,2.06c4.18,2.81,8.45,5.49,12.7,8.2
			C110.23,111.76,110.27,111.7,110.32,111.65z M98.18,109.58c3.93,1.81,7.77,3.79,11.65,5.7c0.19,0.1,0.41,0.15,0.61,0.22
			c0.02-0.04,0.04-0.09,0.06-0.13c-4.46-2.82-8.92-5.65-13.46-8.52C96.74,108.18,96.87,108.98,98.18,109.58z M110.12,118.75
			c-4.36-2.07-8.71-4.14-13.13-6.24c-0.17,2.06-0.18,2.06,1.55,2.64c1.99,0.67,3.99,1.35,5.98,2.02c1.83,0.61,3.67,1.21,5.51,1.81
			C110.06,118.9,110.09,118.82,110.12,118.75z M98.01,99.05c3.64,2.62,7.2,5.36,10.8,8.04c0.24,0.18,0.51,0.33,0.77,0.49
			c0.03-0.06,0.07-0.11,0.1-0.17c-4.16-3.7-8.33-7.41-12.62-11.22C96.69,97.54,96.99,98.32,98.01,99.05z M78.69,124.28
			c1.19-1.69,2.46-3.47,3.63-5.14C80.16,120.12,78.82,121.86,78.69,124.28z M42.75,125.79c0.59-1.76,1.27-3.79,1.91-5.68
			C42.98,121.02,42.24,123.25,42.75,125.79z"/>
	</g>
</g>
<g id="Layer_11">
</g>
<g id="Layer_12">
</g>
<g id="Layer_13">
</g>
<g id="Layer_14">
</g>
<g id="Layer_15">
</g>
</svg>
