<?xml version="1.0" encoding="utf-8"?>
<!-- Generator: Adobe Illustrator 27.8.1, SVG Export Plug-In . SVG Version: 6.00 Build 0)  -->
<svg version="1.1" xmlns="http://www.w3.org/2000/svg" xmlns:xlink="http://www.w3.org/1999/xlink" x="0px" y="0px"
	 viewBox="0 0 350 230" style="enable-background:new 0 0 350 230;" xml:space="preserve">
<style type="text/css">
	.st0{fill:#009EFF;}
	.st1{fill:#FF8500;}
	.st2{fill:#9B3C00;}
	.st3{fill:#660045;}
	.st4{fill:#00576B;}
	.st5{fill:#564F2C;}
	.st6{fill:#FFA354;}
	.st7{fill:#002760;}
	.st8{fill:#4C0037;}
	.st9{fill:#7C0B00;}
	.st10{fill:#144703;}
	.st11{fill:#2C6DC9;}
	.st12{fill:#3B243C;}
	.st13{fill:#001EA4;}
	.st14{fill:#8D5300;}
	.st15{fill:#30A976;}
	.st16{fill:#A02400;}
	.st17{fill:#0092FF;}
	.st18{fill:#60086C;}
	.st19{fill:#520013;}
	.st20{fill:#00AB7B;}
</style>
<g id="Layer_1">
</g>
<g id="Layer_2">
</g>
<g id="Layer_3">
</g>
<g id="Layer_4">
</g>
<g id="Layer_5">
</g>
<g id="Layer_6">
</g>
<g id="Layer_7">
</g>
<g id="Layer_8">
</g>
<g id="Layer_9">
</g>
<g id="Layer_10">
</g>
<g id="Layer_11">
	<g>
		<path class="st7" d="M168.24,147.19c-28.68-0.01-51.97-23.24-51.94-51.81c0.03-29.03,23.21-52.12,52.4-52.01
			c28.21,0.1,51.89,23.32,51.44,52.75C219.71,124.64,196.34,147.25,168.24,147.19z M116.81,95.42c0.1,29.1,24.46,52.29,53.33,51.22
			c27.41-1.01,50.12-24.01,49.47-52.74c-0.64-28.18-24.38-50.73-52.88-49.99C138.87,44.64,116.73,67.7,116.81,95.42z"/>
		<path class="st7" d="M197.63,77.69c-7.4-10.72-17.36-16.78-30.56-16.34c-13.11,0.44-22.61,7.08-29.34,18.13
			c1.85-4.09,4.56-7.47,7.9-10.35c5.64-4.87,12.21-7.67,19.61-8.28C181.13,59.52,193.06,68.87,197.63,77.69z M142.65,118.49
			c5.95,6.43,13.26,10.23,22,11.13c7.97,0.82,15.39-0.91,22.16-5.24c5.04-3.22,8.98-7.46,11.66-12.91
			c-6.4,10.29-15.34,16.68-27.56,17.65c-12.34,0.97-22.21-3.95-30.07-13.59C140.86,116.49,140.95,116.65,142.65,118.49z"/>
		<path class="st13" d="M148.89,103.32c-0.57,0-1.08,0-1.77,0c0.12-4.79,1.95-8.74,5.48-11.79c3.5-3.03,7.68-4.45,12.4-4.56
			c-0.27-0.12-0.52-0.25-0.8-0.34c-0.27-0.09-0.56-0.13-1.19-0.26c1.86-0.49,2.06-1.66,2.05-3.02c-0.01-1.53,0.03-3.05,0.12-4.58
			c0.05-0.9-0.32-1.24-1.18-1.36c-3.47-0.48-6.92-0.17-10.35,0.35c-2.64,0.4-5.26,0.96-7.89,1.47c-1.57,0.3-2.47,1.21-2.63,2.86
			c-0.13,1.29-0.37,2.56-0.57,3.84c0.12,0.07,0.24,0.14,0.37,0.21c0.19-0.27,0.48-0.52,0.54-0.81c0.22-1.13,0.4-2.27,0.53-3.42
			c0.09-0.83,0.53-1.3,1.3-1.45c3.5-0.69,6.99-1.46,10.51-2.01c1.89-0.3,3.83-0.21,5.75-0.24c-4.63,0.17-9.23,0.59-13.63,2.15
			c-3.64,1.3-3.01,1.12-3.27,4.39c-0.03,0.36,0,0.72,0,1.34c5.45,0,10.79,0,16.13,0c0,0.1,0.01,0.21,0.01,0.31
			c-1.52,0.37-3.11,0.55-4.54,1.14c-2.36,0.97-4.64,2.16-6.91,3.34c-0.73,0.38-1.33,0.45-2.16,0.37c-2.62-0.24-5.26-0.28-7.9-0.3
			c-1.22-0.01-2.45,0.19-3.67,0.29c-1.86,0.16-2.64,0.82-3.06,2.66c-0.16,0.68-0.22,1.39-0.34,2.16c-0.62,0-1.23,0-1.83,0
			c-0.67-2.56,0.98-6.3,3.35-7.61c0.45-0.25,0.92-0.56,1.41-0.65c1.39-0.26,1.71-1.19,1.71-2.41c0-0.74,0.11-1.49,0.14-2.23
			c0.04-1.01,0.51-1.5,1.55-1.43c0.51,0.03,1.03,0.01,1.63,0.01c0,1.44,0,2.8,0,4.23c0.62,0.14,0.93-0.06,1.01-0.74
			c0.17-1.37,0.39-2.73,0.58-4.09c0.28-1.96,1.29-3.35,3.12-4.17c0.33-0.15,0.52-0.66,0.71-1.04c0.26-0.55,0.33-1.23,0.7-1.67
			c3.49-4.26,8.08-6.56,13.46-7.44c8.29-1.35,16.23-0.23,23.86,3.26c0.62,0.28,1.02,0.54,1.01,1.35
			c-0.03,9.57-0.02,19.15-0.03,28.72c0,0.29-0.04,0.58-0.08,1.02c-2.67-0.32-5.28-0.63-8.06-0.96c0-0.52,0-0.98,0-1.45
			c0-8.42,0-16.84,0-25.26c0-1.37-0.12-1.48-1.72-1.62c-0.03,0.47-0.08,0.94-0.08,1.4c0,9.13,0.02,18.25-0.02,27.38
			c0,1,0.29,1.35,1.29,1.42c2.49,0.18,4.96,0.48,7.45,0.7c0.87,0.08,1.29,0.33,1.25,1.35c-0.09,2.38-0.01,4.77-0.06,7.15
			c-0.01,0.33-0.35,0.89-0.61,0.93c-3.64,0.53-7.29,0.99-11.1,1.49c-0.02-0.52-0.06-0.94-0.06-1.37c0.02-3.28,0.11-6.56,0.04-9.83
			c-0.03-1.36-0.31-2.74-0.68-4.06c-0.81-2.87-2.61-4.76-5.63-5.4c-5.35-1.14-10.25-0.51-14.19,3.66c-0.85,0.9-1.51,2.03-2.09,3.15
			C149.71,100.94,149.36,102.13,148.89,103.32z M171.21,70.91c0,1.91,0,3.73,0,5.55c0,1.69,0.11,1.84,1.95,2.37
			c0.03-0.42,0.08-0.81,0.08-1.2c0.01-1.6,0-3.2,0-4.81C173.24,71.02,173.22,71,171.21,70.91z M167.65,70.35c0,1.43,0,2.8,0,4.16
			c0,1.63,0.3,1.98,2.08,2.32c0-1.6,0-3.19,0-4.77C169.73,70.29,169.64,70.21,167.65,70.35z M166.11,70.16
			c-1.98-0.39-1.98-0.39-1.98,1.47c0,0.52,0,1.04,0,1.56c0,1.66,0.22,1.86,1.98,1.78C166.11,73.39,166.11,71.81,166.11,70.16z
			 M159.28,70.43c-0.09-0.11-0.19-0.22-0.28-0.34c-0.55,0.29-1.52,0.51-1.58,0.89c-0.2,1.21-0.08,2.48-0.08,3.82
			c0.75-0.08,1.32-0.13,1.94-0.2C159.28,73.14,159.28,71.78,159.28,70.43z M162.62,70.13c-0.11-0.12-0.23-0.24-0.34-0.36
			c-0.49,0.29-1.34,0.52-1.4,0.89c-0.19,1.08-0.12,2.21-0.02,3.31c0.02,0.23,0.59,0.54,0.93,0.57c0.26,0.02,0.78-0.34,0.79-0.55
			C162.65,72.69,162.62,71.41,162.62,70.13z M155.84,71.09c-0.12-0.1-0.24-0.2-0.37-0.3c-0.55,0.37-1.47,0.66-1.59,1.14
			c-0.25,1-0.07,2.1-0.07,3.14c1.6,0.15,1.98,0.03,2.02-0.67C155.88,73.3,155.84,72.19,155.84,71.09z M150.44,76
			c0.71-0.36,1.65-0.55,1.79-0.98c0.26-0.87,0.08-1.87,0.08-2.84C150.26,72.49,150.01,72.96,150.44,76z M147.26,76.29
			c1.62,0.02,1.96-0.62,1.31-2.44C147.01,74.42,146.86,74.71,147.26,76.29z M163.68,111.88c0.97-0.04,1.4-0.54,1.43-1.48
			c0.06-1.38,0.09-2.76,0.21-4.13c0.13-1.39,0.1-1.47-1.29-1.49c-6.18-0.07-12.36-0.1-18.55-0.21c-5.7-0.1-11.39-0.28-17.09-0.47
			c-1.01-0.03-1.44,0.24-1.39,1.3c0.06,1.15,0,2.31,0.02,3.46c0.02,1.4,0.39,1.79,1.75,1.91c1.11,0.1,2.22,0.22,3.34,0.3
			c7.02,0.48,14.04,0.95,20.19,1.36C156.69,112.22,160.19,112.04,163.68,111.88z M208.08,91.65c-6.88-2.91-13.76-5.83-20.64-8.74
			c-0.35-0.15-0.72-0.27-1.24-0.46c0,1.12,0.06,2.05-0.02,2.97c-0.08,0.91,0.28,1.31,1.14,1.58c4.18,1.32,8.35,2.7,12.52,4.06
			c3.11,1.01,6.21,2.02,9.41,3.07C209.57,92.3,209.55,92.27,208.08,91.65z M208.15,84.27c-6.95-3.66-13.85-7.4-20.77-11.11
			c-0.32-0.17-0.65-0.31-1.18-0.55c0,1.16,0.05,2.15-0.01,3.13c-0.05,0.75,0.25,1.14,0.93,1.43c2.91,1.25,5.79,2.53,8.69,3.8
			c4.46,1.96,8.91,3.91,13.46,5.91C209.61,85.59,209.29,84.87,208.15,84.27z M208.02,98.86c-6.88-2.05-13.75-4.1-20.63-6.15
			c-0.34-0.1-0.68-0.16-1.19-0.28c0,0.98,0.08,1.8-0.02,2.6c-0.16,1.22,0.33,1.65,1.51,1.87c5.08,0.96,10.14,2.03,15.2,3.05
			c2.1,0.42,4.21,0.83,6.31,1.25C209.61,99.47,209.52,99.31,208.02,98.86z M168.48,99.93c1.73-0.21,2.47,1.2,3.18,2.51
			c-0.31-2.73-0.79-5.43-3.56-6.75c-2.07-0.99-4.26-0.89-6.08,0.67c-2.11,1.8-2.55,4.29-2.61,6.97c2.14,0,4.1,0,6.12,0
			C166.08,101.72,166.66,100.15,168.48,99.93z M195.89,110.46c2.92-0.3,5.84-0.62,8.76-0.91c0.77-0.08,1.13-0.36,1.04-1.19
			c-0.08-0.7-0.08-1.42,0-2.12c0.1-0.86-0.33-1.1-1.06-1.18c-1.11-0.12-2.21-0.28-3.32-0.42c-1.9-0.24-3.81-0.47-5.79-0.71
			c0,2.23,0,4.33,0,6.43C195.68,110.41,195.79,110.47,195.89,110.46z M171.73,111.65c-0.27,1.88-0.49,3.78-1.77,5.32
			c-1.41,1.71-3.23,1.51-4.11-0.51c-0.47-1.08-0.71-2.25-1.09-3.48c-1.9,0-3.88,0-5.96,0c0.18,1.74,0.74,3.25,1.65,4.63
			c0.89,1.37,2.08,2.2,3.81,2.04c1-0.09,2-0.14,3-0.21c1.68-0.12,2.8-0.97,3.49-2.52c1.17-2.65,1.46-5.43,1.29-8.27
			C171.94,109.65,171.88,110.66,171.73,111.65z M135.95,116.98c2.43-0.14,4.73-2.11,4.99-4.29c-2.09-0.18-4.19-0.35-6.61-0.56
			c0.33,1.09,0.59,1.95,0.85,2.81c-0.09,0.05-0.18,0.09-0.27,0.14c-0.41-0.78-0.8-1.58-1.24-2.34c-0.17-0.3-0.43-0.72-0.7-0.77
			c-1.46-0.23-2.94-0.36-4.54-0.53C129.46,115.53,131.82,117.23,135.95,116.98z M153.56,103.39c0.82,0.07,1.11-0.25,1.37-1.02
			c0.52-1.58,1.07-3.18,1.89-4.61c1.58-2.75,4.17-3.83,7.29-3.81c-7.83-1.3-11.96,4.31-13.07,9.43
			C151.93,103.37,152.75,103.32,153.56,103.39z M168.74,106.27c-0.1-0.38-0.61-0.66-0.93-0.99c-0.3,0.31-0.74,0.56-0.87,0.93
			c-1.05,2.9-1.04,5.83-0.02,8.74c0.13,0.37,0.64,0.9,0.87,0.85c0.37-0.08,0.85-0.52,0.95-0.9c0.37-1.39,0.61-2.81,0.91-4.27
			C169.36,109.15,169.11,107.7,168.74,106.27z M190.4,108.17c-0.35,1.49-0.57,2.93-1.05,4.28c-0.19,0.53-0.97,1.17-1.48,1.17
			c-0.51,0-1.27-0.64-1.49-1.18c-1.13-2.8-1.13-5.67-0.03-8.47c0.22-0.57,0.98-1.23,1.55-1.29c0.46-0.04,1.25,0.67,1.44,1.21
			C189.83,105.27,190.06,106.74,190.4,108.17z M189.62,108.16c-0.23-1.17-0.43-2.37-0.72-3.55c-0.06-0.26-0.44-0.61-0.67-0.61
			c-0.22,0-0.57,0.36-0.65,0.62c-0.77,2.35-0.8,4.73-0.02,7.09c0.09,0.28,0.41,0.47,0.63,0.71c0.25-0.24,0.66-0.43,0.73-0.72
			C189.21,110.56,189.39,109.4,189.62,108.16z M128.23,103.75c0.05-0.34,0.12-0.67,0.13-1.01c0.02-1.08,0-2.16,0.01-3.23
			c0.02-1.57,0.41-1.96,1.99-1.96c4.5,0,9,0,13.5-0.01c0.41,0,0.81-0.08,1.22-0.13c0.01-0.11,0.03-0.23,0.04-0.34
			c-0.24-0.09-0.47-0.26-0.71-0.26c-4.91-0.02-9.82-0.03-14.73,0c-1.25,0.01-1.96,0.83-1.98,2.08c-0.02,1.3-0.01,2.6,0,3.9
			c0,0.31,0.07,0.61,0.11,0.92C127.96,103.74,128.1,103.74,128.23,103.75z M194.46,108.28c-0.32,1.35-0.56,2.66-0.96,3.92
			c-0.12,0.36-0.67,0.81-1.03,0.81c-0.35,0-0.88-0.45-1.03-0.82c-1.04-2.67-1.04-5.38,0.01-8.04c0.15-0.37,0.68-0.83,1.03-0.83
			c0.35,0,0.91,0.47,1.02,0.83C193.9,105.49,194.15,106.88,194.46,108.28z M192.79,111.91c1.33-1.29,1.3-6.26-0.05-7.39
			C191.37,105.8,191.4,110.75,192.79,111.91z M145.12,99.56c-0.34-0.09-0.67-0.27-1.01-0.27c-4.69-0.02-9.38-0.02-14.07,0
			c-0.33,0-0.67,0.17-1,0.26c0.02,0.11,0.04,0.22,0.06,0.33c5.32,0,10.64,0,15.96,0C145.08,99.77,145.1,99.66,145.12,99.56z
			 M145.04,101.97c-0.92-0.49-15.3-0.42-15.93,0.08C130.07,102.53,144.37,102.46,145.04,101.97z M207.06,105.25
			c1.08,1.32,1.05,4.04-0.01,5.03C205.9,109.33,205.88,106.45,207.06,105.25z M207.41,109.95c-0.13-0.9-0.3-1.54-0.3-2.18
			c0-0.6,0.16-1.2,0.26-1.8C206.46,107.09,206.51,108.88,207.41,109.95z M135.74,94.05c0-0.37,0.05-0.75-0.02-1.1
			c-0.05-0.23-0.28-0.42-0.43-0.63c-0.2,0.21-0.55,0.4-0.57,0.62c-0.07,0.77-0.06,1.55,0.01,2.32c0.02,0.19,0.34,0.41,0.56,0.49
			c0.09,0.03,0.4-0.29,0.43-0.48C135.79,94.87,135.74,94.46,135.74,94.05C135.74,94.05,135.74,94.05,135.74,94.05z M137.91,92.78
			c-0.03-0.18-0.32-0.44-0.5-0.44c-0.17,0-0.49,0.27-0.5,0.44c-0.05,0.85-0.05,1.7,0,2.55c0.01,0.16,0.32,0.42,0.5,0.42
			c0.17,0,0.46-0.24,0.49-0.42c0.08-0.39,0.02-0.81,0.02-1.22C137.93,93.66,137.98,93.21,137.91,92.78z M140.12,94.15
			c0-0.44,0.06-0.9-0.03-1.32c-0.04-0.2-0.37-0.34-0.56-0.51c-0.15,0.18-0.39,0.34-0.42,0.54c-0.07,0.43-0.09,0.89-0.02,1.32
			c0.1,0.54,0.31,1.07,0.47,1.6c0.27-0.5,0.54-1,0.82-1.51C140.29,94.23,140.2,94.19,140.12,94.15z M142.25,94.16
			c0-0.41,0.06-0.82-0.02-1.21c-0.04-0.23-0.3-0.42-0.46-0.63c-0.2,0.21-0.5,0.4-0.56,0.65c-0.1,0.38-0.1,0.82-0.01,1.21
			c0.12,0.56-0.49,1.49,0.6,1.53c0.2,0.01,0.43-0.95,0.65-1.47C142.38,94.21,142.32,94.18,142.25,94.16z M144.45,94.07
			c0-0.37,0.06-0.76-0.02-1.11c-0.05-0.24-0.3-0.43-0.46-0.64c-0.19,0.22-0.51,0.42-0.54,0.66c-0.07,0.74-0.06,1.49,0,2.23
			c0.02,0.21,0.33,0.39,0.5,0.58c0.17-0.2,0.43-0.37,0.48-0.6c0.08-0.35,0.02-0.74,0.02-1.11
			C144.44,94.07,144.44,94.07,144.45,94.07z M208.75,110.04c-0.85-1.29-0.81-3.39,0.03-4.32
			C209.6,106.73,209.61,108.84,208.75,110.04z M208.97,106.2c-0.74,0.84-0.73,2.41,0,3.22C208.97,108.37,208.97,107.34,208.97,106.2
			z M188.55,111.08c0.79-1.89,0.74-3.77,0.01-5.66C187.78,107.3,187.77,109.19,188.55,111.08z M192.78,105.72c0,1.76,0,3.33,0,4.9
			C193.7,109.43,193.66,106.84,192.78,105.72z"/>
	</g>
</g>
<g id="Layer_12">
</g>
<g id="Layer_13">
</g>
<g id="Layer_14">
</g>
<g id="Layer_15">
</g>
</svg>
