<?xml version="1.0" encoding="utf-8"?>
<!-- Generator: Adobe Illustrator 27.8.1, SVG Export Plug-In . SVG Version: 6.00 Build 0)  -->
<svg version="1.1" xmlns="http://www.w3.org/2000/svg" xmlns:xlink="http://www.w3.org/1999/xlink" x="0px" y="0px"
	 viewBox="0 0 350 230" style="enable-background:new 0 0 350 230;" xml:space="preserve">
<style type="text/css">
	.st0{fill:#009EFF;}
	.st1{fill:#FF8500;}
	.st2{fill:#9B3C00;}
	.st3{fill:#660045;}
	.st4{fill:#00576B;}
	.st5{fill:#564F2C;}
	.st6{fill:#FFA354;}
	.st7{fill:#002760;}
	.st8{fill:#4C0037;}
	.st9{fill:#7C0B00;}
	.st10{fill:#144703;}
	.st11{fill:#2C6DC9;}
	.st12{fill:#3B243C;}
	.st13{fill:#001EA4;}
	.st14{fill:#8D5300;}
	.st15{fill:#30A976;}
	.st16{fill:#A02400;}
	.st17{fill:#0092FF;}
	.st18{fill:#60086C;}
	.st19{fill:#520013;}
	.st20{fill:#00AB7B;}
</style>
<g id="Layer_1">
</g>
<g id="Layer_2">
</g>
<g id="Layer_3">
</g>
<g id="Layer_4">
</g>
<g id="Layer_5">
</g>
<g id="Layer_6">
</g>
<g id="Layer_7">
</g>
<g id="Layer_8">
</g>
<g id="Layer_9">
</g>
<g id="Layer_10">
</g>
<g id="Layer_11">
</g>
<g id="Layer_12">
</g>
<g id="Layer_13">
	<g>
		<path class="st16" d="M186.77,112.71c-1.7,5.95-1.69,12.19,0.18,18.62c-1.33,0-2.77,0.07-4.19-0.05
			c-0.42-0.03-0.95-0.54-1.14-0.97c-0.5-1.12-1.02-2.29-1.18-3.48c-0.17-1.3-0.75-1.51-1.91-1.51c-7.96,0.04-15.92-0.06-23.88,0.08
			c-2.12,0.04-3.64-0.55-4.91-2.15c-0.68-0.86-1.49-1.62-2.46-2.66c11.05-0.03,21.83-0.04,32.6-0.4c0.01-0.18,0.02-0.36,0.04-0.54
			c-0.42-0.05-0.84-0.15-1.26-0.15c-12.24,0.16-24.49,0.34-36.73,0.51c-1.78,0.02-2.45-0.34-2.89-2.05c-0.6-2.32-0.53-4.6,0.12-7.01
			c0.65-2.43,0.68-5.04,0.84-7.58c0.12-2.02,0.02-4.05,0.3-6.09c0.14,2.04,0.32,4.07,0.39,6.11c0.03,0.97,0.24,1.75,0.97,2.47
			c1.1,1.09,1.34,2,1.24,3.48c-0.74,0.12-1.86-0.03-2.17,0.41c-0.61,0.85-0.77,2.02-1.18,3.27c2.04,0.09,3.92,0.17,5.81,0.25
			c-0.68,2.16-1.72,3.19-2.76,3.22c0.45-0.59,1.06-1.41,1.9-2.52c-1.79,0-3.15,0-4.51,0c-0.24,2.58,1.25,4.46,3.67,4.44
			c11.4-0.1,22.81-0.24,34.21-0.43c2.35-0.04,2.57-0.38,2.56-3.05c-0.15,0.29-0.3,0.57-0.45,0.86c-0.08-0.04-0.16-0.08-0.23-0.12
			c0.18-0.69,0.36-1.37,0.6-2.32c-2.09,0.14-4.03,0.27-5.99,0.41c0.27,1.66,0.27,1.66,3.93,1.97c-3.66,0.59-4.58,0.16-5.6-2.66
			c2.34-0.2,4.66-0.45,6.98-0.57c1.13-0.06,1.72-0.29,1.88-1.6c0.22-1.83,0.73-3.63,1.21-5.42c0.42-1.56,1.31-2.82,3.04-3.73
			c-2.36,3-3.67,6.93-3.53,10.27c0.89,0.25,1.2-0.09,1.33-1.01c0.21-1.44,0.51-2.87,0.94-4.26c0.74-2.39,2-4.35,4.93-4.69
			c-0.15-3.59-0.3-7.09-0.46-10.9c-1.48,0.73-2.65,1.44-3.9,1.89c-3.47,1.27-5.97,3.36-6.82,7.14c-0.2,0.91-0.77,1.73-1.33,2.53
			c0.78-2.32,1.56-4.65,2.38-7.08c-9.75,0-19.35,0-25.93,0c4.76-0.17,12.54-0.59,20.32-0.67c4.59-0.05,8.64-1.5,12.49-3.74
			c0.38-0.22,0.7-0.89,0.71-1.36c0.08-2.07,0.03-4.15,0.11-6.23c0.2,2.23,0.4,4.46,0.6,6.7c0.16,0.05,0.33,0.1,0.49,0.15
			c0.25-0.45,0.72-0.91,0.7-1.36c-0.11-2.78-0.22-5.57-0.53-8.33c-0.28-2.52-1.77-4.28-4.25-4.87c-2.09-0.5-4.27-0.98-6.39-0.92
			c-9.28,0.23-18.55,0.65-27.82,1.04c-1.57,0.07-3.12,0.36-4.71,0.55c0.09-2.16,0.84-2.98,2.8-3.12c4.98-0.36,9.96-0.77,14.95-1.02
			c7.72-0.38,15.46-0.6,23.18-0.99c3.4-0.17,5.61,1.49,7.27,4.17c0.38,0.61,0.64,1.39,0.67,2.11c0.34,6.44,0.64,12.89,0.92,19.33
			c0.1,2.38,0.12,4.77,0.16,7.16c0.01,0.39-0.04,0.78-0.07,1.21c-1.23-0.11-2.38-0.18-3.51-0.31c-1.31-0.15-2.44,0.25-3.08,1.38
			c-0.81,1.44-1.47,2.98-2.08,4.52C186.21,111.38,186.54,111.9,186.77,112.71z M211.15,96.76c-3.28-0.9-6.53-1.9-9.79-2.86
			c-0.45-0.13-0.89-0.3-1.33-0.46c0.03-0.09,0.06-0.17,0.1-0.26c4.01,0.79,8.03,1.57,12.03,2.35c0.41-0.99,0.07-1.41-0.76-1.7
			c-2.63-0.92-5.23-1.89-7.84-2.85c-1.18-0.43-2.35-0.88-3.52-1.32c0.03-0.09,0.06-0.19,0.09-0.28c4.02,1.07,8.03,2.14,12.07,3.21
			c0.3-2.27,0.29-2.26-1.61-2.91c-3.39-1.15-6.77-2.31-10.16-3.46c-1.53-0.52-3.07-1.02-4.69-1.55c-0.04,0.42-0.09,0.68-0.09,0.94
			c0.15,6.28,0.34,12.55,0.45,18.83c0.02,1.05,0.45,1.36,1.36,1.48c2.71,0.37,5.48,0.58,8.11,1.26c2.54,0.65,4.45,0.08,6.08-1.84
			c0.06-0.07,0.16-0.1,0.2-0.18c0.2-0.39,0.39-0.79,0.67-1.35c-4.32-0.79-8.37-1.53-12.43-2.27c0.02-0.11,0.03-0.22,0.05-0.34
			c4.01,0.33,8.03,0.66,12.01,0.99c0.47-1.33,0.1-2-1.22-2.2c-1.22-0.19-2.41-0.53-3.62-0.82c-2.38-0.56-4.76-1.13-7.14-1.69
			c0.02-0.11,0.04-0.23,0.06-0.34c3.95,0.54,7.9,1.09,11.92,1.64C212.61,97.59,212.25,97.07,211.15,96.76z M142.91,101.87
			c0.19,1.36,1,1.6,2.23,1.56c2.82-0.1,5.65-0.07,8.48-0.1c6.71-0.07,13.43-0.14,20.14-0.26c0.43-0.01,1.07-0.27,1.23-0.6
			c0.4-0.82,0.57-1.74,0.8-2.5c-11.13,0-22.2,0-33.5,0C142.59,100.87,142.84,101.36,142.91,101.87z M156.73,92.92
			c4.2,0,8.4,0.1,12.59-0.03c2.77-0.09,5.54-0.48,8.31-0.77c1.25-0.13,1.93-0.66,1.89-2.14c-0.1-3.53-0.01-7.07-0.01-10.61
			c0.01-2.32-0.78-2.99-3.17-2.87c-5.21,0.25-10.42,0.46-15.63,0.68c-5.52,0.24-11.03,0.51-16.55,0.69c-1.42,0.05-1.92,0.69-2.06,2
			c-0.37,3.65-0.79,7.29-1.22,10.93c-0.21,1.8-0.03,2.21,1.79,2.24c4.68,0.08,9.36,0.03,14.05,0.03
			C156.72,93.01,156.73,92.97,156.73,92.92z M145.2,92.31c-0.66,0-1.33-0.06-1.98-0.16c-0.87-0.14-1.3-0.63-1.18-1.58
			c0.42-3.37,0.83-6.75,1.2-10.13c0.14-1.27,0.73-1.88,2.04-1.92c3.53-0.11,7.06-0.28,10.6-0.42c6.09-0.24,12.18-0.48,18.28-0.72
			c0.49-0.02,0.97-0.05,1.46-0.04c2.07,0.03,2.69,0.65,2.68,2.7c-0.01,3.14-0.06,6.28-0.03,9.41c0.01,1.08-0.35,1.71-1.44,1.81
			c-3.51,0.32-7.03,0.72-10.55,0.9c-2.86,0.15-5.74,0.03-8.62,0.03c0,0.04,0,0.08,0,0.13C153.51,92.32,149.35,92.33,145.2,92.31z
			 M144.44,106.54c0.12,1.53,0.92,1.8,2.37,1.74c5.21-0.21,10.42-0.25,15.64-0.34c3.31-0.06,6.63-0.07,9.94-0.15
			c0.4-0.01,1.03-0.24,1.16-0.54c0.36-0.81,0.51-1.72,0.72-2.47c-10.12,0-20.09,0-30.25,0C144.22,105.6,144.41,106.06,144.44,106.54
			z M143.3,129.07c1.07,2.65,3.64,3.81,6.28,3c1.85-0.57,3.55-3.74,3.18-5.93c-2.23-0.31-3-2.57-4.96-3.67
			c0.42,2.42-0.28,4.96,2.25,6.56c-1.14,0.68-1.76-0.14-2.06-0.88c-0.46-1.12-0.78-2.35-0.91-3.56c-0.44-4.06-0.4-4.07-4.53-3.75
			c-0.08,0.01-0.16,0.06-0.43,0.16C142.17,123.75,142.26,126.5,143.3,129.07z M194.63,113.76c-1.09-0.09-1.7,0.42-1.92,1.38
			c-0.33,1.41-0.69,2.83-0.83,4.27c-0.3,3.18-0.22,6.36,0.79,9.43c0.2,0.61,0.84,1.39,1.39,1.49c1.21,0.23,2.49,0.07,3.76,0.07
			c-1.89-5.6-1.88-11.04-0.02-16.63C196.72,113.78,195.67,113.84,194.63,113.76z M145.44,109.35c0.43,2.76,0.43,2.74,2.79,2.71
			c7.2-0.1,14.39-0.2,21.59-0.28c2.35-0.03,2.46-0.1,2.98-2.42C163.69,109.35,154.59,109.35,145.44,109.35z M171.16,130.52
			c0.23-0.11,0.61-0.11,0.83,0c4.42,2.15,6.49-0.91,6.79-4.43c-4.9,0-9.79,0-14.78,0C164.48,130.41,167.51,132.23,171.16,130.52z
			 M202.21,113.89c-3.45-0.29-3.58-0.49-4.32,3.04c-0.7,3.31-0.63,6.66-0.06,10c0.57,3.35,0.91,3.63,4.26,3.45
			c0.04,0,0.08-0.03,0.14-0.06C200.93,124.78,200.91,119.34,202.21,113.89z M183.97,90.57c1.32-0.58,1.93-1.51,1.87-3
			c-0.09-2.43-0.03-4.86-0.04-7.28c-0.01-2.32-0.02-2.32-2.27-2.92c-0.21-0.06-0.42-0.12-0.64-0.17c-0.88-0.2-1.37,0.12-1.38,1.05
			c0,4.41,0,8.81,0,13.52C182.56,91.25,183.25,90.88,183.97,90.57z M167.41,114.49c-5.87,0.15-11.74,0.06-17.62,0.06
			c-1.87,0-2.21,0.3-2.63,2.31c7.86,0,15.71,0,23.81,0C170.07,115.36,169.27,114.45,167.41,114.49z M189.58,114.03
			c-0.12-0.67-0.77-1.25-1.17-1.87c-0.4,0.64-0.97,1.23-1.16,1.93c-0.95,3.67-0.99,7.42-0.66,11.17c0.14,1.57,0.47,3.13,0.85,4.67
			c0.13,0.51,0.67,0.92,1.02,1.38c0.34-0.47,0.73-0.93,1.02-1.43c0.17-0.29,0.24-0.67,0.28-1.01c0.29-2.36,0.56-4.72,0.86-7.3
			C190.31,119.16,190.03,116.58,189.58,114.03z M189.09,116.55c1.41,1.26,1.48,8.57,0.1,10.35
			C187.86,125.37,187.79,118.53,189.09,116.55z M136.06,86.36c-0.8,0.01-1.2,0.41-1.19,1.24c0.02,2.38-0.03,4.76,0.05,7.14
			c0.01,0.38,0.49,0.98,0.86,1.07c1.04,0.27,2.14,0.34,3.48,0.53c0-3.37,0-6.56,0-9.99C138.25,86.36,137.15,86.35,136.06,86.36z
			 M180.25,108.85c0.33-0.06,0.77-0.52,0.82-0.85c0.24-1.64,0.37-3.3,0.54-4.97c-3.42-0.03-5.75,2.36-6.29,6.57
			C177.06,109.34,178.66,109.15,180.25,108.85z M208.76,111.3c0.02-0.2,0.05-0.39,0.07-0.59c-0.48-0.1-0.95-0.24-1.43-0.3
			c-5.82-0.64-11.65-1.25-17.48-1.92c-1.21-0.14-1.55,0.43-1.64,1.64C195.2,110.54,201.98,110.92,208.76,111.3z M203.3,130.25
			c1.85-2.08,1.88-13.87-0.02-16.46C201.41,116.47,201.47,128.26,203.3,130.25z M203.84,117.69c0.84,2.92,0.84,5.84-0.02,8.75
			C202.92,123.52,202.86,120.6,203.84,117.69z M204.83,129.87c0.54,0,0.97,0,1.4,0c0.47,0,0.94,0,1.41,0
			c-1.25-5.15-1.24-10.19-0.03-15.25c-1,0-1.96,0-2.99,0C206,119.69,205.97,124.7,204.83,129.87z M208.59,114.66
			c-1.69,2.47-1.66,12.86,0.12,15.23C210.55,127.1,210.42,116.24,208.59,114.66z M209.4,126.34c-1.14-1.36-1.19-6.65-0.01-8.5
			C209.98,120.86,210.04,123.51,209.4,126.34z M189.17,111.71c0.49,0.4,0.97,1.12,1.46,1.14c5.83,0.15,11.66,0.19,17.49,0.25
			c0.24,0,0.48-0.19,0.72-0.29c-0.01-0.15-0.03-0.3-0.04-0.45c-6.47-0.32-12.95-0.64-19.42-0.96
			C189.32,111.5,189.24,111.6,189.17,111.71z M189.91,107.04c6.28,0.7,12.54,1.63,18.88,1.85c-1.04-0.47-2.13-0.63-3.22-0.79
			c-4.49-0.66-8.98-1.35-13.49-1.95c-0.72-0.1-1.49,0.18-2.24,0.29C189.87,106.64,189.89,106.84,189.91,107.04z"/>
		<path class="st17" d="M117.47,112.48c5.18,8.38,10.46,16.7,15.46,25.18c1.45,2.45,2.95,3.37,5.86,3.35
			c24.76-0.14,49.52-0.09,74.28-0.05c1.35,0,2.12-0.41,2.83-1.57c5.43-8.85,10.92-17.66,16.4-26.48c0.14-0.22,0.28-0.44,0.59-0.58
			c-1.35,3.02-2.7,6.05-4.05,9.07c-3.04,6.82-6.08,13.63-9.11,20.45c-1.24,2.8-3.35,4.18-6.44,4.18c-25.6-0.02-51.2-0.01-76.8-0.01
			c-2.78,0-4.91-1.17-6.05-3.73c-4.38-9.8-8.7-19.62-13.04-29.44c-0.05-0.11-0.07-0.23-0.1-0.35
			C117.36,112.5,117.41,112.49,117.47,112.48z M216.71,134.89c0.14-0.22,0.29-0.43,0.43-0.66c5.2-8.42,10.37-16.86,15.6-25.26
			c2.64-4.24,2.93-8.58,0.95-13.14c-3.97-9.16-7.92-18.32-11.87-27.49c-0.59-1.36-1.19-2.71-1.79-4.07
			c-0.13,0.19-0.13,0.33-0.1,0.45c2.52,10.29,4.97,20.6,7.6,30.87c0.62,2.42,0.5,4.57-0.29,6.93c-3.64,10.74-7.13,21.53-10.68,32.3
			C216.6,134.85,216.66,134.87,216.71,134.89z M133.28,134.63c-0.11-0.41-0.21-0.83-0.35-1.23c-3.63-11.02-7.28-22.04-10.86-33.08
			c-0.25-0.77-0.26-1.75-0.04-2.53c2.43-8.71,4.93-17.41,7.41-26.11c0.67-2.37,1.33-4.74,2.08-7.44c-0.31,0.36-0.38,0.41-0.42,0.49
			c-4.95,10.55-9.94,21.08-14.83,31.66c-1.93,4.17-1.63,8.35,0.78,12.29c3.75,6.14,7.55,12.26,11.32,18.39
			c1.57,2.55,3.15,5.1,4.72,7.64C133.17,134.68,133.22,134.66,133.28,134.63z M174,45.63c-0.23,0.92-0.67,1.33-1.66,1.25
			c-0.97-0.08-1.95-0.02-2.92-0.02c0.67,0.83,1.34,1.41,2.09,1.86c0.94,0.56,1.27,1.18,0.77,2.26c-0.41,0.86-0.61,1.83-1.01,3.09
			c1.11-0.81,1.93-1.33,2.66-1.96c0.75-0.65,1.37-0.73,2.17-0.05c0.77,0.67,1.65,1.2,2.76,1.99c-0.46-1.39-0.78-2.44-1.16-3.46
			c-0.25-0.68-0.13-1.16,0.49-1.57c0.9-0.6,1.75-1.27,2.62-1.9c-1.18-0.25-2.28-0.16-3.35-0.29c-0.43-0.05-1-0.47-1.19-0.87
			c-0.47-1.04-0.76-2.15-1.22-3.53C174.62,43.71,174.24,44.65,174,45.63z M183.81,48.25c3.1,0.69,4.36-0.72,4.54-3.43
			c0.24,0.11,0.35,0.14,0.36,0.17c0.4,2.56,1.61,4.01,4.74,2.96c-0.33,0.44-0.38,0.58-0.47,0.62c-2,1-2.89,2.4-1.63,4.57
			c0.07,0.12-0.01,0.32-0.05,0.86c-1.94-2.53-3.78-2.16-5.5-0.03c-0.11-0.26-0.18-0.36-0.16-0.4
			C186.85,51.3,186.55,49.5,183.81,48.25z M156.78,48.34c1.35-0.16,2.73,0.06,3.49-0.52c0.73-0.56,0.83-1.95,1.2-2.99
			c0.09,0.05,0.14,0.07,0.15,0.09c0.46,2.45,1.5,4.14,4.63,3.06c-0.02,0.15-0.04,0.3-0.06,0.45c-0.49,0.36-0.95,0.79-1.49,1.08
			c-1.03,0.55-1.35,1.24-0.8,2.34c0.29,0.57,0.39,1.23,0.68,2.17c-0.86-0.61-1.5-0.99-2.04-1.48c-0.73-0.66-1.34-0.63-2.05,0.01
			c-0.52,0.47-1.13,0.83-2,1.46c0.29-0.98,0.42-1.68,0.71-2.31c0.44-0.95,0.23-1.56-0.68-2.06
			C157.96,49.33,157.47,48.86,156.78,48.34z M202.77,49.62c-1.88,1.69-1.88,1.69-1.37,4.22c-0.76-0.47-1.44-1.23-2.13-1.23
			c-0.7,0-1.39,0.75-2.53,1.43c1.35-2.1,0.9-3.41-1.11-4.33c2.16,0.31,3.41-0.43,3.61-2.71C199.54,49.19,200.61,50.13,202.77,49.62z
			 M148.69,53.65c1.09-1.87,0.33-3.03-1.43-3.96c2,0.27,3.31-0.27,3.56-2.54c0.37,2.1,1.49,2.9,3.59,2.52
			c-1.89,1.02-2.54,2.3-0.97,4.38C150.79,52.61,150.79,52.61,148.69,53.65z"/>
	</g>
</g>
<g id="Layer_14">
</g>
<g id="Layer_15">
</g>
</svg>
