<?xml version="1.0" encoding="utf-8"?>
<!-- Generator: Adobe Illustrator 27.8.1, SVG Export Plug-In . SVG Version: 6.00 Build 0)  -->
<svg version="1.1" xmlns="http://www.w3.org/2000/svg" xmlns:xlink="http://www.w3.org/1999/xlink" x="0px" y="0px"
	 viewBox="0 0 350 230" style="enable-background:new 0 0 350 230;" xml:space="preserve">
<style type="text/css">
	.st0{fill:#009EFF;}
	.st1{fill:#FF8500;}
	.st2{fill:#9B3C00;}
	.st3{fill:#660045;}
	.st4{fill:#00576B;}
	.st5{fill:#564F2C;}
	.st6{fill:#FFA354;}
	.st7{fill:#002760;}
	.st8{fill:#4C0037;}
	.st9{fill:#7C0B00;}
	.st10{fill:#144703;}
	.st11{fill:#2C6DC9;}
	.st12{fill:#3B243C;}
	.st13{fill:#001EA4;}
	.st14{fill:#8D5300;}
	.st15{fill:#30A976;}
	.st16{fill:#A02400;}
	.st17{fill:#0092FF;}
	.st18{fill:#60086C;}
	.st19{fill:#520013;}
	.st20{fill:#00AB7B;}
</style>
<g id="Layer_1">
</g>
<g id="Layer_2">
</g>
<g id="Layer_3">
</g>
<g id="Layer_4">
</g>
<g id="Layer_5">
</g>
<g id="Layer_6">
</g>
<g id="Layer_7">
</g>
<g id="Layer_8">
</g>
<g id="Layer_9">
</g>
<g id="Layer_10">
</g>
<g id="Layer_11">
</g>
<g id="Layer_12">
</g>
<g id="Layer_13">
</g>
<g id="Layer_14">
	<g>
		<path class="st18" d="M225.39,50.54c-0.64,1-1.19,1.87-1.75,2.73c-3.86,6.02-7.75,12.03-11.59,18.07
			c-4.61,7.25-9.22,14.5-13.78,21.78c-5.79,9.25-11.53,18.54-17.28,27.82c-0.27,0.43-0.54,0.6-1.05,0.6
			c-3.8-0.02-7.6-0.01-11.48-0.01c0.08-0.16,0.12-0.3,0.2-0.43c5.32-8.41,10.63-16.81,15.95-25.22c4.77-7.53,9.53-15.07,14.31-22.6
			c3.13-4.93,6.28-9.85,9.44-14.76c0.27-0.42,0.71-0.8,1.16-1.01c2.1-0.98,4.23-1.92,6.37-2.84c0.69-0.3,1.45-0.47,2.14-0.78
			c0.87-0.39,1.69-0.9,2.56-1.31c1.34-0.62,2.69-1.2,4.05-1.79C224.83,50.71,225.04,50.66,225.39,50.54z M144.29,125.07
			c3.64,4.04,7.65,7.6,12.55,10.08c7.03,3.57,14.49,4.97,22.29,4.04c10.51-1.25,19.08-6.35,26.37-13.82
			c0.14-0.15,0.26-0.32,0.48-0.59c-3.04,0-5.91,0-8.78,0.01c-0.18,0-0.38,0.12-0.53,0.24c-0.56,0.44-1.08,0.92-1.64,1.34
			c-5.24,3.95-11.1,6.38-17.67,6.85c-9.05,0.65-17.1-1.87-24-7.83c-0.6-0.52-1.16-0.71-1.94-0.7c-2.42,0.05-4.85,0.02-7.4,0.02
			C144.15,124.89,144.21,124.99,144.29,125.07z M137.96,79.06c2.18,0,4.37,0.01,6.55-0.01c0.21,0,0.49-0.18,0.63-0.36
			c0.67-0.86,1.28-1.77,1.97-2.62c5.01-6.26,11.4-10.41,19.2-12.28c6.15-1.48,12.31-1.34,18.42,0.33c1.1,0.3,1.14,0.32,1.66-0.72
			c0.58-1.13,1.38-1.96,2.55-2.47c0.71-0.31,1.37-0.74,2.19-1.18c-10.89-4.35-21.65-4.6-32.37-0.18
			c-9.37,3.87-16.28,10.47-21.08,19.41C137.84,79.04,137.9,79.06,137.96,79.06z M181.85,79.02c2.87,0.01,5.74,0.01,8.61,0.04
			c0.55,0.01,0.87-0.17,1.17-0.64c3.92-6.2,7.85-12.39,11.78-18.58c0.65-1.03,1.3-2.07,2.04-3.24c-0.33,0.12-0.5,0.17-0.65,0.25
			c-4.62,2.31-9.25,4.63-13.87,6.96c-0.36,0.18-0.73,0.47-0.95,0.81c-2.87,4.49-5.72,9-8.57,13.51c-0.15,0.24-0.27,0.49-0.47,0.85
			C181.33,78.99,181.59,79.02,181.85,79.02z"/>
		<path class="st19" d="M105.56,121.37c2.35-0.26,4.7-0.52,7.04-0.78c6.51-0.72,13.02-1.44,19.54-2.14
			c6.43-0.69,12.86-1.4,19.31-1.99c3.89-0.36,7.44-1.45,10.49-3.95c0.23-0.19,0.46-0.38,0.83-0.7c-1.39-0.26-2.61-0.52-3.84-0.7
			c-3.54-0.52-7.11-0.34-10.66-0.22c-2.69,0.09-5.1-0.54-7.43-1.81c-1.47-0.8-3.01-1.46-4.62-2.23c10.61-0.08,21.04-1.3,31.52-1.89
			c-0.2-0.02-0.39-0.04-0.59-0.05c-9.11-0.47-18.22-0.96-27.33-1.38c-2.8-0.13-5.41-0.84-7.96-1.94c-1.89-0.81-3.81-1.58-5.71-2.37
			c-0.05-0.02-0.08-0.06-0.21-0.17c15.74-0.69,31.38-1.37,47.03-2.06c0.01-0.04,0.01-0.08,0.02-0.12c-0.16-0.02-0.31-0.06-0.47-0.06
			c-10.33-0.3-20.66-0.6-30.99-0.89c-3.76-0.1-7.52-0.17-11.28-0.23c-2.02-0.03-4-0.29-5.9-0.96c-2.84-1-5.66-2.05-8.49-3.08
			c-0.26-0.1-0.51-0.23-0.75-0.47c20.71-0.81,41.42-1.63,62.12-2.44c0-0.05,0-0.1,0-0.15c-0.83,0-1.66,0.01-2.49,0
			c-15.79-0.19-31.59-0.38-47.38-0.58c-2.97-0.04-5.95-0.05-8.92-0.12c-0.66-0.02-1.34-0.12-1.96-0.34
			c-3.98-1.42-7.88-3.04-11.64-5.05c28.02,0,56.04,0,84.14,0c-0.27,0.44-0.5,0.83-0.75,1.22c-7.8,12.34-15.61,24.67-23.39,37.02
			c-0.43,0.68-0.9,0.85-1.62,0.84c-2.47-0.06-4.93-0.1-7.4-0.1c-9.1-0.01-18.2,0-27.3,0.01c-7.42,0.01-14.84,0.03-22.27,0.05
			c-0.23,0-0.46,0-0.69,0C105.56,121.47,105.56,121.42,105.56,121.37z M236.56,94.7c-1.26-1.21-2.48-2.47-3.81-3.6
			c-2.24-1.91-4.87-2.98-7.82-3.04c-3.92-0.08-7.85-0.05-11.77-0.05c-1.03,0-1.79,0.6-2.05,1.64c-0.15,0.62-0.2,1.28-0.21,1.92
			c-0.16,7.34-0.3,14.68-0.45,22.02c-0.02,0.83-0.08,1.66-0.13,2.5c-0.09-0.18-0.11-0.36-0.12-0.54c-0.2-8.37-0.41-16.74-0.59-25.11
			c-0.01-0.56,0.03-1.14,0.14-1.69c0.35-1.79,1.6-2.87,3.42-2.91c1.39-0.03,2.79,0.01,4.18,0.02c0.31,0,0.63,0,1.04,0
			c-1.68-3.49-3.31-6.88-5-10.4c-9.62,15.42-19.15,30.68-28.7,45.98c10.63,0,21.15,0,31.66,0c1.07-5.86,5.2-7.85,8.41-8.04
			c1.92-0.12,3.69,0.38,5.3,1.42c2.4,1.54,3.61,3.84,4.02,6.65c1.81,0,3.57,0,5.33,0c0.24,0,0.49-0.01,0.73-0.03
			c0.24-0.02,0.49-0.04,0.72-0.1c2.44-0.61,4.22-2.64,4.28-6.09c-0.24,0-0.47,0-0.71,0c-0.79,0-1.58,0.03-2.36-0.01
			c-0.75-0.04-1.3-0.46-1.57-1.15c-0.26-0.66-0.07-1.27,0.35-1.82c0.37-0.48,0.88-0.6,1.45-0.6c0.94,0.01,1.89,0,2.84,0
			c0-0.21,0.01-0.37,0-0.53c-0.15-2.52-0.75-4.95-1.6-7.32c-0.16-0.45-0.36-0.61-0.85-0.61c-6.75,0.01-13.51-0.02-20.26-0.03
			c-0.24,0-0.47,0-0.76,0c-0.16-2.8-0.32-5.53-0.48-8.33c5.15,0,10.21,0,15.27,0C236.5,94.8,236.53,94.75,236.56,94.7z
			 M218.37,122.19c0.01,3.8,3.09,6.79,7,6.79c3.73,0,6.71-3.05,6.71-6.86c0-3.82-3-6.83-6.8-6.82
			C221.46,115.3,218.36,118.4,218.37,122.19z"/>
	</g>
</g>
<g id="Layer_15">
</g>
</svg>
