<?xml version="1.0" encoding="utf-8"?>
<!-- Generator: Adobe Illustrator 27.8.1, SVG Export Plug-In . SVG Version: 6.00 Build 0)  -->
<svg version="1.1" xmlns="http://www.w3.org/2000/svg" xmlns:xlink="http://www.w3.org/1999/xlink" x="0px" y="0px"
	 viewBox="0 0 350 230" style="enable-background:new 0 0 350 230;" xml:space="preserve">
<style type="text/css">
	.st0{fill:#009EFF;}
	.st1{fill:#FF8500;}
	.st2{fill:#9B3C00;}
	.st3{fill:#660045;}
	.st4{fill:#00576B;}
	.st5{fill:#564F2C;}
	.st6{fill:#FFA354;}
	.st7{fill:#002760;}
	.st8{fill:#4C0037;}
	.st9{fill:#7C0B00;}
	.st10{fill:#144703;}
	.st11{fill:#2C6DC9;}
	.st12{fill:#3B243C;}
	.st13{fill:#001EA4;}
	.st14{fill:#8D5300;}
	.st15{fill:#30A976;}
	.st16{fill:#A02400;}
	.st17{fill:#0092FF;}
	.st18{fill:#60086C;}
	.st19{fill:#520013;}
	.st20{fill:#00AB7B;}
</style>
<g id="Layer_1">
</g>
<g id="Layer_2">
</g>
<g id="Layer_3">
</g>
<g id="Layer_4">
</g>
<g id="Layer_5">
</g>
<g id="Layer_6">
</g>
<g id="Layer_7">
</g>
<g id="Layer_8">
</g>
<g id="Layer_9">
</g>
<g id="Layer_10">
</g>
<g id="Layer_11">
</g>
<g id="Layer_12">
</g>
<g id="Layer_13">
</g>
<g id="Layer_14">
</g>
<g id="Layer_15">
	<g>
		<path d="M250.78,120.97c-3.24,0-6.49,0.04-9.73-0.01c-36.84-0.53-73.67-1.14-110.51-1.53c-6.87-0.07-13.74,0.71-20.62,1.1
			c-3.55,0.2-7.1,0.43-10.7,0.37c4.67-0.9,9.34-1.85,14.02-2.68c11.17-1.98,22.44-2.54,33.77-2.35c8.74,0.15,17.49,0.03,26.24,0.03
			c0.35,0,0.7-0.03,0.77-0.03c-0.71-1.49-1.75-2.98-2.12-4.61c-0.43-1.88,0.53-3.53,2.11-4.68c2.43-1.77,5.92-1.33,7.75,0.94
			c2.06,2.54,1.56,5.29-1.59,8.24c2.23,0,4.32,0,6.1,0c-0.68-1.33-1.71-2.68-2.04-4.18c-0.54-2.4,1.12-4.82,3.46-5.7
			c2.45-0.92,5.11-0.14,6.59,1.89c0.42,0.58,0.91,1.46,1.45,1.53c1.53,0.2,3.1,0.11,4.64-0.04c0.24-0.02,0.54-1,0.54-1.54
			c0-8.24-0.03-16.48-0.07-24.73c-0.01-3.6,1-4.57,4.56-4.52c3.37,0.05,6.74,0.09,10.1-0.03c2.24-0.08,3.79,0.73,5.05,2.59
			c2.02,2.99,4.15,5.92,6.39,8.76c0.78,0.98,2,1.63,3.06,2.37c1.03,0.72,2.15,1.3,3.15,2.04c1.33,0.98,2,2.37,2.01,4.03
			c0.02,4.17-0.01,8.34,0.03,12.51c0.01,1.17-0.57,1.46-1.59,1.44c-3.57-0.05-7.14-0.04-10.7-0.09c-0.93-0.01-1.5,0.11-1.88,1.17
			c-0.33,0.93-1.18,1.67-1.93,2.68C229.79,116.71,240.4,118.07,250.78,120.97z M203.8,100.77c0,2.41,0.03,4.82-0.01,7.23
			c-0.02,0.92,0.33,1.25,1.23,1.23c1.46-0.04,2.92,0.07,4.37-0.04c0.53-0.04,1.22-0.44,1.49-0.89c2.49-4.14,7.56-4.15,10.18-0.03
			c0.28,0.44,0.97,0.87,1.48,0.89c2.76,0.09,5.52,0,8.29,0.06c1.08,0.02,1.38-0.41,1.36-1.41c-0.04-2.81-0.08-5.63,0.02-8.44
			c0.05-1.64-0.66-2.64-2.03-3.37c-1.82-0.97-3.58-2.03-5.41-2.96c-0.65-0.33-1.41-0.6-2.12-0.61c-5.88-0.08-11.75-0.07-17.63-0.13
			c-0.92-0.01-1.23,0.33-1.22,1.23C203.83,95.95,203.8,98.36,203.8,100.77z M203.7,81.41c0,2.31,0.06,4.45-0.03,6.59
			c-0.05,1.17,0.38,1.43,1.47,1.43c5.41-0.02,10.83,0.04,16.24,0.06c0.43,0,0.85-0.06,1.5-0.11c-1.2-1.69-2.46-3.1-3.28-4.72
			c-1.39-2.74-3.41-3.58-6.4-3.31C210.13,81.63,207.02,81.41,203.7,81.41z M212.69,115.85c-0.72-1.1-1.35-2.15-2.08-3.12
			c-0.21-0.28-0.74-0.46-1.12-0.46c-4.41-0.03-8.83-0.03-13.24,0c-0.39,0-0.93,0.17-1.14,0.45c-0.71,0.98-1.31,2.05-1.98,3.13
			C199.67,115.85,206.22,115.85,212.69,115.85z"/>
		<path class="st20" d="M151.64,84.24c-3.25,1.53-6.48,3.13-9.76,4.59c-5.98,2.66-12.09,4.91-18.63,5.77
			c-7.53,0.99-14.82,0.07-21.83-2.89c-0.26-0.11-0.52-0.25-0.73-0.63c1.1,0.1,2.2,0.23,3.3,0.29c10.55,0.56,20.35-2.3,29.48-7.22
			c9.8-5.28,19.3-11.11,28.92-16.72c11.78-6.86,24.12-12.35,37.63-14.79c7.28-1.32,14.62-1.74,22.05-0.71
			c-1.2,0.26-2.39,0.53-3.59,0.77c-12.01,2.4-22.7,7.86-32.93,14.34c-10.05,6.37-19.09,14.02-27.68,22.22
			c-5.25,5.01-10.75,9.65-17.34,12.86c-11.58,5.63-22.58,3.97-33.24-2.49c-0.08-0.05-0.12-0.14-0.09-0.11
			c2.87,0.14,5.83,0.46,8.79,0.4c6.16-0.13,11.96-1.89,17.57-4.35C140.14,92.68,145.91,88.5,151.64,84.24z M135.35,122.82
			c17.67,21.56,55.69,27.95,80.79,0C189.1,122.82,162.27,122.82,135.35,122.82z M169.54,105.3c0.85,0,1.37-0.2,1.74-1.02
			c0.71-1.55,1.54-3.04,2.33-4.55c7.21-13.78,16.56-25.84,28.89-35.45c2.38-1.86,4.89-3.54,7.34-5.31
			c-0.34-0.04-0.61,0.04-0.87,0.16c-6.5,2.83-12.77,6.08-18.73,9.93c-9.8,6.31-18.28,14.25-27.13,21.75
			c-4.44,3.76-8.95,7.45-13.54,11.02c-1.68,1.3-3.68,2.18-5.92,3.47C152.56,105.29,161.05,105.28,169.54,105.3z M219.75,58.31
			c-8.58,4.52-16.15,10.08-23.05,17.04c1.53,0.07,2.77,0.26,3.99,0.16c1.57-0.13,3.12-0.66,4.69-0.71
			c3.36-0.11,6.73-0.03,10.09-0.04c3.5-0.01,6.33,1.28,8.39,4.17c1.43,2,2.9,3.97,4.62,6.32C228.11,75.18,225.23,66.41,219.75,58.31
			z"/>
	</g>
</g>
</svg>
