<?xml version="1.0" encoding="utf-8"?>
<!-- Generator: Adobe Illustrator 27.8.1, SVG Export Plug-In . SVG Version: 6.00 Build 0)  -->
<svg version="1.1" xmlns="http://www.w3.org/2000/svg" xmlns:xlink="http://www.w3.org/1999/xlink" x="0px" y="0px"
	 viewBox="0 0 350 230.71" style="enable-background:new 0 0 350 230.71;" xml:space="preserve">
<style type="text/css">
	.st0{fill:#009EFF;}
	.st1{fill:#FF8500;}
	.st2{fill:#9B3C00;}
	.st3{fill:#660045;}
	.st4{fill:#00576B;}
	.st5{fill:#564F2C;}
	.st6{fill:#FFA354;}
	.st7{fill:#002760;}
	.st8{fill:#4C0037;}
	.st9{fill:#7C0B00;}
	.st10{fill:#144703;}
	.st11{fill:#2C6DC9;}
	.st12{fill:#3B243C;}
	.st13{fill:#001EA4;}
	.st14{fill:#8D5300;}
	.st15{fill:#30A976;}
	.st16{fill:#A02400;}
	.st17{fill:#0092FF;}
	.st18{fill:#60086C;}
	.st19{fill:#520013;}
	.st20{fill:#00AB7B;}
	.st21{fill:#0C0C14;}
	.st22{fill:#FA7B14;}
	.st23{fill:#0870A3;}
	.st24{fill:#999999;}
	.st25{fill:#0D254C;}
	.st26{fill:#9C0505;}
	.st27{fill:#850506;}
	.st28{fill:#A30C11;}
	.st29{fill:#1261A0;}
	.st30{fill:#FFFFFF;}
	.st31{fill:none;}
	.st32{fill:#1A1E2D;}
	.st33{fill:#3AC3B1;}
	.st34{fill:#777777;}
	.st35{fill:#4C0400;}
	.st36{fill:#00484C;}
	.st37{fill:#59D901;}
	.st38{fill:#58CCED;}
	.st39{fill:#CC5500;}
	.st40{fill:#072F5F;}
</style>
<g id="Layer_1">
</g>
<g id="Layer_2">
</g>
<g id="Layer_3">
</g>
<g id="Layer_4">
</g>
<g id="Layer_5">
</g>
<g id="Layer_6">
</g>
<g id="Layer_7">
</g>
<g id="Layer_8">
</g>
<g id="Layer_9">
</g>
<g id="Layer_10">
</g>
<g id="Layer_11">
</g>
<g id="Layer_12">
</g>
<g id="Layer_13">
</g>
<g id="Layer_14">
</g>
<g id="Layer_15">
	<g>
		<g>
			<path class="st24" d="M88.85,114.22c0.84,0,1.64,0.07,2.42-0.02c1.12-0.12,2.27-0.22,3.32-0.57c1.71-0.58,2.53-1.84,2.27-3.1
				c-0.25-1.23-1.99-2.56-3.43-2.58c-1.28-0.02-2.56,0.02-3.85,0.03c-0.32,0-0.65,0-1.1,0c0.13-1.34,0.19-2.61,0.39-3.85
				c0.94-5.82,3.14-11.1,6.92-15.67c2.57-3.1,5.89-4.56,9.88-4.55c5.96,0.01,11.92,0.05,17.89,0.08c0.09,0,0.17,0.03,0.35,0.06
				c0,8.95,0,17.9,0,26.92c13.55,0,27.02,0,40.56,0c0-11.24,0-22.5,0-33.8c-0.17-0.02-0.37-0.07-0.57-0.07
				c-14.16,0.03-28.32,0.05-42.48,0.12c-5.53,0.03-10.9,1.08-16.16,2.75c-0.34,0.11-0.68,0.2-1.11,0.18
				c0.26-0.24,0.52-0.5,0.79-0.73c5.4-4.69,11.66-7.03,18.83-7.01c12.43,0.04,24.86,0.03,37.3,0.03c2.24,0,4.47-0.01,6.71-0.01
				c0.32,0,0.64,0,1.11,0c0,12.95,0,25.81,0,38.72c1,0,1.87,0.04,2.72-0.02c0.29-0.02,0.59-0.26,0.83-0.47
				c13.16-11.48,26.26-23.04,39.49-34.45c13.4-11.57,26.92-23,40.41-34.48c3.01-2.56,6.08-5.06,9.19-7.53
				c-21.96,26.24-43.35,52.96-66.06,78.92c0.48,0,0.75,0,1.02,0c7.69-0.01,15.38,0.05,23.08-0.04c3.36-0.04,6.57,0.73,9.81,1.35
				c10.39,1.98,20.77,4.02,31.15,6.04c0.11,0.02,0.23,0.05,0.35,0.25c-1.31,0.08-2.62,0.22-3.94,0.23
				c-6.05,0.06-12.1,0.11-18.16,0.12c-17.68,0.02-35.36,0.03-53.04,0.03c-21.29-0.01-42.57-0.02-63.86-0.08
				c-1.06,0-1.01,0.62-1.17,1.25c-0.82,3.36-3.44,5.87-6.71,6.41c-3.64,0.6-7.06-0.8-8.8-3.78c-0.65-1.11-0.99-2.4-1.55-3.78
				c-1.66,0-3.53-0.04-5.4,0.01c-4.43,0.1-7.87-2.27-9.34-6.47C88.87,114.54,88.87,114.42,88.85,114.22z M113.48,88.04
				c-0.41,0-0.73,0-1.05,0c-3.07,0.01-6.14,0.07-9.21,0.02c-1.86-0.03-3.29,0.69-4.41,2.11c-1.75,2.23-3.3,4.6-4.43,7.21
				c-0.17,0.4-0.32,0.81-0.49,1.24c6.58,0,13.06,0,19.58,0C113.48,95.07,113.48,91.63,113.48,88.04z M112.41,125.62
				c3.12,0,5.34-2.22,5.35-5.36c0.01-2.95-2.34-5.27-5.39-5.31c-2.82-0.04-5.39,2.5-5.41,5.36
				C106.94,123.3,109.32,125.61,112.41,125.62z"/>
			<path class="st25" d="M217.7,48.79c-15.87,7.82-30.38,17.29-44.4,27.96c0-1.2,0.03-2.09-0.01-2.98c-0.12-3-2.41-5.59-5.41-5.77
				c-2.79-0.17-5.6-0.06-8.4-0.06c-9.9,0.01-19.79,0.02-29.69,0.04c-2.83,0-5.66-0.04-8.49,0.06c-1.26,0.05-2.51,0.4-3.97,0.64
				c9.6-19.88,24.62-32.86,46.44-36.82C184.47,28.12,202.33,34.35,217.7,48.79z M222.57,125.54c-7.51,0-15.02,0.01-22.54,0.01
				c-15.62,0-31.24-0.01-46.86,0.01c-0.42,0-0.93,0.21-1.25,0.49c-4.37,3.88-8.72,7.78-13.07,11.68c-0.23,0.21-0.46,0.43-0.7,0.66
				c24.71,18.88,64.51,15.93,85.53-12.85C223.2,125.54,222.89,125.54,222.57,125.54z"/>
			<path class="st26" d="M168.62,85.34c0,0,33.67-26.81,88.23-50.97l-88.23,74.51V85.34z M117.32,132.25v19.32l29.29-26.25h-22.56
				C122.64,131,117.32,132.25,117.32,132.25z M234.34,93.64c0.11-5.66-0.71-11.21-1.96-16.95c-9.01,10.78-17.81,21.32-26.76,32.02
				c0.57,0,0.87,0,1.16,0c4.56-0.01,9.12-0.03,13.68-0.01c1.13,0.01,2.27,0.1,3.38,0.29c2.58,0.44,5.15,0.95,7.83,1.46
				C233.17,104.87,234.23,99.33,234.34,93.64z"/>
		</g>
	</g>
</g>
</svg>
