<?xml version="1.0" encoding="utf-8"?>
<!-- Generator: Adobe Illustrator 27.8.1, SVG Export Plug-In . SVG Version: 6.00 Build 0)  -->
<svg version="1.1" xmlns="http://www.w3.org/2000/svg" xmlns:xlink="http://www.w3.org/1999/xlink" x="0px" y="0px"
	 viewBox="0 0 350 230.71" style="enable-background:new 0 0 350 230.71;" xml:space="preserve">
<style type="text/css">
	.st0{fill:#009EFF;}
	.st1{fill:#FF8500;}
	.st2{fill:#9B3C00;}
	.st3{fill:#660045;}
	.st4{fill:#00576B;}
	.st5{fill:#564F2C;}
	.st6{fill:#FFA354;}
	.st7{fill:#002760;}
	.st8{fill:#4C0037;}
	.st9{fill:#7C0B00;}
	.st10{fill:#144703;}
	.st11{fill:#2C6DC9;}
	.st12{fill:#3B243C;}
	.st13{fill:#001EA4;}
	.st14{fill:#8D5300;}
	.st15{fill:#30A976;}
	.st16{fill:#A02400;}
	.st17{fill:#0092FF;}
	.st18{fill:#60086C;}
	.st19{fill:#520013;}
	.st20{fill:#00AB7B;}
	.st21{fill:#0C0C14;}
	.st22{fill:#FA7B14;}
	.st23{fill:#0870A3;}
	.st24{fill:#999999;}
	.st25{fill:#0D254C;}
	.st26{fill:#9C0505;}
	.st27{fill:#850506;}
	.st28{fill:#A30C11;}
	.st29{fill:#1261A0;}
	.st30{fill:#FFFFFF;}
	.st31{fill:none;}
	.st32{fill:#1A1E2D;}
	.st33{fill:#3AC3B1;}
	.st34{fill:#777777;}
	.st35{fill:#4C0400;}
	.st36{fill:#00484C;}
	.st37{fill:#59D901;}
	.st38{fill:#58CCED;}
	.st39{fill:#CC5500;}
	.st40{fill:#072F5F;}
</style>
<g id="Layer_1">
</g>
<g id="Layer_2">
</g>
<g id="Layer_3">
</g>
<g id="Layer_4">
</g>
<g id="Layer_5">
</g>
<g id="Layer_6">
</g>
<g id="Layer_7">
</g>
<g id="Layer_8">
</g>
<g id="Layer_9">
</g>
<g id="Layer_10">
</g>
<g id="Layer_11">
</g>
<g id="Layer_12">
</g>
<g id="Layer_13">
</g>
<g id="Layer_14">
</g>
<g id="Layer_15">
	<g>
		<path class="st21" d="M259.52,115.73c-0.22-0.92-1.18-2.13-1.68-2.99c-1.25-2.11-2.41-4.32-3.81-6.35
			c-0.61-0.87-1.28-1.7-2.02-2.45c-1.82-1.83-4.25-3.38-6.78-3.98c-1.05-0.25-2.29-0.13-3.36-0.13h-5.71l-21.97-0.03l-5.16,0.03
			l0.01,24.91l50.52,0.01l0.01-6.5C259.56,117.51,259.68,116.42,259.52,115.73z M242.49,112.69l0.01-8.61l3.95-0.01
			c0.8,0,1.66-0.07,2.44,0.09c1.75,0.4,2.93,2.78,3.83,4.14l2.82,4.41L242.49,112.69z M244.02,126.11c1.95,0.77,3.65,1.63,4.56,3.66
			c0.22,0.51,0.36,1.05,0.49,1.59l18.45,0.01v-5.28L244.02,126.11z M246.77,129.51c-0.82-1.16-2.18-1.98-3.58-2.18
			c-0.49-0.07-1.06-0.06-1.55-0.02c-1.61,0.41-2.94,1.17-3.82,2.63c-0.7,1.16-0.9,2.67-0.53,3.98c0.39,1.39,1.49,2.71,2.77,3.37
			c1.11,0.58,2.16,0.7,3.38,0.57c1.51-0.38,2.82-1.13,3.62-2.5c0.31-0.53,0.53-1.07,0.65-1.68l0.04-0.17
			C248.01,132.09,247.59,130.67,246.77,129.51z M229.31,130.89c-0.39-1.3-1.39-2.41-2.61-3.01c-1.11-0.55-2.24-0.68-3.46-0.57
			c-1.47,0.37-2.8,1.12-3.59,2.46c-0.7,1.19-0.9,2.77-0.55,4.11c0.36,1.39,1.38,2.69,2.63,3.38c1.13,0.62,2.35,0.8,3.62,0.53
			c1.39-0.39,2.68-1.17,3.41-2.45C229.55,133.98,229.78,132.41,229.31,130.89z M235.31,126.07l-9.51,0.04
			c1.93,0.58,3.38,1.37,4.36,3.2c0.37,0.67,0.57,1.37,0.74,2.1l4.89-0.02c0.32-1.29,0.74-2.26,1.58-3.32
			c1.05-0.95,2.06-1.43,3.38-1.9C239.03,125.91,237.07,126.07,235.31,126.07z M172.88,126.03l-3.42,0.02
			c-0.53,0.01-1.17-0.05-1.7,0.04c-0.82,0.15-1.71,0.74-2.45,1.12l-3.81,1.86l-5.43,2.42l49.73-0.12l11.72,0.02
			c0.6-2.03,1.43-3.55,3.35-4.6c0.51-0.29,1.09-0.48,1.63-0.68L172.88,126.03z"/>
		<path class="st22" d="M217.11,55.24c-2.45-2.96-5.14-5.83-8.06-8.33c-8.4-7.23-18.85-12.31-29.77-14.26
			c-4.07-0.73-8.3-1.07-12.44-0.96c-3.62,0.16-7.19,0.48-10.75,1.2c-12.96,2.61-25.44,9.37-34.43,19.09
			c-4.06,4.4-7.73,9.65-10.34,15.04c-1.7,3.52-2.99,7.3-4.02,11.07c-0.4,1.48-0.71,2.98-0.94,4.49c-0.09,0.64-0.05,1.39-0.22,1.99
			l0.12-0.06v-0.2c0-0.23,0.06-0.3,0.14-0.51c0.26-0.71,0.35-1.61,0.54-2.35c0.5-1.83,1.11-3.64,1.82-5.4
			c3.66-9.04,10.23-17.08,17.98-22.95c1.57-1.19,3.27-2.24,4.94-3.28c13.24-8.14,30.16-11.05,45.33-7.43
			c10.84,2.58,20.76,7.64,28.65,15.57c1.39,1.39,2.61,2.84,3.82,4.39c0.39,0.49,0.83,0.96,1.16,1.49c-1.44-1.2-2.66-2.64-4.14-3.8
			c-8.82-6.93-19.39-11.85-30.63-12.97c-13.93-1.42-28.41,2.39-39.35,11.32c-7.38,6.05-12.94,14.2-15.7,23.36
			c-0.48,1.59-1.12,3.41-1.22,5.07l-0.01,0.35c0.99-2.49,2.01-4.88,3.32-7.22c4.99-8.95,12.76-16.23,22.21-20.28
			c11.17-4.79,24.02-4.5,35.19,0.01c3.61,1.47,6.97,3.36,10.16,5.57c1.19,0.82,2.32,1.73,3.42,2.66l1.31,1.12
			c0.05,0.05,0.33,0.32,0.4,0.35c0.25,0.06,1.61-0.38,1.96-0.45l10.66-2.56c4.67-1.19,9.41-2.45,13.87-4.28
			C220.47,59.74,218.91,57.41,217.11,55.24z M201.61,135.28c-1.85,1.78-3.97,3.33-6.05,4.8c-9.19,6.55-19.8,10.34-31.08,11.09
			c-1.83,0.13-3.73,0.08-5.56,0.04c-7.42-0.16-15.23-2.15-22-5.13l-7.35-3.61c1.31,1.2,2.75,2.18,4.24,3.16
			c2.34,1.54,4.75,2.93,7.29,4.11c11.4,5.53,24.26,7.69,36.81,5.63c3.65-0.61,7.26-1.62,10.76-2.85
			c10.02-3.5,18.73-9.71,26.22-17.14L201.61,135.28z M192.68,135.3c-6.98,5.16-14.92,8.93-23.46,10.62
			c-2.17,0.43-4.33,0.57-6.49,0.92c0.96,0.17,1.96,0.1,2.93,0.08l4.9-0.26c8.82-0.9,17.29-3.33,25.04-7.69
			c1.99-1.12,3.77-2.56,5.72-3.69L192.68,135.3z"/>
		<path class="st23" d="M266.07,51.58l-4.46,3.7l-14.22,10.06l-10.06,6.44l-25.28,13.77l-22.11,10.63l-16.01,6.6l-14.97,5.79
			l-39.57,12.6l-23.23,5.93c-4.5,1.04-9.09,2.17-13.68,2.74l15.99,0.38l0.37,0.04c0.47,0.94,0.72,1.98,1.22,2.92
			c2.68,5.05,6.37,8.69,10.75,12.25l37.14-14.2l20.26-9.48l22.53-12.12l24.47-16.03l16.82-11.9l4.06-3.05l24.02-21.07l6.05-5.97
			L266.07,51.58z M263.52,50.7l-12.33,5.92c-11.3,4.9-23.14,8.64-35.02,11.88l-34.35,8.09l-32.47,8
			c-13.88,3.87-28.52,8.03-40.16,16.89c-4.27,3.25-8.18,7.29-9.98,12.46c-0.4,1.14-0.87,2.52-0.95,3.73l0.12,0.12l30.31-7.97
			l25.15-8.09l38.44-13.93l22.89-10.22l16.86-8.27l12.74-7.02l13.65-8.15L261.7,52c0.62-0.4,1.33-0.77,1.89-1.27L263.52,50.7z"/>
	</g>
</g>
</svg>
