<?xml version="1.0" encoding="utf-8"?>
<!-- Generator: Adobe Illustrator 27.8.1, SVG Export Plug-In . SVG Version: 6.00 Build 0)  -->
<svg version="1.1" xmlns="http://www.w3.org/2000/svg" xmlns:xlink="http://www.w3.org/1999/xlink" x="0px" y="0px"
	 viewBox="0 0 350 230" style="enable-background:new 0 0 350 230;" xml:space="preserve">
<style type="text/css">
	.st0{fill:#009EFF;}
	.st1{fill:#FF8500;}
	.st2{fill:#9B3C00;}
	.st3{fill:#660045;}
	.st4{fill:#00576B;}
	.st5{fill:#564F2C;}
	.st6{fill:#FFA354;}
	.st7{fill:#002760;}
	.st8{fill:#4C0037;}
	.st9{fill:#7C0B00;}
	.st10{fill:#144703;}
	.st11{fill:#2C6DC9;}
	.st12{fill:#3B243C;}
	.st13{fill:#001EA4;}
	.st14{fill:#8D5300;}
	.st15{fill:#30A976;}
	.st16{fill:#A02400;}
	.st17{fill:#0092FF;}
	.st18{fill:#60086C;}
	.st19{fill:#520013;}
	.st20{fill:#00AB7B;}
</style>
<g id="Layer_1">
</g>
<g id="Layer_2">
	<path class="st2" d="M235.57,120.81c-7.95-0.06-15.9-0.02-23.85-0.02v-0.07h-16.77c-2.36,0-4.72-0.02-7.09,0.01
		c-2.45,0.03-2.94,0.57-2.69,3.03c0.12,1.22,0.28,2.46,0.57,3.66c0.74,3.02,2.28,4.19,5.41,4.19c8.22,0,16.44-0.03,24.66-0.03
		c6.23,0,12.46,0.03,18.7,0.03c2.88,0,3.69-0.71,4.11-3.58c0.17-1.12,0.31-2.24,0.39-3.36
		C239.26,121.68,238.59,120.83,235.57,120.81z M212.08,63.8c-13.16,0.02-26.33,0.01-39.5,0.02c-0.3,0-0.59,0.04-1.15,0.09
		c1.48,1.89,3.28,2.42,5.34,2.42c13.23-0.01,26.47,0,39.72,0C215.52,64.72,214.12,63.8,212.08,63.8z M173.13,82.03
		c-0.45-3.4-1-6.79-1.54-10.17c-0.37-2.33-0.84-2.76-3.2-3c-0.53-0.06-1.07-0.05-1.61-0.08c-1.34-0.09-2,0.53-1.99,1.88
		c0.01,1.93,0,3.86,0,5.79h0.03c0,0.91,0.02,1.82-0.01,2.73c-0.17,5.21-0.12,5.27,5.09,5.99C172.68,85.55,173.5,84.82,173.13,82.03z
		 M166.02,62.92c-2.12-1.35-4.14-1.13-6.16-1.03c-2.37,0.12-2.4,0.13-2.4,2.51c-0.01,10.2,0,20.41,0,30.61c0,3.36,0,3.36,3.41,3.36
		c2.07-0.01,2.08-0.01,2.08-2.14c-0.02-9.61-0.02-19.22-0.06-28.84C162.88,65.24,163.19,63.39,166.02,62.92z M172.93,45.87
		c-9.35-0.29-18.69-0.51-28.04-0.87c-4.61-0.17-9.02,0.47-13.08,2.71c-3.66,2.02-7.24,4.19-10.85,6.29
		c0.06,0.14,0.12,0.28,0.19,0.42c3.44-1.47,6.98-2.77,10.31-4.45c4.47-2.27,4.59-0.36,4.59,3.07c0.01,15.58,0,31.18,0,46.76
		c0,0.54,0.02,1.08-0.03,1.62c-0.18,2.18-0.75,2.82-2.92,3.15c-5.1,0.77-10.19,1.5-15.3,2.25c-2.58,0.38-5.17,0.77-7.75,1.16
		c0.72,0.07,1.41,0.09,2.11,0.07c7.84-0.24,15.68-0.48,23.52-0.75c1.89-0.06,2.32-0.53,2.35-2.45c0.01-0.53,0-1.07,0-1.61
		c-0.01-16.93-0.03-33.87-0.04-50.8c0-3.24,0.89-4.35,3.71-4.49c7.14-0.36,14.28-0.69,21.41-1.04c4.4-0.21,8.8-0.44,13.18-0.67
		C175.18,46.01,174.05,45.9,172.93,45.87z M207.35,58.95c-12.3,0.06-24.61,0.06-36.92,0c-1.62-0.01-3.23-0.51-4.85-0.78
		c0.03-0.15,0.06-0.3,0.09-0.46h38.23c-1.05-1.72-2.45-2.66-4.5-2.66c-11.19,0.03-22.36-0.02-33.54,0.04
		c-6.12,0.03-12.25,0.23-18.37,0.31c-1.27,0.02-1.76,0.56-1.68,1.77c0.07,1.12,0.49,1.76,1.79,1.72c2.14-0.05,4.31-0.12,6.44,0.1
		c3.94,0.42,7.85,1.05,11.78,1.63c1.31,0.19,2.59,0.73,3.89,0.73c14.06,0.06,28.11,0.03,42.14,0.03
		C210.86,59.91,209.49,58.95,207.35,58.95z M219.39,81.89c-0.77-3.02-1.64-6.01-2.39-9.03c-0.92-3.65-1.92-4.47-5.71-4.47
		c-10.69,0-21.4,0-32.09,0.01c-0.58,0-1.18,0-1.77,0.07c-2.13,0.25-2.63,0.85-2.27,2.97c0.6,3.49,1.27,6.97,1.92,10.45
		c0.48,2.61,1.14,3.17,3.75,3.18c5.91,0.01,11.83,0,17.73,0v-0.01c6.13,0,12.25,0.03,18.38-0.01
		C219.3,85.04,219.96,84.14,219.39,81.89z M235.57,120.81c-7.95-0.06-15.9-0.02-23.85-0.02v-0.07h-16.77
		c-2.36,0-4.72-0.02-7.09,0.01c-2.45,0.03-2.94,0.57-2.69,3.03c0.12,1.22,0.28,2.46,0.57,3.66c0.74,3.02,2.28,4.19,5.41,4.19
		c8.22,0,16.44-0.03,24.66-0.03c6.23,0,12.46,0.03,18.7,0.03c2.88,0,3.69-0.71,4.11-3.58c0.17-1.12,0.31-2.24,0.39-3.36
		C239.26,121.68,238.59,120.83,235.57,120.81z M238.65,102.21c-0.65-3.02-1.47-6.13-3.98-8.09c-2.52-1.95-5.41-3.39-8.14-5.06
		c-0.17,0.19-0.33,0.38-0.5,0.57c0.57,0.39,1.21,0.69,1.66,1.18c0.36,0.38,0.77,1.17,0.61,1.47c-0.24,0.45-0.96,0.86-1.5,0.91
		c-10.4,0.82-20.74,0.49-30.89-2.16c-3.51-0.91-6.95-2.07-10.86-3.25c1.09,0.74,1.83,1.24,2.58,1.74
		c5.67,3.83,9.94,8.85,12.63,15.14c1.78,4.17,2.97,8.53,3.08,13.1c0.04,1.88-0.42,2.26-2.26,2.27c-4.95,0-9.89-0.02-14.84,0.02
		c-1.67,0.01-2.51-0.74-2.94-2.36c-0.46-1.75-1-3.54-1.87-5.11c-2.61-4.63-6.16-4.65-8.93-0.14c-2.97,4.82-3.58,10.16-3.36,15.68
		c0.11,2.7-0.27,3.02-2.88,2.78c-6.9-0.62-13.8-1.22-20.71-1.77c-2.72-0.22-3-0.49-3.08-3.18c-0.12-3.57-0.55-7.09-2.25-10.3
		c-0.58-1.12-0.1-1.53,0.91-1.57c1.83-0.06,3.66-0.02,5.5-0.02c0.01-0.19,0.01-0.38,0.02-0.57c-6.05-0.22-12.1-0.45-18.16-0.61
		c-0.52-0.02-1.07,0.45-1.6,0.7c0.37,0.46,0.68,0.96,1.09,1.37c0.49,0.48,1.27,0.78,1.54,1.35c0.65,1.39,1.34,2.85,1.56,4.35
		c0.62,4.2,0.69,8.35-2.22,11.95c-0.71,0.88-0.21,1.72,1.1,1.76c2.37,0.07,4.7,0.16,6.92,1.08c0.39,0.17,0.84,0.2,1.27,0.21
		c3.54,0.02,7.09,0.09,10.64,0.02c2.27-0.04,3.58-1.06,4.11-3.17c0.35-1.35,1.08-1.67,2.33-1.56c4.39,0.42,8.78,0.81,13.17,1.17
		c1.16,0.1,1.78,0.62,2.22,1.74c0.77,1.99,1.6,4,2.71,5.82c0.55,0.92,1.72,1.97,2.67,2.03c3.79,0.23,7.61,0.2,11.4,0.03
		c1.99-0.08,3.33-1.43,3.99-3.31c0.44-1.27,0.78-2.57,1.09-3.87c0.32-1.42,1.12-2.08,2.61-2.07c5.75,0.05,11.5,0.07,17.26,0.03
		c1.1,0,1.5,0.44,1.68,1.47c0.27,1.53,0.59,3.06,1.05,4.54c0.58,1.9,1.86,3.26,3.91,3.33c3.59,0.12,7.18,0.13,10.76,0.01
		c2.12-0.07,3.42-1.47,4.02-3.42c0.41-1.33,0.73-2.71,0.93-4.08c0.2-1.32,0.64-2.11,2.15-1.87c1.3,0.21,1.87-0.54,2.02-1.72
		c0.21-1.71,0.46-3.41,0.6-5.12C240.14,117.8,240.32,109.96,238.65,102.21z M140.39,131.39c-0.13,0.55-0.5,1.07-0.86,1.53
		c-1.7,2.21-3.38,2.14-4.75-0.3c-2.62-4.66-3.17-9.53-1.03-14.53c0.65-1.51,1.49-3.26,3.46-3.16c1.97,0.1,2.87,1.85,3.35,3.5
		c0.57,1.99,0.79,4.09,1.21,6.41C141.33,126.92,140.9,129.17,140.39,131.39z M180.67,136.56c-0.37,0.97-1.01,1.92-1.74,2.67
		c-2.05,2.13-4.34,1.82-5.82-0.73c-2.21-3.81-3.13-7.96-3.16-12.55c0.12-3.36,0.6-6.85,2.2-10.09c0.84-1.72,1.84-3.51,4.02-3.49
		c2.19,0.02,3.41,1.63,4.21,3.49C183.32,122.7,183.23,129.63,180.67,136.56z M209.89,97.63c6.77-0.07,13.55-0.03,20.32-0.01
		c1.42,0.01,2.6,0.54,3.3,2.25h-24.32c1.02,1.42,2.18,1.44,3.35,1.44c6.45,0.01,12.9,0,19.35,0.02c0.63,0,1.27,0.07,1.98,0.11v2.59
		h-22.85c-0.04,0.22-0.08,0.45-0.12,0.67c0.9,0.22,1.79,0.64,2.69,0.65c6.29,0.06,12.59,0.03,18.87,0.02
		c0.88-0.01,1.52,0.03,1.55,1.24c0.03,1.3-0.53,1.49-1.63,1.48c-6.3-0.02-12.59,0.02-18.87,0.03h-1.78
		c0.92,1.32,2.11,1.33,3.26,1.33c5.32,0.02,10.64-0.06,15.97,0.07c1.07,0.03,3.13-1.17,3.02,1.45c-0.1,2.32-1.95,1.17-2.94,1.19
		c-5.48,0.12-10.97,0.07-16.45,0.07h-1.53c-0.04,0.19-0.07,0.39-0.12,0.59c0.97,0.22,1.92,0.62,2.89,0.64
		c5.32,0.06,10.64,0.02,15.97,0.02c2.41,0,2.41,0.01,2.09,2.66h-19.85c0.87,1.29,1.19,1.45,2.89,1.45
		c4.89,0.01,9.79,0.01,14.68,0.01h2c-0.64,1.62-1.82,1.93-2.98,1.94c-5.65,0.05-11.29,0.06-16.93,0c-1.59-0.02-2.74-0.87-3.17-2.5
		c-1.35-5.03-2.78-10.04-4.04-15.09C205.79,99.23,207.04,97.67,209.89,97.63z"/>
</g>
<g id="Layer_3">
</g>
<g id="Layer_4">
</g>
<g id="Layer_5">
</g>
<g id="Layer_6">
</g>
<g id="Layer_7">
</g>
<g id="Layer_8">
</g>
<g id="Layer_9">
</g>
<g id="Layer_10">
</g>
<g id="Layer_11">
</g>
<g id="Layer_12">
</g>
<g id="Layer_13">
</g>
<g id="Layer_14">
</g>
<g id="Layer_15">
</g>
</svg>
