<?xml version="1.0" encoding="utf-8"?>
<!-- Generator: Adobe Illustrator 27.8.1, SVG Export Plug-In . SVG Version: 6.00 Build 0)  -->
<svg version="1.1" xmlns="http://www.w3.org/2000/svg" xmlns:xlink="http://www.w3.org/1999/xlink" x="0px" y="0px"
	 viewBox="0 0 350 230.71" style="enable-background:new 0 0 350 230.71;" xml:space="preserve">
<style type="text/css">
	.st0{fill:#009EFF;}
	.st1{fill:#FF8500;}
	.st2{fill:#9B3C00;}
	.st3{fill:#660045;}
	.st4{fill:#00576B;}
	.st5{fill:#564F2C;}
	.st6{fill:#FFA354;}
	.st7{fill:#002760;}
	.st8{fill:#4C0037;}
	.st9{fill:#7C0B00;}
	.st10{fill:#144703;}
	.st11{fill:#2C6DC9;}
	.st12{fill:#3B243C;}
	.st13{fill:#001EA4;}
	.st14{fill:#8D5300;}
	.st15{fill:#30A976;}
	.st16{fill:#A02400;}
	.st17{fill:#0092FF;}
	.st18{fill:#60086C;}
	.st19{fill:#520013;}
	.st20{fill:#00AB7B;}
	.st21{fill:#0C0C14;}
	.st22{fill:#FA7B14;}
	.st23{fill:#0870A3;}
	.st24{fill:#999999;}
	.st25{fill:#0D254C;}
	.st26{fill:#9C0505;}
	.st27{fill:#850506;}
	.st28{fill:#A30C11;}
	.st29{fill:#1261A0;}
	.st30{fill:#FFFFFF;}
	.st31{fill:none;}
	.st32{fill:#1A1E2D;}
	.st33{fill:#3AC3B1;}
	.st34{fill:#777777;}
	.st35{fill:#4C0400;}
	.st36{fill:#00484C;}
	.st37{fill:#59D901;}
	.st38{fill:#58CCED;}
	.st39{fill:#CC5500;}
	.st40{fill:#072F5F;}
</style>
<g id="Layer_1">
</g>
<g id="Layer_2">
</g>
<g id="Layer_3">
</g>
<g id="Layer_4">
</g>
<g id="Layer_5">
</g>
<g id="Layer_6">
</g>
<g id="Layer_7">
</g>
<g id="Layer_8">
</g>
<g id="Layer_9">
</g>
<g id="Layer_10">
</g>
<g id="Layer_11">
</g>
<g id="Layer_12">
</g>
<g id="Layer_13">
</g>
<g id="Layer_14">
</g>
<g id="Layer_15">
	<g>
		<g>
			<path class="st36" d="M183.27,56.31c-34.37,0-68.17,0-102.24,0c0-1.91-0.13-3.55,0.03-5.16c0.42-4.25,3.62-6.93,8.27-6.93
				c18.33-0.02,36.65,0,54.98-0.01c15.98,0,31.96-0.01,47.95,0c5.67,0,8.66,2.97,8.67,8.66c0.02,9.81,0,19.63,0,29.44
				c0,0.94,0,1.89,0,3.07c1.41,0.2,2.65,0.39,4.19,0.61c0.05-1.12,0.13-2.04,0.13-2.96c0.01-12.85-0.03-25.71,0.05-38.56
				c0.02-2.54,0.68-5.07,0.74-7.62c0.08-2.88-1.37-5.24-4.11-6.01c-2.7-0.76-2.51-2.25-2.08-4.21c5.1-0.21,9.36,3.41,9.98,8.67
				c0.58,4.93,0.89,9.9,1.34,15.13c0.81,0.04,1.73,0.11,2.65,0.11c9.03,0.01,18.07,0.06,27.1-0.02c4.3-0.04,7.26,1.79,9.2,5.57
				c4.71,9.19,9.54,18.32,14.15,27.56c0.98,1.97,1.34,4.28,1.85,6.46c1.14,4.96,2.2,9.94,3.36,15.21c-3.02-0.68-5.58-1.25-8.61-1.92
				c3.37,3.03,6.3,5.66,9.23,8.3c0.06,0.06,0.13,0.13,0.2,0.16c1.12,0.46,3.06,0.72,3.22,1.41c0.47,1.97,0.47,4.16,0.14,6.18
				c-0.12,0.73-1.63,1.68-2.57,1.75c-3,0.22-6.04,0.08-8.61,0.08c-1.42,3.23-2.67,6.04-4.02,9.12c17.1,6.78,33.6,15.2,45.48,30.57
				c-0.43-0.16-0.89-0.26-1.28-0.49c-17.37-10.31-36.26-16.56-55.85-20.88c-32.31-7.13-65-8.8-97.9-6.11
				c-27.13,2.22-53.67,7.3-78.87,18.01c-6.52,2.77-12.78,6.16-18.96,9.17c1.34-3.72,11.23-12.9,21.12-18.48
				c8.28-4.67,16.95-8.65,25.26-12.84c-0.99-2.59-2.15-5.6-3.43-8.95c-4.01,0-8.4,0-12.94,0c0-9.06,0-17.87,0-26.91
				c1.21,0,2.32,0,3.44,0c19.54,0,39.09-0.07,58.63,0.08c3.06,0.02,4.75-1.33,6.55-3.92c-23.06,0-45.75,0-68.6,0c0-2.5,0-4.7,0-7.22
				c1.14,0,2.15,0,3.17,0c23.1,0,46.21-0.06,69.31,0.07c3.13,0.02,5.29-0.89,7.05-3.84c-26.61,0-53.01,0-79.56,0
				c0-2.56,0-4.77,0-7.33c1,0,1.93,0,2.85,0c26.93,0,53.85-0.06,80.78,0.09c3.17,0.02,5.23-1.06,7.13-3.87c-30.39,0-60.52,0-90.78,0
				c0-2.51,0-4.65,0-7.25c1.29,0,2.55,0,3.8,0c30.49,0,60.97-0.07,91.46,0.08C179.58,60.4,181.13,58.77,183.27,56.31z M224.31,62.05
				c0.75,3.74,1.43,7.21,2.15,10.67c1.1,5.31,4.22,7.86,9.7,7.9c4.95,0.03,9.9,0.01,14.85-0.01c0.63,0,1.26-0.15,2.11-0.25
				c-2.8-5.83-5.43-11.39-8.15-16.91c-0.29-0.59-1.07-1.32-1.64-1.33C237.07,62.01,230.84,62.05,224.31,62.05z M256.65,120.4
				c-0.07-4.47-3.93-8.23-8.41-8.21c-4.47,0.02-8.27,3.86-8.26,8.34c0.01,4.6,3.92,8.41,8.54,8.31
				C253.01,128.75,256.72,124.9,256.65,120.4z M108.41,128.83c4.53-0.04,8.25-3.8,8.22-8.31c-0.03-4.53-3.75-8.29-8.25-8.32
				c-4.58-0.03-8.44,3.88-8.36,8.49C100.09,125.21,103.87,128.87,108.41,128.83z M175.94,108.84c0.04-0.34,0.07-0.67,0.11-1.01
				c-1.02-0.13-2.05-0.39-3.07-0.39c-17.28-0.02-34.57-0.04-51.85,0c-2.7,0.01-5.28-0.01-7.74-1.52c-1.19-0.73-2.81-0.88-4.26-1.02
				c-6.7-0.63-13.64,5.02-13.84,11.17c5.06-12.06,21.02-12.21,26.65-0.22c-1.09-2.26-2.18-4.53-3.38-7.02
				C137.7,108.84,156.82,108.84,175.94,108.84z M167.81,114.41c1.29,1.01,51.8,1.42,54.9,0
				C204.38,114.41,186.06,114.41,167.81,114.41z M261.58,116.53c-0.7-6.49-6.45-11.61-13.12-11.69c-6.76-0.08-12.61,5-13.4,11.64
				C239.76,103.89,256.78,103.7,261.58,116.53z M219.03,119.92c-0.01,0.09-0.01,0.19-0.02,0.28c5.2,1.01,10.4,2.03,15.84,3.08
				c-0.08-1.31-0.14-2.3-0.2-3.36C229.31,119.92,224.17,119.92,219.03,119.92z M121.5,122.18c0.22,0.23,0.44,0.46,0.67,0.69
				c3.17-0.65,6.34-1.3,9.51-1.95c-2.87-0.47-5.68-0.57-8.48-0.39C122.6,120.57,122.06,121.61,121.5,122.18z"/>
		</g>
	</g>
	<path d="M253.03,120.52c0,2.6-2.11,4.71-4.71,4.71s-4.71-2.11-4.71-4.71s2.11-4.71,4.71-4.71S253.03,117.92,253.03,120.52z
		 M108.32,115.12c-3.2,0-5.8,2.6-5.8,5.8c0,3.2,2.6,5.8,5.8,5.8s5.8-2.6,5.8-5.8C114.12,117.72,111.52,115.12,108.32,115.12z"/>
</g>
</svg>
