<?xml version="1.0" encoding="utf-8"?>
<!-- Generator: Adobe Illustrator 27.8.1, SVG Export Plug-In . SVG Version: 6.00 Build 0)  -->
<svg version="1.1" xmlns="http://www.w3.org/2000/svg" xmlns:xlink="http://www.w3.org/1999/xlink" x="0px" y="0px"
	 viewBox="0 0 350 230.71" style="enable-background:new 0 0 350 230.71;" xml:space="preserve">
<style type="text/css">
	.st0{fill:#009EFF;}
	.st1{fill:#FF8500;}
	.st2{fill:#9B3C00;}
	.st3{fill:#660045;}
	.st4{fill:#00576B;}
	.st5{fill:#564F2C;}
	.st6{fill:#FFA354;}
	.st7{fill:#002760;}
	.st8{fill:#4C0037;}
	.st9{fill:#7C0B00;}
	.st10{fill:#144703;}
	.st11{fill:#2C6DC9;}
	.st12{fill:#3B243C;}
	.st13{fill:#001EA4;}
	.st14{fill:#8D5300;}
	.st15{fill:#30A976;}
	.st16{fill:#A02400;}
	.st17{fill:#0092FF;}
	.st18{fill:#60086C;}
	.st19{fill:#520013;}
	.st20{fill:#00AB7B;}
	.st21{fill:#0C0C14;}
	.st22{fill:#FA7B14;}
	.st23{fill:#0870A3;}
	.st24{fill:#999999;}
	.st25{fill:#0D254C;}
	.st26{fill:#9C0505;}
	.st27{fill:#850506;}
	.st28{fill:#A30C11;}
	.st29{fill:#1261A0;}
	.st30{fill:#FFFFFF;}
	.st31{fill:none;}
	.st32{fill:#1A1E2D;}
	.st33{fill:#3AC3B1;}
	.st34{fill:#777777;}
	.st35{fill:#4C0400;}
	.st36{fill:#00484C;}
	.st37{fill:#59D901;}
	.st38{fill:#58CCED;}
	.st39{fill:#CC5500;}
	.st40{fill:#072F5F;}
</style>
<g id="Layer_1">
</g>
<g id="Layer_2">
</g>
<g id="Layer_3">
</g>
<g id="Layer_4">
</g>
<g id="Layer_5">
</g>
<g id="Layer_6">
</g>
<g id="Layer_7">
</g>
<g id="Layer_8">
</g>
<g id="Layer_9">
</g>
<g id="Layer_10">
</g>
<g id="Layer_11">
</g>
<g id="Layer_12">
</g>
<g id="Layer_13">
</g>
<g id="Layer_14">
</g>
<g id="Layer_15">
	<g id="XMLID_3_">
		<path class="st27" d="M158.68,56.12c33.21-7.72,53.89-0.45,53.89-0.45l22.78-7.6c0-0.07,0.01-0.15,0.01-0.22
			C233.91,47.37,205.05,40.58,158.68,56.12z M144.42,138.56c66.94-31.4,89.91-74.54,90.93-90.5l-22.78,7.6
			C212.57,55.67,215.6,91.75,144.42,138.56z"/>
		<path class="st28" d="M158.68,56.12c-13.32,4.46-28.07,10.76-44.04,19.58c23.64-6.66,43.7-10.27,68.26-10.13l29.68-9.91
			C212.57,55.67,191.89,48.4,158.68,56.12z M212.57,55.67l-29.68,9.91c-0.77,21.75-14.83,45.32-61.23,82.52
			c8.1-3.01,15.68-6.21,22.76-9.53C215.6,91.75,212.57,55.67,212.57,55.67z"/>
	</g>
</g>
</svg>
