<?xml version="1.0" encoding="utf-8"?>
<!-- Generator: Adobe Illustrator 27.8.1, SVG Export Plug-In . SVG Version: 6.00 Build 0)  -->
<svg version="1.1" xmlns="http://www.w3.org/2000/svg" xmlns:xlink="http://www.w3.org/1999/xlink" x="0px" y="0px"
	 viewBox="0 0 350 230.71" style="enable-background:new 0 0 350 230.71;" xml:space="preserve">
<style type="text/css">
	.st0{fill:#009EFF;}
	.st1{fill:#FF8500;}
	.st2{fill:#9B3C00;}
	.st3{fill:#660045;}
	.st4{fill:#00576B;}
	.st5{fill:#564F2C;}
	.st6{fill:#FFA354;}
	.st7{fill:#002760;}
	.st8{fill:#4C0037;}
	.st9{fill:#7C0B00;}
	.st10{fill:#144703;}
	.st11{fill:#2C6DC9;}
	.st12{fill:#3B243C;}
	.st13{fill:#001EA4;}
	.st14{fill:#8D5300;}
	.st15{fill:#30A976;}
	.st16{fill:#A02400;}
	.st17{fill:#0092FF;}
	.st18{fill:#60086C;}
	.st19{fill:#520013;}
	.st20{fill:#00AB7B;}
	.st21{fill:#0C0C14;}
	.st22{fill:#FA7B14;}
	.st23{fill:#0870A3;}
	.st24{fill:#999999;}
	.st25{fill:#0D254C;}
	.st26{fill:#9C0505;}
	.st27{fill:#850506;}
	.st28{fill:#A30C11;}
	.st29{fill:#1261A0;}
	.st30{fill:#FFFFFF;}
	.st31{fill:none;}
	.st32{fill:#1A1E2D;}
	.st33{fill:#3AC3B1;}
	.st34{fill:#777777;}
	.st35{fill:#4C0400;}
	.st36{fill:#00484C;}
	.st37{fill:#59D901;}
	.st38{fill:#58CCED;}
	.st39{fill:#CC5500;}
	.st40{fill:#072F5F;}
</style>
<g id="Layer_1">
</g>
<g id="Layer_2">
</g>
<g id="Layer_3">
</g>
<g id="Layer_4">
</g>
<g id="Layer_5">
</g>
<g id="Layer_6">
</g>
<g id="Layer_7">
</g>
<g id="Layer_8">
</g>
<g id="Layer_9">
</g>
<g id="Layer_10">
</g>
<g id="Layer_11">
</g>
<g id="Layer_12">
</g>
<g id="Layer_13">
</g>
<g id="Layer_14">
</g>
<g id="Layer_15">
	<g>
		<path class="st20" d="M277.61,111.23l-29.32,29.32l-29.32,29.32v-29.32l-29.32-7.33l-29.32-7.33l-29.32-7.33l-29.32-7.33H277.61z
			 M85.01,96.87H72.39v0.99h12.61V96.87z M106.41,97.91H93.79v-0.99h12.61V97.91z M127.81,97.96h-12.61v-0.99h12.61V97.96z
			 M149.21,98.01h-12.61v-0.99h12.61V98.01z M170.61,98.06h-12.61v-0.99h12.61V98.06z"/>
		<path class="st25" d="M248.29,81.92H72.39l29.32-29.32h0l29.32-29.32V52.6l29.32,7.33l29.32,7.33l29.32,7.33L248.29,81.92z
			 M192.01,97.12h-12.61v0.99h12.61V97.12z M213.41,98.16h-12.61v-0.99h12.61V98.16z M234.81,98.21h-12.61v-0.99h12.61V98.21z
			 M256.21,98.26h-12.61v-0.99h12.61V98.26z M277.61,98.31h-12.61v-0.99h12.61V98.31z"/>
	</g>
</g>
</svg>
