<?xml version="1.0" encoding="utf-8"?>
<!-- Generator: Adobe Illustrator 27.8.1, SVG Export Plug-In . SVG Version: 6.00 Build 0)  -->
<svg version="1.1" xmlns="http://www.w3.org/2000/svg" xmlns:xlink="http://www.w3.org/1999/xlink" x="0px" y="0px"
	 viewBox="0 0 350 230.71" style="enable-background:new 0 0 350 230.71;" xml:space="preserve">
<style type="text/css">
	.st0{fill:#009EFF;}
	.st1{fill:#FF8500;}
	.st2{fill:#9B3C00;}
	.st3{fill:#660045;}
	.st4{fill:#00576B;}
	.st5{fill:#564F2C;}
	.st6{fill:#FFA354;}
	.st7{fill:#002760;}
	.st8{fill:#4C0037;}
	.st9{fill:#7C0B00;}
	.st10{fill:#144703;}
	.st11{fill:#2C6DC9;}
	.st12{fill:#3B243C;}
	.st13{fill:#001EA4;}
	.st14{fill:#8D5300;}
	.st15{fill:#30A976;}
	.st16{fill:#A02400;}
	.st17{fill:#0092FF;}
	.st18{fill:#60086C;}
	.st19{fill:#520013;}
	.st20{fill:#00AB7B;}
	.st21{fill:#0C0C14;}
	.st22{fill:#FA7B14;}
	.st23{fill:#0870A3;}
	.st24{fill:#999999;}
	.st25{fill:#0D254C;}
	.st26{fill:#9C0505;}
	.st27{fill:#850506;}
	.st28{fill:#A30C11;}
	.st29{fill:#1261A0;}
	.st30{fill:#FFFFFF;}
	.st31{fill:none;}
	.st32{fill:#1A1E2D;}
	.st33{fill:#3AC3B1;}
	.st34{fill:#777777;}
	.st35{fill:#4C0400;}
	.st36{fill:#00484C;}
	.st37{fill:#59D901;}
	.st38{fill:#58CCED;}
	.st39{fill:#CC5500;}
	.st40{fill:#072F5F;}
</style>
<g id="Layer_1">
</g>
<g id="Layer_2">
</g>
<g id="Layer_3">
</g>
<g id="Layer_4">
</g>
<g id="Layer_5">
</g>
<g id="Layer_6">
</g>
<g id="Layer_7">
</g>
<g id="Layer_8">
</g>
<g id="Layer_9">
</g>
<g id="Layer_10">
</g>
<g id="Layer_11">
</g>
<g id="Layer_12">
</g>
<g id="Layer_13">
</g>
<g id="Layer_14">
</g>
<g id="Layer_15">
	<g>
		<path class="st39" d="M162.28,102.19c-0.07-0.45-0.15-0.74-0.15-1.02c-0.01-1.28-0.01-2.55-0.01-3.95
			c0.62-0.03,1.15-0.07,1.67-0.07c4.44-0.01,8.89-0.05,13.33,0.01c1.27,0.02,1.97-0.47,2.57-1.54c2.7-4.82,4-10.05,4.79-15.45
			c0.13-0.87,0.26-1.75,0.41-2.76c-6.44,0-12.78,0-19.32,0c-0.38,6.41-1.27,12.77-3.29,18.93c-1.01-1.24-1.93-2.47-2.96-3.58
			c-0.66-0.71-0.65-1.4-0.51-2.28c0.64-4.08,1.2-8.18,1.78-12.27c0.03-0.23-0.03-0.47-0.06-0.9c-1.41,0-2.78,0-4.15,0
			c-2.81,0-5.63-0.05-8.44,0.03c-1.05,0.03-1.75-0.3-2.37-1.12c-0.95-1.26-1.99-2.45-3.17-3.87c6.15,0,12.11,0,18.43,0
			c-0.46-3.58-0.75-6.95-1.36-10.26c-0.51-2.75-1.4-5.43-2.08-8.16c-0.27-1.08-0.82-1.52-1.97-1.5c-4.43,0.06-8.87,0.02-13.45,0.02
			c0,6.35,0,12.6,0,18.84c-0.11,0.05-0.22,0.11-0.33,0.16c-1.51-1.84-3.05-3.65-4.51-5.53c-0.23-0.29-0.12-0.86-0.12-1.3
			c-0.01-3.46,0-6.91,0-10.37c0-0.53,0-1.07,0-1.8c-0.92,0-1.69,0-2.46,0c-3.65,0-7.31,0.03-10.96-0.03
			c-1.17-0.02-1.96,0.29-2.11,1.5c-0.22,1.78-1.2,2.34-2.9,2.09c-0.87-0.13-1.77-0.02-2.81-0.02c0.32-1.19,0.6-2.26,0.94-3.55
			c-1.34,0-2.55,0-3.76,0c-3.7,0-7.41,0.07-11.11-0.02c-1.4-0.03-2.35,0.43-2.75,1.7c-0.53,1.7-1.66,2.07-3.25,1.89
			c-0.92-0.1-1.86-0.02-2.83-0.02c4.98-14.81,22.65-30.94,45.42-31.21c24.92-0.3,46.26,16.85,50.49,41.08
			c4.45,25.46-10.18,45.58-26.79,53.47c0-1.64-0.09-3.21,0.05-4.75c0.05-0.48,0.64-1.04,1.12-1.34c4.46-2.75,8.27-6.22,11.61-10.23
			c0.15-0.18,0.26-0.39,0.53-0.81C170.92,102.19,166.62,102.19,162.28,102.19z M165.99,72.17c6.05,0,12.33,0,18.57,0
			c0.08-0.2,0.15-0.29,0.14-0.37c-0.44-6.47-2.12-12.6-5.27-18.28c-0.3-0.54-1.22-1.02-1.87-1.03c-3.99-0.1-7.99-0.05-11.98-0.06
			c-1.11,0-2.22,0-3.05,0C163.7,59.03,164.83,65.51,165.99,72.17z M175.67,47.52c-6.83-8.45-15-14-25.24-16.37
			c3.23,4.05,6.21,8.25,8.15,13c1.16,2.84,2.75,3.64,5.64,3.44C167.88,47.32,171.58,47.52,175.67,47.52z M103.3,47.38
			c0.59,0.06,0.91,0.12,1.23,0.12c4.04,0,8.09-0.07,12.13,0.01c1.4,0.03,2.1-0.54,2.76-1.7c2.32-4.06,4.73-8.06,7.14-12.07
			c0.52-0.86,1.14-1.66,1.96-2.84C118.04,33.63,109.91,39.1,103.3,47.38z M154.78,47.36c-3.12-6.76-7.31-12.47-12.76-17.58
			c0,6.09,0,11.82,0,17.58C146.27,47.36,150.39,47.36,154.78,47.36z M136.78,47.36c0-5.83,0-11.5,0-17.58
			c-5.45,5.23-9.71,10.8-12.73,17.58C128.51,47.36,132.59,47.36,136.78,47.36z M120.14,146.76c3.63,1.53,7.01,3.11,10.5,4.39
			c8.83,3.26,18,5.07,27.34,6.15c11.26,1.31,22.55,1.46,33.85,0.81c12.81-0.75,25.51-2.46,38.12-4.82
			c13.45-2.52,26.99-4.34,40.72-3.96c7.8,0.22,15.56,0.95,22.94,3.79c1.18,0.45,2.31,1.02,3.39,1.72c-2.4-0.38-4.79-0.85-7.2-1.11
			c-6.55-0.71-13.11-0.37-19.65,0.22c-14.96,1.36-29.57,4.74-44.27,7.62c-15.01,2.93-30.18,4.28-45.47,3.72
			c-14.77-0.55-29.23-2.92-43-8.54C131.26,154.22,125.43,151.15,120.14,146.76z M127.74,145.52c0.96,0.39,1.9,0.83,2.88,1.14
			c15,4.84,30.43,7.06,46.13,7.36c19.87,0.39,39.48-1.91,58.89-6.05c11.44-2.44,22.93-4.04,34.63-1.9c1.41,0.26,2.84,0.41,4.26,0.61
			c-0.34-0.67-0.73-1.11-1.2-1.46c-4.44-3.28-9.42-5.38-14.93-5.4c-9.86-0.04-19.74,0.05-29.59,0.58
			c-8.26,0.44-16.52,1.37-24.73,2.46c-12.71,1.69-25.32,4.23-38.16,4.7c-7.23,0.26-14.51,0.09-21.74-0.3
			c-5.59-0.3-11.15-1.26-16.77-1.92C127.5,145.38,127.61,145.47,127.74,145.52z M214.03,98.52c-15.09,9.98-28.9,21.47-41.07,34.9
			c27.96-22.38,59.13-38.68,93.36-49.67c0.19,2.07,0.37,3.99,0.58,6.24c4.8-5.92,9.37-11.57,14.02-17.32
			c-7.58-1.49-14.92-2.94-22.57-4.45c1.27,1.81,2.32,3.3,3.47,4.94C245.06,80.33,229.09,88.56,214.03,98.52z"/>
		<path class="st40" d="M274.67,96.5c-3.04,3.18-6.15,6.14-8.93,9.38c-5.76,6.73-9.65,14.51-12.09,23
			c-0.65,2.27-1.87,3.36-4.19,3.64c-11.7,1.41-23.39,2.93-35.09,4.36c-9.64,1.18-19.28,2.39-28.95,3.39
			c-4,0.42-8.06,0.34-12.16,0.28c14.58-11.88,30.43-21.55,47.64-29.01C238.15,104.06,256.11,99.15,274.67,96.5z M199.13,47.24
			c0.22,9.96-0.71,19.81-2.78,29.56c-2.46,11.54-6.43,22.46-13.36,32.14c-1.19,1.66-2.5,3.24-3.75,4.85
			c0.34-0.04,0.57-0.19,0.8-0.36c19.41-14.25,38.81-28.51,58.25-42.71c1.18-0.86,1.2-1.47,0.54-2.6c-2.12-3.68-4.81-6.87-8.06-9.57
			c-9.12-7.58-19.92-10.96-31.63-12.64C199.13,46.46,199.12,46.85,199.13,47.24z M156.35,129.3c0,1.32-0.07,2.22,0.01,3.1
			c0.22,2.35,0.07,4.62-1.23,6.87c1.89,0.29,3.6,0.55,5.31,0.81c-8.94,2.41-98.27,2.43-107.4,0.21c-0.01-0.13-0.03-0.26-0.04-0.4
			c3.24-0.24,6.47-0.53,9.71-0.71c3.23-0.18,6.47-0.27,9.74-0.4c-0.51-2.16-0.92-2.47-2.91-2.53c-1.03-0.03-2.07-0.14-3.09-0.29
			c-1.9-0.28-3.14-1.41-3.64-3.24c-0.9-3.34-0.84-6.73-0.31-10.13c0.17-1.07,0.91-1.11,1.75-1.11c5.73-0.01,11.45-0.04,17.18-0.06
			c4.94-0.02,9.87-0.02,14.81-0.03c1.03,0,2.07,0,3.32,0c-0.56,2.85-1.4,5.34-3.51,7.13c-0.66,0.56-1.7,0.87-2.58,0.9
			c-3.4,0.13-6.81,0.13-10.22,0.11c-3.05-0.02-4.82-1.88-6.11-4.42c-1.01-1.98-1.72-2.21-3.8-1.3c0.97,1.77,1.83,3.6,2.93,5.27
			c1.11,1.68,2.83,2.62,4.86,2.76c2.31,0.16,4.63,0.27,6.95,0.25c8.49-0.08,16.98-0.22,25.47-0.33c0.1,0,0.2-0.01,0.3-0.01
			c4.55-0.25,5.61-1.32,6.05-5.88c0.32-3.38,0.61-6.78,1.16-10.13c0.55-3.38,1.82-3.83,4.76-1.99c0.11,0.07,0.26,0.08,0.5,0.14
			c0-6.99,0-13.92,0-20.95c-1.08-0.05-2.02-0.22-2.73,1.04c-0.31,0.55-1.4,0.8-2.18,0.92c-0.95,0.15-1.59,0.37-1.51,1.5
			c0.06,0.85-0.24,1.46-1.26,1.38c-1-0.08-1.13-0.73-1.13-1.56c0-2.24,0.22-2.51,2.41-2.79c0.76-0.1,1.5-0.26,2.4-0.55
			c-1.95-0.95-1.81-2.65-1.86-4.28c-0.07-2.07-0.2-4.14-0.25-6.21c-0.04-1.67-0.63-3.62,2.35-3.96c-0.15-0.14-0.3-0.28-0.45-0.42
			c-0.99-0.1-1.98-0.25-2.98-0.28c-0.94-0.03-1.24-0.41-0.92-1.26c1.37,0,2.74-0.07,4.1,0.04c0.47,0.04,0.91,0.49,1.34,0.78
			c0.5,0.34,0.93,0.88,1.48,1.05c0.97,0.3,1.35,0.88,1.4,1.83c0.17,2.9,0.36,5.8,0.57,9.13c0.26-0.62,0.42-0.84,0.44-1.08
			c0.15-2.91,0.36-5.82,0.34-8.73c-0.01-0.79-0.73-1.58-1.14-2.36c-0.32-0.61-0.86-1.17-0.96-1.81c-0.26-1.75-0.26-3.54-0.5-5.29
			c-0.37-2.64-1.52-4.88-3.76-6.74c1.23,0,2.51,0.19,3.7-0.04c3.74-0.71,5.83,1,7.86,4.04c7.04,10.54,14.41,20.86,21.65,31.27
			c0.26,0.38,0.48,0.79,0.72,1.18c-0.12,0.08-0.23,0.16-0.35,0.24c-8.08-10.53-16.16-21.07-24.24-31.6
			c-0.11,0.04-0.22,0.09-0.34,0.13c-0.02,0.51-0.07,1.03-0.07,1.54c0.05,14.86,0.12,29.72,0.13,44.58c0,1.5,0.62,2.36,1.92,2.99
			c7.46,3.6,14.91,7.24,22.36,10.87C155.5,128.79,156.08,129.15,156.35,129.3z M113.59,138.31c-0.05-1.83-0.93-2.32-2.58-2.31
			c-7.45,0.04-14.91-0.03-22.36-0.07c-2.38-0.01-2.38-0.03-3.23,2.38C94.81,138.31,104.16,138.31,113.59,138.31z M133.95,128.54
			c0.99-3.65-1.04-5.72-5.74-5.98c0,1.22-0.06,2.45,0.04,3.67c0.03,0.39,0.41,0.97,0.74,1.07
			C130.62,127.78,132.29,128.14,133.95,128.54z M148.38,131.28c0.18-0.12,0.36-0.24,0.55-0.36c-0.24-0.62-0.33-1.63-0.76-1.81
			c-2.46-1.05-4.99-1.9-7.71-2.89c0.13,1.26-0.52,2.48,0.88,2.95C143.67,129.93,146.03,130.58,148.38,131.28z M64.45,126.16
			c0.36,1.14,0.65,2.23,1.07,3.25c0.14,0.33,0.63,0.71,0.97,0.72c1.69,0.07,3.39,0.03,5.08,0.03c0.01-2.44-0.88-3.42-2.86-3.28
			c0.04,0.52,0.09,1.04,0.14,1.59c-1.05,0.46-1.77,0.41-2-0.95C66.65,126.31,65.86,125.84,64.45,126.16z M122.14,131.49
			c-0.1,0.02-0.21,0.04-0.31,0.06c0.29,1.17,0.49,2.37,0.91,3.5c0.17,0.47,0.8,1.08,1.2,1.06c0.41-0.01,1.05-0.67,1.14-1.13
			c0.37-1.96,0.62-3.95,0.83-5.94c0.07-0.64-0.1-1.32-0.16-1.97c-0.87,2.19-0.07,4.68-1.98,6.8
			C123.15,132.97,122.64,132.23,122.14,131.49z M80.29,124.56c0.39,1.34,1.12,1.8,2.23,1.78c3-0.06,6-0.1,9.01-0.16
			c0.34-0.01,0.68-0.13,1.02-0.19c-0.01-0.12-0.01-0.25-0.02-0.37C88.5,125.27,84.48,124.92,80.29,124.56z M139.63,138.72
			c2.03,0,3.96,0,5.93,0c-0.65-1.86-0.8-1.94-3.76-2.06C140.1,136.6,139.86,136.82,139.63,138.72z M148.84,134.03
			c0.06-0.22,0.13-0.43,0.19-0.65c-2.31-1.76-5.3-1.67-7.89-2.64c-0.71,1.06-0.37,1.61,0.6,1.83c1.29,0.3,2.59,0.54,3.88,0.8
			C146.69,133.6,147.77,133.81,148.84,134.03z M128.08,129.63c-0.57,1.52-0.11,2.09,1.26,2.16c1.22,0.06,2.43,0.31,3.65,0.39
			c0.45,0.03,0.92-0.19,1.38-0.3c-0.35-0.45-0.62-1.18-1.05-1.29C131.62,130.17,129.88,129.94,128.08,129.63z M138.59,129.78
			c-0.38,1.89-0.69,3.41-1.06,5.27c-0.65-0.91-1.01-1.41-1.37-1.91c-0.01,1.08,0.19,2.07,0.58,2.99c0.37,0.86,1.02,0.97,1.48,0.04
			C139.18,134.2,139.25,132.16,138.59,129.78z M129.53,138.45c0.12-0.17,0.24-0.34,0.36-0.5c-0.65-0.6-1.23-1.59-1.95-1.72
			c-1.37-0.24-1.66,1.14-2.32,2.23C127.06,138.45,128.29,138.45,129.53,138.45z M125.79,120.87c-0.27-1.65-1.34-2.8-2.52-2.72
			c-0.37,0.03-0.71,0.47-1.06,0.73c0.22,0.31,0.38,0.75,0.69,0.89C123.78,120.19,124.72,120.47,125.79,120.87z M138.53,124.64
			c-0.18-0.9-0.62-1.78-1.8-1.71c-1.12,0.07-1.28,0.99-1.34,1.71C136.48,124.64,137.47,124.64,138.53,124.64z M154.99,133.17
			c-0.4,1.38-0.8,2.75-1.19,4.13C155.98,136.34,154.81,134.53,154.99,133.17z M150.86,137.11c0.29-0.04,0.8,0.05,0.95-0.14
			c0.89-1.1,0.86-2.34,0.5-3.62C151.85,134.54,151.42,135.67,150.86,137.11z M63.51,82.71c-1.37,3.42-1.86,6.81-0.6,10.69
			c0.77-3.35,1.49-6.31,2.12-9.29c0.61-2.87,2.3-4.5,5.21-4.86c6.12-0.75,12.22-1.7,18.36-2.18c7.13-0.55,14.29-0.69,21.44-1
			c0.54-0.02,1.09,0,1.63,0.02c2.03,0.07,2.61,0.58,2.49,2.6c-0.21,3.44-0.49,6.89-0.89,10.32c-0.29,2.5-1.17,3.36-3.74,3.55
			c-4.63,0.34-9.26,0.54-13.9,0.75c-8.63,0.4-17.26,0.76-25.89,1.13c-0.93,0.04-1.86,0.01-3.1,0.01c0.42,2.28,0.76,4.39,1.21,6.48
			c1,4.7,2.35,9.27,4.87,13.42c0.74,1.22,1.61,1.77,3.1,1.75c12.98-0.12,25.97-0.16,38.96-0.22c0.19,0,0.38,0,0.57,0
			c0.04,0.14,0.07,0.28,0.11,0.42c-2.1,0.54-4.16,1.32-6.29,1.57c-3.72,0.44-7.47,0.69-11.21,0.78
			c-10.42,0.23-20.83,0.34-31.25,0.48c-3.83,0.05-4.3-0.42-4.28-4.2c0.04-5.48,0.08-10.96,0.17-16.44c0.02-1.23-0.22-2.08-1.39-2.82
			c-0.7-0.44-1.34-1.55-1.38-2.39c-0.13-2.66-0.04-5.33,0.1-7.99C60.03,82.92,60.9,82.31,63.51,82.71z M72.41,82.16
			c0.01,0.15,0.02,0.3,0.03,0.44c2.45-0.19,4.9-0.45,7.35-0.56c10.01-0.48,20.02-0.91,30.02-1.37c1.9-0.09,2.05-0.33,1.54-2.43
			C98.27,78.44,85.29,79.85,72.41,82.16z M76.6,84.93c0.01,0.21,0.01,0.41,0.02,0.62c11.41-0.25,22.82-0.5,34.37-0.75
			c0.04-0.81,0.07-1.46,0.12-2.55C99.45,83.16,88.03,84.04,76.6,84.93z M84.6,88.49c-0.01,0.16-0.01,0.32-0.02,0.49
			c0.56,0.03,1.11,0.08,1.67,0.08c7.54,0.01,15.08,0.02,22.62,0.03c2.02,0,2.18-0.19,1.63-2.26C101.88,87.38,93.24,87.93,84.6,88.49
			z M67.8,115.05c0.1-2.67-1.43-4.58-3.84-4.92C63.54,113.32,65.01,115.25,67.8,115.05z M66.3,107.58
			c-0.48-2.11-0.92-4.07-1.42-6.28C63.08,104.29,63.8,107.41,66.3,107.58z M74.81,72.92c10.93-3.24,22.34-2.94,33.54-4.29
			c-5.53-0.2-11.05-0.42-16.56-0.14c-5.47,0.28-10.91,1.06-16.7,1.65c0.77-0.73,1.27-1.46,1.96-1.82c2.06-1.05,4.13-2.13,6.3-2.9
			c5.91-2.1,12.11-2.69,18.31-3.2c3.77-0.31,7.56-0.49,11.62-0.75c-0.42-0.12-0.55-0.19-0.69-0.19c-8.74-0.16-17.48-0.08-26.1,1.62
			c-3.72,0.73-7.52,1.26-10.81,3.36c-3.94,2.52-5.97,6.23-6.76,10.91c0.71-0.13,1.23-0.21,1.75-0.32
			c11.15-2.29,22.4-3.57,33.78-3.71c2.76-0.03,5.53,0.02,8.29-0.04c0.38-0.01,0.75-0.45,1.12-0.69c-0.35-0.2-0.69-0.45-1.06-0.57
			c-0.32-0.11-0.68-0.07-1.03-0.1c-8.15-0.65-16.27-0.04-24.39,0.61c-4.17,0.33-8.34,0.67-12.52,1
			C74.85,73.23,74.83,73.07,74.81,72.92z M112.98,110.55c2.26-4.37,1.65-8.91,0.57-13.53c-2.55,4.47-5.1,8.94-7.64,13.41
			c0.09,0.06,0.17,0.12,0.26,0.18c2.14-2.83,4.27-5.66,6.61-8.75c0.21,2.99-1.02,4.86-3.19,6.57c1.02,0,1.64,0,2.35,0
			c-0.46,2.3-2.41,2.93-4.1,3.92C110.19,113.06,112,112.46,112.98,110.55z M111.71,127.47c0.32-0.08,0.7-0.42,0.82-0.73
			c0.5-1.31,0.92-2.65,1.43-4.17c-3.27,0.28-6.31,0.52-9.34,0.82c-0.34,0.03-0.84,0.28-0.94,0.55c-0.4,1-0.74,2.04-0.94,3.09
			c-0.06,0.34,0.37,1.1,0.59,1.11c0.5,0.01,1.12-0.21,1.48-0.56c0.3-0.3,0.32-0.9,0.44-1.38c0.29-1.18,0.96-1.64,2.31-1.21
			c-0.12,1.11-0.25,2.2-0.39,3.51C108.78,128.13,110.26,127.84,111.71,127.47z M115.26,89.95c-0.03,0.3,0.52,0.66,0.81,0.99
			c0.3-0.28,0.83-0.53,0.88-0.85c0.43-2.8,0.46-5.59-0.73-8.31C115.88,84.5,115.51,87.22,115.26,89.95z"/>
	</g>
</g>
</svg>
