<?xml version="1.0" encoding="utf-8"?>
<!-- Generator: Adobe Illustrator 27.8.1, SVG Export Plug-In . SVG Version: 6.00 Build 0)  -->
<svg version="1.1" xmlns="http://www.w3.org/2000/svg" xmlns:xlink="http://www.w3.org/1999/xlink" x="0px" y="0px"
	 viewBox="0 0 350 230.71" style="enable-background:new 0 0 350 230.71;" xml:space="preserve">
<style type="text/css">
	.st0{fill:#009EFF;}
	.st1{fill:#FF8500;}
	.st2{fill:#9B3C00;}
	.st3{fill:#660045;}
	.st4{fill:#00576B;}
	.st5{fill:#564F2C;}
	.st6{fill:#FFA354;}
	.st7{fill:#002760;}
	.st8{fill:#4C0037;}
	.st9{fill:#7C0B00;}
	.st10{fill:#144703;}
	.st11{fill:#2C6DC9;}
	.st12{fill:#3B243C;}
	.st13{fill:#001EA4;}
	.st14{fill:#8D5300;}
	.st15{fill:#30A976;}
	.st16{fill:#A02400;}
	.st17{fill:#0092FF;}
	.st18{fill:#60086C;}
	.st19{fill:#520013;}
	.st20{fill:#00AB7B;}
	.st21{fill:#0C0C14;}
	.st22{fill:#FA7B14;}
	.st23{fill:#0870A3;}
	.st24{fill:#999999;}
	.st25{fill:#0D254C;}
	.st26{fill:#9C0505;}
	.st27{fill:#850506;}
	.st28{fill:#A30C11;}
	.st29{fill:#1261A0;}
	.st30{fill:#FFFFFF;}
	.st31{fill:none;}
	.st32{fill:#1A1E2D;}
	.st33{fill:#3AC3B1;}
	.st34{fill:#777777;}
	.st35{fill:#4C0400;}
	.st36{fill:#00484C;}
	.st37{fill:#59D901;}
	.st38{fill:#58CCED;}
	.st39{fill:#CC5500;}
	.st40{fill:#072F5F;}
</style>
<g id="Layer_1">
</g>
<g id="Layer_2">
</g>
<g id="Layer_3">
</g>
<g id="Layer_4">
</g>
<g id="Layer_5">
</g>
<g id="Layer_6">
</g>
<g id="Layer_7">
</g>
<g id="Layer_8">
</g>
<g id="Layer_9">
</g>
<g id="Layer_10">
</g>
<g id="Layer_11">
</g>
<g id="Layer_12">
</g>
<g id="Layer_13">
</g>
<g id="Layer_14">
</g>
<g id="Layer_15">
	<path class="st39" d="M126.76,75.21c-2.63-3.28-4.61-5.41-8.76-5.37c-23.69,0.23-47.39,0.06-71.08,0.18
		c-3.23,0.02-5.75-0.68-7.84-3.21c-1.43-1.74-3.35-3.09-4.69-4.89c-0.81-1.09-1.61-3.05-1.14-4c0.57-1.16,2.4-1.84,3.81-2.42
		c0.82-0.34,1.88-0.07,2.83-0.07c21.43,0.01,42.86,0.03,64.29,0.03c0.69,0,1.38-0.08,2.47-0.15c-1.72-2.69-3.48-4.04-6.65-4.03
		c-23.81,0.12-47.63,0.07-71.44,0.07c-0.95,0-1.91,0.02-2.86-0.03c-2.3-0.12-4.03-1.06-3.98-3.6c0.05-2.55,1.72-3.38,4.11-3.32
		c2.86,0.08,5.71,0.02,8.57,0.02c43.93,0,87.87,0,131.8,0c1.42,0,2.84,0,4.87,0c0-3.79-0.15-7.43,0.05-11.05
		c0.15-2.87,0.67-5.74,1.13-8.59c1.11-6.85-1.4-10.78-8.8-13.4c0-1.45,0-2.94,0-4.4c6.54-1.52,13.77,5.68,14.11,12.49
		c0.24,4.76,0.95,9.5,1.46,14.29c3.94,0.83,7.94,1.42,11.79,2.55c13.14,3.86,23.68,11.48,31.53,22.7c1.3,1.85,2.59,2.67,4.92,2.61
		c7.14-0.17,14.29-0.02,21.43-0.07c4.73-0.03,8.17,1.93,10.54,6.04c4.22,7.32,8.46,14.63,12.94,21.79c0.84,1.34,2.77,2.62,4.33,2.8
		c10.04,1.18,20.13,2.02,30.19,3.03c9.31,0.94,15.17,8.61,14.84,19.35c-3.52-0.79-7.04-1.58-11.15-2.5
		c4.55,4.09,8.57,7.71,12.59,11.32c0.09,0.08,0.18,0.18,0.28,0.22c1.56,0.61,4.25,0.93,4.48,1.86c0.66,2.7,0.66,5.69,0.24,8.47
		c-0.16,1.02-2.16,2.41-3.41,2.5c-4.13,0.32-8.29,0.12-12.35,0.12c-4.1,13.05-10.63,18.4-20.98,17.4
		c-9.58-0.93-15.58-7.69-16.91-19.5c-1.32,0-2.7,0-4.08,0c-52.75,0-105.49-0.04-158.24,0.08c-3.78,0.01-6.64-0.88-9.02-3.81
		c-1.49-1.84-3.55-3.23-4.94-5.13c-0.86-1.18-1.55-3.12-1.16-4.36c0.31-1,2.29-1.87,3.63-2.08c2.21-0.34,4.51-0.09,6.77-0.09
		c19.65,0,39.29,0.01,58.94,0.01c1.28,0,2.57,0,4.4,0c-2.54-3.44-4.73-5.49-9.12-5.45c-23.93,0.26-47.86,0.09-71.79,0.17
		c-2.6,0.01-4.54-0.71-6.28-2.62c-2.15-2.38-4.69-4.43-6.71-6.91c-1.06-1.31-2.23-3.57-1.76-4.8c0.45-1.16,2.96-2.15,4.56-2.16
		c21.55-0.13,43.1-0.08,64.65-0.08c1.28,0,2.56,0,4.42,0c-2.46-3.33-4.45-5.58-8.72-5.54c-24.05,0.2-48.1,0.06-72.15,0.15
		c-2.61,0.01-4.54-0.72-6.28-2.62c-2.25-2.46-4.86-4.6-6.96-7.17c-0.98-1.2-1.91-3.41-1.43-4.55c0.49-1.16,2.75-2.18,4.25-2.19
		c15.6-0.15,31.19-0.09,46.79-0.09C111.45,75.21,118.77,75.21,126.76,75.21z M231.1,90.08c9.63,0,18.95,0,28.38,0
		c-8.28-16.98-9.94-19.74-28.38-17.94C231.1,78,231.1,83.89,231.1,90.08z M293.08,124.18c-6.21,0-11.34,5.14-11.34,11.34
		c0,6.18,5.13,11.35,11.32,11.41c6.3,0.06,11.63-5.29,11.53-11.57C304.5,129.16,299.37,124.18,293.08,124.18z M265.51,122.22
		c0.17-0.46,0.34-0.91,0.51-1.37c-1.68-0.59-3.36-1.68-5.05-1.69c-23.32-0.12-46.64-0.08-69.96-0.08c-0.67,0-1.34,0.09-2.36,0.16
		c1.72,1.16,3.06,2.85,4.41,2.86C217.21,122.27,241.36,122.22,265.51,122.22z M199.06,66.77c0,7.74,0,15.48,0,23.21
		c2.88,0,5.5,0,8.29,0c0-5.29,0.16-10.25-0.04-15.21C207.12,69.95,203.92,66.96,199.06,66.77z M258.03,127.06
		c-25.1,0-50.2,0-75.35,0C184.67,128.46,251.05,129.14,258.03,127.06z M311.37,130.08c-1.11-9.18-9.09-16.19-18.3-16.08
		c-9.33,0.11-17.17,7.15-18.15,16.28C281.03,112.91,304.59,112.18,311.37,130.08z"/>
	<path class="st40" d="M85.74,53.42c-19.99,0.62-40.85,0.86-60.9,0.93c0,0,0.71-1.52,0.71-1.52l7.79,9.25
		c2.61,3.08,5.14,6.21,7.72,9.31l-0.73-0.34l16.45,0.08c10.97,0.05,21.94,0.24,32.91,0.44c5.48,0.14,10.97,0.24,16.45,0.43
		c-5.48,0.2-10.97,0.29-16.45,0.43c-15.83,0.34-33.43,0.47-49.36,0.52c0,0-0.44,0-0.44,0s-0.29-0.35-0.29-0.35
		c-5.08-5.95-11.7-14.05-16.73-20.13c0,0,1.98,0.01,1.98,0.01C44.91,52.56,65.74,52.79,85.74,53.42L85.74,53.42z M106.16,73.55
		c-19.67-0.62-41.15-0.85-60.9-0.93c0,0-1.89-0.01-1.89-0.01s1.15,1.5,1.15,1.5c4.53,5.9,10.9,14.28,15.46,20.02
		c0,0,0.29,0.37,0.29,0.37s0.46,0,0.46,0c15.93-0.05,33.52-0.19,49.36-0.52c5.48-0.14,10.97-0.23,16.45-0.43
		c-5.48-0.2-10.97-0.29-16.45-0.43c-15.86-0.33-33.4-0.49-49.36-0.52l0.75,0.37c-2.57-3.34-5.11-6.71-7.71-10.03
		c0,0-7.79-9.97-7.79-9.97s-0.73,1.49-0.73,1.49C64.99,74.4,86.51,74.16,106.16,73.55L106.16,73.55z M126.55,95.32
		c-19.67-0.62-41.15-0.85-60.9-0.93c0,0-1.89-0.01-1.89-0.01s1.15,1.5,1.15,1.5c4.53,5.9,10.9,14.28,15.46,20.02
		c0,0,0.29,0.37,0.29,0.37s0.46,0,0.46,0c15.93-0.05,33.52-0.19,49.36-0.52c5.48-0.14,10.97-0.23,16.45-0.43
		c-5.48-0.2-10.97-0.29-16.45-0.43c-15.86-0.33-33.4-0.49-49.36-0.52l0.75,0.37c-2.57-3.34-5.11-6.71-7.71-10.03l-7.79-9.97
		c0,0-0.73,1.49-0.73,1.49C85.37,96.18,106.9,95.94,126.55,95.32L126.55,95.32z M147,117.1c-19.67-0.62-41.15-0.85-60.9-0.93
		c0,0-1.89-0.01-1.89-0.01s1.15,1.5,1.15,1.5c4.53,5.9,10.9,14.28,15.46,20.02l0.29,0.37c0,0,0.46,0,0.46,0
		c15.93-0.05,33.52-0.19,49.36-0.52c5.48-0.14,10.97-0.23,16.45-0.43c-5.48-0.2-10.97-0.29-16.45-0.43
		c-15.86-0.33-33.4-0.49-49.36-0.52c0,0,0.75,0.37,0.75,0.37c-2.57-3.34-5.11-6.71-7.71-10.03l-7.79-9.97c0,0-0.73,1.49-0.73,1.49
		C105.82,117.95,127.35,117.71,147,117.1L147,117.1z M314.26,193.94H35.22v2.71h279.04V193.94z"/>
</g>
</svg>
