<?xml version="1.0" encoding="utf-8"?>
<!-- Generator: Adobe Illustrator 27.8.1, SVG Export Plug-In . SVG Version: 6.00 Build 0)  -->
<svg version="1.1" xmlns="http://www.w3.org/2000/svg" xmlns:xlink="http://www.w3.org/1999/xlink" x="0px" y="0px"
	 viewBox="0 0 350 230.71" style="enable-background:new 0 0 350 230.71;" xml:space="preserve">
<style type="text/css">
	.st0{fill:#009EFF;}
	.st1{fill:#FF8500;}
	.st2{fill:#9B3C00;}
	.st3{fill:#660045;}
	.st4{fill:#00576B;}
	.st5{fill:#564F2C;}
	.st6{fill:#FFA354;}
	.st7{fill:#002760;}
	.st8{fill:#4C0037;}
	.st9{fill:#7C0B00;}
	.st10{fill:#144703;}
	.st11{fill:#2C6DC9;}
	.st12{fill:#3B243C;}
	.st13{fill:#001EA4;}
	.st14{fill:#8D5300;}
	.st15{fill:#30A976;}
	.st16{fill:#A02400;}
	.st17{fill:#0092FF;}
	.st18{fill:#60086C;}
	.st19{fill:#520013;}
	.st20{fill:#00AB7B;}
	.st21{fill:#0C0C14;}
	.st22{fill:#FA7B14;}
	.st23{fill:#0870A3;}
	.st24{fill:#999999;}
	.st25{fill:#0D254C;}
	.st26{fill:#9C0505;}
	.st27{fill:#850506;}
	.st28{fill:#A30C11;}
	.st29{fill:#1261A0;}
	.st30{fill:#FFFFFF;}
	.st31{fill:none;}
	.st32{fill:#1A1E2D;}
	.st33{fill:#3AC3B1;}
	.st34{fill:#777777;}
	.st35{fill:#4C0400;}
	.st36{fill:#00484C;}
	.st37{fill:#59D901;}
	.st38{fill:#58CCED;}
	.st39{fill:#CC5500;}
	.st40{fill:#072F5F;}
</style>
<g id="Layer_1">
</g>
<g id="Layer_2">
</g>
<g id="Layer_3">
</g>
<g id="Layer_4">
</g>
<g id="Layer_5">
</g>
<g id="Layer_6">
</g>
<g id="Layer_7">
</g>
<g id="Layer_8">
</g>
<g id="Layer_9">
</g>
<g id="Layer_10">
</g>
<g id="Layer_11">
</g>
<g id="Layer_12">
</g>
<g id="Layer_13">
</g>
<g id="Layer_14">
</g>
<g id="Layer_15">
	<g>
		<path class="st36" d="M118.37,82.23c2.38-12.06,10.43-17.94,22.49-16.05c-0.61,4.75-1.28,9.53-1.83,14.32
			c-0.34,2.97-0.49,5.96-0.77,9.42c-2.76,0-5.64-0.1-8.51,0.03c-1.78,0.08-3.61,0.3-5.31,0.82c-2.36,0.72-3.55,2.5-3.53,5.02
			c0.01,2.41,0.05,4.82-0.01,7.23c-0.08,3.07,1.58,4.49,4.22,5.83c2.75,1.4,5.04,3.72,7.5,5.69c0.24,0.19,0.34,0.73,0.3,1.09
			c-0.67,6.68-1.38,13.36-2.11,20.37c-5.14,0.09-9.81,1.61-14.01,4.59c-0.64,0.45-1.75,0.31-2.64,0.31
			c-12.06,0.02-24.12-0.03-36.17,0.05c-2.1,0.01-3.61-0.6-4.92-2.24c-1.76-2.19-3.86-4.11-5.52-6.37c-0.72-0.98-1.25-2.76-0.83-3.71
			c0.41-0.91,2.16-1.69,3.33-1.7c14.87-0.11,29.74-0.08,44.62-0.08c1.18,0,2.37,0,3.71,0c0-1.56,0-2.81,0-4.44c-1.3,0-2.47,0-3.64,0
			c-17.69,0-35.37-0.04-53.06,0.04c-2.21,0.01-3.82-0.58-5.2-2.32c-1.62-2.04-3.63-3.8-5.11-5.93c-0.81-1.16-1.51-3.04-1.11-4.21
			c0.3-0.88,2.42-1.58,3.73-1.59c16.28-0.11,32.56-0.07,48.84-0.08c0.96,0,1.91-0.08,3.15-0.14c-2.16-2.99-4.33-4.49-8.08-4.44
			c-17.58,0.25-35.17,0.07-52.75,0.16c-2.21,0.01-3.83-0.48-5.16-2.3c-1.12-1.53-2.73-2.73-3.72-4.33
			c-0.69-1.12-1.25-2.88-0.84-3.96c0.32-0.84,2.23-1.5,3.43-1.51c15.27-0.09,30.55-0.06,45.82-0.05c1.4,0,2.8,0,4.57,0
			c-1.35-2.35-2.68-3.72-5.41-3.71c-17.38,0.09-34.77,0.05-52.15,0.05c-0.8,0-1.83,0.3-2.37-0.08c-1.08-0.76-2.63-1.92-2.6-2.88
			c0.02-0.99,1.59-2.09,2.68-2.83c0.55-0.37,1.56-0.07,2.37-0.07c27.53,0,55.07,0,82.6,0C115.66,82.23,116.95,82.23,118.37,82.23z
			 M266.62,88.01c17.39,0.14,34.78,0.07,52.17,0.07c0.7,0,1.63,0.28,2.07-0.06c1-0.78,2.41-1.86,2.42-2.83
			c0.01-0.97-1.35-2.16-2.37-2.86c-0.62-0.42-1.76-0.1-2.66-0.1c-27.74,0-55.49,0-83.23,0c-1.17,0-2.33,0-3.42,0
			c-1.97-12.9-12.45-18.13-22.37-15.96c0.83,7.76,1.68,15.6,2.54,23.66c3.46,0,6.76-0.1,10.06,0.02c5.26,0.2,7.19,2.28,7.19,7.47
			c0,2.11,0.42,4.34-0.13,6.3c-0.47,1.72-1.75,4.09-3.15,4.5c-3.37,0.97-5.45,3.25-7.67,5.53c-0.5,0.52-1.05,1.36-0.99,2
			c0.61,6.68,1.34,13.35,2.03,19.99c2.5,0.47,4.94,0.64,7.17,1.43c2.33,0.83,4.42,2.33,6.69,3.36c0.86,0.39,1.95,0.38,2.94,0.38
			c9.55,0.02,19.14-0.56,28.63,0.18c7.75,0.6,13.46-1.55,17.39-8.15c0.78-1.31,1.6-3.2,1.19-4.42c-0.3-0.89-2.57-1.58-3.96-1.59
			c-14.68-0.11-29.35-0.07-44.03-0.07c-1.16,0-2.31,0-3.44,0c0-1.75,0-2.99,0-4.45c1.34,0,2.44,0,3.53,0
			c15.38,0,30.78-0.41,46.13,0.18c7.34,0.29,12.79-1.44,16.75-7.68c1.01-1.6,3.07-3.09,1.58-4.92c-0.9-1.1-3.1-1.58-4.71-1.59
			c-15.88-0.11-31.76-0.07-47.65-0.08c-1.02,0-2.05-0.09-3.28-0.14c2.1-3.37,4.59-4.46,8.22-4.42c15.98,0.21,31.97-0.19,47.94,0.24
			c5.71,0.16,9.99-1.12,12.86-6.03c0.82-1.41,1.76-3.31,1.4-4.66c-0.23-0.84-2.76-1.5-4.27-1.51c-16.38-0.1-32.76-0.07-49.68-0.07
			C262.19,89.13,263.8,87.99,266.62,88.01z"/>
		<path class="st32" d="M207.7,80.03c-2.91-0.26-6.47-0.57-10.02-0.88c-0.03,0.16-0.06,0.33-0.08,0.49
			c3.22,0.63,6.42,1.34,9.65,1.87c1.73,0.28,2.28,1.09,2.26,2.82c-0.08,7.84,0.02,15.68-0.1,23.52c-0.02,1.02-0.69,2.28-1.46,3
			c-6.61,6.16-6.64,6.11-15.76,4.72c-4.97-0.75-9.93-1.66-14.93-1.98c-3.46-0.22-6.99,0.31-10.46,0.76
			c-5.77,0.74-11.52,1.68-17.27,2.54c-0.19,0.03-0.39,0.14-0.58,0.12c-1.82-0.16-8.46-7.49-8.46-9.34
			c-0.01-7.74,0.05-15.48-0.05-23.22c-0.02-1.86,0.5-2.72,2.4-3c3.25-0.48,6.46-1.2,9.62-2.32c-3.56,0.32-7.12,0.63-10.2,0.9
			c0-9.73-0.05-19.52,0.05-29.29c0.02-1.89,1.04-3.81,0.86-5.65c-0.15-1.52-1.01-3.63-2.2-4.25c-4.07-2.13-3.64-5.43-3.14-9.32
			c5.03,3.46,10.68,5.91,11.3,12.89c0.37,4.12,0.77,8.23,1.1,12.35c0.11,1.36,0.02,2.74,0.02,4.85c16.56-5.5,32.74-5.48,49.45-0.02
			c0-3.88,0.04-7.13-0.01-10.38c-0.13-9.12,3.92-15.55,12.47-19.38c0.29,3.41,1.15,6.64-2.85,8.8c-1.92,1.04-3.7,2.93-1.69,5.66
			c0.39,0.53,0.12,1.57,0.12,2.37c0.01,7.34,0.01,14.68,0.01,22.01C207.7,73.73,207.7,76.79,207.7,80.03z M205.35,104.52
			c0-3.71,0.22-7.2-0.07-10.66c-0.23-2.7-1.98-4.95-4.7-5.19c-7.43-0.66-14.9-0.91-22.52-1.33c0,6.09,0,11.55,0,17.18
			C187.13,104.52,196.01,104.52,205.35,104.52z M171.93,87.36c-7.52,0.38-14.82,0.61-22.09,1.18c-2.88,0.22-4.85,2.35-5.13,5.16
			c-0.36,3.54-0.09,7.14-0.09,10.77c9.28,0,18.25,0,27.32,0C171.93,98.77,171.93,93.31,171.93,87.36z M192.14,69.38
			c-0.02-0.47-0.04-0.93-0.07-1.4c-1.28-0.76-2.63-2.19-3.83-2.07c-1.09,0.11-2.64,1.8-2.85,2.99c-0.33,1.86,1.2,3.38,3.11,3.01
			C189.83,71.67,190.94,70.27,192.14,69.38z M162.27,65.23c-0.48,0-0.96-0.01-1.44-0.01c-0.84,1.23-2.21,2.39-2.4,3.71
			c-0.28,1.92,1.3,3.38,3.15,2.97c1.19-0.26,2.81-1.86,2.88-2.95C164.55,67.77,163.07,66.48,162.27,65.23z M154.96,69.71
			c0.02-0.46,0.03-0.92,0.05-1.37c-1.21-0.88-2.32-2.27-3.65-2.51c-1.91-0.34-3.43,1.17-3.07,3.04c0.23,1.19,1.79,2.86,2.87,2.96
			C152.36,71.93,153.69,70.49,154.96,69.71z M199.37,65.24c-0.48,0-0.96-0.01-1.44-0.01c-0.83,1.23-2.35,2.48-2.3,3.67
			c0.05,1.09,1.64,2.71,2.82,3.01c1.88,0.48,3.43-1.04,3.24-2.91C201.56,67.68,200.19,66.49,199.37,65.24z M239.02,161.93
			c0.96-8.16-1.04-14.87-7.47-20.1c-6.21-5.05-15.81-2.37-19.4,3.79c-0.48,0.82-0.95,1.63-1.43,2.45c0.18-4.16,1.85-7.53,4.68-10.45
			c0.84-0.86,1.51-2.37,1.45-3.53c-0.3-5.41-0.7-10.83-1.44-16.2c-0.3-2.2-1.54-4.28-2.5-6.79c-3.18,2.75-5.79,4.81-8.14,7.13
			c-0.85,0.85-1.51,2.32-1.53,3.51c-0.12,9.64-0.03,19.29-0.09,28.94c-0.02,3.91-1.67,5.62-5.47,5.63
			c-15.07,0.05-30.14,0.05-45.21-0.01c-4.1-0.02-5.6-1.66-5.6-5.75c-0.02-9.34,0.01-18.69-0.04-28.03c-0.01-1.03-0.12-2.4-0.76-3.03
			c-2.74-2.73-5.7-5.24-9.2-8.39c-0.94,2.7-2.03,4.76-2.32,6.93c-0.69,5.17-1.1,10.39-1.38,15.6c-0.06,1.15,0.64,2.65,1.49,3.48
			c3.11,3.03,5.12,6.5,5.4,10.88c-0.47-0.41-0.77-0.9-1.06-1.4c-4.9-8.6-15.36-10.01-22.44-3.08c-5.19,5.08-6.47,11.33-5.63,18.42
			C153.8,161.93,196.43,161.93,239.02,161.93z M175.03,154.54c-7.53,0-15.06-0.06-22.59,0.03c-2.85,0.04-3.97-1.15-3.95-3.95
			c0.07-9.44,0.09-18.87,0-28.31c-0.02-2.72,1-3.99,3.76-4.32c7.27-0.87,14.51-1.99,21.78-2.91c1.26-0.16,2.59,0.07,3.87,0.25
			c6.66,0.89,13.31,1.88,19.98,2.7c2.43,0.3,3.53,1.34,3.51,3.87c-0.07,9.64-0.08,19.28-0.01,28.91c0.02,2.7-1.07,3.78-3.78,3.75
			c-7.53-0.09-15.06-0.03-22.59-0.03C175.03,154.53,175.03,154.53,175.03,154.54z M188.36,152.26c2.65,0,5.21,0.34,7.59-0.15
			c1.13-0.23,2.73-2.03,2.76-3.16c0.24-8.23,0.24-16.48,0.01-24.71c-0.03-1.2-1.46-3.01-2.62-3.38c-2.4-0.77-5.06-0.76-7.75-1.08
			C188.36,130.75,188.36,141.35,188.36,152.26z M161.53,119.75c-2.73,0.33-5.19,0.35-7.45,1.03c-1.17,0.35-2.8,1.87-2.82,2.9
			c-0.23,8.52-0.23,17.04-0.01,25.56c0.03,1.03,1.64,2.67,2.73,2.88c2.39,0.44,4.92,0.14,7.55,0.14
			C161.53,141.33,161.53,130.75,161.53,119.75z M173.21,152.19c0-11.4,0-22.49,0-33.86c-2.08,0.22-3.94,0.5-5.81,0.59
			c-1.94,0.09-2.45,1-2.43,2.87c0.09,9.53,0.04,19.06,0.05,28.59c0,0.57,0.17,1.14,0.27,1.81
			C167.91,152.19,170.39,152.19,173.21,152.19z M176.83,118.25c0,11.55,0,22.64,0,33.82c2.75,0,5.29,0,7.89,0
			c0-11.03,0-21.82,0-32.82C182.08,118.92,179.63,118.61,176.83,118.25z M211.46,95.99c0,4-0.03,7.57,0.03,11.14
			c0.01,0.53,0.28,1.2,0.66,1.54c1.46,1.33,3.01,2.55,4.46,3.75c1.7-1.63,3.7-3.55,5.36-5.14
			C218.43,103.48,215.12,99.93,211.46,95.99z M128.28,106.59c1.77,2.09,3.62,4.27,5.17,6.11c7.15-3.98,4.8-10.47,5.02-15.91
			C134.95,100.17,131.38,103.61,128.28,106.59z M127.86,103.64c6.25-5.1,10.27-9.66,10.42-11.88c-3.4,0-6.78,0-10.42,0
			C127.86,95.67,127.86,99.55,127.86,103.64z M222.1,103.09c0-3.73,0-7.5,0-11.32c-3.63,0-7.02,0-10.42,0
			C211.89,93.98,219.34,101.93,222.1,103.09z"/>
	</g>
</g>
</svg>
