<?xml version="1.0" encoding="utf-8"?>
<!-- Generator: Adobe Illustrator 27.8.1, SVG Export Plug-In . SVG Version: 6.00 Build 0)  -->
<svg version="1.1" xmlns="http://www.w3.org/2000/svg" xmlns:xlink="http://www.w3.org/1999/xlink" x="0px" y="0px"
	 viewBox="0 0 350 230" style="enable-background:new 0 0 350 230;" xml:space="preserve">
<style type="text/css">
	.st0{fill:#009EFF;}
	.st1{fill:#FF8500;}
	.st2{fill:#9B3C00;}
	.st3{fill:#660045;}
	.st4{fill:#00576B;}
	.st5{fill:#564F2C;}
	.st6{fill:#FFA354;}
	.st7{fill:#002760;}
	.st8{fill:#4C0037;}
	.st9{fill:#7C0B00;}
	.st10{fill:#144703;}
	.st11{fill:#2C6DC9;}
	.st12{fill:#3B243C;}
	.st13{fill:#001EA4;}
	.st14{fill:#8D5300;}
	.st15{fill:#30A976;}
	.st16{fill:#A02400;}
	.st17{fill:#0092FF;}
	.st18{fill:#60086C;}
	.st19{fill:#520013;}
	.st20{fill:#00AB7B;}
</style>
<g id="Layer_1">
</g>
<g id="Layer_2">
</g>
<g id="Layer_3">
	<path class="st3" d="M211.53,119.34v4.76h0.33v-4.77C211.75,119.34,211.64,119.34,211.53,119.34z M211.53,119.34v4.76h0.33v-4.77
		C211.75,119.34,211.64,119.34,211.53,119.34z M174.24,121.9c-0.2-0.63-0.66-1.23-1.12-1.73c-0.76-0.81-1.55-0.84-2.35,0.15
		c3.9,1.04,4.46,9.36,1.11,14.5c0.15,0.14,0.31,0.28,0.46,0.42c0.6-0.75,1.42-1.41,1.76-2.26
		C175.54,129.32,175.43,125.59,174.24,121.9z M211.53,119.34v4.76h0.33v-4.77C211.75,119.34,211.64,119.34,211.53,119.34z
		 M221.05,117.88v6.97C222.15,122.49,222.37,120.1,221.05,117.88z M221.05,117.88v6.97C222.15,122.49,222.37,120.1,221.05,117.88z
		 M211.53,119.34v4.76h0.33v-4.77C211.75,119.34,211.64,119.34,211.53,119.34z M174.24,121.9c-0.2-0.63-0.66-1.23-1.12-1.73
		c-0.76-0.81-1.55-0.84-2.35,0.15c3.9,1.04,4.46,9.36,1.11,14.5c0.15,0.14,0.31,0.28,0.46,0.42c0.6-0.75,1.42-1.41,1.76-2.26
		C175.54,129.32,175.43,125.59,174.24,121.9z M174.24,121.9c-0.2-0.63-0.66-1.23-1.12-1.73c-0.76-0.81-1.55-0.84-2.35,0.15
		c3.9,1.04,4.46,9.36,1.11,14.5c0.15,0.14,0.31,0.28,0.46,0.42c0.6-0.75,1.42-1.41,1.76-2.26
		C175.54,129.32,175.43,125.59,174.24,121.9z M211.53,119.34v4.76h0.33v-4.77C211.75,119.34,211.64,119.34,211.53,119.34z
		 M221.05,117.88v6.97C222.15,122.49,222.37,120.1,221.05,117.88z M221.05,117.88v6.97C222.15,122.49,222.37,120.1,221.05,117.88z
		 M211.53,119.34v4.76h0.33v-4.77C211.75,119.34,211.64,119.34,211.53,119.34z M174.24,121.9c-0.2-0.63-0.66-1.23-1.12-1.73
		c-0.76-0.81-1.55-0.84-2.35,0.15c3.9,1.04,4.46,9.36,1.11,14.5c0.15,0.14,0.31,0.28,0.46,0.42c0.6-0.75,1.42-1.41,1.76-2.26
		C175.54,129.32,175.43,125.59,174.24,121.9z M227.08,119.06c-0.09-1.82-0.16-3.85-2.72-4.17c-0.19-0.02-0.4-0.26-0.51-0.44
		c-1.37-2.29-3.54-2.49-5.92-2.47c-8.43,0.08-16.86,0.07-25.28,0.13c-1.42,0.01-1.98-0.46-2.25-1.95c-0.23-1.35-0.86-2.9-1.83-3.79
		c-2.93-2.72-4.14-5.92-3.68-9.83c0.05-0.4,0.02-0.81,0.01-1.22c-0.27-8.54-0.56-17.07-0.79-25.61c-0.05-1.72-0.66-2.86-2.34-3.4
		c-3.26-1.04-6.46-2.32-9.78-3.13c-4.42-1.08-8.82-2.49-13.54-1.6c-4.17,0.79-8.39,1.21-12.59,1.8c-6.27,0.9-12.53,1.79-18.79,2.71
		c-1.8,0.27-2.87,1.23-3.18,3.15c-0.74,4.59-1.49,9.18-2.49,13.71c-0.38,1.75-1.24,3.49-2.25,4.98c-1.1,1.61-1.69,3.24-1.82,5.15
		c-0.23,3.6-0.63,7.18-0.9,10.77c-0.48,6.33-1.75,12.63,0.26,19c1.36,4.31,1.33,4.64,5.9,5.06c0.23,0.02,0.46,0.09,0.69,0.09
		c0.88,0,1.26,0.35,1.44,1.3c1.05,5.47,5.07,9.2,10.23,9.65c5.84,0.51,10.43-2.23,12.55-7.59c0.36-0.89,0.8-1.12,1.68-1.03
		c2.02,0.23,4.04,0.43,6.07,0.56c0.9,0.06,1.27,0.4,1.48,1.32c1.33,6.05,6.05,9.49,12.51,9.21c5.51-0.23,9.88-4.35,10.76-10.07
		c0.06-0.43,0.38-1.07,0.72-1.18c1.84-0.61,2.1-1.98,1.97-3.61c-0.05-0.64-0.1-1.28-0.07-1.91c0.09-1.41,0.9-2.07,2.3-2.03
		c1.33,0.04,2.04,0.69,2.06,2.05c0.01,0.81,0.1,1.62,0.08,2.44c-0.03,1.34,0.55,1.94,1.9,2.19c9.88,1.83,19.82,2.5,29.83,1.49
		c0.67-0.07,1.32-0.3,1.98-0.45c-0.01,0.01-0.02,0.03-0.03,0.04c1.49-0.17,2.33-1.12,2.97-2.38c0.28-0.55,0.74-1,1.12-1.48
		c0.63-0.81,1.61-1.54,1.83-2.44C227.07,122.45,227.16,120.72,227.08,119.06z M164.25,66.5c2.27,0.43,4.53,0.95,6.77,1.52
		c1.19,0.3,1.59,1.24,1.58,2.4c-0.02,1.91-0.01,3.82-0.01,5.74h-0.3c0,1.86-0.01,3.71,0.01,5.57c0.01,1.5-0.62,2.4-2.21,2.56
		c-3.18,0.31-6.34,0.66-9.52,0.99c-1.39,0.15-1.98-0.52-1.76-1.84c0.81-4.98,1.62-9.95,2.51-14.92
		C161.6,66.97,162.68,66.2,164.25,66.5z M118.69,103.87c0.11-2.03,0.26-4.06,0.31-6.08c0.03-1.26,0.53-1.94,1.83-2.03
		c3.29-0.23,6.46-0.29,9.08,2.35c1.36,1.37,3.55,1.15,5.05-0.35c1.78-1.78,3.86-2.42,6.3-2.4c1.97,0.02,3.94-0.17,5.91-0.18
		c2.28-0.01,2.75,0.47,2.5,2.65c-0.3,2.53-0.75,5.05-1.15,7.57c-0.23,1.44-1.14,2.08-2.56,2.08h-12.53v-0.06
		c-3.71,0-7.43-0.09-11.13,0.03C119.08,107.55,118.51,107.09,118.69,103.87z M178.13,130.44c-0.38,1.94-1.18,3.93-2.28,5.55
		c-2,2.91-5.65,2.45-6.78-0.88c-0.88-2.6-1.13-5.41-1.75-8.56c0.64-2.42,1.07-5.2,2.12-7.71c1.46-3.49,4.64-3.69,6.89-0.6
		C179.03,121.96,178.95,126.22,178.13,130.44z M179.32,107.92c-0.52,0.06-1.05,0.01-1.57,0.02c-4.29,0.11-7.16,2.05-8.57,6.13
		c-1.04,3.01-1.9,6.1-2.67,9.19c-0.38,1.52-1.17,2.43-2.65,2.55c-3.06,0.26-6.15,0.66-9.2,0.52c-11.31-0.53-22.62-1.26-33.93-1.92
		c-0.88-0.05-1.91-0.13-1.82-1.36c0.11-1.41,1.15-1.04,2.11-0.98c7.94,0.44,15.89,0.88,23.85,1.21c5.05,0.2,10.1,0.26,15.16,0.29
		c4.12,0.02,4.45-0.32,5.4-4.27c0.4-1.62,0.84-3.24,1.34-5.18c-7.89,1.09-15.16,3.74-22.61,5.4c-0.13-0.19-0.25-0.29-0.24-0.37
		c0.52-3.65,0.35-3.84-3.38-3.84c-5.23-0.01-10.46-0.04-15.69-0.07c-3.29-0.02-3.36,0.05-3.47,3.5c-1.27-1.67-2.53-3.33-4.1-5.41
		c1.15-0.12,1.75-0.24,2.33-0.24c15.05-0.14,30.1-0.28,45.15-0.38c1.66-0.01,2.66-0.7,3.38-2.21c0.8-1.66,1.72-3.31,2.85-4.76
		c2.04-2.59,4.92-3.58,8.16-3.62c2.19-0.02,2.8,0.41,2.89,2.06C182.16,106.4,181.21,107.72,179.32,107.92z M212.96,128.49
		c-1.46,2.65-3.95,2.54-5.67,0.07c-2.39-3.43-2.39-10.13-0.01-13.56c1.76-2.53,4.18-2.67,5.66,0c1.12,2,1.56,4.38,2.36,6.76
		C214.52,124.12,214.07,126.48,212.96,128.49z M223.46,126.67c-0.55,1.36-1.76,2.44-2.68,3.65c-1.91,0.05-3.16-0.97-3.91-2.62
		c-1.79-3.96-1.79-7.99-0.12-11.97c0.58-1.39,1.49-2.74,3.28-2.7c1.79,0.03,2.62,1.41,3.2,2.81
		C224.71,119.4,224.92,123.09,223.46,126.67z M221.05,124.85c1.11-2.36,1.32-4.75,0-6.97V124.85z M211.53,124.1h0.33v-4.77
		c-0.1,0.01-0.22,0.01-0.33,0.01V124.1z M173.11,120.16c-0.76-0.81-1.55-0.84-2.35,0.15c3.9,1.04,4.46,9.36,1.11,14.5
		c0.15,0.14,0.31,0.28,0.46,0.42c0.6-0.75,1.42-1.41,1.76-2.26c1.44-3.65,1.33-7.37,0.14-11.07
		C174.03,121.26,173.58,120.66,173.11,120.16z M174.24,121.9c-0.2-0.63-0.66-1.23-1.12-1.73c-0.76-0.81-1.55-0.84-2.35,0.15
		c3.9,1.04,4.46,9.36,1.11,14.5c0.15,0.14,0.31,0.28,0.46,0.42c0.6-0.75,1.42-1.41,1.76-2.26
		C175.54,129.32,175.43,125.59,174.24,121.9z M211.53,119.34v4.76h0.33v-4.77C211.75,119.34,211.64,119.34,211.53,119.34z
		 M221.05,117.88v6.97C222.15,122.49,222.37,120.1,221.05,117.88z M221.05,117.88v6.97C222.15,122.49,222.37,120.1,221.05,117.88z
		 M211.53,119.34v4.76h0.33v-4.77C211.75,119.34,211.64,119.34,211.53,119.34z M174.24,121.9c-0.2-0.63-0.66-1.23-1.12-1.73
		c-0.76-0.81-1.55-0.84-2.35,0.15c3.9,1.04,4.46,9.36,1.11,14.5c0.15,0.14,0.31,0.28,0.46,0.42c0.6-0.75,1.42-1.41,1.76-2.26
		C175.54,129.32,175.43,125.59,174.24,121.9z M211.53,119.34v4.76h0.33v-4.77C211.75,119.34,211.64,119.34,211.53,119.34z
		 M221.05,117.88v6.97C222.15,122.49,222.37,120.1,221.05,117.88z M221.05,117.88v6.97C222.15,122.49,222.37,120.1,221.05,117.88z
		 M211.53,119.34v4.76h0.33v-4.77C211.75,119.34,211.64,119.34,211.53,119.34z M182.06,69.55c0-0.72-0.94-1.85-1.66-2.06
		c-5.74-1.67-11.54-3.17-17.31-4.71c-1.59-0.42-2.93,0.07-4.23,1.03c-0.7,0.52-1.59,0.93-2.45,1.04c-9.57,1.16-19.15,2.23-28.73,3.4
		c-0.9,0.11-1.74,0.73-2.61,1.11c0.07,0.2,0.14,0.4,0.21,0.6c0.49,0,1,0.05,1.48-0.01c5.94-0.72,11.88-1.44,17.82-2.18
		c3.29-0.41,6.57-0.86,9.86-1.23c3.49-0.39,4.23,0.42,3.49,3.89c-0.84,3.98-1.73,7.94-2.64,11.91c-0.62,2.74-1.64,3.6-4.41,3.84
		c-0.58,0.05-1.16,0.05-1.74,0.08c-8.71,0.36-17.42,0.7-26.13,1.1c-0.8,0.03-1.59,0.44-2.39,0.67c0.05,0.2,0.1,0.4,0.15,0.59
		c10.73-0.33,21.45-0.66,32.33-1c-0.1,2.86-0.97,3.72-3.59,3.82c-9.29,0.38-18.58,0.77-27.87,1.17c-3.28,0.14-3.81,0.7-4.01,3.91
		c-0.17,2.67-0.37,5.33-0.65,7.99c-0.38,3.69,0.72,4.95,4.42,4.86c14.24-0.33,28.47-0.7,42.71-0.97c2.33-0.05,3.96-0.87,5.2-2.82
		c1.66-2.61,4.04-4.35,7.12-4.88c2.19-0.38,3.61-1.6,4.31-3.6c0.54-1.52,1.11-3.13,1.14-4.71
		C182.05,84.77,182.11,77.16,182.06,69.55z M149.68,97.84c-0.3,2.53-0.75,5.05-1.15,7.57c-0.23,1.44-1.14,2.08-2.56,2.08h-12.53
		v-0.06c-3.71,0-7.43-0.09-11.13,0.03c-3.23,0.1-3.79-0.36-3.61-3.57c0.11-2.03,0.26-4.06,0.31-6.08c0.03-1.26,0.53-1.94,1.83-2.03
		c3.29-0.23,6.46-0.29,9.08,2.35c1.36,1.37,3.55,1.15,5.05-0.35c1.78-1.78,3.86-2.42,6.3-2.4c1.97,0.02,3.94-0.17,5.91-0.18
		C149.45,95.18,149.93,95.65,149.68,97.84z M172.6,76.16h-0.3c0,1.86-0.01,3.71,0.01,5.57c0.01,1.5-0.62,2.4-2.21,2.56
		c-3.18,0.31-6.34,0.66-9.52,0.99c-1.39,0.15-1.98-0.52-1.76-1.84c0.81-4.98,1.62-9.95,2.51-14.92c0.27-1.55,1.36-2.32,2.93-2.01
		c2.27,0.43,4.53,0.95,6.77,1.52c1.19,0.3,1.59,1.24,1.58,2.4C172.58,72.34,172.6,74.25,172.6,76.16z M174.24,121.9
		c-0.2-0.63-0.66-1.23-1.12-1.73c-0.76-0.81-1.55-0.84-2.35,0.15c3.9,1.04,4.46,9.36,1.11,14.5c0.15,0.14,0.31,0.28,0.46,0.42
		c0.6-0.75,1.42-1.41,1.76-2.26C175.54,129.32,175.43,125.59,174.24,121.9z M211.53,119.34v4.76h0.33v-4.77
		C211.75,119.34,211.64,119.34,211.53,119.34z M226.66,107.31c-9.04-1.2-18.08-2.37-27.12-3.59c-3.03-0.41-3.46-0.95-3.41-4.1
		c0.04-2.67,0.18-5.34,0.2-8.01c0.08-12.2,0.13-24.41,0.19-36.61c0.01-2.85,0.56-3.19,3.2-1.93c4.3,2.05,8.58,4.14,12.87,6.2
		c2.22,1.07,4.46,2.1,6.69,3.15c-7.5-4.7-15.17-9.06-22.8-13.5c-1.57-0.91-3.1-1.09-4.84-0.74c-12.13,2.4-24.27,4.77-36.41,7.14
		c-3.2,0.62-3.72,1.53-2.54,5.06c0.68-0.38,1.32-0.71,1.94-1.09c0.98-0.61,1.87-1.62,2.93-1.83c7.85-1.58,15.74-3,23.61-4.49
		c3.25-0.61,6.5-1.27,9.75-1.86c2.04-0.37,2.49,0.04,2.54,2.12c0.01,0.35-0.01,0.7-0.02,1.05c-0.19,16.91-0.38,33.82-0.57,50.73
		c-0.02,2.01,0.3,2.4,2.25,2.46c13.07,0.36,26.14,0.69,39.21,1.04c0.02-0.03,0.04-0.06,0.06-0.09
		C231.83,108.02,229.25,107.65,226.66,107.31z M182.06,69.55c0-0.72-0.94-1.85-1.66-2.06c-5.74-1.67-11.54-3.17-17.31-4.71
		c-1.59-0.42-2.93,0.07-4.23,1.03c-0.7,0.52-1.59,0.93-2.45,1.04c-9.57,1.16-19.15,2.23-28.73,3.4c-0.9,0.11-1.74,0.73-2.61,1.11
		c0.07,0.2,0.14,0.4,0.21,0.6c0.49,0,1,0.05,1.48-0.01c5.94-0.72,11.88-1.44,17.82-2.18c3.29-0.41,6.57-0.86,9.86-1.23
		c3.49-0.39,4.23,0.42,3.49,3.89c-0.84,3.98-1.73,7.94-2.64,11.91c-0.62,2.74-1.64,3.6-4.41,3.84c-0.58,0.05-1.16,0.05-1.74,0.08
		c-8.71,0.36-17.42,0.7-26.13,1.1c-0.8,0.03-1.59,0.44-2.39,0.67c0.05,0.2,0.1,0.4,0.15,0.59c10.73-0.33,21.45-0.66,32.33-1
		c-0.1,2.86-0.97,3.72-3.59,3.82c-9.29,0.38-18.58,0.77-27.87,1.17c-3.28,0.14-3.81,0.7-4.01,3.91c-0.17,2.67-0.37,5.33-0.65,7.99
		c-0.38,3.69,0.72,4.95,4.42,4.86c14.24-0.33,28.47-0.7,42.71-0.97c2.33-0.05,3.96-0.87,5.2-2.82c1.66-2.61,4.04-4.35,7.12-4.88
		c2.19-0.38,3.61-1.6,4.31-3.6c0.54-1.52,1.11-3.13,1.14-4.71C182.05,84.77,182.11,77.16,182.06,69.55z M149.68,97.84
		c-0.3,2.53-0.75,5.05-1.15,7.57c-0.23,1.44-1.14,2.08-2.56,2.08h-12.53v-0.06c-3.71,0-7.43-0.09-11.13,0.03
		c-3.23,0.1-3.79-0.36-3.61-3.57c0.11-2.03,0.26-4.06,0.31-6.08c0.03-1.26,0.53-1.94,1.83-2.03c3.29-0.23,6.46-0.29,9.08,2.35
		c1.36,1.37,3.55,1.15,5.05-0.35c1.78-1.78,3.86-2.42,6.3-2.4c1.97,0.02,3.94-0.17,5.91-0.18
		C149.45,95.18,149.93,95.65,149.68,97.84z M172.6,76.16h-0.3c0,1.86-0.01,3.71,0.01,5.57c0.01,1.5-0.62,2.4-2.21,2.56
		c-3.18,0.31-6.34,0.66-9.52,0.99c-1.39,0.15-1.98-0.52-1.76-1.84c0.81-4.98,1.62-9.95,2.51-14.92c0.27-1.55,1.36-2.32,2.93-2.01
		c2.27,0.43,4.53,0.95,6.77,1.52c1.19,0.3,1.59,1.24,1.58,2.4C172.58,72.34,172.6,74.25,172.6,76.16z M174.24,121.9
		c-0.2-0.63-0.66-1.23-1.12-1.73c-0.76-0.81-1.55-0.84-2.35,0.15c3.9,1.04,4.46,9.36,1.11,14.5c0.15,0.14,0.31,0.28,0.46,0.42
		c0.6-0.75,1.42-1.41,1.76-2.26C175.54,129.32,175.43,125.59,174.24,121.9z M174.24,121.9c-0.2-0.63-0.66-1.23-1.12-1.73
		c-0.76-0.81-1.55-0.84-2.35,0.15c3.9,1.04,4.46,9.36,1.11,14.5c0.15,0.14,0.31,0.28,0.46,0.42c0.6-0.75,1.42-1.41,1.76-2.26
		C175.54,129.32,175.43,125.59,174.24,121.9z M211.53,119.34v4.76h0.33v-4.77C211.75,119.34,211.64,119.34,211.53,119.34z
		 M211.53,119.34v4.76h0.33v-4.77C211.75,119.34,211.64,119.34,211.53,119.34z M220.79,130.32L220.79,130.32
		c-0.01,0.02-0.02,0.03-0.03,0.05l0.05-0.05H220.79z M221.05,117.88v6.97C222.15,122.49,222.37,120.1,221.05,117.88z M221.05,117.88
		v6.97C222.15,122.49,222.37,120.1,221.05,117.88z M174.24,121.9c-0.2-0.63-0.66-1.23-1.12-1.73c-0.76-0.81-1.55-0.84-2.35,0.15
		c3.9,1.04,4.46,9.36,1.11,14.5c0.15,0.14,0.31,0.28,0.46,0.42c0.6-0.75,1.42-1.41,1.76-2.26
		C175.54,129.32,175.43,125.59,174.24,121.9z M211.53,119.34v4.76h0.33v-4.77C211.75,119.34,211.64,119.34,211.53,119.34z
		 M221.05,117.88v6.97C222.15,122.49,222.37,120.1,221.05,117.88z"/>
</g>
<g id="Layer_4">
</g>
<g id="Layer_5">
</g>
<g id="Layer_6">
</g>
<g id="Layer_7">
</g>
<g id="Layer_8">
</g>
<g id="Layer_9">
</g>
<g id="Layer_10">
</g>
<g id="Layer_11">
</g>
<g id="Layer_12">
</g>
<g id="Layer_13">
</g>
<g id="Layer_14">
</g>
<g id="Layer_15">
</g>
</svg>
