<?xml version="1.0" encoding="utf-8"?>
<!-- Generator: Adobe Illustrator 27.8.1, SVG Export Plug-In . SVG Version: 6.00 Build 0)  -->
<svg version="1.1" xmlns="http://www.w3.org/2000/svg" xmlns:xlink="http://www.w3.org/1999/xlink" x="0px" y="0px"
	 viewBox="0 0 350 230" style="enable-background:new 0 0 350 230;" xml:space="preserve">
<style type="text/css">
	.st0{fill:#009EFF;}
	.st1{fill:#FF8500;}
	.st2{fill:#9B3C00;}
	.st3{fill:#660045;}
	.st4{fill:#00576B;}
	.st5{fill:#564F2C;}
	.st6{fill:#FFA354;}
	.st7{fill:#002760;}
	.st8{fill:#4C0037;}
	.st9{fill:#7C0B00;}
	.st10{fill:#144703;}
	.st11{fill:#2C6DC9;}
	.st12{fill:#3B243C;}
	.st13{fill:#001EA4;}
	.st14{fill:#8D5300;}
	.st15{fill:#30A976;}
	.st16{fill:#A02400;}
	.st17{fill:#0092FF;}
	.st18{fill:#60086C;}
	.st19{fill:#520013;}
	.st20{fill:#00AB7B;}
</style>
<g id="Layer_1">
</g>
<g id="Layer_2">
</g>
<g id="Layer_3">
</g>
<g id="Layer_4">
	<path class="st4" d="M211.49,111.23c-2.71-0.25-5.18-0.48-7.65-0.71c-0.1-0.01-0.19-0.04-0.28-0.05c-3.31-0.46-3.31-0.46-3.31-3.74
		c0-13,0.01-26,0-39c0-1.79,0.26-3.46,1.77-4.65c1.67-1.3,3.6-1.39,5.47-0.76c4.91,1.65,9.77,3.43,14.64,5.19
		c0.33,0.12,0.78,0.53,0.79,0.82c0.06,2.62,0.04,5.25,0.04,8.07c-3.86-1.25-7.53-2.44-11.38-3.68c-0.06,0.54-0.13,0.94-0.13,1.33
		c-0.01,3.07,0.04,6.14-0.03,9.21c-0.02,1.02,0.35,1.42,1.3,1.67c2.59,0.69,5.14,1.54,7.74,2.2c1.26,0.32,1.84,0.81,1.74,2.23
		c-0.14,2.14-0.04,4.3-0.04,6.68c-3.61-0.94-7.06-1.83-10.68-2.77C211.49,99.3,211.49,105.13,211.49,111.23z M187.31,93.96
		c0-3.83,0-7.66,0-11.49c0-3.83-0.81-4.96-4.43-6.19c-1.71-0.58-2.55-0.03-2.65,1.79c-0.22,4.45-0.45,8.89-0.61,13.34
		c-0.04,1.07-0.1,1.99-1.46,2.09c0.04,0.59,0.08,1.05,0.12,1.63c2.98,0.22,5.88,0.43,9.03,0.65
		C187.31,94.99,187.31,94.48,187.31,93.96z M141.3,56.29c-0.18,5.17-0.36,10.33-0.52,15.5c-0.02,0.78-0.2,1.22-1.04,1.58
		c-0.95,0.41-1.69,1.29-2.56,1.99c0.25-6.36,0.49-12.76,0.75-19.17c0.06-1.41,0.82-2.34,1.89-2.24
		C141.26,54.08,141.33,55.17,141.3,56.29z M175.82,91.31c-13.76,0.17-27.31,0.33-41.1,0.5c0.39-1.9,0.75-3.71,1.13-5.51
		c0.43-2.11,0.85-4.23,1.3-6.33c0.4-1.85,1.2-2.5,3.05-2.64c10.47-0.72,20.94-1.47,31.42-2.18c0.89-0.06,1.93-0.13,2.65,0.26
		c0.68,0.37,1.45,1.33,1.47,2.06C175.89,82.01,175.82,86.57,175.82,91.31z M184.31,116.33c-0.31-0.29-0.6-0.59-0.93-0.85
		c-1.81-1.43-4.26-1.19-5.35,0.81c-2.56,4.7-3.03,9.67-0.86,14.65c0.51,1.18,1.73,2.06,2.58,3.04c-2.31,0-4.79,0.04-7.26-0.01
		c-1.52-0.03-2.15-1.21-2.53-2.41c-0.49-1.59-0.77-3.25-1.16-5.01c-0.34-0.02-0.76-0.08-1.18-0.08c-7.92-0.01-15.82,0.01-23.74-0.03
		c-1.02-0.01-1.37,0.33-1.64,1.27c-1.77,6.06-6.25,7.59-12.12,5.35c-2.72-1.04-3.51-3.55-3.68-6.19c-0.08-1.26-0.32-1.77-1.71-1.68
		c-1.79,0.12-2.9-1.11-2.91-2.91c0-0.34,0.05-0.68,0-1.01c-0.45-2.83,0.4-5.13,2.61-6.99c0.38-0.31,0.58-0.97,0.67-1.5
		c0.34-1.86,1.43-2.85,3.33-2.89c0.86-0.02,1.71-0.01,2.85-0.01c-0.68-2.36-1.25-4.51-1.96-6.62c-0.09-0.26-0.87-0.42-1.33-0.42
		c-1.92-0.02-2.52-0.48-2.56-2.09c-0.05-1.92,0.62-2.62,2.52-2.66c11.17-0.23,22.34-0.47,33.51-0.7c2.64-0.06,5.27-0.15,7.91-0.2
		c1.6-0.03,2.09,0.44,2.15,1.99c0.1,2.29-0.22,2.78-1.96,2.89c-1.39,0.09-2.78,0.07-4.17,0.18c-0.37,0.03-0.91,0.26-1.02,0.53
		c-0.81,2.09-1.54,4.21-2.4,6.63c1.89,0,3.54-0.01,5.2,0c3.65,0.01,4.66,1.16,4.23,5.05c-0.51,0.04-1.06,0.1-1.61,0.1
		c-13.14,0.01-26.28,0.1-39.42-0.07c-2.65-0.04-3.68,1.38-4.99,3.43h43.48c0.34,2.86,0.66,5.63,1,8.56c1.95-0.18,3.4-0.99,4.06-2.66
		c0.64-1.63,0.94-3.4,1.38-5.1c0.49-1.9,0.88-3.83,1.47-5.69c0.47-1.47,1.57-2.37,3.15-2.61c1.87-0.29,2.95,0.22,3.65,1.99
		C184.05,113.65,184.27,114.96,184.31,116.33z M133.03,102.57c0.7,2.4,1.22,4.38,1.87,6.32c0.1,0.31,0.67,0.69,1.02,0.69
		c7.1,0.01,14.2-0.03,21.29-0.1c0.33,0,0.87-0.19,0.96-0.43c0.81-2.17,1.55-4.36,2.28-6.48H133.03z M228.3,124.55
		c0.04,1.24-0.72,2.33-1.99,2.39c-2.44,0.12-4.89,0.09-7.34,0.01c-0.26-0.01-0.67-0.66-0.75-1.07c-0.3-1.69-0.48-3.41-0.76-5.1
		c-0.08-0.47-0.29-0.92-0.51-1.35c-0.56-1.11-1.27-2.12-2.67-2.09c-1.44,0.02-2.3,1.01-2.72,2.24c-1.14,3.37-1.35,6.85-0.73,10.35
		c0.31,1.74,1.38,2.99,3.01,3.94c-6.48,0.31-8.45,0.66-9.6-5.96h-19.29v-9.21c1.33,0,2.65-0.04,3.98,0.01
		c0.95,0.04,1.24-0.37,1.23-1.28c-0.21-12.41-0.37-24.83-0.58-37.24c-0.04-2.26-1.1-3.92-3.13-4.95c-0.47-0.24-0.94-0.48-1.41-0.71
		c-6.72-3.36-6.71-3.27-14.28-2.59c-6.44,0.57-12.92,0.89-19.37,1.32c-2.72,0.18-5.43,0.37-8.16,0.56c0-2.76-0.32-5.43,0.07-7.98
		c0.61-4.01,3.87-6.55,8.12-6.84c9.04-0.61,18.08-1.18,27.12-1.76c3.4-0.22,6.8-0.47,10.19-0.64c5.18-0.26,8.82,2.89,9.31,8.05
		c0.08,0.76,0.08,1.54,0.08,2.3c0.01,14.63,0.01,29.26,0.01,43.89c0,2.03,0.01,2,1.98,2.23c7.9,0.94,15.8,1.91,23.7,2.84
		c1.05,0.12,1.93,0.41,2.02,1.6c0.1,1.17-0.59,1.73-1.71,1.88c-1.33,0.19-0.67,1.25-0.79,1.95c-0.12,0.79,0.39,0.97,1.07,0.94
		c0.57-0.02,1.15-0.04,1.72,0.02C227.42,122.42,228.25,123.31,228.3,124.55z"/>
</g>
<g id="Layer_5">
</g>
<g id="Layer_6">
</g>
<g id="Layer_7">
</g>
<g id="Layer_8">
</g>
<g id="Layer_9">
</g>
<g id="Layer_10">
</g>
<g id="Layer_11">
</g>
<g id="Layer_12">
</g>
<g id="Layer_13">
</g>
<g id="Layer_14">
</g>
<g id="Layer_15">
</g>
</svg>
