<?xml version="1.0" encoding="utf-8"?>
<!-- Generator: Adobe Illustrator 27.8.1, SVG Export Plug-In . SVG Version: 6.00 Build 0)  -->
<svg version="1.1" xmlns="http://www.w3.org/2000/svg" xmlns:xlink="http://www.w3.org/1999/xlink" x="0px" y="0px"
	 viewBox="0 0 350 230" style="enable-background:new 0 0 350 230;" xml:space="preserve">
<style type="text/css">
	.st0{fill:#009EFF;}
	.st1{fill:#FF8500;}
	.st2{fill:#9B3C00;}
	.st3{fill:#660045;}
	.st4{fill:#00576B;}
	.st5{fill:#564F2C;}
	.st6{fill:#FFA354;}
	.st7{fill:#002760;}
	.st8{fill:#4C0037;}
	.st9{fill:#7C0B00;}
	.st10{fill:#144703;}
	.st11{fill:#2C6DC9;}
	.st12{fill:#3B243C;}
	.st13{fill:#001EA4;}
	.st14{fill:#8D5300;}
	.st15{fill:#30A976;}
	.st16{fill:#A02400;}
	.st17{fill:#0092FF;}
	.st18{fill:#60086C;}
	.st19{fill:#520013;}
	.st20{fill:#00AB7B;}
</style>
<g id="Layer_1">
</g>
<g id="Layer_2">
</g>
<g id="Layer_3">
</g>
<g id="Layer_4">
</g>
<g id="Layer_5">
	<path class="st5" d="M186.7,83.25c-0.32-5.57-0.65-11.13-0.99-16.7c-0.15-2.42-1.41-4.05-3.66-4.9c-2.52-0.96-4.58,0.16-6.55,1.53
		c-0.34,0.24-0.54,0.92-0.55,1.4c-0.04,4.87-0.07,9.75,0.01,14.62c0.04,2.26,1.44,3.76,3.62,4.11c2.6,0.42,5.22,0.74,8.05,1.13
		C186.67,83.93,186.72,83.59,186.7,83.25z M252.32,109.79c-0.18-3.31-2.64-5.55-6.4-5.7c-15.45-0.6-30.9-1.18-46.36-1.74
		c-2.19-0.08-4.12,0.65-5.29,2.57c-1.59,2.58-1.57,5.43-0.41,8.12c1.1,2.56,3.41,3.31,6.09,3.36c7.59,0.15,15.16,0.4,22.74,0.61
		c0.01-0.02,0.01-0.04,0.01-0.05c6.16,0.19,12.33,0.41,18.5,0.58c2.06,0.06,4.14,0.23,6.16-0.03
		C250.8,117.07,252.56,114.15,252.32,109.79z M254.01,86.89c-0.77-6.42-1.58-12.83-2.33-19.25c-0.53-4.41-2.67-6.41-7.12-6.71
		c-11.32-0.75-22.63-1.57-33.94-2.34c-4.99-0.34-9.97-0.71-14.96-0.93c-3.78-0.18-6.76,2.36-6.74,5.9
		c0.04,6.93,0.3,13.86,0.48,20.79c0,0.1,0.11,0.2,0.28,0.48c21.33,1.13,42.79,2.28,64.35,3.43
		C254.02,87.68,254.06,87.28,254.01,86.89z M249.21,122.46h-72.62v8.94c-0.01,3.4-1.97,5.66-4.93,5.69
		c-2.93,0.03-5.03-2.28-5.03-5.62c-0.02-6.17-0.01-12.35,0-18.52c0.01-2.91,0.79-3.98,3.94-5.11c-1.52-1.42-2.86-2.58-4.07-3.86
		c-0.44-0.46-0.81-1.21-0.82-1.83c-0.05-12.94-0.04-25.88-0.02-38.82c0-1.89,0.85-3.34,2.48-4.39c5.89-3.77,11.74-7.61,17.65-11.35
		c0.67-0.42,1.63-0.65,2.43-0.6c6.46,0.44,12.9,0.95,19.35,1.47c9.72,0.77,19.45,1.53,29.18,2.35c3.35,0.29,6.64,0.18,10.03-0.73
		v-2.36c0-2.48,0-2.45-2.45-2.65c-8.02-0.63-16.06-1.26-24.08-1.92c-10.73-0.87-21.44-1.76-32.17-2.6c-0.65-0.05-1.43,0.1-1.97,0.45
		c-7.41,4.78-14.8,9.58-22.17,14.42c-2.28,1.49-3.46,3.71-3.47,6.4c-0.04,6.94,0.02,13.88,0.04,20.83
		c0.01,6.94,0.04,13.88-0.01,20.82c0,0.52-0.4,1.36-0.79,1.48c-2.21,0.73-4.49,1.29-7.09,2.01v-5.48
		c0.02-16.12,0.02-32.23,0.05-48.35c0.01-2.81,0.94-3.66,3.72-3.71c3.36-0.06,6.71-0.35,10.05-0.16c3.48,0.2,5.16-2.41,7.53-4.06
		c-6.82-0.23-13.57-0.28-20.32-0.18c-1.12,0.02-2.29,0.54-3.32,1.05c-13.24,6.51-26.43,13.12-39.7,19.57
		c-4.28,2.08-6.12,5.24-6.09,9.95c0.11,14.23,0.02,28.46,0.07,42.69c0.01,1.46-0.39,2.2-1.85,2.35c-1.64,0.17-2.46,1.11-2.95,2.73
		c-1.03,3.49-2.34,6.9-3.51,10.34c-0.16,0.46-0.2,0.96-0.32,1.55c0.91,0,1.62,0.07,2.32-0.01c1.57-0.2,2.39,0.28,2.87,1.95
		c0.64,2.26,2.28,3.72,4.79,3.74c6.47,0.04,12.94,0.06,19.41-0.01c2.92-0.04,4.83-1.76,5.47-4.59c0.53-2.38,0.68-2.46,3.28-1.85
		c0.04,0.16,0.11,0.32,0.14,0.49c0.46,4.15,2.45,5.98,6.55,5.99c5.06,0.01,10.12,0.02,15.17,0c3.38-0.02,5.25-1.48,6.23-4.63
		c0.16-0.5,0.86-1.14,1.29-1.14c0.43,0.01,1.1,0.67,1.25,1.18c0.99,3.13,2.79,4.57,6.07,4.59c4.17,0.02,8.35,0.02,12.52,0
		c3.9-0.03,6.09-2.15,6.17-6.1c0.03-1.11,0.31-1.59,1.49-1.58c6.59,0.04,13.18,0.03,19.77,0.02c0.97,0,1.38,0.3,1.6,1.36
		c0.79,4.06,3.58,6.27,7.72,6.3c3,0.02,5.99,0.02,8.99,0c4.78-0.04,7.83-3.02,7.86-7.8c0.01-1.3,0.54-1.72,1.66-2.23
		c2.91-1.35,5.77-2.82,8.5-4.51C248.39,125.62,249.38,124.26,249.21,122.46z M142.2,107.54c-0.01,0.3-0.55,0.74-0.93,0.86
		c-7.06,2.19-14.15,4.34-21.22,6.49c-0.1,0.04-0.22-0.03-0.69-0.12v-1.93c0-14.69,0.03-29.39-0.03-44.09
		c-0.01-1.52,0.46-2.31,1.87-2.9c3.02-1.25,5.95-2.7,9.31-4.24v40.66c4.02-1.23,7.7-2.34,11.74-3.57
		C142.25,101.85,142.27,104.69,142.2,107.54z"/>
</g>
<g id="Layer_6">
</g>
<g id="Layer_7">
</g>
<g id="Layer_8">
</g>
<g id="Layer_9">
</g>
<g id="Layer_10">
</g>
<g id="Layer_11">
</g>
<g id="Layer_12">
</g>
<g id="Layer_13">
</g>
<g id="Layer_14">
</g>
<g id="Layer_15">
</g>
</svg>
