<?xml version="1.0" encoding="utf-8"?>
<!-- Generator: Adobe Illustrator 27.8.1, SVG Export Plug-In . SVG Version: 6.00 Build 0)  -->
<svg version="1.1" xmlns="http://www.w3.org/2000/svg" xmlns:xlink="http://www.w3.org/1999/xlink" x="0px" y="0px"
	 viewBox="0 0 350 230" style="enable-background:new 0 0 350 230;" xml:space="preserve">
<style type="text/css">
	.st0{fill:#009EFF;}
	.st1{fill:#FF8500;}
	.st2{fill:#9B3C00;}
	.st3{fill:#660045;}
	.st4{fill:#00576B;}
	.st5{fill:#564F2C;}
	.st6{fill:#FFA354;}
	.st7{fill:#002760;}
	.st8{fill:#4C0037;}
	.st9{fill:#7C0B00;}
	.st10{fill:#144703;}
	.st11{fill:#2C6DC9;}
	.st12{fill:#3B243C;}
	.st13{fill:#001EA4;}
	.st14{fill:#8D5300;}
	.st15{fill:#30A976;}
	.st16{fill:#A02400;}
	.st17{fill:#0092FF;}
	.st18{fill:#60086C;}
	.st19{fill:#520013;}
	.st20{fill:#00AB7B;}
</style>
<g id="Layer_1">
</g>
<g id="Layer_2">
</g>
<g id="Layer_3">
</g>
<g id="Layer_4">
</g>
<g id="Layer_5">
</g>
<g id="Layer_6">
	<g>
		<path d="M163.65,130.3c27.76-4.07,55.51-8.14,83.27-12.21c0.02,0.14,0.04,0.29,0.05,0.43c-10.02,2.37-20.04,4.73-30.05,7.1
			c-5.68,1.34-11.33,2.95-17.05,3.96c-4.52,0.8-9.11,1.11-13.68,1.23c-7.5,0.19-15.01,0.05-22.52,0.05
			C163.66,130.67,163.66,130.48,163.65,130.3z"/>
		<path class="st6" d="M194.85,63.94c4.46,1.65,8.92,3.3,13.38,4.95c14.13,5.21,28.27,10.42,42.38,15.67
			c0.8,0.3,1.44,1.03,2.16,1.55c-0.14,0.27-0.28,0.55-0.42,0.82c-5.2-0.67-10.39-1.35-15.59-2.02c-0.05,0.17-0.09,0.33-0.14,0.5
			c5.03,1.51,10.05,3.01,15.28,4.58c-1,5.61-1.98,11.08-2.96,16.56c-2.23,1.21-1.43,3.75-2.43,5.48c-0.37,0.63-1.04,1.44-1.66,1.52
			c-2.91,0.39-5.85,0.73-8.78,0.77c-2.46,0.03-2.42-2.23-2.95-3.91c-0.23-0.73-0.58-2-0.92-2.01c-1.24-0.05-2.67-0.57-3.55,1.2
			c-0.41,0.82-1.76,1.55-2.75,1.65c-4.83,0.49-9.68,0.75-14.52,1.11c-1.55,0.11-2.62-0.35-3.68-1.69c-0.64-0.81-2.34-0.77-3.5-1.1
			c-0.54,2.73-0.77,4.9-1.42,6.94c-0.87,2.71-2.2,3.32-5.03,3.51c-3.77,0.25-7.51,0.79-11.27,1.15c-2.16,0.21-4-0.3-5.16-2.4
			c-0.23-0.41-1.06-0.75-1.59-0.71c-9.24,0.74-18.48,1.53-27.71,2.39c-0.56,0.05-1.16,0.78-1.56,1.33
			c-0.32,0.44-0.35,1.09-0.53,1.64c-1.56,4.66-5.52,6.69-9.94,4.63c-1.44-0.67-2.47-2.51-3.36-4.01c-0.67-1.14-0.82-2.59-1.27-4.13
			c-1.5,0.07-3,0.19-4.51,0.21c-4.63,0.07-9.27,0.16-13.91,0.11c-1.32-0.01-2.19,0.16-2.71,1.51c-1.33,3.47-4.25,3.6-7.38,3.51
			c-2.71-0.07-4.16-1.65-4.96-3.84c-0.64-1.75-1.63-2.36-3.37-2.29c-0.92,0.03-1.85-0.19-2.72-0.3c-1.12-6.04,0.14-13.62,2.76-16.82
			c0,1.9,0.08,3.79-0.02,5.66c-0.11,2.01,0.45,3.13,2.73,3.09c6.37-0.1,12.73-0.06,19.1-0.15c0.47-0.01,1.28-0.57,1.36-0.98
			c1.08-5.82,2.06-11.65,3.11-17.74c-7.51-1.09-14.76-1.03-22.12-0.2c2.75-1.06,5.48-2.21,8.27-3.15c1.26-0.42,1.75-1.02,1.66-2.33
			c-0.1-1.37-0.17-2.78,0.05-4.12c0.12-0.73,0.88-1.35,1.35-2.02c0.23,0.12,0.47,0.24,0.7,0.35c0.09,0.89,0.17,1.78,0.27,2.78
			c1.9-2.55,2.19-5.29,0.62-6.27c0.46-1.26,1-2.52,1.39-3.83c0.5-1.72,1.28-2.93,3.31-3.11c0.66-0.06,1.42-0.9,1.84-1.57
			c3.08-4.79,7.03-8.54,12.88-11.02c-1.91,1.81-3.4,3.22-4.88,4.62c0.06,0.15,0.13,0.29,0.19,0.44c1.22-0.2,2.43-0.47,3.65-0.58
			c5.48-0.48,10.97-0.86,16.44-1.42c0.98-0.1,2.13-0.7,2.8-1.44c4.39-4.76,9.44-7.54,16.17-6.24c4.17,0.81,8.38,1.43,12.57,2.13
			c0.28,0.05,0.6,0.12,0.86,0.05c5.46-1.51,10.41,0.64,15.45,2.14c18.24,5.45,36.48,10.93,54.73,16.36c1.35,0.4,2.16,0.83,1.17,2.51
			c-19.68-4.2-39.4-8.4-59.11-12.61C195,63.55,194.92,63.75,194.85,63.94z M128.26,86.53c5.96,0,11.45,0.1,16.92-0.08
			c1.12-0.04,2.89-0.93,3.17-1.8c1.18-3.73,1.91-7.6,2.89-11.81c-6.54,0.53-12.57,1.01-18.6,1.55c-0.39,0.03-0.95,0.49-1.07,0.86
			C130.46,78.88,129.42,82.55,128.26,86.53z M186.99,56.43c-0.87,0-1.37-0.03-1.87,0c-3.56,0.23-3.55,0.24-3.55,3.73
			c0,12.53,0.03,25.07-0.03,37.6c-0.01,1.83,0.07,3.03,2.47,2.87c2.96-0.2,2.98-0.04,2.98-2.75c0-13.04,0-26.08,0-39.12
			C186.99,58.06,186.99,57.35,186.99,56.43z M237.42,104.19c-0.08-0.38-0.16-0.76-0.24-1.14c-3.75,0-7.49,0.07-11.24-0.01
			c-11.74-0.25-23.48-0.56-35.22-0.84c-2.41-0.06-2.87,0.48-3,2.62c-0.14,2.33,1.39,1.9,2.72,1.85c14.92-0.56,29.84-1.12,44.76-1.73
			C235.95,104.91,236.68,104.45,237.42,104.19z M130.07,74.58c-3.88,0.32-7.38,0.59-10.87,0.93c-0.34,0.03-0.81,0.43-0.92,0.76
			c-1.11,3.55-2.15,7.11-3.31,10.98c3.86-0.2,7.3-0.35,10.74-0.62c0.41-0.03,0.98-0.62,1.12-1.07
			C127.91,82.13,128.88,78.66,130.07,74.58z M248.35,100.11c-0.77-0.04-1.54-0.11-2.32-0.12c-18.48-0.25-36.96-0.51-55.45-0.71
			c-0.63-0.01-1.27,0.57-1.9,0.88c0.62,0.4,1.23,1.13,1.87,1.16c3.55,0.16,7.1,0.13,10.65,0.2c15,0.29,30,0.59,45,0.92
			C247.77,102.47,248.77,102.19,248.35,100.11z M140.58,117.39c0.77,2.42,1.22,4.88,2.32,6.99c1.3,2.51,3.48,2.42,5.13,0.12
			c2.43-3.38,2.43-10.67,0-14.06c-1.65-2.29-3.8-2.39-5.13,0.12C141.81,112.61,141.36,114.99,140.58,117.39z M124.88,104.32
			c11.33-6,23.75-7.23,35.92-9.42C149.2,91.55,128.65,97.13,124.88,104.32z M152.9,91.62c0.23,0.2,0.46,0.39,0.69,0.59
			c1.07-1.13,2.23-2.18,3.18-3.4c1.34-1.73,2.68-3.16,5.18-2.71c1.3,0.23,1.73-0.56,1.67-1.84c-0.09-1.95-0.14-3.92,0.01-5.86
			c0.14-1.8-0.54-2.45-2.29-2.47c-1.66-0.02-3.31-0.37-4.97-0.39c-0.54-0.01-1.48,0.47-1.57,0.88c-0.74,3.22-1.33,6.48-2.01,9.99
			c1.51,0,2.74,0,4.31,0c-0.71,0.9-1.18,1.51-1.64,2.09c-0.85-0.28-1.6-0.54-2.55-0.85C152.9,89.2,152.9,90.41,152.9,91.62z
			 M192.15,110.44c-0.93,0.07-1.9,0.02-2.79,0.25c-0.49,0.13-1.26,0.81-1.2,1.09c0.47,2.28,0.81,4.66,1.8,6.73
			c0.83,1.74,2.77,1.69,3.87,0.05c0.85-1.27,1.46-2.83,1.73-4.34C196.21,110.54,195.9,110.31,192.15,110.44z M123.7,109.61
			c2.56-0.41,4.84-0.77,7.12-1.13c2.61-0.42,3.46-1.42,3.41-4.03c-0.03-1.84-0.86-2.62-2.63-2.1c-1.87,0.54-3.7,1.27-5.45,2.12
			C124.18,105.42,123.55,107.19,123.7,109.61z M151.68,110.38c-0.02,0.39-0.04,0.78-0.07,1.17c3.04,0.73,6.2-0.18,9.27-0.16
			c3.17,0.02,6.35-0.3,9.53-0.49c3.17-0.19,6.35-0.41,9.52-0.61c0.03-0.27,0.06-0.54,0.09-0.81c-1.33-0.36-2.69-1.08-4-1.02
			c-5.41,0.26-10.81,0.76-16.21,1.19C157.1,109.86,154.39,110.13,151.68,110.38z M196.24,113.39c0.06,0.01,0.13,0.03,0.19,0.04
			c-0.04,0.5-0.09,1.01-0.13,1.51c-0.15,1.75,0.67,3,2.27,3.48c1.61,0.49,2.67-0.63,3.16-1.97c0.58-1.6,0.9-3.31,1.19-4.99
			c0.07-0.43-0.4-1.36-0.62-1.36c-1.79-0.01-3.63-0.05-5.33,0.4C196.51,110.62,196.47,112.38,196.24,113.39z M161.5,61.21
			c2.21-0.9,4.55-2.24,7.07-2.78c2.98-0.65,4.73,1.73,6.5,4.23c-0.24-3.39-2.02-5.71-4.4-6.18
			C167.36,55.81,163.02,58.18,161.5,61.21z M240.2,107.82c-1.09,0.04-2.67-0.24-2.39,1.85c0.22,1.62,0.31,3.5,2.36,3.95
			c1.21,0.26,2.41-2.15,2.42-4.33C242.59,107.59,241.52,107.71,240.2,107.82z M242.86,107.46c0.4,2.12-1,4.09,1.1,5.31
			c0.39,0.23,1.65-0.17,1.79-0.55c0.5-1.36,0.7-2.84,1.02-4.27C245.57,107.8,244.38,107.65,242.86,107.46z M100.87,106.86
			c5.92,0,11.85,0,17.77,0c0,0.12,0,0.23,0,0.35c-5.93,0-11.86,0-17.78,0C100.86,107.09,100.86,106.97,100.87,106.86z M120.26,95.47
			c-5.89,0-11.78,0-17.67,0c0,0.11,0,0.21,0.01,0.32c5.9,0,11.8,0,17.7,0C120.28,95.69,120.27,95.58,120.26,95.47z M101.57,103.35
			c5.83,0,11.66,0,17.5,0c0-0.12,0-0.25-0.01-0.37c-5.82,0-11.65,0-17.47,0C101.59,103.11,101.58,103.23,101.57,103.35z
			 M119.66,99.27c-5.9,0-11.79,0-17.69,0c0,0.11,0,0.22,0,0.33c5.85,0,11.69,0,17.54,0C119.56,99.49,119.61,99.38,119.66,99.27z
			 M159.2,76.56c-2.81-0.16-3.07,0.1-3.08,2.93c0,1.44,0.05,2.89-0.02,4.33c-0.05,1.2,0.5,1.75,1.62,1.8
			c0.91,0.04,1.82,0.01,2.84,0.01c0-3.03,0-5.82,0-8.87C160.03,76.68,159.62,76.58,159.2,76.56z"/>
	</g>
</g>
<g id="Layer_7">
</g>
<g id="Layer_8">
</g>
<g id="Layer_9">
</g>
<g id="Layer_10">
</g>
<g id="Layer_11">
</g>
<g id="Layer_12">
</g>
<g id="Layer_13">
</g>
<g id="Layer_14">
</g>
<g id="Layer_15">
</g>
</svg>
