<?xml version="1.0" encoding="utf-8"?>
<!-- Generator: Adobe Illustrator 27.8.1, SVG Export Plug-In . SVG Version: 6.00 Build 0)  -->
<svg version="1.1" xmlns="http://www.w3.org/2000/svg" xmlns:xlink="http://www.w3.org/1999/xlink" x="0px" y="0px"
	 viewBox="0 0 350 230" style="enable-background:new 0 0 350 230;" xml:space="preserve">
<style type="text/css">
	.st0{fill:#009EFF;}
	.st1{fill:#FF8500;}
	.st2{fill:#9B3C00;}
	.st3{fill:#660045;}
	.st4{fill:#00576B;}
	.st5{fill:#564F2C;}
	.st6{fill:#FFA354;}
	.st7{fill:#002760;}
	.st8{fill:#4C0037;}
	.st9{fill:#7C0B00;}
	.st10{fill:#144703;}
	.st11{fill:#2C6DC9;}
	.st12{fill:#3B243C;}
	.st13{fill:#001EA4;}
	.st14{fill:#8D5300;}
	.st15{fill:#30A976;}
	.st16{fill:#A02400;}
	.st17{fill:#0092FF;}
	.st18{fill:#60086C;}
	.st19{fill:#520013;}
	.st20{fill:#00AB7B;}
</style>
<g id="Layer_1">
</g>
<g id="Layer_2">
</g>
<g id="Layer_3">
</g>
<g id="Layer_4">
</g>
<g id="Layer_5">
</g>
<g id="Layer_6">
</g>
<g id="Layer_7">
	<g>
		<path class="st7" d="M256.97,80.13c-1.27,1.48-2.24,2.72-3.34,3.84c-0.29,0.3-0.97,0.31-1.47,0.32
			c-15.92,0.02-31.85,0.02-47.77,0.02c-1.28,0-2.55,0-3.83-0.07C219.22,82.87,237.87,81.52,256.97,80.13z M196.76,90.54
			c1.28,0.07,2.56,0.07,3.83,0.07c15.92,0,31.85,0,47.77-0.02c0.5,0,1.17-0.02,1.47-0.32c1.1-1.12,2.07-2.36,3.34-3.84
			C234.07,87.83,215.41,89.19,196.76,90.54z M174.33,81.13c2.08,0.03,4.15-0.07,6.22-0.17c25.8-1.23,51.61-2.45,77.41-3.71
			c0.81-0.04,1.9-0.12,2.35-0.68c1.69-2.1,3.16-4.4,5.09-7.17C234.57,73.37,204.45,77.25,174.33,81.13z"/>
		<path class="st8" d="M247.63,96.54h-1.75c-33.17,0-66.34,0-99.51,0c-2.07,0-2.07,0-2.07-2.09c0-9.66-0.02-19.32,0.02-28.97
			c0-1.15-0.24-1.75-1.51-1.86c-1.26-0.11-2.49-0.48-3.75-0.69c-3.55-0.61-7.13-1.85-10.64-1.68c-9.95,0.48-19.86,1.69-29.8,2.31
			c-4.92,0.31-7.13,3.09-8.3,7.33c-0.13,0.46-0.26,0.92-0.36,1.39c-2.45,11.19-3.31,22.54-3.42,33.96
			c-0.01,1.14,0.04,2.11-1.11,2.87c-0.49,0.32-0.7,1.29-0.75,1.99c-0.11,1.42-0.07,2.87,0.01,4.3c0.11,1.94,1.09,2.87,3.03,2.94
			c1.91,0.07,3.82,0.16,5.73,0.13c1.22-0.01,1.78,0.41,2.32,1.59c0.65,1.42,1.6,3.09,2.88,3.76c3.27,1.71,6.74,0.11,8.07-3.43
			c0.42-1.12,0.96-1.41,2.07-1.37c6.94,0.26,13.88,0.48,20.82,0.67c0.98,0.03,1.32,0.36,1.56,1.32c1.22,4.64,2.46,5.5,7.09,5.44
			c1.84-0.02,3.11-0.87,3.76-2.44c1.16-2.78,2.87-5.45,2.29-8.71c-0.02-0.1-0.01-0.21,0-0.32c0.02-1.83,0.31-2.02,2.3-1.41
			c0,1.18-0.18,2.43,0.04,3.6c0.31,1.64,0.79,3.29,1.45,4.82c0.63,1.47,1.92,2.17,3.61,2.08c1.43-0.07,2.87-0.01,4.3-0.01
			c3.6,0,4.97-0.81,5.75-4.31c0.44-1.97,1.51-2.13,3.07-2.34c2.29-0.3,4.85,0.34,6.71-1.74c0.21-0.23,0.81-0.12,1.23-0.15
			c0.56-0.04,1.12-0.07,1.64-0.1c0.3-3.31,0.3-3.31,3.55-3.59c0.16-0.01,0.32-0.01,0.47-0.04c0.99-0.18,1.38,0.25,1.58,1.24
			c0.31,1.49,0.7,2.99,1.31,4.38c0.69,1.57,1.99,2.38,3.83,2.26c1.59-0.11,3.18-0.02,4.78-0.02c2.84-0.01,4.02-0.75,4.95-3.48
			c0.54-1.58,0.77-3.27,1.16-5.02c1.74-0.11,3.53-0.25,5.31-0.32c10.92-0.46,21.84-0.89,32.76-1.39c0.65-0.03,1.43-0.39,1.9-0.85
			c3.28-3.17,6.49-6.42,9.73-9.62c0.7-0.69,1.48-1.32,2.22-1.97C247.85,96.83,247.74,96.69,247.63,96.54z M88.83,100.27
			c1.54,0.08,2.85,0.19,4.15,0.2c7.95,0.02,15.89-0.01,23.84,0.03c1.42,0,2.65-0.19,3.49-2.09c0.09,0.83,0.17,1.19,0.16,1.55
			c-0.07,2.65-0.21,5.29-0.22,7.94c0,1.13-0.39,1.44-1.48,1.39c-8.04-0.31-16.09-0.58-24.13-0.85c-1.53-0.05-3.08-0.04-4.6-0.18
			c-0.42-0.04-1.13-0.55-1.14-0.87C88.79,104.98,88.83,102.56,88.83,100.27z M93.4,94.78c7.16-0.04,14.32-0.03,21.48,0
			c0.43,0,0.87,0.34,1.3,0.52c-0.46,0.21-0.91,0.6-1.37,0.61c-3.55,0.05-7.11,0.03-10.66,0.03c-3.55,0-7.11,0.03-10.66-0.03
			c-0.46-0.01-0.93-0.39-1.39-0.6C92.53,95.12,92.96,94.78,93.4,94.78z M92.42,93.4c0.44-0.17,0.88-0.5,1.32-0.5
			c3.6-0.04,7.2-0.02,10.81-0.02c3.55,0,7.1-0.02,10.65,0.03c0.44,0,0.87,0.33,1.31,0.51c-0.41,0.2-0.82,0.57-1.24,0.57
			c-7.2,0.04-14.41,0.04-21.62,0C93.23,93.98,92.83,93.6,92.42,93.4z M93.13,96.7c7.09-0.04,14.19-0.04,21.28-0.01
			c0.44,0,0.88,0.33,1.32,0.5c-0.46,0.21-0.92,0.6-1.38,0.6c-3.6,0.05-7.2,0.03-10.8,0.03c0,0,0,0,0,0.01
			c-3.5,0-6.99,0.02-10.49-0.03c-0.46-0.01-0.93-0.38-1.39-0.57C92.16,97.05,92.65,96.71,93.13,96.7z M92.81,98.6
			c7.16-0.04,14.31-0.04,21.46,0c0.44,0,0.88,0.32,1.32,0.5c-0.46,0.21-0.9,0.6-1.36,0.61c-3.55,0.05-7.1,0.03-10.65,0.03
			c-3.6,0-7.21,0.02-10.81-0.03c-0.42,0-0.84-0.37-1.25-0.57C91.95,98.94,92.38,98.6,92.81,98.6z M103.14,122.25
			c-1.25-0.04-2.36-1.32-2.77-3.31h5.68C105.41,121.13,104.32,122.29,103.14,122.25z M121.38,113.23c-0.15,1.25-0.17,2.51-0.26,4.01
			c-11.47-0.41-22.73-0.81-34.19-1.21c0-1.73-0.09-3.26,0.07-4.76c0.03-0.32,0.99-0.79,1.52-0.78c3.34,0.04,6.67,0.19,10.01,0.32
			c7.09,0.26,14.18,0.57,21.27,0.78C121.05,111.62,121.53,111.96,121.38,113.23z M112.33,72.68c-4.04,4.07-7,8.77-7.89,14.56
			c-0.03,0.2-0.03,0.41-0.04,0.74h16.85c-0.16,1.94-0.31,3.76-0.42,5.19c-1.33-0.3-2.58-0.8-3.83-0.81
			c-8.17-0.07-16.33-0.04-24.5-0.02c-0.94,0-1.88,0.13-3.1,0.22c0.12-1.38,0.23-2.73,0.37-4.36c2.88,0,5.62,0.05,8.37-0.05
			c0.52-0.02,1.28-0.52,1.49-1c3.58-8.02,9.16-14.19,16.81-18.49c0.14-0.08,0.27-0.17,0.51-0.32c-9.43-0.54-15.25,4.69-20.29,11.6
			c0.58-1.29,1.09-2.62,1.77-3.85c0.72-1.29,1.54-2.54,2.44-3.71c0.89-1.17,1.93-2.22,3.06-3.5c-3.55,0.17-6.91,0.32-10.26,0.48
			c0.21-1.76,1.31-2.95,3.25-3.19c5.62-0.7,11.25-1.38,16.89-1.94c3.89-0.39,7.8-0.56,12.09-0.85c-0.42,1.52-0.73,2.76-1.14,3.97
			c-0.09,0.25-0.52,0.46-0.84,0.55c-0.4,0.12-0.85,0.18-1.26,0.12C118.26,67.5,115.16,69.83,112.33,72.68z M132.69,110.25
			c-1.05,1.86-1.35,4.16-1.92,6.29c-0.13,0.49-0.06,1.04-0.1,1.8c-2.46,0-4.83,0.06-7.19-0.07c-0.31-0.02-0.82-0.97-0.8-1.48
			c0.14-4.88,0.3-9.75,0.61-14.62c0.61-9.52,1.45-19.03,3.48-28.37c0.69-3.15,1.76-6.21,2.58-9.33c0.39-1.51,1.19-1.82,2.66-1.48
			c3.1,0.7,6.23,1.31,9.36,1.81c1.23,0.2,1.52,0.72,1.51,1.87c-0.04,9.71-0.03,19.41-0.03,29.11c0,4.14,0,8.28,0.01,12.41v1.54
			c-0.14,0.07-0.28,0.14-0.42,0.21c-0.96-3.13-3.46-3.41-5.81-2.78C135.12,107.58,133.46,108.89,132.69,110.25z M141.12,123.17
			c-1.04,1.95-2.89,1.82-4.16-0.03c-1.94-2.81-1.99-8.65-0.09-11.52c1.33-2.02,3.23-2.14,4.34-0.03c0.9,1.72,1.28,3.72,1.95,5.76
			C142.48,119.37,142.06,121.4,141.12,123.17z M160.24,120.99c-1.34,2.19-3.34,2.26-4.53-0.04c-0.83-1.59-1.14-3.45-1.68-5.19
			c0.12-0.04,0.25-0.08,0.38-0.11c0-0.32,0.03-0.64,0-0.96c-0.12-1.39,0.46-2.03,1.89-1.97c1.06,0.04,2.14,0.06,3.17-0.11
			c1.62-0.27,2.03,0.58,2.09,1.93C161.64,116.81,161.45,119.01,160.24,120.99z M194.36,114.89c-0.51,1.52-1.1,3.09-3.02,3.29
			c-1.24,0.13-2.4-1.16-3.08-3.22c-1.1-3.33-1.01-3.43,3.39-3.69h0.05C195.26,111.06,195.53,111.4,194.36,114.89z M138.51,68.51
			c0,6.47,0,12.79,0,19.29c-3.94,0-7.77,0-11.84,0c0.28-2.25,0.48-4.56,0.88-6.82c0.7-3.9,1.54-7.78,2.28-11.68
			c0.23-1.19,0.83-1.5,1.99-1.36C134.02,68.2,136.22,68.32,138.51,68.51z M134.63,77.16c-0.14,0.13-0.28,0.26-0.42,0.39
			c-2.03,0.02-2.03,0.02-2.03,2.09c0,1.43,0.03,2.85-0.01,4.28c-0.02,0.92,0.4,1.25,1.25,1.14c0.57-0.07,1.15-0.25,1.72-0.25
			c1.3,0,1.54-0.65,1.68-1.87c0.29-2.45-0.6-4.64-1.06-6.92c-0.21-1.06-1.12-1.17-2.01-1.02c-0.28,0.05-0.51,0.39-0.77,0.6
			c0.2,0.21,0.4,0.42,0.61,0.62C133.94,76.53,134.29,76.84,134.63,77.16z M130.24,108.74c1.61-1.23,3.25-2.43,4.82-3.72
			c0.6-0.49,1.22-1.14,1.46-1.84c0.62-1.88,1.04-3.84,1.67-5.73c0,2.48,0,4.95,0,7.57c-2.97,0.56-5.66,1.67-7.5,4.27
			C130.53,109.11,130.39,108.93,130.24,108.74z"/>
	</g>
</g>
<g id="Layer_8">
</g>
<g id="Layer_9">
</g>
<g id="Layer_10">
</g>
<g id="Layer_11">
</g>
<g id="Layer_12">
</g>
<g id="Layer_13">
</g>
<g id="Layer_14">
</g>
<g id="Layer_15">
</g>
</svg>
