<?xml version="1.0" encoding="utf-8"?>
<!-- Generator: Adobe Illustrator 27.8.1, SVG Export Plug-In . SVG Version: 6.00 Build 0)  -->
<svg version="1.1" xmlns="http://www.w3.org/2000/svg" xmlns:xlink="http://www.w3.org/1999/xlink" x="0px" y="0px"
	 viewBox="0 0 350 230" style="enable-background:new 0 0 350 230;" xml:space="preserve">
<style type="text/css">
	.st0{fill:#009EFF;}
	.st1{fill:#FF8500;}
	.st2{fill:#9B3C00;}
	.st3{fill:#660045;}
	.st4{fill:#00576B;}
	.st5{fill:#564F2C;}
	.st6{fill:#FFA354;}
	.st7{fill:#002760;}
	.st8{fill:#4C0037;}
	.st9{fill:#7C0B00;}
	.st10{fill:#144703;}
	.st11{fill:#2C6DC9;}
	.st12{fill:#3B243C;}
	.st13{fill:#001EA4;}
	.st14{fill:#8D5300;}
	.st15{fill:#30A976;}
	.st16{fill:#A02400;}
	.st17{fill:#0092FF;}
	.st18{fill:#60086C;}
	.st19{fill:#520013;}
	.st20{fill:#00AB7B;}
</style>
<g id="Layer_1">
</g>
<g id="Layer_2">
</g>
<g id="Layer_3">
</g>
<g id="Layer_4">
</g>
<g id="Layer_5">
</g>
<g id="Layer_6">
</g>
<g id="Layer_7">
</g>
<g id="Layer_8">
	<path class="st9" d="M254.12,117.87c-2.07,0.16-3.92,0.42-5.77,0.41c-1.83-0.01-2.83,0.5-3.04,2.55c-0.14,1.41-0.78,2.82-1.41,4.13
		c-1.04,2.16-2.72,3.34-5.27,3.17c-2.03-0.14-4.08-0.03-6.12-0.03c-4.45,0-5.8-1-7.39-5.2c-0.39-1.03-1.37-2.82-1.65-2.74
		c-2.2,0.61-5.14-1.42-6.66,1.7c-0.12,0.24-0.47,0.49-0.75,0.53c-4.34,0.57-8.2,3.28-12.78,2.83c-2.03-0.2-3.13,0.62-3.65,2.87
		c-1.14,4.89-2.87,5.99-7.95,5.99c-1.88,0-3.76-0.11-5.63,0.03c-2.79,0.21-4.6-1.16-5.53-3.54c-0.9-2.32-1.42-4.79-2.14-7.31
		c-0.64,0-1.42,0-1.84,0c-0.96,2.97-1.85,5.7-2.73,8.43c-1.29,3.97-3.27,5.68-6.61,5.73c-5.49,0.07-7.07-0.92-8.71-5.52
		c-1.31-3.68-1.31-3.59-5.32-3.7c-8.31-0.23-16.63-0.5-24.93-0.88c-1.95-0.09-3.15,0.21-3.79,2.33c-1.07,3.52-3.63,4.68-7.33,4.69
		c-3.69,0.01-6.08-1.41-7.06-4.73c-0.76-2.56-2.14-3.19-4.58-3.05c-2.27,0.13-4.56-0.14-6.84-0.28c-2.68-0.17-3.85-1.36-3.92-3.98
		c-0.05-1.88-0.1-3.76,0.03-5.63c0.06-0.93,0.26-2.21,0.88-2.66c1.68-1.21,1.6-2.75,1.61-4.49c0.14-15.04,1.37-29.97,4.4-44.73
		c0.24-1.19,0.66-2.35,0.96-3.54c1.52-6.07,5.25-9.18,11.66-9.42c4.63-0.18,9.24-0.98,13.84-1.6c1.26-0.17,2.46-0.76,3.71-1.05
		c1.66-0.38,3.33-0.93,5-0.94c10.69-0.07,21.39,0.13,32.07-0.05c7.8-0.13,15.36,0.64,22.95,2.64c20.02,5.28,40.15,10.12,60.23,15.14
		c0.69,0.17,1.37,0.4,2.51,0.74c-9.19,22.36-27.65,31.89-49.27,37.33c17.92-2.22,34.83-7.26,50.02-17.42
		c-0.17,6.58-5.95,13.7-16.9,20.64c0.92,0.14,1.47,0.3,2.01,0.3c3.84,0.02,7.67,0.06,11.51,0c1.49-0.02,2.27,0.33,2.19,2.03
		C254.04,112.24,254.12,114.92,254.12,117.87z M150.28,57.6c-0.5-0.04-0.97-0.13-1.44-0.12c-6.03,0.23-12.06,0.71-18.08,0.65
		c-6.26-0.05-11.41,2.48-16.01,6.25c-3.33,2.73-6.23,5.98-9.33,9c-0.12-0.06-0.25-0.12-0.37-0.18c3.28-4.65,6.55-9.3,9.91-14.05
		c-1.33,0-2.75-0.05-4.17,0.01c-4.95,0.19-6.42,1.07-7.43,6c-1.17,5.72-1.85,11.55-2.49,17.36c-0.32,2.92,0.59,3.62,3.52,3.56
		c13.2-0.27,26.4-0.58,39.6-0.8c1.59-0.03,2.07-0.56,2.21-2.1c0.35-3.89,0.76-7.79,1.39-11.64
		C148.35,66.91,149.36,62.32,150.28,57.6z M121.33,102.38c5.95,0,11.89,0.02,17.84-0.01c2.72-0.01,3.86-1.09,4.13-3.73
		c0.09-0.89,0.22-1.78,0.3-2.67c0.39-4.4-0.57-5.44-4.93-5.44c-10.18,0.01-20.36,0.01-30.54,0c-7.85-0.01-7.85-0.02-8.33,7.7
		c-0.19,3.02,0.84,4.13,3.94,4.14C109.61,102.39,115.47,102.38,121.33,102.38z M150.39,85.2c6.04,0,11.56,0.03,17.07-0.07
		c0.38-0.01,1.05-0.99,1.05-1.52c0.07-7.91,0.09-15.82-0.03-23.73c-0.01-0.61-1.01-1.65-1.66-1.73c-2.74-0.37-5.53-0.4-8.28-0.68
		c-1.55-0.16-2.42,0.31-2.82,1.87c-0.86,3.39-2.03,6.71-2.72,10.14C151.99,74.64,151.27,79.85,150.39,85.2z M180.51,106.3
		c0-1.27,0-2.32,0-3.37c0-15.65,0-31.3,0-46.96c0-1.22,0.11-2.46-0.05-3.66c-0.08-0.55-0.68-1.45-1.08-1.47
		c-2.72-0.13-5.44-0.07-8.17-0.07c-0.03,0.19-0.05,0.38-0.08,0.57c1.51,0.37,3.03,0.74,4.72,1.16c0,17.94,0,35.77,0,53.79
		C177.42,106.3,178.76,106.3,180.51,106.3z M174.23,125.02c-0.86-2.74-1.34-5.42-2.53-7.74c-1.49-2.89-4.16-2.78-5.96-0.1
		c-2.62,3.89-2.6,11.73,0.02,15.66c1.71,2.56,4.41,2.73,5.83,0.01C172.82,130.48,173.35,127.72,174.23,125.02z M199.16,121.62
		c-3.03,0.21-5.7,0.33-8.36,0.64c-0.47,0.05-1.29,0.98-1.2,1.31c0.65,2.46,1.15,5.07,2.37,7.25c1.15,2.05,3.37,1.91,4.88,0.06
		C198.98,128.29,199.42,125.23,199.16,121.62z M168.66,92.07c-0.23-0.03-0.45-0.06-0.68-0.09c-0.78,2.94-1.7,5.85-2.3,8.82
		c-0.41,2.02-1.39,3.21-3.21,4.19c-4.66,2.52-7.64,6.38-8.62,12.12c0.47-0.43,0.72-0.55,0.77-0.72c2.03-6.27,6.32-9.89,12.77-11.09
		c0.47-0.09,1.19-0.76,1.2-1.18C168.7,100.1,168.66,96.08,168.66,92.07z M234.64,119.28c1.03,2.21,1.6,4.06,2.66,5.57
		c1.36,1.94,3.57,1.99,4.89,0.06c1.16-1.69,1.77-3.77,2.91-6.31C241.22,118.84,238.28,119.04,234.64,119.28z M162.71,112.78
		c6.96-1.76,10.59,1.36,12.06,7.83c-0.46-3.94-0.8-7.83-4.72-9.72C167.82,109.8,164.31,110.66,162.71,112.78z M115.85,127.27
		c0.71,2.27,1.59,4.2,4.09,4.41c1.7,0.14,3.22-1.79,3.56-4.41C121.03,127.27,118.58,127.27,115.85,127.27z M136.17,100.13
		c-10.52,0-21.04,0-31.57,0c0,0.13,0,0.25,0,0.38c10.52,0,21.04,0,31.56,0C136.16,100.39,136.16,100.26,136.17,100.13z
		 M137.22,92.37c-10.43,0-20.85,0-31.28,0c0,0.13,0,0.26,0,0.39c10.44,0,20.87,0,31.31,0C137.24,92.63,137.23,92.5,137.22,92.37z
		 M136.3,97.5c-10.46,0-20.91,0-31.37,0c0,0.13,0,0.27,0,0.4c10.46,0,20.91,0,31.37,0C136.3,97.77,136.3,97.63,136.3,97.5z
		 M105.56,95.3c10.39,0,20.78,0,31.17,0c0-0.13,0-0.25,0-0.38c-10.36,0-20.71,0-31.07,0C105.63,95.05,105.59,95.17,105.56,95.3z
		 M163.83,68.78c-0.25-1.3-1.57-1.39-3.06-0.2c1.85,0.14,2.69,0.9,1.76,2.75c-0.82,0-1.68,0-2.53,0c0,3.15,0,6.18,0,9.43
		c1.78-0.22,3.29-0.41,5.65-0.71C165.02,76.06,164.53,72.4,163.83,68.78z"/>
</g>
<g id="Layer_9">
</g>
<g id="Layer_10">
</g>
<g id="Layer_11">
</g>
<g id="Layer_12">
</g>
<g id="Layer_13">
</g>
<g id="Layer_14">
</g>
<g id="Layer_15">
</g>
</svg>
