<?xml version="1.0" encoding="utf-8"?>
<!-- Generator: Adobe Illustrator 27.8.1, SVG Export Plug-In . SVG Version: 6.00 Build 0)  -->
<svg version="1.1" xmlns="http://www.w3.org/2000/svg" xmlns:xlink="http://www.w3.org/1999/xlink" x="0px" y="0px"
	 viewBox="0 0 350 230" style="enable-background:new 0 0 350 230;" xml:space="preserve">
<style type="text/css">
	.st0{fill:#009EFF;}
	.st1{fill:#FF8500;}
	.st2{fill:#9B3C00;}
	.st3{fill:#660045;}
	.st4{fill:#00576B;}
	.st5{fill:#564F2C;}
	.st6{fill:#FFA354;}
	.st7{fill:#002760;}
	.st8{fill:#4C0037;}
	.st9{fill:#7C0B00;}
	.st10{fill:#144703;}
	.st11{fill:#2C6DC9;}
	.st12{fill:#3B243C;}
	.st13{fill:#001EA4;}
	.st14{fill:#8D5300;}
	.st15{fill:#30A976;}
	.st16{fill:#A02400;}
	.st17{fill:#0092FF;}
	.st18{fill:#60086C;}
	.st19{fill:#520013;}
	.st20{fill:#00AB7B;}
</style>
<g id="Layer_1">
</g>
<g id="Layer_2">
</g>
<g id="Layer_3">
</g>
<g id="Layer_4">
</g>
<g id="Layer_5">
</g>
<g id="Layer_6">
</g>
<g id="Layer_7">
</g>
<g id="Layer_8">
</g>
<g id="Layer_9">
	<path class="st10" d="M254,100.28c0.01-0.73-0.4-0.83-0.99-0.83c-1.46,0.02-2.92,0.01-4.39,0.02c-26.28,0.09-52.55,0.18-78.83,0.29
		c-1.06,0.01-1.48-0.22-1.58-1.39c-0.58-6.81-1.27-13.61-1.92-20.41c-0.07-0.7-0.07-1.41-0.11-2.26h14.8
		c-5.14-2.5-10.33-4.74-15.53-6.96c-1.66-0.71-3.37-0.75-5.17-0.54c-1.4,0.16-2.92,0.04-4.27-0.34c-3.52-0.98-7.14-1.43-10.69-1.09
		c-5.8,0.55-11.55,1.68-17.33,2.51c-5.59,0.81-9.62,3.92-12.6,8.52c-0.59,0.91-1.18,1.48-2.27,1.61c-0.4,0.05-0.95,0.36-1.1,0.69
		c-0.6,1.36-1.07,2.78-1.56,4.07c0.41,0.29,0.96,0.55,0.93,0.69c-0.3,1.32-0.7,2.62-1.07,3.93c-0.11-0.03-0.22-0.06-0.33-0.08
		c-0.03-0.68-0.07-1.35-0.1-2.01c-1.23-0.11-1.5,0.07-1.56,1.1c-0.04,0.73-0.11,1.48,0,2.19c0.22,1.53-0.25,2.43-1.88,2.67
		c-0.75,0.11-1.46,0.51-2.17,0.79c-4.65,1.88-4.78,2.01-5.32,7c-0.25,2.29-0.36,4.6-0.54,7c-2.14-0.64-2.35-0.47-2.35,1.73
		c0,1.12,0.09,2.24-0.02,3.35c-0.13,1.35,0.36,1.93,1.71,1.8c0.3-0.03,0.6,0.06,0.9,0.04c0.99-0.06,1.51,0.34,1.89,1.31
		c0.6,1.55,1.46,2.92,3.44,3.04c2.39,0.14,4.64,0.04,5.64-2.66c0.29-0.79,0.78-0.95,1.57-0.94c3.53,0.03,7.05,0,10.58-0.04
		c0.97-0.01,1.93-0.14,2.76-0.2c0.49,1.42,0.74,2.73,1.38,3.81c0.53,0.9,1.41,1.89,2.35,2.2c3.48,1.13,5.87-0.28,6.92-3.8
		c0.1-0.33,0.09-0.73,0.28-0.98c0.26-0.35,0.63-0.83,0.99-0.86c6.46-0.59,12.93-1.1,19.4-1.67c0.91-0.08,1.53,0.09,2,0.95
		c0.25,0.45,0.79,1.03,1.22,1.05c2.22,0.11,4.52,0.37,6.66-0.07c1.25-0.26,2.47-0.58,3.73-0.52c1.62,0.08,2.66-0.66,3.2-2.07
		c0.38-0.99,0.69-2.05,0.77-3.1c0.08-1.03,0.48-1.37,1.43-1.28c0.26,0.03,0.52,0.01,0.77,0.01c25.63,0,51.27,0,76.9,0h1.49
		C253.99,105.68,253.98,102.98,254,100.28z M114.8,80.27c5.41-0.62,10.84-1.15,16.26-1.7c0.54-0.06,1.09-0.01,1.95-0.01
		c-0.47,1.18-0.8,2.14-1.25,3.04c-0.13,0.26-0.61,0.46-0.95,0.48c-6,0.4-12.01,0.78-18.01,1.15c-0.16,0.01-0.33-0.05-0.49-0.08
		C112.47,81.04,112.83,80.5,114.8,80.27z M128.71,84.73c0.27-0.33,0.49-0.73,0.82-0.98c0.35-0.27,0.8-0.4,1.2-0.59
		c0.05,0.12,0.11,0.24,0.16,0.36c-2.32,3.44-5.75,7.06-6.8,6.94C125.67,88.5,127.19,86.61,128.71,84.73z M123.28,90.27
		c-0.21,0.24-0.68,0.25-1.02,0.36c-0.07-0.1-0.14-0.2-0.21-0.3c1.6-2.2,3.16-4.44,4.84-6.58c0.3-0.37,1.15-0.31,1.74-0.44
		c0.06,0.14,0.13,0.28,0.19,0.41C126.98,85.91,125.15,88.11,123.28,90.27z M120.11,84.4c0.11-0.33,0.9-0.43,1.38-0.64
		c0.09,0.11,0.17,0.21,0.26,0.32c-0.59,2.03-1.13,4.08-1.82,6.08c-0.11,0.33-0.89,0.44-1.35,0.65c-0.09-0.11-0.18-0.22-0.27-0.33
		C118.88,88.45,119.42,86.4,120.11,84.4z M112.52,91.08c0.52-0.84,0.93-1.54,1.38-2.24c0.78-1.23,1.64-2.41,2.35-3.68
		c0.58-1.05,1.39-1.23,2.45-1.03C117.88,86.04,113.71,90.89,112.52,91.08z M101.76,97.09c3.81-0.02,7.63-0.02,11.44,0.01
		c0.35,0,0.7,0.28,1.05,0.43c-0.35,0.14-0.7,0.41-1.05,0.42c-3.81,0.03-7.63,0.02-11.44,0.01c-0.35,0-0.7-0.09-1.05-0.13
		c-0.02-0.17-0.04-0.34-0.06-0.51C101.02,97.24,101.39,97.1,101.76,97.09z M101.12,99.86c2.01-0.03,4.03-0.02,6.04-0.02v-0.03
		c1.93,0,3.86-0.02,5.78,0.02c0.31,0.01,0.61,0.28,0.91,0.43c-0.3,0.16-0.59,0.47-0.89,0.47c-3.94,0.03-7.88,0.03-11.83-0.01
		c-0.29,0-0.57-0.33-0.85-0.5C100.57,100.09,100.85,99.87,101.12,99.86z M113.02,102.56c0.3,0,0.6,0.09,0.9,0.13
		c-0.17,0.19-0.34,0.37-0.51,0.55H99.95c-0.01-0.22-0.02-0.44-0.03-0.66C104.28,102.47,108.65,102.53,113.02,102.56z M133.61,118.15
		c-0.91,1.74-2.56,1.64-3.66-0.01c-1.63-2.44-1.65-7.45-0.04-9.87c1.18-1.77,2.86-1.83,3.8,0.07c0.74,1.5,1.04,3.21,1.57,4.93
		C134.72,114.96,134.39,116.67,133.61,118.15z M160.25,110.74c-0.01,0.26-0.6,0.66-0.96,0.7c-2.18,0.25-4.36,0.43-6.55,0.61
		c-4.28,0.37-8.56,0.73-12.85,1.09c-0.34,0.03-0.68,0-1.14,0c-0.13-1.4-0.25-2.75-0.4-4.31c5.95-0.34,11.8-0.67,17.66-1.01
		c0.03-0.12,0.05-0.24,0.07-0.36c-0.83-0.18-1.67-0.55-2.48-0.5c-4.68,0.29-9.35,0.65-14.02,1.06c-1.11,0.1-1.5-0.27-1.87-1.31
		c-0.58-1.64-1.37-3.24-2.26-4.74c-0.29-0.48-1.19-0.86-1.79-0.84c-3.35,0.13-5.85,1.78-7.19,4.81c-0.82,1.86-1.3,3.89-1.74,5.89
		c-0.2,0.9-0.51,1.29-1.38,1.29c-6.14-0.04-12.29-0.04-18.43-0.13c-1.97-0.03-3.94-0.28-5.92-0.38c-0.85-0.04-1.24-0.36-1.19-1.26
		c0.16-2.85-0.84-3.5,3.31-3.24c4.06,0.26,8.16-0.01,12.24-0.01c0.97,0,1.31-0.45,1.46-1.37c0.58-3.65,1.18-7.29,1.89-10.92
		c0.1-0.52,0.74-1.19,1.26-1.34c4.21-1.18,8.43-2.34,12.7-3.31c2.29-0.52,3.02-0.97,3.51-3.2c0.25-1.13,0.61-2.25,0.75-3.39
		c0.14-1.19,0.67-1.66,1.85-1.49c0.28,0.04,0.58-0.03,1.06-0.06c0-0.7,0.02-1.26-0.01-1.81c-0.04-0.85,0.19-2.13-0.25-2.45
		c-0.96-0.69-2.28-1.26-3.44-1.22c-5.23,0.17-10.46,0.57-15.69,0.89c-0.36,0.02-0.73,0.06-1.37,0.12c1.74-2.7,3.76-4.8,6.44-5.9
		c2.43-1,5.06-1.61,7.66-2.08c4.44-0.8,8.9-1.55,13.39-1.95c4.37-0.39,8.71,0.23,12.91,1.6c0.3,0.1,0.59,0.55,0.69,0.89
		c0.12,0.39,0.04,0.85,0.04,1.28v32.43c0.73,0.09,1.31,0.16,2.06,0.25C160.29,106.99,160.33,108.86,160.25,110.74z M161.52,100.46
		c-0.14,0.27-0.51,0.53-0.8,0.56c-0.2,0.02-0.5-0.32-0.65-0.56c-0.1-0.15-0.04-0.42-0.04-0.63c0-9.72,0.01-19.44-0.02-29.16
		c0-0.99,0.27-1.48,1.49-1.19c0.02,0.48,0.06,0.9,0.06,1.33c0.01,9.55,0.01,19.09,0,28.64C161.58,99.79,161.66,100.19,161.52,100.46
		z M167.49,111.7c-0.03,0.13-0.08,0.25-0.11,0.37c-0.5,1.69-1.44,2.78-2.42,2.64c-1.47-0.22-1.86-1.48-2.31-2.65
		c-0.03-0.08-0.03-0.17-0.05-0.25c-0.75-3.1-0.61-3.27,2.5-3.27C168.03,108.54,168.22,108.79,167.49,111.7z M171.67,112.99
		c-0.41,0.49-1.48,0.98-1.9,0.77c-0.69-0.35-1.1-1.27-1.62-1.95c-0.04-0.05,0.02-0.17,0.03-0.25c0.14-0.95,0.09-2.65,0.44-2.73
		c1.31-0.33,2.75-0.13,4.2-0.13C172.92,110.32,172.67,111.81,171.67,112.99z M137.42,91.95c0.6,0.35,0.99,0.58,1.47,0.87
		c0.5-0.6,1.01-1.22,1.68-2.03c-1.17,0-2.1,0-3.24,0c0.49-2.54,0.96-4.95,1.45-7.51c1.78,0.17,3.52,0.31,5.24,0.53
		c0.23,0.03,0.55,0.52,0.56,0.8c0.05,1.67,0.06,3.35-0.01,5.02c-0.01,0.28-0.5,0.8-0.71,0.77c-2.4-0.35-3.53,1.32-4.69,2.91
		c-0.42,0.58-0.75,1.22-1.12,1.84c-0.21-0.17-0.42-0.33-0.63-0.5C137.42,93.84,137.42,93.02,137.42,91.95z M140.64,84.33
		c0,1.6,0.01,3.18-0.01,4.76c-0.01,0.64,0.09,1.07,0.89,1.07c0.77,0,0.95-0.38,0.94-1.04c-0.02-1.2-0.08-2.4,0.01-3.6
		C142.57,84.2,141.99,83.93,140.64,84.33z M117.51,103.12c7.28-6,15.76-7.24,24.8-6.21C133.89,98.36,125.33,99.3,117.51,103.12z
		 M150.5,82.05c0.25,6.65,0.54,13.29,0.7,19.94c0.03,1.42,0.5,1.98,1.86,2.12c1.21,0.13,2.4,0.45,3.57,0.97c-2.33,0-4.66,0-7.12,0
		c0.29-7.7,0.59-15.37,0.88-23.03C150.43,82.05,150.47,82.05,150.5,82.05z M116.46,107.27c-0.01-1.54,0.39-2.7,1.73-3.27
		c1.29-0.55,2.61-1.04,3.95-1.44c0.98-0.3,1.41,0.25,1.43,1.22c0.04,1.7-0.48,2.43-2.11,2.71C119.84,106.78,118.2,107,116.46,107.27
		z M152.76,73.23c-2.7-3.23-4.14-3.37-8.47-1c0.83-1.54,3.32-2.77,5.13-2.53C151.22,69.94,152.25,70.99,152.76,73.23z"/>
</g>
<g id="Layer_10">
</g>
<g id="Layer_11">
</g>
<g id="Layer_12">
</g>
<g id="Layer_13">
</g>
<g id="Layer_14">
</g>
<g id="Layer_15">
</g>
</svg>
